0, 0, Header, 1, 38, 120
1, 0, Start_track
1, 0, Time_signature, 12, 3, 12, 8
1, 0, Key_signature, -1, "major"
1, 0, Tempo, 338983
1, 2, Tempo, 337079
1, 1440, Marker_t, "Intro"
1, 7200, Marker_t, "Verse 1"
1, 12960, Key_signature, -4, "major"
1, 16560, Marker_t, "End 1"
1, 17280, Key_signature, -1, "major"
1, 20160, Marker_t, "Verse 2 (D.S.)"
1, 25920, Key_signature, -4, "major"
1, 29520, Marker_t, "End 2..3"
1, 31680, Marker_t, "Chorus"
1, 36000, Marker_t, "Coda"
1, 37440, Marker_t, "Guitar Bridge"
1, 48960, Marker_t, "Guitar Solo"
1, 54720, Marker_t, "Gtr Chorus"
1, 60480, Key_signature, -1, "major"
1, 60480, Marker_t, "Piano Solo"
1, 69120, Key_signature, -4, "major"
1, 69120, Marker_t, "Piano Chorus"
1, 74880, Key_signature, -1, "major"
1, 74880, Marker_t, "D.S.al Coda"
1, 80640, Key_signature, -4, "major"
1, 84240, Marker_t, "End 2..3"
1, 86400, Marker_t, "Chorus"
1, 90720, Marker_t, "Coda"
1, 92160, Marker_t, "at A"
1, 97920, Marker_t, "at B"
1, 103680, Marker_t, "at C"
1, 109440, Marker_t, "at D"
1, 115200, Marker_t, "Fade"
1, 115200, End_track
2, 0, Start_track
2, 0, MIDI_port, 0
2, 0, Title_t, "=================================="
2, 0, End_track
3, 0, Start_track
3, 0, MIDI_port, 0
3, 0, Title_t, "Aspen"
3, 0, End_track
4, 0, Start_track
4, 0, MIDI_port, 0
4, 0, Title_t, "by The Rippingtons"
4, 0, End_track
5, 0, Start_track
5, 0, MIDI_port, 0
5, 0, Title_t, "Copyright © 1991, Who's Hacking Music"
5, 0, End_track
6, 0, Start_track
6, 0, MIDI_port, 0
6, 0, Title_t, "sequenced by Bob Baker"
6, 0, End_track
7, 0, Start_track
7, 0, MIDI_port, 0
7, 0, Title_t, "(bbaker@gate.net)"
7, 0, End_track
8, 0, Start_track
8, 0, MIDI_port, 0
8, 0, Title_t, "=================================="
8, 0, End_track
9, 0, Start_track
9, 0, MIDI_port, 0
9, 0, Title_t, "GM/GS Reset"
9, 0, MIDI_port, 0
9, 0, System_exclusive, 5, 126, 127, 9, 1, 247
9, 0, MIDI_port, 0
9, 0, MIDI_port, 0
9, 7, System_exclusive, 10, 65, 16, 66, 18, 64, 0, 127, 0, 65, 247
9, 7, MIDI_port, 0
9, 7, MIDI_port, 0
9, 121320, System_exclusive, 5, 126, 127, 9, 1, 247
9, 121320, MIDI_port, 0
9, 121320, MIDI_port, 0
9, 121327, System_exclusive, 10, 65, 16, 66, 18, 64, 0, 127, 0, 65, 247
9, 121327, MIDI_port, 0
9, 121327, End_track
10, 0, Start_track
10, 0, MIDI_port, 0
10, 0, Title_t, "=================================="
10, 0, End_track
11, 0, Start_track
11, 0, MIDI_port, 0
11, 0, Title_t, "Piano"
11, 20, Control_c, 0, 121, 0
11, 21, Control_c, 0, 0, 0
11, 21, Control_c, 0, 32, 8
11, 21, Program_c, 0, 2
11, 22, Control_c, 0, 7, 88
11, 23, Control_c, 0, 10, 32
11, 24, Control_c, 0, 91, 64
11, 25, Control_c, 0, 93, 48
11, 25, Control_c, 0, 99, 1
11, 28, Control_c, 0, 98, 32
11, 29, Control_c, 0, 6, 64
11, 30, Control_c, 0, 99, 1
11, 32, Control_c, 0, 98, 33
11, 33, Control_c, 0, 6, 68
11, 34, Control_c, 0, 101, 127
11, 35, Control_c, 0, 100, 127
11, 1440, Note_on_c, 0, 57, 82
11, 1440, Note_on_c, 0, 60, 82
11, 1440, Note_on_c, 0, 64, 82
11, 1680, Note_on_c, 0, 64, 0
11, 1680, Note_on_c, 0, 60, 0
11, 1680, Note_on_c, 0, 57, 0
11, 1740, Note_on_c, 0, 58, 82
11, 1740, Note_on_c, 0, 62, 82
11, 1740, Note_on_c, 0, 65, 82
11, 2520, Note_on_c, 0, 65, 0
11, 2520, Note_on_c, 0, 62, 0
11, 2520, Note_on_c, 0, 58, 0
11, 2640, Note_on_c, 0, 58, 72
11, 2640, Note_on_c, 0, 65, 72
11, 2640, Note_on_c, 0, 62, 72
11, 2760, Note_on_c, 0, 62, 0
11, 2760, Note_on_c, 0, 65, 0
11, 2760, Note_on_c, 0, 58, 0
11, 2760, Note_on_c, 0, 64, 72
11, 2760, Note_on_c, 0, 67, 72
11, 2820, Note_on_c, 0, 69, 72
11, 2880, Note_on_c, 0, 69, 0
11, 2880, Note_on_c, 0, 67, 0
11, 2880, Note_on_c, 0, 64, 0
11, 2880, Note_on_c, 0, 57, 82
11, 2880, Note_on_c, 0, 60, 82
11, 2880, Note_on_c, 0, 64, 82
11, 3120, Note_on_c, 0, 64, 0
11, 3120, Note_on_c, 0, 60, 0
11, 3120, Note_on_c, 0, 57, 0
11, 3180, Note_on_c, 0, 65, 82
11, 3180, Note_on_c, 0, 67, 82
11, 3180, Note_on_c, 0, 60, 82
11, 3420, Note_on_c, 0, 60, 0
11, 3420, Note_on_c, 0, 67, 0
11, 3420, Note_on_c, 0, 65, 0
11, 3420, Note_on_c, 0, 55, 82
11, 3420, Note_on_c, 0, 58, 82
11, 3420, Note_on_c, 0, 62, 82
11, 3960, Note_on_c, 0, 62, 0
11, 3960, Note_on_c, 0, 58, 0
11, 3960, Note_on_c, 0, 55, 0
11, 4320, Note_on_c, 0, 57, 82
11, 4320, Note_on_c, 0, 60, 82
11, 4320, Note_on_c, 0, 64, 82
11, 4560, Note_on_c, 0, 64, 0
11, 4560, Note_on_c, 0, 60, 0
11, 4560, Note_on_c, 0, 57, 0
11, 4620, Note_on_c, 0, 58, 82
11, 4620, Note_on_c, 0, 62, 82
11, 4620, Note_on_c, 0, 65, 82
11, 5400, Note_on_c, 0, 65, 0
11, 5400, Note_on_c, 0, 62, 0
11, 5400, Note_on_c, 0, 58, 0
11, 5400, Note_on_c, 0, 58, 72
11, 5460, Note_on_c, 0, 60, 68
11, 5520, Note_on_c, 0, 60, 0
11, 5520, Note_on_c, 0, 58, 0
11, 5520, Note_on_c, 0, 64, 70
11, 5520, Note_on_c, 0, 67, 72
11, 5640, Note_on_c, 0, 67, 0
11, 5640, Note_on_c, 0, 64, 0
11, 5640, Note_on_c, 0, 67, 72
11, 5640, Note_on_c, 0, 72, 72
11, 5760, Note_on_c, 0, 72, 0
11, 5760, Note_on_c, 0, 67, 0
11, 5760, Note_on_c, 0, 67, 82
11, 5760, Note_on_c, 0, 60, 82
11, 5760, Note_on_c, 0, 64, 82
11, 6000, Note_on_c, 0, 64, 0
11, 6000, Note_on_c, 0, 60, 0
11, 6000, Note_on_c, 0, 67, 0
11, 6060, Note_on_c, 0, 64, 82
11, 6060, Note_on_c, 0, 57, 82
11, 6060, Note_on_c, 0, 60, 82
11, 6300, Note_on_c, 0, 60, 0
11, 6300, Note_on_c, 0, 57, 0
11, 6300, Note_on_c, 0, 64, 0
11, 6300, Note_on_c, 0, 65, 82
11, 6300, Note_on_c, 0, 58, 82
11, 6300, Note_on_c, 0, 62, 82
11, 6840, Note_on_c, 0, 62, 0
11, 6840, Note_on_c, 0, 58, 0
11, 6840, Note_on_c, 0, 65, 0
11, 7200, Note_on_c, 0, 57, 82
11, 7200, Note_on_c, 0, 60, 82
11, 7200, Note_on_c, 0, 64, 82
11, 7380, Note_on_c, 0, 64, 0
11, 7380, Note_on_c, 0, 60, 0
11, 7380, Note_on_c, 0, 57, 0
11, 7560, Note_on_c, 0, 57, 82
11, 7560, Note_on_c, 0, 60, 82
11, 7560, Note_on_c, 0, 64, 82
11, 7740, Note_on_c, 0, 64, 0
11, 7740, Note_on_c, 0, 60, 0
11, 7740, Note_on_c, 0, 57, 0
11, 7860, Note_on_c, 0, 62, 82
11, 7860, Note_on_c, 0, 57, 82
11, 7980, Note_on_c, 0, 57, 0
11, 7980, Note_on_c, 0, 62, 0
11, 7980, Note_on_c, 0, 69, 82
11, 7980, Note_on_c, 0, 65, 82
11, 8100, Note_on_c, 0, 65, 0
11, 8100, Note_on_c, 0, 69, 0
11, 8100, Note_on_c, 0, 65, 82
11, 8100, Note_on_c, 0, 62, 82
11, 8340, Note_on_c, 0, 62, 0
11, 8340, Note_on_c, 0, 65, 0
11, 8460, Note_on_c, 0, 60, 82
11, 8460, Note_on_c, 0, 64, 82
11, 8460, Note_on_c, 0, 67, 82
11, 8580, Note_on_c, 0, 67, 0
11, 8580, Note_on_c, 0, 64, 0
11, 8580, Note_on_c, 0, 60, 0
11, 8580, Note_on_c, 0, 60, 82
11, 8580, Note_on_c, 0, 64, 82
11, 8580, Note_on_c, 0, 67, 82
11, 8640, Note_on_c, 0, 67, 0
11, 8640, Note_on_c, 0, 64, 0
11, 8640, Note_on_c, 0, 60, 0
11, 10200, Note_on_c, 0, 57, 82
11, 10200, Note_on_c, 0, 60, 82
11, 10200, Note_on_c, 0, 64, 82
11, 10320, Note_on_c, 0, 64, 0
11, 10320, Note_on_c, 0, 60, 0
11, 10320, Note_on_c, 0, 57, 0
11, 10320, Note_on_c, 0, 57, 82
11, 10320, Note_on_c, 0, 60, 82
11, 10320, Note_on_c, 0, 64, 82
11, 10440, Note_on_c, 0, 64, 0
11, 10440, Note_on_c, 0, 60, 0
11, 10440, Note_on_c, 0, 57, 0
11, 10440, Note_on_c, 0, 57, 82
11, 10440, Note_on_c, 0, 60, 82
11, 10440, Note_on_c, 0, 64, 82
11, 10620, Note_on_c, 0, 64, 0
11, 10620, Note_on_c, 0, 60, 0
11, 10620, Note_on_c, 0, 57, 0
11, 10620, Note_on_c, 0, 57, 82
11, 10620, Note_on_c, 0, 60, 82
11, 10620, Note_on_c, 0, 64, 82
11, 10740, Note_on_c, 0, 64, 0
11, 10740, Note_on_c, 0, 60, 0
11, 10740, Note_on_c, 0, 57, 0
11, 10740, Note_on_c, 0, 57, 82
11, 10740, Note_on_c, 0, 60, 82
11, 10740, Note_on_c, 0, 64, 82
11, 10860, Note_on_c, 0, 53, 82
11, 10860, Note_on_c, 0, 58, 82
11, 10860, Note_on_c, 0, 62, 82
11, 10890, Note_on_c, 0, 64, 0
11, 10890, Note_on_c, 0, 57, 0
11, 10890, Note_on_c, 0, 60, 0
11, 10950, Note_on_c, 0, 53, 0
11, 10950, Note_on_c, 0, 58, 0
11, 10950, Note_on_c, 0, 62, 0
11, 10980, Note_on_c, 0, 55, 82
11, 10980, Note_on_c, 0, 60, 82
11, 10980, Note_on_c, 0, 63, 82
11, 11220, Note_on_c, 0, 63, 0
11, 11220, Note_on_c, 0, 60, 0
11, 11220, Note_on_c, 0, 55, 0
11, 11280, Note_on_c, 0, 55, 82
11, 11280, Note_on_c, 0, 60, 82
11, 11280, Note_on_c, 0, 63, 82
11, 11400, Note_on_c, 0, 63, 0
11, 11400, Note_on_c, 0, 60, 0
11, 11400, Note_on_c, 0, 55, 0
11, 11400, Note_on_c, 0, 60, 87
11, 11400, Note_on_c, 0, 63, 82
11, 11400, Note_on_c, 0, 55, 82
11, 11520, Note_on_c, 0, 55, 0
11, 11520, Note_on_c, 0, 63, 0
11, 11520, Note_on_c, 0, 60, 0
11, 11520, Note_on_c, 0, 56, 82
11, 11520, Note_on_c, 0, 60, 82
11, 11520, Note_on_c, 0, 65, 82
11, 12000, Note_on_c, 0, 65, 0
11, 12000, Note_on_c, 0, 60, 0
11, 12000, Note_on_c, 0, 56, 0
11, 12000, Note_on_c, 0, 60, 72
11, 12008, Note_on_c, 0, 65, 72
11, 12016, Note_on_c, 0, 68, 72
11, 12210, Note_on_c, 0, 60, 0
11, 12218, Note_on_c, 0, 65, 0
11, 12226, Note_on_c, 0, 68, 0
11, 12240, Note_on_c, 0, 65, 66
11, 12246, Note_on_c, 0, 68, 66
11, 12252, Note_on_c, 0, 72, 66
11, 12720, Note_on_c, 0, 65, 0
11, 12726, Note_on_c, 0, 68, 0
11, 12732, Note_on_c, 0, 72, 0
11, 13080, Note_on_c, 0, 53, 82
11, 13080, Note_on_c, 0, 61, 82
11, 13080, Note_on_c, 0, 60, 82
11, 13200, Note_on_c, 0, 60, 0
11, 13200, Note_on_c, 0, 61, 0
11, 13200, Note_on_c, 0, 53, 0
11, 13200, Note_on_c, 0, 53, 82
11, 13200, Note_on_c, 0, 61, 82
11, 13200, Note_on_c, 0, 60, 82
11, 13320, Note_on_c, 0, 60, 0
11, 13320, Note_on_c, 0, 61, 0
11, 13320, Note_on_c, 0, 53, 0
11, 13320, Note_on_c, 0, 53, 82
11, 13320, Note_on_c, 0, 61, 82
11, 13320, Note_on_c, 0, 60, 82
11, 13500, Note_on_c, 0, 60, 0
11, 13500, Note_on_c, 0, 61, 0
11, 13500, Note_on_c, 0, 53, 0
11, 13500, Note_on_c, 0, 53, 82
11, 13500, Note_on_c, 0, 61, 82
11, 13500, Note_on_c, 0, 60, 82
11, 13620, Note_on_c, 0, 60, 0
11, 13620, Note_on_c, 0, 61, 0
11, 13620, Note_on_c, 0, 53, 0
11, 13620, Note_on_c, 0, 58, 82
11, 13620, Note_on_c, 0, 61, 82
11, 13620, Note_on_c, 0, 65, 82
11, 13740, Note_on_c, 0, 58, 82
11, 13740, Note_on_c, 0, 61, 82
11, 13740, Note_on_c, 0, 65, 82
11, 13800, Note_on_c, 0, 65, 0
11, 13800, Note_on_c, 0, 58, 0
11, 13800, Note_on_c, 0, 61, 0
11, 13860, Note_on_c, 0, 58, 0
11, 13860, Note_on_c, 0, 61, 0
11, 13860, Note_on_c, 0, 65, 0
11, 13860, Note_on_c, 0, 53, 82
11, 13860, Note_on_c, 0, 58, 82
11, 13860, Note_on_c, 0, 61, 82
11, 14100, Note_on_c, 0, 61, 0
11, 14100, Note_on_c, 0, 58, 0
11, 14100, Note_on_c, 0, 53, 0
11, 14220, Note_on_c, 0, 56, 82
11, 14220, Note_on_c, 0, 60, 82
11, 14220, Note_on_c, 0, 63, 82
11, 14340, Note_on_c, 0, 63, 0
11, 14340, Note_on_c, 0, 60, 0
11, 14340, Note_on_c, 0, 56, 0
11, 14340, Note_on_c, 0, 56, 82
11, 14340, Note_on_c, 0, 60, 82
11, 14340, Note_on_c, 0, 63, 82
11, 14460, Note_on_c, 0, 65, 82
11, 14460, Note_on_c, 0, 60, 82
11, 14460, Note_on_c, 0, 68, 82
11, 14520, Note_on_c, 0, 68, 0
11, 14520, Note_on_c, 0, 60, 0
11, 14520, Note_on_c, 0, 63, 0
11, 14520, Note_on_c, 0, 56, 0
11, 14520, Note_on_c, 0, 60, 0
11, 14520, Note_on_c, 0, 65, 0
11, 14580, Note_on_c, 0, 60, 82
11, 14580, Note_on_c, 0, 61, 82
11, 14580, Note_on_c, 0, 65, 82
11, 15420, Note_on_c, 0, 65, 0
11, 15420, Note_on_c, 0, 61, 0
11, 15420, Note_on_c, 0, 60, 0
11, 15480, Note_on_c, 0, 60, 82
11, 15480, Note_on_c, 0, 63, 82
11, 15480, Note_on_c, 0, 67, 82
11, 15660, Note_on_c, 0, 67, 0
11, 15660, Note_on_c, 0, 63, 0
11, 15660, Note_on_c, 0, 60, 0
11, 15660, Note_on_c, 0, 63, 82
11, 15660, Note_on_c, 0, 67, 82
11, 15660, Note_on_c, 0, 70, 82
11, 15780, Note_on_c, 0, 70, 0
11, 15780, Note_on_c, 0, 67, 0
11, 15780, Note_on_c, 0, 63, 0
11, 15840, Note_on_c, 0, 61, 82
11, 15840, Note_on_c, 0, 65, 82
11, 16020, Note_on_c, 0, 65, 0
11, 16020, Note_on_c, 0, 65, 92
11, 16140, Note_on_c, 0, 65, 0
11, 16140, Note_on_c, 0, 61, 0
11, 16140, Note_on_c, 0, 61, 74
11, 16140, Note_on_c, 0, 65, 74
11, 16140, Note_on_c, 0, 68, 74
11, 17280, Note_on_c, 0, 68, 0
11, 17280, Note_on_c, 0, 65, 0
11, 17280, Note_on_c, 0, 61, 0
11, 17280, Note_on_c, 0, 57, 82
11, 17280, Note_on_c, 0, 60, 82
11, 17280, Note_on_c, 0, 64, 82
11, 17520, Note_on_c, 0, 64, 0
11, 17520, Note_on_c, 0, 60, 0
11, 17520, Note_on_c, 0, 57, 0
11, 17580, Note_on_c, 0, 58, 82
11, 17580, Note_on_c, 0, 62, 82
11, 17580, Note_on_c, 0, 65, 82
11, 18360, Note_on_c, 0, 65, 0
11, 18360, Note_on_c, 0, 62, 0
11, 18360, Note_on_c, 0, 58, 0
11, 18360, Note_on_c, 0, 58, 72
11, 18420, Note_on_c, 0, 60, 68
11, 18480, Note_on_c, 0, 60, 0
11, 18480, Note_on_c, 0, 58, 0
11, 18480, Note_on_c, 0, 64, 70
11, 18480, Note_on_c, 0, 67, 70
11, 18600, Note_on_c, 0, 67, 0
11, 18600, Note_on_c, 0, 64, 0
11, 18600, Note_on_c, 0, 67, 72
11, 18600, Note_on_c, 0, 72, 72
11, 18720, Note_on_c, 0, 72, 0
11, 18720, Note_on_c, 0, 67, 0
11, 18720, Note_on_c, 0, 67, 82
11, 18720, Note_on_c, 0, 60, 82
11, 18720, Note_on_c, 0, 64, 82
11, 18960, Note_on_c, 0, 64, 0
11, 18960, Note_on_c, 0, 60, 0
11, 18960, Note_on_c, 0, 67, 0
11, 19020, Note_on_c, 0, 64, 82
11, 19020, Note_on_c, 0, 57, 82
11, 19020, Note_on_c, 0, 60, 82
11, 19260, Note_on_c, 0, 60, 0
11, 19260, Note_on_c, 0, 57, 0
11, 19260, Note_on_c, 0, 64, 0
11, 19260, Note_on_c, 0, 65, 82
11, 19260, Note_on_c, 0, 58, 82
11, 19260, Note_on_c, 0, 62, 82
11, 19800, Note_on_c, 0, 62, 0
11, 19800, Note_on_c, 0, 58, 0
11, 19800, Note_on_c, 0, 65, 0
11, 20160, Note_on_c, 0, 57, 82
11, 20160, Note_on_c, 0, 60, 82
11, 20160, Note_on_c, 0, 64, 82
11, 20340, Note_on_c, 0, 64, 0
11, 20340, Note_on_c, 0, 60, 0
11, 20340, Note_on_c, 0, 57, 0
11, 20520, Note_on_c, 0, 57, 82
11, 20520, Note_on_c, 0, 60, 82
11, 20520, Note_on_c, 0, 64, 82
11, 20700, Note_on_c, 0, 64, 0
11, 20700, Note_on_c, 0, 60, 0
11, 20700, Note_on_c, 0, 57, 0
11, 20820, Note_on_c, 0, 62, 82
11, 20820, Note_on_c, 0, 57, 82
11, 20940, Note_on_c, 0, 57, 0
11, 20940, Note_on_c, 0, 62, 0
11, 20940, Note_on_c, 0, 69, 82
11, 20940, Note_on_c, 0, 65, 82
11, 21060, Note_on_c, 0, 65, 0
11, 21060, Note_on_c, 0, 69, 0
11, 21060, Note_on_c, 0, 65, 82
11, 21060, Note_on_c, 0, 62, 82
11, 21060, Note_on_c, 0, 58, 82
11, 21300, Note_on_c, 0, 58, 0
11, 21300, Note_on_c, 0, 62, 0
11, 21300, Note_on_c, 0, 65, 0
11, 21420, Note_on_c, 0, 60, 82
11, 21420, Note_on_c, 0, 64, 82
11, 21420, Note_on_c, 0, 67, 82
11, 21540, Note_on_c, 0, 67, 0
11, 21540, Note_on_c, 0, 64, 0
11, 21540, Note_on_c, 0, 60, 0
11, 21540, Note_on_c, 0, 60, 82
11, 21540, Note_on_c, 0, 64, 82
11, 21540, Note_on_c, 0, 67, 82
11, 21600, Note_on_c, 0, 67, 0
11, 21600, Note_on_c, 0, 64, 0
11, 21600, Note_on_c, 0, 60, 0
11, 22320, Note_on_c, 0, 58, 72
11, 22380, Note_on_c, 0, 60, 68
11, 22440, Note_on_c, 0, 58, 0
11, 22440, Note_on_c, 0, 64, 72
11, 22440, Note_on_c, 0, 67, 72
11, 22500, Note_on_c, 0, 60, 0
11, 22680, Note_on_c, 0, 67, 0
11, 22680, Note_on_c, 0, 64, 0
11, 23160, Note_on_c, 0, 57, 82
11, 23160, Note_on_c, 0, 60, 82
11, 23160, Note_on_c, 0, 64, 82
11, 23280, Note_on_c, 0, 64, 0
11, 23280, Note_on_c, 0, 60, 0
11, 23280, Note_on_c, 0, 57, 0
11, 23280, Note_on_c, 0, 57, 82
11, 23280, Note_on_c, 0, 60, 82
11, 23280, Note_on_c, 0, 64, 82
11, 23400, Note_on_c, 0, 64, 0
11, 23400, Note_on_c, 0, 60, 0
11, 23400, Note_on_c, 0, 57, 0
11, 23400, Note_on_c, 0, 57, 82
11, 23400, Note_on_c, 0, 60, 82
11, 23400, Note_on_c, 0, 64, 82
11, 23580, Note_on_c, 0, 64, 0
11, 23580, Note_on_c, 0, 60, 0
11, 23580, Note_on_c, 0, 57, 0
11, 23580, Note_on_c, 0, 57, 82
11, 23580, Note_on_c, 0, 60, 82
11, 23580, Note_on_c, 0, 64, 82
11, 23700, Note_on_c, 0, 64, 0
11, 23700, Note_on_c, 0, 60, 0
11, 23700, Note_on_c, 0, 57, 0
11, 23700, Note_on_c, 0, 57, 82
11, 23700, Note_on_c, 0, 60, 82
11, 23700, Note_on_c, 0, 64, 82
11, 23820, Note_on_c, 0, 53, 82
11, 23820, Note_on_c, 0, 58, 82
11, 23820, Note_on_c, 0, 62, 82
11, 23850, Note_on_c, 0, 64, 0
11, 23850, Note_on_c, 0, 57, 0
11, 23850, Note_on_c, 0, 60, 0
11, 23910, Note_on_c, 0, 53, 0
11, 23910, Note_on_c, 0, 58, 0
11, 23910, Note_on_c, 0, 62, 0
11, 23940, Note_on_c, 0, 55, 82
11, 23940, Note_on_c, 0, 60, 82
11, 23940, Note_on_c, 0, 63, 82
11, 24180, Note_on_c, 0, 63, 0
11, 24180, Note_on_c, 0, 60, 0
11, 24180, Note_on_c, 0, 55, 0
11, 24240, Note_on_c, 0, 55, 82
11, 24240, Note_on_c, 0, 60, 82
11, 24240, Note_on_c, 0, 63, 82
11, 24360, Note_on_c, 0, 63, 0
11, 24360, Note_on_c, 0, 60, 0
11, 24360, Note_on_c, 0, 55, 0
11, 24360, Note_on_c, 0, 60, 82
11, 24360, Note_on_c, 0, 63, 82
11, 24360, Note_on_c, 0, 55, 82
11, 24480, Note_on_c, 0, 55, 0
11, 24480, Note_on_c, 0, 63, 0
11, 24480, Note_on_c, 0, 60, 0
11, 24480, Note_on_c, 0, 56, 82
11, 24480, Note_on_c, 0, 60, 82
11, 24480, Note_on_c, 0, 65, 82
11, 24960, Note_on_c, 0, 65, 0
11, 24960, Note_on_c, 0, 60, 0
11, 24960, Note_on_c, 0, 56, 0
11, 24960, Note_on_c, 0, 60, 82
11, 24968, Note_on_c, 0, 65, 82
11, 24976, Note_on_c, 0, 68, 82
11, 25170, Note_on_c, 0, 60, 0
11, 25178, Note_on_c, 0, 65, 0
11, 25186, Note_on_c, 0, 68, 0
11, 25200, Note_on_c, 0, 65, 78
11, 25206, Note_on_c, 0, 68, 78
11, 25212, Note_on_c, 0, 72, 78
11, 25680, Note_on_c, 0, 65, 0
11, 25686, Note_on_c, 0, 68, 0
11, 25692, Note_on_c, 0, 72, 0
11, 26040, Note_on_c, 0, 61, 82
11, 26040, Note_on_c, 0, 60, 82
11, 26040, Note_on_c, 0, 65, 82
11, 26160, Note_on_c, 0, 65, 0
11, 26160, Note_on_c, 0, 60, 0
11, 26160, Note_on_c, 0, 61, 0
11, 26160, Note_on_c, 0, 61, 82
11, 26160, Note_on_c, 0, 60, 82
11, 26160, Note_on_c, 0, 65, 82
11, 26280, Note_on_c, 0, 65, 0
11, 26280, Note_on_c, 0, 60, 0
11, 26280, Note_on_c, 0, 61, 0
11, 26280, Note_on_c, 0, 61, 82
11, 26280, Note_on_c, 0, 60, 82
11, 26280, Note_on_c, 0, 65, 82
11, 26460, Note_on_c, 0, 65, 0
11, 26460, Note_on_c, 0, 60, 0
11, 26460, Note_on_c, 0, 61, 0
11, 26460, Note_on_c, 0, 61, 82
11, 26460, Note_on_c, 0, 60, 82
11, 26460, Note_on_c, 0, 65, 82
11, 26580, Note_on_c, 0, 65, 0
11, 26580, Note_on_c, 0, 60, 0
11, 26580, Note_on_c, 0, 61, 0
11, 26580, Note_on_c, 0, 58, 82
11, 26580, Note_on_c, 0, 61, 82
11, 26580, Note_on_c, 0, 65, 82
11, 26700, Note_on_c, 0, 58, 82
11, 26700, Note_on_c, 0, 61, 82
11, 26700, Note_on_c, 0, 65, 82
11, 26760, Note_on_c, 0, 65, 0
11, 26760, Note_on_c, 0, 58, 0
11, 26760, Note_on_c, 0, 61, 0
11, 26820, Note_on_c, 0, 58, 0
11, 26820, Note_on_c, 0, 61, 0
11, 26820, Note_on_c, 0, 65, 0
11, 26820, Note_on_c, 0, 58, 82
11, 26820, Note_on_c, 0, 61, 82
11, 26820, Note_on_c, 0, 65, 82
11, 27060, Note_on_c, 0, 65, 0
11, 27060, Note_on_c, 0, 61, 0
11, 27060, Note_on_c, 0, 58, 0
11, 27180, Note_on_c, 0, 56, 82
11, 27180, Note_on_c, 0, 60, 82
11, 27180, Note_on_c, 0, 63, 82
11, 27300, Note_on_c, 0, 63, 0
11, 27300, Note_on_c, 0, 60, 0
11, 27300, Note_on_c, 0, 56, 0
11, 27300, Note_on_c, 0, 56, 82
11, 27300, Note_on_c, 0, 60, 82
11, 27300, Note_on_c, 0, 63, 82
11, 27420, Note_on_c, 0, 60, 82
11, 27420, Note_on_c, 0, 68, 82
11, 27420, Note_on_c, 0, 65, 82
11, 27480, Note_on_c, 0, 65, 0
11, 27480, Note_on_c, 0, 60, 0
11, 27480, Note_on_c, 0, 63, 0
11, 27480, Note_on_c, 0, 56, 0
11, 27480, Note_on_c, 0, 68, 0
11, 27480, Note_on_c, 0, 60, 0
11, 27540, Note_on_c, 0, 60, 82
11, 27540, Note_on_c, 0, 61, 82
11, 27540, Note_on_c, 0, 65, 82
11, 28380, Note_on_c, 0, 65, 0
11, 28380, Note_on_c, 0, 61, 0
11, 28380, Note_on_c, 0, 60, 0
11, 28440, Note_on_c, 0, 60, 82
11, 28440, Note_on_c, 0, 63, 82
11, 28440, Note_on_c, 0, 67, 82
11, 28560, Note_on_c, 0, 67, 0
11, 28560, Note_on_c, 0, 63, 0
11, 28560, Note_on_c, 0, 60, 0
11, 28560, Note_on_c, 0, 60, 82
11, 28560, Note_on_c, 0, 63, 82
11, 28560, Note_on_c, 0, 67, 82
11, 28680, Note_on_c, 0, 67, 0
11, 28680, Note_on_c, 0, 63, 0
11, 28680, Note_on_c, 0, 60, 0
11, 28680, Note_on_c, 0, 60, 82
11, 28680, Note_on_c, 0, 63, 82
11, 28680, Note_on_c, 0, 67, 82
11, 28800, Note_on_c, 0, 67, 0
11, 28800, Note_on_c, 0, 63, 0
11, 28800, Note_on_c, 0, 60, 0
11, 28800, Note_on_c, 0, 60, 82
11, 28800, Note_on_c, 0, 61, 82
11, 28800, Note_on_c, 0, 65, 82
11, 29880, Note_on_c, 0, 65, 0
11, 29880, Note_on_c, 0, 61, 0
11, 29880, Note_on_c, 0, 60, 0
11, 29880, Note_on_c, 0, 58, 82
11, 29880, Note_on_c, 0, 63, 82
11, 29880, Note_on_c, 0, 67, 82
11, 30000, Note_on_c, 0, 67, 0
11, 30000, Note_on_c, 0, 63, 0
11, 30000, Note_on_c, 0, 58, 0
11, 30000, Note_on_c, 0, 58, 82
11, 30000, Note_on_c, 0, 63, 82
11, 30000, Note_on_c, 0, 67, 82
11, 30120, Note_on_c, 0, 67, 0
11, 30120, Note_on_c, 0, 63, 0
11, 30120, Note_on_c, 0, 58, 0
11, 30120, Note_on_c, 0, 58, 82
11, 30120, Note_on_c, 0, 63, 82
11, 30120, Note_on_c, 0, 67, 82
11, 30240, Note_on_c, 0, 67, 0
11, 30240, Note_on_c, 0, 63, 0
11, 30240, Note_on_c, 0, 58, 0
11, 30240, Note_on_c, 0, 57, 82
11, 30240, Note_on_c, 0, 62, 82
11, 30240, Note_on_c, 0, 65, 82
11, 30390, Note_on_c, 0, 65, 0
11, 30390, Note_on_c, 0, 62, 0
11, 30390, Note_on_c, 0, 57, 0
11, 30420, Note_on_c, 0, 57, 82
11, 30420, Note_on_c, 0, 62, 82
11, 30420, Note_on_c, 0, 65, 82
11, 30540, Note_on_c, 0, 65, 0
11, 30540, Note_on_c, 0, 62, 0
11, 30540, Note_on_c, 0, 55, 82
11, 30540, Note_on_c, 0, 60, 82
11, 30540, Note_on_c, 0, 64, 82
11, 30570, Note_on_c, 0, 57, 0
11, 30720, Note_on_c, 0, 55, 0
11, 30720, Note_on_c, 0, 60, 0
11, 30720, Note_on_c, 0, 64, 0
11, 30780, Note_on_c, 0, 55, 82
11, 30780, Note_on_c, 0, 60, 82
11, 30780, Note_on_c, 0, 64, 82
11, 30900, Note_on_c, 0, 55, 82
11, 30900, Note_on_c, 0, 58, 82
11, 30900, Note_on_c, 0, 62, 82
11, 30960, Note_on_c, 0, 64, 0
11, 30960, Note_on_c, 0, 55, 0
11, 30960, Note_on_c, 0, 60, 0
11, 31080, Note_on_c, 0, 55, 0
11, 31080, Note_on_c, 0, 58, 0
11, 31080, Note_on_c, 0, 62, 0
11, 31140, Note_on_c, 0, 55, 82
11, 31140, Note_on_c, 0, 58, 82
11, 31140, Note_on_c, 0, 62, 82
11, 31260, Note_on_c, 0, 62, 0
11, 31260, Note_on_c, 0, 58, 0
11, 31260, Note_on_c, 0, 55, 0
11, 31260, Note_on_c, 0, 56, 82
11, 31260, Note_on_c, 0, 60, 82
11, 31260, Note_on_c, 0, 63, 82
11, 31620, Note_on_c, 0, 63, 0
11, 31620, Note_on_c, 0, 60, 0
11, 31620, Note_on_c, 0, 56, 0
11, 31680, Note_on_c, 0, 56, 82
11, 31680, Note_on_c, 0, 60, 82
11, 31680, Note_on_c, 0, 65, 82
11, 31980, Note_on_c, 0, 65, 0
11, 31980, Note_on_c, 0, 60, 0
11, 31980, Note_on_c, 0, 56, 0
11, 31980, Note_on_c, 0, 56, 82
11, 31980, Note_on_c, 0, 60, 82
11, 31980, Note_on_c, 0, 63, 82
11, 32340, Note_on_c, 0, 63, 0
11, 32340, Note_on_c, 0, 60, 0
11, 32340, Note_on_c, 0, 56, 0
11, 32340, Note_on_c, 0, 56, 82
11, 32340, Note_on_c, 0, 61, 82
11, 32340, Note_on_c, 0, 65, 82
11, 32460, Note_on_c, 0, 65, 0
11, 32460, Note_on_c, 0, 61, 0
11, 32460, Note_on_c, 0, 56, 0
11, 32460, Note_on_c, 0, 56, 84
11, 32460, Note_on_c, 0, 61, 84
11, 32460, Note_on_c, 0, 65, 84
11, 32520, Note_on_c, 0, 65, 0
11, 32520, Note_on_c, 0, 61, 0
11, 32520, Note_on_c, 0, 56, 0
11, 32580, Note_on_c, 0, 60, 82
11, 32580, Note_on_c, 0, 63, 82
11, 32580, Note_on_c, 0, 67, 82
11, 32940, Note_on_c, 0, 67, 0
11, 32940, Note_on_c, 0, 63, 0
11, 32940, Note_on_c, 0, 60, 0
11, 33120, Note_on_c, 0, 56, 82
11, 33120, Note_on_c, 0, 60, 82
11, 33120, Note_on_c, 0, 63, 82
11, 33780, Note_on_c, 0, 63, 0
11, 33780, Note_on_c, 0, 60, 0
11, 33780, Note_on_c, 0, 56, 0
11, 33780, Note_on_c, 0, 58, 82
11, 33780, Note_on_c, 0, 63, 82
11, 33780, Note_on_c, 0, 67, 82
11, 34200, Note_on_c, 0, 67, 0
11, 34200, Note_on_c, 0, 63, 0
11, 34200, Note_on_c, 0, 58, 0
11, 34200, Note_on_c, 0, 58, 82
11, 34200, Note_on_c, 0, 63, 82
11, 34200, Note_on_c, 0, 67, 82
11, 34320, Note_on_c, 0, 67, 0
11, 34320, Note_on_c, 0, 63, 0
11, 34320, Note_on_c, 0, 58, 0
11, 34320, Note_on_c, 0, 58, 82
11, 34320, Note_on_c, 0, 63, 82
11, 34320, Note_on_c, 0, 67, 82
11, 34440, Note_on_c, 0, 67, 0
11, 34440, Note_on_c, 0, 63, 0
11, 34440, Note_on_c, 0, 58, 0
11, 34440, Note_on_c, 0, 58, 82
11, 34440, Note_on_c, 0, 63, 82
11, 34440, Note_on_c, 0, 67, 82
11, 34560, Note_on_c, 0, 67, 0
11, 34560, Note_on_c, 0, 63, 0
11, 34560, Note_on_c, 0, 58, 0
11, 34560, Note_on_c, 0, 56, 82
11, 34560, Note_on_c, 0, 65, 82
11, 34560, Note_on_c, 0, 61, 82
11, 34680, Note_on_c, 0, 61, 0
11, 34680, Note_on_c, 0, 65, 0
11, 34680, Note_on_c, 0, 56, 0
11, 34680, Note_on_c, 0, 56, 82
11, 34680, Note_on_c, 0, 61, 82
11, 34680, Note_on_c, 0, 65, 82
11, 34800, Note_on_c, 0, 65, 0
11, 34800, Note_on_c, 0, 61, 0
11, 34800, Note_on_c, 0, 56, 0
11, 34800, Note_on_c, 0, 56, 82
11, 34800, Note_on_c, 0, 61, 82
11, 34800, Note_on_c, 0, 65, 82
11, 34920, Note_on_c, 0, 65, 0
11, 34920, Note_on_c, 0, 61, 0
11, 34920, Note_on_c, 0, 56, 0
11, 34920, Note_on_c, 0, 56, 82
11, 34920, Note_on_c, 0, 61, 82
11, 34920, Note_on_c, 0, 65, 82
11, 35100, Note_on_c, 0, 65, 0
11, 35100, Note_on_c, 0, 61, 0
11, 35100, Note_on_c, 0, 56, 0
11, 35100, Note_on_c, 0, 56, 82
11, 35100, Note_on_c, 0, 61, 82
11, 35100, Note_on_c, 0, 65, 82
11, 35220, Note_on_c, 0, 65, 0
11, 35220, Note_on_c, 0, 61, 0
11, 35220, Note_on_c, 0, 56, 0
11, 35220, Note_on_c, 0, 58, 82
11, 35220, Note_on_c, 0, 63, 82
11, 35220, Note_on_c, 0, 67, 82
11, 35340, Note_on_c, 0, 67, 0
11, 35340, Note_on_c, 0, 63, 0
11, 35340, Note_on_c, 0, 58, 0
11, 35340, Note_on_c, 0, 58, 82
11, 35340, Note_on_c, 0, 63, 82
11, 35340, Note_on_c, 0, 67, 82
11, 35460, Note_on_c, 0, 67, 0
11, 35460, Note_on_c, 0, 63, 0
11, 35460, Note_on_c, 0, 58, 0
11, 35460, Note_on_c, 0, 60, 82
11, 35460, Note_on_c, 0, 65, 82
11, 35460, Note_on_c, 0, 68, 82
11, 36000, Note_on_c, 0, 68, 0
11, 36000, Note_on_c, 0, 65, 0
11, 36000, Note_on_c, 0, 60, 0
11, 36000, Note_on_c, 0, 65, 82
11, 36000, Note_on_c, 0, 61, 82
11, 36000, Note_on_c, 0, 56, 82
11, 36120, Note_on_c, 0, 56, 0
11, 36120, Note_on_c, 0, 61, 0
11, 36120, Note_on_c, 0, 65, 0
11, 36120, Note_on_c, 0, 65, 84
11, 36120, Note_on_c, 0, 61, 84
11, 36120, Note_on_c, 0, 56, 84
11, 36180, Note_on_c, 0, 56, 0
11, 36180, Note_on_c, 0, 61, 0
11, 36180, Note_on_c, 0, 65, 0
11, 36240, Note_on_c, 0, 65, 82
11, 36240, Note_on_c, 0, 61, 82
11, 36240, Note_on_c, 0, 56, 82
11, 36360, Note_on_c, 0, 56, 0
11, 36360, Note_on_c, 0, 61, 0
11, 36360, Note_on_c, 0, 65, 0
11, 36360, Note_on_c, 0, 67, 82
11, 36360, Note_on_c, 0, 63, 82
11, 36360, Note_on_c, 0, 58, 82
11, 36720, Note_on_c, 0, 58, 0
11, 36720, Note_on_c, 0, 63, 0
11, 36720, Note_on_c, 0, 67, 0
11, 36720, Note_on_c, 0, 56, 82
11, 36720, Note_on_c, 0, 66, 82
11, 36720, Note_on_c, 0, 59, 82
11, 37080, Note_on_c, 0, 59, 0
11, 37080, Note_on_c, 0, 66, 0
11, 37080, Note_on_c, 0, 56, 0
11, 37080, Note_on_c, 0, 65, 82
11, 37080, Note_on_c, 0, 58, 82
11, 37080, Note_on_c, 0, 61, 82
11, 37440, Note_on_c, 0, 61, 0
11, 37440, Note_on_c, 0, 58, 0
11, 37440, Note_on_c, 0, 65, 0
11, 37440, Note_on_c, 0, 56, 82
11, 37440, Note_on_c, 0, 61, 82
11, 37440, Note_on_c, 0, 65, 82
11, 37740, Note_on_c, 0, 65, 0
11, 37740, Note_on_c, 0, 61, 0
11, 37740, Note_on_c, 0, 56, 0
11, 37740, Note_on_c, 0, 67, 82
11, 37740, Note_on_c, 0, 60, 82
11, 37740, Note_on_c, 0, 63, 82
11, 38520, Note_on_c, 0, 63, 0
11, 38520, Note_on_c, 0, 60, 0
11, 38520, Note_on_c, 0, 67, 0
11, 38880, Note_on_c, 0, 60, 82
11, 38880, Note_on_c, 0, 63, 82
11, 38880, Note_on_c, 0, 67, 82
11, 39180, Note_on_c, 0, 67, 0
11, 39180, Note_on_c, 0, 63, 0
11, 39180, Note_on_c, 0, 60, 0
11, 39180, Note_on_c, 0, 60, 82
11, 39180, Note_on_c, 0, 61, 82
11, 39180, Note_on_c, 0, 65, 82
11, 40140, Note_on_c, 0, 65, 0
11, 40140, Note_on_c, 0, 61, 0
11, 40140, Note_on_c, 0, 60, 0
11, 40140, Note_on_c, 0, 60, 82
11, 40140, Note_on_c, 0, 62, 82
11, 40140, Note_on_c, 0, 64, 82
11, 40320, Note_on_c, 0, 64, 0
11, 40320, Note_on_c, 0, 62, 0
11, 40320, Note_on_c, 0, 60, 0
11, 40320, Note_on_c, 0, 56, 82
11, 40320, Note_on_c, 0, 61, 82
11, 40320, Note_on_c, 0, 65, 82
11, 40620, Note_on_c, 0, 65, 0
11, 40620, Note_on_c, 0, 61, 0
11, 40620, Note_on_c, 0, 56, 0
11, 40620, Note_on_c, 0, 67, 82
11, 40620, Note_on_c, 0, 60, 82
11, 40620, Note_on_c, 0, 63, 82
11, 41400, Note_on_c, 0, 63, 0
11, 41400, Note_on_c, 0, 60, 0
11, 41400, Note_on_c, 0, 67, 0
11, 41760, Note_on_c, 0, 56, 82
11, 41760, Note_on_c, 0, 59, 82
11, 41760, Note_on_c, 0, 63, 82
11, 42480, Note_on_c, 0, 63, 0
11, 42480, Note_on_c, 0, 59, 0
11, 42480, Note_on_c, 0, 56, 0
11, 42480, Note_on_c, 0, 65, 82
11, 42480, Note_on_c, 0, 61, 82
11, 42480, Note_on_c, 0, 60, 82
11, 42840, Note_on_c, 0, 60, 0
11, 42840, Note_on_c, 0, 61, 0
11, 42840, Note_on_c, 0, 65, 0
11, 42840, Note_on_c, 0, 64, 76
11, 42840, Note_on_c, 0, 65, 76
11, 42840, Note_on_c, 0, 60, 76
11, 42885, Note_on_c, 0, 60, 0
11, 42885, Note_on_c, 0, 65, 0
11, 42885, Note_on_c, 0, 64, 0
11, 42960, Note_on_c, 0, 64, 76
11, 42960, Note_on_c, 0, 65, 76
11, 42960, Note_on_c, 0, 60, 76
11, 43005, Note_on_c, 0, 60, 0
11, 43005, Note_on_c, 0, 65, 0
11, 43005, Note_on_c, 0, 64, 0
11, 43080, Note_on_c, 0, 64, 76
11, 43080, Note_on_c, 0, 65, 76
11, 43080, Note_on_c, 0, 60, 76
11, 43125, Note_on_c, 0, 60, 0
11, 43125, Note_on_c, 0, 65, 0
11, 43125, Note_on_c, 0, 64, 0
11, 43200, Note_on_c, 0, 56, 82
11, 43200, Note_on_c, 0, 61, 82
11, 43200, Note_on_c, 0, 65, 82
11, 43500, Note_on_c, 0, 65, 0
11, 43500, Note_on_c, 0, 61, 0
11, 43500, Note_on_c, 0, 56, 0
11, 43500, Note_on_c, 0, 67, 82
11, 43500, Note_on_c, 0, 60, 82
11, 43500, Note_on_c, 0, 63, 82
11, 44280, Note_on_c, 0, 63, 0
11, 44280, Note_on_c, 0, 60, 0
11, 44280, Note_on_c, 0, 67, 0
11, 44640, Note_on_c, 0, 60, 82
11, 44640, Note_on_c, 0, 63, 82
11, 44640, Note_on_c, 0, 67, 82
11, 44940, Note_on_c, 0, 67, 0
11, 44940, Note_on_c, 0, 63, 0
11, 44940, Note_on_c, 0, 60, 0
11, 44940, Note_on_c, 0, 60, 82
11, 44940, Note_on_c, 0, 61, 82
11, 44940, Note_on_c, 0, 65, 82
11, 45900, Note_on_c, 0, 65, 0
11, 45900, Note_on_c, 0, 61, 0
11, 45900, Note_on_c, 0, 60, 0
11, 45900, Note_on_c, 0, 61, 82
11, 45900, Note_on_c, 0, 65, 82
11, 45900, Note_on_c, 0, 68, 82
11, 46080, Note_on_c, 0, 68, 0
11, 46080, Note_on_c, 0, 65, 0
11, 46080, Note_on_c, 0, 61, 0
11, 46080, Note_on_c, 0, 65, 82
11, 46080, Note_on_c, 0, 68, 82
11, 46080, Note_on_c, 0, 70, 82
11, 46185, Note_on_c, 0, 70, 0
11, 46185, Note_on_c, 0, 68, 0
11, 46185, Note_on_c, 0, 65, 0
11, 46370, Note_on_c, 0, 70, 72
11, 46372, Note_on_c, 0, 72, 72
11, 46374, Note_on_c, 0, 75, 87
11, 46835, Note_on_c, 0, 70, 0
11, 46837, Note_on_c, 0, 72, 0
11, 46839, Note_on_c, 0, 75, 0
11, 47520, Note_on_c, 0, 56, 82
11, 47520, Note_on_c, 0, 59, 82
11, 47520, Note_on_c, 0, 63, 82
11, 48240, Note_on_c, 0, 63, 0
11, 48240, Note_on_c, 0, 59, 0
11, 48240, Note_on_c, 0, 56, 0
11, 48240, Note_on_c, 0, 56, 82
11, 48240, Note_on_c, 0, 61, 82
11, 48240, Note_on_c, 0, 65, 82
11, 48600, Note_on_c, 0, 65, 0
11, 48600, Note_on_c, 0, 61, 0
11, 48600, Note_on_c, 0, 56, 0
11, 48600, Note_on_c, 0, 56, 82
11, 48600, Note_on_c, 0, 61, 82
11, 48600, Note_on_c, 0, 65, 82
11, 48660, Note_on_c, 0, 65, 0
11, 48660, Note_on_c, 0, 61, 0
11, 48660, Note_on_c, 0, 56, 0
11, 48720, Note_on_c, 0, 56, 82
11, 48720, Note_on_c, 0, 61, 82
11, 48720, Note_on_c, 0, 65, 82
11, 48780, Note_on_c, 0, 65, 0
11, 48780, Note_on_c, 0, 61, 0
11, 48780, Note_on_c, 0, 56, 0
11, 48840, Note_on_c, 0, 56, 82
11, 48840, Note_on_c, 0, 61, 82
11, 48840, Note_on_c, 0, 65, 82
11, 48900, Note_on_c, 0, 65, 0
11, 48900, Note_on_c, 0, 61, 0
11, 48900, Note_on_c, 0, 56, 0
11, 48960, Note_on_c, 0, 67, 72
11, 48960, Note_on_c, 0, 60, 72
11, 48960, Note_on_c, 0, 63, 72
11, 49260, Note_on_c, 0, 63, 0
11, 49260, Note_on_c, 0, 60, 0
11, 49260, Note_on_c, 0, 67, 0
11, 49260, Note_on_c, 0, 68, 72
11, 49260, Note_on_c, 0, 61, 72
11, 49260, Note_on_c, 0, 65, 72
11, 49620, Note_on_c, 0, 65, 0
11, 49620, Note_on_c, 0, 61, 0
11, 49620, Note_on_c, 0, 68, 0
11, 49620, Note_on_c, 0, 68, 66
11, 49620, Note_on_c, 0, 61, 66
11, 49620, Note_on_c, 0, 65, 66
11, 49680, Note_on_c, 0, 65, 0
11, 49680, Note_on_c, 0, 61, 0
11, 49680, Note_on_c, 0, 68, 0
11, 49680, Note_on_c, 0, 68, 72
11, 49680, Note_on_c, 0, 61, 72
11, 49680, Note_on_c, 0, 65, 72
11, 49800, Note_on_c, 0, 65, 0
11, 49800, Note_on_c, 0, 61, 0
11, 49800, Note_on_c, 0, 68, 0
11, 49800, Note_on_c, 0, 68, 72
11, 49800, Note_on_c, 0, 61, 72
11, 49800, Note_on_c, 0, 65, 72
11, 49860, Note_on_c, 0, 65, 0
11, 49860, Note_on_c, 0, 61, 0
11, 49860, Note_on_c, 0, 68, 0
11, 49920, Note_on_c, 0, 68, 72
11, 49920, Note_on_c, 0, 61, 72
11, 49920, Note_on_c, 0, 65, 72
11, 50040, Note_on_c, 0, 65, 0
11, 50040, Note_on_c, 0, 61, 0
11, 50040, Note_on_c, 0, 68, 0
11, 50040, Note_on_c, 0, 68, 72
11, 50040, Note_on_c, 0, 61, 72
11, 50040, Note_on_c, 0, 65, 72
11, 50220, Note_on_c, 0, 65, 0
11, 50220, Note_on_c, 0, 61, 0
11, 50220, Note_on_c, 0, 68, 0
11, 50220, Note_on_c, 0, 68, 66
11, 50220, Note_on_c, 0, 61, 66
11, 50220, Note_on_c, 0, 65, 66
11, 50280, Note_on_c, 0, 65, 0
11, 50280, Note_on_c, 0, 61, 0
11, 50280, Note_on_c, 0, 68, 0
11, 50280, Note_on_c, 0, 68, 63
11, 50280, Note_on_c, 0, 61, 63
11, 50280, Note_on_c, 0, 65, 63
11, 50340, Note_on_c, 0, 65, 0
11, 50340, Note_on_c, 0, 61, 0
11, 50340, Note_on_c, 0, 68, 0
11, 50340, Note_on_c, 0, 68, 72
11, 50340, Note_on_c, 0, 61, 72
11, 50340, Note_on_c, 0, 65, 72
11, 50400, Note_on_c, 0, 65, 0
11, 50400, Note_on_c, 0, 61, 0
11, 50400, Note_on_c, 0, 68, 0
11, 50400, Note_on_c, 0, 67, 72
11, 50400, Note_on_c, 0, 60, 72
11, 50400, Note_on_c, 0, 63, 72
11, 50700, Note_on_c, 0, 63, 0
11, 50700, Note_on_c, 0, 60, 0
11, 50700, Note_on_c, 0, 67, 0
11, 50700, Note_on_c, 0, 67, 72
11, 50700, Note_on_c, 0, 60, 72
11, 50700, Note_on_c, 0, 63, 72
11, 50940, Note_on_c, 0, 63, 0
11, 50940, Note_on_c, 0, 60, 0
11, 50940, Note_on_c, 0, 67, 0
11, 50940, Note_on_c, 0, 68, 72
11, 50940, Note_on_c, 0, 61, 72
11, 50940, Note_on_c, 0, 65, 72
11, 51240, Note_on_c, 0, 65, 0
11, 51240, Note_on_c, 0, 61, 0
11, 51240, Note_on_c, 0, 68, 0
11, 51240, Note_on_c, 0, 68, 72
11, 51240, Note_on_c, 0, 61, 72
11, 51240, Note_on_c, 0, 65, 72
11, 51300, Note_on_c, 0, 65, 0
11, 51300, Note_on_c, 0, 61, 0
11, 51300, Note_on_c, 0, 68, 0
11, 51360, Note_on_c, 0, 68, 72
11, 51360, Note_on_c, 0, 61, 72
11, 51360, Note_on_c, 0, 65, 72
11, 51420, Note_on_c, 0, 65, 0
11, 51420, Note_on_c, 0, 61, 0
11, 51420, Note_on_c, 0, 68, 0
11, 51480, Note_on_c, 0, 68, 72
11, 51480, Note_on_c, 0, 61, 72
11, 51480, Note_on_c, 0, 65, 72
11, 51840, Note_on_c, 0, 65, 0
11, 51840, Note_on_c, 0, 61, 0
11, 51840, Note_on_c, 0, 68, 0
11, 51840, Note_on_c, 0, 67, 72
11, 51840, Note_on_c, 0, 60, 72
11, 51840, Note_on_c, 0, 63, 72
11, 52140, Note_on_c, 0, 63, 0
11, 52140, Note_on_c, 0, 60, 0
11, 52140, Note_on_c, 0, 67, 0
11, 52140, Note_on_c, 0, 68, 72
11, 52140, Note_on_c, 0, 61, 72
11, 52140, Note_on_c, 0, 65, 72
11, 52500, Note_on_c, 0, 65, 0
11, 52500, Note_on_c, 0, 61, 0
11, 52500, Note_on_c, 0, 68, 0
11, 52500, Note_on_c, 0, 68, 72
11, 52500, Note_on_c, 0, 61, 72
11, 52500, Note_on_c, 0, 65, 72
11, 52560, Note_on_c, 0, 65, 0
11, 52560, Note_on_c, 0, 61, 0
11, 52560, Note_on_c, 0, 68, 0
11, 52560, Note_on_c, 0, 68, 66
11, 52560, Note_on_c, 0, 61, 66
11, 52560, Note_on_c, 0, 65, 66
11, 52680, Note_on_c, 0, 65, 0
11, 52680, Note_on_c, 0, 61, 0
11, 52680, Note_on_c, 0, 68, 0
11, 52680, Note_on_c, 0, 68, 72
11, 52680, Note_on_c, 0, 61, 72
11, 52680, Note_on_c, 0, 65, 72
11, 52740, Note_on_c, 0, 65, 0
11, 52740, Note_on_c, 0, 61, 0
11, 52740, Note_on_c, 0, 68, 0
11, 52800, Note_on_c, 0, 68, 72
11, 52800, Note_on_c, 0, 61, 72
11, 52800, Note_on_c, 0, 65, 72
11, 52920, Note_on_c, 0, 65, 0
11, 52920, Note_on_c, 0, 61, 0
11, 52920, Note_on_c, 0, 68, 0
11, 52920, Note_on_c, 0, 68, 72
11, 52920, Note_on_c, 0, 61, 72
11, 52920, Note_on_c, 0, 65, 72
11, 53100, Note_on_c, 0, 65, 0
11, 53100, Note_on_c, 0, 61, 0
11, 53100, Note_on_c, 0, 68, 0
11, 53100, Note_on_c, 0, 68, 66
11, 53100, Note_on_c, 0, 61, 66
11, 53100, Note_on_c, 0, 65, 66
11, 53160, Note_on_c, 0, 65, 0
11, 53160, Note_on_c, 0, 61, 0
11, 53160, Note_on_c, 0, 68, 0
11, 53160, Note_on_c, 0, 68, 63
11, 53160, Note_on_c, 0, 61, 63
11, 53160, Note_on_c, 0, 65, 63
11, 53220, Note_on_c, 0, 65, 0
11, 53220, Note_on_c, 0, 61, 0
11, 53220, Note_on_c, 0, 68, 0
11, 53220, Note_on_c, 0, 68, 66
11, 53220, Note_on_c, 0, 61, 66
11, 53220, Note_on_c, 0, 65, 66
11, 53280, Note_on_c, 0, 65, 0
11, 53280, Note_on_c, 0, 61, 0
11, 53280, Note_on_c, 0, 68, 0
11, 53280, Note_on_c, 0, 67, 72
11, 53280, Note_on_c, 0, 60, 72
11, 53280, Note_on_c, 0, 63, 72
11, 53580, Note_on_c, 0, 63, 0
11, 53580, Note_on_c, 0, 60, 0
11, 53580, Note_on_c, 0, 67, 0
11, 53580, Note_on_c, 0, 67, 72
11, 53580, Note_on_c, 0, 60, 72
11, 53580, Note_on_c, 0, 63, 72
11, 53820, Note_on_c, 0, 63, 0
11, 53820, Note_on_c, 0, 60, 0
11, 53820, Note_on_c, 0, 67, 0
11, 53820, Note_on_c, 0, 66, 72
11, 53820, Note_on_c, 0, 58, 72
11, 53820, Note_on_c, 0, 61, 72
11, 54120, Note_on_c, 0, 61, 0
11, 54120, Note_on_c, 0, 58, 0
11, 54120, Note_on_c, 0, 66, 0
11, 54120, Note_on_c, 0, 66, 72
11, 54120, Note_on_c, 0, 58, 72
11, 54120, Note_on_c, 0, 61, 72
11, 54180, Note_on_c, 0, 61, 0
11, 54180, Note_on_c, 0, 58, 0
11, 54180, Note_on_c, 0, 66, 0
11, 54240, Note_on_c, 0, 66, 72
11, 54240, Note_on_c, 0, 58, 72
11, 54240, Note_on_c, 0, 61, 72
11, 54300, Note_on_c, 0, 61, 0
11, 54300, Note_on_c, 0, 58, 0
11, 54300, Note_on_c, 0, 66, 0
11, 54360, Note_on_c, 0, 64, 72
11, 54360, Note_on_c, 0, 60, 72
11, 54360, Note_on_c, 0, 62, 72
11, 54420, Note_on_c, 0, 62, 0
11, 54420, Note_on_c, 0, 60, 0
11, 54420, Note_on_c, 0, 64, 0
11, 54480, Note_on_c, 0, 64, 72
11, 54480, Note_on_c, 0, 60, 72
11, 54480, Note_on_c, 0, 62, 72
11, 54540, Note_on_c, 0, 62, 0
11, 54540, Note_on_c, 0, 60, 0
11, 54540, Note_on_c, 0, 64, 0
11, 54600, Note_on_c, 0, 64, 72
11, 54600, Note_on_c, 0, 62, 72
11, 54600, Note_on_c, 0, 60, 72
11, 54660, Note_on_c, 0, 60, 0
11, 54660, Note_on_c, 0, 62, 0
11, 54660, Note_on_c, 0, 64, 0
11, 54720, Note_on_c, 0, 65, 82
11, 54720, Note_on_c, 0, 56, 82
11, 54720, Note_on_c, 0, 61, 82
11, 54892, Note_on_c, 0, 61, 0
11, 54892, Note_on_c, 0, 56, 0
11, 54892, Note_on_c, 0, 65, 0
11, 54900, Note_on_c, 0, 56, 82
11, 54900, Note_on_c, 0, 61, 82
11, 54900, Note_on_c, 0, 65, 82
11, 54952, Note_on_c, 0, 65, 0
11, 54952, Note_on_c, 0, 61, 0
11, 54952, Note_on_c, 0, 56, 0
11, 55020, Note_on_c, 0, 56, 82
11, 55020, Note_on_c, 0, 60, 82
11, 55020, Note_on_c, 0, 63, 82
11, 55252, Note_on_c, 0, 63, 0
11, 55252, Note_on_c, 0, 60, 0
11, 55252, Note_on_c, 0, 56, 0
11, 55260, Note_on_c, 0, 56, 82
11, 55260, Note_on_c, 0, 60, 82
11, 55260, Note_on_c, 0, 63, 82
11, 55312, Note_on_c, 0, 63, 0
11, 55312, Note_on_c, 0, 60, 0
11, 55312, Note_on_c, 0, 56, 0
11, 55380, Note_on_c, 0, 65, 82
11, 55380, Note_on_c, 0, 56, 82
11, 55380, Note_on_c, 0, 61, 82
11, 55492, Note_on_c, 0, 61, 0
11, 55492, Note_on_c, 0, 56, 0
11, 55492, Note_on_c, 0, 65, 0
11, 55500, Note_on_c, 0, 56, 82
11, 55500, Note_on_c, 0, 61, 82
11, 55500, Note_on_c, 0, 65, 82
11, 55552, Note_on_c, 0, 65, 0
11, 55552, Note_on_c, 0, 61, 0
11, 55552, Note_on_c, 0, 56, 0
11, 55620, Note_on_c, 0, 60, 82
11, 55620, Note_on_c, 0, 63, 82
11, 55620, Note_on_c, 0, 67, 82
11, 55792, Note_on_c, 0, 67, 0
11, 55792, Note_on_c, 0, 63, 0
11, 55792, Note_on_c, 0, 60, 0
11, 55800, Note_on_c, 0, 60, 82
11, 55800, Note_on_c, 0, 63, 82
11, 55800, Note_on_c, 0, 67, 82
11, 56152, Note_on_c, 0, 67, 0
11, 56152, Note_on_c, 0, 63, 0
11, 56152, Note_on_c, 0, 60, 0
11, 56160, Note_on_c, 0, 56, 82
11, 56160, Note_on_c, 0, 61, 82
11, 56160, Note_on_c, 0, 65, 82
11, 56332, Note_on_c, 0, 65, 0
11, 56332, Note_on_c, 0, 61, 0
11, 56332, Note_on_c, 0, 56, 0
11, 56340, Note_on_c, 0, 56, 82
11, 56340, Note_on_c, 0, 61, 82
11, 56340, Note_on_c, 0, 65, 82
11, 56392, Note_on_c, 0, 65, 0
11, 56392, Note_on_c, 0, 61, 0
11, 56392, Note_on_c, 0, 56, 0
11, 56460, Note_on_c, 0, 56, 78
11, 56460, Note_on_c, 0, 61, 78
11, 56460, Note_on_c, 0, 65, 78
11, 56572, Note_on_c, 0, 65, 0
11, 56572, Note_on_c, 0, 61, 0
11, 56572, Note_on_c, 0, 56, 0
11, 56580, Note_on_c, 0, 56, 74
11, 56580, Note_on_c, 0, 61, 74
11, 56580, Note_on_c, 0, 65, 74
11, 56626, Note_on_c, 0, 65, 0
11, 56626, Note_on_c, 0, 61, 0
11, 56626, Note_on_c, 0, 56, 0
11, 56640, Note_on_c, 0, 56, 80
11, 56640, Note_on_c, 0, 61, 80
11, 56640, Note_on_c, 0, 65, 80
11, 56692, Note_on_c, 0, 65, 0
11, 56692, Note_on_c, 0, 61, 0
11, 56692, Note_on_c, 0, 56, 0
11, 56760, Note_on_c, 0, 67, 78
11, 56760, Note_on_c, 0, 58, 78
11, 56760, Note_on_c, 0, 63, 78
11, 57232, Note_on_c, 0, 63, 0
11, 57232, Note_on_c, 0, 58, 0
11, 57232, Note_on_c, 0, 67, 0
11, 57240, Note_on_c, 0, 60, 78
11, 57240, Note_on_c, 0, 63, 78
11, 57240, Note_on_c, 0, 67, 78
11, 57292, Note_on_c, 0, 67, 0
11, 57292, Note_on_c, 0, 63, 0
11, 57292, Note_on_c, 0, 60, 0
11, 57300, Note_on_c, 0, 60, 74
11, 57300, Note_on_c, 0, 63, 74
11, 57300, Note_on_c, 0, 67, 74
11, 57352, Note_on_c, 0, 67, 0
11, 57352, Note_on_c, 0, 63, 0
11, 57352, Note_on_c, 0, 60, 0
11, 57360, Note_on_c, 0, 60, 82
11, 57360, Note_on_c, 0, 63, 82
11, 57360, Note_on_c, 0, 67, 82
11, 57412, Note_on_c, 0, 67, 0
11, 57412, Note_on_c, 0, 63, 0
11, 57412, Note_on_c, 0, 60, 0
11, 57420, Note_on_c, 0, 60, 76
11, 57420, Note_on_c, 0, 63, 76
11, 57420, Note_on_c, 0, 67, 76
11, 57532, Note_on_c, 0, 67, 0
11, 57532, Note_on_c, 0, 63, 0
11, 57532, Note_on_c, 0, 60, 0
11, 57540, Note_on_c, 0, 60, 82
11, 57540, Note_on_c, 0, 63, 82
11, 57540, Note_on_c, 0, 67, 82
11, 57592, Note_on_c, 0, 67, 0
11, 57592, Note_on_c, 0, 63, 0
11, 57592, Note_on_c, 0, 60, 0
11, 57600, Note_on_c, 0, 56, 82
11, 57600, Note_on_c, 0, 65, 82
11, 57600, Note_on_c, 0, 61, 82
11, 57712, Note_on_c, 0, 61, 0
11, 57712, Note_on_c, 0, 65, 0
11, 57712, Note_on_c, 0, 56, 0
11, 57720, Note_on_c, 0, 56, 82
11, 57720, Note_on_c, 0, 61, 82
11, 57720, Note_on_c, 0, 65, 82
11, 57772, Note_on_c, 0, 65, 0
11, 57772, Note_on_c, 0, 61, 0
11, 57772, Note_on_c, 0, 56, 0
11, 57840, Note_on_c, 0, 56, 82
11, 57840, Note_on_c, 0, 61, 82
11, 57840, Note_on_c, 0, 65, 82
11, 57892, Note_on_c, 0, 65, 0
11, 57892, Note_on_c, 0, 61, 0
11, 57892, Note_on_c, 0, 56, 0
11, 57960, Note_on_c, 0, 56, 82
11, 57960, Note_on_c, 0, 61, 82
11, 57960, Note_on_c, 0, 65, 82
11, 58132, Note_on_c, 0, 65, 0
11, 58132, Note_on_c, 0, 61, 0
11, 58132, Note_on_c, 0, 56, 0
11, 58140, Note_on_c, 0, 65, 82
11, 58140, Note_on_c, 0, 61, 82
11, 58140, Note_on_c, 0, 56, 82
11, 58252, Note_on_c, 0, 56, 0
11, 58252, Note_on_c, 0, 61, 0
11, 58252, Note_on_c, 0, 65, 0
11, 58260, Note_on_c, 0, 60, 82
11, 58260, Note_on_c, 0, 63, 82
11, 58260, Note_on_c, 0, 67, 82
11, 58372, Note_on_c, 0, 67, 0
11, 58372, Note_on_c, 0, 63, 0
11, 58372, Note_on_c, 0, 60, 0
11, 58380, Note_on_c, 0, 60, 82
11, 58380, Note_on_c, 0, 63, 82
11, 58380, Note_on_c, 0, 67, 82
11, 58432, Note_on_c, 0, 67, 0
11, 58432, Note_on_c, 0, 63, 0
11, 58432, Note_on_c, 0, 60, 0
11, 58500, Note_on_c, 0, 60, 82
11, 58500, Note_on_c, 0, 65, 82
11, 58500, Note_on_c, 0, 68, 82
11, 59032, Note_on_c, 0, 68, 0
11, 59032, Note_on_c, 0, 65, 0
11, 59032, Note_on_c, 0, 60, 0
11, 59040, Note_on_c, 0, 56, 82
11, 59040, Note_on_c, 0, 61, 82
11, 59040, Note_on_c, 0, 65, 82
11, 59152, Note_on_c, 0, 65, 0
11, 59152, Note_on_c, 0, 61, 0
11, 59152, Note_on_c, 0, 56, 0
11, 59160, Note_on_c, 0, 56, 82
11, 59160, Note_on_c, 0, 61, 82
11, 59160, Note_on_c, 0, 65, 82
11, 59212, Note_on_c, 0, 65, 0
11, 59212, Note_on_c, 0, 61, 0
11, 59212, Note_on_c, 0, 56, 0
11, 59280, Note_on_c, 0, 56, 82
11, 59280, Note_on_c, 0, 61, 82
11, 59280, Note_on_c, 0, 65, 82
11, 59332, Note_on_c, 0, 65, 0
11, 59332, Note_on_c, 0, 61, 0
11, 59332, Note_on_c, 0, 56, 0
11, 59400, Note_on_c, 0, 60, 82
11, 59400, Note_on_c, 0, 63, 82
11, 59400, Note_on_c, 0, 67, 82
11, 59752, Note_on_c, 0, 67, 0
11, 59752, Note_on_c, 0, 63, 0
11, 59752, Note_on_c, 0, 60, 0
11, 59760, Note_on_c, 0, 56, 82
11, 59760, Note_on_c, 0, 65, 82
11, 59760, Note_on_c, 0, 60, 82
11, 59872, Note_on_c, 0, 60, 0
11, 59872, Note_on_c, 0, 65, 0
11, 59872, Note_on_c, 0, 56, 0
11, 59880, Note_on_c, 0, 56, 82
11, 59880, Note_on_c, 0, 60, 82
11, 59880, Note_on_c, 0, 65, 82
11, 59932, Note_on_c, 0, 65, 0
11, 59932, Note_on_c, 0, 60, 0
11, 59932, Note_on_c, 0, 56, 0
11, 60000, Note_on_c, 0, 56, 82
11, 60000, Note_on_c, 0, 60, 82
11, 60000, Note_on_c, 0, 65, 82
11, 60052, Note_on_c, 0, 65, 0
11, 60052, Note_on_c, 0, 60, 0
11, 60052, Note_on_c, 0, 56, 0
11, 60120, Note_on_c, 0, 58, 82
11, 60120, Note_on_c, 0, 62, 82
11, 60120, Note_on_c, 0, 65, 82
11, 60292, Note_on_c, 0, 65, 0
11, 60292, Note_on_c, 0, 62, 0
11, 60292, Note_on_c, 0, 58, 0
11, 60300, Note_on_c, 0, 58, 82
11, 60300, Note_on_c, 0, 62, 82
11, 60300, Note_on_c, 0, 65, 82
11, 60412, Note_on_c, 0, 65, 0
11, 60412, Note_on_c, 0, 62, 0
11, 60412, Note_on_c, 0, 58, 0
11, 60420, Note_on_c, 0, 58, 82
11, 60420, Note_on_c, 0, 62, 82
11, 60420, Note_on_c, 0, 65, 82
11, 60472, Note_on_c, 0, 65, 0
11, 60472, Note_on_c, 0, 62, 0
11, 60472, Note_on_c, 0, 58, 0
11, 61320, Note_on_c, 0, 57, 73
11, 61320, Note_on_c, 0, 64, 73
11, 61320, Note_on_c, 0, 60, 73
11, 61365, Note_on_c, 0, 60, 0
11, 61365, Note_on_c, 0, 64, 0
11, 61365, Note_on_c, 0, 57, 0
11, 61560, Note_on_c, 0, 53, 65
11, 61560, Note_on_c, 0, 58, 65
11, 61560, Note_on_c, 0, 62, 65
11, 61653, Note_on_c, 0, 62, 0
11, 61653, Note_on_c, 0, 58, 0
11, 61653, Note_on_c, 0, 53, 0
11, 61680, Note_on_c, 0, 53, 73
11, 61680, Note_on_c, 0, 58, 73
11, 61680, Note_on_c, 0, 62, 73
11, 61725, Note_on_c, 0, 62, 0
11, 61725, Note_on_c, 0, 58, 0
11, 61725, Note_on_c, 0, 53, 0
11, 62760, Note_on_c, 0, 65, 78
11, 62760, Note_on_c, 0, 62, 78
11, 62760, Note_on_c, 0, 69, 78
11, 62790, Note_on_c, 0, 69, 0
11, 62790, Note_on_c, 0, 62, 0
11, 62790, Note_on_c, 0, 65, 0
11, 63000, Note_on_c, 0, 62, 78
11, 63000, Note_on_c, 0, 65, 78
11, 63045, Note_on_c, 0, 65, 0
11, 63045, Note_on_c, 0, 62, 0
11, 63060, Note_on_c, 0, 62, 78
11, 63060, Note_on_c, 0, 65, 78
11, 63060, Note_on_c, 0, 67, 78
11, 63100, Note_on_c, 0, 67, 0
11, 63100, Note_on_c, 0, 65, 0
11, 63100, Note_on_c, 0, 62, 0
11, 63120, Note_on_c, 0, 62, 70
11, 63120, Note_on_c, 0, 65, 70
11, 63160, Note_on_c, 0, 65, 0
11, 63160, Note_on_c, 0, 62, 0
11, 63180, Note_on_c, 0, 62, 84
11, 63180, Note_on_c, 0, 65, 84
11, 63180, Note_on_c, 0, 67, 84
11, 63280, Note_on_c, 0, 67, 0
11, 63280, Note_on_c, 0, 65, 0
11, 63280, Note_on_c, 0, 62, 0
11, 63300, Note_on_c, 0, 67, 78
11, 63300, Note_on_c, 0, 72, 78
11, 63300, Note_on_c, 0, 67, 78
11, 63300, Note_on_c, 0, 65, 78
11, 63340, Note_on_c, 0, 65, 0
11, 63340, Note_on_c, 0, 67, 0
11, 63340, Note_on_c, 0, 72, 0
11, 63340, Note_on_c, 0, 67, 0
11, 74880, Note_on_c, 0, 57, 82
11, 74880, Note_on_c, 0, 60, 82
11, 74880, Note_on_c, 0, 64, 82
11, 75060, Note_on_c, 0, 64, 0
11, 75060, Note_on_c, 0, 60, 0
11, 75060, Note_on_c, 0, 57, 0
11, 75240, Note_on_c, 0, 57, 82
11, 75240, Note_on_c, 0, 60, 82
11, 75240, Note_on_c, 0, 64, 82
11, 75420, Note_on_c, 0, 64, 0
11, 75420, Note_on_c, 0, 60, 0
11, 75420, Note_on_c, 0, 57, 0
11, 75540, Note_on_c, 0, 62, 82
11, 75540, Note_on_c, 0, 57, 82
11, 75660, Note_on_c, 0, 57, 0
11, 75660, Note_on_c, 0, 62, 0
11, 75660, Note_on_c, 0, 69, 82
11, 75660, Note_on_c, 0, 65, 82
11, 75780, Note_on_c, 0, 65, 0
11, 75780, Note_on_c, 0, 69, 0
11, 75780, Note_on_c, 0, 65, 82
11, 75780, Note_on_c, 0, 62, 82
11, 75780, Note_on_c, 0, 58, 82
11, 76020, Note_on_c, 0, 58, 0
11, 76020, Note_on_c, 0, 62, 0
11, 76020, Note_on_c, 0, 65, 0
11, 76140, Note_on_c, 0, 60, 82
11, 76140, Note_on_c, 0, 64, 82
11, 76140, Note_on_c, 0, 67, 82
11, 76260, Note_on_c, 0, 67, 0
11, 76260, Note_on_c, 0, 64, 0
11, 76260, Note_on_c, 0, 60, 0
11, 76260, Note_on_c, 0, 60, 82
11, 76260, Note_on_c, 0, 64, 82
11, 76260, Note_on_c, 0, 67, 82
11, 76320, Note_on_c, 0, 67, 0
11, 76320, Note_on_c, 0, 64, 0
11, 76320, Note_on_c, 0, 60, 0
11, 77040, Note_on_c, 0, 58, 72
11, 77100, Note_on_c, 0, 60, 72
11, 77160, Note_on_c, 0, 58, 0
11, 77160, Note_on_c, 0, 64, 72
11, 77160, Note_on_c, 0, 67, 72
11, 77220, Note_on_c, 0, 60, 0
11, 77400, Note_on_c, 0, 67, 0
11, 77400, Note_on_c, 0, 64, 0
11, 77880, Note_on_c, 0, 57, 82
11, 77880, Note_on_c, 0, 60, 82
11, 77880, Note_on_c, 0, 64, 82
11, 78000, Note_on_c, 0, 64, 0
11, 78000, Note_on_c, 0, 60, 0
11, 78000, Note_on_c, 0, 57, 0
11, 78000, Note_on_c, 0, 57, 82
11, 78000, Note_on_c, 0, 60, 82
11, 78000, Note_on_c, 0, 64, 82
11, 78120, Note_on_c, 0, 64, 0
11, 78120, Note_on_c, 0, 60, 0
11, 78120, Note_on_c, 0, 57, 0
11, 78120, Note_on_c, 0, 57, 82
11, 78120, Note_on_c, 0, 60, 82
11, 78120, Note_on_c, 0, 64, 82
11, 78300, Note_on_c, 0, 64, 0
11, 78300, Note_on_c, 0, 60, 0
11, 78300, Note_on_c, 0, 57, 0
11, 78300, Note_on_c, 0, 57, 82
11, 78300, Note_on_c, 0, 60, 82
11, 78300, Note_on_c, 0, 64, 82
11, 78420, Note_on_c, 0, 64, 0
11, 78420, Note_on_c, 0, 60, 0
11, 78420, Note_on_c, 0, 57, 0
11, 78420, Note_on_c, 0, 57, 82
11, 78420, Note_on_c, 0, 60, 82
11, 78420, Note_on_c, 0, 64, 82
11, 78540, Note_on_c, 0, 53, 82
11, 78540, Note_on_c, 0, 58, 82
11, 78540, Note_on_c, 0, 62, 82
11, 78570, Note_on_c, 0, 64, 0
11, 78570, Note_on_c, 0, 57, 0
11, 78570, Note_on_c, 0, 60, 0
11, 78630, Note_on_c, 0, 53, 0
11, 78630, Note_on_c, 0, 58, 0
11, 78630, Note_on_c, 0, 62, 0
11, 78660, Note_on_c, 0, 55, 82
11, 78660, Note_on_c, 0, 60, 82
11, 78660, Note_on_c, 0, 63, 82
11, 78900, Note_on_c, 0, 63, 0
11, 78900, Note_on_c, 0, 60, 0
11, 78900, Note_on_c, 0, 55, 0
11, 78960, Note_on_c, 0, 55, 82
11, 78960, Note_on_c, 0, 60, 82
11, 78960, Note_on_c, 0, 63, 82
11, 79080, Note_on_c, 0, 63, 0
11, 79080, Note_on_c, 0, 60, 0
11, 79080, Note_on_c, 0, 55, 0
11, 79080, Note_on_c, 0, 60, 87
11, 79080, Note_on_c, 0, 63, 82
11, 79080, Note_on_c, 0, 55, 82
11, 79200, Note_on_c, 0, 55, 0
11, 79200, Note_on_c, 0, 63, 0
11, 79200, Note_on_c, 0, 60, 0
11, 79200, Note_on_c, 0, 56, 82
11, 79200, Note_on_c, 0, 60, 82
11, 79200, Note_on_c, 0, 65, 82
11, 79680, Note_on_c, 0, 65, 0
11, 79680, Note_on_c, 0, 60, 0
11, 79680, Note_on_c, 0, 56, 0
11, 79680, Note_on_c, 0, 60, 82
11, 79688, Note_on_c, 0, 65, 82
11, 79696, Note_on_c, 0, 68, 82
11, 79890, Note_on_c, 0, 60, 0
11, 79898, Note_on_c, 0, 65, 0
11, 79906, Note_on_c, 0, 68, 0
11, 79920, Note_on_c, 0, 65, 76
11, 79926, Note_on_c, 0, 68, 76
11, 79932, Note_on_c, 0, 72, 76
11, 80400, Note_on_c, 0, 65, 0
11, 80406, Note_on_c, 0, 68, 0
11, 80412, Note_on_c, 0, 72, 0
11, 80760, Note_on_c, 0, 61, 82
11, 80760, Note_on_c, 0, 60, 82
11, 80760, Note_on_c, 0, 65, 82
11, 80880, Note_on_c, 0, 65, 0
11, 80880, Note_on_c, 0, 60, 0
11, 80880, Note_on_c, 0, 61, 0
11, 80880, Note_on_c, 0, 61, 82
11, 80880, Note_on_c, 0, 60, 82
11, 80880, Note_on_c, 0, 65, 82
11, 81000, Note_on_c, 0, 65, 0
11, 81000, Note_on_c, 0, 60, 0
11, 81000, Note_on_c, 0, 61, 0
11, 81000, Note_on_c, 0, 61, 82
11, 81000, Note_on_c, 0, 60, 82
11, 81000, Note_on_c, 0, 65, 82
11, 81180, Note_on_c, 0, 65, 0
11, 81180, Note_on_c, 0, 60, 0
11, 81180, Note_on_c, 0, 61, 0
11, 81180, Note_on_c, 0, 61, 82
11, 81180, Note_on_c, 0, 60, 82
11, 81180, Note_on_c, 0, 65, 82
11, 81300, Note_on_c, 0, 65, 0
11, 81300, Note_on_c, 0, 60, 0
11, 81300, Note_on_c, 0, 61, 0
11, 81300, Note_on_c, 0, 58, 82
11, 81300, Note_on_c, 0, 61, 82
11, 81300, Note_on_c, 0, 65, 82
11, 81420, Note_on_c, 0, 58, 82
11, 81420, Note_on_c, 0, 61, 82
11, 81420, Note_on_c, 0, 65, 82
11, 81480, Note_on_c, 0, 65, 0
11, 81480, Note_on_c, 0, 58, 0
11, 81480, Note_on_c, 0, 61, 0
11, 81540, Note_on_c, 0, 58, 0
11, 81540, Note_on_c, 0, 61, 0
11, 81540, Note_on_c, 0, 65, 0
11, 81540, Note_on_c, 0, 58, 82
11, 81540, Note_on_c, 0, 61, 82
11, 81540, Note_on_c, 0, 65, 82
11, 81780, Note_on_c, 0, 65, 0
11, 81780, Note_on_c, 0, 61, 0
11, 81780, Note_on_c, 0, 58, 0
11, 81900, Note_on_c, 0, 56, 82
11, 81900, Note_on_c, 0, 60, 82
11, 81900, Note_on_c, 0, 63, 82
11, 82020, Note_on_c, 0, 63, 0
11, 82020, Note_on_c, 0, 60, 0
11, 82020, Note_on_c, 0, 56, 0
11, 82020, Note_on_c, 0, 56, 82
11, 82020, Note_on_c, 0, 60, 82
11, 82020, Note_on_c, 0, 63, 82
11, 82140, Note_on_c, 0, 60, 82
11, 82140, Note_on_c, 0, 68, 82
11, 82140, Note_on_c, 0, 65, 82
11, 82200, Note_on_c, 0, 65, 0
11, 82200, Note_on_c, 0, 60, 0
11, 82200, Note_on_c, 0, 63, 0
11, 82200, Note_on_c, 0, 56, 0
11, 82200, Note_on_c, 0, 68, 0
11, 82200, Note_on_c, 0, 60, 0
11, 82260, Note_on_c, 0, 60, 82
11, 82260, Note_on_c, 0, 61, 82
11, 82260, Note_on_c, 0, 65, 82
11, 83100, Note_on_c, 0, 65, 0
11, 83100, Note_on_c, 0, 61, 0
11, 83100, Note_on_c, 0, 60, 0
11, 83160, Note_on_c, 0, 60, 82
11, 83160, Note_on_c, 0, 63, 82
11, 83160, Note_on_c, 0, 67, 82
11, 83280, Note_on_c, 0, 67, 0
11, 83280, Note_on_c, 0, 63, 0
11, 83280, Note_on_c, 0, 60, 0
11, 83280, Note_on_c, 0, 60, 82
11, 83280, Note_on_c, 0, 63, 82
11, 83280, Note_on_c, 0, 67, 82
11, 83400, Note_on_c, 0, 67, 0
11, 83400, Note_on_c, 0, 63, 0
11, 83400, Note_on_c, 0, 60, 0
11, 83400, Note_on_c, 0, 60, 82
11, 83400, Note_on_c, 0, 63, 82
11, 83400, Note_on_c, 0, 67, 82
11, 83520, Note_on_c, 0, 67, 0
11, 83520, Note_on_c, 0, 63, 0
11, 83520, Note_on_c, 0, 60, 0
11, 83520, Note_on_c, 0, 60, 82
11, 83520, Note_on_c, 0, 61, 82
11, 83520, Note_on_c, 0, 65, 82
11, 84600, Note_on_c, 0, 65, 0
11, 84600, Note_on_c, 0, 61, 0
11, 84600, Note_on_c, 0, 60, 0
11, 84600, Note_on_c, 0, 58, 82
11, 84600, Note_on_c, 0, 63, 82
11, 84600, Note_on_c, 0, 67, 82
11, 84720, Note_on_c, 0, 67, 0
11, 84720, Note_on_c, 0, 63, 0
11, 84720, Note_on_c, 0, 58, 0
11, 84720, Note_on_c, 0, 58, 82
11, 84720, Note_on_c, 0, 63, 82
11, 84720, Note_on_c, 0, 67, 82
11, 84840, Note_on_c, 0, 67, 0
11, 84840, Note_on_c, 0, 63, 0
11, 84840, Note_on_c, 0, 58, 0
11, 84840, Note_on_c, 0, 58, 82
11, 84840, Note_on_c, 0, 63, 82
11, 84840, Note_on_c, 0, 67, 82
11, 84960, Note_on_c, 0, 67, 0
11, 84960, Note_on_c, 0, 63, 0
11, 84960, Note_on_c, 0, 58, 0
11, 84960, Note_on_c, 0, 57, 82
11, 84960, Note_on_c, 0, 62, 82
11, 84960, Note_on_c, 0, 65, 82
11, 85110, Note_on_c, 0, 65, 0
11, 85110, Note_on_c, 0, 62, 0
11, 85110, Note_on_c, 0, 57, 0
11, 85140, Note_on_c, 0, 57, 82
11, 85140, Note_on_c, 0, 62, 82
11, 85140, Note_on_c, 0, 65, 82
11, 85260, Note_on_c, 0, 65, 0
11, 85260, Note_on_c, 0, 62, 0
11, 85260, Note_on_c, 0, 55, 82
11, 85260, Note_on_c, 0, 60, 82
11, 85260, Note_on_c, 0, 64, 82
11, 85290, Note_on_c, 0, 57, 0
11, 85440, Note_on_c, 0, 55, 0
11, 85440, Note_on_c, 0, 60, 0
11, 85440, Note_on_c, 0, 64, 0
11, 85500, Note_on_c, 0, 55, 82
11, 85500, Note_on_c, 0, 60, 82
11, 85500, Note_on_c, 0, 64, 82
11, 85620, Note_on_c, 0, 55, 82
11, 85620, Note_on_c, 0, 58, 82
11, 85620, Note_on_c, 0, 62, 82
11, 85680, Note_on_c, 0, 64, 0
11, 85680, Note_on_c, 0, 55, 0
11, 85680, Note_on_c, 0, 60, 0
11, 85800, Note_on_c, 0, 55, 0
11, 85800, Note_on_c, 0, 58, 0
11, 85800, Note_on_c, 0, 62, 0
11, 85860, Note_on_c, 0, 55, 82
11, 85860, Note_on_c, 0, 58, 82
11, 85860, Note_on_c, 0, 62, 82
11, 85980, Note_on_c, 0, 62, 0
11, 85980, Note_on_c, 0, 58, 0
11, 85980, Note_on_c, 0, 55, 0
11, 85980, Note_on_c, 0, 56, 82
11, 85980, Note_on_c, 0, 60, 82
11, 85980, Note_on_c, 0, 63, 82
11, 86340, Note_on_c, 0, 63, 0
11, 86340, Note_on_c, 0, 60, 0
11, 86340, Note_on_c, 0, 56, 0
11, 86400, Note_on_c, 0, 56, 82
11, 86400, Note_on_c, 0, 60, 82
11, 86400, Note_on_c, 0, 65, 82
11, 86700, Note_on_c, 0, 65, 0
11, 86700, Note_on_c, 0, 60, 0
11, 86700, Note_on_c, 0, 56, 0
11, 86700, Note_on_c, 0, 56, 82
11, 86700, Note_on_c, 0, 60, 82
11, 86700, Note_on_c, 0, 63, 82
11, 87060, Note_on_c, 0, 63, 0
11, 87060, Note_on_c, 0, 60, 0
11, 87060, Note_on_c, 0, 56, 0
11, 87060, Note_on_c, 0, 56, 82
11, 87060, Note_on_c, 0, 61, 82
11, 87060, Note_on_c, 0, 65, 82
11, 87180, Note_on_c, 0, 65, 0
11, 87180, Note_on_c, 0, 61, 0
11, 87180, Note_on_c, 0, 56, 0
11, 87180, Note_on_c, 0, 56, 84
11, 87180, Note_on_c, 0, 61, 84
11, 87180, Note_on_c, 0, 65, 84
11, 87240, Note_on_c, 0, 65, 0
11, 87240, Note_on_c, 0, 61, 0
11, 87240, Note_on_c, 0, 56, 0
11, 87300, Note_on_c, 0, 60, 82
11, 87300, Note_on_c, 0, 63, 82
11, 87300, Note_on_c, 0, 67, 82
11, 87660, Note_on_c, 0, 67, 0
11, 87660, Note_on_c, 0, 63, 0
11, 87660, Note_on_c, 0, 60, 0
11, 87840, Note_on_c, 0, 56, 82
11, 87840, Note_on_c, 0, 60, 82
11, 87840, Note_on_c, 0, 63, 82
11, 88500, Note_on_c, 0, 63, 0
11, 88500, Note_on_c, 0, 60, 0
11, 88500, Note_on_c, 0, 56, 0
11, 88500, Note_on_c, 0, 58, 82
11, 88500, Note_on_c, 0, 63, 82
11, 88500, Note_on_c, 0, 67, 82
11, 88920, Note_on_c, 0, 67, 0
11, 88920, Note_on_c, 0, 63, 0
11, 88920, Note_on_c, 0, 58, 0
11, 88920, Note_on_c, 0, 58, 82
11, 88920, Note_on_c, 0, 63, 82
11, 88920, Note_on_c, 0, 67, 82
11, 89040, Note_on_c, 0, 67, 0
11, 89040, Note_on_c, 0, 63, 0
11, 89040, Note_on_c, 0, 58, 0
11, 89040, Note_on_c, 0, 58, 82
11, 89040, Note_on_c, 0, 63, 82
11, 89040, Note_on_c, 0, 67, 82
11, 89160, Note_on_c, 0, 67, 0
11, 89160, Note_on_c, 0, 63, 0
11, 89160, Note_on_c, 0, 58, 0
11, 89160, Note_on_c, 0, 58, 82
11, 89160, Note_on_c, 0, 63, 82
11, 89160, Note_on_c, 0, 67, 82
11, 89280, Note_on_c, 0, 67, 0
11, 89280, Note_on_c, 0, 63, 0
11, 89280, Note_on_c, 0, 58, 0
11, 89280, Note_on_c, 0, 56, 82
11, 89280, Note_on_c, 0, 65, 82
11, 89280, Note_on_c, 0, 61, 82
11, 89400, Note_on_c, 0, 61, 0
11, 89400, Note_on_c, 0, 65, 0
11, 89400, Note_on_c, 0, 56, 0
11, 89400, Note_on_c, 0, 56, 82
11, 89400, Note_on_c, 0, 61, 82
11, 89400, Note_on_c, 0, 65, 82
11, 89520, Note_on_c, 0, 65, 0
11, 89520, Note_on_c, 0, 61, 0
11, 89520, Note_on_c, 0, 56, 0
11, 89520, Note_on_c, 0, 56, 82
11, 89520, Note_on_c, 0, 61, 82
11, 89520, Note_on_c, 0, 65, 82
11, 89640, Note_on_c, 0, 65, 0
11, 89640, Note_on_c, 0, 61, 0
11, 89640, Note_on_c, 0, 56, 0
11, 89640, Note_on_c, 0, 56, 82
11, 89640, Note_on_c, 0, 61, 82
11, 89640, Note_on_c, 0, 65, 82
11, 89820, Note_on_c, 0, 65, 0
11, 89820, Note_on_c, 0, 61, 0
11, 89820, Note_on_c, 0, 56, 0
11, 89820, Note_on_c, 0, 56, 82
11, 89820, Note_on_c, 0, 61, 82
11, 89820, Note_on_c, 0, 65, 82
11, 89940, Note_on_c, 0, 65, 0
11, 89940, Note_on_c, 0, 61, 0
11, 89940, Note_on_c, 0, 56, 0
11, 89940, Note_on_c, 0, 58, 82
11, 89940, Note_on_c, 0, 63, 82
11, 89940, Note_on_c, 0, 67, 82
11, 90060, Note_on_c, 0, 67, 0
11, 90060, Note_on_c, 0, 63, 0
11, 90060, Note_on_c, 0, 58, 0
11, 90060, Note_on_c, 0, 60, 82
11, 90060, Note_on_c, 0, 63, 82
11, 90060, Note_on_c, 0, 67, 82
11, 90180, Note_on_c, 0, 67, 0
11, 90180, Note_on_c, 0, 63, 0
11, 90180, Note_on_c, 0, 60, 0
11, 90180, Note_on_c, 0, 60, 82
11, 90180, Note_on_c, 0, 65, 82
11, 90180, Note_on_c, 0, 68, 82
11, 90720, Note_on_c, 0, 68, 0
11, 90720, Note_on_c, 0, 65, 0
11, 90720, Note_on_c, 0, 60, 0
11, 90720, Note_on_c, 0, 56, 82
11, 90720, Note_on_c, 0, 61, 82
11, 90720, Note_on_c, 0, 65, 82
11, 90960, Note_on_c, 0, 65, 0
11, 90960, Note_on_c, 0, 61, 0
11, 90960, Note_on_c, 0, 56, 0
11, 90960, Note_on_c, 0, 56, 82
11, 90960, Note_on_c, 0, 61, 82
11, 90960, Note_on_c, 0, 65, 82
11, 91020, Note_on_c, 0, 65, 0
11, 91020, Note_on_c, 0, 61, 0
11, 91020, Note_on_c, 0, 56, 0
11, 91020, Note_on_c, 0, 56, 82
11, 91020, Note_on_c, 0, 61, 82
11, 91020, Note_on_c, 0, 65, 82
11, 91080, Note_on_c, 0, 65, 0
11, 91080, Note_on_c, 0, 61, 0
11, 91080, Note_on_c, 0, 56, 0
11, 91080, Note_on_c, 0, 58, 82
11, 91080, Note_on_c, 0, 63, 82
11, 91080, Note_on_c, 0, 67, 82
11, 91440, Note_on_c, 0, 67, 0
11, 91440, Note_on_c, 0, 63, 0
11, 91440, Note_on_c, 0, 58, 0
11, 91440, Note_on_c, 0, 56, 82
11, 91440, Note_on_c, 0, 60, 82
11, 91440, Note_on_c, 0, 65, 82
11, 91560, Note_on_c, 0, 65, 0
11, 91560, Note_on_c, 0, 60, 0
11, 91560, Note_on_c, 0, 56, 0
11, 91560, Note_on_c, 0, 56, 82
11, 91560, Note_on_c, 0, 60, 82
11, 91560, Note_on_c, 0, 65, 82
11, 91680, Note_on_c, 0, 65, 0
11, 91680, Note_on_c, 0, 60, 0
11, 91680, Note_on_c, 0, 56, 0
11, 91680, Note_on_c, 0, 56, 82
11, 91680, Note_on_c, 0, 60, 82
11, 91680, Note_on_c, 0, 65, 82
11, 91800, Note_on_c, 0, 65, 0
11, 91800, Note_on_c, 0, 60, 0
11, 91800, Note_on_c, 0, 56, 0
11, 91800, Note_on_c, 0, 58, 82
11, 91800, Note_on_c, 0, 61, 82
11, 91800, Note_on_c, 0, 65, 82
11, 91920, Note_on_c, 0, 65, 0
11, 91920, Note_on_c, 0, 61, 0
11, 91920, Note_on_c, 0, 58, 0
11, 91920, Note_on_c, 0, 58, 82
11, 91920, Note_on_c, 0, 61, 82
11, 91920, Note_on_c, 0, 65, 82
11, 92040, Note_on_c, 0, 65, 0
11, 92040, Note_on_c, 0, 61, 0
11, 92040, Note_on_c, 0, 58, 0
11, 92040, Note_on_c, 0, 58, 82
11, 92040, Note_on_c, 0, 61, 82
11, 92040, Note_on_c, 0, 65, 82
11, 92160, Note_on_c, 0, 65, 0
11, 92160, Note_on_c, 0, 61, 0
11, 92160, Note_on_c, 0, 58, 0
11, 92160, Note_on_c, 0, 56, 82
11, 92160, Note_on_c, 0, 60, 82
11, 92160, Note_on_c, 0, 65, 82
11, 92460, Note_on_c, 0, 65, 0
11, 92460, Note_on_c, 0, 60, 0
11, 92460, Note_on_c, 0, 56, 0
11, 92460, Note_on_c, 0, 55, 82
11, 92460, Note_on_c, 0, 60, 82
11, 92460, Note_on_c, 0, 63, 82
11, 92820, Note_on_c, 0, 63, 0
11, 92820, Note_on_c, 0, 60, 0
11, 92820, Note_on_c, 0, 55, 0
11, 92820, Note_on_c, 0, 65, 82
11, 92820, Note_on_c, 0, 61, 82
11, 92820, Note_on_c, 0, 56, 82
11, 92940, Note_on_c, 0, 56, 0
11, 92940, Note_on_c, 0, 61, 0
11, 92940, Note_on_c, 0, 65, 0
11, 92940, Note_on_c, 0, 61, 82
11, 92940, Note_on_c, 0, 56, 82
11, 92940, Note_on_c, 0, 65, 82
11, 93000, Note_on_c, 0, 65, 0
11, 93000, Note_on_c, 0, 56, 0
11, 93000, Note_on_c, 0, 61, 0
11, 93060, Note_on_c, 0, 60, 82
11, 93060, Note_on_c, 0, 63, 82
11, 93060, Note_on_c, 0, 67, 82
11, 93600, Note_on_c, 0, 67, 0
11, 93600, Note_on_c, 0, 63, 0
11, 93600, Note_on_c, 0, 60, 0
11, 93600, Note_on_c, 0, 56, 82
11, 93600, Note_on_c, 0, 60, 82
11, 93600, Note_on_c, 0, 65, 82
11, 93900, Note_on_c, 0, 65, 0
11, 93900, Note_on_c, 0, 60, 0
11, 93900, Note_on_c, 0, 56, 0
11, 93900, Note_on_c, 0, 56, 82
11, 93900, Note_on_c, 0, 60, 82
11, 93900, Note_on_c, 0, 65, 82
11, 94260, Note_on_c, 0, 65, 0
11, 94260, Note_on_c, 0, 60, 0
11, 94260, Note_on_c, 0, 56, 0
11, 94260, Note_on_c, 0, 60, 82
11, 94260, Note_on_c, 0, 63, 82
11, 94260, Note_on_c, 0, 67, 82
11, 94680, Note_on_c, 0, 67, 0
11, 94680, Note_on_c, 0, 63, 0
11, 94680, Note_on_c, 0, 60, 0
11, 94680, Note_on_c, 0, 60, 82
11, 94680, Note_on_c, 0, 63, 82
11, 94680, Note_on_c, 0, 67, 82
11, 94860, Note_on_c, 0, 67, 0
11, 94860, Note_on_c, 0, 63, 0
11, 94860, Note_on_c, 0, 60, 0
11, 94860, Note_on_c, 0, 63, 82
11, 94860, Note_on_c, 0, 60, 82
11, 94860, Note_on_c, 0, 67, 82
11, 95040, Note_on_c, 0, 67, 0
11, 95040, Note_on_c, 0, 60, 0
11, 95040, Note_on_c, 0, 63, 0
11, 95040, Note_on_c, 0, 58, 82
11, 95040, Note_on_c, 0, 61, 82
11, 95040, Note_on_c, 0, 65, 82
11, 95160, Note_on_c, 0, 65, 0
11, 95160, Note_on_c, 0, 61, 0
11, 95160, Note_on_c, 0, 58, 0
11, 95160, Note_on_c, 0, 58, 82
11, 95160, Note_on_c, 0, 61, 82
11, 95160, Note_on_c, 0, 65, 82
11, 95220, Note_on_c, 0, 65, 0
11, 95220, Note_on_c, 0, 61, 0
11, 95220, Note_on_c, 0, 58, 0
11, 95280, Note_on_c, 0, 58, 82
11, 95280, Note_on_c, 0, 61, 82
11, 95280, Note_on_c, 0, 65, 82
11, 95400, Note_on_c, 0, 65, 0
11, 95400, Note_on_c, 0, 61, 0
11, 95400, Note_on_c, 0, 58, 0
11, 95400, Note_on_c, 0, 58, 82
11, 95400, Note_on_c, 0, 67, 82
11, 95400, Note_on_c, 0, 63, 82
11, 95580, Note_on_c, 0, 63, 0
11, 95580, Note_on_c, 0, 67, 0
11, 95580, Note_on_c, 0, 58, 0
11, 95580, Note_on_c, 0, 58, 82
11, 95580, Note_on_c, 0, 67, 82
11, 95580, Note_on_c, 0, 63, 82
11, 95700, Note_on_c, 0, 63, 0
11, 95700, Note_on_c, 0, 67, 0
11, 95700, Note_on_c, 0, 58, 0
11, 95700, Note_on_c, 0, 58, 82
11, 95700, Note_on_c, 0, 63, 82
11, 95700, Note_on_c, 0, 67, 82
11, 95820, Note_on_c, 0, 67, 0
11, 95820, Note_on_c, 0, 63, 0
11, 95820, Note_on_c, 0, 58, 0
11, 95820, Note_on_c, 0, 60, 82
11, 95820, Note_on_c, 0, 63, 82
11, 95820, Note_on_c, 0, 67, 82
11, 95880, Note_on_c, 0, 67, 0
11, 95880, Note_on_c, 0, 63, 0
11, 95880, Note_on_c, 0, 60, 0
11, 95940, Note_on_c, 0, 56, 82
11, 95940, Note_on_c, 0, 60, 82
11, 95940, Note_on_c, 0, 65, 82
11, 96240, Note_on_c, 0, 65, 0
11, 96240, Note_on_c, 0, 60, 0
11, 96240, Note_on_c, 0, 56, 0
11, 96240, Note_on_c, 0, 56, 82
11, 96240, Note_on_c, 0, 60, 82
11, 96240, Note_on_c, 0, 65, 82
11, 96300, Note_on_c, 0, 65, 0
11, 96300, Note_on_c, 0, 60, 0
11, 96300, Note_on_c, 0, 56, 0
11, 96300, Note_on_c, 0, 56, 82
11, 96300, Note_on_c, 0, 60, 82
11, 96300, Note_on_c, 0, 65, 82
11, 96360, Note_on_c, 0, 65, 0
11, 96360, Note_on_c, 0, 60, 0
11, 96360, Note_on_c, 0, 56, 0
11, 96360, Note_on_c, 0, 56, 82
11, 96360, Note_on_c, 0, 60, 82
11, 96360, Note_on_c, 0, 65, 82
11, 96420, Note_on_c, 0, 65, 0
11, 96420, Note_on_c, 0, 60, 0
11, 96420, Note_on_c, 0, 56, 0
11, 96420, Note_on_c, 0, 56, 82
11, 96420, Note_on_c, 0, 60, 82
11, 96420, Note_on_c, 0, 65, 82
11, 96480, Note_on_c, 0, 65, 0
11, 96480, Note_on_c, 0, 60, 0
11, 96480, Note_on_c, 0, 56, 0
11, 96480, Note_on_c, 0, 56, 82
11, 96480, Note_on_c, 0, 61, 82
11, 96480, Note_on_c, 0, 65, 82
11, 96720, Note_on_c, 0, 65, 0
11, 96720, Note_on_c, 0, 61, 0
11, 96720, Note_on_c, 0, 56, 0
11, 96720, Note_on_c, 0, 56, 82
11, 96720, Note_on_c, 0, 61, 82
11, 96720, Note_on_c, 0, 65, 82
11, 96780, Note_on_c, 0, 65, 0
11, 96780, Note_on_c, 0, 61, 0
11, 96780, Note_on_c, 0, 56, 0
11, 96780, Note_on_c, 0, 56, 82
11, 96780, Note_on_c, 0, 61, 82
11, 96780, Note_on_c, 0, 65, 82
11, 96840, Note_on_c, 0, 65, 0
11, 96840, Note_on_c, 0, 61, 0
11, 96840, Note_on_c, 0, 56, 0
11, 96840, Note_on_c, 0, 58, 82
11, 96840, Note_on_c, 0, 63, 82
11, 96840, Note_on_c, 0, 67, 82
11, 97200, Note_on_c, 0, 67, 0
11, 97200, Note_on_c, 0, 63, 0
11, 97200, Note_on_c, 0, 58, 0
11, 97200, Note_on_c, 0, 56, 82
11, 97200, Note_on_c, 0, 64, 82
11, 97200, Note_on_c, 0, 61, 82
11, 97320, Note_on_c, 0, 61, 0
11, 97320, Note_on_c, 0, 64, 0
11, 97320, Note_on_c, 0, 56, 0
11, 97320, Note_on_c, 0, 56, 82
11, 97320, Note_on_c, 0, 64, 82
11, 97320, Note_on_c, 0, 61, 82
11, 97440, Note_on_c, 0, 61, 0
11, 97440, Note_on_c, 0, 64, 0
11, 97440, Note_on_c, 0, 56, 0
11, 97440, Note_on_c, 0, 56, 82
11, 97440, Note_on_c, 0, 64, 82
11, 97440, Note_on_c, 0, 61, 82
11, 97560, Note_on_c, 0, 61, 0
11, 97560, Note_on_c, 0, 64, 0
11, 97560, Note_on_c, 0, 56, 0
11, 97560, Note_on_c, 0, 65, 82
11, 97560, Note_on_c, 0, 64, 82
11, 97560, Note_on_c, 0, 60, 82
11, 97680, Note_on_c, 0, 60, 0
11, 97680, Note_on_c, 0, 64, 0
11, 97680, Note_on_c, 0, 65, 0
11, 97680, Note_on_c, 0, 65, 82
11, 97680, Note_on_c, 0, 64, 82
11, 97680, Note_on_c, 0, 60, 82
11, 97800, Note_on_c, 0, 60, 0
11, 97800, Note_on_c, 0, 64, 0
11, 97800, Note_on_c, 0, 65, 0
11, 97800, Note_on_c, 0, 65, 82
11, 97800, Note_on_c, 0, 64, 82
11, 97800, Note_on_c, 0, 60, 82
11, 97920, Note_on_c, 0, 60, 0
11, 97920, Note_on_c, 0, 64, 0
11, 97920, Note_on_c, 0, 65, 0
11, 97920, Note_on_c, 0, 56, 82
11, 97920, Note_on_c, 0, 60, 82
11, 97920, Note_on_c, 0, 65, 82
11, 98220, Note_on_c, 0, 65, 0
11, 98220, Note_on_c, 0, 60, 0
11, 98220, Note_on_c, 0, 56, 0
11, 98220, Note_on_c, 0, 55, 82
11, 98220, Note_on_c, 0, 60, 82
11, 98220, Note_on_c, 0, 63, 82
11, 98580, Note_on_c, 0, 63, 0
11, 98580, Note_on_c, 0, 60, 0
11, 98580, Note_on_c, 0, 55, 0
11, 98580, Note_on_c, 0, 65, 82
11, 98580, Note_on_c, 0, 61, 82
11, 98580, Note_on_c, 0, 56, 82
11, 98700, Note_on_c, 0, 56, 0
11, 98700, Note_on_c, 0, 61, 0
11, 98700, Note_on_c, 0, 65, 0
11, 98700, Note_on_c, 0, 61, 82
11, 98700, Note_on_c, 0, 56, 82
11, 98700, Note_on_c, 0, 65, 82
11, 98760, Note_on_c, 0, 65, 0
11, 98760, Note_on_c, 0, 56, 0
11, 98760, Note_on_c, 0, 61, 0
11, 98820, Note_on_c, 0, 60, 82
11, 98820, Note_on_c, 0, 63, 82
11, 98820, Note_on_c, 0, 67, 82
11, 99360, Note_on_c, 0, 67, 0
11, 99360, Note_on_c, 0, 63, 0
11, 99360, Note_on_c, 0, 60, 0
11, 99360, Note_on_c, 0, 56, 82
11, 99360, Note_on_c, 0, 60, 82
11, 99360, Note_on_c, 0, 65, 82
11, 99660, Note_on_c, 0, 65, 0
11, 99660, Note_on_c, 0, 60, 0
11, 99660, Note_on_c, 0, 56, 0
11, 99660, Note_on_c, 0, 56, 82
11, 99660, Note_on_c, 0, 60, 82
11, 99660, Note_on_c, 0, 65, 82
11, 100020, Note_on_c, 0, 65, 0
11, 100020, Note_on_c, 0, 60, 0
11, 100020, Note_on_c, 0, 56, 0
11, 100020, Note_on_c, 0, 60, 82
11, 100020, Note_on_c, 0, 63, 82
11, 100020, Note_on_c, 0, 67, 82
11, 100440, Note_on_c, 0, 67, 0
11, 100440, Note_on_c, 0, 63, 0
11, 100440, Note_on_c, 0, 60, 0
11, 100440, Note_on_c, 0, 60, 82
11, 100440, Note_on_c, 0, 63, 82
11, 100440, Note_on_c, 0, 67, 82
11, 100620, Note_on_c, 0, 67, 0
11, 100620, Note_on_c, 0, 63, 0
11, 100620, Note_on_c, 0, 60, 0
11, 100620, Note_on_c, 0, 63, 82
11, 100620, Note_on_c, 0, 60, 82
11, 100620, Note_on_c, 0, 67, 82
11, 100800, Note_on_c, 0, 67, 0
11, 100800, Note_on_c, 0, 60, 0
11, 100800, Note_on_c, 0, 63, 0
11, 100800, Note_on_c, 0, 58, 82
11, 100800, Note_on_c, 0, 61, 82
11, 100800, Note_on_c, 0, 65, 82
11, 100920, Note_on_c, 0, 65, 0
11, 100920, Note_on_c, 0, 61, 0
11, 100920, Note_on_c, 0, 58, 0
11, 100920, Note_on_c, 0, 58, 82
11, 100920, Note_on_c, 0, 61, 82
11, 100920, Note_on_c, 0, 65, 82
11, 100980, Note_on_c, 0, 65, 0
11, 100980, Note_on_c, 0, 61, 0
11, 100980, Note_on_c, 0, 58, 0
11, 101040, Note_on_c, 0, 58, 82
11, 101040, Note_on_c, 0, 61, 82
11, 101040, Note_on_c, 0, 65, 82
11, 101160, Note_on_c, 0, 65, 0
11, 101160, Note_on_c, 0, 61, 0
11, 101160, Note_on_c, 0, 58, 0
11, 101160, Note_on_c, 0, 58, 82
11, 101160, Note_on_c, 0, 67, 82
11, 101160, Note_on_c, 0, 63, 82
11, 101340, Note_on_c, 0, 63, 0
11, 101340, Note_on_c, 0, 67, 0
11, 101340, Note_on_c, 0, 58, 0
11, 101340, Note_on_c, 0, 58, 82
11, 101340, Note_on_c, 0, 67, 82
11, 101340, Note_on_c, 0, 63, 82
11, 101460, Note_on_c, 0, 63, 0
11, 101460, Note_on_c, 0, 67, 0
11, 101460, Note_on_c, 0, 58, 0
11, 101460, Note_on_c, 0, 60, 82
11, 101460, Note_on_c, 0, 63, 82
11, 101460, Note_on_c, 0, 67, 82
11, 101580, Note_on_c, 0, 67, 0
11, 101580, Note_on_c, 0, 63, 0
11, 101580, Note_on_c, 0, 60, 0
11, 101580, Note_on_c, 0, 60, 82
11, 101580, Note_on_c, 0, 63, 82
11, 101580, Note_on_c, 0, 67, 82
11, 101640, Note_on_c, 0, 67, 0
11, 101640, Note_on_c, 0, 63, 0
11, 101640, Note_on_c, 0, 60, 0
11, 101700, Note_on_c, 0, 56, 82
11, 101700, Note_on_c, 0, 60, 82
11, 101700, Note_on_c, 0, 65, 82
11, 102000, Note_on_c, 0, 65, 0
11, 102000, Note_on_c, 0, 60, 0
11, 102000, Note_on_c, 0, 56, 0
11, 102000, Note_on_c, 0, 56, 82
11, 102000, Note_on_c, 0, 60, 82
11, 102000, Note_on_c, 0, 65, 82
11, 102060, Note_on_c, 0, 65, 0
11, 102060, Note_on_c, 0, 60, 0
11, 102060, Note_on_c, 0, 56, 0
11, 102060, Note_on_c, 0, 56, 82
11, 102060, Note_on_c, 0, 60, 82
11, 102060, Note_on_c, 0, 65, 82
11, 102120, Note_on_c, 0, 65, 0
11, 102120, Note_on_c, 0, 60, 0
11, 102120, Note_on_c, 0, 56, 0
11, 102120, Note_on_c, 0, 56, 82
11, 102120, Note_on_c, 0, 60, 82
11, 102120, Note_on_c, 0, 65, 82
11, 102180, Note_on_c, 0, 65, 0
11, 102180, Note_on_c, 0, 60, 0
11, 102180, Note_on_c, 0, 56, 0
11, 102180, Note_on_c, 0, 56, 82
11, 102180, Note_on_c, 0, 60, 82
11, 102180, Note_on_c, 0, 65, 82
11, 102240, Note_on_c, 0, 65, 0
11, 102240, Note_on_c, 0, 60, 0
11, 102240, Note_on_c, 0, 56, 0
11, 102240, Note_on_c, 0, 56, 82
11, 102240, Note_on_c, 0, 61, 82
11, 102240, Note_on_c, 0, 65, 82
11, 102480, Note_on_c, 0, 65, 0
11, 102480, Note_on_c, 0, 61, 0
11, 102480, Note_on_c, 0, 56, 0
11, 102480, Note_on_c, 0, 56, 82
11, 102480, Note_on_c, 0, 61, 82
11, 102480, Note_on_c, 0, 65, 82
11, 102540, Note_on_c, 0, 65, 0
11, 102540, Note_on_c, 0, 61, 0
11, 102540, Note_on_c, 0, 56, 0
11, 102540, Note_on_c, 0, 56, 82
11, 102540, Note_on_c, 0, 61, 82
11, 102540, Note_on_c, 0, 65, 82
11, 102600, Note_on_c, 0, 65, 0
11, 102600, Note_on_c, 0, 61, 0
11, 102600, Note_on_c, 0, 56, 0
11, 102600, Note_on_c, 0, 58, 82
11, 102600, Note_on_c, 0, 63, 82
11, 102600, Note_on_c, 0, 67, 82
11, 102960, Note_on_c, 0, 67, 0
11, 102960, Note_on_c, 0, 63, 0
11, 102960, Note_on_c, 0, 58, 0
11, 102960, Note_on_c, 0, 56, 82
11, 102960, Note_on_c, 0, 60, 82
11, 102960, Note_on_c, 0, 65, 82
11, 103080, Note_on_c, 0, 65, 0
11, 103080, Note_on_c, 0, 60, 0
11, 103080, Note_on_c, 0, 56, 0
11, 103080, Note_on_c, 0, 56, 82
11, 103080, Note_on_c, 0, 60, 82
11, 103080, Note_on_c, 0, 65, 82
11, 103200, Note_on_c, 0, 65, 0
11, 103200, Note_on_c, 0, 60, 0
11, 103200, Note_on_c, 0, 56, 0
11, 103200, Note_on_c, 0, 56, 82
11, 103200, Note_on_c, 0, 60, 82
11, 103200, Note_on_c, 0, 65, 82
11, 103320, Note_on_c, 0, 65, 0
11, 103320, Note_on_c, 0, 60, 0
11, 103320, Note_on_c, 0, 56, 0
11, 103320, Note_on_c, 0, 56, 82
11, 103320, Note_on_c, 0, 61, 82
11, 103320, Note_on_c, 0, 65, 82
11, 103440, Note_on_c, 0, 65, 0
11, 103440, Note_on_c, 0, 61, 0
11, 103440, Note_on_c, 0, 56, 0
11, 103440, Note_on_c, 0, 56, 82
11, 103440, Note_on_c, 0, 61, 82
11, 103440, Note_on_c, 0, 65, 82
11, 103560, Note_on_c, 0, 65, 0
11, 103560, Note_on_c, 0, 61, 0
11, 103560, Note_on_c, 0, 56, 0
11, 103560, Note_on_c, 0, 56, 82
11, 103560, Note_on_c, 0, 61, 82
11, 103560, Note_on_c, 0, 65, 82
11, 103680, Note_on_c, 0, 65, 0
11, 103680, Note_on_c, 0, 61, 0
11, 103680, Note_on_c, 0, 56, 0
11, 103680, Note_on_c, 0, 56, 82
11, 103680, Note_on_c, 0, 60, 82
11, 103680, Note_on_c, 0, 65, 82
11, 103980, Note_on_c, 0, 65, 0
11, 103980, Note_on_c, 0, 60, 0
11, 103980, Note_on_c, 0, 56, 0
11, 103980, Note_on_c, 0, 55, 82
11, 103980, Note_on_c, 0, 60, 82
11, 103980, Note_on_c, 0, 63, 82
11, 104340, Note_on_c, 0, 63, 0
11, 104340, Note_on_c, 0, 60, 0
11, 104340, Note_on_c, 0, 55, 0
11, 104340, Note_on_c, 0, 65, 82
11, 104340, Note_on_c, 0, 61, 82
11, 104340, Note_on_c, 0, 56, 82
11, 104460, Note_on_c, 0, 56, 0
11, 104460, Note_on_c, 0, 61, 0
11, 104460, Note_on_c, 0, 65, 0
11, 104460, Note_on_c, 0, 61, 82
11, 104460, Note_on_c, 0, 56, 82
11, 104460, Note_on_c, 0, 65, 82
11, 104520, Note_on_c, 0, 65, 0
11, 104520, Note_on_c, 0, 56, 0
11, 104520, Note_on_c, 0, 61, 0
11, 104580, Note_on_c, 0, 60, 82
11, 104580, Note_on_c, 0, 63, 82
11, 104580, Note_on_c, 0, 67, 82
11, 105120, Note_on_c, 0, 67, 0
11, 105120, Note_on_c, 0, 63, 0
11, 105120, Note_on_c, 0, 60, 0
11, 105120, Note_on_c, 0, 56, 82
11, 105120, Note_on_c, 0, 60, 82
11, 105120, Note_on_c, 0, 65, 82
11, 105420, Note_on_c, 0, 65, 0
11, 105420, Note_on_c, 0, 60, 0
11, 105420, Note_on_c, 0, 56, 0
11, 105420, Note_on_c, 0, 56, 82
11, 105420, Note_on_c, 0, 60, 82
11, 105420, Note_on_c, 0, 65, 82
11, 105780, Note_on_c, 0, 65, 0
11, 105780, Note_on_c, 0, 60, 0
11, 105780, Note_on_c, 0, 56, 0
11, 105780, Note_on_c, 0, 60, 82
11, 105780, Note_on_c, 0, 63, 82
11, 105780, Note_on_c, 0, 67, 82
11, 106200, Note_on_c, 0, 67, 0
11, 106200, Note_on_c, 0, 63, 0
11, 106200, Note_on_c, 0, 60, 0
11, 106200, Note_on_c, 0, 60, 82
11, 106200, Note_on_c, 0, 63, 82
11, 106200, Note_on_c, 0, 67, 82
11, 106380, Note_on_c, 0, 67, 0
11, 106380, Note_on_c, 0, 63, 0
11, 106380, Note_on_c, 0, 60, 0
11, 106380, Note_on_c, 0, 63, 82
11, 106380, Note_on_c, 0, 60, 82
11, 106380, Note_on_c, 0, 67, 82
11, 106560, Note_on_c, 0, 67, 0
11, 106560, Note_on_c, 0, 60, 0
11, 106560, Note_on_c, 0, 63, 0
11, 106560, Note_on_c, 0, 58, 82
11, 106560, Note_on_c, 0, 61, 82
11, 106560, Note_on_c, 0, 65, 82
11, 106680, Note_on_c, 0, 65, 0
11, 106680, Note_on_c, 0, 61, 0
11, 106680, Note_on_c, 0, 58, 0
11, 106680, Note_on_c, 0, 58, 82
11, 106680, Note_on_c, 0, 61, 82
11, 106680, Note_on_c, 0, 65, 82
11, 106740, Note_on_c, 0, 65, 0
11, 106740, Note_on_c, 0, 61, 0
11, 106740, Note_on_c, 0, 58, 0
11, 106800, Note_on_c, 0, 58, 82
11, 106800, Note_on_c, 0, 61, 82
11, 106800, Note_on_c, 0, 65, 82
11, 106920, Note_on_c, 0, 65, 0
11, 106920, Note_on_c, 0, 61, 0
11, 106920, Note_on_c, 0, 58, 0
11, 106920, Note_on_c, 0, 58, 82
11, 106920, Note_on_c, 0, 67, 82
11, 106920, Note_on_c, 0, 63, 82
11, 107100, Note_on_c, 0, 63, 0
11, 107100, Note_on_c, 0, 67, 0
11, 107100, Note_on_c, 0, 58, 0
11, 107100, Note_on_c, 0, 58, 82
11, 107100, Note_on_c, 0, 67, 82
11, 107100, Note_on_c, 0, 63, 82
11, 107220, Note_on_c, 0, 63, 0
11, 107220, Note_on_c, 0, 67, 0
11, 107220, Note_on_c, 0, 58, 0
11, 107220, Note_on_c, 0, 60, 82
11, 107220, Note_on_c, 0, 63, 82
11, 107220, Note_on_c, 0, 67, 82
11, 107340, Note_on_c, 0, 67, 0
11, 107340, Note_on_c, 0, 63, 0
11, 107340, Note_on_c, 0, 60, 0
11, 107340, Note_on_c, 0, 60, 82
11, 107340, Note_on_c, 0, 63, 82
11, 107340, Note_on_c, 0, 67, 82
11, 107400, Note_on_c, 0, 67, 0
11, 107400, Note_on_c, 0, 63, 0
11, 107400, Note_on_c, 0, 60, 0
11, 107460, Note_on_c, 0, 56, 82
11, 107460, Note_on_c, 0, 60, 82
11, 107460, Note_on_c, 0, 65, 82
11, 107760, Note_on_c, 0, 65, 0
11, 107760, Note_on_c, 0, 60, 0
11, 107760, Note_on_c, 0, 56, 0
11, 107760, Note_on_c, 0, 56, 82
11, 107760, Note_on_c, 0, 60, 82
11, 107760, Note_on_c, 0, 65, 82
11, 107820, Note_on_c, 0, 65, 0
11, 107820, Note_on_c, 0, 60, 0
11, 107820, Note_on_c, 0, 56, 0
11, 107820, Note_on_c, 0, 56, 82
11, 107820, Note_on_c, 0, 60, 82
11, 107820, Note_on_c, 0, 65, 82
11, 107880, Note_on_c, 0, 65, 0
11, 107880, Note_on_c, 0, 60, 0
11, 107880, Note_on_c, 0, 56, 0
11, 107880, Note_on_c, 0, 56, 82
11, 107880, Note_on_c, 0, 60, 82
11, 107880, Note_on_c, 0, 65, 82
11, 107940, Note_on_c, 0, 65, 0
11, 107940, Note_on_c, 0, 60, 0
11, 107940, Note_on_c, 0, 56, 0
11, 107940, Note_on_c, 0, 56, 82
11, 107940, Note_on_c, 0, 60, 82
11, 107940, Note_on_c, 0, 65, 82
11, 108000, Note_on_c, 0, 65, 0
11, 108000, Note_on_c, 0, 60, 0
11, 108000, Note_on_c, 0, 56, 0
11, 108000, Note_on_c, 0, 56, 82
11, 108000, Note_on_c, 0, 61, 82
11, 108000, Note_on_c, 0, 65, 82
11, 108240, Note_on_c, 0, 65, 0
11, 108240, Note_on_c, 0, 61, 0
11, 108240, Note_on_c, 0, 56, 0
11, 108240, Note_on_c, 0, 56, 82
11, 108240, Note_on_c, 0, 61, 82
11, 108240, Note_on_c, 0, 65, 82
11, 108300, Note_on_c, 0, 65, 0
11, 108300, Note_on_c, 0, 61, 0
11, 108300, Note_on_c, 0, 56, 0
11, 108300, Note_on_c, 0, 56, 82
11, 108300, Note_on_c, 0, 61, 82
11, 108300, Note_on_c, 0, 65, 82
11, 108360, Note_on_c, 0, 65, 0
11, 108360, Note_on_c, 0, 61, 0
11, 108360, Note_on_c, 0, 56, 0
11, 108360, Note_on_c, 0, 58, 82
11, 108360, Note_on_c, 0, 63, 82
11, 108360, Note_on_c, 0, 67, 82
11, 108720, Note_on_c, 0, 67, 0
11, 108720, Note_on_c, 0, 63, 0
11, 108720, Note_on_c, 0, 58, 0
11, 108720, Note_on_c, 0, 56, 82
11, 108720, Note_on_c, 0, 64, 82
11, 108720, Note_on_c, 0, 61, 82
11, 108840, Note_on_c, 0, 61, 0
11, 108840, Note_on_c, 0, 64, 0
11, 108840, Note_on_c, 0, 56, 0
11, 108840, Note_on_c, 0, 56, 82
11, 108840, Note_on_c, 0, 64, 82
11, 108840, Note_on_c, 0, 61, 82
11, 108960, Note_on_c, 0, 61, 0
11, 108960, Note_on_c, 0, 64, 0
11, 108960, Note_on_c, 0, 56, 0
11, 108960, Note_on_c, 0, 56, 82
11, 108960, Note_on_c, 0, 64, 82
11, 108960, Note_on_c, 0, 61, 82
11, 109080, Note_on_c, 0, 61, 0
11, 109080, Note_on_c, 0, 64, 0
11, 109080, Note_on_c, 0, 56, 0
11, 109080, Note_on_c, 0, 65, 82
11, 109080, Note_on_c, 0, 64, 82
11, 109080, Note_on_c, 0, 60, 82
11, 109200, Note_on_c, 0, 60, 0
11, 109200, Note_on_c, 0, 64, 0
11, 109200, Note_on_c, 0, 65, 0
11, 109200, Note_on_c, 0, 65, 82
11, 109200, Note_on_c, 0, 64, 82
11, 109200, Note_on_c, 0, 60, 82
11, 109320, Note_on_c, 0, 60, 0
11, 109320, Note_on_c, 0, 64, 0
11, 109320, Note_on_c, 0, 65, 0
11, 109320, Note_on_c, 0, 65, 82
11, 109320, Note_on_c, 0, 64, 82
11, 109320, Note_on_c, 0, 60, 82
11, 109440, Note_on_c, 0, 60, 0
11, 109440, Note_on_c, 0, 64, 0
11, 109440, Note_on_c, 0, 65, 0
11, 109440, Note_on_c, 0, 56, 82
11, 109440, Note_on_c, 0, 60, 82
11, 109440, Note_on_c, 0, 65, 82
11, 109740, Note_on_c, 0, 65, 0
11, 109740, Note_on_c, 0, 60, 0
11, 109740, Note_on_c, 0, 56, 0
11, 109740, Note_on_c, 0, 55, 82
11, 109740, Note_on_c, 0, 60, 82
11, 109740, Note_on_c, 0, 63, 82
11, 110100, Note_on_c, 0, 63, 0
11, 110100, Note_on_c, 0, 60, 0
11, 110100, Note_on_c, 0, 55, 0
11, 110100, Note_on_c, 0, 65, 82
11, 110100, Note_on_c, 0, 61, 82
11, 110100, Note_on_c, 0, 56, 82
11, 110220, Note_on_c, 0, 56, 0
11, 110220, Note_on_c, 0, 61, 0
11, 110220, Note_on_c, 0, 65, 0
11, 110220, Note_on_c, 0, 61, 82
11, 110220, Note_on_c, 0, 56, 82
11, 110220, Note_on_c, 0, 65, 82
11, 110280, Note_on_c, 0, 65, 0
11, 110280, Note_on_c, 0, 56, 0
11, 110280, Note_on_c, 0, 61, 0
11, 110340, Note_on_c, 0, 60, 82
11, 110340, Note_on_c, 0, 63, 82
11, 110340, Note_on_c, 0, 67, 82
11, 110880, Note_on_c, 0, 67, 0
11, 110880, Note_on_c, 0, 63, 0
11, 110880, Note_on_c, 0, 60, 0
11, 110880, Note_on_c, 0, 56, 82
11, 110880, Note_on_c, 0, 60, 82
11, 110880, Note_on_c, 0, 65, 82
11, 111180, Note_on_c, 0, 65, 0
11, 111180, Note_on_c, 0, 60, 0
11, 111180, Note_on_c, 0, 56, 0
11, 111180, Note_on_c, 0, 56, 82
11, 111180, Note_on_c, 0, 60, 82
11, 111180, Note_on_c, 0, 65, 82
11, 111540, Note_on_c, 0, 65, 0
11, 111540, Note_on_c, 0, 60, 0
11, 111540, Note_on_c, 0, 56, 0
11, 111540, Note_on_c, 0, 60, 82
11, 111540, Note_on_c, 0, 63, 82
11, 111540, Note_on_c, 0, 67, 82
11, 111960, Note_on_c, 0, 67, 0
11, 111960, Note_on_c, 0, 63, 0
11, 111960, Note_on_c, 0, 60, 0
11, 111960, Note_on_c, 0, 60, 82
11, 111960, Note_on_c, 0, 63, 82
11, 111960, Note_on_c, 0, 67, 82
11, 112140, Note_on_c, 0, 67, 0
11, 112140, Note_on_c, 0, 63, 0
11, 112140, Note_on_c, 0, 60, 0
11, 112140, Note_on_c, 0, 63, 82
11, 112140, Note_on_c, 0, 60, 82
11, 112140, Note_on_c, 0, 67, 82
11, 112320, Note_on_c, 0, 67, 0
11, 112320, Note_on_c, 0, 60, 0
11, 112320, Note_on_c, 0, 63, 0
11, 112320, Note_on_c, 0, 58, 82
11, 112320, Note_on_c, 0, 61, 82
11, 112320, Note_on_c, 0, 65, 82
11, 112440, Note_on_c, 0, 65, 0
11, 112440, Note_on_c, 0, 61, 0
11, 112440, Note_on_c, 0, 58, 0
11, 112440, Note_on_c, 0, 58, 82
11, 112440, Note_on_c, 0, 61, 82
11, 112440, Note_on_c, 0, 65, 82
11, 112500, Note_on_c, 0, 65, 0
11, 112500, Note_on_c, 0, 61, 0
11, 112500, Note_on_c, 0, 58, 0
11, 112560, Note_on_c, 0, 58, 82
11, 112560, Note_on_c, 0, 61, 82
11, 112560, Note_on_c, 0, 65, 82
11, 112680, Note_on_c, 0, 65, 0
11, 112680, Note_on_c, 0, 61, 0
11, 112680, Note_on_c, 0, 58, 0
11, 112680, Note_on_c, 0, 58, 82
11, 112680, Note_on_c, 0, 67, 82
11, 112680, Note_on_c, 0, 63, 82
11, 112860, Note_on_c, 0, 63, 0
11, 112860, Note_on_c, 0, 67, 0
11, 112860, Note_on_c, 0, 58, 0
11, 112860, Note_on_c, 0, 58, 82
11, 112860, Note_on_c, 0, 67, 82
11, 112860, Note_on_c, 0, 63, 82
11, 112980, Note_on_c, 0, 63, 0
11, 112980, Note_on_c, 0, 67, 0
11, 112980, Note_on_c, 0, 58, 0
11, 112980, Note_on_c, 0, 60, 82
11, 112980, Note_on_c, 0, 63, 82
11, 112980, Note_on_c, 0, 67, 82
11, 113100, Note_on_c, 0, 67, 0
11, 113100, Note_on_c, 0, 63, 0
11, 113100, Note_on_c, 0, 60, 0
11, 113100, Note_on_c, 0, 60, 82
11, 113100, Note_on_c, 0, 63, 82
11, 113100, Note_on_c, 0, 67, 82
11, 113160, Note_on_c, 0, 67, 0
11, 113160, Note_on_c, 0, 63, 0
11, 113160, Note_on_c, 0, 60, 0
11, 113220, Note_on_c, 0, 56, 82
11, 113220, Note_on_c, 0, 60, 82
11, 113220, Note_on_c, 0, 65, 82
11, 113520, Note_on_c, 0, 65, 0
11, 113520, Note_on_c, 0, 60, 0
11, 113520, Note_on_c, 0, 56, 0
11, 113520, Note_on_c, 0, 56, 82
11, 113520, Note_on_c, 0, 60, 82
11, 113520, Note_on_c, 0, 65, 82
11, 113580, Note_on_c, 0, 65, 0
11, 113580, Note_on_c, 0, 60, 0
11, 113580, Note_on_c, 0, 56, 0
11, 113580, Note_on_c, 0, 56, 82
11, 113580, Note_on_c, 0, 60, 82
11, 113580, Note_on_c, 0, 65, 82
11, 113640, Note_on_c, 0, 65, 0
11, 113640, Note_on_c, 0, 60, 0
11, 113640, Note_on_c, 0, 56, 0
11, 113640, Note_on_c, 0, 56, 82
11, 113640, Note_on_c, 0, 60, 82
11, 113640, Note_on_c, 0, 65, 82
11, 113700, Note_on_c, 0, 65, 0
11, 113700, Note_on_c, 0, 60, 0
11, 113700, Note_on_c, 0, 56, 0
11, 113700, Note_on_c, 0, 56, 82
11, 113700, Note_on_c, 0, 60, 82
11, 113700, Note_on_c, 0, 65, 82
11, 113760, Note_on_c, 0, 65, 0
11, 113760, Note_on_c, 0, 60, 0
11, 113760, Note_on_c, 0, 56, 0
11, 113760, Note_on_c, 0, 56, 82
11, 113760, Note_on_c, 0, 61, 82
11, 113760, Note_on_c, 0, 65, 82
11, 114000, Note_on_c, 0, 65, 0
11, 114000, Note_on_c, 0, 61, 0
11, 114000, Note_on_c, 0, 56, 0
11, 114000, Note_on_c, 0, 56, 82
11, 114000, Note_on_c, 0, 61, 82
11, 114000, Note_on_c, 0, 65, 82
11, 114060, Note_on_c, 0, 65, 0
11, 114060, Note_on_c, 0, 61, 0
11, 114060, Note_on_c, 0, 56, 0
11, 114060, Note_on_c, 0, 56, 82
11, 114060, Note_on_c, 0, 61, 82
11, 114060, Note_on_c, 0, 65, 82
11, 114120, Note_on_c, 0, 65, 0
11, 114120, Note_on_c, 0, 61, 0
11, 114120, Note_on_c, 0, 56, 0
11, 114120, Note_on_c, 0, 58, 82
11, 114120, Note_on_c, 0, 63, 82
11, 114120, Note_on_c, 0, 67, 82
11, 114480, Note_on_c, 0, 67, 0
11, 114480, Note_on_c, 0, 63, 0
11, 114480, Note_on_c, 0, 58, 0
11, 114480, Note_on_c, 0, 56, 82
11, 114480, Note_on_c, 0, 60, 82
11, 114480, Note_on_c, 0, 65, 82
11, 114600, Note_on_c, 0, 65, 0
11, 114600, Note_on_c, 0, 60, 0
11, 114600, Note_on_c, 0, 56, 0
11, 114600, Note_on_c, 0, 56, 82
11, 114600, Note_on_c, 0, 60, 82
11, 114600, Note_on_c, 0, 65, 82
11, 114720, Note_on_c, 0, 65, 0
11, 114720, Note_on_c, 0, 60, 0
11, 114720, Note_on_c, 0, 56, 0
11, 114720, Note_on_c, 0, 56, 82
11, 114720, Note_on_c, 0, 60, 82
11, 114720, Note_on_c, 0, 65, 82
11, 114840, Note_on_c, 0, 65, 0
11, 114840, Note_on_c, 0, 60, 0
11, 114840, Note_on_c, 0, 56, 0
11, 114840, Note_on_c, 0, 56, 82
11, 114840, Note_on_c, 0, 61, 82
11, 114840, Note_on_c, 0, 65, 82
11, 114960, Note_on_c, 0, 65, 0
11, 114960, Note_on_c, 0, 61, 0
11, 114960, Note_on_c, 0, 56, 0
11, 114960, Note_on_c, 0, 56, 82
11, 114960, Note_on_c, 0, 61, 82
11, 114960, Note_on_c, 0, 65, 82
11, 115080, Note_on_c, 0, 65, 0
11, 115080, Note_on_c, 0, 61, 0
11, 115080, Note_on_c, 0, 56, 0
11, 115080, Note_on_c, 0, 56, 82
11, 115080, Note_on_c, 0, 61, 82
11, 115080, Note_on_c, 0, 65, 82
11, 115200, Note_on_c, 0, 65, 0
11, 115200, Note_on_c, 0, 61, 0
11, 115200, Note_on_c, 0, 56, 0
11, 115200, Control_c, 0, 11, 127
11, 115200, Note_on_c, 0, 56, 82
11, 115200, Note_on_c, 0, 60, 82
11, 115200, Note_on_c, 0, 65, 82
11, 115245, Control_c, 0, 11, 126
11, 115290, Control_c, 0, 11, 125
11, 115336, Control_c, 0, 11, 124
11, 115381, Control_c, 0, 11, 123
11, 115426, Control_c, 0, 11, 122
11, 115472, Control_c, 0, 11, 121
11, 115500, Note_on_c, 0, 65, 0
11, 115500, Note_on_c, 0, 60, 0
11, 115500, Note_on_c, 0, 56, 0
11, 115500, Note_on_c, 0, 55, 82
11, 115500, Note_on_c, 0, 60, 82
11, 115500, Note_on_c, 0, 63, 82
11, 115517, Control_c, 0, 11, 120
11, 115562, Control_c, 0, 11, 119
11, 115608, Control_c, 0, 11, 118
11, 115653, Control_c, 0, 11, 117
11, 115698, Control_c, 0, 11, 116
11, 115744, Control_c, 0, 11, 115
11, 115789, Control_c, 0, 11, 114
11, 115834, Control_c, 0, 11, 113
11, 115860, Note_on_c, 0, 63, 0
11, 115860, Note_on_c, 0, 60, 0
11, 115860, Note_on_c, 0, 55, 0
11, 115860, Note_on_c, 0, 65, 82
11, 115860, Note_on_c, 0, 61, 82
11, 115860, Note_on_c, 0, 56, 82
11, 115880, Control_c, 0, 11, 112
11, 115925, Control_c, 0, 11, 111
11, 115970, Control_c, 0, 11, 110
11, 115980, Note_on_c, 0, 56, 0
11, 115980, Note_on_c, 0, 61, 0
11, 115980, Note_on_c, 0, 65, 0
11, 115980, Note_on_c, 0, 61, 82
11, 115980, Note_on_c, 0, 56, 82
11, 115980, Note_on_c, 0, 65, 82
11, 116016, Control_c, 0, 11, 109
11, 116040, Note_on_c, 0, 65, 0
11, 116040, Note_on_c, 0, 56, 0
11, 116040, Note_on_c, 0, 61, 0
11, 116061, Control_c, 0, 11, 108
11, 116100, Note_on_c, 0, 60, 82
11, 116100, Note_on_c, 0, 63, 82
11, 116100, Note_on_c, 0, 67, 82
11, 116106, Control_c, 0, 11, 107
11, 116152, Control_c, 0, 11, 106
11, 116197, Control_c, 0, 11, 105
11, 116242, Control_c, 0, 11, 104
11, 116288, Control_c, 0, 11, 103
11, 116333, Control_c, 0, 11, 102
11, 116379, Control_c, 0, 11, 101
11, 116424, Control_c, 0, 11, 100
11, 116469, Control_c, 0, 11, 99
11, 116515, Control_c, 0, 11, 98
11, 116560, Control_c, 0, 11, 97
11, 116605, Control_c, 0, 11, 96
11, 116640, Note_on_c, 0, 67, 0
11, 116640, Note_on_c, 0, 63, 0
11, 116640, Note_on_c, 0, 60, 0
11, 116640, Note_on_c, 0, 56, 82
11, 116640, Note_on_c, 0, 60, 82
11, 116640, Note_on_c, 0, 65, 82
11, 116651, Control_c, 0, 11, 95
11, 116696, Control_c, 0, 11, 94
11, 116741, Control_c, 0, 11, 93
11, 116787, Control_c, 0, 11, 92
11, 116832, Control_c, 0, 11, 91
11, 116877, Control_c, 0, 11, 90
11, 116923, Control_c, 0, 11, 89
11, 116940, Note_on_c, 0, 65, 0
11, 116940, Note_on_c, 0, 60, 0
11, 116940, Note_on_c, 0, 56, 0
11, 116940, Note_on_c, 0, 56, 82
11, 116940, Note_on_c, 0, 60, 82
11, 116940, Note_on_c, 0, 65, 82
11, 116968, Control_c, 0, 11, 88
11, 117013, Control_c, 0, 11, 87
11, 117059, Control_c, 0, 11, 86
11, 117104, Control_c, 0, 11, 85
11, 117149, Control_c, 0, 11, 84
11, 117195, Control_c, 0, 11, 83
11, 117240, Control_c, 0, 11, 82
11, 117285, Control_c, 0, 11, 81
11, 117300, Note_on_c, 0, 65, 0
11, 117300, Note_on_c, 0, 60, 0
11, 117300, Note_on_c, 0, 56, 0
11, 117300, Note_on_c, 0, 60, 82
11, 117300, Note_on_c, 0, 63, 82
11, 117300, Note_on_c, 0, 67, 82
11, 117331, Control_c, 0, 11, 80
11, 117376, Control_c, 0, 11, 79
11, 117421, Control_c, 0, 11, 78
11, 117467, Control_c, 0, 11, 77
11, 117512, Control_c, 0, 11, 76
11, 117558, Control_c, 0, 11, 75
11, 117603, Control_c, 0, 11, 74
11, 117648, Control_c, 0, 11, 73
11, 117694, Control_c, 0, 11, 72
11, 117720, Note_on_c, 0, 67, 0
11, 117720, Note_on_c, 0, 63, 0
11, 117720, Note_on_c, 0, 60, 0
11, 117720, Note_on_c, 0, 60, 82
11, 117720, Note_on_c, 0, 63, 82
11, 117720, Note_on_c, 0, 67, 82
11, 117739, Control_c, 0, 11, 71
11, 117784, Control_c, 0, 11, 70
11, 117830, Control_c, 0, 11, 69
11, 117875, Control_c, 0, 11, 68
11, 117900, Note_on_c, 0, 67, 0
11, 117900, Note_on_c, 0, 63, 0
11, 117900, Note_on_c, 0, 60, 0
11, 117900, Note_on_c, 0, 63, 82
11, 117900, Note_on_c, 0, 60, 82
11, 117900, Note_on_c, 0, 67, 82
11, 117920, Control_c, 0, 11, 67
11, 117966, Control_c, 0, 11, 66
11, 118011, Control_c, 0, 11, 65
11, 118056, Control_c, 0, 11, 64
11, 118080, Note_on_c, 0, 67, 0
11, 118080, Note_on_c, 0, 60, 0
11, 118080, Note_on_c, 0, 63, 0
11, 118080, Note_on_c, 0, 58, 82
11, 118080, Note_on_c, 0, 61, 82
11, 118080, Note_on_c, 0, 65, 82
11, 118102, Control_c, 0, 11, 63
11, 118147, Control_c, 0, 11, 62
11, 118192, Control_c, 0, 11, 61
11, 118200, Note_on_c, 0, 65, 0
11, 118200, Note_on_c, 0, 61, 0
11, 118200, Note_on_c, 0, 58, 0
11, 118200, Note_on_c, 0, 58, 82
11, 118200, Note_on_c, 0, 61, 82
11, 118200, Note_on_c, 0, 65, 82
11, 118238, Control_c, 0, 11, 60
11, 118260, Note_on_c, 0, 65, 0
11, 118260, Note_on_c, 0, 61, 0
11, 118260, Note_on_c, 0, 58, 0
11, 118283, Control_c, 0, 11, 59
11, 118320, Note_on_c, 0, 58, 82
11, 118320, Note_on_c, 0, 61, 82
11, 118320, Note_on_c, 0, 65, 82
11, 118328, Control_c, 0, 11, 58
11, 118374, Control_c, 0, 11, 57
11, 118419, Control_c, 0, 11, 56
11, 118440, Note_on_c, 0, 65, 0
11, 118440, Note_on_c, 0, 61, 0
11, 118440, Note_on_c, 0, 58, 0
11, 118440, Note_on_c, 0, 58, 82
11, 118440, Note_on_c, 0, 67, 82
11, 118440, Note_on_c, 0, 63, 82
11, 118464, Control_c, 0, 11, 55
11, 118510, Control_c, 0, 11, 54
11, 118555, Control_c, 0, 11, 53
11, 118600, Control_c, 0, 11, 52
11, 118620, Note_on_c, 0, 63, 0
11, 118620, Note_on_c, 0, 67, 0
11, 118620, Note_on_c, 0, 58, 0
11, 118620, Note_on_c, 0, 58, 82
11, 118620, Note_on_c, 0, 67, 82
11, 118620, Note_on_c, 0, 63, 82
11, 118646, Control_c, 0, 11, 51
11, 118691, Control_c, 0, 11, 50
11, 118737, Control_c, 0, 11, 49
11, 118740, Note_on_c, 0, 63, 0
11, 118740, Note_on_c, 0, 67, 0
11, 118740, Note_on_c, 0, 58, 0
11, 118740, Note_on_c, 0, 60, 82
11, 118740, Note_on_c, 0, 63, 82
11, 118740, Note_on_c, 0, 67, 82
11, 118782, Control_c, 0, 11, 48
11, 118827, Control_c, 0, 11, 47
11, 118860, Note_on_c, 0, 67, 0
11, 118860, Note_on_c, 0, 63, 0
11, 118860, Note_on_c, 0, 60, 0
11, 118860, Note_on_c, 0, 60, 82
11, 118860, Note_on_c, 0, 63, 82
11, 118860, Note_on_c, 0, 67, 82
11, 118873, Control_c, 0, 11, 46
11, 118918, Control_c, 0, 11, 45
11, 118920, Note_on_c, 0, 67, 0
11, 118920, Note_on_c, 0, 63, 0
11, 118920, Note_on_c, 0, 60, 0
11, 118963, Control_c, 0, 11, 44
11, 118980, Note_on_c, 0, 56, 82
11, 118980, Note_on_c, 0, 60, 82
11, 118980, Note_on_c, 0, 65, 82
11, 119009, Control_c, 0, 11, 43
11, 119054, Control_c, 0, 11, 42
11, 119099, Control_c, 0, 11, 41
11, 119145, Control_c, 0, 11, 40
11, 119190, Control_c, 0, 11, 39
11, 119235, Control_c, 0, 11, 38
11, 119280, Note_on_c, 0, 65, 0
11, 119280, Note_on_c, 0, 60, 0
11, 119280, Note_on_c, 0, 56, 0
11, 119280, Note_on_c, 0, 56, 82
11, 119280, Note_on_c, 0, 60, 82
11, 119280, Note_on_c, 0, 65, 82
11, 119281, Control_c, 0, 11, 37
11, 119326, Control_c, 0, 11, 36
11, 119340, Note_on_c, 0, 65, 0
11, 119340, Note_on_c, 0, 60, 0
11, 119340, Note_on_c, 0, 56, 0
11, 119340, Note_on_c, 0, 56, 82
11, 119340, Note_on_c, 0, 60, 82
11, 119340, Note_on_c, 0, 65, 82
11, 119371, Control_c, 0, 11, 35
11, 119400, Note_on_c, 0, 65, 0
11, 119400, Note_on_c, 0, 60, 0
11, 119400, Note_on_c, 0, 56, 0
11, 119400, Note_on_c, 0, 56, 82
11, 119400, Note_on_c, 0, 60, 82
11, 119400, Note_on_c, 0, 65, 82
11, 119417, Control_c, 0, 11, 34
11, 119460, Note_on_c, 0, 65, 0
11, 119460, Note_on_c, 0, 60, 0
11, 119460, Note_on_c, 0, 56, 0
11, 119460, Note_on_c, 0, 56, 82
11, 119460, Note_on_c, 0, 60, 82
11, 119460, Note_on_c, 0, 65, 82
11, 119462, Control_c, 0, 11, 33
11, 119507, Control_c, 0, 11, 32
11, 119520, Note_on_c, 0, 65, 0
11, 119520, Note_on_c, 0, 60, 0
11, 119520, Note_on_c, 0, 56, 0
11, 119520, Note_on_c, 0, 56, 82
11, 119520, Note_on_c, 0, 61, 82
11, 119520, Note_on_c, 0, 65, 82
11, 119553, Control_c, 0, 11, 31
11, 119598, Control_c, 0, 11, 30
11, 119643, Control_c, 0, 11, 29
11, 119689, Control_c, 0, 11, 28
11, 119734, Control_c, 0, 11, 27
11, 119760, Note_on_c, 0, 65, 0
11, 119760, Note_on_c, 0, 61, 0
11, 119760, Note_on_c, 0, 56, 0
11, 119760, Note_on_c, 0, 56, 82
11, 119760, Note_on_c, 0, 61, 82
11, 119760, Note_on_c, 0, 65, 82
11, 119779, Control_c, 0, 11, 26
11, 119820, Note_on_c, 0, 65, 0
11, 119820, Note_on_c, 0, 61, 0
11, 119820, Note_on_c, 0, 56, 0
11, 119820, Note_on_c, 0, 56, 82
11, 119820, Note_on_c, 0, 61, 82
11, 119820, Note_on_c, 0, 65, 82
11, 119825, Control_c, 0, 11, 25
11, 119870, Control_c, 0, 11, 24
11, 119880, Note_on_c, 0, 65, 0
11, 119880, Note_on_c, 0, 61, 0
11, 119880, Note_on_c, 0, 56, 0
11, 119880, Note_on_c, 0, 58, 82
11, 119880, Note_on_c, 0, 63, 82
11, 119880, Note_on_c, 0, 67, 82
11, 119916, Control_c, 0, 11, 23
11, 119961, Control_c, 0, 11, 22
11, 120006, Control_c, 0, 11, 21
11, 120052, Control_c, 0, 11, 20
11, 120097, Control_c, 0, 11, 19
11, 120142, Control_c, 0, 11, 18
11, 120188, Control_c, 0, 11, 17
11, 120233, Control_c, 0, 11, 16
11, 120240, Note_on_c, 0, 67, 0
11, 120240, Note_on_c, 0, 63, 0
11, 120240, Note_on_c, 0, 58, 0
11, 120240, Note_on_c, 0, 56, 82
11, 120240, Note_on_c, 0, 64, 82
11, 120240, Note_on_c, 0, 61, 82
11, 120278, Control_c, 0, 11, 15
11, 120324, Control_c, 0, 11, 14
11, 120360, Note_on_c, 0, 61, 0
11, 120360, Note_on_c, 0, 64, 0
11, 120360, Note_on_c, 0, 56, 0
11, 120360, Note_on_c, 0, 56, 82
11, 120360, Note_on_c, 0, 64, 82
11, 120360, Note_on_c, 0, 61, 82
11, 120369, Control_c, 0, 11, 13
11, 120414, Control_c, 0, 11, 12
11, 120460, Control_c, 0, 11, 11
11, 120480, Note_on_c, 0, 61, 0
11, 120480, Note_on_c, 0, 64, 0
11, 120480, Note_on_c, 0, 56, 0
11, 120480, Note_on_c, 0, 56, 82
11, 120480, Note_on_c, 0, 64, 82
11, 120480, Note_on_c, 0, 61, 82
11, 120505, Control_c, 0, 11, 10
11, 120550, Control_c, 0, 11, 9
11, 120596, Control_c, 0, 11, 8
11, 120600, Note_on_c, 0, 61, 0
11, 120600, Note_on_c, 0, 64, 0
11, 120600, Note_on_c, 0, 56, 0
11, 120600, Note_on_c, 0, 65, 82
11, 120600, Note_on_c, 0, 64, 82
11, 120600, Note_on_c, 0, 60, 82
11, 120641, Control_c, 0, 11, 7
11, 120686, Control_c, 0, 11, 6
11, 120720, Note_on_c, 0, 60, 0
11, 120720, Note_on_c, 0, 64, 0
11, 120720, Note_on_c, 0, 65, 0
11, 120720, Note_on_c, 0, 65, 82
11, 120720, Note_on_c, 0, 64, 82
11, 120720, Note_on_c, 0, 60, 82
11, 120732, Control_c, 0, 11, 5
11, 120777, Control_c, 0, 11, 4
11, 120822, Control_c, 0, 11, 3
11, 120840, Note_on_c, 0, 60, 0
11, 120840, Note_on_c, 0, 64, 0
11, 120840, Note_on_c, 0, 65, 0
11, 120840, Note_on_c, 0, 65, 82
11, 120840, Note_on_c, 0, 64, 82
11, 120840, Note_on_c, 0, 60, 82
11, 120868, Control_c, 0, 11, 2
11, 120913, Control_c, 0, 11, 1
11, 120959, Control_c, 0, 11, 0
11, 120960, Note_on_c, 0, 60, 0
11, 120960, Note_on_c, 0, 64, 0
11, 120960, Note_on_c, 0, 65, 0
11, 121396, Control_c, 0, 121, 0
11, 121396, End_track
12, 0, Start_track
12, 0, MIDI_port, 0
12, 0, Title_t, "Bass"
12, 30, Control_c, 1, 121, 0
12, 31, Control_c, 1, 0, 0
12, 31, Control_c, 1, 32, 0
12, 31, Program_c, 1, 33
12, 32, Control_c, 1, 7, 115
12, 33, Control_c, 1, 10, 68
12, 35, Control_c, 1, 91, 24
12, 36, Control_c, 1, 93, 24
12, 37, Control_c, 1, 99, 1
12, 38, Control_c, 1, 98, 32
12, 39, Control_c, 1, 6, 58
12, 41, Control_c, 1, 99, 1
12, 42, Control_c, 1, 98, 33
12, 43, Control_c, 1, 6, 50
12, 44, Control_c, 1, 101, 127
12, 45, Control_c, 1, 100, 127
12, 1440, Note_on_c, 1, 29, 84
12, 1553, Note_on_c, 1, 29, 0
12, 1560, Note_on_c, 1, 29, 92
12, 1613, Note_on_c, 1, 29, 0
12, 1680, Note_on_c, 1, 24, 90
12, 1733, Note_on_c, 1, 24, 0
12, 1740, Note_on_c, 1, 26, 90
12, 1793, Note_on_c, 1, 26, 0
12, 1800, Note_on_c, 1, 29, 84
12, 1913, Note_on_c, 1, 29, 0
12, 1920, Note_on_c, 1, 29, 92
12, 1973, Note_on_c, 1, 29, 0
12, 2040, Note_on_c, 1, 24, 90
12, 2093, Note_on_c, 1, 24, 0
12, 2100, Note_on_c, 1, 26, 90
12, 2153, Note_on_c, 1, 26, 0
12, 2160, Note_on_c, 1, 29, 84
12, 2273, Note_on_c, 1, 29, 0
12, 2280, Note_on_c, 1, 29, 92
12, 2333, Note_on_c, 1, 29, 0
12, 2400, Note_on_c, 1, 24, 90
12, 2453, Note_on_c, 1, 24, 0
12, 2460, Note_on_c, 1, 26, 90
12, 2513, Note_on_c, 1, 26, 0
12, 2520, Note_on_c, 1, 29, 84
12, 2633, Note_on_c, 1, 29, 0
12, 2640, Note_on_c, 1, 29, 92
12, 2693, Note_on_c, 1, 29, 0
12, 2760, Note_on_c, 1, 31, 90
12, 2813, Note_on_c, 1, 31, 0
12, 2820, Note_on_c, 1, 33, 90
12, 2873, Note_on_c, 1, 33, 0
12, 2880, Note_on_c, 1, 29, 84
12, 2993, Note_on_c, 1, 29, 0
12, 3000, Note_on_c, 1, 29, 92
12, 3053, Note_on_c, 1, 29, 0
12, 3120, Note_on_c, 1, 24, 90
12, 3173, Note_on_c, 1, 24, 0
12, 3180, Note_on_c, 1, 26, 90
12, 3233, Note_on_c, 1, 26, 0
12, 3240, Note_on_c, 1, 29, 84
12, 3353, Note_on_c, 1, 29, 0
12, 3360, Note_on_c, 1, 29, 92
12, 3413, Note_on_c, 1, 29, 0
12, 3480, Note_on_c, 1, 24, 90
12, 3533, Note_on_c, 1, 24, 0
12, 3540, Note_on_c, 1, 26, 90
12, 3593, Note_on_c, 1, 26, 0
12, 3600, Note_on_c, 1, 29, 84
12, 3713, Note_on_c, 1, 29, 0
12, 3720, Note_on_c, 1, 29, 92
12, 3773, Note_on_c, 1, 29, 0
12, 3840, Note_on_c, 1, 24, 90
12, 3893, Note_on_c, 1, 24, 0
12, 3900, Note_on_c, 1, 26, 90
12, 3953, Note_on_c, 1, 26, 0
12, 3960, Note_on_c, 1, 29, 84
12, 4073, Note_on_c, 1, 29, 0
12, 4080, Note_on_c, 1, 29, 92
12, 4133, Note_on_c, 1, 29, 0
12, 4200, Note_on_c, 1, 31, 90
12, 4253, Note_on_c, 1, 31, 0
12, 4260, Note_on_c, 1, 33, 90
12, 4313, Note_on_c, 1, 33, 0
12, 4320, Note_on_c, 1, 29, 84
12, 4433, Note_on_c, 1, 29, 0
12, 4440, Note_on_c, 1, 29, 92
12, 4493, Note_on_c, 1, 29, 0
12, 4560, Note_on_c, 1, 24, 90
12, 4613, Note_on_c, 1, 24, 0
12, 4620, Note_on_c, 1, 26, 90
12, 4673, Note_on_c, 1, 26, 0
12, 4680, Note_on_c, 1, 29, 84
12, 4793, Note_on_c, 1, 29, 0
12, 4800, Note_on_c, 1, 29, 92
12, 4853, Note_on_c, 1, 29, 0
12, 4920, Note_on_c, 1, 24, 90
12, 4973, Note_on_c, 1, 24, 0
12, 4980, Note_on_c, 1, 26, 90
12, 5033, Note_on_c, 1, 26, 0
12, 5040, Note_on_c, 1, 29, 84
12, 5153, Note_on_c, 1, 29, 0
12, 5160, Note_on_c, 1, 29, 92
12, 5213, Note_on_c, 1, 29, 0
12, 5280, Note_on_c, 1, 24, 90
12, 5333, Note_on_c, 1, 24, 0
12, 5340, Note_on_c, 1, 26, 90
12, 5393, Note_on_c, 1, 26, 0
12, 5400, Note_on_c, 1, 29, 84
12, 5513, Note_on_c, 1, 29, 0
12, 5520, Note_on_c, 1, 29, 92
12, 5573, Note_on_c, 1, 29, 0
12, 5640, Note_on_c, 1, 31, 90
12, 5693, Note_on_c, 1, 31, 0
12, 5700, Note_on_c, 1, 33, 90
12, 5753, Note_on_c, 1, 33, 0
12, 5760, Note_on_c, 1, 29, 84
12, 5873, Note_on_c, 1, 29, 0
12, 5880, Note_on_c, 1, 29, 92
12, 5933, Note_on_c, 1, 29, 0
12, 6000, Note_on_c, 1, 24, 90
12, 6053, Note_on_c, 1, 24, 0
12, 6060, Note_on_c, 1, 26, 90
12, 6113, Note_on_c, 1, 26, 0
12, 6120, Note_on_c, 1, 29, 84
12, 6233, Note_on_c, 1, 29, 0
12, 6240, Note_on_c, 1, 29, 92
12, 6293, Note_on_c, 1, 29, 0
12, 6360, Note_on_c, 1, 24, 90
12, 6413, Note_on_c, 1, 24, 0
12, 6420, Note_on_c, 1, 26, 90
12, 6473, Note_on_c, 1, 26, 0
12, 6480, Note_on_c, 1, 29, 84
12, 6593, Note_on_c, 1, 29, 0
12, 6600, Note_on_c, 1, 29, 92
12, 6653, Note_on_c, 1, 29, 0
12, 6720, Note_on_c, 1, 24, 90
12, 6773, Note_on_c, 1, 24, 0
12, 6780, Note_on_c, 1, 26, 90
12, 6833, Note_on_c, 1, 26, 0
12, 6840, Note_on_c, 1, 29, 84
12, 6953, Note_on_c, 1, 29, 0
12, 6960, Note_on_c, 1, 29, 92
12, 7013, Note_on_c, 1, 29, 0
12, 7080, Note_on_c, 1, 31, 90
12, 7133, Note_on_c, 1, 31, 0
12, 7140, Note_on_c, 1, 33, 90
12, 7193, Note_on_c, 1, 33, 0
12, 7200, Note_on_c, 1, 29, 84
12, 7313, Note_on_c, 1, 29, 0
12, 7320, Note_on_c, 1, 29, 92
12, 7373, Note_on_c, 1, 29, 0
12, 7440, Note_on_c, 1, 24, 90
12, 7493, Note_on_c, 1, 24, 0
12, 7500, Note_on_c, 1, 26, 90
12, 7553, Note_on_c, 1, 26, 0
12, 7560, Note_on_c, 1, 29, 84
12, 7673, Note_on_c, 1, 29, 0
12, 7680, Note_on_c, 1, 29, 92
12, 7733, Note_on_c, 1, 29, 0
12, 7920, Note_on_c, 1, 29, 84
12, 8033, Note_on_c, 1, 29, 0
12, 8040, Note_on_c, 1, 29, 92
12, 8093, Note_on_c, 1, 29, 0
12, 8160, Note_on_c, 1, 24, 90
12, 8213, Note_on_c, 1, 24, 0
12, 8220, Note_on_c, 1, 26, 90
12, 8273, Note_on_c, 1, 26, 0
12, 8280, Note_on_c, 1, 29, 84
12, 8393, Note_on_c, 1, 29, 0
12, 8400, Note_on_c, 1, 29, 92
12, 8453, Note_on_c, 1, 29, 0
12, 8520, Note_on_c, 1, 31, 90
12, 8573, Note_on_c, 1, 31, 0
12, 8580, Note_on_c, 1, 33, 90
12, 8633, Note_on_c, 1, 33, 0
12, 8640, Note_on_c, 1, 29, 84
12, 8753, Note_on_c, 1, 29, 0
12, 8760, Note_on_c, 1, 29, 92
12, 8813, Note_on_c, 1, 29, 0
12, 8880, Note_on_c, 1, 24, 90
12, 8933, Note_on_c, 1, 24, 0
12, 8940, Note_on_c, 1, 26, 90
12, 8993, Note_on_c, 1, 26, 0
12, 9000, Note_on_c, 1, 29, 84
12, 9113, Note_on_c, 1, 29, 0
12, 9120, Note_on_c, 1, 29, 92
12, 9173, Note_on_c, 1, 29, 0
12, 9360, Note_on_c, 1, 29, 84
12, 9473, Note_on_c, 1, 29, 0
12, 9480, Note_on_c, 1, 29, 92
12, 9533, Note_on_c, 1, 29, 0
12, 9600, Note_on_c, 1, 31, 90
12, 9653, Note_on_c, 1, 31, 0
12, 9660, Note_on_c, 1, 33, 90
12, 9713, Note_on_c, 1, 33, 0
12, 9720, Note_on_c, 1, 34, 84
12, 9803, Note_on_c, 1, 34, 0
12, 9840, Note_on_c, 1, 34, 92
12, 9923, Note_on_c, 1, 34, 0
12, 9960, Note_on_c, 1, 36, 90
12, 10058, Note_on_c, 1, 36, 0
12, 10080, Note_on_c, 1, 29, 84
12, 10193, Note_on_c, 1, 29, 0
12, 10200, Note_on_c, 1, 29, 92
12, 10253, Note_on_c, 1, 29, 0
12, 10320, Note_on_c, 1, 24, 90
12, 10373, Note_on_c, 1, 24, 0
12, 10380, Note_on_c, 1, 26, 90
12, 10433, Note_on_c, 1, 26, 0
12, 10440, Note_on_c, 1, 29, 84
12, 10553, Note_on_c, 1, 29, 0
12, 10560, Note_on_c, 1, 29, 92
12, 10613, Note_on_c, 1, 29, 0
12, 10800, Note_on_c, 1, 29, 84
12, 10913, Note_on_c, 1, 29, 0
12, 10920, Note_on_c, 1, 29, 92
12, 10973, Note_on_c, 1, 29, 0
12, 11040, Note_on_c, 1, 24, 90
12, 11093, Note_on_c, 1, 24, 0
12, 11100, Note_on_c, 1, 26, 90
12, 11153, Note_on_c, 1, 26, 0
12, 11160, Note_on_c, 1, 29, 84
12, 11273, Note_on_c, 1, 29, 0
12, 11280, Note_on_c, 1, 29, 92
12, 11333, Note_on_c, 1, 29, 0
12, 11400, Note_on_c, 1, 27, 90
12, 11513, Note_on_c, 1, 27, 0
12, 11520, Note_on_c, 1, 37, 84
12, 11633, Note_on_c, 1, 37, 0
12, 11640, Note_on_c, 1, 37, 92
12, 11693, Note_on_c, 1, 37, 0
12, 11760, Note_on_c, 1, 32, 90
12, 11813, Note_on_c, 1, 32, 0
12, 11820, Note_on_c, 1, 34, 90
12, 11873, Note_on_c, 1, 34, 0
12, 11880, Note_on_c, 1, 37, 84
12, 11993, Note_on_c, 1, 37, 0
12, 12000, Note_on_c, 1, 37, 92
12, 12053, Note_on_c, 1, 37, 0
12, 12180, Note_on_c, 1, 32, 90
12, 12233, Note_on_c, 1, 32, 0
12, 12240, Note_on_c, 1, 25, 84
12, 12344, Note_on_c, 1, 25, 0
12, 12360, Note_on_c, 1, 25, 92
12, 12396, Note_on_c, 1, 25, 0
12, 12420, Note_on_c, 1, 32, 90
12, 12473, Note_on_c, 1, 32, 0
12, 12480, Note_on_c, 1, 34, 90
12, 12533, Note_on_c, 1, 34, 0
12, 12600, Note_on_c, 1, 37, 90
12, 12653, Note_on_c, 1, 37, 0
12, 12660, Note_on_c, 1, 37, 82
12, 12713, Note_on_c, 1, 37, 0
12, 12720, Note_on_c, 1, 25, 84
12, 12773, Note_on_c, 1, 25, 0
12, 12840, Note_on_c, 1, 25, 92
12, 12953, Note_on_c, 1, 25, 0
12, 12960, Note_on_c, 1, 34, 84
12, 13073, Note_on_c, 1, 34, 0
12, 13080, Note_on_c, 1, 34, 92
12, 13133, Note_on_c, 1, 34, 0
12, 13200, Note_on_c, 1, 29, 90
12, 13253, Note_on_c, 1, 29, 0
12, 13260, Note_on_c, 1, 32, 90
12, 13313, Note_on_c, 1, 32, 0
12, 13320, Note_on_c, 1, 34, 84
12, 13463, Note_on_c, 1, 34, 0
12, 13500, Note_on_c, 1, 32, 92
12, 13643, Note_on_c, 1, 32, 0
12, 13680, Note_on_c, 1, 30, 90
12, 13793, Note_on_c, 1, 30, 0
12, 13800, Note_on_c, 1, 30, 90
12, 13853, Note_on_c, 1, 30, 0
12, 13920, Note_on_c, 1, 30, 84
12, 13973, Note_on_c, 1, 30, 0
12, 14040, Note_on_c, 1, 30, 92
12, 14213, Note_on_c, 1, 30, 0
12, 14220, Note_on_c, 1, 32, 82
12, 14273, Note_on_c, 1, 32, 0
12, 14280, Note_on_c, 1, 29, 76
12, 14333, Note_on_c, 1, 29, 0
12, 14340, Note_on_c, 1, 32, 90
12, 14393, Note_on_c, 1, 32, 0
12, 14400, Note_on_c, 1, 34, 84
12, 14513, Note_on_c, 1, 34, 0
12, 14520, Note_on_c, 1, 34, 92
12, 14573, Note_on_c, 1, 34, 0
12, 14640, Note_on_c, 1, 29, 90
12, 14693, Note_on_c, 1, 29, 0
12, 14700, Note_on_c, 1, 32, 90
12, 14753, Note_on_c, 1, 32, 0
12, 14760, Note_on_c, 1, 34, 84
12, 14873, Note_on_c, 1, 34, 0
12, 14880, Note_on_c, 1, 34, 92
12, 14933, Note_on_c, 1, 34, 0
12, 15000, Note_on_c, 1, 29, 90
12, 15053, Note_on_c, 1, 29, 0
12, 15060, Note_on_c, 1, 32, 90
12, 15113, Note_on_c, 1, 32, 0
12, 15120, Note_on_c, 1, 34, 84
12, 15233, Note_on_c, 1, 34, 0
12, 15240, Note_on_c, 1, 34, 92
12, 15293, Note_on_c, 1, 34, 0
12, 15360, Note_on_c, 1, 29, 90
12, 15413, Note_on_c, 1, 29, 0
12, 15420, Note_on_c, 1, 34, 90
12, 15473, Note_on_c, 1, 34, 0
12, 15480, Note_on_c, 1, 36, 84
12, 15593, Note_on_c, 1, 36, 0
12, 15600, Note_on_c, 1, 36, 92
12, 15687, Note_on_c, 1, 36, 0
12, 15720, Note_on_c, 1, 36, 88
12, 15833, Note_on_c, 1, 36, 0
12, 15840, Note_on_c, 1, 37, 84
12, 15953, Note_on_c, 1, 37, 0
12, 15960, Note_on_c, 1, 37, 92
12, 16013, Note_on_c, 1, 37, 0
12, 16080, Note_on_c, 1, 32, 90
12, 16133, Note_on_c, 1, 32, 0
12, 16140, Note_on_c, 1, 34, 90
12, 16193, Note_on_c, 1, 34, 0
12, 16200, Note_on_c, 1, 37, 84
12, 16313, Note_on_c, 1, 37, 0
12, 16320, Note_on_c, 1, 37, 92
12, 16373, Note_on_c, 1, 37, 0
12, 16440, Note_on_c, 1, 32, 90
12, 16493, Note_on_c, 1, 32, 0
12, 16500, Note_on_c, 1, 34, 90
12, 16553, Note_on_c, 1, 34, 0
12, 16560, Note_on_c, 1, 37, 84
12, 16673, Note_on_c, 1, 37, 0
12, 16680, Note_on_c, 1, 37, 92
12, 16733, Note_on_c, 1, 37, 0
12, 16800, Note_on_c, 1, 32, 90
12, 16853, Note_on_c, 1, 32, 0
12, 16860, Note_on_c, 1, 34, 84
12, 16913, Note_on_c, 1, 34, 0
12, 16920, Note_on_c, 1, 25, 84
12, 17020, Note_on_c, 1, 25, 0
12, 17040, Note_on_c, 1, 25, 92
12, 17116, Note_on_c, 1, 25, 0
12, 17160, Note_on_c, 1, 25, 90
12, 17273, Note_on_c, 1, 25, 0
12, 17280, Note_on_c, 1, 29, 84
12, 17393, Note_on_c, 1, 29, 0
12, 17400, Note_on_c, 1, 29, 92
12, 17453, Note_on_c, 1, 29, 0
12, 17520, Note_on_c, 1, 24, 90
12, 17573, Note_on_c, 1, 24, 0
12, 17580, Note_on_c, 1, 26, 90
12, 17633, Note_on_c, 1, 26, 0
12, 17640, Note_on_c, 1, 29, 84
12, 17753, Note_on_c, 1, 29, 0
12, 17760, Note_on_c, 1, 29, 92
12, 17813, Note_on_c, 1, 29, 0
12, 17880, Note_on_c, 1, 24, 90
12, 17933, Note_on_c, 1, 24, 0
12, 17940, Note_on_c, 1, 26, 90
12, 17993, Note_on_c, 1, 26, 0
12, 18000, Note_on_c, 1, 29, 84
12, 18113, Note_on_c, 1, 29, 0
12, 18120, Note_on_c, 1, 29, 92
12, 18173, Note_on_c, 1, 29, 0
12, 18240, Note_on_c, 1, 24, 90
12, 18293, Note_on_c, 1, 24, 0
12, 18300, Note_on_c, 1, 26, 90
12, 18353, Note_on_c, 1, 26, 0
12, 18360, Note_on_c, 1, 29, 84
12, 18473, Note_on_c, 1, 29, 0
12, 18480, Note_on_c, 1, 29, 92
12, 18533, Note_on_c, 1, 29, 0
12, 18600, Note_on_c, 1, 31, 90
12, 18653, Note_on_c, 1, 31, 0
12, 18660, Note_on_c, 1, 33, 90
12, 18713, Note_on_c, 1, 33, 0
12, 18720, Note_on_c, 1, 29, 84
12, 18833, Note_on_c, 1, 29, 0
12, 18840, Note_on_c, 1, 29, 92
12, 18893, Note_on_c, 1, 29, 0
12, 18960, Note_on_c, 1, 24, 90
12, 19013, Note_on_c, 1, 24, 0
12, 19020, Note_on_c, 1, 26, 90
12, 19073, Note_on_c, 1, 26, 0
12, 19080, Note_on_c, 1, 29, 84
12, 19193, Note_on_c, 1, 29, 0
12, 19200, Note_on_c, 1, 29, 92
12, 19253, Note_on_c, 1, 29, 0
12, 19320, Note_on_c, 1, 24, 90
12, 19373, Note_on_c, 1, 24, 0
12, 19380, Note_on_c, 1, 26, 90
12, 19433, Note_on_c, 1, 26, 0
12, 19440, Note_on_c, 1, 29, 84
12, 19553, Note_on_c, 1, 29, 0
12, 19560, Note_on_c, 1, 29, 92
12, 19613, Note_on_c, 1, 29, 0
12, 19680, Note_on_c, 1, 24, 90
12, 19733, Note_on_c, 1, 24, 0
12, 19740, Note_on_c, 1, 26, 90
12, 19793, Note_on_c, 1, 26, 0
12, 19800, Note_on_c, 1, 29, 84
12, 19913, Note_on_c, 1, 29, 0
12, 19920, Note_on_c, 1, 29, 92
12, 19973, Note_on_c, 1, 29, 0
12, 20040, Note_on_c, 1, 31, 90
12, 20093, Note_on_c, 1, 31, 0
12, 20100, Note_on_c, 1, 33, 90
12, 20153, Note_on_c, 1, 33, 0
12, 20160, Note_on_c, 1, 29, 84
12, 20273, Note_on_c, 1, 29, 0
12, 20280, Note_on_c, 1, 29, 92
12, 20333, Note_on_c, 1, 29, 0
12, 20400, Note_on_c, 1, 24, 90
12, 20453, Note_on_c, 1, 24, 0
12, 20460, Note_on_c, 1, 26, 90
12, 20513, Note_on_c, 1, 26, 0
12, 20520, Note_on_c, 1, 29, 84
12, 20633, Note_on_c, 1, 29, 0
12, 20640, Note_on_c, 1, 29, 92
12, 20693, Note_on_c, 1, 29, 0
12, 20880, Note_on_c, 1, 29, 84
12, 20993, Note_on_c, 1, 29, 0
12, 21000, Note_on_c, 1, 29, 92
12, 21053, Note_on_c, 1, 29, 0
12, 21120, Note_on_c, 1, 24, 90
12, 21173, Note_on_c, 1, 24, 0
12, 21180, Note_on_c, 1, 26, 90
12, 21233, Note_on_c, 1, 26, 0
12, 21240, Note_on_c, 1, 29, 84
12, 21353, Note_on_c, 1, 29, 0
12, 21360, Note_on_c, 1, 29, 92
12, 21413, Note_on_c, 1, 29, 0
12, 21480, Note_on_c, 1, 31, 90
12, 21533, Note_on_c, 1, 31, 0
12, 21540, Note_on_c, 1, 33, 90
12, 21593, Note_on_c, 1, 33, 0
12, 21600, Note_on_c, 1, 29, 84
12, 21713, Note_on_c, 1, 29, 0
12, 21720, Note_on_c, 1, 29, 92
12, 21773, Note_on_c, 1, 29, 0
12, 21840, Note_on_c, 1, 24, 90
12, 21893, Note_on_c, 1, 24, 0
12, 21900, Note_on_c, 1, 26, 90
12, 21953, Note_on_c, 1, 26, 0
12, 21960, Note_on_c, 1, 29, 84
12, 22073, Note_on_c, 1, 29, 0
12, 22080, Note_on_c, 1, 29, 92
12, 22133, Note_on_c, 1, 29, 0
12, 22320, Note_on_c, 1, 29, 84
12, 22433, Note_on_c, 1, 29, 0
12, 22440, Note_on_c, 1, 29, 92
12, 22493, Note_on_c, 1, 29, 0
12, 22560, Note_on_c, 1, 31, 90
12, 22613, Note_on_c, 1, 31, 0
12, 22620, Note_on_c, 1, 33, 90
12, 22673, Note_on_c, 1, 33, 0
12, 22680, Note_on_c, 1, 34, 84
12, 22733, Note_on_c, 1, 34, 0
12, 22800, Note_on_c, 1, 34, 92
12, 22883, Note_on_c, 1, 34, 0
12, 22920, Note_on_c, 1, 36, 90
12, 23018, Note_on_c, 1, 36, 0
12, 23040, Note_on_c, 1, 29, 84
12, 23153, Note_on_c, 1, 29, 0
12, 23160, Note_on_c, 1, 29, 92
12, 23213, Note_on_c, 1, 29, 0
12, 23280, Note_on_c, 1, 24, 90
12, 23333, Note_on_c, 1, 24, 0
12, 23340, Note_on_c, 1, 26, 90
12, 23393, Note_on_c, 1, 26, 0
12, 23400, Note_on_c, 1, 29, 84
12, 23513, Note_on_c, 1, 29, 0
12, 23520, Note_on_c, 1, 29, 92
12, 23573, Note_on_c, 1, 29, 0
12, 23760, Note_on_c, 1, 29, 84
12, 23873, Note_on_c, 1, 29, 0
12, 23880, Note_on_c, 1, 29, 92
12, 23933, Note_on_c, 1, 29, 0
12, 24060, Note_on_c, 1, 27, 90
12, 24113, Note_on_c, 1, 27, 0
12, 24120, Note_on_c, 1, 29, 84
12, 24233, Note_on_c, 1, 29, 0
12, 24240, Note_on_c, 1, 29, 92
12, 24293, Note_on_c, 1, 29, 0
12, 24360, Note_on_c, 1, 27, 90
12, 24473, Note_on_c, 1, 27, 0
12, 24480, Note_on_c, 1, 37, 84
12, 24593, Note_on_c, 1, 37, 0
12, 24600, Note_on_c, 1, 37, 92
12, 24653, Note_on_c, 1, 37, 0
12, 24720, Note_on_c, 1, 32, 90
12, 24773, Note_on_c, 1, 32, 0
12, 24780, Note_on_c, 1, 34, 90
12, 24833, Note_on_c, 1, 34, 0
12, 24840, Note_on_c, 1, 37, 84
12, 24953, Note_on_c, 1, 37, 0
12, 24960, Note_on_c, 1, 37, 92
12, 25013, Note_on_c, 1, 37, 0
12, 25140, Note_on_c, 1, 32, 90
12, 25193, Note_on_c, 1, 32, 0
12, 25200, Note_on_c, 1, 25, 84
12, 25313, Note_on_c, 1, 25, 0
12, 25320, Note_on_c, 1, 25, 92
12, 25373, Note_on_c, 1, 25, 0
12, 25380, Note_on_c, 1, 32, 90
12, 25433, Note_on_c, 1, 32, 0
12, 25440, Note_on_c, 1, 34, 90
12, 25493, Note_on_c, 1, 34, 0
12, 25560, Note_on_c, 1, 37, 84
12, 25613, Note_on_c, 1, 37, 0
12, 25620, Note_on_c, 1, 37, 92
12, 25673, Note_on_c, 1, 37, 0
12, 25680, Note_on_c, 1, 25, 84
12, 25733, Note_on_c, 1, 25, 0
12, 25800, Note_on_c, 1, 25, 92
12, 25913, Note_on_c, 1, 25, 0
12, 25920, Note_on_c, 1, 34, 84
12, 26033, Note_on_c, 1, 34, 0
12, 26040, Note_on_c, 1, 34, 92
12, 26093, Note_on_c, 1, 34, 0
12, 26160, Note_on_c, 1, 29, 90
12, 26213, Note_on_c, 1, 29, 0
12, 26220, Note_on_c, 1, 32, 90
12, 26273, Note_on_c, 1, 32, 0
12, 26280, Note_on_c, 1, 34, 88
12, 26423, Note_on_c, 1, 34, 0
12, 26460, Note_on_c, 1, 32, 90
12, 26603, Note_on_c, 1, 32, 0
12, 26640, Note_on_c, 1, 30, 84
12, 26753, Note_on_c, 1, 30, 0
12, 26760, Note_on_c, 1, 30, 92
12, 26813, Note_on_c, 1, 30, 0
12, 26880, Note_on_c, 1, 30, 84
12, 26933, Note_on_c, 1, 30, 0
12, 27000, Note_on_c, 1, 30, 92
12, 27173, Note_on_c, 1, 30, 0
12, 27180, Note_on_c, 1, 32, 82
12, 27233, Note_on_c, 1, 32, 0
12, 27240, Note_on_c, 1, 29, 76
12, 27293, Note_on_c, 1, 29, 0
12, 27300, Note_on_c, 1, 32, 90
12, 27353, Note_on_c, 1, 32, 0
12, 27360, Note_on_c, 1, 34, 84
12, 27473, Note_on_c, 1, 34, 0
12, 27480, Note_on_c, 1, 34, 92
12, 27533, Note_on_c, 1, 34, 0
12, 27600, Note_on_c, 1, 29, 90
12, 27653, Note_on_c, 1, 29, 0
12, 27660, Note_on_c, 1, 32, 90
12, 27713, Note_on_c, 1, 32, 0
12, 27720, Note_on_c, 1, 34, 84
12, 27833, Note_on_c, 1, 34, 0
12, 27840, Note_on_c, 1, 34, 92
12, 27893, Note_on_c, 1, 34, 0
12, 27960, Note_on_c, 1, 29, 90
12, 28013, Note_on_c, 1, 29, 0
12, 28020, Note_on_c, 1, 32, 90
12, 28073, Note_on_c, 1, 32, 0
12, 28080, Note_on_c, 1, 34, 84
12, 28193, Note_on_c, 1, 34, 0
12, 28200, Note_on_c, 1, 34, 92
12, 28253, Note_on_c, 1, 34, 0
12, 28320, Note_on_c, 1, 29, 90
12, 28373, Note_on_c, 1, 29, 0
12, 28380, Note_on_c, 1, 34, 84
12, 28433, Note_on_c, 1, 34, 0
12, 28440, Note_on_c, 1, 36, 90
12, 28553, Note_on_c, 1, 36, 0
12, 28560, Note_on_c, 1, 36, 91
12, 28653, Note_on_c, 1, 36, 0
12, 28680, Note_on_c, 1, 36, 92
12, 28793, Note_on_c, 1, 36, 0
12, 28800, Note_on_c, 1, 37, 84
12, 28913, Note_on_c, 1, 37, 0
12, 28920, Note_on_c, 1, 37, 92
12, 28973, Note_on_c, 1, 37, 0
12, 29040, Note_on_c, 1, 32, 90
12, 29093, Note_on_c, 1, 32, 0
12, 29100, Note_on_c, 1, 34, 90
12, 29153, Note_on_c, 1, 34, 0
12, 29160, Note_on_c, 1, 37, 84
12, 29273, Note_on_c, 1, 37, 0
12, 29280, Note_on_c, 1, 37, 92
12, 29333, Note_on_c, 1, 37, 0
12, 29400, Note_on_c, 1, 32, 90
12, 29453, Note_on_c, 1, 32, 0
12, 29460, Note_on_c, 1, 34, 90
12, 29513, Note_on_c, 1, 34, 0
12, 29520, Note_on_c, 1, 37, 84
12, 29633, Note_on_c, 1, 37, 0
12, 29640, Note_on_c, 1, 37, 92
12, 29693, Note_on_c, 1, 37, 0
12, 29760, Note_on_c, 1, 37, 88
12, 29873, Note_on_c, 1, 37, 0
12, 29880, Note_on_c, 1, 29, 90
12, 29993, Note_on_c, 1, 29, 0
12, 30000, Note_on_c, 1, 29, 92
12, 30093, Note_on_c, 1, 29, 0
12, 30120, Note_on_c, 1, 29, 88
12, 30233, Note_on_c, 1, 29, 0
12, 30240, Note_on_c, 1, 34, 92
12, 30413, Note_on_c, 1, 34, 0
12, 30420, Note_on_c, 1, 34, 92
12, 30533, Note_on_c, 1, 34, 0
12, 30540, Note_on_c, 1, 33, 92
12, 30773, Note_on_c, 1, 33, 0
12, 30780, Note_on_c, 1, 33, 92
12, 30893, Note_on_c, 1, 33, 0
12, 30900, Note_on_c, 1, 31, 92
12, 31133, Note_on_c, 1, 31, 0
12, 31140, Note_on_c, 1, 31, 92
12, 31253, Note_on_c, 1, 31, 0
12, 31260, Note_on_c, 1, 36, 92
12, 31493, Note_on_c, 1, 36, 0
12, 31500, Note_on_c, 1, 36, 92
12, 31613, Note_on_c, 1, 36, 0
12, 31620, Note_on_c, 1, 36, 88
12, 31673, Note_on_c, 1, 36, 0
12, 31680, Note_on_c, 1, 37, 92
12, 31853, Note_on_c, 1, 37, 0
12, 31860, Note_on_c, 1, 37, 88
12, 31973, Note_on_c, 1, 37, 0
12, 31980, Note_on_c, 1, 36, 92
12, 32213, Note_on_c, 1, 36, 0
12, 32220, Note_on_c, 1, 36, 88
12, 32333, Note_on_c, 1, 36, 0
12, 32340, Note_on_c, 1, 27, 92
12, 32453, Note_on_c, 1, 27, 0
12, 32460, Note_on_c, 1, 27, 88
12, 32513, Note_on_c, 1, 27, 0
12, 32580, Note_on_c, 1, 32, 92
12, 32753, Note_on_c, 1, 32, 0
12, 32760, Note_on_c, 1, 32, 88
12, 32873, Note_on_c, 1, 32, 0
12, 32880, Note_on_c, 1, 32, 92
12, 32933, Note_on_c, 1, 32, 0
12, 32940, Note_on_c, 1, 36, 82
12, 33053, Note_on_c, 1, 36, 0
12, 33060, Note_on_c, 1, 39, 92
12, 33113, Note_on_c, 1, 39, 0
12, 33120, Note_on_c, 1, 37, 92
12, 33293, Note_on_c, 1, 37, 0
12, 33300, Note_on_c, 1, 37, 92
12, 33413, Note_on_c, 1, 37, 0
12, 33420, Note_on_c, 1, 37, 97
12, 33473, Note_on_c, 1, 37, 0
12, 33480, Note_on_c, 1, 37, 88
12, 33593, Note_on_c, 1, 37, 0
12, 33600, Note_on_c, 1, 37, 84
12, 33653, Note_on_c, 1, 37, 0
12, 33660, Note_on_c, 1, 37, 82
12, 33773, Note_on_c, 1, 37, 0
12, 33780, Note_on_c, 1, 29, 90
12, 34193, Note_on_c, 1, 29, 0
12, 34200, Note_on_c, 1, 29, 86
12, 34253, Note_on_c, 1, 29, 0
12, 34320, Note_on_c, 1, 29, 89
12, 34373, Note_on_c, 1, 29, 0
12, 34440, Note_on_c, 1, 29, 92
12, 34493, Note_on_c, 1, 29, 0
12, 34560, Note_on_c, 1, 34, 84
12, 34733, Note_on_c, 1, 34, 0
12, 34740, Note_on_c, 1, 34, 92
12, 34793, Note_on_c, 1, 34, 0
12, 34800, Note_on_c, 1, 34, 84
12, 34847, Note_on_c, 1, 34, 0
12, 34860, Note_on_c, 1, 34, 90
12, 34913, Note_on_c, 1, 34, 0
12, 34920, Note_on_c, 1, 39, 92
12, 35033, Note_on_c, 1, 39, 0
12, 35040, Note_on_c, 1, 36, 84
12, 35093, Note_on_c, 1, 36, 0
12, 35100, Note_on_c, 1, 39, 92
12, 35213, Note_on_c, 1, 39, 0
12, 35220, Note_on_c, 1, 36, 90
12, 35393, Note_on_c, 1, 36, 0
12, 35400, Note_on_c, 1, 36, 84
12, 35453, Note_on_c, 1, 36, 0
12, 35460, Note_on_c, 1, 29, 92
12, 35753, Note_on_c, 1, 29, 0
12, 35760, Note_on_c, 1, 29, 84
12, 35813, Note_on_c, 1, 29, 0
12, 35820, Note_on_c, 1, 29, 92
12, 35873, Note_on_c, 1, 29, 0
12, 35880, Note_on_c, 1, 29, 84
12, 35933, Note_on_c, 1, 29, 0
12, 35940, Note_on_c, 1, 29, 92
12, 35993, Note_on_c, 1, 29, 0
12, 36000, Note_on_c, 1, 34, 84
12, 36120, Note_on_c, 1, 34, 92
12, 36143, Note_on_c, 1, 34, 0
12, 36173, Note_on_c, 1, 34, 0
12, 36240, Note_on_c, 1, 34, 88
12, 36353, Note_on_c, 1, 34, 0
12, 36360, Note_on_c, 1, 36, 92
12, 36653, Note_on_c, 1, 36, 0
12, 36660, Note_on_c, 1, 36, 84
12, 36713, Note_on_c, 1, 36, 0
12, 36720, Note_on_c, 1, 27, 90
12, 36833, Note_on_c, 1, 27, 0
12, 36840, Note_on_c, 1, 27, 92
12, 36933, Note_on_c, 1, 27, 0
12, 36960, Note_on_c, 1, 27, 88
12, 37073, Note_on_c, 1, 27, 0
12, 37080, Note_on_c, 1, 30, 90
12, 37193, Note_on_c, 1, 30, 0
12, 37200, Note_on_c, 1, 30, 92
12, 37293, Note_on_c, 1, 30, 0
12, 37320, Note_on_c, 1, 30, 88
12, 37433, Note_on_c, 1, 30, 0
12, 37440, Note_on_c, 1, 37, 92
12, 37733, Note_on_c, 1, 37, 0
12, 37740, Note_on_c, 1, 32, 92
12, 38873, Note_on_c, 1, 32, 0
12, 38880, Note_on_c, 1, 32, 92
12, 39173, Note_on_c, 1, 32, 0
12, 39180, Note_on_c, 1, 39, 92
12, 40133, Note_on_c, 1, 39, 0
12, 40140, Note_on_c, 1, 38, 92
12, 40313, Note_on_c, 1, 38, 0
12, 40320, Note_on_c, 1, 37, 92
12, 40613, Note_on_c, 1, 37, 0
12, 40620, Note_on_c, 1, 32, 92
12, 41273, Note_on_c, 1, 32, 0
12, 41280, Note_on_c, 1, 27, 90
12, 41333, Note_on_c, 1, 27, 0
12, 41340, Note_on_c, 1, 29, 90
12, 41387, Note_on_c, 1, 29, 0
12, 41400, Note_on_c, 1, 32, 84
12, 41498, Note_on_c, 1, 32, 0
12, 41520, Note_on_c, 1, 32, 92
12, 41588, Note_on_c, 1, 32, 0
12, 41640, Note_on_c, 1, 32, 90
12, 41693, Note_on_c, 1, 32, 0
12, 41760, Note_on_c, 1, 28, 90
12, 42053, Note_on_c, 1, 28, 0
12, 42060, Note_on_c, 1, 28, 94
12, 42413, Note_on_c, 1, 28, 0
12, 42420, Note_on_c, 1, 28, 90
12, 42473, Note_on_c, 1, 28, 0
12, 42480, Note_on_c, 1, 27, 92
12, 42833, Note_on_c, 1, 27, 0
12, 42840, Note_on_c, 1, 38, 84
12, 42930, Note_on_c, 1, 38, 0
12, 42960, Note_on_c, 1, 38, 92
12, 43013, Note_on_c, 1, 38, 0
12, 43080, Note_on_c, 1, 38, 88
12, 43133, Note_on_c, 1, 38, 0
12, 43200, Note_on_c, 1, 37, 92
12, 43493, Note_on_c, 1, 37, 0
12, 43500, Note_on_c, 1, 32, 92
12, 44633, Note_on_c, 1, 32, 0
12, 44640, Note_on_c, 1, 32, 92
12, 44933, Note_on_c, 1, 32, 0
12, 44940, Note_on_c, 1, 39, 92
12, 45893, Note_on_c, 1, 39, 0
12, 45900, Note_on_c, 1, 38, 92
12, 46073, Note_on_c, 1, 38, 0
12, 46080, Note_on_c, 1, 37, 92
12, 46373, Note_on_c, 1, 37, 0
12, 46380, Note_on_c, 1, 32, 94
12, 47040, Note_on_c, 1, 27, 90
12, 47093, Note_on_c, 1, 27, 0
12, 47100, Note_on_c, 1, 29, 90
12, 47145, Note_on_c, 1, 29, 0
12, 47160, Note_on_c, 1, 32, 84
12, 47254, Note_on_c, 1, 32, 0
12, 47280, Note_on_c, 1, 32, 92
12, 47348, Note_on_c, 1, 32, 0
12, 47400, Note_on_c, 1, 32, 92
12, 47453, Note_on_c, 1, 32, 0
12, 47513, Note_on_c, 1, 32, 0
12, 47520, Note_on_c, 1, 28, 90
12, 47813, Note_on_c, 1, 28, 0
12, 47820, Note_on_c, 1, 28, 92
12, 48173, Note_on_c, 1, 28, 0
12, 48180, Note_on_c, 1, 28, 96
12, 48233, Note_on_c, 1, 28, 0
12, 48240, Note_on_c, 1, 27, 92
12, 48593, Note_on_c, 1, 27, 0
12, 48600, Note_on_c, 1, 27, 90
12, 48713, Note_on_c, 1, 27, 0
12, 48720, Note_on_c, 1, 27, 92
12, 48773, Note_on_c, 1, 27, 0
12, 48840, Note_on_c, 1, 27, 97
12, 48893, Note_on_c, 1, 27, 0
12, 48900, Note_on_c, 1, 27, 90
12, 48953, Note_on_c, 1, 27, 0
12, 48960, Note_on_c, 1, 32, 92
12, 49193, Note_on_c, 1, 32, 0
12, 49200, Note_on_c, 1, 27, 90
12, 49253, Note_on_c, 1, 27, 0
12, 49260, Note_on_c, 1, 29, 90
12, 49313, Note_on_c, 1, 29, 0
12, 49320, Note_on_c, 1, 32, 84
12, 49433, Note_on_c, 1, 32, 0
12, 49440, Note_on_c, 1, 32, 92
12, 49493, Note_on_c, 1, 32, 0
12, 49620, Note_on_c, 1, 32, 82
12, 49673, Note_on_c, 1, 32, 0
12, 49680, Note_on_c, 1, 32, 84
12, 49793, Note_on_c, 1, 32, 0
12, 49800, Note_on_c, 1, 32, 92
12, 49853, Note_on_c, 1, 32, 0
12, 49920, Note_on_c, 1, 27, 90
12, 49973, Note_on_c, 1, 27, 0
12, 49980, Note_on_c, 1, 29, 90
12, 50033, Note_on_c, 1, 29, 0
12, 50040, Note_on_c, 1, 32, 84
12, 50153, Note_on_c, 1, 32, 0
12, 50160, Note_on_c, 1, 32, 92
12, 50213, Note_on_c, 1, 32, 0
12, 50220, Note_on_c, 1, 32, 84
12, 50273, Note_on_c, 1, 32, 0
12, 50280, Note_on_c, 1, 27, 90
12, 50333, Note_on_c, 1, 27, 0
12, 50340, Note_on_c, 1, 29, 90
12, 50387, Note_on_c, 1, 29, 0
12, 50400, Note_on_c, 1, 32, 92
12, 50693, Note_on_c, 1, 32, 0
12, 50700, Note_on_c, 1, 32, 84
12, 50753, Note_on_c, 1, 32, 0
12, 50760, Note_on_c, 1, 32, 92
12, 50873, Note_on_c, 1, 32, 0
12, 50880, Note_on_c, 1, 32, 88
12, 50933, Note_on_c, 1, 32, 0
12, 50940, Note_on_c, 1, 27, 90
12, 51053, Note_on_c, 1, 27, 0
12, 51060, Note_on_c, 1, 32, 84
12, 51113, Note_on_c, 1, 32, 0
12, 51120, Note_on_c, 1, 32, 92
12, 51233, Note_on_c, 1, 32, 0
12, 51240, Note_on_c, 1, 32, 84
12, 51293, Note_on_c, 1, 32, 0
12, 51420, Note_on_c, 1, 27, 90
12, 51473, Note_on_c, 1, 27, 0
12, 51480, Note_on_c, 1, 32, 84
12, 51593, Note_on_c, 1, 32, 0
12, 51600, Note_on_c, 1, 32, 92
12, 51653, Note_on_c, 1, 32, 0
12, 51660, Note_on_c, 1, 32, 84
12, 51713, Note_on_c, 1, 32, 0
12, 51720, Note_on_c, 1, 32, 92
12, 51773, Note_on_c, 1, 32, 0
12, 51780, Note_on_c, 1, 27, 90
12, 51833, Note_on_c, 1, 27, 0
12, 51840, Note_on_c, 1, 32, 90
12, 52133, Note_on_c, 1, 32, 0
12, 52140, Note_on_c, 1, 27, 88
12, 52193, Note_on_c, 1, 27, 0
12, 52200, Note_on_c, 1, 32, 84
12, 52313, Note_on_c, 1, 32, 0
12, 52320, Note_on_c, 1, 32, 92
12, 52373, Note_on_c, 1, 32, 0
12, 52500, Note_on_c, 1, 27, 90
12, 52553, Note_on_c, 1, 27, 0
12, 52560, Note_on_c, 1, 32, 84
12, 52673, Note_on_c, 1, 32, 0
12, 52680, Note_on_c, 1, 32, 92
12, 52733, Note_on_c, 1, 32, 0
12, 52800, Note_on_c, 1, 27, 90
12, 52853, Note_on_c, 1, 27, 0
12, 52860, Note_on_c, 1, 29, 90
12, 52913, Note_on_c, 1, 29, 0
12, 52920, Note_on_c, 1, 32, 84
12, 53033, Note_on_c, 1, 32, 0
12, 53040, Note_on_c, 1, 32, 92
12, 53093, Note_on_c, 1, 32, 0
12, 53100, Note_on_c, 1, 32, 88
12, 53153, Note_on_c, 1, 32, 0
12, 53160, Note_on_c, 1, 27, 90
12, 53213, Note_on_c, 1, 27, 0
12, 53220, Note_on_c, 1, 29, 90
12, 53273, Note_on_c, 1, 29, 0
12, 53280, Note_on_c, 1, 32, 92
12, 53453, Note_on_c, 1, 32, 0
12, 53580, Note_on_c, 1, 27, 90
12, 53633, Note_on_c, 1, 27, 0
12, 53640, Note_on_c, 1, 32, 84
12, 53753, Note_on_c, 1, 32, 0
12, 53760, Note_on_c, 1, 32, 92
12, 53813, Note_on_c, 1, 32, 0
12, 53940, Note_on_c, 1, 27, 90
12, 53993, Note_on_c, 1, 27, 0
12, 54000, Note_on_c, 1, 32, 84
12, 54113, Note_on_c, 1, 32, 0
12, 54120, Note_on_c, 1, 32, 92
12, 54173, Note_on_c, 1, 32, 0
12, 54240, Note_on_c, 1, 32, 88
12, 54293, Note_on_c, 1, 32, 0
12, 54360, Note_on_c, 1, 38, 88
12, 54450, Note_on_c, 1, 38, 0
12, 54480, Note_on_c, 1, 38, 90
12, 54533, Note_on_c, 1, 38, 0
12, 54600, Note_on_c, 1, 38, 92
12, 54653, Note_on_c, 1, 38, 0
12, 54720, Note_on_c, 1, 37, 92
12, 54893, Note_on_c, 1, 37, 0
12, 54900, Note_on_c, 1, 37, 90
12, 55013, Note_on_c, 1, 37, 0
12, 55020, Note_on_c, 1, 36, 90
12, 55193, Note_on_c, 1, 36, 0
12, 55200, Note_on_c, 1, 36, 84
12, 55253, Note_on_c, 1, 36, 0
12, 55260, Note_on_c, 1, 36, 92
12, 55373, Note_on_c, 1, 36, 0
12, 55380, Note_on_c, 1, 34, 88
12, 55493, Note_on_c, 1, 34, 0
12, 55500, Note_on_c, 1, 27, 92
12, 55553, Note_on_c, 1, 27, 0
12, 55620, Note_on_c, 1, 32, 92
12, 55793, Note_on_c, 1, 32, 0
12, 55800, Note_on_c, 1, 32, 90
12, 55913, Note_on_c, 1, 32, 0
12, 55920, Note_on_c, 1, 32, 84
12, 55973, Note_on_c, 1, 32, 0
12, 55980, Note_on_c, 1, 32, 92
12, 56093, Note_on_c, 1, 32, 0
12, 56100, Note_on_c, 1, 32, 88
12, 56153, Note_on_c, 1, 32, 0
12, 56160, Note_on_c, 1, 37, 92
12, 56333, Note_on_c, 1, 37, 0
12, 56340, Note_on_c, 1, 37, 90
12, 56453, Note_on_c, 1, 37, 0
12, 56460, Note_on_c, 1, 37, 84
12, 56513, Note_on_c, 1, 37, 0
12, 56520, Note_on_c, 1, 37, 92
12, 56633, Note_on_c, 1, 37, 0
12, 56640, Note_on_c, 1, 37, 84
12, 56693, Note_on_c, 1, 37, 0
12, 56700, Note_on_c, 1, 37, 92
12, 56753, Note_on_c, 1, 37, 0
12, 56820, Note_on_c, 1, 36, 92
12, 57113, Note_on_c, 1, 36, 0
12, 57120, Note_on_c, 1, 39, 90
12, 57173, Note_on_c, 1, 39, 0
12, 57180, Note_on_c, 1, 40, 90
12, 57233, Note_on_c, 1, 40, 0
12, 57240, Note_on_c, 1, 41, 92
12, 57293, Note_on_c, 1, 41, 0
12, 57300, Note_on_c, 1, 29, 88
12, 57353, Note_on_c, 1, 29, 0
12, 57420, Note_on_c, 1, 29, 90
12, 57473, Note_on_c, 1, 29, 0
12, 57540, Note_on_c, 1, 29, 92
12, 57593, Note_on_c, 1, 29, 0
12, 57600, Note_on_c, 1, 34, 90
12, 57713, Note_on_c, 1, 34, 0
12, 57720, Note_on_c, 1, 34, 90
12, 57773, Note_on_c, 1, 34, 0
12, 57840, Note_on_c, 1, 34, 84
12, 57893, Note_on_c, 1, 34, 0
12, 57960, Note_on_c, 1, 39, 92
12, 58133, Note_on_c, 1, 39, 0
12, 58140, Note_on_c, 1, 39, 92
12, 58253, Note_on_c, 1, 39, 0
12, 58260, Note_on_c, 1, 36, 90
12, 58373, Note_on_c, 1, 36, 0
12, 58380, Note_on_c, 1, 36, 92
12, 58433, Note_on_c, 1, 36, 0
12, 58500, Note_on_c, 1, 41, 92
12, 58733, Note_on_c, 1, 41, 0
12, 58740, Note_on_c, 1, 29, 92
12, 58793, Note_on_c, 1, 29, 0
12, 58800, Note_on_c, 1, 29, 84
12, 58853, Note_on_c, 1, 29, 0
12, 58860, Note_on_c, 1, 29, 92
12, 58913, Note_on_c, 1, 29, 0
12, 58920, Note_on_c, 1, 29, 84
12, 58973, Note_on_c, 1, 29, 0
12, 58980, Note_on_c, 1, 29, 90
12, 59033, Note_on_c, 1, 29, 0
12, 59040, Note_on_c, 1, 34, 90
12, 59153, Note_on_c, 1, 34, 0
12, 59160, Note_on_c, 1, 34, 90
12, 59213, Note_on_c, 1, 34, 0
12, 59280, Note_on_c, 1, 34, 92
12, 59333, Note_on_c, 1, 34, 0
12, 59400, Note_on_c, 1, 36, 92
12, 59693, Note_on_c, 1, 36, 0
12, 59700, Note_on_c, 1, 36, 88
12, 59753, Note_on_c, 1, 36, 0
12, 59760, Note_on_c, 1, 37, 84
12, 59873, Note_on_c, 1, 37, 0
12, 59880, Note_on_c, 1, 37, 92
12, 59933, Note_on_c, 1, 37, 0
12, 60000, Note_on_c, 1, 37, 88
12, 60053, Note_on_c, 1, 37, 0
12, 60120, Note_on_c, 1, 36, 92
12, 60293, Note_on_c, 1, 36, 0
12, 60300, Note_on_c, 1, 36, 84
12, 60353, Note_on_c, 1, 36, 0
12, 60360, Note_on_c, 1, 36, 92
12, 60413, Note_on_c, 1, 36, 0
12, 60420, Note_on_c, 1, 36, 82
12, 60473, Note_on_c, 1, 36, 0
12, 60480, Note_on_c, 1, 29, 84
12, 60593, Note_on_c, 1, 29, 0
12, 60600, Note_on_c, 1, 29, 92
12, 60653, Note_on_c, 1, 29, 0
12, 60720, Note_on_c, 1, 24, 90
12, 60773, Note_on_c, 1, 24, 0
12, 60780, Note_on_c, 1, 26, 90
12, 60833, Note_on_c, 1, 26, 0
12, 60840, Note_on_c, 1, 29, 84
12, 60953, Note_on_c, 1, 29, 0
12, 60960, Note_on_c, 1, 29, 92
12, 61013, Note_on_c, 1, 29, 0
12, 61080, Note_on_c, 1, 24, 90
12, 61133, Note_on_c, 1, 24, 0
12, 61140, Note_on_c, 1, 26, 90
12, 61193, Note_on_c, 1, 26, 0
12, 61200, Note_on_c, 1, 29, 84
12, 61313, Note_on_c, 1, 29, 0
12, 61320, Note_on_c, 1, 29, 92
12, 61373, Note_on_c, 1, 29, 0
12, 61440, Note_on_c, 1, 24, 90
12, 61493, Note_on_c, 1, 24, 0
12, 61500, Note_on_c, 1, 26, 90
12, 61553, Note_on_c, 1, 26, 0
12, 61560, Note_on_c, 1, 29, 84
12, 61673, Note_on_c, 1, 29, 0
12, 61680, Note_on_c, 1, 29, 92
12, 61733, Note_on_c, 1, 29, 0
12, 61800, Note_on_c, 1, 31, 90
12, 61853, Note_on_c, 1, 31, 0
12, 61860, Note_on_c, 1, 33, 90
12, 61913, Note_on_c, 1, 33, 0
12, 61920, Note_on_c, 1, 29, 84
12, 62033, Note_on_c, 1, 29, 0
12, 62040, Note_on_c, 1, 29, 92
12, 62093, Note_on_c, 1, 29, 0
12, 62160, Note_on_c, 1, 24, 90
12, 62213, Note_on_c, 1, 24, 0
12, 62220, Note_on_c, 1, 26, 90
12, 62273, Note_on_c, 1, 26, 0
12, 62280, Note_on_c, 1, 29, 84
12, 62393, Note_on_c, 1, 29, 0
12, 62400, Note_on_c, 1, 29, 92
12, 62453, Note_on_c, 1, 29, 0
12, 62520, Note_on_c, 1, 24, 90
12, 62573, Note_on_c, 1, 24, 0
12, 62580, Note_on_c, 1, 26, 90
12, 62633, Note_on_c, 1, 26, 0
12, 62640, Note_on_c, 1, 29, 84
12, 62753, Note_on_c, 1, 29, 0
12, 62760, Note_on_c, 1, 29, 92
12, 62813, Note_on_c, 1, 29, 0
12, 62880, Note_on_c, 1, 24, 90
12, 62933, Note_on_c, 1, 24, 0
12, 62940, Note_on_c, 1, 26, 90
12, 62993, Note_on_c, 1, 26, 0
12, 63000, Note_on_c, 1, 29, 84
12, 63113, Note_on_c, 1, 29, 0
12, 63120, Note_on_c, 1, 29, 92
12, 63173, Note_on_c, 1, 29, 0
12, 63240, Note_on_c, 1, 31, 90
12, 63293, Note_on_c, 1, 31, 0
12, 63300, Note_on_c, 1, 33, 90
12, 63353, Note_on_c, 1, 33, 0
12, 63360, Note_on_c, 1, 29, 84
12, 63473, Note_on_c, 1, 29, 0
12, 63480, Note_on_c, 1, 29, 92
12, 63533, Note_on_c, 1, 29, 0
12, 63600, Note_on_c, 1, 24, 90
12, 63653, Note_on_c, 1, 24, 0
12, 63660, Note_on_c, 1, 26, 90
12, 63713, Note_on_c, 1, 26, 0
12, 63720, Note_on_c, 1, 29, 84
12, 63833, Note_on_c, 1, 29, 0
12, 63840, Note_on_c, 1, 29, 92
12, 63893, Note_on_c, 1, 29, 0
12, 63960, Note_on_c, 1, 24, 90
12, 64013, Note_on_c, 1, 24, 0
12, 64020, Note_on_c, 1, 26, 90
12, 64073, Note_on_c, 1, 26, 0
12, 64080, Note_on_c, 1, 29, 84
12, 64193, Note_on_c, 1, 29, 0
12, 64200, Note_on_c, 1, 29, 92
12, 64253, Note_on_c, 1, 29, 0
12, 64320, Note_on_c, 1, 24, 90
12, 64373, Note_on_c, 1, 24, 0
12, 64380, Note_on_c, 1, 26, 90
12, 64433, Note_on_c, 1, 26, 0
12, 64440, Note_on_c, 1, 29, 84
12, 64553, Note_on_c, 1, 29, 0
12, 64560, Note_on_c, 1, 29, 92
12, 64613, Note_on_c, 1, 29, 0
12, 64680, Note_on_c, 1, 31, 90
12, 64733, Note_on_c, 1, 31, 0
12, 64740, Note_on_c, 1, 33, 90
12, 64793, Note_on_c, 1, 33, 0
12, 64800, Note_on_c, 1, 29, 84
12, 64913, Note_on_c, 1, 29, 0
12, 64920, Note_on_c, 1, 29, 92
12, 64973, Note_on_c, 1, 29, 0
12, 65040, Note_on_c, 1, 24, 90
12, 65093, Note_on_c, 1, 24, 0
12, 65100, Note_on_c, 1, 26, 90
12, 65153, Note_on_c, 1, 26, 0
12, 65160, Note_on_c, 1, 29, 84
12, 65273, Note_on_c, 1, 29, 0
12, 65280, Note_on_c, 1, 29, 92
12, 65333, Note_on_c, 1, 29, 0
12, 65400, Note_on_c, 1, 24, 90
12, 65453, Note_on_c, 1, 24, 0
12, 65460, Note_on_c, 1, 26, 90
12, 65513, Note_on_c, 1, 26, 0
12, 65520, Note_on_c, 1, 29, 84
12, 65633, Note_on_c, 1, 29, 0
12, 65640, Note_on_c, 1, 29, 92
12, 65693, Note_on_c, 1, 29, 0
12, 65760, Note_on_c, 1, 24, 90
12, 65813, Note_on_c, 1, 24, 0
12, 65820, Note_on_c, 1, 26, 90
12, 65873, Note_on_c, 1, 26, 0
12, 65880, Note_on_c, 1, 29, 84
12, 65993, Note_on_c, 1, 29, 0
12, 66000, Note_on_c, 1, 29, 92
12, 66053, Note_on_c, 1, 29, 0
12, 66120, Note_on_c, 1, 29, 90
12, 66173, Note_on_c, 1, 29, 0
12, 66180, Note_on_c, 1, 31, 90
12, 66233, Note_on_c, 1, 31, 0
12, 66240, Note_on_c, 1, 33, 92
12, 66533, Note_on_c, 1, 33, 0
12, 66540, Note_on_c, 1, 33, 84
12, 66593, Note_on_c, 1, 33, 0
12, 66600, Note_on_c, 1, 33, 92
12, 66713, Note_on_c, 1, 33, 0
12, 66720, Note_on_c, 1, 33, 90
12, 66773, Note_on_c, 1, 33, 0
12, 66900, Note_on_c, 1, 29, 90
12, 67253, Note_on_c, 1, 29, 0
12, 67260, Note_on_c, 1, 29, 90
12, 67313, Note_on_c, 1, 29, 0
12, 67320, Note_on_c, 1, 29, 84
12, 67433, Note_on_c, 1, 29, 0
12, 67440, Note_on_c, 1, 29, 92
12, 67493, Note_on_c, 1, 29, 0
12, 67560, Note_on_c, 1, 29, 84
12, 67613, Note_on_c, 1, 29, 0
12, 67620, Note_on_c, 1, 29, 92
12, 67673, Note_on_c, 1, 29, 0
12, 67680, Note_on_c, 1, 31, 92
12, 67973, Note_on_c, 1, 31, 0
12, 67980, Note_on_c, 1, 31, 90
12, 68033, Note_on_c, 1, 31, 0
12, 68040, Note_on_c, 1, 33, 92
12, 68333, Note_on_c, 1, 33, 0
12, 68340, Note_on_c, 1, 33, 90
12, 68393, Note_on_c, 1, 33, 0
12, 68400, Note_on_c, 1, 34, 92
12, 68693, Note_on_c, 1, 34, 0
12, 68700, Note_on_c, 1, 34, 90
12, 68753, Note_on_c, 1, 34, 0
12, 68760, Note_on_c, 1, 36, 92
12, 68873, Note_on_c, 1, 36, 0
12, 68880, Note_on_c, 1, 36, 84
12, 68933, Note_on_c, 1, 36, 0
12, 69000, Note_on_c, 1, 36, 92
12, 69053, Note_on_c, 1, 36, 0
12, 69120, Note_on_c, 1, 37, 92
12, 69293, Note_on_c, 1, 37, 0
12, 69300, Note_on_c, 1, 37, 90
12, 69413, Note_on_c, 1, 37, 0
12, 69420, Note_on_c, 1, 36, 92
12, 69593, Note_on_c, 1, 36, 0
12, 69600, Note_on_c, 1, 36, 88
12, 69653, Note_on_c, 1, 36, 0
12, 69660, Note_on_c, 1, 36, 92
12, 69773, Note_on_c, 1, 36, 0
12, 69780, Note_on_c, 1, 27, 90
12, 69893, Note_on_c, 1, 27, 0
12, 69900, Note_on_c, 1, 27, 90
12, 69953, Note_on_c, 1, 27, 0
12, 70020, Note_on_c, 1, 32, 92
12, 70313, Note_on_c, 1, 32, 0
12, 70320, Note_on_c, 1, 32, 88
12, 70373, Note_on_c, 1, 32, 0
12, 70380, Note_on_c, 1, 32, 92
12, 70433, Note_on_c, 1, 32, 0
12, 70440, Note_on_c, 1, 34, 88
12, 70493, Note_on_c, 1, 34, 0
12, 70500, Note_on_c, 1, 36, 90
12, 70553, Note_on_c, 1, 36, 0
12, 70560, Note_on_c, 1, 37, 92
12, 70733, Note_on_c, 1, 37, 0
12, 70740, Note_on_c, 1, 37, 90
12, 70853, Note_on_c, 1, 37, 0
12, 70860, Note_on_c, 1, 37, 84
12, 70913, Note_on_c, 1, 37, 0
12, 70920, Note_on_c, 1, 37, 92
12, 71033, Note_on_c, 1, 37, 0
12, 71040, Note_on_c, 1, 37, 84
12, 71093, Note_on_c, 1, 37, 0
12, 71100, Note_on_c, 1, 37, 92
12, 71153, Note_on_c, 1, 37, 0
12, 71220, Note_on_c, 1, 29, 92
12, 71573, Note_on_c, 1, 29, 0
12, 71580, Note_on_c, 1, 29, 84
12, 71633, Note_on_c, 1, 29, 0
12, 71640, Note_on_c, 1, 29, 92
12, 71687, Note_on_c, 1, 29, 0
12, 71700, Note_on_c, 1, 29, 84
12, 71753, Note_on_c, 1, 29, 0
12, 71760, Note_on_c, 1, 29, 88
12, 71807, Note_on_c, 1, 29, 0
12, 71820, Note_on_c, 1, 29, 90
12, 71933, Note_on_c, 1, 29, 0
12, 71940, Note_on_c, 1, 29, 97
12, 71993, Note_on_c, 1, 29, 0
12, 72000, Note_on_c, 1, 34, 90
12, 72113, Note_on_c, 1, 34, 0
12, 72120, Note_on_c, 1, 34, 92
12, 72173, Note_on_c, 1, 34, 0
12, 72240, Note_on_c, 1, 34, 88
12, 72293, Note_on_c, 1, 34, 0
12, 72360, Note_on_c, 1, 39, 90
12, 72533, Note_on_c, 1, 39, 0
12, 72540, Note_on_c, 1, 39, 92
12, 72653, Note_on_c, 1, 39, 0
12, 72660, Note_on_c, 1, 36, 86
12, 72773, Note_on_c, 1, 36, 0
12, 72780, Note_on_c, 1, 36, 92
12, 72833, Note_on_c, 1, 36, 0
12, 72900, Note_on_c, 1, 29, 92
12, 73073, Note_on_c, 1, 29, 0
12, 73080, Note_on_c, 1, 29, 84
12, 73127, Note_on_c, 1, 29, 0
12, 73140, Note_on_c, 1, 29, 92
12, 73193, Note_on_c, 1, 29, 0
12, 73200, Note_on_c, 1, 29, 84
12, 73247, Note_on_c, 1, 29, 0
12, 73260, Note_on_c, 1, 29, 92
12, 73373, Note_on_c, 1, 29, 0
12, 73380, Note_on_c, 1, 29, 92
12, 73433, Note_on_c, 1, 29, 0
12, 73440, Note_on_c, 1, 34, 92
12, 73733, Note_on_c, 1, 34, 0
12, 73740, Note_on_c, 1, 34, 90
12, 73793, Note_on_c, 1, 34, 0
12, 73800, Note_on_c, 1, 36, 92
12, 74093, Note_on_c, 1, 36, 0
12, 74100, Note_on_c, 1, 36, 90
12, 74153, Note_on_c, 1, 36, 0
12, 74160, Note_on_c, 1, 37, 92
12, 74273, Note_on_c, 1, 37, 0
12, 74280, Note_on_c, 1, 37, 97
12, 74333, Note_on_c, 1, 37, 0
12, 74400, Note_on_c, 1, 37, 102
12, 74453, Note_on_c, 1, 37, 0
12, 74520, Note_on_c, 1, 36, 92
12, 74633, Note_on_c, 1, 36, 0
12, 74640, Note_on_c, 1, 36, 97
12, 74693, Note_on_c, 1, 36, 0
12, 74760, Note_on_c, 1, 36, 102
12, 74813, Note_on_c, 1, 36, 0
12, 74880, Note_on_c, 1, 29, 84
12, 74993, Note_on_c, 1, 29, 0
12, 75000, Note_on_c, 1, 29, 92
12, 75053, Note_on_c, 1, 29, 0
12, 75120, Note_on_c, 1, 24, 90
12, 75173, Note_on_c, 1, 24, 0
12, 75180, Note_on_c, 1, 26, 90
12, 75233, Note_on_c, 1, 26, 0
12, 75240, Note_on_c, 1, 29, 84
12, 75353, Note_on_c, 1, 29, 0
12, 75360, Note_on_c, 1, 29, 92
12, 75413, Note_on_c, 1, 29, 0
12, 75600, Note_on_c, 1, 29, 84
12, 75713, Note_on_c, 1, 29, 0
12, 75720, Note_on_c, 1, 29, 92
12, 75773, Note_on_c, 1, 29, 0
12, 75840, Note_on_c, 1, 24, 90
12, 75893, Note_on_c, 1, 24, 0
12, 75900, Note_on_c, 1, 26, 90
12, 75953, Note_on_c, 1, 26, 0
12, 75960, Note_on_c, 1, 29, 84
12, 76073, Note_on_c, 1, 29, 0
12, 76080, Note_on_c, 1, 29, 92
12, 76133, Note_on_c, 1, 29, 0
12, 76200, Note_on_c, 1, 31, 90
12, 76253, Note_on_c, 1, 31, 0
12, 76260, Note_on_c, 1, 33, 90
12, 76313, Note_on_c, 1, 33, 0
12, 76320, Note_on_c, 1, 29, 84
12, 76433, Note_on_c, 1, 29, 0
12, 76440, Note_on_c, 1, 29, 92
12, 76493, Note_on_c, 1, 29, 0
12, 76560, Note_on_c, 1, 24, 90
12, 76613, Note_on_c, 1, 24, 0
12, 76620, Note_on_c, 1, 26, 90
12, 76673, Note_on_c, 1, 26, 0
12, 76680, Note_on_c, 1, 29, 84
12, 76793, Note_on_c, 1, 29, 0
12, 76800, Note_on_c, 1, 29, 92
12, 76853, Note_on_c, 1, 29, 0
12, 77040, Note_on_c, 1, 29, 84
12, 77153, Note_on_c, 1, 29, 0
12, 77160, Note_on_c, 1, 29, 92
12, 77213, Note_on_c, 1, 29, 0
12, 77280, Note_on_c, 1, 31, 90
12, 77333, Note_on_c, 1, 31, 0
12, 77340, Note_on_c, 1, 33, 90
12, 77393, Note_on_c, 1, 33, 0
12, 77400, Note_on_c, 1, 34, 84
12, 77453, Note_on_c, 1, 34, 0
12, 77520, Note_on_c, 1, 34, 92
12, 77603, Note_on_c, 1, 34, 0
12, 77640, Note_on_c, 1, 36, 90
12, 77738, Note_on_c, 1, 36, 0
12, 77760, Note_on_c, 1, 29, 84
12, 77873, Note_on_c, 1, 29, 0
12, 77880, Note_on_c, 1, 29, 92
12, 77933, Note_on_c, 1, 29, 0
12, 78000, Note_on_c, 1, 24, 90
12, 78053, Note_on_c, 1, 24, 0
12, 78060, Note_on_c, 1, 26, 90
12, 78113, Note_on_c, 1, 26, 0
12, 78120, Note_on_c, 1, 29, 84
12, 78233, Note_on_c, 1, 29, 0
12, 78240, Note_on_c, 1, 29, 92
12, 78293, Note_on_c, 1, 29, 0
12, 78480, Note_on_c, 1, 29, 84
12, 78593, Note_on_c, 1, 29, 0
12, 78600, Note_on_c, 1, 29, 92
12, 78653, Note_on_c, 1, 29, 0
12, 78780, Note_on_c, 1, 27, 90
12, 78833, Note_on_c, 1, 27, 0
12, 78840, Note_on_c, 1, 29, 84
12, 78953, Note_on_c, 1, 29, 0
12, 78960, Note_on_c, 1, 29, 92
12, 79013, Note_on_c, 1, 29, 0
12, 79080, Note_on_c, 1, 27, 90
12, 79193, Note_on_c, 1, 27, 0
12, 79200, Note_on_c, 1, 37, 84
12, 79313, Note_on_c, 1, 37, 0
12, 79320, Note_on_c, 1, 37, 92
12, 79373, Note_on_c, 1, 37, 0
12, 79440, Note_on_c, 1, 32, 90
12, 79493, Note_on_c, 1, 32, 0
12, 79500, Note_on_c, 1, 34, 90
12, 79553, Note_on_c, 1, 34, 0
12, 79560, Note_on_c, 1, 37, 84
12, 79673, Note_on_c, 1, 37, 0
12, 79680, Note_on_c, 1, 37, 92
12, 79733, Note_on_c, 1, 37, 0
12, 79860, Note_on_c, 1, 32, 90
12, 79913, Note_on_c, 1, 32, 0
12, 79920, Note_on_c, 1, 25, 84
12, 80033, Note_on_c, 1, 25, 0
12, 80040, Note_on_c, 1, 25, 92
12, 80093, Note_on_c, 1, 25, 0
12, 80100, Note_on_c, 1, 32, 90
12, 80153, Note_on_c, 1, 32, 0
12, 80160, Note_on_c, 1, 34, 90
12, 80213, Note_on_c, 1, 34, 0
12, 80280, Note_on_c, 1, 37, 84
12, 80333, Note_on_c, 1, 37, 0
12, 80340, Note_on_c, 1, 37, 92
12, 80393, Note_on_c, 1, 37, 0
12, 80400, Note_on_c, 1, 25, 84
12, 80453, Note_on_c, 1, 25, 0
12, 80520, Note_on_c, 1, 25, 92
12, 80633, Note_on_c, 1, 25, 0
12, 80640, Note_on_c, 1, 34, 84
12, 80753, Note_on_c, 1, 34, 0
12, 80760, Note_on_c, 1, 34, 92
12, 80813, Note_on_c, 1, 34, 0
12, 80880, Note_on_c, 1, 29, 90
12, 80933, Note_on_c, 1, 29, 0
12, 80940, Note_on_c, 1, 32, 90
12, 80993, Note_on_c, 1, 32, 0
12, 81000, Note_on_c, 1, 34, 88
12, 81143, Note_on_c, 1, 34, 0
12, 81180, Note_on_c, 1, 32, 90
12, 81323, Note_on_c, 1, 32, 0
12, 81360, Note_on_c, 1, 30, 84
12, 81473, Note_on_c, 1, 30, 0
12, 81480, Note_on_c, 1, 30, 92
12, 81533, Note_on_c, 1, 30, 0
12, 81600, Note_on_c, 1, 30, 84
12, 81653, Note_on_c, 1, 30, 0
12, 81720, Note_on_c, 1, 30, 92
12, 81893, Note_on_c, 1, 30, 0
12, 81900, Note_on_c, 1, 32, 82
12, 81953, Note_on_c, 1, 32, 0
12, 81960, Note_on_c, 1, 29, 76
12, 82013, Note_on_c, 1, 29, 0
12, 82020, Note_on_c, 1, 32, 90
12, 82073, Note_on_c, 1, 32, 0
12, 82080, Note_on_c, 1, 34, 84
12, 82193, Note_on_c, 1, 34, 0
12, 82200, Note_on_c, 1, 34, 92
12, 82253, Note_on_c, 1, 34, 0
12, 82320, Note_on_c, 1, 29, 90
12, 82373, Note_on_c, 1, 29, 0
12, 82380, Note_on_c, 1, 32, 90
12, 82433, Note_on_c, 1, 32, 0
12, 82440, Note_on_c, 1, 34, 84
12, 82553, Note_on_c, 1, 34, 0
12, 82560, Note_on_c, 1, 34, 92
12, 82613, Note_on_c, 1, 34, 0
12, 82680, Note_on_c, 1, 29, 90
12, 82733, Note_on_c, 1, 29, 0
12, 82740, Note_on_c, 1, 32, 90
12, 82793, Note_on_c, 1, 32, 0
12, 82800, Note_on_c, 1, 34, 84
12, 82913, Note_on_c, 1, 34, 0
12, 82920, Note_on_c, 1, 34, 92
12, 82973, Note_on_c, 1, 34, 0
12, 83040, Note_on_c, 1, 29, 90
12, 83093, Note_on_c, 1, 29, 0
12, 83100, Note_on_c, 1, 34, 84
12, 83153, Note_on_c, 1, 34, 0
12, 83160, Note_on_c, 1, 36, 90
12, 83273, Note_on_c, 1, 36, 0
12, 83280, Note_on_c, 1, 36, 91
12, 83373, Note_on_c, 1, 36, 0
12, 83400, Note_on_c, 1, 36, 92
12, 83513, Note_on_c, 1, 36, 0
12, 83520, Note_on_c, 1, 37, 84
12, 83633, Note_on_c, 1, 37, 0
12, 83640, Note_on_c, 1, 37, 92
12, 83693, Note_on_c, 1, 37, 0
12, 83760, Note_on_c, 1, 32, 90
12, 83813, Note_on_c, 1, 32, 0
12, 83820, Note_on_c, 1, 34, 90
12, 83873, Note_on_c, 1, 34, 0
12, 83880, Note_on_c, 1, 37, 84
12, 83993, Note_on_c, 1, 37, 0
12, 84000, Note_on_c, 1, 37, 92
12, 84053, Note_on_c, 1, 37, 0
12, 84120, Note_on_c, 1, 32, 90
12, 84173, Note_on_c, 1, 32, 0
12, 84180, Note_on_c, 1, 34, 90
12, 84233, Note_on_c, 1, 34, 0
12, 84240, Note_on_c, 1, 37, 84
12, 84353, Note_on_c, 1, 37, 0
12, 84360, Note_on_c, 1, 37, 92
12, 84413, Note_on_c, 1, 37, 0
12, 84480, Note_on_c, 1, 37, 88
12, 84593, Note_on_c, 1, 37, 0
12, 84600, Note_on_c, 1, 29, 90
12, 84713, Note_on_c, 1, 29, 0
12, 84720, Note_on_c, 1, 29, 92
12, 84813, Note_on_c, 1, 29, 0
12, 84840, Note_on_c, 1, 29, 88
12, 84953, Note_on_c, 1, 29, 0
12, 84960, Note_on_c, 1, 34, 92
12, 85133, Note_on_c, 1, 34, 0
12, 85140, Note_on_c, 1, 34, 88
12, 85253, Note_on_c, 1, 34, 0
12, 85260, Note_on_c, 1, 33, 92
12, 85493, Note_on_c, 1, 33, 0
12, 85500, Note_on_c, 1, 33, 88
12, 85613, Note_on_c, 1, 33, 0
12, 85620, Note_on_c, 1, 31, 92
12, 85853, Note_on_c, 1, 31, 0
12, 85860, Note_on_c, 1, 31, 88
12, 85973, Note_on_c, 1, 31, 0
12, 85980, Note_on_c, 1, 36, 92
12, 86213, Note_on_c, 1, 36, 0
12, 86220, Note_on_c, 1, 36, 92
12, 86333, Note_on_c, 1, 36, 0
12, 86340, Note_on_c, 1, 36, 88
12, 86393, Note_on_c, 1, 36, 0
12, 86400, Note_on_c, 1, 37, 92
12, 86573, Note_on_c, 1, 37, 0
12, 86580, Note_on_c, 1, 37, 88
12, 86693, Note_on_c, 1, 37, 0
12, 86700, Note_on_c, 1, 36, 92
12, 86933, Note_on_c, 1, 36, 0
12, 86940, Note_on_c, 1, 36, 88
12, 87053, Note_on_c, 1, 36, 0
12, 87060, Note_on_c, 1, 27, 88
12, 87173, Note_on_c, 1, 27, 0
12, 87180, Note_on_c, 1, 27, 92
12, 87233, Note_on_c, 1, 27, 0
12, 87300, Note_on_c, 1, 32, 84
12, 87473, Note_on_c, 1, 32, 0
12, 87480, Note_on_c, 1, 32, 90
12, 87593, Note_on_c, 1, 32, 0
12, 87600, Note_on_c, 1, 32, 92
12, 87653, Note_on_c, 1, 32, 0
12, 87660, Note_on_c, 1, 36, 84
12, 87773, Note_on_c, 1, 36, 0
12, 87780, Note_on_c, 1, 39, 82
12, 87833, Note_on_c, 1, 39, 0
12, 87840, Note_on_c, 1, 37, 90
12, 88013, Note_on_c, 1, 37, 0
12, 88020, Note_on_c, 1, 37, 92
12, 88133, Note_on_c, 1, 37, 0
12, 88140, Note_on_c, 1, 37, 84
12, 88193, Note_on_c, 1, 37, 0
12, 88200, Note_on_c, 1, 37, 90
12, 88313, Note_on_c, 1, 37, 0
12, 88320, Note_on_c, 1, 37, 84
12, 88373, Note_on_c, 1, 37, 0
12, 88380, Note_on_c, 1, 37, 90
12, 88493, Note_on_c, 1, 37, 0
12, 88500, Note_on_c, 1, 29, 92
12, 88913, Note_on_c, 1, 29, 0
12, 88920, Note_on_c, 1, 29, 90
12, 88973, Note_on_c, 1, 29, 0
12, 89040, Note_on_c, 1, 29, 90
12, 89093, Note_on_c, 1, 29, 0
12, 89160, Note_on_c, 1, 29, 92
12, 89213, Note_on_c, 1, 29, 0
12, 89280, Note_on_c, 1, 34, 92
12, 89453, Note_on_c, 1, 34, 0
12, 89460, Note_on_c, 1, 34, 90
12, 89513, Note_on_c, 1, 34, 0
12, 89520, Note_on_c, 1, 34, 84
12, 89573, Note_on_c, 1, 34, 0
12, 89580, Note_on_c, 1, 34, 92
12, 89633, Note_on_c, 1, 34, 0
12, 89640, Note_on_c, 1, 39, 92
12, 89753, Note_on_c, 1, 39, 0
12, 89760, Note_on_c, 1, 36, 84
12, 89813, Note_on_c, 1, 36, 0
12, 89820, Note_on_c, 1, 39, 90
12, 89933, Note_on_c, 1, 39, 0
12, 89940, Note_on_c, 1, 36, 88
12, 89993, Note_on_c, 1, 36, 0
12, 90060, Note_on_c, 1, 36, 92
12, 90113, Note_on_c, 1, 36, 0
12, 90180, Note_on_c, 1, 29, 92
12, 90473, Note_on_c, 1, 29, 0
12, 90480, Note_on_c, 1, 29, 84
12, 90533, Note_on_c, 1, 29, 0
12, 90540, Note_on_c, 1, 29, 90
12, 90587, Note_on_c, 1, 29, 0
12, 90600, Note_on_c, 1, 29, 84
12, 90653, Note_on_c, 1, 29, 0
12, 90660, Note_on_c, 1, 29, 90
12, 90713, Note_on_c, 1, 29, 0
12, 90720, Note_on_c, 1, 34, 92
12, 91013, Note_on_c, 1, 34, 0
12, 91020, Note_on_c, 1, 34, 90
12, 91073, Note_on_c, 1, 34, 0
12, 91080, Note_on_c, 1, 36, 92
12, 91373, Note_on_c, 1, 36, 0
12, 91380, Note_on_c, 1, 36, 90
12, 91433, Note_on_c, 1, 36, 0
12, 91440, Note_on_c, 1, 37, 92
12, 91553, Note_on_c, 1, 37, 0
12, 91560, Note_on_c, 1, 37, 88
12, 91653, Note_on_c, 1, 37, 0
12, 91680, Note_on_c, 1, 37, 92
12, 91793, Note_on_c, 1, 37, 0
12, 91800, Note_on_c, 1, 34, 92
12, 91913, Note_on_c, 1, 34, 0
12, 91920, Note_on_c, 1, 34, 88
12, 92013, Note_on_c, 1, 34, 0
12, 92040, Note_on_c, 1, 34, 92
12, 92153, Note_on_c, 1, 34, 0
12, 92160, Note_on_c, 1, 37, 92
12, 92333, Note_on_c, 1, 37, 0
12, 92340, Note_on_c, 1, 37, 88
12, 92453, Note_on_c, 1, 37, 0
12, 92460, Note_on_c, 1, 36, 92
12, 92693, Note_on_c, 1, 36, 0
12, 92700, Note_on_c, 1, 36, 88
12, 92813, Note_on_c, 1, 36, 0
12, 92820, Note_on_c, 1, 27, 92
12, 92933, Note_on_c, 1, 27, 0
12, 92940, Note_on_c, 1, 27, 88
12, 92993, Note_on_c, 1, 27, 0
12, 93060, Note_on_c, 1, 32, 92
12, 93353, Note_on_c, 1, 32, 0
12, 93360, Note_on_c, 1, 32, 84
12, 93413, Note_on_c, 1, 32, 0
12, 93420, Note_on_c, 1, 32, 88
12, 93473, Note_on_c, 1, 32, 0
12, 93480, Note_on_c, 1, 34, 90
12, 93533, Note_on_c, 1, 34, 0
12, 93540, Note_on_c, 1, 36, 84
12, 93593, Note_on_c, 1, 36, 0
12, 93600, Note_on_c, 1, 37, 92
12, 93893, Note_on_c, 1, 37, 0
12, 93900, Note_on_c, 1, 37, 84
12, 93953, Note_on_c, 1, 37, 0
12, 93960, Note_on_c, 1, 37, 92
12, 94133, Note_on_c, 1, 37, 0
12, 94140, Note_on_c, 1, 37, 90
12, 94233, Note_on_c, 1, 37, 0
12, 94260, Note_on_c, 1, 29, 80
12, 94313, Note_on_c, 1, 29, 0
12, 94320, Note_on_c, 1, 29, 92
12, 94673, Note_on_c, 1, 29, 0
12, 94680, Note_on_c, 1, 29, 90
12, 94853, Note_on_c, 1, 29, 0
12, 94860, Note_on_c, 1, 29, 90
12, 94973, Note_on_c, 1, 29, 0
12, 94980, Note_on_c, 1, 29, 90
12, 95033, Note_on_c, 1, 29, 0
12, 95040, Note_on_c, 1, 34, 92
12, 95153, Note_on_c, 1, 34, 0
12, 95160, Note_on_c, 1, 34, 88
12, 95213, Note_on_c, 1, 34, 0
12, 95280, Note_on_c, 1, 34, 90
12, 95393, Note_on_c, 1, 34, 0
12, 95400, Note_on_c, 1, 39, 92
12, 95573, Note_on_c, 1, 39, 0
12, 95580, Note_on_c, 1, 39, 88
12, 95693, Note_on_c, 1, 39, 0
12, 95700, Note_on_c, 1, 36, 92
12, 95813, Note_on_c, 1, 36, 0
12, 95820, Note_on_c, 1, 36, 88
12, 95873, Note_on_c, 1, 36, 0
12, 95940, Note_on_c, 1, 29, 92
12, 96233, Note_on_c, 1, 29, 0
12, 96240, Note_on_c, 1, 29, 90
12, 96293, Note_on_c, 1, 29, 0
12, 96300, Note_on_c, 1, 29, 92
12, 96353, Note_on_c, 1, 29, 0
12, 96360, Note_on_c, 1, 29, 84
12, 96407, Note_on_c, 1, 29, 0
12, 96420, Note_on_c, 1, 29, 92
12, 96473, Note_on_c, 1, 29, 0
12, 96480, Note_on_c, 1, 34, 92
12, 96773, Note_on_c, 1, 34, 0
12, 96780, Note_on_c, 1, 34, 88
12, 96833, Note_on_c, 1, 34, 0
12, 96840, Note_on_c, 1, 36, 92
12, 97133, Note_on_c, 1, 36, 0
12, 97140, Note_on_c, 1, 36, 88
12, 97193, Note_on_c, 1, 36, 0
12, 97200, Note_on_c, 1, 28, 92
12, 97313, Note_on_c, 1, 28, 0
12, 97320, Note_on_c, 1, 28, 84
12, 97367, Note_on_c, 1, 28, 0
12, 97440, Note_on_c, 1, 28, 90
12, 97493, Note_on_c, 1, 28, 0
12, 97560, Note_on_c, 1, 26, 92
12, 97673, Note_on_c, 1, 26, 0
12, 97680, Note_on_c, 1, 26, 88
12, 97733, Note_on_c, 1, 26, 0
12, 97860, Note_on_c, 1, 26, 84
12, 97913, Note_on_c, 1, 26, 0
12, 97920, Note_on_c, 1, 37, 92
12, 98093, Note_on_c, 1, 37, 0
12, 98100, Note_on_c, 1, 37, 88
12, 98213, Note_on_c, 1, 37, 0
12, 98220, Note_on_c, 1, 36, 92
12, 98453, Note_on_c, 1, 36, 0
12, 98460, Note_on_c, 1, 36, 88
12, 98573, Note_on_c, 1, 36, 0
12, 98580, Note_on_c, 1, 27, 92
12, 98693, Note_on_c, 1, 27, 0
12, 98700, Note_on_c, 1, 27, 88
12, 98753, Note_on_c, 1, 27, 0
12, 98820, Note_on_c, 1, 32, 92
12, 99113, Note_on_c, 1, 32, 0
12, 99120, Note_on_c, 1, 32, 92
12, 99173, Note_on_c, 1, 32, 0
12, 99180, Note_on_c, 1, 32, 84
12, 99233, Note_on_c, 1, 32, 0
12, 99240, Note_on_c, 1, 34, 88
12, 99293, Note_on_c, 1, 34, 0
12, 99300, Note_on_c, 1, 36, 90
12, 99353, Note_on_c, 1, 36, 0
12, 99360, Note_on_c, 1, 37, 92
12, 99653, Note_on_c, 1, 37, 0
12, 99660, Note_on_c, 1, 37, 84
12, 99707, Note_on_c, 1, 37, 0
12, 99720, Note_on_c, 1, 37, 92
12, 99893, Note_on_c, 1, 37, 0
12, 99900, Note_on_c, 1, 37, 90
12, 100013, Note_on_c, 1, 37, 0
12, 100020, Note_on_c, 1, 29, 84
12, 100067, Note_on_c, 1, 29, 0
12, 100080, Note_on_c, 1, 29, 92
12, 100433, Note_on_c, 1, 29, 0
12, 100440, Note_on_c, 1, 29, 90
12, 100613, Note_on_c, 1, 29, 0
12, 100620, Note_on_c, 1, 29, 92
12, 100733, Note_on_c, 1, 29, 0
12, 100740, Note_on_c, 1, 29, 88
12, 100787, Note_on_c, 1, 29, 0
12, 100800, Note_on_c, 1, 34, 92
12, 100913, Note_on_c, 1, 34, 0
12, 100920, Note_on_c, 1, 34, 88
12, 100967, Note_on_c, 1, 34, 0
12, 101040, Note_on_c, 1, 34, 90
12, 101153, Note_on_c, 1, 34, 0
12, 101160, Note_on_c, 1, 39, 92
12, 101333, Note_on_c, 1, 39, 0
12, 101340, Note_on_c, 1, 39, 88
12, 101453, Note_on_c, 1, 39, 0
12, 101460, Note_on_c, 1, 36, 92
12, 101573, Note_on_c, 1, 36, 0
12, 101580, Note_on_c, 1, 36, 88
12, 101633, Note_on_c, 1, 36, 0
12, 101700, Note_on_c, 1, 29, 92
12, 101993, Note_on_c, 1, 29, 0
12, 102000, Note_on_c, 1, 29, 84
12, 102053, Note_on_c, 1, 29, 0
12, 102060, Note_on_c, 1, 29, 92
12, 102113, Note_on_c, 1, 29, 0
12, 102120, Note_on_c, 1, 29, 88
12, 102167, Note_on_c, 1, 29, 0
12, 102180, Note_on_c, 1, 29, 84
12, 102233, Note_on_c, 1, 29, 0
12, 102240, Note_on_c, 1, 34, 92
12, 102533, Note_on_c, 1, 34, 0
12, 102540, Note_on_c, 1, 34, 88
12, 102593, Note_on_c, 1, 34, 0
12, 102600, Note_on_c, 1, 36, 92
12, 102893, Note_on_c, 1, 36, 0
12, 102900, Note_on_c, 1, 36, 88
12, 102953, Note_on_c, 1, 36, 0
12, 102960, Note_on_c, 1, 37, 88
12, 103073, Note_on_c, 1, 37, 0
12, 103080, Note_on_c, 1, 37, 92
12, 103173, Note_on_c, 1, 37, 0
12, 103200, Note_on_c, 1, 37, 90
12, 103313, Note_on_c, 1, 37, 0
12, 103320, Note_on_c, 1, 39, 92
12, 103433, Note_on_c, 1, 39, 0
12, 103440, Note_on_c, 1, 39, 88
12, 103533, Note_on_c, 1, 39, 0
12, 103560, Note_on_c, 1, 38, 92
12, 103673, Note_on_c, 1, 38, 0
12, 103680, Note_on_c, 1, 37, 92
12, 103853, Note_on_c, 1, 37, 0
12, 103860, Note_on_c, 1, 37, 88
12, 103973, Note_on_c, 1, 37, 0
12, 103980, Note_on_c, 1, 36, 92
12, 104213, Note_on_c, 1, 36, 0
12, 104220, Note_on_c, 1, 36, 88
12, 104333, Note_on_c, 1, 36, 0
12, 104340, Note_on_c, 1, 27, 92
12, 104453, Note_on_c, 1, 27, 0
12, 104460, Note_on_c, 1, 27, 88
12, 104513, Note_on_c, 1, 27, 0
12, 104580, Note_on_c, 1, 32, 92
12, 104873, Note_on_c, 1, 32, 0
12, 104880, Note_on_c, 1, 32, 92
12, 104933, Note_on_c, 1, 32, 0
12, 104940, Note_on_c, 1, 32, 84
12, 104993, Note_on_c, 1, 32, 0
12, 105000, Note_on_c, 1, 34, 88
12, 105053, Note_on_c, 1, 34, 0
12, 105060, Note_on_c, 1, 36, 90
12, 105113, Note_on_c, 1, 36, 0
12, 105120, Note_on_c, 1, 37, 92
12, 105413, Note_on_c, 1, 37, 0
12, 105420, Note_on_c, 1, 37, 84
12, 105467, Note_on_c, 1, 37, 0
12, 105480, Note_on_c, 1, 37, 92
12, 105653, Note_on_c, 1, 37, 0
12, 105660, Note_on_c, 1, 37, 92
12, 105773, Note_on_c, 1, 37, 0
12, 105780, Note_on_c, 1, 29, 88
12, 106180, Note_on_c, 1, 29, 0
12, 106200, Note_on_c, 1, 29, 90
12, 106373, Note_on_c, 1, 29, 0
12, 106380, Note_on_c, 1, 29, 92
12, 106473, Note_on_c, 1, 29, 0
12, 106500, Note_on_c, 1, 29, 84
12, 106547, Note_on_c, 1, 29, 0
12, 106560, Note_on_c, 1, 34, 88
12, 106673, Note_on_c, 1, 34, 0
12, 106680, Note_on_c, 1, 34, 92
12, 106733, Note_on_c, 1, 34, 0
12, 106800, Note_on_c, 1, 34, 88
12, 106913, Note_on_c, 1, 34, 0
12, 106920, Note_on_c, 1, 39, 92
12, 107093, Note_on_c, 1, 39, 0
12, 107100, Note_on_c, 1, 39, 88
12, 107213, Note_on_c, 1, 39, 0
12, 107220, Note_on_c, 1, 36, 92
12, 107333, Note_on_c, 1, 36, 0
12, 107340, Note_on_c, 1, 36, 88
12, 107393, Note_on_c, 1, 36, 0
12, 107460, Note_on_c, 1, 29, 92
12, 107753, Note_on_c, 1, 29, 0
12, 107760, Note_on_c, 1, 29, 88
12, 107813, Note_on_c, 1, 29, 0
12, 107820, Note_on_c, 1, 29, 92
12, 107873, Note_on_c, 1, 29, 0
12, 107880, Note_on_c, 1, 29, 88
12, 107933, Note_on_c, 1, 29, 0
12, 107940, Note_on_c, 1, 29, 92
12, 107987, Note_on_c, 1, 29, 0
12, 108000, Note_on_c, 1, 34, 92
12, 108293, Note_on_c, 1, 34, 0
12, 108300, Note_on_c, 1, 34, 88
12, 108353, Note_on_c, 1, 34, 0
12, 108360, Note_on_c, 1, 36, 92
12, 108653, Note_on_c, 1, 36, 0
12, 108660, Note_on_c, 1, 36, 88
12, 108713, Note_on_c, 1, 36, 0
12, 108720, Note_on_c, 1, 28, 92
12, 108833, Note_on_c, 1, 28, 0
12, 108840, Note_on_c, 1, 28, 88
12, 108887, Note_on_c, 1, 28, 0
12, 108960, Note_on_c, 1, 28, 92
12, 109013, Note_on_c, 1, 28, 0
12, 109080, Note_on_c, 1, 26, 92
12, 109193, Note_on_c, 1, 26, 0
12, 109200, Note_on_c, 1, 26, 88
12, 109247, Note_on_c, 1, 26, 0
12, 109380, Note_on_c, 1, 26, 84
12, 109433, Note_on_c, 1, 26, 0
12, 109440, Note_on_c, 1, 37, 92
12, 109613, Note_on_c, 1, 37, 0
12, 109620, Note_on_c, 1, 37, 88
12, 109733, Note_on_c, 1, 37, 0
12, 109740, Note_on_c, 1, 36, 92
12, 109973, Note_on_c, 1, 36, 0
12, 109980, Note_on_c, 1, 36, 88
12, 110093, Note_on_c, 1, 36, 0
12, 110100, Note_on_c, 1, 27, 92
12, 110213, Note_on_c, 1, 27, 0
12, 110220, Note_on_c, 1, 27, 88
12, 110273, Note_on_c, 1, 27, 0
12, 110340, Note_on_c, 1, 32, 92
12, 110633, Note_on_c, 1, 32, 0
12, 110640, Note_on_c, 1, 32, 84
12, 110693, Note_on_c, 1, 32, 0
12, 110700, Note_on_c, 1, 32, 86
12, 110753, Note_on_c, 1, 32, 0
12, 110760, Note_on_c, 1, 34, 88
12, 110813, Note_on_c, 1, 34, 0
12, 110820, Note_on_c, 1, 36, 90
12, 110873, Note_on_c, 1, 36, 0
12, 110880, Note_on_c, 1, 37, 92
12, 111173, Note_on_c, 1, 37, 0
12, 111180, Note_on_c, 1, 37, 84
12, 111233, Note_on_c, 1, 37, 0
12, 111240, Note_on_c, 1, 37, 92
12, 111413, Note_on_c, 1, 37, 0
12, 111420, Note_on_c, 1, 37, 88
12, 111533, Note_on_c, 1, 37, 0
12, 111540, Note_on_c, 1, 29, 92
12, 111940, Note_on_c, 1, 29, 0
12, 111960, Note_on_c, 1, 29, 92
12, 112133, Note_on_c, 1, 29, 0
12, 112140, Note_on_c, 1, 29, 88
12, 112253, Note_on_c, 1, 29, 0
12, 112260, Note_on_c, 1, 29, 84
12, 112313, Note_on_c, 1, 29, 0
12, 112320, Note_on_c, 1, 34, 92
12, 112433, Note_on_c, 1, 34, 0
12, 112440, Note_on_c, 1, 34, 84
12, 112493, Note_on_c, 1, 34, 0
12, 112560, Note_on_c, 1, 34, 90
12, 112673, Note_on_c, 1, 34, 0
12, 112680, Note_on_c, 1, 39, 92
12, 112853, Note_on_c, 1, 39, 0
12, 112860, Note_on_c, 1, 39, 88
12, 112973, Note_on_c, 1, 39, 0
12, 112980, Note_on_c, 1, 36, 92
12, 113093, Note_on_c, 1, 36, 0
12, 113100, Note_on_c, 1, 36, 88
12, 113153, Note_on_c, 1, 36, 0
12, 113220, Note_on_c, 1, 29, 92
12, 113513, Note_on_c, 1, 29, 0
12, 113520, Note_on_c, 1, 29, 92
12, 113573, Note_on_c, 1, 29, 0
12, 113580, Note_on_c, 1, 29, 88
12, 113627, Note_on_c, 1, 29, 0
12, 113640, Note_on_c, 1, 29, 84
12, 113693, Note_on_c, 1, 29, 0
12, 113700, Note_on_c, 1, 29, 92
12, 113753, Note_on_c, 1, 29, 0
12, 113760, Note_on_c, 1, 34, 92
12, 114053, Note_on_c, 1, 34, 0
12, 114060, Note_on_c, 1, 34, 88
12, 114113, Note_on_c, 1, 34, 0
12, 114120, Note_on_c, 1, 36, 92
12, 114413, Note_on_c, 1, 36, 0
12, 114420, Note_on_c, 1, 36, 88
12, 114473, Note_on_c, 1, 36, 0
12, 114480, Note_on_c, 1, 37, 92
12, 114593, Note_on_c, 1, 37, 0
12, 114600, Note_on_c, 1, 37, 88
12, 114693, Note_on_c, 1, 37, 0
12, 114720, Note_on_c, 1, 37, 92
12, 114833, Note_on_c, 1, 37, 0
12, 114840, Note_on_c, 1, 39, 92
12, 114953, Note_on_c, 1, 39, 0
12, 114960, Note_on_c, 1, 39, 88
12, 115053, Note_on_c, 1, 39, 0
12, 115080, Note_on_c, 1, 38, 92
12, 115193, Note_on_c, 1, 38, 0
12, 115200, Control_c, 1, 11, 127
12, 115200, Note_on_c, 1, 37, 92
12, 115245, Control_c, 1, 11, 126
12, 115290, Control_c, 1, 11, 125
12, 115336, Control_c, 1, 11, 124
12, 115373, Note_on_c, 1, 37, 0
12, 115380, Note_on_c, 1, 37, 88
12, 115381, Control_c, 1, 11, 123
12, 115426, Control_c, 1, 11, 122
12, 115472, Control_c, 1, 11, 121
12, 115493, Note_on_c, 1, 37, 0
12, 115500, Note_on_c, 1, 36, 92
12, 115517, Control_c, 1, 11, 120
12, 115562, Control_c, 1, 11, 119
12, 115608, Control_c, 1, 11, 118
12, 115653, Control_c, 1, 11, 117
12, 115698, Control_c, 1, 11, 116
12, 115733, Note_on_c, 1, 36, 0
12, 115740, Note_on_c, 1, 36, 88
12, 115744, Control_c, 1, 11, 115
12, 115789, Control_c, 1, 11, 114
12, 115834, Control_c, 1, 11, 113
12, 115853, Note_on_c, 1, 36, 0
12, 115860, Note_on_c, 1, 27, 92
12, 115880, Control_c, 1, 11, 112
12, 115925, Control_c, 1, 11, 111
12, 115970, Control_c, 1, 11, 110
12, 115973, Note_on_c, 1, 27, 0
12, 115980, Note_on_c, 1, 27, 88
12, 116016, Control_c, 1, 11, 109
12, 116033, Note_on_c, 1, 27, 0
12, 116061, Control_c, 1, 11, 108
12, 116100, Note_on_c, 1, 32, 92
12, 116106, Control_c, 1, 11, 107
12, 116152, Control_c, 1, 11, 106
12, 116197, Control_c, 1, 11, 105
12, 116242, Control_c, 1, 11, 104
12, 116288, Control_c, 1, 11, 103
12, 116333, Control_c, 1, 11, 102
12, 116379, Control_c, 1, 11, 101
12, 116393, Note_on_c, 1, 32, 0
12, 116400, Note_on_c, 1, 32, 84
12, 116424, Control_c, 1, 11, 100
12, 116453, Note_on_c, 1, 32, 0
12, 116460, Note_on_c, 1, 32, 86
12, 116469, Control_c, 1, 11, 99
12, 116513, Note_on_c, 1, 32, 0
12, 116515, Control_c, 1, 11, 98
12, 116520, Note_on_c, 1, 34, 88
12, 116560, Control_c, 1, 11, 97
12, 116573, Note_on_c, 1, 34, 0
12, 116580, Note_on_c, 1, 36, 90
12, 116605, Control_c, 1, 11, 96
12, 116633, Note_on_c, 1, 36, 0
12, 116640, Note_on_c, 1, 37, 92
12, 116651, Control_c, 1, 11, 95
12, 116696, Control_c, 1, 11, 94
12, 116741, Control_c, 1, 11, 93
12, 116787, Control_c, 1, 11, 92
12, 116832, Control_c, 1, 11, 91
12, 116877, Control_c, 1, 11, 90
12, 116923, Control_c, 1, 11, 89
12, 116933, Note_on_c, 1, 37, 0
12, 116940, Note_on_c, 1, 37, 84
12, 116968, Control_c, 1, 11, 88
12, 116993, Note_on_c, 1, 37, 0
12, 117000, Note_on_c, 1, 37, 92
12, 117013, Control_c, 1, 11, 87
12, 117059, Control_c, 1, 11, 86
12, 117104, Control_c, 1, 11, 85
12, 117149, Control_c, 1, 11, 84
12, 117173, Note_on_c, 1, 37, 0
12, 117180, Note_on_c, 1, 37, 90
12, 117195, Control_c, 1, 11, 83
12, 117240, Control_c, 1, 11, 82
12, 117285, Control_c, 1, 11, 81
12, 117293, Note_on_c, 1, 37, 0
12, 117300, Note_on_c, 1, 29, 92
12, 117331, Control_c, 1, 11, 80
12, 117376, Control_c, 1, 11, 79
12, 117421, Control_c, 1, 11, 78
12, 117467, Control_c, 1, 11, 77
12, 117512, Control_c, 1, 11, 76
12, 117558, Control_c, 1, 11, 75
12, 117603, Control_c, 1, 11, 74
12, 117648, Control_c, 1, 11, 73
12, 117694, Control_c, 1, 11, 72
12, 117700, Note_on_c, 1, 29, 0
12, 117720, Note_on_c, 1, 29, 92
12, 117739, Control_c, 1, 11, 71
12, 117784, Control_c, 1, 11, 70
12, 117830, Control_c, 1, 11, 69
12, 117875, Control_c, 1, 11, 68
12, 117893, Note_on_c, 1, 29, 0
12, 117900, Note_on_c, 1, 29, 88
12, 117920, Control_c, 1, 11, 67
12, 117966, Control_c, 1, 11, 66
12, 117993, Note_on_c, 1, 29, 0
12, 118011, Control_c, 1, 11, 65
12, 118020, Note_on_c, 1, 29, 88
12, 118056, Control_c, 1, 11, 64
12, 118073, Note_on_c, 1, 29, 0
12, 118080, Note_on_c, 1, 34, 92
12, 118102, Control_c, 1, 11, 63
12, 118147, Control_c, 1, 11, 62
12, 118192, Control_c, 1, 11, 61
12, 118193, Note_on_c, 1, 34, 0
12, 118200, Note_on_c, 1, 34, 92
12, 118238, Control_c, 1, 11, 60
12, 118253, Note_on_c, 1, 34, 0
12, 118283, Control_c, 1, 11, 59
12, 118320, Note_on_c, 1, 34, 88
12, 118328, Control_c, 1, 11, 58
12, 118374, Control_c, 1, 11, 57
12, 118419, Control_c, 1, 11, 56
12, 118433, Note_on_c, 1, 34, 0
12, 118440, Note_on_c, 1, 39, 92
12, 118464, Control_c, 1, 11, 55
12, 118510, Control_c, 1, 11, 54
12, 118555, Control_c, 1, 11, 53
12, 118600, Control_c, 1, 11, 52
12, 118613, Note_on_c, 1, 39, 0
12, 118620, Note_on_c, 1, 39, 88
12, 118646, Control_c, 1, 11, 51
12, 118691, Control_c, 1, 11, 50
12, 118733, Note_on_c, 1, 39, 0
12, 118737, Control_c, 1, 11, 49
12, 118740, Note_on_c, 1, 36, 92
12, 118782, Control_c, 1, 11, 48
12, 118827, Control_c, 1, 11, 47
12, 118853, Note_on_c, 1, 36, 0
12, 118860, Note_on_c, 1, 36, 88
12, 118873, Control_c, 1, 11, 46
12, 118913, Note_on_c, 1, 36, 0
12, 118918, Control_c, 1, 11, 45
12, 118963, Control_c, 1, 11, 44
12, 118980, Note_on_c, 1, 29, 92
12, 119009, Control_c, 1, 11, 43
12, 119054, Control_c, 1, 11, 42
12, 119099, Control_c, 1, 11, 41
12, 119145, Control_c, 1, 11, 40
12, 119190, Control_c, 1, 11, 39
12, 119235, Control_c, 1, 11, 38
12, 119273, Note_on_c, 1, 29, 0
12, 119280, Note_on_c, 1, 29, 84
12, 119281, Control_c, 1, 11, 37
12, 119326, Control_c, 1, 11, 36
12, 119333, Note_on_c, 1, 29, 0
12, 119340, Note_on_c, 1, 29, 92
12, 119371, Control_c, 1, 11, 35
12, 119393, Note_on_c, 1, 29, 0
12, 119400, Note_on_c, 1, 29, 88
12, 119417, Control_c, 1, 11, 34
12, 119447, Note_on_c, 1, 29, 0
12, 119460, Note_on_c, 1, 29, 90
12, 119462, Control_c, 1, 11, 33
12, 119507, Control_c, 1, 11, 32
12, 119513, Note_on_c, 1, 29, 0
12, 119520, Note_on_c, 1, 34, 92
12, 119553, Control_c, 1, 11, 31
12, 119598, Control_c, 1, 11, 30
12, 119643, Control_c, 1, 11, 29
12, 119689, Control_c, 1, 11, 28
12, 119734, Control_c, 1, 11, 27
12, 119779, Control_c, 1, 11, 26
12, 119813, Note_on_c, 1, 34, 0
12, 119820, Note_on_c, 1, 34, 88
12, 119825, Control_c, 1, 11, 25
12, 119870, Control_c, 1, 11, 24
12, 119873, Note_on_c, 1, 34, 0
12, 119880, Note_on_c, 1, 36, 92
12, 119916, Control_c, 1, 11, 23
12, 119961, Control_c, 1, 11, 22
12, 120006, Control_c, 1, 11, 21
12, 120052, Control_c, 1, 11, 20
12, 120097, Control_c, 1, 11, 19
12, 120142, Control_c, 1, 11, 18
12, 120173, Note_on_c, 1, 36, 0
12, 120180, Note_on_c, 1, 36, 88
12, 120188, Control_c, 1, 11, 17
12, 120233, Note_on_c, 1, 36, 0
12, 120233, Control_c, 1, 11, 16
12, 120240, Note_on_c, 1, 28, 92
12, 120278, Control_c, 1, 11, 15
12, 120324, Control_c, 1, 11, 14
12, 120353, Note_on_c, 1, 28, 0
12, 120360, Note_on_c, 1, 28, 92
12, 120369, Control_c, 1, 11, 13
12, 120413, Note_on_c, 1, 28, 0
12, 120414, Control_c, 1, 11, 12
12, 120460, Control_c, 1, 11, 11
12, 120480, Note_on_c, 1, 28, 92
12, 120505, Control_c, 1, 11, 10
12, 120533, Note_on_c, 1, 28, 0
12, 120550, Control_c, 1, 11, 9
12, 120596, Control_c, 1, 11, 8
12, 120600, Note_on_c, 1, 26, 92
12, 120641, Control_c, 1, 11, 7
12, 120686, Control_c, 1, 11, 6
12, 120713, Note_on_c, 1, 26, 0
12, 120720, Note_on_c, 1, 26, 92
12, 120732, Control_c, 1, 11, 5
12, 120773, Note_on_c, 1, 26, 0
12, 120777, Control_c, 1, 11, 4
12, 120822, Control_c, 1, 11, 3
12, 120868, Control_c, 1, 11, 2
12, 120900, Note_on_c, 1, 26, 92
12, 120913, Control_c, 1, 11, 1
12, 120953, Note_on_c, 1, 26, 0
12, 120959, Control_c, 1, 11, 0
12, 121397, Control_c, 1, 121, 0
12, 121397, End_track
13, 0, Start_track
13, 0, MIDI_port, 0
13, 0, Title_t, "Sax"
13, 60, Control_c, 2, 121, 0
13, 61, Control_c, 2, 0, 0
13, 61, Control_c, 2, 32, 0
13, 61, Program_c, 2, 64
13, 62, Control_c, 2, 7, 104
13, 63, Control_c, 2, 10, 62
13, 64, Control_c, 2, 91, 48
13, 65, Control_c, 2, 93, 5
13, 66, Control_c, 2, 99, 1
13, 67, Control_c, 2, 98, 32
13, 68, Control_c, 2, 6, 66
13, 69, Control_c, 2, 101, 0
13, 70, Control_c, 2, 100, 1
13, 71, Control_c, 2, 6, 68
13, 72, Control_c, 2, 32, 0
13, 73, Control_c, 2, 101, 127
13, 74, Control_c, 2, 100, 127
13, 7319, Pitch_bend_c, 2, 4096
13, 7320, Note_on_c, 2, 76, 120
13, 7336, Pitch_bend_c, 2, 8192
13, 7425, Pitch_bend_c, 2, 6144
13, 7439, Pitch_bend_c, 2, 6912
13, 7440, Note_on_c, 2, 76, 0
13, 7440, Note_on_c, 2, 72, 127
13, 7456, Pitch_bend_c, 2, 8192
13, 7515, Note_on_c, 2, 72, 0
13, 7559, Pitch_bend_c, 2, 9472
13, 7560, Note_on_c, 2, 72, 120
13, 7576, Pitch_bend_c, 2, 8192
13, 7710, Pitch_bend_c, 2, 6144
13, 7739, Note_on_c, 2, 72, 0
13, 7739, Pitch_bend_c, 2, 8192
13, 7740, Note_on_c, 2, 69, 120
13, 7830, Note_on_c, 2, 69, 0
13, 7859, Pitch_bend_c, 2, 6912
13, 7860, Note_on_c, 2, 69, 120
13, 7876, Pitch_bend_c, 2, 8192
13, 7950, Pitch_bend_c, 2, 6144
13, 7979, Pitch_bend_c, 2, 8192
13, 7980, Note_on_c, 2, 65, 125
13, 8019, Note_on_c, 2, 69, 0
13, 8070, Note_on_c, 2, 65, 0
13, 8099, Pitch_bend_c, 2, 9872
13, 8100, Note_on_c, 2, 65, 127
13, 8116, Pitch_bend_c, 2, 8192
13, 8160, Control_c, 2, 1, 8
13, 8190, Control_c, 2, 1, 16
13, 8459, Note_on_c, 2, 65, 0
13, 8459, Pitch_bend_c, 2, 6144
13, 8459, Control_c, 2, 1, 0
13, 8460, Note_on_c, 2, 67, 120
13, 8472, Pitch_bend_c, 2, 8192
13, 8579, Pitch_bend_c, 2, 6143
13, 8580, Note_on_c, 2, 67, 0
13, 8580, Note_on_c, 2, 67, 127
13, 8596, Pitch_bend_c, 2, 8192
13, 8670, Note_on_c, 2, 67, 0
13, 10199, Pitch_bend_c, 2, 128
13, 10200, Note_on_c, 2, 76, 120
13, 10216, Pitch_bend_c, 2, 8192
13, 10319, Pitch_bend_c, 2, 9472
13, 10320, Note_on_c, 2, 76, 0
13, 10320, Note_on_c, 2, 72, 127
13, 10336, Pitch_bend_c, 2, 8192
13, 10395, Note_on_c, 2, 72, 0
13, 10438, Pitch_bend_c, 2, 9472
13, 10440, Note_on_c, 2, 72, 120
13, 10456, Pitch_bend_c, 2, 8192
13, 10620, Note_on_c, 2, 72, 0
13, 10620, Note_on_c, 2, 69, 120
13, 10710, Note_on_c, 2, 69, 0
13, 10739, Pitch_bend_c, 2, 6912
13, 10740, Note_on_c, 2, 69, 120
13, 10756, Pitch_bend_c, 2, 8192
13, 10845, Pitch_bend_c, 2, 6144
13, 10860, Note_on_c, 2, 69, 0
13, 10860, Pitch_bend_c, 2, 8192
13, 10860, Note_on_c, 2, 65, 125
13, 10920, Note_on_c, 2, 65, 0
13, 10980, Pitch_bend_c, 2, 7152
13, 10980, Note_on_c, 2, 67, 127
13, 10996, Pitch_bend_c, 2, 8192
13, 11070, Control_c, 2, 1, 8
13, 11100, Control_c, 2, 1, 16
13, 11279, Control_c, 2, 1, 0
13, 11280, Note_on_c, 2, 67, 0
13, 11280, Note_on_c, 2, 63, 120
13, 11339, Pitch_bend_c, 2, 7152
13, 11399, Pitch_bend_c, 2, 8192
13, 11400, Note_on_c, 2, 63, 0
13, 11400, Note_on_c, 2, 60, 127
13, 11476, Pitch_bend_c, 2, 8192
13, 11520, Note_on_c, 2, 60, 0
13, 11520, Note_on_c, 2, 65, 127
13, 11700, Control_c, 2, 1, 8
13, 11820, Control_c, 2, 1, 24
13, 12060, Control_c, 2, 11, 127
13, 12068, Control_c, 2, 11, 126
13, 12076, Control_c, 2, 11, 125
13, 12084, Control_c, 2, 11, 124
13, 12092, Control_c, 2, 11, 123
13, 12100, Control_c, 2, 11, 122
13, 12108, Control_c, 2, 11, 121
13, 12116, Control_c, 2, 11, 120
13, 12124, Control_c, 2, 11, 119
13, 12132, Control_c, 2, 11, 118
13, 12140, Control_c, 2, 11, 117
13, 12148, Control_c, 2, 11, 116
13, 12156, Control_c, 2, 11, 115
13, 12164, Control_c, 2, 11, 114
13, 12172, Control_c, 2, 11, 113
13, 12180, Control_c, 2, 11, 112
13, 12188, Control_c, 2, 11, 111
13, 12196, Control_c, 2, 11, 110
13, 12204, Control_c, 2, 11, 109
13, 12212, Control_c, 2, 11, 108
13, 12220, Control_c, 2, 11, 107
13, 12228, Control_c, 2, 11, 106
13, 12236, Control_c, 2, 11, 105
13, 12240, Note_on_c, 2, 65, 0
13, 12244, Control_c, 2, 11, 104
13, 12252, Control_c, 2, 11, 103
13, 12260, Control_c, 2, 11, 102
13, 12268, Control_c, 2, 11, 101
13, 12276, Control_c, 2, 11, 100
13, 12284, Control_c, 2, 11, 99
13, 12292, Control_c, 2, 11, 98
13, 12300, Control_c, 2, 11, 97
13, 12308, Control_c, 2, 11, 96
13, 12316, Control_c, 2, 11, 95
13, 12324, Control_c, 2, 11, 94
13, 12332, Control_c, 2, 11, 93
13, 12340, Control_c, 2, 11, 92
13, 12348, Control_c, 2, 11, 91
13, 12356, Control_c, 2, 11, 90
13, 12364, Control_c, 2, 11, 89
13, 12372, Control_c, 2, 11, 88
13, 12380, Control_c, 2, 11, 87
13, 12388, Control_c, 2, 11, 86
13, 12396, Control_c, 2, 11, 85
13, 12405, Control_c, 2, 11, 84
13, 12413, Control_c, 2, 11, 83
13, 12420, Control_c, 2, 1, 0
13, 12421, Control_c, 2, 11, 82
13, 12429, Control_c, 2, 11, 81
13, 12437, Control_c, 2, 11, 80
13, 12445, Control_c, 2, 11, 79
13, 12453, Control_c, 2, 11, 78
13, 12461, Control_c, 2, 11, 77
13, 12469, Control_c, 2, 11, 76
13, 12477, Control_c, 2, 11, 75
13, 12485, Control_c, 2, 11, 74
13, 12493, Control_c, 2, 11, 73
13, 12501, Control_c, 2, 11, 72
13, 12509, Control_c, 2, 11, 71
13, 12517, Control_c, 2, 11, 70
13, 12525, Control_c, 2, 11, 69
13, 12533, Control_c, 2, 11, 68
13, 12541, Control_c, 2, 11, 67
13, 12549, Control_c, 2, 11, 66
13, 12557, Control_c, 2, 11, 65
13, 12565, Control_c, 2, 11, 64
13, 12573, Control_c, 2, 11, 63
13, 12581, Control_c, 2, 11, 62
13, 12589, Control_c, 2, 11, 61
13, 12597, Control_c, 2, 11, 60
13, 12605, Control_c, 2, 11, 59
13, 12613, Control_c, 2, 11, 58
13, 12621, Control_c, 2, 11, 57
13, 12629, Control_c, 2, 11, 56
13, 12637, Control_c, 2, 11, 55
13, 12645, Control_c, 2, 11, 54
13, 12653, Control_c, 2, 11, 53
13, 12661, Control_c, 2, 11, 52
13, 12669, Control_c, 2, 11, 51
13, 12677, Control_c, 2, 11, 50
13, 12685, Control_c, 2, 11, 49
13, 12693, Control_c, 2, 11, 48
13, 12701, Control_c, 2, 11, 47
13, 12709, Control_c, 2, 11, 46
13, 12717, Control_c, 2, 11, 45
13, 12725, Control_c, 2, 11, 44
13, 12733, Control_c, 2, 11, 43
13, 12742, Control_c, 2, 11, 42
13, 12750, Control_c, 2, 11, 41
13, 12758, Control_c, 2, 11, 40
13, 12766, Control_c, 2, 11, 39
13, 12774, Control_c, 2, 11, 38
13, 12782, Control_c, 2, 11, 37
13, 12790, Control_c, 2, 11, 36
13, 12798, Control_c, 2, 11, 35
13, 12806, Control_c, 2, 11, 34
13, 12814, Control_c, 2, 11, 33
13, 12822, Control_c, 2, 11, 32
13, 12830, Control_c, 2, 11, 31
13, 12838, Control_c, 2, 11, 30
13, 12846, Control_c, 2, 11, 29
13, 12854, Control_c, 2, 11, 28
13, 12862, Control_c, 2, 11, 27
13, 12870, Control_c, 2, 11, 26
13, 12878, Control_c, 2, 11, 25
13, 12886, Control_c, 2, 11, 24
13, 12894, Control_c, 2, 11, 23
13, 12902, Control_c, 2, 11, 22
13, 12910, Control_c, 2, 11, 21
13, 12918, Control_c, 2, 11, 20
13, 12926, Control_c, 2, 11, 19
13, 12934, Control_c, 2, 11, 18
13, 12942, Control_c, 2, 11, 17
13, 12950, Control_c, 2, 11, 16
13, 12958, Control_c, 2, 11, 15
13, 12966, Control_c, 2, 11, 14
13, 12974, Control_c, 2, 11, 13
13, 12982, Control_c, 2, 11, 12
13, 12990, Control_c, 2, 11, 11
13, 12998, Control_c, 2, 11, 10
13, 13006, Control_c, 2, 11, 9
13, 13014, Control_c, 2, 11, 8
13, 13022, Control_c, 2, 11, 7
13, 13030, Control_c, 2, 11, 6
13, 13038, Control_c, 2, 11, 5
13, 13046, Control_c, 2, 11, 4
13, 13054, Control_c, 2, 11, 3
13, 13062, Control_c, 2, 11, 2
13, 13070, Control_c, 2, 11, 1
13, 13079, Pitch_bend_c, 2, 0
13, 13079, Control_c, 2, 11, 127
13, 13080, Note_on_c, 2, 72, 127
13, 13096, Pitch_bend_c, 2, 8192
13, 13200, Note_on_c, 2, 72, 0
13, 13200, Note_on_c, 2, 68, 127
13, 13290, Note_on_c, 2, 68, 0
13, 13320, Pitch_bend_c, 2, 6144
13, 13320, Note_on_c, 2, 68, 127
13, 13320, Pitch_bend_c, 2, 8192
13, 13440, Pitch_bend_c, 2, 7168
13, 13500, Note_on_c, 2, 68, 0
13, 13500, Pitch_bend_c, 2, 8192
13, 13500, Note_on_c, 2, 65, 127
13, 13605, Note_on_c, 2, 65, 0
13, 13620, Note_on_c, 2, 65, 127
13, 13695, Note_on_c, 2, 65, 0
13, 13740, Note_on_c, 2, 70, 127
13, 13796, Note_on_c, 2, 70, 0
13, 13800, Note_on_c, 2, 72, 127
13, 13875, Note_on_c, 2, 72, 0
13, 13875, Note_on_c, 2, 68, 127
13, 14190, Pitch_bend_c, 2, 7168
13, 14219, Pitch_bend_c, 2, 4096
13, 14220, Note_on_c, 2, 63, 127
13, 14228, Pitch_bend_c, 2, 8192
13, 14235, Note_on_c, 2, 68, 0
13, 14340, Note_on_c, 2, 63, 0
13, 14340, Note_on_c, 2, 63, 127
13, 14460, Note_on_c, 2, 68, 127
13, 14490, Note_on_c, 2, 63, 0
13, 14505, Pitch_bend_c, 2, 7168
13, 14535, Note_on_c, 2, 68, 0
13, 14580, Pitch_bend_c, 2, 8192
13, 14580, Note_on_c, 2, 65, 127
13, 14699, Control_c, 2, 1, 8
13, 14819, Control_c, 2, 1, 16
13, 14940, Control_c, 2, 11, 127
13, 14944, Control_c, 2, 11, 126
13, 14949, Control_c, 2, 11, 125
13, 14954, Control_c, 2, 11, 124
13, 14959, Control_c, 2, 11, 123
13, 14964, Control_c, 2, 11, 122
13, 14969, Control_c, 2, 11, 121
13, 14973, Control_c, 2, 11, 120
13, 14978, Control_c, 2, 11, 119
13, 14983, Control_c, 2, 11, 118
13, 14988, Control_c, 2, 11, 117
13, 14993, Control_c, 2, 11, 116
13, 14998, Control_c, 2, 11, 115
13, 15002, Control_c, 2, 11, 114
13, 15007, Control_c, 2, 11, 113
13, 15012, Control_c, 2, 11, 112
13, 15017, Control_c, 2, 11, 111
13, 15022, Control_c, 2, 11, 110
13, 15027, Control_c, 2, 11, 109
13, 15031, Control_c, 2, 11, 108
13, 15036, Control_c, 2, 11, 107
13, 15041, Control_c, 2, 11, 106
13, 15046, Control_c, 2, 11, 105
13, 15051, Control_c, 2, 11, 104
13, 15056, Control_c, 2, 11, 103
13, 15060, Control_c, 2, 11, 102
13, 15065, Control_c, 2, 11, 101
13, 15070, Control_c, 2, 11, 100
13, 15075, Control_c, 2, 11, 99
13, 15080, Control_c, 2, 11, 98
13, 15085, Control_c, 2, 11, 97
13, 15089, Control_c, 2, 11, 96
13, 15094, Control_c, 2, 11, 95
13, 15099, Control_c, 2, 11, 94
13, 15104, Control_c, 2, 11, 93
13, 15109, Control_c, 2, 11, 92
13, 15114, Control_c, 2, 11, 91
13, 15119, Control_c, 2, 11, 90
13, 15119, Control_c, 2, 1, 0
13, 15120, Note_on_c, 2, 65, 0
13, 15359, Control_c, 2, 11, 127
13, 15360, Note_on_c, 2, 67, 127
13, 15420, Note_on_c, 2, 67, 0
13, 15420, Note_on_c, 2, 68, 127
13, 15479, Note_on_c, 2, 68, 0
13, 15479, Pitch_bend_c, 2, 4096
13, 15480, Note_on_c, 2, 67, 127
13, 15494, Pitch_bend_c, 2, 8192
13, 15600, Note_on_c, 2, 67, 0
13, 15600, Note_on_c, 2, 65, 127
13, 15720, Note_on_c, 2, 65, 0
13, 15720, Note_on_c, 2, 63, 127
13, 15770, Pitch_bend_c, 2, 7168
13, 15839, Note_on_c, 2, 63, 0
13, 15840, Note_on_c, 2, 60, 127
13, 15856, Pitch_bend_c, 2, 8192
13, 16020, Note_on_c, 2, 60, 0
13, 16020, Note_on_c, 2, 65, 127
13, 16139, Pitch_bend_c, 2, 4096
13, 16140, Note_on_c, 2, 65, 0
13, 16140, Note_on_c, 2, 65, 127
13, 16156, Pitch_bend_c, 2, 8192
13, 16199, Control_c, 2, 1, 8
13, 16259, Control_c, 2, 1, 16
13, 16560, Note_on_c, 2, 65, 0
13, 20279, Control_c, 2, 11, 127
13, 20279, Control_c, 2, 1, 0
13, 20279, Pitch_bend_c, 2, 4096
13, 20280, Note_on_c, 2, 76, 120
13, 20296, Pitch_bend_c, 2, 8192
13, 20385, Pitch_bend_c, 2, 6144
13, 20399, Pitch_bend_c, 2, 6912
13, 20400, Note_on_c, 2, 76, 0
13, 20400, Note_on_c, 2, 72, 127
13, 20416, Pitch_bend_c, 2, 8192
13, 20475, Note_on_c, 2, 72, 0
13, 20519, Pitch_bend_c, 2, 9472
13, 20520, Note_on_c, 2, 72, 120
13, 20536, Pitch_bend_c, 2, 8192
13, 20670, Pitch_bend_c, 2, 6144
13, 20699, Note_on_c, 2, 72, 0
13, 20699, Pitch_bend_c, 2, 8192
13, 20700, Note_on_c, 2, 69, 120
13, 20790, Note_on_c, 2, 69, 0
13, 20819, Pitch_bend_c, 2, 6912
13, 20820, Note_on_c, 2, 69, 120
13, 20836, Pitch_bend_c, 2, 8192
13, 20910, Pitch_bend_c, 2, 6144
13, 20939, Pitch_bend_c, 2, 8192
13, 20940, Note_on_c, 2, 65, 125
13, 20979, Note_on_c, 2, 69, 0
13, 21030, Note_on_c, 2, 65, 0
13, 21059, Pitch_bend_c, 2, 9872
13, 21060, Note_on_c, 2, 65, 127
13, 21076, Pitch_bend_c, 2, 8192
13, 21120, Control_c, 2, 1, 8
13, 21150, Control_c, 2, 1, 16
13, 21419, Note_on_c, 2, 65, 0
13, 21419, Pitch_bend_c, 2, 6144
13, 21419, Control_c, 2, 1, 0
13, 21420, Note_on_c, 2, 67, 120
13, 21432, Pitch_bend_c, 2, 8192
13, 21539, Pitch_bend_c, 2, 6143
13, 21540, Note_on_c, 2, 67, 0
13, 21540, Note_on_c, 2, 67, 127
13, 21552, Pitch_bend_c, 2, 8192
13, 21556, Pitch_bend_c, 2, 8192
13, 21630, Note_on_c, 2, 67, 0
13, 23159, Pitch_bend_c, 2, 128
13, 23160, Note_on_c, 2, 76, 120
13, 23176, Pitch_bend_c, 2, 8192
13, 23279, Pitch_bend_c, 2, 9472
13, 23280, Note_on_c, 2, 76, 0
13, 23280, Note_on_c, 2, 72, 127
13, 23296, Pitch_bend_c, 2, 8192
13, 23355, Note_on_c, 2, 72, 0
13, 23398, Pitch_bend_c, 2, 9472
13, 23400, Note_on_c, 2, 72, 120
13, 23416, Pitch_bend_c, 2, 8192
13, 23522, Pitch_bend_c, 2, 8192
13, 23532, Pitch_bend_c, 2, 8064
13, 23537, Pitch_bend_c, 2, 7936
13, 23540, Pitch_bend_c, 2, 7808
13, 23545, Pitch_bend_c, 2, 7552
13, 23547, Pitch_bend_c, 2, 7424
13, 23550, Pitch_bend_c, 2, 7296
13, 23552, Pitch_bend_c, 2, 7040
13, 23555, Pitch_bend_c, 2, 6784
13, 23557, Pitch_bend_c, 2, 6528
13, 23560, Pitch_bend_c, 2, 6144
13, 23562, Pitch_bend_c, 2, 5760
13, 23565, Pitch_bend_c, 2, 5376
13, 23567, Pitch_bend_c, 2, 4992
13, 23570, Pitch_bend_c, 2, 4608
13, 23572, Pitch_bend_c, 2, 4352
13, 23575, Pitch_bend_c, 2, 4224
13, 23577, Pitch_bend_c, 2, 1152
13, 23580, Note_on_c, 2, 72, 0
13, 23580, Note_on_c, 2, 69, 120
13, 23580, Pitch_bend_c, 2, 8192
13, 23670, Note_on_c, 2, 69, 0
13, 23699, Pitch_bend_c, 2, 6912
13, 23700, Note_on_c, 2, 69, 120
13, 23716, Pitch_bend_c, 2, 8192
13, 23805, Pitch_bend_c, 2, 6144
13, 23819, Pitch_bend_c, 2, 8192
13, 23820, Note_on_c, 2, 69, 0
13, 23820, Note_on_c, 2, 65, 125
13, 23836, Pitch_bend_c, 2, 8192
13, 23880, Note_on_c, 2, 65, 0
13, 23939, Pitch_bend_c, 2, 7152
13, 23940, Note_on_c, 2, 70, 127
13, 23965, Pitch_bend_c, 2, 8192
13, 24030, Control_c, 2, 1, 16
13, 24060, Control_c, 2, 1, 24
13, 24299, Control_c, 2, 1, 0
13, 24299, Pitch_bend_c, 2, 7152
13, 24359, Note_on_c, 2, 70, 0
13, 24359, Pitch_bend_c, 2, 8192
13, 24360, Note_on_c, 2, 68, 120
13, 24420, Note_on_c, 2, 68, 0
13, 24420, Note_on_c, 2, 67, 127
13, 24436, Pitch_bend_c, 2, 8192
13, 24480, Note_on_c, 2, 67, 0
13, 24480, Note_on_c, 2, 65, 127
13, 24660, Control_c, 2, 1, 16
13, 24780, Control_c, 2, 1, 24
13, 25200, Note_on_c, 2, 65, 0
13, 25380, Control_c, 2, 1, 0
13, 26038, Pitch_bend_c, 2, 0
13, 26040, Note_on_c, 2, 72, 127
13, 26056, Pitch_bend_c, 2, 8192
13, 26160, Note_on_c, 2, 72, 0
13, 26160, Note_on_c, 2, 68, 127
13, 26250, Note_on_c, 2, 68, 0
13, 26280, Pitch_bend_c, 2, 6144
13, 26280, Note_on_c, 2, 68, 127
13, 26280, Pitch_bend_c, 2, 8192
13, 26400, Pitch_bend_c, 2, 7168
13, 26460, Note_on_c, 2, 68, 0
13, 26460, Note_on_c, 2, 65, 127
13, 26460, Pitch_bend_c, 2, 8192
13, 26560, Note_on_c, 2, 65, 0
13, 26580, Note_on_c, 2, 65, 127
13, 26655, Note_on_c, 2, 65, 0
13, 26700, Note_on_c, 2, 70, 127
13, 26756, Note_on_c, 2, 70, 0
13, 26756, Note_on_c, 2, 72, 127
13, 26831, Note_on_c, 2, 72, 0
13, 26835, Note_on_c, 2, 68, 127
13, 27150, Pitch_bend_c, 2, 7168
13, 27179, Pitch_bend_c, 2, 6144
13, 27180, Note_on_c, 2, 68, 0
13, 27180, Note_on_c, 2, 63, 127
13, 27188, Pitch_bend_c, 2, 8192
13, 27300, Note_on_c, 2, 63, 0
13, 27300, Note_on_c, 2, 63, 127
13, 27420, Note_on_c, 2, 68, 127
13, 27450, Note_on_c, 2, 63, 0
13, 27465, Pitch_bend_c, 2, 7168
13, 27495, Note_on_c, 2, 68, 0
13, 27540, Pitch_bend_c, 2, 8192
13, 27540, Note_on_c, 2, 65, 127
13, 27659, Control_c, 2, 1, 16
13, 27779, Control_c, 2, 1, 24
13, 28019, Control_c, 2, 1, 0
13, 28080, Note_on_c, 2, 65, 0
13, 28320, Note_on_c, 2, 67, 127
13, 28380, Note_on_c, 2, 67, 0
13, 28380, Note_on_c, 2, 68, 127
13, 28439, Note_on_c, 2, 68, 0
13, 28439, Pitch_bend_c, 2, 4096
13, 28440, Note_on_c, 2, 67, 127
13, 28454, Pitch_bend_c, 2, 8192
13, 28560, Note_on_c, 2, 67, 0
13, 28560, Note_on_c, 2, 65, 127
13, 28680, Note_on_c, 2, 65, 0
13, 28680, Note_on_c, 2, 63, 127
13, 28730, Pitch_bend_c, 2, 7168
13, 28799, Note_on_c, 2, 63, 0
13, 28800, Note_on_c, 2, 60, 127
13, 28816, Pitch_bend_c, 2, 8192
13, 28980, Note_on_c, 2, 60, 0
13, 28980, Note_on_c, 2, 65, 127
13, 29099, Pitch_bend_c, 2, 4096
13, 29100, Note_on_c, 2, 65, 0
13, 29100, Note_on_c, 2, 65, 127
13, 29116, Pitch_bend_c, 2, 8192
13, 29159, Control_c, 2, 1, 16
13, 29219, Control_c, 2, 1, 24
13, 29520, Note_on_c, 2, 65, 0
13, 29880, Note_on_c, 2, 67, 120
13, 30000, Note_on_c, 2, 67, 0
13, 30000, Note_on_c, 2, 65, 120
13, 30120, Note_on_c, 2, 65, 0
13, 30120, Note_on_c, 2, 63, 120
13, 30240, Note_on_c, 2, 63, 0
13, 30240, Note_on_c, 2, 62, 120
13, 30420, Control_c, 2, 1, 16
13, 30450, Control_c, 2, 1, 24
13, 30600, Control_c, 2, 1, 0
13, 30960, Note_on_c, 2, 62, 0
13, 31680, Note_on_c, 2, 65, 127
13, 31740, Note_on_c, 2, 65, 0
13, 31740, Note_on_c, 2, 68, 127
13, 31860, Note_on_c, 2, 68, 0
13, 31860, Note_on_c, 2, 68, 127
13, 31980, Note_on_c, 2, 68, 0
13, 31980, Note_on_c, 2, 68, 127
13, 32040, Note_on_c, 2, 68, 0
13, 32100, Note_on_c, 2, 63, 127
13, 32160, Note_on_c, 2, 63, 0
13, 32160, Note_on_c, 2, 65, 127
13, 32220, Note_on_c, 2, 65, 0
13, 32220, Note_on_c, 2, 68, 127
13, 32340, Note_on_c, 2, 68, 0
13, 32340, Note_on_c, 2, 68, 127
13, 32460, Note_on_c, 2, 68, 0
13, 32460, Note_on_c, 2, 70, 127
13, 32535, Note_on_c, 2, 70, 0
13, 32580, Note_on_c, 2, 72, 127
13, 32640, Control_c, 2, 1, 16
13, 32759, Control_c, 2, 1, 0
13, 32940, Note_on_c, 2, 72, 0
13, 33120, Note_on_c, 2, 65, 127
13, 33180, Note_on_c, 2, 65, 0
13, 33180, Note_on_c, 2, 68, 127
13, 33300, Note_on_c, 2, 68, 0
13, 33300, Note_on_c, 2, 68, 127
13, 33420, Note_on_c, 2, 68, 0
13, 33420, Note_on_c, 2, 75, 127
13, 33600, Note_on_c, 2, 75, 0
13, 33600, Note_on_c, 2, 73, 127
13, 33750, Note_on_c, 2, 73, 0
13, 33750, Note_on_c, 2, 72, 127
13, 33780, Pitch_bend_c, 2, 12288
13, 33810, Note_on_c, 2, 72, 0
13, 33810, Note_on_c, 2, 72, 127
13, 33810, Pitch_bend_c, 2, 8192
13, 33840, Note_on_c, 2, 72, 0
13, 33840, Note_on_c, 2, 70, 127
13, 33900, Control_c, 2, 1, 16
13, 34020, Control_c, 2, 1, 0
13, 34200, Note_on_c, 2, 70, 0
13, 34260, Note_on_c, 2, 63, 127
13, 34320, Note_on_c, 2, 63, 0
13, 34320, Note_on_c, 2, 65, 127
13, 34380, Note_on_c, 2, 65, 0
13, 34380, Note_on_c, 2, 67, 127
13, 34440, Note_on_c, 2, 67, 0
13, 34440, Note_on_c, 2, 68, 127
13, 34500, Note_on_c, 2, 68, 0
13, 34500, Note_on_c, 2, 70, 127
13, 34560, Note_on_c, 2, 70, 0
13, 34560, Note_on_c, 2, 72, 127
13, 34680, Note_on_c, 2, 72, 0
13, 34680, Note_on_c, 2, 73, 127
13, 34740, Note_on_c, 2, 73, 0
13, 34800, Note_on_c, 2, 68, 127
13, 34875, Note_on_c, 2, 68, 0
13, 34920, Note_on_c, 2, 70, 120
13, 35100, Note_on_c, 2, 70, 0
13, 35100, Note_on_c, 2, 70, 125
13, 35220, Note_on_c, 2, 70, 0
13, 35220, Note_on_c, 2, 72, 120
13, 35340, Note_on_c, 2, 72, 0
13, 35340, Note_on_c, 2, 75, 116
13, 35415, Note_on_c, 2, 75, 0
13, 35460, Note_on_c, 2, 68, 127
13, 35880, Note_on_c, 2, 68, 0
13, 35940, Note_on_c, 2, 68, 127
13, 36000, Note_on_c, 2, 68, 0
13, 36000, Note_on_c, 2, 77, 127
13, 36180, Note_on_c, 2, 77, 0
13, 36180, Note_on_c, 2, 78, 110
13, 36220, Pitch_bend_c, 2, 4096
13, 36260, Note_on_c, 2, 78, 0
13, 36260, Note_on_c, 2, 75, 120
13, 36260, Pitch_bend_c, 2, 8192
13, 36300, Pitch_bend_c, 2, 128
13, 36340, Note_on_c, 2, 75, 0
13, 36340, Pitch_bend_c, 2, 8192
13, 36360, Note_on_c, 2, 75, 120
13, 36540, Note_on_c, 2, 75, 0
13, 36600, Note_on_c, 2, 68, 127
13, 36660, Note_on_c, 2, 68, 0
13, 36660, Note_on_c, 2, 70, 127
13, 36720, Note_on_c, 2, 70, 0
13, 36720, Note_on_c, 2, 71, 127
13, 36810, Note_on_c, 2, 71, 0
13, 36840, Note_on_c, 2, 71, 127
13, 36960, Note_on_c, 2, 71, 0
13, 36960, Note_on_c, 2, 73, 127
13, 37080, Note_on_c, 2, 73, 0
13, 37080, Note_on_c, 2, 70, 127
13, 37155, Note_on_c, 2, 70, 0
13, 37200, Note_on_c, 2, 66, 127
13, 37320, Note_on_c, 2, 66, 0
13, 37320, Note_on_c, 2, 65, 127
13, 37440, Note_on_c, 2, 65, 0
13, 37440, Note_on_c, 2, 63, 127
13, 37620, Control_c, 2, 1, 16
13, 37680, Control_c, 2, 1, 24
13, 38040, Control_c, 2, 1, 0
13, 38160, Note_on_c, 2, 63, 0
13, 74999, Control_c, 2, 11, 127
13, 74999, Control_c, 2, 1, 0
13, 74999, Pitch_bend_c, 2, 4096
13, 75000, Note_on_c, 2, 76, 120
13, 75016, Pitch_bend_c, 2, 8192
13, 75105, Pitch_bend_c, 2, 6144
13, 75119, Pitch_bend_c, 2, 6912
13, 75120, Note_on_c, 2, 76, 0
13, 75120, Note_on_c, 2, 72, 127
13, 75136, Pitch_bend_c, 2, 8192
13, 75195, Note_on_c, 2, 72, 0
13, 75239, Pitch_bend_c, 2, 9472
13, 75240, Note_on_c, 2, 72, 120
13, 75256, Pitch_bend_c, 2, 8192
13, 75390, Pitch_bend_c, 2, 6144
13, 75419, Note_on_c, 2, 72, 0
13, 75419, Pitch_bend_c, 2, 8192
13, 75420, Note_on_c, 2, 69, 120
13, 75510, Note_on_c, 2, 69, 0
13, 75539, Pitch_bend_c, 2, 6912
13, 75540, Note_on_c, 2, 69, 120
13, 75556, Pitch_bend_c, 2, 8192
13, 75630, Pitch_bend_c, 2, 6144
13, 75659, Pitch_bend_c, 2, 8192
13, 75660, Note_on_c, 2, 65, 125
13, 75699, Note_on_c, 2, 69, 0
13, 75750, Note_on_c, 2, 65, 0
13, 75779, Pitch_bend_c, 2, 9872
13, 75780, Note_on_c, 2, 65, 127
13, 75796, Pitch_bend_c, 2, 8192
13, 75840, Control_c, 2, 1, 8
13, 75870, Control_c, 2, 1, 16
13, 76139, Note_on_c, 2, 65, 0
13, 76139, Pitch_bend_c, 2, 6144
13, 76139, Control_c, 2, 1, 0
13, 76140, Note_on_c, 2, 67, 120
13, 76152, Pitch_bend_c, 2, 8192
13, 76259, Pitch_bend_c, 2, 6143
13, 76260, Note_on_c, 2, 67, 0
13, 76260, Note_on_c, 2, 67, 127
13, 76272, Pitch_bend_c, 2, 8192
13, 76350, Note_on_c, 2, 67, 0
13, 77879, Pitch_bend_c, 2, 128
13, 77880, Note_on_c, 2, 76, 120
13, 77896, Pitch_bend_c, 2, 8192
13, 77999, Pitch_bend_c, 2, 9472
13, 78000, Note_on_c, 2, 76, 0
13, 78000, Note_on_c, 2, 72, 127
13, 78016, Pitch_bend_c, 2, 8192
13, 78075, Note_on_c, 2, 72, 0
13, 78118, Pitch_bend_c, 2, 9472
13, 78120, Note_on_c, 2, 72, 120
13, 78136, Pitch_bend_c, 2, 8192
13, 78240, Pitch_bend_c, 2, 8192
13, 78245, Pitch_bend_c, 2, 8064
13, 78252, Pitch_bend_c, 2, 7936
13, 78257, Pitch_bend_c, 2, 7808
13, 78260, Pitch_bend_c, 2, 7680
13, 78262, Pitch_bend_c, 2, 7552
13, 78265, Pitch_bend_c, 2, 7424
13, 78267, Pitch_bend_c, 2, 7168
13, 78270, Pitch_bend_c, 2, 6912
13, 78272, Pitch_bend_c, 2, 6784
13, 78275, Pitch_bend_c, 2, 6528
13, 78277, Pitch_bend_c, 2, 6144
13, 78280, Pitch_bend_c, 2, 5888
13, 78282, Pitch_bend_c, 2, 5632
13, 78285, Pitch_bend_c, 2, 5248
13, 78287, Pitch_bend_c, 2, 4608
13, 78290, Pitch_bend_c, 2, 4096
13, 78292, Pitch_bend_c, 2, 640
13, 78295, Pitch_bend_c, 2, 128
13, 78299, Pitch_bend_c, 2, 8192
13, 78300, Note_on_c, 2, 72, 0
13, 78300, Note_on_c, 2, 69, 120
13, 78390, Note_on_c, 2, 69, 0
13, 78419, Pitch_bend_c, 2, 6912
13, 78420, Note_on_c, 2, 69, 120
13, 78436, Pitch_bend_c, 2, 8192
13, 78525, Pitch_bend_c, 2, 6144
13, 78539, Pitch_bend_c, 2, 8192
13, 78540, Note_on_c, 2, 69, 0
13, 78540, Note_on_c, 2, 65, 125
13, 78556, Pitch_bend_c, 2, 8192
13, 78600, Note_on_c, 2, 65, 0
13, 78659, Pitch_bend_c, 2, 7152
13, 78660, Note_on_c, 2, 70, 127
13, 78682, Pitch_bend_c, 2, 8192
13, 78750, Control_c, 2, 1, 16
13, 78780, Control_c, 2, 1, 24
13, 79019, Control_c, 2, 1, 0
13, 79019, Pitch_bend_c, 2, 7152
13, 79079, Note_on_c, 2, 70, 0
13, 79079, Pitch_bend_c, 2, 8192
13, 79080, Note_on_c, 2, 68, 120
13, 79140, Note_on_c, 2, 68, 0
13, 79140, Note_on_c, 2, 67, 127
13, 79156, Pitch_bend_c, 2, 8192
13, 79200, Note_on_c, 2, 67, 0
13, 79200, Note_on_c, 2, 65, 127
13, 79380, Control_c, 2, 1, 8
13, 79500, Control_c, 2, 1, 24
13, 79920, Note_on_c, 2, 65, 0
13, 80100, Control_c, 2, 1, 0
13, 80758, Pitch_bend_c, 2, 0
13, 80760, Note_on_c, 2, 72, 127
13, 80776, Pitch_bend_c, 2, 8192
13, 80880, Note_on_c, 2, 72, 0
13, 80880, Note_on_c, 2, 68, 127
13, 80964, Note_on_c, 2, 68, 0
13, 81000, Pitch_bend_c, 2, 6144
13, 81000, Note_on_c, 2, 68, 127
13, 81000, Pitch_bend_c, 2, 8192
13, 81120, Pitch_bend_c, 2, 7168
13, 81180, Note_on_c, 2, 68, 0
13, 81180, Note_on_c, 2, 65, 127
13, 81180, Pitch_bend_c, 2, 8192
13, 81280, Note_on_c, 2, 65, 0
13, 81300, Note_on_c, 2, 65, 127
13, 81375, Note_on_c, 2, 65, 0
13, 81420, Note_on_c, 2, 70, 127
13, 81476, Note_on_c, 2, 70, 0
13, 81476, Note_on_c, 2, 72, 127
13, 81551, Note_on_c, 2, 72, 0
13, 81555, Note_on_c, 2, 68, 127
13, 81870, Pitch_bend_c, 2, 7168
13, 81899, Pitch_bend_c, 2, 6144
13, 81900, Note_on_c, 2, 68, 0
13, 81900, Note_on_c, 2, 63, 127
13, 81908, Pitch_bend_c, 2, 8192
13, 82020, Note_on_c, 2, 63, 0
13, 82020, Note_on_c, 2, 63, 127
13, 82140, Note_on_c, 2, 68, 127
13, 82170, Note_on_c, 2, 63, 0
13, 82185, Pitch_bend_c, 2, 7168
13, 82215, Note_on_c, 2, 68, 0
13, 82260, Pitch_bend_c, 2, 8192
13, 82260, Note_on_c, 2, 65, 127
13, 82379, Control_c, 2, 1, 8
13, 82499, Control_c, 2, 1, 16
13, 82739, Control_c, 2, 1, 0
13, 82800, Note_on_c, 2, 65, 0
13, 83040, Note_on_c, 2, 67, 127
13, 83100, Note_on_c, 2, 67, 0
13, 83100, Note_on_c, 2, 68, 127
13, 83159, Note_on_c, 2, 68, 0
13, 83159, Pitch_bend_c, 2, 4096
13, 83160, Note_on_c, 2, 67, 127
13, 83174, Pitch_bend_c, 2, 8192
13, 83280, Note_on_c, 2, 67, 0
13, 83280, Note_on_c, 2, 65, 127
13, 83400, Note_on_c, 2, 65, 0
13, 83400, Note_on_c, 2, 63, 127
13, 83450, Pitch_bend_c, 2, 7168
13, 83519, Note_on_c, 2, 63, 0
13, 83520, Note_on_c, 2, 60, 127
13, 83536, Pitch_bend_c, 2, 8192
13, 83700, Note_on_c, 2, 60, 0
13, 83700, Note_on_c, 2, 65, 127
13, 83819, Pitch_bend_c, 2, 4096
13, 83820, Note_on_c, 2, 65, 0
13, 83820, Note_on_c, 2, 65, 127
13, 83836, Pitch_bend_c, 2, 8192
13, 83879, Control_c, 2, 1, 8
13, 83939, Control_c, 2, 1, 16
13, 84240, Note_on_c, 2, 65, 0
13, 84600, Note_on_c, 2, 67, 120
13, 84720, Note_on_c, 2, 67, 0
13, 84720, Note_on_c, 2, 65, 120
13, 84840, Note_on_c, 2, 65, 0
13, 84840, Note_on_c, 2, 63, 120
13, 84960, Note_on_c, 2, 63, 0
13, 84960, Note_on_c, 2, 62, 120
13, 85140, Control_c, 2, 1, 8
13, 85170, Control_c, 2, 1, 16
13, 85680, Note_on_c, 2, 62, 0
13, 86400, Control_c, 2, 1, 0
13, 86400, Note_on_c, 2, 65, 127
13, 86460, Note_on_c, 2, 65, 0
13, 86460, Note_on_c, 2, 68, 127
13, 86580, Note_on_c, 2, 68, 0
13, 86580, Note_on_c, 2, 68, 127
13, 86700, Note_on_c, 2, 68, 0
13, 86700, Note_on_c, 2, 68, 127
13, 86760, Note_on_c, 2, 68, 0
13, 86820, Note_on_c, 2, 63, 127
13, 86880, Note_on_c, 2, 63, 0
13, 86880, Note_on_c, 2, 65, 127
13, 86940, Note_on_c, 2, 65, 0
13, 86940, Note_on_c, 2, 68, 127
13, 87060, Note_on_c, 2, 68, 0
13, 87060, Note_on_c, 2, 68, 127
13, 87180, Note_on_c, 2, 68, 0
13, 87180, Note_on_c, 2, 70, 127
13, 87240, Note_on_c, 2, 70, 0
13, 87300, Note_on_c, 2, 72, 127
13, 87360, Control_c, 2, 1, 8
13, 87480, Control_c, 2, 1, 0
13, 87660, Note_on_c, 2, 72, 0
13, 87840, Note_on_c, 2, 65, 127
13, 87900, Note_on_c, 2, 65, 0
13, 87900, Note_on_c, 2, 68, 127
13, 88020, Note_on_c, 2, 68, 0
13, 88020, Note_on_c, 2, 68, 127
13, 88140, Note_on_c, 2, 68, 0
13, 88140, Note_on_c, 2, 75, 127
13, 88320, Note_on_c, 2, 75, 0
13, 88320, Note_on_c, 2, 73, 127
13, 88470, Note_on_c, 2, 73, 0
13, 88470, Note_on_c, 2, 72, 127
13, 88500, Pitch_bend_c, 2, 12288
13, 88530, Note_on_c, 2, 72, 0
13, 88530, Note_on_c, 2, 72, 127
13, 88530, Pitch_bend_c, 2, 8192
13, 88560, Note_on_c, 2, 72, 0
13, 88560, Note_on_c, 2, 70, 127
13, 88650, Control_c, 2, 1, 16
13, 88740, Control_c, 2, 1, 0
13, 88920, Note_on_c, 2, 70, 0
13, 88980, Note_on_c, 2, 63, 127
13, 89040, Note_on_c, 2, 63, 0
13, 89040, Note_on_c, 2, 65, 127
13, 89100, Note_on_c, 2, 65, 0
13, 89100, Note_on_c, 2, 67, 127
13, 89160, Note_on_c, 2, 67, 0
13, 89160, Note_on_c, 2, 68, 127
13, 89220, Note_on_c, 2, 68, 0
13, 89220, Note_on_c, 2, 70, 127
13, 89280, Note_on_c, 2, 70, 0
13, 89280, Note_on_c, 2, 72, 127
13, 89400, Note_on_c, 2, 72, 0
13, 89400, Note_on_c, 2, 73, 127
13, 89460, Note_on_c, 2, 73, 0
13, 89520, Note_on_c, 2, 68, 127
13, 89595, Note_on_c, 2, 68, 0
13, 89640, Note_on_c, 2, 70, 127
13, 89820, Note_on_c, 2, 70, 0
13, 89820, Note_on_c, 2, 70, 127
13, 89940, Note_on_c, 2, 70, 0
13, 89940, Note_on_c, 2, 72, 127
13, 90060, Note_on_c, 2, 72, 0
13, 90060, Note_on_c, 2, 75, 127
13, 90180, Note_on_c, 2, 75, 0
13, 90180, Note_on_c, 2, 68, 127
13, 90300, Control_c, 2, 1, 16
13, 90360, Control_c, 2, 1, 24
13, 90660, Note_on_c, 2, 68, 0
13, 90660, Control_c, 2, 1, 0
13, 90660, Note_on_c, 2, 68, 127
13, 90720, Note_on_c, 2, 68, 0
13, 90720, Note_on_c, 2, 77, 120
13, 90900, Note_on_c, 2, 77, 0
13, 90900, Note_on_c, 2, 75, 120
13, 90912, Note_on_c, 2, 75, 0
13, 90912, Note_on_c, 2, 77, 120
13, 90960, Note_on_c, 2, 77, 0
13, 90960, Note_on_c, 2, 75, 120
13, 91020, Note_on_c, 2, 75, 0
13, 91020, Note_on_c, 2, 73, 114
13, 91080, Note_on_c, 2, 73, 0
13, 91080, Note_on_c, 2, 75, 125
13, 91260, Note_on_c, 2, 75, 0
13, 91320, Note_on_c, 2, 63, 120
13, 91380, Note_on_c, 2, 63, 0
13, 91380, Note_on_c, 2, 65, 120
13, 91440, Note_on_c, 2, 65, 0
13, 91440, Note_on_c, 2, 68, 125
13, 91545, Note_on_c, 2, 68, 0
13, 91560, Note_on_c, 2, 70, 120
13, 91675, Note_on_c, 2, 70, 0
13, 91680, Note_on_c, 2, 72, 125
13, 91785, Note_on_c, 2, 72, 0
13, 91800, Note_on_c, 2, 72, 120
13, 91920, Note_on_c, 2, 72, 0
13, 91920, Note_on_c, 2, 73, 120
13, 92040, Note_on_c, 2, 73, 0
13, 92040, Note_on_c, 2, 75, 120
13, 92160, Note_on_c, 2, 75, 0
13, 92160, Note_on_c, 2, 65, 120
13, 92220, Note_on_c, 2, 65, 0
13, 92220, Note_on_c, 2, 68, 120
13, 92340, Note_on_c, 2, 68, 0
13, 92340, Note_on_c, 2, 68, 120
13, 92460, Note_on_c, 2, 68, 0
13, 92460, Note_on_c, 2, 68, 120
13, 92535, Note_on_c, 2, 68, 0
13, 92580, Note_on_c, 2, 63, 120
13, 92640, Note_on_c, 2, 63, 0
13, 92640, Note_on_c, 2, 65, 120
13, 92700, Note_on_c, 2, 65, 0
13, 92700, Note_on_c, 2, 68, 120
13, 92820, Note_on_c, 2, 68, 0
13, 92820, Note_on_c, 2, 68, 120
13, 92940, Note_on_c, 2, 68, 0
13, 92940, Note_on_c, 2, 70, 120
13, 93045, Note_on_c, 2, 70, 0
13, 93060, Note_on_c, 2, 72, 120
13, 93360, Note_on_c, 2, 72, 0
13, 93360, Note_on_c, 2, 72, 120
13, 93420, Note_on_c, 2, 72, 0
13, 97320, Note_on_c, 2, 63, 127
13, 97380, Note_on_c, 2, 63, 0
13, 97380, Note_on_c, 2, 64, 127
13, 97440, Note_on_c, 2, 64, 0
13, 97440, Note_on_c, 2, 68, 127
13, 97500, Note_on_c, 2, 68, 0
13, 97500, Note_on_c, 2, 71, 127
13, 97560, Note_on_c, 2, 71, 0
13, 97560, Note_on_c, 2, 80, 127
13, 97800, Note_on_c, 2, 80, 0
13, 97800, Note_on_c, 2, 78, 127
13, 97860, Note_on_c, 2, 78, 0
13, 97860, Note_on_c, 2, 80, 127
13, 97920, Note_on_c, 2, 80, 0
13, 97920, Note_on_c, 2, 77, 127
13, 98100, Note_on_c, 2, 77, 0
13, 98100, Note_on_c, 2, 73, 127
13, 98280, Note_on_c, 2, 73, 0
13, 98280, Note_on_c, 2, 75, 127
13, 98310, Note_on_c, 2, 75, 0
13, 98310, Note_on_c, 2, 74, 127
13, 98340, Note_on_c, 2, 74, 0
13, 98340, Note_on_c, 2, 73, 127
13, 98370, Note_on_c, 2, 73, 0
13, 98370, Note_on_c, 2, 72, 127
13, 98400, Note_on_c, 2, 72, 0
13, 98400, Note_on_c, 2, 68, 120
13, 98520, Note_on_c, 2, 68, 0
13, 98520, Note_on_c, 2, 63, 127
13, 98580, Note_on_c, 2, 63, 0
13, 98580, Note_on_c, 2, 65, 127
13, 98640, Note_on_c, 2, 65, 0
13, 98640, Note_on_c, 2, 70, 127
13, 98760, Note_on_c, 2, 70, 0
13, 98760, Note_on_c, 2, 72, 127
13, 98820, Note_on_c, 2, 72, 0
13, 98820, Note_on_c, 2, 68, 127
13, 98880, Note_on_c, 2, 68, 0
13, 98880, Note_on_c, 2, 63, 127
13, 98940, Note_on_c, 2, 63, 0
13, 98940, Note_on_c, 2, 65, 127
13, 99000, Note_on_c, 2, 65, 0
13, 99000, Note_on_c, 2, 63, 127
13, 99180, Note_on_c, 2, 63, 0
13, 99480, Note_on_c, 2, 72, 127
13, 99540, Note_on_c, 2, 72, 0
13, 99540, Note_on_c, 2, 73, 127
13, 99660, Note_on_c, 2, 73, 0
13, 99660, Note_on_c, 2, 84, 127
13, 99960, Note_on_c, 2, 84, 0
13, 99960, Note_on_c, 2, 82, 127
13, 100020, Note_on_c, 2, 82, 0
13, 100020, Note_on_c, 2, 80, 127
13, 100080, Note_on_c, 2, 80, 0
13, 100080, Note_on_c, 2, 79, 127
13, 100170, Note_on_c, 2, 79, 0
13, 100170, Note_on_c, 2, 78, 127
13, 100200, Note_on_c, 2, 78, 0
13, 100200, Note_on_c, 2, 77, 127
13, 100260, Note_on_c, 2, 77, 0
13, 100260, Note_on_c, 2, 75, 127
13, 100320, Note_on_c, 2, 75, 0
13, 100320, Note_on_c, 2, 77, 127
13, 100380, Note_on_c, 2, 77, 0
13, 100380, Note_on_c, 2, 75, 127
13, 100680, Note_on_c, 2, 75, 0
13, 100680, Note_on_c, 2, 72, 127
13, 100740, Note_on_c, 2, 72, 0
13, 100740, Note_on_c, 2, 73, 127
13, 100800, Note_on_c, 2, 73, 0
13, 100800, Note_on_c, 2, 84, 127
13, 100920, Note_on_c, 2, 84, 0
13, 100920, Note_on_c, 2, 85, 127
13, 100980, Note_on_c, 2, 85, 0
13, 101040, Note_on_c, 2, 82, 127
13, 101060, Note_on_c, 2, 82, 0
13, 101060, Note_on_c, 2, 83, 127
13, 101080, Note_on_c, 2, 83, 0
13, 101080, Note_on_c, 2, 82, 127
13, 101100, Note_on_c, 2, 82, 0
13, 101100, Note_on_c, 2, 80, 127
13, 101160, Note_on_c, 2, 80, 0
13, 101160, Note_on_c, 2, 82, 127
13, 101340, Note_on_c, 2, 82, 0
13, 101340, Note_on_c, 2, 79, 127
13, 101520, Note_on_c, 2, 79, 0
13, 101520, Note_on_c, 2, 77, 127
13, 101580, Note_on_c, 2, 77, 0
13, 101580, Note_on_c, 2, 76, 127
13, 101640, Note_on_c, 2, 76, 0
13, 101640, Note_on_c, 2, 75, 127
13, 101700, Note_on_c, 2, 75, 0
13, 101700, Note_on_c, 2, 79, 127
13, 101760, Note_on_c, 2, 79, 0
13, 101760, Note_on_c, 2, 72, 127
13, 101820, Note_on_c, 2, 72, 0
13, 101820, Note_on_c, 2, 75, 127
13, 101880, Note_on_c, 2, 75, 0
13, 101880, Note_on_c, 2, 72, 127
13, 102060, Note_on_c, 2, 72, 0
13, 102420, Note_on_c, 2, 65, 127
13, 102480, Note_on_c, 2, 65, 0
13, 102480, Note_on_c, 2, 70, 127
13, 102600, Note_on_c, 2, 70, 0
13, 102600, Note_on_c, 2, 75, 127
13, 102660, Note_on_c, 2, 75, 0
13, 102660, Note_on_c, 2, 72, 127
13, 102780, Note_on_c, 2, 72, 0
13, 102780, Note_on_c, 2, 77, 127
13, 102840, Note_on_c, 2, 77, 0
13, 102840, Note_on_c, 2, 80, 127
13, 102960, Note_on_c, 2, 80, 0
13, 102960, Note_on_c, 2, 77, 127
13, 103080, Note_on_c, 2, 77, 0
13, 103080, Note_on_c, 2, 72, 127
13, 103140, Note_on_c, 2, 72, 0
13, 103140, Note_on_c, 2, 75, 127
13, 103200, Note_on_c, 2, 75, 0
13, 103200, Note_on_c, 2, 77, 127
13, 103260, Note_on_c, 2, 77, 0
13, 103260, Note_on_c, 2, 75, 127
13, 103320, Note_on_c, 2, 75, 0
13, 103380, Note_on_c, 2, 72, 127
13, 103440, Note_on_c, 2, 72, 0
13, 103440, Note_on_c, 2, 73, 127
13, 103500, Note_on_c, 2, 73, 0
13, 103500, Note_on_c, 2, 84, 127
13, 103545, Note_on_c, 2, 84, 0
13, 103545, Note_on_c, 2, 85, 127
13, 103590, Note_on_c, 2, 85, 0
13, 103590, Note_on_c, 2, 82, 127
13, 103635, Note_on_c, 2, 82, 0
13, 103635, Note_on_c, 2, 84, 127
13, 103680, Note_on_c, 2, 84, 0
13, 103680, Note_on_c, 2, 80, 127
13, 103860, Note_on_c, 2, 80, 0
13, 103860, Note_on_c, 2, 77, 127
13, 104040, Note_on_c, 2, 77, 0
13, 104220, Note_on_c, 2, 80, 127
13, 104400, Control_c, 2, 1, 16
13, 104430, Control_c, 2, 1, 24
13, 104580, Control_c, 2, 1, 0
13, 104640, Note_on_c, 2, 80, 0
13, 104640, Note_on_c, 2, 78, 127
13, 104700, Note_on_c, 2, 78, 0
13, 104700, Note_on_c, 2, 77, 127
13, 104760, Note_on_c, 2, 77, 0
13, 104760, Note_on_c, 2, 75, 127
13, 104820, Note_on_c, 2, 75, 0
13, 104820, Note_on_c, 2, 71, 127
13, 104880, Note_on_c, 2, 71, 0
13, 104880, Note_on_c, 2, 70, 127
13, 104940, Note_on_c, 2, 70, 0
13, 104940, Note_on_c, 2, 68, 127
13, 105120, Note_on_c, 2, 68, 0
13, 105300, Note_on_c, 2, 65, 127
13, 105420, Note_on_c, 2, 65, 0
13, 105420, Note_on_c, 2, 68, 127
13, 105480, Note_on_c, 2, 68, 0
13, 105480, Note_on_c, 2, 75, 127
13, 105540, Note_on_c, 2, 75, 0
13, 105540, Note_on_c, 2, 74, 127
13, 105600, Note_on_c, 2, 74, 0
13, 105600, Note_on_c, 2, 73, 127
13, 105660, Note_on_c, 2, 73, 0
13, 105660, Note_on_c, 2, 72, 127
13, 105780, Note_on_c, 2, 72, 0
13, 105780, Note_on_c, 2, 80, 127
13, 105810, Note_on_c, 2, 80, 0
13, 105810, Note_on_c, 2, 79, 127
13, 105840, Note_on_c, 2, 79, 0
13, 105840, Note_on_c, 2, 79, 127
13, 105960, Note_on_c, 2, 79, 0
13, 105960, Note_on_c, 2, 77, 127
13, 106020, Note_on_c, 2, 77, 0
13, 106020, Note_on_c, 2, 75, 127
13, 106080, Note_on_c, 2, 75, 0
13, 106080, Note_on_c, 2, 77, 127
13, 106140, Note_on_c, 2, 77, 0
13, 106140, Note_on_c, 2, 75, 127
13, 106380, Note_on_c, 2, 75, 0
13, 106560, Note_on_c, 2, 72, 127
13, 106680, Note_on_c, 2, 72, 0
13, 106680, Note_on_c, 2, 73, 127
13, 106740, Note_on_c, 2, 73, 0
13, 106800, Note_on_c, 2, 68, 127
13, 106920, Note_on_c, 2, 68, 0
13, 106920, Note_on_c, 2, 70, 127
13, 107100, Note_on_c, 2, 70, 0
13, 107100, Note_on_c, 2, 70, 127
13, 107220, Note_on_c, 2, 70, 0
13, 107220, Note_on_c, 2, 72, 127
13, 107340, Note_on_c, 2, 72, 0
13, 107340, Note_on_c, 2, 75, 127
13, 107460, Note_on_c, 2, 75, 0
13, 107460, Note_on_c, 2, 77, 127
13, 107520, Control_c, 2, 1, 16
13, 107550, Control_c, 2, 1, 24
13, 107700, Control_c, 2, 1, 0
13, 107820, Note_on_c, 2, 77, 0
13, 108060, Note_on_c, 2, 75, 127
13, 108120, Note_on_c, 2, 75, 0
13, 108120, Note_on_c, 2, 77, 127
13, 108179, Pitch_bend_c, 2, 1
13, 108180, Note_on_c, 2, 77, 0
13, 108180, Note_on_c, 2, 80, 127
13, 108196, Pitch_bend_c, 2, 8192
13, 108240, Note_on_c, 2, 80, 0
13, 108240, Note_on_c, 2, 75, 127
13, 108300, Note_on_c, 2, 75, 0
13, 108300, Note_on_c, 2, 77, 127
13, 108360, Note_on_c, 2, 77, 0
13, 108420, Note_on_c, 2, 75, 127
13, 108480, Note_on_c, 2, 75, 0
13, 108480, Note_on_c, 2, 77, 127
13, 108537, Pitch_bend_c, 2, 4096
13, 108540, Note_on_c, 2, 77, 0
13, 108540, Note_on_c, 2, 84, 127
13, 108552, Pitch_bend_c, 2, 8192
13, 108660, Note_on_c, 2, 84, 0
13, 108660, Note_on_c, 2, 82, 127
13, 108720, Note_on_c, 2, 82, 0
13, 108720, Note_on_c, 2, 87, 127
13, 108840, Note_on_c, 2, 87, 0
13, 108840, Note_on_c, 2, 84, 127
13, 108860, Note_on_c, 2, 84, 0
13, 108860, Note_on_c, 2, 80, 127
13, 108880, Note_on_c, 2, 80, 0
13, 108880, Note_on_c, 2, 77, 127
13, 108900, Note_on_c, 2, 77, 0
13, 108900, Note_on_c, 2, 75, 127
13, 109020, Note_on_c, 2, 75, 0
13, 109020, Note_on_c, 2, 73, 127
13, 109080, Note_on_c, 2, 73, 0
13, 109080, Note_on_c, 2, 78, 127
13, 109140, Note_on_c, 2, 78, 0
13, 109140, Note_on_c, 2, 78, 127
13, 109200, Note_on_c, 2, 78, 0
13, 109200, Note_on_c, 2, 76, 127
13, 109260, Note_on_c, 2, 76, 0
13, 109260, Note_on_c, 2, 75, 127
13, 109380, Note_on_c, 2, 75, 0
13, 109380, Note_on_c, 2, 73, 127
13, 109440, Note_on_c, 2, 73, 0
13, 109440, Note_on_c, 2, 72, 127
13, 109620, Note_on_c, 2, 72, 0
13, 109620, Note_on_c, 2, 68, 127
13, 109680, Pitch_bend_c, 2, 8192
13, 109702, Pitch_bend_c, 2, 8064
13, 109707, Pitch_bend_c, 2, 7936
13, 109710, Pitch_bend_c, 2, 7808
13, 109712, Pitch_bend_c, 2, 7680
13, 109717, Pitch_bend_c, 2, 7552
13, 109720, Pitch_bend_c, 2, 7424
13, 109725, Pitch_bend_c, 2, 7168
13, 109727, Pitch_bend_c, 2, 7040
13, 109730, Pitch_bend_c, 2, 6912
13, 109735, Pitch_bend_c, 2, 6656
13, 109737, Pitch_bend_c, 2, 6528
13, 109740, Note_on_c, 2, 68, 0
13, 109740, Pitch_bend_c, 2, 6272
13, 109742, Pitch_bend_c, 2, 6144
13, 109745, Pitch_bend_c, 2, 5760
13, 109747, Pitch_bend_c, 2, 5504
13, 109750, Pitch_bend_c, 2, 5248
13, 109752, Pitch_bend_c, 2, 4992
13, 109755, Pitch_bend_c, 2, 4608
13, 109757, Pitch_bend_c, 2, 4352
13, 109760, Pitch_bend_c, 2, 3968
13, 109762, Pitch_bend_c, 2, 3584
13, 109765, Pitch_bend_c, 2, 3328
13, 109767, Pitch_bend_c, 2, 2816
13, 109770, Pitch_bend_c, 2, 2432
13, 109772, Pitch_bend_c, 2, 2176
13, 109775, Pitch_bend_c, 2, 1664
13, 109777, Pitch_bend_c, 2, 1280
13, 109780, Pitch_bend_c, 2, 640
13, 109782, Pitch_bend_c, 2, 512
13, 109800, Note_on_c, 2, 63, 127
13, 109800, Pitch_bend_c, 2, 8192
13, 109860, Note_on_c, 2, 63, 0
13, 109860, Note_on_c, 2, 65, 127
13, 109980, Note_on_c, 2, 65, 0
13, 109980, Note_on_c, 2, 68, 127
13, 110100, Note_on_c, 2, 68, 0
13, 110100, Note_on_c, 2, 68, 127
13, 110160, Note_on_c, 2, 68, 0
13, 110160, Note_on_c, 2, 65, 127
13, 110160, Pitch_bend_c, 2, 128
13, 110175, Pitch_bend_c, 2, 8192
13, 110280, Note_on_c, 2, 65, 0
13, 110280, Note_on_c, 2, 68, 127
13, 110340, Note_on_c, 2, 68, 0
13, 110340, Note_on_c, 2, 65, 127
13, 110400, Note_on_c, 2, 65, 0
13, 110400, Note_on_c, 2, 60, 127
13, 110460, Note_on_c, 2, 60, 0
13, 110460, Note_on_c, 2, 63, 127
13, 110700, Note_on_c, 2, 63, 0
13, 110955, Note_on_c, 2, 65, 127
13, 111000, Note_on_c, 2, 65, 0
13, 111000, Note_on_c, 2, 68, 127
13, 111045, Note_on_c, 2, 68, 0
13, 111045, Note_on_c, 2, 72, 127
13, 111090, Note_on_c, 2, 72, 0
13, 111090, Note_on_c, 2, 75, 127
13, 111135, Note_on_c, 2, 75, 0
13, 111135, Note_on_c, 2, 72, 127
13, 111180, Note_on_c, 2, 72, 0
13, 111180, Note_on_c, 2, 73, 127
13, 111225, Note_on_c, 2, 73, 0
13, 111225, Note_on_c, 2, 77, 127
13, 111270, Note_on_c, 2, 77, 0
13, 111270, Note_on_c, 2, 80, 127
13, 111315, Note_on_c, 2, 80, 0
13, 111315, Note_on_c, 2, 82, 127
13, 111360, Note_on_c, 2, 82, 0
13, 111360, Note_on_c, 2, 84, 127
13, 111405, Note_on_c, 2, 84, 0
13, 111419, Note_on_c, 2, 82, 127
13, 111539, Note_on_c, 2, 82, 0
13, 111540, Note_on_c, 2, 80, 127
13, 111600, Note_on_c, 2, 80, 0
13, 111604, Note_on_c, 2, 79, 127
13, 111720, Note_on_c, 2, 82, 127
13, 111724, Note_on_c, 2, 79, 0
13, 111780, Note_on_c, 2, 82, 0
13, 111780, Note_on_c, 2, 75, 127
13, 111900, Note_on_c, 2, 75, 0
13, 111900, Note_on_c, 2, 77, 127
13, 111960, Note_on_c, 2, 77, 0
13, 111960, Note_on_c, 2, 79, 127
13, 112080, Note_on_c, 2, 79, 0
13, 112080, Note_on_c, 2, 80, 127
13, 112140, Note_on_c, 2, 80, 0
13, 112140, Note_on_c, 2, 79, 127
13, 112260, Note_on_c, 2, 79, 0
13, 112260, Note_on_c, 2, 77, 127
13, 112290, Note_on_c, 2, 77, 0
13, 112290, Note_on_c, 2, 75, 110
13, 112320, Note_on_c, 2, 75, 0
13, 112320, Note_on_c, 2, 75, 127
13, 112350, Note_on_c, 2, 75, 0
13, 112350, Note_on_c, 2, 77, 127
13, 112440, Note_on_c, 2, 77, 0
13, 112500, Note_on_c, 2, 72, 127
13, 112530, Note_on_c, 2, 72, 0
13, 112530, Note_on_c, 2, 75, 127
13, 112620, Note_on_c, 2, 75, 0
13, 112680, Note_on_c, 2, 70, 127
13, 112710, Note_on_c, 2, 70, 0
13, 112710, Note_on_c, 2, 72, 127
13, 112800, Note_on_c, 2, 72, 0
13, 112860, Note_on_c, 2, 68, 127
13, 112890, Note_on_c, 2, 68, 0
13, 112890, Note_on_c, 2, 70, 127
13, 112980, Note_on_c, 2, 70, 0
13, 113040, Note_on_c, 2, 65, 127
13, 113070, Note_on_c, 2, 65, 0
13, 113070, Note_on_c, 2, 67, 127
13, 113160, Note_on_c, 2, 67, 0
13, 113160, Note_on_c, 2, 65, 127
13, 113220, Note_on_c, 2, 65, 0
13, 113220, Note_on_c, 2, 60, 110
13, 113280, Note_on_c, 2, 60, 0
13, 113280, Note_on_c, 2, 63, 127
13, 113580, Note_on_c, 2, 63, 0
13, 113820, Note_on_c, 2, 63, 127
13, 113880, Note_on_c, 2, 63, 0
13, 113880, Note_on_c, 2, 65, 127
13, 113940, Note_on_c, 2, 65, 0
13, 113940, Note_on_c, 2, 68, 127
13, 114000, Note_on_c, 2, 68, 0
13, 114000, Note_on_c, 2, 70, 127
13, 114060, Note_on_c, 2, 70, 0
13, 114060, Note_on_c, 2, 72, 127
13, 114120, Note_on_c, 2, 72, 0
13, 114180, Note_on_c, 2, 68, 127
13, 114240, Note_on_c, 2, 68, 0
13, 114240, Note_on_c, 2, 70, 127
13, 114300, Note_on_c, 2, 70, 0
13, 114300, Note_on_c, 2, 72, 127
13, 114360, Note_on_c, 2, 72, 0
13, 114360, Note_on_c, 2, 75, 127
13, 114420, Note_on_c, 2, 75, 0
13, 114420, Note_on_c, 2, 77, 127
13, 114480, Note_on_c, 2, 77, 0
13, 114540, Note_on_c, 2, 72, 127
13, 114600, Note_on_c, 2, 72, 0
13, 114600, Note_on_c, 2, 75, 127
13, 114660, Note_on_c, 2, 75, 0
13, 114660, Note_on_c, 2, 79, 127
13, 114720, Note_on_c, 2, 79, 0
13, 114720, Note_on_c, 2, 80, 127
13, 114780, Note_on_c, 2, 80, 0
13, 114780, Note_on_c, 2, 82, 127
13, 114810, Note_on_c, 2, 82, 0
13, 114810, Note_on_c, 2, 84, 127
13, 114840, Note_on_c, 2, 84, 0
13, 114840, Note_on_c, 2, 82, 127
13, 114870, Note_on_c, 2, 82, 0
13, 114870, Note_on_c, 2, 84, 127
13, 114900, Note_on_c, 2, 84, 0
13, 114900, Note_on_c, 2, 82, 127
13, 114960, Note_on_c, 2, 82, 0
13, 114960, Note_on_c, 2, 80, 127
13, 115020, Note_on_c, 2, 80, 0
13, 115020, Note_on_c, 2, 84, 127
13, 115140, Note_on_c, 2, 84, 0
13, 115140, Note_on_c, 2, 82, 127
13, 115200, Note_on_c, 2, 82, 0
13, 115200, Note_on_c, 2, 87, 127
13, 115200, Control_c, 2, 11, 127
13, 115245, Control_c, 2, 11, 126
13, 115290, Control_c, 2, 11, 125
13, 115336, Control_c, 2, 11, 124
13, 115381, Control_c, 2, 11, 123
13, 115426, Control_c, 2, 11, 122
13, 115472, Control_c, 2, 11, 121
13, 115500, Note_on_c, 2, 87, 0
13, 115517, Control_c, 2, 11, 120
13, 115562, Control_c, 2, 11, 119
13, 115608, Control_c, 2, 11, 118
13, 115653, Control_c, 2, 11, 117
13, 115698, Control_c, 2, 11, 116
13, 115740, Note_on_c, 2, 89, 127
13, 115744, Control_c, 2, 11, 115
13, 115789, Control_c, 2, 11, 114
13, 115834, Control_c, 2, 11, 113
13, 115860, Note_on_c, 2, 89, 0
13, 115880, Control_c, 2, 11, 112
13, 115920, Note_on_c, 2, 87, 127
13, 115925, Control_c, 2, 11, 111
13, 115970, Control_c, 2, 11, 110
13, 116016, Control_c, 2, 11, 109
13, 116040, Note_on_c, 2, 87, 0
13, 116061, Control_c, 2, 11, 108
13, 116095, Pitch_bend_c, 2, 128
13, 116100, Note_on_c, 2, 84, 127
13, 116106, Control_c, 2, 11, 107
13, 116117, Pitch_bend_c, 2, 8192
13, 116152, Control_c, 2, 11, 106
13, 116197, Control_c, 2, 11, 105
13, 116220, Note_on_c, 2, 84, 0
13, 116242, Control_c, 2, 11, 104
13, 116275, Pitch_bend_c, 2, 3712
13, 116280, Note_on_c, 2, 82, 127
13, 116288, Control_c, 2, 11, 103
13, 116290, Pitch_bend_c, 2, 8192
13, 116333, Control_c, 2, 11, 102
13, 116379, Control_c, 2, 11, 101
13, 116400, Note_on_c, 2, 82, 0
13, 116424, Control_c, 2, 11, 100
13, 116455, Pitch_bend_c, 2, 128
13, 116460, Note_on_c, 2, 80, 127
13, 116469, Control_c, 2, 11, 99
13, 116477, Pitch_bend_c, 2, 8192
13, 116515, Control_c, 2, 11, 98
13, 116560, Control_c, 2, 11, 97
13, 116580, Note_on_c, 2, 80, 0
13, 116605, Control_c, 2, 11, 96
13, 116651, Control_c, 2, 11, 95
13, 116696, Control_c, 2, 11, 94
13, 116700, Note_on_c, 2, 72, 127
13, 116741, Control_c, 2, 11, 93
13, 116760, Note_on_c, 2, 72, 0
13, 116760, Note_on_c, 2, 73, 127
13, 116787, Control_c, 2, 11, 92
13, 116817, Pitch_bend_c, 2, 4096
13, 116820, Note_on_c, 2, 73, 0
13, 116820, Note_on_c, 2, 77, 127
13, 116832, Control_c, 2, 11, 91
13, 116835, Pitch_bend_c, 2, 8192
13, 116877, Control_c, 2, 11, 90
13, 116880, Note_on_c, 2, 77, 0
13, 116880, Note_on_c, 2, 80, 127
13, 116923, Control_c, 2, 11, 89
13, 116968, Control_c, 2, 11, 88
13, 117000, Note_on_c, 2, 80, 0
13, 117000, Note_on_c, 2, 84, 127
13, 117013, Control_c, 2, 11, 87
13, 117059, Control_c, 2, 11, 86
13, 117060, Note_on_c, 2, 84, 0
13, 117060, Note_on_c, 2, 85, 127
13, 117104, Control_c, 2, 11, 85
13, 117120, Note_on_c, 2, 85, 0
13, 117120, Note_on_c, 2, 82, 127
13, 117149, Control_c, 2, 11, 84
13, 117180, Note_on_c, 2, 82, 0
13, 117180, Note_on_c, 2, 84, 127
13, 117195, Control_c, 2, 11, 83
13, 117240, Note_on_c, 2, 84, 0
13, 117240, Note_on_c, 2, 80, 127
13, 117240, Control_c, 2, 11, 82
13, 117285, Control_c, 2, 11, 81
13, 117300, Note_on_c, 2, 80, 0
13, 117300, Note_on_c, 2, 82, 127
13, 117331, Control_c, 2, 11, 80
13, 117360, Note_on_c, 2, 82, 0
13, 117360, Note_on_c, 2, 79, 127
13, 117376, Control_c, 2, 11, 79
13, 117421, Control_c, 2, 11, 78
13, 117467, Control_c, 2, 11, 77
13, 117512, Control_c, 2, 11, 76
13, 117527, Pitch_bend_c, 2, 8192
13, 117532, Pitch_bend_c, 2, 8064
13, 117537, Pitch_bend_c, 2, 7936
13, 117542, Pitch_bend_c, 2, 7808
13, 117547, Pitch_bend_c, 2, 7680
13, 117550, Pitch_bend_c, 2, 7552
13, 117552, Pitch_bend_c, 2, 7424
13, 117555, Pitch_bend_c, 2, 7296
13, 117557, Pitch_bend_c, 2, 7168
13, 117558, Control_c, 2, 11, 75
13, 117560, Pitch_bend_c, 2, 7040
13, 117562, Pitch_bend_c, 2, 6912
13, 117565, Pitch_bend_c, 2, 6784
13, 117567, Pitch_bend_c, 2, 6528
13, 117570, Pitch_bend_c, 2, 6400
13, 117572, Pitch_bend_c, 2, 6272
13, 117575, Pitch_bend_c, 2, 6144
13, 117577, Pitch_bend_c, 2, 5888
13, 117580, Pitch_bend_c, 2, 5760
13, 117582, Pitch_bend_c, 2, 5504
13, 117585, Pitch_bend_c, 2, 5248
13, 117587, Pitch_bend_c, 2, 4992
13, 117590, Pitch_bend_c, 2, 4736
13, 117592, Pitch_bend_c, 2, 4608
13, 117595, Pitch_bend_c, 2, 4224
13, 117600, Note_on_c, 2, 79, 0
13, 117600, Pitch_bend_c, 2, 8192
13, 117603, Control_c, 2, 11, 74
13, 117648, Control_c, 2, 11, 73
13, 117694, Control_c, 2, 11, 72
13, 117739, Control_c, 2, 11, 71
13, 117780, Note_on_c, 2, 63, 127
13, 117784, Control_c, 2, 11, 70
13, 117830, Control_c, 2, 11, 69
13, 117840, Note_on_c, 2, 63, 0
13, 117840, Note_on_c, 2, 65, 127
13, 117875, Control_c, 2, 11, 68
13, 117900, Note_on_c, 2, 65, 0
13, 117900, Note_on_c, 2, 67, 127
13, 117920, Control_c, 2, 11, 67
13, 117960, Note_on_c, 2, 67, 0
13, 117960, Note_on_c, 2, 68, 127
13, 117966, Control_c, 2, 11, 66
13, 118011, Control_c, 2, 11, 65
13, 118020, Note_on_c, 2, 68, 0
13, 118020, Note_on_c, 2, 70, 127
13, 118056, Control_c, 2, 11, 64
13, 118077, Pitch_bend_c, 2, 3712
13, 118080, Note_on_c, 2, 70, 0
13, 118080, Note_on_c, 2, 72, 127
13, 118092, Pitch_bend_c, 2, 8192
13, 118102, Control_c, 2, 11, 63
13, 118147, Control_c, 2, 11, 62
13, 118185, Note_on_c, 2, 72, 0
13, 118192, Control_c, 2, 11, 61
13, 118200, Note_on_c, 2, 73, 127
13, 118238, Control_c, 2, 11, 60
13, 118260, Note_on_c, 2, 73, 0
13, 118283, Control_c, 2, 11, 59
13, 118320, Note_on_c, 2, 68, 127
13, 118328, Control_c, 2, 11, 58
13, 118374, Control_c, 2, 11, 57
13, 118419, Control_c, 2, 11, 56
13, 118425, Note_on_c, 2, 68, 0
13, 118440, Note_on_c, 2, 70, 127
13, 118464, Control_c, 2, 11, 55
13, 118510, Control_c, 2, 11, 54
13, 118555, Control_c, 2, 11, 53
13, 118600, Control_c, 2, 11, 52
13, 118620, Note_on_c, 2, 70, 0
13, 118620, Note_on_c, 2, 75, 127
13, 118646, Control_c, 2, 11, 51
13, 118680, Note_on_c, 2, 75, 0
13, 118680, Note_on_c, 2, 77, 127
13, 118691, Control_c, 2, 11, 50
13, 118737, Control_c, 2, 11, 49
13, 118740, Note_on_c, 2, 77, 0
13, 118740, Note_on_c, 2, 79, 127
13, 118782, Control_c, 2, 11, 48
13, 118827, Control_c, 2, 11, 47
13, 118845, Note_on_c, 2, 79, 0
13, 118860, Note_on_c, 2, 82, 127
13, 118873, Control_c, 2, 11, 46
13, 118918, Control_c, 2, 11, 45
13, 118920, Note_on_c, 2, 82, 0
13, 118920, Note_on_c, 2, 79, 127
13, 118963, Control_c, 2, 11, 44
13, 118980, Note_on_c, 2, 79, 0
13, 118980, Note_on_c, 2, 80, 127
13, 119009, Control_c, 2, 11, 43
13, 119054, Control_c, 2, 11, 42
13, 119099, Control_c, 2, 11, 41
13, 119145, Control_c, 2, 11, 40
13, 119190, Control_c, 2, 11, 39
13, 119235, Control_c, 2, 11, 38
13, 119280, Note_on_c, 2, 80, 0
13, 119281, Control_c, 2, 11, 37
13, 119326, Control_c, 2, 11, 36
13, 119371, Control_c, 2, 11, 35
13, 119417, Control_c, 2, 11, 34
13, 119462, Control_c, 2, 11, 33
13, 119507, Control_c, 2, 11, 32
13, 119553, Control_c, 2, 11, 31
13, 119580, Note_on_c, 2, 75, 127
13, 119598, Control_c, 2, 11, 30
13, 119640, Note_on_c, 2, 75, 0
13, 119640, Note_on_c, 2, 77, 127
13, 119643, Control_c, 2, 11, 29
13, 119689, Control_c, 2, 11, 28
13, 119700, Note_on_c, 2, 77, 0
13, 119700, Pitch_bend_c, 2, 1
13, 119700, Note_on_c, 2, 80, 127
13, 119712, Pitch_bend_c, 2, 8192
13, 119734, Control_c, 2, 11, 27
13, 119760, Note_on_c, 2, 80, 0
13, 119760, Note_on_c, 2, 75, 127
13, 119779, Control_c, 2, 11, 26
13, 119820, Note_on_c, 2, 75, 0
13, 119820, Note_on_c, 2, 77, 127
13, 119825, Control_c, 2, 11, 25
13, 119870, Control_c, 2, 11, 24
13, 119880, Note_on_c, 2, 77, 0
13, 119916, Control_c, 2, 11, 23
13, 119940, Note_on_c, 2, 75, 127
13, 119961, Control_c, 2, 11, 22
13, 120000, Note_on_c, 2, 75, 0
13, 120000, Note_on_c, 2, 77, 127
13, 120006, Control_c, 2, 11, 21
13, 120052, Control_c, 2, 11, 20
13, 120059, Pitch_bend_c, 2, 4096
13, 120060, Note_on_c, 2, 77, 0
13, 120060, Note_on_c, 2, 84, 120
13, 120074, Pitch_bend_c, 2, 8192
13, 120097, Control_c, 2, 11, 19
13, 120142, Control_c, 2, 11, 18
13, 120180, Note_on_c, 2, 84, 0
13, 120180, Note_on_c, 2, 82, 110
13, 120188, Control_c, 2, 11, 17
13, 120233, Control_c, 2, 11, 16
13, 120240, Note_on_c, 2, 82, 0
13, 120240, Note_on_c, 2, 87, 80
13, 120278, Control_c, 2, 11, 15
13, 120324, Control_c, 2, 11, 14
13, 120360, Note_on_c, 2, 87, 0
13, 120360, Note_on_c, 2, 84, 70
13, 120369, Control_c, 2, 11, 13
13, 120380, Note_on_c, 2, 84, 0
13, 120380, Note_on_c, 2, 80, 60
13, 120400, Note_on_c, 2, 80, 0
13, 120400, Note_on_c, 2, 77, 50
13, 120414, Control_c, 2, 11, 12
13, 120420, Note_on_c, 2, 77, 0
13, 120420, Note_on_c, 2, 75, 40
13, 120460, Control_c, 2, 11, 11
13, 120505, Control_c, 2, 11, 10
13, 120540, Note_on_c, 2, 75, 0
13, 120540, Note_on_c, 2, 73, 30
13, 120550, Control_c, 2, 11, 9
13, 120596, Control_c, 2, 11, 8
13, 120600, Note_on_c, 2, 73, 0
13, 120600, Note_on_c, 2, 78, 127
13, 120641, Control_c, 2, 11, 7
13, 120660, Note_on_c, 2, 78, 0
13, 120660, Note_on_c, 2, 78, 127
13, 120686, Control_c, 2, 11, 6
13, 120720, Note_on_c, 2, 78, 0
13, 120720, Note_on_c, 2, 76, 127
13, 120732, Control_c, 2, 11, 5
13, 120777, Control_c, 2, 11, 4
13, 120780, Note_on_c, 2, 76, 0
13, 120780, Note_on_c, 2, 75, 127
13, 120822, Control_c, 2, 11, 3
13, 120868, Control_c, 2, 11, 2
13, 120900, Note_on_c, 2, 75, 0
13, 120900, Note_on_c, 2, 73, 127
13, 120913, Control_c, 2, 11, 1
13, 120959, Control_c, 2, 11, 0
13, 120960, Note_on_c, 2, 73, 0
13, 121398, Control_c, 2, 121, 0
13, 121398, End_track
14, 0, Start_track
14, 0, MIDI_port, 0
14, 0, Title_t, "Mute Guitar"
14, 90, Control_c, 3, 121, 0
14, 91, Control_c, 3, 0, 0
14, 91, Control_c, 3, 32, 0
14, 91, Program_c, 3, 28
14, 92, Control_c, 3, 7, 55
14, 93, Control_c, 3, 10, 38
14, 94, Control_c, 3, 91, 64
14, 95, Control_c, 3, 93, 64
14, 96, Control_c, 3, 99, 1
14, 97, Control_c, 3, 98, 32
14, 98, Control_c, 3, 6, 62
14, 99, Control_c, 3, 101, 127
14, 100, Control_c, 3, 100, 127
14, 1440, Note_on_c, 3, 53, 117
14, 1541, Note_on_c, 3, 53, 0
14, 1560, Note_on_c, 3, 53, 125
14, 1601, Note_on_c, 3, 53, 0
14, 1680, Note_on_c, 3, 48, 123
14, 1721, Note_on_c, 3, 48, 0
14, 1740, Note_on_c, 3, 50, 123
14, 1781, Note_on_c, 3, 50, 0
14, 1800, Note_on_c, 3, 53, 117
14, 1901, Note_on_c, 3, 53, 0
14, 1920, Note_on_c, 3, 53, 125
14, 1961, Note_on_c, 3, 53, 0
14, 2040, Note_on_c, 3, 48, 123
14, 2081, Note_on_c, 3, 48, 0
14, 2100, Note_on_c, 3, 50, 123
14, 2141, Note_on_c, 3, 50, 0
14, 2160, Note_on_c, 3, 53, 117
14, 2261, Note_on_c, 3, 53, 0
14, 2280, Note_on_c, 3, 53, 125
14, 2321, Note_on_c, 3, 53, 0
14, 2400, Note_on_c, 3, 48, 123
14, 2441, Note_on_c, 3, 48, 0
14, 2460, Note_on_c, 3, 50, 123
14, 2501, Note_on_c, 3, 50, 0
14, 2520, Note_on_c, 3, 53, 117
14, 2621, Note_on_c, 3, 53, 0
14, 2640, Note_on_c, 3, 53, 125
14, 2681, Note_on_c, 3, 53, 0
14, 2760, Note_on_c, 3, 55, 123
14, 2801, Note_on_c, 3, 55, 0
14, 2820, Note_on_c, 3, 57, 123
14, 2861, Note_on_c, 3, 57, 0
14, 2880, Note_on_c, 3, 53, 117
14, 2981, Note_on_c, 3, 53, 0
14, 3000, Note_on_c, 3, 53, 125
14, 3041, Note_on_c, 3, 53, 0
14, 3120, Note_on_c, 3, 48, 123
14, 3161, Note_on_c, 3, 48, 0
14, 3180, Note_on_c, 3, 50, 123
14, 3221, Note_on_c, 3, 50, 0
14, 3240, Note_on_c, 3, 53, 117
14, 3341, Note_on_c, 3, 53, 0
14, 3360, Note_on_c, 3, 53, 125
14, 3401, Note_on_c, 3, 53, 0
14, 3480, Note_on_c, 3, 48, 123
14, 3521, Note_on_c, 3, 48, 0
14, 3540, Note_on_c, 3, 50, 123
14, 3581, Note_on_c, 3, 50, 0
14, 3600, Note_on_c, 3, 53, 117
14, 3701, Note_on_c, 3, 53, 0
14, 3720, Note_on_c, 3, 53, 125
14, 3761, Note_on_c, 3, 53, 0
14, 3840, Note_on_c, 3, 48, 123
14, 3881, Note_on_c, 3, 48, 0
14, 3900, Note_on_c, 3, 50, 123
14, 3941, Note_on_c, 3, 50, 0
14, 3960, Note_on_c, 3, 53, 117
14, 4061, Note_on_c, 3, 53, 0
14, 4080, Note_on_c, 3, 53, 125
14, 4121, Note_on_c, 3, 53, 0
14, 4200, Note_on_c, 3, 55, 123
14, 4241, Note_on_c, 3, 55, 0
14, 4260, Note_on_c, 3, 57, 123
14, 4301, Note_on_c, 3, 57, 0
14, 4320, Note_on_c, 3, 53, 117
14, 4421, Note_on_c, 3, 53, 0
14, 4440, Note_on_c, 3, 53, 125
14, 4481, Note_on_c, 3, 53, 0
14, 4560, Note_on_c, 3, 48, 123
14, 4601, Note_on_c, 3, 48, 0
14, 4620, Note_on_c, 3, 50, 123
14, 4661, Note_on_c, 3, 50, 0
14, 4680, Note_on_c, 3, 53, 117
14, 4781, Note_on_c, 3, 53, 0
14, 4800, Note_on_c, 3, 53, 125
14, 4841, Note_on_c, 3, 53, 0
14, 4920, Note_on_c, 3, 48, 123
14, 4961, Note_on_c, 3, 48, 0
14, 4980, Note_on_c, 3, 50, 123
14, 5021, Note_on_c, 3, 50, 0
14, 5040, Note_on_c, 3, 53, 117
14, 5141, Note_on_c, 3, 53, 0
14, 5160, Note_on_c, 3, 53, 125
14, 5201, Note_on_c, 3, 53, 0
14, 5280, Note_on_c, 3, 48, 123
14, 5321, Note_on_c, 3, 48, 0
14, 5340, Note_on_c, 3, 50, 123
14, 5381, Note_on_c, 3, 50, 0
14, 5400, Note_on_c, 3, 53, 117
14, 5501, Note_on_c, 3, 53, 0
14, 5520, Note_on_c, 3, 53, 125
14, 5561, Note_on_c, 3, 53, 0
14, 5640, Note_on_c, 3, 55, 123
14, 5681, Note_on_c, 3, 55, 0
14, 5700, Note_on_c, 3, 57, 123
14, 5741, Note_on_c, 3, 57, 0
14, 5760, Note_on_c, 3, 53, 117
14, 5861, Note_on_c, 3, 53, 0
14, 5880, Note_on_c, 3, 53, 125
14, 5921, Note_on_c, 3, 53, 0
14, 6000, Note_on_c, 3, 48, 123
14, 6041, Note_on_c, 3, 48, 0
14, 6060, Note_on_c, 3, 50, 123
14, 6101, Note_on_c, 3, 50, 0
14, 6120, Note_on_c, 3, 53, 117
14, 6221, Note_on_c, 3, 53, 0
14, 6240, Note_on_c, 3, 53, 125
14, 6281, Note_on_c, 3, 53, 0
14, 6360, Note_on_c, 3, 48, 123
14, 6401, Note_on_c, 3, 48, 0
14, 6420, Note_on_c, 3, 50, 123
14, 6461, Note_on_c, 3, 50, 0
14, 6480, Note_on_c, 3, 53, 117
14, 6581, Note_on_c, 3, 53, 0
14, 6600, Note_on_c, 3, 53, 125
14, 6641, Note_on_c, 3, 53, 0
14, 6720, Note_on_c, 3, 55, 123
14, 6761, Note_on_c, 3, 55, 0
14, 6780, Note_on_c, 3, 57, 123
14, 6821, Note_on_c, 3, 57, 0
14, 6840, Note_on_c, 3, 58, 117
14, 6893, Note_on_c, 3, 58, 0
14, 6900, Note_on_c, 3, 55, 117
14, 6953, Note_on_c, 3, 55, 0
14, 6960, Note_on_c, 3, 57, 125
14, 7001, Note_on_c, 3, 57, 0
14, 7020, Note_on_c, 3, 58, 125
14, 7061, Note_on_c, 3, 58, 0
14, 7080, Note_on_c, 3, 57, 123
14, 7136, Note_on_c, 3, 57, 0
14, 7140, Note_on_c, 3, 55, 123
14, 7196, Note_on_c, 3, 55, 0
14, 17280, Note_on_c, 3, 53, 117
14, 17381, Note_on_c, 3, 53, 0
14, 17400, Note_on_c, 3, 53, 125
14, 17441, Note_on_c, 3, 53, 0
14, 17520, Note_on_c, 3, 48, 123
14, 17561, Note_on_c, 3, 48, 0
14, 17580, Note_on_c, 3, 50, 123
14, 17621, Note_on_c, 3, 50, 0
14, 17640, Note_on_c, 3, 53, 117
14, 17741, Note_on_c, 3, 53, 0
14, 17760, Note_on_c, 3, 53, 125
14, 17801, Note_on_c, 3, 53, 0
14, 17880, Note_on_c, 3, 48, 123
14, 17921, Note_on_c, 3, 48, 0
14, 17940, Note_on_c, 3, 50, 123
14, 17981, Note_on_c, 3, 50, 0
14, 18000, Note_on_c, 3, 53, 117
14, 18101, Note_on_c, 3, 53, 0
14, 18120, Note_on_c, 3, 53, 125
14, 18161, Note_on_c, 3, 53, 0
14, 18240, Note_on_c, 3, 48, 123
14, 18281, Note_on_c, 3, 48, 0
14, 18300, Note_on_c, 3, 50, 123
14, 18341, Note_on_c, 3, 50, 0
14, 18360, Note_on_c, 3, 53, 117
14, 18461, Note_on_c, 3, 53, 0
14, 18480, Note_on_c, 3, 53, 125
14, 18521, Note_on_c, 3, 53, 0
14, 18600, Note_on_c, 3, 55, 123
14, 18641, Note_on_c, 3, 55, 0
14, 18660, Note_on_c, 3, 57, 123
14, 18701, Note_on_c, 3, 57, 0
14, 18720, Note_on_c, 3, 53, 117
14, 18821, Note_on_c, 3, 53, 0
14, 18840, Note_on_c, 3, 53, 125
14, 18881, Note_on_c, 3, 53, 0
14, 18960, Note_on_c, 3, 48, 123
14, 19001, Note_on_c, 3, 48, 0
14, 19020, Note_on_c, 3, 50, 123
14, 19061, Note_on_c, 3, 50, 0
14, 19080, Note_on_c, 3, 53, 117
14, 19181, Note_on_c, 3, 53, 0
14, 19200, Note_on_c, 3, 53, 125
14, 19241, Note_on_c, 3, 53, 0
14, 19320, Note_on_c, 3, 48, 123
14, 19361, Note_on_c, 3, 48, 0
14, 19380, Note_on_c, 3, 50, 123
14, 19421, Note_on_c, 3, 50, 0
14, 19440, Note_on_c, 3, 53, 117
14, 19541, Note_on_c, 3, 53, 0
14, 19560, Note_on_c, 3, 53, 125
14, 19601, Note_on_c, 3, 53, 0
14, 19680, Note_on_c, 3, 55, 123
14, 19721, Note_on_c, 3, 55, 0
14, 19740, Note_on_c, 3, 57, 123
14, 19781, Note_on_c, 3, 57, 0
14, 19800, Note_on_c, 3, 58, 117
14, 19841, Note_on_c, 3, 58, 0
14, 19860, Note_on_c, 3, 55, 117
14, 19901, Note_on_c, 3, 55, 0
14, 19920, Note_on_c, 3, 57, 125
14, 19961, Note_on_c, 3, 57, 0
14, 19980, Note_on_c, 3, 58, 125
14, 20021, Note_on_c, 3, 58, 0
14, 20040, Note_on_c, 3, 55, 123
14, 20081, Note_on_c, 3, 55, 0
14, 20100, Note_on_c, 3, 60, 123
14, 20141, Note_on_c, 3, 60, 0
14, 20160, Note_on_c, 3, 53, 117
14, 20261, Note_on_c, 3, 53, 0
14, 20280, Note_on_c, 3, 53, 125
14, 20321, Note_on_c, 3, 53, 0
14, 20400, Note_on_c, 3, 48, 123
14, 20441, Note_on_c, 3, 48, 0
14, 20460, Note_on_c, 3, 50, 123
14, 20501, Note_on_c, 3, 50, 0
14, 20520, Note_on_c, 3, 53, 117
14, 20621, Note_on_c, 3, 53, 0
14, 20640, Note_on_c, 3, 53, 125
14, 20681, Note_on_c, 3, 53, 0
14, 20880, Note_on_c, 3, 53, 117
14, 20981, Note_on_c, 3, 53, 0
14, 21000, Note_on_c, 3, 53, 125
14, 21041, Note_on_c, 3, 53, 0
14, 21120, Note_on_c, 3, 48, 123
14, 21161, Note_on_c, 3, 48, 0
14, 21180, Note_on_c, 3, 50, 123
14, 21221, Note_on_c, 3, 50, 0
14, 21240, Note_on_c, 3, 53, 117
14, 21341, Note_on_c, 3, 53, 0
14, 21360, Note_on_c, 3, 53, 125
14, 21401, Note_on_c, 3, 53, 0
14, 21480, Note_on_c, 3, 55, 123
14, 21521, Note_on_c, 3, 55, 0
14, 21540, Note_on_c, 3, 57, 123
14, 21581, Note_on_c, 3, 57, 0
14, 21600, Note_on_c, 3, 53, 117
14, 21701, Note_on_c, 3, 53, 0
14, 21720, Note_on_c, 3, 53, 125
14, 21761, Note_on_c, 3, 53, 0
14, 21840, Note_on_c, 3, 48, 123
14, 21881, Note_on_c, 3, 48, 0
14, 21900, Note_on_c, 3, 50, 123
14, 21941, Note_on_c, 3, 50, 0
14, 21960, Note_on_c, 3, 53, 117
14, 22061, Note_on_c, 3, 53, 0
14, 22080, Note_on_c, 3, 53, 125
14, 22121, Note_on_c, 3, 53, 0
14, 22320, Note_on_c, 3, 53, 123
14, 22436, Note_on_c, 3, 53, 0
14, 22440, Note_on_c, 3, 53, 125
14, 22481, Note_on_c, 3, 53, 0
14, 22560, Note_on_c, 3, 55, 123
14, 22601, Note_on_c, 3, 55, 0
14, 22620, Note_on_c, 3, 57, 123
14, 22661, Note_on_c, 3, 57, 0
14, 22680, Note_on_c, 3, 58, 117
14, 22721, Note_on_c, 3, 58, 0
14, 22740, Note_on_c, 3, 55, 117
14, 22781, Note_on_c, 3, 55, 0
14, 22800, Note_on_c, 3, 57, 125
14, 22841, Note_on_c, 3, 57, 0
14, 22860, Note_on_c, 3, 58, 125
14, 22901, Note_on_c, 3, 58, 0
14, 22920, Note_on_c, 3, 55, 123
14, 22961, Note_on_c, 3, 55, 0
14, 22980, Note_on_c, 3, 60, 123
14, 23021, Note_on_c, 3, 60, 0
14, 23040, Note_on_c, 3, 53, 117
14, 23141, Note_on_c, 3, 53, 0
14, 23160, Note_on_c, 3, 53, 125
14, 23201, Note_on_c, 3, 53, 0
14, 23280, Note_on_c, 3, 48, 123
14, 23321, Note_on_c, 3, 48, 0
14, 23340, Note_on_c, 3, 50, 123
14, 23381, Note_on_c, 3, 50, 0
14, 23400, Note_on_c, 3, 53, 117
14, 23501, Note_on_c, 3, 53, 0
14, 23520, Note_on_c, 3, 53, 125
14, 23561, Note_on_c, 3, 53, 0
14, 23760, Note_on_c, 3, 53, 117
14, 23861, Note_on_c, 3, 53, 0
14, 23880, Note_on_c, 3, 53, 125
14, 23921, Note_on_c, 3, 53, 0
14, 24060, Note_on_c, 3, 51, 123
14, 24101, Note_on_c, 3, 51, 0
14, 24120, Note_on_c, 3, 53, 123
14, 24221, Note_on_c, 3, 53, 0
14, 24240, Note_on_c, 3, 53, 123
14, 24281, Note_on_c, 3, 53, 0
14, 24360, Note_on_c, 3, 51, 123
14, 24431, Note_on_c, 3, 51, 0
14, 24480, Note_on_c, 3, 53, 117
14, 24581, Note_on_c, 3, 53, 0
14, 24600, Note_on_c, 3, 53, 123
14, 24641, Note_on_c, 3, 53, 0
14, 24720, Note_on_c, 3, 49, 123
14, 24761, Note_on_c, 3, 49, 0
14, 24780, Note_on_c, 3, 51, 123
14, 24821, Note_on_c, 3, 51, 0
14, 24840, Note_on_c, 3, 53, 123
14, 24941, Note_on_c, 3, 53, 0
14, 24960, Note_on_c, 3, 53, 123
14, 25001, Note_on_c, 3, 53, 0
14, 25140, Note_on_c, 3, 51, 123
14, 25200, Note_on_c, 3, 53, 123
14, 25211, Note_on_c, 3, 51, 0
14, 25316, Note_on_c, 3, 53, 0
14, 25320, Note_on_c, 3, 53, 123
14, 25361, Note_on_c, 3, 53, 0
14, 25440, Note_on_c, 3, 48, 123
14, 25481, Note_on_c, 3, 48, 0
14, 25500, Note_on_c, 3, 49, 123
14, 25541, Note_on_c, 3, 49, 0
14, 25560, Note_on_c, 3, 53, 123
14, 25594, Note_on_c, 3, 53, 0
14, 25620, Note_on_c, 3, 48, 123
14, 25661, Note_on_c, 3, 48, 0
14, 25680, Note_on_c, 3, 49, 123
14, 25721, Note_on_c, 3, 49, 0
14, 25740, Note_on_c, 3, 53, 123
14, 25781, Note_on_c, 3, 53, 0
14, 25800, Note_on_c, 3, 48, 123
14, 25860, Note_on_c, 3, 49, 123
14, 25871, Note_on_c, 3, 48, 0
14, 25920, Note_on_c, 3, 53, 123
14, 25931, Note_on_c, 3, 49, 0
14, 26021, Note_on_c, 3, 53, 0
14, 26040, Note_on_c, 3, 53, 123
14, 26081, Note_on_c, 3, 53, 0
14, 26160, Note_on_c, 3, 49, 123
14, 26201, Note_on_c, 3, 49, 0
14, 26220, Note_on_c, 3, 51, 123
14, 26261, Note_on_c, 3, 51, 0
14, 26280, Note_on_c, 3, 53, 123
14, 26381, Note_on_c, 3, 53, 0
14, 26400, Note_on_c, 3, 53, 123
14, 26441, Note_on_c, 3, 53, 0
14, 26520, Note_on_c, 3, 49, 123
14, 26580, Note_on_c, 3, 51, 123
14, 26591, Note_on_c, 3, 49, 0
14, 26640, Note_on_c, 3, 53, 123
14, 26651, Note_on_c, 3, 51, 0
14, 26741, Note_on_c, 3, 53, 0
14, 26760, Note_on_c, 3, 53, 123
14, 26801, Note_on_c, 3, 53, 0
14, 26880, Note_on_c, 3, 49, 123
14, 26921, Note_on_c, 3, 49, 0
14, 26940, Note_on_c, 3, 51, 123
14, 26981, Note_on_c, 3, 51, 0
14, 27000, Note_on_c, 3, 53, 123
14, 27101, Note_on_c, 3, 53, 0
14, 27120, Note_on_c, 3, 53, 123
14, 27161, Note_on_c, 3, 53, 0
14, 27240, Note_on_c, 3, 49, 123
14, 27300, Note_on_c, 3, 51, 123
14, 27311, Note_on_c, 3, 49, 0
14, 27360, Note_on_c, 3, 58, 125
14, 27371, Note_on_c, 3, 51, 0
14, 27449, Note_on_c, 3, 58, 0
14, 27480, Note_on_c, 3, 58, 125
14, 27521, Note_on_c, 3, 58, 0
14, 27600, Note_on_c, 3, 53, 125
14, 27641, Note_on_c, 3, 53, 0
14, 27660, Note_on_c, 3, 56, 125
14, 27701, Note_on_c, 3, 56, 0
14, 27720, Note_on_c, 3, 58, 125
14, 27809, Note_on_c, 3, 58, 0
14, 27840, Note_on_c, 3, 58, 125
14, 27881, Note_on_c, 3, 58, 0
14, 27960, Note_on_c, 3, 53, 125
14, 28001, Note_on_c, 3, 53, 0
14, 28020, Note_on_c, 3, 56, 125
14, 28061, Note_on_c, 3, 56, 0
14, 28080, Note_on_c, 3, 58, 125
14, 28169, Note_on_c, 3, 58, 0
14, 28200, Note_on_c, 3, 58, 125
14, 28241, Note_on_c, 3, 58, 0
14, 28320, Note_on_c, 3, 53, 125
14, 28361, Note_on_c, 3, 53, 0
14, 28380, Note_on_c, 3, 56, 125
14, 28421, Note_on_c, 3, 56, 0
14, 28440, Note_on_c, 3, 58, 125
14, 28496, Note_on_c, 3, 58, 0
14, 28560, Note_on_c, 3, 56, 125
14, 28661, Note_on_c, 3, 56, 0
14, 28680, Note_on_c, 3, 53, 125
14, 28736, Note_on_c, 3, 53, 0
14, 28740, Note_on_c, 3, 51, 125
14, 28796, Note_on_c, 3, 51, 0
14, 28800, Note_on_c, 3, 53, 125
14, 28901, Note_on_c, 3, 53, 0
14, 28920, Note_on_c, 3, 53, 125
14, 28961, Note_on_c, 3, 53, 0
14, 29040, Note_on_c, 3, 49, 125
14, 29081, Note_on_c, 3, 49, 0
14, 29100, Note_on_c, 3, 51, 125
14, 29141, Note_on_c, 3, 51, 0
14, 29160, Note_on_c, 3, 53, 125
14, 29261, Note_on_c, 3, 53, 0
14, 29280, Note_on_c, 3, 53, 125
14, 29321, Note_on_c, 3, 53, 0
14, 29400, Note_on_c, 3, 49, 125
14, 29441, Note_on_c, 3, 49, 0
14, 29460, Note_on_c, 3, 51, 125
14, 29501, Note_on_c, 3, 51, 0
14, 29520, Note_on_c, 3, 53, 125
14, 29621, Note_on_c, 3, 53, 0
14, 29640, Note_on_c, 3, 53, 125
14, 29681, Note_on_c, 3, 53, 0
14, 29760, Note_on_c, 3, 49, 125
14, 29801, Note_on_c, 3, 49, 0
14, 29820, Note_on_c, 3, 51, 125
14, 29861, Note_on_c, 3, 51, 0
14, 29880, Note_on_c, 3, 53, 125
14, 29921, Note_on_c, 3, 53, 0
14, 30000, Note_on_c, 3, 53, 125
14, 30041, Note_on_c, 3, 53, 0
14, 30120, Note_on_c, 3, 53, 125
14, 30161, Note_on_c, 3, 53, 0
14, 30180, Note_on_c, 3, 51, 125
14, 30221, Note_on_c, 3, 51, 0
14, 74880, Note_on_c, 3, 53, 117
14, 74981, Note_on_c, 3, 53, 0
14, 75000, Note_on_c, 3, 53, 125
14, 75041, Note_on_c, 3, 53, 0
14, 75120, Note_on_c, 3, 48, 123
14, 75161, Note_on_c, 3, 48, 0
14, 75180, Note_on_c, 3, 50, 123
14, 75221, Note_on_c, 3, 50, 0
14, 75240, Note_on_c, 3, 53, 117
14, 75341, Note_on_c, 3, 53, 0
14, 75360, Note_on_c, 3, 53, 125
14, 75401, Note_on_c, 3, 53, 0
14, 75600, Note_on_c, 3, 53, 117
14, 75701, Note_on_c, 3, 53, 0
14, 75720, Note_on_c, 3, 53, 125
14, 75761, Note_on_c, 3, 53, 0
14, 75840, Note_on_c, 3, 48, 123
14, 75881, Note_on_c, 3, 48, 0
14, 75900, Note_on_c, 3, 50, 123
14, 75941, Note_on_c, 3, 50, 0
14, 75960, Note_on_c, 3, 53, 117
14, 76061, Note_on_c, 3, 53, 0
14, 76080, Note_on_c, 3, 53, 125
14, 76121, Note_on_c, 3, 53, 0
14, 76200, Note_on_c, 3, 55, 123
14, 76241, Note_on_c, 3, 55, 0
14, 76260, Note_on_c, 3, 57, 123
14, 76301, Note_on_c, 3, 57, 0
14, 76320, Note_on_c, 3, 53, 117
14, 76421, Note_on_c, 3, 53, 0
14, 76440, Note_on_c, 3, 53, 125
14, 76481, Note_on_c, 3, 53, 0
14, 76560, Note_on_c, 3, 48, 123
14, 76601, Note_on_c, 3, 48, 0
14, 76620, Note_on_c, 3, 50, 123
14, 76661, Note_on_c, 3, 50, 0
14, 76680, Note_on_c, 3, 53, 117
14, 76781, Note_on_c, 3, 53, 0
14, 76800, Note_on_c, 3, 53, 125
14, 76841, Note_on_c, 3, 53, 0
14, 77040, Note_on_c, 3, 53, 123
14, 77156, Note_on_c, 3, 53, 0
14, 77160, Note_on_c, 3, 53, 125
14, 77201, Note_on_c, 3, 53, 0
14, 77280, Note_on_c, 3, 55, 123
14, 77321, Note_on_c, 3, 55, 0
14, 77340, Note_on_c, 3, 57, 123
14, 77381, Note_on_c, 3, 57, 0
14, 77400, Note_on_c, 3, 58, 117
14, 77441, Note_on_c, 3, 58, 0
14, 77460, Note_on_c, 3, 55, 117
14, 77501, Note_on_c, 3, 55, 0
14, 77520, Note_on_c, 3, 57, 125
14, 77561, Note_on_c, 3, 57, 0
14, 77580, Note_on_c, 3, 58, 125
14, 77621, Note_on_c, 3, 58, 0
14, 77640, Note_on_c, 3, 55, 123
14, 77681, Note_on_c, 3, 55, 0
14, 77700, Note_on_c, 3, 60, 123
14, 77741, Note_on_c, 3, 60, 0
14, 77760, Note_on_c, 3, 53, 117
14, 77861, Note_on_c, 3, 53, 0
14, 77880, Note_on_c, 3, 53, 125
14, 77921, Note_on_c, 3, 53, 0
14, 78000, Note_on_c, 3, 48, 123
14, 78041, Note_on_c, 3, 48, 0
14, 78060, Note_on_c, 3, 50, 123
14, 78101, Note_on_c, 3, 50, 0
14, 78120, Note_on_c, 3, 53, 117
14, 78221, Note_on_c, 3, 53, 0
14, 78240, Note_on_c, 3, 53, 125
14, 78281, Note_on_c, 3, 53, 0
14, 78480, Note_on_c, 3, 53, 117
14, 78581, Note_on_c, 3, 53, 0
14, 78600, Note_on_c, 3, 53, 125
14, 78641, Note_on_c, 3, 53, 0
14, 78780, Note_on_c, 3, 51, 123
14, 78821, Note_on_c, 3, 51, 0
14, 78840, Note_on_c, 3, 53, 123
14, 78941, Note_on_c, 3, 53, 0
14, 78960, Note_on_c, 3, 53, 123
14, 79001, Note_on_c, 3, 53, 0
14, 79080, Note_on_c, 3, 51, 123
14, 79151, Note_on_c, 3, 51, 0
14, 79200, Note_on_c, 3, 53, 117
14, 79301, Note_on_c, 3, 53, 0
14, 79320, Note_on_c, 3, 53, 123
14, 79361, Note_on_c, 3, 53, 0
14, 79440, Note_on_c, 3, 49, 123
14, 79481, Note_on_c, 3, 49, 0
14, 79500, Note_on_c, 3, 51, 123
14, 79541, Note_on_c, 3, 51, 0
14, 79560, Note_on_c, 3, 53, 123
14, 79661, Note_on_c, 3, 53, 0
14, 79680, Note_on_c, 3, 53, 123
14, 79721, Note_on_c, 3, 53, 0
14, 79860, Note_on_c, 3, 51, 123
14, 79920, Note_on_c, 3, 53, 123
14, 79931, Note_on_c, 3, 51, 0
14, 80036, Note_on_c, 3, 53, 0
14, 80040, Note_on_c, 3, 53, 123
14, 80081, Note_on_c, 3, 53, 0
14, 80160, Note_on_c, 3, 48, 123
14, 80201, Note_on_c, 3, 48, 0
14, 80220, Note_on_c, 3, 49, 123
14, 80261, Note_on_c, 3, 49, 0
14, 80280, Note_on_c, 3, 53, 123
14, 80314, Note_on_c, 3, 53, 0
14, 80340, Note_on_c, 3, 48, 123
14, 80381, Note_on_c, 3, 48, 0
14, 80400, Note_on_c, 3, 49, 123
14, 80441, Note_on_c, 3, 49, 0
14, 80460, Note_on_c, 3, 53, 123
14, 80501, Note_on_c, 3, 53, 0
14, 80520, Note_on_c, 3, 48, 123
14, 80580, Note_on_c, 3, 49, 123
14, 80591, Note_on_c, 3, 48, 0
14, 80640, Note_on_c, 3, 53, 123
14, 80651, Note_on_c, 3, 49, 0
14, 80741, Note_on_c, 3, 53, 0
14, 80760, Note_on_c, 3, 53, 123
14, 80801, Note_on_c, 3, 53, 0
14, 80880, Note_on_c, 3, 49, 123
14, 80921, Note_on_c, 3, 49, 0
14, 80940, Note_on_c, 3, 51, 123
14, 80981, Note_on_c, 3, 51, 0
14, 81000, Note_on_c, 3, 53, 123
14, 81101, Note_on_c, 3, 53, 0
14, 81120, Note_on_c, 3, 53, 123
14, 81161, Note_on_c, 3, 53, 0
14, 81240, Note_on_c, 3, 49, 123
14, 81300, Note_on_c, 3, 51, 123
14, 81311, Note_on_c, 3, 49, 0
14, 81360, Note_on_c, 3, 53, 123
14, 81371, Note_on_c, 3, 51, 0
14, 81461, Note_on_c, 3, 53, 0
14, 81480, Note_on_c, 3, 53, 123
14, 81521, Note_on_c, 3, 53, 0
14, 81600, Note_on_c, 3, 49, 123
14, 81641, Note_on_c, 3, 49, 0
14, 81660, Note_on_c, 3, 51, 123
14, 81701, Note_on_c, 3, 51, 0
14, 81720, Note_on_c, 3, 53, 123
14, 81821, Note_on_c, 3, 53, 0
14, 81840, Note_on_c, 3, 53, 123
14, 81881, Note_on_c, 3, 53, 0
14, 81960, Note_on_c, 3, 49, 123
14, 82020, Note_on_c, 3, 51, 123
14, 82031, Note_on_c, 3, 49, 0
14, 82080, Note_on_c, 3, 58, 125
14, 82091, Note_on_c, 3, 51, 0
14, 82169, Note_on_c, 3, 58, 0
14, 82200, Note_on_c, 3, 58, 125
14, 82241, Note_on_c, 3, 58, 0
14, 82320, Note_on_c, 3, 53, 125
14, 82361, Note_on_c, 3, 53, 0
14, 82380, Note_on_c, 3, 56, 125
14, 82421, Note_on_c, 3, 56, 0
14, 82440, Note_on_c, 3, 58, 125
14, 82529, Note_on_c, 3, 58, 0
14, 82560, Note_on_c, 3, 58, 125
14, 82601, Note_on_c, 3, 58, 0
14, 82680, Note_on_c, 3, 53, 125
14, 82721, Note_on_c, 3, 53, 0
14, 82740, Note_on_c, 3, 56, 125
14, 82781, Note_on_c, 3, 56, 0
14, 82800, Note_on_c, 3, 58, 125
14, 82889, Note_on_c, 3, 58, 0
14, 82920, Note_on_c, 3, 58, 125
14, 82961, Note_on_c, 3, 58, 0
14, 83040, Note_on_c, 3, 53, 125
14, 83081, Note_on_c, 3, 53, 0
14, 83100, Note_on_c, 3, 56, 125
14, 83141, Note_on_c, 3, 56, 0
14, 83160, Note_on_c, 3, 58, 125
14, 83216, Note_on_c, 3, 58, 0
14, 83280, Note_on_c, 3, 56, 125
14, 83381, Note_on_c, 3, 56, 0
14, 83400, Note_on_c, 3, 53, 125
14, 83456, Note_on_c, 3, 53, 0
14, 83460, Note_on_c, 3, 51, 125
14, 83516, Note_on_c, 3, 51, 0
14, 83520, Note_on_c, 3, 53, 125
14, 83621, Note_on_c, 3, 53, 0
14, 83640, Note_on_c, 3, 53, 125
14, 83681, Note_on_c, 3, 53, 0
14, 83760, Note_on_c, 3, 49, 125
14, 83801, Note_on_c, 3, 49, 0
14, 83820, Note_on_c, 3, 51, 125
14, 83861, Note_on_c, 3, 51, 0
14, 83880, Note_on_c, 3, 53, 125
14, 83981, Note_on_c, 3, 53, 0
14, 84000, Note_on_c, 3, 53, 125
14, 84041, Note_on_c, 3, 53, 0
14, 84120, Note_on_c, 3, 49, 125
14, 84161, Note_on_c, 3, 49, 0
14, 84180, Note_on_c, 3, 51, 125
14, 84221, Note_on_c, 3, 51, 0
14, 84240, Note_on_c, 3, 53, 125
14, 84341, Note_on_c, 3, 53, 0
14, 84360, Note_on_c, 3, 53, 125
14, 84401, Note_on_c, 3, 53, 0
14, 84480, Note_on_c, 3, 49, 125
14, 84521, Note_on_c, 3, 49, 0
14, 84540, Note_on_c, 3, 51, 125
14, 84581, Note_on_c, 3, 51, 0
14, 84600, Note_on_c, 3, 53, 125
14, 84641, Note_on_c, 3, 53, 0
14, 84720, Note_on_c, 3, 53, 125
14, 84761, Note_on_c, 3, 53, 0
14, 84840, Note_on_c, 3, 53, 125
14, 84881, Note_on_c, 3, 53, 0
14, 84900, Note_on_c, 3, 51, 125
14, 84941, Note_on_c, 3, 51, 0
14, 115200, Control_c, 3, 11, 127
14, 115245, Control_c, 3, 11, 126
14, 115290, Control_c, 3, 11, 125
14, 115336, Control_c, 3, 11, 124
14, 115381, Control_c, 3, 11, 123
14, 115426, Control_c, 3, 11, 122
14, 115472, Control_c, 3, 11, 121
14, 115517, Control_c, 3, 11, 120
14, 115562, Control_c, 3, 11, 119
14, 115608, Control_c, 3, 11, 118
14, 115653, Control_c, 3, 11, 117
14, 115698, Control_c, 3, 11, 116
14, 115744, Control_c, 3, 11, 115
14, 115789, Control_c, 3, 11, 114
14, 115834, Control_c, 3, 11, 113
14, 115880, Control_c, 3, 11, 112
14, 115925, Control_c, 3, 11, 111
14, 115970, Control_c, 3, 11, 110
14, 116016, Control_c, 3, 11, 109
14, 116061, Control_c, 3, 11, 108
14, 116106, Control_c, 3, 11, 107
14, 116152, Control_c, 3, 11, 106
14, 116197, Control_c, 3, 11, 105
14, 116242, Control_c, 3, 11, 104
14, 116288, Control_c, 3, 11, 103
14, 116333, Control_c, 3, 11, 102
14, 116379, Control_c, 3, 11, 101
14, 116424, Control_c, 3, 11, 100
14, 116469, Control_c, 3, 11, 99
14, 116515, Control_c, 3, 11, 98
14, 116560, Control_c, 3, 11, 97
14, 116605, Control_c, 3, 11, 96
14, 116651, Control_c, 3, 11, 95
14, 116696, Control_c, 3, 11, 94
14, 116741, Control_c, 3, 11, 93
14, 116787, Control_c, 3, 11, 92
14, 116832, Control_c, 3, 11, 91
14, 116877, Control_c, 3, 11, 90
14, 116923, Control_c, 3, 11, 89
14, 116968, Control_c, 3, 11, 88
14, 117013, Control_c, 3, 11, 87
14, 117059, Control_c, 3, 11, 86
14, 117104, Control_c, 3, 11, 85
14, 117149, Control_c, 3, 11, 84
14, 117195, Control_c, 3, 11, 83
14, 117240, Control_c, 3, 11, 82
14, 117285, Control_c, 3, 11, 81
14, 117331, Control_c, 3, 11, 80
14, 117376, Control_c, 3, 11, 79
14, 117421, Control_c, 3, 11, 78
14, 117467, Control_c, 3, 11, 77
14, 117512, Control_c, 3, 11, 76
14, 117558, Control_c, 3, 11, 75
14, 117603, Control_c, 3, 11, 74
14, 117648, Control_c, 3, 11, 73
14, 117694, Control_c, 3, 11, 72
14, 117739, Control_c, 3, 11, 71
14, 117784, Control_c, 3, 11, 70
14, 117830, Control_c, 3, 11, 69
14, 117875, Control_c, 3, 11, 68
14, 117920, Control_c, 3, 11, 67
14, 117966, Control_c, 3, 11, 66
14, 118011, Control_c, 3, 11, 65
14, 118056, Control_c, 3, 11, 64
14, 118102, Control_c, 3, 11, 63
14, 118147, Control_c, 3, 11, 62
14, 118192, Control_c, 3, 11, 61
14, 118238, Control_c, 3, 11, 60
14, 118283, Control_c, 3, 11, 59
14, 118328, Control_c, 3, 11, 58
14, 118374, Control_c, 3, 11, 57
14, 118419, Control_c, 3, 11, 56
14, 118464, Control_c, 3, 11, 55
14, 118510, Control_c, 3, 11, 54
14, 118555, Control_c, 3, 11, 53
14, 118600, Control_c, 3, 11, 52
14, 118646, Control_c, 3, 11, 51
14, 118691, Control_c, 3, 11, 50
14, 118737, Control_c, 3, 11, 49
14, 118782, Control_c, 3, 11, 48
14, 118827, Control_c, 3, 11, 47
14, 118873, Control_c, 3, 11, 46
14, 118918, Control_c, 3, 11, 45
14, 118963, Control_c, 3, 11, 44
14, 119009, Control_c, 3, 11, 43
14, 119054, Control_c, 3, 11, 42
14, 119099, Control_c, 3, 11, 41
14, 119145, Control_c, 3, 11, 40
14, 119190, Control_c, 3, 11, 39
14, 119235, Control_c, 3, 11, 38
14, 119281, Control_c, 3, 11, 37
14, 119326, Control_c, 3, 11, 36
14, 119371, Control_c, 3, 11, 35
14, 119417, Control_c, 3, 11, 34
14, 119462, Control_c, 3, 11, 33
14, 119507, Control_c, 3, 11, 32
14, 119553, Control_c, 3, 11, 31
14, 119598, Control_c, 3, 11, 30
14, 119643, Control_c, 3, 11, 29
14, 119689, Control_c, 3, 11, 28
14, 119734, Control_c, 3, 11, 27
14, 119779, Control_c, 3, 11, 26
14, 119825, Control_c, 3, 11, 25
14, 119870, Control_c, 3, 11, 24
14, 119916, Control_c, 3, 11, 23
14, 119961, Control_c, 3, 11, 22
14, 120006, Control_c, 3, 11, 21
14, 120052, Control_c, 3, 11, 20
14, 120097, Control_c, 3, 11, 19
14, 120142, Control_c, 3, 11, 18
14, 120188, Control_c, 3, 11, 17
14, 120233, Control_c, 3, 11, 16
14, 120278, Control_c, 3, 11, 15
14, 120324, Control_c, 3, 11, 14
14, 120369, Control_c, 3, 11, 13
14, 120414, Control_c, 3, 11, 12
14, 120460, Control_c, 3, 11, 11
14, 120505, Control_c, 3, 11, 10
14, 120550, Control_c, 3, 11, 9
14, 120596, Control_c, 3, 11, 8
14, 120641, Control_c, 3, 11, 7
14, 120686, Control_c, 3, 11, 6
14, 120732, Control_c, 3, 11, 5
14, 120777, Control_c, 3, 11, 4
14, 120822, Control_c, 3, 11, 3
14, 120868, Control_c, 3, 11, 2
14, 120913, Control_c, 3, 11, 1
14, 120959, Control_c, 3, 11, 0
14, 121399, Control_c, 3, 121, 0
14, 121399, End_track
15, 0, Start_track
15, 0, MIDI_port, 0
15, 0, Title_t, "Atmosphere"
15, 120, Control_c, 4, 121, 0
15, 121, Program_c, 4, 99
15, 122, Control_c, 4, 7, 48
15, 123, Control_c, 4, 10, 54
15, 124, Control_c, 4, 91, 127
15, 125, Control_c, 4, 93, 12
15, 126, Control_c, 4, 99, 1
15, 127, Control_c, 4, 98, 32
15, 128, Control_c, 4, 6, 68
15, 129, Control_c, 4, 101, 127
15, 130, Control_c, 4, 100, 127
15, 3780, Note_on_c, 4, 67, 109
15, 3840, Note_on_c, 4, 65, 109
15, 3900, Note_on_c, 4, 67, 0
15, 3900, Note_on_c, 4, 70, 109
15, 3960, Note_on_c, 4, 65, 0
15, 3960, Note_on_c, 4, 72, 109
15, 4020, Note_on_c, 4, 70, 0
15, 4020, Note_on_c, 4, 76, 109
15, 4080, Note_on_c, 4, 72, 0
15, 4080, Note_on_c, 4, 79, 109
15, 4080, Note_on_c, 4, 84, 109
15, 4140, Note_on_c, 4, 76, 0
15, 4200, Note_on_c, 4, 84, 0
15, 4200, Note_on_c, 4, 79, 0
15, 4200, Note_on_c, 4, 77, 109
15, 4200, Note_on_c, 4, 82, 109
15, 4260, Note_on_c, 4, 76, 109
15, 4260, Note_on_c, 4, 81, 109
15, 4320, Note_on_c, 4, 82, 0
15, 4320, Note_on_c, 4, 77, 0
15, 4440, Note_on_c, 4, 76, 0
15, 4440, Note_on_c, 4, 81, 0
15, 6720, Note_on_c, 4, 84, 109
15, 6840, Note_on_c, 4, 84, 0
15, 6840, Note_on_c, 4, 79, 109
15, 6900, Note_on_c, 4, 81, 109
15, 6960, Note_on_c, 4, 79, 0
15, 6960, Note_on_c, 4, 77, 109
15, 7020, Note_on_c, 4, 81, 0
15, 7020, Note_on_c, 4, 79, 109
15, 7080, Note_on_c, 4, 77, 0
15, 7080, Note_on_c, 4, 76, 109
15, 7140, Note_on_c, 4, 79, 0
15, 7140, Note_on_c, 4, 72, 109
15, 7200, Note_on_c, 4, 76, 0
15, 7260, Note_on_c, 4, 72, 0
15, 19680, Note_on_c, 4, 84, 109
15, 19800, Note_on_c, 4, 84, 0
15, 19800, Note_on_c, 4, 79, 109
15, 19860, Note_on_c, 4, 81, 109
15, 19920, Note_on_c, 4, 79, 0
15, 19920, Note_on_c, 4, 77, 109
15, 19980, Note_on_c, 4, 81, 0
15, 19980, Note_on_c, 4, 79, 109
15, 20040, Note_on_c, 4, 77, 0
15, 20040, Note_on_c, 4, 76, 109
15, 20100, Note_on_c, 4, 79, 0
15, 20100, Note_on_c, 4, 72, 109
15, 20160, Note_on_c, 4, 76, 0
15, 20220, Note_on_c, 4, 72, 0
15, 22320, Note_on_c, 4, 58, 109
15, 22380, Note_on_c, 4, 60, 109
15, 22440, Note_on_c, 4, 58, 0
15, 22440, Note_on_c, 4, 64, 109
15, 22440, Note_on_c, 4, 67, 109
15, 22500, Note_on_c, 4, 60, 0
15, 22560, Note_on_c, 4, 67, 0
15, 22560, Note_on_c, 4, 64, 0
15, 22560, Note_on_c, 4, 65, 109
15, 22620, Note_on_c, 4, 70, 109
15, 22680, Note_on_c, 4, 65, 0
15, 22680, Note_on_c, 4, 72, 109
15, 22740, Note_on_c, 4, 70, 0
15, 22740, Note_on_c, 4, 76, 109
15, 22800, Note_on_c, 4, 72, 0
15, 22800, Note_on_c, 4, 79, 109
15, 22800, Note_on_c, 4, 84, 109
15, 22860, Note_on_c, 4, 76, 0
15, 22920, Note_on_c, 4, 84, 0
15, 22920, Note_on_c, 4, 79, 0
15, 22920, Note_on_c, 4, 77, 109
15, 22920, Note_on_c, 4, 82, 109
15, 22980, Note_on_c, 4, 76, 109
15, 22980, Note_on_c, 4, 81, 109
15, 23040, Note_on_c, 4, 82, 0
15, 23040, Note_on_c, 4, 77, 0
15, 23160, Note_on_c, 4, 76, 0
15, 23160, Note_on_c, 4, 81, 0
15, 51180, Note_on_c, 4, 72, 119
15, 51240, Note_on_c, 4, 70, 119
15, 51300, Note_on_c, 4, 70, 0
15, 51300, Note_on_c, 4, 72, 0
15, 51300, Note_on_c, 4, 68, 119
15, 51360, Note_on_c, 4, 70, 119
15, 51420, Note_on_c, 4, 68, 0
15, 51420, Note_on_c, 4, 72, 119
15, 51480, Note_on_c, 4, 72, 0
15, 51480, Note_on_c, 4, 70, 0
15, 51480, Note_on_c, 4, 73, 119
15, 51540, Note_on_c, 4, 73, 0
15, 51540, Note_on_c, 4, 74, 119
15, 51600, Note_on_c, 4, 74, 0
15, 51600, Note_on_c, 4, 75, 119
15, 51660, Note_on_c, 4, 75, 0
15, 51660, Note_on_c, 4, 68, 127
15, 51840, Note_on_c, 4, 68, 0
15, 62820, Note_on_c, 4, 77, 99
15, 62880, Note_on_c, 4, 79, 99
15, 62940, Note_on_c, 4, 77, 0
15, 62940, Note_on_c, 4, 81, 99
15, 63000, Note_on_c, 4, 81, 0
15, 63000, Note_on_c, 4, 79, 0
15, 63000, Note_on_c, 4, 77, 99
15, 63120, Note_on_c, 4, 77, 0
15, 63120, Note_on_c, 4, 79, 99
15, 63240, Note_on_c, 4, 79, 0
15, 63240, Note_on_c, 4, 84, 99
15, 63390, Note_on_c, 4, 84, 0
15, 77040, Note_on_c, 4, 58, 109
15, 77100, Note_on_c, 4, 60, 109
15, 77160, Note_on_c, 4, 58, 0
15, 77160, Note_on_c, 4, 64, 109
15, 77160, Note_on_c, 4, 67, 109
15, 77220, Note_on_c, 4, 60, 0
15, 77280, Note_on_c, 4, 67, 0
15, 77280, Note_on_c, 4, 64, 0
15, 77280, Note_on_c, 4, 65, 109
15, 77340, Note_on_c, 4, 70, 109
15, 77400, Note_on_c, 4, 65, 0
15, 77400, Note_on_c, 4, 72, 109
15, 77460, Note_on_c, 4, 70, 0
15, 77460, Note_on_c, 4, 76, 109
15, 77520, Note_on_c, 4, 72, 0
15, 77520, Note_on_c, 4, 79, 109
15, 77520, Note_on_c, 4, 84, 109
15, 77580, Note_on_c, 4, 76, 0
15, 77640, Note_on_c, 4, 84, 0
15, 77640, Note_on_c, 4, 79, 0
15, 77640, Note_on_c, 4, 77, 109
15, 77640, Note_on_c, 4, 82, 109
15, 77700, Note_on_c, 4, 76, 109
15, 77700, Note_on_c, 4, 81, 109
15, 77760, Note_on_c, 4, 82, 0
15, 77760, Note_on_c, 4, 77, 0
15, 77880, Note_on_c, 4, 76, 0
15, 77880, Note_on_c, 4, 81, 0
15, 115200, Control_c, 4, 11, 127
15, 115245, Control_c, 4, 11, 126
15, 115290, Control_c, 4, 11, 125
15, 115336, Control_c, 4, 11, 124
15, 115381, Control_c, 4, 11, 123
15, 115426, Control_c, 4, 11, 122
15, 115472, Control_c, 4, 11, 121
15, 115517, Control_c, 4, 11, 120
15, 115562, Control_c, 4, 11, 119
15, 115608, Control_c, 4, 11, 118
15, 115653, Control_c, 4, 11, 117
15, 115698, Control_c, 4, 11, 116
15, 115744, Control_c, 4, 11, 115
15, 115789, Control_c, 4, 11, 114
15, 115834, Control_c, 4, 11, 113
15, 115880, Control_c, 4, 11, 112
15, 115925, Control_c, 4, 11, 111
15, 115970, Control_c, 4, 11, 110
15, 116016, Control_c, 4, 11, 109
15, 116061, Control_c, 4, 11, 108
15, 116106, Control_c, 4, 11, 107
15, 116152, Control_c, 4, 11, 106
15, 116197, Control_c, 4, 11, 105
15, 116242, Control_c, 4, 11, 104
15, 116288, Control_c, 4, 11, 103
15, 116333, Control_c, 4, 11, 102
15, 116379, Control_c, 4, 11, 101
15, 116424, Control_c, 4, 11, 100
15, 116469, Control_c, 4, 11, 99
15, 116515, Control_c, 4, 11, 98
15, 116560, Control_c, 4, 11, 97
15, 116605, Control_c, 4, 11, 96
15, 116651, Control_c, 4, 11, 95
15, 116696, Control_c, 4, 11, 94
15, 116741, Control_c, 4, 11, 93
15, 116787, Control_c, 4, 11, 92
15, 116832, Control_c, 4, 11, 91
15, 116877, Control_c, 4, 11, 90
15, 116923, Control_c, 4, 11, 89
15, 116968, Control_c, 4, 11, 88
15, 117013, Control_c, 4, 11, 87
15, 117059, Control_c, 4, 11, 86
15, 117104, Control_c, 4, 11, 85
15, 117149, Control_c, 4, 11, 84
15, 117195, Control_c, 4, 11, 83
15, 117240, Control_c, 4, 11, 82
15, 117285, Control_c, 4, 11, 81
15, 117331, Control_c, 4, 11, 80
15, 117376, Control_c, 4, 11, 79
15, 117421, Control_c, 4, 11, 78
15, 117467, Control_c, 4, 11, 77
15, 117512, Control_c, 4, 11, 76
15, 117558, Control_c, 4, 11, 75
15, 117603, Control_c, 4, 11, 74
15, 117648, Control_c, 4, 11, 73
15, 117694, Control_c, 4, 11, 72
15, 117739, Control_c, 4, 11, 71
15, 117784, Control_c, 4, 11, 70
15, 117830, Control_c, 4, 11, 69
15, 117875, Control_c, 4, 11, 68
15, 117920, Control_c, 4, 11, 67
15, 117966, Control_c, 4, 11, 66
15, 118011, Control_c, 4, 11, 65
15, 118056, Control_c, 4, 11, 64
15, 118102, Control_c, 4, 11, 63
15, 118147, Control_c, 4, 11, 62
15, 118192, Control_c, 4, 11, 61
15, 118238, Control_c, 4, 11, 60
15, 118283, Control_c, 4, 11, 59
15, 118328, Control_c, 4, 11, 58
15, 118374, Control_c, 4, 11, 57
15, 118419, Control_c, 4, 11, 56
15, 118464, Control_c, 4, 11, 55
15, 118510, Control_c, 4, 11, 54
15, 118555, Control_c, 4, 11, 53
15, 118600, Control_c, 4, 11, 52
15, 118646, Control_c, 4, 11, 51
15, 118691, Control_c, 4, 11, 50
15, 118737, Control_c, 4, 11, 49
15, 118782, Control_c, 4, 11, 48
15, 118827, Control_c, 4, 11, 47
15, 118873, Control_c, 4, 11, 46
15, 118918, Control_c, 4, 11, 45
15, 118963, Control_c, 4, 11, 44
15, 119009, Control_c, 4, 11, 43
15, 119054, Control_c, 4, 11, 42
15, 119099, Control_c, 4, 11, 41
15, 119145, Control_c, 4, 11, 40
15, 119190, Control_c, 4, 11, 39
15, 119235, Control_c, 4, 11, 38
15, 119281, Control_c, 4, 11, 37
15, 119326, Control_c, 4, 11, 36
15, 119371, Control_c, 4, 11, 35
15, 119417, Control_c, 4, 11, 34
15, 119462, Control_c, 4, 11, 33
15, 119507, Control_c, 4, 11, 32
15, 119553, Control_c, 4, 11, 31
15, 119598, Control_c, 4, 11, 30
15, 119643, Control_c, 4, 11, 29
15, 119689, Control_c, 4, 11, 28
15, 119734, Control_c, 4, 11, 27
15, 119779, Control_c, 4, 11, 26
15, 119825, Control_c, 4, 11, 25
15, 119870, Control_c, 4, 11, 24
15, 119916, Control_c, 4, 11, 23
15, 119961, Control_c, 4, 11, 22
15, 120006, Control_c, 4, 11, 21
15, 120052, Control_c, 4, 11, 20
15, 120097, Control_c, 4, 11, 19
15, 120142, Control_c, 4, 11, 18
15, 120188, Control_c, 4, 11, 17
15, 120233, Control_c, 4, 11, 16
15, 120278, Control_c, 4, 11, 15
15, 120324, Control_c, 4, 11, 14
15, 120369, Control_c, 4, 11, 13
15, 120414, Control_c, 4, 11, 12
15, 120460, Control_c, 4, 11, 11
15, 120505, Control_c, 4, 11, 10
15, 120550, Control_c, 4, 11, 9
15, 120596, Control_c, 4, 11, 8
15, 120641, Control_c, 4, 11, 7
15, 120686, Control_c, 4, 11, 6
15, 120732, Control_c, 4, 11, 5
15, 120777, Control_c, 4, 11, 4
15, 120822, Control_c, 4, 11, 3
15, 120868, Control_c, 4, 11, 2
15, 120913, Control_c, 4, 11, 1
15, 120959, Control_c, 4, 11, 0
15, 121400, Control_c, 4, 121, 0
15, 121400, End_track
16, 0, Start_track
16, 0, MIDI_port, 0
16, 0, Title_t, "Synth Brass 2"
16, 150, Control_c, 5, 121, 0
16, 151, Control_c, 5, 0, 0
16, 151, Control_c, 5, 32, 0
16, 151, Program_c, 5, 63
16, 152, Control_c, 5, 7, 72
16, 153, Control_c, 5, 10, 95
16, 154, Control_c, 5, 91, 64
16, 155, Control_c, 5, 93, 96
16, 156, Control_c, 5, 99, 1
16, 157, Control_c, 5, 98, 32
16, 158, Control_c, 5, 6, 61
16, 159, Control_c, 5, 101, 127
16, 160, Control_c, 5, 100, 127
16, 1440, Note_on_c, 5, 53, 82
16, 1440, Note_on_c, 5, 57, 82
16, 1440, Note_on_c, 5, 60, 82
16, 1440, Note_on_c, 5, 64, 82
16, 1672, Note_on_c, 5, 64, 0
16, 1672, Note_on_c, 5, 53, 0
16, 1672, Note_on_c, 5, 57, 0
16, 1672, Note_on_c, 5, 60, 0
16, 1740, Note_on_c, 5, 53, 82
16, 1740, Note_on_c, 5, 58, 82
16, 1740, Note_on_c, 5, 62, 82
16, 1740, Note_on_c, 5, 65, 82
16, 2512, Note_on_c, 5, 65, 0
16, 2512, Note_on_c, 5, 53, 0
16, 2512, Note_on_c, 5, 58, 0
16, 2512, Note_on_c, 5, 62, 0
16, 2880, Note_on_c, 5, 53, 82
16, 2880, Note_on_c, 5, 57, 82
16, 2880, Note_on_c, 5, 60, 82
16, 2880, Note_on_c, 5, 64, 82
16, 3112, Note_on_c, 5, 64, 0
16, 3112, Note_on_c, 5, 53, 0
16, 3112, Note_on_c, 5, 57, 0
16, 3112, Note_on_c, 5, 60, 0
16, 3180, Note_on_c, 5, 57, 82
16, 3180, Note_on_c, 5, 67, 82
16, 3180, Note_on_c, 5, 53, 82
16, 3180, Note_on_c, 5, 60, 82
16, 3412, Note_on_c, 5, 60, 0
16, 3412, Note_on_c, 5, 57, 0
16, 3412, Note_on_c, 5, 67, 0
16, 3412, Note_on_c, 5, 53, 0
16, 3420, Note_on_c, 5, 53, 82
16, 3420, Note_on_c, 5, 58, 82
16, 3420, Note_on_c, 5, 62, 82
16, 3952, Note_on_c, 5, 62, 0
16, 3952, Note_on_c, 5, 58, 0
16, 3952, Note_on_c, 5, 53, 0
16, 4320, Note_on_c, 5, 53, 82
16, 4320, Note_on_c, 5, 57, 82
16, 4320, Note_on_c, 5, 60, 82
16, 4320, Note_on_c, 5, 64, 82
16, 4552, Note_on_c, 5, 64, 0
16, 4552, Note_on_c, 5, 53, 0
16, 4552, Note_on_c, 5, 57, 0
16, 4552, Note_on_c, 5, 60, 0
16, 4620, Note_on_c, 5, 53, 82
16, 4620, Note_on_c, 5, 58, 82
16, 4620, Note_on_c, 5, 62, 82
16, 4620, Note_on_c, 5, 65, 82
16, 5392, Note_on_c, 5, 65, 0
16, 5392, Note_on_c, 5, 53, 0
16, 5392, Note_on_c, 5, 58, 0
16, 5392, Note_on_c, 5, 62, 0
16, 5760, Note_on_c, 5, 67, 82
16, 5760, Note_on_c, 5, 57, 82
16, 5760, Note_on_c, 5, 60, 82
16, 5760, Note_on_c, 5, 64, 82
16, 5992, Note_on_c, 5, 64, 0
16, 5992, Note_on_c, 5, 67, 0
16, 5992, Note_on_c, 5, 57, 0
16, 5992, Note_on_c, 5, 60, 0
16, 6060, Note_on_c, 5, 53, 82
16, 6060, Note_on_c, 5, 57, 82
16, 6060, Note_on_c, 5, 60, 82
16, 6060, Note_on_c, 5, 64, 82
16, 6262, Note_on_c, 5, 64, 0
16, 6262, Note_on_c, 5, 53, 0
16, 6262, Note_on_c, 5, 57, 0
16, 6262, Note_on_c, 5, 60, 0
16, 6300, Note_on_c, 5, 55, 82
16, 6300, Note_on_c, 5, 65, 82
16, 6300, Note_on_c, 5, 58, 82
16, 6300, Note_on_c, 5, 62, 82
16, 6832, Note_on_c, 5, 62, 0
16, 6832, Note_on_c, 5, 55, 0
16, 6832, Note_on_c, 5, 65, 0
16, 6832, Note_on_c, 5, 58, 0
16, 11520, Note_on_c, 5, 56, 63
16, 11520, Note_on_c, 5, 65, 63
16, 11520, Note_on_c, 5, 60, 63
16, 11572, Note_on_c, 5, 60, 0
16, 11572, Note_on_c, 5, 65, 0
16, 11572, Note_on_c, 5, 56, 0
16, 11580, Note_on_c, 5, 56, 63
16, 11580, Note_on_c, 5, 65, 63
16, 11580, Note_on_c, 5, 60, 63
16, 11662, Note_on_c, 5, 60, 0
16, 11662, Note_on_c, 5, 65, 0
16, 11662, Note_on_c, 5, 56, 0
16, 11760, Note_on_c, 5, 56, 63
16, 11760, Note_on_c, 5, 65, 63
16, 11760, Note_on_c, 5, 60, 63
16, 11812, Note_on_c, 5, 60, 0
16, 11820, Note_on_c, 5, 58, 63
16, 11872, Note_on_c, 5, 58, 0
16, 11872, Note_on_c, 5, 65, 0
16, 11872, Note_on_c, 5, 56, 0
16, 11880, Note_on_c, 5, 56, 63
16, 11880, Note_on_c, 5, 60, 63
16, 11880, Note_on_c, 5, 65, 63
16, 12172, Note_on_c, 5, 65, 0
16, 12172, Note_on_c, 5, 60, 0
16, 12172, Note_on_c, 5, 56, 0
16, 17280, Note_on_c, 5, 53, 82
16, 17280, Note_on_c, 5, 57, 82
16, 17280, Note_on_c, 5, 60, 82
16, 17280, Note_on_c, 5, 64, 82
16, 17512, Note_on_c, 5, 64, 0
16, 17512, Note_on_c, 5, 53, 0
16, 17512, Note_on_c, 5, 57, 0
16, 17512, Note_on_c, 5, 60, 0
16, 17580, Note_on_c, 5, 53, 82
16, 17580, Note_on_c, 5, 58, 82
16, 17580, Note_on_c, 5, 62, 82
16, 17580, Note_on_c, 5, 65, 82
16, 18352, Note_on_c, 5, 65, 0
16, 18352, Note_on_c, 5, 53, 0
16, 18352, Note_on_c, 5, 58, 0
16, 18352, Note_on_c, 5, 62, 0
16, 18720, Note_on_c, 5, 67, 82
16, 18720, Note_on_c, 5, 57, 82
16, 18720, Note_on_c, 5, 60, 82
16, 18720, Note_on_c, 5, 64, 82
16, 18952, Note_on_c, 5, 64, 0
16, 18952, Note_on_c, 5, 67, 0
16, 18952, Note_on_c, 5, 57, 0
16, 18952, Note_on_c, 5, 60, 0
16, 19020, Note_on_c, 5, 53, 82
16, 19020, Note_on_c, 5, 57, 82
16, 19020, Note_on_c, 5, 60, 82
16, 19020, Note_on_c, 5, 64, 82
16, 19222, Note_on_c, 5, 64, 0
16, 19222, Note_on_c, 5, 53, 0
16, 19222, Note_on_c, 5, 57, 0
16, 19222, Note_on_c, 5, 60, 0
16, 19260, Note_on_c, 5, 55, 82
16, 19260, Note_on_c, 5, 65, 82
16, 19260, Note_on_c, 5, 58, 82
16, 19260, Note_on_c, 5, 62, 82
16, 19792, Note_on_c, 5, 62, 0
16, 19792, Note_on_c, 5, 55, 0
16, 19792, Note_on_c, 5, 65, 0
16, 19792, Note_on_c, 5, 58, 0
16, 24480, Note_on_c, 5, 56, 82
16, 24480, Note_on_c, 5, 60, 82
16, 24480, Note_on_c, 5, 63, 82
16, 24592, Note_on_c, 5, 63, 0
16, 24592, Note_on_c, 5, 60, 0
16, 24592, Note_on_c, 5, 56, 0
16, 24600, Note_on_c, 5, 56, 82
16, 24600, Note_on_c, 5, 60, 82
16, 24600, Note_on_c, 5, 63, 82
16, 24667, Note_on_c, 5, 63, 0
16, 24667, Note_on_c, 5, 60, 0
16, 24667, Note_on_c, 5, 56, 0
16, 24720, Note_on_c, 5, 56, 82
16, 24720, Note_on_c, 5, 60, 82
16, 24720, Note_on_c, 5, 63, 82
16, 24802, Note_on_c, 5, 63, 0
16, 24802, Note_on_c, 5, 60, 0
16, 24802, Note_on_c, 5, 56, 0
16, 24840, Note_on_c, 5, 56, 82
16, 24840, Note_on_c, 5, 60, 82
16, 24840, Note_on_c, 5, 63, 82
16, 24960, Note_on_c, 5, 63, 0
16, 24960, Note_on_c, 5, 60, 0
16, 24960, Note_on_c, 5, 56, 0
16, 24960, Note_on_c, 5, 56, 82
16, 24960, Note_on_c, 5, 60, 82
16, 24960, Note_on_c, 5, 63, 82
16, 25020, Note_on_c, 5, 63, 0
16, 25020, Note_on_c, 5, 60, 0
16, 25020, Note_on_c, 5, 56, 0
16, 25200, Note_on_c, 5, 56, 82
16, 25200, Note_on_c, 5, 60, 82
16, 25200, Note_on_c, 5, 63, 82
16, 25312, Note_on_c, 5, 63, 0
16, 25312, Note_on_c, 5, 60, 0
16, 25312, Note_on_c, 5, 56, 0
16, 25320, Note_on_c, 5, 56, 82
16, 25320, Note_on_c, 5, 60, 82
16, 25320, Note_on_c, 5, 63, 82
16, 25387, Note_on_c, 5, 63, 0
16, 25387, Note_on_c, 5, 60, 0
16, 25387, Note_on_c, 5, 56, 0
16, 25440, Note_on_c, 5, 56, 82
16, 25440, Note_on_c, 5, 60, 82
16, 25440, Note_on_c, 5, 63, 82
16, 25522, Note_on_c, 5, 63, 0
16, 25522, Note_on_c, 5, 60, 0
16, 25522, Note_on_c, 5, 56, 0
16, 25560, Note_on_c, 5, 56, 82
16, 25560, Note_on_c, 5, 60, 82
16, 25560, Note_on_c, 5, 63, 82
16, 25680, Note_on_c, 5, 63, 0
16, 25680, Note_on_c, 5, 60, 0
16, 25680, Note_on_c, 5, 56, 0
16, 25680, Note_on_c, 5, 56, 82
16, 25680, Note_on_c, 5, 60, 82
16, 25680, Note_on_c, 5, 63, 82
16, 25740, Note_on_c, 5, 63, 0
16, 25740, Note_on_c, 5, 60, 0
16, 25740, Note_on_c, 5, 56, 0
16, 26040, Note_on_c, 5, 61, 82
16, 26040, Note_on_c, 5, 60, 82
16, 26040, Note_on_c, 5, 65, 82
16, 26152, Note_on_c, 5, 65, 0
16, 26152, Note_on_c, 5, 60, 0
16, 26152, Note_on_c, 5, 61, 0
16, 26160, Note_on_c, 5, 60, 82
16, 26160, Note_on_c, 5, 61, 82
16, 26160, Note_on_c, 5, 65, 82
16, 26242, Note_on_c, 5, 65, 0
16, 26242, Note_on_c, 5, 61, 0
16, 26242, Note_on_c, 5, 60, 0
16, 26280, Note_on_c, 5, 61, 82
16, 26280, Note_on_c, 5, 60, 82
16, 26280, Note_on_c, 5, 65, 82
16, 26452, Note_on_c, 5, 65, 0
16, 26452, Note_on_c, 5, 60, 0
16, 26452, Note_on_c, 5, 61, 0
16, 26460, Note_on_c, 5, 61, 82
16, 26460, Note_on_c, 5, 60, 82
16, 26460, Note_on_c, 5, 65, 82
16, 26572, Note_on_c, 5, 65, 0
16, 26572, Note_on_c, 5, 60, 0
16, 26572, Note_on_c, 5, 61, 0
16, 26580, Note_on_c, 5, 58, 82
16, 26580, Note_on_c, 5, 61, 82
16, 26580, Note_on_c, 5, 65, 82
16, 26700, Note_on_c, 5, 58, 82
16, 26700, Note_on_c, 5, 61, 82
16, 26700, Note_on_c, 5, 65, 82
16, 26752, Note_on_c, 5, 65, 0
16, 26752, Note_on_c, 5, 58, 0
16, 26752, Note_on_c, 5, 61, 0
16, 26812, Note_on_c, 5, 58, 0
16, 26812, Note_on_c, 5, 61, 0
16, 26812, Note_on_c, 5, 65, 0
16, 26820, Note_on_c, 5, 58, 82
16, 26820, Note_on_c, 5, 61, 82
16, 26820, Note_on_c, 5, 65, 82
16, 27052, Note_on_c, 5, 65, 0
16, 27052, Note_on_c, 5, 61, 0
16, 27052, Note_on_c, 5, 58, 0
16, 27180, Note_on_c, 5, 56, 82
16, 27180, Note_on_c, 5, 60, 82
16, 27180, Note_on_c, 5, 63, 82
16, 27292, Note_on_c, 5, 63, 0
16, 27292, Note_on_c, 5, 60, 0
16, 27292, Note_on_c, 5, 56, 0
16, 27300, Note_on_c, 5, 56, 82
16, 27300, Note_on_c, 5, 60, 82
16, 27300, Note_on_c, 5, 63, 82
16, 27412, Note_on_c, 5, 63, 0
16, 27412, Note_on_c, 5, 60, 0
16, 27412, Note_on_c, 5, 56, 0
16, 27420, Note_on_c, 5, 60, 82
16, 27420, Note_on_c, 5, 61, 82
16, 27420, Note_on_c, 5, 65, 82
16, 27472, Note_on_c, 5, 65, 0
16, 27472, Note_on_c, 5, 61, 0
16, 27472, Note_on_c, 5, 60, 0
16, 27540, Note_on_c, 5, 60, 82
16, 27540, Note_on_c, 5, 61, 82
16, 27540, Note_on_c, 5, 65, 82
16, 27712, Note_on_c, 5, 65, 0
16, 27712, Note_on_c, 5, 61, 0
16, 27712, Note_on_c, 5, 60, 0
16, 27720, Note_on_c, 5, 60, 82
16, 27720, Note_on_c, 5, 61, 82
16, 27720, Note_on_c, 5, 65, 82
16, 27832, Note_on_c, 5, 65, 0
16, 27832, Note_on_c, 5, 61, 0
16, 27832, Note_on_c, 5, 60, 0
16, 27840, Note_on_c, 5, 61, 82
16, 27840, Note_on_c, 5, 60, 82
16, 27840, Note_on_c, 5, 65, 82
16, 27922, Note_on_c, 5, 65, 0
16, 27922, Note_on_c, 5, 60, 0
16, 27922, Note_on_c, 5, 61, 0
16, 28080, Note_on_c, 5, 60, 82
16, 28080, Note_on_c, 5, 61, 82
16, 28080, Note_on_c, 5, 65, 82
16, 28192, Note_on_c, 5, 65, 0
16, 28192, Note_on_c, 5, 61, 0
16, 28192, Note_on_c, 5, 60, 0
16, 28200, Note_on_c, 5, 60, 82
16, 28200, Note_on_c, 5, 61, 82
16, 28200, Note_on_c, 5, 65, 82
16, 28252, Note_on_c, 5, 65, 0
16, 28252, Note_on_c, 5, 61, 0
16, 28252, Note_on_c, 5, 60, 0
16, 28320, Note_on_c, 5, 60, 82
16, 28320, Note_on_c, 5, 61, 82
16, 28320, Note_on_c, 5, 65, 82
16, 28372, Note_on_c, 5, 65, 0
16, 28372, Note_on_c, 5, 61, 0
16, 28372, Note_on_c, 5, 60, 0
16, 28440, Note_on_c, 5, 60, 82
16, 28440, Note_on_c, 5, 63, 82
16, 28440, Note_on_c, 5, 67, 82
16, 28552, Note_on_c, 5, 67, 0
16, 28552, Note_on_c, 5, 63, 0
16, 28552, Note_on_c, 5, 60, 0
16, 28560, Note_on_c, 5, 60, 82
16, 28560, Note_on_c, 5, 63, 82
16, 28560, Note_on_c, 5, 67, 82
16, 28672, Note_on_c, 5, 67, 0
16, 28672, Note_on_c, 5, 63, 0
16, 28672, Note_on_c, 5, 60, 0
16, 28680, Note_on_c, 5, 60, 82
16, 28680, Note_on_c, 5, 63, 82
16, 28680, Note_on_c, 5, 67, 82
16, 28792, Note_on_c, 5, 67, 0
16, 28792, Note_on_c, 5, 63, 0
16, 28792, Note_on_c, 5, 60, 0
16, 28920, Note_on_c, 5, 56, 82
16, 28920, Note_on_c, 5, 60, 82
16, 28920, Note_on_c, 5, 65, 82
16, 29002, Note_on_c, 5, 65, 0
16, 29002, Note_on_c, 5, 60, 0
16, 29002, Note_on_c, 5, 56, 0
16, 29040, Note_on_c, 5, 60, 82
16, 29040, Note_on_c, 5, 56, 82
16, 29040, Note_on_c, 5, 65, 82
16, 29092, Note_on_c, 5, 65, 0
16, 29092, Note_on_c, 5, 56, 0
16, 29092, Note_on_c, 5, 60, 0
16, 29160, Note_on_c, 5, 60, 82
16, 29160, Note_on_c, 5, 56, 82
16, 29160, Note_on_c, 5, 65, 82
16, 29272, Note_on_c, 5, 65, 0
16, 29272, Note_on_c, 5, 56, 0
16, 29272, Note_on_c, 5, 60, 0
16, 29280, Note_on_c, 5, 60, 82
16, 29280, Note_on_c, 5, 56, 82
16, 29280, Note_on_c, 5, 65, 82
16, 29332, Note_on_c, 5, 65, 0
16, 29332, Note_on_c, 5, 56, 0
16, 29332, Note_on_c, 5, 60, 0
16, 29520, Note_on_c, 5, 60, 82
16, 29520, Note_on_c, 5, 56, 82
16, 29520, Note_on_c, 5, 65, 82
16, 29632, Note_on_c, 5, 65, 0
16, 29632, Note_on_c, 5, 56, 0
16, 29632, Note_on_c, 5, 60, 0
16, 29640, Note_on_c, 5, 60, 82
16, 29640, Note_on_c, 5, 56, 82
16, 29640, Note_on_c, 5, 65, 82
16, 29692, Note_on_c, 5, 65, 0
16, 29692, Note_on_c, 5, 56, 0
16, 29692, Note_on_c, 5, 60, 0
16, 29760, Note_on_c, 5, 60, 82
16, 29760, Note_on_c, 5, 56, 82
16, 29760, Note_on_c, 5, 65, 82
16, 29812, Note_on_c, 5, 65, 0
16, 29812, Note_on_c, 5, 56, 0
16, 29812, Note_on_c, 5, 60, 0
16, 29880, Note_on_c, 5, 60, 82
16, 29880, Note_on_c, 5, 63, 82
16, 29880, Note_on_c, 5, 67, 82
16, 30232, Note_on_c, 5, 67, 0
16, 30232, Note_on_c, 5, 63, 0
16, 30232, Note_on_c, 5, 60, 0
16, 30300, Note_on_c, 5, 57, 82
16, 30360, Note_on_c, 5, 57, 0
16, 30360, Note_on_c, 5, 58, 82
16, 30420, Note_on_c, 5, 58, 0
16, 30420, Note_on_c, 5, 62, 82
16, 30480, Note_on_c, 5, 62, 0
16, 30480, Note_on_c, 5, 58, 82
16, 30540, Note_on_c, 5, 58, 0
16, 30540, Note_on_c, 5, 60, 82
16, 30600, Note_on_c, 5, 60, 0
16, 30660, Note_on_c, 5, 60, 82
16, 30720, Note_on_c, 5, 60, 0
16, 30720, Note_on_c, 5, 62, 82
16, 30780, Note_on_c, 5, 62, 0
16, 30780, Note_on_c, 5, 67, 82
16, 30840, Note_on_c, 5, 67, 0
16, 30840, Note_on_c, 5, 62, 82
16, 30900, Note_on_c, 5, 62, 0
16, 30900, Note_on_c, 5, 65, 82
16, 30960, Note_on_c, 5, 65, 0
16, 31020, Note_on_c, 5, 65, 82
16, 31080, Note_on_c, 5, 65, 0
16, 31080, Note_on_c, 5, 67, 82
16, 31140, Note_on_c, 5, 67, 0
16, 31140, Note_on_c, 5, 70, 82
16, 31200, Note_on_c, 5, 70, 0
16, 31200, Note_on_c, 5, 65, 82
16, 31260, Note_on_c, 5, 65, 0
16, 31260, Note_on_c, 5, 68, 82
16, 31320, Note_on_c, 5, 68, 0
16, 31380, Note_on_c, 5, 51, 82
16, 31380, Note_on_c, 5, 63, 82
16, 31380, Note_on_c, 5, 75, 82
16, 31440, Note_on_c, 5, 75, 0
16, 31440, Note_on_c, 5, 63, 0
16, 31440, Note_on_c, 5, 51, 0
16, 31440, Note_on_c, 5, 53, 82
16, 31440, Note_on_c, 5, 65, 82
16, 31440, Note_on_c, 5, 77, 82
16, 31500, Note_on_c, 5, 77, 0
16, 31500, Note_on_c, 5, 65, 0
16, 31500, Note_on_c, 5, 53, 0
16, 31500, Note_on_c, 5, 56, 92
16, 31500, Note_on_c, 5, 68, 92
16, 31500, Note_on_c, 5, 80, 92
16, 31560, Note_on_c, 5, 80, 0
16, 31560, Note_on_c, 5, 68, 0
16, 31560, Note_on_c, 5, 56, 0
16, 31560, Note_on_c, 5, 58, 92
16, 31560, Note_on_c, 5, 70, 92
16, 31560, Note_on_c, 5, 82, 92
16, 31620, Note_on_c, 5, 82, 0
16, 31620, Note_on_c, 5, 70, 0
16, 31620, Note_on_c, 5, 58, 0
16, 31620, Note_on_c, 5, 60, 92
16, 31620, Note_on_c, 5, 72, 92
16, 31620, Note_on_c, 5, 84, 92
16, 31680, Note_on_c, 5, 84, 0
16, 31680, Note_on_c, 5, 72, 0
16, 31680, Note_on_c, 5, 60, 0
16, 32100, Note_on_c, 5, 51, 82
16, 32100, Note_on_c, 5, 63, 82
16, 32160, Note_on_c, 5, 63, 0
16, 32160, Note_on_c, 5, 51, 0
16, 32160, Note_on_c, 5, 53, 82
16, 32160, Note_on_c, 5, 65, 82
16, 32220, Note_on_c, 5, 65, 0
16, 32220, Note_on_c, 5, 53, 0
16, 32340, Note_on_c, 5, 58, 82
16, 32340, Note_on_c, 5, 61, 82
16, 32340, Note_on_c, 5, 65, 82
16, 32460, Note_on_c, 5, 65, 0
16, 32460, Note_on_c, 5, 61, 0
16, 32460, Note_on_c, 5, 58, 0
16, 32460, Note_on_c, 5, 58, 82
16, 32460, Note_on_c, 5, 61, 82
16, 32460, Note_on_c, 5, 65, 82
16, 32520, Note_on_c, 5, 65, 0
16, 32520, Note_on_c, 5, 61, 0
16, 32520, Note_on_c, 5, 58, 0
16, 32580, Note_on_c, 5, 60, 82
16, 32580, Note_on_c, 5, 63, 82
16, 32580, Note_on_c, 5, 67, 82
16, 32880, Note_on_c, 5, 67, 0
16, 32880, Note_on_c, 5, 63, 0
16, 32880, Note_on_c, 5, 60, 0
16, 32880, Note_on_c, 5, 63, 66
16, 32880, Note_on_c, 5, 60, 66
16, 32880, Note_on_c, 5, 67, 66
16, 32940, Note_on_c, 5, 67, 0
16, 32940, Note_on_c, 5, 60, 0
16, 32940, Note_on_c, 5, 63, 0
16, 34260, Note_on_c, 5, 63, 82
16, 34320, Note_on_c, 5, 63, 0
16, 34320, Note_on_c, 5, 65, 82
16, 34380, Note_on_c, 5, 65, 0
16, 34380, Note_on_c, 5, 67, 82
16, 34440, Note_on_c, 5, 67, 0
16, 34440, Note_on_c, 5, 68, 82
16, 34500, Note_on_c, 5, 68, 0
16, 34500, Note_on_c, 5, 70, 82
16, 34560, Note_on_c, 5, 70, 0
16, 34560, Note_on_c, 5, 61, 82
16, 34560, Note_on_c, 5, 65, 82
16, 34560, Note_on_c, 5, 68, 82
16, 34680, Note_on_c, 5, 68, 0
16, 34680, Note_on_c, 5, 65, 0
16, 34680, Note_on_c, 5, 61, 0
16, 34680, Note_on_c, 5, 61, 82
16, 34680, Note_on_c, 5, 65, 82
16, 34680, Note_on_c, 5, 68, 82
16, 34740, Note_on_c, 5, 68, 0
16, 34740, Note_on_c, 5, 65, 0
16, 34740, Note_on_c, 5, 61, 0
16, 34800, Note_on_c, 5, 61, 82
16, 34800, Note_on_c, 5, 65, 82
16, 34800, Note_on_c, 5, 68, 82
16, 34920, Note_on_c, 5, 68, 0
16, 34920, Note_on_c, 5, 65, 0
16, 34920, Note_on_c, 5, 61, 0
16, 34920, Note_on_c, 5, 67, 82
16, 34920, Note_on_c, 5, 63, 82
16, 34920, Note_on_c, 5, 58, 82
16, 35100, Note_on_c, 5, 58, 0
16, 35100, Note_on_c, 5, 63, 0
16, 35100, Note_on_c, 5, 67, 0
16, 35100, Note_on_c, 5, 67, 82
16, 35100, Note_on_c, 5, 63, 82
16, 35100, Note_on_c, 5, 58, 82
16, 35220, Note_on_c, 5, 58, 0
16, 35220, Note_on_c, 5, 63, 0
16, 35220, Note_on_c, 5, 67, 0
16, 35220, Note_on_c, 5, 55, 82
16, 35220, Note_on_c, 5, 60, 82
16, 35220, Note_on_c, 5, 63, 82
16, 35400, Note_on_c, 5, 63, 0
16, 35400, Note_on_c, 5, 60, 0
16, 35400, Note_on_c, 5, 55, 0
16, 35400, Note_on_c, 5, 55, 82
16, 35400, Note_on_c, 5, 60, 82
16, 35400, Note_on_c, 5, 63, 82
16, 35460, Note_on_c, 5, 63, 0
16, 35460, Note_on_c, 5, 60, 0
16, 35460, Note_on_c, 5, 55, 0
16, 35460, Note_on_c, 5, 56, 82
16, 35460, Note_on_c, 5, 60, 82
16, 35460, Note_on_c, 5, 63, 82
16, 35820, Note_on_c, 5, 63, 0
16, 35820, Note_on_c, 5, 60, 0
16, 35820, Note_on_c, 5, 56, 0
16, 48960, Note_on_c, 5, 60, 72
16, 48960, Note_on_c, 5, 63, 72
16, 48960, Note_on_c, 5, 56, 72
16, 49252, Note_on_c, 5, 56, 0
16, 49252, Note_on_c, 5, 63, 0
16, 49252, Note_on_c, 5, 60, 0
16, 49260, Note_on_c, 5, 61, 72
16, 49260, Note_on_c, 5, 65, 72
16, 49260, Note_on_c, 5, 58, 72
16, 49612, Note_on_c, 5, 58, 0
16, 49612, Note_on_c, 5, 65, 0
16, 49612, Note_on_c, 5, 61, 0
16, 49620, Note_on_c, 5, 61, 72
16, 49620, Note_on_c, 5, 65, 72
16, 49620, Note_on_c, 5, 58, 72
16, 49672, Note_on_c, 5, 58, 0
16, 49672, Note_on_c, 5, 65, 0
16, 49672, Note_on_c, 5, 61, 0
16, 49680, Note_on_c, 5, 61, 72
16, 49680, Note_on_c, 5, 65, 72
16, 49680, Note_on_c, 5, 58, 72
16, 49792, Note_on_c, 5, 58, 0
16, 49792, Note_on_c, 5, 65, 0
16, 49792, Note_on_c, 5, 61, 0
16, 49800, Note_on_c, 5, 61, 72
16, 49800, Note_on_c, 5, 65, 72
16, 49800, Note_on_c, 5, 58, 72
16, 49852, Note_on_c, 5, 58, 0
16, 49852, Note_on_c, 5, 65, 0
16, 49852, Note_on_c, 5, 61, 0
16, 49920, Note_on_c, 5, 61, 72
16, 49920, Note_on_c, 5, 65, 72
16, 49920, Note_on_c, 5, 58, 72
16, 50032, Note_on_c, 5, 58, 0
16, 50032, Note_on_c, 5, 65, 0
16, 50032, Note_on_c, 5, 61, 0
16, 50040, Note_on_c, 5, 61, 72
16, 50040, Note_on_c, 5, 65, 72
16, 50040, Note_on_c, 5, 58, 72
16, 50212, Note_on_c, 5, 58, 0
16, 50212, Note_on_c, 5, 65, 0
16, 50212, Note_on_c, 5, 61, 0
16, 50220, Note_on_c, 5, 61, 72
16, 50220, Note_on_c, 5, 65, 72
16, 50220, Note_on_c, 5, 58, 72
16, 50272, Note_on_c, 5, 58, 0
16, 50272, Note_on_c, 5, 65, 0
16, 50272, Note_on_c, 5, 61, 0
16, 50280, Note_on_c, 5, 61, 63
16, 50280, Note_on_c, 5, 65, 63
16, 50280, Note_on_c, 5, 58, 63
16, 50332, Note_on_c, 5, 58, 0
16, 50332, Note_on_c, 5, 65, 0
16, 50332, Note_on_c, 5, 61, 0
16, 50340, Note_on_c, 5, 61, 72
16, 50340, Note_on_c, 5, 65, 72
16, 50340, Note_on_c, 5, 58, 72
16, 50392, Note_on_c, 5, 58, 0
16, 50392, Note_on_c, 5, 65, 0
16, 50392, Note_on_c, 5, 61, 0
16, 50400, Note_on_c, 5, 60, 72
16, 50400, Note_on_c, 5, 63, 72
16, 50400, Note_on_c, 5, 56, 72
16, 50692, Note_on_c, 5, 56, 0
16, 50692, Note_on_c, 5, 63, 0
16, 50692, Note_on_c, 5, 60, 0
16, 50700, Note_on_c, 5, 60, 72
16, 50700, Note_on_c, 5, 63, 72
16, 50700, Note_on_c, 5, 56, 72
16, 50932, Note_on_c, 5, 56, 0
16, 50932, Note_on_c, 5, 63, 0
16, 50932, Note_on_c, 5, 60, 0
16, 50940, Note_on_c, 5, 61, 72
16, 50940, Note_on_c, 5, 65, 72
16, 50940, Note_on_c, 5, 58, 72
16, 51232, Note_on_c, 5, 58, 0
16, 51232, Note_on_c, 5, 65, 0
16, 51232, Note_on_c, 5, 61, 0
16, 51240, Note_on_c, 5, 61, 72
16, 51240, Note_on_c, 5, 65, 72
16, 51240, Note_on_c, 5, 58, 72
16, 51292, Note_on_c, 5, 58, 0
16, 51292, Note_on_c, 5, 65, 0
16, 51292, Note_on_c, 5, 61, 0
16, 51360, Note_on_c, 5, 61, 72
16, 51360, Note_on_c, 5, 65, 72
16, 51360, Note_on_c, 5, 58, 72
16, 51412, Note_on_c, 5, 58, 0
16, 51412, Note_on_c, 5, 65, 0
16, 51412, Note_on_c, 5, 61, 0
16, 51480, Note_on_c, 5, 61, 72
16, 51480, Note_on_c, 5, 65, 72
16, 51480, Note_on_c, 5, 68, 72
16, 51832, Note_on_c, 5, 68, 0
16, 51832, Note_on_c, 5, 65, 0
16, 51832, Note_on_c, 5, 61, 0
16, 51840, Note_on_c, 5, 60, 72
16, 51840, Note_on_c, 5, 63, 72
16, 51840, Note_on_c, 5, 56, 72
16, 52132, Note_on_c, 5, 56, 0
16, 52132, Note_on_c, 5, 63, 0
16, 52132, Note_on_c, 5, 60, 0
16, 52140, Note_on_c, 5, 61, 72
16, 52140, Note_on_c, 5, 65, 72
16, 52140, Note_on_c, 5, 58, 72
16, 52492, Note_on_c, 5, 58, 0
16, 52492, Note_on_c, 5, 65, 0
16, 52492, Note_on_c, 5, 61, 0
16, 52500, Note_on_c, 5, 61, 72
16, 52500, Note_on_c, 5, 65, 72
16, 52500, Note_on_c, 5, 58, 72
16, 52552, Note_on_c, 5, 58, 0
16, 52552, Note_on_c, 5, 65, 0
16, 52552, Note_on_c, 5, 61, 0
16, 52560, Note_on_c, 5, 61, 72
16, 52560, Note_on_c, 5, 65, 72
16, 52560, Note_on_c, 5, 58, 72
16, 52672, Note_on_c, 5, 58, 0
16, 52672, Note_on_c, 5, 65, 0
16, 52672, Note_on_c, 5, 61, 0
16, 52680, Note_on_c, 5, 61, 72
16, 52680, Note_on_c, 5, 65, 72
16, 52680, Note_on_c, 5, 58, 72
16, 52732, Note_on_c, 5, 58, 0
16, 52732, Note_on_c, 5, 65, 0
16, 52732, Note_on_c, 5, 61, 0
16, 52800, Note_on_c, 5, 61, 72
16, 52800, Note_on_c, 5, 65, 72
16, 52800, Note_on_c, 5, 58, 72
16, 52912, Note_on_c, 5, 58, 0
16, 52912, Note_on_c, 5, 65, 0
16, 52912, Note_on_c, 5, 61, 0
16, 52920, Note_on_c, 5, 61, 72
16, 52920, Note_on_c, 5, 65, 72
16, 52920, Note_on_c, 5, 58, 72
16, 53092, Note_on_c, 5, 58, 0
16, 53092, Note_on_c, 5, 65, 0
16, 53092, Note_on_c, 5, 61, 0
16, 53100, Note_on_c, 5, 61, 72
16, 53100, Note_on_c, 5, 65, 72
16, 53100, Note_on_c, 5, 58, 72
16, 53152, Note_on_c, 5, 58, 0
16, 53152, Note_on_c, 5, 65, 0
16, 53152, Note_on_c, 5, 61, 0
16, 53160, Note_on_c, 5, 61, 63
16, 53160, Note_on_c, 5, 65, 63
16, 53160, Note_on_c, 5, 58, 63
16, 53212, Note_on_c, 5, 58, 0
16, 53212, Note_on_c, 5, 65, 0
16, 53212, Note_on_c, 5, 61, 0
16, 53220, Note_on_c, 5, 61, 72
16, 53220, Note_on_c, 5, 65, 72
16, 53220, Note_on_c, 5, 58, 72
16, 53272, Note_on_c, 5, 58, 0
16, 53272, Note_on_c, 5, 65, 0
16, 53272, Note_on_c, 5, 61, 0
16, 53280, Note_on_c, 5, 60, 72
16, 53280, Note_on_c, 5, 63, 72
16, 53280, Note_on_c, 5, 56, 72
16, 53572, Note_on_c, 5, 56, 0
16, 53572, Note_on_c, 5, 63, 0
16, 53572, Note_on_c, 5, 60, 0
16, 53580, Note_on_c, 5, 60, 72
16, 53580, Note_on_c, 5, 63, 72
16, 53580, Note_on_c, 5, 56, 72
16, 53812, Note_on_c, 5, 56, 0
16, 53812, Note_on_c, 5, 63, 0
16, 53812, Note_on_c, 5, 60, 0
16, 53820, Note_on_c, 5, 58, 72
16, 53820, Note_on_c, 5, 61, 72
16, 53820, Note_on_c, 5, 54, 72
16, 54112, Note_on_c, 5, 54, 0
16, 54112, Note_on_c, 5, 61, 0
16, 54112, Note_on_c, 5, 58, 0
16, 54120, Note_on_c, 5, 66, 72
16, 54120, Note_on_c, 5, 58, 72
16, 54120, Note_on_c, 5, 61, 72
16, 54172, Note_on_c, 5, 61, 0
16, 54172, Note_on_c, 5, 58, 0
16, 54172, Note_on_c, 5, 66, 0
16, 54240, Note_on_c, 5, 58, 72
16, 54240, Note_on_c, 5, 61, 72
16, 54240, Note_on_c, 5, 66, 72
16, 54292, Note_on_c, 5, 66, 0
16, 54292, Note_on_c, 5, 61, 0
16, 54292, Note_on_c, 5, 58, 0
16, 54360, Note_on_c, 5, 60, 72
16, 54360, Note_on_c, 5, 62, 72
16, 54360, Note_on_c, 5, 64, 72
16, 54412, Note_on_c, 5, 64, 0
16, 54412, Note_on_c, 5, 62, 0
16, 54412, Note_on_c, 5, 60, 0
16, 54480, Note_on_c, 5, 60, 72
16, 54480, Note_on_c, 5, 64, 72
16, 54480, Note_on_c, 5, 62, 72
16, 54532, Note_on_c, 5, 62, 0
16, 54532, Note_on_c, 5, 64, 0
16, 54532, Note_on_c, 5, 60, 0
16, 54600, Note_on_c, 5, 64, 72
16, 54600, Note_on_c, 5, 62, 72
16, 54600, Note_on_c, 5, 60, 72
16, 54652, Note_on_c, 5, 60, 0
16, 54652, Note_on_c, 5, 62, 0
16, 54652, Note_on_c, 5, 64, 0
16, 54720, Note_on_c, 5, 68, 82
16, 54720, Note_on_c, 5, 65, 82
16, 54720, Note_on_c, 5, 61, 82
16, 54900, Note_on_c, 5, 61, 0
16, 54900, Note_on_c, 5, 65, 0
16, 54900, Note_on_c, 5, 68, 0
16, 54900, Note_on_c, 5, 68, 82
16, 54900, Note_on_c, 5, 65, 82
16, 54900, Note_on_c, 5, 61, 82
16, 54960, Note_on_c, 5, 61, 0
16, 54960, Note_on_c, 5, 65, 0
16, 54960, Note_on_c, 5, 68, 0
16, 55020, Note_on_c, 5, 68, 82
16, 55020, Note_on_c, 5, 63, 82
16, 55020, Note_on_c, 5, 60, 82
16, 55260, Note_on_c, 5, 60, 0
16, 55260, Note_on_c, 5, 63, 0
16, 55260, Note_on_c, 5, 68, 0
16, 55260, Note_on_c, 5, 63, 82
16, 55260, Note_on_c, 5, 56, 82
16, 55260, Note_on_c, 5, 60, 82
16, 55320, Note_on_c, 5, 60, 0
16, 55320, Note_on_c, 5, 56, 0
16, 55320, Note_on_c, 5, 63, 0
16, 55380, Note_on_c, 5, 65, 82
16, 55380, Note_on_c, 5, 56, 82
16, 55380, Note_on_c, 5, 61, 82
16, 55500, Note_on_c, 5, 61, 0
16, 55500, Note_on_c, 5, 56, 0
16, 55500, Note_on_c, 5, 65, 0
16, 55500, Note_on_c, 5, 65, 82
16, 55500, Note_on_c, 5, 56, 82
16, 55500, Note_on_c, 5, 61, 82
16, 55560, Note_on_c, 5, 61, 0
16, 55560, Note_on_c, 5, 56, 0
16, 55560, Note_on_c, 5, 65, 0
16, 55620, Note_on_c, 5, 63, 82
16, 55620, Note_on_c, 5, 55, 82
16, 55620, Note_on_c, 5, 60, 82
16, 55800, Note_on_c, 5, 60, 0
16, 55800, Note_on_c, 5, 55, 0
16, 55800, Note_on_c, 5, 63, 0
16, 55800, Note_on_c, 5, 63, 82
16, 55800, Note_on_c, 5, 55, 82
16, 55800, Note_on_c, 5, 60, 82
16, 56160, Note_on_c, 5, 60, 0
16, 56160, Note_on_c, 5, 55, 0
16, 56160, Note_on_c, 5, 63, 0
16, 56160, Note_on_c, 5, 65, 82
16, 56160, Note_on_c, 5, 56, 82
16, 56160, Note_on_c, 5, 61, 82
16, 56340, Note_on_c, 5, 61, 0
16, 56340, Note_on_c, 5, 56, 0
16, 56340, Note_on_c, 5, 65, 0
16, 56340, Note_on_c, 5, 65, 82
16, 56340, Note_on_c, 5, 56, 82
16, 56340, Note_on_c, 5, 61, 82
16, 56400, Note_on_c, 5, 61, 0
16, 56400, Note_on_c, 5, 56, 0
16, 56400, Note_on_c, 5, 65, 0
16, 56460, Note_on_c, 5, 65, 78
16, 56460, Note_on_c, 5, 56, 78
16, 56460, Note_on_c, 5, 61, 78
16, 56580, Note_on_c, 5, 61, 0
16, 56580, Note_on_c, 5, 56, 0
16, 56580, Note_on_c, 5, 65, 0
16, 56580, Note_on_c, 5, 65, 82
16, 56580, Note_on_c, 5, 56, 82
16, 56580, Note_on_c, 5, 61, 82
16, 56640, Note_on_c, 5, 61, 0
16, 56640, Note_on_c, 5, 56, 0
16, 56640, Note_on_c, 5, 65, 0
16, 56640, Note_on_c, 5, 65, 74
16, 56640, Note_on_c, 5, 56, 74
16, 56640, Note_on_c, 5, 61, 74
16, 56700, Note_on_c, 5, 61, 0
16, 56700, Note_on_c, 5, 56, 0
16, 56700, Note_on_c, 5, 65, 0
16, 56760, Note_on_c, 5, 67, 78
16, 56760, Note_on_c, 5, 60, 78
16, 56760, Note_on_c, 5, 63, 78
16, 57240, Note_on_c, 5, 63, 0
16, 57240, Note_on_c, 5, 60, 0
16, 57240, Note_on_c, 5, 67, 0
16, 57240, Note_on_c, 5, 70, 82
16, 57240, Note_on_c, 5, 67, 82
16, 57240, Note_on_c, 5, 63, 82
16, 57300, Note_on_c, 5, 63, 0
16, 57300, Note_on_c, 5, 67, 0
16, 57300, Note_on_c, 5, 70, 0
16, 57300, Note_on_c, 5, 70, 82
16, 57300, Note_on_c, 5, 67, 82
16, 57300, Note_on_c, 5, 63, 82
16, 57360, Note_on_c, 5, 63, 0
16, 57360, Note_on_c, 5, 67, 0
16, 57360, Note_on_c, 5, 70, 0
16, 57360, Note_on_c, 5, 70, 82
16, 57360, Note_on_c, 5, 67, 82
16, 57360, Note_on_c, 5, 63, 82
16, 57420, Note_on_c, 5, 63, 0
16, 57420, Note_on_c, 5, 67, 0
16, 57420, Note_on_c, 5, 70, 0
16, 57420, Note_on_c, 5, 67, 82
16, 57420, Note_on_c, 5, 60, 82
16, 57420, Note_on_c, 5, 63, 82
16, 57540, Note_on_c, 5, 63, 0
16, 57540, Note_on_c, 5, 60, 0
16, 57540, Note_on_c, 5, 67, 0
16, 57540, Note_on_c, 5, 67, 82
16, 57540, Note_on_c, 5, 60, 82
16, 57540, Note_on_c, 5, 63, 82
16, 57600, Note_on_c, 5, 63, 0
16, 57600, Note_on_c, 5, 60, 0
16, 57600, Note_on_c, 5, 67, 0
16, 57600, Note_on_c, 5, 68, 82
16, 57600, Note_on_c, 5, 65, 82
16, 57600, Note_on_c, 5, 61, 82
16, 57720, Note_on_c, 5, 61, 0
16, 57720, Note_on_c, 5, 65, 0
16, 57720, Note_on_c, 5, 68, 0
16, 57720, Note_on_c, 5, 68, 82
16, 57720, Note_on_c, 5, 61, 82
16, 57720, Note_on_c, 5, 65, 82
16, 57780, Note_on_c, 5, 65, 0
16, 57780, Note_on_c, 5, 61, 0
16, 57780, Note_on_c, 5, 68, 0
16, 57840, Note_on_c, 5, 68, 82
16, 57840, Note_on_c, 5, 61, 82
16, 57840, Note_on_c, 5, 65, 82
16, 57900, Note_on_c, 5, 65, 0
16, 57900, Note_on_c, 5, 61, 0
16, 57900, Note_on_c, 5, 68, 0
16, 57960, Note_on_c, 5, 68, 82
16, 57960, Note_on_c, 5, 61, 82
16, 57960, Note_on_c, 5, 65, 82
16, 58140, Note_on_c, 5, 65, 0
16, 58140, Note_on_c, 5, 61, 0
16, 58140, Note_on_c, 5, 68, 0
16, 58140, Note_on_c, 5, 68, 82
16, 58140, Note_on_c, 5, 65, 82
16, 58140, Note_on_c, 5, 61, 82
16, 58260, Note_on_c, 5, 61, 0
16, 58260, Note_on_c, 5, 65, 0
16, 58260, Note_on_c, 5, 68, 0
16, 58260, Note_on_c, 5, 67, 82
16, 58260, Note_on_c, 5, 58, 82
16, 58260, Note_on_c, 5, 63, 82
16, 58380, Note_on_c, 5, 63, 0
16, 58380, Note_on_c, 5, 58, 0
16, 58380, Note_on_c, 5, 67, 0
16, 58380, Note_on_c, 5, 60, 82
16, 58380, Note_on_c, 5, 63, 82
16, 58380, Note_on_c, 5, 67, 82
16, 58440, Note_on_c, 5, 67, 0
16, 58440, Note_on_c, 5, 63, 0
16, 58440, Note_on_c, 5, 60, 0
16, 58500, Note_on_c, 5, 68, 82
16, 58500, Note_on_c, 5, 60, 82
16, 58500, Note_on_c, 5, 65, 82
16, 59040, Note_on_c, 5, 65, 0
16, 59040, Note_on_c, 5, 60, 0
16, 59040, Note_on_c, 5, 68, 0
16, 59040, Note_on_c, 5, 68, 82
16, 59040, Note_on_c, 5, 61, 82
16, 59040, Note_on_c, 5, 65, 82
16, 59160, Note_on_c, 5, 65, 0
16, 59160, Note_on_c, 5, 61, 0
16, 59160, Note_on_c, 5, 68, 0
16, 59160, Note_on_c, 5, 68, 82
16, 59160, Note_on_c, 5, 61, 82
16, 59160, Note_on_c, 5, 65, 82
16, 59220, Note_on_c, 5, 65, 0
16, 59220, Note_on_c, 5, 61, 0
16, 59220, Note_on_c, 5, 68, 0
16, 59280, Note_on_c, 5, 68, 82
16, 59280, Note_on_c, 5, 61, 82
16, 59280, Note_on_c, 5, 65, 82
16, 59340, Note_on_c, 5, 65, 0
16, 59340, Note_on_c, 5, 61, 0
16, 59340, Note_on_c, 5, 68, 0
16, 59400, Note_on_c, 5, 70, 82
16, 59400, Note_on_c, 5, 67, 82
16, 59400, Note_on_c, 5, 63, 82
16, 59760, Note_on_c, 5, 63, 0
16, 59760, Note_on_c, 5, 67, 0
16, 59760, Note_on_c, 5, 70, 0
16, 59760, Note_on_c, 5, 68, 77
16, 59760, Note_on_c, 5, 65, 77
16, 59760, Note_on_c, 5, 60, 77
16, 59880, Note_on_c, 5, 60, 0
16, 59880, Note_on_c, 5, 65, 0
16, 59880, Note_on_c, 5, 68, 0
16, 59880, Note_on_c, 5, 68, 77
16, 59880, Note_on_c, 5, 60, 77
16, 59880, Note_on_c, 5, 65, 77
16, 59940, Note_on_c, 5, 65, 0
16, 59940, Note_on_c, 5, 60, 0
16, 59940, Note_on_c, 5, 68, 0
16, 60000, Note_on_c, 5, 68, 77
16, 60000, Note_on_c, 5, 60, 77
16, 60000, Note_on_c, 5, 65, 77
16, 60060, Note_on_c, 5, 65, 0
16, 60060, Note_on_c, 5, 60, 0
16, 60060, Note_on_c, 5, 68, 0
16, 60120, Note_on_c, 5, 70, 77
16, 60120, Note_on_c, 5, 62, 77
16, 60120, Note_on_c, 5, 65, 77
16, 60300, Note_on_c, 5, 65, 0
16, 60300, Note_on_c, 5, 62, 0
16, 60300, Note_on_c, 5, 70, 0
16, 60300, Note_on_c, 5, 70, 77
16, 60300, Note_on_c, 5, 62, 77
16, 60300, Note_on_c, 5, 65, 77
16, 60420, Note_on_c, 5, 65, 0
16, 60420, Note_on_c, 5, 62, 0
16, 60420, Note_on_c, 5, 70, 0
16, 60420, Note_on_c, 5, 62, 72
16, 60420, Note_on_c, 5, 65, 72
16, 60420, Note_on_c, 5, 70, 72
16, 60480, Note_on_c, 5, 70, 0
16, 60480, Note_on_c, 5, 65, 0
16, 60480, Note_on_c, 5, 62, 0
16, 60480, Note_on_c, 5, 57, 72
16, 60480, Note_on_c, 5, 60, 72
16, 60480, Note_on_c, 5, 64, 72
16, 60772, Note_on_c, 5, 64, 0
16, 60772, Note_on_c, 5, 60, 0
16, 60772, Note_on_c, 5, 57, 0
16, 60780, Note_on_c, 5, 58, 72
16, 60780, Note_on_c, 5, 62, 72
16, 60780, Note_on_c, 5, 65, 72
16, 61912, Note_on_c, 5, 65, 0
16, 61912, Note_on_c, 5, 62, 0
16, 61912, Note_on_c, 5, 58, 0
16, 61920, Note_on_c, 5, 57, 72
16, 61920, Note_on_c, 5, 60, 72
16, 61920, Note_on_c, 5, 64, 72
16, 62212, Note_on_c, 5, 64, 0
16, 62212, Note_on_c, 5, 60, 0
16, 62212, Note_on_c, 5, 57, 0
16, 62220, Note_on_c, 5, 67, 72
16, 62220, Note_on_c, 5, 60, 72
16, 62220, Note_on_c, 5, 64, 72
16, 62452, Note_on_c, 5, 64, 0
16, 62452, Note_on_c, 5, 60, 0
16, 62452, Note_on_c, 5, 67, 0
16, 62460, Note_on_c, 5, 58, 72
16, 62460, Note_on_c, 5, 62, 72
16, 62460, Note_on_c, 5, 65, 72
16, 63352, Note_on_c, 5, 65, 0
16, 63352, Note_on_c, 5, 62, 0
16, 63352, Note_on_c, 5, 58, 0
16, 63360, Note_on_c, 5, 57, 72
16, 63360, Note_on_c, 5, 60, 72
16, 63360, Note_on_c, 5, 64, 72
16, 63652, Note_on_c, 5, 64, 0
16, 63652, Note_on_c, 5, 60, 0
16, 63652, Note_on_c, 5, 57, 0
16, 63660, Note_on_c, 5, 58, 72
16, 63660, Note_on_c, 5, 62, 72
16, 63660, Note_on_c, 5, 65, 72
16, 64792, Note_on_c, 5, 65, 0
16, 64792, Note_on_c, 5, 62, 0
16, 64792, Note_on_c, 5, 58, 0
16, 64800, Note_on_c, 5, 57, 72
16, 64800, Note_on_c, 5, 60, 72
16, 64800, Note_on_c, 5, 64, 72
16, 65092, Note_on_c, 5, 64, 0
16, 65092, Note_on_c, 5, 60, 0
16, 65092, Note_on_c, 5, 57, 0
16, 65100, Note_on_c, 5, 67, 72
16, 65100, Note_on_c, 5, 64, 54
16, 65100, Note_on_c, 5, 60, 72
16, 65332, Note_on_c, 5, 60, 0
16, 65332, Note_on_c, 5, 64, 0
16, 65332, Note_on_c, 5, 67, 0
16, 65340, Note_on_c, 5, 58, 72
16, 65340, Note_on_c, 5, 62, 72
16, 65340, Note_on_c, 5, 65, 72
16, 66232, Note_on_c, 5, 65, 0
16, 66232, Note_on_c, 5, 62, 0
16, 66232, Note_on_c, 5, 58, 0
16, 66240, Note_on_c, 5, 57, 82
16, 66240, Note_on_c, 5, 64, 82
16, 66240, Note_on_c, 5, 60, 82
16, 66892, Note_on_c, 5, 60, 0
16, 66892, Note_on_c, 5, 64, 0
16, 66892, Note_on_c, 5, 57, 0
16, 66900, Note_on_c, 5, 57, 82
16, 66900, Note_on_c, 5, 62, 82
16, 66900, Note_on_c, 5, 65, 82
16, 67672, Note_on_c, 5, 65, 0
16, 67672, Note_on_c, 5, 62, 0
16, 67672, Note_on_c, 5, 57, 0
16, 67680, Note_on_c, 5, 58, 82
16, 67680, Note_on_c, 5, 65, 82
16, 67680, Note_on_c, 5, 62, 82
16, 68032, Note_on_c, 5, 62, 0
16, 68032, Note_on_c, 5, 65, 0
16, 68032, Note_on_c, 5, 58, 0
16, 68040, Note_on_c, 5, 64, 82
16, 68040, Note_on_c, 5, 60, 82
16, 68040, Note_on_c, 5, 67, 82
16, 68392, Note_on_c, 5, 67, 0
16, 68392, Note_on_c, 5, 60, 0
16, 68392, Note_on_c, 5, 64, 0
16, 68400, Note_on_c, 5, 68, 82
16, 68400, Note_on_c, 5, 61, 82
16, 68400, Note_on_c, 5, 65, 82
16, 68752, Note_on_c, 5, 65, 0
16, 68752, Note_on_c, 5, 61, 0
16, 68752, Note_on_c, 5, 68, 0
16, 68760, Note_on_c, 5, 70, 82
16, 68760, Note_on_c, 5, 63, 82
16, 68760, Note_on_c, 5, 67, 82
16, 68932, Note_on_c, 5, 67, 0
16, 68932, Note_on_c, 5, 63, 0
16, 68932, Note_on_c, 5, 70, 0
16, 69000, Note_on_c, 5, 70, 82
16, 69000, Note_on_c, 5, 63, 82
16, 69000, Note_on_c, 5, 67, 82
16, 69052, Note_on_c, 5, 67, 0
16, 69052, Note_on_c, 5, 63, 0
16, 69052, Note_on_c, 5, 70, 0
16, 69120, Note_on_c, 5, 60, 82
16, 69120, Note_on_c, 5, 63, 82
16, 69120, Note_on_c, 5, 65, 82
16, 69412, Note_on_c, 5, 65, 0
16, 69412, Note_on_c, 5, 63, 0
16, 69412, Note_on_c, 5, 60, 0
16, 69420, Note_on_c, 5, 60, 82
16, 69420, Note_on_c, 5, 63, 82
16, 69420, Note_on_c, 5, 67, 82
16, 69772, Note_on_c, 5, 67, 0
16, 69772, Note_on_c, 5, 63, 0
16, 69772, Note_on_c, 5, 60, 0
16, 69780, Note_on_c, 5, 61, 82
16, 69780, Note_on_c, 5, 65, 82
16, 69780, Note_on_c, 5, 68, 82
16, 69892, Note_on_c, 5, 68, 0
16, 69892, Note_on_c, 5, 65, 0
16, 69892, Note_on_c, 5, 61, 0
16, 69900, Note_on_c, 5, 61, 82
16, 69900, Note_on_c, 5, 65, 82
16, 69900, Note_on_c, 5, 68, 82
16, 70012, Note_on_c, 5, 68, 0
16, 70012, Note_on_c, 5, 65, 0
16, 70012, Note_on_c, 5, 61, 0
16, 70020, Note_on_c, 5, 72, 82
16, 70020, Note_on_c, 5, 63, 82
16, 70020, Note_on_c, 5, 67, 82
16, 70552, Note_on_c, 5, 67, 0
16, 70552, Note_on_c, 5, 63, 0
16, 70552, Note_on_c, 5, 72, 0
16, 70560, Note_on_c, 5, 60, 82
16, 70560, Note_on_c, 5, 65, 82
16, 70560, Note_on_c, 5, 68, 82
16, 70852, Note_on_c, 5, 68, 0
16, 70852, Note_on_c, 5, 65, 0
16, 70852, Note_on_c, 5, 60, 0
16, 70860, Note_on_c, 5, 60, 82
16, 70860, Note_on_c, 5, 65, 82
16, 70860, Note_on_c, 5, 68, 82
16, 71212, Note_on_c, 5, 68, 0
16, 71212, Note_on_c, 5, 65, 0
16, 71212, Note_on_c, 5, 60, 0
16, 71220, Note_on_c, 5, 58, 82
16, 71220, Note_on_c, 5, 63, 82
16, 71220, Note_on_c, 5, 67, 82
16, 71632, Note_on_c, 5, 67, 0
16, 71632, Note_on_c, 5, 63, 0
16, 71632, Note_on_c, 5, 58, 0
16, 71640, Note_on_c, 5, 58, 82
16, 71640, Note_on_c, 5, 63, 82
16, 71640, Note_on_c, 5, 67, 82
16, 71812, Note_on_c, 5, 67, 0
16, 71812, Note_on_c, 5, 63, 0
16, 71812, Note_on_c, 5, 58, 0
16, 71820, Note_on_c, 5, 58, 82
16, 71820, Note_on_c, 5, 63, 82
16, 71820, Note_on_c, 5, 67, 82
16, 71992, Note_on_c, 5, 67, 0
16, 71992, Note_on_c, 5, 63, 0
16, 71992, Note_on_c, 5, 58, 0
16, 72000, Note_on_c, 5, 68, 82
16, 72000, Note_on_c, 5, 65, 82
16, 72000, Note_on_c, 5, 61, 82
16, 72112, Note_on_c, 5, 61, 0
16, 72112, Note_on_c, 5, 65, 0
16, 72112, Note_on_c, 5, 68, 0
16, 72120, Note_on_c, 5, 61, 82
16, 72120, Note_on_c, 5, 65, 82
16, 72120, Note_on_c, 5, 68, 82
16, 72172, Note_on_c, 5, 68, 0
16, 72172, Note_on_c, 5, 65, 0
16, 72172, Note_on_c, 5, 61, 0
16, 72240, Note_on_c, 5, 61, 82
16, 72240, Note_on_c, 5, 65, 82
16, 72240, Note_on_c, 5, 68, 82
16, 72292, Note_on_c, 5, 68, 0
16, 72292, Note_on_c, 5, 65, 0
16, 72292, Note_on_c, 5, 61, 0
16, 72360, Note_on_c, 5, 58, 82
16, 72360, Note_on_c, 5, 63, 82
16, 72360, Note_on_c, 5, 67, 82
16, 72532, Note_on_c, 5, 67, 0
16, 72532, Note_on_c, 5, 63, 0
16, 72532, Note_on_c, 5, 58, 0
16, 72540, Note_on_c, 5, 58, 82
16, 72540, Note_on_c, 5, 63, 82
16, 72540, Note_on_c, 5, 67, 82
16, 72652, Note_on_c, 5, 67, 0
16, 72652, Note_on_c, 5, 63, 0
16, 72652, Note_on_c, 5, 58, 0
16, 72660, Note_on_c, 5, 60, 82
16, 72660, Note_on_c, 5, 63, 82
16, 72660, Note_on_c, 5, 67, 82
16, 72772, Note_on_c, 5, 67, 0
16, 72772, Note_on_c, 5, 63, 0
16, 72772, Note_on_c, 5, 60, 0
16, 72780, Note_on_c, 5, 60, 82
16, 72780, Note_on_c, 5, 63, 82
16, 72780, Note_on_c, 5, 67, 82
16, 72832, Note_on_c, 5, 67, 0
16, 72832, Note_on_c, 5, 63, 0
16, 72832, Note_on_c, 5, 60, 0
16, 72900, Note_on_c, 5, 60, 82
16, 72900, Note_on_c, 5, 65, 82
16, 72900, Note_on_c, 5, 68, 82
16, 73432, Note_on_c, 5, 68, 0
16, 73432, Note_on_c, 5, 65, 0
16, 73432, Note_on_c, 5, 60, 0
16, 73440, Note_on_c, 5, 61, 82
16, 73440, Note_on_c, 5, 65, 82
16, 73440, Note_on_c, 5, 68, 82
16, 73552, Note_on_c, 5, 68, 0
16, 73552, Note_on_c, 5, 65, 0
16, 73552, Note_on_c, 5, 61, 0
16, 73560, Note_on_c, 5, 61, 82
16, 73560, Note_on_c, 5, 65, 82
16, 73560, Note_on_c, 5, 68, 82
16, 73612, Note_on_c, 5, 68, 0
16, 73612, Note_on_c, 5, 65, 0
16, 73612, Note_on_c, 5, 61, 0
16, 73680, Note_on_c, 5, 61, 82
16, 73680, Note_on_c, 5, 65, 82
16, 73680, Note_on_c, 5, 68, 82
16, 73732, Note_on_c, 5, 68, 0
16, 73732, Note_on_c, 5, 65, 0
16, 73732, Note_on_c, 5, 61, 0
16, 73800, Note_on_c, 5, 58, 82
16, 73800, Note_on_c, 5, 63, 82
16, 73800, Note_on_c, 5, 67, 82
16, 74092, Note_on_c, 5, 67, 0
16, 74092, Note_on_c, 5, 63, 0
16, 74092, Note_on_c, 5, 58, 0
16, 74100, Note_on_c, 5, 58, 82
16, 74100, Note_on_c, 5, 63, 82
16, 74100, Note_on_c, 5, 67, 82
16, 74152, Note_on_c, 5, 67, 0
16, 74152, Note_on_c, 5, 63, 0
16, 74152, Note_on_c, 5, 58, 0
16, 74160, Note_on_c, 5, 60, 82
16, 74160, Note_on_c, 5, 65, 82
16, 74160, Note_on_c, 5, 68, 82
16, 74272, Note_on_c, 5, 68, 0
16, 74272, Note_on_c, 5, 65, 0
16, 74272, Note_on_c, 5, 60, 0
16, 74280, Note_on_c, 5, 70, 82
16, 74280, Note_on_c, 5, 65, 82
16, 74280, Note_on_c, 5, 68, 82
16, 74332, Note_on_c, 5, 68, 0
16, 74332, Note_on_c, 5, 65, 0
16, 74332, Note_on_c, 5, 70, 0
16, 74400, Note_on_c, 5, 72, 82
16, 74400, Note_on_c, 5, 65, 82
16, 74400, Note_on_c, 5, 68, 82
16, 74452, Note_on_c, 5, 68, 0
16, 74452, Note_on_c, 5, 65, 0
16, 74452, Note_on_c, 5, 72, 0
16, 74520, Note_on_c, 5, 72, 82
16, 74520, Note_on_c, 5, 70, 82
16, 74520, Note_on_c, 5, 65, 82
16, 74692, Note_on_c, 5, 65, 0
16, 74692, Note_on_c, 5, 70, 0
16, 74692, Note_on_c, 5, 72, 0
16, 74700, Note_on_c, 5, 67, 82
16, 74700, Note_on_c, 5, 65, 82
16, 74700, Note_on_c, 5, 70, 82
16, 74752, Note_on_c, 5, 70, 0
16, 74752, Note_on_c, 5, 65, 0
16, 74752, Note_on_c, 5, 67, 0
16, 74760, Note_on_c, 5, 67, 82
16, 74760, Note_on_c, 5, 70, 82
16, 74760, Note_on_c, 5, 65, 82
16, 74812, Note_on_c, 5, 65, 0
16, 74812, Note_on_c, 5, 70, 0
16, 74812, Note_on_c, 5, 67, 0
16, 74820, Note_on_c, 5, 67, 82
16, 74820, Note_on_c, 5, 65, 82
16, 74820, Note_on_c, 5, 70, 82
16, 74872, Note_on_c, 5, 70, 0
16, 74872, Note_on_c, 5, 65, 0
16, 74872, Note_on_c, 5, 67, 0
16, 79200, Note_on_c, 5, 56, 82
16, 79200, Note_on_c, 5, 60, 82
16, 79200, Note_on_c, 5, 63, 82
16, 79312, Note_on_c, 5, 63, 0
16, 79312, Note_on_c, 5, 60, 0
16, 79312, Note_on_c, 5, 56, 0
16, 79320, Note_on_c, 5, 56, 82
16, 79320, Note_on_c, 5, 60, 82
16, 79320, Note_on_c, 5, 63, 82
16, 79387, Note_on_c, 5, 63, 0
16, 79387, Note_on_c, 5, 60, 0
16, 79387, Note_on_c, 5, 56, 0
16, 79440, Note_on_c, 5, 56, 82
16, 79440, Note_on_c, 5, 60, 82
16, 79440, Note_on_c, 5, 63, 82
16, 79522, Note_on_c, 5, 63, 0
16, 79522, Note_on_c, 5, 60, 0
16, 79522, Note_on_c, 5, 56, 0
16, 79560, Note_on_c, 5, 56, 82
16, 79560, Note_on_c, 5, 60, 82
16, 79560, Note_on_c, 5, 63, 82
16, 79680, Note_on_c, 5, 63, 0
16, 79680, Note_on_c, 5, 60, 0
16, 79680, Note_on_c, 5, 56, 0
16, 79680, Note_on_c, 5, 56, 82
16, 79680, Note_on_c, 5, 60, 82
16, 79680, Note_on_c, 5, 63, 82
16, 79740, Note_on_c, 5, 63, 0
16, 79740, Note_on_c, 5, 60, 0
16, 79740, Note_on_c, 5, 56, 0
16, 79920, Note_on_c, 5, 56, 82
16, 79920, Note_on_c, 5, 60, 82
16, 79920, Note_on_c, 5, 63, 82
16, 80032, Note_on_c, 5, 63, 0
16, 80032, Note_on_c, 5, 60, 0
16, 80032, Note_on_c, 5, 56, 0
16, 80040, Note_on_c, 5, 56, 82
16, 80040, Note_on_c, 5, 60, 82
16, 80040, Note_on_c, 5, 63, 82
16, 80107, Note_on_c, 5, 63, 0
16, 80107, Note_on_c, 5, 60, 0
16, 80107, Note_on_c, 5, 56, 0
16, 80160, Note_on_c, 5, 56, 82
16, 80160, Note_on_c, 5, 60, 82
16, 80160, Note_on_c, 5, 63, 82
16, 80242, Note_on_c, 5, 63, 0
16, 80242, Note_on_c, 5, 60, 0
16, 80242, Note_on_c, 5, 56, 0
16, 80280, Note_on_c, 5, 56, 82
16, 80280, Note_on_c, 5, 60, 82
16, 80280, Note_on_c, 5, 63, 82
16, 80400, Note_on_c, 5, 63, 0
16, 80400, Note_on_c, 5, 60, 0
16, 80400, Note_on_c, 5, 56, 0
16, 80400, Note_on_c, 5, 56, 82
16, 80400, Note_on_c, 5, 60, 82
16, 80400, Note_on_c, 5, 63, 82
16, 80460, Note_on_c, 5, 63, 0
16, 80460, Note_on_c, 5, 60, 0
16, 80460, Note_on_c, 5, 56, 0
16, 80760, Note_on_c, 5, 61, 82
16, 80760, Note_on_c, 5, 60, 82
16, 80760, Note_on_c, 5, 65, 82
16, 80872, Note_on_c, 5, 65, 0
16, 80872, Note_on_c, 5, 60, 0
16, 80872, Note_on_c, 5, 61, 0
16, 80880, Note_on_c, 5, 60, 82
16, 80880, Note_on_c, 5, 61, 82
16, 80880, Note_on_c, 5, 65, 82
16, 80962, Note_on_c, 5, 65, 0
16, 80962, Note_on_c, 5, 61, 0
16, 80962, Note_on_c, 5, 60, 0
16, 81000, Note_on_c, 5, 61, 82
16, 81000, Note_on_c, 5, 60, 82
16, 81000, Note_on_c, 5, 65, 82
16, 81172, Note_on_c, 5, 65, 0
16, 81172, Note_on_c, 5, 60, 0
16, 81172, Note_on_c, 5, 61, 0
16, 81180, Note_on_c, 5, 61, 82
16, 81180, Note_on_c, 5, 60, 82
16, 81180, Note_on_c, 5, 65, 82
16, 81292, Note_on_c, 5, 65, 0
16, 81292, Note_on_c, 5, 60, 0
16, 81292, Note_on_c, 5, 61, 0
16, 81300, Note_on_c, 5, 58, 82
16, 81300, Note_on_c, 5, 61, 82
16, 81300, Note_on_c, 5, 65, 82
16, 81420, Note_on_c, 5, 58, 82
16, 81420, Note_on_c, 5, 61, 82
16, 81420, Note_on_c, 5, 65, 82
16, 81472, Note_on_c, 5, 65, 0
16, 81472, Note_on_c, 5, 58, 0
16, 81472, Note_on_c, 5, 61, 0
16, 81532, Note_on_c, 5, 58, 0
16, 81532, Note_on_c, 5, 61, 0
16, 81532, Note_on_c, 5, 65, 0
16, 81540, Note_on_c, 5, 58, 82
16, 81540, Note_on_c, 5, 61, 82
16, 81540, Note_on_c, 5, 65, 82
16, 81772, Note_on_c, 5, 65, 0
16, 81772, Note_on_c, 5, 61, 0
16, 81772, Note_on_c, 5, 58, 0
16, 81900, Note_on_c, 5, 56, 82
16, 81900, Note_on_c, 5, 60, 82
16, 81900, Note_on_c, 5, 63, 82
16, 82012, Note_on_c, 5, 63, 0
16, 82012, Note_on_c, 5, 60, 0
16, 82012, Note_on_c, 5, 56, 0
16, 82020, Note_on_c, 5, 56, 82
16, 82020, Note_on_c, 5, 60, 82
16, 82020, Note_on_c, 5, 63, 82
16, 82132, Note_on_c, 5, 63, 0
16, 82132, Note_on_c, 5, 60, 0
16, 82132, Note_on_c, 5, 56, 0
16, 82140, Note_on_c, 5, 60, 82
16, 82140, Note_on_c, 5, 61, 82
16, 82140, Note_on_c, 5, 65, 82
16, 82192, Note_on_c, 5, 65, 0
16, 82192, Note_on_c, 5, 61, 0
16, 82192, Note_on_c, 5, 60, 0
16, 82260, Note_on_c, 5, 60, 82
16, 82260, Note_on_c, 5, 61, 82
16, 82260, Note_on_c, 5, 65, 82
16, 82432, Note_on_c, 5, 65, 0
16, 82432, Note_on_c, 5, 61, 0
16, 82432, Note_on_c, 5, 60, 0
16, 82440, Note_on_c, 5, 60, 82
16, 82440, Note_on_c, 5, 61, 82
16, 82440, Note_on_c, 5, 65, 82
16, 82552, Note_on_c, 5, 65, 0
16, 82552, Note_on_c, 5, 61, 0
16, 82552, Note_on_c, 5, 60, 0
16, 82560, Note_on_c, 5, 61, 82
16, 82560, Note_on_c, 5, 60, 82
16, 82560, Note_on_c, 5, 65, 82
16, 82642, Note_on_c, 5, 65, 0
16, 82642, Note_on_c, 5, 60, 0
16, 82642, Note_on_c, 5, 61, 0
16, 82800, Note_on_c, 5, 60, 82
16, 82800, Note_on_c, 5, 61, 82
16, 82800, Note_on_c, 5, 65, 82
16, 82912, Note_on_c, 5, 65, 0
16, 82912, Note_on_c, 5, 61, 0
16, 82912, Note_on_c, 5, 60, 0
16, 82920, Note_on_c, 5, 60, 82
16, 82920, Note_on_c, 5, 61, 82
16, 82920, Note_on_c, 5, 65, 82
16, 82972, Note_on_c, 5, 65, 0
16, 82972, Note_on_c, 5, 61, 0
16, 82972, Note_on_c, 5, 60, 0
16, 83040, Note_on_c, 5, 60, 82
16, 83040, Note_on_c, 5, 61, 82
16, 83040, Note_on_c, 5, 65, 82
16, 83092, Note_on_c, 5, 65, 0
16, 83092, Note_on_c, 5, 61, 0
16, 83092, Note_on_c, 5, 60, 0
16, 83160, Note_on_c, 5, 60, 82
16, 83160, Note_on_c, 5, 63, 82
16, 83160, Note_on_c, 5, 67, 82
16, 83272, Note_on_c, 5, 67, 0
16, 83272, Note_on_c, 5, 63, 0
16, 83272, Note_on_c, 5, 60, 0
16, 83280, Note_on_c, 5, 60, 82
16, 83280, Note_on_c, 5, 63, 82
16, 83280, Note_on_c, 5, 67, 82
16, 83392, Note_on_c, 5, 67, 0
16, 83392, Note_on_c, 5, 63, 0
16, 83392, Note_on_c, 5, 60, 0
16, 83400, Note_on_c, 5, 60, 82
16, 83400, Note_on_c, 5, 63, 82
16, 83400, Note_on_c, 5, 67, 82
16, 83512, Note_on_c, 5, 67, 0
16, 83512, Note_on_c, 5, 63, 0
16, 83512, Note_on_c, 5, 60, 0
16, 83640, Note_on_c, 5, 56, 82
16, 83640, Note_on_c, 5, 60, 82
16, 83640, Note_on_c, 5, 65, 82
16, 83722, Note_on_c, 5, 65, 0
16, 83722, Note_on_c, 5, 60, 0
16, 83722, Note_on_c, 5, 56, 0
16, 83760, Note_on_c, 5, 60, 82
16, 83760, Note_on_c, 5, 56, 82
16, 83760, Note_on_c, 5, 65, 82
16, 83812, Note_on_c, 5, 65, 0
16, 83812, Note_on_c, 5, 56, 0
16, 83812, Note_on_c, 5, 60, 0
16, 83880, Note_on_c, 5, 60, 82
16, 83880, Note_on_c, 5, 56, 82
16, 83880, Note_on_c, 5, 65, 82
16, 83992, Note_on_c, 5, 65, 0
16, 83992, Note_on_c, 5, 56, 0
16, 83992, Note_on_c, 5, 60, 0
16, 84000, Note_on_c, 5, 60, 82
16, 84000, Note_on_c, 5, 56, 82
16, 84000, Note_on_c, 5, 65, 82
16, 84052, Note_on_c, 5, 65, 0
16, 84052, Note_on_c, 5, 56, 0
16, 84052, Note_on_c, 5, 60, 0
16, 84240, Note_on_c, 5, 60, 82
16, 84240, Note_on_c, 5, 56, 82
16, 84240, Note_on_c, 5, 65, 82
16, 84352, Note_on_c, 5, 65, 0
16, 84352, Note_on_c, 5, 56, 0
16, 84352, Note_on_c, 5, 60, 0
16, 84360, Note_on_c, 5, 60, 82
16, 84360, Note_on_c, 5, 56, 82
16, 84360, Note_on_c, 5, 65, 82
16, 84412, Note_on_c, 5, 65, 0
16, 84412, Note_on_c, 5, 56, 0
16, 84412, Note_on_c, 5, 60, 0
16, 84480, Note_on_c, 5, 60, 82
16, 84480, Note_on_c, 5, 56, 82
16, 84480, Note_on_c, 5, 65, 82
16, 84532, Note_on_c, 5, 65, 0
16, 84532, Note_on_c, 5, 56, 0
16, 84532, Note_on_c, 5, 60, 0
16, 84600, Note_on_c, 5, 60, 82
16, 84600, Note_on_c, 5, 63, 82
16, 84600, Note_on_c, 5, 67, 82
16, 84952, Note_on_c, 5, 67, 0
16, 84952, Note_on_c, 5, 63, 0
16, 84952, Note_on_c, 5, 60, 0
16, 85020, Note_on_c, 5, 57, 82
16, 85080, Note_on_c, 5, 57, 0
16, 85080, Note_on_c, 5, 58, 82
16, 85140, Note_on_c, 5, 58, 0
16, 85140, Note_on_c, 5, 62, 82
16, 85200, Note_on_c, 5, 62, 0
16, 85200, Note_on_c, 5, 58, 82
16, 85260, Note_on_c, 5, 58, 0
16, 85260, Note_on_c, 5, 60, 82
16, 85320, Note_on_c, 5, 60, 0
16, 85380, Note_on_c, 5, 60, 82
16, 85440, Note_on_c, 5, 60, 0
16, 85440, Note_on_c, 5, 62, 82
16, 85500, Note_on_c, 5, 62, 0
16, 85500, Note_on_c, 5, 67, 82
16, 85560, Note_on_c, 5, 67, 0
16, 85560, Note_on_c, 5, 62, 82
16, 85620, Note_on_c, 5, 62, 0
16, 85620, Note_on_c, 5, 65, 82
16, 85680, Note_on_c, 5, 65, 0
16, 85740, Note_on_c, 5, 65, 82
16, 85800, Note_on_c, 5, 65, 0
16, 85800, Note_on_c, 5, 67, 82
16, 85860, Note_on_c, 5, 67, 0
16, 85860, Note_on_c, 5, 70, 82
16, 85920, Note_on_c, 5, 70, 0
16, 85920, Note_on_c, 5, 65, 82
16, 85980, Note_on_c, 5, 65, 0
16, 85980, Note_on_c, 5, 68, 82
16, 86040, Note_on_c, 5, 68, 0
16, 86100, Note_on_c, 5, 51, 82
16, 86100, Note_on_c, 5, 63, 82
16, 86100, Note_on_c, 5, 75, 82
16, 86160, Note_on_c, 5, 75, 0
16, 86160, Note_on_c, 5, 63, 0
16, 86160, Note_on_c, 5, 51, 0
16, 86160, Note_on_c, 5, 53, 82
16, 86160, Note_on_c, 5, 65, 82
16, 86160, Note_on_c, 5, 77, 82
16, 86220, Note_on_c, 5, 77, 0
16, 86220, Note_on_c, 5, 65, 0
16, 86220, Note_on_c, 5, 53, 0
16, 86220, Note_on_c, 5, 56, 92
16, 86220, Note_on_c, 5, 68, 92
16, 86220, Note_on_c, 5, 80, 92
16, 86280, Note_on_c, 5, 80, 0
16, 86280, Note_on_c, 5, 68, 0
16, 86280, Note_on_c, 5, 56, 0
16, 86280, Note_on_c, 5, 58, 92
16, 86280, Note_on_c, 5, 70, 92
16, 86280, Note_on_c, 5, 82, 92
16, 86340, Note_on_c, 5, 82, 0
16, 86340, Note_on_c, 5, 70, 0
16, 86340, Note_on_c, 5, 58, 0
16, 86340, Note_on_c, 5, 60, 92
16, 86340, Note_on_c, 5, 72, 92
16, 86340, Note_on_c, 5, 84, 92
16, 86400, Note_on_c, 5, 84, 0
16, 86400, Note_on_c, 5, 72, 0
16, 86400, Note_on_c, 5, 60, 0
16, 86820, Note_on_c, 5, 51, 82
16, 86820, Note_on_c, 5, 63, 82
16, 86880, Note_on_c, 5, 63, 0
16, 86880, Note_on_c, 5, 51, 0
16, 86880, Note_on_c, 5, 53, 82
16, 86880, Note_on_c, 5, 65, 82
16, 86940, Note_on_c, 5, 65, 0
16, 86940, Note_on_c, 5, 53, 0
16, 87060, Note_on_c, 5, 58, 82
16, 87060, Note_on_c, 5, 61, 82
16, 87060, Note_on_c, 5, 65, 82
16, 87180, Note_on_c, 5, 65, 0
16, 87180, Note_on_c, 5, 61, 0
16, 87180, Note_on_c, 5, 58, 0
16, 87180, Note_on_c, 5, 58, 82
16, 87180, Note_on_c, 5, 61, 82
16, 87180, Note_on_c, 5, 65, 82
16, 87240, Note_on_c, 5, 65, 0
16, 87240, Note_on_c, 5, 61, 0
16, 87240, Note_on_c, 5, 58, 0
16, 87300, Note_on_c, 5, 60, 82
16, 87300, Note_on_c, 5, 63, 82
16, 87300, Note_on_c, 5, 67, 82
16, 87600, Note_on_c, 5, 67, 0
16, 87600, Note_on_c, 5, 63, 0
16, 87600, Note_on_c, 5, 60, 0
16, 87600, Note_on_c, 5, 60, 66
16, 87600, Note_on_c, 5, 63, 66
16, 87600, Note_on_c, 5, 67, 66
16, 87660, Note_on_c, 5, 67, 0
16, 87660, Note_on_c, 5, 63, 0
16, 87660, Note_on_c, 5, 60, 0
16, 88980, Note_on_c, 5, 63, 82
16, 89040, Note_on_c, 5, 63, 0
16, 89040, Note_on_c, 5, 65, 82
16, 89100, Note_on_c, 5, 65, 0
16, 89100, Note_on_c, 5, 67, 82
16, 89160, Note_on_c, 5, 67, 0
16, 89160, Note_on_c, 5, 68, 82
16, 89220, Note_on_c, 5, 68, 0
16, 89220, Note_on_c, 5, 70, 82
16, 89280, Note_on_c, 5, 70, 0
16, 89280, Note_on_c, 5, 61, 82
16, 89280, Note_on_c, 5, 65, 82
16, 89280, Note_on_c, 5, 68, 82
16, 89400, Note_on_c, 5, 68, 0
16, 89400, Note_on_c, 5, 65, 0
16, 89400, Note_on_c, 5, 61, 0
16, 89400, Note_on_c, 5, 61, 82
16, 89400, Note_on_c, 5, 65, 82
16, 89400, Note_on_c, 5, 68, 82
16, 89460, Note_on_c, 5, 68, 0
16, 89460, Note_on_c, 5, 65, 0
16, 89460, Note_on_c, 5, 61, 0
16, 89520, Note_on_c, 5, 61, 82
16, 89520, Note_on_c, 5, 65, 82
16, 89520, Note_on_c, 5, 68, 82
16, 89640, Note_on_c, 5, 68, 0
16, 89640, Note_on_c, 5, 65, 0
16, 89640, Note_on_c, 5, 61, 0
16, 89640, Note_on_c, 5, 67, 82
16, 89640, Note_on_c, 5, 63, 82
16, 89640, Note_on_c, 5, 58, 82
16, 89805, Note_on_c, 5, 58, 0
16, 89805, Note_on_c, 5, 63, 0
16, 89805, Note_on_c, 5, 67, 0
16, 89820, Note_on_c, 5, 67, 82
16, 89820, Note_on_c, 5, 63, 82
16, 89820, Note_on_c, 5, 58, 82
16, 89940, Note_on_c, 5, 58, 0
16, 89940, Note_on_c, 5, 63, 0
16, 89940, Note_on_c, 5, 67, 0
16, 89940, Note_on_c, 5, 55, 82
16, 89940, Note_on_c, 5, 60, 82
16, 89940, Note_on_c, 5, 63, 82
16, 90060, Note_on_c, 5, 55, 82
16, 90060, Note_on_c, 5, 60, 82
16, 90060, Note_on_c, 5, 63, 82
16, 90120, Note_on_c, 5, 63, 0
16, 90120, Note_on_c, 5, 60, 0
16, 90120, Note_on_c, 5, 63, 0
16, 90120, Note_on_c, 5, 55, 0
16, 90120, Note_on_c, 5, 60, 0
16, 90120, Note_on_c, 5, 55, 0
16, 90180, Note_on_c, 5, 56, 82
16, 90180, Note_on_c, 5, 60, 82
16, 90180, Note_on_c, 5, 63, 82
16, 90540, Note_on_c, 5, 63, 0
16, 90540, Note_on_c, 5, 60, 0
16, 90540, Note_on_c, 5, 56, 0
16, 90720, Note_on_c, 5, 56, 82
16, 90720, Note_on_c, 5, 61, 82
16, 90720, Note_on_c, 5, 65, 82
16, 90960, Note_on_c, 5, 65, 0
16, 90960, Note_on_c, 5, 61, 0
16, 90960, Note_on_c, 5, 56, 0
16, 90960, Note_on_c, 5, 56, 82
16, 90960, Note_on_c, 5, 61, 82
16, 90960, Note_on_c, 5, 65, 82
16, 91020, Note_on_c, 5, 65, 0
16, 91020, Note_on_c, 5, 61, 0
16, 91020, Note_on_c, 5, 56, 0
16, 91020, Note_on_c, 5, 56, 82
16, 91020, Note_on_c, 5, 61, 82
16, 91020, Note_on_c, 5, 65, 82
16, 91080, Note_on_c, 5, 65, 0
16, 91080, Note_on_c, 5, 61, 0
16, 91080, Note_on_c, 5, 56, 0
16, 91080, Note_on_c, 5, 58, 82
16, 91080, Note_on_c, 5, 63, 82
16, 91080, Note_on_c, 5, 67, 82
16, 91440, Note_on_c, 5, 67, 0
16, 91440, Note_on_c, 5, 63, 0
16, 91440, Note_on_c, 5, 58, 0
16, 91440, Note_on_c, 5, 56, 82
16, 91440, Note_on_c, 5, 60, 82
16, 91440, Note_on_c, 5, 65, 82
16, 91560, Note_on_c, 5, 65, 0
16, 91560, Note_on_c, 5, 60, 0
16, 91560, Note_on_c, 5, 56, 0
16, 91560, Note_on_c, 5, 56, 82
16, 91560, Note_on_c, 5, 60, 82
16, 91560, Note_on_c, 5, 65, 82
16, 91680, Note_on_c, 5, 65, 0
16, 91680, Note_on_c, 5, 60, 0
16, 91680, Note_on_c, 5, 56, 0
16, 91680, Note_on_c, 5, 56, 82
16, 91680, Note_on_c, 5, 60, 82
16, 91680, Note_on_c, 5, 65, 82
16, 91800, Note_on_c, 5, 65, 0
16, 91800, Note_on_c, 5, 60, 0
16, 91800, Note_on_c, 5, 56, 0
16, 91800, Note_on_c, 5, 58, 82
16, 91800, Note_on_c, 5, 61, 82
16, 91800, Note_on_c, 5, 65, 82
16, 91920, Note_on_c, 5, 65, 0
16, 91920, Note_on_c, 5, 61, 0
16, 91920, Note_on_c, 5, 58, 0
16, 91920, Note_on_c, 5, 58, 82
16, 91920, Note_on_c, 5, 61, 82
16, 91920, Note_on_c, 5, 65, 82
16, 92040, Note_on_c, 5, 65, 0
16, 92040, Note_on_c, 5, 61, 0
16, 92040, Note_on_c, 5, 58, 0
16, 92040, Note_on_c, 5, 58, 82
16, 92040, Note_on_c, 5, 61, 82
16, 92040, Note_on_c, 5, 65, 82
16, 92160, Note_on_c, 5, 65, 0
16, 92160, Note_on_c, 5, 61, 0
16, 92160, Note_on_c, 5, 58, 0
16, 92160, Note_on_c, 5, 56, 82
16, 92160, Note_on_c, 5, 60, 82
16, 92160, Note_on_c, 5, 65, 82
16, 92452, Note_on_c, 5, 65, 0
16, 92452, Note_on_c, 5, 60, 0
16, 92452, Note_on_c, 5, 56, 0
16, 92460, Note_on_c, 5, 55, 82
16, 92460, Note_on_c, 5, 60, 82
16, 92460, Note_on_c, 5, 63, 82
16, 92812, Note_on_c, 5, 63, 0
16, 92812, Note_on_c, 5, 60, 0
16, 92812, Note_on_c, 5, 55, 0
16, 92820, Note_on_c, 5, 56, 82
16, 92820, Note_on_c, 5, 65, 82
16, 92820, Note_on_c, 5, 61, 82
16, 92932, Note_on_c, 5, 61, 0
16, 92932, Note_on_c, 5, 65, 0
16, 92932, Note_on_c, 5, 56, 0
16, 92940, Note_on_c, 5, 65, 82
16, 92940, Note_on_c, 5, 61, 82
16, 92940, Note_on_c, 5, 56, 82
16, 92992, Note_on_c, 5, 56, 0
16, 92992, Note_on_c, 5, 61, 0
16, 92992, Note_on_c, 5, 65, 0
16, 93060, Note_on_c, 5, 60, 82
16, 93060, Note_on_c, 5, 63, 82
16, 93060, Note_on_c, 5, 67, 82
16, 93592, Note_on_c, 5, 67, 0
16, 93592, Note_on_c, 5, 63, 0
16, 93592, Note_on_c, 5, 60, 0
16, 93600, Note_on_c, 5, 56, 82
16, 93600, Note_on_c, 5, 60, 82
16, 93600, Note_on_c, 5, 65, 82
16, 93892, Note_on_c, 5, 65, 0
16, 93892, Note_on_c, 5, 60, 0
16, 93892, Note_on_c, 5, 56, 0
16, 93900, Note_on_c, 5, 56, 82
16, 93900, Note_on_c, 5, 60, 82
16, 93900, Note_on_c, 5, 65, 82
16, 94252, Note_on_c, 5, 65, 0
16, 94252, Note_on_c, 5, 60, 0
16, 94252, Note_on_c, 5, 56, 0
16, 94260, Note_on_c, 5, 60, 82
16, 94260, Note_on_c, 5, 63, 82
16, 94260, Note_on_c, 5, 67, 82
16, 94672, Note_on_c, 5, 67, 0
16, 94672, Note_on_c, 5, 63, 0
16, 94672, Note_on_c, 5, 60, 0
16, 94680, Note_on_c, 5, 60, 82
16, 94740, Note_on_c, 5, 60, 0
16, 94740, Note_on_c, 5, 63, 82
16, 94800, Note_on_c, 5, 63, 0
16, 94800, Note_on_c, 5, 65, 82
16, 94860, Note_on_c, 5, 65, 0
16, 94860, Note_on_c, 5, 67, 82
16, 94920, Note_on_c, 5, 67, 0
16, 94920, Note_on_c, 5, 68, 82
16, 94980, Note_on_c, 5, 68, 0
16, 94980, Note_on_c, 5, 70, 82
16, 95040, Note_on_c, 5, 70, 0
16, 95040, Note_on_c, 5, 63, 82
16, 95040, Note_on_c, 5, 68, 82
16, 95040, Note_on_c, 5, 72, 82
16, 95160, Note_on_c, 5, 72, 0
16, 95160, Note_on_c, 5, 68, 0
16, 95160, Note_on_c, 5, 63, 0
16, 95160, Note_on_c, 5, 65, 82
16, 95160, Note_on_c, 5, 68, 82
16, 95160, Note_on_c, 5, 73, 82
16, 95220, Note_on_c, 5, 73, 0
16, 95220, Note_on_c, 5, 68, 0
16, 95220, Note_on_c, 5, 65, 0
16, 95280, Note_on_c, 5, 61, 82
16, 95280, Note_on_c, 5, 65, 82
16, 95280, Note_on_c, 5, 68, 82
16, 95400, Note_on_c, 5, 68, 0
16, 95400, Note_on_c, 5, 65, 0
16, 95400, Note_on_c, 5, 61, 0
16, 95400, Note_on_c, 5, 63, 82
16, 95400, Note_on_c, 5, 67, 82
16, 95400, Note_on_c, 5, 70, 82
16, 95580, Note_on_c, 5, 70, 0
16, 95580, Note_on_c, 5, 67, 0
16, 95580, Note_on_c, 5, 63, 0
16, 95580, Note_on_c, 5, 63, 82
16, 95580, Note_on_c, 5, 67, 82
16, 95580, Note_on_c, 5, 70, 82
16, 95700, Note_on_c, 5, 70, 0
16, 95700, Note_on_c, 5, 67, 0
16, 95700, Note_on_c, 5, 63, 0
16, 95700, Note_on_c, 5, 63, 82
16, 95700, Note_on_c, 5, 67, 82
16, 95700, Note_on_c, 5, 72, 82
16, 95820, Note_on_c, 5, 72, 0
16, 95820, Note_on_c, 5, 67, 0
16, 95820, Note_on_c, 5, 63, 0
16, 95820, Note_on_c, 5, 67, 82
16, 95820, Note_on_c, 5, 70, 82
16, 95820, Note_on_c, 5, 75, 82
16, 95880, Note_on_c, 5, 75, 0
16, 95880, Note_on_c, 5, 70, 0
16, 95880, Note_on_c, 5, 67, 0
16, 95940, Note_on_c, 5, 60, 82
16, 95940, Note_on_c, 5, 65, 82
16, 95940, Note_on_c, 5, 68, 82
16, 96480, Note_on_c, 5, 68, 0
16, 96480, Note_on_c, 5, 65, 0
16, 96480, Note_on_c, 5, 60, 0
16, 96480, Note_on_c, 5, 56, 82
16, 96480, Note_on_c, 5, 61, 82
16, 96480, Note_on_c, 5, 65, 82
16, 96712, Note_on_c, 5, 65, 0
16, 96712, Note_on_c, 5, 61, 0
16, 96712, Note_on_c, 5, 56, 0
16, 96720, Note_on_c, 5, 56, 82
16, 96720, Note_on_c, 5, 61, 82
16, 96720, Note_on_c, 5, 65, 82
16, 96772, Note_on_c, 5, 65, 0
16, 96772, Note_on_c, 5, 61, 0
16, 96772, Note_on_c, 5, 56, 0
16, 96780, Note_on_c, 5, 56, 82
16, 96780, Note_on_c, 5, 61, 82
16, 96780, Note_on_c, 5, 65, 82
16, 96832, Note_on_c, 5, 65, 0
16, 96832, Note_on_c, 5, 61, 0
16, 96832, Note_on_c, 5, 56, 0
16, 96840, Note_on_c, 5, 58, 82
16, 96840, Note_on_c, 5, 63, 82
16, 96840, Note_on_c, 5, 67, 82
16, 97192, Note_on_c, 5, 67, 0
16, 97192, Note_on_c, 5, 63, 0
16, 97192, Note_on_c, 5, 58, 0
16, 97200, Note_on_c, 5, 56, 82
16, 97200, Note_on_c, 5, 64, 82
16, 97200, Note_on_c, 5, 61, 82
16, 97312, Note_on_c, 5, 61, 0
16, 97312, Note_on_c, 5, 64, 0
16, 97312, Note_on_c, 5, 56, 0
16, 97320, Note_on_c, 5, 56, 82
16, 97320, Note_on_c, 5, 64, 82
16, 97320, Note_on_c, 5, 61, 82
16, 97432, Note_on_c, 5, 61, 0
16, 97432, Note_on_c, 5, 64, 0
16, 97432, Note_on_c, 5, 56, 0
16, 97440, Note_on_c, 5, 56, 82
16, 97440, Note_on_c, 5, 64, 82
16, 97440, Note_on_c, 5, 61, 82
16, 97552, Note_on_c, 5, 61, 0
16, 97552, Note_on_c, 5, 64, 0
16, 97552, Note_on_c, 5, 56, 0
16, 97560, Note_on_c, 5, 65, 82
16, 97560, Note_on_c, 5, 64, 82
16, 97560, Note_on_c, 5, 60, 82
16, 97672, Note_on_c, 5, 60, 0
16, 97672, Note_on_c, 5, 64, 0
16, 97672, Note_on_c, 5, 65, 0
16, 97680, Note_on_c, 5, 65, 82
16, 97680, Note_on_c, 5, 64, 82
16, 97680, Note_on_c, 5, 60, 82
16, 97792, Note_on_c, 5, 60, 0
16, 97792, Note_on_c, 5, 64, 0
16, 97792, Note_on_c, 5, 65, 0
16, 97800, Note_on_c, 5, 65, 82
16, 97800, Note_on_c, 5, 64, 82
16, 97800, Note_on_c, 5, 60, 82
16, 97912, Note_on_c, 5, 60, 0
16, 97912, Note_on_c, 5, 64, 0
16, 97912, Note_on_c, 5, 65, 0
16, 97920, Note_on_c, 5, 56, 82
16, 97920, Note_on_c, 5, 60, 82
16, 97920, Note_on_c, 5, 65, 82
16, 98212, Note_on_c, 5, 65, 0
16, 98212, Note_on_c, 5, 60, 0
16, 98212, Note_on_c, 5, 56, 0
16, 98220, Note_on_c, 5, 55, 82
16, 98220, Note_on_c, 5, 60, 82
16, 98220, Note_on_c, 5, 63, 82
16, 98572, Note_on_c, 5, 63, 0
16, 98572, Note_on_c, 5, 60, 0
16, 98572, Note_on_c, 5, 55, 0
16, 98580, Note_on_c, 5, 56, 82
16, 98580, Note_on_c, 5, 65, 82
16, 98580, Note_on_c, 5, 61, 82
16, 98692, Note_on_c, 5, 61, 0
16, 98692, Note_on_c, 5, 65, 0
16, 98692, Note_on_c, 5, 56, 0
16, 98700, Note_on_c, 5, 65, 82
16, 98700, Note_on_c, 5, 61, 82
16, 98700, Note_on_c, 5, 56, 82
16, 98752, Note_on_c, 5, 56, 0
16, 98752, Note_on_c, 5, 61, 0
16, 98752, Note_on_c, 5, 65, 0
16, 98820, Note_on_c, 5, 60, 82
16, 98820, Note_on_c, 5, 63, 82
16, 98820, Note_on_c, 5, 67, 82
16, 99352, Note_on_c, 5, 67, 0
16, 99352, Note_on_c, 5, 63, 0
16, 99352, Note_on_c, 5, 60, 0
16, 99360, Note_on_c, 5, 56, 82
16, 99360, Note_on_c, 5, 60, 82
16, 99360, Note_on_c, 5, 65, 82
16, 99652, Note_on_c, 5, 65, 0
16, 99652, Note_on_c, 5, 60, 0
16, 99652, Note_on_c, 5, 56, 0
16, 99660, Note_on_c, 5, 56, 82
16, 99660, Note_on_c, 5, 60, 82
16, 99660, Note_on_c, 5, 65, 82
16, 100012, Note_on_c, 5, 65, 0
16, 100012, Note_on_c, 5, 60, 0
16, 100012, Note_on_c, 5, 56, 0
16, 100020, Note_on_c, 5, 60, 82
16, 100020, Note_on_c, 5, 63, 82
16, 100020, Note_on_c, 5, 67, 82
16, 100432, Note_on_c, 5, 67, 0
16, 100432, Note_on_c, 5, 63, 0
16, 100432, Note_on_c, 5, 60, 0
16, 100440, Note_on_c, 5, 60, 82
16, 100500, Note_on_c, 5, 60, 0
16, 100500, Note_on_c, 5, 63, 82
16, 100560, Note_on_c, 5, 63, 0
16, 100560, Note_on_c, 5, 65, 82
16, 100620, Note_on_c, 5, 65, 0
16, 100620, Note_on_c, 5, 67, 82
16, 100680, Note_on_c, 5, 67, 0
16, 100680, Note_on_c, 5, 68, 82
16, 100740, Note_on_c, 5, 68, 0
16, 100740, Note_on_c, 5, 70, 82
16, 100800, Note_on_c, 5, 70, 0
16, 100800, Note_on_c, 5, 58, 82
16, 100800, Note_on_c, 5, 61, 82
16, 100800, Note_on_c, 5, 65, 82
16, 100912, Note_on_c, 5, 65, 0
16, 100912, Note_on_c, 5, 61, 0
16, 100912, Note_on_c, 5, 58, 0
16, 100920, Note_on_c, 5, 58, 82
16, 100920, Note_on_c, 5, 61, 82
16, 100920, Note_on_c, 5, 65, 82
16, 100972, Note_on_c, 5, 65, 0
16, 100972, Note_on_c, 5, 61, 0
16, 100972, Note_on_c, 5, 58, 0
16, 101040, Note_on_c, 5, 58, 82
16, 101040, Note_on_c, 5, 61, 82
16, 101040, Note_on_c, 5, 65, 82
16, 101152, Note_on_c, 5, 65, 0
16, 101152, Note_on_c, 5, 61, 0
16, 101152, Note_on_c, 5, 58, 0
16, 101160, Note_on_c, 5, 67, 82
16, 101160, Note_on_c, 5, 58, 82
16, 101160, Note_on_c, 5, 63, 82
16, 101332, Note_on_c, 5, 63, 0
16, 101332, Note_on_c, 5, 58, 0
16, 101332, Note_on_c, 5, 67, 0
16, 101340, Note_on_c, 5, 67, 82
16, 101340, Note_on_c, 5, 58, 82
16, 101340, Note_on_c, 5, 63, 82
16, 101452, Note_on_c, 5, 63, 0
16, 101452, Note_on_c, 5, 58, 0
16, 101452, Note_on_c, 5, 67, 0
16, 101460, Note_on_c, 5, 60, 82
16, 101460, Note_on_c, 5, 63, 82
16, 101460, Note_on_c, 5, 67, 82
16, 101572, Note_on_c, 5, 67, 0
16, 101572, Note_on_c, 5, 63, 0
16, 101572, Note_on_c, 5, 60, 0
16, 101580, Note_on_c, 5, 60, 82
16, 101580, Note_on_c, 5, 63, 82
16, 101580, Note_on_c, 5, 67, 82
16, 101632, Note_on_c, 5, 67, 0
16, 101632, Note_on_c, 5, 63, 0
16, 101632, Note_on_c, 5, 60, 0
16, 101700, Note_on_c, 5, 56, 82
16, 101700, Note_on_c, 5, 60, 82
16, 101700, Note_on_c, 5, 65, 82
16, 101992, Note_on_c, 5, 65, 0
16, 101992, Note_on_c, 5, 60, 0
16, 101992, Note_on_c, 5, 56, 0
16, 102000, Note_on_c, 5, 56, 82
16, 102000, Note_on_c, 5, 60, 82
16, 102000, Note_on_c, 5, 65, 82
16, 102052, Note_on_c, 5, 65, 0
16, 102052, Note_on_c, 5, 60, 0
16, 102052, Note_on_c, 5, 56, 0
16, 102060, Note_on_c, 5, 56, 82
16, 102060, Note_on_c, 5, 60, 82
16, 102060, Note_on_c, 5, 65, 82
16, 102112, Note_on_c, 5, 65, 0
16, 102112, Note_on_c, 5, 60, 0
16, 102112, Note_on_c, 5, 56, 0
16, 102120, Note_on_c, 5, 56, 82
16, 102120, Note_on_c, 5, 60, 82
16, 102120, Note_on_c, 5, 65, 82
16, 102172, Note_on_c, 5, 65, 0
16, 102172, Note_on_c, 5, 60, 0
16, 102172, Note_on_c, 5, 56, 0
16, 102180, Note_on_c, 5, 56, 82
16, 102180, Note_on_c, 5, 60, 82
16, 102180, Note_on_c, 5, 65, 82
16, 102232, Note_on_c, 5, 65, 0
16, 102232, Note_on_c, 5, 60, 0
16, 102232, Note_on_c, 5, 56, 0
16, 102240, Note_on_c, 5, 56, 82
16, 102240, Note_on_c, 5, 61, 82
16, 102240, Note_on_c, 5, 65, 82
16, 102472, Note_on_c, 5, 65, 0
16, 102472, Note_on_c, 5, 61, 0
16, 102472, Note_on_c, 5, 56, 0
16, 102480, Note_on_c, 5, 56, 82
16, 102480, Note_on_c, 5, 61, 82
16, 102480, Note_on_c, 5, 65, 82
16, 102532, Note_on_c, 5, 65, 0
16, 102532, Note_on_c, 5, 61, 0
16, 102532, Note_on_c, 5, 56, 0
16, 102540, Note_on_c, 5, 56, 82
16, 102540, Note_on_c, 5, 61, 82
16, 102540, Note_on_c, 5, 65, 82
16, 102592, Note_on_c, 5, 65, 0
16, 102592, Note_on_c, 5, 61, 0
16, 102592, Note_on_c, 5, 56, 0
16, 102600, Note_on_c, 5, 58, 82
16, 102600, Note_on_c, 5, 63, 82
16, 102600, Note_on_c, 5, 67, 82
16, 102952, Note_on_c, 5, 67, 0
16, 102952, Note_on_c, 5, 63, 0
16, 102952, Note_on_c, 5, 58, 0
16, 102960, Note_on_c, 5, 56, 82
16, 102960, Note_on_c, 5, 60, 82
16, 102960, Note_on_c, 5, 65, 82
16, 103072, Note_on_c, 5, 65, 0
16, 103072, Note_on_c, 5, 60, 0
16, 103072, Note_on_c, 5, 56, 0
16, 103080, Note_on_c, 5, 56, 82
16, 103080, Note_on_c, 5, 60, 82
16, 103080, Note_on_c, 5, 65, 82
16, 103192, Note_on_c, 5, 65, 0
16, 103192, Note_on_c, 5, 60, 0
16, 103192, Note_on_c, 5, 56, 0
16, 103200, Note_on_c, 5, 56, 82
16, 103200, Note_on_c, 5, 60, 82
16, 103200, Note_on_c, 5, 65, 82
16, 103312, Note_on_c, 5, 65, 0
16, 103312, Note_on_c, 5, 60, 0
16, 103312, Note_on_c, 5, 56, 0
16, 103320, Note_on_c, 5, 56, 82
16, 103320, Note_on_c, 5, 61, 82
16, 103320, Note_on_c, 5, 65, 82
16, 103432, Note_on_c, 5, 65, 0
16, 103432, Note_on_c, 5, 61, 0
16, 103432, Note_on_c, 5, 56, 0
16, 103440, Note_on_c, 5, 56, 82
16, 103440, Note_on_c, 5, 61, 82
16, 103440, Note_on_c, 5, 65, 82
16, 103552, Note_on_c, 5, 65, 0
16, 103552, Note_on_c, 5, 61, 0
16, 103552, Note_on_c, 5, 56, 0
16, 103560, Note_on_c, 5, 56, 82
16, 103560, Note_on_c, 5, 61, 82
16, 103560, Note_on_c, 5, 65, 82
16, 103672, Note_on_c, 5, 65, 0
16, 103672, Note_on_c, 5, 61, 0
16, 103672, Note_on_c, 5, 56, 0
16, 103680, Note_on_c, 5, 56, 82
16, 103680, Note_on_c, 5, 60, 82
16, 103680, Note_on_c, 5, 65, 82
16, 103972, Note_on_c, 5, 65, 0
16, 103972, Note_on_c, 5, 60, 0
16, 103972, Note_on_c, 5, 56, 0
16, 103980, Note_on_c, 5, 55, 82
16, 103980, Note_on_c, 5, 60, 82
16, 103980, Note_on_c, 5, 63, 82
16, 104332, Note_on_c, 5, 63, 0
16, 104332, Note_on_c, 5, 60, 0
16, 104332, Note_on_c, 5, 55, 0
16, 104340, Note_on_c, 5, 56, 82
16, 104340, Note_on_c, 5, 65, 82
16, 104340, Note_on_c, 5, 61, 82
16, 104452, Note_on_c, 5, 61, 0
16, 104452, Note_on_c, 5, 65, 0
16, 104452, Note_on_c, 5, 56, 0
16, 104460, Note_on_c, 5, 65, 82
16, 104460, Note_on_c, 5, 61, 82
16, 104460, Note_on_c, 5, 56, 82
16, 104512, Note_on_c, 5, 56, 0
16, 104512, Note_on_c, 5, 61, 0
16, 104512, Note_on_c, 5, 65, 0
16, 104580, Note_on_c, 5, 60, 82
16, 104580, Note_on_c, 5, 63, 82
16, 104580, Note_on_c, 5, 67, 82
16, 105112, Note_on_c, 5, 67, 0
16, 105112, Note_on_c, 5, 63, 0
16, 105112, Note_on_c, 5, 60, 0
16, 105120, Note_on_c, 5, 56, 82
16, 105120, Note_on_c, 5, 60, 82
16, 105120, Note_on_c, 5, 65, 82
16, 105412, Note_on_c, 5, 65, 0
16, 105412, Note_on_c, 5, 60, 0
16, 105412, Note_on_c, 5, 56, 0
16, 105420, Note_on_c, 5, 56, 82
16, 105420, Note_on_c, 5, 60, 82
16, 105420, Note_on_c, 5, 65, 82
16, 105772, Note_on_c, 5, 65, 0
16, 105772, Note_on_c, 5, 60, 0
16, 105772, Note_on_c, 5, 56, 0
16, 105780, Note_on_c, 5, 60, 82
16, 105780, Note_on_c, 5, 63, 82
16, 105780, Note_on_c, 5, 67, 82
16, 106192, Note_on_c, 5, 67, 0
16, 106192, Note_on_c, 5, 63, 0
16, 106192, Note_on_c, 5, 60, 0
16, 106200, Note_on_c, 5, 60, 82
16, 106260, Note_on_c, 5, 60, 0
16, 106260, Note_on_c, 5, 63, 82
16, 106320, Note_on_c, 5, 63, 0
16, 106320, Note_on_c, 5, 65, 82
16, 106380, Note_on_c, 5, 65, 0
16, 106380, Note_on_c, 5, 67, 82
16, 106440, Note_on_c, 5, 67, 0
16, 106440, Note_on_c, 5, 68, 82
16, 106500, Note_on_c, 5, 68, 0
16, 106500, Note_on_c, 5, 70, 82
16, 106560, Note_on_c, 5, 70, 0
16, 106560, Note_on_c, 5, 58, 82
16, 106560, Note_on_c, 5, 61, 82
16, 106560, Note_on_c, 5, 65, 82
16, 106672, Note_on_c, 5, 65, 0
16, 106672, Note_on_c, 5, 61, 0
16, 106672, Note_on_c, 5, 58, 0
16, 106680, Note_on_c, 5, 58, 82
16, 106680, Note_on_c, 5, 61, 82
16, 106680, Note_on_c, 5, 65, 82
16, 106732, Note_on_c, 5, 65, 0
16, 106732, Note_on_c, 5, 61, 0
16, 106732, Note_on_c, 5, 58, 0
16, 106800, Note_on_c, 5, 58, 82
16, 106800, Note_on_c, 5, 61, 82
16, 106800, Note_on_c, 5, 65, 82
16, 106912, Note_on_c, 5, 65, 0
16, 106912, Note_on_c, 5, 61, 0
16, 106912, Note_on_c, 5, 58, 0
16, 106920, Note_on_c, 5, 67, 82
16, 106920, Note_on_c, 5, 58, 82
16, 106920, Note_on_c, 5, 63, 82
16, 107092, Note_on_c, 5, 63, 0
16, 107092, Note_on_c, 5, 58, 0
16, 107092, Note_on_c, 5, 67, 0
16, 107100, Note_on_c, 5, 67, 82
16, 107100, Note_on_c, 5, 58, 82
16, 107100, Note_on_c, 5, 63, 82
16, 107212, Note_on_c, 5, 63, 0
16, 107212, Note_on_c, 5, 58, 0
16, 107212, Note_on_c, 5, 67, 0
16, 107220, Note_on_c, 5, 60, 82
16, 107220, Note_on_c, 5, 63, 82
16, 107220, Note_on_c, 5, 67, 82
16, 107332, Note_on_c, 5, 67, 0
16, 107332, Note_on_c, 5, 63, 0
16, 107332, Note_on_c, 5, 60, 0
16, 107340, Note_on_c, 5, 60, 82
16, 107340, Note_on_c, 5, 63, 82
16, 107340, Note_on_c, 5, 67, 82
16, 107392, Note_on_c, 5, 67, 0
16, 107392, Note_on_c, 5, 63, 0
16, 107392, Note_on_c, 5, 60, 0
16, 107460, Note_on_c, 5, 56, 82
16, 107460, Note_on_c, 5, 60, 82
16, 107460, Note_on_c, 5, 65, 82
16, 107752, Note_on_c, 5, 65, 0
16, 107752, Note_on_c, 5, 60, 0
16, 107752, Note_on_c, 5, 56, 0
16, 107760, Note_on_c, 5, 56, 82
16, 107760, Note_on_c, 5, 60, 82
16, 107760, Note_on_c, 5, 65, 82
16, 107812, Note_on_c, 5, 65, 0
16, 107812, Note_on_c, 5, 60, 0
16, 107812, Note_on_c, 5, 56, 0
16, 107820, Note_on_c, 5, 56, 82
16, 107820, Note_on_c, 5, 60, 82
16, 107820, Note_on_c, 5, 65, 82
16, 107872, Note_on_c, 5, 65, 0
16, 107872, Note_on_c, 5, 60, 0
16, 107872, Note_on_c, 5, 56, 0
16, 107880, Note_on_c, 5, 56, 82
16, 107880, Note_on_c, 5, 60, 82
16, 107880, Note_on_c, 5, 65, 82
16, 107932, Note_on_c, 5, 65, 0
16, 107932, Note_on_c, 5, 60, 0
16, 107932, Note_on_c, 5, 56, 0
16, 107940, Note_on_c, 5, 56, 82
16, 107940, Note_on_c, 5, 60, 82
16, 107940, Note_on_c, 5, 65, 82
16, 107992, Note_on_c, 5, 65, 0
16, 107992, Note_on_c, 5, 60, 0
16, 107992, Note_on_c, 5, 56, 0
16, 108000, Note_on_c, 5, 56, 82
16, 108000, Note_on_c, 5, 61, 82
16, 108000, Note_on_c, 5, 65, 82
16, 108232, Note_on_c, 5, 65, 0
16, 108232, Note_on_c, 5, 61, 0
16, 108232, Note_on_c, 5, 56, 0
16, 108240, Note_on_c, 5, 56, 82
16, 108240, Note_on_c, 5, 61, 82
16, 108240, Note_on_c, 5, 65, 82
16, 108292, Note_on_c, 5, 65, 0
16, 108292, Note_on_c, 5, 61, 0
16, 108292, Note_on_c, 5, 56, 0
16, 108300, Note_on_c, 5, 56, 82
16, 108300, Note_on_c, 5, 61, 82
16, 108300, Note_on_c, 5, 65, 82
16, 108352, Note_on_c, 5, 65, 0
16, 108352, Note_on_c, 5, 61, 0
16, 108352, Note_on_c, 5, 56, 0
16, 108360, Note_on_c, 5, 58, 82
16, 108360, Note_on_c, 5, 63, 82
16, 108360, Note_on_c, 5, 67, 82
16, 108712, Note_on_c, 5, 67, 0
16, 108712, Note_on_c, 5, 63, 0
16, 108712, Note_on_c, 5, 58, 0
16, 108720, Note_on_c, 5, 56, 82
16, 108720, Note_on_c, 5, 64, 82
16, 108720, Note_on_c, 5, 61, 82
16, 108832, Note_on_c, 5, 61, 0
16, 108832, Note_on_c, 5, 64, 0
16, 108832, Note_on_c, 5, 56, 0
16, 108840, Note_on_c, 5, 56, 82
16, 108840, Note_on_c, 5, 64, 82
16, 108840, Note_on_c, 5, 61, 82
16, 108952, Note_on_c, 5, 61, 0
16, 108952, Note_on_c, 5, 64, 0
16, 108952, Note_on_c, 5, 56, 0
16, 108960, Note_on_c, 5, 56, 82
16, 108960, Note_on_c, 5, 64, 82
16, 108960, Note_on_c, 5, 61, 82
16, 109072, Note_on_c, 5, 61, 0
16, 109072, Note_on_c, 5, 64, 0
16, 109072, Note_on_c, 5, 56, 0
16, 109080, Note_on_c, 5, 65, 82
16, 109080, Note_on_c, 5, 64, 82
16, 109080, Note_on_c, 5, 60, 82
16, 109192, Note_on_c, 5, 60, 0
16, 109192, Note_on_c, 5, 64, 0
16, 109192, Note_on_c, 5, 65, 0
16, 109200, Note_on_c, 5, 65, 82
16, 109200, Note_on_c, 5, 64, 82
16, 109200, Note_on_c, 5, 60, 82
16, 109312, Note_on_c, 5, 60, 0
16, 109312, Note_on_c, 5, 64, 0
16, 109312, Note_on_c, 5, 65, 0
16, 109320, Note_on_c, 5, 65, 82
16, 109320, Note_on_c, 5, 64, 82
16, 109320, Note_on_c, 5, 60, 82
16, 109432, Note_on_c, 5, 60, 0
16, 109432, Note_on_c, 5, 64, 0
16, 109432, Note_on_c, 5, 65, 0
16, 109440, Note_on_c, 5, 56, 82
16, 109440, Note_on_c, 5, 60, 82
16, 109440, Note_on_c, 5, 65, 82
16, 109732, Note_on_c, 5, 65, 0
16, 109732, Note_on_c, 5, 60, 0
16, 109732, Note_on_c, 5, 56, 0
16, 109740, Note_on_c, 5, 55, 82
16, 109740, Note_on_c, 5, 60, 82
16, 109740, Note_on_c, 5, 63, 82
16, 110092, Note_on_c, 5, 63, 0
16, 110092, Note_on_c, 5, 60, 0
16, 110092, Note_on_c, 5, 55, 0
16, 110100, Note_on_c, 5, 56, 82
16, 110100, Note_on_c, 5, 65, 82
16, 110100, Note_on_c, 5, 61, 82
16, 110212, Note_on_c, 5, 61, 0
16, 110212, Note_on_c, 5, 65, 0
16, 110212, Note_on_c, 5, 56, 0
16, 110220, Note_on_c, 5, 65, 82
16, 110220, Note_on_c, 5, 61, 82
16, 110220, Note_on_c, 5, 56, 82
16, 110272, Note_on_c, 5, 56, 0
16, 110272, Note_on_c, 5, 61, 0
16, 110272, Note_on_c, 5, 65, 0
16, 110340, Note_on_c, 5, 60, 82
16, 110340, Note_on_c, 5, 63, 82
16, 110340, Note_on_c, 5, 67, 82
16, 110872, Note_on_c, 5, 67, 0
16, 110872, Note_on_c, 5, 63, 0
16, 110872, Note_on_c, 5, 60, 0
16, 110880, Note_on_c, 5, 56, 82
16, 110880, Note_on_c, 5, 60, 82
16, 110880, Note_on_c, 5, 65, 82
16, 111172, Note_on_c, 5, 65, 0
16, 111172, Note_on_c, 5, 60, 0
16, 111172, Note_on_c, 5, 56, 0
16, 111180, Note_on_c, 5, 56, 82
16, 111180, Note_on_c, 5, 60, 82
16, 111180, Note_on_c, 5, 65, 82
16, 111532, Note_on_c, 5, 65, 0
16, 111532, Note_on_c, 5, 60, 0
16, 111532, Note_on_c, 5, 56, 0
16, 111540, Note_on_c, 5, 60, 82
16, 111540, Note_on_c, 5, 63, 82
16, 111540, Note_on_c, 5, 67, 82
16, 111952, Note_on_c, 5, 67, 0
16, 111952, Note_on_c, 5, 63, 0
16, 111952, Note_on_c, 5, 60, 0
16, 111960, Note_on_c, 5, 60, 82
16, 112020, Note_on_c, 5, 60, 0
16, 112020, Note_on_c, 5, 63, 82
16, 112080, Note_on_c, 5, 63, 0
16, 112080, Note_on_c, 5, 65, 82
16, 112140, Note_on_c, 5, 65, 0
16, 112140, Note_on_c, 5, 67, 82
16, 112200, Note_on_c, 5, 67, 0
16, 112200, Note_on_c, 5, 68, 82
16, 112260, Note_on_c, 5, 68, 0
16, 112260, Note_on_c, 5, 70, 82
16, 112320, Note_on_c, 5, 70, 0
16, 112320, Note_on_c, 5, 63, 82
16, 112320, Note_on_c, 5, 68, 82
16, 112320, Note_on_c, 5, 72, 82
16, 112440, Note_on_c, 5, 72, 0
16, 112440, Note_on_c, 5, 68, 0
16, 112440, Note_on_c, 5, 63, 0
16, 112440, Note_on_c, 5, 65, 82
16, 112440, Note_on_c, 5, 68, 82
16, 112440, Note_on_c, 5, 73, 82
16, 112500, Note_on_c, 5, 73, 0
16, 112500, Note_on_c, 5, 68, 0
16, 112500, Note_on_c, 5, 65, 0
16, 112560, Note_on_c, 5, 61, 82
16, 112560, Note_on_c, 5, 65, 82
16, 112560, Note_on_c, 5, 68, 82
16, 112680, Note_on_c, 5, 68, 0
16, 112680, Note_on_c, 5, 65, 0
16, 112680, Note_on_c, 5, 61, 0
16, 112680, Note_on_c, 5, 63, 82
16, 112680, Note_on_c, 5, 67, 82
16, 112680, Note_on_c, 5, 70, 82
16, 112860, Note_on_c, 5, 70, 0
16, 112860, Note_on_c, 5, 67, 0
16, 112860, Note_on_c, 5, 63, 0
16, 112860, Note_on_c, 5, 63, 82
16, 112860, Note_on_c, 5, 67, 82
16, 112860, Note_on_c, 5, 70, 82
16, 112980, Note_on_c, 5, 70, 0
16, 112980, Note_on_c, 5, 67, 0
16, 112980, Note_on_c, 5, 63, 0
16, 112980, Note_on_c, 5, 63, 82
16, 112980, Note_on_c, 5, 67, 82
16, 112980, Note_on_c, 5, 72, 82
16, 113100, Note_on_c, 5, 72, 0
16, 113100, Note_on_c, 5, 67, 0
16, 113100, Note_on_c, 5, 63, 0
16, 113100, Note_on_c, 5, 67, 82
16, 113100, Note_on_c, 5, 70, 82
16, 113100, Note_on_c, 5, 75, 82
16, 113160, Note_on_c, 5, 75, 0
16, 113160, Note_on_c, 5, 70, 0
16, 113160, Note_on_c, 5, 67, 0
16, 113220, Note_on_c, 5, 60, 82
16, 113220, Note_on_c, 5, 65, 82
16, 113220, Note_on_c, 5, 68, 82
16, 113760, Note_on_c, 5, 68, 0
16, 113760, Note_on_c, 5, 65, 0
16, 113760, Note_on_c, 5, 60, 0
16, 113760, Note_on_c, 5, 56, 82
16, 113760, Note_on_c, 5, 61, 82
16, 113760, Note_on_c, 5, 65, 82
16, 113992, Note_on_c, 5, 65, 0
16, 113992, Note_on_c, 5, 61, 0
16, 113992, Note_on_c, 5, 56, 0
16, 114000, Note_on_c, 5, 56, 82
16, 114000, Note_on_c, 5, 61, 82
16, 114000, Note_on_c, 5, 65, 82
16, 114052, Note_on_c, 5, 65, 0
16, 114052, Note_on_c, 5, 61, 0
16, 114052, Note_on_c, 5, 56, 0
16, 114060, Note_on_c, 5, 56, 82
16, 114060, Note_on_c, 5, 61, 82
16, 114060, Note_on_c, 5, 65, 82
16, 114112, Note_on_c, 5, 65, 0
16, 114112, Note_on_c, 5, 61, 0
16, 114112, Note_on_c, 5, 56, 0
16, 114120, Note_on_c, 5, 58, 82
16, 114120, Note_on_c, 5, 63, 82
16, 114120, Note_on_c, 5, 67, 82
16, 114472, Note_on_c, 5, 67, 0
16, 114472, Note_on_c, 5, 63, 0
16, 114472, Note_on_c, 5, 58, 0
16, 114480, Note_on_c, 5, 56, 82
16, 114480, Note_on_c, 5, 60, 82
16, 114480, Note_on_c, 5, 65, 82
16, 114592, Note_on_c, 5, 65, 0
16, 114592, Note_on_c, 5, 60, 0
16, 114592, Note_on_c, 5, 56, 0
16, 114600, Note_on_c, 5, 56, 82
16, 114600, Note_on_c, 5, 60, 82
16, 114600, Note_on_c, 5, 65, 82
16, 114712, Note_on_c, 5, 65, 0
16, 114712, Note_on_c, 5, 60, 0
16, 114712, Note_on_c, 5, 56, 0
16, 114720, Note_on_c, 5, 56, 82
16, 114720, Note_on_c, 5, 60, 82
16, 114720, Note_on_c, 5, 65, 82
16, 114832, Note_on_c, 5, 65, 0
16, 114832, Note_on_c, 5, 60, 0
16, 114832, Note_on_c, 5, 56, 0
16, 114840, Note_on_c, 5, 56, 82
16, 114840, Note_on_c, 5, 61, 82
16, 114840, Note_on_c, 5, 65, 82
16, 114952, Note_on_c, 5, 65, 0
16, 114952, Note_on_c, 5, 61, 0
16, 114952, Note_on_c, 5, 56, 0
16, 114960, Note_on_c, 5, 56, 82
16, 114960, Note_on_c, 5, 61, 82
16, 114960, Note_on_c, 5, 65, 82
16, 115072, Note_on_c, 5, 65, 0
16, 115072, Note_on_c, 5, 61, 0
16, 115072, Note_on_c, 5, 56, 0
16, 115080, Note_on_c, 5, 56, 82
16, 115080, Note_on_c, 5, 61, 82
16, 115080, Note_on_c, 5, 65, 82
16, 115192, Note_on_c, 5, 65, 0
16, 115192, Note_on_c, 5, 61, 0
16, 115192, Note_on_c, 5, 56, 0
16, 115200, Control_c, 5, 11, 127
16, 115200, Note_on_c, 5, 56, 82
16, 115200, Note_on_c, 5, 60, 82
16, 115200, Note_on_c, 5, 65, 82
16, 115245, Control_c, 5, 11, 126
16, 115290, Control_c, 5, 11, 125
16, 115336, Control_c, 5, 11, 124
16, 115381, Control_c, 5, 11, 123
16, 115426, Control_c, 5, 11, 122
16, 115472, Control_c, 5, 11, 121
16, 115492, Note_on_c, 5, 65, 0
16, 115492, Note_on_c, 5, 60, 0
16, 115492, Note_on_c, 5, 56, 0
16, 115500, Note_on_c, 5, 55, 82
16, 115500, Note_on_c, 5, 60, 82
16, 115500, Note_on_c, 5, 63, 82
16, 115517, Control_c, 5, 11, 120
16, 115562, Control_c, 5, 11, 119
16, 115608, Control_c, 5, 11, 118
16, 115653, Control_c, 5, 11, 117
16, 115698, Control_c, 5, 11, 116
16, 115744, Control_c, 5, 11, 115
16, 115789, Control_c, 5, 11, 114
16, 115834, Control_c, 5, 11, 113
16, 115852, Note_on_c, 5, 63, 0
16, 115852, Note_on_c, 5, 60, 0
16, 115852, Note_on_c, 5, 55, 0
16, 115860, Note_on_c, 5, 56, 82
16, 115860, Note_on_c, 5, 65, 82
16, 115860, Note_on_c, 5, 61, 82
16, 115880, Control_c, 5, 11, 112
16, 115925, Control_c, 5, 11, 111
16, 115970, Control_c, 5, 11, 110
16, 115972, Note_on_c, 5, 61, 0
16, 115972, Note_on_c, 5, 65, 0
16, 115972, Note_on_c, 5, 56, 0
16, 115980, Note_on_c, 5, 65, 82
16, 115980, Note_on_c, 5, 61, 82
16, 115980, Note_on_c, 5, 56, 82
16, 116016, Control_c, 5, 11, 109
16, 116032, Note_on_c, 5, 56, 0
16, 116032, Note_on_c, 5, 61, 0
16, 116032, Note_on_c, 5, 65, 0
16, 116061, Control_c, 5, 11, 108
16, 116100, Note_on_c, 5, 60, 82
16, 116100, Note_on_c, 5, 63, 82
16, 116100, Note_on_c, 5, 67, 82
16, 116106, Control_c, 5, 11, 107
16, 116152, Control_c, 5, 11, 106
16, 116197, Control_c, 5, 11, 105
16, 116242, Control_c, 5, 11, 104
16, 116288, Control_c, 5, 11, 103
16, 116333, Control_c, 5, 11, 102
16, 116379, Control_c, 5, 11, 101
16, 116424, Control_c, 5, 11, 100
16, 116469, Control_c, 5, 11, 99
16, 116515, Control_c, 5, 11, 98
16, 116560, Control_c, 5, 11, 97
16, 116605, Control_c, 5, 11, 96
16, 116632, Note_on_c, 5, 67, 0
16, 116632, Note_on_c, 5, 63, 0
16, 116632, Note_on_c, 5, 60, 0
16, 116640, Note_on_c, 5, 56, 82
16, 116640, Note_on_c, 5, 60, 82
16, 116640, Note_on_c, 5, 65, 82
16, 116651, Control_c, 5, 11, 95
16, 116696, Control_c, 5, 11, 94
16, 116741, Control_c, 5, 11, 93
16, 116787, Control_c, 5, 11, 92
16, 116832, Control_c, 5, 11, 91
16, 116877, Control_c, 5, 11, 90
16, 116923, Control_c, 5, 11, 89
16, 116932, Note_on_c, 5, 65, 0
16, 116932, Note_on_c, 5, 60, 0
16, 116932, Note_on_c, 5, 56, 0
16, 116940, Note_on_c, 5, 56, 82
16, 116940, Note_on_c, 5, 60, 82
16, 116940, Note_on_c, 5, 65, 82
16, 116968, Control_c, 5, 11, 88
16, 117013, Control_c, 5, 11, 87
16, 117059, Control_c, 5, 11, 86
16, 117104, Control_c, 5, 11, 85
16, 117149, Control_c, 5, 11, 84
16, 117195, Control_c, 5, 11, 83
16, 117240, Control_c, 5, 11, 82
16, 117285, Control_c, 5, 11, 81
16, 117292, Note_on_c, 5, 65, 0
16, 117292, Note_on_c, 5, 60, 0
16, 117292, Note_on_c, 5, 56, 0
16, 117300, Note_on_c, 5, 60, 82
16, 117300, Note_on_c, 5, 63, 82
16, 117300, Note_on_c, 5, 67, 82
16, 117331, Control_c, 5, 11, 80
16, 117376, Control_c, 5, 11, 79
16, 117421, Control_c, 5, 11, 78
16, 117467, Control_c, 5, 11, 77
16, 117512, Control_c, 5, 11, 76
16, 117558, Control_c, 5, 11, 75
16, 117603, Control_c, 5, 11, 74
16, 117648, Control_c, 5, 11, 73
16, 117694, Control_c, 5, 11, 72
16, 117712, Note_on_c, 5, 67, 0
16, 117712, Note_on_c, 5, 63, 0
16, 117712, Note_on_c, 5, 60, 0
16, 117720, Note_on_c, 5, 60, 82
16, 117739, Control_c, 5, 11, 71
16, 117780, Note_on_c, 5, 60, 0
16, 117780, Note_on_c, 5, 63, 82
16, 117784, Control_c, 5, 11, 70
16, 117830, Control_c, 5, 11, 69
16, 117840, Note_on_c, 5, 63, 0
16, 117840, Note_on_c, 5, 65, 82
16, 117875, Control_c, 5, 11, 68
16, 117900, Note_on_c, 5, 65, 0
16, 117900, Note_on_c, 5, 67, 82
16, 117920, Control_c, 5, 11, 67
16, 117960, Note_on_c, 5, 67, 0
16, 117960, Note_on_c, 5, 68, 82
16, 117966, Control_c, 5, 11, 66
16, 118011, Control_c, 5, 11, 65
16, 118020, Note_on_c, 5, 68, 0
16, 118020, Note_on_c, 5, 70, 82
16, 118056, Control_c, 5, 11, 64
16, 118080, Note_on_c, 5, 70, 0
16, 118080, Note_on_c, 5, 63, 82
16, 118080, Note_on_c, 5, 68, 82
16, 118080, Note_on_c, 5, 72, 82
16, 118102, Control_c, 5, 11, 63
16, 118147, Control_c, 5, 11, 62
16, 118192, Control_c, 5, 11, 61
16, 118200, Note_on_c, 5, 72, 0
16, 118200, Note_on_c, 5, 68, 0
16, 118200, Note_on_c, 5, 63, 0
16, 118200, Note_on_c, 5, 65, 82
16, 118200, Note_on_c, 5, 68, 82
16, 118200, Note_on_c, 5, 73, 82
16, 118238, Control_c, 5, 11, 60
16, 118260, Note_on_c, 5, 73, 0
16, 118260, Note_on_c, 5, 68, 0
16, 118260, Note_on_c, 5, 65, 0
16, 118283, Control_c, 5, 11, 59
16, 118320, Note_on_c, 5, 61, 82
16, 118320, Note_on_c, 5, 65, 82
16, 118320, Note_on_c, 5, 68, 82
16, 118328, Control_c, 5, 11, 58
16, 118374, Control_c, 5, 11, 57
16, 118419, Control_c, 5, 11, 56
16, 118440, Note_on_c, 5, 68, 0
16, 118440, Note_on_c, 5, 65, 0
16, 118440, Note_on_c, 5, 61, 0
16, 118440, Note_on_c, 5, 63, 82
16, 118440, Note_on_c, 5, 67, 82
16, 118440, Note_on_c, 5, 70, 82
16, 118464, Control_c, 5, 11, 55
16, 118510, Control_c, 5, 11, 54
16, 118555, Control_c, 5, 11, 53
16, 118600, Control_c, 5, 11, 52
16, 118620, Note_on_c, 5, 70, 0
16, 118620, Note_on_c, 5, 67, 0
16, 118620, Note_on_c, 5, 63, 0
16, 118620, Note_on_c, 5, 63, 82
16, 118620, Note_on_c, 5, 67, 82
16, 118620, Note_on_c, 5, 70, 82
16, 118646, Control_c, 5, 11, 51
16, 118691, Control_c, 5, 11, 50
16, 118737, Control_c, 5, 11, 49
16, 118740, Note_on_c, 5, 70, 0
16, 118740, Note_on_c, 5, 67, 0
16, 118740, Note_on_c, 5, 63, 0
16, 118740, Note_on_c, 5, 63, 82
16, 118740, Note_on_c, 5, 67, 82
16, 118740, Note_on_c, 5, 72, 82
16, 118782, Control_c, 5, 11, 48
16, 118827, Control_c, 5, 11, 47
16, 118860, Note_on_c, 5, 72, 0
16, 118860, Note_on_c, 5, 67, 0
16, 118860, Note_on_c, 5, 63, 0
16, 118860, Note_on_c, 5, 67, 82
16, 118860, Note_on_c, 5, 70, 82
16, 118860, Note_on_c, 5, 75, 82
16, 118873, Control_c, 5, 11, 46
16, 118918, Control_c, 5, 11, 45
16, 118920, Note_on_c, 5, 75, 0
16, 118920, Note_on_c, 5, 70, 0
16, 118920, Note_on_c, 5, 67, 0
16, 118963, Control_c, 5, 11, 44
16, 118980, Note_on_c, 5, 60, 82
16, 118980, Note_on_c, 5, 65, 82
16, 118980, Note_on_c, 5, 68, 82
16, 119009, Control_c, 5, 11, 43
16, 119054, Control_c, 5, 11, 42
16, 119099, Control_c, 5, 11, 41
16, 119145, Control_c, 5, 11, 40
16, 119190, Control_c, 5, 11, 39
16, 119235, Control_c, 5, 11, 38
16, 119281, Control_c, 5, 11, 37
16, 119326, Control_c, 5, 11, 36
16, 119371, Control_c, 5, 11, 35
16, 119400, Note_on_c, 5, 56, 82
16, 119400, Note_on_c, 5, 60, 82
16, 119400, Note_on_c, 5, 65, 82
16, 119417, Control_c, 5, 11, 34
16, 119452, Note_on_c, 5, 65, 0
16, 119452, Note_on_c, 5, 56, 0
16, 119452, Note_on_c, 5, 60, 0
16, 119460, Note_on_c, 5, 56, 82
16, 119460, Note_on_c, 5, 60, 82
16, 119460, Note_on_c, 5, 65, 82
16, 119462, Control_c, 5, 11, 33
16, 119507, Control_c, 5, 11, 32
16, 119512, Note_on_c, 5, 65, 0
16, 119512, Note_on_c, 5, 56, 0
16, 119512, Note_on_c, 5, 60, 0
16, 119520, Note_on_c, 5, 65, 0
16, 119520, Note_on_c, 5, 60, 0
16, 119520, Note_on_c, 5, 68, 0
16, 119520, Note_on_c, 5, 56, 82
16, 119520, Note_on_c, 5, 61, 82
16, 119520, Note_on_c, 5, 65, 82
16, 119553, Control_c, 5, 11, 31
16, 119598, Control_c, 5, 11, 30
16, 119643, Control_c, 5, 11, 29
16, 119689, Control_c, 5, 11, 28
16, 119734, Control_c, 5, 11, 27
16, 119752, Note_on_c, 5, 65, 0
16, 119752, Note_on_c, 5, 61, 0
16, 119752, Note_on_c, 5, 56, 0
16, 119760, Note_on_c, 5, 56, 82
16, 119760, Note_on_c, 5, 61, 82
16, 119760, Note_on_c, 5, 65, 82
16, 119779, Control_c, 5, 11, 26
16, 119812, Note_on_c, 5, 65, 0
16, 119812, Note_on_c, 5, 61, 0
16, 119812, Note_on_c, 5, 56, 0
16, 119820, Note_on_c, 5, 56, 82
16, 119820, Note_on_c, 5, 61, 82
16, 119820, Note_on_c, 5, 65, 82
16, 119825, Control_c, 5, 11, 25
16, 119870, Control_c, 5, 11, 24
16, 119872, Note_on_c, 5, 65, 0
16, 119872, Note_on_c, 5, 61, 0
16, 119872, Note_on_c, 5, 56, 0
16, 119880, Note_on_c, 5, 58, 82
16, 119880, Note_on_c, 5, 63, 82
16, 119880, Note_on_c, 5, 67, 82
16, 119916, Control_c, 5, 11, 23
16, 119961, Control_c, 5, 11, 22
16, 120006, Control_c, 5, 11, 21
16, 120052, Control_c, 5, 11, 20
16, 120097, Control_c, 5, 11, 19
16, 120142, Control_c, 5, 11, 18
16, 120188, Control_c, 5, 11, 17
16, 120232, Note_on_c, 5, 67, 0
16, 120232, Note_on_c, 5, 63, 0
16, 120232, Note_on_c, 5, 58, 0
16, 120233, Control_c, 5, 11, 16
16, 120240, Note_on_c, 5, 56, 82
16, 120240, Note_on_c, 5, 64, 82
16, 120240, Note_on_c, 5, 61, 82
16, 120278, Control_c, 5, 11, 15
16, 120324, Control_c, 5, 11, 14
16, 120352, Note_on_c, 5, 61, 0
16, 120352, Note_on_c, 5, 64, 0
16, 120352, Note_on_c, 5, 56, 0
16, 120360, Note_on_c, 5, 56, 82
16, 120360, Note_on_c, 5, 64, 82
16, 120360, Note_on_c, 5, 61, 82
16, 120369, Control_c, 5, 11, 13
16, 120414, Control_c, 5, 11, 12
16, 120460, Control_c, 5, 11, 11
16, 120472, Note_on_c, 5, 61, 0
16, 120472, Note_on_c, 5, 64, 0
16, 120472, Note_on_c, 5, 56, 0
16, 120480, Note_on_c, 5, 56, 82
16, 120480, Note_on_c, 5, 64, 82
16, 120480, Note_on_c, 5, 61, 82
16, 120505, Control_c, 5, 11, 10
16, 120550, Control_c, 5, 11, 9
16, 120592, Note_on_c, 5, 61, 0
16, 120592, Note_on_c, 5, 64, 0
16, 120592, Note_on_c, 5, 56, 0
16, 120596, Control_c, 5, 11, 8
16, 120600, Note_on_c, 5, 65, 82
16, 120600, Note_on_c, 5, 64, 82
16, 120600, Note_on_c, 5, 60, 82
16, 120641, Control_c, 5, 11, 7
16, 120686, Control_c, 5, 11, 6
16, 120712, Note_on_c, 5, 60, 0
16, 120712, Note_on_c, 5, 64, 0
16, 120712, Note_on_c, 5, 65, 0
16, 120720, Note_on_c, 5, 65, 82
16, 120720, Note_on_c, 5, 64, 82
16, 120720, Note_on_c, 5, 60, 82
16, 120732, Control_c, 5, 11, 5
16, 120777, Control_c, 5, 11, 4
16, 120822, Control_c, 5, 11, 3
16, 120832, Note_on_c, 5, 60, 0
16, 120832, Note_on_c, 5, 64, 0
16, 120832, Note_on_c, 5, 65, 0
16, 120840, Note_on_c, 5, 65, 82
16, 120840, Note_on_c, 5, 64, 82
16, 120840, Note_on_c, 5, 60, 82
16, 120868, Control_c, 5, 11, 2
16, 120913, Control_c, 5, 11, 1
16, 120952, Note_on_c, 5, 60, 0
16, 120952, Note_on_c, 5, 64, 0
16, 120952, Note_on_c, 5, 65, 0
16, 120959, Control_c, 5, 11, 0
16, 121401, Control_c, 5, 121, 0
16, 121401, End_track
17, 0, Start_track
17, 0, MIDI_port, 0
17, 0, Title_t, "Brass 1"
17, 180, Control_c, 6, 121, 0
17, 181, Control_c, 6, 0, 0
17, 181, Control_c, 6, 32, 0
17, 181, Program_c, 6, 61
17, 182, Control_c, 6, 7, 64
17, 183, Control_c, 6, 10, 78
17, 184, Control_c, 6, 93, 127
17, 185, Control_c, 6, 91, 24
17, 186, Control_c, 6, 99, 1
17, 187, Control_c, 6, 98, 32
17, 188, Control_c, 6, 6, 66
17, 189, Control_c, 6, 101, 127
17, 190, Control_c, 6, 100, 127
17, 30300, Note_on_c, 6, 57, 100
17, 30360, Note_on_c, 6, 57, 0
17, 30360, Note_on_c, 6, 58, 100
17, 30420, Note_on_c, 6, 58, 0
17, 30420, Note_on_c, 6, 62, 100
17, 30480, Note_on_c, 6, 62, 0
17, 30480, Note_on_c, 6, 58, 100
17, 30540, Note_on_c, 6, 58, 0
17, 30540, Note_on_c, 6, 60, 100
17, 30600, Note_on_c, 6, 60, 0
17, 30660, Note_on_c, 6, 60, 100
17, 30720, Note_on_c, 6, 60, 0
17, 30720, Note_on_c, 6, 62, 100
17, 30780, Note_on_c, 6, 62, 0
17, 30780, Note_on_c, 6, 67, 100
17, 30840, Note_on_c, 6, 67, 0
17, 30840, Note_on_c, 6, 62, 100
17, 30900, Note_on_c, 6, 62, 0
17, 30900, Note_on_c, 6, 65, 100
17, 30960, Note_on_c, 6, 65, 0
17, 31020, Note_on_c, 6, 65, 100
17, 31080, Note_on_c, 6, 65, 0
17, 31080, Note_on_c, 6, 67, 100
17, 31140, Note_on_c, 6, 67, 0
17, 31140, Note_on_c, 6, 70, 100
17, 31200, Note_on_c, 6, 70, 0
17, 31200, Note_on_c, 6, 65, 100
17, 31260, Note_on_c, 6, 65, 0
17, 31260, Note_on_c, 6, 68, 100
17, 31320, Note_on_c, 6, 68, 0
17, 31380, Note_on_c, 6, 51, 100
17, 31380, Note_on_c, 6, 63, 100
17, 31380, Note_on_c, 6, 75, 100
17, 31440, Note_on_c, 6, 75, 0
17, 31440, Note_on_c, 6, 63, 0
17, 31440, Note_on_c, 6, 51, 0
17, 31440, Note_on_c, 6, 53, 108
17, 31440, Note_on_c, 6, 65, 108
17, 31440, Note_on_c, 6, 77, 108
17, 31500, Note_on_c, 6, 77, 0
17, 31500, Note_on_c, 6, 65, 0
17, 31500, Note_on_c, 6, 53, 0
17, 31500, Note_on_c, 6, 56, 110
17, 31500, Note_on_c, 6, 68, 110
17, 31500, Note_on_c, 6, 80, 110
17, 31560, Note_on_c, 6, 80, 0
17, 31560, Note_on_c, 6, 68, 0
17, 31560, Note_on_c, 6, 56, 0
17, 31560, Note_on_c, 6, 58, 116
17, 31560, Note_on_c, 6, 70, 116
17, 31560, Note_on_c, 6, 82, 116
17, 31620, Note_on_c, 6, 82, 0
17, 31620, Note_on_c, 6, 70, 0
17, 31620, Note_on_c, 6, 58, 0
17, 31620, Note_on_c, 6, 60, 127
17, 31620, Note_on_c, 6, 72, 127
17, 31620, Note_on_c, 6, 84, 127
17, 31680, Note_on_c, 6, 84, 0
17, 31680, Note_on_c, 6, 72, 0
17, 31680, Note_on_c, 6, 60, 0
17, 32100, Note_on_c, 6, 51, 100
17, 32100, Note_on_c, 6, 63, 100
17, 32160, Note_on_c, 6, 63, 0
17, 32160, Note_on_c, 6, 51, 0
17, 32160, Note_on_c, 6, 53, 100
17, 32160, Note_on_c, 6, 65, 100
17, 32220, Note_on_c, 6, 65, 0
17, 32220, Note_on_c, 6, 53, 0
17, 32340, Note_on_c, 6, 58, 100
17, 32340, Note_on_c, 6, 61, 100
17, 32340, Note_on_c, 6, 65, 100
17, 32460, Note_on_c, 6, 65, 0
17, 32460, Note_on_c, 6, 61, 0
17, 32460, Note_on_c, 6, 58, 0
17, 32460, Note_on_c, 6, 58, 100
17, 32460, Note_on_c, 6, 61, 100
17, 32460, Note_on_c, 6, 65, 100
17, 32520, Note_on_c, 6, 65, 0
17, 32520, Note_on_c, 6, 61, 0
17, 32520, Note_on_c, 6, 58, 0
17, 32580, Note_on_c, 6, 60, 100
17, 32580, Note_on_c, 6, 63, 100
17, 32580, Note_on_c, 6, 67, 100
17, 32880, Note_on_c, 6, 67, 0
17, 32880, Note_on_c, 6, 63, 0
17, 32880, Note_on_c, 6, 60, 0
17, 32880, Note_on_c, 6, 60, 84
17, 32880, Note_on_c, 6, 63, 84
17, 32880, Note_on_c, 6, 67, 84
17, 32940, Note_on_c, 6, 67, 0
17, 32940, Note_on_c, 6, 63, 0
17, 32940, Note_on_c, 6, 60, 0
17, 34260, Note_on_c, 6, 63, 100
17, 34320, Note_on_c, 6, 63, 0
17, 34320, Note_on_c, 6, 65, 100
17, 34380, Note_on_c, 6, 65, 0
17, 34380, Note_on_c, 6, 67, 100
17, 34440, Note_on_c, 6, 67, 0
17, 34440, Note_on_c, 6, 68, 100
17, 34500, Note_on_c, 6, 68, 0
17, 34500, Note_on_c, 6, 70, 100
17, 34560, Note_on_c, 6, 70, 0
17, 34560, Note_on_c, 6, 61, 100
17, 34560, Note_on_c, 6, 65, 100
17, 34560, Note_on_c, 6, 68, 100
17, 34680, Note_on_c, 6, 68, 0
17, 34680, Note_on_c, 6, 65, 0
17, 34680, Note_on_c, 6, 61, 0
17, 34680, Note_on_c, 6, 61, 100
17, 34680, Note_on_c, 6, 65, 100
17, 34680, Note_on_c, 6, 68, 100
17, 34740, Note_on_c, 6, 68, 0
17, 34740, Note_on_c, 6, 65, 0
17, 34740, Note_on_c, 6, 61, 0
17, 34800, Note_on_c, 6, 61, 100
17, 34800, Note_on_c, 6, 65, 100
17, 34800, Note_on_c, 6, 68, 100
17, 34920, Note_on_c, 6, 68, 0
17, 34920, Note_on_c, 6, 65, 0
17, 34920, Note_on_c, 6, 61, 0
17, 34920, Note_on_c, 6, 67, 100
17, 34920, Note_on_c, 6, 63, 100
17, 34920, Note_on_c, 6, 58, 100
17, 35085, Note_on_c, 6, 58, 0
17, 35085, Note_on_c, 6, 63, 0
17, 35085, Note_on_c, 6, 67, 0
17, 35100, Note_on_c, 6, 67, 100
17, 35100, Note_on_c, 6, 63, 100
17, 35100, Note_on_c, 6, 58, 100
17, 35220, Note_on_c, 6, 58, 0
17, 35220, Note_on_c, 6, 63, 0
17, 35220, Note_on_c, 6, 67, 0
17, 35220, Note_on_c, 6, 55, 100
17, 35220, Note_on_c, 6, 60, 100
17, 35220, Note_on_c, 6, 63, 100
17, 35340, Note_on_c, 6, 55, 100
17, 35340, Note_on_c, 6, 60, 100
17, 35340, Note_on_c, 6, 63, 100
17, 35400, Note_on_c, 6, 63, 0
17, 35400, Note_on_c, 6, 60, 0
17, 35400, Note_on_c, 6, 63, 0
17, 35400, Note_on_c, 6, 55, 0
17, 35400, Note_on_c, 6, 60, 0
17, 35400, Note_on_c, 6, 55, 0
17, 35460, Note_on_c, 6, 56, 100
17, 35460, Note_on_c, 6, 60, 100
17, 35460, Note_on_c, 6, 63, 100
17, 35820, Note_on_c, 6, 63, 0
17, 35820, Note_on_c, 6, 60, 0
17, 35820, Note_on_c, 6, 56, 0
17, 55020, Note_on_c, 6, 68, 100
17, 55200, Note_on_c, 6, 68, 0
17, 55200, Note_on_c, 6, 65, 100
17, 55260, Note_on_c, 6, 65, 0
17, 55260, Note_on_c, 6, 68, 100
17, 55320, Note_on_c, 6, 68, 0
17, 55320, Note_on_c, 6, 65, 100
17, 55380, Note_on_c, 6, 65, 0
17, 55380, Note_on_c, 6, 68, 100
17, 55500, Note_on_c, 6, 68, 0
17, 55500, Note_on_c, 6, 70, 100
17, 55560, Note_on_c, 6, 70, 0
17, 55620, Note_on_c, 6, 72, 100
17, 55800, Note_on_c, 6, 72, 0
17, 55800, Note_on_c, 6, 63, 100
17, 55920, Note_on_c, 6, 63, 0
17, 55920, Note_on_c, 6, 75, 100
17, 55980, Note_on_c, 6, 75, 0
17, 56880, Note_on_c, 6, 56, 100
17, 56940, Note_on_c, 6, 56, 0
17, 56940, Note_on_c, 6, 60, 100
17, 57000, Note_on_c, 6, 60, 0
17, 57060, Note_on_c, 6, 58, 100
17, 57120, Note_on_c, 6, 58, 0
17, 57120, Note_on_c, 6, 56, 100
17, 57180, Note_on_c, 6, 56, 0
17, 57240, Note_on_c, 6, 60, 100
17, 57300, Note_on_c, 6, 60, 0
17, 57300, Note_on_c, 6, 63, 100
17, 57360, Note_on_c, 6, 63, 0
17, 57360, Note_on_c, 6, 65, 100
17, 57420, Note_on_c, 6, 65, 0
17, 57420, Note_on_c, 6, 67, 100
17, 57480, Note_on_c, 6, 67, 0
17, 57480, Note_on_c, 6, 68, 100
17, 57540, Note_on_c, 6, 68, 0
17, 57540, Note_on_c, 6, 70, 100
17, 57600, Note_on_c, 6, 70, 0
17, 57600, Note_on_c, 6, 63, 100
17, 57600, Note_on_c, 6, 68, 100
17, 57600, Note_on_c, 6, 72, 100
17, 57720, Note_on_c, 6, 72, 0
17, 57720, Note_on_c, 6, 68, 0
17, 57720, Note_on_c, 6, 63, 0
17, 57720, Note_on_c, 6, 65, 100
17, 57720, Note_on_c, 6, 68, 100
17, 57720, Note_on_c, 6, 73, 100
17, 57780, Note_on_c, 6, 73, 0
17, 57780, Note_on_c, 6, 68, 0
17, 57780, Note_on_c, 6, 65, 0
17, 57840, Note_on_c, 6, 61, 100
17, 57840, Note_on_c, 6, 65, 100
17, 57840, Note_on_c, 6, 68, 100
17, 57900, Note_on_c, 6, 68, 0
17, 57900, Note_on_c, 6, 65, 0
17, 57900, Note_on_c, 6, 61, 0
17, 57960, Note_on_c, 6, 63, 100
17, 57960, Note_on_c, 6, 67, 100
17, 57960, Note_on_c, 6, 70, 100
17, 58140, Note_on_c, 6, 70, 0
17, 58140, Note_on_c, 6, 67, 0
17, 58140, Note_on_c, 6, 63, 0
17, 58140, Note_on_c, 6, 58, 100
17, 58140, Note_on_c, 6, 70, 100
17, 58260, Note_on_c, 6, 70, 0
17, 58260, Note_on_c, 6, 58, 0
17, 58260, Note_on_c, 6, 60, 100
17, 58260, Note_on_c, 6, 72, 100
17, 58380, Note_on_c, 6, 72, 0
17, 58380, Note_on_c, 6, 60, 0
17, 58380, Note_on_c, 6, 63, 100
17, 58380, Note_on_c, 6, 75, 100
17, 58440, Note_on_c, 6, 75, 0
17, 58440, Note_on_c, 6, 63, 0
17, 58500, Note_on_c, 6, 56, 100
17, 58500, Note_on_c, 6, 68, 100
17, 59040, Note_on_c, 6, 68, 0
17, 59040, Note_on_c, 6, 56, 0
17, 60300, Note_on_c, 6, 64, 100
17, 60300, Note_on_c, 6, 67, 100
17, 60300, Note_on_c, 6, 72, 100
17, 60420, Note_on_c, 6, 72, 0
17, 60420, Note_on_c, 6, 67, 0
17, 60420, Note_on_c, 6, 64, 0
17, 60420, Note_on_c, 6, 64, 100
17, 60420, Note_on_c, 6, 67, 100
17, 60420, Note_on_c, 6, 72, 100
17, 60480, Note_on_c, 6, 72, 0
17, 60480, Note_on_c, 6, 67, 0
17, 60480, Note_on_c, 6, 64, 0
17, 68820, Note_on_c, 6, 53, 100
17, 68820, Note_on_c, 6, 65, 100
17, 68880, Note_on_c, 6, 65, 0
17, 68880, Note_on_c, 6, 53, 0
17, 68940, Note_on_c, 6, 57, 100
17, 68940, Note_on_c, 6, 69, 100
17, 69000, Note_on_c, 6, 69, 0
17, 69000, Note_on_c, 6, 57, 0
17, 69000, Note_on_c, 6, 60, 100
17, 69000, Note_on_c, 6, 72, 100
17, 69060, Note_on_c, 6, 72, 0
17, 69060, Note_on_c, 6, 60, 0
17, 69780, Note_on_c, 6, 61, 100
17, 69780, Note_on_c, 6, 65, 100
17, 69780, Note_on_c, 6, 68, 100
17, 69900, Note_on_c, 6, 68, 0
17, 69900, Note_on_c, 6, 65, 0
17, 69900, Note_on_c, 6, 61, 0
17, 69900, Note_on_c, 6, 61, 100
17, 69900, Note_on_c, 6, 65, 100
17, 69900, Note_on_c, 6, 68, 100
17, 69960, Note_on_c, 6, 68, 0
17, 69960, Note_on_c, 6, 65, 0
17, 69960, Note_on_c, 6, 61, 0
17, 70020, Control_c, 6, 11, 90
17, 70020, Note_on_c, 6, 63, 100
17, 70020, Note_on_c, 6, 67, 100
17, 70020, Note_on_c, 6, 72, 100
17, 70029, Control_c, 6, 11, 91
17, 70039, Control_c, 6, 11, 92
17, 70049, Control_c, 6, 11, 93
17, 70058, Control_c, 6, 11, 94
17, 70068, Control_c, 6, 11, 95
17, 70078, Control_c, 6, 11, 96
17, 70088, Control_c, 6, 11, 97
17, 70097, Control_c, 6, 11, 98
17, 70107, Control_c, 6, 11, 99
17, 70117, Control_c, 6, 11, 100
17, 70127, Control_c, 6, 11, 101
17, 70136, Control_c, 6, 11, 102
17, 70146, Control_c, 6, 11, 103
17, 70156, Control_c, 6, 11, 104
17, 70165, Control_c, 6, 11, 105
17, 70175, Control_c, 6, 11, 106
17, 70185, Control_c, 6, 11, 107
17, 70195, Control_c, 6, 11, 108
17, 70204, Control_c, 6, 11, 109
17, 70214, Control_c, 6, 11, 110
17, 70224, Control_c, 6, 11, 111
17, 70234, Control_c, 6, 11, 112
17, 70243, Control_c, 6, 11, 113
17, 70253, Control_c, 6, 11, 114
17, 70263, Control_c, 6, 11, 115
17, 70272, Control_c, 6, 11, 116
17, 70282, Control_c, 6, 11, 117
17, 70292, Control_c, 6, 11, 118
17, 70302, Control_c, 6, 11, 119
17, 70311, Control_c, 6, 11, 120
17, 70321, Control_c, 6, 11, 121
17, 70331, Control_c, 6, 11, 122
17, 70341, Control_c, 6, 11, 123
17, 70350, Control_c, 6, 11, 124
17, 70360, Control_c, 6, 11, 125
17, 70370, Control_c, 6, 11, 126
17, 70380, Note_on_c, 6, 72, 0
17, 70380, Note_on_c, 6, 67, 0
17, 70380, Note_on_c, 6, 63, 0
17, 70380, Control_c, 6, 11, 127
17, 70440, Note_on_c, 6, 53, 100
17, 70440, Note_on_c, 6, 58, 100
17, 70440, Note_on_c, 6, 63, 100
17, 70500, Note_on_c, 6, 63, 0
17, 70500, Note_on_c, 6, 58, 0
17, 70500, Note_on_c, 6, 53, 0
17, 70560, Note_on_c, 6, 60, 100
17, 70560, Note_on_c, 6, 65, 100
17, 70560, Note_on_c, 6, 68, 100
17, 70860, Note_on_c, 6, 68, 0
17, 70860, Note_on_c, 6, 65, 0
17, 70860, Note_on_c, 6, 60, 0
17, 70860, Note_on_c, 6, 53, 100
17, 70860, Note_on_c, 6, 58, 100
17, 70860, Note_on_c, 6, 63, 100
17, 71040, Note_on_c, 6, 63, 0
17, 71040, Note_on_c, 6, 58, 0
17, 71040, Note_on_c, 6, 53, 0
17, 71040, Note_on_c, 6, 58, 100
17, 71040, Note_on_c, 6, 63, 100
17, 71040, Note_on_c, 6, 68, 100
17, 71220, Note_on_c, 6, 68, 0
17, 71220, Note_on_c, 6, 63, 0
17, 71220, Note_on_c, 6, 58, 0
17, 71220, Note_on_c, 6, 58, 100
17, 71220, Note_on_c, 6, 63, 100
17, 71220, Note_on_c, 6, 67, 100
17, 71580, Note_on_c, 6, 67, 0
17, 71580, Note_on_c, 6, 63, 0
17, 71580, Note_on_c, 6, 58, 0
17, 71580, Note_on_c, 6, 65, 100
17, 71640, Note_on_c, 6, 65, 0
17, 71640, Note_on_c, 6, 63, 100
17, 71760, Note_on_c, 6, 63, 0
17, 71760, Note_on_c, 6, 65, 100
17, 71820, Note_on_c, 6, 65, 0
17, 71820, Note_on_c, 6, 67, 100
17, 71880, Note_on_c, 6, 67, 0
17, 71880, Note_on_c, 6, 68, 100
17, 71940, Note_on_c, 6, 68, 0
17, 71940, Note_on_c, 6, 70, 100
17, 72000, Note_on_c, 6, 70, 0
17, 72000, Note_on_c, 6, 72, 100
17, 72120, Note_on_c, 6, 72, 0
17, 72120, Note_on_c, 6, 73, 100
17, 72180, Note_on_c, 6, 73, 0
17, 72240, Note_on_c, 6, 68, 100
17, 72300, Note_on_c, 6, 68, 0
17, 72360, Note_on_c, 6, 70, 100
17, 72540, Note_on_c, 6, 70, 0
17, 72540, Note_on_c, 6, 70, 100
17, 72660, Note_on_c, 6, 70, 0
17, 72660, Note_on_c, 6, 72, 100
17, 72780, Note_on_c, 6, 72, 0
17, 72780, Note_on_c, 6, 75, 100
17, 72840, Note_on_c, 6, 75, 0
17, 72900, Note_on_c, 6, 68, 100
17, 73200, Note_on_c, 6, 68, 0
17, 73200, Note_on_c, 6, 56, 100
17, 73200, Note_on_c, 6, 60, 100
17, 73200, Note_on_c, 6, 63, 100
17, 73260, Note_on_c, 6, 63, 0
17, 73260, Note_on_c, 6, 60, 0
17, 73260, Note_on_c, 6, 56, 0
17, 73320, Note_on_c, 6, 56, 100
17, 73320, Note_on_c, 6, 60, 100
17, 73320, Note_on_c, 6, 63, 100
17, 73380, Note_on_c, 6, 63, 0
17, 73380, Note_on_c, 6, 60, 0
17, 73380, Note_on_c, 6, 56, 0
17, 73440, Note_on_c, 6, 56, 100
17, 73440, Note_on_c, 6, 61, 100
17, 73440, Note_on_c, 6, 65, 100
17, 73680, Note_on_c, 6, 65, 0
17, 73680, Note_on_c, 6, 61, 0
17, 73680, Note_on_c, 6, 56, 0
17, 73680, Note_on_c, 6, 56, 100
17, 73680, Note_on_c, 6, 61, 100
17, 73680, Note_on_c, 6, 65, 100
17, 73740, Note_on_c, 6, 65, 0
17, 73740, Note_on_c, 6, 61, 0
17, 73740, Note_on_c, 6, 56, 0
17, 73800, Note_on_c, 6, 63, 100
17, 73920, Note_on_c, 6, 63, 0
17, 73920, Note_on_c, 6, 65, 100
17, 73980, Note_on_c, 6, 65, 0
17, 73980, Note_on_c, 6, 68, 100
17, 74040, Note_on_c, 6, 68, 0
17, 74040, Note_on_c, 6, 70, 100
17, 74100, Note_on_c, 6, 70, 0
17, 74100, Note_on_c, 6, 68, 100
17, 74280, Note_on_c, 6, 68, 0
17, 74280, Note_on_c, 6, 68, 100
17, 74340, Note_on_c, 6, 68, 0
17, 74400, Note_on_c, 6, 70, 106
17, 74460, Note_on_c, 6, 70, 0
17, 74520, Note_on_c, 6, 72, 112
17, 74580, Note_on_c, 6, 72, 0
17, 85020, Note_on_c, 6, 57, 100
17, 85080, Note_on_c, 6, 57, 0
17, 85080, Note_on_c, 6, 58, 100
17, 85140, Note_on_c, 6, 58, 0
17, 85140, Note_on_c, 6, 62, 100
17, 85200, Note_on_c, 6, 62, 0
17, 85200, Note_on_c, 6, 58, 100
17, 85260, Note_on_c, 6, 58, 0
17, 85260, Note_on_c, 6, 60, 100
17, 85320, Note_on_c, 6, 60, 0
17, 85380, Note_on_c, 6, 60, 100
17, 85440, Note_on_c, 6, 60, 0
17, 85440, Note_on_c, 6, 62, 100
17, 85500, Note_on_c, 6, 62, 0
17, 85500, Note_on_c, 6, 67, 100
17, 85560, Note_on_c, 6, 67, 0
17, 85560, Note_on_c, 6, 62, 100
17, 85620, Note_on_c, 6, 62, 0
17, 85620, Note_on_c, 6, 65, 100
17, 85680, Note_on_c, 6, 65, 0
17, 85740, Note_on_c, 6, 65, 100
17, 85800, Note_on_c, 6, 65, 0
17, 85800, Note_on_c, 6, 67, 100
17, 85860, Note_on_c, 6, 67, 0
17, 85860, Note_on_c, 6, 70, 100
17, 85920, Note_on_c, 6, 70, 0
17, 85920, Note_on_c, 6, 65, 100
17, 85980, Note_on_c, 6, 65, 0
17, 85980, Note_on_c, 6, 68, 100
17, 86040, Note_on_c, 6, 68, 0
17, 86100, Note_on_c, 6, 51, 100
17, 86100, Note_on_c, 6, 63, 100
17, 86100, Note_on_c, 6, 75, 100
17, 86160, Note_on_c, 6, 75, 0
17, 86160, Note_on_c, 6, 63, 0
17, 86160, Note_on_c, 6, 51, 0
17, 86160, Note_on_c, 6, 53, 108
17, 86160, Note_on_c, 6, 65, 108
17, 86160, Note_on_c, 6, 77, 108
17, 86220, Note_on_c, 6, 77, 0
17, 86220, Note_on_c, 6, 65, 0
17, 86220, Note_on_c, 6, 53, 0
17, 86220, Note_on_c, 6, 56, 110
17, 86220, Note_on_c, 6, 68, 110
17, 86220, Note_on_c, 6, 80, 110
17, 86280, Note_on_c, 6, 80, 0
17, 86280, Note_on_c, 6, 68, 0
17, 86280, Note_on_c, 6, 56, 0
17, 86280, Note_on_c, 6, 58, 116
17, 86280, Note_on_c, 6, 70, 116
17, 86280, Note_on_c, 6, 82, 116
17, 86340, Note_on_c, 6, 82, 0
17, 86340, Note_on_c, 6, 70, 0
17, 86340, Note_on_c, 6, 58, 0
17, 86340, Note_on_c, 6, 60, 127
17, 86340, Note_on_c, 6, 72, 127
17, 86340, Note_on_c, 6, 84, 127
17, 86400, Note_on_c, 6, 84, 0
17, 86400, Note_on_c, 6, 72, 0
17, 86400, Note_on_c, 6, 60, 0
17, 86820, Note_on_c, 6, 51, 100
17, 86820, Note_on_c, 6, 63, 100
17, 86880, Note_on_c, 6, 63, 0
17, 86880, Note_on_c, 6, 51, 0
17, 86880, Note_on_c, 6, 53, 100
17, 86880, Note_on_c, 6, 65, 100
17, 86940, Note_on_c, 6, 65, 0
17, 86940, Note_on_c, 6, 53, 0
17, 87060, Note_on_c, 6, 58, 100
17, 87060, Note_on_c, 6, 61, 100
17, 87060, Note_on_c, 6, 65, 100
17, 87180, Note_on_c, 6, 65, 0
17, 87180, Note_on_c, 6, 61, 0
17, 87180, Note_on_c, 6, 58, 0
17, 87180, Note_on_c, 6, 58, 100
17, 87180, Note_on_c, 6, 61, 100
17, 87180, Note_on_c, 6, 65, 100
17, 87240, Note_on_c, 6, 65, 0
17, 87240, Note_on_c, 6, 61, 0
17, 87240, Note_on_c, 6, 58, 0
17, 87300, Note_on_c, 6, 60, 100
17, 87300, Note_on_c, 6, 63, 100
17, 87300, Note_on_c, 6, 67, 100
17, 87600, Note_on_c, 6, 67, 0
17, 87600, Note_on_c, 6, 63, 0
17, 87600, Note_on_c, 6, 60, 0
17, 87600, Note_on_c, 6, 60, 84
17, 87600, Note_on_c, 6, 63, 84
17, 87600, Note_on_c, 6, 67, 84
17, 87660, Note_on_c, 6, 67, 0
17, 87660, Note_on_c, 6, 63, 0
17, 87660, Note_on_c, 6, 60, 0
17, 88980, Note_on_c, 6, 63, 100
17, 89040, Note_on_c, 6, 63, 0
17, 89040, Note_on_c, 6, 65, 100
17, 89100, Note_on_c, 6, 65, 0
17, 89100, Note_on_c, 6, 67, 100
17, 89160, Note_on_c, 6, 67, 0
17, 89160, Note_on_c, 6, 68, 100
17, 89220, Note_on_c, 6, 68, 0
17, 89220, Note_on_c, 6, 70, 100
17, 89280, Note_on_c, 6, 70, 0
17, 89280, Note_on_c, 6, 61, 100
17, 89280, Note_on_c, 6, 65, 100
17, 89280, Note_on_c, 6, 68, 100
17, 89400, Note_on_c, 6, 68, 0
17, 89400, Note_on_c, 6, 65, 0
17, 89400, Note_on_c, 6, 61, 0
17, 89400, Note_on_c, 6, 61, 100
17, 89400, Note_on_c, 6, 65, 100
17, 89400, Note_on_c, 6, 68, 100
17, 89460, Note_on_c, 6, 68, 0
17, 89460, Note_on_c, 6, 65, 0
17, 89460, Note_on_c, 6, 61, 0
17, 89520, Note_on_c, 6, 61, 100
17, 89520, Note_on_c, 6, 65, 100
17, 89520, Note_on_c, 6, 68, 100
17, 89640, Note_on_c, 6, 68, 0
17, 89640, Note_on_c, 6, 65, 0
17, 89640, Note_on_c, 6, 61, 0
17, 89640, Note_on_c, 6, 67, 100
17, 89640, Note_on_c, 6, 63, 100
17, 89640, Note_on_c, 6, 58, 100
17, 89805, Note_on_c, 6, 58, 0
17, 89805, Note_on_c, 6, 63, 0
17, 89805, Note_on_c, 6, 67, 0
17, 89820, Note_on_c, 6, 67, 100
17, 89820, Note_on_c, 6, 63, 100
17, 89820, Note_on_c, 6, 58, 100
17, 89940, Note_on_c, 6, 58, 0
17, 89940, Note_on_c, 6, 63, 0
17, 89940, Note_on_c, 6, 67, 0
17, 89940, Note_on_c, 6, 55, 100
17, 89940, Note_on_c, 6, 60, 100
17, 89940, Note_on_c, 6, 63, 100
17, 90060, Note_on_c, 6, 55, 100
17, 90060, Note_on_c, 6, 60, 100
17, 90060, Note_on_c, 6, 63, 100
17, 90120, Note_on_c, 6, 63, 0
17, 90120, Note_on_c, 6, 60, 0
17, 90120, Note_on_c, 6, 63, 0
17, 90120, Note_on_c, 6, 55, 0
17, 90120, Note_on_c, 6, 60, 0
17, 90120, Note_on_c, 6, 55, 0
17, 90180, Note_on_c, 6, 56, 100
17, 90180, Note_on_c, 6, 60, 100
17, 90180, Note_on_c, 6, 63, 100
17, 90540, Note_on_c, 6, 63, 0
17, 90540, Note_on_c, 6, 60, 0
17, 90540, Note_on_c, 6, 56, 0
17, 92580, Note_on_c, 6, 51, 100
17, 92580, Note_on_c, 6, 63, 100
17, 92640, Note_on_c, 6, 63, 0
17, 92640, Note_on_c, 6, 51, 0
17, 92640, Note_on_c, 6, 53, 100
17, 92640, Note_on_c, 6, 65, 100
17, 92700, Note_on_c, 6, 65, 0
17, 92700, Note_on_c, 6, 53, 0
17, 92820, Note_on_c, 6, 58, 100
17, 92820, Note_on_c, 6, 61, 100
17, 92820, Note_on_c, 6, 65, 100
17, 92940, Note_on_c, 6, 65, 0
17, 92940, Note_on_c, 6, 61, 0
17, 92940, Note_on_c, 6, 58, 0
17, 92940, Note_on_c, 6, 58, 100
17, 92940, Note_on_c, 6, 61, 100
17, 92940, Note_on_c, 6, 65, 100
17, 93000, Note_on_c, 6, 65, 0
17, 93000, Note_on_c, 6, 61, 0
17, 93000, Note_on_c, 6, 58, 0
17, 93060, Note_on_c, 6, 60, 100
17, 93060, Note_on_c, 6, 63, 100
17, 93060, Note_on_c, 6, 67, 100
17, 93300, Note_on_c, 6, 67, 0
17, 93300, Note_on_c, 6, 63, 0
17, 93300, Note_on_c, 6, 60, 0
17, 93300, Note_on_c, 6, 60, 84
17, 93300, Note_on_c, 6, 63, 84
17, 93300, Note_on_c, 6, 67, 84
17, 93360, Note_on_c, 6, 67, 0
17, 93360, Note_on_c, 6, 63, 0
17, 93360, Note_on_c, 6, 60, 0
17, 94680, Note_on_c, 6, 60, 100
17, 94740, Note_on_c, 6, 60, 0
17, 94740, Note_on_c, 6, 63, 100
17, 94800, Note_on_c, 6, 63, 0
17, 94800, Note_on_c, 6, 65, 100
17, 94860, Note_on_c, 6, 65, 0
17, 94860, Note_on_c, 6, 67, 100
17, 94920, Note_on_c, 6, 67, 0
17, 94920, Note_on_c, 6, 68, 100
17, 94980, Note_on_c, 6, 68, 0
17, 94980, Note_on_c, 6, 70, 100
17, 95040, Note_on_c, 6, 70, 0
17, 95040, Note_on_c, 6, 63, 100
17, 95040, Note_on_c, 6, 68, 100
17, 95040, Note_on_c, 6, 72, 100
17, 95160, Note_on_c, 6, 72, 0
17, 95160, Note_on_c, 6, 68, 0
17, 95160, Note_on_c, 6, 63, 0
17, 95160, Note_on_c, 6, 65, 100
17, 95160, Note_on_c, 6, 68, 100
17, 95160, Note_on_c, 6, 73, 100
17, 95220, Note_on_c, 6, 73, 0
17, 95220, Note_on_c, 6, 68, 0
17, 95220, Note_on_c, 6, 65, 0
17, 95280, Note_on_c, 6, 61, 100
17, 95280, Note_on_c, 6, 65, 100
17, 95280, Note_on_c, 6, 68, 100
17, 95400, Note_on_c, 6, 68, 0
17, 95400, Note_on_c, 6, 65, 0
17, 95400, Note_on_c, 6, 61, 0
17, 95400, Note_on_c, 6, 63, 100
17, 95400, Note_on_c, 6, 67, 100
17, 95400, Note_on_c, 6, 70, 100
17, 95580, Note_on_c, 6, 70, 0
17, 95580, Note_on_c, 6, 67, 0
17, 95580, Note_on_c, 6, 63, 0
17, 95580, Note_on_c, 6, 63, 100
17, 95580, Note_on_c, 6, 67, 100
17, 95580, Note_on_c, 6, 70, 100
17, 95700, Note_on_c, 6, 70, 0
17, 95700, Note_on_c, 6, 67, 0
17, 95700, Note_on_c, 6, 63, 0
17, 95700, Note_on_c, 6, 63, 100
17, 95700, Note_on_c, 6, 67, 100
17, 95700, Note_on_c, 6, 72, 100
17, 95820, Note_on_c, 6, 72, 0
17, 95820, Note_on_c, 6, 67, 0
17, 95820, Note_on_c, 6, 63, 0
17, 95820, Note_on_c, 6, 67, 100
17, 95820, Note_on_c, 6, 70, 100
17, 95820, Note_on_c, 6, 75, 100
17, 95880, Note_on_c, 6, 75, 0
17, 95880, Note_on_c, 6, 70, 0
17, 95880, Note_on_c, 6, 67, 0
17, 95940, Note_on_c, 6, 60, 100
17, 95940, Note_on_c, 6, 65, 100
17, 95940, Note_on_c, 6, 68, 100
17, 96480, Note_on_c, 6, 68, 0
17, 96480, Note_on_c, 6, 65, 0
17, 96480, Note_on_c, 6, 60, 0
17, 98340, Note_on_c, 6, 51, 100
17, 98340, Note_on_c, 6, 63, 100
17, 98400, Note_on_c, 6, 63, 0
17, 98400, Note_on_c, 6, 51, 0
17, 98400, Note_on_c, 6, 53, 100
17, 98400, Note_on_c, 6, 65, 100
17, 98460, Note_on_c, 6, 65, 0
17, 98460, Note_on_c, 6, 53, 0
17, 98460, Note_on_c, 6, 56, 100
17, 98460, Note_on_c, 6, 68, 100
17, 98580, Note_on_c, 6, 68, 0
17, 98580, Note_on_c, 6, 56, 0
17, 98580, Note_on_c, 6, 56, 100
17, 98580, Note_on_c, 6, 68, 100
17, 98700, Note_on_c, 6, 68, 0
17, 98700, Note_on_c, 6, 56, 0
17, 98700, Note_on_c, 6, 58, 100
17, 98700, Note_on_c, 6, 70, 100
17, 98760, Note_on_c, 6, 70, 0
17, 98760, Note_on_c, 6, 58, 0
17, 98820, Note_on_c, 6, 63, 100
17, 98820, Note_on_c, 6, 67, 100
17, 98820, Note_on_c, 6, 72, 100
17, 99120, Note_on_c, 6, 72, 0
17, 99120, Note_on_c, 6, 67, 0
17, 99120, Note_on_c, 6, 63, 0
17, 100440, Note_on_c, 6, 60, 100
17, 100500, Note_on_c, 6, 60, 0
17, 100500, Note_on_c, 6, 63, 100
17, 100560, Note_on_c, 6, 63, 0
17, 100560, Note_on_c, 6, 65, 100
17, 100620, Note_on_c, 6, 65, 0
17, 100620, Note_on_c, 6, 67, 100
17, 100680, Note_on_c, 6, 67, 0
17, 100680, Note_on_c, 6, 68, 100
17, 100740, Note_on_c, 6, 68, 0
17, 100740, Note_on_c, 6, 70, 100
17, 100800, Note_on_c, 6, 70, 0
17, 100800, Note_on_c, 6, 63, 100
17, 100800, Note_on_c, 6, 68, 100
17, 100800, Note_on_c, 6, 72, 100
17, 100920, Note_on_c, 6, 72, 0
17, 100920, Note_on_c, 6, 68, 0
17, 100920, Note_on_c, 6, 63, 0
17, 100920, Note_on_c, 6, 65, 100
17, 100920, Note_on_c, 6, 68, 100
17, 100920, Note_on_c, 6, 73, 100
17, 100980, Note_on_c, 6, 73, 0
17, 100980, Note_on_c, 6, 68, 0
17, 100980, Note_on_c, 6, 65, 0
17, 101040, Note_on_c, 6, 61, 100
17, 101040, Note_on_c, 6, 65, 100
17, 101040, Note_on_c, 6, 68, 100
17, 101160, Note_on_c, 6, 68, 0
17, 101160, Note_on_c, 6, 65, 0
17, 101160, Note_on_c, 6, 61, 0
17, 101160, Note_on_c, 6, 63, 100
17, 101160, Note_on_c, 6, 67, 100
17, 101160, Note_on_c, 6, 70, 100
17, 101340, Note_on_c, 6, 70, 0
17, 101340, Note_on_c, 6, 67, 0
17, 101340, Note_on_c, 6, 63, 0
17, 101340, Note_on_c, 6, 63, 100
17, 101340, Note_on_c, 6, 67, 100
17, 101340, Note_on_c, 6, 70, 100
17, 101460, Note_on_c, 6, 70, 0
17, 101460, Note_on_c, 6, 67, 0
17, 101460, Note_on_c, 6, 63, 0
17, 101460, Note_on_c, 6, 63, 100
17, 101460, Note_on_c, 6, 67, 100
17, 101460, Note_on_c, 6, 72, 100
17, 101580, Note_on_c, 6, 72, 0
17, 101580, Note_on_c, 6, 67, 0
17, 101580, Note_on_c, 6, 63, 0
17, 101580, Note_on_c, 6, 67, 100
17, 101580, Note_on_c, 6, 70, 100
17, 101580, Note_on_c, 6, 75, 100
17, 101640, Note_on_c, 6, 75, 0
17, 101640, Note_on_c, 6, 70, 0
17, 101640, Note_on_c, 6, 67, 0
17, 101700, Note_on_c, 6, 60, 100
17, 101700, Note_on_c, 6, 65, 100
17, 101700, Note_on_c, 6, 68, 100
17, 102240, Note_on_c, 6, 68, 0
17, 102240, Note_on_c, 6, 65, 0
17, 102240, Note_on_c, 6, 60, 0
17, 104100, Note_on_c, 6, 63, 100
17, 104160, Note_on_c, 6, 63, 0
17, 104160, Note_on_c, 6, 65, 100
17, 104220, Note_on_c, 6, 65, 0
17, 104220, Note_on_c, 6, 68, 100
17, 104340, Note_on_c, 6, 68, 0
17, 104340, Note_on_c, 6, 68, 100
17, 104460, Note_on_c, 6, 68, 0
17, 104460, Note_on_c, 6, 70, 100
17, 104520, Note_on_c, 6, 70, 0
17, 104580, Note_on_c, 6, 63, 100
17, 104580, Note_on_c, 6, 67, 100
17, 104580, Note_on_c, 6, 72, 100
17, 104880, Note_on_c, 6, 72, 0
17, 104880, Note_on_c, 6, 67, 0
17, 104880, Note_on_c, 6, 63, 0
17, 104880, Note_on_c, 6, 63, 100
17, 104880, Note_on_c, 6, 67, 100
17, 104880, Note_on_c, 6, 72, 100
17, 104940, Note_on_c, 6, 72, 0
17, 104940, Note_on_c, 6, 67, 0
17, 104940, Note_on_c, 6, 63, 0
17, 106200, Note_on_c, 6, 60, 100
17, 106260, Note_on_c, 6, 60, 0
17, 106260, Note_on_c, 6, 63, 100
17, 106320, Note_on_c, 6, 63, 0
17, 106320, Note_on_c, 6, 65, 100
17, 106380, Note_on_c, 6, 65, 0
17, 106380, Note_on_c, 6, 67, 100
17, 106440, Note_on_c, 6, 67, 0
17, 106440, Note_on_c, 6, 68, 100
17, 106500, Note_on_c, 6, 68, 0
17, 106500, Note_on_c, 6, 70, 100
17, 106560, Note_on_c, 6, 70, 0
17, 106560, Note_on_c, 6, 63, 100
17, 106560, Note_on_c, 6, 68, 100
17, 106560, Note_on_c, 6, 72, 100
17, 106680, Note_on_c, 6, 72, 0
17, 106680, Note_on_c, 6, 68, 0
17, 106680, Note_on_c, 6, 63, 0
17, 106680, Note_on_c, 6, 65, 100
17, 106680, Note_on_c, 6, 68, 100
17, 106680, Note_on_c, 6, 73, 100
17, 106740, Note_on_c, 6, 73, 0
17, 106740, Note_on_c, 6, 68, 0
17, 106740, Note_on_c, 6, 65, 0
17, 106800, Note_on_c, 6, 61, 100
17, 106800, Note_on_c, 6, 65, 100
17, 106800, Note_on_c, 6, 68, 100
17, 106920, Note_on_c, 6, 68, 0
17, 106920, Note_on_c, 6, 65, 0
17, 106920, Note_on_c, 6, 61, 0
17, 106920, Note_on_c, 6, 63, 100
17, 106920, Note_on_c, 6, 67, 100
17, 106920, Note_on_c, 6, 70, 100
17, 107100, Note_on_c, 6, 70, 0
17, 107100, Note_on_c, 6, 67, 0
17, 107100, Note_on_c, 6, 63, 0
17, 107100, Note_on_c, 6, 63, 100
17, 107100, Note_on_c, 6, 67, 100
17, 107100, Note_on_c, 6, 70, 100
17, 107220, Note_on_c, 6, 70, 0
17, 107220, Note_on_c, 6, 67, 0
17, 107220, Note_on_c, 6, 63, 0
17, 107220, Note_on_c, 6, 63, 100
17, 107220, Note_on_c, 6, 67, 100
17, 107220, Note_on_c, 6, 72, 100
17, 107340, Note_on_c, 6, 72, 0
17, 107340, Note_on_c, 6, 67, 0
17, 107340, Note_on_c, 6, 63, 0
17, 107340, Note_on_c, 6, 67, 100
17, 107340, Note_on_c, 6, 70, 100
17, 107340, Note_on_c, 6, 75, 100
17, 107400, Note_on_c, 6, 75, 0
17, 107400, Note_on_c, 6, 70, 0
17, 107400, Note_on_c, 6, 67, 0
17, 107460, Note_on_c, 6, 60, 100
17, 107460, Note_on_c, 6, 65, 100
17, 107460, Note_on_c, 6, 68, 100
17, 108000, Note_on_c, 6, 68, 0
17, 108000, Note_on_c, 6, 65, 0
17, 108000, Note_on_c, 6, 60, 0
17, 109860, Note_on_c, 6, 63, 100
17, 109920, Note_on_c, 6, 63, 0
17, 109920, Note_on_c, 6, 65, 100
17, 109980, Note_on_c, 6, 65, 0
17, 109980, Note_on_c, 6, 68, 100
17, 110100, Note_on_c, 6, 68, 0
17, 110100, Note_on_c, 6, 68, 100
17, 110220, Note_on_c, 6, 68, 0
17, 110220, Note_on_c, 6, 70, 100
17, 110280, Note_on_c, 6, 70, 0
17, 110340, Note_on_c, 6, 63, 100
17, 110340, Note_on_c, 6, 67, 100
17, 110340, Note_on_c, 6, 72, 100
17, 110640, Note_on_c, 6, 72, 0
17, 110640, Note_on_c, 6, 67, 0
17, 110640, Note_on_c, 6, 63, 0
17, 110640, Note_on_c, 6, 63, 84
17, 110640, Note_on_c, 6, 67, 84
17, 110640, Note_on_c, 6, 72, 84
17, 110700, Note_on_c, 6, 72, 0
17, 110700, Note_on_c, 6, 67, 0
17, 110700, Note_on_c, 6, 63, 0
17, 111960, Note_on_c, 6, 60, 100
17, 112020, Note_on_c, 6, 60, 0
17, 112020, Note_on_c, 6, 63, 100
17, 112080, Note_on_c, 6, 63, 0
17, 112080, Note_on_c, 6, 65, 100
17, 112140, Note_on_c, 6, 65, 0
17, 112140, Note_on_c, 6, 67, 100
17, 112200, Note_on_c, 6, 67, 0
17, 112200, Note_on_c, 6, 68, 100
17, 112260, Note_on_c, 6, 68, 0
17, 112260, Note_on_c, 6, 70, 100
17, 112320, Note_on_c, 6, 70, 0
17, 112320, Note_on_c, 6, 63, 100
17, 112320, Note_on_c, 6, 68, 100
17, 112320, Note_on_c, 6, 72, 100
17, 112440, Note_on_c, 6, 72, 0
17, 112440, Note_on_c, 6, 68, 0
17, 112440, Note_on_c, 6, 63, 0
17, 112440, Note_on_c, 6, 65, 100
17, 112440, Note_on_c, 6, 68, 100
17, 112440, Note_on_c, 6, 73, 100
17, 112500, Note_on_c, 6, 73, 0
17, 112500, Note_on_c, 6, 68, 0
17, 112500, Note_on_c, 6, 65, 0
17, 112560, Note_on_c, 6, 61, 100
17, 112560, Note_on_c, 6, 65, 100
17, 112560, Note_on_c, 6, 68, 100
17, 112680, Note_on_c, 6, 68, 0
17, 112680, Note_on_c, 6, 65, 0
17, 112680, Note_on_c, 6, 61, 0
17, 112680, Note_on_c, 6, 63, 100
17, 112680, Note_on_c, 6, 67, 100
17, 112680, Note_on_c, 6, 70, 100
17, 112860, Note_on_c, 6, 70, 0
17, 112860, Note_on_c, 6, 67, 0
17, 112860, Note_on_c, 6, 63, 0
17, 112860, Note_on_c, 6, 63, 100
17, 112860, Note_on_c, 6, 67, 100
17, 112860, Note_on_c, 6, 70, 100
17, 112980, Note_on_c, 6, 70, 0
17, 112980, Note_on_c, 6, 67, 0
17, 112980, Note_on_c, 6, 63, 0
17, 112980, Note_on_c, 6, 63, 100
17, 112980, Note_on_c, 6, 67, 100
17, 112980, Note_on_c, 6, 72, 100
17, 113100, Note_on_c, 6, 72, 0
17, 113100, Note_on_c, 6, 67, 0
17, 113100, Note_on_c, 6, 63, 0
17, 113100, Note_on_c, 6, 67, 100
17, 113100, Note_on_c, 6, 70, 100
17, 113100, Note_on_c, 6, 75, 100
17, 113160, Note_on_c, 6, 75, 0
17, 113160, Note_on_c, 6, 70, 0
17, 113160, Note_on_c, 6, 67, 0
17, 113220, Note_on_c, 6, 60, 100
17, 113220, Note_on_c, 6, 65, 100
17, 113220, Note_on_c, 6, 68, 100
17, 113760, Note_on_c, 6, 68, 0
17, 113760, Note_on_c, 6, 65, 0
17, 113760, Note_on_c, 6, 60, 0
17, 115200, Control_c, 6, 11, 127
17, 115245, Control_c, 6, 11, 126
17, 115290, Control_c, 6, 11, 125
17, 115336, Control_c, 6, 11, 124
17, 115381, Control_c, 6, 11, 123
17, 115426, Control_c, 6, 11, 122
17, 115472, Control_c, 6, 11, 121
17, 115517, Control_c, 6, 11, 120
17, 115562, Control_c, 6, 11, 119
17, 115608, Control_c, 6, 11, 118
17, 115653, Control_c, 6, 11, 117
17, 115698, Control_c, 6, 11, 116
17, 115744, Control_c, 6, 11, 115
17, 115789, Control_c, 6, 11, 114
17, 115834, Control_c, 6, 11, 113
17, 115880, Control_c, 6, 11, 112
17, 115925, Control_c, 6, 11, 111
17, 115970, Control_c, 6, 11, 110
17, 116016, Control_c, 6, 11, 109
17, 116061, Control_c, 6, 11, 108
17, 116106, Control_c, 6, 11, 107
17, 116152, Control_c, 6, 11, 106
17, 116197, Control_c, 6, 11, 105
17, 116242, Control_c, 6, 11, 104
17, 116288, Control_c, 6, 11, 103
17, 116333, Control_c, 6, 11, 102
17, 116379, Control_c, 6, 11, 101
17, 116424, Control_c, 6, 11, 100
17, 116469, Control_c, 6, 11, 99
17, 116515, Control_c, 6, 11, 98
17, 116560, Control_c, 6, 11, 97
17, 116605, Control_c, 6, 11, 96
17, 116651, Control_c, 6, 11, 95
17, 116696, Control_c, 6, 11, 94
17, 116741, Control_c, 6, 11, 93
17, 116787, Control_c, 6, 11, 92
17, 116832, Control_c, 6, 11, 91
17, 116877, Control_c, 6, 11, 90
17, 116923, Control_c, 6, 11, 89
17, 116968, Control_c, 6, 11, 88
17, 117013, Control_c, 6, 11, 87
17, 117059, Control_c, 6, 11, 86
17, 117104, Control_c, 6, 11, 85
17, 117149, Control_c, 6, 11, 84
17, 117195, Control_c, 6, 11, 83
17, 117240, Control_c, 6, 11, 82
17, 117285, Control_c, 6, 11, 81
17, 117331, Control_c, 6, 11, 80
17, 117376, Control_c, 6, 11, 79
17, 117421, Control_c, 6, 11, 78
17, 117467, Control_c, 6, 11, 77
17, 117512, Control_c, 6, 11, 76
17, 117558, Control_c, 6, 11, 75
17, 117603, Control_c, 6, 11, 74
17, 117648, Control_c, 6, 11, 73
17, 117694, Control_c, 6, 11, 72
17, 117720, Note_on_c, 6, 60, 100
17, 117739, Control_c, 6, 11, 71
17, 117780, Note_on_c, 6, 60, 0
17, 117780, Note_on_c, 6, 63, 100
17, 117784, Control_c, 6, 11, 70
17, 117830, Control_c, 6, 11, 69
17, 117840, Note_on_c, 6, 63, 0
17, 117840, Note_on_c, 6, 65, 100
17, 117875, Control_c, 6, 11, 68
17, 117900, Note_on_c, 6, 65, 0
17, 117900, Note_on_c, 6, 67, 100
17, 117920, Control_c, 6, 11, 67
17, 117960, Note_on_c, 6, 67, 0
17, 117960, Note_on_c, 6, 68, 100
17, 117966, Control_c, 6, 11, 66
17, 118011, Control_c, 6, 11, 65
17, 118020, Note_on_c, 6, 68, 0
17, 118020, Note_on_c, 6, 70, 100
17, 118056, Control_c, 6, 11, 64
17, 118080, Note_on_c, 6, 70, 0
17, 118080, Note_on_c, 6, 63, 100
17, 118080, Note_on_c, 6, 68, 100
17, 118080, Note_on_c, 6, 72, 100
17, 118102, Control_c, 6, 11, 63
17, 118147, Control_c, 6, 11, 62
17, 118192, Control_c, 6, 11, 61
17, 118200, Note_on_c, 6, 72, 0
17, 118200, Note_on_c, 6, 68, 0
17, 118200, Note_on_c, 6, 63, 0
17, 118200, Note_on_c, 6, 65, 100
17, 118200, Note_on_c, 6, 68, 100
17, 118200, Note_on_c, 6, 73, 100
17, 118238, Control_c, 6, 11, 60
17, 118260, Note_on_c, 6, 73, 0
17, 118260, Note_on_c, 6, 68, 0
17, 118260, Note_on_c, 6, 65, 0
17, 118283, Control_c, 6, 11, 59
17, 118320, Note_on_c, 6, 61, 100
17, 118320, Note_on_c, 6, 65, 100
17, 118320, Note_on_c, 6, 68, 100
17, 118328, Control_c, 6, 11, 58
17, 118374, Control_c, 6, 11, 57
17, 118419, Control_c, 6, 11, 56
17, 118440, Note_on_c, 6, 68, 0
17, 118440, Note_on_c, 6, 65, 0
17, 118440, Note_on_c, 6, 61, 0
17, 118440, Note_on_c, 6, 63, 100
17, 118440, Note_on_c, 6, 67, 100
17, 118440, Note_on_c, 6, 70, 100
17, 118464, Control_c, 6, 11, 55
17, 118510, Control_c, 6, 11, 54
17, 118555, Control_c, 6, 11, 53
17, 118600, Control_c, 6, 11, 52
17, 118620, Note_on_c, 6, 70, 0
17, 118620, Note_on_c, 6, 67, 0
17, 118620, Note_on_c, 6, 63, 0
17, 118620, Note_on_c, 6, 63, 100
17, 118620, Note_on_c, 6, 67, 100
17, 118620, Note_on_c, 6, 70, 100
17, 118646, Control_c, 6, 11, 51
17, 118691, Control_c, 6, 11, 50
17, 118737, Control_c, 6, 11, 49
17, 118740, Note_on_c, 6, 70, 0
17, 118740, Note_on_c, 6, 67, 0
17, 118740, Note_on_c, 6, 63, 0
17, 118740, Note_on_c, 6, 63, 100
17, 118740, Note_on_c, 6, 67, 100
17, 118740, Note_on_c, 6, 72, 100
17, 118782, Control_c, 6, 11, 48
17, 118827, Control_c, 6, 11, 47
17, 118860, Note_on_c, 6, 72, 0
17, 118860, Note_on_c, 6, 67, 0
17, 118860, Note_on_c, 6, 63, 0
17, 118860, Note_on_c, 6, 67, 100
17, 118860, Note_on_c, 6, 70, 100
17, 118860, Note_on_c, 6, 75, 100
17, 118873, Control_c, 6, 11, 46
17, 118918, Control_c, 6, 11, 45
17, 118920, Note_on_c, 6, 75, 0
17, 118920, Note_on_c, 6, 70, 0
17, 118920, Note_on_c, 6, 67, 0
17, 118963, Control_c, 6, 11, 44
17, 118980, Note_on_c, 6, 60, 100
17, 118980, Note_on_c, 6, 65, 100
17, 118980, Note_on_c, 6, 68, 100
17, 119009, Control_c, 6, 11, 43
17, 119054, Control_c, 6, 11, 42
17, 119099, Control_c, 6, 11, 41
17, 119145, Control_c, 6, 11, 40
17, 119190, Control_c, 6, 11, 39
17, 119235, Control_c, 6, 11, 38
17, 119281, Control_c, 6, 11, 37
17, 119326, Control_c, 6, 11, 36
17, 119371, Control_c, 6, 11, 35
17, 119417, Control_c, 6, 11, 34
17, 119462, Control_c, 6, 11, 33
17, 119507, Control_c, 6, 11, 32
17, 119520, Note_on_c, 6, 68, 0
17, 119520, Note_on_c, 6, 65, 0
17, 119520, Note_on_c, 6, 60, 0
17, 119553, Control_c, 6, 11, 31
17, 119598, Control_c, 6, 11, 30
17, 119643, Control_c, 6, 11, 29
17, 119689, Control_c, 6, 11, 28
17, 119734, Control_c, 6, 11, 27
17, 119779, Control_c, 6, 11, 26
17, 119825, Control_c, 6, 11, 25
17, 119870, Control_c, 6, 11, 24
17, 119916, Control_c, 6, 11, 23
17, 119961, Control_c, 6, 11, 22
17, 120006, Control_c, 6, 11, 21
17, 120052, Control_c, 6, 11, 20
17, 120097, Control_c, 6, 11, 19
17, 120142, Control_c, 6, 11, 18
17, 120188, Control_c, 6, 11, 17
17, 120233, Control_c, 6, 11, 16
17, 120278, Control_c, 6, 11, 15
17, 120324, Control_c, 6, 11, 14
17, 120369, Control_c, 6, 11, 13
17, 120414, Control_c, 6, 11, 12
17, 120460, Control_c, 6, 11, 11
17, 120505, Control_c, 6, 11, 10
17, 120550, Control_c, 6, 11, 9
17, 120596, Control_c, 6, 11, 8
17, 120641, Control_c, 6, 11, 7
17, 120686, Control_c, 6, 11, 6
17, 120732, Control_c, 6, 11, 5
17, 120777, Control_c, 6, 11, 4
17, 120822, Control_c, 6, 11, 3
17, 120868, Control_c, 6, 11, 2
17, 120913, Control_c, 6, 11, 1
17, 120959, Control_c, 6, 11, 0
17, 121402, Control_c, 6, 121, 0
17, 121402, End_track
18, 0, Start_track
18, 0, MIDI_port, 0
18, 0, Title_t, "Overdrive Guitar"
18, 330, Control_c, 7, 121, 0
18, 331, Control_c, 7, 0, 0
18, 331, Control_c, 7, 32, 0
18, 331, Program_c, 7, 29
18, 332, Control_c, 7, 7, 96
18, 333, Control_c, 7, 10, 40
18, 334, Control_c, 7, 91, 64
18, 335, Control_c, 7, 93, 24
18, 336, Control_c, 7, 99, 1
18, 337, Control_c, 7, 98, 32
18, 338, Control_c, 7, 6, 50
18, 339, Control_c, 7, 101, 0
18, 340, Control_c, 7, 100, 0
18, 341, Control_c, 7, 6, 4
18, 342, Control_c, 7, 101, 0
18, 343, Control_c, 7, 100, 1
18, 344, Control_c, 7, 6, 66
18, 345, Control_c, 7, 32, 0
18, 346, Control_c, 7, 101, 127
18, 347, Control_c, 7, 100, 127
18, 38039, Pitch_bend_c, 7, 4096
18, 38040, Note_on_c, 7, 60, 108
18, 38060, Pitch_bend_c, 7, 8192
18, 38100, Note_on_c, 7, 60, 0
18, 38100, Note_on_c, 7, 63, 108
18, 38159, Pitch_bend_c, 7, 6144
18, 38160, Note_on_c, 7, 63, 0
18, 38160, Note_on_c, 7, 65, 108
18, 38175, Pitch_bend_c, 7, 8192
18, 38280, Note_on_c, 7, 65, 0
18, 38280, Note_on_c, 7, 63, 108
18, 38339, Note_on_c, 7, 63, 0
18, 38399, Pitch_bend_c, 7, 4096
18, 38400, Note_on_c, 7, 60, 108
18, 38416, Pitch_bend_c, 7, 8192
18, 38520, Note_on_c, 7, 60, 0
18, 38520, Note_on_c, 7, 58, 88
18, 38640, Control_c, 7, 1, 8
18, 38700, Control_c, 7, 1, 16
18, 39004, Control_c, 7, 11, 126
18, 39014, Control_c, 7, 11, 125
18, 39024, Control_c, 7, 11, 124
18, 39031, Control_c, 7, 11, 123
18, 39039, Control_c, 7, 11, 122
18, 39049, Control_c, 7, 11, 121
18, 39059, Control_c, 7, 11, 120
18, 39076, Control_c, 7, 11, 119
18, 39084, Control_c, 7, 11, 118
18, 39099, Control_c, 7, 11, 117
18, 39121, Control_c, 7, 11, 116
18, 39166, Control_c, 7, 11, 115
18, 39201, Control_c, 7, 11, 114
18, 39256, Control_c, 7, 11, 113
18, 39276, Control_c, 7, 11, 112
18, 39309, Control_c, 7, 11, 111
18, 39326, Control_c, 7, 11, 112
18, 39371, Control_c, 7, 11, 113
18, 39386, Control_c, 7, 11, 114
18, 39394, Control_c, 7, 11, 115
18, 39401, Control_c, 7, 11, 116
18, 39416, Control_c, 7, 11, 117
18, 39419, Note_on_c, 7, 58, 0
18, 39424, Control_c, 7, 11, 118
18, 39436, Control_c, 7, 11, 119
18, 39441, Control_c, 7, 11, 120
18, 39444, Control_c, 7, 11, 121
18, 39449, Control_c, 7, 11, 122
18, 39451, Control_c, 7, 11, 123
18, 39454, Control_c, 7, 11, 124
18, 39459, Control_c, 7, 11, 125
18, 39461, Control_c, 7, 11, 126
18, 39464, Control_c, 7, 11, 127
18, 39479, Note_on_c, 7, 65, 108
18, 39479, Control_c, 7, 1, 0
18, 39539, Note_on_c, 7, 65, 0
18, 39540, Note_on_c, 7, 66, 108
18, 39600, Note_on_c, 7, 66, 0
18, 39600, Note_on_c, 7, 73, 108
18, 39705, Note_on_c, 7, 73, 0
18, 39720, Note_on_c, 7, 73, 127
18, 39810, Note_on_c, 7, 73, 0
18, 39840, Note_on_c, 7, 72, 108
18, 39960, Note_on_c, 7, 72, 0
18, 39960, Note_on_c, 7, 68, 108
18, 40080, Note_on_c, 7, 68, 0
18, 40080, Note_on_c, 7, 70, 108
18, 40200, Note_on_c, 7, 70, 0
18, 40200, Note_on_c, 7, 72, 108
18, 40319, Note_on_c, 7, 72, 0
18, 40319, Pitch_bend_c, 7, 128
18, 40320, Note_on_c, 7, 72, 98
18, 40329, Pitch_bend_c, 7, 896
18, 40331, Pitch_bend_c, 7, 1664
18, 40334, Pitch_bend_c, 7, 2688
18, 40336, Pitch_bend_c, 7, 3456
18, 40339, Pitch_bend_c, 7, 6512
18, 40344, Pitch_bend_c, 7, 7168
18, 40348, Pitch_bend_c, 7, 7552
18, 40350, Pitch_bend_c, 7, 8192
18, 40500, Note_on_c, 7, 72, 0
18, 40500, Note_on_c, 7, 70, 102
18, 40620, Note_on_c, 7, 70, 0
18, 40620, Note_on_c, 7, 63, 108
18, 40740, Control_c, 7, 1, 8
18, 40860, Control_c, 7, 1, 16
18, 40982, Control_c, 7, 11, 125
18, 41015, Control_c, 7, 11, 124
18, 41025, Control_c, 7, 11, 123
18, 41040, Control_c, 7, 11, 122
18, 41060, Control_c, 7, 11, 121
18, 41080, Control_c, 7, 11, 119
18, 41102, Control_c, 7, 11, 118
18, 41127, Control_c, 7, 11, 117
18, 41152, Control_c, 7, 11, 115
18, 41177, Control_c, 7, 11, 114
18, 41207, Control_c, 7, 11, 112
18, 41237, Control_c, 7, 11, 111
18, 41270, Control_c, 7, 11, 109
18, 41302, Control_c, 7, 11, 107
18, 41335, Control_c, 7, 11, 105
18, 41367, Control_c, 7, 11, 104
18, 41395, Control_c, 7, 11, 102
18, 41417, Control_c, 7, 11, 101
18, 41440, Control_c, 7, 11, 99
18, 41457, Control_c, 7, 11, 97
18, 41475, Control_c, 7, 11, 96
18, 41487, Control_c, 7, 11, 95
18, 41497, Control_c, 7, 11, 94
18, 41507, Control_c, 7, 11, 93
18, 41522, Control_c, 7, 11, 92
18, 41537, Control_c, 7, 11, 91
18, 41550, Control_c, 7, 11, 90
18, 41567, Control_c, 7, 11, 89
18, 41597, Control_c, 7, 11, 88
18, 41617, Control_c, 7, 11, 87
18, 41640, Control_c, 7, 11, 86
18, 41672, Control_c, 7, 11, 85
18, 41759, Control_c, 7, 11, 127
18, 41759, Control_c, 7, 1, 0
18, 41759, Pitch_bend_c, 7, 6144
18, 41760, Note_on_c, 7, 63, 0
18, 41760, Note_on_c, 7, 70, 108
18, 41776, Pitch_bend_c, 7, 8192
18, 41820, Note_on_c, 7, 70, 0
18, 41820, Note_on_c, 7, 73, 108
18, 41940, Note_on_c, 7, 73, 0
18, 41940, Note_on_c, 7, 73, 108
18, 42060, Note_on_c, 7, 73, 0
18, 42060, Note_on_c, 7, 73, 108
18, 42240, Note_on_c, 7, 73, 0
18, 42240, Note_on_c, 7, 70, 108
18, 42270, Note_on_c, 7, 70, 0
18, 42270, Note_on_c, 7, 68, 78
18, 42300, Note_on_c, 7, 68, 0
18, 42300, Note_on_c, 7, 66, 98
18, 42330, Note_on_c, 7, 66, 0
18, 42360, Note_on_c, 7, 63, 108
18, 42420, Note_on_c, 7, 66, 108
18, 42480, Note_on_c, 7, 66, 0
18, 42480, Note_on_c, 7, 63, 0
18, 42480, Note_on_c, 7, 68, 108
18, 42660, Note_on_c, 7, 68, 0
18, 42660, Note_on_c, 7, 68, 108
18, 42780, Note_on_c, 7, 68, 0
18, 42780, Note_on_c, 7, 72, 108
18, 42780, Pitch_bend_c, 7, 4160
18, 42792, Pitch_bend_c, 7, 4224
18, 42797, Pitch_bend_c, 7, 5098
18, 42805, Pitch_bend_c, 7, 4352
18, 42807, Pitch_bend_c, 7, 4416
18, 42812, Pitch_bend_c, 7, 4480
18, 42815, Pitch_bend_c, 7, 4544
18, 42817, Pitch_bend_c, 7, 4608
18, 42820, Pitch_bend_c, 7, 4672
18, 42825, Pitch_bend_c, 7, 4736
18, 42827, Pitch_bend_c, 7, 4800
18, 42832, Pitch_bend_c, 7, 4864
18, 42835, Pitch_bend_c, 7, 4928
18, 42840, Pitch_bend_c, 7, 5056
18, 42845, Pitch_bend_c, 7, 5120
18, 42847, Pitch_bend_c, 7, 5184
18, 42852, Pitch_bend_c, 7, 5312
18, 42857, Pitch_bend_c, 7, 5376
18, 42860, Pitch_bend_c, 7, 5440
18, 42862, Pitch_bend_c, 7, 5504
18, 42865, Pitch_bend_c, 7, 5568
18, 42867, Pitch_bend_c, 7, 5632
18, 42870, Pitch_bend_c, 7, 5696
18, 42875, Pitch_bend_c, 7, 5760
18, 42877, Pitch_bend_c, 7, 5824
18, 42882, Pitch_bend_c, 7, 5888
18, 42885, Pitch_bend_c, 7, 5952
18, 42887, Pitch_bend_c, 7, 6080
18, 42892, Pitch_bend_c, 7, 6144
18, 42895, Pitch_bend_c, 7, 6208
18, 42897, Pitch_bend_c, 7, 6272
18, 42900, Pitch_bend_c, 7, 6400
18, 42902, Pitch_bend_c, 7, 6464
18, 42907, Pitch_bend_c, 7, 6592
18, 42910, Pitch_bend_c, 7, 6656
18, 42912, Pitch_bend_c, 7, 6720
18, 42915, Pitch_bend_c, 7, 6786
18, 42917, Pitch_bend_c, 7, 6848
18, 42920, Pitch_bend_c, 7, 6912
18, 42922, Pitch_bend_c, 7, 6976
18, 42925, Pitch_bend_c, 7, 7040
18, 42927, Pitch_bend_c, 7, 7104
18, 42930, Pitch_bend_c, 7, 7232
18, 42935, Pitch_bend_c, 7, 7296
18, 42937, Pitch_bend_c, 7, 7424
18, 42940, Pitch_bend_c, 7, 7488
18, 42942, Pitch_bend_c, 7, 7552
18, 42945, Pitch_bend_c, 7, 7616
18, 42947, Pitch_bend_c, 7, 7744
18, 42950, Pitch_bend_c, 7, 7872
18, 42952, Pitch_bend_c, 7, 7936
18, 42955, Pitch_bend_c, 7, 8000
18, 42957, Pitch_bend_c, 7, 8128
18, 42960, Pitch_bend_c, 7, 8192
18, 42960, Control_c, 7, 1, 8
18, 43140, Control_c, 7, 1, 16
18, 43200, Control_c, 7, 11, 127
18, 43210, Control_c, 7, 11, 126
18, 43217, Control_c, 7, 11, 125
18, 43230, Control_c, 7, 11, 124
18, 43247, Control_c, 7, 11, 123
18, 43265, Control_c, 7, 11, 122
18, 43295, Control_c, 7, 11, 121
18, 43370, Control_c, 7, 11, 120
18, 43432, Control_c, 7, 11, 119
18, 43635, Control_c, 7, 11, 120
18, 43680, Control_c, 7, 11, 121
18, 43722, Control_c, 7, 11, 122
18, 43732, Control_c, 7, 11, 123
18, 43745, Control_c, 7, 11, 124
18, 43752, Control_c, 7, 11, 125
18, 43767, Control_c, 7, 11, 126
18, 43772, Control_c, 7, 11, 127
18, 43812, Pitch_bend_c, 7, 8128
18, 43817, Pitch_bend_c, 7, 8064
18, 43820, Pitch_bend_c, 7, 8000
18, 43827, Pitch_bend_c, 7, 7936
18, 43830, Pitch_bend_c, 7, 7872
18, 43832, Pitch_bend_c, 7, 7808
18, 43835, Pitch_bend_c, 7, 7744
18, 43837, Pitch_bend_c, 7, 7680
18, 43842, Pitch_bend_c, 7, 7616
18, 43845, Pitch_bend_c, 7, 7488
18, 43850, Pitch_bend_c, 7, 7424
18, 43852, Pitch_bend_c, 7, 7360
18, 43855, Pitch_bend_c, 7, 7296
18, 43860, Pitch_bend_c, 7, 7232
18, 43862, Pitch_bend_c, 7, 7168
18, 43865, Pitch_bend_c, 7, 7104
18, 43867, Pitch_bend_c, 7, 7040
18, 43870, Pitch_bend_c, 7, 6976
18, 43872, Pitch_bend_c, 7, 6912
18, 43875, Pitch_bend_c, 7, 6784
18, 43877, Pitch_bend_c, 7, 6720
18, 43882, Pitch_bend_c, 7, 6592
18, 43885, Pitch_bend_c, 7, 6528
18, 43887, Pitch_bend_c, 7, 6464
18, 43890, Pitch_bend_c, 7, 6336
18, 43892, Pitch_bend_c, 7, 6144
18, 43895, Pitch_bend_c, 7, 6016
18, 43897, Pitch_bend_c, 7, 5952
18, 43900, Pitch_bend_c, 7, 5824
18, 43902, Pitch_bend_c, 7, 5568
18, 43905, Pitch_bend_c, 7, 5312
18, 43907, Pitch_bend_c, 7, 5056
18, 43910, Pitch_bend_c, 7, 4416
18, 43912, Pitch_bend_c, 7, 4160
18, 43918, Pitch_bend_c, 7, 4096
18, 43919, Control_c, 7, 1, 0
18, 43920, Note_on_c, 7, 72, 0
18, 43920, Pitch_bend_c, 7, 8192
18, 43920, Note_on_c, 7, 65, 108
18, 43950, Pitch_bend_c, 7, 12288
18, 44039, Pitch_bend_c, 7, 8192
18, 44040, Note_on_c, 7, 65, 0
18, 44040, Note_on_c, 7, 70, 108
18, 44130, Note_on_c, 7, 70, 0
18, 44160, Note_on_c, 7, 75, 108
18, 44279, Pitch_bend_c, 7, 4096
18, 44280, Note_on_c, 7, 75, 0
18, 44280, Note_on_c, 7, 75, 94
18, 44288, Pitch_bend_c, 7, 8192
18, 44400, Control_c, 7, 1, 8
18, 44520, Control_c, 7, 1, 16
18, 44819, Control_c, 7, 1, 0
18, 44820, Note_on_c, 7, 75, 0
18, 44820, Note_on_c, 7, 75, 108
18, 44880, Note_on_c, 7, 75, 0
18, 44880, Note_on_c, 7, 77, 108
18, 44940, Note_on_c, 7, 77, 0
18, 44940, Note_on_c, 7, 73, 108
18, 45060, Control_c, 7, 1, 8
18, 45180, Control_c, 7, 1, 16
18, 45302, Control_c, 7, 11, 127
18, 45305, Control_c, 7, 11, 126
18, 45310, Control_c, 7, 11, 125
18, 45312, Control_c, 7, 11, 124
18, 45315, Control_c, 7, 11, 123
18, 45322, Control_c, 7, 11, 122
18, 45327, Control_c, 7, 11, 121
18, 45335, Control_c, 7, 11, 120
18, 45342, Control_c, 7, 11, 119
18, 45350, Control_c, 7, 11, 118
18, 45362, Control_c, 7, 11, 117
18, 45372, Control_c, 7, 11, 116
18, 45380, Control_c, 7, 11, 115
18, 45397, Control_c, 7, 11, 114
18, 45420, Control_c, 7, 11, 113
18, 45435, Control_c, 7, 11, 112
18, 45450, Control_c, 7, 11, 111
18, 45467, Control_c, 7, 11, 110
18, 45482, Control_c, 7, 11, 109
18, 45495, Control_c, 7, 11, 108
18, 45517, Control_c, 7, 11, 107
18, 45537, Control_c, 7, 11, 106
18, 45552, Control_c, 7, 11, 105
18, 45572, Control_c, 7, 11, 104
18, 45585, Control_c, 7, 11, 103
18, 45600, Control_c, 7, 1, 0
18, 45602, Control_c, 7, 11, 102
18, 45625, Control_c, 7, 11, 101
18, 45630, Pitch_bend_c, 7, 8192
18, 45635, Pitch_bend_c, 7, 8064
18, 45637, Pitch_bend_c, 7, 7936
18, 45640, Pitch_bend_c, 7, 7808
18, 45642, Pitch_bend_c, 7, 7552
18, 45647, Pitch_bend_c, 7, 7296
18, 45650, Pitch_bend_c, 7, 7168
18, 45652, Control_c, 7, 11, 100
18, 45652, Pitch_bend_c, 7, 7040
18, 45655, Pitch_bend_c, 7, 6784
18, 45657, Pitch_bend_c, 7, 6528
18, 45660, Pitch_bend_c, 7, 6272
18, 45662, Pitch_bend_c, 7, 6016
18, 45667, Pitch_bend_c, 7, 5760
18, 45670, Pitch_bend_c, 7, 5504
18, 45672, Pitch_bend_c, 7, 5248
18, 45677, Pitch_bend_c, 7, 4992
18, 45680, Pitch_bend_c, 7, 4736
18, 45682, Control_c, 7, 11, 99
18, 45682, Pitch_bend_c, 7, 4480
18, 45687, Pitch_bend_c, 7, 4352
18, 45690, Pitch_bend_c, 7, 4096
18, 45692, Pitch_bend_c, 7, 3968
18, 45697, Pitch_bend_c, 7, 3712
18, 45700, Control_c, 7, 11, 98
18, 45700, Pitch_bend_c, 7, 3328
18, 45702, Pitch_bend_c, 7, 3072
18, 45705, Pitch_bend_c, 7, 2944
18, 45707, Pitch_bend_c, 7, 2816
18, 45710, Pitch_bend_c, 7, 2560
18, 45712, Pitch_bend_c, 7, 2304
18, 45715, Pitch_bend_c, 7, 2176
18, 45717, Pitch_bend_c, 7, 1920
18, 45720, Note_on_c, 7, 73, 0
18, 45720, Note_on_c, 7, 71, 88
18, 45720, Pitch_bend_c, 7, 8192
18, 45722, Control_c, 7, 11, 127
18, 45750, Pitch_bend_c, 7, 12384
18, 45840, Note_on_c, 7, 71, 0
18, 45840, Note_on_c, 7, 73, 108
18, 45840, Pitch_bend_c, 7, 8192
18, 45900, Note_on_c, 7, 73, 0
18, 45990, Note_on_c, 7, 72, 108
18, 46020, Note_on_c, 7, 72, 0
18, 46020, Note_on_c, 7, 70, 88
18, 46050, Note_on_c, 7, 70, 0
18, 46050, Note_on_c, 7, 68, 108
18, 46080, Note_on_c, 7, 68, 0
18, 46080, Note_on_c, 7, 70, 108
18, 46142, Pitch_bend_c, 7, 12288
18, 46200, Note_on_c, 7, 70, 0
18, 46200, Note_on_c, 7, 68, 108
18, 46200, Pitch_bend_c, 7, 8192
18, 46230, Note_on_c, 7, 68, 0
18, 46260, Note_on_c, 7, 68, 108
18, 46320, Pitch_bend_c, 7, 12288
18, 46380, Note_on_c, 7, 68, 0
18, 46380, Note_on_c, 7, 67, 108
18, 46380, Pitch_bend_c, 7, 8192
18, 46622, Pitch_bend_c, 7, 8192
18, 46640, Pitch_bend_c, 7, 8064
18, 46650, Pitch_bend_c, 7, 7936
18, 46657, Pitch_bend_c, 7, 7808
18, 46662, Pitch_bend_c, 7, 7680
18, 46665, Pitch_bend_c, 7, 7552
18, 46670, Pitch_bend_c, 7, 7424
18, 46677, Pitch_bend_c, 7, 7296
18, 46680, Pitch_bend_c, 7, 7168
18, 46685, Pitch_bend_c, 7, 7040
18, 46690, Pitch_bend_c, 7, 6912
18, 46695, Pitch_bend_c, 7, 6784
18, 46697, Pitch_bend_c, 7, 6656
18, 46702, Pitch_bend_c, 7, 6528
18, 46705, Pitch_bend_c, 7, 6400
18, 46707, Pitch_bend_c, 7, 6272
18, 46710, Pitch_bend_c, 7, 6144
18, 46712, Pitch_bend_c, 7, 6016
18, 46715, Pitch_bend_c, 7, 5888
18, 46720, Pitch_bend_c, 7, 5632
18, 46722, Pitch_bend_c, 7, 5376
18, 46725, Pitch_bend_c, 7, 5248
18, 46727, Pitch_bend_c, 7, 5120
18, 46730, Pitch_bend_c, 7, 4864
18, 46732, Pitch_bend_c, 7, 4608
18, 46735, Pitch_bend_c, 7, 4352
18, 46737, Pitch_bend_c, 7, 4096
18, 46740, Note_on_c, 7, 67, 0
18, 46740, Note_on_c, 7, 63, 82
18, 46740, Pitch_bend_c, 7, 8192
18, 46862, Control_c, 7, 11, 127
18, 46872, Control_c, 7, 11, 126
18, 46882, Control_c, 7, 11, 125
18, 46895, Control_c, 7, 11, 124
18, 46910, Control_c, 7, 11, 123
18, 46930, Control_c, 7, 11, 121
18, 46955, Control_c, 7, 11, 119
18, 46980, Control_c, 7, 11, 117
18, 47002, Control_c, 7, 11, 115
18, 47025, Control_c, 7, 11, 113
18, 47047, Control_c, 7, 11, 112
18, 47067, Control_c, 7, 11, 110
18, 47087, Control_c, 7, 11, 108
18, 47107, Control_c, 7, 11, 106
18, 47127, Control_c, 7, 11, 104
18, 47145, Control_c, 7, 11, 102
18, 47162, Control_c, 7, 11, 100
18, 47180, Control_c, 7, 11, 98
18, 47197, Control_c, 7, 11, 97
18, 47215, Control_c, 7, 11, 95
18, 47232, Control_c, 7, 11, 93
18, 47252, Control_c, 7, 11, 91
18, 47272, Control_c, 7, 11, 90
18, 47290, Control_c, 7, 11, 89
18, 47320, Control_c, 7, 11, 88
18, 47337, Control_c, 7, 11, 87
18, 47410, Control_c, 7, 11, 88
18, 47485, Control_c, 7, 11, 87
18, 47520, Note_on_c, 7, 63, 0
18, 47520, Control_c, 7, 11, 127
18, 48420, Note_on_c, 7, 60, 108
18, 48480, Note_on_c, 7, 60, 0
18, 48480, Note_on_c, 7, 63, 98
18, 48540, Note_on_c, 7, 63, 0
18, 48540, Note_on_c, 7, 65, 108
18, 48600, Note_on_c, 7, 65, 0
18, 48600, Note_on_c, 7, 68, 108
18, 48660, Note_on_c, 7, 68, 0
18, 48660, Note_on_c, 7, 63, 98
18, 48720, Note_on_c, 7, 63, 0
18, 48720, Note_on_c, 7, 70, 108
18, 48780, Note_on_c, 7, 70, 0
18, 48780, Note_on_c, 7, 63, 98
18, 48840, Note_on_c, 7, 63, 0
18, 48840, Note_on_c, 7, 68, 108
18, 48900, Note_on_c, 7, 68, 0
18, 48900, Note_on_c, 7, 70, 98
18, 48959, Note_on_c, 7, 70, 0
18, 48959, Pitch_bend_c, 7, 4096
18, 48960, Note_on_c, 7, 72, 108
18, 48960, Pitch_bend_c, 7, 4288
18, 48962, Pitch_bend_c, 7, 4352
18, 48967, Pitch_bend_c, 7, 4480
18, 48970, Pitch_bend_c, 7, 4544
18, 48972, Pitch_bend_c, 7, 4608
18, 48975, Pitch_bend_c, 7, 4672
18, 48977, Pitch_bend_c, 7, 4800
18, 48982, Pitch_bend_c, 7, 5248
18, 48990, Pitch_bend_c, 7, 5376
18, 48992, Pitch_bend_c, 7, 5504
18, 48995, Pitch_bend_c, 7, 5632
18, 48997, Pitch_bend_c, 7, 5760
18, 49000, Pitch_bend_c, 7, 5888
18, 49002, Pitch_bend_c, 7, 6080
18, 49005, Pitch_bend_c, 7, 6144
18, 49007, Pitch_bend_c, 7, 6400
18, 49010, Pitch_bend_c, 7, 6656
18, 49012, Pitch_bend_c, 7, 6784
18, 49015, Pitch_bend_c, 7, 7040
18, 49017, Pitch_bend_c, 7, 7360
18, 49020, Pitch_bend_c, 7, 7808
18, 49022, Pitch_bend_c, 7, 8000
18, 49139, Pitch_bend_c, 7, 8216
18, 49140, Note_on_c, 7, 72, 0
18, 49140, Note_on_c, 7, 75, 108
18, 49259, Pitch_bend_c, 7, 8192
18, 49260, Note_on_c, 7, 75, 0
18, 49260, Note_on_c, 7, 75, 102
18, 49500, Note_on_c, 7, 75, 0
18, 49500, Note_on_c, 7, 75, 108
18, 49560, Note_on_c, 7, 75, 0
18, 49560, Note_on_c, 7, 77, 98
18, 49620, Note_on_c, 7, 77, 0
18, 49620, Note_on_c, 7, 68, 100
18, 49830, Pitch_bend_c, 7, 8192
18, 49832, Pitch_bend_c, 7, 8064
18, 49835, Pitch_bend_c, 7, 7936
18, 49837, Pitch_bend_c, 7, 7680
18, 49840, Pitch_bend_c, 7, 7424
18, 49845, Pitch_bend_c, 7, 7168
18, 49847, Pitch_bend_c, 7, 6784
18, 49850, Pitch_bend_c, 7, 6656
18, 49855, Pitch_bend_c, 7, 6400
18, 49857, Pitch_bend_c, 7, 6272
18, 49860, Note_on_c, 7, 68, 0
18, 49860, Pitch_bend_c, 7, 5888
18, 49865, Pitch_bend_c, 7, 5504
18, 49867, Pitch_bend_c, 7, 5376
18, 49870, Pitch_bend_c, 7, 5248
18, 49872, Pitch_bend_c, 7, 4992
18, 49875, Pitch_bend_c, 7, 4736
18, 49877, Pitch_bend_c, 7, 4608
18, 49880, Pitch_bend_c, 7, 4352
18, 49882, Pitch_bend_c, 7, 4224
18, 49885, Pitch_bend_c, 7, 3968
18, 49887, Pitch_bend_c, 7, 3712
18, 49890, Pitch_bend_c, 7, 3456
18, 49892, Pitch_bend_c, 7, 3328
18, 49895, Pitch_bend_c, 7, 3200
18, 49897, Pitch_bend_c, 7, 2816
18, 49900, Pitch_bend_c, 7, 2560
18, 49902, Pitch_bend_c, 7, 2304
18, 49905, Pitch_bend_c, 7, 1664
18, 49907, Pitch_bend_c, 7, 1280
18, 49910, Pitch_bend_c, 7, 896
18, 49912, Pitch_bend_c, 7, 512
18, 49915, Pitch_bend_c, 7, 128
18, 49920, Pitch_bend_c, 7, 8192
18, 50097, Pitch_bend_c, 7, 4096
18, 50100, Note_on_c, 7, 65, 108
18, 50112, Pitch_bend_c, 7, 8192
18, 50160, Note_on_c, 7, 65, 0
18, 50160, Note_on_c, 7, 68, 108
18, 50220, Note_on_c, 7, 68, 0
18, 50220, Note_on_c, 7, 73, 108
18, 50340, Note_on_c, 7, 73, 0
18, 50340, Note_on_c, 7, 73, 108
18, 50490, Note_on_c, 7, 73, 0
18, 50490, Note_on_c, 7, 72, 108
18, 50520, Note_on_c, 7, 72, 0
18, 50520, Note_on_c, 7, 70, 92
18, 50550, Note_on_c, 7, 70, 0
18, 50550, Note_on_c, 7, 68, 94
18, 50580, Note_on_c, 7, 68, 0
18, 50580, Note_on_c, 7, 70, 108
18, 50640, Note_on_c, 7, 70, 0
18, 50640, Note_on_c, 7, 65, 108
18, 50700, Note_on_c, 7, 65, 0
18, 50700, Note_on_c, 7, 68, 113
18, 50939, Pitch_bend_c, 7, 4096
18, 50940, Note_on_c, 7, 68, 0
18, 50940, Note_on_c, 7, 72, 108
18, 50964, Pitch_bend_c, 7, 8192
18, 51060, Note_on_c, 7, 72, 0
18, 51060, Note_on_c, 7, 68, 108
18, 51180, Control_c, 7, 11, 126
18, 51187, Control_c, 7, 11, 125
18, 51197, Control_c, 7, 11, 124
18, 51205, Control_c, 7, 11, 123
18, 51212, Control_c, 7, 11, 122
18, 51217, Control_c, 7, 11, 121
18, 51222, Control_c, 7, 11, 120
18, 51230, Control_c, 7, 11, 119
18, 51232, Control_c, 7, 11, 118
18, 51242, Pitch_bend_c, 7, 8064
18, 51245, Control_c, 7, 11, 117
18, 51245, Pitch_bend_c, 7, 7936
18, 51247, Pitch_bend_c, 7, 7808
18, 51250, Control_c, 7, 11, 116
18, 51250, Pitch_bend_c, 7, 7552
18, 51255, Control_c, 7, 11, 115
18, 51255, Pitch_bend_c, 7, 7296
18, 51257, Pitch_bend_c, 7, 7040
18, 51260, Control_c, 7, 11, 114
18, 51262, Pitch_bend_c, 7, 6656
18, 51265, Control_c, 7, 11, 113
18, 51265, Pitch_bend_c, 7, 6400
18, 51267, Pitch_bend_c, 7, 6144
18, 51270, Control_c, 7, 11, 112
18, 51270, Pitch_bend_c, 7, 5888
18, 51272, Control_c, 7, 11, 111
18, 51272, Pitch_bend_c, 7, 5760
18, 51275, Pitch_bend_c, 7, 5504
18, 51277, Pitch_bend_c, 7, 5248
18, 51280, Control_c, 7, 11, 110
18, 51280, Pitch_bend_c, 7, 4992
18, 51282, Pitch_bend_c, 7, 4736
18, 51285, Pitch_bend_c, 7, 4480
18, 51287, Control_c, 7, 11, 109
18, 51287, Pitch_bend_c, 7, 4224
18, 51290, Control_c, 7, 11, 108
18, 51290, Pitch_bend_c, 7, 3968
18, 51292, Pitch_bend_c, 7, 3584
18, 51295, Control_c, 7, 11, 107
18, 51295, Pitch_bend_c, 7, 3072
18, 51297, Pitch_bend_c, 7, 2816
18, 51300, Note_on_c, 7, 68, 0
18, 51300, Pitch_bend_c, 7, 8192
18, 51302, Control_c, 7, 11, 106
18, 51305, Control_c, 7, 11, 105
18, 51310, Control_c, 7, 11, 104
18, 51312, Control_c, 7, 11, 103
18, 51320, Control_c, 7, 11, 102
18, 51325, Control_c, 7, 11, 101
18, 51330, Control_c, 7, 11, 100
18, 51332, Control_c, 7, 11, 99
18, 51337, Control_c, 7, 11, 98
18, 51360, Control_c, 7, 11, 127
18, 51480, Note_on_c, 7, 53, 108
18, 51540, Note_on_c, 7, 53, 0
18, 51540, Note_on_c, 7, 56, 98
18, 51600, Note_on_c, 7, 56, 0
18, 51600, Note_on_c, 7, 58, 108
18, 51660, Note_on_c, 7, 58, 0
18, 51660, Note_on_c, 7, 59, 98
18, 51720, Note_on_c, 7, 59, 0
18, 51720, Note_on_c, 7, 60, 108
18, 51780, Note_on_c, 7, 60, 0
18, 51780, Note_on_c, 7, 61, 98
18, 51840, Note_on_c, 7, 61, 0
18, 51840, Note_on_c, 7, 62, 108
18, 51900, Note_on_c, 7, 62, 0
18, 51900, Note_on_c, 7, 63, 98
18, 51960, Note_on_c, 7, 63, 0
18, 51960, Note_on_c, 7, 59, 108
18, 51990, Note_on_c, 7, 59, 0
18, 51990, Note_on_c, 7, 58, 98
18, 52020, Note_on_c, 7, 58, 0
18, 52020, Note_on_c, 7, 56, 108
18, 52080, Note_on_c, 7, 56, 0
18, 52080, Note_on_c, 7, 53, 108
18, 52140, Note_on_c, 7, 53, 0
18, 52140, Note_on_c, 7, 56, 108
18, 52200, Note_on_c, 7, 56, 0
18, 52200, Note_on_c, 7, 60, 108
18, 52260, Note_on_c, 7, 60, 0
18, 52260, Note_on_c, 7, 63, 108
18, 52319, Pitch_bend_c, 7, 3968
18, 52320, Note_on_c, 7, 63, 0
18, 52320, Note_on_c, 7, 68, 108
18, 52337, Pitch_bend_c, 7, 8192
18, 52380, Note_on_c, 7, 68, 0
18, 52380, Note_on_c, 7, 68, 108
18, 52500, Note_on_c, 7, 68, 0
18, 52500, Note_on_c, 7, 68, 112
18, 52622, Control_c, 7, 11, 126
18, 52632, Control_c, 7, 11, 124
18, 52642, Control_c, 7, 11, 123
18, 52655, Control_c, 7, 11, 121
18, 52665, Control_c, 7, 11, 119
18, 52675, Control_c, 7, 11, 118
18, 52682, Control_c, 7, 11, 116
18, 52685, Pitch_bend_c, 7, 8192
18, 52687, Pitch_bend_c, 7, 8064
18, 52690, Pitch_bend_c, 7, 7936
18, 52692, Control_c, 7, 11, 114
18, 52692, Pitch_bend_c, 7, 7808
18, 52695, Pitch_bend_c, 7, 7552
18, 52700, Control_c, 7, 11, 113
18, 52700, Pitch_bend_c, 7, 7296
18, 52702, Pitch_bend_c, 7, 7040
18, 52705, Pitch_bend_c, 7, 6912
18, 52710, Control_c, 7, 11, 112
18, 52710, Pitch_bend_c, 7, 6656
18, 52712, Pitch_bend_c, 7, 6528
18, 52715, Pitch_bend_c, 7, 6272
18, 52717, Control_c, 7, 11, 111
18, 52717, Pitch_bend_c, 7, 6144
18, 52720, Pitch_bend_c, 7, 5888
18, 52722, Control_c, 7, 11, 110
18, 52722, Pitch_bend_c, 7, 5760
18, 52725, Pitch_bend_c, 7, 5504
18, 52727, Pitch_bend_c, 7, 5248
18, 52732, Control_c, 7, 11, 109
18, 52732, Pitch_bend_c, 7, 4992
18, 52735, Pitch_bend_c, 7, 4736
18, 52740, Note_on_c, 7, 68, 0
18, 52740, Control_c, 7, 11, 108
18, 52740, Pitch_bend_c, 7, 4352
18, 52742, Pitch_bend_c, 7, 4096
18, 52745, Control_c, 7, 11, 106
18, 52745, Pitch_bend_c, 7, 3840
18, 52750, Pitch_bend_c, 7, 3584
18, 52752, Control_c, 7, 11, 105
18, 52752, Pitch_bend_c, 7, 3200
18, 52755, Pitch_bend_c, 7, 3072
18, 52757, Pitch_bend_c, 7, 2944
18, 52760, Pitch_bend_c, 7, 2688
18, 52762, Control_c, 7, 11, 104
18, 52762, Pitch_bend_c, 7, 2560
18, 52765, Pitch_bend_c, 7, 2304
18, 52767, Pitch_bend_c, 7, 1920
18, 52770, Control_c, 7, 11, 103
18, 52770, Pitch_bend_c, 7, 1792
18, 52772, Pitch_bend_c, 7, 1536
18, 52775, Pitch_bend_c, 7, 1408
18, 52777, Pitch_bend_c, 7, 1152
18, 52780, Control_c, 7, 11, 102
18, 52780, Pitch_bend_c, 7, 640
18, 52785, Control_c, 7, 11, 101
18, 52800, Pitch_bend_c, 7, 8192
18, 52810, Control_c, 7, 11, 100
18, 52822, Control_c, 7, 11, 99
18, 52830, Control_c, 7, 11, 98
18, 52855, Control_c, 7, 11, 99
18, 52860, Control_c, 7, 11, 100
18, 52865, Control_c, 7, 11, 101
18, 52870, Control_c, 7, 11, 102
18, 52872, Control_c, 7, 11, 103
18, 52877, Control_c, 7, 11, 104
18, 52882, Control_c, 7, 11, 105
18, 52885, Control_c, 7, 11, 106
18, 52890, Control_c, 7, 11, 107
18, 52892, Control_c, 7, 11, 108
18, 52895, Control_c, 7, 11, 109
18, 52897, Control_c, 7, 11, 110
18, 52900, Control_c, 7, 11, 111
18, 52902, Control_c, 7, 11, 112
18, 52905, Control_c, 7, 11, 114
18, 52907, Control_c, 7, 11, 115
18, 52912, Control_c, 7, 11, 117
18, 52915, Control_c, 7, 11, 118
18, 52917, Control_c, 7, 11, 119
18, 52920, Control_c, 7, 11, 120
18, 52922, Control_c, 7, 11, 122
18, 52925, Control_c, 7, 11, 123
18, 52927, Control_c, 7, 11, 124
18, 52930, Control_c, 7, 11, 126
18, 52932, Control_c, 7, 11, 127
18, 52980, Note_on_c, 7, 63, 108
18, 53040, Note_on_c, 7, 63, 0
18, 53040, Note_on_c, 7, 65, 98
18, 53100, Note_on_c, 7, 65, 0
18, 53100, Note_on_c, 7, 65, 100
18, 53160, Note_on_c, 7, 65, 0
18, 53160, Note_on_c, 7, 68, 108
18, 53220, Note_on_c, 7, 68, 0
18, 53220, Note_on_c, 7, 70, 108
18, 53280, Note_on_c, 7, 70, 0
18, 53280, Note_on_c, 7, 72, 106
18, 53340, Note_on_c, 7, 72, 0
18, 53340, Note_on_c, 7, 72, 96
18, 53400, Note_on_c, 7, 72, 0
18, 53400, Note_on_c, 7, 72, 92
18, 53460, Note_on_c, 7, 72, 0
18, 53460, Note_on_c, 7, 75, 113
18, 53520, Note_on_c, 7, 75, 0
18, 53520, Note_on_c, 7, 72, 108
18, 53580, Note_on_c, 7, 72, 0
18, 53580, Note_on_c, 7, 75, 113
18, 53700, Note_on_c, 7, 75, 0
18, 53700, Note_on_c, 7, 77, 108
18, 53760, Note_on_c, 7, 77, 0
18, 53760, Note_on_c, 7, 80, 113
18, 53820, Note_on_c, 7, 80, 0
18, 53820, Note_on_c, 7, 80, 98
18, 53880, Note_on_c, 7, 80, 0
18, 53880, Note_on_c, 7, 82, 118
18, 53940, Note_on_c, 7, 82, 0
18, 53940, Note_on_c, 7, 75, 108
18, 54087, Control_c, 7, 11, 125
18, 54090, Control_c, 7, 11, 124
18, 54097, Control_c, 7, 11, 122
18, 54100, Control_c, 7, 11, 121
18, 54105, Control_c, 7, 11, 120
18, 54110, Control_c, 7, 11, 118
18, 54117, Control_c, 7, 11, 117
18, 54125, Control_c, 7, 11, 115
18, 54132, Control_c, 7, 11, 114
18, 54135, Pitch_bend_c, 7, 8192
18, 54137, Pitch_bend_c, 7, 8064
18, 54140, Pitch_bend_c, 7, 7936
18, 54142, Control_c, 7, 11, 113
18, 54142, Pitch_bend_c, 7, 7808
18, 54147, Pitch_bend_c, 7, 7680
18, 54150, Pitch_bend_c, 7, 7552
18, 54152, Pitch_bend_c, 7, 7424
18, 54155, Control_c, 7, 11, 112
18, 54155, Pitch_bend_c, 7, 7168
18, 54157, Pitch_bend_c, 7, 7040
18, 54160, Pitch_bend_c, 7, 6912
18, 54165, Pitch_bend_c, 7, 6656
18, 54167, Pitch_bend_c, 7, 6528
18, 54170, Pitch_bend_c, 7, 6272
18, 54175, Pitch_bend_c, 7, 5888
18, 54177, Pitch_bend_c, 7, 5760
18, 54180, Note_on_c, 7, 75, 0
18, 54180, Pitch_bend_c, 7, 5504
18, 54185, Pitch_bend_c, 7, 5376
18, 54187, Pitch_bend_c, 7, 5120
18, 54190, Pitch_bend_c, 7, 4992
18, 54192, Pitch_bend_c, 7, 4736
18, 54195, Pitch_bend_c, 7, 4480
18, 54197, Pitch_bend_c, 7, 4352
18, 54200, Pitch_bend_c, 7, 4096
18, 54202, Pitch_bend_c, 7, 3968
18, 54205, Pitch_bend_c, 7, 3712
18, 54207, Pitch_bend_c, 7, 3456
18, 54210, Pitch_bend_c, 7, 3200
18, 54212, Pitch_bend_c, 7, 3072
18, 54215, Pitch_bend_c, 7, 2816
18, 54217, Pitch_bend_c, 7, 2432
18, 54220, Pitch_bend_c, 7, 2304
18, 54222, Pitch_bend_c, 7, 2048
18, 54225, Pitch_bend_c, 7, 1664
18, 54227, Pitch_bend_c, 7, 1408
18, 54230, Control_c, 7, 11, 113
18, 54230, Pitch_bend_c, 7, 1152
18, 54232, Pitch_bend_c, 7, 1024
18, 54235, Pitch_bend_c, 7, 896
18, 54237, Pitch_bend_c, 7, 1664
18, 54240, Pitch_bend_c, 7, 8192
18, 54245, Control_c, 7, 11, 114
18, 54265, Control_c, 7, 11, 115
18, 54267, Control_c, 7, 11, 116
18, 54270, Control_c, 7, 11, 117
18, 54275, Control_c, 7, 11, 118
18, 54277, Control_c, 7, 11, 120
18, 54280, Control_c, 7, 11, 122
18, 54282, Control_c, 7, 11, 123
18, 54285, Control_c, 7, 11, 126
18, 54287, Control_c, 7, 11, 127
18, 54420, Note_on_c, 7, 80, 118
18, 54480, Note_on_c, 7, 80, 0
18, 54480, Note_on_c, 7, 76, 114
18, 54540, Note_on_c, 7, 76, 0
18, 54540, Note_on_c, 7, 72, 112
18, 54600, Note_on_c, 7, 72, 0
18, 54600, Note_on_c, 7, 68, 98
18, 54660, Note_on_c, 7, 68, 0
18, 54660, Note_on_c, 7, 64, 104
18, 54715, Pitch_bend_c, 7, 4096
18, 54720, Note_on_c, 7, 64, 0
18, 54720, Note_on_c, 7, 77, 108
18, 54732, Pitch_bend_c, 7, 8192
18, 54900, Note_on_c, 7, 77, 0
18, 54900, Note_on_c, 7, 77, 113
18, 55015, Note_on_c, 7, 77, 0
18, 55020, Note_on_c, 7, 75, 104
18, 55170, Note_on_c, 7, 75, 0
18, 55170, Note_on_c, 7, 72, 102
18, 55200, Note_on_c, 7, 72, 0
18, 55200, Note_on_c, 7, 70, 88
18, 55230, Note_on_c, 7, 70, 0
18, 55230, Note_on_c, 7, 68, 92
18, 55260, Note_on_c, 7, 68, 0
18, 55260, Note_on_c, 7, 68, 100
18, 55290, Note_on_c, 7, 68, 0
18, 55320, Note_on_c, 7, 65, 108
18, 55350, Note_on_c, 7, 65, 0
18, 55380, Note_on_c, 7, 68, 98
18, 55410, Note_on_c, 7, 68, 0
18, 55440, Note_on_c, 7, 68, 88
18, 55500, Note_on_c, 7, 68, 0
18, 55500, Note_on_c, 7, 70, 98
18, 55560, Note_on_c, 7, 70, 0
18, 55560, Note_on_c, 7, 63, 108
18, 55620, Note_on_c, 7, 63, 0
18, 55620, Note_on_c, 7, 72, 108
18, 55799, Note_on_c, 7, 72, 0
18, 55799, Pitch_bend_c, 7, 6144
18, 55800, Note_on_c, 7, 72, 112
18, 55812, Pitch_bend_c, 7, 8192
18, 55977, Control_c, 7, 11, 127
18, 55980, Note_on_c, 7, 72, 0
18, 55980, Note_on_c, 7, 72, 98
18, 55982, Control_c, 7, 11, 126
18, 55985, Control_c, 7, 11, 125
18, 55987, Control_c, 7, 11, 124
18, 55992, Control_c, 7, 11, 123
18, 55995, Control_c, 7, 11, 122
18, 56000, Control_c, 7, 11, 121
18, 56010, Pitch_bend_c, 7, 8192
18, 56012, Control_c, 7, 11, 120
18, 56012, Pitch_bend_c, 7, 8064
18, 56015, Pitch_bend_c, 7, 7936
18, 56017, Control_c, 7, 11, 121
18, 56017, Pitch_bend_c, 7, 7552
18, 56020, Pitch_bend_c, 7, 7168
18, 56022, Control_c, 7, 11, 122
18, 56022, Pitch_bend_c, 7, 6784
18, 56025, Control_c, 7, 11, 123
18, 56025, Pitch_bend_c, 7, 6528
18, 56027, Pitch_bend_c, 7, 6144
18, 56030, Control_c, 7, 11, 124
18, 56030, Pitch_bend_c, 7, 6016
18, 56032, Control_c, 7, 11, 125
18, 56032, Pitch_bend_c, 7, 5632
18, 56035, Pitch_bend_c, 7, 5376
18, 56037, Control_c, 7, 11, 126
18, 56037, Pitch_bend_c, 7, 4864
18, 56038, Note_on_c, 7, 72, 0
18, 56040, Note_on_c, 7, 70, 102
18, 56040, Control_c, 7, 11, 127
18, 56042, Pitch_bend_c, 7, 8192
18, 56100, Note_on_c, 7, 70, 0
18, 56100, Note_on_c, 7, 68, 98
18, 56160, Note_on_c, 7, 68, 0
18, 56160, Note_on_c, 7, 73, 108
18, 56220, Note_on_c, 7, 73, 0
18, 56220, Note_on_c, 7, 68, 98
18, 56280, Note_on_c, 7, 68, 0
18, 56280, Note_on_c, 7, 75, 108
18, 56340, Note_on_c, 7, 75, 0
18, 56340, Note_on_c, 7, 68, 98
18, 56400, Note_on_c, 7, 68, 0
18, 56400, Note_on_c, 7, 77, 108
18, 56460, Note_on_c, 7, 77, 0
18, 56460, Note_on_c, 7, 68, 98
18, 56520, Note_on_c, 7, 68, 0
18, 56520, Note_on_c, 7, 75, 108
18, 56699, Pitch_bend_c, 7, 4096
18, 56700, Note_on_c, 7, 75, 0
18, 56700, Note_on_c, 7, 72, 108
18, 56716, Pitch_bend_c, 7, 8192
18, 56820, Pitch_bend_c, 7, 4096
18, 57122, Control_c, 7, 11, 127
18, 57125, Control_c, 7, 11, 126
18, 57130, Control_c, 7, 11, 125
18, 57137, Control_c, 7, 11, 124
18, 57140, Control_c, 7, 11, 123
18, 57147, Control_c, 7, 11, 122
18, 57150, Control_c, 7, 11, 121
18, 57157, Control_c, 7, 11, 120
18, 57162, Control_c, 7, 11, 119
18, 57167, Control_c, 7, 11, 118
18, 57170, Control_c, 7, 11, 117
18, 57175, Control_c, 7, 11, 116
18, 57180, Control_c, 7, 11, 115
18, 57182, Pitch_bend_c, 7, 4096
18, 57185, Control_c, 7, 11, 114
18, 57187, Control_c, 7, 11, 113
18, 57190, Pitch_bend_c, 7, 3968
18, 57192, Control_c, 7, 11, 112
18, 57195, Control_c, 7, 11, 111
18, 57195, Pitch_bend_c, 7, 3840
18, 57197, Pitch_bend_c, 7, 3712
18, 57200, Control_c, 7, 11, 110
18, 57200, Pitch_bend_c, 7, 3584
18, 57202, Control_c, 7, 11, 109
18, 57205, Pitch_bend_c, 7, 3456
18, 57207, Control_c, 7, 11, 108
18, 57207, Pitch_bend_c, 7, 3328
18, 57210, Control_c, 7, 11, 107
18, 57210, Pitch_bend_c, 7, 3200
18, 57215, Control_c, 7, 11, 106
18, 57215, Pitch_bend_c, 7, 3072
18, 57217, Control_c, 7, 11, 105
18, 57220, Pitch_bend_c, 7, 2944
18, 57222, Control_c, 7, 11, 104
18, 57222, Pitch_bend_c, 7, 2816
18, 57225, Control_c, 7, 11, 103
18, 57225, Pitch_bend_c, 7, 2688
18, 57227, Pitch_bend_c, 7, 2560
18, 57230, Control_c, 7, 11, 102
18, 57232, Control_c, 7, 11, 101
18, 57232, Pitch_bend_c, 7, 2304
18, 57235, Pitch_bend_c, 7, 2176
18, 57237, Control_c, 7, 11, 100
18, 57237, Pitch_bend_c, 7, 2048
18, 57240, Note_on_c, 7, 72, 0
18, 57240, Pitch_bend_c, 7, 1792
18, 57242, Control_c, 7, 11, 99
18, 57245, Control_c, 7, 11, 98
18, 57245, Pitch_bend_c, 7, 1536
18, 57247, Control_c, 7, 11, 97
18, 57247, Pitch_bend_c, 7, 1408
18, 57250, Control_c, 7, 11, 96
18, 57250, Pitch_bend_c, 7, 1152
18, 57252, Control_c, 7, 11, 95
18, 57252, Pitch_bend_c, 7, 1024
18, 57255, Control_c, 7, 11, 94
18, 57255, Pitch_bend_c, 7, 768
18, 57257, Control_c, 7, 11, 93
18, 57257, Pitch_bend_c, 7, 640
18, 57260, Pitch_bend_c, 7, 512
18, 57265, Control_c, 7, 11, 92
18, 57265, Pitch_bend_c, 7, 256
18, 57267, Pitch_bend_c, 7, 128
18, 57270, Control_c, 7, 11, 91
18, 57280, Control_c, 7, 11, 90
18, 57282, Control_c, 7, 11, 89
18, 57290, Control_c, 7, 11, 88
18, 57297, Control_c, 7, 11, 127
18, 57299, Pitch_bend_c, 7, 8192
18, 57300, Note_on_c, 7, 63, 98
18, 57360, Note_on_c, 7, 63, 0
18, 57360, Note_on_c, 7, 65, 108
18, 57420, Note_on_c, 7, 65, 0
18, 57420, Note_on_c, 7, 67, 98
18, 57480, Note_on_c, 7, 67, 0
18, 57480, Note_on_c, 7, 68, 108
18, 57540, Note_on_c, 7, 68, 0
18, 57540, Note_on_c, 7, 70, 98
18, 57600, Note_on_c, 7, 70, 0
18, 57600, Note_on_c, 7, 72, 108
18, 57720, Note_on_c, 7, 72, 0
18, 57720, Note_on_c, 7, 73, 108
18, 57780, Note_on_c, 7, 73, 0
18, 57840, Note_on_c, 7, 68, 108
18, 57900, Note_on_c, 7, 68, 0
18, 57960, Note_on_c, 7, 70, 108
18, 58140, Note_on_c, 7, 70, 0
18, 58140, Note_on_c, 7, 75, 108
18, 58200, Note_on_c, 7, 75, 0
18, 58200, Note_on_c, 7, 77, 98
18, 58260, Note_on_c, 7, 77, 0
18, 58260, Note_on_c, 7, 79, 108
18, 58380, Note_on_c, 7, 79, 0
18, 58380, Note_on_c, 7, 82, 98
18, 58440, Note_on_c, 7, 82, 0
18, 58440, Note_on_c, 7, 79, 104
18, 58500, Note_on_c, 7, 79, 0
18, 58500, Note_on_c, 7, 80, 108
18, 58740, Control_c, 7, 11, 127
18, 58742, Control_c, 7, 11, 126
18, 58747, Control_c, 7, 11, 125
18, 58752, Control_c, 7, 11, 124
18, 58757, Control_c, 7, 11, 123
18, 58762, Control_c, 7, 11, 122
18, 58767, Pitch_bend_c, 7, 8192
18, 58767, Control_c, 7, 11, 121
18, 58772, Control_c, 7, 11, 120
18, 58775, Pitch_bend_c, 7, 8064
18, 58777, Pitch_bend_c, 7, 7936
18, 58780, Control_c, 7, 11, 118
18, 58785, Pitch_bend_c, 7, 7808
18, 58785, Control_c, 7, 11, 117
18, 58787, Pitch_bend_c, 7, 7680
18, 58790, Control_c, 7, 11, 116
18, 58792, Pitch_bend_c, 7, 7424
18, 58792, Control_c, 7, 11, 115
18, 58797, Control_c, 7, 11, 114
18, 58800, Pitch_bend_c, 7, 7168
18, 58805, Pitch_bend_c, 7, 6912
18, 58807, Control_c, 7, 11, 113
18, 58810, Pitch_bend_c, 7, 6784
18, 58812, Pitch_bend_c, 7, 6656
18, 58815, Pitch_bend_c, 7, 6400
18, 58817, Pitch_bend_c, 7, 6144
18, 58822, Pitch_bend_c, 7, 6016
18, 58825, Pitch_bend_c, 7, 5888
18, 58827, Pitch_bend_c, 7, 5632
18, 58832, Pitch_bend_c, 7, 5504
18, 58835, Pitch_bend_c, 7, 5248
18, 58837, Pitch_bend_c, 7, 5120
18, 58840, Pitch_bend_c, 7, 4992
18, 58842, Pitch_bend_c, 7, 4864
18, 58847, Pitch_bend_c, 7, 4608
18, 58850, Pitch_bend_c, 7, 4480
18, 58852, Pitch_bend_c, 7, 4352
18, 58855, Pitch_bend_c, 7, 4224
18, 58857, Pitch_bend_c, 7, 3968
18, 58860, Note_on_c, 7, 80, 0
18, 58860, Pitch_bend_c, 7, 3840
18, 58862, Pitch_bend_c, 7, 3712
18, 58865, Pitch_bend_c, 7, 3584
18, 58867, Pitch_bend_c, 7, 3456
18, 58870, Pitch_bend_c, 7, 3328
18, 58872, Pitch_bend_c, 7, 3072
18, 58875, Pitch_bend_c, 7, 2816
18, 58877, Pitch_bend_c, 7, 2688
18, 58880, Pitch_bend_c, 7, 2560
18, 58882, Pitch_bend_c, 7, 2432
18, 58885, Pitch_bend_c, 7, 2176
18, 58887, Pitch_bend_c, 7, 1920
18, 58890, Pitch_bend_c, 7, 1792
18, 58892, Pitch_bend_c, 7, 1408
18, 58895, Pitch_bend_c, 7, 1152
18, 58895, Control_c, 7, 11, 114
18, 58897, Pitch_bend_c, 7, 768
18, 58900, Pitch_bend_c, 7, 384
18, 58900, Control_c, 7, 11, 115
18, 58905, Control_c, 7, 11, 116
18, 58907, Control_c, 7, 11, 117
18, 58910, Control_c, 7, 11, 118
18, 58912, Control_c, 7, 11, 119
18, 58915, Control_c, 7, 11, 120
18, 58917, Pitch_bend_c, 7, 8192
18, 58917, Control_c, 7, 11, 122
18, 58920, Control_c, 7, 11, 125
18, 58980, Note_on_c, 7, 68, 108
18, 59040, Note_on_c, 7, 68, 0
18, 59040, Note_on_c, 7, 77, 108
18, 59280, Note_on_c, 7, 77, 0
18, 59280, Note_on_c, 7, 75, 108
18, 59340, Note_on_c, 7, 75, 0
18, 59340, Note_on_c, 7, 73, 108
18, 59400, Note_on_c, 7, 73, 0
18, 59400, Note_on_c, 7, 75, 108
18, 59522, Control_c, 7, 11, 127
18, 59525, Control_c, 7, 11, 126
18, 59530, Control_c, 7, 11, 125
18, 59532, Control_c, 7, 11, 124
18, 59535, Control_c, 7, 11, 123
18, 59540, Control_c, 7, 11, 122
18, 59542, Control_c, 7, 11, 121
18, 59547, Pitch_bend_c, 7, 8192
18, 59550, Control_c, 7, 11, 120
18, 59550, Pitch_bend_c, 7, 8064
18, 59555, Pitch_bend_c, 7, 7936
18, 59557, Control_c, 7, 11, 119
18, 59560, Pitch_bend_c, 7, 7808
18, 59562, Control_c, 7, 11, 118
18, 59562, Pitch_bend_c, 7, 7680
18, 59565, Pitch_bend_c, 7, 7552
18, 59567, Pitch_bend_c, 7, 7296
18, 59570, Control_c, 7, 11, 117
18, 59570, Pitch_bend_c, 7, 7168
18, 59572, Pitch_bend_c, 7, 6912
18, 59575, Pitch_bend_c, 7, 6784
18, 59577, Pitch_bend_c, 7, 6656
18, 59580, Note_on_c, 7, 75, 0
18, 59580, Control_c, 7, 11, 116
18, 59580, Pitch_bend_c, 7, 6400
18, 59582, Pitch_bend_c, 7, 6144
18, 59585, Pitch_bend_c, 7, 5888
18, 59587, Pitch_bend_c, 7, 5760
18, 59590, Pitch_bend_c, 7, 5376
18, 59592, Pitch_bend_c, 7, 5248
18, 59595, Control_c, 7, 11, 115
18, 59595, Pitch_bend_c, 7, 4992
18, 59597, Pitch_bend_c, 7, 4736
18, 59600, Pitch_bend_c, 7, 4480
18, 59602, Pitch_bend_c, 7, 4224
18, 59605, Pitch_bend_c, 7, 3968
18, 59607, Pitch_bend_c, 7, 3584
18, 59610, Pitch_bend_c, 7, 3200
18, 59612, Pitch_bend_c, 7, 2688
18, 59615, Pitch_bend_c, 7, 2304
18, 59617, Pitch_bend_c, 7, 1920
18, 59620, Pitch_bend_c, 7, 1280
18, 59622, Pitch_bend_c, 7, 768
18, 59625, Control_c, 7, 11, 116
18, 59625, Pitch_bend_c, 7, 384
18, 59627, Pitch_bend_c, 7, 128
18, 59637, Pitch_bend_c, 7, 8192
18, 59640, Note_on_c, 7, 65, 108
18, 59642, Control_c, 7, 11, 117
18, 59650, Control_c, 7, 11, 118
18, 59660, Control_c, 7, 11, 119
18, 59665, Control_c, 7, 11, 120
18, 59672, Control_c, 7, 11, 121
18, 59677, Control_c, 7, 11, 122
18, 59680, Control_c, 7, 11, 123
18, 59682, Control_c, 7, 11, 124
18, 59687, Control_c, 7, 11, 125
18, 59690, Control_c, 7, 11, 126
18, 59695, Control_c, 7, 11, 127
18, 59700, Note_on_c, 7, 65, 0
18, 59700, Note_on_c, 7, 67, 108
18, 59760, Note_on_c, 7, 67, 0
18, 59760, Note_on_c, 7, 68, 108
18, 59820, Note_on_c, 7, 68, 0
18, 59820, Note_on_c, 7, 65, 98
18, 59880, Note_on_c, 7, 65, 0
18, 59880, Note_on_c, 7, 70, 108
18, 59940, Note_on_c, 7, 70, 0
18, 59940, Note_on_c, 7, 65, 98
18, 60000, Note_on_c, 7, 65, 0
18, 60000, Note_on_c, 7, 72, 108
18, 60060, Note_on_c, 7, 72, 0
18, 60060, Note_on_c, 7, 65, 98
18, 60120, Note_on_c, 7, 65, 0
18, 60120, Note_on_c, 7, 72, 108
18, 60300, Note_on_c, 7, 72, 0
18, 60300, Note_on_c, 7, 70, 108
18, 60362, Pitch_bend_c, 7, 8192
18, 60367, Pitch_bend_c, 7, 8448
18, 60370, Pitch_bend_c, 7, 8576
18, 60375, Pitch_bend_c, 7, 8704
18, 60377, Pitch_bend_c, 7, 8960
18, 60380, Pitch_bend_c, 7, 9088
18, 60385, Pitch_bend_c, 7, 9344
18, 60387, Pitch_bend_c, 7, 9600
18, 60392, Pitch_bend_c, 7, 9728
18, 60395, Pitch_bend_c, 7, 9984
18, 60397, Pitch_bend_c, 7, 10112
18, 60400, Pitch_bend_c, 7, 10240
18, 60402, Pitch_bend_c, 7, 10496
18, 60405, Pitch_bend_c, 7, 10880
18, 60407, Pitch_bend_c, 7, 11265
18, 60410, Pitch_bend_c, 7, 11604
18, 60412, Pitch_bend_c, 7, 11864
18, 60416, Pitch_bend_c, 7, 12032
18, 60420, Pitch_bend_c, 7, 12288
18, 60427, Pitch_bend_c, 7, 8192
18, 60428, Note_on_c, 7, 72, 94
18, 60487, Note_on_c, 7, 70, 0
18, 60540, Control_c, 7, 11, 127
18, 60550, Control_c, 7, 11, 126
18, 60561, Control_c, 7, 11, 125
18, 60572, Control_c, 7, 11, 124
18, 60583, Control_c, 7, 11, 123
18, 60594, Control_c, 7, 11, 122
18, 60605, Control_c, 7, 11, 121
18, 60616, Control_c, 7, 11, 120
18, 60626, Control_c, 7, 11, 119
18, 60637, Control_c, 7, 11, 118
18, 60648, Control_c, 7, 11, 117
18, 60659, Control_c, 7, 11, 116
18, 60670, Control_c, 7, 11, 115
18, 60681, Control_c, 7, 11, 114
18, 60692, Control_c, 7, 11, 113
18, 60702, Control_c, 7, 11, 112
18, 60713, Control_c, 7, 11, 111
18, 60724, Control_c, 7, 11, 110
18, 60735, Control_c, 7, 11, 109
18, 60746, Control_c, 7, 11, 108
18, 60757, Control_c, 7, 11, 107
18, 60768, Control_c, 7, 11, 106
18, 60779, Control_c, 7, 11, 105
18, 60789, Control_c, 7, 11, 104
18, 60800, Control_c, 7, 11, 103
18, 60811, Control_c, 7, 11, 102
18, 60822, Control_c, 7, 11, 101
18, 60833, Control_c, 7, 11, 100
18, 60844, Control_c, 7, 11, 99
18, 60855, Control_c, 7, 11, 98
18, 60865, Control_c, 7, 11, 97
18, 60876, Control_c, 7, 11, 96
18, 60887, Control_c, 7, 11, 95
18, 60898, Control_c, 7, 11, 94
18, 60909, Control_c, 7, 11, 93
18, 60920, Control_c, 7, 11, 92
18, 60931, Control_c, 7, 11, 91
18, 60942, Control_c, 7, 11, 90
18, 60952, Control_c, 7, 11, 89
18, 60963, Control_c, 7, 11, 88
18, 60974, Control_c, 7, 11, 87
18, 60985, Control_c, 7, 11, 86
18, 60996, Control_c, 7, 11, 85
18, 61007, Control_c, 7, 11, 84
18, 61018, Control_c, 7, 11, 83
18, 61028, Control_c, 7, 11, 82
18, 61039, Control_c, 7, 11, 81
18, 61050, Control_c, 7, 11, 80
18, 61061, Control_c, 7, 11, 79
18, 61072, Control_c, 7, 11, 78
18, 61083, Control_c, 7, 11, 77
18, 61094, Control_c, 7, 11, 76
18, 61105, Control_c, 7, 11, 75
18, 61115, Control_c, 7, 11, 74
18, 61126, Control_c, 7, 11, 73
18, 61137, Control_c, 7, 11, 72
18, 61148, Control_c, 7, 11, 71
18, 61159, Control_c, 7, 11, 70
18, 61170, Control_c, 7, 11, 69
18, 61181, Control_c, 7, 11, 68
18, 61191, Control_c, 7, 11, 67
18, 61202, Control_c, 7, 11, 66
18, 61213, Control_c, 7, 11, 65
18, 61224, Control_c, 7, 11, 64
18, 61235, Control_c, 7, 11, 63
18, 61246, Control_c, 7, 11, 62
18, 61257, Control_c, 7, 11, 61
18, 61268, Control_c, 7, 11, 60
18, 61278, Control_c, 7, 11, 59
18, 61289, Control_c, 7, 11, 58
18, 61300, Control_c, 7, 11, 57
18, 61311, Control_c, 7, 11, 56
18, 61322, Control_c, 7, 11, 55
18, 61333, Control_c, 7, 11, 54
18, 61344, Control_c, 7, 11, 53
18, 61354, Control_c, 7, 11, 52
18, 61365, Control_c, 7, 11, 51
18, 61376, Control_c, 7, 11, 50
18, 61387, Control_c, 7, 11, 49
18, 61398, Control_c, 7, 11, 48
18, 61409, Control_c, 7, 11, 47
18, 61420, Control_c, 7, 11, 46
18, 61431, Control_c, 7, 11, 45
18, 61441, Control_c, 7, 11, 44
18, 61452, Control_c, 7, 11, 43
18, 61463, Control_c, 7, 11, 42
18, 61474, Control_c, 7, 11, 41
18, 61485, Control_c, 7, 11, 40
18, 61496, Control_c, 7, 11, 39
18, 61507, Control_c, 7, 11, 38
18, 61517, Control_c, 7, 11, 37
18, 61528, Control_c, 7, 11, 36
18, 61539, Control_c, 7, 11, 35
18, 61550, Control_c, 7, 11, 34
18, 61561, Control_c, 7, 11, 33
18, 61572, Control_c, 7, 11, 32
18, 61583, Control_c, 7, 11, 31
18, 61594, Control_c, 7, 11, 30
18, 61604, Control_c, 7, 11, 29
18, 61615, Control_c, 7, 11, 28
18, 61626, Control_c, 7, 11, 27
18, 61637, Control_c, 7, 11, 26
18, 61648, Control_c, 7, 11, 25
18, 61659, Control_c, 7, 11, 24
18, 61670, Control_c, 7, 11, 23
18, 61680, Control_c, 7, 11, 22
18, 61691, Control_c, 7, 11, 21
18, 61702, Control_c, 7, 11, 20
18, 61713, Control_c, 7, 11, 19
18, 61724, Control_c, 7, 11, 18
18, 61735, Control_c, 7, 11, 17
18, 61746, Control_c, 7, 11, 16
18, 61757, Control_c, 7, 11, 15
18, 61767, Control_c, 7, 11, 14
18, 61778, Control_c, 7, 11, 13
18, 61789, Control_c, 7, 11, 12
18, 61800, Control_c, 7, 11, 11
18, 61811, Control_c, 7, 11, 10
18, 61822, Control_c, 7, 11, 9
18, 61833, Control_c, 7, 11, 8
18, 61843, Control_c, 7, 11, 7
18, 61854, Control_c, 7, 11, 6
18, 61865, Control_c, 7, 11, 5
18, 61876, Control_c, 7, 11, 4
18, 61887, Control_c, 7, 11, 3
18, 61898, Control_c, 7, 11, 2
18, 61909, Control_c, 7, 11, 1
18, 61920, Control_c, 7, 11, 0
18, 61981, Control_c, 7, 11, 127
18, 61988, Note_on_c, 7, 72, 0
18, 92160, Note_on_c, 7, 75, 118
18, 92460, Note_on_c, 7, 75, 0
18, 92460, Note_on_c, 7, 80, 118
18, 92550, Pitch_bend_c, 7, 8192
18, 92552, Pitch_bend_c, 7, 8064
18, 92552, Control_c, 7, 11, 126
18, 92555, Pitch_bend_c, 7, 7808
18, 92557, Pitch_bend_c, 7, 7424
18, 92557, Control_c, 7, 11, 125
18, 92560, Pitch_bend_c, 7, 6784
18, 92560, Control_c, 7, 11, 124
18, 92562, Pitch_bend_c, 7, 6144
18, 92562, Control_c, 7, 11, 123
18, 92565, Pitch_bend_c, 7, 5376
18, 92567, Pitch_bend_c, 7, 4352
18, 92567, Control_c, 7, 11, 122
18, 92570, Pitch_bend_c, 7, 3200
18, 92572, Pitch_bend_c, 7, 1792
18, 92575, Pitch_bend_c, 7, 128
18, 92580, Note_on_c, 7, 80, 0
18, 92580, Control_c, 7, 11, 121
18, 92595, Control_c, 7, 11, 120
18, 92602, Control_c, 7, 11, 121
18, 92617, Control_c, 7, 11, 122
18, 92625, Control_c, 7, 11, 123
18, 92630, Control_c, 7, 11, 124
18, 92635, Control_c, 7, 11, 125
18, 92637, Control_c, 7, 11, 126
18, 92640, Pitch_bend_c, 7, 8192
18, 92695, Pitch_bend_c, 7, 4096
18, 92700, Note_on_c, 7, 72, 118
18, 92717, Pitch_bend_c, 7, 8192
18, 92820, Note_on_c, 7, 72, 0
18, 92820, Note_on_c, 7, 70, 118
18, 92940, Note_on_c, 7, 70, 0
18, 92940, Note_on_c, 7, 75, 118
18, 93055, Pitch_bend_c, 7, 4096
18, 93060, Note_on_c, 7, 75, 0
18, 93060, Note_on_c, 7, 72, 118
18, 93072, Pitch_bend_c, 7, 8192
18, 93077, Pitch_bend_c, 7, 8192
18, 93360, Note_on_c, 7, 72, 0
18, 93480, Note_on_c, 7, 63, 118
18, 93542, Pitch_bend_c, 7, 12288
18, 93600, Note_on_c, 7, 63, 0
18, 93600, Note_on_c, 7, 68, 118
18, 93600, Pitch_bend_c, 7, 8192
18, 93660, Note_on_c, 7, 68, 0
18, 93660, Note_on_c, 7, 65, 107
18, 93720, Note_on_c, 7, 65, 0
18, 93720, Note_on_c, 7, 68, 118
18, 93780, Note_on_c, 7, 68, 0
18, 93780, Note_on_c, 7, 68, 118
18, 93840, Note_on_c, 7, 68, 0
18, 93840, Note_on_c, 7, 65, 107
18, 93900, Note_on_c, 7, 65, 0
18, 93900, Note_on_c, 7, 68, 118
18, 93955, Pitch_bend_c, 7, 6144
18, 93960, Note_on_c, 7, 68, 0
18, 93960, Note_on_c, 7, 77, 118
18, 93975, Pitch_bend_c, 7, 8192
18, 93997, Control_c, 7, 11, 126
18, 94000, Control_c, 7, 11, 125
18, 94002, Control_c, 7, 11, 124
18, 94007, Control_c, 7, 11, 123
18, 94015, Control_c, 7, 11, 122
18, 94020, Control_c, 7, 11, 121
18, 94040, Control_c, 7, 11, 122
18, 94045, Control_c, 7, 11, 123
18, 94055, Control_c, 7, 11, 124
18, 94060, Control_c, 7, 11, 125
18, 94065, Control_c, 7, 11, 126
18, 94067, Control_c, 7, 11, 127
18, 94135, Pitch_bend_c, 7, 4096
18, 94140, Note_on_c, 7, 77, 0
18, 94140, Note_on_c, 7, 72, 118
18, 94152, Pitch_bend_c, 7, 8192
18, 94260, Note_on_c, 7, 72, 0
18, 94260, Note_on_c, 7, 70, 118
18, 94650, Pitch_bend_c, 7, 8192
18, 94655, Pitch_bend_c, 7, 8064
18, 94657, Pitch_bend_c, 7, 7808
18, 94662, Pitch_bend_c, 7, 7552
18, 94665, Pitch_bend_c, 7, 7296
18, 94667, Pitch_bend_c, 7, 7168
18, 94670, Pitch_bend_c, 7, 7040
18, 94672, Pitch_bend_c, 7, 6912
18, 94675, Pitch_bend_c, 7, 6656
18, 94677, Pitch_bend_c, 7, 6528
18, 94680, Note_on_c, 7, 70, 0
18, 94680, Pitch_bend_c, 7, 6272
18, 94680, Control_c, 7, 11, 127
18, 94682, Pitch_bend_c, 7, 6144
18, 94682, Control_c, 7, 11, 126
18, 94685, Pitch_bend_c, 7, 5888
18, 94687, Pitch_bend_c, 7, 5632
18, 94687, Control_c, 7, 11, 124
18, 94690, Pitch_bend_c, 7, 5504
18, 94692, Pitch_bend_c, 7, 5376
18, 94692, Control_c, 7, 11, 123
18, 94695, Pitch_bend_c, 7, 4864
18, 94697, Pitch_bend_c, 7, 4736
18, 94697, Control_c, 7, 11, 122
18, 94700, Pitch_bend_c, 7, 4352
18, 94702, Pitch_bend_c, 7, 4096
18, 94705, Pitch_bend_c, 7, 3840
18, 94705, Control_c, 7, 11, 121
18, 94707, Pitch_bend_c, 7, 3584
18, 94710, Pitch_bend_c, 7, 3072
18, 94712, Pitch_bend_c, 7, 2944
18, 94712, Control_c, 7, 11, 120
18, 94715, Pitch_bend_c, 7, 2432
18, 94717, Pitch_bend_c, 7, 2176
18, 94720, Pitch_bend_c, 7, 1664
18, 94722, Pitch_bend_c, 7, 1408
18, 94725, Pitch_bend_c, 7, 1152
18, 94727, Pitch_bend_c, 7, 640
18, 94730, Pitch_bend_c, 7, 256
18, 94732, Pitch_bend_c, 7, 128
18, 94740, Control_c, 7, 11, 119
18, 94747, Control_c, 7, 11, 120
18, 94757, Control_c, 7, 11, 121
18, 94762, Control_c, 7, 11, 122
18, 94767, Control_c, 7, 11, 123
18, 94772, Control_c, 7, 11, 124
18, 94780, Control_c, 7, 11, 125
18, 94782, Control_c, 7, 11, 126
18, 94785, Control_c, 7, 11, 127
18, 94797, Pitch_bend_c, 7, 8192
18, 96360, Note_on_c, 7, 56, 118
18, 96420, Note_on_c, 7, 56, 0
18, 96420, Note_on_c, 7, 58, 108
18, 96480, Note_on_c, 7, 58, 0
18, 96480, Note_on_c, 7, 61, 118
18, 96600, Note_on_c, 7, 61, 0
18, 96600, Note_on_c, 7, 61, 108
18, 96660, Note_on_c, 7, 61, 0
18, 96720, Note_on_c, 7, 63, 118
18, 96780, Note_on_c, 7, 63, 0
18, 96780, Note_on_c, 7, 65, 118
18, 96840, Note_on_c, 7, 65, 0
18, 96840, Note_on_c, 7, 63, 108
18, 97020, Note_on_c, 7, 63, 0
18, 97020, Note_on_c, 7, 68, 118
18, 97080, Note_on_c, 7, 68, 0
18, 97080, Note_on_c, 7, 63, 107
18, 97140, Note_on_c, 7, 63, 0
18, 97140, Note_on_c, 7, 70, 118
18, 97200, Pitch_bend_c, 7, 10240
18, 97260, Note_on_c, 7, 70, 0
18, 97260, Pitch_bend_c, 7, 8192
18, 97260, Note_on_c, 7, 63, 107
18, 97320, Note_on_c, 7, 63, 0
18, 97320, Note_on_c, 7, 73, 118
18, 97380, Note_on_c, 7, 73, 0
18, 97380, Note_on_c, 7, 63, 107
18, 97440, Note_on_c, 7, 63, 0
18, 97440, Note_on_c, 7, 75, 118
18, 97500, Note_on_c, 7, 75, 0
18, 97500, Note_on_c, 7, 63, 107
18, 97557, Pitch_bend_c, 7, 5504
18, 97560, Note_on_c, 7, 63, 0
18, 97560, Note_on_c, 7, 80, 118
18, 97576, Pitch_bend_c, 7, 8192
18, 97737, Pitch_bend_c, 7, 6016
18, 97740, Note_on_c, 7, 80, 0
18, 97740, Note_on_c, 7, 72, 118
18, 97757, Pitch_bend_c, 7, 8192
18, 97800, Pitch_bend_c, 7, 4096
18, 97860, Note_on_c, 7, 72, 0
18, 97860, Note_on_c, 7, 68, 118
18, 97860, Pitch_bend_c, 7, 8192
18, 98280, Control_c, 7, 11, 127
18, 98285, Control_c, 7, 11, 126
18, 98300, Control_c, 7, 11, 125
18, 98305, Control_c, 7, 11, 124
18, 98315, Control_c, 7, 11, 123
18, 98317, Control_c, 7, 11, 122
18, 98327, Control_c, 7, 11, 121
18, 98335, Control_c, 7, 11, 120
18, 98340, Control_c, 7, 11, 119
18, 98350, Control_c, 7, 11, 118
18, 98357, Control_c, 7, 11, 117
18, 98365, Control_c, 7, 11, 116
18, 98372, Control_c, 7, 11, 114
18, 98382, Control_c, 7, 11, 113
18, 98390, Control_c, 7, 11, 112
18, 98397, Control_c, 7, 11, 111
18, 98405, Control_c, 7, 11, 110
18, 98415, Control_c, 7, 11, 108
18, 98422, Control_c, 7, 11, 106
18, 98435, Control_c, 7, 11, 103
18, 98447, Control_c, 7, 11, 101
18, 98460, Control_c, 7, 11, 99
18, 98472, Control_c, 7, 11, 97
18, 98485, Control_c, 7, 11, 95
18, 98495, Control_c, 7, 11, 93
18, 98505, Control_c, 7, 11, 91
18, 98515, Control_c, 7, 11, 90
18, 98525, Control_c, 7, 11, 88
18, 98535, Control_c, 7, 11, 87
18, 98542, Control_c, 7, 11, 86
18, 98550, Control_c, 7, 11, 85
18, 98557, Control_c, 7, 11, 84
18, 98565, Control_c, 7, 11, 83
18, 98572, Control_c, 7, 11, 82
18, 98577, Control_c, 7, 11, 81
18, 98580, Control_c, 7, 11, 80
18, 98587, Control_c, 7, 11, 79
18, 98595, Control_c, 7, 11, 78
18, 98600, Control_c, 7, 11, 77
18, 98607, Control_c, 7, 11, 76
18, 98612, Control_c, 7, 11, 75
18, 98617, Control_c, 7, 11, 74
18, 98622, Control_c, 7, 11, 73
18, 98627, Control_c, 7, 11, 72
18, 98632, Control_c, 7, 11, 71
18, 98635, Control_c, 7, 11, 70
18, 98637, Control_c, 7, 11, 69
18, 98640, Note_on_c, 7, 68, 0
18, 98640, Control_c, 7, 11, 126
18, 115200, Control_c, 7, 11, 127
18, 115245, Control_c, 7, 11, 126
18, 115290, Control_c, 7, 11, 125
18, 115336, Control_c, 7, 11, 124
18, 115381, Control_c, 7, 11, 123
18, 115426, Control_c, 7, 11, 122
18, 115472, Control_c, 7, 11, 121
18, 115517, Control_c, 7, 11, 120
18, 115562, Control_c, 7, 11, 119
18, 115608, Control_c, 7, 11, 118
18, 115653, Control_c, 7, 11, 117
18, 115698, Control_c, 7, 11, 116
18, 115744, Control_c, 7, 11, 115
18, 115789, Control_c, 7, 11, 114
18, 115834, Control_c, 7, 11, 113
18, 115880, Control_c, 7, 11, 112
18, 115925, Control_c, 7, 11, 111
18, 115970, Control_c, 7, 11, 110
18, 116016, Control_c, 7, 11, 109
18, 116061, Control_c, 7, 11, 108
18, 116106, Control_c, 7, 11, 107
18, 116152, Control_c, 7, 11, 106
18, 116197, Control_c, 7, 11, 105
18, 116242, Control_c, 7, 11, 104
18, 116288, Control_c, 7, 11, 103
18, 116333, Control_c, 7, 11, 102
18, 116379, Control_c, 7, 11, 101
18, 116424, Control_c, 7, 11, 100
18, 116469, Control_c, 7, 11, 99
18, 116515, Control_c, 7, 11, 98
18, 116560, Control_c, 7, 11, 97
18, 116605, Control_c, 7, 11, 96
18, 116651, Control_c, 7, 11, 95
18, 116696, Control_c, 7, 11, 94
18, 116741, Control_c, 7, 11, 93
18, 116787, Control_c, 7, 11, 92
18, 116832, Control_c, 7, 11, 91
18, 116877, Control_c, 7, 11, 90
18, 116923, Control_c, 7, 11, 89
18, 116968, Control_c, 7, 11, 88
18, 117013, Control_c, 7, 11, 87
18, 117059, Control_c, 7, 11, 86
18, 117104, Control_c, 7, 11, 85
18, 117149, Control_c, 7, 11, 84
18, 117195, Control_c, 7, 11, 83
18, 117240, Control_c, 7, 11, 82
18, 117285, Control_c, 7, 11, 81
18, 117331, Control_c, 7, 11, 80
18, 117376, Control_c, 7, 11, 79
18, 117421, Control_c, 7, 11, 78
18, 117467, Control_c, 7, 11, 77
18, 117512, Control_c, 7, 11, 76
18, 117558, Control_c, 7, 11, 75
18, 117603, Control_c, 7, 11, 74
18, 117648, Control_c, 7, 11, 73
18, 117694, Control_c, 7, 11, 72
18, 117739, Control_c, 7, 11, 71
18, 117784, Control_c, 7, 11, 70
18, 117830, Control_c, 7, 11, 69
18, 117875, Control_c, 7, 11, 68
18, 117920, Control_c, 7, 11, 67
18, 117966, Control_c, 7, 11, 66
18, 118011, Control_c, 7, 11, 65
18, 118056, Control_c, 7, 11, 64
18, 118102, Control_c, 7, 11, 63
18, 118147, Control_c, 7, 11, 62
18, 118192, Control_c, 7, 11, 61
18, 118238, Control_c, 7, 11, 60
18, 118283, Control_c, 7, 11, 59
18, 118328, Control_c, 7, 11, 58
18, 118374, Control_c, 7, 11, 57
18, 118419, Control_c, 7, 11, 56
18, 118464, Control_c, 7, 11, 55
18, 118510, Control_c, 7, 11, 54
18, 118555, Control_c, 7, 11, 53
18, 118600, Control_c, 7, 11, 52
18, 118646, Control_c, 7, 11, 51
18, 118691, Control_c, 7, 11, 50
18, 118737, Control_c, 7, 11, 49
18, 118782, Control_c, 7, 11, 48
18, 118827, Control_c, 7, 11, 47
18, 118873, Control_c, 7, 11, 46
18, 118918, Control_c, 7, 11, 45
18, 118963, Control_c, 7, 11, 44
18, 119009, Control_c, 7, 11, 43
18, 119054, Control_c, 7, 11, 42
18, 119099, Control_c, 7, 11, 41
18, 119145, Control_c, 7, 11, 40
18, 119190, Control_c, 7, 11, 39
18, 119235, Control_c, 7, 11, 38
18, 119281, Control_c, 7, 11, 37
18, 119326, Control_c, 7, 11, 36
18, 119371, Control_c, 7, 11, 35
18, 119417, Control_c, 7, 11, 34
18, 119462, Control_c, 7, 11, 33
18, 119507, Control_c, 7, 11, 32
18, 119553, Control_c, 7, 11, 31
18, 119598, Control_c, 7, 11, 30
18, 119643, Control_c, 7, 11, 29
18, 119689, Control_c, 7, 11, 28
18, 119734, Control_c, 7, 11, 27
18, 119779, Control_c, 7, 11, 26
18, 119825, Control_c, 7, 11, 25
18, 119870, Control_c, 7, 11, 24
18, 119916, Control_c, 7, 11, 23
18, 119961, Control_c, 7, 11, 22
18, 120006, Control_c, 7, 11, 21
18, 120052, Control_c, 7, 11, 20
18, 120097, Control_c, 7, 11, 19
18, 120142, Control_c, 7, 11, 18
18, 120188, Control_c, 7, 11, 17
18, 120233, Control_c, 7, 11, 16
18, 120278, Control_c, 7, 11, 15
18, 120324, Control_c, 7, 11, 14
18, 120369, Control_c, 7, 11, 13
18, 120414, Control_c, 7, 11, 12
18, 120460, Control_c, 7, 11, 11
18, 120505, Control_c, 7, 11, 10
18, 120550, Control_c, 7, 11, 9
18, 120596, Control_c, 7, 11, 8
18, 120641, Control_c, 7, 11, 7
18, 120686, Control_c, 7, 11, 6
18, 120732, Control_c, 7, 11, 5
18, 120777, Control_c, 7, 11, 4
18, 120822, Control_c, 7, 11, 3
18, 120868, Control_c, 7, 11, 2
18, 120913, Control_c, 7, 11, 1
18, 120959, Control_c, 7, 11, 0
18, 121403, Control_c, 7, 121, 0
18, 121403, End_track
19, 0, Start_track
19, 0, MIDI_port, 0
19, 0, Title_t, "Chorused Guitar"
19, 240, Control_c, 8, 121, 0
19, 241, Control_c, 8, 0, 0
19, 241, Control_c, 8, 32, 8
19, 241, Program_c, 8, 27
19, 242, Control_c, 8, 7, 100
19, 243, Control_c, 8, 10, 38
19, 244, Control_c, 8, 91, 100
19, 245, Control_c, 8, 93, 48
19, 246, Control_c, 8, 99, 1
19, 247, Control_c, 8, 98, 32
19, 248, Control_c, 8, 6, 68
19, 249, Control_c, 8, 101, 127
19, 250, Control_c, 8, 100, 127
19, 11520, Note_on_c, 8, 56, 106
19, 11526, Note_on_c, 8, 60, 106
19, 11532, Note_on_c, 8, 63, 106
19, 11538, Note_on_c, 8, 65, 106
19, 11880, Control_c, 8, 11, 127
19, 11885, Control_c, 8, 11, 126
19, 11890, Control_c, 8, 11, 125
19, 11896, Control_c, 8, 11, 124
19, 11901, Control_c, 8, 11, 123
19, 11906, Control_c, 8, 11, 122
19, 11912, Control_c, 8, 11, 121
19, 11917, Control_c, 8, 11, 120
19, 11922, Control_c, 8, 11, 119
19, 11928, Control_c, 8, 11, 118
19, 11933, Control_c, 8, 11, 117
19, 11938, Control_c, 8, 11, 116
19, 11944, Control_c, 8, 11, 115
19, 11949, Control_c, 8, 11, 114
19, 11955, Control_c, 8, 11, 113
19, 11960, Control_c, 8, 11, 112
19, 11965, Control_c, 8, 11, 111
19, 11971, Control_c, 8, 11, 110
19, 11976, Control_c, 8, 11, 109
19, 11981, Control_c, 8, 11, 108
19, 11987, Control_c, 8, 11, 107
19, 11992, Control_c, 8, 11, 106
19, 11997, Control_c, 8, 11, 105
19, 12003, Control_c, 8, 11, 104
19, 12008, Control_c, 8, 11, 103
19, 12013, Control_c, 8, 11, 102
19, 12019, Control_c, 8, 11, 101
19, 12024, Control_c, 8, 11, 100
19, 12030, Control_c, 8, 11, 99
19, 12035, Control_c, 8, 11, 98
19, 12040, Control_c, 8, 11, 97
19, 12046, Control_c, 8, 11, 96
19, 12051, Control_c, 8, 11, 95
19, 12056, Control_c, 8, 11, 94
19, 12062, Control_c, 8, 11, 93
19, 12067, Control_c, 8, 11, 92
19, 12072, Control_c, 8, 11, 91
19, 12078, Control_c, 8, 11, 90
19, 12083, Control_c, 8, 11, 89
19, 12088, Control_c, 8, 11, 88
19, 12094, Control_c, 8, 11, 87
19, 12099, Control_c, 8, 11, 86
19, 12105, Control_c, 8, 11, 85
19, 12110, Control_c, 8, 11, 84
19, 12115, Control_c, 8, 11, 83
19, 12120, Note_on_c, 8, 56, 0
19, 12121, Control_c, 8, 11, 82
19, 12126, Note_on_c, 8, 60, 0
19, 12126, Control_c, 8, 11, 81
19, 12131, Control_c, 8, 11, 80
19, 12132, Note_on_c, 8, 63, 0
19, 12137, Control_c, 8, 11, 79
19, 12138, Note_on_c, 8, 65, 0
19, 12142, Control_c, 8, 11, 78
19, 12147, Control_c, 8, 11, 77
19, 12153, Control_c, 8, 11, 76
19, 12158, Control_c, 8, 11, 75
19, 12163, Control_c, 8, 11, 74
19, 12169, Control_c, 8, 11, 73
19, 12174, Control_c, 8, 11, 72
19, 12180, Control_c, 8, 11, 71
19, 12185, Control_c, 8, 11, 70
19, 12190, Control_c, 8, 11, 69
19, 12196, Control_c, 8, 11, 68
19, 12201, Control_c, 8, 11, 67
19, 12206, Control_c, 8, 11, 66
19, 12212, Control_c, 8, 11, 65
19, 12217, Control_c, 8, 11, 64
19, 12222, Control_c, 8, 11, 63
19, 12228, Control_c, 8, 11, 62
19, 12233, Control_c, 8, 11, 61
19, 12239, Control_c, 8, 11, 60
19, 12301, Control_c, 8, 11, 127
19, 24480, Note_on_c, 8, 56, 96
19, 24486, Note_on_c, 8, 60, 96
19, 24492, Note_on_c, 8, 63, 96
19, 24498, Note_on_c, 8, 65, 96
19, 24840, Control_c, 8, 11, 127
19, 24845, Control_c, 8, 11, 126
19, 24850, Control_c, 8, 11, 125
19, 24856, Control_c, 8, 11, 124
19, 24861, Control_c, 8, 11, 123
19, 24866, Control_c, 8, 11, 122
19, 24872, Control_c, 8, 11, 121
19, 24877, Control_c, 8, 11, 120
19, 24882, Control_c, 8, 11, 119
19, 24888, Control_c, 8, 11, 118
19, 24893, Control_c, 8, 11, 117
19, 24898, Control_c, 8, 11, 116
19, 24904, Control_c, 8, 11, 115
19, 24909, Control_c, 8, 11, 114
19, 24915, Control_c, 8, 11, 113
19, 24920, Control_c, 8, 11, 112
19, 24925, Control_c, 8, 11, 111
19, 24931, Control_c, 8, 11, 110
19, 24936, Control_c, 8, 11, 109
19, 24941, Control_c, 8, 11, 108
19, 24947, Control_c, 8, 11, 107
19, 24952, Control_c, 8, 11, 106
19, 24957, Control_c, 8, 11, 105
19, 24963, Control_c, 8, 11, 104
19, 24968, Control_c, 8, 11, 103
19, 24973, Control_c, 8, 11, 102
19, 24979, Control_c, 8, 11, 101
19, 24984, Control_c, 8, 11, 100
19, 24990, Control_c, 8, 11, 99
19, 24995, Control_c, 8, 11, 98
19, 25000, Control_c, 8, 11, 97
19, 25006, Control_c, 8, 11, 96
19, 25011, Control_c, 8, 11, 95
19, 25016, Control_c, 8, 11, 94
19, 25022, Control_c, 8, 11, 93
19, 25027, Control_c, 8, 11, 92
19, 25032, Control_c, 8, 11, 91
19, 25038, Control_c, 8, 11, 90
19, 25043, Control_c, 8, 11, 89
19, 25048, Control_c, 8, 11, 88
19, 25054, Control_c, 8, 11, 87
19, 25059, Control_c, 8, 11, 86
19, 25065, Control_c, 8, 11, 85
19, 25070, Control_c, 8, 11, 84
19, 25075, Control_c, 8, 11, 83
19, 25080, Note_on_c, 8, 56, 0
19, 25081, Control_c, 8, 11, 82
19, 25086, Note_on_c, 8, 60, 0
19, 25086, Control_c, 8, 11, 81
19, 25091, Control_c, 8, 11, 80
19, 25092, Note_on_c, 8, 63, 0
19, 25097, Control_c, 8, 11, 79
19, 25098, Note_on_c, 8, 65, 0
19, 25102, Control_c, 8, 11, 78
19, 25107, Control_c, 8, 11, 77
19, 25113, Control_c, 8, 11, 76
19, 25118, Control_c, 8, 11, 75
19, 25123, Control_c, 8, 11, 74
19, 25129, Control_c, 8, 11, 73
19, 25134, Control_c, 8, 11, 72
19, 25140, Control_c, 8, 11, 71
19, 25145, Control_c, 8, 11, 70
19, 25150, Control_c, 8, 11, 69
19, 25156, Control_c, 8, 11, 68
19, 25161, Control_c, 8, 11, 67
19, 25166, Control_c, 8, 11, 66
19, 25172, Control_c, 8, 11, 65
19, 25177, Control_c, 8, 11, 64
19, 25182, Control_c, 8, 11, 63
19, 25188, Control_c, 8, 11, 62
19, 25193, Control_c, 8, 11, 61
19, 25199, Control_c, 8, 11, 60
19, 25261, Control_c, 8, 11, 127
19, 79200, Note_on_c, 8, 56, 106
19, 79206, Note_on_c, 8, 60, 106
19, 79212, Note_on_c, 8, 63, 106
19, 79218, Note_on_c, 8, 65, 106
19, 79560, Control_c, 8, 11, 127
19, 79565, Control_c, 8, 11, 126
19, 79570, Control_c, 8, 11, 125
19, 79576, Control_c, 8, 11, 124
19, 79581, Control_c, 8, 11, 123
19, 79586, Control_c, 8, 11, 122
19, 79592, Control_c, 8, 11, 121
19, 79597, Control_c, 8, 11, 120
19, 79602, Control_c, 8, 11, 119
19, 79608, Control_c, 8, 11, 118
19, 79613, Control_c, 8, 11, 117
19, 79618, Control_c, 8, 11, 116
19, 79624, Control_c, 8, 11, 115
19, 79629, Control_c, 8, 11, 114
19, 79635, Control_c, 8, 11, 113
19, 79640, Control_c, 8, 11, 112
19, 79645, Control_c, 8, 11, 111
19, 79651, Control_c, 8, 11, 110
19, 79656, Control_c, 8, 11, 109
19, 79661, Control_c, 8, 11, 108
19, 79667, Control_c, 8, 11, 107
19, 79672, Control_c, 8, 11, 106
19, 79677, Control_c, 8, 11, 105
19, 79683, Control_c, 8, 11, 104
19, 79688, Control_c, 8, 11, 103
19, 79693, Control_c, 8, 11, 102
19, 79699, Control_c, 8, 11, 101
19, 79704, Control_c, 8, 11, 100
19, 79710, Control_c, 8, 11, 99
19, 79715, Control_c, 8, 11, 98
19, 79720, Control_c, 8, 11, 97
19, 79726, Control_c, 8, 11, 96
19, 79731, Control_c, 8, 11, 95
19, 79736, Control_c, 8, 11, 94
19, 79742, Control_c, 8, 11, 93
19, 79747, Control_c, 8, 11, 92
19, 79752, Control_c, 8, 11, 91
19, 79758, Control_c, 8, 11, 90
19, 79763, Control_c, 8, 11, 89
19, 79768, Control_c, 8, 11, 88
19, 79774, Control_c, 8, 11, 87
19, 79779, Control_c, 8, 11, 86
19, 79785, Control_c, 8, 11, 85
19, 79790, Control_c, 8, 11, 84
19, 79795, Control_c, 8, 11, 83
19, 79800, Note_on_c, 8, 56, 0
19, 79801, Control_c, 8, 11, 82
19, 79806, Note_on_c, 8, 60, 0
19, 79806, Control_c, 8, 11, 81
19, 79811, Control_c, 8, 11, 80
19, 79812, Note_on_c, 8, 63, 0
19, 79817, Control_c, 8, 11, 79
19, 79818, Note_on_c, 8, 65, 0
19, 79822, Control_c, 8, 11, 78
19, 79827, Control_c, 8, 11, 77
19, 79833, Control_c, 8, 11, 76
19, 79838, Control_c, 8, 11, 75
19, 79843, Control_c, 8, 11, 74
19, 79849, Control_c, 8, 11, 73
19, 79854, Control_c, 8, 11, 72
19, 79860, Control_c, 8, 11, 71
19, 79865, Control_c, 8, 11, 70
19, 79870, Control_c, 8, 11, 69
19, 79876, Control_c, 8, 11, 68
19, 79881, Control_c, 8, 11, 67
19, 79886, Control_c, 8, 11, 66
19, 79892, Control_c, 8, 11, 65
19, 79897, Control_c, 8, 11, 64
19, 79902, Control_c, 8, 11, 63
19, 79908, Control_c, 8, 11, 62
19, 79913, Control_c, 8, 11, 61
19, 79919, Control_c, 8, 11, 60
19, 79981, Control_c, 8, 11, 127
19, 115200, Control_c, 8, 11, 127
19, 115245, Control_c, 8, 11, 126
19, 115290, Control_c, 8, 11, 125
19, 115336, Control_c, 8, 11, 124
19, 115381, Control_c, 8, 11, 123
19, 115426, Control_c, 8, 11, 122
19, 115472, Control_c, 8, 11, 121
19, 115517, Control_c, 8, 11, 120
19, 115562, Control_c, 8, 11, 119
19, 115608, Control_c, 8, 11, 118
19, 115653, Control_c, 8, 11, 117
19, 115698, Control_c, 8, 11, 116
19, 115744, Control_c, 8, 11, 115
19, 115789, Control_c, 8, 11, 114
19, 115834, Control_c, 8, 11, 113
19, 115880, Control_c, 8, 11, 112
19, 115925, Control_c, 8, 11, 111
19, 115970, Control_c, 8, 11, 110
19, 116016, Control_c, 8, 11, 109
19, 116061, Control_c, 8, 11, 108
19, 116106, Control_c, 8, 11, 107
19, 116152, Control_c, 8, 11, 106
19, 116197, Control_c, 8, 11, 105
19, 116242, Control_c, 8, 11, 104
19, 116288, Control_c, 8, 11, 103
19, 116333, Control_c, 8, 11, 102
19, 116379, Control_c, 8, 11, 101
19, 116424, Control_c, 8, 11, 100
19, 116469, Control_c, 8, 11, 99
19, 116515, Control_c, 8, 11, 98
19, 116560, Control_c, 8, 11, 97
19, 116605, Control_c, 8, 11, 96
19, 116651, Control_c, 8, 11, 95
19, 116696, Control_c, 8, 11, 94
19, 116741, Control_c, 8, 11, 93
19, 116787, Control_c, 8, 11, 92
19, 116832, Control_c, 8, 11, 91
19, 116877, Control_c, 8, 11, 90
19, 116923, Control_c, 8, 11, 89
19, 116968, Control_c, 8, 11, 88
19, 117013, Control_c, 8, 11, 87
19, 117059, Control_c, 8, 11, 86
19, 117104, Control_c, 8, 11, 85
19, 117149, Control_c, 8, 11, 84
19, 117195, Control_c, 8, 11, 83
19, 117240, Control_c, 8, 11, 82
19, 117285, Control_c, 8, 11, 81
19, 117331, Control_c, 8, 11, 80
19, 117376, Control_c, 8, 11, 79
19, 117421, Control_c, 8, 11, 78
19, 117467, Control_c, 8, 11, 77
19, 117512, Control_c, 8, 11, 76
19, 117558, Control_c, 8, 11, 75
19, 117603, Control_c, 8, 11, 74
19, 117648, Control_c, 8, 11, 73
19, 117694, Control_c, 8, 11, 72
19, 117739, Control_c, 8, 11, 71
19, 117784, Control_c, 8, 11, 70
19, 117830, Control_c, 8, 11, 69
19, 117875, Control_c, 8, 11, 68
19, 117920, Control_c, 8, 11, 67
19, 117966, Control_c, 8, 11, 66
19, 118011, Control_c, 8, 11, 65
19, 118056, Control_c, 8, 11, 64
19, 118102, Control_c, 8, 11, 63
19, 118147, Control_c, 8, 11, 62
19, 118192, Control_c, 8, 11, 61
19, 118238, Control_c, 8, 11, 60
19, 118283, Control_c, 8, 11, 59
19, 118328, Control_c, 8, 11, 58
19, 118374, Control_c, 8, 11, 57
19, 118419, Control_c, 8, 11, 56
19, 118464, Control_c, 8, 11, 55
19, 118510, Control_c, 8, 11, 54
19, 118555, Control_c, 8, 11, 53
19, 118600, Control_c, 8, 11, 52
19, 118646, Control_c, 8, 11, 51
19, 118691, Control_c, 8, 11, 50
19, 118737, Control_c, 8, 11, 49
19, 118782, Control_c, 8, 11, 48
19, 118827, Control_c, 8, 11, 47
19, 118873, Control_c, 8, 11, 46
19, 118918, Control_c, 8, 11, 45
19, 118963, Control_c, 8, 11, 44
19, 119009, Control_c, 8, 11, 43
19, 119054, Control_c, 8, 11, 42
19, 119099, Control_c, 8, 11, 41
19, 119145, Control_c, 8, 11, 40
19, 119190, Control_c, 8, 11, 39
19, 119235, Control_c, 8, 11, 38
19, 119281, Control_c, 8, 11, 37
19, 119326, Control_c, 8, 11, 36
19, 119371, Control_c, 8, 11, 35
19, 119417, Control_c, 8, 11, 34
19, 119462, Control_c, 8, 11, 33
19, 119507, Control_c, 8, 11, 32
19, 119553, Control_c, 8, 11, 31
19, 119598, Control_c, 8, 11, 30
19, 119643, Control_c, 8, 11, 29
19, 119689, Control_c, 8, 11, 28
19, 119734, Control_c, 8, 11, 27
19, 119779, Control_c, 8, 11, 26
19, 119825, Control_c, 8, 11, 25
19, 119870, Control_c, 8, 11, 24
19, 119916, Control_c, 8, 11, 23
19, 119961, Control_c, 8, 11, 22
19, 120006, Control_c, 8, 11, 21
19, 120052, Control_c, 8, 11, 20
19, 120097, Control_c, 8, 11, 19
19, 120142, Control_c, 8, 11, 18
19, 120188, Control_c, 8, 11, 17
19, 120233, Control_c, 8, 11, 16
19, 120278, Control_c, 8, 11, 15
19, 120324, Control_c, 8, 11, 14
19, 120369, Control_c, 8, 11, 13
19, 120414, Control_c, 8, 11, 12
19, 120460, Control_c, 8, 11, 11
19, 120505, Control_c, 8, 11, 10
19, 120550, Control_c, 8, 11, 9
19, 120596, Control_c, 8, 11, 8
19, 120641, Control_c, 8, 11, 7
19, 120686, Control_c, 8, 11, 6
19, 120732, Control_c, 8, 11, 5
19, 120777, Control_c, 8, 11, 4
19, 120822, Control_c, 8, 11, 3
19, 120868, Control_c, 8, 11, 2
19, 120913, Control_c, 8, 11, 1
19, 120959, Control_c, 8, 11, 0
19, 121404, Control_c, 8, 121, 0
19, 121404, End_track
20, 0, Start_track
20, 0, MIDI_port, 0
20, 0, Title_t, "Flute Organ"
20, 270, Control_c, 10, 121, 0
20, 271, Program_c, 10, 73
20, 272, Control_c, 10, 7, 52
20, 273, Control_c, 10, 10, 68
20, 274, Control_c, 10, 91, 80
20, 275, Control_c, 10, 93, 36
20, 276, Control_c, 10, 99, 1
20, 277, Control_c, 10, 98, 32
20, 278, Control_c, 10, 6, 56
20, 279, Control_c, 10, 99, 1
20, 280, Control_c, 10, 98, 8
20, 281, Control_c, 10, 6, 14
20, 282, Control_c, 10, 99, 1
20, 283, Control_c, 10, 98, 9
20, 284, Control_c, 10, 6, 14
20, 285, Control_c, 10, 101, 127
20, 286, Control_c, 10, 100, 127
20, 37440, Note_on_c, 10, 63, 88
20, 37440, Note_on_c, 10, 61, 88
20, 37440, Note_on_c, 10, 65, 88
20, 37440, Note_on_c, 10, 68, 88
20, 37740, Note_on_c, 10, 68, 0
20, 37740, Note_on_c, 10, 63, 0
20, 37740, Note_on_c, 10, 61, 0
20, 37740, Note_on_c, 10, 65, 0
20, 37740, Note_on_c, 10, 67, 88
20, 37740, Note_on_c, 10, 56, 88
20, 37740, Note_on_c, 10, 60, 88
20, 37740, Note_on_c, 10, 63, 88
20, 38820, Note_on_c, 10, 63, 0
20, 38820, Note_on_c, 10, 67, 0
20, 38820, Note_on_c, 10, 56, 0
20, 38820, Note_on_c, 10, 60, 0
20, 38880, Note_on_c, 10, 56, 88
20, 38880, Note_on_c, 10, 60, 88
20, 38880, Note_on_c, 10, 63, 88
20, 38880, Note_on_c, 10, 67, 88
20, 39180, Note_on_c, 10, 67, 0
20, 39180, Note_on_c, 10, 56, 0
20, 39180, Note_on_c, 10, 60, 0
20, 39180, Note_on_c, 10, 63, 0
20, 39180, Note_on_c, 10, 60, 88
20, 39180, Note_on_c, 10, 68, 88
20, 39180, Note_on_c, 10, 61, 88
20, 39180, Note_on_c, 10, 65, 88
20, 40140, Note_on_c, 10, 65, 0
20, 40140, Note_on_c, 10, 60, 0
20, 40140, Note_on_c, 10, 68, 0
20, 40140, Note_on_c, 10, 61, 0
20, 40140, Note_on_c, 10, 67, 88
20, 40140, Note_on_c, 10, 57, 88
20, 40140, Note_on_c, 10, 62, 88
20, 40140, Note_on_c, 10, 64, 88
20, 40320, Note_on_c, 10, 64, 0
20, 40320, Note_on_c, 10, 67, 0
20, 40320, Note_on_c, 10, 57, 0
20, 40320, Note_on_c, 10, 62, 0
20, 40320, Note_on_c, 10, 63, 88
20, 40320, Note_on_c, 10, 61, 88
20, 40320, Note_on_c, 10, 65, 88
20, 40320, Note_on_c, 10, 68, 88
20, 40620, Note_on_c, 10, 68, 0
20, 40620, Note_on_c, 10, 63, 0
20, 40620, Note_on_c, 10, 61, 0
20, 40620, Note_on_c, 10, 65, 0
20, 40620, Note_on_c, 10, 67, 88
20, 40620, Note_on_c, 10, 56, 88
20, 40620, Note_on_c, 10, 60, 88
20, 40620, Note_on_c, 10, 63, 88
20, 41700, Note_on_c, 10, 63, 0
20, 41700, Note_on_c, 10, 67, 0
20, 41700, Note_on_c, 10, 56, 0
20, 41700, Note_on_c, 10, 60, 0
20, 41760, Note_on_c, 10, 66, 88
20, 41760, Note_on_c, 10, 56, 88
20, 41760, Note_on_c, 10, 59, 88
20, 41760, Note_on_c, 10, 63, 88
20, 42480, Note_on_c, 10, 63, 0
20, 42480, Note_on_c, 10, 66, 0
20, 42480, Note_on_c, 10, 56, 0
20, 42480, Note_on_c, 10, 59, 0
20, 42480, Note_on_c, 10, 56, 88
20, 42480, Note_on_c, 10, 60, 88
20, 42480, Note_on_c, 10, 61, 88
20, 42480, Note_on_c, 10, 65, 88
20, 42840, Note_on_c, 10, 65, 0
20, 42840, Note_on_c, 10, 56, 0
20, 42840, Note_on_c, 10, 60, 0
20, 42840, Note_on_c, 10, 61, 0
20, 42840, Note_on_c, 10, 65, 88
20, 42840, Note_on_c, 10, 57, 88
20, 42840, Note_on_c, 10, 64, 88
20, 42840, Note_on_c, 10, 60, 88
20, 42900, Note_on_c, 10, 60, 0
20, 42900, Note_on_c, 10, 65, 0
20, 42900, Note_on_c, 10, 57, 0
20, 42900, Note_on_c, 10, 64, 0
20, 42960, Note_on_c, 10, 57, 88
20, 42960, Note_on_c, 10, 65, 88
20, 42960, Note_on_c, 10, 64, 88
20, 42960, Note_on_c, 10, 60, 88
20, 43020, Note_on_c, 10, 60, 0
20, 43020, Note_on_c, 10, 57, 0
20, 43020, Note_on_c, 10, 65, 0
20, 43020, Note_on_c, 10, 64, 0
20, 43080, Note_on_c, 10, 57, 88
20, 43080, Note_on_c, 10, 65, 88
20, 43080, Note_on_c, 10, 64, 88
20, 43080, Note_on_c, 10, 60, 88
20, 43140, Note_on_c, 10, 60, 0
20, 43140, Note_on_c, 10, 57, 0
20, 43140, Note_on_c, 10, 65, 0
20, 43140, Note_on_c, 10, 64, 0
20, 43200, Note_on_c, 10, 63, 88
20, 43200, Note_on_c, 10, 56, 88
20, 43200, Note_on_c, 10, 61, 88
20, 43200, Note_on_c, 10, 65, 88
20, 43500, Note_on_c, 10, 65, 0
20, 43500, Note_on_c, 10, 63, 0
20, 43500, Note_on_c, 10, 56, 0
20, 43500, Note_on_c, 10, 61, 0
20, 43500, Note_on_c, 10, 56, 88
20, 43500, Note_on_c, 10, 60, 88
20, 43500, Note_on_c, 10, 63, 88
20, 43500, Note_on_c, 10, 67, 88
20, 44640, Note_on_c, 10, 67, 0
20, 44640, Note_on_c, 10, 56, 0
20, 44640, Note_on_c, 10, 60, 0
20, 44640, Note_on_c, 10, 63, 0
20, 44640, Note_on_c, 10, 56, 88
20, 44640, Note_on_c, 10, 60, 88
20, 44640, Note_on_c, 10, 63, 88
20, 44640, Note_on_c, 10, 67, 88
20, 44940, Note_on_c, 10, 67, 0
20, 44940, Note_on_c, 10, 56, 0
20, 44940, Note_on_c, 10, 60, 0
20, 44940, Note_on_c, 10, 63, 0
20, 44940, Note_on_c, 10, 68, 88
20, 44940, Note_on_c, 10, 60, 88
20, 44940, Note_on_c, 10, 61, 88
20, 44940, Note_on_c, 10, 65, 88
20, 45900, Note_on_c, 10, 65, 0
20, 45900, Note_on_c, 10, 68, 0
20, 45900, Note_on_c, 10, 60, 0
20, 45900, Note_on_c, 10, 61, 0
20, 45900, Note_on_c, 10, 57, 88
20, 45900, Note_on_c, 10, 65, 88
20, 45900, Note_on_c, 10, 60, 88
20, 45900, Note_on_c, 10, 64, 88
20, 46080, Note_on_c, 10, 64, 0
20, 46080, Note_on_c, 10, 57, 0
20, 46080, Note_on_c, 10, 65, 0
20, 46080, Note_on_c, 10, 60, 0
20, 46080, Note_on_c, 10, 63, 88
20, 46080, Note_on_c, 10, 56, 88
20, 46080, Note_on_c, 10, 61, 88
20, 46080, Note_on_c, 10, 65, 88
20, 46380, Note_on_c, 10, 65, 0
20, 46380, Note_on_c, 10, 63, 0
20, 46380, Note_on_c, 10, 56, 0
20, 46380, Note_on_c, 10, 61, 0
20, 46380, Note_on_c, 10, 63, 88
20, 46380, Note_on_c, 10, 67, 88
20, 46380, Note_on_c, 10, 56, 88
20, 46380, Note_on_c, 10, 60, 88
20, 47520, Note_on_c, 10, 60, 0
20, 47520, Note_on_c, 10, 63, 0
20, 47520, Note_on_c, 10, 67, 0
20, 47520, Note_on_c, 10, 56, 0
20, 47520, Note_on_c, 10, 66, 88
20, 47520, Note_on_c, 10, 56, 88
20, 47520, Note_on_c, 10, 59, 88
20, 47520, Note_on_c, 10, 63, 88
20, 48240, Note_on_c, 10, 63, 0
20, 48240, Note_on_c, 10, 66, 0
20, 48240, Note_on_c, 10, 56, 0
20, 48240, Note_on_c, 10, 59, 0
20, 48240, Note_on_c, 10, 56, 88
20, 48240, Note_on_c, 10, 58, 88
20, 48240, Note_on_c, 10, 61, 88
20, 48240, Note_on_c, 10, 65, 88
20, 48960, Note_on_c, 10, 65, 0
20, 48960, Note_on_c, 10, 56, 0
20, 48960, Note_on_c, 10, 58, 0
20, 48960, Note_on_c, 10, 61, 0
20, 115200, Control_c, 10, 11, 127
20, 115245, Control_c, 10, 11, 126
20, 115290, Control_c, 10, 11, 125
20, 115336, Control_c, 10, 11, 124
20, 115381, Control_c, 10, 11, 123
20, 115426, Control_c, 10, 11, 122
20, 115472, Control_c, 10, 11, 121
20, 115517, Control_c, 10, 11, 120
20, 115562, Control_c, 10, 11, 119
20, 115608, Control_c, 10, 11, 118
20, 115653, Control_c, 10, 11, 117
20, 115698, Control_c, 10, 11, 116
20, 115744, Control_c, 10, 11, 115
20, 115789, Control_c, 10, 11, 114
20, 115834, Control_c, 10, 11, 113
20, 115880, Control_c, 10, 11, 112
20, 115925, Control_c, 10, 11, 111
20, 115970, Control_c, 10, 11, 110
20, 116016, Control_c, 10, 11, 109
20, 116061, Control_c, 10, 11, 108
20, 116106, Control_c, 10, 11, 107
20, 116152, Control_c, 10, 11, 106
20, 116197, Control_c, 10, 11, 105
20, 116242, Control_c, 10, 11, 104
20, 116288, Control_c, 10, 11, 103
20, 116333, Control_c, 10, 11, 102
20, 116379, Control_c, 10, 11, 101
20, 116424, Control_c, 10, 11, 100
20, 116469, Control_c, 10, 11, 99
20, 116515, Control_c, 10, 11, 98
20, 116560, Control_c, 10, 11, 97
20, 116605, Control_c, 10, 11, 96
20, 116651, Control_c, 10, 11, 95
20, 116696, Control_c, 10, 11, 94
20, 116741, Control_c, 10, 11, 93
20, 116787, Control_c, 10, 11, 92
20, 116832, Control_c, 10, 11, 91
20, 116877, Control_c, 10, 11, 90
20, 116923, Control_c, 10, 11, 89
20, 116968, Control_c, 10, 11, 88
20, 117013, Control_c, 10, 11, 87
20, 117059, Control_c, 10, 11, 86
20, 117104, Control_c, 10, 11, 85
20, 117149, Control_c, 10, 11, 84
20, 117195, Control_c, 10, 11, 83
20, 117240, Control_c, 10, 11, 82
20, 117285, Control_c, 10, 11, 81
20, 117331, Control_c, 10, 11, 80
20, 117376, Control_c, 10, 11, 79
20, 117421, Control_c, 10, 11, 78
20, 117467, Control_c, 10, 11, 77
20, 117512, Control_c, 10, 11, 76
20, 117558, Control_c, 10, 11, 75
20, 117603, Control_c, 10, 11, 74
20, 117648, Control_c, 10, 11, 73
20, 117694, Control_c, 10, 11, 72
20, 117739, Control_c, 10, 11, 71
20, 117784, Control_c, 10, 11, 70
20, 117830, Control_c, 10, 11, 69
20, 117875, Control_c, 10, 11, 68
20, 117920, Control_c, 10, 11, 67
20, 117966, Control_c, 10, 11, 66
20, 118011, Control_c, 10, 11, 65
20, 118056, Control_c, 10, 11, 64
20, 118102, Control_c, 10, 11, 63
20, 118147, Control_c, 10, 11, 62
20, 118192, Control_c, 10, 11, 61
20, 118238, Control_c, 10, 11, 60
20, 118283, Control_c, 10, 11, 59
20, 118328, Control_c, 10, 11, 58
20, 118374, Control_c, 10, 11, 57
20, 118419, Control_c, 10, 11, 56
20, 118464, Control_c, 10, 11, 55
20, 118510, Control_c, 10, 11, 54
20, 118555, Control_c, 10, 11, 53
20, 118600, Control_c, 10, 11, 52
20, 118646, Control_c, 10, 11, 51
20, 118691, Control_c, 10, 11, 50
20, 118737, Control_c, 10, 11, 49
20, 118782, Control_c, 10, 11, 48
20, 118827, Control_c, 10, 11, 47
20, 118873, Control_c, 10, 11, 46
20, 118918, Control_c, 10, 11, 45
20, 118963, Control_c, 10, 11, 44
20, 119009, Control_c, 10, 11, 43
20, 119054, Control_c, 10, 11, 42
20, 119099, Control_c, 10, 11, 41
20, 119145, Control_c, 10, 11, 40
20, 119190, Control_c, 10, 11, 39
20, 119235, Control_c, 10, 11, 38
20, 119281, Control_c, 10, 11, 37
20, 119326, Control_c, 10, 11, 36
20, 119371, Control_c, 10, 11, 35
20, 119417, Control_c, 10, 11, 34
20, 119462, Control_c, 10, 11, 33
20, 119507, Control_c, 10, 11, 32
20, 119553, Control_c, 10, 11, 31
20, 119598, Control_c, 10, 11, 30
20, 119643, Control_c, 10, 11, 29
20, 119689, Control_c, 10, 11, 28
20, 119734, Control_c, 10, 11, 27
20, 119779, Control_c, 10, 11, 26
20, 119825, Control_c, 10, 11, 25
20, 119870, Control_c, 10, 11, 24
20, 119916, Control_c, 10, 11, 23
20, 119961, Control_c, 10, 11, 22
20, 120006, Control_c, 10, 11, 21
20, 120052, Control_c, 10, 11, 20
20, 120097, Control_c, 10, 11, 19
20, 120142, Control_c, 10, 11, 18
20, 120188, Control_c, 10, 11, 17
20, 120233, Control_c, 10, 11, 16
20, 120278, Control_c, 10, 11, 15
20, 120324, Control_c, 10, 11, 14
20, 120369, Control_c, 10, 11, 13
20, 120414, Control_c, 10, 11, 12
20, 120460, Control_c, 10, 11, 11
20, 120505, Control_c, 10, 11, 10
20, 120550, Control_c, 10, 11, 9
20, 120596, Control_c, 10, 11, 8
20, 120641, Control_c, 10, 11, 7
20, 120686, Control_c, 10, 11, 6
20, 120732, Control_c, 10, 11, 5
20, 120777, Control_c, 10, 11, 4
20, 120822, Control_c, 10, 11, 3
20, 120868, Control_c, 10, 11, 2
20, 120913, Control_c, 10, 11, 1
20, 120959, Control_c, 10, 11, 0
20, 121405, Control_c, 10, 121, 0
20, 121405, End_track
21, 0, Start_track
21, 0, MIDI_port, 0
21, 0, Title_t, "Reverb Overdrive"
21, 435, Control_c, 11, 121, 0
21, 436, Control_c, 11, 0, 0
21, 436, Control_c, 11, 32, 8
21, 436, Program_c, 11, 30
21, 437, Control_c, 11, 7, 84
21, 438, Control_c, 11, 10, 70
21, 439, Control_c, 11, 91, 127
21, 440, Control_c, 11, 93, 64
21, 441, Control_c, 11, 99, 1
21, 443, Control_c, 11, 98, 32
21, 444, Control_c, 11, 6, 48
21, 445, Control_c, 11, 101, 0
21, 446, Control_c, 11, 100, 0
21, 447, Control_c, 11, 6, 4
21, 448, Control_c, 11, 101, 0
21, 449, Control_c, 11, 100, 1
21, 450, Control_c, 11, 6, 66
21, 451, Control_c, 11, 32, 0
21, 452, Control_c, 11, 101, 127
21, 453, Control_c, 11, 100, 127
21, 38069, Pitch_bend_c, 11, 4096
21, 38070, Note_on_c, 11, 60, 88
21, 38090, Pitch_bend_c, 11, 8192
21, 38130, Note_on_c, 11, 60, 0
21, 38130, Note_on_c, 11, 63, 88
21, 38189, Pitch_bend_c, 11, 6144
21, 38190, Note_on_c, 11, 63, 0
21, 38190, Note_on_c, 11, 65, 88
21, 38205, Pitch_bend_c, 11, 8192
21, 38310, Note_on_c, 11, 65, 0
21, 38310, Note_on_c, 11, 63, 88
21, 38369, Note_on_c, 11, 63, 0
21, 38429, Pitch_bend_c, 11, 4096
21, 38430, Note_on_c, 11, 60, 88
21, 38446, Pitch_bend_c, 11, 8192
21, 38550, Note_on_c, 11, 60, 0
21, 38550, Note_on_c, 11, 58, 68
21, 38670, Control_c, 11, 1, 8
21, 38730, Control_c, 11, 1, 16
21, 39034, Control_c, 11, 11, 126
21, 39044, Control_c, 11, 11, 125
21, 39054, Control_c, 11, 11, 124
21, 39061, Control_c, 11, 11, 123
21, 39069, Control_c, 11, 11, 122
21, 39079, Control_c, 11, 11, 121
21, 39089, Control_c, 11, 11, 120
21, 39106, Control_c, 11, 11, 119
21, 39114, Control_c, 11, 11, 118
21, 39129, Control_c, 11, 11, 117
21, 39151, Control_c, 11, 11, 116
21, 39196, Control_c, 11, 11, 115
21, 39231, Control_c, 11, 11, 114
21, 39286, Control_c, 11, 11, 113
21, 39306, Control_c, 11, 11, 112
21, 39339, Control_c, 11, 11, 111
21, 39356, Control_c, 11, 11, 112
21, 39401, Control_c, 11, 11, 113
21, 39416, Control_c, 11, 11, 114
21, 39424, Control_c, 11, 11, 115
21, 39431, Control_c, 11, 11, 116
21, 39446, Control_c, 11, 11, 117
21, 39449, Note_on_c, 11, 58, 0
21, 39454, Control_c, 11, 11, 118
21, 39466, Control_c, 11, 11, 119
21, 39471, Control_c, 11, 11, 120
21, 39474, Control_c, 11, 11, 121
21, 39479, Control_c, 11, 11, 122
21, 39481, Control_c, 11, 11, 123
21, 39484, Control_c, 11, 11, 124
21, 39489, Control_c, 11, 11, 125
21, 39491, Control_c, 11, 11, 126
21, 39494, Control_c, 11, 11, 127
21, 39509, Note_on_c, 11, 65, 88
21, 39509, Control_c, 11, 1, 0
21, 39569, Note_on_c, 11, 65, 0
21, 39570, Note_on_c, 11, 66, 88
21, 39630, Note_on_c, 11, 66, 0
21, 39630, Note_on_c, 11, 73, 88
21, 39735, Note_on_c, 11, 73, 0
21, 39750, Note_on_c, 11, 73, 115
21, 39840, Note_on_c, 11, 73, 0
21, 39870, Note_on_c, 11, 72, 88
21, 39990, Note_on_c, 11, 72, 0
21, 39990, Note_on_c, 11, 68, 88
21, 40110, Note_on_c, 11, 68, 0
21, 40110, Note_on_c, 11, 70, 88
21, 40230, Note_on_c, 11, 70, 0
21, 40230, Note_on_c, 11, 72, 88
21, 40349, Note_on_c, 11, 72, 0
21, 40349, Pitch_bend_c, 11, 128
21, 40350, Note_on_c, 11, 72, 78
21, 40359, Pitch_bend_c, 11, 896
21, 40361, Pitch_bend_c, 11, 1664
21, 40364, Pitch_bend_c, 11, 2688
21, 40366, Pitch_bend_c, 11, 3456
21, 40369, Pitch_bend_c, 11, 6512
21, 40374, Pitch_bend_c, 11, 7168
21, 40378, Pitch_bend_c, 11, 7552
21, 40380, Pitch_bend_c, 11, 8192
21, 40530, Note_on_c, 11, 72, 0
21, 40530, Note_on_c, 11, 70, 82
21, 40650, Note_on_c, 11, 70, 0
21, 40650, Note_on_c, 11, 63, 88
21, 40770, Control_c, 11, 1, 8
21, 40890, Control_c, 11, 1, 16
21, 41012, Control_c, 11, 11, 125
21, 41045, Control_c, 11, 11, 124
21, 41055, Control_c, 11, 11, 123
21, 41070, Control_c, 11, 11, 122
21, 41090, Control_c, 11, 11, 121
21, 41110, Control_c, 11, 11, 119
21, 41132, Control_c, 11, 11, 118
21, 41157, Control_c, 11, 11, 117
21, 41182, Control_c, 11, 11, 115
21, 41207, Control_c, 11, 11, 114
21, 41237, Control_c, 11, 11, 112
21, 41267, Control_c, 11, 11, 111
21, 41300, Control_c, 11, 11, 109
21, 41332, Control_c, 11, 11, 107
21, 41365, Control_c, 11, 11, 105
21, 41397, Control_c, 11, 11, 104
21, 41425, Control_c, 11, 11, 102
21, 41447, Control_c, 11, 11, 101
21, 41470, Control_c, 11, 11, 99
21, 41487, Control_c, 11, 11, 97
21, 41505, Control_c, 11, 11, 96
21, 41517, Control_c, 11, 11, 95
21, 41527, Control_c, 11, 11, 94
21, 41537, Control_c, 11, 11, 93
21, 41552, Control_c, 11, 11, 92
21, 41567, Control_c, 11, 11, 91
21, 41580, Control_c, 11, 11, 90
21, 41597, Control_c, 11, 11, 89
21, 41627, Control_c, 11, 11, 88
21, 41647, Control_c, 11, 11, 87
21, 41670, Control_c, 11, 11, 86
21, 41702, Control_c, 11, 11, 85
21, 41789, Control_c, 11, 11, 127
21, 41789, Control_c, 11, 1, 0
21, 41789, Pitch_bend_c, 11, 6144
21, 41790, Note_on_c, 11, 63, 0
21, 41790, Note_on_c, 11, 70, 88
21, 41806, Pitch_bend_c, 11, 8192
21, 41850, Note_on_c, 11, 70, 0
21, 41850, Note_on_c, 11, 73, 88
21, 41970, Note_on_c, 11, 73, 0
21, 41970, Note_on_c, 11, 73, 88
21, 42090, Note_on_c, 11, 73, 0
21, 42090, Note_on_c, 11, 73, 88
21, 42270, Note_on_c, 11, 73, 0
21, 42270, Note_on_c, 11, 70, 88
21, 42300, Note_on_c, 11, 70, 0
21, 42300, Note_on_c, 11, 68, 58
21, 42330, Note_on_c, 11, 68, 0
21, 42330, Note_on_c, 11, 66, 78
21, 42360, Note_on_c, 11, 66, 0
21, 42390, Note_on_c, 11, 63, 88
21, 42450, Note_on_c, 11, 66, 88
21, 42510, Note_on_c, 11, 66, 0
21, 42510, Note_on_c, 11, 63, 0
21, 42510, Note_on_c, 11, 68, 88
21, 42690, Note_on_c, 11, 68, 0
21, 42690, Note_on_c, 11, 68, 88
21, 42810, Note_on_c, 11, 68, 0
21, 42810, Note_on_c, 11, 72, 88
21, 42810, Pitch_bend_c, 11, 4160
21, 42822, Pitch_bend_c, 11, 4224
21, 42827, Pitch_bend_c, 11, 5098
21, 42835, Pitch_bend_c, 11, 4352
21, 42837, Pitch_bend_c, 11, 4416
21, 42842, Pitch_bend_c, 11, 4480
21, 42845, Pitch_bend_c, 11, 4544
21, 42847, Pitch_bend_c, 11, 4608
21, 42850, Pitch_bend_c, 11, 4672
21, 42855, Pitch_bend_c, 11, 4736
21, 42857, Pitch_bend_c, 11, 4800
21, 42862, Pitch_bend_c, 11, 4864
21, 42865, Pitch_bend_c, 11, 4928
21, 42870, Pitch_bend_c, 11, 5056
21, 42875, Pitch_bend_c, 11, 5120
21, 42877, Pitch_bend_c, 11, 5184
21, 42882, Pitch_bend_c, 11, 5312
21, 42887, Pitch_bend_c, 11, 5376
21, 42890, Pitch_bend_c, 11, 5440
21, 42892, Pitch_bend_c, 11, 5504
21, 42895, Pitch_bend_c, 11, 5568
21, 42897, Pitch_bend_c, 11, 5632
21, 42900, Pitch_bend_c, 11, 5696
21, 42905, Pitch_bend_c, 11, 5760
21, 42907, Pitch_bend_c, 11, 5824
21, 42912, Pitch_bend_c, 11, 5888
21, 42915, Pitch_bend_c, 11, 5952
21, 42917, Pitch_bend_c, 11, 6080
21, 42922, Pitch_bend_c, 11, 6144
21, 42925, Pitch_bend_c, 11, 6208
21, 42927, Pitch_bend_c, 11, 6272
21, 42930, Pitch_bend_c, 11, 6400
21, 42932, Pitch_bend_c, 11, 6464
21, 42937, Pitch_bend_c, 11, 6592
21, 42940, Pitch_bend_c, 11, 6656
21, 42942, Pitch_bend_c, 11, 6720
21, 42945, Pitch_bend_c, 11, 6786
21, 42947, Pitch_bend_c, 11, 6848
21, 42950, Pitch_bend_c, 11, 6912
21, 42952, Pitch_bend_c, 11, 6976
21, 42955, Pitch_bend_c, 11, 7040
21, 42957, Pitch_bend_c, 11, 7104
21, 42960, Pitch_bend_c, 11, 7232
21, 42965, Pitch_bend_c, 11, 7296
21, 42967, Pitch_bend_c, 11, 7424
21, 42970, Pitch_bend_c, 11, 7488
21, 42972, Pitch_bend_c, 11, 7552
21, 42975, Pitch_bend_c, 11, 7616
21, 42977, Pitch_bend_c, 11, 7744
21, 42980, Pitch_bend_c, 11, 7872
21, 42982, Pitch_bend_c, 11, 7936
21, 42985, Pitch_bend_c, 11, 8000
21, 42987, Pitch_bend_c, 11, 8128
21, 42990, Pitch_bend_c, 11, 8192
21, 42990, Control_c, 11, 1, 8
21, 43170, Control_c, 11, 1, 16
21, 43230, Control_c, 11, 11, 127
21, 43240, Control_c, 11, 11, 126
21, 43247, Control_c, 11, 11, 125
21, 43260, Control_c, 11, 11, 124
21, 43277, Control_c, 11, 11, 123
21, 43295, Control_c, 11, 11, 122
21, 43325, Control_c, 11, 11, 121
21, 43400, Control_c, 11, 11, 120
21, 43462, Control_c, 11, 11, 119
21, 43665, Control_c, 11, 11, 120
21, 43710, Control_c, 11, 11, 121
21, 43752, Control_c, 11, 11, 122
21, 43762, Control_c, 11, 11, 123
21, 43775, Control_c, 11, 11, 124
21, 43782, Control_c, 11, 11, 125
21, 43797, Control_c, 11, 11, 126
21, 43802, Control_c, 11, 11, 127
21, 43842, Pitch_bend_c, 11, 8128
21, 43847, Pitch_bend_c, 11, 8064
21, 43850, Pitch_bend_c, 11, 8000
21, 43857, Pitch_bend_c, 11, 7936
21, 43860, Pitch_bend_c, 11, 7872
21, 43862, Pitch_bend_c, 11, 7808
21, 43865, Pitch_bend_c, 11, 7744
21, 43867, Pitch_bend_c, 11, 7680
21, 43872, Pitch_bend_c, 11, 7616
21, 43875, Pitch_bend_c, 11, 7488
21, 43880, Pitch_bend_c, 11, 7424
21, 43882, Pitch_bend_c, 11, 7360
21, 43885, Pitch_bend_c, 11, 7296
21, 43890, Pitch_bend_c, 11, 7232
21, 43892, Pitch_bend_c, 11, 7168
21, 43895, Pitch_bend_c, 11, 7104
21, 43897, Pitch_bend_c, 11, 7040
21, 43900, Pitch_bend_c, 11, 6976
21, 43902, Pitch_bend_c, 11, 6912
21, 43905, Pitch_bend_c, 11, 6784
21, 43907, Pitch_bend_c, 11, 6720
21, 43912, Pitch_bend_c, 11, 6592
21, 43915, Pitch_bend_c, 11, 6528
21, 43917, Pitch_bend_c, 11, 6464
21, 43920, Pitch_bend_c, 11, 6336
21, 43922, Pitch_bend_c, 11, 6144
21, 43925, Pitch_bend_c, 11, 6016
21, 43927, Pitch_bend_c, 11, 5952
21, 43930, Pitch_bend_c, 11, 5824
21, 43932, Pitch_bend_c, 11, 5568
21, 43935, Pitch_bend_c, 11, 5312
21, 43937, Pitch_bend_c, 11, 5056
21, 43940, Pitch_bend_c, 11, 4416
21, 43942, Pitch_bend_c, 11, 4160
21, 43948, Pitch_bend_c, 11, 4096
21, 43949, Control_c, 11, 1, 0
21, 43950, Note_on_c, 11, 72, 0
21, 43950, Pitch_bend_c, 11, 8192
21, 43950, Note_on_c, 11, 65, 88
21, 43980, Pitch_bend_c, 11, 12288
21, 44069, Pitch_bend_c, 11, 8192
21, 44070, Note_on_c, 11, 65, 0
21, 44070, Note_on_c, 11, 70, 88
21, 44160, Note_on_c, 11, 70, 0
21, 44190, Note_on_c, 11, 75, 88
21, 44309, Pitch_bend_c, 11, 4096
21, 44310, Note_on_c, 11, 75, 0
21, 44310, Note_on_c, 11, 75, 74
21, 44318, Pitch_bend_c, 11, 8192
21, 44430, Control_c, 11, 1, 8
21, 44550, Control_c, 11, 1, 16
21, 44849, Control_c, 11, 1, 0
21, 44850, Note_on_c, 11, 75, 0
21, 44850, Note_on_c, 11, 75, 88
21, 44910, Note_on_c, 11, 75, 0
21, 44910, Note_on_c, 11, 77, 88
21, 44970, Note_on_c, 11, 77, 0
21, 44970, Note_on_c, 11, 73, 88
21, 45090, Control_c, 11, 1, 8
21, 45210, Control_c, 11, 1, 16
21, 45332, Control_c, 11, 11, 127
21, 45335, Control_c, 11, 11, 126
21, 45340, Control_c, 11, 11, 125
21, 45342, Control_c, 11, 11, 124
21, 45345, Control_c, 11, 11, 123
21, 45352, Control_c, 11, 11, 122
21, 45357, Control_c, 11, 11, 121
21, 45365, Control_c, 11, 11, 120
21, 45372, Control_c, 11, 11, 119
21, 45380, Control_c, 11, 11, 118
21, 45392, Control_c, 11, 11, 117
21, 45402, Control_c, 11, 11, 116
21, 45410, Control_c, 11, 11, 115
21, 45427, Control_c, 11, 11, 114
21, 45450, Control_c, 11, 11, 113
21, 45465, Control_c, 11, 11, 112
21, 45480, Control_c, 11, 11, 111
21, 45497, Control_c, 11, 11, 110
21, 45512, Control_c, 11, 11, 109
21, 45525, Control_c, 11, 11, 108
21, 45547, Control_c, 11, 11, 107
21, 45567, Control_c, 11, 11, 106
21, 45582, Control_c, 11, 11, 105
21, 45602, Control_c, 11, 11, 104
21, 45615, Control_c, 11, 11, 103
21, 45630, Control_c, 11, 1, 0
21, 45632, Control_c, 11, 11, 102
21, 45655, Control_c, 11, 11, 101
21, 45660, Pitch_bend_c, 11, 8192
21, 45665, Pitch_bend_c, 11, 8064
21, 45667, Pitch_bend_c, 11, 7936
21, 45670, Pitch_bend_c, 11, 7808
21, 45672, Pitch_bend_c, 11, 7552
21, 45677, Pitch_bend_c, 11, 7296
21, 45680, Pitch_bend_c, 11, 7168
21, 45682, Control_c, 11, 11, 100
21, 45682, Pitch_bend_c, 11, 7040
21, 45685, Pitch_bend_c, 11, 6784
21, 45687, Pitch_bend_c, 11, 6528
21, 45690, Pitch_bend_c, 11, 6272
21, 45692, Pitch_bend_c, 11, 6016
21, 45697, Pitch_bend_c, 11, 5760
21, 45700, Pitch_bend_c, 11, 5504
21, 45702, Pitch_bend_c, 11, 5248
21, 45707, Pitch_bend_c, 11, 4992
21, 45710, Pitch_bend_c, 11, 4736
21, 45712, Control_c, 11, 11, 99
21, 45712, Pitch_bend_c, 11, 4480
21, 45717, Pitch_bend_c, 11, 4352
21, 45720, Pitch_bend_c, 11, 4096
21, 45722, Pitch_bend_c, 11, 3968
21, 45727, Pitch_bend_c, 11, 3712
21, 45730, Control_c, 11, 11, 98
21, 45730, Pitch_bend_c, 11, 3328
21, 45732, Pitch_bend_c, 11, 3072
21, 45735, Pitch_bend_c, 11, 2944
21, 45737, Pitch_bend_c, 11, 2816
21, 45740, Pitch_bend_c, 11, 2560
21, 45742, Pitch_bend_c, 11, 2304
21, 45745, Pitch_bend_c, 11, 2176
21, 45747, Pitch_bend_c, 11, 1920
21, 45750, Note_on_c, 11, 73, 0
21, 45750, Note_on_c, 11, 71, 68
21, 45750, Pitch_bend_c, 11, 8192
21, 45752, Control_c, 11, 11, 127
21, 45780, Pitch_bend_c, 11, 12384
21, 45870, Note_on_c, 11, 71, 0
21, 45870, Note_on_c, 11, 73, 88
21, 45870, Pitch_bend_c, 11, 8192
21, 45930, Note_on_c, 11, 73, 0
21, 46020, Note_on_c, 11, 72, 88
21, 46050, Note_on_c, 11, 72, 0
21, 46050, Note_on_c, 11, 70, 68
21, 46080, Note_on_c, 11, 70, 0
21, 46080, Note_on_c, 11, 68, 88
21, 46110, Note_on_c, 11, 68, 0
21, 46110, Note_on_c, 11, 70, 88
21, 46172, Pitch_bend_c, 11, 12288
21, 46230, Note_on_c, 11, 70, 0
21, 46230, Note_on_c, 11, 68, 88
21, 46230, Pitch_bend_c, 11, 8192
21, 46260, Note_on_c, 11, 68, 0
21, 46290, Note_on_c, 11, 68, 88
21, 46350, Pitch_bend_c, 11, 12288
21, 46410, Note_on_c, 11, 68, 0
21, 46410, Note_on_c, 11, 67, 88
21, 46410, Pitch_bend_c, 11, 8192
21, 46652, Pitch_bend_c, 11, 8192
21, 46670, Pitch_bend_c, 11, 8064
21, 46680, Pitch_bend_c, 11, 7936
21, 46687, Pitch_bend_c, 11, 7808
21, 46692, Pitch_bend_c, 11, 7680
21, 46695, Pitch_bend_c, 11, 7552
21, 46700, Pitch_bend_c, 11, 7424
21, 46707, Pitch_bend_c, 11, 7296
21, 46710, Pitch_bend_c, 11, 7168
21, 46715, Pitch_bend_c, 11, 7040
21, 46720, Pitch_bend_c, 11, 6912
21, 46725, Pitch_bend_c, 11, 6784
21, 46727, Pitch_bend_c, 11, 6656
21, 46732, Pitch_bend_c, 11, 6528
21, 46735, Pitch_bend_c, 11, 6400
21, 46737, Pitch_bend_c, 11, 6272
21, 46740, Pitch_bend_c, 11, 6144
21, 46742, Pitch_bend_c, 11, 6016
21, 46745, Pitch_bend_c, 11, 5888
21, 46750, Pitch_bend_c, 11, 5632
21, 46752, Pitch_bend_c, 11, 5376
21, 46755, Pitch_bend_c, 11, 5248
21, 46757, Pitch_bend_c, 11, 5120
21, 46760, Pitch_bend_c, 11, 4864
21, 46762, Pitch_bend_c, 11, 4608
21, 46765, Pitch_bend_c, 11, 4352
21, 46767, Pitch_bend_c, 11, 4096
21, 46770, Note_on_c, 11, 67, 0
21, 46770, Note_on_c, 11, 63, 62
21, 46770, Pitch_bend_c, 11, 8192
21, 46892, Control_c, 11, 11, 127
21, 46902, Control_c, 11, 11, 126
21, 46912, Control_c, 11, 11, 125
21, 46925, Control_c, 11, 11, 124
21, 46940, Control_c, 11, 11, 123
21, 46960, Control_c, 11, 11, 121
21, 46985, Control_c, 11, 11, 119
21, 47010, Control_c, 11, 11, 117
21, 47032, Control_c, 11, 11, 115
21, 47055, Control_c, 11, 11, 113
21, 47077, Control_c, 11, 11, 112
21, 47097, Control_c, 11, 11, 110
21, 47117, Control_c, 11, 11, 108
21, 47137, Control_c, 11, 11, 106
21, 47157, Control_c, 11, 11, 104
21, 47175, Control_c, 11, 11, 102
21, 47192, Control_c, 11, 11, 100
21, 47210, Control_c, 11, 11, 98
21, 47227, Control_c, 11, 11, 97
21, 47245, Control_c, 11, 11, 95
21, 47262, Control_c, 11, 11, 93
21, 47282, Control_c, 11, 11, 91
21, 47302, Control_c, 11, 11, 90
21, 47320, Control_c, 11, 11, 89
21, 47350, Control_c, 11, 11, 88
21, 47367, Control_c, 11, 11, 87
21, 47440, Control_c, 11, 11, 88
21, 47515, Control_c, 11, 11, 87
21, 47550, Note_on_c, 11, 63, 0
21, 47550, Control_c, 11, 11, 127
21, 48450, Note_on_c, 11, 60, 88
21, 48510, Note_on_c, 11, 60, 0
21, 48510, Note_on_c, 11, 63, 78
21, 48570, Note_on_c, 11, 63, 0
21, 48570, Note_on_c, 11, 65, 88
21, 48630, Note_on_c, 11, 65, 0
21, 48630, Note_on_c, 11, 68, 88
21, 48690, Note_on_c, 11, 68, 0
21, 48690, Note_on_c, 11, 63, 78
21, 48750, Note_on_c, 11, 63, 0
21, 48750, Note_on_c, 11, 70, 88
21, 48810, Note_on_c, 11, 70, 0
21, 48810, Note_on_c, 11, 63, 78
21, 48870, Note_on_c, 11, 63, 0
21, 48870, Note_on_c, 11, 68, 88
21, 48930, Note_on_c, 11, 68, 0
21, 48930, Note_on_c, 11, 70, 78
21, 48989, Note_on_c, 11, 70, 0
21, 48989, Pitch_bend_c, 11, 4096
21, 48990, Note_on_c, 11, 72, 88
21, 48990, Pitch_bend_c, 11, 4288
21, 48992, Pitch_bend_c, 11, 4352
21, 48997, Pitch_bend_c, 11, 4480
21, 49000, Pitch_bend_c, 11, 4544
21, 49002, Pitch_bend_c, 11, 4608
21, 49005, Pitch_bend_c, 11, 4672
21, 49007, Pitch_bend_c, 11, 4800
21, 49012, Pitch_bend_c, 11, 5248
21, 49020, Pitch_bend_c, 11, 5376
21, 49022, Pitch_bend_c, 11, 5504
21, 49025, Pitch_bend_c, 11, 5632
21, 49027, Pitch_bend_c, 11, 5760
21, 49030, Pitch_bend_c, 11, 5888
21, 49032, Pitch_bend_c, 11, 6080
21, 49035, Pitch_bend_c, 11, 6144
21, 49037, Pitch_bend_c, 11, 6400
21, 49040, Pitch_bend_c, 11, 6656
21, 49042, Pitch_bend_c, 11, 6784
21, 49045, Pitch_bend_c, 11, 7040
21, 49047, Pitch_bend_c, 11, 7360
21, 49050, Pitch_bend_c, 11, 7808
21, 49052, Pitch_bend_c, 11, 8000
21, 49169, Pitch_bend_c, 11, 8216
21, 49170, Note_on_c, 11, 72, 0
21, 49170, Note_on_c, 11, 75, 88
21, 49289, Pitch_bend_c, 11, 8192
21, 49290, Note_on_c, 11, 75, 0
21, 49290, Note_on_c, 11, 75, 82
21, 49530, Note_on_c, 11, 75, 0
21, 49530, Note_on_c, 11, 75, 88
21, 49590, Note_on_c, 11, 75, 0
21, 49590, Note_on_c, 11, 77, 78
21, 49650, Note_on_c, 11, 77, 0
21, 49650, Note_on_c, 11, 68, 80
21, 49860, Pitch_bend_c, 11, 8192
21, 49862, Pitch_bend_c, 11, 8064
21, 49865, Pitch_bend_c, 11, 7936
21, 49867, Pitch_bend_c, 11, 7680
21, 49870, Pitch_bend_c, 11, 7424
21, 49875, Pitch_bend_c, 11, 7168
21, 49877, Pitch_bend_c, 11, 6784
21, 49880, Pitch_bend_c, 11, 6656
21, 49885, Pitch_bend_c, 11, 6400
21, 49887, Pitch_bend_c, 11, 6272
21, 49890, Note_on_c, 11, 68, 0
21, 49890, Pitch_bend_c, 11, 5888
21, 49895, Pitch_bend_c, 11, 5504
21, 49897, Pitch_bend_c, 11, 5376
21, 49900, Pitch_bend_c, 11, 5248
21, 49902, Pitch_bend_c, 11, 4992
21, 49905, Pitch_bend_c, 11, 4736
21, 49907, Pitch_bend_c, 11, 4608
21, 49910, Pitch_bend_c, 11, 4352
21, 49912, Pitch_bend_c, 11, 4224
21, 49915, Pitch_bend_c, 11, 3968
21, 49917, Pitch_bend_c, 11, 3712
21, 49920, Pitch_bend_c, 11, 3456
21, 49922, Pitch_bend_c, 11, 3328
21, 49925, Pitch_bend_c, 11, 3200
21, 49927, Pitch_bend_c, 11, 2816
21, 49930, Pitch_bend_c, 11, 2560
21, 49932, Pitch_bend_c, 11, 2304
21, 49935, Pitch_bend_c, 11, 1664
21, 49937, Pitch_bend_c, 11, 1280
21, 49940, Pitch_bend_c, 11, 896
21, 49942, Pitch_bend_c, 11, 512
21, 49945, Pitch_bend_c, 11, 128
21, 49950, Pitch_bend_c, 11, 8192
21, 50127, Pitch_bend_c, 11, 4096
21, 50130, Note_on_c, 11, 65, 88
21, 50142, Pitch_bend_c, 11, 8192
21, 50190, Note_on_c, 11, 65, 0
21, 50190, Note_on_c, 11, 68, 88
21, 50250, Note_on_c, 11, 68, 0
21, 50250, Note_on_c, 11, 73, 88
21, 50370, Note_on_c, 11, 73, 0
21, 50370, Note_on_c, 11, 73, 88
21, 50520, Note_on_c, 11, 73, 0
21, 50520, Note_on_c, 11, 72, 88
21, 50550, Note_on_c, 11, 72, 0
21, 50550, Note_on_c, 11, 70, 72
21, 50580, Note_on_c, 11, 70, 0
21, 50580, Note_on_c, 11, 68, 74
21, 50610, Note_on_c, 11, 68, 0
21, 50610, Note_on_c, 11, 70, 88
21, 50670, Note_on_c, 11, 70, 0
21, 50670, Note_on_c, 11, 65, 88
21, 50730, Note_on_c, 11, 65, 0
21, 50730, Note_on_c, 11, 68, 93
21, 50969, Pitch_bend_c, 11, 4096
21, 50970, Note_on_c, 11, 68, 0
21, 50970, Note_on_c, 11, 72, 88
21, 50994, Pitch_bend_c, 11, 8192
21, 51090, Note_on_c, 11, 72, 0
21, 51090, Note_on_c, 11, 68, 88
21, 51210, Control_c, 11, 11, 126
21, 51217, Control_c, 11, 11, 125
21, 51227, Control_c, 11, 11, 124
21, 51235, Control_c, 11, 11, 123
21, 51242, Control_c, 11, 11, 122
21, 51247, Control_c, 11, 11, 121
21, 51252, Control_c, 11, 11, 120
21, 51260, Control_c, 11, 11, 119
21, 51262, Control_c, 11, 11, 118
21, 51272, Pitch_bend_c, 11, 8064
21, 51275, Control_c, 11, 11, 117
21, 51275, Pitch_bend_c, 11, 7936
21, 51277, Pitch_bend_c, 11, 7808
21, 51280, Control_c, 11, 11, 116
21, 51280, Pitch_bend_c, 11, 7552
21, 51285, Control_c, 11, 11, 115
21, 51285, Pitch_bend_c, 11, 7296
21, 51287, Pitch_bend_c, 11, 7040
21, 51290, Control_c, 11, 11, 114
21, 51292, Pitch_bend_c, 11, 6656
21, 51295, Control_c, 11, 11, 113
21, 51295, Pitch_bend_c, 11, 6400
21, 51297, Pitch_bend_c, 11, 6144
21, 51300, Control_c, 11, 11, 112
21, 51300, Pitch_bend_c, 11, 5888
21, 51302, Control_c, 11, 11, 111
21, 51302, Pitch_bend_c, 11, 5760
21, 51305, Pitch_bend_c, 11, 5504
21, 51307, Pitch_bend_c, 11, 5248
21, 51310, Control_c, 11, 11, 110
21, 51310, Pitch_bend_c, 11, 4992
21, 51312, Pitch_bend_c, 11, 4736
21, 51315, Pitch_bend_c, 11, 4480
21, 51317, Control_c, 11, 11, 109
21, 51317, Pitch_bend_c, 11, 4224
21, 51320, Control_c, 11, 11, 108
21, 51320, Pitch_bend_c, 11, 3968
21, 51322, Pitch_bend_c, 11, 3584
21, 51325, Control_c, 11, 11, 107
21, 51325, Pitch_bend_c, 11, 3072
21, 51327, Pitch_bend_c, 11, 2816
21, 51330, Note_on_c, 11, 68, 0
21, 51330, Pitch_bend_c, 11, 8192
21, 51332, Control_c, 11, 11, 106
21, 51335, Control_c, 11, 11, 105
21, 51340, Control_c, 11, 11, 104
21, 51342, Control_c, 11, 11, 103
21, 51350, Control_c, 11, 11, 102
21, 51355, Control_c, 11, 11, 101
21, 51360, Control_c, 11, 11, 100
21, 51362, Control_c, 11, 11, 99
21, 51367, Control_c, 11, 11, 98
21, 51390, Control_c, 11, 11, 127
21, 51510, Note_on_c, 11, 53, 88
21, 51570, Note_on_c, 11, 53, 0
21, 51570, Note_on_c, 11, 56, 78
21, 51630, Note_on_c, 11, 56, 0
21, 51630, Note_on_c, 11, 58, 88
21, 51690, Note_on_c, 11, 58, 0
21, 51690, Note_on_c, 11, 59, 78
21, 51750, Note_on_c, 11, 59, 0
21, 51750, Note_on_c, 11, 60, 88
21, 51810, Note_on_c, 11, 60, 0
21, 51810, Note_on_c, 11, 61, 78
21, 51870, Note_on_c, 11, 61, 0
21, 51870, Note_on_c, 11, 62, 88
21, 51930, Note_on_c, 11, 62, 0
21, 51930, Note_on_c, 11, 63, 78
21, 51990, Note_on_c, 11, 63, 0
21, 51990, Note_on_c, 11, 59, 88
21, 52020, Note_on_c, 11, 59, 0
21, 52020, Note_on_c, 11, 58, 78
21, 52050, Note_on_c, 11, 58, 0
21, 52050, Note_on_c, 11, 56, 88
21, 52110, Note_on_c, 11, 56, 0
21, 52110, Note_on_c, 11, 53, 88
21, 52170, Note_on_c, 11, 53, 0
21, 52170, Note_on_c, 11, 56, 88
21, 52230, Note_on_c, 11, 56, 0
21, 52230, Note_on_c, 11, 60, 88
21, 52290, Note_on_c, 11, 60, 0
21, 52290, Note_on_c, 11, 63, 88
21, 52349, Pitch_bend_c, 11, 3968
21, 52350, Note_on_c, 11, 63, 0
21, 52350, Note_on_c, 11, 68, 88
21, 52367, Pitch_bend_c, 11, 8192
21, 52410, Note_on_c, 11, 68, 0
21, 52410, Note_on_c, 11, 68, 88
21, 52530, Note_on_c, 11, 68, 0
21, 52530, Note_on_c, 11, 68, 92
21, 52652, Control_c, 11, 11, 126
21, 52662, Control_c, 11, 11, 124
21, 52672, Control_c, 11, 11, 123
21, 52685, Control_c, 11, 11, 121
21, 52695, Control_c, 11, 11, 119
21, 52705, Control_c, 11, 11, 118
21, 52712, Control_c, 11, 11, 116
21, 52715, Pitch_bend_c, 11, 8192
21, 52717, Pitch_bend_c, 11, 8064
21, 52720, Pitch_bend_c, 11, 7936
21, 52722, Control_c, 11, 11, 114
21, 52722, Pitch_bend_c, 11, 7808
21, 52725, Pitch_bend_c, 11, 7552
21, 52730, Control_c, 11, 11, 113
21, 52730, Pitch_bend_c, 11, 7296
21, 52732, Pitch_bend_c, 11, 7040
21, 52735, Pitch_bend_c, 11, 6912
21, 52740, Control_c, 11, 11, 112
21, 52740, Pitch_bend_c, 11, 6656
21, 52742, Pitch_bend_c, 11, 6528
21, 52745, Pitch_bend_c, 11, 6272
21, 52747, Control_c, 11, 11, 111
21, 52747, Pitch_bend_c, 11, 6144
21, 52750, Pitch_bend_c, 11, 5888
21, 52752, Control_c, 11, 11, 110
21, 52752, Pitch_bend_c, 11, 5760
21, 52755, Pitch_bend_c, 11, 5504
21, 52757, Pitch_bend_c, 11, 5248
21, 52762, Control_c, 11, 11, 109
21, 52762, Pitch_bend_c, 11, 4992
21, 52765, Pitch_bend_c, 11, 4736
21, 52770, Note_on_c, 11, 68, 0
21, 52770, Control_c, 11, 11, 108
21, 52770, Pitch_bend_c, 11, 4352
21, 52772, Pitch_bend_c, 11, 4096
21, 52775, Control_c, 11, 11, 106
21, 52775, Pitch_bend_c, 11, 3840
21, 52780, Pitch_bend_c, 11, 3584
21, 52782, Control_c, 11, 11, 105
21, 52782, Pitch_bend_c, 11, 3200
21, 52785, Pitch_bend_c, 11, 3072
21, 52787, Pitch_bend_c, 11, 2944
21, 52790, Pitch_bend_c, 11, 2688
21, 52792, Control_c, 11, 11, 104
21, 52792, Pitch_bend_c, 11, 2560
21, 52795, Pitch_bend_c, 11, 2304
21, 52797, Pitch_bend_c, 11, 1920
21, 52800, Control_c, 11, 11, 103
21, 52800, Pitch_bend_c, 11, 1792
21, 52802, Pitch_bend_c, 11, 1536
21, 52805, Pitch_bend_c, 11, 1408
21, 52807, Pitch_bend_c, 11, 1152
21, 52810, Control_c, 11, 11, 102
21, 52810, Pitch_bend_c, 11, 640
21, 52815, Control_c, 11, 11, 101
21, 52830, Pitch_bend_c, 11, 8192
21, 52840, Control_c, 11, 11, 100
21, 52852, Control_c, 11, 11, 99
21, 52860, Control_c, 11, 11, 98
21, 52885, Control_c, 11, 11, 99
21, 52890, Control_c, 11, 11, 100
21, 52895, Control_c, 11, 11, 101
21, 52900, Control_c, 11, 11, 102
21, 52902, Control_c, 11, 11, 103
21, 52907, Control_c, 11, 11, 104
21, 52912, Control_c, 11, 11, 105
21, 52915, Control_c, 11, 11, 106
21, 52920, Control_c, 11, 11, 107
21, 52922, Control_c, 11, 11, 108
21, 52925, Control_c, 11, 11, 109
21, 52927, Control_c, 11, 11, 110
21, 52930, Control_c, 11, 11, 111
21, 52932, Control_c, 11, 11, 112
21, 52935, Control_c, 11, 11, 114
21, 52937, Control_c, 11, 11, 115
21, 52942, Control_c, 11, 11, 117
21, 52945, Control_c, 11, 11, 118
21, 52947, Control_c, 11, 11, 119
21, 52950, Control_c, 11, 11, 120
21, 52952, Control_c, 11, 11, 122
21, 52955, Control_c, 11, 11, 123
21, 52957, Control_c, 11, 11, 124
21, 52960, Control_c, 11, 11, 126
21, 52962, Control_c, 11, 11, 127
21, 53010, Note_on_c, 11, 63, 88
21, 53070, Note_on_c, 11, 63, 0
21, 53070, Note_on_c, 11, 65, 78
21, 53130, Note_on_c, 11, 65, 0
21, 53130, Note_on_c, 11, 65, 80
21, 53190, Note_on_c, 11, 65, 0
21, 53190, Note_on_c, 11, 68, 88
21, 53250, Note_on_c, 11, 68, 0
21, 53250, Note_on_c, 11, 70, 88
21, 53310, Note_on_c, 11, 70, 0
21, 53310, Note_on_c, 11, 72, 86
21, 53370, Note_on_c, 11, 72, 0
21, 53370, Note_on_c, 11, 72, 76
21, 53430, Note_on_c, 11, 72, 0
21, 53430, Note_on_c, 11, 72, 72
21, 53490, Note_on_c, 11, 72, 0
21, 53490, Note_on_c, 11, 75, 93
21, 53550, Note_on_c, 11, 75, 0
21, 53550, Note_on_c, 11, 72, 88
21, 53610, Note_on_c, 11, 72, 0
21, 53610, Note_on_c, 11, 75, 93
21, 53730, Note_on_c, 11, 75, 0
21, 53730, Note_on_c, 11, 77, 88
21, 53790, Note_on_c, 11, 77, 0
21, 53790, Note_on_c, 11, 80, 93
21, 53850, Note_on_c, 11, 80, 0
21, 53850, Note_on_c, 11, 80, 78
21, 53910, Note_on_c, 11, 80, 0
21, 53910, Note_on_c, 11, 82, 98
21, 53970, Note_on_c, 11, 82, 0
21, 53970, Note_on_c, 11, 75, 88
21, 54117, Control_c, 11, 11, 125
21, 54120, Control_c, 11, 11, 124
21, 54127, Control_c, 11, 11, 122
21, 54130, Control_c, 11, 11, 121
21, 54135, Control_c, 11, 11, 120
21, 54140, Control_c, 11, 11, 118
21, 54147, Control_c, 11, 11, 117
21, 54155, Control_c, 11, 11, 115
21, 54162, Control_c, 11, 11, 114
21, 54165, Pitch_bend_c, 11, 8192
21, 54167, Pitch_bend_c, 11, 8064
21, 54170, Pitch_bend_c, 11, 7936
21, 54172, Control_c, 11, 11, 113
21, 54172, Pitch_bend_c, 11, 7808
21, 54177, Pitch_bend_c, 11, 7680
21, 54180, Pitch_bend_c, 11, 7552
21, 54182, Pitch_bend_c, 11, 7424
21, 54185, Control_c, 11, 11, 112
21, 54185, Pitch_bend_c, 11, 7168
21, 54187, Pitch_bend_c, 11, 7040
21, 54190, Pitch_bend_c, 11, 6912
21, 54195, Pitch_bend_c, 11, 6656
21, 54197, Pitch_bend_c, 11, 6528
21, 54200, Pitch_bend_c, 11, 6272
21, 54205, Pitch_bend_c, 11, 5888
21, 54207, Pitch_bend_c, 11, 5760
21, 54210, Note_on_c, 11, 75, 0
21, 54210, Pitch_bend_c, 11, 5504
21, 54215, Pitch_bend_c, 11, 5376
21, 54217, Pitch_bend_c, 11, 5120
21, 54220, Pitch_bend_c, 11, 4992
21, 54222, Pitch_bend_c, 11, 4736
21, 54225, Pitch_bend_c, 11, 4480
21, 54227, Pitch_bend_c, 11, 4352
21, 54230, Pitch_bend_c, 11, 4096
21, 54232, Pitch_bend_c, 11, 3968
21, 54235, Pitch_bend_c, 11, 3712
21, 54237, Pitch_bend_c, 11, 3456
21, 54240, Pitch_bend_c, 11, 3200
21, 54242, Pitch_bend_c, 11, 3072
21, 54245, Pitch_bend_c, 11, 2816
21, 54247, Pitch_bend_c, 11, 2432
21, 54250, Pitch_bend_c, 11, 2304
21, 54252, Pitch_bend_c, 11, 2048
21, 54255, Pitch_bend_c, 11, 1664
21, 54257, Pitch_bend_c, 11, 1408
21, 54260, Control_c, 11, 11, 113
21, 54260, Pitch_bend_c, 11, 1152
21, 54262, Pitch_bend_c, 11, 1024
21, 54265, Pitch_bend_c, 11, 896
21, 54267, Pitch_bend_c, 11, 1664
21, 54270, Pitch_bend_c, 11, 8192
21, 54275, Control_c, 11, 11, 114
21, 54295, Control_c, 11, 11, 115
21, 54297, Control_c, 11, 11, 116
21, 54300, Control_c, 11, 11, 117
21, 54305, Control_c, 11, 11, 118
21, 54307, Control_c, 11, 11, 120
21, 54310, Control_c, 11, 11, 122
21, 54312, Control_c, 11, 11, 123
21, 54315, Control_c, 11, 11, 126
21, 54317, Control_c, 11, 11, 127
21, 54450, Note_on_c, 11, 80, 98
21, 54510, Note_on_c, 11, 80, 0
21, 54510, Note_on_c, 11, 76, 94
21, 54570, Note_on_c, 11, 76, 0
21, 54570, Note_on_c, 11, 72, 92
21, 54630, Note_on_c, 11, 72, 0
21, 54630, Note_on_c, 11, 68, 78
21, 54690, Note_on_c, 11, 68, 0
21, 54690, Note_on_c, 11, 64, 84
21, 54745, Pitch_bend_c, 11, 4096
21, 54750, Note_on_c, 11, 64, 0
21, 54750, Note_on_c, 11, 77, 88
21, 54762, Pitch_bend_c, 11, 8192
21, 54930, Note_on_c, 11, 77, 0
21, 54930, Note_on_c, 11, 77, 93
21, 55045, Note_on_c, 11, 77, 0
21, 55050, Note_on_c, 11, 75, 84
21, 55200, Note_on_c, 11, 75, 0
21, 55200, Note_on_c, 11, 72, 82
21, 55230, Note_on_c, 11, 72, 0
21, 55230, Note_on_c, 11, 70, 68
21, 55260, Note_on_c, 11, 70, 0
21, 55260, Note_on_c, 11, 68, 72
21, 55290, Note_on_c, 11, 68, 0
21, 55290, Note_on_c, 11, 68, 80
21, 55320, Note_on_c, 11, 68, 0
21, 55350, Note_on_c, 11, 65, 88
21, 55380, Note_on_c, 11, 65, 0
21, 55410, Note_on_c, 11, 68, 78
21, 55440, Note_on_c, 11, 68, 0
21, 55470, Note_on_c, 11, 68, 68
21, 55530, Note_on_c, 11, 68, 0
21, 55530, Note_on_c, 11, 70, 78
21, 55590, Note_on_c, 11, 70, 0
21, 55590, Note_on_c, 11, 63, 88
21, 55650, Note_on_c, 11, 63, 0
21, 55650, Note_on_c, 11, 72, 88
21, 55829, Note_on_c, 11, 72, 0
21, 55829, Pitch_bend_c, 11, 6144
21, 55830, Note_on_c, 11, 72, 92
21, 55842, Pitch_bend_c, 11, 8192
21, 56007, Control_c, 11, 11, 127
21, 56010, Note_on_c, 11, 72, 0
21, 56010, Note_on_c, 11, 72, 78
21, 56012, Control_c, 11, 11, 126
21, 56015, Control_c, 11, 11, 125
21, 56017, Control_c, 11, 11, 124
21, 56022, Control_c, 11, 11, 123
21, 56025, Control_c, 11, 11, 122
21, 56030, Control_c, 11, 11, 121
21, 56040, Pitch_bend_c, 11, 8192
21, 56042, Control_c, 11, 11, 120
21, 56042, Pitch_bend_c, 11, 8064
21, 56045, Pitch_bend_c, 11, 7936
21, 56047, Control_c, 11, 11, 121
21, 56047, Pitch_bend_c, 11, 7552
21, 56050, Pitch_bend_c, 11, 7168
21, 56052, Control_c, 11, 11, 122
21, 56052, Pitch_bend_c, 11, 6784
21, 56055, Control_c, 11, 11, 123
21, 56055, Pitch_bend_c, 11, 6528
21, 56057, Pitch_bend_c, 11, 6144
21, 56060, Control_c, 11, 11, 124
21, 56060, Pitch_bend_c, 11, 6016
21, 56062, Control_c, 11, 11, 125
21, 56062, Pitch_bend_c, 11, 5632
21, 56065, Pitch_bend_c, 11, 5376
21, 56067, Control_c, 11, 11, 126
21, 56067, Pitch_bend_c, 11, 4864
21, 56068, Note_on_c, 11, 72, 0
21, 56070, Note_on_c, 11, 70, 82
21, 56070, Control_c, 11, 11, 127
21, 56072, Pitch_bend_c, 11, 8192
21, 56130, Note_on_c, 11, 70, 0
21, 56130, Note_on_c, 11, 68, 78
21, 56190, Note_on_c, 11, 68, 0
21, 56190, Note_on_c, 11, 73, 88
21, 56250, Note_on_c, 11, 73, 0
21, 56250, Note_on_c, 11, 68, 78
21, 56310, Note_on_c, 11, 68, 0
21, 56310, Note_on_c, 11, 75, 88
21, 56370, Note_on_c, 11, 75, 0
21, 56370, Note_on_c, 11, 68, 78
21, 56430, Note_on_c, 11, 68, 0
21, 56430, Note_on_c, 11, 77, 88
21, 56490, Note_on_c, 11, 77, 0
21, 56490, Note_on_c, 11, 68, 78
21, 56550, Note_on_c, 11, 68, 0
21, 56550, Note_on_c, 11, 75, 88
21, 56729, Pitch_bend_c, 11, 4096
21, 56730, Note_on_c, 11, 75, 0
21, 56730, Note_on_c, 11, 72, 88
21, 56746, Pitch_bend_c, 11, 8192
21, 56850, Pitch_bend_c, 11, 4096
21, 57152, Control_c, 11, 11, 127
21, 57155, Control_c, 11, 11, 126
21, 57160, Control_c, 11, 11, 125
21, 57167, Control_c, 11, 11, 124
21, 57170, Control_c, 11, 11, 123
21, 57177, Control_c, 11, 11, 122
21, 57180, Control_c, 11, 11, 121
21, 57187, Control_c, 11, 11, 120
21, 57192, Control_c, 11, 11, 119
21, 57197, Control_c, 11, 11, 118
21, 57200, Control_c, 11, 11, 117
21, 57205, Control_c, 11, 11, 116
21, 57210, Control_c, 11, 11, 115
21, 57212, Pitch_bend_c, 11, 4096
21, 57215, Control_c, 11, 11, 114
21, 57217, Control_c, 11, 11, 113
21, 57220, Pitch_bend_c, 11, 3968
21, 57222, Control_c, 11, 11, 112
21, 57225, Control_c, 11, 11, 111
21, 57225, Pitch_bend_c, 11, 3840
21, 57227, Pitch_bend_c, 11, 3712
21, 57230, Control_c, 11, 11, 110
21, 57230, Pitch_bend_c, 11, 3584
21, 57232, Control_c, 11, 11, 109
21, 57235, Pitch_bend_c, 11, 3456
21, 57237, Control_c, 11, 11, 108
21, 57237, Pitch_bend_c, 11, 3328
21, 57240, Control_c, 11, 11, 107
21, 57240, Pitch_bend_c, 11, 3200
21, 57245, Control_c, 11, 11, 106
21, 57245, Pitch_bend_c, 11, 3072
21, 57247, Control_c, 11, 11, 105
21, 57250, Pitch_bend_c, 11, 2944
21, 57252, Control_c, 11, 11, 104
21, 57252, Pitch_bend_c, 11, 2816
21, 57255, Control_c, 11, 11, 103
21, 57255, Pitch_bend_c, 11, 2688
21, 57257, Pitch_bend_c, 11, 2560
21, 57260, Control_c, 11, 11, 102
21, 57262, Control_c, 11, 11, 101
21, 57262, Pitch_bend_c, 11, 2304
21, 57265, Pitch_bend_c, 11, 2176
21, 57267, Control_c, 11, 11, 100
21, 57267, Pitch_bend_c, 11, 2048
21, 57270, Note_on_c, 11, 72, 0
21, 57270, Pitch_bend_c, 11, 1792
21, 57272, Control_c, 11, 11, 99
21, 57275, Control_c, 11, 11, 98
21, 57275, Pitch_bend_c, 11, 1536
21, 57277, Control_c, 11, 11, 97
21, 57277, Pitch_bend_c, 11, 1408
21, 57280, Control_c, 11, 11, 96
21, 57280, Pitch_bend_c, 11, 1152
21, 57282, Control_c, 11, 11, 95
21, 57282, Pitch_bend_c, 11, 1024
21, 57285, Control_c, 11, 11, 94
21, 57285, Pitch_bend_c, 11, 768
21, 57287, Control_c, 11, 11, 93
21, 57287, Pitch_bend_c, 11, 640
21, 57290, Pitch_bend_c, 11, 512
21, 57295, Control_c, 11, 11, 92
21, 57295, Pitch_bend_c, 11, 256
21, 57297, Pitch_bend_c, 11, 128
21, 57300, Control_c, 11, 11, 91
21, 57310, Control_c, 11, 11, 90
21, 57312, Control_c, 11, 11, 89
21, 57320, Control_c, 11, 11, 88
21, 57327, Control_c, 11, 11, 127
21, 57329, Pitch_bend_c, 11, 8192
21, 57330, Note_on_c, 11, 63, 78
21, 57390, Note_on_c, 11, 63, 0
21, 57390, Note_on_c, 11, 65, 88
21, 57450, Note_on_c, 11, 65, 0
21, 57450, Note_on_c, 11, 67, 78
21, 57510, Note_on_c, 11, 67, 0
21, 57510, Note_on_c, 11, 68, 88
21, 57570, Note_on_c, 11, 68, 0
21, 57570, Note_on_c, 11, 70, 78
21, 57630, Note_on_c, 11, 70, 0
21, 57630, Note_on_c, 11, 72, 88
21, 57750, Note_on_c, 11, 72, 0
21, 57750, Note_on_c, 11, 73, 88
21, 57810, Note_on_c, 11, 73, 0
21, 57870, Note_on_c, 11, 68, 88
21, 57930, Note_on_c, 11, 68, 0
21, 57990, Note_on_c, 11, 70, 88
21, 58170, Note_on_c, 11, 70, 0
21, 58170, Note_on_c, 11, 75, 88
21, 58230, Note_on_c, 11, 75, 0
21, 58230, Note_on_c, 11, 77, 78
21, 58290, Note_on_c, 11, 77, 0
21, 58290, Note_on_c, 11, 79, 88
21, 58410, Note_on_c, 11, 79, 0
21, 58410, Note_on_c, 11, 82, 78
21, 58470, Note_on_c, 11, 82, 0
21, 58470, Note_on_c, 11, 79, 84
21, 58530, Note_on_c, 11, 79, 0
21, 58530, Note_on_c, 11, 80, 88
21, 58770, Control_c, 11, 11, 127
21, 58772, Control_c, 11, 11, 126
21, 58777, Control_c, 11, 11, 125
21, 58782, Control_c, 11, 11, 124
21, 58787, Control_c, 11, 11, 123
21, 58792, Control_c, 11, 11, 122
21, 58797, Pitch_bend_c, 11, 8192
21, 58797, Control_c, 11, 11, 121
21, 58802, Control_c, 11, 11, 120
21, 58805, Pitch_bend_c, 11, 8064
21, 58807, Pitch_bend_c, 11, 7936
21, 58810, Control_c, 11, 11, 118
21, 58815, Pitch_bend_c, 11, 7808
21, 58815, Control_c, 11, 11, 117
21, 58817, Pitch_bend_c, 11, 7680
21, 58820, Control_c, 11, 11, 116
21, 58822, Pitch_bend_c, 11, 7424
21, 58822, Control_c, 11, 11, 115
21, 58827, Control_c, 11, 11, 114
21, 58830, Pitch_bend_c, 11, 7168
21, 58835, Pitch_bend_c, 11, 6912
21, 58837, Control_c, 11, 11, 113
21, 58840, Pitch_bend_c, 11, 6784
21, 58842, Pitch_bend_c, 11, 6656
21, 58845, Pitch_bend_c, 11, 6400
21, 58847, Pitch_bend_c, 11, 6144
21, 58852, Pitch_bend_c, 11, 6016
21, 58855, Pitch_bend_c, 11, 5888
21, 58857, Pitch_bend_c, 11, 5632
21, 58862, Pitch_bend_c, 11, 5504
21, 58865, Pitch_bend_c, 11, 5248
21, 58867, Pitch_bend_c, 11, 5120
21, 58870, Pitch_bend_c, 11, 4992
21, 58872, Pitch_bend_c, 11, 4864
21, 58877, Pitch_bend_c, 11, 4608
21, 58880, Pitch_bend_c, 11, 4480
21, 58882, Pitch_bend_c, 11, 4352
21, 58885, Pitch_bend_c, 11, 4224
21, 58887, Pitch_bend_c, 11, 3968
21, 58890, Note_on_c, 11, 80, 0
21, 58890, Pitch_bend_c, 11, 3840
21, 58892, Pitch_bend_c, 11, 3712
21, 58895, Pitch_bend_c, 11, 3584
21, 58897, Pitch_bend_c, 11, 3456
21, 58900, Pitch_bend_c, 11, 3328
21, 58902, Pitch_bend_c, 11, 3072
21, 58905, Pitch_bend_c, 11, 2816
21, 58907, Pitch_bend_c, 11, 2688
21, 58910, Pitch_bend_c, 11, 2560
21, 58912, Pitch_bend_c, 11, 2432
21, 58915, Pitch_bend_c, 11, 2176
21, 58917, Pitch_bend_c, 11, 1920
21, 58920, Pitch_bend_c, 11, 1792
21, 58922, Pitch_bend_c, 11, 1408
21, 58925, Pitch_bend_c, 11, 1152
21, 58925, Control_c, 11, 11, 114
21, 58927, Pitch_bend_c, 11, 768
21, 58930, Pitch_bend_c, 11, 384
21, 58930, Control_c, 11, 11, 115
21, 58935, Control_c, 11, 11, 116
21, 58937, Control_c, 11, 11, 117
21, 58940, Control_c, 11, 11, 118
21, 58942, Control_c, 11, 11, 119
21, 58945, Control_c, 11, 11, 120
21, 58947, Pitch_bend_c, 11, 8192
21, 58947, Control_c, 11, 11, 122
21, 58950, Control_c, 11, 11, 125
21, 59010, Note_on_c, 11, 68, 88
21, 59070, Note_on_c, 11, 68, 0
21, 59070, Note_on_c, 11, 77, 88
21, 59310, Note_on_c, 11, 77, 0
21, 59310, Note_on_c, 11, 75, 88
21, 59370, Note_on_c, 11, 75, 0
21, 59370, Note_on_c, 11, 73, 88
21, 59430, Note_on_c, 11, 73, 0
21, 59430, Note_on_c, 11, 75, 88
21, 59552, Control_c, 11, 11, 127
21, 59555, Control_c, 11, 11, 126
21, 59560, Control_c, 11, 11, 125
21, 59562, Control_c, 11, 11, 124
21, 59565, Control_c, 11, 11, 123
21, 59570, Control_c, 11, 11, 122
21, 59572, Control_c, 11, 11, 121
21, 59577, Pitch_bend_c, 11, 8192
21, 59580, Control_c, 11, 11, 120
21, 59580, Pitch_bend_c, 11, 8064
21, 59585, Pitch_bend_c, 11, 7936
21, 59587, Control_c, 11, 11, 119
21, 59590, Pitch_bend_c, 11, 7808
21, 59592, Control_c, 11, 11, 118
21, 59592, Pitch_bend_c, 11, 7680
21, 59595, Pitch_bend_c, 11, 7552
21, 59597, Pitch_bend_c, 11, 7296
21, 59600, Control_c, 11, 11, 117
21, 59600, Pitch_bend_c, 11, 7168
21, 59602, Pitch_bend_c, 11, 6912
21, 59605, Pitch_bend_c, 11, 6784
21, 59607, Pitch_bend_c, 11, 6656
21, 59610, Note_on_c, 11, 75, 0
21, 59610, Control_c, 11, 11, 116
21, 59610, Pitch_bend_c, 11, 6400
21, 59612, Pitch_bend_c, 11, 6144
21, 59615, Pitch_bend_c, 11, 5888
21, 59617, Pitch_bend_c, 11, 5760
21, 59620, Pitch_bend_c, 11, 5376
21, 59622, Pitch_bend_c, 11, 5248
21, 59625, Control_c, 11, 11, 115
21, 59625, Pitch_bend_c, 11, 4992
21, 59627, Pitch_bend_c, 11, 4736
21, 59630, Pitch_bend_c, 11, 4480
21, 59632, Pitch_bend_c, 11, 4224
21, 59635, Pitch_bend_c, 11, 3968
21, 59637, Pitch_bend_c, 11, 3584
21, 59640, Pitch_bend_c, 11, 3200
21, 59642, Pitch_bend_c, 11, 2688
21, 59645, Pitch_bend_c, 11, 2304
21, 59647, Pitch_bend_c, 11, 1920
21, 59650, Pitch_bend_c, 11, 1280
21, 59652, Pitch_bend_c, 11, 768
21, 59655, Control_c, 11, 11, 116
21, 59655, Pitch_bend_c, 11, 384
21, 59657, Pitch_bend_c, 11, 128
21, 59667, Pitch_bend_c, 11, 8192
21, 59670, Note_on_c, 11, 65, 88
21, 59672, Control_c, 11, 11, 117
21, 59680, Control_c, 11, 11, 118
21, 59690, Control_c, 11, 11, 119
21, 59695, Control_c, 11, 11, 120
21, 59702, Control_c, 11, 11, 121
21, 59707, Control_c, 11, 11, 122
21, 59710, Control_c, 11, 11, 123
21, 59712, Control_c, 11, 11, 124
21, 59717, Control_c, 11, 11, 125
21, 59720, Control_c, 11, 11, 126
21, 59725, Control_c, 11, 11, 127
21, 59730, Note_on_c, 11, 65, 0
21, 59730, Note_on_c, 11, 67, 88
21, 59790, Note_on_c, 11, 67, 0
21, 59790, Note_on_c, 11, 68, 88
21, 59850, Note_on_c, 11, 68, 0
21, 59850, Note_on_c, 11, 65, 78
21, 59910, Note_on_c, 11, 65, 0
21, 59910, Note_on_c, 11, 70, 88
21, 59970, Note_on_c, 11, 70, 0
21, 59970, Note_on_c, 11, 65, 78
21, 60030, Note_on_c, 11, 65, 0
21, 60030, Note_on_c, 11, 72, 88
21, 60090, Note_on_c, 11, 72, 0
21, 60090, Note_on_c, 11, 65, 78
21, 60150, Note_on_c, 11, 65, 0
21, 60150, Note_on_c, 11, 72, 88
21, 60330, Note_on_c, 11, 72, 0
21, 60330, Note_on_c, 11, 70, 88
21, 60392, Pitch_bend_c, 11, 8192
21, 60397, Pitch_bend_c, 11, 8448
21, 60400, Pitch_bend_c, 11, 8576
21, 60405, Pitch_bend_c, 11, 8704
21, 60407, Pitch_bend_c, 11, 8960
21, 60410, Pitch_bend_c, 11, 9088
21, 60415, Pitch_bend_c, 11, 9344
21, 60417, Pitch_bend_c, 11, 9600
21, 60422, Pitch_bend_c, 11, 9728
21, 60425, Pitch_bend_c, 11, 9984
21, 60427, Pitch_bend_c, 11, 10112
21, 60430, Pitch_bend_c, 11, 10240
21, 60432, Pitch_bend_c, 11, 10496
21, 60435, Pitch_bend_c, 11, 10880
21, 60437, Pitch_bend_c, 11, 11265
21, 60440, Pitch_bend_c, 11, 11604
21, 60442, Pitch_bend_c, 11, 11864
21, 60446, Pitch_bend_c, 11, 12032
21, 60450, Pitch_bend_c, 11, 12288
21, 60457, Pitch_bend_c, 11, 8192
21, 60458, Note_on_c, 11, 72, 74
21, 60517, Note_on_c, 11, 70, 0
21, 60570, Control_c, 11, 11, 127
21, 60580, Control_c, 11, 11, 126
21, 60591, Control_c, 11, 11, 125
21, 60602, Control_c, 11, 11, 124
21, 60613, Control_c, 11, 11, 123
21, 60624, Control_c, 11, 11, 122
21, 60635, Control_c, 11, 11, 121
21, 60646, Control_c, 11, 11, 120
21, 60656, Control_c, 11, 11, 119
21, 60667, Control_c, 11, 11, 118
21, 60678, Control_c, 11, 11, 117
21, 60689, Control_c, 11, 11, 116
21, 60700, Control_c, 11, 11, 115
21, 60711, Control_c, 11, 11, 114
21, 60722, Control_c, 11, 11, 113
21, 60732, Control_c, 11, 11, 112
21, 60743, Control_c, 11, 11, 111
21, 60754, Control_c, 11, 11, 110
21, 60765, Control_c, 11, 11, 109
21, 60776, Control_c, 11, 11, 108
21, 60787, Control_c, 11, 11, 107
21, 60798, Control_c, 11, 11, 106
21, 60809, Control_c, 11, 11, 105
21, 60819, Control_c, 11, 11, 104
21, 60830, Control_c, 11, 11, 103
21, 60841, Control_c, 11, 11, 102
21, 60852, Control_c, 11, 11, 101
21, 60863, Control_c, 11, 11, 100
21, 60874, Control_c, 11, 11, 99
21, 60885, Control_c, 11, 11, 98
21, 60895, Control_c, 11, 11, 97
21, 60906, Control_c, 11, 11, 96
21, 60917, Control_c, 11, 11, 95
21, 60928, Control_c, 11, 11, 94
21, 60939, Control_c, 11, 11, 93
21, 60950, Control_c, 11, 11, 92
21, 60961, Control_c, 11, 11, 91
21, 60972, Control_c, 11, 11, 90
21, 60982, Control_c, 11, 11, 89
21, 60993, Control_c, 11, 11, 88
21, 61004, Control_c, 11, 11, 87
21, 61015, Control_c, 11, 11, 86
21, 61026, Control_c, 11, 11, 85
21, 61037, Control_c, 11, 11, 84
21, 61048, Control_c, 11, 11, 83
21, 61058, Control_c, 11, 11, 82
21, 61069, Control_c, 11, 11, 81
21, 61080, Control_c, 11, 11, 80
21, 61091, Control_c, 11, 11, 79
21, 61102, Control_c, 11, 11, 78
21, 61113, Control_c, 11, 11, 77
21, 61124, Control_c, 11, 11, 76
21, 61135, Control_c, 11, 11, 75
21, 61145, Control_c, 11, 11, 74
21, 61156, Control_c, 11, 11, 73
21, 61167, Control_c, 11, 11, 72
21, 61178, Control_c, 11, 11, 71
21, 61189, Control_c, 11, 11, 70
21, 61200, Control_c, 11, 11, 69
21, 61211, Control_c, 11, 11, 68
21, 61221, Control_c, 11, 11, 67
21, 61232, Control_c, 11, 11, 66
21, 61243, Control_c, 11, 11, 65
21, 61254, Control_c, 11, 11, 64
21, 61265, Control_c, 11, 11, 63
21, 61276, Control_c, 11, 11, 62
21, 61287, Control_c, 11, 11, 61
21, 61298, Control_c, 11, 11, 60
21, 61308, Control_c, 11, 11, 59
21, 61319, Control_c, 11, 11, 58
21, 61330, Control_c, 11, 11, 57
21, 61341, Control_c, 11, 11, 56
21, 61352, Control_c, 11, 11, 55
21, 61363, Control_c, 11, 11, 54
21, 61374, Control_c, 11, 11, 53
21, 61384, Control_c, 11, 11, 52
21, 61395, Control_c, 11, 11, 51
21, 61406, Control_c, 11, 11, 50
21, 61417, Control_c, 11, 11, 49
21, 61428, Control_c, 11, 11, 48
21, 61439, Control_c, 11, 11, 47
21, 61450, Control_c, 11, 11, 46
21, 61461, Control_c, 11, 11, 45
21, 61471, Control_c, 11, 11, 44
21, 61482, Control_c, 11, 11, 43
21, 61493, Control_c, 11, 11, 42
21, 61504, Control_c, 11, 11, 41
21, 61515, Control_c, 11, 11, 40
21, 61526, Control_c, 11, 11, 39
21, 61537, Control_c, 11, 11, 38
21, 61547, Control_c, 11, 11, 37
21, 61558, Control_c, 11, 11, 36
21, 61569, Control_c, 11, 11, 35
21, 61580, Control_c, 11, 11, 34
21, 61591, Control_c, 11, 11, 33
21, 61602, Control_c, 11, 11, 32
21, 61613, Control_c, 11, 11, 31
21, 61624, Control_c, 11, 11, 30
21, 61634, Control_c, 11, 11, 29
21, 61645, Control_c, 11, 11, 28
21, 61656, Control_c, 11, 11, 27
21, 61667, Control_c, 11, 11, 26
21, 61678, Control_c, 11, 11, 25
21, 61689, Control_c, 11, 11, 24
21, 61700, Control_c, 11, 11, 23
21, 61710, Control_c, 11, 11, 22
21, 61721, Control_c, 11, 11, 21
21, 61732, Control_c, 11, 11, 20
21, 61743, Control_c, 11, 11, 19
21, 61754, Control_c, 11, 11, 18
21, 61765, Control_c, 11, 11, 17
21, 61776, Control_c, 11, 11, 16
21, 61787, Control_c, 11, 11, 15
21, 61797, Control_c, 11, 11, 14
21, 61808, Control_c, 11, 11, 13
21, 61819, Control_c, 11, 11, 12
21, 61830, Control_c, 11, 11, 11
21, 61841, Control_c, 11, 11, 10
21, 61852, Control_c, 11, 11, 9
21, 61863, Control_c, 11, 11, 8
21, 61873, Control_c, 11, 11, 7
21, 61884, Control_c, 11, 11, 6
21, 61895, Control_c, 11, 11, 5
21, 61906, Control_c, 11, 11, 4
21, 61917, Control_c, 11, 11, 3
21, 61928, Control_c, 11, 11, 2
21, 61939, Control_c, 11, 11, 1
21, 61950, Control_c, 11, 11, 0
21, 62011, Control_c, 11, 11, 127
21, 62018, Note_on_c, 11, 72, 0
21, 92190, Note_on_c, 11, 75, 98
21, 92490, Note_on_c, 11, 75, 0
21, 92490, Note_on_c, 11, 80, 98
21, 92580, Pitch_bend_c, 11, 8192
21, 92582, Pitch_bend_c, 11, 8064
21, 92582, Control_c, 11, 11, 126
21, 92585, Pitch_bend_c, 11, 7808
21, 92587, Pitch_bend_c, 11, 7424
21, 92587, Control_c, 11, 11, 125
21, 92590, Pitch_bend_c, 11, 6784
21, 92590, Control_c, 11, 11, 124
21, 92592, Pitch_bend_c, 11, 6144
21, 92592, Control_c, 11, 11, 123
21, 92595, Pitch_bend_c, 11, 5376
21, 92597, Pitch_bend_c, 11, 4352
21, 92597, Control_c, 11, 11, 122
21, 92600, Pitch_bend_c, 11, 3200
21, 92602, Pitch_bend_c, 11, 1792
21, 92605, Pitch_bend_c, 11, 128
21, 92610, Note_on_c, 11, 80, 0
21, 92610, Control_c, 11, 11, 121
21, 92625, Control_c, 11, 11, 120
21, 92632, Control_c, 11, 11, 121
21, 92647, Control_c, 11, 11, 122
21, 92655, Control_c, 11, 11, 123
21, 92660, Control_c, 11, 11, 124
21, 92665, Control_c, 11, 11, 125
21, 92667, Control_c, 11, 11, 126
21, 92670, Pitch_bend_c, 11, 8192
21, 92725, Pitch_bend_c, 11, 4096
21, 92730, Note_on_c, 11, 72, 98
21, 92747, Pitch_bend_c, 11, 8192
21, 92850, Note_on_c, 11, 72, 0
21, 92850, Note_on_c, 11, 70, 98
21, 92970, Note_on_c, 11, 70, 0
21, 92970, Note_on_c, 11, 75, 98
21, 93085, Pitch_bend_c, 11, 4096
21, 93090, Note_on_c, 11, 75, 0
21, 93090, Note_on_c, 11, 72, 98
21, 93102, Pitch_bend_c, 11, 8192
21, 93107, Pitch_bend_c, 11, 8192
21, 93390, Note_on_c, 11, 72, 0
21, 93510, Note_on_c, 11, 63, 98
21, 93572, Pitch_bend_c, 11, 12288
21, 93630, Note_on_c, 11, 63, 0
21, 93630, Note_on_c, 11, 68, 98
21, 93630, Pitch_bend_c, 11, 8192
21, 93690, Note_on_c, 11, 68, 0
21, 93690, Note_on_c, 11, 65, 87
21, 93750, Note_on_c, 11, 65, 0
21, 93750, Note_on_c, 11, 68, 98
21, 93810, Note_on_c, 11, 68, 0
21, 93810, Note_on_c, 11, 68, 98
21, 93870, Note_on_c, 11, 68, 0
21, 93870, Note_on_c, 11, 65, 87
21, 93930, Note_on_c, 11, 65, 0
21, 93930, Note_on_c, 11, 68, 98
21, 93985, Pitch_bend_c, 11, 6144
21, 93990, Note_on_c, 11, 68, 0
21, 93990, Note_on_c, 11, 77, 98
21, 94005, Pitch_bend_c, 11, 8192
21, 94027, Control_c, 11, 11, 126
21, 94030, Control_c, 11, 11, 125
21, 94032, Control_c, 11, 11, 124
21, 94037, Control_c, 11, 11, 123
21, 94045, Control_c, 11, 11, 122
21, 94050, Control_c, 11, 11, 121
21, 94070, Control_c, 11, 11, 122
21, 94075, Control_c, 11, 11, 123
21, 94085, Control_c, 11, 11, 124
21, 94090, Control_c, 11, 11, 125
21, 94095, Control_c, 11, 11, 126
21, 94097, Control_c, 11, 11, 127
21, 94165, Pitch_bend_c, 11, 4096
21, 94170, Note_on_c, 11, 77, 0
21, 94170, Note_on_c, 11, 72, 98
21, 94182, Pitch_bend_c, 11, 8192
21, 94290, Note_on_c, 11, 72, 0
21, 94290, Note_on_c, 11, 70, 98
21, 94680, Pitch_bend_c, 11, 8192
21, 94685, Pitch_bend_c, 11, 8064
21, 94687, Pitch_bend_c, 11, 7808
21, 94692, Pitch_bend_c, 11, 7552
21, 94695, Pitch_bend_c, 11, 7296
21, 94697, Pitch_bend_c, 11, 7168
21, 94700, Pitch_bend_c, 11, 7040
21, 94702, Pitch_bend_c, 11, 6912
21, 94705, Pitch_bend_c, 11, 6656
21, 94707, Pitch_bend_c, 11, 6528
21, 94710, Note_on_c, 11, 70, 0
21, 94710, Pitch_bend_c, 11, 6272
21, 94710, Control_c, 11, 11, 127
21, 94712, Pitch_bend_c, 11, 6144
21, 94712, Control_c, 11, 11, 126
21, 94715, Pitch_bend_c, 11, 5888
21, 94717, Pitch_bend_c, 11, 5632
21, 94717, Control_c, 11, 11, 124
21, 94720, Pitch_bend_c, 11, 5504
21, 94722, Pitch_bend_c, 11, 5376
21, 94722, Control_c, 11, 11, 123
21, 94725, Pitch_bend_c, 11, 4864
21, 94727, Pitch_bend_c, 11, 4736
21, 94727, Control_c, 11, 11, 122
21, 94730, Pitch_bend_c, 11, 4352
21, 94732, Pitch_bend_c, 11, 4096
21, 94735, Pitch_bend_c, 11, 3840
21, 94735, Control_c, 11, 11, 121
21, 94737, Pitch_bend_c, 11, 3584
21, 94740, Pitch_bend_c, 11, 3072
21, 94742, Pitch_bend_c, 11, 2944
21, 94742, Control_c, 11, 11, 120
21, 94745, Pitch_bend_c, 11, 2432
21, 94747, Pitch_bend_c, 11, 2176
21, 94750, Pitch_bend_c, 11, 1664
21, 94752, Pitch_bend_c, 11, 1408
21, 94755, Pitch_bend_c, 11, 1152
21, 94757, Pitch_bend_c, 11, 640
21, 94760, Pitch_bend_c, 11, 256
21, 94762, Pitch_bend_c, 11, 128
21, 94770, Control_c, 11, 11, 119
21, 94777, Control_c, 11, 11, 120
21, 94787, Control_c, 11, 11, 121
21, 94792, Control_c, 11, 11, 122
21, 94797, Control_c, 11, 11, 123
21, 94802, Control_c, 11, 11, 124
21, 94810, Control_c, 11, 11, 125
21, 94812, Control_c, 11, 11, 126
21, 94815, Control_c, 11, 11, 127
21, 94827, Pitch_bend_c, 11, 8192
21, 96390, Note_on_c, 11, 56, 98
21, 96450, Note_on_c, 11, 56, 0
21, 96450, Note_on_c, 11, 58, 88
21, 96510, Note_on_c, 11, 58, 0
21, 96510, Note_on_c, 11, 61, 98
21, 96630, Note_on_c, 11, 61, 0
21, 96630, Note_on_c, 11, 61, 88
21, 96690, Note_on_c, 11, 61, 0
21, 96750, Note_on_c, 11, 63, 98
21, 96810, Note_on_c, 11, 63, 0
21, 96810, Note_on_c, 11, 65, 98
21, 96870, Note_on_c, 11, 65, 0
21, 96870, Note_on_c, 11, 63, 88
21, 97050, Note_on_c, 11, 63, 0
21, 97050, Note_on_c, 11, 68, 98
21, 97110, Note_on_c, 11, 68, 0
21, 97110, Note_on_c, 11, 63, 87
21, 97170, Note_on_c, 11, 63, 0
21, 97170, Note_on_c, 11, 70, 98
21, 97230, Pitch_bend_c, 11, 10240
21, 97290, Note_on_c, 11, 70, 0
21, 97290, Pitch_bend_c, 11, 8192
21, 97290, Note_on_c, 11, 63, 87
21, 97350, Note_on_c, 11, 63, 0
21, 97350, Note_on_c, 11, 73, 98
21, 97410, Note_on_c, 11, 73, 0
21, 97410, Note_on_c, 11, 63, 87
21, 97470, Note_on_c, 11, 63, 0
21, 97470, Note_on_c, 11, 75, 98
21, 97530, Note_on_c, 11, 75, 0
21, 97530, Note_on_c, 11, 63, 87
21, 97587, Pitch_bend_c, 11, 5504
21, 97590, Note_on_c, 11, 63, 0
21, 97590, Note_on_c, 11, 80, 98
21, 97606, Pitch_bend_c, 11, 8192
21, 97767, Pitch_bend_c, 11, 6016
21, 97770, Note_on_c, 11, 80, 0
21, 97770, Note_on_c, 11, 72, 98
21, 97787, Pitch_bend_c, 11, 8192
21, 97830, Pitch_bend_c, 11, 4096
21, 97890, Note_on_c, 11, 72, 0
21, 97890, Note_on_c, 11, 68, 98
21, 97890, Pitch_bend_c, 11, 8192
21, 98310, Control_c, 11, 11, 127
21, 98315, Control_c, 11, 11, 126
21, 98330, Control_c, 11, 11, 125
21, 98335, Control_c, 11, 11, 124
21, 98345, Control_c, 11, 11, 123
21, 98347, Control_c, 11, 11, 122
21, 98357, Control_c, 11, 11, 121
21, 98365, Control_c, 11, 11, 120
21, 98370, Control_c, 11, 11, 119
21, 98380, Control_c, 11, 11, 118
21, 98387, Control_c, 11, 11, 117
21, 98395, Control_c, 11, 11, 116
21, 98402, Control_c, 11, 11, 114
21, 98412, Control_c, 11, 11, 113
21, 98420, Control_c, 11, 11, 112
21, 98427, Control_c, 11, 11, 111
21, 98435, Control_c, 11, 11, 110
21, 98445, Control_c, 11, 11, 108
21, 98452, Control_c, 11, 11, 106
21, 98465, Control_c, 11, 11, 103
21, 98477, Control_c, 11, 11, 101
21, 98490, Control_c, 11, 11, 99
21, 98502, Control_c, 11, 11, 97
21, 98515, Control_c, 11, 11, 95
21, 98525, Control_c, 11, 11, 93
21, 98535, Control_c, 11, 11, 91
21, 98545, Control_c, 11, 11, 90
21, 98555, Control_c, 11, 11, 88
21, 98565, Control_c, 11, 11, 87
21, 98572, Control_c, 11, 11, 86
21, 98580, Control_c, 11, 11, 85
21, 98587, Control_c, 11, 11, 84
21, 98595, Control_c, 11, 11, 83
21, 98602, Control_c, 11, 11, 82
21, 98607, Control_c, 11, 11, 81
21, 98610, Control_c, 11, 11, 80
21, 98617, Control_c, 11, 11, 79
21, 98625, Control_c, 11, 11, 78
21, 98630, Control_c, 11, 11, 77
21, 98637, Control_c, 11, 11, 76
21, 98642, Control_c, 11, 11, 75
21, 98647, Control_c, 11, 11, 74
21, 98652, Control_c, 11, 11, 73
21, 98657, Control_c, 11, 11, 72
21, 98662, Control_c, 11, 11, 71
21, 98665, Control_c, 11, 11, 70
21, 98667, Control_c, 11, 11, 69
21, 98670, Note_on_c, 11, 68, 0
21, 98670, Control_c, 11, 11, 126
21, 115200, Control_c, 11, 11, 127
21, 115245, Control_c, 11, 11, 126
21, 115290, Control_c, 11, 11, 125
21, 115336, Control_c, 11, 11, 124
21, 115381, Control_c, 11, 11, 123
21, 115426, Control_c, 11, 11, 122
21, 115472, Control_c, 11, 11, 121
21, 115517, Control_c, 11, 11, 120
21, 115562, Control_c, 11, 11, 119
21, 115608, Control_c, 11, 11, 118
21, 115653, Control_c, 11, 11, 117
21, 115698, Control_c, 11, 11, 116
21, 115744, Control_c, 11, 11, 115
21, 115789, Control_c, 11, 11, 114
21, 115834, Control_c, 11, 11, 113
21, 115880, Control_c, 11, 11, 112
21, 115925, Control_c, 11, 11, 111
21, 115970, Control_c, 11, 11, 110
21, 116016, Control_c, 11, 11, 109
21, 116061, Control_c, 11, 11, 108
21, 116106, Control_c, 11, 11, 107
21, 116152, Control_c, 11, 11, 106
21, 116197, Control_c, 11, 11, 105
21, 116242, Control_c, 11, 11, 104
21, 116288, Control_c, 11, 11, 103
21, 116333, Control_c, 11, 11, 102
21, 116379, Control_c, 11, 11, 101
21, 116424, Control_c, 11, 11, 100
21, 116469, Control_c, 11, 11, 99
21, 116515, Control_c, 11, 11, 98
21, 116560, Control_c, 11, 11, 97
21, 116605, Control_c, 11, 11, 96
21, 116651, Control_c, 11, 11, 95
21, 116696, Control_c, 11, 11, 94
21, 116741, Control_c, 11, 11, 93
21, 116787, Control_c, 11, 11, 92
21, 116832, Control_c, 11, 11, 91
21, 116877, Control_c, 11, 11, 90
21, 116923, Control_c, 11, 11, 89
21, 116968, Control_c, 11, 11, 88
21, 117013, Control_c, 11, 11, 87
21, 117059, Control_c, 11, 11, 86
21, 117104, Control_c, 11, 11, 85
21, 117149, Control_c, 11, 11, 84
21, 117195, Control_c, 11, 11, 83
21, 117240, Control_c, 11, 11, 82
21, 117285, Control_c, 11, 11, 81
21, 117331, Control_c, 11, 11, 80
21, 117376, Control_c, 11, 11, 79
21, 117421, Control_c, 11, 11, 78
21, 117467, Control_c, 11, 11, 77
21, 117512, Control_c, 11, 11, 76
21, 117558, Control_c, 11, 11, 75
21, 117603, Control_c, 11, 11, 74
21, 117648, Control_c, 11, 11, 73
21, 117694, Control_c, 11, 11, 72
21, 117739, Control_c, 11, 11, 71
21, 117784, Control_c, 11, 11, 70
21, 117830, Control_c, 11, 11, 69
21, 117875, Control_c, 11, 11, 68
21, 117920, Control_c, 11, 11, 67
21, 117966, Control_c, 11, 11, 66
21, 118011, Control_c, 11, 11, 65
21, 118056, Control_c, 11, 11, 64
21, 118102, Control_c, 11, 11, 63
21, 118147, Control_c, 11, 11, 62
21, 118192, Control_c, 11, 11, 61
21, 118238, Control_c, 11, 11, 60
21, 118283, Control_c, 11, 11, 59
21, 118328, Control_c, 11, 11, 58
21, 118374, Control_c, 11, 11, 57
21, 118419, Control_c, 11, 11, 56
21, 118464, Control_c, 11, 11, 55
21, 118510, Control_c, 11, 11, 54
21, 118555, Control_c, 11, 11, 53
21, 118600, Control_c, 11, 11, 52
21, 118646, Control_c, 11, 11, 51
21, 118691, Control_c, 11, 11, 50
21, 118737, Control_c, 11, 11, 49
21, 118782, Control_c, 11, 11, 48
21, 118827, Control_c, 11, 11, 47
21, 118873, Control_c, 11, 11, 46
21, 118918, Control_c, 11, 11, 45
21, 118963, Control_c, 11, 11, 44
21, 119009, Control_c, 11, 11, 43
21, 119054, Control_c, 11, 11, 42
21, 119099, Control_c, 11, 11, 41
21, 119145, Control_c, 11, 11, 40
21, 119190, Control_c, 11, 11, 39
21, 119235, Control_c, 11, 11, 38
21, 119281, Control_c, 11, 11, 37
21, 119326, Control_c, 11, 11, 36
21, 119371, Control_c, 11, 11, 35
21, 119417, Control_c, 11, 11, 34
21, 119462, Control_c, 11, 11, 33
21, 119507, Control_c, 11, 11, 32
21, 119553, Control_c, 11, 11, 31
21, 119598, Control_c, 11, 11, 30
21, 119643, Control_c, 11, 11, 29
21, 119689, Control_c, 11, 11, 28
21, 119734, Control_c, 11, 11, 27
21, 119779, Control_c, 11, 11, 26
21, 119825, Control_c, 11, 11, 25
21, 119870, Control_c, 11, 11, 24
21, 119916, Control_c, 11, 11, 23
21, 119961, Control_c, 11, 11, 22
21, 120006, Control_c, 11, 11, 21
21, 120052, Control_c, 11, 11, 20
21, 120097, Control_c, 11, 11, 19
21, 120142, Control_c, 11, 11, 18
21, 120188, Control_c, 11, 11, 17
21, 120233, Control_c, 11, 11, 16
21, 120278, Control_c, 11, 11, 15
21, 120324, Control_c, 11, 11, 14
21, 120369, Control_c, 11, 11, 13
21, 120414, Control_c, 11, 11, 12
21, 120460, Control_c, 11, 11, 11
21, 120505, Control_c, 11, 11, 10
21, 120550, Control_c, 11, 11, 9
21, 120596, Control_c, 11, 11, 8
21, 120641, Control_c, 11, 11, 7
21, 120686, Control_c, 11, 11, 6
21, 120732, Control_c, 11, 11, 5
21, 120777, Control_c, 11, 11, 4
21, 120822, Control_c, 11, 11, 3
21, 120868, Control_c, 11, 11, 2
21, 120913, Control_c, 11, 11, 1
21, 120959, Control_c, 11, 11, 0
21, 121406, Control_c, 11, 121, 0
21, 121406, End_track
22, 0, Start_track
22, 0, MIDI_port, 0
22, 0, Title_t, "Glockenspiel"
22, 330, Control_c, 12, 121, 0
22, 331, Program_c, 12, 9
22, 332, Control_c, 12, 7, 42
22, 333, Control_c, 12, 10, 54
22, 334, Control_c, 12, 91, 127
22, 335, Control_c, 12, 93, 12
22, 336, Control_c, 12, 99, 1
22, 337, Control_c, 12, 98, 32
22, 338, Control_c, 12, 6, 68
22, 339, Control_c, 12, 101, 127
22, 340, Control_c, 12, 100, 127
22, 3780, Note_on_c, 12, 79, 109
22, 3840, Note_on_c, 12, 79, 0
22, 3840, Note_on_c, 12, 77, 109
22, 3900, Note_on_c, 12, 77, 0
22, 3900, Note_on_c, 12, 82, 109
22, 3960, Note_on_c, 12, 82, 0
22, 3960, Note_on_c, 12, 84, 109
22, 4020, Note_on_c, 12, 84, 0
22, 4020, Note_on_c, 12, 88, 109
22, 4080, Note_on_c, 12, 88, 0
22, 4080, Note_on_c, 12, 79, 109
22, 4080, Note_on_c, 12, 84, 109
22, 4200, Note_on_c, 12, 84, 0
22, 4200, Note_on_c, 12, 79, 0
22, 4200, Note_on_c, 12, 77, 109
22, 4200, Note_on_c, 12, 82, 109
22, 4260, Note_on_c, 12, 76, 109
22, 4260, Note_on_c, 12, 81, 109
22, 4320, Note_on_c, 12, 82, 0
22, 4320, Note_on_c, 12, 77, 0
22, 4440, Note_on_c, 12, 76, 0
22, 4440, Note_on_c, 12, 81, 0
22, 6720, Note_on_c, 12, 84, 109
22, 6840, Note_on_c, 12, 84, 0
22, 6840, Note_on_c, 12, 79, 109
22, 6900, Note_on_c, 12, 81, 109
22, 6960, Note_on_c, 12, 79, 0
22, 6960, Note_on_c, 12, 77, 109
22, 7020, Note_on_c, 12, 77, 0
22, 7020, Note_on_c, 12, 81, 0
22, 7020, Note_on_c, 12, 79, 109
22, 7080, Note_on_c, 12, 76, 109
22, 7140, Note_on_c, 12, 79, 0
22, 7140, Note_on_c, 12, 72, 109
22, 7200, Note_on_c, 12, 76, 0
22, 7260, Note_on_c, 12, 72, 0
22, 19680, Note_on_c, 12, 84, 109
22, 19800, Note_on_c, 12, 84, 0
22, 19800, Note_on_c, 12, 79, 109
22, 19860, Note_on_c, 12, 81, 109
22, 19920, Note_on_c, 12, 79, 0
22, 19920, Note_on_c, 12, 77, 109
22, 19980, Note_on_c, 12, 81, 0
22, 19980, Note_on_c, 12, 79, 109
22, 20040, Note_on_c, 12, 77, 0
22, 20040, Note_on_c, 12, 76, 109
22, 20100, Note_on_c, 12, 79, 0
22, 20100, Note_on_c, 12, 72, 109
22, 20160, Note_on_c, 12, 76, 0
22, 20220, Note_on_c, 12, 72, 0
22, 22320, Note_on_c, 12, 70, 109
22, 22380, Note_on_c, 12, 72, 109
22, 22440, Note_on_c, 12, 72, 0
22, 22440, Note_on_c, 12, 70, 0
22, 22440, Note_on_c, 12, 79, 109
22, 22560, Note_on_c, 12, 79, 0
22, 22560, Note_on_c, 12, 77, 109
22, 22620, Note_on_c, 12, 82, 109
22, 22680, Note_on_c, 12, 82, 0
22, 22680, Note_on_c, 12, 77, 0
22, 22680, Note_on_c, 12, 84, 109
22, 22740, Note_on_c, 12, 88, 109
22, 22800, Note_on_c, 12, 88, 0
22, 22800, Note_on_c, 12, 84, 0
22, 22800, Note_on_c, 12, 79, 109
22, 22800, Note_on_c, 12, 84, 109
22, 22920, Note_on_c, 12, 84, 0
22, 22920, Note_on_c, 12, 79, 0
22, 22920, Note_on_c, 12, 77, 109
22, 22920, Note_on_c, 12, 82, 109
22, 22980, Note_on_c, 12, 82, 0
22, 22980, Note_on_c, 12, 77, 0
22, 22980, Note_on_c, 12, 76, 109
22, 22980, Note_on_c, 12, 81, 109
22, 23160, Note_on_c, 12, 81, 0
22, 23160, Note_on_c, 12, 76, 0
22, 37440, Note_on_c, 12, 87, 127
22, 37440, Note_on_c, 12, 75, 127
22, 37560, Note_on_c, 12, 75, 0
22, 37560, Note_on_c, 12, 87, 0
22, 37740, Note_on_c, 12, 82, 127
22, 37740, Note_on_c, 12, 70, 127
22, 37860, Note_on_c, 12, 70, 0
22, 37860, Note_on_c, 12, 82, 0
22, 40320, Note_on_c, 12, 84, 109
22, 40320, Note_on_c, 12, 72, 109
22, 40440, Note_on_c, 12, 72, 0
22, 40440, Note_on_c, 12, 84, 0
22, 40620, Note_on_c, 12, 86, 109
22, 40620, Note_on_c, 12, 74, 109
22, 40740, Note_on_c, 12, 74, 0
22, 40740, Note_on_c, 12, 86, 0
22, 51180, Note_on_c, 12, 84, 119
22, 51240, Note_on_c, 12, 82, 119
22, 51300, Note_on_c, 12, 82, 0
22, 51300, Note_on_c, 12, 84, 0
22, 51300, Note_on_c, 12, 80, 119
22, 51360, Note_on_c, 12, 82, 119
22, 51420, Note_on_c, 12, 80, 0
22, 51420, Note_on_c, 12, 84, 119
22, 51480, Note_on_c, 12, 84, 0
22, 51480, Note_on_c, 12, 82, 0
22, 51480, Note_on_c, 12, 85, 119
22, 51540, Note_on_c, 12, 85, 0
22, 51540, Note_on_c, 12, 86, 119
22, 51600, Note_on_c, 12, 86, 0
22, 51600, Note_on_c, 12, 87, 119
22, 51660, Note_on_c, 12, 87, 0
22, 51660, Note_on_c, 12, 80, 127
22, 51780, Note_on_c, 12, 80, 0
22, 62820, Note_on_c, 12, 77, 99
22, 62880, Note_on_c, 12, 77, 0
22, 62880, Note_on_c, 12, 79, 99
22, 62940, Note_on_c, 12, 79, 0
22, 62940, Note_on_c, 12, 81, 99
22, 63000, Note_on_c, 12, 81, 0
22, 63000, Note_on_c, 12, 77, 99
22, 63060, Note_on_c, 12, 77, 0
22, 63120, Note_on_c, 12, 79, 99
22, 63180, Note_on_c, 12, 79, 0
22, 63240, Note_on_c, 12, 84, 99
22, 63360, Note_on_c, 12, 84, 0
22, 77040, Note_on_c, 12, 70, 109
22, 77100, Note_on_c, 12, 72, 109
22, 77160, Note_on_c, 12, 72, 0
22, 77160, Note_on_c, 12, 70, 0
22, 77160, Note_on_c, 12, 79, 109
22, 77280, Note_on_c, 12, 79, 0
22, 77280, Note_on_c, 12, 77, 109
22, 77340, Note_on_c, 12, 82, 109
22, 77400, Note_on_c, 12, 82, 0
22, 77400, Note_on_c, 12, 77, 0
22, 77400, Note_on_c, 12, 84, 109
22, 77460, Note_on_c, 12, 88, 109
22, 77520, Note_on_c, 12, 88, 0
22, 77520, Note_on_c, 12, 84, 0
22, 77520, Note_on_c, 12, 79, 109
22, 77520, Note_on_c, 12, 84, 109
22, 77640, Note_on_c, 12, 84, 0
22, 77640, Note_on_c, 12, 79, 0
22, 77640, Note_on_c, 12, 77, 109
22, 77640, Note_on_c, 12, 82, 109
22, 77700, Note_on_c, 12, 82, 0
22, 77700, Note_on_c, 12, 77, 0
22, 77700, Note_on_c, 12, 76, 109
22, 77700, Note_on_c, 12, 81, 109
22, 77880, Note_on_c, 12, 81, 0
22, 77880, Note_on_c, 12, 76, 0
22, 115200, Control_c, 12, 11, 127
22, 115245, Control_c, 12, 11, 126
22, 115290, Control_c, 12, 11, 125
22, 115336, Control_c, 12, 11, 124
22, 115381, Control_c, 12, 11, 123
22, 115426, Control_c, 12, 11, 122
22, 115472, Control_c, 12, 11, 121
22, 115517, Control_c, 12, 11, 120
22, 115562, Control_c, 12, 11, 119
22, 115608, Control_c, 12, 11, 118
22, 115653, Control_c, 12, 11, 117
22, 115698, Control_c, 12, 11, 116
22, 115744, Control_c, 12, 11, 115
22, 115789, Control_c, 12, 11, 114
22, 115834, Control_c, 12, 11, 113
22, 115880, Control_c, 12, 11, 112
22, 115925, Control_c, 12, 11, 111
22, 115970, Control_c, 12, 11, 110
22, 116016, Control_c, 12, 11, 109
22, 116061, Control_c, 12, 11, 108
22, 116106, Control_c, 12, 11, 107
22, 116152, Control_c, 12, 11, 106
22, 116197, Control_c, 12, 11, 105
22, 116242, Control_c, 12, 11, 104
22, 116288, Control_c, 12, 11, 103
22, 116333, Control_c, 12, 11, 102
22, 116379, Control_c, 12, 11, 101
22, 116424, Control_c, 12, 11, 100
22, 116469, Control_c, 12, 11, 99
22, 116515, Control_c, 12, 11, 98
22, 116560, Control_c, 12, 11, 97
22, 116605, Control_c, 12, 11, 96
22, 116651, Control_c, 12, 11, 95
22, 116696, Control_c, 12, 11, 94
22, 116741, Control_c, 12, 11, 93
22, 116787, Control_c, 12, 11, 92
22, 116832, Control_c, 12, 11, 91
22, 116877, Control_c, 12, 11, 90
22, 116923, Control_c, 12, 11, 89
22, 116968, Control_c, 12, 11, 88
22, 117013, Control_c, 12, 11, 87
22, 117059, Control_c, 12, 11, 86
22, 117104, Control_c, 12, 11, 85
22, 117149, Control_c, 12, 11, 84
22, 117195, Control_c, 12, 11, 83
22, 117240, Control_c, 12, 11, 82
22, 117285, Control_c, 12, 11, 81
22, 117331, Control_c, 12, 11, 80
22, 117376, Control_c, 12, 11, 79
22, 117421, Control_c, 12, 11, 78
22, 117467, Control_c, 12, 11, 77
22, 117512, Control_c, 12, 11, 76
22, 117558, Control_c, 12, 11, 75
22, 117603, Control_c, 12, 11, 74
22, 117648, Control_c, 12, 11, 73
22, 117694, Control_c, 12, 11, 72
22, 117739, Control_c, 12, 11, 71
22, 117784, Control_c, 12, 11, 70
22, 117830, Control_c, 12, 11, 69
22, 117875, Control_c, 12, 11, 68
22, 117920, Control_c, 12, 11, 67
22, 117966, Control_c, 12, 11, 66
22, 118011, Control_c, 12, 11, 65
22, 118056, Control_c, 12, 11, 64
22, 118102, Control_c, 12, 11, 63
22, 118147, Control_c, 12, 11, 62
22, 118192, Control_c, 12, 11, 61
22, 118238, Control_c, 12, 11, 60
22, 118283, Control_c, 12, 11, 59
22, 118328, Control_c, 12, 11, 58
22, 118374, Control_c, 12, 11, 57
22, 118419, Control_c, 12, 11, 56
22, 118464, Control_c, 12, 11, 55
22, 118510, Control_c, 12, 11, 54
22, 118555, Control_c, 12, 11, 53
22, 118600, Control_c, 12, 11, 52
22, 118646, Control_c, 12, 11, 51
22, 118691, Control_c, 12, 11, 50
22, 118737, Control_c, 12, 11, 49
22, 118782, Control_c, 12, 11, 48
22, 118827, Control_c, 12, 11, 47
22, 118873, Control_c, 12, 11, 46
22, 118918, Control_c, 12, 11, 45
22, 118963, Control_c, 12, 11, 44
22, 119009, Control_c, 12, 11, 43
22, 119054, Control_c, 12, 11, 42
22, 119099, Control_c, 12, 11, 41
22, 119145, Control_c, 12, 11, 40
22, 119190, Control_c, 12, 11, 39
22, 119235, Control_c, 12, 11, 38
22, 119281, Control_c, 12, 11, 37
22, 119326, Control_c, 12, 11, 36
22, 119371, Control_c, 12, 11, 35
22, 119417, Control_c, 12, 11, 34
22, 119462, Control_c, 12, 11, 33
22, 119507, Control_c, 12, 11, 32
22, 119553, Control_c, 12, 11, 31
22, 119598, Control_c, 12, 11, 30
22, 119643, Control_c, 12, 11, 29
22, 119689, Control_c, 12, 11, 28
22, 119734, Control_c, 12, 11, 27
22, 119779, Control_c, 12, 11, 26
22, 119825, Control_c, 12, 11, 25
22, 119870, Control_c, 12, 11, 24
22, 119916, Control_c, 12, 11, 23
22, 119961, Control_c, 12, 11, 22
22, 120006, Control_c, 12, 11, 21
22, 120052, Control_c, 12, 11, 20
22, 120097, Control_c, 12, 11, 19
22, 120142, Control_c, 12, 11, 18
22, 120188, Control_c, 12, 11, 17
22, 120233, Control_c, 12, 11, 16
22, 120278, Control_c, 12, 11, 15
22, 120324, Control_c, 12, 11, 14
22, 120369, Control_c, 12, 11, 13
22, 120414, Control_c, 12, 11, 12
22, 120460, Control_c, 12, 11, 11
22, 120505, Control_c, 12, 11, 10
22, 120550, Control_c, 12, 11, 9
22, 120596, Control_c, 12, 11, 8
22, 120641, Control_c, 12, 11, 7
22, 120686, Control_c, 12, 11, 6
22, 120732, Control_c, 12, 11, 5
22, 120777, Control_c, 12, 11, 4
22, 120822, Control_c, 12, 11, 3
22, 120868, Control_c, 12, 11, 2
22, 120913, Control_c, 12, 11, 1
22, 120959, Control_c, 12, 11, 0
22, 121407, Control_c, 12, 121, 0
22, 121407, End_track
23, 0, Start_track
23, 0, MIDI_port, 0
23, 0, Title_t, "Piano Solo"
23, 530, Control_c, 13, 121, 0
23, 531, Control_c, 13, 0, 0
23, 531, Control_c, 13, 32, 0
23, 531, Program_c, 13, 0
23, 532, Control_c, 13, 7, 110
23, 533, Control_c, 13, 10, 44
23, 534, Control_c, 13, 91, 64
23, 535, Control_c, 13, 93, 12
23, 535, Control_c, 13, 99, 1
23, 538, Control_c, 13, 98, 32
23, 539, Control_c, 13, 6, 60
23, 540, Control_c, 13, 99, 1
23, 541, Control_c, 13, 98, 33
23, 542, Control_c, 13, 6, 60
23, 543, Control_c, 13, 101, 127
23, 544, Control_c, 13, 100, 127
23, 60360, Note_on_c, 13, 72, 92
23, 60420, Note_on_c, 13, 72, 0
23, 60420, Note_on_c, 13, 74, 92
23, 60480, Note_on_c, 13, 74, 0
23, 60480, Note_on_c, 13, 77, 92
23, 60540, Note_on_c, 13, 77, 0
23, 60540, Note_on_c, 13, 77, 92
23, 60600, Note_on_c, 13, 77, 0
23, 60600, Note_on_c, 13, 74, 92
23, 60660, Note_on_c, 13, 74, 0
23, 60660, Note_on_c, 13, 77, 92
23, 60720, Note_on_c, 13, 77, 0
23, 60720, Note_on_c, 13, 77, 92
23, 60780, Note_on_c, 13, 77, 0
23, 60780, Note_on_c, 13, 74, 92
23, 60840, Note_on_c, 13, 74, 0
23, 60840, Note_on_c, 13, 77, 92
23, 60960, Note_on_c, 13, 77, 0
23, 60960, Note_on_c, 13, 77, 92
23, 61020, Note_on_c, 13, 77, 0
23, 61800, Note_on_c, 13, 72, 97
23, 61860, Note_on_c, 13, 72, 0
23, 61860, Note_on_c, 13, 74, 97
23, 61920, Note_on_c, 13, 74, 0
23, 61920, Note_on_c, 13, 77, 92
23, 61980, Note_on_c, 13, 77, 0
23, 61980, Note_on_c, 13, 77, 92
23, 62040, Note_on_c, 13, 77, 0
23, 62040, Note_on_c, 13, 74, 92
23, 62100, Note_on_c, 13, 74, 0
23, 62100, Note_on_c, 13, 77, 92
23, 62160, Note_on_c, 13, 77, 0
23, 62160, Note_on_c, 13, 77, 92
23, 62220, Note_on_c, 13, 77, 0
23, 62220, Note_on_c, 13, 74, 92
23, 62272, Note_on_c, 13, 80, 92
23, 62280, Note_on_c, 13, 80, 0
23, 62280, Note_on_c, 13, 74, 0
23, 62280, Note_on_c, 13, 81, 92
23, 62280, Note_on_c, 13, 84, 92
23, 62400, Note_on_c, 13, 84, 0
23, 62400, Note_on_c, 13, 81, 0
23, 62400, Note_on_c, 13, 77, 92
23, 62460, Note_on_c, 13, 77, 0
23, 62460, Note_on_c, 13, 74, 92
23, 62580, Note_on_c, 13, 74, 0
23, 62580, Note_on_c, 13, 77, 92
23, 62640, Note_on_c, 13, 77, 0
23, 63480, Note_on_c, 13, 67, 92
23, 63480, Note_on_c, 13, 72, 92
23, 63540, Note_on_c, 13, 72, 0
23, 63540, Note_on_c, 13, 67, 0
23, 63540, Note_on_c, 13, 72, 92
23, 63540, Note_on_c, 13, 77, 92
23, 63540, Note_on_c, 13, 81, 92
23, 63600, Note_on_c, 13, 81, 0
23, 63600, Note_on_c, 13, 77, 0
23, 63600, Note_on_c, 13, 72, 0
23, 63600, Note_on_c, 13, 79, 92
23, 63600, Note_on_c, 13, 69, 92
23, 63600, Note_on_c, 13, 74, 92
23, 63660, Note_on_c, 13, 74, 0
23, 63660, Note_on_c, 13, 69, 0
23, 63660, Note_on_c, 13, 79, 0
23, 63660, Note_on_c, 13, 69, 92
23, 63660, Note_on_c, 13, 72, 92
23, 63660, Note_on_c, 13, 77, 92
23, 63720, Note_on_c, 13, 77, 0
23, 63720, Note_on_c, 13, 72, 0
23, 63720, Note_on_c, 13, 69, 0
23, 63720, Note_on_c, 13, 79, 92
23, 63720, Note_on_c, 13, 69, 92
23, 63720, Note_on_c, 13, 74, 92
23, 63840, Note_on_c, 13, 74, 0
23, 63840, Note_on_c, 13, 69, 0
23, 63840, Note_on_c, 13, 79, 0
23, 63840, Note_on_c, 13, 77, 92
23, 63840, Note_on_c, 13, 72, 92
23, 63900, Note_on_c, 13, 72, 0
23, 63900, Note_on_c, 13, 77, 0
23, 63960, Note_on_c, 13, 72, 82
23, 63960, Note_on_c, 13, 77, 82
23, 64020, Note_on_c, 13, 77, 0
23, 64020, Note_on_c, 13, 72, 0
23, 64020, Note_on_c, 13, 72, 97
23, 64080, Note_on_c, 13, 72, 0
23, 64200, Note_on_c, 13, 74, 92
23, 64200, Note_on_c, 13, 69, 92
23, 64260, Note_on_c, 13, 69, 0
23, 64260, Note_on_c, 13, 74, 0
23, 64260, Note_on_c, 13, 72, 92
23, 64260, Note_on_c, 13, 77, 92
23, 64260, Note_on_c, 13, 81, 92
23, 64320, Note_on_c, 13, 81, 0
23, 64320, Note_on_c, 13, 77, 0
23, 64320, Note_on_c, 13, 72, 0
23, 64320, Note_on_c, 13, 74, 92
23, 64320, Note_on_c, 13, 79, 92
23, 64380, Note_on_c, 13, 79, 0
23, 64380, Note_on_c, 13, 74, 0
23, 64380, Note_on_c, 13, 72, 92
23, 64380, Note_on_c, 13, 77, 92
23, 64440, Note_on_c, 13, 77, 0
23, 64440, Note_on_c, 13, 72, 0
23, 64440, Note_on_c, 13, 74, 92
23, 64440, Note_on_c, 13, 79, 92
23, 64560, Note_on_c, 13, 79, 0
23, 64560, Note_on_c, 13, 74, 0
23, 64560, Note_on_c, 13, 84, 72
23, 64560, Note_on_c, 13, 77, 92
23, 64560, Note_on_c, 13, 81, 92
23, 64620, Note_on_c, 13, 81, 0
23, 64620, Note_on_c, 13, 77, 0
23, 64620, Note_on_c, 13, 84, 0
23, 64860, Note_on_c, 13, 84, 92
23, 64860, Note_on_c, 13, 91, 92
23, 64860, Note_on_c, 13, 96, 92
23, 64920, Note_on_c, 13, 96, 0
23, 64920, Note_on_c, 13, 91, 0
23, 64920, Note_on_c, 13, 84, 0
23, 64920, Note_on_c, 13, 79, 92
23, 64980, Note_on_c, 13, 79, 0
23, 64980, Note_on_c, 13, 84, 92
23, 64980, Note_on_c, 13, 91, 92
23, 64980, Note_on_c, 13, 96, 92
23, 65040, Note_on_c, 13, 96, 0
23, 65040, Note_on_c, 13, 91, 0
23, 65040, Note_on_c, 13, 84, 0
23, 65040, Note_on_c, 13, 84, 92
23, 65040, Note_on_c, 13, 91, 92
23, 65040, Note_on_c, 13, 96, 92
23, 65100, Note_on_c, 13, 96, 0
23, 65100, Note_on_c, 13, 91, 0
23, 65100, Note_on_c, 13, 84, 0
23, 65100, Note_on_c, 13, 79, 92
23, 65160, Note_on_c, 13, 79, 0
23, 65160, Note_on_c, 13, 84, 92
23, 65160, Note_on_c, 13, 91, 92
23, 65160, Note_on_c, 13, 96, 92
23, 65205, Note_on_c, 13, 96, 0
23, 65205, Note_on_c, 13, 91, 0
23, 65205, Note_on_c, 13, 84, 0
23, 65280, Note_on_c, 13, 86, 92
23, 65330, Note_on_c, 13, 80, 92
23, 65330, Note_on_c, 13, 92, 92
23, 65340, Note_on_c, 13, 92, 0
23, 65340, Note_on_c, 13, 80, 0
23, 65340, Note_on_c, 13, 86, 0
23, 65340, Note_on_c, 13, 81, 92
23, 65340, Note_on_c, 13, 93, 92
23, 65460, Note_on_c, 13, 93, 0
23, 65460, Note_on_c, 13, 81, 0
23, 65460, Note_on_c, 13, 81, 92
23, 65460, Note_on_c, 13, 93, 92
23, 65520, Note_on_c, 13, 93, 0
23, 65520, Note_on_c, 13, 81, 0
23, 65520, Note_on_c, 13, 91, 92
23, 65580, Note_on_c, 13, 91, 0
23, 65640, Note_on_c, 13, 89, 92
23, 65700, Note_on_c, 13, 89, 0
23, 65700, Note_on_c, 13, 86, 92
23, 65745, Note_on_c, 13, 86, 0
23, 65745, Note_on_c, 13, 84, 92
23, 65790, Note_on_c, 13, 84, 0
23, 65790, Note_on_c, 13, 86, 92
23, 65835, Note_on_c, 13, 86, 0
23, 65835, Note_on_c, 13, 88, 92
23, 65880, Note_on_c, 13, 88, 0
23, 65880, Note_on_c, 13, 89, 92
23, 65925, Note_on_c, 13, 89, 0
23, 65925, Note_on_c, 13, 88, 92
23, 65970, Note_on_c, 13, 88, 0
23, 65970, Note_on_c, 13, 86, 92
23, 66015, Note_on_c, 13, 86, 0
23, 66015, Note_on_c, 13, 84, 92
23, 66060, Note_on_c, 13, 84, 0
23, 66060, Note_on_c, 13, 82, 92
23, 66105, Note_on_c, 13, 82, 0
23, 66105, Note_on_c, 13, 81, 92
23, 66150, Note_on_c, 13, 81, 0
23, 66150, Note_on_c, 13, 79, 92
23, 66195, Note_on_c, 13, 79, 0
23, 66195, Note_on_c, 13, 77, 92
23, 66240, Note_on_c, 13, 77, 0
23, 66240, Note_on_c, 13, 76, 92
23, 66285, Note_on_c, 13, 76, 0
23, 66285, Note_on_c, 13, 77, 92
23, 66330, Note_on_c, 13, 77, 0
23, 66330, Note_on_c, 13, 79, 92
23, 66375, Note_on_c, 13, 79, 0
23, 66375, Note_on_c, 13, 76, 92
23, 66420, Note_on_c, 13, 76, 0
23, 66420, Note_on_c, 13, 72, 92
23, 66460, Note_on_c, 13, 72, 0
23, 66720, Note_on_c, 13, 84, 92
23, 66720, Note_on_c, 13, 79, 92
23, 66760, Note_on_c, 13, 79, 0
23, 66760, Note_on_c, 13, 84, 0
23, 66780, Note_on_c, 13, 81, 92
23, 66780, Note_on_c, 13, 76, 92
23, 66820, Note_on_c, 13, 76, 0
23, 66820, Note_on_c, 13, 81, 0
23, 66840, Note_on_c, 13, 84, 92
23, 66840, Note_on_c, 13, 79, 92
23, 66880, Note_on_c, 13, 79, 0
23, 66880, Note_on_c, 13, 84, 0
23, 66900, Note_on_c, 13, 81, 92
23, 66900, Note_on_c, 13, 76, 92
23, 66940, Note_on_c, 13, 76, 0
23, 66940, Note_on_c, 13, 81, 0
23, 66960, Note_on_c, 13, 69, 92
23, 66960, Note_on_c, 13, 74, 92
23, 66960, Note_on_c, 13, 79, 92
23, 67020, Note_on_c, 13, 79, 0
23, 67020, Note_on_c, 13, 74, 0
23, 67020, Note_on_c, 13, 69, 0
23, 67020, Note_on_c, 13, 69, 92
23, 67080, Note_on_c, 13, 69, 0
23, 67080, Note_on_c, 13, 69, 92
23, 67080, Note_on_c, 13, 74, 92
23, 67080, Note_on_c, 13, 77, 92
23, 67200, Note_on_c, 13, 77, 0
23, 67200, Note_on_c, 13, 74, 0
23, 67200, Note_on_c, 13, 69, 0
23, 67200, Note_on_c, 13, 67, 92
23, 67200, Note_on_c, 13, 72, 92
23, 67200, Note_on_c, 13, 76, 92
23, 67320, Note_on_c, 13, 76, 0
23, 67320, Note_on_c, 13, 72, 0
23, 67320, Note_on_c, 13, 67, 0
23, 67320, Note_on_c, 13, 65, 92
23, 67320, Note_on_c, 13, 69, 92
23, 67320, Note_on_c, 13, 74, 92
23, 67560, Note_on_c, 13, 74, 0
23, 67560, Note_on_c, 13, 69, 0
23, 67560, Note_on_c, 13, 65, 0
23, 67560, Note_on_c, 13, 65, 92
23, 67620, Note_on_c, 13, 65, 0
23, 67620, Note_on_c, 13, 69, 92
23, 67680, Note_on_c, 13, 69, 0
23, 67680, Note_on_c, 13, 70, 92
23, 67740, Note_on_c, 13, 70, 0
23, 67740, Note_on_c, 13, 65, 92
23, 67800, Note_on_c, 13, 65, 0
23, 67800, Note_on_c, 13, 72, 92
23, 67860, Note_on_c, 13, 72, 0
23, 67860, Note_on_c, 13, 65, 92
23, 67920, Note_on_c, 13, 65, 0
23, 67920, Note_on_c, 13, 77, 92
23, 67980, Note_on_c, 13, 77, 0
23, 67980, Note_on_c, 13, 72, 92
23, 68040, Note_on_c, 13, 72, 0
23, 68040, Note_on_c, 13, 76, 92
23, 68100, Note_on_c, 13, 76, 0
23, 68100, Note_on_c, 13, 72, 92
23, 68160, Note_on_c, 13, 72, 0
23, 68160, Note_on_c, 13, 77, 92
23, 68220, Note_on_c, 13, 77, 0
23, 68220, Note_on_c, 13, 72, 92
23, 68280, Note_on_c, 13, 72, 0
23, 68280, Note_on_c, 13, 84, 103
23, 68340, Note_on_c, 13, 84, 0
23, 68340, Note_on_c, 13, 72, 92
23, 68400, Note_on_c, 13, 72, 0
23, 68400, Note_on_c, 13, 80, 92
23, 68460, Note_on_c, 13, 80, 0
23, 68460, Note_on_c, 13, 82, 92
23, 68520, Note_on_c, 13, 82, 0
23, 68520, Note_on_c, 13, 77, 92
23, 68580, Note_on_c, 13, 77, 0
23, 68580, Note_on_c, 13, 75, 92
23, 68580, Note_on_c, 13, 87, 92
23, 68700, Note_on_c, 13, 87, 0
23, 68700, Note_on_c, 13, 75, 0
23, 68700, Note_on_c, 13, 77, 92
23, 68700, Note_on_c, 13, 89, 92
23, 68790, Note_on_c, 13, 77, 92
23, 68820, Note_on_c, 13, 77, 0
23, 68820, Note_on_c, 13, 81, 92
23, 68850, Note_on_c, 13, 81, 0
23, 68850, Note_on_c, 13, 82, 92
23, 68880, Note_on_c, 13, 82, 0
23, 68910, Note_on_c, 13, 84, 92
23, 68935, Note_on_c, 13, 84, 0
23, 68935, Note_on_c, 13, 88, 92
23, 68940, Note_on_c, 13, 89, 0
23, 68940, Note_on_c, 13, 77, 0
23, 68960, Note_on_c, 13, 88, 0
23, 68960, Note_on_c, 13, 89, 92
23, 68985, Note_on_c, 13, 89, 0
23, 68985, Note_on_c, 13, 90, 92
23, 69010, Note_on_c, 13, 90, 0
23, 69010, Note_on_c, 13, 89, 92
23, 69035, Note_on_c, 13, 89, 0
23, 69035, Note_on_c, 13, 88, 92
23, 69060, Note_on_c, 13, 88, 0
23, 69060, Note_on_c, 13, 84, 92
23, 69085, Note_on_c, 13, 84, 0
23, 69120, Note_on_c, 13, 87, 109
23, 69150, Note_on_c, 13, 87, 0
23, 69150, Note_on_c, 13, 89, 109
23, 69180, Note_on_c, 13, 89, 0
23, 69240, Note_on_c, 13, 87, 109
23, 69270, Note_on_c, 13, 87, 0
23, 69270, Note_on_c, 13, 84, 109
23, 69300, Note_on_c, 13, 84, 0
23, 69300, Note_on_c, 13, 85, 109
23, 69480, Note_on_c, 13, 85, 0
23, 69660, Note_on_c, 13, 84, 109
23, 69780, Note_on_c, 13, 84, 0
23, 69780, Note_on_c, 13, 77, 109
23, 69840, Note_on_c, 13, 77, 0
23, 69840, Note_on_c, 13, 82, 109
23, 69900, Note_on_c, 13, 82, 0
23, 69900, Note_on_c, 13, 90, 109
23, 69900, Note_on_c, 13, 78, 109
23, 69960, Note_on_c, 13, 78, 0
23, 69960, Note_on_c, 13, 90, 0
23, 69960, Note_on_c, 13, 77, 109
23, 69960, Note_on_c, 13, 89, 109
23, 70020, Note_on_c, 13, 89, 0
23, 70020, Note_on_c, 13, 77, 0
23, 70020, Control_c, 13, 11, 90
23, 70020, Note_on_c, 13, 87, 109
23, 70029, Control_c, 13, 11, 91
23, 70039, Control_c, 13, 11, 92
23, 70049, Control_c, 13, 11, 93
23, 70058, Control_c, 13, 11, 94
23, 70068, Control_c, 13, 11, 95
23, 70078, Control_c, 13, 11, 96
23, 70088, Control_c, 13, 11, 97
23, 70097, Control_c, 13, 11, 98
23, 70107, Control_c, 13, 11, 99
23, 70117, Control_c, 13, 11, 100
23, 70127, Control_c, 13, 11, 101
23, 70136, Control_c, 13, 11, 102
23, 70140, Note_on_c, 13, 87, 0
23, 70140, Note_on_c, 13, 84, 109
23, 70146, Control_c, 13, 11, 103
23, 70156, Control_c, 13, 11, 104
23, 70165, Control_c, 13, 11, 105
23, 70175, Control_c, 13, 11, 106
23, 70185, Control_c, 13, 11, 107
23, 70195, Control_c, 13, 11, 108
23, 70200, Note_on_c, 13, 84, 0
23, 70200, Note_on_c, 13, 87, 109
23, 70204, Control_c, 13, 11, 109
23, 70214, Control_c, 13, 11, 110
23, 70224, Control_c, 13, 11, 111
23, 70234, Control_c, 13, 11, 112
23, 70243, Control_c, 13, 11, 113
23, 70253, Control_c, 13, 11, 114
23, 70263, Control_c, 13, 11, 115
23, 70272, Control_c, 13, 11, 116
23, 70282, Control_c, 13, 11, 117
23, 70292, Control_c, 13, 11, 118
23, 70302, Control_c, 13, 11, 119
23, 70311, Control_c, 13, 11, 120
23, 70320, Note_on_c, 13, 87, 0
23, 70320, Note_on_c, 13, 89, 109
23, 70321, Control_c, 13, 11, 121
23, 70331, Control_c, 13, 11, 122
23, 70341, Control_c, 13, 11, 123
23, 70350, Control_c, 13, 11, 124
23, 70360, Control_c, 13, 11, 125
23, 70370, Control_c, 13, 11, 126
23, 70380, Note_on_c, 13, 89, 0
23, 70380, Control_c, 13, 11, 127
23, 70380, Note_on_c, 13, 84, 109
23, 70440, Note_on_c, 13, 84, 0
23, 70440, Note_on_c, 13, 82, 109
23, 70500, Note_on_c, 13, 82, 0
23, 70560, Note_on_c, 13, 89, 109
23, 70620, Note_on_c, 13, 89, 0
23, 70680, Note_on_c, 13, 87, 109
23, 70740, Note_on_c, 13, 87, 0
23, 70830, Note_on_c, 13, 83, 109
23, 70860, Note_on_c, 13, 83, 0
23, 70860, Note_on_c, 13, 82, 109
23, 70890, Note_on_c, 13, 82, 0
23, 70890, Note_on_c, 13, 80, 109
23, 70920, Note_on_c, 13, 80, 0
23, 70920, Note_on_c, 13, 82, 109
23, 70980, Note_on_c, 13, 82, 0
23, 70980, Note_on_c, 13, 80, 109
23, 71040, Note_on_c, 13, 80, 0
23, 71040, Note_on_c, 13, 77, 109
23, 71100, Note_on_c, 13, 77, 0
23, 71100, Note_on_c, 13, 75, 109
23, 71160, Note_on_c, 13, 75, 0
23, 71160, Note_on_c, 13, 72, 109
23, 71220, Note_on_c, 13, 72, 0
23, 71220, Note_on_c, 13, 70, 109
23, 71280, Note_on_c, 13, 70, 0
23, 71280, Note_on_c, 13, 72, 109
23, 71400, Note_on_c, 13, 72, 0
23, 71400, Note_on_c, 13, 80, 109
23, 71400, Note_on_c, 13, 75, 109
23, 71460, Note_on_c, 13, 75, 0
23, 71460, Note_on_c, 13, 80, 0
23, 71460, Note_on_c, 13, 72, 109
23, 71520, Note_on_c, 13, 72, 0
23, 71520, Note_on_c, 13, 72, 109
23, 71580, Note_on_c, 13, 72, 0
23, 71580, Note_on_c, 13, 75, 109
23, 71640, Note_on_c, 13, 75, 0
23, 71640, Note_on_c, 13, 72, 109
23, 71700, Note_on_c, 13, 72, 0
23, 71700, Note_on_c, 13, 72, 109
23, 71760, Note_on_c, 13, 72, 0
23, 71760, Note_on_c, 13, 65, 109
23, 71820, Note_on_c, 13, 65, 0
23, 71820, Note_on_c, 13, 68, 109
23, 71940, Note_on_c, 13, 68, 0
23, 71940, Note_on_c, 13, 70, 109
23, 72000, Note_on_c, 13, 70, 0
23, 72000, Note_on_c, 13, 82, 109
23, 72000, Note_on_c, 13, 77, 109
23, 72060, Note_on_c, 13, 77, 0
23, 72060, Note_on_c, 13, 82, 0
23, 72060, Note_on_c, 13, 79, 109
23, 72060, Note_on_c, 13, 84, 109
23, 72120, Note_on_c, 13, 84, 0
23, 72120, Note_on_c, 13, 79, 0
23, 72120, Note_on_c, 13, 82, 109
23, 72120, Note_on_c, 13, 77, 109
23, 72180, Note_on_c, 13, 77, 0
23, 72180, Note_on_c, 13, 82, 0
23, 72180, Note_on_c, 13, 75, 109
23, 72180, Note_on_c, 13, 80, 109
23, 72240, Note_on_c, 13, 80, 0
23, 72240, Note_on_c, 13, 75, 0
23, 72240, Note_on_c, 13, 72, 109
23, 72240, Note_on_c, 13, 77, 109
23, 72300, Note_on_c, 13, 77, 0
23, 72300, Note_on_c, 13, 72, 0
23, 72300, Note_on_c, 13, 70, 109
23, 72300, Note_on_c, 13, 75, 109
23, 72360, Note_on_c, 13, 75, 0
23, 72360, Note_on_c, 13, 70, 0
23, 72360, Note_on_c, 13, 72, 109
23, 72420, Note_on_c, 13, 72, 0
23, 72420, Note_on_c, 13, 75, 109
23, 72480, Note_on_c, 13, 75, 0
23, 72480, Note_on_c, 13, 72, 109
23, 72540, Note_on_c, 13, 72, 0
23, 72540, Note_on_c, 13, 70, 109
23, 72660, Note_on_c, 13, 70, 0
23, 72660, Note_on_c, 13, 63, 109
23, 72660, Note_on_c, 13, 67, 109
23, 72660, Note_on_c, 13, 72, 109
23, 72720, Note_on_c, 13, 72, 0
23, 72720, Note_on_c, 13, 67, 0
23, 72720, Note_on_c, 13, 63, 0
23, 72780, Note_on_c, 13, 63, 109
23, 72780, Note_on_c, 13, 67, 109
23, 72780, Note_on_c, 13, 72, 109
23, 72840, Note_on_c, 13, 72, 0
23, 72840, Note_on_c, 13, 67, 0
23, 72840, Note_on_c, 13, 63, 0
23, 72900, Note_on_c, 13, 68, 109
23, 72900, Note_on_c, 13, 72, 109
23, 72900, Note_on_c, 13, 77, 109
23, 73440, Note_on_c, 13, 77, 0
23, 73440, Note_on_c, 13, 72, 0
23, 73440, Note_on_c, 13, 68, 0
23, 73440, Note_on_c, 13, 77, 109
23, 73560, Note_on_c, 13, 77, 0
23, 73560, Note_on_c, 13, 80, 109
23, 73620, Note_on_c, 13, 80, 0
23, 73620, Note_on_c, 13, 82, 109
23, 73740, Note_on_c, 13, 82, 0
23, 73740, Note_on_c, 13, 77, 109
23, 73800, Note_on_c, 13, 77, 0
23, 73800, Note_on_c, 13, 80, 109
23, 73980, Note_on_c, 13, 80, 0
23, 74160, Note_on_c, 13, 65, 109
23, 74220, Note_on_c, 13, 65, 0
23, 74220, Note_on_c, 13, 68, 109
23, 74280, Note_on_c, 13, 68, 0
23, 74280, Note_on_c, 13, 65, 109
23, 74340, Note_on_c, 13, 65, 0
23, 74340, Note_on_c, 13, 70, 109
23, 74400, Note_on_c, 13, 70, 0
23, 74400, Note_on_c, 13, 65, 109
23, 74460, Note_on_c, 13, 65, 0
23, 74460, Note_on_c, 13, 72, 109
23, 74520, Note_on_c, 13, 72, 0
23, 74520, Note_on_c, 13, 65, 109
23, 74520, Note_on_c, 13, 67, 109
23, 74520, Note_on_c, 13, 72, 109
23, 74640, Note_on_c, 13, 72, 0
23, 74640, Note_on_c, 13, 67, 0
23, 74640, Note_on_c, 13, 65, 0
23, 74640, Note_on_c, 13, 65, 109
23, 74640, Note_on_c, 13, 67, 109
23, 74640, Note_on_c, 13, 72, 109
23, 74700, Note_on_c, 13, 72, 0
23, 74700, Note_on_c, 13, 67, 0
23, 74700, Note_on_c, 13, 65, 0
23, 74760, Note_on_c, 13, 63, 109
23, 74820, Note_on_c, 13, 63, 0
23, 74820, Note_on_c, 13, 61, 109
23, 74880, Note_on_c, 13, 61, 0
23, 115200, Control_c, 13, 11, 127
23, 115245, Control_c, 13, 11, 126
23, 115290, Control_c, 13, 11, 125
23, 115336, Control_c, 13, 11, 124
23, 115381, Control_c, 13, 11, 123
23, 115426, Control_c, 13, 11, 122
23, 115472, Control_c, 13, 11, 121
23, 115517, Control_c, 13, 11, 120
23, 115562, Control_c, 13, 11, 119
23, 115608, Control_c, 13, 11, 118
23, 115653, Control_c, 13, 11, 117
23, 115698, Control_c, 13, 11, 116
23, 115744, Control_c, 13, 11, 115
23, 115789, Control_c, 13, 11, 114
23, 115834, Control_c, 13, 11, 113
23, 115880, Control_c, 13, 11, 112
23, 115925, Control_c, 13, 11, 111
23, 115970, Control_c, 13, 11, 110
23, 116016, Control_c, 13, 11, 109
23, 116061, Control_c, 13, 11, 108
23, 116106, Control_c, 13, 11, 107
23, 116152, Control_c, 13, 11, 106
23, 116197, Control_c, 13, 11, 105
23, 116242, Control_c, 13, 11, 104
23, 116288, Control_c, 13, 11, 103
23, 116333, Control_c, 13, 11, 102
23, 116379, Control_c, 13, 11, 101
23, 116424, Control_c, 13, 11, 100
23, 116469, Control_c, 13, 11, 99
23, 116515, Control_c, 13, 11, 98
23, 116560, Control_c, 13, 11, 97
23, 116605, Control_c, 13, 11, 96
23, 116651, Control_c, 13, 11, 95
23, 116696, Control_c, 13, 11, 94
23, 116741, Control_c, 13, 11, 93
23, 116787, Control_c, 13, 11, 92
23, 116832, Control_c, 13, 11, 91
23, 116877, Control_c, 13, 11, 90
23, 116923, Control_c, 13, 11, 89
23, 116968, Control_c, 13, 11, 88
23, 117013, Control_c, 13, 11, 87
23, 117059, Control_c, 13, 11, 86
23, 117104, Control_c, 13, 11, 85
23, 117149, Control_c, 13, 11, 84
23, 117195, Control_c, 13, 11, 83
23, 117240, Control_c, 13, 11, 82
23, 117285, Control_c, 13, 11, 81
23, 117331, Control_c, 13, 11, 80
23, 117376, Control_c, 13, 11, 79
23, 117421, Control_c, 13, 11, 78
23, 117467, Control_c, 13, 11, 77
23, 117512, Control_c, 13, 11, 76
23, 117558, Control_c, 13, 11, 75
23, 117603, Control_c, 13, 11, 74
23, 117648, Control_c, 13, 11, 73
23, 117694, Control_c, 13, 11, 72
23, 117739, Control_c, 13, 11, 71
23, 117784, Control_c, 13, 11, 70
23, 117830, Control_c, 13, 11, 69
23, 117875, Control_c, 13, 11, 68
23, 117920, Control_c, 13, 11, 67
23, 117966, Control_c, 13, 11, 66
23, 118011, Control_c, 13, 11, 65
23, 118056, Control_c, 13, 11, 64
23, 118102, Control_c, 13, 11, 63
23, 118147, Control_c, 13, 11, 62
23, 118192, Control_c, 13, 11, 61
23, 118238, Control_c, 13, 11, 60
23, 118283, Control_c, 13, 11, 59
23, 118328, Control_c, 13, 11, 58
23, 118374, Control_c, 13, 11, 57
23, 118419, Control_c, 13, 11, 56
23, 118464, Control_c, 13, 11, 55
23, 118510, Control_c, 13, 11, 54
23, 118555, Control_c, 13, 11, 53
23, 118600, Control_c, 13, 11, 52
23, 118646, Control_c, 13, 11, 51
23, 118691, Control_c, 13, 11, 50
23, 118737, Control_c, 13, 11, 49
23, 118782, Control_c, 13, 11, 48
23, 118827, Control_c, 13, 11, 47
23, 118873, Control_c, 13, 11, 46
23, 118918, Control_c, 13, 11, 45
23, 118963, Control_c, 13, 11, 44
23, 119009, Control_c, 13, 11, 43
23, 119054, Control_c, 13, 11, 42
23, 119099, Control_c, 13, 11, 41
23, 119145, Control_c, 13, 11, 40
23, 119190, Control_c, 13, 11, 39
23, 119235, Control_c, 13, 11, 38
23, 119281, Control_c, 13, 11, 37
23, 119326, Control_c, 13, 11, 36
23, 119371, Control_c, 13, 11, 35
23, 119417, Control_c, 13, 11, 34
23, 119462, Control_c, 13, 11, 33
23, 119507, Control_c, 13, 11, 32
23, 119553, Control_c, 13, 11, 31
23, 119598, Control_c, 13, 11, 30
23, 119643, Control_c, 13, 11, 29
23, 119689, Control_c, 13, 11, 28
23, 119734, Control_c, 13, 11, 27
23, 119779, Control_c, 13, 11, 26
23, 119825, Control_c, 13, 11, 25
23, 119870, Control_c, 13, 11, 24
23, 119916, Control_c, 13, 11, 23
23, 119961, Control_c, 13, 11, 22
23, 120006, Control_c, 13, 11, 21
23, 120052, Control_c, 13, 11, 20
23, 120097, Control_c, 13, 11, 19
23, 120142, Control_c, 13, 11, 18
23, 120188, Control_c, 13, 11, 17
23, 120233, Control_c, 13, 11, 16
23, 120278, Control_c, 13, 11, 15
23, 120324, Control_c, 13, 11, 14
23, 120369, Control_c, 13, 11, 13
23, 120414, Control_c, 13, 11, 12
23, 120460, Control_c, 13, 11, 11
23, 120505, Control_c, 13, 11, 10
23, 120550, Control_c, 13, 11, 9
23, 120596, Control_c, 13, 11, 8
23, 120641, Control_c, 13, 11, 7
23, 120686, Control_c, 13, 11, 6
23, 120732, Control_c, 13, 11, 5
23, 120777, Control_c, 13, 11, 4
23, 120822, Control_c, 13, 11, 3
23, 120868, Control_c, 13, 11, 2
23, 120913, Control_c, 13, 11, 1
23, 120959, Control_c, 13, 11, 0
23, 121408, Control_c, 13, 121, 0
23, 121408, End_track
24, 0, Start_track
24, 0, MIDI_port, 0
24, 0, Title_t, "Jazz Guitar"
24, 330, Control_c, 14, 121, 0
24, 331, Program_c, 14, 26
24, 332, Control_c, 14, 7, 72
24, 333, Control_c, 14, 10, 88
24, 334, Control_c, 14, 91, 54
24, 335, Control_c, 14, 93, 80
24, 336, Control_c, 14, 99, 1
24, 337, Control_c, 14, 98, 32
24, 338, Control_c, 14, 6, 68
24, 338, Control_c, 14, 99, 1
24, 338, Control_c, 14, 98, 33
24, 338, Control_c, 14, 6, 56
24, 339, Control_c, 14, 101, 0
24, 340, Control_c, 14, 100, 0
24, 341, Control_c, 14, 6, 4
24, 342, Control_c, 14, 101, 127
24, 343, Control_c, 14, 100, 127
24, 37440, Note_on_c, 14, 56, 92
24, 37440, Note_on_c, 14, 61, 92
24, 37440, Note_on_c, 14, 65, 92
24, 37740, Note_on_c, 14, 65, 0
24, 37740, Note_on_c, 14, 61, 0
24, 37740, Note_on_c, 14, 56, 0
24, 37740, Note_on_c, 14, 56, 92
24, 37740, Note_on_c, 14, 60, 92
24, 37740, Note_on_c, 14, 63, 92
24, 38520, Note_on_c, 14, 63, 0
24, 38520, Note_on_c, 14, 60, 0
24, 38520, Note_on_c, 14, 56, 0
24, 38880, Note_on_c, 14, 60, 92
24, 38880, Note_on_c, 14, 63, 92
24, 38880, Note_on_c, 14, 67, 92
24, 39180, Note_on_c, 14, 67, 0
24, 39180, Note_on_c, 14, 63, 0
24, 39180, Note_on_c, 14, 60, 0
24, 39180, Note_on_c, 14, 60, 92
24, 39180, Note_on_c, 14, 61, 92
24, 39180, Note_on_c, 14, 65, 92
24, 40140, Note_on_c, 14, 65, 0
24, 40140, Note_on_c, 14, 61, 0
24, 40140, Note_on_c, 14, 60, 0
24, 40140, Note_on_c, 14, 60, 92
24, 40140, Note_on_c, 14, 62, 92
24, 40140, Note_on_c, 14, 64, 92
24, 40320, Note_on_c, 14, 64, 0
24, 40320, Note_on_c, 14, 62, 0
24, 40320, Note_on_c, 14, 60, 0
24, 40320, Note_on_c, 14, 56, 92
24, 40320, Note_on_c, 14, 61, 92
24, 40320, Note_on_c, 14, 65, 92
24, 40620, Note_on_c, 14, 65, 0
24, 40620, Note_on_c, 14, 61, 0
24, 40620, Note_on_c, 14, 56, 0
24, 40620, Note_on_c, 14, 56, 92
24, 40620, Note_on_c, 14, 60, 92
24, 40620, Note_on_c, 14, 63, 92
24, 41400, Note_on_c, 14, 63, 0
24, 41400, Note_on_c, 14, 60, 0
24, 41400, Note_on_c, 14, 56, 0
24, 41760, Note_on_c, 14, 56, 92
24, 41760, Note_on_c, 14, 59, 92
24, 41760, Note_on_c, 14, 63, 92
24, 42480, Note_on_c, 14, 63, 0
24, 42480, Note_on_c, 14, 59, 0
24, 42480, Note_on_c, 14, 56, 0
24, 42480, Note_on_c, 14, 65, 92
24, 42480, Note_on_c, 14, 61, 92
24, 42480, Note_on_c, 14, 60, 92
24, 42840, Note_on_c, 14, 60, 0
24, 42840, Note_on_c, 14, 61, 0
24, 42840, Note_on_c, 14, 65, 0
24, 42840, Note_on_c, 14, 64, 92
24, 42840, Note_on_c, 14, 65, 92
24, 42840, Note_on_c, 14, 60, 92
24, 42885, Note_on_c, 14, 60, 0
24, 42885, Note_on_c, 14, 65, 0
24, 42885, Note_on_c, 14, 64, 0
24, 42960, Pitch_bend_c, 14, 8192
24, 42960, Note_on_c, 14, 64, 92
24, 42960, Note_on_c, 14, 65, 92
24, 42960, Note_on_c, 14, 60, 92
24, 43005, Note_on_c, 14, 60, 0
24, 43005, Note_on_c, 14, 65, 0
24, 43005, Note_on_c, 14, 64, 0
24, 43080, Note_on_c, 14, 64, 92
24, 43080, Note_on_c, 14, 65, 92
24, 43080, Note_on_c, 14, 60, 92
24, 43125, Note_on_c, 14, 60, 0
24, 43125, Note_on_c, 14, 65, 0
24, 43125, Note_on_c, 14, 64, 0
24, 43200, Note_on_c, 14, 63, 82
24, 43215, Pitch_bend_c, 14, 12288
24, 43370, Note_on_c, 14, 63, 0
24, 43379, Pitch_bend_c, 14, 8192
24, 43380, Note_on_c, 14, 67, 102
24, 43500, Note_on_c, 14, 67, 0
24, 43500, Note_on_c, 14, 63, 92
24, 44445, Note_on_c, 14, 63, 0
24, 44640, Note_on_c, 14, 67, 82
24, 44640, Note_on_c, 14, 60, 92
24, 44640, Note_on_c, 14, 63, 82
24, 44865, Note_on_c, 14, 63, 0
24, 44865, Note_on_c, 14, 60, 0
24, 44865, Note_on_c, 14, 67, 0
24, 44940, Note_on_c, 14, 68, 82
24, 44940, Note_on_c, 14, 61, 92
24, 44940, Note_on_c, 14, 65, 82
24, 45645, Note_on_c, 14, 65, 0
24, 45645, Note_on_c, 14, 61, 0
24, 45645, Note_on_c, 14, 68, 0
24, 45900, Note_on_c, 14, 68, 92
24, 46079, Note_on_c, 14, 68, 0
24, 46080, Note_on_c, 14, 70, 92
24, 46170, Note_on_c, 14, 70, 0
24, 46370, Note_on_c, 14, 70, 72
24, 46373, Note_on_c, 14, 72, 72
24, 46376, Note_on_c, 14, 75, 92
24, 46790, Note_on_c, 14, 70, 0
24, 46793, Note_on_c, 14, 72, 0
24, 46796, Note_on_c, 14, 75, 0
24, 47520, Note_on_c, 14, 68, 97
24, 47520, Note_on_c, 14, 71, 97
24, 47535, Note_on_c, 14, 71, 0
24, 47550, Note_on_c, 14, 73, 97
24, 47610, Note_on_c, 14, 68, 0
24, 47640, Note_on_c, 14, 73, 0
24, 47640, Note_on_c, 14, 71, 87
24, 47700, Pitch_bend_c, 14, 2048
24, 47820, Note_on_c, 14, 71, 0
24, 47820, Note_on_c, 14, 68, 66
24, 47820, Note_on_c, 14, 71, 76
24, 47820, Pitch_bend_c, 14, 8192
24, 48105, Note_on_c, 14, 71, 0
24, 48105, Note_on_c, 14, 68, 0
24, 115200, Control_c, 14, 11, 127
24, 115245, Control_c, 14, 11, 126
24, 115290, Control_c, 14, 11, 125
24, 115336, Control_c, 14, 11, 124
24, 115381, Control_c, 14, 11, 123
24, 115426, Control_c, 14, 11, 122
24, 115472, Control_c, 14, 11, 121
24, 115517, Control_c, 14, 11, 120
24, 115562, Control_c, 14, 11, 119
24, 115608, Control_c, 14, 11, 118
24, 115653, Control_c, 14, 11, 117
24, 115698, Control_c, 14, 11, 116
24, 115744, Control_c, 14, 11, 115
24, 115789, Control_c, 14, 11, 114
24, 115834, Control_c, 14, 11, 113
24, 115880, Control_c, 14, 11, 112
24, 115925, Control_c, 14, 11, 111
24, 115970, Control_c, 14, 11, 110
24, 116016, Control_c, 14, 11, 109
24, 116061, Control_c, 14, 11, 108
24, 116106, Control_c, 14, 11, 107
24, 116152, Control_c, 14, 11, 106
24, 116197, Control_c, 14, 11, 105
24, 116242, Control_c, 14, 11, 104
24, 116288, Control_c, 14, 11, 103
24, 116333, Control_c, 14, 11, 102
24, 116379, Control_c, 14, 11, 101
24, 116424, Control_c, 14, 11, 100
24, 116469, Control_c, 14, 11, 99
24, 116515, Control_c, 14, 11, 98
24, 116560, Control_c, 14, 11, 97
24, 116605, Control_c, 14, 11, 96
24, 116651, Control_c, 14, 11, 95
24, 116696, Control_c, 14, 11, 94
24, 116741, Control_c, 14, 11, 93
24, 116787, Control_c, 14, 11, 92
24, 116832, Control_c, 14, 11, 91
24, 116877, Control_c, 14, 11, 90
24, 116923, Control_c, 14, 11, 89
24, 116968, Control_c, 14, 11, 88
24, 117013, Control_c, 14, 11, 87
24, 117059, Control_c, 14, 11, 86
24, 117104, Control_c, 14, 11, 85
24, 117149, Control_c, 14, 11, 84
24, 117195, Control_c, 14, 11, 83
24, 117240, Control_c, 14, 11, 82
24, 117285, Control_c, 14, 11, 81
24, 117331, Control_c, 14, 11, 80
24, 117376, Control_c, 14, 11, 79
24, 117421, Control_c, 14, 11, 78
24, 117467, Control_c, 14, 11, 77
24, 117512, Control_c, 14, 11, 76
24, 117558, Control_c, 14, 11, 75
24, 117603, Control_c, 14, 11, 74
24, 117648, Control_c, 14, 11, 73
24, 117694, Control_c, 14, 11, 72
24, 117739, Control_c, 14, 11, 71
24, 117784, Control_c, 14, 11, 70
24, 117830, Control_c, 14, 11, 69
24, 117875, Control_c, 14, 11, 68
24, 117920, Control_c, 14, 11, 67
24, 117966, Control_c, 14, 11, 66
24, 118011, Control_c, 14, 11, 65
24, 118056, Control_c, 14, 11, 64
24, 118102, Control_c, 14, 11, 63
24, 118147, Control_c, 14, 11, 62
24, 118192, Control_c, 14, 11, 61
24, 118238, Control_c, 14, 11, 60
24, 118283, Control_c, 14, 11, 59
24, 118328, Control_c, 14, 11, 58
24, 118374, Control_c, 14, 11, 57
24, 118419, Control_c, 14, 11, 56
24, 118464, Control_c, 14, 11, 55
24, 118510, Control_c, 14, 11, 54
24, 118555, Control_c, 14, 11, 53
24, 118600, Control_c, 14, 11, 52
24, 118646, Control_c, 14, 11, 51
24, 118691, Control_c, 14, 11, 50
24, 118737, Control_c, 14, 11, 49
24, 118782, Control_c, 14, 11, 48
24, 118827, Control_c, 14, 11, 47
24, 118873, Control_c, 14, 11, 46
24, 118918, Control_c, 14, 11, 45
24, 118963, Control_c, 14, 11, 44
24, 119009, Control_c, 14, 11, 43
24, 119054, Control_c, 14, 11, 42
24, 119099, Control_c, 14, 11, 41
24, 119145, Control_c, 14, 11, 40
24, 119190, Control_c, 14, 11, 39
24, 119235, Control_c, 14, 11, 38
24, 119281, Control_c, 14, 11, 37
24, 119326, Control_c, 14, 11, 36
24, 119371, Control_c, 14, 11, 35
24, 119417, Control_c, 14, 11, 34
24, 119462, Control_c, 14, 11, 33
24, 119507, Control_c, 14, 11, 32
24, 119553, Control_c, 14, 11, 31
24, 119598, Control_c, 14, 11, 30
24, 119643, Control_c, 14, 11, 29
24, 119689, Control_c, 14, 11, 28
24, 119734, Control_c, 14, 11, 27
24, 119779, Control_c, 14, 11, 26
24, 119825, Control_c, 14, 11, 25
24, 119870, Control_c, 14, 11, 24
24, 119916, Control_c, 14, 11, 23
24, 119961, Control_c, 14, 11, 22
24, 120006, Control_c, 14, 11, 21
24, 120052, Control_c, 14, 11, 20
24, 120097, Control_c, 14, 11, 19
24, 120142, Control_c, 14, 11, 18
24, 120188, Control_c, 14, 11, 17
24, 120233, Control_c, 14, 11, 16
24, 120278, Control_c, 14, 11, 15
24, 120324, Control_c, 14, 11, 14
24, 120369, Control_c, 14, 11, 13
24, 120414, Control_c, 14, 11, 12
24, 120460, Control_c, 14, 11, 11
24, 120505, Control_c, 14, 11, 10
24, 120550, Control_c, 14, 11, 9
24, 120596, Control_c, 14, 11, 8
24, 120641, Control_c, 14, 11, 7
24, 120686, Control_c, 14, 11, 6
24, 120732, Control_c, 14, 11, 5
24, 120777, Control_c, 14, 11, 4
24, 120822, Control_c, 14, 11, 3
24, 120868, Control_c, 14, 11, 2
24, 120913, Control_c, 14, 11, 1
24, 120959, Control_c, 14, 11, 0
24, 121409, Control_c, 14, 121, 0
24, 121409, End_track
25, 0, Start_track
25, 0, MIDI_port, 0
25, 0, Title_t, "=================================="
25, 0, End_track
26, 0, Start_track
26, 0, MIDI_port, 0
26, 0, Title_t, "Jazz Trap Set:"
26, 510, Control_c, 9, 121, 0
26, 511, Program_c, 9, 32
26, 512, Control_c, 9, 7, 127
26, 513, Control_c, 9, 10, 64
26, 514, Control_c, 9, 91, 48
26, 515, Control_c, 9, 93, 12
26, 614, Control_c, 9, 6, 127
26, 615, Text_t, "Tambourine (54)"
26, 615, Control_c, 9, 98, 54
26, 616, Text_t, "- pitch"
26, 616, Control_c, 9, 99, 24
26, 617, Control_c, 9, 6, 64
26, 618, Text_t, "- level"
26, 618, Control_c, 9, 99, 26
26, 619, Control_c, 9, 6, 110
26, 620, Text_t, "- pan"
26, 620, Control_c, 9, 99, 28
26, 621, Control_c, 9, 6, 40
26, 622, Text_t, "- reverb"
26, 622, Control_c, 9, 99, 29
26, 623, Control_c, 9, 6, 127
26, 624, Text_t, "- chorus"
26, 624, Control_c, 9, 99, 30
26, 625, Control_c, 9, 6, 127
26, 681, Control_c, 9, 101, 127
26, 682, Control_c, 9, 100, 127
26, 115200, Control_c, 9, 11, 127
26, 115245, Control_c, 9, 11, 126
26, 115290, Control_c, 9, 11, 125
26, 115336, Control_c, 9, 11, 124
26, 115381, Control_c, 9, 11, 123
26, 115426, Control_c, 9, 11, 122
26, 115472, Control_c, 9, 11, 121
26, 115517, Control_c, 9, 11, 120
26, 115562, Control_c, 9, 11, 119
26, 115608, Control_c, 9, 11, 118
26, 115653, Control_c, 9, 11, 117
26, 115698, Control_c, 9, 11, 116
26, 115744, Control_c, 9, 11, 115
26, 115789, Control_c, 9, 11, 114
26, 115834, Control_c, 9, 11, 113
26, 115880, Control_c, 9, 11, 112
26, 115925, Control_c, 9, 11, 111
26, 115970, Control_c, 9, 11, 110
26, 116016, Control_c, 9, 11, 109
26, 116061, Control_c, 9, 11, 108
26, 116106, Control_c, 9, 11, 107
26, 116152, Control_c, 9, 11, 106
26, 116197, Control_c, 9, 11, 105
26, 116242, Control_c, 9, 11, 104
26, 116288, Control_c, 9, 11, 103
26, 116333, Control_c, 9, 11, 102
26, 116379, Control_c, 9, 11, 101
26, 116424, Control_c, 9, 11, 100
26, 116469, Control_c, 9, 11, 99
26, 116515, Control_c, 9, 11, 98
26, 116560, Control_c, 9, 11, 97
26, 116605, Control_c, 9, 11, 96
26, 116651, Control_c, 9, 11, 95
26, 116696, Control_c, 9, 11, 94
26, 116741, Control_c, 9, 11, 93
26, 116787, Control_c, 9, 11, 92
26, 116832, Control_c, 9, 11, 91
26, 116877, Control_c, 9, 11, 90
26, 116923, Control_c, 9, 11, 89
26, 116968, Control_c, 9, 11, 88
26, 117013, Control_c, 9, 11, 87
26, 117059, Control_c, 9, 11, 86
26, 117104, Control_c, 9, 11, 85
26, 117149, Control_c, 9, 11, 84
26, 117195, Control_c, 9, 11, 83
26, 117240, Control_c, 9, 11, 82
26, 117285, Control_c, 9, 11, 81
26, 117331, Control_c, 9, 11, 80
26, 117376, Control_c, 9, 11, 79
26, 117421, Control_c, 9, 11, 78
26, 117467, Control_c, 9, 11, 77
26, 117512, Control_c, 9, 11, 76
26, 117558, Control_c, 9, 11, 75
26, 117603, Control_c, 9, 11, 74
26, 117648, Control_c, 9, 11, 73
26, 117694, Control_c, 9, 11, 72
26, 117739, Control_c, 9, 11, 71
26, 117784, Control_c, 9, 11, 70
26, 117830, Control_c, 9, 11, 69
26, 117875, Control_c, 9, 11, 68
26, 117920, Control_c, 9, 11, 67
26, 117966, Control_c, 9, 11, 66
26, 118011, Control_c, 9, 11, 65
26, 118056, Control_c, 9, 11, 64
26, 118102, Control_c, 9, 11, 63
26, 118147, Control_c, 9, 11, 62
26, 118192, Control_c, 9, 11, 61
26, 118238, Control_c, 9, 11, 60
26, 118283, Control_c, 9, 11, 59
26, 118328, Control_c, 9, 11, 58
26, 118374, Control_c, 9, 11, 57
26, 118419, Control_c, 9, 11, 56
26, 118464, Control_c, 9, 11, 55
26, 118510, Control_c, 9, 11, 54
26, 118555, Control_c, 9, 11, 53
26, 118600, Control_c, 9, 11, 52
26, 118646, Control_c, 9, 11, 51
26, 118691, Control_c, 9, 11, 50
26, 118737, Control_c, 9, 11, 49
26, 118782, Control_c, 9, 11, 48
26, 118827, Control_c, 9, 11, 47
26, 118873, Control_c, 9, 11, 46
26, 118918, Control_c, 9, 11, 45
26, 118963, Control_c, 9, 11, 44
26, 119009, Control_c, 9, 11, 43
26, 119054, Control_c, 9, 11, 42
26, 119099, Control_c, 9, 11, 41
26, 119145, Control_c, 9, 11, 40
26, 119190, Control_c, 9, 11, 39
26, 119235, Control_c, 9, 11, 38
26, 119281, Control_c, 9, 11, 37
26, 119326, Control_c, 9, 11, 36
26, 119371, Control_c, 9, 11, 35
26, 119417, Control_c, 9, 11, 34
26, 119462, Control_c, 9, 11, 33
26, 119507, Control_c, 9, 11, 32
26, 119553, Control_c, 9, 11, 31
26, 119598, Control_c, 9, 11, 30
26, 119643, Control_c, 9, 11, 29
26, 119689, Control_c, 9, 11, 28
26, 119734, Control_c, 9, 11, 27
26, 119779, Control_c, 9, 11, 26
26, 119825, Control_c, 9, 11, 25
26, 119870, Control_c, 9, 11, 24
26, 119916, Control_c, 9, 11, 23
26, 119961, Control_c, 9, 11, 22
26, 120006, Control_c, 9, 11, 21
26, 120052, Control_c, 9, 11, 20
26, 120097, Control_c, 9, 11, 19
26, 120142, Control_c, 9, 11, 18
26, 120188, Control_c, 9, 11, 17
26, 120233, Control_c, 9, 11, 16
26, 120278, Control_c, 9, 11, 15
26, 120324, Control_c, 9, 11, 14
26, 120369, Control_c, 9, 11, 13
26, 120414, Control_c, 9, 11, 12
26, 120460, Control_c, 9, 11, 11
26, 120505, Control_c, 9, 11, 10
26, 120550, Control_c, 9, 11, 9
26, 120596, Control_c, 9, 11, 8
26, 120641, Control_c, 9, 11, 7
26, 120686, Control_c, 9, 11, 6
26, 120732, Control_c, 9, 11, 5
26, 120777, Control_c, 9, 11, 4
26, 120822, Control_c, 9, 11, 3
26, 120868, Control_c, 9, 11, 2
26, 120913, Control_c, 9, 11, 1
26, 120959, Control_c, 9, 11, 0
26, 121410, Control_c, 9, 121, 0
26, 121410, End_track
27, 0, Start_track
27, 0, MIDI_port, 0
27, 0, Title_t, "  Bass Drum"
27, 1800, Note_on_c, 9, 35, 102
27, 1814, Note_on_c, 9, 35, 0
27, 1920, Note_on_c, 9, 35, 112
27, 1934, Note_on_c, 9, 35, 0
27, 2160, Note_on_c, 9, 35, 112
27, 2174, Note_on_c, 9, 35, 0
27, 2520, Note_on_c, 9, 35, 102
27, 2534, Note_on_c, 9, 35, 0
27, 2640, Note_on_c, 9, 35, 112
27, 2654, Note_on_c, 9, 35, 0
27, 2880, Note_on_c, 9, 35, 112
27, 2894, Note_on_c, 9, 35, 0
27, 3240, Note_on_c, 9, 35, 102
27, 3254, Note_on_c, 9, 35, 0
27, 3360, Note_on_c, 9, 35, 112
27, 3374, Note_on_c, 9, 35, 0
27, 3600, Note_on_c, 9, 35, 112
27, 3614, Note_on_c, 9, 35, 0
27, 3960, Note_on_c, 9, 35, 102
27, 3974, Note_on_c, 9, 35, 0
27, 4080, Note_on_c, 9, 35, 112
27, 4094, Note_on_c, 9, 35, 0
27, 4320, Note_on_c, 9, 35, 112
27, 4334, Note_on_c, 9, 35, 0
27, 4680, Note_on_c, 9, 35, 102
27, 4694, Note_on_c, 9, 35, 0
27, 4800, Note_on_c, 9, 35, 112
27, 4814, Note_on_c, 9, 35, 0
27, 5040, Note_on_c, 9, 35, 112
27, 5054, Note_on_c, 9, 35, 0
27, 5400, Note_on_c, 9, 35, 102
27, 5414, Note_on_c, 9, 35, 0
27, 5520, Note_on_c, 9, 35, 112
27, 5534, Note_on_c, 9, 35, 0
27, 5760, Note_on_c, 9, 35, 112
27, 5774, Note_on_c, 9, 35, 0
27, 6120, Note_on_c, 9, 35, 102
27, 6134, Note_on_c, 9, 35, 0
27, 6240, Note_on_c, 9, 35, 112
27, 6254, Note_on_c, 9, 35, 0
27, 6480, Note_on_c, 9, 35, 112
27, 6494, Note_on_c, 9, 35, 0
27, 6840, Note_on_c, 9, 35, 102
27, 6854, Note_on_c, 9, 35, 0
27, 6960, Note_on_c, 9, 35, 112
27, 6974, Note_on_c, 9, 35, 0
27, 7080, Note_on_c, 9, 35, 102
27, 7094, Note_on_c, 9, 35, 0
27, 7200, Note_on_c, 9, 35, 112
27, 7214, Note_on_c, 9, 35, 0
27, 7560, Note_on_c, 9, 35, 102
27, 7574, Note_on_c, 9, 35, 0
27, 7680, Note_on_c, 9, 35, 112
27, 7694, Note_on_c, 9, 35, 0
27, 7920, Note_on_c, 9, 35, 112
27, 7934, Note_on_c, 9, 35, 0
27, 8280, Note_on_c, 9, 35, 102
27, 8294, Note_on_c, 9, 35, 0
27, 8400, Note_on_c, 9, 35, 112
27, 8414, Note_on_c, 9, 35, 0
27, 8640, Note_on_c, 9, 35, 112
27, 8654, Note_on_c, 9, 35, 0
27, 9000, Note_on_c, 9, 35, 102
27, 9014, Note_on_c, 9, 35, 0
27, 9120, Note_on_c, 9, 35, 112
27, 9134, Note_on_c, 9, 35, 0
27, 9360, Note_on_c, 9, 35, 112
27, 9374, Note_on_c, 9, 35, 0
27, 9720, Note_on_c, 9, 35, 102
27, 9734, Note_on_c, 9, 35, 0
27, 9840, Note_on_c, 9, 35, 112
27, 9854, Note_on_c, 9, 35, 0
27, 10080, Note_on_c, 9, 35, 112
27, 10094, Note_on_c, 9, 35, 0
27, 10440, Note_on_c, 9, 35, 102
27, 10454, Note_on_c, 9, 35, 0
27, 10560, Note_on_c, 9, 35, 112
27, 10574, Note_on_c, 9, 35, 0
27, 10800, Note_on_c, 9, 35, 112
27, 10814, Note_on_c, 9, 35, 0
27, 11160, Note_on_c, 9, 35, 102
27, 11174, Note_on_c, 9, 35, 0
27, 11280, Note_on_c, 9, 35, 112
27, 11294, Note_on_c, 9, 35, 0
27, 11520, Note_on_c, 9, 35, 112
27, 11534, Note_on_c, 9, 35, 0
27, 11880, Note_on_c, 9, 35, 102
27, 11894, Note_on_c, 9, 35, 0
27, 12000, Note_on_c, 9, 35, 112
27, 12014, Note_on_c, 9, 35, 0
27, 12240, Note_on_c, 9, 35, 112
27, 12254, Note_on_c, 9, 35, 0
27, 12600, Note_on_c, 9, 35, 102
27, 12614, Note_on_c, 9, 35, 0
27, 12720, Note_on_c, 9, 35, 112
27, 12734, Note_on_c, 9, 35, 0
27, 12840, Note_on_c, 9, 35, 102
27, 12854, Note_on_c, 9, 35, 0
27, 12960, Note_on_c, 9, 35, 112
27, 12974, Note_on_c, 9, 35, 0
27, 13320, Note_on_c, 9, 35, 102
27, 13334, Note_on_c, 9, 35, 0
27, 13440, Note_on_c, 9, 35, 112
27, 13454, Note_on_c, 9, 35, 0
27, 13680, Note_on_c, 9, 35, 112
27, 13694, Note_on_c, 9, 35, 0
27, 14040, Note_on_c, 9, 35, 102
27, 14054, Note_on_c, 9, 35, 0
27, 14160, Note_on_c, 9, 35, 112
27, 14174, Note_on_c, 9, 35, 0
27, 14400, Note_on_c, 9, 35, 112
27, 14414, Note_on_c, 9, 35, 0
27, 14760, Note_on_c, 9, 35, 102
27, 14774, Note_on_c, 9, 35, 0
27, 14880, Note_on_c, 9, 35, 112
27, 14894, Note_on_c, 9, 35, 0
27, 15120, Note_on_c, 9, 35, 112
27, 15134, Note_on_c, 9, 35, 0
27, 15480, Note_on_c, 9, 35, 102
27, 15494, Note_on_c, 9, 35, 0
27, 15600, Note_on_c, 9, 35, 112
27, 15614, Note_on_c, 9, 35, 0
27, 15840, Note_on_c, 9, 35, 112
27, 15854, Note_on_c, 9, 35, 0
27, 16200, Note_on_c, 9, 35, 102
27, 16214, Note_on_c, 9, 35, 0
27, 16320, Note_on_c, 9, 35, 112
27, 16334, Note_on_c, 9, 35, 0
27, 16560, Note_on_c, 9, 35, 112
27, 16574, Note_on_c, 9, 35, 0
27, 16920, Note_on_c, 9, 35, 102
27, 16934, Note_on_c, 9, 35, 0
27, 17040, Note_on_c, 9, 35, 112
27, 17054, Note_on_c, 9, 35, 0
27, 17280, Note_on_c, 9, 35, 112
27, 17294, Note_on_c, 9, 35, 0
27, 17640, Note_on_c, 9, 35, 102
27, 17654, Note_on_c, 9, 35, 0
27, 17760, Note_on_c, 9, 35, 112
27, 17774, Note_on_c, 9, 35, 0
27, 18000, Note_on_c, 9, 35, 112
27, 18014, Note_on_c, 9, 35, 0
27, 18360, Note_on_c, 9, 35, 102
27, 18374, Note_on_c, 9, 35, 0
27, 18480, Note_on_c, 9, 35, 112
27, 18494, Note_on_c, 9, 35, 0
27, 18720, Note_on_c, 9, 35, 112
27, 18734, Note_on_c, 9, 35, 0
27, 19080, Note_on_c, 9, 35, 102
27, 19094, Note_on_c, 9, 35, 0
27, 19200, Note_on_c, 9, 35, 112
27, 19214, Note_on_c, 9, 35, 0
27, 19440, Note_on_c, 9, 35, 112
27, 19454, Note_on_c, 9, 35, 0
27, 19800, Note_on_c, 9, 35, 102
27, 19814, Note_on_c, 9, 35, 0
27, 19920, Note_on_c, 9, 35, 112
27, 19934, Note_on_c, 9, 35, 0
27, 20040, Note_on_c, 9, 35, 102
27, 20054, Note_on_c, 9, 35, 0
27, 20160, Note_on_c, 9, 35, 112
27, 20174, Note_on_c, 9, 35, 0
27, 20520, Note_on_c, 9, 35, 102
27, 20534, Note_on_c, 9, 35, 0
27, 20640, Note_on_c, 9, 35, 112
27, 20654, Note_on_c, 9, 35, 0
27, 20880, Note_on_c, 9, 35, 112
27, 20894, Note_on_c, 9, 35, 0
27, 21240, Note_on_c, 9, 35, 102
27, 21254, Note_on_c, 9, 35, 0
27, 21360, Note_on_c, 9, 35, 112
27, 21374, Note_on_c, 9, 35, 0
27, 21600, Note_on_c, 9, 35, 112
27, 21614, Note_on_c, 9, 35, 0
27, 21960, Note_on_c, 9, 35, 102
27, 21974, Note_on_c, 9, 35, 0
27, 22080, Note_on_c, 9, 35, 112
27, 22094, Note_on_c, 9, 35, 0
27, 22320, Note_on_c, 9, 35, 112
27, 22334, Note_on_c, 9, 35, 0
27, 22680, Note_on_c, 9, 35, 102
27, 22694, Note_on_c, 9, 35, 0
27, 22800, Note_on_c, 9, 35, 112
27, 22814, Note_on_c, 9, 35, 0
27, 23040, Note_on_c, 9, 35, 112
27, 23054, Note_on_c, 9, 35, 0
27, 23400, Note_on_c, 9, 35, 102
27, 23414, Note_on_c, 9, 35, 0
27, 23520, Note_on_c, 9, 35, 112
27, 23534, Note_on_c, 9, 35, 0
27, 23760, Note_on_c, 9, 35, 112
27, 23774, Note_on_c, 9, 35, 0
27, 24120, Note_on_c, 9, 35, 102
27, 24134, Note_on_c, 9, 35, 0
27, 24240, Note_on_c, 9, 35, 112
27, 24254, Note_on_c, 9, 35, 0
27, 24480, Note_on_c, 9, 35, 112
27, 24494, Note_on_c, 9, 35, 0
27, 24840, Note_on_c, 9, 35, 102
27, 24854, Note_on_c, 9, 35, 0
27, 24960, Note_on_c, 9, 35, 112
27, 24974, Note_on_c, 9, 35, 0
27, 25200, Note_on_c, 9, 35, 112
27, 25214, Note_on_c, 9, 35, 0
27, 25560, Note_on_c, 9, 35, 102
27, 25574, Note_on_c, 9, 35, 0
27, 25680, Note_on_c, 9, 35, 112
27, 25694, Note_on_c, 9, 35, 0
27, 25920, Note_on_c, 9, 35, 112
27, 25934, Note_on_c, 9, 35, 0
27, 26280, Note_on_c, 9, 35, 102
27, 26294, Note_on_c, 9, 35, 0
27, 26400, Note_on_c, 9, 35, 112
27, 26414, Note_on_c, 9, 35, 0
27, 26640, Note_on_c, 9, 35, 112
27, 26654, Note_on_c, 9, 35, 0
27, 27000, Note_on_c, 9, 35, 102
27, 27014, Note_on_c, 9, 35, 0
27, 27120, Note_on_c, 9, 35, 112
27, 27134, Note_on_c, 9, 35, 0
27, 27360, Note_on_c, 9, 35, 112
27, 27374, Note_on_c, 9, 35, 0
27, 27720, Note_on_c, 9, 35, 102
27, 27734, Note_on_c, 9, 35, 0
27, 27840, Note_on_c, 9, 35, 112
27, 27854, Note_on_c, 9, 35, 0
27, 28080, Note_on_c, 9, 35, 112
27, 28094, Note_on_c, 9, 35, 0
27, 28440, Note_on_c, 9, 35, 102
27, 28454, Note_on_c, 9, 35, 0
27, 28560, Note_on_c, 9, 35, 112
27, 28574, Note_on_c, 9, 35, 0
27, 28800, Note_on_c, 9, 35, 112
27, 28814, Note_on_c, 9, 35, 0
27, 29160, Note_on_c, 9, 35, 102
27, 29174, Note_on_c, 9, 35, 0
27, 29280, Note_on_c, 9, 35, 112
27, 29294, Note_on_c, 9, 35, 0
27, 29520, Note_on_c, 9, 35, 112
27, 29534, Note_on_c, 9, 35, 0
27, 29880, Note_on_c, 9, 35, 112
27, 29894, Note_on_c, 9, 35, 0
27, 30000, Note_on_c, 9, 35, 112
27, 30014, Note_on_c, 9, 35, 0
27, 30240, Note_on_c, 9, 35, 112
27, 30254, Note_on_c, 9, 35, 0
27, 30540, Note_on_c, 9, 35, 112
27, 30554, Note_on_c, 9, 35, 0
27, 30900, Note_on_c, 9, 35, 112
27, 30914, Note_on_c, 9, 35, 0
27, 31260, Note_on_c, 9, 35, 112
27, 31274, Note_on_c, 9, 35, 0
27, 31680, Note_on_c, 9, 35, 112
27, 31694, Note_on_c, 9, 35, 0
27, 32040, Note_on_c, 9, 35, 102
27, 32054, Note_on_c, 9, 35, 0
27, 32160, Note_on_c, 9, 35, 112
27, 32174, Note_on_c, 9, 35, 0
27, 32400, Note_on_c, 9, 35, 112
27, 32414, Note_on_c, 9, 35, 0
27, 32760, Note_on_c, 9, 35, 102
27, 32774, Note_on_c, 9, 35, 0
27, 32880, Note_on_c, 9, 35, 112
27, 32894, Note_on_c, 9, 35, 0
27, 33120, Note_on_c, 9, 35, 112
27, 33134, Note_on_c, 9, 35, 0
27, 33480, Note_on_c, 9, 35, 102
27, 33494, Note_on_c, 9, 35, 0
27, 33600, Note_on_c, 9, 35, 112
27, 33614, Note_on_c, 9, 35, 0
27, 33840, Note_on_c, 9, 35, 112
27, 33854, Note_on_c, 9, 35, 0
27, 34200, Note_on_c, 9, 35, 102
27, 34214, Note_on_c, 9, 35, 0
27, 34320, Note_on_c, 9, 35, 112
27, 34334, Note_on_c, 9, 35, 0
27, 34560, Note_on_c, 9, 35, 112
27, 34574, Note_on_c, 9, 35, 0
27, 34920, Note_on_c, 9, 35, 112
27, 34934, Note_on_c, 9, 35, 0
27, 35040, Note_on_c, 9, 35, 112
27, 35054, Note_on_c, 9, 35, 0
27, 35280, Note_on_c, 9, 35, 112
27, 35294, Note_on_c, 9, 35, 0
27, 35460, Note_on_c, 9, 35, 112
27, 35474, Note_on_c, 9, 35, 0
27, 35640, Note_on_c, 9, 35, 112
27, 35654, Note_on_c, 9, 35, 0
27, 35820, Note_on_c, 9, 35, 112
27, 35834, Note_on_c, 9, 35, 0
27, 36000, Note_on_c, 9, 35, 112
27, 36014, Note_on_c, 9, 35, 0
27, 36360, Note_on_c, 9, 35, 112
27, 36374, Note_on_c, 9, 35, 0
27, 36480, Note_on_c, 9, 35, 112
27, 36494, Note_on_c, 9, 35, 0
27, 36720, Note_on_c, 9, 35, 112
27, 36734, Note_on_c, 9, 35, 0
27, 37080, Note_on_c, 9, 35, 112
27, 37094, Note_on_c, 9, 35, 0
27, 37440, Note_on_c, 9, 35, 84
27, 37454, Note_on_c, 9, 35, 0
27, 37740, Note_on_c, 9, 35, 84
27, 37754, Note_on_c, 9, 35, 0
27, 38880, Note_on_c, 9, 35, 66
27, 38894, Note_on_c, 9, 35, 0
27, 39180, Note_on_c, 9, 35, 66
27, 39194, Note_on_c, 9, 35, 0
27, 40140, Note_on_c, 9, 35, 66
27, 40154, Note_on_c, 9, 35, 0
27, 40320, Note_on_c, 9, 35, 84
27, 40334, Note_on_c, 9, 35, 0
27, 40620, Note_on_c, 9, 35, 84
27, 40634, Note_on_c, 9, 35, 0
27, 41760, Note_on_c, 9, 35, 84
27, 41774, Note_on_c, 9, 35, 0
27, 42480, Note_on_c, 9, 35, 84
27, 42494, Note_on_c, 9, 35, 0
27, 43200, Note_on_c, 9, 35, 84
27, 43214, Note_on_c, 9, 35, 0
27, 43500, Note_on_c, 9, 35, 84
27, 43514, Note_on_c, 9, 35, 0
27, 44640, Note_on_c, 9, 35, 84
27, 44654, Note_on_c, 9, 35, 0
27, 44940, Note_on_c, 9, 35, 84
27, 44954, Note_on_c, 9, 35, 0
27, 46080, Note_on_c, 9, 35, 84
27, 46094, Note_on_c, 9, 35, 0
27, 46380, Note_on_c, 9, 35, 84
27, 46394, Note_on_c, 9, 35, 0
27, 47520, Note_on_c, 9, 35, 84
27, 47534, Note_on_c, 9, 35, 0
27, 48240, Note_on_c, 9, 35, 84
27, 48254, Note_on_c, 9, 35, 0
27, 48960, Note_on_c, 9, 35, 112
27, 48974, Note_on_c, 9, 35, 0
27, 49320, Note_on_c, 9, 35, 102
27, 49334, Note_on_c, 9, 35, 0
27, 49440, Note_on_c, 9, 35, 112
27, 49454, Note_on_c, 9, 35, 0
27, 49680, Note_on_c, 9, 35, 112
27, 49694, Note_on_c, 9, 35, 0
27, 50040, Note_on_c, 9, 35, 102
27, 50054, Note_on_c, 9, 35, 0
27, 50160, Note_on_c, 9, 35, 112
27, 50174, Note_on_c, 9, 35, 0
27, 50400, Note_on_c, 9, 35, 112
27, 50414, Note_on_c, 9, 35, 0
27, 50760, Note_on_c, 9, 35, 102
27, 50774, Note_on_c, 9, 35, 0
27, 50880, Note_on_c, 9, 35, 112
27, 50894, Note_on_c, 9, 35, 0
27, 51120, Note_on_c, 9, 35, 112
27, 51134, Note_on_c, 9, 35, 0
27, 51480, Note_on_c, 9, 35, 102
27, 51494, Note_on_c, 9, 35, 0
27, 51600, Note_on_c, 9, 35, 112
27, 51614, Note_on_c, 9, 35, 0
27, 51840, Note_on_c, 9, 35, 112
27, 51854, Note_on_c, 9, 35, 0
27, 52200, Note_on_c, 9, 35, 102
27, 52214, Note_on_c, 9, 35, 0
27, 52320, Note_on_c, 9, 35, 112
27, 52334, Note_on_c, 9, 35, 0
27, 52560, Note_on_c, 9, 35, 112
27, 52574, Note_on_c, 9, 35, 0
27, 52920, Note_on_c, 9, 35, 96
27, 52934, Note_on_c, 9, 35, 0
27, 53040, Note_on_c, 9, 35, 112
27, 53054, Note_on_c, 9, 35, 0
27, 53280, Note_on_c, 9, 35, 112
27, 53294, Note_on_c, 9, 35, 0
27, 53640, Note_on_c, 9, 35, 102
27, 53654, Note_on_c, 9, 35, 0
27, 53760, Note_on_c, 9, 35, 112
27, 53774, Note_on_c, 9, 35, 0
27, 54000, Note_on_c, 9, 35, 112
27, 54014, Note_on_c, 9, 35, 0
27, 54360, Note_on_c, 9, 35, 102
27, 54374, Note_on_c, 9, 35, 0
27, 54480, Note_on_c, 9, 35, 112
27, 54494, Note_on_c, 9, 35, 0
27, 54600, Note_on_c, 9, 35, 102
27, 54614, Note_on_c, 9, 35, 0
27, 54720, Note_on_c, 9, 35, 112
27, 54734, Note_on_c, 9, 35, 0
27, 55080, Note_on_c, 9, 35, 102
27, 55094, Note_on_c, 9, 35, 0
27, 55200, Note_on_c, 9, 35, 112
27, 55214, Note_on_c, 9, 35, 0
27, 55440, Note_on_c, 9, 35, 112
27, 55454, Note_on_c, 9, 35, 0
27, 55800, Note_on_c, 9, 35, 102
27, 55814, Note_on_c, 9, 35, 0
27, 55920, Note_on_c, 9, 35, 112
27, 55934, Note_on_c, 9, 35, 0
27, 56160, Note_on_c, 9, 35, 112
27, 56174, Note_on_c, 9, 35, 0
27, 56520, Note_on_c, 9, 35, 102
27, 56534, Note_on_c, 9, 35, 0
27, 56640, Note_on_c, 9, 35, 112
27, 56654, Note_on_c, 9, 35, 0
27, 56880, Note_on_c, 9, 35, 112
27, 56894, Note_on_c, 9, 35, 0
27, 57240, Note_on_c, 9, 35, 102
27, 57254, Note_on_c, 9, 35, 0
27, 57360, Note_on_c, 9, 35, 112
27, 57374, Note_on_c, 9, 35, 0
27, 57600, Note_on_c, 9, 35, 112
27, 57614, Note_on_c, 9, 35, 0
27, 57960, Note_on_c, 9, 35, 112
27, 57974, Note_on_c, 9, 35, 0
27, 58080, Note_on_c, 9, 35, 112
27, 58094, Note_on_c, 9, 35, 0
27, 58320, Note_on_c, 9, 35, 112
27, 58334, Note_on_c, 9, 35, 0
27, 58500, Note_on_c, 9, 35, 112
27, 58514, Note_on_c, 9, 35, 0
27, 58680, Note_on_c, 9, 35, 112
27, 58694, Note_on_c, 9, 35, 0
27, 58860, Note_on_c, 9, 35, 112
27, 58874, Note_on_c, 9, 35, 0
27, 59040, Note_on_c, 9, 35, 112
27, 59054, Note_on_c, 9, 35, 0
27, 59400, Note_on_c, 9, 35, 112
27, 59414, Note_on_c, 9, 35, 0
27, 59520, Note_on_c, 9, 35, 112
27, 59534, Note_on_c, 9, 35, 0
27, 59760, Note_on_c, 9, 35, 112
27, 59774, Note_on_c, 9, 35, 0
27, 60120, Note_on_c, 9, 35, 112
27, 60134, Note_on_c, 9, 35, 0
27, 60480, Note_on_c, 9, 35, 112
27, 60494, Note_on_c, 9, 35, 0
27, 60840, Note_on_c, 9, 35, 102
27, 60854, Note_on_c, 9, 35, 0
27, 60960, Note_on_c, 9, 35, 112
27, 60974, Note_on_c, 9, 35, 0
27, 61200, Note_on_c, 9, 35, 112
27, 61214, Note_on_c, 9, 35, 0
27, 61560, Note_on_c, 9, 35, 102
27, 61574, Note_on_c, 9, 35, 0
27, 61680, Note_on_c, 9, 35, 112
27, 61694, Note_on_c, 9, 35, 0
27, 61920, Note_on_c, 9, 35, 112
27, 61934, Note_on_c, 9, 35, 0
27, 62280, Note_on_c, 9, 35, 102
27, 62294, Note_on_c, 9, 35, 0
27, 62400, Note_on_c, 9, 35, 112
27, 62414, Note_on_c, 9, 35, 0
27, 62640, Note_on_c, 9, 35, 112
27, 62654, Note_on_c, 9, 35, 0
27, 63000, Note_on_c, 9, 35, 102
27, 63014, Note_on_c, 9, 35, 0
27, 63120, Note_on_c, 9, 35, 112
27, 63134, Note_on_c, 9, 35, 0
27, 63360, Note_on_c, 9, 35, 112
27, 63374, Note_on_c, 9, 35, 0
27, 63720, Note_on_c, 9, 35, 102
27, 63734, Note_on_c, 9, 35, 0
27, 63840, Note_on_c, 9, 35, 112
27, 63854, Note_on_c, 9, 35, 0
27, 64080, Note_on_c, 9, 35, 112
27, 64094, Note_on_c, 9, 35, 0
27, 64440, Note_on_c, 9, 35, 102
27, 64454, Note_on_c, 9, 35, 0
27, 64560, Note_on_c, 9, 35, 112
27, 64574, Note_on_c, 9, 35, 0
27, 64800, Note_on_c, 9, 35, 112
27, 64814, Note_on_c, 9, 35, 0
27, 65160, Note_on_c, 9, 35, 102
27, 65174, Note_on_c, 9, 35, 0
27, 65280, Note_on_c, 9, 35, 112
27, 65294, Note_on_c, 9, 35, 0
27, 65520, Note_on_c, 9, 35, 112
27, 65534, Note_on_c, 9, 35, 0
27, 65880, Note_on_c, 9, 35, 102
27, 65894, Note_on_c, 9, 35, 0
27, 66000, Note_on_c, 9, 35, 112
27, 66014, Note_on_c, 9, 35, 0
27, 66120, Note_on_c, 9, 35, 102
27, 66134, Note_on_c, 9, 35, 0
27, 66240, Note_on_c, 9, 35, 112
27, 66254, Note_on_c, 9, 35, 0
27, 66600, Note_on_c, 9, 35, 102
27, 66614, Note_on_c, 9, 35, 0
27, 66720, Note_on_c, 9, 35, 112
27, 66734, Note_on_c, 9, 35, 0
27, 66960, Note_on_c, 9, 35, 112
27, 66974, Note_on_c, 9, 35, 0
27, 67320, Note_on_c, 9, 35, 102
27, 67334, Note_on_c, 9, 35, 0
27, 67440, Note_on_c, 9, 35, 112
27, 67454, Note_on_c, 9, 35, 0
27, 67560, Note_on_c, 9, 35, 102
27, 67574, Note_on_c, 9, 35, 0
27, 67680, Note_on_c, 9, 35, 112
27, 67694, Note_on_c, 9, 35, 0
27, 68040, Note_on_c, 9, 35, 112
27, 68054, Note_on_c, 9, 35, 0
27, 68160, Note_on_c, 9, 35, 112
27, 68174, Note_on_c, 9, 35, 0
27, 68400, Note_on_c, 9, 35, 112
27, 68414, Note_on_c, 9, 35, 0
27, 68760, Note_on_c, 9, 35, 112
27, 68774, Note_on_c, 9, 35, 0
27, 68880, Note_on_c, 9, 35, 112
27, 68894, Note_on_c, 9, 35, 0
27, 69000, Note_on_c, 9, 35, 112
27, 69014, Note_on_c, 9, 35, 0
27, 69120, Note_on_c, 9, 35, 112
27, 69134, Note_on_c, 9, 35, 0
27, 69480, Note_on_c, 9, 35, 102
27, 69494, Note_on_c, 9, 35, 0
27, 69600, Note_on_c, 9, 35, 112
27, 69614, Note_on_c, 9, 35, 0
27, 69840, Note_on_c, 9, 35, 112
27, 69854, Note_on_c, 9, 35, 0
27, 70200, Note_on_c, 9, 35, 102
27, 70214, Note_on_c, 9, 35, 0
27, 70320, Note_on_c, 9, 35, 112
27, 70334, Note_on_c, 9, 35, 0
27, 70560, Note_on_c, 9, 35, 112
27, 70574, Note_on_c, 9, 35, 0
27, 70920, Note_on_c, 9, 35, 102
27, 70934, Note_on_c, 9, 35, 0
27, 71040, Note_on_c, 9, 35, 112
27, 71054, Note_on_c, 9, 35, 0
27, 71280, Note_on_c, 9, 35, 112
27, 71294, Note_on_c, 9, 35, 0
27, 71640, Note_on_c, 9, 35, 102
27, 71654, Note_on_c, 9, 35, 0
27, 71760, Note_on_c, 9, 35, 112
27, 71774, Note_on_c, 9, 35, 0
27, 72000, Note_on_c, 9, 35, 112
27, 72014, Note_on_c, 9, 35, 0
27, 72360, Note_on_c, 9, 35, 112
27, 72374, Note_on_c, 9, 35, 0
27, 72480, Note_on_c, 9, 35, 112
27, 72494, Note_on_c, 9, 35, 0
27, 72720, Note_on_c, 9, 35, 112
27, 72734, Note_on_c, 9, 35, 0
27, 72900, Note_on_c, 9, 35, 112
27, 72914, Note_on_c, 9, 35, 0
27, 73080, Note_on_c, 9, 35, 112
27, 73094, Note_on_c, 9, 35, 0
27, 73260, Note_on_c, 9, 35, 112
27, 73274, Note_on_c, 9, 35, 0
27, 73440, Note_on_c, 9, 35, 112
27, 73454, Note_on_c, 9, 35, 0
27, 73800, Note_on_c, 9, 35, 112
27, 73814, Note_on_c, 9, 35, 0
27, 73920, Note_on_c, 9, 35, 112
27, 73934, Note_on_c, 9, 35, 0
27, 74160, Note_on_c, 9, 35, 112
27, 74174, Note_on_c, 9, 35, 0
27, 74520, Note_on_c, 9, 35, 112
27, 74534, Note_on_c, 9, 35, 0
27, 74880, Note_on_c, 9, 35, 112
27, 74894, Note_on_c, 9, 35, 0
27, 75240, Note_on_c, 9, 35, 102
27, 75254, Note_on_c, 9, 35, 0
27, 75360, Note_on_c, 9, 35, 112
27, 75374, Note_on_c, 9, 35, 0
27, 75600, Note_on_c, 9, 35, 112
27, 75614, Note_on_c, 9, 35, 0
27, 75960, Note_on_c, 9, 35, 102
27, 75974, Note_on_c, 9, 35, 0
27, 76080, Note_on_c, 9, 35, 112
27, 76094, Note_on_c, 9, 35, 0
27, 76320, Note_on_c, 9, 35, 112
27, 76334, Note_on_c, 9, 35, 0
27, 76680, Note_on_c, 9, 35, 102
27, 76694, Note_on_c, 9, 35, 0
27, 76800, Note_on_c, 9, 35, 112
27, 76814, Note_on_c, 9, 35, 0
27, 77040, Note_on_c, 9, 35, 112
27, 77054, Note_on_c, 9, 35, 0
27, 77400, Note_on_c, 9, 35, 102
27, 77414, Note_on_c, 9, 35, 0
27, 77520, Note_on_c, 9, 35, 112
27, 77534, Note_on_c, 9, 35, 0
27, 77760, Note_on_c, 9, 35, 112
27, 77774, Note_on_c, 9, 35, 0
27, 78120, Note_on_c, 9, 35, 102
27, 78134, Note_on_c, 9, 35, 0
27, 78240, Note_on_c, 9, 35, 112
27, 78254, Note_on_c, 9, 35, 0
27, 78480, Note_on_c, 9, 35, 112
27, 78494, Note_on_c, 9, 35, 0
27, 78840, Note_on_c, 9, 35, 102
27, 78854, Note_on_c, 9, 35, 0
27, 78960, Note_on_c, 9, 35, 112
27, 78974, Note_on_c, 9, 35, 0
27, 79200, Note_on_c, 9, 35, 112
27, 79214, Note_on_c, 9, 35, 0
27, 79560, Note_on_c, 9, 35, 102
27, 79574, Note_on_c, 9, 35, 0
27, 79680, Note_on_c, 9, 35, 112
27, 79694, Note_on_c, 9, 35, 0
27, 79920, Note_on_c, 9, 35, 112
27, 79934, Note_on_c, 9, 35, 0
27, 80280, Note_on_c, 9, 35, 102
27, 80294, Note_on_c, 9, 35, 0
27, 80400, Note_on_c, 9, 35, 112
27, 80414, Note_on_c, 9, 35, 0
27, 80520, Note_on_c, 9, 35, 102
27, 80534, Note_on_c, 9, 35, 0
27, 80640, Note_on_c, 9, 35, 112
27, 80654, Note_on_c, 9, 35, 0
27, 81000, Note_on_c, 9, 35, 102
27, 81014, Note_on_c, 9, 35, 0
27, 81120, Note_on_c, 9, 35, 112
27, 81134, Note_on_c, 9, 35, 0
27, 81360, Note_on_c, 9, 35, 112
27, 81374, Note_on_c, 9, 35, 0
27, 81720, Note_on_c, 9, 35, 102
27, 81734, Note_on_c, 9, 35, 0
27, 81840, Note_on_c, 9, 35, 112
27, 81854, Note_on_c, 9, 35, 0
27, 82080, Note_on_c, 9, 35, 112
27, 82094, Note_on_c, 9, 35, 0
27, 82440, Note_on_c, 9, 35, 102
27, 82454, Note_on_c, 9, 35, 0
27, 82560, Note_on_c, 9, 35, 112
27, 82574, Note_on_c, 9, 35, 0
27, 82800, Note_on_c, 9, 35, 112
27, 82814, Note_on_c, 9, 35, 0
27, 83160, Note_on_c, 9, 35, 102
27, 83174, Note_on_c, 9, 35, 0
27, 83280, Note_on_c, 9, 35, 112
27, 83294, Note_on_c, 9, 35, 0
27, 83520, Note_on_c, 9, 35, 112
27, 83534, Note_on_c, 9, 35, 0
27, 83880, Note_on_c, 9, 35, 102
27, 83894, Note_on_c, 9, 35, 0
27, 84000, Note_on_c, 9, 35, 112
27, 84014, Note_on_c, 9, 35, 0
27, 84240, Note_on_c, 9, 35, 112
27, 84254, Note_on_c, 9, 35, 0
27, 84600, Note_on_c, 9, 35, 102
27, 84614, Note_on_c, 9, 35, 0
27, 84720, Note_on_c, 9, 35, 112
27, 84734, Note_on_c, 9, 35, 0
27, 84840, Note_on_c, 9, 35, 112
27, 84854, Note_on_c, 9, 35, 0
27, 84960, Note_on_c, 9, 35, 112
27, 84974, Note_on_c, 9, 35, 0
27, 85260, Note_on_c, 9, 35, 112
27, 85274, Note_on_c, 9, 35, 0
27, 85620, Note_on_c, 9, 35, 112
27, 85634, Note_on_c, 9, 35, 0
27, 85980, Note_on_c, 9, 35, 112
27, 85994, Note_on_c, 9, 35, 0
27, 86160, Note_on_c, 9, 35, 112
27, 86174, Note_on_c, 9, 35, 0
27, 86220, Note_on_c, 9, 35, 102
27, 86234, Note_on_c, 9, 35, 0
27, 86340, Note_on_c, 9, 35, 112
27, 86354, Note_on_c, 9, 35, 0
27, 86400, Note_on_c, 9, 35, 112
27, 86414, Note_on_c, 9, 35, 0
27, 86760, Note_on_c, 9, 35, 102
27, 86774, Note_on_c, 9, 35, 0
27, 86880, Note_on_c, 9, 35, 112
27, 86894, Note_on_c, 9, 35, 0
27, 87120, Note_on_c, 9, 35, 112
27, 87134, Note_on_c, 9, 35, 0
27, 87480, Note_on_c, 9, 35, 102
27, 87494, Note_on_c, 9, 35, 0
27, 87600, Note_on_c, 9, 35, 112
27, 87614, Note_on_c, 9, 35, 0
27, 87840, Note_on_c, 9, 35, 112
27, 87854, Note_on_c, 9, 35, 0
27, 88200, Note_on_c, 9, 35, 102
27, 88214, Note_on_c, 9, 35, 0
27, 88320, Note_on_c, 9, 35, 112
27, 88334, Note_on_c, 9, 35, 0
27, 88560, Note_on_c, 9, 35, 112
27, 88574, Note_on_c, 9, 35, 0
27, 88920, Note_on_c, 9, 35, 102
27, 88934, Note_on_c, 9, 35, 0
27, 89040, Note_on_c, 9, 35, 112
27, 89054, Note_on_c, 9, 35, 0
27, 89280, Note_on_c, 9, 35, 112
27, 89294, Note_on_c, 9, 35, 0
27, 89640, Note_on_c, 9, 35, 112
27, 89654, Note_on_c, 9, 35, 0
27, 89760, Note_on_c, 9, 35, 112
27, 89774, Note_on_c, 9, 35, 0
27, 90000, Note_on_c, 9, 35, 112
27, 90014, Note_on_c, 9, 35, 0
27, 90180, Note_on_c, 9, 35, 112
27, 90194, Note_on_c, 9, 35, 0
27, 90360, Note_on_c, 9, 35, 112
27, 90374, Note_on_c, 9, 35, 0
27, 90540, Note_on_c, 9, 35, 112
27, 90554, Note_on_c, 9, 35, 0
27, 90720, Note_on_c, 9, 35, 112
27, 90734, Note_on_c, 9, 35, 0
27, 91080, Note_on_c, 9, 35, 112
27, 91094, Note_on_c, 9, 35, 0
27, 91200, Note_on_c, 9, 35, 112
27, 91214, Note_on_c, 9, 35, 0
27, 91440, Note_on_c, 9, 35, 112
27, 91454, Note_on_c, 9, 35, 0
27, 91620, Note_on_c, 9, 35, 112
27, 91634, Note_on_c, 9, 35, 0
27, 91800, Note_on_c, 9, 35, 112
27, 91814, Note_on_c, 9, 35, 0
27, 91980, Note_on_c, 9, 35, 112
27, 91994, Note_on_c, 9, 35, 0
27, 92160, Note_on_c, 9, 35, 112
27, 92174, Note_on_c, 9, 35, 0
27, 92520, Note_on_c, 9, 35, 102
27, 92534, Note_on_c, 9, 35, 0
27, 92640, Note_on_c, 9, 35, 112
27, 92654, Note_on_c, 9, 35, 0
27, 92880, Note_on_c, 9, 35, 112
27, 92894, Note_on_c, 9, 35, 0
27, 93240, Note_on_c, 9, 35, 102
27, 93254, Note_on_c, 9, 35, 0
27, 93360, Note_on_c, 9, 35, 112
27, 93374, Note_on_c, 9, 35, 0
27, 93600, Note_on_c, 9, 35, 112
27, 93614, Note_on_c, 9, 35, 0
27, 93960, Note_on_c, 9, 35, 102
27, 93974, Note_on_c, 9, 35, 0
27, 94080, Note_on_c, 9, 35, 112
27, 94094, Note_on_c, 9, 35, 0
27, 94320, Note_on_c, 9, 35, 112
27, 94334, Note_on_c, 9, 35, 0
27, 94680, Note_on_c, 9, 35, 102
27, 94694, Note_on_c, 9, 35, 0
27, 94800, Note_on_c, 9, 35, 112
27, 94814, Note_on_c, 9, 35, 0
27, 95040, Note_on_c, 9, 35, 112
27, 95054, Note_on_c, 9, 35, 0
27, 95400, Note_on_c, 9, 35, 112
27, 95414, Note_on_c, 9, 35, 0
27, 95520, Note_on_c, 9, 35, 112
27, 95534, Note_on_c, 9, 35, 0
27, 95760, Note_on_c, 9, 35, 112
27, 95774, Note_on_c, 9, 35, 0
27, 95940, Note_on_c, 9, 35, 112
27, 95954, Note_on_c, 9, 35, 0
27, 96120, Note_on_c, 9, 35, 112
27, 96134, Note_on_c, 9, 35, 0
27, 96300, Note_on_c, 9, 35, 112
27, 96314, Note_on_c, 9, 35, 0
27, 96480, Note_on_c, 9, 35, 112
27, 96480, Note_on_c, 9, 35, 112
27, 96494, Note_on_c, 9, 35, 0
27, 96494, Note_on_c, 9, 35, 0
27, 96840, Note_on_c, 9, 35, 102
27, 96840, Note_on_c, 9, 35, 112
27, 96854, Note_on_c, 9, 35, 0
27, 96854, Note_on_c, 9, 35, 0
27, 96960, Note_on_c, 9, 35, 112
27, 96960, Note_on_c, 9, 35, 112
27, 96974, Note_on_c, 9, 35, 0
27, 96974, Note_on_c, 9, 35, 0
27, 97200, Note_on_c, 9, 35, 112
27, 97214, Note_on_c, 9, 35, 0
27, 97560, Note_on_c, 9, 35, 102
27, 97574, Note_on_c, 9, 35, 0
27, 97680, Note_on_c, 9, 35, 112
27, 97694, Note_on_c, 9, 35, 0
27, 97920, Note_on_c, 9, 35, 112
27, 97934, Note_on_c, 9, 35, 0
27, 98280, Note_on_c, 9, 35, 102
27, 98294, Note_on_c, 9, 35, 0
27, 98400, Note_on_c, 9, 35, 112
27, 98414, Note_on_c, 9, 35, 0
27, 98640, Note_on_c, 9, 35, 112
27, 98654, Note_on_c, 9, 35, 0
27, 99000, Note_on_c, 9, 35, 102
27, 99014, Note_on_c, 9, 35, 0
27, 99120, Note_on_c, 9, 35, 112
27, 99134, Note_on_c, 9, 35, 0
27, 99360, Note_on_c, 9, 35, 112
27, 99374, Note_on_c, 9, 35, 0
27, 99720, Note_on_c, 9, 35, 102
27, 99734, Note_on_c, 9, 35, 0
27, 99840, Note_on_c, 9, 35, 112
27, 99854, Note_on_c, 9, 35, 0
27, 100080, Note_on_c, 9, 35, 112
27, 100094, Note_on_c, 9, 35, 0
27, 100440, Note_on_c, 9, 35, 102
27, 100454, Note_on_c, 9, 35, 0
27, 100560, Note_on_c, 9, 35, 112
27, 100574, Note_on_c, 9, 35, 0
27, 100800, Note_on_c, 9, 35, 112
27, 100814, Note_on_c, 9, 35, 0
27, 101160, Note_on_c, 9, 35, 112
27, 101174, Note_on_c, 9, 35, 0
27, 101280, Note_on_c, 9, 35, 112
27, 101294, Note_on_c, 9, 35, 0
27, 101520, Note_on_c, 9, 35, 112
27, 101534, Note_on_c, 9, 35, 0
27, 101700, Note_on_c, 9, 35, 112
27, 101714, Note_on_c, 9, 35, 0
27, 101880, Note_on_c, 9, 35, 112
27, 101894, Note_on_c, 9, 35, 0
27, 102060, Note_on_c, 9, 35, 112
27, 102074, Note_on_c, 9, 35, 0
27, 102240, Note_on_c, 9, 35, 112
27, 102254, Note_on_c, 9, 35, 0
27, 102600, Note_on_c, 9, 35, 112
27, 102614, Note_on_c, 9, 35, 0
27, 102720, Note_on_c, 9, 35, 112
27, 102734, Note_on_c, 9, 35, 0
27, 102960, Note_on_c, 9, 35, 112
27, 102974, Note_on_c, 9, 35, 0
27, 103320, Note_on_c, 9, 35, 102
27, 103334, Note_on_c, 9, 35, 0
27, 103440, Note_on_c, 9, 35, 112
27, 103454, Note_on_c, 9, 35, 0
27, 103680, Note_on_c, 9, 35, 112
27, 103694, Note_on_c, 9, 35, 0
27, 104040, Note_on_c, 9, 35, 102
27, 104054, Note_on_c, 9, 35, 0
27, 104160, Note_on_c, 9, 35, 112
27, 104174, Note_on_c, 9, 35, 0
27, 104400, Note_on_c, 9, 35, 112
27, 104414, Note_on_c, 9, 35, 0
27, 104760, Note_on_c, 9, 35, 102
27, 104774, Note_on_c, 9, 35, 0
27, 104880, Note_on_c, 9, 35, 112
27, 104894, Note_on_c, 9, 35, 0
27, 105120, Note_on_c, 9, 35, 112
27, 105134, Note_on_c, 9, 35, 0
27, 105480, Note_on_c, 9, 35, 102
27, 105494, Note_on_c, 9, 35, 0
27, 105600, Note_on_c, 9, 35, 112
27, 105614, Note_on_c, 9, 35, 0
27, 105840, Note_on_c, 9, 35, 112
27, 105854, Note_on_c, 9, 35, 0
27, 106200, Note_on_c, 9, 35, 102
27, 106214, Note_on_c, 9, 35, 0
27, 106320, Note_on_c, 9, 35, 112
27, 106334, Note_on_c, 9, 35, 0
27, 106560, Note_on_c, 9, 35, 112
27, 106574, Note_on_c, 9, 35, 0
27, 106920, Note_on_c, 9, 35, 112
27, 106934, Note_on_c, 9, 35, 0
27, 107040, Note_on_c, 9, 35, 112
27, 107054, Note_on_c, 9, 35, 0
27, 107280, Note_on_c, 9, 35, 112
27, 107294, Note_on_c, 9, 35, 0
27, 107460, Note_on_c, 9, 35, 112
27, 107474, Note_on_c, 9, 35, 0
27, 107640, Note_on_c, 9, 35, 112
27, 107654, Note_on_c, 9, 35, 0
27, 107820, Note_on_c, 9, 35, 112
27, 107834, Note_on_c, 9, 35, 0
27, 108000, Note_on_c, 9, 35, 112
27, 108014, Note_on_c, 9, 35, 0
27, 108360, Note_on_c, 9, 35, 112
27, 108374, Note_on_c, 9, 35, 0
27, 108480, Note_on_c, 9, 35, 112
27, 108494, Note_on_c, 9, 35, 0
27, 108720, Note_on_c, 9, 35, 112
27, 108734, Note_on_c, 9, 35, 0
27, 109080, Note_on_c, 9, 35, 102
27, 109094, Note_on_c, 9, 35, 0
27, 109200, Note_on_c, 9, 35, 112
27, 109214, Note_on_c, 9, 35, 0
27, 109440, Note_on_c, 9, 35, 112
27, 109454, Note_on_c, 9, 35, 0
27, 109800, Note_on_c, 9, 35, 102
27, 109814, Note_on_c, 9, 35, 0
27, 109920, Note_on_c, 9, 35, 112
27, 109934, Note_on_c, 9, 35, 0
27, 110160, Note_on_c, 9, 35, 112
27, 110174, Note_on_c, 9, 35, 0
27, 110520, Note_on_c, 9, 35, 102
27, 110534, Note_on_c, 9, 35, 0
27, 110640, Note_on_c, 9, 35, 112
27, 110654, Note_on_c, 9, 35, 0
27, 110880, Note_on_c, 9, 35, 112
27, 110894, Note_on_c, 9, 35, 0
27, 111240, Note_on_c, 9, 35, 102
27, 111254, Note_on_c, 9, 35, 0
27, 111360, Note_on_c, 9, 35, 112
27, 111374, Note_on_c, 9, 35, 0
27, 111600, Note_on_c, 9, 35, 112
27, 111614, Note_on_c, 9, 35, 0
27, 111960, Note_on_c, 9, 35, 102
27, 111974, Note_on_c, 9, 35, 0
27, 112080, Note_on_c, 9, 35, 112
27, 112094, Note_on_c, 9, 35, 0
27, 112320, Note_on_c, 9, 35, 112
27, 112334, Note_on_c, 9, 35, 0
27, 112680, Note_on_c, 9, 35, 112
27, 112694, Note_on_c, 9, 35, 0
27, 112800, Note_on_c, 9, 35, 112
27, 112814, Note_on_c, 9, 35, 0
27, 113040, Note_on_c, 9, 35, 112
27, 113054, Note_on_c, 9, 35, 0
27, 113220, Note_on_c, 9, 35, 112
27, 113234, Note_on_c, 9, 35, 0
27, 113400, Note_on_c, 9, 35, 112
27, 113414, Note_on_c, 9, 35, 0
27, 113580, Note_on_c, 9, 35, 112
27, 113594, Note_on_c, 9, 35, 0
27, 113760, Note_on_c, 9, 35, 112
27, 113774, Note_on_c, 9, 35, 0
27, 114120, Note_on_c, 9, 35, 112
27, 114134, Note_on_c, 9, 35, 0
27, 114240, Note_on_c, 9, 35, 112
27, 114254, Note_on_c, 9, 35, 0
27, 114480, Note_on_c, 9, 35, 112
27, 114494, Note_on_c, 9, 35, 0
27, 114840, Note_on_c, 9, 35, 102
27, 114854, Note_on_c, 9, 35, 0
27, 114960, Note_on_c, 9, 35, 112
27, 114974, Note_on_c, 9, 35, 0
27, 115200, Note_on_c, 9, 35, 112
27, 115214, Note_on_c, 9, 35, 0
27, 115560, Note_on_c, 9, 35, 102
27, 115574, Note_on_c, 9, 35, 0
27, 115680, Note_on_c, 9, 35, 112
27, 115694, Note_on_c, 9, 35, 0
27, 115920, Note_on_c, 9, 35, 112
27, 115934, Note_on_c, 9, 35, 0
27, 116280, Note_on_c, 9, 35, 102
27, 116294, Note_on_c, 9, 35, 0
27, 116400, Note_on_c, 9, 35, 112
27, 116414, Note_on_c, 9, 35, 0
27, 116640, Note_on_c, 9, 35, 112
27, 116654, Note_on_c, 9, 35, 0
27, 117000, Note_on_c, 9, 35, 102
27, 117014, Note_on_c, 9, 35, 0
27, 117120, Note_on_c, 9, 35, 112
27, 117134, Note_on_c, 9, 35, 0
27, 117360, Note_on_c, 9, 35, 112
27, 117374, Note_on_c, 9, 35, 0
27, 117720, Note_on_c, 9, 35, 102
27, 117734, Note_on_c, 9, 35, 0
27, 117840, Note_on_c, 9, 35, 112
27, 117854, Note_on_c, 9, 35, 0
27, 118080, Note_on_c, 9, 35, 112
27, 118094, Note_on_c, 9, 35, 0
27, 118440, Note_on_c, 9, 35, 112
27, 118454, Note_on_c, 9, 35, 0
27, 118560, Note_on_c, 9, 35, 112
27, 118574, Note_on_c, 9, 35, 0
27, 118800, Note_on_c, 9, 35, 112
27, 118814, Note_on_c, 9, 35, 0
27, 118980, Note_on_c, 9, 35, 112
27, 118994, Note_on_c, 9, 35, 0
27, 119160, Note_on_c, 9, 35, 112
27, 119174, Note_on_c, 9, 35, 0
27, 119340, Note_on_c, 9, 35, 112
27, 119354, Note_on_c, 9, 35, 0
27, 119520, Note_on_c, 9, 35, 112
27, 119534, Note_on_c, 9, 35, 0
27, 119880, Note_on_c, 9, 35, 112
27, 119894, Note_on_c, 9, 35, 0
27, 120000, Note_on_c, 9, 35, 112
27, 120014, Note_on_c, 9, 35, 0
27, 120240, Note_on_c, 9, 35, 112
27, 120254, Note_on_c, 9, 35, 0
27, 120600, Note_on_c, 9, 35, 102
27, 120614, Note_on_c, 9, 35, 0
27, 120720, Note_on_c, 9, 35, 112
27, 120734, Note_on_c, 9, 35, 0
27, 120734, End_track
28, 0, Start_track
28, 0, MIDI_port, 0
28, 0, Title_t, "  Snare"
28, 1620, Note_on_c, 9, 40, 116
28, 1634, Note_on_c, 9, 40, 0
28, 1980, Note_on_c, 9, 40, 116
28, 1994, Note_on_c, 9, 40, 0
28, 2340, Note_on_c, 9, 40, 116
28, 2354, Note_on_c, 9, 40, 0
28, 2700, Note_on_c, 9, 40, 116
28, 2714, Note_on_c, 9, 40, 0
28, 3060, Note_on_c, 9, 40, 116
28, 3074, Note_on_c, 9, 40, 0
28, 3420, Note_on_c, 9, 40, 116
28, 3434, Note_on_c, 9, 40, 0
28, 3780, Note_on_c, 9, 40, 116
28, 3794, Note_on_c, 9, 40, 0
28, 4140, Note_on_c, 9, 40, 116
28, 4154, Note_on_c, 9, 40, 0
28, 4500, Note_on_c, 9, 40, 116
28, 4514, Note_on_c, 9, 40, 0
28, 4860, Note_on_c, 9, 40, 116
28, 4874, Note_on_c, 9, 40, 0
28, 5220, Note_on_c, 9, 40, 116
28, 5234, Note_on_c, 9, 40, 0
28, 5580, Note_on_c, 9, 40, 116
28, 5594, Note_on_c, 9, 40, 0
28, 5940, Note_on_c, 9, 40, 116
28, 5954, Note_on_c, 9, 40, 0
28, 6300, Note_on_c, 9, 40, 116
28, 6314, Note_on_c, 9, 40, 0
28, 6660, Note_on_c, 9, 40, 116
28, 6674, Note_on_c, 9, 40, 0
28, 7020, Note_on_c, 9, 40, 106
28, 7034, Note_on_c, 9, 40, 0
28, 7080, Note_on_c, 9, 40, 121
28, 7094, Note_on_c, 9, 40, 0
28, 7140, Note_on_c, 9, 40, 96
28, 7154, Note_on_c, 9, 40, 0
28, 7380, Note_on_c, 9, 40, 116
28, 7394, Note_on_c, 9, 40, 0
28, 7740, Note_on_c, 9, 40, 116
28, 7754, Note_on_c, 9, 40, 0
28, 8100, Note_on_c, 9, 40, 116
28, 8114, Note_on_c, 9, 40, 0
28, 8460, Note_on_c, 9, 40, 116
28, 8474, Note_on_c, 9, 40, 0
28, 8820, Note_on_c, 9, 40, 116
28, 8834, Note_on_c, 9, 40, 0
28, 9180, Note_on_c, 9, 40, 116
28, 9194, Note_on_c, 9, 40, 0
28, 9540, Note_on_c, 9, 40, 116
28, 9554, Note_on_c, 9, 40, 0
28, 9900, Note_on_c, 9, 40, 116
28, 9914, Note_on_c, 9, 40, 0
28, 10260, Note_on_c, 9, 40, 116
28, 10274, Note_on_c, 9, 40, 0
28, 10620, Note_on_c, 9, 40, 116
28, 10634, Note_on_c, 9, 40, 0
28, 10980, Note_on_c, 9, 40, 116
28, 10994, Note_on_c, 9, 40, 0
28, 11340, Note_on_c, 9, 40, 116
28, 11354, Note_on_c, 9, 40, 0
28, 11700, Note_on_c, 9, 40, 116
28, 11714, Note_on_c, 9, 40, 0
28, 12060, Note_on_c, 9, 40, 116
28, 12074, Note_on_c, 9, 40, 0
28, 12420, Note_on_c, 9, 40, 116
28, 12434, Note_on_c, 9, 40, 0
28, 12780, Note_on_c, 9, 40, 116
28, 12794, Note_on_c, 9, 40, 0
28, 13140, Note_on_c, 9, 40, 116
28, 13154, Note_on_c, 9, 40, 0
28, 13500, Note_on_c, 9, 40, 116
28, 13514, Note_on_c, 9, 40, 0
28, 13860, Note_on_c, 9, 40, 116
28, 13874, Note_on_c, 9, 40, 0
28, 14220, Note_on_c, 9, 40, 116
28, 14234, Note_on_c, 9, 40, 0
28, 14580, Note_on_c, 9, 40, 116
28, 14594, Note_on_c, 9, 40, 0
28, 14940, Note_on_c, 9, 40, 116
28, 14954, Note_on_c, 9, 40, 0
28, 15300, Note_on_c, 9, 40, 116
28, 15314, Note_on_c, 9, 40, 0
28, 15660, Note_on_c, 9, 40, 116
28, 15674, Note_on_c, 9, 40, 0
28, 16020, Note_on_c, 9, 40, 116
28, 16034, Note_on_c, 9, 40, 0
28, 16380, Note_on_c, 9, 40, 116
28, 16394, Note_on_c, 9, 40, 0
28, 16740, Note_on_c, 9, 40, 116
28, 16754, Note_on_c, 9, 40, 0
28, 17040, Note_on_c, 9, 40, 88
28, 17054, Note_on_c, 9, 40, 0
28, 17460, Note_on_c, 9, 40, 116
28, 17474, Note_on_c, 9, 40, 0
28, 17820, Note_on_c, 9, 40, 116
28, 17834, Note_on_c, 9, 40, 0
28, 18180, Note_on_c, 9, 40, 116
28, 18194, Note_on_c, 9, 40, 0
28, 18540, Note_on_c, 9, 40, 116
28, 18554, Note_on_c, 9, 40, 0
28, 18900, Note_on_c, 9, 40, 116
28, 18914, Note_on_c, 9, 40, 0
28, 19260, Note_on_c, 9, 40, 116
28, 19274, Note_on_c, 9, 40, 0
28, 19620, Note_on_c, 9, 40, 116
28, 19634, Note_on_c, 9, 40, 0
28, 19980, Note_on_c, 9, 40, 116
28, 19994, Note_on_c, 9, 40, 0
28, 20340, Note_on_c, 9, 40, 116
28, 20354, Note_on_c, 9, 40, 0
28, 20700, Note_on_c, 9, 40, 116
28, 20714, Note_on_c, 9, 40, 0
28, 21060, Note_on_c, 9, 40, 116
28, 21074, Note_on_c, 9, 40, 0
28, 21420, Note_on_c, 9, 40, 116
28, 21434, Note_on_c, 9, 40, 0
28, 21780, Note_on_c, 9, 40, 116
28, 21794, Note_on_c, 9, 40, 0
28, 22140, Note_on_c, 9, 40, 116
28, 22154, Note_on_c, 9, 40, 0
28, 22500, Note_on_c, 9, 40, 116
28, 22514, Note_on_c, 9, 40, 0
28, 22860, Note_on_c, 9, 40, 116
28, 22874, Note_on_c, 9, 40, 0
28, 23220, Note_on_c, 9, 40, 116
28, 23234, Note_on_c, 9, 40, 0
28, 23580, Note_on_c, 9, 40, 116
28, 23594, Note_on_c, 9, 40, 0
28, 23940, Note_on_c, 9, 40, 116
28, 23954, Note_on_c, 9, 40, 0
28, 24300, Note_on_c, 9, 40, 116
28, 24314, Note_on_c, 9, 40, 0
28, 24660, Note_on_c, 9, 40, 116
28, 24674, Note_on_c, 9, 40, 0
28, 25020, Note_on_c, 9, 40, 116
28, 25034, Note_on_c, 9, 40, 0
28, 25380, Note_on_c, 9, 40, 116
28, 25394, Note_on_c, 9, 40, 0
28, 25740, Note_on_c, 9, 40, 116
28, 25754, Note_on_c, 9, 40, 0
28, 26100, Note_on_c, 9, 40, 116
28, 26114, Note_on_c, 9, 40, 0
28, 26460, Note_on_c, 9, 40, 116
28, 26474, Note_on_c, 9, 40, 0
28, 26820, Note_on_c, 9, 40, 116
28, 26834, Note_on_c, 9, 40, 0
28, 27180, Note_on_c, 9, 40, 116
28, 27194, Note_on_c, 9, 40, 0
28, 27540, Note_on_c, 9, 40, 116
28, 27554, Note_on_c, 9, 40, 0
28, 27900, Note_on_c, 9, 40, 116
28, 27914, Note_on_c, 9, 40, 0
28, 28260, Note_on_c, 9, 40, 116
28, 28274, Note_on_c, 9, 40, 0
28, 28620, Note_on_c, 9, 40, 116
28, 28634, Note_on_c, 9, 40, 0
28, 28980, Note_on_c, 9, 40, 116
28, 28994, Note_on_c, 9, 40, 0
28, 29340, Note_on_c, 9, 40, 116
28, 29354, Note_on_c, 9, 40, 0
28, 29700, Note_on_c, 9, 40, 116
28, 29714, Note_on_c, 9, 40, 0
28, 30060, Note_on_c, 9, 40, 116
28, 30074, Note_on_c, 9, 40, 0
28, 30420, Note_on_c, 9, 40, 116
28, 30434, Note_on_c, 9, 40, 0
28, 30780, Note_on_c, 9, 40, 116
28, 30794, Note_on_c, 9, 40, 0
28, 31140, Note_on_c, 9, 40, 116
28, 31154, Note_on_c, 9, 40, 0
28, 31500, Note_on_c, 9, 40, 96
28, 31514, Note_on_c, 9, 40, 0
28, 31558, Note_on_c, 9, 40, 116
28, 31572, Note_on_c, 9, 40, 0
28, 31614, Note_on_c, 9, 40, 116
28, 31628, Note_on_c, 9, 40, 0
28, 31860, Note_on_c, 9, 40, 116
28, 31874, Note_on_c, 9, 40, 0
28, 32220, Note_on_c, 9, 40, 116
28, 32234, Note_on_c, 9, 40, 0
28, 32580, Note_on_c, 9, 40, 116
28, 32594, Note_on_c, 9, 40, 0
28, 32940, Note_on_c, 9, 40, 116
28, 32954, Note_on_c, 9, 40, 0
28, 33300, Note_on_c, 9, 40, 116
28, 33314, Note_on_c, 9, 40, 0
28, 33660, Note_on_c, 9, 40, 116
28, 33674, Note_on_c, 9, 40, 0
28, 34020, Note_on_c, 9, 40, 116
28, 34034, Note_on_c, 9, 40, 0
28, 34380, Note_on_c, 9, 40, 116
28, 34394, Note_on_c, 9, 40, 0
28, 34740, Note_on_c, 9, 40, 116
28, 34754, Note_on_c, 9, 40, 0
28, 35100, Note_on_c, 9, 40, 116
28, 35114, Note_on_c, 9, 40, 0
28, 35460, Note_on_c, 9, 40, 116
28, 35474, Note_on_c, 9, 40, 0
28, 35820, Note_on_c, 9, 40, 116
28, 35834, Note_on_c, 9, 40, 0
28, 36180, Note_on_c, 9, 40, 116
28, 36194, Note_on_c, 9, 40, 0
28, 36540, Note_on_c, 9, 40, 116
28, 36554, Note_on_c, 9, 40, 0
28, 36900, Note_on_c, 9, 40, 116
28, 36914, Note_on_c, 9, 40, 0
28, 37260, Note_on_c, 9, 40, 116
28, 37274, Note_on_c, 9, 40, 0
28, 48840, Note_on_c, 9, 40, 96
28, 48854, Note_on_c, 9, 40, 0
28, 48900, Note_on_c, 9, 40, 96
28, 48914, Note_on_c, 9, 40, 0
28, 49140, Note_on_c, 9, 40, 116
28, 49154, Note_on_c, 9, 40, 0
28, 49500, Note_on_c, 9, 40, 116
28, 49514, Note_on_c, 9, 40, 0
28, 49860, Note_on_c, 9, 40, 116
28, 49874, Note_on_c, 9, 40, 0
28, 50220, Note_on_c, 9, 40, 116
28, 50234, Note_on_c, 9, 40, 0
28, 50580, Note_on_c, 9, 40, 116
28, 50594, Note_on_c, 9, 40, 0
28, 50940, Note_on_c, 9, 40, 116
28, 50954, Note_on_c, 9, 40, 0
28, 51300, Note_on_c, 9, 40, 116
28, 51314, Note_on_c, 9, 40, 0
28, 51660, Note_on_c, 9, 40, 116
28, 51674, Note_on_c, 9, 40, 0
28, 52020, Note_on_c, 9, 40, 116
28, 52034, Note_on_c, 9, 40, 0
28, 52380, Note_on_c, 9, 40, 116
28, 52394, Note_on_c, 9, 40, 0
28, 52740, Note_on_c, 9, 40, 116
28, 52754, Note_on_c, 9, 40, 0
28, 53100, Note_on_c, 9, 40, 116
28, 53114, Note_on_c, 9, 40, 0
28, 53460, Note_on_c, 9, 40, 116
28, 53474, Note_on_c, 9, 40, 0
28, 53820, Note_on_c, 9, 40, 116
28, 53834, Note_on_c, 9, 40, 0
28, 54180, Note_on_c, 9, 40, 116
28, 54194, Note_on_c, 9, 40, 0
28, 54540, Note_on_c, 9, 40, 116
28, 54554, Note_on_c, 9, 40, 0
28, 54900, Note_on_c, 9, 40, 116
28, 54914, Note_on_c, 9, 40, 0
28, 55260, Note_on_c, 9, 40, 116
28, 55274, Note_on_c, 9, 40, 0
28, 55620, Note_on_c, 9, 40, 116
28, 55634, Note_on_c, 9, 40, 0
28, 55980, Note_on_c, 9, 40, 116
28, 55994, Note_on_c, 9, 40, 0
28, 56340, Note_on_c, 9, 40, 116
28, 56354, Note_on_c, 9, 40, 0
28, 56700, Note_on_c, 9, 40, 116
28, 56714, Note_on_c, 9, 40, 0
28, 57060, Note_on_c, 9, 40, 116
28, 57074, Note_on_c, 9, 40, 0
28, 57420, Note_on_c, 9, 40, 116
28, 57434, Note_on_c, 9, 40, 0
28, 57780, Note_on_c, 9, 40, 116
28, 57794, Note_on_c, 9, 40, 0
28, 58140, Note_on_c, 9, 40, 116
28, 58154, Note_on_c, 9, 40, 0
28, 58500, Note_on_c, 9, 40, 116
28, 58514, Note_on_c, 9, 40, 0
28, 58860, Note_on_c, 9, 40, 116
28, 58874, Note_on_c, 9, 40, 0
28, 59220, Note_on_c, 9, 40, 116
28, 59234, Note_on_c, 9, 40, 0
28, 59580, Note_on_c, 9, 40, 116
28, 59594, Note_on_c, 9, 40, 0
28, 59940, Note_on_c, 9, 40, 116
28, 59954, Note_on_c, 9, 40, 0
28, 60300, Note_on_c, 9, 40, 116
28, 60314, Note_on_c, 9, 40, 0
28, 60660, Note_on_c, 9, 40, 116
28, 60674, Note_on_c, 9, 40, 0
28, 61020, Note_on_c, 9, 40, 116
28, 61034, Note_on_c, 9, 40, 0
28, 61380, Note_on_c, 9, 40, 116
28, 61394, Note_on_c, 9, 40, 0
28, 61740, Note_on_c, 9, 40, 116
28, 61754, Note_on_c, 9, 40, 0
28, 62100, Note_on_c, 9, 40, 116
28, 62114, Note_on_c, 9, 40, 0
28, 62460, Note_on_c, 9, 40, 116
28, 62474, Note_on_c, 9, 40, 0
28, 62820, Note_on_c, 9, 40, 116
28, 62834, Note_on_c, 9, 40, 0
28, 63180, Note_on_c, 9, 40, 116
28, 63194, Note_on_c, 9, 40, 0
28, 63540, Note_on_c, 9, 40, 116
28, 63554, Note_on_c, 9, 40, 0
28, 63900, Note_on_c, 9, 40, 116
28, 63914, Note_on_c, 9, 40, 0
28, 64260, Note_on_c, 9, 40, 116
28, 64274, Note_on_c, 9, 40, 0
28, 64620, Note_on_c, 9, 40, 116
28, 64634, Note_on_c, 9, 40, 0
28, 64980, Note_on_c, 9, 40, 116
28, 64994, Note_on_c, 9, 40, 0
28, 65340, Note_on_c, 9, 40, 116
28, 65354, Note_on_c, 9, 40, 0
28, 65700, Note_on_c, 9, 40, 116
28, 65714, Note_on_c, 9, 40, 0
28, 66060, Note_on_c, 9, 40, 116
28, 66074, Note_on_c, 9, 40, 0
28, 66420, Note_on_c, 9, 40, 116
28, 66434, Note_on_c, 9, 40, 0
28, 66780, Note_on_c, 9, 40, 116
28, 66794, Note_on_c, 9, 40, 0
28, 67140, Note_on_c, 9, 40, 116
28, 67154, Note_on_c, 9, 40, 0
28, 67500, Note_on_c, 9, 40, 116
28, 67514, Note_on_c, 9, 40, 0
28, 67860, Note_on_c, 9, 40, 116
28, 67874, Note_on_c, 9, 40, 0
28, 68220, Note_on_c, 9, 40, 116
28, 68234, Note_on_c, 9, 40, 0
28, 68940, Note_on_c, 9, 40, 116
28, 68954, Note_on_c, 9, 40, 0
28, 69300, Note_on_c, 9, 40, 116
28, 69314, Note_on_c, 9, 40, 0
28, 69660, Note_on_c, 9, 40, 116
28, 69674, Note_on_c, 9, 40, 0
28, 70020, Note_on_c, 9, 40, 116
28, 70034, Note_on_c, 9, 40, 0
28, 70380, Note_on_c, 9, 40, 116
28, 70394, Note_on_c, 9, 40, 0
28, 70740, Note_on_c, 9, 40, 116
28, 70754, Note_on_c, 9, 40, 0
28, 71100, Note_on_c, 9, 40, 116
28, 71114, Note_on_c, 9, 40, 0
28, 71460, Note_on_c, 9, 40, 116
28, 71474, Note_on_c, 9, 40, 0
28, 71820, Note_on_c, 9, 40, 116
28, 71834, Note_on_c, 9, 40, 0
28, 72180, Note_on_c, 9, 40, 116
28, 72194, Note_on_c, 9, 40, 0
28, 72540, Note_on_c, 9, 40, 116
28, 72554, Note_on_c, 9, 40, 0
28, 72900, Note_on_c, 9, 40, 116
28, 72914, Note_on_c, 9, 40, 0
28, 73260, Note_on_c, 9, 40, 116
28, 73274, Note_on_c, 9, 40, 0
28, 73620, Note_on_c, 9, 40, 116
28, 73634, Note_on_c, 9, 40, 0
28, 73917, Note_on_c, 9, 40, 72
28, 73931, Note_on_c, 9, 40, 0
28, 73980, Note_on_c, 9, 40, 124
28, 73984, Note_on_c, 9, 40, 127
28, 73994, Note_on_c, 9, 40, 0
28, 73998, Note_on_c, 9, 40, 0
28, 74340, Note_on_c, 9, 40, 116
28, 74354, Note_on_c, 9, 40, 0
28, 74700, Note_on_c, 9, 40, 116
28, 74714, Note_on_c, 9, 40, 0
28, 75060, Note_on_c, 9, 40, 116
28, 75074, Note_on_c, 9, 40, 0
28, 75420, Note_on_c, 9, 40, 116
28, 75434, Note_on_c, 9, 40, 0
28, 75780, Note_on_c, 9, 40, 116
28, 75794, Note_on_c, 9, 40, 0
28, 76140, Note_on_c, 9, 40, 116
28, 76154, Note_on_c, 9, 40, 0
28, 76500, Note_on_c, 9, 40, 116
28, 76514, Note_on_c, 9, 40, 0
28, 76860, Note_on_c, 9, 40, 116
28, 76874, Note_on_c, 9, 40, 0
28, 77220, Note_on_c, 9, 40, 116
28, 77234, Note_on_c, 9, 40, 0
28, 77580, Note_on_c, 9, 40, 116
28, 77594, Note_on_c, 9, 40, 0
28, 77940, Note_on_c, 9, 40, 116
28, 77954, Note_on_c, 9, 40, 0
28, 78300, Note_on_c, 9, 40, 116
28, 78314, Note_on_c, 9, 40, 0
28, 78660, Note_on_c, 9, 40, 116
28, 78674, Note_on_c, 9, 40, 0
28, 79020, Note_on_c, 9, 40, 116
28, 79034, Note_on_c, 9, 40, 0
28, 79380, Note_on_c, 9, 40, 116
28, 79394, Note_on_c, 9, 40, 0
28, 79740, Note_on_c, 9, 40, 116
28, 79754, Note_on_c, 9, 40, 0
28, 80100, Note_on_c, 9, 40, 116
28, 80114, Note_on_c, 9, 40, 0
28, 80460, Note_on_c, 9, 40, 116
28, 80474, Note_on_c, 9, 40, 0
28, 80820, Note_on_c, 9, 40, 116
28, 80834, Note_on_c, 9, 40, 0
28, 81180, Note_on_c, 9, 40, 116
28, 81194, Note_on_c, 9, 40, 0
28, 81540, Note_on_c, 9, 40, 116
28, 81554, Note_on_c, 9, 40, 0
28, 81900, Note_on_c, 9, 40, 116
28, 81914, Note_on_c, 9, 40, 0
28, 82260, Note_on_c, 9, 40, 116
28, 82274, Note_on_c, 9, 40, 0
28, 82620, Note_on_c, 9, 40, 116
28, 82634, Note_on_c, 9, 40, 0
28, 82980, Note_on_c, 9, 40, 116
28, 82994, Note_on_c, 9, 40, 0
28, 83340, Note_on_c, 9, 40, 116
28, 83354, Note_on_c, 9, 40, 0
28, 83700, Note_on_c, 9, 40, 116
28, 83714, Note_on_c, 9, 40, 0
28, 84060, Note_on_c, 9, 40, 116
28, 84074, Note_on_c, 9, 40, 0
28, 84420, Note_on_c, 9, 40, 116
28, 84434, Note_on_c, 9, 40, 0
28, 84724, Note_on_c, 9, 40, 86
28, 84738, Note_on_c, 9, 40, 0
28, 84782, Note_on_c, 9, 40, 126
28, 84788, Note_on_c, 9, 40, 126
28, 84796, Note_on_c, 9, 40, 0
28, 84802, Note_on_c, 9, 40, 0
28, 85140, Note_on_c, 9, 40, 116
28, 85154, Note_on_c, 9, 40, 0
28, 85500, Note_on_c, 9, 40, 116
28, 85514, Note_on_c, 9, 40, 0
28, 85860, Note_on_c, 9, 40, 116
28, 85874, Note_on_c, 9, 40, 0
28, 86220, Note_on_c, 9, 40, 116
28, 86226, Note_on_c, 9, 40, 116
28, 86234, Note_on_c, 9, 40, 0
28, 86240, Note_on_c, 9, 40, 0
28, 86580, Note_on_c, 9, 40, 116
28, 86594, Note_on_c, 9, 40, 0
28, 86940, Note_on_c, 9, 40, 116
28, 86954, Note_on_c, 9, 40, 0
28, 87300, Note_on_c, 9, 40, 116
28, 87314, Note_on_c, 9, 40, 0
28, 87660, Note_on_c, 9, 40, 116
28, 87674, Note_on_c, 9, 40, 0
28, 88020, Note_on_c, 9, 40, 116
28, 88034, Note_on_c, 9, 40, 0
28, 88380, Note_on_c, 9, 40, 116
28, 88394, Note_on_c, 9, 40, 0
28, 88740, Note_on_c, 9, 40, 116
28, 88754, Note_on_c, 9, 40, 0
28, 89100, Note_on_c, 9, 40, 116
28, 89114, Note_on_c, 9, 40, 0
28, 89460, Note_on_c, 9, 40, 116
28, 89474, Note_on_c, 9, 40, 0
28, 89820, Note_on_c, 9, 40, 116
28, 89834, Note_on_c, 9, 40, 0
28, 90180, Note_on_c, 9, 40, 116
28, 90194, Note_on_c, 9, 40, 0
28, 90540, Note_on_c, 9, 40, 116
28, 90554, Note_on_c, 9, 40, 0
28, 90900, Note_on_c, 9, 40, 116
28, 90914, Note_on_c, 9, 40, 0
28, 91260, Note_on_c, 9, 40, 116
28, 91274, Note_on_c, 9, 40, 0
28, 91620, Note_on_c, 9, 40, 116
28, 91634, Note_on_c, 9, 40, 0
28, 91980, Note_on_c, 9, 40, 116
28, 91994, Note_on_c, 9, 40, 0
28, 92340, Note_on_c, 9, 40, 116
28, 92354, Note_on_c, 9, 40, 0
28, 92700, Note_on_c, 9, 40, 116
28, 92714, Note_on_c, 9, 40, 0
28, 93060, Note_on_c, 9, 40, 116
28, 93074, Note_on_c, 9, 40, 0
28, 93420, Note_on_c, 9, 40, 116
28, 93434, Note_on_c, 9, 40, 0
28, 93780, Note_on_c, 9, 40, 116
28, 93794, Note_on_c, 9, 40, 0
28, 94140, Note_on_c, 9, 40, 116
28, 94154, Note_on_c, 9, 40, 0
28, 94500, Note_on_c, 9, 40, 116
28, 94514, Note_on_c, 9, 40, 0
28, 94860, Note_on_c, 9, 40, 116
28, 94874, Note_on_c, 9, 40, 0
28, 95220, Note_on_c, 9, 40, 116
28, 95234, Note_on_c, 9, 40, 0
28, 95580, Note_on_c, 9, 40, 116
28, 95594, Note_on_c, 9, 40, 0
28, 95940, Note_on_c, 9, 40, 116
28, 95954, Note_on_c, 9, 40, 0
28, 96300, Note_on_c, 9, 40, 116
28, 96314, Note_on_c, 9, 40, 0
28, 96420, Note_on_c, 9, 40, 116
28, 96434, Note_on_c, 9, 40, 0
28, 96660, Note_on_c, 9, 40, 116
28, 96674, Note_on_c, 9, 40, 0
28, 97020, Note_on_c, 9, 40, 116
28, 97034, Note_on_c, 9, 40, 0
28, 97380, Note_on_c, 9, 40, 116
28, 97394, Note_on_c, 9, 40, 0
28, 97740, Note_on_c, 9, 40, 116
28, 97754, Note_on_c, 9, 40, 0
28, 98100, Note_on_c, 9, 40, 116
28, 98114, Note_on_c, 9, 40, 0
28, 98460, Note_on_c, 9, 40, 116
28, 98474, Note_on_c, 9, 40, 0
28, 98820, Note_on_c, 9, 40, 116
28, 98834, Note_on_c, 9, 40, 0
28, 99180, Note_on_c, 9, 40, 116
28, 99194, Note_on_c, 9, 40, 0
28, 99540, Note_on_c, 9, 40, 116
28, 99554, Note_on_c, 9, 40, 0
28, 99900, Note_on_c, 9, 40, 116
28, 99914, Note_on_c, 9, 40, 0
28, 100260, Note_on_c, 9, 40, 116
28, 100274, Note_on_c, 9, 40, 0
28, 100620, Note_on_c, 9, 40, 116
28, 100634, Note_on_c, 9, 40, 0
28, 100980, Note_on_c, 9, 40, 116
28, 100994, Note_on_c, 9, 40, 0
28, 101340, Note_on_c, 9, 40, 116
28, 101354, Note_on_c, 9, 40, 0
28, 101700, Note_on_c, 9, 40, 116
28, 101714, Note_on_c, 9, 40, 0
28, 102060, Note_on_c, 9, 40, 116
28, 102074, Note_on_c, 9, 40, 0
28, 102420, Note_on_c, 9, 40, 116
28, 102434, Note_on_c, 9, 40, 0
28, 102780, Note_on_c, 9, 40, 116
28, 102794, Note_on_c, 9, 40, 0
28, 102900, Note_on_c, 9, 40, 116
28, 102914, Note_on_c, 9, 40, 0
28, 103140, Note_on_c, 9, 40, 116
28, 103154, Note_on_c, 9, 40, 0
28, 103200, Note_on_c, 9, 40, 106
28, 103214, Note_on_c, 9, 40, 0
28, 103260, Note_on_c, 9, 40, 126
28, 103274, Note_on_c, 9, 40, 0
28, 103500, Note_on_c, 9, 40, 116
28, 103514, Note_on_c, 9, 40, 0
28, 103860, Note_on_c, 9, 40, 116
28, 103874, Note_on_c, 9, 40, 0
28, 104220, Note_on_c, 9, 40, 116
28, 104234, Note_on_c, 9, 40, 0
28, 104580, Note_on_c, 9, 40, 116
28, 104594, Note_on_c, 9, 40, 0
28, 104940, Note_on_c, 9, 40, 116
28, 104954, Note_on_c, 9, 40, 0
28, 105300, Note_on_c, 9, 40, 116
28, 105314, Note_on_c, 9, 40, 0
28, 105660, Note_on_c, 9, 40, 116
28, 105674, Note_on_c, 9, 40, 0
28, 106020, Note_on_c, 9, 40, 116
28, 106034, Note_on_c, 9, 40, 0
28, 106380, Note_on_c, 9, 40, 116
28, 106394, Note_on_c, 9, 40, 0
28, 106740, Note_on_c, 9, 40, 116
28, 106754, Note_on_c, 9, 40, 0
28, 107100, Note_on_c, 9, 40, 116
28, 107114, Note_on_c, 9, 40, 0
28, 107460, Note_on_c, 9, 40, 116
28, 107474, Note_on_c, 9, 40, 0
28, 107760, Note_on_c, 9, 40, 116
28, 107774, Note_on_c, 9, 40, 0
28, 107820, Note_on_c, 9, 40, 116
28, 107824, Note_on_c, 9, 40, 116
28, 107834, Note_on_c, 9, 40, 0
28, 107838, Note_on_c, 9, 40, 0
28, 107940, Note_on_c, 9, 40, 106
28, 107954, Note_on_c, 9, 40, 0
28, 108180, Note_on_c, 9, 40, 116
28, 108194, Note_on_c, 9, 40, 0
28, 108540, Note_on_c, 9, 40, 116
28, 108554, Note_on_c, 9, 40, 0
28, 108660, Note_on_c, 9, 40, 116
28, 108674, Note_on_c, 9, 40, 0
28, 108900, Note_on_c, 9, 40, 116
28, 108914, Note_on_c, 9, 40, 0
28, 109200, Note_on_c, 9, 40, 116
28, 109214, Note_on_c, 9, 40, 0
28, 109620, Note_on_c, 9, 40, 116
28, 109634, Note_on_c, 9, 40, 0
28, 109980, Note_on_c, 9, 40, 116
28, 109994, Note_on_c, 9, 40, 0
28, 110340, Note_on_c, 9, 40, 116
28, 110354, Note_on_c, 9, 40, 0
28, 110700, Note_on_c, 9, 40, 116
28, 110714, Note_on_c, 9, 40, 0
28, 111060, Note_on_c, 9, 40, 116
28, 111074, Note_on_c, 9, 40, 0
28, 111420, Note_on_c, 9, 40, 116
28, 111434, Note_on_c, 9, 40, 0
28, 111780, Note_on_c, 9, 40, 116
28, 111794, Note_on_c, 9, 40, 0
28, 112140, Note_on_c, 9, 40, 116
28, 112154, Note_on_c, 9, 40, 0
28, 112500, Note_on_c, 9, 40, 116
28, 112514, Note_on_c, 9, 40, 0
28, 112860, Note_on_c, 9, 40, 116
28, 112874, Note_on_c, 9, 40, 0
28, 113220, Note_on_c, 9, 40, 116
28, 113234, Note_on_c, 9, 40, 0
28, 113580, Note_on_c, 9, 40, 116
28, 113594, Note_on_c, 9, 40, 0
28, 113940, Note_on_c, 9, 40, 116
28, 113954, Note_on_c, 9, 40, 0
28, 114300, Note_on_c, 9, 40, 116
28, 114314, Note_on_c, 9, 40, 0
28, 114660, Note_on_c, 9, 40, 116
28, 114674, Note_on_c, 9, 40, 0
28, 115020, Note_on_c, 9, 40, 116
28, 115034, Note_on_c, 9, 40, 0
28, 115380, Note_on_c, 9, 40, 116
28, 115394, Note_on_c, 9, 40, 0
28, 115740, Note_on_c, 9, 40, 116
28, 115754, Note_on_c, 9, 40, 0
28, 116100, Note_on_c, 9, 40, 116
28, 116114, Note_on_c, 9, 40, 0
28, 116460, Note_on_c, 9, 40, 116
28, 116474, Note_on_c, 9, 40, 0
28, 116820, Note_on_c, 9, 40, 116
28, 116834, Note_on_c, 9, 40, 0
28, 117180, Note_on_c, 9, 40, 116
28, 117194, Note_on_c, 9, 40, 0
28, 117540, Note_on_c, 9, 40, 116
28, 117554, Note_on_c, 9, 40, 0
28, 117900, Note_on_c, 9, 40, 116
28, 117914, Note_on_c, 9, 40, 0
28, 118260, Note_on_c, 9, 40, 116
28, 118274, Note_on_c, 9, 40, 0
28, 118620, Note_on_c, 9, 40, 116
28, 118634, Note_on_c, 9, 40, 0
28, 118980, Note_on_c, 9, 40, 116
28, 118994, Note_on_c, 9, 40, 0
28, 119340, Note_on_c, 9, 40, 116
28, 119354, Note_on_c, 9, 40, 0
28, 119700, Note_on_c, 9, 40, 116
28, 119714, Note_on_c, 9, 40, 0
28, 120060, Note_on_c, 9, 40, 116
28, 120074, Note_on_c, 9, 40, 0
28, 120420, Note_on_c, 9, 40, 116
28, 120434, Note_on_c, 9, 40, 0
28, 120780, Note_on_c, 9, 40, 116
28, 120794, Note_on_c, 9, 40, 0
28, 120794, End_track
29, 0, Start_track
29, 0, MIDI_port, 0
29, 0, Title_t, "  Hi-Hats"
29, 1140, Note_on_c, 9, 42, 89
29, 1154, Note_on_c, 9, 42, 0
29, 1260, Note_on_c, 9, 42, 89
29, 1274, Note_on_c, 9, 42, 0
29, 1440, Note_on_c, 9, 42, 84
29, 1454, Note_on_c, 9, 42, 0
29, 1500, Note_on_c, 9, 42, 68
29, 1514, Note_on_c, 9, 42, 0
29, 1560, Note_on_c, 9, 42, 56
29, 1574, Note_on_c, 9, 42, 0
29, 1620, Note_on_c, 9, 42, 84
29, 1634, Note_on_c, 9, 42, 0
29, 1680, Note_on_c, 9, 42, 68
29, 1694, Note_on_c, 9, 42, 0
29, 1740, Note_on_c, 9, 42, 56
29, 1754, Note_on_c, 9, 42, 0
29, 1800, Note_on_c, 9, 42, 84
29, 1814, Note_on_c, 9, 42, 0
29, 1860, Note_on_c, 9, 42, 68
29, 1874, Note_on_c, 9, 42, 0
29, 1920, Note_on_c, 9, 42, 56
29, 1934, Note_on_c, 9, 42, 0
29, 1980, Note_on_c, 9, 42, 84
29, 1994, Note_on_c, 9, 42, 0
29, 2040, Note_on_c, 9, 42, 68
29, 2054, Note_on_c, 9, 42, 0
29, 2100, Note_on_c, 9, 42, 56
29, 2114, Note_on_c, 9, 42, 0
29, 2160, Note_on_c, 9, 42, 84
29, 2174, Note_on_c, 9, 42, 0
29, 2220, Note_on_c, 9, 42, 68
29, 2234, Note_on_c, 9, 42, 0
29, 2280, Note_on_c, 9, 42, 56
29, 2294, Note_on_c, 9, 42, 0
29, 2340, Note_on_c, 9, 42, 84
29, 2354, Note_on_c, 9, 42, 0
29, 2400, Note_on_c, 9, 42, 68
29, 2414, Note_on_c, 9, 42, 0
29, 2460, Note_on_c, 9, 42, 56
29, 2474, Note_on_c, 9, 42, 0
29, 2520, Note_on_c, 9, 42, 84
29, 2534, Note_on_c, 9, 42, 0
29, 2580, Note_on_c, 9, 42, 68
29, 2594, Note_on_c, 9, 42, 0
29, 2640, Note_on_c, 9, 42, 56
29, 2654, Note_on_c, 9, 42, 0
29, 2700, Note_on_c, 9, 42, 84
29, 2714, Note_on_c, 9, 42, 0
29, 2760, Note_on_c, 9, 42, 68
29, 2774, Note_on_c, 9, 42, 0
29, 2820, Note_on_c, 9, 42, 56
29, 2834, Note_on_c, 9, 42, 0
29, 2880, Note_on_c, 9, 42, 84
29, 2894, Note_on_c, 9, 42, 0
29, 2940, Note_on_c, 9, 42, 68
29, 2954, Note_on_c, 9, 42, 0
29, 3000, Note_on_c, 9, 42, 56
29, 3014, Note_on_c, 9, 42, 0
29, 3060, Note_on_c, 9, 42, 84
29, 3074, Note_on_c, 9, 42, 0
29, 3120, Note_on_c, 9, 42, 68
29, 3134, Note_on_c, 9, 42, 0
29, 3180, Note_on_c, 9, 42, 56
29, 3194, Note_on_c, 9, 42, 0
29, 3240, Note_on_c, 9, 42, 84
29, 3254, Note_on_c, 9, 42, 0
29, 3300, Note_on_c, 9, 42, 68
29, 3314, Note_on_c, 9, 42, 0
29, 3360, Note_on_c, 9, 42, 56
29, 3374, Note_on_c, 9, 42, 0
29, 3420, Note_on_c, 9, 42, 84
29, 3434, Note_on_c, 9, 42, 0
29, 3480, Note_on_c, 9, 42, 68
29, 3494, Note_on_c, 9, 42, 0
29, 3540, Note_on_c, 9, 42, 56
29, 3554, Note_on_c, 9, 42, 0
29, 3600, Note_on_c, 9, 42, 84
29, 3614, Note_on_c, 9, 42, 0
29, 3660, Note_on_c, 9, 42, 68
29, 3674, Note_on_c, 9, 42, 0
29, 3720, Note_on_c, 9, 42, 56
29, 3734, Note_on_c, 9, 42, 0
29, 3780, Note_on_c, 9, 42, 84
29, 3794, Note_on_c, 9, 42, 0
29, 3840, Note_on_c, 9, 42, 68
29, 3854, Note_on_c, 9, 42, 0
29, 3900, Note_on_c, 9, 42, 56
29, 3914, Note_on_c, 9, 42, 0
29, 3960, Note_on_c, 9, 42, 84
29, 3974, Note_on_c, 9, 42, 0
29, 4020, Note_on_c, 9, 42, 68
29, 4034, Note_on_c, 9, 42, 0
29, 4080, Note_on_c, 9, 42, 56
29, 4094, Note_on_c, 9, 42, 0
29, 4140, Note_on_c, 9, 42, 84
29, 4154, Note_on_c, 9, 42, 0
29, 4200, Note_on_c, 9, 42, 68
29, 4214, Note_on_c, 9, 42, 0
29, 4260, Note_on_c, 9, 46, 64
29, 4274, Note_on_c, 9, 46, 0
29, 4320, Note_on_c, 9, 44, 111
29, 4334, Note_on_c, 9, 44, 0
29, 4380, Note_on_c, 9, 42, 68
29, 4394, Note_on_c, 9, 42, 0
29, 4440, Note_on_c, 9, 42, 56
29, 4454, Note_on_c, 9, 42, 0
29, 4500, Note_on_c, 9, 42, 84
29, 4514, Note_on_c, 9, 42, 0
29, 4560, Note_on_c, 9, 42, 68
29, 4574, Note_on_c, 9, 42, 0
29, 4620, Note_on_c, 9, 42, 56
29, 4634, Note_on_c, 9, 42, 0
29, 4680, Note_on_c, 9, 42, 84
29, 4694, Note_on_c, 9, 42, 0
29, 4740, Note_on_c, 9, 42, 68
29, 4754, Note_on_c, 9, 42, 0
29, 4800, Note_on_c, 9, 42, 56
29, 4814, Note_on_c, 9, 42, 0
29, 4860, Note_on_c, 9, 42, 84
29, 4874, Note_on_c, 9, 42, 0
29, 4920, Note_on_c, 9, 42, 68
29, 4934, Note_on_c, 9, 42, 0
29, 4980, Note_on_c, 9, 42, 56
29, 4994, Note_on_c, 9, 42, 0
29, 5040, Note_on_c, 9, 42, 84
29, 5054, Note_on_c, 9, 42, 0
29, 5100, Note_on_c, 9, 42, 68
29, 5114, Note_on_c, 9, 42, 0
29, 5160, Note_on_c, 9, 42, 56
29, 5174, Note_on_c, 9, 42, 0
29, 5220, Note_on_c, 9, 42, 84
29, 5234, Note_on_c, 9, 42, 0
29, 5280, Note_on_c, 9, 42, 68
29, 5294, Note_on_c, 9, 42, 0
29, 5340, Note_on_c, 9, 42, 56
29, 5354, Note_on_c, 9, 42, 0
29, 5400, Note_on_c, 9, 42, 84
29, 5414, Note_on_c, 9, 42, 0
29, 5460, Note_on_c, 9, 42, 68
29, 5474, Note_on_c, 9, 42, 0
29, 5520, Note_on_c, 9, 42, 56
29, 5534, Note_on_c, 9, 42, 0
29, 5580, Note_on_c, 9, 42, 84
29, 5594, Note_on_c, 9, 42, 0
29, 5640, Note_on_c, 9, 42, 68
29, 5654, Note_on_c, 9, 42, 0
29, 5700, Note_on_c, 9, 42, 56
29, 5714, Note_on_c, 9, 42, 0
29, 5760, Note_on_c, 9, 42, 84
29, 5774, Note_on_c, 9, 42, 0
29, 5820, Note_on_c, 9, 42, 68
29, 5834, Note_on_c, 9, 42, 0
29, 5880, Note_on_c, 9, 42, 56
29, 5894, Note_on_c, 9, 42, 0
29, 5940, Note_on_c, 9, 42, 84
29, 5954, Note_on_c, 9, 42, 0
29, 6000, Note_on_c, 9, 42, 68
29, 6014, Note_on_c, 9, 42, 0
29, 6060, Note_on_c, 9, 42, 56
29, 6074, Note_on_c, 9, 42, 0
29, 6120, Note_on_c, 9, 42, 84
29, 6134, Note_on_c, 9, 42, 0
29, 6180, Note_on_c, 9, 42, 68
29, 6194, Note_on_c, 9, 42, 0
29, 6240, Note_on_c, 9, 42, 56
29, 6254, Note_on_c, 9, 42, 0
29, 6300, Note_on_c, 9, 42, 84
29, 6314, Note_on_c, 9, 42, 0
29, 6360, Note_on_c, 9, 42, 68
29, 6374, Note_on_c, 9, 42, 0
29, 6420, Note_on_c, 9, 42, 56
29, 6434, Note_on_c, 9, 42, 0
29, 6480, Note_on_c, 9, 42, 84
29, 6494, Note_on_c, 9, 42, 0
29, 6540, Note_on_c, 9, 42, 68
29, 6554, Note_on_c, 9, 42, 0
29, 6600, Note_on_c, 9, 42, 56
29, 6614, Note_on_c, 9, 42, 0
29, 6660, Note_on_c, 9, 42, 84
29, 6674, Note_on_c, 9, 42, 0
29, 6720, Note_on_c, 9, 42, 68
29, 6734, Note_on_c, 9, 42, 0
29, 6780, Note_on_c, 9, 42, 56
29, 6794, Note_on_c, 9, 42, 0
29, 6840, Note_on_c, 9, 42, 84
29, 6854, Note_on_c, 9, 42, 0
29, 6900, Note_on_c, 9, 42, 68
29, 6914, Note_on_c, 9, 42, 0
29, 6960, Note_on_c, 9, 42, 56
29, 6974, Note_on_c, 9, 42, 0
29, 7020, Note_on_c, 9, 42, 84
29, 7034, Note_on_c, 9, 42, 0
29, 7080, Note_on_c, 9, 42, 68
29, 7094, Note_on_c, 9, 42, 0
29, 7140, Note_on_c, 9, 42, 56
29, 7154, Note_on_c, 9, 42, 0
29, 7260, Note_on_c, 9, 42, 68
29, 7274, Note_on_c, 9, 42, 0
29, 7320, Note_on_c, 9, 42, 56
29, 7334, Note_on_c, 9, 42, 0
29, 7380, Note_on_c, 9, 42, 84
29, 7394, Note_on_c, 9, 42, 0
29, 7440, Note_on_c, 9, 42, 68
29, 7454, Note_on_c, 9, 42, 0
29, 7500, Note_on_c, 9, 42, 56
29, 7514, Note_on_c, 9, 42, 0
29, 7560, Note_on_c, 9, 42, 84
29, 7574, Note_on_c, 9, 42, 0
29, 7620, Note_on_c, 9, 42, 68
29, 7634, Note_on_c, 9, 42, 0
29, 7680, Note_on_c, 9, 42, 56
29, 7694, Note_on_c, 9, 42, 0
29, 7740, Note_on_c, 9, 42, 84
29, 7754, Note_on_c, 9, 42, 0
29, 7800, Note_on_c, 9, 42, 68
29, 7814, Note_on_c, 9, 42, 0
29, 7860, Note_on_c, 9, 42, 56
29, 7874, Note_on_c, 9, 42, 0
29, 7920, Note_on_c, 9, 42, 84
29, 7934, Note_on_c, 9, 42, 0
29, 7980, Note_on_c, 9, 42, 68
29, 7994, Note_on_c, 9, 42, 0
29, 8040, Note_on_c, 9, 42, 56
29, 8054, Note_on_c, 9, 42, 0
29, 8100, Note_on_c, 9, 42, 84
29, 8114, Note_on_c, 9, 42, 0
29, 8160, Note_on_c, 9, 42, 68
29, 8174, Note_on_c, 9, 42, 0
29, 8220, Note_on_c, 9, 42, 56
29, 8234, Note_on_c, 9, 42, 0
29, 8280, Note_on_c, 9, 42, 84
29, 8294, Note_on_c, 9, 42, 0
29, 8340, Note_on_c, 9, 42, 68
29, 8354, Note_on_c, 9, 42, 0
29, 8400, Note_on_c, 9, 42, 56
29, 8414, Note_on_c, 9, 42, 0
29, 8460, Note_on_c, 9, 42, 84
29, 8474, Note_on_c, 9, 42, 0
29, 8520, Note_on_c, 9, 42, 68
29, 8534, Note_on_c, 9, 42, 0
29, 8580, Note_on_c, 9, 42, 56
29, 8594, Note_on_c, 9, 42, 0
29, 8640, Note_on_c, 9, 42, 84
29, 8654, Note_on_c, 9, 42, 0
29, 8700, Note_on_c, 9, 42, 68
29, 8714, Note_on_c, 9, 42, 0
29, 8760, Note_on_c, 9, 42, 56
29, 8774, Note_on_c, 9, 42, 0
29, 8820, Note_on_c, 9, 42, 84
29, 8834, Note_on_c, 9, 42, 0
29, 8880, Note_on_c, 9, 42, 68
29, 8894, Note_on_c, 9, 42, 0
29, 8940, Note_on_c, 9, 42, 56
29, 8954, Note_on_c, 9, 42, 0
29, 9000, Note_on_c, 9, 42, 84
29, 9014, Note_on_c, 9, 42, 0
29, 9060, Note_on_c, 9, 42, 68
29, 9074, Note_on_c, 9, 42, 0
29, 9120, Note_on_c, 9, 42, 56
29, 9134, Note_on_c, 9, 42, 0
29, 9180, Note_on_c, 9, 42, 84
29, 9194, Note_on_c, 9, 42, 0
29, 9240, Note_on_c, 9, 42, 68
29, 9254, Note_on_c, 9, 42, 0
29, 9300, Note_on_c, 9, 42, 56
29, 9314, Note_on_c, 9, 42, 0
29, 9360, Note_on_c, 9, 42, 84
29, 9374, Note_on_c, 9, 42, 0
29, 9420, Note_on_c, 9, 42, 68
29, 9434, Note_on_c, 9, 42, 0
29, 9480, Note_on_c, 9, 42, 56
29, 9494, Note_on_c, 9, 42, 0
29, 9540, Note_on_c, 9, 42, 84
29, 9554, Note_on_c, 9, 42, 0
29, 9600, Note_on_c, 9, 42, 68
29, 9614, Note_on_c, 9, 42, 0
29, 9660, Note_on_c, 9, 42, 56
29, 9674, Note_on_c, 9, 42, 0
29, 9720, Note_on_c, 9, 42, 84
29, 9734, Note_on_c, 9, 42, 0
29, 9780, Note_on_c, 9, 42, 68
29, 9794, Note_on_c, 9, 42, 0
29, 9840, Note_on_c, 9, 42, 56
29, 9854, Note_on_c, 9, 42, 0
29, 9900, Note_on_c, 9, 42, 84
29, 9914, Note_on_c, 9, 42, 0
29, 9960, Note_on_c, 9, 42, 68
29, 9974, Note_on_c, 9, 42, 0
29, 10020, Note_on_c, 9, 42, 56
29, 10034, Note_on_c, 9, 42, 0
29, 10080, Note_on_c, 9, 42, 84
29, 10094, Note_on_c, 9, 42, 0
29, 10140, Note_on_c, 9, 42, 68
29, 10154, Note_on_c, 9, 42, 0
29, 10200, Note_on_c, 9, 42, 56
29, 10214, Note_on_c, 9, 42, 0
29, 10260, Note_on_c, 9, 42, 84
29, 10274, Note_on_c, 9, 42, 0
29, 10320, Note_on_c, 9, 42, 68
29, 10334, Note_on_c, 9, 42, 0
29, 10380, Note_on_c, 9, 42, 56
29, 10394, Note_on_c, 9, 42, 0
29, 10440, Note_on_c, 9, 42, 84
29, 10454, Note_on_c, 9, 42, 0
29, 10500, Note_on_c, 9, 42, 68
29, 10514, Note_on_c, 9, 42, 0
29, 10560, Note_on_c, 9, 42, 56
29, 10574, Note_on_c, 9, 42, 0
29, 10620, Note_on_c, 9, 42, 84
29, 10634, Note_on_c, 9, 42, 0
29, 10680, Note_on_c, 9, 42, 68
29, 10694, Note_on_c, 9, 42, 0
29, 10740, Note_on_c, 9, 42, 56
29, 10754, Note_on_c, 9, 42, 0
29, 10800, Note_on_c, 9, 42, 84
29, 10814, Note_on_c, 9, 42, 0
29, 10860, Note_on_c, 9, 42, 68
29, 10874, Note_on_c, 9, 42, 0
29, 10920, Note_on_c, 9, 42, 56
29, 10934, Note_on_c, 9, 42, 0
29, 10980, Note_on_c, 9, 42, 84
29, 10994, Note_on_c, 9, 42, 0
29, 11040, Note_on_c, 9, 42, 68
29, 11054, Note_on_c, 9, 42, 0
29, 11100, Note_on_c, 9, 42, 56
29, 11114, Note_on_c, 9, 42, 0
29, 11160, Note_on_c, 9, 42, 84
29, 11174, Note_on_c, 9, 42, 0
29, 11220, Note_on_c, 9, 42, 68
29, 11234, Note_on_c, 9, 42, 0
29, 11280, Note_on_c, 9, 42, 56
29, 11294, Note_on_c, 9, 42, 0
29, 11340, Note_on_c, 9, 42, 84
29, 11354, Note_on_c, 9, 42, 0
29, 11400, Note_on_c, 9, 42, 68
29, 11414, Note_on_c, 9, 42, 0
29, 11460, Note_on_c, 9, 42, 56
29, 11474, Note_on_c, 9, 42, 0
29, 11520, Note_on_c, 9, 42, 84
29, 11534, Note_on_c, 9, 42, 0
29, 11580, Note_on_c, 9, 42, 68
29, 11594, Note_on_c, 9, 42, 0
29, 11640, Note_on_c, 9, 42, 56
29, 11654, Note_on_c, 9, 42, 0
29, 11700, Note_on_c, 9, 42, 84
29, 11714, Note_on_c, 9, 42, 0
29, 11760, Note_on_c, 9, 42, 68
29, 11774, Note_on_c, 9, 42, 0
29, 11820, Note_on_c, 9, 42, 56
29, 11834, Note_on_c, 9, 42, 0
29, 11880, Note_on_c, 9, 42, 84
29, 11894, Note_on_c, 9, 42, 0
29, 11940, Note_on_c, 9, 42, 68
29, 11954, Note_on_c, 9, 42, 0
29, 12000, Note_on_c, 9, 42, 56
29, 12014, Note_on_c, 9, 42, 0
29, 12060, Note_on_c, 9, 42, 84
29, 12074, Note_on_c, 9, 42, 0
29, 12120, Note_on_c, 9, 42, 68
29, 12134, Note_on_c, 9, 42, 0
29, 12180, Note_on_c, 9, 42, 56
29, 12194, Note_on_c, 9, 42, 0
29, 12240, Note_on_c, 9, 42, 84
29, 12254, Note_on_c, 9, 42, 0
29, 12300, Note_on_c, 9, 42, 68
29, 12314, Note_on_c, 9, 42, 0
29, 12360, Note_on_c, 9, 42, 56
29, 12374, Note_on_c, 9, 42, 0
29, 12420, Note_on_c, 9, 42, 84
29, 12434, Note_on_c, 9, 42, 0
29, 12480, Note_on_c, 9, 42, 68
29, 12494, Note_on_c, 9, 42, 0
29, 12540, Note_on_c, 9, 42, 56
29, 12554, Note_on_c, 9, 42, 0
29, 12600, Note_on_c, 9, 42, 84
29, 12614, Note_on_c, 9, 42, 0
29, 12660, Note_on_c, 9, 42, 68
29, 12674, Note_on_c, 9, 42, 0
29, 12720, Note_on_c, 9, 42, 56
29, 12734, Note_on_c, 9, 42, 0
29, 12840, Note_on_c, 9, 42, 68
29, 12854, Note_on_c, 9, 42, 0
29, 12900, Note_on_c, 9, 42, 56
29, 12914, Note_on_c, 9, 42, 0
29, 13020, Note_on_c, 9, 42, 68
29, 13034, Note_on_c, 9, 42, 0
29, 13080, Note_on_c, 9, 42, 56
29, 13094, Note_on_c, 9, 42, 0
29, 13140, Note_on_c, 9, 42, 84
29, 13154, Note_on_c, 9, 42, 0
29, 13200, Note_on_c, 9, 42, 68
29, 13214, Note_on_c, 9, 42, 0
29, 13260, Note_on_c, 9, 42, 56
29, 13274, Note_on_c, 9, 42, 0
29, 13320, Note_on_c, 9, 42, 84
29, 13334, Note_on_c, 9, 42, 0
29, 13380, Note_on_c, 9, 42, 68
29, 13394, Note_on_c, 9, 42, 0
29, 13440, Note_on_c, 9, 42, 56
29, 13454, Note_on_c, 9, 42, 0
29, 13500, Note_on_c, 9, 42, 84
29, 13514, Note_on_c, 9, 42, 0
29, 13560, Note_on_c, 9, 42, 68
29, 13574, Note_on_c, 9, 42, 0
29, 13620, Note_on_c, 9, 42, 56
29, 13634, Note_on_c, 9, 42, 0
29, 13680, Note_on_c, 9, 42, 84
29, 13694, Note_on_c, 9, 42, 0
29, 13740, Note_on_c, 9, 42, 68
29, 13754, Note_on_c, 9, 42, 0
29, 13800, Note_on_c, 9, 42, 56
29, 13814, Note_on_c, 9, 42, 0
29, 13860, Note_on_c, 9, 42, 84
29, 13874, Note_on_c, 9, 42, 0
29, 13920, Note_on_c, 9, 42, 68
29, 13934, Note_on_c, 9, 42, 0
29, 13980, Note_on_c, 9, 42, 56
29, 13994, Note_on_c, 9, 42, 0
29, 14040, Note_on_c, 9, 42, 84
29, 14054, Note_on_c, 9, 42, 0
29, 14100, Note_on_c, 9, 42, 68
29, 14114, Note_on_c, 9, 42, 0
29, 14160, Note_on_c, 9, 42, 56
29, 14174, Note_on_c, 9, 42, 0
29, 14220, Note_on_c, 9, 42, 84
29, 14234, Note_on_c, 9, 42, 0
29, 14280, Note_on_c, 9, 42, 68
29, 14294, Note_on_c, 9, 42, 0
29, 14340, Note_on_c, 9, 46, 74
29, 14354, Note_on_c, 9, 46, 0
29, 14400, Note_on_c, 9, 44, 111
29, 14414, Note_on_c, 9, 44, 0
29, 14460, Note_on_c, 9, 42, 68
29, 14474, Note_on_c, 9, 42, 0
29, 14520, Note_on_c, 9, 42, 56
29, 14534, Note_on_c, 9, 42, 0
29, 14580, Note_on_c, 9, 42, 84
29, 14594, Note_on_c, 9, 42, 0
29, 14640, Note_on_c, 9, 42, 68
29, 14654, Note_on_c, 9, 42, 0
29, 14700, Note_on_c, 9, 42, 56
29, 14714, Note_on_c, 9, 42, 0
29, 14760, Note_on_c, 9, 42, 84
29, 14774, Note_on_c, 9, 42, 0
29, 14820, Note_on_c, 9, 42, 68
29, 14834, Note_on_c, 9, 42, 0
29, 14880, Note_on_c, 9, 42, 56
29, 14894, Note_on_c, 9, 42, 0
29, 14940, Note_on_c, 9, 42, 84
29, 14954, Note_on_c, 9, 42, 0
29, 15000, Note_on_c, 9, 42, 68
29, 15014, Note_on_c, 9, 42, 0
29, 15060, Note_on_c, 9, 42, 56
29, 15074, Note_on_c, 9, 42, 0
29, 15120, Note_on_c, 9, 42, 84
29, 15134, Note_on_c, 9, 42, 0
29, 15180, Note_on_c, 9, 42, 68
29, 15194, Note_on_c, 9, 42, 0
29, 15240, Note_on_c, 9, 42, 56
29, 15254, Note_on_c, 9, 42, 0
29, 15300, Note_on_c, 9, 42, 84
29, 15314, Note_on_c, 9, 42, 0
29, 15360, Note_on_c, 9, 42, 68
29, 15374, Note_on_c, 9, 42, 0
29, 15420, Note_on_c, 9, 42, 56
29, 15434, Note_on_c, 9, 42, 0
29, 15480, Note_on_c, 9, 42, 84
29, 15494, Note_on_c, 9, 42, 0
29, 15540, Note_on_c, 9, 42, 68
29, 15554, Note_on_c, 9, 42, 0
29, 15600, Note_on_c, 9, 42, 56
29, 15614, Note_on_c, 9, 42, 0
29, 15660, Note_on_c, 9, 42, 84
29, 15674, Note_on_c, 9, 42, 0
29, 15720, Note_on_c, 9, 42, 68
29, 15734, Note_on_c, 9, 42, 0
29, 15780, Note_on_c, 9, 42, 56
29, 15794, Note_on_c, 9, 42, 0
29, 15840, Note_on_c, 9, 42, 84
29, 15854, Note_on_c, 9, 42, 0
29, 15900, Note_on_c, 9, 42, 68
29, 15914, Note_on_c, 9, 42, 0
29, 15960, Note_on_c, 9, 42, 56
29, 15974, Note_on_c, 9, 42, 0
29, 16020, Note_on_c, 9, 42, 84
29, 16034, Note_on_c, 9, 42, 0
29, 16080, Note_on_c, 9, 42, 68
29, 16094, Note_on_c, 9, 42, 0
29, 16140, Note_on_c, 9, 42, 56
29, 16154, Note_on_c, 9, 42, 0
29, 16200, Note_on_c, 9, 42, 84
29, 16214, Note_on_c, 9, 42, 0
29, 16260, Note_on_c, 9, 42, 68
29, 16274, Note_on_c, 9, 42, 0
29, 16320, Note_on_c, 9, 42, 56
29, 16334, Note_on_c, 9, 42, 0
29, 16380, Note_on_c, 9, 42, 84
29, 16394, Note_on_c, 9, 42, 0
29, 16440, Note_on_c, 9, 42, 68
29, 16454, Note_on_c, 9, 42, 0
29, 16500, Note_on_c, 9, 42, 56
29, 16514, Note_on_c, 9, 42, 0
29, 16560, Note_on_c, 9, 42, 84
29, 16574, Note_on_c, 9, 42, 0
29, 16620, Note_on_c, 9, 42, 68
29, 16634, Note_on_c, 9, 42, 0
29, 16680, Note_on_c, 9, 42, 56
29, 16694, Note_on_c, 9, 42, 0
29, 16740, Note_on_c, 9, 42, 84
29, 16754, Note_on_c, 9, 42, 0
29, 16800, Note_on_c, 9, 42, 68
29, 16814, Note_on_c, 9, 42, 0
29, 16860, Note_on_c, 9, 42, 56
29, 16874, Note_on_c, 9, 42, 0
29, 16920, Note_on_c, 9, 42, 84
29, 16934, Note_on_c, 9, 42, 0
29, 16980, Note_on_c, 9, 42, 68
29, 16994, Note_on_c, 9, 42, 0
29, 17040, Note_on_c, 9, 42, 56
29, 17054, Note_on_c, 9, 42, 0
29, 17100, Note_on_c, 9, 42, 84
29, 17114, Note_on_c, 9, 42, 0
29, 17160, Note_on_c, 9, 42, 68
29, 17174, Note_on_c, 9, 42, 0
29, 17220, Note_on_c, 9, 42, 56
29, 17234, Note_on_c, 9, 42, 0
29, 17340, Note_on_c, 9, 42, 68
29, 17354, Note_on_c, 9, 42, 0
29, 17400, Note_on_c, 9, 42, 56
29, 17414, Note_on_c, 9, 42, 0
29, 17460, Note_on_c, 9, 42, 84
29, 17474, Note_on_c, 9, 42, 0
29, 17520, Note_on_c, 9, 42, 68
29, 17534, Note_on_c, 9, 42, 0
29, 17580, Note_on_c, 9, 42, 56
29, 17594, Note_on_c, 9, 42, 0
29, 17640, Note_on_c, 9, 42, 84
29, 17654, Note_on_c, 9, 42, 0
29, 17700, Note_on_c, 9, 42, 68
29, 17714, Note_on_c, 9, 42, 0
29, 17760, Note_on_c, 9, 42, 56
29, 17774, Note_on_c, 9, 42, 0
29, 17820, Note_on_c, 9, 42, 84
29, 17834, Note_on_c, 9, 42, 0
29, 17880, Note_on_c, 9, 42, 68
29, 17894, Note_on_c, 9, 42, 0
29, 17940, Note_on_c, 9, 42, 56
29, 17954, Note_on_c, 9, 42, 0
29, 18000, Note_on_c, 9, 42, 84
29, 18014, Note_on_c, 9, 42, 0
29, 18060, Note_on_c, 9, 42, 68
29, 18074, Note_on_c, 9, 42, 0
29, 18120, Note_on_c, 9, 42, 56
29, 18134, Note_on_c, 9, 42, 0
29, 18180, Note_on_c, 9, 42, 84
29, 18194, Note_on_c, 9, 42, 0
29, 18240, Note_on_c, 9, 42, 68
29, 18254, Note_on_c, 9, 42, 0
29, 18300, Note_on_c, 9, 42, 56
29, 18314, Note_on_c, 9, 42, 0
29, 18360, Note_on_c, 9, 42, 84
29, 18374, Note_on_c, 9, 42, 0
29, 18420, Note_on_c, 9, 42, 68
29, 18434, Note_on_c, 9, 42, 0
29, 18480, Note_on_c, 9, 42, 56
29, 18494, Note_on_c, 9, 42, 0
29, 18540, Note_on_c, 9, 42, 84
29, 18554, Note_on_c, 9, 42, 0
29, 18600, Note_on_c, 9, 42, 68
29, 18614, Note_on_c, 9, 42, 0
29, 18660, Note_on_c, 9, 42, 56
29, 18674, Note_on_c, 9, 42, 0
29, 18720, Note_on_c, 9, 42, 84
29, 18734, Note_on_c, 9, 42, 0
29, 18780, Note_on_c, 9, 42, 68
29, 18794, Note_on_c, 9, 42, 0
29, 18840, Note_on_c, 9, 42, 56
29, 18854, Note_on_c, 9, 42, 0
29, 18900, Note_on_c, 9, 42, 84
29, 18914, Note_on_c, 9, 42, 0
29, 18960, Note_on_c, 9, 42, 68
29, 18974, Note_on_c, 9, 42, 0
29, 19020, Note_on_c, 9, 42, 56
29, 19034, Note_on_c, 9, 42, 0
29, 19080, Note_on_c, 9, 42, 84
29, 19094, Note_on_c, 9, 42, 0
29, 19140, Note_on_c, 9, 42, 68
29, 19154, Note_on_c, 9, 42, 0
29, 19200, Note_on_c, 9, 42, 56
29, 19214, Note_on_c, 9, 42, 0
29, 19260, Note_on_c, 9, 42, 84
29, 19274, Note_on_c, 9, 42, 0
29, 19320, Note_on_c, 9, 42, 68
29, 19334, Note_on_c, 9, 42, 0
29, 19380, Note_on_c, 9, 42, 56
29, 19394, Note_on_c, 9, 42, 0
29, 19440, Note_on_c, 9, 42, 84
29, 19454, Note_on_c, 9, 42, 0
29, 19500, Note_on_c, 9, 42, 68
29, 19514, Note_on_c, 9, 42, 0
29, 19560, Note_on_c, 9, 42, 56
29, 19574, Note_on_c, 9, 42, 0
29, 19620, Note_on_c, 9, 42, 84
29, 19634, Note_on_c, 9, 42, 0
29, 19680, Note_on_c, 9, 42, 68
29, 19694, Note_on_c, 9, 42, 0
29, 19740, Note_on_c, 9, 42, 56
29, 19754, Note_on_c, 9, 42, 0
29, 19800, Note_on_c, 9, 42, 84
29, 19814, Note_on_c, 9, 42, 0
29, 19860, Note_on_c, 9, 42, 68
29, 19874, Note_on_c, 9, 42, 0
29, 19920, Note_on_c, 9, 42, 56
29, 19934, Note_on_c, 9, 42, 0
29, 19980, Note_on_c, 9, 42, 84
29, 19994, Note_on_c, 9, 42, 0
29, 20040, Note_on_c, 9, 42, 68
29, 20054, Note_on_c, 9, 42, 0
29, 20100, Note_on_c, 9, 46, 74
29, 20114, Note_on_c, 9, 46, 0
29, 20160, Note_on_c, 9, 44, 111
29, 20174, Note_on_c, 9, 44, 0
29, 20220, Note_on_c, 9, 42, 68
29, 20234, Note_on_c, 9, 42, 0
29, 20280, Note_on_c, 9, 42, 56
29, 20294, Note_on_c, 9, 42, 0
29, 20340, Note_on_c, 9, 42, 84
29, 20354, Note_on_c, 9, 42, 0
29, 20400, Note_on_c, 9, 42, 68
29, 20414, Note_on_c, 9, 42, 0
29, 20460, Note_on_c, 9, 42, 56
29, 20474, Note_on_c, 9, 42, 0
29, 20520, Note_on_c, 9, 42, 84
29, 20534, Note_on_c, 9, 42, 0
29, 20580, Note_on_c, 9, 42, 68
29, 20594, Note_on_c, 9, 42, 0
29, 20640, Note_on_c, 9, 42, 56
29, 20654, Note_on_c, 9, 42, 0
29, 20700, Note_on_c, 9, 42, 84
29, 20714, Note_on_c, 9, 42, 0
29, 20760, Note_on_c, 9, 42, 68
29, 20774, Note_on_c, 9, 42, 0
29, 20820, Note_on_c, 9, 42, 56
29, 20834, Note_on_c, 9, 42, 0
29, 20880, Note_on_c, 9, 42, 84
29, 20894, Note_on_c, 9, 42, 0
29, 20940, Note_on_c, 9, 42, 68
29, 20954, Note_on_c, 9, 42, 0
29, 21000, Note_on_c, 9, 42, 56
29, 21014, Note_on_c, 9, 42, 0
29, 21060, Note_on_c, 9, 42, 84
29, 21074, Note_on_c, 9, 42, 0
29, 21120, Note_on_c, 9, 42, 68
29, 21134, Note_on_c, 9, 42, 0
29, 21180, Note_on_c, 9, 42, 56
29, 21194, Note_on_c, 9, 42, 0
29, 21240, Note_on_c, 9, 42, 84
29, 21254, Note_on_c, 9, 42, 0
29, 21300, Note_on_c, 9, 42, 68
29, 21314, Note_on_c, 9, 42, 0
29, 21360, Note_on_c, 9, 42, 56
29, 21374, Note_on_c, 9, 42, 0
29, 21420, Note_on_c, 9, 42, 84
29, 21434, Note_on_c, 9, 42, 0
29, 21480, Note_on_c, 9, 42, 68
29, 21494, Note_on_c, 9, 42, 0
29, 21540, Note_on_c, 9, 42, 56
29, 21554, Note_on_c, 9, 42, 0
29, 21600, Note_on_c, 9, 42, 84
29, 21614, Note_on_c, 9, 42, 0
29, 21660, Note_on_c, 9, 42, 68
29, 21674, Note_on_c, 9, 42, 0
29, 21720, Note_on_c, 9, 42, 56
29, 21734, Note_on_c, 9, 42, 0
29, 21780, Note_on_c, 9, 42, 84
29, 21794, Note_on_c, 9, 42, 0
29, 21840, Note_on_c, 9, 42, 68
29, 21854, Note_on_c, 9, 42, 0
29, 21900, Note_on_c, 9, 42, 56
29, 21914, Note_on_c, 9, 42, 0
29, 21960, Note_on_c, 9, 42, 84
29, 21974, Note_on_c, 9, 42, 0
29, 22020, Note_on_c, 9, 42, 68
29, 22034, Note_on_c, 9, 42, 0
29, 22080, Note_on_c, 9, 42, 56
29, 22094, Note_on_c, 9, 42, 0
29, 22140, Note_on_c, 9, 42, 84
29, 22154, Note_on_c, 9, 42, 0
29, 22200, Note_on_c, 9, 42, 68
29, 22214, Note_on_c, 9, 42, 0
29, 22260, Note_on_c, 9, 42, 56
29, 22274, Note_on_c, 9, 42, 0
29, 22320, Note_on_c, 9, 42, 84
29, 22334, Note_on_c, 9, 42, 0
29, 22380, Note_on_c, 9, 42, 68
29, 22394, Note_on_c, 9, 42, 0
29, 22440, Note_on_c, 9, 42, 56
29, 22454, Note_on_c, 9, 42, 0
29, 22500, Note_on_c, 9, 42, 84
29, 22514, Note_on_c, 9, 42, 0
29, 22560, Note_on_c, 9, 42, 68
29, 22574, Note_on_c, 9, 42, 0
29, 22620, Note_on_c, 9, 42, 56
29, 22634, Note_on_c, 9, 42, 0
29, 22680, Note_on_c, 9, 42, 84
29, 22694, Note_on_c, 9, 42, 0
29, 22740, Note_on_c, 9, 42, 68
29, 22754, Note_on_c, 9, 42, 0
29, 22800, Note_on_c, 9, 42, 56
29, 22814, Note_on_c, 9, 42, 0
29, 22860, Note_on_c, 9, 42, 84
29, 22874, Note_on_c, 9, 42, 0
29, 22920, Note_on_c, 9, 42, 68
29, 22934, Note_on_c, 9, 42, 0
29, 22980, Note_on_c, 9, 42, 56
29, 22994, Note_on_c, 9, 42, 0
29, 23040, Note_on_c, 9, 42, 84
29, 23054, Note_on_c, 9, 42, 0
29, 23100, Note_on_c, 9, 42, 68
29, 23114, Note_on_c, 9, 42, 0
29, 23160, Note_on_c, 9, 42, 56
29, 23174, Note_on_c, 9, 42, 0
29, 23220, Note_on_c, 9, 42, 84
29, 23234, Note_on_c, 9, 42, 0
29, 23280, Note_on_c, 9, 42, 68
29, 23294, Note_on_c, 9, 42, 0
29, 23340, Note_on_c, 9, 42, 56
29, 23354, Note_on_c, 9, 42, 0
29, 23400, Note_on_c, 9, 42, 84
29, 23414, Note_on_c, 9, 42, 0
29, 23460, Note_on_c, 9, 42, 68
29, 23474, Note_on_c, 9, 42, 0
29, 23520, Note_on_c, 9, 42, 56
29, 23534, Note_on_c, 9, 42, 0
29, 23580, Note_on_c, 9, 42, 84
29, 23594, Note_on_c, 9, 42, 0
29, 23640, Note_on_c, 9, 42, 68
29, 23654, Note_on_c, 9, 42, 0
29, 23700, Note_on_c, 9, 42, 56
29, 23714, Note_on_c, 9, 42, 0
29, 23760, Note_on_c, 9, 42, 84
29, 23774, Note_on_c, 9, 42, 0
29, 23820, Note_on_c, 9, 42, 68
29, 23834, Note_on_c, 9, 42, 0
29, 23880, Note_on_c, 9, 42, 56
29, 23894, Note_on_c, 9, 42, 0
29, 23940, Note_on_c, 9, 42, 84
29, 23954, Note_on_c, 9, 42, 0
29, 24000, Note_on_c, 9, 42, 68
29, 24014, Note_on_c, 9, 42, 0
29, 24060, Note_on_c, 9, 42, 56
29, 24074, Note_on_c, 9, 42, 0
29, 24120, Note_on_c, 9, 42, 84
29, 24134, Note_on_c, 9, 42, 0
29, 24180, Note_on_c, 9, 42, 68
29, 24194, Note_on_c, 9, 42, 0
29, 24240, Note_on_c, 9, 42, 56
29, 24254, Note_on_c, 9, 42, 0
29, 24300, Note_on_c, 9, 42, 84
29, 24314, Note_on_c, 9, 42, 0
29, 24360, Note_on_c, 9, 42, 68
29, 24374, Note_on_c, 9, 42, 0
29, 24420, Note_on_c, 9, 42, 56
29, 24434, Note_on_c, 9, 42, 0
29, 24480, Note_on_c, 9, 42, 84
29, 24494, Note_on_c, 9, 42, 0
29, 24540, Note_on_c, 9, 42, 68
29, 24554, Note_on_c, 9, 42, 0
29, 24600, Note_on_c, 9, 42, 56
29, 24614, Note_on_c, 9, 42, 0
29, 24660, Note_on_c, 9, 42, 84
29, 24674, Note_on_c, 9, 42, 0
29, 24720, Note_on_c, 9, 42, 68
29, 24734, Note_on_c, 9, 42, 0
29, 24780, Note_on_c, 9, 42, 56
29, 24794, Note_on_c, 9, 42, 0
29, 24840, Note_on_c, 9, 42, 84
29, 24854, Note_on_c, 9, 42, 0
29, 24900, Note_on_c, 9, 42, 68
29, 24914, Note_on_c, 9, 42, 0
29, 24960, Note_on_c, 9, 42, 56
29, 24974, Note_on_c, 9, 42, 0
29, 25020, Note_on_c, 9, 42, 84
29, 25034, Note_on_c, 9, 42, 0
29, 25080, Note_on_c, 9, 42, 68
29, 25094, Note_on_c, 9, 42, 0
29, 25140, Note_on_c, 9, 42, 56
29, 25154, Note_on_c, 9, 42, 0
29, 25200, Note_on_c, 9, 42, 84
29, 25214, Note_on_c, 9, 42, 0
29, 25260, Note_on_c, 9, 42, 68
29, 25274, Note_on_c, 9, 42, 0
29, 25320, Note_on_c, 9, 42, 56
29, 25334, Note_on_c, 9, 42, 0
29, 25380, Note_on_c, 9, 42, 84
29, 25394, Note_on_c, 9, 42, 0
29, 25440, Note_on_c, 9, 42, 68
29, 25454, Note_on_c, 9, 42, 0
29, 25500, Note_on_c, 9, 42, 56
29, 25514, Note_on_c, 9, 42, 0
29, 25560, Note_on_c, 9, 42, 84
29, 25574, Note_on_c, 9, 42, 0
29, 25620, Note_on_c, 9, 42, 68
29, 25634, Note_on_c, 9, 42, 0
29, 25680, Note_on_c, 9, 42, 56
29, 25694, Note_on_c, 9, 42, 0
29, 25740, Note_on_c, 9, 42, 84
29, 25754, Note_on_c, 9, 42, 0
29, 25800, Note_on_c, 9, 42, 68
29, 25814, Note_on_c, 9, 42, 0
29, 25860, Note_on_c, 9, 42, 56
29, 25874, Note_on_c, 9, 42, 0
29, 25920, Note_on_c, 9, 42, 84
29, 25934, Note_on_c, 9, 42, 0
29, 25980, Note_on_c, 9, 42, 68
29, 25994, Note_on_c, 9, 42, 0
29, 26040, Note_on_c, 9, 42, 56
29, 26054, Note_on_c, 9, 42, 0
29, 26100, Note_on_c, 9, 42, 84
29, 26114, Note_on_c, 9, 42, 0
29, 26160, Note_on_c, 9, 42, 68
29, 26174, Note_on_c, 9, 42, 0
29, 26220, Note_on_c, 9, 42, 56
29, 26234, Note_on_c, 9, 42, 0
29, 26280, Note_on_c, 9, 42, 84
29, 26294, Note_on_c, 9, 42, 0
29, 26340, Note_on_c, 9, 42, 68
29, 26354, Note_on_c, 9, 42, 0
29, 26400, Note_on_c, 9, 42, 56
29, 26414, Note_on_c, 9, 42, 0
29, 26460, Note_on_c, 9, 42, 84
29, 26474, Note_on_c, 9, 42, 0
29, 26520, Note_on_c, 9, 42, 68
29, 26534, Note_on_c, 9, 42, 0
29, 26580, Note_on_c, 9, 42, 56
29, 26594, Note_on_c, 9, 42, 0
29, 26640, Note_on_c, 9, 42, 84
29, 26654, Note_on_c, 9, 42, 0
29, 26700, Note_on_c, 9, 42, 68
29, 26714, Note_on_c, 9, 42, 0
29, 26760, Note_on_c, 9, 42, 56
29, 26774, Note_on_c, 9, 42, 0
29, 26820, Note_on_c, 9, 42, 84
29, 26834, Note_on_c, 9, 42, 0
29, 26880, Note_on_c, 9, 42, 68
29, 26894, Note_on_c, 9, 42, 0
29, 26940, Note_on_c, 9, 42, 56
29, 26954, Note_on_c, 9, 42, 0
29, 27000, Note_on_c, 9, 42, 84
29, 27014, Note_on_c, 9, 42, 0
29, 27060, Note_on_c, 9, 42, 68
29, 27074, Note_on_c, 9, 42, 0
29, 27120, Note_on_c, 9, 42, 56
29, 27134, Note_on_c, 9, 42, 0
29, 27180, Note_on_c, 9, 42, 84
29, 27194, Note_on_c, 9, 42, 0
29, 27240, Note_on_c, 9, 42, 68
29, 27254, Note_on_c, 9, 42, 0
29, 27300, Note_on_c, 9, 42, 56
29, 27314, Note_on_c, 9, 42, 0
29, 27360, Note_on_c, 9, 42, 84
29, 27374, Note_on_c, 9, 42, 0
29, 27420, Note_on_c, 9, 42, 68
29, 27434, Note_on_c, 9, 42, 0
29, 27480, Note_on_c, 9, 42, 56
29, 27494, Note_on_c, 9, 42, 0
29, 27540, Note_on_c, 9, 42, 84
29, 27554, Note_on_c, 9, 42, 0
29, 27600, Note_on_c, 9, 42, 68
29, 27614, Note_on_c, 9, 42, 0
29, 27660, Note_on_c, 9, 42, 56
29, 27674, Note_on_c, 9, 42, 0
29, 27720, Note_on_c, 9, 42, 84
29, 27734, Note_on_c, 9, 42, 0
29, 27780, Note_on_c, 9, 42, 68
29, 27794, Note_on_c, 9, 42, 0
29, 27840, Note_on_c, 9, 42, 56
29, 27854, Note_on_c, 9, 42, 0
29, 27900, Note_on_c, 9, 42, 84
29, 27914, Note_on_c, 9, 42, 0
29, 27960, Note_on_c, 9, 42, 68
29, 27974, Note_on_c, 9, 42, 0
29, 28020, Note_on_c, 9, 42, 56
29, 28034, Note_on_c, 9, 42, 0
29, 28080, Note_on_c, 9, 42, 84
29, 28094, Note_on_c, 9, 42, 0
29, 28140, Note_on_c, 9, 42, 68
29, 28154, Note_on_c, 9, 42, 0
29, 28200, Note_on_c, 9, 42, 56
29, 28214, Note_on_c, 9, 42, 0
29, 28260, Note_on_c, 9, 42, 84
29, 28274, Note_on_c, 9, 42, 0
29, 28320, Note_on_c, 9, 42, 68
29, 28334, Note_on_c, 9, 42, 0
29, 28380, Note_on_c, 9, 42, 56
29, 28394, Note_on_c, 9, 42, 0
29, 28440, Note_on_c, 9, 42, 84
29, 28454, Note_on_c, 9, 42, 0
29, 28500, Note_on_c, 9, 42, 68
29, 28514, Note_on_c, 9, 42, 0
29, 28560, Note_on_c, 9, 42, 56
29, 28574, Note_on_c, 9, 42, 0
29, 28620, Note_on_c, 9, 42, 84
29, 28634, Note_on_c, 9, 42, 0
29, 28680, Note_on_c, 9, 42, 68
29, 28694, Note_on_c, 9, 42, 0
29, 28740, Note_on_c, 9, 42, 56
29, 28754, Note_on_c, 9, 42, 0
29, 28800, Note_on_c, 9, 42, 84
29, 28814, Note_on_c, 9, 42, 0
29, 28860, Note_on_c, 9, 42, 74
29, 28874, Note_on_c, 9, 42, 0
29, 28920, Note_on_c, 9, 42, 64
29, 28934, Note_on_c, 9, 42, 0
29, 28980, Note_on_c, 9, 42, 84
29, 28994, Note_on_c, 9, 42, 0
29, 29040, Note_on_c, 9, 42, 74
29, 29054, Note_on_c, 9, 42, 0
29, 29100, Note_on_c, 9, 42, 64
29, 29114, Note_on_c, 9, 42, 0
29, 29160, Note_on_c, 9, 42, 84
29, 29174, Note_on_c, 9, 42, 0
29, 29220, Note_on_c, 9, 42, 74
29, 29234, Note_on_c, 9, 42, 0
29, 29280, Note_on_c, 9, 42, 64
29, 29294, Note_on_c, 9, 42, 0
29, 29340, Note_on_c, 9, 42, 84
29, 29354, Note_on_c, 9, 42, 0
29, 29400, Note_on_c, 9, 42, 74
29, 29414, Note_on_c, 9, 42, 0
29, 29460, Note_on_c, 9, 42, 64
29, 29474, Note_on_c, 9, 42, 0
29, 29520, Note_on_c, 9, 42, 84
29, 29534, Note_on_c, 9, 42, 0
29, 29580, Note_on_c, 9, 42, 74
29, 29594, Note_on_c, 9, 42, 0
29, 29640, Note_on_c, 9, 42, 64
29, 29654, Note_on_c, 9, 42, 0
29, 29700, Note_on_c, 9, 42, 84
29, 29714, Note_on_c, 9, 42, 0
29, 29760, Note_on_c, 9, 42, 74
29, 29774, Note_on_c, 9, 42, 0
29, 29820, Note_on_c, 9, 42, 64
29, 29834, Note_on_c, 9, 42, 0
29, 29880, Note_on_c, 9, 42, 84
29, 29894, Note_on_c, 9, 42, 0
29, 29940, Note_on_c, 9, 42, 74
29, 29954, Note_on_c, 9, 42, 0
29, 30000, Note_on_c, 9, 42, 64
29, 30014, Note_on_c, 9, 42, 0
29, 30060, Note_on_c, 9, 42, 84
29, 30074, Note_on_c, 9, 42, 0
29, 30120, Note_on_c, 9, 42, 74
29, 30134, Note_on_c, 9, 42, 0
29, 30180, Note_on_c, 9, 42, 64
29, 30194, Note_on_c, 9, 42, 0
29, 37620, Note_on_c, 9, 44, 74
29, 37634, Note_on_c, 9, 44, 0
29, 37980, Note_on_c, 9, 44, 74
29, 37994, Note_on_c, 9, 44, 0
29, 38340, Note_on_c, 9, 44, 74
29, 38354, Note_on_c, 9, 44, 0
29, 38700, Note_on_c, 9, 44, 74
29, 38714, Note_on_c, 9, 44, 0
29, 39060, Note_on_c, 9, 44, 74
29, 39074, Note_on_c, 9, 44, 0
29, 39420, Note_on_c, 9, 44, 74
29, 39434, Note_on_c, 9, 44, 0
29, 39780, Note_on_c, 9, 44, 74
29, 39794, Note_on_c, 9, 44, 0
29, 40140, Note_on_c, 9, 44, 74
29, 40154, Note_on_c, 9, 44, 0
29, 40500, Note_on_c, 9, 44, 74
29, 40514, Note_on_c, 9, 44, 0
29, 40860, Note_on_c, 9, 44, 74
29, 40874, Note_on_c, 9, 44, 0
29, 41220, Note_on_c, 9, 44, 74
29, 41234, Note_on_c, 9, 44, 0
29, 41580, Note_on_c, 9, 44, 74
29, 41594, Note_on_c, 9, 44, 0
29, 41940, Note_on_c, 9, 44, 74
29, 41954, Note_on_c, 9, 44, 0
29, 42300, Note_on_c, 9, 44, 74
29, 42314, Note_on_c, 9, 44, 0
29, 42660, Note_on_c, 9, 44, 74
29, 42674, Note_on_c, 9, 44, 0
29, 43020, Note_on_c, 9, 44, 74
29, 43034, Note_on_c, 9, 44, 0
29, 43380, Note_on_c, 9, 44, 74
29, 43394, Note_on_c, 9, 44, 0
29, 43680, Note_on_c, 9, 42, 74
29, 43694, Note_on_c, 9, 42, 0
29, 43740, Note_on_c, 9, 46, 64
29, 43754, Note_on_c, 9, 46, 0
29, 43860, Note_on_c, 9, 42, 64
29, 43874, Note_on_c, 9, 42, 0
29, 43920, Note_on_c, 9, 46, 54
29, 43934, Note_on_c, 9, 46, 0
29, 44040, Note_on_c, 9, 42, 54
29, 44054, Note_on_c, 9, 42, 0
29, 44100, Note_on_c, 9, 46, 44
29, 44114, Note_on_c, 9, 46, 0
29, 44280, Note_on_c, 9, 46, 44
29, 44294, Note_on_c, 9, 46, 0
29, 44460, Note_on_c, 9, 44, 74
29, 44474, Note_on_c, 9, 44, 0
29, 44820, Note_on_c, 9, 44, 74
29, 44834, Note_on_c, 9, 44, 0
29, 45120, Note_on_c, 9, 42, 74
29, 45134, Note_on_c, 9, 42, 0
29, 45150, Note_on_c, 9, 42, 54
29, 45164, Note_on_c, 9, 42, 0
29, 45180, Note_on_c, 9, 46, 74
29, 45194, Note_on_c, 9, 46, 0
29, 45300, Note_on_c, 9, 46, 54
29, 45314, Note_on_c, 9, 46, 0
29, 45540, Note_on_c, 9, 44, 74
29, 45554, Note_on_c, 9, 44, 0
29, 45900, Note_on_c, 9, 44, 74
29, 45914, Note_on_c, 9, 44, 0
29, 46260, Note_on_c, 9, 44, 74
29, 46274, Note_on_c, 9, 44, 0
29, 46620, Note_on_c, 9, 44, 74
29, 46634, Note_on_c, 9, 44, 0
29, 46980, Note_on_c, 9, 44, 74
29, 46994, Note_on_c, 9, 44, 0
29, 47340, Note_on_c, 9, 44, 74
29, 47354, Note_on_c, 9, 44, 0
29, 47520, Note_on_c, 9, 46, 57
29, 47534, Note_on_c, 9, 46, 0
29, 47700, Note_on_c, 9, 46, 57
29, 47714, Note_on_c, 9, 46, 0
29, 47880, Note_on_c, 9, 46, 57
29, 47894, Note_on_c, 9, 46, 0
29, 48060, Note_on_c, 9, 46, 57
29, 48074, Note_on_c, 9, 46, 0
29, 48240, Note_on_c, 9, 46, 54
29, 48254, Note_on_c, 9, 46, 0
29, 48420, Note_on_c, 9, 46, 54
29, 48434, Note_on_c, 9, 46, 0
29, 49020, Note_on_c, 9, 42, 74
29, 49034, Note_on_c, 9, 42, 0
29, 49080, Note_on_c, 9, 42, 64
29, 49094, Note_on_c, 9, 42, 0
29, 49140, Note_on_c, 9, 42, 84
29, 49154, Note_on_c, 9, 42, 0
29, 49200, Note_on_c, 9, 42, 74
29, 49214, Note_on_c, 9, 42, 0
29, 49260, Note_on_c, 9, 42, 64
29, 49274, Note_on_c, 9, 42, 0
29, 49320, Note_on_c, 9, 42, 84
29, 49334, Note_on_c, 9, 42, 0
29, 49380, Note_on_c, 9, 42, 74
29, 49394, Note_on_c, 9, 42, 0
29, 49440, Note_on_c, 9, 42, 64
29, 49454, Note_on_c, 9, 42, 0
29, 49500, Note_on_c, 9, 42, 84
29, 49514, Note_on_c, 9, 42, 0
29, 49560, Note_on_c, 9, 42, 74
29, 49574, Note_on_c, 9, 42, 0
29, 49620, Note_on_c, 9, 42, 64
29, 49634, Note_on_c, 9, 42, 0
29, 49680, Note_on_c, 9, 42, 84
29, 49694, Note_on_c, 9, 42, 0
29, 49740, Note_on_c, 9, 42, 74
29, 49754, Note_on_c, 9, 42, 0
29, 49800, Note_on_c, 9, 42, 64
29, 49814, Note_on_c, 9, 42, 0
29, 49860, Note_on_c, 9, 42, 84
29, 49874, Note_on_c, 9, 42, 0
29, 49920, Note_on_c, 9, 42, 74
29, 49934, Note_on_c, 9, 42, 0
29, 49980, Note_on_c, 9, 42, 64
29, 49994, Note_on_c, 9, 42, 0
29, 50040, Note_on_c, 9, 42, 84
29, 50054, Note_on_c, 9, 42, 0
29, 50100, Note_on_c, 9, 42, 74
29, 50114, Note_on_c, 9, 42, 0
29, 50160, Note_on_c, 9, 42, 64
29, 50174, Note_on_c, 9, 42, 0
29, 50220, Note_on_c, 9, 42, 84
29, 50234, Note_on_c, 9, 42, 0
29, 50280, Note_on_c, 9, 42, 74
29, 50294, Note_on_c, 9, 42, 0
29, 50340, Note_on_c, 9, 42, 64
29, 50354, Note_on_c, 9, 42, 0
29, 50400, Note_on_c, 9, 42, 84
29, 50414, Note_on_c, 9, 42, 0
29, 50460, Note_on_c, 9, 42, 74
29, 50474, Note_on_c, 9, 42, 0
29, 50520, Note_on_c, 9, 42, 64
29, 50534, Note_on_c, 9, 42, 0
29, 50580, Note_on_c, 9, 42, 84
29, 50594, Note_on_c, 9, 42, 0
29, 50640, Note_on_c, 9, 42, 74
29, 50654, Note_on_c, 9, 42, 0
29, 50700, Note_on_c, 9, 42, 64
29, 50714, Note_on_c, 9, 42, 0
29, 50760, Note_on_c, 9, 42, 84
29, 50774, Note_on_c, 9, 42, 0
29, 50820, Note_on_c, 9, 42, 74
29, 50834, Note_on_c, 9, 42, 0
29, 50880, Note_on_c, 9, 42, 64
29, 50894, Note_on_c, 9, 42, 0
29, 50940, Note_on_c, 9, 42, 84
29, 50954, Note_on_c, 9, 42, 0
29, 51000, Note_on_c, 9, 42, 74
29, 51014, Note_on_c, 9, 42, 0
29, 51060, Note_on_c, 9, 42, 64
29, 51074, Note_on_c, 9, 42, 0
29, 51120, Note_on_c, 9, 42, 84
29, 51134, Note_on_c, 9, 42, 0
29, 51180, Note_on_c, 9, 42, 74
29, 51194, Note_on_c, 9, 42, 0
29, 51240, Note_on_c, 9, 42, 64
29, 51254, Note_on_c, 9, 42, 0
29, 51300, Note_on_c, 9, 42, 84
29, 51314, Note_on_c, 9, 42, 0
29, 51360, Note_on_c, 9, 42, 74
29, 51374, Note_on_c, 9, 42, 0
29, 51420, Note_on_c, 9, 42, 64
29, 51434, Note_on_c, 9, 42, 0
29, 51480, Note_on_c, 9, 42, 84
29, 51494, Note_on_c, 9, 42, 0
29, 51540, Note_on_c, 9, 42, 74
29, 51554, Note_on_c, 9, 42, 0
29, 51600, Note_on_c, 9, 42, 64
29, 51614, Note_on_c, 9, 42, 0
29, 51660, Note_on_c, 9, 42, 84
29, 51674, Note_on_c, 9, 42, 0
29, 51720, Note_on_c, 9, 42, 74
29, 51734, Note_on_c, 9, 42, 0
29, 51780, Note_on_c, 9, 42, 64
29, 51794, Note_on_c, 9, 42, 0
29, 51840, Note_on_c, 9, 42, 84
29, 51854, Note_on_c, 9, 42, 0
29, 51900, Note_on_c, 9, 42, 74
29, 51914, Note_on_c, 9, 42, 0
29, 51960, Note_on_c, 9, 42, 64
29, 51974, Note_on_c, 9, 42, 0
29, 52020, Note_on_c, 9, 42, 84
29, 52034, Note_on_c, 9, 42, 0
29, 52080, Note_on_c, 9, 42, 74
29, 52094, Note_on_c, 9, 42, 0
29, 52140, Note_on_c, 9, 42, 64
29, 52154, Note_on_c, 9, 42, 0
29, 52200, Note_on_c, 9, 42, 84
29, 52214, Note_on_c, 9, 42, 0
29, 52260, Note_on_c, 9, 42, 74
29, 52274, Note_on_c, 9, 42, 0
29, 52320, Note_on_c, 9, 42, 64
29, 52334, Note_on_c, 9, 42, 0
29, 52380, Note_on_c, 9, 42, 84
29, 52394, Note_on_c, 9, 42, 0
29, 52440, Note_on_c, 9, 42, 74
29, 52454, Note_on_c, 9, 42, 0
29, 52500, Note_on_c, 9, 42, 64
29, 52514, Note_on_c, 9, 42, 0
29, 52560, Note_on_c, 9, 42, 84
29, 52574, Note_on_c, 9, 42, 0
29, 52620, Note_on_c, 9, 42, 74
29, 52634, Note_on_c, 9, 42, 0
29, 52680, Note_on_c, 9, 42, 64
29, 52694, Note_on_c, 9, 42, 0
29, 52740, Note_on_c, 9, 42, 84
29, 52754, Note_on_c, 9, 42, 0
29, 52800, Note_on_c, 9, 42, 74
29, 52814, Note_on_c, 9, 42, 0
29, 52860, Note_on_c, 9, 42, 64
29, 52874, Note_on_c, 9, 42, 0
29, 52920, Note_on_c, 9, 42, 84
29, 52934, Note_on_c, 9, 42, 0
29, 52980, Note_on_c, 9, 42, 74
29, 52994, Note_on_c, 9, 42, 0
29, 53040, Note_on_c, 9, 42, 64
29, 53054, Note_on_c, 9, 42, 0
29, 53100, Note_on_c, 9, 42, 84
29, 53114, Note_on_c, 9, 42, 0
29, 53160, Note_on_c, 9, 42, 74
29, 53174, Note_on_c, 9, 42, 0
29, 53220, Note_on_c, 9, 42, 64
29, 53234, Note_on_c, 9, 42, 0
29, 53280, Note_on_c, 9, 42, 84
29, 53294, Note_on_c, 9, 42, 0
29, 53340, Note_on_c, 9, 42, 74
29, 53354, Note_on_c, 9, 42, 0
29, 53400, Note_on_c, 9, 42, 64
29, 53414, Note_on_c, 9, 42, 0
29, 53460, Note_on_c, 9, 42, 84
29, 53474, Note_on_c, 9, 42, 0
29, 53520, Note_on_c, 9, 42, 74
29, 53534, Note_on_c, 9, 42, 0
29, 53580, Note_on_c, 9, 42, 64
29, 53594, Note_on_c, 9, 42, 0
29, 53640, Note_on_c, 9, 42, 84
29, 53654, Note_on_c, 9, 42, 0
29, 53700, Note_on_c, 9, 42, 74
29, 53714, Note_on_c, 9, 42, 0
29, 53760, Note_on_c, 9, 42, 64
29, 53774, Note_on_c, 9, 42, 0
29, 53820, Note_on_c, 9, 42, 84
29, 53834, Note_on_c, 9, 42, 0
29, 53880, Note_on_c, 9, 42, 74
29, 53894, Note_on_c, 9, 42, 0
29, 53940, Note_on_c, 9, 42, 64
29, 53954, Note_on_c, 9, 42, 0
29, 54000, Note_on_c, 9, 42, 84
29, 54014, Note_on_c, 9, 42, 0
29, 54060, Note_on_c, 9, 42, 74
29, 54074, Note_on_c, 9, 42, 0
29, 54120, Note_on_c, 9, 42, 64
29, 54134, Note_on_c, 9, 42, 0
29, 54180, Note_on_c, 9, 42, 84
29, 54194, Note_on_c, 9, 42, 0
29, 54240, Note_on_c, 9, 42, 74
29, 54254, Note_on_c, 9, 42, 0
29, 54300, Note_on_c, 9, 42, 64
29, 54314, Note_on_c, 9, 42, 0
29, 54360, Note_on_c, 9, 42, 84
29, 54374, Note_on_c, 9, 42, 0
29, 54420, Note_on_c, 9, 42, 74
29, 54434, Note_on_c, 9, 42, 0
29, 54480, Note_on_c, 9, 42, 64
29, 54494, Note_on_c, 9, 42, 0
29, 54540, Note_on_c, 9, 42, 84
29, 54554, Note_on_c, 9, 42, 0
29, 54600, Note_on_c, 9, 42, 74
29, 54614, Note_on_c, 9, 42, 0
29, 54660, Note_on_c, 9, 42, 64
29, 54674, Note_on_c, 9, 42, 0
29, 60540, Note_on_c, 9, 42, 68
29, 60554, Note_on_c, 9, 42, 0
29, 60600, Note_on_c, 9, 42, 56
29, 60614, Note_on_c, 9, 42, 0
29, 60660, Note_on_c, 9, 42, 84
29, 60674, Note_on_c, 9, 42, 0
29, 60720, Note_on_c, 9, 42, 68
29, 60734, Note_on_c, 9, 42, 0
29, 60780, Note_on_c, 9, 42, 56
29, 60794, Note_on_c, 9, 42, 0
29, 60840, Note_on_c, 9, 42, 84
29, 60854, Note_on_c, 9, 42, 0
29, 60900, Note_on_c, 9, 42, 68
29, 60914, Note_on_c, 9, 42, 0
29, 60960, Note_on_c, 9, 42, 56
29, 60974, Note_on_c, 9, 42, 0
29, 61020, Note_on_c, 9, 42, 84
29, 61034, Note_on_c, 9, 42, 0
29, 61080, Note_on_c, 9, 42, 68
29, 61094, Note_on_c, 9, 42, 0
29, 61140, Note_on_c, 9, 42, 56
29, 61154, Note_on_c, 9, 42, 0
29, 61200, Note_on_c, 9, 42, 84
29, 61214, Note_on_c, 9, 42, 0
29, 61260, Note_on_c, 9, 42, 68
29, 61274, Note_on_c, 9, 42, 0
29, 61320, Note_on_c, 9, 42, 56
29, 61334, Note_on_c, 9, 42, 0
29, 61380, Note_on_c, 9, 42, 84
29, 61394, Note_on_c, 9, 42, 0
29, 61440, Note_on_c, 9, 42, 68
29, 61454, Note_on_c, 9, 42, 0
29, 61500, Note_on_c, 9, 42, 56
29, 61514, Note_on_c, 9, 42, 0
29, 61560, Note_on_c, 9, 42, 84
29, 61574, Note_on_c, 9, 42, 0
29, 61620, Note_on_c, 9, 42, 68
29, 61634, Note_on_c, 9, 42, 0
29, 61680, Note_on_c, 9, 42, 56
29, 61694, Note_on_c, 9, 42, 0
29, 61740, Note_on_c, 9, 42, 84
29, 61754, Note_on_c, 9, 42, 0
29, 61800, Note_on_c, 9, 42, 68
29, 61814, Note_on_c, 9, 42, 0
29, 61860, Note_on_c, 9, 42, 56
29, 61874, Note_on_c, 9, 42, 0
29, 61920, Note_on_c, 9, 42, 84
29, 61934, Note_on_c, 9, 42, 0
29, 61980, Note_on_c, 9, 42, 68
29, 61994, Note_on_c, 9, 42, 0
29, 62040, Note_on_c, 9, 42, 56
29, 62054, Note_on_c, 9, 42, 0
29, 62100, Note_on_c, 9, 42, 84
29, 62114, Note_on_c, 9, 42, 0
29, 62160, Note_on_c, 9, 42, 68
29, 62174, Note_on_c, 9, 42, 0
29, 62220, Note_on_c, 9, 42, 56
29, 62234, Note_on_c, 9, 42, 0
29, 62280, Note_on_c, 9, 42, 84
29, 62294, Note_on_c, 9, 42, 0
29, 62340, Note_on_c, 9, 42, 68
29, 62354, Note_on_c, 9, 42, 0
29, 62400, Note_on_c, 9, 42, 56
29, 62414, Note_on_c, 9, 42, 0
29, 62460, Note_on_c, 9, 42, 84
29, 62474, Note_on_c, 9, 42, 0
29, 62520, Note_on_c, 9, 42, 68
29, 62534, Note_on_c, 9, 42, 0
29, 62580, Note_on_c, 9, 42, 56
29, 62594, Note_on_c, 9, 42, 0
29, 62640, Note_on_c, 9, 42, 84
29, 62654, Note_on_c, 9, 42, 0
29, 62700, Note_on_c, 9, 42, 68
29, 62714, Note_on_c, 9, 42, 0
29, 62760, Note_on_c, 9, 42, 56
29, 62774, Note_on_c, 9, 42, 0
29, 62820, Note_on_c, 9, 42, 84
29, 62834, Note_on_c, 9, 42, 0
29, 62880, Note_on_c, 9, 42, 68
29, 62894, Note_on_c, 9, 42, 0
29, 62940, Note_on_c, 9, 42, 56
29, 62954, Note_on_c, 9, 42, 0
29, 63000, Note_on_c, 9, 42, 84
29, 63014, Note_on_c, 9, 42, 0
29, 63060, Note_on_c, 9, 42, 68
29, 63074, Note_on_c, 9, 42, 0
29, 63120, Note_on_c, 9, 42, 56
29, 63134, Note_on_c, 9, 42, 0
29, 63180, Note_on_c, 9, 42, 84
29, 63194, Note_on_c, 9, 42, 0
29, 63240, Note_on_c, 9, 42, 68
29, 63254, Note_on_c, 9, 42, 0
29, 63300, Note_on_c, 9, 42, 56
29, 63314, Note_on_c, 9, 42, 0
29, 63360, Note_on_c, 9, 42, 84
29, 63374, Note_on_c, 9, 42, 0
29, 63420, Note_on_c, 9, 42, 68
29, 63434, Note_on_c, 9, 42, 0
29, 63480, Note_on_c, 9, 42, 56
29, 63494, Note_on_c, 9, 42, 0
29, 63540, Note_on_c, 9, 42, 84
29, 63554, Note_on_c, 9, 42, 0
29, 63600, Note_on_c, 9, 42, 68
29, 63614, Note_on_c, 9, 42, 0
29, 63660, Note_on_c, 9, 42, 56
29, 63674, Note_on_c, 9, 42, 0
29, 63720, Note_on_c, 9, 42, 84
29, 63734, Note_on_c, 9, 42, 0
29, 63780, Note_on_c, 9, 42, 68
29, 63794, Note_on_c, 9, 42, 0
29, 63840, Note_on_c, 9, 42, 56
29, 63854, Note_on_c, 9, 42, 0
29, 63900, Note_on_c, 9, 42, 84
29, 63914, Note_on_c, 9, 42, 0
29, 63960, Note_on_c, 9, 42, 68
29, 63974, Note_on_c, 9, 42, 0
29, 64020, Note_on_c, 9, 42, 56
29, 64034, Note_on_c, 9, 42, 0
29, 64080, Note_on_c, 9, 42, 84
29, 64094, Note_on_c, 9, 42, 0
29, 64140, Note_on_c, 9, 42, 68
29, 64154, Note_on_c, 9, 42, 0
29, 64200, Note_on_c, 9, 42, 56
29, 64214, Note_on_c, 9, 42, 0
29, 64260, Note_on_c, 9, 42, 84
29, 64274, Note_on_c, 9, 42, 0
29, 64320, Note_on_c, 9, 42, 68
29, 64334, Note_on_c, 9, 42, 0
29, 64380, Note_on_c, 9, 42, 56
29, 64394, Note_on_c, 9, 42, 0
29, 64440, Note_on_c, 9, 42, 84
29, 64454, Note_on_c, 9, 42, 0
29, 64500, Note_on_c, 9, 42, 68
29, 64514, Note_on_c, 9, 42, 0
29, 64560, Note_on_c, 9, 42, 56
29, 64574, Note_on_c, 9, 42, 0
29, 64620, Note_on_c, 9, 42, 84
29, 64634, Note_on_c, 9, 42, 0
29, 64680, Note_on_c, 9, 42, 68
29, 64694, Note_on_c, 9, 42, 0
29, 64740, Note_on_c, 9, 42, 56
29, 64754, Note_on_c, 9, 42, 0
29, 64800, Note_on_c, 9, 42, 84
29, 64814, Note_on_c, 9, 42, 0
29, 64860, Note_on_c, 9, 42, 68
29, 64874, Note_on_c, 9, 42, 0
29, 64920, Note_on_c, 9, 42, 56
29, 64934, Note_on_c, 9, 42, 0
29, 64980, Note_on_c, 9, 42, 84
29, 64994, Note_on_c, 9, 42, 0
29, 65040, Note_on_c, 9, 42, 68
29, 65054, Note_on_c, 9, 42, 0
29, 65100, Note_on_c, 9, 42, 56
29, 65114, Note_on_c, 9, 42, 0
29, 65160, Note_on_c, 9, 42, 84
29, 65174, Note_on_c, 9, 42, 0
29, 65220, Note_on_c, 9, 42, 68
29, 65234, Note_on_c, 9, 42, 0
29, 65280, Note_on_c, 9, 42, 56
29, 65294, Note_on_c, 9, 42, 0
29, 65340, Note_on_c, 9, 42, 84
29, 65354, Note_on_c, 9, 42, 0
29, 65400, Note_on_c, 9, 42, 68
29, 65414, Note_on_c, 9, 42, 0
29, 65460, Note_on_c, 9, 42, 56
29, 65474, Note_on_c, 9, 42, 0
29, 65520, Note_on_c, 9, 42, 84
29, 65534, Note_on_c, 9, 42, 0
29, 65580, Note_on_c, 9, 42, 68
29, 65594, Note_on_c, 9, 42, 0
29, 65640, Note_on_c, 9, 42, 56
29, 65654, Note_on_c, 9, 42, 0
29, 65700, Note_on_c, 9, 42, 84
29, 65714, Note_on_c, 9, 42, 0
29, 65760, Note_on_c, 9, 42, 68
29, 65774, Note_on_c, 9, 42, 0
29, 65820, Note_on_c, 9, 42, 56
29, 65834, Note_on_c, 9, 42, 0
29, 65880, Note_on_c, 9, 42, 84
29, 65894, Note_on_c, 9, 42, 0
29, 65940, Note_on_c, 9, 42, 68
29, 65954, Note_on_c, 9, 42, 0
29, 66000, Note_on_c, 9, 42, 56
29, 66014, Note_on_c, 9, 42, 0
29, 66060, Note_on_c, 9, 46, 84
29, 66074, Note_on_c, 9, 46, 0
29, 66300, Note_on_c, 9, 42, 68
29, 66314, Note_on_c, 9, 42, 0
29, 66360, Note_on_c, 9, 42, 56
29, 66374, Note_on_c, 9, 42, 0
29, 66420, Note_on_c, 9, 42, 84
29, 66434, Note_on_c, 9, 42, 0
29, 66480, Note_on_c, 9, 42, 68
29, 66494, Note_on_c, 9, 42, 0
29, 66540, Note_on_c, 9, 42, 56
29, 66554, Note_on_c, 9, 42, 0
29, 66600, Note_on_c, 9, 42, 84
29, 66614, Note_on_c, 9, 42, 0
29, 66660, Note_on_c, 9, 42, 68
29, 66674, Note_on_c, 9, 42, 0
29, 66720, Note_on_c, 9, 42, 56
29, 66734, Note_on_c, 9, 42, 0
29, 66780, Note_on_c, 9, 46, 84
29, 66794, Note_on_c, 9, 46, 0
29, 66960, Note_on_c, 9, 46, 54
29, 66974, Note_on_c, 9, 46, 0
29, 67140, Note_on_c, 9, 46, 64
29, 67154, Note_on_c, 9, 46, 0
29, 67320, Note_on_c, 9, 46, 74
29, 67334, Note_on_c, 9, 46, 0
29, 67500, Note_on_c, 9, 46, 84
29, 67514, Note_on_c, 9, 46, 0
29, 68220, Note_on_c, 9, 46, 84
29, 68234, Note_on_c, 9, 46, 0
29, 74520, Note_on_c, 9, 46, 84
29, 74534, Note_on_c, 9, 46, 0
29, 74880, Note_on_c, 9, 44, 111
29, 74894, Note_on_c, 9, 44, 0
29, 74940, Note_on_c, 9, 42, 68
29, 74954, Note_on_c, 9, 42, 0
29, 75000, Note_on_c, 9, 42, 56
29, 75014, Note_on_c, 9, 42, 0
29, 75060, Note_on_c, 9, 42, 84
29, 75074, Note_on_c, 9, 42, 0
29, 75120, Note_on_c, 9, 42, 68
29, 75134, Note_on_c, 9, 42, 0
29, 75180, Note_on_c, 9, 42, 56
29, 75194, Note_on_c, 9, 42, 0
29, 75240, Note_on_c, 9, 42, 84
29, 75254, Note_on_c, 9, 42, 0
29, 75300, Note_on_c, 9, 42, 68
29, 75314, Note_on_c, 9, 42, 0
29, 75360, Note_on_c, 9, 42, 56
29, 75374, Note_on_c, 9, 42, 0
29, 75420, Note_on_c, 9, 42, 84
29, 75434, Note_on_c, 9, 42, 0
29, 75480, Note_on_c, 9, 42, 68
29, 75494, Note_on_c, 9, 42, 0
29, 75540, Note_on_c, 9, 42, 56
29, 75554, Note_on_c, 9, 42, 0
29, 75600, Note_on_c, 9, 42, 84
29, 75614, Note_on_c, 9, 42, 0
29, 75660, Note_on_c, 9, 42, 68
29, 75674, Note_on_c, 9, 42, 0
29, 75720, Note_on_c, 9, 42, 56
29, 75734, Note_on_c, 9, 42, 0
29, 75780, Note_on_c, 9, 42, 84
29, 75794, Note_on_c, 9, 42, 0
29, 75840, Note_on_c, 9, 42, 68
29, 75854, Note_on_c, 9, 42, 0
29, 75900, Note_on_c, 9, 42, 56
29, 75914, Note_on_c, 9, 42, 0
29, 75960, Note_on_c, 9, 42, 84
29, 75974, Note_on_c, 9, 42, 0
29, 76020, Note_on_c, 9, 42, 68
29, 76034, Note_on_c, 9, 42, 0
29, 76080, Note_on_c, 9, 42, 56
29, 76094, Note_on_c, 9, 42, 0
29, 76140, Note_on_c, 9, 42, 84
29, 76154, Note_on_c, 9, 42, 0
29, 76200, Note_on_c, 9, 42, 68
29, 76214, Note_on_c, 9, 42, 0
29, 76260, Note_on_c, 9, 42, 56
29, 76274, Note_on_c, 9, 42, 0
29, 76320, Note_on_c, 9, 42, 84
29, 76334, Note_on_c, 9, 42, 0
29, 76380, Note_on_c, 9, 42, 68
29, 76394, Note_on_c, 9, 42, 0
29, 76440, Note_on_c, 9, 42, 56
29, 76454, Note_on_c, 9, 42, 0
29, 76500, Note_on_c, 9, 42, 84
29, 76514, Note_on_c, 9, 42, 0
29, 76560, Note_on_c, 9, 42, 68
29, 76574, Note_on_c, 9, 42, 0
29, 76620, Note_on_c, 9, 42, 56
29, 76634, Note_on_c, 9, 42, 0
29, 76680, Note_on_c, 9, 42, 84
29, 76694, Note_on_c, 9, 42, 0
29, 76740, Note_on_c, 9, 42, 68
29, 76754, Note_on_c, 9, 42, 0
29, 76800, Note_on_c, 9, 42, 56
29, 76814, Note_on_c, 9, 42, 0
29, 76860, Note_on_c, 9, 42, 84
29, 76874, Note_on_c, 9, 42, 0
29, 76920, Note_on_c, 9, 42, 68
29, 76934, Note_on_c, 9, 42, 0
29, 76980, Note_on_c, 9, 42, 56
29, 76994, Note_on_c, 9, 42, 0
29, 77040, Note_on_c, 9, 42, 84
29, 77054, Note_on_c, 9, 42, 0
29, 77100, Note_on_c, 9, 42, 68
29, 77114, Note_on_c, 9, 42, 0
29, 77160, Note_on_c, 9, 42, 56
29, 77174, Note_on_c, 9, 42, 0
29, 77220, Note_on_c, 9, 42, 84
29, 77234, Note_on_c, 9, 42, 0
29, 77280, Note_on_c, 9, 42, 68
29, 77294, Note_on_c, 9, 42, 0
29, 77340, Note_on_c, 9, 42, 56
29, 77354, Note_on_c, 9, 42, 0
29, 77400, Note_on_c, 9, 42, 84
29, 77414, Note_on_c, 9, 42, 0
29, 77460, Note_on_c, 9, 42, 68
29, 77474, Note_on_c, 9, 42, 0
29, 77520, Note_on_c, 9, 42, 56
29, 77534, Note_on_c, 9, 42, 0
29, 77580, Note_on_c, 9, 42, 84
29, 77594, Note_on_c, 9, 42, 0
29, 77640, Note_on_c, 9, 42, 68
29, 77654, Note_on_c, 9, 42, 0
29, 77700, Note_on_c, 9, 42, 56
29, 77714, Note_on_c, 9, 42, 0
29, 77760, Note_on_c, 9, 42, 84
29, 77774, Note_on_c, 9, 42, 0
29, 77820, Note_on_c, 9, 42, 68
29, 77834, Note_on_c, 9, 42, 0
29, 77880, Note_on_c, 9, 42, 56
29, 77894, Note_on_c, 9, 42, 0
29, 77940, Note_on_c, 9, 42, 84
29, 77954, Note_on_c, 9, 42, 0
29, 78000, Note_on_c, 9, 42, 68
29, 78014, Note_on_c, 9, 42, 0
29, 78060, Note_on_c, 9, 42, 56
29, 78074, Note_on_c, 9, 42, 0
29, 78120, Note_on_c, 9, 42, 84
29, 78134, Note_on_c, 9, 42, 0
29, 78180, Note_on_c, 9, 42, 68
29, 78194, Note_on_c, 9, 42, 0
29, 78240, Note_on_c, 9, 42, 56
29, 78254, Note_on_c, 9, 42, 0
29, 78300, Note_on_c, 9, 42, 84
29, 78314, Note_on_c, 9, 42, 0
29, 78360, Note_on_c, 9, 42, 68
29, 78374, Note_on_c, 9, 42, 0
29, 78420, Note_on_c, 9, 42, 56
29, 78434, Note_on_c, 9, 42, 0
29, 78480, Note_on_c, 9, 42, 84
29, 78494, Note_on_c, 9, 42, 0
29, 78540, Note_on_c, 9, 42, 68
29, 78554, Note_on_c, 9, 42, 0
29, 78600, Note_on_c, 9, 42, 56
29, 78614, Note_on_c, 9, 42, 0
29, 78660, Note_on_c, 9, 42, 84
29, 78674, Note_on_c, 9, 42, 0
29, 78720, Note_on_c, 9, 42, 68
29, 78734, Note_on_c, 9, 42, 0
29, 78780, Note_on_c, 9, 42, 56
29, 78794, Note_on_c, 9, 42, 0
29, 78840, Note_on_c, 9, 42, 84
29, 78854, Note_on_c, 9, 42, 0
29, 78900, Note_on_c, 9, 42, 68
29, 78914, Note_on_c, 9, 42, 0
29, 78960, Note_on_c, 9, 42, 56
29, 78974, Note_on_c, 9, 42, 0
29, 79020, Note_on_c, 9, 42, 84
29, 79034, Note_on_c, 9, 42, 0
29, 79080, Note_on_c, 9, 42, 68
29, 79094, Note_on_c, 9, 42, 0
29, 79140, Note_on_c, 9, 42, 56
29, 79154, Note_on_c, 9, 42, 0
29, 79200, Note_on_c, 9, 42, 84
29, 79214, Note_on_c, 9, 42, 0
29, 79260, Note_on_c, 9, 42, 68
29, 79274, Note_on_c, 9, 42, 0
29, 79320, Note_on_c, 9, 42, 56
29, 79334, Note_on_c, 9, 42, 0
29, 79380, Note_on_c, 9, 42, 84
29, 79394, Note_on_c, 9, 42, 0
29, 79440, Note_on_c, 9, 42, 68
29, 79454, Note_on_c, 9, 42, 0
29, 79500, Note_on_c, 9, 42, 56
29, 79514, Note_on_c, 9, 42, 0
29, 79560, Note_on_c, 9, 42, 84
29, 79574, Note_on_c, 9, 42, 0
29, 79620, Note_on_c, 9, 42, 68
29, 79634, Note_on_c, 9, 42, 0
29, 79680, Note_on_c, 9, 42, 56
29, 79694, Note_on_c, 9, 42, 0
29, 79740, Note_on_c, 9, 42, 84
29, 79754, Note_on_c, 9, 42, 0
29, 79800, Note_on_c, 9, 42, 68
29, 79814, Note_on_c, 9, 42, 0
29, 79860, Note_on_c, 9, 42, 56
29, 79874, Note_on_c, 9, 42, 0
29, 79920, Note_on_c, 9, 42, 84
29, 79934, Note_on_c, 9, 42, 0
29, 79980, Note_on_c, 9, 42, 68
29, 79994, Note_on_c, 9, 42, 0
29, 80040, Note_on_c, 9, 42, 56
29, 80054, Note_on_c, 9, 42, 0
29, 80100, Note_on_c, 9, 42, 84
29, 80114, Note_on_c, 9, 42, 0
29, 80160, Note_on_c, 9, 42, 68
29, 80174, Note_on_c, 9, 42, 0
29, 80220, Note_on_c, 9, 42, 56
29, 80234, Note_on_c, 9, 42, 0
29, 80280, Note_on_c, 9, 42, 84
29, 80294, Note_on_c, 9, 42, 0
29, 80340, Note_on_c, 9, 42, 68
29, 80354, Note_on_c, 9, 42, 0
29, 80400, Note_on_c, 9, 42, 56
29, 80414, Note_on_c, 9, 42, 0
29, 80460, Note_on_c, 9, 42, 84
29, 80474, Note_on_c, 9, 42, 0
29, 80520, Note_on_c, 9, 42, 68
29, 80534, Note_on_c, 9, 42, 0
29, 80580, Note_on_c, 9, 42, 56
29, 80594, Note_on_c, 9, 42, 0
29, 80640, Note_on_c, 9, 42, 84
29, 80654, Note_on_c, 9, 42, 0
29, 80700, Note_on_c, 9, 42, 68
29, 80714, Note_on_c, 9, 42, 0
29, 80760, Note_on_c, 9, 42, 56
29, 80774, Note_on_c, 9, 42, 0
29, 80820, Note_on_c, 9, 42, 84
29, 80834, Note_on_c, 9, 42, 0
29, 80880, Note_on_c, 9, 42, 68
29, 80894, Note_on_c, 9, 42, 0
29, 80940, Note_on_c, 9, 42, 56
29, 80954, Note_on_c, 9, 42, 0
29, 81000, Note_on_c, 9, 42, 84
29, 81014, Note_on_c, 9, 42, 0
29, 81060, Note_on_c, 9, 42, 68
29, 81074, Note_on_c, 9, 42, 0
29, 81120, Note_on_c, 9, 42, 56
29, 81134, Note_on_c, 9, 42, 0
29, 81180, Note_on_c, 9, 42, 84
29, 81194, Note_on_c, 9, 42, 0
29, 81240, Note_on_c, 9, 42, 68
29, 81254, Note_on_c, 9, 42, 0
29, 81300, Note_on_c, 9, 42, 56
29, 81314, Note_on_c, 9, 42, 0
29, 81360, Note_on_c, 9, 42, 84
29, 81374, Note_on_c, 9, 42, 0
29, 81420, Note_on_c, 9, 42, 68
29, 81434, Note_on_c, 9, 42, 0
29, 81480, Note_on_c, 9, 42, 56
29, 81494, Note_on_c, 9, 42, 0
29, 81540, Note_on_c, 9, 42, 84
29, 81554, Note_on_c, 9, 42, 0
29, 81600, Note_on_c, 9, 42, 68
29, 81614, Note_on_c, 9, 42, 0
29, 81660, Note_on_c, 9, 42, 56
29, 81674, Note_on_c, 9, 42, 0
29, 81720, Note_on_c, 9, 42, 84
29, 81734, Note_on_c, 9, 42, 0
29, 81780, Note_on_c, 9, 42, 68
29, 81794, Note_on_c, 9, 42, 0
29, 81840, Note_on_c, 9, 42, 56
29, 81854, Note_on_c, 9, 42, 0
29, 81900, Note_on_c, 9, 42, 84
29, 81914, Note_on_c, 9, 42, 0
29, 81960, Note_on_c, 9, 42, 68
29, 81974, Note_on_c, 9, 42, 0
29, 82020, Note_on_c, 9, 42, 56
29, 82034, Note_on_c, 9, 42, 0
29, 82080, Note_on_c, 9, 42, 84
29, 82094, Note_on_c, 9, 42, 0
29, 82140, Note_on_c, 9, 42, 68
29, 82154, Note_on_c, 9, 42, 0
29, 82200, Note_on_c, 9, 42, 56
29, 82214, Note_on_c, 9, 42, 0
29, 82260, Note_on_c, 9, 42, 84
29, 82274, Note_on_c, 9, 42, 0
29, 82320, Note_on_c, 9, 42, 68
29, 82334, Note_on_c, 9, 42, 0
29, 82380, Note_on_c, 9, 42, 56
29, 82394, Note_on_c, 9, 42, 0
29, 82440, Note_on_c, 9, 42, 84
29, 82454, Note_on_c, 9, 42, 0
29, 82500, Note_on_c, 9, 42, 68
29, 82514, Note_on_c, 9, 42, 0
29, 82560, Note_on_c, 9, 42, 56
29, 82574, Note_on_c, 9, 42, 0
29, 82620, Note_on_c, 9, 42, 84
29, 82634, Note_on_c, 9, 42, 0
29, 82680, Note_on_c, 9, 42, 68
29, 82694, Note_on_c, 9, 42, 0
29, 82740, Note_on_c, 9, 42, 56
29, 82754, Note_on_c, 9, 42, 0
29, 82800, Note_on_c, 9, 42, 84
29, 82814, Note_on_c, 9, 42, 0
29, 82860, Note_on_c, 9, 42, 68
29, 82874, Note_on_c, 9, 42, 0
29, 82920, Note_on_c, 9, 42, 56
29, 82934, Note_on_c, 9, 42, 0
29, 82980, Note_on_c, 9, 42, 84
29, 82994, Note_on_c, 9, 42, 0
29, 83040, Note_on_c, 9, 42, 68
29, 83054, Note_on_c, 9, 42, 0
29, 83100, Note_on_c, 9, 42, 56
29, 83114, Note_on_c, 9, 42, 0
29, 83160, Note_on_c, 9, 42, 84
29, 83174, Note_on_c, 9, 42, 0
29, 83220, Note_on_c, 9, 42, 68
29, 83234, Note_on_c, 9, 42, 0
29, 83280, Note_on_c, 9, 42, 56
29, 83294, Note_on_c, 9, 42, 0
29, 83340, Note_on_c, 9, 42, 84
29, 83354, Note_on_c, 9, 42, 0
29, 83400, Note_on_c, 9, 42, 68
29, 83414, Note_on_c, 9, 42, 0
29, 83460, Note_on_c, 9, 42, 56
29, 83474, Note_on_c, 9, 42, 0
29, 83520, Note_on_c, 9, 42, 84
29, 83534, Note_on_c, 9, 42, 0
29, 83580, Note_on_c, 9, 42, 74
29, 83594, Note_on_c, 9, 42, 0
29, 83640, Note_on_c, 9, 42, 64
29, 83654, Note_on_c, 9, 42, 0
29, 83700, Note_on_c, 9, 42, 84
29, 83714, Note_on_c, 9, 42, 0
29, 83760, Note_on_c, 9, 42, 74
29, 83774, Note_on_c, 9, 42, 0
29, 83820, Note_on_c, 9, 42, 64
29, 83834, Note_on_c, 9, 42, 0
29, 83880, Note_on_c, 9, 42, 84
29, 83894, Note_on_c, 9, 42, 0
29, 83940, Note_on_c, 9, 42, 74
29, 83954, Note_on_c, 9, 42, 0
29, 84000, Note_on_c, 9, 42, 64
29, 84014, Note_on_c, 9, 42, 0
29, 84060, Note_on_c, 9, 42, 84
29, 84074, Note_on_c, 9, 42, 0
29, 84120, Note_on_c, 9, 42, 74
29, 84134, Note_on_c, 9, 42, 0
29, 84180, Note_on_c, 9, 42, 64
29, 84194, Note_on_c, 9, 42, 0
29, 84240, Note_on_c, 9, 42, 84
29, 84254, Note_on_c, 9, 42, 0
29, 84300, Note_on_c, 9, 42, 74
29, 84314, Note_on_c, 9, 42, 0
29, 84360, Note_on_c, 9, 42, 64
29, 84374, Note_on_c, 9, 42, 0
29, 84420, Note_on_c, 9, 42, 84
29, 84434, Note_on_c, 9, 42, 0
29, 84480, Note_on_c, 9, 42, 74
29, 84494, Note_on_c, 9, 42, 0
29, 84540, Note_on_c, 9, 42, 64
29, 84554, Note_on_c, 9, 42, 0
29, 84600, Note_on_c, 9, 42, 84
29, 84614, Note_on_c, 9, 42, 0
29, 84660, Note_on_c, 9, 42, 74
29, 84674, Note_on_c, 9, 42, 0
29, 84720, Note_on_c, 9, 42, 64
29, 84734, Note_on_c, 9, 42, 0
29, 84780, Note_on_c, 9, 42, 84
29, 84794, Note_on_c, 9, 42, 0
29, 84840, Note_on_c, 9, 42, 74
29, 84854, Note_on_c, 9, 42, 0
29, 84900, Note_on_c, 9, 42, 64
29, 84914, Note_on_c, 9, 42, 0
29, 84914, End_track
30, 0, Start_track
30, 0, MIDI_port, 0
30, 0, Title_t, "  Ride"
30, 31860, Note_on_c, 9, 53, 88
30, 31874, Note_on_c, 9, 53, 0
30, 32040, Note_on_c, 9, 53, 88
30, 32054, Note_on_c, 9, 53, 0
30, 32220, Note_on_c, 9, 53, 88
30, 32234, Note_on_c, 9, 53, 0
30, 32400, Note_on_c, 9, 53, 88
30, 32414, Note_on_c, 9, 53, 0
30, 32580, Note_on_c, 9, 53, 88
30, 32594, Note_on_c, 9, 53, 0
30, 32760, Note_on_c, 9, 53, 88
30, 32774, Note_on_c, 9, 53, 0
30, 32940, Note_on_c, 9, 53, 88
30, 32954, Note_on_c, 9, 53, 0
30, 33120, Note_on_c, 9, 53, 88
30, 33134, Note_on_c, 9, 53, 0
30, 33300, Note_on_c, 9, 53, 88
30, 33314, Note_on_c, 9, 53, 0
30, 33480, Note_on_c, 9, 53, 88
30, 33494, Note_on_c, 9, 53, 0
30, 33660, Note_on_c, 9, 53, 88
30, 33674, Note_on_c, 9, 53, 0
30, 33840, Note_on_c, 9, 53, 88
30, 33854, Note_on_c, 9, 53, 0
30, 34020, Note_on_c, 9, 53, 88
30, 34034, Note_on_c, 9, 53, 0
30, 34200, Note_on_c, 9, 53, 88
30, 34214, Note_on_c, 9, 53, 0
30, 34380, Note_on_c, 9, 53, 88
30, 34394, Note_on_c, 9, 53, 0
30, 34560, Note_on_c, 9, 53, 88
30, 34574, Note_on_c, 9, 53, 0
30, 34740, Note_on_c, 9, 53, 88
30, 34754, Note_on_c, 9, 53, 0
30, 34920, Note_on_c, 9, 53, 88
30, 34934, Note_on_c, 9, 53, 0
30, 35100, Note_on_c, 9, 53, 88
30, 35114, Note_on_c, 9, 53, 0
30, 35640, Note_on_c, 9, 53, 88
30, 35654, Note_on_c, 9, 53, 0
30, 35820, Note_on_c, 9, 53, 88
30, 35834, Note_on_c, 9, 53, 0
30, 36180, Note_on_c, 9, 53, 88
30, 36194, Note_on_c, 9, 53, 0
30, 36360, Note_on_c, 9, 53, 88
30, 36374, Note_on_c, 9, 53, 0
30, 36540, Note_on_c, 9, 53, 88
30, 36554, Note_on_c, 9, 53, 0
30, 36720, Note_on_c, 9, 53, 88
30, 36734, Note_on_c, 9, 53, 0
30, 36900, Note_on_c, 9, 53, 88
30, 36914, Note_on_c, 9, 53, 0
30, 37080, Note_on_c, 9, 53, 88
30, 37094, Note_on_c, 9, 53, 0
30, 37260, Note_on_c, 9, 53, 88
30, 37274, Note_on_c, 9, 53, 0
30, 37440, Note_on_c, 9, 59, 88
30, 37454, Note_on_c, 9, 59, 0
30, 37740, Note_on_c, 9, 59, 88
30, 37754, Note_on_c, 9, 59, 0
30, 38880, Note_on_c, 9, 59, 88
30, 38894, Note_on_c, 9, 59, 0
30, 39180, Note_on_c, 9, 59, 88
30, 39194, Note_on_c, 9, 59, 0
30, 40320, Note_on_c, 9, 59, 88
30, 40334, Note_on_c, 9, 59, 0
30, 40620, Note_on_c, 9, 59, 88
30, 40634, Note_on_c, 9, 59, 0
30, 41760, Note_on_c, 9, 59, 88
30, 41774, Note_on_c, 9, 59, 0
30, 42840, Note_on_c, 9, 51, 58
30, 42854, Note_on_c, 9, 51, 0
30, 42960, Note_on_c, 9, 51, 58
30, 42974, Note_on_c, 9, 51, 0
30, 43020, Note_on_c, 9, 53, 58
30, 43034, Note_on_c, 9, 53, 0
30, 43080, Note_on_c, 9, 51, 58
30, 43094, Note_on_c, 9, 51, 0
30, 43200, Note_on_c, 9, 59, 88
30, 43214, Note_on_c, 9, 59, 0
30, 43500, Note_on_c, 9, 59, 88
30, 43514, Note_on_c, 9, 59, 0
30, 44340, Note_on_c, 9, 53, 58
30, 44354, Note_on_c, 9, 53, 0
30, 44400, Note_on_c, 9, 53, 48
30, 44414, Note_on_c, 9, 53, 0
30, 44460, Note_on_c, 9, 53, 88
30, 44474, Note_on_c, 9, 53, 0
30, 44640, Note_on_c, 9, 59, 88
30, 44654, Note_on_c, 9, 59, 0
30, 44940, Note_on_c, 9, 59, 88
30, 44954, Note_on_c, 9, 59, 0
30, 45180, Note_on_c, 9, 53, 68
30, 45194, Note_on_c, 9, 53, 0
30, 46800, Note_on_c, 9, 51, 68
30, 46814, Note_on_c, 9, 51, 0
30, 46860, Note_on_c, 9, 53, 68
30, 46874, Note_on_c, 9, 53, 0
30, 46920, Note_on_c, 9, 53, 58
30, 46934, Note_on_c, 9, 53, 0
30, 46980, Note_on_c, 9, 51, 88
30, 46994, Note_on_c, 9, 51, 0
30, 47100, Note_on_c, 9, 53, 68
30, 47114, Note_on_c, 9, 53, 0
30, 47160, Note_on_c, 9, 51, 78
30, 47174, Note_on_c, 9, 51, 0
30, 47220, Note_on_c, 9, 53, 58
30, 47234, Note_on_c, 9, 53, 0
30, 47340, Note_on_c, 9, 51, 88
30, 47354, Note_on_c, 9, 51, 0
30, 54900, Note_on_c, 9, 53, 88
30, 54914, Note_on_c, 9, 53, 0
30, 55080, Note_on_c, 9, 53, 88
30, 55094, Note_on_c, 9, 53, 0
30, 55260, Note_on_c, 9, 53, 88
30, 55274, Note_on_c, 9, 53, 0
30, 55440, Note_on_c, 9, 53, 88
30, 55454, Note_on_c, 9, 53, 0
30, 55620, Note_on_c, 9, 53, 88
30, 55634, Note_on_c, 9, 53, 0
30, 55800, Note_on_c, 9, 53, 88
30, 55814, Note_on_c, 9, 53, 0
30, 55980, Note_on_c, 9, 53, 88
30, 55994, Note_on_c, 9, 53, 0
30, 56160, Note_on_c, 9, 53, 88
30, 56174, Note_on_c, 9, 53, 0
30, 56340, Note_on_c, 9, 53, 88
30, 56354, Note_on_c, 9, 53, 0
30, 56520, Note_on_c, 9, 53, 88
30, 56534, Note_on_c, 9, 53, 0
30, 56700, Note_on_c, 9, 53, 88
30, 56714, Note_on_c, 9, 53, 0
30, 56880, Note_on_c, 9, 53, 88
30, 56894, Note_on_c, 9, 53, 0
30, 57060, Note_on_c, 9, 53, 88
30, 57074, Note_on_c, 9, 53, 0
30, 57240, Note_on_c, 9, 53, 88
30, 57254, Note_on_c, 9, 53, 0
30, 57420, Note_on_c, 9, 53, 88
30, 57434, Note_on_c, 9, 53, 0
30, 57600, Note_on_c, 9, 53, 88
30, 57614, Note_on_c, 9, 53, 0
30, 57780, Note_on_c, 9, 53, 88
30, 57794, Note_on_c, 9, 53, 0
30, 57960, Note_on_c, 9, 53, 88
30, 57974, Note_on_c, 9, 53, 0
30, 58140, Note_on_c, 9, 53, 88
30, 58154, Note_on_c, 9, 53, 0
30, 58680, Note_on_c, 9, 53, 88
30, 58694, Note_on_c, 9, 53, 0
30, 58860, Note_on_c, 9, 53, 88
30, 58874, Note_on_c, 9, 53, 0
30, 59220, Note_on_c, 9, 53, 88
30, 59234, Note_on_c, 9, 53, 0
30, 59400, Note_on_c, 9, 53, 88
30, 59414, Note_on_c, 9, 53, 0
30, 59580, Note_on_c, 9, 53, 88
30, 59594, Note_on_c, 9, 53, 0
30, 59760, Note_on_c, 9, 53, 88
30, 59774, Note_on_c, 9, 53, 0
30, 59940, Note_on_c, 9, 53, 88
30, 59954, Note_on_c, 9, 53, 0
30, 60120, Note_on_c, 9, 53, 88
30, 60134, Note_on_c, 9, 53, 0
30, 60300, Note_on_c, 9, 53, 88
30, 60314, Note_on_c, 9, 53, 0
30, 69480, Note_on_c, 9, 53, 88
30, 69494, Note_on_c, 9, 53, 0
30, 69660, Note_on_c, 9, 53, 88
30, 69674, Note_on_c, 9, 53, 0
30, 69840, Note_on_c, 9, 53, 88
30, 69854, Note_on_c, 9, 53, 0
30, 70200, Note_on_c, 9, 53, 88
30, 70214, Note_on_c, 9, 53, 0
30, 70380, Note_on_c, 9, 53, 88
30, 70394, Note_on_c, 9, 53, 0
30, 70560, Note_on_c, 9, 53, 88
30, 70574, Note_on_c, 9, 53, 0
30, 70740, Note_on_c, 9, 53, 88
30, 70754, Note_on_c, 9, 53, 0
30, 70920, Note_on_c, 9, 53, 88
30, 70934, Note_on_c, 9, 53, 0
30, 71100, Note_on_c, 9, 53, 88
30, 71114, Note_on_c, 9, 53, 0
30, 71280, Note_on_c, 9, 53, 88
30, 71294, Note_on_c, 9, 53, 0
30, 71460, Note_on_c, 9, 53, 88
30, 71474, Note_on_c, 9, 53, 0
30, 71640, Note_on_c, 9, 53, 88
30, 71654, Note_on_c, 9, 53, 0
30, 71820, Note_on_c, 9, 53, 88
30, 71834, Note_on_c, 9, 53, 0
30, 72180, Note_on_c, 9, 53, 88
30, 72194, Note_on_c, 9, 53, 0
30, 72360, Note_on_c, 9, 53, 88
30, 72374, Note_on_c, 9, 53, 0
30, 72540, Note_on_c, 9, 53, 88
30, 72554, Note_on_c, 9, 53, 0
30, 73080, Note_on_c, 9, 53, 88
30, 73094, Note_on_c, 9, 53, 0
30, 73260, Note_on_c, 9, 53, 88
30, 73274, Note_on_c, 9, 53, 0
30, 73620, Note_on_c, 9, 53, 88
30, 73634, Note_on_c, 9, 53, 0
30, 73800, Note_on_c, 9, 53, 88
30, 73814, Note_on_c, 9, 53, 0
30, 73980, Note_on_c, 9, 53, 88
30, 73994, Note_on_c, 9, 53, 0
30, 74160, Note_on_c, 9, 53, 88
30, 74174, Note_on_c, 9, 53, 0
30, 74340, Note_on_c, 9, 53, 88
30, 74354, Note_on_c, 9, 53, 0
30, 74520, Note_on_c, 9, 53, 88
30, 74534, Note_on_c, 9, 53, 0
30, 86580, Note_on_c, 9, 53, 88
30, 86594, Note_on_c, 9, 53, 0
30, 86760, Note_on_c, 9, 53, 88
30, 86774, Note_on_c, 9, 53, 0
30, 86940, Note_on_c, 9, 53, 88
30, 86954, Note_on_c, 9, 53, 0
30, 87120, Note_on_c, 9, 53, 88
30, 87134, Note_on_c, 9, 53, 0
30, 87300, Note_on_c, 9, 53, 88
30, 87314, Note_on_c, 9, 53, 0
30, 87480, Note_on_c, 9, 53, 88
30, 87494, Note_on_c, 9, 53, 0
30, 87660, Note_on_c, 9, 53, 88
30, 87674, Note_on_c, 9, 53, 0
30, 87840, Note_on_c, 9, 53, 88
30, 87854, Note_on_c, 9, 53, 0
30, 88020, Note_on_c, 9, 53, 88
30, 88034, Note_on_c, 9, 53, 0
30, 88200, Note_on_c, 9, 53, 88
30, 88214, Note_on_c, 9, 53, 0
30, 88380, Note_on_c, 9, 53, 88
30, 88394, Note_on_c, 9, 53, 0
30, 88560, Note_on_c, 9, 53, 88
30, 88574, Note_on_c, 9, 53, 0
30, 88740, Note_on_c, 9, 53, 88
30, 88754, Note_on_c, 9, 53, 0
30, 88920, Note_on_c, 9, 53, 88
30, 88934, Note_on_c, 9, 53, 0
30, 89100, Note_on_c, 9, 53, 88
30, 89114, Note_on_c, 9, 53, 0
30, 89280, Note_on_c, 9, 53, 88
30, 89294, Note_on_c, 9, 53, 0
30, 89460, Note_on_c, 9, 53, 88
30, 89474, Note_on_c, 9, 53, 0
30, 89640, Note_on_c, 9, 53, 88
30, 89654, Note_on_c, 9, 53, 0
30, 89820, Note_on_c, 9, 53, 88
30, 89834, Note_on_c, 9, 53, 0
30, 90360, Note_on_c, 9, 53, 88
30, 90374, Note_on_c, 9, 53, 0
30, 90540, Note_on_c, 9, 53, 88
30, 90554, Note_on_c, 9, 53, 0
30, 90720, Note_on_c, 9, 53, 88
30, 90734, Note_on_c, 9, 53, 0
30, 90900, Note_on_c, 9, 53, 88
30, 90914, Note_on_c, 9, 53, 0
30, 91080, Note_on_c, 9, 53, 88
30, 91094, Note_on_c, 9, 53, 0
30, 91260, Note_on_c, 9, 53, 88
30, 91274, Note_on_c, 9, 53, 0
30, 91620, Note_on_c, 9, 53, 88
30, 91634, Note_on_c, 9, 53, 0
30, 91800, Note_on_c, 9, 53, 88
30, 91814, Note_on_c, 9, 53, 0
30, 92340, Note_on_c, 9, 53, 88
30, 92354, Note_on_c, 9, 53, 0
30, 92520, Note_on_c, 9, 53, 88
30, 92534, Note_on_c, 9, 53, 0
30, 92700, Note_on_c, 9, 53, 88
30, 92714, Note_on_c, 9, 53, 0
30, 92880, Note_on_c, 9, 53, 88
30, 92894, Note_on_c, 9, 53, 0
30, 93060, Note_on_c, 9, 53, 88
30, 93074, Note_on_c, 9, 53, 0
30, 93240, Note_on_c, 9, 53, 88
30, 93254, Note_on_c, 9, 53, 0
30, 93420, Note_on_c, 9, 53, 88
30, 93434, Note_on_c, 9, 53, 0
30, 93600, Note_on_c, 9, 53, 88
30, 93614, Note_on_c, 9, 53, 0
30, 93780, Note_on_c, 9, 53, 88
30, 93794, Note_on_c, 9, 53, 0
30, 93960, Note_on_c, 9, 53, 88
30, 93974, Note_on_c, 9, 53, 0
30, 94140, Note_on_c, 9, 53, 88
30, 94154, Note_on_c, 9, 53, 0
30, 94320, Note_on_c, 9, 53, 88
30, 94334, Note_on_c, 9, 53, 0
30, 94500, Note_on_c, 9, 53, 88
30, 94514, Note_on_c, 9, 53, 0
30, 94680, Note_on_c, 9, 53, 88
30, 94694, Note_on_c, 9, 53, 0
30, 94860, Note_on_c, 9, 53, 88
30, 94874, Note_on_c, 9, 53, 0
30, 95040, Note_on_c, 9, 53, 88
30, 95054, Note_on_c, 9, 53, 0
30, 95220, Note_on_c, 9, 53, 88
30, 95234, Note_on_c, 9, 53, 0
30, 95400, Note_on_c, 9, 53, 88
30, 95414, Note_on_c, 9, 53, 0
30, 95580, Note_on_c, 9, 53, 88
30, 95594, Note_on_c, 9, 53, 0
30, 96120, Note_on_c, 9, 53, 88
30, 96134, Note_on_c, 9, 53, 0
30, 96300, Note_on_c, 9, 53, 88
30, 96314, Note_on_c, 9, 53, 0
30, 96480, Note_on_c, 9, 53, 88
30, 96494, Note_on_c, 9, 53, 0
30, 96660, Note_on_c, 9, 53, 88
30, 96674, Note_on_c, 9, 53, 0
30, 96840, Note_on_c, 9, 53, 88
30, 96854, Note_on_c, 9, 53, 0
30, 97020, Note_on_c, 9, 53, 88
30, 97034, Note_on_c, 9, 53, 0
30, 97200, Note_on_c, 9, 53, 88
30, 97214, Note_on_c, 9, 53, 0
30, 97380, Note_on_c, 9, 53, 88
30, 97394, Note_on_c, 9, 53, 0
30, 97560, Note_on_c, 9, 53, 88
30, 97574, Note_on_c, 9, 53, 0
30, 97740, Note_on_c, 9, 53, 88
30, 97754, Note_on_c, 9, 53, 0
30, 98100, Note_on_c, 9, 53, 88
30, 98114, Note_on_c, 9, 53, 0
30, 98280, Note_on_c, 9, 53, 88
30, 98294, Note_on_c, 9, 53, 0
30, 98460, Note_on_c, 9, 53, 88
30, 98474, Note_on_c, 9, 53, 0
30, 98640, Note_on_c, 9, 53, 88
30, 98654, Note_on_c, 9, 53, 0
30, 98820, Note_on_c, 9, 53, 88
30, 98834, Note_on_c, 9, 53, 0
30, 99000, Note_on_c, 9, 53, 88
30, 99014, Note_on_c, 9, 53, 0
30, 99180, Note_on_c, 9, 53, 88
30, 99194, Note_on_c, 9, 53, 0
30, 99360, Note_on_c, 9, 53, 88
30, 99374, Note_on_c, 9, 53, 0
30, 99540, Note_on_c, 9, 53, 88
30, 99554, Note_on_c, 9, 53, 0
30, 99720, Note_on_c, 9, 53, 88
30, 99734, Note_on_c, 9, 53, 0
30, 99900, Note_on_c, 9, 53, 88
30, 99914, Note_on_c, 9, 53, 0
30, 100080, Note_on_c, 9, 53, 88
30, 100094, Note_on_c, 9, 53, 0
30, 100260, Note_on_c, 9, 53, 88
30, 100274, Note_on_c, 9, 53, 0
30, 100440, Note_on_c, 9, 53, 88
30, 100454, Note_on_c, 9, 53, 0
30, 100620, Note_on_c, 9, 53, 88
30, 100634, Note_on_c, 9, 53, 0
30, 100800, Note_on_c, 9, 53, 88
30, 100814, Note_on_c, 9, 53, 0
30, 100980, Note_on_c, 9, 53, 88
30, 100994, Note_on_c, 9, 53, 0
30, 101160, Note_on_c, 9, 53, 88
30, 101174, Note_on_c, 9, 53, 0
30, 101340, Note_on_c, 9, 53, 88
30, 101354, Note_on_c, 9, 53, 0
30, 101880, Note_on_c, 9, 53, 88
30, 101894, Note_on_c, 9, 53, 0
30, 102060, Note_on_c, 9, 53, 88
30, 102074, Note_on_c, 9, 53, 0
30, 102240, Note_on_c, 9, 53, 88
30, 102254, Note_on_c, 9, 53, 0
30, 102420, Note_on_c, 9, 53, 88
30, 102434, Note_on_c, 9, 53, 0
30, 102600, Note_on_c, 9, 53, 88
30, 102614, Note_on_c, 9, 53, 0
30, 102780, Note_on_c, 9, 53, 88
30, 102794, Note_on_c, 9, 53, 0
30, 102960, Note_on_c, 9, 53, 88
30, 102974, Note_on_c, 9, 53, 0
30, 103140, Note_on_c, 9, 53, 88
30, 103154, Note_on_c, 9, 53, 0
30, 103320, Note_on_c, 9, 53, 88
30, 103334, Note_on_c, 9, 53, 0
30, 103500, Note_on_c, 9, 53, 88
30, 103514, Note_on_c, 9, 53, 0
30, 103860, Note_on_c, 9, 53, 88
30, 103874, Note_on_c, 9, 53, 0
30, 104040, Note_on_c, 9, 53, 88
30, 104054, Note_on_c, 9, 53, 0
30, 104220, Note_on_c, 9, 53, 88
30, 104234, Note_on_c, 9, 53, 0
30, 104400, Note_on_c, 9, 53, 88
30, 104414, Note_on_c, 9, 53, 0
30, 104580, Note_on_c, 9, 53, 88
30, 104594, Note_on_c, 9, 53, 0
30, 104760, Note_on_c, 9, 53, 88
30, 104774, Note_on_c, 9, 53, 0
30, 104940, Note_on_c, 9, 53, 88
30, 104954, Note_on_c, 9, 53, 0
30, 105120, Note_on_c, 9, 53, 88
30, 105134, Note_on_c, 9, 53, 0
30, 105300, Note_on_c, 9, 53, 88
30, 105314, Note_on_c, 9, 53, 0
30, 105480, Note_on_c, 9, 53, 88
30, 105494, Note_on_c, 9, 53, 0
30, 105660, Note_on_c, 9, 53, 88
30, 105674, Note_on_c, 9, 53, 0
30, 105840, Note_on_c, 9, 53, 88
30, 105854, Note_on_c, 9, 53, 0
30, 106020, Note_on_c, 9, 53, 88
30, 106034, Note_on_c, 9, 53, 0
30, 106200, Note_on_c, 9, 53, 88
30, 106214, Note_on_c, 9, 53, 0
30, 106380, Note_on_c, 9, 53, 88
30, 106394, Note_on_c, 9, 53, 0
30, 106560, Note_on_c, 9, 53, 88
30, 106574, Note_on_c, 9, 53, 0
30, 106740, Note_on_c, 9, 53, 88
30, 106754, Note_on_c, 9, 53, 0
30, 106920, Note_on_c, 9, 53, 88
30, 106934, Note_on_c, 9, 53, 0
30, 107100, Note_on_c, 9, 53, 88
30, 107114, Note_on_c, 9, 53, 0
30, 107640, Note_on_c, 9, 53, 88
30, 107654, Note_on_c, 9, 53, 0
30, 107820, Note_on_c, 9, 53, 88
30, 107834, Note_on_c, 9, 53, 0
30, 108000, Note_on_c, 9, 53, 88
30, 108014, Note_on_c, 9, 53, 0
30, 108180, Note_on_c, 9, 53, 88
30, 108194, Note_on_c, 9, 53, 0
30, 108360, Note_on_c, 9, 53, 88
30, 108374, Note_on_c, 9, 53, 0
30, 108540, Note_on_c, 9, 53, 88
30, 108554, Note_on_c, 9, 53, 0
30, 108720, Note_on_c, 9, 53, 88
30, 108734, Note_on_c, 9, 53, 0
30, 108900, Note_on_c, 9, 53, 88
30, 108914, Note_on_c, 9, 53, 0
30, 109080, Note_on_c, 9, 53, 88
30, 109094, Note_on_c, 9, 53, 0
30, 109260, Note_on_c, 9, 53, 88
30, 109274, Note_on_c, 9, 53, 0
30, 109620, Note_on_c, 9, 53, 88
30, 109634, Note_on_c, 9, 53, 0
30, 109800, Note_on_c, 9, 53, 88
30, 109814, Note_on_c, 9, 53, 0
30, 109980, Note_on_c, 9, 53, 88
30, 109994, Note_on_c, 9, 53, 0
30, 110160, Note_on_c, 9, 53, 88
30, 110174, Note_on_c, 9, 53, 0
30, 110340, Note_on_c, 9, 53, 88
30, 110354, Note_on_c, 9, 53, 0
30, 110520, Note_on_c, 9, 53, 88
30, 110534, Note_on_c, 9, 53, 0
30, 110700, Note_on_c, 9, 53, 88
30, 110714, Note_on_c, 9, 53, 0
30, 110880, Note_on_c, 9, 53, 88
30, 110894, Note_on_c, 9, 53, 0
30, 111060, Note_on_c, 9, 53, 88
30, 111074, Note_on_c, 9, 53, 0
30, 111240, Note_on_c, 9, 53, 88
30, 111254, Note_on_c, 9, 53, 0
30, 111420, Note_on_c, 9, 53, 88
30, 111434, Note_on_c, 9, 53, 0
30, 111600, Note_on_c, 9, 53, 88
30, 111614, Note_on_c, 9, 53, 0
30, 111780, Note_on_c, 9, 53, 88
30, 111794, Note_on_c, 9, 53, 0
30, 111960, Note_on_c, 9, 53, 88
30, 111974, Note_on_c, 9, 53, 0
30, 112140, Note_on_c, 9, 53, 88
30, 112154, Note_on_c, 9, 53, 0
30, 112320, Note_on_c, 9, 53, 88
30, 112334, Note_on_c, 9, 53, 0
30, 112500, Note_on_c, 9, 53, 88
30, 112514, Note_on_c, 9, 53, 0
30, 112680, Note_on_c, 9, 53, 88
30, 112694, Note_on_c, 9, 53, 0
30, 112860, Note_on_c, 9, 53, 88
30, 112874, Note_on_c, 9, 53, 0
30, 113400, Note_on_c, 9, 53, 88
30, 113414, Note_on_c, 9, 53, 0
30, 113580, Note_on_c, 9, 53, 88
30, 113594, Note_on_c, 9, 53, 0
30, 113760, Note_on_c, 9, 53, 88
30, 113774, Note_on_c, 9, 53, 0
30, 113940, Note_on_c, 9, 53, 88
30, 113954, Note_on_c, 9, 53, 0
30, 114120, Note_on_c, 9, 53, 88
30, 114134, Note_on_c, 9, 53, 0
30, 114300, Note_on_c, 9, 53, 88
30, 114314, Note_on_c, 9, 53, 0
30, 114480, Note_on_c, 9, 53, 88
30, 114494, Note_on_c, 9, 53, 0
30, 114660, Note_on_c, 9, 53, 88
30, 114674, Note_on_c, 9, 53, 0
30, 114840, Note_on_c, 9, 53, 88
30, 114854, Note_on_c, 9, 53, 0
30, 115020, Note_on_c, 9, 53, 88
30, 115034, Note_on_c, 9, 53, 0
30, 115380, Note_on_c, 9, 53, 88
30, 115394, Note_on_c, 9, 53, 0
30, 115560, Note_on_c, 9, 53, 88
30, 115574, Note_on_c, 9, 53, 0
30, 115740, Note_on_c, 9, 53, 88
30, 115754, Note_on_c, 9, 53, 0
30, 115920, Note_on_c, 9, 53, 88
30, 115934, Note_on_c, 9, 53, 0
30, 116100, Note_on_c, 9, 53, 88
30, 116114, Note_on_c, 9, 53, 0
30, 116280, Note_on_c, 9, 53, 88
30, 116294, Note_on_c, 9, 53, 0
30, 116460, Note_on_c, 9, 53, 88
30, 116474, Note_on_c, 9, 53, 0
30, 116640, Note_on_c, 9, 53, 88
30, 116654, Note_on_c, 9, 53, 0
30, 116820, Note_on_c, 9, 53, 88
30, 116834, Note_on_c, 9, 53, 0
30, 117000, Note_on_c, 9, 53, 88
30, 117014, Note_on_c, 9, 53, 0
30, 117180, Note_on_c, 9, 53, 88
30, 117194, Note_on_c, 9, 53, 0
30, 117360, Note_on_c, 9, 53, 88
30, 117374, Note_on_c, 9, 53, 0
30, 117540, Note_on_c, 9, 53, 88
30, 117554, Note_on_c, 9, 53, 0
30, 117720, Note_on_c, 9, 53, 88
30, 117734, Note_on_c, 9, 53, 0
30, 117900, Note_on_c, 9, 53, 88
30, 117914, Note_on_c, 9, 53, 0
30, 118080, Note_on_c, 9, 53, 88
30, 118094, Note_on_c, 9, 53, 0
30, 118260, Note_on_c, 9, 53, 88
30, 118274, Note_on_c, 9, 53, 0
30, 118440, Note_on_c, 9, 53, 88
30, 118454, Note_on_c, 9, 53, 0
30, 118620, Note_on_c, 9, 53, 88
30, 118634, Note_on_c, 9, 53, 0
30, 119160, Note_on_c, 9, 53, 88
30, 119174, Note_on_c, 9, 53, 0
30, 119340, Note_on_c, 9, 53, 88
30, 119354, Note_on_c, 9, 53, 0
30, 119520, Note_on_c, 9, 53, 88
30, 119534, Note_on_c, 9, 53, 0
30, 119700, Note_on_c, 9, 53, 88
30, 119714, Note_on_c, 9, 53, 0
30, 119880, Note_on_c, 9, 53, 88
30, 119894, Note_on_c, 9, 53, 0
30, 120060, Note_on_c, 9, 53, 88
30, 120074, Note_on_c, 9, 53, 0
30, 120240, Note_on_c, 9, 53, 88
30, 120254, Note_on_c, 9, 53, 0
30, 120420, Note_on_c, 9, 53, 88
30, 120434, Note_on_c, 9, 53, 0
30, 120600, Note_on_c, 9, 53, 88
30, 120614, Note_on_c, 9, 53, 0
30, 120614, End_track
31, 0, Start_track
31, 0, MIDI_port, 0
31, 0, Title_t, "  Toms"
31, 720, Control_c, 9, 91, 64
31, 1080, Note_on_c, 9, 50, 101
31, 1094, Note_on_c, 9, 50, 0
31, 1200, Note_on_c, 9, 48, 106
31, 1214, Note_on_c, 9, 48, 0
31, 1320, Note_on_c, 9, 47, 96
31, 1334, Note_on_c, 9, 47, 0
31, 1377, Control_c, 9, 91, 48
31, 1380, Note_on_c, 9, 45, 96
31, 1394, Note_on_c, 9, 45, 0
31, 7080, Note_on_c, 9, 43, 86
31, 7094, Note_on_c, 9, 43, 0
31, 7140, Note_on_c, 9, 41, 106
31, 7154, Note_on_c, 9, 41, 0
31, 16920, Note_on_c, 9, 48, 96
31, 16934, Note_on_c, 9, 48, 0
31, 17100, Note_on_c, 9, 48, 96
31, 17114, Note_on_c, 9, 48, 0
31, 17160, Note_on_c, 9, 47, 76
31, 17174, Note_on_c, 9, 47, 0
31, 17220, Note_on_c, 9, 45, 92
31, 17234, Note_on_c, 9, 45, 0
31, 35760, Note_on_c, 9, 50, 96
31, 35774, Note_on_c, 9, 50, 0
31, 35820, Note_on_c, 9, 48, 96
31, 35834, Note_on_c, 9, 48, 0
31, 35880, Note_on_c, 9, 47, 86
31, 35894, Note_on_c, 9, 47, 0
31, 35940, Note_on_c, 9, 47, 106
31, 35954, Note_on_c, 9, 47, 0
31, 37080, Note_on_c, 9, 50, 96
31, 37094, Note_on_c, 9, 50, 0
31, 37200, Note_on_c, 9, 48, 101
31, 37214, Note_on_c, 9, 48, 0
31, 37320, Note_on_c, 9, 47, 106
31, 37334, Note_on_c, 9, 47, 0
31, 37380, Note_on_c, 9, 47, 86
31, 37394, Note_on_c, 9, 47, 0
31, 48600, Note_on_c, 9, 48, 96
31, 48614, Note_on_c, 9, 48, 0
31, 48720, Note_on_c, 9, 47, 96
31, 48734, Note_on_c, 9, 47, 0
31, 58800, Note_on_c, 9, 50, 96
31, 58814, Note_on_c, 9, 50, 0
31, 58860, Note_on_c, 9, 48, 96
31, 58874, Note_on_c, 9, 48, 0
31, 58920, Note_on_c, 9, 47, 86
31, 58934, Note_on_c, 9, 47, 0
31, 58980, Note_on_c, 9, 47, 106
31, 58994, Note_on_c, 9, 47, 0
31, 68520, Note_on_c, 9, 50, 96
31, 68534, Note_on_c, 9, 50, 0
31, 68640, Note_on_c, 9, 48, 96
31, 68654, Note_on_c, 9, 48, 0
31, 68700, Note_on_c, 9, 48, 92
31, 68714, Note_on_c, 9, 48, 0
31, 68760, Note_on_c, 9, 45, 96
31, 68774, Note_on_c, 9, 45, 0
31, 68820, Note_on_c, 9, 45, 101
31, 68834, Note_on_c, 9, 45, 0
31, 73200, Note_on_c, 9, 50, 96
31, 73214, Note_on_c, 9, 50, 0
31, 73260, Note_on_c, 9, 48, 96
31, 73274, Note_on_c, 9, 48, 0
31, 73320, Note_on_c, 9, 47, 86
31, 73334, Note_on_c, 9, 47, 0
31, 73380, Note_on_c, 9, 47, 106
31, 73394, Note_on_c, 9, 47, 0
31, 90480, Note_on_c, 9, 50, 96
31, 90494, Note_on_c, 9, 50, 0
31, 90540, Note_on_c, 9, 48, 96
31, 90554, Note_on_c, 9, 48, 0
31, 90600, Note_on_c, 9, 47, 86
31, 90614, Note_on_c, 9, 47, 0
31, 90660, Note_on_c, 9, 47, 106
31, 90674, Note_on_c, 9, 47, 0
31, 91200, Note_on_c, 9, 50, 96
31, 91214, Note_on_c, 9, 50, 0
31, 91560, Note_on_c, 9, 48, 104
31, 91574, Note_on_c, 9, 48, 0
31, 91920, Note_on_c, 9, 50, 96
31, 91934, Note_on_c, 9, 50, 0
31, 91980, Note_on_c, 9, 48, 96
31, 91994, Note_on_c, 9, 48, 0
31, 92040, Note_on_c, 9, 47, 86
31, 92054, Note_on_c, 9, 47, 0
31, 92100, Note_on_c, 9, 47, 106
31, 92114, Note_on_c, 9, 47, 0
31, 97680, Note_on_c, 9, 48, 96
31, 97694, Note_on_c, 9, 48, 0
31, 97740, Note_on_c, 9, 47, 96
31, 97754, Note_on_c, 9, 47, 0
31, 97800, Note_on_c, 9, 45, 86
31, 97814, Note_on_c, 9, 45, 0
31, 97860, Note_on_c, 9, 45, 106
31, 97874, Note_on_c, 9, 45, 0
31, 102000, Note_on_c, 9, 50, 96
31, 102014, Note_on_c, 9, 50, 0
31, 102060, Note_on_c, 9, 48, 96
31, 102074, Note_on_c, 9, 48, 0
31, 102120, Note_on_c, 9, 47, 86
31, 102134, Note_on_c, 9, 47, 0
31, 102180, Note_on_c, 9, 47, 106
31, 102194, Note_on_c, 9, 47, 0
31, 109260, Note_on_c, 9, 47, 96
31, 109274, Note_on_c, 9, 47, 0
31, 109320, Note_on_c, 9, 45, 101
31, 109334, Note_on_c, 9, 45, 0
31, 109380, Note_on_c, 9, 45, 106
31, 109394, Note_on_c, 9, 45, 0
31, 113520, Note_on_c, 9, 50, 96
31, 113534, Note_on_c, 9, 50, 0
31, 113580, Note_on_c, 9, 48, 96
31, 113594, Note_on_c, 9, 48, 0
31, 113640, Note_on_c, 9, 47, 86
31, 113654, Note_on_c, 9, 47, 0
31, 113700, Note_on_c, 9, 47, 106
31, 113714, Note_on_c, 9, 47, 0
31, 119280, Note_on_c, 9, 50, 96
31, 119294, Note_on_c, 9, 50, 0
31, 119340, Note_on_c, 9, 48, 96
31, 119354, Note_on_c, 9, 48, 0
31, 119400, Note_on_c, 9, 47, 86
31, 119414, Note_on_c, 9, 47, 0
31, 119460, Note_on_c, 9, 47, 106
31, 119474, Note_on_c, 9, 47, 0
31, 119474, End_track
32, 0, Start_track
32, 0, MIDI_port, 0
32, 0, Title_t, "  Crash/Splash"
32, 1440, Note_on_c, 9, 49, 100
32, 1454, Note_on_c, 9, 49, 0
32, 7200, Note_on_c, 9, 49, 100
32, 7214, Note_on_c, 9, 49, 0
32, 12840, Note_on_c, 9, 55, 95
32, 12854, Note_on_c, 9, 55, 0
32, 12960, Note_on_c, 9, 49, 76
32, 12974, Note_on_c, 9, 49, 0
32, 17280, Note_on_c, 9, 55, 100
32, 17294, Note_on_c, 9, 55, 0
32, 30240, Note_on_c, 9, 49, 100
32, 30254, Note_on_c, 9, 49, 0
32, 30540, Note_on_c, 9, 49, 100
32, 30554, Note_on_c, 9, 49, 0
32, 30780, Note_on_c, 9, 57, 70
32, 30794, Note_on_c, 9, 57, 0
32, 30900, Note_on_c, 9, 49, 100
32, 30914, Note_on_c, 9, 49, 0
32, 31140, Note_on_c, 9, 57, 70
32, 31154, Note_on_c, 9, 57, 0
32, 31260, Note_on_c, 9, 49, 100
32, 31274, Note_on_c, 9, 49, 0
32, 31680, Note_on_c, 9, 55, 100
32, 31694, Note_on_c, 9, 55, 0
32, 35220, Note_on_c, 9, 49, 80
32, 35234, Note_on_c, 9, 49, 0
32, 35340, Note_on_c, 9, 55, 100
32, 35354, Note_on_c, 9, 55, 0
32, 35460, Note_on_c, 9, 57, 90
32, 35474, Note_on_c, 9, 57, 0
32, 36000, Note_on_c, 9, 55, 100
32, 36014, Note_on_c, 9, 55, 0
32, 46080, Note_on_c, 9, 55, 80
32, 46094, Note_on_c, 9, 55, 0
32, 46380, Note_on_c, 9, 55, 90
32, 46394, Note_on_c, 9, 55, 0
32, 48960, Note_on_c, 9, 49, 100
32, 48974, Note_on_c, 9, 49, 0
32, 54720, Note_on_c, 9, 57, 100
32, 54720, Note_on_c, 9, 55, 100
32, 54734, Note_on_c, 9, 55, 0
32, 54734, Note_on_c, 9, 57, 0
32, 55620, Note_on_c, 9, 57, 100
32, 55634, Note_on_c, 9, 57, 0
32, 57420, Note_on_c, 9, 55, 100
32, 57434, Note_on_c, 9, 55, 0
32, 57600, Note_on_c, 9, 57, 100
32, 57614, Note_on_c, 9, 57, 0
32, 58260, Note_on_c, 9, 49, 80
32, 58274, Note_on_c, 9, 49, 0
32, 58380, Note_on_c, 9, 55, 100
32, 58394, Note_on_c, 9, 55, 0
32, 58500, Note_on_c, 9, 57, 90
32, 58514, Note_on_c, 9, 57, 0
32, 59040, Note_on_c, 9, 57, 100
32, 59054, Note_on_c, 9, 57, 0
32, 60120, Note_on_c, 9, 57, 100
32, 60134, Note_on_c, 9, 57, 0
32, 60240, Note_on_c, 9, 55, 100
32, 60254, Note_on_c, 9, 55, 0
32, 60360, Note_on_c, 9, 57, 80
32, 60374, Note_on_c, 9, 57, 0
32, 60480, Note_on_c, 9, 49, 100
32, 60494, Note_on_c, 9, 49, 0
32, 66240, Note_on_c, 9, 49, 92
32, 66254, Note_on_c, 9, 49, 0
32, 66900, Note_on_c, 9, 49, 92
32, 66914, Note_on_c, 9, 49, 0
32, 67680, Note_on_c, 9, 57, 100
32, 67694, Note_on_c, 9, 57, 0
32, 68400, Note_on_c, 9, 57, 92
32, 68414, Note_on_c, 9, 57, 0
32, 68700, Note_on_c, 9, 57, 80
32, 68714, Note_on_c, 9, 57, 0
32, 68820, Note_on_c, 9, 55, 100
32, 68834, Note_on_c, 9, 55, 0
32, 68940, Note_on_c, 9, 49, 100
32, 68954, Note_on_c, 9, 49, 0
32, 69120, Note_on_c, 9, 55, 100
32, 69134, Note_on_c, 9, 55, 0
32, 69300, Note_on_c, 9, 57, 80
32, 69314, Note_on_c, 9, 57, 0
32, 70020, Note_on_c, 9, 57, 100
32, 70140, Note_on_c, 9, 57, 0
32, 72000, Note_on_c, 9, 55, 80
32, 72014, Note_on_c, 9, 55, 0
32, 72660, Note_on_c, 9, 49, 80
32, 72674, Note_on_c, 9, 49, 0
32, 72780, Note_on_c, 9, 55, 100
32, 72794, Note_on_c, 9, 55, 0
32, 72900, Note_on_c, 9, 57, 90
32, 72914, Note_on_c, 9, 57, 0
32, 73440, Note_on_c, 9, 49, 100
32, 73454, Note_on_c, 9, 49, 0
32, 74640, Note_on_c, 9, 57, 95
32, 74654, Note_on_c, 9, 57, 0
32, 74760, Note_on_c, 9, 49, 95
32, 74774, Note_on_c, 9, 49, 0
32, 74880, Note_on_c, 9, 55, 100
32, 74894, Note_on_c, 9, 55, 0
32, 84960, Note_on_c, 9, 49, 100
32, 84974, Note_on_c, 9, 49, 0
32, 85260, Note_on_c, 9, 49, 100
32, 85274, Note_on_c, 9, 49, 0
32, 85500, Note_on_c, 9, 57, 70
32, 85514, Note_on_c, 9, 57, 0
32, 85620, Note_on_c, 9, 49, 100
32, 85634, Note_on_c, 9, 49, 0
32, 85860, Note_on_c, 9, 57, 70
32, 85874, Note_on_c, 9, 57, 0
32, 85980, Note_on_c, 9, 49, 100
32, 85994, Note_on_c, 9, 49, 0
32, 86400, Note_on_c, 9, 55, 100
32, 86414, Note_on_c, 9, 55, 0
32, 89940, Note_on_c, 9, 49, 80
32, 89954, Note_on_c, 9, 49, 0
32, 90060, Note_on_c, 9, 55, 100
32, 90074, Note_on_c, 9, 55, 0
32, 90180, Note_on_c, 9, 57, 90
32, 90194, Note_on_c, 9, 57, 0
32, 92160, Note_on_c, 9, 49, 100
32, 92160, Note_on_c, 9, 55, 100
32, 92174, Note_on_c, 9, 55, 0
32, 92174, Note_on_c, 9, 49, 0
32, 95700, Note_on_c, 9, 49, 80
32, 95714, Note_on_c, 9, 49, 0
32, 95820, Note_on_c, 9, 55, 100
32, 95834, Note_on_c, 9, 55, 0
32, 95940, Note_on_c, 9, 57, 90
32, 95954, Note_on_c, 9, 57, 0
32, 97140, Note_on_c, 9, 49, 80
32, 97154, Note_on_c, 9, 49, 0
32, 97920, Note_on_c, 9, 49, 100
32, 97920, Note_on_c, 9, 55, 100
32, 97934, Note_on_c, 9, 55, 0
32, 97934, Note_on_c, 9, 49, 0
32, 101460, Note_on_c, 9, 49, 80
32, 101474, Note_on_c, 9, 49, 0
32, 101580, Note_on_c, 9, 55, 100
32, 101594, Note_on_c, 9, 55, 0
32, 101700, Note_on_c, 9, 57, 90
32, 101714, Note_on_c, 9, 57, 0
32, 102900, Note_on_c, 9, 49, 80
32, 102914, Note_on_c, 9, 49, 0
32, 103440, Note_on_c, 9, 49, 100
32, 103454, Note_on_c, 9, 49, 0
32, 103560, Note_on_c, 9, 57, 100
32, 103574, Note_on_c, 9, 57, 0
32, 103680, Note_on_c, 9, 49, 100
32, 103680, Note_on_c, 9, 55, 100
32, 103694, Note_on_c, 9, 55, 0
32, 103694, Note_on_c, 9, 49, 0
32, 107220, Note_on_c, 9, 49, 80
32, 107234, Note_on_c, 9, 49, 0
32, 107340, Note_on_c, 9, 55, 100
32, 107354, Note_on_c, 9, 55, 0
32, 107460, Note_on_c, 9, 57, 90
32, 107474, Note_on_c, 9, 57, 0
32, 108660, Note_on_c, 9, 49, 80
32, 108674, Note_on_c, 9, 49, 0
32, 109440, Note_on_c, 9, 49, 100
32, 109440, Note_on_c, 9, 55, 100
32, 109454, Note_on_c, 9, 55, 0
32, 109454, Note_on_c, 9, 49, 0
32, 112980, Note_on_c, 9, 49, 80
32, 112994, Note_on_c, 9, 49, 0
32, 113100, Note_on_c, 9, 55, 100
32, 113114, Note_on_c, 9, 55, 0
32, 113220, Note_on_c, 9, 57, 90
32, 113234, Note_on_c, 9, 57, 0
32, 114420, Note_on_c, 9, 49, 80
32, 114434, Note_on_c, 9, 49, 0
32, 115200, Note_on_c, 9, 49, 100
32, 115200, Note_on_c, 9, 55, 100
32, 115214, Note_on_c, 9, 55, 0
32, 115214, Note_on_c, 9, 49, 0
32, 118740, Note_on_c, 9, 49, 80
32, 118754, Note_on_c, 9, 49, 0
32, 118860, Note_on_c, 9, 55, 100
32, 118874, Note_on_c, 9, 55, 0
32, 118980, Note_on_c, 9, 57, 90
32, 118994, Note_on_c, 9, 57, 0
32, 118994, End_track
33, 0, Start_track
33, 0, MIDI_port, 0
33, 0, Title_t, "=================================="
33, 0, End_track
34, 0, Start_track
34, 0, MIDI_port, 0
34, 0, Title_t, "Percussion:"
34, 0, End_track
35, 0, Start_track
35, 0, MIDI_port, 0
35, 0, Title_t, "  Shakers"
35, 2520, Note_on_c, 9, 69, 74
35, 2534, Note_on_c, 9, 69, 0
35, 2580, Note_on_c, 9, 69, 54
35, 2594, Note_on_c, 9, 69, 0
35, 2640, Note_on_c, 9, 69, 84
35, 2654, Note_on_c, 9, 69, 0
35, 3960, Note_on_c, 9, 69, 74
35, 3974, Note_on_c, 9, 69, 0
35, 4020, Note_on_c, 9, 69, 54
35, 4034, Note_on_c, 9, 69, 0
35, 4080, Note_on_c, 9, 69, 84
35, 4094, Note_on_c, 9, 69, 0
35, 5400, Note_on_c, 9, 69, 74
35, 5414, Note_on_c, 9, 69, 0
35, 5460, Note_on_c, 9, 69, 54
35, 5474, Note_on_c, 9, 69, 0
35, 5520, Note_on_c, 9, 69, 84
35, 5534, Note_on_c, 9, 69, 0
35, 6840, Note_on_c, 9, 69, 74
35, 6854, Note_on_c, 9, 69, 0
35, 6900, Note_on_c, 9, 69, 54
35, 6914, Note_on_c, 9, 69, 0
35, 6960, Note_on_c, 9, 69, 84
35, 6974, Note_on_c, 9, 69, 0
35, 8280, Note_on_c, 9, 69, 74
35, 8294, Note_on_c, 9, 69, 0
35, 8340, Note_on_c, 9, 69, 54
35, 8354, Note_on_c, 9, 69, 0
35, 8400, Note_on_c, 9, 69, 84
35, 8414, Note_on_c, 9, 69, 0
35, 9720, Note_on_c, 9, 69, 74
35, 9734, Note_on_c, 9, 69, 0
35, 9780, Note_on_c, 9, 69, 54
35, 9794, Note_on_c, 9, 69, 0
35, 9840, Note_on_c, 9, 69, 84
35, 9854, Note_on_c, 9, 69, 0
35, 11160, Note_on_c, 9, 69, 74
35, 11174, Note_on_c, 9, 69, 0
35, 11220, Note_on_c, 9, 69, 54
35, 11234, Note_on_c, 9, 69, 0
35, 11280, Note_on_c, 9, 69, 84
35, 11294, Note_on_c, 9, 69, 0
35, 12600, Note_on_c, 9, 69, 74
35, 12614, Note_on_c, 9, 69, 0
35, 12660, Note_on_c, 9, 69, 54
35, 12674, Note_on_c, 9, 69, 0
35, 12720, Note_on_c, 9, 69, 84
35, 12734, Note_on_c, 9, 69, 0
35, 14040, Note_on_c, 9, 69, 74
35, 14054, Note_on_c, 9, 69, 0
35, 14100, Note_on_c, 9, 69, 54
35, 14114, Note_on_c, 9, 69, 0
35, 14160, Note_on_c, 9, 69, 84
35, 14174, Note_on_c, 9, 69, 0
35, 15480, Note_on_c, 9, 69, 74
35, 15494, Note_on_c, 9, 69, 0
35, 15540, Note_on_c, 9, 69, 54
35, 15554, Note_on_c, 9, 69, 0
35, 15600, Note_on_c, 9, 69, 84
35, 15614, Note_on_c, 9, 69, 0
35, 16920, Note_on_c, 9, 69, 74
35, 16934, Note_on_c, 9, 69, 0
35, 16980, Note_on_c, 9, 69, 54
35, 16994, Note_on_c, 9, 69, 0
35, 17040, Note_on_c, 9, 69, 84
35, 17054, Note_on_c, 9, 69, 0
35, 18360, Note_on_c, 9, 69, 74
35, 18374, Note_on_c, 9, 69, 0
35, 18420, Note_on_c, 9, 69, 54
35, 18434, Note_on_c, 9, 69, 0
35, 18480, Note_on_c, 9, 69, 84
35, 18494, Note_on_c, 9, 69, 0
35, 19800, Note_on_c, 9, 69, 74
35, 19814, Note_on_c, 9, 69, 0
35, 19860, Note_on_c, 9, 69, 54
35, 19874, Note_on_c, 9, 69, 0
35, 19920, Note_on_c, 9, 69, 84
35, 19934, Note_on_c, 9, 69, 0
35, 21240, Note_on_c, 9, 69, 74
35, 21254, Note_on_c, 9, 69, 0
35, 21300, Note_on_c, 9, 69, 54
35, 21314, Note_on_c, 9, 69, 0
35, 21360, Note_on_c, 9, 69, 84
35, 21374, Note_on_c, 9, 69, 0
35, 22680, Note_on_c, 9, 69, 74
35, 22694, Note_on_c, 9, 69, 0
35, 22740, Note_on_c, 9, 69, 54
35, 22754, Note_on_c, 9, 69, 0
35, 22800, Note_on_c, 9, 69, 84
35, 22814, Note_on_c, 9, 69, 0
35, 24120, Note_on_c, 9, 69, 74
35, 24134, Note_on_c, 9, 69, 0
35, 24180, Note_on_c, 9, 69, 54
35, 24194, Note_on_c, 9, 69, 0
35, 24240, Note_on_c, 9, 69, 84
35, 24254, Note_on_c, 9, 69, 0
35, 25560, Note_on_c, 9, 69, 74
35, 25574, Note_on_c, 9, 69, 0
35, 25620, Note_on_c, 9, 69, 54
35, 25634, Note_on_c, 9, 69, 0
35, 25680, Note_on_c, 9, 69, 84
35, 25694, Note_on_c, 9, 69, 0
35, 27000, Note_on_c, 9, 69, 74
35, 27014, Note_on_c, 9, 69, 0
35, 27060, Note_on_c, 9, 69, 54
35, 27074, Note_on_c, 9, 69, 0
35, 27120, Note_on_c, 9, 69, 84
35, 27134, Note_on_c, 9, 69, 0
35, 28440, Note_on_c, 9, 69, 74
35, 28454, Note_on_c, 9, 69, 0
35, 28500, Note_on_c, 9, 69, 54
35, 28514, Note_on_c, 9, 69, 0
35, 28560, Note_on_c, 9, 69, 84
35, 28574, Note_on_c, 9, 69, 0
35, 29880, Note_on_c, 9, 69, 74
35, 29894, Note_on_c, 9, 69, 0
35, 29940, Note_on_c, 9, 69, 54
35, 29954, Note_on_c, 9, 69, 0
35, 30000, Note_on_c, 9, 69, 84
35, 30014, Note_on_c, 9, 69, 0
35, 31680, Note_on_c, 9, 69, 44
35, 31694, Note_on_c, 9, 69, 0
35, 31740, Note_on_c, 9, 69, 34
35, 31754, Note_on_c, 9, 69, 0
35, 31800, Note_on_c, 9, 69, 59
35, 31814, Note_on_c, 9, 69, 0
35, 31860, Note_on_c, 9, 69, 44
35, 31874, Note_on_c, 9, 69, 0
35, 31920, Note_on_c, 9, 69, 64
35, 31934, Note_on_c, 9, 69, 0
35, 31980, Note_on_c, 9, 69, 74
35, 31994, Note_on_c, 9, 69, 0
35, 32040, Note_on_c, 9, 69, 44
35, 32054, Note_on_c, 9, 69, 0
35, 32100, Note_on_c, 9, 69, 44
35, 32114, Note_on_c, 9, 69, 0
35, 32160, Note_on_c, 9, 69, 59
35, 32174, Note_on_c, 9, 69, 0
35, 32220, Note_on_c, 9, 69, 44
35, 32234, Note_on_c, 9, 69, 0
35, 32280, Note_on_c, 9, 69, 59
35, 32294, Note_on_c, 9, 69, 0
35, 32340, Note_on_c, 9, 69, 74
35, 32354, Note_on_c, 9, 69, 0
35, 32400, Note_on_c, 9, 69, 44
35, 32414, Note_on_c, 9, 69, 0
35, 32460, Note_on_c, 9, 69, 34
35, 32474, Note_on_c, 9, 69, 0
35, 32520, Note_on_c, 9, 69, 59
35, 32534, Note_on_c, 9, 69, 0
35, 32580, Note_on_c, 9, 69, 44
35, 32594, Note_on_c, 9, 69, 0
35, 32640, Note_on_c, 9, 69, 64
35, 32654, Note_on_c, 9, 69, 0
35, 32700, Note_on_c, 9, 69, 74
35, 32714, Note_on_c, 9, 69, 0
35, 32760, Note_on_c, 9, 69, 44
35, 32774, Note_on_c, 9, 69, 0
35, 32820, Note_on_c, 9, 69, 44
35, 32834, Note_on_c, 9, 69, 0
35, 32880, Note_on_c, 9, 69, 59
35, 32894, Note_on_c, 9, 69, 0
35, 32940, Note_on_c, 9, 69, 44
35, 32954, Note_on_c, 9, 69, 0
35, 33000, Note_on_c, 9, 69, 59
35, 33014, Note_on_c, 9, 69, 0
35, 33060, Note_on_c, 9, 69, 74
35, 33074, Note_on_c, 9, 69, 0
35, 33120, Note_on_c, 9, 69, 44
35, 33134, Note_on_c, 9, 69, 0
35, 33180, Note_on_c, 9, 69, 34
35, 33194, Note_on_c, 9, 69, 0
35, 33240, Note_on_c, 9, 69, 59
35, 33254, Note_on_c, 9, 69, 0
35, 33300, Note_on_c, 9, 69, 44
35, 33314, Note_on_c, 9, 69, 0
35, 33360, Note_on_c, 9, 69, 64
35, 33374, Note_on_c, 9, 69, 0
35, 33420, Note_on_c, 9, 69, 74
35, 33434, Note_on_c, 9, 69, 0
35, 33480, Note_on_c, 9, 69, 44
35, 33494, Note_on_c, 9, 69, 0
35, 33540, Note_on_c, 9, 69, 44
35, 33554, Note_on_c, 9, 69, 0
35, 33600, Note_on_c, 9, 69, 59
35, 33614, Note_on_c, 9, 69, 0
35, 33660, Note_on_c, 9, 69, 44
35, 33674, Note_on_c, 9, 69, 0
35, 33720, Note_on_c, 9, 69, 59
35, 33734, Note_on_c, 9, 69, 0
35, 33780, Note_on_c, 9, 69, 74
35, 33794, Note_on_c, 9, 69, 0
35, 33840, Note_on_c, 9, 69, 44
35, 33854, Note_on_c, 9, 69, 0
35, 33900, Note_on_c, 9, 69, 34
35, 33914, Note_on_c, 9, 69, 0
35, 33960, Note_on_c, 9, 69, 59
35, 33974, Note_on_c, 9, 69, 0
35, 34020, Note_on_c, 9, 69, 44
35, 34034, Note_on_c, 9, 69, 0
35, 34080, Note_on_c, 9, 69, 64
35, 34094, Note_on_c, 9, 69, 0
35, 34140, Note_on_c, 9, 69, 74
35, 34154, Note_on_c, 9, 69, 0
35, 34200, Note_on_c, 9, 69, 44
35, 34214, Note_on_c, 9, 69, 0
35, 34260, Note_on_c, 9, 69, 44
35, 34274, Note_on_c, 9, 69, 0
35, 34320, Note_on_c, 9, 69, 59
35, 34334, Note_on_c, 9, 69, 0
35, 34380, Note_on_c, 9, 69, 44
35, 34394, Note_on_c, 9, 69, 0
35, 34440, Note_on_c, 9, 69, 59
35, 34454, Note_on_c, 9, 69, 0
35, 34500, Note_on_c, 9, 69, 74
35, 34514, Note_on_c, 9, 69, 0
35, 34560, Note_on_c, 9, 69, 44
35, 34574, Note_on_c, 9, 69, 0
35, 34620, Note_on_c, 9, 69, 34
35, 34634, Note_on_c, 9, 69, 0
35, 34680, Note_on_c, 9, 69, 59
35, 34694, Note_on_c, 9, 69, 0
35, 34740, Note_on_c, 9, 69, 44
35, 34754, Note_on_c, 9, 69, 0
35, 34800, Note_on_c, 9, 69, 64
35, 34814, Note_on_c, 9, 69, 0
35, 34860, Note_on_c, 9, 69, 74
35, 34874, Note_on_c, 9, 69, 0
35, 34920, Note_on_c, 9, 69, 44
35, 34934, Note_on_c, 9, 69, 0
35, 34980, Note_on_c, 9, 69, 44
35, 34994, Note_on_c, 9, 69, 0
35, 35040, Note_on_c, 9, 69, 59
35, 35054, Note_on_c, 9, 69, 0
35, 35100, Note_on_c, 9, 69, 44
35, 35114, Note_on_c, 9, 69, 0
35, 35160, Note_on_c, 9, 69, 59
35, 35174, Note_on_c, 9, 69, 0
35, 35220, Note_on_c, 9, 69, 74
35, 35234, Note_on_c, 9, 69, 0
35, 35280, Note_on_c, 9, 69, 44
35, 35294, Note_on_c, 9, 69, 0
35, 35340, Note_on_c, 9, 69, 34
35, 35354, Note_on_c, 9, 69, 0
35, 35400, Note_on_c, 9, 69, 59
35, 35414, Note_on_c, 9, 69, 0
35, 35460, Note_on_c, 9, 69, 44
35, 35474, Note_on_c, 9, 69, 0
35, 35520, Note_on_c, 9, 69, 64
35, 35534, Note_on_c, 9, 69, 0
35, 35580, Note_on_c, 9, 69, 74
35, 35594, Note_on_c, 9, 69, 0
35, 35640, Note_on_c, 9, 69, 44
35, 35654, Note_on_c, 9, 69, 0
35, 35700, Note_on_c, 9, 69, 44
35, 35714, Note_on_c, 9, 69, 0
35, 35760, Note_on_c, 9, 69, 59
35, 35774, Note_on_c, 9, 69, 0
35, 35820, Note_on_c, 9, 69, 44
35, 35834, Note_on_c, 9, 69, 0
35, 35880, Note_on_c, 9, 69, 59
35, 35894, Note_on_c, 9, 69, 0
35, 35940, Note_on_c, 9, 69, 74
35, 35954, Note_on_c, 9, 69, 0
35, 36000, Note_on_c, 9, 69, 44
35, 36014, Note_on_c, 9, 69, 0
35, 36060, Note_on_c, 9, 69, 34
35, 36074, Note_on_c, 9, 69, 0
35, 36120, Note_on_c, 9, 69, 59
35, 36134, Note_on_c, 9, 69, 0
35, 36180, Note_on_c, 9, 69, 44
35, 36194, Note_on_c, 9, 69, 0
35, 36240, Note_on_c, 9, 69, 64
35, 36254, Note_on_c, 9, 69, 0
35, 36300, Note_on_c, 9, 69, 74
35, 36314, Note_on_c, 9, 69, 0
35, 36360, Note_on_c, 9, 69, 44
35, 36374, Note_on_c, 9, 69, 0
35, 36420, Note_on_c, 9, 69, 44
35, 36434, Note_on_c, 9, 69, 0
35, 36480, Note_on_c, 9, 69, 59
35, 36494, Note_on_c, 9, 69, 0
35, 36540, Note_on_c, 9, 69, 44
35, 36554, Note_on_c, 9, 69, 0
35, 36600, Note_on_c, 9, 69, 59
35, 36614, Note_on_c, 9, 69, 0
35, 36660, Note_on_c, 9, 69, 74
35, 36674, Note_on_c, 9, 69, 0
35, 36720, Note_on_c, 9, 69, 44
35, 36734, Note_on_c, 9, 69, 0
35, 36780, Note_on_c, 9, 69, 34
35, 36794, Note_on_c, 9, 69, 0
35, 36840, Note_on_c, 9, 69, 59
35, 36854, Note_on_c, 9, 69, 0
35, 36900, Note_on_c, 9, 69, 44
35, 36914, Note_on_c, 9, 69, 0
35, 36960, Note_on_c, 9, 69, 64
35, 36974, Note_on_c, 9, 69, 0
35, 37020, Note_on_c, 9, 69, 74
35, 37034, Note_on_c, 9, 69, 0
35, 37080, Note_on_c, 9, 69, 44
35, 37094, Note_on_c, 9, 69, 0
35, 37140, Note_on_c, 9, 69, 44
35, 37154, Note_on_c, 9, 69, 0
35, 37200, Note_on_c, 9, 69, 59
35, 37214, Note_on_c, 9, 69, 0
35, 37260, Note_on_c, 9, 69, 44
35, 37274, Note_on_c, 9, 69, 0
35, 37320, Note_on_c, 9, 69, 59
35, 37334, Note_on_c, 9, 69, 0
35, 37380, Note_on_c, 9, 69, 74
35, 37394, Note_on_c, 9, 69, 0
35, 38160, Note_on_c, 9, 69, 54
35, 38174, Note_on_c, 9, 69, 0
35, 38220, Note_on_c, 9, 69, 89
35, 38227, Note_on_c, 9, 69, 0
35, 38340, Note_on_c, 9, 69, 74
35, 38354, Note_on_c, 9, 69, 0
35, 38460, Note_on_c, 9, 69, 64
35, 38474, Note_on_c, 9, 69, 0
35, 38580, Note_on_c, 9, 69, 54
35, 38594, Note_on_c, 9, 69, 0
35, 38700, Note_on_c, 9, 69, 44
35, 38714, Note_on_c, 9, 69, 0
35, 41310, Note_on_c, 9, 69, 64
35, 41324, Note_on_c, 9, 69, 0
35, 41340, Note_on_c, 9, 69, 64
35, 41354, Note_on_c, 9, 69, 0
35, 41370, Note_on_c, 9, 69, 34
35, 41377, Note_on_c, 9, 69, 0
35, 41400, Note_on_c, 9, 69, 84
35, 41414, Note_on_c, 9, 69, 0
35, 42480, Note_on_c, 9, 69, 54
35, 42487, Note_on_c, 9, 69, 0
35, 42540, Note_on_c, 9, 69, 74
35, 42554, Note_on_c, 9, 69, 0
35, 42600, Note_on_c, 9, 69, 54
35, 42607, Note_on_c, 9, 69, 0
35, 45300, Note_on_c, 9, 69, 74
35, 45314, Note_on_c, 9, 69, 0
35, 45360, Note_on_c, 9, 69, 54
35, 45374, Note_on_c, 9, 69, 0
35, 45420, Note_on_c, 9, 69, 44
35, 45434, Note_on_c, 9, 69, 0
35, 45480, Note_on_c, 9, 69, 74
35, 45494, Note_on_c, 9, 69, 0
35, 45540, Note_on_c, 9, 69, 74
35, 45554, Note_on_c, 9, 69, 0
35, 45600, Note_on_c, 9, 69, 54
35, 45614, Note_on_c, 9, 69, 0
35, 45660, Note_on_c, 9, 69, 64
35, 45674, Note_on_c, 9, 69, 0
35, 45720, Note_on_c, 9, 69, 32
35, 45734, Note_on_c, 9, 69, 0
35, 50040, Note_on_c, 9, 69, 74
35, 50054, Note_on_c, 9, 69, 0
35, 50100, Note_on_c, 9, 69, 54
35, 50114, Note_on_c, 9, 69, 0
35, 50160, Note_on_c, 9, 69, 84
35, 50174, Note_on_c, 9, 69, 0
35, 51480, Note_on_c, 9, 69, 74
35, 51494, Note_on_c, 9, 69, 0
35, 51540, Note_on_c, 9, 69, 54
35, 51554, Note_on_c, 9, 69, 0
35, 51600, Note_on_c, 9, 69, 84
35, 51614, Note_on_c, 9, 69, 0
35, 52920, Note_on_c, 9, 69, 74
35, 52934, Note_on_c, 9, 69, 0
35, 52980, Note_on_c, 9, 69, 54
35, 52994, Note_on_c, 9, 69, 0
35, 53040, Note_on_c, 9, 69, 84
35, 53054, Note_on_c, 9, 69, 0
35, 54360, Note_on_c, 9, 69, 74
35, 54374, Note_on_c, 9, 69, 0
35, 54420, Note_on_c, 9, 69, 54
35, 54434, Note_on_c, 9, 69, 0
35, 54480, Note_on_c, 9, 69, 84
35, 54494, Note_on_c, 9, 69, 0
35, 55800, Note_on_c, 9, 69, 74
35, 55814, Note_on_c, 9, 69, 0
35, 55860, Note_on_c, 9, 69, 54
35, 55874, Note_on_c, 9, 69, 0
35, 55920, Note_on_c, 9, 69, 84
35, 55934, Note_on_c, 9, 69, 0
35, 57240, Note_on_c, 9, 69, 74
35, 57254, Note_on_c, 9, 69, 0
35, 57300, Note_on_c, 9, 69, 54
35, 57314, Note_on_c, 9, 69, 0
35, 57360, Note_on_c, 9, 69, 84
35, 57374, Note_on_c, 9, 69, 0
35, 58680, Note_on_c, 9, 69, 74
35, 58694, Note_on_c, 9, 69, 0
35, 58740, Note_on_c, 9, 69, 54
35, 58754, Note_on_c, 9, 69, 0
35, 58800, Note_on_c, 9, 69, 84
35, 58814, Note_on_c, 9, 69, 0
35, 60120, Note_on_c, 9, 69, 74
35, 60134, Note_on_c, 9, 69, 0
35, 60180, Note_on_c, 9, 69, 54
35, 60194, Note_on_c, 9, 69, 0
35, 60240, Note_on_c, 9, 69, 84
35, 60254, Note_on_c, 9, 69, 0
35, 61020, Note_on_c, 9, 69, 74
35, 61034, Note_on_c, 9, 69, 0
35, 61080, Note_on_c, 9, 69, 54
35, 61094, Note_on_c, 9, 69, 0
35, 61140, Note_on_c, 9, 69, 84
35, 61154, Note_on_c, 9, 69, 0
35, 62460, Note_on_c, 9, 69, 74
35, 62474, Note_on_c, 9, 69, 0
35, 62520, Note_on_c, 9, 69, 54
35, 62534, Note_on_c, 9, 69, 0
35, 62580, Note_on_c, 9, 69, 84
35, 62594, Note_on_c, 9, 69, 0
35, 63900, Note_on_c, 9, 69, 74
35, 63914, Note_on_c, 9, 69, 0
35, 63960, Note_on_c, 9, 69, 54
35, 63974, Note_on_c, 9, 69, 0
35, 64020, Note_on_c, 9, 69, 84
35, 64034, Note_on_c, 9, 69, 0
35, 65340, Note_on_c, 9, 69, 74
35, 65354, Note_on_c, 9, 69, 0
35, 65400, Note_on_c, 9, 69, 54
35, 65414, Note_on_c, 9, 69, 0
35, 65460, Note_on_c, 9, 69, 84
35, 65474, Note_on_c, 9, 69, 0
35, 66780, Note_on_c, 9, 69, 74
35, 66794, Note_on_c, 9, 69, 0
35, 66840, Note_on_c, 9, 69, 54
35, 66854, Note_on_c, 9, 69, 0
35, 66900, Note_on_c, 9, 69, 84
35, 66914, Note_on_c, 9, 69, 0
35, 68220, Note_on_c, 9, 69, 74
35, 68234, Note_on_c, 9, 69, 0
35, 68280, Note_on_c, 9, 69, 54
35, 68294, Note_on_c, 9, 69, 0
35, 68340, Note_on_c, 9, 69, 84
35, 68354, Note_on_c, 9, 69, 0
35, 69120, Note_on_c, 9, 69, 44
35, 69134, Note_on_c, 9, 69, 0
35, 69180, Note_on_c, 9, 69, 34
35, 69194, Note_on_c, 9, 69, 0
35, 69240, Note_on_c, 9, 69, 59
35, 69254, Note_on_c, 9, 69, 0
35, 69300, Note_on_c, 9, 69, 44
35, 69314, Note_on_c, 9, 69, 0
35, 69360, Note_on_c, 9, 69, 64
35, 69374, Note_on_c, 9, 69, 0
35, 69420, Note_on_c, 9, 69, 74
35, 69434, Note_on_c, 9, 69, 0
35, 69480, Note_on_c, 9, 69, 44
35, 69494, Note_on_c, 9, 69, 0
35, 69540, Note_on_c, 9, 69, 44
35, 69554, Note_on_c, 9, 69, 0
35, 69600, Note_on_c, 9, 69, 59
35, 69614, Note_on_c, 9, 69, 0
35, 69660, Note_on_c, 9, 69, 44
35, 69674, Note_on_c, 9, 69, 0
35, 69720, Note_on_c, 9, 69, 59
35, 69734, Note_on_c, 9, 69, 0
35, 69780, Note_on_c, 9, 69, 74
35, 69794, Note_on_c, 9, 69, 0
35, 69840, Note_on_c, 9, 69, 44
35, 69854, Note_on_c, 9, 69, 0
35, 69900, Note_on_c, 9, 69, 34
35, 69914, Note_on_c, 9, 69, 0
35, 69960, Note_on_c, 9, 69, 59
35, 69974, Note_on_c, 9, 69, 0
35, 70020, Note_on_c, 9, 69, 44
35, 70034, Note_on_c, 9, 69, 0
35, 70080, Note_on_c, 9, 69, 64
35, 70094, Note_on_c, 9, 69, 0
35, 70140, Note_on_c, 9, 69, 74
35, 70154, Note_on_c, 9, 69, 0
35, 70200, Note_on_c, 9, 69, 44
35, 70214, Note_on_c, 9, 69, 0
35, 70260, Note_on_c, 9, 69, 44
35, 70274, Note_on_c, 9, 69, 0
35, 70320, Note_on_c, 9, 69, 59
35, 70334, Note_on_c, 9, 69, 0
35, 70380, Note_on_c, 9, 69, 44
35, 70394, Note_on_c, 9, 69, 0
35, 70440, Note_on_c, 9, 69, 59
35, 70454, Note_on_c, 9, 69, 0
35, 70500, Note_on_c, 9, 69, 74
35, 70514, Note_on_c, 9, 69, 0
35, 70560, Note_on_c, 9, 69, 44
35, 70574, Note_on_c, 9, 69, 0
35, 70620, Note_on_c, 9, 69, 34
35, 70634, Note_on_c, 9, 69, 0
35, 70680, Note_on_c, 9, 69, 59
35, 70694, Note_on_c, 9, 69, 0
35, 70740, Note_on_c, 9, 69, 44
35, 70754, Note_on_c, 9, 69, 0
35, 70800, Note_on_c, 9, 69, 64
35, 70814, Note_on_c, 9, 69, 0
35, 70860, Note_on_c, 9, 69, 74
35, 70874, Note_on_c, 9, 69, 0
35, 70920, Note_on_c, 9, 69, 44
35, 70934, Note_on_c, 9, 69, 0
35, 70980, Note_on_c, 9, 69, 44
35, 70994, Note_on_c, 9, 69, 0
35, 71040, Note_on_c, 9, 69, 59
35, 71054, Note_on_c, 9, 69, 0
35, 71100, Note_on_c, 9, 69, 44
35, 71114, Note_on_c, 9, 69, 0
35, 71160, Note_on_c, 9, 69, 59
35, 71174, Note_on_c, 9, 69, 0
35, 71220, Note_on_c, 9, 69, 74
35, 71234, Note_on_c, 9, 69, 0
35, 71280, Note_on_c, 9, 69, 44
35, 71294, Note_on_c, 9, 69, 0
35, 71340, Note_on_c, 9, 69, 34
35, 71354, Note_on_c, 9, 69, 0
35, 71400, Note_on_c, 9, 69, 59
35, 71414, Note_on_c, 9, 69, 0
35, 71460, Note_on_c, 9, 69, 44
35, 71474, Note_on_c, 9, 69, 0
35, 71520, Note_on_c, 9, 69, 64
35, 71534, Note_on_c, 9, 69, 0
35, 71580, Note_on_c, 9, 69, 74
35, 71594, Note_on_c, 9, 69, 0
35, 71640, Note_on_c, 9, 69, 44
35, 71654, Note_on_c, 9, 69, 0
35, 71700, Note_on_c, 9, 69, 44
35, 71714, Note_on_c, 9, 69, 0
35, 71760, Note_on_c, 9, 69, 59
35, 71774, Note_on_c, 9, 69, 0
35, 71820, Note_on_c, 9, 69, 44
35, 71834, Note_on_c, 9, 69, 0
35, 71880, Note_on_c, 9, 69, 59
35, 71894, Note_on_c, 9, 69, 0
35, 71940, Note_on_c, 9, 69, 74
35, 71954, Note_on_c, 9, 69, 0
35, 72000, Note_on_c, 9, 69, 44
35, 72014, Note_on_c, 9, 69, 0
35, 72060, Note_on_c, 9, 69, 34
35, 72074, Note_on_c, 9, 69, 0
35, 72120, Note_on_c, 9, 69, 59
35, 72134, Note_on_c, 9, 69, 0
35, 72180, Note_on_c, 9, 69, 44
35, 72194, Note_on_c, 9, 69, 0
35, 72240, Note_on_c, 9, 69, 64
35, 72254, Note_on_c, 9, 69, 0
35, 72300, Note_on_c, 9, 69, 74
35, 72314, Note_on_c, 9, 69, 0
35, 72360, Note_on_c, 9, 69, 44
35, 72374, Note_on_c, 9, 69, 0
35, 72420, Note_on_c, 9, 69, 44
35, 72434, Note_on_c, 9, 69, 0
35, 72480, Note_on_c, 9, 69, 59
35, 72494, Note_on_c, 9, 69, 0
35, 72540, Note_on_c, 9, 69, 44
35, 72554, Note_on_c, 9, 69, 0
35, 72600, Note_on_c, 9, 69, 59
35, 72614, Note_on_c, 9, 69, 0
35, 72660, Note_on_c, 9, 69, 74
35, 72674, Note_on_c, 9, 69, 0
35, 72720, Note_on_c, 9, 69, 44
35, 72734, Note_on_c, 9, 69, 0
35, 72780, Note_on_c, 9, 69, 34
35, 72794, Note_on_c, 9, 69, 0
35, 72840, Note_on_c, 9, 69, 59
35, 72854, Note_on_c, 9, 69, 0
35, 72900, Note_on_c, 9, 69, 44
35, 72914, Note_on_c, 9, 69, 0
35, 72960, Note_on_c, 9, 69, 64
35, 72974, Note_on_c, 9, 69, 0
35, 73020, Note_on_c, 9, 69, 74
35, 73034, Note_on_c, 9, 69, 0
35, 73080, Note_on_c, 9, 69, 44
35, 73094, Note_on_c, 9, 69, 0
35, 73140, Note_on_c, 9, 69, 44
35, 73154, Note_on_c, 9, 69, 0
35, 73200, Note_on_c, 9, 69, 59
35, 73214, Note_on_c, 9, 69, 0
35, 73260, Note_on_c, 9, 69, 44
35, 73274, Note_on_c, 9, 69, 0
35, 73320, Note_on_c, 9, 69, 59
35, 73334, Note_on_c, 9, 69, 0
35, 73380, Note_on_c, 9, 69, 74
35, 73394, Note_on_c, 9, 69, 0
35, 73440, Note_on_c, 9, 69, 44
35, 73454, Note_on_c, 9, 69, 0
35, 73500, Note_on_c, 9, 69, 34
35, 73514, Note_on_c, 9, 69, 0
35, 73560, Note_on_c, 9, 69, 59
35, 73574, Note_on_c, 9, 69, 0
35, 73620, Note_on_c, 9, 69, 44
35, 73634, Note_on_c, 9, 69, 0
35, 73680, Note_on_c, 9, 69, 64
35, 73694, Note_on_c, 9, 69, 0
35, 73740, Note_on_c, 9, 69, 74
35, 73754, Note_on_c, 9, 69, 0
35, 73800, Note_on_c, 9, 69, 44
35, 73814, Note_on_c, 9, 69, 0
35, 73860, Note_on_c, 9, 69, 44
35, 73874, Note_on_c, 9, 69, 0
35, 73920, Note_on_c, 9, 69, 59
35, 73934, Note_on_c, 9, 69, 0
35, 73980, Note_on_c, 9, 69, 44
35, 73994, Note_on_c, 9, 69, 0
35, 74040, Note_on_c, 9, 69, 59
35, 74054, Note_on_c, 9, 69, 0
35, 74100, Note_on_c, 9, 69, 74
35, 74114, Note_on_c, 9, 69, 0
35, 74160, Note_on_c, 9, 69, 44
35, 74174, Note_on_c, 9, 69, 0
35, 74220, Note_on_c, 9, 69, 34
35, 74234, Note_on_c, 9, 69, 0
35, 74280, Note_on_c, 9, 69, 59
35, 74294, Note_on_c, 9, 69, 0
35, 74340, Note_on_c, 9, 69, 44
35, 74354, Note_on_c, 9, 69, 0
35, 74400, Note_on_c, 9, 69, 64
35, 74414, Note_on_c, 9, 69, 0
35, 74460, Note_on_c, 9, 69, 74
35, 74474, Note_on_c, 9, 69, 0
35, 74520, Note_on_c, 9, 69, 44
35, 74534, Note_on_c, 9, 69, 0
35, 74580, Note_on_c, 9, 69, 44
35, 74594, Note_on_c, 9, 69, 0
35, 74640, Note_on_c, 9, 69, 59
35, 74654, Note_on_c, 9, 69, 0
35, 74700, Note_on_c, 9, 69, 44
35, 74714, Note_on_c, 9, 69, 0
35, 74760, Note_on_c, 9, 69, 59
35, 74774, Note_on_c, 9, 69, 0
35, 74820, Note_on_c, 9, 69, 74
35, 74834, Note_on_c, 9, 69, 0
35, 75960, Note_on_c, 9, 69, 74
35, 75974, Note_on_c, 9, 69, 0
35, 76020, Note_on_c, 9, 69, 54
35, 76034, Note_on_c, 9, 69, 0
35, 76080, Note_on_c, 9, 69, 84
35, 76094, Note_on_c, 9, 69, 0
35, 77400, Note_on_c, 9, 69, 74
35, 77414, Note_on_c, 9, 69, 0
35, 77460, Note_on_c, 9, 69, 54
35, 77474, Note_on_c, 9, 69, 0
35, 77520, Note_on_c, 9, 69, 84
35, 77534, Note_on_c, 9, 69, 0
35, 78840, Note_on_c, 9, 69, 74
35, 78854, Note_on_c, 9, 69, 0
35, 78900, Note_on_c, 9, 69, 54
35, 78914, Note_on_c, 9, 69, 0
35, 78960, Note_on_c, 9, 69, 84
35, 78974, Note_on_c, 9, 69, 0
35, 80280, Note_on_c, 9, 69, 74
35, 80294, Note_on_c, 9, 69, 0
35, 80340, Note_on_c, 9, 69, 54
35, 80354, Note_on_c, 9, 69, 0
35, 80400, Note_on_c, 9, 69, 84
35, 80414, Note_on_c, 9, 69, 0
35, 81720, Note_on_c, 9, 69, 74
35, 81734, Note_on_c, 9, 69, 0
35, 81780, Note_on_c, 9, 69, 54
35, 81794, Note_on_c, 9, 69, 0
35, 81840, Note_on_c, 9, 69, 84
35, 81854, Note_on_c, 9, 69, 0
35, 83160, Note_on_c, 9, 69, 74
35, 83174, Note_on_c, 9, 69, 0
35, 83220, Note_on_c, 9, 69, 54
35, 83234, Note_on_c, 9, 69, 0
35, 83280, Note_on_c, 9, 69, 84
35, 83294, Note_on_c, 9, 69, 0
35, 84600, Note_on_c, 9, 69, 74
35, 84614, Note_on_c, 9, 69, 0
35, 84660, Note_on_c, 9, 69, 54
35, 84674, Note_on_c, 9, 69, 0
35, 84720, Note_on_c, 9, 69, 84
35, 84734, Note_on_c, 9, 69, 0
35, 86400, Note_on_c, 9, 69, 44
35, 86414, Note_on_c, 9, 69, 0
35, 86460, Note_on_c, 9, 69, 34
35, 86474, Note_on_c, 9, 69, 0
35, 86520, Note_on_c, 9, 69, 59
35, 86534, Note_on_c, 9, 69, 0
35, 86580, Note_on_c, 9, 69, 44
35, 86594, Note_on_c, 9, 69, 0
35, 86640, Note_on_c, 9, 69, 64
35, 86654, Note_on_c, 9, 69, 0
35, 86700, Note_on_c, 9, 69, 74
35, 86714, Note_on_c, 9, 69, 0
35, 86760, Note_on_c, 9, 69, 44
35, 86774, Note_on_c, 9, 69, 0
35, 86820, Note_on_c, 9, 69, 44
35, 86834, Note_on_c, 9, 69, 0
35, 86880, Note_on_c, 9, 69, 59
35, 86894, Note_on_c, 9, 69, 0
35, 86940, Note_on_c, 9, 69, 44
35, 86954, Note_on_c, 9, 69, 0
35, 87000, Note_on_c, 9, 69, 59
35, 87014, Note_on_c, 9, 69, 0
35, 87060, Note_on_c, 9, 69, 74
35, 87074, Note_on_c, 9, 69, 0
35, 87120, Note_on_c, 9, 69, 44
35, 87134, Note_on_c, 9, 69, 0
35, 87180, Note_on_c, 9, 69, 34
35, 87194, Note_on_c, 9, 69, 0
35, 87240, Note_on_c, 9, 69, 59
35, 87254, Note_on_c, 9, 69, 0
35, 87300, Note_on_c, 9, 69, 44
35, 87314, Note_on_c, 9, 69, 0
35, 87360, Note_on_c, 9, 69, 64
35, 87374, Note_on_c, 9, 69, 0
35, 87420, Note_on_c, 9, 69, 74
35, 87434, Note_on_c, 9, 69, 0
35, 87480, Note_on_c, 9, 69, 44
35, 87494, Note_on_c, 9, 69, 0
35, 87540, Note_on_c, 9, 69, 44
35, 87554, Note_on_c, 9, 69, 0
35, 87600, Note_on_c, 9, 69, 59
35, 87614, Note_on_c, 9, 69, 0
35, 87660, Note_on_c, 9, 69, 44
35, 87674, Note_on_c, 9, 69, 0
35, 87720, Note_on_c, 9, 69, 59
35, 87734, Note_on_c, 9, 69, 0
35, 87780, Note_on_c, 9, 69, 74
35, 87794, Note_on_c, 9, 69, 0
35, 87840, Note_on_c, 9, 69, 44
35, 87854, Note_on_c, 9, 69, 0
35, 87900, Note_on_c, 9, 69, 34
35, 87914, Note_on_c, 9, 69, 0
35, 87960, Note_on_c, 9, 69, 59
35, 87974, Note_on_c, 9, 69, 0
35, 88020, Note_on_c, 9, 69, 44
35, 88034, Note_on_c, 9, 69, 0
35, 88080, Note_on_c, 9, 69, 64
35, 88094, Note_on_c, 9, 69, 0
35, 88140, Note_on_c, 9, 69, 74
35, 88154, Note_on_c, 9, 69, 0
35, 88200, Note_on_c, 9, 69, 44
35, 88214, Note_on_c, 9, 69, 0
35, 88260, Note_on_c, 9, 69, 44
35, 88274, Note_on_c, 9, 69, 0
35, 88320, Note_on_c, 9, 69, 59
35, 88334, Note_on_c, 9, 69, 0
35, 88380, Note_on_c, 9, 69, 44
35, 88394, Note_on_c, 9, 69, 0
35, 88440, Note_on_c, 9, 69, 59
35, 88454, Note_on_c, 9, 69, 0
35, 88500, Note_on_c, 9, 69, 74
35, 88514, Note_on_c, 9, 69, 0
35, 88560, Note_on_c, 9, 69, 44
35, 88574, Note_on_c, 9, 69, 0
35, 88620, Note_on_c, 9, 69, 34
35, 88634, Note_on_c, 9, 69, 0
35, 88680, Note_on_c, 9, 69, 59
35, 88694, Note_on_c, 9, 69, 0
35, 88740, Note_on_c, 9, 69, 44
35, 88754, Note_on_c, 9, 69, 0
35, 88800, Note_on_c, 9, 69, 64
35, 88814, Note_on_c, 9, 69, 0
35, 88860, Note_on_c, 9, 69, 74
35, 88874, Note_on_c, 9, 69, 0
35, 88920, Note_on_c, 9, 69, 44
35, 88934, Note_on_c, 9, 69, 0
35, 88980, Note_on_c, 9, 69, 44
35, 88994, Note_on_c, 9, 69, 0
35, 89040, Note_on_c, 9, 69, 59
35, 89054, Note_on_c, 9, 69, 0
35, 89100, Note_on_c, 9, 69, 44
35, 89114, Note_on_c, 9, 69, 0
35, 89160, Note_on_c, 9, 69, 59
35, 89174, Note_on_c, 9, 69, 0
35, 89220, Note_on_c, 9, 69, 74
35, 89234, Note_on_c, 9, 69, 0
35, 89280, Note_on_c, 9, 69, 44
35, 89294, Note_on_c, 9, 69, 0
35, 89340, Note_on_c, 9, 69, 34
35, 89354, Note_on_c, 9, 69, 0
35, 89400, Note_on_c, 9, 69, 59
35, 89414, Note_on_c, 9, 69, 0
35, 89460, Note_on_c, 9, 69, 44
35, 89474, Note_on_c, 9, 69, 0
35, 89520, Note_on_c, 9, 69, 64
35, 89534, Note_on_c, 9, 69, 0
35, 89580, Note_on_c, 9, 69, 74
35, 89594, Note_on_c, 9, 69, 0
35, 89640, Note_on_c, 9, 69, 44
35, 89654, Note_on_c, 9, 69, 0
35, 89700, Note_on_c, 9, 69, 44
35, 89714, Note_on_c, 9, 69, 0
35, 89760, Note_on_c, 9, 69, 59
35, 89774, Note_on_c, 9, 69, 0
35, 89820, Note_on_c, 9, 69, 44
35, 89834, Note_on_c, 9, 69, 0
35, 89880, Note_on_c, 9, 69, 59
35, 89894, Note_on_c, 9, 69, 0
35, 89940, Note_on_c, 9, 69, 74
35, 89954, Note_on_c, 9, 69, 0
35, 90000, Note_on_c, 9, 69, 44
35, 90014, Note_on_c, 9, 69, 0
35, 90060, Note_on_c, 9, 69, 34
35, 90074, Note_on_c, 9, 69, 0
35, 90120, Note_on_c, 9, 69, 59
35, 90134, Note_on_c, 9, 69, 0
35, 90180, Note_on_c, 9, 69, 44
35, 90194, Note_on_c, 9, 69, 0
35, 90240, Note_on_c, 9, 69, 64
35, 90254, Note_on_c, 9, 69, 0
35, 90300, Note_on_c, 9, 69, 74
35, 90314, Note_on_c, 9, 69, 0
35, 90360, Note_on_c, 9, 69, 44
35, 90374, Note_on_c, 9, 69, 0
35, 90420, Note_on_c, 9, 69, 44
35, 90434, Note_on_c, 9, 69, 0
35, 90480, Note_on_c, 9, 69, 59
35, 90494, Note_on_c, 9, 69, 0
35, 90540, Note_on_c, 9, 69, 44
35, 90554, Note_on_c, 9, 69, 0
35, 90600, Note_on_c, 9, 69, 59
35, 90614, Note_on_c, 9, 69, 0
35, 90660, Note_on_c, 9, 69, 74
35, 90674, Note_on_c, 9, 69, 0
35, 90720, Note_on_c, 9, 69, 44
35, 90734, Note_on_c, 9, 69, 0
35, 90780, Note_on_c, 9, 69, 34
35, 90794, Note_on_c, 9, 69, 0
35, 90840, Note_on_c, 9, 69, 59
35, 90854, Note_on_c, 9, 69, 0
35, 90900, Note_on_c, 9, 69, 44
35, 90914, Note_on_c, 9, 69, 0
35, 90960, Note_on_c, 9, 69, 64
35, 90974, Note_on_c, 9, 69, 0
35, 91020, Note_on_c, 9, 69, 74
35, 91034, Note_on_c, 9, 69, 0
35, 91080, Note_on_c, 9, 69, 44
35, 91094, Note_on_c, 9, 69, 0
35, 91140, Note_on_c, 9, 69, 44
35, 91154, Note_on_c, 9, 69, 0
35, 91200, Note_on_c, 9, 69, 59
35, 91214, Note_on_c, 9, 69, 0
35, 91260, Note_on_c, 9, 69, 44
35, 91274, Note_on_c, 9, 69, 0
35, 91320, Note_on_c, 9, 69, 59
35, 91334, Note_on_c, 9, 69, 0
35, 91380, Note_on_c, 9, 69, 74
35, 91394, Note_on_c, 9, 69, 0
35, 91440, Note_on_c, 9, 69, 44
35, 91454, Note_on_c, 9, 69, 0
35, 91500, Note_on_c, 9, 69, 34
35, 91514, Note_on_c, 9, 69, 0
35, 91560, Note_on_c, 9, 69, 59
35, 91574, Note_on_c, 9, 69, 0
35, 91620, Note_on_c, 9, 69, 44
35, 91634, Note_on_c, 9, 69, 0
35, 91680, Note_on_c, 9, 69, 64
35, 91694, Note_on_c, 9, 69, 0
35, 91740, Note_on_c, 9, 69, 74
35, 91754, Note_on_c, 9, 69, 0
35, 91800, Note_on_c, 9, 69, 44
35, 91814, Note_on_c, 9, 69, 0
35, 91860, Note_on_c, 9, 69, 44
35, 91874, Note_on_c, 9, 69, 0
35, 91920, Note_on_c, 9, 69, 59
35, 91934, Note_on_c, 9, 69, 0
35, 91980, Note_on_c, 9, 69, 44
35, 91994, Note_on_c, 9, 69, 0
35, 92040, Note_on_c, 9, 69, 59
35, 92054, Note_on_c, 9, 69, 0
35, 92100, Note_on_c, 9, 69, 74
35, 92114, Note_on_c, 9, 69, 0
35, 92160, Note_on_c, 9, 69, 44
35, 92174, Note_on_c, 9, 69, 0
35, 92220, Note_on_c, 9, 69, 34
35, 92234, Note_on_c, 9, 69, 0
35, 92280, Note_on_c, 9, 69, 59
35, 92294, Note_on_c, 9, 69, 0
35, 92340, Note_on_c, 9, 69, 44
35, 92354, Note_on_c, 9, 69, 0
35, 92400, Note_on_c, 9, 69, 64
35, 92414, Note_on_c, 9, 69, 0
35, 92460, Note_on_c, 9, 69, 74
35, 92474, Note_on_c, 9, 69, 0
35, 92520, Note_on_c, 9, 69, 44
35, 92534, Note_on_c, 9, 69, 0
35, 92580, Note_on_c, 9, 69, 44
35, 92594, Note_on_c, 9, 69, 0
35, 92640, Note_on_c, 9, 69, 59
35, 92654, Note_on_c, 9, 69, 0
35, 92700, Note_on_c, 9, 69, 44
35, 92714, Note_on_c, 9, 69, 0
35, 92760, Note_on_c, 9, 69, 59
35, 92774, Note_on_c, 9, 69, 0
35, 92820, Note_on_c, 9, 69, 74
35, 92834, Note_on_c, 9, 69, 0
35, 92880, Note_on_c, 9, 69, 44
35, 92894, Note_on_c, 9, 69, 0
35, 92940, Note_on_c, 9, 69, 34
35, 92954, Note_on_c, 9, 69, 0
35, 93000, Note_on_c, 9, 69, 59
35, 93014, Note_on_c, 9, 69, 0
35, 93060, Note_on_c, 9, 69, 44
35, 93074, Note_on_c, 9, 69, 0
35, 93120, Note_on_c, 9, 69, 64
35, 93134, Note_on_c, 9, 69, 0
35, 93180, Note_on_c, 9, 69, 74
35, 93194, Note_on_c, 9, 69, 0
35, 93240, Note_on_c, 9, 69, 44
35, 93254, Note_on_c, 9, 69, 0
35, 93300, Note_on_c, 9, 69, 44
35, 93314, Note_on_c, 9, 69, 0
35, 93360, Note_on_c, 9, 69, 59
35, 93374, Note_on_c, 9, 69, 0
35, 93420, Note_on_c, 9, 69, 44
35, 93434, Note_on_c, 9, 69, 0
35, 93480, Note_on_c, 9, 69, 59
35, 93494, Note_on_c, 9, 69, 0
35, 93540, Note_on_c, 9, 69, 74
35, 93554, Note_on_c, 9, 69, 0
35, 93600, Note_on_c, 9, 69, 44
35, 93614, Note_on_c, 9, 69, 0
35, 93660, Note_on_c, 9, 69, 34
35, 93674, Note_on_c, 9, 69, 0
35, 93720, Note_on_c, 9, 69, 59
35, 93734, Note_on_c, 9, 69, 0
35, 93780, Note_on_c, 9, 69, 44
35, 93794, Note_on_c, 9, 69, 0
35, 93840, Note_on_c, 9, 69, 64
35, 93854, Note_on_c, 9, 69, 0
35, 93900, Note_on_c, 9, 69, 74
35, 93914, Note_on_c, 9, 69, 0
35, 93960, Note_on_c, 9, 69, 44
35, 93974, Note_on_c, 9, 69, 0
35, 94020, Note_on_c, 9, 69, 44
35, 94034, Note_on_c, 9, 69, 0
35, 94080, Note_on_c, 9, 69, 59
35, 94094, Note_on_c, 9, 69, 0
35, 94140, Note_on_c, 9, 69, 44
35, 94154, Note_on_c, 9, 69, 0
35, 94200, Note_on_c, 9, 69, 59
35, 94214, Note_on_c, 9, 69, 0
35, 94260, Note_on_c, 9, 69, 74
35, 94274, Note_on_c, 9, 69, 0
35, 94320, Note_on_c, 9, 69, 44
35, 94334, Note_on_c, 9, 69, 0
35, 94380, Note_on_c, 9, 69, 34
35, 94394, Note_on_c, 9, 69, 0
35, 94440, Note_on_c, 9, 69, 59
35, 94454, Note_on_c, 9, 69, 0
35, 94500, Note_on_c, 9, 69, 44
35, 94514, Note_on_c, 9, 69, 0
35, 94560, Note_on_c, 9, 69, 64
35, 94574, Note_on_c, 9, 69, 0
35, 94620, Note_on_c, 9, 69, 74
35, 94634, Note_on_c, 9, 69, 0
35, 94680, Note_on_c, 9, 69, 44
35, 94694, Note_on_c, 9, 69, 0
35, 94740, Note_on_c, 9, 69, 44
35, 94754, Note_on_c, 9, 69, 0
35, 94800, Note_on_c, 9, 69, 59
35, 94814, Note_on_c, 9, 69, 0
35, 94860, Note_on_c, 9, 69, 44
35, 94874, Note_on_c, 9, 69, 0
35, 94920, Note_on_c, 9, 69, 59
35, 94934, Note_on_c, 9, 69, 0
35, 94980, Note_on_c, 9, 69, 74
35, 94994, Note_on_c, 9, 69, 0
35, 95040, Note_on_c, 9, 69, 44
35, 95054, Note_on_c, 9, 69, 0
35, 95100, Note_on_c, 9, 69, 34
35, 95114, Note_on_c, 9, 69, 0
35, 95160, Note_on_c, 9, 69, 59
35, 95174, Note_on_c, 9, 69, 0
35, 95220, Note_on_c, 9, 69, 44
35, 95234, Note_on_c, 9, 69, 0
35, 95280, Note_on_c, 9, 69, 64
35, 95294, Note_on_c, 9, 69, 0
35, 95340, Note_on_c, 9, 69, 74
35, 95354, Note_on_c, 9, 69, 0
35, 95400, Note_on_c, 9, 69, 44
35, 95414, Note_on_c, 9, 69, 0
35, 95460, Note_on_c, 9, 69, 44
35, 95474, Note_on_c, 9, 69, 0
35, 95520, Note_on_c, 9, 69, 59
35, 95534, Note_on_c, 9, 69, 0
35, 95580, Note_on_c, 9, 69, 44
35, 95594, Note_on_c, 9, 69, 0
35, 95640, Note_on_c, 9, 69, 59
35, 95654, Note_on_c, 9, 69, 0
35, 95700, Note_on_c, 9, 69, 74
35, 95714, Note_on_c, 9, 69, 0
35, 95760, Note_on_c, 9, 69, 44
35, 95774, Note_on_c, 9, 69, 0
35, 95820, Note_on_c, 9, 69, 34
35, 95834, Note_on_c, 9, 69, 0
35, 95880, Note_on_c, 9, 69, 59
35, 95894, Note_on_c, 9, 69, 0
35, 95940, Note_on_c, 9, 69, 44
35, 95954, Note_on_c, 9, 69, 0
35, 96000, Note_on_c, 9, 69, 64
35, 96014, Note_on_c, 9, 69, 0
35, 96060, Note_on_c, 9, 69, 74
35, 96074, Note_on_c, 9, 69, 0
35, 96120, Note_on_c, 9, 69, 44
35, 96134, Note_on_c, 9, 69, 0
35, 96180, Note_on_c, 9, 69, 44
35, 96194, Note_on_c, 9, 69, 0
35, 96240, Note_on_c, 9, 69, 59
35, 96254, Note_on_c, 9, 69, 0
35, 96300, Note_on_c, 9, 69, 44
35, 96314, Note_on_c, 9, 69, 0
35, 96360, Note_on_c, 9, 69, 59
35, 96374, Note_on_c, 9, 69, 0
35, 96420, Note_on_c, 9, 69, 74
35, 96434, Note_on_c, 9, 69, 0
35, 96480, Note_on_c, 9, 69, 44
35, 96480, Note_on_c, 9, 69, 44
35, 96494, Note_on_c, 9, 69, 0
35, 96494, Note_on_c, 9, 69, 0
35, 96540, Note_on_c, 9, 69, 34
35, 96540, Note_on_c, 9, 69, 34
35, 96554, Note_on_c, 9, 69, 0
35, 96554, Note_on_c, 9, 69, 0
35, 96600, Note_on_c, 9, 69, 59
35, 96600, Note_on_c, 9, 69, 59
35, 96614, Note_on_c, 9, 69, 0
35, 96614, Note_on_c, 9, 69, 0
35, 96660, Note_on_c, 9, 69, 44
35, 96660, Note_on_c, 9, 69, 44
35, 96674, Note_on_c, 9, 69, 0
35, 96674, Note_on_c, 9, 69, 0
35, 96720, Note_on_c, 9, 69, 64
35, 96720, Note_on_c, 9, 69, 64
35, 96734, Note_on_c, 9, 69, 0
35, 96734, Note_on_c, 9, 69, 0
35, 96780, Note_on_c, 9, 69, 74
35, 96780, Note_on_c, 9, 69, 74
35, 96794, Note_on_c, 9, 69, 0
35, 96794, Note_on_c, 9, 69, 0
35, 96840, Note_on_c, 9, 69, 44
35, 96840, Note_on_c, 9, 69, 44
35, 96854, Note_on_c, 9, 69, 0
35, 96854, Note_on_c, 9, 69, 0
35, 96900, Note_on_c, 9, 69, 44
35, 96900, Note_on_c, 9, 69, 44
35, 96914, Note_on_c, 9, 69, 0
35, 96914, Note_on_c, 9, 69, 0
35, 96960, Note_on_c, 9, 69, 59
35, 96960, Note_on_c, 9, 69, 59
35, 96974, Note_on_c, 9, 69, 0
35, 96974, Note_on_c, 9, 69, 0
35, 97020, Note_on_c, 9, 69, 44
35, 97020, Note_on_c, 9, 69, 44
35, 97034, Note_on_c, 9, 69, 0
35, 97034, Note_on_c, 9, 69, 0
35, 97080, Note_on_c, 9, 69, 59
35, 97080, Note_on_c, 9, 69, 59
35, 97094, Note_on_c, 9, 69, 0
35, 97094, Note_on_c, 9, 69, 0
35, 97140, Note_on_c, 9, 69, 74
35, 97140, Note_on_c, 9, 69, 74
35, 97154, Note_on_c, 9, 69, 0
35, 97154, Note_on_c, 9, 69, 0
35, 97200, Note_on_c, 9, 69, 44
35, 97214, Note_on_c, 9, 69, 0
35, 97260, Note_on_c, 9, 69, 34
35, 97274, Note_on_c, 9, 69, 0
35, 97320, Note_on_c, 9, 69, 59
35, 97334, Note_on_c, 9, 69, 0
35, 97380, Note_on_c, 9, 69, 44
35, 97394, Note_on_c, 9, 69, 0
35, 97440, Note_on_c, 9, 69, 64
35, 97454, Note_on_c, 9, 69, 0
35, 97500, Note_on_c, 9, 69, 74
35, 97514, Note_on_c, 9, 69, 0
35, 97560, Note_on_c, 9, 69, 44
35, 97574, Note_on_c, 9, 69, 0
35, 97620, Note_on_c, 9, 69, 44
35, 97634, Note_on_c, 9, 69, 0
35, 97680, Note_on_c, 9, 69, 59
35, 97694, Note_on_c, 9, 69, 0
35, 97740, Note_on_c, 9, 69, 44
35, 97754, Note_on_c, 9, 69, 0
35, 97800, Note_on_c, 9, 69, 59
35, 97814, Note_on_c, 9, 69, 0
35, 97860, Note_on_c, 9, 69, 74
35, 97874, Note_on_c, 9, 69, 0
35, 97920, Note_on_c, 9, 69, 44
35, 97934, Note_on_c, 9, 69, 0
35, 97980, Note_on_c, 9, 69, 34
35, 97994, Note_on_c, 9, 69, 0
35, 98040, Note_on_c, 9, 69, 59
35, 98054, Note_on_c, 9, 69, 0
35, 98100, Note_on_c, 9, 69, 44
35, 98114, Note_on_c, 9, 69, 0
35, 98160, Note_on_c, 9, 69, 64
35, 98174, Note_on_c, 9, 69, 0
35, 98220, Note_on_c, 9, 69, 74
35, 98234, Note_on_c, 9, 69, 0
35, 98280, Note_on_c, 9, 69, 44
35, 98294, Note_on_c, 9, 69, 0
35, 98340, Note_on_c, 9, 69, 44
35, 98354, Note_on_c, 9, 69, 0
35, 98400, Note_on_c, 9, 69, 59
35, 98414, Note_on_c, 9, 69, 0
35, 98460, Note_on_c, 9, 69, 44
35, 98474, Note_on_c, 9, 69, 0
35, 98520, Note_on_c, 9, 69, 59
35, 98534, Note_on_c, 9, 69, 0
35, 98580, Note_on_c, 9, 69, 74
35, 98594, Note_on_c, 9, 69, 0
35, 98640, Note_on_c, 9, 69, 44
35, 98654, Note_on_c, 9, 69, 0
35, 98700, Note_on_c, 9, 69, 34
35, 98714, Note_on_c, 9, 69, 0
35, 98760, Note_on_c, 9, 69, 59
35, 98774, Note_on_c, 9, 69, 0
35, 98820, Note_on_c, 9, 69, 44
35, 98834, Note_on_c, 9, 69, 0
35, 98880, Note_on_c, 9, 69, 64
35, 98894, Note_on_c, 9, 69, 0
35, 98940, Note_on_c, 9, 69, 74
35, 98954, Note_on_c, 9, 69, 0
35, 99000, Note_on_c, 9, 69, 44
35, 99014, Note_on_c, 9, 69, 0
35, 99060, Note_on_c, 9, 69, 44
35, 99074, Note_on_c, 9, 69, 0
35, 99120, Note_on_c, 9, 69, 59
35, 99134, Note_on_c, 9, 69, 0
35, 99180, Note_on_c, 9, 69, 44
35, 99194, Note_on_c, 9, 69, 0
35, 99240, Note_on_c, 9, 69, 59
35, 99254, Note_on_c, 9, 69, 0
35, 99300, Note_on_c, 9, 69, 74
35, 99314, Note_on_c, 9, 69, 0
35, 99360, Note_on_c, 9, 69, 44
35, 99374, Note_on_c, 9, 69, 0
35, 99420, Note_on_c, 9, 69, 34
35, 99434, Note_on_c, 9, 69, 0
35, 99480, Note_on_c, 9, 69, 59
35, 99494, Note_on_c, 9, 69, 0
35, 99540, Note_on_c, 9, 69, 44
35, 99554, Note_on_c, 9, 69, 0
35, 99600, Note_on_c, 9, 69, 64
35, 99614, Note_on_c, 9, 69, 0
35, 99660, Note_on_c, 9, 69, 74
35, 99674, Note_on_c, 9, 69, 0
35, 99720, Note_on_c, 9, 69, 44
35, 99734, Note_on_c, 9, 69, 0
35, 99780, Note_on_c, 9, 69, 44
35, 99794, Note_on_c, 9, 69, 0
35, 99840, Note_on_c, 9, 69, 59
35, 99854, Note_on_c, 9, 69, 0
35, 99900, Note_on_c, 9, 69, 44
35, 99914, Note_on_c, 9, 69, 0
35, 99960, Note_on_c, 9, 69, 59
35, 99974, Note_on_c, 9, 69, 0
35, 100020, Note_on_c, 9, 69, 74
35, 100034, Note_on_c, 9, 69, 0
35, 100080, Note_on_c, 9, 69, 44
35, 100094, Note_on_c, 9, 69, 0
35, 100140, Note_on_c, 9, 69, 34
35, 100154, Note_on_c, 9, 69, 0
35, 100200, Note_on_c, 9, 69, 59
35, 100214, Note_on_c, 9, 69, 0
35, 100260, Note_on_c, 9, 69, 44
35, 100274, Note_on_c, 9, 69, 0
35, 100320, Note_on_c, 9, 69, 64
35, 100334, Note_on_c, 9, 69, 0
35, 100380, Note_on_c, 9, 69, 74
35, 100394, Note_on_c, 9, 69, 0
35, 100440, Note_on_c, 9, 69, 44
35, 100454, Note_on_c, 9, 69, 0
35, 100500, Note_on_c, 9, 69, 44
35, 100514, Note_on_c, 9, 69, 0
35, 100560, Note_on_c, 9, 69, 59
35, 100574, Note_on_c, 9, 69, 0
35, 100620, Note_on_c, 9, 69, 44
35, 100634, Note_on_c, 9, 69, 0
35, 100680, Note_on_c, 9, 69, 59
35, 100694, Note_on_c, 9, 69, 0
35, 100740, Note_on_c, 9, 69, 74
35, 100754, Note_on_c, 9, 69, 0
35, 100800, Note_on_c, 9, 69, 44
35, 100814, Note_on_c, 9, 69, 0
35, 100860, Note_on_c, 9, 69, 34
35, 100874, Note_on_c, 9, 69, 0
35, 100920, Note_on_c, 9, 69, 59
35, 100934, Note_on_c, 9, 69, 0
35, 100980, Note_on_c, 9, 69, 44
35, 100994, Note_on_c, 9, 69, 0
35, 101040, Note_on_c, 9, 69, 64
35, 101054, Note_on_c, 9, 69, 0
35, 101100, Note_on_c, 9, 69, 74
35, 101114, Note_on_c, 9, 69, 0
35, 101160, Note_on_c, 9, 69, 44
35, 101174, Note_on_c, 9, 69, 0
35, 101220, Note_on_c, 9, 69, 44
35, 101234, Note_on_c, 9, 69, 0
35, 101280, Note_on_c, 9, 69, 59
35, 101294, Note_on_c, 9, 69, 0
35, 101340, Note_on_c, 9, 69, 44
35, 101354, Note_on_c, 9, 69, 0
35, 101400, Note_on_c, 9, 69, 59
35, 101414, Note_on_c, 9, 69, 0
35, 101460, Note_on_c, 9, 69, 74
35, 101474, Note_on_c, 9, 69, 0
35, 101520, Note_on_c, 9, 69, 44
35, 101534, Note_on_c, 9, 69, 0
35, 101580, Note_on_c, 9, 69, 34
35, 101594, Note_on_c, 9, 69, 0
35, 101640, Note_on_c, 9, 69, 59
35, 101654, Note_on_c, 9, 69, 0
35, 101700, Note_on_c, 9, 69, 44
35, 101714, Note_on_c, 9, 69, 0
35, 101760, Note_on_c, 9, 69, 64
35, 101774, Note_on_c, 9, 69, 0
35, 101820, Note_on_c, 9, 69, 74
35, 101834, Note_on_c, 9, 69, 0
35, 101880, Note_on_c, 9, 69, 44
35, 101894, Note_on_c, 9, 69, 0
35, 101940, Note_on_c, 9, 69, 44
35, 101954, Note_on_c, 9, 69, 0
35, 102000, Note_on_c, 9, 69, 59
35, 102014, Note_on_c, 9, 69, 0
35, 102060, Note_on_c, 9, 69, 44
35, 102074, Note_on_c, 9, 69, 0
35, 102120, Note_on_c, 9, 69, 59
35, 102134, Note_on_c, 9, 69, 0
35, 102180, Note_on_c, 9, 69, 74
35, 102194, Note_on_c, 9, 69, 0
35, 102240, Note_on_c, 9, 69, 44
35, 102254, Note_on_c, 9, 69, 0
35, 102300, Note_on_c, 9, 69, 34
35, 102314, Note_on_c, 9, 69, 0
35, 102360, Note_on_c, 9, 69, 59
35, 102374, Note_on_c, 9, 69, 0
35, 102420, Note_on_c, 9, 69, 44
35, 102434, Note_on_c, 9, 69, 0
35, 102480, Note_on_c, 9, 69, 64
35, 102494, Note_on_c, 9, 69, 0
35, 102540, Note_on_c, 9, 69, 74
35, 102554, Note_on_c, 9, 69, 0
35, 102600, Note_on_c, 9, 69, 44
35, 102614, Note_on_c, 9, 69, 0
35, 102660, Note_on_c, 9, 69, 44
35, 102674, Note_on_c, 9, 69, 0
35, 102720, Note_on_c, 9, 69, 59
35, 102734, Note_on_c, 9, 69, 0
35, 102780, Note_on_c, 9, 69, 44
35, 102794, Note_on_c, 9, 69, 0
35, 102840, Note_on_c, 9, 69, 59
35, 102854, Note_on_c, 9, 69, 0
35, 102900, Note_on_c, 9, 69, 74
35, 102914, Note_on_c, 9, 69, 0
35, 102960, Note_on_c, 9, 69, 44
35, 102974, Note_on_c, 9, 69, 0
35, 103020, Note_on_c, 9, 69, 34
35, 103034, Note_on_c, 9, 69, 0
35, 103080, Note_on_c, 9, 69, 59
35, 103094, Note_on_c, 9, 69, 0
35, 103140, Note_on_c, 9, 69, 44
35, 103154, Note_on_c, 9, 69, 0
35, 103200, Note_on_c, 9, 69, 64
35, 103214, Note_on_c, 9, 69, 0
35, 103260, Note_on_c, 9, 69, 74
35, 103274, Note_on_c, 9, 69, 0
35, 103320, Note_on_c, 9, 69, 44
35, 103334, Note_on_c, 9, 69, 0
35, 103380, Note_on_c, 9, 69, 44
35, 103394, Note_on_c, 9, 69, 0
35, 103440, Note_on_c, 9, 69, 59
35, 103454, Note_on_c, 9, 69, 0
35, 103500, Note_on_c, 9, 69, 44
35, 103514, Note_on_c, 9, 69, 0
35, 103560, Note_on_c, 9, 69, 59
35, 103574, Note_on_c, 9, 69, 0
35, 103620, Note_on_c, 9, 69, 74
35, 103634, Note_on_c, 9, 69, 0
35, 103680, Note_on_c, 9, 69, 44
35, 103694, Note_on_c, 9, 69, 0
35, 103740, Note_on_c, 9, 69, 34
35, 103754, Note_on_c, 9, 69, 0
35, 103800, Note_on_c, 9, 69, 59
35, 103814, Note_on_c, 9, 69, 0
35, 103860, Note_on_c, 9, 69, 44
35, 103874, Note_on_c, 9, 69, 0
35, 103920, Note_on_c, 9, 69, 64
35, 103934, Note_on_c, 9, 69, 0
35, 103980, Note_on_c, 9, 69, 74
35, 103994, Note_on_c, 9, 69, 0
35, 104040, Note_on_c, 9, 69, 44
35, 104054, Note_on_c, 9, 69, 0
35, 104100, Note_on_c, 9, 69, 44
35, 104114, Note_on_c, 9, 69, 0
35, 104160, Note_on_c, 9, 69, 59
35, 104174, Note_on_c, 9, 69, 0
35, 104220, Note_on_c, 9, 69, 44
35, 104234, Note_on_c, 9, 69, 0
35, 104280, Note_on_c, 9, 69, 59
35, 104294, Note_on_c, 9, 69, 0
35, 104340, Note_on_c, 9, 69, 74
35, 104354, Note_on_c, 9, 69, 0
35, 104400, Note_on_c, 9, 69, 44
35, 104414, Note_on_c, 9, 69, 0
35, 104460, Note_on_c, 9, 69, 34
35, 104474, Note_on_c, 9, 69, 0
35, 104520, Note_on_c, 9, 69, 59
35, 104534, Note_on_c, 9, 69, 0
35, 104580, Note_on_c, 9, 69, 44
35, 104594, Note_on_c, 9, 69, 0
35, 104640, Note_on_c, 9, 69, 64
35, 104654, Note_on_c, 9, 69, 0
35, 104700, Note_on_c, 9, 69, 74
35, 104714, Note_on_c, 9, 69, 0
35, 104760, Note_on_c, 9, 69, 44
35, 104774, Note_on_c, 9, 69, 0
35, 104820, Note_on_c, 9, 69, 44
35, 104834, Note_on_c, 9, 69, 0
35, 104880, Note_on_c, 9, 69, 59
35, 104894, Note_on_c, 9, 69, 0
35, 104940, Note_on_c, 9, 69, 44
35, 104954, Note_on_c, 9, 69, 0
35, 105000, Note_on_c, 9, 69, 59
35, 105014, Note_on_c, 9, 69, 0
35, 105060, Note_on_c, 9, 69, 74
35, 105074, Note_on_c, 9, 69, 0
35, 105120, Note_on_c, 9, 69, 44
35, 105134, Note_on_c, 9, 69, 0
35, 105180, Note_on_c, 9, 69, 34
35, 105194, Note_on_c, 9, 69, 0
35, 105240, Note_on_c, 9, 69, 59
35, 105254, Note_on_c, 9, 69, 0
35, 105300, Note_on_c, 9, 69, 44
35, 105314, Note_on_c, 9, 69, 0
35, 105360, Note_on_c, 9, 69, 64
35, 105374, Note_on_c, 9, 69, 0
35, 105420, Note_on_c, 9, 69, 74
35, 105434, Note_on_c, 9, 69, 0
35, 105480, Note_on_c, 9, 69, 44
35, 105494, Note_on_c, 9, 69, 0
35, 105540, Note_on_c, 9, 69, 44
35, 105554, Note_on_c, 9, 69, 0
35, 105600, Note_on_c, 9, 69, 59
35, 105614, Note_on_c, 9, 69, 0
35, 105660, Note_on_c, 9, 69, 44
35, 105674, Note_on_c, 9, 69, 0
35, 105720, Note_on_c, 9, 69, 59
35, 105734, Note_on_c, 9, 69, 0
35, 105780, Note_on_c, 9, 69, 74
35, 105794, Note_on_c, 9, 69, 0
35, 105840, Note_on_c, 9, 69, 44
35, 105854, Note_on_c, 9, 69, 0
35, 105900, Note_on_c, 9, 69, 34
35, 105914, Note_on_c, 9, 69, 0
35, 105960, Note_on_c, 9, 69, 59
35, 105974, Note_on_c, 9, 69, 0
35, 106020, Note_on_c, 9, 69, 44
35, 106034, Note_on_c, 9, 69, 0
35, 106080, Note_on_c, 9, 69, 64
35, 106094, Note_on_c, 9, 69, 0
35, 106140, Note_on_c, 9, 69, 74
35, 106154, Note_on_c, 9, 69, 0
35, 106200, Note_on_c, 9, 69, 44
35, 106214, Note_on_c, 9, 69, 0
35, 106260, Note_on_c, 9, 69, 44
35, 106274, Note_on_c, 9, 69, 0
35, 106320, Note_on_c, 9, 69, 59
35, 106334, Note_on_c, 9, 69, 0
35, 106380, Note_on_c, 9, 69, 44
35, 106394, Note_on_c, 9, 69, 0
35, 106440, Note_on_c, 9, 69, 59
35, 106454, Note_on_c, 9, 69, 0
35, 106500, Note_on_c, 9, 69, 74
35, 106514, Note_on_c, 9, 69, 0
35, 106560, Note_on_c, 9, 69, 44
35, 106574, Note_on_c, 9, 69, 0
35, 106620, Note_on_c, 9, 69, 34
35, 106634, Note_on_c, 9, 69, 0
35, 106680, Note_on_c, 9, 69, 59
35, 106694, Note_on_c, 9, 69, 0
35, 106740, Note_on_c, 9, 69, 44
35, 106754, Note_on_c, 9, 69, 0
35, 106800, Note_on_c, 9, 69, 64
35, 106814, Note_on_c, 9, 69, 0
35, 106860, Note_on_c, 9, 69, 74
35, 106874, Note_on_c, 9, 69, 0
35, 106920, Note_on_c, 9, 69, 44
35, 106934, Note_on_c, 9, 69, 0
35, 106980, Note_on_c, 9, 69, 44
35, 106994, Note_on_c, 9, 69, 0
35, 107040, Note_on_c, 9, 69, 59
35, 107054, Note_on_c, 9, 69, 0
35, 107100, Note_on_c, 9, 69, 44
35, 107114, Note_on_c, 9, 69, 0
35, 107160, Note_on_c, 9, 69, 59
35, 107174, Note_on_c, 9, 69, 0
35, 107220, Note_on_c, 9, 69, 74
35, 107234, Note_on_c, 9, 69, 0
35, 107280, Note_on_c, 9, 69, 44
35, 107294, Note_on_c, 9, 69, 0
35, 107340, Note_on_c, 9, 69, 34
35, 107354, Note_on_c, 9, 69, 0
35, 107400, Note_on_c, 9, 69, 59
35, 107414, Note_on_c, 9, 69, 0
35, 107460, Note_on_c, 9, 69, 44
35, 107474, Note_on_c, 9, 69, 0
35, 107520, Note_on_c, 9, 69, 64
35, 107534, Note_on_c, 9, 69, 0
35, 107580, Note_on_c, 9, 69, 74
35, 107594, Note_on_c, 9, 69, 0
35, 107640, Note_on_c, 9, 69, 44
35, 107654, Note_on_c, 9, 69, 0
35, 107700, Note_on_c, 9, 69, 44
35, 107714, Note_on_c, 9, 69, 0
35, 107760, Note_on_c, 9, 69, 59
35, 107774, Note_on_c, 9, 69, 0
35, 107820, Note_on_c, 9, 69, 44
35, 107834, Note_on_c, 9, 69, 0
35, 107880, Note_on_c, 9, 69, 59
35, 107894, Note_on_c, 9, 69, 0
35, 107940, Note_on_c, 9, 69, 74
35, 107954, Note_on_c, 9, 69, 0
35, 108000, Note_on_c, 9, 69, 44
35, 108014, Note_on_c, 9, 69, 0
35, 108060, Note_on_c, 9, 69, 34
35, 108074, Note_on_c, 9, 69, 0
35, 108120, Note_on_c, 9, 69, 59
35, 108134, Note_on_c, 9, 69, 0
35, 108180, Note_on_c, 9, 69, 44
35, 108194, Note_on_c, 9, 69, 0
35, 108240, Note_on_c, 9, 69, 64
35, 108254, Note_on_c, 9, 69, 0
35, 108300, Note_on_c, 9, 69, 74
35, 108314, Note_on_c, 9, 69, 0
35, 108360, Note_on_c, 9, 69, 44
35, 108374, Note_on_c, 9, 69, 0
35, 108420, Note_on_c, 9, 69, 44
35, 108434, Note_on_c, 9, 69, 0
35, 108480, Note_on_c, 9, 69, 59
35, 108494, Note_on_c, 9, 69, 0
35, 108540, Note_on_c, 9, 69, 44
35, 108554, Note_on_c, 9, 69, 0
35, 108600, Note_on_c, 9, 69, 59
35, 108614, Note_on_c, 9, 69, 0
35, 108660, Note_on_c, 9, 69, 74
35, 108674, Note_on_c, 9, 69, 0
35, 108720, Note_on_c, 9, 69, 44
35, 108734, Note_on_c, 9, 69, 0
35, 108780, Note_on_c, 9, 69, 34
35, 108794, Note_on_c, 9, 69, 0
35, 108840, Note_on_c, 9, 69, 59
35, 108854, Note_on_c, 9, 69, 0
35, 108900, Note_on_c, 9, 69, 44
35, 108914, Note_on_c, 9, 69, 0
35, 108960, Note_on_c, 9, 69, 64
35, 108974, Note_on_c, 9, 69, 0
35, 109020, Note_on_c, 9, 69, 74
35, 109034, Note_on_c, 9, 69, 0
35, 109080, Note_on_c, 9, 69, 44
35, 109094, Note_on_c, 9, 69, 0
35, 109140, Note_on_c, 9, 69, 44
35, 109154, Note_on_c, 9, 69, 0
35, 109200, Note_on_c, 9, 69, 59
35, 109214, Note_on_c, 9, 69, 0
35, 109260, Note_on_c, 9, 69, 44
35, 109274, Note_on_c, 9, 69, 0
35, 109320, Note_on_c, 9, 69, 59
35, 109334, Note_on_c, 9, 69, 0
35, 109380, Note_on_c, 9, 69, 74
35, 109394, Note_on_c, 9, 69, 0
35, 109440, Note_on_c, 9, 69, 44
35, 109454, Note_on_c, 9, 69, 0
35, 109500, Note_on_c, 9, 69, 34
35, 109514, Note_on_c, 9, 69, 0
35, 109560, Note_on_c, 9, 69, 59
35, 109574, Note_on_c, 9, 69, 0
35, 109620, Note_on_c, 9, 69, 44
35, 109634, Note_on_c, 9, 69, 0
35, 109680, Note_on_c, 9, 69, 64
35, 109694, Note_on_c, 9, 69, 0
35, 109740, Note_on_c, 9, 69, 74
35, 109754, Note_on_c, 9, 69, 0
35, 109800, Note_on_c, 9, 69, 44
35, 109814, Note_on_c, 9, 69, 0
35, 109860, Note_on_c, 9, 69, 44
35, 109874, Note_on_c, 9, 69, 0
35, 109920, Note_on_c, 9, 69, 59
35, 109934, Note_on_c, 9, 69, 0
35, 109980, Note_on_c, 9, 69, 44
35, 109994, Note_on_c, 9, 69, 0
35, 110040, Note_on_c, 9, 69, 59
35, 110054, Note_on_c, 9, 69, 0
35, 110100, Note_on_c, 9, 69, 74
35, 110114, Note_on_c, 9, 69, 0
35, 110160, Note_on_c, 9, 69, 44
35, 110174, Note_on_c, 9, 69, 0
35, 110220, Note_on_c, 9, 69, 34
35, 110234, Note_on_c, 9, 69, 0
35, 110280, Note_on_c, 9, 69, 59
35, 110294, Note_on_c, 9, 69, 0
35, 110340, Note_on_c, 9, 69, 44
35, 110354, Note_on_c, 9, 69, 0
35, 110400, Note_on_c, 9, 69, 64
35, 110414, Note_on_c, 9, 69, 0
35, 110460, Note_on_c, 9, 69, 74
35, 110474, Note_on_c, 9, 69, 0
35, 110520, Note_on_c, 9, 69, 44
35, 110534, Note_on_c, 9, 69, 0
35, 110580, Note_on_c, 9, 69, 44
35, 110594, Note_on_c, 9, 69, 0
35, 110640, Note_on_c, 9, 69, 59
35, 110654, Note_on_c, 9, 69, 0
35, 110700, Note_on_c, 9, 69, 44
35, 110714, Note_on_c, 9, 69, 0
35, 110760, Note_on_c, 9, 69, 59
35, 110774, Note_on_c, 9, 69, 0
35, 110820, Note_on_c, 9, 69, 74
35, 110834, Note_on_c, 9, 69, 0
35, 110880, Note_on_c, 9, 69, 44
35, 110894, Note_on_c, 9, 69, 0
35, 110940, Note_on_c, 9, 69, 34
35, 110954, Note_on_c, 9, 69, 0
35, 111000, Note_on_c, 9, 69, 59
35, 111014, Note_on_c, 9, 69, 0
35, 111060, Note_on_c, 9, 69, 44
35, 111074, Note_on_c, 9, 69, 0
35, 111120, Note_on_c, 9, 69, 64
35, 111134, Note_on_c, 9, 69, 0
35, 111180, Note_on_c, 9, 69, 74
35, 111194, Note_on_c, 9, 69, 0
35, 111240, Note_on_c, 9, 69, 44
35, 111254, Note_on_c, 9, 69, 0
35, 111300, Note_on_c, 9, 69, 44
35, 111314, Note_on_c, 9, 69, 0
35, 111360, Note_on_c, 9, 69, 59
35, 111374, Note_on_c, 9, 69, 0
35, 111420, Note_on_c, 9, 69, 44
35, 111434, Note_on_c, 9, 69, 0
35, 111480, Note_on_c, 9, 69, 59
35, 111494, Note_on_c, 9, 69, 0
35, 111540, Note_on_c, 9, 69, 74
35, 111554, Note_on_c, 9, 69, 0
35, 111600, Note_on_c, 9, 69, 44
35, 111614, Note_on_c, 9, 69, 0
35, 111660, Note_on_c, 9, 69, 34
35, 111674, Note_on_c, 9, 69, 0
35, 111720, Note_on_c, 9, 69, 59
35, 111734, Note_on_c, 9, 69, 0
35, 111780, Note_on_c, 9, 69, 44
35, 111794, Note_on_c, 9, 69, 0
35, 111840, Note_on_c, 9, 69, 64
35, 111854, Note_on_c, 9, 69, 0
35, 111900, Note_on_c, 9, 69, 74
35, 111914, Note_on_c, 9, 69, 0
35, 111960, Note_on_c, 9, 69, 44
35, 111974, Note_on_c, 9, 69, 0
35, 112020, Note_on_c, 9, 69, 44
35, 112034, Note_on_c, 9, 69, 0
35, 112080, Note_on_c, 9, 69, 59
35, 112094, Note_on_c, 9, 69, 0
35, 112140, Note_on_c, 9, 69, 44
35, 112154, Note_on_c, 9, 69, 0
35, 112200, Note_on_c, 9, 69, 59
35, 112214, Note_on_c, 9, 69, 0
35, 112260, Note_on_c, 9, 69, 74
35, 112274, Note_on_c, 9, 69, 0
35, 112320, Note_on_c, 9, 69, 44
35, 112334, Note_on_c, 9, 69, 0
35, 112380, Note_on_c, 9, 69, 34
35, 112394, Note_on_c, 9, 69, 0
35, 112440, Note_on_c, 9, 69, 59
35, 112454, Note_on_c, 9, 69, 0
35, 112500, Note_on_c, 9, 69, 44
35, 112514, Note_on_c, 9, 69, 0
35, 112560, Note_on_c, 9, 69, 64
35, 112574, Note_on_c, 9, 69, 0
35, 112620, Note_on_c, 9, 69, 74
35, 112634, Note_on_c, 9, 69, 0
35, 112680, Note_on_c, 9, 69, 44
35, 112694, Note_on_c, 9, 69, 0
35, 112740, Note_on_c, 9, 69, 44
35, 112754, Note_on_c, 9, 69, 0
35, 112800, Note_on_c, 9, 69, 59
35, 112814, Note_on_c, 9, 69, 0
35, 112860, Note_on_c, 9, 69, 44
35, 112874, Note_on_c, 9, 69, 0
35, 112920, Note_on_c, 9, 69, 59
35, 112934, Note_on_c, 9, 69, 0
35, 112980, Note_on_c, 9, 69, 74
35, 112994, Note_on_c, 9, 69, 0
35, 113040, Note_on_c, 9, 69, 44
35, 113054, Note_on_c, 9, 69, 0
35, 113100, Note_on_c, 9, 69, 34
35, 113114, Note_on_c, 9, 69, 0
35, 113160, Note_on_c, 9, 69, 59
35, 113174, Note_on_c, 9, 69, 0
35, 113220, Note_on_c, 9, 69, 44
35, 113234, Note_on_c, 9, 69, 0
35, 113280, Note_on_c, 9, 69, 64
35, 113294, Note_on_c, 9, 69, 0
35, 113340, Note_on_c, 9, 69, 74
35, 113354, Note_on_c, 9, 69, 0
35, 113400, Note_on_c, 9, 69, 44
35, 113414, Note_on_c, 9, 69, 0
35, 113460, Note_on_c, 9, 69, 44
35, 113474, Note_on_c, 9, 69, 0
35, 113520, Note_on_c, 9, 69, 59
35, 113534, Note_on_c, 9, 69, 0
35, 113580, Note_on_c, 9, 69, 44
35, 113594, Note_on_c, 9, 69, 0
35, 113640, Note_on_c, 9, 69, 59
35, 113654, Note_on_c, 9, 69, 0
35, 113700, Note_on_c, 9, 69, 74
35, 113714, Note_on_c, 9, 69, 0
35, 113760, Note_on_c, 9, 69, 44
35, 113774, Note_on_c, 9, 69, 0
35, 113820, Note_on_c, 9, 69, 34
35, 113834, Note_on_c, 9, 69, 0
35, 113880, Note_on_c, 9, 69, 59
35, 113894, Note_on_c, 9, 69, 0
35, 113940, Note_on_c, 9, 69, 44
35, 113954, Note_on_c, 9, 69, 0
35, 114000, Note_on_c, 9, 69, 64
35, 114014, Note_on_c, 9, 69, 0
35, 114060, Note_on_c, 9, 69, 74
35, 114074, Note_on_c, 9, 69, 0
35, 114120, Note_on_c, 9, 69, 44
35, 114134, Note_on_c, 9, 69, 0
35, 114180, Note_on_c, 9, 69, 44
35, 114194, Note_on_c, 9, 69, 0
35, 114240, Note_on_c, 9, 69, 59
35, 114254, Note_on_c, 9, 69, 0
35, 114300, Note_on_c, 9, 69, 44
35, 114314, Note_on_c, 9, 69, 0
35, 114360, Note_on_c, 9, 69, 59
35, 114374, Note_on_c, 9, 69, 0
35, 114420, Note_on_c, 9, 69, 74
35, 114434, Note_on_c, 9, 69, 0
35, 114480, Note_on_c, 9, 69, 44
35, 114494, Note_on_c, 9, 69, 0
35, 114540, Note_on_c, 9, 69, 34
35, 114554, Note_on_c, 9, 69, 0
35, 114600, Note_on_c, 9, 69, 59
35, 114614, Note_on_c, 9, 69, 0
35, 114660, Note_on_c, 9, 69, 44
35, 114674, Note_on_c, 9, 69, 0
35, 114720, Note_on_c, 9, 69, 64
35, 114734, Note_on_c, 9, 69, 0
35, 114780, Note_on_c, 9, 69, 74
35, 114794, Note_on_c, 9, 69, 0
35, 114840, Note_on_c, 9, 69, 44
35, 114854, Note_on_c, 9, 69, 0
35, 114900, Note_on_c, 9, 69, 44
35, 114914, Note_on_c, 9, 69, 0
35, 114960, Note_on_c, 9, 69, 59
35, 114974, Note_on_c, 9, 69, 0
35, 115020, Note_on_c, 9, 69, 44
35, 115034, Note_on_c, 9, 69, 0
35, 115080, Note_on_c, 9, 69, 59
35, 115094, Note_on_c, 9, 69, 0
35, 115140, Note_on_c, 9, 69, 74
35, 115154, Note_on_c, 9, 69, 0
35, 115200, Note_on_c, 9, 69, 44
35, 115214, Note_on_c, 9, 69, 0
35, 115260, Note_on_c, 9, 69, 34
35, 115274, Note_on_c, 9, 69, 0
35, 115320, Note_on_c, 9, 69, 59
35, 115334, Note_on_c, 9, 69, 0
35, 115380, Note_on_c, 9, 69, 44
35, 115394, Note_on_c, 9, 69, 0
35, 115440, Note_on_c, 9, 69, 64
35, 115454, Note_on_c, 9, 69, 0
35, 115500, Note_on_c, 9, 69, 74
35, 115514, Note_on_c, 9, 69, 0
35, 115560, Note_on_c, 9, 69, 44
35, 115574, Note_on_c, 9, 69, 0
35, 115620, Note_on_c, 9, 69, 44
35, 115634, Note_on_c, 9, 69, 0
35, 115680, Note_on_c, 9, 69, 59
35, 115694, Note_on_c, 9, 69, 0
35, 115740, Note_on_c, 9, 69, 44
35, 115754, Note_on_c, 9, 69, 0
35, 115800, Note_on_c, 9, 69, 59
35, 115814, Note_on_c, 9, 69, 0
35, 115860, Note_on_c, 9, 69, 74
35, 115874, Note_on_c, 9, 69, 0
35, 115920, Note_on_c, 9, 69, 44
35, 115934, Note_on_c, 9, 69, 0
35, 115980, Note_on_c, 9, 69, 34
35, 115994, Note_on_c, 9, 69, 0
35, 116040, Note_on_c, 9, 69, 59
35, 116054, Note_on_c, 9, 69, 0
35, 116100, Note_on_c, 9, 69, 44
35, 116114, Note_on_c, 9, 69, 0
35, 116160, Note_on_c, 9, 69, 64
35, 116174, Note_on_c, 9, 69, 0
35, 116220, Note_on_c, 9, 69, 74
35, 116234, Note_on_c, 9, 69, 0
35, 116280, Note_on_c, 9, 69, 44
35, 116294, Note_on_c, 9, 69, 0
35, 116340, Note_on_c, 9, 69, 44
35, 116354, Note_on_c, 9, 69, 0
35, 116400, Note_on_c, 9, 69, 59
35, 116414, Note_on_c, 9, 69, 0
35, 116460, Note_on_c, 9, 69, 44
35, 116474, Note_on_c, 9, 69, 0
35, 116520, Note_on_c, 9, 69, 59
35, 116534, Note_on_c, 9, 69, 0
35, 116580, Note_on_c, 9, 69, 74
35, 116594, Note_on_c, 9, 69, 0
35, 116640, Note_on_c, 9, 69, 44
35, 116654, Note_on_c, 9, 69, 0
35, 116700, Note_on_c, 9, 69, 34
35, 116714, Note_on_c, 9, 69, 0
35, 116760, Note_on_c, 9, 69, 59
35, 116774, Note_on_c, 9, 69, 0
35, 116820, Note_on_c, 9, 69, 44
35, 116834, Note_on_c, 9, 69, 0
35, 116880, Note_on_c, 9, 69, 64
35, 116894, Note_on_c, 9, 69, 0
35, 116940, Note_on_c, 9, 69, 74
35, 116954, Note_on_c, 9, 69, 0
35, 117000, Note_on_c, 9, 69, 44
35, 117014, Note_on_c, 9, 69, 0
35, 117060, Note_on_c, 9, 69, 44
35, 117074, Note_on_c, 9, 69, 0
35, 117120, Note_on_c, 9, 69, 59
35, 117134, Note_on_c, 9, 69, 0
35, 117180, Note_on_c, 9, 69, 44
35, 117194, Note_on_c, 9, 69, 0
35, 117240, Note_on_c, 9, 69, 59
35, 117254, Note_on_c, 9, 69, 0
35, 117300, Note_on_c, 9, 69, 74
35, 117314, Note_on_c, 9, 69, 0
35, 117360, Note_on_c, 9, 69, 44
35, 117374, Note_on_c, 9, 69, 0
35, 117420, Note_on_c, 9, 69, 34
35, 117434, Note_on_c, 9, 69, 0
35, 117480, Note_on_c, 9, 69, 59
35, 117494, Note_on_c, 9, 69, 0
35, 117540, Note_on_c, 9, 69, 44
35, 117554, Note_on_c, 9, 69, 0
35, 117600, Note_on_c, 9, 69, 64
35, 117614, Note_on_c, 9, 69, 0
35, 117660, Note_on_c, 9, 69, 74
35, 117674, Note_on_c, 9, 69, 0
35, 117720, Note_on_c, 9, 69, 44
35, 117734, Note_on_c, 9, 69, 0
35, 117780, Note_on_c, 9, 69, 44
35, 117794, Note_on_c, 9, 69, 0
35, 117840, Note_on_c, 9, 69, 59
35, 117854, Note_on_c, 9, 69, 0
35, 117900, Note_on_c, 9, 69, 44
35, 117914, Note_on_c, 9, 69, 0
35, 117960, Note_on_c, 9, 69, 59
35, 117974, Note_on_c, 9, 69, 0
35, 118020, Note_on_c, 9, 69, 74
35, 118034, Note_on_c, 9, 69, 0
35, 118080, Note_on_c, 9, 69, 44
35, 118094, Note_on_c, 9, 69, 0
35, 118140, Note_on_c, 9, 69, 34
35, 118154, Note_on_c, 9, 69, 0
35, 118200, Note_on_c, 9, 69, 59
35, 118214, Note_on_c, 9, 69, 0
35, 118260, Note_on_c, 9, 69, 44
35, 118274, Note_on_c, 9, 69, 0
35, 118320, Note_on_c, 9, 69, 64
35, 118334, Note_on_c, 9, 69, 0
35, 118380, Note_on_c, 9, 69, 74
35, 118394, Note_on_c, 9, 69, 0
35, 118440, Note_on_c, 9, 69, 44
35, 118454, Note_on_c, 9, 69, 0
35, 118500, Note_on_c, 9, 69, 44
35, 118514, Note_on_c, 9, 69, 0
35, 118560, Note_on_c, 9, 69, 59
35, 118574, Note_on_c, 9, 69, 0
35, 118620, Note_on_c, 9, 69, 44
35, 118634, Note_on_c, 9, 69, 0
35, 118680, Note_on_c, 9, 69, 59
35, 118694, Note_on_c, 9, 69, 0
35, 118740, Note_on_c, 9, 69, 74
35, 118754, Note_on_c, 9, 69, 0
35, 118800, Note_on_c, 9, 69, 44
35, 118814, Note_on_c, 9, 69, 0
35, 118860, Note_on_c, 9, 69, 34
35, 118874, Note_on_c, 9, 69, 0
35, 118920, Note_on_c, 9, 69, 59
35, 118934, Note_on_c, 9, 69, 0
35, 118980, Note_on_c, 9, 69, 44
35, 118994, Note_on_c, 9, 69, 0
35, 119040, Note_on_c, 9, 69, 64
35, 119054, Note_on_c, 9, 69, 0
35, 119100, Note_on_c, 9, 69, 74
35, 119114, Note_on_c, 9, 69, 0
35, 119160, Note_on_c, 9, 69, 44
35, 119174, Note_on_c, 9, 69, 0
35, 119220, Note_on_c, 9, 69, 44
35, 119234, Note_on_c, 9, 69, 0
35, 119280, Note_on_c, 9, 69, 59
35, 119294, Note_on_c, 9, 69, 0
35, 119340, Note_on_c, 9, 69, 44
35, 119354, Note_on_c, 9, 69, 0
35, 119400, Note_on_c, 9, 69, 59
35, 119414, Note_on_c, 9, 69, 0
35, 119460, Note_on_c, 9, 69, 74
35, 119474, Note_on_c, 9, 69, 0
35, 119520, Note_on_c, 9, 69, 44
35, 119534, Note_on_c, 9, 69, 0
35, 119580, Note_on_c, 9, 69, 34
35, 119594, Note_on_c, 9, 69, 0
35, 119640, Note_on_c, 9, 69, 59
35, 119654, Note_on_c, 9, 69, 0
35, 119700, Note_on_c, 9, 69, 44
35, 119714, Note_on_c, 9, 69, 0
35, 119760, Note_on_c, 9, 69, 64
35, 119774, Note_on_c, 9, 69, 0
35, 119820, Note_on_c, 9, 69, 74
35, 119834, Note_on_c, 9, 69, 0
35, 119880, Note_on_c, 9, 69, 44
35, 119894, Note_on_c, 9, 69, 0
35, 119940, Note_on_c, 9, 69, 44
35, 119954, Note_on_c, 9, 69, 0
35, 120000, Note_on_c, 9, 69, 59
35, 120014, Note_on_c, 9, 69, 0
35, 120060, Note_on_c, 9, 69, 44
35, 120074, Note_on_c, 9, 69, 0
35, 120120, Note_on_c, 9, 69, 59
35, 120134, Note_on_c, 9, 69, 0
35, 120180, Note_on_c, 9, 69, 74
35, 120194, Note_on_c, 9, 69, 0
35, 120240, Note_on_c, 9, 69, 44
35, 120254, Note_on_c, 9, 69, 0
35, 120300, Note_on_c, 9, 69, 34
35, 120314, Note_on_c, 9, 69, 0
35, 120360, Note_on_c, 9, 69, 59
35, 120374, Note_on_c, 9, 69, 0
35, 120420, Note_on_c, 9, 69, 44
35, 120434, Note_on_c, 9, 69, 0
35, 120480, Note_on_c, 9, 69, 64
35, 120494, Note_on_c, 9, 69, 0
35, 120540, Note_on_c, 9, 69, 74
35, 120554, Note_on_c, 9, 69, 0
35, 120600, Note_on_c, 9, 69, 44
35, 120614, Note_on_c, 9, 69, 0
35, 120660, Note_on_c, 9, 69, 44
35, 120674, Note_on_c, 9, 69, 0
35, 120720, Note_on_c, 9, 69, 59
35, 120734, Note_on_c, 9, 69, 0
35, 120780, Note_on_c, 9, 69, 44
35, 120794, Note_on_c, 9, 69, 0
35, 120840, Note_on_c, 9, 69, 59
35, 120854, Note_on_c, 9, 69, 0
35, 120900, Note_on_c, 9, 69, 74
35, 120914, Note_on_c, 9, 69, 0
35, 120914, End_track
36, 0, Start_track
36, 0, MIDI_port, 0
36, 0, Title_t, "  Tambourine"
36, 49140, Note_on_c, 9, 54, 116
36, 49154, Note_on_c, 9, 54, 0
36, 49860, Note_on_c, 9, 54, 116
36, 49874, Note_on_c, 9, 54, 0
36, 50580, Note_on_c, 9, 54, 116
36, 50594, Note_on_c, 9, 54, 0
36, 51300, Note_on_c, 9, 54, 116
36, 51314, Note_on_c, 9, 54, 0
36, 52020, Note_on_c, 9, 54, 116
36, 52034, Note_on_c, 9, 54, 0
36, 52740, Note_on_c, 9, 54, 116
36, 52754, Note_on_c, 9, 54, 0
36, 53460, Note_on_c, 9, 54, 116
36, 53474, Note_on_c, 9, 54, 0
36, 54180, Note_on_c, 9, 54, 116
36, 54194, Note_on_c, 9, 54, 0
36, 61740, Note_on_c, 9, 54, 116
36, 61754, Note_on_c, 9, 54, 0
36, 63180, Note_on_c, 9, 54, 116
36, 63194, Note_on_c, 9, 54, 0
36, 64620, Note_on_c, 9, 54, 116
36, 64634, Note_on_c, 9, 54, 0
36, 66060, Note_on_c, 9, 54, 116
36, 66074, Note_on_c, 9, 54, 0
36, 67500, Note_on_c, 9, 54, 116
36, 67514, Note_on_c, 9, 54, 0
36, 69300, Note_on_c, 9, 54, 116
36, 69314, Note_on_c, 9, 54, 0
36, 70020, Note_on_c, 9, 54, 116
36, 70034, Note_on_c, 9, 54, 0
36, 70740, Note_on_c, 9, 54, 116
36, 70754, Note_on_c, 9, 54, 0
36, 71460, Note_on_c, 9, 54, 116
36, 71474, Note_on_c, 9, 54, 0
36, 72180, Note_on_c, 9, 54, 116
36, 72194, Note_on_c, 9, 54, 0
36, 72900, Note_on_c, 9, 54, 116
36, 72914, Note_on_c, 9, 54, 0
36, 73620, Note_on_c, 9, 54, 116
36, 73634, Note_on_c, 9, 54, 0
36, 74340, Note_on_c, 9, 54, 116
36, 74354, Note_on_c, 9, 54, 0
36, 86580, Note_on_c, 9, 54, 116
36, 86594, Note_on_c, 9, 54, 0
36, 87300, Note_on_c, 9, 54, 116
36, 87314, Note_on_c, 9, 54, 0
36, 88020, Note_on_c, 9, 54, 116
36, 88034, Note_on_c, 9, 54, 0
36, 88740, Note_on_c, 9, 54, 116
36, 88754, Note_on_c, 9, 54, 0
36, 89460, Note_on_c, 9, 54, 116
36, 89474, Note_on_c, 9, 54, 0
36, 90180, Note_on_c, 9, 54, 116
36, 90194, Note_on_c, 9, 54, 0
36, 90900, Note_on_c, 9, 54, 116
36, 90914, Note_on_c, 9, 54, 0
36, 91620, Note_on_c, 9, 54, 116
36, 91634, Note_on_c, 9, 54, 0
36, 92340, Note_on_c, 9, 54, 116
36, 92354, Note_on_c, 9, 54, 0
36, 93060, Note_on_c, 9, 54, 116
36, 93074, Note_on_c, 9, 54, 0
36, 93780, Note_on_c, 9, 54, 116
36, 93794, Note_on_c, 9, 54, 0
36, 94500, Note_on_c, 9, 54, 116
36, 94514, Note_on_c, 9, 54, 0
36, 95220, Note_on_c, 9, 54, 116
36, 95234, Note_on_c, 9, 54, 0
36, 95940, Note_on_c, 9, 54, 116
36, 95954, Note_on_c, 9, 54, 0
36, 96660, Note_on_c, 9, 54, 116
36, 96674, Note_on_c, 9, 54, 0
36, 97380, Note_on_c, 9, 54, 116
36, 97394, Note_on_c, 9, 54, 0
36, 98100, Note_on_c, 9, 54, 116
36, 98114, Note_on_c, 9, 54, 0
36, 98820, Note_on_c, 9, 54, 116
36, 98834, Note_on_c, 9, 54, 0
36, 99540, Note_on_c, 9, 54, 116
36, 99554, Note_on_c, 9, 54, 0
36, 100260, Note_on_c, 9, 54, 116
36, 100274, Note_on_c, 9, 54, 0
36, 100980, Note_on_c, 9, 54, 116
36, 100994, Note_on_c, 9, 54, 0
36, 101700, Note_on_c, 9, 54, 116
36, 101714, Note_on_c, 9, 54, 0
36, 102420, Note_on_c, 9, 54, 116
36, 102434, Note_on_c, 9, 54, 0
36, 103140, Note_on_c, 9, 54, 116
36, 103154, Note_on_c, 9, 54, 0
36, 103860, Note_on_c, 9, 54, 116
36, 103874, Note_on_c, 9, 54, 0
36, 104580, Note_on_c, 9, 54, 116
36, 104594, Note_on_c, 9, 54, 0
36, 105300, Note_on_c, 9, 54, 116
36, 105314, Note_on_c, 9, 54, 0
36, 106020, Note_on_c, 9, 54, 116
36, 106034, Note_on_c, 9, 54, 0
36, 106740, Note_on_c, 9, 54, 116
36, 106754, Note_on_c, 9, 54, 0
36, 107460, Note_on_c, 9, 54, 116
36, 107474, Note_on_c, 9, 54, 0
36, 108180, Note_on_c, 9, 54, 116
36, 108194, Note_on_c, 9, 54, 0
36, 108900, Note_on_c, 9, 54, 116
36, 108914, Note_on_c, 9, 54, 0
36, 109620, Note_on_c, 9, 54, 116
36, 109634, Note_on_c, 9, 54, 0
36, 110340, Note_on_c, 9, 54, 116
36, 110354, Note_on_c, 9, 54, 0
36, 111060, Note_on_c, 9, 54, 116
36, 111074, Note_on_c, 9, 54, 0
36, 111780, Note_on_c, 9, 54, 116
36, 111794, Note_on_c, 9, 54, 0
36, 112500, Note_on_c, 9, 54, 116
36, 112514, Note_on_c, 9, 54, 0
36, 113220, Note_on_c, 9, 54, 116
36, 113234, Note_on_c, 9, 54, 0
36, 113940, Note_on_c, 9, 54, 116
36, 113954, Note_on_c, 9, 54, 0
36, 114660, Note_on_c, 9, 54, 116
36, 114674, Note_on_c, 9, 54, 0
36, 115380, Note_on_c, 9, 54, 116
36, 115394, Note_on_c, 9, 54, 0
36, 116100, Note_on_c, 9, 54, 116
36, 116114, Note_on_c, 9, 54, 0
36, 116820, Note_on_c, 9, 54, 116
36, 116834, Note_on_c, 9, 54, 0
36, 117540, Note_on_c, 9, 54, 116
36, 117554, Note_on_c, 9, 54, 0
36, 118260, Note_on_c, 9, 54, 116
36, 118274, Note_on_c, 9, 54, 0
36, 118980, Note_on_c, 9, 54, 116
36, 118994, Note_on_c, 9, 54, 0
36, 119700, Note_on_c, 9, 54, 116
36, 119714, Note_on_c, 9, 54, 0
36, 120420, Note_on_c, 9, 54, 116
36, 120434, Note_on_c, 9, 54, 0
36, 120434, End_track
37, 0, Start_track
37, 0, MIDI_port, 0
37, 0, Title_t, "  Congas"
37, 7200, Note_on_c, 9, 64, 62
37, 7214, Note_on_c, 9, 64, 0
37, 7320, Note_on_c, 9, 62, 62
37, 7334, Note_on_c, 9, 62, 0
37, 7380, Note_on_c, 9, 63, 62
37, 7394, Note_on_c, 9, 63, 0
37, 7440, Note_on_c, 9, 63, 62
37, 7440, Note_on_c, 9, 62, 62
37, 7454, Note_on_c, 9, 62, 0
37, 7454, Note_on_c, 9, 63, 0
37, 7500, Note_on_c, 9, 63, 62
37, 7514, Note_on_c, 9, 63, 0
37, 7560, Note_on_c, 9, 64, 62
37, 7574, Note_on_c, 9, 64, 0
37, 7680, Note_on_c, 9, 62, 62
37, 7694, Note_on_c, 9, 62, 0
37, 7740, Note_on_c, 9, 63, 62
37, 7754, Note_on_c, 9, 63, 0
37, 7800, Note_on_c, 9, 63, 62
37, 7800, Note_on_c, 9, 62, 62
37, 7814, Note_on_c, 9, 62, 0
37, 7814, Note_on_c, 9, 63, 0
37, 7860, Note_on_c, 9, 63, 62
37, 7874, Note_on_c, 9, 63, 0
37, 7920, Note_on_c, 9, 64, 62
37, 7934, Note_on_c, 9, 64, 0
37, 8040, Note_on_c, 9, 62, 62
37, 8054, Note_on_c, 9, 62, 0
37, 8100, Note_on_c, 9, 63, 62
37, 8114, Note_on_c, 9, 63, 0
37, 8160, Note_on_c, 9, 63, 62
37, 8160, Note_on_c, 9, 62, 62
37, 8174, Note_on_c, 9, 62, 0
37, 8174, Note_on_c, 9, 63, 0
37, 8220, Note_on_c, 9, 63, 62
37, 8234, Note_on_c, 9, 63, 0
37, 8280, Note_on_c, 9, 64, 62
37, 8294, Note_on_c, 9, 64, 0
37, 8400, Note_on_c, 9, 62, 62
37, 8414, Note_on_c, 9, 62, 0
37, 8460, Note_on_c, 9, 63, 62
37, 8474, Note_on_c, 9, 63, 0
37, 8520, Note_on_c, 9, 63, 62
37, 8520, Note_on_c, 9, 62, 62
37, 8534, Note_on_c, 9, 62, 0
37, 8534, Note_on_c, 9, 63, 0
37, 8580, Note_on_c, 9, 63, 62
37, 8594, Note_on_c, 9, 63, 0
37, 8640, Note_on_c, 9, 64, 62
37, 8654, Note_on_c, 9, 64, 0
37, 8760, Note_on_c, 9, 62, 62
37, 8774, Note_on_c, 9, 62, 0
37, 8820, Note_on_c, 9, 63, 62
37, 8834, Note_on_c, 9, 63, 0
37, 8880, Note_on_c, 9, 63, 62
37, 8880, Note_on_c, 9, 62, 62
37, 8894, Note_on_c, 9, 62, 0
37, 8894, Note_on_c, 9, 63, 0
37, 8940, Note_on_c, 9, 63, 62
37, 8954, Note_on_c, 9, 63, 0
37, 9000, Note_on_c, 9, 64, 62
37, 9014, Note_on_c, 9, 64, 0
37, 9120, Note_on_c, 9, 62, 62
37, 9134, Note_on_c, 9, 62, 0
37, 9180, Note_on_c, 9, 63, 62
37, 9194, Note_on_c, 9, 63, 0
37, 9240, Note_on_c, 9, 63, 62
37, 9240, Note_on_c, 9, 62, 62
37, 9254, Note_on_c, 9, 62, 0
37, 9254, Note_on_c, 9, 63, 0
37, 9300, Note_on_c, 9, 63, 62
37, 9314, Note_on_c, 9, 63, 0
37, 9360, Note_on_c, 9, 64, 62
37, 9374, Note_on_c, 9, 64, 0
37, 9480, Note_on_c, 9, 62, 62
37, 9494, Note_on_c, 9, 62, 0
37, 9540, Note_on_c, 9, 63, 62
37, 9554, Note_on_c, 9, 63, 0
37, 9600, Note_on_c, 9, 63, 62
37, 9600, Note_on_c, 9, 62, 62
37, 9614, Note_on_c, 9, 62, 0
37, 9614, Note_on_c, 9, 63, 0
37, 9660, Note_on_c, 9, 63, 62
37, 9674, Note_on_c, 9, 63, 0
37, 9720, Note_on_c, 9, 64, 62
37, 9734, Note_on_c, 9, 64, 0
37, 9840, Note_on_c, 9, 62, 62
37, 9854, Note_on_c, 9, 62, 0
37, 9900, Note_on_c, 9, 63, 62
37, 9914, Note_on_c, 9, 63, 0
37, 9960, Note_on_c, 9, 63, 62
37, 9960, Note_on_c, 9, 62, 62
37, 9974, Note_on_c, 9, 62, 0
37, 9974, Note_on_c, 9, 63, 0
37, 10020, Note_on_c, 9, 63, 62
37, 10034, Note_on_c, 9, 63, 0
37, 10080, Note_on_c, 9, 64, 62
37, 10094, Note_on_c, 9, 64, 0
37, 10200, Note_on_c, 9, 62, 62
37, 10214, Note_on_c, 9, 62, 0
37, 10260, Note_on_c, 9, 63, 62
37, 10274, Note_on_c, 9, 63, 0
37, 10320, Note_on_c, 9, 63, 62
37, 10320, Note_on_c, 9, 62, 62
37, 10334, Note_on_c, 9, 62, 0
37, 10334, Note_on_c, 9, 63, 0
37, 10380, Note_on_c, 9, 63, 62
37, 10394, Note_on_c, 9, 63, 0
37, 10440, Note_on_c, 9, 64, 62
37, 10454, Note_on_c, 9, 64, 0
37, 10560, Note_on_c, 9, 62, 62
37, 10574, Note_on_c, 9, 62, 0
37, 10620, Note_on_c, 9, 63, 62
37, 10634, Note_on_c, 9, 63, 0
37, 10680, Note_on_c, 9, 63, 62
37, 10680, Note_on_c, 9, 62, 62
37, 10694, Note_on_c, 9, 62, 0
37, 10694, Note_on_c, 9, 63, 0
37, 10740, Note_on_c, 9, 63, 62
37, 10754, Note_on_c, 9, 63, 0
37, 10800, Note_on_c, 9, 64, 62
37, 10814, Note_on_c, 9, 64, 0
37, 10920, Note_on_c, 9, 62, 62
37, 10934, Note_on_c, 9, 62, 0
37, 10980, Note_on_c, 9, 63, 62
37, 10994, Note_on_c, 9, 63, 0
37, 11040, Note_on_c, 9, 63, 62
37, 11040, Note_on_c, 9, 62, 62
37, 11054, Note_on_c, 9, 62, 0
37, 11054, Note_on_c, 9, 63, 0
37, 11100, Note_on_c, 9, 63, 62
37, 11114, Note_on_c, 9, 63, 0
37, 11160, Note_on_c, 9, 64, 62
37, 11174, Note_on_c, 9, 64, 0
37, 11280, Note_on_c, 9, 62, 62
37, 11294, Note_on_c, 9, 62, 0
37, 11340, Note_on_c, 9, 63, 62
37, 11354, Note_on_c, 9, 63, 0
37, 11400, Note_on_c, 9, 63, 62
37, 11400, Note_on_c, 9, 62, 62
37, 11414, Note_on_c, 9, 62, 0
37, 11414, Note_on_c, 9, 63, 0
37, 11460, Note_on_c, 9, 63, 62
37, 11474, Note_on_c, 9, 63, 0
37, 11520, Note_on_c, 9, 64, 62
37, 11534, Note_on_c, 9, 64, 0
37, 11640, Note_on_c, 9, 62, 62
37, 11654, Note_on_c, 9, 62, 0
37, 11700, Note_on_c, 9, 63, 62
37, 11714, Note_on_c, 9, 63, 0
37, 11760, Note_on_c, 9, 63, 62
37, 11760, Note_on_c, 9, 62, 62
37, 11774, Note_on_c, 9, 62, 0
37, 11774, Note_on_c, 9, 63, 0
37, 11820, Note_on_c, 9, 63, 62
37, 11834, Note_on_c, 9, 63, 0
37, 11880, Note_on_c, 9, 64, 62
37, 11894, Note_on_c, 9, 64, 0
37, 12000, Note_on_c, 9, 62, 62
37, 12014, Note_on_c, 9, 62, 0
37, 12060, Note_on_c, 9, 63, 62
37, 12074, Note_on_c, 9, 63, 0
37, 12120, Note_on_c, 9, 63, 62
37, 12120, Note_on_c, 9, 62, 62
37, 12134, Note_on_c, 9, 62, 0
37, 12134, Note_on_c, 9, 63, 0
37, 12180, Note_on_c, 9, 63, 62
37, 12194, Note_on_c, 9, 63, 0
37, 12240, Note_on_c, 9, 64, 62
37, 12254, Note_on_c, 9, 64, 0
37, 12360, Note_on_c, 9, 62, 62
37, 12374, Note_on_c, 9, 62, 0
37, 12420, Note_on_c, 9, 63, 62
37, 12434, Note_on_c, 9, 63, 0
37, 12480, Note_on_c, 9, 63, 62
37, 12480, Note_on_c, 9, 62, 62
37, 12494, Note_on_c, 9, 62, 0
37, 12494, Note_on_c, 9, 63, 0
37, 12540, Note_on_c, 9, 63, 62
37, 12554, Note_on_c, 9, 63, 0
37, 12600, Note_on_c, 9, 64, 62
37, 12614, Note_on_c, 9, 64, 0
37, 12720, Note_on_c, 9, 62, 62
37, 12734, Note_on_c, 9, 62, 0
37, 12780, Note_on_c, 9, 63, 62
37, 12794, Note_on_c, 9, 63, 0
37, 12840, Note_on_c, 9, 63, 62
37, 12840, Note_on_c, 9, 62, 62
37, 12854, Note_on_c, 9, 62, 0
37, 12854, Note_on_c, 9, 63, 0
37, 12900, Note_on_c, 9, 63, 62
37, 12914, Note_on_c, 9, 63, 0
37, 12960, Note_on_c, 9, 64, 62
37, 12974, Note_on_c, 9, 64, 0
37, 13080, Note_on_c, 9, 62, 62
37, 13094, Note_on_c, 9, 62, 0
37, 13140, Note_on_c, 9, 63, 62
37, 13154, Note_on_c, 9, 63, 0
37, 13200, Note_on_c, 9, 63, 62
37, 13200, Note_on_c, 9, 62, 62
37, 13214, Note_on_c, 9, 62, 0
37, 13214, Note_on_c, 9, 63, 0
37, 13260, Note_on_c, 9, 63, 62
37, 13274, Note_on_c, 9, 63, 0
37, 13320, Note_on_c, 9, 64, 62
37, 13334, Note_on_c, 9, 64, 0
37, 13440, Note_on_c, 9, 62, 62
37, 13454, Note_on_c, 9, 62, 0
37, 13500, Note_on_c, 9, 63, 62
37, 13514, Note_on_c, 9, 63, 0
37, 13560, Note_on_c, 9, 63, 62
37, 13560, Note_on_c, 9, 62, 62
37, 13574, Note_on_c, 9, 62, 0
37, 13574, Note_on_c, 9, 63, 0
37, 13620, Note_on_c, 9, 63, 62
37, 13634, Note_on_c, 9, 63, 0
37, 13680, Note_on_c, 9, 64, 62
37, 13694, Note_on_c, 9, 64, 0
37, 13800, Note_on_c, 9, 62, 62
37, 13814, Note_on_c, 9, 62, 0
37, 13860, Note_on_c, 9, 63, 62
37, 13874, Note_on_c, 9, 63, 0
37, 13920, Note_on_c, 9, 63, 62
37, 13920, Note_on_c, 9, 62, 62
37, 13934, Note_on_c, 9, 62, 0
37, 13934, Note_on_c, 9, 63, 0
37, 13980, Note_on_c, 9, 63, 62
37, 13994, Note_on_c, 9, 63, 0
37, 14040, Note_on_c, 9, 64, 62
37, 14054, Note_on_c, 9, 64, 0
37, 14160, Note_on_c, 9, 62, 62
37, 14174, Note_on_c, 9, 62, 0
37, 14220, Note_on_c, 9, 63, 62
37, 14234, Note_on_c, 9, 63, 0
37, 14280, Note_on_c, 9, 63, 62
37, 14280, Note_on_c, 9, 62, 62
37, 14294, Note_on_c, 9, 62, 0
37, 14294, Note_on_c, 9, 63, 0
37, 14340, Note_on_c, 9, 63, 62
37, 14354, Note_on_c, 9, 63, 0
37, 14400, Note_on_c, 9, 64, 62
37, 14414, Note_on_c, 9, 64, 0
37, 14520, Note_on_c, 9, 62, 62
37, 14534, Note_on_c, 9, 62, 0
37, 14580, Note_on_c, 9, 63, 62
37, 14594, Note_on_c, 9, 63, 0
37, 14640, Note_on_c, 9, 63, 62
37, 14640, Note_on_c, 9, 62, 62
37, 14654, Note_on_c, 9, 62, 0
37, 14654, Note_on_c, 9, 63, 0
37, 14700, Note_on_c, 9, 63, 62
37, 14714, Note_on_c, 9, 63, 0
37, 14760, Note_on_c, 9, 64, 62
37, 14774, Note_on_c, 9, 64, 0
37, 14880, Note_on_c, 9, 62, 62
37, 14894, Note_on_c, 9, 62, 0
37, 14940, Note_on_c, 9, 63, 62
37, 14954, Note_on_c, 9, 63, 0
37, 15000, Note_on_c, 9, 63, 62
37, 15000, Note_on_c, 9, 62, 62
37, 15014, Note_on_c, 9, 62, 0
37, 15014, Note_on_c, 9, 63, 0
37, 15060, Note_on_c, 9, 63, 62
37, 15074, Note_on_c, 9, 63, 0
37, 15120, Note_on_c, 9, 64, 62
37, 15134, Note_on_c, 9, 64, 0
37, 15240, Note_on_c, 9, 62, 62
37, 15254, Note_on_c, 9, 62, 0
37, 15300, Note_on_c, 9, 63, 62
37, 15314, Note_on_c, 9, 63, 0
37, 15360, Note_on_c, 9, 63, 62
37, 15360, Note_on_c, 9, 62, 62
37, 15374, Note_on_c, 9, 62, 0
37, 15374, Note_on_c, 9, 63, 0
37, 15420, Note_on_c, 9, 63, 62
37, 15434, Note_on_c, 9, 63, 0
37, 15480, Note_on_c, 9, 64, 62
37, 15494, Note_on_c, 9, 64, 0
37, 15600, Note_on_c, 9, 62, 62
37, 15614, Note_on_c, 9, 62, 0
37, 15660, Note_on_c, 9, 63, 62
37, 15674, Note_on_c, 9, 63, 0
37, 15720, Note_on_c, 9, 63, 62
37, 15720, Note_on_c, 9, 62, 62
37, 15734, Note_on_c, 9, 62, 0
37, 15734, Note_on_c, 9, 63, 0
37, 15780, Note_on_c, 9, 63, 62
37, 15794, Note_on_c, 9, 63, 0
37, 15840, Note_on_c, 9, 64, 62
37, 15854, Note_on_c, 9, 64, 0
37, 15960, Note_on_c, 9, 62, 62
37, 15974, Note_on_c, 9, 62, 0
37, 16020, Note_on_c, 9, 63, 62
37, 16034, Note_on_c, 9, 63, 0
37, 16080, Note_on_c, 9, 63, 62
37, 16080, Note_on_c, 9, 62, 62
37, 16094, Note_on_c, 9, 62, 0
37, 16094, Note_on_c, 9, 63, 0
37, 16140, Note_on_c, 9, 63, 62
37, 16154, Note_on_c, 9, 63, 0
37, 16200, Note_on_c, 9, 64, 62
37, 16214, Note_on_c, 9, 64, 0
37, 16320, Note_on_c, 9, 62, 62
37, 16334, Note_on_c, 9, 62, 0
37, 16380, Note_on_c, 9, 63, 62
37, 16394, Note_on_c, 9, 63, 0
37, 16440, Note_on_c, 9, 63, 62
37, 16440, Note_on_c, 9, 62, 62
37, 16454, Note_on_c, 9, 62, 0
37, 16454, Note_on_c, 9, 63, 0
37, 16500, Note_on_c, 9, 63, 62
37, 16514, Note_on_c, 9, 63, 0
37, 16560, Note_on_c, 9, 64, 62
37, 16574, Note_on_c, 9, 64, 0
37, 16680, Note_on_c, 9, 62, 62
37, 16694, Note_on_c, 9, 62, 0
37, 16740, Note_on_c, 9, 63, 62
37, 16754, Note_on_c, 9, 63, 0
37, 16800, Note_on_c, 9, 63, 62
37, 16800, Note_on_c, 9, 62, 62
37, 16814, Note_on_c, 9, 62, 0
37, 16814, Note_on_c, 9, 63, 0
37, 16860, Note_on_c, 9, 63, 62
37, 16874, Note_on_c, 9, 63, 0
37, 16920, Note_on_c, 9, 64, 62
37, 16934, Note_on_c, 9, 64, 0
37, 17040, Note_on_c, 9, 62, 62
37, 17054, Note_on_c, 9, 62, 0
37, 17100, Note_on_c, 9, 63, 62
37, 17114, Note_on_c, 9, 63, 0
37, 17160, Note_on_c, 9, 63, 62
37, 17160, Note_on_c, 9, 62, 62
37, 17174, Note_on_c, 9, 62, 0
37, 17174, Note_on_c, 9, 63, 0
37, 17220, Note_on_c, 9, 63, 62
37, 17234, Note_on_c, 9, 63, 0
37, 20160, Note_on_c, 9, 64, 62
37, 20174, Note_on_c, 9, 64, 0
37, 20280, Note_on_c, 9, 62, 62
37, 20294, Note_on_c, 9, 62, 0
37, 20340, Note_on_c, 9, 63, 62
37, 20354, Note_on_c, 9, 63, 0
37, 20400, Note_on_c, 9, 63, 62
37, 20400, Note_on_c, 9, 62, 62
37, 20414, Note_on_c, 9, 62, 0
37, 20414, Note_on_c, 9, 63, 0
37, 20460, Note_on_c, 9, 63, 62
37, 20474, Note_on_c, 9, 63, 0
37, 20520, Note_on_c, 9, 64, 62
37, 20534, Note_on_c, 9, 64, 0
37, 20640, Note_on_c, 9, 62, 62
37, 20654, Note_on_c, 9, 62, 0
37, 20700, Note_on_c, 9, 63, 62
37, 20714, Note_on_c, 9, 63, 0
37, 20760, Note_on_c, 9, 63, 62
37, 20760, Note_on_c, 9, 62, 62
37, 20774, Note_on_c, 9, 62, 0
37, 20774, Note_on_c, 9, 63, 0
37, 20820, Note_on_c, 9, 63, 62
37, 20834, Note_on_c, 9, 63, 0
37, 20880, Note_on_c, 9, 64, 62
37, 20894, Note_on_c, 9, 64, 0
37, 21000, Note_on_c, 9, 62, 62
37, 21014, Note_on_c, 9, 62, 0
37, 21060, Note_on_c, 9, 63, 62
37, 21074, Note_on_c, 9, 63, 0
37, 21120, Note_on_c, 9, 63, 62
37, 21120, Note_on_c, 9, 62, 62
37, 21134, Note_on_c, 9, 62, 0
37, 21134, Note_on_c, 9, 63, 0
37, 21180, Note_on_c, 9, 63, 62
37, 21194, Note_on_c, 9, 63, 0
37, 21240, Note_on_c, 9, 64, 62
37, 21254, Note_on_c, 9, 64, 0
37, 21360, Note_on_c, 9, 62, 62
37, 21374, Note_on_c, 9, 62, 0
37, 21420, Note_on_c, 9, 63, 62
37, 21434, Note_on_c, 9, 63, 0
37, 21480, Note_on_c, 9, 63, 62
37, 21480, Note_on_c, 9, 62, 62
37, 21494, Note_on_c, 9, 62, 0
37, 21494, Note_on_c, 9, 63, 0
37, 21540, Note_on_c, 9, 63, 62
37, 21554, Note_on_c, 9, 63, 0
37, 21600, Note_on_c, 9, 64, 62
37, 21614, Note_on_c, 9, 64, 0
37, 21720, Note_on_c, 9, 62, 62
37, 21734, Note_on_c, 9, 62, 0
37, 21780, Note_on_c, 9, 63, 62
37, 21794, Note_on_c, 9, 63, 0
37, 21840, Note_on_c, 9, 63, 62
37, 21840, Note_on_c, 9, 62, 62
37, 21854, Note_on_c, 9, 62, 0
37, 21854, Note_on_c, 9, 63, 0
37, 21900, Note_on_c, 9, 63, 62
37, 21914, Note_on_c, 9, 63, 0
37, 21960, Note_on_c, 9, 64, 62
37, 21974, Note_on_c, 9, 64, 0
37, 22080, Note_on_c, 9, 62, 62
37, 22094, Note_on_c, 9, 62, 0
37, 22140, Note_on_c, 9, 63, 62
37, 22154, Note_on_c, 9, 63, 0
37, 22200, Note_on_c, 9, 63, 62
37, 22200, Note_on_c, 9, 62, 62
37, 22214, Note_on_c, 9, 62, 0
37, 22214, Note_on_c, 9, 63, 0
37, 22260, Note_on_c, 9, 63, 62
37, 22274, Note_on_c, 9, 63, 0
37, 22320, Note_on_c, 9, 64, 62
37, 22334, Note_on_c, 9, 64, 0
37, 22440, Note_on_c, 9, 62, 62
37, 22454, Note_on_c, 9, 62, 0
37, 22500, Note_on_c, 9, 63, 62
37, 22514, Note_on_c, 9, 63, 0
37, 22560, Note_on_c, 9, 63, 62
37, 22560, Note_on_c, 9, 62, 62
37, 22574, Note_on_c, 9, 62, 0
37, 22574, Note_on_c, 9, 63, 0
37, 22620, Note_on_c, 9, 63, 62
37, 22634, Note_on_c, 9, 63, 0
37, 22680, Note_on_c, 9, 64, 62
37, 22694, Note_on_c, 9, 64, 0
37, 22800, Note_on_c, 9, 62, 62
37, 22814, Note_on_c, 9, 62, 0
37, 22860, Note_on_c, 9, 63, 62
37, 22874, Note_on_c, 9, 63, 0
37, 22920, Note_on_c, 9, 63, 62
37, 22920, Note_on_c, 9, 62, 62
37, 22934, Note_on_c, 9, 62, 0
37, 22934, Note_on_c, 9, 63, 0
37, 22980, Note_on_c, 9, 63, 62
37, 22994, Note_on_c, 9, 63, 0
37, 23040, Note_on_c, 9, 64, 62
37, 23054, Note_on_c, 9, 64, 0
37, 23160, Note_on_c, 9, 62, 62
37, 23174, Note_on_c, 9, 62, 0
37, 23220, Note_on_c, 9, 63, 62
37, 23234, Note_on_c, 9, 63, 0
37, 23280, Note_on_c, 9, 63, 62
37, 23280, Note_on_c, 9, 62, 62
37, 23294, Note_on_c, 9, 62, 0
37, 23294, Note_on_c, 9, 63, 0
37, 23340, Note_on_c, 9, 63, 62
37, 23354, Note_on_c, 9, 63, 0
37, 23400, Note_on_c, 9, 64, 62
37, 23414, Note_on_c, 9, 64, 0
37, 23520, Note_on_c, 9, 62, 62
37, 23534, Note_on_c, 9, 62, 0
37, 23580, Note_on_c, 9, 63, 62
37, 23594, Note_on_c, 9, 63, 0
37, 23640, Note_on_c, 9, 63, 62
37, 23640, Note_on_c, 9, 62, 62
37, 23654, Note_on_c, 9, 62, 0
37, 23654, Note_on_c, 9, 63, 0
37, 23700, Note_on_c, 9, 63, 62
37, 23714, Note_on_c, 9, 63, 0
37, 23760, Note_on_c, 9, 64, 62
37, 23774, Note_on_c, 9, 64, 0
37, 23880, Note_on_c, 9, 62, 62
37, 23894, Note_on_c, 9, 62, 0
37, 23940, Note_on_c, 9, 63, 62
37, 23954, Note_on_c, 9, 63, 0
37, 24000, Note_on_c, 9, 63, 62
37, 24000, Note_on_c, 9, 62, 62
37, 24014, Note_on_c, 9, 62, 0
37, 24014, Note_on_c, 9, 63, 0
37, 24060, Note_on_c, 9, 63, 62
37, 24074, Note_on_c, 9, 63, 0
37, 24120, Note_on_c, 9, 64, 62
37, 24134, Note_on_c, 9, 64, 0
37, 24240, Note_on_c, 9, 62, 62
37, 24254, Note_on_c, 9, 62, 0
37, 24300, Note_on_c, 9, 63, 62
37, 24314, Note_on_c, 9, 63, 0
37, 24360, Note_on_c, 9, 63, 62
37, 24360, Note_on_c, 9, 62, 62
37, 24374, Note_on_c, 9, 62, 0
37, 24374, Note_on_c, 9, 63, 0
37, 24420, Note_on_c, 9, 63, 62
37, 24434, Note_on_c, 9, 63, 0
37, 24480, Note_on_c, 9, 64, 62
37, 24494, Note_on_c, 9, 64, 0
37, 24600, Note_on_c, 9, 62, 62
37, 24614, Note_on_c, 9, 62, 0
37, 24660, Note_on_c, 9, 63, 62
37, 24674, Note_on_c, 9, 63, 0
37, 24720, Note_on_c, 9, 63, 62
37, 24720, Note_on_c, 9, 62, 62
37, 24734, Note_on_c, 9, 62, 0
37, 24734, Note_on_c, 9, 63, 0
37, 24780, Note_on_c, 9, 63, 62
37, 24794, Note_on_c, 9, 63, 0
37, 24840, Note_on_c, 9, 64, 62
37, 24854, Note_on_c, 9, 64, 0
37, 24960, Note_on_c, 9, 62, 62
37, 24974, Note_on_c, 9, 62, 0
37, 25020, Note_on_c, 9, 63, 62
37, 25034, Note_on_c, 9, 63, 0
37, 25080, Note_on_c, 9, 63, 62
37, 25080, Note_on_c, 9, 62, 62
37, 25094, Note_on_c, 9, 62, 0
37, 25094, Note_on_c, 9, 63, 0
37, 25140, Note_on_c, 9, 63, 62
37, 25154, Note_on_c, 9, 63, 0
37, 25200, Note_on_c, 9, 64, 62
37, 25214, Note_on_c, 9, 64, 0
37, 25320, Note_on_c, 9, 62, 62
37, 25334, Note_on_c, 9, 62, 0
37, 25380, Note_on_c, 9, 63, 62
37, 25394, Note_on_c, 9, 63, 0
37, 25440, Note_on_c, 9, 63, 62
37, 25440, Note_on_c, 9, 62, 62
37, 25454, Note_on_c, 9, 62, 0
37, 25454, Note_on_c, 9, 63, 0
37, 25500, Note_on_c, 9, 63, 62
37, 25514, Note_on_c, 9, 63, 0
37, 25560, Note_on_c, 9, 64, 62
37, 25574, Note_on_c, 9, 64, 0
37, 25680, Note_on_c, 9, 62, 62
37, 25694, Note_on_c, 9, 62, 0
37, 25740, Note_on_c, 9, 63, 62
37, 25754, Note_on_c, 9, 63, 0
37, 25800, Note_on_c, 9, 63, 62
37, 25800, Note_on_c, 9, 62, 62
37, 25814, Note_on_c, 9, 62, 0
37, 25814, Note_on_c, 9, 63, 0
37, 25860, Note_on_c, 9, 63, 62
37, 25874, Note_on_c, 9, 63, 0
37, 25920, Note_on_c, 9, 64, 62
37, 25934, Note_on_c, 9, 64, 0
37, 26040, Note_on_c, 9, 62, 62
37, 26054, Note_on_c, 9, 62, 0
37, 26100, Note_on_c, 9, 63, 62
37, 26114, Note_on_c, 9, 63, 0
37, 26160, Note_on_c, 9, 63, 62
37, 26160, Note_on_c, 9, 62, 62
37, 26174, Note_on_c, 9, 62, 0
37, 26174, Note_on_c, 9, 63, 0
37, 26220, Note_on_c, 9, 63, 62
37, 26234, Note_on_c, 9, 63, 0
37, 26280, Note_on_c, 9, 64, 62
37, 26294, Note_on_c, 9, 64, 0
37, 26400, Note_on_c, 9, 62, 62
37, 26414, Note_on_c, 9, 62, 0
37, 26460, Note_on_c, 9, 63, 62
37, 26474, Note_on_c, 9, 63, 0
37, 26520, Note_on_c, 9, 63, 62
37, 26520, Note_on_c, 9, 62, 62
37, 26534, Note_on_c, 9, 62, 0
37, 26534, Note_on_c, 9, 63, 0
37, 26580, Note_on_c, 9, 63, 62
37, 26594, Note_on_c, 9, 63, 0
37, 26640, Note_on_c, 9, 64, 62
37, 26654, Note_on_c, 9, 64, 0
37, 26760, Note_on_c, 9, 62, 62
37, 26774, Note_on_c, 9, 62, 0
37, 26820, Note_on_c, 9, 63, 62
37, 26834, Note_on_c, 9, 63, 0
37, 26880, Note_on_c, 9, 63, 62
37, 26880, Note_on_c, 9, 62, 62
37, 26894, Note_on_c, 9, 62, 0
37, 26894, Note_on_c, 9, 63, 0
37, 26940, Note_on_c, 9, 63, 62
37, 26954, Note_on_c, 9, 63, 0
37, 27000, Note_on_c, 9, 64, 62
37, 27014, Note_on_c, 9, 64, 0
37, 27120, Note_on_c, 9, 62, 62
37, 27134, Note_on_c, 9, 62, 0
37, 27180, Note_on_c, 9, 63, 62
37, 27194, Note_on_c, 9, 63, 0
37, 27240, Note_on_c, 9, 63, 62
37, 27240, Note_on_c, 9, 62, 62
37, 27254, Note_on_c, 9, 62, 0
37, 27254, Note_on_c, 9, 63, 0
37, 27300, Note_on_c, 9, 63, 62
37, 27314, Note_on_c, 9, 63, 0
37, 27360, Note_on_c, 9, 64, 62
37, 27374, Note_on_c, 9, 64, 0
37, 27480, Note_on_c, 9, 62, 62
37, 27494, Note_on_c, 9, 62, 0
37, 27540, Note_on_c, 9, 63, 62
37, 27554, Note_on_c, 9, 63, 0
37, 27600, Note_on_c, 9, 63, 62
37, 27600, Note_on_c, 9, 62, 62
37, 27614, Note_on_c, 9, 62, 0
37, 27614, Note_on_c, 9, 63, 0
37, 27660, Note_on_c, 9, 63, 62
37, 27674, Note_on_c, 9, 63, 0
37, 27720, Note_on_c, 9, 64, 62
37, 27734, Note_on_c, 9, 64, 0
37, 27840, Note_on_c, 9, 62, 62
37, 27854, Note_on_c, 9, 62, 0
37, 27900, Note_on_c, 9, 63, 62
37, 27914, Note_on_c, 9, 63, 0
37, 27960, Note_on_c, 9, 63, 62
37, 27960, Note_on_c, 9, 62, 62
37, 27974, Note_on_c, 9, 62, 0
37, 27974, Note_on_c, 9, 63, 0
37, 28020, Note_on_c, 9, 63, 62
37, 28034, Note_on_c, 9, 63, 0
37, 28080, Note_on_c, 9, 64, 62
37, 28094, Note_on_c, 9, 64, 0
37, 28200, Note_on_c, 9, 62, 62
37, 28214, Note_on_c, 9, 62, 0
37, 28260, Note_on_c, 9, 63, 62
37, 28274, Note_on_c, 9, 63, 0
37, 28320, Note_on_c, 9, 63, 62
37, 28320, Note_on_c, 9, 62, 62
37, 28334, Note_on_c, 9, 62, 0
37, 28334, Note_on_c, 9, 63, 0
37, 28380, Note_on_c, 9, 63, 62
37, 28394, Note_on_c, 9, 63, 0
37, 28440, Note_on_c, 9, 64, 62
37, 28454, Note_on_c, 9, 64, 0
37, 28560, Note_on_c, 9, 62, 62
37, 28574, Note_on_c, 9, 62, 0
37, 28620, Note_on_c, 9, 63, 62
37, 28634, Note_on_c, 9, 63, 0
37, 28680, Note_on_c, 9, 63, 62
37, 28680, Note_on_c, 9, 62, 62
37, 28694, Note_on_c, 9, 62, 0
37, 28694, Note_on_c, 9, 63, 0
37, 28740, Note_on_c, 9, 63, 62
37, 28754, Note_on_c, 9, 63, 0
37, 28800, Note_on_c, 9, 64, 62
37, 28814, Note_on_c, 9, 64, 0
37, 28920, Note_on_c, 9, 62, 62
37, 28934, Note_on_c, 9, 62, 0
37, 28980, Note_on_c, 9, 63, 62
37, 28994, Note_on_c, 9, 63, 0
37, 29040, Note_on_c, 9, 63, 62
37, 29040, Note_on_c, 9, 62, 62
37, 29054, Note_on_c, 9, 62, 0
37, 29054, Note_on_c, 9, 63, 0
37, 29100, Note_on_c, 9, 63, 62
37, 29114, Note_on_c, 9, 63, 0
37, 29160, Note_on_c, 9, 64, 62
37, 29174, Note_on_c, 9, 64, 0
37, 29280, Note_on_c, 9, 62, 62
37, 29294, Note_on_c, 9, 62, 0
37, 29340, Note_on_c, 9, 63, 62
37, 29354, Note_on_c, 9, 63, 0
37, 29400, Note_on_c, 9, 63, 62
37, 29400, Note_on_c, 9, 62, 62
37, 29414, Note_on_c, 9, 62, 0
37, 29414, Note_on_c, 9, 63, 0
37, 29460, Note_on_c, 9, 63, 62
37, 29474, Note_on_c, 9, 63, 0
37, 29520, Note_on_c, 9, 64, 62
37, 29534, Note_on_c, 9, 64, 0
37, 29640, Note_on_c, 9, 62, 62
37, 29654, Note_on_c, 9, 62, 0
37, 29700, Note_on_c, 9, 63, 62
37, 29714, Note_on_c, 9, 63, 0
37, 29760, Note_on_c, 9, 63, 62
37, 29760, Note_on_c, 9, 62, 62
37, 29774, Note_on_c, 9, 62, 0
37, 29774, Note_on_c, 9, 63, 0
37, 29820, Note_on_c, 9, 63, 62
37, 29834, Note_on_c, 9, 63, 0
37, 29880, Note_on_c, 9, 64, 62
37, 29894, Note_on_c, 9, 64, 0
37, 30000, Note_on_c, 9, 62, 62
37, 30014, Note_on_c, 9, 62, 0
37, 30060, Note_on_c, 9, 63, 62
37, 30074, Note_on_c, 9, 63, 0
37, 30120, Note_on_c, 9, 63, 62
37, 30120, Note_on_c, 9, 62, 62
37, 30134, Note_on_c, 9, 62, 0
37, 30134, Note_on_c, 9, 63, 0
37, 30180, Note_on_c, 9, 63, 62
37, 30194, Note_on_c, 9, 63, 0
37, 48960, Note_on_c, 9, 64, 62
37, 48974, Note_on_c, 9, 64, 0
37, 49080, Note_on_c, 9, 62, 62
37, 49094, Note_on_c, 9, 62, 0
37, 49140, Note_on_c, 9, 63, 62
37, 49154, Note_on_c, 9, 63, 0
37, 49200, Note_on_c, 9, 63, 62
37, 49200, Note_on_c, 9, 62, 62
37, 49214, Note_on_c, 9, 62, 0
37, 49214, Note_on_c, 9, 63, 0
37, 49260, Note_on_c, 9, 63, 62
37, 49274, Note_on_c, 9, 63, 0
37, 49320, Note_on_c, 9, 64, 62
37, 49334, Note_on_c, 9, 64, 0
37, 49440, Note_on_c, 9, 62, 62
37, 49454, Note_on_c, 9, 62, 0
37, 49500, Note_on_c, 9, 63, 62
37, 49514, Note_on_c, 9, 63, 0
37, 49560, Note_on_c, 9, 63, 62
37, 49560, Note_on_c, 9, 62, 62
37, 49574, Note_on_c, 9, 62, 0
37, 49574, Note_on_c, 9, 63, 0
37, 49620, Note_on_c, 9, 63, 62
37, 49634, Note_on_c, 9, 63, 0
37, 49680, Note_on_c, 9, 64, 62
37, 49694, Note_on_c, 9, 64, 0
37, 49800, Note_on_c, 9, 62, 62
37, 49814, Note_on_c, 9, 62, 0
37, 49860, Note_on_c, 9, 63, 62
37, 49874, Note_on_c, 9, 63, 0
37, 49920, Note_on_c, 9, 63, 62
37, 49920, Note_on_c, 9, 62, 62
37, 49934, Note_on_c, 9, 62, 0
37, 49934, Note_on_c, 9, 63, 0
37, 49980, Note_on_c, 9, 63, 62
37, 49994, Note_on_c, 9, 63, 0
37, 50040, Note_on_c, 9, 64, 62
37, 50054, Note_on_c, 9, 64, 0
37, 50160, Note_on_c, 9, 62, 62
37, 50174, Note_on_c, 9, 62, 0
37, 50220, Note_on_c, 9, 63, 62
37, 50234, Note_on_c, 9, 63, 0
37, 50280, Note_on_c, 9, 63, 62
37, 50280, Note_on_c, 9, 62, 62
37, 50294, Note_on_c, 9, 62, 0
37, 50294, Note_on_c, 9, 63, 0
37, 50340, Note_on_c, 9, 63, 62
37, 50354, Note_on_c, 9, 63, 0
37, 50400, Note_on_c, 9, 64, 62
37, 50414, Note_on_c, 9, 64, 0
37, 50520, Note_on_c, 9, 62, 62
37, 50534, Note_on_c, 9, 62, 0
37, 50580, Note_on_c, 9, 63, 62
37, 50594, Note_on_c, 9, 63, 0
37, 50640, Note_on_c, 9, 63, 62
37, 50640, Note_on_c, 9, 62, 62
37, 50654, Note_on_c, 9, 62, 0
37, 50654, Note_on_c, 9, 63, 0
37, 50700, Note_on_c, 9, 63, 62
37, 50714, Note_on_c, 9, 63, 0
37, 50760, Note_on_c, 9, 64, 62
37, 50774, Note_on_c, 9, 64, 0
37, 50880, Note_on_c, 9, 62, 62
37, 50894, Note_on_c, 9, 62, 0
37, 50940, Note_on_c, 9, 63, 62
37, 50954, Note_on_c, 9, 63, 0
37, 51000, Note_on_c, 9, 63, 62
37, 51000, Note_on_c, 9, 62, 62
37, 51014, Note_on_c, 9, 62, 0
37, 51014, Note_on_c, 9, 63, 0
37, 51060, Note_on_c, 9, 63, 62
37, 51074, Note_on_c, 9, 63, 0
37, 51120, Note_on_c, 9, 64, 62
37, 51134, Note_on_c, 9, 64, 0
37, 51240, Note_on_c, 9, 62, 62
37, 51254, Note_on_c, 9, 62, 0
37, 51300, Note_on_c, 9, 63, 62
37, 51314, Note_on_c, 9, 63, 0
37, 51360, Note_on_c, 9, 63, 62
37, 51360, Note_on_c, 9, 62, 62
37, 51374, Note_on_c, 9, 62, 0
37, 51374, Note_on_c, 9, 63, 0
37, 51420, Note_on_c, 9, 63, 62
37, 51434, Note_on_c, 9, 63, 0
37, 51480, Note_on_c, 9, 64, 62
37, 51494, Note_on_c, 9, 64, 0
37, 51600, Note_on_c, 9, 62, 62
37, 51614, Note_on_c, 9, 62, 0
37, 51660, Note_on_c, 9, 63, 62
37, 51674, Note_on_c, 9, 63, 0
37, 51720, Note_on_c, 9, 63, 62
37, 51720, Note_on_c, 9, 62, 62
37, 51734, Note_on_c, 9, 62, 0
37, 51734, Note_on_c, 9, 63, 0
37, 51780, Note_on_c, 9, 63, 62
37, 51794, Note_on_c, 9, 63, 0
37, 51840, Note_on_c, 9, 64, 62
37, 51854, Note_on_c, 9, 64, 0
37, 51960, Note_on_c, 9, 62, 62
37, 51974, Note_on_c, 9, 62, 0
37, 52020, Note_on_c, 9, 63, 62
37, 52034, Note_on_c, 9, 63, 0
37, 52080, Note_on_c, 9, 63, 62
37, 52080, Note_on_c, 9, 62, 62
37, 52094, Note_on_c, 9, 62, 0
37, 52094, Note_on_c, 9, 63, 0
37, 52140, Note_on_c, 9, 63, 62
37, 52154, Note_on_c, 9, 63, 0
37, 52200, Note_on_c, 9, 64, 62
37, 52214, Note_on_c, 9, 64, 0
37, 52320, Note_on_c, 9, 62, 62
37, 52334, Note_on_c, 9, 62, 0
37, 52380, Note_on_c, 9, 63, 62
37, 52394, Note_on_c, 9, 63, 0
37, 52440, Note_on_c, 9, 63, 62
37, 52440, Note_on_c, 9, 62, 62
37, 52454, Note_on_c, 9, 62, 0
37, 52454, Note_on_c, 9, 63, 0
37, 52500, Note_on_c, 9, 63, 62
37, 52514, Note_on_c, 9, 63, 0
37, 52560, Note_on_c, 9, 64, 62
37, 52574, Note_on_c, 9, 64, 0
37, 52680, Note_on_c, 9, 62, 62
37, 52694, Note_on_c, 9, 62, 0
37, 52740, Note_on_c, 9, 63, 62
37, 52754, Note_on_c, 9, 63, 0
37, 52800, Note_on_c, 9, 63, 62
37, 52800, Note_on_c, 9, 62, 62
37, 52814, Note_on_c, 9, 62, 0
37, 52814, Note_on_c, 9, 63, 0
37, 52860, Note_on_c, 9, 63, 62
37, 52874, Note_on_c, 9, 63, 0
37, 52920, Note_on_c, 9, 64, 62
37, 52934, Note_on_c, 9, 64, 0
37, 53040, Note_on_c, 9, 62, 62
37, 53054, Note_on_c, 9, 62, 0
37, 53100, Note_on_c, 9, 63, 62
37, 53114, Note_on_c, 9, 63, 0
37, 53160, Note_on_c, 9, 63, 62
37, 53160, Note_on_c, 9, 62, 62
37, 53174, Note_on_c, 9, 62, 0
37, 53174, Note_on_c, 9, 63, 0
37, 53220, Note_on_c, 9, 63, 62
37, 53234, Note_on_c, 9, 63, 0
37, 53280, Note_on_c, 9, 64, 62
37, 53294, Note_on_c, 9, 64, 0
37, 53400, Note_on_c, 9, 62, 62
37, 53414, Note_on_c, 9, 62, 0
37, 53460, Note_on_c, 9, 63, 62
37, 53474, Note_on_c, 9, 63, 0
37, 53520, Note_on_c, 9, 63, 62
37, 53520, Note_on_c, 9, 62, 62
37, 53534, Note_on_c, 9, 62, 0
37, 53534, Note_on_c, 9, 63, 0
37, 53580, Note_on_c, 9, 63, 62
37, 53594, Note_on_c, 9, 63, 0
37, 53640, Note_on_c, 9, 64, 62
37, 53654, Note_on_c, 9, 64, 0
37, 53760, Note_on_c, 9, 62, 62
37, 53774, Note_on_c, 9, 62, 0
37, 53820, Note_on_c, 9, 63, 62
37, 53834, Note_on_c, 9, 63, 0
37, 53880, Note_on_c, 9, 63, 62
37, 53880, Note_on_c, 9, 62, 62
37, 53894, Note_on_c, 9, 62, 0
37, 53894, Note_on_c, 9, 63, 0
37, 53940, Note_on_c, 9, 63, 62
37, 53954, Note_on_c, 9, 63, 0
37, 54000, Note_on_c, 9, 64, 62
37, 54014, Note_on_c, 9, 64, 0
37, 54120, Note_on_c, 9, 62, 62
37, 54134, Note_on_c, 9, 62, 0
37, 54180, Note_on_c, 9, 63, 62
37, 54194, Note_on_c, 9, 63, 0
37, 54240, Note_on_c, 9, 63, 62
37, 54240, Note_on_c, 9, 62, 62
37, 54254, Note_on_c, 9, 62, 0
37, 54254, Note_on_c, 9, 63, 0
37, 54300, Note_on_c, 9, 63, 62
37, 54314, Note_on_c, 9, 63, 0
37, 54360, Note_on_c, 9, 64, 62
37, 54374, Note_on_c, 9, 64, 0
37, 54480, Note_on_c, 9, 62, 62
37, 54494, Note_on_c, 9, 62, 0
37, 54540, Note_on_c, 9, 63, 62
37, 54554, Note_on_c, 9, 63, 0
37, 54600, Note_on_c, 9, 63, 62
37, 54600, Note_on_c, 9, 62, 62
37, 54614, Note_on_c, 9, 62, 0
37, 54614, Note_on_c, 9, 63, 0
37, 54660, Note_on_c, 9, 63, 62
37, 54674, Note_on_c, 9, 63, 0
37, 60480, Note_on_c, 9, 64, 62
37, 60494, Note_on_c, 9, 64, 0
37, 60600, Note_on_c, 9, 62, 62
37, 60614, Note_on_c, 9, 62, 0
37, 60660, Note_on_c, 9, 63, 62
37, 60674, Note_on_c, 9, 63, 0
37, 60720, Note_on_c, 9, 63, 62
37, 60720, Note_on_c, 9, 62, 62
37, 60734, Note_on_c, 9, 62, 0
37, 60734, Note_on_c, 9, 63, 0
37, 60780, Note_on_c, 9, 63, 62
37, 60794, Note_on_c, 9, 63, 0
37, 60840, Note_on_c, 9, 64, 62
37, 60854, Note_on_c, 9, 64, 0
37, 60960, Note_on_c, 9, 62, 62
37, 60974, Note_on_c, 9, 62, 0
37, 61020, Note_on_c, 9, 63, 62
37, 61034, Note_on_c, 9, 63, 0
37, 61080, Note_on_c, 9, 63, 62
37, 61080, Note_on_c, 9, 62, 62
37, 61094, Note_on_c, 9, 62, 0
37, 61094, Note_on_c, 9, 63, 0
37, 61140, Note_on_c, 9, 63, 62
37, 61154, Note_on_c, 9, 63, 0
37, 61200, Note_on_c, 9, 64, 62
37, 61214, Note_on_c, 9, 64, 0
37, 61320, Note_on_c, 9, 62, 62
37, 61334, Note_on_c, 9, 62, 0
37, 61380, Note_on_c, 9, 63, 62
37, 61394, Note_on_c, 9, 63, 0
37, 61440, Note_on_c, 9, 63, 62
37, 61440, Note_on_c, 9, 62, 62
37, 61454, Note_on_c, 9, 62, 0
37, 61454, Note_on_c, 9, 63, 0
37, 61500, Note_on_c, 9, 63, 62
37, 61514, Note_on_c, 9, 63, 0
37, 61560, Note_on_c, 9, 64, 62
37, 61574, Note_on_c, 9, 64, 0
37, 61680, Note_on_c, 9, 62, 62
37, 61694, Note_on_c, 9, 62, 0
37, 61740, Note_on_c, 9, 63, 62
37, 61754, Note_on_c, 9, 63, 0
37, 61800, Note_on_c, 9, 63, 62
37, 61800, Note_on_c, 9, 62, 62
37, 61814, Note_on_c, 9, 62, 0
37, 61814, Note_on_c, 9, 63, 0
37, 61860, Note_on_c, 9, 63, 62
37, 61874, Note_on_c, 9, 63, 0
37, 61920, Note_on_c, 9, 64, 62
37, 61934, Note_on_c, 9, 64, 0
37, 62040, Note_on_c, 9, 62, 62
37, 62054, Note_on_c, 9, 62, 0
37, 62100, Note_on_c, 9, 63, 62
37, 62114, Note_on_c, 9, 63, 0
37, 62160, Note_on_c, 9, 63, 62
37, 62160, Note_on_c, 9, 62, 62
37, 62174, Note_on_c, 9, 62, 0
37, 62174, Note_on_c, 9, 63, 0
37, 62220, Note_on_c, 9, 63, 62
37, 62234, Note_on_c, 9, 63, 0
37, 62280, Note_on_c, 9, 64, 62
37, 62294, Note_on_c, 9, 64, 0
37, 62400, Note_on_c, 9, 62, 62
37, 62414, Note_on_c, 9, 62, 0
37, 62460, Note_on_c, 9, 63, 62
37, 62474, Note_on_c, 9, 63, 0
37, 62520, Note_on_c, 9, 63, 62
37, 62520, Note_on_c, 9, 62, 62
37, 62534, Note_on_c, 9, 62, 0
37, 62534, Note_on_c, 9, 63, 0
37, 62580, Note_on_c, 9, 63, 62
37, 62594, Note_on_c, 9, 63, 0
37, 62640, Note_on_c, 9, 64, 62
37, 62654, Note_on_c, 9, 64, 0
37, 62760, Note_on_c, 9, 62, 62
37, 62774, Note_on_c, 9, 62, 0
37, 62820, Note_on_c, 9, 63, 62
37, 62834, Note_on_c, 9, 63, 0
37, 62880, Note_on_c, 9, 63, 62
37, 62880, Note_on_c, 9, 62, 62
37, 62894, Note_on_c, 9, 62, 0
37, 62894, Note_on_c, 9, 63, 0
37, 62940, Note_on_c, 9, 63, 62
37, 62954, Note_on_c, 9, 63, 0
37, 63000, Note_on_c, 9, 64, 62
37, 63014, Note_on_c, 9, 64, 0
37, 63120, Note_on_c, 9, 62, 62
37, 63134, Note_on_c, 9, 62, 0
37, 63180, Note_on_c, 9, 63, 62
37, 63194, Note_on_c, 9, 63, 0
37, 63240, Note_on_c, 9, 63, 62
37, 63240, Note_on_c, 9, 62, 62
37, 63254, Note_on_c, 9, 62, 0
37, 63254, Note_on_c, 9, 63, 0
37, 63300, Note_on_c, 9, 63, 62
37, 63314, Note_on_c, 9, 63, 0
37, 63360, Note_on_c, 9, 64, 62
37, 63374, Note_on_c, 9, 64, 0
37, 63480, Note_on_c, 9, 62, 62
37, 63494, Note_on_c, 9, 62, 0
37, 63540, Note_on_c, 9, 63, 62
37, 63554, Note_on_c, 9, 63, 0
37, 63600, Note_on_c, 9, 63, 62
37, 63600, Note_on_c, 9, 62, 62
37, 63614, Note_on_c, 9, 62, 0
37, 63614, Note_on_c, 9, 63, 0
37, 63660, Note_on_c, 9, 63, 62
37, 63674, Note_on_c, 9, 63, 0
37, 63720, Note_on_c, 9, 64, 62
37, 63734, Note_on_c, 9, 64, 0
37, 63840, Note_on_c, 9, 62, 62
37, 63854, Note_on_c, 9, 62, 0
37, 63900, Note_on_c, 9, 63, 62
37, 63914, Note_on_c, 9, 63, 0
37, 63960, Note_on_c, 9, 63, 62
37, 63960, Note_on_c, 9, 62, 62
37, 63974, Note_on_c, 9, 62, 0
37, 63974, Note_on_c, 9, 63, 0
37, 64020, Note_on_c, 9, 63, 62
37, 64034, Note_on_c, 9, 63, 0
37, 64080, Note_on_c, 9, 64, 62
37, 64094, Note_on_c, 9, 64, 0
37, 64200, Note_on_c, 9, 62, 62
37, 64214, Note_on_c, 9, 62, 0
37, 64260, Note_on_c, 9, 63, 62
37, 64274, Note_on_c, 9, 63, 0
37, 64320, Note_on_c, 9, 63, 62
37, 64320, Note_on_c, 9, 62, 62
37, 64334, Note_on_c, 9, 62, 0
37, 64334, Note_on_c, 9, 63, 0
37, 64380, Note_on_c, 9, 63, 62
37, 64394, Note_on_c, 9, 63, 0
37, 64440, Note_on_c, 9, 64, 62
37, 64454, Note_on_c, 9, 64, 0
37, 64560, Note_on_c, 9, 62, 62
37, 64574, Note_on_c, 9, 62, 0
37, 64620, Note_on_c, 9, 63, 62
37, 64634, Note_on_c, 9, 63, 0
37, 64680, Note_on_c, 9, 63, 62
37, 64680, Note_on_c, 9, 62, 62
37, 64694, Note_on_c, 9, 62, 0
37, 64694, Note_on_c, 9, 63, 0
37, 64740, Note_on_c, 9, 63, 62
37, 64754, Note_on_c, 9, 63, 0
37, 64800, Note_on_c, 9, 64, 62
37, 64814, Note_on_c, 9, 64, 0
37, 64920, Note_on_c, 9, 62, 62
37, 64934, Note_on_c, 9, 62, 0
37, 64980, Note_on_c, 9, 63, 62
37, 64994, Note_on_c, 9, 63, 0
37, 65040, Note_on_c, 9, 63, 62
37, 65040, Note_on_c, 9, 62, 62
37, 65054, Note_on_c, 9, 62, 0
37, 65054, Note_on_c, 9, 63, 0
37, 65100, Note_on_c, 9, 63, 62
37, 65114, Note_on_c, 9, 63, 0
37, 65160, Note_on_c, 9, 64, 62
37, 65174, Note_on_c, 9, 64, 0
37, 65280, Note_on_c, 9, 62, 62
37, 65294, Note_on_c, 9, 62, 0
37, 65340, Note_on_c, 9, 63, 62
37, 65354, Note_on_c, 9, 63, 0
37, 65400, Note_on_c, 9, 63, 62
37, 65400, Note_on_c, 9, 62, 62
37, 65414, Note_on_c, 9, 62, 0
37, 65414, Note_on_c, 9, 63, 0
37, 65460, Note_on_c, 9, 63, 62
37, 65474, Note_on_c, 9, 63, 0
37, 65520, Note_on_c, 9, 64, 62
37, 65534, Note_on_c, 9, 64, 0
37, 65640, Note_on_c, 9, 62, 62
37, 65654, Note_on_c, 9, 62, 0
37, 65700, Note_on_c, 9, 63, 62
37, 65714, Note_on_c, 9, 63, 0
37, 65760, Note_on_c, 9, 63, 62
37, 65760, Note_on_c, 9, 62, 62
37, 65774, Note_on_c, 9, 62, 0
37, 65774, Note_on_c, 9, 63, 0
37, 65820, Note_on_c, 9, 63, 62
37, 65834, Note_on_c, 9, 63, 0
37, 65880, Note_on_c, 9, 64, 62
37, 65894, Note_on_c, 9, 64, 0
37, 66000, Note_on_c, 9, 62, 62
37, 66014, Note_on_c, 9, 62, 0
37, 66060, Note_on_c, 9, 63, 62
37, 66074, Note_on_c, 9, 63, 0
37, 66120, Note_on_c, 9, 63, 62
37, 66120, Note_on_c, 9, 62, 62
37, 66134, Note_on_c, 9, 62, 0
37, 66134, Note_on_c, 9, 63, 0
37, 66180, Note_on_c, 9, 63, 62
37, 66194, Note_on_c, 9, 63, 0
37, 66240, Note_on_c, 9, 64, 62
37, 66254, Note_on_c, 9, 64, 0
37, 66360, Note_on_c, 9, 62, 62
37, 66374, Note_on_c, 9, 62, 0
37, 66420, Note_on_c, 9, 63, 62
37, 66434, Note_on_c, 9, 63, 0
37, 66480, Note_on_c, 9, 63, 62
37, 66480, Note_on_c, 9, 62, 62
37, 66494, Note_on_c, 9, 62, 0
37, 66494, Note_on_c, 9, 63, 0
37, 66540, Note_on_c, 9, 63, 62
37, 66554, Note_on_c, 9, 63, 0
37, 66600, Note_on_c, 9, 64, 62
37, 66614, Note_on_c, 9, 64, 0
37, 66720, Note_on_c, 9, 62, 62
37, 66734, Note_on_c, 9, 62, 0
37, 66780, Note_on_c, 9, 63, 62
37, 66794, Note_on_c, 9, 63, 0
37, 66840, Note_on_c, 9, 63, 62
37, 66840, Note_on_c, 9, 62, 62
37, 66854, Note_on_c, 9, 62, 0
37, 66854, Note_on_c, 9, 63, 0
37, 66900, Note_on_c, 9, 63, 62
37, 66914, Note_on_c, 9, 63, 0
37, 66960, Note_on_c, 9, 64, 62
37, 66974, Note_on_c, 9, 64, 0
37, 67080, Note_on_c, 9, 62, 62
37, 67094, Note_on_c, 9, 62, 0
37, 67140, Note_on_c, 9, 63, 62
37, 67154, Note_on_c, 9, 63, 0
37, 67200, Note_on_c, 9, 63, 62
37, 67200, Note_on_c, 9, 62, 62
37, 67214, Note_on_c, 9, 62, 0
37, 67214, Note_on_c, 9, 63, 0
37, 67260, Note_on_c, 9, 63, 62
37, 67274, Note_on_c, 9, 63, 0
37, 67320, Note_on_c, 9, 64, 62
37, 67334, Note_on_c, 9, 64, 0
37, 67440, Note_on_c, 9, 62, 62
37, 67454, Note_on_c, 9, 62, 0
37, 67500, Note_on_c, 9, 63, 62
37, 67514, Note_on_c, 9, 63, 0
37, 67560, Note_on_c, 9, 63, 62
37, 67560, Note_on_c, 9, 62, 62
37, 67574, Note_on_c, 9, 62, 0
37, 67574, Note_on_c, 9, 63, 0
37, 67620, Note_on_c, 9, 63, 62
37, 67634, Note_on_c, 9, 63, 0
37, 69120, Note_on_c, 9, 64, 62
37, 69134, Note_on_c, 9, 64, 0
37, 69240, Note_on_c, 9, 62, 62
37, 69254, Note_on_c, 9, 62, 0
37, 69300, Note_on_c, 9, 63, 62
37, 69314, Note_on_c, 9, 63, 0
37, 69360, Note_on_c, 9, 63, 62
37, 69360, Note_on_c, 9, 62, 62
37, 69374, Note_on_c, 9, 62, 0
37, 69374, Note_on_c, 9, 63, 0
37, 69420, Note_on_c, 9, 63, 62
37, 69434, Note_on_c, 9, 63, 0
37, 69480, Note_on_c, 9, 64, 62
37, 69494, Note_on_c, 9, 64, 0
37, 69600, Note_on_c, 9, 62, 62
37, 69614, Note_on_c, 9, 62, 0
37, 69660, Note_on_c, 9, 63, 62
37, 69674, Note_on_c, 9, 63, 0
37, 69720, Note_on_c, 9, 63, 62
37, 69720, Note_on_c, 9, 62, 62
37, 69734, Note_on_c, 9, 62, 0
37, 69734, Note_on_c, 9, 63, 0
37, 69780, Note_on_c, 9, 63, 62
37, 69794, Note_on_c, 9, 63, 0
37, 69840, Note_on_c, 9, 64, 62
37, 69854, Note_on_c, 9, 64, 0
37, 69960, Note_on_c, 9, 62, 62
37, 69974, Note_on_c, 9, 62, 0
37, 70020, Note_on_c, 9, 63, 62
37, 70034, Note_on_c, 9, 63, 0
37, 70080, Note_on_c, 9, 63, 62
37, 70080, Note_on_c, 9, 62, 62
37, 70094, Note_on_c, 9, 62, 0
37, 70094, Note_on_c, 9, 63, 0
37, 70140, Note_on_c, 9, 63, 62
37, 70154, Note_on_c, 9, 63, 0
37, 70200, Note_on_c, 9, 64, 62
37, 70214, Note_on_c, 9, 64, 0
37, 70320, Note_on_c, 9, 62, 62
37, 70334, Note_on_c, 9, 62, 0
37, 70380, Note_on_c, 9, 63, 62
37, 70394, Note_on_c, 9, 63, 0
37, 70440, Note_on_c, 9, 63, 62
37, 70440, Note_on_c, 9, 62, 62
37, 70454, Note_on_c, 9, 62, 0
37, 70454, Note_on_c, 9, 63, 0
37, 70500, Note_on_c, 9, 63, 62
37, 70514, Note_on_c, 9, 63, 0
37, 74880, Note_on_c, 9, 64, 62
37, 74894, Note_on_c, 9, 64, 0
37, 75000, Note_on_c, 9, 62, 62
37, 75014, Note_on_c, 9, 62, 0
37, 75060, Note_on_c, 9, 63, 62
37, 75074, Note_on_c, 9, 63, 0
37, 75120, Note_on_c, 9, 63, 62
37, 75120, Note_on_c, 9, 62, 62
37, 75134, Note_on_c, 9, 62, 0
37, 75134, Note_on_c, 9, 63, 0
37, 75180, Note_on_c, 9, 63, 62
37, 75194, Note_on_c, 9, 63, 0
37, 75240, Note_on_c, 9, 64, 62
37, 75254, Note_on_c, 9, 64, 0
37, 75360, Note_on_c, 9, 62, 62
37, 75374, Note_on_c, 9, 62, 0
37, 75420, Note_on_c, 9, 63, 62
37, 75434, Note_on_c, 9, 63, 0
37, 75480, Note_on_c, 9, 63, 62
37, 75480, Note_on_c, 9, 62, 62
37, 75494, Note_on_c, 9, 62, 0
37, 75494, Note_on_c, 9, 63, 0
37, 75540, Note_on_c, 9, 63, 62
37, 75554, Note_on_c, 9, 63, 0
37, 75600, Note_on_c, 9, 64, 62
37, 75614, Note_on_c, 9, 64, 0
37, 75720, Note_on_c, 9, 62, 62
37, 75734, Note_on_c, 9, 62, 0
37, 75780, Note_on_c, 9, 63, 62
37, 75794, Note_on_c, 9, 63, 0
37, 75840, Note_on_c, 9, 63, 62
37, 75840, Note_on_c, 9, 62, 62
37, 75854, Note_on_c, 9, 62, 0
37, 75854, Note_on_c, 9, 63, 0
37, 75900, Note_on_c, 9, 63, 62
37, 75914, Note_on_c, 9, 63, 0
37, 75960, Note_on_c, 9, 64, 62
37, 75974, Note_on_c, 9, 64, 0
37, 76080, Note_on_c, 9, 62, 62
37, 76094, Note_on_c, 9, 62, 0
37, 76140, Note_on_c, 9, 63, 62
37, 76154, Note_on_c, 9, 63, 0
37, 76200, Note_on_c, 9, 63, 62
37, 76200, Note_on_c, 9, 62, 62
37, 76214, Note_on_c, 9, 62, 0
37, 76214, Note_on_c, 9, 63, 0
37, 76260, Note_on_c, 9, 63, 62
37, 76274, Note_on_c, 9, 63, 0
37, 76320, Note_on_c, 9, 64, 62
37, 76334, Note_on_c, 9, 64, 0
37, 76440, Note_on_c, 9, 62, 62
37, 76454, Note_on_c, 9, 62, 0
37, 76500, Note_on_c, 9, 63, 62
37, 76514, Note_on_c, 9, 63, 0
37, 76560, Note_on_c, 9, 63, 62
37, 76560, Note_on_c, 9, 62, 62
37, 76574, Note_on_c, 9, 62, 0
37, 76574, Note_on_c, 9, 63, 0
37, 76620, Note_on_c, 9, 63, 62
37, 76634, Note_on_c, 9, 63, 0
37, 76680, Note_on_c, 9, 64, 62
37, 76694, Note_on_c, 9, 64, 0
37, 76800, Note_on_c, 9, 62, 62
37, 76814, Note_on_c, 9, 62, 0
37, 76860, Note_on_c, 9, 63, 62
37, 76874, Note_on_c, 9, 63, 0
37, 76920, Note_on_c, 9, 63, 62
37, 76920, Note_on_c, 9, 62, 62
37, 76934, Note_on_c, 9, 62, 0
37, 76934, Note_on_c, 9, 63, 0
37, 76980, Note_on_c, 9, 63, 62
37, 76994, Note_on_c, 9, 63, 0
37, 77040, Note_on_c, 9, 64, 62
37, 77054, Note_on_c, 9, 64, 0
37, 77160, Note_on_c, 9, 62, 62
37, 77174, Note_on_c, 9, 62, 0
37, 77220, Note_on_c, 9, 63, 62
37, 77234, Note_on_c, 9, 63, 0
37, 77280, Note_on_c, 9, 63, 62
37, 77280, Note_on_c, 9, 62, 62
37, 77294, Note_on_c, 9, 62, 0
37, 77294, Note_on_c, 9, 63, 0
37, 77340, Note_on_c, 9, 63, 62
37, 77354, Note_on_c, 9, 63, 0
37, 77400, Note_on_c, 9, 64, 62
37, 77414, Note_on_c, 9, 64, 0
37, 77520, Note_on_c, 9, 62, 62
37, 77534, Note_on_c, 9, 62, 0
37, 77580, Note_on_c, 9, 63, 62
37, 77594, Note_on_c, 9, 63, 0
37, 77640, Note_on_c, 9, 63, 62
37, 77640, Note_on_c, 9, 62, 62
37, 77654, Note_on_c, 9, 62, 0
37, 77654, Note_on_c, 9, 63, 0
37, 77700, Note_on_c, 9, 63, 62
37, 77714, Note_on_c, 9, 63, 0
37, 77760, Note_on_c, 9, 64, 62
37, 77774, Note_on_c, 9, 64, 0
37, 77880, Note_on_c, 9, 62, 62
37, 77894, Note_on_c, 9, 62, 0
37, 77940, Note_on_c, 9, 63, 62
37, 77954, Note_on_c, 9, 63, 0
37, 78000, Note_on_c, 9, 63, 62
37, 78000, Note_on_c, 9, 62, 62
37, 78014, Note_on_c, 9, 62, 0
37, 78014, Note_on_c, 9, 63, 0
37, 78060, Note_on_c, 9, 63, 62
37, 78074, Note_on_c, 9, 63, 0
37, 78120, Note_on_c, 9, 64, 62
37, 78134, Note_on_c, 9, 64, 0
37, 78240, Note_on_c, 9, 62, 62
37, 78254, Note_on_c, 9, 62, 0
37, 78300, Note_on_c, 9, 63, 62
37, 78314, Note_on_c, 9, 63, 0
37, 78360, Note_on_c, 9, 63, 62
37, 78360, Note_on_c, 9, 62, 62
37, 78374, Note_on_c, 9, 62, 0
37, 78374, Note_on_c, 9, 63, 0
37, 78420, Note_on_c, 9, 63, 62
37, 78434, Note_on_c, 9, 63, 0
37, 78480, Note_on_c, 9, 64, 62
37, 78494, Note_on_c, 9, 64, 0
37, 78600, Note_on_c, 9, 62, 62
37, 78614, Note_on_c, 9, 62, 0
37, 78660, Note_on_c, 9, 63, 62
37, 78674, Note_on_c, 9, 63, 0
37, 78720, Note_on_c, 9, 63, 62
37, 78720, Note_on_c, 9, 62, 62
37, 78734, Note_on_c, 9, 62, 0
37, 78734, Note_on_c, 9, 63, 0
37, 78780, Note_on_c, 9, 63, 62
37, 78794, Note_on_c, 9, 63, 0
37, 78840, Note_on_c, 9, 64, 62
37, 78854, Note_on_c, 9, 64, 0
37, 78960, Note_on_c, 9, 62, 62
37, 78974, Note_on_c, 9, 62, 0
37, 79020, Note_on_c, 9, 63, 62
37, 79034, Note_on_c, 9, 63, 0
37, 79080, Note_on_c, 9, 63, 62
37, 79080, Note_on_c, 9, 62, 62
37, 79094, Note_on_c, 9, 62, 0
37, 79094, Note_on_c, 9, 63, 0
37, 79140, Note_on_c, 9, 63, 62
37, 79154, Note_on_c, 9, 63, 0
37, 79200, Note_on_c, 9, 64, 62
37, 79214, Note_on_c, 9, 64, 0
37, 79320, Note_on_c, 9, 62, 62
37, 79334, Note_on_c, 9, 62, 0
37, 79380, Note_on_c, 9, 63, 62
37, 79394, Note_on_c, 9, 63, 0
37, 79440, Note_on_c, 9, 63, 62
37, 79440, Note_on_c, 9, 62, 62
37, 79454, Note_on_c, 9, 62, 0
37, 79454, Note_on_c, 9, 63, 0
37, 79500, Note_on_c, 9, 63, 62
37, 79514, Note_on_c, 9, 63, 0
37, 79560, Note_on_c, 9, 64, 62
37, 79574, Note_on_c, 9, 64, 0
37, 79680, Note_on_c, 9, 62, 62
37, 79694, Note_on_c, 9, 62, 0
37, 79740, Note_on_c, 9, 63, 62
37, 79754, Note_on_c, 9, 63, 0
37, 79800, Note_on_c, 9, 63, 62
37, 79800, Note_on_c, 9, 62, 62
37, 79814, Note_on_c, 9, 62, 0
37, 79814, Note_on_c, 9, 63, 0
37, 79860, Note_on_c, 9, 63, 62
37, 79874, Note_on_c, 9, 63, 0
37, 79920, Note_on_c, 9, 64, 62
37, 79934, Note_on_c, 9, 64, 0
37, 80040, Note_on_c, 9, 62, 62
37, 80054, Note_on_c, 9, 62, 0
37, 80100, Note_on_c, 9, 63, 62
37, 80114, Note_on_c, 9, 63, 0
37, 80160, Note_on_c, 9, 63, 62
37, 80160, Note_on_c, 9, 62, 62
37, 80174, Note_on_c, 9, 62, 0
37, 80174, Note_on_c, 9, 63, 0
37, 80220, Note_on_c, 9, 63, 62
37, 80234, Note_on_c, 9, 63, 0
37, 80280, Note_on_c, 9, 64, 62
37, 80294, Note_on_c, 9, 64, 0
37, 80400, Note_on_c, 9, 62, 62
37, 80414, Note_on_c, 9, 62, 0
37, 80460, Note_on_c, 9, 63, 62
37, 80474, Note_on_c, 9, 63, 0
37, 80520, Note_on_c, 9, 63, 62
37, 80520, Note_on_c, 9, 62, 62
37, 80534, Note_on_c, 9, 62, 0
37, 80534, Note_on_c, 9, 63, 0
37, 80580, Note_on_c, 9, 63, 62
37, 80594, Note_on_c, 9, 63, 0
37, 80640, Note_on_c, 9, 64, 62
37, 80654, Note_on_c, 9, 64, 0
37, 80760, Note_on_c, 9, 62, 62
37, 80774, Note_on_c, 9, 62, 0
37, 80820, Note_on_c, 9, 63, 62
37, 80834, Note_on_c, 9, 63, 0
37, 80880, Note_on_c, 9, 63, 62
37, 80880, Note_on_c, 9, 62, 62
37, 80894, Note_on_c, 9, 62, 0
37, 80894, Note_on_c, 9, 63, 0
37, 80940, Note_on_c, 9, 63, 62
37, 80954, Note_on_c, 9, 63, 0
37, 81000, Note_on_c, 9, 64, 62
37, 81014, Note_on_c, 9, 64, 0
37, 81120, Note_on_c, 9, 62, 62
37, 81134, Note_on_c, 9, 62, 0
37, 81180, Note_on_c, 9, 63, 62
37, 81194, Note_on_c, 9, 63, 0
37, 81240, Note_on_c, 9, 63, 62
37, 81240, Note_on_c, 9, 62, 62
37, 81254, Note_on_c, 9, 62, 0
37, 81254, Note_on_c, 9, 63, 0
37, 81300, Note_on_c, 9, 63, 62
37, 81314, Note_on_c, 9, 63, 0
37, 81360, Note_on_c, 9, 64, 62
37, 81374, Note_on_c, 9, 64, 0
37, 81480, Note_on_c, 9, 62, 62
37, 81494, Note_on_c, 9, 62, 0
37, 81540, Note_on_c, 9, 63, 62
37, 81554, Note_on_c, 9, 63, 0
37, 81600, Note_on_c, 9, 63, 62
37, 81600, Note_on_c, 9, 62, 62
37, 81614, Note_on_c, 9, 62, 0
37, 81614, Note_on_c, 9, 63, 0
37, 81660, Note_on_c, 9, 63, 62
37, 81674, Note_on_c, 9, 63, 0
37, 81720, Note_on_c, 9, 64, 62
37, 81734, Note_on_c, 9, 64, 0
37, 81840, Note_on_c, 9, 62, 62
37, 81854, Note_on_c, 9, 62, 0
37, 81900, Note_on_c, 9, 63, 62
37, 81914, Note_on_c, 9, 63, 0
37, 81960, Note_on_c, 9, 63, 62
37, 81960, Note_on_c, 9, 62, 62
37, 81974, Note_on_c, 9, 62, 0
37, 81974, Note_on_c, 9, 63, 0
37, 82020, Note_on_c, 9, 63, 62
37, 82034, Note_on_c, 9, 63, 0
37, 82080, Note_on_c, 9, 64, 62
37, 82094, Note_on_c, 9, 64, 0
37, 82200, Note_on_c, 9, 62, 62
37, 82214, Note_on_c, 9, 62, 0
37, 82260, Note_on_c, 9, 63, 62
37, 82274, Note_on_c, 9, 63, 0
37, 82320, Note_on_c, 9, 63, 62
37, 82320, Note_on_c, 9, 62, 62
37, 82334, Note_on_c, 9, 62, 0
37, 82334, Note_on_c, 9, 63, 0
37, 82380, Note_on_c, 9, 63, 62
37, 82394, Note_on_c, 9, 63, 0
37, 82440, Note_on_c, 9, 64, 62
37, 82454, Note_on_c, 9, 64, 0
37, 82560, Note_on_c, 9, 62, 62
37, 82574, Note_on_c, 9, 62, 0
37, 82620, Note_on_c, 9, 63, 62
37, 82634, Note_on_c, 9, 63, 0
37, 82680, Note_on_c, 9, 63, 62
37, 82680, Note_on_c, 9, 62, 62
37, 82694, Note_on_c, 9, 62, 0
37, 82694, Note_on_c, 9, 63, 0
37, 82740, Note_on_c, 9, 63, 62
37, 82754, Note_on_c, 9, 63, 0
37, 82800, Note_on_c, 9, 64, 62
37, 82814, Note_on_c, 9, 64, 0
37, 82920, Note_on_c, 9, 62, 62
37, 82934, Note_on_c, 9, 62, 0
37, 82980, Note_on_c, 9, 63, 62
37, 82994, Note_on_c, 9, 63, 0
37, 83040, Note_on_c, 9, 63, 62
37, 83040, Note_on_c, 9, 62, 62
37, 83054, Note_on_c, 9, 62, 0
37, 83054, Note_on_c, 9, 63, 0
37, 83100, Note_on_c, 9, 63, 62
37, 83114, Note_on_c, 9, 63, 0
37, 83160, Note_on_c, 9, 64, 62
37, 83174, Note_on_c, 9, 64, 0
37, 83280, Note_on_c, 9, 62, 62
37, 83294, Note_on_c, 9, 62, 0
37, 83340, Note_on_c, 9, 63, 62
37, 83354, Note_on_c, 9, 63, 0
37, 83400, Note_on_c, 9, 63, 62
37, 83400, Note_on_c, 9, 62, 62
37, 83414, Note_on_c, 9, 62, 0
37, 83414, Note_on_c, 9, 63, 0
37, 83460, Note_on_c, 9, 63, 62
37, 83474, Note_on_c, 9, 63, 0
37, 83520, Note_on_c, 9, 64, 62
37, 83534, Note_on_c, 9, 64, 0
37, 83640, Note_on_c, 9, 62, 62
37, 83654, Note_on_c, 9, 62, 0
37, 83700, Note_on_c, 9, 63, 62
37, 83714, Note_on_c, 9, 63, 0
37, 83760, Note_on_c, 9, 63, 62
37, 83760, Note_on_c, 9, 62, 62
37, 83774, Note_on_c, 9, 62, 0
37, 83774, Note_on_c, 9, 63, 0
37, 83820, Note_on_c, 9, 63, 62
37, 83834, Note_on_c, 9, 63, 0
37, 83880, Note_on_c, 9, 64, 62
37, 83894, Note_on_c, 9, 64, 0
37, 84000, Note_on_c, 9, 62, 62
37, 84014, Note_on_c, 9, 62, 0
37, 84060, Note_on_c, 9, 63, 62
37, 84074, Note_on_c, 9, 63, 0
37, 84120, Note_on_c, 9, 63, 62
37, 84120, Note_on_c, 9, 62, 62
37, 84134, Note_on_c, 9, 62, 0
37, 84134, Note_on_c, 9, 63, 0
37, 84180, Note_on_c, 9, 63, 62
37, 84194, Note_on_c, 9, 63, 0
37, 84240, Note_on_c, 9, 64, 62
37, 84254, Note_on_c, 9, 64, 0
37, 84360, Note_on_c, 9, 62, 62
37, 84374, Note_on_c, 9, 62, 0
37, 84420, Note_on_c, 9, 63, 62
37, 84434, Note_on_c, 9, 63, 0
37, 84480, Note_on_c, 9, 63, 62
37, 84480, Note_on_c, 9, 62, 62
37, 84494, Note_on_c, 9, 62, 0
37, 84494, Note_on_c, 9, 63, 0
37, 84540, Note_on_c, 9, 63, 62
37, 84554, Note_on_c, 9, 63, 0
37, 84600, Note_on_c, 9, 64, 62
37, 84614, Note_on_c, 9, 64, 0
37, 84720, Note_on_c, 9, 62, 62
37, 84734, Note_on_c, 9, 62, 0
37, 84780, Note_on_c, 9, 63, 62
37, 84794, Note_on_c, 9, 63, 0
37, 84840, Note_on_c, 9, 63, 62
37, 84840, Note_on_c, 9, 62, 62
37, 84854, Note_on_c, 9, 62, 0
37, 84854, Note_on_c, 9, 63, 0
37, 84900, Note_on_c, 9, 63, 62
37, 84914, Note_on_c, 9, 63, 0
37, 84914, End_track
38, 0, Start_track
38, 0, MIDI_port, 0
38, 0, Title_t, "  Bell Tree"
38, 42420, Note_on_c, 9, 84, 70
38, 42434, Note_on_c, 9, 84, 0
38, 42434, End_track
0, 0, End_of_file
