0, 0, Header, 1, 11, 48
1, 0, Start_track
1, 0, Time_signature, 4, 2, 24, 8
1, 0, Tempo, 545454
1, 0, Tempo, 545454
1, 192, Tempo, 545454
1, 384, Tempo, 545454
1, 576, Tempo, 545454
1, 768, Tempo, 545454
1, 960, Tempo, 545454
1, 1152, Tempo, 545454
1, 1344, Tempo, 545454
1, 1536, Tempo, 545454
1, 1728, Tempo, 545454
1, 1920, Tempo, 545454
1, 2112, Tempo, 545454
1, 2304, Tempo, 545454
1, 2496, Tempo, 545454
1, 2688, Tempo, 545454
1, 2880, Tempo, 545454
1, 3072, Tempo, 545454
1, 3264, Tempo, 545454
1, 3456, Tempo, 545454
1, 3648, Tempo, 545454
1, 3840, Tempo, 545454
1, 4032, Tempo, 545454
1, 4224, Tempo, 545454
1, 4416, Tempo, 545454
1, 4608, Tempo, 545454
1, 4800, Tempo, 545454
1, 4992, Tempo, 545454
1, 5184, Tempo, 545454
1, 5376, Tempo, 545454
1, 5568, Tempo, 545454
1, 5760, Tempo, 545454
1, 5952, Tempo, 545454
1, 6144, Tempo, 545454
1, 6336, Tempo, 545454
1, 6528, Tempo, 545454
1, 6720, Tempo, 545454
1, 6912, Tempo, 545454
1, 7104, Tempo, 545454
1, 7296, Tempo, 545454
1, 7488, Tempo, 545454
1, 7680, Tempo, 545454
1, 7872, Tempo, 545454
1, 8064, Tempo, 545454
1, 8256, Tempo, 545454
1, 8448, Tempo, 545454
1, 8640, Tempo, 545454
1, 8832, Tempo, 545454
1, 9024, Tempo, 545454
1, 9216, Tempo, 545454
1, 9408, Tempo, 545454
1, 9600, Tempo, 545454
1, 9792, Tempo, 545454
1, 9984, Tempo, 545454
1, 10176, Tempo, 545454
1, 10368, Tempo, 545454
1, 10560, Tempo, 545454
1, 10752, Tempo, 545454
1, 10944, Tempo, 545454
1, 11136, Tempo, 545454
1, 11328, Tempo, 545454
1, 11520, Tempo, 545454
1, 11712, Tempo, 545454
1, 11904, Tempo, 545454
1, 12096, Tempo, 545454
1, 12288, Tempo, 545454
1, 12480, Tempo, 545454
1, 12672, Tempo, 545454
1, 12864, Tempo, 545454
1, 12864, End_track
2, 0, Start_track
2, 0, Title_t, "As Tears"
2, 0, Control_c, 0, 7, 96
2, 0, Pitch_bend_c, 0, 8192
2, 0, Control_c, 0, 1, 0
2, 0, Program_c, 0, 0
2, 0, Control_c, 0, 64, 0
2, 0, Control_c, 0, 10, 64
2, 0, End_track
3, 0, Start_track
3, 0, Title_t, "Go By"
3, 0, Control_c, 1, 7, 96
3, 0, Pitch_bend_c, 1, 8192
3, 0, Control_c, 1, 1, 0
3, 0, Program_c, 1, 68
3, 0, Control_c, 1, 64, 0
3, 0, Control_c, 1, 10, 64
3, 0, End_track
4, 0, Start_track
4, 0, Title_t, "Guitar"
4, 0, Program_c, 2, 59
4, 0, Control_c, 2, 64, 0
4, 0, Control_c, 2, 64, 127
4, 0, Note_on_c, 2, 59, 70
4, 0, Note_on_c, 2, 55, 70
4, 0, Note_on_c, 2, 62, 70
4, 84, Note_on_c, 2, 55, 0
4, 84, Note_on_c, 2, 59, 0
4, 84, Note_on_c, 2, 62, 0
4, 192, Control_c, 2, 64, 0
4, 192, Control_c, 2, 64, 127
4, 192, Note_on_c, 2, 61, 70
4, 192, Note_on_c, 2, 57, 70
4, 192, Note_on_c, 2, 64, 70
4, 276, Note_on_c, 2, 57, 0
4, 276, Note_on_c, 2, 61, 0
4, 276, Note_on_c, 2, 64, 0
4, 312, Note_on_c, 2, 57, 60
4, 336, Note_on_c, 2, 57, 0
4, 336, Note_on_c, 2, 61, 65
4, 360, Note_on_c, 2, 61, 0
4, 360, Note_on_c, 2, 64, 70
4, 384, Note_on_c, 2, 64, 0
4, 384, Control_c, 2, 64, 0
4, 384, Control_c, 2, 64, 127
4, 384, Note_on_c, 2, 60, 70
4, 384, Note_on_c, 2, 55, 70
4, 384, Note_on_c, 2, 48, 70
4, 384, Note_on_c, 2, 64, 70
4, 385, Note_on_c, 2, 64, 0
4, 468, Note_on_c, 2, 55, 0
4, 468, Note_on_c, 2, 60, 0
4, 468, Note_on_c, 2, 48, 0
4, 504, Note_on_c, 2, 55, 60
4, 528, Note_on_c, 2, 55, 0
4, 528, Note_on_c, 2, 60, 65
4, 552, Note_on_c, 2, 60, 0
4, 552, Note_on_c, 2, 64, 70
4, 576, Note_on_c, 2, 64, 0
4, 576, Control_c, 2, 64, 0
4, 576, Control_c, 2, 64, 127
4, 576, Note_on_c, 2, 62, 70
4, 576, Note_on_c, 2, 57, 70
4, 576, Note_on_c, 2, 66, 70
4, 660, Note_on_c, 2, 57, 0
4, 660, Note_on_c, 2, 62, 0
4, 660, Note_on_c, 2, 66, 0
4, 768, Control_c, 2, 64, 0
4, 768, Control_c, 2, 64, 127
4, 768, Note_on_c, 2, 59, 70
4, 768, Note_on_c, 2, 55, 70
4, 768, Note_on_c, 2, 62, 70
4, 852, Note_on_c, 2, 55, 0
4, 852, Note_on_c, 2, 59, 0
4, 852, Note_on_c, 2, 62, 0
4, 888, Note_on_c, 2, 55, 70
4, 912, Note_on_c, 2, 55, 0
4, 912, Note_on_c, 2, 59, 75
4, 912, Note_on_c, 2, 55, 75
4, 912, Note_on_c, 2, 62, 75
4, 913, Note_on_c, 2, 55, 0
4, 960, Note_on_c, 2, 59, 0
4, 960, Note_on_c, 2, 62, 0
4, 960, Control_c, 2, 64, 0
4, 960, Control_c, 2, 64, 127
4, 960, Note_on_c, 2, 61, 70
4, 960, Note_on_c, 2, 57, 70
4, 960, Note_on_c, 2, 64, 70
4, 1044, Note_on_c, 2, 57, 0
4, 1044, Note_on_c, 2, 61, 0
4, 1044, Note_on_c, 2, 64, 0
4, 1080, Note_on_c, 2, 45, 70
4, 1104, Note_on_c, 2, 45, 0
4, 1104, Note_on_c, 2, 61, 75
4, 1104, Note_on_c, 2, 57, 75
4, 1104, Note_on_c, 2, 64, 75
4, 1104, Note_on_c, 2, 69, 75
4, 1152, Note_on_c, 2, 57, 0
4, 1152, Note_on_c, 2, 61, 0
4, 1152, Note_on_c, 2, 64, 0
4, 1152, Note_on_c, 2, 69, 0
4, 1152, Control_c, 2, 64, 0
4, 1152, Control_c, 2, 64, 127
4, 1152, Note_on_c, 2, 60, 70
4, 1152, Note_on_c, 2, 55, 70
4, 1152, Note_on_c, 2, 64, 70
4, 1152, Note_on_c, 2, 67, 70
4, 1153, Note_on_c, 2, 64, 0
4, 1236, Note_on_c, 2, 60, 0
4, 1236, Note_on_c, 2, 55, 0
4, 1236, Note_on_c, 2, 67, 0
4, 1344, Control_c, 2, 10, 18
4, 1344, Control_c, 2, 64, 0
4, 1344, Control_c, 2, 64, 127
4, 1344, Note_on_c, 2, 62, 70
4, 1344, Note_on_c, 2, 57, 70
4, 1344, Note_on_c, 2, 66, 70
4, 1344, Note_on_c, 2, 69, 70
4, 1428, Note_on_c, 2, 57, 0
4, 1428, Note_on_c, 2, 62, 0
4, 1428, Note_on_c, 2, 66, 0
4, 1428, Note_on_c, 2, 69, 0
4, 1464, Note_on_c, 2, 57, 60
4, 1488, Note_on_c, 2, 57, 0
4, 1488, Note_on_c, 2, 62, 65
4, 1512, Note_on_c, 2, 62, 0
4, 1512, Note_on_c, 2, 66, 70
4, 1536, Note_on_c, 2, 66, 0
4, 1536, Control_c, 2, 64, 0
4, 1536, Control_c, 2, 64, 127
4, 1536, Note_on_c, 2, 59, 70
4, 1536, Note_on_c, 2, 55, 70
4, 1536, Note_on_c, 2, 62, 70
4, 1536, Note_on_c, 2, 67, 70
4, 1620, Note_on_c, 2, 55, 0
4, 1620, Note_on_c, 2, 59, 0
4, 1620, Note_on_c, 2, 62, 0
4, 1620, Note_on_c, 2, 67, 0
4, 1656, Note_on_c, 2, 55, 70
4, 1680, Note_on_c, 2, 55, 0
4, 1680, Note_on_c, 2, 59, 75
4, 1680, Note_on_c, 2, 55, 75
4, 1680, Note_on_c, 2, 62, 75
4, 1680, Note_on_c, 2, 67, 75
4, 1681, Note_on_c, 2, 55, 0
4, 1728, Note_on_c, 2, 59, 0
4, 1728, Note_on_c, 2, 62, 0
4, 1728, Note_on_c, 2, 67, 0
4, 1728, Control_c, 2, 64, 0
4, 1728, Control_c, 2, 64, 127
4, 1728, Note_on_c, 2, 61, 70
4, 1728, Note_on_c, 2, 57, 70
4, 1728, Note_on_c, 2, 64, 70
4, 1812, Note_on_c, 2, 57, 0
4, 1812, Note_on_c, 2, 61, 0
4, 1812, Note_on_c, 2, 64, 0
4, 1848, Note_on_c, 2, 45, 70
4, 1872, Note_on_c, 2, 45, 0
4, 1872, Note_on_c, 2, 61, 75
4, 1872, Note_on_c, 2, 57, 75
4, 1872, Note_on_c, 2, 64, 75
4, 1872, Note_on_c, 2, 69, 75
4, 1920, Note_on_c, 2, 57, 0
4, 1920, Note_on_c, 2, 61, 0
4, 1920, Note_on_c, 2, 64, 0
4, 1920, Note_on_c, 2, 69, 0
4, 1920, Control_c, 2, 64, 0
4, 1920, Control_c, 2, 64, 127
4, 1920, Note_on_c, 2, 60, 70
4, 1920, Note_on_c, 2, 55, 70
4, 1920, Note_on_c, 2, 64, 70
4, 1921, Note_on_c, 2, 64, 0
4, 2004, Note_on_c, 2, 60, 0
4, 2004, Note_on_c, 2, 55, 0
4, 2040, Note_on_c, 2, 55, 60
4, 2064, Note_on_c, 2, 55, 0
4, 2064, Note_on_c, 2, 60, 65
4, 2088, Note_on_c, 2, 60, 0
4, 2088, Note_on_c, 2, 64, 70
4, 2112, Note_on_c, 2, 64, 0
4, 2112, Control_c, 2, 64, 0
4, 2112, Control_c, 2, 64, 127
4, 2112, Note_on_c, 2, 62, 70
4, 2112, Note_on_c, 2, 57, 70
4, 2112, Note_on_c, 2, 66, 70
4, 2196, Note_on_c, 2, 57, 0
4, 2196, Note_on_c, 2, 62, 0
4, 2196, Note_on_c, 2, 66, 0
4, 2232, Note_on_c, 2, 50, 70
4, 2256, Note_on_c, 2, 50, 0
4, 2256, Note_on_c, 2, 62, 75
4, 2256, Note_on_c, 2, 57, 75
4, 2256, Note_on_c, 2, 50, 75
4, 2256, Note_on_c, 2, 66, 75
4, 2257, Note_on_c, 2, 50, 0
4, 2304, Note_on_c, 2, 57, 0
4, 2304, Note_on_c, 2, 62, 0
4, 2304, Note_on_c, 2, 66, 0
4, 2304, Control_c, 2, 64, 0
4, 2304, Control_c, 2, 64, 127
4, 2304, Note_on_c, 2, 60, 70
4, 2304, Note_on_c, 2, 55, 70
4, 2304, Note_on_c, 2, 64, 70
4, 2304, Note_on_c, 2, 67, 70
4, 2388, Note_on_c, 2, 55, 0
4, 2388, Note_on_c, 2, 60, 0
4, 2388, Note_on_c, 2, 64, 0
4, 2388, Note_on_c, 2, 67, 0
4, 2424, Note_on_c, 2, 48, 70
4, 2448, Note_on_c, 2, 48, 0
4, 2448, Note_on_c, 2, 60, 75
4, 2448, Note_on_c, 2, 55, 75
4, 2448, Note_on_c, 2, 48, 75
4, 2448, Note_on_c, 2, 64, 75
4, 2449, Note_on_c, 2, 48, 0
4, 2496, Note_on_c, 2, 55, 0
4, 2496, Note_on_c, 2, 60, 0
4, 2496, Note_on_c, 2, 64, 0
4, 2496, Control_c, 2, 64, 0
4, 2496, Control_c, 2, 64, 127
4, 2496, Note_on_c, 2, 60, 70
4, 2496, Note_on_c, 2, 57, 70
4, 2496, Note_on_c, 2, 62, 70
4, 2496, Note_on_c, 2, 66, 70
4, 2497, Note_on_c, 2, 60, 0
4, 2580, Note_on_c, 2, 57, 0
4, 2580, Note_on_c, 2, 62, 0
4, 2580, Note_on_c, 2, 66, 0
4, 2616, Note_on_c, 2, 50, 70
4, 2640, Note_on_c, 2, 50, 0
4, 2640, Note_on_c, 2, 60, 75
4, 2640, Note_on_c, 2, 57, 75
4, 2640, Note_on_c, 2, 62, 75
4, 2640, Note_on_c, 2, 66, 75
4, 2688, Note_on_c, 2, 57, 0
4, 2688, Note_on_c, 2, 60, 0
4, 2688, Note_on_c, 2, 62, 0
4, 2688, Note_on_c, 2, 66, 0
4, 2688, Control_c, 2, 64, 0
4, 2688, Control_c, 2, 64, 127
4, 2688, Note_on_c, 2, 59, 70
4, 2688, Note_on_c, 2, 55, 70
4, 2688, Note_on_c, 2, 62, 70
4, 2689, Note_on_c, 2, 62, 0
4, 2772, Note_on_c, 2, 59, 0
4, 2772, Note_on_c, 2, 55, 0
4, 2880, Control_c, 2, 64, 0
4, 2880, Control_c, 2, 64, 127
4, 2880, Note_on_c, 2, 62, 70
4, 2880, Note_on_c, 2, 59, 70
4, 2880, Note_on_c, 2, 64, 70
4, 2880, Note_on_c, 2, 67, 70
4, 2964, Note_on_c, 2, 59, 0
4, 2964, Note_on_c, 2, 62, 0
4, 2964, Note_on_c, 2, 64, 0
4, 2964, Note_on_c, 2, 67, 0
4, 3000, Note_on_c, 2, 52, 70
4, 3024, Note_on_c, 2, 52, 0
4, 3024, Note_on_c, 2, 62, 75
4, 3024, Note_on_c, 2, 59, 75
4, 3024, Note_on_c, 2, 64, 75
4, 3024, Note_on_c, 2, 67, 75
4, 3072, Note_on_c, 2, 59, 0
4, 3072, Note_on_c, 2, 62, 0
4, 3072, Note_on_c, 2, 64, 0
4, 3072, Note_on_c, 2, 67, 0
4, 3072, Control_c, 2, 64, 0
4, 3072, Control_c, 2, 64, 127
4, 3072, Note_on_c, 2, 60, 70
4, 3072, Note_on_c, 2, 55, 70
4, 3072, Note_on_c, 2, 64, 70
4, 3073, Note_on_c, 2, 64, 0
4, 3092, Note_on_c, 2, 60, 0
4, 3092, Note_on_c, 2, 55, 0
4, 3120, Note_on_c, 2, 55, 70
4, 3140, Note_on_c, 2, 55, 0
4, 3144, Note_on_c, 2, 60, 60
4, 3164, Note_on_c, 2, 60, 0
4, 3164, Control_c, 2, 64, 0
4, 3164, Control_c, 2, 64, 127
4, 3168, Note_on_c, 2, 60, 70
4, 3168, Note_on_c, 2, 57, 70
4, 3168, Note_on_c, 2, 64, 70
4, 3168, Note_on_c, 2, 48, 70
4, 3168, Note_on_c, 2, 67, 70
4, 3188, Note_on_c, 2, 48, 0
4, 3188, Note_on_c, 2, 57, 0
4, 3188, Note_on_c, 2, 60, 0
4, 3188, Note_on_c, 2, 64, 0
4, 3188, Note_on_c, 2, 67, 0
4, 3192, Note_on_c, 2, 48, 70
4, 3216, Note_on_c, 2, 48, 0
4, 3216, Note_on_c, 2, 57, 60
4, 3240, Note_on_c, 2, 57, 0
4, 3240, Note_on_c, 2, 60, 65
4, 3240, Note_on_c, 2, 57, 65
4, 3240, Note_on_c, 2, 64, 65
4, 3240, Note_on_c, 2, 67, 65
4, 3241, Note_on_c, 2, 57, 0
4, 3260, Note_on_c, 2, 60, 0
4, 3260, Note_on_c, 2, 64, 0
4, 3260, Note_on_c, 2, 67, 0
4, 3264, Control_c, 2, 64, 0
4, 3264, Note_on_c, 2, 62, 75
4, 3264, Note_on_c, 2, 59, 75
4, 3264, Note_on_c, 2, 64, 75
4, 3264, Note_on_c, 2, 67, 75
4, 3348, Note_on_c, 2, 59, 0
4, 3348, Note_on_c, 2, 62, 0
4, 3348, Note_on_c, 2, 64, 0
4, 3348, Note_on_c, 2, 67, 0
4, 3348, Control_c, 2, 64, 127
4, 3360, Note_on_c, 2, 60, 70
4, 3360, Note_on_c, 2, 57, 70
4, 3360, Note_on_c, 2, 64, 70
4, 3360, Note_on_c, 2, 48, 70
4, 3360, Note_on_c, 2, 67, 70
4, 3380, Note_on_c, 2, 48, 0
4, 3380, Note_on_c, 2, 57, 0
4, 3380, Note_on_c, 2, 60, 0
4, 3380, Note_on_c, 2, 64, 0
4, 3380, Note_on_c, 2, 67, 0
4, 3384, Note_on_c, 2, 48, 60
4, 3408, Note_on_c, 2, 48, 0
4, 3408, Note_on_c, 2, 57, 65
4, 3432, Note_on_c, 2, 57, 0
4, 3432, Note_on_c, 2, 60, 60
4, 3456, Note_on_c, 2, 60, 0
4, 3456, Control_c, 2, 64, 0
4, 3456, Control_c, 2, 64, 127
4, 3456, Note_on_c, 2, 62, 70
4, 3456, Note_on_c, 2, 57, 70
4, 3456, Note_on_c, 2, 66, 70
4, 3540, Note_on_c, 2, 57, 0
4, 3540, Note_on_c, 2, 62, 0
4, 3540, Note_on_c, 2, 66, 0
4, 3576, Note_on_c, 2, 50, 70
4, 3600, Note_on_c, 2, 50, 0
4, 3600, Note_on_c, 2, 62, 75
4, 3600, Note_on_c, 2, 57, 75
4, 3600, Note_on_c, 2, 66, 75
4, 3648, Note_on_c, 2, 57, 0
4, 3648, Note_on_c, 2, 62, 0
4, 3648, Note_on_c, 2, 66, 0
4, 3648, Control_c, 2, 64, 0
4, 3648, Control_c, 2, 64, 127
4, 3648, Note_on_c, 2, 62, 70
4, 3648, Note_on_c, 2, 60, 70
4, 3648, Note_on_c, 2, 66, 70
4, 3648, Note_on_c, 2, 69, 70
4, 3649, Note_on_c, 2, 62, 0
4, 3649, Note_on_c, 2, 66, 0
4, 3732, Note_on_c, 2, 60, 0
4, 3732, Note_on_c, 2, 69, 0
4, 3768, Note_on_c, 2, 60, 60
4, 3792, Note_on_c, 2, 60, 0
4, 3792, Note_on_c, 2, 62, 65
4, 3816, Note_on_c, 2, 62, 0
4, 3816, Note_on_c, 2, 66, 70
4, 3840, Note_on_c, 2, 66, 0
4, 3840, Control_c, 2, 64, 0
4, 3840, Control_c, 2, 64, 127
4, 3840, Note_on_c, 2, 59, 70
4, 3840, Note_on_c, 2, 55, 70
4, 3840, Note_on_c, 2, 62, 70
4, 3924, Note_on_c, 2, 55, 0
4, 3924, Note_on_c, 2, 59, 0
4, 3924, Note_on_c, 2, 62, 0
4, 3960, Note_on_c, 2, 55, 60
4, 3984, Note_on_c, 2, 55, 0
4, 3984, Note_on_c, 2, 59, 65
4, 4008, Note_on_c, 2, 59, 0
4, 4008, Note_on_c, 2, 62, 70
4, 4032, Note_on_c, 2, 62, 0
4, 4032, Control_c, 2, 64, 0
4, 4032, Control_c, 2, 64, 127
4, 4032, Note_on_c, 2, 61, 70
4, 4032, Note_on_c, 2, 57, 70
4, 4032, Note_on_c, 2, 64, 70
4, 4032, Note_on_c, 2, 69, 70
4, 4116, Note_on_c, 2, 57, 0
4, 4116, Note_on_c, 2, 61, 0
4, 4116, Note_on_c, 2, 64, 0
4, 4116, Note_on_c, 2, 69, 0
4, 4224, Control_c, 2, 64, 0
4, 4224, Control_c, 2, 64, 127
4, 4224, Note_on_c, 2, 60, 70
4, 4224, Note_on_c, 2, 55, 70
4, 4224, Note_on_c, 2, 64, 70
4, 4224, Note_on_c, 2, 67, 70
4, 4308, Note_on_c, 2, 55, 0
4, 4308, Note_on_c, 2, 60, 0
4, 4308, Note_on_c, 2, 64, 0
4, 4308, Note_on_c, 2, 67, 0
4, 4344, Note_on_c, 2, 48, 70
4, 4368, Note_on_c, 2, 48, 0
4, 4368, Note_on_c, 2, 60, 75
4, 4368, Note_on_c, 2, 55, 75
4, 4368, Note_on_c, 2, 64, 75
4, 4416, Note_on_c, 2, 55, 0
4, 4416, Note_on_c, 2, 60, 0
4, 4416, Note_on_c, 2, 64, 0
4, 4416, Control_c, 2, 64, 0
4, 4416, Control_c, 2, 64, 127
4, 4416, Note_on_c, 2, 62, 70
4, 4416, Note_on_c, 2, 57, 70
4, 4416, Note_on_c, 2, 66, 70
4, 4500, Note_on_c, 2, 57, 0
4, 4500, Note_on_c, 2, 62, 0
4, 4500, Note_on_c, 2, 66, 0
4, 4608, Control_c, 2, 64, 0
4, 4608, Control_c, 2, 64, 127
4, 4608, Note_on_c, 2, 59, 70
4, 4608, Note_on_c, 2, 55, 70
4, 4608, Note_on_c, 2, 62, 70
4, 4608, Note_on_c, 2, 67, 70
4, 4692, Note_on_c, 2, 55, 0
4, 4692, Note_on_c, 2, 59, 0
4, 4692, Note_on_c, 2, 62, 0
4, 4692, Note_on_c, 2, 67, 0
4, 4728, Note_on_c, 2, 55, 70
4, 4752, Note_on_c, 2, 55, 0
4, 4752, Note_on_c, 2, 59, 75
4, 4752, Note_on_c, 2, 55, 75
4, 4752, Note_on_c, 2, 62, 75
4, 4753, Note_on_c, 2, 55, 0
4, 4800, Note_on_c, 2, 59, 0
4, 4800, Note_on_c, 2, 62, 0
4, 4800, Control_c, 2, 64, 0
4, 4800, Control_c, 2, 64, 127
4, 4800, Note_on_c, 2, 61, 70
4, 4800, Note_on_c, 2, 57, 70
4, 4800, Note_on_c, 2, 64, 70
4, 4800, Note_on_c, 2, 69, 70
4, 4884, Note_on_c, 2, 57, 0
4, 4884, Note_on_c, 2, 61, 0
4, 4884, Note_on_c, 2, 64, 0
4, 4884, Note_on_c, 2, 69, 0
4, 4920, Note_on_c, 2, 57, 60
4, 4944, Note_on_c, 2, 57, 0
4, 4944, Note_on_c, 2, 61, 65
4, 4968, Note_on_c, 2, 61, 0
4, 4968, Note_on_c, 2, 64, 70
4, 4992, Note_on_c, 2, 64, 0
4, 4992, Control_c, 2, 64, 0
4, 4992, Control_c, 2, 64, 127
4, 4992, Note_on_c, 2, 60, 70
4, 4992, Note_on_c, 2, 55, 70
4, 4992, Note_on_c, 2, 64, 70
4, 4993, Note_on_c, 2, 64, 0
4, 5076, Note_on_c, 2, 60, 0
4, 5076, Note_on_c, 2, 55, 0
4, 5112, Note_on_c, 2, 48, 70
4, 5136, Note_on_c, 2, 48, 0
4, 5136, Note_on_c, 2, 60, 75
4, 5136, Note_on_c, 2, 55, 75
4, 5136, Note_on_c, 2, 64, 75
4, 5136, Note_on_c, 2, 67, 75
4, 5184, Note_on_c, 2, 55, 0
4, 5184, Note_on_c, 2, 60, 0
4, 5184, Note_on_c, 2, 64, 0
4, 5184, Note_on_c, 2, 67, 0
4, 5184, Control_c, 2, 64, 0
4, 5184, Control_c, 2, 64, 127
4, 5184, Note_on_c, 2, 62, 70
4, 5184, Note_on_c, 2, 57, 70
4, 5184, Note_on_c, 2, 66, 70
4, 5184, Note_on_c, 2, 50, 70
4, 5184, Note_on_c, 2, 69, 70
4, 5268, Note_on_c, 2, 50, 0
4, 5268, Note_on_c, 2, 57, 0
4, 5268, Note_on_c, 2, 62, 0
4, 5268, Note_on_c, 2, 66, 0
4, 5268, Note_on_c, 2, 69, 0
4, 5376, Control_c, 2, 64, 0
4, 5376, Control_c, 2, 64, 127
4, 5376, Note_on_c, 2, 60, 70
4, 5376, Note_on_c, 2, 55, 70
4, 5376, Note_on_c, 2, 64, 70
4, 5376, Note_on_c, 2, 48, 70
4, 5376, Note_on_c, 2, 67, 70
4, 5460, Note_on_c, 2, 48, 0
4, 5460, Note_on_c, 2, 55, 0
4, 5460, Note_on_c, 2, 60, 0
4, 5460, Note_on_c, 2, 64, 0
4, 5460, Note_on_c, 2, 67, 0
4, 5496, Note_on_c, 2, 48, 70
4, 5520, Note_on_c, 2, 48, 0
4, 5520, Note_on_c, 2, 60, 75
4, 5520, Note_on_c, 2, 55, 75
4, 5520, Note_on_c, 2, 64, 75
4, 5520, Note_on_c, 2, 48, 75
4, 5520, Note_on_c, 2, 67, 75
4, 5521, Note_on_c, 2, 48, 0
4, 5568, Note_on_c, 2, 55, 0
4, 5568, Note_on_c, 2, 60, 0
4, 5568, Note_on_c, 2, 64, 0
4, 5568, Note_on_c, 2, 67, 0
4, 5568, Control_c, 2, 64, 0
4, 5568, Control_c, 2, 64, 127
4, 5568, Note_on_c, 2, 62, 70
4, 5568, Note_on_c, 2, 60, 70
4, 5568, Note_on_c, 2, 66, 70
4, 5568, Note_on_c, 2, 50, 70
4, 5568, Note_on_c, 2, 69, 70
4, 5569, Note_on_c, 2, 60, 0
4, 5652, Note_on_c, 2, 50, 0
4, 5652, Note_on_c, 2, 62, 0
4, 5652, Note_on_c, 2, 66, 0
4, 5652, Note_on_c, 2, 69, 0
4, 5688, Note_on_c, 2, 60, 60
4, 5712, Note_on_c, 2, 60, 0
4, 5712, Note_on_c, 2, 62, 65
4, 5736, Note_on_c, 2, 62, 0
4, 5736, Note_on_c, 2, 66, 70
4, 5760, Note_on_c, 2, 66, 0
4, 5760, Control_c, 2, 64, 0
4, 5760, Control_c, 2, 64, 127
4, 5760, Note_on_c, 2, 59, 70
4, 5760, Note_on_c, 2, 55, 70
4, 5760, Note_on_c, 2, 62, 70
4, 5844, Note_on_c, 2, 55, 0
4, 5844, Note_on_c, 2, 59, 0
4, 5844, Note_on_c, 2, 62, 0
4, 5880, Note_on_c, 2, 55, 70
4, 5904, Note_on_c, 2, 55, 0
4, 5904, Note_on_c, 2, 59, 75
4, 5904, Note_on_c, 2, 55, 75
4, 5904, Note_on_c, 2, 62, 75
4, 5904, Note_on_c, 2, 67, 75
4, 5905, Note_on_c, 2, 55, 0
4, 5952, Note_on_c, 2, 59, 0
4, 5952, Note_on_c, 2, 62, 0
4, 5952, Note_on_c, 2, 67, 0
4, 5952, Control_c, 2, 64, 0
4, 5952, Control_c, 2, 64, 127
4, 5952, Note_on_c, 2, 62, 70
4, 5952, Note_on_c, 2, 59, 70
4, 5952, Note_on_c, 2, 64, 70
4, 5952, Note_on_c, 2, 67, 70
4, 5953, Note_on_c, 2, 59, 0
4, 5953, Note_on_c, 2, 62, 0
4, 5953, Note_on_c, 2, 67, 0
4, 6036, Note_on_c, 2, 64, 0
4, 6144, Control_c, 2, 64, 0
4, 6144, Control_c, 2, 64, 127
4, 6144, Note_on_c, 2, 60, 70
4, 6144, Note_on_c, 2, 55, 70
4, 6144, Note_on_c, 2, 64, 70
4, 6144, Note_on_c, 2, 67, 70
4, 6164, Note_on_c, 2, 55, 0
4, 6164, Note_on_c, 2, 60, 0
4, 6164, Note_on_c, 2, 64, 0
4, 6164, Note_on_c, 2, 67, 0
4, 6192, Note_on_c, 2, 55, 70
4, 6212, Note_on_c, 2, 55, 0
4, 6216, Note_on_c, 2, 60, 60
4, 6236, Note_on_c, 2, 60, 0
4, 6236, Control_c, 2, 64, 0
4, 6236, Control_c, 2, 64, 127
4, 6240, Note_on_c, 2, 60, 70
4, 6240, Note_on_c, 2, 57, 70
4, 6240, Note_on_c, 2, 64, 70
4, 6240, Note_on_c, 2, 67, 70
4, 6260, Note_on_c, 2, 57, 0
4, 6260, Note_on_c, 2, 60, 0
4, 6260, Note_on_c, 2, 64, 0
4, 6260, Note_on_c, 2, 67, 0
4, 6264, Note_on_c, 2, 48, 60
4, 6288, Note_on_c, 2, 48, 0
4, 6288, Note_on_c, 2, 57, 65
4, 6312, Note_on_c, 2, 57, 0
4, 6312, Note_on_c, 2, 60, 60
4, 6336, Note_on_c, 2, 60, 0
4, 6336, Control_c, 2, 64, 0
4, 6336, Control_c, 2, 64, 127
4, 6336, Note_on_c, 2, 62, 70
4, 6336, Note_on_c, 2, 59, 70
4, 6336, Note_on_c, 2, 64, 70
4, 6336, Note_on_c, 2, 67, 70
4, 6356, Note_on_c, 2, 59, 0
4, 6356, Note_on_c, 2, 62, 0
4, 6356, Note_on_c, 2, 64, 0
4, 6356, Note_on_c, 2, 67, 0
4, 6384, Note_on_c, 2, 59, 70
4, 6404, Note_on_c, 2, 59, 0
4, 6408, Note_on_c, 2, 62, 60
4, 6428, Note_on_c, 2, 62, 0
4, 6428, Control_c, 2, 64, 0
4, 6428, Control_c, 2, 64, 127
4, 6432, Note_on_c, 2, 60, 70
4, 6432, Note_on_c, 2, 57, 70
4, 6432, Note_on_c, 2, 64, 70
4, 6432, Note_on_c, 2, 67, 70
4, 6452, Note_on_c, 2, 57, 0
4, 6452, Note_on_c, 2, 60, 0
4, 6452, Note_on_c, 2, 64, 0
4, 6452, Note_on_c, 2, 67, 0
4, 6480, Note_on_c, 2, 57, 70
4, 6500, Note_on_c, 2, 57, 0
4, 6504, Note_on_c, 2, 60, 60
4, 6524, Note_on_c, 2, 60, 0
4, 6528, Control_c, 2, 64, 0
4, 6528, Control_c, 2, 64, 127
4, 6528, Note_on_c, 2, 62, 70
4, 6528, Note_on_c, 2, 57, 70
4, 6528, Note_on_c, 2, 66, 70
4, 6612, Note_on_c, 2, 57, 0
4, 6612, Note_on_c, 2, 62, 0
4, 6612, Note_on_c, 2, 66, 0
4, 6720, Control_c, 2, 64, 0
4, 6720, Control_c, 2, 64, 127
4, 6720, Note_on_c, 2, 62, 70
4, 6720, Note_on_c, 2, 60, 70
4, 6720, Note_on_c, 2, 66, 70
4, 6720, Note_on_c, 2, 69, 70
4, 6804, Note_on_c, 2, 60, 0
4, 6804, Note_on_c, 2, 62, 0
4, 6804, Note_on_c, 2, 66, 0
4, 6804, Note_on_c, 2, 69, 0
4, 6840, Note_on_c, 2, 50, 70
4, 6864, Note_on_c, 2, 50, 0
4, 6864, Note_on_c, 2, 62, 75
4, 6864, Note_on_c, 2, 60, 75
4, 6864, Note_on_c, 2, 66, 75
4, 6864, Note_on_c, 2, 50, 75
4, 6864, Note_on_c, 2, 69, 75
4, 6865, Note_on_c, 2, 50, 0
4, 6912, Note_on_c, 2, 60, 0
4, 6912, Note_on_c, 2, 62, 0
4, 6912, Note_on_c, 2, 66, 0
4, 6912, Note_on_c, 2, 69, 0
4, 6912, Control_c, 2, 7, 127
4, 6912, Control_c, 2, 64, 0
4, 6912, Control_c, 2, 64, 127
4, 6912, Note_on_c, 2, 59, 70
4, 6912, Note_on_c, 2, 55, 70
4, 6912, Note_on_c, 2, 62, 70
4, 6913, Note_on_c, 2, 62, 0
4, 6960, Control_c, 2, 7, 127
4, 6996, Note_on_c, 2, 55, 0
4, 6996, Note_on_c, 2, 59, 0
4, 7104, Control_c, 2, 64, 0
4, 7104, Control_c, 2, 64, 127
4, 7104, Note_on_c, 2, 61, 70
4, 7104, Note_on_c, 2, 57, 70
4, 7104, Note_on_c, 2, 64, 70
4, 7124, Note_on_c, 2, 57, 0
4, 7124, Note_on_c, 2, 61, 0
4, 7124, Note_on_c, 2, 64, 0
4, 7152, Note_on_c, 2, 57, 70
4, 7172, Note_on_c, 2, 57, 0
4, 7176, Note_on_c, 2, 61, 60
4, 7196, Note_on_c, 2, 61, 0
4, 7196, Control_c, 2, 64, 0
4, 7200, Note_on_c, 2, 61, 75
4, 7200, Note_on_c, 2, 57, 75
4, 7200, Note_on_c, 2, 64, 75
4, 7200, Note_on_c, 2, 69, 75
4, 7284, Note_on_c, 2, 57, 0
4, 7284, Note_on_c, 2, 61, 0
4, 7284, Note_on_c, 2, 64, 0
4, 7284, Note_on_c, 2, 69, 0
4, 7296, Control_c, 2, 64, 127
4, 7296, Note_on_c, 2, 60, 70
4, 7296, Note_on_c, 2, 55, 70
4, 7296, Note_on_c, 2, 48, 70
4, 7296, Note_on_c, 2, 64, 70
4, 7316, Note_on_c, 2, 48, 0
4, 7316, Note_on_c, 2, 55, 0
4, 7316, Note_on_c, 2, 60, 0
4, 7316, Note_on_c, 2, 64, 0
4, 7320, Note_on_c, 2, 48, 70
4, 7344, Note_on_c, 2, 48, 0
4, 7344, Note_on_c, 2, 55, 60
4, 7368, Note_on_c, 2, 55, 0
4, 7368, Note_on_c, 2, 60, 65
4, 7368, Note_on_c, 2, 55, 65
4, 7368, Note_on_c, 2, 64, 65
4, 7368, Note_on_c, 2, 48, 65
4, 7368, Note_on_c, 2, 67, 65
4, 7369, Note_on_c, 2, 55, 0
4, 7388, Note_on_c, 2, 48, 0
4, 7388, Note_on_c, 2, 60, 0
4, 7388, Note_on_c, 2, 64, 0
4, 7388, Note_on_c, 2, 67, 0
4, 7388, Control_c, 2, 64, 0
4, 7392, Note_on_c, 2, 60, 75
4, 7392, Note_on_c, 2, 55, 75
4, 7392, Note_on_c, 2, 64, 75
4, 7392, Note_on_c, 2, 67, 75
4, 7476, Note_on_c, 2, 55, 0
4, 7476, Note_on_c, 2, 60, 0
4, 7476, Note_on_c, 2, 64, 0
4, 7476, Note_on_c, 2, 67, 0
4, 7488, Control_c, 2, 64, 127
4, 7488, Note_on_c, 2, 62, 70
4, 7488, Note_on_c, 2, 57, 70
4, 7488, Note_on_c, 2, 66, 70
4, 7488, Note_on_c, 2, 69, 70
4, 7508, Note_on_c, 2, 57, 0
4, 7508, Note_on_c, 2, 62, 0
4, 7508, Note_on_c, 2, 66, 0
4, 7508, Note_on_c, 2, 69, 0
4, 7512, Note_on_c, 2, 50, 70
4, 7536, Note_on_c, 2, 50, 0
4, 7536, Note_on_c, 2, 57, 60
4, 7560, Note_on_c, 2, 57, 0
4, 7560, Note_on_c, 2, 62, 65
4, 7560, Note_on_c, 2, 57, 65
4, 7560, Note_on_c, 2, 66, 65
4, 7560, Note_on_c, 2, 69, 65
4, 7561, Note_on_c, 2, 57, 0
4, 7580, Note_on_c, 2, 62, 0
4, 7580, Note_on_c, 2, 66, 0
4, 7580, Note_on_c, 2, 69, 0
4, 7580, Control_c, 2, 64, 0
4, 7584, Note_on_c, 2, 62, 75
4, 7584, Note_on_c, 2, 60, 75
4, 7584, Note_on_c, 2, 66, 75
4, 7584, Note_on_c, 2, 69, 75
4, 7668, Note_on_c, 2, 60, 0
4, 7668, Note_on_c, 2, 62, 0
4, 7668, Note_on_c, 2, 66, 0
4, 7668, Note_on_c, 2, 69, 0
4, 7680, Control_c, 2, 64, 127
4, 7680, Note_on_c, 2, 59, 70
4, 7680, Note_on_c, 2, 55, 70
4, 7680, Note_on_c, 2, 62, 70
4, 7764, Note_on_c, 2, 55, 0
4, 7764, Note_on_c, 2, 59, 0
4, 7764, Note_on_c, 2, 62, 0
4, 7872, Control_c, 2, 64, 0
4, 7872, Control_c, 2, 64, 127
4, 7872, Note_on_c, 2, 64, 70
4, 7872, Note_on_c, 2, 61, 70
4, 7872, Note_on_c, 2, 67, 70
4, 7872, Note_on_c, 2, 69, 70
4, 7956, Note_on_c, 2, 61, 0
4, 7956, Note_on_c, 2, 64, 0
4, 7956, Note_on_c, 2, 67, 0
4, 7956, Note_on_c, 2, 69, 0
4, 8064, Control_c, 2, 64, 0
4, 8064, Control_c, 2, 64, 127
4, 8064, Note_on_c, 2, 60, 70
4, 8064, Note_on_c, 2, 55, 70
4, 8064, Note_on_c, 2, 64, 70
4, 8064, Note_on_c, 2, 67, 70
4, 8148, Note_on_c, 2, 55, 0
4, 8148, Note_on_c, 2, 60, 0
4, 8148, Note_on_c, 2, 64, 0
4, 8148, Note_on_c, 2, 67, 0
4, 8184, Note_on_c, 2, 48, 70
4, 8208, Note_on_c, 2, 48, 0
4, 8208, Note_on_c, 2, 60, 75
4, 8208, Note_on_c, 2, 55, 75
4, 8208, Note_on_c, 2, 64, 75
4, 8208, Note_on_c, 2, 67, 75
4, 8256, Note_on_c, 2, 55, 0
4, 8256, Note_on_c, 2, 60, 0
4, 8256, Note_on_c, 2, 64, 0
4, 8256, Note_on_c, 2, 67, 0
4, 8256, Control_c, 2, 64, 0
4, 8256, Control_c, 2, 64, 127
4, 8256, Note_on_c, 2, 62, 70
4, 8256, Note_on_c, 2, 57, 70
4, 8256, Note_on_c, 2, 66, 70
4, 8340, Note_on_c, 2, 57, 0
4, 8340, Note_on_c, 2, 62, 0
4, 8340, Note_on_c, 2, 66, 0
4, 8376, Note_on_c, 2, 50, 70
4, 8400, Note_on_c, 2, 50, 0
4, 8400, Note_on_c, 2, 62, 75
4, 8400, Note_on_c, 2, 57, 75
4, 8400, Note_on_c, 2, 66, 75
4, 8400, Note_on_c, 2, 69, 75
4, 8448, Note_on_c, 2, 57, 0
4, 8448, Note_on_c, 2, 62, 0
4, 8448, Note_on_c, 2, 66, 0
4, 8448, Note_on_c, 2, 69, 0
4, 8448, Control_c, 2, 64, 0
4, 8448, Control_c, 2, 64, 127
4, 8448, Note_on_c, 2, 60, 70
4, 8448, Note_on_c, 2, 55, 70
4, 8448, Note_on_c, 2, 64, 70
4, 8448, Note_on_c, 2, 67, 70
4, 8532, Note_on_c, 2, 55, 0
4, 8532, Note_on_c, 2, 60, 0
4, 8532, Note_on_c, 2, 64, 0
4, 8532, Note_on_c, 2, 67, 0
4, 8640, Control_c, 2, 64, 0
4, 8640, Control_c, 2, 64, 127
4, 8640, Note_on_c, 2, 62, 70
4, 8640, Note_on_c, 2, 57, 70
4, 8640, Note_on_c, 2, 66, 70
4, 8640, Note_on_c, 2, 69, 70
4, 8724, Note_on_c, 2, 57, 0
4, 8724, Note_on_c, 2, 62, 0
4, 8724, Note_on_c, 2, 66, 0
4, 8724, Note_on_c, 2, 69, 0
4, 8760, Note_on_c, 2, 57, 60
4, 8784, Note_on_c, 2, 57, 0
4, 8784, Note_on_c, 2, 62, 65
4, 8808, Note_on_c, 2, 62, 0
4, 8808, Note_on_c, 2, 66, 70
4, 8832, Note_on_c, 2, 66, 0
4, 8832, Control_c, 2, 64, 0
4, 8832, Note_on_c, 2, 59, 75
4, 8832, Note_on_c, 2, 55, 75
4, 8832, Note_on_c, 2, 62, 75
4, 8916, Note_on_c, 2, 55, 0
4, 8916, Note_on_c, 2, 59, 0
4, 8916, Note_on_c, 2, 62, 0
4, 8928, Note_on_c, 2, 62, 75
4, 8928, Note_on_c, 2, 57, 75
4, 8928, Note_on_c, 2, 66, 75
4, 8928, Note_on_c, 2, 69, 75
4, 9012, Note_on_c, 2, 57, 0
4, 9012, Note_on_c, 2, 62, 0
4, 9012, Note_on_c, 2, 66, 0
4, 9012, Note_on_c, 2, 69, 0
4, 9024, Control_c, 2, 64, 127
4, 9024, Note_on_c, 2, 59, 70
4, 9024, Note_on_c, 2, 55, 70
4, 9024, Note_on_c, 2, 64, 70
4, 9108, Note_on_c, 2, 55, 0
4, 9108, Note_on_c, 2, 59, 0
4, 9108, Note_on_c, 2, 64, 0
4, 9144, Note_on_c, 2, 52, 70
4, 9168, Note_on_c, 2, 52, 0
4, 9168, Note_on_c, 2, 59, 75
4, 9168, Note_on_c, 2, 55, 75
4, 9168, Note_on_c, 2, 64, 75
4, 9216, Note_on_c, 2, 55, 0
4, 9216, Note_on_c, 2, 59, 0
4, 9216, Note_on_c, 2, 64, 0
4, 9216, Control_c, 2, 64, 0
4, 9216, Control_c, 2, 64, 127
4, 9216, Note_on_c, 2, 60, 70
4, 9216, Note_on_c, 2, 55, 70
4, 9216, Note_on_c, 2, 64, 70
4, 9217, Note_on_c, 2, 55, 0
4, 9217, Note_on_c, 2, 64, 0
4, 9300, Note_on_c, 2, 60, 0
4, 9336, Note_on_c, 2, 55, 60
4, 9360, Note_on_c, 2, 55, 0
4, 9360, Note_on_c, 2, 60, 65
4, 9384, Note_on_c, 2, 60, 0
4, 9384, Note_on_c, 2, 64, 70
4, 9408, Note_on_c, 2, 64, 0
4, 9408, Control_c, 2, 64, 0
4, 9408, Control_c, 2, 64, 127
4, 9408, Note_on_c, 2, 60, 70
4, 9408, Note_on_c, 2, 55, 70
4, 9408, Note_on_c, 2, 64, 70
4, 9408, Note_on_c, 2, 67, 70
4, 9409, Note_on_c, 2, 64, 0
4, 9492, Note_on_c, 2, 60, 0
4, 9492, Note_on_c, 2, 55, 0
4, 9492, Note_on_c, 2, 67, 0
4, 9600, Control_c, 2, 64, 0
4, 9600, Control_c, 2, 64, 127
4, 9600, Note_on_c, 2, 60, 70
4, 9600, Note_on_c, 2, 55, 70
4, 9600, Note_on_c, 2, 64, 70
4, 9600, Note_on_c, 2, 67, 70
4, 9684, Note_on_c, 2, 55, 0
4, 9684, Note_on_c, 2, 60, 0
4, 9684, Note_on_c, 2, 64, 0
4, 9684, Note_on_c, 2, 67, 0
4, 9720, Note_on_c, 2, 48, 70
4, 9744, Note_on_c, 2, 48, 0
4, 9744, Note_on_c, 2, 60, 75
4, 9744, Note_on_c, 2, 55, 75
4, 9744, Note_on_c, 2, 48, 75
4, 9744, Note_on_c, 2, 64, 75
4, 9745, Note_on_c, 2, 48, 0
4, 9792, Note_on_c, 2, 55, 0
4, 9792, Note_on_c, 2, 60, 0
4, 9792, Note_on_c, 2, 64, 0
4, 9792, Control_c, 2, 64, 0
4, 9792, Control_c, 2, 64, 127
4, 9792, Note_on_c, 2, 62, 70
4, 9792, Note_on_c, 2, 60, 70
4, 9792, Note_on_c, 2, 66, 70
4, 9792, Note_on_c, 2, 69, 70
4, 9793, Note_on_c, 2, 60, 0
4, 9876, Note_on_c, 2, 62, 0
4, 9876, Note_on_c, 2, 66, 0
4, 9876, Note_on_c, 2, 69, 0
4, 9984, Control_c, 2, 7, 89
4, 9984, Control_c, 2, 64, 0
4, 9984, Control_c, 2, 64, 127
4, 9984, Note_on_c, 2, 59, 70
4, 9984, Note_on_c, 2, 55, 70
4, 9984, Note_on_c, 2, 62, 70
4, 10032, Control_c, 2, 7, 89
4, 10068, Note_on_c, 2, 55, 0
4, 10068, Note_on_c, 2, 59, 0
4, 10068, Note_on_c, 2, 62, 0
4, 10104, Note_on_c, 2, 55, 70
4, 10128, Note_on_c, 2, 55, 0
4, 10128, Note_on_c, 2, 59, 75
4, 10128, Note_on_c, 2, 55, 75
4, 10128, Note_on_c, 2, 62, 75
4, 10129, Note_on_c, 2, 55, 0
4, 10176, Note_on_c, 2, 59, 0
4, 10176, Note_on_c, 2, 62, 0
4, 10176, Control_c, 2, 64, 0
4, 10176, Control_c, 2, 64, 127
4, 10176, Note_on_c, 2, 61, 70
4, 10176, Note_on_c, 2, 57, 70
4, 10176, Note_on_c, 2, 45, 70
4, 10176, Note_on_c, 2, 64, 70
4, 10260, Note_on_c, 2, 45, 0
4, 10260, Note_on_c, 2, 57, 0
4, 10260, Note_on_c, 2, 61, 0
4, 10260, Note_on_c, 2, 64, 0
4, 10296, Note_on_c, 2, 45, 70
4, 10320, Note_on_c, 2, 45, 0
4, 10320, Note_on_c, 2, 61, 75
4, 10320, Note_on_c, 2, 57, 75
4, 10320, Note_on_c, 2, 64, 75
4, 10320, Note_on_c, 2, 45, 75
4, 10320, Note_on_c, 2, 69, 75
4, 10321, Note_on_c, 2, 45, 0
4, 10368, Note_on_c, 2, 57, 0
4, 10368, Note_on_c, 2, 61, 0
4, 10368, Note_on_c, 2, 64, 0
4, 10368, Note_on_c, 2, 69, 0
4, 10368, Control_c, 2, 64, 0
4, 10368, Control_c, 2, 64, 127
4, 10368, Note_on_c, 2, 60, 70
4, 10368, Note_on_c, 2, 55, 70
4, 10368, Note_on_c, 2, 64, 70
4, 10369, Note_on_c, 2, 64, 0
4, 10452, Note_on_c, 2, 60, 0
4, 10452, Note_on_c, 2, 55, 0
4, 10560, Control_c, 2, 64, 0
4, 10560, Control_c, 2, 64, 127
4, 10560, Note_on_c, 2, 62, 70
4, 10560, Note_on_c, 2, 57, 70
4, 10560, Note_on_c, 2, 66, 70
4, 10560, Note_on_c, 2, 69, 70
4, 10644, Note_on_c, 2, 57, 0
4, 10644, Note_on_c, 2, 62, 0
4, 10644, Note_on_c, 2, 66, 0
4, 10644, Note_on_c, 2, 69, 0
4, 10752, Control_c, 2, 64, 0
4, 10752, Control_c, 2, 64, 127
4, 10752, Note_on_c, 2, 59, 70
4, 10752, Note_on_c, 2, 55, 70
4, 10752, Note_on_c, 2, 62, 70
4, 10752, Note_on_c, 2, 67, 70
4, 10836, Note_on_c, 2, 55, 0
4, 10836, Note_on_c, 2, 59, 0
4, 10836, Note_on_c, 2, 62, 0
4, 10836, Note_on_c, 2, 67, 0
4, 10944, Control_c, 2, 64, 0
4, 10944, Control_c, 2, 64, 127
4, 10944, Note_on_c, 2, 61, 70
4, 10944, Note_on_c, 2, 57, 70
4, 10944, Note_on_c, 2, 64, 70
4, 10944, Note_on_c, 2, 45, 70
4, 10944, Note_on_c, 2, 69, 70
4, 11028, Note_on_c, 2, 45, 0
4, 11028, Note_on_c, 2, 57, 0
4, 11028, Note_on_c, 2, 61, 0
4, 11028, Note_on_c, 2, 64, 0
4, 11028, Note_on_c, 2, 69, 0
4, 11136, Control_c, 2, 64, 0
4, 11136, Control_c, 2, 64, 127
4, 11136, Note_on_c, 2, 60, 70
4, 11136, Note_on_c, 2, 55, 70
4, 11136, Note_on_c, 2, 64, 70
4, 11136, Note_on_c, 2, 67, 70
4, 11220, Note_on_c, 2, 55, 0
4, 11220, Note_on_c, 2, 60, 0
4, 11220, Note_on_c, 2, 64, 0
4, 11220, Note_on_c, 2, 67, 0
4, 11256, Note_on_c, 2, 55, 60
4, 11280, Note_on_c, 2, 55, 0
4, 11280, Note_on_c, 2, 60, 65
4, 11304, Note_on_c, 2, 60, 0
4, 11304, Note_on_c, 2, 64, 70
4, 11328, Note_on_c, 2, 64, 0
4, 11328, Control_c, 2, 64, 0
4, 11328, Control_c, 2, 64, 127
4, 11328, Note_on_c, 2, 62, 70
4, 11328, Note_on_c, 2, 57, 70
4, 11328, Note_on_c, 2, 66, 70
4, 11328, Note_on_c, 2, 69, 70
4, 11412, Note_on_c, 2, 57, 0
4, 11412, Note_on_c, 2, 62, 0
4, 11412, Note_on_c, 2, 66, 0
4, 11412, Note_on_c, 2, 69, 0
4, 11448, Note_on_c, 2, 57, 60
4, 11472, Note_on_c, 2, 57, 0
4, 11472, Note_on_c, 2, 62, 65
4, 11496, Note_on_c, 2, 62, 0
4, 11496, Note_on_c, 2, 66, 70
4, 11520, Note_on_c, 2, 66, 0
4, 11520, Control_c, 2, 64, 0
4, 11520, Control_c, 2, 64, 127
4, 11520, Note_on_c, 2, 60, 70
4, 11520, Note_on_c, 2, 55, 70
4, 11520, Note_on_c, 2, 64, 70
4, 11604, Note_on_c, 2, 55, 0
4, 11604, Note_on_c, 2, 60, 0
4, 11604, Note_on_c, 2, 64, 0
4, 11712, Control_c, 2, 64, 0
4, 11712, Control_c, 2, 64, 127
4, 11712, Note_on_c, 2, 62, 70
4, 11712, Note_on_c, 2, 60, 70
4, 11712, Note_on_c, 2, 66, 70
4, 11712, Note_on_c, 2, 69, 70
4, 11796, Note_on_c, 2, 60, 0
4, 11796, Note_on_c, 2, 62, 0
4, 11796, Note_on_c, 2, 66, 0
4, 11796, Note_on_c, 2, 69, 0
4, 11832, Note_on_c, 2, 60, 60
4, 11856, Note_on_c, 2, 60, 0
4, 11856, Note_on_c, 2, 62, 65
4, 11880, Note_on_c, 2, 62, 0
4, 11880, Note_on_c, 2, 66, 70
4, 11904, Note_on_c, 2, 66, 0
4, 11904, Control_c, 2, 64, 0
4, 11904, Control_c, 2, 64, 127
4, 11904, Note_on_c, 2, 59, 70
4, 11904, Note_on_c, 2, 55, 70
4, 11904, Note_on_c, 2, 62, 70
4, 11904, Note_on_c, 2, 67, 70
4, 11988, Note_on_c, 2, 55, 0
4, 11988, Note_on_c, 2, 59, 0
4, 11988, Note_on_c, 2, 62, 0
4, 11988, Note_on_c, 2, 67, 0
4, 12096, Control_c, 2, 64, 0
4, 12096, Control_c, 2, 64, 127
4, 12096, Note_on_c, 2, 62, 70
4, 12096, Note_on_c, 2, 59, 70
4, 12096, Note_on_c, 2, 64, 70
4, 12096, Note_on_c, 2, 67, 70
4, 12180, Note_on_c, 2, 59, 0
4, 12180, Note_on_c, 2, 62, 0
4, 12180, Note_on_c, 2, 64, 0
4, 12180, Note_on_c, 2, 67, 0
4, 12216, Note_on_c, 2, 59, 60
4, 12240, Note_on_c, 2, 59, 0
4, 12240, Note_on_c, 2, 62, 65
4, 12264, Note_on_c, 2, 62, 0
4, 12264, Note_on_c, 2, 64, 70
4, 12288, Note_on_c, 2, 64, 0
4, 12288, Control_c, 2, 7, 96
4, 12288, Control_c, 2, 64, 0
4, 12288, Control_c, 2, 64, 127
4, 12288, Note_on_c, 2, 60, 70
4, 12288, Note_on_c, 2, 55, 70
4, 12288, Note_on_c, 2, 64, 70
4, 12289, Note_on_c, 2, 64, 0
4, 12308, Note_on_c, 2, 60, 0
4, 12308, Note_on_c, 2, 55, 0
4, 12318, Control_c, 2, 7, 95
4, 12336, Note_on_c, 2, 55, 70
4, 12342, Control_c, 2, 7, 94
4, 12354, Control_c, 2, 7, 93
4, 12356, Note_on_c, 2, 55, 0
4, 12360, Note_on_c, 2, 60, 60
4, 12380, Note_on_c, 2, 60, 0
4, 12380, Control_c, 2, 64, 0
4, 12380, Control_c, 2, 64, 127
4, 12384, Note_on_c, 2, 60, 70
4, 12384, Note_on_c, 2, 57, 70
4, 12384, Note_on_c, 2, 64, 70
4, 12384, Note_on_c, 2, 67, 70
4, 12390, Control_c, 2, 7, 92
4, 12404, Note_on_c, 2, 57, 0
4, 12404, Note_on_c, 2, 60, 0
4, 12404, Note_on_c, 2, 64, 0
4, 12404, Note_on_c, 2, 67, 0
4, 12408, Note_on_c, 2, 48, 60
4, 12414, Control_c, 2, 7, 91
4, 12426, Control_c, 2, 7, 90
4, 12432, Note_on_c, 2, 48, 0
4, 12432, Note_on_c, 2, 57, 65
4, 12456, Note_on_c, 2, 57, 0
4, 12456, Note_on_c, 2, 60, 60
4, 12462, Control_c, 2, 7, 89
4, 12474, Control_c, 2, 7, 88
4, 12480, Note_on_c, 2, 60, 0
4, 12480, Control_c, 2, 64, 0
4, 12480, Note_on_c, 2, 62, 75
4, 12480, Note_on_c, 2, 59, 75
4, 12480, Note_on_c, 2, 64, 75
4, 12480, Note_on_c, 2, 48, 75
4, 12480, Note_on_c, 2, 67, 75
4, 12486, Control_c, 2, 7, 87
4, 12510, Control_c, 2, 7, 86
4, 12522, Control_c, 2, 7, 85
4, 12534, Control_c, 2, 7, 84
4, 12558, Control_c, 2, 7, 83
4, 12564, Note_on_c, 2, 48, 0
4, 12564, Note_on_c, 2, 59, 0
4, 12564, Note_on_c, 2, 62, 0
4, 12564, Note_on_c, 2, 64, 0
4, 12564, Note_on_c, 2, 67, 0
4, 12564, Control_c, 2, 64, 127
4, 12570, Control_c, 2, 7, 82
4, 12576, Note_on_c, 2, 60, 70
4, 12576, Note_on_c, 2, 57, 70
4, 12576, Note_on_c, 2, 64, 70
4, 12576, Note_on_c, 2, 48, 70
4, 12576, Note_on_c, 2, 67, 70
4, 12582, Control_c, 2, 7, 81
4, 12596, Note_on_c, 2, 48, 0
4, 12596, Note_on_c, 2, 57, 0
4, 12596, Note_on_c, 2, 60, 0
4, 12596, Note_on_c, 2, 64, 0
4, 12596, Note_on_c, 2, 67, 0
4, 12600, Note_on_c, 2, 48, 60
4, 12606, Control_c, 2, 7, 80
4, 12612, Control_c, 2, 7, 79
4, 12618, Control_c, 2, 7, 78
4, 12624, Note_on_c, 2, 48, 0
4, 12624, Note_on_c, 2, 57, 65
4, 12636, Control_c, 2, 7, 77
4, 12642, Control_c, 2, 7, 76
4, 12648, Note_on_c, 2, 57, 0
4, 12648, Note_on_c, 2, 60, 60
4, 12654, Control_c, 2, 7, 75
4, 12666, Control_c, 2, 7, 74
4, 12672, Note_on_c, 2, 60, 0
4, 12672, Control_c, 2, 64, 0
4, 12672, Control_c, 2, 64, 127
4, 12672, Note_on_c, 2, 62, 70
4, 12672, Note_on_c, 2, 57, 70
4, 12672, Note_on_c, 2, 66, 70
4, 12672, Note_on_c, 2, 69, 70
4, 12678, Control_c, 2, 7, 73
4, 12684, Control_c, 2, 7, 72
4, 12696, Control_c, 2, 7, 71
4, 12702, Control_c, 2, 7, 70
4, 12708, Control_c, 2, 7, 69
4, 12720, Control_c, 2, 7, 68
4, 12726, Control_c, 2, 7, 67
4, 12732, Control_c, 2, 7, 66
4, 12744, Control_c, 2, 7, 65
4, 12750, Control_c, 2, 7, 63
4, 12756, Note_on_c, 2, 57, 0
4, 12756, Note_on_c, 2, 62, 0
4, 12756, Note_on_c, 2, 66, 0
4, 12756, Note_on_c, 2, 69, 0
4, 12756, Control_c, 2, 7, 62
4, 12762, Control_c, 2, 7, 61
4, 12768, Control_c, 2, 7, 60
4, 12774, Control_c, 2, 7, 59
4, 12780, Control_c, 2, 7, 57
4, 12786, Control_c, 2, 7, 56
4, 12792, Control_c, 2, 7, 54
4, 12792, Note_on_c, 2, 57, 60
4, 12798, Control_c, 2, 7, 52
4, 12804, Control_c, 2, 7, 50
4, 12810, Control_c, 2, 7, 48
4, 12816, Note_on_c, 2, 57, 0
4, 12816, Control_c, 2, 7, 47
4, 12816, Note_on_c, 2, 62, 65
4, 12822, Control_c, 2, 7, 44
4, 12828, Control_c, 2, 7, 41
4, 12834, Control_c, 2, 7, 38
4, 12840, Note_on_c, 2, 62, 0
4, 12840, Control_c, 2, 7, 35
4, 12840, Note_on_c, 2, 66, 70
4, 12846, Control_c, 2, 7, 25
4, 12852, Control_c, 2, 7, 17
4, 12858, Control_c, 2, 7, 0
4, 12864, Note_on_c, 2, 66, 0
4, 12864, Control_c, 2, 7, 0
4, 12864, Control_c, 2, 64, 0
4, 12864, Control_c, 2, 64, 127
4, 12864, Note_on_c, 2, 62, 70
4, 12864, Note_on_c, 2, 60, 70
4, 12864, Note_on_c, 2, 66, 70
4, 12864, Note_on_c, 2, 69, 70
4, 12865, Note_on_c, 2, 66, 0
4, 12948, Note_on_c, 2, 62, 0
4, 12948, Note_on_c, 2, 60, 0
4, 12948, Note_on_c, 2, 69, 0
4, 12984, Note_on_c, 2, 50, 70
4, 13008, Note_on_c, 2, 50, 0
4, 13008, Note_on_c, 2, 62, 75
4, 13008, Note_on_c, 2, 60, 75
4, 13008, Note_on_c, 2, 66, 75
4, 13008, Note_on_c, 2, 69, 75
4, 13056, Note_on_c, 2, 60, 0
4, 13056, Note_on_c, 2, 62, 0
4, 13056, Note_on_c, 2, 66, 0
4, 13056, Note_on_c, 2, 69, 0
4, 13056, End_track
5, 0, Start_track
5, 0, Title_t, "Whistle"
5, 0, Control_c, 3, 7, 105
5, 0, Pitch_bend_c, 3, 8192
5, 0, Control_c, 3, 1, 0
5, 0, Program_c, 3, 108
5, 0, Control_c, 3, 64, 0
5, 0, Control_c, 3, 10, 64
5, 30, Control_c, 3, 7, 106
5, 60, Control_c, 3, 7, 107
5, 90, Control_c, 3, 7, 108
5, 114, Control_c, 3, 7, 109
5, 144, Control_c, 3, 7, 110
5, 174, Control_c, 3, 7, 111
5, 204, Control_c, 3, 7, 112
5, 228, Control_c, 3, 7, 113
5, 258, Control_c, 3, 7, 114
5, 288, Control_c, 3, 7, 115
5, 312, Control_c, 3, 7, 116
5, 342, Control_c, 3, 7, 117
5, 372, Control_c, 3, 7, 118
5, 402, Control_c, 3, 7, 119
5, 426, Control_c, 3, 7, 120
5, 456, Control_c, 3, 7, 121
5, 486, Control_c, 3, 7, 122
5, 516, Control_c, 3, 7, 123
5, 540, Control_c, 3, 7, 124
5, 570, Control_c, 3, 7, 125
5, 600, Control_c, 3, 7, 126
5, 624, Control_c, 3, 7, 127
5, 816, Note_on_c, 3, 67, 64
5, 859, Note_on_c, 3, 69, 64
5, 861, Note_on_c, 3, 67, 0
5, 908, Note_on_c, 3, 71, 64
5, 910, Note_on_c, 3, 69, 0
5, 955, Note_on_c, 3, 69, 64
5, 957, Note_on_c, 3, 71, 0
5, 994, Note_on_c, 3, 69, 0
5, 1005, Note_on_c, 3, 69, 64
5, 1057, Note_on_c, 3, 64, 64
5, 1058, Note_on_c, 3, 69, 0
5, 1098, Note_on_c, 3, 69, 64
5, 1108, Note_on_c, 3, 64, 0
5, 1150, Note_on_c, 3, 67, 64
5, 1154, Note_on_c, 3, 69, 0
5, 1277, Note_on_c, 3, 67, 0
5, 1280, Note_on_c, 3, 64, 64
5, 1298, Note_on_c, 3, 67, 64
5, 1302, Note_on_c, 3, 64, 0
5, 1344, Control_c, 3, 10, 81
5, 1345, Note_on_c, 3, 66, 64
5, 1346, Note_on_c, 3, 67, 0
5, 1498, Note_on_c, 3, 66, 0
5, 1581, Note_on_c, 3, 67, 64
5, 1629, Note_on_c, 3, 67, 0
5, 1631, Note_on_c, 3, 69, 64
5, 1674, Note_on_c, 3, 71, 64
5, 1678, Note_on_c, 3, 69, 0
5, 1721, Note_on_c, 3, 69, 64
5, 1725, Note_on_c, 3, 71, 0
5, 1770, Note_on_c, 3, 69, 0
5, 1795, Note_on_c, 3, 69, 64
5, 1819, Note_on_c, 3, 64, 64
5, 1822, Note_on_c, 3, 69, 0
5, 1873, Note_on_c, 3, 67, 64
5, 1883, Note_on_c, 3, 64, 0
5, 1902, Note_on_c, 3, 67, 0
5, 1920, Note_on_c, 3, 67, 64
5, 2036, Note_on_c, 3, 64, 64
5, 2038, Note_on_c, 3, 67, 0
5, 2060, Note_on_c, 3, 67, 64
5, 2064, Note_on_c, 3, 64, 0
5, 2111, Note_on_c, 3, 66, 64
5, 2112, Note_on_c, 3, 67, 0
5, 2196, Note_on_c, 3, 66, 0
5, 2351, Note_on_c, 3, 72, 64
5, 2362, Note_on_c, 3, 72, 0
5, 2373, Note_on_c, 3, 72, 64
5, 2382, Note_on_c, 3, 72, 0
5, 2396, Note_on_c, 3, 72, 64
5, 2442, Note_on_c, 3, 71, 64
5, 2443, Note_on_c, 3, 72, 0
5, 2453, Note_on_c, 3, 71, 0
5, 2468, Note_on_c, 3, 71, 64
5, 2494, Note_on_c, 3, 69, 64
5, 2495, Note_on_c, 3, 71, 0
5, 2553, Note_on_c, 3, 69, 0
5, 2567, Note_on_c, 3, 69, 64
5, 2589, Note_on_c, 3, 69, 0
5, 2589, Note_on_c, 3, 67, 64
5, 2613, Note_on_c, 3, 67, 0
5, 2616, Note_on_c, 3, 69, 64
5, 2724, Note_on_c, 3, 69, 0
5, 2736, Note_on_c, 3, 71, 64
5, 2763, Note_on_c, 3, 71, 0
5, 2782, Note_on_c, 3, 71, 64
5, 2829, Note_on_c, 3, 71, 0
5, 2831, Note_on_c, 3, 69, 64
5, 2854, Note_on_c, 3, 67, 64
5, 2856, Note_on_c, 3, 69, 0
5, 2868, Note_on_c, 3, 67, 0
5, 2880, Note_on_c, 3, 67, 64
5, 2906, Note_on_c, 3, 67, 0
5, 2908, Note_on_c, 3, 64, 64
5, 2986, Note_on_c, 3, 64, 0
5, 3118, Note_on_c, 3, 76, 64
5, 3148, Note_on_c, 3, 76, 0
5, 3165, Note_on_c, 3, 76, 64
5, 3202, Note_on_c, 3, 76, 0
5, 3214, Note_on_c, 3, 76, 64
5, 3238, Note_on_c, 3, 76, 0
5, 3258, Note_on_c, 3, 76, 64
5, 3306, Note_on_c, 3, 76, 0
5, 3336, Note_on_c, 3, 64, 64
5, 3355, Note_on_c, 3, 64, 0
5, 3356, Note_on_c, 3, 66, 64
5, 3399, Note_on_c, 3, 66, 0
5, 3401, Note_on_c, 3, 67, 64
5, 3443, Note_on_c, 3, 67, 0
5, 3449, Note_on_c, 3, 69, 64
5, 3573, Note_on_c, 3, 64, 64
5, 3574, Note_on_c, 3, 69, 0
5, 3596, Note_on_c, 3, 64, 0
5, 3598, Note_on_c, 3, 69, 64
5, 3620, Note_on_c, 3, 69, 0
5, 3620, Note_on_c, 3, 64, 64
5, 3642, Note_on_c, 3, 64, 0
5, 3647, Note_on_c, 3, 66, 64
5, 3808, Note_on_c, 3, 66, 0
5, 3885, Note_on_c, 3, 67, 64
5, 3935, Note_on_c, 3, 67, 0
5, 3936, Note_on_c, 3, 69, 64
5, 3980, Note_on_c, 3, 71, 64
5, 3981, Note_on_c, 3, 69, 0
5, 4029, Note_on_c, 3, 69, 64
5, 4030, Note_on_c, 3, 71, 0
5, 4066, Note_on_c, 3, 69, 0
5, 4074, Note_on_c, 3, 69, 64
5, 4124, Note_on_c, 3, 64, 64
5, 4125, Note_on_c, 3, 69, 0
5, 4163, Note_on_c, 3, 64, 0
5, 4172, Note_on_c, 3, 67, 64
5, 4202, Note_on_c, 3, 67, 0
5, 4220, Note_on_c, 3, 67, 64
5, 4344, Note_on_c, 3, 64, 64
5, 4350, Note_on_c, 3, 67, 0
5, 4366, Note_on_c, 3, 67, 64
5, 4370, Note_on_c, 3, 64, 0
5, 4411, Note_on_c, 3, 66, 64
5, 4412, Note_on_c, 3, 67, 0
5, 4608, Note_on_c, 3, 66, 0
5, 4654, Note_on_c, 3, 67, 64
5, 4701, Note_on_c, 3, 69, 64
5, 4703, Note_on_c, 3, 67, 0
5, 4743, Note_on_c, 3, 71, 64
5, 4744, Note_on_c, 3, 69, 0
5, 4793, Note_on_c, 3, 71, 0
5, 4795, Note_on_c, 3, 69, 64
5, 4831, Note_on_c, 3, 69, 0
5, 4846, Note_on_c, 3, 69, 64
5, 4896, Note_on_c, 3, 64, 64
5, 4904, Note_on_c, 3, 69, 0
5, 4944, Note_on_c, 3, 67, 64
5, 4946, Note_on_c, 3, 64, 0
5, 4974, Note_on_c, 3, 67, 0
5, 4991, Note_on_c, 3, 67, 64
5, 5107, Note_on_c, 3, 64, 64
5, 5110, Note_on_c, 3, 67, 0
5, 5129, Note_on_c, 3, 67, 64
5, 5131, Note_on_c, 3, 64, 0
5, 5179, Note_on_c, 3, 67, 0
5, 5182, Note_on_c, 3, 66, 64
5, 5338, Note_on_c, 3, 66, 0
5, 5423, Note_on_c, 3, 72, 64
5, 5439, Note_on_c, 3, 72, 0
5, 5446, Note_on_c, 3, 72, 64
5, 5458, Note_on_c, 3, 72, 0
5, 5472, Note_on_c, 3, 72, 64
5, 5517, Note_on_c, 3, 72, 0
5, 5518, Note_on_c, 3, 71, 64
5, 5532, Note_on_c, 3, 71, 0
5, 5543, Note_on_c, 3, 71, 64
5, 5558, Note_on_c, 3, 71, 0
5, 5566, Note_on_c, 3, 69, 64
5, 5624, Note_on_c, 3, 69, 0
5, 5640, Note_on_c, 3, 69, 64
5, 5665, Note_on_c, 3, 69, 0
5, 5665, Note_on_c, 3, 67, 64
5, 5689, Note_on_c, 3, 69, 64
5, 5692, Note_on_c, 3, 67, 0
5, 5770, Note_on_c, 3, 69, 0
5, 5806, Note_on_c, 3, 71, 64
5, 5836, Note_on_c, 3, 71, 0
5, 5854, Note_on_c, 3, 71, 64
5, 5901, Note_on_c, 3, 71, 0
5, 5901, Note_on_c, 3, 69, 64
5, 5947, Note_on_c, 3, 67, 64
5, 5953, Note_on_c, 3, 69, 0
5, 5975, Note_on_c, 3, 64, 64
5, 5985, Note_on_c, 3, 67, 0
5, 6151, Note_on_c, 3, 64, 0
5, 6190, Note_on_c, 3, 76, 64
5, 6220, Note_on_c, 3, 76, 0
5, 6236, Note_on_c, 3, 76, 64
5, 6262, Note_on_c, 3, 76, 0
5, 6282, Note_on_c, 3, 76, 64
5, 6309, Note_on_c, 3, 76, 0
5, 6331, Note_on_c, 3, 76, 64
5, 6387, Note_on_c, 3, 76, 0
5, 6409, Note_on_c, 3, 64, 64
5, 6430, Note_on_c, 3, 64, 0
5, 6432, Note_on_c, 3, 66, 64
5, 6475, Note_on_c, 3, 67, 64
5, 6479, Note_on_c, 3, 66, 0
5, 6520, Note_on_c, 3, 67, 0
5, 6525, Note_on_c, 3, 69, 64
5, 6645, Note_on_c, 3, 64, 64
5, 6647, Note_on_c, 3, 69, 0
5, 6669, Note_on_c, 3, 69, 64
5, 6670, Note_on_c, 3, 64, 0
5, 6690, Note_on_c, 3, 67, 64
5, 6694, Note_on_c, 3, 69, 0
5, 6716, Note_on_c, 3, 67, 0
5, 6717, Note_on_c, 3, 66, 64
5, 6786, Note_on_c, 3, 66, 0
5, 6793, Note_on_c, 3, 66, 64
5, 6815, Note_on_c, 3, 69, 64
5, 6821, Note_on_c, 3, 66, 0
5, 6868, Note_on_c, 3, 69, 0
5, 6868, Note_on_c, 3, 66, 64
5, 6910, Note_on_c, 3, 67, 64
5, 6916, Note_on_c, 3, 66, 0
5, 6947, Note_on_c, 3, 67, 0
5, 10031, Note_on_c, 3, 67, 64
5, 10072, Note_on_c, 3, 69, 64
5, 10076, Note_on_c, 3, 67, 0
5, 10126, Note_on_c, 3, 71, 64
5, 10127, Note_on_c, 3, 69, 0
5, 10168, Note_on_c, 3, 69, 64
5, 10172, Note_on_c, 3, 71, 0
5, 10207, Note_on_c, 3, 69, 0
5, 10216, Note_on_c, 3, 69, 64
5, 10266, Note_on_c, 3, 64, 64
5, 10274, Note_on_c, 3, 69, 0
5, 10309, Note_on_c, 3, 67, 64
5, 10312, Note_on_c, 3, 64, 0
5, 10346, Note_on_c, 3, 67, 0
5, 10360, Note_on_c, 3, 67, 64
5, 10485, Note_on_c, 3, 64, 64
5, 10488, Note_on_c, 3, 67, 0
5, 10508, Note_on_c, 3, 67, 64
5, 10512, Note_on_c, 3, 64, 0
5, 10554, Note_on_c, 3, 67, 0
5, 10554, Note_on_c, 3, 66, 64
5, 10646, Note_on_c, 3, 66, 0
5, 10796, Note_on_c, 3, 67, 64
5, 10846, Note_on_c, 3, 69, 64
5, 10852, Note_on_c, 3, 67, 0
5, 10894, Note_on_c, 3, 71, 64
5, 10897, Note_on_c, 3, 69, 0
5, 10924, Note_on_c, 3, 69, 64
5, 10931, Note_on_c, 3, 71, 0
5, 10981, Note_on_c, 3, 69, 0
5, 10987, Note_on_c, 3, 69, 64
5, 11036, Note_on_c, 3, 64, 64
5, 11045, Note_on_c, 3, 69, 0
5, 11112, Note_on_c, 3, 67, 64
5, 11118, Note_on_c, 3, 64, 0
5, 11128, Note_on_c, 3, 67, 0
5, 11133, Note_on_c, 3, 67, 64
5, 11250, Note_on_c, 3, 64, 64
5, 11254, Note_on_c, 3, 67, 0
5, 11274, Note_on_c, 3, 67, 64
5, 11280, Note_on_c, 3, 64, 0
5, 11325, Note_on_c, 3, 66, 64
5, 11332, Note_on_c, 3, 67, 0
5, 11414, Note_on_c, 3, 66, 0
5, 11564, Note_on_c, 3, 72, 64
5, 11577, Note_on_c, 3, 72, 0
5, 11588, Note_on_c, 3, 72, 64
5, 11600, Note_on_c, 3, 72, 0
5, 11612, Note_on_c, 3, 72, 64
5, 11661, Note_on_c, 3, 71, 64
5, 11665, Note_on_c, 3, 72, 0
5, 11709, Note_on_c, 3, 69, 64
5, 11713, Note_on_c, 3, 71, 0
5, 11769, Note_on_c, 3, 69, 0
5, 11782, Note_on_c, 3, 69, 64
5, 11804, Note_on_c, 3, 67, 64
5, 11810, Note_on_c, 3, 69, 0
5, 11829, Note_on_c, 3, 69, 64
5, 11834, Note_on_c, 3, 67, 0
5, 11911, Note_on_c, 3, 69, 0
5, 11948, Note_on_c, 3, 71, 64
5, 11979, Note_on_c, 3, 71, 0
5, 11994, Note_on_c, 3, 71, 64
5, 12022, Note_on_c, 3, 69, 64
5, 12028, Note_on_c, 3, 71, 0
5, 12071, Note_on_c, 3, 67, 64
5, 12081, Note_on_c, 3, 69, 0
5, 12109, Note_on_c, 3, 64, 64
5, 12115, Note_on_c, 3, 67, 0
5, 12161, Note_on_c, 3, 64, 0
5, 12288, Control_c, 3, 7, 127
5, 12294, Control_c, 3, 7, 126
5, 12318, Control_c, 3, 7, 125
5, 12329, Note_on_c, 3, 76, 64
5, 12342, Control_c, 3, 7, 124
5, 12354, Control_c, 3, 7, 123
5, 12358, Note_on_c, 3, 76, 0
5, 12372, Control_c, 3, 7, 122
5, 12372, Note_on_c, 3, 76, 64
5, 12396, Control_c, 3, 7, 121
5, 12405, Note_on_c, 3, 76, 0
5, 12420, Control_c, 3, 7, 120
5, 12423, Note_on_c, 3, 76, 64
5, 12432, Control_c, 3, 7, 119
5, 12450, Control_c, 3, 7, 118
5, 12458, Note_on_c, 3, 76, 0
5, 12473, Note_on_c, 3, 76, 64
5, 12474, Control_c, 3, 7, 117
5, 12486, Control_c, 3, 7, 116
5, 12498, Control_c, 3, 7, 115
5, 12510, Control_c, 3, 7, 114
5, 12528, Control_c, 3, 7, 113
5, 12540, Control_c, 3, 7, 112
5, 12546, Note_on_c, 3, 76, 0
5, 12551, Note_on_c, 3, 64, 64
5, 12552, Control_c, 3, 7, 111
5, 12564, Control_c, 3, 7, 110
5, 12571, Note_on_c, 3, 66, 64
5, 12573, Note_on_c, 3, 64, 0
5, 12576, Control_c, 3, 7, 109
5, 12588, Control_c, 3, 7, 108
5, 12606, Control_c, 3, 7, 107
5, 12614, Note_on_c, 3, 67, 64
5, 12618, Note_on_c, 3, 66, 0
5, 12618, Control_c, 3, 7, 106
5, 12630, Control_c, 3, 7, 105
5, 12636, Control_c, 3, 7, 104
5, 12642, Control_c, 3, 7, 103
5, 12654, Control_c, 3, 7, 102
5, 12660, Control_c, 3, 7, 101
5, 12664, Note_on_c, 3, 69, 64
5, 12667, Note_on_c, 3, 67, 0
5, 12672, Control_c, 3, 7, 100
5, 12684, Control_c, 3, 7, 99
5, 12690, Control_c, 3, 7, 98
5, 12696, Control_c, 3, 7, 97
5, 12708, Control_c, 3, 7, 96
5, 12714, Control_c, 3, 7, 95
5, 12720, Control_c, 3, 7, 94
5, 12726, Control_c, 3, 7, 93
5, 12732, Control_c, 3, 7, 92
5, 12738, Control_c, 3, 7, 91
5, 12744, Control_c, 3, 7, 90
5, 12750, Control_c, 3, 7, 89
5, 12762, Control_c, 3, 7, 88
5, 12768, Control_c, 3, 7, 87
5, 12774, Control_c, 3, 7, 86
5, 12780, Control_c, 3, 7, 85
5, 12785, Note_on_c, 3, 64, 64
5, 12786, Control_c, 3, 7, 83
5, 12788, Note_on_c, 3, 69, 0
5, 12792, Control_c, 3, 7, 82
5, 12798, Control_c, 3, 7, 80
5, 12804, Control_c, 3, 7, 79
5, 12810, Control_c, 3, 7, 77
5, 12810, Note_on_c, 3, 69, 64
5, 12816, Note_on_c, 3, 64, 0
5, 12816, Control_c, 3, 7, 75
5, 12822, Control_c, 3, 7, 74
5, 12828, Control_c, 3, 7, 72
5, 12833, Note_on_c, 3, 67, 64
5, 12834, Control_c, 3, 7, 71
5, 12839, Note_on_c, 3, 69, 0
5, 12840, Control_c, 3, 7, 68
5, 12846, Control_c, 3, 7, 66
5, 12852, Control_c, 3, 7, 63
5, 12858, Control_c, 3, 7, 61
5, 12862, Note_on_c, 3, 66, 64
5, 12864, Control_c, 3, 7, 57
5, 12865, Note_on_c, 3, 67, 0
5, 12870, Control_c, 3, 7, 53
5, 12876, Control_c, 3, 7, 49
5, 12882, Control_c, 3, 7, 45
5, 12888, Control_c, 3, 7, 36
5, 12894, Control_c, 3, 7, 27
5, 12900, Control_c, 3, 7, 18
5, 12906, Control_c, 3, 7, 0
5, 12912, Control_c, 3, 7, 0
5, 13025, Note_on_c, 3, 66, 0
5, 13025, End_track
6, 0, Start_track
6, 0, Title_t, "Chorale"
6, 0, Control_c, 4, 7, 111
6, 0, Pitch_bend_c, 4, 8192
6, 0, Control_c, 4, 1, 0
6, 0, Program_c, 4, 34
6, 0, Control_c, 4, 64, 0
6, 0, Control_c, 4, 10, 64
6, 48, Control_c, 4, 7, 111
6, 1344, Control_c, 4, 10, 27
6, 2352, Note_on_c, 4, 72, 64
6, 2364, Note_on_c, 4, 72, 0
6, 2373, Note_on_c, 4, 72, 64
6, 2385, Note_on_c, 4, 72, 0
6, 2397, Note_on_c, 4, 72, 64
6, 2441, Note_on_c, 4, 72, 0
6, 2442, Note_on_c, 4, 71, 64
6, 2490, Note_on_c, 4, 69, 64
6, 2493, Note_on_c, 4, 71, 0
6, 2543, Note_on_c, 4, 69, 0
6, 2564, Note_on_c, 4, 69, 64
6, 2582, Note_on_c, 4, 69, 0
6, 2587, Note_on_c, 4, 67, 64
6, 2610, Note_on_c, 4, 67, 0
6, 2613, Note_on_c, 4, 69, 64
6, 2686, Note_on_c, 4, 69, 0
6, 2732, Note_on_c, 4, 71, 64
6, 2757, Note_on_c, 4, 71, 0
6, 2783, Note_on_c, 4, 71, 64
6, 2811, Note_on_c, 4, 69, 64
6, 2814, Note_on_c, 4, 71, 0
6, 2864, Note_on_c, 4, 69, 0
6, 2871, Note_on_c, 4, 67, 64
6, 2883, Note_on_c, 4, 67, 0
6, 2887, Note_on_c, 4, 67, 64
6, 2896, Note_on_c, 4, 67, 0
6, 2903, Note_on_c, 4, 64, 64
6, 3015, Note_on_c, 4, 64, 0
6, 3118, Note_on_c, 4, 76, 64
6, 3151, Note_on_c, 4, 76, 0
6, 3167, Note_on_c, 4, 76, 64
6, 3196, Note_on_c, 4, 76, 0
6, 3212, Note_on_c, 4, 76, 64
6, 3249, Note_on_c, 4, 76, 0
6, 3263, Note_on_c, 4, 76, 64
6, 3303, Note_on_c, 4, 76, 0
6, 3339, Note_on_c, 4, 64, 64
6, 3360, Note_on_c, 4, 64, 0
6, 3360, Note_on_c, 4, 66, 64
6, 3402, Note_on_c, 4, 67, 64
6, 3403, Note_on_c, 4, 66, 0
6, 3451, Note_on_c, 4, 67, 0
6, 3453, Note_on_c, 4, 69, 64
6, 3574, Note_on_c, 4, 64, 64
6, 3577, Note_on_c, 4, 69, 0
6, 3597, Note_on_c, 4, 69, 64
6, 3600, Note_on_c, 4, 64, 0
6, 3621, Note_on_c, 4, 67, 64
6, 3624, Note_on_c, 4, 69, 0
6, 3645, Note_on_c, 4, 67, 0
6, 3645, Note_on_c, 4, 66, 64
6, 3746, Note_on_c, 4, 66, 0
6, 5421, Note_on_c, 4, 72, 64
6, 5431, Note_on_c, 4, 72, 0
6, 5443, Note_on_c, 4, 72, 64
6, 5454, Note_on_c, 4, 72, 0
6, 5467, Note_on_c, 4, 72, 64
6, 5516, Note_on_c, 4, 71, 64
6, 5518, Note_on_c, 4, 72, 0
6, 5531, Note_on_c, 4, 71, 0
6, 5541, Note_on_c, 4, 71, 64
6, 5556, Note_on_c, 4, 71, 0
6, 5567, Note_on_c, 4, 69, 64
6, 5620, Note_on_c, 4, 69, 0
6, 5635, Note_on_c, 4, 69, 64
6, 5658, Note_on_c, 4, 69, 0
6, 5658, Note_on_c, 4, 67, 64
6, 5683, Note_on_c, 4, 67, 0
6, 5687, Note_on_c, 4, 69, 64
6, 5758, Note_on_c, 4, 69, 0
6, 5802, Note_on_c, 4, 71, 64
6, 5825, Note_on_c, 4, 71, 0
6, 5848, Note_on_c, 4, 71, 64
6, 5877, Note_on_c, 4, 69, 64
6, 5880, Note_on_c, 4, 71, 0
6, 5932, Note_on_c, 4, 69, 0
6, 5935, Note_on_c, 4, 67, 64
6, 5977, Note_on_c, 4, 64, 64
6, 5981, Note_on_c, 4, 67, 0
6, 6055, Note_on_c, 4, 64, 0
6, 6191, Note_on_c, 4, 76, 64
6, 6222, Note_on_c, 4, 76, 0
6, 6235, Note_on_c, 4, 76, 64
6, 6267, Note_on_c, 4, 76, 0
6, 6283, Note_on_c, 4, 76, 64
6, 6315, Note_on_c, 4, 76, 0
6, 6330, Note_on_c, 4, 76, 64
6, 6382, Note_on_c, 4, 76, 0
6, 6405, Note_on_c, 4, 64, 64
6, 6427, Note_on_c, 4, 64, 0
6, 6427, Note_on_c, 4, 66, 64
6, 6471, Note_on_c, 4, 66, 0
6, 6475, Note_on_c, 4, 67, 64
6, 6522, Note_on_c, 4, 69, 64
6, 6523, Note_on_c, 4, 67, 0
6, 6643, Note_on_c, 4, 69, 0
6, 6644, Note_on_c, 4, 64, 64
6, 6670, Note_on_c, 4, 69, 64
6, 6680, Note_on_c, 4, 64, 0
6, 6695, Note_on_c, 4, 67, 64
6, 6697, Note_on_c, 4, 69, 0
6, 6720, Note_on_c, 4, 67, 0
6, 6722, Note_on_c, 4, 66, 64
6, 6798, Note_on_c, 4, 66, 0
6, 10560, Program_c, 4, 61
6, 10561, Note_on_c, 4, 69, 64
6, 10626, Note_on_c, 4, 69, 0
6, 10628, Note_on_c, 4, 62, 64
6, 10650, Note_on_c, 4, 66, 64
6, 10653, Note_on_c, 4, 62, 0
6, 10698, Note_on_c, 4, 62, 64
6, 10699, Note_on_c, 4, 66, 0
6, 10742, Note_on_c, 4, 62, 0
6, 10747, Note_on_c, 4, 67, 64
6, 10807, Note_on_c, 4, 67, 0
6, 11329, Note_on_c, 4, 69, 64
6, 11375, Note_on_c, 4, 69, 0
6, 11396, Note_on_c, 4, 69, 64
6, 11422, Note_on_c, 4, 66, 64
6, 11424, Note_on_c, 4, 69, 0
6, 11443, Note_on_c, 4, 69, 64
6, 11447, Note_on_c, 4, 66, 0
6, 11467, Note_on_c, 4, 62, 64
6, 11473, Note_on_c, 4, 69, 0
6, 11491, Note_on_c, 4, 66, 64
6, 11499, Note_on_c, 4, 62, 0
6, 11511, Note_on_c, 4, 66, 0
6, 11565, Note_on_c, 4, 72, 64
6, 11579, Note_on_c, 4, 72, 0
6, 11588, Note_on_c, 4, 72, 64
6, 11601, Note_on_c, 4, 72, 0
6, 11612, Note_on_c, 4, 72, 64
6, 11658, Note_on_c, 4, 71, 64
6, 11661, Note_on_c, 4, 72, 0
6, 11706, Note_on_c, 4, 69, 64
6, 11709, Note_on_c, 4, 71, 0
6, 11769, Note_on_c, 4, 69, 0
6, 11777, Note_on_c, 4, 69, 64
6, 11802, Note_on_c, 4, 67, 64
6, 11807, Note_on_c, 4, 69, 0
6, 11826, Note_on_c, 4, 69, 64
6, 11830, Note_on_c, 4, 67, 0
6, 11903, Note_on_c, 4, 69, 0
6, 11951, Note_on_c, 4, 71, 64
6, 11981, Note_on_c, 4, 71, 0
6, 11995, Note_on_c, 4, 71, 64
6, 12024, Note_on_c, 4, 69, 64
6, 12029, Note_on_c, 4, 71, 0
6, 12074, Note_on_c, 4, 67, 64
6, 12082, Note_on_c, 4, 69, 0
6, 12117, Note_on_c, 4, 64, 64
6, 12123, Note_on_c, 4, 67, 0
6, 12277, Note_on_c, 4, 64, 0
6, 12288, Control_c, 4, 7, 111
6, 12318, Control_c, 4, 7, 110
6, 12331, Note_on_c, 4, 76, 64
6, 12342, Control_c, 4, 7, 109
6, 12354, Control_c, 4, 7, 108
6, 12363, Note_on_c, 4, 76, 0
6, 12372, Control_c, 4, 7, 107
6, 12377, Note_on_c, 4, 76, 64
6, 12396, Control_c, 4, 7, 106
6, 12411, Note_on_c, 4, 76, 0
6, 12420, Control_c, 4, 7, 105
6, 12425, Note_on_c, 4, 76, 64
6, 12450, Control_c, 4, 7, 104
6, 12459, Note_on_c, 4, 76, 0
6, 12473, Note_on_c, 4, 76, 64
6, 12474, Control_c, 4, 7, 103
6, 12486, Control_c, 4, 7, 102
6, 12498, Control_c, 4, 7, 101
6, 12510, Control_c, 4, 7, 100
6, 12528, Control_c, 4, 7, 99
6, 12538, Note_on_c, 4, 76, 0
6, 12540, Control_c, 4, 7, 98
6, 12549, Note_on_c, 4, 64, 64
6, 12564, Control_c, 4, 7, 97
6, 12572, Note_on_c, 4, 66, 64
6, 12574, Note_on_c, 4, 64, 0
6, 12576, Control_c, 4, 7, 96
6, 12588, Control_c, 4, 7, 95
6, 12606, Control_c, 4, 7, 94
6, 12618, Control_c, 4, 7, 93
6, 12618, Note_on_c, 4, 67, 64
6, 12623, Note_on_c, 4, 66, 0
6, 12630, Control_c, 4, 7, 92
6, 12636, Control_c, 4, 7, 91
6, 12654, Control_c, 4, 7, 90
6, 12660, Control_c, 4, 7, 89
6, 12667, Note_on_c, 4, 69, 64
6, 12671, Note_on_c, 4, 67, 0
6, 12672, Control_c, 4, 7, 88
6, 12684, Control_c, 4, 7, 87
6, 12690, Control_c, 4, 7, 86
6, 12696, Control_c, 4, 7, 85
6, 12708, Control_c, 4, 7, 84
6, 12720, Control_c, 4, 7, 83
6, 12726, Control_c, 4, 7, 82
6, 12732, Control_c, 4, 7, 81
6, 12738, Control_c, 4, 7, 80
6, 12744, Control_c, 4, 7, 79
6, 12750, Control_c, 4, 7, 78
6, 12762, Control_c, 4, 7, 77
6, 12774, Control_c, 4, 7, 76
6, 12780, Control_c, 4, 7, 75
6, 12786, Control_c, 4, 7, 73
6, 12787, Note_on_c, 4, 64, 64
6, 12792, Control_c, 4, 7, 72
6, 12795, Note_on_c, 4, 69, 0
6, 12798, Control_c, 4, 7, 70
6, 12810, Control_c, 4, 7, 68
6, 12813, Note_on_c, 4, 69, 64
6, 12816, Control_c, 4, 7, 66
6, 12817, Note_on_c, 4, 64, 0
6, 12822, Control_c, 4, 7, 65
6, 12828, Control_c, 4, 7, 63
6, 12835, Note_on_c, 4, 67, 64
6, 12840, Control_c, 4, 7, 60
6, 12841, Note_on_c, 4, 69, 0
6, 12846, Control_c, 4, 7, 58
6, 12852, Control_c, 4, 7, 56
6, 12858, Control_c, 4, 7, 54
6, 12863, Note_on_c, 4, 66, 64
6, 12864, Control_c, 4, 7, 50
6, 12868, Note_on_c, 4, 67, 0
6, 12870, Control_c, 4, 7, 47
6, 12876, Control_c, 4, 7, 43
6, 12882, Control_c, 4, 7, 40
6, 12888, Control_c, 4, 7, 32
6, 12894, Control_c, 4, 7, 24
6, 12900, Control_c, 4, 7, 16
6, 12906, Control_c, 4, 7, 0
6, 12912, Control_c, 4, 7, 0
6, 13031, Note_on_c, 4, 66, 0
6, 13031, End_track
7, 0, Start_track
7, 0, Title_t, "Strings"
7, 0, Control_c, 5, 7, 96
7, 0, Pitch_bend_c, 5, 8192
7, 0, Control_c, 5, 1, 0
7, 0, Program_c, 5, 50
7, 0, Control_c, 5, 64, 0
7, 0, Control_c, 5, 10, 64
7, 1344, Control_c, 5, 10, 108
7, 6912, Control_c, 5, 7, 72
7, 6912, Program_c, 5, 50
7, 6960, Control_c, 5, 7, 72
7, 6960, Note_on_c, 5, 79, 64
7, 7006, Note_on_c, 5, 81, 64
7, 7014, Note_on_c, 5, 79, 0
7, 7048, Note_on_c, 5, 83, 64
7, 7053, Note_on_c, 5, 81, 0
7, 7099, Note_on_c, 5, 81, 64
7, 7105, Note_on_c, 5, 83, 0
7, 7143, Note_on_c, 5, 81, 0
7, 7151, Note_on_c, 5, 81, 64
7, 7198, Note_on_c, 5, 76, 64
7, 7208, Note_on_c, 5, 81, 0
7, 7242, Note_on_c, 5, 79, 64
7, 7248, Note_on_c, 5, 76, 0
7, 7277, Note_on_c, 5, 79, 0
7, 7290, Note_on_c, 5, 79, 64
7, 7417, Note_on_c, 5, 76, 64
7, 7424, Note_on_c, 5, 79, 0
7, 7440, Note_on_c, 5, 79, 64
7, 7443, Note_on_c, 5, 76, 0
7, 7484, Note_on_c, 5, 78, 64
7, 7489, Note_on_c, 5, 79, 0
7, 7557, Note_on_c, 5, 81, 64
7, 7559, Note_on_c, 5, 78, 0
7, 7580, Note_on_c, 5, 79, 64
7, 7584, Note_on_c, 5, 81, 0
7, 7602, Note_on_c, 5, 78, 64
7, 7609, Note_on_c, 5, 79, 0
7, 7629, Note_on_c, 5, 74, 64
7, 7631, Note_on_c, 5, 78, 0
7, 7652, Note_on_c, 5, 78, 64
7, 7661, Note_on_c, 5, 74, 0
7, 7676, Note_on_c, 5, 79, 64
7, 7681, Note_on_c, 5, 78, 0
7, 7719, Note_on_c, 5, 79, 0
7, 7724, Note_on_c, 5, 79, 64
7, 7770, Note_on_c, 5, 81, 64
7, 7773, Note_on_c, 5, 79, 0
7, 7815, Note_on_c, 5, 83, 64
7, 7824, Note_on_c, 5, 81, 0
7, 7842, Note_on_c, 5, 81, 64
7, 7843, Note_on_c, 5, 83, 0
7, 7906, Note_on_c, 5, 81, 0
7, 7908, Note_on_c, 5, 81, 64
7, 7951, Note_on_c, 5, 76, 64
7, 7962, Note_on_c, 5, 81, 0
7, 8007, Note_on_c, 5, 79, 64
7, 8016, Note_on_c, 5, 76, 0
7, 8042, Note_on_c, 5, 79, 0
7, 8052, Note_on_c, 5, 79, 64
7, 8176, Note_on_c, 5, 76, 64
7, 8182, Note_on_c, 5, 79, 0
7, 8200, Note_on_c, 5, 79, 64
7, 8204, Note_on_c, 5, 76, 0
7, 8250, Note_on_c, 5, 78, 64
7, 8256, Note_on_c, 5, 79, 0
7, 8330, Note_on_c, 5, 79, 64
7, 8341, Note_on_c, 5, 78, 0
7, 8383, Note_on_c, 5, 81, 64
7, 8390, Note_on_c, 5, 79, 0
7, 8396, Note_on_c, 5, 83, 64
7, 8400, Note_on_c, 5, 81, 0
7, 8441, Note_on_c, 5, 84, 64
7, 8444, Note_on_c, 5, 83, 0
7, 8488, Note_on_c, 5, 84, 0
7, 8488, Note_on_c, 5, 84, 64
7, 8506, Note_on_c, 5, 84, 0
7, 8515, Note_on_c, 5, 84, 64
7, 8541, Note_on_c, 5, 83, 64
7, 8552, Note_on_c, 5, 84, 0
7, 8580, Note_on_c, 5, 83, 0
7, 8582, Note_on_c, 5, 83, 64
7, 8631, Note_on_c, 5, 81, 64
7, 8638, Note_on_c, 5, 83, 0
7, 8703, Note_on_c, 5, 81, 0
7, 8709, Note_on_c, 5, 81, 64
7, 8728, Note_on_c, 5, 79, 64
7, 8734, Note_on_c, 5, 81, 0
7, 8756, Note_on_c, 5, 81, 64
7, 8764, Note_on_c, 5, 79, 0
7, 8875, Note_on_c, 5, 83, 64
7, 8878, Note_on_c, 5, 81, 0
7, 8914, Note_on_c, 5, 83, 0
7, 8919, Note_on_c, 5, 83, 64
7, 8966, Note_on_c, 5, 81, 64
7, 8972, Note_on_c, 5, 83, 0
7, 9018, Note_on_c, 5, 79, 64
7, 9024, Note_on_c, 5, 81, 0
7, 9048, Note_on_c, 5, 76, 64
7, 9058, Note_on_c, 5, 79, 0
7, 9256, Note_on_c, 5, 88, 64
7, 9262, Note_on_c, 5, 76, 0
7, 9298, Note_on_c, 5, 88, 0
7, 9300, Note_on_c, 5, 88, 64
7, 9342, Note_on_c, 5, 88, 0
7, 9348, Note_on_c, 5, 88, 64
7, 9386, Note_on_c, 5, 88, 0
7, 9398, Note_on_c, 5, 88, 64
7, 9476, Note_on_c, 5, 88, 0
7, 9479, Note_on_c, 5, 76, 64
7, 9504, Note_on_c, 5, 78, 64
7, 9511, Note_on_c, 5, 76, 0
7, 9543, Note_on_c, 5, 79, 64
7, 9550, Note_on_c, 5, 78, 0
7, 9598, Note_on_c, 5, 81, 64
7, 9602, Note_on_c, 5, 79, 0
7, 9734, Note_on_c, 5, 76, 64
7, 9743, Note_on_c, 5, 81, 0
7, 9770, Note_on_c, 5, 81, 64
7, 9777, Note_on_c, 5, 76, 0
7, 9788, Note_on_c, 5, 79, 64
7, 9795, Note_on_c, 5, 81, 0
7, 9803, Note_on_c, 5, 78, 64
7, 9808, Note_on_c, 5, 79, 0
7, 9862, Note_on_c, 5, 76, 64
7, 9870, Note_on_c, 5, 78, 0
7, 9885, Note_on_c, 5, 81, 64
7, 9893, Note_on_c, 5, 76, 0
7, 9931, Note_on_c, 5, 79, 64
7, 9939, Note_on_c, 5, 81, 0
7, 10000, Note_on_c, 5, 79, 0
7, 10000, End_track
8, 0, Start_track
8, 0, Title_t, "Bass"
8, 0, Control_c, 6, 7, 86
8, 0, Pitch_bend_c, 6, 8192
8, 0, Control_c, 6, 1, 0
8, 0, Program_c, 6, 64
8, 0, Control_c, 6, 64, 0
8, 0, Control_c, 6, 10, 64
8, 0, Note_on_c, 6, 31, 89
8, 48, Control_c, 6, 7, 86
8, 54, Note_on_c, 6, 31, 0
8, 72, Note_on_c, 6, 31, 93
8, 90, Note_on_c, 6, 31, 0
8, 96, Note_on_c, 6, 31, 102
8, 150, Note_on_c, 6, 31, 0
8, 168, Note_on_c, 6, 31, 91
8, 186, Note_on_c, 6, 31, 0
8, 192, Note_on_c, 6, 33, 91
8, 246, Note_on_c, 6, 33, 0
8, 264, Note_on_c, 6, 33, 93
8, 282, Note_on_c, 6, 33, 0
8, 288, Note_on_c, 6, 33, 102
8, 342, Note_on_c, 6, 33, 0
8, 360, Note_on_c, 6, 33, 79
8, 378, Note_on_c, 6, 33, 0
8, 384, Note_on_c, 6, 36, 90
8, 438, Note_on_c, 6, 36, 0
8, 456, Note_on_c, 6, 36, 81
8, 474, Note_on_c, 6, 36, 0
8, 480, Note_on_c, 6, 36, 95
8, 534, Note_on_c, 6, 36, 0
8, 552, Note_on_c, 6, 36, 83
8, 570, Note_on_c, 6, 36, 0
8, 576, Note_on_c, 6, 38, 85
8, 630, Note_on_c, 6, 38, 0
8, 648, Note_on_c, 6, 38, 90
8, 666, Note_on_c, 6, 38, 0
8, 672, Note_on_c, 6, 38, 98
8, 726, Note_on_c, 6, 38, 0
8, 744, Note_on_c, 6, 38, 90
8, 762, Note_on_c, 6, 38, 0
8, 768, Note_on_c, 6, 31, 85
8, 822, Note_on_c, 6, 31, 0
8, 840, Note_on_c, 6, 31, 81
8, 858, Note_on_c, 6, 31, 0
8, 864, Note_on_c, 6, 31, 98
8, 918, Note_on_c, 6, 31, 0
8, 936, Note_on_c, 6, 31, 93
8, 954, Note_on_c, 6, 31, 0
8, 960, Note_on_c, 6, 33, 101
8, 1014, Note_on_c, 6, 33, 0
8, 1032, Note_on_c, 6, 33, 81
8, 1050, Note_on_c, 6, 33, 0
8, 1056, Note_on_c, 6, 33, 102
8, 1110, Note_on_c, 6, 33, 0
8, 1128, Note_on_c, 6, 33, 87
8, 1146, Note_on_c, 6, 33, 0
8, 1152, Note_on_c, 6, 36, 91
8, 1206, Note_on_c, 6, 36, 0
8, 1224, Note_on_c, 6, 36, 76
8, 1242, Note_on_c, 6, 36, 0
8, 1248, Note_on_c, 6, 36, 96
8, 1302, Note_on_c, 6, 36, 0
8, 1320, Note_on_c, 6, 36, 92
8, 1338, Note_on_c, 6, 36, 0
8, 1344, Control_c, 6, 10, 18
8, 1344, Note_on_c, 6, 38, 87
8, 1398, Note_on_c, 6, 38, 0
8, 1416, Note_on_c, 6, 38, 80
8, 1434, Note_on_c, 6, 38, 0
8, 1440, Note_on_c, 6, 38, 101
8, 1494, Note_on_c, 6, 38, 0
8, 1512, Note_on_c, 6, 38, 94
8, 1530, Note_on_c, 6, 38, 0
8, 1536, Note_on_c, 6, 31, 99
8, 1590, Note_on_c, 6, 31, 0
8, 1608, Note_on_c, 6, 31, 89
8, 1626, Note_on_c, 6, 31, 0
8, 1632, Note_on_c, 6, 31, 104
8, 1686, Note_on_c, 6, 31, 0
8, 1704, Note_on_c, 6, 31, 88
8, 1722, Note_on_c, 6, 31, 0
8, 1728, Note_on_c, 6, 33, 99
8, 1782, Note_on_c, 6, 33, 0
8, 1800, Note_on_c, 6, 33, 81
8, 1818, Note_on_c, 6, 33, 0
8, 1824, Note_on_c, 6, 33, 103
8, 1878, Note_on_c, 6, 33, 0
8, 1896, Note_on_c, 6, 33, 89
8, 1914, Note_on_c, 6, 33, 0
8, 1920, Note_on_c, 6, 36, 104
8, 1974, Note_on_c, 6, 36, 0
8, 1992, Note_on_c, 6, 36, 82
8, 2010, Note_on_c, 6, 36, 0
8, 2016, Note_on_c, 6, 36, 85
8, 2070, Note_on_c, 6, 36, 0
8, 2088, Note_on_c, 6, 36, 90
8, 2106, Note_on_c, 6, 36, 0
8, 2112, Note_on_c, 6, 38, 103
8, 2166, Note_on_c, 6, 38, 0
8, 2184, Note_on_c, 6, 38, 89
8, 2202, Note_on_c, 6, 38, 0
8, 2208, Note_on_c, 6, 38, 94
8, 2262, Note_on_c, 6, 38, 0
8, 2280, Note_on_c, 6, 38, 75
8, 2298, Note_on_c, 6, 38, 0
8, 2304, Note_on_c, 6, 36, 97
8, 2367, Note_on_c, 6, 36, 0
8, 2388, Note_on_c, 6, 36, 87
8, 2397, Note_on_c, 6, 36, 0
8, 2400, Note_on_c, 6, 36, 104
8, 2454, Note_on_c, 6, 36, 0
8, 2472, Note_on_c, 6, 40, 81
8, 2481, Note_on_c, 6, 40, 0
8, 2484, Note_on_c, 6, 39, 79
8, 2493, Note_on_c, 6, 39, 0
8, 2496, Note_on_c, 6, 38, 90
8, 2559, Note_on_c, 6, 38, 0
8, 2580, Note_on_c, 6, 38, 84
8, 2589, Note_on_c, 6, 38, 0
8, 2592, Note_on_c, 6, 38, 94
8, 2646, Note_on_c, 6, 38, 0
8, 2664, Note_on_c, 6, 33, 88
8, 2673, Note_on_c, 6, 33, 0
8, 2676, Note_on_c, 6, 30, 86
8, 2685, Note_on_c, 6, 30, 0
8, 2688, Note_on_c, 6, 31, 103
8, 2751, Note_on_c, 6, 31, 0
8, 2772, Note_on_c, 6, 26, 87
8, 2781, Note_on_c, 6, 26, 0
8, 2784, Note_on_c, 6, 31, 103
8, 2838, Note_on_c, 6, 31, 0
8, 2856, Note_on_c, 6, 42, 82
8, 2865, Note_on_c, 6, 42, 0
8, 2868, Note_on_c, 6, 39, 87
8, 2877, Note_on_c, 6, 39, 0
8, 2880, Note_on_c, 6, 40, 90
8, 2943, Note_on_c, 6, 40, 0
8, 2964, Note_on_c, 6, 40, 76
8, 2973, Note_on_c, 6, 40, 0
8, 2976, Note_on_c, 6, 40, 101
8, 3030, Note_on_c, 6, 40, 0
8, 3048, Note_on_c, 6, 38, 82
8, 3057, Note_on_c, 6, 38, 0
8, 3060, Note_on_c, 6, 37, 82
8, 3069, Note_on_c, 6, 37, 0
8, 3072, Note_on_c, 6, 36, 103
8, 3135, Note_on_c, 6, 36, 0
8, 3156, Note_on_c, 6, 37, 80
8, 3165, Note_on_c, 6, 37, 0
8, 3168, Note_on_c, 6, 36, 104
8, 3222, Note_on_c, 6, 36, 0
8, 3240, Note_on_c, 6, 31, 76
8, 3249, Note_on_c, 6, 31, 0
8, 3252, Note_on_c, 6, 33, 76
8, 3261, Note_on_c, 6, 33, 0
8, 3264, Note_on_c, 6, 36, 87
8, 3327, Note_on_c, 6, 36, 0
8, 3348, Note_on_c, 6, 33, 90
8, 3357, Note_on_c, 6, 33, 0
8, 3360, Note_on_c, 6, 36, 102
8, 3414, Note_on_c, 6, 36, 0
8, 3432, Note_on_c, 6, 36, 88
8, 3441, Note_on_c, 6, 36, 0
8, 3444, Note_on_c, 6, 37, 78
8, 3453, Note_on_c, 6, 37, 0
8, 3456, Note_on_c, 6, 38, 87
8, 3519, Note_on_c, 6, 38, 0
8, 3540, Note_on_c, 6, 38, 76
8, 3549, Note_on_c, 6, 38, 0
8, 3552, Note_on_c, 6, 38, 85
8, 3606, Note_on_c, 6, 38, 0
8, 3624, Note_on_c, 6, 33, 78
8, 3633, Note_on_c, 6, 33, 0
8, 3636, Note_on_c, 6, 35, 85
8, 3645, Note_on_c, 6, 35, 0
8, 3648, Note_on_c, 6, 38, 86
8, 3711, Note_on_c, 6, 38, 0
8, 3732, Note_on_c, 6, 33, 86
8, 3741, Note_on_c, 6, 33, 0
8, 3744, Note_on_c, 6, 38, 89
8, 3798, Note_on_c, 6, 38, 0
8, 3816, Note_on_c, 6, 33, 91
8, 3825, Note_on_c, 6, 33, 0
8, 3828, Note_on_c, 6, 30, 75
8, 3837, Note_on_c, 6, 30, 0
8, 3840, Note_on_c, 6, 31, 91
8, 3894, Note_on_c, 6, 31, 0
8, 3912, Note_on_c, 6, 31, 82
8, 3930, Note_on_c, 6, 31, 0
8, 3936, Note_on_c, 6, 31, 89
8, 3990, Note_on_c, 6, 31, 0
8, 4008, Note_on_c, 6, 31, 82
8, 4026, Note_on_c, 6, 31, 0
8, 4032, Note_on_c, 6, 33, 92
8, 4086, Note_on_c, 6, 33, 0
8, 4104, Note_on_c, 6, 33, 78
8, 4122, Note_on_c, 6, 33, 0
8, 4128, Note_on_c, 6, 33, 100
8, 4182, Note_on_c, 6, 33, 0
8, 4200, Note_on_c, 6, 33, 83
8, 4218, Note_on_c, 6, 33, 0
8, 4224, Note_on_c, 6, 36, 93
8, 4278, Note_on_c, 6, 36, 0
8, 4296, Note_on_c, 6, 36, 91
8, 4314, Note_on_c, 6, 36, 0
8, 4320, Note_on_c, 6, 36, 93
8, 4374, Note_on_c, 6, 36, 0
8, 4392, Note_on_c, 6, 36, 76
8, 4410, Note_on_c, 6, 36, 0
8, 4416, Note_on_c, 6, 38, 98
8, 4470, Note_on_c, 6, 38, 0
8, 4488, Note_on_c, 6, 38, 75
8, 4506, Note_on_c, 6, 38, 0
8, 4512, Note_on_c, 6, 38, 101
8, 4566, Note_on_c, 6, 38, 0
8, 4584, Note_on_c, 6, 38, 93
8, 4602, Note_on_c, 6, 38, 0
8, 4608, Note_on_c, 6, 31, 94
8, 4662, Note_on_c, 6, 31, 0
8, 4680, Note_on_c, 6, 31, 88
8, 4698, Note_on_c, 6, 31, 0
8, 4704, Note_on_c, 6, 31, 92
8, 4758, Note_on_c, 6, 31, 0
8, 4776, Note_on_c, 6, 31, 79
8, 4794, Note_on_c, 6, 31, 0
8, 4800, Note_on_c, 6, 33, 96
8, 4854, Note_on_c, 6, 33, 0
8, 4872, Note_on_c, 6, 33, 76
8, 4890, Note_on_c, 6, 33, 0
8, 4896, Note_on_c, 6, 33, 87
8, 4950, Note_on_c, 6, 33, 0
8, 4968, Note_on_c, 6, 33, 87
8, 4986, Note_on_c, 6, 33, 0
8, 4992, Note_on_c, 6, 36, 87
8, 5046, Note_on_c, 6, 36, 0
8, 5064, Note_on_c, 6, 36, 77
8, 5082, Note_on_c, 6, 36, 0
8, 5088, Note_on_c, 6, 36, 87
8, 5142, Note_on_c, 6, 36, 0
8, 5160, Note_on_c, 6, 36, 91
8, 5178, Note_on_c, 6, 36, 0
8, 5184, Note_on_c, 6, 38, 104
8, 5238, Note_on_c, 6, 38, 0
8, 5256, Note_on_c, 6, 38, 89
8, 5274, Note_on_c, 6, 38, 0
8, 5280, Note_on_c, 6, 38, 102
8, 5334, Note_on_c, 6, 38, 0
8, 5352, Note_on_c, 6, 38, 88
8, 5370, Note_on_c, 6, 38, 0
8, 5376, Note_on_c, 6, 36, 103
8, 5439, Note_on_c, 6, 36, 0
8, 5460, Note_on_c, 6, 36, 92
8, 5469, Note_on_c, 6, 36, 0
8, 5472, Note_on_c, 6, 36, 94
8, 5526, Note_on_c, 6, 36, 0
8, 5544, Note_on_c, 6, 40, 76
8, 5553, Note_on_c, 6, 40, 0
8, 5556, Note_on_c, 6, 39, 94
8, 5565, Note_on_c, 6, 39, 0
8, 5568, Note_on_c, 6, 38, 91
8, 5631, Note_on_c, 6, 38, 0
8, 5652, Note_on_c, 6, 38, 89
8, 5661, Note_on_c, 6, 38, 0
8, 5664, Note_on_c, 6, 38, 95
8, 5718, Note_on_c, 6, 38, 0
8, 5736, Note_on_c, 6, 33, 91
8, 5745, Note_on_c, 6, 33, 0
8, 5748, Note_on_c, 6, 30, 89
8, 5757, Note_on_c, 6, 30, 0
8, 5760, Note_on_c, 6, 31, 94
8, 5823, Note_on_c, 6, 31, 0
8, 5844, Note_on_c, 6, 26, 88
8, 5853, Note_on_c, 6, 26, 0
8, 5856, Note_on_c, 6, 31, 95
8, 5910, Note_on_c, 6, 31, 0
8, 5928, Note_on_c, 6, 42, 88
8, 5937, Note_on_c, 6, 42, 0
8, 5940, Note_on_c, 6, 41, 80
8, 5949, Note_on_c, 6, 41, 0
8, 5952, Note_on_c, 6, 40, 86
8, 6015, Note_on_c, 6, 40, 0
8, 6036, Note_on_c, 6, 35, 79
8, 6045, Note_on_c, 6, 35, 0
8, 6048, Note_on_c, 6, 40, 90
8, 6102, Note_on_c, 6, 40, 0
8, 6120, Note_on_c, 6, 38, 94
8, 6129, Note_on_c, 6, 38, 0
8, 6132, Note_on_c, 6, 37, 82
8, 6141, Note_on_c, 6, 37, 0
8, 6144, Note_on_c, 6, 36, 97
8, 6207, Note_on_c, 6, 36, 0
8, 6228, Note_on_c, 6, 36, 94
8, 6237, Note_on_c, 6, 36, 0
8, 6240, Note_on_c, 6, 36, 96
8, 6294, Note_on_c, 6, 36, 0
8, 6312, Note_on_c, 6, 31, 79
8, 6321, Note_on_c, 6, 31, 0
8, 6324, Note_on_c, 6, 33, 89
8, 6333, Note_on_c, 6, 33, 0
8, 6336, Note_on_c, 6, 36, 88
8, 6399, Note_on_c, 6, 36, 0
8, 6420, Note_on_c, 6, 36, 91
8, 6429, Note_on_c, 6, 36, 0
8, 6432, Note_on_c, 6, 36, 87
8, 6486, Note_on_c, 6, 36, 0
8, 6504, Note_on_c, 6, 40, 76
8, 6513, Note_on_c, 6, 40, 0
8, 6516, Note_on_c, 6, 39, 75
8, 6525, Note_on_c, 6, 39, 0
8, 6528, Note_on_c, 6, 38, 86
8, 6591, Note_on_c, 6, 38, 0
8, 6612, Note_on_c, 6, 38, 80
8, 6621, Note_on_c, 6, 38, 0
8, 6624, Note_on_c, 6, 38, 102
8, 6678, Note_on_c, 6, 38, 0
8, 6696, Note_on_c, 6, 33, 91
8, 6705, Note_on_c, 6, 33, 0
8, 6708, Note_on_c, 6, 35, 88
8, 6717, Note_on_c, 6, 35, 0
8, 6720, Note_on_c, 6, 38, 103
8, 6783, Note_on_c, 6, 38, 0
8, 6804, Note_on_c, 6, 38, 83
8, 6813, Note_on_c, 6, 38, 0
8, 6816, Note_on_c, 6, 38, 102
8, 6870, Note_on_c, 6, 38, 0
8, 6888, Note_on_c, 6, 38, 80
8, 6897, Note_on_c, 6, 38, 0
8, 6900, Note_on_c, 6, 30, 92
8, 6909, Note_on_c, 6, 30, 0
8, 6912, Note_on_c, 6, 31, 93
8, 6966, Note_on_c, 6, 31, 0
8, 6984, Note_on_c, 6, 31, 77
8, 7002, Note_on_c, 6, 31, 0
8, 7008, Note_on_c, 6, 31, 96
8, 7062, Note_on_c, 6, 31, 0
8, 7080, Note_on_c, 6, 31, 93
8, 7098, Note_on_c, 6, 31, 0
8, 7104, Note_on_c, 6, 33, 101
8, 7158, Note_on_c, 6, 33, 0
8, 7176, Note_on_c, 6, 33, 88
8, 7194, Note_on_c, 6, 33, 0
8, 7200, Note_on_c, 6, 37, 90
8, 7254, Note_on_c, 6, 37, 0
8, 7272, Note_on_c, 6, 37, 77
8, 7290, Note_on_c, 6, 37, 0
8, 7296, Note_on_c, 6, 36, 94
8, 7350, Note_on_c, 6, 36, 0
8, 7368, Note_on_c, 6, 36, 81
8, 7386, Note_on_c, 6, 36, 0
8, 7392, Note_on_c, 6, 40, 98
8, 7446, Note_on_c, 6, 40, 0
8, 7464, Note_on_c, 6, 40, 84
8, 7482, Note_on_c, 6, 40, 0
8, 7488, Note_on_c, 6, 38, 93
8, 7542, Note_on_c, 6, 38, 0
8, 7560, Note_on_c, 6, 38, 89
8, 7578, Note_on_c, 6, 38, 0
8, 7584, Note_on_c, 6, 38, 98
8, 7638, Note_on_c, 6, 38, 0
8, 7656, Note_on_c, 6, 38, 86
8, 7674, Note_on_c, 6, 38, 0
8, 7680, Note_on_c, 6, 31, 95
8, 7734, Note_on_c, 6, 31, 0
8, 7752, Note_on_c, 6, 31, 86
8, 7770, Note_on_c, 6, 31, 0
8, 7776, Note_on_c, 6, 31, 100
8, 7830, Note_on_c, 6, 31, 0
8, 7848, Note_on_c, 6, 31, 91
8, 7866, Note_on_c, 6, 31, 0
8, 7872, Note_on_c, 6, 33, 93
8, 7926, Note_on_c, 6, 33, 0
8, 7944, Note_on_c, 6, 33, 85
8, 7962, Note_on_c, 6, 33, 0
8, 7968, Note_on_c, 6, 33, 104
8, 8022, Note_on_c, 6, 33, 0
8, 8040, Note_on_c, 6, 33, 89
8, 8058, Note_on_c, 6, 33, 0
8, 8064, Note_on_c, 6, 36, 96
8, 8118, Note_on_c, 6, 36, 0
8, 8136, Note_on_c, 6, 36, 77
8, 8154, Note_on_c, 6, 36, 0
8, 8160, Note_on_c, 6, 36, 86
8, 8214, Note_on_c, 6, 36, 0
8, 8232, Note_on_c, 6, 36, 79
8, 8250, Note_on_c, 6, 36, 0
8, 8256, Note_on_c, 6, 38, 85
8, 8310, Note_on_c, 6, 38, 0
8, 8328, Note_on_c, 6, 38, 82
8, 8346, Note_on_c, 6, 38, 0
8, 8352, Note_on_c, 6, 38, 99
8, 8406, Note_on_c, 6, 38, 0
8, 8424, Note_on_c, 6, 38, 88
8, 8442, Note_on_c, 6, 38, 0
8, 8448, Note_on_c, 6, 36, 89
8, 8502, Note_on_c, 6, 36, 0
8, 8520, Note_on_c, 6, 36, 89
8, 8538, Note_on_c, 6, 36, 0
8, 8544, Note_on_c, 6, 36, 85
8, 8598, Note_on_c, 6, 36, 0
8, 8616, Note_on_c, 6, 36, 78
8, 8634, Note_on_c, 6, 36, 0
8, 8640, Note_on_c, 6, 33, 85
8, 8694, Note_on_c, 6, 33, 0
8, 8712, Note_on_c, 6, 33, 83
8, 8730, Note_on_c, 6, 33, 0
8, 8736, Note_on_c, 6, 33, 99
8, 8790, Note_on_c, 6, 33, 0
8, 8808, Note_on_c, 6, 33, 81
8, 8826, Note_on_c, 6, 33, 0
8, 8832, Note_on_c, 6, 31, 85
8, 8886, Note_on_c, 6, 31, 0
8, 8904, Note_on_c, 6, 31, 93
8, 8922, Note_on_c, 6, 31, 0
8, 8928, Note_on_c, 6, 30, 101
8, 8982, Note_on_c, 6, 30, 0
8, 9000, Note_on_c, 6, 30, 76
8, 9018, Note_on_c, 6, 30, 0
8, 9024, Note_on_c, 6, 40, 103
8, 9078, Note_on_c, 6, 40, 0
8, 9096, Note_on_c, 6, 40, 83
8, 9114, Note_on_c, 6, 40, 0
8, 9120, Note_on_c, 6, 40, 98
8, 9174, Note_on_c, 6, 40, 0
8, 9192, Note_on_c, 6, 40, 90
8, 9210, Note_on_c, 6, 40, 0
8, 9216, Note_on_c, 6, 36, 89
8, 9270, Note_on_c, 6, 36, 0
8, 9288, Note_on_c, 6, 36, 80
8, 9306, Note_on_c, 6, 36, 0
8, 9312, Note_on_c, 6, 36, 89
8, 9366, Note_on_c, 6, 36, 0
8, 9384, Note_on_c, 6, 36, 89
8, 9402, Note_on_c, 6, 36, 0
8, 9408, Note_on_c, 6, 36, 93
8, 9462, Note_on_c, 6, 36, 0
8, 9480, Note_on_c, 6, 36, 84
8, 9498, Note_on_c, 6, 36, 0
8, 9504, Note_on_c, 6, 36, 103
8, 9558, Note_on_c, 6, 36, 0
8, 9576, Note_on_c, 6, 36, 87
8, 9594, Note_on_c, 6, 36, 0
8, 9600, Note_on_c, 6, 36, 104
8, 9654, Note_on_c, 6, 36, 0
8, 9672, Note_on_c, 6, 36, 76
8, 9690, Note_on_c, 6, 36, 0
8, 9696, Note_on_c, 6, 36, 90
8, 9750, Note_on_c, 6, 36, 0
8, 9768, Note_on_c, 6, 36, 94
8, 9786, Note_on_c, 6, 36, 0
8, 9792, Note_on_c, 6, 38, 90
8, 9846, Note_on_c, 6, 38, 0
8, 9864, Note_on_c, 6, 38, 86
8, 9882, Note_on_c, 6, 38, 0
8, 9888, Note_on_c, 6, 38, 86
8, 9942, Note_on_c, 6, 38, 0
8, 9960, Note_on_c, 6, 38, 91
8, 9978, Note_on_c, 6, 38, 0
8, 9984, Note_on_c, 6, 31, 96
8, 10038, Note_on_c, 6, 31, 0
8, 10056, Note_on_c, 6, 31, 76
8, 10074, Note_on_c, 6, 31, 0
8, 10080, Note_on_c, 6, 31, 96
8, 10134, Note_on_c, 6, 31, 0
8, 10152, Note_on_c, 6, 31, 94
8, 10170, Note_on_c, 6, 31, 0
8, 10176, Note_on_c, 6, 33, 92
8, 10230, Note_on_c, 6, 33, 0
8, 10248, Note_on_c, 6, 33, 79
8, 10266, Note_on_c, 6, 33, 0
8, 10272, Note_on_c, 6, 33, 85
8, 10326, Note_on_c, 6, 33, 0
8, 10344, Note_on_c, 6, 33, 94
8, 10362, Note_on_c, 6, 33, 0
8, 10368, Note_on_c, 6, 36, 97
8, 10422, Note_on_c, 6, 36, 0
8, 10440, Note_on_c, 6, 36, 81
8, 10458, Note_on_c, 6, 36, 0
8, 10464, Note_on_c, 6, 36, 91
8, 10518, Note_on_c, 6, 36, 0
8, 10536, Note_on_c, 6, 36, 78
8, 10554, Note_on_c, 6, 36, 0
8, 10560, Note_on_c, 6, 38, 86
8, 10614, Note_on_c, 6, 38, 0
8, 10632, Note_on_c, 6, 38, 89
8, 10650, Note_on_c, 6, 38, 0
8, 10656, Note_on_c, 6, 38, 89
8, 10710, Note_on_c, 6, 38, 0
8, 10728, Note_on_c, 6, 38, 80
8, 10746, Note_on_c, 6, 38, 0
8, 10752, Note_on_c, 6, 31, 93
8, 10806, Note_on_c, 6, 31, 0
8, 10824, Note_on_c, 6, 31, 86
8, 10842, Note_on_c, 6, 31, 0
8, 10848, Note_on_c, 6, 31, 86
8, 10902, Note_on_c, 6, 31, 0
8, 10920, Note_on_c, 6, 31, 77
8, 10938, Note_on_c, 6, 31, 0
8, 10944, Note_on_c, 6, 33, 86
8, 10998, Note_on_c, 6, 33, 0
8, 11016, Note_on_c, 6, 33, 75
8, 11034, Note_on_c, 6, 33, 0
8, 11040, Note_on_c, 6, 33, 90
8, 11094, Note_on_c, 6, 33, 0
8, 11112, Note_on_c, 6, 33, 79
8, 11130, Note_on_c, 6, 33, 0
8, 11136, Note_on_c, 6, 36, 103
8, 11190, Note_on_c, 6, 36, 0
8, 11208, Note_on_c, 6, 36, 94
8, 11226, Note_on_c, 6, 36, 0
8, 11232, Note_on_c, 6, 36, 104
8, 11286, Note_on_c, 6, 36, 0
8, 11304, Note_on_c, 6, 36, 79
8, 11322, Note_on_c, 6, 36, 0
8, 11328, Note_on_c, 6, 38, 90
8, 11382, Note_on_c, 6, 38, 0
8, 11400, Note_on_c, 6, 38, 75
8, 11418, Note_on_c, 6, 38, 0
8, 11424, Note_on_c, 6, 38, 92
8, 11478, Note_on_c, 6, 38, 0
8, 11496, Note_on_c, 6, 38, 94
8, 11514, Note_on_c, 6, 38, 0
8, 11520, Note_on_c, 6, 36, 90
8, 11583, Note_on_c, 6, 36, 0
8, 11604, Note_on_c, 6, 36, 94
8, 11613, Note_on_c, 6, 36, 0
8, 11616, Note_on_c, 6, 36, 94
8, 11670, Note_on_c, 6, 36, 0
8, 11688, Note_on_c, 6, 36, 92
8, 11697, Note_on_c, 6, 36, 0
8, 11700, Note_on_c, 6, 37, 82
8, 11709, Note_on_c, 6, 37, 0
8, 11712, Note_on_c, 6, 38, 100
8, 11775, Note_on_c, 6, 38, 0
8, 11796, Note_on_c, 6, 38, 92
8, 11805, Note_on_c, 6, 38, 0
8, 11808, Note_on_c, 6, 38, 92
8, 11862, Note_on_c, 6, 38, 0
8, 11880, Note_on_c, 6, 33, 92
8, 11889, Note_on_c, 6, 33, 0
8, 11892, Note_on_c, 6, 30, 86
8, 11901, Note_on_c, 6, 30, 0
8, 11904, Note_on_c, 6, 31, 96
8, 11967, Note_on_c, 6, 31, 0
8, 11988, Note_on_c, 6, 26, 90
8, 11997, Note_on_c, 6, 26, 0
8, 12000, Note_on_c, 6, 31, 97
8, 12054, Note_on_c, 6, 31, 0
8, 12072, Note_on_c, 6, 42, 86
8, 12081, Note_on_c, 6, 42, 0
8, 12084, Note_on_c, 6, 41, 86
8, 12093, Note_on_c, 6, 41, 0
8, 12096, Note_on_c, 6, 40, 94
8, 12159, Note_on_c, 6, 40, 0
8, 12180, Note_on_c, 6, 40, 76
8, 12189, Note_on_c, 6, 40, 0
8, 12192, Note_on_c, 6, 40, 102
8, 12246, Note_on_c, 6, 40, 0
8, 12264, Note_on_c, 6, 38, 86
8, 12273, Note_on_c, 6, 38, 0
8, 12276, Note_on_c, 6, 35, 94
8, 12285, Note_on_c, 6, 35, 0
8, 12288, Control_c, 6, 7, 102
8, 12288, Note_on_c, 6, 36, 88
8, 12318, Control_c, 6, 7, 101
8, 12342, Control_c, 6, 7, 100
8, 12351, Note_on_c, 6, 36, 0
8, 12354, Control_c, 6, 7, 99
8, 12372, Control_c, 6, 7, 98
8, 12372, Note_on_c, 6, 36, 84
8, 12381, Note_on_c, 6, 36, 0
8, 12384, Note_on_c, 6, 36, 90
8, 12420, Control_c, 6, 7, 97
8, 12432, Control_c, 6, 7, 96
8, 12438, Note_on_c, 6, 36, 0
8, 12450, Control_c, 6, 7, 95
8, 12456, Note_on_c, 6, 38, 86
8, 12465, Note_on_c, 6, 38, 0
8, 12468, Note_on_c, 6, 37, 86
8, 12474, Control_c, 6, 7, 94
8, 12477, Note_on_c, 6, 37, 0
8, 12480, Note_on_c, 6, 36, 86
8, 12498, Control_c, 6, 7, 93
8, 12510, Control_c, 6, 7, 92
8, 12528, Control_c, 6, 7, 91
8, 12540, Control_c, 6, 7, 90
8, 12543, Note_on_c, 6, 36, 0
8, 12564, Control_c, 6, 7, 89
8, 12564, Note_on_c, 6, 36, 89
8, 12573, Note_on_c, 6, 36, 0
8, 12576, Control_c, 6, 7, 88
8, 12576, Note_on_c, 6, 36, 96
8, 12588, Control_c, 6, 7, 87
8, 12606, Control_c, 6, 7, 86
8, 12630, Note_on_c, 6, 36, 0
8, 12630, Control_c, 6, 7, 85
8, 12636, Control_c, 6, 7, 84
8, 12642, Control_c, 6, 7, 83
8, 12648, Note_on_c, 6, 36, 88
8, 12654, Control_c, 6, 7, 82
8, 12657, Note_on_c, 6, 36, 0
8, 12660, Note_on_c, 6, 37, 91
8, 12669, Note_on_c, 6, 37, 0
8, 12672, Control_c, 6, 7, 81
8, 12672, Note_on_c, 6, 38, 86
8, 12684, Control_c, 6, 7, 80
8, 12690, Control_c, 6, 7, 79
8, 12696, Control_c, 6, 7, 78
8, 12714, Control_c, 6, 7, 77
8, 12720, Control_c, 6, 7, 76
8, 12726, Control_c, 6, 7, 75
8, 12732, Control_c, 6, 7, 74
8, 12735, Note_on_c, 6, 38, 0
8, 12744, Control_c, 6, 7, 73
8, 12750, Control_c, 6, 7, 72
8, 12756, Note_on_c, 6, 33, 86
8, 12762, Control_c, 6, 7, 71
8, 12765, Note_on_c, 6, 33, 0
8, 12768, Control_c, 6, 7, 70
8, 12768, Note_on_c, 6, 38, 95
8, 12780, Control_c, 6, 7, 69
8, 12786, Control_c, 6, 7, 67
8, 12792, Control_c, 6, 7, 66
8, 12798, Control_c, 6, 7, 65
8, 12804, Control_c, 6, 7, 64
8, 12810, Control_c, 6, 7, 62
8, 12816, Control_c, 6, 7, 61
8, 12822, Note_on_c, 6, 38, 0
8, 12822, Control_c, 6, 7, 60
8, 12828, Control_c, 6, 7, 58
8, 12840, Control_c, 6, 7, 55
8, 12840, Note_on_c, 6, 33, 90
8, 12846, Control_c, 6, 7, 54
8, 12849, Note_on_c, 6, 33, 0
8, 12852, Control_c, 6, 7, 51
8, 12852, Note_on_c, 6, 39, 89
8, 12858, Control_c, 6, 7, 49
8, 12861, Note_on_c, 6, 39, 0
8, 12864, Control_c, 6, 7, 46
8, 12864, Note_on_c, 6, 38, 89
8, 12870, Control_c, 6, 7, 43
8, 12876, Control_c, 6, 7, 40
8, 12882, Control_c, 6, 7, 37
8, 12888, Control_c, 6, 7, 29
8, 12894, Control_c, 6, 7, 22
8, 12900, Control_c, 6, 7, 15
8, 12906, Control_c, 6, 7, 0
8, 12912, Control_c, 6, 7, 0
8, 12927, Note_on_c, 6, 38, 0
8, 12948, Note_on_c, 6, 33, 90
8, 12957, Note_on_c, 6, 33, 0
8, 12960, Note_on_c, 6, 38, 98
8, 13014, Note_on_c, 6, 38, 0
8, 13032, Note_on_c, 6, 38, 94
8, 13041, Note_on_c, 6, 38, 0
8, 13044, Note_on_c, 6, 30, 90
8, 13053, Note_on_c, 6, 30, 0
8, 13053, End_track
9, 0, Start_track
9, 0, Title_t, "undefined"
9, 0, Control_c, 7, 7, 96
9, 0, Pitch_bend_c, 7, 8192
9, 0, Control_c, 7, 1, 0
9, 0, Program_c, 7, 110
9, 0, Control_c, 7, 64, 0
9, 0, Control_c, 7, 10, 64
9, 0, End_track
10, 0, Start_track
10, 0, Title_t, "undefined"
10, 0, Control_c, 8, 7, 96
10, 0, Pitch_bend_c, 8, 8192
10, 0, Control_c, 8, 1, 0
10, 0, Program_c, 8, 122
10, 0, Control_c, 8, 64, 0
10, 0, Control_c, 8, 10, 64
10, 0, End_track
11, 0, Start_track
11, 0, Title_t, "Drums"
11, 0, Control_c, 9, 7, 96
11, 0, Note_on_c, 9, 35, 64
11, 0, Note_on_c, 9, 46, 70
11, 24, Note_on_c, 9, 35, 0
11, 24, Note_on_c, 9, 46, 0
11, 24, Note_on_c, 9, 42, 60
11, 48, Note_on_c, 9, 42, 0
11, 48, Note_on_c, 9, 37, 74
11, 48, Note_on_c, 9, 42, 70
11, 49, Note_on_c, 9, 42, 0
11, 72, Note_on_c, 9, 37, 0
11, 72, Note_on_c, 9, 35, 54
11, 72, Note_on_c, 9, 42, 60
11, 73, Note_on_c, 9, 42, 0
11, 96, Note_on_c, 9, 35, 0
11, 96, Note_on_c, 9, 35, 64
11, 96, Note_on_c, 9, 42, 70
11, 97, Note_on_c, 9, 35, 0
11, 97, Note_on_c, 9, 42, 0
11, 120, Note_on_c, 9, 42, 60
11, 121, Note_on_c, 9, 42, 0
11, 144, Note_on_c, 9, 37, 74
11, 144, Note_on_c, 9, 42, 70
11, 145, Note_on_c, 9, 42, 0
11, 168, Note_on_c, 9, 37, 0
11, 168, Note_on_c, 9, 35, 64
11, 168, Note_on_c, 9, 42, 60
11, 169, Note_on_c, 9, 42, 0
11, 180, Note_on_c, 9, 35, 0
11, 192, Note_on_c, 9, 35, 64
11, 192, Note_on_c, 9, 42, 70
11, 216, Note_on_c, 9, 35, 0
11, 216, Note_on_c, 9, 42, 0
11, 216, Note_on_c, 9, 42, 60
11, 217, Note_on_c, 9, 42, 0
11, 240, Note_on_c, 9, 37, 74
11, 240, Note_on_c, 9, 42, 70
11, 241, Note_on_c, 9, 42, 0
11, 264, Note_on_c, 9, 37, 0
11, 264, Note_on_c, 9, 35, 54
11, 264, Note_on_c, 9, 42, 60
11, 265, Note_on_c, 9, 42, 0
11, 288, Note_on_c, 9, 35, 0
11, 288, Note_on_c, 9, 35, 64
11, 288, Note_on_c, 9, 42, 70
11, 289, Note_on_c, 9, 35, 0
11, 289, Note_on_c, 9, 42, 0
11, 312, Note_on_c, 9, 35, 64
11, 312, Note_on_c, 9, 42, 60
11, 313, Note_on_c, 9, 35, 0
11, 313, Note_on_c, 9, 42, 0
11, 336, Note_on_c, 9, 37, 74
11, 336, Note_on_c, 9, 42, 70
11, 337, Note_on_c, 9, 42, 0
11, 360, Note_on_c, 9, 37, 0
11, 360, Note_on_c, 9, 35, 64
11, 360, Note_on_c, 9, 42, 60
11, 361, Note_on_c, 9, 42, 0
11, 372, Note_on_c, 9, 35, 0
11, 384, Note_on_c, 9, 35, 64
11, 384, Note_on_c, 9, 42, 70
11, 408, Note_on_c, 9, 35, 0
11, 408, Note_on_c, 9, 42, 0
11, 408, Note_on_c, 9, 42, 60
11, 409, Note_on_c, 9, 42, 0
11, 432, Note_on_c, 9, 37, 74
11, 432, Note_on_c, 9, 42, 70
11, 433, Note_on_c, 9, 42, 0
11, 456, Note_on_c, 9, 37, 0
11, 456, Note_on_c, 9, 35, 54
11, 456, Note_on_c, 9, 42, 60
11, 457, Note_on_c, 9, 42, 0
11, 480, Note_on_c, 9, 35, 0
11, 480, Note_on_c, 9, 35, 64
11, 480, Note_on_c, 9, 42, 70
11, 481, Note_on_c, 9, 35, 0
11, 481, Note_on_c, 9, 42, 0
11, 504, Note_on_c, 9, 42, 60
11, 505, Note_on_c, 9, 42, 0
11, 528, Note_on_c, 9, 37, 74
11, 528, Note_on_c, 9, 42, 70
11, 529, Note_on_c, 9, 42, 0
11, 552, Note_on_c, 9, 37, 0
11, 552, Note_on_c, 9, 35, 64
11, 552, Note_on_c, 9, 42, 60
11, 553, Note_on_c, 9, 42, 0
11, 564, Note_on_c, 9, 35, 0
11, 564, Note_on_c, 9, 46, 74
11, 576, Note_on_c, 9, 46, 0
11, 576, Note_on_c, 9, 35, 64
11, 576, Note_on_c, 9, 42, 70
11, 600, Note_on_c, 9, 35, 0
11, 600, Note_on_c, 9, 42, 0
11, 600, Note_on_c, 9, 42, 60
11, 601, Note_on_c, 9, 42, 0
11, 624, Note_on_c, 9, 37, 74
11, 624, Note_on_c, 9, 42, 70
11, 625, Note_on_c, 9, 42, 0
11, 648, Note_on_c, 9, 37, 0
11, 648, Note_on_c, 9, 35, 54
11, 648, Note_on_c, 9, 42, 60
11, 649, Note_on_c, 9, 42, 0
11, 672, Note_on_c, 9, 35, 0
11, 672, Note_on_c, 9, 35, 64
11, 672, Note_on_c, 9, 42, 70
11, 673, Note_on_c, 9, 35, 0
11, 673, Note_on_c, 9, 42, 0
11, 696, Note_on_c, 9, 42, 60
11, 696, Note_on_c, 9, 38, 50
11, 697, Note_on_c, 9, 42, 0
11, 708, Note_on_c, 9, 38, 0
11, 720, Note_on_c, 9, 38, 74
11, 720, Note_on_c, 9, 42, 70
11, 732, Note_on_c, 9, 38, 0
11, 732, Note_on_c, 9, 42, 0
11, 732, Note_on_c, 9, 42, 60
11, 733, Note_on_c, 9, 42, 0
11, 756, Note_on_c, 9, 38, 64
11, 756, Note_on_c, 9, 46, 74
11, 768, Note_on_c, 9, 38, 0
11, 768, Note_on_c, 9, 46, 0
11, 768, Note_on_c, 9, 35, 64
11, 768, Note_on_c, 9, 46, 70
11, 769, Note_on_c, 9, 46, 0
11, 792, Note_on_c, 9, 35, 0
11, 792, Note_on_c, 9, 42, 60
11, 816, Note_on_c, 9, 42, 0
11, 816, Note_on_c, 9, 37, 74
11, 816, Note_on_c, 9, 42, 70
11, 817, Note_on_c, 9, 42, 0
11, 840, Note_on_c, 9, 37, 0
11, 840, Note_on_c, 9, 35, 54
11, 840, Note_on_c, 9, 42, 60
11, 841, Note_on_c, 9, 42, 0
11, 864, Note_on_c, 9, 35, 0
11, 864, Note_on_c, 9, 35, 64
11, 864, Note_on_c, 9, 42, 70
11, 865, Note_on_c, 9, 35, 0
11, 865, Note_on_c, 9, 42, 0
11, 888, Note_on_c, 9, 42, 60
11, 889, Note_on_c, 9, 42, 0
11, 912, Note_on_c, 9, 37, 74
11, 912, Note_on_c, 9, 42, 70
11, 913, Note_on_c, 9, 42, 0
11, 936, Note_on_c, 9, 37, 0
11, 936, Note_on_c, 9, 35, 64
11, 936, Note_on_c, 9, 42, 60
11, 937, Note_on_c, 9, 42, 0
11, 948, Note_on_c, 9, 35, 0
11, 960, Note_on_c, 9, 35, 64
11, 960, Note_on_c, 9, 42, 70
11, 984, Note_on_c, 9, 35, 0
11, 984, Note_on_c, 9, 42, 0
11, 984, Note_on_c, 9, 42, 60
11, 985, Note_on_c, 9, 42, 0
11, 1008, Note_on_c, 9, 37, 74
11, 1008, Note_on_c, 9, 42, 70
11, 1009, Note_on_c, 9, 42, 0
11, 1032, Note_on_c, 9, 37, 0
11, 1032, Note_on_c, 9, 35, 54
11, 1032, Note_on_c, 9, 42, 60
11, 1033, Note_on_c, 9, 42, 0
11, 1056, Note_on_c, 9, 35, 0
11, 1056, Note_on_c, 9, 35, 64
11, 1056, Note_on_c, 9, 42, 70
11, 1057, Note_on_c, 9, 35, 0
11, 1057, Note_on_c, 9, 42, 0
11, 1080, Note_on_c, 9, 35, 64
11, 1080, Note_on_c, 9, 42, 60
11, 1081, Note_on_c, 9, 35, 0
11, 1081, Note_on_c, 9, 42, 0
11, 1104, Note_on_c, 9, 37, 74
11, 1104, Note_on_c, 9, 42, 70
11, 1105, Note_on_c, 9, 42, 0
11, 1128, Note_on_c, 9, 37, 0
11, 1128, Note_on_c, 9, 35, 64
11, 1128, Note_on_c, 9, 42, 60
11, 1129, Note_on_c, 9, 42, 0
11, 1140, Note_on_c, 9, 35, 0
11, 1152, Note_on_c, 9, 35, 64
11, 1152, Note_on_c, 9, 42, 70
11, 1176, Note_on_c, 9, 35, 0
11, 1176, Note_on_c, 9, 42, 0
11, 1176, Note_on_c, 9, 42, 60
11, 1177, Note_on_c, 9, 42, 0
11, 1200, Note_on_c, 9, 37, 74
11, 1200, Note_on_c, 9, 42, 70
11, 1201, Note_on_c, 9, 42, 0
11, 1224, Note_on_c, 9, 37, 0
11, 1224, Note_on_c, 9, 35, 54
11, 1224, Note_on_c, 9, 42, 60
11, 1225, Note_on_c, 9, 42, 0
11, 1248, Note_on_c, 9, 35, 0
11, 1248, Note_on_c, 9, 35, 64
11, 1248, Note_on_c, 9, 42, 70
11, 1249, Note_on_c, 9, 35, 0
11, 1249, Note_on_c, 9, 42, 0
11, 1272, Note_on_c, 9, 42, 60
11, 1273, Note_on_c, 9, 42, 0
11, 1296, Note_on_c, 9, 37, 74
11, 1296, Note_on_c, 9, 42, 70
11, 1297, Note_on_c, 9, 42, 0
11, 1320, Note_on_c, 9, 37, 0
11, 1320, Note_on_c, 9, 35, 64
11, 1320, Note_on_c, 9, 42, 60
11, 1321, Note_on_c, 9, 42, 0
11, 1332, Note_on_c, 9, 35, 0
11, 1332, Note_on_c, 9, 42, 74
11, 1333, Note_on_c, 9, 42, 0
11, 1344, Note_on_c, 9, 35, 64
11, 1344, Note_on_c, 9, 42, 70
11, 1345, Note_on_c, 9, 42, 0
11, 1368, Note_on_c, 9, 35, 0
11, 1368, Note_on_c, 9, 42, 60
11, 1369, Note_on_c, 9, 42, 0
11, 1392, Note_on_c, 9, 37, 74
11, 1392, Note_on_c, 9, 42, 70
11, 1393, Note_on_c, 9, 42, 0
11, 1416, Note_on_c, 9, 37, 0
11, 1416, Note_on_c, 9, 35, 54
11, 1416, Note_on_c, 9, 42, 60
11, 1417, Note_on_c, 9, 42, 0
11, 1440, Note_on_c, 9, 35, 0
11, 1440, Note_on_c, 9, 35, 64
11, 1440, Note_on_c, 9, 42, 70
11, 1441, Note_on_c, 9, 35, 0
11, 1441, Note_on_c, 9, 42, 0
11, 1464, Note_on_c, 9, 35, 64
11, 1464, Note_on_c, 9, 42, 60
11, 1464, Note_on_c, 9, 38, 50
11, 1465, Note_on_c, 9, 35, 0
11, 1465, Note_on_c, 9, 42, 0
11, 1476, Note_on_c, 9, 38, 0
11, 1488, Note_on_c, 9, 38, 74
11, 1488, Note_on_c, 9, 42, 70
11, 1500, Note_on_c, 9, 38, 0
11, 1500, Note_on_c, 9, 42, 0
11, 1500, Note_on_c, 9, 42, 60
11, 1501, Note_on_c, 9, 42, 0
11, 1512, Note_on_c, 9, 38, 84
11, 1524, Note_on_c, 9, 38, 0
11, 1524, Note_on_c, 9, 38, 64
11, 1525, Note_on_c, 9, 38, 0
11, 1536, Note_on_c, 9, 35, 64
11, 1536, Note_on_c, 9, 49, 70
11, 1560, Note_on_c, 9, 35, 0
11, 1560, Note_on_c, 9, 49, 0
11, 1560, Note_on_c, 9, 42, 60
11, 1584, Note_on_c, 9, 42, 0
11, 1584, Note_on_c, 9, 37, 74
11, 1584, Note_on_c, 9, 42, 70
11, 1585, Note_on_c, 9, 42, 0
11, 1608, Note_on_c, 9, 37, 0
11, 1608, Note_on_c, 9, 35, 54
11, 1608, Note_on_c, 9, 42, 60
11, 1609, Note_on_c, 9, 42, 0
11, 1632, Note_on_c, 9, 35, 0
11, 1632, Note_on_c, 9, 35, 64
11, 1632, Note_on_c, 9, 42, 70
11, 1633, Note_on_c, 9, 35, 0
11, 1633, Note_on_c, 9, 42, 0
11, 1656, Note_on_c, 9, 35, 64
11, 1656, Note_on_c, 9, 42, 60
11, 1657, Note_on_c, 9, 35, 0
11, 1657, Note_on_c, 9, 42, 0
11, 1680, Note_on_c, 9, 37, 74
11, 1680, Note_on_c, 9, 42, 70
11, 1681, Note_on_c, 9, 42, 0
11, 1704, Note_on_c, 9, 37, 0
11, 1704, Note_on_c, 9, 35, 64
11, 1704, Note_on_c, 9, 42, 60
11, 1705, Note_on_c, 9, 42, 0
11, 1716, Note_on_c, 9, 35, 0
11, 1728, Note_on_c, 9, 35, 64
11, 1728, Note_on_c, 9, 42, 70
11, 1752, Note_on_c, 9, 35, 0
11, 1752, Note_on_c, 9, 42, 0
11, 1752, Note_on_c, 9, 42, 60
11, 1753, Note_on_c, 9, 42, 0
11, 1776, Note_on_c, 9, 37, 74
11, 1776, Note_on_c, 9, 42, 70
11, 1777, Note_on_c, 9, 42, 0
11, 1800, Note_on_c, 9, 37, 0
11, 1800, Note_on_c, 9, 35, 54
11, 1800, Note_on_c, 9, 42, 60
11, 1801, Note_on_c, 9, 42, 0
11, 1824, Note_on_c, 9, 35, 0
11, 1824, Note_on_c, 9, 35, 64
11, 1824, Note_on_c, 9, 42, 70
11, 1825, Note_on_c, 9, 35, 0
11, 1825, Note_on_c, 9, 42, 0
11, 1848, Note_on_c, 9, 42, 60
11, 1849, Note_on_c, 9, 42, 0
11, 1872, Note_on_c, 9, 37, 74
11, 1872, Note_on_c, 9, 42, 70
11, 1873, Note_on_c, 9, 42, 0
11, 1896, Note_on_c, 9, 37, 0
11, 1896, Note_on_c, 9, 35, 64
11, 1896, Note_on_c, 9, 42, 60
11, 1897, Note_on_c, 9, 42, 0
11, 1908, Note_on_c, 9, 35, 0
11, 1908, Note_on_c, 9, 46, 74
11, 1920, Note_on_c, 9, 46, 0
11, 1920, Note_on_c, 9, 35, 64
11, 1920, Note_on_c, 9, 42, 70
11, 1944, Note_on_c, 9, 35, 0
11, 1944, Note_on_c, 9, 42, 0
11, 1944, Note_on_c, 9, 42, 60
11, 1945, Note_on_c, 9, 42, 0
11, 1968, Note_on_c, 9, 37, 74
11, 1968, Note_on_c, 9, 42, 70
11, 1969, Note_on_c, 9, 42, 0
11, 1992, Note_on_c, 9, 37, 0
11, 1992, Note_on_c, 9, 35, 54
11, 1992, Note_on_c, 9, 42, 60
11, 1993, Note_on_c, 9, 42, 0
11, 2016, Note_on_c, 9, 35, 0
11, 2016, Note_on_c, 9, 35, 64
11, 2016, Note_on_c, 9, 42, 70
11, 2017, Note_on_c, 9, 35, 0
11, 2017, Note_on_c, 9, 42, 0
11, 2040, Note_on_c, 9, 42, 60
11, 2041, Note_on_c, 9, 42, 0
11, 2064, Note_on_c, 9, 37, 74
11, 2064, Note_on_c, 9, 42, 70
11, 2065, Note_on_c, 9, 42, 0
11, 2088, Note_on_c, 9, 37, 0
11, 2088, Note_on_c, 9, 35, 64
11, 2088, Note_on_c, 9, 42, 60
11, 2089, Note_on_c, 9, 42, 0
11, 2100, Note_on_c, 9, 35, 0
11, 2100, Note_on_c, 9, 46, 74
11, 2112, Note_on_c, 9, 46, 0
11, 2112, Note_on_c, 9, 35, 64
11, 2112, Note_on_c, 9, 42, 70
11, 2136, Note_on_c, 9, 35, 0
11, 2136, Note_on_c, 9, 42, 0
11, 2136, Note_on_c, 9, 42, 60
11, 2137, Note_on_c, 9, 42, 0
11, 2160, Note_on_c, 9, 37, 74
11, 2160, Note_on_c, 9, 42, 70
11, 2161, Note_on_c, 9, 42, 0
11, 2184, Note_on_c, 9, 37, 0
11, 2184, Note_on_c, 9, 35, 54
11, 2184, Note_on_c, 9, 42, 60
11, 2185, Note_on_c, 9, 42, 0
11, 2208, Note_on_c, 9, 35, 0
11, 2208, Note_on_c, 9, 35, 64
11, 2208, Note_on_c, 9, 42, 70
11, 2209, Note_on_c, 9, 35, 0
11, 2209, Note_on_c, 9, 42, 0
11, 2232, Note_on_c, 9, 42, 60
11, 2232, Note_on_c, 9, 38, 50
11, 2233, Note_on_c, 9, 42, 0
11, 2244, Note_on_c, 9, 38, 0
11, 2244, Note_on_c, 9, 38, 50
11, 2245, Note_on_c, 9, 38, 0
11, 2256, Note_on_c, 9, 38, 74
11, 2256, Note_on_c, 9, 42, 70
11, 2257, Note_on_c, 9, 38, 0
11, 2268, Note_on_c, 9, 42, 0
11, 2268, Note_on_c, 9, 42, 60
11, 2269, Note_on_c, 9, 42, 0
11, 2280, Note_on_c, 9, 38, 74
11, 2280, Note_on_c, 9, 42, 74
11, 2281, Note_on_c, 9, 42, 0
11, 2292, Note_on_c, 9, 38, 0
11, 2292, Note_on_c, 9, 38, 64
11, 2293, Note_on_c, 9, 38, 0
11, 2304, Note_on_c, 9, 35, 64
11, 2304, Note_on_c, 9, 49, 80
11, 2328, Note_on_c, 9, 35, 0
11, 2328, Note_on_c, 9, 49, 0
11, 2328, Note_on_c, 9, 42, 70
11, 2340, Note_on_c, 9, 42, 0
11, 2340, Note_on_c, 9, 42, 30
11, 2341, Note_on_c, 9, 42, 0
11, 2352, Note_on_c, 9, 38, 74
11, 2352, Note_on_c, 9, 42, 80
11, 2353, Note_on_c, 9, 42, 0
11, 2376, Note_on_c, 9, 38, 0
11, 2376, Note_on_c, 9, 42, 70
11, 2377, Note_on_c, 9, 42, 0
11, 2388, Note_on_c, 9, 35, 64
11, 2388, Note_on_c, 9, 42, 64
11, 2389, Note_on_c, 9, 42, 0
11, 2400, Note_on_c, 9, 35, 0
11, 2400, Note_on_c, 9, 35, 64
11, 2400, Note_on_c, 9, 42, 80
11, 2401, Note_on_c, 9, 35, 0
11, 2401, Note_on_c, 9, 42, 0
11, 2424, Note_on_c, 9, 42, 63
11, 2425, Note_on_c, 9, 42, 0
11, 2436, Note_on_c, 9, 42, 20
11, 2437, Note_on_c, 9, 42, 0
11, 2448, Note_on_c, 9, 38, 64
11, 2448, Note_on_c, 9, 42, 90
11, 2449, Note_on_c, 9, 42, 0
11, 2460, Note_on_c, 9, 38, 0
11, 2472, Note_on_c, 9, 35, 64
11, 2472, Note_on_c, 9, 42, 54
11, 2484, Note_on_c, 9, 35, 0
11, 2484, Note_on_c, 9, 42, 0
11, 2484, Note_on_c, 9, 42, 64
11, 2485, Note_on_c, 9, 42, 0
11, 2496, Note_on_c, 9, 35, 64
11, 2496, Note_on_c, 9, 42, 80
11, 2497, Note_on_c, 9, 42, 0
11, 2520, Note_on_c, 9, 35, 0
11, 2520, Note_on_c, 9, 42, 70
11, 2521, Note_on_c, 9, 42, 0
11, 2532, Note_on_c, 9, 42, 30
11, 2533, Note_on_c, 9, 42, 0
11, 2544, Note_on_c, 9, 38, 74
11, 2544, Note_on_c, 9, 42, 80
11, 2545, Note_on_c, 9, 42, 0
11, 2568, Note_on_c, 9, 38, 0
11, 2568, Note_on_c, 9, 42, 70
11, 2569, Note_on_c, 9, 42, 0
11, 2580, Note_on_c, 9, 35, 64
11, 2580, Note_on_c, 9, 42, 20
11, 2581, Note_on_c, 9, 42, 0
11, 2592, Note_on_c, 9, 35, 0
11, 2592, Note_on_c, 9, 35, 64
11, 2592, Note_on_c, 9, 42, 80
11, 2593, Note_on_c, 9, 35, 0
11, 2593, Note_on_c, 9, 42, 0
11, 2616, Note_on_c, 9, 35, 64
11, 2616, Note_on_c, 9, 42, 63
11, 2617, Note_on_c, 9, 35, 0
11, 2617, Note_on_c, 9, 42, 0
11, 2628, Note_on_c, 9, 42, 64
11, 2629, Note_on_c, 9, 42, 0
11, 2640, Note_on_c, 9, 38, 64
11, 2640, Note_on_c, 9, 42, 90
11, 2641, Note_on_c, 9, 42, 0
11, 2652, Note_on_c, 9, 38, 0
11, 2664, Note_on_c, 9, 35, 64
11, 2664, Note_on_c, 9, 42, 54
11, 2676, Note_on_c, 9, 35, 0
11, 2676, Note_on_c, 9, 42, 0
11, 2676, Note_on_c, 9, 46, 64
11, 2688, Note_on_c, 9, 46, 0
11, 2688, Note_on_c, 9, 35, 64
11, 2688, Note_on_c, 9, 42, 80
11, 2712, Note_on_c, 9, 35, 0
11, 2712, Note_on_c, 9, 42, 0
11, 2712, Note_on_c, 9, 42, 70
11, 2713, Note_on_c, 9, 42, 0
11, 2724, Note_on_c, 9, 42, 70
11, 2725, Note_on_c, 9, 42, 0
11, 2736, Note_on_c, 9, 38, 74
11, 2736, Note_on_c, 9, 42, 80
11, 2737, Note_on_c, 9, 42, 0
11, 2760, Note_on_c, 9, 38, 0
11, 2760, Note_on_c, 9, 42, 70
11, 2761, Note_on_c, 9, 42, 0
11, 2772, Note_on_c, 9, 35, 64
11, 2772, Note_on_c, 9, 42, 20
11, 2773, Note_on_c, 9, 42, 0
11, 2784, Note_on_c, 9, 35, 0
11, 2784, Note_on_c, 9, 35, 64
11, 2784, Note_on_c, 9, 42, 80
11, 2785, Note_on_c, 9, 35, 0
11, 2785, Note_on_c, 9, 42, 0
11, 2808, Note_on_c, 9, 42, 63
11, 2809, Note_on_c, 9, 42, 0
11, 2820, Note_on_c, 9, 42, 64
11, 2821, Note_on_c, 9, 42, 0
11, 2832, Note_on_c, 9, 38, 64
11, 2832, Note_on_c, 9, 42, 90
11, 2833, Note_on_c, 9, 42, 0
11, 2844, Note_on_c, 9, 38, 0
11, 2856, Note_on_c, 9, 35, 64
11, 2856, Note_on_c, 9, 42, 54
11, 2868, Note_on_c, 9, 35, 0
11, 2868, Note_on_c, 9, 42, 0
11, 2868, Note_on_c, 9, 42, 64
11, 2869, Note_on_c, 9, 42, 0
11, 2880, Note_on_c, 9, 35, 64
11, 2880, Note_on_c, 9, 42, 80
11, 2881, Note_on_c, 9, 42, 0
11, 2904, Note_on_c, 9, 35, 0
11, 2904, Note_on_c, 9, 42, 70
11, 2905, Note_on_c, 9, 42, 0
11, 2916, Note_on_c, 9, 42, 70
11, 2917, Note_on_c, 9, 42, 0
11, 2928, Note_on_c, 9, 38, 74
11, 2928, Note_on_c, 9, 42, 80
11, 2929, Note_on_c, 9, 42, 0
11, 2952, Note_on_c, 9, 38, 0
11, 2952, Note_on_c, 9, 42, 70
11, 2953, Note_on_c, 9, 42, 0
11, 2964, Note_on_c, 9, 35, 64
11, 2964, Note_on_c, 9, 42, 20
11, 2965, Note_on_c, 9, 42, 0
11, 2976, Note_on_c, 9, 35, 0
11, 2976, Note_on_c, 9, 35, 64
11, 2976, Note_on_c, 9, 42, 80
11, 2977, Note_on_c, 9, 35, 0
11, 2977, Note_on_c, 9, 42, 0
11, 3000, Note_on_c, 9, 35, 64
11, 3000, Note_on_c, 9, 42, 63
11, 3001, Note_on_c, 9, 35, 0
11, 3001, Note_on_c, 9, 42, 0
11, 3012, Note_on_c, 9, 42, 64
11, 3013, Note_on_c, 9, 42, 0
11, 3024, Note_on_c, 9, 38, 64
11, 3024, Note_on_c, 9, 42, 90
11, 3025, Note_on_c, 9, 42, 0
11, 3036, Note_on_c, 9, 38, 0
11, 3036, Note_on_c, 9, 42, 34
11, 3037, Note_on_c, 9, 42, 0
11, 3048, Note_on_c, 9, 35, 64
11, 3048, Note_on_c, 9, 42, 54
11, 3049, Note_on_c, 9, 42, 0
11, 3060, Note_on_c, 9, 35, 0
11, 3060, Note_on_c, 9, 46, 64
11, 3072, Note_on_c, 9, 46, 0
11, 3072, Note_on_c, 9, 35, 64
11, 3072, Note_on_c, 9, 42, 80
11, 3096, Note_on_c, 9, 35, 0
11, 3096, Note_on_c, 9, 42, 0
11, 3096, Note_on_c, 9, 42, 70
11, 3097, Note_on_c, 9, 42, 0
11, 3108, Note_on_c, 9, 42, 70
11, 3109, Note_on_c, 9, 42, 0
11, 3120, Note_on_c, 9, 38, 74
11, 3120, Note_on_c, 9, 42, 80
11, 3121, Note_on_c, 9, 42, 0
11, 3144, Note_on_c, 9, 38, 0
11, 3144, Note_on_c, 9, 42, 70
11, 3145, Note_on_c, 9, 42, 0
11, 3156, Note_on_c, 9, 35, 64
11, 3156, Note_on_c, 9, 42, 20
11, 3157, Note_on_c, 9, 42, 0
11, 3168, Note_on_c, 9, 35, 0
11, 3168, Note_on_c, 9, 35, 64
11, 3168, Note_on_c, 9, 42, 80
11, 3169, Note_on_c, 9, 35, 0
11, 3169, Note_on_c, 9, 42, 0
11, 3192, Note_on_c, 9, 42, 63
11, 3193, Note_on_c, 9, 42, 0
11, 3204, Note_on_c, 9, 42, 64
11, 3205, Note_on_c, 9, 42, 0
11, 3216, Note_on_c, 9, 38, 64
11, 3216, Note_on_c, 9, 42, 90
11, 3217, Note_on_c, 9, 42, 0
11, 3228, Note_on_c, 9, 38, 0
11, 3240, Note_on_c, 9, 35, 64
11, 3240, Note_on_c, 9, 42, 54
11, 3252, Note_on_c, 9, 35, 0
11, 3252, Note_on_c, 9, 42, 0
11, 3252, Note_on_c, 9, 42, 64
11, 3253, Note_on_c, 9, 42, 0
11, 3264, Note_on_c, 9, 35, 64
11, 3264, Note_on_c, 9, 42, 80
11, 3265, Note_on_c, 9, 42, 0
11, 3288, Note_on_c, 9, 35, 0
11, 3288, Note_on_c, 9, 42, 70
11, 3289, Note_on_c, 9, 42, 0
11, 3300, Note_on_c, 9, 42, 70
11, 3301, Note_on_c, 9, 42, 0
11, 3312, Note_on_c, 9, 38, 74
11, 3312, Note_on_c, 9, 42, 80
11, 3313, Note_on_c, 9, 42, 0
11, 3336, Note_on_c, 9, 38, 0
11, 3336, Note_on_c, 9, 42, 70
11, 3337, Note_on_c, 9, 42, 0
11, 3348, Note_on_c, 9, 35, 64
11, 3348, Note_on_c, 9, 42, 20
11, 3349, Note_on_c, 9, 42, 0
11, 3360, Note_on_c, 9, 35, 0
11, 3360, Note_on_c, 9, 35, 64
11, 3360, Note_on_c, 9, 42, 80
11, 3361, Note_on_c, 9, 35, 0
11, 3361, Note_on_c, 9, 42, 0
11, 3384, Note_on_c, 9, 35, 64
11, 3384, Note_on_c, 9, 42, 63
11, 3385, Note_on_c, 9, 35, 0
11, 3385, Note_on_c, 9, 42, 0
11, 3396, Note_on_c, 9, 42, 64
11, 3397, Note_on_c, 9, 42, 0
11, 3408, Note_on_c, 9, 38, 64
11, 3408, Note_on_c, 9, 42, 90
11, 3409, Note_on_c, 9, 42, 0
11, 3420, Note_on_c, 9, 38, 0
11, 3420, Note_on_c, 9, 42, 34
11, 3421, Note_on_c, 9, 42, 0
11, 3432, Note_on_c, 9, 35, 64
11, 3432, Note_on_c, 9, 42, 54
11, 3433, Note_on_c, 9, 42, 0
11, 3444, Note_on_c, 9, 35, 0
11, 3444, Note_on_c, 9, 46, 64
11, 3456, Note_on_c, 9, 46, 0
11, 3456, Note_on_c, 9, 35, 64
11, 3456, Note_on_c, 9, 42, 80
11, 3480, Note_on_c, 9, 35, 0
11, 3480, Note_on_c, 9, 42, 0
11, 3480, Note_on_c, 9, 42, 70
11, 3481, Note_on_c, 9, 42, 0
11, 3492, Note_on_c, 9, 42, 30
11, 3493, Note_on_c, 9, 42, 0
11, 3504, Note_on_c, 9, 38, 74
11, 3504, Note_on_c, 9, 42, 80
11, 3505, Note_on_c, 9, 42, 0
11, 3528, Note_on_c, 9, 38, 0
11, 3528, Note_on_c, 9, 42, 70
11, 3529, Note_on_c, 9, 42, 0
11, 3540, Note_on_c, 9, 35, 64
11, 3540, Note_on_c, 9, 42, 64
11, 3541, Note_on_c, 9, 42, 0
11, 3552, Note_on_c, 9, 35, 0
11, 3552, Note_on_c, 9, 35, 64
11, 3552, Note_on_c, 9, 42, 80
11, 3553, Note_on_c, 9, 35, 0
11, 3553, Note_on_c, 9, 42, 0
11, 3576, Note_on_c, 9, 42, 63
11, 3577, Note_on_c, 9, 42, 0
11, 3588, Note_on_c, 9, 42, 64
11, 3589, Note_on_c, 9, 42, 0
11, 3600, Note_on_c, 9, 38, 64
11, 3600, Note_on_c, 9, 42, 90
11, 3601, Note_on_c, 9, 42, 0
11, 3612, Note_on_c, 9, 38, 0
11, 3624, Note_on_c, 9, 35, 64
11, 3624, Note_on_c, 9, 42, 54
11, 3636, Note_on_c, 9, 35, 0
11, 3636, Note_on_c, 9, 42, 0
11, 3636, Note_on_c, 9, 46, 64
11, 3648, Note_on_c, 9, 46, 0
11, 3648, Note_on_c, 9, 35, 64
11, 3648, Note_on_c, 9, 42, 70
11, 3672, Note_on_c, 9, 35, 0
11, 3672, Note_on_c, 9, 42, 0
11, 3672, Note_on_c, 9, 42, 60
11, 3673, Note_on_c, 9, 42, 0
11, 3696, Note_on_c, 9, 38, 74
11, 3696, Note_on_c, 9, 42, 70
11, 3697, Note_on_c, 9, 42, 0
11, 3720, Note_on_c, 9, 38, 0
11, 3720, Note_on_c, 9, 35, 54
11, 3720, Note_on_c, 9, 42, 60
11, 3721, Note_on_c, 9, 42, 0
11, 3744, Note_on_c, 9, 35, 0
11, 3744, Note_on_c, 9, 35, 64
11, 3744, Note_on_c, 9, 42, 70
11, 3745, Note_on_c, 9, 35, 0
11, 3745, Note_on_c, 9, 42, 0
11, 3768, Note_on_c, 9, 35, 64
11, 3768, Note_on_c, 9, 42, 60
11, 3768, Note_on_c, 9, 38, 50
11, 3769, Note_on_c, 9, 35, 0
11, 3769, Note_on_c, 9, 42, 0
11, 3780, Note_on_c, 9, 38, 0
11, 3792, Note_on_c, 9, 38, 74
11, 3792, Note_on_c, 9, 42, 70
11, 3804, Note_on_c, 9, 38, 0
11, 3804, Note_on_c, 9, 42, 0
11, 3804, Note_on_c, 9, 42, 60
11, 3805, Note_on_c, 9, 42, 0
11, 3816, Note_on_c, 9, 38, 84
11, 3828, Note_on_c, 9, 38, 0
11, 3840, Note_on_c, 9, 35, 64
11, 3840, Note_on_c, 9, 46, 70
11, 3864, Note_on_c, 9, 35, 0
11, 3864, Note_on_c, 9, 46, 0
11, 3864, Note_on_c, 9, 42, 60
11, 3888, Note_on_c, 9, 42, 0
11, 3888, Note_on_c, 9, 37, 74
11, 3888, Note_on_c, 9, 42, 70
11, 3889, Note_on_c, 9, 42, 0
11, 3912, Note_on_c, 9, 37, 0
11, 3912, Note_on_c, 9, 35, 54
11, 3912, Note_on_c, 9, 42, 60
11, 3913, Note_on_c, 9, 42, 0
11, 3936, Note_on_c, 9, 35, 0
11, 3936, Note_on_c, 9, 35, 64
11, 3936, Note_on_c, 9, 42, 70
11, 3937, Note_on_c, 9, 35, 0
11, 3937, Note_on_c, 9, 42, 0
11, 3960, Note_on_c, 9, 42, 60
11, 3961, Note_on_c, 9, 42, 0
11, 3984, Note_on_c, 9, 37, 74
11, 3984, Note_on_c, 9, 42, 70
11, 3985, Note_on_c, 9, 42, 0
11, 4008, Note_on_c, 9, 37, 0
11, 4008, Note_on_c, 9, 35, 64
11, 4008, Note_on_c, 9, 42, 60
11, 4009, Note_on_c, 9, 42, 0
11, 4020, Note_on_c, 9, 35, 0
11, 4032, Note_on_c, 9, 35, 64
11, 4032, Note_on_c, 9, 42, 70
11, 4056, Note_on_c, 9, 35, 0
11, 4056, Note_on_c, 9, 42, 0
11, 4056, Note_on_c, 9, 42, 60
11, 4057, Note_on_c, 9, 42, 0
11, 4080, Note_on_c, 9, 37, 74
11, 4080, Note_on_c, 9, 42, 70
11, 4081, Note_on_c, 9, 42, 0
11, 4104, Note_on_c, 9, 37, 0
11, 4104, Note_on_c, 9, 35, 54
11, 4104, Note_on_c, 9, 42, 60
11, 4105, Note_on_c, 9, 42, 0
11, 4128, Note_on_c, 9, 35, 0
11, 4128, Note_on_c, 9, 35, 64
11, 4128, Note_on_c, 9, 42, 70
11, 4129, Note_on_c, 9, 35, 0
11, 4129, Note_on_c, 9, 42, 0
11, 4152, Note_on_c, 9, 35, 64
11, 4152, Note_on_c, 9, 42, 60
11, 4153, Note_on_c, 9, 35, 0
11, 4153, Note_on_c, 9, 42, 0
11, 4176, Note_on_c, 9, 37, 74
11, 4176, Note_on_c, 9, 42, 70
11, 4177, Note_on_c, 9, 42, 0
11, 4200, Note_on_c, 9, 37, 0
11, 4200, Note_on_c, 9, 35, 64
11, 4200, Note_on_c, 9, 42, 60
11, 4201, Note_on_c, 9, 42, 0
11, 4212, Note_on_c, 9, 35, 0
11, 4212, Note_on_c, 9, 42, 74
11, 4213, Note_on_c, 9, 42, 0
11, 4224, Note_on_c, 9, 35, 64
11, 4224, Note_on_c, 9, 42, 70
11, 4225, Note_on_c, 9, 42, 0
11, 4248, Note_on_c, 9, 35, 0
11, 4248, Note_on_c, 9, 42, 60
11, 4249, Note_on_c, 9, 42, 0
11, 4272, Note_on_c, 9, 37, 74
11, 4272, Note_on_c, 9, 42, 70
11, 4273, Note_on_c, 9, 42, 0
11, 4296, Note_on_c, 9, 37, 0
11, 4296, Note_on_c, 9, 35, 54
11, 4296, Note_on_c, 9, 42, 60
11, 4297, Note_on_c, 9, 42, 0
11, 4320, Note_on_c, 9, 35, 0
11, 4320, Note_on_c, 9, 35, 64
11, 4320, Note_on_c, 9, 42, 70
11, 4321, Note_on_c, 9, 35, 0
11, 4321, Note_on_c, 9, 42, 0
11, 4344, Note_on_c, 9, 42, 60
11, 4345, Note_on_c, 9, 42, 0
11, 4368, Note_on_c, 9, 37, 74
11, 4368, Note_on_c, 9, 42, 70
11, 4369, Note_on_c, 9, 42, 0
11, 4392, Note_on_c, 9, 37, 0
11, 4392, Note_on_c, 9, 35, 64
11, 4392, Note_on_c, 9, 42, 60
11, 4393, Note_on_c, 9, 42, 0
11, 4404, Note_on_c, 9, 35, 0
11, 4404, Note_on_c, 9, 42, 74
11, 4405, Note_on_c, 9, 42, 0
11, 4416, Note_on_c, 9, 35, 64
11, 4416, Note_on_c, 9, 42, 70
11, 4417, Note_on_c, 9, 42, 0
11, 4440, Note_on_c, 9, 35, 0
11, 4440, Note_on_c, 9, 42, 60
11, 4441, Note_on_c, 9, 42, 0
11, 4464, Note_on_c, 9, 37, 74
11, 4464, Note_on_c, 9, 42, 70
11, 4465, Note_on_c, 9, 42, 0
11, 4488, Note_on_c, 9, 37, 0
11, 4488, Note_on_c, 9, 35, 54
11, 4488, Note_on_c, 9, 42, 60
11, 4489, Note_on_c, 9, 42, 0
11, 4512, Note_on_c, 9, 35, 0
11, 4512, Note_on_c, 9, 35, 64
11, 4512, Note_on_c, 9, 42, 70
11, 4513, Note_on_c, 9, 35, 0
11, 4513, Note_on_c, 9, 42, 0
11, 4536, Note_on_c, 9, 42, 60
11, 4536, Note_on_c, 9, 38, 50
11, 4537, Note_on_c, 9, 42, 0
11, 4548, Note_on_c, 9, 38, 0
11, 4548, Note_on_c, 9, 38, 50
11, 4549, Note_on_c, 9, 38, 0
11, 4560, Note_on_c, 9, 38, 74
11, 4560, Note_on_c, 9, 42, 70
11, 4561, Note_on_c, 9, 38, 0
11, 4572, Note_on_c, 9, 42, 0
11, 4572, Note_on_c, 9, 42, 60
11, 4573, Note_on_c, 9, 42, 0
11, 4596, Note_on_c, 9, 42, 74
11, 4608, Note_on_c, 9, 42, 0
11, 4608, Note_on_c, 9, 35, 64
11, 4608, Note_on_c, 9, 46, 70
11, 4632, Note_on_c, 9, 35, 0
11, 4632, Note_on_c, 9, 46, 0
11, 4632, Note_on_c, 9, 42, 60
11, 4656, Note_on_c, 9, 42, 0
11, 4656, Note_on_c, 9, 37, 74
11, 4656, Note_on_c, 9, 42, 70
11, 4657, Note_on_c, 9, 42, 0
11, 4680, Note_on_c, 9, 37, 0
11, 4680, Note_on_c, 9, 35, 54
11, 4680, Note_on_c, 9, 42, 60
11, 4681, Note_on_c, 9, 42, 0
11, 4704, Note_on_c, 9, 35, 0
11, 4704, Note_on_c, 9, 35, 64
11, 4704, Note_on_c, 9, 42, 70
11, 4705, Note_on_c, 9, 35, 0
11, 4705, Note_on_c, 9, 42, 0
11, 4728, Note_on_c, 9, 42, 60
11, 4729, Note_on_c, 9, 42, 0
11, 4752, Note_on_c, 9, 37, 74
11, 4752, Note_on_c, 9, 42, 70
11, 4753, Note_on_c, 9, 42, 0
11, 4776, Note_on_c, 9, 37, 0
11, 4776, Note_on_c, 9, 35, 64
11, 4776, Note_on_c, 9, 42, 60
11, 4777, Note_on_c, 9, 42, 0
11, 4788, Note_on_c, 9, 35, 0
11, 4800, Note_on_c, 9, 35, 64
11, 4800, Note_on_c, 9, 42, 70
11, 4824, Note_on_c, 9, 35, 0
11, 4824, Note_on_c, 9, 42, 0
11, 4824, Note_on_c, 9, 42, 60
11, 4825, Note_on_c, 9, 42, 0
11, 4848, Note_on_c, 9, 37, 74
11, 4848, Note_on_c, 9, 42, 70
11, 4849, Note_on_c, 9, 42, 0
11, 4872, Note_on_c, 9, 37, 0
11, 4872, Note_on_c, 9, 35, 54
11, 4872, Note_on_c, 9, 42, 60
11, 4873, Note_on_c, 9, 42, 0
11, 4896, Note_on_c, 9, 35, 0
11, 4896, Note_on_c, 9, 35, 64
11, 4896, Note_on_c, 9, 42, 70
11, 4897, Note_on_c, 9, 35, 0
11, 4897, Note_on_c, 9, 42, 0
11, 4920, Note_on_c, 9, 42, 60
11, 4921, Note_on_c, 9, 42, 0
11, 4944, Note_on_c, 9, 37, 74
11, 4944, Note_on_c, 9, 42, 70
11, 4945, Note_on_c, 9, 42, 0
11, 4968, Note_on_c, 9, 37, 0
11, 4968, Note_on_c, 9, 35, 64
11, 4968, Note_on_c, 9, 42, 60
11, 4969, Note_on_c, 9, 42, 0
11, 4980, Note_on_c, 9, 35, 0
11, 4992, Note_on_c, 9, 35, 64
11, 4992, Note_on_c, 9, 42, 70
11, 5016, Note_on_c, 9, 35, 0
11, 5016, Note_on_c, 9, 42, 0
11, 5016, Note_on_c, 9, 42, 60
11, 5017, Note_on_c, 9, 42, 0
11, 5040, Note_on_c, 9, 37, 74
11, 5040, Note_on_c, 9, 42, 70
11, 5041, Note_on_c, 9, 42, 0
11, 5064, Note_on_c, 9, 37, 0
11, 5064, Note_on_c, 9, 35, 54
11, 5064, Note_on_c, 9, 42, 60
11, 5065, Note_on_c, 9, 42, 0
11, 5088, Note_on_c, 9, 35, 0
11, 5088, Note_on_c, 9, 35, 64
11, 5088, Note_on_c, 9, 42, 70
11, 5089, Note_on_c, 9, 35, 0
11, 5089, Note_on_c, 9, 42, 0
11, 5112, Note_on_c, 9, 42, 60
11, 5113, Note_on_c, 9, 42, 0
11, 5136, Note_on_c, 9, 37, 74
11, 5136, Note_on_c, 9, 42, 70
11, 5137, Note_on_c, 9, 42, 0
11, 5160, Note_on_c, 9, 37, 0
11, 5160, Note_on_c, 9, 35, 64
11, 5160, Note_on_c, 9, 42, 60
11, 5161, Note_on_c, 9, 42, 0
11, 5172, Note_on_c, 9, 35, 0
11, 5184, Note_on_c, 9, 35, 64
11, 5184, Note_on_c, 9, 42, 70
11, 5208, Note_on_c, 9, 35, 0
11, 5208, Note_on_c, 9, 42, 0
11, 5208, Note_on_c, 9, 42, 60
11, 5209, Note_on_c, 9, 42, 0
11, 5232, Note_on_c, 9, 37, 74
11, 5232, Note_on_c, 9, 42, 70
11, 5233, Note_on_c, 9, 42, 0
11, 5256, Note_on_c, 9, 37, 0
11, 5256, Note_on_c, 9, 35, 54
11, 5256, Note_on_c, 9, 42, 60
11, 5257, Note_on_c, 9, 42, 0
11, 5280, Note_on_c, 9, 35, 0
11, 5280, Note_on_c, 9, 35, 64
11, 5280, Note_on_c, 9, 42, 70
11, 5281, Note_on_c, 9, 35, 0
11, 5281, Note_on_c, 9, 42, 0
11, 5304, Note_on_c, 9, 42, 60
11, 5305, Note_on_c, 9, 42, 0
11, 5316, Note_on_c, 9, 38, 50
11, 5328, Note_on_c, 9, 38, 0
11, 5328, Note_on_c, 9, 38, 74
11, 5328, Note_on_c, 9, 42, 70
11, 5329, Note_on_c, 9, 38, 0
11, 5340, Note_on_c, 9, 42, 0
11, 5340, Note_on_c, 9, 42, 60
11, 5341, Note_on_c, 9, 42, 0
11, 5364, Note_on_c, 9, 38, 64
11, 5364, Note_on_c, 9, 42, 74
11, 5376, Note_on_c, 9, 38, 0
11, 5376, Note_on_c, 9, 42, 0
11, 5376, Note_on_c, 9, 35, 64
11, 5376, Note_on_c, 9, 49, 80
11, 5400, Note_on_c, 9, 35, 0
11, 5400, Note_on_c, 9, 49, 0
11, 5400, Note_on_c, 9, 42, 70
11, 5412, Note_on_c, 9, 42, 0
11, 5412, Note_on_c, 9, 42, 30
11, 5413, Note_on_c, 9, 42, 0
11, 5424, Note_on_c, 9, 38, 74
11, 5424, Note_on_c, 9, 42, 80
11, 5425, Note_on_c, 9, 42, 0
11, 5448, Note_on_c, 9, 38, 0
11, 5448, Note_on_c, 9, 42, 70
11, 5449, Note_on_c, 9, 42, 0
11, 5460, Note_on_c, 9, 35, 64
11, 5460, Note_on_c, 9, 42, 20
11, 5461, Note_on_c, 9, 42, 0
11, 5472, Note_on_c, 9, 35, 0
11, 5472, Note_on_c, 9, 35, 64
11, 5472, Note_on_c, 9, 42, 80
11, 5473, Note_on_c, 9, 35, 0
11, 5473, Note_on_c, 9, 42, 0
11, 5496, Note_on_c, 9, 42, 63
11, 5497, Note_on_c, 9, 42, 0
11, 5508, Note_on_c, 9, 42, 64
11, 5509, Note_on_c, 9, 42, 0
11, 5520, Note_on_c, 9, 38, 64
11, 5520, Note_on_c, 9, 42, 90
11, 5521, Note_on_c, 9, 42, 0
11, 5532, Note_on_c, 9, 38, 0
11, 5544, Note_on_c, 9, 35, 64
11, 5544, Note_on_c, 9, 42, 54
11, 5556, Note_on_c, 9, 35, 0
11, 5556, Note_on_c, 9, 42, 0
11, 5556, Note_on_c, 9, 42, 64
11, 5557, Note_on_c, 9, 42, 0
11, 5568, Note_on_c, 9, 35, 64
11, 5568, Note_on_c, 9, 42, 80
11, 5569, Note_on_c, 9, 42, 0
11, 5592, Note_on_c, 9, 35, 0
11, 5592, Note_on_c, 9, 42, 70
11, 5593, Note_on_c, 9, 42, 0
11, 5604, Note_on_c, 9, 42, 30
11, 5605, Note_on_c, 9, 42, 0
11, 5616, Note_on_c, 9, 38, 74
11, 5616, Note_on_c, 9, 42, 80
11, 5617, Note_on_c, 9, 42, 0
11, 5640, Note_on_c, 9, 38, 0
11, 5640, Note_on_c, 9, 42, 70
11, 5641, Note_on_c, 9, 42, 0
11, 5652, Note_on_c, 9, 35, 64
11, 5652, Note_on_c, 9, 42, 20
11, 5653, Note_on_c, 9, 42, 0
11, 5664, Note_on_c, 9, 35, 0
11, 5664, Note_on_c, 9, 35, 64
11, 5664, Note_on_c, 9, 42, 80
11, 5665, Note_on_c, 9, 35, 0
11, 5665, Note_on_c, 9, 42, 0
11, 5688, Note_on_c, 9, 35, 64
11, 5688, Note_on_c, 9, 42, 63
11, 5689, Note_on_c, 9, 35, 0
11, 5689, Note_on_c, 9, 42, 0
11, 5700, Note_on_c, 9, 42, 64
11, 5701, Note_on_c, 9, 42, 0
11, 5712, Note_on_c, 9, 38, 64
11, 5712, Note_on_c, 9, 42, 90
11, 5713, Note_on_c, 9, 42, 0
11, 5724, Note_on_c, 9, 38, 0
11, 5724, Note_on_c, 9, 42, 34
11, 5725, Note_on_c, 9, 42, 0
11, 5736, Note_on_c, 9, 35, 64
11, 5736, Note_on_c, 9, 42, 54
11, 5737, Note_on_c, 9, 42, 0
11, 5748, Note_on_c, 9, 35, 0
11, 5748, Note_on_c, 9, 42, 64
11, 5749, Note_on_c, 9, 42, 0
11, 5760, Note_on_c, 9, 35, 64
11, 5760, Note_on_c, 9, 42, 80
11, 5761, Note_on_c, 9, 42, 0
11, 5784, Note_on_c, 9, 35, 0
11, 5784, Note_on_c, 9, 42, 70
11, 5785, Note_on_c, 9, 42, 0
11, 5796, Note_on_c, 9, 42, 30
11, 5797, Note_on_c, 9, 42, 0
11, 5808, Note_on_c, 9, 38, 74
11, 5808, Note_on_c, 9, 42, 80
11, 5809, Note_on_c, 9, 42, 0
11, 5832, Note_on_c, 9, 38, 0
11, 5832, Note_on_c, 9, 42, 70
11, 5833, Note_on_c, 9, 42, 0
11, 5844, Note_on_c, 9, 35, 64
11, 5844, Note_on_c, 9, 42, 64
11, 5845, Note_on_c, 9, 42, 0
11, 5856, Note_on_c, 9, 35, 0
11, 5856, Note_on_c, 9, 35, 64
11, 5856, Note_on_c, 9, 42, 80
11, 5857, Note_on_c, 9, 35, 0
11, 5857, Note_on_c, 9, 42, 0
11, 5880, Note_on_c, 9, 42, 63
11, 5881, Note_on_c, 9, 42, 0
11, 5892, Note_on_c, 9, 42, 20
11, 5893, Note_on_c, 9, 42, 0
11, 5904, Note_on_c, 9, 38, 64
11, 5904, Note_on_c, 9, 42, 90
11, 5905, Note_on_c, 9, 42, 0
11, 5916, Note_on_c, 9, 38, 0
11, 5928, Note_on_c, 9, 35, 64
11, 5928, Note_on_c, 9, 42, 54
11, 5940, Note_on_c, 9, 35, 0
11, 5940, Note_on_c, 9, 42, 0
11, 5940, Note_on_c, 9, 42, 64
11, 5941, Note_on_c, 9, 42, 0
11, 5952, Note_on_c, 9, 35, 64
11, 5952, Note_on_c, 9, 42, 80
11, 5953, Note_on_c, 9, 42, 0
11, 5976, Note_on_c, 9, 35, 0
11, 5976, Note_on_c, 9, 42, 70
11, 5977, Note_on_c, 9, 42, 0
11, 5988, Note_on_c, 9, 42, 70
11, 5989, Note_on_c, 9, 42, 0
11, 6000, Note_on_c, 9, 38, 74
11, 6000, Note_on_c, 9, 42, 80
11, 6001, Note_on_c, 9, 42, 0
11, 6024, Note_on_c, 9, 38, 0
11, 6024, Note_on_c, 9, 42, 70
11, 6025, Note_on_c, 9, 42, 0
11, 6036, Note_on_c, 9, 35, 64
11, 6036, Note_on_c, 9, 42, 20
11, 6037, Note_on_c, 9, 42, 0
11, 6048, Note_on_c, 9, 35, 0
11, 6048, Note_on_c, 9, 35, 64
11, 6048, Note_on_c, 9, 42, 80
11, 6049, Note_on_c, 9, 35, 0
11, 6049, Note_on_c, 9, 42, 0
11, 6072, Note_on_c, 9, 35, 64
11, 6072, Note_on_c, 9, 42, 63
11, 6073, Note_on_c, 9, 35, 0
11, 6073, Note_on_c, 9, 42, 0
11, 6084, Note_on_c, 9, 42, 64
11, 6085, Note_on_c, 9, 42, 0
11, 6096, Note_on_c, 9, 38, 64
11, 6096, Note_on_c, 9, 42, 90
11, 6097, Note_on_c, 9, 42, 0
11, 6108, Note_on_c, 9, 38, 0
11, 6108, Note_on_c, 9, 42, 34
11, 6109, Note_on_c, 9, 42, 0
11, 6120, Note_on_c, 9, 35, 64
11, 6120, Note_on_c, 9, 42, 54
11, 6121, Note_on_c, 9, 42, 0
11, 6132, Note_on_c, 9, 35, 0
11, 6132, Note_on_c, 9, 46, 64
11, 6144, Note_on_c, 9, 46, 0
11, 6144, Note_on_c, 9, 35, 64
11, 6144, Note_on_c, 9, 42, 80
11, 6168, Note_on_c, 9, 35, 0
11, 6168, Note_on_c, 9, 42, 0
11, 6168, Note_on_c, 9, 42, 70
11, 6169, Note_on_c, 9, 42, 0
11, 6180, Note_on_c, 9, 42, 30
11, 6181, Note_on_c, 9, 42, 0
11, 6192, Note_on_c, 9, 38, 74
11, 6192, Note_on_c, 9, 42, 80
11, 6193, Note_on_c, 9, 42, 0
11, 6216, Note_on_c, 9, 38, 0
11, 6216, Note_on_c, 9, 42, 70
11, 6217, Note_on_c, 9, 42, 0
11, 6228, Note_on_c, 9, 35, 64
11, 6228, Note_on_c, 9, 42, 64
11, 6229, Note_on_c, 9, 42, 0
11, 6240, Note_on_c, 9, 35, 0
11, 6240, Note_on_c, 9, 35, 64
11, 6240, Note_on_c, 9, 42, 80
11, 6241, Note_on_c, 9, 35, 0
11, 6241, Note_on_c, 9, 42, 0
11, 6264, Note_on_c, 9, 42, 63
11, 6265, Note_on_c, 9, 42, 0
11, 6276, Note_on_c, 9, 42, 20
11, 6277, Note_on_c, 9, 42, 0
11, 6288, Note_on_c, 9, 38, 64
11, 6288, Note_on_c, 9, 42, 90
11, 6289, Note_on_c, 9, 42, 0
11, 6300, Note_on_c, 9, 38, 0
11, 6312, Note_on_c, 9, 35, 64
11, 6312, Note_on_c, 9, 42, 54
11, 6324, Note_on_c, 9, 35, 0
11, 6324, Note_on_c, 9, 42, 0
11, 6324, Note_on_c, 9, 42, 64
11, 6325, Note_on_c, 9, 42, 0
11, 6336, Note_on_c, 9, 35, 64
11, 6336, Note_on_c, 9, 42, 80
11, 6337, Note_on_c, 9, 42, 0
11, 6360, Note_on_c, 9, 35, 0
11, 6360, Note_on_c, 9, 42, 70
11, 6361, Note_on_c, 9, 42, 0
11, 6372, Note_on_c, 9, 42, 30
11, 6373, Note_on_c, 9, 42, 0
11, 6384, Note_on_c, 9, 38, 74
11, 6384, Note_on_c, 9, 42, 80
11, 6385, Note_on_c, 9, 42, 0
11, 6408, Note_on_c, 9, 38, 0
11, 6408, Note_on_c, 9, 42, 70
11, 6409, Note_on_c, 9, 42, 0
11, 6420, Note_on_c, 9, 35, 64
11, 6420, Note_on_c, 9, 42, 64
11, 6421, Note_on_c, 9, 42, 0
11, 6432, Note_on_c, 9, 35, 0
11, 6432, Note_on_c, 9, 35, 64
11, 6432, Note_on_c, 9, 42, 80
11, 6433, Note_on_c, 9, 35, 0
11, 6433, Note_on_c, 9, 42, 0
11, 6456, Note_on_c, 9, 35, 64
11, 6456, Note_on_c, 9, 42, 63
11, 6457, Note_on_c, 9, 35, 0
11, 6457, Note_on_c, 9, 42, 0
11, 6468, Note_on_c, 9, 42, 20
11, 6469, Note_on_c, 9, 42, 0
11, 6480, Note_on_c, 9, 38, 64
11, 6480, Note_on_c, 9, 42, 90
11, 6481, Note_on_c, 9, 42, 0
11, 6492, Note_on_c, 9, 38, 0
11, 6492, Note_on_c, 9, 42, 34
11, 6493, Note_on_c, 9, 42, 0
11, 6504, Note_on_c, 9, 35, 64
11, 6504, Note_on_c, 9, 42, 54
11, 6505, Note_on_c, 9, 42, 0
11, 6516, Note_on_c, 9, 35, 0
11, 6516, Note_on_c, 9, 42, 64
11, 6517, Note_on_c, 9, 42, 0
11, 6528, Note_on_c, 9, 35, 64
11, 6528, Note_on_c, 9, 42, 80
11, 6529, Note_on_c, 9, 42, 0
11, 6552, Note_on_c, 9, 35, 0
11, 6552, Note_on_c, 9, 42, 70
11, 6553, Note_on_c, 9, 42, 0
11, 6564, Note_on_c, 9, 42, 70
11, 6565, Note_on_c, 9, 42, 0
11, 6576, Note_on_c, 9, 38, 74
11, 6576, Note_on_c, 9, 42, 80
11, 6577, Note_on_c, 9, 42, 0
11, 6600, Note_on_c, 9, 38, 0
11, 6600, Note_on_c, 9, 42, 70
11, 6601, Note_on_c, 9, 42, 0
11, 6612, Note_on_c, 9, 35, 64
11, 6612, Note_on_c, 9, 42, 64
11, 6613, Note_on_c, 9, 42, 0
11, 6624, Note_on_c, 9, 35, 0
11, 6624, Note_on_c, 9, 35, 64
11, 6624, Note_on_c, 9, 42, 80
11, 6625, Note_on_c, 9, 35, 0
11, 6625, Note_on_c, 9, 42, 0
11, 6648, Note_on_c, 9, 42, 63
11, 6649, Note_on_c, 9, 42, 0
11, 6660, Note_on_c, 9, 42, 20
11, 6661, Note_on_c, 9, 42, 0
11, 6672, Note_on_c, 9, 38, 64
11, 6672, Note_on_c, 9, 42, 90
11, 6673, Note_on_c, 9, 42, 0
11, 6684, Note_on_c, 9, 38, 0
11, 6696, Note_on_c, 9, 35, 64
11, 6696, Note_on_c, 9, 42, 54
11, 6708, Note_on_c, 9, 35, 0
11, 6708, Note_on_c, 9, 42, 0
11, 6708, Note_on_c, 9, 42, 64
11, 6709, Note_on_c, 9, 42, 0
11, 6720, Note_on_c, 9, 35, 64
11, 6720, Note_on_c, 9, 42, 70
11, 6721, Note_on_c, 9, 42, 0
11, 6744, Note_on_c, 9, 35, 0
11, 6744, Note_on_c, 9, 42, 60
11, 6745, Note_on_c, 9, 42, 0
11, 6768, Note_on_c, 9, 38, 74
11, 6768, Note_on_c, 9, 42, 70
11, 6769, Note_on_c, 9, 42, 0
11, 6792, Note_on_c, 9, 38, 0
11, 6792, Note_on_c, 9, 35, 54
11, 6792, Note_on_c, 9, 42, 60
11, 6793, Note_on_c, 9, 42, 0
11, 6816, Note_on_c, 9, 35, 0
11, 6816, Note_on_c, 9, 35, 64
11, 6816, Note_on_c, 9, 42, 70
11, 6817, Note_on_c, 9, 35, 0
11, 6817, Note_on_c, 9, 42, 0
11, 6840, Note_on_c, 9, 42, 60
11, 6841, Note_on_c, 9, 42, 0
11, 6852, Note_on_c, 9, 38, 50
11, 6864, Note_on_c, 9, 38, 0
11, 6864, Note_on_c, 9, 38, 74
11, 6864, Note_on_c, 9, 42, 70
11, 6865, Note_on_c, 9, 38, 0
11, 6876, Note_on_c, 9, 42, 0
11, 6876, Note_on_c, 9, 42, 60
11, 6877, Note_on_c, 9, 42, 0
11, 6888, Note_on_c, 9, 38, 84
11, 6888, Note_on_c, 9, 42, 74
11, 6889, Note_on_c, 9, 42, 0
11, 6900, Note_on_c, 9, 38, 0
11, 6912, Note_on_c, 9, 35, 64
11, 6912, Note_on_c, 9, 46, 70
11, 6936, Note_on_c, 9, 35, 0
11, 6936, Note_on_c, 9, 46, 0
11, 6936, Note_on_c, 9, 42, 60
11, 6960, Note_on_c, 9, 42, 0
11, 6960, Note_on_c, 9, 37, 74
11, 6960, Note_on_c, 9, 42, 70
11, 6961, Note_on_c, 9, 42, 0
11, 6984, Note_on_c, 9, 37, 0
11, 6984, Note_on_c, 9, 35, 54
11, 6984, Note_on_c, 9, 42, 60
11, 6985, Note_on_c, 9, 42, 0
11, 7008, Note_on_c, 9, 35, 0
11, 7008, Note_on_c, 9, 35, 64
11, 7008, Note_on_c, 9, 42, 70
11, 7009, Note_on_c, 9, 35, 0
11, 7009, Note_on_c, 9, 42, 0
11, 7032, Note_on_c, 9, 42, 60
11, 7033, Note_on_c, 9, 42, 0
11, 7056, Note_on_c, 9, 37, 74
11, 7056, Note_on_c, 9, 42, 70
11, 7057, Note_on_c, 9, 42, 0
11, 7080, Note_on_c, 9, 37, 0
11, 7080, Note_on_c, 9, 35, 64
11, 7080, Note_on_c, 9, 42, 60
11, 7081, Note_on_c, 9, 42, 0
11, 7092, Note_on_c, 9, 35, 0
11, 7104, Note_on_c, 9, 35, 64
11, 7104, Note_on_c, 9, 42, 70
11, 7128, Note_on_c, 9, 35, 0
11, 7128, Note_on_c, 9, 42, 0
11, 7128, Note_on_c, 9, 42, 60
11, 7129, Note_on_c, 9, 42, 0
11, 7152, Note_on_c, 9, 37, 74
11, 7152, Note_on_c, 9, 42, 70
11, 7153, Note_on_c, 9, 42, 0
11, 7176, Note_on_c, 9, 37, 0
11, 7176, Note_on_c, 9, 35, 54
11, 7176, Note_on_c, 9, 42, 60
11, 7177, Note_on_c, 9, 42, 0
11, 7200, Note_on_c, 9, 35, 0
11, 7200, Note_on_c, 9, 35, 64
11, 7200, Note_on_c, 9, 42, 70
11, 7201, Note_on_c, 9, 35, 0
11, 7201, Note_on_c, 9, 42, 0
11, 7224, Note_on_c, 9, 42, 60
11, 7225, Note_on_c, 9, 42, 0
11, 7248, Note_on_c, 9, 37, 74
11, 7248, Note_on_c, 9, 42, 70
11, 7249, Note_on_c, 9, 42, 0
11, 7272, Note_on_c, 9, 37, 0
11, 7272, Note_on_c, 9, 35, 64
11, 7272, Note_on_c, 9, 42, 60
11, 7273, Note_on_c, 9, 42, 0
11, 7284, Note_on_c, 9, 35, 0
11, 7284, Note_on_c, 9, 42, 74
11, 7285, Note_on_c, 9, 42, 0
11, 7296, Note_on_c, 9, 35, 64
11, 7296, Note_on_c, 9, 42, 70
11, 7297, Note_on_c, 9, 42, 0
11, 7320, Note_on_c, 9, 35, 0
11, 7320, Note_on_c, 9, 42, 60
11, 7321, Note_on_c, 9, 42, 0
11, 7344, Note_on_c, 9, 37, 74
11, 7344, Note_on_c, 9, 42, 70
11, 7345, Note_on_c, 9, 42, 0
11, 7368, Note_on_c, 9, 37, 0
11, 7368, Note_on_c, 9, 35, 54
11, 7368, Note_on_c, 9, 42, 60
11, 7369, Note_on_c, 9, 42, 0
11, 7392, Note_on_c, 9, 35, 0
11, 7392, Note_on_c, 9, 35, 64
11, 7392, Note_on_c, 9, 42, 70
11, 7393, Note_on_c, 9, 35, 0
11, 7393, Note_on_c, 9, 42, 0
11, 7416, Note_on_c, 9, 35, 64
11, 7416, Note_on_c, 9, 42, 60
11, 7417, Note_on_c, 9, 35, 0
11, 7417, Note_on_c, 9, 42, 0
11, 7440, Note_on_c, 9, 37, 74
11, 7440, Note_on_c, 9, 42, 70
11, 7441, Note_on_c, 9, 42, 0
11, 7464, Note_on_c, 9, 37, 0
11, 7464, Note_on_c, 9, 35, 64
11, 7464, Note_on_c, 9, 42, 60
11, 7465, Note_on_c, 9, 42, 0
11, 7476, Note_on_c, 9, 35, 0
11, 7476, Note_on_c, 9, 42, 74
11, 7477, Note_on_c, 9, 42, 0
11, 7488, Note_on_c, 9, 35, 64
11, 7488, Note_on_c, 9, 42, 70
11, 7489, Note_on_c, 9, 42, 0
11, 7512, Note_on_c, 9, 35, 0
11, 7512, Note_on_c, 9, 42, 60
11, 7513, Note_on_c, 9, 42, 0
11, 7536, Note_on_c, 9, 37, 74
11, 7536, Note_on_c, 9, 42, 70
11, 7537, Note_on_c, 9, 42, 0
11, 7560, Note_on_c, 9, 37, 0
11, 7560, Note_on_c, 9, 35, 54
11, 7560, Note_on_c, 9, 42, 60
11, 7561, Note_on_c, 9, 42, 0
11, 7584, Note_on_c, 9, 35, 0
11, 7584, Note_on_c, 9, 35, 64
11, 7584, Note_on_c, 9, 42, 70
11, 7585, Note_on_c, 9, 35, 0
11, 7585, Note_on_c, 9, 42, 0
11, 7608, Note_on_c, 9, 42, 60
11, 7609, Note_on_c, 9, 42, 0
11, 7632, Note_on_c, 9, 37, 74
11, 7632, Note_on_c, 9, 42, 70
11, 7633, Note_on_c, 9, 42, 0
11, 7656, Note_on_c, 9, 37, 0
11, 7656, Note_on_c, 9, 35, 64
11, 7656, Note_on_c, 9, 42, 60
11, 7657, Note_on_c, 9, 42, 0
11, 7668, Note_on_c, 9, 35, 0
11, 7680, Note_on_c, 9, 35, 64
11, 7680, Note_on_c, 9, 42, 70
11, 7704, Note_on_c, 9, 35, 0
11, 7704, Note_on_c, 9, 42, 0
11, 7704, Note_on_c, 9, 42, 60
11, 7705, Note_on_c, 9, 42, 0
11, 7728, Note_on_c, 9, 37, 74
11, 7728, Note_on_c, 9, 42, 70
11, 7729, Note_on_c, 9, 42, 0
11, 7752, Note_on_c, 9, 37, 0
11, 7752, Note_on_c, 9, 35, 54
11, 7752, Note_on_c, 9, 42, 60
11, 7753, Note_on_c, 9, 42, 0
11, 7776, Note_on_c, 9, 35, 0
11, 7776, Note_on_c, 9, 35, 64
11, 7776, Note_on_c, 9, 42, 70
11, 7777, Note_on_c, 9, 35, 0
11, 7777, Note_on_c, 9, 42, 0
11, 7800, Note_on_c, 9, 35, 64
11, 7800, Note_on_c, 9, 42, 60
11, 7801, Note_on_c, 9, 35, 0
11, 7801, Note_on_c, 9, 42, 0
11, 7824, Note_on_c, 9, 37, 74
11, 7824, Note_on_c, 9, 42, 70
11, 7825, Note_on_c, 9, 42, 0
11, 7848, Note_on_c, 9, 37, 0
11, 7848, Note_on_c, 9, 35, 64
11, 7848, Note_on_c, 9, 42, 60
11, 7849, Note_on_c, 9, 42, 0
11, 7860, Note_on_c, 9, 35, 0
11, 7872, Note_on_c, 9, 35, 64
11, 7872, Note_on_c, 9, 42, 70
11, 7896, Note_on_c, 9, 35, 0
11, 7896, Note_on_c, 9, 42, 0
11, 7896, Note_on_c, 9, 42, 60
11, 7897, Note_on_c, 9, 42, 0
11, 7920, Note_on_c, 9, 37, 74
11, 7920, Note_on_c, 9, 42, 70
11, 7921, Note_on_c, 9, 42, 0
11, 7944, Note_on_c, 9, 37, 0
11, 7944, Note_on_c, 9, 35, 54
11, 7944, Note_on_c, 9, 42, 60
11, 7945, Note_on_c, 9, 42, 0
11, 7968, Note_on_c, 9, 35, 0
11, 7968, Note_on_c, 9, 35, 64
11, 7968, Note_on_c, 9, 42, 70
11, 7969, Note_on_c, 9, 35, 0
11, 7969, Note_on_c, 9, 42, 0
11, 7992, Note_on_c, 9, 42, 60
11, 7993, Note_on_c, 9, 42, 0
11, 8016, Note_on_c, 9, 37, 74
11, 8016, Note_on_c, 9, 42, 70
11, 8017, Note_on_c, 9, 42, 0
11, 8040, Note_on_c, 9, 37, 0
11, 8040, Note_on_c, 9, 35, 64
11, 8040, Note_on_c, 9, 42, 60
11, 8041, Note_on_c, 9, 42, 0
11, 8052, Note_on_c, 9, 35, 0
11, 8052, Note_on_c, 9, 42, 74
11, 8053, Note_on_c, 9, 42, 0
11, 8064, Note_on_c, 9, 35, 64
11, 8064, Note_on_c, 9, 42, 70
11, 8065, Note_on_c, 9, 42, 0
11, 8088, Note_on_c, 9, 35, 0
11, 8088, Note_on_c, 9, 42, 60
11, 8089, Note_on_c, 9, 42, 0
11, 8112, Note_on_c, 9, 37, 74
11, 8112, Note_on_c, 9, 42, 70
11, 8113, Note_on_c, 9, 42, 0
11, 8136, Note_on_c, 9, 37, 0
11, 8136, Note_on_c, 9, 35, 54
11, 8136, Note_on_c, 9, 42, 60
11, 8137, Note_on_c, 9, 42, 0
11, 8160, Note_on_c, 9, 35, 0
11, 8160, Note_on_c, 9, 35, 64
11, 8160, Note_on_c, 9, 42, 70
11, 8161, Note_on_c, 9, 35, 0
11, 8161, Note_on_c, 9, 42, 0
11, 8184, Note_on_c, 9, 42, 60
11, 8185, Note_on_c, 9, 42, 0
11, 8208, Note_on_c, 9, 37, 74
11, 8208, Note_on_c, 9, 42, 70
11, 8209, Note_on_c, 9, 42, 0
11, 8232, Note_on_c, 9, 37, 0
11, 8232, Note_on_c, 9, 35, 64
11, 8232, Note_on_c, 9, 42, 60
11, 8233, Note_on_c, 9, 42, 0
11, 8244, Note_on_c, 9, 35, 0
11, 8244, Note_on_c, 9, 42, 74
11, 8245, Note_on_c, 9, 42, 0
11, 8256, Note_on_c, 9, 35, 64
11, 8256, Note_on_c, 9, 42, 70
11, 8257, Note_on_c, 9, 42, 0
11, 8280, Note_on_c, 9, 35, 0
11, 8280, Note_on_c, 9, 42, 60
11, 8281, Note_on_c, 9, 42, 0
11, 8304, Note_on_c, 9, 37, 74
11, 8304, Note_on_c, 9, 42, 70
11, 8305, Note_on_c, 9, 42, 0
11, 8328, Note_on_c, 9, 37, 0
11, 8328, Note_on_c, 9, 35, 54
11, 8328, Note_on_c, 9, 42, 60
11, 8329, Note_on_c, 9, 42, 0
11, 8352, Note_on_c, 9, 35, 0
11, 8352, Note_on_c, 9, 35, 64
11, 8352, Note_on_c, 9, 42, 70
11, 8353, Note_on_c, 9, 35, 0
11, 8353, Note_on_c, 9, 42, 0
11, 8376, Note_on_c, 9, 35, 64
11, 8376, Note_on_c, 9, 42, 60
11, 8377, Note_on_c, 9, 35, 0
11, 8377, Note_on_c, 9, 42, 0
11, 8400, Note_on_c, 9, 37, 74
11, 8400, Note_on_c, 9, 42, 70
11, 8401, Note_on_c, 9, 42, 0
11, 8424, Note_on_c, 9, 37, 0
11, 8424, Note_on_c, 9, 35, 64
11, 8424, Note_on_c, 9, 42, 60
11, 8425, Note_on_c, 9, 42, 0
11, 8436, Note_on_c, 9, 35, 0
11, 8436, Note_on_c, 9, 46, 74
11, 8448, Note_on_c, 9, 46, 0
11, 8448, Note_on_c, 9, 35, 64
11, 8448, Note_on_c, 9, 42, 70
11, 8472, Note_on_c, 9, 35, 0
11, 8472, Note_on_c, 9, 42, 0
11, 8472, Note_on_c, 9, 42, 60
11, 8473, Note_on_c, 9, 42, 0
11, 8496, Note_on_c, 9, 37, 74
11, 8496, Note_on_c, 9, 42, 70
11, 8497, Note_on_c, 9, 42, 0
11, 8520, Note_on_c, 9, 37, 0
11, 8520, Note_on_c, 9, 35, 54
11, 8520, Note_on_c, 9, 42, 60
11, 8521, Note_on_c, 9, 42, 0
11, 8544, Note_on_c, 9, 35, 0
11, 8544, Note_on_c, 9, 35, 64
11, 8544, Note_on_c, 9, 42, 70
11, 8545, Note_on_c, 9, 35, 0
11, 8545, Note_on_c, 9, 42, 0
11, 8568, Note_on_c, 9, 42, 60
11, 8569, Note_on_c, 9, 42, 0
11, 8592, Note_on_c, 9, 37, 74
11, 8592, Note_on_c, 9, 42, 70
11, 8593, Note_on_c, 9, 42, 0
11, 8616, Note_on_c, 9, 37, 0
11, 8616, Note_on_c, 9, 35, 64
11, 8616, Note_on_c, 9, 42, 60
11, 8617, Note_on_c, 9, 42, 0
11, 8628, Note_on_c, 9, 35, 0
11, 8628, Note_on_c, 9, 42, 74
11, 8629, Note_on_c, 9, 42, 0
11, 8640, Note_on_c, 9, 35, 64
11, 8640, Note_on_c, 9, 42, 70
11, 8641, Note_on_c, 9, 42, 0
11, 8664, Note_on_c, 9, 35, 0
11, 8664, Note_on_c, 9, 42, 60
11, 8665, Note_on_c, 9, 42, 0
11, 8688, Note_on_c, 9, 37, 74
11, 8688, Note_on_c, 9, 42, 70
11, 8689, Note_on_c, 9, 42, 0
11, 8712, Note_on_c, 9, 37, 0
11, 8712, Note_on_c, 9, 35, 54
11, 8712, Note_on_c, 9, 42, 60
11, 8713, Note_on_c, 9, 42, 0
11, 8736, Note_on_c, 9, 35, 0
11, 8736, Note_on_c, 9, 35, 64
11, 8736, Note_on_c, 9, 42, 70
11, 8737, Note_on_c, 9, 35, 0
11, 8737, Note_on_c, 9, 42, 0
11, 8760, Note_on_c, 9, 35, 64
11, 8760, Note_on_c, 9, 42, 60
11, 8761, Note_on_c, 9, 35, 0
11, 8761, Note_on_c, 9, 42, 0
11, 8784, Note_on_c, 9, 37, 74
11, 8784, Note_on_c, 9, 42, 70
11, 8785, Note_on_c, 9, 42, 0
11, 8808, Note_on_c, 9, 37, 0
11, 8808, Note_on_c, 9, 35, 64
11, 8808, Note_on_c, 9, 42, 60
11, 8809, Note_on_c, 9, 42, 0
11, 8820, Note_on_c, 9, 35, 0
11, 8832, Note_on_c, 9, 35, 64
11, 8832, Note_on_c, 9, 42, 70
11, 8856, Note_on_c, 9, 35, 0
11, 8856, Note_on_c, 9, 42, 0
11, 8856, Note_on_c, 9, 42, 60
11, 8857, Note_on_c, 9, 42, 0
11, 8880, Note_on_c, 9, 37, 74
11, 8880, Note_on_c, 9, 42, 70
11, 8881, Note_on_c, 9, 42, 0
11, 8904, Note_on_c, 9, 37, 0
11, 8904, Note_on_c, 9, 35, 54
11, 8904, Note_on_c, 9, 42, 60
11, 8905, Note_on_c, 9, 42, 0
11, 8928, Note_on_c, 9, 35, 0
11, 8928, Note_on_c, 9, 35, 64
11, 8928, Note_on_c, 9, 42, 70
11, 8929, Note_on_c, 9, 35, 0
11, 8929, Note_on_c, 9, 42, 0
11, 8952, Note_on_c, 9, 35, 64
11, 8952, Note_on_c, 9, 42, 60
11, 8953, Note_on_c, 9, 35, 0
11, 8953, Note_on_c, 9, 42, 0
11, 8976, Note_on_c, 9, 37, 74
11, 8976, Note_on_c, 9, 42, 70
11, 8977, Note_on_c, 9, 42, 0
11, 9000, Note_on_c, 9, 37, 0
11, 9000, Note_on_c, 9, 35, 64
11, 9000, Note_on_c, 9, 42, 60
11, 9001, Note_on_c, 9, 42, 0
11, 9012, Note_on_c, 9, 35, 0
11, 9024, Note_on_c, 9, 35, 64
11, 9024, Note_on_c, 9, 42, 70
11, 9048, Note_on_c, 9, 35, 0
11, 9048, Note_on_c, 9, 42, 0
11, 9048, Note_on_c, 9, 42, 60
11, 9049, Note_on_c, 9, 42, 0
11, 9072, Note_on_c, 9, 37, 74
11, 9072, Note_on_c, 9, 42, 70
11, 9073, Note_on_c, 9, 42, 0
11, 9096, Note_on_c, 9, 37, 0
11, 9096, Note_on_c, 9, 35, 54
11, 9096, Note_on_c, 9, 42, 60
11, 9097, Note_on_c, 9, 42, 0
11, 9120, Note_on_c, 9, 35, 0
11, 9120, Note_on_c, 9, 35, 64
11, 9120, Note_on_c, 9, 42, 70
11, 9121, Note_on_c, 9, 35, 0
11, 9121, Note_on_c, 9, 42, 0
11, 9144, Note_on_c, 9, 35, 64
11, 9144, Note_on_c, 9, 42, 60
11, 9145, Note_on_c, 9, 35, 0
11, 9145, Note_on_c, 9, 42, 0
11, 9168, Note_on_c, 9, 37, 74
11, 9168, Note_on_c, 9, 42, 70
11, 9169, Note_on_c, 9, 42, 0
11, 9192, Note_on_c, 9, 37, 0
11, 9192, Note_on_c, 9, 35, 64
11, 9192, Note_on_c, 9, 42, 60
11, 9193, Note_on_c, 9, 42, 0
11, 9204, Note_on_c, 9, 35, 0
11, 9204, Note_on_c, 9, 42, 74
11, 9205, Note_on_c, 9, 42, 0
11, 9216, Note_on_c, 9, 35, 64
11, 9216, Note_on_c, 9, 42, 70
11, 9217, Note_on_c, 9, 42, 0
11, 9240, Note_on_c, 9, 35, 0
11, 9240, Note_on_c, 9, 42, 60
11, 9241, Note_on_c, 9, 42, 0
11, 9264, Note_on_c, 9, 37, 74
11, 9264, Note_on_c, 9, 42, 70
11, 9265, Note_on_c, 9, 42, 0
11, 9288, Note_on_c, 9, 37, 0
11, 9288, Note_on_c, 9, 35, 54
11, 9288, Note_on_c, 9, 42, 60
11, 9289, Note_on_c, 9, 42, 0
11, 9312, Note_on_c, 9, 35, 0
11, 9312, Note_on_c, 9, 35, 64
11, 9312, Note_on_c, 9, 42, 70
11, 9313, Note_on_c, 9, 35, 0
11, 9313, Note_on_c, 9, 42, 0
11, 9336, Note_on_c, 9, 42, 60
11, 9337, Note_on_c, 9, 42, 0
11, 9360, Note_on_c, 9, 37, 74
11, 9360, Note_on_c, 9, 42, 70
11, 9361, Note_on_c, 9, 42, 0
11, 9384, Note_on_c, 9, 37, 0
11, 9384, Note_on_c, 9, 35, 64
11, 9384, Note_on_c, 9, 42, 60
11, 9385, Note_on_c, 9, 42, 0
11, 9396, Note_on_c, 9, 35, 0
11, 9408, Note_on_c, 9, 35, 64
11, 9408, Note_on_c, 9, 42, 70
11, 9432, Note_on_c, 9, 35, 0
11, 9432, Note_on_c, 9, 42, 0
11, 9432, Note_on_c, 9, 42, 60
11, 9433, Note_on_c, 9, 42, 0
11, 9456, Note_on_c, 9, 37, 74
11, 9456, Note_on_c, 9, 42, 70
11, 9457, Note_on_c, 9, 42, 0
11, 9480, Note_on_c, 9, 37, 0
11, 9480, Note_on_c, 9, 35, 54
11, 9480, Note_on_c, 9, 42, 60
11, 9481, Note_on_c, 9, 42, 0
11, 9504, Note_on_c, 9, 35, 0
11, 9504, Note_on_c, 9, 35, 64
11, 9504, Note_on_c, 9, 42, 70
11, 9505, Note_on_c, 9, 35, 0
11, 9505, Note_on_c, 9, 42, 0
11, 9528, Note_on_c, 9, 42, 60
11, 9529, Note_on_c, 9, 42, 0
11, 9552, Note_on_c, 9, 37, 74
11, 9552, Note_on_c, 9, 42, 70
11, 9553, Note_on_c, 9, 42, 0
11, 9576, Note_on_c, 9, 37, 0
11, 9576, Note_on_c, 9, 35, 64
11, 9576, Note_on_c, 9, 42, 60
11, 9577, Note_on_c, 9, 42, 0
11, 9588, Note_on_c, 9, 35, 0
11, 9588, Note_on_c, 9, 42, 74
11, 9589, Note_on_c, 9, 42, 0
11, 9600, Note_on_c, 9, 35, 64
11, 9600, Note_on_c, 9, 42, 70
11, 9601, Note_on_c, 9, 42, 0
11, 9624, Note_on_c, 9, 35, 0
11, 9624, Note_on_c, 9, 42, 60
11, 9625, Note_on_c, 9, 42, 0
11, 9648, Note_on_c, 9, 37, 74
11, 9648, Note_on_c, 9, 42, 70
11, 9649, Note_on_c, 9, 42, 0
11, 9672, Note_on_c, 9, 37, 0
11, 9672, Note_on_c, 9, 35, 54
11, 9672, Note_on_c, 9, 42, 60
11, 9673, Note_on_c, 9, 42, 0
11, 9696, Note_on_c, 9, 35, 0
11, 9696, Note_on_c, 9, 35, 64
11, 9696, Note_on_c, 9, 42, 70
11, 9697, Note_on_c, 9, 35, 0
11, 9697, Note_on_c, 9, 42, 0
11, 9720, Note_on_c, 9, 35, 64
11, 9720, Note_on_c, 9, 42, 60
11, 9721, Note_on_c, 9, 35, 0
11, 9721, Note_on_c, 9, 42, 0
11, 9744, Note_on_c, 9, 37, 74
11, 9744, Note_on_c, 9, 42, 70
11, 9745, Note_on_c, 9, 42, 0
11, 9768, Note_on_c, 9, 37, 0
11, 9768, Note_on_c, 9, 35, 64
11, 9768, Note_on_c, 9, 42, 60
11, 9769, Note_on_c, 9, 42, 0
11, 9780, Note_on_c, 9, 35, 0
11, 9792, Note_on_c, 9, 35, 64
11, 9792, Note_on_c, 9, 42, 70
11, 9816, Note_on_c, 9, 35, 0
11, 9816, Note_on_c, 9, 42, 0
11, 9816, Note_on_c, 9, 42, 60
11, 9817, Note_on_c, 9, 42, 0
11, 9840, Note_on_c, 9, 37, 74
11, 9840, Note_on_c, 9, 42, 70
11, 9841, Note_on_c, 9, 42, 0
11, 9864, Note_on_c, 9, 37, 0
11, 9864, Note_on_c, 9, 35, 54
11, 9864, Note_on_c, 9, 42, 60
11, 9865, Note_on_c, 9, 42, 0
11, 9888, Note_on_c, 9, 35, 0
11, 9888, Note_on_c, 9, 35, 64
11, 9888, Note_on_c, 9, 42, 70
11, 9889, Note_on_c, 9, 35, 0
11, 9889, Note_on_c, 9, 42, 0
11, 9912, Note_on_c, 9, 42, 60
11, 9912, Note_on_c, 9, 38, 50
11, 9913, Note_on_c, 9, 42, 0
11, 9924, Note_on_c, 9, 38, 0
11, 9924, Note_on_c, 9, 38, 50
11, 9925, Note_on_c, 9, 38, 0
11, 9936, Note_on_c, 9, 38, 74
11, 9936, Note_on_c, 9, 42, 70
11, 9937, Note_on_c, 9, 38, 0
11, 9948, Note_on_c, 9, 42, 0
11, 9948, Note_on_c, 9, 42, 60
11, 9949, Note_on_c, 9, 42, 0
11, 9960, Note_on_c, 9, 38, 84
11, 9972, Note_on_c, 9, 38, 0
11, 9972, Note_on_c, 9, 42, 74
11, 9984, Note_on_c, 9, 42, 0
11, 9984, Note_on_c, 9, 35, 64
11, 9984, Note_on_c, 9, 46, 70
11, 10008, Note_on_c, 9, 35, 0
11, 10008, Note_on_c, 9, 46, 0
11, 10008, Note_on_c, 9, 42, 60
11, 10032, Note_on_c, 9, 42, 0
11, 10032, Note_on_c, 9, 37, 74
11, 10032, Note_on_c, 9, 42, 70
11, 10033, Note_on_c, 9, 42, 0
11, 10056, Note_on_c, 9, 37, 0
11, 10056, Note_on_c, 9, 35, 54
11, 10056, Note_on_c, 9, 42, 60
11, 10057, Note_on_c, 9, 42, 0
11, 10080, Note_on_c, 9, 35, 0
11, 10080, Note_on_c, 9, 35, 64
11, 10080, Note_on_c, 9, 42, 70
11, 10081, Note_on_c, 9, 35, 0
11, 10081, Note_on_c, 9, 42, 0
11, 10104, Note_on_c, 9, 42, 60
11, 10105, Note_on_c, 9, 42, 0
11, 10128, Note_on_c, 9, 37, 74
11, 10128, Note_on_c, 9, 42, 70
11, 10129, Note_on_c, 9, 42, 0
11, 10152, Note_on_c, 9, 37, 0
11, 10152, Note_on_c, 9, 35, 64
11, 10152, Note_on_c, 9, 42, 60
11, 10153, Note_on_c, 9, 42, 0
11, 10164, Note_on_c, 9, 35, 0
11, 10176, Note_on_c, 9, 35, 64
11, 10176, Note_on_c, 9, 42, 70
11, 10200, Note_on_c, 9, 35, 0
11, 10200, Note_on_c, 9, 42, 0
11, 10200, Note_on_c, 9, 42, 60
11, 10201, Note_on_c, 9, 42, 0
11, 10224, Note_on_c, 9, 37, 74
11, 10224, Note_on_c, 9, 42, 70
11, 10225, Note_on_c, 9, 42, 0
11, 10248, Note_on_c, 9, 37, 0
11, 10248, Note_on_c, 9, 35, 54
11, 10248, Note_on_c, 9, 42, 60
11, 10249, Note_on_c, 9, 42, 0
11, 10272, Note_on_c, 9, 35, 0
11, 10272, Note_on_c, 9, 35, 64
11, 10272, Note_on_c, 9, 42, 70
11, 10273, Note_on_c, 9, 35, 0
11, 10273, Note_on_c, 9, 42, 0
11, 10296, Note_on_c, 9, 42, 60
11, 10297, Note_on_c, 9, 42, 0
11, 10320, Note_on_c, 9, 37, 74
11, 10320, Note_on_c, 9, 42, 70
11, 10321, Note_on_c, 9, 42, 0
11, 10344, Note_on_c, 9, 37, 0
11, 10344, Note_on_c, 9, 35, 64
11, 10344, Note_on_c, 9, 42, 60
11, 10345, Note_on_c, 9, 42, 0
11, 10356, Note_on_c, 9, 35, 0
11, 10368, Note_on_c, 9, 35, 64
11, 10368, Note_on_c, 9, 42, 70
11, 10392, Note_on_c, 9, 35, 0
11, 10392, Note_on_c, 9, 42, 0
11, 10392, Note_on_c, 9, 42, 60
11, 10393, Note_on_c, 9, 42, 0
11, 10416, Note_on_c, 9, 37, 74
11, 10416, Note_on_c, 9, 42, 70
11, 10417, Note_on_c, 9, 42, 0
11, 10440, Note_on_c, 9, 37, 0
11, 10440, Note_on_c, 9, 35, 54
11, 10440, Note_on_c, 9, 42, 60
11, 10441, Note_on_c, 9, 42, 0
11, 10464, Note_on_c, 9, 35, 0
11, 10464, Note_on_c, 9, 35, 64
11, 10464, Note_on_c, 9, 42, 70
11, 10465, Note_on_c, 9, 35, 0
11, 10465, Note_on_c, 9, 42, 0
11, 10488, Note_on_c, 9, 42, 60
11, 10489, Note_on_c, 9, 42, 0
11, 10512, Note_on_c, 9, 37, 74
11, 10512, Note_on_c, 9, 42, 70
11, 10513, Note_on_c, 9, 42, 0
11, 10536, Note_on_c, 9, 37, 0
11, 10536, Note_on_c, 9, 35, 64
11, 10536, Note_on_c, 9, 42, 60
11, 10537, Note_on_c, 9, 42, 0
11, 10548, Note_on_c, 9, 35, 0
11, 10560, Note_on_c, 9, 35, 64
11, 10560, Note_on_c, 9, 42, 70
11, 10584, Note_on_c, 9, 35, 0
11, 10584, Note_on_c, 9, 42, 0
11, 10584, Note_on_c, 9, 42, 60
11, 10585, Note_on_c, 9, 42, 0
11, 10608, Note_on_c, 9, 37, 74
11, 10608, Note_on_c, 9, 42, 70
11, 10609, Note_on_c, 9, 42, 0
11, 10632, Note_on_c, 9, 37, 0
11, 10632, Note_on_c, 9, 35, 54
11, 10632, Note_on_c, 9, 42, 60
11, 10633, Note_on_c, 9, 42, 0
11, 10656, Note_on_c, 9, 35, 0
11, 10656, Note_on_c, 9, 35, 64
11, 10656, Note_on_c, 9, 42, 70
11, 10657, Note_on_c, 9, 35, 0
11, 10657, Note_on_c, 9, 42, 0
11, 10680, Note_on_c, 9, 35, 64
11, 10680, Note_on_c, 9, 42, 60
11, 10680, Note_on_c, 9, 38, 50
11, 10681, Note_on_c, 9, 35, 0
11, 10681, Note_on_c, 9, 42, 0
11, 10692, Note_on_c, 9, 38, 0
11, 10704, Note_on_c, 9, 38, 74
11, 10704, Note_on_c, 9, 42, 70
11, 10716, Note_on_c, 9, 38, 0
11, 10716, Note_on_c, 9, 42, 0
11, 10716, Note_on_c, 9, 42, 60
11, 10717, Note_on_c, 9, 42, 0
11, 10728, Note_on_c, 9, 38, 84
11, 10740, Note_on_c, 9, 38, 0
11, 10752, Note_on_c, 9, 35, 64
11, 10752, Note_on_c, 9, 46, 70
11, 10776, Note_on_c, 9, 35, 0
11, 10776, Note_on_c, 9, 46, 0
11, 10776, Note_on_c, 9, 42, 60
11, 10800, Note_on_c, 9, 42, 0
11, 10800, Note_on_c, 9, 37, 74
11, 10800, Note_on_c, 9, 42, 70
11, 10801, Note_on_c, 9, 42, 0
11, 10824, Note_on_c, 9, 37, 0
11, 10824, Note_on_c, 9, 35, 54
11, 10824, Note_on_c, 9, 42, 60
11, 10825, Note_on_c, 9, 42, 0
11, 10848, Note_on_c, 9, 35, 0
11, 10848, Note_on_c, 9, 35, 64
11, 10848, Note_on_c, 9, 42, 70
11, 10849, Note_on_c, 9, 35, 0
11, 10849, Note_on_c, 9, 42, 0
11, 10872, Note_on_c, 9, 42, 60
11, 10873, Note_on_c, 9, 42, 0
11, 10896, Note_on_c, 9, 37, 74
11, 10896, Note_on_c, 9, 42, 70
11, 10897, Note_on_c, 9, 42, 0
11, 10920, Note_on_c, 9, 37, 0
11, 10920, Note_on_c, 9, 35, 64
11, 10920, Note_on_c, 9, 42, 60
11, 10921, Note_on_c, 9, 42, 0
11, 10932, Note_on_c, 9, 35, 0
11, 10944, Note_on_c, 9, 35, 64
11, 10944, Note_on_c, 9, 42, 70
11, 10968, Note_on_c, 9, 35, 0
11, 10968, Note_on_c, 9, 42, 0
11, 10968, Note_on_c, 9, 42, 60
11, 10969, Note_on_c, 9, 42, 0
11, 10992, Note_on_c, 9, 37, 74
11, 10992, Note_on_c, 9, 42, 70
11, 10993, Note_on_c, 9, 42, 0
11, 11016, Note_on_c, 9, 37, 0
11, 11016, Note_on_c, 9, 35, 54
11, 11016, Note_on_c, 9, 42, 60
11, 11017, Note_on_c, 9, 42, 0
11, 11040, Note_on_c, 9, 35, 0
11, 11040, Note_on_c, 9, 35, 64
11, 11040, Note_on_c, 9, 42, 70
11, 11041, Note_on_c, 9, 35, 0
11, 11041, Note_on_c, 9, 42, 0
11, 11064, Note_on_c, 9, 35, 64
11, 11064, Note_on_c, 9, 42, 60
11, 11065, Note_on_c, 9, 35, 0
11, 11065, Note_on_c, 9, 42, 0
11, 11088, Note_on_c, 9, 37, 74
11, 11088, Note_on_c, 9, 42, 70
11, 11089, Note_on_c, 9, 42, 0
11, 11112, Note_on_c, 9, 37, 0
11, 11112, Note_on_c, 9, 35, 64
11, 11112, Note_on_c, 9, 42, 60
11, 11113, Note_on_c, 9, 42, 0
11, 11124, Note_on_c, 9, 35, 0
11, 11136, Note_on_c, 9, 35, 64
11, 11136, Note_on_c, 9, 42, 70
11, 11160, Note_on_c, 9, 35, 0
11, 11160, Note_on_c, 9, 42, 0
11, 11160, Note_on_c, 9, 42, 60
11, 11161, Note_on_c, 9, 42, 0
11, 11184, Note_on_c, 9, 37, 74
11, 11184, Note_on_c, 9, 42, 70
11, 11185, Note_on_c, 9, 42, 0
11, 11208, Note_on_c, 9, 37, 0
11, 11208, Note_on_c, 9, 35, 54
11, 11208, Note_on_c, 9, 42, 60
11, 11209, Note_on_c, 9, 42, 0
11, 11232, Note_on_c, 9, 35, 0
11, 11232, Note_on_c, 9, 35, 64
11, 11232, Note_on_c, 9, 42, 70
11, 11233, Note_on_c, 9, 35, 0
11, 11233, Note_on_c, 9, 42, 0
11, 11256, Note_on_c, 9, 35, 64
11, 11256, Note_on_c, 9, 42, 60
11, 11257, Note_on_c, 9, 35, 0
11, 11257, Note_on_c, 9, 42, 0
11, 11280, Note_on_c, 9, 37, 74
11, 11280, Note_on_c, 9, 42, 70
11, 11281, Note_on_c, 9, 42, 0
11, 11304, Note_on_c, 9, 37, 0
11, 11304, Note_on_c, 9, 35, 64
11, 11304, Note_on_c, 9, 42, 60
11, 11305, Note_on_c, 9, 42, 0
11, 11316, Note_on_c, 9, 35, 0
11, 11328, Note_on_c, 9, 35, 64
11, 11328, Note_on_c, 9, 42, 70
11, 11352, Note_on_c, 9, 35, 0
11, 11352, Note_on_c, 9, 42, 0
11, 11352, Note_on_c, 9, 42, 60
11, 11353, Note_on_c, 9, 42, 0
11, 11376, Note_on_c, 9, 37, 74
11, 11376, Note_on_c, 9, 42, 70
11, 11377, Note_on_c, 9, 42, 0
11, 11400, Note_on_c, 9, 37, 0
11, 11400, Note_on_c, 9, 35, 54
11, 11400, Note_on_c, 9, 42, 60
11, 11401, Note_on_c, 9, 42, 0
11, 11424, Note_on_c, 9, 35, 0
11, 11424, Note_on_c, 9, 35, 64
11, 11424, Note_on_c, 9, 42, 70
11, 11425, Note_on_c, 9, 35, 0
11, 11425, Note_on_c, 9, 42, 0
11, 11448, Note_on_c, 9, 35, 64
11, 11448, Note_on_c, 9, 42, 60
11, 11448, Note_on_c, 9, 38, 50
11, 11449, Note_on_c, 9, 35, 0
11, 11449, Note_on_c, 9, 42, 0
11, 11460, Note_on_c, 9, 38, 0
11, 11472, Note_on_c, 9, 38, 74
11, 11472, Note_on_c, 9, 42, 70
11, 11484, Note_on_c, 9, 38, 0
11, 11484, Note_on_c, 9, 42, 0
11, 11484, Note_on_c, 9, 42, 60
11, 11485, Note_on_c, 9, 42, 0
11, 11496, Note_on_c, 9, 38, 84
11, 11508, Note_on_c, 9, 38, 0
11, 11508, Note_on_c, 9, 38, 64
11, 11509, Note_on_c, 9, 38, 0
11, 11520, Note_on_c, 9, 35, 64
11, 11520, Note_on_c, 9, 49, 80
11, 11544, Note_on_c, 9, 35, 0
11, 11544, Note_on_c, 9, 49, 0
11, 11544, Note_on_c, 9, 42, 70
11, 11556, Note_on_c, 9, 42, 0
11, 11556, Note_on_c, 9, 42, 30
11, 11557, Note_on_c, 9, 42, 0
11, 11568, Note_on_c, 9, 38, 74
11, 11568, Note_on_c, 9, 42, 80
11, 11569, Note_on_c, 9, 42, 0
11, 11592, Note_on_c, 9, 38, 0
11, 11592, Note_on_c, 9, 42, 70
11, 11593, Note_on_c, 9, 42, 0
11, 11604, Note_on_c, 9, 35, 64
11, 11604, Note_on_c, 9, 42, 64
11, 11605, Note_on_c, 9, 42, 0
11, 11616, Note_on_c, 9, 35, 0
11, 11616, Note_on_c, 9, 35, 64
11, 11616, Note_on_c, 9, 42, 80
11, 11617, Note_on_c, 9, 35, 0
11, 11617, Note_on_c, 9, 42, 0
11, 11640, Note_on_c, 9, 42, 63
11, 11641, Note_on_c, 9, 42, 0
11, 11652, Note_on_c, 9, 42, 64
11, 11653, Note_on_c, 9, 42, 0
11, 11664, Note_on_c, 9, 38, 64
11, 11664, Note_on_c, 9, 42, 90
11, 11665, Note_on_c, 9, 42, 0
11, 11676, Note_on_c, 9, 38, 0
11, 11688, Note_on_c, 9, 35, 64
11, 11688, Note_on_c, 9, 42, 54
11, 11700, Note_on_c, 9, 35, 0
11, 11700, Note_on_c, 9, 42, 0
11, 11700, Note_on_c, 9, 42, 64
11, 11701, Note_on_c, 9, 42, 0
11, 11712, Note_on_c, 9, 35, 64
11, 11712, Note_on_c, 9, 42, 80
11, 11713, Note_on_c, 9, 42, 0
11, 11736, Note_on_c, 9, 35, 0
11, 11736, Note_on_c, 9, 42, 70
11, 11737, Note_on_c, 9, 42, 0
11, 11748, Note_on_c, 9, 42, 70
11, 11749, Note_on_c, 9, 42, 0
11, 11760, Note_on_c, 9, 38, 74
11, 11760, Note_on_c, 9, 42, 80
11, 11761, Note_on_c, 9, 42, 0
11, 11784, Note_on_c, 9, 38, 0
11, 11784, Note_on_c, 9, 42, 70
11, 11785, Note_on_c, 9, 42, 0
11, 11796, Note_on_c, 9, 35, 64
11, 11796, Note_on_c, 9, 42, 64
11, 11797, Note_on_c, 9, 42, 0
11, 11808, Note_on_c, 9, 35, 0
11, 11808, Note_on_c, 9, 35, 64
11, 11808, Note_on_c, 9, 42, 80
11, 11809, Note_on_c, 9, 35, 0
11, 11809, Note_on_c, 9, 42, 0
11, 11832, Note_on_c, 9, 35, 64
11, 11832, Note_on_c, 9, 42, 63
11, 11833, Note_on_c, 9, 35, 0
11, 11833, Note_on_c, 9, 42, 0
11, 11844, Note_on_c, 9, 42, 20
11, 11845, Note_on_c, 9, 42, 0
11, 11856, Note_on_c, 9, 38, 64
11, 11856, Note_on_c, 9, 42, 90
11, 11857, Note_on_c, 9, 42, 0
11, 11868, Note_on_c, 9, 38, 0
11, 11880, Note_on_c, 9, 35, 64
11, 11880, Note_on_c, 9, 42, 54
11, 11892, Note_on_c, 9, 35, 0
11, 11892, Note_on_c, 9, 42, 0
11, 11892, Note_on_c, 9, 42, 64
11, 11893, Note_on_c, 9, 42, 0
11, 11904, Note_on_c, 9, 35, 64
11, 11904, Note_on_c, 9, 42, 80
11, 11905, Note_on_c, 9, 42, 0
11, 11928, Note_on_c, 9, 35, 0
11, 11928, Note_on_c, 9, 42, 70
11, 11929, Note_on_c, 9, 42, 0
11, 11940, Note_on_c, 9, 42, 70
11, 11941, Note_on_c, 9, 42, 0
11, 11952, Note_on_c, 9, 38, 74
11, 11952, Note_on_c, 9, 42, 80
11, 11953, Note_on_c, 9, 42, 0
11, 11976, Note_on_c, 9, 38, 0
11, 11976, Note_on_c, 9, 42, 70
11, 11977, Note_on_c, 9, 42, 0
11, 11988, Note_on_c, 9, 35, 64
11, 11988, Note_on_c, 9, 42, 20
11, 11989, Note_on_c, 9, 42, 0
11, 12000, Note_on_c, 9, 35, 0
11, 12000, Note_on_c, 9, 35, 64
11, 12000, Note_on_c, 9, 42, 80
11, 12001, Note_on_c, 9, 35, 0
11, 12001, Note_on_c, 9, 42, 0
11, 12024, Note_on_c, 9, 42, 63
11, 12025, Note_on_c, 9, 42, 0
11, 12036, Note_on_c, 9, 42, 20
11, 12037, Note_on_c, 9, 42, 0
11, 12048, Note_on_c, 9, 38, 64
11, 12048, Note_on_c, 9, 42, 90
11, 12049, Note_on_c, 9, 42, 0
11, 12060, Note_on_c, 9, 38, 0
11, 12060, Note_on_c, 9, 42, 34
11, 12061, Note_on_c, 9, 42, 0
11, 12072, Note_on_c, 9, 35, 64
11, 12072, Note_on_c, 9, 42, 54
11, 12073, Note_on_c, 9, 42, 0
11, 12084, Note_on_c, 9, 35, 0
11, 12084, Note_on_c, 9, 42, 64
11, 12085, Note_on_c, 9, 42, 0
11, 12096, Note_on_c, 9, 35, 64
11, 12096, Note_on_c, 9, 42, 80
11, 12097, Note_on_c, 9, 42, 0
11, 12120, Note_on_c, 9, 35, 0
11, 12120, Note_on_c, 9, 42, 70
11, 12121, Note_on_c, 9, 42, 0
11, 12132, Note_on_c, 9, 42, 70
11, 12133, Note_on_c, 9, 42, 0
11, 12144, Note_on_c, 9, 38, 74
11, 12144, Note_on_c, 9, 42, 80
11, 12145, Note_on_c, 9, 42, 0
11, 12168, Note_on_c, 9, 38, 0
11, 12168, Note_on_c, 9, 42, 70
11, 12169, Note_on_c, 9, 42, 0
11, 12180, Note_on_c, 9, 35, 64
11, 12180, Note_on_c, 9, 42, 20
11, 12181, Note_on_c, 9, 42, 0
11, 12192, Note_on_c, 9, 35, 0
11, 12192, Note_on_c, 9, 35, 64
11, 12192, Note_on_c, 9, 42, 80
11, 12193, Note_on_c, 9, 35, 0
11, 12193, Note_on_c, 9, 42, 0
11, 12216, Note_on_c, 9, 35, 64
11, 12216, Note_on_c, 9, 42, 63
11, 12217, Note_on_c, 9, 35, 0
11, 12217, Note_on_c, 9, 42, 0
11, 12228, Note_on_c, 9, 42, 64
11, 12229, Note_on_c, 9, 42, 0
11, 12240, Note_on_c, 9, 38, 64
11, 12240, Note_on_c, 9, 42, 90
11, 12241, Note_on_c, 9, 42, 0
11, 12252, Note_on_c, 9, 38, 0
11, 12252, Note_on_c, 9, 42, 34
11, 12253, Note_on_c, 9, 42, 0
11, 12264, Note_on_c, 9, 35, 64
11, 12264, Note_on_c, 9, 42, 54
11, 12265, Note_on_c, 9, 42, 0
11, 12276, Note_on_c, 9, 35, 0
11, 12276, Note_on_c, 9, 46, 64
11, 12288, Note_on_c, 9, 46, 0
11, 12288, Control_c, 9, 7, 96
11, 12288, Note_on_c, 9, 35, 64
11, 12288, Note_on_c, 9, 42, 80
11, 12312, Note_on_c, 9, 35, 0
11, 12312, Note_on_c, 9, 42, 0
11, 12312, Note_on_c, 9, 42, 70
11, 12313, Note_on_c, 9, 42, 0
11, 12318, Control_c, 9, 7, 95
11, 12324, Note_on_c, 9, 42, 30
11, 12325, Note_on_c, 9, 42, 0
11, 12336, Note_on_c, 9, 38, 74
11, 12336, Note_on_c, 9, 42, 80
11, 12337, Note_on_c, 9, 42, 0
11, 12342, Control_c, 9, 7, 94
11, 12354, Control_c, 9, 7, 93
11, 12360, Note_on_c, 9, 38, 0
11, 12360, Note_on_c, 9, 42, 70
11, 12361, Note_on_c, 9, 42, 0
11, 12372, Note_on_c, 9, 35, 64
11, 12372, Note_on_c, 9, 42, 64
11, 12373, Note_on_c, 9, 42, 0
11, 12384, Note_on_c, 9, 35, 0
11, 12384, Note_on_c, 9, 35, 64
11, 12384, Note_on_c, 9, 42, 80
11, 12385, Note_on_c, 9, 35, 0
11, 12385, Note_on_c, 9, 42, 0
11, 12396, Control_c, 9, 7, 92
11, 12408, Note_on_c, 9, 42, 63
11, 12409, Note_on_c, 9, 42, 0
11, 12420, Control_c, 9, 7, 91
11, 12420, Note_on_c, 9, 42, 64
11, 12421, Note_on_c, 9, 42, 0
11, 12432, Control_c, 9, 7, 90
11, 12432, Note_on_c, 9, 38, 64
11, 12432, Note_on_c, 9, 42, 90
11, 12433, Note_on_c, 9, 42, 0
11, 12444, Note_on_c, 9, 38, 0
11, 12444, Note_on_c, 9, 42, 34
11, 12445, Note_on_c, 9, 42, 0
11, 12456, Note_on_c, 9, 35, 64
11, 12456, Note_on_c, 9, 42, 54
11, 12457, Note_on_c, 9, 42, 0
11, 12468, Note_on_c, 9, 35, 0
11, 12468, Note_on_c, 9, 42, 64
11, 12469, Note_on_c, 9, 42, 0
11, 12474, Control_c, 9, 7, 89
11, 12480, Note_on_c, 9, 35, 64
11, 12480, Note_on_c, 9, 42, 80
11, 12481, Note_on_c, 9, 42, 0
11, 12486, Control_c, 9, 7, 88
11, 12498, Control_c, 9, 7, 87
11, 12504, Note_on_c, 9, 35, 0
11, 12504, Note_on_c, 9, 42, 70
11, 12505, Note_on_c, 9, 42, 0
11, 12516, Note_on_c, 9, 42, 70
11, 12517, Note_on_c, 9, 42, 0
11, 12528, Control_c, 9, 7, 86
11, 12528, Note_on_c, 9, 38, 74
11, 12528, Note_on_c, 9, 42, 80
11, 12529, Note_on_c, 9, 42, 0
11, 12540, Control_c, 9, 7, 85
11, 12552, Note_on_c, 9, 38, 0
11, 12552, Control_c, 9, 7, 84
11, 12552, Note_on_c, 9, 42, 70
11, 12553, Note_on_c, 9, 42, 0
11, 12564, Note_on_c, 9, 35, 64
11, 12564, Note_on_c, 9, 42, 64
11, 12565, Note_on_c, 9, 42, 0
11, 12576, Note_on_c, 9, 35, 0
11, 12576, Control_c, 9, 7, 83
11, 12576, Note_on_c, 9, 35, 64
11, 12576, Note_on_c, 9, 42, 80
11, 12577, Note_on_c, 9, 35, 0
11, 12577, Note_on_c, 9, 42, 0
11, 12588, Control_c, 9, 7, 82
11, 12600, Note_on_c, 9, 35, 64
11, 12600, Note_on_c, 9, 42, 63
11, 12601, Note_on_c, 9, 35, 0
11, 12601, Note_on_c, 9, 42, 0
11, 12606, Control_c, 9, 7, 81
11, 12612, Note_on_c, 9, 42, 20
11, 12613, Note_on_c, 9, 42, 0
11, 12624, Note_on_c, 9, 38, 64
11, 12624, Note_on_c, 9, 42, 90
11, 12625, Note_on_c, 9, 42, 0
11, 12630, Control_c, 9, 7, 80
11, 12636, Note_on_c, 9, 38, 0
11, 12636, Control_c, 9, 7, 79
11, 12636, Note_on_c, 9, 42, 34
11, 12637, Note_on_c, 9, 42, 0
11, 12642, Control_c, 9, 7, 78
11, 12648, Note_on_c, 9, 35, 64
11, 12648, Note_on_c, 9, 42, 54
11, 12649, Note_on_c, 9, 42, 0
11, 12660, Note_on_c, 9, 35, 0
11, 12660, Control_c, 9, 7, 77
11, 12660, Note_on_c, 9, 46, 64
11, 12672, Note_on_c, 9, 46, 0
11, 12672, Control_c, 9, 7, 76
11, 12672, Note_on_c, 9, 35, 64
11, 12672, Note_on_c, 9, 42, 80
11, 12684, Control_c, 9, 7, 75
11, 12696, Note_on_c, 9, 35, 0
11, 12696, Note_on_c, 9, 42, 0
11, 12696, Control_c, 9, 7, 74
11, 12696, Note_on_c, 9, 42, 70
11, 12697, Note_on_c, 9, 42, 0
11, 12708, Control_c, 9, 7, 73
11, 12708, Note_on_c, 9, 42, 70
11, 12709, Note_on_c, 9, 42, 0
11, 12714, Control_c, 9, 7, 72
11, 12720, Note_on_c, 9, 38, 74
11, 12720, Note_on_c, 9, 42, 80
11, 12721, Note_on_c, 9, 42, 0
11, 12726, Control_c, 9, 7, 71
11, 12732, Control_c, 9, 7, 70
11, 12738, Control_c, 9, 7, 69
11, 12744, Note_on_c, 9, 38, 0
11, 12744, Note_on_c, 9, 42, 70
11, 12745, Note_on_c, 9, 42, 0
11, 12750, Control_c, 9, 7, 68
11, 12756, Note_on_c, 9, 35, 64
11, 12756, Note_on_c, 9, 42, 20
11, 12757, Note_on_c, 9, 42, 0
11, 12762, Control_c, 9, 7, 67
11, 12768, Note_on_c, 9, 35, 0
11, 12768, Control_c, 9, 7, 66
11, 12768, Note_on_c, 9, 35, 64
11, 12768, Note_on_c, 9, 42, 80
11, 12769, Note_on_c, 9, 35, 0
11, 12769, Note_on_c, 9, 42, 0
11, 12780, Control_c, 9, 7, 65
11, 12786, Control_c, 9, 7, 63
11, 12792, Control_c, 9, 7, 62
11, 12792, Note_on_c, 9, 42, 63
11, 12793, Note_on_c, 9, 42, 0
11, 12798, Control_c, 9, 7, 61
11, 12804, Control_c, 9, 7, 60
11, 12804, Note_on_c, 9, 42, 20
11, 12805, Note_on_c, 9, 42, 0
11, 12810, Control_c, 9, 7, 59
11, 12816, Control_c, 9, 7, 57
11, 12816, Note_on_c, 9, 38, 64
11, 12816, Note_on_c, 9, 42, 90
11, 12817, Note_on_c, 9, 42, 0
11, 12822, Control_c, 9, 7, 56
11, 12828, Note_on_c, 9, 38, 0
11, 12828, Control_c, 9, 7, 55
11, 12834, Control_c, 9, 7, 54
11, 12840, Control_c, 9, 7, 52
11, 12840, Note_on_c, 9, 35, 64
11, 12840, Note_on_c, 9, 42, 54
11, 12846, Control_c, 9, 7, 50
11, 12852, Note_on_c, 9, 35, 0
11, 12852, Note_on_c, 9, 42, 0
11, 12852, Control_c, 9, 7, 48
11, 12852, Note_on_c, 9, 42, 64
11, 12853, Note_on_c, 9, 42, 0
11, 12858, Control_c, 9, 7, 47
11, 12864, Control_c, 9, 7, 44
11, 12864, Note_on_c, 9, 35, 64
11, 12864, Note_on_c, 9, 42, 70
11, 12865, Note_on_c, 9, 42, 0
11, 12870, Control_c, 9, 7, 41
11, 12876, Control_c, 9, 7, 38
11, 12882, Control_c, 9, 7, 35
11, 12888, Note_on_c, 9, 35, 0
11, 12888, Control_c, 9, 7, 28
11, 12888, Note_on_c, 9, 42, 60
11, 12889, Note_on_c, 9, 42, 0
11, 12894, Control_c, 9, 7, 21
11, 12900, Control_c, 9, 7, 14
11, 12906, Control_c, 9, 7, 0
11, 12912, Control_c, 9, 7, 0
11, 12912, Note_on_c, 9, 38, 74
11, 12912, Note_on_c, 9, 42, 70
11, 12913, Note_on_c, 9, 42, 0
11, 12936, Note_on_c, 9, 38, 0
11, 12936, Note_on_c, 9, 35, 54
11, 12936, Note_on_c, 9, 42, 60
11, 12937, Note_on_c, 9, 42, 0
11, 12960, Note_on_c, 9, 35, 0
11, 12960, Note_on_c, 9, 35, 64
11, 12960, Note_on_c, 9, 42, 70
11, 12961, Note_on_c, 9, 35, 0
11, 12961, Note_on_c, 9, 42, 0
11, 12984, Note_on_c, 9, 35, 64
11, 12984, Note_on_c, 9, 42, 60
11, 12985, Note_on_c, 9, 35, 0
11, 12985, Note_on_c, 9, 42, 0
11, 13008, Note_on_c, 9, 38, 74
11, 13008, Note_on_c, 9, 42, 70
11, 13020, Note_on_c, 9, 38, 0
11, 13020, Note_on_c, 9, 42, 0
11, 13020, Note_on_c, 9, 42, 60
11, 13021, Note_on_c, 9, 42, 0
11, 13032, Note_on_c, 9, 38, 84
11, 13032, Note_on_c, 9, 46, 74
11, 13044, Note_on_c, 9, 38, 0
11, 13044, Note_on_c, 9, 46, 0
11, 13044, Note_on_c, 9, 38, 64
11, 13044, Note_on_c, 9, 42, 74
11, 13045, Note_on_c, 9, 38, 0
11, 13056, Note_on_c, 9, 42, 0
11, 13056, End_track
0, 0, End_of_file
