0, 0, Header, 1, 20, 240
1, 0, Start_track
1, 0, Time_signature, 4, 2, 24, 8
1, 0, Tempo, 500000
1, 1352, Tempo, 714286
1, 1920, Marker_t, "AUTUMN IN NEW YORK............................................."
1, 80640, Marker_t, "thanks for listening................................."
1, 80640, End_track
2, 0, Start_track
2, 0, Title_t, "   "" AUTUMN IN NEW YORK """
2, 0, End_track
3, 0, Start_track
3, 0, End_track
4, 0, Start_track
4, 0, Title_t, "Orchestration & midi prep by"
4, 0, End_track
5, 0, Start_track
5, 0, Title_t, "              MEL WEBB"
5, 0, End_track
6, 0, Start_track
6, 0, End_track
7, 0, Start_track
7, 0, Title_t, "Bass / Acoustic bass"
7, 0, Program_c, 1, 32
7, 0, Control_c, 1, 7, 75
7, 0, Control_c, 1, 121, 0
7, 0, Control_c, 1, 10, 64
7, 0, Control_c, 1, 123, 0
7, 0, Control_c, 1, 91, 40
7, 0, Control_c, 1, 93, 0
7, 0, Control_c, 1, 64, 0
7, 2400, Note_on_c, 1, 33, 80
7, 2788, Note_off_c, 1, 33, 64
7, 2816, Note_on_c, 1, 33, 81
7, 2880, Note_off_c, 1, 33, 64
7, 2880, Note_on_c, 1, 34, 81
7, 3006, Note_off_c, 1, 34, 64
7, 3056, Note_on_c, 1, 34, 71
7, 3120, Note_on_c, 1, 41, 73
7, 3136, Note_off_c, 1, 34, 64
7, 3360, Note_off_c, 1, 41, 64
7, 3360, Note_on_c, 1, 36, 82
7, 3840, Note_off_c, 1, 36, 64
7, 3840, Note_on_c, 1, 41, 80
7, 4228, Note_off_c, 1, 41, 64
7, 4256, Note_on_c, 1, 42, 81
7, 4320, Note_off_c, 1, 42, 64
7, 4320, Note_on_c, 1, 43, 81
7, 4446, Note_off_c, 1, 43, 64
7, 4496, Note_on_c, 1, 43, 71
7, 4560, Note_on_c, 1, 50, 73
7, 4576, Note_off_c, 1, 43, 64
7, 4800, Note_off_c, 1, 50, 64
7, 4800, Note_on_c, 1, 33, 82
7, 5280, Note_off_c, 1, 33, 64
7, 5280, Note_on_c, 1, 38, 70
7, 5760, Note_off_c, 1, 38, 64
7, 5760, Note_on_c, 1, 43, 85
7, 6160, Note_off_c, 1, 43, 64
7, 6160, Note_on_c, 1, 31, 55
7, 6198, Note_off_c, 1, 31, 64
7, 6240, Note_on_c, 1, 33, 76
7, 6656, Note_off_c, 1, 33, 64
7, 6656, Note_on_c, 1, 35, 78
7, 6720, Note_off_c, 1, 35, 64
7, 6720, Note_on_c, 1, 34, 85
7, 7040, Note_on_c, 1, 22, 47
7, 7060, Note_off_c, 1, 34, 64
7, 7094, Note_off_c, 1, 22, 64
7, 7120, Note_on_c, 1, 34, 82
7, 7144, Note_off_c, 1, 34, 64
7, 7200, Note_on_c, 1, 36, 82
7, 7680, Note_off_c, 1, 36, 64
7, 7680, Note_on_c, 1, 33, 89
7, 8174, Note_off_c, 1, 33, 64
7, 8174, Note_on_c, 1, 39, 82
7, 8596, Note_off_c, 1, 39, 64
7, 8640, Note_on_c, 1, 38, 78
7, 9110, Note_off_c, 1, 38, 64
7, 9120, Note_on_c, 1, 45, 82
7, 9536, Note_on_c, 1, 26, 60
7, 9550, Note_off_c, 1, 45, 64
7, 9558, Note_off_c, 1, 26, 64
7, 9600, Note_on_c, 1, 43, 78
7, 10070, Note_off_c, 1, 43, 64
7, 10080, Note_on_c, 1, 38, 82
7, 10496, Note_on_c, 1, 31, 60
7, 10510, Note_off_c, 1, 38, 64
7, 10518, Note_off_c, 1, 31, 64
7, 10560, Note_on_c, 1, 34, 73
7, 10976, Note_off_c, 1, 34, 64
7, 10976, Note_on_c, 1, 41, 68
7, 11040, Note_off_c, 1, 41, 64
7, 11040, Note_on_c, 1, 39, 82
7, 11520, Note_off_c, 1, 39, 64
7, 11520, Note_on_c, 1, 44, 78
7, 11990, Note_off_c, 1, 44, 64
7, 12000, Note_on_c, 1, 39, 82
7, 12416, Note_on_c, 1, 32, 60
7, 12430, Note_off_c, 1, 39, 64
7, 12438, Note_off_c, 1, 32, 64
7, 12480, Note_on_c, 1, 44, 70
7, 12960, Note_off_c, 1, 44, 64
7, 12960, Note_on_c, 1, 38, 85
7, 13360, Note_off_c, 1, 38, 64
7, 13360, Note_on_c, 1, 26, 55
7, 13398, Note_off_c, 1, 26, 64
7, 13440, Note_on_c, 1, 36, 82
7, 13920, Note_off_c, 1, 36, 64
7, 13920, Note_on_c, 1, 33, 80
7, 14308, Note_off_c, 1, 33, 64
7, 14336, Note_on_c, 1, 37, 81
7, 14400, Note_off_c, 1, 37, 64
7, 14400, Note_on_c, 1, 38, 82
7, 14880, Note_off_c, 1, 38, 64
7, 14880, Note_on_c, 1, 43, 70
7, 15360, Note_off_c, 1, 43, 64
7, 15360, Note_on_c, 1, 36, 89
7, 15854, Note_off_c, 1, 36, 64
7, 15854, Note_on_c, 1, 31, 82
7, 16276, Note_off_c, 1, 31, 64
7, 16320, Note_on_c, 1, 33, 73
7, 16736, Note_off_c, 1, 33, 64
7, 16736, Note_on_c, 1, 40, 68
7, 16800, Note_off_c, 1, 40, 64
7, 16800, Note_on_c, 1, 38, 70
7, 17280, Note_off_c, 1, 38, 64
7, 17280, Note_on_c, 1, 43, 67
7, 17520, Note_off_c, 1, 43, 64
7, 17520, Note_on_c, 1, 43, 74
7, 17760, Note_off_c, 1, 43, 64
7, 17760, Note_on_c, 1, 33, 84
7, 17936, Note_on_c, 1, 28, 60
7, 17976, Note_off_c, 1, 28, 64
7, 17990, Note_off_c, 1, 33, 64
7, 18000, Note_on_c, 1, 40, 77
7, 18176, Note_off_c, 1, 40, 64
7, 18176, Note_on_c, 1, 28, 62
7, 18210, Note_off_c, 1, 28, 64
7, 18240, Note_on_c, 1, 34, 69
7, 18388, Note_off_c, 1, 34, 64
7, 18416, Note_on_c, 1, 34, 81
7, 18468, Note_off_c, 1, 34, 64
7, 18480, Note_on_c, 1, 35, 62
7, 18720, Note_off_c, 1, 35, 64
7, 18720, Note_on_c, 1, 36, 72
7, 18896, Note_on_c, 1, 24, 65
7, 18902, Note_off_c, 1, 36, 64
7, 18958, Note_off_c, 1, 24, 64
7, 18960, Note_on_c, 1, 36, 74
7, 19198, Note_off_c, 1, 36, 64
7, 19200, Note_on_c, 1, 41, 72
7, 19376, Note_on_c, 1, 29, 65
7, 19382, Note_off_c, 1, 41, 64
7, 19438, Note_off_c, 1, 29, 64
7, 19440, Note_on_c, 1, 41, 74
7, 19678, Note_off_c, 1, 41, 64
7, 19680, Note_on_c, 1, 43, 77
7, 19808, Note_off_c, 1, 43, 64
7, 19858, Note_on_c, 1, 43, 70
7, 19920, Note_on_c, 1, 50, 63
7, 19928, Note_off_c, 1, 43, 64
7, 20160, Note_off_c, 1, 50, 64
7, 20160, Note_on_c, 1, 33, 31
7, 20160, Note_on_c, 1, 33, 71
7, 20161, Note_off_c, 1, 33, 64
7, 20400, Note_off_c, 1, 33, 64
7, 20400, Note_on_c, 1, 45, 80
7, 20480, Note_on_c, 1, 40, 64
7, 20528, Note_off_c, 1, 45, 64
7, 20560, Note_on_c, 1, 33, 79
7, 20600, Note_off_c, 1, 40, 64
7, 20640, Note_off_c, 1, 33, 64
7, 20640, Note_on_c, 1, 38, 67
7, 20820, Note_off_c, 1, 38, 64
7, 20820, Note_on_c, 1, 26, 64
7, 20836, Note_off_c, 1, 26, 64
7, 20880, Note_on_c, 1, 37, 67
7, 21060, Note_off_c, 1, 37, 64
7, 21060, Note_on_c, 1, 25, 64
7, 21076, Note_off_c, 1, 25, 64
7, 21120, Note_on_c, 1, 36, 73
7, 21348, Note_off_c, 1, 36, 64
7, 21360, Note_on_c, 1, 37, 67
7, 21600, Note_off_c, 1, 37, 64
7, 21600, Note_on_c, 1, 38, 84
7, 21776, Note_on_c, 1, 33, 60
7, 21816, Note_off_c, 1, 33, 64
7, 21830, Note_off_c, 1, 38, 64
7, 21840, Note_on_c, 1, 45, 77
7, 22016, Note_off_c, 1, 45, 64
7, 22016, Note_on_c, 1, 33, 62
7, 22050, Note_off_c, 1, 33, 64
7, 22080, Note_on_c, 1, 39, 84
7, 22256, Note_on_c, 1, 34, 60
7, 22296, Note_off_c, 1, 34, 64
7, 22310, Note_off_c, 1, 39, 64
7, 22320, Note_on_c, 1, 46, 77
7, 22496, Note_off_c, 1, 46, 64
7, 22496, Note_on_c, 1, 34, 62
7, 22530, Note_off_c, 1, 34, 64
7, 22560, Note_on_c, 1, 41, 77
7, 22688, Note_off_c, 1, 41, 64
7, 22738, Note_on_c, 1, 41, 70
7, 22800, Note_on_c, 1, 48, 63
7, 22808, Note_off_c, 1, 41, 64
7, 23040, Note_off_c, 1, 48, 64
7, 23040, Note_on_c, 1, 34, 72
7, 23216, Note_on_c, 1, 22, 65
7, 23222, Note_off_c, 1, 34, 64
7, 23278, Note_off_c, 1, 22, 64
7, 23280, Note_on_c, 1, 34, 74
7, 23518, Note_off_c, 1, 34, 64
7, 23520, Note_on_c, 1, 44, 64
7, 23722, Note_off_c, 1, 44, 64
7, 23760, Note_on_c, 1, 44, 79
7, 24000, Note_off_c, 1, 44, 64
7, 24000, Note_on_c, 1, 42, 76
7, 24240, Note_on_c, 1, 54, 59
7, 24258, Note_off_c, 1, 42, 64
7, 24480, Note_on_c, 1, 49, 71
7, 24508, Note_off_c, 1, 54, 64
7, 24720, Note_on_c, 1, 46, 77
7, 24726, Note_off_c, 1, 49, 64
7, 24960, Note_off_c, 1, 46, 64
7, 24960, Note_on_c, 1, 41, 72
7, 25136, Note_on_c, 1, 29, 65
7, 25142, Note_off_c, 1, 41, 64
7, 25198, Note_off_c, 1, 29, 64
7, 25200, Note_on_c, 1, 41, 74
7, 25438, Note_off_c, 1, 41, 64
7, 25440, Note_on_c, 1, 36, 72
7, 25680, Note_on_c, 1, 40, 69
7, 25710, Note_off_c, 1, 36, 64
7, 25898, Note_off_c, 1, 40, 64
7, 25920, Note_on_c, 1, 41, 73
7, 26148, Note_off_c, 1, 41, 64
7, 26160, Note_on_c, 1, 43, 67
7, 26400, Note_off_c, 1, 43, 64
7, 26400, Note_on_c, 1, 44, 78
7, 26568, Note_on_c, 1, 32, 55
7, 26616, Note_off_c, 1, 44, 64
7, 26632, Note_off_c, 1, 32, 64
7, 26640, Note_on_c, 1, 38, 78
7, 26880, Note_off_c, 1, 38, 64
7, 26880, Note_on_c, 1, 37, 73
7, 27108, Note_off_c, 1, 37, 64
7, 27120, Note_on_c, 1, 43, 67
7, 27360, Note_off_c, 1, 43, 64
7, 27360, Note_on_c, 1, 44, 73
7, 27588, Note_off_c, 1, 44, 64
7, 27600, Note_on_c, 1, 36, 67
7, 27840, Note_off_c, 1, 36, 64
7, 27840, Note_on_c, 1, 37, 69
7, 27988, Note_off_c, 1, 37, 64
7, 28016, Note_on_c, 1, 37, 81
7, 28068, Note_off_c, 1, 37, 64
7, 28080, Note_on_c, 1, 37, 62
7, 28320, Note_off_c, 1, 37, 64
7, 28320, Note_on_c, 1, 38, 64
7, 28522, Note_off_c, 1, 38, 64
7, 28560, Note_on_c, 1, 38, 79
7, 28800, Note_off_c, 1, 38, 64
7, 28800, Note_on_c, 1, 43, 71
7, 29040, Note_on_c, 1, 50, 70
7, 29084, Note_off_c, 1, 43, 64
7, 29280, Note_off_c, 1, 50, 64
7, 29280, Note_on_c, 1, 33, 77
7, 29408, Note_off_c, 1, 33, 64
7, 29458, Note_on_c, 1, 33, 70
7, 29520, Note_on_c, 1, 40, 63
7, 29528, Note_off_c, 1, 33, 64
7, 29760, Note_off_c, 1, 40, 64
7, 29760, Note_on_c, 1, 34, 84
7, 29936, Note_on_c, 1, 29, 60
7, 29976, Note_off_c, 1, 29, 64
7, 29990, Note_off_c, 1, 34, 64
7, 30000, Note_on_c, 1, 41, 77
7, 30176, Note_off_c, 1, 41, 64
7, 30176, Note_on_c, 1, 29, 62
7, 30210, Note_off_c, 1, 29, 64
7, 30240, Note_on_c, 1, 36, 84
7, 30416, Note_on_c, 1, 31, 60
7, 30456, Note_off_c, 1, 31, 64
7, 30470, Note_off_c, 1, 36, 64
7, 30480, Note_on_c, 1, 43, 77
7, 30656, Note_off_c, 1, 43, 64
7, 30656, Note_on_c, 1, 31, 62
7, 30690, Note_off_c, 1, 31, 64
7, 30720, Note_on_c, 1, 41, 76
7, 30960, Note_on_c, 1, 53, 59
7, 30978, Note_off_c, 1, 41, 64
7, 31200, Note_on_c, 1, 48, 71
7, 31228, Note_off_c, 1, 53, 64
7, 31440, Note_on_c, 1, 44, 77
7, 31446, Note_off_c, 1, 48, 64
7, 31680, Note_off_c, 1, 44, 64
7, 31680, Note_on_c, 1, 41, 71
7, 31920, Note_on_c, 1, 48, 70
7, 31964, Note_off_c, 1, 41, 64
7, 32160, Note_off_c, 1, 48, 64
7, 32160, Note_on_c, 1, 38, 71
7, 32400, Note_on_c, 1, 45, 70
7, 32444, Note_off_c, 1, 38, 64
7, 32640, Note_off_c, 1, 45, 64
7, 32640, Note_on_c, 1, 45, 71
7, 32880, Note_on_c, 1, 40, 70
7, 32910, Note_off_c, 1, 45, 64
7, 33120, Note_off_c, 1, 40, 64
7, 33120, Note_on_c, 1, 33, 71
7, 33360, Note_on_c, 1, 40, 70
7, 33404, Note_off_c, 1, 33, 64
7, 33600, Note_off_c, 1, 40, 64
7, 33600, Note_on_c, 1, 34, 78
7, 33768, Note_on_c, 1, 22, 55
7, 33816, Note_off_c, 1, 34, 64
7, 33832, Note_off_c, 1, 22, 64
7, 33840, Note_on_c, 1, 37, 78
7, 34080, Note_off_c, 1, 37, 64
7, 34080, Note_on_c, 1, 36, 73
7, 34308, Note_off_c, 1, 36, 64
7, 34320, Note_on_c, 1, 40, 67
7, 34560, Note_off_c, 1, 40, 64
7, 34560, Note_on_c, 1, 41, 71
7, 34800, Note_on_c, 1, 48, 70
7, 34844, Note_off_c, 1, 41, 64
7, 35040, Note_off_c, 1, 48, 64
7, 35040, Note_on_c, 1, 43, 69
7, 35188, Note_off_c, 1, 43, 64
7, 35216, Note_on_c, 1, 43, 81
7, 35268, Note_off_c, 1, 43, 64
7, 35280, Note_on_c, 1, 32, 62
7, 35520, Note_off_c, 1, 32, 64
7, 35520, Note_on_c, 1, 33, 77
7, 35648, Note_off_c, 1, 33, 64
7, 35698, Note_on_c, 1, 33, 70
7, 35760, Note_on_c, 1, 40, 63
7, 35768, Note_off_c, 1, 33, 64
7, 36000, Note_off_c, 1, 40, 64
7, 36000, Note_on_c, 1, 38, 84
7, 36176, Note_on_c, 1, 33, 60
7, 36216, Note_off_c, 1, 33, 64
7, 36230, Note_off_c, 1, 38, 64
7, 36240, Note_on_c, 1, 45, 77
7, 36416, Note_off_c, 1, 45, 64
7, 36416, Note_on_c, 1, 33, 62
7, 36450, Note_off_c, 1, 33, 64
7, 36480, Note_on_c, 1, 43, 78
7, 36648, Note_on_c, 1, 31, 55
7, 36696, Note_off_c, 1, 43, 64
7, 36712, Note_off_c, 1, 31, 64
7, 36720, Note_on_c, 1, 34, 78
7, 36960, Note_off_c, 1, 34, 64
7, 36960, Note_on_c, 1, 33, 73
7, 37188, Note_off_c, 1, 33, 64
7, 37200, Note_on_c, 1, 33, 67
7, 37440, Note_off_c, 1, 33, 64
7, 37440, Note_on_c, 1, 34, 67
7, 37680, Note_off_c, 1, 34, 64
7, 37680, Note_on_c, 1, 37, 74
7, 37920, Note_off_c, 1, 37, 64
7, 37920, Note_on_c, 1, 48, 68
7, 37996, Note_off_c, 1, 48, 64
7, 38102, Note_on_c, 1, 48, 54
7, 38170, Note_on_c, 1, 43, 75
7, 38178, Note_off_c, 1, 48, 64
7, 38400, Note_off_c, 1, 43, 64
7, 38400, Note_on_c, 1, 33, 85
7, 38488, Note_off_c, 1, 33, 64
7, 38578, Note_on_c, 1, 33, 73
7, 38640, Note_on_c, 1, 34, 64
7, 38682, Note_off_c, 1, 33, 64
7, 38880, Note_off_c, 1, 34, 64
7, 38880, Note_on_c, 1, 36, 75
7, 39118, Note_off_c, 1, 36, 64
7, 39120, Note_on_c, 1, 39, 67
7, 39360, Note_off_c, 1, 39, 64
7, 39360, Note_on_c, 1, 38, 69
7, 39600, Note_on_c, 1, 45, 67
7, 39644, Note_off_c, 1, 38, 64
7, 39840, Note_on_c, 1, 50, 73
7, 39858, Note_off_c, 1, 45, 64
7, 40080, Note_on_c, 1, 45, 84
7, 40090, Note_off_c, 1, 50, 64
7, 40248, Note_on_c, 1, 44, 60
7, 40262, Note_off_c, 1, 45, 64
7, 40320, Note_off_c, 1, 44, 64
7, 40320, Note_on_c, 1, 43, 71
7, 40560, Note_on_c, 1, 45, 73
7, 40600, Note_off_c, 1, 43, 64
7, 40800, Note_on_c, 1, 46, 68
7, 40822, Note_off_c, 1, 45, 64
7, 41040, Note_on_c, 1, 50, 69
7, 41080, Note_off_c, 1, 46, 64
7, 41280, Note_off_c, 1, 50, 64
7, 41280, Note_on_c, 1, 34, 73
7, 41508, Note_off_c, 1, 34, 64
7, 41520, Note_on_c, 1, 38, 67
7, 41760, Note_off_c, 1, 38, 64
7, 41760, Note_on_c, 1, 39, 69
7, 41908, Note_off_c, 1, 39, 64
7, 41936, Note_on_c, 1, 39, 81
7, 41988, Note_off_c, 1, 39, 64
7, 42000, Note_on_c, 1, 43, 62
7, 42240, Note_off_c, 1, 43, 64
7, 42240, Note_on_c, 1, 44, 78
7, 42416, Note_on_c, 1, 39, 57
7, 42424, Note_off_c, 1, 44, 64
7, 42454, Note_off_c, 1, 39, 64
7, 42480, Note_on_c, 1, 46, 76
7, 42718, Note_off_c, 1, 46, 64
7, 42720, Note_on_c, 1, 48, 83
7, 42876, Note_off_c, 1, 48, 64
7, 42896, Note_on_c, 1, 39, 61
7, 42932, Note_off_c, 1, 39, 64
7, 42960, Note_on_c, 1, 51, 85
7, 43120, Note_off_c, 1, 51, 64
7, 43136, Note_on_c, 1, 39, 54
7, 43156, Note_off_c, 1, 39, 64
7, 43200, Note_on_c, 1, 44, 77
7, 43328, Note_off_c, 1, 44, 64
7, 43378, Note_on_c, 1, 44, 70
7, 43440, Note_on_c, 1, 51, 63
7, 43448, Note_off_c, 1, 44, 64
7, 43680, Note_off_c, 1, 51, 64
7, 43680, Note_on_c, 1, 38, 64
7, 43882, Note_off_c, 1, 38, 64
7, 43920, Note_on_c, 1, 38, 79
7, 44160, Note_off_c, 1, 38, 64
7, 44160, Note_on_c, 1, 36, 67
7, 44400, Note_off_c, 1, 36, 64
7, 44400, Note_on_c, 1, 36, 74
7, 44640, Note_off_c, 1, 36, 64
7, 44640, Note_on_c, 1, 33, 72
7, 44816, Note_on_c, 1, 21, 65
7, 44822, Note_off_c, 1, 33, 64
7, 44878, Note_off_c, 1, 21, 64
7, 44880, Note_on_c, 1, 33, 74
7, 45118, Note_off_c, 1, 33, 64
7, 45120, Note_on_c, 1, 38, 73
7, 45348, Note_off_c, 1, 38, 64
7, 45360, Note_on_c, 1, 42, 67
7, 45600, Note_off_c, 1, 42, 64
7, 45600, Note_on_c, 1, 43, 71
7, 45840, Note_on_c, 1, 50, 70
7, 45884, Note_off_c, 1, 43, 64
7, 46080, Note_off_c, 1, 50, 64
7, 46080, Note_on_c, 1, 36, 89
7, 46258, Note_on_c, 1, 31, 40
7, 46266, Note_off_c, 1, 36, 64
7, 46320, Note_off_c, 1, 31, 64
7, 46320, Note_on_c, 1, 43, 72
7, 46530, Note_off_c, 1, 43, 64
7, 46560, Note_on_c, 1, 40, 80
7, 46800, Note_off_c, 1, 40, 64
7, 46800, Note_on_c, 1, 36, 82
7, 46902, Note_off_c, 1, 36, 64
7, 46978, Note_on_c, 1, 31, 60
7, 47040, Note_off_c, 1, 31, 64
7, 47040, Note_on_c, 1, 33, 72
7, 47216, Note_on_c, 1, 21, 65
7, 47222, Note_off_c, 1, 33, 64
7, 47278, Note_off_c, 1, 21, 64
7, 47280, Note_on_c, 1, 33, 74
7, 47518, Note_off_c, 1, 33, 64
7, 47520, Note_on_c, 1, 38, 64
7, 47722, Note_off_c, 1, 38, 64
7, 47760, Note_on_c, 1, 38, 79
7, 48000, Note_off_c, 1, 38, 64
7, 48000, Note_on_c, 1, 43, 73
7, 48228, Note_off_c, 1, 43, 64
7, 48240, Note_on_c, 1, 32, 67
7, 48480, Note_off_c, 1, 32, 64
7, 48480, Note_on_c, 1, 33, 73
7, 48708, Note_off_c, 1, 33, 64
7, 48720, Note_on_c, 1, 33, 67
7, 48960, Note_off_c, 1, 33, 64
7, 48960, Note_on_c, 1, 34, 78
7, 49128, Note_on_c, 1, 22, 55
7, 49176, Note_off_c, 1, 34, 64
7, 49192, Note_off_c, 1, 22, 64
7, 49200, Note_on_c, 1, 37, 78
7, 49440, Note_off_c, 1, 37, 64
7, 49440, Note_on_c, 1, 36, 73
7, 49668, Note_off_c, 1, 36, 64
7, 49680, Note_on_c, 1, 40, 67
7, 49920, Note_off_c, 1, 40, 64
7, 49920, Note_on_c, 1, 41, 77
7, 50048, Note_off_c, 1, 41, 64
7, 50098, Note_on_c, 1, 41, 70
7, 50160, Note_on_c, 1, 48, 63
7, 50168, Note_off_c, 1, 41, 64
7, 50400, Note_off_c, 1, 48, 64
7, 50400, Note_on_c, 1, 43, 72
7, 50576, Note_on_c, 1, 31, 65
7, 50582, Note_off_c, 1, 43, 64
7, 50638, Note_off_c, 1, 31, 64
7, 50640, Note_on_c, 1, 43, 74
7, 50878, Note_off_c, 1, 43, 64
7, 50880, Note_on_c, 1, 45, 71
7, 51120, Note_on_c, 1, 40, 70
7, 51150, Note_off_c, 1, 45, 64
7, 51360, Note_off_c, 1, 40, 64
7, 51360, Note_on_c, 1, 38, 67
7, 51540, Note_off_c, 1, 38, 64
7, 51540, Note_on_c, 1, 26, 64
7, 51556, Note_off_c, 1, 26, 64
7, 51600, Note_on_c, 1, 37, 65
7, 51840, Note_off_c, 1, 37, 64
7, 51840, Note_on_c, 1, 36, 71
7, 52080, Note_on_c, 1, 43, 70
7, 52124, Note_off_c, 1, 36, 64
7, 52320, Note_off_c, 1, 43, 64
7, 52320, Note_on_c, 1, 38, 69
7, 52468, Note_off_c, 1, 38, 64
7, 52496, Note_on_c, 1, 38, 81
7, 52548, Note_off_c, 1, 38, 64
7, 52560, Note_on_c, 1, 38, 62
7, 52800, Note_off_c, 1, 38, 64
7, 52800, Note_on_c, 1, 39, 72
7, 52976, Note_on_c, 1, 27, 65
7, 52982, Note_off_c, 1, 39, 64
7, 53038, Note_off_c, 1, 27, 64
7, 53040, Note_on_c, 1, 39, 74
7, 53278, Note_off_c, 1, 39, 64
7, 53280, Note_on_c, 1, 41, 67
7, 53520, Note_off_c, 1, 41, 64
7, 53520, Note_on_c, 1, 35, 74
7, 53760, Note_off_c, 1, 35, 64
7, 53760, Note_on_c, 1, 34, 73
7, 53988, Note_off_c, 1, 34, 64
7, 54000, Note_on_c, 1, 43, 67
7, 54240, Note_off_c, 1, 43, 64
7, 54240, Note_on_c, 1, 44, 72
7, 54416, Note_on_c, 1, 32, 65
7, 54422, Note_off_c, 1, 44, 64
7, 54478, Note_off_c, 1, 32, 64
7, 54480, Note_on_c, 1, 44, 74
7, 54718, Note_off_c, 1, 44, 64
7, 54720, Note_on_c, 1, 42, 76
7, 54960, Note_on_c, 1, 54, 59
7, 54978, Note_off_c, 1, 42, 64
7, 55200, Note_on_c, 1, 49, 71
7, 55228, Note_off_c, 1, 54, 64
7, 55440, Note_on_c, 1, 46, 77
7, 55446, Note_off_c, 1, 49, 64
7, 55680, Note_off_c, 1, 46, 64
7, 55680, Note_on_c, 1, 41, 71
7, 55920, Note_on_c, 1, 48, 70
7, 55964, Note_off_c, 1, 41, 64
7, 56160, Note_off_c, 1, 48, 64
7, 56160, Note_on_c, 1, 36, 69
7, 56308, Note_off_c, 1, 36, 64
7, 56336, Note_on_c, 1, 36, 81
7, 56388, Note_off_c, 1, 36, 64
7, 56400, Note_on_c, 1, 40, 62
7, 56640, Note_off_c, 1, 40, 64
7, 56640, Note_on_c, 1, 41, 77
7, 56768, Note_off_c, 1, 41, 64
7, 56818, Note_on_c, 1, 41, 70
7, 56880, Note_on_c, 1, 48, 63
7, 56888, Note_off_c, 1, 41, 64
7, 57120, Note_off_c, 1, 48, 64
7, 57120, Note_on_c, 1, 44, 69
7, 57268, Note_off_c, 1, 44, 64
7, 57296, Note_on_c, 1, 44, 81
7, 57348, Note_off_c, 1, 44, 64
7, 57360, Note_on_c, 1, 36, 62
7, 57600, Note_off_c, 1, 36, 64
7, 57600, Note_on_c, 1, 37, 84
7, 57776, Note_on_c, 1, 32, 60
7, 57816, Note_off_c, 1, 32, 64
7, 57830, Note_off_c, 1, 37, 64
7, 57840, Note_on_c, 1, 44, 77
7, 58016, Note_off_c, 1, 44, 64
7, 58016, Note_on_c, 1, 32, 62
7, 58050, Note_off_c, 1, 32, 64
7, 58080, Note_on_c, 1, 44, 72
7, 58256, Note_on_c, 1, 32, 65
7, 58262, Note_off_c, 1, 44, 64
7, 58318, Note_off_c, 1, 32, 64
7, 58320, Note_on_c, 1, 44, 74
7, 58558, Note_off_c, 1, 44, 64
7, 58560, Note_on_c, 1, 37, 84
7, 58736, Note_on_c, 1, 32, 60
7, 58776, Note_off_c, 1, 32, 64
7, 58790, Note_off_c, 1, 37, 64
7, 58800, Note_on_c, 1, 44, 77
7, 58976, Note_off_c, 1, 44, 64
7, 58976, Note_on_c, 1, 32, 62
7, 59010, Note_off_c, 1, 32, 64
7, 59040, Note_on_c, 1, 50, 71
7, 59280, Note_on_c, 1, 45, 70
7, 59310, Note_off_c, 1, 50, 64
7, 59520, Note_off_c, 1, 45, 64
7, 59520, Note_on_c, 1, 43, 73
7, 59748, Note_off_c, 1, 43, 64
7, 59760, Note_on_c, 1, 32, 67
7, 60000, Note_off_c, 1, 32, 64
7, 60000, Note_on_c, 1, 33, 77
7, 60128, Note_off_c, 1, 33, 64
7, 60178, Note_on_c, 1, 33, 70
7, 60240, Note_on_c, 1, 40, 63
7, 60248, Note_off_c, 1, 33, 64
7, 60480, Note_off_c, 1, 40, 64
7, 60480, Note_on_c, 1, 34, 77
7, 60608, Note_off_c, 1, 34, 64
7, 60658, Note_on_c, 1, 34, 70
7, 60720, Note_on_c, 1, 41, 63
7, 60728, Note_off_c, 1, 34, 64
7, 60960, Note_off_c, 1, 41, 64
7, 60960, Note_on_c, 1, 48, 68
7, 61036, Note_off_c, 1, 48, 64
7, 61142, Note_on_c, 1, 48, 54
7, 61210, Note_on_c, 1, 43, 75
7, 61218, Note_off_c, 1, 48, 64
7, 61440, Note_off_c, 1, 43, 64
7, 61440, Note_on_c, 1, 41, 89
7, 61618, Note_on_c, 1, 36, 40
7, 61626, Note_off_c, 1, 41, 64
7, 61680, Note_off_c, 1, 36, 64
7, 61680, Note_on_c, 1, 48, 72
7, 61890, Note_off_c, 1, 48, 64
7, 61920, Note_on_c, 1, 44, 80
7, 62160, Note_off_c, 1, 44, 64
7, 62160, Note_on_c, 1, 41, 82
7, 62262, Note_off_c, 1, 41, 64
7, 62338, Note_on_c, 1, 36, 60
7, 62400, Note_off_c, 1, 36, 64
7, 62400, Note_on_c, 1, 41, 84
7, 62576, Note_on_c, 1, 36, 60
7, 62616, Note_off_c, 1, 36, 64
7, 62630, Note_off_c, 1, 41, 64
7, 62640, Note_on_c, 1, 48, 77
7, 62816, Note_off_c, 1, 48, 64
7, 62816, Note_on_c, 1, 36, 62
7, 62850, Note_off_c, 1, 36, 64
7, 62880, Note_on_c, 1, 38, 84
7, 63056, Note_on_c, 1, 33, 60
7, 63096, Note_off_c, 1, 33, 64
7, 63110, Note_off_c, 1, 38, 64
7, 63120, Note_on_c, 1, 45, 77
7, 63296, Note_off_c, 1, 45, 64
7, 63296, Note_on_c, 1, 33, 62
7, 63330, Note_off_c, 1, 33, 64
7, 63840, Note_on_c, 1, 33, 85
7, 64240, Note_off_c, 1, 33, 64
7, 64240, Note_on_c, 1, 21, 55
7, 64278, Note_off_c, 1, 21, 64
7, 64320, Note_on_c, 1, 34, 76
7, 64736, Note_off_c, 1, 34, 64
7, 64736, Note_on_c, 1, 37, 78
7, 64800, Note_off_c, 1, 37, 64
7, 64800, Note_on_c, 1, 36, 82
7, 65280, Note_off_c, 1, 36, 64
7, 65280, Note_on_c, 1, 41, 82
7, 65760, Note_off_c, 1, 41, 64
7, 65760, Note_on_c, 1, 43, 80
7, 66148, Note_off_c, 1, 43, 64
7, 66176, Note_on_c, 1, 32, 81
7, 66240, Note_off_c, 1, 32, 64
7, 66240, Note_on_c, 1, 33, 81
7, 66366, Note_off_c, 1, 33, 64
7, 66416, Note_on_c, 1, 33, 71
7, 66480, Note_on_c, 1, 40, 73
7, 66496, Note_off_c, 1, 33, 64
7, 66720, Note_off_c, 1, 40, 64
7, 66720, Note_on_c, 1, 38, 70
7, 67200, Note_off_c, 1, 38, 64
7, 67200, Note_on_c, 1, 43, 85
7, 67520, Note_on_c, 1, 31, 47
7, 67540, Note_off_c, 1, 43, 64
7, 67574, Note_off_c, 1, 31, 64
7, 67600, Note_on_c, 1, 43, 82
7, 67624, Note_off_c, 1, 43, 64
7, 67680, Note_on_c, 1, 33, 81
7, 67806, Note_off_c, 1, 33, 64
7, 67856, Note_on_c, 1, 33, 71
7, 67920, Note_on_c, 1, 40, 73
7, 67936, Note_off_c, 1, 33, 64
7, 68160, Note_off_c, 1, 40, 64
7, 68160, Note_on_c, 1, 34, 80
7, 68548, Note_off_c, 1, 34, 64
7, 68576, Note_on_c, 1, 35, 81
7, 68640, Note_off_c, 1, 35, 64
7, 68640, Note_on_c, 1, 36, 82
7, 69120, Note_off_c, 1, 36, 64
7, 69120, Note_on_c, 1, 33, 85
7, 69600, Note_off_c, 1, 33, 64
7, 69600, Note_on_c, 1, 39, 85
7, 69972, Note_off_c, 1, 39, 64
7, 70016, Note_on_c, 1, 39, 80
7, 70080, Note_off_c, 1, 39, 64
7, 70080, Note_on_c, 1, 38, 78
7, 70320, Note_on_c, 1, 40, 80
7, 70360, Note_off_c, 1, 38, 64
7, 70560, Note_on_c, 1, 42, 75
7, 70582, Note_off_c, 1, 40, 64
7, 70800, Note_on_c, 1, 45, 76
7, 70840, Note_off_c, 1, 42, 64
7, 71040, Note_off_c, 1, 45, 64
7, 71040, Note_on_c, 1, 43, 76
7, 71520, Note_on_c, 1, 50, 61
7, 71548, Note_off_c, 1, 43, 64
7, 72000, Note_off_c, 1, 50, 64
7, 72000, Note_on_c, 1, 34, 85
7, 72400, Note_off_c, 1, 34, 64
7, 72400, Note_on_c, 1, 22, 55
7, 72438, Note_off_c, 1, 22, 64
7, 72480, Note_on_c, 1, 39, 80
7, 72868, Note_off_c, 1, 39, 64
7, 72896, Note_on_c, 1, 43, 81
7, 72960, Note_off_c, 1, 43, 64
7, 72960, Note_on_c, 1, 44, 76
7, 73306, Note_off_c, 1, 44, 64
7, 73376, Note_on_c, 1, 44, 84
7, 73440, Note_on_c, 1, 39, 68
7, 73476, Note_off_c, 1, 44, 64
7, 73776, Note_off_c, 1, 39, 64
7, 73856, Note_on_c, 1, 39, 65
7, 73910, Note_off_c, 1, 39, 64
7, 73920, Note_on_c, 1, 44, 80
7, 74308, Note_off_c, 1, 44, 64
7, 74336, Note_on_c, 1, 37, 81
7, 74400, Note_off_c, 1, 37, 64
7, 74400, Note_on_c, 1, 38, 82
7, 74880, Note_off_c, 1, 38, 64
7, 74880, Note_on_c, 1, 36, 76
7, 75296, Note_off_c, 1, 36, 64
7, 75296, Note_on_c, 1, 34, 78
7, 75360, Note_off_c, 1, 34, 64
7, 75360, Note_on_c, 1, 33, 70
7, 75840, Note_off_c, 1, 33, 64
7, 75840, Note_on_c, 1, 38, 70
7, 76320, Note_off_c, 1, 38, 64
7, 76320, Note_on_c, 1, 43, 82
7, 76800, Note_off_c, 1, 43, 64
7, 76800, Note_on_c, 1, 36, 85
7, 77280, Note_off_c, 1, 36, 64
7, 77280, Note_on_c, 1, 31, 85
7, 77652, Note_off_c, 1, 31, 64
7, 77696, Note_on_c, 1, 34, 80
7, 77760, Note_off_c, 1, 34, 64
7, 77760, Note_on_c, 1, 33, 86
7, 78080, Note_on_c, 1, 35, 80
7, 78092, Note_off_c, 1, 33, 64
7, 78160, Note_on_c, 1, 36, 90
7, 78166, Note_off_c, 1, 35, 64
7, 78240, Note_off_c, 1, 36, 64
7, 78240, Note_on_c, 1, 38, 73
7, 78656, Note_off_c, 1, 38, 64
7, 78656, Note_on_c, 1, 45, 68
7, 78720, Note_off_c, 1, 45, 64
7, 78720, Note_on_c, 1, 43, 69
7, 78868, Note_off_c, 1, 43, 64
7, 78896, Note_on_c, 1, 43, 81
7, 78948, Note_off_c, 1, 43, 64
7, 78960, Note_on_c, 1, 32, 62
7, 79200, Note_off_c, 1, 32, 64
7, 79200, Note_on_c, 1, 33, 73
7, 79428, Note_off_c, 1, 33, 64
7, 79440, Note_on_c, 1, 33, 67
7, 79680, Note_off_c, 1, 33, 64
7, 79680, Note_on_c, 1, 34, 78
7, 79848, Note_on_c, 1, 22, 55
7, 79896, Note_off_c, 1, 34, 64
7, 79912, Note_off_c, 1, 22, 64
7, 79920, Note_on_c, 1, 37, 78
7, 80160, Note_off_c, 1, 37, 64
7, 80160, Note_on_c, 1, 36, 72
7, 80336, Note_on_c, 1, 24, 65
7, 80342, Note_off_c, 1, 36, 64
7, 80398, Note_off_c, 1, 24, 64
7, 80400, Note_on_c, 1, 36, 74
7, 80638, Note_off_c, 1, 36, 64
7, 80640, Note_on_c, 1, 41, 71
7, 80880, Note_on_c, 1, 48, 70
7, 80924, Note_off_c, 1, 41, 64
7, 81120, Note_off_c, 1, 48, 64
7, 81120, Note_on_c, 1, 43, 71
7, 81360, Note_on_c, 1, 50, 70
7, 81404, Note_off_c, 1, 43, 64
7, 81600, Note_off_c, 1, 50, 64
7, 81600, Note_on_c, 1, 33, 71
7, 81840, Note_on_c, 1, 40, 70
7, 81884, Note_off_c, 1, 33, 64
7, 82080, Note_off_c, 1, 40, 64
7, 82080, Note_on_c, 1, 38, 65
7, 82320, Note_off_c, 1, 38, 64
7, 82320, Note_on_c, 1, 37, 65
7, 82560, Note_off_c, 1, 37, 64
7, 82560, Note_on_c, 1, 36, 69
7, 82708, Note_off_c, 1, 36, 64
7, 82736, Note_on_c, 1, 36, 81
7, 82788, Note_off_c, 1, 36, 64
7, 82800, Note_on_c, 1, 37, 62
7, 83040, Note_off_c, 1, 37, 64
7, 83040, Note_on_c, 1, 38, 77
7, 83168, Note_off_c, 1, 38, 64
7, 83218, Note_on_c, 1, 38, 70
7, 83280, Note_on_c, 1, 45, 63
7, 83288, Note_off_c, 1, 38, 64
7, 83520, Note_off_c, 1, 45, 64
7, 83520, Note_on_c, 1, 39, 77
7, 83648, Note_off_c, 1, 39, 64
7, 83698, Note_on_c, 1, 39, 70
7, 83760, Note_on_c, 1, 46, 63
7, 83768, Note_off_c, 1, 39, 64
7, 84000, Note_off_c, 1, 46, 64
7, 84000, Note_on_c, 1, 41, 77
7, 84128, Note_off_c, 1, 41, 64
7, 84178, Note_on_c, 1, 41, 70
7, 84240, Note_on_c, 1, 48, 63
7, 84248, Note_off_c, 1, 41, 64
7, 84480, Note_off_c, 1, 48, 64
7, 84480, Note_on_c, 1, 34, 64
7, 84682, Note_off_c, 1, 34, 64
7, 84720, Note_on_c, 1, 34, 79
7, 84960, Note_off_c, 1, 34, 64
7, 84960, Note_on_c, 1, 44, 64
7, 85162, Note_off_c, 1, 44, 64
7, 85200, Note_on_c, 1, 44, 79
7, 85440, Note_off_c, 1, 44, 64
7, 85440, Note_on_c, 1, 42, 71
7, 85680, Note_on_c, 1, 44, 73
7, 85720, Note_off_c, 1, 42, 64
7, 85920, Note_on_c, 1, 46, 68
7, 85942, Note_off_c, 1, 44, 64
7, 86160, Note_on_c, 1, 49, 69
7, 86200, Note_off_c, 1, 46, 64
7, 86400, Note_off_c, 1, 49, 64
7, 86400, Note_on_c, 1, 41, 67
7, 86640, Note_off_c, 1, 41, 64
7, 86640, Note_on_c, 1, 37, 74
7, 86880, Note_off_c, 1, 37, 64
7, 86880, Note_on_c, 1, 36, 72
7, 87056, Note_on_c, 1, 24, 65
7, 87062, Note_off_c, 1, 36, 64
7, 87118, Note_off_c, 1, 24, 64
7, 87120, Note_on_c, 1, 36, 74
7, 87358, Note_off_c, 1, 36, 64
7, 87360, Note_on_c, 1, 41, 69
7, 87508, Note_off_c, 1, 41, 64
7, 87536, Note_on_c, 1, 41, 81
7, 87588, Note_off_c, 1, 41, 64
7, 87600, Note_on_c, 1, 43, 62
7, 87840, Note_off_c, 1, 43, 64
7, 87840, Note_on_c, 1, 44, 72
7, 88016, Note_on_c, 1, 32, 65
7, 88022, Note_off_c, 1, 44, 64
7, 88078, Note_off_c, 1, 32, 64
7, 88080, Note_on_c, 1, 44, 74
7, 88318, Note_off_c, 1, 44, 64
7, 88320, Note_on_c, 1, 49, 68
7, 88396, Note_off_c, 1, 49, 64
7, 88502, Note_on_c, 1, 49, 54
7, 88570, Note_on_c, 1, 44, 75
7, 88578, Note_off_c, 1, 49, 64
7, 88800, Note_off_c, 1, 44, 64
7, 88800, Note_on_c, 1, 44, 72
7, 88976, Note_on_c, 1, 32, 65
7, 88982, Note_off_c, 1, 44, 64
7, 89038, Note_off_c, 1, 32, 64
7, 89040, Note_on_c, 1, 44, 74
7, 89278, Note_off_c, 1, 44, 64
7, 89280, Note_on_c, 1, 37, 71
7, 89520, Note_on_c, 1, 44, 70
7, 89564, Note_off_c, 1, 37, 64
7, 89760, Note_off_c, 1, 44, 64
7, 89760, Note_on_c, 1, 38, 72
7, 90000, Note_on_c, 1, 42, 69
7, 90030, Note_off_c, 1, 38, 64
7, 90218, Note_off_c, 1, 42, 64
7, 90240, Note_on_c, 1, 43, 71
7, 90480, Note_on_c, 1, 50, 70
7, 90524, Note_off_c, 1, 43, 64
7, 90720, Note_off_c, 1, 50, 64
7, 90720, Note_on_c, 1, 33, 73
7, 90948, Note_off_c, 1, 33, 64
7, 90960, Note_on_c, 1, 33, 67
7, 91200, Note_off_c, 1, 33, 64
7, 91200, Note_on_c, 1, 34, 73
7, 91428, Note_off_c, 1, 34, 64
7, 91440, Note_on_c, 1, 35, 67
7, 91680, Note_off_c, 1, 35, 64
7, 91680, Note_on_c, 1, 48, 83
7, 91760, Note_on_c, 1, 43, 60
7, 91788, Note_off_c, 1, 48, 64
7, 91840, Note_on_c, 1, 40, 62
7, 91860, Note_off_c, 1, 43, 64
7, 91920, Note_off_c, 1, 40, 64
7, 91920, Note_on_c, 1, 36, 76
7, 92160, Note_off_c, 1, 36, 64
7, 92160, Note_on_c, 1, 41, 76
7, 92400, Note_on_c, 1, 53, 59
7, 92418, Note_off_c, 1, 41, 64
7, 92640, Note_on_c, 1, 48, 71
7, 92668, Note_off_c, 1, 53, 64
7, 92880, Note_on_c, 1, 44, 77
7, 92886, Note_off_c, 1, 48, 64
7, 93120, Note_off_c, 1, 44, 64
7, 93120, Note_on_c, 1, 41, 84
7, 93296, Note_on_c, 1, 36, 60
7, 93336, Note_off_c, 1, 36, 64
7, 93350, Note_off_c, 1, 41, 64
7, 93360, Note_on_c, 1, 48, 77
7, 93536, Note_off_c, 1, 48, 64
7, 93536, Note_on_c, 1, 36, 62
7, 93570, Note_off_c, 1, 36, 64
7, 93600, Note_on_c, 1, 38, 69
7, 93748, Note_off_c, 1, 38, 64
7, 93776, Note_on_c, 1, 38, 81
7, 93828, Note_off_c, 1, 38, 64
7, 93840, Note_on_c, 1, 32, 62
7, 94080, Note_off_c, 1, 32, 64
7, 94080, Note_on_c, 1, 41, 80
7, 94166, Note_off_c, 1, 41, 64
7, 94256, Note_on_c, 1, 41, 82
7, 94320, Note_on_c, 1, 44, 74
7, 94350, Note_off_c, 1, 41, 64
7, 94560, Note_on_c, 1, 46, 68
7, 94564, Note_off_c, 1, 44, 64
7, 94800, Note_on_c, 1, 47, 72
7, 94834, Note_off_c, 1, 46, 64
7, 95040, Note_on_c, 1, 48, 74
7, 95062, Note_off_c, 1, 47, 64
7, 95204, Note_off_c, 1, 48, 64
7, 95280, Note_on_c, 1, 36, 72
7, 95402, Note_off_c, 1, 36, 64
7, 95456, Note_on_c, 1, 41, 93
7, 95996, Note_off_c, 1, 41, 64
7, 95996, End_track
8, 0, Start_track
8, 0, Title_t, "Piano / Rhodes piano"
8, 0, Program_c, 2, 4
8, 0, Control_c, 2, 7, 80
8, 0, Control_c, 2, 121, 0
8, 0, Control_c, 2, 10, 64
8, 0, Control_c, 2, 123, 0
8, 0, Control_c, 2, 91, 40
8, 0, Control_c, 2, 93, 0
8, 0, Control_c, 2, 64, 0
8, 2810, Note_on_c, 2, 55, 60
8, 2810, Note_on_c, 2, 58, 60
8, 2810, Note_on_c, 2, 62, 60
8, 2810, Note_on_c, 2, 65, 60
8, 3356, Note_off_c, 2, 65, 64
8, 3356, Note_off_c, 2, 62, 64
8, 3356, Note_off_c, 2, 58, 64
8, 3356, Note_off_c, 2, 55, 64
8, 3360, Note_on_c, 2, 58, 60
8, 3360, Note_on_c, 2, 74, 60
8, 3360, Note_on_c, 2, 64, 60
8, 3360, Note_on_c, 2, 67, 60
8, 3840, Note_off_c, 2, 67, 64
8, 3840, Note_off_c, 2, 64, 64
8, 3840, Note_off_c, 2, 74, 64
8, 3840, Note_off_c, 2, 58, 64
8, 3840, Note_on_c, 2, 64, 60
8, 3840, Note_on_c, 2, 67, 60
8, 3840, Note_on_c, 2, 57, 60
8, 3840, Note_on_c, 2, 72, 60
8, 4230, Note_off_c, 2, 72, 64
8, 4230, Note_off_c, 2, 57, 64
8, 4230, Note_off_c, 2, 67, 64
8, 4230, Note_off_c, 2, 64, 64
8, 4250, Note_on_c, 2, 65, 60
8, 4250, Note_on_c, 2, 69, 60
8, 4250, Note_on_c, 2, 58, 60
8, 4250, Note_on_c, 2, 74, 60
8, 4796, Note_off_c, 2, 74, 64
8, 4796, Note_off_c, 2, 58, 64
8, 4796, Note_off_c, 2, 69, 64
8, 4796, Note_off_c, 2, 65, 64
8, 4800, Note_on_c, 2, 67, 60
8, 4800, Note_on_c, 2, 69, 60
8, 4800, Note_on_c, 2, 60, 60
8, 4800, Note_on_c, 2, 76, 60
8, 5190, Note_off_c, 2, 76, 64
8, 5190, Note_off_c, 2, 60, 64
8, 5190, Note_off_c, 2, 69, 64
8, 5190, Note_off_c, 2, 67, 64
8, 5210, Note_on_c, 2, 60, 60
8, 5210, Note_on_c, 2, 63, 60
8, 5210, Note_on_c, 2, 66, 60
8, 5210, Note_on_c, 2, 70, 60
8, 5756, Note_off_c, 2, 70, 64
8, 5756, Note_off_c, 2, 66, 64
8, 5756, Note_off_c, 2, 63, 64
8, 5756, Note_off_c, 2, 60, 64
8, 5760, Note_on_c, 2, 65, 60
8, 5760, Note_on_c, 2, 69, 60
8, 5760, Note_on_c, 2, 58, 60
8, 5760, Note_on_c, 2, 74, 60
8, 6240, Note_off_c, 2, 74, 64
8, 6240, Note_off_c, 2, 58, 64
8, 6240, Note_off_c, 2, 69, 64
8, 6240, Note_off_c, 2, 65, 64
8, 6240, Note_on_c, 2, 67, 60
8, 6240, Note_on_c, 2, 69, 60
8, 6240, Note_on_c, 2, 60, 60
8, 6240, Note_on_c, 2, 64, 60
8, 6630, Note_off_c, 2, 64, 64
8, 6630, Note_off_c, 2, 60, 64
8, 6630, Note_off_c, 2, 69, 64
8, 6630, Note_off_c, 2, 67, 64
8, 6650, Note_on_c, 2, 67, 60
8, 6650, Note_on_c, 2, 70, 60
8, 6650, Note_on_c, 2, 62, 60
8, 6650, Note_on_c, 2, 77, 60
8, 7196, Note_off_c, 2, 77, 64
8, 7196, Note_off_c, 2, 62, 64
8, 7196, Note_off_c, 2, 70, 64
8, 7196, Note_off_c, 2, 67, 64
8, 7200, Note_on_c, 2, 58, 60
8, 7200, Note_on_c, 2, 74, 60
8, 7200, Note_on_c, 2, 64, 60
8, 7200, Note_on_c, 2, 69, 60
8, 7680, Note_off_c, 2, 69, 64
8, 7680, Note_off_c, 2, 64, 64
8, 7680, Note_off_c, 2, 74, 64
8, 7680, Note_off_c, 2, 58, 64
8, 7680, Note_on_c, 2, 55, 60
8, 7680, Note_on_c, 2, 69, 60
8, 7680, Note_on_c, 2, 60, 60
8, 7680, Note_on_c, 2, 63, 60
8, 8640, Note_off_c, 2, 63, 64
8, 8640, Note_off_c, 2, 60, 64
8, 8640, Note_off_c, 2, 69, 64
8, 8640, Note_off_c, 2, 55, 64
8, 8640, Note_on_c, 2, 60, 60
8, 8640, Note_on_c, 2, 63, 60
8, 8640, Note_on_c, 2, 54, 60
8, 8640, Note_on_c, 2, 70, 60
8, 9600, Note_off_c, 2, 70, 64
8, 9600, Note_off_c, 2, 54, 64
8, 9600, Note_off_c, 2, 63, 64
8, 9600, Note_off_c, 2, 60, 64
8, 9600, Note_on_c, 2, 53, 60
8, 9600, Note_on_c, 2, 69, 60
8, 9600, Note_on_c, 2, 58, 60
8, 9600, Note_on_c, 2, 62, 60
8, 10560, Note_off_c, 2, 62, 64
8, 10560, Note_off_c, 2, 58, 64
8, 10560, Note_off_c, 2, 69, 64
8, 10560, Note_off_c, 2, 53, 64
8, 10560, Note_on_c, 2, 56, 60
8, 10560, Note_on_c, 2, 60, 60
8, 10560, Note_on_c, 2, 61, 60
8, 10560, Note_on_c, 2, 65, 60
8, 11040, Note_off_c, 2, 65, 64
8, 11040, Note_off_c, 2, 61, 64
8, 11040, Note_off_c, 2, 60, 64
8, 11040, Note_off_c, 2, 56, 64
8, 11040, Note_on_c, 2, 61, 60
8, 11040, Note_on_c, 2, 65, 60
8, 11040, Note_on_c, 2, 55, 60
8, 11040, Note_on_c, 2, 58, 60
8, 11520, Note_off_c, 2, 58, 64
8, 11520, Note_off_c, 2, 55, 64
8, 11520, Note_off_c, 2, 65, 64
8, 11520, Note_off_c, 2, 61, 64
8, 11520, Note_on_c, 2, 55, 60
8, 11520, Note_on_c, 2, 70, 60
8, 11520, Note_on_c, 2, 60, 60
8, 11520, Note_on_c, 2, 63, 60
8, 12480, Note_off_c, 2, 63, 64
8, 12480, Note_off_c, 2, 60, 64
8, 12480, Note_off_c, 2, 70, 64
8, 12480, Note_off_c, 2, 55, 64
8, 12480, Note_on_c, 2, 55, 60
8, 12480, Note_on_c, 2, 70, 60
8, 12480, Note_on_c, 2, 60, 60
8, 12480, Note_on_c, 2, 63, 60
8, 12960, Note_off_c, 2, 63, 64
8, 12960, Note_off_c, 2, 60, 64
8, 12960, Note_off_c, 2, 70, 64
8, 12960, Note_off_c, 2, 55, 64
8, 12960, Note_on_c, 2, 60, 60
8, 12960, Note_on_c, 2, 62, 60
8, 12960, Note_on_c, 2, 53, 60
8, 12960, Note_on_c, 2, 56, 60
8, 13440, Note_off_c, 2, 56, 64
8, 13440, Note_off_c, 2, 53, 64
8, 13440, Note_off_c, 2, 62, 64
8, 13440, Note_off_c, 2, 60, 64
8, 13440, Note_on_c, 2, 58, 60
8, 13440, Note_on_c, 2, 62, 60
8, 13440, Note_on_c, 2, 51, 60
8, 13440, Note_on_c, 2, 67, 60
8, 13920, Note_off_c, 2, 67, 64
8, 13920, Note_off_c, 2, 51, 64
8, 13920, Note_off_c, 2, 62, 64
8, 13920, Note_off_c, 2, 58, 64
8, 13920, Note_on_c, 2, 55, 60
8, 13920, Note_on_c, 2, 69, 60
8, 13920, Note_on_c, 2, 60, 60
8, 13920, Note_on_c, 2, 63, 60
8, 14400, Note_off_c, 2, 63, 64
8, 14400, Note_off_c, 2, 60, 64
8, 14400, Note_off_c, 2, 69, 64
8, 14400, Note_off_c, 2, 55, 64
8, 14400, Note_on_c, 2, 60, 60
8, 14400, Note_on_c, 2, 64, 60
8, 14400, Note_on_c, 2, 53, 60
8, 14400, Note_on_c, 2, 69, 60
8, 14880, Note_off_c, 2, 69, 64
8, 14880, Note_off_c, 2, 53, 64
8, 14880, Note_off_c, 2, 64, 64
8, 14880, Note_off_c, 2, 60, 64
8, 14880, Note_on_c, 2, 53, 60
8, 14880, Note_on_c, 2, 69, 60
8, 14880, Note_on_c, 2, 59, 60
8, 14880, Note_on_c, 2, 64, 60
8, 15360, Note_off_c, 2, 64, 64
8, 15360, Note_off_c, 2, 59, 64
8, 15360, Note_off_c, 2, 69, 64
8, 15360, Note_off_c, 2, 53, 64
8, 15360, Note_on_c, 2, 59, 60
8, 15360, Note_on_c, 2, 62, 60
8, 15360, Note_on_c, 2, 52, 60
8, 15360, Note_on_c, 2, 55, 60
8, 16320, Note_off_c, 2, 55, 64
8, 16320, Note_off_c, 2, 52, 64
8, 16320, Note_off_c, 2, 62, 64
8, 16320, Note_off_c, 2, 59, 64
8, 16320, Note_on_c, 2, 55, 60
8, 16320, Note_on_c, 2, 57, 60
8, 16320, Note_on_c, 2, 60, 60
8, 16320, Note_on_c, 2, 64, 60
8, 16800, Note_off_c, 2, 64, 64
8, 16800, Note_off_c, 2, 60, 64
8, 16800, Note_off_c, 2, 57, 64
8, 16800, Note_off_c, 2, 55, 64
8, 16800, Note_on_c, 2, 60, 60
8, 16800, Note_on_c, 2, 63, 60
8, 16800, Note_on_c, 2, 54, 60
8, 16800, Note_on_c, 2, 70, 60
8, 17280, Note_off_c, 2, 70, 64
8, 17280, Note_off_c, 2, 54, 64
8, 17280, Note_off_c, 2, 63, 64
8, 17280, Note_off_c, 2, 60, 64
8, 17280, Note_on_c, 2, 53, 60
8, 17280, Note_on_c, 2, 67, 60
8, 17280, Note_on_c, 2, 58, 60
8, 17280, Note_on_c, 2, 62, 60
8, 17670, Note_off_c, 2, 62, 64
8, 17670, Note_off_c, 2, 58, 64
8, 17670, Note_off_c, 2, 67, 64
8, 17670, Note_off_c, 2, 53, 64
8, 17690, Note_on_c, 2, 21, 21
8, 17756, Note_off_c, 2, 21, 64
8, 18102, Note_on_c, 2, 21, 65
8, 18103, Note_off_c, 2, 21, 64
8, 18240, Note_on_c, 2, 55, 60
8, 18240, Note_on_c, 2, 58, 60
8, 18240, Note_on_c, 2, 62, 60
8, 18240, Note_on_c, 2, 65, 60
8, 18720, Note_off_c, 2, 65, 64
8, 18720, Note_off_c, 2, 62, 64
8, 18720, Note_off_c, 2, 58, 64
8, 18720, Note_off_c, 2, 55, 64
8, 18720, Note_on_c, 2, 62, 35
8, 18720, Note_on_c, 2, 55, 36
8, 18720, Note_on_c, 2, 70, 69
8, 18720, Note_on_c, 2, 64, 30
8, 18720, Note_on_c, 2, 76, 60
8, 18720, Note_on_c, 2, 58, 54
8, 18860, Note_off_c, 2, 76, 64
8, 18882, Note_off_c, 2, 70, 64
8, 18896, Note_on_c, 2, 67, 58
8, 18896, Note_on_c, 2, 74, 60
8, 19110, Note_off_c, 2, 74, 64
8, 19110, Note_off_c, 2, 67, 64
8, 19110, Note_off_c, 2, 58, 64
8, 19110, Note_off_c, 2, 64, 64
8, 19110, Note_off_c, 2, 55, 64
8, 19110, Note_off_c, 2, 62, 64
8, 19130, Note_on_c, 2, 64, 60
8, 19130, Note_on_c, 2, 67, 60
8, 19130, Note_on_c, 2, 57, 60
8, 19130, Note_on_c, 2, 72, 60
8, 19676, Note_off_c, 2, 72, 64
8, 19676, Note_off_c, 2, 57, 64
8, 19676, Note_off_c, 2, 67, 64
8, 19676, Note_off_c, 2, 64, 64
8, 19680, Note_on_c, 2, 53, 60
8, 19680, Note_on_c, 2, 69, 60
8, 19680, Note_on_c, 2, 58, 60
8, 19680, Note_on_c, 2, 62, 60
8, 20160, Note_off_c, 2, 62, 64
8, 20160, Note_off_c, 2, 58, 64
8, 20160, Note_off_c, 2, 69, 64
8, 20160, Note_off_c, 2, 53, 64
8, 20160, Note_on_c, 2, 21, 21
8, 20161, Note_off_c, 2, 21, 64
8, 20492, Note_on_c, 2, 21, 62
8, 20493, Note_off_c, 2, 21, 64
8, 20640, Note_on_c, 2, 60, 60
8, 20640, Note_on_c, 2, 64, 60
8, 20640, Note_on_c, 2, 54, 60
8, 20640, Note_on_c, 2, 59, 60
8, 20790, Note_off_c, 2, 59, 64
8, 20790, Note_off_c, 2, 54, 64
8, 20790, Note_off_c, 2, 64, 64
8, 20790, Note_off_c, 2, 60, 64
8, 20810, Note_on_c, 2, 59, 60
8, 20810, Note_on_c, 2, 63, 60
8, 20810, Note_on_c, 2, 53, 60
8, 20810, Note_on_c, 2, 70, 60
8, 21116, Note_off_c, 2, 70, 64
8, 21116, Note_off_c, 2, 53, 64
8, 21116, Note_off_c, 2, 63, 64
8, 21116, Note_off_c, 2, 59, 64
8, 21120, Note_on_c, 2, 12, 12
8, 21121, Note_off_c, 2, 12, 64
8, 21530, Note_on_c, 2, 60, 60
8, 21530, Note_on_c, 2, 62, 60
8, 21530, Note_on_c, 2, 53, 60
8, 21530, Note_on_c, 2, 57, 60
8, 22076, Note_off_c, 2, 57, 64
8, 22076, Note_off_c, 2, 53, 64
8, 22076, Note_off_c, 2, 62, 64
8, 22076, Note_off_c, 2, 60, 64
8, 22080, Note_on_c, 2, 60, 60
8, 22080, Note_on_c, 2, 63, 60
8, 22080, Note_on_c, 2, 54, 60
8, 22080, Note_on_c, 2, 70, 60
8, 22560, Note_off_c, 2, 70, 64
8, 22560, Note_off_c, 2, 54, 64
8, 22560, Note_off_c, 2, 63, 64
8, 22560, Note_off_c, 2, 60, 64
8, 22560, Note_on_c, 2, 60, 35
8, 22560, Note_on_c, 2, 53, 36
8, 22560, Note_on_c, 2, 63, 30
8, 22560, Note_on_c, 2, 57, 54
8, 22560, Note_on_c, 2, 69, 69
8, 22560, Note_on_c, 2, 75, 60
8, 22700, Note_off_c, 2, 75, 64
8, 22722, Note_off_c, 2, 69, 64
8, 22736, Note_on_c, 2, 65, 58
8, 22736, Note_on_c, 2, 72, 60
8, 23040, Note_off_c, 2, 72, 64
8, 23040, Note_off_c, 2, 65, 64
8, 23040, Note_off_c, 2, 57, 64
8, 23040, Note_off_c, 2, 63, 64
8, 23040, Note_off_c, 2, 53, 64
8, 23040, Note_off_c, 2, 60, 64
8, 23040, Note_on_c, 2, 55, 60
8, 23040, Note_on_c, 2, 58, 60
8, 23040, Note_on_c, 2, 61, 60
8, 23040, Note_on_c, 2, 65, 60
8, 23430, Note_off_c, 2, 65, 64
8, 23430, Note_off_c, 2, 61, 64
8, 23430, Note_off_c, 2, 58, 64
8, 23430, Note_off_c, 2, 55, 64
8, 23450, Note_on_c, 2, 20, 20
8, 23516, Note_off_c, 2, 20, 64
8, 23834, Note_on_c, 2, 20, 60
8, 23835, Note_off_c, 2, 20, 64
8, 24000, Note_on_c, 2, 64, 51
8, 24000, Note_on_c, 2, 54, 50
8, 24000, Note_on_c, 2, 61, 48
8, 24000, Note_on_c, 2, 58, 48
8, 24418, Note_on_c, 2, 66, 72
8, 24418, Note_on_c, 2, 73, 79
8, 24480, Note_off_c, 2, 73, 64
8, 24492, Note_off_c, 2, 66, 64
8, 24658, Note_on_c, 2, 73, 72
8, 24658, Note_on_c, 2, 66, 63
8, 24736, Note_off_c, 2, 66, 64
8, 24736, Note_off_c, 2, 73, 64
8, 24870, Note_off_c, 2, 58, 64
8, 24870, Note_off_c, 2, 61, 64
8, 24870, Note_off_c, 2, 54, 64
8, 24870, Note_off_c, 2, 64, 64
8, 24890, Note_on_c, 2, 51, 60
8, 24890, Note_on_c, 2, 55, 60
8, 24890, Note_on_c, 2, 56, 60
8, 24890, Note_on_c, 2, 60, 60
8, 25350, Note_off_c, 2, 60, 64
8, 25350, Note_off_c, 2, 56, 64
8, 25350, Note_off_c, 2, 55, 64
8, 25350, Note_off_c, 2, 51, 64
8, 25370, Note_on_c, 2, 60, 35
8, 25370, Note_on_c, 2, 55, 36
8, 25370, Note_on_c, 2, 70, 69
8, 25370, Note_on_c, 2, 64, 30
8, 25370, Note_on_c, 2, 76, 60
8, 25370, Note_on_c, 2, 58, 54
8, 25576, Note_off_c, 2, 76, 64
8, 25598, Note_off_c, 2, 70, 64
8, 25616, Note_on_c, 2, 67, 58
8, 25616, Note_on_c, 2, 72, 60
8, 25916, Note_off_c, 2, 58, 64
8, 25916, Note_off_c, 2, 64, 64
8, 25916, Note_off_c, 2, 55, 64
8, 25916, Note_off_c, 2, 60, 64
8, 25920, Note_off_c, 2, 72, 64
8, 25920, Note_off_c, 2, 67, 64
8, 25920, Note_on_c, 2, 17, 17
8, 25921, Note_off_c, 2, 17, 64
8, 26330, Note_on_c, 2, 20, 20
8, 26396, Note_off_c, 2, 20, 64
8, 26810, Note_on_c, 2, 60, 60
8, 26810, Note_on_c, 2, 63, 60
8, 26810, Note_on_c, 2, 53, 60
8, 26810, Note_on_c, 2, 68, 60
8, 27356, Note_off_c, 2, 68, 64
8, 27356, Note_off_c, 2, 53, 64
8, 27356, Note_off_c, 2, 63, 64
8, 27356, Note_off_c, 2, 60, 64
8, 27360, Note_on_c, 2, 20, 20
8, 27361, Note_off_c, 2, 20, 64
8, 27770, Note_on_c, 2, 13, 13
8, 27836, Note_off_c, 2, 13, 64
8, 28178, Note_on_c, 2, 13, 60
8, 28179, Note_off_c, 2, 13, 64
8, 28320, Note_on_c, 2, 14, 14
8, 28321, Note_off_c, 2, 14, 64
8, 28730, Note_on_c, 2, 53, 60
8, 28730, Note_on_c, 2, 55, 60
8, 28730, Note_on_c, 2, 58, 60
8, 28730, Note_on_c, 2, 62, 60
8, 29276, Note_off_c, 2, 62, 64
8, 29276, Note_off_c, 2, 58, 64
8, 29276, Note_off_c, 2, 55, 64
8, 29276, Note_off_c, 2, 53, 64
8, 29280, Note_on_c, 2, 55, 60
8, 29280, Note_on_c, 2, 69, 60
8, 29280, Note_on_c, 2, 60, 60
8, 29280, Note_on_c, 2, 64, 60
8, 29670, Note_off_c, 2, 64, 64
8, 29670, Note_off_c, 2, 60, 64
8, 29670, Note_off_c, 2, 69, 64
8, 29670, Note_off_c, 2, 55, 64
8, 29690, Note_on_c, 2, 22, 22
8, 29756, Note_off_c, 2, 22, 64
8, 30076, Note_on_c, 2, 22, 60
8, 30077, Note_off_c, 2, 22, 64
8, 30240, Note_on_c, 2, 60, 35
8, 30240, Note_on_c, 2, 55, 36
8, 30240, Note_on_c, 2, 70, 69
8, 30240, Note_on_c, 2, 64, 30
8, 30240, Note_on_c, 2, 76, 60
8, 30240, Note_on_c, 2, 58, 54
8, 30380, Note_off_c, 2, 76, 64
8, 30402, Note_off_c, 2, 70, 64
8, 30416, Note_on_c, 2, 67, 58
8, 30416, Note_on_c, 2, 72, 60
8, 30630, Note_off_c, 2, 72, 64
8, 30630, Note_off_c, 2, 67, 64
8, 30630, Note_off_c, 2, 58, 64
8, 30630, Note_off_c, 2, 64, 64
8, 30630, Note_off_c, 2, 55, 64
8, 30630, Note_off_c, 2, 60, 64
8, 30650, Note_on_c, 2, 17, 17
8, 30716, Note_off_c, 2, 17, 64
8, 31050, Note_on_c, 2, 17, 60
8, 31051, Note_off_c, 2, 17, 64
8, 31452, Note_on_c, 2, 17, 72
8, 31604, Note_off_c, 2, 17, 64
8, 31680, Note_on_c, 2, 17, 17
8, 31681, Note_off_c, 2, 17, 64
8, 32002, Note_on_c, 2, 17, 60
8, 32003, Note_off_c, 2, 17, 64
8, 32160, Note_on_c, 2, 14, 14
8, 32161, Note_off_c, 2, 14, 64
8, 32482, Note_on_c, 2, 14, 60
8, 32483, Note_off_c, 2, 14, 64
8, 32640, Note_on_c, 2, 67, 60
8, 32640, Note_on_c, 2, 69, 60
8, 32640, Note_on_c, 2, 60, 60
8, 32640, Note_on_c, 2, 76, 60
8, 33120, Note_off_c, 2, 76, 64
8, 33120, Note_off_c, 2, 60, 64
8, 33120, Note_off_c, 2, 69, 64
8, 33120, Note_off_c, 2, 67, 64
8, 33120, Note_on_c, 2, 67, 60
8, 33120, Note_on_c, 2, 69, 60
8, 33120, Note_on_c, 2, 60, 60
8, 33120, Note_on_c, 2, 64, 60
8, 33510, Note_off_c, 2, 64, 64
8, 33510, Note_off_c, 2, 60, 64
8, 33510, Note_off_c, 2, 69, 64
8, 33510, Note_off_c, 2, 67, 64
8, 33530, Note_on_c, 2, 22, 22
8, 33596, Note_off_c, 2, 22, 64
8, 34010, Note_on_c, 2, 12, 12
8, 34076, Note_off_c, 2, 12, 64
8, 34400, Note_on_c, 2, 12, 60
8, 34401, Note_off_c, 2, 12, 64
8, 34560, Note_on_c, 2, 17, 17
8, 34561, Note_off_c, 2, 17, 64
8, 34890, Note_on_c, 2, 17, 60
8, 34891, Note_off_c, 2, 17, 64
8, 35040, Note_on_c, 2, 65, 60
8, 35040, Note_on_c, 2, 69, 60
8, 35040, Note_on_c, 2, 58, 60
8, 35040, Note_on_c, 2, 74, 60
8, 35520, Note_off_c, 2, 74, 64
8, 35520, Note_off_c, 2, 58, 64
8, 35520, Note_off_c, 2, 69, 64
8, 35520, Note_off_c, 2, 65, 64
8, 35520, Note_on_c, 2, 21, 21
8, 35521, Note_off_c, 2, 21, 64
8, 35852, Note_on_c, 2, 21, 60
8, 35853, Note_off_c, 2, 21, 64
8, 36000, Note_on_c, 2, 60, 60
8, 36000, Note_on_c, 2, 63, 60
8, 36000, Note_on_c, 2, 54, 60
8, 36000, Note_on_c, 2, 69, 60
8, 36480, Note_off_c, 2, 69, 64
8, 36480, Note_off_c, 2, 54, 64
8, 36480, Note_off_c, 2, 63, 64
8, 36480, Note_off_c, 2, 60, 64
8, 36480, Note_on_c, 2, 19, 19
8, 36481, Note_off_c, 2, 19, 64
8, 36818, Note_on_c, 2, 19, 60
8, 36819, Note_off_c, 2, 19, 64
8, 36960, Note_on_c, 2, 21, 21
8, 36961, Note_off_c, 2, 21, 64
8, 37370, Note_on_c, 2, 22, 22
8, 37436, Note_off_c, 2, 22, 64
8, 37756, Note_on_c, 2, 22, 60
8, 37757, Note_off_c, 2, 22, 64
8, 37920, Note_on_c, 2, 62, 35
8, 37920, Note_on_c, 2, 55, 36
8, 37920, Note_on_c, 2, 64, 30
8, 37920, Note_on_c, 2, 58, 54
8, 37920, Note_on_c, 2, 70, 69
8, 37920, Note_on_c, 2, 76, 60
8, 38060, Note_off_c, 2, 76, 64
8, 38082, Note_off_c, 2, 70, 64
8, 38096, Note_on_c, 2, 67, 58
8, 38096, Note_on_c, 2, 74, 60
8, 38400, Note_off_c, 2, 74, 64
8, 38400, Note_off_c, 2, 67, 64
8, 38400, Note_off_c, 2, 58, 64
8, 38400, Note_off_c, 2, 64, 64
8, 38400, Note_off_c, 2, 55, 64
8, 38400, Note_off_c, 2, 62, 64
8, 38400, Note_on_c, 2, 67, 60
8, 38400, Note_on_c, 2, 69, 60
8, 38400, Note_on_c, 2, 60, 60
8, 38400, Note_on_c, 2, 75, 60
8, 39360, Note_off_c, 2, 75, 64
8, 39360, Note_off_c, 2, 60, 64
8, 39360, Note_off_c, 2, 69, 64
8, 39360, Note_off_c, 2, 67, 64
8, 39360, Note_on_c, 2, 60, 60
8, 39360, Note_on_c, 2, 75, 60
8, 39360, Note_on_c, 2, 66, 60
8, 39360, Note_on_c, 2, 70, 60
8, 40320, Note_off_c, 2, 70, 64
8, 40320, Note_off_c, 2, 66, 64
8, 40320, Note_off_c, 2, 75, 64
8, 40320, Note_off_c, 2, 60, 64
8, 40732, Note_on_c, 2, 65, 60
8, 40732, Note_on_c, 2, 69, 60
8, 40732, Note_on_c, 2, 58, 60
8, 40732, Note_on_c, 2, 74, 60
8, 41190, Note_off_c, 2, 74, 64
8, 41190, Note_off_c, 2, 58, 64
8, 41190, Note_off_c, 2, 69, 64
8, 41190, Note_off_c, 2, 65, 64
8, 41210, Note_on_c, 2, 22, 22
8, 41276, Note_off_c, 2, 22, 64
8, 41612, Note_on_c, 2, 22, 62
8, 41613, Note_off_c, 2, 22, 64
8, 41936, Note_on_c, 2, 82, 55
8, 41936, Note_on_c, 2, 70, 52
8, 41936, Note_on_c, 2, 61, 50
8, 41936, Note_on_c, 2, 51, 40
8, 41936, Note_on_c, 2, 58, 38
8, 41936, Note_on_c, 2, 55, 57
8, 42150, Note_off_c, 2, 55, 64
8, 42150, Note_off_c, 2, 58, 64
8, 42150, Note_off_c, 2, 51, 64
8, 42150, Note_off_c, 2, 61, 64
8, 42150, Note_off_c, 2, 70, 64
8, 42150, Note_off_c, 2, 82, 64
8, 42170, Note_on_c, 2, 20, 20
8, 42236, Note_off_c, 2, 20, 64
8, 42550, Note_on_c, 2, 20, 58
8, 42551, Note_off_c, 2, 20, 64
8, 42940, Note_on_c, 2, 20, 70
8, 43092, Note_off_c, 2, 20, 64
8, 43200, Note_on_c, 2, 55, 60
8, 43200, Note_on_c, 2, 70, 60
8, 43200, Note_on_c, 2, 60, 60
8, 43200, Note_on_c, 2, 63, 60
8, 43680, Note_off_c, 2, 63, 64
8, 43680, Note_off_c, 2, 60, 64
8, 43680, Note_off_c, 2, 70, 64
8, 43680, Note_off_c, 2, 55, 64
8, 43680, Note_on_c, 2, 14, 14
8, 43681, Note_off_c, 2, 14, 64
8, 44090, Note_on_c, 2, 12, 12
8, 44156, Note_off_c, 2, 12, 64
8, 44488, Note_on_c, 2, 12, 58
8, 44489, Note_off_c, 2, 12, 64
8, 44640, Note_on_c, 2, 57, 35
8, 44640, Note_on_c, 2, 51, 36
8, 44640, Note_on_c, 2, 67, 69
8, 44640, Note_on_c, 2, 60, 30
8, 44640, Note_on_c, 2, 72, 60
8, 44640, Note_on_c, 2, 55, 54
8, 44780, Note_off_c, 2, 72, 64
8, 44802, Note_off_c, 2, 67, 64
8, 44816, Note_on_c, 2, 63, 58
8, 44816, Note_on_c, 2, 69, 60
8, 45030, Note_off_c, 2, 69, 64
8, 45030, Note_off_c, 2, 63, 64
8, 45030, Note_off_c, 2, 55, 64
8, 45030, Note_off_c, 2, 60, 64
8, 45030, Note_off_c, 2, 51, 64
8, 45030, Note_off_c, 2, 57, 64
8, 45050, Note_on_c, 2, 14, 14
8, 45116, Note_off_c, 2, 14, 64
8, 45428, Note_on_c, 2, 14, 57
8, 45429, Note_off_c, 2, 14, 64
8, 45530, Note_on_c, 2, 53, 60
8, 45530, Note_on_c, 2, 69, 60
8, 45530, Note_on_c, 2, 59, 60
8, 45530, Note_on_c, 2, 64, 60
8, 45530, Note_on_c, 2, 73, 60
8, 45990, Note_off_c, 2, 73, 64
8, 45990, Note_off_c, 2, 64, 64
8, 45990, Note_off_c, 2, 59, 64
8, 45990, Note_off_c, 2, 69, 64
8, 45990, Note_off_c, 2, 53, 64
8, 46010, Note_on_c, 2, 59, 60
8, 46010, Note_on_c, 2, 62, 60
8, 46010, Note_on_c, 2, 52, 60
8, 46010, Note_on_c, 2, 67, 60
8, 47036, Note_off_c, 2, 67, 64
8, 47036, Note_off_c, 2, 52, 64
8, 47036, Note_off_c, 2, 62, 64
8, 47036, Note_off_c, 2, 59, 64
8, 47040, Note_on_c, 2, 21, 21
8, 47041, Note_off_c, 2, 21, 64
8, 47364, Note_on_c, 2, 21, 57
8, 47365, Note_off_c, 2, 21, 64
8, 47520, Note_on_c, 2, 14, 14
8, 47521, Note_off_c, 2, 14, 64
8, 47828, Note_on_c, 2, 14, 57
8, 47829, Note_off_c, 2, 14, 64
8, 48000, Note_on_c, 2, 53, 60
8, 48000, Note_on_c, 2, 67, 60
8, 48000, Note_on_c, 2, 58, 60
8, 48000, Note_on_c, 2, 62, 60
8, 48390, Note_off_c, 2, 62, 64
8, 48390, Note_off_c, 2, 58, 64
8, 48390, Note_off_c, 2, 67, 64
8, 48390, Note_off_c, 2, 53, 64
8, 48410, Note_on_c, 2, 57, 35
8, 48410, Note_on_c, 2, 52, 36
8, 48410, Note_on_c, 2, 67, 69
8, 48410, Note_on_c, 2, 60, 30
8, 48410, Note_on_c, 2, 72, 60
8, 48410, Note_on_c, 2, 55, 54
8, 48616, Note_off_c, 2, 72, 64
8, 48638, Note_off_c, 2, 67, 64
8, 48656, Note_on_c, 2, 64, 58
8, 48656, Note_on_c, 2, 69, 60
8, 48870, Note_off_c, 2, 69, 64
8, 48870, Note_off_c, 2, 64, 64
8, 48870, Note_off_c, 2, 55, 64
8, 48870, Note_off_c, 2, 60, 64
8, 48870, Note_off_c, 2, 52, 64
8, 48870, Note_off_c, 2, 57, 64
8, 48890, Note_on_c, 2, 55, 60
8, 48890, Note_on_c, 2, 58, 60
8, 48890, Note_on_c, 2, 62, 60
8, 48890, Note_on_c, 2, 65, 60
8, 49350, Note_off_c, 2, 65, 64
8, 49350, Note_off_c, 2, 62, 64
8, 49350, Note_off_c, 2, 58, 64
8, 49350, Note_off_c, 2, 55, 64
8, 49370, Note_on_c, 2, 58, 60
8, 49370, Note_on_c, 2, 74, 60
8, 49370, Note_on_c, 2, 64, 60
8, 49370, Note_on_c, 2, 69, 60
8, 49830, Note_off_c, 2, 69, 64
8, 49830, Note_off_c, 2, 64, 64
8, 49830, Note_off_c, 2, 74, 64
8, 49830, Note_off_c, 2, 58, 64
8, 49850, Note_on_c, 2, 17, 17
8, 49916, Note_off_c, 2, 17, 64
8, 50330, Note_on_c, 2, 19, 19
8, 50396, Note_off_c, 2, 19, 64
8, 50722, Note_on_c, 2, 19, 57
8, 50723, Note_off_c, 2, 19, 64
8, 50880, Note_on_c, 2, 55, 60
8, 50880, Note_on_c, 2, 57, 60
8, 50880, Note_on_c, 2, 60, 60
8, 50880, Note_on_c, 2, 64, 60
8, 51360, Note_off_c, 2, 64, 64
8, 51360, Note_off_c, 2, 60, 64
8, 51360, Note_off_c, 2, 57, 64
8, 51360, Note_off_c, 2, 55, 64
8, 51360, Note_on_c, 2, 60, 60
8, 51360, Note_on_c, 2, 64, 60
8, 51360, Note_on_c, 2, 54, 60
8, 51360, Note_on_c, 2, 59, 60
8, 51510, Note_off_c, 2, 59, 64
8, 51510, Note_off_c, 2, 54, 64
8, 51510, Note_off_c, 2, 64, 64
8, 51510, Note_off_c, 2, 60, 64
8, 51530, Note_on_c, 2, 59, 60
8, 51530, Note_on_c, 2, 63, 60
8, 51530, Note_on_c, 2, 53, 60
8, 51530, Note_on_c, 2, 70, 60
8, 51836, Note_off_c, 2, 70, 64
8, 51836, Note_off_c, 2, 53, 64
8, 51836, Note_off_c, 2, 63, 64
8, 51836, Note_off_c, 2, 59, 64
8, 51840, Note_on_c, 2, 12, 12
8, 51841, Note_off_c, 2, 12, 64
8, 52250, Note_on_c, 2, 14, 14
8, 52316, Note_off_c, 2, 14, 64
8, 52642, Note_on_c, 2, 14, 57
8, 52643, Note_off_c, 2, 14, 64
8, 52800, Note_on_c, 2, 15, 15
8, 52801, Note_off_c, 2, 15, 64
8, 53456, Note_on_c, 2, 84, 55
8, 53456, Note_on_c, 2, 72, 52
8, 53456, Note_on_c, 2, 63, 50
8, 53456, Note_on_c, 2, 53, 40
8, 53456, Note_on_c, 2, 60, 38
8, 53456, Note_on_c, 2, 57, 57
8, 53760, Note_off_c, 2, 57, 64
8, 53760, Note_off_c, 2, 60, 64
8, 53760, Note_off_c, 2, 53, 64
8, 53760, Note_off_c, 2, 63, 64
8, 53760, Note_off_c, 2, 72, 64
8, 53760, Note_off_c, 2, 84, 64
8, 53760, Note_on_c, 2, 55, 60
8, 53760, Note_on_c, 2, 70, 60
8, 53760, Note_on_c, 2, 61, 60
8, 53760, Note_on_c, 2, 65, 60
8, 54240, Note_off_c, 2, 65, 64
8, 54240, Note_off_c, 2, 61, 64
8, 54240, Note_off_c, 2, 70, 64
8, 54240, Note_off_c, 2, 55, 64
8, 54240, Note_on_c, 2, 63, 35
8, 54240, Note_on_c, 2, 56, 36
8, 54240, Note_on_c, 2, 66, 30
8, 54240, Note_on_c, 2, 59, 54
8, 54240, Note_on_c, 2, 71, 69
8, 54240, Note_on_c, 2, 78, 60
8, 54380, Note_off_c, 2, 78, 64
8, 54402, Note_off_c, 2, 71, 64
8, 54416, Note_on_c, 2, 68, 58
8, 54416, Note_on_c, 2, 75, 60
8, 54720, Note_off_c, 2, 75, 64
8, 54720, Note_off_c, 2, 68, 64
8, 54720, Note_off_c, 2, 59, 64
8, 54720, Note_off_c, 2, 66, 64
8, 54720, Note_off_c, 2, 56, 64
8, 54720, Note_off_c, 2, 63, 64
8, 54720, Note_on_c, 2, 18, 18
8, 54721, Note_off_c, 2, 18, 64
8, 55058, Note_on_c, 2, 18, 63
8, 55059, Note_off_c, 2, 18, 64
8, 55468, Note_on_c, 2, 18, 75
8, 55624, Note_off_c, 2, 18, 64
8, 55680, Note_on_c, 2, 63, 60
8, 55680, Note_on_c, 2, 65, 60
8, 55680, Note_on_c, 2, 56, 60
8, 55680, Note_on_c, 2, 72, 60
8, 56070, Note_off_c, 2, 72, 64
8, 56070, Note_off_c, 2, 56, 64
8, 56070, Note_off_c, 2, 65, 64
8, 56070, Note_off_c, 2, 63, 64
8, 56090, Note_on_c, 2, 12, 12
8, 56156, Note_off_c, 2, 12, 64
8, 56486, Note_on_c, 2, 12, 63
8, 56487, Note_off_c, 2, 12, 64
8, 56640, Note_on_c, 2, 63, 60
8, 56640, Note_on_c, 2, 67, 60
8, 56640, Note_on_c, 2, 56, 60
8, 56640, Note_on_c, 2, 72, 60
8, 57120, Note_off_c, 2, 72, 64
8, 57120, Note_off_c, 2, 56, 64
8, 57120, Note_off_c, 2, 67, 64
8, 57120, Note_off_c, 2, 63, 64
8, 57120, Note_on_c, 2, 54, 60
8, 57120, Note_on_c, 2, 58, 60
8, 57120, Note_on_c, 2, 60, 60
8, 57120, Note_on_c, 2, 65, 60
8, 57600, Note_off_c, 2, 65, 64
8, 57600, Note_off_c, 2, 60, 64
8, 57600, Note_off_c, 2, 58, 64
8, 57600, Note_off_c, 2, 54, 64
8, 57600, Note_on_c, 2, 60, 60
8, 57600, Note_on_c, 2, 63, 60
8, 57600, Note_on_c, 2, 53, 60
8, 57600, Note_on_c, 2, 68, 60
8, 57990, Note_off_c, 2, 68, 64
8, 57990, Note_off_c, 2, 53, 64
8, 57990, Note_off_c, 2, 63, 64
8, 57990, Note_off_c, 2, 60, 64
8, 58010, Note_on_c, 2, 20, 20
8, 58076, Note_off_c, 2, 20, 64
8, 58490, Note_on_c, 2, 13, 13
8, 58556, Note_off_c, 2, 13, 64
8, 58970, Note_on_c, 2, 60, 60
8, 58970, Note_on_c, 2, 63, 60
8, 58970, Note_on_c, 2, 54, 60
8, 58970, Note_on_c, 2, 70, 60
8, 59516, Note_off_c, 2, 70, 64
8, 59516, Note_off_c, 2, 54, 64
8, 59516, Note_off_c, 2, 63, 64
8, 59516, Note_off_c, 2, 60, 64
8, 59520, Note_on_c, 2, 19, 19
8, 59521, Note_off_c, 2, 19, 64
8, 59860, Note_on_c, 2, 19, 63
8, 59861, Note_off_c, 2, 19, 64
8, 60000, Note_on_c, 2, 57, 35
8, 60000, Note_on_c, 2, 52, 36
8, 60000, Note_on_c, 2, 67, 69
8, 60000, Note_on_c, 2, 60, 30
8, 60000, Note_on_c, 2, 72, 60
8, 60000, Note_on_c, 2, 55, 54
8, 60140, Note_off_c, 2, 72, 64
8, 60162, Note_off_c, 2, 67, 64
8, 60176, Note_on_c, 2, 64, 58
8, 60176, Note_on_c, 2, 69, 60
8, 60390, Note_off_c, 2, 69, 64
8, 60390, Note_off_c, 2, 64, 64
8, 60390, Note_off_c, 2, 55, 64
8, 60390, Note_off_c, 2, 60, 64
8, 60390, Note_off_c, 2, 52, 64
8, 60390, Note_off_c, 2, 57, 64
8, 60410, Note_on_c, 2, 55, 60
8, 60410, Note_on_c, 2, 70, 60
8, 60410, Note_on_c, 2, 61, 60
8, 60410, Note_on_c, 2, 65, 60
8, 60956, Note_off_c, 2, 65, 64
8, 60956, Note_off_c, 2, 61, 64
8, 60956, Note_off_c, 2, 70, 64
8, 60956, Note_off_c, 2, 55, 64
8, 60960, Note_on_c, 2, 58, 60
8, 60960, Note_on_c, 2, 73, 60
8, 60960, Note_on_c, 2, 64, 60
8, 60960, Note_on_c, 2, 67, 60
8, 61440, Note_off_c, 2, 67, 64
8, 61440, Note_off_c, 2, 64, 64
8, 61440, Note_off_c, 2, 73, 64
8, 61440, Note_off_c, 2, 58, 64
8, 61440, Note_on_c, 2, 62, 60
8, 61440, Note_on_c, 2, 65, 60
8, 61440, Note_on_c, 2, 56, 60
8, 61440, Note_on_c, 2, 72, 60
8, 62400, Note_off_c, 2, 72, 64
8, 62400, Note_off_c, 2, 56, 64
8, 62400, Note_off_c, 2, 65, 64
8, 62400, Note_off_c, 2, 62, 64
8, 62400, Note_on_c, 2, 62, 60
8, 62400, Note_on_c, 2, 65, 60
8, 62400, Note_on_c, 2, 56, 60
8, 62400, Note_on_c, 2, 72, 60
8, 62790, Note_off_c, 2, 72, 64
8, 62790, Note_off_c, 2, 56, 64
8, 62790, Note_off_c, 2, 65, 64
8, 62790, Note_off_c, 2, 62, 64
8, 62810, Note_on_c, 2, 14, 14
8, 62876, Note_off_c, 2, 14, 64
8, 63196, Note_on_c, 2, 14, 57
8, 63197, Note_off_c, 2, 14, 64
8, 64320, Note_on_c, 2, 55, 60
8, 64320, Note_on_c, 2, 70, 60
8, 64320, Note_on_c, 2, 62, 60
8, 64320, Note_on_c, 2, 65, 60
8, 64800, Note_off_c, 2, 65, 64
8, 64800, Note_off_c, 2, 62, 64
8, 64800, Note_off_c, 2, 70, 64
8, 64800, Note_off_c, 2, 55, 64
8, 64800, Note_on_c, 2, 58, 60
8, 64800, Note_on_c, 2, 74, 60
8, 64800, Note_on_c, 2, 64, 60
8, 64800, Note_on_c, 2, 67, 60
8, 65280, Note_off_c, 2, 67, 64
8, 65280, Note_off_c, 2, 64, 64
8, 65280, Note_off_c, 2, 74, 64
8, 65280, Note_off_c, 2, 58, 64
8, 65280, Note_on_c, 2, 64, 60
8, 65280, Note_on_c, 2, 67, 60
8, 65280, Note_on_c, 2, 57, 60
8, 65280, Note_on_c, 2, 72, 60
8, 65670, Note_off_c, 2, 72, 64
8, 65670, Note_off_c, 2, 57, 64
8, 65670, Note_off_c, 2, 67, 64
8, 65670, Note_off_c, 2, 64, 64
8, 65690, Note_on_c, 2, 65, 60
8, 65690, Note_on_c, 2, 69, 60
8, 65690, Note_on_c, 2, 58, 60
8, 65690, Note_on_c, 2, 74, 60
8, 66236, Note_off_c, 2, 74, 64
8, 66236, Note_off_c, 2, 58, 64
8, 66236, Note_off_c, 2, 69, 64
8, 66236, Note_off_c, 2, 65, 64
8, 66240, Note_on_c, 2, 67, 60
8, 66240, Note_on_c, 2, 69, 60
8, 66240, Note_on_c, 2, 60, 60
8, 66240, Note_on_c, 2, 76, 60
8, 66720, Note_off_c, 2, 76, 64
8, 66720, Note_off_c, 2, 60, 64
8, 66720, Note_off_c, 2, 69, 64
8, 66720, Note_off_c, 2, 67, 64
8, 66720, Note_on_c, 2, 60, 60
8, 66720, Note_on_c, 2, 77, 60
8, 66720, Note_on_c, 2, 66, 60
8, 66720, Note_on_c, 2, 69, 60
8, 67110, Note_off_c, 2, 69, 64
8, 67110, Note_off_c, 2, 66, 64
8, 67110, Note_off_c, 2, 77, 64
8, 67110, Note_off_c, 2, 60, 64
8, 67130, Note_on_c, 2, 65, 60
8, 67130, Note_on_c, 2, 69, 60
8, 67130, Note_on_c, 2, 58, 60
8, 67130, Note_on_c, 2, 74, 60
8, 67590, Note_off_c, 2, 74, 64
8, 67590, Note_off_c, 2, 58, 64
8, 67590, Note_off_c, 2, 69, 64
8, 67590, Note_off_c, 2, 65, 64
8, 67610, Note_on_c, 2, 67, 60
8, 67610, Note_on_c, 2, 69, 60
8, 67610, Note_on_c, 2, 60, 60
8, 67610, Note_on_c, 2, 76, 60
8, 68156, Note_off_c, 2, 76, 64
8, 68156, Note_off_c, 2, 60, 64
8, 68156, Note_off_c, 2, 69, 64
8, 68156, Note_off_c, 2, 67, 64
8, 68160, Note_on_c, 2, 67, 60
8, 68160, Note_on_c, 2, 70, 60
8, 68160, Note_on_c, 2, 62, 60
8, 68160, Note_on_c, 2, 77, 60
8, 68640, Note_off_c, 2, 77, 64
8, 68640, Note_off_c, 2, 62, 64
8, 68640, Note_off_c, 2, 70, 64
8, 68640, Note_off_c, 2, 67, 64
8, 68640, Note_on_c, 2, 58, 60
8, 68640, Note_on_c, 2, 62, 60
8, 68640, Note_on_c, 2, 64, 60
8, 68640, Note_on_c, 2, 67, 60
8, 69120, Note_off_c, 2, 67, 64
8, 69120, Note_off_c, 2, 64, 64
8, 69120, Note_off_c, 2, 62, 64
8, 69120, Note_off_c, 2, 58, 64
8, 69120, Note_on_c, 2, 55, 60
8, 69120, Note_on_c, 2, 69, 60
8, 69120, Note_on_c, 2, 60, 60
8, 69120, Note_on_c, 2, 63, 60
8, 70080, Note_off_c, 2, 63, 64
8, 70080, Note_off_c, 2, 60, 64
8, 70080, Note_off_c, 2, 69, 64
8, 70080, Note_off_c, 2, 55, 64
8, 70080, Note_on_c, 2, 60, 60
8, 70080, Note_on_c, 2, 63, 60
8, 70080, Note_on_c, 2, 54, 60
8, 70080, Note_on_c, 2, 70, 60
8, 71040, Note_off_c, 2, 70, 64
8, 71040, Note_off_c, 2, 54, 64
8, 71040, Note_off_c, 2, 63, 64
8, 71040, Note_off_c, 2, 60, 64
8, 71040, Note_on_c, 2, 53, 60
8, 71040, Note_on_c, 2, 67, 60
8, 71040, Note_on_c, 2, 58, 60
8, 71040, Note_on_c, 2, 62, 60
8, 71910, Note_off_c, 2, 62, 64
8, 71910, Note_off_c, 2, 58, 64
8, 71910, Note_off_c, 2, 67, 64
8, 71910, Note_off_c, 2, 53, 64
8, 71930, Note_on_c, 2, 56, 60
8, 71930, Note_on_c, 2, 60, 60
8, 71930, Note_on_c, 2, 61, 60
8, 71930, Note_on_c, 2, 65, 60
8, 72476, Note_off_c, 2, 65, 64
8, 72476, Note_off_c, 2, 61, 64
8, 72476, Note_off_c, 2, 60, 64
8, 72476, Note_off_c, 2, 56, 64
8, 72480, Note_on_c, 2, 61, 60
8, 72480, Note_on_c, 2, 65, 60
8, 72480, Note_on_c, 2, 55, 60
8, 72480, Note_on_c, 2, 72, 60
8, 72960, Note_off_c, 2, 72, 64
8, 72960, Note_off_c, 2, 55, 64
8, 72960, Note_off_c, 2, 65, 64
8, 72960, Note_off_c, 2, 61, 64
8, 72960, Note_on_c, 2, 55, 60
8, 72960, Note_on_c, 2, 70, 60
8, 72960, Note_on_c, 2, 60, 60
8, 72960, Note_on_c, 2, 63, 60
8, 73830, Note_off_c, 2, 63, 64
8, 73830, Note_off_c, 2, 60, 64
8, 73830, Note_off_c, 2, 70, 64
8, 73830, Note_off_c, 2, 55, 64
8, 73850, Note_on_c, 2, 55, 60
8, 73850, Note_on_c, 2, 70, 60
8, 73850, Note_on_c, 2, 60, 60
8, 73850, Note_on_c, 2, 63, 60
8, 74396, Note_off_c, 2, 63, 64
8, 74396, Note_off_c, 2, 60, 64
8, 74396, Note_off_c, 2, 70, 64
8, 74396, Note_off_c, 2, 55, 64
8, 74400, Note_on_c, 2, 60, 60
8, 74400, Note_on_c, 2, 62, 60
8, 74400, Note_on_c, 2, 53, 60
8, 74400, Note_on_c, 2, 68, 60
8, 74880, Note_off_c, 2, 68, 64
8, 74880, Note_off_c, 2, 53, 64
8, 74880, Note_off_c, 2, 62, 64
8, 74880, Note_off_c, 2, 60, 64
8, 74880, Note_on_c, 2, 58, 60
8, 74880, Note_on_c, 2, 62, 60
8, 74880, Note_on_c, 2, 51, 60
8, 74880, Note_on_c, 2, 67, 60
8, 75360, Note_off_c, 2, 67, 64
8, 75360, Note_off_c, 2, 51, 64
8, 75360, Note_off_c, 2, 62, 64
8, 75360, Note_off_c, 2, 58, 64
8, 75360, Note_on_c, 2, 55, 60
8, 75360, Note_on_c, 2, 69, 60
8, 75360, Note_on_c, 2, 60, 60
8, 75360, Note_on_c, 2, 63, 60
8, 75840, Note_off_c, 2, 63, 64
8, 75840, Note_off_c, 2, 60, 64
8, 75840, Note_off_c, 2, 69, 64
8, 75840, Note_off_c, 2, 55, 64
8, 75840, Note_on_c, 2, 60, 60
8, 75840, Note_on_c, 2, 62, 60
8, 75840, Note_on_c, 2, 53, 60
8, 75840, Note_on_c, 2, 69, 60
8, 76320, Note_off_c, 2, 69, 64
8, 76320, Note_off_c, 2, 53, 64
8, 76320, Note_off_c, 2, 62, 64
8, 76320, Note_off_c, 2, 60, 64
8, 76320, Note_on_c, 2, 53, 60
8, 76320, Note_on_c, 2, 69, 60
8, 76320, Note_on_c, 2, 59, 60
8, 76320, Note_on_c, 2, 64, 60
8, 76320, Note_on_c, 2, 73, 60
8, 76710, Note_off_c, 2, 73, 64
8, 76710, Note_off_c, 2, 64, 64
8, 76710, Note_off_c, 2, 59, 64
8, 76710, Note_off_c, 2, 69, 64
8, 76710, Note_off_c, 2, 53, 64
8, 76730, Note_on_c, 2, 59, 60
8, 76730, Note_on_c, 2, 62, 60
8, 76730, Note_on_c, 2, 52, 60
8, 76730, Note_on_c, 2, 67, 60
8, 77756, Note_off_c, 2, 67, 64
8, 77756, Note_off_c, 2, 52, 64
8, 77756, Note_off_c, 2, 62, 64
8, 77756, Note_off_c, 2, 59, 64
8, 77760, Note_on_c, 2, 55, 60
8, 77760, Note_on_c, 2, 57, 60
8, 77760, Note_on_c, 2, 60, 60
8, 77760, Note_on_c, 2, 64, 60
8, 78240, Note_off_c, 2, 64, 64
8, 78240, Note_off_c, 2, 60, 64
8, 78240, Note_off_c, 2, 57, 64
8, 78240, Note_off_c, 2, 55, 64
8, 78240, Note_on_c, 2, 60, 60
8, 78240, Note_on_c, 2, 63, 60
8, 78240, Note_on_c, 2, 54, 60
8, 78240, Note_on_c, 2, 69, 60
8, 78720, Note_off_c, 2, 69, 64
8, 78720, Note_off_c, 2, 54, 64
8, 78720, Note_off_c, 2, 63, 64
8, 78720, Note_off_c, 2, 60, 64
8, 78720, Note_on_c, 2, 19, 19
8, 78721, Note_off_c, 2, 19, 64
8, 79130, Note_on_c, 2, 21, 21
8, 79196, Note_off_c, 2, 21, 64
8, 79610, Note_on_c, 2, 55, 60
8, 79610, Note_on_c, 2, 58, 60
8, 79610, Note_on_c, 2, 62, 60
8, 79610, Note_on_c, 2, 65, 60
8, 80156, Note_off_c, 2, 65, 64
8, 80156, Note_off_c, 2, 62, 64
8, 80156, Note_off_c, 2, 58, 64
8, 80156, Note_off_c, 2, 55, 64
8, 80160, Note_on_c, 2, 58, 60
8, 80160, Note_on_c, 2, 62, 60
8, 80160, Note_on_c, 2, 64, 60
8, 80160, Note_on_c, 2, 69, 60
8, 80550, Note_off_c, 2, 69, 64
8, 80550, Note_off_c, 2, 64, 64
8, 80550, Note_off_c, 2, 62, 64
8, 80550, Note_off_c, 2, 58, 64
8, 80570, Note_on_c, 2, 64, 60
8, 80570, Note_on_c, 2, 67, 60
8, 80570, Note_on_c, 2, 57, 60
8, 80570, Note_on_c, 2, 60, 60
8, 81116, Note_off_c, 2, 60, 64
8, 81116, Note_off_c, 2, 57, 64
8, 81116, Note_off_c, 2, 67, 64
8, 81116, Note_off_c, 2, 64, 64
8, 81120, Note_on_c, 2, 62, 35
8, 81120, Note_on_c, 2, 55, 36
8, 81120, Note_on_c, 2, 65, 30
8, 81120, Note_on_c, 2, 58, 54
8, 81120, Note_on_c, 2, 70, 69
8, 81120, Note_on_c, 2, 77, 60
8, 81260, Note_off_c, 2, 77, 64
8, 81282, Note_off_c, 2, 70, 64
8, 81296, Note_on_c, 2, 67, 58
8, 81296, Note_on_c, 2, 74, 60
8, 81600, Note_off_c, 2, 74, 64
8, 81600, Note_off_c, 2, 67, 64
8, 81600, Note_off_c, 2, 58, 64
8, 81600, Note_off_c, 2, 65, 64
8, 81600, Note_off_c, 2, 55, 64
8, 81600, Note_off_c, 2, 62, 64
8, 81600, Note_on_c, 2, 21, 21
8, 81601, Note_off_c, 2, 21, 64
8, 82010, Note_on_c, 2, 60, 60
8, 82010, Note_on_c, 2, 64, 60
8, 82010, Note_on_c, 2, 54, 60
8, 82010, Note_on_c, 2, 71, 60
8, 82230, Note_off_c, 2, 71, 64
8, 82230, Note_off_c, 2, 54, 64
8, 82230, Note_off_c, 2, 64, 64
8, 82230, Note_off_c, 2, 60, 64
8, 82250, Note_on_c, 2, 59, 60
8, 82250, Note_on_c, 2, 63, 60
8, 82250, Note_on_c, 2, 53, 60
8, 82250, Note_on_c, 2, 70, 60
8, 82470, Note_off_c, 2, 70, 64
8, 82470, Note_off_c, 2, 53, 64
8, 82470, Note_off_c, 2, 63, 64
8, 82470, Note_off_c, 2, 59, 64
8, 82490, Note_on_c, 2, 58, 60
8, 82490, Note_on_c, 2, 62, 60
8, 82490, Note_on_c, 2, 51, 60
8, 82490, Note_on_c, 2, 67, 60
8, 82950, Note_off_c, 2, 67, 64
8, 82950, Note_off_c, 2, 51, 64
8, 82950, Note_off_c, 2, 62, 64
8, 82950, Note_off_c, 2, 58, 64
8, 82970, Note_on_c, 2, 60, 60
8, 82970, Note_on_c, 2, 64, 60
8, 82970, Note_on_c, 2, 53, 60
8, 82970, Note_on_c, 2, 69, 60
8, 83516, Note_off_c, 2, 69, 64
8, 83516, Note_off_c, 2, 53, 64
8, 83516, Note_off_c, 2, 64, 64
8, 83516, Note_off_c, 2, 60, 64
8, 83520, Note_on_c, 2, 60, 60
8, 83520, Note_on_c, 2, 63, 60
8, 83520, Note_on_c, 2, 54, 60
8, 83520, Note_on_c, 2, 58, 60
8, 83910, Note_off_c, 2, 58, 64
8, 83910, Note_off_c, 2, 54, 64
8, 83910, Note_off_c, 2, 63, 64
8, 83910, Note_off_c, 2, 60, 64
8, 83930, Note_on_c, 2, 60, 35
8, 83930, Note_on_c, 2, 53, 36
8, 83930, Note_on_c, 2, 69, 69
8, 83930, Note_on_c, 2, 63, 30
8, 83930, Note_on_c, 2, 75, 60
8, 83930, Note_on_c, 2, 57, 54
8, 84136, Note_off_c, 2, 75, 64
8, 84158, Note_off_c, 2, 69, 64
8, 84176, Note_on_c, 2, 65, 58
8, 84176, Note_on_c, 2, 72, 60
8, 84476, Note_off_c, 2, 57, 64
8, 84476, Note_off_c, 2, 63, 64
8, 84476, Note_off_c, 2, 53, 64
8, 84476, Note_off_c, 2, 60, 64
8, 84480, Note_off_c, 2, 72, 64
8, 84480, Note_off_c, 2, 65, 64
8, 84480, Note_on_c, 2, 22, 22
8, 84481, Note_off_c, 2, 22, 64
8, 84890, Note_on_c, 2, 63, 35
8, 84890, Note_on_c, 2, 56, 36
8, 84890, Note_on_c, 2, 71, 69
8, 84890, Note_on_c, 2, 66, 30
8, 84890, Note_on_c, 2, 78, 60
8, 84890, Note_on_c, 2, 59, 54
8, 85096, Note_off_c, 2, 78, 64
8, 85118, Note_off_c, 2, 71, 64
8, 85136, Note_on_c, 2, 68, 58
8, 85136, Note_on_c, 2, 75, 60
8, 85436, Note_off_c, 2, 59, 64
8, 85436, Note_off_c, 2, 66, 64
8, 85436, Note_off_c, 2, 56, 64
8, 85436, Note_off_c, 2, 63, 64
8, 85440, Note_off_c, 2, 75, 64
8, 85440, Note_off_c, 2, 68, 64
8, 85440, Note_on_c, 2, 52, 60
8, 85440, Note_on_c, 2, 68, 60
8, 85440, Note_on_c, 2, 58, 60
8, 85440, Note_on_c, 2, 63, 60
8, 86310, Note_off_c, 2, 63, 64
8, 86310, Note_off_c, 2, 58, 64
8, 86310, Note_off_c, 2, 68, 64
8, 86310, Note_off_c, 2, 52, 64
8, 86330, Note_on_c, 2, 17, 17
8, 86396, Note_off_c, 2, 17, 64
8, 86732, Note_on_c, 2, 17, 63
8, 86733, Note_off_c, 2, 17, 64
8, 86880, Note_on_c, 2, 12, 12
8, 86881, Note_off_c, 2, 12, 64
8, 87206, Note_on_c, 2, 12, 63
8, 87207, Note_off_c, 2, 12, 64
8, 87360, Note_on_c, 2, 51, 60
8, 87360, Note_on_c, 2, 67, 60
8, 87360, Note_on_c, 2, 56, 60
8, 87360, Note_on_c, 2, 60, 60
8, 87840, Note_off_c, 2, 60, 64
8, 87840, Note_off_c, 2, 56, 64
8, 87840, Note_off_c, 2, 67, 64
8, 87840, Note_off_c, 2, 51, 64
8, 87840, Note_on_c, 2, 20, 20
8, 87841, Note_off_c, 2, 20, 64
8, 88250, Note_on_c, 2, 13, 13
8, 88316, Note_off_c, 2, 13, 64
8, 88730, Note_on_c, 2, 20, 20
8, 88796, Note_off_c, 2, 20, 64
8, 89138, Note_on_c, 2, 20, 63
8, 89139, Note_off_c, 2, 20, 64
8, 89280, Note_on_c, 2, 60, 60
8, 89280, Note_on_c, 2, 63, 60
8, 89280, Note_on_c, 2, 53, 60
8, 89280, Note_on_c, 2, 68, 60
8, 89760, Note_off_c, 2, 68, 64
8, 89760, Note_off_c, 2, 53, 64
8, 89760, Note_off_c, 2, 63, 64
8, 89760, Note_off_c, 2, 60, 64
8, 89760, Note_on_c, 2, 63, 35
8, 89760, Note_on_c, 2, 57, 36
8, 89760, Note_on_c, 2, 72, 69
8, 89760, Note_on_c, 2, 66, 30
8, 89760, Note_on_c, 2, 78, 60
8, 89760, Note_on_c, 2, 60, 54
8, 89900, Note_off_c, 2, 78, 64
8, 89922, Note_off_c, 2, 72, 64
8, 89936, Note_on_c, 2, 69, 58
8, 89936, Note_on_c, 2, 75, 60
8, 90150, Note_off_c, 2, 75, 64
8, 90150, Note_off_c, 2, 69, 64
8, 90150, Note_off_c, 2, 60, 64
8, 90150, Note_off_c, 2, 66, 64
8, 90150, Note_off_c, 2, 57, 64
8, 90150, Note_off_c, 2, 63, 64
8, 90170, Note_on_c, 2, 19, 19
8, 90236, Note_off_c, 2, 19, 64
8, 90650, Note_on_c, 2, 21, 21
8, 90716, Note_off_c, 2, 21, 64
8, 91130, Note_on_c, 2, 22, 22
8, 91196, Note_off_c, 2, 22, 64
8, 91610, Note_on_c, 2, 60, 35
8, 91610, Note_on_c, 2, 55, 36
8, 91610, Note_on_c, 2, 70, 69
8, 91610, Note_on_c, 2, 64, 30
8, 91610, Note_on_c, 2, 76, 60
8, 91610, Note_on_c, 2, 58, 54
8, 91816, Note_off_c, 2, 76, 64
8, 91838, Note_off_c, 2, 70, 64
8, 91856, Note_on_c, 2, 67, 58
8, 91856, Note_on_c, 2, 72, 60
8, 92070, Note_off_c, 2, 72, 64
8, 92070, Note_off_c, 2, 67, 64
8, 92070, Note_off_c, 2, 58, 64
8, 92070, Note_off_c, 2, 64, 64
8, 92070, Note_off_c, 2, 55, 64
8, 92070, Note_off_c, 2, 60, 64
8, 92090, Note_on_c, 2, 17, 17
8, 92156, Note_off_c, 2, 17, 64
8, 92490, Note_on_c, 2, 17, 60
8, 92491, Note_off_c, 2, 17, 64
8, 92892, Note_on_c, 2, 17, 72
8, 93044, Note_off_c, 2, 17, 64
8, 93120, Note_on_c, 2, 62, 60
8, 93120, Note_on_c, 2, 65, 60
8, 93120, Note_on_c, 2, 56, 60
8, 93120, Note_on_c, 2, 72, 60
8, 93600, Note_off_c, 2, 72, 64
8, 93600, Note_off_c, 2, 56, 64
8, 93600, Note_off_c, 2, 65, 64
8, 93600, Note_off_c, 2, 62, 64
8, 93600, Note_on_c, 2, 63, 35
8, 93600, Note_on_c, 2, 57, 36
8, 93600, Note_on_c, 2, 72, 69
8, 93600, Note_on_c, 2, 66, 30
8, 93600, Note_on_c, 2, 78, 60
8, 93600, Note_on_c, 2, 60, 54
8, 93740, Note_off_c, 2, 78, 64
8, 93762, Note_off_c, 2, 72, 64
8, 93776, Note_on_c, 2, 69, 58
8, 93776, Note_on_c, 2, 75, 60
8, 93990, Note_off_c, 2, 75, 64
8, 93990, Note_off_c, 2, 69, 64
8, 93990, Note_off_c, 2, 60, 64
8, 93990, Note_off_c, 2, 66, 64
8, 93990, Note_off_c, 2, 57, 64
8, 93990, Note_off_c, 2, 63, 64
8, 94010, Note_on_c, 2, 68, 64
8, 94010, Note_on_c, 2, 62, 76
8, 94010, Note_on_c, 2, 60, 46
8, 94010, Note_on_c, 2, 65, 57
8, 94320, Note_on_c, 2, 84, 81
8, 94478, Note_off_c, 2, 84, 64
8, 94496, Note_on_c, 2, 79, 57
8, 94688, Note_off_c, 2, 79, 64
8, 94736, Note_on_c, 2, 84, 75
8, 94816, Note_off_c, 2, 84, 64
8, 94816, Note_on_c, 2, 79, 51
8, 94856, Note_off_c, 2, 79, 64
8, 94884, Note_off_c, 2, 65, 64
8, 94884, Note_off_c, 2, 60, 64
8, 94896, Note_off_c, 2, 62, 64
8, 94902, Note_off_c, 2, 68, 64
8, 95040, Note_on_c, 2, 68, 69
8, 95040, Note_on_c, 2, 65, 56
8, 95040, Note_on_c, 2, 60, 53
8, 95040, Note_on_c, 2, 62, 66
8, 95040, Note_on_c, 2, 79, 66
8, 95040, Note_on_c, 2, 84, 85
8, 95098, Note_off_c, 2, 84, 64
8, 95098, Note_off_c, 2, 79, 64
8, 95098, Note_off_c, 2, 62, 64
8, 95098, Note_off_c, 2, 65, 64
8, 95102, Note_off_c, 2, 60, 64
8, 95126, Note_off_c, 2, 68, 64
8, 95456, Note_on_c, 2, 84, 73
8, 95456, Note_on_c, 2, 79, 65
8, 95456, Note_on_c, 2, 89, 75
8, 95456, Note_on_c, 2, 60, 43
8, 95456, Note_on_c, 2, 68, 54
8, 95456, Note_on_c, 2, 62, 69
8, 95456, Note_on_c, 2, 65, 51
8, 96000, Note_off_c, 2, 65, 64
8, 96000, Note_off_c, 2, 62, 64
8, 96000, Note_off_c, 2, 68, 64
8, 96000, Note_off_c, 2, 60, 64
8, 96000, Note_off_c, 2, 89, 64
8, 96000, Note_off_c, 2, 79, 64
8, 96000, Note_off_c, 2, 84, 64
8, 96000, Control_c, 2, 64, 0
8, 96000, End_track
9, 0, Start_track
9, 0, Title_t, "1st Melody / Piccolo"
9, 0, Program_c, 3, 72
9, 0, Control_c, 3, 7, 90
9, 0, Control_c, 3, 121, 0
9, 0, Control_c, 3, 10, 64
9, 0, Control_c, 3, 123, 0
9, 0, Control_c, 3, 91, 40
9, 0, Control_c, 3, 93, 0
9, 1934, Note_on_c, 3, 69, 60
9, 2056, Note_on_c, 3, 67, 67
9, 2058, Note_off_c, 3, 69, 64
9, 2172, Note_on_c, 3, 65, 67
9, 2180, Note_off_c, 3, 67, 64
9, 2284, Note_on_c, 3, 62, 69
9, 2294, Note_off_c, 3, 65, 64
9, 2408, Note_off_c, 3, 62, 64
9, 2414, Note_on_c, 3, 60, 63
9, 2930, Note_off_c, 3, 60, 64
9, 3022, Note_on_c, 3, 62, 72
9, 3140, Note_on_c, 3, 65, 73
9, 3146, Note_off_c, 3, 62, 64
9, 3248, Note_off_c, 3, 65, 64
9, 3256, Note_on_c, 3, 70, 84
9, 3370, Note_on_c, 3, 74, 81
9, 3374, Note_off_c, 3, 70, 64
9, 3484, Note_off_c, 3, 74, 64
9, 3522, Note_on_c, 3, 74, 81
9, 3722, Note_off_c, 3, 74, 64
9, 3728, Note_on_c, 3, 72, 81
9, 3856, Note_on_c, 3, 74, 74
9, 3860, Note_off_c, 3, 72, 64
9, 4328, Note_on_c, 3, 69, 68
9, 4334, Note_off_c, 3, 74, 64
9, 5254, Note_off_c, 3, 69, 64
9, 5768, Note_on_c, 3, 69, 71
9, 5892, Note_on_c, 3, 67, 64
9, 5902, Note_off_c, 3, 69, 64
9, 6012, Note_on_c, 3, 65, 68
9, 6020, Note_off_c, 3, 67, 64
9, 6134, Note_on_c, 3, 62, 64
9, 6144, Note_off_c, 3, 65, 64
9, 6258, Note_off_c, 3, 62, 64
9, 6262, Note_on_c, 3, 60, 57
9, 6770, Note_off_c, 3, 60, 64
9, 6854, Note_on_c, 3, 62, 68
9, 6968, Note_on_c, 3, 65, 72
9, 6978, Note_off_c, 3, 62, 64
9, 7074, Note_off_c, 3, 65, 64
9, 7092, Note_on_c, 3, 70, 84
9, 7216, Note_off_c, 3, 70, 64
9, 7216, Note_on_c, 3, 74, 71
9, 7334, Note_off_c, 3, 74, 64
9, 7374, Note_on_c, 3, 74, 74
9, 7546, Note_off_c, 3, 74, 64
9, 7568, Note_on_c, 3, 72, 68
9, 7692, Note_on_c, 3, 74, 73
9, 7698, Note_off_c, 3, 72, 64
9, 8166, Note_on_c, 3, 69, 65
9, 8172, Note_off_c, 3, 74, 64
9, 9472, Note_off_c, 3, 69, 64
9, 9608, Note_on_c, 3, 72, 75
9, 9744, Note_off_c, 3, 72, 64
9, 9772, Note_on_c, 3, 72, 77
9, 9934, Note_on_c, 3, 69, 63
9, 9938, Note_off_c, 3, 72, 64
9, 10104, Note_on_c, 3, 67, 58
9, 10106, Note_off_c, 3, 69, 64
9, 10442, Note_off_c, 3, 67, 64
9, 10448, Note_on_c, 3, 65, 69
9, 10552, Note_off_c, 3, 65, 64
9, 10576, Note_on_c, 3, 68, 78
9, 10694, Note_off_c, 3, 68, 64
9, 10732, Note_on_c, 3, 68, 86
9, 10880, Note_on_c, 3, 65, 75
9, 10886, Note_off_c, 3, 68, 64
9, 11026, Note_off_c, 3, 65, 64
9, 11036, Note_on_c, 3, 63, 65
9, 11416, Note_off_c, 3, 63, 64
9, 11416, Note_on_c, 3, 61, 74
9, 11530, Note_off_c, 3, 61, 64
9, 11548, Note_on_c, 3, 63, 78
9, 11704, Note_off_c, 3, 63, 64
9, 11706, Note_on_c, 3, 59, 60
9, 11854, Note_off_c, 3, 59, 64
9, 11862, Note_on_c, 3, 60, 68
9, 12014, Note_off_c, 3, 60, 64
9, 12022, Note_on_c, 3, 63, 77
9, 13212, Note_on_c, 3, 65, 79
9, 13216, Note_off_c, 3, 63, 64
9, 13458, Note_off_c, 3, 65, 64
9, 13458, Note_on_c, 3, 67, 72
9, 13612, Note_on_c, 3, 62, 61
9, 13628, Note_off_c, 3, 67, 64
9, 13770, Note_on_c, 3, 63, 78
9, 13776, Note_off_c, 3, 62, 64
9, 13932, Note_on_c, 3, 67, 65
9, 13938, Note_off_c, 3, 63, 64
9, 14900, Note_off_c, 3, 67, 64
9, 14900, Note_on_c, 3, 71, 79
9, 15370, Note_on_c, 3, 67, 58
9, 15376, Note_off_c, 3, 71, 64
9, 16806, Note_off_c, 3, 67, 64
9, 17058, Note_on_c, 3, 68, 80
9, 17294, Note_off_c, 3, 68, 64
9, 17304, Note_on_c, 3, 69, 61
9, 17418, Note_on_c, 3, 67, 68
9, 17430, Note_off_c, 3, 69, 64
9, 17540, Note_on_c, 3, 65, 70
9, 17546, Note_off_c, 3, 67, 64
9, 17658, Note_on_c, 3, 62, 64
9, 17664, Note_off_c, 3, 65, 64
9, 17778, Note_off_c, 3, 62, 64
9, 17784, Note_on_c, 3, 60, 56
9, 18280, Note_off_c, 3, 60, 64
9, 18376, Note_on_c, 3, 62, 64
9, 18482, Note_off_c, 3, 62, 64
9, 18492, Note_on_c, 3, 65, 77
9, 18606, Note_off_c, 3, 65, 64
9, 18614, Note_on_c, 3, 70, 81
9, 18732, Note_on_c, 3, 74, 68
9, 18734, Note_off_c, 3, 70, 64
9, 18866, Note_off_c, 3, 74, 64
9, 18894, Note_on_c, 3, 74, 72
9, 19078, Note_off_c, 3, 74, 64
9, 19090, Note_on_c, 3, 72, 70
9, 19220, Note_off_c, 3, 72, 64
9, 19222, Note_on_c, 3, 74, 56
9, 19684, Note_on_c, 3, 69, 67
9, 19694, Note_off_c, 3, 74, 64
9, 21042, Note_off_c, 3, 69, 64
9, 21138, Note_on_c, 3, 74, 74
9, 21252, Note_on_c, 3, 72, 68
9, 21272, Note_off_c, 3, 74, 64
9, 21370, Note_off_c, 3, 72, 64
9, 21374, Note_on_c, 3, 70, 75
9, 21492, Note_on_c, 3, 67, 66
9, 21496, Note_off_c, 3, 70, 64
9, 21612, Note_off_c, 3, 67, 64
9, 21618, Note_on_c, 3, 65, 53
9, 22128, Note_off_c, 3, 65, 64
9, 22220, Note_on_c, 3, 66, 67
9, 22312, Note_off_c, 3, 66, 64
9, 22334, Note_on_c, 3, 70, 78
9, 22442, Note_off_c, 3, 70, 64
9, 22452, Note_on_c, 3, 72, 72
9, 22566, Note_off_c, 3, 72, 64
9, 22574, Note_on_c, 3, 73, 77
9, 22706, Note_off_c, 3, 73, 64
9, 22710, Note_on_c, 3, 75, 72
9, 22934, Note_off_c, 3, 75, 64
9, 22938, Note_on_c, 3, 72, 69
9, 23058, Note_off_c, 3, 72, 64
9, 23064, Note_on_c, 3, 73, 80
9, 24394, Note_off_c, 3, 73, 64
9, 24974, Note_on_c, 3, 72, 72
9, 25132, Note_on_c, 3, 68, 77
9, 25134, Note_off_c, 3, 72, 64
9, 25300, Note_off_c, 3, 68, 64
9, 25300, Note_on_c, 3, 72, 66
9, 25446, Note_on_c, 3, 76, 72
9, 25448, Note_off_c, 3, 72, 64
9, 25654, Note_off_c, 3, 76, 64
9, 25698, Note_on_c, 3, 76, 77
9, 25932, Note_on_c, 3, 72, 68
9, 25936, Note_off_c, 3, 76, 64
9, 26582, Note_off_c, 3, 72, 64
9, 26656, Note_on_c, 3, 70, 75
9, 26904, Note_on_c, 3, 68, 74
9, 26914, Note_off_c, 3, 70, 64
9, 27044, Note_off_c, 3, 68, 64
9, 27050, Note_on_c, 3, 65, 66
9, 27252, Note_off_c, 3, 65, 64
9, 27254, Note_on_c, 3, 68, 77
9, 27378, Note_off_c, 3, 68, 64
9, 27380, Note_on_c, 3, 72, 58
9, 27578, Note_off_c, 3, 72, 64
9, 27612, Note_on_c, 3, 72, 67
9, 27846, Note_on_c, 3, 68, 64
9, 27858, Note_off_c, 3, 72, 64
9, 28498, Note_off_c, 3, 68, 64
9, 28570, Note_on_c, 3, 68, 78
9, 28806, Note_off_c, 3, 68, 64
9, 28808, Note_on_c, 3, 69, 57
9, 28934, Note_on_c, 3, 67, 70
9, 28938, Note_off_c, 3, 69, 64
9, 29052, Note_on_c, 3, 65, 67
9, 29068, Note_off_c, 3, 67, 64
9, 29174, Note_on_c, 3, 62, 61
9, 29176, Note_off_c, 3, 65, 64
9, 29288, Note_off_c, 3, 62, 64
9, 29300, Note_on_c, 3, 60, 64
9, 29758, Note_off_c, 3, 60, 64
9, 29906, Note_on_c, 3, 58, 62
9, 30010, Note_off_c, 3, 58, 64
9, 30014, Note_on_c, 3, 61, 66
9, 30130, Note_on_c, 3, 65, 65
9, 30132, Note_off_c, 3, 61, 64
9, 30254, Note_on_c, 3, 68, 78
9, 30262, Note_off_c, 3, 65, 64
9, 30370, Note_off_c, 3, 68, 64
9, 30376, Note_on_c, 3, 70, 70
9, 30610, Note_on_c, 3, 67, 67
9, 30612, Note_off_c, 3, 70, 64
9, 30734, Note_off_c, 3, 67, 64
9, 30734, Note_on_c, 3, 65, 61
9, 31862, Note_off_c, 3, 65, 64
9, 31862, End_track
10, 0, Start_track
10, 0, Title_t, "2nd Melody / Alto sax"
10, 0, Program_c, 4, 65
10, 0, Control_c, 4, 7, 100
10, 0, Control_c, 4, 121, 0
10, 0, Control_c, 4, 10, 64
10, 0, Control_c, 4, 123, 0
10, 0, Control_c, 4, 91, 40
10, 0, Control_c, 4, 93, 0
10, 32654, Note_on_c, 4, 69, 77
10, 32776, Note_on_c, 4, 67, 67
10, 32778, Note_off_c, 4, 69, 64
10, 32892, Note_on_c, 4, 65, 67
10, 32900, Note_off_c, 4, 67, 64
10, 33004, Note_on_c, 4, 62, 69
10, 33014, Note_off_c, 4, 65, 64
10, 33128, Note_off_c, 4, 62, 64
10, 33134, Note_on_c, 4, 60, 63
10, 33650, Note_off_c, 4, 60, 64
10, 33742, Note_on_c, 4, 62, 72
10, 33860, Note_on_c, 4, 65, 73
10, 33866, Note_off_c, 4, 62, 64
10, 33968, Note_off_c, 4, 65, 64
10, 33976, Note_on_c, 4, 70, 84
10, 34090, Note_on_c, 4, 74, 81
10, 34094, Note_off_c, 4, 70, 64
10, 34204, Note_off_c, 4, 74, 64
10, 34242, Note_on_c, 4, 74, 81
10, 34442, Note_off_c, 4, 74, 64
10, 34448, Note_on_c, 4, 72, 81
10, 34576, Note_on_c, 4, 74, 74
10, 34580, Note_off_c, 4, 72, 64
10, 35048, Note_on_c, 4, 69, 68
10, 35054, Note_off_c, 4, 74, 64
10, 35974, Note_off_c, 4, 69, 64
10, 36488, Note_on_c, 4, 69, 71
10, 36612, Note_on_c, 4, 67, 64
10, 36622, Note_off_c, 4, 69, 64
10, 36732, Note_on_c, 4, 65, 68
10, 36740, Note_off_c, 4, 67, 64
10, 36854, Note_on_c, 4, 62, 64
10, 36864, Note_off_c, 4, 65, 64
10, 36978, Note_off_c, 4, 62, 64
10, 36982, Note_on_c, 4, 60, 57
10, 37490, Note_off_c, 4, 60, 64
10, 37574, Note_on_c, 4, 62, 68
10, 37688, Note_on_c, 4, 65, 72
10, 37698, Note_off_c, 4, 62, 64
10, 37794, Note_off_c, 4, 65, 64
10, 37812, Note_on_c, 4, 70, 84
10, 37936, Note_off_c, 4, 70, 64
10, 37936, Note_on_c, 4, 74, 71
10, 38054, Note_off_c, 4, 74, 64
10, 38094, Note_on_c, 4, 74, 74
10, 38266, Note_off_c, 4, 74, 64
10, 38288, Note_on_c, 4, 72, 68
10, 38412, Note_on_c, 4, 74, 73
10, 38418, Note_off_c, 4, 72, 64
10, 38886, Note_on_c, 4, 69, 65
10, 38892, Note_off_c, 4, 74, 64
10, 40192, Note_off_c, 4, 69, 64
10, 40328, Note_on_c, 4, 72, 75
10, 40464, Note_off_c, 4, 72, 64
10, 40492, Note_on_c, 4, 72, 77
10, 40654, Note_on_c, 4, 69, 63
10, 40658, Note_off_c, 4, 72, 64
10, 40824, Note_on_c, 4, 67, 58
10, 40826, Note_off_c, 4, 69, 64
10, 41162, Note_off_c, 4, 67, 64
10, 41168, Note_on_c, 4, 65, 69
10, 41272, Note_off_c, 4, 65, 64
10, 41296, Note_on_c, 4, 68, 78
10, 41414, Note_off_c, 4, 68, 64
10, 41452, Note_on_c, 4, 68, 86
10, 41600, Note_on_c, 4, 65, 75
10, 41606, Note_off_c, 4, 68, 64
10, 41746, Note_off_c, 4, 65, 64
10, 41756, Note_on_c, 4, 63, 65
10, 42136, Note_off_c, 4, 63, 64
10, 42136, Note_on_c, 4, 61, 74
10, 42250, Note_off_c, 4, 61, 64
10, 42268, Note_on_c, 4, 63, 78
10, 42424, Note_off_c, 4, 63, 64
10, 42426, Note_on_c, 4, 59, 60
10, 42574, Note_off_c, 4, 59, 64
10, 42582, Note_on_c, 4, 60, 68
10, 42734, Note_off_c, 4, 60, 64
10, 42742, Note_on_c, 4, 63, 77
10, 43932, Note_on_c, 4, 65, 79
10, 43936, Note_off_c, 4, 63, 64
10, 44178, Note_off_c, 4, 65, 64
10, 44178, Note_on_c, 4, 67, 72
10, 44332, Note_on_c, 4, 62, 61
10, 44348, Note_off_c, 4, 67, 64
10, 44490, Note_on_c, 4, 63, 78
10, 44496, Note_off_c, 4, 62, 64
10, 44652, Note_on_c, 4, 67, 65
10, 44658, Note_off_c, 4, 63, 64
10, 45620, Note_off_c, 4, 67, 64
10, 45620, Note_on_c, 4, 71, 79
10, 46090, Note_on_c, 4, 67, 58
10, 46096, Note_off_c, 4, 71, 64
10, 47526, Note_off_c, 4, 67, 64
10, 47778, Note_on_c, 4, 68, 80
10, 48014, Note_off_c, 4, 68, 64
10, 48024, Note_on_c, 4, 69, 61
10, 48138, Note_on_c, 4, 67, 68
10, 48150, Note_off_c, 4, 69, 64
10, 48260, Note_on_c, 4, 65, 70
10, 48266, Note_off_c, 4, 67, 64
10, 48378, Note_on_c, 4, 62, 64
10, 48384, Note_off_c, 4, 65, 64
10, 48498, Note_off_c, 4, 62, 64
10, 48504, Note_on_c, 4, 60, 56
10, 49000, Note_off_c, 4, 60, 64
10, 49096, Note_on_c, 4, 62, 64
10, 49202, Note_off_c, 4, 62, 64
10, 49212, Note_on_c, 4, 65, 77
10, 49326, Note_off_c, 4, 65, 64
10, 49334, Note_on_c, 4, 70, 81
10, 49452, Note_on_c, 4, 74, 68
10, 49454, Note_off_c, 4, 70, 64
10, 49586, Note_off_c, 4, 74, 64
10, 49614, Note_on_c, 4, 74, 72
10, 49798, Note_off_c, 4, 74, 64
10, 49810, Note_on_c, 4, 72, 70
10, 49940, Note_off_c, 4, 72, 64
10, 49942, Note_on_c, 4, 74, 56
10, 50404, Note_on_c, 4, 69, 67
10, 50414, Note_off_c, 4, 74, 64
10, 51762, Note_off_c, 4, 69, 64
10, 51858, Note_on_c, 4, 74, 74
10, 51972, Note_on_c, 4, 72, 68
10, 51992, Note_off_c, 4, 74, 64
10, 52090, Note_off_c, 4, 72, 64
10, 52094, Note_on_c, 4, 70, 75
10, 52212, Note_on_c, 4, 67, 66
10, 52216, Note_off_c, 4, 70, 64
10, 52332, Note_off_c, 4, 67, 64
10, 52338, Note_on_c, 4, 65, 53
10, 52848, Note_off_c, 4, 65, 64
10, 52940, Note_on_c, 4, 66, 67
10, 53032, Note_off_c, 4, 66, 64
10, 53054, Note_on_c, 4, 70, 78
10, 53162, Note_off_c, 4, 70, 64
10, 53172, Note_on_c, 4, 72, 72
10, 53286, Note_off_c, 4, 72, 64
10, 53294, Note_on_c, 4, 73, 77
10, 53426, Note_off_c, 4, 73, 64
10, 53430, Note_on_c, 4, 75, 72
10, 53654, Note_off_c, 4, 75, 64
10, 53658, Note_on_c, 4, 72, 69
10, 53778, Note_off_c, 4, 72, 64
10, 53784, Note_on_c, 4, 73, 80
10, 55114, Note_off_c, 4, 73, 64
10, 55694, Note_on_c, 4, 72, 72
10, 55852, Note_on_c, 4, 68, 77
10, 55854, Note_off_c, 4, 72, 64
10, 56020, Note_off_c, 4, 68, 64
10, 56020, Note_on_c, 4, 72, 66
10, 56166, Note_on_c, 4, 76, 72
10, 56168, Note_off_c, 4, 72, 64
10, 56374, Note_off_c, 4, 76, 64
10, 56418, Note_on_c, 4, 76, 77
10, 56652, Note_on_c, 4, 72, 68
10, 56656, Note_off_c, 4, 76, 64
10, 57302, Note_off_c, 4, 72, 64
10, 57376, Note_on_c, 4, 70, 75
10, 57624, Note_on_c, 4, 68, 74
10, 57634, Note_off_c, 4, 70, 64
10, 57764, Note_off_c, 4, 68, 64
10, 57770, Note_on_c, 4, 65, 66
10, 57972, Note_off_c, 4, 65, 64
10, 57974, Note_on_c, 4, 68, 77
10, 58098, Note_off_c, 4, 68, 64
10, 58100, Note_on_c, 4, 72, 58
10, 58298, Note_off_c, 4, 72, 64
10, 58332, Note_on_c, 4, 72, 67
10, 58566, Note_on_c, 4, 68, 64
10, 58578, Note_off_c, 4, 72, 64
10, 59218, Note_off_c, 4, 68, 64
10, 59290, Note_on_c, 4, 68, 78
10, 59526, Note_off_c, 4, 68, 64
10, 59528, Note_on_c, 4, 69, 57
10, 59654, Note_on_c, 4, 67, 70
10, 59658, Note_off_c, 4, 69, 64
10, 59772, Note_on_c, 4, 65, 67
10, 59788, Note_off_c, 4, 67, 64
10, 59894, Note_on_c, 4, 62, 61
10, 59896, Note_off_c, 4, 65, 64
10, 60008, Note_off_c, 4, 62, 64
10, 60020, Note_on_c, 4, 60, 64
10, 60478, Note_off_c, 4, 60, 64
10, 60626, Note_on_c, 4, 58, 62
10, 60730, Note_off_c, 4, 58, 64
10, 60734, Note_on_c, 4, 61, 66
10, 60850, Note_on_c, 4, 65, 65
10, 60852, Note_off_c, 4, 61, 64
10, 60974, Note_on_c, 4, 68, 78
10, 60982, Note_off_c, 4, 65, 64
10, 61090, Note_off_c, 4, 68, 64
10, 61096, Note_on_c, 4, 70, 70
10, 61330, Note_on_c, 4, 67, 67
10, 61332, Note_off_c, 4, 70, 64
10, 61454, Note_off_c, 4, 67, 64
10, 61454, Note_on_c, 4, 65, 61
10, 62582, Note_off_c, 4, 65, 64
10, 62582, End_track
11, 0, Start_track
11, 0, Title_t, "3rd Melody / Trombone"
11, 0, Program_c, 5, 57
11, 0, Control_c, 5, 7, 100
11, 0, Control_c, 5, 121, 0
11, 0, Control_c, 5, 10, 64
11, 0, Control_c, 5, 123, 0
11, 0, Control_c, 5, 91, 40
11, 0, Control_c, 5, 93, 0
11, 63374, Note_on_c, 5, 69, 77
11, 63496, Note_on_c, 5, 67, 67
11, 63498, Note_off_c, 5, 69, 64
11, 63612, Note_on_c, 5, 65, 67
11, 63620, Note_off_c, 5, 67, 64
11, 63724, Note_on_c, 5, 62, 69
11, 63734, Note_off_c, 5, 65, 64
11, 63848, Note_off_c, 5, 62, 64
11, 63854, Note_on_c, 5, 60, 63
11, 64370, Note_off_c, 5, 60, 64
11, 64462, Note_on_c, 5, 62, 72
11, 64580, Note_on_c, 5, 65, 73
11, 64586, Note_off_c, 5, 62, 64
11, 64688, Note_off_c, 5, 65, 64
11, 64696, Note_on_c, 5, 70, 84
11, 64810, Note_on_c, 5, 74, 81
11, 64814, Note_off_c, 5, 70, 64
11, 64924, Note_off_c, 5, 74, 64
11, 64962, Note_on_c, 5, 74, 81
11, 65162, Note_off_c, 5, 74, 64
11, 65168, Note_on_c, 5, 72, 81
11, 65296, Note_on_c, 5, 74, 74
11, 65300, Note_off_c, 5, 72, 64
11, 65768, Note_on_c, 5, 69, 68
11, 65774, Note_off_c, 5, 74, 64
11, 66694, Note_off_c, 5, 69, 64
11, 67208, Note_on_c, 5, 69, 71
11, 67332, Note_on_c, 5, 67, 64
11, 67342, Note_off_c, 5, 69, 64
11, 67452, Note_on_c, 5, 65, 68
11, 67460, Note_off_c, 5, 67, 64
11, 67574, Note_on_c, 5, 62, 64
11, 67584, Note_off_c, 5, 65, 64
11, 67698, Note_off_c, 5, 62, 64
11, 67702, Note_on_c, 5, 60, 57
11, 68210, Note_off_c, 5, 60, 64
11, 68294, Note_on_c, 5, 62, 68
11, 68408, Note_on_c, 5, 65, 72
11, 68418, Note_off_c, 5, 62, 64
11, 68514, Note_off_c, 5, 65, 64
11, 68532, Note_on_c, 5, 70, 84
11, 68656, Note_off_c, 5, 70, 64
11, 68656, Note_on_c, 5, 74, 71
11, 68774, Note_off_c, 5, 74, 64
11, 68814, Note_on_c, 5, 74, 74
11, 68986, Note_off_c, 5, 74, 64
11, 69008, Note_on_c, 5, 72, 68
11, 69132, Note_on_c, 5, 74, 73
11, 69138, Note_off_c, 5, 72, 64
11, 69606, Note_on_c, 5, 69, 65
11, 69612, Note_off_c, 5, 74, 64
11, 70912, Note_off_c, 5, 69, 64
11, 71048, Note_on_c, 5, 72, 75
11, 71184, Note_off_c, 5, 72, 64
11, 71212, Note_on_c, 5, 72, 77
11, 71374, Note_on_c, 5, 69, 63
11, 71378, Note_off_c, 5, 72, 64
11, 71544, Note_on_c, 5, 67, 58
11, 71546, Note_off_c, 5, 69, 64
11, 71882, Note_off_c, 5, 67, 64
11, 71888, Note_on_c, 5, 65, 69
11, 71992, Note_off_c, 5, 65, 64
11, 72016, Note_on_c, 5, 68, 78
11, 72134, Note_off_c, 5, 68, 64
11, 72172, Note_on_c, 5, 68, 86
11, 72320, Note_on_c, 5, 65, 75
11, 72326, Note_off_c, 5, 68, 64
11, 72466, Note_off_c, 5, 65, 64
11, 72476, Note_on_c, 5, 63, 65
11, 72856, Note_off_c, 5, 63, 64
11, 72856, Note_on_c, 5, 61, 74
11, 72970, Note_off_c, 5, 61, 64
11, 72988, Note_on_c, 5, 63, 78
11, 73144, Note_off_c, 5, 63, 64
11, 73146, Note_on_c, 5, 59, 60
11, 73294, Note_off_c, 5, 59, 64
11, 73302, Note_on_c, 5, 60, 68
11, 73454, Note_off_c, 5, 60, 64
11, 73462, Note_on_c, 5, 63, 77
11, 74652, Note_on_c, 5, 65, 79
11, 74656, Note_off_c, 5, 63, 64
11, 74898, Note_off_c, 5, 65, 64
11, 74898, Note_on_c, 5, 67, 72
11, 75052, Note_on_c, 5, 62, 61
11, 75068, Note_off_c, 5, 67, 64
11, 75210, Note_on_c, 5, 63, 78
11, 75216, Note_off_c, 5, 62, 64
11, 75372, Note_on_c, 5, 67, 65
11, 75378, Note_off_c, 5, 63, 64
11, 76340, Note_off_c, 5, 67, 64
11, 76340, Note_on_c, 5, 71, 79
11, 76810, Note_on_c, 5, 67, 58
11, 76816, Note_off_c, 5, 71, 64
11, 78246, Note_off_c, 5, 67, 64
11, 78498, Note_on_c, 5, 68, 80
11, 78734, Note_off_c, 5, 68, 64
11, 78744, Note_on_c, 5, 69, 61
11, 78858, Note_on_c, 5, 67, 68
11, 78870, Note_off_c, 5, 69, 64
11, 78980, Note_on_c, 5, 65, 70
11, 78986, Note_off_c, 5, 67, 64
11, 79098, Note_on_c, 5, 62, 64
11, 79104, Note_off_c, 5, 65, 64
11, 79218, Note_off_c, 5, 62, 64
11, 79224, Note_on_c, 5, 60, 56
11, 79720, Note_off_c, 5, 60, 64
11, 79816, Note_on_c, 5, 62, 64
11, 79922, Note_off_c, 5, 62, 64
11, 79932, Note_on_c, 5, 65, 77
11, 80046, Note_off_c, 5, 65, 64
11, 80054, Note_on_c, 5, 70, 81
11, 80172, Note_on_c, 5, 74, 68
11, 80174, Note_off_c, 5, 70, 64
11, 80306, Note_off_c, 5, 74, 64
11, 80334, Note_on_c, 5, 74, 72
11, 80518, Note_off_c, 5, 74, 64
11, 80530, Note_on_c, 5, 72, 70
11, 80660, Note_off_c, 5, 72, 64
11, 80662, Note_on_c, 5, 74, 56
11, 81124, Note_on_c, 5, 69, 67
11, 81134, Note_off_c, 5, 74, 64
11, 82482, Note_off_c, 5, 69, 64
11, 82578, Note_on_c, 5, 74, 74
11, 82692, Note_on_c, 5, 72, 68
11, 82712, Note_off_c, 5, 74, 64
11, 82810, Note_off_c, 5, 72, 64
11, 82814, Note_on_c, 5, 70, 75
11, 82932, Note_on_c, 5, 67, 66
11, 82936, Note_off_c, 5, 70, 64
11, 83052, Note_off_c, 5, 67, 64
11, 83058, Note_on_c, 5, 65, 53
11, 83568, Note_off_c, 5, 65, 64
11, 83660, Note_on_c, 5, 66, 67
11, 83752, Note_off_c, 5, 66, 64
11, 83774, Note_on_c, 5, 70, 78
11, 83882, Note_off_c, 5, 70, 64
11, 83892, Note_on_c, 5, 72, 72
11, 84006, Note_off_c, 5, 72, 64
11, 84014, Note_on_c, 5, 73, 77
11, 84146, Note_off_c, 5, 73, 64
11, 84150, Note_on_c, 5, 75, 72
11, 84374, Note_off_c, 5, 75, 64
11, 84378, Note_on_c, 5, 72, 69
11, 84498, Note_off_c, 5, 72, 64
11, 84504, Note_on_c, 5, 73, 80
11, 85834, Note_off_c, 5, 73, 64
11, 86414, Note_on_c, 5, 72, 72
11, 86572, Note_on_c, 5, 68, 77
11, 86574, Note_off_c, 5, 72, 64
11, 86740, Note_off_c, 5, 68, 64
11, 86740, Note_on_c, 5, 72, 66
11, 86886, Note_on_c, 5, 76, 72
11, 86888, Note_off_c, 5, 72, 64
11, 87094, Note_off_c, 5, 76, 64
11, 87138, Note_on_c, 5, 76, 77
11, 87372, Note_on_c, 5, 72, 68
11, 87376, Note_off_c, 5, 76, 64
11, 88022, Note_off_c, 5, 72, 64
11, 88096, Note_on_c, 5, 70, 75
11, 88344, Note_on_c, 5, 68, 74
11, 88354, Note_off_c, 5, 70, 64
11, 88484, Note_off_c, 5, 68, 64
11, 88490, Note_on_c, 5, 65, 66
11, 88692, Note_off_c, 5, 65, 64
11, 88694, Note_on_c, 5, 68, 77
11, 88818, Note_off_c, 5, 68, 64
11, 88820, Note_on_c, 5, 72, 58
11, 89018, Note_off_c, 5, 72, 64
11, 89052, Note_on_c, 5, 72, 67
11, 89286, Note_on_c, 5, 68, 64
11, 89298, Note_off_c, 5, 72, 64
11, 89938, Note_off_c, 5, 68, 64
11, 90010, Note_on_c, 5, 68, 78
11, 90246, Note_off_c, 5, 68, 64
11, 90248, Note_on_c, 5, 69, 57
11, 90374, Note_on_c, 5, 67, 70
11, 90378, Note_off_c, 5, 69, 64
11, 90492, Note_on_c, 5, 65, 67
11, 90508, Note_off_c, 5, 67, 64
11, 90614, Note_on_c, 5, 62, 61
11, 90616, Note_off_c, 5, 65, 64
11, 90728, Note_off_c, 5, 62, 64
11, 90740, Note_on_c, 5, 60, 64
11, 91198, Note_off_c, 5, 60, 64
11, 91346, Note_on_c, 5, 58, 62
11, 91450, Note_off_c, 5, 58, 64
11, 91454, Note_on_c, 5, 61, 66
11, 91570, Note_on_c, 5, 65, 65
11, 91572, Note_off_c, 5, 61, 64
11, 91694, Note_on_c, 5, 68, 78
11, 91702, Note_off_c, 5, 65, 64
11, 91810, Note_off_c, 5, 68, 64
11, 91816, Note_on_c, 5, 70, 70
11, 92050, Note_on_c, 5, 67, 67
11, 92052, Note_off_c, 5, 70, 64
11, 92174, Note_off_c, 5, 67, 64
11, 92174, Note_on_c, 5, 65, 61
11, 93302, Note_off_c, 5, 65, 64
11, 93302, End_track
12, 0, Start_track
12, 0, Title_t, "Guitar / Nylon string"
12, 0, Program_c, 6, 24
12, 0, Control_c, 6, 7, 60
12, 0, Control_c, 6, 121, 0
12, 0, Control_c, 6, 10, 64
12, 0, Control_c, 6, 123, 0
12, 0, Control_c, 6, 91, 40
12, 0, Control_c, 6, 93, 0
12, 0, Control_c, 6, 64, 0
12, 3120, Note_on_c, 6, 55, 73
12, 3120, Note_on_c, 6, 50, 47
12, 3182, Note_off_c, 6, 50, 64
12, 3182, Note_off_c, 6, 55, 64
12, 3600, Note_on_c, 6, 58, 73
12, 3600, Note_on_c, 6, 52, 47
12, 3662, Note_off_c, 6, 52, 64
12, 3662, Note_off_c, 6, 58, 64
12, 4080, Note_on_c, 6, 57, 73
12, 4080, Note_on_c, 6, 52, 47
12, 4142, Note_off_c, 6, 52, 64
12, 4142, Note_off_c, 6, 57, 64
12, 4560, Note_on_c, 6, 58, 73
12, 4560, Note_on_c, 6, 53, 47
12, 4622, Note_off_c, 6, 53, 64
12, 4622, Note_off_c, 6, 58, 64
12, 5040, Note_on_c, 6, 55, 73
12, 5040, Note_on_c, 6, 48, 47
12, 5102, Note_off_c, 6, 48, 64
12, 5102, Note_off_c, 6, 55, 64
12, 5520, Note_on_c, 6, 60, 68
12, 5576, Note_off_c, 6, 60, 64
12, 6000, Note_on_c, 6, 58, 73
12, 6000, Note_on_c, 6, 53, 47
12, 6062, Note_off_c, 6, 53, 64
12, 6062, Note_off_c, 6, 58, 64
12, 6480, Note_on_c, 6, 55, 73
12, 6480, Note_on_c, 6, 48, 47
12, 6542, Note_off_c, 6, 48, 64
12, 6542, Note_off_c, 6, 55, 64
12, 6960, Note_on_c, 6, 55, 73
12, 6960, Note_on_c, 6, 50, 47
12, 7022, Note_off_c, 6, 50, 64
12, 7022, Note_off_c, 6, 55, 64
12, 7440, Note_on_c, 6, 58, 73
12, 7440, Note_on_c, 6, 52, 47
12, 7502, Note_off_c, 6, 52, 64
12, 7502, Note_off_c, 6, 58, 64
12, 7920, Note_on_c, 6, 55, 73
12, 7920, Note_on_c, 6, 48, 47
12, 7982, Note_off_c, 6, 48, 64
12, 7982, Note_off_c, 6, 55, 64
12, 8400, Note_on_c, 6, 55, 70
12, 8400, Note_on_c, 6, 48, 52
12, 8466, Note_off_c, 6, 55, 64
12, 8474, Note_off_c, 6, 48, 64
12, 8880, Note_on_c, 6, 60, 68
12, 8936, Note_off_c, 6, 60, 64
12, 9120, Note_on_c, 6, 60, 61
12, 9120, Note_on_c, 6, 54, 12
12, 9168, Note_off_c, 6, 54, 64
12, 9174, Note_off_c, 6, 60, 64
12, 9360, Note_on_c, 6, 54, 73
12, 9360, Note_on_c, 6, 60, 88
12, 9418, Note_off_c, 6, 60, 64
12, 9418, Note_off_c, 6, 54, 64
12, 9840, Note_on_c, 6, 58, 73
12, 9840, Note_on_c, 6, 53, 47
12, 9902, Note_off_c, 6, 53, 64
12, 9902, Note_off_c, 6, 58, 64
12, 10320, Note_on_c, 6, 58, 70
12, 10320, Note_on_c, 6, 53, 52
12, 10386, Note_off_c, 6, 58, 64
12, 10394, Note_off_c, 6, 53, 64
12, 10800, Note_on_c, 6, 56, 73
12, 10800, Note_on_c, 6, 49, 47
12, 10862, Note_off_c, 6, 49, 64
12, 10862, Note_off_c, 6, 56, 64
12, 11280, Note_on_c, 6, 55, 73
12, 11280, Note_on_c, 6, 49, 47
12, 11342, Note_off_c, 6, 49, 64
12, 11342, Note_off_c, 6, 55, 64
12, 11760, Note_on_c, 6, 60, 73
12, 11760, Note_on_c, 6, 55, 47
12, 11822, Note_off_c, 6, 55, 64
12, 11822, Note_off_c, 6, 60, 64
12, 12240, Note_on_c, 6, 60, 70
12, 12240, Note_on_c, 6, 55, 52
12, 12306, Note_off_c, 6, 60, 64
12, 12314, Note_off_c, 6, 55, 64
12, 12720, Note_on_c, 6, 60, 73
12, 12720, Note_on_c, 6, 55, 47
12, 12782, Note_off_c, 6, 55, 64
12, 12782, Note_off_c, 6, 60, 64
12, 13200, Note_on_c, 6, 60, 68
12, 13256, Note_off_c, 6, 60, 64
12, 13680, Note_on_c, 6, 58, 73
12, 13680, Note_on_c, 6, 51, 47
12, 13742, Note_off_c, 6, 51, 64
12, 13742, Note_off_c, 6, 58, 64
12, 14160, Note_on_c, 6, 55, 73
12, 14160, Note_on_c, 6, 48, 47
12, 14222, Note_off_c, 6, 48, 64
12, 14222, Note_off_c, 6, 55, 64
12, 14640, Note_on_c, 6, 60, 73
12, 14640, Note_on_c, 6, 53, 47
12, 14702, Note_off_c, 6, 53, 64
12, 14702, Note_off_c, 6, 60, 64
12, 15120, Note_on_c, 6, 59, 73
12, 15120, Note_on_c, 6, 53, 47
12, 15182, Note_off_c, 6, 53, 64
12, 15182, Note_off_c, 6, 59, 64
12, 15600, Note_on_c, 6, 59, 73
12, 15600, Note_on_c, 6, 52, 47
12, 15662, Note_off_c, 6, 52, 64
12, 15662, Note_off_c, 6, 59, 64
12, 16080, Note_on_c, 6, 59, 70
12, 16080, Note_on_c, 6, 52, 52
12, 16146, Note_off_c, 6, 59, 64
12, 16154, Note_off_c, 6, 52, 64
12, 16560, Note_on_c, 6, 55, 68
12, 16616, Note_off_c, 6, 55, 64
12, 17040, Note_on_c, 6, 60, 68
12, 17096, Note_off_c, 6, 60, 64
12, 17280, Note_on_c, 6, 53, 52
12, 17280, Note_on_c, 6, 58, 64
12, 17506, Note_off_c, 6, 58, 64
12, 17518, Note_off_c, 6, 53, 64
12, 17520, Note_on_c, 6, 58, 63
12, 17520, Note_on_c, 6, 53, 46
12, 17566, Note_off_c, 6, 53, 64
12, 17582, Note_off_c, 6, 58, 64
12, 17760, Note_on_c, 6, 48, 52
12, 17760, Note_on_c, 6, 55, 64
12, 17986, Note_off_c, 6, 55, 64
12, 17998, Note_off_c, 6, 48, 64
12, 18000, Note_on_c, 6, 55, 63
12, 18000, Note_on_c, 6, 48, 46
12, 18046, Note_off_c, 6, 48, 64
12, 18062, Note_off_c, 6, 55, 64
12, 18240, Note_on_c, 6, 50, 52
12, 18240, Note_on_c, 6, 55, 64
12, 18466, Note_off_c, 6, 55, 64
12, 18478, Note_off_c, 6, 50, 64
12, 18480, Note_on_c, 6, 55, 63
12, 18480, Note_on_c, 6, 50, 46
12, 18526, Note_off_c, 6, 50, 64
12, 18542, Note_off_c, 6, 55, 64
12, 18720, Note_on_c, 6, 58, 48
12, 18720, Note_on_c, 6, 52, 41
12, 18916, Note_off_c, 6, 58, 64
12, 18922, Note_off_c, 6, 52, 64
12, 18960, Note_on_c, 6, 58, 79
12, 18960, Note_on_c, 6, 52, 57
12, 19002, Note_off_c, 6, 52, 64
12, 19002, Note_off_c, 6, 58, 64
12, 19200, Note_on_c, 6, 57, 48
12, 19200, Note_on_c, 6, 52, 41
12, 19396, Note_off_c, 6, 57, 64
12, 19402, Note_off_c, 6, 52, 64
12, 19440, Note_on_c, 6, 57, 79
12, 19440, Note_on_c, 6, 52, 57
12, 19482, Note_off_c, 6, 52, 64
12, 19482, Note_off_c, 6, 57, 64
12, 19680, Note_on_c, 6, 58, 54
12, 19680, Note_on_c, 6, 53, 39
12, 19798, Note_off_c, 6, 58, 64
12, 19814, Note_off_c, 6, 53, 64
12, 19920, Note_on_c, 6, 58, 78
12, 19920, Note_on_c, 6, 53, 51
12, 19984, Note_off_c, 6, 58, 64
12, 19996, Note_off_c, 6, 53, 64
12, 20160, Note_on_c, 6, 55, 48
12, 20160, Note_on_c, 6, 48, 41
12, 20356, Note_off_c, 6, 55, 64
12, 20362, Note_off_c, 6, 48, 64
12, 20400, Note_on_c, 6, 55, 79
12, 20400, Note_on_c, 6, 48, 57
12, 20442, Note_off_c, 6, 48, 64
12, 20442, Note_off_c, 6, 55, 64
12, 20640, Note_on_c, 6, 60, 51
12, 20640, Note_on_c, 6, 54, 30
12, 20880, Note_off_c, 6, 54, 64
12, 20880, Note_off_c, 6, 60, 64
12, 20880, Note_on_c, 6, 59, 65
12, 20880, Note_on_c, 6, 53, 46
12, 20930, Note_off_c, 6, 53, 64
12, 20930, Note_off_c, 6, 59, 64
12, 21120, Note_on_c, 6, 51, 52
12, 21120, Note_on_c, 6, 58, 64
12, 21346, Note_off_c, 6, 58, 64
12, 21358, Note_off_c, 6, 51, 64
12, 21360, Note_on_c, 6, 58, 63
12, 21360, Note_on_c, 6, 51, 46
12, 21406, Note_off_c, 6, 51, 64
12, 21422, Note_off_c, 6, 58, 64
12, 21600, Note_on_c, 6, 60, 54
12, 21600, Note_on_c, 6, 53, 39
12, 21718, Note_off_c, 6, 60, 64
12, 21734, Note_off_c, 6, 53, 64
12, 21840, Note_on_c, 6, 60, 78
12, 21840, Note_on_c, 6, 53, 51
12, 21904, Note_off_c, 6, 60, 64
12, 21916, Note_off_c, 6, 53, 64
12, 22080, Note_on_c, 6, 54, 54
12, 22080, Note_on_c, 6, 48, 39
12, 22198, Note_off_c, 6, 54, 64
12, 22214, Note_off_c, 6, 48, 64
12, 22320, Note_on_c, 6, 54, 78
12, 22320, Note_on_c, 6, 48, 51
12, 22384, Note_off_c, 6, 54, 64
12, 22396, Note_off_c, 6, 48, 64
12, 22560, Note_on_c, 6, 51, 52
12, 22560, Note_on_c, 6, 57, 64
12, 22786, Note_off_c, 6, 57, 64
12, 22798, Note_off_c, 6, 51, 64
12, 22800, Note_on_c, 6, 57, 63
12, 22800, Note_on_c, 6, 51, 46
12, 22846, Note_off_c, 6, 51, 64
12, 22862, Note_off_c, 6, 57, 64
12, 23040, Note_on_c, 6, 49, 52
12, 23040, Note_on_c, 6, 55, 64
12, 23266, Note_off_c, 6, 55, 64
12, 23278, Note_off_c, 6, 49, 64
12, 23280, Note_on_c, 6, 55, 63
12, 23280, Note_on_c, 6, 49, 46
12, 23326, Note_off_c, 6, 49, 64
12, 23342, Note_off_c, 6, 55, 64
12, 23520, Note_on_c, 6, 59, 48
12, 23520, Note_on_c, 6, 54, 41
12, 23716, Note_off_c, 6, 59, 64
12, 23722, Note_off_c, 6, 54, 64
12, 23760, Note_on_c, 6, 59, 79
12, 23760, Note_on_c, 6, 54, 57
12, 23802, Note_off_c, 6, 54, 64
12, 23802, Note_off_c, 6, 59, 64
12, 24000, Note_on_c, 6, 52, 48
12, 24000, Note_on_c, 6, 58, 60
12, 24206, Note_off_c, 6, 58, 64
12, 24218, Note_off_c, 6, 52, 64
12, 24240, Note_on_c, 6, 58, 59
12, 24240, Note_on_c, 6, 52, 42
12, 24266, Note_off_c, 6, 52, 64
12, 24282, Note_off_c, 6, 58, 64
12, 24480, Note_on_c, 6, 52, 26
12, 24480, Note_on_c, 6, 58, 39
12, 24694, Note_off_c, 6, 58, 64
12, 24694, Note_off_c, 6, 52, 64
12, 24720, Note_on_c, 6, 58, 62
12, 24720, Note_on_c, 6, 52, 28
12, 24760, Note_off_c, 6, 52, 64
12, 24760, Note_off_c, 6, 58, 64
12, 24960, Note_on_c, 6, 56, 48
12, 24960, Note_on_c, 6, 51, 41
12, 25156, Note_off_c, 6, 56, 64
12, 25162, Note_off_c, 6, 51, 64
12, 25200, Note_on_c, 6, 56, 79
12, 25200, Note_on_c, 6, 51, 57
12, 25242, Note_off_c, 6, 51, 64
12, 25242, Note_off_c, 6, 56, 64
12, 25440, Note_on_c, 6, 58, 48
12, 25440, Note_on_c, 6, 52, 41
12, 25636, Note_off_c, 6, 58, 64
12, 25642, Note_off_c, 6, 52, 64
12, 25680, Note_on_c, 6, 58, 79
12, 25680, Note_on_c, 6, 52, 57
12, 25722, Note_off_c, 6, 52, 64
12, 25722, Note_off_c, 6, 58, 64
12, 25920, Note_on_c, 6, 51, 52
12, 25920, Note_on_c, 6, 56, 64
12, 26146, Note_off_c, 6, 56, 64
12, 26158, Note_off_c, 6, 51, 64
12, 26160, Note_on_c, 6, 56, 63
12, 26160, Note_on_c, 6, 51, 46
12, 26206, Note_off_c, 6, 51, 64
12, 26222, Note_off_c, 6, 56, 64
12, 26400, Note_on_c, 6, 54, 52
12, 26400, Note_on_c, 6, 60, 64
12, 26626, Note_off_c, 6, 60, 64
12, 26638, Note_off_c, 6, 54, 64
12, 26640, Note_on_c, 6, 60, 63
12, 26640, Note_on_c, 6, 54, 46
12, 26686, Note_off_c, 6, 54, 64
12, 26702, Note_off_c, 6, 60, 64
12, 26880, Note_on_c, 6, 53, 52
12, 26880, Note_on_c, 6, 60, 64
12, 27106, Note_off_c, 6, 60, 64
12, 27118, Note_off_c, 6, 53, 64
12, 27120, Note_on_c, 6, 60, 63
12, 27120, Note_on_c, 6, 53, 46
12, 27166, Note_off_c, 6, 53, 64
12, 27182, Note_off_c, 6, 60, 64
12, 27360, Note_on_c, 6, 54, 52
12, 27360, Note_on_c, 6, 60, 64
12, 27586, Note_off_c, 6, 60, 64
12, 27598, Note_off_c, 6, 54, 64
12, 27600, Note_on_c, 6, 60, 63
12, 27600, Note_on_c, 6, 54, 46
12, 27646, Note_off_c, 6, 54, 64
12, 27662, Note_off_c, 6, 60, 64
12, 27840, Note_on_c, 6, 53, 52
12, 27840, Note_on_c, 6, 60, 64
12, 28066, Note_off_c, 6, 60, 64
12, 28078, Note_off_c, 6, 53, 64
12, 28080, Note_on_c, 6, 60, 63
12, 28080, Note_on_c, 6, 53, 46
12, 28126, Note_off_c, 6, 53, 64
12, 28142, Note_off_c, 6, 60, 64
12, 28320, Note_on_c, 6, 60, 48
12, 28320, Note_on_c, 6, 54, 41
12, 28516, Note_off_c, 6, 60, 64
12, 28522, Note_off_c, 6, 54, 64
12, 28560, Note_on_c, 6, 60, 79
12, 28560, Note_on_c, 6, 54, 57
12, 28602, Note_off_c, 6, 54, 64
12, 28602, Note_off_c, 6, 60, 64
12, 28800, Note_on_c, 6, 58, 54
12, 28800, Note_on_c, 6, 53, 39
12, 28918, Note_off_c, 6, 58, 64
12, 28934, Note_off_c, 6, 53, 64
12, 29040, Note_on_c, 6, 58, 78
12, 29040, Note_on_c, 6, 53, 51
12, 29104, Note_off_c, 6, 58, 64
12, 29116, Note_off_c, 6, 53, 64
12, 29280, Note_on_c, 6, 55, 54
12, 29280, Note_on_c, 6, 48, 39
12, 29398, Note_off_c, 6, 55, 64
12, 29414, Note_off_c, 6, 48, 64
12, 29520, Note_on_c, 6, 55, 78
12, 29520, Note_on_c, 6, 48, 51
12, 29584, Note_off_c, 6, 55, 64
12, 29596, Note_off_c, 6, 48, 64
12, 29760, Note_on_c, 6, 49, 52
12, 29760, Note_on_c, 6, 55, 64
12, 29986, Note_off_c, 6, 55, 64
12, 29998, Note_off_c, 6, 49, 64
12, 30000, Note_on_c, 6, 55, 63
12, 30000, Note_on_c, 6, 49, 46
12, 30046, Note_off_c, 6, 49, 64
12, 30062, Note_off_c, 6, 55, 64
12, 30240, Note_on_c, 6, 52, 52
12, 30240, Note_on_c, 6, 58, 64
12, 30466, Note_off_c, 6, 58, 64
12, 30478, Note_off_c, 6, 52, 64
12, 30480, Note_on_c, 6, 58, 63
12, 30480, Note_on_c, 6, 52, 46
12, 30526, Note_off_c, 6, 52, 64
12, 30542, Note_off_c, 6, 58, 64
12, 30720, Note_on_c, 6, 50, 48
12, 30720, Note_on_c, 6, 56, 60
12, 30926, Note_off_c, 6, 56, 64
12, 30938, Note_off_c, 6, 50, 64
12, 30960, Note_on_c, 6, 56, 59
12, 30960, Note_on_c, 6, 50, 42
12, 30986, Note_off_c, 6, 50, 64
12, 31002, Note_off_c, 6, 56, 64
12, 31200, Note_on_c, 6, 50, 26
12, 31200, Note_on_c, 6, 56, 39
12, 31414, Note_off_c, 6, 56, 64
12, 31414, Note_off_c, 6, 50, 64
12, 31440, Note_on_c, 6, 56, 62
12, 31440, Note_on_c, 6, 50, 28
12, 31480, Note_off_c, 6, 50, 64
12, 31480, Note_off_c, 6, 56, 64
12, 31680, Note_on_c, 6, 56, 54
12, 31680, Note_on_c, 6, 50, 39
12, 31798, Note_off_c, 6, 56, 64
12, 31814, Note_off_c, 6, 50, 64
12, 31920, Note_on_c, 6, 56, 78
12, 31920, Note_on_c, 6, 50, 51
12, 31984, Note_off_c, 6, 56, 64
12, 31996, Note_off_c, 6, 50, 64
12, 32160, Note_on_c, 6, 54, 52
12, 32160, Note_on_c, 6, 60, 64
12, 32386, Note_off_c, 6, 60, 64
12, 32398, Note_off_c, 6, 54, 64
12, 32400, Note_on_c, 6, 60, 63
12, 32400, Note_on_c, 6, 54, 46
12, 32446, Note_off_c, 6, 54, 64
12, 32462, Note_off_c, 6, 60, 64
12, 32640, Note_on_c, 6, 48, 52
12, 32640, Note_on_c, 6, 55, 64
12, 32866, Note_off_c, 6, 55, 64
12, 32878, Note_off_c, 6, 48, 64
12, 32880, Note_on_c, 6, 55, 63
12, 32880, Note_on_c, 6, 48, 46
12, 32926, Note_off_c, 6, 48, 64
12, 32942, Note_off_c, 6, 55, 64
12, 33120, Note_on_c, 6, 55, 48
12, 33120, Note_on_c, 6, 48, 41
12, 33316, Note_off_c, 6, 55, 64
12, 33322, Note_off_c, 6, 48, 64
12, 33360, Note_on_c, 6, 55, 79
12, 33360, Note_on_c, 6, 48, 57
12, 33402, Note_off_c, 6, 48, 64
12, 33402, Note_off_c, 6, 55, 64
12, 33600, Note_on_c, 6, 55, 48
12, 33600, Note_on_c, 6, 50, 41
12, 33796, Note_off_c, 6, 55, 64
12, 33802, Note_off_c, 6, 50, 64
12, 33840, Note_on_c, 6, 55, 79
12, 33840, Note_on_c, 6, 50, 57
12, 33882, Note_off_c, 6, 50, 64
12, 33882, Note_off_c, 6, 55, 64
12, 34080, Note_on_c, 6, 52, 52
12, 34080, Note_on_c, 6, 58, 64
12, 34306, Note_off_c, 6, 58, 64
12, 34318, Note_off_c, 6, 52, 64
12, 34320, Note_on_c, 6, 58, 63
12, 34320, Note_on_c, 6, 52, 46
12, 34366, Note_off_c, 6, 52, 64
12, 34382, Note_off_c, 6, 58, 64
12, 34560, Note_on_c, 6, 52, 52
12, 34560, Note_on_c, 6, 57, 64
12, 34786, Note_off_c, 6, 57, 64
12, 34798, Note_off_c, 6, 52, 64
12, 34800, Note_on_c, 6, 57, 63
12, 34800, Note_on_c, 6, 52, 46
12, 34846, Note_off_c, 6, 52, 64
12, 34862, Note_off_c, 6, 57, 64
12, 35040, Note_on_c, 6, 53, 52
12, 35040, Note_on_c, 6, 58, 64
12, 35266, Note_off_c, 6, 58, 64
12, 35278, Note_off_c, 6, 53, 64
12, 35280, Note_on_c, 6, 58, 63
12, 35280, Note_on_c, 6, 53, 46
12, 35326, Note_off_c, 6, 53, 64
12, 35342, Note_off_c, 6, 58, 64
12, 35520, Note_on_c, 6, 48, 52
12, 35520, Note_on_c, 6, 55, 64
12, 35746, Note_off_c, 6, 55, 64
12, 35758, Note_off_c, 6, 48, 64
12, 35760, Note_on_c, 6, 55, 63
12, 35760, Note_on_c, 6, 48, 46
12, 35806, Note_off_c, 6, 48, 64
12, 35822, Note_off_c, 6, 55, 64
12, 36000, Note_on_c, 6, 60, 54
12, 36000, Note_on_c, 6, 54, 39
12, 36118, Note_off_c, 6, 60, 64
12, 36134, Note_off_c, 6, 54, 64
12, 36240, Note_on_c, 6, 60, 78
12, 36240, Note_on_c, 6, 54, 51
12, 36304, Note_off_c, 6, 60, 64
12, 36316, Note_off_c, 6, 54, 64
12, 36480, Note_on_c, 6, 58, 54
12, 36480, Note_on_c, 6, 53, 39
12, 36598, Note_off_c, 6, 58, 64
12, 36614, Note_off_c, 6, 53, 64
12, 36720, Note_on_c, 6, 58, 78
12, 36720, Note_on_c, 6, 53, 51
12, 36784, Note_off_c, 6, 58, 64
12, 36796, Note_off_c, 6, 53, 64
12, 36960, Note_on_c, 6, 55, 48
12, 36960, Note_on_c, 6, 48, 41
12, 37156, Note_off_c, 6, 55, 64
12, 37162, Note_off_c, 6, 48, 64
12, 37200, Note_on_c, 6, 55, 79
12, 37200, Note_on_c, 6, 48, 57
12, 37242, Note_off_c, 6, 48, 64
12, 37242, Note_off_c, 6, 55, 64
12, 37440, Note_on_c, 6, 55, 54
12, 37440, Note_on_c, 6, 50, 39
12, 37558, Note_off_c, 6, 55, 64
12, 37574, Note_off_c, 6, 50, 64
12, 37680, Note_on_c, 6, 55, 78
12, 37680, Note_on_c, 6, 50, 51
12, 37744, Note_off_c, 6, 55, 64
12, 37756, Note_off_c, 6, 50, 64
12, 37920, Note_on_c, 6, 58, 48
12, 37920, Note_on_c, 6, 52, 41
12, 38116, Note_off_c, 6, 58, 64
12, 38122, Note_off_c, 6, 52, 64
12, 38160, Note_on_c, 6, 58, 79
12, 38160, Note_on_c, 6, 52, 57
12, 38202, Note_off_c, 6, 52, 64
12, 38202, Note_off_c, 6, 58, 64
12, 38640, Note_on_c, 6, 55, 73
12, 38640, Note_on_c, 6, 48, 47
12, 38698, Note_off_c, 6, 48, 64
12, 38698, Note_off_c, 6, 55, 64
12, 39120, Note_on_c, 6, 55, 70
12, 39120, Note_on_c, 6, 48, 52
12, 39182, Note_off_c, 6, 55, 64
12, 39190, Note_off_c, 6, 48, 64
12, 39360, Note_on_c, 6, 60, 54
12, 39360, Note_on_c, 6, 54, 39
12, 39478, Note_off_c, 6, 60, 64
12, 39494, Note_off_c, 6, 54, 64
12, 39600, Note_on_c, 6, 60, 78
12, 39600, Note_on_c, 6, 54, 51
12, 39664, Note_off_c, 6, 60, 64
12, 39676, Note_off_c, 6, 54, 64
12, 39840, Note_on_c, 6, 60, 33
12, 39930, Note_off_c, 6, 60, 64
12, 40080, Note_on_c, 6, 60, 80
12, 40080, Note_on_c, 6, 54, 65
12, 40148, Note_off_c, 6, 60, 64
12, 40158, Note_off_c, 6, 54, 64
12, 40320, Note_on_c, 6, 58, 54
12, 40320, Note_on_c, 6, 53, 39
12, 40438, Note_off_c, 6, 58, 64
12, 40454, Note_off_c, 6, 53, 64
12, 40560, Note_on_c, 6, 58, 78
12, 40560, Note_on_c, 6, 53, 51
12, 40624, Note_off_c, 6, 58, 64
12, 40636, Note_off_c, 6, 53, 64
12, 40800, Note_on_c, 6, 58, 33
12, 40890, Note_off_c, 6, 58, 64
12, 41040, Note_on_c, 6, 58, 80
12, 41040, Note_on_c, 6, 53, 65
12, 41108, Note_off_c, 6, 58, 64
12, 41118, Note_off_c, 6, 53, 64
12, 41280, Note_on_c, 6, 56, 54
12, 41280, Note_on_c, 6, 49, 39
12, 41398, Note_off_c, 6, 56, 64
12, 41414, Note_off_c, 6, 49, 64
12, 41520, Note_on_c, 6, 56, 78
12, 41520, Note_on_c, 6, 49, 51
12, 41584, Note_off_c, 6, 56, 64
12, 41596, Note_off_c, 6, 49, 64
12, 41760, Note_on_c, 6, 55, 54
12, 41760, Note_on_c, 6, 49, 39
12, 41878, Note_off_c, 6, 55, 64
12, 41894, Note_off_c, 6, 49, 64
12, 42000, Note_on_c, 6, 55, 78
12, 42000, Note_on_c, 6, 49, 51
12, 42064, Note_off_c, 6, 55, 64
12, 42076, Note_off_c, 6, 49, 64
12, 42240, Note_on_c, 6, 60, 48
12, 42240, Note_on_c, 6, 55, 41
12, 42476, Note_off_c, 6, 60, 64
12, 42480, Note_off_c, 6, 55, 64
12, 42480, Note_on_c, 6, 60, 79
12, 42480, Note_on_c, 6, 55, 57
12, 42562, Note_off_c, 6, 55, 64
12, 42562, Note_off_c, 6, 60, 64
12, 42720, Note_on_c, 6, 60, 30
12, 42720, Note_on_c, 6, 55, 25
12, 42944, Note_off_c, 6, 55, 64
12, 42944, Note_off_c, 6, 60, 64
12, 42960, Note_on_c, 6, 60, 86
12, 42960, Note_on_c, 6, 55, 52
12, 43054, Note_off_c, 6, 55, 64
12, 43054, Note_off_c, 6, 60, 64
12, 43200, Note_on_c, 6, 60, 48
12, 43200, Note_on_c, 6, 55, 41
12, 43396, Note_off_c, 6, 60, 64
12, 43402, Note_off_c, 6, 55, 64
12, 43440, Note_on_c, 6, 60, 79
12, 43440, Note_on_c, 6, 55, 57
12, 43482, Note_off_c, 6, 55, 64
12, 43482, Note_off_c, 6, 60, 64
12, 43680, Note_on_c, 6, 60, 48
12, 43680, Note_on_c, 6, 53, 41
12, 43876, Note_off_c, 6, 60, 64
12, 43882, Note_off_c, 6, 53, 64
12, 43920, Note_on_c, 6, 60, 79
12, 43920, Note_on_c, 6, 53, 57
12, 43962, Note_off_c, 6, 53, 64
12, 43962, Note_off_c, 6, 60, 64
12, 44160, Note_on_c, 6, 51, 52
12, 44160, Note_on_c, 6, 58, 64
12, 44386, Note_off_c, 6, 58, 64
12, 44398, Note_off_c, 6, 51, 64
12, 44400, Note_on_c, 6, 58, 63
12, 44400, Note_on_c, 6, 51, 46
12, 44446, Note_off_c, 6, 51, 64
12, 44462, Note_off_c, 6, 58, 64
12, 44640, Note_on_c, 6, 55, 48
12, 44640, Note_on_c, 6, 48, 41
12, 44836, Note_off_c, 6, 55, 64
12, 44842, Note_off_c, 6, 48, 64
12, 44880, Note_on_c, 6, 55, 79
12, 44880, Note_on_c, 6, 48, 57
12, 44922, Note_off_c, 6, 48, 64
12, 44922, Note_off_c, 6, 55, 64
12, 45120, Note_on_c, 6, 60, 48
12, 45120, Note_on_c, 6, 53, 41
12, 45316, Note_off_c, 6, 60, 64
12, 45322, Note_off_c, 6, 53, 64
12, 45360, Note_on_c, 6, 60, 79
12, 45360, Note_on_c, 6, 53, 57
12, 45402, Note_off_c, 6, 53, 64
12, 45402, Note_off_c, 6, 60, 64
12, 45600, Note_on_c, 6, 53, 52
12, 45600, Note_on_c, 6, 59, 64
12, 45826, Note_off_c, 6, 59, 64
12, 45838, Note_off_c, 6, 53, 64
12, 45840, Note_on_c, 6, 59, 63
12, 45840, Note_on_c, 6, 53, 46
12, 45886, Note_off_c, 6, 53, 64
12, 45902, Note_off_c, 6, 59, 64
12, 46080, Note_on_c, 6, 59, 48
12, 46080, Note_on_c, 6, 52, 41
12, 46316, Note_off_c, 6, 59, 64
12, 46320, Note_off_c, 6, 52, 64
12, 46320, Note_on_c, 6, 59, 79
12, 46320, Note_on_c, 6, 52, 57
12, 46402, Note_off_c, 6, 52, 64
12, 46402, Note_off_c, 6, 59, 64
12, 46560, Note_on_c, 6, 59, 30
12, 46560, Note_on_c, 6, 52, 25
12, 46784, Note_off_c, 6, 52, 64
12, 46784, Note_off_c, 6, 59, 64
12, 46800, Note_on_c, 6, 59, 86
12, 46800, Note_on_c, 6, 52, 52
12, 46894, Note_off_c, 6, 52, 64
12, 46894, Note_off_c, 6, 59, 64
12, 47040, Note_on_c, 6, 48, 52
12, 47040, Note_on_c, 6, 55, 64
12, 47266, Note_off_c, 6, 55, 64
12, 47278, Note_off_c, 6, 48, 64
12, 47280, Note_on_c, 6, 55, 63
12, 47280, Note_on_c, 6, 48, 46
12, 47326, Note_off_c, 6, 48, 64
12, 47342, Note_off_c, 6, 55, 64
12, 47520, Note_on_c, 6, 60, 48
12, 47520, Note_on_c, 6, 54, 41
12, 47716, Note_off_c, 6, 60, 64
12, 47722, Note_off_c, 6, 54, 64
12, 47760, Note_on_c, 6, 60, 79
12, 47760, Note_on_c, 6, 54, 57
12, 47802, Note_off_c, 6, 54, 64
12, 47802, Note_off_c, 6, 60, 64
12, 48000, Note_on_c, 6, 53, 52
12, 48000, Note_on_c, 6, 58, 64
12, 48226, Note_off_c, 6, 58, 64
12, 48238, Note_off_c, 6, 53, 64
12, 48240, Note_on_c, 6, 58, 63
12, 48240, Note_on_c, 6, 53, 46
12, 48286, Note_off_c, 6, 53, 64
12, 48302, Note_off_c, 6, 58, 64
12, 48480, Note_on_c, 6, 55, 48
12, 48480, Note_on_c, 6, 48, 41
12, 48676, Note_off_c, 6, 55, 64
12, 48682, Note_off_c, 6, 48, 64
12, 48720, Note_on_c, 6, 55, 79
12, 48720, Note_on_c, 6, 48, 57
12, 48762, Note_off_c, 6, 48, 64
12, 48762, Note_off_c, 6, 55, 64
12, 48960, Note_on_c, 6, 55, 54
12, 48960, Note_on_c, 6, 50, 39
12, 49078, Note_off_c, 6, 55, 64
12, 49094, Note_off_c, 6, 50, 64
12, 49200, Note_on_c, 6, 55, 78
12, 49200, Note_on_c, 6, 50, 51
12, 49264, Note_off_c, 6, 55, 64
12, 49276, Note_off_c, 6, 50, 64
12, 49440, Note_on_c, 6, 58, 54
12, 49440, Note_on_c, 6, 52, 39
12, 49558, Note_off_c, 6, 58, 64
12, 49574, Note_off_c, 6, 52, 64
12, 49680, Note_on_c, 6, 58, 78
12, 49680, Note_on_c, 6, 52, 51
12, 49744, Note_off_c, 6, 58, 64
12, 49756, Note_off_c, 6, 52, 64
12, 49920, Note_on_c, 6, 57, 48
12, 49920, Note_on_c, 6, 52, 41
12, 50116, Note_off_c, 6, 57, 64
12, 50122, Note_off_c, 6, 52, 64
12, 50160, Note_on_c, 6, 57, 79
12, 50160, Note_on_c, 6, 52, 57
12, 50202, Note_off_c, 6, 52, 64
12, 50202, Note_off_c, 6, 57, 64
12, 50400, Note_on_c, 6, 58, 54
12, 50400, Note_on_c, 6, 53, 39
12, 50518, Note_off_c, 6, 58, 64
12, 50534, Note_off_c, 6, 53, 64
12, 50640, Note_on_c, 6, 58, 78
12, 50640, Note_on_c, 6, 53, 51
12, 50704, Note_off_c, 6, 58, 64
12, 50716, Note_off_c, 6, 53, 64
12, 50880, Note_on_c, 6, 55, 54
12, 50880, Note_on_c, 6, 48, 39
12, 50998, Note_off_c, 6, 55, 64
12, 51014, Note_off_c, 6, 48, 64
12, 51120, Note_on_c, 6, 55, 78
12, 51120, Note_on_c, 6, 48, 51
12, 51184, Note_off_c, 6, 55, 64
12, 51196, Note_off_c, 6, 48, 64
12, 51360, Note_on_c, 6, 60, 51
12, 51360, Note_on_c, 6, 54, 30
12, 51600, Note_off_c, 6, 54, 64
12, 51600, Note_off_c, 6, 60, 64
12, 51600, Note_on_c, 6, 59, 65
12, 51600, Note_on_c, 6, 53, 46
12, 51650, Note_off_c, 6, 53, 64
12, 51650, Note_off_c, 6, 59, 64
12, 51840, Note_on_c, 6, 58, 54
12, 51840, Note_on_c, 6, 51, 39
12, 51958, Note_off_c, 6, 58, 64
12, 51974, Note_off_c, 6, 51, 64
12, 52080, Note_on_c, 6, 58, 78
12, 52080, Note_on_c, 6, 51, 51
12, 52144, Note_off_c, 6, 58, 64
12, 52156, Note_off_c, 6, 51, 64
12, 52320, Note_on_c, 6, 53, 52
12, 52320, Note_on_c, 6, 60, 64
12, 52546, Note_off_c, 6, 60, 64
12, 52558, Note_off_c, 6, 53, 64
12, 52560, Note_on_c, 6, 60, 63
12, 52560, Note_on_c, 6, 53, 46
12, 52606, Note_off_c, 6, 53, 64
12, 52622, Note_off_c, 6, 60, 64
12, 52800, Note_on_c, 6, 54, 54
12, 52800, Note_on_c, 6, 48, 39
12, 52918, Note_off_c, 6, 54, 64
12, 52934, Note_off_c, 6, 48, 64
12, 53040, Note_on_c, 6, 54, 78
12, 53040, Note_on_c, 6, 48, 51
12, 53104, Note_off_c, 6, 54, 64
12, 53116, Note_off_c, 6, 48, 64
12, 53280, Note_on_c, 6, 51, 52
12, 53280, Note_on_c, 6, 57, 64
12, 53506, Note_off_c, 6, 57, 64
12, 53518, Note_off_c, 6, 51, 64
12, 53520, Note_on_c, 6, 57, 63
12, 53520, Note_on_c, 6, 51, 46
12, 53566, Note_off_c, 6, 51, 64
12, 53582, Note_off_c, 6, 57, 64
12, 53760, Note_on_c, 6, 55, 54
12, 53760, Note_on_c, 6, 49, 39
12, 53878, Note_off_c, 6, 55, 64
12, 53894, Note_off_c, 6, 49, 64
12, 54000, Note_on_c, 6, 55, 78
12, 54000, Note_on_c, 6, 49, 51
12, 54064, Note_off_c, 6, 55, 64
12, 54076, Note_off_c, 6, 49, 64
12, 54240, Note_on_c, 6, 59, 54
12, 54240, Note_on_c, 6, 54, 39
12, 54358, Note_off_c, 6, 59, 64
12, 54374, Note_off_c, 6, 54, 64
12, 54480, Note_on_c, 6, 59, 78
12, 54480, Note_on_c, 6, 54, 51
12, 54544, Note_off_c, 6, 59, 64
12, 54556, Note_off_c, 6, 54, 64
12, 54720, Note_on_c, 6, 58, 48
12, 54720, Note_on_c, 6, 52, 41
12, 54956, Note_off_c, 6, 58, 64
12, 54960, Note_off_c, 6, 52, 64
12, 54960, Note_on_c, 6, 58, 79
12, 54960, Note_on_c, 6, 52, 57
12, 55042, Note_off_c, 6, 52, 64
12, 55042, Note_off_c, 6, 58, 64
12, 55200, Note_on_c, 6, 58, 30
12, 55200, Note_on_c, 6, 52, 25
12, 55424, Note_off_c, 6, 52, 64
12, 55424, Note_off_c, 6, 58, 64
12, 55440, Note_on_c, 6, 58, 86
12, 55440, Note_on_c, 6, 52, 52
12, 55534, Note_off_c, 6, 52, 64
12, 55534, Note_off_c, 6, 58, 64
12, 55680, Note_on_c, 6, 56, 48
12, 55680, Note_on_c, 6, 51, 41
12, 55876, Note_off_c, 6, 56, 64
12, 55882, Note_off_c, 6, 51, 64
12, 55920, Note_on_c, 6, 56, 79
12, 55920, Note_on_c, 6, 51, 57
12, 55962, Note_off_c, 6, 51, 64
12, 55962, Note_off_c, 6, 56, 64
12, 56160, Note_on_c, 6, 58, 48
12, 56160, Note_on_c, 6, 52, 41
12, 56356, Note_off_c, 6, 58, 64
12, 56362, Note_off_c, 6, 52, 64
12, 56400, Note_on_c, 6, 58, 79
12, 56400, Note_on_c, 6, 52, 57
12, 56442, Note_off_c, 6, 52, 64
12, 56442, Note_off_c, 6, 58, 64
12, 56640, Note_on_c, 6, 51, 52
12, 56640, Note_on_c, 6, 56, 64
12, 56866, Note_off_c, 6, 56, 64
12, 56878, Note_off_c, 6, 51, 64
12, 56880, Note_on_c, 6, 56, 63
12, 56880, Note_on_c, 6, 51, 46
12, 56926, Note_off_c, 6, 51, 64
12, 56942, Note_off_c, 6, 56, 64
12, 57120, Note_on_c, 6, 60, 48
12, 57120, Note_on_c, 6, 54, 41
12, 57316, Note_off_c, 6, 60, 64
12, 57322, Note_off_c, 6, 54, 64
12, 57360, Note_on_c, 6, 60, 79
12, 57360, Note_on_c, 6, 54, 57
12, 57402, Note_off_c, 6, 54, 64
12, 57402, Note_off_c, 6, 60, 64
12, 57600, Note_on_c, 6, 53, 52
12, 57600, Note_on_c, 6, 60, 64
12, 57826, Note_off_c, 6, 60, 64
12, 57838, Note_off_c, 6, 53, 64
12, 57840, Note_on_c, 6, 60, 63
12, 57840, Note_on_c, 6, 53, 46
12, 57886, Note_off_c, 6, 53, 64
12, 57902, Note_off_c, 6, 60, 64
12, 58080, Note_on_c, 6, 60, 48
12, 58080, Note_on_c, 6, 54, 41
12, 58276, Note_off_c, 6, 60, 64
12, 58282, Note_off_c, 6, 54, 64
12, 58320, Note_on_c, 6, 60, 79
12, 58320, Note_on_c, 6, 54, 57
12, 58362, Note_off_c, 6, 54, 64
12, 58362, Note_off_c, 6, 60, 64
12, 58560, Note_on_c, 6, 60, 54
12, 58560, Note_on_c, 6, 53, 39
12, 58678, Note_off_c, 6, 60, 64
12, 58694, Note_off_c, 6, 53, 64
12, 58800, Note_on_c, 6, 60, 78
12, 58800, Note_on_c, 6, 53, 51
12, 58864, Note_off_c, 6, 60, 64
12, 58876, Note_off_c, 6, 53, 64
12, 59040, Note_on_c, 6, 60, 54
12, 59040, Note_on_c, 6, 54, 39
12, 59158, Note_off_c, 6, 60, 64
12, 59174, Note_off_c, 6, 54, 64
12, 59280, Note_on_c, 6, 60, 78
12, 59280, Note_on_c, 6, 54, 51
12, 59344, Note_off_c, 6, 60, 64
12, 59356, Note_off_c, 6, 54, 64
12, 59520, Note_on_c, 6, 53, 52
12, 59520, Note_on_c, 6, 58, 64
12, 59746, Note_off_c, 6, 58, 64
12, 59758, Note_off_c, 6, 53, 64
12, 59760, Note_on_c, 6, 58, 63
12, 59760, Note_on_c, 6, 53, 46
12, 59806, Note_off_c, 6, 53, 64
12, 59822, Note_off_c, 6, 58, 64
12, 60000, Note_on_c, 6, 48, 52
12, 60000, Note_on_c, 6, 55, 64
12, 60226, Note_off_c, 6, 55, 64
12, 60238, Note_off_c, 6, 48, 64
12, 60240, Note_on_c, 6, 55, 63
12, 60240, Note_on_c, 6, 48, 46
12, 60286, Note_off_c, 6, 48, 64
12, 60302, Note_off_c, 6, 55, 64
12, 60480, Note_on_c, 6, 49, 52
12, 60480, Note_on_c, 6, 55, 64
12, 60706, Note_off_c, 6, 55, 64
12, 60718, Note_off_c, 6, 49, 64
12, 60720, Note_on_c, 6, 55, 63
12, 60720, Note_on_c, 6, 49, 46
12, 60766, Note_off_c, 6, 49, 64
12, 60782, Note_off_c, 6, 55, 64
12, 60960, Note_on_c, 6, 58, 54
12, 60960, Note_on_c, 6, 52, 39
12, 61078, Note_off_c, 6, 58, 64
12, 61094, Note_off_c, 6, 52, 64
12, 61200, Note_on_c, 6, 58, 78
12, 61200, Note_on_c, 6, 52, 51
12, 61264, Note_off_c, 6, 58, 64
12, 61276, Note_off_c, 6, 52, 64
12, 61440, Note_on_c, 6, 56, 54
12, 61440, Note_on_c, 6, 50, 39
12, 61558, Note_off_c, 6, 56, 64
12, 61574, Note_off_c, 6, 50, 64
12, 61680, Note_on_c, 6, 56, 78
12, 61680, Note_on_c, 6, 50, 51
12, 61744, Note_off_c, 6, 56, 64
12, 61756, Note_off_c, 6, 50, 64
12, 61920, Note_on_c, 6, 56, 33
12, 62010, Note_off_c, 6, 56, 64
12, 62160, Note_on_c, 6, 56, 80
12, 62160, Note_on_c, 6, 50, 65
12, 62228, Note_off_c, 6, 56, 64
12, 62238, Note_off_c, 6, 50, 64
12, 62400, Note_on_c, 6, 56, 54
12, 62400, Note_on_c, 6, 50, 39
12, 62518, Note_off_c, 6, 56, 64
12, 62534, Note_off_c, 6, 50, 64
12, 62640, Note_on_c, 6, 56, 78
12, 62640, Note_on_c, 6, 50, 51
12, 62704, Note_off_c, 6, 56, 64
12, 62716, Note_off_c, 6, 50, 64
12, 62880, Note_on_c, 6, 60, 48
12, 62880, Note_on_c, 6, 54, 41
12, 63076, Note_off_c, 6, 60, 64
12, 63082, Note_off_c, 6, 54, 64
12, 63120, Note_on_c, 6, 60, 79
12, 63120, Note_on_c, 6, 54, 57
12, 63162, Note_off_c, 6, 54, 64
12, 63162, Note_off_c, 6, 60, 64
12, 64560, Note_on_c, 6, 55, 73
12, 64560, Note_on_c, 6, 50, 47
12, 64622, Note_off_c, 6, 50, 64
12, 64622, Note_off_c, 6, 55, 64
12, 65040, Note_on_c, 6, 58, 73
12, 65040, Note_on_c, 6, 52, 47
12, 65102, Note_off_c, 6, 52, 64
12, 65102, Note_off_c, 6, 58, 64
12, 65520, Note_on_c, 6, 57, 73
12, 65520, Note_on_c, 6, 52, 47
12, 65582, Note_off_c, 6, 52, 64
12, 65582, Note_off_c, 6, 57, 64
12, 66000, Note_on_c, 6, 58, 73
12, 66000, Note_on_c, 6, 53, 47
12, 66062, Note_off_c, 6, 53, 64
12, 66062, Note_off_c, 6, 58, 64
12, 66480, Note_on_c, 6, 55, 68
12, 66536, Note_off_c, 6, 55, 64
12, 66960, Note_on_c, 6, 60, 73
12, 66960, Note_on_c, 6, 54, 47
12, 67022, Note_off_c, 6, 54, 64
12, 67022, Note_off_c, 6, 60, 64
12, 67440, Note_on_c, 6, 58, 73
12, 67440, Note_on_c, 6, 53, 47
12, 67502, Note_off_c, 6, 53, 64
12, 67502, Note_off_c, 6, 58, 64
12, 67920, Note_on_c, 6, 55, 73
12, 67920, Note_on_c, 6, 48, 47
12, 67982, Note_off_c, 6, 48, 64
12, 67982, Note_off_c, 6, 55, 64
12, 68400, Note_on_c, 6, 55, 73
12, 68400, Note_on_c, 6, 50, 47
12, 68462, Note_off_c, 6, 50, 64
12, 68462, Note_off_c, 6, 55, 64
12, 68880, Note_on_c, 6, 58, 73
12, 68880, Note_on_c, 6, 52, 47
12, 68942, Note_off_c, 6, 52, 64
12, 68942, Note_off_c, 6, 58, 64
12, 69360, Note_on_c, 6, 55, 73
12, 69360, Note_on_c, 6, 48, 47
12, 69422, Note_off_c, 6, 48, 64
12, 69422, Note_off_c, 6, 55, 64
12, 69840, Note_on_c, 6, 55, 70
12, 69840, Note_on_c, 6, 48, 52
12, 69906, Note_off_c, 6, 55, 64
12, 69914, Note_off_c, 6, 48, 64
12, 70320, Note_on_c, 6, 60, 68
12, 70376, Note_off_c, 6, 60, 64
12, 70560, Note_on_c, 6, 60, 61
12, 70560, Note_on_c, 6, 54, 12
12, 70608, Note_off_c, 6, 54, 64
12, 70614, Note_off_c, 6, 60, 64
12, 70800, Note_on_c, 6, 54, 73
12, 70800, Note_on_c, 6, 60, 88
12, 70858, Note_off_c, 6, 60, 64
12, 70858, Note_off_c, 6, 54, 64
12, 71280, Note_on_c, 6, 58, 73
12, 71280, Note_on_c, 6, 53, 47
12, 71342, Note_off_c, 6, 53, 64
12, 71342, Note_off_c, 6, 58, 64
12, 71760, Note_on_c, 6, 58, 70
12, 71760, Note_on_c, 6, 53, 52
12, 71826, Note_off_c, 6, 58, 64
12, 71834, Note_off_c, 6, 53, 64
12, 72240, Note_on_c, 6, 56, 73
12, 72240, Note_on_c, 6, 49, 47
12, 72302, Note_off_c, 6, 49, 64
12, 72302, Note_off_c, 6, 56, 64
12, 72720, Note_on_c, 6, 55, 73
12, 72720, Note_on_c, 6, 49, 47
12, 72782, Note_off_c, 6, 49, 64
12, 72782, Note_off_c, 6, 55, 64
12, 73200, Note_on_c, 6, 60, 73
12, 73200, Note_on_c, 6, 55, 47
12, 73262, Note_off_c, 6, 55, 64
12, 73262, Note_off_c, 6, 60, 64
12, 73680, Note_on_c, 6, 60, 70
12, 73680, Note_on_c, 6, 55, 52
12, 73746, Note_off_c, 6, 60, 64
12, 73754, Note_off_c, 6, 55, 64
12, 74160, Note_on_c, 6, 60, 73
12, 74160, Note_on_c, 6, 55, 47
12, 74222, Note_off_c, 6, 55, 64
12, 74222, Note_off_c, 6, 60, 64
12, 74640, Note_on_c, 6, 60, 73
12, 74640, Note_on_c, 6, 53, 47
12, 74702, Note_off_c, 6, 53, 64
12, 74702, Note_off_c, 6, 60, 64
12, 75120, Note_on_c, 6, 58, 73
12, 75120, Note_on_c, 6, 51, 47
12, 75182, Note_off_c, 6, 51, 64
12, 75182, Note_off_c, 6, 58, 64
12, 75600, Note_on_c, 6, 55, 73
12, 75600, Note_on_c, 6, 48, 47
12, 75662, Note_off_c, 6, 48, 64
12, 75662, Note_off_c, 6, 55, 64
12, 76080, Note_on_c, 6, 60, 73
12, 76080, Note_on_c, 6, 53, 47
12, 76142, Note_off_c, 6, 53, 64
12, 76142, Note_off_c, 6, 60, 64
12, 76560, Note_on_c, 6, 59, 73
12, 76560, Note_on_c, 6, 53, 47
12, 76622, Note_off_c, 6, 53, 64
12, 76622, Note_off_c, 6, 59, 64
12, 77040, Note_on_c, 6, 59, 73
12, 77040, Note_on_c, 6, 52, 47
12, 77102, Note_off_c, 6, 52, 64
12, 77102, Note_off_c, 6, 59, 64
12, 77520, Note_on_c, 6, 59, 70
12, 77520, Note_on_c, 6, 52, 52
12, 77586, Note_off_c, 6, 59, 64
12, 77594, Note_off_c, 6, 52, 64
12, 78000, Note_on_c, 6, 55, 68
12, 78056, Note_off_c, 6, 55, 64
12, 78480, Note_on_c, 6, 60, 68
12, 78536, Note_off_c, 6, 60, 64
12, 78720, Note_on_c, 6, 58, 48
12, 78720, Note_on_c, 6, 53, 41
12, 78916, Note_off_c, 6, 58, 64
12, 78922, Note_off_c, 6, 53, 64
12, 78960, Note_on_c, 6, 58, 79
12, 78960, Note_on_c, 6, 53, 57
12, 79002, Note_off_c, 6, 53, 64
12, 79002, Note_off_c, 6, 58, 64
12, 79200, Note_on_c, 6, 48, 52
12, 79200, Note_on_c, 6, 55, 64
12, 79426, Note_off_c, 6, 55, 64
12, 79438, Note_off_c, 6, 48, 64
12, 79440, Note_on_c, 6, 55, 63
12, 79440, Note_on_c, 6, 48, 46
12, 79486, Note_off_c, 6, 48, 64
12, 79502, Note_off_c, 6, 55, 64
12, 79680, Note_on_c, 6, 50, 52
12, 79680, Note_on_c, 6, 55, 64
12, 79906, Note_off_c, 6, 55, 64
12, 79918, Note_off_c, 6, 50, 64
12, 79920, Note_on_c, 6, 55, 63
12, 79920, Note_on_c, 6, 50, 46
12, 79966, Note_off_c, 6, 50, 64
12, 79982, Note_off_c, 6, 55, 64
12, 80160, Note_on_c, 6, 52, 52
12, 80160, Note_on_c, 6, 58, 64
12, 80386, Note_off_c, 6, 58, 64
12, 80398, Note_off_c, 6, 52, 64
12, 80400, Note_on_c, 6, 58, 63
12, 80400, Note_on_c, 6, 52, 46
12, 80446, Note_off_c, 6, 52, 64
12, 80462, Note_off_c, 6, 58, 64
12, 80640, Note_on_c, 6, 57, 54
12, 80640, Note_on_c, 6, 52, 39
12, 80758, Note_off_c, 6, 57, 64
12, 80774, Note_off_c, 6, 52, 64
12, 80880, Note_on_c, 6, 57, 78
12, 80880, Note_on_c, 6, 52, 51
12, 80944, Note_off_c, 6, 57, 64
12, 80956, Note_off_c, 6, 52, 64
12, 81120, Note_on_c, 6, 53, 52
12, 81120, Note_on_c, 6, 58, 64
12, 81346, Note_off_c, 6, 58, 64
12, 81358, Note_off_c, 6, 53, 64
12, 81360, Note_on_c, 6, 58, 63
12, 81360, Note_on_c, 6, 53, 46
12, 81406, Note_off_c, 6, 53, 64
12, 81422, Note_off_c, 6, 58, 64
12, 81600, Note_on_c, 6, 55, 48
12, 81600, Note_on_c, 6, 48, 41
12, 81796, Note_off_c, 6, 55, 64
12, 81802, Note_off_c, 6, 48, 64
12, 81840, Note_on_c, 6, 55, 79
12, 81840, Note_on_c, 6, 48, 57
12, 81882, Note_off_c, 6, 48, 64
12, 81882, Note_off_c, 6, 55, 64
12, 82080, Note_on_c, 6, 60, 51
12, 82080, Note_on_c, 6, 54, 30
12, 82320, Note_off_c, 6, 54, 64
12, 82320, Note_off_c, 6, 60, 64
12, 82320, Note_on_c, 6, 59, 65
12, 82320, Note_on_c, 6, 53, 46
12, 82370, Note_off_c, 6, 53, 64
12, 82370, Note_off_c, 6, 59, 64
12, 82560, Note_on_c, 6, 58, 48
12, 82560, Note_on_c, 6, 51, 41
12, 82756, Note_off_c, 6, 58, 64
12, 82762, Note_off_c, 6, 51, 64
12, 82800, Note_on_c, 6, 58, 79
12, 82800, Note_on_c, 6, 51, 57
12, 82842, Note_off_c, 6, 51, 64
12, 82842, Note_off_c, 6, 58, 64
12, 83040, Note_on_c, 6, 60, 48
12, 83040, Note_on_c, 6, 53, 41
12, 83236, Note_off_c, 6, 60, 64
12, 83242, Note_off_c, 6, 53, 64
12, 83280, Note_on_c, 6, 60, 79
12, 83280, Note_on_c, 6, 53, 57
12, 83322, Note_off_c, 6, 53, 64
12, 83322, Note_off_c, 6, 60, 64
12, 83520, Note_on_c, 6, 54, 54
12, 83520, Note_on_c, 6, 48, 39
12, 83638, Note_off_c, 6, 54, 64
12, 83654, Note_off_c, 6, 48, 64
12, 83760, Note_on_c, 6, 54, 78
12, 83760, Note_on_c, 6, 48, 51
12, 83824, Note_off_c, 6, 54, 64
12, 83836, Note_off_c, 6, 48, 64
12, 84000, Note_on_c, 6, 57, 54
12, 84000, Note_on_c, 6, 51, 39
12, 84118, Note_off_c, 6, 57, 64
12, 84134, Note_off_c, 6, 51, 64
12, 84240, Note_on_c, 6, 57, 78
12, 84240, Note_on_c, 6, 51, 51
12, 84304, Note_off_c, 6, 57, 64
12, 84316, Note_off_c, 6, 51, 64
12, 84480, Note_on_c, 6, 49, 52
12, 84480, Note_on_c, 6, 55, 64
12, 84706, Note_off_c, 6, 55, 64
12, 84718, Note_off_c, 6, 49, 64
12, 84720, Note_on_c, 6, 55, 63
12, 84720, Note_on_c, 6, 49, 46
12, 84766, Note_off_c, 6, 49, 64
12, 84782, Note_off_c, 6, 55, 64
12, 84960, Note_on_c, 6, 59, 54
12, 84960, Note_on_c, 6, 54, 39
12, 85078, Note_off_c, 6, 59, 64
12, 85094, Note_off_c, 6, 54, 64
12, 85200, Note_on_c, 6, 59, 78
12, 85200, Note_on_c, 6, 54, 51
12, 85264, Note_off_c, 6, 59, 64
12, 85276, Note_off_c, 6, 54, 64
12, 85440, Note_on_c, 6, 58, 54
12, 85440, Note_on_c, 6, 52, 39
12, 85558, Note_off_c, 6, 58, 64
12, 85574, Note_off_c, 6, 52, 64
12, 85680, Note_on_c, 6, 58, 78
12, 85680, Note_on_c, 6, 52, 51
12, 85744, Note_off_c, 6, 58, 64
12, 85756, Note_off_c, 6, 52, 64
12, 85920, Note_on_c, 6, 58, 33
12, 86010, Note_off_c, 6, 58, 64
12, 86160, Note_on_c, 6, 58, 80
12, 86160, Note_on_c, 6, 52, 65
12, 86228, Note_off_c, 6, 58, 64
12, 86238, Note_off_c, 6, 52, 64
12, 86400, Note_on_c, 6, 56, 54
12, 86400, Note_on_c, 6, 51, 39
12, 86518, Note_off_c, 6, 56, 64
12, 86534, Note_off_c, 6, 51, 64
12, 86640, Note_on_c, 6, 56, 78
12, 86640, Note_on_c, 6, 51, 51
12, 86704, Note_off_c, 6, 56, 64
12, 86716, Note_off_c, 6, 51, 64
12, 86880, Note_on_c, 6, 58, 54
12, 86880, Note_on_c, 6, 52, 39
12, 86998, Note_off_c, 6, 58, 64
12, 87014, Note_off_c, 6, 52, 64
12, 87120, Note_on_c, 6, 58, 78
12, 87120, Note_on_c, 6, 52, 51
12, 87184, Note_off_c, 6, 58, 64
12, 87196, Note_off_c, 6, 52, 64
12, 87360, Note_on_c, 6, 56, 54
12, 87360, Note_on_c, 6, 51, 39
12, 87478, Note_off_c, 6, 56, 64
12, 87494, Note_off_c, 6, 51, 64
12, 87600, Note_on_c, 6, 56, 78
12, 87600, Note_on_c, 6, 51, 51
12, 87664, Note_off_c, 6, 56, 64
12, 87676, Note_off_c, 6, 51, 64
12, 87840, Note_on_c, 6, 54, 52
12, 87840, Note_on_c, 6, 60, 64
12, 88066, Note_off_c, 6, 60, 64
12, 88078, Note_off_c, 6, 54, 64
12, 88080, Note_on_c, 6, 60, 63
12, 88080, Note_on_c, 6, 54, 46
12, 88126, Note_off_c, 6, 54, 64
12, 88142, Note_off_c, 6, 60, 64
12, 88320, Note_on_c, 6, 60, 48
12, 88320, Note_on_c, 6, 53, 41
12, 88516, Note_off_c, 6, 60, 64
12, 88522, Note_off_c, 6, 53, 64
12, 88560, Note_on_c, 6, 60, 79
12, 88560, Note_on_c, 6, 53, 57
12, 88602, Note_off_c, 6, 53, 64
12, 88602, Note_off_c, 6, 60, 64
12, 88800, Note_on_c, 6, 54, 52
12, 88800, Note_on_c, 6, 60, 64
12, 89026, Note_off_c, 6, 60, 64
12, 89038, Note_off_c, 6, 54, 64
12, 89040, Note_on_c, 6, 60, 63
12, 89040, Note_on_c, 6, 54, 46
12, 89086, Note_off_c, 6, 54, 64
12, 89102, Note_off_c, 6, 60, 64
12, 89280, Note_on_c, 6, 60, 54
12, 89280, Note_on_c, 6, 53, 39
12, 89398, Note_off_c, 6, 60, 64
12, 89414, Note_off_c, 6, 53, 64
12, 89520, Note_on_c, 6, 60, 78
12, 89520, Note_on_c, 6, 53, 51
12, 89584, Note_off_c, 6, 60, 64
12, 89596, Note_off_c, 6, 53, 64
12, 89760, Note_on_c, 6, 54, 52
12, 89760, Note_on_c, 6, 60, 64
12, 89986, Note_off_c, 6, 60, 64
12, 89998, Note_off_c, 6, 54, 64
12, 90000, Note_on_c, 6, 60, 63
12, 90000, Note_on_c, 6, 54, 46
12, 90046, Note_off_c, 6, 54, 64
12, 90062, Note_off_c, 6, 60, 64
12, 90240, Note_on_c, 6, 58, 48
12, 90240, Note_on_c, 6, 53, 41
12, 90436, Note_off_c, 6, 58, 64
12, 90442, Note_off_c, 6, 53, 64
12, 90480, Note_on_c, 6, 58, 79
12, 90480, Note_on_c, 6, 53, 57
12, 90522, Note_off_c, 6, 53, 64
12, 90522, Note_off_c, 6, 58, 64
12, 90720, Note_on_c, 6, 55, 48
12, 90720, Note_on_c, 6, 48, 41
12, 90916, Note_off_c, 6, 55, 64
12, 90922, Note_off_c, 6, 48, 64
12, 90960, Note_on_c, 6, 55, 79
12, 90960, Note_on_c, 6, 48, 57
12, 91002, Note_off_c, 6, 48, 64
12, 91002, Note_off_c, 6, 55, 64
12, 91200, Note_on_c, 6, 49, 52
12, 91200, Note_on_c, 6, 55, 64
12, 91426, Note_off_c, 6, 55, 64
12, 91438, Note_off_c, 6, 49, 64
12, 91440, Note_on_c, 6, 55, 63
12, 91440, Note_on_c, 6, 49, 46
12, 91486, Note_off_c, 6, 49, 64
12, 91502, Note_off_c, 6, 55, 64
12, 91680, Note_on_c, 6, 58, 48
12, 91680, Note_on_c, 6, 52, 41
12, 91876, Note_off_c, 6, 58, 64
12, 91882, Note_off_c, 6, 52, 64
12, 91920, Note_on_c, 6, 58, 79
12, 91920, Note_on_c, 6, 52, 57
12, 91962, Note_off_c, 6, 52, 64
12, 91962, Note_off_c, 6, 58, 64
12, 92160, Note_on_c, 6, 56, 48
12, 92160, Note_on_c, 6, 50, 41
12, 92396, Note_off_c, 6, 56, 64
12, 92400, Note_off_c, 6, 50, 64
12, 92400, Note_on_c, 6, 56, 79
12, 92400, Note_on_c, 6, 50, 57
12, 92482, Note_off_c, 6, 50, 64
12, 92482, Note_off_c, 6, 56, 64
12, 92640, Note_on_c, 6, 56, 30
12, 92640, Note_on_c, 6, 50, 25
12, 92864, Note_off_c, 6, 50, 64
12, 92864, Note_off_c, 6, 56, 64
12, 92880, Note_on_c, 6, 56, 86
12, 92880, Note_on_c, 6, 50, 52
12, 92974, Note_off_c, 6, 50, 64
12, 92974, Note_off_c, 6, 56, 64
12, 93120, Note_on_c, 6, 56, 48
12, 93120, Note_on_c, 6, 50, 41
12, 93316, Note_off_c, 6, 56, 64
12, 93322, Note_off_c, 6, 50, 64
12, 93360, Note_on_c, 6, 56, 79
12, 93360, Note_on_c, 6, 50, 57
12, 93402, Note_off_c, 6, 50, 64
12, 93402, Note_off_c, 6, 56, 64
12, 93600, Note_on_c, 6, 60, 54
12, 93600, Note_on_c, 6, 54, 39
12, 93718, Note_off_c, 6, 60, 64
12, 93734, Note_off_c, 6, 54, 64
12, 93840, Note_on_c, 6, 60, 78
12, 93840, Note_on_c, 6, 54, 51
12, 93904, Note_off_c, 6, 60, 64
12, 93916, Note_off_c, 6, 54, 64
12, 94318, Note_on_c, 6, 62, 75
12, 94328, Note_on_c, 6, 56, 55
12, 94358, Note_off_c, 6, 62, 64
12, 94368, Note_off_c, 6, 56, 64
12, 94798, Note_on_c, 6, 62, 63
12, 94808, Note_on_c, 6, 56, 29
12, 94834, Note_off_c, 6, 62, 64
12, 94838, Note_off_c, 6, 56, 64
12, 95046, Note_on_c, 6, 56, 50
12, 95046, Note_on_c, 6, 62, 71
12, 95098, Note_off_c, 6, 62, 64
12, 95108, Note_off_c, 6, 56, 64
12, 95460, Note_on_c, 6, 62, 51
12, 95464, Note_on_c, 6, 56, 16
12, 95944, Note_off_c, 6, 62, 64
12, 95954, Note_off_c, 6, 56, 64
12, 96000, Control_c, 6, 64, 0
12, 96000, End_track
13, 0, Start_track
13, 0, Title_t, "Strings / Slow strings"
13, 0, Program_c, 7, 49
13, 0, Control_c, 7, 7, 75
13, 0, Control_c, 7, 121, 0
13, 0, Control_c, 7, 10, 64
13, 0, Control_c, 7, 123, 0
13, 0, Control_c, 7, 91, 100
13, 0, Control_c, 7, 93, 95
13, 0, Control_c, 7, 64, 0
13, 17286, Note_on_c, 7, 70, 33
13, 17288, Note_on_c, 7, 65, 33
13, 17760, Note_off_c, 7, 65, 64
13, 17760, Note_off_c, 7, 70, 64
13, 17766, Note_on_c, 7, 67, 33
13, 17768, Note_on_c, 7, 60, 33
13, 18240, Note_off_c, 7, 60, 64
13, 18240, Note_off_c, 7, 67, 64
13, 18246, Note_on_c, 7, 67, 33
13, 18248, Note_on_c, 7, 62, 33
13, 18720, Note_off_c, 7, 62, 64
13, 18720, Note_off_c, 7, 67, 64
13, 18726, Note_on_c, 7, 70, 33
13, 18728, Note_on_c, 7, 64, 33
13, 19200, Note_off_c, 7, 64, 64
13, 19200, Note_off_c, 7, 70, 64
13, 19206, Note_on_c, 7, 69, 33
13, 19208, Note_on_c, 7, 64, 33
13, 19680, Note_off_c, 7, 64, 64
13, 19680, Note_off_c, 7, 69, 64
13, 19686, Note_on_c, 7, 70, 33
13, 19688, Note_on_c, 7, 65, 33
13, 20160, Note_off_c, 7, 65, 64
13, 20160, Note_off_c, 7, 70, 64
13, 20166, Note_on_c, 7, 67, 33
13, 20168, Note_on_c, 7, 60, 33
13, 20640, Note_off_c, 7, 60, 64
13, 20640, Note_off_c, 7, 67, 64
13, 20644, Note_on_c, 7, 69, 45
13, 20880, Note_off_c, 7, 69, 64
13, 20884, Note_on_c, 7, 68, 45
13, 21120, Note_off_c, 7, 68, 64
13, 21126, Note_on_c, 7, 70, 33
13, 21128, Note_on_c, 7, 63, 33
13, 21600, Note_off_c, 7, 63, 64
13, 21600, Note_off_c, 7, 70, 64
13, 21606, Note_on_c, 7, 72, 33
13, 21608, Note_on_c, 7, 65, 33
13, 22080, Note_off_c, 7, 65, 64
13, 22080, Note_off_c, 7, 72, 64
13, 22086, Note_on_c, 7, 66, 33
13, 22088, Note_on_c, 7, 60, 33
13, 22560, Note_off_c, 7, 60, 64
13, 22560, Note_off_c, 7, 66, 64
13, 22566, Note_on_c, 7, 69, 33
13, 22568, Note_on_c, 7, 63, 33
13, 23040, Note_off_c, 7, 63, 64
13, 23040, Note_off_c, 7, 69, 64
13, 23046, Note_on_c, 7, 67, 33
13, 23048, Note_on_c, 7, 61, 33
13, 23520, Note_off_c, 7, 61, 64
13, 23520, Note_off_c, 7, 67, 64
13, 23526, Note_on_c, 7, 71, 33
13, 23528, Note_on_c, 7, 66, 33
13, 24000, Note_off_c, 7, 66, 64
13, 24000, Note_off_c, 7, 71, 64
13, 24006, Note_on_c, 7, 70, 33
13, 24008, Note_on_c, 7, 64, 33
13, 24960, Note_off_c, 7, 64, 64
13, 24960, Note_off_c, 7, 70, 64
13, 24966, Note_on_c, 7, 68, 33
13, 24968, Note_on_c, 7, 63, 33
13, 25440, Note_off_c, 7, 63, 64
13, 25440, Note_off_c, 7, 68, 64
13, 25446, Note_on_c, 7, 70, 33
13, 25448, Note_on_c, 7, 64, 33
13, 25920, Note_off_c, 7, 64, 64
13, 25920, Note_off_c, 7, 70, 64
13, 25926, Note_on_c, 7, 68, 33
13, 25928, Note_on_c, 7, 63, 33
13, 26400, Note_off_c, 7, 63, 64
13, 26400, Note_off_c, 7, 68, 64
13, 26406, Note_on_c, 7, 72, 33
13, 26408, Note_on_c, 7, 66, 33
13, 26880, Note_off_c, 7, 66, 64
13, 26880, Note_off_c, 7, 72, 64
13, 26886, Note_on_c, 7, 72, 33
13, 26888, Note_on_c, 7, 65, 33
13, 27360, Note_off_c, 7, 65, 64
13, 27360, Note_off_c, 7, 72, 64
13, 27366, Note_on_c, 7, 72, 33
13, 27368, Note_on_c, 7, 66, 33
13, 27840, Note_off_c, 7, 66, 64
13, 27840, Note_off_c, 7, 72, 64
13, 27846, Note_on_c, 7, 72, 33
13, 27848, Note_on_c, 7, 65, 33
13, 28320, Note_off_c, 7, 65, 64
13, 28320, Note_off_c, 7, 72, 64
13, 28326, Note_on_c, 7, 72, 33
13, 28328, Note_on_c, 7, 66, 33
13, 28800, Note_off_c, 7, 66, 64
13, 28800, Note_off_c, 7, 72, 64
13, 28806, Note_on_c, 7, 70, 33
13, 28808, Note_on_c, 7, 65, 33
13, 29280, Note_off_c, 7, 65, 64
13, 29280, Note_off_c, 7, 70, 64
13, 29286, Note_on_c, 7, 67, 33
13, 29288, Note_on_c, 7, 60, 33
13, 29760, Note_off_c, 7, 60, 64
13, 29760, Note_off_c, 7, 67, 64
13, 29766, Note_on_c, 7, 67, 33
13, 29768, Note_on_c, 7, 61, 33
13, 30240, Note_off_c, 7, 61, 64
13, 30240, Note_off_c, 7, 67, 64
13, 30246, Note_on_c, 7, 70, 33
13, 30248, Note_on_c, 7, 64, 33
13, 30720, Note_off_c, 7, 64, 64
13, 30720, Note_off_c, 7, 70, 64
13, 30726, Note_on_c, 7, 68, 33
13, 30728, Note_on_c, 7, 62, 33
13, 31680, Note_off_c, 7, 62, 64
13, 31680, Note_off_c, 7, 68, 64
13, 31686, Note_on_c, 7, 68, 33
13, 31688, Note_on_c, 7, 62, 33
13, 32160, Note_off_c, 7, 62, 64
13, 32160, Note_off_c, 7, 68, 64
13, 32166, Note_on_c, 7, 72, 33
13, 32168, Note_on_c, 7, 66, 33
13, 32640, Note_off_c, 7, 66, 64
13, 32640, Note_off_c, 7, 72, 64
13, 32646, Note_on_c, 7, 67, 33
13, 32648, Note_on_c, 7, 60, 33
13, 33120, Note_off_c, 7, 60, 64
13, 33120, Note_off_c, 7, 67, 64
13, 33126, Note_on_c, 7, 67, 33
13, 33128, Note_on_c, 7, 60, 33
13, 33600, Note_off_c, 7, 60, 64
13, 33600, Note_off_c, 7, 67, 64
13, 33606, Note_on_c, 7, 67, 33
13, 33608, Note_on_c, 7, 62, 33
13, 34080, Note_off_c, 7, 62, 64
13, 34080, Note_off_c, 7, 67, 64
13, 34086, Note_on_c, 7, 70, 33
13, 34088, Note_on_c, 7, 64, 33
13, 34560, Note_off_c, 7, 64, 64
13, 34560, Note_off_c, 7, 70, 64
13, 34566, Note_on_c, 7, 69, 33
13, 34568, Note_on_c, 7, 64, 33
13, 35040, Note_off_c, 7, 64, 64
13, 35040, Note_off_c, 7, 69, 64
13, 35046, Note_on_c, 7, 70, 33
13, 35048, Note_on_c, 7, 65, 33
13, 35520, Note_off_c, 7, 65, 64
13, 35520, Note_off_c, 7, 70, 64
13, 35526, Note_on_c, 7, 67, 33
13, 35528, Note_on_c, 7, 60, 33
13, 36000, Note_off_c, 7, 60, 64
13, 36000, Note_off_c, 7, 67, 64
13, 36006, Note_on_c, 7, 72, 33
13, 36008, Note_on_c, 7, 66, 33
13, 36480, Note_off_c, 7, 66, 64
13, 36480, Note_off_c, 7, 72, 64
13, 36486, Note_on_c, 7, 70, 33
13, 36488, Note_on_c, 7, 65, 33
13, 36960, Note_off_c, 7, 65, 64
13, 36960, Note_off_c, 7, 70, 64
13, 36966, Note_on_c, 7, 67, 33
13, 36968, Note_on_c, 7, 60, 33
13, 37440, Note_off_c, 7, 60, 64
13, 37440, Note_off_c, 7, 67, 64
13, 37446, Note_on_c, 7, 67, 33
13, 37448, Note_on_c, 7, 62, 33
13, 37920, Note_off_c, 7, 62, 64
13, 37920, Note_off_c, 7, 67, 64
13, 37926, Note_on_c, 7, 70, 33
13, 37928, Note_on_c, 7, 64, 33
13, 38400, Note_off_c, 7, 64, 64
13, 38400, Note_off_c, 7, 70, 64
13, 38406, Note_on_c, 7, 67, 33
13, 38408, Note_on_c, 7, 60, 33
13, 39360, Note_off_c, 7, 60, 64
13, 39360, Note_off_c, 7, 67, 64
13, 39366, Note_on_c, 7, 72, 33
13, 39368, Note_on_c, 7, 66, 33
13, 40320, Note_off_c, 7, 66, 64
13, 40320, Note_off_c, 7, 72, 64
13, 40326, Note_on_c, 7, 70, 33
13, 40328, Note_on_c, 7, 65, 33
13, 41280, Note_off_c, 7, 65, 64
13, 41280, Note_off_c, 7, 70, 64
13, 41286, Note_on_c, 7, 68, 33
13, 41288, Note_on_c, 7, 61, 33
13, 41760, Note_off_c, 7, 61, 64
13, 41760, Note_off_c, 7, 68, 64
13, 41766, Note_on_c, 7, 67, 33
13, 41768, Note_on_c, 7, 61, 33
13, 42240, Note_off_c, 7, 61, 64
13, 42240, Note_off_c, 7, 67, 64
13, 42246, Note_on_c, 7, 72, 33
13, 42248, Note_on_c, 7, 67, 33
13, 43200, Note_off_c, 7, 67, 64
13, 43200, Note_off_c, 7, 72, 64
13, 43206, Note_on_c, 7, 72, 33
13, 43208, Note_on_c, 7, 67, 33
13, 43680, Note_off_c, 7, 67, 64
13, 43680, Note_off_c, 7, 72, 64
13, 43686, Note_on_c, 7, 72, 33
13, 43688, Note_on_c, 7, 65, 33
13, 44160, Note_off_c, 7, 65, 64
13, 44160, Note_off_c, 7, 72, 64
13, 44166, Note_on_c, 7, 70, 33
13, 44168, Note_on_c, 7, 63, 33
13, 44640, Note_off_c, 7, 63, 64
13, 44640, Note_off_c, 7, 70, 64
13, 44646, Note_on_c, 7, 67, 33
13, 44648, Note_on_c, 7, 60, 33
13, 45120, Note_off_c, 7, 60, 64
13, 45120, Note_off_c, 7, 67, 64
13, 45126, Note_on_c, 7, 72, 33
13, 45128, Note_on_c, 7, 65, 33
13, 45600, Note_off_c, 7, 65, 64
13, 45600, Note_off_c, 7, 72, 64
13, 45606, Note_on_c, 7, 71, 33
13, 45608, Note_on_c, 7, 65, 33
13, 46080, Note_off_c, 7, 65, 64
13, 46080, Note_off_c, 7, 71, 64
13, 46086, Note_on_c, 7, 71, 33
13, 46088, Note_on_c, 7, 64, 33
13, 47040, Note_off_c, 7, 64, 64
13, 47040, Note_off_c, 7, 71, 64
13, 47046, Note_on_c, 7, 67, 33
13, 47048, Note_on_c, 7, 60, 33
13, 47520, Note_off_c, 7, 60, 64
13, 47520, Note_off_c, 7, 67, 64
13, 47526, Note_on_c, 7, 72, 33
13, 47528, Note_on_c, 7, 66, 33
13, 48000, Note_off_c, 7, 66, 64
13, 48000, Note_off_c, 7, 72, 64
13, 48006, Note_on_c, 7, 70, 33
13, 48008, Note_on_c, 7, 65, 33
13, 48480, Note_off_c, 7, 65, 64
13, 48480, Note_off_c, 7, 70, 64
13, 48486, Note_on_c, 7, 67, 33
13, 48488, Note_on_c, 7, 60, 33
13, 48960, Note_off_c, 7, 60, 64
13, 48960, Note_off_c, 7, 67, 64
13, 48966, Note_on_c, 7, 67, 33
13, 48968, Note_on_c, 7, 62, 33
13, 49440, Note_off_c, 7, 62, 64
13, 49440, Note_off_c, 7, 67, 64
13, 49446, Note_on_c, 7, 70, 33
13, 49448, Note_on_c, 7, 64, 33
13, 49920, Note_off_c, 7, 64, 64
13, 49920, Note_off_c, 7, 70, 64
13, 49926, Note_on_c, 7, 69, 33
13, 49928, Note_on_c, 7, 64, 33
13, 50400, Note_off_c, 7, 64, 64
13, 50400, Note_off_c, 7, 69, 64
13, 50406, Note_on_c, 7, 70, 33
13, 50408, Note_on_c, 7, 65, 33
13, 50880, Note_off_c, 7, 65, 64
13, 50880, Note_off_c, 7, 70, 64
13, 50886, Note_on_c, 7, 67, 33
13, 50888, Note_on_c, 7, 60, 33
13, 51360, Note_off_c, 7, 60, 64
13, 51360, Note_off_c, 7, 67, 64
13, 51364, Note_on_c, 7, 69, 45
13, 51600, Note_off_c, 7, 69, 64
13, 51604, Note_on_c, 7, 68, 45
13, 51840, Note_off_c, 7, 68, 64
13, 51846, Note_on_c, 7, 70, 33
13, 51848, Note_on_c, 7, 63, 33
13, 52320, Note_off_c, 7, 63, 64
13, 52320, Note_off_c, 7, 70, 64
13, 52326, Note_on_c, 7, 72, 33
13, 52328, Note_on_c, 7, 65, 33
13, 52800, Note_off_c, 7, 65, 64
13, 52800, Note_off_c, 7, 72, 64
13, 52806, Note_on_c, 7, 66, 33
13, 52808, Note_on_c, 7, 60, 33
13, 53280, Note_off_c, 7, 60, 64
13, 53280, Note_off_c, 7, 66, 64
13, 53286, Note_on_c, 7, 69, 33
13, 53288, Note_on_c, 7, 63, 33
13, 53760, Note_off_c, 7, 63, 64
13, 53760, Note_off_c, 7, 69, 64
13, 53766, Note_on_c, 7, 67, 33
13, 53768, Note_on_c, 7, 61, 33
13, 54240, Note_off_c, 7, 61, 64
13, 54240, Note_off_c, 7, 67, 64
13, 54246, Note_on_c, 7, 71, 33
13, 54248, Note_on_c, 7, 66, 33
13, 54720, Note_off_c, 7, 66, 64
13, 54720, Note_off_c, 7, 71, 64
13, 54726, Note_on_c, 7, 70, 33
13, 54728, Note_on_c, 7, 64, 33
13, 55680, Note_off_c, 7, 64, 64
13, 55680, Note_off_c, 7, 70, 64
13, 55686, Note_on_c, 7, 68, 33
13, 55688, Note_on_c, 7, 63, 33
13, 56160, Note_off_c, 7, 63, 64
13, 56160, Note_off_c, 7, 68, 64
13, 56166, Note_on_c, 7, 70, 33
13, 56168, Note_on_c, 7, 64, 33
13, 56640, Note_off_c, 7, 64, 64
13, 56640, Note_off_c, 7, 70, 64
13, 56646, Note_on_c, 7, 68, 33
13, 56648, Note_on_c, 7, 63, 33
13, 57120, Note_off_c, 7, 63, 64
13, 57120, Note_off_c, 7, 68, 64
13, 57126, Note_on_c, 7, 72, 33
13, 57128, Note_on_c, 7, 66, 33
13, 57600, Note_off_c, 7, 66, 64
13, 57600, Note_off_c, 7, 72, 64
13, 57606, Note_on_c, 7, 72, 33
13, 57608, Note_on_c, 7, 65, 33
13, 58080, Note_off_c, 7, 65, 64
13, 58080, Note_off_c, 7, 72, 64
13, 58086, Note_on_c, 7, 72, 33
13, 58088, Note_on_c, 7, 66, 33
13, 58560, Note_off_c, 7, 66, 64
13, 58560, Note_off_c, 7, 72, 64
13, 58566, Note_on_c, 7, 72, 33
13, 58568, Note_on_c, 7, 65, 33
13, 59040, Note_off_c, 7, 65, 64
13, 59040, Note_off_c, 7, 72, 64
13, 59046, Note_on_c, 7, 72, 33
13, 59048, Note_on_c, 7, 66, 33
13, 59520, Note_off_c, 7, 66, 64
13, 59520, Note_off_c, 7, 72, 64
13, 59526, Note_on_c, 7, 70, 33
13, 59528, Note_on_c, 7, 65, 33
13, 60000, Note_off_c, 7, 65, 64
13, 60000, Note_off_c, 7, 70, 64
13, 60006, Note_on_c, 7, 67, 33
13, 60008, Note_on_c, 7, 60, 33
13, 60480, Note_off_c, 7, 60, 64
13, 60480, Note_off_c, 7, 67, 64
13, 60486, Note_on_c, 7, 67, 33
13, 60488, Note_on_c, 7, 61, 33
13, 60960, Note_off_c, 7, 61, 64
13, 60960, Note_off_c, 7, 67, 64
13, 60966, Note_on_c, 7, 70, 33
13, 60968, Note_on_c, 7, 64, 33
13, 61440, Note_off_c, 7, 64, 64
13, 61440, Note_off_c, 7, 70, 64
13, 61446, Note_on_c, 7, 68, 33
13, 61448, Note_on_c, 7, 62, 33
13, 62400, Note_off_c, 7, 62, 64
13, 62400, Note_off_c, 7, 68, 64
13, 62406, Note_on_c, 7, 68, 33
13, 62408, Note_on_c, 7, 62, 33
13, 62880, Note_off_c, 7, 62, 64
13, 62880, Note_off_c, 7, 68, 64
13, 62886, Note_on_c, 7, 72, 33
13, 62888, Note_on_c, 7, 66, 33
13, 63360, Note_off_c, 7, 66, 64
13, 63360, Note_off_c, 7, 72, 64
13, 78726, Note_on_c, 7, 70, 33
13, 78728, Note_on_c, 7, 65, 33
13, 79200, Note_off_c, 7, 65, 64
13, 79200, Note_off_c, 7, 70, 64
13, 79206, Note_on_c, 7, 67, 33
13, 79208, Note_on_c, 7, 60, 33
13, 79680, Note_off_c, 7, 60, 64
13, 79680, Note_off_c, 7, 67, 64
13, 79686, Note_on_c, 7, 67, 33
13, 79688, Note_on_c, 7, 62, 33
13, 80160, Note_off_c, 7, 62, 64
13, 80160, Note_off_c, 7, 67, 64
13, 80166, Note_on_c, 7, 70, 33
13, 80168, Note_on_c, 7, 64, 33
13, 80640, Note_off_c, 7, 64, 64
13, 80640, Note_off_c, 7, 70, 64
13, 80646, Note_on_c, 7, 69, 33
13, 80648, Note_on_c, 7, 64, 33
13, 81120, Note_off_c, 7, 64, 64
13, 81120, Note_off_c, 7, 69, 64
13, 81126, Note_on_c, 7, 70, 33
13, 81128, Note_on_c, 7, 65, 33
13, 81600, Note_off_c, 7, 65, 64
13, 81600, Note_off_c, 7, 70, 64
13, 81606, Note_on_c, 7, 67, 33
13, 81608, Note_on_c, 7, 60, 33
13, 82080, Note_off_c, 7, 60, 64
13, 82080, Note_off_c, 7, 67, 64
13, 82084, Note_on_c, 7, 69, 45
13, 82320, Note_off_c, 7, 69, 64
13, 82324, Note_on_c, 7, 68, 45
13, 82560, Note_off_c, 7, 68, 64
13, 82566, Note_on_c, 7, 70, 33
13, 82568, Note_on_c, 7, 63, 33
13, 83040, Note_off_c, 7, 63, 64
13, 83040, Note_off_c, 7, 70, 64
13, 83046, Note_on_c, 7, 72, 33
13, 83048, Note_on_c, 7, 65, 33
13, 83520, Note_off_c, 7, 65, 64
13, 83520, Note_off_c, 7, 72, 64
13, 83526, Note_on_c, 7, 66, 33
13, 83528, Note_on_c, 7, 60, 33
13, 84000, Note_off_c, 7, 60, 64
13, 84000, Note_off_c, 7, 66, 64
13, 84006, Note_on_c, 7, 69, 33
13, 84008, Note_on_c, 7, 63, 33
13, 84480, Note_off_c, 7, 63, 64
13, 84480, Note_off_c, 7, 69, 64
13, 84486, Note_on_c, 7, 67, 33
13, 84488, Note_on_c, 7, 61, 33
13, 84960, Note_off_c, 7, 61, 64
13, 84960, Note_off_c, 7, 67, 64
13, 84966, Note_on_c, 7, 71, 33
13, 84968, Note_on_c, 7, 66, 33
13, 85440, Note_off_c, 7, 66, 64
13, 85440, Note_off_c, 7, 71, 64
13, 85446, Note_on_c, 7, 70, 33
13, 85448, Note_on_c, 7, 64, 33
13, 86400, Note_off_c, 7, 64, 64
13, 86400, Note_off_c, 7, 70, 64
13, 86406, Note_on_c, 7, 68, 33
13, 86408, Note_on_c, 7, 63, 33
13, 86880, Note_off_c, 7, 63, 64
13, 86880, Note_off_c, 7, 68, 64
13, 86886, Note_on_c, 7, 70, 33
13, 86888, Note_on_c, 7, 64, 33
13, 87360, Note_off_c, 7, 64, 64
13, 87360, Note_off_c, 7, 70, 64
13, 87366, Note_on_c, 7, 68, 33
13, 87368, Note_on_c, 7, 63, 33
13, 87840, Note_off_c, 7, 63, 64
13, 87840, Note_off_c, 7, 68, 64
13, 87846, Note_on_c, 7, 72, 33
13, 87848, Note_on_c, 7, 66, 33
13, 88320, Note_off_c, 7, 66, 64
13, 88320, Note_off_c, 7, 72, 64
13, 88326, Note_on_c, 7, 72, 33
13, 88328, Note_on_c, 7, 65, 33
13, 88800, Note_off_c, 7, 65, 64
13, 88800, Note_off_c, 7, 72, 64
13, 88806, Note_on_c, 7, 72, 33
13, 88808, Note_on_c, 7, 66, 33
13, 89280, Note_off_c, 7, 66, 64
13, 89280, Note_off_c, 7, 72, 64
13, 89286, Note_on_c, 7, 72, 33
13, 89288, Note_on_c, 7, 65, 33
13, 89760, Note_off_c, 7, 65, 64
13, 89760, Note_off_c, 7, 72, 64
13, 89766, Note_on_c, 7, 72, 33
13, 89768, Note_on_c, 7, 66, 33
13, 90240, Note_off_c, 7, 66, 64
13, 90240, Note_off_c, 7, 72, 64
13, 90246, Note_on_c, 7, 70, 33
13, 90248, Note_on_c, 7, 65, 33
13, 90720, Note_off_c, 7, 65, 64
13, 90720, Note_off_c, 7, 70, 64
13, 90726, Note_on_c, 7, 67, 33
13, 90728, Note_on_c, 7, 60, 33
13, 91200, Note_off_c, 7, 60, 64
13, 91200, Note_off_c, 7, 67, 64
13, 91206, Note_on_c, 7, 67, 33
13, 91208, Note_on_c, 7, 61, 33
13, 91680, Note_off_c, 7, 61, 64
13, 91680, Note_off_c, 7, 67, 64
13, 91686, Note_on_c, 7, 70, 33
13, 91688, Note_on_c, 7, 64, 33
13, 92160, Note_off_c, 7, 64, 64
13, 92160, Note_off_c, 7, 70, 64
13, 92166, Note_on_c, 7, 68, 33
13, 92168, Note_on_c, 7, 62, 33
13, 93120, Note_off_c, 7, 62, 64
13, 93120, Note_off_c, 7, 68, 64
13, 93126, Note_on_c, 7, 68, 33
13, 93128, Note_on_c, 7, 62, 33
13, 93600, Note_off_c, 7, 62, 64
13, 93600, Note_off_c, 7, 68, 64
13, 93606, Note_on_c, 7, 72, 33
13, 93608, Note_on_c, 7, 66, 33
13, 94080, Note_off_c, 7, 66, 64
13, 94080, Note_off_c, 7, 72, 64
13, 94086, Note_on_c, 7, 68, 40
13, 94088, Note_on_c, 7, 62, 40
13, 95998, Note_off_c, 7, 68, 64
13, 96000, Note_off_c, 7, 62, 64
13, 96000, Control_c, 7, 64, 0
13, 96000, End_track
14, 0, Start_track
14, 0, Title_t, "Drums / Traps"
14, 0, Program_c, 9, 25
14, 0, Control_c, 9, 7, 65
14, 0, Control_c, 9, 121, 0
14, 0, Control_c, 9, 10, 64
14, 0, Control_c, 9, 123, 0
14, 0, Control_c, 9, 91, 40
14, 0, Control_c, 9, 93, 0
14, 1920, Note_on_c, 9, 35, 60
14, 1920, Note_on_c, 9, 38, 50
14, 1920, Note_on_c, 9, 42, 70
14, 1920, Note_on_c, 9, 49, 40
14, 1970, Note_off_c, 9, 49, 64
14, 1970, Note_off_c, 9, 42, 64
14, 1970, Note_off_c, 9, 38, 64
14, 1970, Note_off_c, 9, 35, 64
14, 2160, Note_on_c, 9, 42, 80
14, 2160, Note_on_c, 9, 37, 80
14, 2210, Note_off_c, 9, 37, 64
14, 2210, Note_off_c, 9, 42, 64
14, 2332, Note_on_c, 9, 42, 50
14, 2382, Note_off_c, 9, 42, 64
14, 2400, Note_on_c, 9, 35, 60
14, 2400, Note_on_c, 9, 42, 80
14, 2450, Note_off_c, 9, 42, 64
14, 2450, Note_off_c, 9, 35, 64
14, 2640, Note_on_c, 9, 42, 90
14, 2640, Note_on_c, 9, 37, 80
14, 2690, Note_off_c, 9, 37, 64
14, 2690, Note_off_c, 9, 42, 64
14, 2812, Note_on_c, 9, 42, 50
14, 2862, Note_off_c, 9, 42, 64
14, 2880, Note_on_c, 9, 35, 60
14, 2880, Note_on_c, 9, 42, 70
14, 2930, Note_off_c, 9, 42, 64
14, 2930, Note_off_c, 9, 35, 64
14, 3120, Note_on_c, 9, 42, 80
14, 3120, Note_on_c, 9, 37, 70
14, 3170, Note_off_c, 9, 37, 64
14, 3170, Note_off_c, 9, 42, 64
14, 3296, Note_on_c, 9, 42, 40
14, 3346, Note_off_c, 9, 42, 64
14, 3360, Note_on_c, 9, 35, 60
14, 3360, Note_on_c, 9, 42, 80
14, 3410, Note_off_c, 9, 42, 64
14, 3410, Note_off_c, 9, 35, 64
14, 3600, Note_on_c, 9, 42, 80
14, 3600, Note_on_c, 9, 37, 80
14, 3650, Note_off_c, 9, 37, 64
14, 3650, Note_off_c, 9, 42, 64
14, 3776, Note_on_c, 9, 42, 50
14, 3826, Note_off_c, 9, 42, 64
14, 3840, Note_on_c, 9, 35, 60
14, 3840, Note_on_c, 9, 42, 70
14, 3890, Note_off_c, 9, 42, 64
14, 3890, Note_off_c, 9, 35, 64
14, 4080, Note_on_c, 9, 42, 80
14, 4080, Note_on_c, 9, 37, 70
14, 4130, Note_off_c, 9, 37, 64
14, 4130, Note_off_c, 9, 42, 64
14, 4256, Note_on_c, 9, 42, 40
14, 4306, Note_off_c, 9, 42, 64
14, 4320, Note_on_c, 9, 35, 60
14, 4320, Note_on_c, 9, 42, 80
14, 4370, Note_off_c, 9, 42, 64
14, 4370, Note_off_c, 9, 35, 64
14, 4560, Note_on_c, 9, 42, 80
14, 4560, Note_on_c, 9, 37, 80
14, 4610, Note_off_c, 9, 37, 64
14, 4610, Note_off_c, 9, 42, 64
14, 4736, Note_on_c, 9, 42, 50
14, 4786, Note_off_c, 9, 42, 64
14, 4800, Note_on_c, 9, 35, 60
14, 4800, Note_on_c, 9, 42, 80
14, 4850, Note_off_c, 9, 42, 64
14, 4850, Note_off_c, 9, 35, 64
14, 5040, Note_on_c, 9, 42, 90
14, 5040, Note_on_c, 9, 37, 70
14, 5090, Note_off_c, 9, 37, 64
14, 5090, Note_off_c, 9, 42, 64
14, 5214, Note_on_c, 9, 42, 40
14, 5264, Note_off_c, 9, 42, 64
14, 5280, Note_on_c, 9, 35, 60
14, 5280, Note_on_c, 9, 42, 80
14, 5330, Note_off_c, 9, 42, 64
14, 5330, Note_off_c, 9, 35, 64
14, 5454, Note_on_c, 9, 37, 90
14, 5504, Note_off_c, 9, 37, 64
14, 5520, Note_on_c, 9, 42, 90
14, 5570, Note_off_c, 9, 42, 64
14, 5694, Note_on_c, 9, 42, 50
14, 5744, Note_off_c, 9, 42, 64
14, 5760, Note_on_c, 9, 42, 70
14, 5810, Note_off_c, 9, 42, 64
14, 6000, Note_on_c, 9, 42, 70
14, 6000, Note_on_c, 9, 37, 80
14, 6050, Note_off_c, 9, 37, 64
14, 6050, Note_off_c, 9, 42, 64
14, 6172, Note_on_c, 9, 42, 40
14, 6222, Note_off_c, 9, 42, 64
14, 6240, Note_on_c, 9, 35, 60
14, 6240, Note_on_c, 9, 42, 80
14, 6290, Note_off_c, 9, 42, 64
14, 6290, Note_off_c, 9, 35, 64
14, 6480, Note_on_c, 9, 35, 60
14, 6480, Note_on_c, 9, 42, 80
14, 6530, Note_off_c, 9, 42, 64
14, 6530, Note_off_c, 9, 35, 64
14, 6652, Note_on_c, 9, 42, 50
14, 6702, Note_off_c, 9, 42, 64
14, 6720, Note_on_c, 9, 35, 60
14, 6720, Note_on_c, 9, 42, 80
14, 6770, Note_off_c, 9, 42, 64
14, 6770, Note_off_c, 9, 35, 64
14, 6960, Note_on_c, 9, 42, 70
14, 6960, Note_on_c, 9, 37, 70
14, 7010, Note_off_c, 9, 37, 64
14, 7010, Note_off_c, 9, 42, 64
14, 7132, Note_on_c, 9, 42, 40
14, 7182, Note_off_c, 9, 42, 64
14, 7200, Note_on_c, 9, 35, 60
14, 7200, Note_on_c, 9, 42, 80
14, 7250, Note_off_c, 9, 42, 64
14, 7250, Note_off_c, 9, 35, 64
14, 7440, Note_on_c, 9, 42, 70
14, 7440, Note_on_c, 9, 37, 85
14, 7490, Note_off_c, 9, 37, 64
14, 7490, Note_off_c, 9, 42, 64
14, 7612, Note_on_c, 9, 42, 50
14, 7662, Note_off_c, 9, 42, 64
14, 7680, Note_on_c, 9, 35, 60
14, 7680, Note_on_c, 9, 42, 70
14, 7730, Note_off_c, 9, 42, 64
14, 7730, Note_off_c, 9, 35, 64
14, 7920, Note_on_c, 9, 42, 80
14, 7920, Note_on_c, 9, 37, 70
14, 7970, Note_off_c, 9, 37, 64
14, 7970, Note_off_c, 9, 42, 64
14, 8096, Note_on_c, 9, 42, 40
14, 8146, Note_off_c, 9, 42, 64
14, 8160, Note_on_c, 9, 35, 60
14, 8160, Note_on_c, 9, 42, 80
14, 8210, Note_off_c, 9, 42, 64
14, 8210, Note_off_c, 9, 35, 64
14, 8400, Note_on_c, 9, 42, 80
14, 8400, Note_on_c, 9, 37, 80
14, 8450, Note_off_c, 9, 37, 64
14, 8450, Note_off_c, 9, 42, 64
14, 8576, Note_on_c, 9, 42, 50
14, 8626, Note_off_c, 9, 42, 64
14, 8640, Note_on_c, 9, 35, 60
14, 8640, Note_on_c, 9, 42, 80
14, 8690, Note_off_c, 9, 42, 64
14, 8690, Note_off_c, 9, 35, 64
14, 8880, Note_on_c, 9, 42, 90
14, 8880, Note_on_c, 9, 37, 70
14, 8930, Note_off_c, 9, 37, 64
14, 8930, Note_off_c, 9, 42, 64
14, 9054, Note_on_c, 9, 42, 40
14, 9104, Note_off_c, 9, 42, 64
14, 9120, Note_on_c, 9, 35, 60
14, 9120, Note_on_c, 9, 42, 80
14, 9170, Note_off_c, 9, 42, 64
14, 9170, Note_off_c, 9, 35, 64
14, 9360, Note_on_c, 9, 42, 90
14, 9360, Note_on_c, 9, 37, 85
14, 9410, Note_off_c, 9, 37, 64
14, 9410, Note_off_c, 9, 42, 64
14, 9534, Note_on_c, 9, 42, 50
14, 9584, Note_off_c, 9, 42, 64
14, 9600, Note_on_c, 9, 35, 60
14, 9600, Note_on_c, 9, 42, 70
14, 9650, Note_off_c, 9, 42, 64
14, 9650, Note_off_c, 9, 35, 64
14, 9840, Note_on_c, 9, 42, 90
14, 9840, Note_on_c, 9, 37, 80
14, 9890, Note_off_c, 9, 37, 64
14, 9890, Note_off_c, 9, 42, 64
14, 10012, Note_on_c, 9, 42, 40
14, 10062, Note_off_c, 9, 42, 64
14, 10080, Note_on_c, 9, 35, 60
14, 10080, Note_on_c, 9, 42, 70
14, 10130, Note_off_c, 9, 42, 64
14, 10130, Note_off_c, 9, 35, 64
14, 10320, Note_on_c, 9, 42, 90
14, 10320, Note_on_c, 9, 37, 78
14, 10370, Note_off_c, 9, 37, 64
14, 10370, Note_off_c, 9, 42, 64
14, 10492, Note_on_c, 9, 42, 50
14, 10542, Note_off_c, 9, 42, 64
14, 10560, Note_on_c, 9, 35, 60
14, 10560, Note_on_c, 9, 42, 70
14, 10610, Note_off_c, 9, 42, 64
14, 10610, Note_off_c, 9, 35, 64
14, 10800, Note_on_c, 9, 42, 90
14, 10800, Note_on_c, 9, 37, 80
14, 10850, Note_off_c, 9, 37, 64
14, 10850, Note_off_c, 9, 42, 64
14, 10972, Note_on_c, 9, 42, 40
14, 11022, Note_off_c, 9, 42, 64
14, 11040, Note_on_c, 9, 35, 60
14, 11040, Note_on_c, 9, 42, 70
14, 11090, Note_off_c, 9, 42, 64
14, 11090, Note_off_c, 9, 35, 64
14, 11280, Note_on_c, 9, 42, 90
14, 11280, Note_on_c, 9, 37, 78
14, 11330, Note_off_c, 9, 37, 64
14, 11330, Note_off_c, 9, 42, 64
14, 11452, Note_on_c, 9, 42, 50
14, 11502, Note_off_c, 9, 42, 64
14, 11520, Note_on_c, 9, 35, 60
14, 11520, Note_on_c, 9, 42, 70
14, 11570, Note_off_c, 9, 42, 64
14, 11570, Note_off_c, 9, 35, 64
14, 11760, Note_on_c, 9, 42, 90
14, 11760, Note_on_c, 9, 37, 70
14, 11810, Note_off_c, 9, 37, 64
14, 11810, Note_off_c, 9, 42, 64
14, 11936, Note_on_c, 9, 42, 40
14, 11986, Note_off_c, 9, 42, 64
14, 12000, Note_on_c, 9, 35, 60
14, 12000, Note_on_c, 9, 42, 80
14, 12050, Note_off_c, 9, 42, 64
14, 12050, Note_off_c, 9, 35, 64
14, 12240, Note_on_c, 9, 42, 90
14, 12240, Note_on_c, 9, 37, 80
14, 12290, Note_off_c, 9, 37, 64
14, 12290, Note_off_c, 9, 42, 64
14, 12416, Note_on_c, 9, 42, 50
14, 12466, Note_off_c, 9, 42, 64
14, 12480, Note_on_c, 9, 35, 60
14, 12480, Note_on_c, 9, 42, 80
14, 12530, Note_off_c, 9, 42, 64
14, 12530, Note_off_c, 9, 35, 64
14, 12720, Note_on_c, 9, 42, 90
14, 12720, Note_on_c, 9, 37, 70
14, 12770, Note_off_c, 9, 37, 64
14, 12770, Note_off_c, 9, 42, 64
14, 12894, Note_on_c, 9, 42, 40
14, 12944, Note_off_c, 9, 42, 64
14, 12960, Note_on_c, 9, 35, 60
14, 12960, Note_on_c, 9, 42, 80
14, 13010, Note_off_c, 9, 42, 64
14, 13010, Note_off_c, 9, 35, 64
14, 13134, Note_on_c, 9, 37, 90
14, 13184, Note_off_c, 9, 37, 64
14, 13200, Note_on_c, 9, 42, 90
14, 13250, Note_off_c, 9, 42, 64
14, 13374, Note_on_c, 9, 42, 50
14, 13424, Note_off_c, 9, 42, 64
14, 13440, Note_on_c, 9, 35, 60
14, 13440, Note_on_c, 9, 42, 70
14, 13490, Note_off_c, 9, 42, 64
14, 13490, Note_off_c, 9, 35, 64
14, 13680, Note_on_c, 9, 42, 90
14, 13680, Note_on_c, 9, 37, 70
14, 13730, Note_off_c, 9, 37, 64
14, 13730, Note_off_c, 9, 42, 64
14, 13856, Note_on_c, 9, 42, 40
14, 13906, Note_off_c, 9, 42, 64
14, 13920, Note_on_c, 9, 35, 60
14, 13920, Note_on_c, 9, 42, 80
14, 13970, Note_off_c, 9, 42, 64
14, 13970, Note_off_c, 9, 35, 64
14, 14160, Note_on_c, 9, 42, 90
14, 14160, Note_on_c, 9, 37, 80
14, 14210, Note_off_c, 9, 37, 64
14, 14210, Note_off_c, 9, 42, 64
14, 14336, Note_on_c, 9, 42, 50
14, 14386, Note_off_c, 9, 42, 64
14, 14400, Note_on_c, 9, 35, 60
14, 14400, Note_on_c, 9, 42, 80
14, 14450, Note_off_c, 9, 42, 64
14, 14450, Note_off_c, 9, 35, 64
14, 14640, Note_on_c, 9, 42, 90
14, 14640, Note_on_c, 9, 37, 70
14, 14690, Note_off_c, 9, 37, 64
14, 14690, Note_off_c, 9, 42, 64
14, 14814, Note_on_c, 9, 42, 40
14, 14864, Note_off_c, 9, 42, 64
14, 14880, Note_on_c, 9, 35, 60
14, 14880, Note_on_c, 9, 42, 80
14, 14930, Note_off_c, 9, 42, 64
14, 14930, Note_off_c, 9, 35, 64
14, 15120, Note_on_c, 9, 42, 90
14, 15120, Note_on_c, 9, 37, 85
14, 15170, Note_off_c, 9, 37, 64
14, 15170, Note_off_c, 9, 42, 64
14, 15294, Note_on_c, 9, 42, 50
14, 15344, Note_off_c, 9, 42, 64
14, 15360, Note_on_c, 9, 35, 60
14, 15360, Note_on_c, 9, 42, 70
14, 15410, Note_off_c, 9, 42, 64
14, 15410, Note_off_c, 9, 35, 64
14, 15600, Note_on_c, 9, 42, 80
14, 15600, Note_on_c, 9, 37, 70
14, 15650, Note_off_c, 9, 37, 64
14, 15650, Note_off_c, 9, 42, 64
14, 15776, Note_on_c, 9, 42, 40
14, 15826, Note_off_c, 9, 42, 64
14, 15840, Note_on_c, 9, 35, 60
14, 15840, Note_on_c, 9, 42, 80
14, 15890, Note_off_c, 9, 42, 64
14, 15890, Note_off_c, 9, 35, 64
14, 16080, Note_on_c, 9, 42, 80
14, 16080, Note_on_c, 9, 37, 80
14, 16130, Note_off_c, 9, 37, 64
14, 16130, Note_off_c, 9, 42, 64
14, 16256, Note_on_c, 9, 35, 50
14, 16256, Note_on_c, 9, 42, 50
14, 16306, Note_off_c, 9, 42, 64
14, 16306, Note_off_c, 9, 35, 64
14, 16320, Note_on_c, 9, 38, 50
14, 16320, Note_on_c, 9, 42, 70
14, 16370, Note_off_c, 9, 42, 64
14, 16370, Note_off_c, 9, 38, 64
14, 16488, Note_on_c, 9, 35, 70
14, 16538, Note_off_c, 9, 35, 64
14, 16560, Note_on_c, 9, 42, 80
14, 16610, Note_off_c, 9, 42, 64
14, 16728, Note_on_c, 9, 38, 50
14, 16778, Note_off_c, 9, 38, 64
14, 16800, Note_on_c, 9, 35, 60
14, 16800, Note_on_c, 9, 42, 70
14, 16850, Note_off_c, 9, 42, 64
14, 16850, Note_off_c, 9, 35, 64
14, 16968, Note_on_c, 9, 38, 30
14, 17018, Note_off_c, 9, 38, 64
14, 17040, Note_on_c, 9, 38, 50
14, 17040, Note_on_c, 9, 42, 100
14, 17090, Note_off_c, 9, 42, 64
14, 17090, Note_off_c, 9, 38, 64
14, 17120, Note_on_c, 9, 38, 25
14, 17170, Note_off_c, 9, 38, 64
14, 17208, Note_on_c, 9, 38, 40
14, 17258, Note_off_c, 9, 38, 64
14, 17280, Note_on_c, 9, 49, 50
14, 17330, Note_off_c, 9, 49, 64
14, 17450, Note_on_c, 9, 38, 50
14, 17500, Note_off_c, 9, 38, 64
14, 17520, Note_on_c, 9, 42, 80
14, 17520, Note_on_c, 9, 37, 70
14, 17520, Note_on_c, 9, 51, 90
14, 17570, Note_off_c, 9, 51, 64
14, 17570, Note_off_c, 9, 37, 64
14, 17570, Note_off_c, 9, 42, 64
14, 17690, Note_on_c, 9, 38, 30
14, 17690, Note_on_c, 9, 51, 70
14, 17740, Note_off_c, 9, 51, 64
14, 17740, Note_off_c, 9, 38, 64
14, 17760, Note_on_c, 9, 38, 40
14, 17760, Note_on_c, 9, 51, 70
14, 17810, Note_off_c, 9, 51, 64
14, 17810, Note_off_c, 9, 38, 64
14, 18000, Note_on_c, 9, 42, 100
14, 18000, Note_on_c, 9, 37, 70
14, 18000, Note_on_c, 9, 51, 90
14, 18050, Note_off_c, 9, 51, 64
14, 18050, Note_off_c, 9, 37, 64
14, 18050, Note_off_c, 9, 42, 64
14, 18170, Note_on_c, 9, 51, 70
14, 18220, Note_off_c, 9, 51, 64
14, 18240, Note_on_c, 9, 51, 80
14, 18290, Note_off_c, 9, 51, 64
14, 18480, Note_on_c, 9, 42, 70
14, 18480, Note_on_c, 9, 37, 70
14, 18480, Note_on_c, 9, 51, 90
14, 18530, Note_off_c, 9, 51, 64
14, 18530, Note_off_c, 9, 37, 64
14, 18530, Note_off_c, 9, 42, 64
14, 18654, Note_on_c, 9, 38, 40
14, 18654, Note_on_c, 9, 51, 70
14, 18704, Note_off_c, 9, 51, 64
14, 18704, Note_off_c, 9, 38, 64
14, 18720, Note_on_c, 9, 51, 90
14, 18770, Note_off_c, 9, 51, 64
14, 18960, Note_on_c, 9, 42, 100
14, 18960, Note_on_c, 9, 51, 90
14, 19010, Note_off_c, 9, 51, 64
14, 19010, Note_off_c, 9, 42, 64
14, 19134, Note_on_c, 9, 51, 70
14, 19184, Note_off_c, 9, 51, 64
14, 19200, Note_on_c, 9, 51, 70
14, 19250, Note_off_c, 9, 51, 64
14, 19440, Note_on_c, 9, 42, 100
14, 19440, Note_on_c, 9, 37, 70
14, 19440, Note_on_c, 9, 51, 90
14, 19490, Note_off_c, 9, 51, 64
14, 19490, Note_off_c, 9, 37, 64
14, 19490, Note_off_c, 9, 42, 64
14, 19614, Note_on_c, 9, 38, 40
14, 19614, Note_on_c, 9, 51, 50
14, 19664, Note_off_c, 9, 51, 64
14, 19664, Note_off_c, 9, 38, 64
14, 19680, Note_on_c, 9, 51, 80
14, 19730, Note_off_c, 9, 51, 64
14, 19920, Note_on_c, 9, 42, 100
14, 19920, Note_on_c, 9, 37, 70
14, 19920, Note_on_c, 9, 51, 90
14, 19970, Note_off_c, 9, 51, 64
14, 19970, Note_off_c, 9, 37, 64
14, 19970, Note_off_c, 9, 42, 64
14, 20094, Note_on_c, 9, 38, 40
14, 20094, Note_on_c, 9, 51, 50
14, 20144, Note_off_c, 9, 51, 64
14, 20144, Note_off_c, 9, 38, 64
14, 20160, Note_on_c, 9, 51, 80
14, 20210, Note_off_c, 9, 51, 64
14, 20400, Note_on_c, 9, 42, 80
14, 20400, Note_on_c, 9, 37, 70
14, 20400, Note_on_c, 9, 51, 90
14, 20450, Note_off_c, 9, 51, 64
14, 20450, Note_off_c, 9, 37, 64
14, 20450, Note_off_c, 9, 42, 64
14, 20576, Note_on_c, 9, 38, 40
14, 20576, Note_on_c, 9, 51, 70
14, 20626, Note_off_c, 9, 51, 64
14, 20626, Note_off_c, 9, 38, 64
14, 20640, Note_on_c, 9, 51, 80
14, 20690, Note_off_c, 9, 51, 64
14, 20816, Note_on_c, 9, 38, 30
14, 20866, Note_off_c, 9, 38, 64
14, 20880, Note_on_c, 9, 42, 100
14, 20880, Note_on_c, 9, 37, 70
14, 20880, Note_on_c, 9, 51, 90
14, 20930, Note_off_c, 9, 51, 64
14, 20930, Note_off_c, 9, 37, 64
14, 20930, Note_off_c, 9, 42, 64
14, 21056, Note_on_c, 9, 51, 70
14, 21106, Note_off_c, 9, 51, 64
14, 21120, Note_on_c, 9, 51, 70
14, 21170, Note_off_c, 9, 51, 64
14, 21360, Note_on_c, 9, 42, 90
14, 21360, Note_on_c, 9, 37, 60
14, 21360, Note_on_c, 9, 51, 90
14, 21410, Note_off_c, 9, 51, 64
14, 21410, Note_off_c, 9, 37, 64
14, 21410, Note_off_c, 9, 42, 64
14, 21536, Note_on_c, 9, 38, 40
14, 21536, Note_on_c, 9, 51, 70
14, 21586, Note_off_c, 9, 51, 64
14, 21586, Note_off_c, 9, 38, 64
14, 21600, Note_on_c, 9, 51, 80
14, 21650, Note_off_c, 9, 51, 64
14, 21840, Note_on_c, 9, 42, 100
14, 21840, Note_on_c, 9, 37, 70
14, 21840, Note_on_c, 9, 51, 90
14, 21890, Note_off_c, 9, 51, 64
14, 21890, Note_off_c, 9, 37, 64
14, 21890, Note_off_c, 9, 42, 64
14, 22016, Note_on_c, 9, 51, 70
14, 22066, Note_off_c, 9, 51, 64
14, 22080, Note_on_c, 9, 51, 80
14, 22130, Note_off_c, 9, 51, 64
14, 22320, Note_on_c, 9, 42, 80
14, 22320, Note_on_c, 9, 37, 70
14, 22320, Note_on_c, 9, 51, 90
14, 22370, Note_off_c, 9, 51, 64
14, 22370, Note_off_c, 9, 37, 64
14, 22370, Note_off_c, 9, 42, 64
14, 22496, Note_on_c, 9, 51, 70
14, 22546, Note_off_c, 9, 51, 64
14, 22560, Note_on_c, 9, 38, 40
14, 22560, Note_on_c, 9, 51, 80
14, 22610, Note_off_c, 9, 51, 64
14, 22610, Note_off_c, 9, 38, 64
14, 22800, Note_on_c, 9, 42, 100
14, 22800, Note_on_c, 9, 37, 70
14, 22800, Note_on_c, 9, 51, 90
14, 22850, Note_off_c, 9, 51, 64
14, 22850, Note_off_c, 9, 37, 64
14, 22850, Note_off_c, 9, 42, 64
14, 22976, Note_on_c, 9, 51, 70
14, 23026, Note_off_c, 9, 51, 64
14, 23040, Note_on_c, 9, 51, 70
14, 23090, Note_off_c, 9, 51, 64
14, 23280, Note_on_c, 9, 42, 100
14, 23280, Note_on_c, 9, 37, 70
14, 23280, Note_on_c, 9, 51, 90
14, 23330, Note_off_c, 9, 51, 64
14, 23330, Note_off_c, 9, 37, 64
14, 23330, Note_off_c, 9, 42, 64
14, 23454, Note_on_c, 9, 38, 40
14, 23454, Note_on_c, 9, 51, 50
14, 23504, Note_off_c, 9, 51, 64
14, 23504, Note_off_c, 9, 38, 64
14, 23520, Note_on_c, 9, 51, 80
14, 23570, Note_off_c, 9, 51, 64
14, 23760, Note_on_c, 9, 42, 100
14, 23760, Note_on_c, 9, 37, 70
14, 23760, Note_on_c, 9, 51, 90
14, 23810, Note_off_c, 9, 51, 64
14, 23810, Note_off_c, 9, 37, 64
14, 23810, Note_off_c, 9, 42, 64
14, 23934, Note_on_c, 9, 38, 40
14, 23934, Note_on_c, 9, 51, 50
14, 23984, Note_off_c, 9, 51, 64
14, 23984, Note_off_c, 9, 38, 64
14, 24000, Note_on_c, 9, 51, 80
14, 24050, Note_off_c, 9, 51, 64
14, 24172, Note_on_c, 9, 38, 60
14, 24222, Note_off_c, 9, 38, 64
14, 24240, Note_on_c, 9, 42, 80
14, 24240, Note_on_c, 9, 37, 70
14, 24240, Note_on_c, 9, 51, 90
14, 24290, Note_off_c, 9, 51, 64
14, 24290, Note_off_c, 9, 37, 64
14, 24290, Note_off_c, 9, 42, 64
14, 24412, Note_on_c, 9, 35, 70
14, 24412, Note_on_c, 9, 51, 70
14, 24462, Note_off_c, 9, 51, 64
14, 24462, Note_off_c, 9, 35, 64
14, 24480, Note_on_c, 9, 51, 80
14, 24530, Note_off_c, 9, 51, 64
14, 24652, Note_on_c, 9, 38, 60
14, 24702, Note_off_c, 9, 38, 64
14, 24720, Note_on_c, 9, 42, 100
14, 24720, Note_on_c, 9, 37, 80
14, 24720, Note_on_c, 9, 51, 90
14, 24770, Note_off_c, 9, 51, 64
14, 24770, Note_off_c, 9, 37, 64
14, 24770, Note_off_c, 9, 42, 64
14, 24892, Note_on_c, 9, 38, 50
14, 24892, Note_on_c, 9, 51, 70
14, 24942, Note_off_c, 9, 51, 64
14, 24942, Note_off_c, 9, 38, 64
14, 24960, Note_on_c, 9, 51, 70
14, 25010, Note_off_c, 9, 51, 64
14, 25200, Note_on_c, 9, 42, 90
14, 25200, Note_on_c, 9, 37, 60
14, 25200, Note_on_c, 9, 51, 90
14, 25250, Note_off_c, 9, 51, 64
14, 25250, Note_off_c, 9, 37, 64
14, 25250, Note_off_c, 9, 42, 64
14, 25376, Note_on_c, 9, 38, 40
14, 25376, Note_on_c, 9, 51, 70
14, 25426, Note_off_c, 9, 51, 64
14, 25426, Note_off_c, 9, 38, 64
14, 25440, Note_on_c, 9, 51, 80
14, 25490, Note_off_c, 9, 51, 64
14, 25680, Note_on_c, 9, 42, 100
14, 25680, Note_on_c, 9, 37, 70
14, 25680, Note_on_c, 9, 51, 90
14, 25730, Note_off_c, 9, 51, 64
14, 25730, Note_off_c, 9, 37, 64
14, 25730, Note_off_c, 9, 42, 64
14, 25856, Note_on_c, 9, 51, 70
14, 25906, Note_off_c, 9, 51, 64
14, 25920, Note_on_c, 9, 51, 80
14, 25970, Note_off_c, 9, 51, 64
14, 26160, Note_on_c, 9, 42, 80
14, 26160, Note_on_c, 9, 37, 70
14, 26160, Note_on_c, 9, 51, 90
14, 26210, Note_off_c, 9, 51, 64
14, 26210, Note_off_c, 9, 37, 64
14, 26210, Note_off_c, 9, 42, 64
14, 26336, Note_on_c, 9, 51, 70
14, 26386, Note_off_c, 9, 51, 64
14, 26400, Note_on_c, 9, 38, 40
14, 26400, Note_on_c, 9, 51, 80
14, 26450, Note_off_c, 9, 51, 64
14, 26450, Note_off_c, 9, 38, 64
14, 26576, Note_on_c, 9, 38, 40
14, 26626, Note_off_c, 9, 38, 64
14, 26640, Note_on_c, 9, 42, 100
14, 26640, Note_on_c, 9, 37, 70
14, 26640, Note_on_c, 9, 51, 90
14, 26690, Note_off_c, 9, 51, 64
14, 26690, Note_off_c, 9, 37, 64
14, 26690, Note_off_c, 9, 42, 64
14, 26816, Note_on_c, 9, 51, 70
14, 26866, Note_off_c, 9, 51, 64
14, 26880, Note_on_c, 9, 51, 70
14, 26930, Note_off_c, 9, 51, 64
14, 27120, Note_on_c, 9, 42, 100
14, 27120, Note_on_c, 9, 37, 70
14, 27120, Note_on_c, 9, 51, 90
14, 27170, Note_off_c, 9, 51, 64
14, 27170, Note_off_c, 9, 37, 64
14, 27170, Note_off_c, 9, 42, 64
14, 27294, Note_on_c, 9, 38, 40
14, 27294, Note_on_c, 9, 51, 50
14, 27344, Note_off_c, 9, 51, 64
14, 27344, Note_off_c, 9, 38, 64
14, 27360, Note_on_c, 9, 51, 80
14, 27410, Note_off_c, 9, 51, 64
14, 27600, Note_on_c, 9, 42, 100
14, 27600, Note_on_c, 9, 37, 70
14, 27600, Note_on_c, 9, 51, 90
14, 27650, Note_off_c, 9, 51, 64
14, 27650, Note_off_c, 9, 37, 64
14, 27650, Note_off_c, 9, 42, 64
14, 27774, Note_on_c, 9, 38, 40
14, 27774, Note_on_c, 9, 51, 50
14, 27824, Note_off_c, 9, 51, 64
14, 27824, Note_off_c, 9, 38, 64
14, 27840, Note_on_c, 9, 51, 80
14, 27890, Note_off_c, 9, 51, 64
14, 28080, Note_on_c, 9, 42, 80
14, 28080, Note_on_c, 9, 37, 70
14, 28080, Note_on_c, 9, 51, 100
14, 28130, Note_off_c, 9, 51, 64
14, 28130, Note_off_c, 9, 37, 64
14, 28130, Note_off_c, 9, 42, 64
14, 28256, Note_on_c, 9, 38, 40
14, 28256, Note_on_c, 9, 51, 70
14, 28306, Note_off_c, 9, 51, 64
14, 28306, Note_off_c, 9, 38, 64
14, 28320, Note_on_c, 9, 51, 80
14, 28370, Note_off_c, 9, 51, 64
14, 28496, Note_on_c, 9, 38, 60
14, 28496, Note_on_c, 9, 51, 50
14, 28546, Note_off_c, 9, 51, 64
14, 28546, Note_off_c, 9, 38, 64
14, 28560, Note_on_c, 9, 42, 100
14, 28560, Note_on_c, 9, 37, 80
14, 28560, Note_on_c, 9, 51, 90
14, 28610, Note_off_c, 9, 51, 64
14, 28610, Note_off_c, 9, 37, 64
14, 28610, Note_off_c, 9, 42, 64
14, 28736, Note_on_c, 9, 38, 50
14, 28736, Note_on_c, 9, 51, 70
14, 28786, Note_off_c, 9, 51, 64
14, 28786, Note_off_c, 9, 38, 64
14, 28800, Note_on_c, 9, 51, 80
14, 28850, Note_off_c, 9, 51, 64
14, 29040, Note_on_c, 9, 42, 80
14, 29040, Note_on_c, 9, 37, 70
14, 29040, Note_on_c, 9, 51, 90
14, 29090, Note_off_c, 9, 51, 64
14, 29090, Note_off_c, 9, 37, 64
14, 29090, Note_off_c, 9, 42, 64
14, 29216, Note_on_c, 9, 51, 70
14, 29266, Note_off_c, 9, 51, 64
14, 29280, Note_on_c, 9, 38, 40
14, 29280, Note_on_c, 9, 51, 80
14, 29330, Note_off_c, 9, 51, 64
14, 29330, Note_off_c, 9, 38, 64
14, 29520, Note_on_c, 9, 42, 100
14, 29520, Note_on_c, 9, 37, 70
14, 29520, Note_on_c, 9, 51, 90
14, 29570, Note_off_c, 9, 51, 64
14, 29570, Note_off_c, 9, 37, 64
14, 29570, Note_off_c, 9, 42, 64
14, 29696, Note_on_c, 9, 51, 70
14, 29746, Note_off_c, 9, 51, 64
14, 29760, Note_on_c, 9, 51, 80
14, 29810, Note_off_c, 9, 51, 64
14, 30000, Note_on_c, 9, 42, 70
14, 30000, Note_on_c, 9, 37, 70
14, 30000, Note_on_c, 9, 51, 90
14, 30050, Note_off_c, 9, 51, 64
14, 30050, Note_off_c, 9, 37, 64
14, 30050, Note_off_c, 9, 42, 64
14, 30174, Note_on_c, 9, 38, 40
14, 30174, Note_on_c, 9, 51, 70
14, 30224, Note_off_c, 9, 51, 64
14, 30224, Note_off_c, 9, 38, 64
14, 30240, Note_on_c, 9, 51, 90
14, 30290, Note_off_c, 9, 51, 64
14, 30480, Note_on_c, 9, 42, 100
14, 30480, Note_on_c, 9, 51, 90
14, 30530, Note_off_c, 9, 51, 64
14, 30530, Note_off_c, 9, 42, 64
14, 30654, Note_on_c, 9, 51, 70
14, 30704, Note_off_c, 9, 51, 64
14, 30720, Note_on_c, 9, 51, 70
14, 30770, Note_off_c, 9, 51, 64
14, 30960, Note_on_c, 9, 42, 90
14, 30960, Note_on_c, 9, 37, 60
14, 30960, Note_on_c, 9, 51, 90
14, 31010, Note_off_c, 9, 51, 64
14, 31010, Note_off_c, 9, 37, 64
14, 31010, Note_off_c, 9, 42, 64
14, 31136, Note_on_c, 9, 38, 40
14, 31136, Note_on_c, 9, 51, 70
14, 31186, Note_off_c, 9, 51, 64
14, 31186, Note_off_c, 9, 38, 64
14, 31200, Note_on_c, 9, 51, 80
14, 31250, Note_off_c, 9, 51, 64
14, 31440, Note_on_c, 9, 42, 100
14, 31440, Note_on_c, 9, 37, 70
14, 31440, Note_on_c, 9, 51, 90
14, 31490, Note_off_c, 9, 51, 64
14, 31490, Note_off_c, 9, 37, 64
14, 31490, Note_off_c, 9, 42, 64
14, 31616, Note_on_c, 9, 51, 70
14, 31666, Note_off_c, 9, 51, 64
14, 31680, Note_on_c, 9, 35, 84
14, 31680, Note_on_c, 9, 42, 70
14, 31680, Note_on_c, 9, 51, 70
14, 31730, Note_off_c, 9, 51, 64
14, 31730, Note_off_c, 9, 42, 64
14, 31730, Note_off_c, 9, 35, 64
14, 31920, Note_on_c, 9, 42, 100
14, 31920, Note_on_c, 9, 51, 90
14, 31970, Note_off_c, 9, 51, 64
14, 31970, Note_off_c, 9, 42, 64
14, 32086, Note_on_c, 9, 35, 90
14, 32086, Note_on_c, 9, 49, 50
14, 32136, Note_off_c, 9, 49, 64
14, 32136, Note_off_c, 9, 35, 64
14, 32240, Note_on_c, 9, 38, 60
14, 32290, Note_off_c, 9, 38, 64
14, 32326, Note_on_c, 9, 35, 70
14, 32376, Note_off_c, 9, 35, 64
14, 32400, Note_on_c, 9, 38, 40
14, 32400, Note_on_c, 9, 42, 100
14, 32450, Note_off_c, 9, 42, 64
14, 32450, Note_off_c, 9, 38, 64
14, 32480, Note_on_c, 9, 38, 50
14, 32530, Note_off_c, 9, 38, 64
14, 32566, Note_on_c, 9, 38, 70
14, 32616, Note_off_c, 9, 38, 64
14, 32640, Note_on_c, 9, 38, 50
14, 32690, Note_off_c, 9, 38, 64
14, 32880, Note_on_c, 9, 42, 80
14, 32880, Note_on_c, 9, 37, 70
14, 32880, Note_on_c, 9, 51, 90
14, 32930, Note_off_c, 9, 51, 64
14, 32930, Note_off_c, 9, 37, 64
14, 32930, Note_off_c, 9, 42, 64
14, 33054, Note_on_c, 9, 51, 70
14, 33104, Note_off_c, 9, 51, 64
14, 33120, Note_on_c, 9, 38, 40
14, 33120, Note_on_c, 9, 51, 70
14, 33170, Note_off_c, 9, 51, 64
14, 33170, Note_off_c, 9, 38, 64
14, 33360, Note_on_c, 9, 42, 100
14, 33360, Note_on_c, 9, 37, 70
14, 33360, Note_on_c, 9, 51, 90
14, 33410, Note_off_c, 9, 51, 64
14, 33410, Note_off_c, 9, 37, 64
14, 33410, Note_off_c, 9, 42, 64
14, 33534, Note_on_c, 9, 51, 70
14, 33584, Note_off_c, 9, 51, 64
14, 33600, Note_on_c, 9, 51, 80
14, 33650, Note_off_c, 9, 51, 64
14, 33840, Note_on_c, 9, 42, 70
14, 33840, Note_on_c, 9, 37, 70
14, 33840, Note_on_c, 9, 51, 90
14, 33890, Note_off_c, 9, 51, 64
14, 33890, Note_off_c, 9, 37, 64
14, 33890, Note_off_c, 9, 42, 64
14, 34014, Note_on_c, 9, 51, 70
14, 34064, Note_off_c, 9, 51, 64
14, 34080, Note_on_c, 9, 51, 90
14, 34130, Note_off_c, 9, 51, 64
14, 34320, Note_on_c, 9, 42, 100
14, 34320, Note_on_c, 9, 51, 90
14, 34370, Note_off_c, 9, 51, 64
14, 34370, Note_off_c, 9, 42, 64
14, 34494, Note_on_c, 9, 51, 70
14, 34544, Note_off_c, 9, 51, 64
14, 34560, Note_on_c, 9, 51, 70
14, 34610, Note_off_c, 9, 51, 64
14, 34800, Note_on_c, 9, 42, 100
14, 34800, Note_on_c, 9, 37, 70
14, 34800, Note_on_c, 9, 51, 90
14, 34850, Note_off_c, 9, 51, 64
14, 34850, Note_off_c, 9, 37, 64
14, 34850, Note_off_c, 9, 42, 64
14, 34974, Note_on_c, 9, 38, 40
14, 34974, Note_on_c, 9, 51, 50
14, 35024, Note_off_c, 9, 51, 64
14, 35024, Note_off_c, 9, 38, 64
14, 35040, Note_on_c, 9, 51, 80
14, 35090, Note_off_c, 9, 51, 64
14, 35280, Note_on_c, 9, 42, 100
14, 35280, Note_on_c, 9, 37, 70
14, 35280, Note_on_c, 9, 51, 90
14, 35330, Note_off_c, 9, 51, 64
14, 35330, Note_off_c, 9, 37, 64
14, 35330, Note_off_c, 9, 42, 64
14, 35454, Note_on_c, 9, 38, 40
14, 35454, Note_on_c, 9, 51, 50
14, 35504, Note_off_c, 9, 51, 64
14, 35504, Note_off_c, 9, 38, 64
14, 35520, Note_on_c, 9, 51, 80
14, 35570, Note_off_c, 9, 51, 64
14, 35760, Note_on_c, 9, 42, 70
14, 35760, Note_on_c, 9, 37, 70
14, 35760, Note_on_c, 9, 51, 90
14, 35810, Note_off_c, 9, 51, 64
14, 35810, Note_off_c, 9, 37, 64
14, 35810, Note_off_c, 9, 42, 64
14, 35934, Note_on_c, 9, 51, 70
14, 35984, Note_off_c, 9, 51, 64
14, 36000, Note_on_c, 9, 51, 90
14, 36050, Note_off_c, 9, 51, 64
14, 36240, Note_on_c, 9, 42, 100
14, 36240, Note_on_c, 9, 51, 90
14, 36290, Note_off_c, 9, 51, 64
14, 36290, Note_off_c, 9, 42, 64
14, 36414, Note_on_c, 9, 51, 70
14, 36464, Note_off_c, 9, 51, 64
14, 36480, Note_on_c, 9, 51, 70
14, 36530, Note_off_c, 9, 51, 64
14, 36720, Note_on_c, 9, 42, 100
14, 36720, Note_on_c, 9, 37, 70
14, 36720, Note_on_c, 9, 51, 90
14, 36770, Note_off_c, 9, 51, 64
14, 36770, Note_off_c, 9, 37, 64
14, 36770, Note_off_c, 9, 42, 64
14, 36894, Note_on_c, 9, 38, 40
14, 36894, Note_on_c, 9, 51, 50
14, 36944, Note_off_c, 9, 51, 64
14, 36944, Note_off_c, 9, 38, 64
14, 36960, Note_on_c, 9, 51, 80
14, 37010, Note_off_c, 9, 51, 64
14, 37200, Note_on_c, 9, 42, 100
14, 37200, Note_on_c, 9, 37, 70
14, 37200, Note_on_c, 9, 51, 90
14, 37250, Note_off_c, 9, 51, 64
14, 37250, Note_off_c, 9, 37, 64
14, 37250, Note_off_c, 9, 42, 64
14, 37374, Note_on_c, 9, 38, 40
14, 37374, Note_on_c, 9, 51, 50
14, 37424, Note_off_c, 9, 51, 64
14, 37424, Note_off_c, 9, 38, 64
14, 37440, Note_on_c, 9, 51, 80
14, 37490, Note_off_c, 9, 51, 64
14, 37680, Note_on_c, 9, 42, 70
14, 37680, Note_on_c, 9, 37, 70
14, 37680, Note_on_c, 9, 51, 90
14, 37730, Note_off_c, 9, 51, 64
14, 37730, Note_off_c, 9, 37, 64
14, 37730, Note_off_c, 9, 42, 64
14, 37854, Note_on_c, 9, 51, 70
14, 37904, Note_off_c, 9, 51, 64
14, 37920, Note_on_c, 9, 51, 90
14, 37970, Note_off_c, 9, 51, 64
14, 38160, Note_on_c, 9, 42, 100
14, 38160, Note_on_c, 9, 51, 90
14, 38210, Note_off_c, 9, 51, 64
14, 38210, Note_off_c, 9, 42, 64
14, 38334, Note_on_c, 9, 51, 70
14, 38384, Note_off_c, 9, 51, 64
14, 38400, Note_on_c, 9, 51, 80
14, 38450, Note_off_c, 9, 51, 64
14, 38640, Note_on_c, 9, 42, 80
14, 38640, Note_on_c, 9, 37, 70
14, 38640, Note_on_c, 9, 51, 90
14, 38690, Note_off_c, 9, 51, 64
14, 38690, Note_off_c, 9, 37, 64
14, 38690, Note_off_c, 9, 42, 64
14, 38816, Note_on_c, 9, 38, 30
14, 38816, Note_on_c, 9, 51, 70
14, 38866, Note_off_c, 9, 51, 64
14, 38866, Note_off_c, 9, 38, 64
14, 38880, Note_on_c, 9, 38, 40
14, 38880, Note_on_c, 9, 51, 80
14, 38930, Note_off_c, 9, 51, 64
14, 38930, Note_off_c, 9, 38, 64
14, 39120, Note_on_c, 9, 42, 100
14, 39120, Note_on_c, 9, 37, 70
14, 39120, Note_on_c, 9, 51, 90
14, 39170, Note_off_c, 9, 51, 64
14, 39170, Note_off_c, 9, 37, 64
14, 39170, Note_off_c, 9, 42, 64
14, 39296, Note_on_c, 9, 51, 70
14, 39346, Note_off_c, 9, 51, 64
14, 39360, Note_on_c, 9, 51, 80
14, 39410, Note_off_c, 9, 51, 64
14, 39600, Note_on_c, 9, 42, 80
14, 39600, Note_on_c, 9, 37, 70
14, 39600, Note_on_c, 9, 51, 90
14, 39650, Note_off_c, 9, 51, 64
14, 39650, Note_off_c, 9, 37, 64
14, 39650, Note_off_c, 9, 42, 64
14, 39776, Note_on_c, 9, 38, 30
14, 39776, Note_on_c, 9, 51, 70
14, 39826, Note_off_c, 9, 51, 64
14, 39826, Note_off_c, 9, 38, 64
14, 39840, Note_on_c, 9, 38, 40
14, 39840, Note_on_c, 9, 51, 80
14, 39890, Note_off_c, 9, 51, 64
14, 39890, Note_off_c, 9, 38, 64
14, 40080, Note_on_c, 9, 42, 100
14, 40080, Note_on_c, 9, 37, 70
14, 40080, Note_on_c, 9, 51, 90
14, 40130, Note_off_c, 9, 51, 64
14, 40130, Note_off_c, 9, 37, 64
14, 40130, Note_off_c, 9, 42, 64
14, 40256, Note_on_c, 9, 51, 70
14, 40306, Note_off_c, 9, 51, 64
14, 40320, Note_on_c, 9, 51, 80
14, 40370, Note_off_c, 9, 51, 64
14, 40560, Note_on_c, 9, 42, 80
14, 40560, Note_on_c, 9, 37, 70
14, 40560, Note_on_c, 9, 51, 90
14, 40610, Note_off_c, 9, 51, 64
14, 40610, Note_off_c, 9, 37, 64
14, 40610, Note_off_c, 9, 42, 64
14, 40736, Note_on_c, 9, 51, 70
14, 40786, Note_off_c, 9, 51, 64
14, 40800, Note_on_c, 9, 38, 40
14, 40800, Note_on_c, 9, 51, 80
14, 40850, Note_off_c, 9, 51, 64
14, 40850, Note_off_c, 9, 38, 64
14, 41040, Note_on_c, 9, 42, 100
14, 41040, Note_on_c, 9, 37, 70
14, 41040, Note_on_c, 9, 51, 90
14, 41090, Note_off_c, 9, 51, 64
14, 41090, Note_off_c, 9, 37, 64
14, 41090, Note_off_c, 9, 42, 64
14, 41216, Note_on_c, 9, 51, 70
14, 41266, Note_off_c, 9, 51, 64
14, 41280, Note_on_c, 9, 51, 80
14, 41330, Note_off_c, 9, 51, 64
14, 41520, Note_on_c, 9, 42, 80
14, 41520, Note_on_c, 9, 37, 70
14, 41520, Note_on_c, 9, 51, 90
14, 41570, Note_off_c, 9, 51, 64
14, 41570, Note_off_c, 9, 37, 64
14, 41570, Note_off_c, 9, 42, 64
14, 41696, Note_on_c, 9, 38, 30
14, 41696, Note_on_c, 9, 51, 70
14, 41746, Note_off_c, 9, 51, 64
14, 41746, Note_off_c, 9, 38, 64
14, 41760, Note_on_c, 9, 38, 40
14, 41760, Note_on_c, 9, 51, 80
14, 41810, Note_off_c, 9, 51, 64
14, 41810, Note_off_c, 9, 38, 64
14, 42000, Note_on_c, 9, 42, 100
14, 42000, Note_on_c, 9, 37, 70
14, 42000, Note_on_c, 9, 51, 90
14, 42050, Note_off_c, 9, 51, 64
14, 42050, Note_off_c, 9, 37, 64
14, 42050, Note_off_c, 9, 42, 64
14, 42176, Note_on_c, 9, 51, 70
14, 42226, Note_off_c, 9, 51, 64
14, 42240, Note_on_c, 9, 51, 70
14, 42290, Note_off_c, 9, 51, 64
14, 42480, Note_on_c, 9, 42, 90
14, 42480, Note_on_c, 9, 37, 60
14, 42480, Note_on_c, 9, 51, 90
14, 42530, Note_off_c, 9, 51, 64
14, 42530, Note_off_c, 9, 37, 64
14, 42530, Note_off_c, 9, 42, 64
14, 42656, Note_on_c, 9, 38, 40
14, 42656, Note_on_c, 9, 51, 70
14, 42706, Note_off_c, 9, 51, 64
14, 42706, Note_off_c, 9, 38, 64
14, 42720, Note_on_c, 9, 51, 80
14, 42770, Note_off_c, 9, 51, 64
14, 42960, Note_on_c, 9, 42, 100
14, 42960, Note_on_c, 9, 37, 70
14, 42960, Note_on_c, 9, 51, 90
14, 43010, Note_off_c, 9, 51, 64
14, 43010, Note_off_c, 9, 37, 64
14, 43010, Note_off_c, 9, 42, 64
14, 43136, Note_on_c, 9, 51, 70
14, 43186, Note_off_c, 9, 51, 64
14, 43200, Note_on_c, 9, 51, 80
14, 43250, Note_off_c, 9, 51, 64
14, 43440, Note_on_c, 9, 42, 90
14, 43440, Note_on_c, 9, 37, 70
14, 43440, Note_on_c, 9, 51, 90
14, 43490, Note_off_c, 9, 51, 64
14, 43490, Note_off_c, 9, 37, 64
14, 43490, Note_off_c, 9, 42, 64
14, 43616, Note_on_c, 9, 51, 70
14, 43666, Note_off_c, 9, 51, 64
14, 43680, Note_on_c, 9, 51, 80
14, 43730, Note_off_c, 9, 51, 64
14, 43920, Note_on_c, 9, 42, 100
14, 43920, Note_on_c, 9, 51, 105
14, 43920, Note_on_c, 9, 45, 50
14, 43970, Note_off_c, 9, 45, 64
14, 43970, Note_off_c, 9, 51, 64
14, 43970, Note_off_c, 9, 42, 64
14, 44096, Note_on_c, 9, 51, 70
14, 44096, Note_on_c, 9, 45, 40
14, 44146, Note_off_c, 9, 45, 64
14, 44146, Note_off_c, 9, 51, 64
14, 44160, Note_on_c, 9, 51, 70
14, 44210, Note_off_c, 9, 51, 64
14, 44400, Note_on_c, 9, 42, 100
14, 44400, Note_on_c, 9, 37, 70
14, 44400, Note_on_c, 9, 51, 90
14, 44450, Note_off_c, 9, 51, 64
14, 44450, Note_off_c, 9, 37, 64
14, 44450, Note_off_c, 9, 42, 64
14, 44574, Note_on_c, 9, 38, 40
14, 44574, Note_on_c, 9, 51, 50
14, 44624, Note_off_c, 9, 51, 64
14, 44624, Note_off_c, 9, 38, 64
14, 44640, Note_on_c, 9, 51, 80
14, 44690, Note_off_c, 9, 51, 64
14, 44880, Note_on_c, 9, 42, 100
14, 44880, Note_on_c, 9, 37, 70
14, 44880, Note_on_c, 9, 51, 90
14, 44930, Note_off_c, 9, 51, 64
14, 44930, Note_off_c, 9, 37, 64
14, 44930, Note_off_c, 9, 42, 64
14, 45054, Note_on_c, 9, 38, 40
14, 45054, Note_on_c, 9, 51, 50
14, 45104, Note_off_c, 9, 51, 64
14, 45104, Note_off_c, 9, 38, 64
14, 45120, Note_on_c, 9, 51, 80
14, 45170, Note_off_c, 9, 51, 64
14, 45360, Note_on_c, 9, 42, 70
14, 45360, Note_on_c, 9, 37, 70
14, 45360, Note_on_c, 9, 51, 90
14, 45410, Note_off_c, 9, 51, 64
14, 45410, Note_off_c, 9, 37, 64
14, 45410, Note_off_c, 9, 42, 64
14, 45534, Note_on_c, 9, 51, 70
14, 45584, Note_off_c, 9, 51, 64
14, 45600, Note_on_c, 9, 51, 90
14, 45650, Note_off_c, 9, 51, 64
14, 45840, Note_on_c, 9, 42, 100
14, 45840, Note_on_c, 9, 51, 90
14, 45890, Note_off_c, 9, 51, 64
14, 45890, Note_off_c, 9, 42, 64
14, 46014, Note_on_c, 9, 51, 70
14, 46064, Note_off_c, 9, 51, 64
14, 46080, Note_on_c, 9, 51, 80
14, 46130, Note_off_c, 9, 51, 64
14, 46320, Note_on_c, 9, 42, 80
14, 46320, Note_on_c, 9, 37, 70
14, 46320, Note_on_c, 9, 51, 90
14, 46370, Note_off_c, 9, 51, 64
14, 46370, Note_off_c, 9, 37, 64
14, 46370, Note_off_c, 9, 42, 64
14, 46496, Note_on_c, 9, 51, 70
14, 46546, Note_off_c, 9, 51, 64
14, 46560, Note_on_c, 9, 38, 40
14, 46560, Note_on_c, 9, 51, 80
14, 46610, Note_off_c, 9, 51, 64
14, 46610, Note_off_c, 9, 38, 64
14, 46800, Note_on_c, 9, 42, 100
14, 46800, Note_on_c, 9, 37, 70
14, 46800, Note_on_c, 9, 51, 90
14, 46850, Note_off_c, 9, 51, 64
14, 46850, Note_off_c, 9, 37, 64
14, 46850, Note_off_c, 9, 42, 64
14, 46976, Note_on_c, 9, 51, 70
14, 47026, Note_off_c, 9, 51, 64
14, 47040, Note_on_c, 9, 35, 90
14, 47090, Note_off_c, 9, 35, 64
14, 47212, Note_on_c, 9, 38, 70
14, 47262, Note_off_c, 9, 38, 64
14, 47280, Note_on_c, 9, 42, 80
14, 47280, Note_on_c, 9, 51, 90
14, 47330, Note_off_c, 9, 51, 64
14, 47330, Note_off_c, 9, 42, 64
14, 47452, Note_on_c, 9, 38, 60
14, 47452, Note_on_c, 9, 51, 80
14, 47502, Note_off_c, 9, 51, 64
14, 47502, Note_off_c, 9, 38, 64
14, 47520, Note_on_c, 9, 38, 80
14, 47520, Note_on_c, 9, 51, 80
14, 47570, Note_off_c, 9, 51, 64
14, 47570, Note_off_c, 9, 38, 64
14, 47692, Note_on_c, 9, 35, 80
14, 47692, Note_on_c, 9, 38, 50
14, 47742, Note_off_c, 9, 38, 64
14, 47742, Note_off_c, 9, 35, 64
14, 47760, Note_on_c, 9, 42, 100
14, 47760, Note_on_c, 9, 51, 90
14, 47810, Note_off_c, 9, 51, 64
14, 47810, Note_off_c, 9, 42, 64
14, 47840, Note_on_c, 9, 38, 40
14, 47890, Note_off_c, 9, 38, 64
14, 47932, Note_on_c, 9, 38, 60
14, 47932, Note_on_c, 9, 51, 80
14, 47982, Note_off_c, 9, 51, 64
14, 47982, Note_off_c, 9, 38, 64
14, 48000, Note_on_c, 9, 51, 70
14, 48050, Note_off_c, 9, 51, 64
14, 48240, Note_on_c, 9, 42, 100
14, 48240, Note_on_c, 9, 37, 70
14, 48240, Note_on_c, 9, 51, 90
14, 48290, Note_off_c, 9, 51, 64
14, 48290, Note_off_c, 9, 37, 64
14, 48290, Note_off_c, 9, 42, 64
14, 48414, Note_on_c, 9, 38, 40
14, 48414, Note_on_c, 9, 51, 50
14, 48464, Note_off_c, 9, 51, 64
14, 48464, Note_off_c, 9, 38, 64
14, 48480, Note_on_c, 9, 51, 80
14, 48530, Note_off_c, 9, 51, 64
14, 48720, Note_on_c, 9, 42, 100
14, 48720, Note_on_c, 9, 37, 70
14, 48720, Note_on_c, 9, 51, 90
14, 48770, Note_off_c, 9, 51, 64
14, 48770, Note_off_c, 9, 37, 64
14, 48770, Note_off_c, 9, 42, 64
14, 48894, Note_on_c, 9, 38, 40
14, 48894, Note_on_c, 9, 51, 50
14, 48944, Note_off_c, 9, 51, 64
14, 48944, Note_off_c, 9, 38, 64
14, 48960, Note_on_c, 9, 51, 80
14, 49010, Note_off_c, 9, 51, 64
14, 49200, Note_on_c, 9, 42, 70
14, 49200, Note_on_c, 9, 37, 70
14, 49200, Note_on_c, 9, 51, 90
14, 49250, Note_off_c, 9, 51, 64
14, 49250, Note_off_c, 9, 37, 64
14, 49250, Note_off_c, 9, 42, 64
14, 49374, Note_on_c, 9, 51, 70
14, 49424, Note_off_c, 9, 51, 64
14, 49440, Note_on_c, 9, 51, 90
14, 49490, Note_off_c, 9, 51, 64
14, 49680, Note_on_c, 9, 42, 100
14, 49680, Note_on_c, 9, 51, 90
14, 49730, Note_off_c, 9, 51, 64
14, 49730, Note_off_c, 9, 42, 64
14, 49854, Note_on_c, 9, 51, 70
14, 49904, Note_off_c, 9, 51, 64
14, 49920, Note_on_c, 9, 51, 80
14, 49970, Note_off_c, 9, 51, 64
14, 50160, Note_on_c, 9, 42, 80
14, 50160, Note_on_c, 9, 37, 70
14, 50160, Note_on_c, 9, 51, 90
14, 50210, Note_off_c, 9, 51, 64
14, 50210, Note_off_c, 9, 37, 64
14, 50210, Note_off_c, 9, 42, 64
14, 50336, Note_on_c, 9, 51, 70
14, 50386, Note_off_c, 9, 51, 64
14, 50400, Note_on_c, 9, 38, 40
14, 50400, Note_on_c, 9, 51, 80
14, 50450, Note_off_c, 9, 51, 64
14, 50450, Note_off_c, 9, 38, 64
14, 50640, Note_on_c, 9, 42, 100
14, 50640, Note_on_c, 9, 37, 70
14, 50640, Note_on_c, 9, 51, 90
14, 50690, Note_off_c, 9, 51, 64
14, 50690, Note_off_c, 9, 37, 64
14, 50690, Note_off_c, 9, 42, 64
14, 50816, Note_on_c, 9, 51, 70
14, 50866, Note_off_c, 9, 51, 64
14, 50880, Note_on_c, 9, 51, 70
14, 50930, Note_off_c, 9, 51, 64
14, 51120, Note_on_c, 9, 42, 80
14, 51120, Note_on_c, 9, 37, 70
14, 51120, Note_on_c, 9, 51, 90
14, 51170, Note_off_c, 9, 51, 64
14, 51170, Note_off_c, 9, 37, 64
14, 51170, Note_off_c, 9, 42, 64
14, 51294, Note_on_c, 9, 51, 70
14, 51344, Note_off_c, 9, 51, 64
14, 51360, Note_on_c, 9, 51, 80
14, 51410, Note_off_c, 9, 51, 64
14, 51600, Note_on_c, 9, 42, 100
14, 51600, Note_on_c, 9, 37, 80
14, 51600, Note_on_c, 9, 51, 90
14, 51650, Note_off_c, 9, 51, 64
14, 51650, Note_off_c, 9, 37, 64
14, 51650, Note_off_c, 9, 42, 64
14, 51774, Note_on_c, 9, 51, 70
14, 51824, Note_off_c, 9, 51, 64
14, 51840, Note_on_c, 9, 51, 70
14, 51890, Note_off_c, 9, 51, 64
14, 52080, Note_on_c, 9, 42, 100
14, 52080, Note_on_c, 9, 37, 70
14, 52080, Note_on_c, 9, 51, 90
14, 52130, Note_off_c, 9, 51, 64
14, 52130, Note_off_c, 9, 37, 64
14, 52130, Note_off_c, 9, 42, 64
14, 52254, Note_on_c, 9, 38, 40
14, 52254, Note_on_c, 9, 51, 50
14, 52304, Note_off_c, 9, 51, 64
14, 52304, Note_off_c, 9, 38, 64
14, 52320, Note_on_c, 9, 51, 80
14, 52370, Note_off_c, 9, 51, 64
14, 52560, Note_on_c, 9, 42, 100
14, 52560, Note_on_c, 9, 37, 70
14, 52560, Note_on_c, 9, 51, 90
14, 52610, Note_off_c, 9, 51, 64
14, 52610, Note_off_c, 9, 37, 64
14, 52610, Note_off_c, 9, 42, 64
14, 52734, Note_on_c, 9, 38, 40
14, 52734, Note_on_c, 9, 51, 50
14, 52784, Note_off_c, 9, 51, 64
14, 52784, Note_off_c, 9, 38, 64
14, 52800, Note_on_c, 9, 51, 80
14, 52850, Note_off_c, 9, 51, 64
14, 53040, Note_on_c, 9, 42, 80
14, 53040, Note_on_c, 9, 37, 70
14, 53040, Note_on_c, 9, 51, 90
14, 53090, Note_off_c, 9, 51, 64
14, 53090, Note_off_c, 9, 37, 64
14, 53090, Note_off_c, 9, 42, 64
14, 53216, Note_on_c, 9, 51, 70
14, 53266, Note_off_c, 9, 51, 64
14, 53280, Note_on_c, 9, 38, 40
14, 53280, Note_on_c, 9, 51, 80
14, 53330, Note_off_c, 9, 51, 64
14, 53330, Note_off_c, 9, 38, 64
14, 53456, Note_on_c, 9, 38, 40
14, 53506, Note_off_c, 9, 38, 64
14, 53520, Note_on_c, 9, 42, 100
14, 53520, Note_on_c, 9, 37, 70
14, 53520, Note_on_c, 9, 51, 90
14, 53570, Note_off_c, 9, 51, 64
14, 53570, Note_off_c, 9, 37, 64
14, 53570, Note_off_c, 9, 42, 64
14, 53696, Note_on_c, 9, 51, 70
14, 53746, Note_off_c, 9, 51, 64
14, 53760, Note_on_c, 9, 51, 70
14, 53810, Note_off_c, 9, 51, 64
14, 54000, Note_on_c, 9, 42, 90
14, 54000, Note_on_c, 9, 37, 60
14, 54000, Note_on_c, 9, 51, 90
14, 54050, Note_off_c, 9, 51, 64
14, 54050, Note_off_c, 9, 37, 64
14, 54050, Note_off_c, 9, 42, 64
14, 54176, Note_on_c, 9, 38, 40
14, 54176, Note_on_c, 9, 51, 70
14, 54226, Note_off_c, 9, 51, 64
14, 54226, Note_off_c, 9, 38, 64
14, 54240, Note_on_c, 9, 51, 80
14, 54290, Note_off_c, 9, 51, 64
14, 54480, Note_on_c, 9, 42, 100
14, 54480, Note_on_c, 9, 37, 70
14, 54480, Note_on_c, 9, 51, 90
14, 54530, Note_off_c, 9, 51, 64
14, 54530, Note_off_c, 9, 37, 64
14, 54530, Note_off_c, 9, 42, 64
14, 54656, Note_on_c, 9, 51, 70
14, 54706, Note_off_c, 9, 51, 64
14, 54720, Note_on_c, 9, 51, 80
14, 54770, Note_off_c, 9, 51, 64
14, 54960, Note_on_c, 9, 42, 70
14, 54960, Note_on_c, 9, 37, 70
14, 54960, Note_on_c, 9, 51, 90
14, 55010, Note_off_c, 9, 51, 64
14, 55010, Note_off_c, 9, 37, 64
14, 55010, Note_off_c, 9, 42, 64
14, 55134, Note_on_c, 9, 51, 70
14, 55184, Note_off_c, 9, 51, 64
14, 55200, Note_on_c, 9, 51, 90
14, 55250, Note_off_c, 9, 51, 64
14, 55440, Note_on_c, 9, 42, 100
14, 55440, Note_on_c, 9, 51, 90
14, 55490, Note_off_c, 9, 51, 64
14, 55490, Note_off_c, 9, 42, 64
14, 55614, Note_on_c, 9, 51, 70
14, 55664, Note_off_c, 9, 51, 64
14, 55680, Note_on_c, 9, 51, 70
14, 55730, Note_off_c, 9, 51, 64
14, 55920, Note_on_c, 9, 42, 100
14, 55920, Note_on_c, 9, 37, 70
14, 55920, Note_on_c, 9, 51, 90
14, 55970, Note_off_c, 9, 51, 64
14, 55970, Note_off_c, 9, 37, 64
14, 55970, Note_off_c, 9, 42, 64
14, 56094, Note_on_c, 9, 38, 40
14, 56094, Note_on_c, 9, 51, 50
14, 56144, Note_off_c, 9, 51, 64
14, 56144, Note_off_c, 9, 38, 64
14, 56160, Note_on_c, 9, 51, 80
14, 56210, Note_off_c, 9, 51, 64
14, 56400, Note_on_c, 9, 42, 100
14, 56400, Note_on_c, 9, 37, 70
14, 56400, Note_on_c, 9, 51, 90
14, 56450, Note_off_c, 9, 51, 64
14, 56450, Note_off_c, 9, 37, 64
14, 56450, Note_off_c, 9, 42, 64
14, 56574, Note_on_c, 9, 38, 40
14, 56574, Note_on_c, 9, 51, 50
14, 56624, Note_off_c, 9, 51, 64
14, 56624, Note_off_c, 9, 38, 64
14, 56640, Note_on_c, 9, 51, 80
14, 56690, Note_off_c, 9, 51, 64
14, 56880, Note_on_c, 9, 42, 70
14, 56880, Note_on_c, 9, 37, 70
14, 56880, Note_on_c, 9, 51, 90
14, 56930, Note_off_c, 9, 51, 64
14, 56930, Note_off_c, 9, 37, 64
14, 56930, Note_off_c, 9, 42, 64
14, 57054, Note_on_c, 9, 51, 70
14, 57104, Note_off_c, 9, 51, 64
14, 57120, Note_on_c, 9, 51, 90
14, 57170, Note_off_c, 9, 51, 64
14, 57360, Note_on_c, 9, 42, 100
14, 57360, Note_on_c, 9, 51, 90
14, 57410, Note_off_c, 9, 51, 64
14, 57410, Note_off_c, 9, 42, 64
14, 57534, Note_on_c, 9, 51, 70
14, 57584, Note_off_c, 9, 51, 64
14, 57600, Note_on_c, 9, 51, 80
14, 57650, Note_off_c, 9, 51, 64
14, 57840, Note_on_c, 9, 42, 80
14, 57840, Note_on_c, 9, 37, 70
14, 57840, Note_on_c, 9, 51, 90
14, 57890, Note_off_c, 9, 51, 64
14, 57890, Note_off_c, 9, 37, 64
14, 57890, Note_off_c, 9, 42, 64
14, 58016, Note_on_c, 9, 38, 30
14, 58016, Note_on_c, 9, 51, 70
14, 58066, Note_off_c, 9, 51, 64
14, 58066, Note_off_c, 9, 38, 64
14, 58080, Note_on_c, 9, 38, 40
14, 58080, Note_on_c, 9, 51, 80
14, 58130, Note_off_c, 9, 51, 64
14, 58130, Note_off_c, 9, 38, 64
14, 58320, Note_on_c, 9, 42, 100
14, 58320, Note_on_c, 9, 37, 70
14, 58320, Note_on_c, 9, 51, 90
14, 58370, Note_off_c, 9, 51, 64
14, 58370, Note_off_c, 9, 37, 64
14, 58370, Note_off_c, 9, 42, 64
14, 58496, Note_on_c, 9, 51, 70
14, 58546, Note_off_c, 9, 51, 64
14, 58560, Note_on_c, 9, 51, 80
14, 58610, Note_off_c, 9, 51, 64
14, 58736, Note_on_c, 9, 38, 30
14, 58786, Note_off_c, 9, 38, 64
14, 58800, Note_on_c, 9, 42, 80
14, 58800, Note_on_c, 9, 37, 70
14, 58800, Note_on_c, 9, 51, 90
14, 58850, Note_off_c, 9, 51, 64
14, 58850, Note_off_c, 9, 37, 64
14, 58850, Note_off_c, 9, 42, 64
14, 58976, Note_on_c, 9, 38, 40
14, 58976, Note_on_c, 9, 51, 70
14, 59026, Note_off_c, 9, 51, 64
14, 59026, Note_off_c, 9, 38, 64
14, 59040, Note_on_c, 9, 51, 80
14, 59090, Note_off_c, 9, 51, 64
14, 59280, Note_on_c, 9, 42, 100
14, 59280, Note_on_c, 9, 37, 70
14, 59280, Note_on_c, 9, 51, 90
14, 59330, Note_off_c, 9, 51, 64
14, 59330, Note_off_c, 9, 37, 64
14, 59330, Note_off_c, 9, 42, 64
14, 59456, Note_on_c, 9, 38, 40
14, 59456, Note_on_c, 9, 51, 70
14, 59506, Note_off_c, 9, 51, 64
14, 59506, Note_off_c, 9, 38, 64
14, 59520, Note_on_c, 9, 51, 80
14, 59570, Note_off_c, 9, 51, 64
14, 59760, Note_on_c, 9, 42, 80
14, 59760, Note_on_c, 9, 37, 70
14, 59760, Note_on_c, 9, 51, 90
14, 59810, Note_off_c, 9, 51, 64
14, 59810, Note_off_c, 9, 37, 64
14, 59810, Note_off_c, 9, 42, 64
14, 59936, Note_on_c, 9, 38, 30
14, 59936, Note_on_c, 9, 51, 70
14, 59986, Note_off_c, 9, 51, 64
14, 59986, Note_off_c, 9, 38, 64
14, 60000, Note_on_c, 9, 38, 40
14, 60000, Note_on_c, 9, 51, 80
14, 60050, Note_off_c, 9, 51, 64
14, 60050, Note_off_c, 9, 38, 64
14, 60240, Note_on_c, 9, 42, 100
14, 60240, Note_on_c, 9, 37, 70
14, 60240, Note_on_c, 9, 51, 90
14, 60290, Note_off_c, 9, 51, 64
14, 60290, Note_off_c, 9, 37, 64
14, 60290, Note_off_c, 9, 42, 64
14, 60416, Note_on_c, 9, 51, 70
14, 60466, Note_off_c, 9, 51, 64
14, 60480, Note_on_c, 9, 51, 80
14, 60530, Note_off_c, 9, 51, 64
14, 60720, Note_on_c, 9, 42, 80
14, 60720, Note_on_c, 9, 37, 70
14, 60720, Note_on_c, 9, 51, 90
14, 60770, Note_off_c, 9, 51, 64
14, 60770, Note_off_c, 9, 37, 64
14, 60770, Note_off_c, 9, 42, 64
14, 60896, Note_on_c, 9, 38, 30
14, 60896, Note_on_c, 9, 51, 70
14, 60946, Note_off_c, 9, 51, 64
14, 60946, Note_off_c, 9, 38, 64
14, 60960, Note_on_c, 9, 38, 40
14, 60960, Note_on_c, 9, 51, 80
14, 61010, Note_off_c, 9, 51, 64
14, 61010, Note_off_c, 9, 38, 64
14, 61136, Note_on_c, 9, 38, 40
14, 61186, Note_off_c, 9, 38, 64
14, 61200, Note_on_c, 9, 42, 100
14, 61200, Note_on_c, 9, 37, 70
14, 61200, Note_on_c, 9, 51, 90
14, 61250, Note_off_c, 9, 51, 64
14, 61250, Note_off_c, 9, 37, 64
14, 61250, Note_off_c, 9, 42, 64
14, 61376, Note_on_c, 9, 51, 70
14, 61426, Note_off_c, 9, 51, 64
14, 61440, Note_on_c, 9, 51, 80
14, 61490, Note_off_c, 9, 51, 64
14, 61680, Note_on_c, 9, 42, 80
14, 61680, Note_on_c, 9, 37, 70
14, 61680, Note_on_c, 9, 51, 90
14, 61730, Note_off_c, 9, 51, 64
14, 61730, Note_off_c, 9, 37, 64
14, 61730, Note_off_c, 9, 42, 64
14, 61856, Note_on_c, 9, 38, 30
14, 61856, Note_on_c, 9, 51, 70
14, 61906, Note_off_c, 9, 51, 64
14, 61906, Note_off_c, 9, 38, 64
14, 61920, Note_on_c, 9, 38, 40
14, 61920, Note_on_c, 9, 51, 80
14, 61970, Note_off_c, 9, 51, 64
14, 61970, Note_off_c, 9, 38, 64
14, 62160, Note_on_c, 9, 42, 100
14, 62160, Note_on_c, 9, 37, 70
14, 62160, Note_on_c, 9, 51, 90
14, 62210, Note_off_c, 9, 51, 64
14, 62210, Note_off_c, 9, 37, 64
14, 62210, Note_off_c, 9, 42, 64
14, 62336, Note_on_c, 9, 51, 70
14, 62386, Note_off_c, 9, 51, 64
14, 62400, Note_on_c, 9, 35, 70
14, 62400, Note_on_c, 9, 51, 70
14, 62450, Note_off_c, 9, 51, 64
14, 62450, Note_off_c, 9, 35, 64
14, 62576, Note_on_c, 9, 38, 60
14, 62626, Note_off_c, 9, 38, 64
14, 62640, Note_on_c, 9, 42, 90
14, 62640, Note_on_c, 9, 37, 60
14, 62640, Note_on_c, 9, 51, 90
14, 62690, Note_off_c, 9, 51, 64
14, 62690, Note_off_c, 9, 37, 64
14, 62690, Note_off_c, 9, 42, 64
14, 62816, Note_on_c, 9, 38, 50
14, 62816, Note_on_c, 9, 51, 70
14, 62866, Note_off_c, 9, 51, 64
14, 62866, Note_off_c, 9, 38, 64
14, 62880, Note_on_c, 9, 51, 80
14, 62930, Note_off_c, 9, 51, 64
14, 63056, Note_on_c, 9, 38, 60
14, 63056, Note_on_c, 9, 46, 40
14, 63106, Note_off_c, 9, 46, 64
14, 63106, Note_off_c, 9, 38, 64
14, 63120, Note_on_c, 9, 42, 100
14, 63120, Note_on_c, 9, 37, 100
14, 63120, Note_on_c, 9, 51, 90
14, 63170, Note_off_c, 9, 51, 64
14, 63170, Note_off_c, 9, 37, 64
14, 63170, Note_off_c, 9, 42, 64
14, 63296, Note_on_c, 9, 38, 70
14, 63296, Note_on_c, 9, 51, 70
14, 63346, Note_off_c, 9, 51, 64
14, 63346, Note_off_c, 9, 38, 64
14, 63360, Note_on_c, 9, 35, 60
14, 63360, Note_on_c, 9, 42, 70
14, 63410, Note_off_c, 9, 42, 64
14, 63410, Note_off_c, 9, 35, 64
14, 63600, Note_on_c, 9, 42, 80
14, 63600, Note_on_c, 9, 37, 70
14, 63650, Note_off_c, 9, 37, 64
14, 63650, Note_off_c, 9, 42, 64
14, 63776, Note_on_c, 9, 42, 40
14, 63826, Note_off_c, 9, 42, 64
14, 63840, Note_on_c, 9, 35, 60
14, 63840, Note_on_c, 9, 42, 80
14, 63890, Note_off_c, 9, 42, 64
14, 63890, Note_off_c, 9, 35, 64
14, 64080, Note_on_c, 9, 42, 80
14, 64080, Note_on_c, 9, 37, 80
14, 64130, Note_off_c, 9, 37, 64
14, 64130, Note_off_c, 9, 42, 64
14, 64256, Note_on_c, 9, 42, 50
14, 64306, Note_off_c, 9, 42, 64
14, 64320, Note_on_c, 9, 42, 70
14, 64370, Note_off_c, 9, 42, 64
14, 64560, Note_on_c, 9, 42, 70
14, 64560, Note_on_c, 9, 37, 80
14, 64610, Note_off_c, 9, 37, 64
14, 64610, Note_off_c, 9, 42, 64
14, 64732, Note_on_c, 9, 42, 40
14, 64782, Note_off_c, 9, 42, 64
14, 64800, Note_on_c, 9, 35, 60
14, 64800, Note_on_c, 9, 42, 80
14, 64850, Note_off_c, 9, 42, 64
14, 64850, Note_off_c, 9, 35, 64
14, 65040, Note_on_c, 9, 35, 60
14, 65040, Note_on_c, 9, 42, 80
14, 65090, Note_off_c, 9, 42, 64
14, 65090, Note_off_c, 9, 35, 64
14, 65212, Note_on_c, 9, 42, 50
14, 65262, Note_off_c, 9, 42, 64
14, 65280, Note_on_c, 9, 35, 60
14, 65280, Note_on_c, 9, 42, 80
14, 65330, Note_off_c, 9, 42, 64
14, 65330, Note_off_c, 9, 35, 64
14, 65520, Note_on_c, 9, 42, 90
14, 65520, Note_on_c, 9, 37, 70
14, 65570, Note_off_c, 9, 37, 64
14, 65570, Note_off_c, 9, 42, 64
14, 65694, Note_on_c, 9, 42, 40
14, 65744, Note_off_c, 9, 42, 64
14, 65760, Note_on_c, 9, 35, 60
14, 65760, Note_on_c, 9, 42, 80
14, 65810, Note_off_c, 9, 42, 64
14, 65810, Note_off_c, 9, 35, 64
14, 66000, Note_on_c, 9, 42, 90
14, 66000, Note_on_c, 9, 37, 85
14, 66050, Note_off_c, 9, 37, 64
14, 66050, Note_off_c, 9, 42, 64
14, 66174, Note_on_c, 9, 42, 50
14, 66224, Note_off_c, 9, 42, 64
14, 66240, Note_on_c, 9, 35, 60
14, 66240, Note_on_c, 9, 42, 80
14, 66290, Note_off_c, 9, 42, 64
14, 66290, Note_off_c, 9, 35, 64
14, 66480, Note_on_c, 9, 42, 90
14, 66480, Note_on_c, 9, 37, 70
14, 66530, Note_off_c, 9, 37, 64
14, 66530, Note_off_c, 9, 42, 64
14, 66656, Note_on_c, 9, 42, 40
14, 66706, Note_off_c, 9, 42, 64
14, 66720, Note_on_c, 9, 35, 60
14, 66720, Note_on_c, 9, 42, 80
14, 66770, Note_off_c, 9, 42, 64
14, 66770, Note_off_c, 9, 35, 64
14, 66960, Note_on_c, 9, 42, 90
14, 66960, Note_on_c, 9, 37, 83
14, 67010, Note_off_c, 9, 37, 64
14, 67010, Note_off_c, 9, 42, 64
14, 67136, Note_on_c, 9, 42, 50
14, 67186, Note_off_c, 9, 42, 64
14, 67200, Note_on_c, 9, 35, 60
14, 67200, Note_on_c, 9, 46, 54
14, 67250, Note_off_c, 9, 46, 64
14, 67250, Note_off_c, 9, 35, 64
14, 67440, Note_on_c, 9, 42, 70
14, 67440, Note_on_c, 9, 37, 80
14, 67490, Note_off_c, 9, 37, 64
14, 67490, Note_off_c, 9, 42, 64
14, 67612, Note_on_c, 9, 42, 40
14, 67662, Note_off_c, 9, 42, 64
14, 67680, Note_on_c, 9, 35, 60
14, 67680, Note_on_c, 9, 42, 80
14, 67730, Note_off_c, 9, 42, 64
14, 67730, Note_off_c, 9, 35, 64
14, 67920, Note_on_c, 9, 35, 60
14, 67920, Note_on_c, 9, 42, 80
14, 67970, Note_off_c, 9, 42, 64
14, 67970, Note_off_c, 9, 35, 64
14, 68092, Note_on_c, 9, 42, 50
14, 68142, Note_off_c, 9, 42, 64
14, 68160, Note_on_c, 9, 35, 60
14, 68160, Note_on_c, 9, 42, 80
14, 68210, Note_off_c, 9, 42, 64
14, 68210, Note_off_c, 9, 35, 64
14, 68400, Note_on_c, 9, 42, 90
14, 68400, Note_on_c, 9, 37, 70
14, 68450, Note_off_c, 9, 37, 64
14, 68450, Note_off_c, 9, 42, 64
14, 68574, Note_on_c, 9, 42, 40
14, 68624, Note_off_c, 9, 42, 64
14, 68640, Note_on_c, 9, 35, 60
14, 68640, Note_on_c, 9, 42, 80
14, 68690, Note_off_c, 9, 42, 64
14, 68690, Note_off_c, 9, 35, 64
14, 68880, Note_on_c, 9, 42, 90
14, 68880, Note_on_c, 9, 37, 85
14, 68930, Note_off_c, 9, 37, 64
14, 68930, Note_off_c, 9, 42, 64
14, 69054, Note_on_c, 9, 42, 50
14, 69104, Note_off_c, 9, 42, 64
14, 69120, Note_on_c, 9, 35, 60
14, 69120, Note_on_c, 9, 46, 54
14, 69170, Note_off_c, 9, 46, 64
14, 69170, Note_off_c, 9, 35, 64
14, 69360, Note_on_c, 9, 42, 70
14, 69360, Note_on_c, 9, 37, 80
14, 69410, Note_off_c, 9, 37, 64
14, 69410, Note_off_c, 9, 42, 64
14, 69532, Note_on_c, 9, 42, 40
14, 69582, Note_off_c, 9, 42, 64
14, 69600, Note_on_c, 9, 35, 60
14, 69600, Note_on_c, 9, 42, 80
14, 69650, Note_off_c, 9, 42, 64
14, 69650, Note_off_c, 9, 35, 64
14, 69840, Note_on_c, 9, 35, 60
14, 69840, Note_on_c, 9, 42, 80
14, 69890, Note_off_c, 9, 42, 64
14, 69890, Note_off_c, 9, 35, 64
14, 70012, Note_on_c, 9, 42, 50
14, 70062, Note_off_c, 9, 42, 64
14, 70080, Note_on_c, 9, 35, 60
14, 70080, Note_on_c, 9, 42, 80
14, 70130, Note_off_c, 9, 42, 64
14, 70130, Note_off_c, 9, 35, 64
14, 70320, Note_on_c, 9, 42, 90
14, 70320, Note_on_c, 9, 37, 70
14, 70370, Note_off_c, 9, 37, 64
14, 70370, Note_off_c, 9, 42, 64
14, 70494, Note_on_c, 9, 42, 40
14, 70544, Note_off_c, 9, 42, 64
14, 70560, Note_on_c, 9, 35, 60
14, 70560, Note_on_c, 9, 42, 80
14, 70610, Note_off_c, 9, 42, 64
14, 70610, Note_off_c, 9, 35, 64
14, 70734, Note_on_c, 9, 37, 90
14, 70784, Note_off_c, 9, 37, 64
14, 70800, Note_on_c, 9, 42, 90
14, 70850, Note_off_c, 9, 42, 64
14, 70974, Note_on_c, 9, 42, 50
14, 71024, Note_off_c, 9, 42, 64
14, 71040, Note_on_c, 9, 35, 60
14, 71040, Note_on_c, 9, 42, 70
14, 71090, Note_off_c, 9, 42, 64
14, 71090, Note_off_c, 9, 35, 64
14, 71280, Note_on_c, 9, 42, 80
14, 71280, Note_on_c, 9, 37, 70
14, 71330, Note_off_c, 9, 37, 64
14, 71330, Note_off_c, 9, 42, 64
14, 71456, Note_on_c, 9, 42, 40
14, 71506, Note_off_c, 9, 42, 64
14, 71520, Note_on_c, 9, 35, 60
14, 71520, Note_on_c, 9, 42, 80
14, 71570, Note_off_c, 9, 42, 64
14, 71570, Note_off_c, 9, 35, 64
14, 71760, Note_on_c, 9, 42, 80
14, 71760, Note_on_c, 9, 37, 80
14, 71810, Note_off_c, 9, 37, 64
14, 71810, Note_off_c, 9, 42, 64
14, 71936, Note_on_c, 9, 35, 50
14, 71936, Note_on_c, 9, 42, 50
14, 71986, Note_off_c, 9, 42, 64
14, 71986, Note_off_c, 9, 35, 64
14, 72000, Note_on_c, 9, 35, 60
14, 72000, Note_on_c, 9, 42, 70
14, 72050, Note_off_c, 9, 42, 64
14, 72050, Note_off_c, 9, 35, 64
14, 72240, Note_on_c, 9, 42, 80
14, 72240, Note_on_c, 9, 37, 70
14, 72290, Note_off_c, 9, 37, 64
14, 72290, Note_off_c, 9, 42, 64
14, 72416, Note_on_c, 9, 42, 40
14, 72466, Note_off_c, 9, 42, 64
14, 72480, Note_on_c, 9, 35, 60
14, 72480, Note_on_c, 9, 42, 80
14, 72530, Note_off_c, 9, 42, 64
14, 72530, Note_off_c, 9, 35, 64
14, 72720, Note_on_c, 9, 42, 80
14, 72720, Note_on_c, 9, 37, 80
14, 72770, Note_off_c, 9, 37, 64
14, 72770, Note_off_c, 9, 42, 64
14, 72896, Note_on_c, 9, 42, 50
14, 72946, Note_off_c, 9, 42, 64
14, 72960, Note_on_c, 9, 35, 60
14, 72960, Note_on_c, 9, 42, 80
14, 73010, Note_off_c, 9, 42, 64
14, 73010, Note_off_c, 9, 35, 64
14, 73200, Note_on_c, 9, 42, 90
14, 73200, Note_on_c, 9, 37, 70
14, 73250, Note_off_c, 9, 37, 64
14, 73250, Note_off_c, 9, 42, 64
14, 73374, Note_on_c, 9, 42, 40
14, 73424, Note_off_c, 9, 42, 64
14, 73440, Note_on_c, 9, 35, 60
14, 73440, Note_on_c, 9, 42, 80
14, 73490, Note_off_c, 9, 42, 64
14, 73490, Note_off_c, 9, 35, 64
14, 73680, Note_on_c, 9, 42, 90
14, 73680, Note_on_c, 9, 37, 85
14, 73730, Note_off_c, 9, 37, 64
14, 73730, Note_off_c, 9, 42, 64
14, 73854, Note_on_c, 9, 42, 50
14, 73904, Note_off_c, 9, 42, 64
14, 73920, Note_on_c, 9, 35, 60
14, 73920, Note_on_c, 9, 42, 80
14, 73970, Note_off_c, 9, 42, 64
14, 73970, Note_off_c, 9, 35, 64
14, 74160, Note_on_c, 9, 42, 70
14, 74160, Note_on_c, 9, 37, 70
14, 74210, Note_off_c, 9, 37, 64
14, 74210, Note_off_c, 9, 42, 64
14, 74332, Note_on_c, 9, 42, 40
14, 74382, Note_off_c, 9, 42, 64
14, 74400, Note_on_c, 9, 35, 60
14, 74400, Note_on_c, 9, 42, 80
14, 74450, Note_off_c, 9, 42, 64
14, 74450, Note_off_c, 9, 35, 64
14, 74640, Note_on_c, 9, 42, 70
14, 74640, Note_on_c, 9, 37, 85
14, 74690, Note_off_c, 9, 37, 64
14, 74690, Note_off_c, 9, 42, 64
14, 74812, Note_on_c, 9, 42, 50
14, 74862, Note_off_c, 9, 42, 64
14, 74880, Note_on_c, 9, 35, 60
14, 74880, Note_on_c, 9, 42, 70
14, 74930, Note_off_c, 9, 42, 64
14, 74930, Note_off_c, 9, 35, 64
14, 75120, Note_on_c, 9, 42, 90
14, 75120, Note_on_c, 9, 37, 70
14, 75170, Note_off_c, 9, 37, 64
14, 75170, Note_off_c, 9, 42, 64
14, 75296, Note_on_c, 9, 42, 40
14, 75346, Note_off_c, 9, 42, 64
14, 75360, Note_on_c, 9, 35, 60
14, 75360, Note_on_c, 9, 42, 80
14, 75410, Note_off_c, 9, 42, 64
14, 75410, Note_off_c, 9, 35, 64
14, 75600, Note_on_c, 9, 42, 90
14, 75600, Note_on_c, 9, 37, 80
14, 75650, Note_off_c, 9, 37, 64
14, 75650, Note_off_c, 9, 42, 64
14, 75776, Note_on_c, 9, 42, 50
14, 75826, Note_off_c, 9, 42, 64
14, 75840, Note_on_c, 9, 35, 60
14, 75840, Note_on_c, 9, 42, 70
14, 75890, Note_off_c, 9, 42, 64
14, 75890, Note_off_c, 9, 35, 64
14, 76080, Note_on_c, 9, 42, 90
14, 76080, Note_on_c, 9, 37, 80
14, 76130, Note_off_c, 9, 37, 64
14, 76130, Note_off_c, 9, 42, 64
14, 76252, Note_on_c, 9, 42, 40
14, 76302, Note_off_c, 9, 42, 64
14, 76320, Note_on_c, 9, 35, 60
14, 76320, Note_on_c, 9, 42, 70
14, 76370, Note_off_c, 9, 42, 64
14, 76370, Note_off_c, 9, 35, 64
14, 76560, Note_on_c, 9, 42, 90
14, 76560, Note_on_c, 9, 37, 78
14, 76610, Note_off_c, 9, 37, 64
14, 76610, Note_off_c, 9, 42, 64
14, 76732, Note_on_c, 9, 42, 50
14, 76782, Note_off_c, 9, 42, 64
14, 76800, Note_on_c, 9, 35, 60
14, 76800, Note_on_c, 9, 42, 70
14, 76850, Note_off_c, 9, 42, 64
14, 76850, Note_off_c, 9, 35, 64
14, 77040, Note_on_c, 9, 42, 80
14, 77040, Note_on_c, 9, 37, 70
14, 77090, Note_off_c, 9, 37, 64
14, 77090, Note_off_c, 9, 42, 64
14, 77216, Note_on_c, 9, 42, 40
14, 77266, Note_off_c, 9, 42, 64
14, 77280, Note_on_c, 9, 35, 60
14, 77280, Note_on_c, 9, 42, 80
14, 77330, Note_off_c, 9, 42, 64
14, 77330, Note_off_c, 9, 35, 64
14, 77520, Note_on_c, 9, 42, 80
14, 77520, Note_on_c, 9, 37, 80
14, 77570, Note_off_c, 9, 37, 64
14, 77570, Note_off_c, 9, 42, 64
14, 77696, Note_on_c, 9, 42, 50
14, 77746, Note_off_c, 9, 42, 64
14, 77760, Note_on_c, 9, 35, 60
14, 77760, Note_on_c, 9, 42, 80
14, 77810, Note_off_c, 9, 42, 64
14, 77810, Note_off_c, 9, 35, 64
14, 77932, Note_on_c, 9, 38, 40
14, 77982, Note_off_c, 9, 38, 64
14, 78000, Note_on_c, 9, 42, 90
14, 78050, Note_off_c, 9, 42, 64
14, 78172, Note_on_c, 9, 38, 40
14, 78222, Note_off_c, 9, 38, 64
14, 78240, Note_on_c, 9, 35, 60
14, 78240, Note_on_c, 9, 42, 70
14, 78290, Note_off_c, 9, 42, 64
14, 78290, Note_off_c, 9, 35, 64
14, 78412, Note_on_c, 9, 38, 50
14, 78462, Note_off_c, 9, 38, 64
14, 78480, Note_on_c, 9, 35, 70
14, 78480, Note_on_c, 9, 42, 90
14, 78530, Note_off_c, 9, 42, 64
14, 78530, Note_off_c, 9, 35, 64
14, 78560, Note_on_c, 9, 38, 30
14, 78610, Note_off_c, 9, 38, 64
14, 78652, Note_on_c, 9, 38, 50
14, 78702, Note_off_c, 9, 38, 64
14, 78720, Note_on_c, 9, 51, 70
14, 78770, Note_off_c, 9, 51, 64
14, 78960, Note_on_c, 9, 42, 90
14, 78960, Note_on_c, 9, 37, 60
14, 78960, Note_on_c, 9, 51, 90
14, 79010, Note_off_c, 9, 51, 64
14, 79010, Note_off_c, 9, 37, 64
14, 79010, Note_off_c, 9, 42, 64
14, 79138, Note_on_c, 9, 38, 40
14, 79138, Note_on_c, 9, 51, 60
14, 79188, Note_off_c, 9, 51, 64
14, 79188, Note_off_c, 9, 38, 64
14, 79200, Note_on_c, 9, 51, 80
14, 79250, Note_off_c, 9, 51, 64
14, 79440, Note_on_c, 9, 42, 100
14, 79440, Note_on_c, 9, 37, 70
14, 79440, Note_on_c, 9, 51, 90
14, 79490, Note_off_c, 9, 51, 64
14, 79490, Note_off_c, 9, 37, 64
14, 79490, Note_off_c, 9, 42, 64
14, 79618, Note_on_c, 9, 51, 70
14, 79668, Note_off_c, 9, 51, 64
14, 79680, Note_on_c, 9, 51, 80
14, 79730, Note_off_c, 9, 51, 64
14, 79920, Note_on_c, 9, 42, 80
14, 79920, Note_on_c, 9, 37, 70
14, 79920, Note_on_c, 9, 51, 90
14, 79970, Note_off_c, 9, 51, 64
14, 79970, Note_off_c, 9, 37, 64
14, 79970, Note_off_c, 9, 42, 64
14, 80096, Note_on_c, 9, 38, 30
14, 80096, Note_on_c, 9, 51, 70
14, 80146, Note_off_c, 9, 51, 64
14, 80146, Note_off_c, 9, 38, 64
14, 80160, Note_on_c, 9, 38, 40
14, 80160, Note_on_c, 9, 51, 80
14, 80210, Note_off_c, 9, 51, 64
14, 80210, Note_off_c, 9, 38, 64
14, 80400, Note_on_c, 9, 42, 100
14, 80400, Note_on_c, 9, 37, 70
14, 80400, Note_on_c, 9, 51, 90
14, 80450, Note_off_c, 9, 51, 64
14, 80450, Note_off_c, 9, 37, 64
14, 80450, Note_off_c, 9, 42, 64
14, 80576, Note_on_c, 9, 51, 70
14, 80626, Note_off_c, 9, 51, 64
14, 80640, Note_on_c, 9, 51, 70
14, 80690, Note_off_c, 9, 51, 64
14, 80880, Note_on_c, 9, 42, 100
14, 80880, Note_on_c, 9, 37, 70
14, 80880, Note_on_c, 9, 51, 90
14, 80930, Note_off_c, 9, 51, 64
14, 80930, Note_off_c, 9, 37, 64
14, 80930, Note_off_c, 9, 42, 64
14, 81054, Note_on_c, 9, 38, 40
14, 81054, Note_on_c, 9, 51, 50
14, 81104, Note_off_c, 9, 51, 64
14, 81104, Note_off_c, 9, 38, 64
14, 81120, Note_on_c, 9, 51, 80
14, 81170, Note_off_c, 9, 51, 64
14, 81360, Note_on_c, 9, 42, 100
14, 81360, Note_on_c, 9, 37, 70
14, 81360, Note_on_c, 9, 51, 90
14, 81410, Note_off_c, 9, 51, 64
14, 81410, Note_off_c, 9, 37, 64
14, 81410, Note_off_c, 9, 42, 64
14, 81534, Note_on_c, 9, 38, 40
14, 81534, Note_on_c, 9, 51, 50
14, 81584, Note_off_c, 9, 51, 64
14, 81584, Note_off_c, 9, 38, 64
14, 81600, Note_on_c, 9, 51, 80
14, 81650, Note_off_c, 9, 51, 64
14, 81840, Note_on_c, 9, 42, 80
14, 81840, Note_on_c, 9, 37, 70
14, 81840, Note_on_c, 9, 51, 90
14, 81890, Note_off_c, 9, 51, 64
14, 81890, Note_off_c, 9, 37, 64
14, 81890, Note_off_c, 9, 42, 64
14, 82016, Note_on_c, 9, 38, 40
14, 82016, Note_on_c, 9, 51, 70
14, 82066, Note_off_c, 9, 51, 64
14, 82066, Note_off_c, 9, 38, 64
14, 82080, Note_on_c, 9, 51, 80
14, 82130, Note_off_c, 9, 51, 64
14, 82256, Note_on_c, 9, 38, 30
14, 82306, Note_off_c, 9, 38, 64
14, 82320, Note_on_c, 9, 42, 100
14, 82320, Note_on_c, 9, 37, 70
14, 82320, Note_on_c, 9, 51, 90
14, 82370, Note_off_c, 9, 51, 64
14, 82370, Note_off_c, 9, 37, 64
14, 82370, Note_off_c, 9, 42, 64
14, 82496, Note_on_c, 9, 38, 40
14, 82496, Note_on_c, 9, 51, 70
14, 82546, Note_off_c, 9, 51, 64
14, 82546, Note_off_c, 9, 38, 64
14, 82560, Note_on_c, 9, 51, 80
14, 82610, Note_off_c, 9, 51, 64
14, 82800, Note_on_c, 9, 42, 80
14, 82800, Note_on_c, 9, 37, 70
14, 82800, Note_on_c, 9, 51, 90
14, 82850, Note_off_c, 9, 51, 64
14, 82850, Note_off_c, 9, 37, 64
14, 82850, Note_off_c, 9, 42, 64
14, 82976, Note_on_c, 9, 51, 70
14, 83026, Note_off_c, 9, 51, 64
14, 83040, Note_on_c, 9, 38, 40
14, 83040, Note_on_c, 9, 51, 80
14, 83090, Note_off_c, 9, 51, 64
14, 83090, Note_off_c, 9, 38, 64
14, 83280, Note_on_c, 9, 42, 100
14, 83280, Note_on_c, 9, 37, 70
14, 83280, Note_on_c, 9, 51, 90
14, 83330, Note_off_c, 9, 51, 64
14, 83330, Note_off_c, 9, 37, 64
14, 83330, Note_off_c, 9, 42, 64
14, 83456, Note_on_c, 9, 51, 70
14, 83506, Note_off_c, 9, 51, 64
14, 83520, Note_on_c, 9, 51, 80
14, 83570, Note_off_c, 9, 51, 64
14, 83760, Note_on_c, 9, 42, 70
14, 83760, Note_on_c, 9, 37, 70
14, 83760, Note_on_c, 9, 51, 90
14, 83810, Note_off_c, 9, 51, 64
14, 83810, Note_off_c, 9, 37, 64
14, 83810, Note_off_c, 9, 42, 64
14, 83934, Note_on_c, 9, 51, 70
14, 83984, Note_off_c, 9, 51, 64
14, 84000, Note_on_c, 9, 51, 90
14, 84050, Note_off_c, 9, 51, 64
14, 84240, Note_on_c, 9, 42, 100
14, 84240, Note_on_c, 9, 51, 90
14, 84290, Note_off_c, 9, 51, 64
14, 84290, Note_off_c, 9, 42, 64
14, 84414, Note_on_c, 9, 51, 70
14, 84464, Note_off_c, 9, 51, 64
14, 84480, Note_on_c, 9, 51, 70
14, 84530, Note_off_c, 9, 51, 64
14, 84720, Note_on_c, 9, 42, 100
14, 84720, Note_on_c, 9, 37, 70
14, 84720, Note_on_c, 9, 51, 90
14, 84770, Note_off_c, 9, 51, 64
14, 84770, Note_off_c, 9, 37, 64
14, 84770, Note_off_c, 9, 42, 64
14, 84894, Note_on_c, 9, 38, 40
14, 84894, Note_on_c, 9, 51, 50
14, 84944, Note_off_c, 9, 51, 64
14, 84944, Note_off_c, 9, 38, 64
14, 84960, Note_on_c, 9, 51, 80
14, 85010, Note_off_c, 9, 51, 64
14, 85200, Note_on_c, 9, 42, 100
14, 85200, Note_on_c, 9, 37, 70
14, 85200, Note_on_c, 9, 51, 90
14, 85250, Note_off_c, 9, 51, 64
14, 85250, Note_off_c, 9, 37, 64
14, 85250, Note_off_c, 9, 42, 64
14, 85374, Note_on_c, 9, 38, 40
14, 85374, Note_on_c, 9, 51, 50
14, 85424, Note_off_c, 9, 51, 64
14, 85424, Note_off_c, 9, 38, 64
14, 85440, Note_on_c, 9, 51, 80
14, 85490, Note_off_c, 9, 51, 64
14, 85616, Note_on_c, 9, 38, 40
14, 85666, Note_off_c, 9, 38, 64
14, 85680, Note_on_c, 9, 42, 90
14, 85680, Note_on_c, 9, 37, 70
14, 85680, Note_on_c, 9, 51, 90
14, 85730, Note_off_c, 9, 51, 64
14, 85730, Note_off_c, 9, 37, 64
14, 85730, Note_off_c, 9, 42, 64
14, 85856, Note_on_c, 9, 51, 70
14, 85906, Note_off_c, 9, 51, 64
14, 85920, Note_on_c, 9, 51, 80
14, 85970, Note_off_c, 9, 51, 64
14, 86096, Note_on_c, 9, 51, 60
14, 86146, Note_off_c, 9, 51, 64
14, 86160, Note_on_c, 9, 42, 100
14, 86160, Note_on_c, 9, 51, 105
14, 86160, Note_on_c, 9, 45, 50
14, 86210, Note_off_c, 9, 45, 64
14, 86210, Note_off_c, 9, 51, 64
14, 86210, Note_off_c, 9, 42, 64
14, 86336, Note_on_c, 9, 51, 70
14, 86336, Note_on_c, 9, 45, 40
14, 86386, Note_off_c, 9, 45, 64
14, 86386, Note_off_c, 9, 51, 64
14, 86400, Note_on_c, 9, 51, 70
14, 86450, Note_off_c, 9, 51, 64
14, 86640, Note_on_c, 9, 42, 90
14, 86640, Note_on_c, 9, 37, 60
14, 86640, Note_on_c, 9, 51, 90
14, 86690, Note_off_c, 9, 51, 64
14, 86690, Note_off_c, 9, 37, 64
14, 86690, Note_off_c, 9, 42, 64
14, 86816, Note_on_c, 9, 38, 40
14, 86816, Note_on_c, 9, 51, 70
14, 86866, Note_off_c, 9, 51, 64
14, 86866, Note_off_c, 9, 38, 64
14, 86880, Note_on_c, 9, 51, 80
14, 86930, Note_off_c, 9, 51, 64
14, 87120, Note_on_c, 9, 42, 100
14, 87120, Note_on_c, 9, 37, 70
14, 87120, Note_on_c, 9, 51, 90
14, 87170, Note_off_c, 9, 51, 64
14, 87170, Note_off_c, 9, 37, 64
14, 87170, Note_off_c, 9, 42, 64
14, 87296, Note_on_c, 9, 51, 70
14, 87346, Note_off_c, 9, 51, 64
14, 87360, Note_on_c, 9, 51, 80
14, 87410, Note_off_c, 9, 51, 64
14, 87600, Note_on_c, 9, 42, 70
14, 87600, Note_on_c, 9, 37, 70
14, 87600, Note_on_c, 9, 51, 90
14, 87650, Note_off_c, 9, 51, 64
14, 87650, Note_off_c, 9, 37, 64
14, 87650, Note_off_c, 9, 42, 64
14, 87774, Note_on_c, 9, 51, 70
14, 87824, Note_off_c, 9, 51, 64
14, 87840, Note_on_c, 9, 51, 90
14, 87890, Note_off_c, 9, 51, 64
14, 88080, Note_on_c, 9, 42, 100
14, 88080, Note_on_c, 9, 51, 90
14, 88130, Note_off_c, 9, 51, 64
14, 88130, Note_off_c, 9, 42, 64
14, 88254, Note_on_c, 9, 51, 70
14, 88304, Note_off_c, 9, 51, 64
14, 88320, Note_on_c, 9, 51, 80
14, 88370, Note_off_c, 9, 51, 64
14, 88560, Note_on_c, 9, 42, 80
14, 88560, Note_on_c, 9, 37, 70
14, 88560, Note_on_c, 9, 51, 90
14, 88610, Note_off_c, 9, 51, 64
14, 88610, Note_off_c, 9, 37, 64
14, 88610, Note_off_c, 9, 42, 64
14, 88736, Note_on_c, 9, 51, 70
14, 88786, Note_off_c, 9, 51, 64
14, 88800, Note_on_c, 9, 38, 40
14, 88800, Note_on_c, 9, 51, 80
14, 88850, Note_off_c, 9, 51, 64
14, 88850, Note_off_c, 9, 38, 64
14, 89040, Note_on_c, 9, 42, 100
14, 89040, Note_on_c, 9, 37, 70
14, 89040, Note_on_c, 9, 51, 90
14, 89090, Note_off_c, 9, 51, 64
14, 89090, Note_off_c, 9, 37, 64
14, 89090, Note_off_c, 9, 42, 64
14, 89216, Note_on_c, 9, 51, 70
14, 89266, Note_off_c, 9, 51, 64
14, 89280, Note_on_c, 9, 51, 80
14, 89330, Note_off_c, 9, 51, 64
14, 89520, Note_on_c, 9, 42, 80
14, 89520, Note_on_c, 9, 37, 70
14, 89520, Note_on_c, 9, 51, 90
14, 89570, Note_off_c, 9, 51, 64
14, 89570, Note_off_c, 9, 37, 64
14, 89570, Note_off_c, 9, 42, 64
14, 89696, Note_on_c, 9, 51, 70
14, 89746, Note_off_c, 9, 51, 64
14, 89760, Note_on_c, 9, 38, 40
14, 89760, Note_on_c, 9, 51, 80
14, 89810, Note_off_c, 9, 51, 64
14, 89810, Note_off_c, 9, 38, 64
14, 90000, Note_on_c, 9, 42, 100
14, 90000, Note_on_c, 9, 37, 70
14, 90000, Note_on_c, 9, 51, 90
14, 90050, Note_off_c, 9, 51, 64
14, 90050, Note_off_c, 9, 37, 64
14, 90050, Note_off_c, 9, 42, 64
14, 90176, Note_on_c, 9, 51, 70
14, 90226, Note_off_c, 9, 51, 64
14, 90240, Note_on_c, 9, 51, 70
14, 90290, Note_off_c, 9, 51, 64
14, 90480, Note_on_c, 9, 42, 100
14, 90480, Note_on_c, 9, 37, 70
14, 90480, Note_on_c, 9, 51, 90
14, 90530, Note_off_c, 9, 51, 64
14, 90530, Note_off_c, 9, 37, 64
14, 90530, Note_off_c, 9, 42, 64
14, 90654, Note_on_c, 9, 38, 40
14, 90654, Note_on_c, 9, 51, 50
14, 90704, Note_off_c, 9, 51, 64
14, 90704, Note_off_c, 9, 38, 64
14, 90720, Note_on_c, 9, 51, 80
14, 90770, Note_off_c, 9, 51, 64
14, 90960, Note_on_c, 9, 42, 100
14, 90960, Note_on_c, 9, 37, 70
14, 90960, Note_on_c, 9, 51, 90
14, 91010, Note_off_c, 9, 51, 64
14, 91010, Note_off_c, 9, 37, 64
14, 91010, Note_off_c, 9, 42, 64
14, 91134, Note_on_c, 9, 38, 40
14, 91134, Note_on_c, 9, 51, 50
14, 91184, Note_off_c, 9, 51, 64
14, 91184, Note_off_c, 9, 38, 64
14, 91200, Note_on_c, 9, 51, 80
14, 91250, Note_off_c, 9, 51, 64
14, 91440, Note_on_c, 9, 42, 80
14, 91440, Note_on_c, 9, 37, 70
14, 91440, Note_on_c, 9, 51, 90
14, 91490, Note_off_c, 9, 51, 64
14, 91490, Note_off_c, 9, 37, 64
14, 91490, Note_off_c, 9, 42, 64
14, 91616, Note_on_c, 9, 38, 30
14, 91616, Note_on_c, 9, 51, 70
14, 91666, Note_off_c, 9, 51, 64
14, 91666, Note_off_c, 9, 38, 64
14, 91680, Note_on_c, 9, 38, 40
14, 91680, Note_on_c, 9, 51, 80
14, 91730, Note_off_c, 9, 51, 64
14, 91730, Note_off_c, 9, 38, 64
14, 91920, Note_on_c, 9, 42, 100
14, 91920, Note_on_c, 9, 37, 70
14, 91920, Note_on_c, 9, 51, 90
14, 91970, Note_off_c, 9, 51, 64
14, 91970, Note_off_c, 9, 37, 64
14, 91970, Note_off_c, 9, 42, 64
14, 92096, Note_on_c, 9, 51, 70
14, 92146, Note_off_c, 9, 51, 64
14, 92160, Note_on_c, 9, 51, 80
14, 92210, Note_off_c, 9, 51, 64
14, 92400, Note_on_c, 9, 42, 80
14, 92400, Note_on_c, 9, 37, 70
14, 92400, Note_on_c, 9, 51, 90
14, 92450, Note_off_c, 9, 51, 64
14, 92450, Note_off_c, 9, 37, 64
14, 92450, Note_off_c, 9, 42, 64
14, 92572, Note_on_c, 9, 38, 40
14, 92572, Note_on_c, 9, 51, 60
14, 92622, Note_off_c, 9, 51, 64
14, 92622, Note_off_c, 9, 38, 64
14, 92640, Note_on_c, 9, 51, 80
14, 92690, Note_off_c, 9, 51, 64
14, 92880, Note_on_c, 9, 42, 100
14, 92880, Note_on_c, 9, 37, 80
14, 92880, Note_on_c, 9, 51, 100
14, 92930, Note_off_c, 9, 51, 64
14, 92930, Note_off_c, 9, 37, 64
14, 92930, Note_off_c, 9, 42, 64
14, 93052, Note_on_c, 9, 38, 60
14, 93052, Note_on_c, 9, 51, 70
14, 93102, Note_off_c, 9, 51, 64
14, 93102, Note_off_c, 9, 38, 64
14, 93120, Note_on_c, 9, 35, 84
14, 93120, Note_on_c, 9, 42, 70
14, 93120, Note_on_c, 9, 51, 70
14, 93170, Note_off_c, 9, 51, 64
14, 93170, Note_off_c, 9, 42, 64
14, 93170, Note_off_c, 9, 35, 64
14, 93360, Note_on_c, 9, 42, 100
14, 93360, Note_on_c, 9, 51, 90
14, 93410, Note_off_c, 9, 51, 64
14, 93410, Note_off_c, 9, 42, 64
14, 93526, Note_on_c, 9, 35, 90
14, 93526, Note_on_c, 9, 49, 50
14, 93576, Note_off_c, 9, 49, 64
14, 93576, Note_off_c, 9, 35, 64
14, 93680, Note_on_c, 9, 38, 60
14, 93730, Note_off_c, 9, 38, 64
14, 93766, Note_on_c, 9, 35, 70
14, 93816, Note_off_c, 9, 35, 64
14, 93840, Note_on_c, 9, 38, 40
14, 93840, Note_on_c, 9, 42, 100
14, 93890, Note_off_c, 9, 42, 64
14, 93890, Note_off_c, 9, 38, 64
14, 93920, Note_on_c, 9, 38, 50
14, 93970, Note_off_c, 9, 38, 64
14, 94006, Note_on_c, 9, 38, 70
14, 94056, Note_off_c, 9, 38, 64
14, 94080, Note_on_c, 9, 35, 60
14, 94080, Note_on_c, 9, 49, 40
14, 94130, Note_off_c, 9, 49, 64
14, 94130, Note_off_c, 9, 35, 64
14, 94252, Note_on_c, 9, 38, 50
14, 94302, Note_off_c, 9, 38, 64
14, 94320, Note_on_c, 9, 42, 80
14, 94370, Note_off_c, 9, 42, 64
14, 94492, Note_on_c, 9, 38, 40
14, 94542, Note_off_c, 9, 38, 64
14, 94560, Note_on_c, 9, 42, 70
14, 94610, Note_off_c, 9, 42, 64
14, 94732, Note_on_c, 9, 38, 60
14, 94782, Note_off_c, 9, 38, 64
14, 94800, Note_on_c, 9, 46, 80
14, 94850, Note_off_c, 9, 46, 64
14, 94880, Note_on_c, 9, 38, 60
14, 94930, Note_off_c, 9, 38, 64
14, 94972, Note_on_c, 9, 38, 50
14, 95022, Note_off_c, 9, 38, 64
14, 95040, Note_on_c, 9, 35, 70
14, 95040, Note_on_c, 9, 38, 70
14, 95090, Note_off_c, 9, 38, 64
14, 95090, Note_off_c, 9, 35, 64
14, 95200, Note_on_c, 9, 38, 30
14, 95250, Note_off_c, 9, 38, 64
14, 95280, Note_on_c, 9, 38, 60
14, 95330, Note_off_c, 9, 38, 64
14, 95440, Note_on_c, 9, 35, 50
14, 95440, Note_on_c, 9, 38, 70
14, 95490, Note_off_c, 9, 38, 64
14, 95490, Note_off_c, 9, 35, 64
14, 95600, Note_on_c, 9, 38, 20
14, 95650, Note_off_c, 9, 38, 64
14, 95680, Note_on_c, 9, 38, 25
14, 95730, Note_off_c, 9, 38, 64
14, 95760, Note_on_c, 9, 35, 80
14, 95760, Note_on_c, 9, 38, 60
14, 95810, Note_off_c, 9, 38, 64
14, 95810, Note_off_c, 9, 35, 64
14, 95810, End_track
15, 0, Start_track
15, 0, Title_t, " "
15, 0, End_track
16, 0, Start_track
16, 0, Title_t, "All instr./Roland Sound Canvas"
16, 0, End_track
17, 0, Start_track
17, 0, Title_t, "Freely distr.  /  GMidi type1"
17, 0, End_track
18, 0, Start_track
18, 0, Title_t, "Contact MEL68@AOL.COM"
18, 0, End_track
19, 0, Start_track
19, 0, Title_t, "Run time 4:47  /  Ez listening"
19, 0, End_track
20, 0, Start_track
20, 0, Title_t, "         FEB / 13 / 97"
20, 0, End_track
0, 0, End_of_file
