0, 0, Header, 1, 4, 960
1, 0, Start_track
1, 0, Control_c, 0, 101, 0
1, 0, Control_c, 0, 100, 0
1, 0, Control_c, 0, 6, 12
1, 0, Control_c, 0, 38, 0
1, 0, Control_c, 1, 101, 0
1, 0, Control_c, 1, 100, 0
1, 0, Control_c, 1, 6, 12
1, 0, Control_c, 1, 38, 0
1, 0, Control_c, 2, 101, 0
1, 0, Control_c, 2, 100, 0
1, 0, Control_c, 2, 6, 12
1, 0, Control_c, 2, 38, 0
1, 0, Control_c, 3, 101, 0
1, 0, Control_c, 3, 100, 0
1, 0, Control_c, 3, 6, 12
1, 0, Control_c, 3, 38, 0
1, 0, Control_c, 4, 101, 0
1, 0, Control_c, 4, 100, 0
1, 0, Control_c, 4, 6, 12
1, 0, Control_c, 4, 38, 0
1, 0, Control_c, 5, 101, 0
1, 0, Control_c, 5, 100, 0
1, 0, Control_c, 5, 6, 12
1, 0, Control_c, 5, 38, 0
1, 0, Control_c, 6, 101, 0
1, 0, Control_c, 6, 100, 0
1, 0, Control_c, 6, 6, 12
1, 0, Control_c, 6, 38, 0
1, 0, Control_c, 7, 101, 0
1, 0, Control_c, 7, 100, 0
1, 0, Control_c, 7, 6, 12
1, 0, Control_c, 7, 38, 0
1, 0, Control_c, 8, 101, 0
1, 0, Control_c, 8, 100, 0
1, 0, Control_c, 8, 6, 12
1, 0, Control_c, 8, 38, 0
1, 0, Control_c, 9, 101, 0
1, 0, Control_c, 9, 100, 0
1, 0, Control_c, 9, 6, 12
1, 0, Control_c, 9, 38, 0
1, 0, Control_c, 10, 101, 0
1, 0, Control_c, 10, 100, 0
1, 0, Control_c, 10, 6, 12
1, 0, Control_c, 10, 38, 0
1, 0, Control_c, 11, 101, 0
1, 0, Control_c, 11, 100, 0
1, 0, Control_c, 11, 6, 12
1, 0, Control_c, 11, 38, 0
1, 0, Control_c, 12, 101, 0
1, 0, Control_c, 12, 100, 0
1, 0, Control_c, 12, 6, 12
1, 0, Control_c, 12, 38, 0
1, 0, Control_c, 13, 101, 0
1, 0, Control_c, 13, 100, 0
1, 0, Control_c, 13, 6, 12
1, 0, Control_c, 13, 38, 0
1, 0, Control_c, 14, 101, 0
1, 0, Control_c, 14, 100, 0
1, 0, Control_c, 14, 6, 12
1, 0, Control_c, 14, 38, 0
1, 0, Control_c, 15, 101, 0
1, 0, Control_c, 15, 100, 0
1, 0, Control_c, 15, 6, 12
1, 0, Control_c, 15, 38, 0
1, 0, Time_signature, 4, 2, 24, 8
1, 0, Tempo, 555555
1, 0, End_track
2, 0, Start_track
2, 0, Pitch_bend_c, 0, 8192
2, 0, Control_c, 0, 7, 63
2, 0, Control_c, 0, 10, 79
2, 0, Control_c, 0, 93, 127
2, 0, Control_c, 0, 91, 127
2, 0, Control_c, 0, 95, 0
2, 0, Control_c, 0, 92, 0
2, 0, Control_c, 0, 11, 127
2, 0, Program_c, 0, 26
2, 0, Control_c, 1, 7, 63
2, 0, Control_c, 1, 10, 79
2, 0, Control_c, 1, 93, 127
2, 0, Control_c, 1, 91, 127
2, 0, Control_c, 1, 95, 0
2, 0, Control_c, 1, 92, 0
2, 0, Control_c, 1, 11, 127
2, 0, Program_c, 1, 26
2, 3840, Note_on_c, 0, 67, 95
2, 4320, Note_off_c, 0, 67, 95
2, 4800, Note_on_c, 0, 69, 95
2, 5280, Note_off_c, 0, 69, 95
2, 5760, Note_on_c, 0, 70, 95
2, 6240, Note_off_c, 0, 70, 95
2, 6720, Note_on_c, 0, 72, 79
2, 7080, Note_off_c, 0, 72, 79
2, 7440, Note_on_c, 0, 72, 95
2, 7680, Note_off_c, 0, 72, 95
2, 7680, Note_on_c, 0, 70, 95
2, 8160, Note_off_c, 0, 70, 95
2, 8160, Note_on_c, 0, 69, 95
2, 8640, Note_off_c, 0, 69, 95
2, 8640, Note_on_c, 0, 67, 95
2, 9120, Note_off_c, 0, 67, 95
2, 10080, Note_on_c, 0, 72, 79
2, 10080, Pitch_bend_c, 1, 9600
2, 10080, Note_on_c, 1, 67, 79
2, 10560, Pitch_bend_c, 1, 9600
2, 10603, Pitch_bend_c, 1, 9472
2, 10646, Pitch_bend_c, 1, 9344
2, 10689, Pitch_bend_c, 1, 9216
2, 10732, Pitch_bend_c, 1, 9088
2, 10775, Pitch_bend_c, 1, 8960
2, 10818, Pitch_bend_c, 1, 8832
2, 10861, Pitch_bend_c, 1, 8704
2, 10904, Pitch_bend_c, 1, 8576
2, 10947, Pitch_bend_c, 1, 8448
2, 10990, Pitch_bend_c, 1, 8320
2, 11033, Pitch_bend_c, 1, 8192
2, 11040, Pitch_bend_c, 1, 8192
2, 11520, Note_off_c, 0, 72, 79
2, 11520, Pitch_bend_c, 1, 8192
2, 11520, Pitch_bend_c, 1, 8192
2, 11520, Note_off_c, 1, 67, 79
2, 11520, Note_on_c, 0, 65, 95
2, 13440, Note_off_c, 0, 65, 95
2, 14400, Note_on_c, 1, 63, 79
2, 14520, Pitch_bend_c, 1, 7936
2, 14640, Pitch_bend_c, 1, 7552
2, 14640, Pitch_bend_c, 1, 8192
2, 14640, Note_off_c, 1, 63, 79
2, 14640, Note_on_c, 0, 62, 95
2, 15360, Note_off_c, 0, 62, 95
2, 15360, Note_on_c, 0, 60, 95
2, 17280, Note_off_c, 0, 60, 95
2, 18240, Note_on_c, 1, 72, 79
2, 18360, Pitch_bend_c, 1, 8192
2, 18480, Pitch_bend_c, 1, 8192
2, 18480, Pitch_bend_c, 1, 8192
2, 19200, Note_off_c, 1, 72, 79
2, 19200, Note_on_c, 0, 64, 95
2, 20160, Note_off_c, 0, 64, 95
2, 20160, Note_on_c, 0, 65, 95
2, 20640, Note_off_c, 0, 65, 95
2, 21120, Note_on_c, 0, 67, 95
2, 22080, Note_off_c, 0, 67, 95
2, 22080, Note_on_c, 0, 65, 95
2, 22800, Note_off_c, 0, 65, 95
2, 22800, Note_on_c, 0, 67, 95
2, 22920, Note_off_c, 0, 67, 95
2, 22920, Note_on_c, 0, 65, 70
2, 23040, Note_off_c, 0, 65, 70
2, 23040, Note_on_c, 0, 64, 95
2, 23760, Note_off_c, 0, 64, 95
2, 23760, Note_on_c, 0, 65, 95
2, 23880, Note_off_c, 0, 65, 95
2, 23880, Note_on_c, 0, 64, 70
2, 24000, Note_off_c, 0, 64, 70
2, 24000, Note_on_c, 0, 62, 95
2, 24720, Note_off_c, 0, 62, 95
2, 24720, Note_on_c, 0, 64, 95
2, 24840, Note_off_c, 0, 64, 95
2, 24840, Note_on_c, 0, 62, 70
2, 24960, Note_off_c, 0, 62, 70
2, 24960, Note_on_c, 0, 60, 95
2, 25680, Note_off_c, 0, 60, 95
2, 25680, Note_on_c, 0, 62, 95
2, 25800, Note_off_c, 0, 62, 95
2, 25800, Note_on_c, 0, 60, 70
2, 25920, Note_off_c, 0, 60, 70
2, 25920, Note_on_c, 0, 58, 95
2, 26640, Note_off_c, 0, 58, 95
2, 26640, Note_on_c, 0, 60, 95
2, 26880, Note_off_c, 0, 60, 95
2, 26880, Note_on_c, 0, 57, 95
2, 27840, Note_off_c, 0, 57, 95
2, 29280, Note_on_c, 0, 77, 79
2, 29400, Note_off_c, 0, 77, 79
2, 29400, Note_on_c, 0, 72, 79
2, 29520, Note_off_c, 0, 72, 79
2, 29520, Note_on_c, 0, 70, 79
2, 29640, Note_off_c, 0, 70, 79
2, 29640, Note_on_c, 0, 68, 54
2, 29760, Note_off_c, 0, 68, 54
2, 29760, Note_on_c, 0, 65, 79
2, 30000, Note_off_c, 0, 65, 79
2, 30240, Note_on_c, 0, 65, 79
2, 30720, Note_off_c, 0, 65, 79
2, 30720, Note_on_c, 0, 65, 79
2, 31680, Note_off_c, 0, 65, 79
2, 34560, Note_on_c, 0, 69, 79
2, 35040, Note_off_c, 0, 69, 79
2, 35520, Note_on_c, 0, 70, 79
2, 36000, Note_off_c, 0, 70, 79
2, 36480, Note_on_c, 0, 72, 79
2, 36960, Note_off_c, 0, 72, 79
2, 37440, Note_on_c, 0, 74, 79
2, 37920, Note_off_c, 0, 74, 79
2, 38160, Note_on_c, 0, 74, 79
2, 38400, Note_off_c, 0, 74, 79
2, 38400, Note_on_c, 0, 74, 63
2, 38400, Note_on_c, 0, 72, 63
2, 38640, Note_off_c, 0, 74, 63
2, 38640, Note_off_c, 0, 72, 63
2, 38880, Note_on_c, 0, 70, 79
2, 39120, Note_off_c, 0, 70, 79
2, 39360, Note_on_c, 0, 69, 63
2, 39840, Note_off_c, 0, 69, 63
2, 41160, Note_on_c, 1, 77, 63
2, 41280, Note_off_c, 1, 77, 63
2, 41280, Note_on_c, 1, 81, 63
2, 41520, Note_off_c, 1, 81, 63
2, 42600, Note_on_c, 1, 74, 63
2, 42720, Note_off_c, 1, 74, 63
2, 42720, Note_on_c, 1, 77, 63
2, 42960, Note_off_c, 1, 77, 63
2, 44160, Note_on_c, 1, 72, 63
2, 44400, Note_off_c, 1, 72, 63
2, 45120, Note_on_c, 1, 70, 63
2, 45360, Note_off_c, 1, 70, 63
2, 46080, Note_on_c, 1, 67, 63
2, 46320, Note_off_c, 1, 67, 63
2, 46560, Note_on_c, 1, 65, 63
2, 46800, Note_off_c, 1, 65, 63
2, 47520, Note_on_c, 0, 72, 79
2, 47680, Note_off_c, 0, 72, 79
2, 47680, Note_on_c, 0, 71, 38
2, 47840, Note_off_c, 0, 71, 38
2, 47840, Note_on_c, 0, 70, 38
2, 48000, Note_off_c, 0, 70, 38
2, 48000, Note_on_c, 0, 67, 79
2, 48160, Note_off_c, 0, 67, 79
2, 48160, Note_on_c, 0, 66, 38
2, 48320, Note_off_c, 0, 66, 38
2, 48320, Note_on_c, 0, 65, 38
2, 48480, Note_off_c, 0, 65, 38
2, 48480, Note_on_c, 0, 63, 79
2, 48640, Note_off_c, 0, 63, 79
2, 48640, Note_on_c, 0, 62, 38
2, 48800, Note_off_c, 0, 62, 38
2, 48800, Note_on_c, 0, 61, 38
2, 48960, Note_off_c, 0, 61, 38
2, 48960, Note_on_c, 0, 60, 38
2, 49200, Note_off_c, 0, 60, 38
2, 49200, Note_on_c, 0, 67, 79
2, 49440, Note_off_c, 0, 67, 79
2, 49440, Note_on_c, 0, 59, 79
2, 49680, Note_off_c, 0, 59, 79
2, 49800, Note_on_c, 1, 61, 95
2, 49920, Note_off_c, 1, 61, 95
2, 49920, Note_on_c, 1, 60, 79
2, 50160, Note_off_c, 1, 60, 79
2, 50880, Note_on_c, 0, 65, 95
2, 51360, Note_off_c, 0, 65, 95
2, 51840, Note_on_c, 0, 69, 95
2, 52320, Note_off_c, 0, 69, 95
2, 52800, Note_on_c, 0, 72, 95
2, 53280, Note_off_c, 0, 72, 95
2, 53520, Note_on_c, 1, 72, 95
2, 53640, Pitch_bend_c, 1, 9600
2, 53760, Pitch_bend_c, 1, 11008
2, 53760, Pitch_bend_c, 1, 8192
2, 53760, Note_off_c, 1, 72, 95
2, 53760, Note_on_c, 0, 76, 95
2, 54720, Note_off_c, 0, 76, 95
2, 54720, Note_on_c, 0, 74, 95
2, 55440, Note_off_c, 0, 74, 95
2, 55440, Note_on_c, 0, 76, 95
2, 56160, Note_off_c, 0, 76, 95
2, 56160, Pitch_bend_c, 1, 8192
2, 56160, Note_on_c, 1, 71, 95
2, 56160, Pitch_bend_c, 1, 8192
2, 56160, Note_on_c, 1, 67, 31
2, 56496, Pitch_bend_c, 1, 8320
2, 56496, Pitch_bend_c, 1, 8320
2, 56832, Pitch_bend_c, 1, 8448
2, 56832, Pitch_bend_c, 1, 8448
2, 57168, Pitch_bend_c, 1, 8576
2, 57168, Pitch_bend_c, 1, 8576
2, 57504, Pitch_bend_c, 1, 8704
2, 57504, Pitch_bend_c, 1, 8704
2, 57840, Pitch_bend_c, 1, 8832
2, 57840, Pitch_bend_c, 1, 8832
2, 57840, Pitch_bend_c, 1, 8832
2, 57840, Pitch_bend_c, 1, 8832
2, 59520, Pitch_bend_c, 1, 8832
2, 59520, Pitch_bend_c, 1, 8192
2, 59520, Note_off_c, 1, 71, 95
2, 59520, Pitch_bend_c, 1, 8832
2, 59520, Pitch_bend_c, 1, 8192
2, 59520, Note_off_c, 1, 67, 31
2, 60360, Note_on_c, 1, 69, 79
2, 60480, Note_off_c, 1, 69, 79
2, 60480, Note_on_c, 1, 71, 63
2, 60720, Note_off_c, 1, 71, 63
2, 60720, Note_on_c, 0, 69, 54
2, 60960, Note_off_c, 0, 69, 54
2, 60960, Note_on_c, 0, 67, 63
2, 61440, Note_off_c, 0, 67, 63
2, 61440, Note_on_c, 0, 65, 63
2, 61800, Note_on_c, 1, 65, 63
2, 61920, Note_off_c, 0, 65, 63
2, 61920, Note_off_c, 1, 65, 63
2, 61920, Note_on_c, 1, 70, 79
2, 62400, Note_off_c, 1, 70, 79
2, 64320, Note_on_c, 0, 60, 79
2, 64560, Note_off_c, 0, 60, 79
2, 64560, Note_on_c, 0, 60, 79
2, 65040, Note_off_c, 0, 60, 79
2, 65160, Note_on_c, 1, 64, 79
2, 65280, Note_off_c, 1, 64, 79
2, 65280, Pitch_bend_c, 1, 8192
2, 65280, Note_on_c, 1, 66, 79
2, 65424, Pitch_bend_c, 1, 8320
2, 65568, Pitch_bend_c, 1, 8448
2, 65712, Pitch_bend_c, 1, 8576
2, 65856, Pitch_bend_c, 1, 8704
2, 66000, Pitch_bend_c, 1, 8832
2, 66000, Pitch_bend_c, 1, 8832
2, 66720, Pitch_bend_c, 1, 8832
2, 66720, Pitch_bend_c, 1, 8192
2, 66720, Note_off_c, 1, 66, 79
2, 68160, Note_on_c, 0, 60, 79
2, 68400, Note_off_c, 0, 60, 79
2, 68400, Note_on_c, 0, 60, 79
2, 68640, Note_off_c, 0, 60, 79
2, 68640, Note_on_c, 0, 60, 79
2, 68880, Note_off_c, 0, 60, 79
2, 68880, Note_on_c, 0, 60, 95
2, 69120, Note_off_c, 0, 60, 95
2, 69120, Pitch_bend_c, 1, 8192
2, 69120, Note_on_c, 1, 66, 79
2, 69168, Pitch_bend_c, 1, 8320
2, 69216, Pitch_bend_c, 1, 8448
2, 69264, Pitch_bend_c, 1, 8576
2, 69312, Pitch_bend_c, 1, 8704
2, 69360, Pitch_bend_c, 1, 8832
2, 69360, Pitch_bend_c, 1, 8832
2, 69600, Pitch_bend_c, 1, 8832
2, 69600, Pitch_bend_c, 1, 8192
2, 69600, Note_off_c, 1, 66, 79
2, 72000, Note_on_c, 0, 60, 79
2, 72240, Note_off_c, 0, 60, 79
2, 72240, Note_on_c, 0, 60, 79
2, 72480, Note_off_c, 0, 60, 79
2, 72480, Note_on_c, 0, 60, 79
2, 72720, Note_off_c, 0, 60, 79
2, 72720, Note_on_c, 0, 60, 79
2, 72960, Note_off_c, 0, 60, 79
2, 72960, Note_on_c, 0, 65, 95
2, 73560, Note_on_c, 1, 68, 79
2, 73680, Note_off_c, 0, 65, 95
2, 73680, Note_off_c, 1, 68, 79
2, 73680, Note_on_c, 1, 69, 95
2, 73920, Note_off_c, 1, 69, 95
2, 75840, Note_on_c, 0, 60, 95
2, 76080, Note_off_c, 0, 60, 95
2, 76080, Note_on_c, 0, 60, 95
2, 76320, Note_off_c, 0, 60, 95
2, 76320, Note_on_c, 0, 60, 95
2, 76560, Note_off_c, 0, 60, 95
2, 76560, Note_on_c, 0, 60, 95
2, 76800, Note_off_c, 0, 60, 95
2, 76800, Note_on_c, 0, 65, 95
2, 77400, Note_on_c, 1, 68, 79
2, 77520, Note_off_c, 0, 65, 95
2, 77520, Note_off_c, 1, 68, 79
2, 77520, Note_on_c, 1, 69, 95
2, 77760, Note_off_c, 1, 69, 95
2, 79680, Note_on_c, 0, 60, 95
2, 79920, Note_off_c, 0, 60, 95
2, 79920, Note_on_c, 0, 60, 95
2, 80160, Note_off_c, 0, 60, 95
2, 80160, Note_on_c, 0, 60, 95
2, 80400, Note_off_c, 0, 60, 95
2, 80400, Note_on_c, 0, 60, 95
2, 80520, Note_on_c, 1, 64, 63
2, 80640, Note_off_c, 0, 60, 95
2, 80640, Note_off_c, 1, 64, 63
2, 80640, Pitch_bend_c, 1, 8192
2, 80640, Note_on_c, 1, 66, 95
2, 80784, Pitch_bend_c, 1, 8320
2, 80928, Pitch_bend_c, 1, 8448
2, 81072, Pitch_bend_c, 1, 8576
2, 81216, Pitch_bend_c, 1, 8704
2, 81360, Pitch_bend_c, 1, 8832
2, 81360, Pitch_bend_c, 1, 8832
2, 82080, Pitch_bend_c, 1, 8832
2, 82080, Pitch_bend_c, 1, 8192
2, 82080, Note_off_c, 1, 66, 95
2, 83520, Note_on_c, 0, 60, 95
2, 83760, Note_off_c, 0, 60, 95
2, 83760, Note_on_c, 0, 60, 95
2, 84000, Note_off_c, 0, 60, 95
2, 84000, Note_on_c, 0, 60, 95
2, 84240, Note_off_c, 0, 60, 95
2, 84240, Note_on_c, 0, 60, 95
2, 84480, Note_off_c, 0, 60, 95
2, 84480, Pitch_bend_c, 1, 8192
2, 84480, Note_on_c, 1, 66, 79
2, 84576, Pitch_bend_c, 1, 8320
2, 84672, Pitch_bend_c, 1, 8448
2, 84768, Pitch_bend_c, 1, 8576
2, 84864, Pitch_bend_c, 1, 8704
2, 84960, Pitch_bend_c, 1, 8832
2, 84960, Pitch_bend_c, 1, 8832
2, 85440, Pitch_bend_c, 1, 8832
2, 85440, Pitch_bend_c, 1, 8192
2, 85440, Note_off_c, 1, 66, 79
2, 88320, Note_on_c, 0, 65, 95
2, 88920, Note_on_c, 1, 68, 79
2, 89040, Note_off_c, 0, 65, 95
2, 89040, Note_off_c, 1, 68, 79
2, 89040, Note_on_c, 1, 69, 95
2, 89280, Note_off_c, 1, 69, 95
2, 91200, Note_on_c, 0, 65, 111
2, 91440, Note_off_c, 0, 65, 111
2, 91440, Note_on_c, 0, 65, 95
2, 91680, Note_off_c, 0, 65, 95
2, 91680, Note_on_c, 0, 65, 95
2, 91920, Note_off_c, 0, 65, 95
2, 91920, Note_on_c, 0, 65, 95
2, 92040, Note_on_c, 1, 68, 79
2, 92160, Note_off_c, 0, 65, 95
2, 92160, Note_off_c, 1, 68, 79
2, 92160, Note_on_c, 1, 69, 95
2, 92640, Note_off_c, 1, 69, 95
2, 92640, Note_on_c, 0, 65, 95
2, 93120, Note_off_c, 0, 65, 95
2, 93120, Note_on_c, 0, 60, 95
2, 93600, Note_off_c, 0, 60, 95
2, 93600, Note_on_c, 0, 57, 95
2, 93840, Note_off_c, 0, 57, 95
2, 93840, Note_on_c, 0, 53, 95
2, 95040, Note_off_c, 0, 53, 95
2, 95040, Note_on_c, 0, 50, 95
2, 95200, Note_off_c, 0, 50, 95
2, 95200, Note_on_c, 0, 54, 95
2, 95360, Note_off_c, 0, 54, 95
2, 95360, Note_on_c, 0, 50, 95
2, 95520, Note_off_c, 0, 50, 95
2, 95520, Note_on_c, 0, 57, 95
2, 95760, Note_off_c, 0, 57, 95
2, 95760, Note_on_c, 0, 60, 95
2, 95880, Note_off_c, 0, 60, 95
2, 95880, Note_on_c, 0, 63, 95
2, 96000, Note_off_c, 0, 63, 95
2, 96000, Note_on_c, 0, 66, 95
2, 96960, Note_off_c, 0, 66, 95
2, 96960, Note_on_c, 0, 60, 95
2, 97200, Note_off_c, 0, 60, 95
2, 97200, Note_on_c, 0, 63, 95
2, 97320, Note_off_c, 0, 63, 95
2, 97320, Note_on_c, 0, 66, 95
2, 97440, Note_off_c, 0, 66, 95
2, 97440, Note_on_c, 0, 69, 95
2, 98400, Note_off_c, 0, 69, 95
2, 98400, Note_on_c, 0, 63, 95
2, 98640, Note_off_c, 0, 63, 95
2, 98640, Note_on_c, 0, 66, 95
2, 98760, Note_off_c, 0, 66, 95
2, 98760, Note_on_c, 0, 69, 95
2, 98880, Note_off_c, 0, 69, 95
2, 98880, Note_on_c, 0, 72, 95
2, 100080, Note_off_c, 0, 72, 95
2, 100080, Note_on_c, 1, 72, 47
2, 100320, Note_off_c, 1, 72, 47
2, 100320, Note_on_c, 0, 62, 95
2, 100440, Note_off_c, 0, 62, 95
2, 100440, Note_on_c, 0, 66, 31
2, 100560, Note_off_c, 0, 66, 31
2, 100560, Note_on_c, 0, 69, 95
2, 100680, Note_off_c, 0, 69, 95
2, 100680, Note_on_c, 0, 75, 95
2, 100800, Note_off_c, 0, 75, 95
2, 100800, Note_on_c, 0, 75, 95
2, 101040, Note_off_c, 0, 75, 95
2, 101040, Note_on_c, 0, 74, 95
2, 101880, Note_off_c, 0, 74, 95
2, 101880, Note_on_c, 0, 62, 95
2, 102000, Note_off_c, 0, 62, 95
2, 102000, Note_on_c, 0, 66, 95
2, 102120, Note_off_c, 0, 66, 95
2, 102120, Note_on_c, 0, 69, 95
2, 102240, Note_off_c, 0, 69, 95
2, 102240, Note_on_c, 0, 70, 95
2, 102480, Note_off_c, 0, 70, 95
2, 102480, Note_on_c, 0, 69, 95
2, 103680, Note_off_c, 0, 69, 95
2, 103680, Note_on_c, 0, 75, 95
2, 103840, Note_off_c, 0, 75, 95
2, 103840, Note_on_c, 0, 74, 95
2, 104000, Note_off_c, 0, 74, 95
2, 104000, Note_on_c, 0, 75, 95
2, 104160, Note_off_c, 0, 75, 95
2, 104160, Note_on_c, 0, 74, 95
2, 104400, Note_off_c, 0, 74, 95
2, 104400, Note_on_c, 0, 70, 95
2, 104520, Note_off_c, 0, 70, 95
2, 104520, Note_on_c, 0, 69, 95
2, 104640, Note_off_c, 0, 69, 95
2, 104640, Note_on_c, 0, 66, 95
2, 104760, Note_off_c, 0, 66, 95
2, 104760, Note_on_c, 0, 62, 95
2, 104880, Note_off_c, 0, 62, 95
2, 106080, Note_on_c, 0, 50, 95
2, 106320, Note_off_c, 0, 50, 95
2, 106320, Note_on_c, 0, 53, 95
2, 106560, Note_off_c, 0, 53, 95
2, 106560, Note_on_c, 0, 58, 95
2, 106800, Note_off_c, 0, 58, 95
2, 106800, Note_on_c, 0, 62, 95
2, 107040, Note_off_c, 0, 62, 95
2, 107040, Note_on_c, 0, 65, 95
2, 107280, Note_off_c, 0, 65, 95
2, 107280, Note_on_c, 0, 70, 95
2, 107520, Note_off_c, 0, 70, 95
2, 107520, Note_on_c, 0, 74, 95
2, 107760, Note_off_c, 0, 74, 95
2, 107760, Note_on_c, 0, 77, 95
2, 108000, Note_off_c, 0, 77, 95
2, 108000, Note_on_c, 0, 81, 95
2, 108480, Note_off_c, 0, 81, 95
2, 108480, Note_on_c, 0, 79, 95
2, 108960, Note_off_c, 0, 79, 95
2, 108960, Note_on_c, 0, 77, 95
2, 109200, Note_off_c, 0, 77, 95
2, 109200, Note_on_c, 0, 77, 95
2, 109440, Note_off_c, 0, 77, 95
2, 109440, Note_on_c, 0, 73, 95
2, 109680, Note_off_c, 0, 73, 95
2, 109920, Note_on_c, 0, 70, 95
2, 110160, Note_off_c, 0, 70, 95
2, 110160, Note_on_c, 0, 69, 95
2, 110400, Note_off_c, 0, 69, 95
2, 110400, Note_on_c, 0, 67, 95
2, 111360, Note_off_c, 0, 67, 95
2, 111360, Note_on_c, 0, 68, 95
2, 111600, Note_off_c, 0, 68, 95
2, 111600, Note_on_c, 0, 74, 95
2, 111840, Note_off_c, 0, 74, 95
2, 111840, Note_on_c, 0, 80, 95
2, 112080, Note_off_c, 0, 80, 95
2, 112080, Note_on_c, 0, 79, 95
2, 112320, Note_off_c, 0, 79, 95
2, 112320, Note_on_c, 0, 78, 95
2, 113280, Note_off_c, 0, 78, 95
2, 113280, Note_on_c, 0, 74, 95
2, 113440, Note_off_c, 0, 74, 95
2, 113440, Note_on_c, 0, 73, 95
2, 113600, Note_off_c, 0, 73, 95
2, 113600, Note_on_c, 0, 72, 95
2, 113760, Note_off_c, 0, 72, 95
2, 113760, Note_on_c, 0, 73, 95
2, 114000, Note_off_c, 0, 73, 95
2, 114000, Note_on_c, 0, 72, 95
2, 114240, Note_off_c, 0, 72, 95
2, 114240, Note_on_c, 0, 71, 95
2, 114360, Note_off_c, 0, 71, 95
2, 114360, Note_on_c, 0, 72, 95
2, 114480, Note_off_c, 0, 72, 95
2, 114480, Note_on_c, 0, 71, 95
2, 114600, Note_off_c, 0, 71, 95
2, 114600, Note_on_c, 0, 72, 95
2, 114840, Note_off_c, 0, 72, 95
2, 114840, Note_on_c, 0, 70, 95
2, 114960, Note_off_c, 0, 70, 95
2, 114960, Note_on_c, 0, 72, 95
2, 115080, Note_off_c, 0, 72, 95
2, 115080, Note_on_c, 0, 70, 95
2, 115200, Note_off_c, 0, 70, 95
2, 115200, Note_on_c, 0, 69, 95
2, 115360, Note_off_c, 0, 69, 95
2, 115360, Note_on_c, 0, 70, 95
2, 115520, Note_off_c, 0, 70, 95
2, 115520, Note_on_c, 0, 69, 95
2, 115680, Note_off_c, 0, 69, 95
2, 115680, Note_on_c, 0, 68, 95
2, 115840, Note_off_c, 0, 68, 95
2, 115840, Note_on_c, 0, 69, 95
2, 116000, Note_off_c, 0, 69, 95
2, 116000, Note_on_c, 0, 68, 95
2, 116160, Note_off_c, 0, 68, 95
2, 116160, Note_on_c, 0, 68, 95
2, 116320, Note_off_c, 0, 68, 95
2, 116320, Note_on_c, 0, 67, 95
2, 116480, Note_off_c, 0, 67, 95
2, 116480, Note_on_c, 0, 68, 95
2, 116640, Note_off_c, 0, 68, 95
2, 116640, Note_on_c, 0, 67, 95
2, 116800, Note_off_c, 0, 67, 95
2, 116800, Note_on_c, 0, 66, 95
2, 116960, Note_off_c, 0, 66, 95
2, 116960, Note_on_c, 0, 67, 95
2, 117120, Note_off_c, 0, 67, 95
2, 117120, Note_on_c, 0, 66, 95
2, 117280, Note_off_c, 0, 66, 95
2, 117280, Note_on_c, 0, 65, 95
2, 117440, Note_off_c, 0, 65, 95
2, 117440, Note_on_c, 0, 66, 95
2, 117600, Note_off_c, 0, 66, 95
2, 117600, Note_on_c, 0, 65, 95
2, 117840, Note_off_c, 0, 65, 95
2, 117840, Note_on_c, 0, 64, 95
2, 117960, Note_off_c, 0, 64, 95
2, 117960, Note_on_c, 0, 65, 95
2, 118080, Note_off_c, 0, 65, 95
2, 118080, Note_on_c, 0, 64, 95
2, 118200, Note_off_c, 0, 64, 95
2, 118200, Note_on_c, 0, 62, 95
2, 118320, Note_off_c, 0, 62, 95
2, 118560, Note_on_c, 0, 62, 95
2, 118800, Note_off_c, 0, 62, 95
2, 119760, Note_on_c, 0, 62, 95
2, 119880, Note_off_c, 0, 62, 95
2, 119880, Note_on_c, 0, 65, 95
2, 120000, Note_off_c, 0, 65, 95
2, 120000, Note_on_c, 0, 69, 95
2, 120240, Note_off_c, 0, 69, 95
2, 120240, Note_on_c, 0, 72, 95
2, 120400, Note_off_c, 0, 72, 95
2, 120400, Note_on_c, 0, 69, 95
2, 120560, Note_off_c, 0, 69, 95
2, 120560, Note_on_c, 0, 72, 95
2, 120720, Note_off_c, 0, 72, 95
2, 120720, Note_on_c, 0, 69, 95
2, 120960, Note_off_c, 0, 69, 95
2, 120960, Note_on_c, 0, 69, 95
2, 121200, Note_off_c, 0, 69, 95
2, 121440, Note_on_c, 0, 69, 95
2, 121600, Note_off_c, 0, 69, 95
2, 121600, Pitch_bend_c, 1, 8192
2, 121600, Note_on_c, 1, 69, 47
2, 121616, Pitch_bend_c, 1, 8320
2, 121632, Pitch_bend_c, 1, 8448
2, 121648, Pitch_bend_c, 1, 8576
2, 121664, Pitch_bend_c, 1, 8704
2, 121680, Pitch_bend_c, 1, 8832
2, 121680, Pitch_bend_c, 1, 8832
2, 121760, Pitch_bend_c, 1, 8832
2, 121776, Pitch_bend_c, 1, 8704
2, 121792, Pitch_bend_c, 1, 8576
2, 121808, Pitch_bend_c, 1, 8448
2, 121824, Pitch_bend_c, 1, 8320
2, 121840, Pitch_bend_c, 1, 8192
2, 121840, Pitch_bend_c, 1, 8192
2, 121920, Pitch_bend_c, 1, 8192
2, 121920, Pitch_bend_c, 1, 8192
2, 121920, Note_off_c, 1, 69, 47
2, 121920, Note_on_c, 0, 61, 95
2, 122880, Note_off_c, 0, 61, 95
2, 122880, Note_on_c, 0, 60, 95
2, 123120, Note_off_c, 0, 60, 95
2, 123120, Note_on_c, 0, 62, 95
2, 123360, Note_off_c, 0, 62, 95
2, 123360, Note_on_c, 0, 60, 95
2, 123600, Note_off_c, 0, 60, 95
2, 123600, Note_on_c, 0, 57, 95
2, 123840, Note_off_c, 0, 57, 95
2, 123840, Note_on_c, 0, 60, 95
2, 124080, Note_off_c, 0, 60, 95
2, 124080, Note_on_c, 0, 57, 95
2, 124320, Note_off_c, 0, 57, 95
2, 124320, Note_on_c, 0, 53, 95
2, 125040, Note_off_c, 0, 53, 95
2, 125040, Note_on_c, 1, 53, 79
2, 125520, Note_off_c, 1, 53, 79
2, 157440, Note_on_c, 0, 74, 47
2, 157920, Note_off_c, 0, 74, 47
2, 157920, Note_on_c, 0, 74, 47
2, 158400, Note_off_c, 0, 74, 47
2, 158400, Note_on_c, 0, 74, 47
2, 158880, Note_off_c, 0, 74, 47
2, 158880, Note_on_c, 0, 74, 47
2, 159360, Note_off_c, 0, 74, 47
2, 159360, Note_on_c, 0, 74, 47
2, 159840, Note_off_c, 0, 74, 47
2, 159840, Note_on_c, 0, 74, 47
2, 160320, Note_off_c, 0, 74, 47
2, 160320, Note_on_c, 0, 74, 47
2, 160800, Note_off_c, 0, 74, 47
2, 160800, Note_on_c, 0, 74, 47
2, 161279, Note_off_c, 0, 74, 47
2, 161280, Note_on_c, 0, 74, 47
2, 161760, Note_off_c, 0, 74, 47
2, 161760, Note_on_c, 0, 74, 47
2, 162240, Note_off_c, 0, 74, 47
2, 162240, Note_on_c, 0, 74, 47
2, 162720, Note_off_c, 0, 74, 47
2, 162720, Note_on_c, 0, 74, 47
2, 163200, Note_off_c, 0, 74, 47
2, 163200, Note_on_c, 0, 74, 47
2, 163680, Note_off_c, 0, 74, 47
2, 163680, Note_on_c, 0, 74, 47
2, 164159, Note_off_c, 0, 74, 47
2, 165120, Note_on_c, 0, 60, 63
2, 166080, Note_off_c, 0, 60, 63
2, 166080, Note_on_c, 0, 69, 63
2, 167040, Note_off_c, 0, 69, 63
2, 167040, Note_on_c, 0, 65, 63
2, 168480, Note_off_c, 0, 65, 63
2, 168480, Note_on_c, 1, 65, 31
2, 168960, Note_off_c, 1, 65, 31
2, 168960, Note_on_c, 0, 57, 63
2, 169920, Note_off_c, 0, 57, 63
2, 169920, Note_on_c, 0, 66, 79
2, 170880, Note_off_c, 0, 66, 79
2, 170880, Note_on_c, 0, 62, 63
2, 172320, Note_off_c, 0, 62, 63
2, 183840, Note_on_c, 0, 60, 95
2, 184320, Note_off_c, 0, 60, 95
2, 184320, Note_on_c, 0, 65, 95
2, 185280, Note_off_c, 0, 65, 95
2, 187200, Note_on_c, 1, 68, 95
2, 187320, Pitch_bend_c, 1, 8320
2, 187440, Pitch_bend_c, 1, 8448
2, 187560, Pitch_bend_c, 1, 8704
2, 187680, Pitch_bend_c, 1, 8832
2, 187680, Pitch_bend_c, 1, 8192
2, 187680, Note_off_c, 1, 68, 95
2, 187680, Note_on_c, 0, 69, 95
2, 188160, Note_off_c, 0, 69, 95
2, 188160, Note_on_c, 0, 65, 95
2, 189120, Note_off_c, 0, 65, 95
2, 192000, Note_on_c, 0, 71, 95
2, 192160, Note_off_c, 0, 71, 95
2, 192160, Note_on_c, 0, 70, 95
2, 192320, Note_off_c, 0, 70, 95
2, 192320, Note_on_c, 0, 69, 95
2, 192480, Note_off_c, 0, 69, 95
2, 192720, Note_on_c, 0, 66, 95
2, 192960, Note_off_c, 0, 66, 95
2, 192960, Note_on_c, 0, 65, 95
2, 193080, Note_off_c, 0, 65, 95
2, 193080, Note_on_c, 0, 64, 95
2, 193200, Note_off_c, 0, 64, 95
2, 193440, Note_on_c, 0, 62, 95
2, 193680, Note_off_c, 0, 62, 95
2, 193680, Note_on_c, 0, 61, 95
2, 193920, Note_off_c, 0, 61, 95
2, 193920, Note_on_c, 0, 60, 95
2, 194160, Note_off_c, 0, 60, 95
2, 194160, Note_on_c, 0, 66, 95
2, 194400, Note_off_c, 0, 66, 95
2, 194400, Note_on_c, 0, 65, 95
2, 194640, Note_off_c, 0, 65, 95
2, 194640, Note_on_c, 0, 64, 95
2, 194880, Note_off_c, 0, 64, 95
2, 195120, Note_on_c, 0, 71, 95
2, 195360, Note_off_c, 0, 71, 95
2, 195360, Note_on_c, 0, 70, 95
2, 195600, Note_off_c, 0, 70, 95
2, 195600, Note_on_c, 0, 69, 95
2, 195840, Note_off_c, 0, 69, 95
2, 196320, Note_on_c, 0, 62, 95
2, 196480, Note_off_c, 0, 62, 95
2, 196480, Note_on_c, 0, 61, 95
2, 196640, Note_off_c, 0, 61, 95
2, 196640, Note_on_c, 0, 60, 95
2, 196800, Note_off_c, 0, 60, 95
2, 196800, Note_on_c, 0, 62, 95
2, 196960, Note_off_c, 0, 62, 95
2, 196960, Note_on_c, 0, 66, 95
2, 197120, Note_off_c, 0, 66, 95
2, 197120, Note_on_c, 0, 65, 95
2, 197280, Note_off_c, 0, 65, 95
2, 197280, Note_on_c, 0, 64, 95
2, 197520, Note_off_c, 0, 64, 95
2, 197520, Note_on_c, 0, 66, 95
2, 197760, Note_off_c, 0, 66, 95
2, 197760, Note_on_c, 0, 71, 95
2, 197920, Note_off_c, 0, 71, 95
2, 197920, Note_on_c, 0, 70, 95
2, 198080, Note_off_c, 0, 70, 95
2, 198080, Note_on_c, 0, 69, 95
2, 198240, Note_off_c, 0, 69, 95
2, 198400, Note_on_c, 0, 66, 95
2, 198560, Note_off_c, 0, 66, 95
2, 198560, Note_on_c, 0, 65, 95
2, 198720, Note_off_c, 0, 65, 95
2, 198720, Note_on_c, 0, 64, 95
2, 198960, Note_off_c, 0, 64, 95
2, 198960, Note_on_c, 0, 66, 95
2, 199200, Note_off_c, 0, 66, 95
2, 199200, Note_on_c, 0, 69, 95
2, 199560, Note_on_c, 1, 69, 79
2, 199680, Note_off_c, 0, 69, 95
2, 199680, Note_off_c, 1, 69, 79
2, 199680, Note_on_c, 1, 70, 95
2, 200160, Note_off_c, 1, 70, 95
2, 200640, Note_on_c, 0, 67, 95
2, 200880, Note_off_c, 0, 67, 95
2, 202080, Note_on_c, 0, 72, 95
2, 202320, Note_off_c, 0, 72, 95
2, 202320, Note_on_c, 0, 70, 70
2, 202560, Note_off_c, 0, 70, 70
2, 202560, Note_on_c, 0, 72, 95
2, 202800, Note_off_c, 0, 72, 95
2, 202800, Note_on_c, 0, 70, 70
2, 203040, Note_off_c, 0, 70, 70
2, 203040, Note_on_c, 0, 67, 95
2, 203280, Note_off_c, 0, 67, 95
2, 203280, Note_on_c, 0, 65, 70
2, 203520, Note_off_c, 0, 65, 70
2, 203520, Note_on_c, 0, 67, 95
2, 203760, Note_off_c, 0, 67, 95
2, 203760, Note_on_c, 0, 65, 70
2, 204000, Note_off_c, 0, 65, 70
2, 204000, Note_on_c, 0, 63, 95
2, 204240, Note_off_c, 0, 63, 95
2, 204240, Note_on_c, 0, 61, 70
2, 204480, Note_off_c, 0, 61, 70
2, 204480, Note_on_c, 0, 63, 95
2, 204720, Note_off_c, 0, 63, 95
2, 204720, Note_on_c, 0, 61, 70
2, 204960, Note_off_c, 0, 61, 70
2, 204960, Note_on_c, 0, 63, 95
2, 205200, Note_off_c, 0, 63, 95
2, 205200, Note_on_c, 0, 61, 70
2, 205440, Note_off_c, 0, 61, 70
2, 205440, Note_on_c, 0, 63, 95
2, 205680, Note_off_c, 0, 63, 95
2, 205680, Note_on_c, 0, 61, 70
2, 205920, Note_off_c, 0, 61, 70
2, 205920, Note_on_c, 0, 63, 95
2, 206160, Note_off_c, 0, 63, 95
2, 206160, Note_on_c, 0, 61, 70
2, 206400, Note_off_c, 0, 61, 70
2, 206400, Note_on_c, 0, 63, 95
2, 206640, Note_off_c, 0, 63, 95
2, 206640, Note_on_c, 0, 61, 70
2, 206880, Note_off_c, 0, 61, 70
2, 206880, Note_on_c, 0, 63, 95
2, 207120, Note_off_c, 0, 63, 95
2, 207120, Note_on_c, 0, 61, 70
2, 207360, Note_off_c, 0, 61, 70
2, 207360, Note_on_c, 0, 60, 95
2, 207840, Note_off_c, 0, 60, 95
2, 208320, Note_on_c, 0, 65, 95
2, 208800, Note_off_c, 0, 65, 95
2, 209280, Note_on_c, 0, 69, 95
2, 209760, Note_off_c, 0, 69, 95
2, 210240, Note_on_c, 0, 72, 95
2, 210960, Note_off_c, 0, 72, 95
2, 210960, Note_on_c, 1, 72, 95
2, 211080, Pitch_bend_c, 1, 9216
2, 211200, Pitch_bend_c, 1, 10240
2, 211200, Pitch_bend_c, 1, 8192
2, 211200, Note_off_c, 1, 72, 95
2, 211200, Note_on_c, 0, 75, 95
2, 211680, Note_off_c, 0, 75, 95
2, 211680, Note_on_c, 0, 74, 95
2, 212160, Note_off_c, 0, 74, 95
2, 212160, Note_on_c, 0, 76, 95
2, 213120, Note_off_c, 0, 76, 95
2, 215040, Note_on_c, 0, 70, 79
2, 215040, Note_on_c, 0, 67, 79
2, 215280, Note_off_c, 0, 70, 79
2, 215280, Note_off_c, 0, 67, 79
2, 215280, Note_on_c, 0, 77, 79
2, 215280, Note_on_c, 0, 70, 79
2, 215520, Note_off_c, 0, 77, 79
2, 215520, Note_off_c, 0, 70, 79
2, 216960, Note_on_c, 0, 81, 79
2, 216960, Note_on_c, 0, 74, 79
2, 216960, Note_on_c, 0, 70, 79
2, 216960, Note_on_c, 0, 64, 79
2, 217200, Note_off_c, 0, 81, 79
2, 217200, Note_off_c, 0, 74, 79
2, 217200, Note_off_c, 0, 70, 79
2, 217200, Note_off_c, 0, 64, 79
2, 218640, Note_on_c, 0, 77, 79
2, 218640, Note_on_c, 0, 65, 79
2, 219120, Note_off_c, 0, 77, 79
2, 219120, Note_off_c, 0, 65, 79
2, 219120, Note_on_c, 0, 77, 79
2, 219120, Note_on_c, 0, 65, 79
2, 219360, Note_off_c, 0, 77, 79
2, 219360, Note_off_c, 0, 65, 79
2, 219360, Note_on_c, 0, 77, 79
2, 219360, Note_on_c, 0, 65, 79
2, 219840, Note_off_c, 0, 77, 79
2, 219840, Note_off_c, 0, 65, 79
2, 219840, Note_on_c, 0, 77, 79
2, 219840, Note_on_c, 0, 69, 79
2, 219840, Note_on_c, 0, 67, 79
2, 219840, Note_on_c, 0, 63, 79
2, 220320, Note_off_c, 0, 77, 79
2, 220320, Note_off_c, 0, 69, 79
2, 220320, Note_off_c, 0, 67, 79
2, 220320, Note_off_c, 0, 63, 79
2, 220320, Note_on_c, 0, 77, 79
2, 220320, Note_on_c, 0, 69, 79
2, 220320, Note_on_c, 0, 55, 79
2, 220800, Note_off_c, 0, 77, 79
2, 220800, Note_off_c, 0, 69, 79
2, 220800, Note_off_c, 0, 55, 79
2, 220800, Note_on_c, 0, 77, 79
2, 220800, Note_on_c, 0, 70, 79
2, 220800, Note_on_c, 0, 67, 79
2, 221280, Note_off_c, 0, 77, 79
2, 221280, Note_off_c, 0, 70, 79
2, 221280, Note_off_c, 0, 67, 79
2, 221280, Note_on_c, 0, 59, 79
2, 221760, Note_off_c, 0, 59, 79
2, 221760, Note_on_c, 0, 77, 79
2, 221760, Note_on_c, 0, 71, 79
2, 221760, Note_on_c, 0, 68, 79
2, 222240, Note_off_c, 0, 77, 79
2, 222240, Note_off_c, 0, 71, 79
2, 222240, Note_off_c, 0, 68, 79
2, 222720, Pitch_bend_c, 1, 8192
2, 222720, Note_on_c, 1, 80, 79
2, 222720, Pitch_bend_c, 1, 8192
2, 222720, Note_on_c, 1, 74, 79
2, 222900, Pitch_bend_c, 1, 8320
2, 222900, Pitch_bend_c, 1, 8320
2, 223080, Pitch_bend_c, 1, 8448
2, 223080, Pitch_bend_c, 1, 8448
2, 223080, Pitch_bend_c, 1, 8448
2, 223080, Pitch_bend_c, 1, 8448
2, 223440, Pitch_bend_c, 1, 8448
2, 223440, Pitch_bend_c, 1, 8192
2, 223440, Note_off_c, 1, 80, 79
2, 223440, Pitch_bend_c, 1, 8448
2, 223440, Pitch_bend_c, 1, 8192
2, 223440, Note_off_c, 1, 74, 79
2, 223440, Note_on_c, 0, 75, 79
2, 223440, Note_on_c, 0, 70, 79
2, 223680, Note_off_c, 0, 75, 79
2, 223680, Note_off_c, 0, 70, 79
2, 223680, Pitch_bend_c, 1, 8192
2, 223680, Note_on_c, 1, 75, 79
2, 223680, Pitch_bend_c, 1, 8192
2, 223680, Note_on_c, 1, 70, 79
2, 223740, Pitch_bend_c, 1, 8320
2, 223740, Pitch_bend_c, 1, 8320
2, 223800, Pitch_bend_c, 1, 8448
2, 223800, Pitch_bend_c, 1, 8448
2, 223800, Pitch_bend_c, 1, 8448
2, 223800, Pitch_bend_c, 1, 8448
2, 223920, Pitch_bend_c, 1, 8448
2, 223920, Pitch_bend_c, 1, 8192
2, 223920, Note_off_c, 1, 75, 79
2, 223920, Pitch_bend_c, 1, 8448
2, 223920, Pitch_bend_c, 1, 8192
2, 223920, Note_off_c, 1, 70, 79
2, 224880, Note_on_c, 0, 75, 79
2, 224880, Note_on_c, 0, 70, 79
2, 224880, Note_on_c, 0, 65, 79
2, 224880, Note_on_c, 0, 60, 79
2, 225120, Note_off_c, 0, 75, 79
2, 225120, Note_off_c, 0, 70, 79
2, 225120, Note_off_c, 0, 65, 79
2, 225120, Note_off_c, 0, 60, 79
2, 225120, Note_on_c, 0, 76, 79
2, 225120, Note_on_c, 0, 71, 79
2, 225120, Note_on_c, 0, 66, 79
2, 225120, Note_on_c, 0, 61, 79
2, 225360, Note_off_c, 0, 76, 79
2, 225360, Note_off_c, 0, 71, 79
2, 225360, Note_off_c, 0, 66, 79
2, 225360, Note_off_c, 0, 61, 79
2, 225360, Note_on_c, 0, 77, 79
2, 225360, Note_on_c, 0, 72, 79
2, 225360, Note_on_c, 0, 67, 79
2, 225360, Note_on_c, 0, 62, 79
2, 225600, Note_off_c, 0, 77, 79
2, 225600, Note_off_c, 0, 72, 79
2, 225600, Note_off_c, 0, 67, 79
2, 225600, Note_off_c, 0, 62, 79
2, 226320, Note_on_c, 0, 75, 79
2, 226320, Note_on_c, 0, 70, 79
2, 226320, Note_on_c, 0, 65, 79
2, 226320, Note_on_c, 0, 60, 79
2, 226560, Note_off_c, 0, 75, 79
2, 226560, Note_off_c, 0, 70, 79
2, 226560, Note_off_c, 0, 65, 79
2, 226560, Note_off_c, 0, 60, 79
2, 226560, Note_on_c, 0, 76, 79
2, 226560, Note_on_c, 0, 71, 79
2, 226560, Note_on_c, 0, 66, 79
2, 226560, Note_on_c, 0, 61, 79
2, 226800, Note_off_c, 0, 76, 79
2, 226800, Note_off_c, 0, 71, 79
2, 226800, Note_off_c, 0, 66, 79
2, 226800, Note_off_c, 0, 61, 79
2, 226800, Note_on_c, 0, 77, 79
2, 226800, Note_on_c, 0, 72, 79
2, 226800, Note_on_c, 0, 67, 79
2, 226800, Note_on_c, 0, 62, 79
2, 227040, Note_off_c, 0, 77, 79
2, 227040, Note_off_c, 0, 72, 79
2, 227040, Note_off_c, 0, 67, 79
2, 227040, Note_off_c, 0, 62, 79
2, 227520, Note_on_c, 0, 41, 79
2, 227760, Note_off_c, 0, 41, 79
2, 228960, Note_on_c, 0, 71, 79
2, 228960, Note_on_c, 0, 67, 79
2, 228960, Note_on_c, 0, 62, 79
2, 228960, Note_on_c, 0, 53, 95
2, 229200, Note_off_c, 0, 71, 79
2, 229200, Note_off_c, 0, 67, 79
2, 229200, Note_off_c, 0, 62, 79
2, 229200, Note_off_c, 0, 53, 95
2, 229200, End_track
3, 0, Start_track
3, 0, Pitch_bend_c, 2, 8192
3, 0, Control_c, 2, 7, 63
3, 0, Control_c, 2, 10, 47
3, 0, Control_c, 2, 93, 0
3, 0, Control_c, 2, 91, 0
3, 0, Control_c, 2, 95, 0
3, 0, Control_c, 2, 92, 0
3, 0, Control_c, 2, 11, 127
3, 0, Program_c, 2, 26
3, 0, Control_c, 3, 7, 63
3, 0, Control_c, 3, 10, 47
3, 0, Control_c, 3, 93, 0
3, 0, Control_c, 3, 91, 0
3, 0, Control_c, 3, 95, 0
3, 0, Control_c, 3, 92, 0
3, 0, Control_c, 3, 11, 127
3, 0, Program_c, 3, 26
3, 2880, Note_on_c, 3, 43, 95
3, 3000, Pitch_bend_c, 3, 8576
3, 3120, Pitch_bend_c, 3, 8960
3, 3240, Pitch_bend_c, 3, 9472
3, 3360, Pitch_bend_c, 3, 9856
3, 3480, Pitch_bend_c, 3, 10368
3, 3600, Pitch_bend_c, 3, 10752
3, 3720, Pitch_bend_c, 3, 11264
3, 3840, Pitch_bend_c, 3, 11648
3, 3840, Pitch_bend_c, 3, 8192
3, 3840, Note_off_c, 3, 43, 95
3, 3840, Note_on_c, 2, 48, 95
3, 4320, Note_off_c, 2, 48, 95
3, 4320, Note_on_c, 2, 64, 95
3, 4320, Note_on_c, 2, 60, 95
3, 4800, Note_off_c, 2, 64, 95
3, 4800, Note_off_c, 2, 60, 95
3, 4800, Note_on_c, 2, 50, 95
3, 4908, Note_off_c, 2, 50, 95
3, 5040, Note_on_c, 2, 65, 95
3, 5280, Note_off_c, 2, 65, 95
3, 5280, Note_on_c, 2, 62, 95
3, 5400, Note_off_c, 2, 62, 95
3, 5520, Note_on_c, 2, 65, 95
3, 5760, Note_off_c, 2, 65, 95
3, 5760, Note_on_c, 2, 52, 95
3, 5868, Note_off_c, 2, 52, 95
3, 6000, Note_on_c, 2, 67, 95
3, 6240, Note_off_c, 2, 67, 95
3, 6240, Note_on_c, 2, 64, 95
3, 6360, Note_off_c, 2, 64, 95
3, 6480, Note_on_c, 2, 67, 95
3, 6720, Note_off_c, 2, 67, 95
3, 6720, Note_on_c, 2, 53, 95
3, 6828, Note_off_c, 2, 53, 95
3, 6960, Note_on_c, 2, 69, 95
3, 7200, Note_off_c, 2, 69, 95
3, 7200, Note_on_c, 2, 65, 95
3, 7320, Note_off_c, 2, 65, 95
3, 7440, Note_on_c, 2, 69, 95
3, 7680, Note_off_c, 2, 69, 95
3, 7680, Note_on_c, 2, 52, 95
3, 7788, Note_off_c, 2, 52, 95
3, 7920, Note_on_c, 2, 67, 95
3, 8160, Note_off_c, 2, 67, 95
3, 8160, Note_on_c, 2, 64, 95
3, 8280, Note_off_c, 2, 64, 95
3, 8400, Note_on_c, 2, 67, 95
3, 8640, Note_off_c, 2, 67, 95
3, 8640, Note_on_c, 2, 50, 95
3, 8748, Note_off_c, 2, 50, 95
3, 8880, Note_on_c, 2, 65, 95
3, 9120, Note_off_c, 2, 65, 95
3, 9120, Note_on_c, 2, 62, 95
3, 9240, Note_off_c, 2, 62, 95
3, 9360, Note_on_c, 2, 65, 95
3, 9600, Note_off_c, 2, 65, 95
3, 9600, Note_on_c, 2, 48, 95
3, 9708, Note_off_c, 2, 48, 95
3, 9840, Note_on_c, 2, 64, 95
3, 10080, Note_off_c, 2, 64, 95
3, 10080, Note_on_c, 2, 60, 95
3, 10200, Note_off_c, 2, 60, 95
3, 10320, Note_on_c, 2, 64, 95
3, 10560, Note_off_c, 2, 64, 95
3, 10560, Note_on_c, 2, 46, 95
3, 10668, Note_off_c, 2, 46, 95
3, 10800, Note_on_c, 2, 62, 95
3, 11040, Note_off_c, 2, 62, 95
3, 11040, Note_on_c, 2, 58, 95
3, 11160, Note_off_c, 2, 58, 95
3, 11280, Note_on_c, 2, 62, 95
3, 11520, Note_off_c, 2, 62, 95
3, 11520, Note_on_c, 2, 45, 95
3, 11628, Note_off_c, 2, 45, 95
3, 11760, Note_on_c, 2, 60, 95
3, 12000, Note_off_c, 2, 60, 95
3, 12000, Note_on_c, 2, 57, 95
3, 12120, Note_off_c, 2, 57, 95
3, 12240, Note_on_c, 2, 60, 95
3, 12480, Note_off_c, 2, 60, 95
3, 12480, Note_on_c, 2, 44, 95
3, 12588, Note_off_c, 2, 44, 95
3, 12720, Note_on_c, 2, 59, 95
3, 12960, Note_off_c, 2, 59, 95
3, 12960, Note_on_c, 2, 56, 95
3, 13080, Note_off_c, 2, 56, 95
3, 13200, Note_on_c, 2, 59, 95
3, 13440, Note_off_c, 2, 59, 95
3, 13440, Note_on_c, 2, 43, 95
3, 13548, Note_off_c, 2, 43, 95
3, 13680, Note_on_c, 2, 58, 95
3, 13920, Note_off_c, 2, 58, 95
3, 13920, Note_on_c, 2, 55, 95
3, 14040, Note_off_c, 2, 55, 95
3, 14160, Note_on_c, 2, 58, 95
3, 14400, Note_off_c, 2, 58, 95
3, 14400, Note_on_c, 2, 42, 95
3, 14508, Note_off_c, 2, 42, 95
3, 14640, Note_on_c, 2, 58, 95
3, 14880, Note_off_c, 2, 58, 95
3, 14880, Note_on_c, 2, 54, 95
3, 15000, Note_off_c, 2, 54, 95
3, 15120, Note_on_c, 2, 58, 95
3, 15360, Note_off_c, 2, 58, 95
3, 15360, Note_on_c, 2, 41, 95
3, 15468, Note_off_c, 2, 41, 95
3, 15600, Note_on_c, 2, 57, 95
3, 15840, Note_off_c, 2, 57, 95
3, 15840, Note_on_c, 2, 53, 95
3, 15960, Note_off_c, 2, 53, 95
3, 16080, Note_on_c, 2, 57, 95
3, 16320, Note_off_c, 2, 57, 95
3, 16320, Note_on_c, 2, 43, 95
3, 16428, Note_off_c, 2, 43, 95
3, 16560, Note_on_c, 2, 57, 95
3, 16800, Note_off_c, 2, 57, 95
3, 16800, Note_on_c, 2, 53, 95
3, 16920, Note_off_c, 2, 53, 95
3, 17040, Note_on_c, 2, 57, 95
3, 17280, Note_off_c, 2, 57, 95
3, 17280, Note_on_c, 2, 44, 95
3, 17388, Note_off_c, 2, 44, 95
3, 17520, Note_on_c, 2, 59, 95
3, 17760, Note_off_c, 2, 59, 95
3, 17760, Note_on_c, 2, 53, 95
3, 17880, Note_off_c, 2, 53, 95
3, 18000, Note_on_c, 2, 59, 95
3, 18240, Note_off_c, 2, 59, 95
3, 18240, Note_on_c, 2, 45, 95
3, 18348, Note_off_c, 2, 45, 95
3, 18480, Note_on_c, 2, 60, 95
3, 18720, Note_off_c, 2, 60, 95
3, 18720, Note_on_c, 2, 53, 95
3, 18840, Note_off_c, 2, 53, 95
3, 18960, Note_on_c, 2, 60, 95
3, 19200, Note_off_c, 2, 60, 95
3, 19200, Note_on_c, 2, 43, 95
3, 19308, Note_off_c, 2, 43, 95
3, 19440, Note_on_c, 2, 58, 95
3, 19680, Note_off_c, 2, 58, 95
3, 19680, Note_on_c, 2, 52, 95
3, 19800, Note_off_c, 2, 52, 95
3, 19920, Note_on_c, 2, 58, 95
3, 20160, Note_off_c, 2, 58, 95
3, 20160, Note_on_c, 2, 45, 95
3, 20268, Note_off_c, 2, 45, 95
3, 20400, Note_on_c, 2, 60, 95
3, 20640, Note_off_c, 2, 60, 95
3, 20640, Note_on_c, 2, 53, 95
3, 20760, Note_off_c, 2, 53, 95
3, 20880, Note_on_c, 2, 60, 95
3, 21120, Note_off_c, 2, 60, 95
3, 21120, Note_on_c, 2, 46, 95
3, 21228, Note_off_c, 2, 46, 95
3, 21360, Note_on_c, 2, 62, 95
3, 21600, Note_off_c, 2, 62, 95
3, 21600, Note_on_c, 2, 55, 95
3, 21720, Note_off_c, 2, 55, 95
3, 21840, Note_on_c, 2, 62, 95
3, 22080, Note_off_c, 2, 62, 95
3, 22080, Note_on_c, 2, 45, 95
3, 22188, Note_off_c, 2, 45, 95
3, 22320, Note_on_c, 2, 60, 95
3, 22560, Note_off_c, 2, 60, 95
3, 22560, Note_on_c, 2, 53, 95
3, 22680, Note_off_c, 2, 53, 95
3, 22800, Note_on_c, 2, 60, 95
3, 23040, Note_off_c, 2, 60, 95
3, 23040, Note_on_c, 2, 44, 95
3, 23148, Note_off_c, 2, 44, 95
3, 23280, Note_on_c, 2, 59, 95
3, 23520, Note_off_c, 2, 59, 95
3, 23520, Note_on_c, 2, 53, 95
3, 23640, Note_off_c, 2, 53, 95
3, 23760, Note_on_c, 2, 59, 95
3, 24000, Note_off_c, 2, 59, 95
3, 24000, Note_on_c, 2, 43, 95
3, 24108, Note_off_c, 2, 43, 95
3, 24240, Note_on_c, 2, 58, 95
3, 24480, Note_off_c, 2, 58, 95
3, 24480, Note_on_c, 2, 52, 95
3, 24600, Note_off_c, 2, 52, 95
3, 24720, Note_on_c, 2, 58, 95
3, 24960, Note_off_c, 2, 58, 95
3, 24960, Note_on_c, 2, 45, 95
3, 25068, Note_off_c, 2, 45, 95
3, 25200, Note_on_c, 2, 60, 95
3, 25440, Note_off_c, 2, 60, 95
3, 25440, Note_on_c, 2, 53, 95
3, 25560, Note_off_c, 2, 53, 95
3, 25680, Note_on_c, 2, 60, 95
3, 25920, Note_off_c, 2, 60, 95
3, 25920, Note_on_c, 2, 43, 95
3, 26028, Note_off_c, 2, 43, 95
3, 26160, Note_on_c, 2, 58, 95
3, 26400, Note_off_c, 2, 58, 95
3, 26400, Note_on_c, 2, 52, 95
3, 26520, Note_off_c, 2, 52, 95
3, 26640, Note_on_c, 2, 58, 95
3, 26880, Note_off_c, 2, 58, 95
3, 26880, Note_on_c, 2, 41, 95
3, 26988, Note_off_c, 2, 41, 95
3, 27120, Note_on_c, 2, 57, 95
3, 27360, Note_off_c, 2, 57, 95
3, 27360, Note_on_c, 2, 53, 95
3, 27480, Note_off_c, 2, 53, 95
3, 27600, Note_on_c, 2, 57, 95
3, 27840, Note_off_c, 2, 57, 95
3, 27840, Note_on_c, 2, 43, 95
3, 27948, Note_off_c, 2, 43, 95
3, 28080, Note_on_c, 2, 58, 95
3, 28320, Note_off_c, 2, 58, 95
3, 28320, Note_on_c, 2, 52, 95
3, 28440, Note_off_c, 2, 52, 95
3, 28560, Note_on_c, 2, 58, 95
3, 28800, Note_off_c, 2, 58, 95
3, 28800, Note_on_c, 2, 44, 95
3, 28908, Note_off_c, 2, 44, 95
3, 29040, Note_on_c, 2, 59, 95
3, 29280, Note_off_c, 2, 59, 95
3, 29280, Note_on_c, 2, 53, 95
3, 29400, Note_off_c, 2, 53, 95
3, 29520, Note_on_c, 2, 59, 95
3, 29760, Note_off_c, 2, 59, 95
3, 29760, Note_on_c, 2, 45, 95
3, 29868, Note_off_c, 2, 45, 95
3, 30000, Note_on_c, 2, 60, 95
3, 30240, Note_off_c, 2, 60, 95
3, 30240, Note_on_c, 2, 53, 95
3, 30360, Note_off_c, 2, 53, 95
3, 30480, Note_on_c, 2, 60, 95
3, 30720, Note_off_c, 2, 60, 95
3, 30720, Note_on_c, 2, 46, 95
3, 30828, Note_off_c, 2, 46, 95
3, 30960, Note_on_c, 2, 61, 95
3, 31200, Note_off_c, 2, 61, 95
3, 31200, Note_on_c, 2, 55, 95
3, 31320, Note_off_c, 2, 55, 95
3, 31440, Note_on_c, 2, 61, 95
3, 31680, Note_off_c, 2, 61, 95
3, 31680, Note_on_c, 2, 47, 95
3, 31788, Note_off_c, 2, 47, 95
3, 31920, Note_on_c, 2, 62, 95
3, 32160, Note_off_c, 2, 62, 95
3, 32160, Note_on_c, 2, 56, 95
3, 32280, Note_off_c, 2, 56, 95
3, 32400, Note_on_c, 2, 62, 95
3, 32640, Note_off_c, 2, 62, 95
3, 32640, Note_on_c, 2, 48, 95
3, 32748, Note_off_c, 2, 48, 95
3, 32880, Note_on_c, 2, 63, 95
3, 33120, Note_off_c, 2, 63, 95
3, 33120, Note_on_c, 2, 57, 95
3, 33240, Note_off_c, 2, 57, 95
3, 33360, Note_on_c, 2, 63, 95
3, 33600, Note_off_c, 2, 63, 95
3, 33600, Note_on_c, 2, 51, 95
3, 34080, Note_off_c, 2, 51, 95
3, 34080, Note_on_c, 2, 55, 95
3, 34560, Note_off_c, 2, 55, 95
3, 64320, Note_on_c, 2, 64, 79
3, 64560, Note_off_c, 2, 64, 79
3, 64560, Note_on_c, 2, 64, 79
3, 64800, Note_off_c, 2, 64, 79
3, 64800, Note_on_c, 2, 64, 79
3, 65040, Note_off_c, 2, 64, 79
3, 65040, Note_on_c, 2, 64, 95
3, 65280, Note_off_c, 2, 64, 95
3, 65280, Pitch_bend_c, 3, 8192
3, 65280, Note_on_c, 3, 69, 95
3, 65412, Pitch_bend_c, 3, 8320
3, 65544, Pitch_bend_c, 3, 8448
3, 65676, Pitch_bend_c, 3, 8576
3, 65808, Pitch_bend_c, 3, 8704
3, 65940, Pitch_bend_c, 3, 8832
3, 65940, Pitch_bend_c, 3, 8832
3, 66600, Pitch_bend_c, 3, 8832
3, 66732, Pitch_bend_c, 3, 8704
3, 66864, Pitch_bend_c, 3, 8576
3, 66996, Pitch_bend_c, 3, 8448
3, 67128, Pitch_bend_c, 3, 8320
3, 67260, Pitch_bend_c, 3, 8192
3, 67260, Pitch_bend_c, 3, 8192
3, 67920, Pitch_bend_c, 3, 8192
3, 67920, Pitch_bend_c, 3, 8192
3, 67920, Note_off_c, 3, 69, 95
3, 68160, Note_on_c, 2, 64, 79
3, 68400, Note_off_c, 2, 64, 79
3, 68400, Note_on_c, 2, 64, 79
3, 68640, Note_off_c, 2, 64, 79
3, 68640, Note_on_c, 2, 64, 79
3, 68880, Note_off_c, 2, 64, 79
3, 68880, Note_on_c, 2, 64, 95
3, 69120, Note_off_c, 2, 64, 95
3, 69120, Pitch_bend_c, 3, 8192
3, 69120, Note_on_c, 3, 69, 95
3, 69252, Pitch_bend_c, 3, 8320
3, 69384, Pitch_bend_c, 3, 8448
3, 69516, Pitch_bend_c, 3, 8576
3, 69648, Pitch_bend_c, 3, 8704
3, 69780, Pitch_bend_c, 3, 8832
3, 69780, Pitch_bend_c, 3, 8832
3, 70440, Pitch_bend_c, 3, 8832
3, 70572, Pitch_bend_c, 3, 8704
3, 70704, Pitch_bend_c, 3, 8576
3, 70836, Pitch_bend_c, 3, 8448
3, 70968, Pitch_bend_c, 3, 8320
3, 71100, Pitch_bend_c, 3, 8192
3, 71100, Pitch_bend_c, 3, 8192
3, 71760, Pitch_bend_c, 3, 8192
3, 71760, Pitch_bend_c, 3, 8192
3, 71760, Note_off_c, 3, 69, 95
3, 72000, Note_on_c, 2, 65, 79
3, 72240, Note_off_c, 2, 65, 79
3, 72240, Note_on_c, 2, 65, 79
3, 72480, Note_off_c, 2, 65, 79
3, 72480, Note_on_c, 2, 65, 79
3, 72720, Note_off_c, 2, 65, 79
3, 72720, Note_on_c, 2, 65, 79
3, 72960, Note_off_c, 2, 65, 79
3, 72960, Note_on_c, 2, 69, 95
3, 73680, Note_off_c, 2, 69, 95
3, 73680, Note_on_c, 2, 72, 95
3, 73920, Note_off_c, 2, 72, 95
3, 75840, Note_on_c, 2, 65, 95
3, 76080, Note_off_c, 2, 65, 95
3, 76080, Note_on_c, 2, 65, 95
3, 76320, Note_off_c, 2, 65, 95
3, 76320, Note_on_c, 2, 65, 95
3, 76560, Note_off_c, 2, 65, 95
3, 76560, Note_on_c, 2, 65, 95
3, 76800, Note_off_c, 2, 65, 95
3, 76800, Note_on_c, 2, 69, 95
3, 77520, Note_off_c, 2, 69, 95
3, 77520, Note_on_c, 2, 72, 95
3, 77760, Note_off_c, 2, 72, 95
3, 79680, Note_on_c, 2, 64, 95
3, 79920, Note_off_c, 2, 64, 95
3, 79920, Note_on_c, 2, 64, 95
3, 80160, Note_off_c, 2, 64, 95
3, 80160, Note_on_c, 2, 64, 95
3, 80400, Note_off_c, 2, 64, 95
3, 80400, Note_on_c, 2, 64, 95
3, 80640, Note_off_c, 2, 64, 95
3, 80640, Pitch_bend_c, 3, 8192
3, 80640, Note_on_c, 3, 69, 95
3, 80760, Pitch_bend_c, 3, 8320
3, 80880, Pitch_bend_c, 3, 8448
3, 81000, Pitch_bend_c, 3, 8576
3, 81120, Pitch_bend_c, 3, 8704
3, 81240, Pitch_bend_c, 3, 8832
3, 81240, Pitch_bend_c, 3, 8832
3, 81840, Pitch_bend_c, 3, 8832
3, 81960, Pitch_bend_c, 3, 8704
3, 82080, Pitch_bend_c, 3, 8576
3, 82200, Pitch_bend_c, 3, 8448
3, 82320, Pitch_bend_c, 3, 8320
3, 82440, Pitch_bend_c, 3, 8192
3, 82440, Pitch_bend_c, 3, 8192
3, 83040, Pitch_bend_c, 3, 8192
3, 83040, Pitch_bend_c, 3, 8192
3, 83040, Note_off_c, 3, 69, 95
3, 83520, Note_on_c, 2, 64, 95
3, 83760, Note_off_c, 2, 64, 95
3, 83760, Note_on_c, 2, 64, 95
3, 84000, Note_off_c, 2, 64, 95
3, 84000, Note_on_c, 2, 64, 95
3, 84240, Note_off_c, 2, 64, 95
3, 84240, Note_on_c, 2, 64, 95
3, 84480, Note_off_c, 2, 64, 95
3, 84480, Pitch_bend_c, 3, 8192
3, 84480, Note_on_c, 3, 69, 95
3, 84600, Pitch_bend_c, 3, 8320
3, 84720, Pitch_bend_c, 3, 8448
3, 84840, Pitch_bend_c, 3, 8576
3, 84960, Pitch_bend_c, 3, 8704
3, 85080, Pitch_bend_c, 3, 8832
3, 85080, Pitch_bend_c, 3, 8832
3, 85680, Pitch_bend_c, 3, 8832
3, 85800, Pitch_bend_c, 3, 8704
3, 85920, Pitch_bend_c, 3, 8576
3, 86040, Pitch_bend_c, 3, 8448
3, 86160, Pitch_bend_c, 3, 8320
3, 86280, Pitch_bend_c, 3, 8192
3, 86280, Pitch_bend_c, 3, 8192
3, 86880, Pitch_bend_c, 3, 8192
3, 86880, Pitch_bend_c, 3, 8192
3, 86880, Note_off_c, 3, 69, 95
3, 87360, Note_on_c, 2, 65, 127
3, 87600, Note_off_c, 2, 65, 127
3, 87600, Note_on_c, 2, 65, 111
3, 87840, Note_off_c, 2, 65, 111
3, 87840, Note_on_c, 2, 65, 111
3, 88080, Note_off_c, 2, 65, 111
3, 88080, Note_on_c, 2, 65, 111
3, 88320, Note_off_c, 2, 65, 111
3, 88320, Note_on_c, 2, 69, 95
3, 89040, Note_off_c, 2, 69, 95
3, 89040, Note_on_c, 2, 72, 95
3, 90720, Note_off_c, 2, 72, 95
3, 90720, Note_on_c, 3, 72, 95
3, 91200, Note_off_c, 3, 72, 95
3, 96000, Note_on_c, 2, 57, 95
3, 97440, Note_off_c, 2, 57, 95
3, 97440, Note_on_c, 2, 58, 95
3, 97920, Note_off_c, 2, 58, 95
3, 97920, Note_on_c, 2, 60, 95
3, 99360, Note_off_c, 2, 60, 95
3, 99360, Note_on_c, 2, 58, 95
3, 99840, Note_off_c, 2, 58, 95
3, 99840, Note_on_c, 2, 57, 95
3, 101280, Note_off_c, 2, 57, 95
3, 101280, Note_on_c, 2, 55, 95
3, 101760, Note_off_c, 2, 55, 95
3, 101760, Note_on_c, 2, 54, 95
3, 103200, Note_off_c, 2, 54, 95
3, 103200, Note_on_c, 2, 50, 95
3, 103680, Note_off_c, 2, 50, 95
3, 103680, Note_on_c, 2, 43, 95
3, 106560, Note_off_c, 2, 43, 95
3, 106560, Note_on_c, 2, 45, 95
3, 107520, Note_off_c, 2, 45, 95
3, 107520, Note_on_c, 2, 46, 95
3, 111360, Note_off_c, 2, 46, 95
3, 111360, Note_on_c, 3, 48, 95
3, 111480, Pitch_bend_c, 3, 8576
3, 111600, Pitch_bend_c, 3, 8960
3, 111720, Pitch_bend_c, 3, 9472
3, 111840, Pitch_bend_c, 3, 9856
3, 111960, Pitch_bend_c, 3, 10368
3, 112080, Pitch_bend_c, 3, 10752
3, 112200, Pitch_bend_c, 3, 11264
3, 112320, Pitch_bend_c, 3, 11648
3, 112320, Pitch_bend_c, 3, 8192
3, 112320, Note_off_c, 3, 48, 95
3, 112320, Note_on_c, 2, 53, 95
3, 113280, Note_off_c, 2, 53, 95
3, 113280, Note_on_c, 2, 57, 95
3, 114240, Note_off_c, 2, 57, 95
3, 114240, Note_on_c, 3, 60, 95
3, 114360, Pitch_bend_c, 3, 8448
3, 114480, Pitch_bend_c, 3, 8832
3, 114600, Pitch_bend_c, 3, 9216
3, 114720, Pitch_bend_c, 3, 9600
3, 114840, Pitch_bend_c, 3, 9856
3, 114960, Pitch_bend_c, 3, 10240
3, 115080, Pitch_bend_c, 3, 10624
3, 115200, Pitch_bend_c, 3, 11008
3, 115200, Pitch_bend_c, 3, 8192
3, 115200, Note_off_c, 3, 60, 95
3, 115200, Note_on_c, 2, 64, 95
3, 118080, Note_off_c, 2, 64, 95
3, 118080, Note_on_c, 3, 62, 95
3, 118200, Pitch_bend_c, 3, 7936
3, 118320, Pitch_bend_c, 3, 7552
3, 118440, Pitch_bend_c, 3, 7168
3, 118560, Pitch_bend_c, 3, 6784
3, 118680, Pitch_bend_c, 3, 6528
3, 118800, Pitch_bend_c, 3, 6144
3, 118920, Pitch_bend_c, 3, 5760
3, 119040, Pitch_bend_c, 3, 5376
3, 119040, Pitch_bend_c, 3, 8192
3, 119040, Note_off_c, 3, 62, 95
3, 119040, Note_on_c, 2, 58, 95
3, 120960, Note_off_c, 2, 58, 95
3, 120960, Note_on_c, 2, 57, 95
3, 122400, Note_off_c, 2, 57, 95
3, 122400, Note_on_c, 3, 57, 47
3, 122520, Pitch_bend_c, 3, 7552
3, 122640, Pitch_bend_c, 3, 6784
3, 122760, Pitch_bend_c, 3, 6144
3, 122880, Pitch_bend_c, 3, 5376
3, 122880, Pitch_bend_c, 3, 8192
3, 122880, Note_off_c, 3, 57, 47
3, 122880, Note_on_c, 2, 53, 95
3, 126240, Note_off_c, 2, 53, 95
3, 126240, Note_on_c, 3, 67, 95
3, 126360, Pitch_bend_c, 3, 8704
3, 126480, Pitch_bend_c, 3, 9216
3, 126600, Pitch_bend_c, 3, 9728
3, 126720, Pitch_bend_c, 3, 10240
3, 126720, Pitch_bend_c, 3, 8192
3, 126720, Note_off_c, 3, 67, 95
3, 126720, Note_on_c, 2, 70, 95
3, 126720, Note_on_c, 2, 62, 95
3, 126960, Note_off_c, 2, 70, 95
3, 126960, Note_off_c, 2, 62, 95
3, 126960, Note_on_c, 2, 70, 95
3, 127200, Note_off_c, 2, 70, 95
3, 127200, Note_on_c, 2, 55, 95
3, 127440, Note_off_c, 2, 55, 95
3, 127440, Note_on_c, 2, 64, 95
3, 127680, Note_off_c, 2, 64, 95
3, 127680, Note_on_c, 2, 70, 95
3, 127920, Note_off_c, 2, 70, 95
3, 127920, Note_on_c, 2, 62, 95
3, 128160, Note_off_c, 2, 62, 95
3, 128160, Note_on_c, 2, 64, 95
3, 128400, Note_off_c, 2, 64, 95
3, 128400, Note_on_c, 2, 72, 95
3, 128640, Note_off_c, 2, 72, 95
3, 128640, Note_on_c, 2, 62, 95
3, 128880, Note_off_c, 2, 62, 95
3, 128880, Note_on_c, 2, 72, 95
3, 129120, Note_off_c, 2, 72, 95
3, 129120, Note_on_c, 2, 55, 95
3, 129360, Note_off_c, 2, 55, 95
3, 129360, Note_on_c, 2, 64, 95
3, 129600, Note_off_c, 2, 64, 95
3, 129600, Note_on_c, 2, 72, 95
3, 129840, Note_off_c, 2, 72, 95
3, 129840, Note_on_c, 2, 62, 95
3, 130080, Note_off_c, 2, 62, 95
3, 130080, Note_on_c, 2, 64, 95
3, 130320, Note_off_c, 2, 64, 95
3, 130320, Note_on_c, 2, 70, 95
3, 130560, Note_off_c, 2, 70, 95
3, 130560, Note_on_c, 2, 62, 95
3, 130800, Note_off_c, 2, 62, 95
3, 130800, Note_on_c, 2, 70, 95
3, 131040, Note_off_c, 2, 70, 95
3, 131040, Note_on_c, 2, 55, 95
3, 131280, Note_off_c, 2, 55, 95
3, 131280, Note_on_c, 2, 64, 95
3, 131520, Note_off_c, 2, 64, 95
3, 131520, Note_on_c, 2, 69, 95
3, 131760, Note_off_c, 2, 69, 95
3, 131760, Note_on_c, 2, 60, 95
3, 132000, Note_off_c, 2, 60, 95
3, 132000, Note_on_c, 2, 64, 95
3, 132240, Note_off_c, 2, 64, 95
3, 132240, Note_on_c, 2, 68, 95
3, 132480, Note_off_c, 2, 68, 95
3, 132480, Note_on_c, 2, 59, 95
3, 132720, Note_off_c, 2, 59, 95
3, 132720, Note_on_c, 2, 68, 95
3, 132960, Note_off_c, 2, 68, 95
3, 132960, Note_on_c, 2, 55, 95
3, 133200, Note_off_c, 2, 55, 95
3, 133200, Note_on_c, 2, 64, 95
3, 133440, Note_off_c, 2, 64, 95
3, 133440, Note_on_c, 2, 67, 95
3, 133680, Note_off_c, 2, 67, 95
3, 133680, Note_on_c, 2, 58, 95
3, 133920, Note_off_c, 2, 58, 95
3, 133920, Note_on_c, 2, 64, 95
3, 134160, Note_off_c, 2, 64, 95
3, 134160, Note_on_c, 2, 65, 95
3, 134400, Note_off_c, 2, 65, 95
3, 134400, Note_on_c, 2, 57, 95
3, 134640, Note_off_c, 2, 57, 95
3, 134640, Note_on_c, 2, 65, 95
3, 134880, Note_off_c, 2, 65, 95
3, 134880, Note_on_c, 2, 60, 95
3, 135120, Note_off_c, 2, 60, 95
3, 135120, Note_on_c, 2, 64, 95
3, 135360, Note_on_c, 2, 65, 95
3, 136800, Note_off_c, 2, 64, 95
3, 136800, Note_off_c, 2, 65, 95
3, 136800, Note_on_c, 2, 60, 95
3, 137280, Note_off_c, 2, 60, 95
3, 137280, Note_on_c, 2, 65, 95
3, 137760, Note_off_c, 2, 65, 95
3, 137760, Note_on_c, 2, 67, 95
3, 138240, Note_off_c, 2, 67, 95
3, 138240, Pitch_bend_c, 3, 8192
3, 138240, Note_on_c, 3, 67, 95
3, 138272, Pitch_bend_c, 3, 8320
3, 138304, Pitch_bend_c, 3, 8448
3, 138336, Pitch_bend_c, 3, 8576
3, 138368, Pitch_bend_c, 3, 8704
3, 138400, Pitch_bend_c, 3, 8832
3, 138432, Pitch_bend_c, 3, 8960
3, 138464, Pitch_bend_c, 3, 9088
3, 138496, Pitch_bend_c, 3, 9216
3, 138528, Pitch_bend_c, 3, 9344
3, 138560, Pitch_bend_c, 3, 9472
3, 138592, Pitch_bend_c, 3, 9600
3, 138600, Pitch_bend_c, 3, 9600
3, 138960, Pitch_bend_c, 3, 9600
3, 138992, Pitch_bend_c, 3, 9472
3, 139024, Pitch_bend_c, 3, 9344
3, 139056, Pitch_bend_c, 3, 9216
3, 139088, Pitch_bend_c, 3, 9088
3, 139120, Pitch_bend_c, 3, 8960
3, 139152, Pitch_bend_c, 3, 8832
3, 139184, Pitch_bend_c, 3, 8704
3, 139200, Note_on_c, 2, 72, 95
3, 139216, Pitch_bend_c, 3, 8576
3, 139248, Pitch_bend_c, 3, 8448
3, 139280, Pitch_bend_c, 3, 8320
3, 139312, Pitch_bend_c, 3, 8192
3, 139320, Pitch_bend_c, 3, 8192
3, 139680, Pitch_bend_c, 3, 8192
3, 139680, Pitch_bend_c, 3, 8192
3, 139680, Note_off_c, 3, 67, 95
3, 139680, Note_off_c, 2, 72, 95
3, 139680, Pitch_bend_c, 3, 8192
3, 139680, Note_on_c, 3, 67, 95
3, 139701, Pitch_bend_c, 3, 8320
3, 139722, Pitch_bend_c, 3, 8448
3, 139743, Pitch_bend_c, 3, 8576
3, 139764, Pitch_bend_c, 3, 8704
3, 139785, Pitch_bend_c, 3, 8832
3, 139806, Pitch_bend_c, 3, 8960
3, 139827, Pitch_bend_c, 3, 9088
3, 139848, Pitch_bend_c, 3, 9216
3, 139869, Pitch_bend_c, 3, 9344
3, 139890, Pitch_bend_c, 3, 9472
3, 139911, Pitch_bend_c, 3, 9600
3, 139920, Pitch_bend_c, 3, 9600
3, 140160, Pitch_bend_c, 3, 9600
3, 140181, Pitch_bend_c, 3, 9472
3, 140202, Pitch_bend_c, 3, 9344
3, 140223, Pitch_bend_c, 3, 9216
3, 140244, Pitch_bend_c, 3, 9088
3, 140265, Pitch_bend_c, 3, 8960
3, 140286, Pitch_bend_c, 3, 8832
3, 140307, Pitch_bend_c, 3, 8704
3, 140328, Pitch_bend_c, 3, 8576
3, 140349, Pitch_bend_c, 3, 8448
3, 140370, Pitch_bend_c, 3, 8320
3, 140391, Pitch_bend_c, 3, 8192
3, 140400, Pitch_bend_c, 3, 8192
3, 140640, Pitch_bend_c, 3, 8192
3, 140640, Pitch_bend_c, 3, 8192
3, 140640, Note_off_c, 3, 67, 95
3, 140640, Note_on_c, 2, 65, 95
3, 141120, Note_off_c, 2, 65, 95
3, 141120, Note_on_c, 2, 60, 95
3, 141840, Note_off_c, 2, 60, 95
3, 141840, Pitch_bend_c, 3, 8192
3, 141840, Note_on_c, 3, 66, 95
3, 141912, Pitch_bend_c, 3, 8320
3, 141984, Pitch_bend_c, 3, 8448
3, 142056, Pitch_bend_c, 3, 8576
3, 142128, Pitch_bend_c, 3, 8704
3, 142200, Pitch_bend_c, 3, 8832
3, 142200, Pitch_bend_c, 3, 8832
3, 142560, Pitch_bend_c, 3, 8832
3, 142560, Pitch_bend_c, 3, 8192
3, 142560, Note_off_c, 3, 66, 95
3, 142560, Note_on_c, 2, 72, 95
3, 142800, Note_off_c, 2, 72, 95
3, 144480, Note_on_c, 2, 60, 95
3, 144960, Note_off_c, 2, 60, 95
3, 144960, Pitch_bend_c, 3, 8192
3, 144960, Note_on_c, 3, 66, 95
3, 145032, Pitch_bend_c, 3, 8320
3, 145104, Pitch_bend_c, 3, 8448
3, 145176, Pitch_bend_c, 3, 8576
3, 145248, Pitch_bend_c, 3, 8704
3, 145320, Pitch_bend_c, 3, 8832
3, 145320, Pitch_bend_c, 3, 8832
3, 145680, Pitch_bend_c, 3, 8832
3, 145680, Pitch_bend_c, 3, 8192
3, 145680, Note_off_c, 3, 66, 95
3, 145680, Note_on_c, 2, 72, 79
3, 145800, Note_on_c, 3, 66, 79
3, 145920, Note_off_c, 2, 72, 79
3, 145920, Note_off_c, 3, 66, 79
3, 145920, Pitch_bend_c, 3, 8832
3, 145920, Note_on_c, 3, 67, 79
3, 146080, Pitch_bend_c, 3, 8832
3, 146112, Pitch_bend_c, 3, 8704
3, 146144, Pitch_bend_c, 3, 8576
3, 146176, Pitch_bend_c, 3, 8448
3, 146208, Pitch_bend_c, 3, 8320
3, 146240, Pitch_bend_c, 3, 8192
3, 146240, Pitch_bend_c, 3, 8192
3, 146400, Pitch_bend_c, 3, 8192
3, 146400, Pitch_bend_c, 3, 8192
3, 146400, Note_off_c, 3, 67, 79
3, 146400, Note_on_c, 2, 60, 95
3, 146640, Note_off_c, 2, 60, 95
3, 146880, Note_on_c, 2, 60, 95
3, 148800, Note_off_c, 2, 60, 95
3, 148800, Note_on_c, 2, 62, 95
3, 149040, Note_off_c, 2, 62, 95
3, 149040, Note_on_c, 2, 64, 95
3, 149280, Note_off_c, 2, 64, 95
3, 149760, Note_on_c, 2, 65, 95
3, 149760, Pitch_bend_c, 3, 8192
3, 149760, Note_on_c, 3, 63, 95
3, 149781, Pitch_bend_c, 3, 8320
3, 149802, Pitch_bend_c, 3, 8448
3, 149823, Pitch_bend_c, 3, 8576
3, 149844, Pitch_bend_c, 3, 8704
3, 149865, Pitch_bend_c, 3, 8832
3, 149886, Pitch_bend_c, 3, 8960
3, 149907, Pitch_bend_c, 3, 9088
3, 149928, Pitch_bend_c, 3, 9216
3, 149949, Pitch_bend_c, 3, 9344
3, 149970, Pitch_bend_c, 3, 9472
3, 149991, Pitch_bend_c, 3, 9600
3, 150000, Pitch_bend_c, 3, 9600
3, 150240, Note_off_c, 2, 65, 95
3, 150240, Pitch_bend_c, 3, 9600
3, 150240, Pitch_bend_c, 3, 8192
3, 150240, Note_off_c, 3, 63, 95
3, 150720, Note_on_c, 2, 67, 95
3, 150720, Pitch_bend_c, 3, 8192
3, 150720, Note_on_c, 3, 65, 95
3, 150741, Pitch_bend_c, 3, 8320
3, 150762, Pitch_bend_c, 3, 8448
3, 150783, Pitch_bend_c, 3, 8576
3, 150804, Pitch_bend_c, 3, 8704
3, 150825, Pitch_bend_c, 3, 8832
3, 150846, Pitch_bend_c, 3, 8960
3, 150867, Pitch_bend_c, 3, 9088
3, 150888, Pitch_bend_c, 3, 9216
3, 150909, Pitch_bend_c, 3, 9344
3, 150930, Pitch_bend_c, 3, 9472
3, 150951, Pitch_bend_c, 3, 9600
3, 150960, Pitch_bend_c, 3, 9600
3, 151200, Note_off_c, 2, 67, 95
3, 151200, Pitch_bend_c, 3, 9600
3, 151200, Pitch_bend_c, 3, 8192
3, 151200, Note_off_c, 3, 65, 95
3, 151680, Note_on_c, 2, 69, 95
3, 151680, Pitch_bend_c, 3, 8192
3, 151680, Note_on_c, 3, 67, 95
3, 151767, Pitch_bend_c, 3, 8320
3, 151854, Pitch_bend_c, 3, 8448
3, 151941, Pitch_bend_c, 3, 8576
3, 152028, Pitch_bend_c, 3, 8704
3, 152115, Pitch_bend_c, 3, 8832
3, 152202, Pitch_bend_c, 3, 8960
3, 152289, Pitch_bend_c, 3, 9088
3, 152376, Pitch_bend_c, 3, 9216
3, 152463, Pitch_bend_c, 3, 9344
3, 152550, Pitch_bend_c, 3, 9472
3, 152637, Pitch_bend_c, 3, 9600
3, 152640, Pitch_bend_c, 3, 9600
3, 153600, Note_off_c, 2, 69, 95
3, 153600, Pitch_bend_c, 3, 9600
3, 153600, Pitch_bend_c, 3, 8192
3, 153600, Note_off_c, 3, 67, 95
3, 153600, Note_on_c, 2, 67, 95
3, 153600, Pitch_bend_c, 3, 8192
3, 153600, Note_on_c, 3, 65, 95
3, 153621, Pitch_bend_c, 3, 8320
3, 153642, Pitch_bend_c, 3, 8448
3, 153663, Pitch_bend_c, 3, 8576
3, 153684, Pitch_bend_c, 3, 8704
3, 153705, Pitch_bend_c, 3, 8832
3, 153726, Pitch_bend_c, 3, 8960
3, 153747, Pitch_bend_c, 3, 9088
3, 153768, Pitch_bend_c, 3, 9216
3, 153789, Pitch_bend_c, 3, 9344
3, 153810, Pitch_bend_c, 3, 9472
3, 153831, Pitch_bend_c, 3, 9600
3, 153840, Pitch_bend_c, 3, 9600
3, 154080, Note_off_c, 2, 67, 95
3, 154080, Pitch_bend_c, 3, 9600
3, 154080, Pitch_bend_c, 3, 8192
3, 154080, Note_off_c, 3, 65, 95
3, 154560, Note_on_c, 2, 65, 95
3, 154560, Pitch_bend_c, 3, 8192
3, 154560, Note_on_c, 3, 63, 95
3, 154581, Pitch_bend_c, 3, 8320
3, 154602, Pitch_bend_c, 3, 8448
3, 154623, Pitch_bend_c, 3, 8576
3, 154644, Pitch_bend_c, 3, 8704
3, 154665, Pitch_bend_c, 3, 8832
3, 154686, Pitch_bend_c, 3, 8960
3, 154707, Pitch_bend_c, 3, 9088
3, 154728, Pitch_bend_c, 3, 9216
3, 154749, Pitch_bend_c, 3, 9344
3, 154770, Pitch_bend_c, 3, 9472
3, 154791, Pitch_bend_c, 3, 9600
3, 154800, Pitch_bend_c, 3, 9600
3, 155040, Note_off_c, 2, 65, 95
3, 155040, Pitch_bend_c, 3, 9600
3, 155040, Pitch_bend_c, 3, 8192
3, 155040, Note_off_c, 3, 63, 95
3, 155280, Note_on_c, 2, 60, 127
3, 156720, Note_off_c, 2, 60, 127
3, 156960, Note_on_c, 3, 65, 95
3, 157080, Pitch_bend_c, 3, 8832
3, 157200, Pitch_bend_c, 3, 9600
3, 157320, Pitch_bend_c, 3, 10240
3, 157440, Pitch_bend_c, 3, 11008
3, 157440, Pitch_bend_c, 3, 8192
3, 157440, Note_off_c, 3, 65, 95
3, 157440, Note_on_c, 2, 69, 95
3, 157680, Note_off_c, 2, 69, 95
3, 157680, Note_on_c, 2, 69, 95
3, 157920, Note_off_c, 2, 69, 95
3, 157920, Note_on_c, 2, 66, 95
3, 158160, Note_off_c, 2, 66, 95
3, 158160, Note_on_c, 2, 64, 95
3, 158400, Note_off_c, 2, 64, 95
3, 158400, Note_on_c, 2, 69, 95
3, 158640, Note_off_c, 2, 69, 95
3, 158640, Note_on_c, 2, 60, 95
3, 158880, Note_off_c, 2, 60, 95
3, 158880, Note_on_c, 2, 64, 95
3, 159120, Note_off_c, 2, 64, 95
3, 159120, Note_on_c, 2, 70, 95
3, 159360, Note_off_c, 2, 70, 95
3, 159360, Note_on_c, 2, 60, 95
3, 159600, Note_off_c, 2, 60, 95
3, 159600, Note_on_c, 2, 70, 95
3, 159840, Note_off_c, 2, 70, 95
3, 159840, Note_on_c, 2, 66, 95
3, 160080, Note_off_c, 2, 66, 95
3, 160080, Note_on_c, 2, 64, 95
3, 160320, Note_off_c, 2, 64, 95
3, 160320, Note_on_c, 2, 70, 95
3, 160560, Note_off_c, 2, 70, 95
3, 160560, Note_on_c, 2, 60, 95
3, 160800, Note_off_c, 2, 60, 95
3, 160800, Note_on_c, 2, 64, 95
3, 161040, Note_off_c, 2, 64, 95
3, 161040, Note_on_c, 2, 72, 95
3, 161280, Note_off_c, 2, 72, 95
3, 161280, Note_on_c, 2, 60, 95
3, 161520, Note_off_c, 2, 60, 95
3, 161520, Note_on_c, 2, 72, 95
3, 161760, Note_off_c, 2, 72, 95
3, 161760, Note_on_c, 2, 66, 95
3, 162000, Note_off_c, 2, 66, 95
3, 162000, Note_on_c, 2, 64, 95
3, 162240, Note_off_c, 2, 64, 95
3, 162240, Note_on_c, 2, 70, 95
3, 162480, Note_off_c, 2, 70, 95
3, 162480, Note_on_c, 2, 65, 95
3, 162720, Note_off_c, 2, 65, 95
3, 162720, Note_on_c, 2, 64, 95
3, 162960, Note_off_c, 2, 64, 95
3, 162960, Note_on_c, 2, 70, 95
3, 163200, Note_off_c, 2, 70, 95
3, 163200, Note_on_c, 2, 65, 95
3, 163440, Note_off_c, 2, 65, 95
3, 163440, Note_on_c, 2, 69, 95
3, 163680, Note_off_c, 2, 69, 95
3, 163680, Note_on_c, 2, 66, 95
3, 164160, Note_off_c, 2, 66, 95
3, 164640, Note_on_c, 2, 69, 95
3, 165120, Note_off_c, 2, 69, 95
3, 165120, Note_on_c, 2, 67, 95
3, 165600, Note_off_c, 2, 67, 95
3, 165600, Note_on_c, 2, 67, 95
3, 165840, Note_off_c, 2, 67, 95
3, 165840, Note_on_c, 2, 72, 95
3, 166080, Note_off_c, 2, 72, 95
3, 166080, Note_on_c, 2, 69, 95
3, 166320, Note_off_c, 2, 69, 95
3, 166320, Note_on_c, 2, 65, 95
3, 166560, Note_off_c, 2, 65, 95
3, 166560, Note_on_c, 2, 72, 95
3, 166800, Note_off_c, 2, 72, 95
3, 166800, Note_on_c, 2, 69, 95
3, 167040, Note_off_c, 2, 69, 95
3, 167040, Note_on_c, 2, 67, 95
3, 167520, Note_off_c, 2, 67, 95
3, 167520, Note_on_c, 2, 67, 95
3, 167760, Note_off_c, 2, 67, 95
3, 167760, Note_on_c, 2, 72, 95
3, 168000, Note_off_c, 2, 72, 95
3, 168000, Note_on_c, 2, 69, 95
3, 168240, Note_off_c, 2, 69, 95
3, 168240, Note_on_c, 2, 65, 95
3, 168480, Note_off_c, 2, 65, 95
3, 168480, Note_on_c, 2, 72, 95
3, 168960, Note_off_c, 2, 72, 95
3, 168960, Note_on_c, 2, 64, 95
3, 169440, Note_off_c, 2, 64, 95
3, 169440, Note_on_c, 2, 64, 95
3, 169680, Note_off_c, 2, 64, 95
3, 169680, Note_on_c, 2, 72, 95
3, 169920, Note_off_c, 2, 72, 95
3, 169920, Note_on_c, 2, 66, 95
3, 170160, Note_off_c, 2, 66, 95
3, 170160, Note_on_c, 2, 62, 95
3, 170400, Note_off_c, 2, 62, 95
3, 170400, Note_on_c, 2, 72, 95
3, 170640, Note_off_c, 2, 72, 95
3, 170640, Note_on_c, 2, 66, 95
3, 170880, Note_off_c, 2, 66, 95
3, 170880, Note_on_c, 2, 64, 95
3, 171840, Note_off_c, 2, 64, 95
3, 171840, Note_on_c, 3, 62, 95
3, 171960, Pitch_bend_c, 3, 7936
3, 172080, Pitch_bend_c, 3, 7552
3, 172200, Pitch_bend_c, 3, 7168
3, 172320, Pitch_bend_c, 3, 6784
3, 172440, Pitch_bend_c, 3, 6528
3, 172560, Pitch_bend_c, 3, 6144
3, 172680, Pitch_bend_c, 3, 5760
3, 172800, Pitch_bend_c, 3, 5376
3, 172800, Pitch_bend_c, 3, 8192
3, 172800, Note_off_c, 3, 62, 95
3, 172800, Note_on_c, 2, 58, 95
3, 173760, Note_off_c, 2, 58, 95
3, 174240, Note_on_c, 3, 62, 95
3, 174360, Pitch_bend_c, 3, 7424
3, 174480, Pitch_bend_c, 3, 6528
3, 174600, Pitch_bend_c, 3, 5632
3, 174720, Pitch_bend_c, 3, 4736
3, 174720, Pitch_bend_c, 3, 8192
3, 174720, Note_off_c, 3, 62, 95
3, 174720, Note_on_c, 2, 57, 95
3, 175920, Note_off_c, 2, 57, 95
3, 175920, Note_on_c, 3, 57, 95
3, 176040, Pitch_bend_c, 3, 9216
3, 176160, Pitch_bend_c, 3, 10240
3, 176160, Pitch_bend_c, 3, 8192
3, 176160, Note_off_c, 3, 57, 95
3, 176160, Note_on_c, 3, 60, 95
3, 176280, Pitch_bend_c, 3, 7168
3, 176400, Pitch_bend_c, 3, 6144
3, 176400, Pitch_bend_c, 3, 8192
3, 176400, Note_off_c, 3, 60, 95
3, 176400, Note_on_c, 3, 57, 95
3, 176520, Pitch_bend_c, 3, 7552
3, 176520, Note_on_c, 3, 56, 63
3, 176640, Pitch_bend_c, 3, 6784
3, 176640, Pitch_bend_c, 3, 8192
3, 176640, Note_off_c, 3, 57, 95
3, 176640, Note_off_c, 3, 56, 63
3, 176640, Note_on_c, 3, 55, 95
3, 177600, Note_off_c, 3, 55, 95
3, 177600, Note_on_c, 2, 53, 95
3, 179520, Note_off_c, 2, 53, 95
3, 179520, End_track
4, 0, Start_track
4, 0, Pitch_bend_c, 4, 8192
4, 0, Control_c, 4, 7, 63
4, 0, Control_c, 4, 10, 63
4, 0, Control_c, 4, 93, 0
4, 0, Control_c, 4, 91, 0
4, 0, Control_c, 4, 95, 0
4, 0, Control_c, 4, 92, 0
4, 0, Control_c, 4, 11, 127
4, 0, Program_c, 4, 24
4, 0, Control_c, 5, 7, 63
4, 0, Control_c, 5, 10, 63
4, 0, Control_c, 5, 93, 0
4, 0, Control_c, 5, 91, 0
4, 0, Control_c, 5, 95, 0
4, 0, Control_c, 5, 92, 0
4, 0, Control_c, 5, 11, 127
4, 0, Program_c, 5, 24
4, 34560, Note_on_c, 4, 50, 95
4, 35040, Note_off_c, 4, 50, 95
4, 35040, Note_on_c, 4, 62, 63
4, 35040, Note_on_c, 4, 60, 63
4, 35040, Note_on_c, 4, 54, 63
4, 35280, Note_off_c, 4, 62, 63
4, 35280, Note_off_c, 4, 60, 63
4, 35280, Note_off_c, 4, 54, 63
4, 35520, Note_on_c, 4, 45, 95
4, 36000, Note_off_c, 4, 45, 95
4, 36000, Note_on_c, 4, 62, 63
4, 36000, Note_on_c, 4, 60, 63
4, 36000, Note_on_c, 4, 53, 63
4, 36240, Note_off_c, 4, 62, 63
4, 36240, Note_off_c, 4, 60, 63
4, 36240, Note_off_c, 4, 53, 63
4, 36480, Note_on_c, 4, 50, 95
4, 36960, Note_off_c, 4, 50, 95
4, 36960, Note_on_c, 4, 62, 63
4, 36960, Note_on_c, 4, 60, 63
4, 36960, Note_on_c, 4, 54, 63
4, 37200, Note_off_c, 4, 62, 63
4, 37200, Note_off_c, 4, 60, 63
4, 37200, Note_off_c, 4, 54, 63
4, 37440, Note_on_c, 4, 45, 95
4, 37920, Note_off_c, 4, 45, 95
4, 37920, Note_on_c, 4, 62, 63
4, 37920, Note_on_c, 4, 60, 63
4, 37920, Note_on_c, 4, 54, 63
4, 38160, Note_off_c, 4, 62, 63
4, 38160, Note_off_c, 4, 60, 63
4, 38160, Note_off_c, 4, 54, 63
4, 38400, Note_on_c, 4, 50, 95
4, 38880, Note_off_c, 4, 50, 95
4, 38880, Note_on_c, 4, 62, 63
4, 38880, Note_on_c, 4, 60, 63
4, 38880, Note_on_c, 4, 54, 63
4, 39120, Note_off_c, 4, 62, 63
4, 39120, Note_off_c, 4, 60, 63
4, 39120, Note_off_c, 4, 54, 63
4, 39360, Note_on_c, 4, 45, 95
4, 39840, Note_off_c, 4, 45, 95
4, 39840, Note_on_c, 4, 62, 63
4, 39840, Note_on_c, 4, 60, 63
4, 39840, Note_on_c, 4, 54, 63
4, 40080, Note_off_c, 4, 62, 63
4, 40080, Note_off_c, 4, 60, 63
4, 40080, Note_off_c, 4, 54, 63
4, 40320, Note_on_c, 4, 50, 95
4, 40800, Note_off_c, 4, 50, 95
4, 40800, Note_on_c, 4, 62, 63
4, 40800, Note_on_c, 4, 60, 63
4, 40800, Note_on_c, 4, 54, 63
4, 41040, Note_off_c, 4, 62, 63
4, 41040, Note_off_c, 4, 60, 63
4, 41040, Note_off_c, 4, 54, 63
4, 41280, Note_on_c, 4, 45, 95
4, 41760, Note_off_c, 4, 45, 95
4, 41760, Note_on_c, 4, 62, 63
4, 41760, Note_on_c, 4, 60, 63
4, 41760, Note_on_c, 4, 54, 63
4, 42000, Note_off_c, 4, 62, 63
4, 42000, Note_off_c, 4, 60, 63
4, 42000, Note_off_c, 4, 54, 63
4, 42240, Note_on_c, 4, 50, 95
4, 42720, Note_off_c, 4, 50, 95
4, 42720, Note_on_c, 4, 62, 63
4, 42720, Note_on_c, 4, 58, 63
4, 42720, Note_on_c, 4, 55, 63
4, 42960, Note_off_c, 4, 62, 63
4, 42960, Note_off_c, 4, 58, 63
4, 42960, Note_off_c, 4, 55, 63
4, 43200, Note_on_c, 4, 43, 95
4, 43680, Note_off_c, 4, 43, 95
4, 43680, Note_on_c, 4, 62, 63
4, 43680, Note_on_c, 4, 58, 63
4, 43680, Note_on_c, 4, 55, 63
4, 43920, Note_off_c, 4, 62, 63
4, 43920, Note_off_c, 4, 58, 63
4, 43920, Note_off_c, 4, 55, 63
4, 44160, Note_on_c, 4, 50, 95
4, 44640, Note_off_c, 4, 50, 95
4, 44640, Note_on_c, 4, 62, 63
4, 44640, Note_on_c, 4, 58, 63
4, 44640, Note_on_c, 4, 55, 63
4, 44880, Note_off_c, 4, 62, 63
4, 44880, Note_off_c, 4, 58, 63
4, 44880, Note_off_c, 4, 55, 63
4, 45120, Note_on_c, 4, 43, 95
4, 45600, Note_off_c, 4, 43, 95
4, 45600, Note_on_c, 4, 62, 63
4, 45600, Note_on_c, 4, 58, 63
4, 45600, Note_on_c, 4, 55, 63
4, 45840, Note_off_c, 4, 62, 63
4, 45840, Note_off_c, 4, 58, 63
4, 45840, Note_off_c, 4, 55, 63
4, 46080, Note_on_c, 4, 53, 95
4, 46560, Note_off_c, 4, 53, 95
4, 46560, Note_on_c, 4, 65, 63
4, 46560, Note_on_c, 4, 61, 63
4, 46560, Note_on_c, 4, 58, 63
4, 46800, Note_off_c, 4, 65, 63
4, 46800, Note_off_c, 4, 61, 63
4, 46800, Note_off_c, 4, 58, 63
4, 47040, Note_on_c, 4, 46, 95
4, 47520, Note_off_c, 4, 46, 95
4, 47520, Note_on_c, 4, 65, 63
4, 47520, Note_on_c, 4, 61, 63
4, 47520, Note_on_c, 4, 58, 63
4, 47760, Note_off_c, 4, 65, 63
4, 47760, Note_off_c, 4, 61, 63
4, 47760, Note_off_c, 4, 58, 63
4, 48000, Note_on_c, 4, 51, 95
4, 48480, Note_off_c, 4, 51, 95
4, 48480, Note_on_c, 4, 65, 63
4, 48480, Note_on_c, 4, 61, 63
4, 48480, Note_on_c, 4, 58, 63
4, 48720, Note_off_c, 4, 65, 63
4, 48720, Note_off_c, 4, 61, 63
4, 48720, Note_off_c, 4, 58, 63
4, 48960, Note_on_c, 4, 46, 95
4, 49440, Note_off_c, 4, 46, 95
4, 49440, Note_on_c, 4, 65, 63
4, 49440, Note_on_c, 4, 61, 63
4, 49440, Note_on_c, 4, 58, 63
4, 49680, Note_off_c, 4, 65, 63
4, 49680, Note_off_c, 4, 61, 63
4, 49680, Note_off_c, 4, 58, 63
4, 49920, Note_on_c, 4, 53, 95
4, 50400, Note_off_c, 4, 53, 95
4, 50400, Note_on_c, 4, 65, 63
4, 50400, Note_on_c, 4, 60, 63
4, 50400, Note_on_c, 4, 57, 63
4, 50640, Note_off_c, 4, 65, 63
4, 50640, Note_off_c, 4, 60, 63
4, 50640, Note_off_c, 4, 57, 63
4, 50880, Note_on_c, 4, 45, 95
4, 51360, Note_off_c, 4, 45, 95
4, 51360, Note_on_c, 4, 65, 63
4, 51360, Note_on_c, 4, 60, 63
4, 51360, Note_on_c, 4, 57, 63
4, 51600, Note_off_c, 4, 65, 63
4, 51600, Note_off_c, 4, 60, 63
4, 51600, Note_off_c, 4, 57, 63
4, 51840, Note_on_c, 4, 51, 79
4, 52320, Note_off_c, 4, 51, 79
4, 52320, Note_on_c, 4, 65, 63
4, 52320, Note_on_c, 4, 61, 63
4, 52320, Note_on_c, 4, 55, 63
4, 52560, Note_off_c, 4, 65, 63
4, 52560, Note_off_c, 4, 61, 63
4, 52560, Note_off_c, 4, 55, 63
4, 52800, Note_on_c, 4, 51, 95
4, 53280, Note_off_c, 4, 51, 95
4, 53280, Note_on_c, 4, 65, 63
4, 53280, Note_on_c, 4, 61, 63
4, 53280, Note_on_c, 4, 55, 63
4, 53520, Note_off_c, 4, 65, 63
4, 53520, Note_off_c, 4, 61, 63
4, 53520, Note_off_c, 4, 55, 63
4, 53760, Note_on_c, 4, 50, 95
4, 54240, Note_off_c, 4, 50, 95
4, 54240, Note_on_c, 4, 64, 63
4, 54240, Note_on_c, 4, 60, 63
4, 54240, Note_on_c, 4, 54, 63
4, 54480, Note_off_c, 4, 64, 63
4, 54480, Note_off_c, 4, 60, 63
4, 54480, Note_off_c, 4, 54, 63
4, 54720, Note_on_c, 4, 50, 95
4, 55200, Note_off_c, 4, 50, 95
4, 55200, Note_on_c, 4, 64, 63
4, 55200, Note_on_c, 4, 60, 63
4, 55200, Note_on_c, 4, 54, 63
4, 55440, Note_off_c, 4, 64, 63
4, 55440, Note_off_c, 4, 60, 63
4, 55440, Note_off_c, 4, 54, 63
4, 55680, Note_on_c, 4, 50, 95
4, 56160, Note_off_c, 4, 50, 95
4, 56160, Note_on_c, 4, 66, 63
4, 56160, Note_on_c, 4, 62, 63
4, 56160, Note_on_c, 4, 57, 63
4, 56400, Note_off_c, 4, 66, 63
4, 56400, Note_off_c, 4, 62, 63
4, 56400, Note_off_c, 4, 57, 63
4, 56640, Note_on_c, 4, 50, 95
4, 57120, Note_off_c, 4, 50, 95
4, 57120, Note_on_c, 4, 62, 63
4, 57120, Note_on_c, 4, 58, 63
4, 57120, Note_on_c, 4, 55, 63
4, 57360, Note_off_c, 4, 62, 63
4, 57360, Note_off_c, 4, 58, 63
4, 57360, Note_off_c, 4, 55, 63
4, 57600, Note_on_c, 4, 50, 95
4, 58080, Note_off_c, 4, 50, 95
4, 58080, Note_on_c, 4, 62, 63
4, 58080, Note_on_c, 4, 58, 63
4, 58080, Note_on_c, 4, 55, 63
4, 58320, Note_off_c, 4, 62, 63
4, 58320, Note_off_c, 4, 58, 63
4, 58320, Note_off_c, 4, 55, 63
4, 58560, Note_on_c, 4, 50, 95
4, 59040, Note_off_c, 4, 50, 95
4, 59040, Note_on_c, 4, 62, 63
4, 59040, Note_on_c, 4, 58, 63
4, 59040, Note_on_c, 4, 55, 63
4, 59280, Note_off_c, 4, 62, 63
4, 59280, Note_off_c, 4, 58, 63
4, 59280, Note_off_c, 4, 55, 63
4, 59520, Note_on_c, 4, 48, 95
4, 60000, Note_off_c, 4, 48, 95
4, 60000, Note_on_c, 4, 62, 63
4, 60000, Note_on_c, 4, 58, 63
4, 60000, Note_on_c, 4, 55, 63
4, 60240, Note_off_c, 4, 62, 63
4, 60240, Note_off_c, 4, 58, 63
4, 60240, Note_off_c, 4, 55, 63
4, 60480, Note_on_c, 4, 41, 95
4, 60960, Note_off_c, 4, 41, 95
4, 60960, Note_on_c, 4, 60, 63
4, 60960, Note_on_c, 4, 57, 63
4, 60960, Note_on_c, 4, 53, 63
4, 61200, Note_off_c, 4, 60, 63
4, 61200, Note_off_c, 4, 57, 63
4, 61200, Note_off_c, 4, 53, 63
4, 61440, Note_on_c, 4, 48, 95
4, 61920, Note_off_c, 4, 48, 95
4, 61920, Note_on_c, 4, 60, 63
4, 61920, Note_on_c, 4, 57, 63
4, 61920, Note_on_c, 4, 53, 63
4, 62160, Note_off_c, 4, 60, 63
4, 62160, Note_off_c, 4, 57, 63
4, 62160, Note_off_c, 4, 53, 63
4, 62400, Note_on_c, 4, 41, 95
4, 62880, Note_off_c, 4, 41, 95
4, 62880, Note_on_c, 4, 60, 63
4, 62880, Note_on_c, 4, 57, 63
4, 62880, Note_on_c, 4, 53, 63
4, 63120, Note_off_c, 4, 60, 63
4, 63120, Note_off_c, 4, 57, 63
4, 63120, Note_off_c, 4, 53, 63
4, 63360, Note_on_c, 4, 48, 95
4, 63840, Note_off_c, 4, 48, 95
4, 63840, Note_on_c, 4, 60, 63
4, 63840, Note_on_c, 4, 57, 63
4, 63840, Note_on_c, 4, 53, 63
4, 64080, Note_off_c, 4, 60, 63
4, 64080, Note_off_c, 4, 57, 63
4, 64080, Note_off_c, 4, 53, 63
4, 64320, Note_on_c, 4, 41, 95
4, 64800, Note_off_c, 4, 41, 95
4, 64800, Note_on_c, 4, 60, 63
4, 64800, Note_on_c, 4, 57, 63
4, 64800, Note_on_c, 4, 53, 63
4, 65040, Note_off_c, 4, 60, 63
4, 65040, Note_off_c, 4, 57, 63
4, 65040, Note_off_c, 4, 53, 63
4, 65280, Note_on_c, 4, 48, 95
4, 65760, Note_off_c, 4, 48, 95
4, 65760, Note_on_c, 4, 64, 63
4, 65760, Note_on_c, 4, 58, 63
4, 65760, Note_on_c, 4, 55, 63
4, 66000, Note_off_c, 4, 64, 63
4, 66000, Note_off_c, 4, 58, 63
4, 66000, Note_off_c, 4, 55, 63
4, 66240, Note_on_c, 4, 43, 95
4, 66720, Note_off_c, 4, 43, 95
4, 66720, Note_on_c, 4, 64, 63
4, 66720, Note_on_c, 4, 58, 63
4, 66720, Note_on_c, 4, 55, 63
4, 66960, Note_off_c, 4, 64, 63
4, 66960, Note_off_c, 4, 58, 63
4, 66960, Note_off_c, 4, 55, 63
4, 67200, Note_on_c, 4, 48, 95
4, 67680, Note_off_c, 4, 48, 95
4, 67680, Note_on_c, 4, 64, 63
4, 67680, Note_on_c, 4, 58, 63
4, 67680, Note_on_c, 4, 55, 63
4, 67920, Note_off_c, 4, 64, 63
4, 67920, Note_off_c, 4, 58, 63
4, 67920, Note_off_c, 4, 55, 63
4, 68160, Note_on_c, 4, 43, 95
4, 68640, Note_off_c, 4, 43, 95
4, 68640, Note_on_c, 4, 64, 63
4, 68640, Note_on_c, 4, 58, 63
4, 68640, Note_on_c, 4, 55, 63
4, 68880, Note_off_c, 4, 64, 63
4, 68880, Note_off_c, 4, 58, 63
4, 68880, Note_off_c, 4, 55, 63
4, 69120, Note_on_c, 4, 48, 95
4, 69600, Note_off_c, 4, 48, 95
4, 69600, Note_on_c, 4, 64, 63
4, 69600, Note_on_c, 4, 58, 63
4, 69600, Note_on_c, 4, 55, 63
4, 69840, Note_off_c, 4, 64, 63
4, 69840, Note_off_c, 4, 58, 63
4, 69840, Note_off_c, 4, 55, 63
4, 70080, Note_on_c, 4, 43, 95
4, 70560, Note_off_c, 4, 43, 95
4, 70560, Note_on_c, 4, 64, 63
4, 70560, Note_on_c, 4, 58, 63
4, 70560, Note_on_c, 4, 55, 63
4, 70800, Note_off_c, 4, 64, 63
4, 70800, Note_off_c, 4, 58, 63
4, 70800, Note_off_c, 4, 55, 63
4, 71040, Note_on_c, 4, 48, 95
4, 71520, Note_off_c, 4, 48, 95
4, 71520, Note_on_c, 4, 64, 63
4, 71520, Note_on_c, 4, 58, 63
4, 71520, Note_on_c, 4, 55, 63
4, 71760, Note_off_c, 4, 64, 63
4, 71760, Note_off_c, 4, 58, 63
4, 71760, Note_off_c, 4, 55, 63
4, 72000, Note_on_c, 4, 43, 95
4, 72480, Note_off_c, 4, 43, 95
4, 72480, Note_on_c, 4, 64, 63
4, 72480, Note_on_c, 4, 58, 63
4, 72480, Note_on_c, 4, 55, 63
4, 72720, Note_off_c, 4, 64, 63
4, 72720, Note_off_c, 4, 58, 63
4, 72720, Note_off_c, 4, 55, 63
4, 72960, Note_on_c, 4, 48, 95
4, 73440, Note_off_c, 4, 48, 95
4, 73440, Note_on_c, 4, 60, 63
4, 73440, Note_on_c, 4, 57, 63
4, 73440, Note_on_c, 4, 53, 63
4, 73680, Note_off_c, 4, 60, 63
4, 73680, Note_off_c, 4, 57, 63
4, 73680, Note_off_c, 4, 53, 63
4, 73920, Note_on_c, 4, 41, 95
4, 74400, Note_off_c, 4, 41, 95
4, 74400, Note_on_c, 4, 60, 63
4, 74400, Note_on_c, 4, 57, 63
4, 74400, Note_on_c, 4, 53, 63
4, 74640, Note_off_c, 4, 60, 63
4, 74640, Note_off_c, 4, 57, 63
4, 74640, Note_off_c, 4, 53, 63
4, 74880, Note_on_c, 4, 48, 95
4, 75360, Note_off_c, 4, 48, 95
4, 75360, Note_on_c, 4, 60, 63
4, 75360, Note_on_c, 4, 57, 63
4, 75360, Note_on_c, 4, 53, 63
4, 75600, Note_off_c, 4, 60, 63
4, 75600, Note_off_c, 4, 57, 63
4, 75600, Note_off_c, 4, 53, 63
4, 75840, Note_on_c, 4, 41, 95
4, 76320, Note_off_c, 4, 41, 95
4, 76320, Note_on_c, 4, 60, 63
4, 76320, Note_on_c, 4, 57, 63
4, 76320, Note_on_c, 4, 53, 63
4, 76560, Note_off_c, 4, 60, 63
4, 76560, Note_off_c, 4, 57, 63
4, 76560, Note_off_c, 4, 53, 63
4, 76800, Note_on_c, 4, 48, 95
4, 77280, Note_off_c, 4, 48, 95
4, 77280, Note_on_c, 4, 60, 63
4, 77280, Note_on_c, 4, 57, 63
4, 77280, Note_on_c, 4, 53, 63
4, 77520, Note_off_c, 4, 60, 63
4, 77520, Note_off_c, 4, 57, 63
4, 77520, Note_off_c, 4, 53, 63
4, 77760, Note_on_c, 4, 41, 95
4, 78240, Note_off_c, 4, 41, 95
4, 78240, Note_on_c, 4, 60, 63
4, 78240, Note_on_c, 4, 57, 63
4, 78240, Note_on_c, 4, 53, 63
4, 78480, Note_off_c, 4, 60, 63
4, 78480, Note_off_c, 4, 57, 63
4, 78480, Note_off_c, 4, 53, 63
4, 78720, Note_on_c, 4, 48, 95
4, 79200, Note_off_c, 4, 48, 95
4, 79200, Note_on_c, 4, 60, 63
4, 79200, Note_on_c, 4, 57, 63
4, 79200, Note_on_c, 4, 53, 63
4, 79440, Note_off_c, 4, 60, 63
4, 79440, Note_off_c, 4, 57, 63
4, 79440, Note_off_c, 4, 53, 63
4, 79680, Note_on_c, 4, 41, 95
4, 80160, Note_off_c, 4, 41, 95
4, 80160, Note_on_c, 4, 60, 63
4, 80160, Note_on_c, 4, 57, 63
4, 80160, Note_on_c, 4, 53, 63
4, 80400, Note_off_c, 4, 60, 63
4, 80400, Note_off_c, 4, 57, 63
4, 80400, Note_off_c, 4, 53, 63
4, 80640, Note_on_c, 4, 48, 95
4, 81120, Note_off_c, 4, 48, 95
4, 81120, Note_on_c, 4, 64, 63
4, 81120, Note_on_c, 4, 58, 63
4, 81120, Note_on_c, 4, 55, 63
4, 81360, Note_off_c, 4, 64, 63
4, 81360, Note_off_c, 4, 58, 63
4, 81360, Note_off_c, 4, 55, 63
4, 81600, Note_on_c, 4, 43, 95
4, 82080, Note_off_c, 4, 43, 95
4, 82080, Note_on_c, 4, 64, 63
4, 82080, Note_on_c, 4, 58, 63
4, 82080, Note_on_c, 4, 55, 63
4, 82320, Note_off_c, 4, 64, 63
4, 82320, Note_off_c, 4, 58, 63
4, 82320, Note_off_c, 4, 55, 63
4, 82560, Note_on_c, 4, 48, 95
4, 83040, Note_off_c, 4, 48, 95
4, 83040, Note_on_c, 4, 64, 63
4, 83040, Note_on_c, 4, 58, 63
4, 83040, Note_on_c, 4, 55, 63
4, 83280, Note_off_c, 4, 64, 63
4, 83280, Note_off_c, 4, 58, 63
4, 83280, Note_off_c, 4, 55, 63
4, 83520, Note_on_c, 4, 43, 95
4, 84000, Note_off_c, 4, 43, 95
4, 84000, Note_on_c, 4, 64, 63
4, 84000, Note_on_c, 4, 58, 63
4, 84000, Note_on_c, 4, 55, 63
4, 84240, Note_off_c, 4, 64, 63
4, 84240, Note_off_c, 4, 58, 63
4, 84240, Note_off_c, 4, 55, 63
4, 84480, Note_on_c, 4, 48, 95
4, 84960, Note_off_c, 4, 48, 95
4, 84960, Note_on_c, 4, 64, 63
4, 84960, Note_on_c, 4, 58, 63
4, 84960, Note_on_c, 4, 55, 63
4, 85200, Note_off_c, 4, 64, 63
4, 85200, Note_off_c, 4, 58, 63
4, 85200, Note_off_c, 4, 55, 63
4, 85440, Note_on_c, 4, 43, 95
4, 85920, Note_off_c, 4, 43, 95
4, 85920, Note_on_c, 4, 64, 63
4, 85920, Note_on_c, 4, 58, 63
4, 85920, Note_on_c, 4, 55, 63
4, 86160, Note_off_c, 4, 64, 63
4, 86160, Note_off_c, 4, 58, 63
4, 86160, Note_off_c, 4, 55, 63
4, 86400, Note_on_c, 4, 48, 95
4, 86880, Note_off_c, 4, 48, 95
4, 86880, Note_on_c, 4, 64, 63
4, 86880, Note_on_c, 4, 58, 63
4, 86880, Note_on_c, 4, 55, 63
4, 87120, Note_off_c, 4, 64, 63
4, 87120, Note_off_c, 4, 58, 63
4, 87120, Note_off_c, 4, 55, 63
4, 87360, Note_on_c, 4, 43, 95
4, 87840, Note_off_c, 4, 43, 95
4, 87840, Note_on_c, 4, 64, 63
4, 87840, Note_on_c, 4, 58, 63
4, 87840, Note_on_c, 4, 55, 63
4, 88080, Note_off_c, 4, 64, 63
4, 88080, Note_off_c, 4, 58, 63
4, 88080, Note_off_c, 4, 55, 63
4, 88320, Note_on_c, 4, 48, 95
4, 88800, Note_off_c, 4, 48, 95
4, 88800, Note_on_c, 4, 60, 63
4, 88800, Note_on_c, 4, 57, 63
4, 88800, Note_on_c, 4, 53, 63
4, 89040, Note_off_c, 4, 60, 63
4, 89040, Note_off_c, 4, 57, 63
4, 89040, Note_off_c, 4, 53, 63
4, 89280, Note_on_c, 4, 41, 95
4, 89760, Note_off_c, 4, 41, 95
4, 89760, Note_on_c, 4, 60, 63
4, 89760, Note_on_c, 4, 57, 63
4, 89760, Note_on_c, 4, 53, 63
4, 90000, Note_off_c, 4, 60, 63
4, 90000, Note_off_c, 4, 57, 63
4, 90000, Note_off_c, 4, 53, 63
4, 90240, Note_on_c, 4, 48, 95
4, 90720, Note_off_c, 4, 48, 95
4, 90720, Note_on_c, 4, 60, 63
4, 90720, Note_on_c, 4, 57, 63
4, 90720, Note_on_c, 4, 53, 63
4, 90960, Note_off_c, 4, 60, 63
4, 90960, Note_off_c, 4, 57, 63
4, 90960, Note_off_c, 4, 53, 63
4, 91200, Note_on_c, 4, 41, 95
4, 91680, Note_off_c, 4, 41, 95
4, 91680, Note_on_c, 4, 60, 63
4, 91680, Note_on_c, 4, 57, 63
4, 91680, Note_on_c, 4, 53, 63
4, 91920, Note_off_c, 4, 60, 63
4, 91920, Note_off_c, 4, 57, 63
4, 91920, Note_off_c, 4, 53, 63
4, 92160, Note_on_c, 4, 48, 95
4, 92640, Note_off_c, 4, 48, 95
4, 92640, Note_on_c, 4, 60, 63
4, 92640, Note_on_c, 4, 57, 63
4, 92640, Note_on_c, 4, 53, 63
4, 92880, Note_off_c, 4, 60, 63
4, 92880, Note_off_c, 4, 57, 63
4, 92880, Note_off_c, 4, 53, 63
4, 93120, Note_on_c, 4, 41, 95
4, 93600, Note_off_c, 4, 41, 95
4, 93600, Note_on_c, 4, 60, 63
4, 93600, Note_on_c, 4, 57, 63
4, 93600, Note_on_c, 4, 53, 63
4, 93840, Note_off_c, 4, 60, 63
4, 93840, Note_off_c, 4, 57, 63
4, 93840, Note_off_c, 4, 53, 63
4, 94080, Note_on_c, 4, 48, 95
4, 94560, Note_off_c, 4, 48, 95
4, 94560, Note_on_c, 4, 60, 63
4, 94560, Note_on_c, 4, 57, 63
4, 94560, Note_on_c, 4, 53, 63
4, 94800, Note_off_c, 4, 60, 63
4, 94800, Note_off_c, 4, 57, 63
4, 94800, Note_off_c, 4, 53, 63
4, 95040, Note_on_c, 4, 41, 95
4, 95520, Note_off_c, 4, 41, 95
4, 95520, Note_on_c, 4, 60, 63
4, 95520, Note_on_c, 4, 57, 63
4, 95520, Note_on_c, 4, 53, 63
4, 95760, Note_off_c, 4, 60, 63
4, 95760, Note_off_c, 4, 57, 63
4, 95760, Note_off_c, 4, 53, 63
4, 96000, Note_on_c, 4, 50, 95
4, 96480, Note_off_c, 4, 50, 95
4, 96480, Note_on_c, 4, 62, 63
4, 96480, Note_on_c, 4, 60, 63
4, 96480, Note_on_c, 4, 54, 63
4, 96720, Note_off_c, 4, 62, 63
4, 96720, Note_off_c, 4, 60, 63
4, 96720, Note_off_c, 4, 54, 63
4, 96960, Note_on_c, 4, 45, 95
4, 97440, Note_off_c, 4, 45, 95
4, 97440, Note_on_c, 4, 62, 63
4, 97440, Note_on_c, 4, 60, 63
4, 97440, Note_on_c, 4, 54, 63
4, 97680, Note_off_c, 4, 62, 63
4, 97680, Note_off_c, 4, 60, 63
4, 97680, Note_off_c, 4, 54, 63
4, 97920, Note_on_c, 4, 48, 95
4, 98400, Note_off_c, 4, 48, 95
4, 98400, Note_on_c, 4, 62, 63
4, 98400, Note_on_c, 4, 60, 63
4, 98400, Note_on_c, 4, 54, 63
4, 98640, Note_off_c, 4, 62, 63
4, 98640, Note_off_c, 4, 60, 63
4, 98640, Note_off_c, 4, 54, 63
4, 98880, Note_on_c, 4, 45, 95
4, 99360, Note_off_c, 4, 45, 95
4, 99360, Note_on_c, 4, 62, 63
4, 99360, Note_on_c, 4, 60, 63
4, 99360, Note_on_c, 4, 54, 63
4, 99600, Note_off_c, 4, 62, 63
4, 99600, Note_off_c, 4, 60, 63
4, 99600, Note_off_c, 4, 54, 63
4, 99840, Note_on_c, 4, 50, 95
4, 100320, Note_off_c, 4, 50, 95
4, 100320, Note_on_c, 4, 62, 63
4, 100320, Note_on_c, 4, 60, 63
4, 100320, Note_on_c, 4, 54, 63
4, 100560, Note_off_c, 4, 62, 63
4, 100560, Note_off_c, 4, 60, 63
4, 100560, Note_off_c, 4, 54, 63
4, 100800, Note_on_c, 4, 45, 95
4, 101280, Note_off_c, 4, 45, 95
4, 101280, Note_on_c, 4, 62, 63
4, 101280, Note_on_c, 4, 60, 63
4, 101280, Note_on_c, 4, 54, 63
4, 101520, Note_off_c, 4, 62, 63
4, 101520, Note_off_c, 4, 60, 63
4, 101520, Note_off_c, 4, 54, 63
4, 101760, Note_on_c, 4, 48, 95
4, 102240, Note_off_c, 4, 48, 95
4, 102240, Note_on_c, 4, 62, 63
4, 102240, Note_on_c, 4, 60, 63
4, 102240, Note_on_c, 4, 54, 63
4, 102480, Note_off_c, 4, 62, 63
4, 102480, Note_off_c, 4, 60, 63
4, 102480, Note_off_c, 4, 54, 63
4, 102720, Note_on_c, 4, 45, 95
4, 103200, Note_off_c, 4, 45, 95
4, 103200, Note_on_c, 4, 62, 63
4, 103200, Note_on_c, 4, 60, 63
4, 103200, Note_on_c, 4, 54, 63
4, 103440, Note_off_c, 4, 62, 63
4, 103440, Note_off_c, 4, 60, 63
4, 103440, Note_off_c, 4, 54, 63
4, 103680, Note_on_c, 4, 50, 95
4, 104160, Note_off_c, 4, 50, 95
4, 104160, Note_on_c, 4, 62, 63
4, 104160, Note_on_c, 4, 58, 63
4, 104160, Note_on_c, 4, 55, 63
4, 104400, Note_off_c, 4, 62, 63
4, 104400, Note_off_c, 4, 58, 63
4, 104400, Note_off_c, 4, 55, 63
4, 104640, Note_on_c, 4, 43, 95
4, 105120, Note_off_c, 4, 43, 95
4, 105120, Note_on_c, 4, 62, 63
4, 105120, Note_on_c, 4, 58, 63
4, 105120, Note_on_c, 4, 55, 63
4, 105360, Note_off_c, 4, 62, 63
4, 105360, Note_off_c, 4, 58, 63
4, 105360, Note_off_c, 4, 55, 63
4, 105600, Note_on_c, 4, 50, 95
4, 106080, Note_off_c, 4, 50, 95
4, 106080, Note_on_c, 4, 62, 63
4, 106080, Note_on_c, 4, 60, 63
4, 106080, Note_on_c, 4, 55, 63
4, 106320, Note_off_c, 4, 62, 63
4, 106320, Note_off_c, 4, 60, 63
4, 106320, Note_off_c, 4, 55, 63
4, 106560, Note_on_c, 4, 43, 95
4, 107040, Note_off_c, 4, 43, 95
4, 107040, Note_on_c, 4, 62, 63
4, 107040, Note_on_c, 4, 58, 63
4, 107040, Note_on_c, 4, 55, 63
4, 107280, Note_off_c, 4, 62, 63
4, 107280, Note_off_c, 4, 58, 63
4, 107280, Note_off_c, 4, 55, 63
4, 107520, Note_on_c, 4, 53, 95
4, 108000, Note_off_c, 4, 53, 95
4, 108000, Note_on_c, 4, 67, 63
4, 108000, Note_on_c, 4, 61, 63
4, 108000, Note_on_c, 4, 58, 63
4, 108240, Note_off_c, 4, 67, 63
4, 108240, Note_off_c, 4, 61, 63
4, 108240, Note_off_c, 4, 58, 63
4, 108480, Note_on_c, 4, 46, 95
4, 108960, Note_off_c, 4, 46, 95
4, 108960, Note_on_c, 4, 67, 63
4, 108960, Note_on_c, 4, 61, 63
4, 108960, Note_on_c, 4, 58, 63
4, 109200, Note_off_c, 4, 67, 63
4, 109200, Note_off_c, 4, 61, 63
4, 109200, Note_off_c, 4, 58, 63
4, 109440, Note_on_c, 4, 53, 95
4, 109920, Note_off_c, 4, 53, 95
4, 109920, Note_on_c, 4, 67, 63
4, 109920, Note_on_c, 4, 61, 63
4, 109920, Note_on_c, 4, 58, 63
4, 110160, Note_off_c, 4, 67, 63
4, 110160, Note_off_c, 4, 61, 63
4, 110160, Note_off_c, 4, 58, 63
4, 110400, Note_on_c, 4, 46, 95
4, 110880, Note_off_c, 4, 46, 95
4, 110880, Note_on_c, 4, 67, 63
4, 110880, Note_on_c, 4, 61, 63
4, 110880, Note_on_c, 4, 58, 63
4, 111120, Note_off_c, 4, 67, 63
4, 111120, Note_off_c, 4, 61, 63
4, 111120, Note_off_c, 4, 58, 63
4, 111360, Note_on_c, 4, 53, 95
4, 111840, Note_off_c, 4, 53, 95
4, 111840, Note_on_c, 4, 65, 63
4, 111840, Note_on_c, 4, 60, 63
4, 111840, Note_on_c, 4, 57, 63
4, 112080, Note_off_c, 4, 65, 63
4, 112080, Note_off_c, 4, 60, 63
4, 112080, Note_off_c, 4, 57, 63
4, 112320, Note_on_c, 4, 45, 95
4, 112800, Note_off_c, 4, 45, 95
4, 112800, Note_on_c, 4, 65, 63
4, 112800, Note_on_c, 4, 60, 63
4, 112800, Note_on_c, 4, 57, 63
4, 113040, Note_off_c, 4, 65, 63
4, 113040, Note_off_c, 4, 60, 63
4, 113040, Note_off_c, 4, 57, 63
4, 113280, Note_on_c, 4, 53, 95
4, 113760, Note_off_c, 4, 53, 95
4, 113760, Note_on_c, 4, 65, 63
4, 113760, Note_on_c, 4, 60, 63
4, 113760, Note_on_c, 4, 57, 63
4, 114000, Note_off_c, 4, 65, 63
4, 114000, Note_off_c, 4, 60, 63
4, 114000, Note_off_c, 4, 57, 63
4, 114240, Note_on_c, 4, 45, 95
4, 114720, Note_off_c, 4, 45, 95
4, 114720, Note_on_c, 4, 65, 63
4, 114720, Note_on_c, 4, 60, 63
4, 114720, Note_on_c, 4, 57, 63
4, 114960, Note_off_c, 4, 65, 63
4, 114960, Note_off_c, 4, 60, 63
4, 114960, Note_off_c, 4, 57, 63
4, 115200, Note_on_c, 4, 50, 95
4, 115680, Note_off_c, 4, 50, 95
4, 115680, Note_on_c, 4, 62, 63
4, 115680, Note_on_c, 4, 60, 63
4, 115680, Note_on_c, 4, 54, 63
4, 115920, Note_off_c, 4, 62, 63
4, 115920, Note_off_c, 4, 60, 63
4, 115920, Note_off_c, 4, 54, 63
4, 116160, Note_on_c, 4, 45, 95
4, 116640, Note_off_c, 4, 45, 95
4, 116640, Note_on_c, 4, 62, 63
4, 116640, Note_on_c, 4, 60, 63
4, 116640, Note_on_c, 4, 54, 63
4, 116880, Note_off_c, 4, 62, 63
4, 116880, Note_off_c, 4, 60, 63
4, 116880, Note_off_c, 4, 54, 63
4, 117120, Note_on_c, 4, 48, 95
4, 117600, Note_off_c, 4, 48, 95
4, 117600, Note_on_c, 4, 62, 63
4, 117600, Note_on_c, 4, 60, 63
4, 117600, Note_on_c, 4, 54, 63
4, 117840, Note_off_c, 4, 62, 63
4, 117840, Note_off_c, 4, 60, 63
4, 117840, Note_off_c, 4, 54, 63
4, 118080, Note_on_c, 4, 45, 95
4, 118560, Note_off_c, 4, 45, 95
4, 118560, Note_on_c, 4, 62, 63
4, 118560, Note_on_c, 4, 60, 63
4, 118560, Note_on_c, 4, 54, 63
4, 118800, Note_off_c, 4, 62, 63
4, 118800, Note_off_c, 4, 60, 63
4, 118800, Note_off_c, 4, 54, 63
4, 119040, Note_on_c, 4, 50, 95
4, 119520, Note_off_c, 4, 50, 95
4, 119520, Note_on_c, 4, 62, 63
4, 119520, Note_on_c, 4, 58, 63
4, 119520, Note_on_c, 4, 55, 63
4, 119760, Note_off_c, 4, 62, 63
4, 119760, Note_off_c, 4, 58, 63
4, 119760, Note_off_c, 4, 55, 63
4, 120000, Note_on_c, 4, 43, 95
4, 120480, Note_off_c, 4, 43, 95
4, 120480, Note_on_c, 4, 62, 63
4, 120480, Note_on_c, 4, 58, 63
4, 120480, Note_on_c, 4, 55, 63
4, 120720, Note_off_c, 4, 62, 63
4, 120720, Note_off_c, 4, 58, 63
4, 120720, Note_off_c, 4, 55, 63
4, 120960, Note_on_c, 4, 48, 95
4, 121440, Note_off_c, 4, 48, 95
4, 121440, Note_on_c, 4, 64, 63
4, 121440, Note_on_c, 4, 60, 63
4, 121440, Note_on_c, 4, 55, 63
4, 121680, Note_off_c, 4, 64, 63
4, 121680, Note_off_c, 4, 60, 63
4, 121680, Note_off_c, 4, 55, 63
4, 121920, Note_on_c, 4, 43, 95
4, 122400, Note_off_c, 4, 43, 95
4, 122400, Note_on_c, 4, 64, 63
4, 122400, Note_on_c, 4, 60, 63
4, 122400, Note_on_c, 4, 55, 63
4, 122640, Note_off_c, 4, 64, 63
4, 122640, Note_off_c, 4, 60, 63
4, 122640, Note_off_c, 4, 55, 63
4, 122880, Note_on_c, 4, 48, 95
4, 123360, Note_off_c, 4, 48, 95
4, 123360, Note_on_c, 4, 60, 63
4, 123360, Note_on_c, 4, 57, 63
4, 123360, Note_on_c, 4, 53, 63
4, 123600, Note_off_c, 4, 60, 63
4, 123600, Note_off_c, 4, 57, 63
4, 123600, Note_off_c, 4, 53, 63
4, 123840, Note_on_c, 4, 41, 95
4, 124320, Note_off_c, 4, 41, 95
4, 124320, Note_on_c, 4, 60, 63
4, 124320, Note_on_c, 4, 57, 63
4, 124320, Note_on_c, 4, 53, 63
4, 124560, Note_off_c, 4, 60, 63
4, 124560, Note_off_c, 4, 57, 63
4, 124560, Note_off_c, 4, 53, 63
4, 124800, Note_on_c, 4, 48, 95
4, 125280, Note_off_c, 4, 48, 95
4, 125280, Note_on_c, 4, 60, 63
4, 125280, Note_on_c, 4, 57, 63
4, 125280, Note_on_c, 4, 53, 63
4, 125520, Note_off_c, 4, 60, 63
4, 125520, Note_off_c, 4, 57, 63
4, 125520, Note_off_c, 4, 53, 63
4, 125760, Note_on_c, 4, 41, 95
4, 126240, Note_off_c, 4, 41, 95
4, 126240, Note_on_c, 4, 60, 63
4, 126240, Note_on_c, 4, 57, 63
4, 126240, Note_on_c, 4, 53, 63
4, 126480, Note_off_c, 4, 60, 63
4, 126480, Note_off_c, 4, 57, 63
4, 126480, Note_off_c, 4, 53, 63
4, 126720, Note_on_c, 4, 48, 95
4, 127200, Note_off_c, 4, 48, 95
4, 127200, Note_on_c, 4, 62, 63
4, 127200, Note_on_c, 4, 58, 63
4, 127200, Note_on_c, 4, 52, 63
4, 127440, Note_off_c, 4, 62, 63
4, 127440, Note_off_c, 4, 58, 63
4, 127440, Note_off_c, 4, 52, 63
4, 127680, Note_on_c, 4, 48, 95
4, 128160, Note_off_c, 4, 48, 95
4, 128160, Note_on_c, 4, 62, 63
4, 128160, Note_on_c, 4, 58, 63
4, 128160, Note_on_c, 4, 52, 63
4, 128400, Note_off_c, 4, 62, 63
4, 128400, Note_off_c, 4, 58, 63
4, 128400, Note_off_c, 4, 52, 63
4, 128640, Note_on_c, 4, 48, 95
4, 129120, Note_off_c, 4, 48, 95
4, 129120, Note_on_c, 4, 62, 63
4, 129120, Note_on_c, 4, 58, 63
4, 129120, Note_on_c, 4, 52, 63
4, 129360, Note_off_c, 4, 62, 63
4, 129360, Note_off_c, 4, 58, 63
4, 129360, Note_off_c, 4, 52, 63
4, 129600, Note_on_c, 4, 48, 95
4, 130080, Note_off_c, 4, 48, 95
4, 130080, Note_on_c, 4, 62, 63
4, 130080, Note_on_c, 4, 58, 63
4, 130080, Note_on_c, 4, 52, 63
4, 130320, Note_off_c, 4, 62, 63
4, 130320, Note_off_c, 4, 58, 63
4, 130320, Note_off_c, 4, 52, 63
4, 130560, Note_on_c, 4, 48, 95
4, 131040, Note_off_c, 4, 48, 95
4, 131040, Note_on_c, 4, 62, 63
4, 131040, Note_on_c, 4, 58, 63
4, 131040, Note_on_c, 4, 52, 63
4, 131280, Note_off_c, 4, 62, 63
4, 131280, Note_off_c, 4, 58, 63
4, 131280, Note_off_c, 4, 52, 63
4, 131520, Note_on_c, 4, 48, 95
4, 132000, Note_off_c, 4, 48, 95
4, 132000, Note_on_c, 4, 62, 63
4, 132000, Note_on_c, 4, 58, 63
4, 132000, Note_on_c, 4, 52, 63
4, 132240, Note_off_c, 4, 62, 63
4, 132240, Note_off_c, 4, 58, 63
4, 132240, Note_off_c, 4, 52, 63
4, 132480, Note_on_c, 4, 48, 95
4, 132960, Note_off_c, 4, 48, 95
4, 132960, Note_on_c, 4, 62, 63
4, 132960, Note_on_c, 4, 58, 63
4, 132960, Note_on_c, 4, 52, 63
4, 133200, Note_off_c, 4, 62, 63
4, 133200, Note_off_c, 4, 58, 63
4, 133200, Note_off_c, 4, 52, 63
4, 133440, Note_on_c, 4, 48, 95
4, 133920, Note_off_c, 4, 48, 95
4, 133920, Note_on_c, 4, 62, 63
4, 133920, Note_on_c, 4, 58, 63
4, 133920, Note_on_c, 4, 52, 63
4, 134160, Note_off_c, 4, 62, 63
4, 134160, Note_off_c, 4, 58, 63
4, 134160, Note_off_c, 4, 52, 63
4, 134400, Note_on_c, 4, 45, 95
4, 134880, Note_off_c, 4, 45, 95
4, 134880, Note_on_c, 4, 60, 63
4, 134880, Note_on_c, 4, 57, 63
4, 134880, Note_on_c, 4, 52, 63
4, 135120, Note_off_c, 4, 60, 63
4, 135120, Note_off_c, 4, 57, 63
4, 135120, Note_off_c, 4, 52, 63
4, 135360, Note_on_c, 4, 41, 95
4, 135840, Note_off_c, 4, 41, 95
4, 135840, Note_on_c, 4, 60, 63
4, 135840, Note_on_c, 4, 57, 63
4, 135840, Note_on_c, 4, 52, 63
4, 136080, Note_off_c, 4, 60, 63
4, 136080, Note_off_c, 4, 57, 63
4, 136080, Note_off_c, 4, 52, 63
4, 136320, Note_on_c, 4, 45, 95
4, 136800, Note_off_c, 4, 45, 95
4, 136800, Note_on_c, 4, 60, 63
4, 136800, Note_on_c, 4, 57, 63
4, 136800, Note_on_c, 4, 52, 63
4, 137040, Note_off_c, 4, 60, 63
4, 137040, Note_off_c, 4, 57, 63
4, 137040, Note_off_c, 4, 52, 63
4, 137280, Note_on_c, 4, 41, 95
4, 137760, Note_off_c, 4, 41, 95
4, 137760, Note_on_c, 4, 60, 63
4, 137760, Note_on_c, 4, 57, 63
4, 137760, Note_on_c, 4, 52, 63
4, 138000, Note_off_c, 4, 60, 63
4, 138000, Note_off_c, 4, 57, 63
4, 138000, Note_off_c, 4, 52, 63
4, 138240, Note_on_c, 4, 45, 95
4, 138720, Note_off_c, 4, 45, 95
4, 138720, Note_on_c, 4, 60, 63
4, 138720, Note_on_c, 4, 57, 63
4, 138720, Note_on_c, 4, 52, 63
4, 138960, Note_off_c, 4, 60, 63
4, 138960, Note_off_c, 4, 57, 63
4, 138960, Note_off_c, 4, 52, 63
4, 139200, Note_on_c, 4, 41, 95
4, 139680, Note_off_c, 4, 41, 95
4, 139680, Note_on_c, 4, 60, 63
4, 139680, Note_on_c, 4, 57, 63
4, 139680, Note_on_c, 4, 52, 63
4, 139920, Note_off_c, 4, 60, 63
4, 139920, Note_off_c, 4, 57, 63
4, 139920, Note_off_c, 4, 52, 63
4, 140160, Note_on_c, 4, 45, 95
4, 140640, Note_off_c, 4, 45, 95
4, 140640, Note_on_c, 4, 60, 63
4, 140640, Note_on_c, 4, 57, 63
4, 140640, Note_on_c, 4, 52, 63
4, 140880, Note_off_c, 4, 60, 63
4, 140880, Note_off_c, 4, 57, 63
4, 140880, Note_off_c, 4, 52, 63
4, 141120, Note_on_c, 4, 41, 95
4, 141600, Note_off_c, 4, 41, 95
4, 141600, Note_on_c, 4, 60, 63
4, 141600, Note_on_c, 4, 57, 63
4, 141600, Note_on_c, 4, 52, 63
4, 141840, Note_off_c, 4, 60, 63
4, 141840, Note_off_c, 4, 57, 63
4, 141840, Note_off_c, 4, 52, 63
4, 142080, Note_on_c, 4, 48, 95
4, 142560, Note_off_c, 4, 48, 95
4, 142560, Note_on_c, 4, 60, 63
4, 142560, Note_on_c, 4, 58, 63
4, 142560, Note_on_c, 4, 52, 63
4, 142800, Note_off_c, 4, 60, 63
4, 142800, Note_off_c, 4, 58, 63
4, 142800, Note_off_c, 4, 52, 63
4, 143040, Note_on_c, 4, 43, 95
4, 143520, Note_off_c, 4, 43, 95
4, 143520, Note_on_c, 4, 60, 63
4, 143520, Note_on_c, 4, 58, 63
4, 143520, Note_on_c, 4, 52, 63
4, 143760, Note_off_c, 4, 60, 63
4, 143760, Note_off_c, 4, 58, 63
4, 143760, Note_off_c, 4, 52, 63
4, 144000, Note_on_c, 4, 48, 95
4, 144480, Note_off_c, 4, 48, 95
4, 144480, Note_on_c, 4, 60, 63
4, 144480, Note_on_c, 4, 58, 63
4, 144480, Note_on_c, 4, 52, 63
4, 144720, Note_off_c, 4, 60, 63
4, 144720, Note_off_c, 4, 58, 63
4, 144720, Note_off_c, 4, 52, 63
4, 144960, Note_on_c, 4, 43, 95
4, 145440, Note_off_c, 4, 43, 95
4, 145440, Note_on_c, 4, 60, 63
4, 145440, Note_on_c, 4, 58, 63
4, 145440, Note_on_c, 4, 52, 63
4, 145680, Note_off_c, 4, 60, 63
4, 145680, Note_off_c, 4, 58, 63
4, 145680, Note_off_c, 4, 52, 63
4, 145920, Note_on_c, 4, 48, 95
4, 146400, Note_off_c, 4, 48, 95
4, 146400, Note_on_c, 4, 60, 63
4, 146400, Note_on_c, 4, 58, 63
4, 146400, Note_on_c, 4, 52, 63
4, 146640, Note_off_c, 4, 60, 63
4, 146640, Note_off_c, 4, 58, 63
4, 146640, Note_off_c, 4, 52, 63
4, 146880, Note_on_c, 4, 43, 95
4, 147360, Note_off_c, 4, 43, 95
4, 147360, Note_on_c, 4, 60, 63
4, 147360, Note_on_c, 4, 58, 63
4, 147360, Note_on_c, 4, 52, 63
4, 147600, Note_off_c, 4, 60, 63
4, 147600, Note_off_c, 4, 58, 63
4, 147600, Note_off_c, 4, 52, 63
4, 147840, Note_on_c, 4, 48, 95
4, 148320, Note_off_c, 4, 48, 95
4, 148320, Note_on_c, 4, 60, 63
4, 148320, Note_on_c, 4, 58, 63
4, 148320, Note_on_c, 4, 52, 63
4, 148560, Note_off_c, 4, 60, 63
4, 148560, Note_off_c, 4, 58, 63
4, 148560, Note_off_c, 4, 52, 63
4, 148800, Note_on_c, 4, 43, 95
4, 149280, Note_off_c, 4, 43, 95
4, 149280, Note_on_c, 4, 60, 63
4, 149280, Note_on_c, 4, 58, 63
4, 149280, Note_on_c, 4, 52, 63
4, 149520, Note_off_c, 4, 60, 63
4, 149520, Note_off_c, 4, 58, 63
4, 149520, Note_off_c, 4, 52, 63
4, 149760, Note_on_c, 4, 48, 95
4, 150240, Note_off_c, 4, 48, 95
4, 150240, Note_on_c, 4, 60, 63
4, 150240, Note_on_c, 4, 57, 63
4, 150240, Note_on_c, 4, 53, 63
4, 150480, Note_off_c, 4, 60, 63
4, 150480, Note_off_c, 4, 57, 63
4, 150480, Note_off_c, 4, 53, 63
4, 150720, Note_on_c, 4, 41, 95
4, 151200, Note_off_c, 4, 41, 95
4, 151200, Note_on_c, 4, 60, 63
4, 151200, Note_on_c, 4, 57, 63
4, 151200, Note_on_c, 4, 53, 63
4, 151440, Note_off_c, 4, 60, 63
4, 151440, Note_off_c, 4, 57, 63
4, 151440, Note_off_c, 4, 53, 63
4, 151680, Note_on_c, 4, 48, 95
4, 152160, Note_off_c, 4, 48, 95
4, 152160, Note_on_c, 4, 60, 63
4, 152160, Note_on_c, 4, 57, 63
4, 152160, Note_on_c, 4, 53, 63
4, 152400, Note_off_c, 4, 60, 63
4, 152400, Note_off_c, 4, 57, 63
4, 152400, Note_off_c, 4, 53, 63
4, 152640, Note_on_c, 4, 41, 95
4, 153120, Note_off_c, 4, 41, 95
4, 153120, Note_on_c, 4, 60, 63
4, 153120, Note_on_c, 4, 57, 63
4, 153120, Note_on_c, 4, 53, 63
4, 153360, Note_off_c, 4, 60, 63
4, 153360, Note_off_c, 4, 57, 63
4, 153360, Note_off_c, 4, 53, 63
4, 153600, Note_on_c, 4, 48, 95
4, 154080, Note_off_c, 4, 48, 95
4, 154080, Note_on_c, 4, 60, 63
4, 154080, Note_on_c, 4, 57, 63
4, 154080, Note_on_c, 4, 53, 63
4, 154320, Note_off_c, 4, 60, 63
4, 154320, Note_off_c, 4, 57, 63
4, 154320, Note_off_c, 4, 53, 63
4, 154560, Note_on_c, 4, 41, 95
4, 155040, Note_off_c, 4, 41, 95
4, 155040, Note_on_c, 4, 60, 63
4, 155040, Note_on_c, 4, 57, 63
4, 155040, Note_on_c, 4, 53, 63
4, 155280, Note_off_c, 4, 60, 63
4, 155280, Note_off_c, 4, 57, 63
4, 155280, Note_off_c, 4, 53, 63
4, 155520, Note_on_c, 4, 48, 95
4, 156000, Note_off_c, 4, 48, 95
4, 156000, Note_on_c, 4, 60, 63
4, 156000, Note_on_c, 4, 57, 63
4, 156000, Note_on_c, 4, 53, 63
4, 156240, Note_off_c, 4, 60, 63
4, 156240, Note_off_c, 4, 57, 63
4, 156240, Note_off_c, 4, 53, 63
4, 156480, Note_on_c, 4, 41, 95
4, 156960, Note_off_c, 4, 41, 95
4, 156960, Note_on_c, 4, 60, 63
4, 156960, Note_on_c, 4, 57, 63
4, 156960, Note_on_c, 4, 53, 63
4, 157200, Note_off_c, 4, 60, 63
4, 157200, Note_off_c, 4, 57, 63
4, 157200, Note_off_c, 4, 53, 63
4, 157440, Note_on_c, 4, 50, 95
4, 157920, Note_off_c, 4, 50, 95
4, 157920, Note_on_c, 4, 66, 63
4, 157920, Note_on_c, 4, 62, 63
4, 157920, Note_on_c, 4, 57, 63
4, 158160, Note_off_c, 4, 66, 63
4, 158160, Note_off_c, 4, 62, 63
4, 158160, Note_off_c, 4, 57, 63
4, 158400, Note_on_c, 4, 45, 95
4, 158880, Note_off_c, 4, 45, 95
4, 158880, Note_on_c, 4, 66, 63
4, 158880, Note_on_c, 4, 62, 63
4, 158880, Note_on_c, 4, 57, 63
4, 159120, Note_off_c, 4, 66, 63
4, 159120, Note_off_c, 4, 62, 63
4, 159120, Note_off_c, 4, 57, 63
4, 159360, Note_on_c, 4, 50, 95
4, 159840, Note_off_c, 4, 50, 95
4, 159840, Note_on_c, 4, 66, 63
4, 159840, Note_on_c, 4, 62, 63
4, 159840, Note_on_c, 4, 57, 63
4, 160080, Note_off_c, 4, 66, 63
4, 160080, Note_off_c, 4, 62, 63
4, 160080, Note_off_c, 4, 57, 63
4, 160320, Note_on_c, 4, 45, 95
4, 160800, Note_off_c, 4, 45, 95
4, 160800, Note_on_c, 4, 66, 63
4, 160800, Note_on_c, 4, 62, 63
4, 160800, Note_on_c, 4, 57, 63
4, 161040, Note_off_c, 4, 66, 63
4, 161040, Note_off_c, 4, 62, 63
4, 161040, Note_off_c, 4, 57, 63
4, 161280, Note_on_c, 4, 50, 95
4, 161760, Note_off_c, 4, 50, 95
4, 161760, Note_on_c, 4, 66, 63
4, 161760, Note_on_c, 4, 62, 63
4, 161760, Note_on_c, 4, 57, 63
4, 162000, Note_off_c, 4, 66, 63
4, 162000, Note_off_c, 4, 62, 63
4, 162000, Note_off_c, 4, 57, 63
4, 162240, Note_on_c, 4, 45, 95
4, 162720, Note_off_c, 4, 45, 95
4, 162720, Note_on_c, 4, 66, 63
4, 162720, Note_on_c, 4, 62, 63
4, 162720, Note_on_c, 4, 57, 63
4, 162960, Note_off_c, 4, 66, 63
4, 162960, Note_off_c, 4, 62, 63
4, 162960, Note_off_c, 4, 57, 63
4, 163200, Note_on_c, 4, 50, 95
4, 163680, Note_off_c, 4, 50, 95
4, 163680, Note_on_c, 4, 66, 63
4, 163680, Note_on_c, 4, 62, 63
4, 163680, Note_on_c, 4, 57, 63
4, 163920, Note_off_c, 4, 66, 63
4, 163920, Note_off_c, 4, 62, 63
4, 163920, Note_off_c, 4, 57, 63
4, 164160, Note_on_c, 4, 45, 95
4, 164640, Note_off_c, 4, 45, 95
4, 164640, Note_on_c, 4, 66, 63
4, 164640, Note_on_c, 4, 62, 63
4, 164640, Note_on_c, 4, 57, 63
4, 164880, Note_off_c, 4, 66, 63
4, 164880, Note_off_c, 4, 62, 63
4, 164880, Note_off_c, 4, 57, 63
4, 165120, Note_on_c, 4, 48, 95
4, 165600, Note_off_c, 4, 48, 95
4, 165600, Note_on_c, 4, 60, 63
4, 165600, Note_on_c, 4, 57, 63
4, 165600, Note_on_c, 4, 53, 63
4, 165840, Note_off_c, 4, 60, 63
4, 165840, Note_off_c, 4, 57, 63
4, 165840, Note_off_c, 4, 53, 63
4, 166080, Note_on_c, 4, 41, 95
4, 166560, Note_off_c, 4, 41, 95
4, 166560, Note_on_c, 4, 60, 63
4, 166560, Note_on_c, 4, 57, 63
4, 166560, Note_on_c, 4, 53, 63
4, 166800, Note_off_c, 4, 60, 63
4, 166800, Note_off_c, 4, 57, 63
4, 166800, Note_off_c, 4, 53, 63
4, 167040, Note_on_c, 4, 48, 95
4, 167520, Note_off_c, 4, 48, 95
4, 167520, Note_on_c, 4, 60, 63
4, 167520, Note_on_c, 4, 57, 63
4, 167520, Note_on_c, 4, 53, 63
4, 167760, Note_off_c, 4, 60, 63
4, 167760, Note_off_c, 4, 57, 63
4, 167760, Note_off_c, 4, 53, 63
4, 168000, Note_on_c, 4, 41, 95
4, 168480, Note_off_c, 4, 41, 95
4, 168480, Note_on_c, 4, 60, 63
4, 168480, Note_on_c, 4, 57, 63
4, 168480, Note_on_c, 4, 53, 63
4, 168720, Note_off_c, 4, 60, 63
4, 168720, Note_off_c, 4, 57, 63
4, 168720, Note_off_c, 4, 53, 63
4, 168960, Note_on_c, 4, 48, 95
4, 169440, Note_off_c, 4, 48, 95
4, 169440, Note_on_c, 4, 64, 63
4, 169440, Note_on_c, 4, 58, 63
4, 169440, Note_on_c, 4, 55, 63
4, 169680, Note_off_c, 4, 64, 63
4, 169680, Note_off_c, 4, 58, 63
4, 169680, Note_off_c, 4, 55, 63
4, 169920, Note_on_c, 4, 43, 95
4, 170400, Note_off_c, 4, 43, 95
4, 170400, Note_on_c, 4, 64, 63
4, 170400, Note_on_c, 4, 58, 63
4, 170400, Note_on_c, 4, 55, 63
4, 170640, Note_off_c, 4, 64, 63
4, 170640, Note_off_c, 4, 58, 63
4, 170640, Note_off_c, 4, 55, 63
4, 170880, Note_on_c, 4, 48, 95
4, 171360, Note_off_c, 4, 48, 95
4, 171360, Note_on_c, 4, 64, 63
4, 171360, Note_on_c, 4, 58, 63
4, 171360, Note_on_c, 4, 55, 63
4, 171600, Note_off_c, 4, 64, 63
4, 171600, Note_off_c, 4, 58, 63
4, 171600, Note_off_c, 4, 55, 63
4, 171840, Note_on_c, 4, 43, 95
4, 172320, Note_off_c, 4, 43, 95
4, 172320, Note_on_c, 4, 64, 63
4, 172320, Note_on_c, 4, 58, 63
4, 172320, Note_on_c, 4, 55, 63
4, 172560, Note_off_c, 4, 64, 63
4, 172560, Note_off_c, 4, 58, 63
4, 172560, Note_off_c, 4, 55, 63
4, 172800, Note_on_c, 4, 50, 95
4, 173280, Note_off_c, 4, 50, 95
4, 173280, Note_on_c, 4, 62, 63
4, 173280, Note_on_c, 4, 58, 63
4, 173280, Note_on_c, 4, 55, 63
4, 173520, Note_off_c, 4, 62, 63
4, 173520, Note_off_c, 4, 58, 63
4, 173520, Note_off_c, 4, 55, 63
4, 173760, Note_on_c, 4, 43, 95
4, 174240, Note_off_c, 4, 43, 95
4, 174240, Note_on_c, 4, 62, 63
4, 174240, Note_on_c, 4, 58, 63
4, 174240, Note_on_c, 4, 55, 63
4, 174480, Note_off_c, 4, 62, 63
4, 174480, Note_off_c, 4, 58, 63
4, 174480, Note_off_c, 4, 55, 63
4, 174720, Note_on_c, 4, 48, 95
4, 175200, Note_off_c, 4, 48, 95
4, 175200, Note_on_c, 4, 64, 63
4, 175200, Note_on_c, 4, 58, 63
4, 175200, Note_on_c, 4, 55, 63
4, 175440, Note_off_c, 4, 64, 63
4, 175440, Note_off_c, 4, 58, 63
4, 175440, Note_off_c, 4, 55, 63
4, 175680, Note_on_c, 4, 43, 95
4, 176160, Note_off_c, 4, 43, 95
4, 176160, Note_on_c, 4, 64, 63
4, 176160, Note_on_c, 4, 58, 63
4, 176160, Note_on_c, 4, 55, 63
4, 176400, Note_off_c, 4, 64, 63
4, 176400, Note_off_c, 4, 58, 63
4, 176400, Note_off_c, 4, 55, 63
4, 176640, Note_on_c, 4, 48, 95
4, 177120, Note_off_c, 4, 48, 95
4, 177120, Note_on_c, 4, 60, 63
4, 177120, Note_on_c, 4, 57, 63
4, 177120, Note_on_c, 4, 53, 63
4, 177360, Note_off_c, 4, 60, 63
4, 177360, Note_off_c, 4, 57, 63
4, 177360, Note_off_c, 4, 53, 63
4, 177600, Note_on_c, 4, 41, 95
4, 178080, Note_off_c, 4, 41, 95
4, 178080, Note_on_c, 4, 60, 63
4, 178080, Note_on_c, 4, 57, 63
4, 178080, Note_on_c, 4, 53, 63
4, 178320, Note_off_c, 4, 60, 63
4, 178320, Note_off_c, 4, 57, 63
4, 178320, Note_off_c, 4, 53, 63
4, 178560, Note_on_c, 4, 48, 95
4, 179040, Note_off_c, 4, 48, 95
4, 179040, Note_on_c, 4, 60, 63
4, 179040, Note_on_c, 4, 57, 63
4, 179040, Note_on_c, 4, 53, 63
4, 179280, Note_off_c, 4, 60, 63
4, 179280, Note_off_c, 4, 57, 63
4, 179280, Note_off_c, 4, 53, 63
4, 179520, Note_on_c, 4, 41, 95
4, 180000, Note_off_c, 4, 41, 95
4, 180000, Note_on_c, 4, 60, 63
4, 180000, Note_on_c, 4, 57, 63
4, 180000, Note_on_c, 4, 53, 63
4, 180240, Note_off_c, 4, 60, 63
4, 180240, Note_off_c, 4, 57, 63
4, 180240, Note_off_c, 4, 53, 63
4, 180480, Note_on_c, 4, 48, 95
4, 180960, Note_off_c, 4, 48, 95
4, 180960, Note_on_c, 4, 60, 63
4, 180960, Note_on_c, 4, 58, 63
4, 180960, Note_on_c, 4, 52, 63
4, 181200, Note_off_c, 4, 60, 63
4, 181200, Note_off_c, 4, 58, 63
4, 181200, Note_off_c, 4, 52, 63
4, 181440, Note_on_c, 4, 43, 95
4, 181920, Note_off_c, 4, 43, 95
4, 181920, Note_on_c, 4, 60, 63
4, 181920, Note_on_c, 4, 58, 63
4, 181920, Note_on_c, 4, 52, 63
4, 182160, Note_off_c, 4, 60, 63
4, 182160, Note_off_c, 4, 58, 63
4, 182160, Note_off_c, 4, 52, 63
4, 182400, Note_on_c, 4, 48, 95
4, 182880, Note_off_c, 4, 48, 95
4, 182880, Note_on_c, 4, 60, 63
4, 182880, Note_on_c, 4, 58, 63
4, 182880, Note_on_c, 4, 52, 63
4, 183120, Note_off_c, 4, 60, 63
4, 183120, Note_off_c, 4, 58, 63
4, 183120, Note_off_c, 4, 52, 63
4, 183360, Note_on_c, 4, 43, 95
4, 183840, Note_off_c, 4, 43, 95
4, 183840, Note_on_c, 4, 60, 63
4, 183840, Note_on_c, 4, 58, 63
4, 183840, Note_on_c, 4, 52, 63
4, 184080, Note_off_c, 4, 60, 63
4, 184080, Note_off_c, 4, 58, 63
4, 184080, Note_off_c, 4, 52, 63
4, 184320, Note_on_c, 4, 48, 95
4, 184800, Note_off_c, 4, 48, 95
4, 184800, Note_on_c, 4, 60, 63
4, 184800, Note_on_c, 4, 57, 63
4, 184800, Note_on_c, 4, 53, 63
4, 185040, Note_off_c, 4, 60, 63
4, 185040, Note_off_c, 4, 57, 63
4, 185040, Note_off_c, 4, 53, 63
4, 185280, Note_on_c, 4, 41, 95
4, 185760, Note_off_c, 4, 41, 95
4, 185760, Note_on_c, 4, 60, 63
4, 185760, Note_on_c, 4, 57, 63
4, 185760, Note_on_c, 4, 53, 63
4, 186000, Note_off_c, 4, 60, 63
4, 186000, Note_off_c, 4, 57, 63
4, 186000, Note_off_c, 4, 53, 63
4, 186240, Note_on_c, 4, 48, 95
4, 186720, Note_off_c, 4, 48, 95
4, 186720, Note_on_c, 4, 60, 63
4, 186720, Note_on_c, 4, 57, 63
4, 186720, Note_on_c, 4, 53, 63
4, 186960, Note_off_c, 4, 60, 63
4, 186960, Note_off_c, 4, 57, 63
4, 186960, Note_off_c, 4, 53, 63
4, 187200, Note_on_c, 4, 41, 95
4, 187680, Note_off_c, 4, 41, 95
4, 187680, Note_on_c, 4, 60, 63
4, 187680, Note_on_c, 4, 57, 63
4, 187680, Note_on_c, 4, 53, 63
4, 187920, Note_off_c, 4, 60, 63
4, 187920, Note_off_c, 4, 57, 63
4, 187920, Note_off_c, 4, 53, 63
4, 188160, Note_on_c, 4, 48, 95
4, 188640, Note_off_c, 4, 48, 95
4, 188640, Note_on_c, 4, 60, 63
4, 188640, Note_on_c, 4, 57, 63
4, 188640, Note_on_c, 4, 53, 63
4, 188880, Note_off_c, 4, 60, 63
4, 188880, Note_off_c, 4, 57, 63
4, 188880, Note_off_c, 4, 53, 63
4, 189120, Note_on_c, 4, 41, 95
4, 189600, Note_off_c, 4, 41, 95
4, 189600, Note_on_c, 4, 60, 63
4, 189600, Note_on_c, 4, 57, 63
4, 189600, Note_on_c, 4, 53, 63
4, 189840, Note_off_c, 4, 60, 63
4, 189840, Note_off_c, 4, 57, 63
4, 189840, Note_off_c, 4, 53, 63
4, 190080, Note_on_c, 4, 48, 95
4, 190560, Note_off_c, 4, 48, 95
4, 190560, Note_on_c, 4, 60, 63
4, 190560, Note_on_c, 4, 57, 63
4, 190560, Note_on_c, 4, 53, 63
4, 190800, Note_off_c, 4, 60, 63
4, 190800, Note_off_c, 4, 57, 63
4, 190800, Note_off_c, 4, 53, 63
4, 191040, Note_on_c, 4, 41, 95
4, 191520, Note_off_c, 4, 41, 95
4, 191520, Note_on_c, 4, 60, 63
4, 191520, Note_on_c, 4, 57, 63
4, 191520, Note_on_c, 4, 53, 63
4, 191760, Note_off_c, 4, 60, 63
4, 191760, Note_off_c, 4, 57, 63
4, 191760, Note_off_c, 4, 53, 63
4, 192000, Note_on_c, 4, 50, 95
4, 192480, Note_off_c, 4, 50, 95
4, 192480, Note_on_c, 4, 62, 63
4, 192480, Note_on_c, 4, 60, 63
4, 192480, Note_on_c, 4, 54, 63
4, 192720, Note_off_c, 4, 62, 63
4, 192720, Note_off_c, 4, 60, 63
4, 192720, Note_off_c, 4, 54, 63
4, 192960, Note_on_c, 4, 45, 95
4, 193440, Note_off_c, 4, 45, 95
4, 193440, Note_on_c, 4, 62, 63
4, 193440, Note_on_c, 4, 60, 63
4, 193440, Note_on_c, 4, 53, 63
4, 193680, Note_off_c, 4, 62, 63
4, 193680, Note_off_c, 4, 60, 63
4, 193680, Note_off_c, 4, 53, 63
4, 193920, Note_on_c, 4, 50, 95
4, 194400, Note_off_c, 4, 50, 95
4, 194400, Note_on_c, 4, 62, 63
4, 194400, Note_on_c, 4, 60, 63
4, 194400, Note_on_c, 4, 54, 63
4, 194640, Note_off_c, 4, 62, 63
4, 194640, Note_off_c, 4, 60, 63
4, 194640, Note_off_c, 4, 54, 63
4, 194880, Note_on_c, 4, 45, 95
4, 195360, Note_off_c, 4, 45, 95
4, 195360, Note_on_c, 4, 62, 63
4, 195360, Note_on_c, 4, 60, 63
4, 195360, Note_on_c, 4, 54, 63
4, 195600, Note_off_c, 4, 62, 63
4, 195600, Note_off_c, 4, 60, 63
4, 195600, Note_off_c, 4, 54, 63
4, 195840, Note_on_c, 4, 50, 95
4, 196320, Note_off_c, 4, 50, 95
4, 196320, Note_on_c, 4, 62, 63
4, 196320, Note_on_c, 4, 60, 63
4, 196320, Note_on_c, 4, 54, 63
4, 196560, Note_off_c, 4, 62, 63
4, 196560, Note_off_c, 4, 60, 63
4, 196560, Note_off_c, 4, 54, 63
4, 196800, Note_on_c, 4, 45, 95
4, 197280, Note_off_c, 4, 45, 95
4, 197280, Note_on_c, 4, 62, 63
4, 197280, Note_on_c, 4, 60, 63
4, 197280, Note_on_c, 4, 53, 63
4, 197520, Note_off_c, 4, 62, 63
4, 197520, Note_off_c, 4, 60, 63
4, 197520, Note_off_c, 4, 53, 63
4, 197760, Note_on_c, 4, 50, 95
4, 198240, Note_off_c, 4, 50, 95
4, 198240, Note_on_c, 4, 62, 63
4, 198240, Note_on_c, 4, 60, 63
4, 198240, Note_on_c, 4, 54, 63
4, 198480, Note_off_c, 4, 62, 63
4, 198480, Note_off_c, 4, 60, 63
4, 198480, Note_off_c, 4, 54, 63
4, 198720, Note_on_c, 4, 45, 95
4, 199200, Note_off_c, 4, 45, 95
4, 199200, Note_on_c, 4, 62, 63
4, 199200, Note_on_c, 4, 60, 63
4, 199200, Note_on_c, 4, 54, 63
4, 199440, Note_off_c, 4, 62, 63
4, 199440, Note_off_c, 4, 60, 63
4, 199440, Note_off_c, 4, 54, 63
4, 199680, Note_on_c, 4, 50, 95
4, 200160, Note_off_c, 4, 50, 95
4, 200160, Note_on_c, 4, 62, 63
4, 200160, Note_on_c, 4, 58, 63
4, 200160, Note_on_c, 4, 55, 63
4, 200400, Note_off_c, 4, 62, 63
4, 200400, Note_off_c, 4, 58, 63
4, 200400, Note_off_c, 4, 55, 63
4, 200640, Note_on_c, 4, 43, 95
4, 201120, Note_off_c, 4, 43, 95
4, 201120, Note_on_c, 4, 62, 63
4, 201120, Note_on_c, 4, 58, 63
4, 201120, Note_on_c, 4, 55, 63
4, 201360, Note_off_c, 4, 62, 63
4, 201360, Note_off_c, 4, 58, 63
4, 201360, Note_off_c, 4, 55, 63
4, 201600, Note_on_c, 4, 50, 95
4, 202080, Note_off_c, 4, 50, 95
4, 202080, Note_on_c, 4, 62, 63
4, 202080, Note_on_c, 4, 60, 63
4, 202080, Note_on_c, 4, 55, 63
4, 202320, Note_off_c, 4, 62, 63
4, 202320, Note_off_c, 4, 60, 63
4, 202320, Note_off_c, 4, 55, 63
4, 202560, Note_on_c, 4, 43, 95
4, 203040, Note_off_c, 4, 43, 95
4, 203040, Note_on_c, 4, 62, 63
4, 203040, Note_on_c, 4, 58, 63
4, 203040, Note_on_c, 4, 55, 63
4, 203280, Note_off_c, 4, 62, 63
4, 203280, Note_off_c, 4, 58, 63
4, 203280, Note_off_c, 4, 55, 63
4, 203520, Note_on_c, 4, 53, 95
4, 204000, Note_off_c, 4, 53, 95
4, 204000, Note_on_c, 4, 67, 63
4, 204000, Note_on_c, 4, 61, 63
4, 204000, Note_on_c, 4, 58, 63
4, 204240, Note_off_c, 4, 67, 63
4, 204240, Note_off_c, 4, 61, 63
4, 204240, Note_off_c, 4, 58, 63
4, 204480, Note_on_c, 4, 46, 95
4, 204960, Note_off_c, 4, 46, 95
4, 204960, Note_on_c, 4, 67, 63
4, 204960, Note_on_c, 4, 61, 63
4, 204960, Note_on_c, 4, 58, 63
4, 205200, Note_off_c, 4, 67, 63
4, 205200, Note_off_c, 4, 61, 63
4, 205200, Note_off_c, 4, 58, 63
4, 205440, Note_on_c, 4, 53, 95
4, 205920, Note_off_c, 4, 53, 95
4, 205920, Note_on_c, 4, 67, 63
4, 205920, Note_on_c, 4, 61, 63
4, 205920, Note_on_c, 4, 58, 63
4, 206160, Note_off_c, 4, 67, 63
4, 206160, Note_off_c, 4, 61, 63
4, 206160, Note_off_c, 4, 58, 63
4, 206400, Note_on_c, 4, 46, 95
4, 206880, Note_off_c, 4, 46, 95
4, 206880, Note_on_c, 4, 67, 63
4, 206880, Note_on_c, 4, 61, 63
4, 206880, Note_on_c, 4, 58, 63
4, 207120, Note_off_c, 4, 67, 63
4, 207120, Note_off_c, 4, 61, 63
4, 207120, Note_off_c, 4, 58, 63
4, 207360, Note_on_c, 4, 48, 95
4, 207840, Note_off_c, 4, 48, 95
4, 207840, Note_on_c, 4, 60, 63
4, 207840, Note_on_c, 4, 57, 63
4, 207840, Note_on_c, 4, 53, 63
4, 208080, Note_off_c, 4, 60, 63
4, 208080, Note_off_c, 4, 57, 63
4, 208080, Note_off_c, 4, 53, 63
4, 208320, Note_on_c, 4, 41, 95
4, 208800, Note_off_c, 4, 41, 95
4, 208800, Note_on_c, 4, 60, 63
4, 208800, Note_on_c, 4, 57, 63
4, 208800, Note_on_c, 4, 53, 63
4, 209040, Note_off_c, 4, 60, 63
4, 209040, Note_off_c, 4, 57, 63
4, 209040, Note_off_c, 4, 53, 63
4, 209280, Note_on_c, 4, 48, 95
4, 209760, Note_off_c, 4, 48, 95
4, 209760, Note_on_c, 4, 60, 63
4, 209760, Note_on_c, 4, 57, 63
4, 209760, Note_on_c, 4, 53, 63
4, 210000, Note_off_c, 4, 60, 63
4, 210000, Note_off_c, 4, 57, 63
4, 210000, Note_off_c, 4, 53, 63
4, 210240, Note_on_c, 4, 41, 95
4, 210720, Note_off_c, 4, 41, 95
4, 210720, Note_on_c, 4, 60, 63
4, 210720, Note_on_c, 4, 57, 63
4, 210720, Note_on_c, 4, 53, 63
4, 210960, Note_off_c, 4, 60, 63
4, 210960, Note_off_c, 4, 57, 63
4, 210960, Note_off_c, 4, 53, 63
4, 211200, Note_on_c, 4, 50, 95
4, 211680, Note_off_c, 4, 50, 95
4, 211680, Note_on_c, 4, 62, 63
4, 211680, Note_on_c, 4, 60, 63
4, 211680, Note_on_c, 4, 54, 63
4, 211920, Note_off_c, 4, 62, 63
4, 211920, Note_off_c, 4, 60, 63
4, 211920, Note_off_c, 4, 54, 63
4, 212160, Note_on_c, 4, 45, 95
4, 212640, Note_off_c, 4, 45, 95
4, 212640, Note_on_c, 4, 62, 63
4, 212640, Note_on_c, 4, 60, 63
4, 212640, Note_on_c, 4, 53, 63
4, 212880, Note_off_c, 4, 62, 63
4, 212880, Note_off_c, 4, 60, 63
4, 212880, Note_off_c, 4, 53, 63
4, 213120, Note_on_c, 4, 50, 95
4, 213600, Note_off_c, 4, 50, 95
4, 213600, Note_on_c, 4, 62, 63
4, 213600, Note_on_c, 4, 60, 63
4, 213600, Note_on_c, 4, 54, 63
4, 213840, Note_off_c, 4, 62, 63
4, 213840, Note_off_c, 4, 60, 63
4, 213840, Note_off_c, 4, 54, 63
4, 214080, Note_on_c, 4, 45, 95
4, 214560, Note_off_c, 4, 45, 95
4, 214560, Note_on_c, 4, 62, 63
4, 214560, Note_on_c, 4, 60, 63
4, 214560, Note_on_c, 4, 54, 63
4, 214800, Note_off_c, 4, 62, 63
4, 214800, Note_off_c, 4, 60, 63
4, 214800, Note_off_c, 4, 54, 63
4, 215040, Note_on_c, 4, 55, 111
4, 216960, Note_off_c, 4, 55, 111
4, 216960, Note_on_c, 4, 60, 111
4, 218880, Note_off_c, 4, 60, 111
4, 218880, Note_on_c, 4, 53, 111
4, 220800, Note_off_c, 4, 53, 111
4, 220800, Note_on_c, 4, 58, 111
4, 221760, Note_off_c, 4, 58, 111
4, 221760, Note_on_c, 4, 60, 95
4, 222720, Note_off_c, 4, 60, 95
4, 224880, Note_on_c, 4, 51, 111
4, 225120, Note_off_c, 4, 51, 111
4, 225120, Note_on_c, 4, 50, 111
4, 225360, Note_off_c, 4, 50, 111
4, 225360, Note_on_c, 4, 53, 111
4, 225600, Note_off_c, 4, 53, 111
4, 226320, Note_on_c, 4, 51, 111
4, 226560, Note_off_c, 4, 51, 111
4, 226560, Note_on_c, 4, 50, 111
4, 226800, Note_off_c, 4, 50, 111
4, 226800, Note_on_c, 4, 53, 111
4, 227040, Note_off_c, 4, 53, 111
4, 227520, Note_on_c, 4, 53, 111
4, 227760, Note_off_c, 4, 53, 111
4, 228960, Note_on_c, 4, 53, 111
4, 229200, Note_off_c, 4, 53, 111
4, 229200, End_track
0, 0, End_of_file
