0, 0, Header, 1, 8, 96
1, 0, Start_track
1, 0, Time_signature, 4, 2, 96, 8
1, 0, Tempo, 833333
1, 31680, Tempo, 845070
1, 31872, Tempo, 895522
1, 32064, Tempo, 909090
1, 32256, Tempo, 1034482
1, 32256, End_track
2, 0, Start_track
2, 0, Control_c, 1, 32, 0
2, 0, Control_c, 1, 0, 0
2, 0, Program_c, 1, 35
2, 0, Control_c, 1, 10, 64
2, 0, Control_c, 1, 91, 36
2, 0, Control_c, 1, 93, 51
2, 0, Time_signature, 4, 2, 96, 8
2, 0, Tempo, 833333
2, 96, Control_c, 1, 121, 0
2, 264, Control_c, 1, 7, 127
2, 288, Control_c, 1, 11, 127
2, 768, Note_on_c, 1, 36, 127
2, 888, Note_off_c, 1, 36, 0
2, 912, Note_on_c, 1, 36, 127
2, 960, Note_off_c, 1, 36, 0
2, 960, Note_on_c, 1, 35, 127
2, 1080, Note_off_c, 1, 35, 0
2, 1104, Note_on_c, 1, 35, 127
2, 1152, Note_off_c, 1, 35, 0
2, 1152, Note_on_c, 1, 33, 127
2, 1296, Note_off_c, 1, 33, 0
2, 1296, Note_on_c, 1, 33, 127
2, 1344, Note_off_c, 1, 33, 0
2, 1344, Note_on_c, 1, 31, 127
2, 1464, Note_off_c, 1, 31, 0
2, 1488, Note_on_c, 1, 31, 127
2, 1512, Note_off_c, 1, 31, 0
2, 1536, Note_on_c, 1, 41, 127
2, 1656, Note_off_c, 1, 41, 0
2, 1680, Note_on_c, 1, 41, 127
2, 1728, Note_off_c, 1, 41, 0
2, 1728, Note_on_c, 1, 40, 127
2, 1872, Note_off_c, 1, 40, 0
2, 1872, Note_on_c, 1, 40, 126
2, 1920, Note_off_c, 1, 40, 0
2, 1920, Note_on_c, 1, 38, 127
2, 2064, Note_off_c, 1, 38, 0
2, 2064, Note_on_c, 1, 38, 118
2, 2112, Note_off_c, 1, 38, 0
2, 2112, Note_on_c, 1, 36, 126
2, 2232, Note_off_c, 1, 36, 0
2, 2256, Note_on_c, 1, 36, 118
2, 2280, Note_off_c, 1, 36, 0
2, 2304, Note_on_c, 1, 43, 126
2, 2424, Note_off_c, 1, 43, 0
2, 2448, Note_on_c, 1, 43, 118
2, 2496, Note_off_c, 1, 43, 0
2, 2496, Note_on_c, 1, 41, 126
2, 2640, Note_off_c, 1, 41, 0
2, 2640, Note_on_c, 1, 41, 120
2, 2688, Note_off_c, 1, 41, 0
2, 2688, Note_on_c, 1, 40, 126
2, 2808, Note_off_c, 1, 40, 0
2, 2832, Note_on_c, 1, 40, 120
2, 2880, Note_off_c, 1, 40, 0
2, 2880, Note_on_c, 1, 38, 120
2, 3000, Note_off_c, 1, 38, 0
2, 3024, Note_on_c, 1, 38, 115
2, 3072, Note_off_c, 1, 38, 0
2, 3072, Note_on_c, 1, 36, 127
2, 3192, Note_off_c, 1, 36, 0
2, 3216, Note_on_c, 1, 36, 127
2, 3264, Note_off_c, 1, 36, 0
2, 3264, Note_on_c, 1, 41, 127
2, 3384, Note_off_c, 1, 41, 0
2, 3408, Note_on_c, 1, 41, 120
2, 3432, Note_off_c, 1, 41, 0
2, 3456, Note_on_c, 1, 43, 127
2, 3576, Note_off_c, 1, 43, 0
2, 3600, Note_on_c, 1, 43, 120
2, 3648, Note_off_c, 1, 43, 0
2, 3648, Note_on_c, 1, 31, 127
2, 3696, Note_off_c, 1, 31, 0
2, 3720, Note_on_c, 1, 31, 117
2, 3744, Note_off_c, 1, 31, 0
2, 3744, Note_on_c, 1, 31, 127
2, 3840, Note_off_c, 1, 31, 0
2, 3840, Note_on_c, 1, 36, 127
2, 3960, Note_off_c, 1, 36, 0
2, 3984, Note_on_c, 1, 36, 127
2, 4032, Note_off_c, 1, 36, 0
2, 4032, Note_on_c, 1, 35, 127
2, 4152, Note_off_c, 1, 35, 0
2, 4176, Note_on_c, 1, 35, 127
2, 4224, Note_off_c, 1, 35, 0
2, 4224, Note_on_c, 1, 33, 127
2, 4368, Note_off_c, 1, 33, 0
2, 4368, Note_on_c, 1, 33, 127
2, 4416, Note_off_c, 1, 33, 0
2, 4416, Note_on_c, 1, 31, 127
2, 4536, Note_off_c, 1, 31, 0
2, 4560, Note_on_c, 1, 31, 127
2, 4584, Note_off_c, 1, 31, 0
2, 4608, Note_on_c, 1, 41, 127
2, 4728, Note_off_c, 1, 41, 0
2, 4752, Note_on_c, 1, 41, 127
2, 4800, Note_off_c, 1, 41, 0
2, 4800, Note_on_c, 1, 40, 127
2, 4944, Note_off_c, 1, 40, 0
2, 4944, Note_on_c, 1, 40, 113
2, 4992, Note_off_c, 1, 40, 0
2, 4992, Note_on_c, 1, 38, 127
2, 5136, Note_off_c, 1, 38, 0
2, 5136, Note_on_c, 1, 38, 126
2, 5184, Note_off_c, 1, 38, 0
2, 5184, Note_on_c, 1, 36, 126
2, 5304, Note_off_c, 1, 36, 0
2, 5328, Note_on_c, 1, 36, 127
2, 5352, Note_off_c, 1, 36, 0
2, 5376, Note_on_c, 1, 43, 127
2, 5496, Note_off_c, 1, 43, 0
2, 5520, Note_on_c, 1, 43, 115
2, 5568, Note_off_c, 1, 43, 0
2, 5568, Note_on_c, 1, 41, 127
2, 5712, Note_off_c, 1, 41, 0
2, 5712, Note_on_c, 1, 41, 120
2, 5760, Note_off_c, 1, 41, 0
2, 5760, Note_on_c, 1, 40, 127
2, 5880, Note_off_c, 1, 40, 0
2, 5904, Note_on_c, 1, 40, 120
2, 5952, Note_off_c, 1, 40, 0
2, 5952, Note_on_c, 1, 38, 120
2, 6072, Note_off_c, 1, 38, 0
2, 6096, Note_on_c, 1, 38, 127
2, 6144, Note_off_c, 1, 38, 0
2, 6144, Note_on_c, 1, 36, 127
2, 6264, Note_off_c, 1, 36, 0
2, 6288, Note_on_c, 1, 36, 127
2, 6336, Note_off_c, 1, 36, 0
2, 6336, Note_on_c, 1, 35, 127
2, 6456, Note_off_c, 1, 35, 0
2, 6480, Note_on_c, 1, 35, 127
2, 6528, Note_off_c, 1, 35, 0
2, 6528, Note_on_c, 1, 33, 127
2, 6672, Note_off_c, 1, 33, 0
2, 6672, Note_on_c, 1, 33, 127
2, 6720, Note_off_c, 1, 33, 0
2, 6720, Note_on_c, 1, 31, 127
2, 6840, Note_off_c, 1, 31, 0
2, 6864, Note_on_c, 1, 31, 127
2, 6888, Note_off_c, 1, 31, 0
2, 6912, Note_on_c, 1, 41, 127
2, 7032, Note_off_c, 1, 41, 0
2, 7056, Note_on_c, 1, 41, 127
2, 7104, Note_off_c, 1, 41, 0
2, 7104, Note_on_c, 1, 40, 127
2, 7248, Note_off_c, 1, 40, 0
2, 7248, Note_on_c, 1, 40, 123
2, 7296, Note_off_c, 1, 40, 0
2, 7296, Note_on_c, 1, 38, 127
2, 7440, Note_off_c, 1, 38, 0
2, 7440, Note_on_c, 1, 38, 118
2, 7488, Note_off_c, 1, 38, 0
2, 7488, Note_on_c, 1, 36, 127
2, 7608, Note_off_c, 1, 36, 0
2, 7632, Note_on_c, 1, 36, 120
2, 7656, Note_off_c, 1, 36, 0
2, 7680, Note_on_c, 1, 43, 127
2, 7800, Note_off_c, 1, 43, 0
2, 7824, Note_on_c, 1, 43, 127
2, 7872, Note_off_c, 1, 43, 0
2, 7872, Note_on_c, 1, 41, 126
2, 8016, Note_off_c, 1, 41, 0
2, 8016, Note_on_c, 1, 41, 120
2, 8064, Note_off_c, 1, 41, 0
2, 8064, Note_on_c, 1, 40, 127
2, 8184, Note_off_c, 1, 40, 0
2, 8208, Note_on_c, 1, 40, 120
2, 8256, Note_off_c, 1, 40, 0
2, 8256, Note_on_c, 1, 38, 120
2, 8376, Note_off_c, 1, 38, 0
2, 8400, Note_on_c, 1, 38, 127
2, 8448, Note_off_c, 1, 38, 0
2, 8448, Note_on_c, 1, 36, 127
2, 8568, Note_off_c, 1, 36, 0
2, 8592, Note_on_c, 1, 36, 127
2, 8640, Note_off_c, 1, 36, 0
2, 8640, Note_on_c, 1, 35, 127
2, 8760, Note_off_c, 1, 35, 0
2, 8784, Note_on_c, 1, 35, 127
2, 8832, Note_off_c, 1, 35, 0
2, 8832, Note_on_c, 1, 33, 127
2, 8976, Note_off_c, 1, 33, 0
2, 8976, Note_on_c, 1, 33, 126
2, 9024, Note_off_c, 1, 33, 0
2, 9024, Note_on_c, 1, 31, 127
2, 9144, Note_off_c, 1, 31, 0
2, 9168, Note_on_c, 1, 31, 126
2, 9192, Note_off_c, 1, 31, 0
2, 9216, Note_on_c, 1, 41, 127
2, 9336, Note_off_c, 1, 41, 0
2, 9360, Note_on_c, 1, 41, 113
2, 9408, Note_off_c, 1, 41, 0
2, 9408, Note_on_c, 1, 40, 127
2, 9552, Note_off_c, 1, 40, 0
2, 9552, Note_on_c, 1, 40, 126
2, 9600, Note_off_c, 1, 40, 0
2, 9600, Note_on_c, 1, 38, 127
2, 9744, Note_off_c, 1, 38, 0
2, 9744, Note_on_c, 1, 38, 126
2, 9792, Note_off_c, 1, 38, 0
2, 9792, Note_on_c, 1, 43, 127
2, 9864, Note_off_c, 1, 43, 0
2, 9864, Note_on_c, 1, 31, 127
2, 9936, Note_off_c, 1, 31, 0
2, 9936, Note_on_c, 1, 31, 127
2, 9984, Note_off_c, 1, 31, 0
2, 9984, Note_on_c, 1, 36, 127
2, 10104, Note_off_c, 1, 36, 0
2, 10128, Note_on_c, 1, 36, 127
2, 10176, Note_off_c, 1, 36, 0
2, 10176, Note_on_c, 1, 35, 127
2, 10296, Note_off_c, 1, 35, 0
2, 10320, Note_on_c, 1, 35, 127
2, 10368, Note_off_c, 1, 35, 0
2, 10368, Note_on_c, 1, 33, 127
2, 10512, Note_off_c, 1, 33, 0
2, 10512, Note_on_c, 1, 33, 127
2, 10560, Note_off_c, 1, 33, 0
2, 10560, Note_on_c, 1, 31, 127
2, 10680, Note_off_c, 1, 31, 0
2, 10704, Note_on_c, 1, 31, 120
2, 10728, Note_off_c, 1, 31, 0
2, 10752, Note_on_c, 1, 41, 127
2, 10872, Note_off_c, 1, 41, 0
2, 10896, Note_on_c, 1, 41, 110
2, 10944, Note_off_c, 1, 41, 0
2, 10944, Note_on_c, 1, 40, 127
2, 11088, Note_off_c, 1, 40, 0
2, 11088, Note_on_c, 1, 40, 113
2, 11136, Note_off_c, 1, 40, 0
2, 11136, Note_on_c, 1, 38, 126
2, 11280, Note_off_c, 1, 38, 0
2, 11280, Note_on_c, 1, 38, 126
2, 11328, Note_off_c, 1, 38, 0
2, 11328, Note_on_c, 1, 36, 127
2, 11448, Note_off_c, 1, 36, 0
2, 11472, Note_on_c, 1, 36, 120
2, 11496, Note_off_c, 1, 36, 0
2, 11520, Note_on_c, 1, 43, 127
2, 11640, Note_off_c, 1, 43, 0
2, 11664, Note_on_c, 1, 43, 127
2, 11712, Note_off_c, 1, 43, 0
2, 11712, Note_on_c, 1, 41, 126
2, 11856, Note_off_c, 1, 41, 0
2, 11856, Note_on_c, 1, 41, 120
2, 11904, Note_off_c, 1, 41, 0
2, 11904, Note_on_c, 1, 40, 127
2, 12024, Note_off_c, 1, 40, 0
2, 12048, Note_on_c, 1, 40, 120
2, 12096, Note_off_c, 1, 40, 0
2, 12096, Note_on_c, 1, 38, 120
2, 12216, Note_off_c, 1, 38, 0
2, 12240, Note_on_c, 1, 38, 127
2, 12288, Note_off_c, 1, 38, 0
2, 12288, Note_on_c, 1, 36, 127
2, 12408, Note_off_c, 1, 36, 0
2, 12432, Note_on_c, 1, 36, 127
2, 12480, Note_off_c, 1, 36, 0
2, 12480, Note_on_c, 1, 29, 127
2, 12576, Note_off_c, 1, 29, 0
2, 12576, Note_on_c, 1, 41, 127
2, 12672, Note_off_c, 1, 41, 0
2, 12672, Note_on_c, 1, 36, 127
2, 12792, Note_off_c, 1, 36, 0
2, 12816, Note_on_c, 1, 36, 127
2, 12864, Note_off_c, 1, 36, 0
2, 12864, Note_on_c, 1, 31, 127
2, 12960, Note_off_c, 1, 31, 0
2, 12960, Note_on_c, 1, 43, 127
2, 13008, Note_off_c, 1, 43, 0
2, 13008, Note_on_c, 1, 31, 127
2, 13056, Note_off_c, 1, 31, 0
2, 13056, Note_on_c, 1, 36, 127
2, 13176, Note_off_c, 1, 36, 0
2, 13200, Note_on_c, 1, 36, 127
2, 13248, Note_off_c, 1, 36, 0
2, 13248, Note_on_c, 1, 35, 127
2, 13368, Note_off_c, 1, 35, 0
2, 13392, Note_on_c, 1, 35, 127
2, 13440, Note_off_c, 1, 35, 0
2, 13440, Note_on_c, 1, 33, 127
2, 13584, Note_off_c, 1, 33, 0
2, 13584, Note_on_c, 1, 33, 127
2, 13632, Note_off_c, 1, 33, 0
2, 13632, Note_on_c, 1, 31, 127
2, 13752, Note_off_c, 1, 31, 0
2, 13776, Note_on_c, 1, 31, 118
2, 13800, Note_off_c, 1, 31, 0
2, 13824, Note_on_c, 1, 41, 127
2, 13944, Note_off_c, 1, 41, 0
2, 13968, Note_on_c, 1, 41, 113
2, 14016, Note_off_c, 1, 41, 0
2, 14016, Note_on_c, 1, 40, 126
2, 14160, Note_off_c, 1, 40, 0
2, 14160, Note_on_c, 1, 40, 118
2, 14208, Note_off_c, 1, 40, 0
2, 14208, Note_on_c, 1, 38, 118
2, 14352, Note_off_c, 1, 38, 0
2, 14352, Note_on_c, 1, 38, 113
2, 14400, Note_off_c, 1, 38, 0
2, 14400, Note_on_c, 1, 36, 127
2, 14520, Note_off_c, 1, 36, 0
2, 14544, Note_on_c, 1, 36, 115
2, 14568, Note_off_c, 1, 36, 0
2, 14592, Note_on_c, 1, 43, 127
2, 14712, Note_off_c, 1, 43, 0
2, 14736, Note_on_c, 1, 43, 123
2, 14784, Note_off_c, 1, 43, 0
2, 14784, Note_on_c, 1, 41, 127
2, 14928, Note_off_c, 1, 41, 0
2, 14928, Note_on_c, 1, 41, 120
2, 14976, Note_off_c, 1, 41, 0
2, 14976, Note_on_c, 1, 40, 126
2, 15096, Note_off_c, 1, 40, 0
2, 15120, Note_on_c, 1, 40, 120
2, 15168, Note_off_c, 1, 40, 0
2, 15168, Note_on_c, 1, 38, 123
2, 15288, Note_off_c, 1, 38, 0
2, 15312, Note_on_c, 1, 38, 118
2, 15360, Note_off_c, 1, 38, 0
2, 15360, Note_on_c, 1, 36, 126
2, 15480, Note_off_c, 1, 36, 0
2, 15504, Note_on_c, 1, 36, 127
2, 15552, Note_off_c, 1, 36, 0
2, 15552, Note_on_c, 1, 41, 127
2, 15672, Note_off_c, 1, 41, 0
2, 15696, Note_on_c, 1, 41, 120
2, 15720, Note_off_c, 1, 41, 0
2, 15744, Note_on_c, 1, 43, 127
2, 15864, Note_off_c, 1, 43, 0
2, 15888, Note_on_c, 1, 43, 120
2, 15936, Note_off_c, 1, 43, 0
2, 15936, Note_on_c, 1, 31, 127
2, 15984, Note_off_c, 1, 31, 0
2, 16008, Note_on_c, 1, 31, 117
2, 16032, Note_off_c, 1, 31, 0
2, 16032, Note_on_c, 1, 31, 127
2, 16128, Note_off_c, 1, 31, 0
2, 16128, Note_on_c, 1, 36, 127
2, 16248, Note_off_c, 1, 36, 0
2, 16272, Note_on_c, 1, 36, 126
2, 16320, Note_off_c, 1, 36, 0
2, 16320, Note_on_c, 1, 35, 127
2, 16440, Note_off_c, 1, 35, 0
2, 16464, Note_on_c, 1, 35, 123
2, 16512, Note_off_c, 1, 35, 0
2, 16512, Note_on_c, 1, 33, 127
2, 16632, Note_off_c, 1, 33, 0
2, 16656, Note_on_c, 1, 33, 123
2, 16704, Note_off_c, 1, 33, 0
2, 16704, Note_on_c, 1, 31, 127
2, 16824, Note_off_c, 1, 31, 0
2, 16848, Note_on_c, 1, 31, 126
2, 16872, Note_off_c, 1, 31, 0
2, 16896, Note_on_c, 1, 41, 127
2, 17016, Note_off_c, 1, 41, 0
2, 17040, Note_on_c, 1, 41, 106
2, 17088, Note_off_c, 1, 41, 0
2, 17088, Note_on_c, 1, 40, 126
2, 17208, Note_off_c, 1, 40, 0
2, 17232, Note_on_c, 1, 40, 118
2, 17280, Note_off_c, 1, 40, 0
2, 17280, Note_on_c, 1, 38, 127
2, 17400, Note_off_c, 1, 38, 0
2, 17424, Note_on_c, 1, 38, 126
2, 17472, Note_off_c, 1, 38, 0
2, 17472, Note_on_c, 1, 36, 126
2, 17592, Note_off_c, 1, 36, 0
2, 17616, Note_on_c, 1, 36, 127
2, 17640, Note_off_c, 1, 36, 0
2, 17664, Note_on_c, 1, 43, 127
2, 17784, Note_off_c, 1, 43, 0
2, 17808, Note_on_c, 1, 43, 127
2, 17856, Note_off_c, 1, 43, 0
2, 17856, Note_on_c, 1, 41, 126
2, 17976, Note_off_c, 1, 41, 0
2, 18000, Note_on_c, 1, 41, 120
2, 18048, Note_off_c, 1, 41, 0
2, 18048, Note_on_c, 1, 40, 127
2, 18168, Note_off_c, 1, 40, 0
2, 18192, Note_on_c, 1, 40, 120
2, 18240, Note_off_c, 1, 40, 0
2, 18240, Note_on_c, 1, 38, 120
2, 18360, Note_off_c, 1, 38, 0
2, 18384, Note_on_c, 1, 38, 126
2, 18432, Note_off_c, 1, 38, 0
2, 18432, Note_on_c, 1, 36, 127
2, 18552, Note_off_c, 1, 36, 0
2, 18576, Note_on_c, 1, 36, 126
2, 18624, Note_off_c, 1, 36, 0
2, 18624, Note_on_c, 1, 35, 127
2, 18744, Note_off_c, 1, 35, 0
2, 18768, Note_on_c, 1, 35, 127
2, 18816, Note_off_c, 1, 35, 0
2, 18816, Note_on_c, 1, 33, 126
2, 18936, Note_off_c, 1, 33, 0
2, 18960, Note_on_c, 1, 33, 127
2, 19008, Note_off_c, 1, 33, 0
2, 19008, Note_on_c, 1, 31, 127
2, 19128, Note_off_c, 1, 31, 0
2, 19152, Note_on_c, 1, 31, 123
2, 19176, Note_off_c, 1, 31, 0
2, 19200, Note_on_c, 1, 41, 127
2, 19320, Note_off_c, 1, 41, 0
2, 19344, Note_on_c, 1, 41, 127
2, 19392, Note_off_c, 1, 41, 0
2, 19392, Note_on_c, 1, 40, 120
2, 19512, Note_off_c, 1, 40, 0
2, 19536, Note_on_c, 1, 40, 126
2, 19584, Note_off_c, 1, 40, 0
2, 19584, Note_on_c, 1, 38, 126
2, 19704, Note_off_c, 1, 38, 0
2, 19728, Note_on_c, 1, 38, 126
2, 19776, Note_off_c, 1, 38, 0
2, 19776, Note_on_c, 1, 36, 126
2, 19896, Note_off_c, 1, 36, 0
2, 19920, Note_on_c, 1, 36, 127
2, 19944, Note_off_c, 1, 36, 0
2, 19968, Note_on_c, 1, 43, 127
2, 20088, Note_off_c, 1, 43, 0
2, 20112, Note_on_c, 1, 43, 127
2, 20160, Note_off_c, 1, 43, 0
2, 20160, Note_on_c, 1, 41, 126
2, 20304, Note_off_c, 1, 41, 0
2, 20304, Note_on_c, 1, 41, 115
2, 20328, Note_off_c, 1, 41, 0
2, 20352, Note_on_c, 1, 40, 118
2, 20472, Note_off_c, 1, 40, 0
2, 20496, Note_on_c, 1, 40, 120
2, 20544, Note_off_c, 1, 40, 0
2, 20544, Note_on_c, 1, 38, 120
2, 20664, Note_off_c, 1, 38, 0
2, 20688, Note_on_c, 1, 38, 120
2, 20736, Note_off_c, 1, 38, 0
2, 20736, Note_on_c, 1, 36, 127
2, 20856, Note_off_c, 1, 36, 0
2, 20880, Note_on_c, 1, 36, 123
2, 20928, Note_off_c, 1, 36, 0
2, 20928, Note_on_c, 1, 35, 127
2, 21048, Note_off_c, 1, 35, 0
2, 21072, Note_on_c, 1, 35, 118
2, 21120, Note_off_c, 1, 35, 0
2, 21120, Note_on_c, 1, 33, 127
2, 21264, Note_off_c, 1, 33, 0
2, 21264, Note_on_c, 1, 33, 127
2, 21312, Note_off_c, 1, 33, 0
2, 21312, Note_on_c, 1, 31, 127
2, 21432, Note_off_c, 1, 31, 0
2, 21456, Note_on_c, 1, 31, 123
2, 21480, Note_off_c, 1, 31, 0
2, 21504, Note_on_c, 1, 41, 127
2, 21624, Note_off_c, 1, 41, 0
2, 21648, Note_on_c, 1, 41, 127
2, 21696, Note_off_c, 1, 41, 0
2, 21696, Note_on_c, 1, 40, 120
2, 21816, Note_off_c, 1, 40, 0
2, 21840, Note_on_c, 1, 40, 126
2, 21888, Note_off_c, 1, 40, 0
2, 21888, Note_on_c, 1, 38, 126
2, 22008, Note_off_c, 1, 38, 0
2, 22032, Note_on_c, 1, 38, 126
2, 22080, Note_off_c, 1, 38, 0
2, 22080, Note_on_c, 1, 43, 118
2, 22152, Note_off_c, 1, 43, 0
2, 22152, Note_on_c, 1, 31, 126
2, 22224, Note_off_c, 1, 31, 0
2, 22224, Note_on_c, 1, 31, 123
2, 22272, Note_off_c, 1, 31, 0
2, 22272, Note_on_c, 1, 36, 127
2, 22392, Note_off_c, 1, 36, 0
2, 22416, Note_on_c, 1, 36, 127
2, 22464, Note_off_c, 1, 36, 0
2, 22464, Note_on_c, 1, 35, 127
2, 22584, Note_off_c, 1, 35, 0
2, 22608, Note_on_c, 1, 35, 127
2, 22656, Note_off_c, 1, 35, 0
2, 22656, Note_on_c, 1, 33, 127
2, 22776, Note_off_c, 1, 33, 0
2, 22800, Note_on_c, 1, 33, 127
2, 22848, Note_off_c, 1, 33, 0
2, 22848, Note_on_c, 1, 31, 127
2, 22968, Note_off_c, 1, 31, 0
2, 22992, Note_on_c, 1, 31, 126
2, 23016, Note_off_c, 1, 31, 0
2, 23040, Note_on_c, 1, 41, 127
2, 23160, Note_off_c, 1, 41, 0
2, 23184, Note_on_c, 1, 41, 127
2, 23232, Note_off_c, 1, 41, 0
2, 23232, Note_on_c, 1, 40, 120
2, 23352, Note_off_c, 1, 40, 0
2, 23376, Note_on_c, 1, 40, 126
2, 23424, Note_off_c, 1, 40, 0
2, 23424, Note_on_c, 1, 38, 126
2, 23544, Note_off_c, 1, 38, 0
2, 23568, Note_on_c, 1, 38, 126
2, 23616, Note_off_c, 1, 38, 0
2, 23616, Note_on_c, 1, 36, 126
2, 23736, Note_off_c, 1, 36, 0
2, 23760, Note_on_c, 1, 36, 127
2, 23784, Note_off_c, 1, 36, 0
2, 23808, Note_on_c, 1, 43, 127
2, 23928, Note_off_c, 1, 43, 0
2, 23952, Note_on_c, 1, 43, 127
2, 24000, Note_off_c, 1, 43, 0
2, 24000, Note_on_c, 1, 41, 126
2, 24120, Note_off_c, 1, 41, 0
2, 24144, Note_on_c, 1, 41, 120
2, 24192, Note_off_c, 1, 41, 0
2, 24192, Note_on_c, 1, 40, 127
2, 24312, Note_off_c, 1, 40, 0
2, 24336, Note_on_c, 1, 40, 120
2, 24384, Note_off_c, 1, 40, 0
2, 24384, Note_on_c, 1, 38, 120
2, 24504, Note_off_c, 1, 38, 0
2, 24528, Note_on_c, 1, 38, 126
2, 24576, Note_off_c, 1, 38, 0
2, 24576, Note_on_c, 1, 36, 127
2, 24696, Note_off_c, 1, 36, 0
2, 24720, Note_on_c, 1, 36, 127
2, 24768, Note_off_c, 1, 36, 0
2, 24768, Note_on_c, 1, 29, 127
2, 24864, Note_off_c, 1, 29, 0
2, 24864, Note_on_c, 1, 41, 127
2, 24960, Note_off_c, 1, 41, 0
2, 24960, Note_on_c, 1, 36, 127
2, 25080, Note_off_c, 1, 36, 0
2, 25104, Note_on_c, 1, 36, 127
2, 25152, Note_off_c, 1, 36, 0
2, 25152, Note_on_c, 1, 31, 127
2, 25248, Note_off_c, 1, 31, 0
2, 25248, Note_on_c, 1, 43, 127
2, 25296, Note_off_c, 1, 43, 0
2, 25296, Note_on_c, 1, 31, 127
2, 25344, Note_off_c, 1, 31, 0
2, 25344, Note_on_c, 1, 36, 127
2, 25464, Note_off_c, 1, 36, 0
2, 25488, Note_on_c, 1, 36, 127
2, 25536, Note_off_c, 1, 36, 0
2, 25536, Note_on_c, 1, 35, 126
2, 25656, Note_off_c, 1, 35, 0
2, 25680, Note_on_c, 1, 35, 127
2, 25728, Note_off_c, 1, 35, 0
2, 25728, Note_on_c, 1, 33, 127
2, 25848, Note_off_c, 1, 33, 0
2, 25872, Note_on_c, 1, 33, 127
2, 25920, Note_off_c, 1, 33, 0
2, 25920, Note_on_c, 1, 31, 127
2, 26040, Note_off_c, 1, 31, 0
2, 26064, Note_on_c, 1, 31, 123
2, 26088, Note_off_c, 1, 31, 0
2, 26112, Note_on_c, 1, 41, 120
2, 26232, Note_off_c, 1, 41, 0
2, 26256, Note_on_c, 1, 41, 127
2, 26304, Note_off_c, 1, 41, 0
2, 26304, Note_on_c, 1, 40, 118
2, 26424, Note_off_c, 1, 40, 0
2, 26448, Note_on_c, 1, 40, 126
2, 26496, Note_off_c, 1, 40, 0
2, 26496, Note_on_c, 1, 38, 127
2, 26616, Note_off_c, 1, 38, 0
2, 26640, Note_on_c, 1, 38, 115
2, 26688, Note_off_c, 1, 38, 0
2, 26688, Note_on_c, 1, 36, 126
2, 26808, Note_off_c, 1, 36, 0
2, 26832, Note_on_c, 1, 36, 127
2, 26856, Note_off_c, 1, 36, 0
2, 26880, Note_on_c, 1, 43, 127
2, 27000, Note_off_c, 1, 43, 0
2, 27024, Note_on_c, 1, 43, 127
2, 27072, Note_off_c, 1, 43, 0
2, 27072, Note_on_c, 1, 41, 126
2, 27192, Note_off_c, 1, 41, 0
2, 27216, Note_on_c, 1, 41, 120
2, 27264, Note_off_c, 1, 41, 0
2, 27264, Note_on_c, 1, 40, 127
2, 27384, Note_off_c, 1, 40, 0
2, 27408, Note_on_c, 1, 40, 120
2, 27456, Note_off_c, 1, 40, 0
2, 27456, Note_on_c, 1, 38, 120
2, 27576, Note_off_c, 1, 38, 0
2, 27600, Note_on_c, 1, 38, 113
2, 27648, Note_off_c, 1, 38, 0
2, 27648, Note_on_c, 1, 36, 127
2, 27768, Note_off_c, 1, 36, 0
2, 27792, Note_on_c, 1, 36, 115
2, 27840, Note_off_c, 1, 36, 0
2, 27840, Note_on_c, 1, 41, 126
2, 27960, Note_off_c, 1, 41, 0
2, 27984, Note_on_c, 1, 41, 110
2, 28008, Note_off_c, 1, 41, 0
2, 28032, Note_on_c, 1, 31, 127
2, 28128, Note_off_c, 1, 31, 0
2, 28128, Note_on_c, 1, 43, 120
2, 28224, Note_off_c, 1, 43, 0
2, 28224, Note_on_c, 1, 31, 126
2, 28296, Note_off_c, 1, 31, 0
2, 28296, Note_on_c, 1, 31, 127
2, 28368, Note_off_c, 1, 31, 0
2, 28368, Note_on_c, 1, 31, 118
2, 28416, Note_off_c, 1, 31, 0
2, 28416, Note_on_c, 1, 36, 127
2, 28536, Note_off_c, 1, 36, 0
2, 28560, Note_on_c, 1, 36, 127
2, 28608, Note_off_c, 1, 36, 0
2, 28608, Note_on_c, 1, 35, 127
2, 28728, Note_off_c, 1, 35, 0
2, 28752, Note_on_c, 1, 35, 120
2, 28800, Note_off_c, 1, 35, 0
2, 28800, Note_on_c, 1, 33, 127
2, 28920, Note_off_c, 1, 33, 0
2, 28944, Note_on_c, 1, 33, 127
2, 28992, Note_off_c, 1, 33, 0
2, 28992, Note_on_c, 1, 31, 127
2, 29112, Note_off_c, 1, 31, 0
2, 29136, Note_on_c, 1, 31, 118
2, 29160, Note_off_c, 1, 31, 0
2, 29184, Note_on_c, 1, 41, 123
2, 29304, Note_off_c, 1, 41, 0
2, 29328, Note_on_c, 1, 41, 127
2, 29376, Note_off_c, 1, 41, 0
2, 29376, Note_on_c, 1, 40, 120
2, 29496, Note_off_c, 1, 40, 0
2, 29520, Note_on_c, 1, 40, 100
2, 29568, Note_off_c, 1, 40, 0
2, 29568, Note_on_c, 1, 38, 126
2, 29688, Note_off_c, 1, 38, 0
2, 29712, Note_on_c, 1, 38, 102
2, 29760, Note_off_c, 1, 38, 0
2, 29760, Note_on_c, 1, 36, 126
2, 29880, Note_off_c, 1, 36, 0
2, 29904, Note_on_c, 1, 36, 100
2, 29928, Note_off_c, 1, 36, 0
2, 29952, Note_on_c, 1, 43, 127
2, 30072, Note_off_c, 1, 43, 0
2, 30096, Note_on_c, 1, 43, 102
2, 30144, Note_off_c, 1, 43, 0
2, 30144, Note_on_c, 1, 41, 126
2, 30264, Note_off_c, 1, 41, 0
2, 30288, Note_on_c, 1, 41, 94
2, 30336, Note_off_c, 1, 41, 0
2, 30336, Note_on_c, 1, 40, 127
2, 30456, Note_off_c, 1, 40, 0
2, 30480, Note_on_c, 1, 40, 104
2, 30528, Note_off_c, 1, 40, 0
2, 30528, Note_on_c, 1, 38, 118
2, 30648, Note_off_c, 1, 38, 0
2, 30672, Note_on_c, 1, 38, 118
2, 30720, Note_off_c, 1, 38, 0
2, 30720, Note_on_c, 1, 36, 113
2, 30840, Note_off_c, 1, 36, 0
2, 30864, Note_on_c, 1, 36, 127
2, 30912, Note_off_c, 1, 36, 0
2, 30912, Note_on_c, 1, 29, 127
2, 31032, Note_off_c, 1, 29, 0
2, 31056, Note_on_c, 1, 29, 115
2, 31104, Note_off_c, 1, 29, 0
2, 31104, Note_on_c, 1, 36, 126
2, 31224, Note_off_c, 1, 36, 0
2, 31248, Note_on_c, 1, 36, 115
2, 31296, Note_off_c, 1, 36, 0
2, 31296, Note_on_c, 1, 29, 127
2, 31416, Note_off_c, 1, 29, 0
2, 31440, Note_on_c, 1, 29, 127
2, 31464, Note_off_c, 1, 29, 0
2, 31488, Note_on_c, 1, 29, 127
2, 31584, Note_off_c, 1, 29, 0
2, 31584, Note_on_c, 1, 41, 127
2, 31656, Note_off_c, 1, 41, 0
2, 31656, Note_on_c, 1, 29, 123
2, 31680, Tempo, 845070
2, 31680, Note_off_c, 1, 29, 0
2, 31680, Note_on_c, 1, 29, 127
2, 31776, Note_off_c, 1, 29, 0
2, 31824, Note_on_c, 1, 29, 126
2, 31848, Note_off_c, 1, 29, 0
2, 31848, Note_on_c, 1, 31, 117
2, 31872, Note_off_c, 1, 31, 0
2, 31872, Tempo, 895522
2, 31872, Note_on_c, 1, 32, 127
2, 32016, Note_off_c, 1, 32, 0
2, 32016, Note_on_c, 1, 34, 126
2, 32064, Tempo, 909090
2, 32064, Note_off_c, 1, 34, 0
2, 32064, Note_on_c, 1, 36, 111
2, 32160, Note_off_c, 1, 36, 0
2, 32160, Note_on_c, 1, 34, 127
2, 32256, Note_off_c, 1, 34, 0
2, 32256, Tempo, 1034482
2, 32256, Note_on_c, 1, 36, 127
2, 32448, Note_off_c, 1, 36, 0
2, 32448, Note_on_c, 1, 36, 127
2, 32544, Note_off_c, 1, 36, 0
2, 32544, Note_on_c, 1, 31, 127
2, 32640, Note_off_c, 1, 31, 0
2, 32640, Note_on_c, 1, 36, 114
2, 33024, Note_off_c, 1, 36, 0
2, 33024, Note_on_c, 1, 24, 127
2, 33408, Note_off_c, 1, 24, 0
2, 33432, Control_c, 1, 120, 0
2, 33432, End_track
3, 0, Start_track
3, 0, Control_c, 2, 32, 0
3, 0, Control_c, 2, 0, 0
3, 0, Program_c, 2, 16
3, 0, Control_c, 2, 10, 47
3, 0, Control_c, 2, 91, 127
3, 0, Control_c, 2, 93, 74
3, 0, Time_signature, 4, 2, 96, 8
3, 0, Tempo, 833333
3, 769, Note_on_c, 2, 72, 69
3, 769, Note_on_c, 2, 76, 87
3, 827, Control_c, 2, 1, 50
3, 915, Control_c, 2, 1, 38
3, 961, Note_off_c, 2, 72, 0
3, 961, Note_on_c, 2, 71, 64
3, 1153, Note_off_c, 2, 71, 0
3, 1153, Note_on_c, 2, 69, 61
3, 1201, Note_off_c, 2, 76, 0
3, 1201, Note_on_c, 2, 74, 87
3, 1249, Note_off_c, 2, 74, 0
3, 1249, Note_on_c, 2, 72, 78
3, 1297, Note_off_c, 2, 72, 0
3, 1297, Note_on_c, 2, 71, 79
3, 1345, Note_off_c, 2, 69, 0
3, 1345, Note_off_c, 2, 71, 0
3, 1345, Note_on_c, 2, 67, 60
3, 1345, Note_on_c, 2, 72, 85
3, 1393, Note_off_c, 2, 72, 0
3, 1393, Note_on_c, 2, 74, 73
3, 1441, Note_off_c, 2, 74, 0
3, 1441, Note_on_c, 2, 76, 67
3, 1489, Note_off_c, 2, 76, 0
3, 1489, Note_on_c, 2, 72, 71
3, 1531, Note_on_c, 2, 80, 56
3, 1537, Note_off_c, 2, 67, 0
3, 1537, Note_off_c, 2, 72, 0
3, 1537, Note_on_c, 2, 65, 60
3, 1537, Note_on_c, 2, 81, 90
3, 1541, Note_off_c, 2, 80, 0
3, 1729, Note_off_c, 2, 65, 0
3, 1729, Note_on_c, 2, 64, 57
3, 1825, Note_off_c, 2, 81, 0
3, 1825, Note_on_c, 2, 83, 81
3, 1873, Note_off_c, 2, 83, 0
3, 1873, Note_on_c, 2, 84, 62
3, 1921, Note_off_c, 2, 64, 0
3, 1921, Note_off_c, 2, 84, 0
3, 1921, Note_on_c, 2, 62, 60
3, 1922, Note_on_c, 2, 77, 81
3, 1944, Note_on_c, 2, 76, 66
3, 1946, Note_off_c, 2, 77, 0
3, 1967, Note_on_c, 2, 77, 79
3, 1968, Note_off_c, 2, 76, 0
3, 2113, Note_off_c, 2, 62, 0
3, 2113, Note_on_c, 2, 60, 60
3, 2207, Note_off_c, 2, 77, 0
3, 2209, Note_on_c, 2, 74, 78
3, 2305, Note_off_c, 2, 60, 0
3, 2305, Note_off_c, 2, 74, 0
3, 2305, Note_on_c, 2, 67, 60
3, 2305, Note_on_c, 2, 83, 79
3, 2497, Note_off_c, 2, 67, 0
3, 2497, Note_on_c, 2, 65, 60
3, 2593, Note_off_c, 2, 83, 0
3, 2593, Note_on_c, 2, 84, 76
3, 2641, Note_off_c, 2, 84, 0
3, 2641, Note_on_c, 2, 86, 63
3, 2689, Note_off_c, 2, 65, 0
3, 2689, Note_off_c, 2, 86, 0
3, 2689, Note_on_c, 2, 64, 57
3, 2689, Note_on_c, 2, 79, 66
3, 2713, Note_off_c, 2, 79, 0
3, 2713, Note_on_c, 2, 77, 69
3, 2737, Note_off_c, 2, 77, 0
3, 2737, Note_on_c, 2, 79, 76
3, 2881, Note_off_c, 2, 64, 0
3, 2881, Note_on_c, 2, 62, 58
3, 2929, Note_off_c, 2, 79, 0
3, 2929, Note_on_c, 2, 77, 78
3, 2977, Note_off_c, 2, 77, 0
3, 2977, Note_on_c, 2, 76, 73
3, 3025, Note_off_c, 2, 76, 0
3, 3025, Note_on_c, 2, 77, 78
3, 3073, Note_off_c, 2, 62, 0
3, 3073, Note_off_c, 2, 77, 0
3, 3073, Note_on_c, 2, 60, 61
3, 3073, Note_on_c, 2, 77, 81
3, 3121, Note_off_c, 2, 77, 0
3, 3121, Note_on_c, 2, 76, 78
3, 3169, Note_off_c, 2, 76, 0
3, 3169, Note_on_c, 2, 74, 76
3, 3217, Note_off_c, 2, 74, 0
3, 3217, Note_on_c, 2, 72, 78
3, 3265, Note_off_c, 2, 60, 0
3, 3265, Note_off_c, 2, 72, 0
3, 3265, Note_on_c, 2, 65, 64
3, 3265, Note_on_c, 2, 81, 85
3, 3313, Note_on_c, 2, 69, 66
3, 3361, Note_off_c, 2, 69, 0
3, 3361, Note_on_c, 2, 71, 62
3, 3409, Note_off_c, 2, 71, 0
3, 3409, Note_on_c, 2, 72, 58
3, 3457, Note_off_c, 2, 65, 0
3, 3457, Note_off_c, 2, 72, 0
3, 3457, Note_off_c, 2, 81, 0
3, 3457, Note_on_c, 2, 67, 63
3, 3457, Note_on_c, 2, 79, 76
3, 3505, Note_on_c, 2, 71, 61
3, 3553, Note_off_c, 2, 71, 0
3, 3553, Note_on_c, 2, 72, 62
3, 3601, Note_off_c, 2, 72, 0
3, 3601, Note_on_c, 2, 74, 58
3, 3625, Note_off_c, 2, 67, 0
3, 3625, Note_off_c, 2, 74, 0
3, 3649, Note_off_c, 2, 79, 0
3, 3649, Note_on_c, 2, 65, 60
3, 3649, Note_on_c, 2, 67, 60
3, 3649, Note_on_c, 2, 71, 60
3, 3649, Note_on_c, 2, 74, 58
3, 3649, Note_on_c, 2, 77, 76
3, 3649, Control_c, 2, 1, 50
3, 3697, Note_off_c, 2, 77, 0
3, 3697, Note_on_c, 2, 76, 67
3, 3699, Control_c, 2, 1, 80
3, 3745, Note_off_c, 2, 76, 0
3, 3745, Note_on_c, 2, 77, 71
3, 3769, Note_off_c, 2, 74, 0
3, 3793, Note_off_c, 2, 77, 0
3, 3793, Note_on_c, 2, 74, 69
3, 3805, Control_c, 2, 1, 95
3, 3840, Control_c, 2, 1, 54
3, 3841, Note_off_c, 2, 65, 0
3, 3841, Note_off_c, 2, 67, 0
3, 3841, Note_off_c, 2, 71, 0
3, 3841, Note_off_c, 2, 74, 0
3, 3841, Note_on_c, 2, 72, 50
3, 3841, Note_on_c, 2, 76, 58
3, 3998, Control_c, 2, 1, 35
3, 4033, Note_off_c, 2, 72, 0
3, 4033, Note_on_c, 2, 71, 58
3, 4225, Note_off_c, 2, 71, 0
3, 4225, Note_off_c, 2, 76, 0
3, 4225, Note_on_c, 2, 69, 53
3, 4225, Note_on_c, 2, 72, 68
3, 4417, Note_off_c, 2, 69, 0
3, 4417, Note_on_c, 2, 67, 53
3, 4609, Note_off_c, 2, 67, 0
3, 4609, Note_off_c, 2, 72, 0
3, 4609, Note_on_c, 2, 65, 52
3, 4609, Note_on_c, 2, 69, 62
3, 4801, Note_off_c, 2, 65, 0
3, 4801, Note_on_c, 2, 64, 49
3, 4993, Note_off_c, 2, 64, 0
3, 4993, Note_off_c, 2, 69, 0
3, 4993, Note_on_c, 2, 62, 52
3, 4993, Note_on_c, 2, 65, 64
3, 5161, Note_off_c, 2, 65, 0
3, 5185, Note_off_c, 2, 62, 0
3, 5185, Note_on_c, 2, 60, 52
3, 5185, Note_on_c, 2, 65, 71
3, 5233, Note_off_c, 2, 65, 0
3, 5233, Note_on_c, 2, 67, 64
3, 5281, Note_off_c, 2, 67, 0
3, 5281, Note_on_c, 2, 69, 68
3, 5329, Note_off_c, 2, 69, 0
3, 5329, Note_on_c, 2, 71, 60
3, 5353, Note_off_c, 2, 71, 0
3, 5353, Note_on_c, 2, 72, 62
3, 5377, Note_off_c, 2, 60, 0
3, 5377, Note_off_c, 2, 72, 0
3, 5377, Note_on_c, 2, 67, 52
3, 5377, Note_on_c, 2, 71, 82
3, 5569, Note_off_c, 2, 67, 0
3, 5569, Note_on_c, 2, 65, 53
3, 5761, Note_off_c, 2, 65, 0
3, 5761, Note_off_c, 2, 71, 0
3, 5761, Note_on_c, 2, 64, 49
3, 5761, Note_on_c, 2, 67, 73
3, 5929, Note_off_c, 2, 67, 0
3, 5953, Note_off_c, 2, 64, 0
3, 5953, Note_on_c, 2, 62, 50
3, 5953, Note_on_c, 2, 67, 68
3, 6001, Note_off_c, 2, 67, 0
3, 6001, Note_on_c, 2, 69, 63
3, 6049, Note_off_c, 2, 69, 0
3, 6049, Note_on_c, 2, 71, 57
3, 6073, Note_off_c, 2, 71, 0
3, 6073, Note_on_c, 2, 72, 56
3, 6097, Note_off_c, 2, 72, 0
3, 6097, Note_on_c, 2, 74, 68
3, 6145, Note_off_c, 2, 62, 0
3, 6145, Note_off_c, 2, 74, 0
3, 6145, Note_on_c, 2, 72, 62
3, 6145, Note_on_c, 2, 76, 68
3, 6337, Note_off_c, 2, 72, 0
3, 6337, Note_on_c, 2, 71, 58
3, 6433, Note_off_c, 2, 76, 0
3, 6433, Note_on_c, 2, 77, 62
3, 6481, Note_off_c, 2, 77, 0
3, 6481, Note_on_c, 2, 79, 58
3, 6529, Note_off_c, 2, 71, 0
3, 6529, Note_off_c, 2, 79, 0
3, 6529, Note_on_c, 2, 69, 53
3, 6529, Note_on_c, 2, 84, 71
3, 6721, Note_off_c, 2, 69, 0
3, 6721, Note_off_c, 2, 84, 0
3, 6721, Note_on_c, 2, 67, 53
3, 6721, Note_on_c, 2, 83, 62
3, 6817, Note_off_c, 2, 83, 0
3, 6817, Note_on_c, 2, 79, 62
3, 6913, Note_off_c, 2, 67, 0
3, 6913, Note_off_c, 2, 79, 0
3, 6913, Note_on_c, 2, 65, 52
3, 6913, Note_on_c, 2, 81, 58
3, 7009, Note_off_c, 2, 81, 0
3, 7009, Note_on_c, 2, 72, 71
3, 7105, Note_off_c, 2, 65, 0
3, 7105, Note_on_c, 2, 64, 49
3, 7201, Note_off_c, 2, 72, 0
3, 7201, Note_on_c, 2, 74, 68
3, 7249, Note_off_c, 2, 74, 0
3, 7249, Note_on_c, 2, 76, 51
3, 7297, Note_off_c, 2, 64, 0
3, 7297, Note_off_c, 2, 76, 0
3, 7297, Note_on_c, 2, 62, 52
3, 7297, Note_on_c, 2, 77, 64
3, 7489, Note_off_c, 2, 62, 0
3, 7489, Note_on_c, 2, 60, 52
3, 7537, Note_off_c, 2, 77, 0
3, 7537, Note_on_c, 2, 79, 56
3, 7585, Note_off_c, 2, 79, 0
3, 7585, Note_on_c, 2, 81, 47
3, 7633, Note_off_c, 2, 81, 0
3, 7633, Note_on_c, 2, 83, 56
3, 7657, Note_off_c, 2, 83, 0
3, 7657, Note_on_c, 2, 84, 60
3, 7681, Note_off_c, 2, 60, 0
3, 7681, Note_off_c, 2, 84, 0
3, 7681, Note_on_c, 2, 67, 52
3, 7681, Note_on_c, 2, 83, 68
3, 7777, Note_off_c, 2, 83, 0
3, 7777, Note_on_c, 2, 74, 71
3, 7873, Note_off_c, 2, 67, 0
3, 7873, Note_on_c, 2, 65, 53
3, 7969, Note_off_c, 2, 74, 0
3, 7969, Note_on_c, 2, 76, 62
3, 8017, Note_off_c, 2, 76, 0
3, 8017, Note_on_c, 2, 77, 58
3, 8065, Note_off_c, 2, 65, 0
3, 8065, Note_off_c, 2, 77, 0
3, 8065, Note_on_c, 2, 64, 49
3, 8065, Note_on_c, 2, 79, 64
3, 8257, Note_off_c, 2, 64, 0
3, 8257, Note_on_c, 2, 62, 50
3, 8305, Note_off_c, 2, 79, 0
3, 8305, Note_on_c, 2, 83, 62
3, 8353, Note_off_c, 2, 83, 0
3, 8353, Note_on_c, 2, 84, 62
3, 8401, Note_off_c, 2, 84, 0
3, 8401, Note_on_c, 2, 86, 58
3, 8449, Note_off_c, 2, 62, 0
3, 8449, Note_off_c, 2, 86, 0
3, 8449, Note_on_c, 2, 72, 62
3, 8449, Note_on_c, 2, 88, 62
3, 8497, Note_off_c, 2, 88, 0
3, 8497, Note_on_c, 2, 86, 60
3, 8545, Note_off_c, 2, 86, 0
3, 8545, Note_on_c, 2, 88, 58
3, 8593, Note_off_c, 2, 88, 0
3, 8593, Note_on_c, 2, 91, 48
3, 8641, Note_off_c, 2, 72, 0
3, 8641, Note_off_c, 2, 91, 0
3, 8641, Note_on_c, 2, 71, 58
3, 8641, Note_on_c, 2, 86, 56
3, 8689, Note_off_c, 2, 86, 0
3, 8689, Note_on_c, 2, 84, 60
3, 8737, Note_off_c, 2, 84, 0
3, 8737, Note_on_c, 2, 86, 62
3, 8785, Note_off_c, 2, 86, 0
3, 8785, Note_on_c, 2, 91, 51
3, 8833, Note_off_c, 2, 71, 0
3, 8833, Note_off_c, 2, 91, 0
3, 8833, Note_on_c, 2, 69, 53
3, 8833, Note_on_c, 2, 84, 60
3, 8881, Note_off_c, 2, 84, 0
3, 8881, Note_on_c, 2, 83, 53
3, 8929, Note_off_c, 2, 83, 0
3, 8929, Note_on_c, 2, 84, 56
3, 8977, Note_off_c, 2, 84, 0
3, 8977, Note_on_c, 2, 88, 43
3, 9025, Note_off_c, 2, 69, 0
3, 9025, Note_off_c, 2, 88, 0
3, 9025, Note_on_c, 2, 67, 53
3, 9025, Note_on_c, 2, 83, 56
3, 9073, Note_off_c, 2, 83, 0
3, 9073, Note_on_c, 2, 81, 48
3, 9121, Note_off_c, 2, 81, 0
3, 9121, Note_on_c, 2, 83, 64
3, 9169, Note_off_c, 2, 83, 0
3, 9169, Note_on_c, 2, 79, 68
3, 9217, Note_off_c, 2, 67, 0
3, 9217, Note_off_c, 2, 79, 0
3, 9217, Note_on_c, 2, 65, 52
3, 9217, Note_on_c, 2, 81, 62
3, 9409, Note_off_c, 2, 65, 0
3, 9409, Note_on_c, 2, 64, 49
3, 9504, Note_on_c, 2, 83, 68
3, 9505, Note_off_c, 2, 81, 0
3, 9547, Note_on_c, 2, 84, 56
3, 9552, Note_off_c, 2, 83, 0
3, 9595, Note_off_c, 2, 84, 0
3, 9600, Control_c, 2, 1, 0
3, 9600, Note_on_c, 2, 81, 71
3, 9600, Note_on_c, 2, 86, 64
3, 9601, Note_off_c, 2, 64, 0
3, 9601, Note_on_c, 2, 89, 58
3, 9644, Control_c, 2, 1, 100
3, 9792, Note_off_c, 2, 81, 0
3, 9792, Note_off_c, 2, 86, 0
3, 9793, Note_off_c, 2, 89, 0
3, 9794, Note_on_c, 2, 79, 64
3, 9794, Note_on_c, 2, 83, 68
3, 9795, Note_on_c, 2, 86, 64
3, 9795, Note_on_c, 2, 89, 60
3, 9842, Note_off_c, 2, 79, 0
3, 9842, Note_off_c, 2, 83, 0
3, 9843, Note_off_c, 2, 86, 0
3, 9843, Note_off_c, 2, 89, 0
3, 9848, Note_on_c, 2, 77, 42
3, 9852, Note_on_c, 2, 76, 31
3, 9854, Note_off_c, 2, 77, 0
3, 9857, Note_on_c, 2, 74, 43
3, 9858, Note_off_c, 2, 76, 0
3, 9863, Note_off_c, 2, 74, 0
3, 9864, Note_on_c, 2, 72, 39
3, 9868, Note_on_c, 2, 71, 38
3, 9870, Note_off_c, 2, 72, 0
3, 9873, Note_on_c, 2, 69, 40
3, 9874, Note_off_c, 2, 71, 0
3, 9877, Note_on_c, 2, 67, 42
3, 9879, Note_off_c, 2, 69, 0
3, 9880, Note_on_c, 2, 65, 44
3, 9883, Note_off_c, 2, 67, 0
3, 9884, Note_on_c, 2, 64, 43
3, 9886, Note_off_c, 2, 65, 0
3, 9887, Note_on_c, 2, 62, 47
3, 9890, Note_off_c, 2, 64, 0
3, 9891, Note_on_c, 2, 60, 48
3, 9893, Note_off_c, 2, 62, 0
3, 9894, Note_on_c, 2, 59, 47
3, 9897, Note_off_c, 2, 60, 0
3, 9897, Note_on_c, 2, 57, 47
3, 9900, Note_off_c, 2, 59, 0
3, 9900, Note_on_c, 2, 55, 49
3, 9903, Note_off_c, 2, 57, 0
3, 9904, Note_on_c, 2, 53, 47
3, 9906, Note_off_c, 2, 55, 0
3, 9907, Note_on_c, 2, 52, 49
3, 9910, Note_off_c, 2, 53, 0
3, 9910, Note_on_c, 2, 50, 56
3, 9913, Note_off_c, 2, 52, 0
3, 9913, Note_on_c, 2, 48, 60
3, 9916, Note_off_c, 2, 50, 0
3, 9917, Note_on_c, 2, 47, 51
3, 9919, Note_off_c, 2, 48, 0
3, 9923, Note_off_c, 2, 47, 0
3, 9933, Note_on_c, 2, 45, 51
3, 9934, Note_on_c, 2, 47, 44
3, 9937, Note_on_c, 2, 48, 28
3, 9939, Note_off_c, 2, 45, 0
3, 9940, Note_off_c, 2, 47, 0
3, 9943, Note_off_c, 2, 48, 0
3, 9943, Note_on_c, 2, 50, 14
3, 9947, Note_on_c, 2, 52, 29
3, 9949, Note_off_c, 2, 50, 0
3, 9950, Note_on_c, 2, 53, 40
3, 9953, Note_off_c, 2, 52, 0
3, 9954, Note_on_c, 2, 55, 44
3, 9956, Note_off_c, 2, 53, 0
3, 9956, Note_on_c, 2, 57, 44
3, 9959, Note_on_c, 2, 59, 47
3, 9960, Note_off_c, 2, 55, 0
3, 9962, Note_off_c, 2, 57, 0
3, 9962, Note_on_c, 2, 60, 47
3, 9965, Note_off_c, 2, 59, 0
3, 9965, Note_on_c, 2, 62, 48
3, 9967, Note_on_c, 2, 64, 47
3, 9968, Note_off_c, 2, 60, 0
3, 9970, Note_on_c, 2, 65, 44
3, 9971, Note_off_c, 2, 62, 0
3, 9973, Note_off_c, 2, 64, 0
3, 9973, Note_on_c, 2, 67, 47
3, 9975, Note_on_c, 2, 69, 47
3, 9976, Note_off_c, 2, 65, 0
3, 9978, Note_on_c, 2, 71, 53
3, 9979, Note_off_c, 2, 67, 0
3, 9980, Note_on_c, 2, 72, 56
3, 9981, Note_off_c, 2, 69, 0
3, 9984, Note_off_c, 2, 71, 0
3, 9986, Note_off_c, 2, 72, 0
3, 9988, Note_on_c, 2, 84, 64
3, 9988, Note_on_c, 2, 79, 62
3, 9989, Note_on_c, 2, 88, 50
3, 10061, Control_c, 2, 1, 58
3, 10177, Note_on_c, 2, 83, 68
3, 10180, Note_off_c, 2, 84, 0
3, 10348, Note_off_c, 2, 79, 0
3, 10369, Note_off_c, 2, 83, 0
3, 10370, Note_on_c, 2, 84, 62
3, 10371, Note_on_c, 2, 81, 68
3, 10552, Control_c, 2, 1, 41
3, 10561, Note_on_c, 2, 79, 68
3, 10563, Note_off_c, 2, 81, 0
3, 10729, Note_off_c, 2, 79, 0
3, 10733, Note_off_c, 2, 88, 0
3, 10752, Note_off_c, 2, 84, 0
3, 10752, Note_on_c, 2, 84, 47
3, 10753, Note_on_c, 2, 81, 64
3, 10754, Note_on_c, 2, 77, 64
3, 10922, Note_off_c, 2, 77, 0
3, 10943, Note_on_c, 2, 76, 58
3, 11132, Note_off_c, 2, 84, 0
3, 11135, Note_off_c, 2, 76, 0
3, 11137, Note_off_c, 2, 81, 0
3, 11138, Note_on_c, 2, 81, 62
3, 11139, Note_on_c, 2, 74, 68
3, 11139, Note_on_c, 2, 77, 68
3, 11330, Note_on_c, 2, 72, 71
3, 11331, Note_off_c, 2, 74, 0
3, 11373, Control_c, 2, 1, 30
3, 11447, Control_c, 2, 1, 0
3, 11521, Note_on_c, 2, 74, 64
3, 11521, Note_on_c, 2, 79, 56
3, 11522, Note_off_c, 2, 72, 0
3, 11522, Note_off_c, 2, 81, 0
3, 11522, Note_on_c, 2, 71, 60
3, 11523, Note_off_c, 2, 77, 0
3, 11713, Note_off_c, 2, 79, 0
3, 11713, Note_on_c, 2, 77, 56
3, 11811, Control_c, 2, 1, 34
3, 11881, Note_off_c, 2, 74, 0
3, 11881, Note_off_c, 2, 77, 0
3, 11906, Note_on_c, 2, 67, 60
3, 11907, Note_on_c, 2, 76, 42
3, 12098, Note_on_c, 2, 74, 62
3, 12099, Note_off_c, 2, 76, 0
3, 12289, Note_on_c, 2, 72, 77
3, 12290, Note_off_c, 2, 71, 0
3, 12290, Note_off_c, 2, 74, 0
3, 12433, Note_on_c, 2, 74, 60
3, 12457, Note_off_c, 2, 74, 0
3, 12457, Note_on_c, 2, 76, 62
3, 12481, Note_off_c, 2, 76, 0
3, 12481, Note_on_c, 2, 69, 64
3, 12481, Note_on_c, 2, 77, 73
3, 12482, Note_off_c, 2, 67, 0
3, 12649, Note_off_c, 2, 69, 0
3, 12673, Note_off_c, 2, 77, 0
3, 12673, Note_on_c, 2, 67, 60
3, 12673, Note_on_c, 2, 76, 51
3, 12841, Note_off_c, 2, 72, 0
3, 12865, Note_off_c, 2, 76, 0
3, 12865, Note_on_c, 2, 72, 62
3, 12865, Note_on_c, 2, 74, 68
3, 12959, Control_c, 2, 1, 61
3, 12961, Note_off_c, 2, 72, 0
3, 12961, Note_on_c, 2, 71, 60
3, 13056, Control_c, 2, 1, 56
3, 13057, Note_off_c, 2, 67, 0
3, 13057, Note_off_c, 2, 71, 0
3, 13057, Note_off_c, 2, 74, 0
3, 13057, Note_on_c, 2, 72, 69
3, 13057, Note_on_c, 2, 76, 94
3, 13206, Control_c, 2, 1, 32
3, 13249, Note_off_c, 2, 72, 0
3, 13249, Note_on_c, 2, 71, 64
3, 13441, Note_off_c, 2, 71, 0
3, 13441, Note_on_c, 2, 69, 61
3, 13489, Note_off_c, 2, 76, 0
3, 13489, Note_on_c, 2, 74, 87
3, 13537, Note_off_c, 2, 74, 0
3, 13537, Note_on_c, 2, 72, 78
3, 13585, Note_off_c, 2, 72, 0
3, 13585, Note_on_c, 2, 71, 79
3, 13633, Note_off_c, 2, 69, 0
3, 13633, Note_off_c, 2, 71, 0
3, 13633, Note_on_c, 2, 67, 60
3, 13633, Note_on_c, 2, 72, 85
3, 13681, Note_off_c, 2, 72, 0
3, 13681, Note_on_c, 2, 74, 73
3, 13729, Note_off_c, 2, 74, 0
3, 13729, Note_on_c, 2, 76, 67
3, 13777, Note_off_c, 2, 76, 0
3, 13777, Note_on_c, 2, 72, 71
3, 13820, Note_on_c, 2, 80, 58
3, 13825, Note_off_c, 2, 67, 0
3, 13825, Note_off_c, 2, 72, 0
3, 13825, Note_on_c, 2, 65, 60
3, 13825, Note_on_c, 2, 81, 84
3, 13828, Note_off_c, 2, 80, 0
3, 14017, Note_off_c, 2, 65, 0
3, 14017, Note_on_c, 2, 64, 57
3, 14113, Note_off_c, 2, 81, 0
3, 14113, Note_on_c, 2, 83, 81
3, 14161, Note_off_c, 2, 83, 0
3, 14161, Note_on_c, 2, 84, 62
3, 14209, Note_off_c, 2, 64, 0
3, 14209, Note_off_c, 2, 84, 0
3, 14209, Note_on_c, 2, 62, 60
3, 14210, Note_on_c, 2, 77, 81
3, 14232, Note_on_c, 2, 76, 66
3, 14234, Note_off_c, 2, 77, 0
3, 14255, Note_on_c, 2, 77, 79
3, 14256, Note_off_c, 2, 76, 0
3, 14401, Note_off_c, 2, 62, 0
3, 14401, Note_on_c, 2, 60, 60
3, 14495, Note_off_c, 2, 77, 0
3, 14497, Note_on_c, 2, 74, 78
3, 14586, Note_on_c, 2, 82, 64
3, 14593, Note_off_c, 2, 60, 0
3, 14593, Note_off_c, 2, 74, 0
3, 14593, Note_on_c, 2, 67, 60
3, 14593, Note_on_c, 2, 83, 79
3, 14599, Note_off_c, 2, 82, 0
3, 14785, Note_off_c, 2, 67, 0
3, 14785, Note_on_c, 2, 65, 60
3, 14881, Note_off_c, 2, 83, 0
3, 14881, Note_on_c, 2, 84, 76
3, 14929, Note_off_c, 2, 84, 0
3, 14929, Note_on_c, 2, 86, 63
3, 14977, Note_off_c, 2, 65, 0
3, 14977, Note_off_c, 2, 86, 0
3, 14977, Note_on_c, 2, 64, 57
3, 14977, Note_on_c, 2, 79, 66
3, 15001, Note_off_c, 2, 79, 0
3, 15001, Note_on_c, 2, 77, 69
3, 15025, Note_off_c, 2, 77, 0
3, 15025, Note_on_c, 2, 79, 76
3, 15169, Note_off_c, 2, 64, 0
3, 15169, Note_on_c, 2, 62, 58
3, 15217, Note_off_c, 2, 79, 0
3, 15217, Note_on_c, 2, 77, 78
3, 15265, Note_off_c, 2, 77, 0
3, 15265, Note_on_c, 2, 76, 73
3, 15313, Note_off_c, 2, 76, 0
3, 15313, Note_on_c, 2, 77, 78
3, 15361, Note_off_c, 2, 62, 0
3, 15361, Note_off_c, 2, 77, 0
3, 15361, Note_on_c, 2, 60, 61
3, 15361, Note_on_c, 2, 77, 81
3, 15409, Note_off_c, 2, 77, 0
3, 15409, Note_on_c, 2, 76, 78
3, 15457, Note_off_c, 2, 76, 0
3, 15457, Note_on_c, 2, 74, 76
3, 15505, Note_off_c, 2, 74, 0
3, 15505, Note_on_c, 2, 72, 78
3, 15553, Note_off_c, 2, 60, 0
3, 15553, Note_off_c, 2, 72, 0
3, 15553, Note_on_c, 2, 65, 64
3, 15553, Note_on_c, 2, 81, 71
3, 15601, Note_on_c, 2, 69, 66
3, 15649, Note_off_c, 2, 69, 0
3, 15649, Note_on_c, 2, 71, 62
3, 15697, Note_off_c, 2, 71, 0
3, 15697, Note_on_c, 2, 72, 58
3, 15745, Note_off_c, 2, 65, 0
3, 15745, Note_off_c, 2, 72, 0
3, 15745, Note_off_c, 2, 81, 0
3, 15745, Note_on_c, 2, 67, 63
3, 15745, Note_on_c, 2, 79, 76
3, 15793, Note_on_c, 2, 71, 61
3, 15841, Note_off_c, 2, 71, 0
3, 15841, Note_on_c, 2, 72, 62
3, 15889, Note_off_c, 2, 72, 0
3, 15889, Note_on_c, 2, 74, 58
3, 15913, Note_off_c, 2, 67, 0
3, 15937, Note_off_c, 2, 79, 0
3, 15937, Note_off_c, 2, 74, 0
3, 15937, Note_on_c, 2, 65, 60
3, 15937, Note_on_c, 2, 67, 60
3, 15937, Note_on_c, 2, 71, 60
3, 15937, Note_on_c, 2, 74, 58
3, 15937, Note_on_c, 2, 77, 76
3, 15982, Control_c, 2, 1, 52
3, 15985, Note_off_c, 2, 77, 0
3, 15985, Note_on_c, 2, 76, 67
3, 16032, Control_c, 2, 1, 75
3, 16033, Note_off_c, 2, 76, 0
3, 16033, Note_on_c, 2, 77, 71
3, 16079, Control_c, 2, 1, 105
3, 16081, Note_off_c, 2, 74, 0
3, 16081, Note_off_c, 2, 77, 0
3, 16081, Note_on_c, 2, 74, 69
3, 16128, Control_c, 2, 1, 44
3, 16129, Note_off_c, 2, 65, 0
3, 16129, Note_off_c, 2, 67, 0
3, 16129, Note_off_c, 2, 71, 0
3, 16129, Note_off_c, 2, 74, 0
3, 16129, Note_on_c, 2, 72, 51
3, 16129, Note_on_c, 2, 76, 60
3, 16321, Note_off_c, 2, 72, 0
3, 16321, Note_on_c, 2, 71, 58
3, 16513, Note_off_c, 2, 71, 0
3, 16513, Note_off_c, 2, 76, 0
3, 16513, Note_on_c, 2, 69, 53
3, 16513, Note_on_c, 2, 72, 68
3, 16705, Note_off_c, 2, 69, 0
3, 16705, Note_on_c, 2, 67, 53
3, 16897, Note_off_c, 2, 67, 0
3, 16897, Note_off_c, 2, 72, 0
3, 16897, Note_on_c, 2, 65, 52
3, 16897, Note_on_c, 2, 69, 62
3, 17089, Note_off_c, 2, 65, 0
3, 17089, Note_on_c, 2, 64, 49
3, 17281, Note_off_c, 2, 64, 0
3, 17281, Note_off_c, 2, 69, 0
3, 17281, Note_on_c, 2, 62, 52
3, 17281, Note_on_c, 2, 65, 64
3, 17449, Note_off_c, 2, 65, 0
3, 17473, Note_off_c, 2, 62, 0
3, 17473, Note_on_c, 2, 60, 52
3, 17473, Note_on_c, 2, 65, 71
3, 17521, Note_off_c, 2, 65, 0
3, 17521, Note_on_c, 2, 67, 64
3, 17569, Note_off_c, 2, 67, 0
3, 17569, Note_on_c, 2, 69, 68
3, 17617, Note_off_c, 2, 69, 0
3, 17617, Note_on_c, 2, 71, 60
3, 17641, Note_off_c, 2, 71, 0
3, 17641, Note_on_c, 2, 72, 62
3, 17665, Note_off_c, 2, 60, 0
3, 17665, Note_off_c, 2, 72, 0
3, 17665, Note_on_c, 2, 67, 52
3, 17665, Note_on_c, 2, 71, 82
3, 17857, Note_off_c, 2, 67, 0
3, 17857, Note_on_c, 2, 65, 53
3, 18049, Note_off_c, 2, 65, 0
3, 18049, Note_off_c, 2, 71, 0
3, 18049, Note_on_c, 2, 64, 49
3, 18049, Note_on_c, 2, 67, 73
3, 18217, Note_off_c, 2, 67, 0
3, 18241, Note_off_c, 2, 64, 0
3, 18241, Note_on_c, 2, 62, 50
3, 18241, Note_on_c, 2, 67, 68
3, 18289, Note_off_c, 2, 67, 0
3, 18289, Note_on_c, 2, 69, 63
3, 18337, Note_off_c, 2, 69, 0
3, 18337, Note_on_c, 2, 71, 57
3, 18361, Note_off_c, 2, 71, 0
3, 18361, Note_on_c, 2, 72, 56
3, 18385, Note_off_c, 2, 72, 0
3, 18385, Note_on_c, 2, 74, 68
3, 18433, Note_off_c, 2, 62, 0
3, 18433, Note_off_c, 2, 74, 0
3, 18433, Note_on_c, 2, 72, 62
3, 18433, Note_on_c, 2, 76, 68
3, 18625, Note_off_c, 2, 72, 0
3, 18625, Note_on_c, 2, 71, 58
3, 18721, Note_off_c, 2, 76, 0
3, 18721, Note_on_c, 2, 77, 62
3, 18769, Note_off_c, 2, 77, 0
3, 18769, Note_on_c, 2, 79, 58
3, 18817, Note_off_c, 2, 71, 0
3, 18817, Note_off_c, 2, 79, 0
3, 18817, Note_on_c, 2, 69, 53
3, 18817, Note_on_c, 2, 84, 56
3, 19009, Note_off_c, 2, 69, 0
3, 19009, Note_off_c, 2, 84, 0
3, 19009, Note_on_c, 2, 67, 53
3, 19009, Note_on_c, 2, 83, 62
3, 19105, Note_off_c, 2, 83, 0
3, 19105, Note_on_c, 2, 79, 62
3, 19201, Note_off_c, 2, 67, 0
3, 19201, Note_off_c, 2, 79, 0
3, 19201, Note_on_c, 2, 65, 52
3, 19201, Note_on_c, 2, 81, 58
3, 19297, Note_off_c, 2, 81, 0
3, 19297, Note_on_c, 2, 72, 71
3, 19393, Note_off_c, 2, 65, 0
3, 19393, Note_on_c, 2, 64, 49
3, 19489, Note_off_c, 2, 72, 0
3, 19489, Note_on_c, 2, 74, 68
3, 19537, Note_off_c, 2, 74, 0
3, 19537, Note_on_c, 2, 76, 51
3, 19585, Note_off_c, 2, 64, 0
3, 19585, Note_off_c, 2, 76, 0
3, 19585, Note_on_c, 2, 62, 52
3, 19585, Note_on_c, 2, 77, 64
3, 19777, Note_off_c, 2, 62, 0
3, 19777, Note_on_c, 2, 60, 52
3, 19825, Note_off_c, 2, 77, 0
3, 19825, Note_on_c, 2, 79, 56
3, 19873, Note_off_c, 2, 79, 0
3, 19873, Note_on_c, 2, 81, 47
3, 19921, Note_off_c, 2, 81, 0
3, 19921, Note_on_c, 2, 83, 56
3, 19945, Note_off_c, 2, 83, 0
3, 19945, Note_on_c, 2, 84, 60
3, 19969, Note_off_c, 2, 60, 0
3, 19969, Note_off_c, 2, 84, 0
3, 19969, Note_on_c, 2, 67, 52
3, 19969, Note_on_c, 2, 83, 68
3, 20065, Note_off_c, 2, 83, 0
3, 20065, Note_on_c, 2, 74, 71
3, 20161, Note_off_c, 2, 67, 0
3, 20161, Note_on_c, 2, 65, 53
3, 20257, Note_off_c, 2, 74, 0
3, 20257, Note_on_c, 2, 76, 62
3, 20305, Note_off_c, 2, 76, 0
3, 20305, Note_on_c, 2, 77, 58
3, 20353, Note_off_c, 2, 65, 0
3, 20353, Note_off_c, 2, 77, 0
3, 20353, Note_on_c, 2, 64, 49
3, 20353, Note_on_c, 2, 79, 64
3, 20545, Note_off_c, 2, 64, 0
3, 20545, Note_on_c, 2, 62, 50
3, 20593, Note_off_c, 2, 79, 0
3, 20593, Note_on_c, 2, 83, 62
3, 20641, Note_off_c, 2, 83, 0
3, 20641, Note_on_c, 2, 84, 62
3, 20689, Note_off_c, 2, 84, 0
3, 20689, Note_on_c, 2, 86, 58
3, 20737, Note_off_c, 2, 62, 0
3, 20737, Note_off_c, 2, 86, 0
3, 20737, Note_on_c, 2, 72, 62
3, 20741, Note_on_c, 2, 88, 62
3, 20787, Note_on_c, 2, 86, 60
3, 20789, Note_off_c, 2, 88, 0
3, 20833, Note_on_c, 2, 88, 58
3, 20835, Note_off_c, 2, 86, 0
3, 20881, Note_off_c, 2, 88, 0
3, 20886, Note_on_c, 2, 91, 48
3, 20929, Note_off_c, 2, 72, 0
3, 20929, Note_on_c, 2, 71, 58
3, 20931, Note_on_c, 2, 86, 56
3, 20934, Note_off_c, 2, 91, 0
3, 20975, Note_on_c, 2, 84, 60
3, 20979, Note_off_c, 2, 86, 0
3, 21023, Note_off_c, 2, 84, 0
3, 21024, Note_on_c, 2, 86, 62
3, 21070, Note_on_c, 2, 91, 51
3, 21072, Note_off_c, 2, 86, 0
3, 21118, Note_off_c, 2, 91, 0
3, 21120, Note_on_c, 2, 84, 60
3, 21121, Note_off_c, 2, 71, 0
3, 21121, Note_on_c, 2, 69, 53
3, 21166, Note_on_c, 2, 83, 53
3, 21168, Note_off_c, 2, 84, 0
3, 21214, Note_off_c, 2, 83, 0
3, 21214, Note_on_c, 2, 84, 56
3, 21262, Note_off_c, 2, 84, 0
3, 21264, Note_on_c, 2, 88, 43
3, 21312, Note_off_c, 2, 88, 0
3, 21313, Note_off_c, 2, 69, 0
3, 21313, Note_on_c, 2, 67, 53
3, 21314, Note_on_c, 2, 83, 56
3, 21360, Note_on_c, 2, 81, 48
3, 21362, Note_off_c, 2, 83, 0
3, 21408, Note_off_c, 2, 81, 0
3, 21408, Note_on_c, 2, 83, 64
3, 21456, Note_off_c, 2, 83, 0
3, 21456, Note_on_c, 2, 79, 68
3, 21504, Note_off_c, 2, 79, 0
3, 21504, Note_on_c, 2, 81, 62
3, 21505, Note_off_c, 2, 67, 0
3, 21505, Note_on_c, 2, 65, 52
3, 21697, Note_off_c, 2, 65, 0
3, 21697, Note_on_c, 2, 64, 49
3, 21792, Note_off_c, 2, 81, 0
3, 21792, Note_on_c, 2, 83, 68
3, 21835, Note_on_c, 2, 84, 56
3, 21840, Note_off_c, 2, 83, 0
3, 21883, Note_off_c, 2, 84, 0
3, 21888, Note_on_c, 2, 81, 71
3, 21888, Note_on_c, 2, 86, 64
3, 21889, Note_off_c, 2, 64, 0
3, 21889, Note_on_c, 2, 89, 58
3, 21929, Control_c, 2, 1, 50
3, 22027, Control_c, 2, 1, 109
3, 22072, Control_c, 2, 1, 127
3, 22080, Note_off_c, 2, 81, 0
3, 22080, Note_off_c, 2, 86, 0
3, 22081, Note_off_c, 2, 89, 0
3, 22082, Note_on_c, 2, 79, 64
3, 22082, Note_on_c, 2, 83, 68
3, 22083, Note_on_c, 2, 86, 64
3, 22083, Note_on_c, 2, 89, 60
3, 22130, Note_off_c, 2, 79, 0
3, 22130, Note_off_c, 2, 83, 0
3, 22131, Note_off_c, 2, 86, 0
3, 22131, Note_off_c, 2, 89, 0
3, 22136, Note_on_c, 2, 77, 42
3, 22140, Note_on_c, 2, 76, 31
3, 22142, Note_off_c, 2, 77, 0
3, 22145, Note_on_c, 2, 74, 43
3, 22146, Note_off_c, 2, 76, 0
3, 22151, Note_off_c, 2, 74, 0
3, 22152, Note_on_c, 2, 72, 39
3, 22156, Note_on_c, 2, 71, 38
3, 22158, Note_off_c, 2, 72, 0
3, 22161, Note_on_c, 2, 69, 40
3, 22162, Note_off_c, 2, 71, 0
3, 22165, Note_on_c, 2, 67, 42
3, 22167, Note_off_c, 2, 69, 0
3, 22168, Note_on_c, 2, 65, 44
3, 22171, Note_off_c, 2, 67, 0
3, 22172, Note_on_c, 2, 64, 43
3, 22174, Note_off_c, 2, 65, 0
3, 22175, Note_on_c, 2, 62, 47
3, 22178, Note_off_c, 2, 64, 0
3, 22179, Note_on_c, 2, 60, 48
3, 22181, Note_off_c, 2, 62, 0
3, 22182, Note_on_c, 2, 59, 47
3, 22185, Note_off_c, 2, 60, 0
3, 22185, Note_on_c, 2, 57, 47
3, 22188, Note_off_c, 2, 59, 0
3, 22188, Note_on_c, 2, 55, 49
3, 22191, Note_off_c, 2, 57, 0
3, 22192, Note_on_c, 2, 53, 47
3, 22194, Note_off_c, 2, 55, 0
3, 22195, Note_on_c, 2, 52, 49
3, 22198, Note_off_c, 2, 53, 0
3, 22198, Note_on_c, 2, 50, 56
3, 22201, Note_off_c, 2, 52, 0
3, 22201, Note_on_c, 2, 48, 60
3, 22204, Note_off_c, 2, 50, 0
3, 22205, Note_on_c, 2, 47, 51
3, 22207, Note_off_c, 2, 48, 0
3, 22211, Note_off_c, 2, 47, 0
3, 22221, Note_on_c, 2, 45, 51
3, 22222, Note_on_c, 2, 47, 44
3, 22225, Note_on_c, 2, 48, 28
3, 22227, Note_off_c, 2, 45, 0
3, 22228, Note_off_c, 2, 47, 0
3, 22231, Note_off_c, 2, 48, 0
3, 22231, Note_on_c, 2, 50, 14
3, 22235, Note_on_c, 2, 52, 29
3, 22237, Note_off_c, 2, 50, 0
3, 22238, Note_on_c, 2, 53, 40
3, 22241, Note_off_c, 2, 52, 0
3, 22242, Note_on_c, 2, 55, 44
3, 22244, Note_off_c, 2, 53, 0
3, 22244, Note_on_c, 2, 57, 44
3, 22247, Note_on_c, 2, 59, 47
3, 22248, Note_off_c, 2, 55, 0
3, 22250, Note_off_c, 2, 57, 0
3, 22250, Note_on_c, 2, 60, 47
3, 22253, Note_off_c, 2, 59, 0
3, 22253, Note_on_c, 2, 62, 48
3, 22255, Note_on_c, 2, 64, 47
3, 22256, Note_off_c, 2, 60, 0
3, 22258, Note_on_c, 2, 65, 44
3, 22259, Note_off_c, 2, 62, 0
3, 22261, Note_off_c, 2, 64, 0
3, 22261, Note_on_c, 2, 67, 47
3, 22263, Note_on_c, 2, 69, 47
3, 22264, Note_off_c, 2, 65, 0
3, 22266, Note_on_c, 2, 71, 53
3, 22267, Note_off_c, 2, 67, 0
3, 22268, Note_on_c, 2, 72, 56
3, 22269, Note_off_c, 2, 69, 0
3, 22272, Note_off_c, 2, 71, 0
3, 22272, Control_c, 2, 1, 0
3, 22276, Note_on_c, 2, 84, 64
3, 22276, Note_on_c, 2, 79, 62
3, 22277, Note_on_c, 2, 88, 50
3, 22278, Note_off_c, 2, 72, 0
3, 22350, Control_c, 2, 1, 50
3, 22465, Note_on_c, 2, 83, 68
3, 22468, Note_off_c, 2, 84, 0
3, 22636, Note_off_c, 2, 79, 0
3, 22657, Note_off_c, 2, 83, 0
3, 22658, Note_on_c, 2, 84, 62
3, 22659, Note_on_c, 2, 81, 68
3, 22750, Control_c, 2, 1, 60
3, 22840, Control_c, 2, 1, 41
3, 22849, Note_on_c, 2, 79, 68
3, 22851, Note_off_c, 2, 81, 0
3, 23017, Note_off_c, 2, 79, 0
3, 23021, Note_off_c, 2, 88, 0
3, 23038, Control_c, 2, 1, 22
3, 23040, Note_off_c, 2, 84, 0
3, 23040, Note_on_c, 2, 84, 47
3, 23041, Note_on_c, 2, 81, 64
3, 23042, Note_on_c, 2, 77, 64
3, 23210, Note_off_c, 2, 77, 0
3, 23231, Note_on_c, 2, 76, 58
3, 23420, Note_off_c, 2, 84, 0
3, 23423, Note_off_c, 2, 76, 0
3, 23425, Note_off_c, 2, 81, 0
3, 23426, Note_on_c, 2, 81, 62
3, 23427, Note_on_c, 2, 74, 68
3, 23427, Note_on_c, 2, 77, 68
3, 23618, Note_on_c, 2, 72, 71
3, 23619, Note_off_c, 2, 74, 0
3, 23735, Control_c, 2, 1, 0
3, 23809, Note_on_c, 2, 74, 64
3, 23809, Note_on_c, 2, 79, 56
3, 23810, Note_off_c, 2, 72, 0
3, 23810, Note_off_c, 2, 81, 0
3, 23810, Note_on_c, 2, 71, 60
3, 23811, Note_off_c, 2, 77, 0
3, 24001, Note_off_c, 2, 79, 0
3, 24001, Note_on_c, 2, 77, 56
3, 24169, Note_off_c, 2, 74, 0
3, 24169, Note_off_c, 2, 77, 0
3, 24194, Note_on_c, 2, 67, 60
3, 24195, Note_on_c, 2, 76, 42
3, 24386, Note_off_c, 2, 67, 0
3, 24386, Note_on_c, 2, 67, 58
3, 24386, Note_on_c, 2, 74, 62
3, 24387, Note_off_c, 2, 76, 0
3, 24536, Control_c, 2, 1, 24
3, 24574, Note_off_c, 2, 67, 0
3, 24577, Note_on_c, 2, 67, 68
3, 24577, Note_on_c, 2, 72, 77
3, 24578, Note_off_c, 2, 71, 0
3, 24578, Note_off_c, 2, 74, 0
3, 24721, Note_on_c, 2, 74, 60
3, 24745, Note_off_c, 2, 74, 0
3, 24745, Note_on_c, 2, 76, 62
3, 24769, Note_off_c, 2, 67, 0
3, 24769, Note_off_c, 2, 76, 0
3, 24769, Note_on_c, 2, 69, 64
3, 24769, Note_on_c, 2, 77, 73
3, 24937, Note_off_c, 2, 69, 0
3, 24961, Note_off_c, 2, 77, 0
3, 24961, Note_on_c, 2, 67, 60
3, 24961, Note_on_c, 2, 76, 51
3, 25129, Note_off_c, 2, 72, 0
3, 25152, Control_c, 2, 1, 26
3, 25153, Note_off_c, 2, 76, 0
3, 25153, Note_on_c, 2, 72, 62
3, 25153, Note_on_c, 2, 74, 68
3, 25248, Control_c, 2, 1, 77
3, 25249, Note_off_c, 2, 72, 0
3, 25249, Note_on_c, 2, 71, 60
3, 25345, Note_off_c, 2, 67, 0
3, 25345, Note_off_c, 2, 71, 0
3, 25345, Note_off_c, 2, 74, 0
3, 25345, Note_on_c, 2, 72, 69
3, 25345, Note_on_c, 2, 76, 87
3, 25468, Control_c, 2, 1, 35
3, 25537, Note_off_c, 2, 72, 0
3, 25537, Note_on_c, 2, 71, 64
3, 25729, Note_off_c, 2, 71, 0
3, 25729, Note_on_c, 2, 69, 61
3, 25777, Note_off_c, 2, 76, 0
3, 25777, Note_on_c, 2, 74, 87
3, 25825, Note_off_c, 2, 74, 0
3, 25825, Note_on_c, 2, 72, 78
3, 25873, Note_off_c, 2, 72, 0
3, 25873, Note_on_c, 2, 71, 79
3, 25921, Note_off_c, 2, 69, 0
3, 25921, Note_off_c, 2, 71, 0
3, 25921, Note_on_c, 2, 67, 60
3, 25921, Note_on_c, 2, 72, 85
3, 25969, Note_off_c, 2, 72, 0
3, 25969, Note_on_c, 2, 74, 73
3, 26017, Note_off_c, 2, 74, 0
3, 26017, Note_on_c, 2, 76, 67
3, 26065, Note_off_c, 2, 76, 0
3, 26065, Note_on_c, 2, 72, 71
3, 26113, Note_off_c, 2, 67, 0
3, 26113, Note_off_c, 2, 72, 0
3, 26113, Note_on_c, 2, 65, 60
3, 26113, Note_on_c, 2, 81, 84
3, 26305, Note_off_c, 2, 65, 0
3, 26305, Note_on_c, 2, 64, 57
3, 26377, Note_off_c, 2, 81, 0
3, 26401, Note_on_c, 2, 83, 81
3, 26449, Note_off_c, 2, 83, 0
3, 26449, Note_on_c, 2, 84, 62
3, 26497, Note_off_c, 2, 64, 0
3, 26497, Note_off_c, 2, 84, 0
3, 26497, Note_on_c, 2, 62, 60
3, 26497, Note_on_c, 2, 89, 81
3, 26519, Note_on_c, 2, 88, 66
3, 26521, Note_off_c, 2, 89, 0
3, 26541, Note_on_c, 2, 89, 79
3, 26543, Note_off_c, 2, 88, 0
3, 26685, Note_off_c, 2, 89, 0
3, 26689, Note_off_c, 2, 62, 0
3, 26689, Note_on_c, 2, 60, 60
3, 26689, Note_on_c, 2, 88, 69
3, 26737, Note_off_c, 2, 88, 0
3, 26740, Note_on_c, 2, 84, 66
3, 26782, Note_on_c, 2, 86, 72
3, 26788, Note_off_c, 2, 84, 0
3, 26827, Note_on_c, 2, 88, 58
3, 26830, Note_off_c, 2, 86, 0
3, 26875, Note_off_c, 2, 88, 0
3, 26881, Note_off_c, 2, 60, 0
3, 26881, Note_on_c, 2, 67, 60
3, 26881, Note_on_c, 2, 83, 69
3, 27073, Note_off_c, 2, 67, 0
3, 27073, Note_off_c, 2, 83, 0
3, 27073, Note_on_c, 2, 65, 60
3, 27169, Note_on_c, 2, 84, 76
3, 27217, Note_off_c, 2, 84, 0
3, 27217, Note_on_c, 2, 86, 63
3, 27265, Note_off_c, 2, 65, 0
3, 27265, Note_off_c, 2, 86, 0
3, 27265, Note_on_c, 2, 64, 57
3, 27265, Note_on_c, 2, 91, 58
3, 27289, Note_off_c, 2, 91, 0
3, 27289, Note_on_c, 2, 90, 51
3, 27309, Note_on_c, 2, 91, 58
3, 27313, Note_off_c, 2, 90, 0
3, 27457, Note_off_c, 2, 64, 0
3, 27457, Note_on_c, 2, 62, 58
3, 27501, Note_off_c, 2, 91, 0
3, 27507, Note_on_c, 2, 89, 69
3, 27555, Note_off_c, 2, 89, 0
3, 27555, Note_on_c, 2, 88, 61
3, 27601, Note_on_c, 2, 89, 63
3, 27603, Note_off_c, 2, 88, 0
3, 27649, Note_off_c, 2, 62, 0
3, 27649, Note_off_c, 2, 89, 0
3, 27649, Note_on_c, 2, 60, 61
3, 27649, Note_on_c, 2, 89, 63
3, 27701, Note_on_c, 2, 88, 63
3, 27742, Note_on_c, 2, 86, 63
3, 27749, Note_off_c, 2, 88, 0
3, 27790, Note_off_c, 2, 86, 0
3, 27790, Note_on_c, 2, 84, 66
3, 27841, Note_off_c, 2, 60, 0
3, 27841, Note_on_c, 2, 65, 64
3, 27888, Note_on_c, 2, 69, 69
3, 27936, Note_off_c, 2, 69, 0
3, 27937, Note_on_c, 2, 71, 76
3, 27985, Note_off_c, 2, 71, 0
3, 27988, Note_on_c, 2, 72, 85
3, 28012, Note_off_c, 2, 72, 0
3, 28033, Note_off_c, 2, 65, 0
3, 28033, Note_on_c, 2, 67, 56
3, 28033, Note_on_c, 2, 72, 71
3, 28054, Note_off_c, 2, 84, 0
3, 28081, Note_off_c, 2, 72, 0
3, 28081, Note_on_c, 2, 71, 62
3, 28127, Note_on_c, 2, 72, 68
3, 28129, Note_off_c, 2, 71, 0
3, 28173, Note_on_c, 2, 74, 68
3, 28175, Note_off_c, 2, 72, 0
3, 28201, Note_off_c, 2, 67, 0
3, 28221, Note_off_c, 2, 74, 0
3, 28221, Note_on_c, 2, 83, 86
3, 28222, Note_on_c, 2, 79, 86
3, 28222, Note_on_c, 2, 74, 73
3, 28235, Control_c, 2, 1, 60
3, 28269, Note_off_c, 2, 83, 0
3, 28269, Note_on_c, 2, 72, 60
3, 28270, Note_off_c, 2, 79, 0
3, 28270, Note_off_c, 2, 74, 0
3, 28275, Note_off_c, 2, 72, 0
3, 28278, Note_on_c, 2, 71, 53
3, 28284, Note_off_c, 2, 71, 0
3, 28285, Note_on_c, 2, 69, 64
3, 28291, Note_off_c, 2, 69, 0
3, 28291, Note_on_c, 2, 67, 60
3, 28297, Note_off_c, 2, 67, 0
3, 28301, Note_on_c, 2, 64, 54
3, 28307, Note_off_c, 2, 64, 0
3, 28307, Note_on_c, 2, 62, 52
3, 28311, Note_on_c, 2, 60, 51
3, 28313, Note_off_c, 2, 62, 0
3, 28316, Note_on_c, 2, 59, 51
3, 28317, Note_off_c, 2, 60, 0
3, 28320, Note_on_c, 2, 57, 50
3, 28322, Note_off_c, 2, 59, 0
3, 28325, Note_on_c, 2, 55, 49
3, 28326, Note_off_c, 2, 57, 0
3, 28329, Note_on_c, 2, 53, 49
3, 28331, Note_off_c, 2, 55, 0
3, 28334, Note_on_c, 2, 52, 42
3, 28335, Note_off_c, 2, 53, 0
3, 28339, Note_on_c, 2, 50, 43
3, 28340, Note_off_c, 2, 52, 0
3, 28343, Note_on_c, 2, 48, 40
3, 28345, Note_off_c, 2, 50, 0
3, 28348, Note_on_c, 2, 47, 33
3, 28349, Note_off_c, 2, 48, 0
3, 28353, Note_on_c, 2, 45, 40
3, 28354, Note_off_c, 2, 47, 0
3, 28358, Note_on_c, 2, 43, 47
3, 28359, Note_off_c, 2, 45, 0
3, 28364, Note_off_c, 2, 43, 0
3, 28367, Note_on_c, 2, 50, 8
3, 28368, Note_on_c, 2, 52, 48
3, 28373, Note_off_c, 2, 50, 0
3, 28374, Note_off_c, 2, 52, 0
3, 28376, Note_on_c, 2, 53, 59
3, 28382, Note_off_c, 2, 53, 0
3, 28383, Note_on_c, 2, 55, 59
3, 28388, Note_on_c, 2, 57, 59
3, 28389, Note_off_c, 2, 55, 0
3, 28393, Note_on_c, 2, 59, 52
3, 28394, Note_off_c, 2, 57, 0
3, 28397, Note_on_c, 2, 60, 49
3, 28399, Note_off_c, 2, 59, 0
3, 28401, Note_on_c, 2, 62, 53
3, 28403, Note_off_c, 2, 60, 0
3, 28405, Note_on_c, 2, 64, 57
3, 28407, Note_off_c, 2, 62, 0
3, 28409, Note_on_c, 2, 65, 60
3, 28411, Note_off_c, 2, 64, 0
3, 28413, Note_on_c, 2, 67, 52
3, 28415, Note_off_c, 2, 65, 0
3, 28416, Control_c, 2, 1, 0
3, 28419, Note_off_c, 2, 67, 0
3, 28420, Note_on_c, 2, 84, 64
3, 28420, Note_on_c, 2, 79, 62
3, 28421, Note_on_c, 2, 88, 50
3, 28493, Control_c, 2, 1, 60
3, 28609, Note_on_c, 2, 83, 68
3, 28612, Note_off_c, 2, 84, 0
3, 28780, Note_off_c, 2, 79, 0
3, 28801, Note_off_c, 2, 83, 0
3, 28802, Note_on_c, 2, 84, 62
3, 28803, Note_on_c, 2, 81, 68
3, 28984, Control_c, 2, 1, 41
3, 28993, Note_on_c, 2, 79, 68
3, 28995, Note_off_c, 2, 81, 0
3, 29161, Note_off_c, 2, 79, 0
3, 29165, Note_off_c, 2, 88, 0
3, 29184, Note_off_c, 2, 84, 0
3, 29184, Note_on_c, 2, 84, 47
3, 29185, Note_on_c, 2, 81, 64
3, 29186, Note_on_c, 2, 77, 64
3, 29354, Note_off_c, 2, 77, 0
3, 29375, Note_on_c, 2, 76, 58
3, 29564, Note_off_c, 2, 84, 0
3, 29567, Note_off_c, 2, 76, 0
3, 29569, Note_off_c, 2, 81, 0
3, 29570, Note_on_c, 2, 81, 62
3, 29571, Note_on_c, 2, 74, 68
3, 29571, Note_on_c, 2, 77, 68
3, 29762, Note_on_c, 2, 72, 71
3, 29763, Note_off_c, 2, 74, 0
3, 29805, Control_c, 2, 1, 30
3, 29879, Control_c, 2, 1, 0
3, 29953, Note_on_c, 2, 74, 64
3, 29953, Note_on_c, 2, 79, 56
3, 29954, Note_off_c, 2, 72, 0
3, 29954, Note_off_c, 2, 81, 0
3, 29954, Note_on_c, 2, 71, 60
3, 29955, Note_off_c, 2, 77, 0
3, 30081, Control_c, 2, 1, 32
3, 30145, Note_off_c, 2, 79, 0
3, 30145, Note_on_c, 2, 77, 56
3, 30313, Note_off_c, 2, 74, 0
3, 30313, Note_off_c, 2, 77, 0
3, 30338, Note_on_c, 2, 67, 60
3, 30339, Note_on_c, 2, 76, 42
3, 30530, Note_on_c, 2, 74, 62
3, 30531, Note_off_c, 2, 76, 0
3, 30721, Note_on_c, 2, 72, 62
3, 30721, Note_on_c, 2, 76, 64
3, 30721, Note_on_c, 2, 79, 68
3, 30722, Note_off_c, 2, 67, 0
3, 30722, Note_off_c, 2, 71, 0
3, 30722, Note_off_c, 2, 74, 0
3, 30913, Note_off_c, 2, 76, 0
3, 30913, Note_off_c, 2, 79, 0
3, 30913, Note_on_c, 2, 77, 60
3, 30913, Note_on_c, 2, 81, 62
3, 31081, Note_off_c, 2, 81, 0
3, 31105, Note_off_c, 2, 77, 0
3, 31105, Note_on_c, 2, 76, 64
3, 31105, Note_on_c, 2, 79, 60
3, 31273, Note_off_c, 2, 76, 0
3, 31273, Note_off_c, 2, 79, 0
3, 31297, Note_on_c, 2, 77, 62
3, 31297, Note_on_c, 2, 81, 68
3, 31488, Note_on_c, 2, 84, 68
3, 31489, Note_off_c, 2, 72, 0
3, 31489, Note_off_c, 2, 77, 0
3, 31489, Note_off_c, 2, 81, 0
3, 31489, Note_on_c, 2, 72, 58
3, 31489, Note_on_c, 2, 81, 60
3, 31680, Tempo, 845070
3, 31843, Note_on_c, 2, 43, 29
3, 31845, Note_on_c, 2, 45, 38
3, 31847, Note_on_c, 2, 47, 44
3, 31848, Note_off_c, 2, 84, 0
3, 31849, Note_off_c, 2, 81, 0
3, 31849, Note_off_c, 2, 43, 0
3, 31850, Note_on_c, 2, 48, 43
3, 31851, Note_off_c, 2, 45, 0
3, 31852, Note_on_c, 2, 50, 49
3, 31853, Note_off_c, 2, 47, 0
3, 31854, Note_on_c, 2, 52, 53
3, 31854, Control_c, 2, 1, 36
3, 31856, Note_off_c, 2, 48, 0
3, 31856, Note_on_c, 2, 53, 56
3, 31858, Note_off_c, 2, 50, 0
3, 31858, Note_on_c, 2, 55, 58
3, 31860, Note_off_c, 2, 52, 0
3, 31860, Note_on_c, 2, 57, 56
3, 31862, Note_off_c, 2, 53, 0
3, 31863, Note_on_c, 2, 59, 53
3, 31864, Note_off_c, 2, 55, 0
3, 31866, Note_off_c, 2, 57, 0
3, 31866, Note_on_c, 2, 60, 49
3, 31869, Note_off_c, 2, 59, 0
3, 31869, Note_on_c, 2, 62, 42
3, 31872, Note_off_c, 2, 60, 0
3, 31872, Tempo, 895522
3, 31873, Note_on_c, 2, 77, 56
3, 31873, Note_on_c, 2, 80, 64
3, 31875, Note_off_c, 2, 62, 0
3, 31878, Note_on_c, 2, 64, 40
3, 31884, Note_off_c, 2, 64, 0
3, 32064, Tempo, 909090
3, 32233, Note_off_c, 2, 72, 0
3, 32233, Note_off_c, 2, 77, 0
3, 32233, Note_off_c, 2, 80, 0
3, 32256, Tempo, 1034482
3, 32257, Note_on_c, 2, 72, 68
3, 32257, Note_on_c, 2, 77, 71
3, 32258, Note_on_c, 2, 89, 73
3, 32267, Control_c, 2, 1, 40
3, 32448, Note_on_c, 2, 88, 64
3, 32449, Note_off_c, 2, 77, 0
3, 32449, Note_on_c, 2, 76, 68
3, 32450, Note_off_c, 2, 89, 0
3, 32544, Note_off_c, 2, 88, 0
3, 32544, Note_on_c, 2, 86, 68
3, 32545, Note_off_c, 2, 76, 0
3, 32545, Note_on_c, 2, 74, 56
3, 32640, Note_off_c, 2, 86, 0
3, 32641, Note_off_c, 2, 74, 0
3, 32641, Note_on_c, 2, 76, 68
3, 32641, Note_on_c, 2, 88, 60
3, 32797, Control_c, 2, 1, 60
3, 33016, Control_c, 2, 1, 0
3, 33025, Note_off_c, 2, 72, 0
3, 33025, Note_off_c, 2, 76, 0
3, 33025, Note_off_c, 2, 88, 0
3, 33432, Control_c, 2, 120, 0
3, 33456, Note_off_c, 2, 89, 0
3, 33456, End_track
4, 0, Start_track
4, 0, Control_c, 6, 32, 0
4, 0, Control_c, 6, 0, 0
4, 0, Program_c, 6, 48
4, 0, Control_c, 6, 10, 86
4, 0, Control_c, 6, 91, 127
4, 0, Control_c, 6, 93, 74
4, 0, Time_signature, 4, 2, 96, 8
4, 0, Tempo, 833333
4, 769, Note_on_c, 6, 72, 62
4, 769, Note_on_c, 6, 76, 78
4, 827, Control_c, 6, 1, 50
4, 915, Control_c, 6, 1, 38
4, 961, Note_off_c, 6, 72, 0
4, 961, Note_on_c, 6, 71, 58
4, 1153, Note_off_c, 6, 71, 0
4, 1153, Note_on_c, 6, 69, 55
4, 1201, Note_off_c, 6, 76, 0
4, 1201, Note_on_c, 6, 74, 78
4, 1249, Note_off_c, 6, 74, 0
4, 1249, Note_on_c, 6, 72, 70
4, 1297, Note_off_c, 6, 72, 0
4, 1297, Note_on_c, 6, 71, 71
4, 1345, Note_off_c, 6, 69, 0
4, 1345, Note_off_c, 6, 71, 0
4, 1345, Note_on_c, 6, 67, 54
4, 1345, Note_on_c, 6, 72, 76
4, 1393, Note_off_c, 6, 72, 0
4, 1393, Note_on_c, 6, 74, 66
4, 1441, Note_off_c, 6, 74, 0
4, 1441, Note_on_c, 6, 76, 60
4, 1489, Note_off_c, 6, 76, 0
4, 1489, Note_on_c, 6, 72, 64
4, 1531, Note_on_c, 6, 80, 50
4, 1537, Note_off_c, 6, 67, 0
4, 1537, Note_off_c, 6, 72, 0
4, 1537, Note_on_c, 6, 65, 54
4, 1537, Note_on_c, 6, 81, 81
4, 1541, Note_off_c, 6, 80, 0
4, 1729, Note_off_c, 6, 65, 0
4, 1729, Note_on_c, 6, 64, 51
4, 1825, Note_off_c, 6, 81, 0
4, 1825, Note_on_c, 6, 83, 73
4, 1873, Note_off_c, 6, 83, 0
4, 1873, Note_on_c, 6, 84, 56
4, 1921, Note_off_c, 6, 64, 0
4, 1921, Note_off_c, 6, 84, 0
4, 1921, Note_on_c, 6, 62, 54
4, 1922, Note_on_c, 6, 77, 73
4, 1944, Note_on_c, 6, 76, 59
4, 1946, Note_off_c, 6, 77, 0
4, 1967, Note_on_c, 6, 77, 71
4, 1968, Note_off_c, 6, 76, 0
4, 2113, Note_off_c, 6, 62, 0
4, 2113, Note_on_c, 6, 60, 54
4, 2207, Note_off_c, 6, 77, 0
4, 2209, Note_on_c, 6, 74, 70
4, 2305, Note_off_c, 6, 60, 0
4, 2305, Note_off_c, 6, 74, 0
4, 2305, Note_on_c, 6, 67, 54
4, 2305, Note_on_c, 6, 83, 71
4, 2497, Note_off_c, 6, 67, 0
4, 2497, Note_on_c, 6, 65, 54
4, 2593, Note_off_c, 6, 83, 0
4, 2593, Note_on_c, 6, 84, 68
4, 2641, Note_off_c, 6, 84, 0
4, 2641, Note_on_c, 6, 86, 57
4, 2689, Note_off_c, 6, 65, 0
4, 2689, Note_off_c, 6, 86, 0
4, 2689, Note_on_c, 6, 64, 51
4, 2689, Note_on_c, 6, 79, 59
4, 2713, Note_off_c, 6, 79, 0
4, 2713, Note_on_c, 6, 77, 62
4, 2737, Note_off_c, 6, 77, 0
4, 2737, Note_on_c, 6, 79, 68
4, 2881, Note_off_c, 6, 64, 0
4, 2881, Note_on_c, 6, 62, 52
4, 2929, Note_off_c, 6, 79, 0
4, 2929, Note_on_c, 6, 77, 70
4, 2977, Note_off_c, 6, 77, 0
4, 2977, Note_on_c, 6, 76, 66
4, 3025, Note_off_c, 6, 76, 0
4, 3025, Note_on_c, 6, 77, 70
4, 3073, Note_off_c, 6, 62, 0
4, 3073, Note_off_c, 6, 77, 0
4, 3073, Note_on_c, 6, 60, 55
4, 3073, Note_on_c, 6, 77, 73
4, 3121, Note_off_c, 6, 77, 0
4, 3121, Note_on_c, 6, 76, 70
4, 3169, Note_off_c, 6, 76, 0
4, 3169, Note_on_c, 6, 74, 68
4, 3217, Note_off_c, 6, 74, 0
4, 3217, Note_on_c, 6, 72, 70
4, 3265, Note_off_c, 6, 60, 0
4, 3265, Note_off_c, 6, 72, 0
4, 3265, Note_on_c, 6, 65, 58
4, 3265, Note_on_c, 6, 81, 76
4, 3313, Note_on_c, 6, 69, 59
4, 3361, Note_off_c, 6, 69, 0
4, 3361, Note_on_c, 6, 71, 56
4, 3409, Note_off_c, 6, 71, 0
4, 3409, Note_on_c, 6, 72, 52
4, 3457, Note_off_c, 6, 65, 0
4, 3457, Note_off_c, 6, 72, 0
4, 3457, Note_off_c, 6, 81, 0
4, 3457, Note_on_c, 6, 67, 57
4, 3457, Note_on_c, 6, 79, 68
4, 3505, Note_on_c, 6, 71, 55
4, 3553, Note_off_c, 6, 71, 0
4, 3553, Note_on_c, 6, 72, 56
4, 3601, Note_off_c, 6, 72, 0
4, 3601, Note_on_c, 6, 74, 52
4, 3625, Note_off_c, 6, 67, 0
4, 3625, Note_off_c, 6, 74, 0
4, 3649, Note_off_c, 6, 79, 0
4, 3649, Note_on_c, 6, 65, 54
4, 3649, Note_on_c, 6, 67, 54
4, 3649, Note_on_c, 6, 71, 54
4, 3649, Note_on_c, 6, 74, 52
4, 3649, Note_on_c, 6, 77, 68
4, 3649, Control_c, 6, 1, 50
4, 3697, Note_off_c, 6, 77, 0
4, 3697, Note_on_c, 6, 76, 60
4, 3699, Control_c, 6, 1, 80
4, 3745, Note_off_c, 6, 76, 0
4, 3745, Note_on_c, 6, 77, 64
4, 3769, Note_off_c, 6, 74, 0
4, 3793, Note_off_c, 6, 77, 0
4, 3793, Note_on_c, 6, 74, 62
4, 3805, Control_c, 6, 1, 95
4, 3840, Control_c, 6, 1, 54
4, 3841, Note_off_c, 6, 65, 0
4, 3841, Note_off_c, 6, 67, 0
4, 3841, Note_off_c, 6, 71, 0
4, 3841, Note_off_c, 6, 74, 0
4, 3841, Note_on_c, 6, 72, 45
4, 3841, Note_on_c, 6, 76, 52
4, 3998, Control_c, 6, 1, 35
4, 4033, Note_off_c, 6, 72, 0
4, 4033, Note_on_c, 6, 71, 52
4, 4225, Note_off_c, 6, 71, 0
4, 4225, Note_off_c, 6, 76, 0
4, 4225, Note_on_c, 6, 69, 48
4, 4225, Note_on_c, 6, 72, 61
4, 4417, Note_off_c, 6, 69, 0
4, 4417, Note_on_c, 6, 67, 48
4, 4609, Note_off_c, 6, 67, 0
4, 4609, Note_off_c, 6, 72, 0
4, 4609, Note_on_c, 6, 65, 47
4, 4609, Note_on_c, 6, 69, 56
4, 4801, Note_off_c, 6, 65, 0
4, 4801, Note_on_c, 6, 64, 44
4, 4993, Note_off_c, 6, 64, 0
4, 4993, Note_off_c, 6, 69, 0
4, 4993, Note_on_c, 6, 62, 47
4, 4993, Note_on_c, 6, 65, 58
4, 5161, Note_off_c, 6, 65, 0
4, 5185, Note_off_c, 6, 62, 0
4, 5185, Note_on_c, 6, 60, 47
4, 5185, Note_on_c, 6, 65, 64
4, 5233, Note_off_c, 6, 65, 0
4, 5233, Note_on_c, 6, 67, 58
4, 5281, Note_off_c, 6, 67, 0
4, 5281, Note_on_c, 6, 69, 61
4, 5329, Note_off_c, 6, 69, 0
4, 5329, Note_on_c, 6, 71, 54
4, 5353, Note_off_c, 6, 71, 0
4, 5353, Note_on_c, 6, 72, 56
4, 5377, Note_off_c, 6, 60, 0
4, 5377, Note_off_c, 6, 72, 0
4, 5377, Note_on_c, 6, 67, 47
4, 5377, Note_on_c, 6, 71, 74
4, 5569, Note_off_c, 6, 67, 0
4, 5569, Note_on_c, 6, 65, 48
4, 5761, Note_off_c, 6, 65, 0
4, 5761, Note_off_c, 6, 71, 0
4, 5761, Note_on_c, 6, 64, 44
4, 5761, Note_on_c, 6, 67, 66
4, 5929, Note_off_c, 6, 67, 0
4, 5953, Note_off_c, 6, 64, 0
4, 5953, Note_on_c, 6, 62, 45
4, 5953, Note_on_c, 6, 67, 61
4, 6001, Note_off_c, 6, 67, 0
4, 6001, Note_on_c, 6, 69, 57
4, 6049, Note_off_c, 6, 69, 0
4, 6049, Note_on_c, 6, 71, 51
4, 6073, Note_off_c, 6, 71, 0
4, 6073, Note_on_c, 6, 72, 50
4, 6097, Note_off_c, 6, 72, 0
4, 6097, Note_on_c, 6, 74, 61
4, 6145, Note_off_c, 6, 62, 0
4, 6145, Note_off_c, 6, 74, 0
4, 6145, Note_on_c, 6, 72, 56
4, 6145, Note_on_c, 6, 76, 61
4, 6337, Note_off_c, 6, 72, 0
4, 6337, Note_on_c, 6, 71, 52
4, 6433, Note_off_c, 6, 76, 0
4, 6433, Note_on_c, 6, 77, 56
4, 6481, Note_off_c, 6, 77, 0
4, 6481, Note_on_c, 6, 79, 52
4, 6529, Note_off_c, 6, 71, 0
4, 6529, Note_off_c, 6, 79, 0
4, 6529, Note_on_c, 6, 69, 48
4, 6529, Note_on_c, 6, 84, 64
4, 6721, Note_off_c, 6, 69, 0
4, 6721, Note_off_c, 6, 84, 0
4, 6721, Note_on_c, 6, 67, 48
4, 6721, Note_on_c, 6, 83, 56
4, 6817, Note_off_c, 6, 83, 0
4, 6817, Note_on_c, 6, 79, 56
4, 6913, Note_off_c, 6, 67, 0
4, 6913, Note_off_c, 6, 79, 0
4, 6913, Note_on_c, 6, 65, 47
4, 6913, Note_on_c, 6, 81, 52
4, 7009, Note_off_c, 6, 81, 0
4, 7009, Note_on_c, 6, 72, 64
4, 7105, Note_off_c, 6, 65, 0
4, 7105, Note_on_c, 6, 64, 44
4, 7201, Note_off_c, 6, 72, 0
4, 7201, Note_on_c, 6, 74, 61
4, 7249, Note_off_c, 6, 74, 0
4, 7249, Note_on_c, 6, 76, 46
4, 7297, Note_off_c, 6, 64, 0
4, 7297, Note_off_c, 6, 76, 0
4, 7297, Note_on_c, 6, 62, 47
4, 7297, Note_on_c, 6, 77, 58
4, 7489, Note_off_c, 6, 62, 0
4, 7489, Note_on_c, 6, 60, 47
4, 7537, Note_off_c, 6, 77, 0
4, 7537, Note_on_c, 6, 79, 50
4, 7585, Note_off_c, 6, 79, 0
4, 7585, Note_on_c, 6, 81, 42
4, 7633, Note_off_c, 6, 81, 0
4, 7633, Note_on_c, 6, 83, 50
4, 7657, Note_off_c, 6, 83, 0
4, 7657, Note_on_c, 6, 84, 54
4, 7681, Note_off_c, 6, 60, 0
4, 7681, Note_off_c, 6, 84, 0
4, 7681, Note_on_c, 6, 67, 47
4, 7681, Note_on_c, 6, 83, 61
4, 7777, Note_off_c, 6, 83, 0
4, 7777, Note_on_c, 6, 74, 64
4, 7873, Note_off_c, 6, 67, 0
4, 7873, Note_on_c, 6, 65, 48
4, 7969, Note_off_c, 6, 74, 0
4, 7969, Note_on_c, 6, 76, 56
4, 8017, Note_off_c, 6, 76, 0
4, 8017, Note_on_c, 6, 77, 52
4, 8065, Note_off_c, 6, 65, 0
4, 8065, Note_off_c, 6, 77, 0
4, 8065, Note_on_c, 6, 64, 44
4, 8065, Note_on_c, 6, 79, 58
4, 8257, Note_off_c, 6, 64, 0
4, 8257, Note_on_c, 6, 62, 45
4, 8305, Note_off_c, 6, 79, 0
4, 8305, Note_on_c, 6, 83, 56
4, 8353, Note_off_c, 6, 83, 0
4, 8353, Note_on_c, 6, 84, 56
4, 8401, Note_off_c, 6, 84, 0
4, 8401, Note_on_c, 6, 86, 52
4, 8449, Note_off_c, 6, 62, 0
4, 8449, Note_off_c, 6, 86, 0
4, 8449, Note_on_c, 6, 72, 56
4, 8449, Note_on_c, 6, 88, 56
4, 8497, Note_off_c, 6, 88, 0
4, 8497, Note_on_c, 6, 86, 54
4, 8545, Note_off_c, 6, 86, 0
4, 8545, Note_on_c, 6, 88, 52
4, 8593, Note_off_c, 6, 88, 0
4, 8593, Note_on_c, 6, 91, 43
4, 8641, Note_off_c, 6, 72, 0
4, 8641, Note_off_c, 6, 91, 0
4, 8641, Note_on_c, 6, 71, 52
4, 8641, Note_on_c, 6, 86, 50
4, 8689, Note_off_c, 6, 86, 0
4, 8689, Note_on_c, 6, 84, 54
4, 8737, Note_off_c, 6, 84, 0
4, 8737, Note_on_c, 6, 86, 56
4, 8785, Note_off_c, 6, 86, 0
4, 8785, Note_on_c, 6, 91, 46
4, 8833, Note_off_c, 6, 71, 0
4, 8833, Note_off_c, 6, 91, 0
4, 8833, Note_on_c, 6, 69, 48
4, 8833, Note_on_c, 6, 84, 54
4, 8881, Note_off_c, 6, 84, 0
4, 8881, Note_on_c, 6, 83, 48
4, 8929, Note_off_c, 6, 83, 0
4, 8929, Note_on_c, 6, 84, 50
4, 8977, Note_off_c, 6, 84, 0
4, 8977, Note_on_c, 6, 88, 39
4, 9025, Note_off_c, 6, 69, 0
4, 9025, Note_off_c, 6, 88, 0
4, 9025, Note_on_c, 6, 67, 48
4, 9025, Note_on_c, 6, 83, 50
4, 9073, Note_off_c, 6, 83, 0
4, 9073, Note_on_c, 6, 81, 43
4, 9121, Note_off_c, 6, 81, 0
4, 9121, Note_on_c, 6, 83, 58
4, 9169, Note_off_c, 6, 83, 0
4, 9169, Note_on_c, 6, 79, 61
4, 9217, Note_off_c, 6, 67, 0
4, 9217, Note_off_c, 6, 79, 0
4, 9217, Note_on_c, 6, 65, 47
4, 9217, Note_on_c, 6, 81, 56
4, 9409, Note_off_c, 6, 65, 0
4, 9409, Note_on_c, 6, 64, 44
4, 9504, Note_on_c, 6, 83, 61
4, 9505, Note_off_c, 6, 81, 0
4, 9547, Note_on_c, 6, 84, 50
4, 9552, Note_off_c, 6, 83, 0
4, 9595, Note_off_c, 6, 84, 0
4, 9600, Control_c, 6, 1, 0
4, 9600, Note_on_c, 6, 81, 64
4, 9600, Note_on_c, 6, 86, 58
4, 9601, Note_off_c, 6, 64, 0
4, 9601, Note_on_c, 6, 89, 52
4, 9644, Control_c, 6, 1, 100
4, 9792, Note_off_c, 6, 81, 0
4, 9792, Note_off_c, 6, 86, 0
4, 9793, Note_off_c, 6, 89, 0
4, 9794, Note_on_c, 6, 79, 58
4, 9794, Note_on_c, 6, 83, 61
4, 9795, Note_on_c, 6, 86, 58
4, 9795, Note_on_c, 6, 89, 54
4, 9842, Note_off_c, 6, 79, 0
4, 9842, Note_off_c, 6, 83, 0
4, 9843, Note_off_c, 6, 86, 0
4, 9843, Note_off_c, 6, 89, 0
4, 9848, Note_on_c, 6, 77, 38
4, 9852, Note_on_c, 6, 76, 28
4, 9854, Note_off_c, 6, 77, 0
4, 9857, Note_on_c, 6, 74, 39
4, 9858, Note_off_c, 6, 76, 0
4, 9863, Note_off_c, 6, 74, 0
4, 9864, Note_on_c, 6, 72, 35
4, 9868, Note_on_c, 6, 71, 34
4, 9870, Note_off_c, 6, 72, 0
4, 9873, Note_on_c, 6, 69, 36
4, 9874, Note_off_c, 6, 71, 0
4, 9877, Note_on_c, 6, 67, 38
4, 9879, Note_off_c, 6, 69, 0
4, 9880, Note_on_c, 6, 65, 40
4, 9883, Note_off_c, 6, 67, 0
4, 9884, Note_on_c, 6, 64, 39
4, 9886, Note_off_c, 6, 65, 0
4, 9887, Note_on_c, 6, 62, 42
4, 9890, Note_off_c, 6, 64, 0
4, 9891, Note_on_c, 6, 60, 43
4, 9893, Note_off_c, 6, 62, 0
4, 9894, Note_on_c, 6, 59, 42
4, 9897, Note_off_c, 6, 60, 0
4, 9897, Note_on_c, 6, 57, 42
4, 9900, Note_off_c, 6, 59, 0
4, 9900, Note_on_c, 6, 55, 44
4, 9903, Note_off_c, 6, 57, 0
4, 9904, Note_on_c, 6, 53, 42
4, 9906, Note_off_c, 6, 55, 0
4, 9907, Note_on_c, 6, 52, 44
4, 9910, Note_off_c, 6, 53, 0
4, 9910, Note_on_c, 6, 50, 50
4, 9913, Note_off_c, 6, 52, 0
4, 9913, Note_on_c, 6, 48, 54
4, 9916, Note_off_c, 6, 50, 0
4, 9917, Note_on_c, 6, 47, 46
4, 9919, Note_off_c, 6, 48, 0
4, 9923, Note_off_c, 6, 47, 0
4, 9933, Note_on_c, 6, 45, 46
4, 9934, Note_on_c, 6, 47, 40
4, 9937, Note_on_c, 6, 48, 25
4, 9939, Note_off_c, 6, 45, 0
4, 9940, Note_off_c, 6, 47, 0
4, 9943, Note_off_c, 6, 48, 0
4, 9943, Note_on_c, 6, 50, 13
4, 9947, Note_on_c, 6, 52, 26
4, 9949, Note_off_c, 6, 50, 0
4, 9950, Note_on_c, 6, 53, 36
4, 9953, Note_off_c, 6, 52, 0
4, 9954, Note_on_c, 6, 55, 40
4, 9956, Note_off_c, 6, 53, 0
4, 9956, Note_on_c, 6, 57, 40
4, 9959, Note_on_c, 6, 59, 42
4, 9960, Note_off_c, 6, 55, 0
4, 9962, Note_off_c, 6, 57, 0
4, 9962, Note_on_c, 6, 60, 42
4, 9965, Note_off_c, 6, 59, 0
4, 9965, Note_on_c, 6, 62, 43
4, 9967, Note_on_c, 6, 64, 42
4, 9968, Note_off_c, 6, 60, 0
4, 9970, Note_on_c, 6, 65, 40
4, 9971, Note_off_c, 6, 62, 0
4, 9973, Note_off_c, 6, 64, 0
4, 9973, Note_on_c, 6, 67, 42
4, 9975, Note_on_c, 6, 69, 42
4, 9976, Note_off_c, 6, 65, 0
4, 9978, Note_on_c, 6, 71, 48
4, 9979, Note_off_c, 6, 67, 0
4, 9980, Note_on_c, 6, 72, 50
4, 9981, Note_off_c, 6, 69, 0
4, 9984, Note_off_c, 6, 71, 0
4, 9986, Note_off_c, 6, 72, 0
4, 9988, Note_on_c, 6, 84, 58
4, 9988, Note_on_c, 6, 79, 56
4, 9989, Note_on_c, 6, 88, 45
4, 10061, Control_c, 6, 1, 58
4, 10177, Note_on_c, 6, 83, 61
4, 10180, Note_off_c, 6, 84, 0
4, 10348, Note_off_c, 6, 79, 0
4, 10369, Note_off_c, 6, 83, 0
4, 10370, Note_on_c, 6, 84, 56
4, 10371, Note_on_c, 6, 81, 61
4, 10552, Control_c, 6, 1, 41
4, 10561, Note_on_c, 6, 79, 61
4, 10563, Note_off_c, 6, 81, 0
4, 10729, Note_off_c, 6, 79, 0
4, 10733, Note_off_c, 6, 88, 0
4, 10752, Note_off_c, 6, 84, 0
4, 10752, Note_on_c, 6, 84, 42
4, 10753, Note_on_c, 6, 81, 58
4, 10754, Note_on_c, 6, 77, 58
4, 10922, Note_off_c, 6, 77, 0
4, 10943, Note_on_c, 6, 76, 52
4, 11132, Note_off_c, 6, 84, 0
4, 11135, Note_off_c, 6, 76, 0
4, 11137, Note_off_c, 6, 81, 0
4, 11138, Note_on_c, 6, 81, 56
4, 11139, Note_on_c, 6, 74, 61
4, 11139, Note_on_c, 6, 77, 61
4, 11330, Note_on_c, 6, 72, 64
4, 11331, Note_off_c, 6, 74, 0
4, 11373, Control_c, 6, 1, 30
4, 11447, Control_c, 6, 1, 0
4, 11521, Note_on_c, 6, 74, 58
4, 11521, Note_on_c, 6, 79, 50
4, 11522, Note_off_c, 6, 72, 0
4, 11522, Note_off_c, 6, 81, 0
4, 11522, Note_on_c, 6, 71, 54
4, 11523, Note_off_c, 6, 77, 0
4, 11713, Note_off_c, 6, 79, 0
4, 11713, Note_on_c, 6, 77, 50
4, 11811, Control_c, 6, 1, 34
4, 11881, Note_off_c, 6, 74, 0
4, 11881, Note_off_c, 6, 77, 0
4, 11906, Note_on_c, 6, 67, 54
4, 11907, Note_on_c, 6, 76, 38
4, 12098, Note_on_c, 6, 74, 56
4, 12099, Note_off_c, 6, 76, 0
4, 12289, Note_on_c, 6, 72, 69
4, 12290, Note_off_c, 6, 71, 0
4, 12290, Note_off_c, 6, 74, 0
4, 12433, Note_on_c, 6, 74, 54
4, 12457, Note_off_c, 6, 74, 0
4, 12457, Note_on_c, 6, 76, 56
4, 12481, Note_off_c, 6, 76, 0
4, 12481, Note_on_c, 6, 69, 58
4, 12481, Note_on_c, 6, 77, 66
4, 12482, Note_off_c, 6, 67, 0
4, 12649, Note_off_c, 6, 69, 0
4, 12673, Note_off_c, 6, 77, 0
4, 12673, Note_on_c, 6, 67, 54
4, 12673, Note_on_c, 6, 76, 46
4, 12841, Note_off_c, 6, 72, 0
4, 12865, Note_off_c, 6, 76, 0
4, 12865, Note_on_c, 6, 72, 56
4, 12865, Note_on_c, 6, 74, 61
4, 12959, Control_c, 6, 1, 61
4, 12961, Note_off_c, 6, 72, 0
4, 12961, Note_on_c, 6, 71, 54
4, 13056, Control_c, 6, 1, 56
4, 13057, Note_off_c, 6, 67, 0
4, 13057, Note_off_c, 6, 71, 0
4, 13057, Note_off_c, 6, 74, 0
4, 13057, Note_on_c, 6, 72, 62
4, 13057, Note_on_c, 6, 76, 84
4, 13206, Control_c, 6, 1, 32
4, 13249, Note_off_c, 6, 72, 0
4, 13249, Note_on_c, 6, 71, 58
4, 13441, Note_off_c, 6, 71, 0
4, 13441, Note_on_c, 6, 69, 55
4, 13489, Note_off_c, 6, 76, 0
4, 13489, Note_on_c, 6, 74, 78
4, 13537, Note_off_c, 6, 74, 0
4, 13537, Note_on_c, 6, 72, 70
4, 13585, Note_off_c, 6, 72, 0
4, 13585, Note_on_c, 6, 71, 71
4, 13633, Note_off_c, 6, 69, 0
4, 13633, Note_off_c, 6, 71, 0
4, 13633, Note_on_c, 6, 67, 54
4, 13633, Note_on_c, 6, 72, 76
4, 13681, Note_off_c, 6, 72, 0
4, 13681, Note_on_c, 6, 74, 66
4, 13729, Note_off_c, 6, 74, 0
4, 13729, Note_on_c, 6, 76, 60
4, 13777, Note_off_c, 6, 76, 0
4, 13777, Note_on_c, 6, 72, 64
4, 13820, Note_on_c, 6, 80, 52
4, 13825, Note_off_c, 6, 67, 0
4, 13825, Note_off_c, 6, 72, 0
4, 13825, Note_on_c, 6, 65, 54
4, 13825, Note_on_c, 6, 81, 75
4, 13828, Note_off_c, 6, 80, 0
4, 14017, Note_off_c, 6, 65, 0
4, 14017, Note_on_c, 6, 64, 51
4, 14113, Note_off_c, 6, 81, 0
4, 14113, Note_on_c, 6, 83, 73
4, 14161, Note_off_c, 6, 83, 0
4, 14161, Note_on_c, 6, 84, 56
4, 14209, Note_off_c, 6, 64, 0
4, 14209, Note_off_c, 6, 84, 0
4, 14209, Note_on_c, 6, 62, 54
4, 14210, Note_on_c, 6, 77, 73
4, 14232, Note_on_c, 6, 76, 59
4, 14234, Note_off_c, 6, 77, 0
4, 14255, Note_on_c, 6, 77, 71
4, 14256, Note_off_c, 6, 76, 0
4, 14401, Note_off_c, 6, 62, 0
4, 14401, Note_on_c, 6, 60, 54
4, 14495, Note_off_c, 6, 77, 0
4, 14497, Note_on_c, 6, 74, 70
4, 14586, Note_on_c, 6, 82, 58
4, 14593, Note_off_c, 6, 60, 0
4, 14593, Note_off_c, 6, 74, 0
4, 14593, Note_on_c, 6, 67, 54
4, 14593, Note_on_c, 6, 83, 71
4, 14599, Note_off_c, 6, 82, 0
4, 14785, Note_off_c, 6, 67, 0
4, 14785, Note_on_c, 6, 65, 54
4, 14881, Note_off_c, 6, 83, 0
4, 14881, Note_on_c, 6, 84, 68
4, 14929, Note_off_c, 6, 84, 0
4, 14929, Note_on_c, 6, 86, 57
4, 14977, Note_off_c, 6, 65, 0
4, 14977, Note_off_c, 6, 86, 0
4, 14977, Note_on_c, 6, 64, 51
4, 14977, Note_on_c, 6, 79, 59
4, 15001, Note_off_c, 6, 79, 0
4, 15001, Note_on_c, 6, 77, 62
4, 15025, Note_off_c, 6, 77, 0
4, 15025, Note_on_c, 6, 79, 68
4, 15169, Note_off_c, 6, 64, 0
4, 15169, Note_on_c, 6, 62, 52
4, 15217, Note_off_c, 6, 79, 0
4, 15217, Note_on_c, 6, 77, 70
4, 15265, Note_off_c, 6, 77, 0
4, 15265, Note_on_c, 6, 76, 66
4, 15313, Note_off_c, 6, 76, 0
4, 15313, Note_on_c, 6, 77, 70
4, 15361, Note_off_c, 6, 62, 0
4, 15361, Note_off_c, 6, 77, 0
4, 15361, Note_on_c, 6, 60, 55
4, 15361, Note_on_c, 6, 77, 73
4, 15409, Note_off_c, 6, 77, 0
4, 15409, Note_on_c, 6, 76, 70
4, 15457, Note_off_c, 6, 76, 0
4, 15457, Note_on_c, 6, 74, 68
4, 15505, Note_off_c, 6, 74, 0
4, 15505, Note_on_c, 6, 72, 70
4, 15553, Note_off_c, 6, 60, 0
4, 15553, Note_off_c, 6, 72, 0
4, 15553, Note_on_c, 6, 65, 58
4, 15553, Note_on_c, 6, 81, 64
4, 15601, Note_on_c, 6, 69, 59
4, 15649, Note_off_c, 6, 69, 0
4, 15649, Note_on_c, 6, 71, 56
4, 15697, Note_off_c, 6, 71, 0
4, 15697, Note_on_c, 6, 72, 52
4, 15745, Note_off_c, 6, 65, 0
4, 15745, Note_off_c, 6, 72, 0
4, 15745, Note_off_c, 6, 81, 0
4, 15745, Note_on_c, 6, 67, 57
4, 15745, Note_on_c, 6, 79, 68
4, 15793, Note_on_c, 6, 71, 55
4, 15841, Note_off_c, 6, 71, 0
4, 15841, Note_on_c, 6, 72, 56
4, 15889, Note_off_c, 6, 72, 0
4, 15889, Note_on_c, 6, 74, 52
4, 15913, Note_off_c, 6, 67, 0
4, 15937, Note_off_c, 6, 79, 0
4, 15937, Note_off_c, 6, 74, 0
4, 15937, Note_on_c, 6, 65, 54
4, 15937, Note_on_c, 6, 67, 54
4, 15937, Note_on_c, 6, 71, 54
4, 15937, Note_on_c, 6, 74, 52
4, 15937, Note_on_c, 6, 77, 68
4, 15982, Control_c, 6, 1, 52
4, 15985, Note_off_c, 6, 77, 0
4, 15985, Note_on_c, 6, 76, 60
4, 16032, Control_c, 6, 1, 75
4, 16033, Note_off_c, 6, 76, 0
4, 16033, Note_on_c, 6, 77, 64
4, 16079, Control_c, 6, 1, 105
4, 16081, Note_off_c, 6, 74, 0
4, 16081, Note_off_c, 6, 77, 0
4, 16081, Note_on_c, 6, 74, 62
4, 16128, Control_c, 6, 1, 44
4, 16129, Note_off_c, 6, 65, 0
4, 16129, Note_off_c, 6, 67, 0
4, 16129, Note_off_c, 6, 71, 0
4, 16129, Note_off_c, 6, 74, 0
4, 16129, Note_on_c, 6, 72, 46
4, 16129, Note_on_c, 6, 76, 54
4, 16321, Note_off_c, 6, 72, 0
4, 16321, Note_on_c, 6, 71, 52
4, 16513, Note_off_c, 6, 71, 0
4, 16513, Note_off_c, 6, 76, 0
4, 16513, Note_on_c, 6, 69, 48
4, 16513, Note_on_c, 6, 72, 61
4, 16705, Note_off_c, 6, 69, 0
4, 16705, Note_on_c, 6, 67, 48
4, 16897, Note_off_c, 6, 67, 0
4, 16897, Note_off_c, 6, 72, 0
4, 16897, Note_on_c, 6, 65, 47
4, 16897, Note_on_c, 6, 69, 56
4, 17089, Note_off_c, 6, 65, 0
4, 17089, Note_on_c, 6, 64, 44
4, 17281, Note_off_c, 6, 64, 0
4, 17281, Note_off_c, 6, 69, 0
4, 17281, Note_on_c, 6, 62, 47
4, 17281, Note_on_c, 6, 65, 58
4, 17449, Note_off_c, 6, 65, 0
4, 17473, Note_off_c, 6, 62, 0
4, 17473, Note_on_c, 6, 60, 47
4, 17473, Note_on_c, 6, 65, 64
4, 17521, Note_off_c, 6, 65, 0
4, 17521, Note_on_c, 6, 67, 58
4, 17569, Note_off_c, 6, 67, 0
4, 17569, Note_on_c, 6, 69, 61
4, 17617, Note_off_c, 6, 69, 0
4, 17617, Note_on_c, 6, 71, 54
4, 17641, Note_off_c, 6, 71, 0
4, 17641, Note_on_c, 6, 72, 56
4, 17665, Note_off_c, 6, 60, 0
4, 17665, Note_off_c, 6, 72, 0
4, 17665, Note_on_c, 6, 67, 47
4, 17665, Note_on_c, 6, 71, 74
4, 17857, Note_off_c, 6, 67, 0
4, 17857, Note_on_c, 6, 65, 48
4, 18049, Note_off_c, 6, 65, 0
4, 18049, Note_off_c, 6, 71, 0
4, 18049, Note_on_c, 6, 64, 44
4, 18049, Note_on_c, 6, 67, 66
4, 18217, Note_off_c, 6, 67, 0
4, 18241, Note_off_c, 6, 64, 0
4, 18241, Note_on_c, 6, 62, 45
4, 18241, Note_on_c, 6, 67, 61
4, 18289, Note_off_c, 6, 67, 0
4, 18289, Note_on_c, 6, 69, 57
4, 18337, Note_off_c, 6, 69, 0
4, 18337, Note_on_c, 6, 71, 51
4, 18361, Note_off_c, 6, 71, 0
4, 18361, Note_on_c, 6, 72, 50
4, 18385, Note_off_c, 6, 72, 0
4, 18385, Note_on_c, 6, 74, 61
4, 18433, Note_off_c, 6, 62, 0
4, 18433, Note_off_c, 6, 74, 0
4, 18433, Note_on_c, 6, 72, 56
4, 18433, Note_on_c, 6, 76, 61
4, 18625, Note_off_c, 6, 72, 0
4, 18625, Note_on_c, 6, 71, 52
4, 18721, Note_off_c, 6, 76, 0
4, 18721, Note_on_c, 6, 77, 56
4, 18769, Note_off_c, 6, 77, 0
4, 18769, Note_on_c, 6, 79, 52
4, 18817, Note_off_c, 6, 71, 0
4, 18817, Note_off_c, 6, 79, 0
4, 18817, Note_on_c, 6, 69, 48
4, 18817, Note_on_c, 6, 84, 50
4, 19009, Note_off_c, 6, 69, 0
4, 19009, Note_off_c, 6, 84, 0
4, 19009, Note_on_c, 6, 67, 48
4, 19009, Note_on_c, 6, 83, 56
4, 19105, Note_off_c, 6, 83, 0
4, 19105, Note_on_c, 6, 79, 56
4, 19201, Note_off_c, 6, 67, 0
4, 19201, Note_off_c, 6, 79, 0
4, 19201, Note_on_c, 6, 65, 47
4, 19201, Note_on_c, 6, 81, 52
4, 19297, Note_off_c, 6, 81, 0
4, 19297, Note_on_c, 6, 72, 64
4, 19393, Note_off_c, 6, 65, 0
4, 19393, Note_on_c, 6, 64, 44
4, 19489, Note_off_c, 6, 72, 0
4, 19489, Note_on_c, 6, 74, 61
4, 19537, Note_off_c, 6, 74, 0
4, 19537, Note_on_c, 6, 76, 46
4, 19585, Note_off_c, 6, 64, 0
4, 19585, Note_off_c, 6, 76, 0
4, 19585, Note_on_c, 6, 62, 47
4, 19585, Note_on_c, 6, 77, 58
4, 19777, Note_off_c, 6, 62, 0
4, 19777, Note_on_c, 6, 60, 47
4, 19825, Note_off_c, 6, 77, 0
4, 19825, Note_on_c, 6, 79, 50
4, 19873, Note_off_c, 6, 79, 0
4, 19873, Note_on_c, 6, 81, 42
4, 19921, Note_off_c, 6, 81, 0
4, 19921, Note_on_c, 6, 83, 50
4, 19945, Note_off_c, 6, 83, 0
4, 19945, Note_on_c, 6, 84, 54
4, 19969, Note_off_c, 6, 60, 0
4, 19969, Note_off_c, 6, 84, 0
4, 19969, Note_on_c, 6, 67, 47
4, 19969, Note_on_c, 6, 83, 61
4, 20065, Note_off_c, 6, 83, 0
4, 20065, Note_on_c, 6, 74, 64
4, 20161, Note_off_c, 6, 67, 0
4, 20161, Note_on_c, 6, 65, 48
4, 20257, Note_off_c, 6, 74, 0
4, 20257, Note_on_c, 6, 76, 56
4, 20305, Note_off_c, 6, 76, 0
4, 20305, Note_on_c, 6, 77, 52
4, 20353, Note_off_c, 6, 65, 0
4, 20353, Note_off_c, 6, 77, 0
4, 20353, Note_on_c, 6, 64, 44
4, 20353, Note_on_c, 6, 79, 58
4, 20545, Note_off_c, 6, 64, 0
4, 20545, Note_on_c, 6, 62, 45
4, 20593, Note_off_c, 6, 79, 0
4, 20593, Note_on_c, 6, 83, 56
4, 20641, Note_off_c, 6, 83, 0
4, 20641, Note_on_c, 6, 84, 56
4, 20689, Note_off_c, 6, 84, 0
4, 20689, Note_on_c, 6, 86, 52
4, 20737, Note_off_c, 6, 62, 0
4, 20737, Note_off_c, 6, 86, 0
4, 20737, Note_on_c, 6, 72, 56
4, 20741, Note_on_c, 6, 88, 56
4, 20787, Note_on_c, 6, 86, 54
4, 20789, Note_off_c, 6, 88, 0
4, 20833, Note_on_c, 6, 88, 52
4, 20835, Note_off_c, 6, 86, 0
4, 20881, Note_off_c, 6, 88, 0
4, 20886, Note_on_c, 6, 91, 43
4, 20929, Note_off_c, 6, 72, 0
4, 20929, Note_on_c, 6, 71, 52
4, 20931, Note_on_c, 6, 86, 50
4, 20934, Note_off_c, 6, 91, 0
4, 20975, Note_on_c, 6, 84, 54
4, 20979, Note_off_c, 6, 86, 0
4, 21023, Note_off_c, 6, 84, 0
4, 21024, Note_on_c, 6, 86, 56
4, 21070, Note_on_c, 6, 91, 46
4, 21072, Note_off_c, 6, 86, 0
4, 21118, Note_off_c, 6, 91, 0
4, 21120, Note_on_c, 6, 84, 54
4, 21121, Note_off_c, 6, 71, 0
4, 21121, Note_on_c, 6, 69, 48
4, 21166, Note_on_c, 6, 83, 48
4, 21168, Note_off_c, 6, 84, 0
4, 21214, Note_off_c, 6, 83, 0
4, 21214, Note_on_c, 6, 84, 50
4, 21262, Note_off_c, 6, 84, 0
4, 21264, Note_on_c, 6, 88, 39
4, 21312, Note_off_c, 6, 88, 0
4, 21313, Note_off_c, 6, 69, 0
4, 21313, Note_on_c, 6, 67, 48
4, 21314, Note_on_c, 6, 83, 50
4, 21360, Note_on_c, 6, 81, 43
4, 21362, Note_off_c, 6, 83, 0
4, 21408, Note_off_c, 6, 81, 0
4, 21408, Note_on_c, 6, 83, 58
4, 21456, Note_off_c, 6, 83, 0
4, 21456, Note_on_c, 6, 79, 61
4, 21504, Note_off_c, 6, 79, 0
4, 21504, Note_on_c, 6, 81, 56
4, 21505, Note_off_c, 6, 67, 0
4, 21505, Note_on_c, 6, 65, 47
4, 21697, Note_off_c, 6, 65, 0
4, 21697, Note_on_c, 6, 64, 44
4, 21792, Note_off_c, 6, 81, 0
4, 21792, Note_on_c, 6, 83, 61
4, 21835, Note_on_c, 6, 84, 50
4, 21840, Note_off_c, 6, 83, 0
4, 21883, Note_off_c, 6, 84, 0
4, 21888, Note_on_c, 6, 81, 64
4, 21888, Note_on_c, 6, 86, 58
4, 21889, Note_off_c, 6, 64, 0
4, 21889, Note_on_c, 6, 89, 52
4, 21929, Control_c, 6, 1, 50
4, 22027, Control_c, 6, 1, 109
4, 22072, Control_c, 6, 1, 127
4, 22080, Note_off_c, 6, 81, 0
4, 22080, Note_off_c, 6, 86, 0
4, 22081, Note_off_c, 6, 89, 0
4, 22082, Note_on_c, 6, 79, 58
4, 22082, Note_on_c, 6, 83, 61
4, 22083, Note_on_c, 6, 86, 58
4, 22083, Note_on_c, 6, 89, 54
4, 22130, Note_off_c, 6, 79, 0
4, 22130, Note_off_c, 6, 83, 0
4, 22131, Note_off_c, 6, 86, 0
4, 22131, Note_off_c, 6, 89, 0
4, 22136, Note_on_c, 6, 77, 38
4, 22140, Note_on_c, 6, 76, 28
4, 22142, Note_off_c, 6, 77, 0
4, 22145, Note_on_c, 6, 74, 39
4, 22146, Note_off_c, 6, 76, 0
4, 22151, Note_off_c, 6, 74, 0
4, 22152, Note_on_c, 6, 72, 35
4, 22156, Note_on_c, 6, 71, 34
4, 22158, Note_off_c, 6, 72, 0
4, 22161, Note_on_c, 6, 69, 36
4, 22162, Note_off_c, 6, 71, 0
4, 22165, Note_on_c, 6, 67, 38
4, 22167, Note_off_c, 6, 69, 0
4, 22168, Note_on_c, 6, 65, 40
4, 22171, Note_off_c, 6, 67, 0
4, 22172, Note_on_c, 6, 64, 39
4, 22174, Note_off_c, 6, 65, 0
4, 22175, Note_on_c, 6, 62, 42
4, 22178, Note_off_c, 6, 64, 0
4, 22179, Note_on_c, 6, 60, 43
4, 22181, Note_off_c, 6, 62, 0
4, 22182, Note_on_c, 6, 59, 42
4, 22185, Note_off_c, 6, 60, 0
4, 22185, Note_on_c, 6, 57, 42
4, 22188, Note_off_c, 6, 59, 0
4, 22188, Note_on_c, 6, 55, 44
4, 22191, Note_off_c, 6, 57, 0
4, 22192, Note_on_c, 6, 53, 42
4, 22194, Note_off_c, 6, 55, 0
4, 22195, Note_on_c, 6, 52, 44
4, 22198, Note_off_c, 6, 53, 0
4, 22198, Note_on_c, 6, 50, 50
4, 22201, Note_off_c, 6, 52, 0
4, 22201, Note_on_c, 6, 48, 54
4, 22204, Note_off_c, 6, 50, 0
4, 22205, Note_on_c, 6, 47, 46
4, 22207, Note_off_c, 6, 48, 0
4, 22211, Note_off_c, 6, 47, 0
4, 22221, Note_on_c, 6, 45, 46
4, 22222, Note_on_c, 6, 47, 40
4, 22225, Note_on_c, 6, 48, 25
4, 22227, Note_off_c, 6, 45, 0
4, 22228, Note_off_c, 6, 47, 0
4, 22231, Note_off_c, 6, 48, 0
4, 22231, Note_on_c, 6, 50, 13
4, 22235, Note_on_c, 6, 52, 26
4, 22237, Note_off_c, 6, 50, 0
4, 22238, Note_on_c, 6, 53, 36
4, 22241, Note_off_c, 6, 52, 0
4, 22242, Note_on_c, 6, 55, 40
4, 22244, Note_off_c, 6, 53, 0
4, 22244, Note_on_c, 6, 57, 40
4, 22247, Note_on_c, 6, 59, 42
4, 22248, Note_off_c, 6, 55, 0
4, 22250, Note_off_c, 6, 57, 0
4, 22250, Note_on_c, 6, 60, 42
4, 22253, Note_off_c, 6, 59, 0
4, 22253, Note_on_c, 6, 62, 43
4, 22255, Note_on_c, 6, 64, 42
4, 22256, Note_off_c, 6, 60, 0
4, 22258, Note_on_c, 6, 65, 40
4, 22259, Note_off_c, 6, 62, 0
4, 22261, Note_off_c, 6, 64, 0
4, 22261, Note_on_c, 6, 67, 42
4, 22263, Note_on_c, 6, 69, 42
4, 22264, Note_off_c, 6, 65, 0
4, 22266, Note_on_c, 6, 71, 48
4, 22267, Note_off_c, 6, 67, 0
4, 22268, Note_on_c, 6, 72, 50
4, 22269, Note_off_c, 6, 69, 0
4, 22272, Note_off_c, 6, 71, 0
4, 22272, Control_c, 6, 1, 0
4, 22276, Note_on_c, 6, 84, 58
4, 22276, Note_on_c, 6, 79, 56
4, 22277, Note_on_c, 6, 88, 45
4, 22278, Note_off_c, 6, 72, 0
4, 22350, Control_c, 6, 1, 50
4, 22465, Note_on_c, 6, 83, 61
4, 22468, Note_off_c, 6, 84, 0
4, 22636, Note_off_c, 6, 79, 0
4, 22657, Note_off_c, 6, 83, 0
4, 22658, Note_on_c, 6, 84, 56
4, 22659, Note_on_c, 6, 81, 61
4, 22750, Control_c, 6, 1, 60
4, 22840, Control_c, 6, 1, 41
4, 22849, Note_on_c, 6, 79, 61
4, 22851, Note_off_c, 6, 81, 0
4, 23017, Note_off_c, 6, 79, 0
4, 23021, Note_off_c, 6, 88, 0
4, 23038, Control_c, 6, 1, 22
4, 23040, Note_off_c, 6, 84, 0
4, 23040, Note_on_c, 6, 84, 42
4, 23041, Note_on_c, 6, 81, 58
4, 23042, Note_on_c, 6, 77, 58
4, 23210, Note_off_c, 6, 77, 0
4, 23231, Note_on_c, 6, 76, 52
4, 23420, Note_off_c, 6, 84, 0
4, 23423, Note_off_c, 6, 76, 0
4, 23425, Note_off_c, 6, 81, 0
4, 23426, Note_on_c, 6, 81, 56
4, 23427, Note_on_c, 6, 74, 61
4, 23427, Note_on_c, 6, 77, 61
4, 23618, Note_on_c, 6, 72, 64
4, 23619, Note_off_c, 6, 74, 0
4, 23735, Control_c, 6, 1, 0
4, 23809, Note_on_c, 6, 74, 58
4, 23809, Note_on_c, 6, 79, 50
4, 23810, Note_off_c, 6, 72, 0
4, 23810, Note_off_c, 6, 81, 0
4, 23810, Note_on_c, 6, 71, 54
4, 23811, Note_off_c, 6, 77, 0
4, 24001, Note_off_c, 6, 79, 0
4, 24001, Note_on_c, 6, 77, 50
4, 24169, Note_off_c, 6, 74, 0
4, 24169, Note_off_c, 6, 77, 0
4, 24194, Note_on_c, 6, 67, 54
4, 24195, Note_on_c, 6, 76, 38
4, 24386, Note_off_c, 6, 67, 0
4, 24386, Note_on_c, 6, 67, 52
4, 24386, Note_on_c, 6, 74, 56
4, 24387, Note_off_c, 6, 76, 0
4, 24536, Control_c, 6, 1, 24
4, 24574, Note_off_c, 6, 67, 0
4, 24577, Note_on_c, 6, 67, 61
4, 24577, Note_on_c, 6, 72, 69
4, 24578, Note_off_c, 6, 71, 0
4, 24578, Note_off_c, 6, 74, 0
4, 24721, Note_on_c, 6, 74, 54
4, 24745, Note_off_c, 6, 74, 0
4, 24745, Note_on_c, 6, 76, 56
4, 24769, Note_off_c, 6, 67, 0
4, 24769, Note_off_c, 6, 76, 0
4, 24769, Note_on_c, 6, 69, 58
4, 24769, Note_on_c, 6, 77, 66
4, 24937, Note_off_c, 6, 69, 0
4, 24961, Note_off_c, 6, 77, 0
4, 24961, Note_on_c, 6, 67, 54
4, 24961, Note_on_c, 6, 76, 46
4, 25129, Note_off_c, 6, 72, 0
4, 25152, Control_c, 6, 1, 26
4, 25153, Note_off_c, 6, 76, 0
4, 25153, Note_on_c, 6, 72, 56
4, 25153, Note_on_c, 6, 74, 61
4, 25248, Control_c, 6, 1, 77
4, 25249, Note_off_c, 6, 72, 0
4, 25249, Note_on_c, 6, 71, 54
4, 25345, Note_off_c, 6, 67, 0
4, 25345, Note_off_c, 6, 71, 0
4, 25345, Note_off_c, 6, 74, 0
4, 25345, Note_on_c, 6, 72, 62
4, 25345, Note_on_c, 6, 76, 78
4, 25468, Control_c, 6, 1, 35
4, 25537, Note_off_c, 6, 72, 0
4, 25537, Note_on_c, 6, 71, 58
4, 25729, Note_off_c, 6, 71, 0
4, 25729, Note_on_c, 6, 69, 55
4, 25777, Note_off_c, 6, 76, 0
4, 25777, Note_on_c, 6, 74, 78
4, 25825, Note_off_c, 6, 74, 0
4, 25825, Note_on_c, 6, 72, 70
4, 25873, Note_off_c, 6, 72, 0
4, 25873, Note_on_c, 6, 71, 71
4, 25921, Note_off_c, 6, 69, 0
4, 25921, Note_off_c, 6, 71, 0
4, 25921, Note_on_c, 6, 67, 54
4, 25921, Note_on_c, 6, 72, 76
4, 25969, Note_off_c, 6, 72, 0
4, 25969, Note_on_c, 6, 74, 66
4, 26017, Note_off_c, 6, 74, 0
4, 26017, Note_on_c, 6, 76, 60
4, 26065, Note_off_c, 6, 76, 0
4, 26065, Note_on_c, 6, 72, 64
4, 26113, Note_off_c, 6, 67, 0
4, 26113, Note_off_c, 6, 72, 0
4, 26113, Note_on_c, 6, 65, 54
4, 26113, Note_on_c, 6, 81, 75
4, 26305, Note_off_c, 6, 65, 0
4, 26305, Note_on_c, 6, 64, 51
4, 26377, Note_off_c, 6, 81, 0
4, 26401, Note_on_c, 6, 83, 73
4, 26449, Note_off_c, 6, 83, 0
4, 26449, Note_on_c, 6, 84, 56
4, 26497, Note_off_c, 6, 64, 0
4, 26497, Note_off_c, 6, 84, 0
4, 26497, Note_on_c, 6, 62, 54
4, 26497, Note_on_c, 6, 89, 73
4, 26519, Note_on_c, 6, 88, 59
4, 26521, Note_off_c, 6, 89, 0
4, 26541, Note_on_c, 6, 89, 71
4, 26543, Note_off_c, 6, 88, 0
4, 26685, Note_off_c, 6, 89, 0
4, 26689, Note_off_c, 6, 62, 0
4, 26689, Note_on_c, 6, 60, 54
4, 26689, Note_on_c, 6, 88, 62
4, 26737, Note_off_c, 6, 88, 0
4, 26740, Note_on_c, 6, 84, 59
4, 26782, Note_on_c, 6, 86, 65
4, 26788, Note_off_c, 6, 84, 0
4, 26827, Note_on_c, 6, 88, 52
4, 26830, Note_off_c, 6, 86, 0
4, 26875, Note_off_c, 6, 88, 0
4, 26881, Note_off_c, 6, 60, 0
4, 26881, Note_on_c, 6, 67, 54
4, 26881, Note_on_c, 6, 83, 62
4, 27073, Note_off_c, 6, 67, 0
4, 27073, Note_off_c, 6, 83, 0
4, 27073, Note_on_c, 6, 65, 54
4, 27169, Note_on_c, 6, 84, 68
4, 27217, Note_off_c, 6, 84, 0
4, 27217, Note_on_c, 6, 86, 57
4, 27265, Note_off_c, 6, 65, 0
4, 27265, Note_off_c, 6, 86, 0
4, 27265, Note_on_c, 6, 64, 51
4, 27265, Note_on_c, 6, 91, 52
4, 27289, Note_off_c, 6, 91, 0
4, 27289, Note_on_c, 6, 90, 46
4, 27309, Note_on_c, 6, 91, 52
4, 27313, Note_off_c, 6, 90, 0
4, 27457, Note_off_c, 6, 64, 0
4, 27457, Note_on_c, 6, 62, 52
4, 27501, Note_off_c, 6, 91, 0
4, 27507, Note_on_c, 6, 89, 62
4, 27555, Note_off_c, 6, 89, 0
4, 27555, Note_on_c, 6, 88, 55
4, 27601, Note_on_c, 6, 89, 57
4, 27603, Note_off_c, 6, 88, 0
4, 27649, Note_off_c, 6, 62, 0
4, 27649, Note_off_c, 6, 89, 0
4, 27649, Note_on_c, 6, 60, 55
4, 27649, Note_on_c, 6, 89, 57
4, 27701, Note_on_c, 6, 88, 57
4, 27742, Note_on_c, 6, 86, 57
4, 27749, Note_off_c, 6, 88, 0
4, 27790, Note_off_c, 6, 86, 0
4, 27790, Note_on_c, 6, 84, 59
4, 27841, Note_off_c, 6, 60, 0
4, 27841, Note_on_c, 6, 65, 58
4, 27888, Note_on_c, 6, 69, 62
4, 27936, Note_off_c, 6, 69, 0
4, 27937, Note_on_c, 6, 71, 68
4, 27985, Note_off_c, 6, 71, 0
4, 27988, Note_on_c, 6, 72, 76
4, 28012, Note_off_c, 6, 72, 0
4, 28033, Note_off_c, 6, 65, 0
4, 28033, Note_on_c, 6, 67, 50
4, 28033, Note_on_c, 6, 72, 64
4, 28054, Note_off_c, 6, 84, 0
4, 28081, Note_off_c, 6, 72, 0
4, 28081, Note_on_c, 6, 71, 56
4, 28127, Note_on_c, 6, 72, 61
4, 28129, Note_off_c, 6, 71, 0
4, 28173, Note_on_c, 6, 74, 61
4, 28175, Note_off_c, 6, 72, 0
4, 28201, Note_off_c, 6, 67, 0
4, 28221, Note_off_c, 6, 74, 0
4, 28221, Note_on_c, 6, 83, 77
4, 28222, Note_on_c, 6, 79, 77
4, 28222, Note_on_c, 6, 74, 66
4, 28235, Control_c, 6, 1, 60
4, 28269, Note_off_c, 6, 83, 0
4, 28269, Note_on_c, 6, 72, 54
4, 28270, Note_off_c, 6, 79, 0
4, 28270, Note_off_c, 6, 74, 0
4, 28275, Note_off_c, 6, 72, 0
4, 28278, Note_on_c, 6, 71, 48
4, 28284, Note_off_c, 6, 71, 0
4, 28285, Note_on_c, 6, 69, 58
4, 28291, Note_off_c, 6, 69, 0
4, 28291, Note_on_c, 6, 67, 54
4, 28297, Note_off_c, 6, 67, 0
4, 28301, Note_on_c, 6, 64, 49
4, 28307, Note_off_c, 6, 64, 0
4, 28307, Note_on_c, 6, 62, 47
4, 28311, Note_on_c, 6, 60, 46
4, 28313, Note_off_c, 6, 62, 0
4, 28316, Note_on_c, 6, 59, 46
4, 28317, Note_off_c, 6, 60, 0
4, 28320, Note_on_c, 6, 57, 45
4, 28322, Note_off_c, 6, 59, 0
4, 28325, Note_on_c, 6, 55, 44
4, 28326, Note_off_c, 6, 57, 0
4, 28329, Note_on_c, 6, 53, 44
4, 28331, Note_off_c, 6, 55, 0
4, 28334, Note_on_c, 6, 52, 38
4, 28335, Note_off_c, 6, 53, 0
4, 28339, Note_on_c, 6, 50, 39
4, 28340, Note_off_c, 6, 52, 0
4, 28343, Note_on_c, 6, 48, 36
4, 28345, Note_off_c, 6, 50, 0
4, 28348, Note_on_c, 6, 47, 30
4, 28349, Note_off_c, 6, 48, 0
4, 28353, Note_on_c, 6, 45, 36
4, 28354, Note_off_c, 6, 47, 0
4, 28358, Note_on_c, 6, 43, 42
4, 28359, Note_off_c, 6, 45, 0
4, 28364, Note_off_c, 6, 43, 0
4, 28367, Note_on_c, 6, 50, 8
4, 28368, Note_on_c, 6, 52, 43
4, 28373, Note_off_c, 6, 50, 0
4, 28374, Note_off_c, 6, 52, 0
4, 28376, Note_on_c, 6, 53, 53
4, 28382, Note_off_c, 6, 53, 0
4, 28383, Note_on_c, 6, 55, 53
4, 28388, Note_on_c, 6, 57, 53
4, 28389, Note_off_c, 6, 55, 0
4, 28393, Note_on_c, 6, 59, 47
4, 28394, Note_off_c, 6, 57, 0
4, 28397, Note_on_c, 6, 60, 44
4, 28399, Note_off_c, 6, 59, 0
4, 28401, Note_on_c, 6, 62, 48
4, 28403, Note_off_c, 6, 60, 0
4, 28405, Note_on_c, 6, 64, 51
4, 28407, Note_off_c, 6, 62, 0
4, 28409, Note_on_c, 6, 65, 54
4, 28411, Note_off_c, 6, 64, 0
4, 28413, Note_on_c, 6, 67, 47
4, 28415, Note_off_c, 6, 65, 0
4, 28416, Control_c, 6, 1, 0
4, 28419, Note_off_c, 6, 67, 0
4, 28420, Note_on_c, 6, 84, 58
4, 28420, Note_on_c, 6, 79, 56
4, 28421, Note_on_c, 6, 88, 45
4, 28493, Control_c, 6, 1, 60
4, 28609, Note_on_c, 6, 83, 61
4, 28612, Note_off_c, 6, 84, 0
4, 28780, Note_off_c, 6, 79, 0
4, 28801, Note_off_c, 6, 83, 0
4, 28802, Note_on_c, 6, 84, 56
4, 28803, Note_on_c, 6, 81, 61
4, 28984, Control_c, 6, 1, 41
4, 28993, Note_on_c, 6, 79, 61
4, 28995, Note_off_c, 6, 81, 0
4, 29161, Note_off_c, 6, 79, 0
4, 29165, Note_off_c, 6, 88, 0
4, 29184, Note_off_c, 6, 84, 0
4, 29184, Note_on_c, 6, 84, 42
4, 29185, Note_on_c, 6, 81, 58
4, 29186, Note_on_c, 6, 77, 58
4, 29354, Note_off_c, 6, 77, 0
4, 29375, Note_on_c, 6, 76, 52
4, 29564, Note_off_c, 6, 84, 0
4, 29567, Note_off_c, 6, 76, 0
4, 29569, Note_off_c, 6, 81, 0
4, 29570, Note_on_c, 6, 81, 56
4, 29571, Note_on_c, 6, 74, 61
4, 29571, Note_on_c, 6, 77, 61
4, 29762, Note_on_c, 6, 72, 64
4, 29763, Note_off_c, 6, 74, 0
4, 29805, Control_c, 6, 1, 30
4, 29879, Control_c, 6, 1, 0
4, 29953, Note_on_c, 6, 74, 58
4, 29953, Note_on_c, 6, 79, 50
4, 29954, Note_off_c, 6, 72, 0
4, 29954, Note_off_c, 6, 81, 0
4, 29954, Note_on_c, 6, 71, 54
4, 29955, Note_off_c, 6, 77, 0
4, 30081, Control_c, 6, 1, 32
4, 30145, Note_off_c, 6, 79, 0
4, 30145, Note_on_c, 6, 77, 50
4, 30313, Note_off_c, 6, 74, 0
4, 30313, Note_off_c, 6, 77, 0
4, 30338, Note_on_c, 6, 67, 54
4, 30339, Note_on_c, 6, 76, 38
4, 30530, Note_on_c, 6, 74, 56
4, 30531, Note_off_c, 6, 76, 0
4, 30721, Note_on_c, 6, 72, 56
4, 30721, Note_on_c, 6, 76, 58
4, 30721, Note_on_c, 6, 79, 61
4, 30722, Note_off_c, 6, 67, 0
4, 30722, Note_off_c, 6, 71, 0
4, 30722, Note_off_c, 6, 74, 0
4, 30913, Note_off_c, 6, 76, 0
4, 30913, Note_off_c, 6, 79, 0
4, 30913, Note_on_c, 6, 77, 54
4, 30913, Note_on_c, 6, 81, 56
4, 31081, Note_off_c, 6, 81, 0
4, 31105, Note_off_c, 6, 77, 0
4, 31105, Note_on_c, 6, 76, 58
4, 31105, Note_on_c, 6, 79, 54
4, 31273, Note_off_c, 6, 76, 0
4, 31273, Note_off_c, 6, 79, 0
4, 31297, Note_on_c, 6, 77, 56
4, 31297, Note_on_c, 6, 81, 61
4, 31488, Note_on_c, 6, 84, 61
4, 31489, Note_off_c, 6, 72, 0
4, 31489, Note_off_c, 6, 77, 0
4, 31489, Note_off_c, 6, 81, 0
4, 31489, Note_on_c, 6, 72, 52
4, 31489, Note_on_c, 6, 81, 54
4, 31680, Tempo, 845070
4, 31843, Note_on_c, 6, 43, 26
4, 31845, Note_on_c, 6, 45, 34
4, 31847, Note_on_c, 6, 47, 40
4, 31848, Note_off_c, 6, 84, 0
4, 31849, Note_off_c, 6, 81, 0
4, 31849, Note_off_c, 6, 43, 0
4, 31850, Note_on_c, 6, 48, 39
4, 31851, Note_off_c, 6, 45, 0
4, 31852, Note_on_c, 6, 50, 44
4, 31853, Note_off_c, 6, 47, 0
4, 31854, Note_on_c, 6, 52, 48
4, 31854, Control_c, 6, 1, 36
4, 31856, Note_off_c, 6, 48, 0
4, 31856, Note_on_c, 6, 53, 50
4, 31858, Note_off_c, 6, 50, 0
4, 31858, Note_on_c, 6, 55, 52
4, 31860, Note_off_c, 6, 52, 0
4, 31860, Note_on_c, 6, 57, 50
4, 31862, Note_off_c, 6, 53, 0
4, 31863, Note_on_c, 6, 59, 48
4, 31864, Note_off_c, 6, 55, 0
4, 31866, Note_off_c, 6, 57, 0
4, 31866, Note_on_c, 6, 60, 44
4, 31869, Note_off_c, 6, 59, 0
4, 31869, Note_on_c, 6, 62, 38
4, 31872, Note_off_c, 6, 60, 0
4, 31872, Tempo, 895522
4, 31873, Note_on_c, 6, 77, 50
4, 31873, Note_on_c, 6, 80, 58
4, 31875, Note_off_c, 6, 62, 0
4, 31878, Note_on_c, 6, 64, 36
4, 31884, Note_off_c, 6, 64, 0
4, 32064, Tempo, 909090
4, 32233, Note_off_c, 6, 72, 0
4, 32233, Note_off_c, 6, 77, 0
4, 32233, Note_off_c, 6, 80, 0
4, 32256, Tempo, 1034482
4, 32257, Note_on_c, 6, 72, 61
4, 32257, Note_on_c, 6, 77, 64
4, 32258, Note_on_c, 6, 89, 66
4, 32267, Control_c, 6, 1, 40
4, 32448, Note_on_c, 6, 88, 58
4, 32449, Note_off_c, 6, 77, 0
4, 32449, Note_on_c, 6, 76, 61
4, 32450, Note_off_c, 6, 89, 0
4, 32544, Note_off_c, 6, 88, 0
4, 32544, Note_on_c, 6, 86, 61
4, 32545, Note_off_c, 6, 76, 0
4, 32545, Note_on_c, 6, 74, 50
4, 32640, Note_off_c, 6, 86, 0
4, 32641, Note_off_c, 6, 74, 0
4, 32641, Note_on_c, 6, 76, 61
4, 32641, Note_on_c, 6, 88, 54
4, 32797, Control_c, 6, 1, 60
4, 33016, Control_c, 6, 1, 0
4, 33025, Note_off_c, 6, 72, 0
4, 33025, Note_off_c, 6, 76, 0
4, 33025, Note_off_c, 6, 88, 0
4, 33432, Control_c, 6, 120, 0
4, 33456, Note_off_c, 6, 89, 0
4, 33456, End_track
5, 0, Start_track
5, 0, Control_c, 3, 32, 0
5, 0, Control_c, 3, 0, 0
5, 0, Program_c, 3, 1
5, 0, Control_c, 3, 10, 40
5, 0, Control_c, 3, 91, 124
5, 0, Control_c, 3, 93, 56
5, 0, Time_signature, 4, 2, 96, 8
5, 0, Tempo, 833333
5, 4009, Note_on_c, 3, 74, 97
5, 4024, Note_off_c, 3, 74, 0
5, 4034, Note_on_c, 3, 76, 97
5, 4048, Note_off_c, 3, 76, 0
5, 4057, Note_on_c, 3, 74, 96
5, 4070, Note_off_c, 3, 74, 0
5, 4083, Note_on_c, 3, 76, 104
5, 4186, Note_off_c, 3, 76, 0
5, 4203, Note_on_c, 3, 74, 97
5, 4215, Note_off_c, 3, 74, 0
5, 4228, Note_on_c, 3, 74, 98
5, 4270, Note_off_c, 3, 74, 0
5, 4273, Note_on_c, 3, 72, 94
5, 4379, Note_off_c, 3, 72, 0
5, 4753, Note_on_c, 3, 72, 110
5, 4762, Note_off_c, 3, 72, 0
5, 4774, Note_on_c, 3, 72, 94
5, 4786, Note_off_c, 3, 72, 0
5, 4799, Note_on_c, 3, 74, 107
5, 4843, Note_off_c, 3, 74, 0
5, 4845, Note_on_c, 3, 72, 104
5, 4904, Note_off_c, 3, 72, 0
5, 4920, Note_on_c, 3, 72, 97
5, 4959, Note_off_c, 3, 72, 0
5, 4960, Note_on_c, 3, 69, 94
5, 4989, Note_off_c, 3, 69, 0
5, 4992, Note_on_c, 3, 72, 101
5, 5034, Note_off_c, 3, 72, 0
5, 5036, Note_on_c, 3, 69, 98
5, 5167, Note_off_c, 3, 69, 0
5, 5519, Note_on_c, 3, 71, 119
5, 5541, Note_off_c, 3, 71, 0
5, 5544, Note_on_c, 3, 69, 101
5, 5559, Note_off_c, 3, 69, 0
5, 5567, Note_on_c, 3, 71, 119
5, 5605, Note_off_c, 3, 71, 0
5, 5615, Note_on_c, 3, 71, 116
5, 5676, Note_off_c, 3, 71, 0
5, 5689, Note_on_c, 3, 71, 114
5, 5726, Note_off_c, 3, 71, 0
5, 5730, Note_on_c, 3, 69, 116
5, 5747, Note_off_c, 3, 69, 0
5, 5760, Note_on_c, 3, 69, 114
5, 5805, Note_off_c, 3, 69, 0
5, 5806, Note_on_c, 3, 67, 110
5, 5922, Note_off_c, 3, 67, 0
5, 6291, Note_on_c, 3, 76, 119
5, 6300, Note_off_c, 3, 76, 0
5, 6314, Note_on_c, 3, 76, 114
5, 6324, Note_off_c, 3, 76, 0
5, 6337, Note_on_c, 3, 76, 124
5, 6380, Note_off_c, 3, 76, 0
5, 6384, Note_on_c, 3, 74, 116
5, 6445, Note_off_c, 3, 74, 0
5, 6455, Note_on_c, 3, 74, 99
5, 6467, Note_off_c, 3, 74, 0
5, 6478, Note_on_c, 3, 74, 104
5, 6502, Note_on_c, 3, 72, 94
5, 6503, Note_off_c, 3, 74, 0
5, 6521, Note_off_c, 3, 72, 0
5, 6527, Note_on_c, 3, 76, 114
5, 6554, Note_on_c, 3, 74, 86
5, 6556, Note_off_c, 3, 76, 0
5, 6573, Note_off_c, 3, 74, 0
5, 6578, Note_on_c, 3, 72, 119
5, 6708, Note_off_c, 3, 72, 0
5, 7058, Note_on_c, 3, 72, 104
5, 7067, Note_off_c, 3, 72, 0
5, 7080, Note_on_c, 3, 72, 104
5, 7092, Note_off_c, 3, 72, 0
5, 7104, Note_on_c, 3, 74, 119
5, 7148, Note_off_c, 3, 74, 0
5, 7150, Note_on_c, 3, 72, 110
5, 7215, Note_off_c, 3, 72, 0
5, 7232, Note_on_c, 3, 72, 99
5, 7266, Note_off_c, 3, 72, 0
5, 7269, Note_on_c, 3, 69, 116
5, 7299, Note_on_c, 3, 72, 101
5, 7300, Note_off_c, 3, 69, 0
5, 7341, Note_off_c, 3, 72, 0
5, 7343, Note_on_c, 3, 74, 94
5, 7432, Note_off_c, 3, 74, 0
5, 7825, Note_on_c, 3, 71, 127
5, 7835, Note_off_c, 3, 71, 0
5, 7847, Note_on_c, 3, 71, 114
5, 7858, Note_off_c, 3, 71, 0
5, 7870, Note_on_c, 3, 71, 124
5, 7911, Note_off_c, 3, 71, 0
5, 7921, Note_on_c, 3, 71, 119
5, 8012, Note_off_c, 3, 71, 0
5, 8018, Note_on_c, 3, 69, 119
5, 8060, Note_off_c, 3, 69, 0
5, 8069, Note_on_c, 3, 69, 114
5, 8112, Note_off_c, 3, 69, 0
5, 8114, Note_on_c, 3, 67, 86
5, 8269, Note_off_c, 3, 67, 0
5, 8590, Note_on_c, 3, 76, 127
5, 8601, Note_off_c, 3, 76, 0
5, 8612, Note_on_c, 3, 76, 107
5, 8626, Note_off_c, 3, 76, 0
5, 8640, Note_on_c, 3, 79, 127
5, 8785, Note_off_c, 3, 79, 0
5, 8788, Note_on_c, 3, 76, 119
5, 8812, Note_off_c, 3, 76, 0
5, 8815, Note_on_c, 3, 81, 127
5, 8952, Note_off_c, 3, 81, 0
5, 8975, Note_on_c, 3, 76, 119
5, 9059, Note_off_c, 3, 76, 0
5, 9071, Note_on_c, 3, 76, 110
5, 9098, Note_off_c, 3, 76, 0
5, 9115, Note_on_c, 3, 76, 127
5, 9160, Note_off_c, 3, 76, 0
5, 9164, Note_on_c, 3, 74, 104
5, 9189, Note_off_c, 3, 74, 0
5, 9192, Note_on_c, 3, 72, 110
5, 9301, Note_off_c, 3, 72, 0
5, 9385, Note_on_c, 3, 72, 124
5, 9398, Note_off_c, 3, 72, 0
5, 9410, Note_on_c, 3, 74, 127
5, 9451, Note_off_c, 3, 74, 0
5, 9454, Note_on_c, 3, 72, 98
5, 9512, Note_off_c, 3, 72, 0
5, 9529, Note_on_c, 3, 72, 110
5, 9565, Note_off_c, 3, 72, 0
5, 9568, Note_on_c, 3, 69, 99
5, 9599, Note_off_c, 3, 69, 0
5, 9601, Note_on_c, 3, 72, 116
5, 9643, Note_off_c, 3, 72, 0
5, 9644, Note_on_c, 3, 69, 98
5, 9753, Note_off_c, 3, 69, 0
5, 9794, Note_on_c, 3, 76, 127
5, 9860, Note_off_c, 3, 76, 0
5, 9870, Note_on_c, 3, 76, 127
5, 9933, Note_off_c, 3, 76, 0
5, 9938, Note_on_c, 3, 79, 127
5, 9973, Note_off_c, 3, 79, 0
5, 9988, Note_on_c, 3, 81, 127
5, 10163, Note_off_c, 3, 81, 0
5, 10177, Note_on_c, 3, 79, 110
5, 10309, Note_off_c, 3, 79, 0
5, 10323, Note_on_c, 3, 76, 124
5, 10358, Note_off_c, 3, 76, 0
5, 10368, Note_on_c, 3, 76, 119
5, 10527, Note_off_c, 3, 76, 0
5, 10536, Note_on_c, 3, 74, 84
5, 10554, Note_off_c, 3, 74, 0
5, 10561, Note_on_c, 3, 72, 104
5, 10709, Note_off_c, 3, 72, 0
5, 10896, Note_on_c, 3, 72, 127
5, 10907, Note_off_c, 3, 72, 0
5, 10920, Note_on_c, 3, 72, 101
5, 10931, Note_off_c, 3, 72, 0
5, 10943, Note_on_c, 3, 74, 119
5, 10986, Note_off_c, 3, 74, 0
5, 10990, Note_on_c, 3, 72, 110
5, 11052, Note_off_c, 3, 72, 0
5, 11067, Note_on_c, 3, 72, 101
5, 11104, Note_off_c, 3, 72, 0
5, 11109, Note_on_c, 3, 69, 98
5, 11137, Note_off_c, 3, 69, 0
5, 11140, Note_on_c, 3, 72, 110
5, 11183, Note_off_c, 3, 72, 0
5, 11186, Note_on_c, 3, 69, 76
5, 11291, Note_off_c, 3, 69, 0
5, 11664, Note_on_c, 3, 71, 127
5, 11683, Note_off_c, 3, 71, 0
5, 11687, Note_on_c, 3, 69, 98
5, 11701, Note_off_c, 3, 69, 0
5, 11711, Note_on_c, 3, 71, 119
5, 11750, Note_off_c, 3, 71, 0
5, 11758, Note_on_c, 3, 71, 110
5, 11826, Note_off_c, 3, 71, 0
5, 11835, Note_on_c, 3, 71, 114
5, 11869, Note_off_c, 3, 71, 0
5, 11875, Note_on_c, 3, 69, 98
5, 11895, Note_off_c, 3, 69, 0
5, 11908, Note_on_c, 3, 69, 104
5, 11949, Note_off_c, 3, 69, 0
5, 11953, Note_on_c, 3, 67, 114
5, 12080, Note_off_c, 3, 67, 0
5, 12193, Note_on_c, 3, 67, 127
5, 12241, Note_off_c, 3, 67, 0
5, 12242, Note_on_c, 3, 72, 98
5, 12256, Note_off_c, 3, 72, 0
5, 12266, Note_on_c, 3, 72, 116
5, 12502, Note_off_c, 3, 72, 0
5, 12553, Note_on_c, 3, 69, 107
5, 12565, Note_off_c, 3, 69, 0
5, 12577, Note_on_c, 3, 69, 119
5, 12617, Note_off_c, 3, 69, 0
5, 12625, Note_on_c, 3, 72, 101
5, 12639, Note_off_c, 3, 72, 0
5, 12651, Note_on_c, 3, 76, 119
5, 12697, Note_off_c, 3, 76, 0
5, 12699, Note_on_c, 3, 74, 97
5, 12713, Note_off_c, 3, 74, 0
5, 12722, Note_on_c, 3, 72, 127
5, 12861, Note_off_c, 3, 72, 0
5, 16296, Note_on_c, 3, 67, 107
5, 16317, Note_off_c, 3, 67, 0
5, 16322, Note_on_c, 3, 76, 107
5, 16341, Note_off_c, 3, 76, 0
5, 16347, Note_on_c, 3, 74, 96
5, 16362, Note_off_c, 3, 74, 0
5, 16372, Note_on_c, 3, 76, 98
5, 16475, Note_off_c, 3, 76, 0
5, 16485, Note_on_c, 3, 74, 94
5, 16497, Note_off_c, 3, 74, 0
5, 16511, Note_on_c, 3, 74, 97
5, 16557, Note_off_c, 3, 74, 0
5, 16559, Note_on_c, 3, 72, 97
5, 16689, Note_off_c, 3, 72, 0
5, 17040, Note_on_c, 3, 72, 104
5, 17051, Note_off_c, 3, 72, 0
5, 17063, Note_on_c, 3, 72, 91
5, 17075, Note_off_c, 3, 72, 0
5, 17088, Note_on_c, 3, 74, 96
5, 17192, Note_off_c, 3, 74, 0
5, 17207, Note_on_c, 3, 72, 89
5, 17218, Note_off_c, 3, 72, 0
5, 17233, Note_on_c, 3, 72, 97
5, 17248, Note_off_c, 3, 72, 0
5, 17254, Note_on_c, 3, 69, 97
5, 17271, Note_off_c, 3, 69, 0
5, 17279, Note_on_c, 3, 72, 114
5, 17324, Note_off_c, 3, 72, 0
5, 17325, Note_on_c, 3, 69, 97
5, 17426, Note_off_c, 3, 69, 0
5, 17807, Note_on_c, 3, 71, 114
5, 17824, Note_off_c, 3, 71, 0
5, 17831, Note_on_c, 3, 69, 94
5, 17845, Note_off_c, 3, 69, 0
5, 17858, Note_on_c, 3, 71, 98
5, 17899, Note_off_c, 3, 71, 0
5, 17906, Note_on_c, 3, 69, 91
5, 17918, Note_off_c, 3, 69, 0
5, 17930, Note_on_c, 3, 71, 107
5, 17991, Note_off_c, 3, 71, 0
5, 17999, Note_on_c, 3, 69, 104
5, 18010, Note_off_c, 3, 69, 0
5, 18024, Note_on_c, 3, 69, 116
5, 18090, Note_off_c, 3, 69, 0
5, 18093, Note_on_c, 3, 67, 110
5, 18309, Note_off_c, 3, 67, 0
5, 18599, Note_on_c, 3, 67, 98
5, 18618, Note_off_c, 3, 67, 0
5, 18628, Note_on_c, 3, 76, 124
5, 18666, Note_off_c, 3, 76, 0
5, 18675, Note_on_c, 3, 74, 114
5, 18740, Note_off_c, 3, 74, 0
5, 18750, Note_on_c, 3, 74, 104
5, 18787, Note_off_c, 3, 74, 0
5, 18792, Note_on_c, 3, 72, 104
5, 18815, Note_off_c, 3, 72, 0
5, 18820, Note_on_c, 3, 76, 114
5, 18956, Note_off_c, 3, 76, 0
5, 19346, Note_on_c, 3, 72, 104
5, 19368, Note_off_c, 3, 72, 0
5, 19369, Note_on_c, 3, 69, 91
5, 19389, Note_off_c, 3, 69, 0
5, 19394, Note_on_c, 3, 74, 110
5, 19434, Note_off_c, 3, 74, 0
5, 19439, Note_on_c, 3, 72, 97
5, 19504, Note_off_c, 3, 72, 0
5, 19518, Note_on_c, 3, 72, 110
5, 19555, Note_off_c, 3, 72, 0
5, 19558, Note_on_c, 3, 69, 98
5, 19586, Note_off_c, 3, 69, 0
5, 19588, Note_on_c, 3, 72, 110
5, 19629, Note_off_c, 3, 72, 0
5, 19632, Note_on_c, 3, 69, 96
5, 19757, Note_off_c, 3, 69, 0
5, 20112, Note_on_c, 3, 71, 114
5, 20130, Note_off_c, 3, 71, 0
5, 20135, Note_on_c, 3, 69, 96
5, 20147, Note_off_c, 3, 69, 0
5, 20161, Note_on_c, 3, 71, 127
5, 20202, Note_off_c, 3, 71, 0
5, 20209, Note_on_c, 3, 71, 110
5, 20273, Note_off_c, 3, 71, 0
5, 20281, Note_on_c, 3, 71, 114
5, 20316, Note_off_c, 3, 71, 0
5, 20320, Note_on_c, 3, 69, 99
5, 20347, Note_off_c, 3, 69, 0
5, 20356, Note_on_c, 3, 69, 114
5, 20398, Note_off_c, 3, 69, 0
5, 20401, Note_on_c, 3, 67, 110
5, 20611, Note_off_c, 3, 67, 0
5, 20881, Note_on_c, 3, 76, 124
5, 20891, Note_off_c, 3, 76, 0
5, 20904, Note_on_c, 3, 76, 110
5, 20917, Note_off_c, 3, 76, 0
5, 20932, Note_on_c, 3, 81, 119
5, 20973, Note_off_c, 3, 81, 0
5, 20980, Note_on_c, 3, 79, 119
5, 21043, Note_off_c, 3, 79, 0
5, 21053, Note_on_c, 3, 76, 110
5, 21078, Note_off_c, 3, 76, 0
5, 21091, Note_on_c, 3, 74, 98
5, 21105, Note_off_c, 3, 74, 0
5, 21121, Note_on_c, 3, 76, 116
5, 21256, Note_off_c, 3, 76, 0
5, 21263, Note_on_c, 3, 74, 84
5, 21275, Note_off_c, 3, 74, 0
5, 21289, Note_on_c, 3, 72, 104
5, 21451, Note_off_c, 3, 72, 0
5, 21646, Note_on_c, 3, 72, 124
5, 21655, Note_off_c, 3, 72, 0
5, 21671, Note_on_c, 3, 72, 116
5, 21681, Note_off_c, 3, 72, 0
5, 21696, Note_on_c, 3, 74, 124
5, 21740, Note_off_c, 3, 74, 0
5, 21744, Note_on_c, 3, 72, 110
5, 21803, Note_off_c, 3, 72, 0
5, 21816, Note_on_c, 3, 72, 110
5, 21852, Note_off_c, 3, 72, 0
5, 21857, Note_on_c, 3, 69, 101
5, 21883, Note_off_c, 3, 69, 0
5, 21887, Note_on_c, 3, 72, 119
5, 21930, Note_off_c, 3, 72, 0
5, 21932, Note_on_c, 3, 69, 110
5, 22022, Note_off_c, 3, 69, 0
5, 22081, Note_on_c, 3, 76, 119
5, 22137, Note_off_c, 3, 76, 0
5, 22154, Note_on_c, 3, 76, 124
5, 22216, Note_off_c, 3, 76, 0
5, 22224, Note_on_c, 3, 79, 127
5, 22255, Note_off_c, 3, 79, 0
5, 22272, Note_on_c, 3, 81, 127
5, 22450, Note_off_c, 3, 81, 0
5, 22465, Note_on_c, 3, 79, 119
5, 22584, Note_off_c, 3, 79, 0
5, 22608, Note_on_c, 3, 76, 119
5, 22617, Note_off_c, 3, 76, 0
5, 22633, Note_on_c, 3, 76, 119
5, 22788, Note_off_c, 3, 76, 0
5, 22800, Note_on_c, 3, 74, 94
5, 22820, Note_off_c, 3, 74, 0
5, 22828, Note_on_c, 3, 72, 104
5, 22995, Note_off_c, 3, 72, 0
5, 23184, Note_on_c, 3, 72, 116
5, 23194, Note_off_c, 3, 72, 0
5, 23207, Note_on_c, 3, 72, 92
5, 23219, Note_off_c, 3, 72, 0
5, 23231, Note_on_c, 3, 74, 107
5, 23273, Note_off_c, 3, 74, 0
5, 23279, Note_on_c, 3, 72, 107
5, 23342, Note_off_c, 3, 72, 0
5, 23354, Note_on_c, 3, 72, 104
5, 23391, Note_off_c, 3, 72, 0
5, 23396, Note_on_c, 3, 69, 110
5, 23427, Note_off_c, 3, 69, 0
5, 23428, Note_on_c, 3, 72, 127
5, 23469, Note_off_c, 3, 72, 0
5, 23471, Note_on_c, 3, 69, 114
5, 23605, Note_off_c, 3, 69, 0
5, 23954, Note_on_c, 3, 71, 119
5, 23974, Note_off_c, 3, 71, 0
5, 23978, Note_on_c, 3, 69, 107
5, 23991, Note_off_c, 3, 69, 0
5, 24001, Note_on_c, 3, 71, 124
5, 24037, Note_off_c, 3, 71, 0
5, 24048, Note_on_c, 3, 71, 124
5, 24111, Note_off_c, 3, 71, 0
5, 24124, Note_on_c, 3, 71, 119
5, 24159, Note_off_c, 3, 71, 0
5, 24169, Note_on_c, 3, 69, 116
5, 24183, Note_off_c, 3, 69, 0
5, 24197, Note_on_c, 3, 69, 127
5, 24236, Note_off_c, 3, 69, 0
5, 24241, Note_on_c, 3, 67, 116
5, 24399, Note_off_c, 3, 67, 0
5, 24453, Note_on_c, 3, 67, 98
5, 24463, Note_off_c, 3, 67, 0
5, 24478, Note_on_c, 3, 67, 124
5, 24521, Note_off_c, 3, 67, 0
5, 24527, Note_on_c, 3, 72, 110
5, 24539, Note_off_c, 3, 72, 0
5, 24550, Note_on_c, 3, 72, 114
5, 24772, Note_off_c, 3, 72, 0
5, 24839, Note_on_c, 3, 69, 116
5, 24849, Note_off_c, 3, 69, 0
5, 24864, Note_on_c, 3, 69, 114
5, 24912, Note_off_c, 3, 69, 0
5, 24913, Note_on_c, 3, 72, 98
5, 24930, Note_off_c, 3, 72, 0
5, 24939, Note_on_c, 3, 76, 94
5, 24990, Note_on_c, 3, 74, 98
5, 24992, Note_off_c, 3, 76, 0
5, 25005, Note_off_c, 3, 74, 0
5, 25014, Note_on_c, 3, 72, 119
5, 25161, Note_off_c, 3, 72, 0
5, 28224, Note_on_c, 3, 76, 127
5, 28280, Note_off_c, 3, 76, 0
5, 28295, Note_on_c, 3, 76, 127
5, 28357, Note_off_c, 3, 76, 0
5, 28369, Note_on_c, 3, 79, 127
5, 28404, Note_off_c, 3, 79, 0
5, 28418, Note_on_c, 3, 81, 127
5, 28594, Note_off_c, 3, 81, 0
5, 28611, Note_on_c, 3, 79, 124
5, 28731, Note_off_c, 3, 79, 0
5, 28755, Note_on_c, 3, 76, 110
5, 28765, Note_off_c, 3, 76, 0
5, 28780, Note_on_c, 3, 76, 119
5, 28940, Note_off_c, 3, 76, 0
5, 28946, Note_on_c, 3, 74, 86
5, 28963, Note_off_c, 3, 74, 0
5, 28971, Note_on_c, 3, 72, 101
5, 29150, Note_off_c, 3, 72, 0
5, 29327, Note_on_c, 3, 72, 119
5, 29337, Note_off_c, 3, 72, 0
5, 29350, Note_on_c, 3, 72, 114
5, 29363, Note_off_c, 3, 72, 0
5, 29376, Note_on_c, 3, 74, 124
5, 29418, Note_off_c, 3, 74, 0
5, 29424, Note_on_c, 3, 72, 107
5, 29484, Note_off_c, 3, 72, 0
5, 29495, Note_on_c, 3, 72, 119
5, 29534, Note_off_c, 3, 72, 0
5, 29538, Note_on_c, 3, 69, 101
5, 29569, Note_off_c, 3, 69, 0
5, 29569, Note_on_c, 3, 72, 114
5, 29615, Note_off_c, 3, 72, 0
5, 29616, Note_on_c, 3, 69, 92
5, 29778, Note_off_c, 3, 69, 0
5, 30096, Note_on_c, 3, 71, 127
5, 30118, Note_off_c, 3, 71, 0
5, 30118, Note_on_c, 3, 69, 96
5, 30133, Note_off_c, 3, 69, 0
5, 30144, Note_on_c, 3, 71, 127
5, 30186, Note_off_c, 3, 71, 0
5, 30193, Note_on_c, 3, 71, 110
5, 30272, Note_off_c, 3, 71, 0
5, 30285, Note_on_c, 3, 71, 98
5, 30308, Note_off_c, 3, 71, 0
5, 30312, Note_on_c, 3, 69, 97
5, 30325, Note_off_c, 3, 69, 0
5, 30337, Note_on_c, 3, 69, 110
5, 30380, Note_off_c, 3, 69, 0
5, 30382, Note_on_c, 3, 67, 114
5, 30545, Note_off_c, 3, 67, 0
5, 30599, Note_on_c, 3, 67, 110
5, 30610, Note_off_c, 3, 67, 0
5, 30624, Note_on_c, 3, 67, 127
5, 30663, Note_off_c, 3, 67, 0
5, 30671, Note_on_c, 3, 72, 110
5, 30684, Note_off_c, 3, 72, 0
5, 30694, Note_on_c, 3, 72, 127
5, 30915, Note_off_c, 3, 72, 0
5, 30981, Note_on_c, 3, 69, 110
5, 30991, Note_off_c, 3, 69, 0
5, 31006, Note_on_c, 3, 69, 119
5, 31052, Note_off_c, 3, 69, 0
5, 31057, Note_on_c, 3, 72, 98
5, 31072, Note_off_c, 3, 72, 0
5, 31086, Note_on_c, 3, 76, 116
5, 31130, Note_off_c, 3, 76, 0
5, 31133, Note_on_c, 3, 74, 90
5, 31151, Note_off_c, 3, 74, 0
5, 31159, Note_on_c, 3, 72, 110
5, 31299, Note_off_c, 3, 72, 0
5, 31680, Tempo, 845070
5, 31872, Tempo, 895522
5, 32064, Tempo, 909090
5, 32256, Tempo, 1034482
5, 33432, Control_c, 3, 120, 0
5, 33432, End_track
6, 0, Start_track
6, 0, Control_c, 4, 32, 0
6, 0, Control_c, 4, 0, 0
6, 0, Program_c, 4, 0
6, 0, Control_c, 4, 10, 127
6, 0, Control_c, 4, 91, 127
6, 0, Control_c, 4, 93, 67
6, 0, Time_signature, 4, 2, 96, 8
6, 0, Tempo, 833333
6, 769, Note_on_c, 4, 48, 91
6, 769, Note_on_c, 4, 60, 87
6, 769, Note_on_c, 4, 64, 79
6, 769, Note_on_c, 4, 67, 87
6, 770, Control_c, 4, 64, 127
6, 804, Note_off_c, 4, 60, 0
6, 813, Note_off_c, 4, 67, 0
6, 814, Note_off_c, 4, 64, 0
6, 817, Note_on_c, 4, 60, 55
6, 832, Note_off_c, 4, 60, 0
6, 865, Note_on_c, 4, 64, 95
6, 865, Note_on_c, 4, 67, 87
6, 909, Note_off_c, 4, 67, 0
6, 911, Note_off_c, 4, 64, 0
6, 913, Note_on_c, 4, 60, 70
6, 929, Note_off_c, 4, 60, 0
6, 932, Note_off_c, 4, 48, 0
6, 961, Note_on_c, 4, 47, 95
6, 961, Note_on_c, 4, 59, 79
6, 961, Note_on_c, 4, 64, 83
6, 961, Note_on_c, 4, 67, 79
6, 963, Control_c, 4, 64, 0
6, 999, Note_off_c, 4, 59, 0
6, 1000, Control_c, 4, 64, 127
6, 1009, Note_off_c, 4, 64, 0
6, 1009, Note_off_c, 4, 67, 0
6, 1009, Note_on_c, 4, 59, 60
6, 1023, Note_off_c, 4, 59, 0
6, 1057, Note_on_c, 4, 64, 87
6, 1057, Note_on_c, 4, 67, 79
6, 1103, Note_off_c, 4, 64, 0
6, 1103, Note_off_c, 4, 67, 0
6, 1105, Note_on_c, 4, 59, 66
6, 1109, Note_off_c, 4, 47, 0
6, 1114, Note_off_c, 4, 59, 0
6, 1152, Control_c, 4, 64, 0
6, 1153, Note_on_c, 4, 45, 75
6, 1153, Note_on_c, 4, 57, 75
6, 1153, Note_on_c, 4, 60, 91
6, 1153, Note_on_c, 4, 64, 83
6, 1187, Note_off_c, 4, 57, 0
6, 1190, Control_c, 4, 64, 127
6, 1201, Note_on_c, 4, 57, 63
6, 1204, Note_off_c, 4, 60, 0
6, 1207, Note_off_c, 4, 64, 0
6, 1215, Note_off_c, 4, 57, 0
6, 1249, Note_on_c, 4, 60, 87
6, 1249, Note_on_c, 4, 64, 83
6, 1291, Note_off_c, 4, 64, 0
6, 1294, Note_off_c, 4, 60, 0
6, 1295, Note_off_c, 4, 45, 0
6, 1297, Note_on_c, 4, 57, 63
6, 1308, Note_off_c, 4, 57, 0
6, 1342, Control_c, 4, 64, 0
6, 1345, Note_on_c, 4, 43, 79
6, 1345, Note_on_c, 4, 55, 75
6, 1345, Note_on_c, 4, 60, 83
6, 1345, Note_on_c, 4, 64, 87
6, 1380, Note_off_c, 4, 55, 0
6, 1380, Control_c, 4, 64, 127
6, 1391, Note_off_c, 4, 60, 0
6, 1391, Note_off_c, 4, 64, 0
6, 1393, Note_on_c, 4, 55, 66
6, 1404, Note_off_c, 4, 55, 0
6, 1441, Note_on_c, 4, 60, 95
6, 1441, Note_on_c, 4, 64, 91
6, 1482, Note_off_c, 4, 60, 0
6, 1483, Note_off_c, 4, 64, 0
6, 1489, Note_on_c, 4, 55, 60
6, 1496, Note_off_c, 4, 43, 0
6, 1496, Note_off_c, 4, 55, 0
6, 1537, Note_on_c, 4, 41, 83
6, 1537, Note_on_c, 4, 60, 79
6, 1537, Note_on_c, 4, 65, 87
6, 1537, Note_on_c, 4, 69, 79
6, 1539, Control_c, 4, 64, 0
6, 1576, Control_c, 4, 64, 127
6, 1578, Note_off_c, 4, 60, 0
6, 1585, Note_on_c, 4, 60, 53
6, 1587, Note_off_c, 4, 69, 0
6, 1588, Note_off_c, 4, 65, 0
6, 1601, Note_off_c, 4, 60, 0
6, 1633, Note_on_c, 4, 65, 79
6, 1633, Note_on_c, 4, 69, 79
6, 1674, Note_off_c, 4, 65, 0
6, 1679, Note_off_c, 4, 69, 0
6, 1681, Note_on_c, 4, 60, 66
6, 1690, Note_off_c, 4, 41, 0
6, 1699, Note_off_c, 4, 60, 0
6, 1729, Note_on_c, 4, 40, 79
6, 1729, Note_on_c, 4, 64, 87
6, 1729, Note_on_c, 4, 69, 79
6, 1732, Control_c, 4, 64, 0
6, 1766, Control_c, 4, 64, 127
6, 1777, Note_off_c, 4, 69, 0
6, 1777, Note_on_c, 4, 60, 70
6, 1779, Note_off_c, 4, 64, 0
6, 1800, Note_off_c, 4, 60, 0
6, 1825, Note_on_c, 4, 64, 87
6, 1825, Note_on_c, 4, 69, 72
6, 1871, Note_off_c, 4, 69, 0
6, 1872, Note_off_c, 4, 40, 0
6, 1873, Note_off_c, 4, 64, 0
6, 1873, Note_on_c, 4, 60, 72
6, 1879, Note_off_c, 4, 60, 0
6, 1918, Control_c, 4, 64, 0
6, 1921, Note_on_c, 4, 38, 83
6, 1921, Note_on_c, 4, 57, 60
6, 1921, Note_on_c, 4, 62, 79
6, 1921, Note_on_c, 4, 65, 83
6, 1955, Note_off_c, 4, 57, 0
6, 1956, Control_c, 4, 64, 127
6, 1969, Note_on_c, 4, 57, 29
6, 1970, Note_off_c, 4, 62, 0
6, 1972, Note_off_c, 4, 65, 0
6, 1990, Note_off_c, 4, 57, 0
6, 2017, Note_on_c, 4, 62, 87
6, 2017, Note_on_c, 4, 65, 91
6, 2061, Note_off_c, 4, 62, 0
6, 2063, Note_off_c, 4, 65, 0
6, 2065, Note_on_c, 4, 57, 55
6, 2068, Note_off_c, 4, 38, 0
6, 2086, Note_off_c, 4, 57, 0
6, 2113, Note_on_c, 4, 36, 83
6, 2113, Note_on_c, 4, 60, 83
6, 2113, Note_on_c, 4, 65, 87
6, 2115, Control_c, 4, 64, 0
6, 2136, Control_c, 4, 64, 127
6, 2161, Note_off_c, 4, 60, 0
6, 2161, Note_off_c, 4, 65, 0
6, 2161, Note_on_c, 4, 57, 60
6, 2179, Note_off_c, 4, 57, 0
6, 2209, Note_on_c, 4, 60, 87
6, 2209, Note_on_c, 4, 65, 91
6, 2254, Note_off_c, 4, 60, 0
6, 2257, Note_off_c, 4, 65, 0
6, 2257, Note_on_c, 4, 57, 58
6, 2258, Note_off_c, 4, 36, 0
6, 2264, Note_off_c, 4, 57, 0
6, 2305, Note_on_c, 4, 43, 87
6, 2305, Note_on_c, 4, 62, 75
6, 2305, Note_on_c, 4, 67, 79
6, 2305, Note_on_c, 4, 71, 75
6, 2308, Control_c, 4, 64, 0
6, 2342, Control_c, 4, 64, 127
6, 2345, Note_off_c, 4, 62, 0
6, 2353, Note_on_c, 4, 62, 51
6, 2354, Note_off_c, 4, 67, 0
6, 2355, Note_off_c, 4, 71, 0
6, 2374, Note_off_c, 4, 62, 0
6, 2401, Note_on_c, 4, 67, 83
6, 2401, Note_on_c, 4, 71, 83
6, 2447, Note_off_c, 4, 43, 0
6, 2447, Note_off_c, 4, 67, 0
6, 2449, Note_on_c, 4, 62, 55
6, 2450, Note_off_c, 4, 71, 0
6, 2464, Note_off_c, 4, 62, 0
6, 2497, Note_on_c, 4, 41, 91
6, 2497, Note_on_c, 4, 65, 79
6, 2497, Note_on_c, 4, 71, 91
6, 2498, Control_c, 4, 64, 0
6, 2526, Control_c, 4, 64, 127
6, 2545, Note_on_c, 4, 62, 72
6, 2549, Note_off_c, 4, 65, 0
6, 2549, Note_off_c, 4, 71, 0
6, 2559, Note_off_c, 4, 62, 0
6, 2593, Note_on_c, 4, 65, 75
6, 2593, Note_on_c, 4, 71, 72
6, 2641, Note_on_c, 4, 62, 60
6, 2643, Note_off_c, 4, 41, 0
6, 2646, Note_off_c, 4, 71, 0
6, 2647, Note_off_c, 4, 65, 0
6, 2652, Note_off_c, 4, 62, 0
6, 2689, Note_on_c, 4, 40, 75
6, 2689, Note_on_c, 4, 59, 70
6, 2689, Note_on_c, 4, 64, 75
6, 2689, Note_on_c, 4, 67, 83
6, 2691, Control_c, 4, 64, 0
6, 2719, Note_off_c, 4, 59, 0
6, 2728, Control_c, 4, 64, 127
6, 2732, Note_off_c, 4, 64, 0
6, 2733, Note_off_c, 4, 67, 0
6, 2737, Note_on_c, 4, 59, 49
6, 2750, Note_off_c, 4, 59, 0
6, 2785, Note_on_c, 4, 64, 87
6, 2785, Note_on_c, 4, 67, 83
6, 2831, Note_off_c, 4, 40, 0
6, 2831, Note_off_c, 4, 64, 0
6, 2833, Note_off_c, 4, 67, 0
6, 2833, Note_on_c, 4, 59, 60
6, 2855, Note_off_c, 4, 59, 0
6, 2877, Control_c, 4, 64, 0
6, 2881, Note_on_c, 4, 38, 87
6, 2881, Note_on_c, 4, 62, 83
6, 2881, Note_on_c, 4, 67, 87
6, 2909, Control_c, 4, 64, 127
6, 2926, Note_off_c, 4, 62, 0
6, 2929, Note_off_c, 4, 67, 0
6, 2929, Note_on_c, 4, 59, 70
6, 2951, Note_off_c, 4, 59, 0
6, 2977, Note_on_c, 4, 62, 79
6, 2977, Note_on_c, 4, 67, 87
6, 3023, Note_off_c, 4, 67, 0
6, 3025, Note_off_c, 4, 62, 0
6, 3025, Note_on_c, 4, 59, 55
6, 3033, Note_off_c, 4, 59, 0
6, 3035, Note_off_c, 4, 38, 0
6, 3073, Note_on_c, 4, 36, 91
6, 3073, Note_on_c, 4, 60, 72
6, 3073, Note_on_c, 4, 64, 91
6, 3073, Note_on_c, 4, 67, 87
6, 3074, Control_c, 4, 64, 0
6, 3102, Note_off_c, 4, 60, 0
6, 3105, Control_c, 4, 64, 127
6, 3115, Note_off_c, 4, 64, 0
6, 3118, Note_off_c, 4, 67, 0
6, 3121, Note_on_c, 4, 60, 58
6, 3134, Note_off_c, 4, 60, 0
6, 3169, Note_on_c, 4, 64, 87
6, 3169, Note_on_c, 4, 67, 87
6, 3208, Note_off_c, 4, 36, 0
6, 3211, Note_off_c, 4, 64, 0
6, 3212, Note_off_c, 4, 67, 0
6, 3217, Note_on_c, 4, 60, 60
6, 3232, Note_off_c, 4, 60, 0
6, 3265, Note_on_c, 4, 41, 75
6, 3265, Note_on_c, 4, 65, 79
6, 3265, Note_on_c, 4, 69, 95
6, 3267, Control_c, 4, 64, 0
6, 3301, Control_c, 4, 64, 127
6, 3311, Note_off_c, 4, 65, 0
6, 3313, Note_off_c, 4, 69, 0
6, 3313, Note_on_c, 4, 60, 70
6, 3336, Note_off_c, 4, 60, 0
6, 3361, Note_on_c, 4, 65, 75
6, 3361, Note_on_c, 4, 69, 99
6, 3400, Note_off_c, 4, 65, 0
6, 3401, Note_off_c, 4, 41, 0
6, 3403, Note_off_c, 4, 69, 0
6, 3409, Note_on_c, 4, 60, 58
6, 3420, Note_off_c, 4, 60, 0
6, 3453, Control_c, 4, 64, 0
6, 3457, Note_on_c, 4, 43, 95
6, 3457, Note_on_c, 4, 62, 79
6, 3457, Note_on_c, 4, 67, 83
6, 3457, Note_on_c, 4, 71, 87
6, 3488, Control_c, 4, 64, 127
6, 3491, Note_off_c, 4, 62, 0
6, 3502, Note_off_c, 4, 67, 0
6, 3503, Note_off_c, 4, 71, 0
6, 3505, Note_on_c, 4, 62, 56
6, 3524, Note_off_c, 4, 62, 0
6, 3553, Note_on_c, 4, 67, 79
6, 3553, Note_on_c, 4, 71, 91
6, 3597, Note_off_c, 4, 67, 0
6, 3597, Note_off_c, 4, 71, 0
6, 3600, Note_off_c, 4, 43, 0
6, 3601, Note_on_c, 4, 62, 55
6, 3620, Note_off_c, 4, 62, 0
6, 3646, Control_c, 4, 64, 0
6, 3649, Note_on_c, 4, 43, 87
6, 3649, Note_on_c, 4, 62, 79
6, 3649, Note_on_c, 4, 65, 87
6, 3649, Note_on_c, 4, 71, 91
6, 3678, Control_c, 4, 64, 127
6, 3681, Note_off_c, 4, 62, 0
6, 3692, Note_off_c, 4, 65, 0
6, 3695, Note_off_c, 4, 71, 0
6, 3697, Note_on_c, 4, 62, 56
6, 3711, Note_off_c, 4, 62, 0
6, 3745, Note_on_c, 4, 31, 87
6, 3745, Note_on_c, 4, 65, 83
6, 3745, Note_on_c, 4, 71, 87
6, 3789, Note_off_c, 4, 65, 0
6, 3790, Note_off_c, 4, 71, 0
6, 3793, Note_on_c, 4, 62, 70
6, 3814, Note_off_c, 4, 62, 0
6, 3824, Control_c, 4, 64, 0
6, 3833, Note_off_c, 4, 43, 0
6, 3837, Note_off_c, 4, 31, 0
6, 3841, Note_on_c, 4, 48, 91
6, 3841, Note_on_c, 4, 60, 87
6, 3841, Note_on_c, 4, 64, 79
6, 3841, Note_on_c, 4, 67, 87
6, 3842, Control_c, 4, 64, 127
6, 3876, Note_off_c, 4, 60, 0
6, 3885, Note_off_c, 4, 67, 0
6, 3886, Note_off_c, 4, 64, 0
6, 3889, Note_on_c, 4, 60, 55
6, 3904, Note_off_c, 4, 60, 0
6, 3937, Note_on_c, 4, 64, 95
6, 3937, Note_on_c, 4, 67, 87
6, 3981, Note_off_c, 4, 67, 0
6, 3983, Note_off_c, 4, 64, 0
6, 3985, Note_on_c, 4, 60, 70
6, 4001, Note_off_c, 4, 60, 0
6, 4004, Note_off_c, 4, 48, 0
6, 4033, Note_on_c, 4, 47, 95
6, 4033, Note_on_c, 4, 59, 79
6, 4033, Note_on_c, 4, 64, 83
6, 4033, Note_on_c, 4, 67, 79
6, 4035, Control_c, 4, 64, 0
6, 4071, Note_off_c, 4, 59, 0
6, 4072, Control_c, 4, 64, 127
6, 4081, Note_off_c, 4, 64, 0
6, 4081, Note_off_c, 4, 67, 0
6, 4081, Note_on_c, 4, 59, 60
6, 4095, Note_off_c, 4, 59, 0
6, 4129, Note_on_c, 4, 64, 87
6, 4129, Note_on_c, 4, 67, 79
6, 4175, Note_off_c, 4, 64, 0
6, 4175, Note_off_c, 4, 67, 0
6, 4177, Note_on_c, 4, 59, 66
6, 4181, Note_off_c, 4, 47, 0
6, 4186, Note_off_c, 4, 59, 0
6, 4224, Control_c, 4, 64, 0
6, 4225, Note_on_c, 4, 45, 75
6, 4225, Note_on_c, 4, 57, 75
6, 4225, Note_on_c, 4, 60, 91
6, 4225, Note_on_c, 4, 64, 83
6, 4259, Note_off_c, 4, 57, 0
6, 4262, Control_c, 4, 64, 127
6, 4273, Note_on_c, 4, 57, 63
6, 4276, Note_off_c, 4, 60, 0
6, 4279, Note_off_c, 4, 64, 0
6, 4287, Note_off_c, 4, 57, 0
6, 4321, Note_on_c, 4, 60, 87
6, 4321, Note_on_c, 4, 64, 83
6, 4363, Note_off_c, 4, 64, 0
6, 4366, Note_off_c, 4, 60, 0
6, 4367, Note_off_c, 4, 45, 0
6, 4369, Note_on_c, 4, 57, 63
6, 4380, Note_off_c, 4, 57, 0
6, 4414, Control_c, 4, 64, 0
6, 4417, Note_on_c, 4, 43, 79
6, 4417, Note_on_c, 4, 55, 75
6, 4417, Note_on_c, 4, 60, 83
6, 4417, Note_on_c, 4, 64, 87
6, 4452, Note_off_c, 4, 55, 0
6, 4452, Control_c, 4, 64, 127
6, 4463, Note_off_c, 4, 60, 0
6, 4463, Note_off_c, 4, 64, 0
6, 4465, Note_on_c, 4, 55, 66
6, 4476, Note_off_c, 4, 55, 0
6, 4513, Note_on_c, 4, 60, 95
6, 4513, Note_on_c, 4, 64, 91
6, 4554, Note_off_c, 4, 60, 0
6, 4555, Note_off_c, 4, 64, 0
6, 4561, Note_on_c, 4, 55, 60
6, 4568, Note_off_c, 4, 43, 0
6, 4568, Note_off_c, 4, 55, 0
6, 4609, Note_on_c, 4, 41, 83
6, 4609, Note_on_c, 4, 60, 79
6, 4609, Note_on_c, 4, 65, 87
6, 4609, Note_on_c, 4, 69, 79
6, 4611, Control_c, 4, 64, 0
6, 4648, Control_c, 4, 64, 127
6, 4650, Note_off_c, 4, 60, 0
6, 4657, Note_on_c, 4, 60, 53
6, 4659, Note_off_c, 4, 69, 0
6, 4660, Note_off_c, 4, 65, 0
6, 4673, Note_off_c, 4, 60, 0
6, 4705, Note_on_c, 4, 65, 79
6, 4705, Note_on_c, 4, 69, 79
6, 4746, Note_off_c, 4, 65, 0
6, 4751, Note_off_c, 4, 69, 0
6, 4753, Note_on_c, 4, 60, 66
6, 4762, Note_off_c, 4, 41, 0
6, 4771, Note_off_c, 4, 60, 0
6, 4801, Note_on_c, 4, 40, 79
6, 4801, Note_on_c, 4, 64, 87
6, 4801, Note_on_c, 4, 69, 79
6, 4804, Control_c, 4, 64, 0
6, 4838, Control_c, 4, 64, 127
6, 4849, Note_off_c, 4, 69, 0
6, 4849, Note_on_c, 4, 60, 70
6, 4851, Note_off_c, 4, 64, 0
6, 4872, Note_off_c, 4, 60, 0
6, 4897, Note_on_c, 4, 64, 87
6, 4897, Note_on_c, 4, 69, 72
6, 4943, Note_off_c, 4, 69, 0
6, 4944, Note_off_c, 4, 40, 0
6, 4945, Note_off_c, 4, 64, 0
6, 4945, Note_on_c, 4, 60, 72
6, 4951, Note_off_c, 4, 60, 0
6, 4990, Control_c, 4, 64, 0
6, 4993, Note_on_c, 4, 38, 83
6, 4993, Note_on_c, 4, 57, 60
6, 4993, Note_on_c, 4, 62, 79
6, 4993, Note_on_c, 4, 65, 83
6, 5027, Note_off_c, 4, 57, 0
6, 5028, Control_c, 4, 64, 127
6, 5041, Note_on_c, 4, 57, 29
6, 5042, Note_off_c, 4, 62, 0
6, 5044, Note_off_c, 4, 65, 0
6, 5062, Note_off_c, 4, 57, 0
6, 5089, Note_on_c, 4, 62, 87
6, 5089, Note_on_c, 4, 65, 91
6, 5133, Note_off_c, 4, 62, 0
6, 5135, Note_off_c, 4, 65, 0
6, 5137, Note_on_c, 4, 57, 55
6, 5140, Note_off_c, 4, 38, 0
6, 5158, Note_off_c, 4, 57, 0
6, 5185, Note_on_c, 4, 36, 83
6, 5185, Note_on_c, 4, 60, 83
6, 5185, Note_on_c, 4, 65, 87
6, 5187, Control_c, 4, 64, 0
6, 5208, Control_c, 4, 64, 127
6, 5233, Note_off_c, 4, 60, 0
6, 5233, Note_off_c, 4, 65, 0
6, 5233, Note_on_c, 4, 57, 60
6, 5251, Note_off_c, 4, 57, 0
6, 5281, Note_on_c, 4, 60, 87
6, 5281, Note_on_c, 4, 65, 91
6, 5326, Note_off_c, 4, 60, 0
6, 5329, Note_off_c, 4, 65, 0
6, 5329, Note_on_c, 4, 57, 58
6, 5330, Note_off_c, 4, 36, 0
6, 5336, Note_off_c, 4, 57, 0
6, 5377, Note_on_c, 4, 43, 87
6, 5377, Note_on_c, 4, 62, 75
6, 5377, Note_on_c, 4, 67, 79
6, 5377, Note_on_c, 4, 71, 75
6, 5380, Control_c, 4, 64, 0
6, 5414, Control_c, 4, 64, 127
6, 5417, Note_off_c, 4, 62, 0
6, 5425, Note_on_c, 4, 62, 51
6, 5426, Note_off_c, 4, 67, 0
6, 5427, Note_off_c, 4, 71, 0
6, 5446, Note_off_c, 4, 62, 0
6, 5473, Note_on_c, 4, 67, 83
6, 5473, Note_on_c, 4, 71, 83
6, 5519, Note_off_c, 4, 43, 0
6, 5519, Note_off_c, 4, 67, 0
6, 5521, Note_on_c, 4, 62, 55
6, 5522, Note_off_c, 4, 71, 0
6, 5536, Note_off_c, 4, 62, 0
6, 5569, Note_on_c, 4, 41, 91
6, 5569, Note_on_c, 4, 65, 79
6, 5569, Note_on_c, 4, 71, 91
6, 5570, Control_c, 4, 64, 0
6, 5598, Control_c, 4, 64, 127
6, 5617, Note_on_c, 4, 62, 72
6, 5621, Note_off_c, 4, 65, 0
6, 5621, Note_off_c, 4, 71, 0
6, 5631, Note_off_c, 4, 62, 0
6, 5665, Note_on_c, 4, 65, 75
6, 5665, Note_on_c, 4, 71, 72
6, 5713, Note_on_c, 4, 62, 60
6, 5715, Note_off_c, 4, 41, 0
6, 5718, Note_off_c, 4, 71, 0
6, 5719, Note_off_c, 4, 65, 0
6, 5724, Note_off_c, 4, 62, 0
6, 5761, Note_on_c, 4, 40, 75
6, 5761, Note_on_c, 4, 59, 70
6, 5761, Note_on_c, 4, 64, 75
6, 5761, Note_on_c, 4, 67, 83
6, 5763, Control_c, 4, 64, 0
6, 5791, Note_off_c, 4, 59, 0
6, 5800, Control_c, 4, 64, 127
6, 5804, Note_off_c, 4, 64, 0
6, 5805, Note_off_c, 4, 67, 0
6, 5809, Note_on_c, 4, 59, 49
6, 5822, Note_off_c, 4, 59, 0
6, 5857, Note_on_c, 4, 64, 87
6, 5857, Note_on_c, 4, 67, 83
6, 5903, Note_off_c, 4, 40, 0
6, 5903, Note_off_c, 4, 64, 0
6, 5905, Note_off_c, 4, 67, 0
6, 5905, Note_on_c, 4, 59, 60
6, 5927, Note_off_c, 4, 59, 0
6, 5949, Control_c, 4, 64, 0
6, 5953, Note_on_c, 4, 38, 87
6, 5953, Note_on_c, 4, 62, 83
6, 5953, Note_on_c, 4, 67, 87
6, 5981, Control_c, 4, 64, 127
6, 5998, Note_off_c, 4, 62, 0
6, 6001, Note_off_c, 4, 67, 0
6, 6001, Note_on_c, 4, 59, 70
6, 6023, Note_off_c, 4, 59, 0
6, 6049, Note_on_c, 4, 62, 79
6, 6049, Note_on_c, 4, 67, 87
6, 6095, Note_off_c, 4, 67, 0
6, 6097, Note_off_c, 4, 62, 0
6, 6097, Note_on_c, 4, 59, 55
6, 6105, Note_off_c, 4, 59, 0
6, 6107, Note_off_c, 4, 38, 0
6, 6145, Note_on_c, 4, 48, 91
6, 6145, Note_on_c, 4, 60, 87
6, 6145, Note_on_c, 4, 64, 79
6, 6145, Note_on_c, 4, 67, 87
6, 6146, Control_c, 4, 64, 127
6, 6180, Note_off_c, 4, 60, 0
6, 6189, Note_off_c, 4, 67, 0
6, 6190, Note_off_c, 4, 64, 0
6, 6193, Note_on_c, 4, 60, 55
6, 6208, Note_off_c, 4, 60, 0
6, 6241, Note_on_c, 4, 64, 95
6, 6241, Note_on_c, 4, 67, 87
6, 6285, Note_off_c, 4, 67, 0
6, 6287, Note_off_c, 4, 64, 0
6, 6289, Note_on_c, 4, 60, 70
6, 6305, Note_off_c, 4, 60, 0
6, 6308, Note_off_c, 4, 48, 0
6, 6337, Note_on_c, 4, 47, 95
6, 6337, Note_on_c, 4, 59, 79
6, 6337, Note_on_c, 4, 64, 83
6, 6337, Note_on_c, 4, 67, 79
6, 6339, Control_c, 4, 64, 0
6, 6375, Note_off_c, 4, 59, 0
6, 6376, Control_c, 4, 64, 127
6, 6385, Note_off_c, 4, 64, 0
6, 6385, Note_off_c, 4, 67, 0
6, 6385, Note_on_c, 4, 59, 60
6, 6399, Note_off_c, 4, 59, 0
6, 6433, Note_on_c, 4, 64, 87
6, 6433, Note_on_c, 4, 67, 79
6, 6479, Note_off_c, 4, 64, 0
6, 6479, Note_off_c, 4, 67, 0
6, 6481, Note_on_c, 4, 59, 66
6, 6485, Note_off_c, 4, 47, 0
6, 6490, Note_off_c, 4, 59, 0
6, 6528, Control_c, 4, 64, 0
6, 6529, Note_on_c, 4, 45, 75
6, 6529, Note_on_c, 4, 57, 75
6, 6529, Note_on_c, 4, 60, 91
6, 6529, Note_on_c, 4, 64, 83
6, 6563, Note_off_c, 4, 57, 0
6, 6566, Control_c, 4, 64, 127
6, 6577, Note_on_c, 4, 57, 63
6, 6580, Note_off_c, 4, 60, 0
6, 6583, Note_off_c, 4, 64, 0
6, 6591, Note_off_c, 4, 57, 0
6, 6625, Note_on_c, 4, 60, 87
6, 6625, Note_on_c, 4, 64, 83
6, 6667, Note_off_c, 4, 64, 0
6, 6670, Note_off_c, 4, 60, 0
6, 6671, Note_off_c, 4, 45, 0
6, 6673, Note_on_c, 4, 57, 63
6, 6684, Note_off_c, 4, 57, 0
6, 6718, Control_c, 4, 64, 0
6, 6721, Note_on_c, 4, 43, 79
6, 6721, Note_on_c, 4, 55, 75
6, 6721, Note_on_c, 4, 60, 83
6, 6721, Note_on_c, 4, 64, 87
6, 6756, Note_off_c, 4, 55, 0
6, 6756, Control_c, 4, 64, 127
6, 6767, Note_off_c, 4, 60, 0
6, 6767, Note_off_c, 4, 64, 0
6, 6769, Note_on_c, 4, 55, 66
6, 6780, Note_off_c, 4, 55, 0
6, 6817, Note_on_c, 4, 60, 95
6, 6817, Note_on_c, 4, 64, 91
6, 6858, Note_off_c, 4, 60, 0
6, 6859, Note_off_c, 4, 64, 0
6, 6865, Note_on_c, 4, 55, 60
6, 6872, Note_off_c, 4, 43, 0
6, 6872, Note_off_c, 4, 55, 0
6, 6913, Note_on_c, 4, 41, 83
6, 6913, Note_on_c, 4, 60, 79
6, 6913, Note_on_c, 4, 65, 87
6, 6913, Note_on_c, 4, 69, 79
6, 6915, Control_c, 4, 64, 0
6, 6952, Control_c, 4, 64, 127
6, 6954, Note_off_c, 4, 60, 0
6, 6961, Note_on_c, 4, 60, 53
6, 6963, Note_off_c, 4, 69, 0
6, 6964, Note_off_c, 4, 65, 0
6, 6977, Note_off_c, 4, 60, 0
6, 7009, Note_on_c, 4, 65, 79
6, 7009, Note_on_c, 4, 69, 79
6, 7050, Note_off_c, 4, 65, 0
6, 7055, Note_off_c, 4, 69, 0
6, 7057, Note_on_c, 4, 60, 66
6, 7066, Note_off_c, 4, 41, 0
6, 7075, Note_off_c, 4, 60, 0
6, 7105, Note_on_c, 4, 40, 79
6, 7105, Note_on_c, 4, 64, 87
6, 7105, Note_on_c, 4, 69, 79
6, 7108, Control_c, 4, 64, 0
6, 7142, Control_c, 4, 64, 127
6, 7153, Note_off_c, 4, 69, 0
6, 7153, Note_on_c, 4, 60, 70
6, 7155, Note_off_c, 4, 64, 0
6, 7176, Note_off_c, 4, 60, 0
6, 7201, Note_on_c, 4, 64, 87
6, 7201, Note_on_c, 4, 69, 72
6, 7247, Note_off_c, 4, 69, 0
6, 7248, Note_off_c, 4, 40, 0
6, 7249, Note_off_c, 4, 64, 0
6, 7249, Note_on_c, 4, 60, 72
6, 7255, Note_off_c, 4, 60, 0
6, 7294, Control_c, 4, 64, 0
6, 7297, Note_on_c, 4, 38, 83
6, 7297, Note_on_c, 4, 57, 60
6, 7297, Note_on_c, 4, 62, 79
6, 7297, Note_on_c, 4, 65, 83
6, 7331, Note_off_c, 4, 57, 0
6, 7332, Control_c, 4, 64, 127
6, 7345, Note_on_c, 4, 57, 29
6, 7346, Note_off_c, 4, 62, 0
6, 7348, Note_off_c, 4, 65, 0
6, 7366, Note_off_c, 4, 57, 0
6, 7393, Note_on_c, 4, 62, 87
6, 7393, Note_on_c, 4, 65, 91
6, 7437, Note_off_c, 4, 62, 0
6, 7439, Note_off_c, 4, 65, 0
6, 7441, Note_on_c, 4, 57, 55
6, 7444, Note_off_c, 4, 38, 0
6, 7462, Note_off_c, 4, 57, 0
6, 7489, Note_on_c, 4, 36, 83
6, 7489, Note_on_c, 4, 60, 83
6, 7489, Note_on_c, 4, 65, 87
6, 7491, Control_c, 4, 64, 0
6, 7512, Control_c, 4, 64, 127
6, 7537, Note_off_c, 4, 60, 0
6, 7537, Note_off_c, 4, 65, 0
6, 7537, Note_on_c, 4, 57, 60
6, 7555, Note_off_c, 4, 57, 0
6, 7585, Note_on_c, 4, 60, 87
6, 7585, Note_on_c, 4, 65, 91
6, 7630, Note_off_c, 4, 60, 0
6, 7633, Note_off_c, 4, 65, 0
6, 7633, Note_on_c, 4, 57, 58
6, 7634, Note_off_c, 4, 36, 0
6, 7640, Note_off_c, 4, 57, 0
6, 7681, Note_on_c, 4, 43, 87
6, 7681, Note_on_c, 4, 62, 75
6, 7681, Note_on_c, 4, 67, 79
6, 7681, Note_on_c, 4, 71, 75
6, 7684, Control_c, 4, 64, 0
6, 7718, Control_c, 4, 64, 127
6, 7721, Note_off_c, 4, 62, 0
6, 7729, Note_on_c, 4, 62, 51
6, 7730, Note_off_c, 4, 67, 0
6, 7731, Note_off_c, 4, 71, 0
6, 7750, Note_off_c, 4, 62, 0
6, 7777, Note_on_c, 4, 67, 83
6, 7777, Note_on_c, 4, 71, 83
6, 7823, Note_off_c, 4, 43, 0
6, 7823, Note_off_c, 4, 67, 0
6, 7825, Note_on_c, 4, 62, 55
6, 7826, Note_off_c, 4, 71, 0
6, 7840, Note_off_c, 4, 62, 0
6, 7873, Note_on_c, 4, 41, 91
6, 7873, Note_on_c, 4, 65, 79
6, 7873, Note_on_c, 4, 71, 91
6, 7874, Control_c, 4, 64, 0
6, 7902, Control_c, 4, 64, 127
6, 7921, Note_on_c, 4, 62, 72
6, 7925, Note_off_c, 4, 65, 0
6, 7925, Note_off_c, 4, 71, 0
6, 7935, Note_off_c, 4, 62, 0
6, 7969, Note_on_c, 4, 65, 75
6, 7969, Note_on_c, 4, 71, 72
6, 8017, Note_on_c, 4, 62, 60
6, 8019, Note_off_c, 4, 41, 0
6, 8022, Note_off_c, 4, 71, 0
6, 8023, Note_off_c, 4, 65, 0
6, 8028, Note_off_c, 4, 62, 0
6, 8065, Note_on_c, 4, 40, 75
6, 8065, Note_on_c, 4, 59, 70
6, 8065, Note_on_c, 4, 64, 75
6, 8065, Note_on_c, 4, 67, 83
6, 8067, Control_c, 4, 64, 0
6, 8095, Note_off_c, 4, 59, 0
6, 8104, Control_c, 4, 64, 127
6, 8108, Note_off_c, 4, 64, 0
6, 8109, Note_off_c, 4, 67, 0
6, 8113, Note_on_c, 4, 59, 49
6, 8126, Note_off_c, 4, 59, 0
6, 8161, Note_on_c, 4, 64, 87
6, 8161, Note_on_c, 4, 67, 83
6, 8207, Note_off_c, 4, 40, 0
6, 8207, Note_off_c, 4, 64, 0
6, 8209, Note_off_c, 4, 67, 0
6, 8209, Note_on_c, 4, 59, 60
6, 8231, Note_off_c, 4, 59, 0
6, 8253, Control_c, 4, 64, 0
6, 8257, Note_on_c, 4, 38, 87
6, 8257, Note_on_c, 4, 62, 83
6, 8257, Note_on_c, 4, 67, 87
6, 8285, Control_c, 4, 64, 127
6, 8302, Note_off_c, 4, 62, 0
6, 8305, Note_off_c, 4, 67, 0
6, 8305, Note_on_c, 4, 59, 70
6, 8327, Note_off_c, 4, 59, 0
6, 8353, Note_on_c, 4, 62, 79
6, 8353, Note_on_c, 4, 67, 87
6, 8399, Note_off_c, 4, 67, 0
6, 8401, Note_off_c, 4, 62, 0
6, 8401, Note_on_c, 4, 59, 55
6, 8409, Note_off_c, 4, 59, 0
6, 8411, Note_off_c, 4, 38, 0
6, 8449, Note_on_c, 4, 48, 91
6, 8449, Note_on_c, 4, 60, 87
6, 8449, Note_on_c, 4, 64, 79
6, 8449, Note_on_c, 4, 67, 87
6, 8450, Control_c, 4, 64, 127
6, 8484, Note_off_c, 4, 60, 0
6, 8493, Note_off_c, 4, 67, 0
6, 8494, Note_off_c, 4, 64, 0
6, 8497, Note_on_c, 4, 60, 55
6, 8512, Note_off_c, 4, 60, 0
6, 8545, Note_on_c, 4, 64, 95
6, 8545, Note_on_c, 4, 67, 87
6, 8589, Note_off_c, 4, 67, 0
6, 8591, Note_off_c, 4, 64, 0
6, 8593, Note_on_c, 4, 60, 70
6, 8609, Note_off_c, 4, 60, 0
6, 8612, Note_off_c, 4, 48, 0
6, 8641, Note_on_c, 4, 47, 95
6, 8641, Note_on_c, 4, 59, 79
6, 8641, Note_on_c, 4, 64, 83
6, 8641, Note_on_c, 4, 67, 79
6, 8643, Control_c, 4, 64, 0
6, 8679, Note_off_c, 4, 59, 0
6, 8680, Control_c, 4, 64, 127
6, 8689, Note_off_c, 4, 64, 0
6, 8689, Note_off_c, 4, 67, 0
6, 8689, Note_on_c, 4, 59, 60
6, 8703, Note_off_c, 4, 59, 0
6, 8737, Note_on_c, 4, 64, 87
6, 8737, Note_on_c, 4, 67, 79
6, 8783, Note_off_c, 4, 64, 0
6, 8783, Note_off_c, 4, 67, 0
6, 8785, Note_on_c, 4, 59, 66
6, 8789, Note_off_c, 4, 47, 0
6, 8794, Note_off_c, 4, 59, 0
6, 8832, Control_c, 4, 64, 0
6, 8833, Note_on_c, 4, 45, 75
6, 8833, Note_on_c, 4, 57, 75
6, 8833, Note_on_c, 4, 60, 91
6, 8833, Note_on_c, 4, 64, 83
6, 8867, Note_off_c, 4, 57, 0
6, 8870, Control_c, 4, 64, 127
6, 8881, Note_on_c, 4, 57, 63
6, 8884, Note_off_c, 4, 60, 0
6, 8887, Note_off_c, 4, 64, 0
6, 8895, Note_off_c, 4, 57, 0
6, 8929, Note_on_c, 4, 60, 87
6, 8929, Note_on_c, 4, 64, 83
6, 8971, Note_off_c, 4, 64, 0
6, 8974, Note_off_c, 4, 60, 0
6, 8975, Note_off_c, 4, 45, 0
6, 8977, Note_on_c, 4, 57, 63
6, 8988, Note_off_c, 4, 57, 0
6, 9022, Control_c, 4, 64, 0
6, 9025, Note_on_c, 4, 43, 79
6, 9025, Note_on_c, 4, 55, 75
6, 9025, Note_on_c, 4, 60, 83
6, 9025, Note_on_c, 4, 64, 87
6, 9060, Note_off_c, 4, 55, 0
6, 9060, Control_c, 4, 64, 127
6, 9071, Note_off_c, 4, 60, 0
6, 9071, Note_off_c, 4, 64, 0
6, 9073, Note_on_c, 4, 55, 66
6, 9084, Note_off_c, 4, 55, 0
6, 9121, Note_on_c, 4, 60, 95
6, 9121, Note_on_c, 4, 64, 91
6, 9162, Note_off_c, 4, 60, 0
6, 9163, Note_off_c, 4, 64, 0
6, 9169, Note_on_c, 4, 55, 60
6, 9176, Note_off_c, 4, 43, 0
6, 9176, Note_off_c, 4, 55, 0
6, 9217, Note_on_c, 4, 41, 83
6, 9217, Note_on_c, 4, 60, 79
6, 9217, Note_on_c, 4, 65, 87
6, 9217, Note_on_c, 4, 69, 79
6, 9219, Control_c, 4, 64, 0
6, 9256, Control_c, 4, 64, 127
6, 9258, Note_off_c, 4, 60, 0
6, 9265, Note_on_c, 4, 60, 53
6, 9267, Note_off_c, 4, 69, 0
6, 9268, Note_off_c, 4, 65, 0
6, 9281, Note_off_c, 4, 60, 0
6, 9313, Note_on_c, 4, 65, 79
6, 9313, Note_on_c, 4, 69, 79
6, 9354, Note_off_c, 4, 65, 0
6, 9359, Note_off_c, 4, 69, 0
6, 9361, Note_on_c, 4, 60, 66
6, 9370, Note_off_c, 4, 41, 0
6, 9379, Note_off_c, 4, 60, 0
6, 9409, Note_on_c, 4, 40, 79
6, 9409, Note_on_c, 4, 64, 87
6, 9409, Note_on_c, 4, 69, 79
6, 9412, Control_c, 4, 64, 0
6, 9446, Control_c, 4, 64, 127
6, 9457, Note_off_c, 4, 69, 0
6, 9457, Note_on_c, 4, 60, 70
6, 9459, Note_off_c, 4, 64, 0
6, 9480, Note_off_c, 4, 60, 0
6, 9505, Note_on_c, 4, 64, 87
6, 9505, Note_on_c, 4, 69, 72
6, 9551, Note_off_c, 4, 69, 0
6, 9552, Note_off_c, 4, 40, 0
6, 9553, Note_off_c, 4, 64, 0
6, 9553, Note_on_c, 4, 60, 72
6, 9559, Note_off_c, 4, 60, 0
6, 9598, Control_c, 4, 64, 0
6, 9601, Note_on_c, 4, 38, 83
6, 9601, Note_on_c, 4, 57, 60
6, 9601, Note_on_c, 4, 62, 79
6, 9601, Note_on_c, 4, 65, 83
6, 9635, Note_off_c, 4, 57, 0
6, 9636, Control_c, 4, 64, 127
6, 9649, Note_on_c, 4, 57, 29
6, 9650, Note_off_c, 4, 62, 0
6, 9652, Note_off_c, 4, 65, 0
6, 9670, Note_off_c, 4, 57, 0
6, 9697, Note_on_c, 4, 62, 87
6, 9697, Note_on_c, 4, 65, 91
6, 9741, Note_off_c, 4, 62, 0
6, 9743, Note_off_c, 4, 65, 0
6, 9745, Note_on_c, 4, 57, 55
6, 9748, Note_off_c, 4, 38, 0
6, 9766, Note_off_c, 4, 57, 0
6, 9793, Note_on_c, 4, 62, 59
6, 9793, Note_on_c, 4, 67, 73
6, 9793, Note_on_c, 4, 71, 69
6, 9795, Control_c, 4, 64, 0
6, 9852, Note_off_c, 4, 71, 0
6, 9853, Note_off_c, 4, 62, 0
6, 9853, Note_off_c, 4, 67, 0
6, 9865, Note_on_c, 4, 62, 73
6, 9865, Note_on_c, 4, 67, 77
6, 9865, Note_on_c, 4, 71, 77
6, 9910, Note_off_c, 4, 62, 0
6, 9914, Note_off_c, 4, 67, 0
6, 9916, Note_off_c, 4, 71, 0
6, 9937, Note_on_c, 4, 67, 77
6, 9937, Note_on_c, 4, 71, 85
6, 9937, Note_on_c, 4, 74, 61
6, 9976, Note_off_c, 4, 67, 0
6, 9977, Note_off_c, 4, 74, 0
6, 9978, Note_off_c, 4, 71, 0
6, 9985, Note_on_c, 4, 48, 91
6, 9985, Note_on_c, 4, 60, 87
6, 9985, Note_on_c, 4, 64, 79
6, 9985, Note_on_c, 4, 67, 87
6, 9986, Control_c, 4, 64, 127
6, 10020, Note_off_c, 4, 60, 0
6, 10029, Note_off_c, 4, 67, 0
6, 10030, Note_off_c, 4, 64, 0
6, 10033, Note_on_c, 4, 60, 55
6, 10048, Note_off_c, 4, 60, 0
6, 10081, Note_on_c, 4, 64, 95
6, 10081, Note_on_c, 4, 67, 87
6, 10125, Note_off_c, 4, 67, 0
6, 10127, Note_off_c, 4, 64, 0
6, 10129, Note_on_c, 4, 60, 70
6, 10145, Note_off_c, 4, 60, 0
6, 10148, Note_off_c, 4, 48, 0
6, 10177, Note_on_c, 4, 47, 95
6, 10177, Note_on_c, 4, 59, 79
6, 10177, Note_on_c, 4, 64, 83
6, 10177, Note_on_c, 4, 67, 79
6, 10179, Control_c, 4, 64, 0
6, 10215, Note_off_c, 4, 59, 0
6, 10216, Control_c, 4, 64, 127
6, 10225, Note_off_c, 4, 64, 0
6, 10225, Note_off_c, 4, 67, 0
6, 10225, Note_on_c, 4, 59, 60
6, 10239, Note_off_c, 4, 59, 0
6, 10273, Note_on_c, 4, 64, 87
6, 10273, Note_on_c, 4, 67, 79
6, 10319, Note_off_c, 4, 64, 0
6, 10319, Note_off_c, 4, 67, 0
6, 10321, Note_on_c, 4, 59, 66
6, 10325, Note_off_c, 4, 47, 0
6, 10330, Note_off_c, 4, 59, 0
6, 10368, Control_c, 4, 64, 0
6, 10369, Note_on_c, 4, 45, 75
6, 10369, Note_on_c, 4, 57, 75
6, 10369, Note_on_c, 4, 60, 91
6, 10369, Note_on_c, 4, 64, 83
6, 10403, Note_off_c, 4, 57, 0
6, 10406, Control_c, 4, 64, 127
6, 10417, Note_on_c, 4, 57, 63
6, 10420, Note_off_c, 4, 60, 0
6, 10423, Note_off_c, 4, 64, 0
6, 10431, Note_off_c, 4, 57, 0
6, 10465, Note_on_c, 4, 60, 87
6, 10465, Note_on_c, 4, 64, 83
6, 10507, Note_off_c, 4, 64, 0
6, 10510, Note_off_c, 4, 60, 0
6, 10511, Note_off_c, 4, 45, 0
6, 10513, Note_on_c, 4, 57, 63
6, 10524, Note_off_c, 4, 57, 0
6, 10558, Control_c, 4, 64, 0
6, 10561, Note_on_c, 4, 43, 79
6, 10561, Note_on_c, 4, 55, 75
6, 10561, Note_on_c, 4, 60, 83
6, 10561, Note_on_c, 4, 64, 87
6, 10596, Note_off_c, 4, 55, 0
6, 10596, Control_c, 4, 64, 127
6, 10607, Note_off_c, 4, 60, 0
6, 10607, Note_off_c, 4, 64, 0
6, 10609, Note_on_c, 4, 55, 66
6, 10620, Note_off_c, 4, 55, 0
6, 10657, Note_on_c, 4, 60, 95
6, 10657, Note_on_c, 4, 64, 91
6, 10698, Note_off_c, 4, 60, 0
6, 10699, Note_off_c, 4, 64, 0
6, 10705, Note_on_c, 4, 55, 60
6, 10712, Note_off_c, 4, 43, 0
6, 10712, Note_off_c, 4, 55, 0
6, 10753, Note_on_c, 4, 41, 83
6, 10753, Note_on_c, 4, 60, 79
6, 10753, Note_on_c, 4, 65, 87
6, 10753, Note_on_c, 4, 69, 79
6, 10755, Control_c, 4, 64, 0
6, 10792, Control_c, 4, 64, 127
6, 10794, Note_off_c, 4, 60, 0
6, 10801, Note_on_c, 4, 60, 53
6, 10803, Note_off_c, 4, 69, 0
6, 10804, Note_off_c, 4, 65, 0
6, 10817, Note_off_c, 4, 60, 0
6, 10849, Note_on_c, 4, 65, 79
6, 10849, Note_on_c, 4, 69, 79
6, 10890, Note_off_c, 4, 65, 0
6, 10895, Note_off_c, 4, 69, 0
6, 10897, Note_on_c, 4, 60, 66
6, 10906, Note_off_c, 4, 41, 0
6, 10915, Note_off_c, 4, 60, 0
6, 10945, Note_on_c, 4, 40, 79
6, 10945, Note_on_c, 4, 64, 87
6, 10945, Note_on_c, 4, 69, 79
6, 10948, Control_c, 4, 64, 0
6, 10982, Control_c, 4, 64, 127
6, 10993, Note_off_c, 4, 69, 0
6, 10993, Note_on_c, 4, 60, 70
6, 10995, Note_off_c, 4, 64, 0
6, 11016, Note_off_c, 4, 60, 0
6, 11041, Note_on_c, 4, 64, 87
6, 11041, Note_on_c, 4, 69, 72
6, 11087, Note_off_c, 4, 69, 0
6, 11088, Note_off_c, 4, 40, 0
6, 11089, Note_off_c, 4, 64, 0
6, 11089, Note_on_c, 4, 60, 72
6, 11095, Note_off_c, 4, 60, 0
6, 11134, Control_c, 4, 64, 0
6, 11137, Note_on_c, 4, 38, 83
6, 11137, Note_on_c, 4, 57, 60
6, 11137, Note_on_c, 4, 62, 79
6, 11137, Note_on_c, 4, 65, 83
6, 11171, Note_off_c, 4, 57, 0
6, 11172, Control_c, 4, 64, 127
6, 11185, Note_on_c, 4, 57, 29
6, 11186, Note_off_c, 4, 62, 0
6, 11188, Note_off_c, 4, 65, 0
6, 11206, Note_off_c, 4, 57, 0
6, 11233, Note_on_c, 4, 62, 87
6, 11233, Note_on_c, 4, 65, 91
6, 11277, Note_off_c, 4, 62, 0
6, 11279, Note_off_c, 4, 65, 0
6, 11281, Note_on_c, 4, 57, 55
6, 11284, Note_off_c, 4, 38, 0
6, 11302, Note_off_c, 4, 57, 0
6, 11329, Note_on_c, 4, 36, 83
6, 11329, Note_on_c, 4, 60, 83
6, 11329, Note_on_c, 4, 65, 87
6, 11331, Control_c, 4, 64, 0
6, 11352, Control_c, 4, 64, 127
6, 11377, Note_off_c, 4, 60, 0
6, 11377, Note_off_c, 4, 65, 0
6, 11377, Note_on_c, 4, 57, 60
6, 11395, Note_off_c, 4, 57, 0
6, 11425, Note_on_c, 4, 60, 87
6, 11425, Note_on_c, 4, 65, 91
6, 11470, Note_off_c, 4, 60, 0
6, 11473, Note_off_c, 4, 65, 0
6, 11473, Note_on_c, 4, 57, 58
6, 11474, Note_off_c, 4, 36, 0
6, 11480, Note_off_c, 4, 57, 0
6, 11521, Note_on_c, 4, 43, 87
6, 11521, Note_on_c, 4, 62, 75
6, 11521, Note_on_c, 4, 67, 79
6, 11521, Note_on_c, 4, 71, 75
6, 11524, Control_c, 4, 64, 0
6, 11558, Control_c, 4, 64, 127
6, 11561, Note_off_c, 4, 62, 0
6, 11569, Note_on_c, 4, 62, 51
6, 11570, Note_off_c, 4, 67, 0
6, 11571, Note_off_c, 4, 71, 0
6, 11590, Note_off_c, 4, 62, 0
6, 11617, Note_on_c, 4, 67, 83
6, 11617, Note_on_c, 4, 71, 83
6, 11663, Note_off_c, 4, 43, 0
6, 11663, Note_off_c, 4, 67, 0
6, 11665, Note_on_c, 4, 62, 55
6, 11666, Note_off_c, 4, 71, 0
6, 11680, Note_off_c, 4, 62, 0
6, 11713, Note_on_c, 4, 41, 91
6, 11713, Note_on_c, 4, 65, 79
6, 11713, Note_on_c, 4, 71, 91
6, 11714, Control_c, 4, 64, 0
6, 11742, Control_c, 4, 64, 127
6, 11761, Note_on_c, 4, 62, 72
6, 11765, Note_off_c, 4, 65, 0
6, 11765, Note_off_c, 4, 71, 0
6, 11775, Note_off_c, 4, 62, 0
6, 11809, Note_on_c, 4, 65, 75
6, 11809, Note_on_c, 4, 71, 72
6, 11857, Note_on_c, 4, 62, 60
6, 11859, Note_off_c, 4, 41, 0
6, 11862, Note_off_c, 4, 71, 0
6, 11863, Note_off_c, 4, 65, 0
6, 11868, Note_off_c, 4, 62, 0
6, 11905, Note_on_c, 4, 40, 75
6, 11905, Note_on_c, 4, 59, 70
6, 11905, Note_on_c, 4, 64, 75
6, 11905, Note_on_c, 4, 67, 83
6, 11907, Control_c, 4, 64, 0
6, 11935, Note_off_c, 4, 59, 0
6, 11944, Control_c, 4, 64, 127
6, 11948, Note_off_c, 4, 64, 0
6, 11949, Note_off_c, 4, 67, 0
6, 11953, Note_on_c, 4, 59, 49
6, 11966, Note_off_c, 4, 59, 0
6, 12001, Note_on_c, 4, 64, 87
6, 12001, Note_on_c, 4, 67, 83
6, 12047, Note_off_c, 4, 40, 0
6, 12047, Note_off_c, 4, 64, 0
6, 12049, Note_off_c, 4, 67, 0
6, 12049, Note_on_c, 4, 59, 60
6, 12071, Note_off_c, 4, 59, 0
6, 12093, Control_c, 4, 64, 0
6, 12097, Note_on_c, 4, 38, 87
6, 12097, Note_on_c, 4, 62, 83
6, 12097, Note_on_c, 4, 67, 87
6, 12125, Control_c, 4, 64, 127
6, 12142, Note_off_c, 4, 62, 0
6, 12145, Note_off_c, 4, 67, 0
6, 12145, Note_on_c, 4, 59, 70
6, 12167, Note_off_c, 4, 59, 0
6, 12193, Note_on_c, 4, 62, 79
6, 12193, Note_on_c, 4, 67, 87
6, 12239, Note_off_c, 4, 67, 0
6, 12241, Note_off_c, 4, 62, 0
6, 12241, Note_on_c, 4, 59, 55
6, 12249, Note_off_c, 4, 59, 0
6, 12251, Note_off_c, 4, 38, 0
6, 12289, Note_on_c, 4, 48, 72
6, 12289, Note_on_c, 4, 64, 70
6, 12289, Note_on_c, 4, 67, 79
6, 12289, Note_on_c, 4, 72, 72
6, 12317, Control_c, 4, 64, 127
6, 12328, Note_off_c, 4, 64, 0
6, 12337, Note_on_c, 4, 64, 39
6, 12341, Note_off_c, 4, 67, 0
6, 12343, Note_off_c, 4, 72, 0
6, 12352, Note_off_c, 4, 64, 0
6, 12385, Note_on_c, 4, 67, 83
6, 12385, Note_on_c, 4, 72, 66
6, 12432, Note_off_c, 4, 67, 0
6, 12433, Note_on_c, 4, 64, 51
6, 12434, Note_off_c, 4, 72, 0
6, 12435, Note_off_c, 4, 48, 0
6, 12445, Note_off_c, 4, 64, 0
6, 12481, Note_on_c, 4, 41, 56
6, 12481, Note_on_c, 4, 65, 72
6, 12481, Note_on_c, 4, 69, 83
6, 12481, Note_on_c, 4, 72, 72
6, 12485, Control_c, 4, 64, 0
6, 12516, Control_c, 4, 64, 127
6, 12517, Note_off_c, 4, 65, 0
6, 12529, Note_off_c, 4, 69, 0
6, 12529, Note_on_c, 4, 65, 40
6, 12531, Note_off_c, 4, 72, 0
6, 12547, Note_off_c, 4, 65, 0
6, 12577, Note_on_c, 4, 65, 72
6, 12577, Note_on_c, 4, 69, 79
6, 12577, Note_on_c, 4, 72, 72
6, 12607, Note_off_c, 4, 65, 0
6, 12621, Note_off_c, 4, 69, 0
6, 12623, Note_off_c, 4, 72, 0
6, 12625, Note_on_c, 4, 65, 29
6, 12633, Note_off_c, 4, 65, 0
6, 12642, Note_off_c, 4, 41, 0
6, 12673, Note_on_c, 4, 48, 56
6, 12673, Note_on_c, 4, 64, 70
6, 12673, Note_on_c, 4, 67, 70
6, 12673, Note_on_c, 4, 72, 60
6, 12678, Control_c, 4, 64, 0
6, 12707, Note_off_c, 4, 64, 0
6, 12712, Control_c, 4, 64, 127
6, 12720, Note_off_c, 4, 67, 0
6, 12720, Note_off_c, 4, 72, 0
6, 12721, Note_on_c, 4, 64, 39
6, 12739, Note_off_c, 4, 64, 0
6, 12769, Note_on_c, 4, 64, 70
6, 12769, Note_on_c, 4, 67, 72
6, 12769, Note_on_c, 4, 72, 66
6, 12807, Note_off_c, 4, 64, 0
6, 12812, Note_off_c, 4, 67, 0
6, 12812, Note_off_c, 4, 72, 0
6, 12818, Note_off_c, 4, 48, 0
6, 12858, Control_c, 4, 64, 0
6, 12865, Note_on_c, 4, 43, 58
6, 12865, Note_on_c, 4, 62, 79
6, 12865, Note_on_c, 4, 67, 79
6, 12865, Note_on_c, 4, 72, 72
6, 12943, Note_off_c, 4, 72, 0
6, 12946, Note_off_c, 4, 62, 0
6, 12947, Note_off_c, 4, 67, 0
6, 12961, Note_on_c, 4, 62, 72
6, 12961, Note_on_c, 4, 67, 75
6, 12961, Note_on_c, 4, 71, 79
6, 13040, Note_off_c, 4, 62, 0
6, 13040, Note_off_c, 4, 67, 0
6, 13042, Note_off_c, 4, 71, 0
6, 13044, Note_off_c, 4, 43, 0
6, 13057, Note_on_c, 4, 48, 91
6, 13057, Note_on_c, 4, 60, 87
6, 13057, Note_on_c, 4, 64, 79
6, 13057, Note_on_c, 4, 67, 87
6, 13058, Control_c, 4, 64, 127
6, 13092, Note_off_c, 4, 60, 0
6, 13101, Note_off_c, 4, 67, 0
6, 13102, Note_off_c, 4, 64, 0
6, 13105, Note_on_c, 4, 60, 55
6, 13120, Note_off_c, 4, 60, 0
6, 13153, Note_on_c, 4, 64, 95
6, 13153, Note_on_c, 4, 67, 87
6, 13197, Note_off_c, 4, 67, 0
6, 13199, Note_off_c, 4, 64, 0
6, 13201, Note_on_c, 4, 60, 70
6, 13217, Note_off_c, 4, 60, 0
6, 13220, Note_off_c, 4, 48, 0
6, 13249, Note_on_c, 4, 47, 95
6, 13249, Note_on_c, 4, 59, 79
6, 13249, Note_on_c, 4, 64, 83
6, 13249, Note_on_c, 4, 67, 79
6, 13251, Control_c, 4, 64, 0
6, 13287, Note_off_c, 4, 59, 0
6, 13288, Control_c, 4, 64, 127
6, 13297, Note_off_c, 4, 64, 0
6, 13297, Note_off_c, 4, 67, 0
6, 13297, Note_on_c, 4, 59, 60
6, 13311, Note_off_c, 4, 59, 0
6, 13345, Note_on_c, 4, 64, 87
6, 13345, Note_on_c, 4, 67, 79
6, 13391, Note_off_c, 4, 64, 0
6, 13391, Note_off_c, 4, 67, 0
6, 13393, Note_on_c, 4, 59, 66
6, 13397, Note_off_c, 4, 47, 0
6, 13402, Note_off_c, 4, 59, 0
6, 13440, Control_c, 4, 64, 0
6, 13441, Note_on_c, 4, 45, 75
6, 13441, Note_on_c, 4, 57, 75
6, 13441, Note_on_c, 4, 60, 91
6, 13441, Note_on_c, 4, 64, 83
6, 13475, Note_off_c, 4, 57, 0
6, 13478, Control_c, 4, 64, 127
6, 13489, Note_on_c, 4, 57, 63
6, 13492, Note_off_c, 4, 60, 0
6, 13495, Note_off_c, 4, 64, 0
6, 13503, Note_off_c, 4, 57, 0
6, 13537, Note_on_c, 4, 60, 87
6, 13537, Note_on_c, 4, 64, 83
6, 13579, Note_off_c, 4, 64, 0
6, 13582, Note_off_c, 4, 60, 0
6, 13583, Note_off_c, 4, 45, 0
6, 13585, Note_on_c, 4, 57, 63
6, 13596, Note_off_c, 4, 57, 0
6, 13630, Control_c, 4, 64, 0
6, 13633, Note_on_c, 4, 43, 79
6, 13633, Note_on_c, 4, 55, 75
6, 13633, Note_on_c, 4, 60, 83
6, 13633, Note_on_c, 4, 64, 87
6, 13668, Note_off_c, 4, 55, 0
6, 13668, Control_c, 4, 64, 127
6, 13679, Note_off_c, 4, 60, 0
6, 13679, Note_off_c, 4, 64, 0
6, 13681, Note_on_c, 4, 55, 66
6, 13692, Note_off_c, 4, 55, 0
6, 13729, Note_on_c, 4, 60, 95
6, 13729, Note_on_c, 4, 64, 91
6, 13770, Note_off_c, 4, 60, 0
6, 13771, Note_off_c, 4, 64, 0
6, 13777, Note_on_c, 4, 55, 60
6, 13784, Note_off_c, 4, 43, 0
6, 13784, Note_off_c, 4, 55, 0
6, 13825, Note_on_c, 4, 41, 83
6, 13825, Note_on_c, 4, 60, 79
6, 13825, Note_on_c, 4, 65, 87
6, 13825, Note_on_c, 4, 69, 79
6, 13827, Control_c, 4, 64, 0
6, 13864, Control_c, 4, 64, 127
6, 13866, Note_off_c, 4, 60, 0
6, 13873, Note_on_c, 4, 60, 53
6, 13875, Note_off_c, 4, 69, 0
6, 13876, Note_off_c, 4, 65, 0
6, 13889, Note_off_c, 4, 60, 0
6, 13921, Note_on_c, 4, 65, 79
6, 13921, Note_on_c, 4, 69, 79
6, 13962, Note_off_c, 4, 65, 0
6, 13967, Note_off_c, 4, 69, 0
6, 13969, Note_on_c, 4, 60, 66
6, 13978, Note_off_c, 4, 41, 0
6, 13987, Note_off_c, 4, 60, 0
6, 14017, Note_on_c, 4, 40, 79
6, 14017, Note_on_c, 4, 64, 87
6, 14017, Note_on_c, 4, 69, 79
6, 14020, Control_c, 4, 64, 0
6, 14054, Control_c, 4, 64, 127
6, 14065, Note_off_c, 4, 69, 0
6, 14065, Note_on_c, 4, 60, 70
6, 14067, Note_off_c, 4, 64, 0
6, 14088, Note_off_c, 4, 60, 0
6, 14113, Note_on_c, 4, 64, 87
6, 14113, Note_on_c, 4, 69, 72
6, 14159, Note_off_c, 4, 69, 0
6, 14160, Note_off_c, 4, 40, 0
6, 14161, Note_off_c, 4, 64, 0
6, 14161, Note_on_c, 4, 60, 72
6, 14167, Note_off_c, 4, 60, 0
6, 14206, Control_c, 4, 64, 0
6, 14209, Note_on_c, 4, 38, 83
6, 14209, Note_on_c, 4, 57, 60
6, 14209, Note_on_c, 4, 62, 79
6, 14209, Note_on_c, 4, 65, 83
6, 14243, Note_off_c, 4, 57, 0
6, 14244, Control_c, 4, 64, 127
6, 14257, Note_on_c, 4, 57, 29
6, 14258, Note_off_c, 4, 62, 0
6, 14260, Note_off_c, 4, 65, 0
6, 14278, Note_off_c, 4, 57, 0
6, 14305, Note_on_c, 4, 62, 87
6, 14305, Note_on_c, 4, 65, 91
6, 14349, Note_off_c, 4, 62, 0
6, 14351, Note_off_c, 4, 65, 0
6, 14353, Note_on_c, 4, 57, 55
6, 14356, Note_off_c, 4, 38, 0
6, 14374, Note_off_c, 4, 57, 0
6, 14401, Note_on_c, 4, 36, 83
6, 14401, Note_on_c, 4, 60, 83
6, 14401, Note_on_c, 4, 65, 87
6, 14403, Control_c, 4, 64, 0
6, 14424, Control_c, 4, 64, 127
6, 14449, Note_off_c, 4, 60, 0
6, 14449, Note_off_c, 4, 65, 0
6, 14449, Note_on_c, 4, 57, 60
6, 14467, Note_off_c, 4, 57, 0
6, 14497, Note_on_c, 4, 60, 87
6, 14497, Note_on_c, 4, 65, 91
6, 14542, Note_off_c, 4, 60, 0
6, 14545, Note_off_c, 4, 65, 0
6, 14545, Note_on_c, 4, 57, 58
6, 14546, Note_off_c, 4, 36, 0
6, 14552, Note_off_c, 4, 57, 0
6, 14593, Note_on_c, 4, 43, 87
6, 14593, Note_on_c, 4, 62, 75
6, 14593, Note_on_c, 4, 67, 79
6, 14593, Note_on_c, 4, 71, 75
6, 14596, Control_c, 4, 64, 0
6, 14630, Control_c, 4, 64, 127
6, 14633, Note_off_c, 4, 62, 0
6, 14641, Note_on_c, 4, 62, 51
6, 14642, Note_off_c, 4, 67, 0
6, 14643, Note_off_c, 4, 71, 0
6, 14662, Note_off_c, 4, 62, 0
6, 14689, Note_on_c, 4, 67, 83
6, 14689, Note_on_c, 4, 71, 83
6, 14735, Note_off_c, 4, 43, 0
6, 14735, Note_off_c, 4, 67, 0
6, 14737, Note_on_c, 4, 62, 55
6, 14738, Note_off_c, 4, 71, 0
6, 14752, Note_off_c, 4, 62, 0
6, 14785, Note_on_c, 4, 41, 91
6, 14785, Note_on_c, 4, 65, 79
6, 14785, Note_on_c, 4, 71, 91
6, 14786, Control_c, 4, 64, 0
6, 14814, Control_c, 4, 64, 127
6, 14833, Note_on_c, 4, 62, 72
6, 14837, Note_off_c, 4, 65, 0
6, 14837, Note_off_c, 4, 71, 0
6, 14847, Note_off_c, 4, 62, 0
6, 14881, Note_on_c, 4, 65, 75
6, 14881, Note_on_c, 4, 71, 72
6, 14929, Note_on_c, 4, 62, 60
6, 14931, Note_off_c, 4, 41, 0
6, 14934, Note_off_c, 4, 71, 0
6, 14935, Note_off_c, 4, 65, 0
6, 14940, Note_off_c, 4, 62, 0
6, 14977, Note_on_c, 4, 40, 75
6, 14977, Note_on_c, 4, 59, 70
6, 14977, Note_on_c, 4, 64, 75
6, 14977, Note_on_c, 4, 67, 83
6, 14979, Control_c, 4, 64, 0
6, 15007, Note_off_c, 4, 59, 0
6, 15016, Control_c, 4, 64, 127
6, 15020, Note_off_c, 4, 64, 0
6, 15021, Note_off_c, 4, 67, 0
6, 15025, Note_on_c, 4, 59, 49
6, 15038, Note_off_c, 4, 59, 0
6, 15073, Note_on_c, 4, 64, 87
6, 15073, Note_on_c, 4, 67, 83
6, 15119, Note_off_c, 4, 40, 0
6, 15119, Note_off_c, 4, 64, 0
6, 15121, Note_off_c, 4, 67, 0
6, 15121, Note_on_c, 4, 59, 60
6, 15143, Note_off_c, 4, 59, 0
6, 15165, Control_c, 4, 64, 0
6, 15169, Note_on_c, 4, 38, 87
6, 15169, Note_on_c, 4, 62, 83
6, 15169, Note_on_c, 4, 67, 87
6, 15197, Control_c, 4, 64, 127
6, 15214, Note_off_c, 4, 62, 0
6, 15217, Note_off_c, 4, 67, 0
6, 15217, Note_on_c, 4, 59, 70
6, 15239, Note_off_c, 4, 59, 0
6, 15265, Note_on_c, 4, 62, 79
6, 15265, Note_on_c, 4, 67, 87
6, 15311, Note_off_c, 4, 67, 0
6, 15313, Note_off_c, 4, 62, 0
6, 15313, Note_on_c, 4, 59, 55
6, 15321, Note_off_c, 4, 59, 0
6, 15323, Note_off_c, 4, 38, 0
6, 15361, Note_on_c, 4, 36, 91
6, 15361, Note_on_c, 4, 60, 72
6, 15361, Note_on_c, 4, 64, 91
6, 15361, Note_on_c, 4, 67, 87
6, 15362, Control_c, 4, 64, 0
6, 15390, Note_off_c, 4, 60, 0
6, 15393, Control_c, 4, 64, 127
6, 15403, Note_off_c, 4, 64, 0
6, 15406, Note_off_c, 4, 67, 0
6, 15409, Note_on_c, 4, 60, 58
6, 15422, Note_off_c, 4, 60, 0
6, 15457, Note_on_c, 4, 64, 87
6, 15457, Note_on_c, 4, 67, 87
6, 15496, Note_off_c, 4, 36, 0
6, 15499, Note_off_c, 4, 64, 0
6, 15500, Note_off_c, 4, 67, 0
6, 15505, Note_on_c, 4, 60, 60
6, 15520, Note_off_c, 4, 60, 0
6, 15553, Note_on_c, 4, 41, 75
6, 15553, Note_on_c, 4, 65, 79
6, 15553, Note_on_c, 4, 69, 95
6, 15555, Control_c, 4, 64, 0
6, 15589, Control_c, 4, 64, 127
6, 15599, Note_off_c, 4, 65, 0
6, 15601, Note_off_c, 4, 69, 0
6, 15601, Note_on_c, 4, 60, 70
6, 15624, Note_off_c, 4, 60, 0
6, 15649, Note_on_c, 4, 65, 75
6, 15649, Note_on_c, 4, 69, 99
6, 15688, Note_off_c, 4, 65, 0
6, 15689, Note_off_c, 4, 41, 0
6, 15691, Note_off_c, 4, 69, 0
6, 15697, Note_on_c, 4, 60, 58
6, 15708, Note_off_c, 4, 60, 0
6, 15741, Control_c, 4, 64, 0
6, 15745, Note_on_c, 4, 43, 95
6, 15745, Note_on_c, 4, 62, 79
6, 15745, Note_on_c, 4, 67, 83
6, 15745, Note_on_c, 4, 71, 87
6, 15776, Control_c, 4, 64, 127
6, 15779, Note_off_c, 4, 62, 0
6, 15790, Note_off_c, 4, 67, 0
6, 15791, Note_off_c, 4, 71, 0
6, 15793, Note_on_c, 4, 62, 56
6, 15812, Note_off_c, 4, 62, 0
6, 15841, Note_on_c, 4, 67, 79
6, 15841, Note_on_c, 4, 71, 91
6, 15885, Note_off_c, 4, 67, 0
6, 15885, Note_off_c, 4, 71, 0
6, 15888, Note_off_c, 4, 43, 0
6, 15889, Note_on_c, 4, 62, 55
6, 15908, Note_off_c, 4, 62, 0
6, 15934, Control_c, 4, 64, 0
6, 15937, Note_on_c, 4, 43, 87
6, 15937, Note_on_c, 4, 62, 79
6, 15937, Note_on_c, 4, 65, 87
6, 15937, Note_on_c, 4, 71, 91
6, 15966, Control_c, 4, 64, 127
6, 15969, Note_off_c, 4, 62, 0
6, 15980, Note_off_c, 4, 65, 0
6, 15983, Note_off_c, 4, 71, 0
6, 15985, Note_on_c, 4, 62, 56
6, 15999, Note_off_c, 4, 62, 0
6, 16033, Note_on_c, 4, 31, 87
6, 16033, Note_on_c, 4, 65, 83
6, 16033, Note_on_c, 4, 71, 87
6, 16077, Note_off_c, 4, 65, 0
6, 16078, Note_off_c, 4, 71, 0
6, 16081, Note_on_c, 4, 62, 70
6, 16102, Note_off_c, 4, 62, 0
6, 16112, Control_c, 4, 64, 0
6, 16121, Note_off_c, 4, 43, 0
6, 16125, Note_off_c, 4, 31, 0
6, 16129, Note_on_c, 4, 48, 91
6, 16129, Note_on_c, 4, 60, 87
6, 16129, Note_on_c, 4, 64, 79
6, 16129, Note_on_c, 4, 67, 87
6, 16130, Control_c, 4, 64, 127
6, 16164, Note_off_c, 4, 60, 0
6, 16173, Note_off_c, 4, 67, 0
6, 16174, Note_off_c, 4, 64, 0
6, 16177, Note_on_c, 4, 60, 55
6, 16192, Note_off_c, 4, 60, 0
6, 16225, Note_on_c, 4, 64, 95
6, 16225, Note_on_c, 4, 67, 87
6, 16269, Note_off_c, 4, 67, 0
6, 16271, Note_off_c, 4, 64, 0
6, 16273, Note_on_c, 4, 60, 70
6, 16289, Note_off_c, 4, 60, 0
6, 16292, Note_off_c, 4, 48, 0
6, 16321, Note_on_c, 4, 47, 95
6, 16321, Note_on_c, 4, 59, 79
6, 16321, Note_on_c, 4, 64, 83
6, 16321, Note_on_c, 4, 67, 79
6, 16323, Control_c, 4, 64, 0
6, 16359, Note_off_c, 4, 59, 0
6, 16360, Control_c, 4, 64, 127
6, 16369, Note_off_c, 4, 64, 0
6, 16369, Note_off_c, 4, 67, 0
6, 16369, Note_on_c, 4, 59, 60
6, 16383, Note_off_c, 4, 59, 0
6, 16417, Note_on_c, 4, 64, 87
6, 16417, Note_on_c, 4, 67, 79
6, 16463, Note_off_c, 4, 64, 0
6, 16463, Note_off_c, 4, 67, 0
6, 16465, Note_on_c, 4, 59, 66
6, 16469, Note_off_c, 4, 47, 0
6, 16474, Note_off_c, 4, 59, 0
6, 16512, Control_c, 4, 64, 0
6, 16513, Note_on_c, 4, 45, 75
6, 16513, Note_on_c, 4, 57, 75
6, 16513, Note_on_c, 4, 60, 91
6, 16513, Note_on_c, 4, 64, 83
6, 16547, Note_off_c, 4, 57, 0
6, 16550, Control_c, 4, 64, 127
6, 16561, Note_on_c, 4, 57, 63
6, 16564, Note_off_c, 4, 60, 0
6, 16567, Note_off_c, 4, 64, 0
6, 16575, Note_off_c, 4, 57, 0
6, 16609, Note_on_c, 4, 60, 87
6, 16609, Note_on_c, 4, 64, 83
6, 16651, Note_off_c, 4, 64, 0
6, 16654, Note_off_c, 4, 60, 0
6, 16655, Note_off_c, 4, 45, 0
6, 16657, Note_on_c, 4, 57, 63
6, 16668, Note_off_c, 4, 57, 0
6, 16702, Control_c, 4, 64, 0
6, 16705, Note_on_c, 4, 43, 79
6, 16705, Note_on_c, 4, 55, 75
6, 16705, Note_on_c, 4, 60, 83
6, 16705, Note_on_c, 4, 64, 87
6, 16740, Note_off_c, 4, 55, 0
6, 16740, Control_c, 4, 64, 127
6, 16751, Note_off_c, 4, 60, 0
6, 16751, Note_off_c, 4, 64, 0
6, 16753, Note_on_c, 4, 55, 66
6, 16764, Note_off_c, 4, 55, 0
6, 16801, Note_on_c, 4, 60, 95
6, 16801, Note_on_c, 4, 64, 91
6, 16842, Note_off_c, 4, 60, 0
6, 16843, Note_off_c, 4, 64, 0
6, 16849, Note_on_c, 4, 55, 60
6, 16856, Note_off_c, 4, 43, 0
6, 16856, Note_off_c, 4, 55, 0
6, 16897, Note_on_c, 4, 41, 83
6, 16897, Note_on_c, 4, 60, 79
6, 16897, Note_on_c, 4, 65, 87
6, 16897, Note_on_c, 4, 69, 79
6, 16899, Control_c, 4, 64, 0
6, 16936, Control_c, 4, 64, 127
6, 16938, Note_off_c, 4, 60, 0
6, 16945, Note_on_c, 4, 60, 53
6, 16947, Note_off_c, 4, 69, 0
6, 16948, Note_off_c, 4, 65, 0
6, 16961, Note_off_c, 4, 60, 0
6, 16993, Note_on_c, 4, 65, 79
6, 16993, Note_on_c, 4, 69, 79
6, 17034, Note_off_c, 4, 65, 0
6, 17039, Note_off_c, 4, 69, 0
6, 17041, Note_on_c, 4, 60, 66
6, 17050, Note_off_c, 4, 41, 0
6, 17059, Note_off_c, 4, 60, 0
6, 17089, Note_on_c, 4, 40, 79
6, 17089, Note_on_c, 4, 64, 87
6, 17089, Note_on_c, 4, 69, 79
6, 17092, Control_c, 4, 64, 0
6, 17126, Control_c, 4, 64, 127
6, 17137, Note_off_c, 4, 69, 0
6, 17137, Note_on_c, 4, 60, 70
6, 17139, Note_off_c, 4, 64, 0
6, 17160, Note_off_c, 4, 60, 0
6, 17185, Note_on_c, 4, 64, 87
6, 17185, Note_on_c, 4, 69, 72
6, 17231, Note_off_c, 4, 69, 0
6, 17232, Note_off_c, 4, 40, 0
6, 17233, Note_off_c, 4, 64, 0
6, 17233, Note_on_c, 4, 60, 72
6, 17239, Note_off_c, 4, 60, 0
6, 17278, Control_c, 4, 64, 0
6, 17281, Note_on_c, 4, 38, 83
6, 17281, Note_on_c, 4, 57, 60
6, 17281, Note_on_c, 4, 62, 79
6, 17281, Note_on_c, 4, 65, 83
6, 17315, Note_off_c, 4, 57, 0
6, 17316, Control_c, 4, 64, 127
6, 17329, Note_on_c, 4, 57, 29
6, 17330, Note_off_c, 4, 62, 0
6, 17332, Note_off_c, 4, 65, 0
6, 17350, Note_off_c, 4, 57, 0
6, 17377, Note_on_c, 4, 62, 87
6, 17377, Note_on_c, 4, 65, 91
6, 17421, Note_off_c, 4, 62, 0
6, 17423, Note_off_c, 4, 65, 0
6, 17425, Note_on_c, 4, 57, 55
6, 17428, Note_off_c, 4, 38, 0
6, 17446, Note_off_c, 4, 57, 0
6, 17473, Note_on_c, 4, 36, 83
6, 17473, Note_on_c, 4, 60, 83
6, 17473, Note_on_c, 4, 65, 87
6, 17475, Control_c, 4, 64, 0
6, 17496, Control_c, 4, 64, 127
6, 17521, Note_off_c, 4, 60, 0
6, 17521, Note_off_c, 4, 65, 0
6, 17521, Note_on_c, 4, 57, 60
6, 17539, Note_off_c, 4, 57, 0
6, 17569, Note_on_c, 4, 60, 87
6, 17569, Note_on_c, 4, 65, 91
6, 17614, Note_off_c, 4, 60, 0
6, 17617, Note_off_c, 4, 65, 0
6, 17617, Note_on_c, 4, 57, 58
6, 17618, Note_off_c, 4, 36, 0
6, 17624, Note_off_c, 4, 57, 0
6, 17665, Note_on_c, 4, 43, 87
6, 17665, Note_on_c, 4, 62, 75
6, 17665, Note_on_c, 4, 67, 79
6, 17665, Note_on_c, 4, 71, 75
6, 17668, Control_c, 4, 64, 0
6, 17702, Control_c, 4, 64, 127
6, 17705, Note_off_c, 4, 62, 0
6, 17713, Note_on_c, 4, 62, 51
6, 17714, Note_off_c, 4, 67, 0
6, 17715, Note_off_c, 4, 71, 0
6, 17734, Note_off_c, 4, 62, 0
6, 17761, Note_on_c, 4, 67, 83
6, 17761, Note_on_c, 4, 71, 83
6, 17807, Note_off_c, 4, 43, 0
6, 17807, Note_off_c, 4, 67, 0
6, 17809, Note_on_c, 4, 62, 55
6, 17810, Note_off_c, 4, 71, 0
6, 17824, Note_off_c, 4, 62, 0
6, 17857, Note_on_c, 4, 41, 91
6, 17857, Note_on_c, 4, 65, 79
6, 17857, Note_on_c, 4, 71, 91
6, 17858, Control_c, 4, 64, 0
6, 17886, Control_c, 4, 64, 127
6, 17905, Note_on_c, 4, 62, 72
6, 17909, Note_off_c, 4, 65, 0
6, 17909, Note_off_c, 4, 71, 0
6, 17919, Note_off_c, 4, 62, 0
6, 17953, Note_on_c, 4, 65, 75
6, 17953, Note_on_c, 4, 71, 72
6, 18001, Note_on_c, 4, 62, 60
6, 18003, Note_off_c, 4, 41, 0
6, 18006, Note_off_c, 4, 71, 0
6, 18007, Note_off_c, 4, 65, 0
6, 18012, Note_off_c, 4, 62, 0
6, 18049, Note_on_c, 4, 40, 75
6, 18049, Note_on_c, 4, 59, 70
6, 18049, Note_on_c, 4, 64, 75
6, 18049, Note_on_c, 4, 67, 83
6, 18051, Control_c, 4, 64, 0
6, 18079, Note_off_c, 4, 59, 0
6, 18088, Control_c, 4, 64, 127
6, 18092, Note_off_c, 4, 64, 0
6, 18093, Note_off_c, 4, 67, 0
6, 18097, Note_on_c, 4, 59, 49
6, 18110, Note_off_c, 4, 59, 0
6, 18145, Note_on_c, 4, 64, 87
6, 18145, Note_on_c, 4, 67, 83
6, 18191, Note_off_c, 4, 40, 0
6, 18191, Note_off_c, 4, 64, 0
6, 18193, Note_off_c, 4, 67, 0
6, 18193, Note_on_c, 4, 59, 60
6, 18215, Note_off_c, 4, 59, 0
6, 18237, Control_c, 4, 64, 0
6, 18241, Note_on_c, 4, 38, 87
6, 18241, Note_on_c, 4, 62, 83
6, 18241, Note_on_c, 4, 67, 87
6, 18269, Control_c, 4, 64, 127
6, 18286, Note_off_c, 4, 62, 0
6, 18289, Note_off_c, 4, 67, 0
6, 18289, Note_on_c, 4, 59, 70
6, 18311, Note_off_c, 4, 59, 0
6, 18337, Note_on_c, 4, 62, 79
6, 18337, Note_on_c, 4, 67, 87
6, 18383, Note_off_c, 4, 67, 0
6, 18385, Note_off_c, 4, 62, 0
6, 18385, Note_on_c, 4, 59, 55
6, 18393, Note_off_c, 4, 59, 0
6, 18395, Note_off_c, 4, 38, 0
6, 18433, Note_on_c, 4, 48, 91
6, 18433, Note_on_c, 4, 60, 87
6, 18433, Note_on_c, 4, 64, 79
6, 18433, Note_on_c, 4, 67, 87
6, 18434, Control_c, 4, 64, 127
6, 18468, Note_off_c, 4, 60, 0
6, 18477, Note_off_c, 4, 67, 0
6, 18478, Note_off_c, 4, 64, 0
6, 18481, Note_on_c, 4, 60, 55
6, 18496, Note_off_c, 4, 60, 0
6, 18529, Note_on_c, 4, 64, 95
6, 18529, Note_on_c, 4, 67, 87
6, 18573, Note_off_c, 4, 67, 0
6, 18575, Note_off_c, 4, 64, 0
6, 18577, Note_on_c, 4, 60, 70
6, 18593, Note_off_c, 4, 60, 0
6, 18596, Note_off_c, 4, 48, 0
6, 18625, Note_on_c, 4, 47, 95
6, 18625, Note_on_c, 4, 59, 79
6, 18625, Note_on_c, 4, 64, 83
6, 18625, Note_on_c, 4, 67, 79
6, 18627, Control_c, 4, 64, 0
6, 18663, Note_off_c, 4, 59, 0
6, 18664, Control_c, 4, 64, 127
6, 18673, Note_off_c, 4, 64, 0
6, 18673, Note_off_c, 4, 67, 0
6, 18673, Note_on_c, 4, 59, 60
6, 18687, Note_off_c, 4, 59, 0
6, 18721, Note_on_c, 4, 64, 87
6, 18721, Note_on_c, 4, 67, 79
6, 18767, Note_off_c, 4, 64, 0
6, 18767, Note_off_c, 4, 67, 0
6, 18769, Note_on_c, 4, 59, 66
6, 18773, Note_off_c, 4, 47, 0
6, 18778, Note_off_c, 4, 59, 0
6, 18816, Control_c, 4, 64, 0
6, 18817, Note_on_c, 4, 45, 75
6, 18817, Note_on_c, 4, 57, 75
6, 18817, Note_on_c, 4, 60, 91
6, 18817, Note_on_c, 4, 64, 83
6, 18851, Note_off_c, 4, 57, 0
6, 18854, Control_c, 4, 64, 127
6, 18865, Note_on_c, 4, 57, 63
6, 18868, Note_off_c, 4, 60, 0
6, 18871, Note_off_c, 4, 64, 0
6, 18879, Note_off_c, 4, 57, 0
6, 18913, Note_on_c, 4, 60, 87
6, 18913, Note_on_c, 4, 64, 83
6, 18955, Note_off_c, 4, 64, 0
6, 18958, Note_off_c, 4, 60, 0
6, 18959, Note_off_c, 4, 45, 0
6, 18961, Note_on_c, 4, 57, 63
6, 18972, Note_off_c, 4, 57, 0
6, 19006, Control_c, 4, 64, 0
6, 19009, Note_on_c, 4, 43, 79
6, 19009, Note_on_c, 4, 55, 75
6, 19009, Note_on_c, 4, 60, 83
6, 19009, Note_on_c, 4, 64, 87
6, 19044, Note_off_c, 4, 55, 0
6, 19044, Control_c, 4, 64, 127
6, 19055, Note_off_c, 4, 60, 0
6, 19055, Note_off_c, 4, 64, 0
6, 19057, Note_on_c, 4, 55, 66
6, 19068, Note_off_c, 4, 55, 0
6, 19105, Note_on_c, 4, 60, 95
6, 19105, Note_on_c, 4, 64, 91
6, 19146, Note_off_c, 4, 60, 0
6, 19147, Note_off_c, 4, 64, 0
6, 19153, Note_on_c, 4, 55, 60
6, 19160, Note_off_c, 4, 43, 0
6, 19160, Note_off_c, 4, 55, 0
6, 19201, Note_on_c, 4, 41, 83
6, 19201, Note_on_c, 4, 60, 79
6, 19201, Note_on_c, 4, 65, 87
6, 19201, Note_on_c, 4, 69, 79
6, 19203, Control_c, 4, 64, 0
6, 19240, Control_c, 4, 64, 127
6, 19242, Note_off_c, 4, 60, 0
6, 19249, Note_on_c, 4, 60, 53
6, 19251, Note_off_c, 4, 69, 0
6, 19252, Note_off_c, 4, 65, 0
6, 19265, Note_off_c, 4, 60, 0
6, 19297, Note_on_c, 4, 65, 79
6, 19297, Note_on_c, 4, 69, 79
6, 19338, Note_off_c, 4, 65, 0
6, 19343, Note_off_c, 4, 69, 0
6, 19345, Note_on_c, 4, 60, 66
6, 19354, Note_off_c, 4, 41, 0
6, 19363, Note_off_c, 4, 60, 0
6, 19393, Note_on_c, 4, 40, 79
6, 19393, Note_on_c, 4, 64, 87
6, 19393, Note_on_c, 4, 69, 79
6, 19396, Control_c, 4, 64, 0
6, 19430, Control_c, 4, 64, 127
6, 19441, Note_off_c, 4, 69, 0
6, 19441, Note_on_c, 4, 60, 70
6, 19443, Note_off_c, 4, 64, 0
6, 19464, Note_off_c, 4, 60, 0
6, 19489, Note_on_c, 4, 64, 87
6, 19489, Note_on_c, 4, 69, 72
6, 19535, Note_off_c, 4, 69, 0
6, 19536, Note_off_c, 4, 40, 0
6, 19537, Note_off_c, 4, 64, 0
6, 19537, Note_on_c, 4, 60, 72
6, 19543, Note_off_c, 4, 60, 0
6, 19582, Control_c, 4, 64, 0
6, 19585, Note_on_c, 4, 38, 83
6, 19585, Note_on_c, 4, 57, 60
6, 19585, Note_on_c, 4, 62, 79
6, 19585, Note_on_c, 4, 65, 83
6, 19619, Note_off_c, 4, 57, 0
6, 19620, Control_c, 4, 64, 127
6, 19633, Note_on_c, 4, 57, 29
6, 19634, Note_off_c, 4, 62, 0
6, 19636, Note_off_c, 4, 65, 0
6, 19654, Note_off_c, 4, 57, 0
6, 19681, Note_on_c, 4, 62, 87
6, 19681, Note_on_c, 4, 65, 91
6, 19725, Note_off_c, 4, 62, 0
6, 19727, Note_off_c, 4, 65, 0
6, 19729, Note_on_c, 4, 57, 55
6, 19732, Note_off_c, 4, 38, 0
6, 19750, Note_off_c, 4, 57, 0
6, 19777, Note_on_c, 4, 36, 83
6, 19777, Note_on_c, 4, 60, 83
6, 19777, Note_on_c, 4, 65, 87
6, 19779, Control_c, 4, 64, 0
6, 19800, Control_c, 4, 64, 127
6, 19825, Note_off_c, 4, 60, 0
6, 19825, Note_off_c, 4, 65, 0
6, 19825, Note_on_c, 4, 57, 60
6, 19843, Note_off_c, 4, 57, 0
6, 19873, Note_on_c, 4, 60, 87
6, 19873, Note_on_c, 4, 65, 91
6, 19918, Note_off_c, 4, 60, 0
6, 19921, Note_off_c, 4, 65, 0
6, 19921, Note_on_c, 4, 57, 58
6, 19922, Note_off_c, 4, 36, 0
6, 19928, Note_off_c, 4, 57, 0
6, 19969, Note_on_c, 4, 43, 87
6, 19969, Note_on_c, 4, 62, 75
6, 19969, Note_on_c, 4, 67, 79
6, 19969, Note_on_c, 4, 71, 75
6, 19972, Control_c, 4, 64, 0
6, 20006, Control_c, 4, 64, 127
6, 20009, Note_off_c, 4, 62, 0
6, 20017, Note_on_c, 4, 62, 51
6, 20018, Note_off_c, 4, 67, 0
6, 20019, Note_off_c, 4, 71, 0
6, 20038, Note_off_c, 4, 62, 0
6, 20065, Note_on_c, 4, 67, 83
6, 20065, Note_on_c, 4, 71, 83
6, 20111, Note_off_c, 4, 43, 0
6, 20111, Note_off_c, 4, 67, 0
6, 20113, Note_on_c, 4, 62, 55
6, 20114, Note_off_c, 4, 71, 0
6, 20128, Note_off_c, 4, 62, 0
6, 20161, Note_on_c, 4, 41, 91
6, 20161, Note_on_c, 4, 65, 79
6, 20161, Note_on_c, 4, 71, 91
6, 20162, Control_c, 4, 64, 0
6, 20190, Control_c, 4, 64, 127
6, 20209, Note_on_c, 4, 62, 72
6, 20213, Note_off_c, 4, 65, 0
6, 20213, Note_off_c, 4, 71, 0
6, 20223, Note_off_c, 4, 62, 0
6, 20257, Note_on_c, 4, 65, 75
6, 20257, Note_on_c, 4, 71, 72
6, 20305, Note_on_c, 4, 62, 60
6, 20307, Note_off_c, 4, 41, 0
6, 20310, Note_off_c, 4, 71, 0
6, 20311, Note_off_c, 4, 65, 0
6, 20316, Note_off_c, 4, 62, 0
6, 20353, Note_on_c, 4, 40, 75
6, 20353, Note_on_c, 4, 59, 70
6, 20353, Note_on_c, 4, 64, 75
6, 20353, Note_on_c, 4, 67, 83
6, 20355, Control_c, 4, 64, 0
6, 20383, Note_off_c, 4, 59, 0
6, 20392, Control_c, 4, 64, 127
6, 20396, Note_off_c, 4, 64, 0
6, 20397, Note_off_c, 4, 67, 0
6, 20401, Note_on_c, 4, 59, 49
6, 20414, Note_off_c, 4, 59, 0
6, 20449, Note_on_c, 4, 64, 87
6, 20449, Note_on_c, 4, 67, 83
6, 20495, Note_off_c, 4, 40, 0
6, 20495, Note_off_c, 4, 64, 0
6, 20497, Note_off_c, 4, 67, 0
6, 20497, Note_on_c, 4, 59, 60
6, 20519, Note_off_c, 4, 59, 0
6, 20541, Control_c, 4, 64, 0
6, 20545, Note_on_c, 4, 38, 87
6, 20545, Note_on_c, 4, 62, 83
6, 20545, Note_on_c, 4, 67, 87
6, 20573, Control_c, 4, 64, 127
6, 20590, Note_off_c, 4, 62, 0
6, 20593, Note_off_c, 4, 67, 0
6, 20593, Note_on_c, 4, 59, 70
6, 20615, Note_off_c, 4, 59, 0
6, 20641, Note_on_c, 4, 62, 79
6, 20641, Note_on_c, 4, 67, 87
6, 20687, Note_off_c, 4, 67, 0
6, 20689, Note_off_c, 4, 62, 0
6, 20689, Note_on_c, 4, 59, 55
6, 20697, Note_off_c, 4, 59, 0
6, 20699, Note_off_c, 4, 38, 0
6, 20737, Note_on_c, 4, 48, 91
6, 20737, Note_on_c, 4, 60, 87
6, 20737, Note_on_c, 4, 64, 79
6, 20737, Note_on_c, 4, 67, 87
6, 20738, Control_c, 4, 64, 127
6, 20772, Note_off_c, 4, 60, 0
6, 20781, Note_off_c, 4, 67, 0
6, 20782, Note_off_c, 4, 64, 0
6, 20785, Note_on_c, 4, 60, 55
6, 20800, Note_off_c, 4, 60, 0
6, 20833, Note_on_c, 4, 64, 95
6, 20833, Note_on_c, 4, 67, 87
6, 20877, Note_off_c, 4, 67, 0
6, 20879, Note_off_c, 4, 64, 0
6, 20881, Note_on_c, 4, 60, 70
6, 20897, Note_off_c, 4, 60, 0
6, 20900, Note_off_c, 4, 48, 0
6, 20929, Note_on_c, 4, 47, 95
6, 20929, Note_on_c, 4, 59, 79
6, 20929, Note_on_c, 4, 64, 83
6, 20929, Note_on_c, 4, 67, 79
6, 20931, Control_c, 4, 64, 0
6, 20967, Note_off_c, 4, 59, 0
6, 20968, Control_c, 4, 64, 127
6, 20977, Note_off_c, 4, 64, 0
6, 20977, Note_off_c, 4, 67, 0
6, 20977, Note_on_c, 4, 59, 60
6, 20991, Note_off_c, 4, 59, 0
6, 21025, Note_on_c, 4, 64, 87
6, 21025, Note_on_c, 4, 67, 79
6, 21071, Note_off_c, 4, 64, 0
6, 21071, Note_off_c, 4, 67, 0
6, 21073, Note_on_c, 4, 59, 66
6, 21077, Note_off_c, 4, 47, 0
6, 21082, Note_off_c, 4, 59, 0
6, 21120, Control_c, 4, 64, 0
6, 21121, Note_on_c, 4, 45, 75
6, 21121, Note_on_c, 4, 57, 75
6, 21121, Note_on_c, 4, 60, 91
6, 21121, Note_on_c, 4, 64, 83
6, 21155, Note_off_c, 4, 57, 0
6, 21158, Control_c, 4, 64, 127
6, 21169, Note_on_c, 4, 57, 63
6, 21172, Note_off_c, 4, 60, 0
6, 21175, Note_off_c, 4, 64, 0
6, 21183, Note_off_c, 4, 57, 0
6, 21217, Note_on_c, 4, 60, 87
6, 21217, Note_on_c, 4, 64, 83
6, 21259, Note_off_c, 4, 64, 0
6, 21262, Note_off_c, 4, 60, 0
6, 21263, Note_off_c, 4, 45, 0
6, 21265, Note_on_c, 4, 57, 63
6, 21276, Note_off_c, 4, 57, 0
6, 21310, Control_c, 4, 64, 0
6, 21313, Note_on_c, 4, 43, 79
6, 21313, Note_on_c, 4, 55, 75
6, 21313, Note_on_c, 4, 60, 83
6, 21313, Note_on_c, 4, 64, 87
6, 21348, Note_off_c, 4, 55, 0
6, 21348, Control_c, 4, 64, 127
6, 21359, Note_off_c, 4, 60, 0
6, 21359, Note_off_c, 4, 64, 0
6, 21361, Note_on_c, 4, 55, 66
6, 21372, Note_off_c, 4, 55, 0
6, 21409, Note_on_c, 4, 60, 95
6, 21409, Note_on_c, 4, 64, 91
6, 21450, Note_off_c, 4, 60, 0
6, 21451, Note_off_c, 4, 64, 0
6, 21457, Note_on_c, 4, 55, 60
6, 21464, Note_off_c, 4, 43, 0
6, 21464, Note_off_c, 4, 55, 0
6, 21505, Note_on_c, 4, 41, 83
6, 21505, Note_on_c, 4, 60, 79
6, 21505, Note_on_c, 4, 65, 87
6, 21505, Note_on_c, 4, 69, 79
6, 21507, Control_c, 4, 64, 0
6, 21544, Control_c, 4, 64, 127
6, 21546, Note_off_c, 4, 60, 0
6, 21553, Note_on_c, 4, 60, 53
6, 21555, Note_off_c, 4, 69, 0
6, 21556, Note_off_c, 4, 65, 0
6, 21569, Note_off_c, 4, 60, 0
6, 21601, Note_on_c, 4, 65, 79
6, 21601, Note_on_c, 4, 69, 79
6, 21642, Note_off_c, 4, 65, 0
6, 21647, Note_off_c, 4, 69, 0
6, 21649, Note_on_c, 4, 60, 66
6, 21658, Note_off_c, 4, 41, 0
6, 21667, Note_off_c, 4, 60, 0
6, 21697, Note_on_c, 4, 40, 79
6, 21697, Note_on_c, 4, 64, 87
6, 21697, Note_on_c, 4, 69, 79
6, 21700, Control_c, 4, 64, 0
6, 21734, Control_c, 4, 64, 127
6, 21745, Note_off_c, 4, 69, 0
6, 21745, Note_on_c, 4, 60, 70
6, 21747, Note_off_c, 4, 64, 0
6, 21768, Note_off_c, 4, 60, 0
6, 21793, Note_on_c, 4, 64, 87
6, 21793, Note_on_c, 4, 69, 72
6, 21839, Note_off_c, 4, 69, 0
6, 21840, Note_off_c, 4, 40, 0
6, 21841, Note_off_c, 4, 64, 0
6, 21841, Note_on_c, 4, 60, 72
6, 21847, Note_off_c, 4, 60, 0
6, 21886, Control_c, 4, 64, 0
6, 21889, Note_on_c, 4, 38, 83
6, 21889, Note_on_c, 4, 57, 60
6, 21889, Note_on_c, 4, 62, 79
6, 21889, Note_on_c, 4, 65, 83
6, 21923, Note_off_c, 4, 57, 0
6, 21924, Control_c, 4, 64, 127
6, 21937, Note_on_c, 4, 57, 29
6, 21938, Note_off_c, 4, 62, 0
6, 21940, Note_off_c, 4, 65, 0
6, 21958, Note_off_c, 4, 57, 0
6, 21985, Note_on_c, 4, 62, 87
6, 21985, Note_on_c, 4, 65, 91
6, 22029, Note_off_c, 4, 62, 0
6, 22031, Note_off_c, 4, 65, 0
6, 22033, Note_on_c, 4, 57, 55
6, 22036, Note_off_c, 4, 38, 0
6, 22054, Note_off_c, 4, 57, 0
6, 22081, Note_on_c, 4, 62, 59
6, 22081, Note_on_c, 4, 67, 73
6, 22081, Note_on_c, 4, 71, 69
6, 22083, Control_c, 4, 64, 0
6, 22140, Note_off_c, 4, 71, 0
6, 22141, Note_off_c, 4, 62, 0
6, 22141, Note_off_c, 4, 67, 0
6, 22153, Note_on_c, 4, 62, 73
6, 22153, Note_on_c, 4, 67, 77
6, 22153, Note_on_c, 4, 71, 77
6, 22198, Note_off_c, 4, 62, 0
6, 22202, Note_off_c, 4, 67, 0
6, 22204, Note_off_c, 4, 71, 0
6, 22225, Note_on_c, 4, 67, 77
6, 22225, Note_on_c, 4, 71, 85
6, 22225, Note_on_c, 4, 74, 61
6, 22264, Note_off_c, 4, 67, 0
6, 22265, Note_off_c, 4, 74, 0
6, 22266, Note_off_c, 4, 71, 0
6, 22273, Note_on_c, 4, 48, 91
6, 22273, Note_on_c, 4, 60, 87
6, 22273, Note_on_c, 4, 64, 79
6, 22273, Note_on_c, 4, 67, 87
6, 22274, Control_c, 4, 64, 127
6, 22308, Note_off_c, 4, 60, 0
6, 22317, Note_off_c, 4, 67, 0
6, 22318, Note_off_c, 4, 64, 0
6, 22321, Note_on_c, 4, 60, 55
6, 22336, Note_off_c, 4, 60, 0
6, 22369, Note_on_c, 4, 64, 95
6, 22369, Note_on_c, 4, 67, 87
6, 22413, Note_off_c, 4, 67, 0
6, 22415, Note_off_c, 4, 64, 0
6, 22417, Note_on_c, 4, 60, 70
6, 22433, Note_off_c, 4, 60, 0
6, 22436, Note_off_c, 4, 48, 0
6, 22465, Note_on_c, 4, 47, 95
6, 22465, Note_on_c, 4, 59, 79
6, 22465, Note_on_c, 4, 64, 83
6, 22465, Note_on_c, 4, 67, 79
6, 22467, Control_c, 4, 64, 0
6, 22503, Note_off_c, 4, 59, 0
6, 22504, Control_c, 4, 64, 127
6, 22513, Note_off_c, 4, 64, 0
6, 22513, Note_off_c, 4, 67, 0
6, 22513, Note_on_c, 4, 59, 60
6, 22527, Note_off_c, 4, 59, 0
6, 22561, Note_on_c, 4, 64, 87
6, 22561, Note_on_c, 4, 67, 79
6, 22607, Note_off_c, 4, 64, 0
6, 22607, Note_off_c, 4, 67, 0
6, 22609, Note_on_c, 4, 59, 66
6, 22613, Note_off_c, 4, 47, 0
6, 22618, Note_off_c, 4, 59, 0
6, 22656, Control_c, 4, 64, 0
6, 22657, Note_on_c, 4, 45, 75
6, 22657, Note_on_c, 4, 57, 75
6, 22657, Note_on_c, 4, 60, 91
6, 22657, Note_on_c, 4, 64, 83
6, 22691, Note_off_c, 4, 57, 0
6, 22694, Control_c, 4, 64, 127
6, 22705, Note_on_c, 4, 57, 63
6, 22708, Note_off_c, 4, 60, 0
6, 22711, Note_off_c, 4, 64, 0
6, 22719, Note_off_c, 4, 57, 0
6, 22753, Note_on_c, 4, 60, 87
6, 22753, Note_on_c, 4, 64, 83
6, 22795, Note_off_c, 4, 64, 0
6, 22798, Note_off_c, 4, 60, 0
6, 22799, Note_off_c, 4, 45, 0
6, 22801, Note_on_c, 4, 57, 63
6, 22812, Note_off_c, 4, 57, 0
6, 22846, Control_c, 4, 64, 0
6, 22849, Note_on_c, 4, 43, 79
6, 22849, Note_on_c, 4, 55, 75
6, 22849, Note_on_c, 4, 60, 83
6, 22849, Note_on_c, 4, 64, 87
6, 22884, Note_off_c, 4, 55, 0
6, 22884, Control_c, 4, 64, 127
6, 22895, Note_off_c, 4, 60, 0
6, 22895, Note_off_c, 4, 64, 0
6, 22897, Note_on_c, 4, 55, 66
6, 22908, Note_off_c, 4, 55, 0
6, 22945, Note_on_c, 4, 60, 95
6, 22945, Note_on_c, 4, 64, 91
6, 22986, Note_off_c, 4, 60, 0
6, 22987, Note_off_c, 4, 64, 0
6, 22993, Note_on_c, 4, 55, 60
6, 23000, Note_off_c, 4, 43, 0
6, 23000, Note_off_c, 4, 55, 0
6, 23041, Note_on_c, 4, 41, 83
6, 23041, Note_on_c, 4, 60, 79
6, 23041, Note_on_c, 4, 65, 87
6, 23041, Note_on_c, 4, 69, 79
6, 23043, Control_c, 4, 64, 0
6, 23080, Control_c, 4, 64, 127
6, 23082, Note_off_c, 4, 60, 0
6, 23089, Note_on_c, 4, 60, 53
6, 23091, Note_off_c, 4, 69, 0
6, 23092, Note_off_c, 4, 65, 0
6, 23105, Note_off_c, 4, 60, 0
6, 23137, Note_on_c, 4, 65, 79
6, 23137, Note_on_c, 4, 69, 79
6, 23178, Note_off_c, 4, 65, 0
6, 23183, Note_off_c, 4, 69, 0
6, 23185, Note_on_c, 4, 60, 66
6, 23194, Note_off_c, 4, 41, 0
6, 23203, Note_off_c, 4, 60, 0
6, 23233, Note_on_c, 4, 40, 79
6, 23233, Note_on_c, 4, 64, 87
6, 23233, Note_on_c, 4, 69, 79
6, 23236, Control_c, 4, 64, 0
6, 23270, Control_c, 4, 64, 127
6, 23281, Note_off_c, 4, 69, 0
6, 23281, Note_on_c, 4, 60, 70
6, 23283, Note_off_c, 4, 64, 0
6, 23304, Note_off_c, 4, 60, 0
6, 23329, Note_on_c, 4, 64, 87
6, 23329, Note_on_c, 4, 69, 72
6, 23375, Note_off_c, 4, 69, 0
6, 23376, Note_off_c, 4, 40, 0
6, 23377, Note_off_c, 4, 64, 0
6, 23377, Note_on_c, 4, 60, 72
6, 23383, Note_off_c, 4, 60, 0
6, 23422, Control_c, 4, 64, 0
6, 23425, Note_on_c, 4, 38, 83
6, 23425, Note_on_c, 4, 57, 60
6, 23425, Note_on_c, 4, 62, 79
6, 23425, Note_on_c, 4, 65, 83
6, 23459, Note_off_c, 4, 57, 0
6, 23460, Control_c, 4, 64, 127
6, 23473, Note_on_c, 4, 57, 29
6, 23474, Note_off_c, 4, 62, 0
6, 23476, Note_off_c, 4, 65, 0
6, 23494, Note_off_c, 4, 57, 0
6, 23521, Note_on_c, 4, 62, 87
6, 23521, Note_on_c, 4, 65, 91
6, 23565, Note_off_c, 4, 62, 0
6, 23567, Note_off_c, 4, 65, 0
6, 23569, Note_on_c, 4, 57, 55
6, 23572, Note_off_c, 4, 38, 0
6, 23590, Note_off_c, 4, 57, 0
6, 23617, Note_on_c, 4, 36, 83
6, 23617, Note_on_c, 4, 60, 83
6, 23617, Note_on_c, 4, 65, 87
6, 23619, Control_c, 4, 64, 0
6, 23640, Control_c, 4, 64, 127
6, 23665, Note_off_c, 4, 60, 0
6, 23665, Note_off_c, 4, 65, 0
6, 23665, Note_on_c, 4, 57, 60
6, 23683, Note_off_c, 4, 57, 0
6, 23713, Note_on_c, 4, 60, 87
6, 23713, Note_on_c, 4, 65, 91
6, 23758, Note_off_c, 4, 60, 0
6, 23761, Note_off_c, 4, 65, 0
6, 23761, Note_on_c, 4, 57, 58
6, 23762, Note_off_c, 4, 36, 0
6, 23768, Note_off_c, 4, 57, 0
6, 23809, Note_on_c, 4, 43, 87
6, 23809, Note_on_c, 4, 62, 75
6, 23809, Note_on_c, 4, 67, 79
6, 23809, Note_on_c, 4, 71, 75
6, 23812, Control_c, 4, 64, 0
6, 23846, Control_c, 4, 64, 127
6, 23849, Note_off_c, 4, 62, 0
6, 23857, Note_on_c, 4, 62, 51
6, 23858, Note_off_c, 4, 67, 0
6, 23859, Note_off_c, 4, 71, 0
6, 23878, Note_off_c, 4, 62, 0
6, 23905, Note_on_c, 4, 67, 83
6, 23905, Note_on_c, 4, 71, 83
6, 23951, Note_off_c, 4, 43, 0
6, 23951, Note_off_c, 4, 67, 0
6, 23953, Note_on_c, 4, 62, 55
6, 23954, Note_off_c, 4, 71, 0
6, 23968, Note_off_c, 4, 62, 0
6, 24001, Note_on_c, 4, 41, 91
6, 24001, Note_on_c, 4, 65, 79
6, 24001, Note_on_c, 4, 71, 91
6, 24002, Control_c, 4, 64, 0
6, 24030, Control_c, 4, 64, 127
6, 24049, Note_on_c, 4, 62, 72
6, 24053, Note_off_c, 4, 65, 0
6, 24053, Note_off_c, 4, 71, 0
6, 24063, Note_off_c, 4, 62, 0
6, 24097, Note_on_c, 4, 65, 75
6, 24097, Note_on_c, 4, 71, 72
6, 24145, Note_on_c, 4, 62, 60
6, 24147, Note_off_c, 4, 41, 0
6, 24150, Note_off_c, 4, 71, 0
6, 24151, Note_off_c, 4, 65, 0
6, 24156, Note_off_c, 4, 62, 0
6, 24193, Note_on_c, 4, 40, 75
6, 24193, Note_on_c, 4, 59, 70
6, 24193, Note_on_c, 4, 64, 75
6, 24193, Note_on_c, 4, 67, 83
6, 24195, Control_c, 4, 64, 0
6, 24223, Note_off_c, 4, 59, 0
6, 24232, Control_c, 4, 64, 127
6, 24236, Note_off_c, 4, 64, 0
6, 24237, Note_off_c, 4, 67, 0
6, 24241, Note_on_c, 4, 59, 49
6, 24254, Note_off_c, 4, 59, 0
6, 24289, Note_on_c, 4, 64, 87
6, 24289, Note_on_c, 4, 67, 83
6, 24335, Note_off_c, 4, 40, 0
6, 24335, Note_off_c, 4, 64, 0
6, 24337, Note_off_c, 4, 67, 0
6, 24337, Note_on_c, 4, 59, 60
6, 24359, Note_off_c, 4, 59, 0
6, 24381, Control_c, 4, 64, 0
6, 24385, Note_on_c, 4, 38, 87
6, 24385, Note_on_c, 4, 62, 83
6, 24385, Note_on_c, 4, 67, 87
6, 24413, Control_c, 4, 64, 127
6, 24430, Note_off_c, 4, 62, 0
6, 24433, Note_off_c, 4, 67, 0
6, 24433, Note_on_c, 4, 59, 70
6, 24455, Note_off_c, 4, 59, 0
6, 24481, Note_on_c, 4, 62, 79
6, 24481, Note_on_c, 4, 67, 87
6, 24527, Note_off_c, 4, 67, 0
6, 24529, Note_off_c, 4, 62, 0
6, 24529, Note_on_c, 4, 59, 55
6, 24537, Note_off_c, 4, 59, 0
6, 24539, Note_off_c, 4, 38, 0
6, 24577, Note_on_c, 4, 48, 72
6, 24577, Note_on_c, 4, 64, 70
6, 24577, Note_on_c, 4, 67, 79
6, 24577, Note_on_c, 4, 72, 72
6, 24605, Control_c, 4, 64, 127
6, 24616, Note_off_c, 4, 64, 0
6, 24625, Note_on_c, 4, 64, 39
6, 24629, Note_off_c, 4, 67, 0
6, 24631, Note_off_c, 4, 72, 0
6, 24640, Note_off_c, 4, 64, 0
6, 24673, Note_on_c, 4, 67, 83
6, 24673, Note_on_c, 4, 72, 66
6, 24720, Note_off_c, 4, 67, 0
6, 24721, Note_on_c, 4, 64, 51
6, 24722, Note_off_c, 4, 72, 0
6, 24723, Note_off_c, 4, 48, 0
6, 24733, Note_off_c, 4, 64, 0
6, 24769, Note_on_c, 4, 41, 56
6, 24769, Note_on_c, 4, 65, 72
6, 24769, Note_on_c, 4, 69, 83
6, 24769, Note_on_c, 4, 72, 72
6, 24773, Control_c, 4, 64, 0
6, 24804, Control_c, 4, 64, 127
6, 24805, Note_off_c, 4, 65, 0
6, 24817, Note_off_c, 4, 69, 0
6, 24817, Note_on_c, 4, 65, 40
6, 24819, Note_off_c, 4, 72, 0
6, 24835, Note_off_c, 4, 65, 0
6, 24865, Note_on_c, 4, 65, 72
6, 24865, Note_on_c, 4, 69, 79
6, 24865, Note_on_c, 4, 72, 72
6, 24895, Note_off_c, 4, 65, 0
6, 24909, Note_off_c, 4, 69, 0
6, 24911, Note_off_c, 4, 72, 0
6, 24913, Note_on_c, 4, 65, 29
6, 24921, Note_off_c, 4, 65, 0
6, 24930, Note_off_c, 4, 41, 0
6, 24961, Note_on_c, 4, 48, 56
6, 24961, Note_on_c, 4, 64, 70
6, 24961, Note_on_c, 4, 67, 70
6, 24961, Note_on_c, 4, 72, 60
6, 24966, Control_c, 4, 64, 0
6, 24995, Note_off_c, 4, 64, 0
6, 25000, Control_c, 4, 64, 127
6, 25008, Note_off_c, 4, 67, 0
6, 25008, Note_off_c, 4, 72, 0
6, 25009, Note_on_c, 4, 64, 39
6, 25027, Note_off_c, 4, 64, 0
6, 25057, Note_on_c, 4, 64, 70
6, 25057, Note_on_c, 4, 67, 72
6, 25057, Note_on_c, 4, 72, 66
6, 25095, Note_off_c, 4, 64, 0
6, 25100, Note_off_c, 4, 67, 0
6, 25100, Note_off_c, 4, 72, 0
6, 25106, Note_off_c, 4, 48, 0
6, 25146, Control_c, 4, 64, 0
6, 25153, Note_on_c, 4, 43, 58
6, 25153, Note_on_c, 4, 62, 79
6, 25153, Note_on_c, 4, 67, 79
6, 25153, Note_on_c, 4, 72, 72
6, 25231, Note_off_c, 4, 72, 0
6, 25234, Note_off_c, 4, 62, 0
6, 25235, Note_off_c, 4, 67, 0
6, 25249, Note_on_c, 4, 62, 72
6, 25249, Note_on_c, 4, 67, 75
6, 25249, Note_on_c, 4, 71, 79
6, 25328, Note_off_c, 4, 62, 0
6, 25328, Note_off_c, 4, 67, 0
6, 25330, Note_off_c, 4, 71, 0
6, 25332, Note_off_c, 4, 43, 0
6, 25345, Note_on_c, 4, 48, 91
6, 25345, Note_on_c, 4, 60, 87
6, 25345, Note_on_c, 4, 64, 79
6, 25345, Note_on_c, 4, 67, 87
6, 25346, Control_c, 4, 64, 127
6, 25380, Note_off_c, 4, 60, 0
6, 25389, Note_off_c, 4, 67, 0
6, 25390, Note_off_c, 4, 64, 0
6, 25393, Note_on_c, 4, 60, 55
6, 25408, Note_off_c, 4, 60, 0
6, 25441, Note_on_c, 4, 64, 95
6, 25441, Note_on_c, 4, 67, 87
6, 25485, Note_off_c, 4, 67, 0
6, 25487, Note_off_c, 4, 64, 0
6, 25489, Note_on_c, 4, 60, 70
6, 25505, Note_off_c, 4, 60, 0
6, 25508, Note_off_c, 4, 48, 0
6, 25537, Note_on_c, 4, 47, 95
6, 25537, Note_on_c, 4, 59, 79
6, 25537, Note_on_c, 4, 64, 83
6, 25537, Note_on_c, 4, 67, 79
6, 25539, Control_c, 4, 64, 0
6, 25575, Note_off_c, 4, 59, 0
6, 25576, Control_c, 4, 64, 127
6, 25585, Note_off_c, 4, 64, 0
6, 25585, Note_off_c, 4, 67, 0
6, 25585, Note_on_c, 4, 59, 60
6, 25599, Note_off_c, 4, 59, 0
6, 25633, Note_on_c, 4, 64, 87
6, 25633, Note_on_c, 4, 67, 79
6, 25679, Note_off_c, 4, 64, 0
6, 25679, Note_off_c, 4, 67, 0
6, 25681, Note_on_c, 4, 59, 66
6, 25685, Note_off_c, 4, 47, 0
6, 25690, Note_off_c, 4, 59, 0
6, 25728, Control_c, 4, 64, 0
6, 25729, Note_on_c, 4, 45, 75
6, 25729, Note_on_c, 4, 57, 75
6, 25729, Note_on_c, 4, 60, 91
6, 25729, Note_on_c, 4, 64, 83
6, 25763, Note_off_c, 4, 57, 0
6, 25766, Control_c, 4, 64, 127
6, 25777, Note_on_c, 4, 57, 63
6, 25780, Note_off_c, 4, 60, 0
6, 25783, Note_off_c, 4, 64, 0
6, 25791, Note_off_c, 4, 57, 0
6, 25825, Note_on_c, 4, 60, 87
6, 25825, Note_on_c, 4, 64, 83
6, 25867, Note_off_c, 4, 64, 0
6, 25870, Note_off_c, 4, 60, 0
6, 25871, Note_off_c, 4, 45, 0
6, 25873, Note_on_c, 4, 57, 63
6, 25884, Note_off_c, 4, 57, 0
6, 25918, Control_c, 4, 64, 0
6, 25921, Note_on_c, 4, 43, 79
6, 25921, Note_on_c, 4, 55, 75
6, 25921, Note_on_c, 4, 60, 83
6, 25921, Note_on_c, 4, 64, 87
6, 25956, Note_off_c, 4, 55, 0
6, 25956, Control_c, 4, 64, 127
6, 25967, Note_off_c, 4, 60, 0
6, 25967, Note_off_c, 4, 64, 0
6, 25969, Note_on_c, 4, 55, 66
6, 25980, Note_off_c, 4, 55, 0
6, 26017, Note_on_c, 4, 60, 95
6, 26017, Note_on_c, 4, 64, 91
6, 26058, Note_off_c, 4, 60, 0
6, 26059, Note_off_c, 4, 64, 0
6, 26065, Note_on_c, 4, 55, 60
6, 26072, Note_off_c, 4, 43, 0
6, 26072, Note_off_c, 4, 55, 0
6, 26113, Note_on_c, 4, 41, 83
6, 26113, Note_on_c, 4, 60, 79
6, 26113, Note_on_c, 4, 65, 87
6, 26113, Note_on_c, 4, 69, 79
6, 26115, Control_c, 4, 64, 0
6, 26152, Control_c, 4, 64, 127
6, 26154, Note_off_c, 4, 60, 0
6, 26161, Note_on_c, 4, 60, 53
6, 26163, Note_off_c, 4, 69, 0
6, 26164, Note_off_c, 4, 65, 0
6, 26177, Note_off_c, 4, 60, 0
6, 26209, Note_on_c, 4, 65, 79
6, 26209, Note_on_c, 4, 69, 79
6, 26250, Note_off_c, 4, 65, 0
6, 26255, Note_off_c, 4, 69, 0
6, 26257, Note_on_c, 4, 60, 66
6, 26266, Note_off_c, 4, 41, 0
6, 26275, Note_off_c, 4, 60, 0
6, 26305, Note_on_c, 4, 40, 79
6, 26305, Note_on_c, 4, 64, 87
6, 26305, Note_on_c, 4, 69, 79
6, 26308, Control_c, 4, 64, 0
6, 26342, Control_c, 4, 64, 127
6, 26353, Note_off_c, 4, 69, 0
6, 26353, Note_on_c, 4, 60, 70
6, 26355, Note_off_c, 4, 64, 0
6, 26376, Note_off_c, 4, 60, 0
6, 26401, Note_on_c, 4, 64, 87
6, 26401, Note_on_c, 4, 69, 72
6, 26447, Note_off_c, 4, 69, 0
6, 26448, Note_off_c, 4, 40, 0
6, 26449, Note_off_c, 4, 64, 0
6, 26449, Note_on_c, 4, 60, 72
6, 26455, Note_off_c, 4, 60, 0
6, 26494, Control_c, 4, 64, 0
6, 26497, Note_on_c, 4, 38, 83
6, 26497, Note_on_c, 4, 57, 60
6, 26497, Note_on_c, 4, 62, 79
6, 26497, Note_on_c, 4, 65, 83
6, 26531, Note_off_c, 4, 57, 0
6, 26532, Control_c, 4, 64, 127
6, 26545, Note_on_c, 4, 57, 29
6, 26546, Note_off_c, 4, 62, 0
6, 26548, Note_off_c, 4, 65, 0
6, 26566, Note_off_c, 4, 57, 0
6, 26593, Note_on_c, 4, 62, 87
6, 26593, Note_on_c, 4, 65, 91
6, 26637, Note_off_c, 4, 62, 0
6, 26639, Note_off_c, 4, 65, 0
6, 26641, Note_on_c, 4, 57, 55
6, 26644, Note_off_c, 4, 38, 0
6, 26662, Note_off_c, 4, 57, 0
6, 26689, Note_on_c, 4, 36, 83
6, 26689, Note_on_c, 4, 60, 83
6, 26689, Note_on_c, 4, 65, 87
6, 26691, Control_c, 4, 64, 0
6, 26712, Control_c, 4, 64, 127
6, 26737, Note_off_c, 4, 60, 0
6, 26737, Note_off_c, 4, 65, 0
6, 26737, Note_on_c, 4, 57, 60
6, 26755, Note_off_c, 4, 57, 0
6, 26785, Note_on_c, 4, 60, 87
6, 26785, Note_on_c, 4, 65, 91
6, 26830, Note_off_c, 4, 60, 0
6, 26833, Note_off_c, 4, 65, 0
6, 26833, Note_on_c, 4, 57, 58
6, 26834, Note_off_c, 4, 36, 0
6, 26840, Note_off_c, 4, 57, 0
6, 26881, Note_on_c, 4, 43, 87
6, 26881, Note_on_c, 4, 62, 75
6, 26881, Note_on_c, 4, 67, 79
6, 26881, Note_on_c, 4, 71, 75
6, 26884, Control_c, 4, 64, 0
6, 26918, Control_c, 4, 64, 127
6, 26921, Note_off_c, 4, 62, 0
6, 26929, Note_on_c, 4, 62, 51
6, 26930, Note_off_c, 4, 67, 0
6, 26931, Note_off_c, 4, 71, 0
6, 26950, Note_off_c, 4, 62, 0
6, 26977, Note_on_c, 4, 67, 83
6, 26977, Note_on_c, 4, 71, 83
6, 27023, Note_off_c, 4, 43, 0
6, 27023, Note_off_c, 4, 67, 0
6, 27025, Note_on_c, 4, 62, 55
6, 27026, Note_off_c, 4, 71, 0
6, 27040, Note_off_c, 4, 62, 0
6, 27073, Note_on_c, 4, 41, 91
6, 27073, Note_on_c, 4, 65, 79
6, 27073, Note_on_c, 4, 71, 91
6, 27074, Control_c, 4, 64, 0
6, 27102, Control_c, 4, 64, 127
6, 27121, Note_on_c, 4, 62, 72
6, 27125, Note_off_c, 4, 65, 0
6, 27125, Note_off_c, 4, 71, 0
6, 27135, Note_off_c, 4, 62, 0
6, 27169, Note_on_c, 4, 65, 75
6, 27169, Note_on_c, 4, 71, 72
6, 27217, Note_on_c, 4, 62, 60
6, 27219, Note_off_c, 4, 41, 0
6, 27222, Note_off_c, 4, 71, 0
6, 27223, Note_off_c, 4, 65, 0
6, 27228, Note_off_c, 4, 62, 0
6, 27265, Note_on_c, 4, 40, 75
6, 27265, Note_on_c, 4, 59, 70
6, 27265, Note_on_c, 4, 64, 75
6, 27265, Note_on_c, 4, 67, 83
6, 27267, Control_c, 4, 64, 0
6, 27295, Note_off_c, 4, 59, 0
6, 27304, Control_c, 4, 64, 127
6, 27308, Note_off_c, 4, 64, 0
6, 27309, Note_off_c, 4, 67, 0
6, 27313, Note_on_c, 4, 59, 49
6, 27326, Note_off_c, 4, 59, 0
6, 27361, Note_on_c, 4, 64, 87
6, 27361, Note_on_c, 4, 67, 83
6, 27407, Note_off_c, 4, 40, 0
6, 27407, Note_off_c, 4, 64, 0
6, 27409, Note_off_c, 4, 67, 0
6, 27409, Note_on_c, 4, 59, 60
6, 27431, Note_off_c, 4, 59, 0
6, 27453, Control_c, 4, 64, 0
6, 27457, Note_on_c, 4, 38, 87
6, 27457, Note_on_c, 4, 62, 83
6, 27457, Note_on_c, 4, 67, 87
6, 27485, Control_c, 4, 64, 127
6, 27502, Note_off_c, 4, 62, 0
6, 27505, Note_off_c, 4, 67, 0
6, 27505, Note_on_c, 4, 59, 70
6, 27527, Note_off_c, 4, 59, 0
6, 27553, Note_on_c, 4, 62, 79
6, 27553, Note_on_c, 4, 67, 87
6, 27599, Note_off_c, 4, 67, 0
6, 27601, Note_off_c, 4, 62, 0
6, 27601, Note_on_c, 4, 59, 55
6, 27609, Note_off_c, 4, 59, 0
6, 27611, Note_off_c, 4, 38, 0
6, 27649, Note_on_c, 4, 36, 91
6, 27649, Note_on_c, 4, 60, 72
6, 27649, Note_on_c, 4, 64, 91
6, 27649, Note_on_c, 4, 67, 87
6, 27650, Control_c, 4, 64, 0
6, 27678, Note_off_c, 4, 60, 0
6, 27681, Control_c, 4, 64, 127
6, 27691, Note_off_c, 4, 64, 0
6, 27694, Note_off_c, 4, 67, 0
6, 27697, Note_on_c, 4, 60, 58
6, 27710, Note_off_c, 4, 60, 0
6, 27745, Note_on_c, 4, 64, 87
6, 27745, Note_on_c, 4, 67, 87
6, 27784, Note_off_c, 4, 36, 0
6, 27787, Note_off_c, 4, 64, 0
6, 27788, Note_off_c, 4, 67, 0
6, 27793, Note_on_c, 4, 60, 60
6, 27808, Note_off_c, 4, 60, 0
6, 27841, Note_on_c, 4, 41, 75
6, 27841, Note_on_c, 4, 65, 79
6, 27841, Note_on_c, 4, 69, 95
6, 27843, Control_c, 4, 64, 0
6, 27877, Control_c, 4, 64, 127
6, 27887, Note_off_c, 4, 65, 0
6, 27889, Note_off_c, 4, 69, 0
6, 27889, Note_on_c, 4, 60, 70
6, 27912, Note_off_c, 4, 60, 0
6, 27937, Note_on_c, 4, 65, 75
6, 27937, Note_on_c, 4, 69, 99
6, 27976, Note_off_c, 4, 65, 0
6, 27977, Note_off_c, 4, 41, 0
6, 27979, Note_off_c, 4, 69, 0
6, 27985, Note_on_c, 4, 60, 58
6, 27996, Note_off_c, 4, 60, 0
6, 28029, Control_c, 4, 64, 0
6, 28033, Note_on_c, 4, 62, 91
6, 28033, Note_on_c, 4, 67, 91
6, 28033, Note_on_c, 4, 72, 87
6, 28034, Note_on_c, 4, 43, 75
6, 28066, Note_off_c, 4, 62, 0
6, 28068, Control_c, 4, 64, 127
6, 28076, Note_off_c, 4, 67, 0
6, 28080, Note_off_c, 4, 72, 0
6, 28081, Note_on_c, 4, 62, 70
6, 28123, Note_off_c, 4, 62, 0
6, 28129, Note_on_c, 4, 62, 63
6, 28129, Note_on_c, 4, 67, 87
6, 28129, Note_on_c, 4, 71, 95
6, 28156, Note_off_c, 4, 62, 0
6, 28168, Note_off_c, 4, 67, 0
6, 28173, Note_off_c, 4, 71, 0
6, 28177, Note_on_c, 4, 62, 72
6, 28195, Note_off_c, 4, 43, 0
6, 28195, Note_off_c, 4, 62, 0
6, 28225, Note_on_c, 4, 62, 59
6, 28225, Note_on_c, 4, 67, 73
6, 28225, Note_on_c, 4, 71, 69
6, 28227, Control_c, 4, 64, 0
6, 28284, Note_off_c, 4, 71, 0
6, 28285, Note_off_c, 4, 62, 0
6, 28285, Note_off_c, 4, 67, 0
6, 28297, Note_on_c, 4, 62, 73
6, 28297, Note_on_c, 4, 67, 77
6, 28297, Note_on_c, 4, 71, 77
6, 28342, Note_off_c, 4, 62, 0
6, 28346, Note_off_c, 4, 67, 0
6, 28348, Note_off_c, 4, 71, 0
6, 28369, Note_on_c, 4, 67, 77
6, 28369, Note_on_c, 4, 71, 85
6, 28369, Note_on_c, 4, 74, 61
6, 28408, Note_off_c, 4, 67, 0
6, 28409, Note_off_c, 4, 74, 0
6, 28410, Note_off_c, 4, 71, 0
6, 28417, Note_on_c, 4, 64, 79
6, 28418, Control_c, 4, 64, 127
6, 28462, Note_off_c, 4, 64, 0
6, 28465, Note_on_c, 4, 60, 55
6, 28480, Note_off_c, 4, 60, 0
6, 28513, Note_on_c, 4, 64, 95
6, 28513, Note_on_c, 4, 67, 87
6, 28557, Note_off_c, 4, 67, 0
6, 28559, Note_off_c, 4, 64, 0
6, 28561, Note_on_c, 4, 60, 70
6, 28577, Note_off_c, 4, 60, 0
6, 28609, Note_on_c, 4, 47, 95
6, 28609, Note_on_c, 4, 59, 79
6, 28609, Note_on_c, 4, 64, 83
6, 28609, Note_on_c, 4, 67, 79
6, 28611, Control_c, 4, 64, 0
6, 28647, Note_off_c, 4, 59, 0
6, 28648, Control_c, 4, 64, 127
6, 28657, Note_off_c, 4, 64, 0
6, 28657, Note_off_c, 4, 67, 0
6, 28657, Note_on_c, 4, 59, 60
6, 28671, Note_off_c, 4, 59, 0
6, 28705, Note_on_c, 4, 64, 87
6, 28705, Note_on_c, 4, 67, 79
6, 28751, Note_off_c, 4, 64, 0
6, 28751, Note_off_c, 4, 67, 0
6, 28753, Note_on_c, 4, 59, 66
6, 28757, Note_off_c, 4, 47, 0
6, 28762, Note_off_c, 4, 59, 0
6, 28800, Control_c, 4, 64, 0
6, 28801, Note_on_c, 4, 45, 75
6, 28801, Note_on_c, 4, 57, 75
6, 28801, Note_on_c, 4, 60, 91
6, 28801, Note_on_c, 4, 64, 83
6, 28835, Note_off_c, 4, 57, 0
6, 28838, Control_c, 4, 64, 127
6, 28849, Note_on_c, 4, 57, 63
6, 28852, Note_off_c, 4, 60, 0
6, 28855, Note_off_c, 4, 64, 0
6, 28863, Note_off_c, 4, 57, 0
6, 28897, Note_on_c, 4, 60, 87
6, 28897, Note_on_c, 4, 64, 83
6, 28939, Note_off_c, 4, 64, 0
6, 28942, Note_off_c, 4, 60, 0
6, 28943, Note_off_c, 4, 45, 0
6, 28945, Note_on_c, 4, 57, 63
6, 28956, Note_off_c, 4, 57, 0
6, 28990, Control_c, 4, 64, 0
6, 28993, Note_on_c, 4, 43, 79
6, 28993, Note_on_c, 4, 55, 75
6, 28993, Note_on_c, 4, 60, 83
6, 28993, Note_on_c, 4, 64, 87
6, 29028, Note_off_c, 4, 55, 0
6, 29028, Control_c, 4, 64, 127
6, 29039, Note_off_c, 4, 60, 0
6, 29039, Note_off_c, 4, 64, 0
6, 29041, Note_on_c, 4, 55, 66
6, 29052, Note_off_c, 4, 55, 0
6, 29089, Note_on_c, 4, 60, 95
6, 29089, Note_on_c, 4, 64, 91
6, 29130, Note_off_c, 4, 60, 0
6, 29131, Note_off_c, 4, 64, 0
6, 29137, Note_on_c, 4, 55, 60
6, 29144, Note_off_c, 4, 43, 0
6, 29144, Note_off_c, 4, 55, 0
6, 29185, Note_on_c, 4, 41, 83
6, 29185, Note_on_c, 4, 60, 79
6, 29185, Note_on_c, 4, 65, 87
6, 29185, Note_on_c, 4, 69, 79
6, 29187, Control_c, 4, 64, 0
6, 29224, Control_c, 4, 64, 127
6, 29226, Note_off_c, 4, 60, 0
6, 29233, Note_on_c, 4, 60, 53
6, 29235, Note_off_c, 4, 69, 0
6, 29236, Note_off_c, 4, 65, 0
6, 29249, Note_off_c, 4, 60, 0
6, 29281, Note_on_c, 4, 65, 79
6, 29281, Note_on_c, 4, 69, 79
6, 29322, Note_off_c, 4, 65, 0
6, 29327, Note_off_c, 4, 69, 0
6, 29329, Note_on_c, 4, 60, 66
6, 29338, Note_off_c, 4, 41, 0
6, 29347, Note_off_c, 4, 60, 0
6, 29377, Note_on_c, 4, 40, 79
6, 29377, Note_on_c, 4, 64, 87
6, 29377, Note_on_c, 4, 69, 79
6, 29380, Control_c, 4, 64, 0
6, 29414, Control_c, 4, 64, 127
6, 29425, Note_off_c, 4, 69, 0
6, 29425, Note_on_c, 4, 60, 70
6, 29427, Note_off_c, 4, 64, 0
6, 29448, Note_off_c, 4, 60, 0
6, 29473, Note_on_c, 4, 64, 87
6, 29473, Note_on_c, 4, 69, 72
6, 29519, Note_off_c, 4, 69, 0
6, 29520, Note_off_c, 4, 40, 0
6, 29521, Note_off_c, 4, 64, 0
6, 29521, Note_on_c, 4, 60, 72
6, 29527, Note_off_c, 4, 60, 0
6, 29566, Control_c, 4, 64, 0
6, 29569, Note_on_c, 4, 38, 83
6, 29569, Note_on_c, 4, 57, 60
6, 29569, Note_on_c, 4, 62, 79
6, 29569, Note_on_c, 4, 65, 83
6, 29603, Note_off_c, 4, 57, 0
6, 29604, Control_c, 4, 64, 127
6, 29617, Note_on_c, 4, 57, 29
6, 29618, Note_off_c, 4, 62, 0
6, 29620, Note_off_c, 4, 65, 0
6, 29638, Note_off_c, 4, 57, 0
6, 29665, Note_on_c, 4, 62, 87
6, 29665, Note_on_c, 4, 65, 91
6, 29709, Note_off_c, 4, 62, 0
6, 29711, Note_off_c, 4, 65, 0
6, 29713, Note_on_c, 4, 57, 55
6, 29716, Note_off_c, 4, 38, 0
6, 29734, Note_off_c, 4, 57, 0
6, 29761, Note_on_c, 4, 36, 83
6, 29761, Note_on_c, 4, 60, 83
6, 29761, Note_on_c, 4, 65, 87
6, 29763, Control_c, 4, 64, 0
6, 29784, Control_c, 4, 64, 127
6, 29809, Note_off_c, 4, 60, 0
6, 29809, Note_off_c, 4, 65, 0
6, 29809, Note_on_c, 4, 57, 60
6, 29827, Note_off_c, 4, 57, 0
6, 29857, Note_on_c, 4, 60, 87
6, 29857, Note_on_c, 4, 65, 91
6, 29902, Note_off_c, 4, 60, 0
6, 29905, Note_off_c, 4, 65, 0
6, 29905, Note_on_c, 4, 57, 58
6, 29906, Note_off_c, 4, 36, 0
6, 29912, Note_off_c, 4, 57, 0
6, 29953, Note_on_c, 4, 43, 87
6, 29953, Note_on_c, 4, 62, 75
6, 29953, Note_on_c, 4, 67, 79
6, 29953, Note_on_c, 4, 71, 75
6, 29956, Control_c, 4, 64, 0
6, 29990, Control_c, 4, 64, 127
6, 29993, Note_off_c, 4, 62, 0
6, 30001, Note_on_c, 4, 62, 51
6, 30002, Note_off_c, 4, 67, 0
6, 30003, Note_off_c, 4, 71, 0
6, 30022, Note_off_c, 4, 62, 0
6, 30049, Note_on_c, 4, 67, 83
6, 30049, Note_on_c, 4, 71, 83
6, 30095, Note_off_c, 4, 43, 0
6, 30095, Note_off_c, 4, 67, 0
6, 30097, Note_on_c, 4, 62, 55
6, 30098, Note_off_c, 4, 71, 0
6, 30112, Note_off_c, 4, 62, 0
6, 30145, Note_on_c, 4, 41, 91
6, 30145, Note_on_c, 4, 65, 79
6, 30145, Note_on_c, 4, 71, 91
6, 30146, Control_c, 4, 64, 0
6, 30174, Control_c, 4, 64, 127
6, 30193, Note_on_c, 4, 62, 72
6, 30197, Note_off_c, 4, 65, 0
6, 30197, Note_off_c, 4, 71, 0
6, 30207, Note_off_c, 4, 62, 0
6, 30241, Note_on_c, 4, 65, 75
6, 30241, Note_on_c, 4, 71, 72
6, 30289, Note_on_c, 4, 62, 60
6, 30291, Note_off_c, 4, 41, 0
6, 30294, Note_off_c, 4, 71, 0
6, 30295, Note_off_c, 4, 65, 0
6, 30300, Note_off_c, 4, 62, 0
6, 30337, Note_on_c, 4, 40, 75
6, 30337, Note_on_c, 4, 59, 70
6, 30337, Note_on_c, 4, 64, 75
6, 30337, Note_on_c, 4, 67, 83
6, 30339, Control_c, 4, 64, 0
6, 30367, Note_off_c, 4, 59, 0
6, 30376, Control_c, 4, 64, 127
6, 30380, Note_off_c, 4, 64, 0
6, 30381, Note_off_c, 4, 67, 0
6, 30385, Note_on_c, 4, 59, 49
6, 30398, Note_off_c, 4, 59, 0
6, 30433, Note_on_c, 4, 64, 87
6, 30433, Note_on_c, 4, 67, 83
6, 30479, Note_off_c, 4, 40, 0
6, 30479, Note_off_c, 4, 64, 0
6, 30481, Note_off_c, 4, 67, 0
6, 30481, Note_on_c, 4, 59, 60
6, 30503, Note_off_c, 4, 59, 0
6, 30525, Control_c, 4, 64, 0
6, 30529, Note_on_c, 4, 38, 87
6, 30529, Note_on_c, 4, 62, 83
6, 30529, Note_on_c, 4, 67, 87
6, 30557, Control_c, 4, 64, 127
6, 30574, Note_off_c, 4, 62, 0
6, 30577, Note_off_c, 4, 67, 0
6, 30577, Note_on_c, 4, 59, 70
6, 30599, Note_off_c, 4, 59, 0
6, 30625, Note_on_c, 4, 62, 79
6, 30625, Note_on_c, 4, 67, 87
6, 30671, Note_off_c, 4, 67, 0
6, 30673, Note_off_c, 4, 62, 0
6, 30673, Note_on_c, 4, 59, 55
6, 30681, Note_off_c, 4, 59, 0
6, 30683, Note_off_c, 4, 38, 0
6, 30721, Note_on_c, 4, 48, 72
6, 30721, Note_on_c, 4, 60, 70
6, 30721, Note_on_c, 4, 64, 83
6, 30721, Note_on_c, 4, 67, 75
6, 30750, Control_c, 4, 64, 127
6, 30768, Note_off_c, 4, 60, 0
6, 30769, Note_on_c, 4, 60, 39
6, 30777, Note_off_c, 4, 64, 0
6, 30777, Note_off_c, 4, 67, 0
6, 30785, Note_off_c, 4, 60, 0
6, 30817, Note_on_c, 4, 60, 66
6, 30817, Note_on_c, 4, 64, 87
6, 30817, Note_on_c, 4, 67, 66
6, 30852, Note_off_c, 4, 60, 0
6, 30864, Note_off_c, 4, 64, 0
6, 30865, Note_off_c, 4, 67, 0
6, 30865, Note_on_c, 4, 60, 40
6, 30886, Note_off_c, 4, 60, 0
6, 30893, Note_off_c, 4, 48, 0
6, 30913, Note_on_c, 4, 41, 66
6, 30913, Note_on_c, 4, 60, 66
6, 30913, Note_on_c, 4, 65, 75
6, 30913, Note_on_c, 4, 69, 75
6, 30916, Control_c, 4, 64, 0
6, 30950, Note_off_c, 4, 60, 0
6, 30950, Control_c, 4, 64, 127
6, 30957, Note_off_c, 4, 65, 0
6, 30960, Note_off_c, 4, 69, 0
6, 30961, Note_on_c, 4, 60, 38
6, 30981, Note_off_c, 4, 60, 0
6, 31009, Note_on_c, 4, 60, 66
6, 31009, Note_on_c, 4, 65, 75
6, 31009, Note_on_c, 4, 69, 79
6, 31040, Note_off_c, 4, 60, 0
6, 31054, Note_off_c, 4, 65, 0
6, 31057, Note_off_c, 4, 69, 0
6, 31057, Note_on_c, 4, 60, 40
6, 31079, Note_off_c, 4, 60, 0
6, 31101, Note_off_c, 4, 41, 0
6, 31105, Note_on_c, 4, 48, 63
6, 31105, Note_on_c, 4, 60, 63
6, 31105, Note_on_c, 4, 64, 72
6, 31105, Note_on_c, 4, 67, 72
6, 31106, Control_c, 4, 64, 0
6, 31143, Note_off_c, 4, 60, 0
6, 31143, Control_c, 4, 64, 127
6, 31153, Note_on_c, 4, 60, 43
6, 31154, Note_off_c, 4, 64, 0
6, 31154, Note_off_c, 4, 67, 0
6, 31173, Note_off_c, 4, 60, 0
6, 31201, Note_on_c, 4, 60, 63
6, 31201, Note_on_c, 4, 64, 72
6, 31201, Note_on_c, 4, 67, 72
6, 31232, Note_off_c, 4, 60, 0
6, 31247, Note_off_c, 4, 64, 0
6, 31249, Note_on_c, 4, 60, 49
6, 31250, Note_off_c, 4, 67, 0
6, 31267, Note_off_c, 4, 60, 0
6, 31293, Note_off_c, 4, 48, 0
6, 31297, Note_on_c, 4, 41, 53
6, 31297, Note_on_c, 4, 60, 66
6, 31297, Note_on_c, 4, 65, 72
6, 31297, Note_on_c, 4, 69, 79
6, 31302, Control_c, 4, 64, 0
6, 31332, Note_off_c, 4, 60, 0
6, 31336, Control_c, 4, 64, 127
6, 31340, Note_off_c, 4, 65, 0
6, 31342, Note_off_c, 4, 69, 0
6, 31345, Note_on_c, 4, 60, 39
6, 31365, Note_off_c, 4, 60, 0
6, 31393, Note_on_c, 4, 60, 53
6, 31393, Note_on_c, 4, 65, 70
6, 31393, Note_on_c, 4, 69, 63
6, 31414, Note_off_c, 4, 60, 0
6, 31423, Note_off_c, 4, 65, 0
6, 31425, Note_off_c, 4, 41, 0
6, 31426, Note_off_c, 4, 69, 0
6, 31441, Note_on_c, 4, 60, 40
6, 31451, Note_off_c, 4, 60, 0
6, 31486, Control_c, 4, 64, 0
6, 31489, Note_on_c, 4, 41, 58
6, 31489, Note_on_c, 4, 60, 79
6, 31489, Note_on_c, 4, 65, 75
6, 31489, Note_on_c, 4, 69, 87
6, 31525, Note_off_c, 4, 60, 0
6, 31533, Note_off_c, 4, 65, 0
6, 31534, Note_off_c, 4, 69, 0
6, 31537, Note_on_c, 4, 60, 31
6, 31560, Note_off_c, 4, 60, 0
6, 31585, Note_on_c, 4, 60, 60
6, 31585, Note_on_c, 4, 65, 66
6, 31585, Note_on_c, 4, 69, 72
6, 31617, Note_off_c, 4, 60, 0
6, 31628, Note_off_c, 4, 65, 0
6, 31628, Note_off_c, 4, 69, 0
6, 31633, Note_on_c, 4, 60, 39
6, 31658, Note_off_c, 4, 60, 0
6, 31680, Tempo, 845070
6, 31681, Note_on_c, 4, 60, 66
6, 31681, Note_on_c, 4, 65, 75
6, 31681, Note_on_c, 4, 69, 79
6, 31712, Note_off_c, 4, 60, 0
6, 31719, Note_off_c, 4, 65, 0
6, 31721, Note_off_c, 4, 69, 0
6, 31729, Note_on_c, 4, 60, 28
6, 31748, Note_off_c, 4, 60, 0
6, 31777, Note_on_c, 4, 60, 56
6, 31777, Note_on_c, 4, 65, 66
6, 31777, Note_on_c, 4, 69, 72
6, 31801, Note_off_c, 4, 60, 0
6, 31811, Note_off_c, 4, 65, 0
6, 31816, Note_off_c, 4, 69, 0
6, 31825, Note_on_c, 4, 60, 27
6, 31839, Note_off_c, 4, 41, 0
6, 31841, Note_off_c, 4, 60, 0
6, 31872, Tempo, 895522
6, 31873, Note_on_c, 4, 41, 72
6, 31873, Note_on_c, 4, 60, 72
6, 31873, Note_on_c, 4, 65, 83
6, 31873, Note_on_c, 4, 68, 70
6, 31907, Note_off_c, 4, 60, 0
6, 31913, Note_off_c, 4, 65, 0
6, 31916, Note_off_c, 4, 68, 0
6, 31921, Note_on_c, 4, 60, 37
6, 31933, Note_off_c, 4, 60, 0
6, 31969, Note_on_c, 4, 60, 54
6, 31969, Note_on_c, 4, 65, 79
6, 31969, Note_on_c, 4, 68, 70
6, 32001, Note_off_c, 4, 60, 0
6, 32008, Note_off_c, 4, 65, 0
6, 32009, Note_off_c, 4, 68, 0
6, 32017, Note_on_c, 4, 60, 17
6, 32030, Note_off_c, 4, 60, 0
6, 32064, Tempo, 909090
6, 32065, Note_on_c, 4, 60, 54
6, 32065, Note_on_c, 4, 65, 66
6, 32065, Note_on_c, 4, 68, 58
6, 32093, Note_off_c, 4, 60, 0
6, 32102, Note_off_c, 4, 65, 0
6, 32106, Note_off_c, 4, 68, 0
6, 32113, Note_on_c, 4, 60, 38
6, 32123, Note_off_c, 4, 60, 0
6, 32161, Note_on_c, 4, 60, 66
6, 32161, Note_on_c, 4, 65, 66
6, 32161, Note_on_c, 4, 68, 70
6, 32184, Note_off_c, 4, 60, 0
6, 32202, Note_off_c, 4, 65, 0
6, 32204, Note_off_c, 4, 68, 0
6, 32209, Note_on_c, 4, 60, 38
6, 32217, Note_off_c, 4, 60, 0
6, 32223, Note_off_c, 4, 41, 0
6, 32256, Tempo, 1034482
6, 33025, Note_on_c, 4, 36, 51
6, 33025, Note_on_c, 4, 48, 53
6, 33411, Note_off_c, 4, 36, 0
6, 33411, Note_off_c, 4, 48, 0
6, 33432, Control_c, 4, 120, 0
6, 33432, End_track
7, 0, Start_track
7, 0, Control_c, 5, 32, 0
7, 0, Control_c, 5, 0, 0
7, 0, Program_c, 5, 89
7, 0, Control_c, 5, 10, 66
7, 0, Control_c, 5, 91, 127
7, 0, Control_c, 5, 93, 40
7, 0, Time_signature, 4, 2, 96, 8
7, 0, Tempo, 833333
7, 96, Control_c, 5, 121, 0
7, 264, Control_c, 5, 7, 93
7, 288, Control_c, 5, 11, 127
7, 771, Note_on_c, 5, 60, 84
7, 771, Note_on_c, 5, 64, 95
7, 771, Note_on_c, 5, 67, 95
7, 963, Note_on_c, 5, 59, 91
7, 964, Note_off_c, 5, 60, 0
7, 1145, Note_off_c, 5, 67, 0
7, 1147, Note_off_c, 5, 64, 0
7, 1153, Note_on_c, 5, 57, 95
7, 1153, Note_on_c, 5, 60, 95
7, 1153, Note_on_c, 5, 64, 95
7, 1156, Note_off_c, 5, 59, 0
7, 1345, Note_on_c, 5, 55, 82
7, 1346, Note_off_c, 5, 57, 0
7, 1521, Note_off_c, 5, 60, 0
7, 1537, Note_on_c, 5, 60, 84
7, 1537, Note_on_c, 5, 65, 95
7, 1537, Note_on_c, 5, 69, 84
7, 1538, Note_off_c, 5, 55, 0
7, 1538, Note_off_c, 5, 64, 0
7, 1729, Note_off_c, 5, 65, 0
7, 1729, Note_on_c, 5, 64, 82
7, 1917, Note_off_c, 5, 60, 0
7, 1921, Note_on_c, 5, 57, 79
7, 1921, Note_on_c, 5, 62, 79
7, 1921, Note_on_c, 5, 65, 82
7, 1922, Note_off_c, 5, 64, 0
7, 1922, Note_off_c, 5, 69, 0
7, 2113, Note_off_c, 5, 62, 0
7, 2113, Note_on_c, 5, 60, 87
7, 2305, Note_on_c, 5, 62, 84
7, 2305, Note_on_c, 5, 67, 91
7, 2305, Note_on_c, 5, 71, 99
7, 2306, Note_off_c, 5, 57, 0
7, 2306, Note_off_c, 5, 60, 0
7, 2306, Note_off_c, 5, 65, 0
7, 2497, Note_on_c, 5, 65, 71
7, 2498, Note_off_c, 5, 67, 0
7, 2689, Note_off_c, 5, 65, 0
7, 2689, Note_on_c, 5, 59, 82
7, 2689, Note_on_c, 5, 64, 82
7, 2689, Note_on_c, 5, 67, 71
7, 2690, Note_off_c, 5, 62, 0
7, 2690, Note_off_c, 5, 71, 0
7, 2881, Note_on_c, 5, 62, 73
7, 2882, Note_off_c, 5, 64, 0
7, 3073, Note_off_c, 5, 62, 0
7, 3073, Note_off_c, 5, 67, 0
7, 3073, Note_on_c, 5, 60, 84
7, 3073, Note_on_c, 5, 64, 82
7, 3073, Note_on_c, 5, 67, 76
7, 3074, Note_off_c, 5, 59, 0
7, 3265, Note_on_c, 5, 65, 73
7, 3265, Note_on_c, 5, 69, 73
7, 3266, Note_off_c, 5, 64, 0
7, 3266, Note_off_c, 5, 67, 0
7, 3457, Note_on_c, 5, 62, 103
7, 3457, Note_on_c, 5, 67, 91
7, 3457, Note_on_c, 5, 71, 82
7, 3458, Note_off_c, 5, 60, 0
7, 3458, Note_off_c, 5, 65, 0
7, 3458, Note_off_c, 5, 69, 0
7, 3649, Note_off_c, 5, 67, 0
7, 3649, Note_on_c, 5, 65, 91
7, 3841, Note_off_c, 5, 62, 0
7, 3841, Note_off_c, 5, 65, 0
7, 3841, Note_off_c, 5, 71, 0
7, 3843, Note_on_c, 5, 60, 84
7, 3843, Note_on_c, 5, 64, 95
7, 3843, Note_on_c, 5, 67, 95
7, 4035, Note_on_c, 5, 59, 91
7, 4036, Note_off_c, 5, 60, 0
7, 4217, Note_off_c, 5, 67, 0
7, 4219, Note_off_c, 5, 64, 0
7, 4225, Note_on_c, 5, 57, 95
7, 4225, Note_on_c, 5, 60, 95
7, 4225, Note_on_c, 5, 64, 95
7, 4228, Note_off_c, 5, 59, 0
7, 4417, Note_on_c, 5, 55, 82
7, 4418, Note_off_c, 5, 57, 0
7, 4593, Note_off_c, 5, 60, 0
7, 4609, Note_on_c, 5, 60, 84
7, 4609, Note_on_c, 5, 65, 95
7, 4609, Note_on_c, 5, 69, 84
7, 4610, Note_off_c, 5, 55, 0
7, 4610, Note_off_c, 5, 64, 0
7, 4801, Note_off_c, 5, 65, 0
7, 4801, Note_on_c, 5, 64, 82
7, 4989, Note_off_c, 5, 60, 0
7, 4993, Note_on_c, 5, 57, 79
7, 4993, Note_on_c, 5, 62, 79
7, 4993, Note_on_c, 5, 65, 82
7, 4994, Note_off_c, 5, 64, 0
7, 4994, Note_off_c, 5, 69, 0
7, 5185, Note_off_c, 5, 62, 0
7, 5185, Note_on_c, 5, 60, 87
7, 5377, Note_on_c, 5, 62, 84
7, 5377, Note_on_c, 5, 67, 91
7, 5377, Note_on_c, 5, 71, 99
7, 5378, Note_off_c, 5, 57, 0
7, 5378, Note_off_c, 5, 60, 0
7, 5378, Note_off_c, 5, 65, 0
7, 5569, Note_on_c, 5, 65, 71
7, 5570, Note_off_c, 5, 67, 0
7, 5761, Note_off_c, 5, 65, 0
7, 5761, Note_on_c, 5, 59, 82
7, 5761, Note_on_c, 5, 64, 82
7, 5761, Note_on_c, 5, 67, 71
7, 5762, Note_off_c, 5, 62, 0
7, 5762, Note_off_c, 5, 71, 0
7, 5953, Note_on_c, 5, 62, 73
7, 5954, Note_off_c, 5, 64, 0
7, 6145, Note_off_c, 5, 62, 0
7, 6145, Note_off_c, 5, 67, 0
7, 6146, Note_off_c, 5, 59, 0
7, 6147, Note_on_c, 5, 60, 84
7, 6147, Note_on_c, 5, 64, 95
7, 6147, Note_on_c, 5, 67, 95
7, 6339, Note_on_c, 5, 59, 91
7, 6340, Note_off_c, 5, 60, 0
7, 6521, Note_off_c, 5, 67, 0
7, 6523, Note_off_c, 5, 64, 0
7, 6529, Note_on_c, 5, 57, 95
7, 6529, Note_on_c, 5, 60, 95
7, 6529, Note_on_c, 5, 64, 95
7, 6532, Note_off_c, 5, 59, 0
7, 6721, Note_on_c, 5, 55, 82
7, 6722, Note_off_c, 5, 57, 0
7, 6901, Note_off_c, 5, 60, 0
7, 6913, Note_on_c, 5, 60, 84
7, 6913, Note_on_c, 5, 65, 95
7, 6913, Note_on_c, 5, 69, 84
7, 6914, Note_off_c, 5, 55, 0
7, 6914, Note_off_c, 5, 64, 0
7, 7105, Note_off_c, 5, 65, 0
7, 7105, Note_on_c, 5, 64, 82
7, 7285, Note_off_c, 5, 60, 0
7, 7297, Note_on_c, 5, 57, 79
7, 7297, Note_on_c, 5, 62, 79
7, 7297, Note_on_c, 5, 65, 82
7, 7298, Note_off_c, 5, 64, 0
7, 7298, Note_off_c, 5, 69, 0
7, 7489, Note_off_c, 5, 62, 0
7, 7489, Note_on_c, 5, 60, 87
7, 7681, Note_on_c, 5, 62, 84
7, 7681, Note_on_c, 5, 67, 91
7, 7681, Note_on_c, 5, 71, 99
7, 7682, Note_off_c, 5, 57, 0
7, 7682, Note_off_c, 5, 60, 0
7, 7682, Note_off_c, 5, 65, 0
7, 7873, Note_on_c, 5, 65, 71
7, 7874, Note_off_c, 5, 67, 0
7, 8065, Note_off_c, 5, 65, 0
7, 8065, Note_on_c, 5, 59, 82
7, 8065, Note_on_c, 5, 64, 82
7, 8065, Note_on_c, 5, 67, 71
7, 8066, Note_off_c, 5, 62, 0
7, 8066, Note_off_c, 5, 71, 0
7, 8257, Note_on_c, 5, 62, 73
7, 8258, Note_off_c, 5, 64, 0
7, 8449, Note_off_c, 5, 62, 0
7, 8449, Note_off_c, 5, 67, 0
7, 8450, Note_off_c, 5, 59, 0
7, 8451, Note_on_c, 5, 60, 84
7, 8451, Note_on_c, 5, 64, 95
7, 8451, Note_on_c, 5, 67, 95
7, 8643, Note_on_c, 5, 59, 91
7, 8644, Note_off_c, 5, 60, 0
7, 8825, Note_off_c, 5, 67, 0
7, 8827, Note_off_c, 5, 64, 0
7, 8833, Note_on_c, 5, 57, 95
7, 8833, Note_on_c, 5, 60, 95
7, 8833, Note_on_c, 5, 64, 95
7, 8836, Note_off_c, 5, 59, 0
7, 9025, Note_on_c, 5, 55, 82
7, 9026, Note_off_c, 5, 57, 0
7, 9209, Note_off_c, 5, 60, 0
7, 9217, Note_on_c, 5, 60, 84
7, 9217, Note_on_c, 5, 65, 95
7, 9217, Note_on_c, 5, 69, 84
7, 9218, Note_off_c, 5, 55, 0
7, 9218, Note_off_c, 5, 64, 0
7, 9409, Note_off_c, 5, 65, 0
7, 9409, Note_on_c, 5, 64, 82
7, 9597, Note_off_c, 5, 60, 0
7, 9601, Note_on_c, 5, 57, 79
7, 9601, Note_on_c, 5, 62, 79
7, 9601, Note_on_c, 5, 65, 82
7, 9602, Note_off_c, 5, 64, 0
7, 9602, Note_off_c, 5, 69, 0
7, 9793, Note_off_c, 5, 62, 0
7, 9797, Note_off_c, 5, 57, 0
7, 9797, Note_off_c, 5, 65, 0
7, 9987, Note_on_c, 5, 60, 84
7, 9987, Note_on_c, 5, 64, 95
7, 9987, Note_on_c, 5, 67, 95
7, 10179, Note_on_c, 5, 59, 91
7, 10180, Note_off_c, 5, 60, 0
7, 10361, Note_off_c, 5, 67, 0
7, 10363, Note_off_c, 5, 64, 0
7, 10369, Note_on_c, 5, 57, 95
7, 10369, Note_on_c, 5, 60, 95
7, 10369, Note_on_c, 5, 64, 95
7, 10372, Note_off_c, 5, 59, 0
7, 10561, Note_on_c, 5, 55, 82
7, 10562, Note_off_c, 5, 57, 0
7, 10741, Note_off_c, 5, 60, 0
7, 10753, Note_on_c, 5, 60, 84
7, 10753, Note_on_c, 5, 65, 95
7, 10753, Note_on_c, 5, 69, 84
7, 10754, Note_off_c, 5, 55, 0
7, 10754, Note_off_c, 5, 64, 0
7, 10945, Note_off_c, 5, 65, 0
7, 10945, Note_on_c, 5, 64, 82
7, 11137, Note_off_c, 5, 60, 0
7, 11137, Note_on_c, 5, 57, 79
7, 11137, Note_on_c, 5, 62, 79
7, 11137, Note_on_c, 5, 65, 82
7, 11138, Note_off_c, 5, 64, 0
7, 11138, Note_off_c, 5, 69, 0
7, 11329, Note_off_c, 5, 62, 0
7, 11329, Note_on_c, 5, 60, 87
7, 11521, Note_on_c, 5, 62, 84
7, 11521, Note_on_c, 5, 67, 91
7, 11521, Note_on_c, 5, 71, 99
7, 11522, Note_off_c, 5, 57, 0
7, 11522, Note_off_c, 5, 60, 0
7, 11522, Note_off_c, 5, 65, 0
7, 11713, Note_on_c, 5, 65, 71
7, 11714, Note_off_c, 5, 67, 0
7, 11905, Note_off_c, 5, 65, 0
7, 11905, Note_on_c, 5, 59, 82
7, 11905, Note_on_c, 5, 64, 82
7, 11905, Note_on_c, 5, 67, 71
7, 11906, Note_off_c, 5, 62, 0
7, 11906, Note_off_c, 5, 71, 0
7, 12097, Note_on_c, 5, 62, 73
7, 12098, Note_off_c, 5, 64, 0
7, 12289, Note_off_c, 5, 62, 0
7, 12289, Note_off_c, 5, 67, 0
7, 12290, Note_off_c, 5, 59, 0
7, 12291, Note_on_c, 5, 64, 95
7, 12291, Note_on_c, 5, 67, 95
7, 12291, Note_on_c, 5, 72, 87
7, 12468, Note_off_c, 5, 64, 0
7, 12469, Note_off_c, 5, 67, 0
7, 12483, Note_on_c, 5, 69, 84
7, 12484, Note_on_c, 5, 65, 73
7, 12643, Note_off_c, 5, 65, 0
7, 12647, Note_off_c, 5, 69, 0
7, 12670, Note_on_c, 5, 64, 87
7, 12671, Note_on_c, 5, 67, 99
7, 12846, Note_off_c, 5, 72, 0
7, 12848, Note_off_c, 5, 64, 0
7, 12850, Note_off_c, 5, 67, 0
7, 12868, Note_on_c, 5, 62, 99
7, 12869, Note_on_c, 5, 72, 82
7, 12869, Note_on_c, 5, 67, 99
7, 12959, Note_on_c, 5, 71, 76
7, 12962, Note_off_c, 5, 72, 0
7, 13045, Note_off_c, 5, 62, 0
7, 13046, Note_off_c, 5, 67, 0
7, 13047, Note_off_c, 5, 71, 0
7, 13059, Note_on_c, 5, 60, 84
7, 13059, Note_on_c, 5, 64, 95
7, 13059, Note_on_c, 5, 67, 95
7, 13251, Note_on_c, 5, 59, 91
7, 13252, Note_off_c, 5, 60, 0
7, 13433, Note_off_c, 5, 67, 0
7, 13435, Note_off_c, 5, 64, 0
7, 13441, Note_on_c, 5, 57, 95
7, 13441, Note_on_c, 5, 60, 95
7, 13441, Note_on_c, 5, 64, 95
7, 13444, Note_off_c, 5, 59, 0
7, 13633, Note_on_c, 5, 55, 82
7, 13634, Note_off_c, 5, 57, 0
7, 13809, Note_off_c, 5, 60, 0
7, 13825, Note_on_c, 5, 60, 84
7, 13825, Note_on_c, 5, 65, 95
7, 13825, Note_on_c, 5, 69, 84
7, 13826, Note_off_c, 5, 55, 0
7, 13826, Note_off_c, 5, 64, 0
7, 14017, Note_off_c, 5, 65, 0
7, 14017, Note_on_c, 5, 64, 82
7, 14209, Note_off_c, 5, 60, 0
7, 14209, Note_on_c, 5, 57, 79
7, 14209, Note_on_c, 5, 62, 79
7, 14209, Note_on_c, 5, 65, 82
7, 14210, Note_off_c, 5, 64, 0
7, 14210, Note_off_c, 5, 69, 0
7, 14401, Note_off_c, 5, 62, 0
7, 14401, Note_on_c, 5, 60, 87
7, 14593, Note_on_c, 5, 62, 84
7, 14593, Note_on_c, 5, 67, 91
7, 14593, Note_on_c, 5, 71, 99
7, 14594, Note_off_c, 5, 57, 0
7, 14594, Note_off_c, 5, 60, 0
7, 14594, Note_off_c, 5, 65, 0
7, 14785, Note_on_c, 5, 65, 71
7, 14786, Note_off_c, 5, 67, 0
7, 14977, Note_off_c, 5, 65, 0
7, 14977, Note_on_c, 5, 59, 82
7, 14977, Note_on_c, 5, 64, 82
7, 14977, Note_on_c, 5, 67, 71
7, 14978, Note_off_c, 5, 62, 0
7, 14978, Note_off_c, 5, 71, 0
7, 15169, Note_on_c, 5, 62, 73
7, 15170, Note_off_c, 5, 64, 0
7, 15361, Note_off_c, 5, 62, 0
7, 15361, Note_off_c, 5, 67, 0
7, 15361, Note_on_c, 5, 60, 84
7, 15361, Note_on_c, 5, 64, 82
7, 15361, Note_on_c, 5, 67, 76
7, 15362, Note_off_c, 5, 59, 0
7, 15553, Note_on_c, 5, 65, 73
7, 15553, Note_on_c, 5, 69, 73
7, 15554, Note_off_c, 5, 64, 0
7, 15554, Note_off_c, 5, 67, 0
7, 15745, Note_on_c, 5, 62, 103
7, 15745, Note_on_c, 5, 67, 91
7, 15745, Note_on_c, 5, 71, 82
7, 15746, Note_off_c, 5, 60, 0
7, 15746, Note_off_c, 5, 65, 0
7, 15746, Note_off_c, 5, 69, 0
7, 15937, Note_off_c, 5, 67, 0
7, 15937, Note_on_c, 5, 65, 91
7, 16129, Note_off_c, 5, 62, 0
7, 16129, Note_off_c, 5, 65, 0
7, 16129, Note_off_c, 5, 71, 0
7, 16131, Note_on_c, 5, 60, 84
7, 16131, Note_on_c, 5, 64, 95
7, 16131, Note_on_c, 5, 67, 95
7, 16323, Note_on_c, 5, 59, 91
7, 16324, Note_off_c, 5, 60, 0
7, 16505, Note_off_c, 5, 67, 0
7, 16507, Note_off_c, 5, 64, 0
7, 16513, Note_on_c, 5, 57, 95
7, 16513, Note_on_c, 5, 60, 95
7, 16513, Note_on_c, 5, 64, 95
7, 16516, Note_off_c, 5, 59, 0
7, 16705, Note_on_c, 5, 55, 82
7, 16706, Note_off_c, 5, 57, 0
7, 16877, Note_off_c, 5, 60, 0
7, 16897, Note_on_c, 5, 60, 84
7, 16897, Note_on_c, 5, 65, 95
7, 16897, Note_on_c, 5, 69, 84
7, 16898, Note_off_c, 5, 55, 0
7, 16898, Note_off_c, 5, 64, 0
7, 17089, Note_off_c, 5, 65, 0
7, 17089, Note_on_c, 5, 64, 82
7, 17281, Note_on_c, 5, 57, 79
7, 17281, Note_on_c, 5, 62, 79
7, 17281, Note_on_c, 5, 65, 82
7, 17282, Note_off_c, 5, 64, 0
7, 17282, Note_off_c, 5, 69, 0
7, 17285, Note_off_c, 5, 60, 0
7, 17473, Note_off_c, 5, 62, 0
7, 17473, Note_on_c, 5, 60, 87
7, 17665, Note_on_c, 5, 62, 84
7, 17665, Note_on_c, 5, 67, 91
7, 17665, Note_on_c, 5, 71, 99
7, 17666, Note_off_c, 5, 57, 0
7, 17666, Note_off_c, 5, 60, 0
7, 17666, Note_off_c, 5, 65, 0
7, 17857, Note_on_c, 5, 65, 71
7, 17858, Note_off_c, 5, 67, 0
7, 18049, Note_off_c, 5, 65, 0
7, 18049, Note_on_c, 5, 59, 82
7, 18049, Note_on_c, 5, 64, 82
7, 18049, Note_on_c, 5, 67, 71
7, 18050, Note_off_c, 5, 62, 0
7, 18050, Note_off_c, 5, 71, 0
7, 18241, Note_on_c, 5, 62, 73
7, 18242, Note_off_c, 5, 64, 0
7, 18433, Note_off_c, 5, 62, 0
7, 18433, Note_off_c, 5, 67, 0
7, 18434, Note_off_c, 5, 59, 0
7, 18435, Note_on_c, 5, 60, 84
7, 18435, Note_on_c, 5, 64, 95
7, 18435, Note_on_c, 5, 67, 95
7, 18627, Note_on_c, 5, 59, 91
7, 18628, Note_off_c, 5, 60, 0
7, 18809, Note_off_c, 5, 67, 0
7, 18811, Note_off_c, 5, 64, 0
7, 18817, Note_on_c, 5, 57, 95
7, 18817, Note_on_c, 5, 60, 95
7, 18817, Note_on_c, 5, 64, 95
7, 18820, Note_off_c, 5, 59, 0
7, 19009, Note_on_c, 5, 55, 82
7, 19010, Note_off_c, 5, 57, 0
7, 19189, Note_off_c, 5, 60, 0
7, 19201, Note_on_c, 5, 60, 84
7, 19201, Note_on_c, 5, 65, 95
7, 19201, Note_on_c, 5, 69, 84
7, 19202, Note_off_c, 5, 55, 0
7, 19202, Note_off_c, 5, 64, 0
7, 19393, Note_off_c, 5, 65, 0
7, 19393, Note_on_c, 5, 64, 82
7, 19585, Note_off_c, 5, 60, 0
7, 19585, Note_on_c, 5, 57, 79
7, 19585, Note_on_c, 5, 62, 79
7, 19585, Note_on_c, 5, 65, 82
7, 19586, Note_off_c, 5, 64, 0
7, 19586, Note_off_c, 5, 69, 0
7, 19777, Note_off_c, 5, 62, 0
7, 19777, Note_on_c, 5, 60, 87
7, 19969, Note_on_c, 5, 62, 84
7, 19969, Note_on_c, 5, 67, 91
7, 19969, Note_on_c, 5, 71, 99
7, 19970, Note_off_c, 5, 57, 0
7, 19970, Note_off_c, 5, 60, 0
7, 19970, Note_off_c, 5, 65, 0
7, 20161, Note_on_c, 5, 65, 71
7, 20162, Note_off_c, 5, 67, 0
7, 20353, Note_off_c, 5, 65, 0
7, 20353, Note_on_c, 5, 59, 82
7, 20353, Note_on_c, 5, 64, 82
7, 20353, Note_on_c, 5, 67, 71
7, 20354, Note_off_c, 5, 62, 0
7, 20354, Note_off_c, 5, 71, 0
7, 20545, Note_on_c, 5, 62, 73
7, 20546, Note_off_c, 5, 64, 0
7, 20737, Note_off_c, 5, 62, 0
7, 20737, Note_off_c, 5, 67, 0
7, 20738, Note_off_c, 5, 59, 0
7, 20739, Note_on_c, 5, 60, 84
7, 20739, Note_on_c, 5, 64, 95
7, 20739, Note_on_c, 5, 67, 95
7, 20931, Note_on_c, 5, 59, 91
7, 20932, Note_off_c, 5, 60, 0
7, 21113, Note_off_c, 5, 67, 0
7, 21115, Note_off_c, 5, 64, 0
7, 21121, Note_on_c, 5, 57, 95
7, 21121, Note_on_c, 5, 60, 95
7, 21121, Note_on_c, 5, 64, 95
7, 21124, Note_off_c, 5, 59, 0
7, 21313, Note_on_c, 5, 55, 82
7, 21314, Note_off_c, 5, 57, 0
7, 21485, Note_off_c, 5, 60, 0
7, 21505, Note_on_c, 5, 60, 84
7, 21505, Note_on_c, 5, 65, 95
7, 21505, Note_on_c, 5, 69, 84
7, 21506, Note_off_c, 5, 55, 0
7, 21506, Note_off_c, 5, 64, 0
7, 21697, Note_off_c, 5, 65, 0
7, 21697, Note_on_c, 5, 64, 82
7, 21889, Note_on_c, 5, 57, 79
7, 21889, Note_on_c, 5, 62, 79
7, 21889, Note_on_c, 5, 65, 82
7, 21890, Note_off_c, 5, 64, 0
7, 21890, Note_off_c, 5, 69, 0
7, 21897, Note_off_c, 5, 60, 0
7, 22081, Note_off_c, 5, 62, 0
7, 22085, Note_off_c, 5, 57, 0
7, 22085, Note_off_c, 5, 65, 0
7, 22275, Note_on_c, 5, 60, 84
7, 22275, Note_on_c, 5, 64, 95
7, 22275, Note_on_c, 5, 67, 95
7, 22467, Note_on_c, 5, 59, 91
7, 22468, Note_off_c, 5, 60, 0
7, 22649, Note_off_c, 5, 67, 0
7, 22651, Note_off_c, 5, 64, 0
7, 22657, Note_on_c, 5, 57, 95
7, 22657, Note_on_c, 5, 60, 95
7, 22657, Note_on_c, 5, 64, 95
7, 22660, Note_off_c, 5, 59, 0
7, 22849, Note_on_c, 5, 55, 82
7, 22850, Note_off_c, 5, 57, 0
7, 23009, Note_off_c, 5, 60, 0
7, 23041, Note_on_c, 5, 60, 84
7, 23041, Note_on_c, 5, 65, 95
7, 23041, Note_on_c, 5, 69, 84
7, 23042, Note_off_c, 5, 55, 0
7, 23042, Note_off_c, 5, 64, 0
7, 23233, Note_off_c, 5, 65, 0
7, 23233, Note_on_c, 5, 64, 82
7, 23421, Note_off_c, 5, 60, 0
7, 23425, Note_on_c, 5, 57, 79
7, 23425, Note_on_c, 5, 62, 79
7, 23425, Note_on_c, 5, 65, 82
7, 23426, Note_off_c, 5, 64, 0
7, 23426, Note_off_c, 5, 69, 0
7, 23617, Note_off_c, 5, 62, 0
7, 23617, Note_on_c, 5, 60, 87
7, 23809, Note_on_c, 5, 62, 84
7, 23809, Note_on_c, 5, 67, 91
7, 23809, Note_on_c, 5, 71, 99
7, 23810, Note_off_c, 5, 57, 0
7, 23810, Note_off_c, 5, 60, 0
7, 23810, Note_off_c, 5, 65, 0
7, 24001, Note_on_c, 5, 65, 71
7, 24002, Note_off_c, 5, 67, 0
7, 24193, Note_off_c, 5, 65, 0
7, 24193, Note_on_c, 5, 59, 82
7, 24193, Note_on_c, 5, 64, 82
7, 24193, Note_on_c, 5, 67, 71
7, 24194, Note_off_c, 5, 62, 0
7, 24194, Note_off_c, 5, 71, 0
7, 24385, Note_on_c, 5, 62, 73
7, 24386, Note_off_c, 5, 64, 0
7, 24577, Note_off_c, 5, 62, 0
7, 24577, Note_off_c, 5, 67, 0
7, 24578, Note_off_c, 5, 59, 0
7, 24579, Note_on_c, 5, 64, 95
7, 24579, Note_on_c, 5, 67, 95
7, 24579, Note_on_c, 5, 72, 87
7, 24756, Note_off_c, 5, 64, 0
7, 24757, Note_off_c, 5, 67, 0
7, 24771, Note_on_c, 5, 69, 84
7, 24772, Note_on_c, 5, 65, 73
7, 24931, Note_off_c, 5, 65, 0
7, 24935, Note_off_c, 5, 69, 0
7, 24958, Note_on_c, 5, 64, 87
7, 24959, Note_on_c, 5, 67, 99
7, 25134, Note_off_c, 5, 72, 0
7, 25136, Note_off_c, 5, 64, 0
7, 25138, Note_off_c, 5, 67, 0
7, 25156, Note_on_c, 5, 62, 99
7, 25157, Note_on_c, 5, 72, 82
7, 25157, Note_on_c, 5, 67, 99
7, 25247, Note_on_c, 5, 71, 76
7, 25250, Note_off_c, 5, 72, 0
7, 25333, Note_off_c, 5, 62, 0
7, 25334, Note_off_c, 5, 67, 0
7, 25335, Note_off_c, 5, 71, 0
7, 25347, Note_on_c, 5, 60, 84
7, 25347, Note_on_c, 5, 64, 95
7, 25347, Note_on_c, 5, 67, 95
7, 25539, Note_on_c, 5, 59, 91
7, 25540, Note_off_c, 5, 60, 0
7, 25721, Note_off_c, 5, 67, 0
7, 25723, Note_off_c, 5, 64, 0
7, 25729, Note_on_c, 5, 57, 95
7, 25729, Note_on_c, 5, 60, 95
7, 25729, Note_on_c, 5, 64, 95
7, 25732, Note_off_c, 5, 59, 0
7, 25921, Note_on_c, 5, 55, 82
7, 25922, Note_off_c, 5, 57, 0
7, 26101, Note_off_c, 5, 60, 0
7, 26113, Note_on_c, 5, 60, 84
7, 26113, Note_on_c, 5, 65, 95
7, 26113, Note_on_c, 5, 69, 84
7, 26114, Note_off_c, 5, 55, 0
7, 26114, Note_off_c, 5, 64, 0
7, 26305, Note_off_c, 5, 65, 0
7, 26305, Note_on_c, 5, 64, 82
7, 26497, Note_on_c, 5, 57, 79
7, 26497, Note_on_c, 5, 62, 79
7, 26497, Note_on_c, 5, 65, 82
7, 26498, Note_off_c, 5, 64, 0
7, 26498, Note_off_c, 5, 69, 0
7, 26501, Note_off_c, 5, 60, 0
7, 26689, Note_off_c, 5, 62, 0
7, 26689, Note_on_c, 5, 60, 87
7, 26881, Note_on_c, 5, 62, 84
7, 26881, Note_on_c, 5, 67, 91
7, 26881, Note_on_c, 5, 71, 99
7, 26882, Note_off_c, 5, 57, 0
7, 26882, Note_off_c, 5, 60, 0
7, 26882, Note_off_c, 5, 65, 0
7, 27073, Note_on_c, 5, 65, 71
7, 27074, Note_off_c, 5, 67, 0
7, 27265, Note_off_c, 5, 65, 0
7, 27265, Note_on_c, 5, 59, 82
7, 27265, Note_on_c, 5, 64, 82
7, 27265, Note_on_c, 5, 67, 71
7, 27266, Note_off_c, 5, 62, 0
7, 27266, Note_off_c, 5, 71, 0
7, 27457, Note_on_c, 5, 62, 73
7, 27458, Note_off_c, 5, 64, 0
7, 27649, Note_off_c, 5, 62, 0
7, 27649, Note_off_c, 5, 67, 0
7, 27649, Note_on_c, 5, 60, 84
7, 27649, Note_on_c, 5, 64, 82
7, 27649, Note_on_c, 5, 67, 76
7, 27650, Note_off_c, 5, 59, 0
7, 27841, Note_on_c, 5, 65, 73
7, 27841, Note_on_c, 5, 69, 73
7, 27842, Note_off_c, 5, 64, 0
7, 27842, Note_off_c, 5, 67, 0
7, 28034, Note_off_c, 5, 60, 0
7, 28034, Note_off_c, 5, 65, 0
7, 28034, Note_off_c, 5, 69, 0
7, 28034, Note_on_c, 5, 62, 76
7, 28035, Note_on_c, 5, 67, 87
7, 28035, Note_on_c, 5, 71, 82
7, 28230, Note_off_c, 5, 62, 0
7, 28232, Note_off_c, 5, 71, 0
7, 28233, Note_off_c, 5, 67, 0
7, 28419, Note_on_c, 5, 60, 84
7, 28419, Note_on_c, 5, 64, 95
7, 28419, Note_on_c, 5, 67, 95
7, 28611, Note_on_c, 5, 59, 91
7, 28612, Note_off_c, 5, 60, 0
7, 28793, Note_off_c, 5, 67, 0
7, 28795, Note_off_c, 5, 64, 0
7, 28801, Note_on_c, 5, 57, 95
7, 28801, Note_on_c, 5, 60, 95
7, 28801, Note_on_c, 5, 64, 95
7, 28804, Note_off_c, 5, 59, 0
7, 28993, Note_on_c, 5, 55, 82
7, 28994, Note_off_c, 5, 57, 0
7, 29161, Note_off_c, 5, 60, 0
7, 29185, Note_on_c, 5, 60, 84
7, 29185, Note_on_c, 5, 65, 95
7, 29185, Note_on_c, 5, 69, 84
7, 29186, Note_off_c, 5, 55, 0
7, 29186, Note_off_c, 5, 64, 0
7, 29377, Note_off_c, 5, 65, 0
7, 29377, Note_on_c, 5, 64, 82
7, 29561, Note_off_c, 5, 60, 0
7, 29569, Note_on_c, 5, 57, 79
7, 29569, Note_on_c, 5, 62, 79
7, 29569, Note_on_c, 5, 65, 82
7, 29570, Note_off_c, 5, 64, 0
7, 29570, Note_off_c, 5, 69, 0
7, 29761, Note_off_c, 5, 62, 0
7, 29761, Note_on_c, 5, 60, 87
7, 29953, Note_on_c, 5, 62, 84
7, 29953, Note_on_c, 5, 67, 91
7, 29953, Note_on_c, 5, 71, 99
7, 29954, Note_off_c, 5, 57, 0
7, 29954, Note_off_c, 5, 60, 0
7, 29954, Note_off_c, 5, 65, 0
7, 30145, Note_on_c, 5, 65, 71
7, 30146, Note_off_c, 5, 67, 0
7, 30337, Note_off_c, 5, 65, 0
7, 30337, Note_on_c, 5, 59, 82
7, 30337, Note_on_c, 5, 64, 82
7, 30337, Note_on_c, 5, 67, 71
7, 30338, Note_off_c, 5, 62, 0
7, 30338, Note_off_c, 5, 71, 0
7, 30529, Note_on_c, 5, 62, 73
7, 30530, Note_off_c, 5, 64, 0
7, 30721, Note_off_c, 5, 62, 0
7, 30721, Note_off_c, 5, 67, 0
7, 30721, Note_on_c, 5, 60, 99
7, 30721, Note_on_c, 5, 67, 99
7, 30722, Note_off_c, 5, 59, 0
7, 30722, Note_on_c, 5, 64, 99
7, 30901, Note_off_c, 5, 64, 0
7, 30902, Note_off_c, 5, 67, 0
7, 30911, Note_on_c, 5, 65, 99
7, 30912, Note_on_c, 5, 69, 91
7, 31093, Note_off_c, 5, 65, 0
7, 31096, Note_off_c, 5, 69, 0
7, 31102, Note_on_c, 5, 64, 87
7, 31103, Note_on_c, 5, 67, 87
7, 31283, Note_off_c, 5, 64, 0
7, 31285, Note_off_c, 5, 67, 0
7, 31296, Note_on_c, 5, 65, 103
7, 31296, Note_on_c, 5, 69, 84
7, 31680, Tempo, 845070
7, 31863, Note_off_c, 5, 69, 0
7, 31872, Tempo, 895522
7, 31873, Note_on_c, 5, 68, 103
7, 32064, Tempo, 909090
7, 32239, Note_off_c, 5, 68, 0
7, 32240, Note_off_c, 5, 60, 0
7, 32241, Note_off_c, 5, 65, 0
7, 32256, Tempo, 1034482
7, 32260, Note_on_c, 5, 65, 99
7, 32261, Note_on_c, 5, 67, 91
7, 32261, Note_on_c, 5, 60, 91
7, 32444, Note_off_c, 5, 65, 0
7, 32446, Note_on_c, 5, 64, 95
7, 32544, Note_on_c, 5, 62, 82
7, 32547, Note_off_c, 5, 64, 0
7, 32638, Note_on_c, 5, 64, 95
7, 32641, Note_off_c, 5, 62, 0
7, 33046, Note_off_c, 5, 60, 0
7, 33047, Note_off_c, 5, 64, 0
7, 33047, Note_off_c, 5, 67, 0
7, 33432, Control_c, 5, 120, 0
7, 33432, End_track
8, 0, Start_track
8, 0, Control_c, 9, 32, 0
8, 0, Control_c, 9, 0, 0
8, 0, Program_c, 9, 0
8, 0, Control_c, 9, 10, 63
8, 0, Control_c, 9, 91, 126
8, 0, Control_c, 9, 93, 32
8, 0, Time_signature, 4, 2, 96, 8
8, 0, Tempo, 833333
8, 96, Control_c, 9, 121, 0
8, 264, Control_c, 9, 7, 124
8, 288, Control_c, 9, 11, 127
8, 623, Note_on_c, 9, 47, 87
8, 629, Note_off_c, 9, 47, 0
8, 671, Note_on_c, 9, 45, 84
8, 677, Note_off_c, 9, 45, 0
8, 695, Note_on_c, 9, 45, 91
8, 701, Note_off_c, 9, 45, 0
8, 719, Note_on_c, 9, 43, 95
8, 725, Note_off_c, 9, 43, 0
8, 767, Note_on_c, 9, 35, 115
8, 767, Note_on_c, 9, 49, 84
8, 773, Note_off_c, 9, 35, 0
8, 773, Note_off_c, 9, 49, 0
8, 815, Note_on_c, 9, 51, 68
8, 821, Note_off_c, 9, 51, 0
8, 863, Note_on_c, 9, 40, 107
8, 863, Note_on_c, 9, 51, 79
8, 869, Note_off_c, 9, 40, 0
8, 869, Note_off_c, 9, 51, 0
8, 911, Note_on_c, 9, 35, 111
8, 911, Note_on_c, 9, 51, 69
8, 917, Note_off_c, 9, 35, 0
8, 917, Note_off_c, 9, 51, 0
8, 959, Note_on_c, 9, 35, 115
8, 959, Note_on_c, 9, 51, 76
8, 965, Note_off_c, 9, 35, 0
8, 965, Note_off_c, 9, 51, 0
8, 1007, Note_on_c, 9, 51, 66
8, 1013, Note_off_c, 9, 51, 0
8, 1055, Note_on_c, 9, 40, 107
8, 1055, Note_on_c, 9, 51, 84
8, 1061, Note_off_c, 9, 40, 0
8, 1061, Note_off_c, 9, 51, 0
8, 1103, Note_on_c, 9, 51, 69
8, 1109, Note_off_c, 9, 51, 0
8, 1151, Note_on_c, 9, 35, 115
8, 1151, Note_on_c, 9, 51, 79
8, 1157, Note_off_c, 9, 35, 0
8, 1157, Note_off_c, 9, 51, 0
8, 1199, Note_on_c, 9, 51, 68
8, 1205, Note_off_c, 9, 51, 0
8, 1247, Note_on_c, 9, 40, 107
8, 1247, Note_on_c, 9, 51, 79
8, 1253, Note_off_c, 9, 40, 0
8, 1253, Note_off_c, 9, 51, 0
8, 1295, Note_on_c, 9, 35, 107
8, 1295, Note_on_c, 9, 51, 67
8, 1301, Note_off_c, 9, 35, 0
8, 1301, Note_off_c, 9, 51, 0
8, 1343, Note_on_c, 9, 35, 111
8, 1343, Note_on_c, 9, 51, 79
8, 1349, Note_off_c, 9, 35, 0
8, 1349, Note_off_c, 9, 51, 0
8, 1391, Note_on_c, 9, 51, 76
8, 1397, Note_off_c, 9, 51, 0
8, 1439, Note_on_c, 9, 40, 107
8, 1439, Note_on_c, 9, 51, 84
8, 1445, Note_off_c, 9, 40, 0
8, 1445, Note_off_c, 9, 51, 0
8, 1487, Note_on_c, 9, 47, 95
8, 1493, Note_off_c, 9, 47, 0
8, 1511, Note_on_c, 9, 45, 82
8, 1517, Note_off_c, 9, 45, 0
8, 1535, Note_on_c, 9, 35, 115
8, 1535, Note_on_c, 9, 49, 67
8, 1541, Note_off_c, 9, 35, 0
8, 1541, Note_off_c, 9, 49, 0
8, 1583, Note_on_c, 9, 51, 73
8, 1589, Note_off_c, 9, 51, 0
8, 1631, Note_on_c, 9, 40, 107
8, 1631, Note_on_c, 9, 51, 79
8, 1637, Note_off_c, 9, 40, 0
8, 1637, Note_off_c, 9, 51, 0
8, 1679, Note_on_c, 9, 35, 111
8, 1679, Note_on_c, 9, 51, 71
8, 1685, Note_off_c, 9, 35, 0
8, 1685, Note_off_c, 9, 51, 0
8, 1727, Note_on_c, 9, 35, 119
8, 1727, Note_on_c, 9, 51, 73
8, 1733, Note_off_c, 9, 35, 0
8, 1733, Note_off_c, 9, 51, 0
8, 1775, Note_on_c, 9, 51, 67
8, 1781, Note_off_c, 9, 51, 0
8, 1823, Note_on_c, 9, 40, 95
8, 1823, Note_on_c, 9, 51, 79
8, 1829, Note_off_c, 9, 40, 0
8, 1829, Note_off_c, 9, 51, 0
8, 1871, Note_on_c, 9, 51, 71
8, 1877, Note_off_c, 9, 51, 0
8, 1919, Note_on_c, 9, 35, 123
8, 1919, Note_on_c, 9, 51, 73
8, 1925, Note_off_c, 9, 35, 0
8, 1925, Note_off_c, 9, 51, 0
8, 1967, Note_on_c, 9, 51, 67
8, 1973, Note_off_c, 9, 51, 0
8, 2015, Note_on_c, 9, 40, 95
8, 2015, Note_on_c, 9, 51, 73
8, 2021, Note_off_c, 9, 40, 0
8, 2021, Note_off_c, 9, 51, 0
8, 2063, Note_on_c, 9, 35, 119
8, 2063, Note_on_c, 9, 51, 73
8, 2069, Note_off_c, 9, 35, 0
8, 2069, Note_off_c, 9, 51, 0
8, 2111, Note_on_c, 9, 35, 107
8, 2111, Note_on_c, 9, 51, 76
8, 2117, Note_off_c, 9, 35, 0
8, 2117, Note_off_c, 9, 51, 0
8, 2159, Note_on_c, 9, 51, 76
8, 2165, Note_off_c, 9, 51, 0
8, 2207, Note_on_c, 9, 40, 107
8, 2207, Note_on_c, 9, 51, 84
8, 2213, Note_off_c, 9, 40, 0
8, 2213, Note_off_c, 9, 51, 0
8, 2255, Note_on_c, 9, 47, 87
8, 2255, Note_on_c, 9, 51, 79
8, 2261, Note_off_c, 9, 47, 0
8, 2261, Note_off_c, 9, 51, 0
8, 2279, Note_on_c, 9, 45, 84
8, 2285, Note_off_c, 9, 45, 0
8, 2303, Note_on_c, 9, 35, 115
8, 2303, Note_on_c, 9, 57, 84
8, 2309, Note_off_c, 9, 35, 0
8, 2309, Note_off_c, 9, 57, 0
8, 2351, Note_on_c, 9, 51, 62
8, 2357, Note_off_c, 9, 51, 0
8, 2399, Note_on_c, 9, 40, 111
8, 2399, Note_on_c, 9, 51, 79
8, 2405, Note_off_c, 9, 40, 0
8, 2405, Note_off_c, 9, 51, 0
8, 2447, Note_on_c, 9, 35, 111
8, 2447, Note_on_c, 9, 51, 68
8, 2453, Note_off_c, 9, 35, 0
8, 2453, Note_off_c, 9, 51, 0
8, 2495, Note_on_c, 9, 35, 115
8, 2495, Note_on_c, 9, 51, 76
8, 2501, Note_off_c, 9, 35, 0
8, 2501, Note_off_c, 9, 51, 0
8, 2543, Note_on_c, 9, 51, 64
8, 2549, Note_off_c, 9, 51, 0
8, 2591, Note_on_c, 9, 40, 107
8, 2591, Note_on_c, 9, 51, 76
8, 2597, Note_off_c, 9, 40, 0
8, 2597, Note_off_c, 9, 51, 0
8, 2639, Note_on_c, 9, 51, 67
8, 2645, Note_off_c, 9, 51, 0
8, 2687, Note_on_c, 9, 35, 119
8, 2687, Note_on_c, 9, 51, 71
8, 2693, Note_off_c, 9, 35, 0
8, 2693, Note_off_c, 9, 51, 0
8, 2735, Note_on_c, 9, 51, 67
8, 2741, Note_off_c, 9, 51, 0
8, 2783, Note_on_c, 9, 40, 115
8, 2783, Note_on_c, 9, 51, 79
8, 2789, Note_off_c, 9, 40, 0
8, 2789, Note_off_c, 9, 51, 0
8, 2831, Note_on_c, 9, 35, 111
8, 2831, Note_on_c, 9, 51, 62
8, 2837, Note_off_c, 9, 35, 0
8, 2837, Note_off_c, 9, 51, 0
8, 2879, Note_on_c, 9, 35, 111
8, 2879, Note_on_c, 9, 51, 76
8, 2885, Note_off_c, 9, 35, 0
8, 2885, Note_off_c, 9, 51, 0
8, 2927, Note_on_c, 9, 51, 56
8, 2933, Note_off_c, 9, 51, 0
8, 2975, Note_on_c, 9, 40, 111
8, 2975, Note_on_c, 9, 51, 82
8, 2981, Note_off_c, 9, 40, 0
8, 2981, Note_off_c, 9, 51, 0
8, 3023, Note_on_c, 9, 51, 69
8, 3029, Note_off_c, 9, 51, 0
8, 3071, Note_on_c, 9, 35, 115
8, 3071, Note_on_c, 9, 55, 76
8, 3077, Note_off_c, 9, 35, 0
8, 3077, Note_off_c, 9, 55, 0
8, 3119, Note_on_c, 9, 51, 62
8, 3125, Note_off_c, 9, 51, 0
8, 3167, Note_on_c, 9, 40, 107
8, 3167, Note_on_c, 9, 51, 87
8, 3173, Note_off_c, 9, 40, 0
8, 3173, Note_off_c, 9, 51, 0
8, 3215, Note_on_c, 9, 35, 107
8, 3215, Note_on_c, 9, 51, 64
8, 3221, Note_off_c, 9, 35, 0
8, 3221, Note_off_c, 9, 51, 0
8, 3263, Note_on_c, 9, 35, 115
8, 3263, Note_on_c, 9, 51, 76
8, 3269, Note_off_c, 9, 35, 0
8, 3269, Note_off_c, 9, 51, 0
8, 3311, Note_on_c, 9, 51, 56
8, 3317, Note_off_c, 9, 51, 0
8, 3359, Note_on_c, 9, 40, 111
8, 3359, Note_on_c, 9, 51, 79
8, 3365, Note_off_c, 9, 40, 0
8, 3365, Note_off_c, 9, 51, 0
8, 3407, Note_on_c, 9, 51, 62
8, 3413, Note_off_c, 9, 51, 0
8, 3455, Note_on_c, 9, 35, 115
8, 3455, Note_on_c, 9, 51, 79
8, 3461, Note_off_c, 9, 35, 0
8, 3461, Note_off_c, 9, 51, 0
8, 3503, Note_on_c, 9, 51, 56
8, 3509, Note_off_c, 9, 51, 0
8, 3527, Note_on_c, 9, 35, 91
8, 3533, Note_off_c, 9, 35, 0
8, 3550, Note_on_c, 9, 38, 84
8, 3551, Note_on_c, 9, 51, 82
8, 3553, Note_on_c, 9, 40, 111
8, 3556, Note_off_c, 9, 38, 0
8, 3557, Note_off_c, 9, 51, 0
8, 3559, Note_off_c, 9, 40, 0
8, 3599, Note_on_c, 9, 47, 91
8, 3605, Note_off_c, 9, 47, 0
8, 3647, Note_on_c, 9, 35, 115
8, 3653, Note_off_c, 9, 35, 0
8, 3695, Note_on_c, 9, 47, 111
8, 3701, Note_off_c, 9, 47, 0
8, 3743, Note_on_c, 9, 45, 107
8, 3749, Note_off_c, 9, 45, 0
8, 3767, Note_on_c, 9, 43, 84
8, 3773, Note_off_c, 9, 43, 0
8, 3791, Note_on_c, 9, 41, 107
8, 3797, Note_off_c, 9, 41, 0
8, 3839, Note_on_c, 9, 35, 115
8, 3839, Note_on_c, 9, 49, 84
8, 3845, Note_off_c, 9, 35, 0
8, 3845, Note_off_c, 9, 49, 0
8, 3887, Note_on_c, 9, 42, 79
8, 3893, Note_off_c, 9, 42, 0
8, 3935, Note_on_c, 9, 40, 107
8, 3935, Note_on_c, 9, 42, 95
8, 3941, Note_off_c, 9, 40, 0
8, 3941, Note_off_c, 9, 42, 0
8, 3983, Note_on_c, 9, 35, 111
8, 3983, Note_on_c, 9, 42, 64
8, 3989, Note_off_c, 9, 35, 0
8, 3989, Note_off_c, 9, 42, 0
8, 4031, Note_on_c, 9, 35, 115
8, 4031, Note_on_c, 9, 42, 82
8, 4037, Note_off_c, 9, 35, 0
8, 4037, Note_off_c, 9, 42, 0
8, 4079, Note_on_c, 9, 42, 63
8, 4085, Note_off_c, 9, 42, 0
8, 4127, Note_on_c, 9, 40, 107
8, 4127, Note_on_c, 9, 42, 99
8, 4133, Note_off_c, 9, 40, 0
8, 4133, Note_off_c, 9, 42, 0
8, 4175, Note_on_c, 9, 42, 71
8, 4181, Note_off_c, 9, 42, 0
8, 4223, Note_on_c, 9, 35, 115
8, 4223, Note_on_c, 9, 42, 79
8, 4229, Note_off_c, 9, 35, 0
8, 4229, Note_off_c, 9, 42, 0
8, 4271, Note_on_c, 9, 42, 55
8, 4277, Note_off_c, 9, 42, 0
8, 4319, Note_on_c, 9, 40, 107
8, 4319, Note_on_c, 9, 42, 107
8, 4325, Note_off_c, 9, 40, 0
8, 4325, Note_off_c, 9, 42, 0
8, 4367, Note_on_c, 9, 35, 107
8, 4367, Note_on_c, 9, 42, 66
8, 4373, Note_off_c, 9, 35, 0
8, 4373, Note_off_c, 9, 42, 0
8, 4415, Note_on_c, 9, 35, 111
8, 4415, Note_on_c, 9, 42, 84
8, 4421, Note_off_c, 9, 35, 0
8, 4421, Note_off_c, 9, 42, 0
8, 4463, Note_on_c, 9, 42, 51
8, 4469, Note_off_c, 9, 42, 0
8, 4511, Note_on_c, 9, 40, 107
8, 4511, Note_on_c, 9, 42, 91
8, 4517, Note_off_c, 9, 40, 0
8, 4517, Note_off_c, 9, 42, 0
8, 4559, Note_on_c, 9, 46, 58
8, 4565, Note_off_c, 9, 46, 0
8, 4607, Note_on_c, 9, 35, 115
8, 4607, Note_on_c, 9, 42, 87
8, 4613, Note_off_c, 9, 35, 0
8, 4613, Note_off_c, 9, 42, 0
8, 4655, Note_on_c, 9, 42, 43
8, 4661, Note_off_c, 9, 42, 0
8, 4703, Note_on_c, 9, 40, 107
8, 4703, Note_on_c, 9, 42, 107
8, 4709, Note_off_c, 9, 40, 0
8, 4709, Note_off_c, 9, 42, 0
8, 4751, Note_on_c, 9, 35, 111
8, 4751, Note_on_c, 9, 42, 67
8, 4757, Note_off_c, 9, 35, 0
8, 4757, Note_off_c, 9, 42, 0
8, 4799, Note_on_c, 9, 35, 119
8, 4799, Note_on_c, 9, 42, 79
8, 4805, Note_off_c, 9, 35, 0
8, 4805, Note_off_c, 9, 42, 0
8, 4847, Note_on_c, 9, 42, 53
8, 4853, Note_off_c, 9, 42, 0
8, 4895, Note_on_c, 9, 40, 95
8, 4895, Note_on_c, 9, 42, 99
8, 4901, Note_off_c, 9, 40, 0
8, 4901, Note_off_c, 9, 42, 0
8, 4943, Note_on_c, 9, 42, 64
8, 4949, Note_off_c, 9, 42, 0
8, 4991, Note_on_c, 9, 35, 123
8, 4991, Note_on_c, 9, 42, 84
8, 4997, Note_off_c, 9, 35, 0
8, 4997, Note_off_c, 9, 42, 0
8, 5039, Note_on_c, 9, 42, 42
8, 5045, Note_off_c, 9, 42, 0
8, 5087, Note_on_c, 9, 40, 95
8, 5087, Note_on_c, 9, 42, 95
8, 5093, Note_off_c, 9, 40, 0
8, 5093, Note_off_c, 9, 42, 0
8, 5135, Note_on_c, 9, 35, 119
8, 5135, Note_on_c, 9, 42, 56
8, 5141, Note_off_c, 9, 35, 0
8, 5141, Note_off_c, 9, 42, 0
8, 5183, Note_on_c, 9, 35, 107
8, 5183, Note_on_c, 9, 42, 82
8, 5189, Note_off_c, 9, 35, 0
8, 5189, Note_off_c, 9, 42, 0
8, 5231, Note_on_c, 9, 42, 57
8, 5237, Note_off_c, 9, 42, 0
8, 5279, Note_on_c, 9, 40, 107
8, 5279, Note_on_c, 9, 42, 84
8, 5285, Note_off_c, 9, 40, 0
8, 5285, Note_off_c, 9, 42, 0
8, 5303, Note_on_c, 9, 42, 69
8, 5309, Note_off_c, 9, 42, 0
8, 5327, Note_on_c, 9, 46, 79
8, 5333, Note_off_c, 9, 46, 0
8, 5375, Note_on_c, 9, 35, 115
8, 5375, Note_on_c, 9, 55, 87
8, 5381, Note_off_c, 9, 35, 0
8, 5381, Note_off_c, 9, 55, 0
8, 5423, Note_on_c, 9, 42, 35
8, 5429, Note_off_c, 9, 42, 0
8, 5471, Note_on_c, 9, 40, 111
8, 5471, Note_on_c, 9, 42, 87
8, 5477, Note_off_c, 9, 40, 0
8, 5477, Note_off_c, 9, 42, 0
8, 5519, Note_on_c, 9, 35, 111
8, 5519, Note_on_c, 9, 42, 82
8, 5525, Note_off_c, 9, 35, 0
8, 5525, Note_off_c, 9, 42, 0
8, 5567, Note_on_c, 9, 35, 115
8, 5567, Note_on_c, 9, 42, 82
8, 5573, Note_off_c, 9, 35, 0
8, 5573, Note_off_c, 9, 42, 0
8, 5615, Note_on_c, 9, 42, 71
8, 5621, Note_off_c, 9, 42, 0
8, 5663, Note_on_c, 9, 40, 107
8, 5663, Note_on_c, 9, 42, 82
8, 5669, Note_off_c, 9, 40, 0
8, 5669, Note_off_c, 9, 42, 0
8, 5711, Note_on_c, 9, 42, 68
8, 5717, Note_off_c, 9, 42, 0
8, 5759, Note_on_c, 9, 35, 119
8, 5759, Note_on_c, 9, 42, 76
8, 5765, Note_off_c, 9, 35, 0
8, 5765, Note_off_c, 9, 42, 0
8, 5807, Note_on_c, 9, 42, 73
8, 5813, Note_off_c, 9, 42, 0
8, 5855, Note_on_c, 9, 40, 115
8, 5855, Note_on_c, 9, 42, 82
8, 5861, Note_off_c, 9, 40, 0
8, 5861, Note_off_c, 9, 42, 0
8, 5903, Note_on_c, 9, 35, 111
8, 5903, Note_on_c, 9, 42, 84
8, 5909, Note_off_c, 9, 35, 0
8, 5909, Note_off_c, 9, 42, 0
8, 5951, Note_on_c, 9, 35, 111
8, 5951, Note_on_c, 9, 42, 84
8, 5957, Note_off_c, 9, 35, 0
8, 5957, Note_off_c, 9, 42, 0
8, 5999, Note_on_c, 9, 42, 66
8, 6005, Note_off_c, 9, 42, 0
8, 6023, Note_on_c, 9, 35, 107
8, 6023, Note_on_c, 9, 42, 84
8, 6029, Note_off_c, 9, 35, 0
8, 6029, Note_off_c, 9, 42, 0
8, 6047, Note_on_c, 9, 40, 111
8, 6047, Note_on_c, 9, 46, 82
8, 6053, Note_off_c, 9, 40, 0
8, 6053, Note_off_c, 9, 46, 0
8, 6095, Note_on_c, 9, 47, 107
8, 6101, Note_off_c, 9, 47, 0
8, 6119, Note_on_c, 9, 45, 95
8, 6125, Note_off_c, 9, 45, 0
8, 6143, Note_on_c, 9, 35, 115
8, 6143, Note_on_c, 9, 49, 84
8, 6149, Note_off_c, 9, 35, 0
8, 6149, Note_off_c, 9, 49, 0
8, 6191, Note_on_c, 9, 42, 79
8, 6197, Note_off_c, 9, 42, 0
8, 6239, Note_on_c, 9, 40, 107
8, 6239, Note_on_c, 9, 42, 95
8, 6245, Note_off_c, 9, 40, 0
8, 6245, Note_off_c, 9, 42, 0
8, 6287, Note_on_c, 9, 35, 111
8, 6287, Note_on_c, 9, 42, 64
8, 6293, Note_off_c, 9, 35, 0
8, 6293, Note_off_c, 9, 42, 0
8, 6335, Note_on_c, 9, 35, 115
8, 6335, Note_on_c, 9, 42, 82
8, 6341, Note_off_c, 9, 35, 0
8, 6341, Note_off_c, 9, 42, 0
8, 6383, Note_on_c, 9, 42, 63
8, 6389, Note_off_c, 9, 42, 0
8, 6431, Note_on_c, 9, 40, 107
8, 6431, Note_on_c, 9, 42, 99
8, 6437, Note_off_c, 9, 40, 0
8, 6437, Note_off_c, 9, 42, 0
8, 6479, Note_on_c, 9, 42, 71
8, 6485, Note_off_c, 9, 42, 0
8, 6527, Note_on_c, 9, 35, 115
8, 6527, Note_on_c, 9, 42, 79
8, 6533, Note_off_c, 9, 35, 0
8, 6533, Note_off_c, 9, 42, 0
8, 6575, Note_on_c, 9, 42, 55
8, 6581, Note_off_c, 9, 42, 0
8, 6623, Note_on_c, 9, 40, 107
8, 6623, Note_on_c, 9, 42, 107
8, 6629, Note_off_c, 9, 40, 0
8, 6629, Note_off_c, 9, 42, 0
8, 6671, Note_on_c, 9, 35, 107
8, 6671, Note_on_c, 9, 42, 66
8, 6677, Note_off_c, 9, 35, 0
8, 6677, Note_off_c, 9, 42, 0
8, 6719, Note_on_c, 9, 35, 111
8, 6719, Note_on_c, 9, 42, 84
8, 6725, Note_off_c, 9, 35, 0
8, 6725, Note_off_c, 9, 42, 0
8, 6767, Note_on_c, 9, 42, 51
8, 6773, Note_off_c, 9, 42, 0
8, 6815, Note_on_c, 9, 40, 107
8, 6815, Note_on_c, 9, 42, 91
8, 6821, Note_off_c, 9, 40, 0
8, 6821, Note_off_c, 9, 42, 0
8, 6863, Note_on_c, 9, 46, 58
8, 6869, Note_off_c, 9, 46, 0
8, 6911, Note_on_c, 9, 35, 115
8, 6911, Note_on_c, 9, 42, 87
8, 6917, Note_off_c, 9, 35, 0
8, 6917, Note_off_c, 9, 42, 0
8, 6959, Note_on_c, 9, 42, 43
8, 6965, Note_off_c, 9, 42, 0
8, 7007, Note_on_c, 9, 40, 107
8, 7007, Note_on_c, 9, 42, 107
8, 7013, Note_off_c, 9, 40, 0
8, 7013, Note_off_c, 9, 42, 0
8, 7055, Note_on_c, 9, 35, 111
8, 7055, Note_on_c, 9, 42, 67
8, 7061, Note_off_c, 9, 35, 0
8, 7061, Note_off_c, 9, 42, 0
8, 7103, Note_on_c, 9, 35, 119
8, 7103, Note_on_c, 9, 42, 79
8, 7109, Note_off_c, 9, 35, 0
8, 7109, Note_off_c, 9, 42, 0
8, 7151, Note_on_c, 9, 42, 53
8, 7157, Note_off_c, 9, 42, 0
8, 7199, Note_on_c, 9, 40, 95
8, 7199, Note_on_c, 9, 42, 99
8, 7205, Note_off_c, 9, 40, 0
8, 7205, Note_off_c, 9, 42, 0
8, 7247, Note_on_c, 9, 42, 64
8, 7253, Note_off_c, 9, 42, 0
8, 7295, Note_on_c, 9, 35, 123
8, 7295, Note_on_c, 9, 42, 84
8, 7301, Note_off_c, 9, 35, 0
8, 7301, Note_off_c, 9, 42, 0
8, 7343, Note_on_c, 9, 42, 42
8, 7349, Note_off_c, 9, 42, 0
8, 7391, Note_on_c, 9, 40, 95
8, 7391, Note_on_c, 9, 42, 95
8, 7397, Note_off_c, 9, 40, 0
8, 7397, Note_off_c, 9, 42, 0
8, 7439, Note_on_c, 9, 35, 119
8, 7439, Note_on_c, 9, 42, 56
8, 7445, Note_off_c, 9, 35, 0
8, 7445, Note_off_c, 9, 42, 0
8, 7487, Note_on_c, 9, 35, 107
8, 7487, Note_on_c, 9, 42, 82
8, 7493, Note_off_c, 9, 35, 0
8, 7493, Note_off_c, 9, 42, 0
8, 7535, Note_on_c, 9, 42, 57
8, 7541, Note_off_c, 9, 42, 0
8, 7559, Note_on_c, 9, 35, 84
8, 7565, Note_off_c, 9, 35, 0
8, 7583, Note_on_c, 9, 40, 107
8, 7583, Note_on_c, 9, 42, 84
8, 7589, Note_off_c, 9, 40, 0
8, 7589, Note_off_c, 9, 42, 0
8, 7607, Note_on_c, 9, 42, 69
8, 7613, Note_off_c, 9, 42, 0
8, 7631, Note_on_c, 9, 45, 107
8, 7637, Note_off_c, 9, 45, 0
8, 7655, Note_on_c, 9, 43, 107
8, 7661, Note_off_c, 9, 43, 0
8, 7679, Note_on_c, 9, 35, 115
8, 7679, Note_on_c, 9, 49, 80
8, 7685, Note_off_c, 9, 35, 0
8, 7685, Note_off_c, 9, 49, 0
8, 7727, Note_on_c, 9, 42, 35
8, 7733, Note_off_c, 9, 42, 0
8, 7775, Note_on_c, 9, 40, 111
8, 7775, Note_on_c, 9, 42, 87
8, 7781, Note_off_c, 9, 40, 0
8, 7781, Note_off_c, 9, 42, 0
8, 7823, Note_on_c, 9, 35, 111
8, 7823, Note_on_c, 9, 42, 82
8, 7829, Note_off_c, 9, 35, 0
8, 7829, Note_off_c, 9, 42, 0
8, 7871, Note_on_c, 9, 35, 115
8, 7871, Note_on_c, 9, 42, 82
8, 7877, Note_off_c, 9, 35, 0
8, 7877, Note_off_c, 9, 42, 0
8, 7919, Note_on_c, 9, 42, 71
8, 7925, Note_off_c, 9, 42, 0
8, 7967, Note_on_c, 9, 40, 107
8, 7967, Note_on_c, 9, 42, 82
8, 7973, Note_off_c, 9, 40, 0
8, 7973, Note_off_c, 9, 42, 0
8, 8015, Note_on_c, 9, 42, 68
8, 8021, Note_off_c, 9, 42, 0
8, 8063, Note_on_c, 9, 35, 119
8, 8063, Note_on_c, 9, 42, 76
8, 8069, Note_off_c, 9, 35, 0
8, 8069, Note_off_c, 9, 42, 0
8, 8111, Note_on_c, 9, 42, 73
8, 8117, Note_off_c, 9, 42, 0
8, 8159, Note_on_c, 9, 40, 115
8, 8159, Note_on_c, 9, 42, 82
8, 8165, Note_off_c, 9, 40, 0
8, 8165, Note_off_c, 9, 42, 0
8, 8207, Note_on_c, 9, 35, 111
8, 8207, Note_on_c, 9, 42, 84
8, 8213, Note_off_c, 9, 35, 0
8, 8213, Note_off_c, 9, 42, 0
8, 8255, Note_on_c, 9, 35, 111
8, 8255, Note_on_c, 9, 42, 84
8, 8261, Note_off_c, 9, 35, 0
8, 8261, Note_off_c, 9, 42, 0
8, 8303, Note_on_c, 9, 42, 66
8, 8309, Note_off_c, 9, 42, 0
8, 8327, Note_on_c, 9, 42, 84
8, 8333, Note_off_c, 9, 42, 0
8, 8351, Note_on_c, 9, 40, 111
8, 8351, Note_on_c, 9, 46, 82
8, 8357, Note_off_c, 9, 40, 0
8, 8357, Note_off_c, 9, 46, 0
8, 8399, Note_on_c, 9, 35, 82
8, 8399, Note_on_c, 9, 42, 79
8, 8405, Note_off_c, 9, 35, 0
8, 8405, Note_off_c, 9, 42, 0
8, 8447, Note_on_c, 9, 35, 115
8, 8447, Note_on_c, 9, 49, 84
8, 8453, Note_off_c, 9, 35, 0
8, 8453, Note_off_c, 9, 49, 0
8, 8499, Note_on_c, 9, 42, 79
8, 8505, Note_off_c, 9, 42, 0
8, 8543, Note_on_c, 9, 40, 107
8, 8546, Note_on_c, 9, 42, 79
8, 8549, Note_off_c, 9, 40, 0
8, 8552, Note_off_c, 9, 42, 0
8, 8591, Note_on_c, 9, 35, 111
8, 8591, Note_on_c, 9, 42, 64
8, 8597, Note_off_c, 9, 35, 0
8, 8597, Note_off_c, 9, 42, 0
8, 8639, Note_on_c, 9, 35, 115
8, 8639, Note_on_c, 9, 42, 73
8, 8645, Note_off_c, 9, 35, 0
8, 8645, Note_off_c, 9, 42, 0
8, 8688, Note_on_c, 9, 42, 62
8, 8694, Note_off_c, 9, 42, 0
8, 8735, Note_on_c, 9, 40, 107
8, 8737, Note_on_c, 9, 42, 82
8, 8741, Note_off_c, 9, 40, 0
8, 8743, Note_off_c, 9, 42, 0
8, 8781, Note_on_c, 9, 42, 67
8, 8787, Note_off_c, 9, 42, 0
8, 8830, Note_on_c, 9, 42, 68
8, 8831, Note_on_c, 9, 35, 115
8, 8836, Note_off_c, 9, 42, 0
8, 8837, Note_off_c, 9, 35, 0
8, 8878, Note_on_c, 9, 42, 63
8, 8884, Note_off_c, 9, 42, 0
8, 8926, Note_on_c, 9, 42, 84
8, 8927, Note_on_c, 9, 40, 107
8, 8932, Note_off_c, 9, 42, 0
8, 8933, Note_off_c, 9, 40, 0
8, 8975, Note_on_c, 9, 42, 64
8, 8975, Note_on_c, 9, 35, 107
8, 8981, Note_off_c, 9, 42, 0
8, 8981, Note_off_c, 9, 35, 0
8, 9023, Note_on_c, 9, 42, 71
8, 9023, Note_on_c, 9, 35, 111
8, 9029, Note_off_c, 9, 42, 0
8, 9029, Note_off_c, 9, 35, 0
8, 9069, Note_on_c, 9, 42, 56
8, 9075, Note_off_c, 9, 42, 0
8, 9119, Note_on_c, 9, 42, 82
8, 9119, Note_on_c, 9, 40, 107
8, 9125, Note_off_c, 9, 42, 0
8, 9125, Note_off_c, 9, 40, 0
8, 9166, Note_on_c, 9, 42, 71
8, 9172, Note_off_c, 9, 42, 0
8, 9215, Note_on_c, 9, 42, 87
8, 9215, Note_on_c, 9, 35, 115
8, 9221, Note_off_c, 9, 35, 0
8, 9221, Note_off_c, 9, 42, 0
8, 9265, Note_on_c, 9, 42, 66
8, 9271, Note_off_c, 9, 42, 0
8, 9311, Note_on_c, 9, 40, 107
8, 9313, Note_on_c, 9, 42, 91
8, 9317, Note_off_c, 9, 40, 0
8, 9319, Note_off_c, 9, 42, 0
8, 9359, Note_on_c, 9, 35, 111
8, 9360, Note_on_c, 9, 42, 71
8, 9365, Note_off_c, 9, 35, 0
8, 9366, Note_off_c, 9, 42, 0
8, 9406, Note_on_c, 9, 42, 84
8, 9407, Note_on_c, 9, 35, 119
8, 9412, Note_off_c, 9, 42, 0
8, 9413, Note_off_c, 9, 35, 0
8, 9454, Note_on_c, 9, 42, 66
8, 9460, Note_off_c, 9, 42, 0
8, 9500, Note_on_c, 9, 42, 87
8, 9503, Note_on_c, 9, 40, 95
8, 9506, Note_off_c, 9, 42, 0
8, 9509, Note_off_c, 9, 40, 0
8, 9551, Note_on_c, 9, 42, 82
8, 9557, Note_off_c, 9, 42, 0
8, 9599, Note_on_c, 9, 35, 123
8, 9599, Note_on_c, 9, 57, 73
8, 9605, Note_off_c, 9, 35, 0
8, 9605, Note_off_c, 9, 57, 0
8, 9647, Note_on_c, 9, 45, 66
8, 9653, Note_off_c, 9, 45, 0
8, 9671, Note_on_c, 9, 45, 69
8, 9677, Note_off_c, 9, 45, 0
8, 9695, Note_on_c, 9, 40, 87
8, 9701, Note_off_c, 9, 40, 0
8, 9719, Note_on_c, 9, 40, 95
8, 9725, Note_off_c, 9, 40, 0
8, 9743, Note_on_c, 9, 43, 87
8, 9749, Note_off_c, 9, 43, 0
8, 9767, Note_on_c, 9, 43, 95
8, 9773, Note_off_c, 9, 43, 0
8, 9791, Note_on_c, 9, 35, 107
8, 9791, Note_on_c, 9, 49, 81
8, 9797, Note_off_c, 9, 35, 0
8, 9797, Note_off_c, 9, 49, 0
8, 9839, Note_on_c, 9, 47, 107
8, 9845, Note_off_c, 9, 47, 0
8, 9863, Note_on_c, 9, 47, 84
8, 9869, Note_off_c, 9, 47, 0
8, 9887, Note_on_c, 9, 45, 95
8, 9893, Note_off_c, 9, 45, 0
8, 9911, Note_on_c, 9, 45, 91
8, 9917, Note_off_c, 9, 45, 0
8, 9935, Note_on_c, 9, 43, 103
8, 9941, Note_off_c, 9, 43, 0
8, 9959, Note_on_c, 9, 43, 107
8, 9965, Note_off_c, 9, 43, 0
8, 9983, Note_on_c, 9, 35, 115
8, 9983, Note_on_c, 9, 49, 84
8, 9989, Note_off_c, 9, 35, 0
8, 9989, Note_off_c, 9, 49, 0
8, 10031, Note_on_c, 9, 51, 68
8, 10037, Note_off_c, 9, 51, 0
8, 10079, Note_on_c, 9, 40, 107
8, 10079, Note_on_c, 9, 51, 79
8, 10085, Note_off_c, 9, 40, 0
8, 10085, Note_off_c, 9, 51, 0
8, 10127, Note_on_c, 9, 35, 111
8, 10127, Note_on_c, 9, 51, 69
8, 10133, Note_off_c, 9, 35, 0
8, 10133, Note_off_c, 9, 51, 0
8, 10175, Note_on_c, 9, 35, 115
8, 10175, Note_on_c, 9, 51, 76
8, 10181, Note_off_c, 9, 35, 0
8, 10181, Note_off_c, 9, 51, 0
8, 10223, Note_on_c, 9, 51, 66
8, 10229, Note_off_c, 9, 51, 0
8, 10271, Note_on_c, 9, 40, 107
8, 10271, Note_on_c, 9, 51, 84
8, 10277, Note_off_c, 9, 40, 0
8, 10277, Note_off_c, 9, 51, 0
8, 10319, Note_on_c, 9, 51, 69
8, 10325, Note_off_c, 9, 51, 0
8, 10367, Note_on_c, 9, 35, 115
8, 10367, Note_on_c, 9, 51, 79
8, 10373, Note_off_c, 9, 35, 0
8, 10373, Note_off_c, 9, 51, 0
8, 10415, Note_on_c, 9, 51, 68
8, 10421, Note_off_c, 9, 51, 0
8, 10463, Note_on_c, 9, 40, 107
8, 10463, Note_on_c, 9, 51, 79
8, 10469, Note_off_c, 9, 40, 0
8, 10469, Note_off_c, 9, 51, 0
8, 10511, Note_on_c, 9, 35, 107
8, 10511, Note_on_c, 9, 51, 67
8, 10517, Note_off_c, 9, 35, 0
8, 10517, Note_off_c, 9, 51, 0
8, 10559, Note_on_c, 9, 35, 111
8, 10559, Note_on_c, 9, 51, 79
8, 10565, Note_off_c, 9, 35, 0
8, 10565, Note_off_c, 9, 51, 0
8, 10607, Note_on_c, 9, 51, 76
8, 10613, Note_off_c, 9, 51, 0
8, 10655, Note_on_c, 9, 40, 107
8, 10655, Note_on_c, 9, 51, 84
8, 10661, Note_off_c, 9, 40, 0
8, 10661, Note_off_c, 9, 51, 0
8, 10703, Note_on_c, 9, 51, 84
8, 10709, Note_off_c, 9, 51, 0
8, 10751, Note_on_c, 9, 35, 115
8, 10751, Note_on_c, 9, 55, 84
8, 10757, Note_off_c, 9, 35, 0
8, 10757, Note_off_c, 9, 55, 0
8, 10799, Note_on_c, 9, 51, 73
8, 10805, Note_off_c, 9, 51, 0
8, 10847, Note_on_c, 9, 40, 107
8, 10847, Note_on_c, 9, 51, 79
8, 10853, Note_off_c, 9, 40, 0
8, 10853, Note_off_c, 9, 51, 0
8, 10895, Note_on_c, 9, 35, 111
8, 10895, Note_on_c, 9, 51, 71
8, 10901, Note_off_c, 9, 35, 0
8, 10901, Note_off_c, 9, 51, 0
8, 10943, Note_on_c, 9, 35, 119
8, 10943, Note_on_c, 9, 51, 73
8, 10949, Note_off_c, 9, 35, 0
8, 10949, Note_off_c, 9, 51, 0
8, 10991, Note_on_c, 9, 51, 67
8, 10997, Note_off_c, 9, 51, 0
8, 11039, Note_on_c, 9, 40, 95
8, 11039, Note_on_c, 9, 51, 79
8, 11045, Note_off_c, 9, 40, 0
8, 11045, Note_off_c, 9, 51, 0
8, 11087, Note_on_c, 9, 51, 71
8, 11093, Note_off_c, 9, 51, 0
8, 11135, Note_on_c, 9, 35, 123
8, 11135, Note_on_c, 9, 51, 73
8, 11141, Note_off_c, 9, 35, 0
8, 11141, Note_off_c, 9, 51, 0
8, 11183, Note_on_c, 9, 51, 67
8, 11189, Note_off_c, 9, 51, 0
8, 11231, Note_on_c, 9, 40, 95
8, 11231, Note_on_c, 9, 51, 73
8, 11237, Note_off_c, 9, 40, 0
8, 11237, Note_off_c, 9, 51, 0
8, 11279, Note_on_c, 9, 35, 119
8, 11279, Note_on_c, 9, 51, 73
8, 11285, Note_off_c, 9, 35, 0
8, 11285, Note_off_c, 9, 51, 0
8, 11327, Note_on_c, 9, 35, 107
8, 11327, Note_on_c, 9, 51, 76
8, 11333, Note_off_c, 9, 35, 0
8, 11333, Note_off_c, 9, 51, 0
8, 11375, Note_on_c, 9, 48, 99
8, 11375, Note_on_c, 9, 51, 76
8, 11381, Note_off_c, 9, 48, 0
8, 11381, Note_off_c, 9, 51, 0
8, 11423, Note_on_c, 9, 40, 107
8, 11423, Note_on_c, 9, 47, 91
8, 11423, Note_on_c, 9, 51, 84
8, 11429, Note_off_c, 9, 40, 0
8, 11429, Note_off_c, 9, 47, 0
8, 11429, Note_off_c, 9, 51, 0
8, 11447, Note_on_c, 9, 45, 87
8, 11453, Note_off_c, 9, 45, 0
8, 11471, Note_on_c, 9, 43, 91
8, 11471, Note_on_c, 9, 51, 79
8, 11477, Note_off_c, 9, 43, 0
8, 11477, Note_off_c, 9, 51, 0
8, 11519, Note_on_c, 9, 35, 115
8, 11519, Note_on_c, 9, 57, 84
8, 11525, Note_off_c, 9, 35, 0
8, 11525, Note_off_c, 9, 57, 0
8, 11567, Note_on_c, 9, 42, 84
8, 11573, Note_off_c, 9, 42, 0
8, 11615, Note_on_c, 9, 40, 111
8, 11615, Note_on_c, 9, 42, 95
8, 11621, Note_off_c, 9, 40, 0
8, 11621, Note_off_c, 9, 42, 0
8, 11663, Note_on_c, 9, 35, 111
8, 11663, Note_on_c, 9, 42, 58
8, 11669, Note_off_c, 9, 35, 0
8, 11669, Note_off_c, 9, 42, 0
8, 11711, Note_on_c, 9, 35, 115
8, 11711, Note_on_c, 9, 42, 76
8, 11717, Note_off_c, 9, 35, 0
8, 11717, Note_off_c, 9, 42, 0
8, 11759, Note_on_c, 9, 42, 42
8, 11765, Note_off_c, 9, 42, 0
8, 11807, Note_on_c, 9, 40, 107
8, 11807, Note_on_c, 9, 42, 84
8, 11813, Note_off_c, 9, 40, 0
8, 11813, Note_off_c, 9, 42, 0
8, 11855, Note_on_c, 9, 42, 50
8, 11861, Note_off_c, 9, 42, 0
8, 11903, Note_on_c, 9, 35, 119
8, 11903, Note_on_c, 9, 42, 79
8, 11909, Note_off_c, 9, 35, 0
8, 11909, Note_off_c, 9, 42, 0
8, 11951, Note_on_c, 9, 42, 22
8, 11957, Note_off_c, 9, 42, 0
8, 11999, Note_on_c, 9, 40, 115
8, 11999, Note_on_c, 9, 42, 95
8, 12005, Note_off_c, 9, 40, 0
8, 12005, Note_off_c, 9, 42, 0
8, 12047, Note_on_c, 9, 35, 111
8, 12047, Note_on_c, 9, 42, 56
8, 12053, Note_off_c, 9, 35, 0
8, 12053, Note_off_c, 9, 42, 0
8, 12095, Note_on_c, 9, 35, 111
8, 12095, Note_on_c, 9, 42, 68
8, 12101, Note_off_c, 9, 35, 0
8, 12101, Note_off_c, 9, 42, 0
8, 12143, Note_on_c, 9, 42, 71
8, 12149, Note_off_c, 9, 42, 0
8, 12191, Note_on_c, 9, 40, 111
8, 12191, Note_on_c, 9, 42, 68
8, 12197, Note_off_c, 9, 40, 0
8, 12197, Note_off_c, 9, 42, 0
8, 12215, Note_on_c, 9, 42, 64
8, 12221, Note_off_c, 9, 42, 0
8, 12239, Note_on_c, 9, 46, 67
8, 12245, Note_off_c, 9, 46, 0
8, 12287, Note_on_c, 9, 35, 115
8, 12287, Note_on_c, 9, 49, 84
8, 12293, Note_off_c, 9, 35, 0
8, 12293, Note_off_c, 9, 49, 0
8, 12335, Note_on_c, 9, 42, 84
8, 12341, Note_off_c, 9, 42, 0
8, 12383, Note_on_c, 9, 40, 107
8, 12383, Note_on_c, 9, 42, 87
8, 12389, Note_off_c, 9, 40, 0
8, 12389, Note_off_c, 9, 42, 0
8, 12431, Note_on_c, 9, 35, 111
8, 12431, Note_on_c, 9, 42, 73
8, 12437, Note_off_c, 9, 35, 0
8, 12437, Note_off_c, 9, 42, 0
8, 12479, Note_on_c, 9, 35, 115
8, 12479, Note_on_c, 9, 42, 79
8, 12485, Note_off_c, 9, 35, 0
8, 12485, Note_off_c, 9, 42, 0
8, 12527, Note_on_c, 9, 42, 68
8, 12533, Note_off_c, 9, 42, 0
8, 12575, Note_on_c, 9, 40, 107
8, 12575, Note_on_c, 9, 42, 79
8, 12581, Note_off_c, 9, 40, 0
8, 12581, Note_off_c, 9, 42, 0
8, 12623, Note_on_c, 9, 42, 61
8, 12629, Note_off_c, 9, 42, 0
8, 12671, Note_on_c, 9, 35, 115
8, 12671, Note_on_c, 9, 42, 82
8, 12677, Note_off_c, 9, 35, 0
8, 12677, Note_off_c, 9, 42, 0
8, 12719, Note_on_c, 9, 42, 79
8, 12725, Note_off_c, 9, 42, 0
8, 12743, Note_on_c, 9, 35, 111
8, 12749, Note_off_c, 9, 35, 0
8, 12767, Note_on_c, 9, 40, 107
8, 12767, Note_on_c, 9, 42, 82
8, 12773, Note_off_c, 9, 40, 0
8, 12773, Note_off_c, 9, 42, 0
8, 12791, Note_on_c, 9, 46, 79
8, 12797, Note_off_c, 9, 46, 0
8, 12815, Note_on_c, 9, 45, 107
8, 12821, Note_off_c, 9, 45, 0
8, 12863, Note_on_c, 9, 35, 107
8, 12869, Note_off_c, 9, 35, 0
8, 12911, Note_on_c, 9, 48, 115
8, 12917, Note_off_c, 9, 48, 0
8, 12959, Note_on_c, 9, 45, 87
8, 12965, Note_off_c, 9, 45, 0
8, 12975, Note_on_c, 9, 45, 60
8, 12981, Note_off_c, 9, 45, 0
8, 12991, Note_on_c, 9, 45, 79
8, 12997, Note_off_c, 9, 45, 0
8, 13007, Note_on_c, 9, 43, 87
8, 13013, Note_off_c, 9, 43, 0
8, 13023, Note_on_c, 9, 43, 87
8, 13029, Note_off_c, 9, 43, 0
8, 13039, Note_on_c, 9, 43, 107
8, 13045, Note_off_c, 9, 43, 0
8, 13055, Note_on_c, 9, 35, 115
8, 13055, Note_on_c, 9, 49, 84
8, 13061, Note_off_c, 9, 35, 0
8, 13061, Note_off_c, 9, 49, 0
8, 13103, Note_on_c, 9, 51, 68
8, 13109, Note_off_c, 9, 51, 0
8, 13151, Note_on_c, 9, 40, 107
8, 13151, Note_on_c, 9, 51, 79
8, 13157, Note_off_c, 9, 40, 0
8, 13157, Note_off_c, 9, 51, 0
8, 13199, Note_on_c, 9, 35, 111
8, 13199, Note_on_c, 9, 51, 69
8, 13205, Note_off_c, 9, 35, 0
8, 13205, Note_off_c, 9, 51, 0
8, 13247, Note_on_c, 9, 35, 115
8, 13247, Note_on_c, 9, 51, 76
8, 13253, Note_off_c, 9, 35, 0
8, 13253, Note_off_c, 9, 51, 0
8, 13295, Note_on_c, 9, 51, 66
8, 13301, Note_off_c, 9, 51, 0
8, 13343, Note_on_c, 9, 40, 107
8, 13343, Note_on_c, 9, 51, 84
8, 13349, Note_off_c, 9, 40, 0
8, 13349, Note_off_c, 9, 51, 0
8, 13391, Note_on_c, 9, 51, 69
8, 13397, Note_off_c, 9, 51, 0
8, 13439, Note_on_c, 9, 35, 115
8, 13439, Note_on_c, 9, 51, 79
8, 13445, Note_off_c, 9, 35, 0
8, 13445, Note_off_c, 9, 51, 0
8, 13487, Note_on_c, 9, 51, 68
8, 13493, Note_off_c, 9, 51, 0
8, 13535, Note_on_c, 9, 40, 107
8, 13535, Note_on_c, 9, 51, 79
8, 13541, Note_off_c, 9, 40, 0
8, 13541, Note_off_c, 9, 51, 0
8, 13583, Note_on_c, 9, 35, 107
8, 13583, Note_on_c, 9, 51, 67
8, 13589, Note_off_c, 9, 35, 0
8, 13589, Note_off_c, 9, 51, 0
8, 13631, Note_on_c, 9, 35, 111
8, 13631, Note_on_c, 9, 51, 79
8, 13637, Note_off_c, 9, 35, 0
8, 13637, Note_off_c, 9, 51, 0
8, 13679, Note_on_c, 9, 51, 76
8, 13685, Note_off_c, 9, 51, 0
8, 13727, Note_on_c, 9, 40, 107
8, 13727, Note_on_c, 9, 51, 84
8, 13733, Note_off_c, 9, 40, 0
8, 13733, Note_off_c, 9, 51, 0
8, 13775, Note_on_c, 9, 51, 84
8, 13781, Note_off_c, 9, 51, 0
8, 13823, Note_on_c, 9, 35, 115
8, 13823, Note_on_c, 9, 49, 67
8, 13829, Note_off_c, 9, 35, 0
8, 13829, Note_off_c, 9, 49, 0
8, 13871, Note_on_c, 9, 51, 73
8, 13877, Note_off_c, 9, 51, 0
8, 13919, Note_on_c, 9, 40, 107
8, 13919, Note_on_c, 9, 51, 79
8, 13925, Note_off_c, 9, 40, 0
8, 13925, Note_off_c, 9, 51, 0
8, 13967, Note_on_c, 9, 35, 111
8, 13967, Note_on_c, 9, 51, 71
8, 13973, Note_off_c, 9, 35, 0
8, 13973, Note_off_c, 9, 51, 0
8, 14015, Note_on_c, 9, 35, 119
8, 14015, Note_on_c, 9, 51, 73
8, 14021, Note_off_c, 9, 35, 0
8, 14021, Note_off_c, 9, 51, 0
8, 14063, Note_on_c, 9, 51, 67
8, 14069, Note_off_c, 9, 51, 0
8, 14111, Note_on_c, 9, 40, 95
8, 14111, Note_on_c, 9, 51, 79
8, 14117, Note_off_c, 9, 40, 0
8, 14117, Note_off_c, 9, 51, 0
8, 14159, Note_on_c, 9, 51, 71
8, 14165, Note_off_c, 9, 51, 0
8, 14207, Note_on_c, 9, 35, 123
8, 14207, Note_on_c, 9, 51, 73
8, 14213, Note_off_c, 9, 35, 0
8, 14213, Note_off_c, 9, 51, 0
8, 14255, Note_on_c, 9, 51, 67
8, 14261, Note_off_c, 9, 51, 0
8, 14303, Note_on_c, 9, 40, 95
8, 14303, Note_on_c, 9, 51, 73
8, 14309, Note_off_c, 9, 40, 0
8, 14309, Note_off_c, 9, 51, 0
8, 14351, Note_on_c, 9, 35, 119
8, 14351, Note_on_c, 9, 51, 73
8, 14357, Note_off_c, 9, 35, 0
8, 14357, Note_off_c, 9, 51, 0
8, 14399, Note_on_c, 9, 35, 107
8, 14399, Note_on_c, 9, 51, 76
8, 14405, Note_off_c, 9, 35, 0
8, 14405, Note_off_c, 9, 51, 0
8, 14447, Note_on_c, 9, 51, 76
8, 14453, Note_off_c, 9, 51, 0
8, 14471, Note_on_c, 9, 35, 95
8, 14477, Note_off_c, 9, 35, 0
8, 14495, Note_on_c, 9, 40, 107
8, 14495, Note_on_c, 9, 51, 84
8, 14501, Note_off_c, 9, 40, 0
8, 14501, Note_off_c, 9, 51, 0
8, 14519, Note_on_c, 9, 40, 66
8, 14525, Note_off_c, 9, 40, 0
8, 14543, Note_on_c, 9, 45, 95
8, 14543, Note_on_c, 9, 51, 79
8, 14549, Note_off_c, 9, 45, 0
8, 14549, Note_off_c, 9, 51, 0
8, 14567, Note_on_c, 9, 45, 76
8, 14573, Note_off_c, 9, 45, 0
8, 14591, Note_on_c, 9, 35, 115
8, 14591, Note_on_c, 9, 57, 84
8, 14597, Note_off_c, 9, 35, 0
8, 14597, Note_off_c, 9, 57, 0
8, 14639, Note_on_c, 9, 51, 62
8, 14645, Note_off_c, 9, 51, 0
8, 14687, Note_on_c, 9, 40, 111
8, 14687, Note_on_c, 9, 51, 79
8, 14693, Note_off_c, 9, 40, 0
8, 14693, Note_off_c, 9, 51, 0
8, 14735, Note_on_c, 9, 35, 111
8, 14735, Note_on_c, 9, 51, 68
8, 14741, Note_off_c, 9, 35, 0
8, 14741, Note_off_c, 9, 51, 0
8, 14783, Note_on_c, 9, 35, 115
8, 14783, Note_on_c, 9, 51, 76
8, 14789, Note_off_c, 9, 35, 0
8, 14789, Note_off_c, 9, 51, 0
8, 14831, Note_on_c, 9, 51, 64
8, 14837, Note_off_c, 9, 51, 0
8, 14879, Note_on_c, 9, 40, 107
8, 14879, Note_on_c, 9, 51, 76
8, 14885, Note_off_c, 9, 40, 0
8, 14885, Note_off_c, 9, 51, 0
8, 14927, Note_on_c, 9, 51, 67
8, 14933, Note_off_c, 9, 51, 0
8, 14975, Note_on_c, 9, 35, 119
8, 14975, Note_on_c, 9, 51, 71
8, 14981, Note_off_c, 9, 35, 0
8, 14981, Note_off_c, 9, 51, 0
8, 15023, Note_on_c, 9, 51, 67
8, 15029, Note_off_c, 9, 51, 0
8, 15071, Note_on_c, 9, 40, 115
8, 15071, Note_on_c, 9, 51, 79
8, 15077, Note_off_c, 9, 40, 0
8, 15077, Note_off_c, 9, 51, 0
8, 15119, Note_on_c, 9, 35, 111
8, 15119, Note_on_c, 9, 51, 62
8, 15125, Note_off_c, 9, 35, 0
8, 15125, Note_off_c, 9, 51, 0
8, 15167, Note_on_c, 9, 35, 111
8, 15167, Note_on_c, 9, 51, 76
8, 15173, Note_off_c, 9, 35, 0
8, 15173, Note_off_c, 9, 51, 0
8, 15215, Note_on_c, 9, 51, 56
8, 15221, Note_off_c, 9, 51, 0
8, 15263, Note_on_c, 9, 40, 111
8, 15263, Note_on_c, 9, 51, 82
8, 15269, Note_off_c, 9, 40, 0
8, 15269, Note_off_c, 9, 51, 0
8, 15311, Note_on_c, 9, 51, 69
8, 15317, Note_off_c, 9, 51, 0
8, 15359, Note_on_c, 9, 35, 115
8, 15359, Note_on_c, 9, 55, 76
8, 15365, Note_off_c, 9, 35, 0
8, 15365, Note_off_c, 9, 55, 0
8, 15407, Note_on_c, 9, 51, 62
8, 15413, Note_off_c, 9, 51, 0
8, 15455, Note_on_c, 9, 40, 107
8, 15455, Note_on_c, 9, 51, 87
8, 15461, Note_off_c, 9, 40, 0
8, 15461, Note_off_c, 9, 51, 0
8, 15503, Note_on_c, 9, 35, 107
8, 15503, Note_on_c, 9, 51, 64
8, 15509, Note_off_c, 9, 35, 0
8, 15509, Note_off_c, 9, 51, 0
8, 15551, Note_on_c, 9, 35, 115
8, 15551, Note_on_c, 9, 51, 76
8, 15557, Note_off_c, 9, 35, 0
8, 15557, Note_off_c, 9, 51, 0
8, 15599, Note_on_c, 9, 51, 56
8, 15605, Note_off_c, 9, 51, 0
8, 15647, Note_on_c, 9, 40, 111
8, 15647, Note_on_c, 9, 51, 79
8, 15653, Note_off_c, 9, 40, 0
8, 15653, Note_off_c, 9, 51, 0
8, 15695, Note_on_c, 9, 51, 62
8, 15701, Note_off_c, 9, 51, 0
8, 15743, Note_on_c, 9, 35, 115
8, 15743, Note_on_c, 9, 51, 79
8, 15749, Note_off_c, 9, 35, 0
8, 15749, Note_off_c, 9, 51, 0
8, 15791, Note_on_c, 9, 51, 56
8, 15797, Note_off_c, 9, 51, 0
8, 15815, Note_on_c, 9, 35, 91
8, 15821, Note_off_c, 9, 35, 0
8, 15839, Note_on_c, 9, 40, 111
8, 15839, Note_on_c, 9, 51, 82
8, 15845, Note_off_c, 9, 40, 0
8, 15845, Note_off_c, 9, 51, 0
8, 15887, Note_on_c, 9, 47, 91
8, 15893, Note_off_c, 9, 47, 0
8, 15935, Note_on_c, 9, 35, 115
8, 15941, Note_off_c, 9, 35, 0
8, 15983, Note_on_c, 9, 47, 111
8, 15989, Note_off_c, 9, 47, 0
8, 16007, Note_on_c, 9, 35, 115
8, 16013, Note_off_c, 9, 35, 0
8, 16031, Note_on_c, 9, 45, 107
8, 16037, Note_off_c, 9, 45, 0
8, 16055, Note_on_c, 9, 43, 84
8, 16061, Note_off_c, 9, 43, 0
8, 16079, Note_on_c, 9, 41, 107
8, 16085, Note_off_c, 9, 41, 0
8, 16127, Note_on_c, 9, 35, 115
8, 16127, Note_on_c, 9, 49, 84
8, 16133, Note_off_c, 9, 35, 0
8, 16133, Note_off_c, 9, 49, 0
8, 16175, Note_on_c, 9, 42, 79
8, 16181, Note_off_c, 9, 42, 0
8, 16223, Note_on_c, 9, 40, 107
8, 16223, Note_on_c, 9, 42, 95
8, 16229, Note_off_c, 9, 40, 0
8, 16229, Note_off_c, 9, 42, 0
8, 16271, Note_on_c, 9, 35, 111
8, 16271, Note_on_c, 9, 42, 64
8, 16277, Note_off_c, 9, 35, 0
8, 16277, Note_off_c, 9, 42, 0
8, 16319, Note_on_c, 9, 35, 115
8, 16319, Note_on_c, 9, 42, 82
8, 16325, Note_off_c, 9, 35, 0
8, 16325, Note_off_c, 9, 42, 0
8, 16367, Note_on_c, 9, 42, 63
8, 16373, Note_off_c, 9, 42, 0
8, 16415, Note_on_c, 9, 40, 107
8, 16415, Note_on_c, 9, 42, 99
8, 16421, Note_off_c, 9, 40, 0
8, 16421, Note_off_c, 9, 42, 0
8, 16463, Note_on_c, 9, 42, 71
8, 16469, Note_off_c, 9, 42, 0
8, 16511, Note_on_c, 9, 35, 115
8, 16511, Note_on_c, 9, 42, 79
8, 16517, Note_off_c, 9, 35, 0
8, 16517, Note_off_c, 9, 42, 0
8, 16559, Note_on_c, 9, 42, 55
8, 16565, Note_off_c, 9, 42, 0
8, 16607, Note_on_c, 9, 40, 107
8, 16607, Note_on_c, 9, 42, 107
8, 16613, Note_off_c, 9, 40, 0
8, 16613, Note_off_c, 9, 42, 0
8, 16655, Note_on_c, 9, 35, 107
8, 16655, Note_on_c, 9, 42, 66
8, 16661, Note_off_c, 9, 35, 0
8, 16661, Note_off_c, 9, 42, 0
8, 16703, Note_on_c, 9, 35, 111
8, 16703, Note_on_c, 9, 42, 84
8, 16709, Note_off_c, 9, 35, 0
8, 16709, Note_off_c, 9, 42, 0
8, 16751, Note_on_c, 9, 42, 51
8, 16757, Note_off_c, 9, 42, 0
8, 16799, Note_on_c, 9, 40, 107
8, 16799, Note_on_c, 9, 42, 91
8, 16805, Note_off_c, 9, 40, 0
8, 16805, Note_off_c, 9, 42, 0
8, 16847, Note_on_c, 9, 46, 58
8, 16853, Note_off_c, 9, 46, 0
8, 16895, Note_on_c, 9, 35, 115
8, 16895, Note_on_c, 9, 42, 87
8, 16901, Note_off_c, 9, 35, 0
8, 16901, Note_off_c, 9, 42, 0
8, 16943, Note_on_c, 9, 42, 43
8, 16949, Note_off_c, 9, 42, 0
8, 16991, Note_on_c, 9, 40, 107
8, 16991, Note_on_c, 9, 42, 107
8, 16997, Note_off_c, 9, 40, 0
8, 16997, Note_off_c, 9, 42, 0
8, 17039, Note_on_c, 9, 35, 111
8, 17039, Note_on_c, 9, 42, 67
8, 17045, Note_off_c, 9, 35, 0
8, 17045, Note_off_c, 9, 42, 0
8, 17087, Note_on_c, 9, 35, 119
8, 17087, Note_on_c, 9, 42, 79
8, 17093, Note_off_c, 9, 35, 0
8, 17093, Note_off_c, 9, 42, 0
8, 17135, Note_on_c, 9, 42, 53
8, 17141, Note_off_c, 9, 42, 0
8, 17183, Note_on_c, 9, 40, 95
8, 17183, Note_on_c, 9, 42, 99
8, 17189, Note_off_c, 9, 40, 0
8, 17189, Note_off_c, 9, 42, 0
8, 17231, Note_on_c, 9, 42, 64
8, 17237, Note_off_c, 9, 42, 0
8, 17279, Note_on_c, 9, 35, 123
8, 17279, Note_on_c, 9, 42, 84
8, 17285, Note_off_c, 9, 35, 0
8, 17285, Note_off_c, 9, 42, 0
8, 17327, Note_on_c, 9, 42, 42
8, 17333, Note_off_c, 9, 42, 0
8, 17375, Note_on_c, 9, 40, 95
8, 17375, Note_on_c, 9, 42, 95
8, 17381, Note_off_c, 9, 40, 0
8, 17381, Note_off_c, 9, 42, 0
8, 17423, Note_on_c, 9, 35, 119
8, 17423, Note_on_c, 9, 42, 56
8, 17429, Note_off_c, 9, 35, 0
8, 17429, Note_off_c, 9, 42, 0
8, 17471, Note_on_c, 9, 35, 107
8, 17471, Note_on_c, 9, 42, 82
8, 17477, Note_off_c, 9, 35, 0
8, 17477, Note_off_c, 9, 42, 0
8, 17519, Note_on_c, 9, 42, 57
8, 17525, Note_off_c, 9, 42, 0
8, 17543, Note_on_c, 9, 35, 103
8, 17549, Note_off_c, 9, 35, 0
8, 17567, Note_on_c, 9, 40, 107
8, 17567, Note_on_c, 9, 42, 84
8, 17573, Note_off_c, 9, 40, 0
8, 17573, Note_off_c, 9, 42, 0
8, 17591, Note_on_c, 9, 42, 69
8, 17597, Note_off_c, 9, 42, 0
8, 17615, Note_on_c, 9, 45, 82
8, 17615, Note_on_c, 9, 46, 79
8, 17621, Note_off_c, 9, 45, 0
8, 17621, Note_off_c, 9, 46, 0
8, 17639, Note_on_c, 9, 43, 87
8, 17645, Note_off_c, 9, 43, 0
8, 17663, Note_on_c, 9, 35, 115
8, 17663, Note_on_c, 9, 55, 87
8, 17669, Note_off_c, 9, 35, 0
8, 17669, Note_off_c, 9, 55, 0
8, 17711, Note_on_c, 9, 42, 35
8, 17717, Note_off_c, 9, 42, 0
8, 17759, Note_on_c, 9, 40, 111
8, 17759, Note_on_c, 9, 42, 87
8, 17765, Note_off_c, 9, 40, 0
8, 17765, Note_off_c, 9, 42, 0
8, 17807, Note_on_c, 9, 35, 111
8, 17807, Note_on_c, 9, 42, 82
8, 17813, Note_off_c, 9, 35, 0
8, 17813, Note_off_c, 9, 42, 0
8, 17855, Note_on_c, 9, 35, 115
8, 17855, Note_on_c, 9, 42, 82
8, 17861, Note_off_c, 9, 35, 0
8, 17861, Note_off_c, 9, 42, 0
8, 17903, Note_on_c, 9, 42, 71
8, 17909, Note_off_c, 9, 42, 0
8, 17951, Note_on_c, 9, 40, 107
8, 17951, Note_on_c, 9, 42, 82
8, 17957, Note_off_c, 9, 40, 0
8, 17957, Note_off_c, 9, 42, 0
8, 17999, Note_on_c, 9, 42, 68
8, 18005, Note_off_c, 9, 42, 0
8, 18047, Note_on_c, 9, 35, 119
8, 18047, Note_on_c, 9, 42, 76
8, 18053, Note_off_c, 9, 35, 0
8, 18053, Note_off_c, 9, 42, 0
8, 18095, Note_on_c, 9, 42, 73
8, 18101, Note_off_c, 9, 42, 0
8, 18143, Note_on_c, 9, 40, 115
8, 18143, Note_on_c, 9, 42, 82
8, 18149, Note_off_c, 9, 40, 0
8, 18149, Note_off_c, 9, 42, 0
8, 18191, Note_on_c, 9, 35, 111
8, 18191, Note_on_c, 9, 42, 84
8, 18197, Note_off_c, 9, 35, 0
8, 18197, Note_off_c, 9, 42, 0
8, 18239, Note_on_c, 9, 35, 111
8, 18239, Note_on_c, 9, 42, 84
8, 18245, Note_off_c, 9, 35, 0
8, 18245, Note_off_c, 9, 42, 0
8, 18287, Note_on_c, 9, 42, 66
8, 18293, Note_off_c, 9, 42, 0
8, 18311, Note_on_c, 9, 35, 107
8, 18311, Note_on_c, 9, 42, 84
8, 18317, Note_off_c, 9, 35, 0
8, 18317, Note_off_c, 9, 42, 0
8, 18335, Note_on_c, 9, 40, 111
8, 18335, Note_on_c, 9, 46, 82
8, 18341, Note_off_c, 9, 40, 0
8, 18341, Note_off_c, 9, 46, 0
8, 18383, Note_on_c, 9, 47, 107
8, 18389, Note_off_c, 9, 47, 0
8, 18407, Note_on_c, 9, 45, 95
8, 18413, Note_off_c, 9, 45, 0
8, 18431, Note_on_c, 9, 35, 115
8, 18431, Note_on_c, 9, 49, 84
8, 18437, Note_off_c, 9, 35, 0
8, 18437, Note_off_c, 9, 49, 0
8, 18479, Note_on_c, 9, 42, 79
8, 18485, Note_off_c, 9, 42, 0
8, 18527, Note_on_c, 9, 40, 107
8, 18527, Note_on_c, 9, 42, 95
8, 18533, Note_off_c, 9, 40, 0
8, 18533, Note_off_c, 9, 42, 0
8, 18575, Note_on_c, 9, 35, 111
8, 18575, Note_on_c, 9, 42, 64
8, 18581, Note_off_c, 9, 35, 0
8, 18581, Note_off_c, 9, 42, 0
8, 18623, Note_on_c, 9, 35, 115
8, 18623, Note_on_c, 9, 42, 82
8, 18629, Note_off_c, 9, 35, 0
8, 18629, Note_off_c, 9, 42, 0
8, 18671, Note_on_c, 9, 42, 63
8, 18677, Note_off_c, 9, 42, 0
8, 18719, Note_on_c, 9, 40, 107
8, 18719, Note_on_c, 9, 42, 99
8, 18725, Note_off_c, 9, 40, 0
8, 18725, Note_off_c, 9, 42, 0
8, 18767, Note_on_c, 9, 42, 71
8, 18773, Note_off_c, 9, 42, 0
8, 18815, Note_on_c, 9, 35, 115
8, 18815, Note_on_c, 9, 42, 79
8, 18821, Note_off_c, 9, 35, 0
8, 18821, Note_off_c, 9, 42, 0
8, 18863, Note_on_c, 9, 42, 55
8, 18869, Note_off_c, 9, 42, 0
8, 18911, Note_on_c, 9, 40, 107
8, 18911, Note_on_c, 9, 42, 107
8, 18917, Note_off_c, 9, 40, 0
8, 18917, Note_off_c, 9, 42, 0
8, 18959, Note_on_c, 9, 35, 107
8, 18959, Note_on_c, 9, 42, 66
8, 18965, Note_off_c, 9, 35, 0
8, 18965, Note_off_c, 9, 42, 0
8, 19007, Note_on_c, 9, 35, 111
8, 19007, Note_on_c, 9, 42, 84
8, 19013, Note_off_c, 9, 35, 0
8, 19013, Note_off_c, 9, 42, 0
8, 19055, Note_on_c, 9, 46, 51
8, 19061, Note_off_c, 9, 46, 0
8, 19079, Note_on_c, 9, 35, 95
8, 19085, Note_off_c, 9, 35, 0
8, 19103, Note_on_c, 9, 40, 107
8, 19103, Note_on_c, 9, 42, 91
8, 19109, Note_off_c, 9, 40, 0
8, 19109, Note_off_c, 9, 42, 0
8, 19119, Note_on_c, 9, 47, 64
8, 19125, Note_off_c, 9, 47, 0
8, 19135, Note_on_c, 9, 47, 64
8, 19141, Note_off_c, 9, 47, 0
8, 19151, Note_on_c, 9, 45, 71
8, 19157, Note_off_c, 9, 45, 0
8, 19167, Note_on_c, 9, 45, 68
8, 19173, Note_off_c, 9, 45, 0
8, 19183, Note_on_c, 9, 43, 73
8, 19189, Note_off_c, 9, 43, 0
8, 19199, Note_on_c, 9, 35, 115
8, 19199, Note_on_c, 9, 57, 73
8, 19205, Note_off_c, 9, 35, 0
8, 19205, Note_off_c, 9, 57, 0
8, 19247, Note_on_c, 9, 42, 43
8, 19253, Note_off_c, 9, 42, 0
8, 19295, Note_on_c, 9, 40, 107
8, 19295, Note_on_c, 9, 42, 107
8, 19301, Note_off_c, 9, 40, 0
8, 19301, Note_off_c, 9, 42, 0
8, 19343, Note_on_c, 9, 35, 111
8, 19343, Note_on_c, 9, 42, 67
8, 19349, Note_off_c, 9, 35, 0
8, 19349, Note_off_c, 9, 42, 0
8, 19391, Note_on_c, 9, 35, 119
8, 19391, Note_on_c, 9, 42, 79
8, 19397, Note_off_c, 9, 35, 0
8, 19397, Note_off_c, 9, 42, 0
8, 19439, Note_on_c, 9, 42, 53
8, 19445, Note_off_c, 9, 42, 0
8, 19487, Note_on_c, 9, 40, 95
8, 19487, Note_on_c, 9, 42, 99
8, 19493, Note_off_c, 9, 40, 0
8, 19493, Note_off_c, 9, 42, 0
8, 19535, Note_on_c, 9, 42, 64
8, 19541, Note_off_c, 9, 42, 0
8, 19583, Note_on_c, 9, 35, 123
8, 19583, Note_on_c, 9, 42, 84
8, 19589, Note_off_c, 9, 35, 0
8, 19589, Note_off_c, 9, 42, 0
8, 19631, Note_on_c, 9, 42, 42
8, 19637, Note_off_c, 9, 42, 0
8, 19679, Note_on_c, 9, 40, 95
8, 19679, Note_on_c, 9, 42, 95
8, 19685, Note_off_c, 9, 40, 0
8, 19685, Note_off_c, 9, 42, 0
8, 19727, Note_on_c, 9, 35, 119
8, 19727, Note_on_c, 9, 42, 56
8, 19733, Note_off_c, 9, 35, 0
8, 19733, Note_off_c, 9, 42, 0
8, 19775, Note_on_c, 9, 35, 107
8, 19775, Note_on_c, 9, 42, 82
8, 19781, Note_off_c, 9, 35, 0
8, 19781, Note_off_c, 9, 42, 0
8, 19823, Note_on_c, 9, 42, 57
8, 19829, Note_off_c, 9, 42, 0
8, 19847, Note_on_c, 9, 35, 84
8, 19853, Note_off_c, 9, 35, 0
8, 19871, Note_on_c, 9, 40, 107
8, 19871, Note_on_c, 9, 42, 84
8, 19877, Note_off_c, 9, 40, 0
8, 19877, Note_off_c, 9, 42, 0
8, 19895, Note_on_c, 9, 42, 69
8, 19901, Note_off_c, 9, 42, 0
8, 19919, Note_on_c, 9, 45, 107
8, 19925, Note_off_c, 9, 45, 0
8, 19943, Note_on_c, 9, 43, 107
8, 19949, Note_off_c, 9, 43, 0
8, 19967, Note_on_c, 9, 35, 115
8, 19967, Note_on_c, 9, 49, 80
8, 19973, Note_off_c, 9, 35, 0
8, 19973, Note_off_c, 9, 49, 0
8, 20015, Note_on_c, 9, 42, 35
8, 20021, Note_off_c, 9, 42, 0
8, 20063, Note_on_c, 9, 40, 111
8, 20063, Note_on_c, 9, 42, 87
8, 20069, Note_off_c, 9, 40, 0
8, 20069, Note_off_c, 9, 42, 0
8, 20111, Note_on_c, 9, 35, 111
8, 20111, Note_on_c, 9, 42, 82
8, 20117, Note_off_c, 9, 35, 0
8, 20117, Note_off_c, 9, 42, 0
8, 20159, Note_on_c, 9, 35, 115
8, 20159, Note_on_c, 9, 42, 82
8, 20165, Note_off_c, 9, 35, 0
8, 20165, Note_off_c, 9, 42, 0
8, 20207, Note_on_c, 9, 42, 71
8, 20213, Note_off_c, 9, 42, 0
8, 20255, Note_on_c, 9, 40, 107
8, 20255, Note_on_c, 9, 42, 82
8, 20261, Note_off_c, 9, 40, 0
8, 20261, Note_off_c, 9, 42, 0
8, 20303, Note_on_c, 9, 42, 68
8, 20309, Note_off_c, 9, 42, 0
8, 20351, Note_on_c, 9, 35, 119
8, 20351, Note_on_c, 9, 42, 76
8, 20357, Note_off_c, 9, 35, 0
8, 20357, Note_off_c, 9, 42, 0
8, 20399, Note_on_c, 9, 42, 73
8, 20405, Note_off_c, 9, 42, 0
8, 20447, Note_on_c, 9, 40, 115
8, 20447, Note_on_c, 9, 42, 82
8, 20453, Note_off_c, 9, 40, 0
8, 20453, Note_off_c, 9, 42, 0
8, 20495, Note_on_c, 9, 35, 111
8, 20495, Note_on_c, 9, 42, 84
8, 20501, Note_off_c, 9, 35, 0
8, 20501, Note_off_c, 9, 42, 0
8, 20543, Note_on_c, 9, 35, 111
8, 20543, Note_on_c, 9, 42, 84
8, 20549, Note_off_c, 9, 35, 0
8, 20549, Note_off_c, 9, 42, 0
8, 20591, Note_on_c, 9, 42, 66
8, 20597, Note_off_c, 9, 42, 0
8, 20615, Note_on_c, 9, 42, 84
8, 20621, Note_off_c, 9, 42, 0
8, 20639, Note_on_c, 9, 40, 111
8, 20639, Note_on_c, 9, 46, 82
8, 20645, Note_off_c, 9, 40, 0
8, 20645, Note_off_c, 9, 46, 0
8, 20687, Note_on_c, 9, 40, 91
8, 20693, Note_off_c, 9, 40, 0
8, 20711, Note_on_c, 9, 40, 87
8, 20717, Note_off_c, 9, 40, 0
8, 20735, Note_on_c, 9, 35, 115
8, 20735, Note_on_c, 9, 49, 84
8, 20741, Note_off_c, 9, 35, 0
8, 20741, Note_off_c, 9, 49, 0
8, 20787, Note_on_c, 9, 42, 79
8, 20793, Note_off_c, 9, 42, 0
8, 20831, Note_on_c, 9, 40, 107
8, 20834, Note_on_c, 9, 42, 79
8, 20837, Note_off_c, 9, 40, 0
8, 20840, Note_off_c, 9, 42, 0
8, 20879, Note_on_c, 9, 35, 111
8, 20879, Note_on_c, 9, 42, 64
8, 20885, Note_off_c, 9, 35, 0
8, 20885, Note_off_c, 9, 42, 0
8, 20927, Note_on_c, 9, 35, 115
8, 20927, Note_on_c, 9, 42, 73
8, 20933, Note_off_c, 9, 35, 0
8, 20933, Note_off_c, 9, 42, 0
8, 20976, Note_on_c, 9, 42, 62
8, 20982, Note_off_c, 9, 42, 0
8, 21023, Note_on_c, 9, 40, 107
8, 21025, Note_on_c, 9, 42, 82
8, 21029, Note_off_c, 9, 40, 0
8, 21031, Note_off_c, 9, 42, 0
8, 21069, Note_on_c, 9, 42, 67
8, 21075, Note_off_c, 9, 42, 0
8, 21118, Note_on_c, 9, 42, 68
8, 21119, Note_on_c, 9, 35, 115
8, 21124, Note_off_c, 9, 42, 0
8, 21125, Note_off_c, 9, 35, 0
8, 21166, Note_on_c, 9, 42, 63
8, 21172, Note_off_c, 9, 42, 0
8, 21214, Note_on_c, 9, 42, 84
8, 21215, Note_on_c, 9, 40, 107
8, 21220, Note_off_c, 9, 42, 0
8, 21221, Note_off_c, 9, 40, 0
8, 21263, Note_on_c, 9, 42, 64
8, 21263, Note_on_c, 9, 35, 107
8, 21269, Note_off_c, 9, 42, 0
8, 21269, Note_off_c, 9, 35, 0
8, 21311, Note_on_c, 9, 42, 71
8, 21311, Note_on_c, 9, 35, 111
8, 21317, Note_off_c, 9, 42, 0
8, 21317, Note_off_c, 9, 35, 0
8, 21357, Note_on_c, 9, 42, 56
8, 21363, Note_off_c, 9, 42, 0
8, 21407, Note_on_c, 9, 42, 82
8, 21407, Note_on_c, 9, 40, 107
8, 21413, Note_off_c, 9, 42, 0
8, 21413, Note_off_c, 9, 40, 0
8, 21454, Note_on_c, 9, 42, 71
8, 21460, Note_off_c, 9, 42, 0
8, 21503, Note_on_c, 9, 42, 87
8, 21503, Note_on_c, 9, 35, 115
8, 21509, Note_off_c, 9, 35, 0
8, 21509, Note_off_c, 9, 42, 0
8, 21553, Note_on_c, 9, 42, 66
8, 21559, Note_off_c, 9, 42, 0
8, 21599, Note_on_c, 9, 40, 107
8, 21601, Note_on_c, 9, 42, 91
8, 21605, Note_off_c, 9, 40, 0
8, 21607, Note_off_c, 9, 42, 0
8, 21647, Note_on_c, 9, 35, 111
8, 21648, Note_on_c, 9, 42, 71
8, 21653, Note_off_c, 9, 35, 0
8, 21654, Note_off_c, 9, 42, 0
8, 21694, Note_on_c, 9, 42, 84
8, 21695, Note_on_c, 9, 35, 119
8, 21700, Note_off_c, 9, 42, 0
8, 21701, Note_off_c, 9, 35, 0
8, 21742, Note_on_c, 9, 42, 66
8, 21748, Note_off_c, 9, 42, 0
8, 21788, Note_on_c, 9, 42, 87
8, 21791, Note_on_c, 9, 40, 95
8, 21794, Note_off_c, 9, 42, 0
8, 21797, Note_off_c, 9, 40, 0
8, 21839, Note_on_c, 9, 42, 82
8, 21845, Note_off_c, 9, 42, 0
8, 21887, Note_on_c, 9, 35, 123
8, 21887, Note_on_c, 9, 57, 73
8, 21893, Note_off_c, 9, 35, 0
8, 21893, Note_off_c, 9, 57, 0
8, 21935, Note_on_c, 9, 45, 66
8, 21941, Note_off_c, 9, 45, 0
8, 21959, Note_on_c, 9, 45, 69
8, 21965, Note_off_c, 9, 45, 0
8, 21983, Note_on_c, 9, 40, 87
8, 21989, Note_off_c, 9, 40, 0
8, 22007, Note_on_c, 9, 40, 95
8, 22013, Note_off_c, 9, 40, 0
8, 22031, Note_on_c, 9, 43, 87
8, 22037, Note_off_c, 9, 43, 0
8, 22055, Note_on_c, 9, 43, 95
8, 22061, Note_off_c, 9, 43, 0
8, 22079, Note_on_c, 9, 35, 107
8, 22079, Note_on_c, 9, 49, 81
8, 22085, Note_off_c, 9, 35, 0
8, 22085, Note_off_c, 9, 49, 0
8, 22127, Note_on_c, 9, 47, 107
8, 22133, Note_off_c, 9, 47, 0
8, 22151, Note_on_c, 9, 47, 84
8, 22157, Note_off_c, 9, 47, 0
8, 22175, Note_on_c, 9, 35, 107
8, 22175, Note_on_c, 9, 57, 68
8, 22181, Note_off_c, 9, 35, 0
8, 22181, Note_off_c, 9, 57, 0
8, 22199, Note_on_c, 9, 45, 91
8, 22205, Note_off_c, 9, 45, 0
8, 22223, Note_on_c, 9, 43, 103
8, 22229, Note_off_c, 9, 43, 0
8, 22247, Note_on_c, 9, 43, 107
8, 22253, Note_off_c, 9, 43, 0
8, 22271, Note_on_c, 9, 35, 115
8, 22271, Note_on_c, 9, 49, 84
8, 22277, Note_off_c, 9, 35, 0
8, 22277, Note_off_c, 9, 49, 0
8, 22319, Note_on_c, 9, 51, 68
8, 22325, Note_off_c, 9, 51, 0
8, 22367, Note_on_c, 9, 40, 107
8, 22367, Note_on_c, 9, 51, 79
8, 22373, Note_off_c, 9, 40, 0
8, 22373, Note_off_c, 9, 51, 0
8, 22415, Note_on_c, 9, 35, 111
8, 22415, Note_on_c, 9, 51, 69
8, 22421, Note_off_c, 9, 35, 0
8, 22421, Note_off_c, 9, 51, 0
8, 22463, Note_on_c, 9, 35, 115
8, 22463, Note_on_c, 9, 51, 76
8, 22469, Note_off_c, 9, 35, 0
8, 22469, Note_off_c, 9, 51, 0
8, 22511, Note_on_c, 9, 51, 66
8, 22517, Note_off_c, 9, 51, 0
8, 22559, Note_on_c, 9, 40, 107
8, 22559, Note_on_c, 9, 51, 84
8, 22565, Note_off_c, 9, 40, 0
8, 22565, Note_off_c, 9, 51, 0
8, 22607, Note_on_c, 9, 51, 69
8, 22613, Note_off_c, 9, 51, 0
8, 22655, Note_on_c, 9, 35, 115
8, 22655, Note_on_c, 9, 51, 79
8, 22661, Note_off_c, 9, 35, 0
8, 22661, Note_off_c, 9, 51, 0
8, 22703, Note_on_c, 9, 51, 68
8, 22709, Note_off_c, 9, 51, 0
8, 22751, Note_on_c, 9, 40, 107
8, 22751, Note_on_c, 9, 51, 79
8, 22757, Note_off_c, 9, 40, 0
8, 22757, Note_off_c, 9, 51, 0
8, 22799, Note_on_c, 9, 35, 107
8, 22799, Note_on_c, 9, 51, 67
8, 22805, Note_off_c, 9, 35, 0
8, 22805, Note_off_c, 9, 51, 0
8, 22847, Note_on_c, 9, 35, 111
8, 22847, Note_on_c, 9, 51, 79
8, 22853, Note_off_c, 9, 35, 0
8, 22853, Note_off_c, 9, 51, 0
8, 22895, Note_on_c, 9, 51, 76
8, 22901, Note_off_c, 9, 51, 0
8, 22943, Note_on_c, 9, 40, 107
8, 22943, Note_on_c, 9, 51, 84
8, 22949, Note_off_c, 9, 40, 0
8, 22949, Note_off_c, 9, 51, 0
8, 22991, Note_on_c, 9, 51, 84
8, 22997, Note_off_c, 9, 51, 0
8, 23039, Note_on_c, 9, 35, 115
8, 23039, Note_on_c, 9, 55, 84
8, 23045, Note_off_c, 9, 35, 0
8, 23045, Note_off_c, 9, 55, 0
8, 23087, Note_on_c, 9, 51, 73
8, 23093, Note_off_c, 9, 51, 0
8, 23135, Note_on_c, 9, 40, 107
8, 23135, Note_on_c, 9, 51, 79
8, 23141, Note_off_c, 9, 40, 0
8, 23141, Note_off_c, 9, 51, 0
8, 23183, Note_on_c, 9, 35, 111
8, 23183, Note_on_c, 9, 51, 71
8, 23189, Note_off_c, 9, 35, 0
8, 23189, Note_off_c, 9, 51, 0
8, 23231, Note_on_c, 9, 35, 119
8, 23231, Note_on_c, 9, 51, 73
8, 23237, Note_off_c, 9, 35, 0
8, 23237, Note_off_c, 9, 51, 0
8, 23279, Note_on_c, 9, 51, 67
8, 23285, Note_off_c, 9, 51, 0
8, 23327, Note_on_c, 9, 40, 95
8, 23327, Note_on_c, 9, 51, 79
8, 23333, Note_off_c, 9, 40, 0
8, 23333, Note_off_c, 9, 51, 0
8, 23375, Note_on_c, 9, 51, 71
8, 23381, Note_off_c, 9, 51, 0
8, 23423, Note_on_c, 9, 35, 123
8, 23423, Note_on_c, 9, 51, 73
8, 23429, Note_off_c, 9, 35, 0
8, 23429, Note_off_c, 9, 51, 0
8, 23471, Note_on_c, 9, 51, 67
8, 23477, Note_off_c, 9, 51, 0
8, 23519, Note_on_c, 9, 40, 95
8, 23519, Note_on_c, 9, 51, 73
8, 23525, Note_off_c, 9, 40, 0
8, 23525, Note_off_c, 9, 51, 0
8, 23567, Note_on_c, 9, 35, 119
8, 23567, Note_on_c, 9, 51, 73
8, 23573, Note_off_c, 9, 35, 0
8, 23573, Note_off_c, 9, 51, 0
8, 23615, Note_on_c, 9, 35, 107
8, 23615, Note_on_c, 9, 51, 76
8, 23621, Note_off_c, 9, 35, 0
8, 23621, Note_off_c, 9, 51, 0
8, 23663, Note_on_c, 9, 48, 99
8, 23663, Note_on_c, 9, 51, 76
8, 23669, Note_off_c, 9, 48, 0
8, 23669, Note_off_c, 9, 51, 0
8, 23711, Note_on_c, 9, 40, 107
8, 23711, Note_on_c, 9, 47, 91
8, 23711, Note_on_c, 9, 51, 84
8, 23717, Note_off_c, 9, 40, 0
8, 23717, Note_off_c, 9, 47, 0
8, 23717, Note_off_c, 9, 51, 0
8, 23735, Note_on_c, 9, 45, 87
8, 23741, Note_off_c, 9, 45, 0
8, 23759, Note_on_c, 9, 43, 91
8, 23759, Note_on_c, 9, 51, 79
8, 23765, Note_off_c, 9, 43, 0
8, 23765, Note_off_c, 9, 51, 0
8, 23807, Note_on_c, 9, 35, 115
8, 23807, Note_on_c, 9, 57, 84
8, 23813, Note_off_c, 9, 35, 0
8, 23813, Note_off_c, 9, 57, 0
8, 23855, Note_on_c, 9, 42, 84
8, 23861, Note_off_c, 9, 42, 0
8, 23903, Note_on_c, 9, 40, 111
8, 23903, Note_on_c, 9, 42, 95
8, 23909, Note_off_c, 9, 40, 0
8, 23909, Note_off_c, 9, 42, 0
8, 23951, Note_on_c, 9, 35, 111
8, 23951, Note_on_c, 9, 42, 58
8, 23957, Note_off_c, 9, 35, 0
8, 23957, Note_off_c, 9, 42, 0
8, 23999, Note_on_c, 9, 35, 115
8, 23999, Note_on_c, 9, 42, 76
8, 24005, Note_off_c, 9, 35, 0
8, 24005, Note_off_c, 9, 42, 0
8, 24047, Note_on_c, 9, 42, 42
8, 24053, Note_off_c, 9, 42, 0
8, 24095, Note_on_c, 9, 40, 107
8, 24095, Note_on_c, 9, 42, 84
8, 24101, Note_off_c, 9, 40, 0
8, 24101, Note_off_c, 9, 42, 0
8, 24143, Note_on_c, 9, 42, 50
8, 24149, Note_off_c, 9, 42, 0
8, 24191, Note_on_c, 9, 35, 119
8, 24191, Note_on_c, 9, 42, 79
8, 24197, Note_off_c, 9, 35, 0
8, 24197, Note_off_c, 9, 42, 0
8, 24239, Note_on_c, 9, 42, 22
8, 24245, Note_off_c, 9, 42, 0
8, 24287, Note_on_c, 9, 40, 115
8, 24287, Note_on_c, 9, 42, 95
8, 24293, Note_off_c, 9, 40, 0
8, 24293, Note_off_c, 9, 42, 0
8, 24335, Note_on_c, 9, 35, 111
8, 24335, Note_on_c, 9, 42, 56
8, 24341, Note_off_c, 9, 35, 0
8, 24341, Note_off_c, 9, 42, 0
8, 24383, Note_on_c, 9, 35, 111
8, 24383, Note_on_c, 9, 42, 68
8, 24389, Note_off_c, 9, 35, 0
8, 24389, Note_off_c, 9, 42, 0
8, 24431, Note_on_c, 9, 42, 71
8, 24437, Note_off_c, 9, 42, 0
8, 24479, Note_on_c, 9, 40, 111
8, 24479, Note_on_c, 9, 42, 68
8, 24485, Note_off_c, 9, 40, 0
8, 24485, Note_off_c, 9, 42, 0
8, 24503, Note_on_c, 9, 42, 64
8, 24509, Note_off_c, 9, 42, 0
8, 24527, Note_on_c, 9, 46, 67
8, 24533, Note_off_c, 9, 46, 0
8, 24575, Note_on_c, 9, 35, 115
8, 24575, Note_on_c, 9, 49, 84
8, 24581, Note_off_c, 9, 35, 0
8, 24581, Note_off_c, 9, 49, 0
8, 24623, Note_on_c, 9, 42, 84
8, 24629, Note_off_c, 9, 42, 0
8, 24671, Note_on_c, 9, 40, 107
8, 24671, Note_on_c, 9, 42, 87
8, 24677, Note_off_c, 9, 40, 0
8, 24677, Note_off_c, 9, 42, 0
8, 24719, Note_on_c, 9, 35, 111
8, 24719, Note_on_c, 9, 42, 73
8, 24725, Note_off_c, 9, 35, 0
8, 24725, Note_off_c, 9, 42, 0
8, 24767, Note_on_c, 9, 35, 115
8, 24767, Note_on_c, 9, 42, 79
8, 24773, Note_off_c, 9, 35, 0
8, 24773, Note_off_c, 9, 42, 0
8, 24815, Note_on_c, 9, 42, 68
8, 24821, Note_off_c, 9, 42, 0
8, 24863, Note_on_c, 9, 40, 107
8, 24863, Note_on_c, 9, 42, 79
8, 24869, Note_off_c, 9, 40, 0
8, 24869, Note_off_c, 9, 42, 0
8, 24911, Note_on_c, 9, 42, 61
8, 24917, Note_off_c, 9, 42, 0
8, 24959, Note_on_c, 9, 35, 115
8, 24959, Note_on_c, 9, 42, 82
8, 24965, Note_off_c, 9, 35, 0
8, 24965, Note_off_c, 9, 42, 0
8, 25007, Note_on_c, 9, 42, 79
8, 25013, Note_off_c, 9, 42, 0
8, 25031, Note_on_c, 9, 35, 111
8, 25037, Note_off_c, 9, 35, 0
8, 25055, Note_on_c, 9, 40, 107
8, 25055, Note_on_c, 9, 42, 82
8, 25061, Note_off_c, 9, 40, 0
8, 25061, Note_off_c, 9, 42, 0
8, 25079, Note_on_c, 9, 46, 79
8, 25085, Note_off_c, 9, 46, 0
8, 25103, Note_on_c, 9, 45, 107
8, 25109, Note_off_c, 9, 45, 0
8, 25151, Note_on_c, 9, 35, 107
8, 25157, Note_off_c, 9, 35, 0
8, 25199, Note_on_c, 9, 48, 115
8, 25205, Note_off_c, 9, 48, 0
8, 25247, Note_on_c, 9, 45, 87
8, 25253, Note_off_c, 9, 45, 0
8, 25263, Note_on_c, 9, 45, 60
8, 25269, Note_off_c, 9, 45, 0
8, 25279, Note_on_c, 9, 45, 79
8, 25285, Note_off_c, 9, 45, 0
8, 25295, Note_on_c, 9, 43, 87
8, 25301, Note_off_c, 9, 43, 0
8, 25311, Note_on_c, 9, 43, 87
8, 25317, Note_off_c, 9, 43, 0
8, 25327, Note_on_c, 9, 43, 107
8, 25333, Note_off_c, 9, 43, 0
8, 25343, Note_on_c, 9, 35, 115
8, 25343, Note_on_c, 9, 49, 84
8, 25349, Note_off_c, 9, 35, 0
8, 25349, Note_off_c, 9, 49, 0
8, 25391, Note_on_c, 9, 51, 68
8, 25397, Note_off_c, 9, 51, 0
8, 25439, Note_on_c, 9, 40, 107
8, 25439, Note_on_c, 9, 51, 79
8, 25445, Note_off_c, 9, 40, 0
8, 25445, Note_off_c, 9, 51, 0
8, 25487, Note_on_c, 9, 35, 111
8, 25487, Note_on_c, 9, 51, 69
8, 25493, Note_off_c, 9, 35, 0
8, 25493, Note_off_c, 9, 51, 0
8, 25535, Note_on_c, 9, 35, 115
8, 25535, Note_on_c, 9, 51, 76
8, 25541, Note_off_c, 9, 35, 0
8, 25541, Note_off_c, 9, 51, 0
8, 25583, Note_on_c, 9, 51, 66
8, 25589, Note_off_c, 9, 51, 0
8, 25631, Note_on_c, 9, 40, 107
8, 25631, Note_on_c, 9, 51, 84
8, 25637, Note_off_c, 9, 40, 0
8, 25637, Note_off_c, 9, 51, 0
8, 25679, Note_on_c, 9, 51, 69
8, 25685, Note_off_c, 9, 51, 0
8, 25727, Note_on_c, 9, 35, 115
8, 25727, Note_on_c, 9, 51, 79
8, 25733, Note_off_c, 9, 35, 0
8, 25733, Note_off_c, 9, 51, 0
8, 25775, Note_on_c, 9, 51, 68
8, 25781, Note_off_c, 9, 51, 0
8, 25823, Note_on_c, 9, 40, 107
8, 25823, Note_on_c, 9, 51, 79
8, 25829, Note_off_c, 9, 40, 0
8, 25829, Note_off_c, 9, 51, 0
8, 25871, Note_on_c, 9, 35, 107
8, 25871, Note_on_c, 9, 51, 67
8, 25877, Note_off_c, 9, 35, 0
8, 25877, Note_off_c, 9, 51, 0
8, 25919, Note_on_c, 9, 35, 111
8, 25919, Note_on_c, 9, 51, 79
8, 25925, Note_off_c, 9, 35, 0
8, 25925, Note_off_c, 9, 51, 0
8, 25967, Note_on_c, 9, 51, 76
8, 25973, Note_off_c, 9, 51, 0
8, 26015, Note_on_c, 9, 40, 107
8, 26015, Note_on_c, 9, 51, 84
8, 26021, Note_off_c, 9, 40, 0
8, 26021, Note_off_c, 9, 51, 0
8, 26063, Note_on_c, 9, 51, 84
8, 26069, Note_off_c, 9, 51, 0
8, 26111, Note_on_c, 9, 35, 115
8, 26111, Note_on_c, 9, 49, 67
8, 26117, Note_off_c, 9, 35, 0
8, 26117, Note_off_c, 9, 49, 0
8, 26159, Note_on_c, 9, 51, 73
8, 26165, Note_off_c, 9, 51, 0
8, 26207, Note_on_c, 9, 40, 107
8, 26207, Note_on_c, 9, 51, 79
8, 26213, Note_off_c, 9, 40, 0
8, 26213, Note_off_c, 9, 51, 0
8, 26255, Note_on_c, 9, 35, 111
8, 26255, Note_on_c, 9, 51, 71
8, 26261, Note_off_c, 9, 35, 0
8, 26261, Note_off_c, 9, 51, 0
8, 26303, Note_on_c, 9, 35, 119
8, 26303, Note_on_c, 9, 51, 73
8, 26309, Note_off_c, 9, 35, 0
8, 26309, Note_off_c, 9, 51, 0
8, 26351, Note_on_c, 9, 51, 67
8, 26357, Note_off_c, 9, 51, 0
8, 26399, Note_on_c, 9, 40, 95
8, 26399, Note_on_c, 9, 51, 79
8, 26405, Note_off_c, 9, 40, 0
8, 26405, Note_off_c, 9, 51, 0
8, 26447, Note_on_c, 9, 51, 71
8, 26453, Note_off_c, 9, 51, 0
8, 26495, Note_on_c, 9, 35, 123
8, 26495, Note_on_c, 9, 51, 73
8, 26501, Note_off_c, 9, 35, 0
8, 26501, Note_off_c, 9, 51, 0
8, 26543, Note_on_c, 9, 51, 67
8, 26549, Note_off_c, 9, 51, 0
8, 26591, Note_on_c, 9, 40, 95
8, 26591, Note_on_c, 9, 51, 73
8, 26597, Note_off_c, 9, 40, 0
8, 26597, Note_off_c, 9, 51, 0
8, 26639, Note_on_c, 9, 35, 119
8, 26639, Note_on_c, 9, 51, 73
8, 26645, Note_off_c, 9, 35, 0
8, 26645, Note_off_c, 9, 51, 0
8, 26687, Note_on_c, 9, 35, 107
8, 26687, Note_on_c, 9, 51, 76
8, 26693, Note_off_c, 9, 35, 0
8, 26693, Note_off_c, 9, 51, 0
8, 26735, Note_on_c, 9, 51, 76
8, 26741, Note_off_c, 9, 51, 0
8, 26759, Note_on_c, 9, 35, 95
8, 26765, Note_off_c, 9, 35, 0
8, 26783, Note_on_c, 9, 40, 107
8, 26783, Note_on_c, 9, 51, 84
8, 26789, Note_off_c, 9, 40, 0
8, 26789, Note_off_c, 9, 51, 0
8, 26807, Note_on_c, 9, 40, 66
8, 26813, Note_off_c, 9, 40, 0
8, 26831, Note_on_c, 9, 45, 95
8, 26831, Note_on_c, 9, 51, 79
8, 26837, Note_off_c, 9, 45, 0
8, 26837, Note_off_c, 9, 51, 0
8, 26855, Note_on_c, 9, 45, 76
8, 26861, Note_off_c, 9, 45, 0
8, 26879, Note_on_c, 9, 35, 115
8, 26879, Note_on_c, 9, 57, 84
8, 26885, Note_off_c, 9, 35, 0
8, 26885, Note_off_c, 9, 57, 0
8, 26927, Note_on_c, 9, 51, 62
8, 26933, Note_off_c, 9, 51, 0
8, 26975, Note_on_c, 9, 40, 111
8, 26975, Note_on_c, 9, 51, 79
8, 26981, Note_off_c, 9, 40, 0
8, 26981, Note_off_c, 9, 51, 0
8, 27023, Note_on_c, 9, 35, 111
8, 27023, Note_on_c, 9, 51, 68
8, 27029, Note_off_c, 9, 35, 0
8, 27029, Note_off_c, 9, 51, 0
8, 27071, Note_on_c, 9, 35, 115
8, 27071, Note_on_c, 9, 51, 76
8, 27077, Note_off_c, 9, 35, 0
8, 27077, Note_off_c, 9, 51, 0
8, 27119, Note_on_c, 9, 51, 64
8, 27125, Note_off_c, 9, 51, 0
8, 27167, Note_on_c, 9, 40, 107
8, 27167, Note_on_c, 9, 51, 76
8, 27173, Note_off_c, 9, 40, 0
8, 27173, Note_off_c, 9, 51, 0
8, 27215, Note_on_c, 9, 51, 67
8, 27221, Note_off_c, 9, 51, 0
8, 27263, Note_on_c, 9, 35, 119
8, 27263, Note_on_c, 9, 51, 71
8, 27269, Note_off_c, 9, 35, 0
8, 27269, Note_off_c, 9, 51, 0
8, 27311, Note_on_c, 9, 51, 67
8, 27317, Note_off_c, 9, 51, 0
8, 27359, Note_on_c, 9, 40, 115
8, 27359, Note_on_c, 9, 51, 79
8, 27365, Note_off_c, 9, 40, 0
8, 27365, Note_off_c, 9, 51, 0
8, 27407, Note_on_c, 9, 35, 111
8, 27407, Note_on_c, 9, 51, 62
8, 27413, Note_off_c, 9, 35, 0
8, 27413, Note_off_c, 9, 51, 0
8, 27455, Note_on_c, 9, 35, 111
8, 27455, Note_on_c, 9, 51, 76
8, 27461, Note_off_c, 9, 35, 0
8, 27461, Note_off_c, 9, 51, 0
8, 27503, Note_on_c, 9, 51, 56
8, 27509, Note_off_c, 9, 51, 0
8, 27551, Note_on_c, 9, 40, 111
8, 27551, Note_on_c, 9, 51, 82
8, 27557, Note_off_c, 9, 40, 0
8, 27557, Note_off_c, 9, 51, 0
8, 27599, Note_on_c, 9, 51, 69
8, 27605, Note_off_c, 9, 51, 0
8, 27647, Note_on_c, 9, 35, 115
8, 27647, Note_on_c, 9, 55, 76
8, 27653, Note_off_c, 9, 35, 0
8, 27653, Note_off_c, 9, 55, 0
8, 27695, Note_on_c, 9, 51, 62
8, 27701, Note_off_c, 9, 51, 0
8, 27743, Note_on_c, 9, 40, 107
8, 27743, Note_on_c, 9, 51, 87
8, 27749, Note_off_c, 9, 40, 0
8, 27749, Note_off_c, 9, 51, 0
8, 27791, Note_on_c, 9, 35, 107
8, 27791, Note_on_c, 9, 51, 64
8, 27797, Note_off_c, 9, 35, 0
8, 27797, Note_off_c, 9, 51, 0
8, 27839, Note_on_c, 9, 35, 115
8, 27839, Note_on_c, 9, 51, 76
8, 27845, Note_off_c, 9, 35, 0
8, 27845, Note_off_c, 9, 51, 0
8, 27887, Note_on_c, 9, 51, 56
8, 27893, Note_off_c, 9, 51, 0
8, 27935, Note_on_c, 9, 40, 111
8, 27935, Note_on_c, 9, 51, 79
8, 27941, Note_off_c, 9, 40, 0
8, 27941, Note_off_c, 9, 51, 0
8, 27983, Note_on_c, 9, 51, 62
8, 27989, Note_off_c, 9, 51, 0
8, 28031, Note_on_c, 9, 35, 123
8, 28031, Note_on_c, 9, 57, 73
8, 28037, Note_off_c, 9, 35, 0
8, 28037, Note_off_c, 9, 57, 0
8, 28079, Note_on_c, 9, 45, 66
8, 28085, Note_off_c, 9, 45, 0
8, 28103, Note_on_c, 9, 45, 69
8, 28109, Note_off_c, 9, 45, 0
8, 28127, Note_on_c, 9, 40, 87
8, 28133, Note_off_c, 9, 40, 0
8, 28151, Note_on_c, 9, 40, 95
8, 28157, Note_off_c, 9, 40, 0
8, 28175, Note_on_c, 9, 43, 87
8, 28181, Note_off_c, 9, 43, 0
8, 28199, Note_on_c, 9, 43, 95
8, 28205, Note_off_c, 9, 43, 0
8, 28223, Note_on_c, 9, 35, 107
8, 28223, Note_on_c, 9, 49, 81
8, 28229, Note_off_c, 9, 35, 0
8, 28229, Note_off_c, 9, 49, 0
8, 28271, Note_on_c, 9, 47, 107
8, 28277, Note_off_c, 9, 47, 0
8, 28295, Note_on_c, 9, 47, 84
8, 28301, Note_off_c, 9, 47, 0
8, 28319, Note_on_c, 9, 45, 95
8, 28325, Note_off_c, 9, 45, 0
8, 28343, Note_on_c, 9, 45, 91
8, 28349, Note_off_c, 9, 45, 0
8, 28367, Note_on_c, 9, 43, 103
8, 28373, Note_off_c, 9, 43, 0
8, 28391, Note_on_c, 9, 43, 107
8, 28397, Note_off_c, 9, 43, 0
8, 28415, Note_on_c, 9, 35, 115
8, 28415, Note_on_c, 9, 49, 84
8, 28421, Note_off_c, 9, 35, 0
8, 28421, Note_off_c, 9, 49, 0
8, 28463, Note_on_c, 9, 51, 68
8, 28469, Note_off_c, 9, 51, 0
8, 28511, Note_on_c, 9, 40, 107
8, 28511, Note_on_c, 9, 51, 79
8, 28517, Note_off_c, 9, 40, 0
8, 28517, Note_off_c, 9, 51, 0
8, 28559, Note_on_c, 9, 35, 111
8, 28559, Note_on_c, 9, 51, 69
8, 28565, Note_off_c, 9, 35, 0
8, 28565, Note_off_c, 9, 51, 0
8, 28607, Note_on_c, 9, 35, 115
8, 28607, Note_on_c, 9, 51, 76
8, 28613, Note_off_c, 9, 35, 0
8, 28613, Note_off_c, 9, 51, 0
8, 28655, Note_on_c, 9, 51, 66
8, 28661, Note_off_c, 9, 51, 0
8, 28703, Note_on_c, 9, 40, 107
8, 28703, Note_on_c, 9, 51, 84
8, 28709, Note_off_c, 9, 40, 0
8, 28709, Note_off_c, 9, 51, 0
8, 28751, Note_on_c, 9, 51, 69
8, 28757, Note_off_c, 9, 51, 0
8, 28799, Note_on_c, 9, 35, 115
8, 28799, Note_on_c, 9, 51, 79
8, 28805, Note_off_c, 9, 35, 0
8, 28805, Note_off_c, 9, 51, 0
8, 28847, Note_on_c, 9, 51, 68
8, 28853, Note_off_c, 9, 51, 0
8, 28895, Note_on_c, 9, 40, 107
8, 28895, Note_on_c, 9, 51, 79
8, 28901, Note_off_c, 9, 40, 0
8, 28901, Note_off_c, 9, 51, 0
8, 28943, Note_on_c, 9, 35, 107
8, 28943, Note_on_c, 9, 51, 67
8, 28949, Note_off_c, 9, 35, 0
8, 28949, Note_off_c, 9, 51, 0
8, 28991, Note_on_c, 9, 35, 111
8, 28991, Note_on_c, 9, 51, 79
8, 28997, Note_off_c, 9, 35, 0
8, 28997, Note_off_c, 9, 51, 0
8, 29039, Note_on_c, 9, 51, 76
8, 29045, Note_off_c, 9, 51, 0
8, 29087, Note_on_c, 9, 40, 107
8, 29087, Note_on_c, 9, 51, 84
8, 29093, Note_off_c, 9, 40, 0
8, 29093, Note_off_c, 9, 51, 0
8, 29135, Note_on_c, 9, 51, 84
8, 29141, Note_off_c, 9, 51, 0
8, 29183, Note_on_c, 9, 35, 115
8, 29183, Note_on_c, 9, 55, 84
8, 29189, Note_off_c, 9, 35, 0
8, 29189, Note_off_c, 9, 55, 0
8, 29231, Note_on_c, 9, 51, 73
8, 29237, Note_off_c, 9, 51, 0
8, 29279, Note_on_c, 9, 40, 107
8, 29279, Note_on_c, 9, 51, 79
8, 29285, Note_off_c, 9, 40, 0
8, 29285, Note_off_c, 9, 51, 0
8, 29327, Note_on_c, 9, 35, 111
8, 29327, Note_on_c, 9, 51, 71
8, 29333, Note_off_c, 9, 35, 0
8, 29333, Note_off_c, 9, 51, 0
8, 29375, Note_on_c, 9, 35, 119
8, 29375, Note_on_c, 9, 51, 73
8, 29381, Note_off_c, 9, 35, 0
8, 29381, Note_off_c, 9, 51, 0
8, 29423, Note_on_c, 9, 51, 67
8, 29429, Note_off_c, 9, 51, 0
8, 29471, Note_on_c, 9, 40, 95
8, 29471, Note_on_c, 9, 51, 79
8, 29477, Note_off_c, 9, 40, 0
8, 29477, Note_off_c, 9, 51, 0
8, 29519, Note_on_c, 9, 51, 71
8, 29525, Note_off_c, 9, 51, 0
8, 29567, Note_on_c, 9, 35, 123
8, 29567, Note_on_c, 9, 51, 73
8, 29573, Note_off_c, 9, 35, 0
8, 29573, Note_off_c, 9, 51, 0
8, 29615, Note_on_c, 9, 51, 67
8, 29621, Note_off_c, 9, 51, 0
8, 29663, Note_on_c, 9, 40, 95
8, 29663, Note_on_c, 9, 51, 73
8, 29669, Note_off_c, 9, 40, 0
8, 29669, Note_off_c, 9, 51, 0
8, 29711, Note_on_c, 9, 35, 119
8, 29711, Note_on_c, 9, 51, 73
8, 29717, Note_off_c, 9, 35, 0
8, 29717, Note_off_c, 9, 51, 0
8, 29759, Note_on_c, 9, 35, 107
8, 29759, Note_on_c, 9, 51, 76
8, 29765, Note_off_c, 9, 35, 0
8, 29765, Note_off_c, 9, 51, 0
8, 29807, Note_on_c, 9, 48, 99
8, 29807, Note_on_c, 9, 51, 76
8, 29813, Note_off_c, 9, 48, 0
8, 29813, Note_off_c, 9, 51, 0
8, 29855, Note_on_c, 9, 40, 107
8, 29855, Note_on_c, 9, 47, 91
8, 29855, Note_on_c, 9, 51, 84
8, 29861, Note_off_c, 9, 40, 0
8, 29861, Note_off_c, 9, 47, 0
8, 29861, Note_off_c, 9, 51, 0
8, 29879, Note_on_c, 9, 45, 87
8, 29885, Note_off_c, 9, 45, 0
8, 29903, Note_on_c, 9, 43, 91
8, 29903, Note_on_c, 9, 51, 79
8, 29909, Note_off_c, 9, 43, 0
8, 29909, Note_off_c, 9, 51, 0
8, 29951, Note_on_c, 9, 35, 115
8, 29951, Note_on_c, 9, 57, 84
8, 29957, Note_off_c, 9, 35, 0
8, 29957, Note_off_c, 9, 57, 0
8, 29999, Note_on_c, 9, 42, 84
8, 30005, Note_off_c, 9, 42, 0
8, 30047, Note_on_c, 9, 40, 111
8, 30047, Note_on_c, 9, 42, 95
8, 30053, Note_off_c, 9, 40, 0
8, 30053, Note_off_c, 9, 42, 0
8, 30095, Note_on_c, 9, 35, 111
8, 30095, Note_on_c, 9, 42, 58
8, 30101, Note_off_c, 9, 35, 0
8, 30101, Note_off_c, 9, 42, 0
8, 30143, Note_on_c, 9, 35, 115
8, 30143, Note_on_c, 9, 42, 76
8, 30149, Note_off_c, 9, 35, 0
8, 30149, Note_off_c, 9, 42, 0
8, 30191, Note_on_c, 9, 42, 42
8, 30197, Note_off_c, 9, 42, 0
8, 30239, Note_on_c, 9, 40, 107
8, 30239, Note_on_c, 9, 42, 84
8, 30245, Note_off_c, 9, 40, 0
8, 30245, Note_off_c, 9, 42, 0
8, 30287, Note_on_c, 9, 42, 50
8, 30293, Note_off_c, 9, 42, 0
8, 30335, Note_on_c, 9, 35, 119
8, 30335, Note_on_c, 9, 42, 79
8, 30341, Note_off_c, 9, 35, 0
8, 30341, Note_off_c, 9, 42, 0
8, 30383, Note_on_c, 9, 42, 22
8, 30389, Note_off_c, 9, 42, 0
8, 30431, Note_on_c, 9, 40, 115
8, 30431, Note_on_c, 9, 42, 95
8, 30437, Note_off_c, 9, 40, 0
8, 30437, Note_off_c, 9, 42, 0
8, 30479, Note_on_c, 9, 35, 111
8, 30479, Note_on_c, 9, 42, 56
8, 30485, Note_off_c, 9, 35, 0
8, 30485, Note_off_c, 9, 42, 0
8, 30527, Note_on_c, 9, 35, 111
8, 30527, Note_on_c, 9, 42, 68
8, 30533, Note_off_c, 9, 35, 0
8, 30533, Note_off_c, 9, 42, 0
8, 30575, Note_on_c, 9, 42, 71
8, 30581, Note_off_c, 9, 42, 0
8, 30623, Note_on_c, 9, 40, 111
8, 30623, Note_on_c, 9, 42, 68
8, 30629, Note_off_c, 9, 40, 0
8, 30629, Note_off_c, 9, 42, 0
8, 30647, Note_on_c, 9, 42, 64
8, 30653, Note_off_c, 9, 42, 0
8, 30671, Note_on_c, 9, 46, 67
8, 30677, Note_off_c, 9, 46, 0
8, 30719, Note_on_c, 9, 35, 115
8, 30719, Note_on_c, 9, 49, 84
8, 30725, Note_off_c, 9, 35, 0
8, 30725, Note_off_c, 9, 49, 0
8, 30767, Note_on_c, 9, 51, 68
8, 30773, Note_off_c, 9, 51, 0
8, 30815, Note_on_c, 9, 40, 107
8, 30815, Note_on_c, 9, 51, 79
8, 30821, Note_off_c, 9, 40, 0
8, 30821, Note_off_c, 9, 51, 0
8, 30863, Note_on_c, 9, 35, 111
8, 30863, Note_on_c, 9, 51, 69
8, 30869, Note_off_c, 9, 35, 0
8, 30869, Note_off_c, 9, 51, 0
8, 30911, Note_on_c, 9, 35, 115
8, 30911, Note_on_c, 9, 51, 76
8, 30917, Note_off_c, 9, 35, 0
8, 30917, Note_off_c, 9, 51, 0
8, 30959, Note_on_c, 9, 51, 66
8, 30965, Note_off_c, 9, 51, 0
8, 31007, Note_on_c, 9, 40, 107
8, 31007, Note_on_c, 9, 51, 84
8, 31013, Note_off_c, 9, 40, 0
8, 31013, Note_off_c, 9, 51, 0
8, 31055, Note_on_c, 9, 51, 69
8, 31061, Note_off_c, 9, 51, 0
8, 31103, Note_on_c, 9, 35, 115
8, 31103, Note_on_c, 9, 51, 79
8, 31109, Note_off_c, 9, 35, 0
8, 31109, Note_off_c, 9, 51, 0
8, 31151, Note_on_c, 9, 51, 68
8, 31157, Note_off_c, 9, 51, 0
8, 31199, Note_on_c, 9, 40, 107
8, 31199, Note_on_c, 9, 51, 79
8, 31205, Note_off_c, 9, 40, 0
8, 31205, Note_off_c, 9, 51, 0
8, 31247, Note_on_c, 9, 35, 107
8, 31247, Note_on_c, 9, 51, 67
8, 31253, Note_off_c, 9, 35, 0
8, 31253, Note_off_c, 9, 51, 0
8, 31295, Note_on_c, 9, 35, 111
8, 31295, Note_on_c, 9, 51, 79
8, 31301, Note_off_c, 9, 35, 0
8, 31301, Note_off_c, 9, 51, 0
8, 31343, Note_on_c, 9, 51, 76
8, 31349, Note_off_c, 9, 51, 0
8, 31391, Note_on_c, 9, 40, 107
8, 31391, Note_on_c, 9, 51, 84
8, 31397, Note_off_c, 9, 40, 0
8, 31397, Note_off_c, 9, 51, 0
8, 31439, Note_on_c, 9, 51, 84
8, 31442, Note_on_c, 9, 40, 62
8, 31445, Note_off_c, 9, 51, 0
8, 31448, Note_off_c, 9, 40, 0
8, 31463, Note_on_c, 9, 40, 68
8, 31470, Note_off_c, 9, 40, 0
8, 31487, Note_on_c, 9, 35, 115
8, 31487, Note_on_c, 9, 49, 67
8, 31493, Note_off_c, 9, 35, 0
8, 31493, Note_off_c, 9, 49, 0
8, 31535, Note_on_c, 9, 51, 73
8, 31541, Note_off_c, 9, 51, 0
8, 31583, Note_on_c, 9, 40, 107
8, 31583, Note_on_c, 9, 51, 79
8, 31589, Note_off_c, 9, 40, 0
8, 31589, Note_off_c, 9, 51, 0
8, 31631, Note_on_c, 9, 35, 111
8, 31631, Note_on_c, 9, 51, 71
8, 31637, Note_off_c, 9, 35, 0
8, 31637, Note_off_c, 9, 51, 0
8, 31679, Note_on_c, 9, 35, 119
8, 31679, Note_on_c, 9, 51, 73
8, 31680, Tempo, 845070
8, 31685, Note_off_c, 9, 35, 0
8, 31685, Note_off_c, 9, 51, 0
8, 31727, Note_on_c, 9, 51, 67
8, 31733, Note_off_c, 9, 51, 0
8, 31775, Note_on_c, 9, 40, 95
8, 31775, Note_on_c, 9, 51, 79
8, 31781, Note_off_c, 9, 40, 0
8, 31781, Note_off_c, 9, 51, 0
8, 31823, Note_on_c, 9, 51, 71
8, 31829, Note_off_c, 9, 51, 0
8, 31871, Note_on_c, 9, 35, 123
8, 31871, Note_on_c, 9, 51, 73
8, 31872, Tempo, 895522
8, 31877, Note_off_c, 9, 35, 0
8, 31877, Note_off_c, 9, 51, 0
8, 31919, Note_on_c, 9, 51, 67
8, 31925, Note_off_c, 9, 51, 0
8, 31967, Note_on_c, 9, 40, 95
8, 31967, Note_on_c, 9, 51, 73
8, 31973, Note_off_c, 9, 40, 0
8, 31973, Note_off_c, 9, 51, 0
8, 32015, Note_on_c, 9, 35, 119
8, 32015, Note_on_c, 9, 51, 73
8, 32021, Note_off_c, 9, 35, 0
8, 32021, Note_off_c, 9, 51, 0
8, 32063, Note_on_c, 9, 35, 107
8, 32063, Note_on_c, 9, 51, 76
8, 32064, Tempo, 909090
8, 32069, Note_off_c, 9, 35, 0
8, 32069, Note_off_c, 9, 51, 0
8, 32111, Note_on_c, 9, 51, 76
8, 32117, Note_off_c, 9, 51, 0
8, 32135, Note_on_c, 9, 35, 95
8, 32141, Note_off_c, 9, 35, 0
8, 32159, Note_on_c, 9, 40, 107
8, 32159, Note_on_c, 9, 51, 84
8, 32165, Note_off_c, 9, 40, 0
8, 32165, Note_off_c, 9, 51, 0
8, 32183, Note_on_c, 9, 40, 66
8, 32189, Note_off_c, 9, 40, 0
8, 32207, Note_on_c, 9, 45, 95
8, 32207, Note_on_c, 9, 51, 79
8, 32213, Note_off_c, 9, 45, 0
8, 32213, Note_off_c, 9, 51, 0
8, 32231, Note_on_c, 9, 45, 76
8, 32237, Note_off_c, 9, 45, 0
8, 32255, Note_on_c, 9, 35, 115
8, 32255, Note_on_c, 9, 57, 84
8, 32256, Tempo, 1034482
8, 32261, Note_off_c, 9, 35, 0
8, 32261, Note_off_c, 9, 57, 0
8, 32447, Note_on_c, 9, 35, 115
8, 32447, Note_on_c, 9, 49, 76
8, 32453, Note_off_c, 9, 35, 0
8, 32453, Note_off_c, 9, 49, 0
8, 32543, Note_on_c, 9, 35, 68
8, 32543, Note_on_c, 9, 57, 87
8, 32549, Note_off_c, 9, 35, 0
8, 32549, Note_off_c, 9, 57, 0
8, 32639, Note_on_c, 9, 35, 119
8, 32639, Note_on_c, 9, 49, 91
8, 32645, Note_off_c, 9, 35, 0
8, 32645, Note_off_c, 9, 49, 0
8, 32831, Note_on_c, 9, 57, 1
8, 32837, Note_off_c, 9, 57, 0
8, 32847, Note_on_c, 9, 57, 13
8, 32853, Note_off_c, 9, 57, 0
8, 32855, Note_on_c, 9, 49, 15
8, 32861, Note_off_c, 9, 49, 0
8, 32863, Note_on_c, 9, 57, 18
8, 32869, Note_off_c, 9, 57, 0
8, 32871, Note_on_c, 9, 49, 20
8, 32877, Note_off_c, 9, 49, 0
8, 32879, Note_on_c, 9, 57, 22
8, 32885, Note_off_c, 9, 57, 0
8, 32887, Note_on_c, 9, 49, 24
8, 32893, Note_off_c, 9, 49, 0
8, 32895, Note_on_c, 9, 57, 26
8, 32901, Note_off_c, 9, 57, 0
8, 32903, Note_on_c, 9, 49, 28
8, 32909, Note_off_c, 9, 49, 0
8, 32911, Note_on_c, 9, 57, 26
8, 32917, Note_off_c, 9, 57, 0
8, 32919, Note_on_c, 9, 49, 33
8, 32925, Note_off_c, 9, 49, 0
8, 32927, Note_on_c, 9, 57, 32
8, 32933, Note_off_c, 9, 57, 0
8, 32935, Note_on_c, 9, 49, 39
8, 32941, Note_off_c, 9, 49, 0
8, 32943, Note_on_c, 9, 57, 36
8, 32949, Note_off_c, 9, 57, 0
8, 32951, Note_on_c, 9, 49, 43
8, 32957, Note_off_c, 9, 49, 0
8, 32959, Note_on_c, 9, 57, 41
8, 32965, Note_off_c, 9, 57, 0
8, 32967, Note_on_c, 9, 49, 47
8, 32973, Note_off_c, 9, 49, 0
8, 32975, Note_on_c, 9, 57, 45
8, 32981, Note_off_c, 9, 57, 0
8, 32983, Note_on_c, 9, 49, 51
8, 32989, Note_off_c, 9, 49, 0
8, 32991, Note_on_c, 9, 57, 50
8, 32997, Note_off_c, 9, 57, 0
8, 32999, Note_on_c, 9, 49, 53
8, 33005, Note_off_c, 9, 49, 0
8, 33007, Note_on_c, 9, 57, 54
8, 33013, Note_off_c, 9, 57, 0
8, 33023, Note_on_c, 9, 35, 115
8, 33023, Note_on_c, 9, 49, 95
8, 33023, Note_on_c, 9, 57, 63
8, 33029, Note_off_c, 9, 35, 0
8, 33029, Note_off_c, 9, 49, 0
8, 33029, Note_off_c, 9, 57, 0
8, 33432, Control_c, 9, 120, 0
8, 33432, End_track
0, 0, End_of_file
