0, 0, Header, 1, 12, 96
1, 0, Start_track
1, 0, Time_signature, 4, 2, 24, 8
1, 0, Key_signature, 2, "major"
1, 0, Tempo, 750000
1, 6912, Time_signature, 2, 2, 24, 8
1, 6912, Key_signature, 0, "major"
1, 7104, Time_signature, 4, 2, 24, 8
1, 8640, Time_signature, 2, 2, 24, 8
1, 8832, Time_signature, 4, 2, 24, 8
1, 10368, Time_signature, 2, 2, 24, 8
1, 10560, Time_signature, 4, 2, 24, 8
1, 11328, Key_signature, 2, "major"
1, 16704, Time_signature, 2, 2, 24, 8
1, 16704, Key_signature, 0, "major"
1, 16896, Time_signature, 4, 2, 24, 8
1, 18432, Time_signature, 2, 2, 24, 8
1, 18624, Time_signature, 4, 2, 24, 8
1, 20160, Time_signature, 2, 2, 24, 8
1, 20352, Time_signature, 4, 2, 24, 8
1, 23040, Time_signature, 2, 2, 24, 8
1, 23232, Time_signature, 4, 2, 24, 8
1, 24768, Time_signature, 2, 2, 24, 8
1, 24960, Time_signature, 4, 2, 24, 8
1, 26496, Time_signature, 2, 2, 24, 8
1, 26688, Time_signature, 4, 2, 24, 8
1, 28992, Time_signature, 2, 2, 24, 8
1, 29184, Time_signature, 4, 2, 24, 8
1, 30720, Time_signature, 2, 2, 24, 8
1, 30912, Time_signature, 4, 2, 24, 8
1, 33600, Tempo, 750000
1, 33982, Tempo, 759493
1, 34027, Tempo, 769230
1, 34055, Tempo, 779220
1, 34089, Tempo, 789473
1, 34110, Tempo, 800000
1, 34129, Tempo, 810810
1, 34147, Tempo, 821917
1, 34179, Tempo, 833333
1, 34205, Tempo, 845070
1, 34254, Tempo, 857142
1, 34292, Tempo, 869565
1, 34310, Tempo, 882352
1, 34329, Tempo, 909090
1, 34348, Tempo, 909090
1, 34361, Tempo, 923076
1, 34374, Tempo, 937500
1, 34385, Tempo, 952380
1, 34450, Tempo, 967741
1, 34521, Tempo, 1000000
1, 34560, Tempo, 967741
1, 34570, Tempo, 952380
1, 34578, Tempo, 937500
1, 34585, Tempo, 923076
1, 34594, Tempo, 909090
1, 34605, Tempo, 909090
1, 34617, Tempo, 882352
1, 34636, Tempo, 869565
1, 34660, Tempo, 857142
1, 34680, Tempo, 845070
1, 34723, Tempo, 833333
1, 34746, Tempo, 821917
1, 34789, Tempo, 810810
1, 34824, Tempo, 800000
1, 34875, Tempo, 789473
1, 34922, Tempo, 779220
1, 34922, End_track
2, 0, Start_track
2, 0, MIDI_port, 0
2, 0, Title_t, "Soft Karaoke"
2, 0, Text_t, "@KMIDI KARAOKE FILE tm"
2, 0, Text_t, "@KAll rights reserved, TUNE 1000 CORP."
2, 0, Text_t, "@V0100"
2, 0, Text_t, "@I 07-05-93, 09:30, I.G."
2, 0, Text_t, "@KCopyright WARNER CHAPPELL rights secured"
2, 0, End_track
3, 0, Start_track
3, 0, MIDI_port, 0
3, 0, Title_t, "Words"
3, 0, Text_t, "@LENGL"
3, 0, Text_t, "@TA WORD IN SPANISH"
3, 0, Text_t, "@TElton John / Bernie Taupin"
3, 0, Text_t, "@TCopyright WARNER CHAPPELL International rights secured"
3, 0, Text_t, "@WALL rights reserved. Not for broadcast or"
3, 0, Text_t, "@Wtransmission of any kind."
3, 0, Text_t, "@WDO NOT DUPLICATE. NOT FOR RENTAL."
3, 1538, Text_t, "\\I"
3, 1608, Text_t, " don't"
3, 1656, Text_t, " know"
3, 1704, Text_t, " why,"
3, 1920, Text_t, " I"
3, 1968, Text_t, " just"
3, 1992, Text_t, " know"
3, 2040, Text_t, " I"
3, 2088, Text_t, " do."
3, 2304, Text_t, "/I"
3, 2352, Text_t, " just"
3, 2400, Text_t, " can't"
3, 2424, Text_t, " ex"
3, 2472, Text_t, "plain"
3, 2640, Text_t, " in"
3, 2664, Text_t, " this"
3, 2688, Text_t, " lan"
3, 2736, Text_t, "guage"
3, 2784, Text_t, " that"
3, 2808, Text_t, " I"
3, 2856, Text_t, " use."
3, 3072, Text_t, "\\Some"
3, 3120, Text_t, "thing"
3, 3144, Text_t, " leaves"
3, 3192, Text_t, " me"
3, 3240, Text_t, " speech"
3, 3288, Text_t, "less"
3, 3432, Text_t, "/each"
3, 3456, Text_t, " time"
3, 3480, Text_t, " that"
3, 3528, Text_t, " you"
3, 3576, Text_t, " ap"
3, 3624, Text_t, "proach,"
3, 3816, Text_t, "\\Each"
3, 3840, Text_t, " time"
3, 3888, Text_t, " you"
3, 3912, Text_t, " glide"
3, 3960, Text_t, " right"
3, 4008, Text_t, " through"
3, 4079, Text_t, " me"
3, 4199, Text_t, "/as"
3, 4224, Text_t, " if"
3, 4248, Text_t, " I"
3, 4296, Text_t, " was"
3, 4344, Text_t, " a"
3, 4392, Text_t, " ghost."
3, 4464, Text_t, "\\If"
3, 4488, Text_t, " I"
3, 4512, Text_t, " on"
3, 4536, Text_t, "ly"
3, 4560, Text_t, " could"
3, 4611, Text_t, " tell"
3, 4682, Text_t, " you,"
3, 4848, Text_t, "/if"
3, 4872, Text_t, " you"
3, 4896, Text_t, " on"
3, 4920, Text_t, "ly"
3, 4944, Text_t, " would"
3, 4994, Text_t, " lis"
3, 5067, Text_t, "ten."
3, 5304, Text_t, "\\I've"
3, 5328, Text_t, " got"
3, 5352, Text_t, " a"
3, 5376, Text_t, " line"
3, 5424, Text_t, " or"
3, 5472, Text_t, " two"
3, 5520, Text_t, " to"
3, 5544, Text_t, " use"
3, 5592, Text_t, " on"
3, 5640, Text_t, " you,"
3, 6048, Text_t, "/I've"
3, 6072, Text_t, " got"
3, 6120, Text_t, " a"
3, 6146, Text_t, " ro"
3, 6192, Text_t, "mance"
3, 6242, Text_t, " we"
3, 6288, Text_t, " could"
3, 6312, Text_t, " chris"
3, 6360, Text_t, "ten."
3, 6768, Text_t, "\\There's"
3, 6792, Text_t, " a"
3, 6816, Text_t, " word"
3, 6840, Text_t, " in"
3, 6888, Text_t, " Span"
3, 6936, Text_t, "ish"
3, 7080, Text_t, " I"
3, 7152, Text_t, " don't"
3, 7176, Text_t, " un"
3, 7224, Text_t, "der"
3, 7272, Text_t, "stand."
3, 7416, Text_t, "/But"
3, 7440, Text_t, " I"
3, 7464, Text_t, " heard"
3, 7536, Text_t, " it"
3, 7560, Text_t, " in"
3, 7608, Text_t, " a"
3, 7656, Text_t, " film"
3, 7704, Text_t, " one"
3, 7752, Text_t, " time"
3, 7872, Text_t, "/spo"
3, 7920, Text_t, "ken"
3, 7944, Text_t, " by"
3, 7992, Text_t, " the"
3, 8040, Text_t, " lead"
3, 8088, Text_t, "ing"
3, 8136, Text_t, " man."
3, 8496, Text_t, "\\He"
3, 8520, Text_t, " said"
3, 8544, Text_t, " it"
3, 8568, Text_t, " with"
3, 8592, Text_t, " de"
3, 8616, Text_t, "vo"
3, 8688, Text_t, "tion,"
3, 8808, Text_t, "/he "
3, 8832, Text_t, "sound"
3, 8880, Text_t, "ed"
3, 8904, Text_t, " so"
3, 8952, Text_t, " sin"
3, 9000, Text_t, "cere."
3, 9144, Text_t, "\\And"
3, 9168, Text_t, " the"
3, 9192, Text_t, " words"
3, 9264, Text_t, " he "
3, 9288, Text_t, "spoke"
3, 9336, Text_t, " in"
3, 9384, Text_t, " Span"
3, 9432, Text_t, "ish"
3, 9528, Text_t, "/brought"
3, 9552, Text_t, " the"
3, 9576, Text_t, " fe"
3, 9648, Text_t, "male"
3, 9672, Text_t, " lead"
3, 9744, Text_t, " to"
3, 9768, Text_t, " tears."
3, 10056, Text_t, "/A "
3, 10080, Text_t, "word"
3, 10128, Text_t, " in"
3, 10176, Text_t, " Span"
3, 10248, Text_t, "ish,"
3, 10824, Text_t, " a"
3, 10848, Text_t, " word"
3, 10896, Text_t, " in"
3, 10944, Text_t, " Span"
3, 11012, Text_t, "ish."
3, 11327, Text_t, "\\If"
3, 11376, Text_t, " you"
3, 11424, Text_t, " can't"
3, 11472, Text_t, " com"
3, 11496, Text_t, "pre"
3, 11568, Text_t, "hend,"
3, 11712, Text_t, "/read"
3, 11760, Text_t, " it"
3, 11784, Text_t, " in"
3, 11832, Text_t, " my"
3, 11880, Text_t, " eyes."
3, 12072, Text_t, "\\If"
3, 12096, Text_t, " you"
3, 12120, Text_t, " don't"
3, 12168, Text_t, " un"
3, 12216, Text_t, "der"
3, 12264, Text_t, "stand"
3, 12312, Text_t, " it's"
3, 12360, Text_t, " love"
3, 12480, Text_t, "/in"
3, 12504, Text_t, " a"
3, 12552, Text_t, " thin"
3, 12600, Text_t, " dis"
3, 12648, Text_t, "guise."
3, 12840, Text_t, "\\And"
3, 12864, Text_t, " what"
3, 12888, Text_t, " it"
3, 12936, Text_t, " takes"
3, 12984, Text_t, " to"
3, 13032, Text_t, " move"
3, 13080, Text_t, " you"
3, 13224, Text_t, "/each"
3, 13248, Text_t, " time"
3, 13296, Text_t, " that"
3, 13320, Text_t, " you"
3, 13368, Text_t, " re"
3, 13416, Text_t, "sist,"
3, 13608, Text_t, "\\Is"
3, 13632, Text_t, " more"
3, 13680, Text_t, " than"
3, 13728, Text_t, " just"
3, 13776, Text_t, " a"
3, 13800, Text_t, " pret"
3, 13848, Text_t, "ty"
3, 13896, Text_t, " face"
3, 13992, Text_t, "/to"
3, 14016, Text_t, " prove"
3, 14064, Text_t, " that"
3, 14088, Text_t, " I"
3, 14136, Text_t, " ex"
3, 14184, Text_t, "ist."
3, 14256, Text_t, "\\If"
3, 14280, Text_t, " I"
3, 14304, Text_t, " on"
3, 14328, Text_t, "ly"
3, 14352, Text_t, " could"
3, 14402, Text_t, " tell"
3, 14474, Text_t, " you,"
3, 14640, Text_t, "/if "
3, 14664, Text_t, "you"
3, 14688, Text_t, " on"
3, 14712, Text_t, "ly"
3, 14736, Text_t, " would"
3, 14786, Text_t, " lis"
3, 14858, Text_t, "ten."
3, 15096, Text_t, "\\I've"
3, 15120, Text_t, " got"
3, 15144, Text_t, " a"
3, 15168, Text_t, " line"
3, 15216, Text_t, " or"
3, 15264, Text_t, " two"
3, 15312, Text_t, " to"
3, 15336, Text_t, " use"
3, 15384, Text_t, " on"
3, 15432, Text_t, " you,"
3, 15840, Text_t, "/I've"
3, 15864, Text_t, " got"
3, 15912, Text_t, " a"
3, 15938, Text_t, " ro"
3, 15984, Text_t, "mance"
3, 16034, Text_t, " we"
3, 16080, Text_t, " could"
3, 16104, Text_t, " chris"
3, 16152, Text_t, "ten."
3, 16536, Text_t, "\\And"
3, 16560, Text_t, " there's "
3, 16584, Text_t, "a"
3, 16608, Text_t, " word"
3, 16632, Text_t, " in"
3, 16680, Text_t, " Span"
3, 16728, Text_t, "ish"
3, 16872, Text_t, "/I"
3, 16944, Text_t, " don't"
3, 16968, Text_t, " un"
3, 17016, Text_t, "der"
3, 17064, Text_t, "stand."
3, 17208, Text_t, "\\But"
3, 17232, Text_t, " I"
3, 17256, Text_t, " heard"
3, 17328, Text_t, " it"
3, 17352, Text_t, " in"
3, 17400, Text_t, " a"
3, 17448, Text_t, " film"
3, 17496, Text_t, " one"
3, 17544, Text_t, " time"
3, 17664, Text_t, "/spo"
3, 17712, Text_t, "ken"
3, 17736, Text_t, " by"
3, 17784, Text_t, " the"
3, 17832, Text_t, " lead"
3, 17880, Text_t, "ing"
3, 17928, Text_t, " man."
3, 18264, Text_t, "\\He"
3, 18288, Text_t, " said"
3, 18312, Text_t, " it"
3, 18336, Text_t, " with"
3, 18360, Text_t, " de"
3, 18408, Text_t, "vo"
3, 18479, Text_t, "tion,"
3, 18600, Text_t, "/he "
3, 18624, Text_t, "sound"
3, 18672, Text_t, "ed"
3, 18696, Text_t, " so"
3, 18744, Text_t, " sin"
3, 18792, Text_t, "cere."
3, 18936, Text_t, "\\And"
3, 18960, Text_t, " the"
3, 18984, Text_t, " words"
3, 19056, Text_t, " he "
3, 19080, Text_t, "spoke"
3, 19128, Text_t, " in"
3, 19176, Text_t, " Span"
3, 19224, Text_t, "ish"
3, 19320, Text_t, "/brought"
3, 19344, Text_t, " the"
3, 19368, Text_t, " fe"
3, 19440, Text_t, "male"
3, 19464, Text_t, " lead"
3, 19536, Text_t, " to"
3, 19560, Text_t, " tears."
3, 19848, Text_t, "/A "
3, 19872, Text_t, "word"
3, 19920, Text_t, " in"
3, 19968, Text_t, " Span"
3, 20040, Text_t, "ish,"
3, 20616, Text_t, " a"
3, 20640, Text_t, " word"
3, 20688, Text_t, " in"
3, 20736, Text_t, " Span"
3, 20804, Text_t, "ish."
3, 21072, Text_t, "\\When"
3, 21120, Text_t, " man"
3, 21168, Text_t, "ners"
3, 21192, Text_t, " make"
3, 21240, Text_t, " no"
3, 21288, Text_t, " dif"
3, 21336, Text_t, "ference"
3, 21432, Text_t, "/and "
3, 21456, Text_t, "my"
3, 21504, Text_t, " gifts"
3, 21552, Text_t, " all"
3, 21576, Text_t, " lay"
3, 21624, Text_t, " un"
3, 21672, Text_t, "done,"
3, 21744, Text_t, " "
3, 21864, Text_t, "\\I"
3, 21888, Text_t, " trade"
3, 21936, Text_t, " my"
3, 21960, Text_t, " ac"
3, 22008, Text_t, "cent"
3, 22056, Text_t, " in"
3, 22104, Text_t, " on"
3, 22152, Text_t, " chance"
3, 22248, Text_t, "/and"
3, 22274, Text_t, " fall"
3, 22320, Text_t, " back"
3, 22392, Text_t, " on"
3, 22416, Text_t, " a"
3, 22440, Text_t, " for"
3, 22488, Text_t, "eign"
3, 22536, Text_t, " tongue."
3, 27120, Text_t, "\\There's "
3, 27144, Text_t, "a"
3, 27168, Text_t, " word"
3, 27192, Text_t, " in"
3, 27240, Text_t, " Span"
3, 27288, Text_t, "ish"
3, 27432, Text_t, "/I"
3, 27504, Text_t, " don't"
3, 27528, Text_t, " un"
3, 27576, Text_t, "der"
3, 27624, Text_t, "stand."
3, 27768, Text_t, "\\But"
3, 27792, Text_t, " I"
3, 27816, Text_t, " heard"
3, 27888, Text_t, " it"
3, 27912, Text_t, " in"
3, 27960, Text_t, " a"
3, 28008, Text_t, " film"
3, 28056, Text_t, " one"
3, 28104, Text_t, " time"
3, 28224, Text_t, "/spo"
3, 28272, Text_t, "ken"
3, 28296, Text_t, " by"
3, 28344, Text_t, " the"
3, 28392, Text_t, " lead"
3, 28440, Text_t, "ing"
3, 28488, Text_t, " man."
3, 28824, Text_t, "\\He"
3, 28848, Text_t, " said"
3, 28872, Text_t, " it"
3, 28896, Text_t, " with"
3, 28920, Text_t, " de"
3, 28968, Text_t, "vo"
3, 29040, Text_t, "tion,"
3, 29160, Text_t, "/he"
3, 29184, Text_t, " sound"
3, 29232, Text_t, "ed"
3, 29256, Text_t, " so"
3, 29304, Text_t, " sin"
3, 29352, Text_t, "cere."
3, 29496, Text_t, "\\And"
3, 29520, Text_t, " the"
3, 29544, Text_t, " words"
3, 29616, Text_t, " he "
3, 29640, Text_t, "spoke"
3, 29688, Text_t, " in"
3, 29736, Text_t, " Span"
3, 29784, Text_t, "ish"
3, 29880, Text_t, "/brought"
3, 29904, Text_t, " the"
3, 29928, Text_t, " fe"
3, 30000, Text_t, "male"
3, 30024, Text_t, " lead"
3, 30096, Text_t, " to"
3, 30120, Text_t, " tears."
3, 30408, Text_t, "\\A "
3, 30432, Text_t, "word"
3, 30480, Text_t, " in"
3, 30528, Text_t, " Span"
3, 30600, Text_t, "ish,"
3, 31176, Text_t, " a"
3, 31200, Text_t, " word"
3, 31248, Text_t, " in"
3, 31296, Text_t, " Span"
3, 31368, Text_t, "ish."
3, 31896, Text_t, "/There's"
3, 31920, Text_t, " a"
3, 31944, Text_t, " word"
3, 31992, Text_t, " in"
3, 32040, Text_t, " Span"
3, 32088, Text_t, "ish,"
3, 32710, Text_t, " a"
3, 32736, Text_t, " word"
3, 32784, Text_t, " in"
3, 32832, Text_t, " Span"
3, 32904, Text_t, "ish."
3, 32904, End_track
4, 0, Start_track
4, 0, MIDI_port, 0
4, 0, Title_t, "Melody"
4, 0, Program_c, 0, 24
4, 0, Control_c, 0, 7, 127
4, 0, Control_c, 0, 10, 64
4, 1536, Control_c, 0, 91, 125
4, 1536, Control_c, 0, 93, 110
4, 1538, Note_on_c, 0, 57, 73
4, 1601, Note_on_c, 0, 57, 0
4, 1608, Note_on_c, 0, 59, 64
4, 1640, Note_on_c, 0, 59, 0
4, 1656, Note_on_c, 0, 62, 73
4, 1677, Note_on_c, 0, 62, 0
4, 1704, Note_on_c, 0, 66, 82
4, 1752, Note_on_c, 0, 64, 56
4, 1757, Note_on_c, 0, 66, 0
4, 1772, Note_on_c, 0, 64, 0
4, 1776, Note_on_c, 0, 62, 56
4, 1886, Note_on_c, 0, 62, 0
4, 1920, Note_on_c, 0, 59, 64
4, 1961, Note_on_c, 0, 59, 0
4, 1968, Note_on_c, 0, 62, 73
4, 1984, Note_on_c, 0, 62, 0
4, 1992, Note_on_c, 0, 64, 60
4, 2021, Note_on_c, 0, 64, 0
4, 2040, Note_on_c, 0, 66, 60
4, 2067, Note_on_c, 0, 66, 0
4, 2088, Note_on_c, 0, 64, 73
4, 2202, Note_on_c, 0, 64, 0
4, 2304, Note_on_c, 0, 60, 64
4, 2330, Note_on_c, 0, 60, 0
4, 2352, Note_on_c, 0, 60, 64
4, 2372, Note_on_c, 0, 60, 0
4, 2376, Note_on_c, 0, 57, 73
4, 2393, Note_on_c, 0, 57, 0
4, 2400, Note_on_c, 0, 60, 60
4, 2422, Note_on_c, 0, 60, 0
4, 2424, Note_on_c, 0, 62, 73
4, 2447, Note_on_c, 0, 62, 0
4, 2472, Note_on_c, 0, 65, 82
4, 2520, Pitch_bend_c, 0, 8064
4, 2520, Pitch_bend_c, 0, 7936
4, 2520, Pitch_bend_c, 0, 7808
4, 2520, Pitch_bend_c, 0, 7680
4, 2520, Pitch_bend_c, 0, 7552
4, 2520, Pitch_bend_c, 0, 7424
4, 2520, Pitch_bend_c, 0, 7296
4, 2520, Pitch_bend_c, 0, 7168
4, 2520, Pitch_bend_c, 0, 7040
4, 2520, Pitch_bend_c, 0, 6912
4, 2520, Pitch_bend_c, 0, 6784
4, 2520, Pitch_bend_c, 0, 6656
4, 2520, Pitch_bend_c, 0, 6528
4, 2520, Pitch_bend_c, 0, 6400
4, 2544, Pitch_bend_c, 0, 6272
4, 2544, Pitch_bend_c, 0, 6144
4, 2544, Pitch_bend_c, 0, 6016
4, 2544, Pitch_bend_c, 0, 5888
4, 2544, Pitch_bend_c, 0, 5760
4, 2544, Pitch_bend_c, 0, 5632
4, 2544, Pitch_bend_c, 0, 5504
4, 2544, Pitch_bend_c, 0, 5376
4, 2544, Pitch_bend_c, 0, 5248
4, 2544, Pitch_bend_c, 0, 4992
4, 2544, Pitch_bend_c, 0, 4864
4, 2544, Pitch_bend_c, 0, 4608
4, 2544, Pitch_bend_c, 0, 4480
4, 2544, Pitch_bend_c, 0, 4352
4, 2544, Pitch_bend_c, 0, 4224
4, 2544, Pitch_bend_c, 0, 4480
4, 2544, Pitch_bend_c, 0, 5376
4, 2544, Pitch_bend_c, 0, 6656
4, 2544, Pitch_bend_c, 0, 8192
4, 2566, Note_on_c, 0, 65, 0
4, 2640, Note_on_c, 0, 57, 56
4, 2656, Note_on_c, 0, 57, 0
4, 2664, Note_on_c, 0, 57, 73
4, 2677, Note_on_c, 0, 57, 0
4, 2688, Note_on_c, 0, 59, 73
4, 2718, Note_on_c, 0, 59, 0
4, 2736, Note_on_c, 0, 62, 64
4, 2778, Note_on_c, 0, 62, 0
4, 2784, Note_on_c, 0, 64, 73
4, 2799, Note_on_c, 0, 64, 0
4, 2808, Note_on_c, 0, 66, 73
4, 2829, Note_on_c, 0, 66, 0
4, 2856, Note_on_c, 0, 66, 82
4, 3011, Note_on_c, 0, 66, 0
4, 3072, Note_on_c, 0, 57, 73
4, 3102, Note_on_c, 0, 57, 0
4, 3120, Note_on_c, 0, 57, 64
4, 3138, Note_on_c, 0, 57, 0
4, 3144, Note_on_c, 0, 59, 64
4, 3178, Note_on_c, 0, 59, 0
4, 3192, Note_on_c, 0, 62, 73
4, 3218, Note_on_c, 0, 62, 0
4, 3240, Note_on_c, 0, 66, 82
4, 3277, Note_on_c, 0, 66, 0
4, 3288, Note_on_c, 0, 57, 60
4, 3336, Pitch_bend_c, 0, 8064
4, 3336, Pitch_bend_c, 0, 7808
4, 3336, Pitch_bend_c, 0, 7680
4, 3336, Pitch_bend_c, 0, 7552
4, 3336, Pitch_bend_c, 0, 7424
4, 3336, Pitch_bend_c, 0, 7296
4, 3336, Pitch_bend_c, 0, 7168
4, 3336, Pitch_bend_c, 0, 7040
4, 3336, Pitch_bend_c, 0, 6912
4, 3336, Pitch_bend_c, 0, 6784
4, 3336, Pitch_bend_c, 0, 6656
4, 3336, Pitch_bend_c, 0, 6528
4, 3336, Pitch_bend_c, 0, 6400
4, 3360, Pitch_bend_c, 0, 6272
4, 3360, Pitch_bend_c, 0, 6144
4, 3360, Pitch_bend_c, 0, 6016
4, 3360, Pitch_bend_c, 0, 5888
4, 3360, Pitch_bend_c, 0, 5760
4, 3360, Pitch_bend_c, 0, 5632
4, 3360, Pitch_bend_c, 0, 5504
4, 3360, Pitch_bend_c, 0, 5376
4, 3360, Pitch_bend_c, 0, 5248
4, 3360, Pitch_bend_c, 0, 5120
4, 3360, Pitch_bend_c, 0, 4992
4, 3360, Pitch_bend_c, 0, 4864
4, 3360, Pitch_bend_c, 0, 4736
4, 3360, Pitch_bend_c, 0, 4608
4, 3360, Pitch_bend_c, 0, 4480
4, 3360, Pitch_bend_c, 0, 4864
4, 3360, Pitch_bend_c, 0, 5760
4, 3360, Pitch_bend_c, 0, 7168
4, 3360, Pitch_bend_c, 0, 8192
4, 3384, Note_on_c, 0, 57, 0
4, 3432, Note_on_c, 0, 57, 73
4, 3447, Note_on_c, 0, 57, 0
4, 3456, Note_on_c, 0, 59, 73
4, 3480, Note_on_c, 0, 62, 73
4, 3482, Note_on_c, 0, 59, 0
4, 3504, Note_on_c, 0, 62, 0
4, 3528, Note_on_c, 0, 64, 64
4, 3558, Note_on_c, 0, 64, 0
4, 3576, Note_on_c, 0, 66, 91
4, 3598, Note_on_c, 0, 66, 0
4, 3624, Note_on_c, 0, 64, 82
4, 3720, Note_on_c, 0, 64, 0
4, 3816, Note_on_c, 0, 57, 56
4, 3837, Note_on_c, 0, 57, 0
4, 3840, Note_on_c, 0, 60, 73
4, 3873, Note_on_c, 0, 60, 0
4, 3888, Note_on_c, 0, 60, 64
4, 3903, Note_on_c, 0, 60, 0
4, 3912, Note_on_c, 0, 60, 64
4, 3945, Note_on_c, 0, 60, 0
4, 3960, Note_on_c, 0, 62, 73
4, 3982, Note_on_c, 0, 62, 0
4, 4008, Note_on_c, 0, 65, 60
4, 4079, Note_on_c, 0, 64, 77
4, 4081, Note_on_c, 0, 65, 0
4, 4131, Note_on_c, 0, 64, 0
4, 4199, Note_on_c, 0, 59, 80
4, 4220, Note_on_c, 0, 59, 0
4, 4224, Note_on_c, 0, 60, 73
4, 4245, Note_on_c, 0, 60, 0
4, 4248, Note_on_c, 0, 62, 64
4, 4272, Note_on_c, 0, 62, 0
4, 4296, Note_on_c, 0, 64, 73
4, 4326, Note_on_c, 0, 64, 0
4, 4344, Note_on_c, 0, 66, 82
4, 4369, Note_on_c, 0, 66, 0
4, 4392, Note_on_c, 0, 64, 73
4, 4441, Note_on_c, 0, 64, 0
4, 4464, Note_on_c, 0, 57, 82
4, 4484, Note_on_c, 0, 57, 0
4, 4488, Note_on_c, 0, 57, 64
4, 4508, Note_on_c, 0, 57, 0
4, 4512, Note_on_c, 0, 59, 82
4, 4532, Note_on_c, 0, 59, 0
4, 4536, Note_on_c, 0, 62, 60
4, 4556, Note_on_c, 0, 62, 0
4, 4560, Note_on_c, 0, 62, 73
4, 4593, Note_on_c, 0, 62, 0
4, 4611, Note_on_c, 0, 64, 73
4, 4674, Note_on_c, 0, 64, 0
4, 4682, Note_on_c, 0, 62, 73
4, 4810, Note_on_c, 0, 62, 0
4, 4848, Note_on_c, 0, 57, 82
4, 4860, Note_on_c, 0, 57, 0
4, 4872, Note_on_c, 0, 57, 56
4, 4884, Note_on_c, 0, 57, 0
4, 4896, Note_on_c, 0, 59, 73
4, 4917, Note_on_c, 0, 59, 0
4, 4920, Note_on_c, 0, 62, 64
4, 4933, Note_on_c, 0, 62, 0
4, 4944, Note_on_c, 0, 62, 73
4, 4964, Note_on_c, 0, 62, 0
4, 4968, Note_on_c, 0, 59, 64
4, 4981, Note_on_c, 0, 59, 0
4, 4994, Note_on_c, 0, 66, 82
4, 5062, Note_on_c, 0, 66, 0
4, 5067, Note_on_c, 0, 64, 82
4, 5088, Pitch_bend_c, 0, 8064
4, 5088, Pitch_bend_c, 0, 7936
4, 5112, Pitch_bend_c, 0, 7808
4, 5112, Pitch_bend_c, 0, 7680
4, 5112, Pitch_bend_c, 0, 7552
4, 5112, Pitch_bend_c, 0, 7424
4, 5112, Pitch_bend_c, 0, 7296
4, 5112, Pitch_bend_c, 0, 7168
4, 5112, Pitch_bend_c, 0, 7040
4, 5112, Pitch_bend_c, 0, 6912
4, 5112, Pitch_bend_c, 0, 6784
4, 5112, Pitch_bend_c, 0, 6656
4, 5112, Pitch_bend_c, 0, 6528
4, 5112, Pitch_bend_c, 0, 6400
4, 5112, Pitch_bend_c, 0, 6272
4, 5112, Pitch_bend_c, 0, 6144
4, 5112, Pitch_bend_c, 0, 6016
4, 5112, Pitch_bend_c, 0, 5888
4, 5112, Pitch_bend_c, 0, 5760
4, 5112, Pitch_bend_c, 0, 5632
4, 5112, Pitch_bend_c, 0, 5504
4, 5112, Pitch_bend_c, 0, 5376
4, 5112, Pitch_bend_c, 0, 5248
4, 5112, Pitch_bend_c, 0, 5120
4, 5112, Pitch_bend_c, 0, 4992
4, 5136, Pitch_bend_c, 0, 4736
4, 5136, Pitch_bend_c, 0, 4608
4, 5136, Pitch_bend_c, 0, 4480
4, 5136, Pitch_bend_c, 0, 4352
4, 5136, Pitch_bend_c, 0, 4224
4, 5136, Pitch_bend_c, 0, 4096
4, 5136, Pitch_bend_c, 0, 3968
4, 5136, Pitch_bend_c, 0, 4224
4, 5136, Pitch_bend_c, 0, 4864
4, 5136, Pitch_bend_c, 0, 6016
4, 5136, Pitch_bend_c, 0, 7680
4, 5136, Pitch_bend_c, 0, 8192
4, 5147, Note_on_c, 0, 64, 0
4, 5304, Note_on_c, 0, 62, 73
4, 5318, Note_on_c, 0, 62, 0
4, 5328, Note_on_c, 0, 62, 64
4, 5338, Note_on_c, 0, 62, 0
4, 5352, Note_on_c, 0, 62, 64
4, 5366, Note_on_c, 0, 62, 0
4, 5376, Note_on_c, 0, 66, 82
4, 5413, Note_on_c, 0, 66, 0
4, 5424, Note_on_c, 0, 64, 73
4, 5449, Note_on_c, 0, 64, 0
4, 5472, Note_on_c, 0, 62, 82
4, 5515, Note_on_c, 0, 62, 0
4, 5520, Note_on_c, 0, 59, 64
4, 5541, Note_on_c, 0, 59, 0
4, 5544, Note_on_c, 0, 62, 82
4, 5579, Note_on_c, 0, 62, 0
4, 5592, Note_on_c, 0, 66, 91
4, 5619, Note_on_c, 0, 66, 0
4, 5640, Note_on_c, 0, 64, 82
4, 5786, Note_on_c, 0, 64, 0
4, 6048, Note_on_c, 0, 59, 73
4, 6068, Note_on_c, 0, 59, 0
4, 6072, Note_on_c, 0, 62, 73
4, 6094, Note_on_c, 0, 62, 0
4, 6120, Note_on_c, 0, 62, 73
4, 6134, Note_on_c, 0, 62, 0
4, 6146, Note_on_c, 0, 66, 82
4, 6189, Note_on_c, 0, 66, 0
4, 6192, Note_on_c, 0, 64, 64
4, 6218, Note_on_c, 0, 64, 0
4, 6242, Note_on_c, 0, 62, 73
4, 6282, Note_on_c, 0, 62, 0
4, 6288, Note_on_c, 0, 59, 56
4, 6304, Note_on_c, 0, 59, 0
4, 6312, Note_on_c, 0, 64, 82
4, 6341, Note_on_c, 0, 64, 0
4, 6360, Note_on_c, 0, 62, 73
4, 6501, Note_on_c, 0, 62, 0
4, 6768, Note_on_c, 0, 61, 73
4, 6784, Note_on_c, 0, 61, 0
4, 6792, Note_on_c, 0, 61, 64
4, 6805, Note_on_c, 0, 61, 0
4, 6816, Note_on_c, 0, 62, 73
4, 6837, Note_on_c, 0, 62, 0
4, 6840, Note_on_c, 0, 64, 73
4, 6867, Note_on_c, 0, 64, 0
4, 6888, Note_on_c, 0, 65, 73
4, 6933, Note_on_c, 0, 65, 0
4, 6936, Note_on_c, 0, 65, 64
4, 7013, Note_on_c, 0, 65, 0
4, 7080, Note_on_c, 0, 65, 82
4, 7152, Note_on_c, 0, 64, 73
4, 7154, Note_on_c, 0, 65, 0
4, 7166, Note_on_c, 0, 64, 0
4, 7176, Note_on_c, 0, 64, 64
4, 7219, Note_on_c, 0, 64, 0
4, 7224, Note_on_c, 0, 62, 73
4, 7253, Note_on_c, 0, 62, 0
4, 7272, Note_on_c, 0, 64, 91
4, 7320, Pitch_bend_c, 0, 8064
4, 7320, Pitch_bend_c, 0, 7808
4, 7320, Pitch_bend_c, 0, 7680
4, 7320, Pitch_bend_c, 0, 7552
4, 7320, Pitch_bend_c, 0, 7424
4, 7320, Pitch_bend_c, 0, 7296
4, 7320, Pitch_bend_c, 0, 7168
4, 7320, Pitch_bend_c, 0, 6912
4, 7320, Pitch_bend_c, 0, 6784
4, 7320, Pitch_bend_c, 0, 6656
4, 7320, Pitch_bend_c, 0, 6400
4, 7320, Pitch_bend_c, 0, 6272
4, 7344, Pitch_bend_c, 0, 6144
4, 7344, Pitch_bend_c, 0, 6016
4, 7344, Pitch_bend_c, 0, 5888
4, 7344, Pitch_bend_c, 0, 5760
4, 7344, Pitch_bend_c, 0, 5504
4, 7344, Pitch_bend_c, 0, 5248
4, 7344, Pitch_bend_c, 0, 4992
4, 7344, Pitch_bend_c, 0, 4736
4, 7344, Pitch_bend_c, 0, 4480
4, 7344, Pitch_bend_c, 0, 4352
4, 7344, Pitch_bend_c, 0, 4224
4, 7344, Pitch_bend_c, 0, 4096
4, 7344, Pitch_bend_c, 0, 3968
4, 7344, Pitch_bend_c, 0, 3712
4, 7344, Pitch_bend_c, 0, 3456
4, 7344, Pitch_bend_c, 0, 3200
4, 7344, Pitch_bend_c, 0, 2816
4, 7344, Pitch_bend_c, 0, 2688
4, 7344, Pitch_bend_c, 0, 2432
4, 7344, Pitch_bend_c, 0, 2304
4, 7344, Pitch_bend_c, 0, 2176
4, 7344, Pitch_bend_c, 0, 1920
4, 7344, Pitch_bend_c, 0, 1792
4, 7344, Pitch_bend_c, 0, 1536
4, 7344, Pitch_bend_c, 0, 1408
4, 7344, Pitch_bend_c, 0, 1280
4, 7344, Pitch_bend_c, 0, 1152
4, 7344, Pitch_bend_c, 0, 1024
4, 7344, Pitch_bend_c, 0, 768
4, 7344, Pitch_bend_c, 0, 640
4, 7359, Note_on_c, 0, 64, 0
4, 7368, Pitch_bend_c, 0, 512
4, 7368, Pitch_bend_c, 0, 256
4, 7368, Pitch_bend_c, 0, 1024
4, 7368, Pitch_bend_c, 0, 2304
4, 7368, Pitch_bend_c, 0, 3584
4, 7368, Pitch_bend_c, 0, 4992
4, 7368, Pitch_bend_c, 0, 6656
4, 7368, Pitch_bend_c, 0, 8192
4, 7416, Note_on_c, 0, 60, 44
4, 7437, Note_on_c, 0, 60, 0
4, 7440, Note_on_c, 0, 62, 60
4, 7457, Note_on_c, 0, 62, 0
4, 7464, Note_on_c, 0, 64, 82
4, 7532, Note_on_c, 0, 64, 0
4, 7536, Note_on_c, 0, 62, 73
4, 7548, Note_on_c, 0, 62, 0
4, 7560, Note_on_c, 0, 62, 73
4, 7608, Note_on_c, 0, 60, 73
4, 7609, Note_on_c, 0, 62, 0
4, 7638, Note_on_c, 0, 60, 0
4, 7656, Note_on_c, 0, 62, 73
4, 7700, Note_on_c, 0, 62, 0
4, 7704, Note_on_c, 0, 62, 73
4, 7734, Note_on_c, 0, 62, 0
4, 7752, Note_on_c, 0, 62, 64
4, 7813, Note_on_c, 0, 62, 0
4, 7872, Note_on_c, 0, 62, 73
4, 7917, Note_on_c, 0, 62, 0
4, 7920, Note_on_c, 0, 60, 64
4, 7937, Note_on_c, 0, 60, 0
4, 7944, Note_on_c, 0, 60, 73
4, 7976, Note_on_c, 0, 60, 0
4, 7992, Note_on_c, 0, 59, 73
4, 8016, Note_on_c, 0, 59, 0
4, 8040, Note_on_c, 0, 59, 73
4, 8085, Note_on_c, 0, 59, 0
4, 8088, Note_on_c, 0, 60, 73
4, 8118, Note_on_c, 0, 60, 0
4, 8136, Note_on_c, 0, 57, 82
4, 8255, Note_on_c, 0, 57, 0
4, 8496, Note_on_c, 0, 61, 82
4, 8511, Note_on_c, 0, 61, 0
4, 8520, Note_on_c, 0, 61, 73
4, 8534, Note_on_c, 0, 61, 0
4, 8544, Note_on_c, 0, 62, 73
4, 8557, Note_on_c, 0, 62, 0
4, 8568, Note_on_c, 0, 62, 64
4, 8584, Note_on_c, 0, 62, 0
4, 8592, Note_on_c, 0, 64, 73
4, 8607, Note_on_c, 0, 64, 0
4, 8616, Note_on_c, 0, 65, 73
4, 8685, Note_on_c, 0, 65, 0
4, 8688, Note_on_c, 0, 65, 78
4, 8739, Note_on_c, 0, 65, 0
4, 8808, Note_on_c, 0, 62, 60
4, 8823, Note_on_c, 0, 62, 0
4, 8832, Note_on_c, 0, 65, 73
4, 8874, Note_on_c, 0, 65, 0
4, 8880, Note_on_c, 0, 64, 64
4, 8894, Note_on_c, 0, 64, 0
4, 8904, Note_on_c, 0, 64, 64
4, 8939, Note_on_c, 0, 64, 0
4, 8952, Note_on_c, 0, 62, 64
4, 8978, Note_on_c, 0, 62, 0
4, 9000, Note_on_c, 0, 64, 64
4, 9081, Note_on_c, 0, 64, 0
4, 9144, Note_on_c, 0, 60, 64
4, 9167, Note_on_c, 0, 60, 0
4, 9168, Note_on_c, 0, 62, 64
4, 9182, Note_on_c, 0, 62, 0
4, 9192, Note_on_c, 0, 64, 64
4, 9252, Note_on_c, 0, 64, 0
4, 9264, Note_on_c, 0, 62, 56
4, 9278, Note_on_c, 0, 62, 0
4, 9288, Note_on_c, 0, 62, 60
4, 9328, Note_on_c, 0, 62, 0
4, 9336, Note_on_c, 0, 60, 56
4, 9363, Note_on_c, 0, 60, 0
4, 9384, Note_on_c, 0, 62, 60
4, 9418, Note_on_c, 0, 62, 0
4, 9432, Note_on_c, 0, 62, 64
4, 9502, Note_on_c, 0, 62, 0
4, 9528, Note_on_c, 0, 59, 64
4, 9547, Note_on_c, 0, 59, 0
4, 9552, Note_on_c, 0, 60, 60
4, 9568, Note_on_c, 0, 60, 0
4, 9576, Note_on_c, 0, 62, 73
4, 9637, Note_on_c, 0, 62, 0
4, 9648, Note_on_c, 0, 60, 56
4, 9662, Note_on_c, 0, 60, 0
4, 9672, Note_on_c, 0, 60, 73
4, 9733, Note_on_c, 0, 60, 0
4, 9744, Note_on_c, 0, 59, 73
4, 9763, Note_on_c, 0, 59, 0
4, 9768, Note_on_c, 0, 57, 73
4, 9837, Note_on_c, 0, 57, 0
4, 10056, Note_on_c, 0, 52, 64
4, 10075, Note_on_c, 0, 52, 0
4, 10080, Note_on_c, 0, 62, 73
4, 10120, Note_on_c, 0, 62, 0
4, 10128, Note_on_c, 0, 60, 64
4, 10157, Note_on_c, 0, 60, 0
4, 10176, Note_on_c, 0, 59, 82
4, 10237, Note_on_c, 0, 59, 0
4, 10248, Note_on_c, 0, 60, 64
4, 10354, Note_on_c, 0, 60, 0
4, 10824, Note_on_c, 0, 52, 73
4, 10838, Note_on_c, 0, 52, 0
4, 10848, Note_on_c, 0, 62, 64
4, 10887, Note_on_c, 0, 62, 0
4, 10896, Note_on_c, 0, 60, 64
4, 10923, Note_on_c, 0, 60, 0
4, 10944, Note_on_c, 0, 59, 73
4, 11008, Note_on_c, 0, 59, 0
4, 11012, Note_on_c, 0, 57, 73
4, 11129, Note_on_c, 0, 57, 0
4, 11327, Note_on_c, 0, 57, 82
4, 11370, Note_on_c, 0, 57, 0
4, 11376, Note_on_c, 0, 57, 60
4, 11404, Note_on_c, 0, 57, 0
4, 11424, Note_on_c, 0, 59, 91
4, 11457, Note_on_c, 0, 59, 0
4, 11472, Note_on_c, 0, 62, 60
4, 11488, Note_on_c, 0, 62, 0
4, 11496, Note_on_c, 0, 66, 73
4, 11544, Note_on_c, 0, 64, 60
4, 11556, Note_on_c, 0, 66, 0
4, 11562, Note_on_c, 0, 64, 0
4, 11568, Note_on_c, 0, 62, 73
4, 11651, Note_on_c, 0, 62, 0
4, 11712, Note_on_c, 0, 59, 64
4, 11750, Note_on_c, 0, 59, 0
4, 11760, Note_on_c, 0, 62, 73
4, 11779, Note_on_c, 0, 62, 0
4, 11784, Note_on_c, 0, 64, 82
4, 11818, Note_on_c, 0, 64, 0
4, 11832, Note_on_c, 0, 66, 82
4, 11855, Note_on_c, 0, 66, 0
4, 11880, Note_on_c, 0, 64, 82
4, 11982, Note_on_c, 0, 64, 0
4, 12072, Note_on_c, 0, 55, 60
4, 12087, Note_on_c, 0, 55, 0
4, 12096, Note_on_c, 0, 60, 52
4, 12115, Note_on_c, 0, 60, 0
4, 12120, Note_on_c, 0, 60, 64
4, 12144, Note_on_c, 0, 60, 0
4, 12168, Note_on_c, 0, 60, 73
4, 12202, Note_on_c, 0, 60, 0
4, 12216, Note_on_c, 0, 62, 82
4, 12246, Note_on_c, 0, 62, 0
4, 12264, Note_on_c, 0, 65, 82
4, 12311, Note_on_c, 0, 65, 0
4, 12312, Note_on_c, 0, 64, 60
4, 12342, Note_on_c, 0, 64, 0
4, 12360, Note_on_c, 0, 64, 73
4, 12417, Note_on_c, 0, 64, 0
4, 12480, Note_on_c, 0, 59, 64
4, 12503, Note_on_c, 0, 59, 0
4, 12504, Note_on_c, 0, 62, 73
4, 12527, Note_on_c, 0, 62, 0
4, 12552, Note_on_c, 0, 64, 73
4, 12585, Note_on_c, 0, 64, 0
4, 12600, Note_on_c, 0, 66, 82
4, 12627, Note_on_c, 0, 66, 0
4, 12648, Note_on_c, 0, 64, 73
4, 12748, Note_on_c, 0, 64, 0
4, 12840, Note_on_c, 0, 55, 56
4, 12857, Note_on_c, 0, 55, 0
4, 12864, Note_on_c, 0, 57, 64
4, 12882, Note_on_c, 0, 57, 0
4, 12888, Note_on_c, 0, 57, 73
4, 12907, Note_on_c, 0, 57, 0
4, 12936, Note_on_c, 0, 59, 73
4, 12959, Note_on_c, 0, 59, 0
4, 12984, Note_on_c, 0, 62, 91
4, 13005, Note_on_c, 0, 62, 0
4, 13032, Note_on_c, 0, 65, 82
4, 13073, Note_on_c, 0, 65, 0
4, 13080, Note_on_c, 0, 64, 73
4, 13150, Note_on_c, 0, 64, 0
4, 13224, Note_on_c, 0, 57, 52
4, 13239, Note_on_c, 0, 57, 0
4, 13248, Note_on_c, 0, 59, 73
4, 13283, Note_on_c, 0, 59, 0
4, 13296, Note_on_c, 0, 62, 64
4, 13316, Note_on_c, 0, 62, 0
4, 13320, Note_on_c, 0, 64, 91
4, 13351, Note_on_c, 0, 64, 0
4, 13368, Note_on_c, 0, 66, 82
4, 13397, Note_on_c, 0, 66, 0
4, 13416, Note_on_c, 0, 64, 73
4, 13524, Note_on_c, 0, 64, 0
4, 13608, Note_on_c, 0, 55, 44
4, 13620, Note_on_c, 0, 55, 0
4, 13632, Note_on_c, 0, 60, 73
4, 13662, Note_on_c, 0, 60, 0
4, 13680, Note_on_c, 0, 60, 82
4, 13707, Note_on_c, 0, 60, 0
4, 13728, Note_on_c, 0, 60, 73
4, 13760, Note_on_c, 0, 60, 0
4, 13776, Note_on_c, 0, 62, 64
4, 13794, Note_on_c, 0, 62, 0
4, 13800, Note_on_c, 0, 65, 82
4, 13836, Note_on_c, 0, 65, 0
4, 13848, Note_on_c, 0, 64, 64
4, 13875, Note_on_c, 0, 64, 0
4, 13896, Note_on_c, 0, 64, 73
4, 13942, Note_on_c, 0, 64, 0
4, 13992, Note_on_c, 0, 57, 52
4, 14008, Note_on_c, 0, 57, 0
4, 14016, Pitch_bend_c, 0, 8192
4, 14016, Note_on_c, 0, 59, 60
4, 14046, Note_on_c, 0, 59, 0
4, 14064, Note_on_c, 0, 62, 73
4, 14081, Note_on_c, 0, 62, 0
4, 14088, Note_on_c, 0, 64, 64
4, 14122, Note_on_c, 0, 64, 0
4, 14136, Note_on_c, 0, 66, 73
4, 14160, Note_on_c, 0, 66, 0
4, 14184, Note_on_c, 0, 64, 82
4, 14227, Note_on_c, 0, 64, 0
4, 14256, Note_on_c, 0, 57, 91
4, 14269, Note_on_c, 0, 57, 0
4, 14280, Note_on_c, 0, 57, 73
4, 14297, Note_on_c, 0, 57, 0
4, 14304, Note_on_c, 0, 59, 64
4, 14317, Note_on_c, 0, 59, 0
4, 14328, Note_on_c, 0, 59, 82
4, 14343, Note_on_c, 0, 59, 0
4, 14352, Note_on_c, 0, 62, 82
4, 14382, Note_on_c, 0, 62, 0
4, 14402, Note_on_c, 0, 64, 91
4, 14466, Note_on_c, 0, 64, 0
4, 14474, Note_on_c, 0, 62, 82
4, 14594, Note_on_c, 0, 62, 0
4, 14640, Note_on_c, 0, 57, 56
4, 14655, Note_on_c, 0, 57, 0
4, 14664, Note_on_c, 0, 57, 64
4, 14682, Note_on_c, 0, 57, 0
4, 14688, Note_on_c, 0, 59, 73
4, 14699, Note_on_c, 0, 59, 0
4, 14712, Note_on_c, 0, 59, 64
4, 14729, Note_on_c, 0, 59, 0
4, 14736, Note_on_c, 0, 62, 82
4, 14769, Note_on_c, 0, 62, 0
4, 14786, Note_on_c, 0, 66, 82
4, 14844, Note_on_c, 0, 66, 0
4, 14858, Note_on_c, 0, 64, 91
4, 14904, Pitch_bend_c, 0, 8064
4, 14904, Pitch_bend_c, 0, 7936
4, 14904, Pitch_bend_c, 0, 7808
4, 14904, Pitch_bend_c, 0, 7680
4, 14904, Pitch_bend_c, 0, 7552
4, 14904, Pitch_bend_c, 0, 7424
4, 14904, Pitch_bend_c, 0, 7296
4, 14904, Pitch_bend_c, 0, 7168
4, 14904, Pitch_bend_c, 0, 7040
4, 14904, Pitch_bend_c, 0, 6912
4, 14928, Pitch_bend_c, 0, 6784
4, 14928, Pitch_bend_c, 0, 6528
4, 14928, Pitch_bend_c, 0, 6400
4, 14928, Pitch_bend_c, 0, 6272
4, 14928, Pitch_bend_c, 0, 6144
4, 14928, Pitch_bend_c, 0, 6016
4, 14928, Pitch_bend_c, 0, 5888
4, 14928, Pitch_bend_c, 0, 5760
4, 14928, Pitch_bend_c, 0, 5632
4, 14928, Pitch_bend_c, 0, 5504
4, 14928, Pitch_bend_c, 0, 5376
4, 14928, Pitch_bend_c, 0, 5248
4, 14928, Pitch_bend_c, 0, 5120
4, 14928, Pitch_bend_c, 0, 4864
4, 14928, Pitch_bend_c, 0, 4736
4, 14928, Pitch_bend_c, 0, 4608
4, 14928, Pitch_bend_c, 0, 4480
4, 14928, Pitch_bend_c, 0, 4352
4, 14928, Pitch_bend_c, 0, 4224
4, 14928, Pitch_bend_c, 0, 4096
4, 14928, Pitch_bend_c, 0, 3968
4, 14928, Pitch_bend_c, 0, 3840
4, 14928, Pitch_bend_c, 0, 3584
4, 14928, Pitch_bend_c, 0, 3456
4, 14928, Pitch_bend_c, 0, 3328
4, 14928, Pitch_bend_c, 0, 3072
4, 14928, Pitch_bend_c, 0, 2944
4, 14952, Pitch_bend_c, 0, 2816
4, 14952, Pitch_bend_c, 0, 2688
4, 14952, Pitch_bend_c, 0, 2560
4, 14952, Pitch_bend_c, 0, 2432
4, 14952, Pitch_bend_c, 0, 2304
4, 14952, Pitch_bend_c, 0, 2176
4, 14952, Pitch_bend_c, 0, 2048
4, 14952, Pitch_bend_c, 0, 1920
4, 14952, Pitch_bend_c, 0, 1792
4, 14952, Pitch_bend_c, 0, 1920
4, 14952, Pitch_bend_c, 0, 2048
4, 14952, Pitch_bend_c, 0, 2176
4, 14952, Pitch_bend_c, 0, 2304
4, 14952, Pitch_bend_c, 0, 2560
4, 14952, Pitch_bend_c, 0, 2816
4, 14952, Pitch_bend_c, 0, 3072
4, 14952, Pitch_bend_c, 0, 3584
4, 14952, Pitch_bend_c, 0, 4608
4, 14952, Pitch_bend_c, 0, 6016
4, 14952, Pitch_bend_c, 0, 7552
4, 14952, Pitch_bend_c, 0, 8192
4, 14958, Note_on_c, 0, 64, 0
4, 15096, Note_on_c, 0, 62, 82
4, 15110, Note_on_c, 0, 62, 0
4, 15120, Note_on_c, 0, 62, 73
4, 15131, Note_on_c, 0, 62, 0
4, 15144, Note_on_c, 0, 62, 64
4, 15158, Note_on_c, 0, 62, 0
4, 15168, Note_on_c, 0, 66, 91
4, 15203, Note_on_c, 0, 66, 0
4, 15216, Note_on_c, 0, 64, 82
4, 15244, Note_on_c, 0, 64, 0
4, 15264, Note_on_c, 0, 62, 82
4, 15296, Note_on_c, 0, 62, 0
4, 15312, Note_on_c, 0, 59, 73
4, 15329, Note_on_c, 0, 59, 0
4, 15336, Note_on_c, 0, 62, 60
4, 15368, Note_on_c, 0, 62, 0
4, 15384, Note_on_c, 0, 66, 82
4, 15413, Note_on_c, 0, 66, 0
4, 15432, Note_on_c, 0, 64, 91
4, 15504, Pitch_bend_c, 0, 8064
4, 15504, Pitch_bend_c, 0, 7936
4, 15504, Pitch_bend_c, 0, 7808
4, 15504, Pitch_bend_c, 0, 7680
4, 15504, Pitch_bend_c, 0, 7552
4, 15504, Pitch_bend_c, 0, 7424
4, 15504, Pitch_bend_c, 0, 7296
4, 15504, Pitch_bend_c, 0, 7168
4, 15504, Pitch_bend_c, 0, 7040
4, 15504, Pitch_bend_c, 0, 6912
4, 15504, Pitch_bend_c, 0, 6784
4, 15504, Pitch_bend_c, 0, 6656
4, 15504, Pitch_bend_c, 0, 6528
4, 15504, Pitch_bend_c, 0, 6400
4, 15504, Pitch_bend_c, 0, 6272
4, 15504, Pitch_bend_c, 0, 6144
4, 15504, Pitch_bend_c, 0, 6016
4, 15504, Pitch_bend_c, 0, 5888
4, 15504, Pitch_bend_c, 0, 5760
4, 15504, Pitch_bend_c, 0, 5632
4, 15504, Pitch_bend_c, 0, 5504
4, 15504, Pitch_bend_c, 0, 5376
4, 15504, Pitch_bend_c, 0, 5248
4, 15528, Pitch_bend_c, 0, 5120
4, 15528, Pitch_bend_c, 0, 4864
4, 15528, Pitch_bend_c, 0, 4736
4, 15528, Pitch_bend_c, 0, 4608
4, 15528, Pitch_bend_c, 0, 4352
4, 15528, Pitch_bend_c, 0, 4224
4, 15528, Pitch_bend_c, 0, 4096
4, 15528, Pitch_bend_c, 0, 3968
4, 15528, Pitch_bend_c, 0, 3840
4, 15528, Pitch_bend_c, 0, 3712
4, 15528, Pitch_bend_c, 0, 3584
4, 15528, Pitch_bend_c, 0, 3456
4, 15528, Pitch_bend_c, 0, 3584
4, 15528, Pitch_bend_c, 0, 3712
4, 15528, Pitch_bend_c, 0, 3840
4, 15528, Pitch_bend_c, 0, 3968
4, 15528, Pitch_bend_c, 0, 4096
4, 15528, Pitch_bend_c, 0, 4352
4, 15528, Pitch_bend_c, 0, 4480
4, 15528, Pitch_bend_c, 0, 4608
4, 15528, Pitch_bend_c, 0, 4736
4, 15528, Pitch_bend_c, 0, 4992
4, 15528, Pitch_bend_c, 0, 5120
4, 15528, Pitch_bend_c, 0, 5504
4, 15528, Pitch_bend_c, 0, 6528
4, 15534, Note_on_c, 0, 64, 0
4, 15552, Pitch_bend_c, 0, 8192
4, 15840, Note_on_c, 0, 59, 91
4, 15860, Note_on_c, 0, 59, 0
4, 15864, Note_on_c, 0, 62, 91
4, 15889, Note_on_c, 0, 62, 0
4, 15912, Note_on_c, 0, 59, 60
4, 15922, Note_on_c, 0, 59, 0
4, 15938, Note_on_c, 0, 65, 91
4, 15973, Note_on_c, 0, 65, 0
4, 15984, Note_on_c, 0, 64, 91
4, 16014, Note_on_c, 0, 64, 0
4, 16034, Note_on_c, 0, 62, 91
4, 16067, Note_on_c, 0, 62, 0
4, 16080, Note_on_c, 0, 59, 73
4, 16093, Note_on_c, 0, 59, 0
4, 16104, Note_on_c, 0, 64, 91
4, 16136, Note_on_c, 0, 64, 0
4, 16152, Note_on_c, 0, 62, 91
4, 16302, Note_on_c, 0, 62, 0
4, 16536, Note_on_c, 0, 61, 73
4, 16552, Note_on_c, 0, 61, 0
4, 16560, Note_on_c, 0, 61, 73
4, 16576, Note_on_c, 0, 61, 0
4, 16584, Note_on_c, 0, 61, 64
4, 16597, Note_on_c, 0, 61, 0
4, 16608, Note_on_c, 0, 62, 73
4, 16629, Note_on_c, 0, 62, 0
4, 16632, Note_on_c, 0, 64, 73
4, 16659, Note_on_c, 0, 64, 0
4, 16680, Note_on_c, 0, 65, 73
4, 16725, Note_on_c, 0, 65, 0
4, 16728, Note_on_c, 0, 65, 64
4, 16805, Note_on_c, 0, 65, 0
4, 16872, Note_on_c, 0, 65, 82
4, 16944, Note_on_c, 0, 64, 73
4, 16946, Note_on_c, 0, 65, 0
4, 16958, Note_on_c, 0, 64, 0
4, 16968, Note_on_c, 0, 64, 64
4, 17011, Note_on_c, 0, 64, 0
4, 17016, Note_on_c, 0, 62, 73
4, 17045, Note_on_c, 0, 62, 0
4, 17064, Note_on_c, 0, 64, 91
4, 17112, Pitch_bend_c, 0, 8064
4, 17112, Pitch_bend_c, 0, 7808
4, 17112, Pitch_bend_c, 0, 7680
4, 17112, Pitch_bend_c, 0, 7552
4, 17112, Pitch_bend_c, 0, 7424
4, 17112, Pitch_bend_c, 0, 7296
4, 17112, Pitch_bend_c, 0, 7168
4, 17112, Pitch_bend_c, 0, 6912
4, 17112, Pitch_bend_c, 0, 6784
4, 17112, Pitch_bend_c, 0, 6656
4, 17112, Pitch_bend_c, 0, 6400
4, 17112, Pitch_bend_c, 0, 6272
4, 17136, Pitch_bend_c, 0, 6144
4, 17136, Pitch_bend_c, 0, 6016
4, 17136, Pitch_bend_c, 0, 5888
4, 17136, Pitch_bend_c, 0, 5760
4, 17136, Pitch_bend_c, 0, 5504
4, 17136, Pitch_bend_c, 0, 5248
4, 17136, Pitch_bend_c, 0, 4992
4, 17136, Pitch_bend_c, 0, 4736
4, 17136, Pitch_bend_c, 0, 4480
4, 17136, Pitch_bend_c, 0, 4352
4, 17136, Pitch_bend_c, 0, 4224
4, 17136, Pitch_bend_c, 0, 4096
4, 17136, Pitch_bend_c, 0, 3968
4, 17136, Pitch_bend_c, 0, 3712
4, 17136, Pitch_bend_c, 0, 3456
4, 17136, Pitch_bend_c, 0, 3200
4, 17136, Pitch_bend_c, 0, 2816
4, 17136, Pitch_bend_c, 0, 2688
4, 17136, Pitch_bend_c, 0, 2432
4, 17136, Pitch_bend_c, 0, 2304
4, 17136, Pitch_bend_c, 0, 2176
4, 17136, Pitch_bend_c, 0, 1920
4, 17136, Pitch_bend_c, 0, 1792
4, 17136, Pitch_bend_c, 0, 1536
4, 17136, Pitch_bend_c, 0, 1408
4, 17136, Pitch_bend_c, 0, 1280
4, 17136, Pitch_bend_c, 0, 1152
4, 17136, Pitch_bend_c, 0, 1024
4, 17136, Pitch_bend_c, 0, 768
4, 17136, Pitch_bend_c, 0, 640
4, 17151, Note_on_c, 0, 64, 0
4, 17160, Pitch_bend_c, 0, 512
4, 17160, Pitch_bend_c, 0, 256
4, 17160, Pitch_bend_c, 0, 1024
4, 17160, Pitch_bend_c, 0, 2304
4, 17160, Pitch_bend_c, 0, 3584
4, 17160, Pitch_bend_c, 0, 4992
4, 17160, Pitch_bend_c, 0, 6656
4, 17160, Pitch_bend_c, 0, 8192
4, 17208, Note_on_c, 0, 60, 44
4, 17229, Note_on_c, 0, 60, 0
4, 17232, Note_on_c, 0, 62, 60
4, 17249, Note_on_c, 0, 62, 0
4, 17256, Note_on_c, 0, 64, 82
4, 17324, Note_on_c, 0, 64, 0
4, 17328, Note_on_c, 0, 62, 73
4, 17340, Note_on_c, 0, 62, 0
4, 17352, Note_on_c, 0, 62, 73
4, 17400, Note_on_c, 0, 60, 73
4, 17401, Note_on_c, 0, 62, 0
4, 17430, Note_on_c, 0, 60, 0
4, 17448, Note_on_c, 0, 62, 73
4, 17492, Note_on_c, 0, 62, 0
4, 17496, Note_on_c, 0, 62, 73
4, 17526, Note_on_c, 0, 62, 0
4, 17544, Note_on_c, 0, 62, 64
4, 17605, Note_on_c, 0, 62, 0
4, 17664, Note_on_c, 0, 62, 73
4, 17709, Note_on_c, 0, 62, 0
4, 17712, Note_on_c, 0, 60, 64
4, 17729, Note_on_c, 0, 60, 0
4, 17736, Note_on_c, 0, 60, 73
4, 17768, Note_on_c, 0, 60, 0
4, 17784, Note_on_c, 0, 59, 73
4, 17808, Note_on_c, 0, 59, 0
4, 17832, Note_on_c, 0, 59, 73
4, 17877, Note_on_c, 0, 59, 0
4, 17880, Note_on_c, 0, 60, 73
4, 17910, Note_on_c, 0, 60, 0
4, 17928, Note_on_c, 0, 57, 82
4, 18047, Note_on_c, 0, 57, 0
4, 18264, Note_on_c, 0, 57, 60
4, 18276, Note_on_c, 0, 57, 0
4, 18288, Note_on_c, 0, 61, 82
4, 18303, Note_on_c, 0, 61, 0
4, 18312, Note_on_c, 0, 61, 73
4, 18326, Note_on_c, 0, 61, 0
4, 18336, Note_on_c, 0, 62, 73
4, 18349, Note_on_c, 0, 62, 0
4, 18360, Note_on_c, 0, 64, 73
4, 18390, Note_on_c, 0, 64, 0
4, 18408, Note_on_c, 0, 65, 73
4, 18478, Note_on_c, 0, 65, 0
4, 18479, Note_on_c, 0, 65, 85
4, 18528, Note_on_c, 0, 65, 0
4, 18600, Note_on_c, 0, 62, 60
4, 18615, Note_on_c, 0, 62, 0
4, 18624, Note_on_c, 0, 65, 73
4, 18666, Note_on_c, 0, 65, 0
4, 18672, Note_on_c, 0, 64, 64
4, 18686, Note_on_c, 0, 64, 0
4, 18696, Note_on_c, 0, 64, 64
4, 18731, Note_on_c, 0, 64, 0
4, 18744, Note_on_c, 0, 62, 64
4, 18770, Note_on_c, 0, 62, 0
4, 18792, Note_on_c, 0, 64, 64
4, 18873, Note_on_c, 0, 64, 0
4, 18936, Note_on_c, 0, 60, 64
4, 18959, Note_on_c, 0, 60, 0
4, 18960, Note_on_c, 0, 62, 64
4, 18974, Note_on_c, 0, 62, 0
4, 18984, Note_on_c, 0, 64, 64
4, 19044, Note_on_c, 0, 64, 0
4, 19056, Note_on_c, 0, 62, 56
4, 19070, Note_on_c, 0, 62, 0
4, 19080, Note_on_c, 0, 62, 60
4, 19120, Note_on_c, 0, 62, 0
4, 19128, Note_on_c, 0, 60, 56
4, 19155, Note_on_c, 0, 60, 0
4, 19176, Note_on_c, 0, 62, 60
4, 19210, Note_on_c, 0, 62, 0
4, 19224, Note_on_c, 0, 62, 64
4, 19294, Note_on_c, 0, 62, 0
4, 19320, Note_on_c, 0, 59, 64
4, 19339, Note_on_c, 0, 59, 0
4, 19344, Note_on_c, 0, 60, 60
4, 19360, Note_on_c, 0, 60, 0
4, 19368, Note_on_c, 0, 62, 73
4, 19429, Note_on_c, 0, 62, 0
4, 19440, Note_on_c, 0, 60, 56
4, 19454, Note_on_c, 0, 60, 0
4, 19464, Note_on_c, 0, 60, 73
4, 19525, Note_on_c, 0, 60, 0
4, 19536, Note_on_c, 0, 59, 73
4, 19555, Note_on_c, 0, 59, 0
4, 19560, Note_on_c, 0, 57, 73
4, 19629, Note_on_c, 0, 57, 0
4, 19848, Note_on_c, 0, 52, 64
4, 19867, Note_on_c, 0, 52, 0
4, 19872, Note_on_c, 0, 62, 73
4, 19912, Note_on_c, 0, 62, 0
4, 19920, Note_on_c, 0, 60, 64
4, 19949, Note_on_c, 0, 60, 0
4, 19968, Note_on_c, 0, 59, 82
4, 20029, Note_on_c, 0, 59, 0
4, 20040, Note_on_c, 0, 60, 64
4, 20146, Note_on_c, 0, 60, 0
4, 20616, Note_on_c, 0, 52, 73
4, 20630, Note_on_c, 0, 52, 0
4, 20640, Note_on_c, 0, 62, 64
4, 20679, Note_on_c, 0, 62, 0
4, 20688, Note_on_c, 0, 60, 64
4, 20715, Note_on_c, 0, 60, 0
4, 20736, Note_on_c, 0, 59, 73
4, 20800, Note_on_c, 0, 59, 0
4, 20804, Note_on_c, 0, 57, 73
4, 20921, Note_on_c, 0, 57, 0
4, 21072, Note_on_c, 0, 60, 82
4, 21100, Note_on_c, 0, 60, 0
4, 21120, Note_on_c, 0, 65, 82
4, 21160, Note_on_c, 0, 65, 0
4, 21168, Note_on_c, 0, 65, 80
4, 21184, Note_on_c, 0, 65, 0
4, 21192, Note_on_c, 0, 65, 73
4, 21230, Note_on_c, 0, 65, 0
4, 21240, Note_on_c, 0, 64, 73
4, 21270, Note_on_c, 0, 64, 0
4, 21288, Note_on_c, 0, 64, 73
4, 21328, Note_on_c, 0, 64, 0
4, 21336, Note_on_c, 0, 62, 73
4, 21410, Note_on_c, 0, 62, 0
4, 21432, Note_on_c, 0, 60, 73
4, 21448, Note_on_c, 0, 60, 0
4, 21456, Note_on_c, 0, 62, 73
4, 21489, Note_on_c, 0, 62, 0
4, 21504, Note_on_c, 0, 64, 82
4, 21542, Note_on_c, 0, 64, 0
4, 21552, Note_on_c, 0, 64, 64
4, 21571, Note_on_c, 0, 64, 0
4, 21576, Note_on_c, 0, 64, 82
4, 21610, Note_on_c, 0, 64, 0
4, 21624, Note_on_c, 0, 60, 82
4, 21648, Note_on_c, 0, 60, 0
4, 21672, Note_on_c, 0, 64, 91
4, 21720, Note_on_c, 0, 62, 60
4, 21722, Note_on_c, 0, 64, 0
4, 21743, Note_on_c, 0, 62, 0
4, 21744, Note_on_c, 0, 60, 64
4, 21805, Note_on_c, 0, 60, 0
4, 21864, Note_on_c, 0, 57, 52
4, 21879, Note_on_c, 0, 57, 0
4, 21888, Note_on_c, 0, 62, 73
4, 21932, Note_on_c, 0, 62, 0
4, 21936, Note_on_c, 0, 62, 73
4, 21952, Note_on_c, 0, 62, 0
4, 21960, Note_on_c, 0, 62, 64
4, 21994, Note_on_c, 0, 62, 0
4, 22008, Note_on_c, 0, 60, 64
4, 22031, Note_on_c, 0, 60, 0
4, 22056, Note_on_c, 0, 60, 64
4, 22098, Note_on_c, 0, 60, 0
4, 22104, Note_on_c, 0, 59, 73
4, 22130, Note_on_c, 0, 59, 0
4, 22152, Note_on_c, 0, 59, 73
4, 22212, Note_on_c, 0, 59, 0
4, 22248, Note_on_c, 0, 59, 48
4, 22264, Note_on_c, 0, 59, 0
4, 22274, Note_on_c, 0, 63, 60
4, 22307, Note_on_c, 0, 63, 0
4, 22320, Note_on_c, 0, 63, 73
4, 22364, Note_on_c, 0, 63, 0
4, 22392, Note_on_c, 0, 63, 73
4, 22408, Note_on_c, 0, 63, 0
4, 22416, Note_on_c, 0, 59, 64
4, 22432, Note_on_c, 0, 59, 0
4, 22440, Note_on_c, 0, 63, 82
4, 22480, Note_on_c, 0, 63, 0
4, 22488, Note_on_c, 0, 64, 64
4, 22518, Note_on_c, 0, 64, 0
4, 22536, Note_on_c, 0, 64, 91
4, 22760, Note_on_c, 0, 64, 0
4, 27120, Note_on_c, 0, 61, 73
4, 27136, Note_on_c, 0, 61, 0
4, 27144, Note_on_c, 0, 61, 64
4, 27157, Note_on_c, 0, 61, 0
4, 27168, Note_on_c, 0, 62, 73
4, 27189, Note_on_c, 0, 62, 0
4, 27192, Note_on_c, 0, 64, 73
4, 27219, Note_on_c, 0, 64, 0
4, 27240, Note_on_c, 0, 65, 73
4, 27285, Note_on_c, 0, 65, 0
4, 27288, Note_on_c, 0, 65, 64
4, 27365, Note_on_c, 0, 65, 0
4, 27432, Note_on_c, 0, 65, 82
4, 27504, Note_on_c, 0, 64, 73
4, 27506, Note_on_c, 0, 65, 0
4, 27518, Note_on_c, 0, 64, 0
4, 27528, Note_on_c, 0, 64, 64
4, 27571, Note_on_c, 0, 64, 0
4, 27576, Note_on_c, 0, 62, 73
4, 27605, Note_on_c, 0, 62, 0
4, 27624, Note_on_c, 0, 64, 91
4, 27672, Pitch_bend_c, 0, 8064
4, 27672, Pitch_bend_c, 0, 7808
4, 27672, Pitch_bend_c, 0, 7680
4, 27672, Pitch_bend_c, 0, 7552
4, 27672, Pitch_bend_c, 0, 7424
4, 27672, Pitch_bend_c, 0, 7296
4, 27672, Pitch_bend_c, 0, 7168
4, 27672, Pitch_bend_c, 0, 6912
4, 27672, Pitch_bend_c, 0, 6784
4, 27672, Pitch_bend_c, 0, 6656
4, 27672, Pitch_bend_c, 0, 6400
4, 27672, Pitch_bend_c, 0, 6272
4, 27696, Pitch_bend_c, 0, 6144
4, 27696, Pitch_bend_c, 0, 6016
4, 27696, Pitch_bend_c, 0, 5888
4, 27696, Pitch_bend_c, 0, 5760
4, 27696, Pitch_bend_c, 0, 5504
4, 27696, Pitch_bend_c, 0, 5248
4, 27696, Pitch_bend_c, 0, 4992
4, 27696, Pitch_bend_c, 0, 4736
4, 27696, Pitch_bend_c, 0, 4480
4, 27696, Pitch_bend_c, 0, 4352
4, 27696, Pitch_bend_c, 0, 4224
4, 27696, Pitch_bend_c, 0, 4096
4, 27696, Pitch_bend_c, 0, 3968
4, 27696, Pitch_bend_c, 0, 3712
4, 27696, Pitch_bend_c, 0, 3456
4, 27696, Pitch_bend_c, 0, 3200
4, 27696, Pitch_bend_c, 0, 2816
4, 27696, Pitch_bend_c, 0, 2688
4, 27696, Pitch_bend_c, 0, 2432
4, 27696, Pitch_bend_c, 0, 2304
4, 27696, Pitch_bend_c, 0, 2176
4, 27696, Pitch_bend_c, 0, 1920
4, 27696, Pitch_bend_c, 0, 1792
4, 27696, Pitch_bend_c, 0, 1536
4, 27696, Pitch_bend_c, 0, 1408
4, 27696, Pitch_bend_c, 0, 1280
4, 27696, Pitch_bend_c, 0, 1152
4, 27696, Pitch_bend_c, 0, 1024
4, 27696, Pitch_bend_c, 0, 768
4, 27696, Pitch_bend_c, 0, 640
4, 27711, Note_on_c, 0, 64, 0
4, 27720, Pitch_bend_c, 0, 512
4, 27720, Pitch_bend_c, 0, 256
4, 27720, Pitch_bend_c, 0, 1024
4, 27720, Pitch_bend_c, 0, 2304
4, 27720, Pitch_bend_c, 0, 3584
4, 27720, Pitch_bend_c, 0, 4992
4, 27720, Pitch_bend_c, 0, 6656
4, 27720, Pitch_bend_c, 0, 8192
4, 27768, Note_on_c, 0, 60, 44
4, 27789, Note_on_c, 0, 60, 0
4, 27792, Note_on_c, 0, 62, 60
4, 27809, Note_on_c, 0, 62, 0
4, 27816, Note_on_c, 0, 64, 82
4, 27884, Note_on_c, 0, 64, 0
4, 27888, Note_on_c, 0, 62, 73
4, 27900, Note_on_c, 0, 62, 0
4, 27912, Note_on_c, 0, 62, 73
4, 27960, Note_on_c, 0, 60, 73
4, 27961, Note_on_c, 0, 62, 0
4, 27990, Note_on_c, 0, 60, 0
4, 28008, Note_on_c, 0, 62, 73
4, 28052, Note_on_c, 0, 62, 0
4, 28056, Note_on_c, 0, 62, 73
4, 28086, Note_on_c, 0, 62, 0
4, 28104, Note_on_c, 0, 62, 64
4, 28165, Note_on_c, 0, 62, 0
4, 28224, Note_on_c, 0, 62, 73
4, 28269, Note_on_c, 0, 62, 0
4, 28272, Note_on_c, 0, 60, 64
4, 28289, Note_on_c, 0, 60, 0
4, 28296, Note_on_c, 0, 60, 73
4, 28328, Note_on_c, 0, 60, 0
4, 28344, Note_on_c, 0, 59, 73
4, 28368, Note_on_c, 0, 59, 0
4, 28392, Note_on_c, 0, 59, 73
4, 28437, Note_on_c, 0, 59, 0
4, 28440, Note_on_c, 0, 60, 73
4, 28470, Note_on_c, 0, 60, 0
4, 28488, Note_on_c, 0, 57, 82
4, 28607, Note_on_c, 0, 57, 0
4, 28824, Note_on_c, 0, 57, 60
4, 28836, Note_on_c, 0, 57, 0
4, 28848, Note_on_c, 0, 61, 82
4, 28863, Note_on_c, 0, 61, 0
4, 28872, Note_on_c, 0, 61, 73
4, 28886, Note_on_c, 0, 61, 0
4, 28896, Note_on_c, 0, 62, 73
4, 28909, Note_on_c, 0, 62, 0
4, 28920, Note_on_c, 0, 64, 73
4, 28950, Note_on_c, 0, 64, 0
4, 28968, Note_on_c, 0, 65, 73
4, 29039, Note_on_c, 0, 65, 0
4, 29040, Note_on_c, 0, 65, 75
4, 29087, Note_on_c, 0, 65, 0
4, 29160, Note_on_c, 0, 62, 60
4, 29175, Note_on_c, 0, 62, 0
4, 29184, Note_on_c, 0, 65, 73
4, 29226, Note_on_c, 0, 65, 0
4, 29232, Note_on_c, 0, 64, 64
4, 29246, Note_on_c, 0, 64, 0
4, 29256, Note_on_c, 0, 64, 64
4, 29291, Note_on_c, 0, 64, 0
4, 29304, Note_on_c, 0, 62, 64
4, 29330, Note_on_c, 0, 62, 0
4, 29352, Note_on_c, 0, 64, 64
4, 29433, Note_on_c, 0, 64, 0
4, 29496, Note_on_c, 0, 60, 64
4, 29519, Note_on_c, 0, 60, 0
4, 29520, Note_on_c, 0, 62, 64
4, 29534, Note_on_c, 0, 62, 0
4, 29544, Note_on_c, 0, 64, 64
4, 29604, Note_on_c, 0, 64, 0
4, 29616, Note_on_c, 0, 62, 56
4, 29630, Note_on_c, 0, 62, 0
4, 29640, Note_on_c, 0, 62, 60
4, 29680, Note_on_c, 0, 62, 0
4, 29688, Note_on_c, 0, 60, 56
4, 29715, Note_on_c, 0, 60, 0
4, 29736, Note_on_c, 0, 62, 60
4, 29770, Note_on_c, 0, 62, 0
4, 29784, Note_on_c, 0, 62, 64
4, 29854, Note_on_c, 0, 62, 0
4, 29880, Note_on_c, 0, 59, 64
4, 29899, Note_on_c, 0, 59, 0
4, 29904, Note_on_c, 0, 60, 60
4, 29920, Note_on_c, 0, 60, 0
4, 29928, Note_on_c, 0, 62, 73
4, 29989, Note_on_c, 0, 62, 0
4, 30000, Note_on_c, 0, 60, 56
4, 30014, Note_on_c, 0, 60, 0
4, 30024, Note_on_c, 0, 60, 73
4, 30085, Note_on_c, 0, 60, 0
4, 30096, Note_on_c, 0, 59, 73
4, 30115, Note_on_c, 0, 59, 0
4, 30120, Note_on_c, 0, 57, 73
4, 30189, Note_on_c, 0, 57, 0
4, 30408, Note_on_c, 0, 52, 64
4, 30427, Note_on_c, 0, 52, 0
4, 30432, Note_on_c, 0, 62, 73
4, 30472, Note_on_c, 0, 62, 0
4, 30480, Note_on_c, 0, 60, 64
4, 30509, Note_on_c, 0, 60, 0
4, 30528, Note_on_c, 0, 59, 82
4, 30589, Note_on_c, 0, 59, 0
4, 30600, Note_on_c, 0, 57, 64
4, 30706, Note_on_c, 0, 57, 0
4, 31176, Note_on_c, 0, 52, 73
4, 31190, Note_on_c, 0, 52, 0
4, 31200, Note_on_c, 0, 62, 64
4, 31239, Note_on_c, 0, 62, 0
4, 31248, Note_on_c, 0, 60, 64
4, 31275, Note_on_c, 0, 60, 0
4, 31296, Note_on_c, 0, 59, 73
4, 31361, Note_on_c, 0, 59, 0
4, 31368, Note_on_c, 0, 57, 73
4, 31463, Note_on_c, 0, 57, 0
4, 31896, Note_on_c, 0, 59, 73
4, 31915, Note_on_c, 0, 59, 0
4, 31920, Note_on_c, 0, 60, 52
4, 31941, Note_on_c, 0, 60, 0
4, 31944, Note_on_c, 0, 62, 73
4, 31973, Note_on_c, 0, 62, 0
4, 31992, Note_on_c, 0, 62, 73
4, 32018, Note_on_c, 0, 62, 0
4, 32040, Note_on_c, 0, 59, 82
4, 32088, Note_on_c, 0, 60, 82
4, 32090, Note_on_c, 0, 59, 0
4, 32173, Note_on_c, 0, 60, 0
4, 32710, Note_on_c, 0, 59, 83
4, 32735, Note_on_c, 0, 59, 0
4, 32736, Note_on_c, 0, 62, 64
4, 32778, Note_on_c, 0, 62, 0
4, 32784, Note_on_c, 0, 60, 73
4, 32821, Note_on_c, 0, 60, 0
4, 32832, Note_on_c, 0, 59, 73
4, 32896, Note_on_c, 0, 59, 0
4, 32904, Note_on_c, 0, 57, 73
4, 33002, Note_on_c, 0, 57, 0
4, 33048, Note_on_c, 0, 76, 82
4, 33212, Note_on_c, 0, 76, 0
4, 33216, Note_on_c, 0, 74, 64
4, 33257, Note_on_c, 0, 74, 0
4, 33264, Note_on_c, 0, 72, 64
4, 33286, Note_on_c, 0, 72, 0
4, 33288, Note_on_c, 0, 69, 64
4, 33413, Note_on_c, 0, 69, 0
4, 33431, Note_on_c, 0, 76, 73
4, 33471, Note_on_c, 0, 76, 0
4, 33480, Note_on_c, 0, 74, 64
4, 33520, Note_on_c, 0, 74, 0
4, 33528, Note_on_c, 0, 79, 73
4, 33580, Note_on_c, 0, 78, 52
4, 33587, Note_on_c, 0, 79, 0
4, 33589, Note_on_c, 0, 78, 0
4, 33589, Note_on_c, 0, 77, 44
4, 33599, Note_on_c, 0, 77, 0
4, 33600, Note_on_c, 0, 76, 60
4, 34150, Note_on_c, 0, 76, 0
4, 34150, End_track
5, 0, Start_track
5, 0, MIDI_port, 0
5, 0, Title_t, "Drum"
5, 0, Program_c, 9, 0
5, 0, Control_c, 9, 7, 120
5, 0, Control_c, 9, 10, 64
5, 0, Control_c, 9, 91, 105
5, 0, Note_on_c, 9, 35, 127
5, 0, Note_on_c, 9, 49, 80
5, 12, Note_on_c, 9, 35, 0
5, 48, Note_on_c, 9, 49, 0
5, 48, Note_on_c, 9, 42, 48
5, 72, Note_on_c, 9, 42, 0
5, 72, Note_on_c, 9, 35, 96
5, 84, Note_on_c, 9, 35, 0
5, 96, Note_on_c, 9, 38, 127
5, 96, Note_on_c, 9, 42, 80
5, 120, Note_on_c, 9, 42, 0
5, 144, Note_on_c, 9, 38, 0
5, 144, Note_on_c, 9, 42, 48
5, 168, Note_on_c, 9, 42, 0
5, 168, Note_on_c, 9, 35, 96
5, 180, Note_on_c, 9, 35, 0
5, 192, Note_on_c, 9, 35, 127
5, 192, Note_on_c, 9, 42, 80
5, 204, Note_on_c, 9, 35, 0
5, 216, Note_on_c, 9, 42, 0
5, 240, Note_on_c, 9, 42, 48
5, 264, Note_on_c, 9, 42, 0
5, 264, Note_on_c, 9, 35, 96
5, 276, Note_on_c, 9, 35, 0
5, 288, Note_on_c, 9, 38, 127
5, 288, Note_on_c, 9, 42, 80
5, 312, Note_on_c, 9, 42, 0
5, 336, Note_on_c, 9, 38, 0
5, 336, Note_on_c, 9, 35, 96
5, 336, Note_on_c, 9, 46, 64
5, 348, Note_on_c, 9, 35, 0
5, 360, Note_on_c, 9, 46, 0
5, 384, Note_on_c, 9, 35, 127
5, 384, Note_on_c, 9, 42, 80
5, 396, Note_on_c, 9, 35, 0
5, 408, Note_on_c, 9, 42, 0
5, 432, Note_on_c, 9, 42, 48
5, 456, Note_on_c, 9, 42, 0
5, 456, Note_on_c, 9, 35, 96
5, 468, Note_on_c, 9, 35, 0
5, 480, Note_on_c, 9, 38, 127
5, 480, Note_on_c, 9, 42, 80
5, 504, Note_on_c, 9, 42, 0
5, 528, Note_on_c, 9, 38, 0
5, 528, Note_on_c, 9, 42, 48
5, 552, Note_on_c, 9, 42, 0
5, 552, Note_on_c, 9, 35, 96
5, 564, Note_on_c, 9, 35, 0
5, 576, Note_on_c, 9, 35, 127
5, 576, Note_on_c, 9, 42, 80
5, 588, Note_on_c, 9, 35, 0
5, 600, Note_on_c, 9, 42, 0
5, 624, Note_on_c, 9, 42, 48
5, 648, Note_on_c, 9, 42, 0
5, 648, Note_on_c, 9, 35, 96
5, 660, Note_on_c, 9, 35, 0
5, 672, Note_on_c, 9, 38, 127
5, 672, Note_on_c, 9, 42, 80
5, 696, Note_on_c, 9, 42, 0
5, 720, Note_on_c, 9, 38, 0
5, 720, Note_on_c, 9, 35, 96
5, 720, Note_on_c, 9, 46, 64
5, 732, Note_on_c, 9, 35, 0
5, 744, Note_on_c, 9, 46, 0
5, 768, Note_on_c, 9, 35, 127
5, 768, Note_on_c, 9, 42, 80
5, 780, Note_on_c, 9, 35, 0
5, 792, Note_on_c, 9, 42, 0
5, 816, Note_on_c, 9, 42, 48
5, 840, Note_on_c, 9, 42, 0
5, 840, Note_on_c, 9, 35, 96
5, 852, Note_on_c, 9, 35, 0
5, 864, Note_on_c, 9, 38, 127
5, 864, Note_on_c, 9, 42, 80
5, 888, Note_on_c, 9, 42, 0
5, 912, Note_on_c, 9, 38, 0
5, 912, Note_on_c, 9, 42, 48
5, 936, Note_on_c, 9, 42, 0
5, 936, Note_on_c, 9, 35, 96
5, 948, Note_on_c, 9, 35, 0
5, 960, Note_on_c, 9, 35, 127
5, 960, Note_on_c, 9, 42, 80
5, 972, Note_on_c, 9, 35, 0
5, 984, Note_on_c, 9, 42, 0
5, 1008, Note_on_c, 9, 42, 48
5, 1032, Note_on_c, 9, 42, 0
5, 1032, Note_on_c, 9, 35, 96
5, 1044, Note_on_c, 9, 35, 0
5, 1056, Note_on_c, 9, 38, 127
5, 1056, Note_on_c, 9, 42, 80
5, 1080, Note_on_c, 9, 42, 0
5, 1104, Note_on_c, 9, 38, 0
5, 1104, Note_on_c, 9, 35, 96
5, 1104, Note_on_c, 9, 42, 48
5, 1116, Note_on_c, 9, 35, 0
5, 1128, Note_on_c, 9, 42, 0
5, 1128, Note_on_c, 9, 46, 64
5, 1140, Note_on_c, 9, 46, 0
5, 1152, Note_on_c, 9, 35, 127
5, 1152, Note_on_c, 9, 42, 80
5, 1164, Note_on_c, 9, 35, 0
5, 1176, Note_on_c, 9, 42, 0
5, 1200, Note_on_c, 9, 42, 48
5, 1224, Note_on_c, 9, 42, 0
5, 1224, Note_on_c, 9, 35, 96
5, 1236, Note_on_c, 9, 35, 0
5, 1248, Note_on_c, 9, 38, 127
5, 1248, Note_on_c, 9, 42, 80
5, 1260, Note_on_c, 9, 38, 0
5, 1272, Note_on_c, 9, 42, 0
5, 1296, Note_on_c, 9, 42, 48
5, 1320, Note_on_c, 9, 42, 0
5, 1320, Note_on_c, 9, 35, 96
5, 1332, Note_on_c, 9, 35, 0
5, 1344, Note_on_c, 9, 35, 127
5, 1344, Note_on_c, 9, 42, 80
5, 1356, Note_on_c, 9, 35, 0
5, 1368, Note_on_c, 9, 42, 0
5, 1392, Note_on_c, 9, 46, 64
5, 1416, Note_on_c, 9, 46, 0
5, 1416, Note_on_c, 9, 35, 96
5, 1428, Note_on_c, 9, 35, 0
5, 1440, Note_on_c, 9, 38, 127
5, 1440, Note_on_c, 9, 42, 80
5, 1452, Note_on_c, 9, 38, 0
5, 1464, Note_on_c, 9, 42, 0
5, 1464, Note_on_c, 9, 38, 112
5, 1476, Note_on_c, 9, 38, 0
5, 1488, Note_on_c, 9, 45, 96
5, 1512, Note_on_c, 9, 45, 0
5, 1536, Note_on_c, 9, 35, 127
5, 1536, Note_on_c, 9, 42, 80
5, 1548, Note_on_c, 9, 35, 0
5, 1560, Note_on_c, 9, 42, 0
5, 1584, Note_on_c, 9, 42, 48
5, 1608, Note_on_c, 9, 42, 0
5, 1632, Note_on_c, 9, 38, 127
5, 1632, Note_on_c, 9, 42, 80
5, 1656, Note_on_c, 9, 42, 0
5, 1680, Note_on_c, 9, 38, 0
5, 1680, Note_on_c, 9, 42, 48
5, 1704, Note_on_c, 9, 42, 0
5, 1704, Note_on_c, 9, 35, 96
5, 1716, Note_on_c, 9, 35, 0
5, 1728, Note_on_c, 9, 35, 127
5, 1728, Note_on_c, 9, 42, 80
5, 1740, Note_on_c, 9, 35, 0
5, 1752, Note_on_c, 9, 42, 0
5, 1776, Note_on_c, 9, 42, 48
5, 1800, Note_on_c, 9, 42, 0
5, 1824, Note_on_c, 9, 38, 127
5, 1824, Note_on_c, 9, 42, 80
5, 1848, Note_on_c, 9, 42, 0
5, 1872, Note_on_c, 9, 38, 0
5, 1872, Note_on_c, 9, 42, 48
5, 1896, Note_on_c, 9, 42, 0
5, 1920, Note_on_c, 9, 35, 127
5, 1920, Note_on_c, 9, 42, 80
5, 1932, Note_on_c, 9, 35, 0
5, 1944, Note_on_c, 9, 42, 0
5, 1968, Note_on_c, 9, 42, 48
5, 1992, Note_on_c, 9, 42, 0
5, 2016, Note_on_c, 9, 38, 127
5, 2016, Note_on_c, 9, 42, 80
5, 2040, Note_on_c, 9, 42, 0
5, 2064, Note_on_c, 9, 38, 0
5, 2064, Note_on_c, 9, 42, 48
5, 2088, Note_on_c, 9, 42, 0
5, 2088, Note_on_c, 9, 35, 96
5, 2100, Note_on_c, 9, 35, 0
5, 2112, Note_on_c, 9, 35, 127
5, 2112, Note_on_c, 9, 42, 80
5, 2124, Note_on_c, 9, 35, 0
5, 2136, Note_on_c, 9, 42, 0
5, 2160, Note_on_c, 9, 42, 48
5, 2184, Note_on_c, 9, 42, 0
5, 2208, Note_on_c, 9, 38, 127
5, 2208, Note_on_c, 9, 42, 80
5, 2232, Note_on_c, 9, 42, 0
5, 2256, Note_on_c, 9, 38, 0
5, 2256, Note_on_c, 9, 42, 48
5, 2280, Note_on_c, 9, 42, 0
5, 2280, Note_on_c, 9, 46, 64
5, 2292, Note_on_c, 9, 46, 0
5, 2304, Note_on_c, 9, 35, 127
5, 2304, Note_on_c, 9, 42, 80
5, 2316, Note_on_c, 9, 35, 0
5, 2328, Note_on_c, 9, 42, 0
5, 2352, Note_on_c, 9, 42, 48
5, 2376, Note_on_c, 9, 42, 0
5, 2400, Note_on_c, 9, 38, 127
5, 2400, Note_on_c, 9, 42, 80
5, 2424, Note_on_c, 9, 42, 0
5, 2448, Note_on_c, 9, 38, 0
5, 2448, Note_on_c, 9, 42, 48
5, 2472, Note_on_c, 9, 42, 0
5, 2472, Note_on_c, 9, 35, 96
5, 2484, Note_on_c, 9, 35, 0
5, 2496, Note_on_c, 9, 35, 127
5, 2496, Note_on_c, 9, 42, 80
5, 2508, Note_on_c, 9, 35, 0
5, 2520, Note_on_c, 9, 42, 0
5, 2544, Note_on_c, 9, 42, 48
5, 2568, Note_on_c, 9, 42, 0
5, 2592, Note_on_c, 9, 38, 127
5, 2592, Note_on_c, 9, 42, 80
5, 2616, Note_on_c, 9, 42, 0
5, 2640, Note_on_c, 9, 38, 0
5, 2640, Note_on_c, 9, 42, 48
5, 2664, Note_on_c, 9, 42, 0
5, 2688, Note_on_c, 9, 35, 127
5, 2688, Note_on_c, 9, 42, 80
5, 2700, Note_on_c, 9, 35, 0
5, 2712, Note_on_c, 9, 42, 0
5, 2736, Note_on_c, 9, 42, 48
5, 2760, Note_on_c, 9, 42, 0
5, 2784, Note_on_c, 9, 38, 127
5, 2784, Note_on_c, 9, 42, 80
5, 2808, Note_on_c, 9, 42, 0
5, 2832, Note_on_c, 9, 38, 0
5, 2832, Note_on_c, 9, 42, 48
5, 2856, Note_on_c, 9, 42, 0
5, 2856, Note_on_c, 9, 35, 96
5, 2868, Note_on_c, 9, 35, 0
5, 2880, Note_on_c, 9, 35, 127
5, 2880, Note_on_c, 9, 42, 80
5, 2892, Note_on_c, 9, 35, 0
5, 2904, Note_on_c, 9, 42, 0
5, 2928, Note_on_c, 9, 42, 48
5, 2952, Note_on_c, 9, 42, 0
5, 2976, Note_on_c, 9, 38, 127
5, 2976, Note_on_c, 9, 42, 80
5, 3000, Note_on_c, 9, 42, 0
5, 3024, Note_on_c, 9, 38, 0
5, 3024, Note_on_c, 9, 46, 64
5, 3048, Note_on_c, 9, 46, 0
5, 3072, Note_on_c, 9, 35, 127
5, 3072, Note_on_c, 9, 42, 80
5, 3084, Note_on_c, 9, 35, 0
5, 3096, Note_on_c, 9, 42, 0
5, 3120, Note_on_c, 9, 42, 48
5, 3144, Note_on_c, 9, 42, 0
5, 3168, Note_on_c, 9, 38, 127
5, 3168, Note_on_c, 9, 42, 80
5, 3192, Note_on_c, 9, 42, 0
5, 3216, Note_on_c, 9, 38, 0
5, 3216, Note_on_c, 9, 42, 48
5, 3240, Note_on_c, 9, 42, 0
5, 3240, Note_on_c, 9, 35, 96
5, 3252, Note_on_c, 9, 35, 0
5, 3264, Note_on_c, 9, 35, 127
5, 3264, Note_on_c, 9, 42, 80
5, 3276, Note_on_c, 9, 35, 0
5, 3288, Note_on_c, 9, 42, 0
5, 3312, Note_on_c, 9, 42, 48
5, 3336, Note_on_c, 9, 42, 0
5, 3360, Note_on_c, 9, 38, 127
5, 3360, Note_on_c, 9, 42, 80
5, 3384, Note_on_c, 9, 42, 0
5, 3408, Note_on_c, 9, 38, 0
5, 3408, Note_on_c, 9, 42, 48
5, 3432, Note_on_c, 9, 42, 0
5, 3456, Note_on_c, 9, 35, 127
5, 3456, Note_on_c, 9, 42, 80
5, 3468, Note_on_c, 9, 35, 0
5, 3480, Note_on_c, 9, 42, 0
5, 3504, Note_on_c, 9, 42, 48
5, 3528, Note_on_c, 9, 42, 0
5, 3552, Note_on_c, 9, 38, 127
5, 3552, Note_on_c, 9, 42, 80
5, 3576, Note_on_c, 9, 42, 0
5, 3600, Note_on_c, 9, 38, 0
5, 3600, Note_on_c, 9, 42, 48
5, 3624, Note_on_c, 9, 42, 0
5, 3624, Note_on_c, 9, 35, 96
5, 3636, Note_on_c, 9, 35, 0
5, 3648, Note_on_c, 9, 35, 127
5, 3648, Note_on_c, 9, 42, 80
5, 3660, Note_on_c, 9, 35, 0
5, 3672, Note_on_c, 9, 42, 0
5, 3696, Note_on_c, 9, 42, 48
5, 3720, Note_on_c, 9, 42, 0
5, 3744, Note_on_c, 9, 38, 127
5, 3744, Note_on_c, 9, 42, 80
5, 3768, Note_on_c, 9, 42, 0
5, 3792, Note_on_c, 9, 38, 0
5, 3792, Note_on_c, 9, 42, 48
5, 3816, Note_on_c, 9, 42, 0
5, 3840, Note_on_c, 9, 35, 127
5, 3840, Note_on_c, 9, 42, 80
5, 3852, Note_on_c, 9, 35, 0
5, 3864, Note_on_c, 9, 42, 0
5, 3888, Note_on_c, 9, 42, 48
5, 3912, Note_on_c, 9, 42, 0
5, 3936, Note_on_c, 9, 38, 127
5, 3936, Note_on_c, 9, 42, 80
5, 3960, Note_on_c, 9, 42, 0
5, 3984, Note_on_c, 9, 38, 0
5, 3984, Note_on_c, 9, 42, 48
5, 4008, Note_on_c, 9, 42, 0
5, 4008, Note_on_c, 9, 35, 96
5, 4020, Note_on_c, 9, 35, 0
5, 4032, Note_on_c, 9, 35, 127
5, 4032, Note_on_c, 9, 42, 80
5, 4044, Note_on_c, 9, 35, 0
5, 4056, Note_on_c, 9, 42, 0
5, 4080, Note_on_c, 9, 42, 48
5, 4104, Note_on_c, 9, 42, 0
5, 4128, Note_on_c, 9, 38, 127
5, 4128, Note_on_c, 9, 42, 80
5, 4152, Note_on_c, 9, 42, 0
5, 4176, Note_on_c, 9, 38, 0
5, 4176, Note_on_c, 9, 42, 48
5, 4200, Note_on_c, 9, 42, 0
5, 4224, Note_on_c, 9, 35, 127
5, 4224, Note_on_c, 9, 42, 80
5, 4236, Note_on_c, 9, 35, 0
5, 4248, Note_on_c, 9, 42, 0
5, 4272, Note_on_c, 9, 42, 48
5, 4296, Note_on_c, 9, 42, 0
5, 4320, Note_on_c, 9, 38, 127
5, 4320, Note_on_c, 9, 42, 80
5, 4344, Note_on_c, 9, 42, 0
5, 4368, Note_on_c, 9, 38, 0
5, 4368, Note_on_c, 9, 42, 48
5, 4392, Note_on_c, 9, 42, 0
5, 4392, Note_on_c, 9, 35, 96
5, 4404, Note_on_c, 9, 35, 0
5, 4416, Note_on_c, 9, 35, 127
5, 4416, Note_on_c, 9, 42, 80
5, 4428, Note_on_c, 9, 35, 0
5, 4440, Note_on_c, 9, 42, 0
5, 4464, Note_on_c, 9, 42, 48
5, 4488, Note_on_c, 9, 42, 0
5, 4488, Note_on_c, 9, 35, 96
5, 4500, Note_on_c, 9, 35, 0
5, 4512, Note_on_c, 9, 38, 127
5, 4512, Note_on_c, 9, 46, 48
5, 4536, Note_on_c, 9, 46, 0
5, 4560, Note_on_c, 9, 38, 0
5, 4560, Note_on_c, 9, 35, 96
5, 4560, Note_on_c, 9, 46, 64
5, 4572, Note_on_c, 9, 35, 0
5, 4584, Note_on_c, 9, 46, 0
5, 4608, Note_on_c, 9, 35, 127
5, 4608, Note_on_c, 9, 49, 80
5, 4620, Note_on_c, 9, 35, 0
5, 4656, Note_on_c, 9, 49, 0
5, 4656, Note_on_c, 9, 42, 48
5, 4680, Note_on_c, 9, 42, 0
5, 4680, Note_on_c, 9, 35, 96
5, 4692, Note_on_c, 9, 35, 0
5, 4704, Note_on_c, 9, 38, 127
5, 4704, Note_on_c, 9, 42, 80
5, 4728, Note_on_c, 9, 42, 0
5, 4752, Note_on_c, 9, 38, 0
5, 4752, Note_on_c, 9, 42, 48
5, 4776, Note_on_c, 9, 42, 0
5, 4776, Note_on_c, 9, 35, 96
5, 4788, Note_on_c, 9, 35, 0
5, 4800, Note_on_c, 9, 35, 127
5, 4800, Note_on_c, 9, 42, 80
5, 4812, Note_on_c, 9, 35, 0
5, 4824, Note_on_c, 9, 42, 0
5, 4848, Note_on_c, 9, 42, 48
5, 4872, Note_on_c, 9, 42, 0
5, 4896, Note_on_c, 9, 38, 127
5, 4896, Note_on_c, 9, 42, 80
5, 4920, Note_on_c, 9, 42, 0
5, 4944, Note_on_c, 9, 38, 0
5, 4944, Note_on_c, 9, 46, 64
5, 4968, Note_on_c, 9, 46, 0
5, 4992, Note_on_c, 9, 35, 127
5, 4992, Note_on_c, 9, 42, 80
5, 5004, Note_on_c, 9, 35, 0
5, 5016, Note_on_c, 9, 42, 0
5, 5040, Note_on_c, 9, 42, 48
5, 5064, Note_on_c, 9, 42, 0
5, 5064, Note_on_c, 9, 35, 96
5, 5076, Note_on_c, 9, 35, 0
5, 5088, Note_on_c, 9, 38, 127
5, 5088, Note_on_c, 9, 42, 80
5, 5112, Note_on_c, 9, 42, 0
5, 5136, Note_on_c, 9, 38, 0
5, 5136, Note_on_c, 9, 42, 48
5, 5160, Note_on_c, 9, 42, 0
5, 5160, Note_on_c, 9, 35, 96
5, 5172, Note_on_c, 9, 35, 0
5, 5184, Note_on_c, 9, 35, 127
5, 5184, Note_on_c, 9, 42, 80
5, 5196, Note_on_c, 9, 35, 0
5, 5208, Note_on_c, 9, 42, 0
5, 5232, Note_on_c, 9, 42, 48
5, 5256, Note_on_c, 9, 42, 0
5, 5280, Note_on_c, 9, 38, 127
5, 5280, Note_on_c, 9, 42, 80
5, 5304, Note_on_c, 9, 42, 0
5, 5328, Note_on_c, 9, 38, 0
5, 5328, Note_on_c, 9, 46, 48
5, 5352, Note_on_c, 9, 46, 0
5, 5376, Note_on_c, 9, 35, 127
5, 5376, Note_on_c, 9, 42, 80
5, 5400, Note_on_c, 9, 42, 0
5, 5424, Note_on_c, 9, 35, 0
5, 5424, Note_on_c, 9, 42, 48
5, 5448, Note_on_c, 9, 42, 0
5, 5472, Note_on_c, 9, 38, 127
5, 5472, Note_on_c, 9, 42, 80
5, 5496, Note_on_c, 9, 42, 0
5, 5520, Note_on_c, 9, 38, 0
5, 5520, Note_on_c, 9, 42, 48
5, 5544, Note_on_c, 9, 42, 0
5, 5568, Note_on_c, 9, 35, 127
5, 5568, Note_on_c, 9, 42, 80
5, 5592, Note_on_c, 9, 42, 0
5, 5616, Note_on_c, 9, 35, 0
5, 5616, Note_on_c, 9, 42, 48
5, 5640, Note_on_c, 9, 42, 0
5, 5664, Note_on_c, 9, 38, 127
5, 5664, Note_on_c, 9, 42, 80
5, 5688, Note_on_c, 9, 42, 0
5, 5712, Note_on_c, 9, 38, 0
5, 5712, Note_on_c, 9, 42, 48
5, 5736, Note_on_c, 9, 42, 0
5, 5760, Note_on_c, 9, 35, 127
5, 5760, Note_on_c, 9, 42, 80
5, 5772, Note_on_c, 9, 35, 0
5, 5784, Note_on_c, 9, 42, 0
5, 5808, Note_on_c, 9, 42, 48
5, 5832, Note_on_c, 9, 42, 0
5, 5856, Note_on_c, 9, 38, 127
5, 5856, Note_on_c, 9, 42, 80
5, 5868, Note_on_c, 9, 38, 0
5, 5880, Note_on_c, 9, 42, 0
5, 5904, Note_on_c, 9, 42, 48
5, 5928, Note_on_c, 9, 42, 0
5, 5952, Note_on_c, 9, 35, 127
5, 5952, Note_on_c, 9, 42, 80
5, 5964, Note_on_c, 9, 35, 0
5, 5976, Note_on_c, 9, 42, 0
5, 5976, Note_on_c, 9, 38, 127
5, 5988, Note_on_c, 9, 38, 0
5, 6000, Note_on_c, 9, 42, 48
5, 6024, Note_on_c, 9, 42, 0
5, 6024, Note_on_c, 9, 35, 96
5, 6036, Note_on_c, 9, 35, 0
5, 6048, Note_on_c, 9, 38, 127
5, 6048, Note_on_c, 9, 42, 80
5, 6060, Note_on_c, 9, 38, 0
5, 6072, Note_on_c, 9, 42, 0
5, 6096, Note_on_c, 9, 35, 96
5, 6096, Note_on_c, 9, 46, 48
5, 6108, Note_on_c, 9, 35, 0
5, 6120, Note_on_c, 9, 46, 0
5, 6144, Note_on_c, 9, 35, 127
5, 6144, Note_on_c, 9, 42, 80
5, 6168, Note_on_c, 9, 42, 0
5, 6192, Note_on_c, 9, 35, 0
5, 6192, Note_on_c, 9, 42, 48
5, 6216, Note_on_c, 9, 42, 0
5, 6240, Note_on_c, 9, 38, 127
5, 6240, Note_on_c, 9, 42, 80
5, 6264, Note_on_c, 9, 42, 0
5, 6288, Note_on_c, 9, 38, 0
5, 6288, Note_on_c, 9, 42, 48
5, 6312, Note_on_c, 9, 42, 0
5, 6336, Note_on_c, 9, 35, 127
5, 6336, Note_on_c, 9, 42, 80
5, 6360, Note_on_c, 9, 42, 0
5, 6384, Note_on_c, 9, 35, 0
5, 6384, Note_on_c, 9, 42, 48
5, 6408, Note_on_c, 9, 42, 0
5, 6432, Note_on_c, 9, 38, 127
5, 6432, Note_on_c, 9, 42, 80
5, 6444, Note_on_c, 9, 38, 0
5, 6456, Note_on_c, 9, 42, 0
5, 6480, Note_on_c, 9, 42, 48
5, 6504, Note_on_c, 9, 42, 0
5, 6528, Note_on_c, 9, 35, 127
5, 6528, Note_on_c, 9, 42, 80
5, 6552, Note_on_c, 9, 42, 0
5, 6576, Note_on_c, 9, 35, 0
5, 6576, Note_on_c, 9, 42, 48
5, 6600, Note_on_c, 9, 42, 0
5, 6600, Note_on_c, 9, 38, 127
5, 6600, Note_on_c, 9, 46, 96
5, 6612, Note_on_c, 9, 46, 0
5, 6612, Note_on_c, 9, 38, 0
5, 6624, Note_on_c, 9, 35, 127
5, 6648, Note_on_c, 9, 48, 80
5, 6660, Note_on_c, 9, 48, 0
5, 6672, Note_on_c, 9, 35, 0
5, 6672, Note_on_c, 9, 45, 96
5, 6696, Note_on_c, 9, 45, 0
5, 6720, Note_on_c, 9, 35, 127
5, 6720, Note_on_c, 9, 49, 80
5, 6732, Note_on_c, 9, 35, 0
5, 6768, Note_on_c, 9, 49, 0
5, 6768, Note_on_c, 9, 42, 48
5, 6792, Note_on_c, 9, 42, 0
5, 6792, Note_on_c, 9, 35, 96
5, 6804, Note_on_c, 9, 35, 0
5, 6816, Note_on_c, 9, 38, 127
5, 6816, Note_on_c, 9, 42, 80
5, 6840, Note_on_c, 9, 42, 0
5, 6864, Note_on_c, 9, 38, 0
5, 6864, Note_on_c, 9, 42, 48
5, 6888, Note_on_c, 9, 42, 0
5, 6912, Note_on_c, 9, 35, 127
5, 6912, Note_on_c, 9, 42, 80
5, 6924, Note_on_c, 9, 35, 0
5, 6936, Note_on_c, 9, 42, 0
5, 6960, Note_on_c, 9, 42, 48
5, 6984, Note_on_c, 9, 42, 0
5, 6984, Note_on_c, 9, 35, 96
5, 6996, Note_on_c, 9, 35, 0
5, 7008, Note_on_c, 9, 38, 127
5, 7008, Note_on_c, 9, 42, 80
5, 7032, Note_on_c, 9, 42, 0
5, 7056, Note_on_c, 9, 38, 0
5, 7056, Note_on_c, 9, 42, 48
5, 7080, Note_on_c, 9, 42, 0
5, 7104, Note_on_c, 9, 35, 127
5, 7104, Note_on_c, 9, 42, 80
5, 7116, Note_on_c, 9, 35, 0
5, 7128, Note_on_c, 9, 42, 0
5, 7152, Note_on_c, 9, 42, 48
5, 7176, Note_on_c, 9, 42, 0
5, 7176, Note_on_c, 9, 35, 96
5, 7188, Note_on_c, 9, 35, 0
5, 7200, Note_on_c, 9, 38, 127
5, 7200, Note_on_c, 9, 42, 80
5, 7224, Note_on_c, 9, 42, 0
5, 7248, Note_on_c, 9, 38, 0
5, 7248, Note_on_c, 9, 42, 48
5, 7272, Note_on_c, 9, 42, 0
5, 7296, Note_on_c, 9, 35, 127
5, 7296, Note_on_c, 9, 42, 80
5, 7308, Note_on_c, 9, 35, 0
5, 7320, Note_on_c, 9, 42, 0
5, 7344, Note_on_c, 9, 42, 48
5, 7368, Note_on_c, 9, 42, 0
5, 7368, Note_on_c, 9, 35, 96
5, 7380, Note_on_c, 9, 35, 0
5, 7392, Note_on_c, 9, 38, 127
5, 7392, Note_on_c, 9, 42, 80
5, 7416, Note_on_c, 9, 42, 0
5, 7440, Note_on_c, 9, 38, 0
5, 7440, Note_on_c, 9, 42, 48
5, 7464, Note_on_c, 9, 42, 0
5, 7488, Note_on_c, 9, 35, 127
5, 7488, Note_on_c, 9, 42, 80
5, 7500, Note_on_c, 9, 35, 0
5, 7512, Note_on_c, 9, 42, 0
5, 7536, Note_on_c, 9, 42, 48
5, 7560, Note_on_c, 9, 42, 0
5, 7560, Note_on_c, 9, 35, 96
5, 7572, Note_on_c, 9, 35, 0
5, 7584, Note_on_c, 9, 38, 127
5, 7584, Note_on_c, 9, 42, 80
5, 7608, Note_on_c, 9, 42, 0
5, 7632, Note_on_c, 9, 38, 0
5, 7632, Note_on_c, 9, 42, 48
5, 7656, Note_on_c, 9, 42, 0
5, 7680, Note_on_c, 9, 35, 127
5, 7680, Note_on_c, 9, 42, 80
5, 7692, Note_on_c, 9, 35, 0
5, 7704, Note_on_c, 9, 42, 0
5, 7728, Note_on_c, 9, 42, 48
5, 7752, Note_on_c, 9, 42, 0
5, 7752, Note_on_c, 9, 35, 96
5, 7764, Note_on_c, 9, 35, 0
5, 7776, Note_on_c, 9, 38, 127
5, 7776, Note_on_c, 9, 42, 80
5, 7800, Note_on_c, 9, 42, 0
5, 7824, Note_on_c, 9, 38, 0
5, 7824, Note_on_c, 9, 42, 48
5, 7848, Note_on_c, 9, 42, 0
5, 7872, Note_on_c, 9, 35, 127
5, 7872, Note_on_c, 9, 42, 80
5, 7884, Note_on_c, 9, 35, 0
5, 7896, Note_on_c, 9, 42, 0
5, 7920, Note_on_c, 9, 42, 48
5, 7944, Note_on_c, 9, 42, 0
5, 7944, Note_on_c, 9, 35, 96
5, 7956, Note_on_c, 9, 35, 0
5, 7968, Note_on_c, 9, 38, 127
5, 7968, Note_on_c, 9, 42, 80
5, 7992, Note_on_c, 9, 42, 0
5, 8016, Note_on_c, 9, 38, 0
5, 8016, Note_on_c, 9, 35, 96
5, 8016, Note_on_c, 9, 42, 48
5, 8028, Note_on_c, 9, 35, 0
5, 8040, Note_on_c, 9, 42, 0
5, 8040, Note_on_c, 9, 46, 64
5, 8052, Note_on_c, 9, 46, 0
5, 8064, Note_on_c, 9, 35, 127
5, 8064, Note_on_c, 9, 42, 80
5, 8076, Note_on_c, 9, 35, 0
5, 8088, Note_on_c, 9, 42, 0
5, 8112, Note_on_c, 9, 42, 48
5, 8136, Note_on_c, 9, 42, 0
5, 8136, Note_on_c, 9, 35, 96
5, 8148, Note_on_c, 9, 35, 0
5, 8160, Note_on_c, 9, 38, 127
5, 8160, Note_on_c, 9, 42, 80
5, 8184, Note_on_c, 9, 42, 0
5, 8208, Note_on_c, 9, 38, 0
5, 8208, Note_on_c, 9, 42, 48
5, 8232, Note_on_c, 9, 42, 0
5, 8256, Note_on_c, 9, 35, 127
5, 8256, Note_on_c, 9, 42, 80
5, 8268, Note_on_c, 9, 35, 0
5, 8280, Note_on_c, 9, 42, 0
5, 8304, Note_on_c, 9, 42, 48
5, 8328, Note_on_c, 9, 42, 0
5, 8352, Note_on_c, 9, 38, 127
5, 8352, Note_on_c, 9, 42, 80
5, 8376, Note_on_c, 9, 42, 0
5, 8400, Note_on_c, 9, 38, 0
5, 8400, Note_on_c, 9, 35, 96
5, 8400, Note_on_c, 9, 46, 64
5, 8412, Note_on_c, 9, 35, 0
5, 8424, Note_on_c, 9, 46, 0
5, 8448, Note_on_c, 9, 35, 127
5, 8448, Note_on_c, 9, 42, 80
5, 8460, Note_on_c, 9, 35, 0
5, 8472, Note_on_c, 9, 42, 0
5, 8496, Note_on_c, 9, 42, 48
5, 8520, Note_on_c, 9, 42, 0
5, 8520, Note_on_c, 9, 35, 96
5, 8532, Note_on_c, 9, 35, 0
5, 8544, Note_on_c, 9, 38, 127
5, 8544, Note_on_c, 9, 42, 80
5, 8568, Note_on_c, 9, 42, 0
5, 8592, Note_on_c, 9, 38, 0
5, 8592, Note_on_c, 9, 42, 48
5, 8616, Note_on_c, 9, 42, 0
5, 8640, Note_on_c, 9, 35, 127
5, 8640, Note_on_c, 9, 42, 80
5, 8652, Note_on_c, 9, 35, 0
5, 8664, Note_on_c, 9, 42, 0
5, 8688, Note_on_c, 9, 42, 48
5, 8712, Note_on_c, 9, 42, 0
5, 8712, Note_on_c, 9, 35, 96
5, 8724, Note_on_c, 9, 35, 0
5, 8736, Note_on_c, 9, 38, 127
5, 8736, Note_on_c, 9, 42, 80
5, 8760, Note_on_c, 9, 42, 0
5, 8784, Note_on_c, 9, 38, 0
5, 8784, Note_on_c, 9, 42, 48
5, 8808, Note_on_c, 9, 42, 0
5, 8832, Note_on_c, 9, 35, 127
5, 8832, Note_on_c, 9, 42, 80
5, 8844, Note_on_c, 9, 35, 0
5, 8856, Note_on_c, 9, 42, 0
5, 8880, Note_on_c, 9, 42, 48
5, 8904, Note_on_c, 9, 42, 0
5, 8904, Note_on_c, 9, 35, 96
5, 8916, Note_on_c, 9, 35, 0
5, 8928, Note_on_c, 9, 38, 127
5, 8928, Note_on_c, 9, 42, 80
5, 8952, Note_on_c, 9, 42, 0
5, 8976, Note_on_c, 9, 38, 0
5, 8976, Note_on_c, 9, 42, 48
5, 9000, Note_on_c, 9, 42, 0
5, 9024, Note_on_c, 9, 35, 127
5, 9024, Note_on_c, 9, 42, 80
5, 9036, Note_on_c, 9, 35, 0
5, 9048, Note_on_c, 9, 42, 0
5, 9072, Note_on_c, 9, 42, 48
5, 9096, Note_on_c, 9, 42, 0
5, 9096, Note_on_c, 9, 35, 96
5, 9108, Note_on_c, 9, 35, 0
5, 9120, Note_on_c, 9, 38, 127
5, 9120, Note_on_c, 9, 42, 80
5, 9144, Note_on_c, 9, 42, 0
5, 9168, Note_on_c, 9, 38, 0
5, 9168, Note_on_c, 9, 42, 48
5, 9192, Note_on_c, 9, 42, 0
5, 9216, Note_on_c, 9, 35, 127
5, 9216, Note_on_c, 9, 42, 80
5, 9228, Note_on_c, 9, 35, 0
5, 9240, Note_on_c, 9, 42, 0
5, 9264, Note_on_c, 9, 42, 48
5, 9288, Note_on_c, 9, 42, 0
5, 9288, Note_on_c, 9, 35, 96
5, 9300, Note_on_c, 9, 35, 0
5, 9312, Note_on_c, 9, 38, 127
5, 9312, Note_on_c, 9, 42, 80
5, 9336, Note_on_c, 9, 42, 0
5, 9360, Note_on_c, 9, 38, 0
5, 9360, Note_on_c, 9, 42, 48
5, 9384, Note_on_c, 9, 42, 0
5, 9408, Note_on_c, 9, 35, 127
5, 9408, Note_on_c, 9, 42, 80
5, 9420, Note_on_c, 9, 35, 0
5, 9432, Note_on_c, 9, 42, 0
5, 9456, Note_on_c, 9, 42, 48
5, 9480, Note_on_c, 9, 42, 0
5, 9480, Note_on_c, 9, 35, 96
5, 9492, Note_on_c, 9, 35, 0
5, 9504, Note_on_c, 9, 38, 127
5, 9504, Note_on_c, 9, 42, 80
5, 9528, Note_on_c, 9, 42, 0
5, 9552, Note_on_c, 9, 38, 0
5, 9552, Note_on_c, 9, 42, 48
5, 9576, Note_on_c, 9, 42, 0
5, 9600, Note_on_c, 9, 35, 127
5, 9600, Note_on_c, 9, 42, 80
5, 9612, Note_on_c, 9, 35, 0
5, 9624, Note_on_c, 9, 42, 0
5, 9648, Note_on_c, 9, 42, 48
5, 9672, Note_on_c, 9, 42, 0
5, 9672, Note_on_c, 9, 35, 96
5, 9684, Note_on_c, 9, 35, 0
5, 9696, Note_on_c, 9, 38, 127
5, 9696, Note_on_c, 9, 42, 80
5, 9720, Note_on_c, 9, 42, 0
5, 9744, Note_on_c, 9, 38, 0
5, 9744, Note_on_c, 9, 35, 96
5, 9744, Note_on_c, 9, 42, 48
5, 9756, Note_on_c, 9, 35, 0
5, 9768, Note_on_c, 9, 42, 0
5, 9792, Note_on_c, 9, 35, 127
5, 9792, Note_on_c, 9, 42, 80
5, 9804, Note_on_c, 9, 35, 0
5, 9816, Note_on_c, 9, 42, 0
5, 9840, Note_on_c, 9, 42, 48
5, 9864, Note_on_c, 9, 42, 0
5, 9864, Note_on_c, 9, 35, 96
5, 9876, Note_on_c, 9, 35, 0
5, 9888, Note_on_c, 9, 38, 127
5, 9888, Note_on_c, 9, 42, 80
5, 9912, Note_on_c, 9, 42, 0
5, 9936, Note_on_c, 9, 38, 0
5, 9936, Note_on_c, 9, 42, 48
5, 9960, Note_on_c, 9, 42, 0
5, 9984, Note_on_c, 9, 35, 127
5, 9984, Note_on_c, 9, 42, 80
5, 9996, Note_on_c, 9, 35, 0
5, 10008, Note_on_c, 9, 42, 0
5, 10032, Note_on_c, 9, 42, 48
5, 10056, Note_on_c, 9, 42, 0
5, 10056, Note_on_c, 9, 35, 96
5, 10068, Note_on_c, 9, 35, 0
5, 10080, Note_on_c, 9, 38, 127
5, 10080, Note_on_c, 9, 42, 80
5, 10104, Note_on_c, 9, 42, 0
5, 10128, Note_on_c, 9, 38, 0
5, 10128, Note_on_c, 9, 46, 64
5, 10152, Note_on_c, 9, 46, 0
5, 10176, Note_on_c, 9, 35, 127
5, 10176, Note_on_c, 9, 42, 80
5, 10188, Note_on_c, 9, 35, 0
5, 10200, Note_on_c, 9, 42, 0
5, 10224, Note_on_c, 9, 42, 48
5, 10248, Note_on_c, 9, 42, 0
5, 10248, Note_on_c, 9, 35, 96
5, 10260, Note_on_c, 9, 35, 0
5, 10272, Note_on_c, 9, 38, 127
5, 10272, Note_on_c, 9, 42, 80
5, 10296, Note_on_c, 9, 42, 0
5, 10320, Note_on_c, 9, 38, 0
5, 10320, Note_on_c, 9, 42, 48
5, 10344, Note_on_c, 9, 42, 0
5, 10368, Note_on_c, 9, 35, 127
5, 10368, Note_on_c, 9, 42, 80
5, 10380, Note_on_c, 9, 35, 0
5, 10392, Note_on_c, 9, 42, 0
5, 10392, Note_on_c, 9, 35, 96
5, 10404, Note_on_c, 9, 35, 0
5, 10416, Note_on_c, 9, 42, 48
5, 10440, Note_on_c, 9, 42, 0
5, 10440, Note_on_c, 9, 35, 96
5, 10452, Note_on_c, 9, 35, 0
5, 10464, Note_on_c, 9, 38, 127
5, 10464, Note_on_c, 9, 42, 80
5, 10488, Note_on_c, 9, 42, 0
5, 10512, Note_on_c, 9, 38, 0
5, 10512, Note_on_c, 9, 35, 96
5, 10512, Note_on_c, 9, 42, 48
5, 10524, Note_on_c, 9, 35, 0
5, 10536, Note_on_c, 9, 42, 0
5, 10560, Note_on_c, 9, 35, 127
5, 10560, Note_on_c, 9, 42, 80
5, 10572, Note_on_c, 9, 35, 0
5, 10584, Note_on_c, 9, 42, 0
5, 10608, Note_on_c, 9, 42, 48
5, 10632, Note_on_c, 9, 42, 0
5, 10632, Note_on_c, 9, 35, 96
5, 10644, Note_on_c, 9, 35, 0
5, 10656, Note_on_c, 9, 38, 127
5, 10656, Note_on_c, 9, 42, 80
5, 10680, Note_on_c, 9, 42, 0
5, 10704, Note_on_c, 9, 38, 0
5, 10704, Note_on_c, 9, 42, 48
5, 10728, Note_on_c, 9, 42, 0
5, 10728, Note_on_c, 9, 35, 96
5, 10740, Note_on_c, 9, 35, 0
5, 10752, Note_on_c, 9, 35, 127
5, 10752, Note_on_c, 9, 42, 80
5, 10764, Note_on_c, 9, 35, 0
5, 10776, Note_on_c, 9, 42, 0
5, 10800, Note_on_c, 9, 42, 48
5, 10824, Note_on_c, 9, 42, 0
5, 10824, Note_on_c, 9, 35, 96
5, 10836, Note_on_c, 9, 35, 0
5, 10848, Note_on_c, 9, 38, 127
5, 10848, Note_on_c, 9, 42, 80
5, 10872, Note_on_c, 9, 42, 0
5, 10896, Note_on_c, 9, 38, 0
5, 10896, Note_on_c, 9, 46, 64
5, 10920, Note_on_c, 9, 46, 0
5, 10944, Note_on_c, 9, 35, 127
5, 10944, Note_on_c, 9, 42, 80
5, 10956, Note_on_c, 9, 35, 0
5, 10968, Note_on_c, 9, 42, 0
5, 10992, Note_on_c, 9, 42, 48
5, 11016, Note_on_c, 9, 42, 0
5, 11016, Note_on_c, 9, 35, 96
5, 11028, Note_on_c, 9, 35, 0
5, 11040, Note_on_c, 9, 38, 127
5, 11040, Note_on_c, 9, 42, 80
5, 11064, Note_on_c, 9, 42, 0
5, 11088, Note_on_c, 9, 38, 0
5, 11088, Note_on_c, 9, 42, 48
5, 11112, Note_on_c, 9, 42, 0
5, 11112, Note_on_c, 9, 48, 80
5, 11124, Note_on_c, 9, 48, 0
5, 11136, Note_on_c, 9, 35, 127
5, 11136, Note_on_c, 9, 42, 80
5, 11148, Note_on_c, 9, 35, 0
5, 11160, Note_on_c, 9, 42, 0
5, 11160, Note_on_c, 9, 45, 80
5, 11172, Note_on_c, 9, 45, 0
5, 11184, Note_on_c, 9, 42, 48
5, 11208, Note_on_c, 9, 42, 0
5, 11232, Note_on_c, 9, 38, 127
5, 11232, Note_on_c, 9, 42, 80
5, 11256, Note_on_c, 9, 42, 0
5, 11256, Note_on_c, 9, 35, 112
5, 11256, Note_on_c, 9, 46, 80
5, 11268, Note_on_c, 9, 46, 0
5, 11268, Note_on_c, 9, 35, 0
5, 11280, Note_on_c, 9, 38, 0
5, 11328, Note_on_c, 9, 35, 127
5, 11328, Note_on_c, 9, 49, 80
5, 11340, Note_on_c, 9, 35, 0
5, 11376, Note_on_c, 9, 49, 0
5, 11376, Note_on_c, 9, 42, 48
5, 11400, Note_on_c, 9, 42, 0
5, 11424, Note_on_c, 9, 38, 127
5, 11424, Note_on_c, 9, 42, 80
5, 11448, Note_on_c, 9, 42, 0
5, 11472, Note_on_c, 9, 38, 0
5, 11472, Note_on_c, 9, 42, 48
5, 11496, Note_on_c, 9, 42, 0
5, 11496, Note_on_c, 9, 35, 96
5, 11508, Note_on_c, 9, 35, 0
5, 11520, Note_on_c, 9, 35, 127
5, 11520, Note_on_c, 9, 42, 80
5, 11532, Note_on_c, 9, 35, 0
5, 11544, Note_on_c, 9, 42, 0
5, 11568, Note_on_c, 9, 42, 48
5, 11592, Note_on_c, 9, 42, 0
5, 11616, Note_on_c, 9, 38, 127
5, 11616, Note_on_c, 9, 42, 80
5, 11640, Note_on_c, 9, 42, 0
5, 11664, Note_on_c, 9, 38, 0
5, 11664, Note_on_c, 9, 42, 48
5, 11688, Note_on_c, 9, 42, 0
5, 11712, Note_on_c, 9, 35, 127
5, 11712, Note_on_c, 9, 42, 80
5, 11724, Note_on_c, 9, 35, 0
5, 11736, Note_on_c, 9, 42, 0
5, 11760, Note_on_c, 9, 42, 48
5, 11784, Note_on_c, 9, 42, 0
5, 11808, Note_on_c, 9, 38, 127
5, 11808, Note_on_c, 9, 42, 80
5, 11832, Note_on_c, 9, 42, 0
5, 11856, Note_on_c, 9, 38, 0
5, 11856, Note_on_c, 9, 42, 48
5, 11880, Note_on_c, 9, 42, 0
5, 11880, Note_on_c, 9, 35, 96
5, 11892, Note_on_c, 9, 35, 0
5, 11904, Note_on_c, 9, 35, 127
5, 11904, Note_on_c, 9, 42, 80
5, 11916, Note_on_c, 9, 35, 0
5, 11928, Note_on_c, 9, 42, 0
5, 11952, Note_on_c, 9, 42, 48
5, 11976, Note_on_c, 9, 42, 0
5, 12000, Note_on_c, 9, 38, 127
5, 12000, Note_on_c, 9, 42, 80
5, 12024, Note_on_c, 9, 42, 0
5, 12048, Note_on_c, 9, 38, 0
5, 12048, Note_on_c, 9, 42, 48
5, 12072, Note_on_c, 9, 42, 0
5, 12072, Note_on_c, 9, 46, 64
5, 12084, Note_on_c, 9, 46, 0
5, 12096, Note_on_c, 9, 35, 127
5, 12096, Note_on_c, 9, 42, 80
5, 12108, Note_on_c, 9, 35, 0
5, 12120, Note_on_c, 9, 42, 0
5, 12144, Note_on_c, 9, 42, 48
5, 12168, Note_on_c, 9, 42, 0
5, 12192, Note_on_c, 9, 38, 127
5, 12192, Note_on_c, 9, 42, 80
5, 12216, Note_on_c, 9, 42, 0
5, 12240, Note_on_c, 9, 38, 0
5, 12240, Note_on_c, 9, 42, 48
5, 12264, Note_on_c, 9, 42, 0
5, 12264, Note_on_c, 9, 35, 96
5, 12276, Note_on_c, 9, 35, 0
5, 12288, Note_on_c, 9, 35, 127
5, 12288, Note_on_c, 9, 42, 80
5, 12300, Note_on_c, 9, 35, 0
5, 12312, Note_on_c, 9, 42, 0
5, 12336, Note_on_c, 9, 42, 48
5, 12360, Note_on_c, 9, 42, 0
5, 12384, Note_on_c, 9, 38, 127
5, 12384, Note_on_c, 9, 42, 80
5, 12408, Note_on_c, 9, 42, 0
5, 12432, Note_on_c, 9, 38, 0
5, 12432, Note_on_c, 9, 42, 48
5, 12456, Note_on_c, 9, 42, 0
5, 12480, Note_on_c, 9, 35, 127
5, 12480, Note_on_c, 9, 42, 80
5, 12492, Note_on_c, 9, 35, 0
5, 12504, Note_on_c, 9, 42, 0
5, 12528, Note_on_c, 9, 42, 48
5, 12552, Note_on_c, 9, 42, 0
5, 12576, Note_on_c, 9, 38, 127
5, 12576, Note_on_c, 9, 42, 80
5, 12600, Note_on_c, 9, 42, 0
5, 12624, Note_on_c, 9, 38, 0
5, 12624, Note_on_c, 9, 42, 48
5, 12648, Note_on_c, 9, 42, 0
5, 12648, Note_on_c, 9, 35, 96
5, 12660, Note_on_c, 9, 35, 0
5, 12672, Note_on_c, 9, 35, 127
5, 12672, Note_on_c, 9, 42, 80
5, 12684, Note_on_c, 9, 35, 0
5, 12696, Note_on_c, 9, 42, 0
5, 12720, Note_on_c, 9, 42, 48
5, 12744, Note_on_c, 9, 42, 0
5, 12768, Note_on_c, 9, 38, 127
5, 12768, Note_on_c, 9, 42, 80
5, 12792, Note_on_c, 9, 42, 0
5, 12816, Note_on_c, 9, 38, 0
5, 12816, Note_on_c, 9, 46, 64
5, 12840, Note_on_c, 9, 46, 0
5, 12864, Note_on_c, 9, 35, 127
5, 12864, Note_on_c, 9, 42, 80
5, 12876, Note_on_c, 9, 35, 0
5, 12888, Note_on_c, 9, 42, 0
5, 12912, Note_on_c, 9, 42, 48
5, 12936, Note_on_c, 9, 42, 0
5, 12960, Note_on_c, 9, 38, 127
5, 12960, Note_on_c, 9, 42, 80
5, 12984, Note_on_c, 9, 42, 0
5, 13008, Note_on_c, 9, 38, 0
5, 13008, Note_on_c, 9, 42, 48
5, 13032, Note_on_c, 9, 42, 0
5, 13032, Note_on_c, 9, 35, 96
5, 13044, Note_on_c, 9, 35, 0
5, 13056, Note_on_c, 9, 35, 127
5, 13056, Note_on_c, 9, 42, 80
5, 13068, Note_on_c, 9, 35, 0
5, 13080, Note_on_c, 9, 42, 0
5, 13104, Note_on_c, 9, 42, 48
5, 13128, Note_on_c, 9, 42, 0
5, 13152, Note_on_c, 9, 38, 127
5, 13152, Note_on_c, 9, 42, 80
5, 13176, Note_on_c, 9, 42, 0
5, 13200, Note_on_c, 9, 38, 0
5, 13200, Note_on_c, 9, 42, 48
5, 13224, Note_on_c, 9, 42, 0
5, 13248, Note_on_c, 9, 35, 127
5, 13248, Note_on_c, 9, 42, 80
5, 13260, Note_on_c, 9, 35, 0
5, 13272, Note_on_c, 9, 42, 0
5, 13296, Note_on_c, 9, 42, 48
5, 13320, Note_on_c, 9, 42, 0
5, 13344, Note_on_c, 9, 38, 127
5, 13344, Note_on_c, 9, 42, 80
5, 13368, Note_on_c, 9, 42, 0
5, 13392, Note_on_c, 9, 38, 0
5, 13392, Note_on_c, 9, 42, 48
5, 13416, Note_on_c, 9, 42, 0
5, 13416, Note_on_c, 9, 35, 96
5, 13428, Note_on_c, 9, 35, 0
5, 13440, Note_on_c, 9, 35, 127
5, 13440, Note_on_c, 9, 42, 80
5, 13452, Note_on_c, 9, 35, 0
5, 13464, Note_on_c, 9, 42, 0
5, 13488, Note_on_c, 9, 42, 48
5, 13512, Note_on_c, 9, 42, 0
5, 13536, Note_on_c, 9, 38, 127
5, 13536, Note_on_c, 9, 42, 80
5, 13560, Note_on_c, 9, 42, 0
5, 13584, Note_on_c, 9, 38, 0
5, 13584, Note_on_c, 9, 42, 48
5, 13608, Note_on_c, 9, 42, 0
5, 13632, Note_on_c, 9, 35, 127
5, 13632, Note_on_c, 9, 42, 80
5, 13644, Note_on_c, 9, 35, 0
5, 13656, Note_on_c, 9, 42, 0
5, 13680, Note_on_c, 9, 42, 48
5, 13704, Note_on_c, 9, 42, 0
5, 13728, Note_on_c, 9, 38, 127
5, 13728, Note_on_c, 9, 42, 80
5, 13752, Note_on_c, 9, 42, 0
5, 13776, Note_on_c, 9, 38, 0
5, 13776, Note_on_c, 9, 42, 48
5, 13800, Note_on_c, 9, 42, 0
5, 13800, Note_on_c, 9, 35, 96
5, 13812, Note_on_c, 9, 35, 0
5, 13824, Note_on_c, 9, 35, 127
5, 13824, Note_on_c, 9, 42, 80
5, 13836, Note_on_c, 9, 35, 0
5, 13848, Note_on_c, 9, 42, 0
5, 13872, Note_on_c, 9, 42, 48
5, 13896, Note_on_c, 9, 42, 0
5, 13920, Note_on_c, 9, 38, 127
5, 13920, Note_on_c, 9, 42, 80
5, 13944, Note_on_c, 9, 42, 0
5, 13968, Note_on_c, 9, 38, 0
5, 13968, Note_on_c, 9, 42, 48
5, 13992, Note_on_c, 9, 42, 0
5, 14016, Note_on_c, 9, 35, 127
5, 14016, Note_on_c, 9, 42, 80
5, 14040, Note_on_c, 9, 42, 0
5, 14064, Note_on_c, 9, 35, 0
5, 14064, Note_on_c, 9, 42, 48
5, 14088, Note_on_c, 9, 42, 0
5, 14112, Note_on_c, 9, 38, 127
5, 14112, Note_on_c, 9, 42, 80
5, 14124, Note_on_c, 9, 38, 0
5, 14136, Note_on_c, 9, 42, 0
5, 14160, Note_on_c, 9, 42, 48
5, 14184, Note_on_c, 9, 42, 0
5, 14208, Note_on_c, 9, 35, 127
5, 14208, Note_on_c, 9, 42, 80
5, 14232, Note_on_c, 9, 42, 0
5, 14256, Note_on_c, 9, 35, 0
5, 14256, Note_on_c, 9, 42, 48
5, 14280, Note_on_c, 9, 42, 0
5, 14280, Note_on_c, 9, 38, 127
5, 14280, Note_on_c, 9, 46, 96
5, 14292, Note_on_c, 9, 46, 0
5, 14292, Note_on_c, 9, 38, 0
5, 14304, Note_on_c, 9, 35, 127
5, 14352, Note_on_c, 9, 35, 0
5, 14352, Note_on_c, 9, 41, 96
5, 14376, Note_on_c, 9, 41, 0
5, 14400, Note_on_c, 9, 35, 127
5, 14400, Note_on_c, 9, 49, 80
5, 14412, Note_on_c, 9, 35, 0
5, 14448, Note_on_c, 9, 49, 0
5, 14448, Note_on_c, 9, 42, 48
5, 14472, Note_on_c, 9, 42, 0
5, 14472, Note_on_c, 9, 35, 96
5, 14484, Note_on_c, 9, 35, 0
5, 14496, Note_on_c, 9, 38, 127
5, 14496, Note_on_c, 9, 42, 80
5, 14520, Note_on_c, 9, 42, 0
5, 14544, Note_on_c, 9, 38, 0
5, 14544, Note_on_c, 9, 42, 48
5, 14568, Note_on_c, 9, 42, 0
5, 14568, Note_on_c, 9, 35, 96
5, 14580, Note_on_c, 9, 35, 0
5, 14592, Note_on_c, 9, 35, 127
5, 14592, Note_on_c, 9, 42, 80
5, 14604, Note_on_c, 9, 35, 0
5, 14616, Note_on_c, 9, 42, 0
5, 14640, Note_on_c, 9, 42, 48
5, 14664, Note_on_c, 9, 42, 0
5, 14688, Note_on_c, 9, 38, 127
5, 14688, Note_on_c, 9, 42, 80
5, 14712, Note_on_c, 9, 42, 0
5, 14736, Note_on_c, 9, 38, 0
5, 14736, Note_on_c, 9, 46, 64
5, 14760, Note_on_c, 9, 46, 0
5, 14784, Note_on_c, 9, 35, 127
5, 14784, Note_on_c, 9, 42, 80
5, 14796, Note_on_c, 9, 35, 0
5, 14808, Note_on_c, 9, 42, 0
5, 14832, Note_on_c, 9, 42, 48
5, 14856, Note_on_c, 9, 42, 0
5, 14856, Note_on_c, 9, 35, 96
5, 14868, Note_on_c, 9, 35, 0
5, 14880, Note_on_c, 9, 38, 127
5, 14880, Note_on_c, 9, 42, 80
5, 14904, Note_on_c, 9, 42, 0
5, 14928, Note_on_c, 9, 38, 0
5, 14928, Note_on_c, 9, 42, 48
5, 14952, Note_on_c, 9, 42, 0
5, 14952, Note_on_c, 9, 35, 96
5, 14964, Note_on_c, 9, 35, 0
5, 14976, Note_on_c, 9, 35, 127
5, 14976, Note_on_c, 9, 42, 80
5, 14988, Note_on_c, 9, 35, 0
5, 15000, Note_on_c, 9, 42, 0
5, 15024, Note_on_c, 9, 42, 48
5, 15048, Note_on_c, 9, 42, 0
5, 15072, Note_on_c, 9, 38, 127
5, 15072, Note_on_c, 9, 42, 80
5, 15096, Note_on_c, 9, 42, 0
5, 15120, Note_on_c, 9, 38, 0
5, 15144, Note_on_c, 9, 46, 48
5, 15156, Note_on_c, 9, 46, 0
5, 15168, Note_on_c, 9, 35, 127
5, 15168, Note_on_c, 9, 42, 80
5, 15180, Note_on_c, 9, 35, 0
5, 15192, Note_on_c, 9, 42, 0
5, 15216, Note_on_c, 9, 42, 48
5, 15240, Note_on_c, 9, 42, 0
5, 15264, Note_on_c, 9, 38, 127
5, 15264, Note_on_c, 9, 42, 80
5, 15288, Note_on_c, 9, 42, 0
5, 15312, Note_on_c, 9, 38, 0
5, 15312, Note_on_c, 9, 42, 48
5, 15336, Note_on_c, 9, 42, 0
5, 15360, Note_on_c, 9, 35, 127
5, 15360, Note_on_c, 9, 42, 80
5, 15372, Note_on_c, 9, 35, 0
5, 15384, Note_on_c, 9, 42, 0
5, 15408, Note_on_c, 9, 42, 48
5, 15432, Note_on_c, 9, 42, 0
5, 15432, Note_on_c, 9, 35, 96
5, 15444, Note_on_c, 9, 35, 0
5, 15456, Note_on_c, 9, 38, 127
5, 15456, Note_on_c, 9, 49, 80
5, 15504, Note_on_c, 9, 49, 0
5, 15504, Note_on_c, 9, 38, 0
5, 15552, Note_on_c, 9, 35, 127
5, 15552, Note_on_c, 9, 42, 80
5, 15564, Note_on_c, 9, 35, 0
5, 15576, Note_on_c, 9, 42, 0
5, 15600, Note_on_c, 9, 42, 48
5, 15624, Note_on_c, 9, 42, 0
5, 15648, Note_on_c, 9, 38, 127
5, 15648, Note_on_c, 9, 42, 80
5, 15672, Note_on_c, 9, 42, 0
5, 15696, Note_on_c, 9, 38, 0
5, 15696, Note_on_c, 9, 42, 48
5, 15720, Note_on_c, 9, 42, 0
5, 15720, Note_on_c, 9, 45, 80
5, 15732, Note_on_c, 9, 45, 0
5, 15744, Note_on_c, 9, 35, 127
5, 15744, Note_on_c, 9, 42, 80
5, 15756, Note_on_c, 9, 35, 0
5, 15768, Note_on_c, 9, 42, 0
5, 15768, Note_on_c, 9, 41, 96
5, 15780, Note_on_c, 9, 41, 0
5, 15792, Note_on_c, 9, 42, 48
5, 15816, Note_on_c, 9, 42, 0
5, 15816, Note_on_c, 9, 35, 96
5, 15828, Note_on_c, 9, 35, 0
5, 15840, Note_on_c, 9, 38, 127
5, 15840, Note_on_c, 9, 42, 80
5, 15864, Note_on_c, 9, 42, 0
5, 15888, Note_on_c, 9, 38, 0
5, 15888, Note_on_c, 9, 46, 64
5, 15912, Note_on_c, 9, 46, 0
5, 15936, Note_on_c, 9, 35, 127
5, 15936, Note_on_c, 9, 42, 80
5, 15960, Note_on_c, 9, 42, 0
5, 15984, Note_on_c, 9, 35, 0
5, 15984, Note_on_c, 9, 42, 48
5, 16008, Note_on_c, 9, 42, 0
5, 16032, Note_on_c, 9, 38, 127
5, 16032, Note_on_c, 9, 42, 80
5, 16056, Note_on_c, 9, 42, 0
5, 16080, Note_on_c, 9, 38, 0
5, 16080, Note_on_c, 9, 42, 48
5, 16104, Note_on_c, 9, 42, 0
5, 16128, Note_on_c, 9, 35, 127
5, 16128, Note_on_c, 9, 42, 80
5, 16152, Note_on_c, 9, 42, 0
5, 16176, Note_on_c, 9, 35, 0
5, 16176, Note_on_c, 9, 42, 48
5, 16200, Note_on_c, 9, 42, 0
5, 16224, Note_on_c, 9, 38, 127
5, 16224, Note_on_c, 9, 42, 80
5, 16248, Note_on_c, 9, 42, 0
5, 16272, Note_on_c, 9, 38, 0
5, 16272, Note_on_c, 9, 42, 48
5, 16296, Note_on_c, 9, 42, 0
5, 16320, Note_on_c, 9, 35, 127
5, 16320, Note_on_c, 9, 42, 80
5, 16344, Note_on_c, 9, 42, 0
5, 16368, Note_on_c, 9, 35, 0
5, 16368, Note_on_c, 9, 46, 64
5, 16392, Note_on_c, 9, 46, 0
5, 16416, Note_on_c, 9, 38, 127
5, 16440, Note_on_c, 9, 48, 80
5, 16452, Note_on_c, 9, 48, 0
5, 16464, Note_on_c, 9, 38, 0
5, 16464, Note_on_c, 9, 45, 96
5, 16488, Note_on_c, 9, 45, 0
5, 16512, Note_on_c, 9, 35, 127
5, 16512, Note_on_c, 9, 49, 80
5, 16524, Note_on_c, 9, 35, 0
5, 16560, Note_on_c, 9, 49, 0
5, 16560, Note_on_c, 9, 42, 48
5, 16584, Note_on_c, 9, 42, 0
5, 16584, Note_on_c, 9, 35, 96
5, 16596, Note_on_c, 9, 35, 0
5, 16608, Note_on_c, 9, 38, 127
5, 16608, Note_on_c, 9, 42, 80
5, 16632, Note_on_c, 9, 42, 0
5, 16656, Note_on_c, 9, 38, 0
5, 16656, Note_on_c, 9, 42, 48
5, 16680, Note_on_c, 9, 42, 0
5, 16704, Note_on_c, 9, 35, 127
5, 16704, Note_on_c, 9, 42, 80
5, 16716, Note_on_c, 9, 35, 0
5, 16728, Note_on_c, 9, 42, 0
5, 16752, Note_on_c, 9, 42, 48
5, 16776, Note_on_c, 9, 42, 0
5, 16776, Note_on_c, 9, 35, 96
5, 16788, Note_on_c, 9, 35, 0
5, 16800, Note_on_c, 9, 38, 127
5, 16800, Note_on_c, 9, 42, 80
5, 16824, Note_on_c, 9, 42, 0
5, 16848, Note_on_c, 9, 38, 0
5, 16848, Note_on_c, 9, 42, 48
5, 16872, Note_on_c, 9, 42, 0
5, 16896, Note_on_c, 9, 35, 127
5, 16896, Note_on_c, 9, 42, 80
5, 16908, Note_on_c, 9, 35, 0
5, 16920, Note_on_c, 9, 42, 0
5, 16944, Note_on_c, 9, 42, 48
5, 16968, Note_on_c, 9, 42, 0
5, 16968, Note_on_c, 9, 35, 96
5, 16980, Note_on_c, 9, 35, 0
5, 16992, Note_on_c, 9, 38, 127
5, 16992, Note_on_c, 9, 42, 80
5, 17016, Note_on_c, 9, 42, 0
5, 17040, Note_on_c, 9, 38, 0
5, 17040, Note_on_c, 9, 42, 48
5, 17064, Note_on_c, 9, 42, 0
5, 17088, Note_on_c, 9, 35, 127
5, 17088, Note_on_c, 9, 42, 80
5, 17100, Note_on_c, 9, 35, 0
5, 17112, Note_on_c, 9, 42, 0
5, 17136, Note_on_c, 9, 42, 48
5, 17160, Note_on_c, 9, 42, 0
5, 17160, Note_on_c, 9, 35, 96
5, 17172, Note_on_c, 9, 35, 0
5, 17184, Note_on_c, 9, 38, 127
5, 17184, Note_on_c, 9, 42, 80
5, 17208, Note_on_c, 9, 42, 0
5, 17232, Note_on_c, 9, 38, 0
5, 17232, Note_on_c, 9, 42, 48
5, 17256, Note_on_c, 9, 42, 0
5, 17280, Note_on_c, 9, 35, 127
5, 17280, Note_on_c, 9, 42, 80
5, 17292, Note_on_c, 9, 35, 0
5, 17304, Note_on_c, 9, 42, 0
5, 17328, Note_on_c, 9, 42, 48
5, 17352, Note_on_c, 9, 42, 0
5, 17352, Note_on_c, 9, 35, 96
5, 17364, Note_on_c, 9, 35, 0
5, 17376, Note_on_c, 9, 38, 127
5, 17376, Note_on_c, 9, 42, 80
5, 17400, Note_on_c, 9, 42, 0
5, 17424, Note_on_c, 9, 38, 0
5, 17424, Note_on_c, 9, 42, 48
5, 17448, Note_on_c, 9, 42, 0
5, 17472, Note_on_c, 9, 35, 127
5, 17472, Note_on_c, 9, 42, 80
5, 17484, Note_on_c, 9, 35, 0
5, 17496, Note_on_c, 9, 42, 0
5, 17520, Note_on_c, 9, 42, 48
5, 17544, Note_on_c, 9, 42, 0
5, 17544, Note_on_c, 9, 35, 96
5, 17556, Note_on_c, 9, 35, 0
5, 17568, Note_on_c, 9, 38, 127
5, 17568, Note_on_c, 9, 42, 80
5, 17592, Note_on_c, 9, 42, 0
5, 17616, Note_on_c, 9, 38, 0
5, 17616, Note_on_c, 9, 42, 48
5, 17640, Note_on_c, 9, 42, 0
5, 17664, Note_on_c, 9, 35, 127
5, 17664, Note_on_c, 9, 42, 80
5, 17676, Note_on_c, 9, 35, 0
5, 17688, Note_on_c, 9, 42, 0
5, 17712, Note_on_c, 9, 42, 48
5, 17736, Note_on_c, 9, 42, 0
5, 17736, Note_on_c, 9, 35, 96
5, 17748, Note_on_c, 9, 35, 0
5, 17760, Note_on_c, 9, 38, 127
5, 17760, Note_on_c, 9, 42, 80
5, 17784, Note_on_c, 9, 42, 0
5, 17808, Note_on_c, 9, 38, 0
5, 17808, Note_on_c, 9, 35, 96
5, 17808, Note_on_c, 9, 42, 48
5, 17820, Note_on_c, 9, 35, 0
5, 17832, Note_on_c, 9, 42, 0
5, 17832, Note_on_c, 9, 46, 64
5, 17844, Note_on_c, 9, 46, 0
5, 17856, Note_on_c, 9, 35, 127
5, 17856, Note_on_c, 9, 42, 80
5, 17868, Note_on_c, 9, 35, 0
5, 17880, Note_on_c, 9, 42, 0
5, 17904, Note_on_c, 9, 42, 48
5, 17928, Note_on_c, 9, 42, 0
5, 17928, Note_on_c, 9, 35, 96
5, 17940, Note_on_c, 9, 35, 0
5, 17952, Note_on_c, 9, 38, 127
5, 17952, Note_on_c, 9, 42, 80
5, 17976, Note_on_c, 9, 42, 0
5, 18000, Note_on_c, 9, 38, 0
5, 18000, Note_on_c, 9, 42, 48
5, 18024, Note_on_c, 9, 42, 0
5, 18048, Note_on_c, 9, 35, 127
5, 18048, Note_on_c, 9, 42, 80
5, 18060, Note_on_c, 9, 35, 0
5, 18072, Note_on_c, 9, 42, 0
5, 18096, Note_on_c, 9, 42, 48
5, 18120, Note_on_c, 9, 42, 0
5, 18144, Note_on_c, 9, 38, 127
5, 18144, Note_on_c, 9, 42, 80
5, 18168, Note_on_c, 9, 42, 0
5, 18192, Note_on_c, 9, 38, 0
5, 18192, Note_on_c, 9, 35, 96
5, 18192, Note_on_c, 9, 46, 64
5, 18204, Note_on_c, 9, 35, 0
5, 18216, Note_on_c, 9, 46, 0
5, 18240, Note_on_c, 9, 35, 127
5, 18240, Note_on_c, 9, 42, 80
5, 18252, Note_on_c, 9, 35, 0
5, 18264, Note_on_c, 9, 42, 0
5, 18288, Note_on_c, 9, 42, 48
5, 18312, Note_on_c, 9, 42, 0
5, 18312, Note_on_c, 9, 35, 96
5, 18324, Note_on_c, 9, 35, 0
5, 18336, Note_on_c, 9, 38, 127
5, 18336, Note_on_c, 9, 42, 80
5, 18360, Note_on_c, 9, 42, 0
5, 18384, Note_on_c, 9, 38, 0
5, 18384, Note_on_c, 9, 42, 48
5, 18408, Note_on_c, 9, 42, 0
5, 18432, Note_on_c, 9, 35, 127
5, 18432, Note_on_c, 9, 42, 80
5, 18444, Note_on_c, 9, 35, 0
5, 18456, Note_on_c, 9, 42, 0
5, 18480, Note_on_c, 9, 42, 48
5, 18504, Note_on_c, 9, 42, 0
5, 18504, Note_on_c, 9, 35, 96
5, 18516, Note_on_c, 9, 35, 0
5, 18528, Note_on_c, 9, 38, 127
5, 18528, Note_on_c, 9, 42, 80
5, 18552, Note_on_c, 9, 42, 0
5, 18576, Note_on_c, 9, 38, 0
5, 18576, Note_on_c, 9, 42, 48
5, 18600, Note_on_c, 9, 42, 0
5, 18624, Note_on_c, 9, 35, 127
5, 18624, Note_on_c, 9, 42, 80
5, 18636, Note_on_c, 9, 35, 0
5, 18648, Note_on_c, 9, 42, 0
5, 18672, Note_on_c, 9, 42, 48
5, 18696, Note_on_c, 9, 42, 0
5, 18696, Note_on_c, 9, 35, 96
5, 18708, Note_on_c, 9, 35, 0
5, 18720, Note_on_c, 9, 38, 127
5, 18720, Note_on_c, 9, 42, 80
5, 18744, Note_on_c, 9, 42, 0
5, 18768, Note_on_c, 9, 38, 0
5, 18768, Note_on_c, 9, 42, 48
5, 18792, Note_on_c, 9, 42, 0
5, 18816, Note_on_c, 9, 35, 127
5, 18816, Note_on_c, 9, 42, 80
5, 18828, Note_on_c, 9, 35, 0
5, 18840, Note_on_c, 9, 42, 0
5, 18864, Note_on_c, 9, 42, 48
5, 18888, Note_on_c, 9, 42, 0
5, 18888, Note_on_c, 9, 35, 96
5, 18900, Note_on_c, 9, 35, 0
5, 18912, Note_on_c, 9, 38, 127
5, 18912, Note_on_c, 9, 42, 80
5, 18936, Note_on_c, 9, 42, 0
5, 18960, Note_on_c, 9, 38, 0
5, 18960, Note_on_c, 9, 42, 48
5, 18984, Note_on_c, 9, 42, 0
5, 19008, Note_on_c, 9, 35, 127
5, 19008, Note_on_c, 9, 42, 80
5, 19020, Note_on_c, 9, 35, 0
5, 19032, Note_on_c, 9, 42, 0
5, 19056, Note_on_c, 9, 42, 48
5, 19080, Note_on_c, 9, 42, 0
5, 19080, Note_on_c, 9, 35, 96
5, 19092, Note_on_c, 9, 35, 0
5, 19104, Note_on_c, 9, 38, 127
5, 19104, Note_on_c, 9, 42, 80
5, 19128, Note_on_c, 9, 42, 0
5, 19152, Note_on_c, 9, 38, 0
5, 19152, Note_on_c, 9, 42, 48
5, 19176, Note_on_c, 9, 42, 0
5, 19200, Note_on_c, 9, 35, 127
5, 19200, Note_on_c, 9, 42, 80
5, 19212, Note_on_c, 9, 35, 0
5, 19224, Note_on_c, 9, 42, 0
5, 19248, Note_on_c, 9, 42, 48
5, 19272, Note_on_c, 9, 42, 0
5, 19272, Note_on_c, 9, 35, 96
5, 19284, Note_on_c, 9, 35, 0
5, 19296, Note_on_c, 9, 38, 127
5, 19296, Note_on_c, 9, 42, 80
5, 19320, Note_on_c, 9, 42, 0
5, 19344, Note_on_c, 9, 38, 0
5, 19344, Note_on_c, 9, 42, 48
5, 19368, Note_on_c, 9, 42, 0
5, 19392, Note_on_c, 9, 35, 127
5, 19392, Note_on_c, 9, 42, 80
5, 19404, Note_on_c, 9, 35, 0
5, 19416, Note_on_c, 9, 42, 0
5, 19440, Note_on_c, 9, 42, 48
5, 19464, Note_on_c, 9, 42, 0
5, 19464, Note_on_c, 9, 35, 96
5, 19476, Note_on_c, 9, 35, 0
5, 19488, Note_on_c, 9, 38, 127
5, 19488, Note_on_c, 9, 42, 80
5, 19512, Note_on_c, 9, 42, 0
5, 19536, Note_on_c, 9, 38, 0
5, 19536, Note_on_c, 9, 35, 96
5, 19536, Note_on_c, 9, 42, 48
5, 19548, Note_on_c, 9, 35, 0
5, 19560, Note_on_c, 9, 42, 0
5, 19584, Note_on_c, 9, 35, 127
5, 19584, Note_on_c, 9, 42, 80
5, 19596, Note_on_c, 9, 35, 0
5, 19608, Note_on_c, 9, 42, 0
5, 19632, Note_on_c, 9, 42, 48
5, 19656, Note_on_c, 9, 42, 0
5, 19656, Note_on_c, 9, 35, 96
5, 19668, Note_on_c, 9, 35, 0
5, 19680, Note_on_c, 9, 38, 127
5, 19680, Note_on_c, 9, 42, 80
5, 19704, Note_on_c, 9, 42, 0
5, 19728, Note_on_c, 9, 38, 0
5, 19728, Note_on_c, 9, 42, 48
5, 19752, Note_on_c, 9, 42, 0
5, 19776, Note_on_c, 9, 35, 127
5, 19776, Note_on_c, 9, 42, 80
5, 19788, Note_on_c, 9, 35, 0
5, 19800, Note_on_c, 9, 42, 0
5, 19824, Note_on_c, 9, 42, 48
5, 19848, Note_on_c, 9, 42, 0
5, 19848, Note_on_c, 9, 35, 96
5, 19860, Note_on_c, 9, 35, 0
5, 19872, Note_on_c, 9, 38, 127
5, 19872, Note_on_c, 9, 42, 80
5, 19896, Note_on_c, 9, 42, 0
5, 19920, Note_on_c, 9, 38, 0
5, 19920, Note_on_c, 9, 46, 64
5, 19944, Note_on_c, 9, 46, 0
5, 19968, Note_on_c, 9, 35, 127
5, 19968, Note_on_c, 9, 42, 80
5, 19980, Note_on_c, 9, 35, 0
5, 19992, Note_on_c, 9, 42, 0
5, 20016, Note_on_c, 9, 42, 48
5, 20040, Note_on_c, 9, 42, 0
5, 20040, Note_on_c, 9, 35, 96
5, 20052, Note_on_c, 9, 35, 0
5, 20064, Note_on_c, 9, 38, 127
5, 20064, Note_on_c, 9, 42, 80
5, 20088, Note_on_c, 9, 42, 0
5, 20112, Note_on_c, 9, 38, 0
5, 20112, Note_on_c, 9, 42, 48
5, 20136, Note_on_c, 9, 42, 0
5, 20160, Note_on_c, 9, 35, 127
5, 20160, Note_on_c, 9, 42, 80
5, 20172, Note_on_c, 9, 35, 0
5, 20184, Note_on_c, 9, 42, 0
5, 20184, Note_on_c, 9, 35, 96
5, 20196, Note_on_c, 9, 35, 0
5, 20208, Note_on_c, 9, 42, 48
5, 20232, Note_on_c, 9, 42, 0
5, 20232, Note_on_c, 9, 35, 96
5, 20244, Note_on_c, 9, 35, 0
5, 20256, Note_on_c, 9, 38, 127
5, 20256, Note_on_c, 9, 42, 80
5, 20280, Note_on_c, 9, 42, 0
5, 20304, Note_on_c, 9, 38, 0
5, 20304, Note_on_c, 9, 35, 96
5, 20304, Note_on_c, 9, 42, 48
5, 20316, Note_on_c, 9, 35, 0
5, 20328, Note_on_c, 9, 42, 0
5, 20352, Note_on_c, 9, 35, 127
5, 20352, Note_on_c, 9, 42, 80
5, 20364, Note_on_c, 9, 35, 0
5, 20376, Note_on_c, 9, 42, 0
5, 20400, Note_on_c, 9, 42, 48
5, 20424, Note_on_c, 9, 42, 0
5, 20424, Note_on_c, 9, 35, 96
5, 20436, Note_on_c, 9, 35, 0
5, 20448, Note_on_c, 9, 38, 127
5, 20448, Note_on_c, 9, 42, 80
5, 20472, Note_on_c, 9, 42, 0
5, 20496, Note_on_c, 9, 38, 0
5, 20496, Note_on_c, 9, 42, 48
5, 20520, Note_on_c, 9, 42, 0
5, 20520, Note_on_c, 9, 35, 96
5, 20532, Note_on_c, 9, 35, 0
5, 20544, Note_on_c, 9, 35, 127
5, 20544, Note_on_c, 9, 42, 80
5, 20556, Note_on_c, 9, 35, 0
5, 20568, Note_on_c, 9, 42, 0
5, 20592, Note_on_c, 9, 42, 48
5, 20616, Note_on_c, 9, 42, 0
5, 20616, Note_on_c, 9, 35, 96
5, 20628, Note_on_c, 9, 35, 0
5, 20640, Note_on_c, 9, 38, 127
5, 20640, Note_on_c, 9, 42, 80
5, 20664, Note_on_c, 9, 42, 0
5, 20688, Note_on_c, 9, 38, 0
5, 20688, Note_on_c, 9, 46, 64
5, 20712, Note_on_c, 9, 46, 0
5, 20736, Note_on_c, 9, 35, 127
5, 20736, Note_on_c, 9, 42, 80
5, 20748, Note_on_c, 9, 35, 0
5, 20760, Note_on_c, 9, 42, 0
5, 20784, Note_on_c, 9, 42, 48
5, 20808, Note_on_c, 9, 42, 0
5, 20808, Note_on_c, 9, 35, 96
5, 20820, Note_on_c, 9, 35, 0
5, 20832, Note_on_c, 9, 38, 127
5, 20832, Note_on_c, 9, 42, 80
5, 20856, Note_on_c, 9, 42, 0
5, 20880, Note_on_c, 9, 38, 0
5, 20880, Note_on_c, 9, 42, 48
5, 20904, Note_on_c, 9, 42, 0
5, 20928, Note_on_c, 9, 35, 127
5, 20928, Note_on_c, 9, 42, 80
5, 20940, Note_on_c, 9, 35, 0
5, 20952, Note_on_c, 9, 42, 0
5, 20976, Note_on_c, 9, 42, 48
5, 21000, Note_on_c, 9, 42, 0
5, 21000, Note_on_c, 9, 35, 96
5, 21012, Note_on_c, 9, 35, 0
5, 21024, Note_on_c, 9, 38, 127
5, 21024, Note_on_c, 9, 42, 80
5, 21048, Note_on_c, 9, 42, 0
5, 21048, Note_on_c, 9, 48, 80
5, 21060, Note_on_c, 9, 48, 0
5, 21072, Note_on_c, 9, 38, 0
5, 21072, Note_on_c, 9, 45, 96
5, 21096, Note_on_c, 9, 45, 0
5, 21120, Note_on_c, 9, 35, 127
5, 21120, Note_on_c, 9, 49, 80
5, 21132, Note_on_c, 9, 35, 0
5, 21168, Note_on_c, 9, 49, 0
5, 21168, Note_on_c, 9, 42, 48
5, 21192, Note_on_c, 9, 42, 0
5, 21192, Note_on_c, 9, 35, 96
5, 21204, Note_on_c, 9, 35, 0
5, 21216, Note_on_c, 9, 38, 127
5, 21216, Note_on_c, 9, 42, 80
5, 21240, Note_on_c, 9, 42, 0
5, 21264, Note_on_c, 9, 38, 0
5, 21264, Note_on_c, 9, 42, 48
5, 21288, Note_on_c, 9, 42, 0
5, 21312, Note_on_c, 9, 35, 127
5, 21312, Note_on_c, 9, 42, 80
5, 21324, Note_on_c, 9, 35, 0
5, 21336, Note_on_c, 9, 42, 0
5, 21360, Note_on_c, 9, 42, 48
5, 21384, Note_on_c, 9, 42, 0
5, 21408, Note_on_c, 9, 38, 127
5, 21408, Note_on_c, 9, 42, 80
5, 21432, Note_on_c, 9, 42, 0
5, 21456, Note_on_c, 9, 38, 0
5, 21456, Note_on_c, 9, 42, 48
5, 21480, Note_on_c, 9, 42, 0
5, 21504, Note_on_c, 9, 35, 127
5, 21504, Note_on_c, 9, 42, 80
5, 21516, Note_on_c, 9, 35, 0
5, 21528, Note_on_c, 9, 42, 0
5, 21552, Note_on_c, 9, 42, 48
5, 21576, Note_on_c, 9, 42, 0
5, 21576, Note_on_c, 9, 35, 96
5, 21588, Note_on_c, 9, 35, 0
5, 21600, Note_on_c, 9, 38, 127
5, 21600, Note_on_c, 9, 42, 80
5, 21624, Note_on_c, 9, 42, 0
5, 21648, Note_on_c, 9, 38, 0
5, 21648, Note_on_c, 9, 42, 48
5, 21672, Note_on_c, 9, 42, 0
5, 21672, Note_on_c, 9, 35, 96
5, 21684, Note_on_c, 9, 35, 0
5, 21696, Note_on_c, 9, 35, 127
5, 21696, Note_on_c, 9, 42, 80
5, 21708, Note_on_c, 9, 35, 0
5, 21720, Note_on_c, 9, 42, 0
5, 21744, Note_on_c, 9, 42, 48
5, 21768, Note_on_c, 9, 42, 0
5, 21792, Note_on_c, 9, 38, 127
5, 21792, Note_on_c, 9, 42, 80
5, 21816, Note_on_c, 9, 42, 0
5, 21840, Note_on_c, 9, 38, 0
5, 21840, Note_on_c, 9, 42, 48
5, 21864, Note_on_c, 9, 42, 0
5, 21888, Note_on_c, 9, 35, 127
5, 21888, Note_on_c, 9, 42, 80
5, 21900, Note_on_c, 9, 35, 0
5, 21912, Note_on_c, 9, 42, 0
5, 21936, Note_on_c, 9, 42, 48
5, 21960, Note_on_c, 9, 42, 0
5, 21960, Note_on_c, 9, 35, 96
5, 21972, Note_on_c, 9, 35, 0
5, 21984, Note_on_c, 9, 38, 127
5, 21984, Note_on_c, 9, 42, 80
5, 22008, Note_on_c, 9, 42, 0
5, 22032, Note_on_c, 9, 38, 0
5, 22032, Note_on_c, 9, 42, 48
5, 22056, Note_on_c, 9, 42, 0
5, 22080, Note_on_c, 9, 35, 127
5, 22080, Note_on_c, 9, 42, 80
5, 22092, Note_on_c, 9, 35, 0
5, 22104, Note_on_c, 9, 42, 0
5, 22128, Note_on_c, 9, 42, 48
5, 22152, Note_on_c, 9, 42, 0
5, 22152, Note_on_c, 9, 35, 96
5, 22164, Note_on_c, 9, 35, 0
5, 22176, Note_on_c, 9, 38, 127
5, 22176, Note_on_c, 9, 42, 80
5, 22200, Note_on_c, 9, 42, 0
5, 22224, Note_on_c, 9, 38, 0
5, 22224, Note_on_c, 9, 35, 96
5, 22224, Note_on_c, 9, 46, 48
5, 22236, Note_on_c, 9, 35, 0
5, 22248, Note_on_c, 9, 46, 0
5, 22272, Note_on_c, 9, 35, 127
5, 22272, Note_on_c, 9, 49, 80
5, 22320, Note_on_c, 9, 49, 0
5, 22320, Note_on_c, 9, 35, 0
5, 22320, Note_on_c, 9, 42, 48
5, 22344, Note_on_c, 9, 42, 0
5, 22368, Note_on_c, 9, 38, 127
5, 22368, Note_on_c, 9, 42, 80
5, 22392, Note_on_c, 9, 42, 0
5, 22416, Note_on_c, 9, 38, 0
5, 22416, Note_on_c, 9, 42, 48
5, 22440, Note_on_c, 9, 42, 0
5, 22464, Note_on_c, 9, 35, 127
5, 22464, Note_on_c, 9, 42, 80
5, 22488, Note_on_c, 9, 42, 0
5, 22512, Note_on_c, 9, 35, 0
5, 22512, Note_on_c, 9, 42, 48
5, 22536, Note_on_c, 9, 42, 0
5, 22560, Note_on_c, 9, 38, 127
5, 22560, Note_on_c, 9, 42, 80
5, 22584, Note_on_c, 9, 42, 0
5, 22608, Note_on_c, 9, 38, 0
5, 22608, Note_on_c, 9, 42, 48
5, 22632, Note_on_c, 9, 42, 0
5, 22656, Note_on_c, 9, 35, 127
5, 22656, Note_on_c, 9, 42, 80
5, 22680, Note_on_c, 9, 42, 0
5, 22704, Note_on_c, 9, 35, 0
5, 22704, Note_on_c, 9, 46, 64
5, 22728, Note_on_c, 9, 46, 0
5, 22752, Note_on_c, 9, 38, 127
5, 22776, Note_on_c, 9, 48, 80
5, 22788, Note_on_c, 9, 48, 0
5, 22800, Note_on_c, 9, 38, 0
5, 22800, Note_on_c, 9, 45, 96
5, 22824, Note_on_c, 9, 45, 0
5, 22848, Note_on_c, 9, 35, 127
5, 22848, Note_on_c, 9, 49, 80
5, 22860, Note_on_c, 9, 35, 0
5, 22896, Note_on_c, 9, 49, 0
5, 22896, Note_on_c, 9, 42, 48
5, 22920, Note_on_c, 9, 42, 0
5, 22920, Note_on_c, 9, 35, 96
5, 22932, Note_on_c, 9, 35, 0
5, 22944, Note_on_c, 9, 38, 127
5, 22944, Note_on_c, 9, 42, 80
5, 22968, Note_on_c, 9, 42, 0
5, 22992, Note_on_c, 9, 38, 0
5, 22992, Note_on_c, 9, 42, 48
5, 23016, Note_on_c, 9, 42, 0
5, 23016, Note_on_c, 9, 35, 96
5, 23028, Note_on_c, 9, 35, 0
5, 23040, Note_on_c, 9, 35, 127
5, 23040, Note_on_c, 9, 42, 80
5, 23052, Note_on_c, 9, 35, 0
5, 23064, Note_on_c, 9, 42, 0
5, 23088, Note_on_c, 9, 42, 48
5, 23112, Note_on_c, 9, 42, 0
5, 23112, Note_on_c, 9, 35, 96
5, 23124, Note_on_c, 9, 35, 0
5, 23136, Note_on_c, 9, 38, 127
5, 23136, Note_on_c, 9, 42, 80
5, 23160, Note_on_c, 9, 42, 0
5, 23184, Note_on_c, 9, 38, 0
5, 23184, Note_on_c, 9, 42, 48
5, 23208, Note_on_c, 9, 42, 0
5, 23232, Note_on_c, 9, 35, 127
5, 23232, Note_on_c, 9, 42, 80
5, 23244, Note_on_c, 9, 35, 0
5, 23256, Note_on_c, 9, 42, 0
5, 23280, Note_on_c, 9, 42, 48
5, 23304, Note_on_c, 9, 42, 0
5, 23304, Note_on_c, 9, 35, 96
5, 23316, Note_on_c, 9, 35, 0
5, 23328, Note_on_c, 9, 38, 127
5, 23328, Note_on_c, 9, 42, 80
5, 23352, Note_on_c, 9, 42, 0
5, 23376, Note_on_c, 9, 38, 0
5, 23376, Note_on_c, 9, 42, 48
5, 23400, Note_on_c, 9, 42, 0
5, 23400, Note_on_c, 9, 35, 96
5, 23412, Note_on_c, 9, 35, 0
5, 23424, Note_on_c, 9, 35, 127
5, 23424, Note_on_c, 9, 42, 80
5, 23436, Note_on_c, 9, 35, 0
5, 23448, Note_on_c, 9, 42, 0
5, 23448, Note_on_c, 9, 46, 48
5, 23460, Note_on_c, 9, 46, 0
5, 23472, Note_on_c, 9, 42, 48
5, 23496, Note_on_c, 9, 42, 0
5, 23496, Note_on_c, 9, 35, 96
5, 23508, Note_on_c, 9, 35, 0
5, 23520, Note_on_c, 9, 38, 127
5, 23520, Note_on_c, 9, 42, 80
5, 23544, Note_on_c, 9, 42, 0
5, 23568, Note_on_c, 9, 38, 0
5, 23568, Note_on_c, 9, 42, 48
5, 23592, Note_on_c, 9, 42, 0
5, 23616, Note_on_c, 9, 35, 127
5, 23616, Note_on_c, 9, 42, 80
5, 23628, Note_on_c, 9, 35, 0
5, 23640, Note_on_c, 9, 42, 0
5, 23664, Note_on_c, 9, 42, 48
5, 23688, Note_on_c, 9, 42, 0
5, 23688, Note_on_c, 9, 35, 96
5, 23700, Note_on_c, 9, 35, 0
5, 23712, Note_on_c, 9, 38, 127
5, 23712, Note_on_c, 9, 42, 80
5, 23736, Note_on_c, 9, 42, 0
5, 23760, Note_on_c, 9, 38, 0
5, 23760, Note_on_c, 9, 42, 48
5, 23784, Note_on_c, 9, 42, 0
5, 23784, Note_on_c, 9, 35, 96
5, 23796, Note_on_c, 9, 35, 0
5, 23808, Note_on_c, 9, 35, 127
5, 23808, Note_on_c, 9, 42, 80
5, 23820, Note_on_c, 9, 35, 0
5, 23832, Note_on_c, 9, 42, 0
5, 23856, Note_on_c, 9, 42, 48
5, 23880, Note_on_c, 9, 42, 0
5, 23880, Note_on_c, 9, 35, 96
5, 23892, Note_on_c, 9, 35, 0
5, 23904, Note_on_c, 9, 38, 127
5, 23904, Note_on_c, 9, 42, 80
5, 23928, Note_on_c, 9, 42, 0
5, 23952, Note_on_c, 9, 38, 0
5, 23952, Note_on_c, 9, 42, 48
5, 23976, Note_on_c, 9, 42, 0
5, 24000, Note_on_c, 9, 35, 127
5, 24000, Note_on_c, 9, 42, 80
5, 24012, Note_on_c, 9, 35, 0
5, 24024, Note_on_c, 9, 42, 0
5, 24048, Note_on_c, 9, 42, 48
5, 24072, Note_on_c, 9, 42, 0
5, 24072, Note_on_c, 9, 35, 96
5, 24084, Note_on_c, 9, 35, 0
5, 24096, Note_on_c, 9, 38, 127
5, 24096, Note_on_c, 9, 42, 80
5, 24120, Note_on_c, 9, 42, 0
5, 24144, Note_on_c, 9, 38, 0
5, 24144, Note_on_c, 9, 42, 48
5, 24168, Note_on_c, 9, 42, 0
5, 24168, Note_on_c, 9, 46, 48
5, 24180, Note_on_c, 9, 46, 0
5, 24192, Note_on_c, 9, 35, 127
5, 24192, Note_on_c, 9, 42, 80
5, 24204, Note_on_c, 9, 35, 0
5, 24216, Note_on_c, 9, 42, 0
5, 24216, Note_on_c, 9, 46, 48
5, 24228, Note_on_c, 9, 46, 0
5, 24240, Note_on_c, 9, 42, 48
5, 24264, Note_on_c, 9, 42, 0
5, 24264, Note_on_c, 9, 35, 96
5, 24276, Note_on_c, 9, 35, 0
5, 24288, Note_on_c, 9, 38, 127
5, 24288, Note_on_c, 9, 42, 80
5, 24312, Note_on_c, 9, 42, 0
5, 24336, Note_on_c, 9, 38, 0
5, 24336, Note_on_c, 9, 42, 48
5, 24360, Note_on_c, 9, 42, 0
5, 24360, Note_on_c, 9, 35, 96
5, 24372, Note_on_c, 9, 35, 0
5, 24384, Note_on_c, 9, 35, 127
5, 24384, Note_on_c, 9, 42, 80
5, 24396, Note_on_c, 9, 35, 0
5, 24408, Note_on_c, 9, 42, 0
5, 24432, Note_on_c, 9, 42, 48
5, 24456, Note_on_c, 9, 42, 0
5, 24456, Note_on_c, 9, 35, 96
5, 24468, Note_on_c, 9, 35, 0
5, 24480, Note_on_c, 9, 38, 127
5, 24480, Note_on_c, 9, 42, 80
5, 24504, Note_on_c, 9, 42, 0
5, 24528, Note_on_c, 9, 38, 0
5, 24528, Note_on_c, 9, 35, 96
5, 24528, Note_on_c, 9, 46, 64
5, 24540, Note_on_c, 9, 46, 0
5, 24540, Note_on_c, 9, 35, 0
5, 24576, Note_on_c, 9, 35, 127
5, 24576, Note_on_c, 9, 42, 80
5, 24588, Note_on_c, 9, 35, 0
5, 24600, Note_on_c, 9, 42, 0
5, 24624, Note_on_c, 9, 42, 48
5, 24648, Note_on_c, 9, 42, 0
5, 24648, Note_on_c, 9, 35, 96
5, 24660, Note_on_c, 9, 35, 0
5, 24672, Note_on_c, 9, 38, 127
5, 24672, Note_on_c, 9, 42, 80
5, 24696, Note_on_c, 9, 42, 0
5, 24720, Note_on_c, 9, 38, 0
5, 24720, Note_on_c, 9, 42, 48
5, 24744, Note_on_c, 9, 42, 0
5, 24744, Note_on_c, 9, 35, 96
5, 24756, Note_on_c, 9, 35, 0
5, 24768, Note_on_c, 9, 35, 127
5, 24768, Note_on_c, 9, 42, 80
5, 24780, Note_on_c, 9, 35, 0
5, 24792, Note_on_c, 9, 42, 0
5, 24816, Note_on_c, 9, 42, 48
5, 24840, Note_on_c, 9, 42, 0
5, 24840, Note_on_c, 9, 35, 96
5, 24852, Note_on_c, 9, 35, 0
5, 24864, Note_on_c, 9, 38, 127
5, 24864, Note_on_c, 9, 42, 80
5, 24888, Note_on_c, 9, 42, 0
5, 24912, Note_on_c, 9, 38, 0
5, 24912, Note_on_c, 9, 35, 96
5, 24912, Note_on_c, 9, 42, 48
5, 24924, Note_on_c, 9, 35, 0
5, 24936, Note_on_c, 9, 42, 0
5, 24936, Note_on_c, 9, 46, 48
5, 24948, Note_on_c, 9, 46, 0
5, 24960, Note_on_c, 9, 35, 127
5, 24960, Note_on_c, 9, 42, 80
5, 24972, Note_on_c, 9, 35, 0
5, 24984, Note_on_c, 9, 42, 0
5, 25008, Note_on_c, 9, 42, 48
5, 25032, Note_on_c, 9, 42, 0
5, 25032, Note_on_c, 9, 35, 96
5, 25044, Note_on_c, 9, 35, 0
5, 25056, Note_on_c, 9, 38, 127
5, 25056, Note_on_c, 9, 42, 80
5, 25080, Note_on_c, 9, 42, 0
5, 25104, Note_on_c, 9, 38, 0
5, 25104, Note_on_c, 9, 42, 48
5, 25128, Note_on_c, 9, 42, 0
5, 25152, Note_on_c, 9, 35, 127
5, 25152, Note_on_c, 9, 42, 80
5, 25164, Note_on_c, 9, 35, 0
5, 25176, Note_on_c, 9, 42, 0
5, 25200, Note_on_c, 9, 42, 48
5, 25224, Note_on_c, 9, 42, 0
5, 25224, Note_on_c, 9, 35, 96
5, 25236, Note_on_c, 9, 35, 0
5, 25248, Note_on_c, 9, 38, 127
5, 25248, Note_on_c, 9, 42, 80
5, 25272, Note_on_c, 9, 42, 0
5, 25296, Note_on_c, 9, 38, 0
5, 25296, Note_on_c, 9, 35, 96
5, 25296, Note_on_c, 9, 42, 48
5, 25308, Note_on_c, 9, 35, 0
5, 25320, Note_on_c, 9, 42, 0
5, 25344, Note_on_c, 9, 35, 127
5, 25344, Note_on_c, 9, 42, 80
5, 25356, Note_on_c, 9, 35, 0
5, 25368, Note_on_c, 9, 42, 0
5, 25392, Note_on_c, 9, 42, 48
5, 25416, Note_on_c, 9, 42, 0
5, 25416, Note_on_c, 9, 35, 96
5, 25428, Note_on_c, 9, 35, 0
5, 25440, Note_on_c, 9, 38, 127
5, 25440, Note_on_c, 9, 42, 80
5, 25464, Note_on_c, 9, 42, 0
5, 25488, Note_on_c, 9, 38, 0
5, 25488, Note_on_c, 9, 42, 48
5, 25512, Note_on_c, 9, 42, 0
5, 25536, Note_on_c, 9, 35, 127
5, 25536, Note_on_c, 9, 42, 80
5, 25548, Note_on_c, 9, 35, 0
5, 25560, Note_on_c, 9, 42, 0
5, 25584, Note_on_c, 9, 42, 48
5, 25608, Note_on_c, 9, 42, 0
5, 25608, Note_on_c, 9, 35, 96
5, 25620, Note_on_c, 9, 35, 0
5, 25632, Note_on_c, 9, 38, 127
5, 25632, Note_on_c, 9, 42, 80
5, 25656, Note_on_c, 9, 42, 0
5, 25656, Note_on_c, 9, 35, 112
5, 25668, Note_on_c, 9, 35, 0
5, 25680, Note_on_c, 9, 38, 0
5, 25680, Note_on_c, 9, 46, 48
5, 25704, Note_on_c, 9, 46, 0
5, 25728, Note_on_c, 9, 35, 127
5, 25728, Note_on_c, 9, 42, 80
5, 25740, Note_on_c, 9, 35, 0
5, 25752, Note_on_c, 9, 42, 0
5, 25776, Note_on_c, 9, 42, 48
5, 25800, Note_on_c, 9, 42, 0
5, 25800, Note_on_c, 9, 35, 96
5, 25812, Note_on_c, 9, 35, 0
5, 25824, Note_on_c, 9, 38, 127
5, 25824, Note_on_c, 9, 42, 80
5, 25848, Note_on_c, 9, 42, 0
5, 25872, Note_on_c, 9, 38, 0
5, 25872, Note_on_c, 9, 35, 96
5, 25872, Note_on_c, 9, 46, 48
5, 25884, Note_on_c, 9, 35, 0
5, 25896, Note_on_c, 9, 46, 0
5, 25920, Note_on_c, 9, 35, 127
5, 25920, Note_on_c, 9, 42, 80
5, 25932, Note_on_c, 9, 35, 0
5, 25944, Note_on_c, 9, 42, 0
5, 25968, Note_on_c, 9, 42, 48
5, 25992, Note_on_c, 9, 42, 0
5, 25992, Note_on_c, 9, 35, 96
5, 26004, Note_on_c, 9, 35, 0
5, 26016, Note_on_c, 9, 38, 127
5, 26016, Note_on_c, 9, 42, 80
5, 26040, Note_on_c, 9, 42, 0
5, 26064, Note_on_c, 9, 38, 0
5, 26064, Note_on_c, 9, 42, 48
5, 26088, Note_on_c, 9, 42, 0
5, 26112, Note_on_c, 9, 35, 127
5, 26112, Note_on_c, 9, 42, 80
5, 26124, Note_on_c, 9, 35, 0
5, 26136, Note_on_c, 9, 42, 0
5, 26160, Note_on_c, 9, 42, 48
5, 26184, Note_on_c, 9, 42, 0
5, 26184, Note_on_c, 9, 35, 96
5, 26196, Note_on_c, 9, 35, 0
5, 26208, Note_on_c, 9, 38, 127
5, 26208, Note_on_c, 9, 49, 80
5, 26256, Note_on_c, 9, 49, 0
5, 26256, Note_on_c, 9, 38, 0
5, 26304, Note_on_c, 9, 35, 127
5, 26304, Note_on_c, 9, 42, 80
5, 26316, Note_on_c, 9, 35, 0
5, 26328, Note_on_c, 9, 42, 0
5, 26352, Note_on_c, 9, 42, 48
5, 26376, Note_on_c, 9, 42, 0
5, 26376, Note_on_c, 9, 35, 96
5, 26388, Note_on_c, 9, 35, 0
5, 26400, Note_on_c, 9, 38, 127
5, 26400, Note_on_c, 9, 42, 80
5, 26424, Note_on_c, 9, 42, 0
5, 26448, Note_on_c, 9, 38, 0
5, 26448, Note_on_c, 9, 42, 48
5, 26472, Note_on_c, 9, 42, 0
5, 26472, Note_on_c, 9, 35, 96
5, 26484, Note_on_c, 9, 35, 0
5, 26496, Note_on_c, 9, 42, 64
5, 26520, Note_on_c, 9, 42, 0
5, 26520, Note_on_c, 9, 35, 96
5, 26532, Note_on_c, 9, 35, 0
5, 26544, Note_on_c, 9, 35, 112
5, 26544, Note_on_c, 9, 42, 48
5, 26556, Note_on_c, 9, 35, 0
5, 26568, Note_on_c, 9, 42, 0
5, 26592, Note_on_c, 9, 38, 127
5, 26592, Note_on_c, 9, 42, 80
5, 26616, Note_on_c, 9, 42, 0
5, 26640, Note_on_c, 9, 38, 0
5, 26640, Note_on_c, 9, 46, 48
5, 26664, Note_on_c, 9, 46, 0
5, 26688, Note_on_c, 9, 35, 127
5, 26688, Note_on_c, 9, 42, 80
5, 26700, Note_on_c, 9, 35, 0
5, 26712, Note_on_c, 9, 42, 0
5, 26736, Note_on_c, 9, 42, 48
5, 26760, Note_on_c, 9, 42, 0
5, 26760, Note_on_c, 9, 35, 96
5, 26772, Note_on_c, 9, 35, 0
5, 26784, Note_on_c, 9, 38, 127
5, 26784, Note_on_c, 9, 42, 80
5, 26808, Note_on_c, 9, 42, 0
5, 26832, Note_on_c, 9, 38, 0
5, 26832, Note_on_c, 9, 35, 96
5, 26832, Note_on_c, 9, 42, 48
5, 26844, Note_on_c, 9, 35, 0
5, 26856, Note_on_c, 9, 42, 0
5, 26880, Note_on_c, 9, 35, 127
5, 26880, Note_on_c, 9, 42, 80
5, 26892, Note_on_c, 9, 35, 0
5, 26904, Note_on_c, 9, 42, 0
5, 26904, Note_on_c, 9, 35, 96
5, 26916, Note_on_c, 9, 35, 0
5, 26928, Note_on_c, 9, 42, 48
5, 26952, Note_on_c, 9, 42, 0
5, 26976, Note_on_c, 9, 38, 127
5, 26976, Note_on_c, 9, 42, 80
5, 27000, Note_on_c, 9, 42, 0
5, 27024, Note_on_c, 9, 38, 0
5, 27024, Note_on_c, 9, 35, 96
5, 27024, Note_on_c, 9, 46, 48
5, 27036, Note_on_c, 9, 35, 0
5, 27048, Note_on_c, 9, 46, 0
5, 27072, Note_on_c, 9, 35, 127
5, 27072, Note_on_c, 9, 49, 80
5, 27084, Note_on_c, 9, 35, 0
5, 27120, Note_on_c, 9, 49, 0
5, 27120, Note_on_c, 9, 42, 48
5, 27144, Note_on_c, 9, 42, 0
5, 27144, Note_on_c, 9, 35, 96
5, 27156, Note_on_c, 9, 35, 0
5, 27168, Note_on_c, 9, 38, 127
5, 27168, Note_on_c, 9, 42, 80
5, 27192, Note_on_c, 9, 42, 0
5, 27216, Note_on_c, 9, 38, 0
5, 27216, Note_on_c, 9, 42, 48
5, 27240, Note_on_c, 9, 42, 0
5, 27240, Note_on_c, 9, 35, 96
5, 27252, Note_on_c, 9, 35, 0
5, 27264, Note_on_c, 9, 35, 127
5, 27264, Note_on_c, 9, 42, 80
5, 27276, Note_on_c, 9, 35, 0
5, 27288, Note_on_c, 9, 42, 0
5, 27312, Note_on_c, 9, 42, 48
5, 27336, Note_on_c, 9, 42, 0
5, 27336, Note_on_c, 9, 35, 96
5, 27348, Note_on_c, 9, 35, 0
5, 27360, Note_on_c, 9, 38, 127
5, 27360, Note_on_c, 9, 42, 80
5, 27384, Note_on_c, 9, 42, 0
5, 27408, Note_on_c, 9, 38, 0
5, 27408, Note_on_c, 9, 42, 48
5, 27432, Note_on_c, 9, 42, 0
5, 27456, Note_on_c, 9, 35, 127
5, 27456, Note_on_c, 9, 42, 80
5, 27468, Note_on_c, 9, 35, 0
5, 27480, Note_on_c, 9, 42, 0
5, 27504, Note_on_c, 9, 42, 48
5, 27528, Note_on_c, 9, 42, 0
5, 27528, Note_on_c, 9, 35, 96
5, 27540, Note_on_c, 9, 35, 0
5, 27552, Note_on_c, 9, 38, 127
5, 27552, Note_on_c, 9, 42, 80
5, 27576, Note_on_c, 9, 42, 0
5, 27600, Note_on_c, 9, 38, 0
5, 27600, Note_on_c, 9, 42, 48
5, 27624, Note_on_c, 9, 42, 0
5, 27624, Note_on_c, 9, 35, 96
5, 27636, Note_on_c, 9, 35, 0
5, 27648, Note_on_c, 9, 35, 127
5, 27648, Note_on_c, 9, 42, 80
5, 27660, Note_on_c, 9, 35, 0
5, 27672, Note_on_c, 9, 42, 0
5, 27672, Note_on_c, 9, 46, 48
5, 27684, Note_on_c, 9, 46, 0
5, 27696, Note_on_c, 9, 42, 48
5, 27720, Note_on_c, 9, 42, 0
5, 27720, Note_on_c, 9, 35, 96
5, 27732, Note_on_c, 9, 35, 0
5, 27744, Note_on_c, 9, 38, 127
5, 27744, Note_on_c, 9, 42, 80
5, 27768, Note_on_c, 9, 42, 0
5, 27792, Note_on_c, 9, 38, 0
5, 27792, Note_on_c, 9, 42, 48
5, 27816, Note_on_c, 9, 42, 0
5, 27840, Note_on_c, 9, 35, 127
5, 27840, Note_on_c, 9, 42, 80
5, 27852, Note_on_c, 9, 35, 0
5, 27864, Note_on_c, 9, 42, 0
5, 27888, Note_on_c, 9, 42, 48
5, 27912, Note_on_c, 9, 42, 0
5, 27912, Note_on_c, 9, 35, 96
5, 27924, Note_on_c, 9, 35, 0
5, 27936, Note_on_c, 9, 38, 127
5, 27936, Note_on_c, 9, 42, 80
5, 27960, Note_on_c, 9, 42, 0
5, 27984, Note_on_c, 9, 38, 0
5, 27984, Note_on_c, 9, 42, 48
5, 28008, Note_on_c, 9, 42, 0
5, 28008, Note_on_c, 9, 35, 96
5, 28020, Note_on_c, 9, 35, 0
5, 28032, Note_on_c, 9, 35, 127
5, 28032, Note_on_c, 9, 42, 80
5, 28044, Note_on_c, 9, 35, 0
5, 28056, Note_on_c, 9, 42, 0
5, 28080, Note_on_c, 9, 42, 48
5, 28104, Note_on_c, 9, 42, 0
5, 28104, Note_on_c, 9, 35, 96
5, 28116, Note_on_c, 9, 35, 0
5, 28128, Note_on_c, 9, 38, 127
5, 28128, Note_on_c, 9, 42, 80
5, 28152, Note_on_c, 9, 42, 0
5, 28176, Note_on_c, 9, 38, 0
5, 28176, Note_on_c, 9, 42, 48
5, 28200, Note_on_c, 9, 42, 0
5, 28224, Note_on_c, 9, 35, 127
5, 28224, Note_on_c, 9, 42, 80
5, 28236, Note_on_c, 9, 35, 0
5, 28248, Note_on_c, 9, 42, 0
5, 28272, Note_on_c, 9, 42, 48
5, 28296, Note_on_c, 9, 42, 0
5, 28296, Note_on_c, 9, 35, 96
5, 28308, Note_on_c, 9, 35, 0
5, 28320, Note_on_c, 9, 38, 127
5, 28320, Note_on_c, 9, 42, 80
5, 28344, Note_on_c, 9, 42, 0
5, 28368, Note_on_c, 9, 38, 0
5, 28368, Note_on_c, 9, 42, 48
5, 28392, Note_on_c, 9, 42, 0
5, 28392, Note_on_c, 9, 46, 48
5, 28404, Note_on_c, 9, 46, 0
5, 28416, Note_on_c, 9, 35, 127
5, 28416, Note_on_c, 9, 42, 80
5, 28428, Note_on_c, 9, 35, 0
5, 28440, Note_on_c, 9, 42, 0
5, 28440, Note_on_c, 9, 46, 48
5, 28452, Note_on_c, 9, 46, 0
5, 28464, Note_on_c, 9, 42, 48
5, 28488, Note_on_c, 9, 42, 0
5, 28488, Note_on_c, 9, 35, 96
5, 28500, Note_on_c, 9, 35, 0
5, 28512, Note_on_c, 9, 38, 127
5, 28512, Note_on_c, 9, 42, 80
5, 28536, Note_on_c, 9, 42, 0
5, 28560, Note_on_c, 9, 38, 0
5, 28560, Note_on_c, 9, 42, 48
5, 28584, Note_on_c, 9, 42, 0
5, 28584, Note_on_c, 9, 35, 96
5, 28596, Note_on_c, 9, 35, 0
5, 28608, Note_on_c, 9, 35, 127
5, 28608, Note_on_c, 9, 42, 80
5, 28620, Note_on_c, 9, 35, 0
5, 28632, Note_on_c, 9, 42, 0
5, 28656, Note_on_c, 9, 42, 48
5, 28680, Note_on_c, 9, 42, 0
5, 28680, Note_on_c, 9, 35, 96
5, 28692, Note_on_c, 9, 35, 0
5, 28704, Note_on_c, 9, 38, 127
5, 28704, Note_on_c, 9, 42, 80
5, 28728, Note_on_c, 9, 42, 0
5, 28752, Note_on_c, 9, 38, 0
5, 28752, Note_on_c, 9, 35, 96
5, 28752, Note_on_c, 9, 46, 64
5, 28764, Note_on_c, 9, 46, 0
5, 28764, Note_on_c, 9, 35, 0
5, 28800, Note_on_c, 9, 35, 127
5, 28800, Note_on_c, 9, 42, 80
5, 28812, Note_on_c, 9, 35, 0
5, 28824, Note_on_c, 9, 42, 0
5, 28848, Note_on_c, 9, 42, 48
5, 28872, Note_on_c, 9, 42, 0
5, 28872, Note_on_c, 9, 35, 96
5, 28884, Note_on_c, 9, 35, 0
5, 28896, Note_on_c, 9, 38, 127
5, 28896, Note_on_c, 9, 42, 80
5, 28920, Note_on_c, 9, 42, 0
5, 28944, Note_on_c, 9, 38, 0
5, 28944, Note_on_c, 9, 42, 48
5, 28968, Note_on_c, 9, 42, 0
5, 28968, Note_on_c, 9, 35, 96
5, 28980, Note_on_c, 9, 35, 0
5, 28992, Note_on_c, 9, 35, 127
5, 28992, Note_on_c, 9, 42, 80
5, 29004, Note_on_c, 9, 35, 0
5, 29016, Note_on_c, 9, 42, 0
5, 29040, Note_on_c, 9, 42, 48
5, 29064, Note_on_c, 9, 42, 0
5, 29064, Note_on_c, 9, 35, 96
5, 29076, Note_on_c, 9, 35, 0
5, 29088, Note_on_c, 9, 38, 127
5, 29088, Note_on_c, 9, 42, 80
5, 29112, Note_on_c, 9, 42, 0
5, 29136, Note_on_c, 9, 38, 0
5, 29136, Note_on_c, 9, 35, 96
5, 29136, Note_on_c, 9, 42, 48
5, 29148, Note_on_c, 9, 35, 0
5, 29160, Note_on_c, 9, 42, 0
5, 29160, Note_on_c, 9, 46, 48
5, 29172, Note_on_c, 9, 46, 0
5, 29184, Note_on_c, 9, 35, 127
5, 29184, Note_on_c, 9, 42, 80
5, 29196, Note_on_c, 9, 35, 0
5, 29208, Note_on_c, 9, 42, 0
5, 29232, Note_on_c, 9, 42, 48
5, 29256, Note_on_c, 9, 42, 0
5, 29256, Note_on_c, 9, 35, 96
5, 29268, Note_on_c, 9, 35, 0
5, 29280, Note_on_c, 9, 38, 127
5, 29280, Note_on_c, 9, 42, 80
5, 29304, Note_on_c, 9, 42, 0
5, 29328, Note_on_c, 9, 38, 0
5, 29328, Note_on_c, 9, 42, 48
5, 29352, Note_on_c, 9, 42, 0
5, 29376, Note_on_c, 9, 35, 127
5, 29376, Note_on_c, 9, 42, 80
5, 29388, Note_on_c, 9, 35, 0
5, 29400, Note_on_c, 9, 42, 0
5, 29424, Note_on_c, 9, 42, 48
5, 29448, Note_on_c, 9, 42, 0
5, 29448, Note_on_c, 9, 35, 96
5, 29460, Note_on_c, 9, 35, 0
5, 29472, Note_on_c, 9, 38, 127
5, 29472, Note_on_c, 9, 42, 80
5, 29496, Note_on_c, 9, 42, 0
5, 29520, Note_on_c, 9, 38, 0
5, 29520, Note_on_c, 9, 35, 96
5, 29520, Note_on_c, 9, 42, 48
5, 29532, Note_on_c, 9, 35, 0
5, 29544, Note_on_c, 9, 42, 0
5, 29568, Note_on_c, 9, 35, 127
5, 29568, Note_on_c, 9, 42, 80
5, 29580, Note_on_c, 9, 35, 0
5, 29592, Note_on_c, 9, 42, 0
5, 29616, Note_on_c, 9, 42, 48
5, 29640, Note_on_c, 9, 42, 0
5, 29640, Note_on_c, 9, 35, 96
5, 29652, Note_on_c, 9, 35, 0
5, 29664, Note_on_c, 9, 38, 127
5, 29664, Note_on_c, 9, 42, 80
5, 29688, Note_on_c, 9, 42, 0
5, 29712, Note_on_c, 9, 38, 0
5, 29712, Note_on_c, 9, 42, 48
5, 29736, Note_on_c, 9, 42, 0
5, 29760, Note_on_c, 9, 35, 127
5, 29760, Note_on_c, 9, 42, 80
5, 29772, Note_on_c, 9, 35, 0
5, 29784, Note_on_c, 9, 42, 0
5, 29808, Note_on_c, 9, 42, 48
5, 29832, Note_on_c, 9, 42, 0
5, 29832, Note_on_c, 9, 35, 96
5, 29844, Note_on_c, 9, 35, 0
5, 29856, Note_on_c, 9, 38, 127
5, 29856, Note_on_c, 9, 42, 80
5, 29880, Note_on_c, 9, 42, 0
5, 29880, Note_on_c, 9, 35, 112
5, 29892, Note_on_c, 9, 35, 0
5, 29904, Note_on_c, 9, 38, 0
5, 29904, Note_on_c, 9, 46, 48
5, 29928, Note_on_c, 9, 46, 0
5, 29952, Note_on_c, 9, 35, 127
5, 29952, Note_on_c, 9, 42, 80
5, 29964, Note_on_c, 9, 35, 0
5, 29976, Note_on_c, 9, 42, 0
5, 30000, Note_on_c, 9, 42, 48
5, 30024, Note_on_c, 9, 42, 0
5, 30024, Note_on_c, 9, 35, 96
5, 30036, Note_on_c, 9, 35, 0
5, 30048, Note_on_c, 9, 38, 127
5, 30048, Note_on_c, 9, 42, 80
5, 30072, Note_on_c, 9, 42, 0
5, 30096, Note_on_c, 9, 38, 0
5, 30096, Note_on_c, 9, 35, 96
5, 30096, Note_on_c, 9, 46, 48
5, 30108, Note_on_c, 9, 35, 0
5, 30120, Note_on_c, 9, 46, 0
5, 30144, Note_on_c, 9, 35, 127
5, 30144, Note_on_c, 9, 42, 80
5, 30156, Note_on_c, 9, 35, 0
5, 30168, Note_on_c, 9, 42, 0
5, 30192, Note_on_c, 9, 42, 48
5, 30216, Note_on_c, 9, 42, 0
5, 30216, Note_on_c, 9, 35, 96
5, 30228, Note_on_c, 9, 35, 0
5, 30240, Note_on_c, 9, 38, 127
5, 30240, Note_on_c, 9, 42, 80
5, 30264, Note_on_c, 9, 42, 0
5, 30288, Note_on_c, 9, 38, 0
5, 30288, Note_on_c, 9, 42, 48
5, 30312, Note_on_c, 9, 42, 0
5, 30336, Note_on_c, 9, 35, 127
5, 30336, Note_on_c, 9, 42, 80
5, 30348, Note_on_c, 9, 35, 0
5, 30360, Note_on_c, 9, 42, 0
5, 30384, Note_on_c, 9, 42, 48
5, 30408, Note_on_c, 9, 42, 0
5, 30408, Note_on_c, 9, 35, 96
5, 30420, Note_on_c, 9, 35, 0
5, 30432, Note_on_c, 9, 38, 127
5, 30432, Note_on_c, 9, 49, 80
5, 30480, Note_on_c, 9, 49, 0
5, 30480, Note_on_c, 9, 38, 0
5, 30480, Note_on_c, 9, 45, 80
5, 30504, Note_on_c, 9, 45, 0
5, 30528, Note_on_c, 9, 35, 127
5, 30528, Note_on_c, 9, 49, 80
5, 30540, Note_on_c, 9, 35, 0
5, 30576, Note_on_c, 9, 49, 0
5, 30576, Note_on_c, 9, 42, 48
5, 30600, Note_on_c, 9, 42, 0
5, 30600, Note_on_c, 9, 35, 96
5, 30612, Note_on_c, 9, 35, 0
5, 30624, Note_on_c, 9, 38, 127
5, 30624, Note_on_c, 9, 42, 80
5, 30648, Note_on_c, 9, 42, 0
5, 30672, Note_on_c, 9, 38, 0
5, 30672, Note_on_c, 9, 42, 48
5, 30696, Note_on_c, 9, 42, 0
5, 30720, Note_on_c, 9, 35, 127
5, 30720, Note_on_c, 9, 42, 80
5, 30732, Note_on_c, 9, 35, 0
5, 30744, Note_on_c, 9, 42, 0
5, 30768, Note_on_c, 9, 42, 48
5, 30792, Note_on_c, 9, 42, 0
5, 30816, Note_on_c, 9, 38, 127
5, 30816, Note_on_c, 9, 42, 80
5, 30840, Note_on_c, 9, 42, 0
5, 30864, Note_on_c, 9, 38, 0
5, 30864, Note_on_c, 9, 46, 48
5, 30888, Note_on_c, 9, 46, 0
5, 30912, Note_on_c, 9, 35, 127
5, 30912, Note_on_c, 9, 42, 80
5, 30924, Note_on_c, 9, 35, 0
5, 30936, Note_on_c, 9, 42, 0
5, 30960, Note_on_c, 9, 42, 48
5, 30984, Note_on_c, 9, 42, 0
5, 30984, Note_on_c, 9, 35, 96
5, 30996, Note_on_c, 9, 35, 0
5, 31008, Note_on_c, 9, 38, 127
5, 31008, Note_on_c, 9, 42, 80
5, 31032, Note_on_c, 9, 42, 0
5, 31056, Note_on_c, 9, 38, 0
5, 31056, Note_on_c, 9, 42, 48
5, 31080, Note_on_c, 9, 42, 0
5, 31104, Note_on_c, 9, 35, 127
5, 31104, Note_on_c, 9, 42, 80
5, 31116, Note_on_c, 9, 35, 0
5, 31128, Note_on_c, 9, 42, 0
5, 31128, Note_on_c, 9, 35, 96
5, 31140, Note_on_c, 9, 35, 0
5, 31152, Note_on_c, 9, 42, 48
5, 31176, Note_on_c, 9, 42, 0
5, 31200, Note_on_c, 9, 38, 127
5, 31200, Note_on_c, 9, 42, 80
5, 31224, Note_on_c, 9, 42, 0
5, 31248, Note_on_c, 9, 38, 0
5, 31248, Note_on_c, 9, 42, 48
5, 31272, Note_on_c, 9, 42, 0
5, 31296, Note_on_c, 9, 35, 127
5, 31296, Note_on_c, 9, 42, 80
5, 31308, Note_on_c, 9, 35, 0
5, 31320, Note_on_c, 9, 42, 0
5, 31344, Note_on_c, 9, 42, 48
5, 31368, Note_on_c, 9, 42, 0
5, 31368, Note_on_c, 9, 35, 96
5, 31380, Note_on_c, 9, 35, 0
5, 31392, Note_on_c, 9, 38, 127
5, 31392, Note_on_c, 9, 42, 80
5, 31416, Note_on_c, 9, 42, 0
5, 31440, Note_on_c, 9, 38, 0
5, 31440, Note_on_c, 9, 42, 48
5, 31464, Note_on_c, 9, 42, 0
5, 31488, Note_on_c, 9, 35, 127
5, 31488, Note_on_c, 9, 42, 80
5, 31500, Note_on_c, 9, 35, 0
5, 31512, Note_on_c, 9, 42, 0
5, 31512, Note_on_c, 9, 35, 96
5, 31524, Note_on_c, 9, 35, 0
5, 31536, Note_on_c, 9, 42, 48
5, 31560, Note_on_c, 9, 42, 0
5, 31560, Note_on_c, 9, 35, 96
5, 31572, Note_on_c, 9, 35, 0
5, 31584, Note_on_c, 9, 38, 127
5, 31584, Note_on_c, 9, 42, 80
5, 31608, Note_on_c, 9, 42, 0
5, 31632, Note_on_c, 9, 38, 0
5, 31632, Note_on_c, 9, 35, 96
5, 31632, Note_on_c, 9, 46, 64
5, 31644, Note_on_c, 9, 35, 0
5, 31656, Note_on_c, 9, 46, 0
5, 31680, Note_on_c, 9, 35, 127
5, 31680, Note_on_c, 9, 42, 80
5, 31692, Note_on_c, 9, 35, 0
5, 31704, Note_on_c, 9, 42, 0
5, 31728, Note_on_c, 9, 42, 48
5, 31752, Note_on_c, 9, 42, 0
5, 31752, Note_on_c, 9, 35, 96
5, 31764, Note_on_c, 9, 35, 0
5, 31776, Note_on_c, 9, 38, 127
5, 31776, Note_on_c, 9, 42, 80
5, 31800, Note_on_c, 9, 42, 0
5, 31824, Note_on_c, 9, 38, 0
5, 31824, Note_on_c, 9, 42, 48
5, 31848, Note_on_c, 9, 42, 0
5, 31872, Note_on_c, 9, 35, 127
5, 31872, Note_on_c, 9, 42, 80
5, 31884, Note_on_c, 9, 35, 0
5, 31896, Note_on_c, 9, 42, 0
5, 31920, Note_on_c, 9, 42, 48
5, 31944, Note_on_c, 9, 42, 0
5, 31968, Note_on_c, 9, 38, 127
5, 31968, Note_on_c, 9, 42, 80
5, 31992, Note_on_c, 9, 42, 0
5, 32016, Note_on_c, 9, 38, 0
5, 32016, Note_on_c, 9, 42, 48
5, 32040, Note_on_c, 9, 42, 0
5, 32064, Note_on_c, 9, 35, 127
5, 32064, Note_on_c, 9, 42, 80
5, 32076, Note_on_c, 9, 35, 0
5, 32088, Note_on_c, 9, 42, 0
5, 32112, Note_on_c, 9, 42, 48
5, 32136, Note_on_c, 9, 42, 0
5, 32136, Note_on_c, 9, 35, 96
5, 32148, Note_on_c, 9, 35, 0
5, 32160, Note_on_c, 9, 38, 127
5, 32160, Note_on_c, 9, 42, 80
5, 32184, Note_on_c, 9, 42, 0
5, 32208, Note_on_c, 9, 38, 0
5, 32208, Note_on_c, 9, 42, 48
5, 32232, Note_on_c, 9, 42, 0
5, 32256, Note_on_c, 9, 35, 127
5, 32256, Note_on_c, 9, 42, 80
5, 32268, Note_on_c, 9, 35, 0
5, 32280, Note_on_c, 9, 42, 0
5, 32280, Note_on_c, 9, 35, 96
5, 32280, Note_on_c, 9, 46, 48
5, 32292, Note_on_c, 9, 46, 0
5, 32292, Note_on_c, 9, 35, 0
5, 32304, Note_on_c, 9, 42, 48
5, 32328, Note_on_c, 9, 42, 0
5, 32328, Note_on_c, 9, 35, 96
5, 32340, Note_on_c, 9, 35, 0
5, 32352, Note_on_c, 9, 38, 127
5, 32352, Note_on_c, 9, 42, 80
5, 32376, Note_on_c, 9, 42, 0
5, 32400, Note_on_c, 9, 38, 0
5, 32400, Note_on_c, 9, 35, 96
5, 32400, Note_on_c, 9, 42, 48
5, 32412, Note_on_c, 9, 35, 0
5, 32424, Note_on_c, 9, 42, 0
5, 32448, Note_on_c, 9, 35, 127
5, 32448, Note_on_c, 9, 42, 80
5, 32460, Note_on_c, 9, 35, 0
5, 32472, Note_on_c, 9, 42, 0
5, 32496, Note_on_c, 9, 42, 48
5, 32520, Note_on_c, 9, 42, 0
5, 32520, Note_on_c, 9, 35, 96
5, 32532, Note_on_c, 9, 35, 0
5, 32544, Note_on_c, 9, 38, 127
5, 32544, Note_on_c, 9, 42, 80
5, 32568, Note_on_c, 9, 42, 0
5, 32592, Note_on_c, 9, 38, 0
5, 32592, Note_on_c, 9, 42, 48
5, 32616, Note_on_c, 9, 42, 0
5, 32616, Note_on_c, 9, 35, 96
5, 32628, Note_on_c, 9, 35, 0
5, 32640, Note_on_c, 9, 35, 127
5, 32640, Note_on_c, 9, 42, 80
5, 32652, Note_on_c, 9, 35, 0
5, 32664, Note_on_c, 9, 42, 0
5, 32688, Note_on_c, 9, 42, 48
5, 32712, Note_on_c, 9, 42, 0
5, 32736, Note_on_c, 9, 38, 127
5, 32736, Note_on_c, 9, 42, 80
5, 32760, Note_on_c, 9, 42, 0
5, 32784, Note_on_c, 9, 38, 0
5, 32784, Note_on_c, 9, 42, 48
5, 32808, Note_on_c, 9, 42, 0
5, 32832, Note_on_c, 9, 35, 127
5, 32832, Note_on_c, 9, 42, 80
5, 32844, Note_on_c, 9, 35, 0
5, 32856, Note_on_c, 9, 42, 0
5, 32880, Note_on_c, 9, 42, 48
5, 32904, Note_on_c, 9, 42, 0
5, 32904, Note_on_c, 9, 35, 96
5, 32916, Note_on_c, 9, 35, 0
5, 32928, Note_on_c, 9, 38, 127
5, 32928, Note_on_c, 9, 42, 80
5, 32952, Note_on_c, 9, 42, 0
5, 32976, Note_on_c, 9, 38, 0
5, 32976, Note_on_c, 9, 42, 48
5, 33000, Note_on_c, 9, 42, 0
5, 33024, Note_on_c, 9, 35, 127
5, 33024, Note_on_c, 9, 42, 80
5, 33036, Note_on_c, 9, 35, 0
5, 33048, Note_on_c, 9, 42, 0
5, 33048, Note_on_c, 9, 45, 80
5, 33060, Note_on_c, 9, 45, 0
5, 33072, Note_on_c, 9, 42, 48
5, 33096, Note_on_c, 9, 42, 0
5, 33096, Note_on_c, 9, 35, 96
5, 33108, Note_on_c, 9, 35, 0
5, 33120, Note_on_c, 9, 38, 127
5, 33120, Note_on_c, 9, 42, 80
5, 33144, Note_on_c, 9, 42, 0
5, 33168, Note_on_c, 9, 38, 0
5, 33168, Note_on_c, 9, 42, 48
5, 33168, Note_on_c, 9, 41, 96
5, 33192, Note_on_c, 9, 41, 0
5, 33192, Note_on_c, 9, 42, 0
5, 33216, Note_on_c, 9, 35, 127
5, 33216, Note_on_c, 9, 49, 80
5, 33228, Note_on_c, 9, 35, 0
5, 33264, Note_on_c, 9, 49, 0
5, 33264, Note_on_c, 9, 42, 48
5, 33288, Note_on_c, 9, 42, 0
5, 33288, Note_on_c, 9, 35, 96
5, 33300, Note_on_c, 9, 35, 0
5, 33312, Note_on_c, 9, 38, 127
5, 33312, Note_on_c, 9, 42, 80
5, 33336, Note_on_c, 9, 42, 0
5, 33360, Note_on_c, 9, 38, 0
5, 33360, Note_on_c, 9, 42, 48
5, 33384, Note_on_c, 9, 42, 0
5, 33384, Note_on_c, 9, 35, 96
5, 33396, Note_on_c, 9, 35, 0
5, 33408, Note_on_c, 9, 35, 127
5, 33408, Note_on_c, 9, 42, 80
5, 33420, Note_on_c, 9, 35, 0
5, 33432, Note_on_c, 9, 42, 0
5, 33456, Note_on_c, 9, 42, 48
5, 33480, Note_on_c, 9, 42, 0
5, 33504, Note_on_c, 9, 38, 127
5, 33504, Note_on_c, 9, 42, 80
5, 33528, Note_on_c, 9, 42, 0
5, 33552, Note_on_c, 9, 38, 0
5, 33552, Note_on_c, 9, 46, 48
5, 33576, Note_on_c, 9, 46, 0
5, 33600, Note_on_c, 9, 35, 127
5, 33600, Note_on_c, 9, 49, 80
5, 33648, Note_on_c, 9, 49, 0
5, 33648, Note_on_c, 9, 35, 0
5, 33648, End_track
6, 0, Start_track
6, 0, MIDI_port, 0
6, 0, Title_t, "Bass"
6, 0, Program_c, 1, 33
6, 0, Control_c, 1, 7, 123
6, 0, Control_c, 1, 10, 64
6, 0, Note_on_c, 1, 38, 60
6, 183, Note_on_c, 1, 38, 0
6, 192, Note_on_c, 1, 31, 73
6, 323, Note_on_c, 1, 31, 0
6, 336, Note_on_c, 1, 33, 73
6, 354, Note_on_c, 1, 33, 0
6, 360, Note_on_c, 1, 35, 64
6, 375, Note_on_c, 1, 35, 0
6, 384, Note_on_c, 1, 36, 73
6, 537, Note_on_c, 1, 36, 0
6, 552, Note_on_c, 1, 36, 64
6, 567, Note_on_c, 1, 36, 0
6, 576, Note_on_c, 1, 31, 64
6, 755, Note_on_c, 1, 31, 0
6, 768, Note_on_c, 1, 38, 73
6, 949, Note_on_c, 1, 38, 0
6, 960, Note_on_c, 1, 31, 73
6, 1141, Note_on_c, 1, 31, 0
6, 1152, Note_on_c, 1, 36, 82
6, 1254, Note_on_c, 1, 36, 0
6, 1272, Note_on_c, 1, 28, 64
6, 1303, Note_on_c, 1, 28, 0
6, 1320, Note_on_c, 1, 30, 73
6, 1335, Note_on_c, 1, 30, 0
6, 1344, Note_on_c, 1, 31, 64
6, 1516, Note_on_c, 1, 31, 0
6, 1536, Note_on_c, 1, 38, 64
6, 1682, Note_on_c, 1, 38, 0
6, 1704, Note_on_c, 1, 38, 60
6, 1711, Note_on_c, 1, 38, 0
6, 1728, Note_on_c, 1, 38, 73
6, 1879, Note_on_c, 1, 38, 0
6, 1896, Note_on_c, 1, 33, 60
6, 1906, Note_on_c, 1, 33, 0
6, 1920, Note_on_c, 1, 38, 64
6, 2071, Note_on_c, 1, 38, 0
6, 2088, Note_on_c, 1, 38, 60
6, 2097, Note_on_c, 1, 38, 0
6, 2112, Note_on_c, 1, 31, 82
6, 2288, Note_on_c, 1, 31, 0
6, 2304, Note_on_c, 1, 36, 73
6, 2475, Note_on_c, 1, 36, 0
6, 2496, Note_on_c, 1, 36, 73
6, 2642, Note_on_c, 1, 36, 0
6, 2664, Note_on_c, 1, 36, 56
6, 2674, Note_on_c, 1, 36, 0
6, 2688, Note_on_c, 1, 35, 82
6, 2838, Note_on_c, 1, 35, 0
6, 2856, Note_on_c, 1, 35, 60
6, 2870, Note_on_c, 1, 35, 0
6, 2880, Note_on_c, 1, 38, 82
6, 3008, Note_on_c, 1, 38, 0
6, 3024, Note_on_c, 1, 30, 73
6, 3035, Note_on_c, 1, 30, 0
6, 3048, Note_on_c, 1, 33, 64
6, 3064, Note_on_c, 1, 33, 0
6, 3072, Note_on_c, 1, 38, 82
6, 3214, Note_on_c, 1, 38, 0
6, 3240, Note_on_c, 1, 38, 73
6, 3250, Note_on_c, 1, 38, 0
6, 3264, Note_on_c, 1, 38, 73
6, 3445, Note_on_c, 1, 38, 0
6, 3456, Note_on_c, 1, 38, 73
6, 3606, Note_on_c, 1, 38, 0
6, 3624, Note_on_c, 1, 38, 64
6, 3638, Note_on_c, 1, 38, 0
6, 3648, Note_on_c, 1, 31, 64
6, 3818, Note_on_c, 1, 31, 0
6, 3840, Note_on_c, 1, 36, 64
6, 3992, Note_on_c, 1, 36, 0
6, 4008, Note_on_c, 1, 31, 73
6, 4018, Note_on_c, 1, 31, 0
6, 4032, Note_on_c, 1, 36, 73
6, 4201, Note_on_c, 1, 36, 0
6, 4224, Note_on_c, 1, 35, 73
6, 4371, Note_on_c, 1, 35, 0
6, 4392, Note_on_c, 1, 35, 64
6, 4405, Note_on_c, 1, 35, 0
6, 4416, Note_on_c, 1, 38, 73
6, 4588, Note_on_c, 1, 38, 0
6, 4608, Note_on_c, 1, 31, 82
6, 4660, Note_on_c, 1, 31, 0
6, 4680, Note_on_c, 1, 31, 82
6, 4761, Note_on_c, 1, 31, 0
6, 4776, Note_on_c, 1, 31, 82
6, 4788, Note_on_c, 1, 31, 0
6, 4800, Note_on_c, 1, 31, 73
6, 4974, Note_on_c, 1, 31, 0
6, 4992, Note_on_c, 1, 33, 73
6, 5048, Note_on_c, 1, 33, 0
6, 5064, Note_on_c, 1, 33, 73
6, 5135, Note_on_c, 1, 33, 0
6, 5160, Note_on_c, 1, 33, 73
6, 5169, Note_on_c, 1, 33, 0
6, 5184, Note_on_c, 1, 33, 73
6, 5354, Note_on_c, 1, 33, 0
6, 5376, Note_on_c, 1, 35, 91
6, 5462, Note_on_c, 1, 35, 0
6, 5472, Note_on_c, 1, 36, 64
6, 5555, Note_on_c, 1, 36, 0
6, 5568, Note_on_c, 1, 38, 73
6, 5655, Note_on_c, 1, 38, 0
6, 5664, Note_on_c, 1, 28, 73
6, 6129, Note_on_c, 1, 28, 0
6, 6144, Note_on_c, 1, 36, 82
6, 6226, Note_on_c, 1, 36, 0
6, 6240, Note_on_c, 1, 35, 73
6, 6318, Note_on_c, 1, 35, 0
6, 6336, Note_on_c, 1, 38, 73
6, 6610, Note_on_c, 1, 38, 0
6, 6624, Note_on_c, 1, 38, 82
6, 6641, Note_on_c, 1, 38, 0
6, 6648, Note_on_c, 1, 35, 73
6, 6663, Note_on_c, 1, 35, 0
6, 6672, Note_on_c, 1, 33, 73
6, 6688, Note_on_c, 1, 33, 0
6, 6696, Note_on_c, 1, 30, 64
6, 6714, Note_on_c, 1, 30, 0
6, 6720, Note_on_c, 1, 28, 82
6, 6871, Note_on_c, 1, 28, 0
6, 6888, Note_on_c, 1, 28, 64
6, 6900, Note_on_c, 1, 28, 0
6, 6912, Note_on_c, 1, 29, 82
6, 7095, Note_on_c, 1, 29, 0
6, 7104, Note_on_c, 1, 34, 82
6, 7278, Note_on_c, 1, 34, 0
6, 7296, Note_on_c, 1, 36, 73
6, 7470, Note_on_c, 1, 36, 0
6, 7488, Note_on_c, 1, 36, 73
6, 7669, Note_on_c, 1, 36, 0
6, 7680, Note_on_c, 1, 35, 73
6, 7863, Note_on_c, 1, 35, 0
6, 7872, Note_on_c, 1, 32, 73
6, 8050, Note_on_c, 1, 32, 0
6, 8064, Note_on_c, 1, 29, 82
6, 8237, Note_on_c, 1, 29, 0
6, 8256, Note_on_c, 1, 29, 82
6, 8442, Note_on_c, 1, 29, 0
6, 8448, Note_on_c, 1, 28, 73
6, 8631, Note_on_c, 1, 28, 0
6, 8640, Note_on_c, 1, 29, 73
6, 8822, Note_on_c, 1, 29, 0
6, 8832, Note_on_c, 1, 34, 82
6, 9010, Note_on_c, 1, 34, 0
6, 9024, Note_on_c, 1, 36, 64
6, 9199, Note_on_c, 1, 36, 0
6, 9216, Note_on_c, 1, 36, 73
6, 9370, Note_on_c, 1, 36, 0
6, 9384, Note_on_c, 1, 31, 73
6, 9397, Note_on_c, 1, 31, 0
6, 9408, Note_on_c, 1, 35, 73
6, 9559, Note_on_c, 1, 35, 0
6, 9576, Note_on_c, 1, 35, 64
6, 9591, Note_on_c, 1, 35, 0
6, 9600, Note_on_c, 1, 32, 73
6, 9772, Note_on_c, 1, 32, 0
6, 9792, Note_on_c, 1, 29, 73
6, 9972, Note_on_c, 1, 29, 0
6, 9984, Note_on_c, 1, 31, 72
6, 10164, Note_on_c, 1, 31, 0
6, 10176, Note_on_c, 1, 33, 82
6, 10348, Note_on_c, 1, 33, 0
6, 10368, Note_on_c, 1, 33, 73
6, 10457, Note_on_c, 1, 33, 0
6, 10464, Note_on_c, 1, 31, 82
6, 10547, Note_on_c, 1, 31, 0
6, 10560, Note_on_c, 1, 29, 73
6, 10730, Note_on_c, 1, 29, 0
6, 10752, Note_on_c, 1, 31, 73
6, 10934, Note_on_c, 1, 31, 0
6, 10944, Note_on_c, 1, 33, 73
6, 11124, Note_on_c, 1, 33, 0
6, 11136, Note_on_c, 1, 33, 80
6, 11238, Note_on_c, 1, 33, 0
6, 11256, Note_on_c, 1, 31, 80
6, 11328, Note_on_c, 1, 31, 0
6, 11328, Note_on_c, 1, 38, 64
6, 11474, Note_on_c, 1, 38, 0
6, 11496, Note_on_c, 1, 38, 60
6, 11503, Note_on_c, 1, 38, 0
6, 11520, Note_on_c, 1, 38, 73
6, 11671, Note_on_c, 1, 38, 0
6, 11688, Note_on_c, 1, 33, 60
6, 11698, Note_on_c, 1, 33, 0
6, 11712, Note_on_c, 1, 38, 64
6, 11863, Note_on_c, 1, 38, 0
6, 11880, Note_on_c, 1, 38, 60
6, 11889, Note_on_c, 1, 38, 0
6, 11904, Note_on_c, 1, 31, 82
6, 12080, Note_on_c, 1, 31, 0
6, 12096, Note_on_c, 1, 36, 73
6, 12267, Note_on_c, 1, 36, 0
6, 12288, Note_on_c, 1, 36, 73
6, 12434, Note_on_c, 1, 36, 0
6, 12456, Note_on_c, 1, 36, 56
6, 12466, Note_on_c, 1, 36, 0
6, 12480, Note_on_c, 1, 35, 82
6, 12630, Note_on_c, 1, 35, 0
6, 12648, Note_on_c, 1, 35, 60
6, 12662, Note_on_c, 1, 35, 0
6, 12672, Note_on_c, 1, 38, 82
6, 12800, Note_on_c, 1, 38, 0
6, 12816, Note_on_c, 1, 30, 73
6, 12827, Note_on_c, 1, 30, 0
6, 12840, Note_on_c, 1, 33, 64
6, 12856, Note_on_c, 1, 33, 0
6, 12864, Note_on_c, 1, 38, 82
6, 13006, Note_on_c, 1, 38, 0
6, 13032, Note_on_c, 1, 38, 73
6, 13042, Note_on_c, 1, 38, 0
6, 13056, Note_on_c, 1, 38, 73
6, 13237, Note_on_c, 1, 38, 0
6, 13248, Note_on_c, 1, 38, 73
6, 13398, Note_on_c, 1, 38, 0
6, 13416, Note_on_c, 1, 38, 64
6, 13430, Note_on_c, 1, 38, 0
6, 13440, Note_on_c, 1, 31, 64
6, 13610, Note_on_c, 1, 31, 0
6, 13632, Note_on_c, 1, 36, 64
6, 13784, Note_on_c, 1, 36, 0
6, 13800, Note_on_c, 1, 31, 73
6, 13810, Note_on_c, 1, 31, 0
6, 13824, Note_on_c, 1, 36, 73
6, 13993, Note_on_c, 1, 36, 0
6, 14016, Note_on_c, 1, 35, 73
6, 14163, Note_on_c, 1, 35, 0
6, 14184, Note_on_c, 1, 35, 64
6, 14197, Note_on_c, 1, 35, 0
6, 14208, Note_on_c, 1, 38, 73
6, 14380, Note_on_c, 1, 38, 0
6, 14400, Note_on_c, 1, 31, 82
6, 14452, Note_on_c, 1, 31, 0
6, 14472, Note_on_c, 1, 31, 82
6, 14553, Note_on_c, 1, 31, 0
6, 14568, Note_on_c, 1, 31, 82
6, 14580, Note_on_c, 1, 31, 0
6, 14592, Note_on_c, 1, 31, 73
6, 14766, Note_on_c, 1, 31, 0
6, 14784, Note_on_c, 1, 33, 73
6, 14840, Note_on_c, 1, 33, 0
6, 14856, Note_on_c, 1, 33, 73
6, 14927, Note_on_c, 1, 33, 0
6, 14952, Note_on_c, 1, 33, 73
6, 14961, Note_on_c, 1, 33, 0
6, 14976, Note_on_c, 1, 33, 73
6, 15146, Note_on_c, 1, 33, 0
6, 15168, Note_on_c, 1, 35, 91
6, 15254, Note_on_c, 1, 35, 0
6, 15264, Note_on_c, 1, 36, 64
6, 15347, Note_on_c, 1, 36, 0
6, 15360, Note_on_c, 1, 38, 73
6, 15447, Note_on_c, 1, 38, 0
6, 15456, Note_on_c, 1, 28, 73
6, 15921, Note_on_c, 1, 28, 0
6, 15936, Note_on_c, 1, 36, 82
6, 16018, Note_on_c, 1, 36, 0
6, 16032, Note_on_c, 1, 35, 73
6, 16110, Note_on_c, 1, 35, 0
6, 16128, Note_on_c, 1, 38, 73
6, 16402, Note_on_c, 1, 38, 0
6, 16416, Note_on_c, 1, 38, 82
6, 16433, Note_on_c, 1, 38, 0
6, 16440, Note_on_c, 1, 35, 73
6, 16455, Note_on_c, 1, 35, 0
6, 16464, Note_on_c, 1, 33, 73
6, 16480, Note_on_c, 1, 33, 0
6, 16488, Note_on_c, 1, 30, 64
6, 16506, Note_on_c, 1, 30, 0
6, 16512, Note_on_c, 1, 28, 82
6, 16663, Note_on_c, 1, 28, 0
6, 16680, Note_on_c, 1, 28, 64
6, 16692, Note_on_c, 1, 28, 0
6, 16704, Note_on_c, 1, 29, 82
6, 16887, Note_on_c, 1, 29, 0
6, 16896, Note_on_c, 1, 34, 82
6, 17070, Note_on_c, 1, 34, 0
6, 17088, Note_on_c, 1, 36, 73
6, 17262, Note_on_c, 1, 36, 0
6, 17280, Note_on_c, 1, 36, 73
6, 17461, Note_on_c, 1, 36, 0
6, 17472, Note_on_c, 1, 35, 73
6, 17655, Note_on_c, 1, 35, 0
6, 17664, Note_on_c, 1, 32, 73
6, 17842, Note_on_c, 1, 32, 0
6, 17856, Note_on_c, 1, 29, 82
6, 18029, Note_on_c, 1, 29, 0
6, 18048, Note_on_c, 1, 29, 82
6, 18234, Note_on_c, 1, 29, 0
6, 18240, Note_on_c, 1, 28, 73
6, 18423, Note_on_c, 1, 28, 0
6, 18432, Note_on_c, 1, 29, 73
6, 18614, Note_on_c, 1, 29, 0
6, 18624, Note_on_c, 1, 34, 82
6, 18802, Note_on_c, 1, 34, 0
6, 18816, Note_on_c, 1, 36, 64
6, 18991, Note_on_c, 1, 36, 0
6, 19008, Note_on_c, 1, 36, 73
6, 19162, Note_on_c, 1, 36, 0
6, 19176, Note_on_c, 1, 31, 73
6, 19189, Note_on_c, 1, 31, 0
6, 19200, Note_on_c, 1, 35, 73
6, 19351, Note_on_c, 1, 35, 0
6, 19368, Note_on_c, 1, 35, 64
6, 19383, Note_on_c, 1, 35, 0
6, 19392, Note_on_c, 1, 32, 73
6, 19564, Note_on_c, 1, 32, 0
6, 19584, Note_on_c, 1, 29, 73
6, 19764, Note_on_c, 1, 29, 0
6, 19776, Note_on_c, 1, 31, 72
6, 19956, Note_on_c, 1, 31, 0
6, 19968, Note_on_c, 1, 33, 73
6, 20132, Note_on_c, 1, 33, 0
6, 20160, Note_on_c, 1, 33, 73
6, 20177, Note_on_c, 1, 33, 0
6, 20184, Note_on_c, 1, 33, 56
6, 20207, Note_on_c, 1, 33, 0
6, 20232, Note_on_c, 1, 33, 73
6, 20250, Note_on_c, 1, 33, 0
6, 20256, Note_on_c, 1, 31, 73
6, 20337, Note_on_c, 1, 31, 0
6, 20352, Note_on_c, 1, 29, 64
6, 20525, Note_on_c, 1, 29, 0
6, 20544, Note_on_c, 1, 31, 73
6, 20718, Note_on_c, 1, 31, 0
6, 20736, Note_on_c, 1, 33, 73
6, 20906, Note_on_c, 1, 33, 0
6, 20928, Note_on_c, 1, 33, 64
6, 20993, Note_on_c, 1, 33, 0
6, 21000, Note_on_c, 1, 40, 64
6, 21015, Note_on_c, 1, 40, 0
6, 21024, Note_on_c, 1, 45, 73
6, 21070, Note_on_c, 1, 45, 0
6, 21072, Note_on_c, 1, 33, 64
6, 21119, Note_on_c, 1, 33, 0
6, 21120, Note_on_c, 1, 38, 73
6, 21295, Note_on_c, 1, 38, 0
6, 21312, Note_on_c, 1, 31, 64
6, 21487, Note_on_c, 1, 31, 0
6, 21504, Note_on_c, 1, 36, 64
6, 21845, Note_on_c, 1, 36, 0
6, 21864, Note_on_c, 1, 33, 60
6, 21877, Note_on_c, 1, 33, 0
6, 21888, Note_on_c, 1, 38, 73
6, 22232, Note_on_c, 1, 38, 0
6, 22248, Note_on_c, 1, 33, 60
6, 22261, Note_on_c, 1, 33, 0
6, 22272, Note_on_c, 1, 35, 73
6, 22452, Note_on_c, 1, 35, 0
6, 22464, Note_on_c, 1, 28, 73
6, 22814, Note_on_c, 1, 28, 0
6, 22824, Note_on_c, 1, 32, 52
6, 22837, Note_on_c, 1, 32, 0
6, 22848, Note_on_c, 1, 33, 64
6, 23030, Note_on_c, 1, 33, 0
6, 23040, Note_on_c, 1, 29, 73
6, 23192, Note_on_c, 1, 29, 0
6, 23208, Note_on_c, 1, 29, 52
6, 23221, Note_on_c, 1, 29, 0
6, 23232, Note_on_c, 1, 34, 72
6, 23413, Note_on_c, 1, 34, 0
6, 23424, Note_on_c, 1, 36, 70
6, 23570, Note_on_c, 1, 36, 0
6, 23592, Note_on_c, 1, 31, 64
6, 23607, Note_on_c, 1, 31, 0
6, 23616, Note_on_c, 1, 36, 73
6, 23769, Note_on_c, 1, 36, 0
6, 23784, Note_on_c, 1, 31, 64
6, 23799, Note_on_c, 1, 31, 0
6, 23808, Note_on_c, 1, 35, 73
6, 23942, Note_on_c, 1, 35, 0
6, 23952, Note_on_c, 1, 38, 64
6, 23981, Note_on_c, 1, 38, 0
6, 24000, Note_on_c, 1, 32, 64
6, 24082, Note_on_c, 1, 32, 0
6, 24096, Note_on_c, 1, 28, 73
6, 24177, Note_on_c, 1, 28, 0
6, 24192, Note_on_c, 1, 29, 73
6, 24342, Note_on_c, 1, 29, 0
6, 24360, Note_on_c, 1, 29, 64
6, 24369, Note_on_c, 1, 29, 0
6, 24384, Note_on_c, 1, 29, 82
6, 24480, Note_on_c, 1, 41, 64
6, 24481, Note_on_c, 1, 29, 0
6, 24575, Note_on_c, 1, 41, 0
6, 24576, Note_on_c, 1, 28, 73
6, 24763, Note_on_c, 1, 28, 0
6, 24768, Note_on_c, 1, 29, 73
6, 24902, Note_on_c, 1, 29, 0
6, 24912, Note_on_c, 1, 31, 64
6, 24932, Note_on_c, 1, 31, 0
6, 24936, Note_on_c, 1, 29, 60
6, 24954, Note_on_c, 1, 29, 0
6, 24960, Note_on_c, 1, 34, 73
6, 25110, Note_on_c, 1, 34, 0
6, 25128, Note_on_c, 1, 34, 60
6, 25142, Note_on_c, 1, 34, 0
6, 25152, Note_on_c, 1, 36, 73
6, 25298, Note_on_c, 1, 36, 0
6, 25320, Note_on_c, 1, 31, 64
6, 25337, Note_on_c, 1, 31, 0
6, 25344, Note_on_c, 1, 36, 64
6, 25499, Note_on_c, 1, 36, 0
6, 25512, Note_on_c, 1, 31, 64
6, 25527, Note_on_c, 1, 31, 0
6, 25536, Note_on_c, 1, 35, 73
6, 25679, Note_on_c, 1, 35, 0
6, 25704, Note_on_c, 1, 35, 64
6, 25720, Note_on_c, 1, 35, 0
6, 25728, Note_on_c, 1, 32, 73
6, 25873, Note_on_c, 1, 32, 0
6, 25896, Note_on_c, 1, 32, 73
6, 25908, Note_on_c, 1, 32, 0
6, 25920, Note_on_c, 1, 29, 72
6, 26180, Note_on_c, 1, 29, 0
6, 26208, Note_on_c, 1, 31, 82
6, 26295, Note_on_c, 1, 31, 0
6, 26304, Note_on_c, 1, 33, 72
6, 26573, Note_on_c, 1, 33, 0
6, 26592, Note_on_c, 1, 31, 70
6, 26672, Note_on_c, 1, 31, 0
6, 26688, Note_on_c, 1, 29, 72
6, 26862, Note_on_c, 1, 29, 0
6, 26880, Note_on_c, 1, 31, 72
6, 27050, Note_on_c, 1, 31, 0
6, 27072, Note_on_c, 1, 33, 64
6, 27254, Note_on_c, 1, 33, 0
6, 27264, Note_on_c, 1, 29, 73
6, 27416, Note_on_c, 1, 29, 0
6, 27432, Note_on_c, 1, 29, 52
6, 27445, Note_on_c, 1, 29, 0
6, 27456, Note_on_c, 1, 34, 72
6, 27637, Note_on_c, 1, 34, 0
6, 27648, Note_on_c, 1, 36, 70
6, 27794, Note_on_c, 1, 36, 0
6, 27816, Note_on_c, 1, 31, 64
6, 27831, Note_on_c, 1, 31, 0
6, 27840, Note_on_c, 1, 36, 73
6, 27993, Note_on_c, 1, 36, 0
6, 28008, Note_on_c, 1, 31, 64
6, 28023, Note_on_c, 1, 31, 0
6, 28032, Note_on_c, 1, 35, 73
6, 28125, Note_on_c, 1, 35, 0
6, 28128, Note_on_c, 1, 38, 64
6, 28220, Note_on_c, 1, 38, 0
6, 28224, Note_on_c, 1, 32, 64
6, 28306, Note_on_c, 1, 32, 0
6, 28320, Note_on_c, 1, 28, 73
6, 28401, Note_on_c, 1, 28, 0
6, 28416, Note_on_c, 1, 29, 73
6, 28566, Note_on_c, 1, 29, 0
6, 28584, Note_on_c, 1, 29, 64
6, 28593, Note_on_c, 1, 29, 0
6, 28608, Note_on_c, 1, 29, 82
6, 28704, Note_on_c, 1, 41, 64
6, 28705, Note_on_c, 1, 29, 0
6, 28799, Note_on_c, 1, 41, 0
6, 28800, Note_on_c, 1, 28, 73
6, 28987, Note_on_c, 1, 28, 0
6, 28992, Note_on_c, 1, 29, 73
6, 29126, Note_on_c, 1, 29, 0
6, 29136, Note_on_c, 1, 31, 64
6, 29156, Note_on_c, 1, 31, 0
6, 29160, Note_on_c, 1, 29, 60
6, 29178, Note_on_c, 1, 29, 0
6, 29184, Note_on_c, 1, 34, 73
6, 29334, Note_on_c, 1, 34, 0
6, 29352, Note_on_c, 1, 34, 60
6, 29366, Note_on_c, 1, 34, 0
6, 29376, Note_on_c, 1, 36, 73
6, 29522, Note_on_c, 1, 36, 0
6, 29544, Note_on_c, 1, 31, 64
6, 29561, Note_on_c, 1, 31, 0
6, 29568, Note_on_c, 1, 36, 64
6, 29723, Note_on_c, 1, 36, 0
6, 29736, Note_on_c, 1, 31, 64
6, 29751, Note_on_c, 1, 31, 0
6, 29760, Note_on_c, 1, 35, 73
6, 29903, Note_on_c, 1, 35, 0
6, 29928, Note_on_c, 1, 35, 64
6, 29944, Note_on_c, 1, 35, 0
6, 29952, Note_on_c, 1, 32, 73
6, 30097, Note_on_c, 1, 32, 0
6, 30120, Note_on_c, 1, 32, 73
6, 30132, Note_on_c, 1, 32, 0
6, 30144, Note_on_c, 1, 29, 72
6, 30324, Note_on_c, 1, 29, 0
6, 30336, Note_on_c, 1, 31, 82
6, 30518, Note_on_c, 1, 31, 0
6, 30528, Note_on_c, 1, 33, 73
6, 30679, Note_on_c, 1, 33, 0
6, 30696, Note_on_c, 1, 33, 73
6, 30707, Note_on_c, 1, 33, 0
6, 30720, Note_on_c, 1, 33, 73
6, 30779, Note_on_c, 1, 33, 0
6, 30792, Note_on_c, 1, 33, 64
6, 30804, Note_on_c, 1, 33, 0
6, 30816, Note_on_c, 1, 31, 73
6, 30875, Note_on_c, 1, 31, 0
6, 30888, Note_on_c, 1, 31, 82
6, 30901, Note_on_c, 1, 31, 0
6, 30912, Note_on_c, 1, 29, 82
6, 31062, Note_on_c, 1, 29, 0
6, 31080, Note_on_c, 1, 29, 64
6, 31094, Note_on_c, 1, 29, 0
6, 31104, Note_on_c, 1, 31, 82
6, 31249, Note_on_c, 1, 31, 0
6, 31272, Note_on_c, 1, 31, 73
6, 31285, Note_on_c, 1, 31, 0
6, 31296, Note_on_c, 1, 33, 73
6, 31490, Note_on_c, 1, 33, 0
6, 31512, Note_on_c, 1, 33, 73
6, 31541, Note_on_c, 1, 33, 0
6, 31560, Note_on_c, 1, 33, 73
6, 31577, Note_on_c, 1, 33, 0
6, 31584, Note_on_c, 1, 31, 73
6, 31642, Note_on_c, 1, 31, 0
6, 31656, Note_on_c, 1, 31, 73
6, 31671, Note_on_c, 1, 31, 0
6, 31680, Note_on_c, 1, 29, 82
6, 31773, Note_on_c, 1, 29, 0
6, 31776, Note_on_c, 1, 33, 73
6, 31792, Note_on_c, 1, 33, 0
6, 31800, Note_on_c, 1, 36, 64
6, 31815, Note_on_c, 1, 36, 0
6, 31824, Note_on_c, 1, 38, 64
6, 31870, Note_on_c, 1, 38, 0
6, 31872, Note_on_c, 1, 31, 73
6, 31916, Note_on_c, 1, 31, 0
6, 31920, Note_on_c, 1, 35, 73
6, 31934, Note_on_c, 1, 35, 0
6, 31944, Note_on_c, 1, 38, 64
6, 31958, Note_on_c, 1, 38, 0
6, 31968, Note_on_c, 1, 40, 74
6, 31992, Note_on_c, 1, 40, 0
6, 32016, Note_on_c, 1, 38, 73
6, 32032, Note_on_c, 1, 38, 0
6, 32040, Note_on_c, 1, 35, 82
6, 32052, Note_on_c, 1, 35, 0
6, 32064, Note_on_c, 1, 33, 73
6, 32254, Note_on_c, 1, 33, 0
6, 32280, Note_on_c, 1, 33, 82
6, 32309, Note_on_c, 1, 33, 0
6, 32328, Note_on_c, 1, 33, 64
6, 32343, Note_on_c, 1, 33, 0
6, 32352, Note_on_c, 1, 31, 73
6, 32409, Note_on_c, 1, 31, 0
6, 32424, Note_on_c, 1, 31, 73
6, 32438, Note_on_c, 1, 31, 0
6, 32448, Note_on_c, 1, 29, 73
6, 32595, Note_on_c, 1, 29, 0
6, 32616, Note_on_c, 1, 29, 64
6, 32632, Note_on_c, 1, 29, 0
6, 32640, Note_on_c, 1, 31, 73
6, 32795, Note_on_c, 1, 31, 0
6, 32808, Note_on_c, 1, 31, 64
6, 32823, Note_on_c, 1, 31, 0
6, 32832, Note_on_c, 1, 33, 73
6, 33025, Note_on_c, 1, 33, 0
6, 33048, Note_on_c, 1, 33, 64
6, 33075, Note_on_c, 1, 33, 0
6, 33096, Note_on_c, 1, 33, 64
6, 33110, Note_on_c, 1, 33, 0
6, 33120, Note_on_c, 1, 31, 64
6, 33177, Note_on_c, 1, 31, 0
6, 33192, Note_on_c, 1, 31, 73
6, 33208, Note_on_c, 1, 31, 0
6, 33216, Note_on_c, 1, 29, 73
6, 33363, Note_on_c, 1, 29, 0
6, 33384, Note_on_c, 1, 29, 56
6, 33398, Note_on_c, 1, 29, 0
6, 33408, Note_on_c, 1, 31, 64
6, 33580, Note_on_c, 1, 31, 0
6, 33600, Note_on_c, 1, 33, 64
6, 34150, Note_on_c, 1, 33, 0
6, 34150, End_track
7, 0, Start_track
7, 0, MIDI_port, 0
7, 0, Title_t, "Keyboard"
7, 0, Program_c, 2, 5
7, 0, Control_c, 2, 7, 122
7, 0, Control_c, 2, 10, 84
7, 0, Control_c, 2, 91, 110
7, 0, Note_on_c, 2, 54, 73
7, 0, Note_on_c, 2, 50, 60
7, 0, Note_on_c, 2, 57, 60
7, 68, Note_on_c, 2, 57, 0
7, 68, Note_on_c, 2, 50, 0
7, 69, Note_on_c, 2, 54, 0
7, 72, Note_on_c, 2, 54, 56
7, 72, Note_on_c, 2, 57, 64
7, 72, Note_on_c, 2, 50, 56
7, 104, Note_on_c, 2, 50, 0
7, 106, Note_on_c, 2, 57, 0
7, 106, Note_on_c, 2, 54, 0
7, 120, Note_on_c, 2, 57, 60
7, 120, Note_on_c, 2, 54, 60
7, 120, Note_on_c, 2, 50, 56
7, 156, Note_on_c, 2, 50, 0
7, 159, Note_on_c, 2, 54, 0
7, 159, Note_on_c, 2, 57, 0
7, 168, Note_on_c, 2, 59, 73
7, 168, Note_on_c, 2, 55, 73
7, 168, Note_on_c, 2, 50, 64
7, 311, Note_on_c, 2, 55, 0
7, 312, Note_on_c, 2, 55, 73
7, 327, Note_on_c, 2, 59, 0
7, 336, Note_on_c, 2, 59, 73
7, 364, Note_on_c, 2, 55, 0
7, 364, Note_on_c, 2, 50, 0
7, 366, Note_on_c, 2, 59, 0
7, 384, Note_on_c, 2, 60, 82
7, 384, Note_on_c, 2, 55, 64
7, 384, Note_on_c, 2, 52, 60
7, 439, Note_on_c, 2, 52, 0
7, 439, Note_on_c, 2, 55, 0
7, 439, Note_on_c, 2, 60, 0
7, 456, Note_on_c, 2, 60, 73
7, 456, Note_on_c, 2, 55, 73
7, 456, Note_on_c, 2, 52, 73
7, 497, Note_on_c, 2, 52, 0
7, 501, Note_on_c, 2, 55, 0
7, 501, Note_on_c, 2, 60, 0
7, 504, Note_on_c, 2, 60, 64
7, 504, Note_on_c, 2, 55, 73
7, 504, Note_on_c, 2, 52, 73
7, 530, Note_on_c, 2, 52, 0
7, 530, Note_on_c, 2, 55, 0
7, 530, Note_on_c, 2, 60, 0
7, 552, Note_on_c, 2, 60, 73
7, 552, Note_on_c, 2, 55, 73
7, 552, Note_on_c, 2, 52, 64
7, 586, Note_on_c, 2, 52, 0
7, 586, Note_on_c, 2, 60, 0
7, 588, Note_on_c, 2, 55, 0
7, 600, Note_on_c, 2, 59, 64
7, 600, Note_on_c, 2, 55, 82
7, 600, Note_on_c, 2, 50, 73
7, 696, Note_on_c, 2, 57, 73
7, 754, Note_on_c, 2, 55, 0
7, 755, Note_on_c, 2, 50, 0
7, 756, Note_on_c, 2, 59, 0
7, 756, Note_on_c, 2, 57, 0
7, 768, Note_on_c, 2, 57, 73
7, 768, Note_on_c, 2, 50, 73
7, 768, Note_on_c, 2, 54, 82
7, 829, Note_on_c, 2, 54, 0
7, 829, Note_on_c, 2, 50, 0
7, 834, Note_on_c, 2, 57, 0
7, 840, Note_on_c, 2, 57, 73
7, 840, Note_on_c, 2, 54, 82
7, 840, Note_on_c, 2, 50, 73
7, 884, Note_on_c, 2, 50, 0
7, 884, Note_on_c, 2, 54, 0
7, 884, Note_on_c, 2, 57, 0
7, 888, Note_on_c, 2, 57, 73
7, 888, Note_on_c, 2, 54, 64
7, 888, Note_on_c, 2, 50, 60
7, 921, Note_on_c, 2, 50, 0
7, 924, Note_on_c, 2, 57, 0
7, 926, Note_on_c, 2, 54, 0
7, 936, Note_on_c, 2, 55, 82
7, 936, Note_on_c, 2, 50, 73
7, 936, Note_on_c, 2, 59, 73
7, 1038, Note_on_c, 2, 55, 0
7, 1056, Note_on_c, 2, 55, 73
7, 1059, Note_on_c, 2, 59, 0
7, 1080, Note_on_c, 2, 57, 64
7, 1104, Note_on_c, 2, 59, 64
7, 1135, Note_on_c, 2, 50, 0
7, 1139, Note_on_c, 2, 57, 0
7, 1143, Note_on_c, 2, 59, 0
7, 1144, Note_on_c, 2, 55, 0
7, 1152, Note_on_c, 2, 55, 73
7, 1152, Note_on_c, 2, 52, 64
7, 1152, Note_on_c, 2, 60, 64
7, 1214, Note_on_c, 2, 60, 0
7, 1216, Note_on_c, 2, 52, 0
7, 1217, Note_on_c, 2, 55, 0
7, 1224, Note_on_c, 2, 60, 60
7, 1224, Note_on_c, 2, 52, 73
7, 1224, Note_on_c, 2, 55, 73
7, 1264, Note_on_c, 2, 52, 0
7, 1265, Note_on_c, 2, 60, 0
7, 1266, Note_on_c, 2, 55, 0
7, 1272, Note_on_c, 2, 60, 73
7, 1272, Note_on_c, 2, 52, 64
7, 1272, Note_on_c, 2, 55, 64
7, 1304, Note_on_c, 2, 52, 0
7, 1305, Note_on_c, 2, 55, 0
7, 1307, Note_on_c, 2, 60, 0
7, 1320, Note_on_c, 2, 60, 64
7, 1320, Note_on_c, 2, 55, 73
7, 1320, Note_on_c, 2, 52, 64
7, 1357, Note_on_c, 2, 52, 0
7, 1357, Note_on_c, 2, 60, 0
7, 1359, Note_on_c, 2, 55, 0
7, 1368, Note_on_c, 2, 55, 73
7, 1368, Note_on_c, 2, 59, 73
7, 1368, Note_on_c, 2, 50, 73
7, 1427, Note_on_c, 2, 50, 0
7, 1429, Note_on_c, 2, 59, 0
7, 1429, Note_on_c, 2, 55, 0
7, 1440, Note_on_c, 2, 62, 73
7, 1440, Note_on_c, 2, 55, 73
7, 1464, Note_on_c, 2, 57, 60
7, 1536, Note_on_c, 2, 57, 64
7, 1536, Note_on_c, 2, 54, 73
7, 1536, Note_on_c, 2, 50, 64
7, 1540, Note_on_c, 2, 57, 0
7, 1545, Note_on_c, 2, 55, 0
7, 1545, Note_on_c, 2, 62, 0
7, 1587, Control_c, 2, 64, 127
7, 1625, Note_on_c, 2, 50, 0
7, 1632, Note_on_c, 2, 50, 60
7, 1647, Note_on_c, 2, 57, 0
7, 1656, Note_on_c, 2, 57, 64
7, 1708, Note_on_c, 2, 50, 0
7, 1709, Note_on_c, 2, 57, 0
7, 1714, Note_on_c, 2, 54, 0
7, 1728, Note_on_c, 2, 54, 64
7, 1728, Note_on_c, 2, 57, 73
7, 1728, Note_on_c, 2, 50, 60
7, 1831, Note_on_c, 2, 50, 0
7, 1833, Note_on_c, 2, 57, 0
7, 1837, Note_on_c, 2, 54, 0
7, 1840, Control_c, 2, 64, 0
7, 1848, Note_on_c, 2, 50, 73
7, 1848, Note_on_c, 2, 55, 91
7, 1848, Note_on_c, 2, 59, 82
7, 1910, Note_on_c, 2, 55, 0
7, 1911, Note_on_c, 2, 50, 0
7, 1912, Note_on_c, 2, 59, 0
7, 1920, Note_on_c, 2, 57, 73
7, 1920, Note_on_c, 2, 50, 64
7, 1920, Note_on_c, 2, 54, 91
7, 1975, Control_c, 2, 64, 127
7, 1998, Note_on_c, 2, 50, 0
7, 2016, Note_on_c, 2, 50, 82
7, 2020, Note_on_c, 2, 57, 0
7, 2040, Note_on_c, 2, 57, 82
7, 2064, Control_c, 2, 64, 0
7, 2082, Control_c, 2, 64, 127
7, 2095, Control_c, 2, 64, 0
7, 2097, Note_on_c, 2, 50, 0
7, 2098, Note_on_c, 2, 54, 0
7, 2100, Note_on_c, 2, 57, 0
7, 2112, Note_on_c, 2, 50, 73
7, 2112, Note_on_c, 2, 59, 82
7, 2112, Note_on_c, 2, 55, 82
7, 2175, Note_on_c, 2, 50, 0
7, 2176, Note_on_c, 2, 55, 0
7, 2176, Note_on_c, 2, 59, 0
7, 2184, Note_on_c, 2, 60, 82
7, 2184, Note_on_c, 2, 50, 73
7, 2184, Note_on_c, 2, 55, 82
7, 2225, Note_on_c, 2, 55, 0
7, 2226, Note_on_c, 2, 50, 0
7, 2227, Note_on_c, 2, 60, 0
7, 2232, Note_on_c, 2, 59, 82
7, 2232, Note_on_c, 2, 50, 73
7, 2232, Note_on_c, 2, 55, 73
7, 2290, Note_on_c, 2, 50, 0
7, 2293, Note_on_c, 2, 55, 0
7, 2295, Note_on_c, 2, 59, 0
7, 2304, Note_on_c, 2, 60, 64
7, 2304, Note_on_c, 2, 55, 73
7, 2304, Note_on_c, 2, 52, 64
7, 2351, Control_c, 2, 64, 127
7, 2355, Note_on_c, 2, 52, 0
7, 2376, Note_on_c, 2, 55, 0
7, 2376, Note_on_c, 2, 52, 60
7, 2400, Note_on_c, 2, 55, 64
7, 2413, Note_on_c, 2, 52, 0
7, 2414, Note_on_c, 2, 60, 0
7, 2421, Note_on_c, 2, 55, 0
7, 2424, Note_on_c, 2, 52, 73
7, 2424, Note_on_c, 2, 60, 73
7, 2466, Note_on_c, 2, 60, 0
7, 2466, Note_on_c, 2, 52, 0
7, 2472, Note_on_c, 2, 52, 82
7, 2472, Note_on_c, 2, 60, 82
7, 2545, Note_on_c, 2, 52, 0
7, 2568, Note_on_c, 2, 52, 64
7, 2587, Note_on_c, 2, 60, 0
7, 2592, Note_on_c, 2, 55, 73
7, 2616, Note_on_c, 2, 60, 82
7, 2668, Control_c, 2, 64, 0
7, 2673, Note_on_c, 2, 60, 0
7, 2675, Note_on_c, 2, 52, 0
7, 2677, Note_on_c, 2, 55, 0
7, 2688, Note_on_c, 2, 55, 73
7, 2688, Note_on_c, 2, 59, 64
7, 2688, Note_on_c, 2, 50, 73
7, 2796, Note_on_c, 2, 50, 0
7, 2798, Note_on_c, 2, 59, 0
7, 2798, Note_on_c, 2, 55, 0
7, 2808, Note_on_c, 2, 57, 82
7, 2808, Note_on_c, 2, 55, 91
7, 2808, Note_on_c, 2, 50, 64
7, 2839, Note_on_c, 2, 55, 0
7, 2841, Note_on_c, 2, 50, 0
7, 2845, Note_on_c, 2, 57, 0
7, 2856, Note_on_c, 2, 54, 91
7, 2856, Note_on_c, 2, 50, 73
7, 2856, Note_on_c, 2, 57, 82
7, 2976, Note_on_c, 2, 50, 0
7, 2978, Note_on_c, 2, 57, 0
7, 2979, Note_on_c, 2, 54, 0
7, 3000, Note_on_c, 2, 50, 73
7, 3000, Note_on_c, 2, 55, 82
7, 3000, Note_on_c, 2, 59, 82
7, 3072, Note_on_c, 2, 50, 0
7, 3072, Note_on_c, 2, 57, 64
7, 3072, Note_on_c, 2, 54, 73
7, 3072, Note_on_c, 2, 50, 64
7, 3074, Note_on_c, 2, 55, 0
7, 3077, Note_on_c, 2, 59, 0
7, 3141, Control_c, 2, 64, 127
7, 3161, Note_on_c, 2, 50, 0
7, 3168, Note_on_c, 2, 50, 60
7, 3183, Note_on_c, 2, 57, 0
7, 3192, Note_on_c, 2, 57, 64
7, 3244, Note_on_c, 2, 50, 0
7, 3245, Note_on_c, 2, 57, 0
7, 3250, Note_on_c, 2, 54, 0
7, 3264, Note_on_c, 2, 54, 64
7, 3264, Note_on_c, 2, 57, 73
7, 3264, Note_on_c, 2, 50, 60
7, 3367, Note_on_c, 2, 50, 0
7, 3369, Note_on_c, 2, 57, 0
7, 3373, Note_on_c, 2, 54, 0
7, 3377, Control_c, 2, 64, 0
7, 3384, Note_on_c, 2, 50, 73
7, 3384, Note_on_c, 2, 55, 91
7, 3384, Note_on_c, 2, 59, 82
7, 3446, Note_on_c, 2, 55, 0
7, 3447, Note_on_c, 2, 50, 0
7, 3448, Note_on_c, 2, 59, 0
7, 3456, Note_on_c, 2, 57, 73
7, 3456, Note_on_c, 2, 50, 64
7, 3456, Note_on_c, 2, 54, 91
7, 3534, Note_on_c, 2, 50, 0
7, 3552, Note_on_c, 2, 50, 82
7, 3556, Note_on_c, 2, 57, 0
7, 3561, Control_c, 2, 64, 127
7, 3576, Note_on_c, 2, 57, 82
7, 3599, Control_c, 2, 64, 0
7, 3633, Note_on_c, 2, 50, 0
7, 3634, Note_on_c, 2, 54, 0
7, 3636, Note_on_c, 2, 57, 0
7, 3648, Note_on_c, 2, 50, 73
7, 3648, Note_on_c, 2, 59, 82
7, 3648, Note_on_c, 2, 55, 82
7, 3711, Note_on_c, 2, 50, 0
7, 3712, Note_on_c, 2, 55, 0
7, 3712, Note_on_c, 2, 59, 0
7, 3720, Note_on_c, 2, 60, 82
7, 3720, Note_on_c, 2, 50, 73
7, 3720, Note_on_c, 2, 55, 82
7, 3761, Note_on_c, 2, 55, 0
7, 3762, Note_on_c, 2, 50, 0
7, 3763, Note_on_c, 2, 60, 0
7, 3768, Note_on_c, 2, 59, 82
7, 3768, Note_on_c, 2, 50, 73
7, 3768, Note_on_c, 2, 55, 73
7, 3826, Note_on_c, 2, 50, 0
7, 3829, Note_on_c, 2, 55, 0
7, 3831, Note_on_c, 2, 59, 0
7, 3840, Note_on_c, 2, 60, 64
7, 3840, Note_on_c, 2, 55, 73
7, 3840, Note_on_c, 2, 52, 64
7, 3885, Control_c, 2, 64, 127
7, 3891, Note_on_c, 2, 52, 0
7, 3912, Note_on_c, 2, 55, 0
7, 3912, Note_on_c, 2, 52, 60
7, 3936, Note_on_c, 2, 55, 64
7, 3949, Note_on_c, 2, 52, 0
7, 3950, Note_on_c, 2, 60, 0
7, 3957, Note_on_c, 2, 55, 0
7, 3960, Note_on_c, 2, 52, 73
7, 3960, Note_on_c, 2, 60, 73
7, 4002, Note_on_c, 2, 60, 0
7, 4002, Note_on_c, 2, 52, 0
7, 4008, Note_on_c, 2, 52, 82
7, 4008, Note_on_c, 2, 60, 82
7, 4081, Note_on_c, 2, 52, 0
7, 4104, Note_on_c, 2, 52, 64
7, 4123, Note_on_c, 2, 60, 0
7, 4128, Note_on_c, 2, 55, 73
7, 4152, Note_on_c, 2, 60, 82
7, 4209, Note_on_c, 2, 60, 0
7, 4211, Note_on_c, 2, 52, 0
7, 4213, Note_on_c, 2, 55, 0
7, 4223, Control_c, 2, 64, 0
7, 4224, Note_on_c, 2, 62, 82
7, 4224, Note_on_c, 2, 57, 73
7, 4243, Note_on_c, 2, 57, 0
7, 4248, Note_on_c, 2, 59, 56
7, 4282, Note_on_c, 2, 59, 0
7, 4296, Note_on_c, 2, 57, 82
7, 4340, Note_on_c, 2, 57, 0
7, 4344, Note_on_c, 2, 55, 73
7, 4377, Note_on_c, 2, 55, 0
7, 4382, Note_on_c, 2, 62, 0
7, 4392, Note_on_c, 2, 62, 64
7, 4392, Note_on_c, 2, 54, 91
7, 4392, Note_on_c, 2, 57, 73
7, 4506, Note_on_c, 2, 54, 0
7, 4512, Note_on_c, 2, 54, 73
7, 4527, Note_on_c, 2, 57, 0
7, 4536, Note_on_c, 2, 57, 64
7, 4597, Note_on_c, 2, 54, 0
7, 4598, Note_on_c, 2, 57, 0
7, 4608, Note_on_c, 2, 64, 73
7, 4608, Note_on_c, 2, 60, 82
7, 4608, Note_on_c, 2, 55, 82
7, 4611, Note_on_c, 2, 62, 0
7, 4665, Note_on_c, 2, 64, 0
7, 4666, Note_on_c, 2, 60, 0
7, 4667, Note_on_c, 2, 55, 0
7, 4680, Note_on_c, 2, 62, 82
7, 4680, Note_on_c, 2, 59, 82
7, 4680, Note_on_c, 2, 55, 73
7, 4961, Note_on_c, 2, 55, 0
7, 4964, Note_on_c, 2, 59, 0
7, 4966, Note_on_c, 2, 62, 0
7, 4992, Note_on_c, 2, 62, 73
7, 4992, Note_on_c, 2, 66, 64
7, 4992, Note_on_c, 2, 57, 60
7, 4992, Note_on_c, 2, 69, 60
7, 5049, Note_on_c, 2, 69, 0
7, 5050, Note_on_c, 2, 62, 0
7, 5050, Note_on_c, 2, 66, 0
7, 5052, Note_on_c, 2, 57, 0
7, 5064, Note_on_c, 2, 69, 73
7, 5064, Note_on_c, 2, 64, 73
7, 5064, Note_on_c, 2, 61, 73
7, 5064, Note_on_c, 2, 57, 64
7, 5357, Note_on_c, 2, 57, 0
7, 5361, Note_on_c, 2, 61, 0
7, 5363, Note_on_c, 2, 64, 0
7, 5364, Note_on_c, 2, 69, 0
7, 5376, Note_on_c, 2, 54, 60
7, 5376, Note_on_c, 2, 62, 73
7, 5376, Note_on_c, 2, 59, 64
7, 5455, Note_on_c, 2, 59, 0
7, 5464, Note_on_c, 2, 62, 0
7, 5471, Note_on_c, 2, 54, 0
7, 5472, Note_on_c, 2, 64, 64
7, 5472, Note_on_c, 2, 55, 60
7, 5472, Note_on_c, 2, 60, 73
7, 5555, Note_on_c, 2, 64, 0
7, 5556, Note_on_c, 2, 60, 0
7, 5561, Note_on_c, 2, 55, 0
7, 5568, Note_on_c, 2, 62, 73
7, 5568, Note_on_c, 2, 66, 64
7, 5568, Note_on_c, 2, 57, 64
7, 5652, Note_on_c, 2, 66, 0
7, 5653, Note_on_c, 2, 62, 0
7, 5659, Note_on_c, 2, 57, 0
7, 5664, Note_on_c, 2, 64, 64
7, 5664, Note_on_c, 2, 68, 64
7, 5664, Note_on_c, 2, 59, 56
7, 6120, Note_on_c, 2, 68, 0
7, 6125, Note_on_c, 2, 64, 0
7, 6130, Note_on_c, 2, 59, 0
7, 6144, Note_on_c, 2, 64, 73
7, 6144, Note_on_c, 2, 60, 64
7, 6144, Note_on_c, 2, 55, 64
7, 6226, Note_on_c, 2, 55, 0
7, 6229, Note_on_c, 2, 64, 0
7, 6231, Note_on_c, 2, 60, 0
7, 6240, Note_on_c, 2, 55, 64
7, 6240, Note_on_c, 2, 62, 60
7, 6240, Note_on_c, 2, 59, 64
7, 6303, Note_on_c, 2, 62, 0
7, 6305, Note_on_c, 2, 59, 0
7, 6311, Note_on_c, 2, 55, 0
7, 6336, Note_on_c, 2, 57, 73
7, 6336, Note_on_c, 2, 62, 73
7, 6336, Note_on_c, 2, 54, 64
7, 6408, Note_on_c, 2, 50, 82
7, 6415, Note_on_c, 2, 54, 0
7, 6432, Note_on_c, 2, 54, 73
7, 6444, Note_on_c, 2, 57, 0
7, 6456, Note_on_c, 2, 57, 73
7, 6457, Note_on_c, 2, 62, 0
7, 6504, Note_on_c, 2, 62, 73
7, 6543, Note_on_c, 2, 50, 0
7, 6552, Note_on_c, 2, 50, 82
7, 6563, Note_on_c, 2, 54, 0
7, 6600, Note_on_c, 2, 54, 82
7, 6622, Note_on_c, 2, 62, 0
7, 6623, Note_on_c, 2, 57, 0
7, 6648, Note_on_c, 2, 62, 73
7, 6664, Note_on_c, 2, 54, 0
7, 6672, Note_on_c, 2, 57, 60
7, 6696, Note_on_c, 2, 54, 73
7, 6701, Note_on_c, 2, 50, 0
7, 6726, Note_on_c, 2, 54, 0
7, 6729, Note_on_c, 2, 57, 0
7, 6731, Note_on_c, 2, 62, 0
7, 11328, Note_on_c, 2, 57, 64
7, 11328, Note_on_c, 2, 54, 73
7, 11328, Note_on_c, 2, 50, 64
7, 11379, Control_c, 2, 64, 127
7, 11417, Note_on_c, 2, 50, 0
7, 11424, Note_on_c, 2, 50, 60
7, 11439, Note_on_c, 2, 57, 0
7, 11448, Note_on_c, 2, 57, 64
7, 11500, Note_on_c, 2, 50, 0
7, 11501, Note_on_c, 2, 57, 0
7, 11506, Note_on_c, 2, 54, 0
7, 11520, Note_on_c, 2, 54, 64
7, 11520, Note_on_c, 2, 57, 73
7, 11520, Note_on_c, 2, 50, 60
7, 11623, Note_on_c, 2, 50, 0
7, 11625, Note_on_c, 2, 57, 0
7, 11629, Note_on_c, 2, 54, 0
7, 11632, Control_c, 2, 64, 0
7, 11640, Note_on_c, 2, 50, 73
7, 11640, Note_on_c, 2, 55, 91
7, 11640, Note_on_c, 2, 59, 82
7, 11702, Note_on_c, 2, 55, 0
7, 11703, Note_on_c, 2, 50, 0
7, 11704, Note_on_c, 2, 59, 0
7, 11712, Note_on_c, 2, 57, 73
7, 11712, Note_on_c, 2, 50, 64
7, 11712, Note_on_c, 2, 54, 91
7, 11767, Control_c, 2, 64, 127
7, 11790, Note_on_c, 2, 50, 0
7, 11808, Note_on_c, 2, 50, 82
7, 11812, Note_on_c, 2, 57, 0
7, 11832, Note_on_c, 2, 57, 82
7, 11856, Control_c, 2, 64, 0
7, 11874, Control_c, 2, 64, 127
7, 11887, Control_c, 2, 64, 0
7, 11889, Note_on_c, 2, 50, 0
7, 11890, Note_on_c, 2, 54, 0
7, 11892, Note_on_c, 2, 57, 0
7, 11904, Note_on_c, 2, 50, 73
7, 11904, Note_on_c, 2, 59, 82
7, 11904, Note_on_c, 2, 55, 82
7, 11967, Note_on_c, 2, 50, 0
7, 11968, Note_on_c, 2, 55, 0
7, 11968, Note_on_c, 2, 59, 0
7, 11976, Note_on_c, 2, 60, 82
7, 11976, Note_on_c, 2, 50, 73
7, 11976, Note_on_c, 2, 55, 82
7, 12017, Note_on_c, 2, 55, 0
7, 12018, Note_on_c, 2, 50, 0
7, 12019, Note_on_c, 2, 60, 0
7, 12024, Note_on_c, 2, 59, 82
7, 12024, Note_on_c, 2, 50, 73
7, 12024, Note_on_c, 2, 55, 73
7, 12082, Note_on_c, 2, 50, 0
7, 12085, Note_on_c, 2, 55, 0
7, 12087, Note_on_c, 2, 59, 0
7, 12096, Note_on_c, 2, 60, 64
7, 12096, Note_on_c, 2, 55, 73
7, 12096, Note_on_c, 2, 52, 64
7, 12143, Control_c, 2, 64, 127
7, 12147, Note_on_c, 2, 52, 0
7, 12168, Note_on_c, 2, 55, 0
7, 12168, Note_on_c, 2, 52, 60
7, 12192, Note_on_c, 2, 55, 64
7, 12205, Note_on_c, 2, 52, 0
7, 12206, Note_on_c, 2, 60, 0
7, 12213, Note_on_c, 2, 55, 0
7, 12216, Note_on_c, 2, 52, 73
7, 12216, Note_on_c, 2, 60, 73
7, 12258, Note_on_c, 2, 60, 0
7, 12258, Note_on_c, 2, 52, 0
7, 12264, Note_on_c, 2, 52, 82
7, 12264, Note_on_c, 2, 60, 82
7, 12337, Note_on_c, 2, 52, 0
7, 12360, Note_on_c, 2, 52, 64
7, 12379, Note_on_c, 2, 60, 0
7, 12384, Note_on_c, 2, 55, 73
7, 12408, Note_on_c, 2, 60, 82
7, 12460, Control_c, 2, 64, 0
7, 12465, Note_on_c, 2, 60, 0
7, 12467, Note_on_c, 2, 52, 0
7, 12469, Note_on_c, 2, 55, 0
7, 12480, Note_on_c, 2, 55, 73
7, 12480, Note_on_c, 2, 59, 64
7, 12480, Note_on_c, 2, 50, 73
7, 12588, Note_on_c, 2, 50, 0
7, 12590, Note_on_c, 2, 59, 0
7, 12590, Note_on_c, 2, 55, 0
7, 12600, Note_on_c, 2, 57, 82
7, 12600, Note_on_c, 2, 55, 91
7, 12600, Note_on_c, 2, 50, 64
7, 12631, Note_on_c, 2, 55, 0
7, 12633, Note_on_c, 2, 50, 0
7, 12637, Note_on_c, 2, 57, 0
7, 12648, Note_on_c, 2, 54, 91
7, 12648, Note_on_c, 2, 50, 73
7, 12648, Note_on_c, 2, 57, 82
7, 12768, Note_on_c, 2, 50, 0
7, 12770, Note_on_c, 2, 57, 0
7, 12771, Note_on_c, 2, 54, 0
7, 12792, Note_on_c, 2, 50, 73
7, 12792, Note_on_c, 2, 55, 82
7, 12792, Note_on_c, 2, 59, 82
7, 12864, Note_on_c, 2, 50, 0
7, 12864, Note_on_c, 2, 57, 64
7, 12864, Note_on_c, 2, 54, 73
7, 12864, Note_on_c, 2, 50, 64
7, 12866, Note_on_c, 2, 55, 0
7, 12869, Note_on_c, 2, 59, 0
7, 12933, Control_c, 2, 64, 127
7, 12953, Note_on_c, 2, 50, 0
7, 12960, Note_on_c, 2, 50, 60
7, 12975, Note_on_c, 2, 57, 0
7, 12984, Note_on_c, 2, 57, 64
7, 13036, Note_on_c, 2, 50, 0
7, 13037, Note_on_c, 2, 57, 0
7, 13042, Note_on_c, 2, 54, 0
7, 13056, Note_on_c, 2, 54, 64
7, 13056, Note_on_c, 2, 57, 73
7, 13056, Note_on_c, 2, 50, 60
7, 13159, Note_on_c, 2, 50, 0
7, 13161, Note_on_c, 2, 57, 0
7, 13165, Note_on_c, 2, 54, 0
7, 13169, Control_c, 2, 64, 0
7, 13176, Note_on_c, 2, 50, 73
7, 13176, Note_on_c, 2, 55, 91
7, 13176, Note_on_c, 2, 59, 82
7, 13238, Note_on_c, 2, 55, 0
7, 13239, Note_on_c, 2, 50, 0
7, 13240, Note_on_c, 2, 59, 0
7, 13248, Note_on_c, 2, 57, 73
7, 13248, Note_on_c, 2, 50, 64
7, 13248, Note_on_c, 2, 54, 91
7, 13326, Note_on_c, 2, 50, 0
7, 13344, Note_on_c, 2, 50, 82
7, 13348, Note_on_c, 2, 57, 0
7, 13353, Control_c, 2, 64, 127
7, 13368, Note_on_c, 2, 57, 82
7, 13391, Control_c, 2, 64, 0
7, 13425, Note_on_c, 2, 50, 0
7, 13426, Note_on_c, 2, 54, 0
7, 13428, Note_on_c, 2, 57, 0
7, 13440, Note_on_c, 2, 50, 73
7, 13440, Note_on_c, 2, 59, 82
7, 13440, Note_on_c, 2, 55, 82
7, 13503, Note_on_c, 2, 50, 0
7, 13504, Note_on_c, 2, 55, 0
7, 13504, Note_on_c, 2, 59, 0
7, 13512, Note_on_c, 2, 60, 82
7, 13512, Note_on_c, 2, 50, 73
7, 13512, Note_on_c, 2, 55, 82
7, 13553, Note_on_c, 2, 55, 0
7, 13554, Note_on_c, 2, 50, 0
7, 13555, Note_on_c, 2, 60, 0
7, 13560, Note_on_c, 2, 59, 82
7, 13560, Note_on_c, 2, 50, 73
7, 13560, Note_on_c, 2, 55, 73
7, 13618, Note_on_c, 2, 50, 0
7, 13621, Note_on_c, 2, 55, 0
7, 13623, Note_on_c, 2, 59, 0
7, 13632, Note_on_c, 2, 60, 64
7, 13632, Note_on_c, 2, 55, 73
7, 13632, Note_on_c, 2, 52, 64
7, 13677, Control_c, 2, 64, 127
7, 13683, Note_on_c, 2, 52, 0
7, 13704, Note_on_c, 2, 55, 0
7, 13704, Note_on_c, 2, 52, 60
7, 13728, Note_on_c, 2, 55, 64
7, 13741, Note_on_c, 2, 52, 0
7, 13742, Note_on_c, 2, 60, 0
7, 13749, Note_on_c, 2, 55, 0
7, 13752, Note_on_c, 2, 52, 73
7, 13752, Note_on_c, 2, 60, 73
7, 13794, Note_on_c, 2, 60, 0
7, 13794, Note_on_c, 2, 52, 0
7, 13800, Note_on_c, 2, 52, 82
7, 13800, Note_on_c, 2, 60, 82
7, 13873, Note_on_c, 2, 52, 0
7, 13896, Note_on_c, 2, 52, 64
7, 13915, Note_on_c, 2, 60, 0
7, 13920, Note_on_c, 2, 55, 73
7, 13944, Note_on_c, 2, 60, 82
7, 14001, Note_on_c, 2, 60, 0
7, 14003, Note_on_c, 2, 52, 0
7, 14005, Note_on_c, 2, 55, 0
7, 14015, Control_c, 2, 64, 0
7, 14016, Note_on_c, 2, 62, 82
7, 14016, Note_on_c, 2, 57, 73
7, 14035, Note_on_c, 2, 57, 0
7, 14040, Note_on_c, 2, 59, 56
7, 14074, Note_on_c, 2, 59, 0
7, 14088, Note_on_c, 2, 57, 82
7, 14132, Note_on_c, 2, 57, 0
7, 14136, Note_on_c, 2, 55, 73
7, 14169, Note_on_c, 2, 55, 0
7, 14174, Note_on_c, 2, 62, 0
7, 14184, Note_on_c, 2, 62, 64
7, 14184, Note_on_c, 2, 54, 91
7, 14184, Note_on_c, 2, 57, 73
7, 14298, Note_on_c, 2, 54, 0
7, 14304, Note_on_c, 2, 54, 73
7, 14319, Note_on_c, 2, 57, 0
7, 14328, Note_on_c, 2, 57, 64
7, 14389, Note_on_c, 2, 54, 0
7, 14390, Note_on_c, 2, 57, 0
7, 14400, Note_on_c, 2, 64, 73
7, 14400, Note_on_c, 2, 60, 82
7, 14400, Note_on_c, 2, 55, 82
7, 14403, Note_on_c, 2, 62, 0
7, 14457, Note_on_c, 2, 64, 0
7, 14458, Note_on_c, 2, 60, 0
7, 14459, Note_on_c, 2, 55, 0
7, 14472, Note_on_c, 2, 62, 82
7, 14472, Note_on_c, 2, 59, 82
7, 14472, Note_on_c, 2, 55, 73
7, 14753, Note_on_c, 2, 55, 0
7, 14756, Note_on_c, 2, 59, 0
7, 14758, Note_on_c, 2, 62, 0
7, 14784, Note_on_c, 2, 62, 73
7, 14784, Note_on_c, 2, 66, 64
7, 14784, Note_on_c, 2, 57, 60
7, 14784, Note_on_c, 2, 69, 60
7, 14841, Note_on_c, 2, 69, 0
7, 14842, Note_on_c, 2, 62, 0
7, 14842, Note_on_c, 2, 66, 0
7, 14844, Note_on_c, 2, 57, 0
7, 14856, Note_on_c, 2, 69, 73
7, 14856, Note_on_c, 2, 64, 73
7, 14856, Note_on_c, 2, 61, 73
7, 14856, Note_on_c, 2, 57, 64
7, 15149, Note_on_c, 2, 57, 0
7, 15153, Note_on_c, 2, 61, 0
7, 15155, Note_on_c, 2, 64, 0
7, 15156, Note_on_c, 2, 69, 0
7, 15168, Note_on_c, 2, 54, 60
7, 15168, Note_on_c, 2, 62, 73
7, 15168, Note_on_c, 2, 59, 64
7, 15247, Note_on_c, 2, 59, 0
7, 15256, Note_on_c, 2, 62, 0
7, 15263, Note_on_c, 2, 54, 0
7, 15264, Note_on_c, 2, 64, 64
7, 15264, Note_on_c, 2, 55, 60
7, 15264, Note_on_c, 2, 60, 73
7, 15347, Note_on_c, 2, 64, 0
7, 15348, Note_on_c, 2, 60, 0
7, 15353, Note_on_c, 2, 55, 0
7, 15360, Note_on_c, 2, 62, 73
7, 15360, Note_on_c, 2, 66, 64
7, 15360, Note_on_c, 2, 57, 64
7, 15444, Note_on_c, 2, 66, 0
7, 15445, Note_on_c, 2, 62, 0
7, 15451, Note_on_c, 2, 57, 0
7, 15456, Note_on_c, 2, 64, 64
7, 15456, Note_on_c, 2, 68, 64
7, 15456, Note_on_c, 2, 59, 56
7, 15912, Note_on_c, 2, 68, 0
7, 15917, Note_on_c, 2, 64, 0
7, 15922, Note_on_c, 2, 59, 0
7, 15936, Note_on_c, 2, 64, 73
7, 15936, Note_on_c, 2, 60, 64
7, 15936, Note_on_c, 2, 55, 64
7, 16018, Note_on_c, 2, 55, 0
7, 16021, Note_on_c, 2, 64, 0
7, 16023, Note_on_c, 2, 60, 0
7, 16032, Note_on_c, 2, 55, 64
7, 16032, Note_on_c, 2, 62, 60
7, 16032, Note_on_c, 2, 59, 64
7, 16095, Note_on_c, 2, 62, 0
7, 16097, Note_on_c, 2, 59, 0
7, 16103, Note_on_c, 2, 55, 0
7, 16128, Note_on_c, 2, 57, 73
7, 16128, Note_on_c, 2, 62, 73
7, 16128, Note_on_c, 2, 54, 64
7, 16200, Note_on_c, 2, 50, 82
7, 16207, Note_on_c, 2, 54, 0
7, 16224, Note_on_c, 2, 54, 73
7, 16236, Note_on_c, 2, 57, 0
7, 16248, Note_on_c, 2, 57, 73
7, 16249, Note_on_c, 2, 62, 0
7, 16296, Note_on_c, 2, 62, 73
7, 16335, Note_on_c, 2, 50, 0
7, 16344, Note_on_c, 2, 50, 82
7, 16355, Note_on_c, 2, 54, 0
7, 16392, Note_on_c, 2, 54, 82
7, 16414, Note_on_c, 2, 62, 0
7, 16415, Note_on_c, 2, 57, 0
7, 16440, Note_on_c, 2, 62, 73
7, 16456, Note_on_c, 2, 54, 0
7, 16464, Note_on_c, 2, 57, 60
7, 16488, Note_on_c, 2, 54, 73
7, 16493, Note_on_c, 2, 50, 0
7, 16518, Note_on_c, 2, 54, 0
7, 16521, Note_on_c, 2, 57, 0
7, 16523, Note_on_c, 2, 62, 0
7, 21120, Note_on_c, 2, 57, 60
7, 21120, Note_on_c, 2, 62, 64
7, 21120, Note_on_c, 2, 65, 73
7, 21120, Control_c, 2, 64, 127
7, 21152, Note_on_c, 2, 57, 0
7, 21156, Note_on_c, 2, 62, 0
7, 21161, Note_on_c, 2, 65, 0
7, 21168, Note_on_c, 2, 57, 52
7, 21188, Note_on_c, 2, 57, 0
7, 21192, Note_on_c, 2, 62, 64
7, 21217, Note_on_c, 2, 62, 0
7, 21240, Note_on_c, 2, 65, 64
7, 21262, Note_on_c, 2, 65, 0
7, 21288, Note_on_c, 2, 55, 44
7, 21288, Note_on_c, 2, 59, 52
7, 21288, Note_on_c, 2, 62, 52
7, 21288, Control_c, 2, 64, 0
7, 21312, Control_c, 2, 64, 127
7, 21366, Note_on_c, 2, 59, 0
7, 21366, Note_on_c, 2, 55, 0
7, 21368, Note_on_c, 2, 62, 0
7, 21384, Note_on_c, 2, 59, 56
7, 21408, Note_on_c, 2, 59, 0
7, 21408, Note_on_c, 2, 55, 64
7, 21439, Note_on_c, 2, 55, 0
7, 21456, Note_on_c, 2, 62, 64
7, 21472, Note_on_c, 2, 62, 0
7, 21504, Note_on_c, 2, 64, 56
7, 21504, Note_on_c, 2, 55, 56
7, 21504, Note_on_c, 2, 60, 60
7, 21504, Control_c, 2, 64, 0
7, 21528, Control_c, 2, 64, 127
7, 21528, Control_c, 2, 64, 0
7, 21528, Control_c, 2, 64, 127
7, 21536, Note_on_c, 2, 55, 0
7, 21544, Note_on_c, 2, 60, 0
7, 21551, Note_on_c, 2, 64, 0
7, 21552, Note_on_c, 2, 55, 56
7, 21576, Note_on_c, 2, 55, 0
7, 21576, Note_on_c, 2, 60, 64
7, 21606, Note_on_c, 2, 60, 0
7, 21624, Note_on_c, 2, 64, 56
7, 21652, Note_on_c, 2, 64, 0
7, 21672, Note_on_c, 2, 67, 73
7, 21720, Note_on_c, 2, 60, 60
7, 21768, Note_on_c, 2, 64, 64
7, 21816, Note_on_c, 2, 55, 60
7, 21829, Note_on_c, 2, 67, 0
7, 21832, Note_on_c, 2, 64, 0
7, 21835, Note_on_c, 2, 60, 0
7, 21839, Note_on_c, 2, 55, 0
7, 21888, Control_c, 2, 64, 0
7, 21888, Note_on_c, 2, 57, 56
7, 21888, Note_on_c, 2, 62, 64
7, 21888, Note_on_c, 2, 65, 60
7, 21912, Control_c, 2, 64, 127
7, 21912, Control_c, 2, 64, 0
7, 21912, Control_c, 2, 64, 127
7, 21930, Note_on_c, 2, 57, 0
7, 21936, Note_on_c, 2, 57, 60
7, 21938, Note_on_c, 2, 62, 0
7, 21946, Note_on_c, 2, 65, 0
7, 21960, Note_on_c, 2, 62, 73
7, 21970, Note_on_c, 2, 57, 0
7, 21991, Note_on_c, 2, 62, 0
7, 22008, Note_on_c, 2, 65, 60
7, 22051, Note_on_c, 2, 65, 0
7, 22056, Note_on_c, 2, 62, 64
7, 22093, Note_on_c, 2, 62, 0
7, 22104, Note_on_c, 2, 57, 56
7, 22124, Note_on_c, 2, 57, 0
7, 22152, Note_on_c, 2, 62, 64
7, 22183, Note_on_c, 2, 62, 0
7, 22200, Note_on_c, 2, 65, 64
7, 22213, Note_on_c, 2, 65, 0
7, 22272, Note_on_c, 2, 63, 60
7, 22272, Note_on_c, 2, 66, 60
7, 22272, Note_on_c, 2, 59, 44
7, 22272, Note_on_c, 2, 57, 52
7, 22272, Control_c, 2, 64, 0
7, 22296, Control_c, 2, 64, 127
7, 22324, Note_on_c, 2, 57, 0
7, 22325, Note_on_c, 2, 59, 0
7, 22332, Note_on_c, 2, 63, 0
7, 22342, Note_on_c, 2, 66, 0
7, 22344, Note_on_c, 2, 57, 60
7, 22344, Note_on_c, 2, 59, 64
7, 22361, Note_on_c, 2, 59, 0
7, 22363, Note_on_c, 2, 57, 0
7, 22392, Note_on_c, 2, 63, 82
7, 22410, Note_on_c, 2, 63, 0
7, 22464, Note_on_c, 2, 59, 64
7, 22464, Note_on_c, 2, 64, 73
7, 22464, Note_on_c, 2, 68, 60
7, 22464, Control_c, 2, 64, 0
7, 22488, Control_c, 2, 64, 127
7, 22510, Note_on_c, 2, 59, 0
7, 22525, Note_on_c, 2, 64, 0
7, 22526, Note_on_c, 2, 68, 0
7, 22536, Note_on_c, 2, 59, 64
7, 22568, Note_on_c, 2, 59, 0
7, 22584, Note_on_c, 2, 64, 60
7, 22608, Note_on_c, 2, 64, 0
7, 22632, Note_on_c, 2, 68, 82
7, 22680, Note_on_c, 2, 64, 64
7, 22691, Note_on_c, 2, 68, 0
7, 22715, Note_on_c, 2, 64, 0
7, 22728, Note_on_c, 2, 59, 60
7, 22740, Note_on_c, 2, 59, 0
7, 22776, Note_on_c, 2, 68, 82
7, 22789, Note_on_c, 2, 68, 0
7, 22862, Control_c, 2, 64, 0
7, 22862, End_track
8, 0, Start_track
8, 0, MIDI_port, 0
8, 0, Title_t, "Guitar 1"
8, 0, Program_c, 3, 24
8, 0, Control_c, 3, 7, 125
8, 0, Control_c, 3, 10, 44
8, 6744, Control_c, 3, 91, 120
8, 6744, Control_c, 3, 11, 120
8, 6744, Note_on_c, 3, 57, 60
8, 6768, Note_on_c, 3, 61, 64
8, 6792, Note_on_c, 3, 64, 73
8, 6823, Note_on_c, 3, 61, 0
8, 6840, Note_on_c, 3, 61, 52
8, 6843, Note_on_c, 3, 57, 0
8, 6864, Note_on_c, 3, 57, 64
8, 6919, Note_on_c, 3, 57, 0
8, 6930, Note_on_c, 3, 64, 0
8, 6931, Note_on_c, 3, 61, 0
8, 6936, Note_on_c, 3, 57, 64
8, 6960, Note_on_c, 3, 62, 64
8, 6984, Note_on_c, 3, 65, 73
8, 7017, Note_on_c, 3, 62, 0
8, 7032, Note_on_c, 3, 62, 60
8, 7035, Note_on_c, 3, 57, 0
8, 7056, Note_on_c, 3, 57, 64
8, 7116, Note_on_c, 3, 62, 0
8, 7117, Note_on_c, 3, 57, 0
8, 7117, Note_on_c, 3, 65, 0
8, 7128, Note_on_c, 3, 56, 64
8, 7152, Note_on_c, 3, 62, 73
8, 7176, Note_on_c, 3, 65, 73
8, 7209, Note_on_c, 3, 62, 0
8, 7224, Note_on_c, 3, 62, 60
8, 7236, Note_on_c, 3, 56, 0
8, 7248, Note_on_c, 3, 56, 64
8, 7298, Note_on_c, 3, 56, 0
8, 7309, Note_on_c, 3, 65, 0
8, 7312, Note_on_c, 3, 62, 0
8, 7320, Note_on_c, 3, 55, 64
8, 7344, Note_on_c, 3, 60, 64
8, 7368, Note_on_c, 3, 64, 64
8, 7400, Note_on_c, 3, 60, 0
8, 7416, Note_on_c, 3, 60, 64
8, 7435, Note_on_c, 3, 55, 0
8, 7440, Note_on_c, 3, 55, 64
8, 7490, Note_on_c, 3, 55, 0
8, 7504, Note_on_c, 3, 60, 0
8, 7509, Note_on_c, 3, 64, 0
8, 7512, Note_on_c, 3, 55, 64
8, 7536, Note_on_c, 3, 60, 60
8, 7560, Note_on_c, 3, 64, 73
8, 7575, Note_on_c, 3, 60, 0
8, 7608, Note_on_c, 3, 60, 56
8, 7611, Note_on_c, 3, 55, 0
8, 7632, Note_on_c, 3, 55, 64
8, 7681, Note_on_c, 3, 55, 0
8, 7686, Note_on_c, 3, 64, 0
8, 7692, Note_on_c, 3, 60, 0
8, 7704, Note_on_c, 3, 53, 64
8, 7728, Note_on_c, 3, 59, 56
8, 7752, Note_on_c, 3, 62, 64
8, 7785, Note_on_c, 3, 59, 0
8, 7800, Note_on_c, 3, 59, 73
8, 7809, Note_on_c, 3, 53, 0
8, 7824, Note_on_c, 3, 53, 64
8, 7877, Note_on_c, 3, 53, 0
8, 7890, Note_on_c, 3, 59, 0
8, 7891, Note_on_c, 3, 62, 0
8, 7896, Note_on_c, 3, 56, 64
8, 7920, Note_on_c, 3, 62, 73
8, 7944, Note_on_c, 3, 64, 64
8, 7946, Note_on_c, 3, 62, 0
8, 7992, Note_on_c, 3, 62, 64
8, 8016, Note_on_c, 3, 59, 64
8, 8051, Note_on_c, 3, 56, 0
8, 8069, Note_on_c, 3, 59, 0
8, 8071, Note_on_c, 3, 64, 0
8, 8072, Note_on_c, 3, 62, 0
8, 8088, Note_on_c, 3, 57, 73
8, 8112, Note_on_c, 3, 60, 60
8, 8136, Note_on_c, 3, 65, 64
8, 8161, Note_on_c, 3, 60, 0
8, 8184, Note_on_c, 3, 60, 60
8, 8197, Note_on_c, 3, 57, 0
8, 8208, Note_on_c, 3, 57, 56
8, 8254, Note_on_c, 3, 57, 0
8, 8280, Note_on_c, 3, 57, 64
8, 8286, Note_on_c, 3, 60, 0
8, 8301, Note_on_c, 3, 65, 0
8, 8304, Note_on_c, 3, 60, 64
8, 8328, Note_on_c, 3, 65, 64
8, 8341, Note_on_c, 3, 60, 0
8, 8376, Note_on_c, 3, 60, 64
8, 8387, Note_on_c, 3, 57, 0
8, 8400, Note_on_c, 3, 57, 64
8, 8451, Note_on_c, 3, 57, 0
8, 8453, Note_on_c, 3, 65, 0
8, 8457, Note_on_c, 3, 60, 0
8, 8472, Note_on_c, 3, 57, 73
8, 8496, Note_on_c, 3, 61, 60
8, 8520, Note_on_c, 3, 64, 73
8, 8528, Note_on_c, 3, 61, 0
8, 8567, Note_on_c, 3, 57, 0
8, 8568, Note_on_c, 3, 61, 64
8, 8592, Note_on_c, 3, 57, 73
8, 8649, Note_on_c, 3, 57, 0
8, 8659, Note_on_c, 3, 64, 0
8, 8662, Note_on_c, 3, 61, 0
8, 8664, Note_on_c, 3, 57, 64
8, 8688, Note_on_c, 3, 62, 73
8, 8712, Note_on_c, 3, 65, 73
8, 8717, Note_on_c, 3, 62, 0
8, 8760, Note_on_c, 3, 62, 60
8, 8763, Note_on_c, 3, 57, 0
8, 8784, Note_on_c, 3, 57, 73
8, 8840, Note_on_c, 3, 57, 0
8, 8853, Note_on_c, 3, 62, 0
8, 8855, Note_on_c, 3, 65, 0
8, 8856, Note_on_c, 3, 56, 60
8, 8880, Note_on_c, 3, 62, 52
8, 8904, Note_on_c, 3, 65, 73
8, 8912, Note_on_c, 3, 62, 0
8, 8952, Note_on_c, 3, 62, 56
8, 8955, Note_on_c, 3, 56, 0
8, 8976, Note_on_c, 3, 56, 64
8, 9033, Note_on_c, 3, 56, 0
8, 9048, Note_on_c, 3, 55, 56
8, 9050, Note_on_c, 3, 62, 0
8, 9050, Note_on_c, 3, 65, 0
8, 9072, Note_on_c, 3, 60, 64
8, 9096, Note_on_c, 3, 64, 64
8, 9133, Note_on_c, 3, 60, 0
8, 9144, Note_on_c, 3, 60, 52
8, 9155, Note_on_c, 3, 55, 0
8, 9168, Note_on_c, 3, 55, 60
8, 9221, Note_on_c, 3, 55, 0
8, 9240, Note_on_c, 3, 55, 60
8, 9242, Note_on_c, 3, 60, 0
8, 9261, Note_on_c, 3, 64, 0
8, 9264, Note_on_c, 3, 60, 60
8, 9288, Note_on_c, 3, 64, 73
8, 9304, Note_on_c, 3, 60, 0
8, 9336, Note_on_c, 3, 60, 64
8, 9347, Note_on_c, 3, 55, 0
8, 9360, Note_on_c, 3, 55, 60
8, 9412, Note_on_c, 3, 55, 0
8, 9420, Note_on_c, 3, 60, 0
8, 9420, Note_on_c, 3, 64, 0
8, 9432, Note_on_c, 3, 53, 73
8, 9456, Note_on_c, 3, 59, 60
8, 9480, Note_on_c, 3, 62, 73
8, 9489, Note_on_c, 3, 59, 0
8, 9523, Note_on_c, 3, 53, 0
8, 9528, Note_on_c, 3, 59, 64
8, 9552, Note_on_c, 3, 53, 48
8, 9604, Note_on_c, 3, 62, 0
8, 9605, Note_on_c, 3, 59, 0
8, 9606, Note_on_c, 3, 53, 0
8, 9624, Note_on_c, 3, 56, 52
8, 9648, Note_on_c, 3, 62, 60
8, 9672, Note_on_c, 3, 64, 64
8, 9679, Note_on_c, 3, 62, 0
8, 9720, Note_on_c, 3, 62, 64
8, 9744, Note_on_c, 3, 59, 56
8, 9778, Note_on_c, 3, 56, 0
8, 9796, Note_on_c, 3, 59, 0
8, 9797, Note_on_c, 3, 62, 0
8, 9799, Note_on_c, 3, 64, 0
8, 9816, Note_on_c, 3, 57, 64
8, 9840, Note_on_c, 3, 60, 60
8, 9864, Note_on_c, 3, 65, 64
8, 9891, Note_on_c, 3, 60, 0
8, 9912, Note_on_c, 3, 60, 64
8, 9915, Note_on_c, 3, 57, 0
8, 9936, Note_on_c, 3, 57, 64
8, 9991, Note_on_c, 3, 60, 0
8, 9994, Note_on_c, 3, 57, 0
8, 9996, Note_on_c, 3, 65, 0
8, 10008, Note_on_c, 3, 59, 64
8, 10032, Note_on_c, 3, 62, 56
8, 10056, Note_on_c, 3, 67, 56
8, 10070, Note_on_c, 3, 62, 0
8, 10104, Note_on_c, 3, 62, 60
8, 10110, Note_on_c, 3, 59, 0
8, 10128, Note_on_c, 3, 59, 64
8, 10179, Note_on_c, 3, 59, 0
8, 10192, Note_on_c, 3, 67, 0
8, 10194, Note_on_c, 3, 62, 0
8, 10200, Note_on_c, 3, 57, 73
8, 10224, Note_on_c, 3, 60, 64
8, 10239, Note_on_c, 3, 57, 0
8, 10248, Note_on_c, 3, 64, 73
8, 10253, Note_on_c, 3, 60, 0
8, 10296, Note_on_c, 3, 60, 56
8, 10320, Note_on_c, 3, 57, 56
8, 10354, Note_on_c, 3, 57, 0
8, 10355, Note_on_c, 3, 64, 0
8, 10356, Note_on_c, 3, 60, 0
8, 10368, Note_on_c, 3, 57, 64
8, 10392, Note_on_c, 3, 60, 60
8, 10397, Note_on_c, 3, 57, 0
8, 10416, Note_on_c, 3, 57, 52
8, 10420, Note_on_c, 3, 60, 0
8, 10440, Note_on_c, 3, 60, 64
8, 10443, Note_on_c, 3, 57, 0
8, 10480, Note_on_c, 3, 60, 0
8, 10488, Note_on_c, 3, 59, 64
8, 10511, Note_on_c, 3, 59, 0
8, 10512, Note_on_c, 3, 55, 56
8, 10535, Note_on_c, 3, 55, 0
8, 10536, Note_on_c, 3, 59, 73
8, 10576, Note_on_c, 3, 59, 0
8, 10584, Note_on_c, 3, 57, 60
8, 10608, Note_on_c, 3, 60, 52
8, 10632, Note_on_c, 3, 65, 64
8, 10641, Note_on_c, 3, 60, 0
8, 10680, Note_on_c, 3, 60, 60
8, 10686, Note_on_c, 3, 57, 0
8, 10704, Note_on_c, 3, 57, 56
8, 10757, Note_on_c, 3, 60, 0
8, 10760, Note_on_c, 3, 57, 0
8, 10764, Note_on_c, 3, 65, 0
8, 10776, Note_on_c, 3, 59, 52
8, 10800, Note_on_c, 3, 62, 60
8, 10824, Note_on_c, 3, 67, 60
8, 10849, Note_on_c, 3, 62, 0
8, 10872, Note_on_c, 3, 62, 64
8, 10883, Note_on_c, 3, 59, 0
8, 10896, Note_on_c, 3, 59, 73
8, 10947, Note_on_c, 3, 59, 0
8, 10951, Note_on_c, 3, 62, 0
8, 10952, Note_on_c, 3, 67, 0
8, 10968, Note_on_c, 3, 57, 73
8, 10992, Note_on_c, 3, 60, 64
8, 11016, Note_on_c, 3, 64, 64
8, 11028, Note_on_c, 3, 60, 0
8, 11057, Note_on_c, 3, 57, 0
8, 11064, Note_on_c, 3, 60, 73
8, 11088, Note_on_c, 3, 57, 73
8, 11130, Note_on_c, 3, 57, 0
8, 11156, Note_on_c, 3, 60, 0
8, 11160, Note_on_c, 3, 57, 64
8, 11174, Note_on_c, 3, 64, 0
8, 11184, Note_on_c, 3, 60, 64
8, 11208, Note_on_c, 3, 64, 73
8, 11215, Note_on_c, 3, 60, 0
8, 11226, Note_on_c, 3, 57, 0
8, 11244, Note_on_c, 3, 64, 0
8, 11256, Note_on_c, 3, 62, 64
8, 11256, Note_on_c, 3, 59, 64
8, 11256, Note_on_c, 3, 55, 64
8, 11324, Note_on_c, 3, 59, 0
8, 11326, Note_on_c, 3, 55, 0
8, 11328, Note_on_c, 3, 62, 0
8, 16536, Note_on_c, 3, 57, 60
8, 16560, Note_on_c, 3, 61, 64
8, 16584, Note_on_c, 3, 64, 73
8, 16615, Note_on_c, 3, 61, 0
8, 16632, Note_on_c, 3, 61, 52
8, 16635, Note_on_c, 3, 57, 0
8, 16656, Note_on_c, 3, 57, 64
8, 16711, Note_on_c, 3, 57, 0
8, 16722, Note_on_c, 3, 64, 0
8, 16723, Note_on_c, 3, 61, 0
8, 16728, Note_on_c, 3, 57, 64
8, 16752, Note_on_c, 3, 62, 64
8, 16776, Note_on_c, 3, 65, 73
8, 16809, Note_on_c, 3, 62, 0
8, 16824, Note_on_c, 3, 62, 60
8, 16827, Note_on_c, 3, 57, 0
8, 16848, Note_on_c, 3, 57, 64
8, 16908, Note_on_c, 3, 62, 0
8, 16909, Note_on_c, 3, 57, 0
8, 16909, Note_on_c, 3, 65, 0
8, 16920, Note_on_c, 3, 56, 64
8, 16944, Note_on_c, 3, 62, 73
8, 16968, Note_on_c, 3, 65, 73
8, 17001, Note_on_c, 3, 62, 0
8, 17016, Note_on_c, 3, 62, 60
8, 17028, Note_on_c, 3, 56, 0
8, 17040, Note_on_c, 3, 56, 64
8, 17090, Note_on_c, 3, 56, 0
8, 17101, Note_on_c, 3, 65, 0
8, 17104, Note_on_c, 3, 62, 0
8, 17112, Note_on_c, 3, 55, 64
8, 17136, Note_on_c, 3, 60, 64
8, 17160, Note_on_c, 3, 64, 64
8, 17192, Note_on_c, 3, 60, 0
8, 17208, Note_on_c, 3, 60, 64
8, 17227, Note_on_c, 3, 55, 0
8, 17232, Note_on_c, 3, 55, 64
8, 17282, Note_on_c, 3, 55, 0
8, 17296, Note_on_c, 3, 60, 0
8, 17301, Note_on_c, 3, 64, 0
8, 17304, Note_on_c, 3, 55, 64
8, 17328, Note_on_c, 3, 60, 60
8, 17352, Note_on_c, 3, 64, 73
8, 17367, Note_on_c, 3, 60, 0
8, 17400, Note_on_c, 3, 60, 56
8, 17403, Note_on_c, 3, 55, 0
8, 17424, Note_on_c, 3, 55, 64
8, 17473, Note_on_c, 3, 55, 0
8, 17478, Note_on_c, 3, 64, 0
8, 17484, Note_on_c, 3, 60, 0
8, 17496, Note_on_c, 3, 53, 64
8, 17520, Note_on_c, 3, 59, 56
8, 17544, Note_on_c, 3, 62, 64
8, 17577, Note_on_c, 3, 59, 0
8, 17592, Note_on_c, 3, 59, 73
8, 17601, Note_on_c, 3, 53, 0
8, 17616, Note_on_c, 3, 53, 64
8, 17669, Note_on_c, 3, 53, 0
8, 17682, Note_on_c, 3, 59, 0
8, 17683, Note_on_c, 3, 62, 0
8, 17688, Note_on_c, 3, 56, 64
8, 17712, Note_on_c, 3, 62, 73
8, 17736, Note_on_c, 3, 64, 64
8, 17738, Note_on_c, 3, 62, 0
8, 17784, Note_on_c, 3, 62, 64
8, 17808, Note_on_c, 3, 59, 64
8, 17843, Note_on_c, 3, 56, 0
8, 17861, Note_on_c, 3, 59, 0
8, 17863, Note_on_c, 3, 64, 0
8, 17864, Note_on_c, 3, 62, 0
8, 17880, Note_on_c, 3, 57, 73
8, 17904, Note_on_c, 3, 60, 60
8, 17928, Note_on_c, 3, 65, 64
8, 17953, Note_on_c, 3, 60, 0
8, 17976, Note_on_c, 3, 60, 60
8, 17989, Note_on_c, 3, 57, 0
8, 18000, Note_on_c, 3, 57, 56
8, 18046, Note_on_c, 3, 57, 0
8, 18072, Note_on_c, 3, 57, 64
8, 18078, Note_on_c, 3, 60, 0
8, 18093, Note_on_c, 3, 65, 0
8, 18096, Note_on_c, 3, 60, 64
8, 18120, Note_on_c, 3, 65, 64
8, 18133, Note_on_c, 3, 60, 0
8, 18168, Note_on_c, 3, 60, 64
8, 18179, Note_on_c, 3, 57, 0
8, 18192, Note_on_c, 3, 57, 64
8, 18243, Note_on_c, 3, 57, 0
8, 18245, Note_on_c, 3, 65, 0
8, 18249, Note_on_c, 3, 60, 0
8, 18264, Note_on_c, 3, 57, 73
8, 18288, Note_on_c, 3, 61, 60
8, 18312, Note_on_c, 3, 64, 73
8, 18320, Note_on_c, 3, 61, 0
8, 18359, Note_on_c, 3, 57, 0
8, 18360, Note_on_c, 3, 61, 64
8, 18384, Note_on_c, 3, 57, 73
8, 18441, Note_on_c, 3, 57, 0
8, 18451, Note_on_c, 3, 64, 0
8, 18454, Note_on_c, 3, 61, 0
8, 18456, Note_on_c, 3, 57, 64
8, 18480, Note_on_c, 3, 62, 73
8, 18504, Note_on_c, 3, 65, 73
8, 18509, Note_on_c, 3, 62, 0
8, 18552, Note_on_c, 3, 62, 60
8, 18555, Note_on_c, 3, 57, 0
8, 18576, Note_on_c, 3, 57, 73
8, 18632, Note_on_c, 3, 57, 0
8, 18645, Note_on_c, 3, 62, 0
8, 18647, Note_on_c, 3, 65, 0
8, 18648, Note_on_c, 3, 56, 60
8, 18672, Note_on_c, 3, 62, 52
8, 18696, Note_on_c, 3, 65, 73
8, 18704, Note_on_c, 3, 62, 0
8, 18744, Note_on_c, 3, 62, 56
8, 18747, Note_on_c, 3, 56, 0
8, 18768, Note_on_c, 3, 56, 64
8, 18825, Note_on_c, 3, 56, 0
8, 18840, Note_on_c, 3, 55, 56
8, 18842, Note_on_c, 3, 62, 0
8, 18842, Note_on_c, 3, 65, 0
8, 18864, Note_on_c, 3, 60, 64
8, 18888, Note_on_c, 3, 64, 64
8, 18925, Note_on_c, 3, 60, 0
8, 18936, Note_on_c, 3, 60, 52
8, 18947, Note_on_c, 3, 55, 0
8, 18960, Note_on_c, 3, 55, 60
8, 19013, Note_on_c, 3, 55, 0
8, 19032, Note_on_c, 3, 55, 60
8, 19034, Note_on_c, 3, 60, 0
8, 19053, Note_on_c, 3, 64, 0
8, 19056, Note_on_c, 3, 60, 60
8, 19080, Note_on_c, 3, 64, 73
8, 19096, Note_on_c, 3, 60, 0
8, 19128, Note_on_c, 3, 60, 64
8, 19139, Note_on_c, 3, 55, 0
8, 19152, Note_on_c, 3, 55, 60
8, 19204, Note_on_c, 3, 55, 0
8, 19212, Note_on_c, 3, 60, 0
8, 19212, Note_on_c, 3, 64, 0
8, 19224, Note_on_c, 3, 53, 73
8, 19248, Note_on_c, 3, 59, 60
8, 19272, Note_on_c, 3, 62, 73
8, 19281, Note_on_c, 3, 59, 0
8, 19315, Note_on_c, 3, 53, 0
8, 19320, Note_on_c, 3, 59, 64
8, 19344, Note_on_c, 3, 53, 48
8, 19396, Note_on_c, 3, 62, 0
8, 19397, Note_on_c, 3, 59, 0
8, 19398, Note_on_c, 3, 53, 0
8, 19416, Note_on_c, 3, 56, 52
8, 19440, Note_on_c, 3, 62, 60
8, 19464, Note_on_c, 3, 64, 64
8, 19471, Note_on_c, 3, 62, 0
8, 19512, Note_on_c, 3, 62, 64
8, 19536, Note_on_c, 3, 59, 56
8, 19570, Note_on_c, 3, 56, 0
8, 19588, Note_on_c, 3, 59, 0
8, 19589, Note_on_c, 3, 62, 0
8, 19591, Note_on_c, 3, 64, 0
8, 19608, Note_on_c, 3, 57, 64
8, 19632, Note_on_c, 3, 60, 60
8, 19656, Note_on_c, 3, 65, 64
8, 19683, Note_on_c, 3, 60, 0
8, 19704, Note_on_c, 3, 60, 64
8, 19707, Note_on_c, 3, 57, 0
8, 19728, Note_on_c, 3, 57, 64
8, 19783, Note_on_c, 3, 60, 0
8, 19786, Note_on_c, 3, 57, 0
8, 19788, Note_on_c, 3, 65, 0
8, 19800, Note_on_c, 3, 59, 64
8, 19824, Note_on_c, 3, 62, 56
8, 19848, Note_on_c, 3, 67, 56
8, 19862, Note_on_c, 3, 62, 0
8, 19896, Note_on_c, 3, 62, 60
8, 19902, Note_on_c, 3, 59, 0
8, 19920, Note_on_c, 3, 59, 64
8, 19971, Note_on_c, 3, 59, 0
8, 19984, Note_on_c, 3, 67, 0
8, 19986, Note_on_c, 3, 62, 0
8, 19992, Note_on_c, 3, 57, 73
8, 20016, Note_on_c, 3, 60, 64
8, 20031, Note_on_c, 3, 57, 0
8, 20040, Note_on_c, 3, 64, 73
8, 20045, Note_on_c, 3, 60, 0
8, 20088, Note_on_c, 3, 60, 56
8, 20112, Note_on_c, 3, 57, 56
8, 20146, Note_on_c, 3, 57, 0
8, 20147, Note_on_c, 3, 64, 0
8, 20148, Note_on_c, 3, 60, 0
8, 20160, Note_on_c, 3, 57, 64
8, 20184, Note_on_c, 3, 60, 60
8, 20189, Note_on_c, 3, 57, 0
8, 20208, Note_on_c, 3, 57, 52
8, 20212, Note_on_c, 3, 60, 0
8, 20232, Note_on_c, 3, 60, 64
8, 20235, Note_on_c, 3, 57, 0
8, 20272, Note_on_c, 3, 60, 0
8, 20280, Note_on_c, 3, 59, 64
8, 20303, Note_on_c, 3, 59, 0
8, 20304, Note_on_c, 3, 55, 56
8, 20327, Note_on_c, 3, 55, 0
8, 20328, Note_on_c, 3, 59, 73
8, 20368, Note_on_c, 3, 59, 0
8, 20376, Note_on_c, 3, 57, 60
8, 20400, Note_on_c, 3, 60, 52
8, 20424, Note_on_c, 3, 65, 64
8, 20433, Note_on_c, 3, 60, 0
8, 20472, Note_on_c, 3, 60, 60
8, 20478, Note_on_c, 3, 57, 0
8, 20496, Note_on_c, 3, 57, 56
8, 20549, Note_on_c, 3, 60, 0
8, 20552, Note_on_c, 3, 57, 0
8, 20556, Note_on_c, 3, 65, 0
8, 20568, Note_on_c, 3, 59, 52
8, 20592, Note_on_c, 3, 62, 60
8, 20616, Note_on_c, 3, 67, 60
8, 20641, Note_on_c, 3, 62, 0
8, 20664, Note_on_c, 3, 62, 64
8, 20675, Note_on_c, 3, 59, 0
8, 20688, Note_on_c, 3, 59, 73
8, 20739, Note_on_c, 3, 59, 0
8, 20743, Note_on_c, 3, 62, 0
8, 20744, Note_on_c, 3, 67, 0
8, 20760, Note_on_c, 3, 57, 56
8, 20784, Note_on_c, 3, 60, 60
8, 20808, Note_on_c, 3, 64, 60
8, 20839, Note_on_c, 3, 60, 0
8, 20856, Note_on_c, 3, 60, 60
8, 20865, Note_on_c, 3, 57, 0
8, 20880, Note_on_c, 3, 57, 56
8, 20932, Note_on_c, 3, 57, 0
8, 20952, Note_on_c, 3, 57, 60
8, 20958, Note_on_c, 3, 60, 0
8, 20961, Note_on_c, 3, 64, 0
8, 20976, Note_on_c, 3, 60, 64
8, 21000, Note_on_c, 3, 64, 64
8, 21031, Note_on_c, 3, 60, 0
8, 21048, Note_on_c, 3, 60, 60
8, 21053, Note_on_c, 3, 57, 0
8, 21072, Note_on_c, 3, 57, 56
8, 21119, Note_on_c, 3, 57, 0
8, 21119, Note_on_c, 3, 60, 0
8, 21121, Note_on_c, 3, 64, 0
8, 22590, Control_c, 3, 11, 127
8, 22590, Note_on_c, 3, 64, 56
8, 22612, Note_on_c, 3, 64, 0
8, 22623, Note_on_c, 3, 64, 73
8, 22645, Note_on_c, 3, 64, 0
8, 22654, Note_on_c, 3, 64, 73
8, 22681, Note_on_c, 3, 64, 0
8, 22690, Note_on_c, 3, 64, 73
8, 22710, Note_on_c, 3, 64, 0
8, 22720, Note_on_c, 3, 64, 73
8, 22740, Note_on_c, 3, 64, 0
8, 22750, Note_on_c, 3, 64, 73
8, 22773, Note_on_c, 3, 64, 0
8, 22779, Note_on_c, 3, 62, 73
8, 22807, Note_on_c, 3, 62, 0
8, 22823, Note_on_c, 3, 62, 73
8, 22844, Note_on_c, 3, 62, 0
8, 22848, Note_on_c, 3, 61, 91
8, 22869, Note_on_c, 3, 61, 0
8, 22872, Note_on_c, 3, 57, 64
8, 22896, Note_on_c, 3, 57, 0
8, 22896, Note_on_c, 3, 61, 73
8, 22919, Note_on_c, 3, 64, 64
8, 22920, Note_on_c, 3, 61, 0
8, 22937, Note_on_c, 3, 64, 0
8, 22942, Note_on_c, 3, 69, 73
8, 22965, Note_on_c, 3, 64, 64
8, 22970, Note_on_c, 3, 69, 0
8, 22988, Note_on_c, 3, 64, 0
8, 22989, Note_on_c, 3, 61, 73
8, 23011, Note_on_c, 3, 61, 0
8, 23012, Note_on_c, 3, 57, 64
8, 23034, Note_on_c, 3, 57, 0
8, 23036, Note_on_c, 3, 62, 82
8, 23062, Note_on_c, 3, 64, 73
8, 23064, Note_on_c, 3, 62, 0
8, 23086, Note_on_c, 3, 65, 56
8, 23088, Note_on_c, 3, 64, 0
8, 23105, Note_on_c, 3, 65, 0
8, 23111, Note_on_c, 3, 67, 73
8, 23124, Note_on_c, 3, 67, 0
8, 23133, Note_on_c, 3, 67, 60
8, 23137, Note_on_c, 3, 65, 73
8, 23139, Note_on_c, 3, 67, 0
8, 23159, Note_on_c, 3, 65, 0
8, 23159, Note_on_c, 3, 64, 60
8, 23181, Note_on_c, 3, 64, 0
8, 23184, Note_on_c, 3, 65, 82
8, 23206, Note_on_c, 3, 65, 0
8, 23206, Note_on_c, 3, 64, 73
8, 23218, Note_on_c, 3, 64, 0
8, 23231, Note_on_c, 3, 62, 91
8, 23232, Note_on_c, 3, 62, 73
8, 23254, Note_on_c, 3, 62, 0
8, 23255, Note_on_c, 3, 62, 0
8, 23256, Note_on_c, 3, 60, 64
8, 23275, Note_on_c, 3, 60, 0
8, 23279, Note_on_c, 3, 58, 64
8, 23303, Note_on_c, 3, 58, 0
8, 23307, Note_on_c, 3, 60, 73
8, 23327, Note_on_c, 3, 60, 0
8, 23329, Note_on_c, 3, 58, 82
8, 23348, Note_on_c, 3, 58, 0
8, 23351, Note_on_c, 3, 57, 73
8, 23369, Note_on_c, 3, 57, 0
8, 23375, Note_on_c, 3, 53, 73
8, 23387, Note_on_c, 3, 53, 0
8, 23398, Note_on_c, 3, 53, 64
8, 23412, Note_on_c, 3, 53, 0
8, 23421, Note_on_c, 3, 55, 82
8, 23475, Note_on_c, 3, 55, 0
8, 23487, Note_on_c, 3, 55, 64
8, 23505, Note_on_c, 3, 54, 64
8, 23506, Note_on_c, 3, 55, 0
8, 23511, Note_on_c, 3, 54, 0
8, 23511, Note_on_c, 3, 53, 73
8, 23518, Note_on_c, 3, 52, 64
8, 23520, Note_on_c, 3, 53, 0
8, 23602, Note_on_c, 3, 52, 0
8, 23616, Note_on_c, 3, 55, 82
8, 23636, Note_on_c, 3, 55, 0
8, 23640, Note_on_c, 3, 60, 73
8, 23654, Note_on_c, 3, 60, 0
8, 23664, Note_on_c, 3, 67, 73
8, 23685, Note_on_c, 3, 67, 0
8, 23688, Note_on_c, 3, 64, 73
8, 23702, Note_on_c, 3, 64, 0
8, 23712, Note_on_c, 3, 67, 82
8, 23754, Note_on_c, 3, 67, 0
8, 23760, Note_on_c, 3, 72, 82
8, 23799, Note_on_c, 3, 72, 0
8, 23807, Note_on_c, 3, 71, 36
8, 23823, Note_on_c, 3, 71, 0
8, 23823, Note_on_c, 3, 72, 73
8, 23832, Note_on_c, 3, 72, 0
8, 23833, Note_on_c, 3, 71, 56
8, 23838, Note_on_c, 3, 69, 73
8, 23839, Note_on_c, 3, 71, 0
8, 23848, Note_on_c, 3, 69, 0
8, 23856, Note_on_c, 3, 71, 82
8, 23920, Note_on_c, 3, 71, 0
8, 23925, Note_on_c, 3, 69, 91
8, 23946, Note_on_c, 3, 69, 0
8, 23949, Note_on_c, 3, 68, 91
8, 23970, Note_on_c, 3, 68, 0
8, 23972, Note_on_c, 3, 64, 64
8, 23993, Note_on_c, 3, 64, 0
8, 23997, Note_on_c, 3, 68, 82
8, 24019, Note_on_c, 3, 68, 0
8, 24023, Note_on_c, 3, 71, 73
8, 24053, Note_on_c, 3, 71, 0
8, 24065, Note_on_c, 3, 76, 73
8, 24085, Note_on_c, 3, 76, 0
8, 24094, Note_on_c, 3, 76, 91
8, 24120, Note_on_c, 3, 76, 0
8, 24126, Note_on_c, 3, 74, 91
8, 24145, Note_on_c, 3, 74, 0
8, 24158, Note_on_c, 3, 74, 82
8, 24178, Note_on_c, 3, 74, 0
8, 24187, Note_on_c, 3, 72, 64
8, 24215, Note_on_c, 3, 72, 0
8, 24218, Note_on_c, 3, 74, 52
8, 24222, Note_on_c, 3, 74, 0
8, 24223, Note_on_c, 3, 72, 44
8, 24227, Note_on_c, 3, 71, 64
8, 24228, Note_on_c, 3, 72, 0
8, 24251, Note_on_c, 3, 71, 0
8, 24253, Note_on_c, 3, 72, 82
8, 24282, Note_on_c, 3, 72, 0
8, 24284, Note_on_c, 3, 69, 82
8, 24311, Note_on_c, 3, 69, 0
8, 24318, Note_on_c, 3, 69, 82
8, 24344, Note_on_c, 3, 69, 0
8, 24351, Note_on_c, 3, 69, 73
8, 24371, Note_on_c, 3, 69, 0
8, 24381, Note_on_c, 3, 69, 82
8, 24486, Note_on_c, 3, 69, 0
8, 24503, Note_on_c, 3, 69, 48
8, 24504, Note_on_c, 3, 73, 52
8, 24515, Note_on_c, 3, 73, 0
8, 24515, Note_on_c, 3, 69, 0
8, 24529, Note_on_c, 3, 73, 64
8, 24529, Note_on_c, 3, 69, 60
8, 24543, Note_on_c, 3, 73, 0
8, 24544, Note_on_c, 3, 69, 0
8, 24553, Note_on_c, 3, 73, 73
8, 24554, Note_on_c, 3, 69, 64
8, 24564, Note_on_c, 3, 73, 0
8, 24565, Note_on_c, 3, 69, 0
8, 24576, Note_on_c, 3, 73, 82
8, 24576, Note_on_c, 3, 69, 64
8, 24605, Note_on_c, 3, 69, 0
8, 24607, Note_on_c, 3, 73, 0
8, 24625, Note_on_c, 3, 74, 56
8, 24626, Note_on_c, 3, 71, 40
8, 24637, Note_on_c, 3, 71, 0
8, 24637, Note_on_c, 3, 74, 0
8, 24649, Note_on_c, 3, 71, 60
8, 24650, Note_on_c, 3, 74, 73
8, 24662, Note_on_c, 3, 74, 0
8, 24662, Note_on_c, 3, 71, 0
8, 24671, Note_on_c, 3, 71, 73
8, 24672, Note_on_c, 3, 74, 82
8, 24702, Note_on_c, 3, 71, 0
8, 24703, Note_on_c, 3, 74, 0
8, 24719, Note_on_c, 3, 76, 60
8, 24720, Note_on_c, 3, 73, 56
8, 24731, Note_on_c, 3, 73, 0
8, 24732, Note_on_c, 3, 76, 0
8, 24744, Note_on_c, 3, 73, 64
8, 24744, Note_on_c, 3, 76, 73
8, 24756, Note_on_c, 3, 76, 0
8, 24756, Note_on_c, 3, 73, 0
8, 24768, Note_on_c, 3, 76, 84
8, 24768, Note_on_c, 3, 73, 85
8, 24786, Note_on_c, 3, 73, 0
8, 24788, Note_on_c, 3, 76, 0
8, 24799, Note_on_c, 3, 74, 78
8, 24799, Note_on_c, 3, 77, 69
8, 24820, Note_on_c, 3, 77, 0
8, 24820, Note_on_c, 3, 74, 0
8, 24832, Note_on_c, 3, 74, 76
8, 24832, Note_on_c, 3, 77, 79
8, 24848, Note_on_c, 3, 77, 0
8, 24848, Note_on_c, 3, 74, 0
8, 24860, Note_on_c, 3, 74, 79
8, 24860, Note_on_c, 3, 77, 79
8, 24883, Note_on_c, 3, 74, 0
8, 24884, Note_on_c, 3, 77, 0
8, 24893, Note_on_c, 3, 76, 73
8, 24893, Note_on_c, 3, 72, 73
8, 24910, Note_on_c, 3, 76, 0
8, 24914, Note_on_c, 3, 72, 0
8, 24926, Note_on_c, 3, 70, 73
8, 24926, Note_on_c, 3, 74, 73
8, 24943, Note_on_c, 3, 74, 0
8, 24944, Note_on_c, 3, 70, 0
8, 24956, Note_on_c, 3, 74, 82
8, 24957, Note_on_c, 3, 70, 73
8, 24970, Note_on_c, 3, 70, 0
8, 24970, Note_on_c, 3, 74, 0
8, 24982, Note_on_c, 3, 70, 73
8, 24982, Note_on_c, 3, 74, 73
8, 24994, Note_on_c, 3, 74, 0
8, 24994, Note_on_c, 3, 70, 0
8, 25005, Note_on_c, 3, 70, 73
8, 25006, Note_on_c, 3, 74, 73
8, 25016, Note_on_c, 3, 70, 0
8, 25017, Note_on_c, 3, 74, 0
8, 25029, Note_on_c, 3, 70, 73
8, 25029, Note_on_c, 3, 74, 73
8, 25041, Note_on_c, 3, 74, 0
8, 25041, Note_on_c, 3, 70, 0
8, 25053, Note_on_c, 3, 70, 73
8, 25054, Note_on_c, 3, 74, 73
8, 25069, Note_on_c, 3, 70, 0
8, 25070, Note_on_c, 3, 74, 0
8, 25079, Note_on_c, 3, 69, 40
8, 25079, Note_on_c, 3, 72, 82
8, 25119, Note_on_c, 3, 72, 0
8, 25119, Note_on_c, 3, 69, 0
8, 25122, Note_on_c, 3, 62, 73
8, 25123, Note_on_c, 3, 65, 73
8, 25136, Note_on_c, 3, 62, 0
8, 25139, Note_on_c, 3, 65, 0
8, 25147, Note_on_c, 3, 67, 73
8, 25148, Note_on_c, 3, 64, 73
8, 25207, Note_on_c, 3, 64, 0
8, 25209, Note_on_c, 3, 67, 0
8, 25221, Note_on_c, 3, 67, 73
8, 25221, Note_on_c, 3, 64, 64
8, 25237, Note_on_c, 3, 64, 0
8, 25237, Note_on_c, 3, 67, 0
8, 25248, Note_on_c, 3, 67, 82
8, 25248, Note_on_c, 3, 64, 73
8, 25297, Note_on_c, 3, 64, 0
8, 25298, Note_on_c, 3, 67, 0
8, 25318, Note_on_c, 3, 60, 52
8, 25332, Note_on_c, 3, 60, 0
8, 25342, Note_on_c, 3, 60, 91
8, 25344, Note_on_c, 3, 60, 73
8, 25363, Note_on_c, 3, 60, 0
8, 25368, Note_on_c, 3, 60, 0
8, 25368, Note_on_c, 3, 64, 73
8, 25383, Note_on_c, 3, 64, 0
8, 25392, Note_on_c, 3, 67, 82
8, 25415, Note_on_c, 3, 67, 0
8, 25416, Note_on_c, 3, 64, 64
8, 25426, Note_on_c, 3, 64, 0
8, 25440, Note_on_c, 3, 72, 82
8, 25496, Note_on_c, 3, 72, 0
8, 25512, Note_on_c, 3, 59, 82
8, 25547, Note_on_c, 3, 59, 0
8, 25560, Note_on_c, 3, 62, 82
8, 25581, Note_on_c, 3, 62, 0
8, 25608, Note_on_c, 3, 65, 73
8, 25626, Note_on_c, 3, 65, 0
8, 25632, Note_on_c, 3, 68, 82
8, 25650, Note_on_c, 3, 68, 0
8, 25656, Note_on_c, 3, 65, 82
8, 25674, Note_on_c, 3, 65, 0
8, 25680, Note_on_c, 3, 62, 73
8, 25697, Note_on_c, 3, 62, 0
8, 25704, Note_on_c, 3, 64, 82
8, 25761, Note_on_c, 3, 64, 0
8, 25772, Note_on_c, 3, 64, 82
8, 25784, Note_on_c, 3, 64, 0
8, 25789, Note_on_c, 3, 68, 82
8, 25798, Note_on_c, 3, 68, 0
8, 25804, Note_on_c, 3, 71, 64
8, 25816, Note_on_c, 3, 71, 0
8, 25823, Note_on_c, 3, 76, 82
8, 25847, Note_on_c, 3, 76, 0
8, 25854, Note_on_c, 3, 76, 91
8, 25876, Note_on_c, 3, 76, 0
8, 25884, Note_on_c, 3, 74, 82
8, 25905, Note_on_c, 3, 74, 0
8, 25916, Note_on_c, 3, 72, 73
8, 25939, Note_on_c, 3, 72, 0
8, 25942, Note_on_c, 3, 74, 36
8, 25950, Note_on_c, 3, 72, 73
8, 25952, Note_on_c, 3, 74, 0
8, 25959, Note_on_c, 3, 72, 0
8, 25959, Note_on_c, 3, 71, 73
8, 25978, Note_on_c, 3, 71, 0
8, 25982, Note_on_c, 3, 72, 73
8, 26077, Note_on_c, 3, 72, 0
8, 26156, Note_on_c, 3, 72, 82
8, 26200, Note_on_c, 3, 72, 0
8, 26205, Note_on_c, 3, 71, 56
8, 26242, Note_on_c, 3, 71, 0
8, 26243, Note_on_c, 3, 72, 40
8, 26251, Note_on_c, 3, 72, 0
8, 26251, Note_on_c, 3, 71, 60
8, 26257, Note_on_c, 3, 69, 64
8, 26259, Note_on_c, 3, 71, 0
8, 26279, Note_on_c, 3, 69, 0
8, 26280, Note_on_c, 3, 71, 91
8, 26303, Note_on_c, 3, 71, 0
8, 26304, Note_on_c, 3, 69, 73
8, 26337, Note_on_c, 3, 69, 0
8, 26338, Note_on_c, 3, 71, 40
8, 26345, Note_on_c, 3, 71, 0
8, 26345, Note_on_c, 3, 69, 48
8, 26349, Note_on_c, 3, 67, 64
8, 26351, Note_on_c, 3, 69, 0
8, 26370, Note_on_c, 3, 67, 0
8, 26374, Note_on_c, 3, 69, 73
8, 26482, Note_on_c, 3, 69, 0
8, 26496, Note_on_c, 3, 64, 91
8, 26505, Note_on_c, 3, 64, 0
8, 26508, Note_on_c, 3, 65, 64
8, 26520, Note_on_c, 3, 65, 0
8, 26520, Note_on_c, 3, 64, 64
8, 26531, Note_on_c, 3, 64, 0
8, 26532, Note_on_c, 3, 62, 73
8, 26542, Note_on_c, 3, 62, 0
8, 26544, Note_on_c, 3, 60, 82
8, 26556, Note_on_c, 3, 59, 73
8, 26557, Note_on_c, 3, 60, 0
8, 26565, Note_on_c, 3, 59, 0
8, 26568, Note_on_c, 3, 57, 73
8, 26578, Note_on_c, 3, 57, 0
8, 26580, Note_on_c, 3, 55, 60
8, 26589, Note_on_c, 3, 55, 0
8, 26592, Note_on_c, 3, 57, 82
8, 26604, Note_on_c, 3, 55, 73
8, 26606, Note_on_c, 3, 57, 0
8, 26615, Note_on_c, 3, 55, 0
8, 26616, Note_on_c, 3, 52, 73
8, 26626, Note_on_c, 3, 52, 0
8, 26628, Note_on_c, 3, 50, 73
8, 26639, Note_on_c, 3, 50, 0
8, 26640, Note_on_c, 3, 48, 64
8, 26652, Note_on_c, 3, 47, 82
8, 26656, Note_on_c, 3, 48, 0
8, 26663, Note_on_c, 3, 47, 0
8, 26664, Note_on_c, 3, 45, 64
8, 26671, Note_on_c, 3, 45, 0
8, 26676, Note_on_c, 3, 43, 82
8, 26686, Note_on_c, 3, 43, 0
8, 26691, Note_on_c, 3, 41, 82
8, 26754, Note_on_c, 3, 41, 0
8, 26756, Note_on_c, 3, 45, 73
8, 26775, Note_on_c, 3, 45, 0
8, 26780, Note_on_c, 3, 48, 82
8, 26802, Note_on_c, 3, 48, 0
8, 26804, Note_on_c, 3, 50, 64
8, 26819, Note_on_c, 3, 50, 0
8, 26828, Note_on_c, 3, 53, 82
8, 26848, Note_on_c, 3, 53, 0
8, 26853, Note_on_c, 3, 57, 64
8, 26867, Note_on_c, 3, 57, 0
8, 26878, Note_on_c, 3, 60, 82
8, 26943, Note_on_c, 3, 60, 0
8, 26950, Note_on_c, 3, 62, 73
8, 27018, Note_on_c, 3, 62, 0
8, 27024, Note_on_c, 3, 62, 82
8, 27043, Note_on_c, 3, 62, 0
8, 27048, Note_on_c, 3, 64, 91
8, 27089, Note_on_c, 3, 64, 0
8, 27096, Control_c, 3, 11, 120
8, 27096, Note_on_c, 3, 57, 60
8, 27120, Note_on_c, 3, 61, 64
8, 27144, Note_on_c, 3, 64, 73
8, 27175, Note_on_c, 3, 61, 0
8, 27192, Note_on_c, 3, 61, 52
8, 27195, Note_on_c, 3, 57, 0
8, 27216, Note_on_c, 3, 57, 64
8, 27271, Note_on_c, 3, 57, 0
8, 27282, Note_on_c, 3, 64, 0
8, 27283, Note_on_c, 3, 61, 0
8, 27288, Note_on_c, 3, 57, 64
8, 27312, Note_on_c, 3, 62, 64
8, 27336, Note_on_c, 3, 65, 73
8, 27369, Note_on_c, 3, 62, 0
8, 27384, Note_on_c, 3, 62, 60
8, 27387, Note_on_c, 3, 57, 0
8, 27408, Note_on_c, 3, 57, 64
8, 27468, Note_on_c, 3, 62, 0
8, 27469, Note_on_c, 3, 57, 0
8, 27469, Note_on_c, 3, 65, 0
8, 27480, Note_on_c, 3, 56, 64
8, 27504, Note_on_c, 3, 62, 73
8, 27528, Note_on_c, 3, 65, 73
8, 27561, Note_on_c, 3, 62, 0
8, 27576, Note_on_c, 3, 62, 60
8, 27588, Note_on_c, 3, 56, 0
8, 27600, Note_on_c, 3, 56, 64
8, 27650, Note_on_c, 3, 56, 0
8, 27661, Note_on_c, 3, 65, 0
8, 27664, Note_on_c, 3, 62, 0
8, 27672, Note_on_c, 3, 55, 64
8, 27696, Note_on_c, 3, 60, 64
8, 27720, Note_on_c, 3, 64, 64
8, 27752, Note_on_c, 3, 60, 0
8, 27768, Note_on_c, 3, 60, 64
8, 27787, Note_on_c, 3, 55, 0
8, 27792, Note_on_c, 3, 55, 64
8, 27842, Note_on_c, 3, 55, 0
8, 27856, Note_on_c, 3, 60, 0
8, 27861, Note_on_c, 3, 64, 0
8, 27864, Note_on_c, 3, 55, 64
8, 27888, Note_on_c, 3, 60, 60
8, 27912, Note_on_c, 3, 64, 73
8, 27927, Note_on_c, 3, 60, 0
8, 27960, Note_on_c, 3, 60, 56
8, 27963, Note_on_c, 3, 55, 0
8, 27984, Note_on_c, 3, 55, 64
8, 28033, Note_on_c, 3, 55, 0
8, 28038, Note_on_c, 3, 64, 0
8, 28044, Note_on_c, 3, 60, 0
8, 28056, Note_on_c, 3, 53, 64
8, 28080, Note_on_c, 3, 59, 56
8, 28104, Note_on_c, 3, 62, 64
8, 28137, Note_on_c, 3, 59, 0
8, 28152, Note_on_c, 3, 59, 73
8, 28161, Note_on_c, 3, 53, 0
8, 28176, Note_on_c, 3, 53, 64
8, 28229, Note_on_c, 3, 53, 0
8, 28242, Note_on_c, 3, 59, 0
8, 28243, Note_on_c, 3, 62, 0
8, 28248, Note_on_c, 3, 56, 64
8, 28272, Note_on_c, 3, 62, 73
8, 28296, Note_on_c, 3, 64, 64
8, 28298, Note_on_c, 3, 62, 0
8, 28344, Note_on_c, 3, 62, 64
8, 28368, Note_on_c, 3, 59, 64
8, 28403, Note_on_c, 3, 56, 0
8, 28421, Note_on_c, 3, 59, 0
8, 28423, Note_on_c, 3, 64, 0
8, 28424, Note_on_c, 3, 62, 0
8, 28440, Note_on_c, 3, 57, 73
8, 28464, Note_on_c, 3, 60, 60
8, 28488, Note_on_c, 3, 65, 64
8, 28513, Note_on_c, 3, 60, 0
8, 28536, Note_on_c, 3, 60, 60
8, 28549, Note_on_c, 3, 57, 0
8, 28560, Note_on_c, 3, 57, 56
8, 28606, Note_on_c, 3, 57, 0
8, 28632, Note_on_c, 3, 57, 64
8, 28638, Note_on_c, 3, 60, 0
8, 28653, Note_on_c, 3, 65, 0
8, 28656, Note_on_c, 3, 60, 64
8, 28680, Note_on_c, 3, 65, 64
8, 28693, Note_on_c, 3, 60, 0
8, 28728, Note_on_c, 3, 60, 64
8, 28739, Note_on_c, 3, 57, 0
8, 28752, Note_on_c, 3, 57, 64
8, 28803, Note_on_c, 3, 57, 0
8, 28805, Note_on_c, 3, 65, 0
8, 28809, Note_on_c, 3, 60, 0
8, 28824, Note_on_c, 3, 57, 73
8, 28848, Note_on_c, 3, 61, 60
8, 28872, Note_on_c, 3, 64, 73
8, 28880, Note_on_c, 3, 61, 0
8, 28919, Note_on_c, 3, 57, 0
8, 28920, Note_on_c, 3, 61, 64
8, 28944, Note_on_c, 3, 57, 73
8, 29001, Note_on_c, 3, 57, 0
8, 29011, Note_on_c, 3, 64, 0
8, 29014, Note_on_c, 3, 61, 0
8, 29016, Note_on_c, 3, 57, 64
8, 29040, Note_on_c, 3, 62, 73
8, 29064, Note_on_c, 3, 65, 73
8, 29069, Note_on_c, 3, 62, 0
8, 29112, Note_on_c, 3, 62, 60
8, 29115, Note_on_c, 3, 57, 0
8, 29136, Note_on_c, 3, 57, 73
8, 29192, Note_on_c, 3, 57, 0
8, 29205, Note_on_c, 3, 62, 0
8, 29207, Note_on_c, 3, 65, 0
8, 29208, Note_on_c, 3, 56, 60
8, 29232, Note_on_c, 3, 62, 52
8, 29256, Note_on_c, 3, 65, 73
8, 29264, Note_on_c, 3, 62, 0
8, 29304, Note_on_c, 3, 62, 56
8, 29307, Note_on_c, 3, 56, 0
8, 29328, Note_on_c, 3, 56, 64
8, 29385, Note_on_c, 3, 56, 0
8, 29400, Note_on_c, 3, 55, 56
8, 29402, Note_on_c, 3, 62, 0
8, 29402, Note_on_c, 3, 65, 0
8, 29424, Note_on_c, 3, 60, 64
8, 29448, Note_on_c, 3, 64, 64
8, 29485, Note_on_c, 3, 60, 0
8, 29496, Note_on_c, 3, 60, 52
8, 29507, Note_on_c, 3, 55, 0
8, 29520, Note_on_c, 3, 55, 60
8, 29573, Note_on_c, 3, 55, 0
8, 29592, Note_on_c, 3, 55, 60
8, 29594, Note_on_c, 3, 60, 0
8, 29613, Note_on_c, 3, 64, 0
8, 29616, Note_on_c, 3, 60, 60
8, 29640, Note_on_c, 3, 64, 73
8, 29656, Note_on_c, 3, 60, 0
8, 29688, Note_on_c, 3, 60, 64
8, 29699, Note_on_c, 3, 55, 0
8, 29712, Note_on_c, 3, 55, 60
8, 29764, Note_on_c, 3, 55, 0
8, 29772, Note_on_c, 3, 60, 0
8, 29772, Note_on_c, 3, 64, 0
8, 29784, Note_on_c, 3, 53, 73
8, 29808, Note_on_c, 3, 59, 60
8, 29832, Note_on_c, 3, 62, 73
8, 29841, Note_on_c, 3, 59, 0
8, 29875, Note_on_c, 3, 53, 0
8, 29880, Note_on_c, 3, 59, 64
8, 29904, Note_on_c, 3, 53, 48
8, 29956, Note_on_c, 3, 62, 0
8, 29957, Note_on_c, 3, 59, 0
8, 29958, Note_on_c, 3, 53, 0
8, 29976, Note_on_c, 3, 56, 52
8, 30000, Note_on_c, 3, 62, 60
8, 30024, Note_on_c, 3, 64, 64
8, 30031, Note_on_c, 3, 62, 0
8, 30072, Note_on_c, 3, 62, 64
8, 30096, Note_on_c, 3, 59, 56
8, 30130, Note_on_c, 3, 56, 0
8, 30148, Note_on_c, 3, 59, 0
8, 30149, Note_on_c, 3, 62, 0
8, 30151, Note_on_c, 3, 64, 0
8, 30168, Note_on_c, 3, 57, 64
8, 30192, Note_on_c, 3, 60, 60
8, 30216, Note_on_c, 3, 65, 64
8, 30243, Note_on_c, 3, 60, 0
8, 30264, Note_on_c, 3, 60, 64
8, 30267, Note_on_c, 3, 57, 0
8, 30288, Note_on_c, 3, 57, 64
8, 30343, Note_on_c, 3, 60, 0
8, 30346, Note_on_c, 3, 57, 0
8, 30348, Note_on_c, 3, 65, 0
8, 30360, Note_on_c, 3, 59, 64
8, 30384, Note_on_c, 3, 62, 56
8, 30408, Note_on_c, 3, 67, 56
8, 30422, Note_on_c, 3, 62, 0
8, 30456, Note_on_c, 3, 62, 60
8, 30462, Note_on_c, 3, 59, 0
8, 30480, Note_on_c, 3, 59, 64
8, 30531, Note_on_c, 3, 59, 0
8, 30544, Note_on_c, 3, 67, 0
8, 30546, Note_on_c, 3, 62, 0
8, 30552, Note_on_c, 3, 57, 60
8, 30576, Note_on_c, 3, 60, 56
8, 30600, Note_on_c, 3, 64, 64
8, 30633, Note_on_c, 3, 60, 0
8, 30647, Note_on_c, 3, 57, 0
8, 30648, Note_on_c, 3, 60, 52
8, 30672, Note_on_c, 3, 57, 64
8, 30724, Note_on_c, 3, 57, 0
8, 30732, Note_on_c, 3, 60, 0
8, 30741, Note_on_c, 3, 64, 0
8, 30744, Note_on_c, 3, 57, 60
8, 30768, Note_on_c, 3, 60, 56
8, 30792, Note_on_c, 3, 64, 64
8, 30821, Note_on_c, 3, 57, 0
8, 30832, Note_on_c, 3, 64, 0
8, 30832, Note_on_c, 3, 60, 0
8, 30840, Note_on_c, 3, 55, 60
8, 30864, Note_on_c, 3, 59, 60
8, 30888, Note_on_c, 3, 62, 64
8, 30915, Note_on_c, 3, 55, 0
8, 30918, Note_on_c, 3, 59, 0
8, 30926, Note_on_c, 3, 62, 0
8, 30936, Note_on_c, 3, 57, 56
8, 30960, Note_on_c, 3, 60, 60
8, 30984, Note_on_c, 3, 65, 64
8, 31011, Note_on_c, 3, 60, 0
8, 31032, Note_on_c, 3, 57, 0
8, 31032, Note_on_c, 3, 60, 52
8, 31056, Note_on_c, 3, 57, 56
8, 31100, Note_on_c, 3, 57, 0
8, 31104, Note_on_c, 3, 60, 0
8, 31107, Note_on_c, 3, 65, 0
8, 31128, Note_on_c, 3, 59, 56
8, 31152, Note_on_c, 3, 62, 60
8, 31176, Note_on_c, 3, 67, 64
8, 31206, Note_on_c, 3, 62, 0
8, 31224, Note_on_c, 3, 62, 56
8, 31227, Note_on_c, 3, 59, 0
8, 31248, Note_on_c, 3, 59, 60
8, 31298, Note_on_c, 3, 62, 0
8, 31301, Note_on_c, 3, 59, 0
8, 31305, Note_on_c, 3, 67, 0
8, 31320, Note_on_c, 3, 57, 60
8, 31344, Note_on_c, 3, 60, 56
8, 31368, Note_on_c, 3, 64, 64
8, 31401, Note_on_c, 3, 60, 0
8, 31415, Note_on_c, 3, 57, 0
8, 31416, Note_on_c, 3, 60, 52
8, 31440, Note_on_c, 3, 57, 64
8, 31492, Note_on_c, 3, 57, 0
8, 31500, Note_on_c, 3, 60, 0
8, 31509, Note_on_c, 3, 64, 0
8, 31512, Note_on_c, 3, 57, 60
8, 31536, Note_on_c, 3, 60, 56
8, 31560, Note_on_c, 3, 64, 64
8, 31589, Note_on_c, 3, 57, 0
8, 31600, Note_on_c, 3, 64, 0
8, 31600, Note_on_c, 3, 60, 0
8, 31608, Note_on_c, 3, 55, 60
8, 31632, Note_on_c, 3, 59, 60
8, 31656, Note_on_c, 3, 62, 64
8, 31683, Note_on_c, 3, 55, 0
8, 31686, Note_on_c, 3, 59, 0
8, 31694, Note_on_c, 3, 62, 0
8, 31704, Note_on_c, 3, 57, 56
8, 31728, Note_on_c, 3, 60, 60
8, 31752, Note_on_c, 3, 65, 64
8, 31779, Note_on_c, 3, 60, 0
8, 31800, Note_on_c, 3, 57, 0
8, 31800, Note_on_c, 3, 60, 52
8, 31824, Note_on_c, 3, 57, 56
8, 31868, Note_on_c, 3, 57, 0
8, 31872, Note_on_c, 3, 60, 0
8, 31875, Note_on_c, 3, 65, 0
8, 31896, Note_on_c, 3, 59, 56
8, 31920, Note_on_c, 3, 62, 60
8, 31944, Note_on_c, 3, 67, 64
8, 31974, Note_on_c, 3, 62, 0
8, 31992, Note_on_c, 3, 62, 56
8, 31995, Note_on_c, 3, 59, 0
8, 32016, Note_on_c, 3, 59, 60
8, 32066, Note_on_c, 3, 62, 0
8, 32069, Note_on_c, 3, 59, 0
8, 32073, Note_on_c, 3, 67, 0
8, 32088, Note_on_c, 3, 57, 56
8, 32112, Note_on_c, 3, 60, 64
8, 32136, Note_on_c, 3, 64, 73
8, 32144, Note_on_c, 3, 60, 0
8, 32172, Note_on_c, 3, 57, 0
8, 32184, Note_on_c, 3, 60, 48
8, 32208, Note_on_c, 3, 57, 52
8, 32262, Note_on_c, 3, 57, 0
8, 32271, Note_on_c, 3, 60, 0
8, 32280, Note_on_c, 3, 64, 0
8, 32280, Note_on_c, 3, 57, 60
8, 32304, Note_on_c, 3, 60, 52
8, 32328, Note_on_c, 3, 64, 64
8, 32365, Note_on_c, 3, 57, 0
8, 32376, Note_on_c, 3, 55, 48
8, 32378, Note_on_c, 3, 64, 0
8, 32379, Note_on_c, 3, 60, 0
8, 32400, Note_on_c, 3, 59, 56
8, 32424, Note_on_c, 3, 62, 60
8, 32451, Note_on_c, 3, 55, 0
8, 32455, Note_on_c, 3, 59, 0
8, 32464, Note_on_c, 3, 62, 0
8, 32472, Note_on_c, 3, 57, 48
8, 32496, Note_on_c, 3, 60, 60
8, 32520, Note_on_c, 3, 65, 56
8, 32535, Note_on_c, 3, 60, 0
8, 32566, Note_on_c, 3, 57, 0
8, 32568, Note_on_c, 3, 60, 60
8, 32592, Note_on_c, 3, 57, 64
8, 32632, Note_on_c, 3, 57, 0
8, 32638, Note_on_c, 3, 60, 0
8, 32639, Note_on_c, 3, 65, 0
8, 32664, Note_on_c, 3, 59, 64
8, 32688, Note_on_c, 3, 62, 56
8, 32712, Note_on_c, 3, 67, 60
8, 32725, Note_on_c, 3, 62, 0
8, 32740, Note_on_c, 3, 59, 0
8, 32760, Note_on_c, 3, 62, 52
8, 32784, Note_on_c, 3, 59, 64
8, 32799, Note_on_c, 3, 62, 0
8, 32807, Note_on_c, 3, 67, 0
8, 32813, Note_on_c, 3, 59, 0
8, 32856, Note_on_c, 3, 57, 60
8, 32880, Note_on_c, 3, 60, 60
8, 32904, Note_on_c, 3, 64, 60
8, 32938, Note_on_c, 3, 57, 0
8, 32939, Note_on_c, 3, 60, 0
8, 32952, Note_on_c, 3, 60, 52
8, 32976, Note_on_c, 3, 57, 64
8, 33032, Note_on_c, 3, 57, 0
8, 33040, Note_on_c, 3, 60, 0
8, 33048, Note_on_c, 3, 57, 60
8, 33049, Note_on_c, 3, 64, 0
8, 33072, Note_on_c, 3, 60, 64
8, 33096, Note_on_c, 3, 64, 64
8, 33126, Note_on_c, 3, 57, 0
8, 33134, Note_on_c, 3, 64, 0
8, 33136, Note_on_c, 3, 60, 0
8, 33144, Note_on_c, 3, 55, 60
8, 33168, Note_on_c, 3, 59, 60
8, 33192, Note_on_c, 3, 62, 64
8, 33216, Note_on_c, 3, 55, 0
8, 33223, Note_on_c, 3, 59, 0
8, 33228, Note_on_c, 3, 62, 0
8, 33240, Note_on_c, 3, 57, 56
8, 33264, Note_on_c, 3, 60, 52
8, 33288, Note_on_c, 3, 65, 64
8, 33299, Note_on_c, 3, 60, 0
8, 33325, Note_on_c, 3, 57, 0
8, 33336, Note_on_c, 3, 60, 56
8, 33360, Note_on_c, 3, 57, 60
8, 33403, Note_on_c, 3, 57, 0
8, 33406, Note_on_c, 3, 60, 0
8, 33407, Note_on_c, 3, 65, 0
8, 33432, Note_on_c, 3, 59, 64
8, 33456, Note_on_c, 3, 62, 60
8, 33480, Note_on_c, 3, 67, 64
8, 33487, Note_on_c, 3, 62, 0
8, 33514, Note_on_c, 3, 59, 0
8, 33528, Note_on_c, 3, 62, 56
8, 33552, Note_on_c, 3, 59, 64
8, 33578, Note_on_c, 3, 59, 0
8, 33581, Note_on_c, 3, 62, 0
8, 33587, Note_on_c, 3, 67, 0
8, 33600, Note_on_c, 3, 57, 48
8, 33605, Note_on_c, 3, 60, 60
8, 33613, Note_on_c, 3, 64, 60
8, 34112, Note_on_c, 3, 60, 0
8, 34112, Note_on_c, 3, 57, 0
8, 34116, Note_on_c, 3, 64, 0
8, 34116, End_track
9, 0, Start_track
9, 0, MIDI_port, 0
9, 0, Title_t, "Guitar 2"
9, 0, Program_c, 4, 29
9, 0, Control_c, 4, 7, 90
9, 0, Control_c, 4, 10, 104
9, 4608, Control_c, 4, 91, 125
9, 4608, Control_c, 4, 93, 125
9, 4608, Note_on_c, 4, 64, 82
9, 4608, Note_on_c, 4, 60, 64
9, 4665, Note_on_c, 4, 64, 0
9, 4666, Note_on_c, 4, 60, 0
9, 4680, Note_on_c, 4, 62, 73
9, 4680, Note_on_c, 4, 59, 64
9, 4961, Note_on_c, 4, 62, 0
9, 4964, Note_on_c, 4, 59, 0
9, 4992, Note_on_c, 4, 62, 73
9, 4992, Note_on_c, 4, 66, 91
9, 5055, Note_on_c, 4, 66, 0
9, 5056, Note_on_c, 4, 62, 0
9, 5064, Note_on_c, 4, 61, 64
9, 5064, Note_on_c, 4, 64, 82
9, 5350, Note_on_c, 4, 64, 0
9, 5350, Note_on_c, 4, 61, 0
9, 5376, Note_on_c, 4, 59, 73
9, 5454, Note_on_c, 4, 59, 0
9, 5472, Note_on_c, 4, 60, 82
9, 5555, Note_on_c, 4, 60, 0
9, 5568, Note_on_c, 4, 62, 82
9, 5641, Note_on_c, 4, 62, 0
9, 5664, Note_on_c, 4, 64, 91
9, 6114, Note_on_c, 4, 64, 0
9, 6144, Note_on_c, 4, 64, 73
9, 6144, Note_on_c, 4, 60, 82
9, 6222, Note_on_c, 4, 64, 0
9, 6225, Note_on_c, 4, 60, 0
9, 6240, Note_on_c, 4, 62, 73
9, 6240, Note_on_c, 4, 59, 64
9, 6317, Note_on_c, 4, 59, 0
9, 6317, Note_on_c, 4, 62, 0
9, 6336, Note_on_c, 4, 62, 73
9, 6336, Note_on_c, 4, 66, 82
9, 6678, Note_on_c, 4, 62, 0
9, 6682, Note_on_c, 4, 66, 0
9, 14400, Note_on_c, 4, 64, 82
9, 14400, Note_on_c, 4, 60, 64
9, 14457, Note_on_c, 4, 64, 0
9, 14458, Note_on_c, 4, 60, 0
9, 14472, Note_on_c, 4, 62, 73
9, 14472, Note_on_c, 4, 59, 64
9, 14753, Note_on_c, 4, 62, 0
9, 14756, Note_on_c, 4, 59, 0
9, 14784, Note_on_c, 4, 62, 73
9, 14784, Note_on_c, 4, 66, 91
9, 14847, Note_on_c, 4, 66, 0
9, 14848, Note_on_c, 4, 62, 0
9, 14856, Note_on_c, 4, 61, 64
9, 14856, Note_on_c, 4, 64, 82
9, 15142, Note_on_c, 4, 64, 0
9, 15142, Note_on_c, 4, 61, 0
9, 15168, Note_on_c, 4, 59, 73
9, 15246, Note_on_c, 4, 59, 0
9, 15264, Note_on_c, 4, 60, 82
9, 15347, Note_on_c, 4, 60, 0
9, 15360, Note_on_c, 4, 62, 82
9, 15433, Note_on_c, 4, 62, 0
9, 15456, Note_on_c, 4, 64, 91
9, 15906, Note_on_c, 4, 64, 0
9, 15936, Note_on_c, 4, 64, 73
9, 15936, Note_on_c, 4, 60, 82
9, 16014, Note_on_c, 4, 64, 0
9, 16017, Note_on_c, 4, 60, 0
9, 16032, Note_on_c, 4, 62, 73
9, 16032, Note_on_c, 4, 59, 64
9, 16109, Note_on_c, 4, 59, 0
9, 16109, Note_on_c, 4, 62, 0
9, 16128, Note_on_c, 4, 62, 73
9, 16128, Note_on_c, 4, 66, 82
9, 16470, Note_on_c, 4, 62, 0
9, 16474, Note_on_c, 4, 66, 0
9, 21120, Note_on_c, 4, 50, 82
9, 21292, Note_on_c, 4, 50, 0
9, 21312, Note_on_c, 4, 47, 82
9, 21492, Note_on_c, 4, 47, 0
9, 21504, Note_on_c, 4, 48, 64
9, 21871, Note_on_c, 4, 48, 0
9, 21888, Note_on_c, 4, 50, 64
9, 22254, Note_on_c, 4, 50, 0
9, 22272, Note_on_c, 4, 51, 73
9, 22440, Note_on_c, 4, 51, 0
9, 22464, Note_on_c, 4, 52, 73
9, 22847, Note_on_c, 4, 52, 0
9, 22847, End_track
10, 0, Start_track
10, 0, MIDI_port, 0
10, 0, Title_t, "Strings"
10, 0, Program_c, 5, 48
10, 0, Control_c, 5, 7, 125
10, 0, Control_c, 5, 10, 64
10, 0, Text_t, "%-"
10, 0, Control_c, 5, 91, 120
10, 0, Note_on_c, 5, 62, 42
10, 0, Note_on_c, 5, 66, 42
10, 0, Note_on_c, 5, 69, 46
10, 192, Note_on_c, 5, 69, 0
10, 192, Note_on_c, 5, 66, 0
10, 192, Note_on_c, 5, 62, 0
10, 192, Note_on_c, 5, 62, 40
10, 192, Note_on_c, 5, 67, 40
10, 192, Note_on_c, 5, 71, 36
10, 384, Note_on_c, 5, 71, 0
10, 384, Note_on_c, 5, 67, 0
10, 384, Note_on_c, 5, 62, 0
10, 384, Note_on_c, 5, 64, 42
10, 384, Note_on_c, 5, 67, 40
10, 384, Note_on_c, 5, 72, 46
10, 576, Note_on_c, 5, 72, 0
10, 576, Note_on_c, 5, 67, 0
10, 576, Note_on_c, 5, 64, 0
10, 576, Note_on_c, 5, 62, 42
10, 576, Note_on_c, 5, 67, 42
10, 576, Note_on_c, 5, 71, 46
10, 768, Note_on_c, 5, 71, 0
10, 768, Note_on_c, 5, 67, 0
10, 768, Note_on_c, 5, 62, 0
10, 768, Note_on_c, 5, 62, 36
10, 768, Note_on_c, 5, 66, 48
10, 768, Note_on_c, 5, 69, 48
10, 960, Note_on_c, 5, 69, 0
10, 960, Note_on_c, 5, 66, 0
10, 960, Note_on_c, 5, 62, 0
10, 960, Note_on_c, 5, 62, 44
10, 960, Note_on_c, 5, 67, 46
10, 960, Note_on_c, 5, 71, 48
10, 1152, Note_on_c, 5, 71, 0
10, 1152, Note_on_c, 5, 67, 0
10, 1152, Note_on_c, 5, 62, 0
10, 1152, Note_on_c, 5, 64, 48
10, 1152, Note_on_c, 5, 67, 52
10, 1152, Note_on_c, 5, 72, 48
10, 1344, Note_on_c, 5, 72, 0
10, 1344, Note_on_c, 5, 67, 0
10, 1344, Note_on_c, 5, 64, 0
10, 1344, Note_on_c, 5, 62, 40
10, 1344, Note_on_c, 5, 67, 44
10, 1344, Note_on_c, 5, 71, 52
10, 1536, Note_on_c, 5, 71, 0
10, 1536, Note_on_c, 5, 67, 0
10, 1536, Note_on_c, 5, 62, 0
10, 1536, Note_on_c, 5, 62, 44
10, 1536, Note_on_c, 5, 66, 52
10, 1536, Note_on_c, 5, 69, 52
10, 1824, Note_on_c, 5, 69, 0
10, 1824, Note_on_c, 5, 66, 0
10, 1824, Note_on_c, 5, 62, 0
10, 6720, Note_on_c, 5, 57, 42
10, 6720, Note_on_c, 5, 61, 37
10, 6720, Note_on_c, 5, 64, 35
10, 6912, Note_on_c, 5, 64, 0
10, 6912, Note_on_c, 5, 61, 0
10, 6912, Note_on_c, 5, 57, 0
10, 6912, Note_on_c, 5, 57, 35
10, 6912, Note_on_c, 5, 62, 25
10, 6912, Note_on_c, 5, 65, 32
10, 7104, Note_on_c, 5, 65, 0
10, 7104, Note_on_c, 5, 62, 0
10, 7104, Note_on_c, 5, 57, 0
10, 7104, Note_on_c, 5, 56, 30
10, 7104, Note_on_c, 5, 62, 30
10, 7104, Note_on_c, 5, 65, 35
10, 7296, Note_on_c, 5, 65, 0
10, 7296, Note_on_c, 5, 62, 0
10, 7296, Note_on_c, 5, 56, 0
10, 7296, Note_on_c, 5, 55, 25
10, 7296, Note_on_c, 5, 60, 32
10, 7296, Note_on_c, 5, 64, 28
10, 7488, Note_on_c, 5, 64, 0
10, 7488, Note_on_c, 5, 60, 0
10, 7488, Note_on_c, 5, 55, 0
10, 7488, Note_on_c, 5, 55, 22
10, 7488, Note_on_c, 5, 60, 29
10, 7488, Note_on_c, 5, 64, 24
10, 7680, Note_on_c, 5, 64, 0
10, 7680, Note_on_c, 5, 60, 0
10, 7680, Note_on_c, 5, 55, 0
10, 7680, Note_on_c, 5, 53, 25
10, 7680, Note_on_c, 5, 59, 31
10, 7680, Note_on_c, 5, 62, 31
10, 7872, Note_on_c, 5, 62, 0
10, 7872, Note_on_c, 5, 59, 0
10, 7872, Note_on_c, 5, 53, 0
10, 7872, Note_on_c, 5, 56, 36
10, 7872, Note_on_c, 5, 59, 31
10, 7872, Note_on_c, 5, 62, 24
10, 8064, Note_on_c, 5, 62, 0
10, 8064, Note_on_c, 5, 59, 0
10, 8064, Note_on_c, 5, 56, 0
10, 8064, Note_on_c, 5, 53, 27
10, 8064, Note_on_c, 5, 57, 30
10, 8064, Note_on_c, 5, 60, 36
10, 8448, Note_on_c, 5, 60, 0
10, 8448, Note_on_c, 5, 57, 0
10, 8448, Note_on_c, 5, 53, 0
10, 8448, Note_on_c, 5, 57, 26
10, 8448, Note_on_c, 5, 61, 32
10, 8448, Note_on_c, 5, 64, 30
10, 8640, Note_on_c, 5, 64, 0
10, 8640, Note_on_c, 5, 61, 0
10, 8640, Note_on_c, 5, 57, 0
10, 8640, Note_on_c, 5, 57, 26
10, 8640, Note_on_c, 5, 62, 36
10, 8640, Note_on_c, 5, 65, 30
10, 8832, Note_on_c, 5, 65, 0
10, 8832, Note_on_c, 5, 62, 0
10, 8832, Note_on_c, 5, 57, 0
10, 8832, Note_on_c, 5, 56, 20
10, 8832, Note_on_c, 5, 62, 26
10, 8832, Note_on_c, 5, 65, 17
10, 9024, Note_on_c, 5, 65, 0
10, 9024, Note_on_c, 5, 62, 0
10, 9024, Note_on_c, 5, 56, 0
10, 9024, Note_on_c, 5, 55, 26
10, 9024, Note_on_c, 5, 60, 36
10, 9024, Note_on_c, 5, 64, 22
10, 9216, Note_on_c, 5, 64, 0
10, 9216, Note_on_c, 5, 60, 0
10, 9216, Note_on_c, 5, 55, 0
10, 9216, Note_on_c, 5, 55, 26
10, 9216, Note_on_c, 5, 60, 29
10, 9216, Note_on_c, 5, 64, 29
10, 9408, Note_on_c, 5, 64, 0
10, 9408, Note_on_c, 5, 60, 0
10, 9408, Note_on_c, 5, 55, 0
10, 9408, Note_on_c, 5, 53, 29
10, 9408, Note_on_c, 5, 59, 44
10, 9408, Note_on_c, 5, 62, 29
10, 9600, Note_on_c, 5, 62, 0
10, 9600, Note_on_c, 5, 59, 0
10, 9600, Note_on_c, 5, 53, 0
10, 9600, Note_on_c, 5, 56, 44
10, 9600, Note_on_c, 5, 59, 32
10, 9600, Note_on_c, 5, 62, 25
10, 9792, Note_on_c, 5, 62, 0
10, 9792, Note_on_c, 5, 59, 0
10, 9792, Note_on_c, 5, 56, 0
10, 9792, Note_on_c, 5, 53, 31
10, 9792, Note_on_c, 5, 57, 48
10, 9792, Note_on_c, 5, 60, 48
10, 9984, Note_on_c, 5, 60, 0
10, 9984, Note_on_c, 5, 57, 0
10, 9984, Note_on_c, 5, 53, 0
10, 9984, Note_on_c, 5, 55, 27
10, 9984, Note_on_c, 5, 59, 40
10, 9984, Note_on_c, 5, 62, 44
10, 10176, Note_on_c, 5, 62, 0
10, 10176, Note_on_c, 5, 59, 0
10, 10176, Note_on_c, 5, 55, 0
10, 10176, Note_on_c, 5, 57, 29
10, 10176, Note_on_c, 5, 60, 36
10, 10176, Note_on_c, 5, 64, 40
10, 10464, Note_on_c, 5, 64, 0
10, 10464, Note_on_c, 5, 60, 0
10, 10464, Note_on_c, 5, 57, 0
10, 10464, Note_on_c, 5, 55, 44
10, 10464, Note_on_c, 5, 59, 48
10, 10464, Note_on_c, 5, 62, 56
10, 10560, Note_on_c, 5, 62, 0
10, 10560, Note_on_c, 5, 59, 0
10, 10560, Note_on_c, 5, 55, 0
10, 10560, Note_on_c, 5, 53, 31
10, 10560, Note_on_c, 5, 57, 48
10, 10560, Note_on_c, 5, 60, 31
10, 10752, Note_on_c, 5, 60, 0
10, 10752, Note_on_c, 5, 57, 0
10, 10752, Note_on_c, 5, 53, 0
10, 10752, Note_on_c, 5, 55, 25
10, 10752, Note_on_c, 5, 59, 32
10, 10752, Note_on_c, 5, 62, 40
10, 10944, Note_on_c, 5, 62, 0
10, 10944, Note_on_c, 5, 59, 0
10, 10944, Note_on_c, 5, 55, 0
10, 10944, Note_on_c, 5, 57, 28
10, 10944, Note_on_c, 5, 60, 31
10, 10944, Note_on_c, 5, 64, 36
10, 11232, Note_on_c, 5, 64, 0
10, 11232, Note_on_c, 5, 60, 0
10, 11232, Note_on_c, 5, 57, 0
10, 16512, Note_on_c, 5, 57, 19
10, 16512, Note_on_c, 5, 61, 30
10, 16512, Note_on_c, 5, 64, 25
10, 16704, Note_on_c, 5, 64, 0
10, 16704, Note_on_c, 5, 61, 0
10, 16704, Note_on_c, 5, 57, 0
10, 16704, Note_on_c, 5, 57, 16
10, 16704, Note_on_c, 5, 62, 25
10, 16704, Note_on_c, 5, 65, 17
10, 16896, Note_on_c, 5, 65, 0
10, 16896, Note_on_c, 5, 62, 0
10, 16896, Note_on_c, 5, 57, 0
10, 16896, Note_on_c, 5, 56, 17
10, 16896, Note_on_c, 5, 62, 30
10, 16896, Note_on_c, 5, 65, 18
10, 17088, Note_on_c, 5, 65, 0
10, 17088, Note_on_c, 5, 62, 0
10, 17088, Note_on_c, 5, 56, 0
10, 17088, Note_on_c, 5, 55, 25
10, 17088, Note_on_c, 5, 60, 32
10, 17088, Note_on_c, 5, 64, 28
10, 17280, Note_on_c, 5, 64, 0
10, 17280, Note_on_c, 5, 60, 0
10, 17280, Note_on_c, 5, 55, 0
10, 17280, Note_on_c, 5, 55, 22
10, 17280, Note_on_c, 5, 60, 29
10, 17280, Note_on_c, 5, 64, 24
10, 17472, Note_on_c, 5, 64, 0
10, 17472, Note_on_c, 5, 60, 0
10, 17472, Note_on_c, 5, 55, 0
10, 17472, Note_on_c, 5, 53, 25
10, 17472, Note_on_c, 5, 59, 31
10, 17472, Note_on_c, 5, 62, 31
10, 17664, Note_on_c, 5, 62, 0
10, 17664, Note_on_c, 5, 59, 0
10, 17664, Note_on_c, 5, 53, 0
10, 17664, Note_on_c, 5, 56, 36
10, 17664, Note_on_c, 5, 59, 31
10, 17664, Note_on_c, 5, 62, 24
10, 17856, Note_on_c, 5, 62, 0
10, 17856, Note_on_c, 5, 59, 0
10, 17856, Note_on_c, 5, 56, 0
10, 17856, Note_on_c, 5, 53, 27
10, 17856, Note_on_c, 5, 57, 30
10, 17856, Note_on_c, 5, 60, 36
10, 18240, Note_on_c, 5, 60, 0
10, 18240, Note_on_c, 5, 57, 0
10, 18240, Note_on_c, 5, 53, 0
10, 18240, Note_on_c, 5, 64, 16
10, 18240, Note_on_c, 5, 69, 22
10, 18240, Note_on_c, 5, 73, 26
10, 18432, Note_on_c, 5, 73, 0
10, 18432, Note_on_c, 5, 69, 0
10, 18432, Note_on_c, 5, 64, 0
10, 18432, Note_on_c, 5, 65, 22
10, 18432, Note_on_c, 5, 69, 25
10, 18432, Note_on_c, 5, 74, 25
10, 18624, Note_on_c, 5, 74, 0
10, 18624, Note_on_c, 5, 69, 0
10, 18624, Note_on_c, 5, 65, 0
10, 18624, Note_on_c, 5, 65, 20
10, 18624, Note_on_c, 5, 68, 31
10, 18624, Note_on_c, 5, 74, 27
10, 18816, Note_on_c, 5, 74, 0
10, 18816, Note_on_c, 5, 68, 0
10, 18816, Note_on_c, 5, 65, 0
10, 18816, Note_on_c, 5, 64, 24
10, 18816, Note_on_c, 5, 67, 29
10, 18816, Note_on_c, 5, 72, 22
10, 19008, Note_on_c, 5, 72, 0
10, 19008, Note_on_c, 5, 67, 0
10, 19008, Note_on_c, 5, 64, 0
10, 19008, Note_on_c, 5, 64, 29
10, 19008, Note_on_c, 5, 67, 32
10, 19008, Note_on_c, 5, 72, 31
10, 19200, Note_on_c, 5, 72, 0
10, 19200, Note_on_c, 5, 67, 0
10, 19200, Note_on_c, 5, 64, 0
10, 19200, Note_on_c, 5, 62, 20
10, 19200, Note_on_c, 5, 65, 28
10, 19200, Note_on_c, 5, 71, 22
10, 19392, Note_on_c, 5, 71, 0
10, 19392, Note_on_c, 5, 65, 0
10, 19392, Note_on_c, 5, 62, 0
10, 19392, Note_on_c, 5, 62, 22
10, 19392, Note_on_c, 5, 68, 29
10, 19392, Note_on_c, 5, 71, 20
10, 19584, Note_on_c, 5, 71, 0
10, 19584, Note_on_c, 5, 68, 0
10, 19584, Note_on_c, 5, 62, 0
10, 19584, Note_on_c, 5, 65, 22
10, 19584, Note_on_c, 5, 69, 24
10, 19584, Note_on_c, 5, 72, 18
10, 19776, Note_on_c, 5, 72, 0
10, 19776, Note_on_c, 5, 69, 0
10, 19776, Note_on_c, 5, 65, 0
10, 19776, Note_on_c, 5, 67, 21
10, 19776, Note_on_c, 5, 71, 28
10, 19776, Note_on_c, 5, 74, 21
10, 19968, Note_on_c, 5, 74, 0
10, 19968, Note_on_c, 5, 71, 0
10, 19968, Note_on_c, 5, 67, 0
10, 19968, Note_on_c, 5, 64, 20
10, 19968, Note_on_c, 5, 69, 29
10, 19968, Note_on_c, 5, 72, 20
10, 20256, Note_on_c, 5, 72, 0
10, 20256, Note_on_c, 5, 69, 0
10, 20256, Note_on_c, 5, 64, 0
10, 20256, Note_on_c, 5, 62, 23
10, 20256, Note_on_c, 5, 67, 29
10, 20256, Note_on_c, 5, 71, 22
10, 20352, Note_on_c, 5, 71, 0
10, 20352, Note_on_c, 5, 67, 0
10, 20352, Note_on_c, 5, 62, 0
10, 20352, Note_on_c, 5, 60, 16
10, 20352, Note_on_c, 5, 65, 23
10, 20352, Note_on_c, 5, 69, 19
10, 20544, Note_on_c, 5, 69, 0
10, 20544, Note_on_c, 5, 65, 0
10, 20544, Note_on_c, 5, 60, 0
10, 20544, Note_on_c, 5, 62, 23
10, 20544, Note_on_c, 5, 67, 27
10, 20544, Note_on_c, 5, 71, 24
10, 20736, Note_on_c, 5, 71, 0
10, 20736, Note_on_c, 5, 67, 0
10, 20736, Note_on_c, 5, 62, 0
10, 20736, Note_on_c, 5, 60, 22
10, 20736, Note_on_c, 5, 64, 28
10, 20736, Note_on_c, 5, 69, 26
10, 21120, Note_on_c, 5, 69, 0
10, 21120, Note_on_c, 5, 64, 0
10, 21120, Note_on_c, 5, 60, 0
10, 22848, Note_on_c, 5, 69, 19
10, 22848, Note_on_c, 5, 73, 29
10, 22848, Note_on_c, 5, 76, 23
10, 23040, Note_on_c, 5, 76, 0
10, 23040, Note_on_c, 5, 73, 0
10, 23040, Note_on_c, 5, 69, 0
10, 23040, Note_on_c, 5, 69, 31
10, 23040, Note_on_c, 5, 74, 36
10, 23040, Note_on_c, 5, 77, 32
10, 23232, Note_on_c, 5, 77, 0
10, 23232, Note_on_c, 5, 74, 0
10, 23232, Note_on_c, 5, 69, 0
10, 23232, Note_on_c, 5, 68, 30
10, 23232, Note_on_c, 5, 74, 44
10, 23232, Note_on_c, 5, 77, 32
10, 23424, Note_on_c, 5, 77, 0
10, 23424, Note_on_c, 5, 74, 0
10, 23424, Note_on_c, 5, 68, 0
10, 23424, Note_on_c, 5, 67, 29
10, 23424, Note_on_c, 5, 72, 40
10, 23424, Note_on_c, 5, 76, 30
10, 23616, Note_on_c, 5, 76, 0
10, 23616, Note_on_c, 5, 72, 0
10, 23616, Note_on_c, 5, 67, 0
10, 23616, Note_on_c, 5, 67, 44
10, 23616, Note_on_c, 5, 72, 48
10, 23616, Note_on_c, 5, 76, 48
10, 23808, Note_on_c, 5, 76, 0
10, 23808, Note_on_c, 5, 72, 0
10, 23808, Note_on_c, 5, 67, 0
10, 23808, Note_on_c, 5, 69, 31
10, 23808, Note_on_c, 5, 74, 44
10, 23808, Note_on_c, 5, 77, 31
10, 24000, Note_on_c, 5, 77, 0
10, 24000, Note_on_c, 5, 74, 0
10, 24000, Note_on_c, 5, 69, 0
10, 24000, Note_on_c, 5, 68, 27
10, 24000, Note_on_c, 5, 71, 36
10, 24000, Note_on_c, 5, 74, 48
10, 24192, Note_on_c, 5, 74, 0
10, 24192, Note_on_c, 5, 71, 0
10, 24192, Note_on_c, 5, 68, 0
10, 24192, Note_on_c, 5, 65, 32
10, 24192, Note_on_c, 5, 69, 52
10, 24192, Note_on_c, 5, 72, 52
10, 24576, Note_on_c, 5, 72, 0
10, 24576, Note_on_c, 5, 69, 0
10, 24576, Note_on_c, 5, 65, 0
10, 24576, Note_on_c, 5, 69, 19
10, 24576, Note_on_c, 5, 73, 29
10, 24576, Note_on_c, 5, 64, 23
10, 24768, Note_on_c, 5, 64, 0
10, 24768, Note_on_c, 5, 73, 0
10, 24768, Note_on_c, 5, 69, 0
10, 24768, Note_on_c, 5, 69, 31
10, 24768, Note_on_c, 5, 74, 36
10, 24768, Note_on_c, 5, 77, 32
10, 24960, Note_on_c, 5, 77, 0
10, 24960, Note_on_c, 5, 74, 0
10, 24960, Note_on_c, 5, 69, 0
10, 24960, Note_on_c, 5, 68, 30
10, 24960, Note_on_c, 5, 74, 44
10, 24960, Note_on_c, 5, 77, 32
10, 25152, Note_on_c, 5, 77, 0
10, 25152, Note_on_c, 5, 74, 0
10, 25152, Note_on_c, 5, 68, 0
10, 25152, Note_on_c, 5, 67, 29
10, 25152, Note_on_c, 5, 72, 40
10, 25152, Note_on_c, 5, 76, 30
10, 25344, Note_on_c, 5, 76, 0
10, 25344, Note_on_c, 5, 72, 0
10, 25344, Note_on_c, 5, 67, 0
10, 25344, Note_on_c, 5, 67, 44
10, 25344, Note_on_c, 5, 72, 48
10, 25344, Note_on_c, 5, 76, 48
10, 25536, Note_on_c, 5, 76, 0
10, 25536, Note_on_c, 5, 72, 0
10, 25536, Note_on_c, 5, 67, 0
10, 25536, Note_on_c, 5, 69, 31
10, 25536, Note_on_c, 5, 74, 44
10, 25536, Note_on_c, 5, 77, 31
10, 25728, Note_on_c, 5, 77, 0
10, 25728, Note_on_c, 5, 74, 0
10, 25728, Note_on_c, 5, 69, 0
10, 25728, Note_on_c, 5, 68, 27
10, 25728, Note_on_c, 5, 71, 36
10, 25728, Note_on_c, 5, 74, 48
10, 25920, Note_on_c, 5, 74, 0
10, 25920, Note_on_c, 5, 71, 0
10, 25920, Note_on_c, 5, 68, 0
10, 25920, Note_on_c, 5, 65, 26
10, 25920, Note_on_c, 5, 69, 31
10, 25920, Note_on_c, 5, 72, 31
10, 26208, Note_on_c, 5, 72, 0
10, 26208, Note_on_c, 5, 69, 0
10, 26208, Note_on_c, 5, 65, 0
10, 26208, Note_on_c, 5, 67, 22
10, 26208, Note_on_c, 5, 71, 29
10, 26208, Note_on_c, 5, 74, 31
10, 26304, Note_on_c, 5, 74, 0
10, 26304, Note_on_c, 5, 71, 0
10, 26304, Note_on_c, 5, 67, 0
10, 26304, Note_on_c, 5, 69, 22
10, 26304, Note_on_c, 5, 72, 26
10, 26304, Note_on_c, 5, 76, 23
10, 26592, Note_on_c, 5, 76, 0
10, 26592, Note_on_c, 5, 72, 0
10, 26592, Note_on_c, 5, 69, 0
10, 26592, Note_on_c, 5, 67, 20
10, 26592, Note_on_c, 5, 71, 24
10, 26592, Note_on_c, 5, 74, 21
10, 26688, Note_on_c, 5, 74, 0
10, 26688, Note_on_c, 5, 71, 0
10, 26688, Note_on_c, 5, 67, 0
10, 26688, Note_on_c, 5, 65, 16
10, 26688, Note_on_c, 5, 69, 27
10, 26688, Note_on_c, 5, 72, 24
10, 26880, Note_on_c, 5, 72, 0
10, 26880, Note_on_c, 5, 69, 0
10, 26880, Note_on_c, 5, 65, 0
10, 26880, Note_on_c, 5, 67, 20
10, 26880, Note_on_c, 5, 71, 24
10, 26880, Note_on_c, 5, 74, 25
10, 27072, Note_on_c, 5, 74, 0
10, 27072, Note_on_c, 5, 71, 0
10, 27072, Note_on_c, 5, 67, 0
10, 27072, Note_on_c, 5, 69, 19
10, 27072, Note_on_c, 5, 73, 29
10, 27072, Note_on_c, 5, 76, 23
10, 27264, Note_on_c, 5, 76, 0
10, 27264, Note_on_c, 5, 73, 0
10, 27264, Note_on_c, 5, 69, 0
10, 27264, Note_on_c, 5, 69, 31
10, 27264, Note_on_c, 5, 74, 36
10, 27264, Note_on_c, 5, 77, 32
10, 27456, Note_on_c, 5, 77, 0
10, 27456, Note_on_c, 5, 74, 0
10, 27456, Note_on_c, 5, 69, 0
10, 27456, Note_on_c, 5, 68, 30
10, 27456, Note_on_c, 5, 74, 44
10, 27456, Note_on_c, 5, 77, 32
10, 27648, Note_on_c, 5, 77, 0
10, 27648, Note_on_c, 5, 74, 0
10, 27648, Note_on_c, 5, 68, 0
10, 27648, Note_on_c, 5, 67, 29
10, 27648, Note_on_c, 5, 72, 40
10, 27648, Note_on_c, 5, 76, 30
10, 27840, Note_on_c, 5, 76, 0
10, 27840, Note_on_c, 5, 72, 0
10, 27840, Note_on_c, 5, 67, 0
10, 27840, Note_on_c, 5, 67, 44
10, 27840, Note_on_c, 5, 72, 48
10, 27840, Note_on_c, 5, 76, 48
10, 28032, Note_on_c, 5, 76, 0
10, 28032, Note_on_c, 5, 72, 0
10, 28032, Note_on_c, 5, 67, 0
10, 28032, Note_on_c, 5, 69, 31
10, 28032, Note_on_c, 5, 74, 44
10, 28032, Note_on_c, 5, 77, 31
10, 28224, Note_on_c, 5, 77, 0
10, 28224, Note_on_c, 5, 74, 0
10, 28224, Note_on_c, 5, 69, 0
10, 28224, Note_on_c, 5, 68, 27
10, 28224, Note_on_c, 5, 71, 36
10, 28224, Note_on_c, 5, 74, 48
10, 28416, Note_on_c, 5, 74, 0
10, 28416, Note_on_c, 5, 71, 0
10, 28416, Note_on_c, 5, 68, 0
10, 28416, Note_on_c, 5, 65, 32
10, 28416, Note_on_c, 5, 69, 52
10, 28416, Note_on_c, 5, 72, 52
10, 28800, Note_on_c, 5, 72, 0
10, 28800, Note_on_c, 5, 69, 0
10, 28800, Note_on_c, 5, 65, 0
10, 28800, Note_on_c, 5, 69, 19
10, 28800, Note_on_c, 5, 73, 29
10, 28800, Note_on_c, 5, 64, 23
10, 28992, Note_on_c, 5, 64, 0
10, 28992, Note_on_c, 5, 73, 0
10, 28992, Note_on_c, 5, 69, 0
10, 28992, Note_on_c, 5, 69, 31
10, 28992, Note_on_c, 5, 74, 36
10, 28992, Note_on_c, 5, 77, 32
10, 29184, Note_on_c, 5, 77, 0
10, 29184, Note_on_c, 5, 74, 0
10, 29184, Note_on_c, 5, 69, 0
10, 29184, Note_on_c, 5, 68, 30
10, 29184, Note_on_c, 5, 74, 44
10, 29184, Note_on_c, 5, 77, 32
10, 29376, Note_on_c, 5, 77, 0
10, 29376, Note_on_c, 5, 74, 0
10, 29376, Note_on_c, 5, 68, 0
10, 29376, Note_on_c, 5, 67, 29
10, 29376, Note_on_c, 5, 72, 40
10, 29376, Note_on_c, 5, 76, 30
10, 29568, Note_on_c, 5, 76, 0
10, 29568, Note_on_c, 5, 72, 0
10, 29568, Note_on_c, 5, 67, 0
10, 29568, Note_on_c, 5, 67, 44
10, 29568, Note_on_c, 5, 72, 48
10, 29568, Note_on_c, 5, 76, 48
10, 29760, Note_on_c, 5, 76, 0
10, 29760, Note_on_c, 5, 72, 0
10, 29760, Note_on_c, 5, 67, 0
10, 29760, Note_on_c, 5, 69, 31
10, 29760, Note_on_c, 5, 74, 44
10, 29760, Note_on_c, 5, 77, 31
10, 29952, Note_on_c, 5, 77, 0
10, 29952, Note_on_c, 5, 74, 0
10, 29952, Note_on_c, 5, 69, 0
10, 29952, Note_on_c, 5, 68, 27
10, 29952, Note_on_c, 5, 71, 36
10, 29952, Note_on_c, 5, 74, 48
10, 30144, Note_on_c, 5, 74, 0
10, 30144, Note_on_c, 5, 71, 0
10, 30144, Note_on_c, 5, 68, 0
10, 30144, Note_on_c, 5, 65, 16
10, 30144, Note_on_c, 5, 69, 27
10, 30144, Note_on_c, 5, 72, 24
10, 30336, Note_on_c, 5, 72, 0
10, 30336, Note_on_c, 5, 69, 0
10, 30336, Note_on_c, 5, 65, 0
10, 30336, Note_on_c, 5, 67, 20
10, 30336, Note_on_c, 5, 71, 24
10, 30336, Note_on_c, 5, 74, 25
10, 30528, Note_on_c, 5, 74, 0
10, 30528, Note_on_c, 5, 71, 0
10, 30528, Note_on_c, 5, 67, 0
10, 30528, Note_on_c, 5, 69, 16
10, 30528, Note_on_c, 5, 72, 21
10, 30528, Note_on_c, 5, 76, 23
10, 30816, Note_on_c, 5, 76, 0
10, 30816, Note_on_c, 5, 72, 0
10, 30816, Note_on_c, 5, 69, 0
10, 30816, Note_on_c, 5, 67, 18
10, 30816, Note_on_c, 5, 71, 23
10, 30816, Note_on_c, 5, 74, 24
10, 30912, Note_on_c, 5, 74, 0
10, 30912, Note_on_c, 5, 71, 0
10, 30912, Note_on_c, 5, 67, 0
10, 30912, Note_on_c, 5, 65, 24
10, 30912, Note_on_c, 5, 69, 30
10, 30912, Note_on_c, 5, 72, 29
10, 31104, Note_on_c, 5, 72, 0
10, 31104, Note_on_c, 5, 69, 0
10, 31104, Note_on_c, 5, 65, 0
10, 31104, Note_on_c, 5, 67, 16
10, 31104, Note_on_c, 5, 71, 30
10, 31104, Note_on_c, 5, 74, 36
10, 31296, Note_on_c, 5, 74, 0
10, 31296, Note_on_c, 5, 71, 0
10, 31296, Note_on_c, 5, 67, 0
10, 31296, Note_on_c, 5, 69, 16
10, 31296, Note_on_c, 5, 72, 21
10, 31296, Note_on_c, 5, 76, 23
10, 31584, Note_on_c, 5, 76, 0
10, 31584, Note_on_c, 5, 72, 0
10, 31584, Note_on_c, 5, 69, 0
10, 31584, Note_on_c, 5, 67, 18
10, 31584, Note_on_c, 5, 71, 23
10, 31584, Note_on_c, 5, 74, 24
10, 31680, Note_on_c, 5, 74, 0
10, 31680, Note_on_c, 5, 71, 0
10, 31680, Note_on_c, 5, 67, 0
10, 31680, Note_on_c, 5, 65, 24
10, 31680, Note_on_c, 5, 69, 30
10, 31680, Note_on_c, 5, 72, 29
10, 31872, Note_on_c, 5, 72, 0
10, 31872, Note_on_c, 5, 69, 0
10, 31872, Note_on_c, 5, 65, 0
10, 31872, Note_on_c, 5, 67, 16
10, 31872, Note_on_c, 5, 71, 30
10, 31872, Note_on_c, 5, 74, 36
10, 32064, Note_on_c, 5, 74, 0
10, 32064, Note_on_c, 5, 71, 0
10, 32064, Note_on_c, 5, 67, 0
10, 32064, Note_on_c, 5, 69, 16
10, 32064, Note_on_c, 5, 72, 21
10, 32064, Note_on_c, 5, 76, 23
10, 32352, Note_on_c, 5, 76, 0
10, 32352, Note_on_c, 5, 72, 0
10, 32352, Note_on_c, 5, 69, 0
10, 32352, Note_on_c, 5, 67, 18
10, 32352, Note_on_c, 5, 71, 23
10, 32352, Note_on_c, 5, 74, 24
10, 32448, Note_on_c, 5, 74, 0
10, 32448, Note_on_c, 5, 71, 0
10, 32448, Note_on_c, 5, 67, 0
10, 32448, Note_on_c, 5, 65, 24
10, 32448, Note_on_c, 5, 69, 30
10, 32448, Note_on_c, 5, 72, 29
10, 32640, Note_on_c, 5, 72, 0
10, 32640, Note_on_c, 5, 69, 0
10, 32640, Note_on_c, 5, 65, 0
10, 32640, Note_on_c, 5, 67, 16
10, 32640, Note_on_c, 5, 71, 30
10, 32640, Note_on_c, 5, 74, 36
10, 32832, Note_on_c, 5, 74, 0
10, 32832, Note_on_c, 5, 71, 0
10, 32832, Note_on_c, 5, 67, 0
10, 32832, Note_on_c, 5, 69, 16
10, 32832, Note_on_c, 5, 72, 21
10, 32832, Note_on_c, 5, 76, 23
10, 33120, Note_on_c, 5, 76, 0
10, 33120, Note_on_c, 5, 72, 0
10, 33120, Note_on_c, 5, 69, 0
10, 33120, Note_on_c, 5, 67, 18
10, 33120, Note_on_c, 5, 71, 23
10, 33120, Note_on_c, 5, 74, 24
10, 33216, Note_on_c, 5, 74, 0
10, 33216, Note_on_c, 5, 71, 0
10, 33216, Note_on_c, 5, 67, 0
10, 33216, Note_on_c, 5, 65, 24
10, 33216, Note_on_c, 5, 69, 30
10, 33216, Note_on_c, 5, 72, 29
10, 33408, Note_on_c, 5, 72, 0
10, 33408, Note_on_c, 5, 69, 0
10, 33408, Note_on_c, 5, 65, 0
10, 33408, Note_on_c, 5, 67, 16
10, 33408, Note_on_c, 5, 71, 30
10, 33408, Note_on_c, 5, 74, 36
10, 33600, Note_on_c, 5, 74, 0
10, 33600, Note_on_c, 5, 71, 0
10, 33600, Note_on_c, 5, 67, 0
10, 33600, Note_on_c, 5, 69, 18
10, 33600, Note_on_c, 5, 72, 23
10, 33600, Note_on_c, 5, 76, 18
10, 33600, Text_t, "%+"
10, 34150, Note_on_c, 5, 76, 0
10, 34150, Note_on_c, 5, 72, 0
10, 34150, Note_on_c, 5, 69, 0
10, 34150, End_track
11, 0, Start_track
11, 0, MIDI_port, 0
11, 0, Title_t, "Flute"
11, 0, Program_c, 6, 73
11, 0, Control_c, 6, 7, 110
11, 0, Control_c, 6, 10, 24
11, 8448, Control_c, 6, 91, 120
11, 8448, Note_on_c, 6, 69, 64
11, 8515, Note_on_c, 6, 69, 0
11, 8520, Note_on_c, 6, 71, 64
11, 8560, Note_on_c, 6, 71, 0
11, 8568, Note_on_c, 6, 73, 60
11, 8597, Note_on_c, 6, 73, 0
11, 8616, Note_on_c, 6, 74, 60
11, 8739, Note_on_c, 6, 74, 0
11, 8880, Note_on_c, 6, 74, 64
11, 8904, Note_on_c, 6, 74, 0
11, 8904, Note_on_c, 6, 72, 64
11, 8939, Note_on_c, 6, 72, 0
11, 8952, Note_on_c, 6, 70, 64
11, 8980, Note_on_c, 6, 70, 0
11, 9000, Note_on_c, 6, 72, 76
11, 9117, Note_on_c, 6, 72, 0
11, 18240, Note_on_c, 6, 69, 64
11, 18307, Note_on_c, 6, 69, 0
11, 18312, Note_on_c, 6, 71, 64
11, 18352, Note_on_c, 6, 71, 0
11, 18360, Note_on_c, 6, 73, 60
11, 18389, Note_on_c, 6, 73, 0
11, 18408, Note_on_c, 6, 74, 60
11, 18529, Note_on_c, 6, 74, 0
11, 18672, Note_on_c, 6, 74, 64
11, 18696, Note_on_c, 6, 74, 0
11, 18696, Note_on_c, 6, 72, 64
11, 18731, Note_on_c, 6, 72, 0
11, 18744, Note_on_c, 6, 70, 64
11, 18772, Note_on_c, 6, 70, 0
11, 18792, Note_on_c, 6, 72, 73
11, 18911, Note_on_c, 6, 72, 0
11, 28800, Note_on_c, 6, 69, 64
11, 28867, Note_on_c, 6, 69, 0
11, 28872, Note_on_c, 6, 71, 64
11, 28912, Note_on_c, 6, 71, 0
11, 28920, Note_on_c, 6, 73, 60
11, 28949, Note_on_c, 6, 73, 0
11, 28968, Note_on_c, 6, 74, 60
11, 29087, Note_on_c, 6, 74, 0
11, 29232, Note_on_c, 6, 74, 64
11, 29256, Note_on_c, 6, 74, 0
11, 29256, Note_on_c, 6, 72, 64
11, 29291, Note_on_c, 6, 72, 0
11, 29304, Note_on_c, 6, 70, 64
11, 29332, Note_on_c, 6, 70, 0
11, 29352, Note_on_c, 6, 72, 73
11, 29471, Note_on_c, 6, 72, 0
11, 29471, End_track
12, 0, Start_track
12, 0, MIDI_port, 0
12, 0, Title_t, "Vocals"
12, 0, Program_c, 7, 24
12, 0, Control_c, 7, 7, 120
12, 0, Control_c, 7, 10, 64
12, 9192, Control_c, 7, 91, 125
12, 9192, Control_c, 7, 93, 110
12, 9192, Note_on_c, 7, 67, 64
12, 9249, Note_on_c, 7, 67, 0
12, 9264, Note_on_c, 7, 65, 56
12, 9277, Note_on_c, 7, 65, 0
12, 9288, Note_on_c, 7, 65, 60
12, 9322, Note_on_c, 7, 65, 0
12, 9336, Note_on_c, 7, 64, 60
12, 9364, Note_on_c, 7, 64, 0
12, 9384, Note_on_c, 7, 65, 56
12, 9417, Note_on_c, 7, 65, 0
12, 9432, Note_on_c, 7, 65, 60
12, 9498, Note_on_c, 7, 65, 0
12, 18984, Note_on_c, 7, 67, 64
12, 19041, Note_on_c, 7, 67, 0
12, 19056, Note_on_c, 7, 65, 56
12, 19069, Note_on_c, 7, 65, 0
12, 19080, Note_on_c, 7, 65, 60
12, 19114, Note_on_c, 7, 65, 0
12, 19128, Note_on_c, 7, 64, 60
12, 19156, Note_on_c, 7, 64, 0
12, 19176, Note_on_c, 7, 65, 56
12, 19209, Note_on_c, 7, 65, 0
12, 19224, Note_on_c, 7, 65, 60
12, 19290, Note_on_c, 7, 65, 0
12, 29544, Note_on_c, 7, 67, 64
12, 29601, Note_on_c, 7, 67, 0
12, 29616, Note_on_c, 7, 65, 56
12, 29629, Note_on_c, 7, 65, 0
12, 29640, Note_on_c, 7, 65, 60
12, 29674, Note_on_c, 7, 65, 0
12, 29688, Note_on_c, 7, 64, 60
12, 29716, Note_on_c, 7, 64, 0
12, 29736, Note_on_c, 7, 65, 56
12, 29769, Note_on_c, 7, 65, 0
12, 29784, Note_on_c, 7, 65, 60
12, 29850, Note_on_c, 7, 65, 0
12, 29850, End_track
0, 0, End_of_file
