0, 0, Header, 1, 15, 120
1, 0, Start_track
1, 0, Time_signature, 4, 2, 24, 8
1, 0, Key_signature, 0, "major"
1, 0, Tempo, 500000
1, 0, Marker_t, "Babylon Sister  -  Steely Dan"
1, 6720, Marker_t, "Seq by Stein Rimehaug  Waystein@aol.com"
1, 6720, End_track
2, 0, Start_track
2, 0, MIDI_port, 0
2, 0, Title_t, "Rhodes"
2, 0, Control_c, 0, 0, 56
2, 0, Control_c, 0, 32, 0
2, 0, Program_c, 0, 4
2, 0, Control_c, 0, 7, 127
2, 0, Control_c, 0, 10, 34
2, 240, Control_c, 0, 7, 127
2, 240, Control_c, 0, 10, 34
2, 240, Control_c, 0, 93, 75
2, 240, Control_c, 0, 91, 56
2, 488, Note_on_c, 0, 49, 104
2, 490, Note_on_c, 0, 42, 87
2, 532, Note_on_c, 0, 49, 0
2, 533, Note_on_c, 0, 42, 0
2, 686, Note_on_c, 0, 49, 110
2, 686, Note_on_c, 0, 42, 95
2, 909, Note_on_c, 0, 42, 0
2, 913, Note_on_c, 0, 49, 0
2, 955, Note_on_c, 0, 42, 91
2, 956, Note_on_c, 0, 49, 110
2, 996, Note_on_c, 0, 49, 0
2, 998, Note_on_c, 0, 42, 0
2, 1160, Note_on_c, 0, 49, 110
2, 1160, Note_on_c, 0, 42, 91
2, 1320, Note_on_c, 0, 61, 100
2, 1326, Note_on_c, 0, 63, 104
2, 1334, Note_on_c, 0, 61, 0
2, 1355, Note_on_c, 0, 49, 0
2, 1361, Note_on_c, 0, 42, 0
2, 1391, Note_on_c, 0, 63, 0
2, 1442, Note_on_c, 0, 47, 88
2, 1442, Note_on_c, 0, 54, 87
2, 1445, Note_on_c, 0, 66, 127
2, 1498, Note_on_c, 0, 66, 0
2, 1511, Note_on_c, 0, 47, 0
2, 1520, Note_on_c, 0, 54, 0
2, 1559, Note_on_c, 0, 63, 127
2, 1636, Note_on_c, 0, 47, 88
2, 1637, Note_on_c, 0, 54, 83
2, 1639, Note_on_c, 0, 63, 0
2, 1685, Note_on_c, 0, 61, 110
2, 1749, Note_on_c, 0, 61, 0
2, 1809, Note_on_c, 0, 63, 127
2, 1870, Note_on_c, 0, 47, 0
2, 1876, Note_on_c, 0, 54, 0
2, 1883, Note_on_c, 0, 63, 0
2, 1928, Note_on_c, 0, 51, 104
2, 1931, Note_on_c, 0, 44, 71
2, 1931, Note_on_c, 0, 60, 122
2, 1955, Note_on_c, 0, 63, 100
2, 1957, Note_on_c, 0, 44, 0
2, 1964, Note_on_c, 0, 51, 0
2, 1966, Note_on_c, 0, 60, 0
2, 1982, Note_on_c, 0, 63, 0
2, 1987, Note_on_c, 0, 60, 88
2, 2007, Note_on_c, 0, 60, 0
2, 2012, Note_on_c, 0, 58, 57
2, 2036, Note_on_c, 0, 58, 0
2, 2051, Note_on_c, 0, 60, 127
2, 2123, Note_on_c, 0, 51, 100
2, 2125, Note_on_c, 0, 44, 65
2, 2335, Note_on_c, 0, 51, 0
2, 2347, Note_on_c, 0, 44, 0
2, 2363, Note_on_c, 0, 60, 0
2, 2388, Note_on_c, 0, 47, 117
2, 2388, Note_on_c, 0, 40, 101
2, 2448, Note_on_c, 0, 47, 0
2, 2450, Note_on_c, 0, 40, 0
2, 2594, Note_on_c, 0, 47, 104
2, 2595, Note_on_c, 0, 40, 91
2, 2639, Note_on_c, 0, 56, 110
2, 2687, Note_on_c, 0, 56, 0
2, 2721, Note_on_c, 0, 59, 104
2, 2751, Note_on_c, 0, 59, 0
2, 2759, Note_on_c, 0, 63, 100
2, 2798, Note_on_c, 0, 63, 0
2, 2799, Note_on_c, 0, 40, 0
2, 2818, Note_on_c, 0, 47, 0
2, 2841, Note_on_c, 0, 59, 117
2, 2842, Note_on_c, 0, 66, 91
2, 2881, Note_on_c, 0, 44, 73
2, 2882, Note_on_c, 0, 51, 100
2, 2987, Note_on_c, 0, 66, 0
2, 2989, Note_on_c, 0, 59, 0
2, 2995, Note_on_c, 0, 44, 0
2, 2995, Note_on_c, 0, 51, 0
2, 2997, Note_on_c, 0, 56, 95
2, 2997, Note_on_c, 0, 63, 80
2, 3034, Note_on_c, 0, 63, 0
2, 3045, Note_on_c, 0, 56, 0
2, 3073, Note_on_c, 0, 51, 100
2, 3076, Note_on_c, 0, 44, 68
2, 3118, Note_on_c, 0, 59, 122
2, 3119, Note_on_c, 0, 66, 80
2, 3232, Note_on_c, 0, 66, 0
2, 3239, Note_on_c, 0, 56, 91
2, 3240, Note_on_c, 0, 63, 83
2, 3247, Note_on_c, 0, 59, 0
2, 3261, Note_on_c, 0, 51, 0
2, 3268, Note_on_c, 0, 44, 0
2, 3272, Note_on_c, 0, 63, 0
2, 3278, Note_on_c, 0, 56, 0
2, 3349, Note_on_c, 0, 66, 110
2, 3351, Note_on_c, 0, 58, 95
2, 3351, Note_on_c, 0, 46, 95
2, 3352, Note_on_c, 0, 65, 117
2, 3352, Note_on_c, 0, 39, 80
2, 3381, Note_on_c, 0, 65, 0
2, 3381, Note_on_c, 0, 66, 0
2, 3386, Note_on_c, 0, 58, 0
2, 3454, Note_on_c, 0, 39, 0
2, 3455, Note_on_c, 0, 46, 0
2, 3469, Note_on_c, 0, 63, 100
2, 3470, Note_on_c, 0, 56, 91
2, 3476, Note_on_c, 0, 61, 59
2, 3478, Note_on_c, 0, 58, 30
2, 3552, Note_on_c, 0, 46, 100
2, 3553, Note_on_c, 0, 39, 83
2, 3599, Note_on_c, 0, 61, 0
2, 3646, Note_on_c, 0, 58, 0
2, 3658, Note_on_c, 0, 63, 0
2, 3663, Note_on_c, 0, 56, 0
2, 3714, Note_on_c, 0, 65, 127
2, 3716, Note_on_c, 0, 58, 95
2, 3716, Note_on_c, 0, 66, 110
2, 3734, Note_on_c, 0, 66, 0
2, 3743, Note_on_c, 0, 65, 0
2, 3743, Note_on_c, 0, 58, 0
2, 3744, Note_on_c, 0, 46, 0
2, 3745, Note_on_c, 0, 39, 0
2, 3836, Note_on_c, 0, 58, 95
2, 3836, Note_on_c, 0, 56, 95
2, 3837, Note_on_c, 0, 46, 104
2, 3838, Note_on_c, 0, 63, 104
2, 3839, Note_on_c, 0, 39, 95
2, 3845, Note_on_c, 0, 61, 34
2, 3860, Note_on_c, 0, 46, 0
2, 3863, Note_on_c, 0, 39, 0
2, 4038, Note_on_c, 0, 46, 100
2, 4038, Note_on_c, 0, 39, 91
2, 4240, Note_on_c, 0, 39, 0
2, 4241, Note_on_c, 0, 61, 0
2, 4242, Note_on_c, 0, 46, 0
2, 4249, Note_on_c, 0, 58, 0
2, 4254, Note_on_c, 0, 63, 0
2, 4254, Note_on_c, 0, 56, 0
2, 4320, Note_on_c, 0, 49, 104
2, 4320, Note_on_c, 0, 42, 87
2, 4367, Note_on_c, 0, 49, 0
2, 4373, Note_on_c, 0, 42, 0
2, 4528, Note_on_c, 0, 42, 95
2, 4529, Note_on_c, 0, 49, 104
2, 4642, Note_on_c, 0, 66, 110
2, 4674, Note_on_c, 0, 63, 71
2, 4678, Note_on_c, 0, 66, 0
2, 4702, Note_on_c, 0, 42, 0
2, 4717, Note_on_c, 0, 49, 0
2, 4747, Note_on_c, 0, 63, 0
2, 4798, Note_on_c, 0, 54, 80
2, 4801, Note_on_c, 0, 47, 88
2, 4801, Note_on_c, 0, 61, 110
2, 4851, Note_on_c, 0, 61, 0
2, 4902, Note_on_c, 0, 47, 0
2, 4914, Note_on_c, 0, 54, 0
2, 4917, Note_on_c, 0, 63, 110
2, 4990, Note_on_c, 0, 63, 0
2, 4996, Note_on_c, 0, 47, 88
2, 4996, Note_on_c, 0, 54, 87
2, 5041, Note_on_c, 0, 61, 110
2, 5106, Note_on_c, 0, 61, 0
2, 5165, Note_on_c, 0, 63, 110
2, 5196, Note_on_c, 0, 47, 0
2, 5231, Note_on_c, 0, 63, 0
2, 5231, Note_on_c, 0, 54, 0
2, 5285, Note_on_c, 0, 51, 100
2, 5286, Note_on_c, 0, 60, 122
2, 5287, Note_on_c, 0, 44, 71
2, 5313, Note_on_c, 0, 63, 83
2, 5322, Note_on_c, 0, 60, 0
2, 5326, Note_on_c, 0, 51, 0
2, 5331, Note_on_c, 0, 44, 0
2, 5335, Note_on_c, 0, 63, 0
2, 5338, Note_on_c, 0, 60, 64
2, 5355, Note_on_c, 0, 60, 0
2, 5355, Note_on_c, 0, 58, 65
2, 5379, Note_on_c, 0, 58, 0
2, 5395, Note_on_c, 0, 60, 122
2, 5481, Note_on_c, 0, 51, 100
2, 5482, Note_on_c, 0, 44, 71
2, 5700, Note_on_c, 0, 44, 0
2, 5700, Note_on_c, 0, 51, 0
2, 5724, Note_on_c, 0, 60, 0
2, 5759, Note_on_c, 0, 63, 104
2, 5760, Note_on_c, 0, 54, 83
2, 5761, Note_on_c, 0, 47, 79
2, 5782, Note_on_c, 0, 66, 80
2, 5786, Note_on_c, 0, 63, 0
2, 5809, Note_on_c, 0, 66, 0
2, 5816, Note_on_c, 0, 63, 65
2, 5831, Note_on_c, 0, 63, 0
2, 5837, Note_on_c, 0, 47, 0
2, 5838, Note_on_c, 0, 61, 71
2, 5845, Note_on_c, 0, 54, 0
2, 5856, Note_on_c, 0, 61, 0
2, 5878, Note_on_c, 0, 63, 127
2, 5962, Note_on_c, 0, 47, 97
2, 5962, Note_on_c, 0, 54, 87
2, 6139, Note_on_c, 0, 63, 0
2, 6203, Note_on_c, 0, 54, 0
2, 6210, Note_on_c, 0, 47, 0
2, 6243, Note_on_c, 0, 47, 104
2, 6244, Note_on_c, 0, 71, 122
2, 6245, Note_on_c, 0, 76, 122
2, 6246, Note_on_c, 0, 40, 101
2, 6247, Note_on_c, 0, 80, 110
2, 6305, Note_on_c, 0, 76, 0
2, 6306, Note_on_c, 0, 71, 0
2, 6310, Note_on_c, 0, 80, 0
2, 6325, Note_on_c, 0, 82, 127
2, 6325, Note_on_c, 0, 78, 104
2, 6326, Note_on_c, 0, 73, 95
2, 6327, Note_on_c, 0, 47, 0
2, 6335, Note_on_c, 0, 78, 0
2, 6335, Note_on_c, 0, 40, 0
2, 6338, Note_on_c, 0, 73, 0
2, 6345, Note_on_c, 0, 82, 0
2, 6448, Note_on_c, 0, 47, 91
2, 6450, Note_on_c, 0, 40, 91
2, 6673, Note_on_c, 0, 40, 0
2, 6677, Note_on_c, 0, 47, 0
2, 6720, Note_on_c, 0, 47, 104
2, 6720, Note_on_c, 0, 40, 104
2, 6761, Note_on_c, 0, 47, 0
2, 6768, Note_on_c, 0, 40, 0
2, 6928, Note_on_c, 0, 45, 101
2, 6929, Note_on_c, 0, 61, 100
2, 6930, Note_on_c, 0, 55, 108
2, 6931, Note_on_c, 0, 63, 95
2, 7101, Note_on_c, 0, 63, 0
2, 7161, Note_on_c, 0, 55, 0
2, 7168, Note_on_c, 0, 61, 0
2, 7169, Note_on_c, 0, 45, 0
2, 7189, Note_on_c, 0, 66, 100
2, 7194, Note_on_c, 0, 58, 91
2, 7194, Note_on_c, 0, 65, 113
2, 7195, Note_on_c, 0, 46, 95
2, 7195, Note_on_c, 0, 39, 68
2, 7214, Note_on_c, 0, 65, 0
2, 7218, Note_on_c, 0, 66, 0
2, 7218, Note_on_c, 0, 58, 0
2, 7220, Note_on_c, 0, 39, 0
2, 7225, Note_on_c, 0, 46, 0
2, 7322, Note_on_c, 0, 56, 83
2, 7323, Note_on_c, 0, 58, 87
2, 7323, Note_on_c, 0, 63, 95
2, 7328, Note_on_c, 0, 61, 30
2, 7400, Note_on_c, 0, 46, 100
2, 7401, Note_on_c, 0, 39, 87
2, 7473, Note_on_c, 0, 61, 0
2, 7482, Note_on_c, 0, 58, 0
2, 7507, Note_on_c, 0, 56, 0
2, 7510, Note_on_c, 0, 63, 0
2, 7559, Note_on_c, 0, 66, 95
2, 7560, Note_on_c, 0, 58, 100
2, 7562, Note_on_c, 0, 65, 97
2, 7570, Note_on_c, 0, 65, 0
2, 7581, Note_on_c, 0, 39, 0
2, 7583, Note_on_c, 0, 58, 0
2, 7584, Note_on_c, 0, 66, 0
2, 7585, Note_on_c, 0, 46, 0
2, 7672, Note_on_c, 0, 58, 91
2, 7672, Note_on_c, 0, 56, 91
2, 7674, Note_on_c, 0, 63, 95
2, 7674, Note_on_c, 0, 46, 87
2, 7675, Note_on_c, 0, 39, 87
2, 7699, Note_on_c, 0, 46, 0
2, 7705, Note_on_c, 0, 39, 0
2, 7877, Note_on_c, 0, 46, 100
2, 7877, Note_on_c, 0, 39, 87
2, 8015, Note_on_c, 0, 56, 0
2, 8026, Note_on_c, 0, 58, 0
2, 8033, Note_on_c, 0, 63, 0
2, 8139, Note_on_c, 0, 46, 0
2, 8144, Note_on_c, 0, 39, 0
2, 8164, Note_on_c, 0, 47, 108
2, 8165, Note_on_c, 0, 71, 122
2, 8165, Note_on_c, 0, 76, 127
2, 8166, Note_on_c, 0, 80, 110
2, 8167, Note_on_c, 0, 40, 108
2, 8224, Note_on_c, 0, 76, 0
2, 8225, Note_on_c, 0, 71, 0
2, 8230, Note_on_c, 0, 80, 0
2, 8244, Note_on_c, 0, 78, 104
2, 8244, Note_on_c, 0, 82, 110
2, 8244, Note_on_c, 0, 73, 91
2, 8250, Note_on_c, 0, 40, 0
2, 8254, Note_on_c, 0, 47, 0
2, 8254, Note_on_c, 0, 78, 0
2, 8256, Note_on_c, 0, 82, 0
2, 8256, Note_on_c, 0, 73, 0
2, 8368, Note_on_c, 0, 47, 94
2, 8368, Note_on_c, 0, 40, 91
2, 8594, Note_on_c, 0, 40, 0
2, 8596, Note_on_c, 0, 47, 0
2, 8649, Note_on_c, 0, 40, 101
2, 8651, Note_on_c, 0, 47, 117
2, 8700, Note_on_c, 0, 47, 0
2, 8702, Note_on_c, 0, 40, 0
2, 8853, Note_on_c, 0, 61, 104
2, 8854, Note_on_c, 0, 63, 104
2, 8854, Note_on_c, 0, 55, 113
2, 8856, Note_on_c, 0, 45, 104
2, 9079, Note_on_c, 0, 63, 0
2, 9085, Note_on_c, 0, 55, 0
2, 9093, Note_on_c, 0, 45, 0
2, 9097, Note_on_c, 0, 61, 0
2, 9123, Note_on_c, 0, 46, 87
2, 9124, Note_on_c, 0, 66, 91
2, 9125, Note_on_c, 0, 65, 122
2, 9126, Note_on_c, 0, 58, 95
2, 9127, Note_on_c, 0, 39, 68
2, 9149, Note_on_c, 0, 66, 0
2, 9154, Note_on_c, 0, 65, 0
2, 9159, Note_on_c, 0, 39, 0
2, 9159, Note_on_c, 0, 58, 0
2, 9167, Note_on_c, 0, 46, 0
2, 9240, Note_on_c, 0, 56, 87
2, 9241, Note_on_c, 0, 58, 87
2, 9241, Note_on_c, 0, 63, 91
2, 9249, Note_on_c, 0, 61, 29
2, 9324, Note_on_c, 0, 46, 100
2, 9326, Note_on_c, 0, 39, 87
2, 9394, Note_on_c, 0, 61, 0
2, 9408, Note_on_c, 0, 58, 0
2, 9416, Note_on_c, 0, 56, 0
2, 9424, Note_on_c, 0, 63, 0
2, 9481, Note_on_c, 0, 66, 95
2, 9482, Note_on_c, 0, 65, 117
2, 9482, Note_on_c, 0, 58, 104
2, 9505, Note_on_c, 0, 65, 0
2, 9506, Note_on_c, 0, 66, 0
2, 9510, Note_on_c, 0, 58, 0
2, 9520, Note_on_c, 0, 39, 0
2, 9521, Note_on_c, 0, 46, 0
2, 9599, Note_on_c, 0, 46, 95
2, 9600, Note_on_c, 0, 63, 110
2, 9601, Note_on_c, 0, 56, 100
2, 9602, Note_on_c, 0, 58, 95
2, 9603, Note_on_c, 0, 39, 73
2, 9644, Note_on_c, 0, 61, 1
2, 9722, Note_on_c, 0, 61, 0
2, 9737, Note_on_c, 0, 39, 0
2, 9743, Note_on_c, 0, 46, 0
2, 9796, Note_on_c, 0, 46, 100
2, 9797, Note_on_c, 0, 39, 80
2, 9801, Note_on_c, 0, 58, 0
2, 9812, Note_on_c, 0, 63, 0
2, 9815, Note_on_c, 0, 56, 0
2, 9861, Note_on_c, 0, 63, 127
2, 9942, Note_on_c, 0, 58, 71
2, 10009, Note_on_c, 0, 51, 87
2, 10012, Note_on_c, 0, 58, 0
2, 10054, Note_on_c, 0, 63, 0
2, 10069, Note_on_c, 0, 51, 0
2, 10090, Note_on_c, 0, 61, 91
2, 10092, Note_on_c, 0, 65, 113
2, 10092, Note_on_c, 0, 56, 87
2, 10095, Note_on_c, 0, 46, 0
2, 10098, Note_on_c, 0, 39, 0
2, 10745, Control_c, 0, 7, 126
2, 10773, Control_c, 0, 7, 123
2, 10775, Control_c, 0, 7, 122
2, 10840, Control_c, 0, 7, 119
2, 10847, Control_c, 0, 7, 118
2, 10889, Control_c, 0, 7, 115
2, 10894, Control_c, 0, 7, 114
2, 11103, Note_on_c, 0, 61, 0
2, 11106, Note_on_c, 0, 56, 0
2, 11111, Note_on_c, 0, 65, 0
2, 11520, Note_on_c, 0, 63, 100
2, 11522, Note_on_c, 0, 67, 101
2, 11522, Note_on_c, 0, 58, 95
2, 11983, Note_on_c, 0, 58, 0
2, 11988, Note_on_c, 0, 63, 0
2, 11991, Note_on_c, 0, 67, 0
2, 12013, Note_on_c, 0, 61, 91
2, 12014, Note_on_c, 0, 55, 91
2, 12015, Note_on_c, 0, 60, 97
2, 12015, Note_on_c, 0, 65, 108
2, 12550, Note_on_c, 0, 65, 0
2, 12720, Note_on_c, 0, 61, 0
2, 12760, Note_on_c, 0, 55, 0
2, 12866, Note_on_c, 0, 60, 0
2, 12957, Note_on_c, 0, 60, 91
2, 12958, Note_on_c, 0, 63, 95
2, 12958, Note_on_c, 0, 58, 95
2, 12959, Note_on_c, 0, 68, 91
2, 13395, Note_on_c, 0, 58, 0
2, 13402, Note_on_c, 0, 63, 0
2, 13404, Note_on_c, 0, 60, 0
2, 13409, Note_on_c, 0, 68, 0
2, 13447, Note_on_c, 0, 58, 91
2, 13447, Note_on_c, 0, 60, 97
2, 13447, Note_on_c, 0, 54, 80
2, 13451, Note_on_c, 0, 65, 117
2, 13882, Note_on_c, 0, 58, 0
2, 13885, Note_on_c, 0, 54, 0
2, 13892, Note_on_c, 0, 60, 0
2, 13907, Note_on_c, 0, 65, 0
2, 13928, Note_on_c, 0, 56, 87
2, 13929, Note_on_c, 0, 58, 76
2, 13931, Note_on_c, 0, 54, 61
2, 13932, Note_on_c, 0, 63, 100
2, 14187, Note_on_c, 0, 54, 0
2, 14354, Note_on_c, 0, 58, 0
2, 14364, Note_on_c, 0, 56, 0
2, 14374, Note_on_c, 0, 63, 0
2, 14405, Note_on_c, 0, 63, 87
2, 14406, Note_on_c, 0, 56, 87
2, 14406, Note_on_c, 0, 65, 101
2, 14407, Note_on_c, 0, 61, 80
2, 14880, Control_c, 0, 7, 102
2, 15309, Note_on_c, 0, 63, 0
2, 15312, Note_on_c, 0, 56, 0
2, 15314, Note_on_c, 0, 61, 0
2, 15323, Note_on_c, 0, 65, 0
2, 15355, Note_on_c, 0, 67, 108
2, 15361, Note_on_c, 0, 58, 104
2, 15361, Note_on_c, 0, 63, 87
2, 15798, Note_on_c, 0, 63, 0
2, 15804, Note_on_c, 0, 67, 0
2, 15815, Note_on_c, 0, 58, 0
2, 15842, Note_on_c, 0, 67, 113
2, 15843, Note_on_c, 0, 65, 122
2, 15844, Note_on_c, 0, 60, 104
2, 16309, Note_on_c, 0, 65, 0
2, 16312, Note_on_c, 0, 60, 0
2, 16319, Note_on_c, 0, 67, 0
2, 16336, Note_on_c, 0, 61, 95
2, 16337, Note_on_c, 0, 56, 73
2, 16340, Note_on_c, 0, 65, 108
2, 17042, Note_on_c, 0, 73, 76
2, 17042, Note_on_c, 0, 68, 80
2, 17043, Note_on_c, 0, 77, 86
2, 17197, Note_on_c, 0, 65, 0
2, 17206, Note_on_c, 0, 56, 0
2, 17208, Note_on_c, 0, 61, 0
2, 17274, Note_on_c, 0, 58, 87
2, 17274, Note_on_c, 0, 63, 110
2, 17276, Note_on_c, 0, 67, 67
2, 17278, Note_on_c, 0, 68, 0
2, 17280, Note_on_c, 0, 73, 0
2, 17287, Note_on_c, 0, 77, 0
2, 18227, Note_on_c, 0, 63, 0
2, 18231, Note_on_c, 0, 58, 0
2, 18251, Note_on_c, 0, 67, 0
2, 18258, Note_on_c, 0, 57, 101
2, 18258, Note_on_c, 0, 62, 101
2, 18259, Note_on_c, 0, 65, 108
2, 18260, Note_on_c, 0, 60, 79
2, 18656, Note_on_c, 0, 57, 0
2, 18673, Note_on_c, 0, 60, 0
2, 18675, Note_on_c, 0, 62, 0
2, 18687, Note_on_c, 0, 65, 0
2, 18712, Note_on_c, 0, 62, 97
2, 18712, Note_on_c, 0, 60, 97
2, 18714, Note_on_c, 0, 56, 80
2, 19185, Note_on_c, 0, 60, 0
2, 19191, Note_on_c, 0, 62, 0
2, 19193, Note_on_c, 0, 56, 0
2, 19219, Note_on_c, 0, 62, 88
2, 19221, Note_on_c, 0, 55, 91
2, 19223, Note_on_c, 0, 58, 63
2, 19224, Note_on_c, 0, 65, 122
2, 19480, Note_on_c, 0, 58, 0
2, 19630, Note_on_c, 0, 55, 0
2, 19639, Note_on_c, 0, 62, 0
2, 19642, Note_on_c, 0, 65, 0
2, 19673, Note_on_c, 0, 60, 117
2, 19673, Note_on_c, 0, 61, 100
2, 19674, Note_on_c, 0, 65, 117
2, 19674, Note_on_c, 0, 55, 101
2, 20129, Note_on_c, 0, 55, 0
2, 20133, Note_on_c, 0, 61, 0
2, 20137, Note_on_c, 0, 60, 0
2, 20141, Note_on_c, 0, 65, 0
2, 20160, Note_on_c, 0, 60, 108
2, 20160, Note_on_c, 0, 55, 94
2, 20161, Note_on_c, 0, 65, 91
2, 20208, Note_on_c, 0, 65, 0
2, 20210, Note_on_c, 0, 60, 0
2, 20211, Note_on_c, 0, 55, 0
2, 20407, Note_on_c, 0, 55, 97
2, 20420, Note_on_c, 0, 56, 104
2, 20429, Note_on_c, 0, 55, 0
2, 20430, Note_on_c, 0, 57, 127
2, 20431, Note_on_c, 0, 56, 0
2, 20490, Note_on_c, 0, 60, 83
2, 20491, Note_on_c, 0, 57, 0
2, 20522, Note_on_c, 0, 60, 0
2, 20530, Note_on_c, 0, 62, 113
2, 20568, Note_on_c, 0, 62, 0
2, 20657, Note_on_c, 0, 60, 113
2, 20659, Note_on_c, 0, 57, 104
2, 20659, Note_on_c, 0, 65, 101
2, 20688, Note_on_c, 0, 60, 0
2, 20690, Note_on_c, 0, 57, 0
2, 20694, Note_on_c, 0, 65, 0
2, 20777, Note_on_c, 0, 60, 113
2, 20777, Note_on_c, 0, 55, 108
2, 20779, Note_on_c, 0, 65, 97
2, 21072, Note_on_c, 0, 55, 0
2, 21072, Note_on_c, 0, 60, 0
2, 21079, Note_on_c, 0, 65, 0
2, 21117, Note_on_c, 0, 46, 95
2, 21118, Note_on_c, 0, 39, 87
2, 21121, Note_on_c, 0, 70, 110
2, 21122, Note_on_c, 0, 79, 127
2, 21122, Note_on_c, 0, 75, 127
2, 21188, Note_on_c, 0, 75, 0
2, 21191, Note_on_c, 0, 70, 0
2, 21194, Note_on_c, 0, 79, 0
2, 21204, Note_on_c, 0, 77, 117
2, 21205, Note_on_c, 0, 72, 101
2, 21206, Note_on_c, 0, 81, 127
2, 21219, Note_on_c, 0, 39, 0
2, 21219, Note_on_c, 0, 46, 0
2, 21226, Note_on_c, 0, 72, 0
2, 21226, Note_on_c, 0, 77, 0
2, 21231, Note_on_c, 0, 81, 0
2, 21327, Note_on_c, 0, 46, 100
2, 21327, Note_on_c, 0, 39, 83
2, 21537, Note_on_c, 0, 39, 0
2, 21538, Note_on_c, 0, 46, 0
2, 21599, Note_on_c, 0, 46, 104
2, 21600, Note_on_c, 0, 39, 91
2, 21646, Note_on_c, 0, 46, 0
2, 21647, Note_on_c, 0, 39, 0
2, 21795, Note_on_c, 0, 46, 104
2, 21796, Note_on_c, 0, 74, 117
2, 21796, Note_on_c, 0, 39, 100
2, 21831, Note_on_c, 0, 74, 0
2, 21842, Note_on_c, 0, 67, 127
2, 21864, Note_on_c, 0, 67, 0
2, 21872, Note_on_c, 0, 68, 87
2, 21893, Note_on_c, 0, 68, 0
2, 21899, Note_on_c, 0, 67, 66
2, 21922, Note_on_c, 0, 67, 0
2, 21924, Note_on_c, 0, 65, 94
2, 21948, Note_on_c, 0, 65, 0
2, 21960, Note_on_c, 0, 62, 122
2, 22036, Note_on_c, 0, 39, 0
2, 22036, Note_on_c, 0, 46, 0
2, 22038, Note_on_c, 0, 62, 0
2, 22044, Note_on_c, 0, 60, 77
2, 22064, Note_on_c, 0, 45, 88
2, 22065, Note_on_c, 0, 38, 101
2, 22074, Note_on_c, 0, 60, 0
2, 22075, Note_on_c, 0, 62, 113
2, 22161, Note_on_c, 0, 45, 0
2, 22168, Note_on_c, 0, 38, 0
2, 22276, Note_on_c, 0, 62, 0
2, 22282, Note_on_c, 0, 38, 88
2, 22284, Note_on_c, 0, 45, 117
2, 22319, Note_on_c, 0, 55, 117
2, 22327, Note_on_c, 0, 56, 104
2, 22334, Note_on_c, 0, 56, 0
2, 22334, Note_on_c, 0, 57, 122
2, 22342, Note_on_c, 0, 55, 0
2, 22393, Note_on_c, 0, 57, 0
2, 22396, Note_on_c, 0, 60, 79
2, 22433, Note_on_c, 0, 60, 0
2, 22440, Note_on_c, 0, 62, 101
2, 22477, Note_on_c, 0, 62, 0
2, 22479, Note_on_c, 0, 45, 0
2, 22487, Note_on_c, 0, 38, 0
2, 22561, Note_on_c, 0, 60, 108
2, 22562, Note_on_c, 0, 57, 94
2, 22563, Note_on_c, 0, 38, 94
2, 22564, Note_on_c, 0, 45, 104
2, 22565, Note_on_c, 0, 65, 97
2, 22586, Note_on_c, 0, 57, 0
2, 22587, Note_on_c, 0, 60, 0
2, 22589, Note_on_c, 0, 45, 0
2, 22589, Note_on_c, 0, 65, 0
2, 22596, Note_on_c, 0, 38, 0
2, 22682, Note_on_c, 0, 55, 101
2, 22683, Note_on_c, 0, 60, 117
2, 22683, Note_on_c, 0, 65, 97
2, 22685, Note_on_c, 0, 45, 94
2, 22685, Note_on_c, 0, 38, 88
2, 22981, Note_on_c, 0, 55, 0
2, 22983, Note_on_c, 0, 60, 0
2, 22989, Note_on_c, 0, 38, 0
2, 22996, Note_on_c, 0, 65, 0
2, 23011, Note_on_c, 0, 45, 0
2, 23040, Note_on_c, 0, 39, 76
2, 23040, Note_on_c, 0, 46, 104
2, 23044, Note_on_c, 0, 70, 110
2, 23045, Note_on_c, 0, 79, 127
2, 23047, Note_on_c, 0, 75, 127
2, 23108, Note_on_c, 0, 75, 0
2, 23111, Note_on_c, 0, 70, 0
2, 23113, Note_on_c, 0, 79, 0
2, 23124, Note_on_c, 0, 72, 97
2, 23125, Note_on_c, 0, 77, 113
2, 23126, Note_on_c, 0, 81, 117
2, 23141, Note_on_c, 0, 39, 0
2, 23142, Note_on_c, 0, 46, 0
2, 23148, Note_on_c, 0, 77, 0
2, 23148, Note_on_c, 0, 72, 0
2, 23148, Note_on_c, 0, 81, 0
2, 23244, Note_on_c, 0, 39, 76
2, 23244, Note_on_c, 0, 46, 95
2, 23456, Note_on_c, 0, 39, 0
2, 23462, Note_on_c, 0, 46, 0
2, 23511, Note_on_c, 0, 46, 87
2, 23512, Note_on_c, 0, 39, 80
2, 23561, Note_on_c, 0, 46, 0
2, 23562, Note_on_c, 0, 39, 0
2, 23709, Note_on_c, 0, 46, 100
2, 23710, Note_on_c, 0, 39, 83
2, 23762, Note_on_c, 0, 67, 104
2, 23763, Note_on_c, 0, 62, 117
2, 23843, Note_on_c, 0, 65, 108
2, 23845, Note_on_c, 0, 60, 104
2, 23851, Note_on_c, 0, 39, 0
2, 23856, Note_on_c, 0, 62, 0
2, 23856, Note_on_c, 0, 46, 0
2, 23896, Note_on_c, 0, 67, 0
2, 23928, Note_on_c, 0, 62, 104
2, 23936, Note_on_c, 0, 60, 0
2, 23942, Note_on_c, 0, 65, 0
2, 24010, Note_on_c, 0, 57, 91
2, 24011, Note_on_c, 0, 50, 91
2, 24012, Note_on_c, 0, 52, 91
2, 24017, Note_on_c, 0, 58, 55
2, 24030, Note_on_c, 0, 50, 0
2, 24318, Note_on_c, 0, 62, 0
2, 24468, Note_on_c, 0, 52, 0
2, 24469, Note_on_c, 0, 57, 0
2, 24470, Note_on_c, 0, 58, 0
2, 24489, Note_on_c, 0, 63, 83
2, 24490, Note_on_c, 0, 62, 97
2, 24490, Note_on_c, 0, 67, 101
2, 24492, Note_on_c, 0, 57, 91
2, 24935, Note_on_c, 0, 63, 0
2, 24936, Note_on_c, 0, 67, 0
2, 24942, Note_on_c, 0, 62, 0
2, 24972, Note_on_c, 0, 57, 0
2, 24975, Note_on_c, 0, 60, 91
2, 24976, Note_on_c, 0, 65, 88
2, 24978, Note_on_c, 0, 69, 83
2, 25442, Note_on_c, 0, 56, 50
2, 25450, Note_on_c, 0, 65, 0
2, 25450, Note_on_c, 0, 60, 0
2, 25457, Note_on_c, 0, 56, 0
2, 25460, Note_on_c, 0, 69, 0
2, 25560, Note_on_c, 0, 56, 80
2, 25561, Note_on_c, 0, 61, 91
2, 25561, Note_on_c, 0, 65, 122
2, 25589, Note_on_c, 0, 65, 0
2, 25590, Note_on_c, 0, 61, 0
2, 25592, Note_on_c, 0, 56, 0
2, 25683, Note_on_c, 0, 55, 88
2, 25685, Note_on_c, 0, 61, 91
2, 25685, Note_on_c, 0, 65, 113
2, 25877, Note_on_c, 0, 55, 0
2, 25884, Note_on_c, 0, 61, 0
2, 25892, Note_on_c, 0, 65, 0
2, 25921, Note_on_c, 0, 55, 94
2, 25922, Note_on_c, 0, 60, 108
2, 25926, Note_on_c, 0, 65, 127
2, 25947, Note_on_c, 0, 65, 0
2, 25947, Note_on_c, 0, 60, 0
2, 25950, Note_on_c, 0, 55, 0
2, 26043, Note_on_c, 0, 65, 113
2, 26044, Note_on_c, 0, 55, 91
2, 26045, Note_on_c, 0, 60, 113
2, 26330, Note_on_c, 0, 55, 0
2, 26365, Note_on_c, 0, 60, 0
2, 26387, Note_on_c, 0, 65, 0
2, 26409, Note_on_c, 0, 58, 100
2, 26410, Note_on_c, 0, 52, 97
2, 26410, Note_on_c, 0, 57, 108
2, 26411, Note_on_c, 0, 62, 104
2, 26428, Note_on_c, 0, 58, 0
2, 26431, Note_on_c, 0, 57, 0
2, 26437, Note_on_c, 0, 52, 0
2, 26437, Note_on_c, 0, 62, 0
2, 26528, Note_on_c, 0, 52, 88
2, 26528, Note_on_c, 0, 58, 95
2, 26529, Note_on_c, 0, 62, 101
2, 26531, Note_on_c, 0, 57, 94
2, 26797, Note_on_c, 0, 62, 0
2, 26809, Note_on_c, 0, 58, 0
2, 26811, Note_on_c, 0, 57, 0
2, 26826, Note_on_c, 0, 52, 0
2, 26879, Note_on_c, 0, 39, 83
2, 26880, Note_on_c, 0, 46, 95
2, 26880, Note_on_c, 0, 75, 110
2, 26881, Note_on_c, 0, 70, 104
2, 26881, Note_on_c, 0, 79, 122
2, 26899, Note_on_c, 0, 46, 0
2, 26919, Note_on_c, 0, 46, 26
2, 26942, Note_on_c, 0, 75, 0
2, 26943, Note_on_c, 0, 70, 0
2, 26950, Note_on_c, 0, 79, 0
2, 26961, Note_on_c, 0, 72, 104
2, 26961, Note_on_c, 0, 77, 113
2, 26962, Note_on_c, 0, 46, 0
2, 26964, Note_on_c, 0, 81, 104
2, 26965, Note_on_c, 0, 39, 0
2, 26984, Note_on_c, 0, 77, 0
2, 26987, Note_on_c, 0, 72, 0
2, 26989, Note_on_c, 0, 81, 0
2, 27087, Note_on_c, 0, 46, 95
2, 27088, Note_on_c, 0, 39, 73
2, 27278, Note_on_c, 0, 39, 0
2, 27290, Note_on_c, 0, 46, 0
2, 27358, Note_on_c, 0, 46, 100
2, 27359, Note_on_c, 0, 39, 83
2, 27395, Note_on_c, 0, 39, 0
2, 27397, Note_on_c, 0, 46, 0
2, 27481, Note_on_c, 0, 55, 97
2, 27482, Note_on_c, 0, 60, 108
2, 27543, Note_on_c, 0, 60, 0
2, 27543, Note_on_c, 0, 55, 0
2, 27555, Note_on_c, 0, 62, 113
2, 27561, Note_on_c, 0, 57, 91
2, 27588, Note_on_c, 0, 62, 0
2, 27603, Note_on_c, 0, 57, 0
2, 27611, Note_on_c, 0, 65, 122
2, 27612, Note_on_c, 0, 60, 104
2, 27660, Note_on_c, 0, 60, 0
2, 27666, Note_on_c, 0, 65, 0
2, 27684, Note_on_c, 0, 67, 108
2, 27691, Note_on_c, 0, 62, 91
2, 27721, Note_on_c, 0, 67, 0
2, 27728, Note_on_c, 0, 62, 0
2, 27731, Note_on_c, 0, 65, 127
2, 27734, Note_on_c, 0, 60, 97
2, 27782, Note_on_c, 0, 65, 0
2, 27843, Note_on_c, 0, 60, 0
2, 27852, Note_on_c, 0, 71, 127
2, 27852, Note_on_c, 0, 75, 110
2, 27852, Note_on_c, 0, 66, 100
2, 27872, Note_on_c, 0, 66, 0
2, 27874, Note_on_c, 0, 71, 0
2, 27879, Note_on_c, 0, 75, 0
2, 27967, Note_on_c, 0, 66, 95
2, 27967, Note_on_c, 0, 70, 104
2, 27968, Note_on_c, 0, 73, 110
2, 28248, Note_on_c, 0, 70, 0
2, 28252, Note_on_c, 0, 66, 0
2, 28274, Note_on_c, 0, 73, 0
2, 28317, Note_on_c, 0, 77, 104
2, 28318, Note_on_c, 0, 68, 100
2, 28319, Note_on_c, 0, 73, 95
2, 28328, Note_on_c, 0, 73, 0
2, 28347, Note_on_c, 0, 68, 0
2, 28353, Note_on_c, 0, 77, 0
2, 28443, Note_on_c, 0, 75, 95
2, 28443, Note_on_c, 0, 72, 117
2, 28444, Note_on_c, 0, 68, 87
2, 28523, Note_on_c, 0, 72, 0
2, 28525, Note_on_c, 0, 75, 0
2, 28526, Note_on_c, 0, 68, 0
2, 28561, Note_on_c, 0, 65, 113
2, 28562, Note_on_c, 0, 68, 100
2, 28563, Note_on_c, 0, 74, 108
2, 28564, Note_on_c, 0, 71, 113
2, 28727, Note_on_c, 0, 74, 0
2, 28728, Note_on_c, 0, 71, 0
2, 28736, Note_on_c, 0, 68, 0
2, 28738, Note_on_c, 0, 65, 0
2, 28802, Note_on_c, 0, 68, 110
2, 28804, Note_on_c, 0, 66, 95
2, 28806, Note_on_c, 0, 61, 83
2, 28818, Note_on_c, 0, 70, 76
2, 28826, Note_on_c, 0, 68, 0
2, 29234, Note_on_c, 0, 66, 0
2, 29247, Note_on_c, 0, 61, 0
2, 29251, Note_on_c, 0, 70, 0
2, 29287, Note_on_c, 0, 65, 117
2, 29287, Note_on_c, 0, 61, 91
2, 29288, Note_on_c, 0, 68, 87
2, 29689, Note_on_c, 0, 68, 0
2, 29696, Note_on_c, 0, 65, 0
2, 29714, Note_on_c, 0, 61, 0
2, 29765, Note_on_c, 0, 66, 100
2, 29765, Note_on_c, 0, 58, 95
2, 29771, Note_on_c, 0, 63, 30
2, 29977, Note_on_c, 0, 66, 0
2, 29981, Note_on_c, 0, 63, 0
2, 29984, Note_on_c, 0, 58, 0
2, 30005, Note_on_c, 0, 68, 95
2, 30005, Note_on_c, 0, 63, 100
2, 30006, Note_on_c, 0, 57, 113
2, 30201, Note_on_c, 0, 68, 0
2, 30207, Note_on_c, 0, 57, 0
2, 30207, Note_on_c, 0, 63, 0
2, 30246, Note_on_c, 0, 66, 100
2, 30247, Note_on_c, 0, 56, 91
2, 30248, Note_on_c, 0, 61, 83
2, 30433, Note_on_c, 0, 66, 0
2, 30442, Note_on_c, 0, 61, 0
2, 30445, Note_on_c, 0, 56, 0
2, 30486, Note_on_c, 0, 61, 100
2, 30486, Note_on_c, 0, 55, 113
2, 30488, Note_on_c, 0, 66, 100
2, 30712, Note_on_c, 0, 61, 0
2, 30712, Note_on_c, 0, 46, 95
2, 30713, Note_on_c, 0, 39, 80
2, 30714, Note_on_c, 0, 55, 0
2, 30720, Note_on_c, 0, 66, 0
2, 30768, Note_on_c, 0, 39, 0
2, 30772, Note_on_c, 0, 46, 0
2, 30926, Note_on_c, 0, 46, 100
2, 30927, Note_on_c, 0, 39, 83
2, 30972, Note_on_c, 0, 58, 110
2, 31013, Note_on_c, 0, 58, 0
2, 31054, Note_on_c, 0, 61, 95
2, 31086, Note_on_c, 0, 61, 0
2, 31095, Note_on_c, 0, 63, 110
2, 31140, Note_on_c, 0, 39, 0
2, 31151, Note_on_c, 0, 46, 0
2, 31180, Note_on_c, 0, 63, 0
2, 31218, Note_on_c, 0, 58, 83
2, 31219, Note_on_c, 0, 39, 83
2, 31220, Note_on_c, 0, 46, 100
2, 31220, Note_on_c, 0, 65, 122
2, 31222, Note_on_c, 0, 66, 91
2, 31222, Note_on_c, 0, 61, 91
2, 31360, Note_on_c, 0, 39, 0
2, 31361, Note_on_c, 0, 46, 0
2, 31395, Note_on_c, 0, 61, 0
2, 31409, Note_on_c, 0, 46, 100
2, 31410, Note_on_c, 0, 39, 83
2, 31411, Note_on_c, 0, 58, 0
2, 31412, Note_on_c, 0, 65, 0
2, 31412, Note_on_c, 0, 66, 0
2, 31458, Note_on_c, 0, 60, 127
2, 31459, Note_on_c, 0, 63, 104
2, 31459, Note_on_c, 0, 58, 95
2, 31628, Note_on_c, 0, 39, 0
2, 31629, Note_on_c, 0, 60, 0
2, 31630, Note_on_c, 0, 46, 0
2, 31643, Note_on_c, 0, 58, 0
2, 31644, Note_on_c, 0, 63, 0
2, 31689, Note_on_c, 0, 46, 95
2, 31690, Note_on_c, 0, 39, 73
2, 31690, Note_on_c, 0, 61, 110
2, 31691, Note_on_c, 0, 57, 122
2, 31692, Note_on_c, 0, 63, 110
2, 31772, Note_on_c, 0, 46, 0
2, 31773, Note_on_c, 0, 39, 0
2, 31875, Note_on_c, 0, 39, 87
2, 31875, Note_on_c, 0, 46, 104
2, 31884, Note_on_c, 0, 63, 0
2, 31884, Note_on_c, 0, 61, 0
2, 31886, Note_on_c, 0, 57, 0
2, 31929, Note_on_c, 0, 63, 95
2, 31929, Note_on_c, 0, 62, 117
2, 31931, Note_on_c, 0, 58, 95
2, 32101, Note_on_c, 0, 46, 0
2, 32101, Note_on_c, 0, 39, 0
2, 32104, Note_on_c, 0, 62, 0
2, 32106, Note_on_c, 0, 63, 0
2, 32111, Note_on_c, 0, 58, 0
2, 32166, Note_on_c, 0, 61, 100
2, 32167, Note_on_c, 0, 57, 113
2, 32167, Note_on_c, 0, 39, 80
2, 32168, Note_on_c, 0, 46, 100
2, 32169, Note_on_c, 0, 63, 104
2, 32220, Note_on_c, 0, 46, 0
2, 32220, Note_on_c, 0, 39, 0
2, 32351, Note_on_c, 0, 63, 0
2, 32353, Note_on_c, 0, 61, 0
2, 32356, Note_on_c, 0, 57, 0
2, 32357, Note_on_c, 0, 39, 87
2, 32358, Note_on_c, 0, 46, 104
2, 32404, Note_on_c, 0, 56, 95
2, 32404, Note_on_c, 0, 63, 100
2, 32405, Note_on_c, 0, 58, 104
2, 32603, Note_on_c, 0, 58, 0
2, 32607, Note_on_c, 0, 56, 0
2, 32607, Note_on_c, 0, 63, 0
2, 32632, Note_on_c, 0, 46, 0
2, 32639, Note_on_c, 0, 39, 0
2, 32648, Note_on_c, 0, 56, 95
2, 32649, Note_on_c, 0, 65, 117
2, 32649, Note_on_c, 0, 61, 91
2, 33069, Note_on_c, 0, 65, 0
2, 33077, Note_on_c, 0, 65, 59
2, 33198, Note_on_c, 0, 77, 88
2, 33210, Note_on_c, 0, 73, 65
2, 33236, Note_on_c, 0, 68, 83
2, 33675, Note_on_c, 0, 73, 0
2, 33678, Note_on_c, 0, 68, 0
2, 33683, Note_on_c, 0, 77, 0
2, 33857, Note_on_c, 0, 56, 0
2, 33860, Note_on_c, 0, 61, 0
2, 33872, Note_on_c, 0, 65, 0
2, 34092, Note_on_c, 0, 63, 104
2, 34092, Note_on_c, 0, 58, 87
2, 34093, Note_on_c, 0, 67, 104
2, 34497, Note_on_c, 0, 63, 0
2, 34507, Note_on_c, 0, 67, 0
2, 34510, Note_on_c, 0, 58, 0
2, 34552, Note_on_c, 0, 55, 94
2, 34553, Note_on_c, 0, 60, 94
2, 34554, Note_on_c, 0, 61, 80
2, 34554, Note_on_c, 0, 65, 97
2, 34881, Note_on_c, 0, 77, 86
2, 34883, Note_on_c, 0, 73, 80
2, 34963, Note_on_c, 0, 72, 75
2, 34967, Note_on_c, 0, 75, 68
2, 34968, Note_on_c, 0, 77, 0
2, 34971, Note_on_c, 0, 73, 0
2, 35051, Note_on_c, 0, 73, 68
2, 35053, Note_on_c, 0, 77, 91
2, 35055, Note_on_c, 0, 75, 0
2, 35065, Note_on_c, 0, 72, 0
2, 35404, Note_on_c, 0, 73, 0
2, 35406, Note_on_c, 0, 77, 0
2, 35493, Note_on_c, 0, 61, 0
2, 35493, Note_on_c, 0, 60, 0
2, 35499, Note_on_c, 0, 55, 0
2, 35505, Note_on_c, 0, 65, 0
2, 35534, Note_on_c, 0, 60, 97
2, 35538, Note_on_c, 0, 63, 80
2, 35539, Note_on_c, 0, 58, 51
2, 35541, Note_on_c, 0, 68, 73
2, 35942, Note_on_c, 0, 58, 0
2, 35968, Note_on_c, 0, 60, 0
2, 35976, Note_on_c, 0, 63, 0
2, 35976, Note_on_c, 0, 68, 0
2, 35999, Note_on_c, 0, 58, 80
2, 36001, Note_on_c, 0, 54, 73
2, 36002, Note_on_c, 0, 60, 91
2, 36004, Note_on_c, 0, 65, 108
2, 36421, Note_on_c, 0, 60, 0
2, 36428, Note_on_c, 0, 54, 0
2, 36433, Note_on_c, 0, 58, 0
2, 36477, Note_on_c, 0, 58, 80
2, 36478, Note_on_c, 0, 54, 80
2, 36479, Note_on_c, 0, 65, 0
2, 36480, Note_on_c, 0, 63, 91
2, 36912, Note_on_c, 0, 58, 0
2, 36923, Note_on_c, 0, 54, 0
2, 36934, Note_on_c, 0, 63, 0
2, 36965, Note_on_c, 0, 56, 80
2, 36967, Note_on_c, 0, 65, 108
2, 36968, Note_on_c, 0, 61, 95
2, 37428, Note_on_c, 0, 72, 77
2, 37429, Note_on_c, 0, 71, 91
2, 37437, Note_on_c, 0, 73, 76
2, 37451, Note_on_c, 0, 80, 38
2, 37479, Note_on_c, 0, 71, 0
2, 37874, Note_on_c, 0, 56, 0
2, 37878, Note_on_c, 0, 61, 0
2, 37886, Note_on_c, 0, 65, 0
2, 37915, Note_on_c, 0, 73, 0
2, 37916, Note_on_c, 0, 63, 100
2, 37917, Note_on_c, 0, 72, 0
2, 37917, Note_on_c, 0, 58, 80
2, 37919, Note_on_c, 0, 67, 113
2, 37920, Note_on_c, 0, 80, 0
2, 38353, Note_on_c, 0, 63, 0
2, 38360, Note_on_c, 0, 58, 0
2, 38366, Note_on_c, 0, 67, 0
2, 38398, Note_on_c, 0, 67, 97
2, 38399, Note_on_c, 0, 60, 94
2, 38399, Note_on_c, 0, 65, 108
2, 38780, Note_on_c, 0, 60, 0
2, 38884, Note_on_c, 0, 65, 0
2, 38891, Note_on_c, 0, 67, 0
2, 38903, Note_on_c, 0, 56, 83
2, 38904, Note_on_c, 0, 61, 100
2, 38905, Note_on_c, 0, 65, 101
2, 39807, Note_on_c, 0, 56, 0
2, 39808, Note_on_c, 0, 61, 0
2, 39821, Note_on_c, 0, 65, 0
2, 39850, Note_on_c, 0, 63, 104
2, 39850, Note_on_c, 0, 58, 91
2, 39851, Note_on_c, 0, 67, 97
2, 40541, Note_on_c, 0, 58, 0
2, 40551, Note_on_c, 0, 63, 0
2, 40563, Note_on_c, 0, 63, 65
2, 40566, Note_on_c, 0, 58, 83
2, 40786, Note_on_c, 0, 67, 0
2, 40789, Note_on_c, 0, 58, 0
2, 40789, Note_on_c, 0, 63, 0
2, 40806, Note_on_c, 0, 62, 91
2, 40807, Note_on_c, 0, 57, 94
2, 40807, Note_on_c, 0, 60, 77
2, 40808, Note_on_c, 0, 65, 104
2, 41251, Note_on_c, 0, 57, 0
2, 41257, Note_on_c, 0, 62, 0
2, 41260, Note_on_c, 0, 60, 0
2, 41262, Note_on_c, 0, 65, 0
2, 41286, Note_on_c, 0, 62, 113
2, 41287, Note_on_c, 0, 56, 91
2, 41288, Note_on_c, 0, 60, 97
2, 41289, Note_on_c, 0, 67, 113
2, 41741, Note_on_c, 0, 56, 0
2, 41742, Note_on_c, 0, 60, 0
2, 41745, Note_on_c, 0, 62, 0
2, 41746, Note_on_c, 0, 67, 0
2, 41771, Note_on_c, 0, 55, 94
2, 41772, Note_on_c, 0, 62, 108
2, 41773, Note_on_c, 0, 67, 104
2, 41776, Note_on_c, 0, 60, 83
2, 42207, Note_on_c, 0, 62, 0
2, 42210, Note_on_c, 0, 55, 0
2, 42212, Note_on_c, 0, 67, 0
2, 42214, Note_on_c, 0, 60, 0
2, 42251, Note_on_c, 0, 65, 104
2, 42251, Note_on_c, 0, 55, 101
2, 42252, Note_on_c, 0, 60, 108
2, 42253, Note_on_c, 0, 61, 87
2, 42681, Note_on_c, 0, 61, 0
2, 42681, Note_on_c, 0, 60, 0
2, 42684, Note_on_c, 0, 55, 0
2, 42688, Note_on_c, 0, 65, 0
2, 42722, Note_on_c, 0, 55, 104
2, 42723, Note_on_c, 0, 60, 122
2, 42723, Note_on_c, 0, 65, 117
2, 42773, Note_on_c, 0, 65, 0
2, 42777, Note_on_c, 0, 60, 0
2, 42791, Note_on_c, 0, 55, 0
2, 42964, Note_on_c, 0, 55, 101
2, 42973, Note_on_c, 0, 56, 95
2, 42984, Note_on_c, 0, 56, 0
2, 42985, Note_on_c, 0, 57, 122
2, 42992, Note_on_c, 0, 55, 0
2, 43048, Note_on_c, 0, 60, 73
2, 43050, Note_on_c, 0, 57, 0
2, 43081, Note_on_c, 0, 60, 0
2, 43089, Note_on_c, 0, 62, 97
2, 43153, Note_on_c, 0, 62, 0
2, 43213, Note_on_c, 0, 60, 113
2, 43213, Note_on_c, 0, 45, 108
2, 43215, Note_on_c, 0, 57, 113
2, 43215, Note_on_c, 0, 38, 97
2, 43216, Note_on_c, 0, 65, 94
2, 43237, Note_on_c, 0, 57, 0
2, 43239, Note_on_c, 0, 60, 0
2, 43239, Note_on_c, 0, 45, 0
2, 43243, Note_on_c, 0, 38, 0
2, 43246, Note_on_c, 0, 65, 0
2, 43328, Note_on_c, 0, 60, 117
2, 43328, Note_on_c, 0, 65, 97
2, 43330, Note_on_c, 0, 55, 101
2, 43330, Note_on_c, 0, 38, 94
2, 43331, Note_on_c, 0, 45, 104
2, 43621, Note_on_c, 0, 55, 0
2, 43622, Note_on_c, 0, 60, 0
2, 43626, Note_on_c, 0, 38, 0
2, 43632, Note_on_c, 0, 65, 0
2, 43643, Note_on_c, 0, 45, 0
2, 43674, Note_on_c, 0, 46, 100
2, 43674, Note_on_c, 0, 39, 80
2, 43680, Note_on_c, 0, 79, 127
2, 43680, Note_on_c, 0, 70, 110
2, 43681, Note_on_c, 0, 75, 110
2, 43744, Note_on_c, 0, 75, 0
2, 43744, Note_on_c, 0, 70, 0
2, 43752, Note_on_c, 0, 79, 0
2, 43758, Note_on_c, 0, 72, 97
2, 43758, Note_on_c, 0, 77, 113
2, 43759, Note_on_c, 0, 81, 104
2, 43779, Note_on_c, 0, 46, 0
2, 43780, Note_on_c, 0, 77, 0
2, 43780, Note_on_c, 0, 39, 0
2, 43781, Note_on_c, 0, 72, 0
2, 43782, Note_on_c, 0, 81, 0
2, 43887, Note_on_c, 0, 39, 71
2, 43888, Note_on_c, 0, 46, 91
2, 44081, Note_on_c, 0, 39, 0
2, 44093, Note_on_c, 0, 46, 0
2, 44162, Note_on_c, 0, 46, 91
2, 44164, Note_on_c, 0, 39, 73
2, 44199, Note_on_c, 0, 46, 0
2, 44201, Note_on_c, 0, 39, 0
2, 44281, Note_on_c, 0, 55, 94
2, 44282, Note_on_c, 0, 60, 113
2, 44331, Note_on_c, 0, 60, 0
2, 44332, Note_on_c, 0, 55, 0
2, 44355, Note_on_c, 0, 46, 80
2, 44356, Note_on_c, 0, 39, 73
2, 44360, Note_on_c, 0, 57, 101
2, 44361, Note_on_c, 0, 62, 113
2, 44398, Note_on_c, 0, 62, 0
2, 44401, Note_on_c, 0, 57, 0
2, 44414, Note_on_c, 0, 60, 88
2, 44428, Note_on_c, 0, 65, 42
2, 44459, Note_on_c, 0, 60, 0
2, 44464, Note_on_c, 0, 65, 0
2, 44488, Note_on_c, 0, 67, 104
2, 44488, Note_on_c, 0, 62, 113
2, 44518, Note_on_c, 0, 62, 0
2, 44519, Note_on_c, 0, 67, 0
2, 44532, Note_on_c, 0, 65, 88
2, 44533, Note_on_c, 0, 60, 88
2, 44600, Note_on_c, 0, 39, 0
2, 44603, Note_on_c, 0, 46, 0
2, 44609, Note_on_c, 0, 60, 0
2, 44614, Note_on_c, 0, 65, 0
2, 44634, Note_on_c, 0, 57, 97
2, 44634, Note_on_c, 0, 62, 104
2, 44641, Note_on_c, 0, 45, 86
2, 44642, Note_on_c, 0, 38, 94
2, 44671, Note_on_c, 0, 45, 0
2, 44675, Note_on_c, 0, 38, 0
2, 45021, Note_on_c, 0, 62, 0
2, 45021, Note_on_c, 0, 57, 0
2, 45021, Note_on_c, 0, 38, 83
2, 45021, Note_on_c, 0, 38, 0
2, 45021, Note_on_c, 0, 45, 113
2, 45021, Note_on_c, 0, 45, 0
2, 45021, Note_on_c, 0, 55, 101
2, 45021, Note_on_c, 0, 55, 0
2, 45021, Note_on_c, 0, 60, 61
2, 45021, Note_on_c, 0, 60, 0
2, 45116, Note_on_c, 0, 60, 127
2, 45116, Note_on_c, 0, 57, 122
2, 45117, Note_on_c, 0, 65, 101
2, 45134, Note_on_c, 0, 60, 0
2, 45137, Note_on_c, 0, 57, 0
2, 45143, Note_on_c, 0, 65, 0
2, 45233, Note_on_c, 0, 60, 122
2, 45234, Note_on_c, 0, 55, 113
2, 45234, Note_on_c, 0, 65, 94
2, 45532, Note_on_c, 0, 55, 0
2, 45535, Note_on_c, 0, 60, 0
2, 45549, Note_on_c, 0, 65, 0
2, 45600, Note_on_c, 0, 70, 104
2, 45601, Note_on_c, 0, 75, 110
2, 45601, Note_on_c, 0, 79, 122
2, 45668, Note_on_c, 0, 75, 0
2, 45668, Note_on_c, 0, 70, 0
2, 45676, Note_on_c, 0, 79, 0
2, 45684, Note_on_c, 0, 72, 104
2, 45684, Note_on_c, 0, 77, 113
2, 45685, Note_on_c, 0, 81, 108
2, 45705, Note_on_c, 0, 77, 0
2, 45707, Note_on_c, 0, 81, 0
2, 45707, Note_on_c, 0, 72, 0
2, 46074, Note_on_c, 0, 46, 100
2, 46076, Note_on_c, 0, 39, 73
2, 46105, Note_on_c, 0, 46, 0
2, 46107, Note_on_c, 0, 39, 0
2, 46285, Note_on_c, 0, 46, 91
2, 46288, Note_on_c, 0, 39, 76
2, 46409, Note_on_c, 0, 57, 86
2, 46410, Note_on_c, 0, 62, 122
2, 46495, Note_on_c, 0, 60, 97
2, 46503, Note_on_c, 0, 57, 0
2, 46510, Note_on_c, 0, 62, 0
2, 46544, Note_on_c, 0, 60, 0
2, 46574, Note_on_c, 0, 57, 113
2, 46575, Note_on_c, 0, 52, 97
2, 46576, Note_on_c, 0, 58, 91
2, 46579, Note_on_c, 0, 62, 97
2, 46593, Note_on_c, 0, 39, 0
2, 46597, Note_on_c, 0, 46, 0
2, 47004, Note_on_c, 0, 52, 0
2, 47004, Note_on_c, 0, 57, 0
2, 47007, Note_on_c, 0, 58, 0
2, 47016, Note_on_c, 0, 62, 0
2, 47055, Note_on_c, 0, 63, 105
2, 47056, Note_on_c, 0, 62, 105
2, 47056, Note_on_c, 0, 67, 105
2, 47056, Note_on_c, 0, 57, 105
2, 47457, Note_on_c, 0, 57, 0
2, 47458, Note_on_c, 0, 62, 0
2, 47460, Note_on_c, 0, 63, 0
2, 47465, Note_on_c, 0, 67, 0
2, 47511, Note_on_c, 0, 65, 113
2, 47512, Note_on_c, 0, 60, 104
2, 47512, Note_on_c, 0, 69, 91
2, 47997, Note_on_c, 0, 60, 0
2, 48002, Note_on_c, 0, 65, 0
2, 48013, Note_on_c, 0, 69, 0
2, 48126, Note_on_c, 0, 61, 110
2, 48127, Note_on_c, 0, 56, 91
2, 48128, Note_on_c, 0, 65, 113
2, 48154, Note_on_c, 0, 61, 0
2, 48159, Note_on_c, 0, 56, 0
2, 48161, Note_on_c, 0, 65, 0
2, 48248, Note_on_c, 0, 61, 104
2, 48250, Note_on_c, 0, 55, 97
2, 48250, Note_on_c, 0, 65, 113
2, 48434, Note_on_c, 0, 55, 0
2, 48439, Note_on_c, 0, 61, 0
2, 48448, Note_on_c, 0, 65, 0
2, 48491, Note_on_c, 0, 55, 97
2, 48492, Note_on_c, 0, 65, 117
2, 48492, Note_on_c, 0, 60, 122
2, 48505, Note_on_c, 0, 65, 0
2, 48515, Note_on_c, 0, 60, 0
2, 48523, Note_on_c, 0, 55, 0
2, 48607, Note_on_c, 0, 55, 91
2, 48607, Note_on_c, 0, 65, 104
2, 48608, Note_on_c, 0, 60, 108
2, 48854, Note_on_c, 0, 65, 0
2, 48882, Note_on_c, 0, 55, 0
2, 48884, Note_on_c, 0, 60, 0
2, 48969, Note_on_c, 0, 57, 122
2, 48969, Note_on_c, 0, 58, 95
2, 48970, Note_on_c, 0, 52, 108
2, 48971, Note_on_c, 0, 62, 97
2, 48985, Note_on_c, 0, 58, 0
2, 48987, Note_on_c, 0, 57, 0
2, 48990, Note_on_c, 0, 52, 0
2, 48994, Note_on_c, 0, 62, 0
2, 49085, Note_on_c, 0, 52, 104
2, 49085, Note_on_c, 0, 57, 117
2, 49086, Note_on_c, 0, 58, 95
2, 49087, Note_on_c, 0, 62, 97
2, 49344, Note_on_c, 0, 52, 0
2, 49345, Note_on_c, 0, 57, 0
2, 49347, Note_on_c, 0, 58, 0
2, 49356, Note_on_c, 0, 62, 0
2, 49439, Note_on_c, 0, 46, 87
2, 49439, Note_on_c, 0, 39, 83
2, 49441, Note_on_c, 0, 70, 104
2, 49442, Note_on_c, 0, 75, 110
2, 49442, Note_on_c, 0, 79, 113
2, 49502, Note_on_c, 0, 75, 0
2, 49503, Note_on_c, 0, 70, 0
2, 49511, Note_on_c, 0, 79, 0
2, 49519, Note_on_c, 0, 72, 94
2, 49521, Note_on_c, 0, 81, 104
2, 49521, Note_on_c, 0, 77, 101
2, 49534, Note_on_c, 0, 46, 0
2, 49536, Note_on_c, 0, 39, 0
2, 49541, Note_on_c, 0, 77, 0
2, 49543, Note_on_c, 0, 72, 0
2, 49546, Note_on_c, 0, 81, 0
2, 49641, Note_on_c, 0, 46, 91
2, 49644, Note_on_c, 0, 39, 83
2, 49848, Note_on_c, 0, 39, 0
2, 49851, Note_on_c, 0, 46, 0
2, 49923, Note_on_c, 0, 46, 104
2, 49924, Note_on_c, 0, 39, 91
2, 49965, Note_on_c, 0, 46, 0
2, 49966, Note_on_c, 0, 39, 0
2, 50127, Note_on_c, 0, 46, 87
2, 50128, Note_on_c, 0, 39, 87
2, 50340, Note_on_c, 0, 39, 0
2, 50346, Note_on_c, 0, 46, 0
2, 50400, Note_on_c, 0, 47, 94
2, 50402, Note_on_c, 0, 40, 88
2, 50404, Note_on_c, 0, 71, 117
2, 50405, Note_on_c, 0, 75, 100
2, 50406, Note_on_c, 0, 66, 91
2, 50424, Note_on_c, 0, 66, 0
2, 50426, Note_on_c, 0, 71, 0
2, 50432, Note_on_c, 0, 75, 0
2, 50439, Note_on_c, 0, 40, 0
2, 50447, Note_on_c, 0, 47, 0
2, 50519, Note_on_c, 0, 70, 104
2, 50519, Note_on_c, 0, 66, 91
2, 50520, Note_on_c, 0, 73, 100
2, 50604, Note_on_c, 0, 47, 101
2, 50605, Note_on_c, 0, 40, 91
2, 50780, Note_on_c, 0, 40, 0
2, 50790, Note_on_c, 0, 70, 0
2, 50792, Note_on_c, 0, 47, 0
2, 50795, Note_on_c, 0, 73, 0
2, 50804, Note_on_c, 0, 66, 0
2, 50875, Note_on_c, 0, 49, 91
2, 50875, Note_on_c, 0, 42, 73
2, 50878, Note_on_c, 0, 73, 104
2, 50880, Note_on_c, 0, 77, 104
2, 50880, Note_on_c, 0, 68, 100
2, 50901, Note_on_c, 0, 73, 0
2, 50905, Note_on_c, 0, 68, 0
2, 50915, Note_on_c, 0, 77, 0
2, 51001, Note_on_c, 0, 75, 110
2, 51002, Note_on_c, 0, 68, 95
2, 51071, Note_on_c, 0, 75, 0
2, 51072, Note_on_c, 0, 68, 0
2, 51117, Note_on_c, 0, 49, 0
2, 51119, Note_on_c, 0, 42, 0
2, 51123, Note_on_c, 0, 71, 108
2, 51123, Note_on_c, 0, 74, 101
2, 51124, Note_on_c, 0, 65, 117
2, 51125, Note_on_c, 0, 68, 87
2, 51305, Note_on_c, 0, 71, 0
2, 51311, Note_on_c, 0, 68, 0
2, 51327, Note_on_c, 0, 74, 0
2, 51332, Note_on_c, 0, 65, 0
2, 51356, Note_on_c, 0, 61, 95
2, 51358, Note_on_c, 0, 66, 104
2, 51378, Note_on_c, 0, 70, 110
2, 51812, Note_on_c, 0, 61, 0
2, 51814, Note_on_c, 0, 66, 0
2, 51825, Note_on_c, 0, 70, 0
2, 51844, Note_on_c, 0, 65, 101
2, 51845, Note_on_c, 0, 68, 95
2, 51846, Note_on_c, 0, 61, 95
2, 52288, Note_on_c, 0, 61, 0
2, 52303, Note_on_c, 0, 65, 0
2, 52304, Note_on_c, 0, 68, 0
2, 52332, Note_on_c, 0, 58, 76
2, 52332, Note_on_c, 0, 63, 95
2, 52334, Note_on_c, 0, 66, 104
2, 52535, Note_on_c, 0, 58, 0
2, 52545, Note_on_c, 0, 63, 0
2, 52549, Note_on_c, 0, 66, 0
2, 52567, Note_on_c, 0, 63, 87
2, 52568, Note_on_c, 0, 68, 104
2, 52568, Note_on_c, 0, 57, 97
2, 52781, Note_on_c, 0, 57, 0
2, 52786, Note_on_c, 0, 63, 0
2, 52795, Note_on_c, 0, 68, 0
2, 52807, Note_on_c, 0, 61, 63
2, 52809, Note_on_c, 0, 66, 110
2, 52809, Note_on_c, 0, 56, 68
2, 52847, Note_on_c, 0, 56, 0
2, 52919, Note_on_c, 0, 58, 91
2, 53002, Note_on_c, 0, 58, 0
2, 53019, Note_on_c, 0, 61, 0
2, 53020, Note_on_c, 0, 66, 0
2, 53040, Note_on_c, 0, 57, 83
2, 53041, Note_on_c, 0, 63, 80
2, 53044, Note_on_c, 0, 68, 110
2, 53245, Note_on_c, 0, 57, 0
2, 53252, Note_on_c, 0, 63, 0
2, 53281, Note_on_c, 0, 68, 0
2, 53285, Note_on_c, 0, 61, 104
2, 53286, Note_on_c, 0, 56, 80
2, 53288, Note_on_c, 0, 65, 101
2, 53716, Note_on_c, 0, 56, 0
2, 53718, Note_on_c, 0, 61, 0
2, 53728, Note_on_c, 0, 65, 0
2, 53763, Note_on_c, 0, 58, 87
2, 53763, Note_on_c, 0, 63, 110
2, 53764, Note_on_c, 0, 67, 113
2, 54195, Note_on_c, 0, 67, 0
2, 54196, Note_on_c, 0, 63, 0
2, 54202, Note_on_c, 0, 58, 0
2, 54250, Note_on_c, 0, 55, 101
2, 54250, Note_on_c, 0, 65, 104
2, 54251, Note_on_c, 0, 60, 108
2, 54252, Note_on_c, 0, 61, 100
2, 55151, Note_on_c, 0, 61, 0
2, 55153, Note_on_c, 0, 55, 0
2, 55156, Note_on_c, 0, 60, 0
2, 55166, Note_on_c, 0, 65, 0
2, 55200, Note_on_c, 0, 60, 113
2, 55202, Note_on_c, 0, 63, 100
2, 55203, Note_on_c, 0, 68, 100
2, 55203, Note_on_c, 0, 58, 91
2, 55404, Note_on_c, 0, 58, 0
2, 55417, Note_on_c, 0, 58, 28
2, 55633, Note_on_c, 0, 58, 0
2, 55649, Note_on_c, 0, 63, 0
2, 55653, Note_on_c, 0, 60, 0
2, 55656, Note_on_c, 0, 68, 0
2, 55677, Note_on_c, 0, 60, 108
2, 55679, Note_on_c, 0, 54, 76
2, 55679, Note_on_c, 0, 58, 100
2, 55680, Note_on_c, 0, 65, 122
2, 55920, Note_on_c, 0, 58, 0
2, 55949, Note_on_c, 0, 58, 1
2, 56078, Note_on_c, 0, 54, 0
2, 56095, Note_on_c, 0, 60, 0
2, 56096, Note_on_c, 0, 58, 0
2, 56171, Note_on_c, 0, 54, 95
2, 56171, Note_on_c, 0, 58, 100
2, 56172, Note_on_c, 0, 63, 100
2, 56179, Note_on_c, 0, 65, 0
2, 56623, Note_on_c, 0, 58, 0
2, 56624, Note_on_c, 0, 63, 0
2, 56628, Note_on_c, 0, 54, 0
2, 56655, Note_on_c, 0, 61, 91
2, 56655, Note_on_c, 0, 60, 81
2, 56657, Note_on_c, 0, 59, 94
2, 56659, Note_on_c, 0, 65, 91
2, 56663, Note_on_c, 0, 56, 30
2, 56689, Note_on_c, 0, 59, 0
2, 57041, Note_on_c, 0, 77, 91
2, 57063, Note_on_c, 0, 73, 76
2, 57083, Note_on_c, 0, 72, 68
2, 57113, Note_on_c, 0, 80, 100
2, 57518, Note_on_c, 0, 61, 0
2, 57521, Note_on_c, 0, 56, 0
2, 57521, Note_on_c, 0, 60, 0
2, 57541, Note_on_c, 0, 65, 0
2, 57595, Note_on_c, 0, 73, 0
2, 57597, Note_on_c, 0, 77, 0
2, 57598, Note_on_c, 0, 80, 0
2, 57600, Note_on_c, 0, 72, 0
2, 57603, Note_on_c, 0, 63, 110
2, 57603, Note_on_c, 0, 58, 87
2, 57605, Note_on_c, 0, 67, 97
2, 58035, Note_on_c, 0, 58, 0
2, 58040, Note_on_c, 0, 63, 0
2, 58047, Note_on_c, 0, 67, 0
2, 58097, Note_on_c, 0, 60, 113
2, 58097, Note_on_c, 0, 65, 113
2, 58099, Note_on_c, 0, 67, 97
2, 58521, Note_on_c, 0, 67, 0
2, 58521, Note_on_c, 0, 65, 0
2, 58524, Note_on_c, 0, 60, 0
2, 58572, Note_on_c, 0, 61, 104
2, 58573, Note_on_c, 0, 56, 87
2, 58573, Note_on_c, 0, 65, 81
2, 59492, Note_on_c, 0, 61, 0
2, 59498, Note_on_c, 0, 56, 0
2, 59510, Note_on_c, 0, 65, 0
2, 59535, Note_on_c, 0, 58, 91
2, 59536, Note_on_c, 0, 63, 104
2, 59537, Note_on_c, 0, 67, 101
2, 60430, Note_on_c, 0, 67, 0
2, 60430, Note_on_c, 0, 63, 0
2, 60432, Note_on_c, 0, 58, 0
2, 60473, Note_on_c, 0, 57, 88
2, 60475, Note_on_c, 0, 62, 97
2, 60476, Note_on_c, 0, 65, 94
2, 60477, Note_on_c, 0, 60, 91
2, 60903, Note_on_c, 0, 57, 0
2, 60904, Note_on_c, 0, 62, 0
2, 60905, Note_on_c, 0, 60, 0
2, 60912, Note_on_c, 0, 65, 0
2, 60965, Note_on_c, 0, 56, 95
2, 60966, Note_on_c, 0, 62, 113
2, 60967, Note_on_c, 0, 60, 94
2, 60999, Note_on_c, 0, 60, 0
2, 61000, Note_on_c, 0, 66, 61
2, 61037, Note_on_c, 0, 60, 1
2, 61225, Note_on_c, 0, 60, 0
2, 61391, Note_on_c, 0, 62, 0
2, 61407, Note_on_c, 0, 56, 0
2, 61416, Note_on_c, 0, 66, 0
2, 61448, Note_on_c, 0, 61, 59
2, 61449, Note_on_c, 0, 67, 97
2, 61450, Note_on_c, 0, 58, 65
2, 61451, Note_on_c, 0, 55, 88
2, 61452, Note_on_c, 0, 62, 94
2, 61456, Note_on_c, 0, 61, 0
2, 61457, Note_on_c, 0, 60, 83
2, 61855, Note_on_c, 0, 58, 0
2, 61872, Note_on_c, 0, 62, 0
2, 61878, Note_on_c, 0, 55, 0
2, 61881, Note_on_c, 0, 67, 0
2, 61881, Note_on_c, 0, 60, 0
2, 61929, Note_on_c, 0, 55, 101
2, 61929, Note_on_c, 0, 61, 104
2, 61931, Note_on_c, 0, 65, 104
2, 61931, Note_on_c, 0, 60, 108
2, 62292, Note_on_c, 0, 65, 0
2, 62297, Note_on_c, 0, 61, 0
2, 62343, Note_on_c, 0, 60, 0
2, 62348, Note_on_c, 0, 55, 0
2, 62403, Note_on_c, 0, 55, 122
2, 62404, Note_on_c, 0, 60, 127
2, 62405, Note_on_c, 0, 65, 104
2, 62437, Note_on_c, 0, 60, 0
2, 62439, Note_on_c, 0, 55, 0
2, 62444, Note_on_c, 0, 65, 0
2, 62638, Note_on_c, 0, 55, 94
2, 62645, Note_on_c, 0, 56, 100
2, 62653, Note_on_c, 0, 56, 0
2, 62654, Note_on_c, 0, 57, 108
2, 62664, Note_on_c, 0, 55, 0
2, 62716, Note_on_c, 0, 57, 0
2, 62722, Note_on_c, 0, 60, 70
2, 62751, Note_on_c, 0, 60, 0
2, 62762, Note_on_c, 0, 62, 117
2, 62804, Note_on_c, 0, 62, 0
2, 62890, Note_on_c, 0, 60, 108
2, 62891, Note_on_c, 0, 45, 113
2, 62892, Note_on_c, 0, 55, 101
2, 62892, Note_on_c, 0, 38, 101
2, 62894, Note_on_c, 0, 65, 79
2, 62911, Note_on_c, 0, 45, 0
2, 62916, Note_on_c, 0, 38, 0
2, 62916, Note_on_c, 0, 60, 0
2, 62918, Note_on_c, 0, 55, 0
2, 62921, Note_on_c, 0, 65, 0
2, 63013, Note_on_c, 0, 55, 101
2, 63014, Note_on_c, 0, 60, 101
2, 63015, Note_on_c, 0, 65, 97
2, 63016, Note_on_c, 0, 38, 108
2, 63016, Note_on_c, 0, 45, 101
2, 63256, Note_on_c, 0, 55, 0
2, 63261, Note_on_c, 0, 60, 0
2, 63271, Note_on_c, 0, 65, 0
2, 63291, Note_on_c, 0, 38, 0
2, 63302, Note_on_c, 0, 45, 0
2, 63360, Note_on_c, 0, 46, 91
2, 63360, Note_on_c, 0, 39, 76
2, 63362, Note_on_c, 0, 70, 100
2, 63363, Note_on_c, 0, 75, 104
2, 63365, Note_on_c, 0, 79, 101
2, 63424, Note_on_c, 0, 79, 0
2, 63425, Note_on_c, 0, 75, 0
2, 63426, Note_on_c, 0, 70, 0
2, 63438, Note_on_c, 0, 81, 94
2, 63439, Note_on_c, 0, 77, 108
2, 63440, Note_on_c, 0, 72, 97
2, 63463, Note_on_c, 0, 77, 0
2, 63464, Note_on_c, 0, 39, 0
2, 63465, Note_on_c, 0, 72, 0
2, 63467, Note_on_c, 0, 81, 0
2, 63469, Note_on_c, 0, 46, 0
2, 63567, Note_on_c, 0, 46, 95
2, 63568, Note_on_c, 0, 39, 71
2, 63751, Note_on_c, 0, 46, 0
2, 63754, Note_on_c, 0, 39, 0
2, 63833, Note_on_c, 0, 46, 95
2, 63834, Note_on_c, 0, 39, 76
2, 63842, Note_on_c, 0, 63, 91
2, 63843, Note_on_c, 0, 58, 91
2, 63843, Note_on_c, 0, 67, 94
2, 63898, Note_on_c, 0, 58, 0
2, 63900, Note_on_c, 0, 63, 0
2, 63906, Note_on_c, 0, 67, 0
2, 63923, Note_on_c, 0, 60, 108
2, 63923, Note_on_c, 0, 69, 113
2, 63923, Note_on_c, 0, 65, 117
2, 63940, Note_on_c, 0, 60, 0
2, 63942, Note_on_c, 0, 65, 0
2, 63945, Note_on_c, 0, 69, 0
2, 63948, Note_on_c, 0, 46, 0
2, 63949, Note_on_c, 0, 39, 0
2, 64044, Note_on_c, 0, 46, 100
2, 64044, Note_on_c, 0, 39, 71
2, 64092, Note_on_c, 0, 62, 113
2, 64092, Note_on_c, 0, 67, 117
2, 64093, Note_on_c, 0, 72, 91
2, 64153, Note_on_c, 0, 62, 0
2, 64154, Note_on_c, 0, 67, 0
2, 64158, Note_on_c, 0, 72, 0
2, 64170, Note_on_c, 0, 64, 94
2, 64172, Note_on_c, 0, 69, 104
2, 64173, Note_on_c, 0, 74, 104
2, 64184, Note_on_c, 0, 69, 0
2, 64186, Note_on_c, 0, 64, 0
2, 64189, Note_on_c, 0, 74, 0
2, 64267, Note_on_c, 0, 46, 0
2, 64277, Note_on_c, 0, 39, 0
2, 64329, Note_on_c, 0, 38, 97
2, 64330, Note_on_c, 0, 45, 108
2, 64365, Note_on_c, 0, 38, 0
2, 64376, Note_on_c, 0, 45, 0
2, 64511, Note_on_c, 0, 38, 94
2, 64513, Note_on_c, 0, 45, 113
2, 64535, Note_on_c, 0, 55, 97
2, 64550, Note_on_c, 0, 56, 91
2, 64560, Note_on_c, 0, 56, 0
2, 64560, Note_on_c, 0, 57, 122
2, 64567, Note_on_c, 0, 55, 0
2, 64632, Note_on_c, 0, 57, 0
2, 64637, Note_on_c, 0, 60, 71
2, 64666, Note_on_c, 0, 60, 0
2, 64678, Note_on_c, 0, 62, 94
2, 64718, Note_on_c, 0, 62, 0
2, 64727, Note_on_c, 0, 38, 0
2, 64728, Note_on_c, 0, 45, 0
2, 64793, Note_on_c, 0, 60, 108
2, 64793, Note_on_c, 0, 45, 104
2, 64794, Note_on_c, 0, 57, 94
2, 64796, Note_on_c, 0, 38, 91
2, 64796, Note_on_c, 0, 65, 83
2, 64822, Note_on_c, 0, 60, 0
2, 64824, Note_on_c, 0, 57, 0
2, 64825, Note_on_c, 0, 45, 0
2, 64826, Note_on_c, 0, 38, 0
2, 64827, Note_on_c, 0, 65, 0
2, 64916, Note_on_c, 0, 60, 108
2, 64917, Note_on_c, 0, 55, 101
2, 64919, Note_on_c, 0, 65, 94
2, 64920, Note_on_c, 0, 45, 91
2, 64921, Note_on_c, 0, 38, 83
2, 65271, Note_on_c, 0, 38, 0
2, 65271, Note_on_c, 0, 65, 0
2, 65271, Note_on_c, 0, 60, 0
2, 65271, Note_on_c, 0, 55, 0
2, 65271, Note_on_c, 0, 45, 0
2, 65282, Note_on_c, 0, 39, 80
2, 65282, Note_on_c, 0, 46, 104
2, 65286, Note_on_c, 0, 70, 104
2, 65287, Note_on_c, 0, 79, 122
2, 65287, Note_on_c, 0, 75, 110
2, 65350, Note_on_c, 0, 70, 0
2, 65351, Note_on_c, 0, 75, 0
2, 65357, Note_on_c, 0, 79, 0
2, 65364, Note_on_c, 0, 72, 101
2, 65365, Note_on_c, 0, 77, 108
2, 65365, Note_on_c, 0, 81, 91
2, 65377, Note_on_c, 0, 46, 0
2, 65383, Note_on_c, 0, 39, 0
2, 65386, Note_on_c, 0, 77, 0
2, 65388, Note_on_c, 0, 72, 0
2, 65391, Note_on_c, 0, 81, 0
2, 65487, Note_on_c, 0, 46, 100
2, 65488, Note_on_c, 0, 39, 76
2, 65692, Note_on_c, 0, 46, 0
2, 65694, Note_on_c, 0, 39, 0
2, 65771, Note_on_c, 0, 46, 104
2, 65772, Note_on_c, 0, 39, 91
2, 65810, Note_on_c, 0, 39, 0
2, 65811, Note_on_c, 0, 46, 0
2, 65958, Note_on_c, 0, 46, 100
2, 65959, Note_on_c, 0, 39, 87
2, 66008, Note_on_c, 0, 62, 113
2, 66088, Note_on_c, 0, 67, 113
2, 66139, Note_on_c, 0, 39, 0
2, 66150, Note_on_c, 0, 46, 0
2, 66166, Note_on_c, 0, 69, 104
2, 66249, Note_on_c, 0, 74, 94
2, 66252, Note_on_c, 0, 58, 83
2, 66252, Note_on_c, 0, 52, 63
2, 66254, Note_on_c, 0, 57, 91
2, 66630, Note_on_c, 0, 58, 0
2, 66632, Note_on_c, 0, 52, 0
2, 66633, Note_on_c, 0, 57, 0
2, 66643, Note_on_c, 0, 62, 0
2, 66684, Note_on_c, 0, 67, 0
2, 66722, Note_on_c, 0, 69, 0
2, 66732, Note_on_c, 0, 67, 108
2, 66732, Note_on_c, 0, 63, 104
2, 66733, Note_on_c, 0, 57, 104
2, 66734, Note_on_c, 0, 62, 104
2, 66736, Note_on_c, 0, 74, 0
2, 67158, Note_on_c, 0, 62, 0
2, 67171, Note_on_c, 0, 57, 0
2, 67172, Note_on_c, 0, 63, 0
2, 67176, Note_on_c, 0, 67, 0
2, 67215, Note_on_c, 0, 57, 97
2, 67216, Note_on_c, 0, 62, 113
2, 67217, Note_on_c, 0, 65, 104
2, 67217, Note_on_c, 0, 60, 97
2, 67679, Note_on_c, 0, 60, 0
2, 67680, Note_on_c, 0, 62, 0
2, 67681, Note_on_c, 0, 65, 0
2, 67681, Note_on_c, 0, 57, 0
2, 67796, Note_on_c, 0, 56, 83
2, 67796, Note_on_c, 0, 65, 101
2, 67797, Note_on_c, 0, 61, 104
2, 67833, Note_on_c, 0, 61, 0
2, 67834, Note_on_c, 0, 56, 0
2, 67842, Note_on_c, 0, 65, 0
2, 67929, Note_on_c, 0, 55, 91
2, 67930, Note_on_c, 0, 61, 104
2, 67930, Note_on_c, 0, 65, 101
2, 68131, Note_on_c, 0, 61, 0
2, 68131, Note_on_c, 0, 55, 0
2, 68140, Note_on_c, 0, 65, 0
2, 68165, Note_on_c, 0, 65, 97
2, 68166, Note_on_c, 0, 55, 97
2, 68167, Note_on_c, 0, 60, 113
2, 68189, Note_on_c, 0, 60, 0
2, 68193, Note_on_c, 0, 55, 0
2, 68194, Note_on_c, 0, 65, 0
2, 68282, Note_on_c, 0, 55, 91
2, 68283, Note_on_c, 0, 65, 104
2, 68284, Note_on_c, 0, 60, 108
2, 68595, Note_on_c, 0, 65, 0
2, 68598, Note_on_c, 0, 60, 0
2, 68603, Note_on_c, 0, 55, 0
2, 68645, Note_on_c, 0, 57, 104
2, 68646, Note_on_c, 0, 58, 100
2, 68647, Note_on_c, 0, 62, 97
2, 68647, Note_on_c, 0, 52, 97
2, 68675, Note_on_c, 0, 58, 0
2, 68676, Note_on_c, 0, 57, 0
2, 68678, Note_on_c, 0, 52, 0
2, 68681, Note_on_c, 0, 62, 0
2, 68757, Note_on_c, 0, 52, 94
2, 68758, Note_on_c, 0, 58, 100
2, 68759, Note_on_c, 0, 62, 104
2, 68760, Note_on_c, 0, 57, 108
2, 69070, Note_on_c, 0, 62, 0
2, 69072, Note_on_c, 0, 57, 0
2, 69072, Note_on_c, 0, 58, 0
2, 69081, Note_on_c, 0, 52, 0
2, 69130, Note_on_c, 0, 70, 104
2, 69131, Note_on_c, 0, 75, 104
2, 69131, Note_on_c, 0, 46, 87
2, 69133, Note_on_c, 0, 79, 108
2, 69133, Note_on_c, 0, 39, 91
2, 69196, Note_on_c, 0, 70, 0
2, 69199, Note_on_c, 0, 75, 0
2, 69209, Note_on_c, 0, 79, 0
2, 69214, Note_on_c, 0, 72, 101
2, 69215, Note_on_c, 0, 77, 104
2, 69216, Note_on_c, 0, 81, 91
2, 69217, Note_on_c, 0, 46, 0
2, 69221, Note_on_c, 0, 39, 0
2, 69238, Note_on_c, 0, 77, 0
2, 69238, Note_on_c, 0, 72, 0
2, 69244, Note_on_c, 0, 81, 0
2, 69332, Note_on_c, 0, 46, 100
2, 69332, Note_on_c, 0, 39, 76
2, 69531, Note_on_c, 0, 46, 0
2, 69532, Note_on_c, 0, 39, 0
2, 69605, Note_on_c, 0, 46, 104
2, 69606, Note_on_c, 0, 39, 91
2, 69640, Note_on_c, 0, 46, 0
2, 69642, Note_on_c, 0, 39, 0
2, 69806, Note_on_c, 0, 46, 100
2, 69807, Note_on_c, 0, 39, 87
2, 70046, Note_on_c, 0, 39, 0
2, 70047, Note_on_c, 0, 46, 0
2, 70088, Note_on_c, 0, 45, 117
2, 70089, Note_on_c, 0, 38, 101
2, 70129, Note_on_c, 0, 38, 0
2, 70131, Note_on_c, 0, 45, 0
2, 70287, Note_on_c, 0, 45, 108
2, 70289, Note_on_c, 0, 38, 94
2, 70318, Note_on_c, 0, 55, 91
2, 70330, Note_on_c, 0, 56, 100
2, 70336, Note_on_c, 0, 56, 0
2, 70338, Note_on_c, 0, 57, 122
2, 70343, Note_on_c, 0, 55, 0
2, 70406, Note_on_c, 0, 60, 83
2, 70409, Note_on_c, 0, 57, 0
2, 70443, Note_on_c, 0, 60, 0
2, 70453, Note_on_c, 0, 62, 113
2, 70494, Note_on_c, 0, 62, 0
2, 70508, Note_on_c, 0, 45, 0
2, 70511, Note_on_c, 0, 38, 0
2, 70569, Note_on_c, 0, 38, 94
2, 70570, Note_on_c, 0, 45, 104
2, 70570, Note_on_c, 0, 60, 108
2, 70572, Note_on_c, 0, 57, 101
2, 70572, Note_on_c, 0, 65, 91
2, 70604, Note_on_c, 0, 60, 0
2, 70608, Note_on_c, 0, 57, 0
2, 70608, Note_on_c, 0, 38, 0
2, 70608, Note_on_c, 0, 45, 0
2, 70610, Note_on_c, 0, 65, 0
2, 70684, Note_on_c, 0, 60, 113
2, 70684, Note_on_c, 0, 55, 104
2, 70685, Note_on_c, 0, 45, 101
2, 70686, Note_on_c, 0, 65, 91
2, 70686, Note_on_c, 0, 38, 86
2, 70928, Note_on_c, 0, 38, 0
2, 70938, Note_on_c, 0, 45, 0
2, 70944, Note_on_c, 0, 55, 0
2, 70947, Note_on_c, 0, 60, 0
2, 70955, Note_on_c, 0, 65, 0
2, 71041, Note_on_c, 0, 48, 97
2, 71042, Note_on_c, 0, 60, 108
2, 71043, Note_on_c, 0, 67, 122
2, 71043, Note_on_c, 0, 41, 104
2, 71045, Note_on_c, 0, 71, 108
2, 71114, Note_on_c, 0, 71, 0
2, 71116, Note_on_c, 0, 60, 0
2, 71118, Note_on_c, 0, 67, 0
2, 71120, Note_on_c, 0, 69, 104
2, 71123, Note_on_c, 0, 71, 71
2, 71125, Note_on_c, 0, 72, 94
2, 71136, Note_on_c, 0, 71, 0
2, 71136, Note_on_c, 0, 41, 0
2, 71137, Note_on_c, 0, 48, 0
2, 71145, Note_on_c, 0, 69, 0
2, 71152, Note_on_c, 0, 72, 0
2, 71237, Note_on_c, 0, 48, 101
2, 71238, Note_on_c, 0, 41, 97
2, 71406, Note_on_c, 0, 67, 108
2, 71409, Note_on_c, 0, 71, 113
2, 71434, Note_on_c, 0, 67, 0
2, 71438, Note_on_c, 0, 69, 83
2, 71440, Note_on_c, 0, 72, 88
2, 71445, Note_on_c, 0, 71, 0
2, 71465, Note_on_c, 0, 69, 0
2, 71466, Note_on_c, 0, 72, 0
2, 71480, Note_on_c, 0, 41, 0
2, 71484, Note_on_c, 0, 48, 0
2, 71484, Note_on_c, 0, 67, 117
2, 71484, Note_on_c, 0, 71, 117
2, 71515, Note_on_c, 0, 71, 0
2, 71515, Note_on_c, 0, 48, 108
2, 71517, Note_on_c, 0, 41, 97
2, 71520, Note_on_c, 0, 67, 0
2, 71569, Note_on_c, 0, 65, 104
2, 71573, Note_on_c, 0, 69, 122
2, 71599, Note_on_c, 0, 65, 0
2, 71610, Note_on_c, 0, 71, 81
2, 71611, Note_on_c, 0, 67, 88
2, 71613, Note_on_c, 0, 69, 0
2, 71645, Note_on_c, 0, 71, 0
2, 71649, Note_on_c, 0, 69, 108
2, 71649, Note_on_c, 0, 65, 108
2, 71653, Note_on_c, 0, 67, 0
2, 71683, Note_on_c, 0, 69, 0
2, 71696, Note_on_c, 0, 41, 0
2, 71697, Note_on_c, 0, 65, 0
2, 71724, Note_on_c, 0, 48, 0
2, 71765, Note_on_c, 0, 39, 83
2, 71765, Note_on_c, 0, 46, 91
2, 71766, Note_on_c, 0, 67, 113
2, 71767, Note_on_c, 0, 63, 95
2, 71828, Note_on_c, 0, 63, 0
2, 71842, Note_on_c, 0, 67, 0
2, 71842, Note_on_c, 0, 69, 88
2, 71848, Note_on_c, 0, 65, 86
2, 71881, Note_on_c, 0, 63, 104
2, 71886, Note_on_c, 0, 69, 0
2, 71889, Note_on_c, 0, 65, 0
2, 71915, Note_on_c, 0, 63, 0
2, 71966, Note_on_c, 0, 65, 122
2, 71967, Note_on_c, 0, 64, 127
2, 71967, Note_on_c, 0, 69, 108
2, 71979, Note_on_c, 0, 46, 0
2, 71980, Note_on_c, 0, 39, 0
2, 72009, Note_on_c, 0, 45, 97
2, 72012, Note_on_c, 0, 38, 97
2, 72069, Note_on_c, 0, 38, 0
2, 72069, Note_on_c, 0, 45, 0
2, 72185, Note_on_c, 0, 69, 0
2, 72193, Note_on_c, 0, 38, 101
2, 72195, Note_on_c, 0, 45, 117
2, 72197, Note_on_c, 0, 65, 0
2, 72199, Note_on_c, 0, 64, 0
2, 72233, Note_on_c, 0, 55, 117
2, 72244, Note_on_c, 0, 56, 95
2, 72254, Note_on_c, 0, 56, 0
2, 72254, Note_on_c, 0, 57, 127
2, 72262, Note_on_c, 0, 55, 0
2, 72322, Note_on_c, 0, 57, 0
2, 72322, Note_on_c, 0, 60, 77
2, 72356, Note_on_c, 0, 60, 0
2, 72363, Note_on_c, 0, 62, 113
2, 72403, Note_on_c, 0, 62, 0
2, 72415, Note_on_c, 0, 38, 0
2, 72417, Note_on_c, 0, 45, 0
2, 72478, Note_on_c, 0, 45, 104
2, 72480, Note_on_c, 0, 60, 117
2, 72480, Note_on_c, 0, 38, 94
2, 72481, Note_on_c, 0, 57, 104
2, 72482, Note_on_c, 0, 65, 101
2, 72510, Note_on_c, 0, 38, 0
2, 72510, Note_on_c, 0, 45, 0
2, 72511, Note_on_c, 0, 60, 0
2, 72512, Note_on_c, 0, 65, 0
2, 72512, Note_on_c, 0, 57, 0
2, 72599, Note_on_c, 0, 60, 104
2, 72599, Note_on_c, 0, 55, 97
2, 72600, Note_on_c, 0, 65, 101
2, 72602, Note_on_c, 0, 45, 97
2, 72602, Note_on_c, 0, 38, 94
2, 72881, Note_on_c, 0, 55, 0
2, 72887, Note_on_c, 0, 60, 0
2, 72898, Note_on_c, 0, 65, 0
2, 72912, Note_on_c, 0, 38, 0
2, 72919, Note_on_c, 0, 45, 0
2, 72959, Note_on_c, 0, 46, 100
2, 72960, Note_on_c, 0, 39, 83
2, 72962, Note_on_c, 0, 75, 127
2, 72963, Note_on_c, 0, 79, 117
2, 72964, Note_on_c, 0, 70, 110
2, 73019, Note_on_c, 0, 70, 0
2, 73025, Note_on_c, 0, 75, 0
2, 73033, Note_on_c, 0, 79, 0
2, 73042, Note_on_c, 0, 81, 101
2, 73043, Note_on_c, 0, 72, 91
2, 73043, Note_on_c, 0, 77, 94
2, 73064, Note_on_c, 0, 81, 0
2, 73065, Note_on_c, 0, 77, 0
2, 73065, Note_on_c, 0, 46, 0
2, 73067, Note_on_c, 0, 39, 0
2, 73067, Note_on_c, 0, 72, 0
2, 73157, Note_on_c, 0, 46, 95
2, 73160, Note_on_c, 0, 39, 76
2, 73381, Note_on_c, 0, 39, 0
2, 73386, Note_on_c, 0, 46, 0
2, 73442, Note_on_c, 0, 39, 83
2, 73442, Note_on_c, 0, 46, 104
2, 73488, Note_on_c, 0, 46, 0
2, 73488, Note_on_c, 0, 39, 0
2, 73641, Note_on_c, 0, 44, 104
2, 73643, Note_on_c, 0, 60, 117
2, 73644, Note_on_c, 0, 54, 100
2, 73644, Note_on_c, 0, 62, 101
2, 73908, Note_on_c, 0, 44, 0
2, 73915, Note_on_c, 0, 60, 0
2, 73915, Note_on_c, 0, 62, 0
2, 73916, Note_on_c, 0, 54, 0
2, 73922, Note_on_c, 0, 45, 97
2, 73924, Note_on_c, 0, 38, 94
2, 73967, Note_on_c, 0, 38, 0
2, 73967, Note_on_c, 0, 45, 0
2, 74127, Note_on_c, 0, 45, 108
2, 74128, Note_on_c, 0, 38, 94
2, 74151, Note_on_c, 0, 55, 83
2, 74162, Note_on_c, 0, 56, 95
2, 74169, Note_on_c, 0, 56, 0
2, 74170, Note_on_c, 0, 57, 117
2, 74180, Note_on_c, 0, 55, 0
2, 74238, Note_on_c, 0, 60, 81
2, 74243, Note_on_c, 0, 57, 0
2, 74273, Note_on_c, 0, 60, 0
2, 74283, Note_on_c, 0, 62, 117
2, 74321, Note_on_c, 0, 62, 0
2, 74336, Note_on_c, 0, 38, 0
2, 74337, Note_on_c, 0, 45, 0
2, 74397, Note_on_c, 0, 45, 101
2, 74398, Note_on_c, 0, 38, 88
2, 74400, Note_on_c, 0, 60, 108
2, 74401, Note_on_c, 0, 57, 101
2, 74401, Note_on_c, 0, 65, 101
2, 74429, Note_on_c, 0, 45, 0
2, 74431, Note_on_c, 0, 38, 0
2, 74433, Note_on_c, 0, 60, 0
2, 74435, Note_on_c, 0, 57, 0
2, 74439, Note_on_c, 0, 65, 0
2, 74524, Note_on_c, 0, 60, 108
2, 74525, Note_on_c, 0, 65, 104
2, 74526, Note_on_c, 0, 55, 108
2, 74526, Note_on_c, 0, 45, 101
2, 74527, Note_on_c, 0, 38, 97
2, 74772, Note_on_c, 0, 38, 0
2, 74779, Note_on_c, 0, 45, 0
2, 74813, Note_on_c, 0, 55, 0
2, 74813, Note_on_c, 0, 60, 0
2, 74821, Note_on_c, 0, 65, 0
2, 74886, Note_on_c, 0, 48, 97
2, 74888, Note_on_c, 0, 60, 108
2, 74889, Note_on_c, 0, 41, 108
2, 74889, Note_on_c, 0, 67, 122
2, 74890, Note_on_c, 0, 71, 122
2, 74959, Note_on_c, 0, 71, 0
2, 74959, Note_on_c, 0, 60, 0
2, 74965, Note_on_c, 0, 69, 108
2, 74968, Note_on_c, 0, 72, 104
2, 74969, Note_on_c, 0, 71, 91
2, 74974, Note_on_c, 0, 67, 0
2, 74977, Note_on_c, 0, 48, 0
2, 74977, Note_on_c, 0, 71, 0
2, 74979, Note_on_c, 0, 41, 0
2, 74988, Note_on_c, 0, 69, 0
2, 74994, Note_on_c, 0, 72, 0
2, 75083, Note_on_c, 0, 48, 108
2, 75084, Note_on_c, 0, 41, 97
2, 75243, Note_on_c, 0, 67, 101
2, 75246, Note_on_c, 0, 71, 117
2, 75267, Note_on_c, 0, 67, 0
2, 75268, Note_on_c, 0, 69, 86
2, 75275, Note_on_c, 0, 71, 0
2, 75300, Note_on_c, 0, 69, 0
2, 75317, Note_on_c, 0, 67, 104
2, 75320, Note_on_c, 0, 71, 117
2, 75325, Note_on_c, 0, 41, 0
2, 75330, Note_on_c, 0, 48, 0
2, 75356, Note_on_c, 0, 71, 0
2, 75359, Note_on_c, 0, 67, 0
2, 75364, Note_on_c, 0, 48, 97
2, 75364, Note_on_c, 0, 41, 97
2, 75409, Note_on_c, 0, 65, 108
2, 75411, Note_on_c, 0, 69, 117
2, 75434, Note_on_c, 0, 65, 0
2, 75439, Note_on_c, 0, 67, 91
2, 75441, Note_on_c, 0, 71, 88
2, 75444, Note_on_c, 0, 69, 0
2, 75477, Note_on_c, 0, 71, 0
2, 75483, Note_on_c, 0, 65, 108
2, 75483, Note_on_c, 0, 69, 97
2, 75484, Note_on_c, 0, 67, 0
2, 75515, Note_on_c, 0, 69, 0
2, 75528, Note_on_c, 0, 65, 0
2, 75538, Note_on_c, 0, 41, 0
2, 75554, Note_on_c, 0, 48, 0
2, 75597, Note_on_c, 0, 67, 104
2, 75598, Note_on_c, 0, 46, 100
2, 75598, Note_on_c, 0, 63, 95
2, 75599, Note_on_c, 0, 39, 80
2, 75664, Note_on_c, 0, 63, 0
2, 75673, Note_on_c, 0, 67, 0
2, 75674, Note_on_c, 0, 65, 91
2, 75675, Note_on_c, 0, 69, 81
2, 75716, Note_on_c, 0, 63, 104
2, 75720, Note_on_c, 0, 69, 0
2, 75723, Note_on_c, 0, 65, 0
2, 75756, Note_on_c, 0, 63, 0
2, 75795, Note_on_c, 0, 69, 97
2, 75796, Note_on_c, 0, 65, 117
2, 75796, Note_on_c, 0, 64, 127
2, 75803, Note_on_c, 0, 46, 0
2, 75803, Note_on_c, 0, 39, 0
2, 75835, Note_on_c, 0, 45, 94
2, 75840, Note_on_c, 0, 38, 94
2, 75890, Note_on_c, 0, 45, 0
2, 75894, Note_on_c, 0, 38, 0
2, 76027, Note_on_c, 0, 69, 0
2, 76028, Note_on_c, 0, 38, 101
2, 76031, Note_on_c, 0, 45, 122
2, 76036, Note_on_c, 0, 65, 0
2, 76037, Note_on_c, 0, 64, 0
2, 76070, Note_on_c, 0, 55, 113
2, 76085, Note_on_c, 0, 56, 91
2, 76091, Note_on_c, 0, 56, 0
2, 76092, Note_on_c, 0, 57, 127
2, 76100, Note_on_c, 0, 55, 0
2, 76157, Note_on_c, 0, 60, 77
2, 76159, Note_on_c, 0, 57, 0
2, 76192, Note_on_c, 0, 60, 0
2, 76201, Note_on_c, 0, 62, 108
2, 76241, Note_on_c, 0, 62, 0
2, 76248, Note_on_c, 0, 38, 0
2, 76248, Note_on_c, 0, 45, 0
2, 76317, Note_on_c, 0, 57, 94
2, 76318, Note_on_c, 0, 60, 113
2, 76319, Note_on_c, 0, 45, 108
2, 76319, Note_on_c, 0, 38, 91
2, 76320, Note_on_c, 0, 65, 97
2, 76344, Note_on_c, 0, 60, 0
2, 76345, Note_on_c, 0, 57, 0
2, 76346, Note_on_c, 0, 45, 0
2, 76347, Note_on_c, 0, 65, 0
2, 76350, Note_on_c, 0, 38, 0
2, 76443, Note_on_c, 0, 55, 101
2, 76444, Note_on_c, 0, 60, 113
2, 76445, Note_on_c, 0, 45, 108
2, 76446, Note_on_c, 0, 65, 104
2, 76447, Note_on_c, 0, 38, 97
2, 76729, Note_on_c, 0, 38, 0
2, 76735, Note_on_c, 0, 55, 0
2, 76737, Note_on_c, 0, 60, 0
2, 76749, Note_on_c, 0, 45, 0
2, 76749, Note_on_c, 0, 65, 0
2, 76798, Note_on_c, 0, 39, 76
2, 76799, Note_on_c, 0, 46, 104
2, 76807, Note_on_c, 0, 75, 127
2, 76808, Note_on_c, 0, 79, 108
2, 76809, Note_on_c, 0, 70, 87
2, 76836, Note_on_c, 0, 70, 0
2, 76864, Note_on_c, 0, 75, 0
2, 76873, Note_on_c, 0, 79, 0
2, 76881, Note_on_c, 0, 77, 108
2, 76882, Note_on_c, 0, 81, 108
2, 76883, Note_on_c, 0, 72, 101
2, 76902, Note_on_c, 0, 39, 0
2, 76904, Note_on_c, 0, 77, 0
2, 76906, Note_on_c, 0, 72, 0
2, 76906, Note_on_c, 0, 46, 0
2, 76911, Note_on_c, 0, 81, 0
2, 77001, Note_on_c, 0, 46, 100
2, 77001, Note_on_c, 0, 39, 76
2, 77244, Note_on_c, 0, 39, 0
2, 77244, Note_on_c, 0, 46, 0
2, 77291, Note_on_c, 0, 46, 104
2, 77291, Note_on_c, 0, 39, 91
2, 77325, Note_on_c, 0, 46, 0
2, 77330, Note_on_c, 0, 39, 0
2, 77490, Note_on_c, 0, 60, 104
2, 77491, Note_on_c, 0, 44, 110
2, 77492, Note_on_c, 0, 54, 91
2, 77492, Note_on_c, 0, 62, 91
2, 77744, Note_on_c, 0, 44, 0
2, 77747, Note_on_c, 0, 60, 0
2, 77749, Note_on_c, 0, 54, 0
2, 77749, Note_on_c, 0, 62, 0
2, 77761, Note_on_c, 0, 45, 94
2, 77762, Note_on_c, 0, 38, 101
2, 77798, Note_on_c, 0, 45, 0
2, 77803, Note_on_c, 0, 38, 0
2, 77966, Note_on_c, 0, 38, 88
2, 77967, Note_on_c, 0, 45, 104
2, 77996, Note_on_c, 0, 55, 81
2, 78008, Note_on_c, 0, 56, 104
2, 78016, Note_on_c, 0, 56, 0
2, 78016, Note_on_c, 0, 57, 127
2, 78023, Note_on_c, 0, 55, 0
2, 78081, Note_on_c, 0, 57, 0
2, 78081, Note_on_c, 0, 60, 75
2, 78113, Note_on_c, 0, 60, 0
2, 78125, Note_on_c, 0, 62, 113
2, 78166, Note_on_c, 0, 62, 0
2, 78186, Note_on_c, 0, 45, 0
2, 78187, Note_on_c, 0, 38, 0
2, 78245, Note_on_c, 0, 45, 97
2, 78247, Note_on_c, 0, 38, 86
2, 78250, Note_on_c, 0, 60, 108
2, 78250, Note_on_c, 0, 57, 104
2, 78251, Note_on_c, 0, 65, 97
2, 78276, Note_on_c, 0, 45, 0
2, 78278, Note_on_c, 0, 60, 0
2, 78279, Note_on_c, 0, 57, 0
2, 78280, Note_on_c, 0, 38, 0
2, 78286, Note_on_c, 0, 65, 0
2, 78369, Note_on_c, 0, 55, 104
2, 78370, Note_on_c, 0, 60, 113
2, 78371, Note_on_c, 0, 65, 104
2, 78371, Note_on_c, 0, 45, 101
2, 78372, Note_on_c, 0, 38, 97
2, 78628, Note_on_c, 0, 38, 0
2, 78628, Note_on_c, 0, 55, 0
2, 78629, Note_on_c, 0, 60, 0
2, 78631, Note_on_c, 0, 45, 0
2, 78638, Note_on_c, 0, 65, 0
2, 78721, Note_on_c, 0, 60, 113
2, 78722, Note_on_c, 0, 67, 117
2, 78722, Note_on_c, 0, 48, 83
2, 78723, Note_on_c, 0, 71, 122
2, 78724, Note_on_c, 0, 41, 104
2, 78793, Note_on_c, 0, 71, 0
2, 78793, Note_on_c, 0, 60, 0
2, 78795, Note_on_c, 0, 67, 0
2, 78800, Note_on_c, 0, 69, 108
2, 78801, Note_on_c, 0, 72, 108
2, 78804, Note_on_c, 0, 71, 94
2, 78815, Note_on_c, 0, 71, 0
2, 78818, Note_on_c, 0, 48, 0
2, 78819, Note_on_c, 0, 41, 0
2, 78823, Note_on_c, 0, 69, 0
2, 78829, Note_on_c, 0, 72, 0
2, 78929, Note_on_c, 0, 48, 104
2, 78930, Note_on_c, 0, 41, 91
2, 79092, Note_on_c, 0, 67, 108
2, 79094, Note_on_c, 0, 71, 117
2, 79121, Note_on_c, 0, 67, 0
2, 79122, Note_on_c, 0, 72, 104
2, 79124, Note_on_c, 0, 69, 97
2, 79130, Note_on_c, 0, 71, 0
2, 79148, Note_on_c, 0, 69, 0
2, 79152, Note_on_c, 0, 72, 0
2, 79169, Note_on_c, 0, 67, 113
2, 79171, Note_on_c, 0, 71, 113
2, 79179, Note_on_c, 0, 41, 0
2, 79184, Note_on_c, 0, 48, 0
2, 79202, Note_on_c, 0, 71, 0
2, 79207, Note_on_c, 0, 67, 0
2, 79213, Note_on_c, 0, 48, 101
2, 79215, Note_on_c, 0, 41, 94
2, 79253, Note_on_c, 0, 65, 117
2, 79255, Note_on_c, 0, 69, 122
2, 79280, Note_on_c, 0, 65, 0
2, 79284, Note_on_c, 0, 71, 94
2, 79284, Note_on_c, 0, 67, 104
2, 79290, Note_on_c, 0, 69, 0
2, 79316, Note_on_c, 0, 67, 0
2, 79321, Note_on_c, 0, 71, 0
2, 79328, Note_on_c, 0, 69, 113
2, 79328, Note_on_c, 0, 65, 117
2, 79363, Note_on_c, 0, 69, 0
2, 79372, Note_on_c, 0, 65, 0
2, 79385, Note_on_c, 0, 41, 0
2, 79404, Note_on_c, 0, 48, 0
2, 79442, Note_on_c, 0, 46, 80
2, 79444, Note_on_c, 0, 39, 80
2, 79445, Note_on_c, 0, 67, 113
2, 79446, Note_on_c, 0, 63, 100
2, 79512, Note_on_c, 0, 63, 0
2, 79512, Note_on_c, 0, 67, 0
2, 79524, Note_on_c, 0, 65, 101
2, 79525, Note_on_c, 0, 69, 97
2, 79560, Note_on_c, 0, 63, 100
2, 79561, Note_on_c, 0, 65, 0
2, 79568, Note_on_c, 0, 69, 0
2, 79592, Note_on_c, 0, 63, 0
2, 79641, Note_on_c, 0, 64, 127
2, 79642, Note_on_c, 0, 69, 113
2, 79643, Note_on_c, 0, 65, 122
2, 79652, Note_on_c, 0, 39, 0
2, 79655, Note_on_c, 0, 46, 0
2, 79685, Note_on_c, 0, 45, 101
2, 79686, Note_on_c, 0, 38, 97
2, 79726, Note_on_c, 0, 38, 0
2, 79731, Note_on_c, 0, 45, 0
2, 79890, Note_on_c, 0, 38, 101
2, 79891, Note_on_c, 0, 45, 127
2, 79912, Note_on_c, 0, 45, 0
2, 79920, Note_on_c, 0, 38, 0
2, 79929, Note_on_c, 0, 45, 97
2, 79933, Note_on_c, 0, 38, 94
2, 79970, Note_on_c, 0, 45, 0
2, 79983, Note_on_c, 0, 38, 0
2, 79998, Note_on_c, 0, 57, 62
2, 80001, Note_on_c, 0, 55, 57
2, 80010, Note_on_c, 0, 55, 0
2, 80013, Note_on_c, 0, 57, 0
2, 80034, Note_on_c, 0, 59, 88
2, 80034, Note_on_c, 0, 57, 88
2, 80079, Note_on_c, 0, 59, 0
2, 80080, Note_on_c, 0, 57, 0
2, 80120, Note_on_c, 0, 64, 0
2, 80123, Note_on_c, 0, 65, 0
2, 80126, Note_on_c, 0, 69, 0
2, 80160, Note_on_c, 0, 38, 101
2, 80161, Note_on_c, 0, 45, 108
2, 80170, Note_on_c, 0, 55, 122
2, 80170, Note_on_c, 0, 60, 127
2, 80172, Note_on_c, 0, 65, 94
2, 80172, Note_on_c, 0, 64, 97
2, 80181, Note_on_c, 0, 64, 0
2, 80185, Note_on_c, 0, 45, 0
2, 80186, Note_on_c, 0, 60, 0
2, 80187, Note_on_c, 0, 55, 0
2, 80192, Note_on_c, 0, 38, 0
2, 80201, Note_on_c, 0, 65, 0
2, 80290, Note_on_c, 0, 45, 104
2, 80291, Note_on_c, 0, 65, 101
2, 80291, Note_on_c, 0, 55, 113
2, 80291, Note_on_c, 0, 38, 91
2, 80292, Note_on_c, 0, 60, 117
2, 80568, Note_on_c, 0, 55, 0
2, 80570, Note_on_c, 0, 60, 0
2, 80571, Note_on_c, 0, 38, 0
2, 80578, Note_on_c, 0, 45, 0
2, 80580, Note_on_c, 0, 65, 0
2, 80626, Note_on_c, 0, 46, 100
2, 80626, Note_on_c, 0, 39, 76
2, 80634, Note_on_c, 0, 70, 104
2, 80635, Note_on_c, 0, 79, 127
2, 80635, Note_on_c, 0, 75, 104
2, 80699, Note_on_c, 0, 75, 0
2, 80700, Note_on_c, 0, 70, 0
2, 80707, Note_on_c, 0, 79, 0
2, 80713, Note_on_c, 0, 72, 83
2, 80714, Note_on_c, 0, 77, 104
2, 80715, Note_on_c, 0, 81, 94
2, 80725, Note_on_c, 0, 39, 0
2, 80726, Note_on_c, 0, 46, 0
2, 80737, Note_on_c, 0, 81, 0
2, 80737, Note_on_c, 0, 72, 0
2, 80740, Note_on_c, 0, 77, 0
2, 80833, Note_on_c, 0, 39, 83
2, 80834, Note_on_c, 0, 46, 100
2, 81063, Note_on_c, 0, 39, 0
2, 81071, Note_on_c, 0, 46, 0
2, 81128, Note_on_c, 0, 39, 91
2, 81130, Note_on_c, 0, 46, 104
2, 81159, Note_on_c, 0, 46, 0
2, 81160, Note_on_c, 0, 39, 0
2, 81327, Note_on_c, 0, 60, 122
2, 81328, Note_on_c, 0, 44, 110
2, 81328, Note_on_c, 0, 54, 104
2, 81329, Note_on_c, 0, 62, 113
2, 81595, Note_on_c, 0, 44, 0
2, 81598, Note_on_c, 0, 54, 0
2, 81599, Note_on_c, 0, 60, 0
2, 81599, Note_on_c, 0, 62, 0
2, 81606, Note_on_c, 0, 38, 113
2, 81607, Note_on_c, 0, 45, 108
2, 81652, Note_on_c, 0, 45, 0
2, 81654, Note_on_c, 0, 38, 0
2, 81806, Note_on_c, 0, 38, 91
2, 81807, Note_on_c, 0, 45, 113
2, 81833, Note_on_c, 0, 55, 104
2, 81844, Note_on_c, 0, 56, 87
2, 81853, Note_on_c, 0, 56, 0
2, 81853, Note_on_c, 0, 57, 104
2, 81862, Note_on_c, 0, 55, 0
2, 81922, Note_on_c, 0, 60, 70
2, 81932, Note_on_c, 0, 57, 0
2, 81967, Note_on_c, 0, 60, 0
2, 81969, Note_on_c, 0, 62, 108
2, 82009, Note_on_c, 0, 62, 0
2, 82029, Note_on_c, 0, 45, 0
2, 82031, Note_on_c, 0, 38, 0
2, 82085, Note_on_c, 0, 57, 104
2, 82086, Note_on_c, 0, 60, 113
2, 82088, Note_on_c, 0, 45, 117
2, 82088, Note_on_c, 0, 65, 97
2, 82088, Note_on_c, 0, 38, 83
2, 82112, Note_on_c, 0, 60, 0
2, 82115, Note_on_c, 0, 45, 0
2, 82116, Note_on_c, 0, 38, 0
2, 82116, Note_on_c, 0, 57, 0
2, 82117, Note_on_c, 0, 65, 0
2, 82207, Note_on_c, 0, 60, 117
2, 82208, Note_on_c, 0, 55, 104
2, 82208, Note_on_c, 0, 45, 104
2, 82209, Note_on_c, 0, 38, 94
2, 82210, Note_on_c, 0, 65, 104
2, 82480, Note_on_c, 0, 38, 0
2, 82490, Note_on_c, 0, 45, 0
2, 82492, Note_on_c, 0, 55, 0
2, 82498, Note_on_c, 0, 60, 0
2, 82509, Note_on_c, 0, 65, 0
2, 82560, Note_on_c, 0, 48, 94
2, 82560, Note_on_c, 0, 41, 94
2, 82566, Note_on_c, 0, 67, 127
2, 82567, Note_on_c, 0, 71, 122
2, 82569, Note_on_c, 0, 60, 117
2, 82569, Note_on_c, 0, 62, 104
2, 82572, Note_on_c, 0, 62, 0
2, 82630, Note_on_c, 0, 71, 0
2, 82632, Note_on_c, 0, 60, 0
2, 82635, Note_on_c, 0, 67, 0
2, 82651, Note_on_c, 0, 69, 122
2, 82653, Note_on_c, 0, 72, 108
2, 82674, Note_on_c, 0, 69, 0
2, 82676, Note_on_c, 0, 72, 0
2, 82676, Note_on_c, 0, 41, 0
2, 82679, Note_on_c, 0, 48, 0
2, 82757, Note_on_c, 0, 48, 117
2, 82758, Note_on_c, 0, 41, 97
2, 82937, Note_on_c, 0, 67, 108
2, 82938, Note_on_c, 0, 71, 122
2, 82968, Note_on_c, 0, 67, 0
2, 82976, Note_on_c, 0, 72, 88
2, 82977, Note_on_c, 0, 69, 97
2, 82980, Note_on_c, 0, 71, 0
2, 83006, Note_on_c, 0, 69, 0
2, 83012, Note_on_c, 0, 72, 0
2, 83020, Note_on_c, 0, 67, 108
2, 83021, Note_on_c, 0, 71, 122
2, 83024, Note_on_c, 0, 41, 0
2, 83033, Note_on_c, 0, 48, 0
2, 83051, Note_on_c, 0, 71, 0
2, 83057, Note_on_c, 0, 67, 0
2, 83068, Note_on_c, 0, 48, 97
2, 83069, Note_on_c, 0, 41, 91
2, 83100, Note_on_c, 0, 65, 108
2, 83102, Note_on_c, 0, 69, 122
2, 83128, Note_on_c, 0, 65, 0
2, 83134, Note_on_c, 0, 71, 104
2, 83137, Note_on_c, 0, 67, 94
2, 83141, Note_on_c, 0, 69, 0
2, 83166, Note_on_c, 0, 67, 0
2, 83171, Note_on_c, 0, 71, 0
2, 83177, Note_on_c, 0, 69, 101
2, 83178, Note_on_c, 0, 65, 117
2, 83215, Note_on_c, 0, 69, 0
2, 83230, Note_on_c, 0, 65, 0
2, 83235, Note_on_c, 0, 41, 0
2, 83251, Note_on_c, 0, 48, 0
2, 83286, Note_on_c, 0, 67, 113
2, 83288, Note_on_c, 0, 46, 95
2, 83288, Note_on_c, 0, 63, 100
2, 83291, Note_on_c, 0, 39, 73
2, 83344, Note_on_c, 0, 63, 0
2, 83352, Note_on_c, 0, 67, 0
2, 83362, Note_on_c, 0, 65, 97
2, 83363, Note_on_c, 0, 69, 91
2, 83395, Note_on_c, 0, 63, 83
2, 83401, Note_on_c, 0, 65, 0
2, 83406, Note_on_c, 0, 69, 0
2, 83436, Note_on_c, 0, 63, 0
2, 83478, Note_on_c, 0, 69, 108
2, 83478, Note_on_c, 0, 65, 122
2, 83480, Note_on_c, 0, 64, 122
2, 83483, Note_on_c, 0, 39, 0
2, 83488, Note_on_c, 0, 46, 0
2, 83519, Note_on_c, 0, 45, 101
2, 83520, Note_on_c, 0, 38, 97
2, 83585, Note_on_c, 0, 38, 0
2, 83589, Note_on_c, 0, 45, 0
2, 83727, Note_on_c, 0, 38, 88
2, 83729, Note_on_c, 0, 45, 127
2, 83758, Note_on_c, 0, 57, 113
2, 83800, Note_on_c, 0, 57, 0
2, 83809, Note_on_c, 0, 64, 0
2, 83814, Note_on_c, 0, 65, 0
2, 83826, Note_on_c, 0, 69, 0
2, 83841, Note_on_c, 0, 60, 86
2, 83867, Note_on_c, 0, 60, 0
2, 83873, Note_on_c, 0, 45, 0
2, 83881, Note_on_c, 0, 62, 127
2, 83883, Note_on_c, 0, 38, 0
2, 83936, Note_on_c, 0, 62, 0
2, 83999, Note_on_c, 0, 57, 108
2, 84000, Note_on_c, 0, 60, 122
2, 84001, Note_on_c, 0, 38, 88
2, 84001, Note_on_c, 0, 45, 122
2, 84002, Note_on_c, 0, 65, 104
2, 84022, Note_on_c, 0, 45, 0
2, 84026, Note_on_c, 0, 60, 0
2, 84028, Note_on_c, 0, 38, 0
2, 84032, Note_on_c, 0, 65, 0
2, 84034, Note_on_c, 0, 57, 0
2, 84122, Note_on_c, 0, 55, 113
2, 84123, Note_on_c, 0, 60, 113
2, 84124, Note_on_c, 0, 65, 101
2, 84125, Note_on_c, 0, 45, 117
2, 84125, Note_on_c, 0, 38, 94
2, 84420, Note_on_c, 0, 55, 0
2, 84423, Note_on_c, 0, 60, 0
2, 84434, Note_on_c, 0, 38, 0
2, 84434, Note_on_c, 0, 65, 0
2, 84444, Note_on_c, 0, 45, 0
2, 84480, Note_on_c, 0, 46, 100
2, 84481, Note_on_c, 0, 39, 76
2, 84486, Note_on_c, 0, 70, 104
2, 84487, Note_on_c, 0, 75, 110
2, 84487, Note_on_c, 0, 79, 127
2, 84546, Note_on_c, 0, 70, 0
2, 84549, Note_on_c, 0, 75, 0
2, 84560, Note_on_c, 0, 79, 0
2, 84564, Note_on_c, 0, 72, 97
2, 84565, Note_on_c, 0, 77, 108
2, 84567, Note_on_c, 0, 81, 104
2, 84582, Note_on_c, 0, 39, 0
2, 84585, Note_on_c, 0, 46, 0
2, 84587, Note_on_c, 0, 81, 0
2, 84588, Note_on_c, 0, 72, 0
2, 84589, Note_on_c, 0, 77, 0
2, 84685, Note_on_c, 0, 46, 104
2, 84686, Note_on_c, 0, 39, 80
2, 84928, Note_on_c, 0, 46, 0
2, 84931, Note_on_c, 0, 39, 0
2, 84964, Note_on_c, 0, 46, 104
2, 84965, Note_on_c, 0, 39, 91
2, 84988, Note_on_c, 0, 46, 0
2, 84998, Note_on_c, 0, 39, 0
2, 85162, Note_on_c, 0, 60, 104
2, 85163, Note_on_c, 0, 62, 101
2, 85163, Note_on_c, 0, 54, 95
2, 85164, Note_on_c, 0, 44, 100
2, 85425, Note_on_c, 0, 44, 0
2, 85425, Note_on_c, 0, 54, 0
2, 85426, Note_on_c, 0, 62, 0
2, 85426, Note_on_c, 0, 60, 0
2, 85436, Note_on_c, 0, 38, 108
2, 85437, Note_on_c, 0, 45, 113
2, 85486, Note_on_c, 0, 38, 0
2, 85487, Note_on_c, 0, 45, 0
2, 85655, Note_on_c, 0, 38, 91
2, 85656, Note_on_c, 0, 45, 108
2, 85685, Note_on_c, 0, 55, 104
2, 85696, Note_on_c, 0, 56, 91
2, 85704, Note_on_c, 0, 57, 122
2, 85705, Note_on_c, 0, 56, 0
2, 85714, Note_on_c, 0, 55, 0
2, 85765, Note_on_c, 0, 60, 75
2, 85776, Note_on_c, 0, 57, 0
2, 85804, Note_on_c, 0, 60, 0
2, 85813, Note_on_c, 0, 62, 101
2, 85856, Note_on_c, 0, 62, 0
2, 85868, Note_on_c, 0, 45, 0
2, 85870, Note_on_c, 0, 38, 0
2, 85924, Note_on_c, 0, 45, 108
2, 85925, Note_on_c, 0, 38, 88
2, 85926, Note_on_c, 0, 60, 113
2, 85926, Note_on_c, 0, 57, 101
2, 85927, Note_on_c, 0, 65, 97
2, 85950, Note_on_c, 0, 57, 0
2, 85952, Note_on_c, 0, 60, 0
2, 85954, Note_on_c, 0, 45, 0
2, 85957, Note_on_c, 0, 38, 0
2, 85962, Note_on_c, 0, 65, 0
2, 86047, Note_on_c, 0, 45, 108
2, 86048, Note_on_c, 0, 55, 108
2, 86049, Note_on_c, 0, 60, 122
2, 86050, Note_on_c, 0, 38, 97
2, 86050, Note_on_c, 0, 65, 104
2, 86305, Note_on_c, 0, 38, 0
2, 86313, Note_on_c, 0, 45, 0
2, 86324, Note_on_c, 0, 55, 0
2, 86326, Note_on_c, 0, 60, 0
2, 86334, Note_on_c, 0, 65, 0
2, 86403, Note_on_c, 0, 60, 108
2, 86403, Note_on_c, 0, 48, 86
2, 86404, Note_on_c, 0, 71, 127
2, 86405, Note_on_c, 0, 67, 122
2, 86406, Note_on_c, 0, 47, 101
2, 86407, Note_on_c, 0, 41, 101
2, 86407, Note_on_c, 0, 40, 101
2, 86437, Note_on_c, 0, 47, 0
2, 86447, Note_on_c, 0, 40, 0
2, 86475, Note_on_c, 0, 71, 0
2, 86480, Note_on_c, 0, 60, 0
2, 86482, Note_on_c, 0, 69, 104
2, 86484, Note_on_c, 0, 72, 104
2, 86487, Note_on_c, 0, 71, 81
2, 86492, Note_on_c, 0, 67, 0
2, 86496, Note_on_c, 0, 71, 0
2, 86497, Note_on_c, 0, 48, 0
2, 86504, Note_on_c, 0, 41, 0
2, 86507, Note_on_c, 0, 69, 0
2, 86513, Note_on_c, 0, 72, 0
2, 86609, Note_on_c, 0, 41, 91
2, 86609, Note_on_c, 0, 48, 108
2, 86769, Note_on_c, 0, 67, 113
2, 86769, Note_on_c, 0, 71, 117
2, 86802, Note_on_c, 0, 67, 0
2, 86803, Note_on_c, 0, 71, 0
2, 86803, Note_on_c, 0, 72, 88
2, 86804, Note_on_c, 0, 69, 94
2, 86834, Note_on_c, 0, 69, 0
2, 86837, Note_on_c, 0, 72, 0
2, 86845, Note_on_c, 0, 41, 0
2, 86847, Note_on_c, 0, 71, 117
2, 86849, Note_on_c, 0, 67, 108
2, 86852, Note_on_c, 0, 48, 0
2, 86881, Note_on_c, 0, 71, 0
2, 86886, Note_on_c, 0, 67, 0
2, 86887, Note_on_c, 0, 48, 101
2, 86889, Note_on_c, 0, 41, 91
2, 86932, Note_on_c, 0, 65, 113
2, 86934, Note_on_c, 0, 69, 117
2, 86961, Note_on_c, 0, 65, 0
2, 86968, Note_on_c, 0, 71, 97
2, 86971, Note_on_c, 0, 67, 91
2, 86975, Note_on_c, 0, 69, 0
2, 87007, Note_on_c, 0, 71, 0
2, 87012, Note_on_c, 0, 69, 97
2, 87014, Note_on_c, 0, 65, 101
2, 87021, Note_on_c, 0, 67, 0
2, 87050, Note_on_c, 0, 69, 0
2, 87062, Note_on_c, 0, 65, 0
2, 87062, Note_on_c, 0, 41, 0
2, 87080, Note_on_c, 0, 48, 0
2, 87123, Note_on_c, 0, 46, 100
2, 87124, Note_on_c, 0, 67, 104
2, 87125, Note_on_c, 0, 63, 100
2, 87127, Note_on_c, 0, 39, 71
2, 87192, Note_on_c, 0, 63, 0
2, 87206, Note_on_c, 0, 69, 83
2, 87207, Note_on_c, 0, 65, 83
2, 87224, Note_on_c, 0, 67, 0
2, 87227, Note_on_c, 0, 63, 80
2, 87241, Note_on_c, 0, 65, 0
2, 87249, Note_on_c, 0, 69, 0
2, 87277, Note_on_c, 0, 63, 0
2, 87324, Note_on_c, 0, 64, 127
2, 87325, Note_on_c, 0, 69, 108
2, 87326, Note_on_c, 0, 65, 122
2, 87335, Note_on_c, 0, 46, 0
2, 87336, Note_on_c, 0, 39, 0
2, 87370, Note_on_c, 0, 45, 97
2, 87372, Note_on_c, 0, 38, 97
2, 87436, Note_on_c, 0, 45, 0
2, 87437, Note_on_c, 0, 38, 0
2, 87575, Note_on_c, 0, 69, 0
2, 87577, Note_on_c, 0, 65, 0
2, 87577, Note_on_c, 0, 38, 94
2, 87579, Note_on_c, 0, 64, 0
2, 87579, Note_on_c, 0, 45, 117
2, 87613, Note_on_c, 0, 55, 101
2, 87622, Note_on_c, 0, 56, 95
2, 87634, Note_on_c, 0, 56, 0
2, 87636, Note_on_c, 0, 57, 101
2, 87639, Note_on_c, 0, 55, 0
2, 87693, Note_on_c, 0, 57, 0
2, 87696, Note_on_c, 0, 60, 77
2, 87725, Note_on_c, 0, 60, 0
2, 87735, Note_on_c, 0, 45, 0
2, 87738, Note_on_c, 0, 38, 0
2, 87739, Note_on_c, 0, 62, 104
2, 87774, Note_on_c, 0, 62, 0
2, 87854, Note_on_c, 0, 38, 104
2, 87855, Note_on_c, 0, 57, 108
2, 87855, Note_on_c, 0, 60, 122
2, 87857, Note_on_c, 0, 45, 122
2, 87857, Note_on_c, 0, 65, 91
2, 87872, Note_on_c, 0, 60, 0
2, 87875, Note_on_c, 0, 45, 0
2, 87875, Note_on_c, 0, 57, 0
2, 87877, Note_on_c, 0, 65, 0
2, 87882, Note_on_c, 0, 38, 0
2, 87971, Note_on_c, 0, 38, 88
2, 87971, Note_on_c, 0, 45, 108
2, 87972, Note_on_c, 0, 55, 94
2, 87972, Note_on_c, 0, 60, 104
2, 87973, Note_on_c, 0, 65, 88
2, 88251, Note_on_c, 0, 38, 0
2, 88259, Note_on_c, 0, 45, 0
2, 88267, Note_on_c, 0, 60, 0
2, 88267, Note_on_c, 0, 55, 0
2, 88274, Note_on_c, 0, 65, 0
2, 88320, Note_on_c, 0, 46, 100
2, 88321, Note_on_c, 0, 39, 76
2, 88326, Note_on_c, 0, 70, 104
2, 88327, Note_on_c, 0, 75, 110
2, 88327, Note_on_c, 0, 79, 127
2, 88386, Note_on_c, 0, 70, 0
2, 88389, Note_on_c, 0, 75, 0
2, 88400, Note_on_c, 0, 79, 0
2, 88404, Note_on_c, 0, 72, 97
2, 88405, Note_on_c, 0, 77, 108
2, 88407, Note_on_c, 0, 81, 104
2, 88422, Note_on_c, 0, 39, 0
2, 88425, Note_on_c, 0, 46, 0
2, 88427, Note_on_c, 0, 81, 0
2, 88428, Note_on_c, 0, 72, 0
2, 88429, Note_on_c, 0, 77, 0
2, 88525, Note_on_c, 0, 46, 104
2, 88526, Note_on_c, 0, 39, 80
2, 88768, Note_on_c, 0, 46, 0
2, 88771, Note_on_c, 0, 39, 0
2, 88804, Note_on_c, 0, 46, 104
2, 88805, Note_on_c, 0, 39, 91
2, 88828, Note_on_c, 0, 46, 0
2, 88838, Note_on_c, 0, 39, 0
2, 89002, Note_on_c, 0, 60, 104
2, 89003, Note_on_c, 0, 62, 101
2, 89003, Note_on_c, 0, 54, 95
2, 89004, Note_on_c, 0, 44, 100
2, 89265, Note_on_c, 0, 44, 0
2, 89265, Note_on_c, 0, 54, 0
2, 89266, Note_on_c, 0, 62, 0
2, 89266, Note_on_c, 0, 60, 0
2, 89276, Note_on_c, 0, 38, 108
2, 89277, Note_on_c, 0, 45, 113
2, 89326, Note_on_c, 0, 38, 0
2, 89327, Note_on_c, 0, 45, 0
2, 89495, Note_on_c, 0, 38, 91
2, 89496, Note_on_c, 0, 45, 108
2, 89525, Note_on_c, 0, 55, 104
2, 89536, Note_on_c, 0, 56, 91
2, 89544, Note_on_c, 0, 57, 122
2, 89545, Note_on_c, 0, 56, 0
2, 89554, Note_on_c, 0, 55, 0
2, 89605, Note_on_c, 0, 60, 75
2, 89616, Note_on_c, 0, 57, 0
2, 89644, Note_on_c, 0, 60, 0
2, 89653, Note_on_c, 0, 62, 101
2, 89696, Note_on_c, 0, 62, 0
2, 89708, Note_on_c, 0, 45, 0
2, 89710, Note_on_c, 0, 38, 0
2, 89764, Note_on_c, 0, 45, 108
2, 89765, Note_on_c, 0, 38, 88
2, 89766, Note_on_c, 0, 60, 113
2, 89766, Note_on_c, 0, 57, 101
2, 89767, Note_on_c, 0, 65, 97
2, 89790, Note_on_c, 0, 57, 0
2, 89792, Note_on_c, 0, 60, 0
2, 89794, Note_on_c, 0, 45, 0
2, 89797, Note_on_c, 0, 38, 0
2, 89802, Note_on_c, 0, 65, 0
2, 89887, Note_on_c, 0, 45, 108
2, 89888, Note_on_c, 0, 55, 108
2, 89889, Note_on_c, 0, 60, 122
2, 89890, Note_on_c, 0, 38, 97
2, 89890, Note_on_c, 0, 65, 104
2, 90145, Note_on_c, 0, 38, 0
2, 90153, Note_on_c, 0, 45, 0
2, 90164, Note_on_c, 0, 55, 0
2, 90166, Note_on_c, 0, 60, 0
2, 90174, Note_on_c, 0, 65, 0
2, 90243, Note_on_c, 0, 60, 108
2, 90243, Note_on_c, 0, 48, 86
2, 90244, Note_on_c, 0, 71, 127
2, 90245, Note_on_c, 0, 67, 122
2, 90246, Note_on_c, 0, 47, 101
2, 90247, Note_on_c, 0, 41, 101
2, 90247, Note_on_c, 0, 40, 101
2, 90277, Note_on_c, 0, 47, 0
2, 90287, Note_on_c, 0, 40, 0
2, 90315, Note_on_c, 0, 71, 0
2, 90320, Note_on_c, 0, 60, 0
2, 90322, Note_on_c, 0, 69, 104
2, 90324, Note_on_c, 0, 72, 104
2, 90327, Note_on_c, 0, 71, 81
2, 90332, Note_on_c, 0, 67, 0
2, 90336, Note_on_c, 0, 71, 0
2, 90337, Note_on_c, 0, 48, 0
2, 90344, Note_on_c, 0, 41, 0
2, 90347, Note_on_c, 0, 69, 0
2, 90353, Note_on_c, 0, 72, 0
2, 90449, Note_on_c, 0, 41, 78
2, 90449, Note_on_c, 0, 48, 78
2, 90609, Note_on_c, 0, 67, 78
2, 90609, Note_on_c, 0, 71, 78
2, 90642, Note_on_c, 0, 67, 0
2, 90643, Note_on_c, 0, 71, 0
2, 90643, Note_on_c, 0, 72, 78
2, 90644, Note_on_c, 0, 69, 78
2, 90674, Note_on_c, 0, 69, 0
2, 90677, Note_on_c, 0, 72, 0
2, 90685, Note_on_c, 0, 41, 0
2, 90687, Note_on_c, 0, 71, 77
2, 90689, Note_on_c, 0, 67, 77
2, 90692, Note_on_c, 0, 48, 0
2, 90721, Note_on_c, 0, 71, 0
2, 90726, Note_on_c, 0, 67, 0
2, 90727, Note_on_c, 0, 48, 75
2, 90729, Note_on_c, 0, 41, 75
2, 90772, Note_on_c, 0, 65, 70
2, 90774, Note_on_c, 0, 69, 70
2, 90801, Note_on_c, 0, 65, 0
2, 90808, Note_on_c, 0, 71, 66
2, 90811, Note_on_c, 0, 67, 66
2, 90815, Note_on_c, 0, 69, 0
2, 90847, Note_on_c, 0, 71, 0
2, 90852, Note_on_c, 0, 69, 69
2, 90854, Note_on_c, 0, 65, 69
2, 90861, Note_on_c, 0, 67, 0
2, 90890, Note_on_c, 0, 69, 0
2, 90902, Note_on_c, 0, 65, 0
2, 90902, Note_on_c, 0, 41, 0
2, 90920, Note_on_c, 0, 48, 0
2, 90963, Note_on_c, 0, 46, 68
2, 90964, Note_on_c, 0, 67, 68
2, 90965, Note_on_c, 0, 63, 68
2, 90967, Note_on_c, 0, 39, 68
2, 91032, Note_on_c, 0, 63, 0
2, 91046, Note_on_c, 0, 69, 67
2, 91047, Note_on_c, 0, 65, 67
2, 91064, Note_on_c, 0, 67, 0
2, 91067, Note_on_c, 0, 63, 67
2, 91081, Note_on_c, 0, 65, 0
2, 91089, Note_on_c, 0, 69, 0
2, 91117, Note_on_c, 0, 63, 0
2, 91164, Note_on_c, 0, 64, 67
2, 91165, Note_on_c, 0, 69, 67
2, 91166, Note_on_c, 0, 65, 67
2, 91175, Note_on_c, 0, 46, 0
2, 91176, Note_on_c, 0, 39, 0
2, 91210, Note_on_c, 0, 45, 66
2, 91212, Note_on_c, 0, 38, 66
2, 91276, Note_on_c, 0, 45, 0
2, 91277, Note_on_c, 0, 38, 0
2, 91415, Note_on_c, 0, 69, 0
2, 91417, Note_on_c, 0, 65, 0
2, 91417, Note_on_c, 0, 38, 57
2, 91419, Note_on_c, 0, 64, 0
2, 91419, Note_on_c, 0, 45, 57
2, 91453, Note_on_c, 0, 55, 57
2, 91462, Note_on_c, 0, 56, 57
2, 91474, Note_on_c, 0, 56, 0
2, 91476, Note_on_c, 0, 57, 57
2, 91479, Note_on_c, 0, 55, 0
2, 91533, Note_on_c, 0, 57, 0
2, 91536, Note_on_c, 0, 60, 54
2, 91565, Note_on_c, 0, 60, 0
2, 91575, Note_on_c, 0, 45, 0
2, 91578, Note_on_c, 0, 38, 0
2, 91579, Note_on_c, 0, 62, 53
2, 91614, Note_on_c, 0, 62, 0
2, 91694, Note_on_c, 0, 38, 53
2, 91695, Note_on_c, 0, 57, 53
2, 91695, Note_on_c, 0, 60, 53
2, 91697, Note_on_c, 0, 45, 53
2, 91697, Note_on_c, 0, 65, 53
2, 91712, Note_on_c, 0, 60, 0
2, 91715, Note_on_c, 0, 45, 0
2, 91715, Note_on_c, 0, 57, 0
2, 91717, Note_on_c, 0, 65, 0
2, 91722, Note_on_c, 0, 38, 0
2, 91811, Note_on_c, 0, 38, 53
2, 91811, Note_on_c, 0, 45, 53
2, 91812, Note_on_c, 0, 55, 53
2, 91812, Note_on_c, 0, 60, 53
2, 91813, Note_on_c, 0, 65, 53
2, 92091, Note_on_c, 0, 38, 0
2, 92099, Note_on_c, 0, 45, 0
2, 92107, Note_on_c, 0, 60, 0
2, 92107, Note_on_c, 0, 55, 0
2, 92114, Note_on_c, 0, 65, 0
2, 92160, Note_on_c, 0, 46, 53
2, 92161, Note_on_c, 0, 39, 53
2, 92166, Note_on_c, 0, 70, 53
2, 92167, Note_on_c, 0, 75, 53
2, 92167, Note_on_c, 0, 79, 53
2, 92226, Note_on_c, 0, 70, 0
2, 92229, Note_on_c, 0, 75, 0
2, 92240, Note_on_c, 0, 79, 0
2, 92244, Note_on_c, 0, 72, 53
2, 92245, Note_on_c, 0, 77, 53
2, 92247, Note_on_c, 0, 81, 53
2, 92262, Note_on_c, 0, 39, 0
2, 92265, Note_on_c, 0, 46, 0
2, 92267, Note_on_c, 0, 81, 0
2, 92268, Note_on_c, 0, 72, 0
2, 92269, Note_on_c, 0, 77, 0
2, 92365, Note_on_c, 0, 46, 53
2, 92366, Note_on_c, 0, 39, 53
2, 92608, Note_on_c, 0, 46, 0
2, 92611, Note_on_c, 0, 39, 0
2, 92644, Note_on_c, 0, 46, 53
2, 92645, Note_on_c, 0, 39, 53
2, 92668, Note_on_c, 0, 46, 0
2, 92678, Note_on_c, 0, 39, 0
2, 92842, Note_on_c, 0, 60, 44
2, 92843, Note_on_c, 0, 62, 44
2, 92843, Note_on_c, 0, 54, 44
2, 92844, Note_on_c, 0, 44, 44
2, 93105, Note_on_c, 0, 44, 0
2, 93105, Note_on_c, 0, 54, 0
2, 93106, Note_on_c, 0, 62, 0
2, 93106, Note_on_c, 0, 60, 0
2, 93116, Note_on_c, 0, 38, 44
2, 93117, Note_on_c, 0, 45, 44
2, 93166, Note_on_c, 0, 38, 0
2, 93167, Note_on_c, 0, 45, 0
2, 93335, Note_on_c, 0, 38, 44
2, 93336, Note_on_c, 0, 45, 44
2, 93365, Note_on_c, 0, 55, 44
2, 93376, Note_on_c, 0, 56, 44
2, 93384, Note_on_c, 0, 57, 44
2, 93385, Note_on_c, 0, 56, 0
2, 93394, Note_on_c, 0, 55, 0
2, 93445, Note_on_c, 0, 60, 44
2, 93456, Note_on_c, 0, 57, 0
2, 93484, Note_on_c, 0, 60, 0
2, 93493, Note_on_c, 0, 62, 44
2, 93536, Note_on_c, 0, 62, 0
2, 93548, Note_on_c, 0, 45, 0
2, 93550, Note_on_c, 0, 38, 0
2, 93604, Note_on_c, 0, 45, 44
2, 93605, Note_on_c, 0, 38, 44
2, 93606, Note_on_c, 0, 60, 44
2, 93606, Note_on_c, 0, 57, 44
2, 93607, Note_on_c, 0, 65, 44
2, 93630, Note_on_c, 0, 57, 0
2, 93632, Note_on_c, 0, 60, 0
2, 93634, Note_on_c, 0, 45, 0
2, 93637, Note_on_c, 0, 38, 0
2, 93642, Note_on_c, 0, 65, 0
2, 93727, Note_on_c, 0, 45, 44
2, 93728, Note_on_c, 0, 55, 44
2, 93729, Note_on_c, 0, 60, 44
2, 93730, Note_on_c, 0, 38, 44
2, 93730, Note_on_c, 0, 65, 44
2, 93985, Note_on_c, 0, 38, 0
2, 93993, Note_on_c, 0, 45, 0
2, 94004, Note_on_c, 0, 55, 0
2, 94006, Note_on_c, 0, 60, 0
2, 94014, Note_on_c, 0, 65, 0
2, 94083, Note_on_c, 0, 60, 34
2, 94083, Note_on_c, 0, 48, 34
2, 94084, Note_on_c, 0, 71, 34
2, 94085, Note_on_c, 0, 67, 34
2, 94086, Note_on_c, 0, 47, 34
2, 94087, Note_on_c, 0, 41, 34
2, 94087, Note_on_c, 0, 40, 34
2, 94117, Note_on_c, 0, 47, 0
2, 94127, Note_on_c, 0, 40, 0
2, 94155, Note_on_c, 0, 71, 0
2, 94160, Note_on_c, 0, 60, 0
2, 94162, Note_on_c, 0, 69, 29
2, 94164, Note_on_c, 0, 72, 29
2, 94167, Note_on_c, 0, 71, 29
2, 94172, Note_on_c, 0, 67, 0
2, 94176, Note_on_c, 0, 71, 0
2, 94177, Note_on_c, 0, 48, 0
2, 94184, Note_on_c, 0, 41, 0
2, 94187, Note_on_c, 0, 69, 0
2, 94193, Note_on_c, 0, 72, 0
2, 94289, Note_on_c, 0, 41, 29
2, 94289, Note_on_c, 0, 48, 29
2, 94449, Note_on_c, 0, 67, 28
2, 94449, Note_on_c, 0, 71, 28
2, 94482, Note_on_c, 0, 67, 0
2, 94483, Note_on_c, 0, 71, 0
2, 94483, Note_on_c, 0, 72, 28
2, 94484, Note_on_c, 0, 69, 28
2, 94514, Note_on_c, 0, 69, 0
2, 94517, Note_on_c, 0, 72, 0
2, 94525, Note_on_c, 0, 41, 0
2, 94527, Note_on_c, 0, 71, 26
2, 94529, Note_on_c, 0, 67, 26
2, 94532, Note_on_c, 0, 48, 0
2, 94561, Note_on_c, 0, 71, 0
2, 94566, Note_on_c, 0, 67, 0
2, 94567, Note_on_c, 0, 48, 26
2, 94569, Note_on_c, 0, 41, 26
2, 94612, Note_on_c, 0, 65, 19
2, 94614, Note_on_c, 0, 69, 19
2, 94641, Note_on_c, 0, 65, 0
2, 94648, Note_on_c, 0, 71, 19
2, 94651, Note_on_c, 0, 67, 18
2, 94655, Note_on_c, 0, 69, 0
2, 94687, Note_on_c, 0, 71, 0
2, 94692, Note_on_c, 0, 69, 17
2, 94694, Note_on_c, 0, 65, 17
2, 94701, Note_on_c, 0, 67, 0
2, 94730, Note_on_c, 0, 69, 0
2, 94742, Note_on_c, 0, 65, 0
2, 94742, Note_on_c, 0, 41, 0
2, 94760, Note_on_c, 0, 48, 0
2, 94803, Note_on_c, 0, 46, 17
2, 94804, Note_on_c, 0, 67, 17
2, 94805, Note_on_c, 0, 63, 17
2, 94807, Note_on_c, 0, 39, 17
2, 94872, Note_on_c, 0, 63, 0
2, 94886, Note_on_c, 0, 69, 17
2, 94887, Note_on_c, 0, 65, 17
2, 94904, Note_on_c, 0, 67, 0
2, 94907, Note_on_c, 0, 63, 17
2, 94921, Note_on_c, 0, 65, 0
2, 94929, Note_on_c, 0, 69, 0
2, 94957, Note_on_c, 0, 63, 0
2, 95004, Note_on_c, 0, 64, 17
2, 95005, Note_on_c, 0, 69, 17
2, 95006, Note_on_c, 0, 65, 17
2, 95015, Note_on_c, 0, 46, 0
2, 95016, Note_on_c, 0, 39, 0
2, 95050, Note_on_c, 0, 45, 17
2, 95052, Note_on_c, 0, 38, 17
2, 95116, Note_on_c, 0, 45, 0
2, 95117, Note_on_c, 0, 38, 0
2, 95255, Note_on_c, 0, 69, 0
2, 95257, Note_on_c, 0, 65, 0
2, 95257, Note_on_c, 0, 38, 10
2, 95259, Note_on_c, 0, 64, 0
2, 95259, Note_on_c, 0, 45, 10
2, 95293, Note_on_c, 0, 55, 10
2, 95302, Note_on_c, 0, 56, 9
2, 95314, Note_on_c, 0, 56, 0
2, 95316, Note_on_c, 0, 57, 8
2, 95319, Note_on_c, 0, 55, 0
2, 95373, Note_on_c, 0, 57, 0
2, 95376, Note_on_c, 0, 60, 7
2, 95405, Note_on_c, 0, 60, 0
2, 95415, Note_on_c, 0, 45, 0
2, 95418, Note_on_c, 0, 38, 0
2, 95419, Note_on_c, 0, 62, 7
2, 95454, Note_on_c, 0, 62, 0
2, 95534, Note_on_c, 0, 38, 4
2, 95535, Note_on_c, 0, 57, 4
2, 95535, Note_on_c, 0, 60, 4
2, 95537, Note_on_c, 0, 45, 4
2, 95537, Note_on_c, 0, 65, 4
2, 95552, Note_on_c, 0, 60, 0
2, 95555, Note_on_c, 0, 45, 0
2, 95555, Note_on_c, 0, 57, 0
2, 95557, Note_on_c, 0, 65, 0
2, 95562, Note_on_c, 0, 38, 0
2, 95651, Note_on_c, 0, 38, 1
2, 95651, Note_on_c, 0, 45, 1
2, 95652, Note_on_c, 0, 55, 1
2, 95652, Note_on_c, 0, 60, 1
2, 95653, Note_on_c, 0, 65, 1
2, 95931, Note_on_c, 0, 38, 0
2, 95939, Note_on_c, 0, 45, 0
2, 95947, Note_on_c, 0, 60, 0
2, 95947, Note_on_c, 0, 55, 0
2, 95954, Note_on_c, 0, 65, 0
2, 95954, End_track
3, 0, Start_track
3, 0, MIDI_port, 0
3, 0, Title_t, "Bass"
3, 0, Control_c, 1, 0, 56
3, 0, Control_c, 1, 32, 0
3, 0, Program_c, 1, 33
3, 0, Control_c, 1, 7, 127
3, 0, Control_c, 1, 10, 94
3, 240, Control_c, 1, 7, 127
3, 240, Control_c, 1, 10, 73
3, 240, Control_c, 1, 93, 0
3, 240, Control_c, 1, 91, 0
3, 480, Control_c, 1, 93, 0
3, 480, Control_c, 1, 91, 0
3, 501, Note_on_c, 1, 42, 100
3, 502, Note_on_c, 1, 49, 104
3, 521, Note_on_c, 1, 49, 0
3, 522, Note_on_c, 1, 42, 0
3, 684, Note_on_c, 1, 49, 80
3, 684, Note_on_c, 1, 42, 83
3, 924, Note_on_c, 1, 42, 0
3, 924, Note_on_c, 1, 49, 0
3, 968, Note_on_c, 1, 42, 95
3, 970, Note_on_c, 1, 49, 100
3, 1000, Note_on_c, 1, 49, 0
3, 1002, Note_on_c, 1, 42, 0
3, 1166, Note_on_c, 1, 49, 95
3, 1166, Note_on_c, 1, 42, 91
3, 1347, Note_on_c, 1, 42, 0
3, 1354, Note_on_c, 1, 49, 0
3, 1442, Note_on_c, 1, 47, 108
3, 1442, Note_on_c, 1, 54, 95
3, 1478, Note_on_c, 1, 54, 0
3, 1489, Note_on_c, 1, 47, 0
3, 1628, Note_on_c, 1, 47, 91
3, 1629, Note_on_c, 1, 54, 83
3, 1798, Control_c, 1, 7, 127
3, 1798, Control_c, 1, 10, 64
3, 1798, Control_c, 1, 93, 0
3, 1798, Control_c, 1, 91, 0
3, 1856, Note_on_c, 1, 47, 0
3, 1867, Note_on_c, 1, 54, 0
3, 1914, Note_on_c, 1, 44, 87
3, 1915, Note_on_c, 1, 51, 104
3, 1963, Note_on_c, 1, 51, 0
3, 1972, Note_on_c, 1, 44, 0
3, 2118, Note_on_c, 1, 51, 95
3, 2118, Note_on_c, 1, 44, 87
3, 2359, Note_on_c, 1, 44, 0
3, 2359, Note_on_c, 1, 51, 0
3, 2395, Note_on_c, 1, 40, 91
3, 2396, Note_on_c, 1, 47, 108
3, 2447, Note_on_c, 1, 47, 0
3, 2447, Note_on_c, 1, 40, 0
3, 2599, Note_on_c, 1, 40, 94
3, 2600, Note_on_c, 1, 47, 101
3, 2824, Note_on_c, 1, 40, 0
3, 2843, Note_on_c, 1, 47, 0
3, 2871, Note_on_c, 1, 51, 91
3, 2872, Note_on_c, 1, 44, 83
3, 2904, Note_on_c, 1, 51, 0
3, 2907, Note_on_c, 1, 44, 0
3, 3079, Note_on_c, 1, 44, 80
3, 3081, Note_on_c, 1, 51, 91
3, 3326, Note_on_c, 1, 44, 0
3, 3333, Note_on_c, 1, 51, 0
3, 3352, Note_on_c, 1, 46, 87
3, 3354, Note_on_c, 1, 39, 87
3, 3404, Note_on_c, 1, 39, 0
3, 3410, Note_on_c, 1, 46, 0
3, 3558, Note_on_c, 1, 39, 80
3, 3560, Note_on_c, 1, 46, 83
3, 3799, Note_on_c, 1, 39, 0
3, 3804, Note_on_c, 1, 46, 0
3, 3839, Note_on_c, 1, 39, 83
3, 3839, Note_on_c, 1, 46, 80
3, 3893, Note_on_c, 1, 46, 0
3, 3899, Note_on_c, 1, 39, 0
3, 4046, Note_on_c, 1, 39, 87
3, 4047, Note_on_c, 1, 46, 83
3, 4297, Note_on_c, 1, 39, 0
3, 4300, Note_on_c, 1, 46, 0
3, 4328, Note_on_c, 1, 49, 95
3, 4330, Note_on_c, 1, 42, 87
3, 4358, Note_on_c, 1, 49, 0
3, 4387, Note_on_c, 1, 42, 0
3, 4526, Note_on_c, 1, 49, 87
3, 4527, Note_on_c, 1, 42, 100
3, 4777, Note_on_c, 1, 49, 0
3, 4790, Note_on_c, 1, 42, 0
3, 4797, Note_on_c, 1, 47, 81
3, 4798, Note_on_c, 1, 54, 87
3, 4836, Note_on_c, 1, 54, 0
3, 4870, Note_on_c, 1, 47, 0
3, 4992, Note_on_c, 1, 47, 79
3, 4996, Note_on_c, 1, 54, 80
3, 5255, Note_on_c, 1, 54, 0
3, 5262, Note_on_c, 1, 47, 0
3, 5271, Note_on_c, 1, 51, 83
3, 5272, Note_on_c, 1, 44, 73
3, 5314, Note_on_c, 1, 44, 0
3, 5326, Note_on_c, 1, 51, 0
3, 5480, Note_on_c, 1, 51, 91
3, 5483, Note_on_c, 1, 44, 71
3, 5733, Note_on_c, 1, 51, 0
3, 5736, Note_on_c, 1, 44, 0
3, 5765, Note_on_c, 1, 47, 94
3, 5766, Note_on_c, 1, 54, 87
3, 5804, Note_on_c, 1, 54, 0
3, 5836, Note_on_c, 1, 47, 0
3, 5963, Note_on_c, 1, 47, 91
3, 5965, Note_on_c, 1, 54, 83
3, 6194, Note_on_c, 1, 54, 0
3, 6204, Note_on_c, 1, 47, 0
3, 6233, Note_on_c, 1, 40, 83
3, 6236, Note_on_c, 1, 47, 97
3, 6294, Note_on_c, 1, 47, 0
3, 6298, Note_on_c, 1, 40, 0
3, 6430, Note_on_c, 1, 40, 73
3, 6432, Note_on_c, 1, 47, 81
3, 6651, Note_on_c, 1, 47, 0
3, 6661, Note_on_c, 1, 40, 0
3, 6698, Note_on_c, 1, 40, 73
3, 6701, Note_on_c, 1, 47, 83
3, 6780, Note_on_c, 1, 47, 0
3, 6801, Note_on_c, 1, 40, 0
3, 6919, Note_on_c, 1, 45, 101
3, 7176, Note_on_c, 1, 45, 0
3, 7185, Note_on_c, 1, 46, 73
3, 7187, Note_on_c, 1, 39, 73
3, 7246, Note_on_c, 1, 46, 0
3, 7254, Note_on_c, 1, 39, 0
3, 7402, Note_on_c, 1, 39, 76
3, 7403, Note_on_c, 1, 46, 80
3, 7628, Note_on_c, 1, 46, 0
3, 7631, Note_on_c, 1, 39, 0
3, 7676, Note_on_c, 1, 46, 73
3, 7677, Note_on_c, 1, 39, 68
3, 7730, Note_on_c, 1, 46, 0
3, 7742, Note_on_c, 1, 39, 0
3, 7872, Note_on_c, 1, 46, 76
3, 7873, Note_on_c, 1, 39, 83
3, 8097, Note_on_c, 1, 46, 0
3, 8101, Note_on_c, 1, 39, 0
3, 8160, Note_on_c, 1, 47, 108
3, 8160, Note_on_c, 1, 40, 91
3, 8215, Note_on_c, 1, 47, 0
3, 8229, Note_on_c, 1, 40, 0
3, 8355, Note_on_c, 1, 40, 88
3, 8355, Note_on_c, 1, 47, 91
3, 8584, Note_on_c, 1, 40, 0
3, 8590, Note_on_c, 1, 47, 0
3, 8645, Note_on_c, 1, 40, 88
3, 8648, Note_on_c, 1, 47, 91
3, 8696, Note_on_c, 1, 47, 0
3, 8697, Note_on_c, 1, 40, 0
3, 8834, Note_on_c, 1, 45, 101
3, 9105, Note_on_c, 1, 45, 0
3, 9111, Note_on_c, 1, 46, 80
3, 9112, Note_on_c, 1, 39, 71
3, 9153, Note_on_c, 1, 46, 0
3, 9155, Note_on_c, 1, 39, 0
3, 9317, Note_on_c, 1, 46, 87
3, 9317, Note_on_c, 1, 39, 76
3, 9544, Note_on_c, 1, 39, 0
3, 9547, Note_on_c, 1, 46, 0
3, 9599, Note_on_c, 1, 39, 65
3, 9599, Note_on_c, 1, 46, 68
3, 9661, Note_on_c, 1, 46, 0
3, 9668, Note_on_c, 1, 39, 0
3, 9812, Note_on_c, 1, 46, 76
3, 9812, Note_on_c, 1, 39, 80
3, 9943, Note_on_c, 1, 39, 0
3, 9999, Note_on_c, 1, 46, 0
3, 10037, Note_on_c, 1, 39, 100
3, 10075, Note_on_c, 1, 39, 0
3, 10079, Note_on_c, 1, 34, 100
3, 10348, Note_on_c, 1, 34, 0
3, 10755, Note_on_c, 1, 46, 95
3, 10787, Note_on_c, 1, 46, 0
3, 10799, Note_on_c, 1, 41, 101
3, 10859, Note_on_c, 1, 41, 0
3, 10918, Note_on_c, 1, 41, 97
3, 11028, Note_on_c, 1, 41, 0
3, 11035, Note_on_c, 1, 34, 76
3, 11122, Note_on_c, 1, 34, 0
3, 11159, Note_on_c, 1, 34, 44
3, 11285, Note_on_c, 1, 34, 0
3, 11296, Note_on_c, 1, 41, 97
3, 11344, Note_on_c, 1, 41, 0
3, 11407, Note_on_c, 1, 34, 83
3, 11523, Note_on_c, 1, 34, 0
3, 11526, Note_on_c, 1, 36, 113
3, 11655, Note_on_c, 1, 36, 0
3, 11729, Note_on_c, 1, 36, 91
3, 11754, Note_on_c, 1, 36, 0
3, 11771, Note_on_c, 1, 43, 127
3, 11887, Note_on_c, 1, 43, 0
3, 11893, Note_on_c, 1, 36, 81
3, 11999, Note_on_c, 1, 36, 0
3, 12007, Note_on_c, 1, 39, 91
3, 12220, Note_on_c, 1, 39, 0
3, 12236, Note_on_c, 1, 46, 104
3, 12314, Note_on_c, 1, 46, 0
3, 12342, Note_on_c, 1, 39, 47
3, 12362, Note_on_c, 1, 51, 73
3, 12366, Note_on_c, 1, 39, 0
3, 12409, Note_on_c, 1, 51, 0
3, 12444, Note_on_c, 1, 51, 110
3, 12473, Note_on_c, 1, 51, 0
3, 12677, Note_on_c, 1, 46, 104
3, 12705, Note_on_c, 1, 46, 0
3, 12729, Note_on_c, 1, 46, 91
3, 12823, Note_on_c, 1, 46, 0
3, 12842, Note_on_c, 1, 39, 91
3, 12935, Note_on_c, 1, 39, 0
3, 12967, Note_on_c, 1, 37, 87
3, 13093, Note_on_c, 1, 37, 0
3, 13170, Note_on_c, 1, 37, 87
3, 13187, Note_on_c, 1, 37, 0
3, 13210, Note_on_c, 1, 44, 110
3, 13304, Note_on_c, 1, 44, 0
3, 13332, Note_on_c, 1, 37, 80
3, 13439, Note_on_c, 1, 37, 0
3, 13450, Note_on_c, 1, 44, 95
3, 13528, Note_on_c, 1, 44, 0
3, 13651, Note_on_c, 1, 44, 87
3, 13679, Note_on_c, 1, 44, 0
3, 13697, Note_on_c, 1, 39, 87
3, 13803, Note_on_c, 1, 39, 0
3, 13813, Note_on_c, 1, 44, 71
3, 13909, Note_on_c, 1, 44, 0
3, 13927, Note_on_c, 1, 42, 91
3, 14081, Note_on_c, 1, 42, 0
3, 14162, Note_on_c, 1, 37, 83
3, 14276, Note_on_c, 1, 37, 0
3, 14284, Note_on_c, 1, 42, 76
3, 14402, Note_on_c, 1, 42, 0
3, 14407, Note_on_c, 1, 34, 83
3, 14560, Note_on_c, 1, 34, 0
3, 14586, Note_on_c, 1, 36, 83
3, 14622, Note_on_c, 1, 36, 0
3, 14636, Note_on_c, 1, 37, 100
3, 14703, Note_on_c, 1, 37, 0
3, 14712, Note_on_c, 1, 36, 94
3, 14756, Note_on_c, 1, 34, 80
3, 14757, Note_on_c, 1, 36, 0
3, 14820, Note_on_c, 1, 34, 0
3, 14881, Note_on_c, 1, 34, 83
3, 14999, Note_on_c, 1, 34, 0
3, 15002, Note_on_c, 1, 46, 91
3, 15074, Note_on_c, 1, 46, 0
3, 15119, Note_on_c, 1, 41, 101
3, 15196, Note_on_c, 1, 41, 0
3, 15239, Note_on_c, 1, 37, 87
3, 15319, Note_on_c, 1, 37, 0
3, 15361, Note_on_c, 1, 36, 94
3, 15484, Note_on_c, 1, 36, 0
3, 15565, Note_on_c, 1, 36, 77
3, 15576, Note_on_c, 1, 36, 0
3, 15606, Note_on_c, 1, 43, 127
3, 15710, Note_on_c, 1, 43, 0
3, 15723, Note_on_c, 1, 36, 94
3, 15830, Note_on_c, 1, 36, 0
3, 15845, Note_on_c, 1, 38, 108
3, 16028, Note_on_c, 1, 38, 0
3, 16074, Note_on_c, 1, 45, 104
3, 16200, Note_on_c, 1, 45, 0
3, 16210, Note_on_c, 1, 38, 108
3, 16328, Note_on_c, 1, 34, 76
3, 16332, Note_on_c, 1, 38, 0
3, 16426, Note_on_c, 1, 34, 0
3, 16523, Note_on_c, 1, 34, 61
3, 16548, Note_on_c, 1, 34, 0
3, 16572, Note_on_c, 1, 41, 104
3, 16646, Note_on_c, 1, 41, 0
3, 16687, Note_on_c, 1, 46, 104
3, 16746, Note_on_c, 1, 46, 0
3, 16761, Note_on_c, 1, 46, 87
3, 16794, Note_on_c, 1, 46, 0
3, 17006, Note_on_c, 1, 46, 100
3, 17048, Note_on_c, 1, 46, 0
3, 17056, Note_on_c, 1, 41, 104
3, 17164, Note_on_c, 1, 34, 83
3, 17166, Note_on_c, 1, 41, 0
3, 17283, Note_on_c, 1, 34, 0
3, 17284, Note_on_c, 1, 36, 104
3, 17383, Note_on_c, 1, 36, 0
3, 17482, Note_on_c, 1, 36, 60
3, 17503, Note_on_c, 1, 36, 0
3, 17529, Note_on_c, 1, 43, 122
3, 17640, Note_on_c, 1, 43, 0
3, 17650, Note_on_c, 1, 36, 81
3, 17755, Note_on_c, 1, 36, 0
3, 17761, Note_on_c, 1, 41, 91
3, 17854, Note_on_c, 1, 41, 0
3, 17958, Note_on_c, 1, 41, 88
3, 18000, Note_on_c, 1, 41, 0
3, 18006, Note_on_c, 1, 36, 94
3, 18178, Note_on_c, 1, 36, 0
3, 18192, Note_on_c, 1, 41, 97
3, 18244, Note_on_c, 1, 34, 76
3, 18245, Note_on_c, 1, 41, 0
3, 18383, Note_on_c, 1, 34, 0
3, 18445, Note_on_c, 1, 34, 63
3, 18464, Note_on_c, 1, 34, 0
3, 18492, Note_on_c, 1, 41, 117
3, 18620, Note_on_c, 1, 41, 0
3, 18738, Note_on_c, 1, 40, 117
3, 18878, Note_on_c, 1, 40, 0
3, 18915, Note_on_c, 1, 40, 75
3, 18968, Note_on_c, 1, 40, 0
3, 18968, Note_on_c, 1, 34, 59
3, 19079, Note_on_c, 1, 34, 0
3, 19080, Note_on_c, 1, 40, 108
3, 19199, Note_on_c, 1, 40, 0
3, 19209, Note_on_c, 1, 39, 95
3, 19294, Note_on_c, 1, 39, 0
3, 19389, Note_on_c, 1, 39, 63
3, 19397, Note_on_c, 1, 39, 0
3, 19432, Note_on_c, 1, 46, 110
3, 19617, Note_on_c, 1, 46, 0
3, 19638, Note_on_c, 1, 39, 36
3, 19650, Note_on_c, 1, 39, 0
3, 19679, Note_on_c, 1, 45, 127
3, 19774, Note_on_c, 1, 45, 0
3, 19869, Note_on_c, 1, 45, 91
3, 19913, Note_on_c, 1, 45, 0
3, 19922, Note_on_c, 1, 39, 65
3, 20126, Note_on_c, 1, 39, 0
3, 20156, Note_on_c, 1, 38, 127
3, 20217, Note_on_c, 1, 38, 0
3, 20418, Note_on_c, 1, 33, 97
3, 20490, Note_on_c, 1, 36, 75
3, 20491, Note_on_c, 1, 33, 0
3, 20528, Note_on_c, 1, 36, 0
3, 20537, Note_on_c, 1, 38, 108
3, 20590, Note_on_c, 1, 38, 0
3, 20655, Note_on_c, 1, 38, 108
3, 20692, Note_on_c, 1, 38, 0
3, 20777, Note_on_c, 1, 38, 117
3, 21102, Note_on_c, 1, 38, 0
3, 21120, Note_on_c, 1, 39, 91
3, 21121, Note_on_c, 1, 46, 95
3, 21155, Note_on_c, 1, 39, 0
3, 21161, Note_on_c, 1, 46, 0
3, 21310, Note_on_c, 1, 39, 83
3, 21311, Note_on_c, 1, 46, 76
3, 21504, Note_on_c, 1, 46, 0
3, 21506, Note_on_c, 1, 39, 0
3, 21594, Note_on_c, 1, 39, 91
3, 21594, Note_on_c, 1, 46, 91
3, 21627, Note_on_c, 1, 39, 0
3, 21634, Note_on_c, 1, 46, 0
3, 21807, Note_on_c, 1, 39, 91
3, 21807, Note_on_c, 1, 46, 87
3, 22032, Note_on_c, 1, 39, 0
3, 22042, Note_on_c, 1, 46, 0
3, 22077, Note_on_c, 1, 38, 113
3, 22078, Note_on_c, 1, 45, 122
3, 22131, Note_on_c, 1, 38, 0
3, 22133, Note_on_c, 1, 45, 0
3, 22273, Note_on_c, 1, 45, 104
3, 22274, Note_on_c, 1, 38, 94
3, 22495, Note_on_c, 1, 45, 0
3, 22499, Note_on_c, 1, 38, 0
3, 22570, Note_on_c, 1, 38, 104
3, 22570, Note_on_c, 1, 45, 113
3, 22604, Note_on_c, 1, 45, 0
3, 22609, Note_on_c, 1, 38, 0
3, 22747, Note_on_c, 1, 38, 77
3, 22749, Note_on_c, 1, 45, 88
3, 22978, Note_on_c, 1, 45, 0
3, 22988, Note_on_c, 1, 38, 0
3, 23042, Note_on_c, 1, 39, 87
3, 23044, Note_on_c, 1, 46, 104
3, 23081, Note_on_c, 1, 46, 0
3, 23088, Note_on_c, 1, 39, 0
3, 23230, Note_on_c, 1, 39, 83
3, 23231, Note_on_c, 1, 46, 95
3, 23450, Note_on_c, 1, 46, 0
3, 23453, Note_on_c, 1, 39, 0
3, 23530, Note_on_c, 1, 46, 87
3, 23531, Note_on_c, 1, 39, 87
3, 23577, Note_on_c, 1, 46, 0
3, 23581, Note_on_c, 1, 39, 0
3, 23739, Note_on_c, 1, 39, 91
3, 23739, Note_on_c, 1, 46, 95
3, 23905, Note_on_c, 1, 46, 0
3, 23907, Note_on_c, 1, 39, 0
3, 23961, Note_on_c, 1, 39, 71
3, 23977, Note_on_c, 1, 38, 75
3, 23989, Note_on_c, 1, 37, 71
3, 23990, Note_on_c, 1, 39, 0
3, 23992, Note_on_c, 1, 38, 0
3, 24006, Note_on_c, 1, 36, 101
3, 24007, Note_on_c, 1, 37, 0
3, 24092, Note_on_c, 1, 36, 0
3, 24197, Note_on_c, 1, 36, 88
3, 24211, Note_on_c, 1, 36, 0
3, 24236, Note_on_c, 1, 43, 127
3, 24359, Note_on_c, 1, 43, 0
3, 24369, Note_on_c, 1, 36, 94
3, 24487, Note_on_c, 1, 36, 0
3, 24493, Note_on_c, 1, 41, 104
3, 24615, Note_on_c, 1, 41, 0
3, 24689, Note_on_c, 1, 41, 104
3, 24729, Note_on_c, 1, 41, 0
3, 24734, Note_on_c, 1, 36, 94
3, 24855, Note_on_c, 1, 36, 0
3, 24855, Note_on_c, 1, 33, 94
3, 24976, Note_on_c, 1, 34, 110
3, 24977, Note_on_c, 1, 33, 0
3, 25191, Note_on_c, 1, 34, 0
3, 25207, Note_on_c, 1, 46, 91
3, 25288, Note_on_c, 1, 46, 0
3, 25320, Note_on_c, 1, 41, 113
3, 25435, Note_on_c, 1, 34, 91
3, 25438, Note_on_c, 1, 41, 0
3, 25492, Note_on_c, 1, 34, 0
3, 25566, Note_on_c, 1, 34, 95
3, 25640, Note_on_c, 1, 34, 0
3, 25685, Note_on_c, 1, 39, 104
3, 25911, Note_on_c, 1, 39, 0
3, 25924, Note_on_c, 1, 38, 117
3, 25952, Note_on_c, 1, 38, 0
3, 26046, Note_on_c, 1, 38, 113
3, 26380, Note_on_c, 1, 38, 0
3, 26400, Note_on_c, 1, 36, 101
3, 26428, Note_on_c, 1, 36, 0
3, 26521, Note_on_c, 1, 36, 104
3, 26878, Note_on_c, 1, 36, 0
3, 26878, Note_on_c, 1, 39, 104
3, 26907, Note_on_c, 1, 39, 0
3, 27062, Note_on_c, 1, 39, 100
3, 27287, Note_on_c, 1, 39, 0
3, 27358, Note_on_c, 1, 39, 83
3, 27358, Note_on_c, 1, 46, 91
3, 27385, Note_on_c, 1, 46, 0
3, 27389, Note_on_c, 1, 39, 0
3, 27561, Note_on_c, 1, 46, 95
3, 27561, Note_on_c, 1, 39, 80
3, 27776, Note_on_c, 1, 39, 0
3, 27776, Note_on_c, 1, 46, 0
3, 27845, Note_on_c, 1, 40, 117
3, 27845, Note_on_c, 1, 47, 97
3, 27869, Note_on_c, 1, 40, 0
3, 27880, Note_on_c, 1, 47, 0
3, 28050, Note_on_c, 1, 40, 117
3, 28306, Note_on_c, 1, 40, 0
3, 28327, Note_on_c, 1, 42, 104
3, 28421, Note_on_c, 1, 42, 0
3, 28557, Note_on_c, 1, 46, 110
3, 28780, Note_on_c, 1, 46, 0
3, 28803, Note_on_c, 1, 39, 104
3, 28859, Note_on_c, 1, 39, 0
3, 29001, Note_on_c, 1, 39, 91
3, 29025, Note_on_c, 1, 39, 0
3, 29040, Note_on_c, 1, 46, 127
3, 29150, Note_on_c, 1, 46, 0
3, 29161, Note_on_c, 1, 39, 95
3, 29253, Note_on_c, 1, 39, 0
3, 29272, Note_on_c, 1, 37, 87
3, 29416, Note_on_c, 1, 37, 0
3, 29471, Note_on_c, 1, 37, 80
3, 29512, Note_on_c, 1, 37, 0
3, 29514, Note_on_c, 1, 44, 95
3, 29560, Note_on_c, 1, 44, 0
3, 29598, Note_on_c, 1, 44, 95
3, 29628, Note_on_c, 1, 44, 0
3, 29639, Note_on_c, 1, 37, 91
3, 29736, Note_on_c, 1, 37, 0
3, 29767, Note_on_c, 1, 35, 113
3, 29937, Note_on_c, 1, 35, 0
3, 29997, Note_on_c, 1, 35, 117
3, 30209, Note_on_c, 1, 35, 0
3, 30218, Note_on_c, 1, 40, 122
3, 30467, Note_on_c, 1, 40, 0
3, 30472, Note_on_c, 1, 45, 104
3, 30729, Note_on_c, 1, 39, 100
3, 30734, Note_on_c, 1, 45, 0
3, 30775, Note_on_c, 1, 39, 0
3, 30928, Note_on_c, 1, 39, 91
3, 31125, Note_on_c, 1, 39, 0
3, 31202, Note_on_c, 1, 39, 83
3, 31202, Note_on_c, 1, 46, 83
3, 31276, Note_on_c, 1, 46, 0
3, 31277, Note_on_c, 1, 39, 0
3, 31394, Note_on_c, 1, 46, 91
3, 31395, Note_on_c, 1, 39, 87
3, 31618, Note_on_c, 1, 46, 0
3, 31622, Note_on_c, 1, 39, 0
3, 31700, Note_on_c, 1, 39, 83
3, 31702, Note_on_c, 1, 46, 87
3, 31769, Note_on_c, 1, 46, 0
3, 31769, Note_on_c, 1, 39, 0
3, 31878, Note_on_c, 1, 39, 83
3, 31880, Note_on_c, 1, 46, 91
3, 32111, Note_on_c, 1, 46, 0
3, 32115, Note_on_c, 1, 39, 0
3, 32171, Note_on_c, 1, 46, 91
3, 32171, Note_on_c, 1, 39, 87
3, 32228, Note_on_c, 1, 39, 0
3, 32228, Note_on_c, 1, 46, 0
3, 32355, Note_on_c, 1, 39, 87
3, 32356, Note_on_c, 1, 46, 91
3, 32619, Note_on_c, 1, 46, 0
3, 32631, Note_on_c, 1, 39, 0
3, 32637, Note_on_c, 1, 34, 95
3, 32750, Note_on_c, 1, 34, 0
3, 32851, Note_on_c, 1, 34, 87
3, 32877, Note_on_c, 1, 34, 0
3, 32885, Note_on_c, 1, 41, 94
3, 33031, Note_on_c, 1, 41, 0
3, 33080, Note_on_c, 1, 34, 50
3, 33106, Note_on_c, 1, 34, 0
3, 33119, Note_on_c, 1, 46, 76
3, 33178, Note_on_c, 1, 46, 0
3, 33198, Note_on_c, 1, 46, 83
3, 33239, Note_on_c, 1, 46, 0
3, 33325, Note_on_c, 1, 46, 65
3, 33365, Note_on_c, 1, 46, 0
3, 33368, Note_on_c, 1, 41, 83
3, 33482, Note_on_c, 1, 41, 0
3, 33492, Note_on_c, 1, 34, 87
3, 33554, Note_on_c, 1, 34, 0
3, 33568, Note_on_c, 1, 34, 76
3, 33595, Note_on_c, 1, 34, 0
3, 33726, Note_on_c, 1, 34, 87
3, 33838, Note_on_c, 1, 34, 0
3, 33840, Note_on_c, 1, 41, 101
3, 33961, Note_on_c, 1, 41, 0
3, 33968, Note_on_c, 1, 34, 83
3, 34078, Note_on_c, 1, 36, 104
3, 34079, Note_on_c, 1, 34, 0
3, 34185, Note_on_c, 1, 36, 0
3, 34281, Note_on_c, 1, 36, 83
3, 34311, Note_on_c, 1, 36, 0
3, 34327, Note_on_c, 1, 43, 113
3, 34447, Note_on_c, 1, 43, 0
3, 34455, Note_on_c, 1, 36, 63
3, 34575, Note_on_c, 1, 36, 0
3, 34578, Note_on_c, 1, 39, 113
3, 34640, Note_on_c, 1, 39, 0
3, 34763, Note_on_c, 1, 39, 104
3, 34792, Note_on_c, 1, 39, 0
3, 34808, Note_on_c, 1, 46, 100
3, 34886, Note_on_c, 1, 46, 0
3, 34925, Note_on_c, 1, 51, 110
3, 34981, Note_on_c, 1, 51, 0
3, 35002, Note_on_c, 1, 51, 104
3, 35030, Note_on_c, 1, 51, 0
3, 35234, Note_on_c, 1, 51, 100
3, 35262, Note_on_c, 1, 51, 0
3, 35289, Note_on_c, 1, 46, 27
3, 35354, Note_on_c, 1, 46, 0
3, 35394, Note_on_c, 1, 39, 83
3, 35471, Note_on_c, 1, 39, 0
3, 35523, Note_on_c, 1, 37, 91
3, 35619, Note_on_c, 1, 37, 0
3, 35716, Note_on_c, 1, 37, 87
3, 35731, Note_on_c, 1, 37, 0
3, 35755, Note_on_c, 1, 44, 110
3, 35866, Note_on_c, 1, 44, 0
3, 35880, Note_on_c, 1, 37, 91
3, 35998, Note_on_c, 1, 37, 0
3, 36004, Note_on_c, 1, 44, 104
3, 36111, Note_on_c, 1, 44, 0
3, 36198, Note_on_c, 1, 44, 95
3, 36235, Note_on_c, 1, 44, 0
3, 36249, Note_on_c, 1, 39, 95
3, 36352, Note_on_c, 1, 39, 0
3, 36366, Note_on_c, 1, 44, 95
3, 36465, Note_on_c, 1, 44, 0
3, 36477, Note_on_c, 1, 42, 100
3, 36651, Note_on_c, 1, 42, 0
3, 36720, Note_on_c, 1, 37, 95
3, 36843, Note_on_c, 1, 37, 0
3, 36846, Note_on_c, 1, 42, 87
3, 36939, Note_on_c, 1, 42, 0
3, 36967, Note_on_c, 1, 46, 104
3, 37081, Note_on_c, 1, 46, 0
3, 37157, Note_on_c, 1, 36, 83
3, 37190, Note_on_c, 1, 36, 0
3, 37200, Note_on_c, 1, 37, 100
3, 37272, Note_on_c, 1, 37, 0
3, 37277, Note_on_c, 1, 36, 81
3, 37308, Note_on_c, 1, 36, 0
3, 37322, Note_on_c, 1, 34, 91
3, 37384, Note_on_c, 1, 34, 0
3, 37442, Note_on_c, 1, 34, 91
3, 37569, Note_on_c, 1, 34, 0
3, 37636, Note_on_c, 1, 41, 86
3, 37676, Note_on_c, 1, 41, 0
3, 37682, Note_on_c, 1, 37, 73
3, 37750, Note_on_c, 1, 37, 0
3, 37798, Note_on_c, 1, 34, 83
3, 37903, Note_on_c, 1, 34, 0
3, 37913, Note_on_c, 1, 36, 101
3, 38012, Note_on_c, 1, 36, 0
3, 38114, Note_on_c, 1, 36, 59
3, 38136, Note_on_c, 1, 36, 0
3, 38158, Note_on_c, 1, 43, 108
3, 38274, Note_on_c, 1, 43, 0
3, 38278, Note_on_c, 1, 36, 67
3, 38390, Note_on_c, 1, 36, 0
3, 38398, Note_on_c, 1, 38, 88
3, 38531, Note_on_c, 1, 38, 0
3, 38652, Note_on_c, 1, 45, 108
3, 38756, Note_on_c, 1, 45, 0
3, 38762, Note_on_c, 1, 38, 83
3, 38877, Note_on_c, 1, 38, 0
3, 38884, Note_on_c, 1, 34, 80
3, 38989, Note_on_c, 1, 34, 0
3, 39098, Note_on_c, 1, 34, 83
3, 39128, Note_on_c, 1, 41, 91
3, 39130, Note_on_c, 1, 34, 0
3, 39228, Note_on_c, 1, 41, 0
3, 39246, Note_on_c, 1, 46, 80
3, 39302, Note_on_c, 1, 46, 0
3, 39316, Note_on_c, 1, 46, 83
3, 39350, Note_on_c, 1, 46, 0
3, 39550, Note_on_c, 1, 46, 83
3, 39586, Note_on_c, 1, 46, 0
3, 39596, Note_on_c, 1, 41, 70
3, 39709, Note_on_c, 1, 41, 0
3, 39720, Note_on_c, 1, 34, 80
3, 39840, Note_on_c, 1, 36, 101
3, 39843, Note_on_c, 1, 34, 0
3, 39935, Note_on_c, 1, 36, 0
3, 40039, Note_on_c, 1, 36, 61
3, 40071, Note_on_c, 1, 36, 0
3, 40084, Note_on_c, 1, 43, 104
3, 40205, Note_on_c, 1, 43, 0
3, 40208, Note_on_c, 1, 36, 66
3, 40282, Note_on_c, 1, 36, 0
3, 40282, Note_on_c, 1, 41, 104
3, 40439, Note_on_c, 1, 41, 0
3, 40522, Note_on_c, 1, 41, 97
3, 40559, Note_on_c, 1, 41, 0
3, 40564, Note_on_c, 1, 36, 81
3, 40672, Note_on_c, 1, 36, 0
3, 40678, Note_on_c, 1, 33, 83
3, 40798, Note_on_c, 1, 33, 0
3, 40804, Note_on_c, 1, 34, 91
3, 40938, Note_on_c, 1, 34, 0
3, 41001, Note_on_c, 1, 34, 45
3, 41023, Note_on_c, 1, 34, 0
3, 41045, Note_on_c, 1, 41, 97
3, 41139, Note_on_c, 1, 41, 0
3, 41247, Note_on_c, 1, 34, 61
3, 41273, Note_on_c, 1, 34, 0
3, 41290, Note_on_c, 1, 40, 94
3, 41436, Note_on_c, 1, 40, 0
3, 41480, Note_on_c, 1, 40, 79
3, 41521, Note_on_c, 1, 40, 0
3, 41529, Note_on_c, 1, 35, 101
3, 41547, Note_on_c, 1, 35, 0
3, 41581, Note_on_c, 1, 35, 47
3, 41597, Note_on_c, 1, 35, 0
3, 41653, Note_on_c, 1, 40, 101
3, 41758, Note_on_c, 1, 40, 0
3, 41768, Note_on_c, 1, 39, 87
3, 41877, Note_on_c, 1, 39, 0
3, 41977, Note_on_c, 1, 39, 30
3, 41992, Note_on_c, 1, 39, 0
3, 42009, Note_on_c, 1, 46, 110
3, 42118, Note_on_c, 1, 46, 0
3, 42127, Note_on_c, 1, 39, 53
3, 42232, Note_on_c, 1, 39, 0
3, 42242, Note_on_c, 1, 45, 104
3, 42395, Note_on_c, 1, 45, 0
3, 42446, Note_on_c, 1, 40, 75
3, 42471, Note_on_c, 1, 40, 0
3, 42486, Note_on_c, 1, 33, 81
3, 42536, Note_on_c, 1, 33, 0
3, 42681, Note_on_c, 1, 33, 101
3, 42717, Note_on_c, 1, 33, 0
3, 42729, Note_on_c, 1, 38, 122
3, 42783, Note_on_c, 1, 38, 0
3, 42973, Note_on_c, 1, 33, 108
3, 43040, Note_on_c, 1, 36, 83
3, 43046, Note_on_c, 1, 33, 0
3, 43079, Note_on_c, 1, 36, 0
3, 43086, Note_on_c, 1, 38, 113
3, 43137, Note_on_c, 1, 38, 0
3, 43202, Note_on_c, 1, 38, 104
3, 43206, Note_on_c, 1, 45, 101
3, 43253, Note_on_c, 1, 38, 0
3, 43255, Note_on_c, 1, 45, 0
3, 43331, Note_on_c, 1, 38, 108
3, 43331, Note_on_c, 1, 45, 88
3, 43655, Note_on_c, 1, 38, 0
3, 43666, Note_on_c, 1, 45, 0
3, 43690, Note_on_c, 1, 39, 83
3, 43694, Note_on_c, 1, 46, 110
3, 43727, Note_on_c, 1, 39, 0
3, 43730, Note_on_c, 1, 46, 0
3, 43876, Note_on_c, 1, 39, 87
3, 43877, Note_on_c, 1, 46, 91
3, 44098, Note_on_c, 1, 46, 0
3, 44100, Note_on_c, 1, 39, 0
3, 44164, Note_on_c, 1, 39, 83
3, 44165, Note_on_c, 1, 46, 95
3, 44204, Note_on_c, 1, 46, 0
3, 44205, Note_on_c, 1, 39, 0
3, 44366, Note_on_c, 1, 39, 87
3, 44367, Note_on_c, 1, 46, 91
3, 44580, Note_on_c, 1, 39, 0
3, 44586, Note_on_c, 1, 46, 0
3, 44641, Note_on_c, 1, 38, 113
3, 44642, Note_on_c, 1, 45, 97
3, 44687, Note_on_c, 1, 45, 0
3, 44687, Note_on_c, 1, 38, 0
3, 44830, Note_on_c, 1, 45, 101
3, 44831, Note_on_c, 1, 38, 101
3, 45073, Note_on_c, 1, 38, 0
3, 45073, Note_on_c, 1, 45, 0
3, 45129, Note_on_c, 1, 45, 91
3, 45130, Note_on_c, 1, 38, 104
3, 45156, Note_on_c, 1, 38, 0
3, 45156, Note_on_c, 1, 45, 0
3, 45251, Note_on_c, 1, 38, 101
3, 45251, Note_on_c, 1, 45, 91
3, 45539, Note_on_c, 1, 38, 0
3, 45547, Note_on_c, 1, 45, 0
3, 45603, Note_on_c, 1, 39, 87
3, 45604, Note_on_c, 1, 46, 100
3, 45655, Note_on_c, 1, 46, 0
3, 45655, Note_on_c, 1, 39, 0
3, 45792, Note_on_c, 1, 39, 83
3, 45794, Note_on_c, 1, 46, 95
3, 45963, Note_on_c, 1, 46, 0
3, 45972, Note_on_c, 1, 39, 0
3, 46077, Note_on_c, 1, 46, 104
3, 46078, Note_on_c, 1, 39, 95
3, 46119, Note_on_c, 1, 46, 0
3, 46120, Note_on_c, 1, 39, 0
3, 46281, Note_on_c, 1, 39, 87
3, 46281, Note_on_c, 1, 46, 91
3, 46504, Note_on_c, 1, 39, 0
3, 46519, Note_on_c, 1, 46, 0
3, 46566, Note_on_c, 1, 36, 97
3, 46566, Note_on_c, 1, 43, 101
3, 46630, Note_on_c, 1, 43, 0
3, 46631, Note_on_c, 1, 36, 0
3, 46756, Note_on_c, 1, 36, 97
3, 46767, Note_on_c, 1, 43, 68
3, 47011, Note_on_c, 1, 43, 0
3, 47012, Note_on_c, 1, 36, 0
3, 47042, Note_on_c, 1, 41, 122
3, 47044, Note_on_c, 1, 48, 68
3, 47098, Note_on_c, 1, 48, 0
3, 47104, Note_on_c, 1, 41, 0
3, 47228, Note_on_c, 1, 41, 108
3, 47228, Note_on_c, 1, 48, 88
3, 47490, Note_on_c, 1, 48, 0
3, 47494, Note_on_c, 1, 41, 0
3, 47525, Note_on_c, 1, 46, 104
3, 47589, Note_on_c, 1, 46, 0
3, 47712, Note_on_c, 1, 46, 104
3, 47748, Note_on_c, 1, 46, 0
3, 47754, Note_on_c, 1, 41, 97
3, 47870, Note_on_c, 1, 41, 0
3, 47880, Note_on_c, 1, 46, 110
3, 47997, Note_on_c, 1, 46, 0
3, 48005, Note_on_c, 1, 34, 91
3, 48050, Note_on_c, 1, 34, 0
3, 48128, Note_on_c, 1, 34, 91
3, 48180, Note_on_c, 1, 34, 0
3, 48245, Note_on_c, 1, 39, 110
3, 48480, Note_on_c, 1, 39, 0
3, 48494, Note_on_c, 1, 38, 117
3, 48526, Note_on_c, 1, 38, 0
3, 48610, Note_on_c, 1, 38, 113
3, 48941, Note_on_c, 1, 38, 0
3, 48970, Note_on_c, 1, 43, 94
3, 48971, Note_on_c, 1, 36, 97
3, 48998, Note_on_c, 1, 36, 0
3, 49006, Note_on_c, 1, 43, 0
3, 49087, Note_on_c, 1, 36, 94
3, 49088, Note_on_c, 1, 43, 86
3, 49402, Note_on_c, 1, 43, 0
3, 49406, Note_on_c, 1, 36, 0
3, 49441, Note_on_c, 1, 39, 104
3, 49482, Note_on_c, 1, 39, 0
3, 49632, Note_on_c, 1, 39, 100
3, 49834, Note_on_c, 1, 39, 0
3, 49910, Note_on_c, 1, 39, 100
3, 49954, Note_on_c, 1, 39, 0
3, 50126, Note_on_c, 1, 39, 100
3, 50372, Note_on_c, 1, 39, 0
3, 50402, Note_on_c, 1, 40, 108
3, 50438, Note_on_c, 1, 40, 0
3, 50523, Note_on_c, 1, 40, 108
3, 50872, Note_on_c, 1, 40, 0
3, 50888, Note_on_c, 1, 42, 91
3, 50936, Note_on_c, 1, 42, 0
3, 51006, Note_on_c, 1, 42, 80
3, 51111, Note_on_c, 1, 42, 0
3, 51128, Note_on_c, 1, 46, 104
3, 51360, Note_on_c, 1, 46, 0
3, 51369, Note_on_c, 1, 39, 104
3, 51495, Note_on_c, 1, 39, 0
3, 51563, Note_on_c, 1, 39, 83
3, 51577, Note_on_c, 1, 39, 0
3, 51601, Note_on_c, 1, 46, 127
3, 51720, Note_on_c, 1, 46, 0
3, 51729, Note_on_c, 1, 39, 87
3, 51816, Note_on_c, 1, 39, 0
3, 51849, Note_on_c, 1, 37, 87
3, 51990, Note_on_c, 1, 37, 0
3, 52041, Note_on_c, 1, 37, 71
3, 52057, Note_on_c, 1, 37, 0
3, 52082, Note_on_c, 1, 44, 100
3, 52188, Note_on_c, 1, 44, 0
3, 52202, Note_on_c, 1, 37, 91
3, 52303, Note_on_c, 1, 37, 0
3, 52320, Note_on_c, 1, 35, 117
3, 52488, Note_on_c, 1, 35, 0
3, 52572, Note_on_c, 1, 35, 108
3, 52780, Note_on_c, 1, 35, 0
3, 52795, Note_on_c, 1, 39, 95
3, 52809, Note_on_c, 1, 39, 110
3, 52955, Note_on_c, 1, 39, 0
3, 53049, Note_on_c, 1, 41, 97
3, 53170, Note_on_c, 1, 39, 0
3, 53255, Note_on_c, 1, 41, 0
3, 53307, Note_on_c, 1, 34, 80
3, 53484, Note_on_c, 1, 34, 0
3, 53521, Note_on_c, 1, 41, 91
3, 53567, Note_on_c, 1, 41, 0
3, 53597, Note_on_c, 1, 41, 79
3, 53630, Note_on_c, 1, 41, 0
3, 53635, Note_on_c, 1, 34, 91
3, 53719, Note_on_c, 1, 34, 0
3, 53751, Note_on_c, 1, 36, 94
3, 53850, Note_on_c, 1, 36, 0
3, 53941, Note_on_c, 1, 36, 94
3, 53965, Note_on_c, 1, 36, 0
3, 53987, Note_on_c, 1, 43, 127
3, 54121, Note_on_c, 1, 43, 0
3, 54129, Note_on_c, 1, 36, 108
3, 54237, Note_on_c, 1, 36, 0
3, 54244, Note_on_c, 1, 39, 104
3, 54365, Note_on_c, 1, 39, 0
3, 54438, Note_on_c, 1, 39, 87
3, 54455, Note_on_c, 1, 39, 0
3, 54480, Note_on_c, 1, 46, 110
3, 54558, Note_on_c, 1, 46, 0
3, 54567, Note_on_c, 1, 39, 76
3, 54584, Note_on_c, 1, 39, 0
3, 54604, Note_on_c, 1, 51, 127
3, 54665, Note_on_c, 1, 51, 0
3, 54687, Note_on_c, 1, 51, 104
3, 54711, Note_on_c, 1, 51, 0
3, 54913, Note_on_c, 1, 51, 104
3, 54942, Note_on_c, 1, 51, 0
3, 54958, Note_on_c, 1, 46, 87
3, 55067, Note_on_c, 1, 46, 0
3, 55082, Note_on_c, 1, 39, 100
3, 55175, Note_on_c, 1, 39, 0
3, 55202, Note_on_c, 1, 37, 91
3, 55280, Note_on_c, 1, 37, 0
3, 55386, Note_on_c, 1, 37, 95
3, 55410, Note_on_c, 1, 37, 0
3, 55427, Note_on_c, 1, 44, 104
3, 55544, Note_on_c, 1, 44, 0
3, 55555, Note_on_c, 1, 37, 91
3, 55679, Note_on_c, 1, 37, 0
3, 55683, Note_on_c, 1, 44, 100
3, 55760, Note_on_c, 1, 44, 0
3, 55881, Note_on_c, 1, 44, 95
3, 55916, Note_on_c, 1, 44, 0
3, 55930, Note_on_c, 1, 39, 87
3, 55981, Note_on_c, 1, 39, 0
3, 56002, Note_on_c, 1, 39, 68
3, 56038, Note_on_c, 1, 39, 0
3, 56043, Note_on_c, 1, 44, 104
3, 56150, Note_on_c, 1, 44, 0
3, 56168, Note_on_c, 1, 42, 76
3, 56250, Note_on_c, 1, 42, 0
3, 56366, Note_on_c, 1, 42, 100
3, 56396, Note_on_c, 1, 42, 0
3, 56412, Note_on_c, 1, 37, 95
3, 56524, Note_on_c, 1, 37, 0
3, 56529, Note_on_c, 1, 42, 100
3, 56627, Note_on_c, 1, 42, 0
3, 56646, Note_on_c, 1, 46, 104
3, 56756, Note_on_c, 1, 46, 0
3, 56838, Note_on_c, 1, 34, 83
3, 56862, Note_on_c, 1, 34, 0
3, 56876, Note_on_c, 1, 37, 80
3, 56922, Note_on_c, 1, 37, 0
3, 56959, Note_on_c, 1, 37, 73
3, 56989, Note_on_c, 1, 37, 0
3, 56996, Note_on_c, 1, 36, 88
3, 57107, Note_on_c, 1, 36, 0
3, 57117, Note_on_c, 1, 34, 87
3, 57181, Note_on_c, 1, 34, 0
3, 57311, Note_on_c, 1, 34, 38
3, 57348, Note_on_c, 1, 34, 0
3, 57353, Note_on_c, 1, 41, 101
3, 57464, Note_on_c, 1, 41, 0
3, 57472, Note_on_c, 1, 34, 71
3, 57582, Note_on_c, 1, 34, 0
3, 57594, Note_on_c, 1, 36, 101
3, 57698, Note_on_c, 1, 36, 0
3, 57839, Note_on_c, 1, 43, 97
3, 57963, Note_on_c, 1, 43, 0
3, 57969, Note_on_c, 1, 36, 94
3, 58084, Note_on_c, 1, 36, 0
3, 58085, Note_on_c, 1, 38, 101
3, 58187, Note_on_c, 1, 38, 0
3, 58274, Note_on_c, 1, 38, 67
3, 58305, Note_on_c, 1, 38, 0
3, 58317, Note_on_c, 1, 45, 101
3, 58436, Note_on_c, 1, 38, 91
3, 58438, Note_on_c, 1, 45, 0
3, 58541, Note_on_c, 1, 38, 0
3, 58561, Note_on_c, 1, 34, 87
3, 58674, Note_on_c, 1, 34, 0
3, 58760, Note_on_c, 1, 34, 83
3, 58795, Note_on_c, 1, 34, 0
3, 58801, Note_on_c, 1, 41, 79
3, 58886, Note_on_c, 1, 41, 0
3, 58894, Note_on_c, 1, 34, 71
3, 58933, Note_on_c, 1, 34, 0
3, 58933, Note_on_c, 1, 46, 95
3, 58994, Note_on_c, 1, 46, 0
3, 59006, Note_on_c, 1, 46, 80
3, 59040, Note_on_c, 1, 46, 0
3, 59235, Note_on_c, 1, 46, 87
3, 59281, Note_on_c, 1, 41, 81
3, 59282, Note_on_c, 1, 46, 0
3, 59402, Note_on_c, 1, 41, 0
3, 59410, Note_on_c, 1, 34, 83
3, 59524, Note_on_c, 1, 36, 101
3, 59525, Note_on_c, 1, 34, 0
3, 59603, Note_on_c, 1, 36, 0
3, 59718, Note_on_c, 1, 36, 70
3, 59749, Note_on_c, 1, 36, 0
3, 59758, Note_on_c, 1, 43, 94
3, 59883, Note_on_c, 1, 43, 0
3, 59884, Note_on_c, 1, 36, 75
3, 59997, Note_on_c, 1, 36, 0
3, 60003, Note_on_c, 1, 41, 94
3, 60121, Note_on_c, 1, 41, 0
3, 60200, Note_on_c, 1, 41, 108
3, 60240, Note_on_c, 1, 41, 0
3, 60244, Note_on_c, 1, 36, 79
3, 60355, Note_on_c, 1, 36, 0
3, 60360, Note_on_c, 1, 33, 75
3, 60485, Note_on_c, 1, 34, 80
3, 60486, Note_on_c, 1, 33, 0
3, 60649, Note_on_c, 1, 34, 0
3, 60686, Note_on_c, 1, 34, 55
3, 60710, Note_on_c, 1, 34, 0
3, 60724, Note_on_c, 1, 41, 113
3, 60830, Note_on_c, 1, 41, 0
3, 60921, Note_on_c, 1, 34, 80
3, 60949, Note_on_c, 1, 34, 0
3, 60961, Note_on_c, 1, 40, 86
3, 61100, Note_on_c, 1, 40, 0
3, 61153, Note_on_c, 1, 40, 75
3, 61197, Note_on_c, 1, 40, 0
3, 61204, Note_on_c, 1, 34, 80
3, 61317, Note_on_c, 1, 34, 0
3, 61320, Note_on_c, 1, 40, 86
3, 61417, Note_on_c, 1, 40, 0
3, 61444, Note_on_c, 1, 39, 87
3, 61554, Note_on_c, 1, 39, 0
3, 61644, Note_on_c, 1, 39, 73
3, 61664, Note_on_c, 1, 39, 0
3, 61682, Note_on_c, 1, 46, 110
3, 61893, Note_on_c, 1, 46, 0
3, 61916, Note_on_c, 1, 45, 122
3, 62027, Note_on_c, 1, 45, 0
3, 62099, Note_on_c, 1, 45, 94
3, 62132, Note_on_c, 1, 39, 76
3, 62138, Note_on_c, 1, 45, 0
3, 62162, Note_on_c, 1, 39, 0
3, 62168, Note_on_c, 1, 33, 108
3, 62399, Note_on_c, 1, 33, 0
3, 62402, Note_on_c, 1, 38, 127
3, 62452, Note_on_c, 1, 38, 0
3, 62653, Note_on_c, 1, 33, 113
3, 62731, Note_on_c, 1, 33, 0
3, 62732, Note_on_c, 1, 36, 86
3, 62775, Note_on_c, 1, 38, 117
3, 62783, Note_on_c, 1, 36, 0
3, 62829, Note_on_c, 1, 38, 0
3, 62894, Note_on_c, 1, 45, 91
3, 62894, Note_on_c, 1, 38, 101
3, 62930, Note_on_c, 1, 45, 0
3, 62932, Note_on_c, 1, 38, 0
3, 63011, Note_on_c, 1, 38, 113
3, 63012, Note_on_c, 1, 45, 97
3, 63324, Note_on_c, 1, 45, 0
3, 63326, Note_on_c, 1, 38, 0
3, 63370, Note_on_c, 1, 39, 87
3, 63372, Note_on_c, 1, 46, 100
3, 63409, Note_on_c, 1, 46, 0
3, 63413, Note_on_c, 1, 39, 0
3, 63558, Note_on_c, 1, 39, 80
3, 63558, Note_on_c, 1, 46, 95
3, 63775, Note_on_c, 1, 46, 0
3, 63781, Note_on_c, 1, 39, 0
3, 63841, Note_on_c, 1, 39, 91
3, 63843, Note_on_c, 1, 46, 100
3, 63889, Note_on_c, 1, 39, 0
3, 63892, Note_on_c, 1, 46, 0
3, 64043, Note_on_c, 1, 39, 83
3, 64045, Note_on_c, 1, 46, 95
3, 64252, Note_on_c, 1, 39, 0
3, 64259, Note_on_c, 1, 46, 0
3, 64304, Note_on_c, 1, 45, 97
3, 64305, Note_on_c, 1, 38, 108
3, 64351, Note_on_c, 1, 45, 0
3, 64355, Note_on_c, 1, 38, 0
3, 64509, Note_on_c, 1, 38, 101
3, 64510, Note_on_c, 1, 45, 101
3, 64746, Note_on_c, 1, 45, 0
3, 64747, Note_on_c, 1, 38, 0
3, 64798, Note_on_c, 1, 45, 101
3, 64798, Note_on_c, 1, 38, 101
3, 64833, Note_on_c, 1, 38, 0
3, 64834, Note_on_c, 1, 45, 0
3, 64923, Note_on_c, 1, 45, 104
3, 64923, Note_on_c, 1, 38, 104
3, 65231, Note_on_c, 1, 38, 0
3, 65241, Note_on_c, 1, 45, 0
3, 65284, Note_on_c, 1, 39, 87
3, 65285, Note_on_c, 1, 46, 104
3, 65330, Note_on_c, 1, 39, 0
3, 65331, Note_on_c, 1, 46, 0
3, 65467, Note_on_c, 1, 39, 83
3, 65468, Note_on_c, 1, 46, 91
3, 65707, Note_on_c, 1, 46, 0
3, 65715, Note_on_c, 1, 39, 0
3, 65773, Note_on_c, 1, 39, 87
3, 65774, Note_on_c, 1, 46, 95
3, 65816, Note_on_c, 1, 46, 0
3, 65819, Note_on_c, 1, 39, 0
3, 65961, Note_on_c, 1, 39, 87
3, 65962, Note_on_c, 1, 46, 91
3, 66183, Note_on_c, 1, 39, 0
3, 66191, Note_on_c, 1, 46, 0
3, 66234, Note_on_c, 1, 43, 101
3, 66235, Note_on_c, 1, 36, 97
3, 66290, Note_on_c, 1, 43, 0
3, 66294, Note_on_c, 1, 36, 0
3, 66420, Note_on_c, 1, 36, 75
3, 66449, Note_on_c, 1, 36, 0
3, 66463, Note_on_c, 1, 43, 127
3, 66637, Note_on_c, 1, 43, 0
3, 66673, Note_on_c, 1, 36, 81
3, 66709, Note_on_c, 1, 36, 0
3, 66723, Note_on_c, 1, 41, 117
3, 66826, Note_on_c, 1, 41, 0
3, 66931, Note_on_c, 1, 41, 108
3, 66972, Note_on_c, 1, 41, 0
3, 66972, Note_on_c, 1, 36, 83
3, 67087, Note_on_c, 1, 36, 0
3, 67093, Note_on_c, 1, 33, 77
3, 67201, Note_on_c, 1, 33, 0
3, 67216, Note_on_c, 1, 34, 87
3, 67311, Note_on_c, 1, 34, 0
3, 67391, Note_on_c, 1, 34, 68
3, 67426, Note_on_c, 1, 34, 0
3, 67439, Note_on_c, 1, 41, 104
3, 67557, Note_on_c, 1, 41, 0
3, 67572, Note_on_c, 1, 34, 42
3, 67680, Note_on_c, 1, 34, 0
3, 67701, Note_on_c, 1, 46, 76
3, 67723, Note_on_c, 1, 46, 0
3, 67808, Note_on_c, 1, 46, 110
3, 67848, Note_on_c, 1, 46, 0
3, 67925, Note_on_c, 1, 39, 104
3, 68150, Note_on_c, 1, 39, 0
3, 68172, Note_on_c, 1, 38, 97
3, 68208, Note_on_c, 1, 38, 0
3, 68292, Note_on_c, 1, 38, 108
3, 68617, Note_on_c, 1, 38, 0
3, 68641, Note_on_c, 1, 36, 97
3, 68641, Note_on_c, 1, 43, 83
3, 68669, Note_on_c, 1, 36, 0
3, 68671, Note_on_c, 1, 43, 0
3, 68772, Note_on_c, 1, 36, 97
3, 68772, Note_on_c, 1, 43, 94
3, 69053, Note_on_c, 1, 36, 0
3, 69059, Note_on_c, 1, 43, 0
3, 69127, Note_on_c, 1, 46, 110
3, 69129, Note_on_c, 1, 39, 95
3, 69175, Note_on_c, 1, 46, 0
3, 69176, Note_on_c, 1, 39, 0
3, 69323, Note_on_c, 1, 39, 87
3, 69324, Note_on_c, 1, 46, 95
3, 69530, Note_on_c, 1, 46, 0
3, 69548, Note_on_c, 1, 39, 0
3, 69600, Note_on_c, 1, 39, 83
3, 69601, Note_on_c, 1, 46, 91
3, 69646, Note_on_c, 1, 46, 0
3, 69648, Note_on_c, 1, 39, 0
3, 69808, Note_on_c, 1, 39, 83
3, 69808, Note_on_c, 1, 46, 91
3, 70040, Note_on_c, 1, 39, 0
3, 70049, Note_on_c, 1, 46, 0
3, 70085, Note_on_c, 1, 38, 117
3, 70086, Note_on_c, 1, 43, 108
3, 70132, Note_on_c, 1, 38, 0
3, 70134, Note_on_c, 1, 43, 0
3, 70283, Note_on_c, 1, 38, 101
3, 70285, Note_on_c, 1, 45, 108
3, 70467, Note_on_c, 1, 45, 0
3, 70470, Note_on_c, 1, 38, 0
3, 70564, Note_on_c, 1, 38, 108
3, 70564, Note_on_c, 1, 45, 122
3, 70586, Note_on_c, 1, 45, 0
3, 70591, Note_on_c, 1, 38, 0
3, 70680, Note_on_c, 1, 38, 101
3, 70683, Note_on_c, 1, 45, 117
3, 71024, Note_on_c, 1, 45, 0
3, 71025, Note_on_c, 1, 38, 0
3, 71040, Note_on_c, 1, 41, 104
3, 71041, Note_on_c, 1, 48, 97
3, 71085, Note_on_c, 1, 41, 0
3, 71089, Note_on_c, 1, 48, 0
3, 71239, Note_on_c, 1, 41, 108
3, 71240, Note_on_c, 1, 48, 88
3, 71472, Note_on_c, 1, 48, 0
3, 71476, Note_on_c, 1, 41, 0
3, 71540, Note_on_c, 1, 48, 101
3, 71540, Note_on_c, 1, 41, 104
3, 71700, Note_on_c, 1, 48, 0
3, 71704, Note_on_c, 1, 41, 0
3, 71752, Note_on_c, 1, 39, 87
3, 71754, Note_on_c, 1, 46, 104
3, 71929, Note_on_c, 1, 39, 0
3, 71938, Note_on_c, 1, 46, 0
3, 71987, Note_on_c, 1, 38, 113
3, 71988, Note_on_c, 1, 45, 108
3, 72037, Note_on_c, 1, 45, 0
3, 72040, Note_on_c, 1, 38, 0
3, 72204, Note_on_c, 1, 38, 97
3, 72205, Note_on_c, 1, 45, 94
3, 72439, Note_on_c, 1, 45, 0
3, 72441, Note_on_c, 1, 38, 0
3, 72497, Note_on_c, 1, 45, 104
3, 72498, Note_on_c, 1, 38, 104
3, 72526, Note_on_c, 1, 38, 0
3, 72530, Note_on_c, 1, 45, 0
3, 72611, Note_on_c, 1, 38, 94
3, 72612, Note_on_c, 1, 45, 97
3, 72929, Note_on_c, 1, 45, 0
3, 72939, Note_on_c, 1, 38, 0
3, 72969, Note_on_c, 1, 39, 87
3, 72971, Note_on_c, 1, 46, 83
3, 73008, Note_on_c, 1, 39, 0
3, 73017, Note_on_c, 1, 46, 0
3, 73169, Note_on_c, 1, 39, 83
3, 73170, Note_on_c, 1, 46, 80
3, 73357, Note_on_c, 1, 46, 0
3, 73361, Note_on_c, 1, 39, 0
3, 73446, Note_on_c, 1, 39, 83
3, 73446, Note_on_c, 1, 46, 80
3, 73495, Note_on_c, 1, 46, 0
3, 73495, Note_on_c, 1, 39, 0
3, 73643, Note_on_c, 1, 44, 104
3, 73896, Note_on_c, 1, 44, 0
3, 73921, Note_on_c, 1, 45, 91
3, 73922, Note_on_c, 1, 38, 97
3, 73965, Note_on_c, 1, 45, 0
3, 73967, Note_on_c, 1, 38, 0
3, 74134, Note_on_c, 1, 45, 101
3, 74134, Note_on_c, 1, 38, 104
3, 74363, Note_on_c, 1, 38, 0
3, 74363, Note_on_c, 1, 45, 0
3, 74407, Note_on_c, 1, 45, 97
3, 74408, Note_on_c, 1, 38, 104
3, 74438, Note_on_c, 1, 38, 0
3, 74440, Note_on_c, 1, 45, 0
3, 74526, Note_on_c, 1, 38, 97
3, 74527, Note_on_c, 1, 45, 97
3, 74852, Note_on_c, 1, 45, 0
3, 74856, Note_on_c, 1, 38, 0
3, 74889, Note_on_c, 1, 48, 94
3, 74890, Note_on_c, 1, 41, 101
3, 74929, Note_on_c, 1, 41, 0
3, 74932, Note_on_c, 1, 48, 0
3, 75077, Note_on_c, 1, 41, 81
3, 75078, Note_on_c, 1, 48, 83
3, 75302, Note_on_c, 1, 48, 0
3, 75304, Note_on_c, 1, 41, 0
3, 75372, Note_on_c, 1, 48, 94
3, 75372, Note_on_c, 1, 41, 97
3, 75413, Note_on_c, 1, 41, 0
3, 75420, Note_on_c, 1, 48, 0
3, 75593, Note_on_c, 1, 39, 87
3, 75595, Note_on_c, 1, 46, 83
3, 75787, Note_on_c, 1, 39, 0
3, 75789, Note_on_c, 1, 46, 0
3, 75828, Note_on_c, 1, 38, 104
3, 75828, Note_on_c, 1, 45, 104
3, 75872, Note_on_c, 1, 45, 0
3, 75872, Note_on_c, 1, 38, 0
3, 76041, Note_on_c, 1, 45, 94
3, 76041, Note_on_c, 1, 38, 94
3, 76258, Note_on_c, 1, 45, 0
3, 76260, Note_on_c, 1, 38, 0
3, 76317, Note_on_c, 1, 45, 104
3, 76318, Note_on_c, 1, 38, 104
3, 76344, Note_on_c, 1, 38, 0
3, 76346, Note_on_c, 1, 45, 0
3, 76448, Note_on_c, 1, 45, 97
3, 76449, Note_on_c, 1, 38, 97
3, 76758, Note_on_c, 1, 45, 0
3, 76763, Note_on_c, 1, 38, 0
3, 76799, Note_on_c, 1, 46, 87
3, 76800, Note_on_c, 1, 39, 91
3, 76842, Note_on_c, 1, 39, 0
3, 76848, Note_on_c, 1, 46, 0
3, 76995, Note_on_c, 1, 39, 83
3, 76995, Note_on_c, 1, 46, 87
3, 77228, Note_on_c, 1, 46, 0
3, 77229, Note_on_c, 1, 39, 0
3, 77291, Note_on_c, 1, 46, 91
3, 77291, Note_on_c, 1, 39, 87
3, 77338, Note_on_c, 1, 46, 0
3, 77340, Note_on_c, 1, 39, 0
3, 77485, Note_on_c, 1, 44, 104
3, 77740, Note_on_c, 1, 44, 0
3, 77751, Note_on_c, 1, 38, 91
3, 77752, Note_on_c, 1, 45, 101
3, 77800, Note_on_c, 1, 45, 0
3, 77802, Note_on_c, 1, 38, 0
3, 77967, Note_on_c, 1, 45, 94
3, 77968, Note_on_c, 1, 38, 88
3, 78178, Note_on_c, 1, 45, 0
3, 78180, Note_on_c, 1, 38, 0
3, 78238, Note_on_c, 1, 45, 86
3, 78238, Note_on_c, 1, 38, 94
3, 78265, Note_on_c, 1, 38, 0
3, 78265, Note_on_c, 1, 45, 0
3, 78363, Note_on_c, 1, 45, 91
3, 78364, Note_on_c, 1, 38, 88
3, 78712, Note_on_c, 1, 45, 0
3, 78721, Note_on_c, 1, 48, 97
3, 78722, Note_on_c, 1, 38, 0
3, 78723, Note_on_c, 1, 41, 101
3, 78770, Note_on_c, 1, 41, 0
3, 78770, Note_on_c, 1, 48, 0
3, 78914, Note_on_c, 1, 41, 94
3, 78914, Note_on_c, 1, 48, 83
3, 79170, Note_on_c, 1, 41, 0
3, 79172, Note_on_c, 1, 48, 0
3, 79221, Note_on_c, 1, 41, 91
3, 79221, Note_on_c, 1, 48, 88
3, 79352, Note_on_c, 1, 48, 0
3, 79354, Note_on_c, 1, 41, 0
3, 79432, Note_on_c, 1, 39, 87
3, 79433, Note_on_c, 1, 46, 87
3, 79630, Note_on_c, 1, 39, 0
3, 79637, Note_on_c, 1, 46, 0
3, 79675, Note_on_c, 1, 38, 108
3, 79677, Note_on_c, 1, 45, 113
3, 79725, Note_on_c, 1, 45, 0
3, 79727, Note_on_c, 1, 38, 0
3, 79873, Note_on_c, 1, 38, 101
3, 79875, Note_on_c, 1, 45, 113
3, 80096, Note_on_c, 1, 38, 0
3, 80098, Note_on_c, 1, 45, 0
3, 80162, Note_on_c, 1, 38, 101
3, 80162, Note_on_c, 1, 45, 108
3, 80187, Note_on_c, 1, 45, 0
3, 80188, Note_on_c, 1, 38, 0
3, 80295, Note_on_c, 1, 38, 97
3, 80296, Note_on_c, 1, 45, 108
3, 80599, Note_on_c, 1, 38, 0
3, 80601, Note_on_c, 1, 45, 0
3, 80640, Note_on_c, 1, 39, 91
3, 80682, Note_on_c, 1, 39, 0
3, 80835, Note_on_c, 1, 39, 83
3, 80835, Note_on_c, 1, 46, 87
3, 81068, Note_on_c, 1, 46, 0
3, 81069, Note_on_c, 1, 39, 0
3, 81131, Note_on_c, 1, 46, 91
3, 81131, Note_on_c, 1, 39, 87
3, 81178, Note_on_c, 1, 46, 0
3, 81180, Note_on_c, 1, 39, 0
3, 81325, Note_on_c, 1, 44, 104
3, 81580, Note_on_c, 1, 44, 0
3, 81591, Note_on_c, 1, 38, 91
3, 81592, Note_on_c, 1, 45, 101
3, 81640, Note_on_c, 1, 45, 0
3, 81642, Note_on_c, 1, 38, 0
3, 81807, Note_on_c, 1, 45, 94
3, 81808, Note_on_c, 1, 38, 88
3, 82018, Note_on_c, 1, 45, 0
3, 82020, Note_on_c, 1, 38, 0
3, 82078, Note_on_c, 1, 45, 86
3, 82078, Note_on_c, 1, 38, 94
3, 82105, Note_on_c, 1, 38, 0
3, 82105, Note_on_c, 1, 45, 0
3, 82203, Note_on_c, 1, 45, 91
3, 82204, Note_on_c, 1, 38, 88
3, 82552, Note_on_c, 1, 45, 0
3, 82561, Note_on_c, 1, 48, 97
3, 82562, Note_on_c, 1, 38, 0
3, 82563, Note_on_c, 1, 41, 101
3, 82610, Note_on_c, 1, 41, 0
3, 82610, Note_on_c, 1, 48, 0
3, 82754, Note_on_c, 1, 41, 94
3, 82754, Note_on_c, 1, 48, 83
3, 83010, Note_on_c, 1, 41, 0
3, 83012, Note_on_c, 1, 48, 0
3, 83061, Note_on_c, 1, 41, 91
3, 83061, Note_on_c, 1, 48, 88
3, 83192, Note_on_c, 1, 48, 0
3, 83194, Note_on_c, 1, 41, 0
3, 83272, Note_on_c, 1, 39, 87
3, 83273, Note_on_c, 1, 46, 87
3, 83470, Note_on_c, 1, 39, 0
3, 83477, Note_on_c, 1, 46, 0
3, 83515, Note_on_c, 1, 38, 108
3, 83517, Note_on_c, 1, 45, 113
3, 83565, Note_on_c, 1, 45, 0
3, 83567, Note_on_c, 1, 38, 0
3, 83713, Note_on_c, 1, 38, 101
3, 83715, Note_on_c, 1, 45, 113
3, 83936, Note_on_c, 1, 38, 0
3, 83938, Note_on_c, 1, 45, 0
3, 84002, Note_on_c, 1, 38, 101
3, 84002, Note_on_c, 1, 45, 108
3, 84027, Note_on_c, 1, 45, 0
3, 84028, Note_on_c, 1, 38, 0
3, 84135, Note_on_c, 1, 38, 97
3, 84136, Note_on_c, 1, 45, 108
3, 84439, Note_on_c, 1, 38, 0
3, 84441, Note_on_c, 1, 45, 0
3, 84480, Note_on_c, 1, 39, 91
3, 84522, Note_on_c, 1, 39, 0
3, 84675, Note_on_c, 1, 39, 83
3, 84675, Note_on_c, 1, 46, 87
3, 84908, Note_on_c, 1, 46, 0
3, 84909, Note_on_c, 1, 39, 0
3, 84971, Note_on_c, 1, 46, 91
3, 84971, Note_on_c, 1, 39, 87
3, 85018, Note_on_c, 1, 46, 0
3, 85020, Note_on_c, 1, 39, 0
3, 85165, Note_on_c, 1, 44, 104
3, 85420, Note_on_c, 1, 44, 0
3, 85431, Note_on_c, 1, 38, 91
3, 85432, Note_on_c, 1, 45, 101
3, 85480, Note_on_c, 1, 45, 0
3, 85482, Note_on_c, 1, 38, 0
3, 85647, Note_on_c, 1, 45, 94
3, 85648, Note_on_c, 1, 38, 88
3, 85858, Note_on_c, 1, 45, 0
3, 85860, Note_on_c, 1, 38, 0
3, 85918, Note_on_c, 1, 45, 86
3, 85918, Note_on_c, 1, 38, 94
3, 85945, Note_on_c, 1, 38, 0
3, 85945, Note_on_c, 1, 45, 0
3, 86043, Note_on_c, 1, 45, 91
3, 86044, Note_on_c, 1, 38, 88
3, 86392, Note_on_c, 1, 45, 0
3, 86401, Note_on_c, 1, 48, 97
3, 86402, Note_on_c, 1, 38, 0
3, 86403, Note_on_c, 1, 41, 101
3, 86450, Note_on_c, 1, 41, 0
3, 86450, Note_on_c, 1, 48, 0
3, 86594, Note_on_c, 1, 41, 94
3, 86594, Note_on_c, 1, 48, 83
3, 86850, Note_on_c, 1, 41, 0
3, 86852, Note_on_c, 1, 48, 0
3, 86901, Note_on_c, 1, 41, 91
3, 86901, Note_on_c, 1, 48, 88
3, 87032, Note_on_c, 1, 48, 0
3, 87034, Note_on_c, 1, 41, 0
3, 87112, Note_on_c, 1, 39, 87
3, 87113, Note_on_c, 1, 46, 87
3, 87310, Note_on_c, 1, 39, 0
3, 87317, Note_on_c, 1, 46, 0
3, 87355, Note_on_c, 1, 38, 108
3, 87357, Note_on_c, 1, 45, 113
3, 87405, Note_on_c, 1, 45, 0
3, 87407, Note_on_c, 1, 38, 0
3, 87553, Note_on_c, 1, 38, 101
3, 87555, Note_on_c, 1, 45, 113
3, 87776, Note_on_c, 1, 38, 0
3, 87778, Note_on_c, 1, 45, 0
3, 87842, Note_on_c, 1, 38, 59
3, 87842, Note_on_c, 1, 45, 59
3, 87867, Note_on_c, 1, 45, 0
3, 87868, Note_on_c, 1, 38, 0
3, 87975, Note_on_c, 1, 38, 58
3, 87976, Note_on_c, 1, 45, 58
3, 88279, Note_on_c, 1, 38, 0
3, 88281, Note_on_c, 1, 45, 0
3, 88320, Note_on_c, 1, 39, 58
3, 88362, Note_on_c, 1, 39, 0
3, 88515, Note_on_c, 1, 39, 44
3, 88515, Note_on_c, 1, 46, 44
3, 88748, Note_on_c, 1, 46, 0
3, 88749, Note_on_c, 1, 39, 0
3, 88811, Note_on_c, 1, 46, 41
3, 88811, Note_on_c, 1, 39, 41
3, 88858, Note_on_c, 1, 46, 0
3, 88860, Note_on_c, 1, 39, 0
3, 89005, Note_on_c, 1, 44, 40
3, 89260, Note_on_c, 1, 44, 0
3, 89271, Note_on_c, 1, 38, 40
3, 89272, Note_on_c, 1, 45, 40
3, 89320, Note_on_c, 1, 45, 0
3, 89322, Note_on_c, 1, 38, 0
3, 89487, Note_on_c, 1, 45, 40
3, 89488, Note_on_c, 1, 38, 40
3, 89698, Note_on_c, 1, 45, 0
3, 89700, Note_on_c, 1, 38, 0
3, 89758, Note_on_c, 1, 45, 34
3, 89758, Note_on_c, 1, 38, 34
3, 89785, Note_on_c, 1, 38, 0
3, 89785, Note_on_c, 1, 45, 0
3, 89883, Note_on_c, 1, 45, 33
3, 89884, Note_on_c, 1, 38, 33
3, 90232, Note_on_c, 1, 45, 0
3, 90241, Note_on_c, 1, 48, 32
3, 90242, Note_on_c, 1, 38, 0
3, 90243, Note_on_c, 1, 41, 32
3, 90290, Note_on_c, 1, 41, 0
3, 90290, Note_on_c, 1, 48, 0
3, 90434, Note_on_c, 1, 41, 32
3, 90434, Note_on_c, 1, 48, 32
3, 90690, Note_on_c, 1, 41, 0
3, 90692, Note_on_c, 1, 48, 0
3, 90741, Note_on_c, 1, 41, 24
3, 90741, Note_on_c, 1, 48, 24
3, 90872, Note_on_c, 1, 48, 0
3, 90874, Note_on_c, 1, 41, 0
3, 90952, Note_on_c, 1, 39, 22
3, 90953, Note_on_c, 1, 46, 22
3, 91150, Note_on_c, 1, 39, 0
3, 91157, Note_on_c, 1, 46, 0
3, 91195, Note_on_c, 1, 38, 20
3, 91197, Note_on_c, 1, 45, 20
3, 91245, Note_on_c, 1, 45, 0
3, 91247, Note_on_c, 1, 38, 0
3, 91393, Note_on_c, 1, 38, 19
3, 91395, Note_on_c, 1, 45, 19
3, 91616, Note_on_c, 1, 38, 0
3, 91618, Note_on_c, 1, 45, 0
3, 91682, Note_on_c, 1, 38, 4
3, 91682, Note_on_c, 1, 45, 4
3, 91707, Note_on_c, 1, 45, 0
3, 91708, Note_on_c, 1, 38, 0
3, 91815, Note_on_c, 1, 38, 3
3, 91816, Note_on_c, 1, 45, 3
3, 92119, Note_on_c, 1, 38, 0
3, 92121, Note_on_c, 1, 45, 0
3, 92121, End_track
4, 0, Start_track
4, 0, MIDI_port, 0
4, 0, Title_t, "Drums"
4, 0, Control_c, 9, 0, 62
4, 0, Control_c, 9, 32, 0
4, 0, Program_c, 9, 40
4, 240, Control_c, 9, 7, 106
4, 240, Control_c, 9, 10, 64
4, 240, Control_c, 9, 93, 0
4, 240, Control_c, 9, 91, 0
4, 240, Note_on_c, 9, 38, 123
4, 254, Note_on_c, 9, 38, 0
4, 322, Note_on_c, 9, 47, 108
4, 350, Note_on_c, 9, 47, 0
4, 401, Note_on_c, 9, 43, 117
4, 434, Note_on_c, 9, 43, 0
4, 480, Note_on_c, 9, 36, 127
4, 480, Note_on_c, 9, 42, 80
4, 500, Note_on_c, 9, 42, 0
4, 500, Note_on_c, 9, 36, 0
4, 600, Note_on_c, 9, 42, 80
4, 620, Note_on_c, 9, 42, 0
4, 680, Note_on_c, 9, 36, 112
4, 680, Note_on_c, 9, 42, 80
4, 700, Note_on_c, 9, 42, 0
4, 700, Note_on_c, 9, 36, 0
4, 720, Note_on_c, 9, 37, 112
4, 720, Note_on_c, 9, 42, 80
4, 720, Note_on_c, 9, 51, 80
4, 740, Note_on_c, 9, 51, 0
4, 740, Note_on_c, 9, 42, 0
4, 740, Note_on_c, 9, 37, 0
4, 840, Note_on_c, 9, 42, 80
4, 860, Note_on_c, 9, 42, 0
4, 920, Note_on_c, 9, 36, 72
4, 940, Note_on_c, 9, 36, 0
4, 960, Note_on_c, 9, 36, 127
4, 960, Note_on_c, 9, 42, 80
4, 980, Note_on_c, 9, 42, 0
4, 980, Note_on_c, 9, 36, 0
4, 1080, Note_on_c, 9, 42, 80
4, 1100, Note_on_c, 9, 42, 0
4, 1160, Note_on_c, 9, 36, 112
4, 1160, Note_on_c, 9, 42, 80
4, 1180, Note_on_c, 9, 42, 0
4, 1180, Note_on_c, 9, 36, 0
4, 1200, Note_on_c, 9, 37, 112
4, 1200, Note_on_c, 9, 42, 80
4, 1200, Note_on_c, 9, 51, 80
4, 1220, Note_on_c, 9, 51, 0
4, 1220, Note_on_c, 9, 42, 0
4, 1220, Note_on_c, 9, 37, 0
4, 1320, Note_on_c, 9, 42, 80
4, 1340, Note_on_c, 9, 42, 0
4, 1400, Note_on_c, 9, 36, 72
4, 1420, Note_on_c, 9, 36, 0
4, 1440, Note_on_c, 9, 36, 127
4, 1440, Note_on_c, 9, 42, 80
4, 1460, Note_on_c, 9, 42, 0
4, 1460, Note_on_c, 9, 36, 0
4, 1560, Note_on_c, 9, 42, 80
4, 1580, Note_on_c, 9, 42, 0
4, 1640, Note_on_c, 9, 36, 112
4, 1640, Note_on_c, 9, 42, 80
4, 1660, Note_on_c, 9, 42, 0
4, 1660, Note_on_c, 9, 36, 0
4, 1680, Note_on_c, 9, 37, 112
4, 1680, Note_on_c, 9, 42, 80
4, 1680, Note_on_c, 9, 51, 80
4, 1700, Note_on_c, 9, 51, 0
4, 1700, Note_on_c, 9, 42, 0
4, 1700, Note_on_c, 9, 37, 0
4, 1800, Note_on_c, 9, 42, 80
4, 1820, Note_on_c, 9, 42, 0
4, 1880, Note_on_c, 9, 36, 72
4, 1900, Note_on_c, 9, 36, 0
4, 1920, Note_on_c, 9, 36, 127
4, 1920, Note_on_c, 9, 42, 80
4, 1940, Note_on_c, 9, 42, 0
4, 1940, Note_on_c, 9, 36, 0
4, 2040, Note_on_c, 9, 42, 80
4, 2060, Note_on_c, 9, 42, 0
4, 2120, Note_on_c, 9, 36, 112
4, 2120, Note_on_c, 9, 42, 80
4, 2140, Note_on_c, 9, 42, 0
4, 2140, Note_on_c, 9, 36, 0
4, 2160, Note_on_c, 9, 37, 112
4, 2160, Note_on_c, 9, 42, 80
4, 2160, Note_on_c, 9, 51, 80
4, 2180, Note_on_c, 9, 51, 0
4, 2180, Note_on_c, 9, 42, 0
4, 2180, Note_on_c, 9, 37, 0
4, 2280, Note_on_c, 9, 42, 80
4, 2300, Note_on_c, 9, 42, 0
4, 2360, Note_on_c, 9, 36, 72
4, 2380, Note_on_c, 9, 36, 0
4, 2400, Note_on_c, 9, 36, 127
4, 2400, Note_on_c, 9, 42, 80
4, 2420, Note_on_c, 9, 42, 0
4, 2420, Note_on_c, 9, 36, 0
4, 2520, Note_on_c, 9, 42, 80
4, 2540, Note_on_c, 9, 42, 0
4, 2600, Note_on_c, 9, 36, 112
4, 2600, Note_on_c, 9, 42, 80
4, 2620, Note_on_c, 9, 42, 0
4, 2620, Note_on_c, 9, 36, 0
4, 2640, Note_on_c, 9, 37, 112
4, 2640, Note_on_c, 9, 42, 80
4, 2640, Note_on_c, 9, 51, 80
4, 2660, Note_on_c, 9, 51, 0
4, 2660, Note_on_c, 9, 42, 0
4, 2660, Note_on_c, 9, 37, 0
4, 2760, Note_on_c, 9, 42, 80
4, 2780, Note_on_c, 9, 42, 0
4, 2840, Note_on_c, 9, 36, 72
4, 2860, Note_on_c, 9, 36, 0
4, 2880, Note_on_c, 9, 36, 127
4, 2880, Note_on_c, 9, 42, 80
4, 2900, Note_on_c, 9, 42, 0
4, 2900, Note_on_c, 9, 36, 0
4, 3000, Note_on_c, 9, 42, 80
4, 3020, Note_on_c, 9, 42, 0
4, 3080, Note_on_c, 9, 36, 112
4, 3080, Note_on_c, 9, 42, 80
4, 3100, Note_on_c, 9, 42, 0
4, 3100, Note_on_c, 9, 36, 0
4, 3120, Note_on_c, 9, 37, 112
4, 3120, Note_on_c, 9, 42, 80
4, 3120, Note_on_c, 9, 51, 80
4, 3140, Note_on_c, 9, 51, 0
4, 3140, Note_on_c, 9, 42, 0
4, 3140, Note_on_c, 9, 37, 0
4, 3240, Note_on_c, 9, 42, 80
4, 3260, Note_on_c, 9, 42, 0
4, 3320, Note_on_c, 9, 36, 72
4, 3340, Note_on_c, 9, 36, 0
4, 3360, Note_on_c, 9, 36, 127
4, 3360, Note_on_c, 9, 42, 80
4, 3380, Note_on_c, 9, 42, 0
4, 3380, Note_on_c, 9, 36, 0
4, 3480, Note_on_c, 9, 42, 80
4, 3500, Note_on_c, 9, 42, 0
4, 3560, Note_on_c, 9, 36, 112
4, 3560, Note_on_c, 9, 42, 80
4, 3580, Note_on_c, 9, 42, 0
4, 3580, Note_on_c, 9, 36, 0
4, 3600, Note_on_c, 9, 37, 112
4, 3600, Note_on_c, 9, 42, 80
4, 3600, Note_on_c, 9, 51, 80
4, 3620, Note_on_c, 9, 51, 0
4, 3620, Note_on_c, 9, 42, 0
4, 3620, Note_on_c, 9, 37, 0
4, 3720, Note_on_c, 9, 42, 80
4, 3740, Note_on_c, 9, 42, 0
4, 3800, Note_on_c, 9, 36, 72
4, 3820, Note_on_c, 9, 36, 0
4, 3840, Note_on_c, 9, 36, 127
4, 3840, Note_on_c, 9, 42, 80
4, 3860, Note_on_c, 9, 42, 0
4, 3860, Note_on_c, 9, 36, 0
4, 3960, Note_on_c, 9, 42, 80
4, 3980, Note_on_c, 9, 42, 0
4, 4040, Note_on_c, 9, 36, 112
4, 4040, Note_on_c, 9, 42, 80
4, 4060, Note_on_c, 9, 42, 0
4, 4060, Note_on_c, 9, 36, 0
4, 4079, Note_on_c, 9, 50, 108
4, 4080, Note_on_c, 9, 37, 112
4, 4080, Note_on_c, 9, 42, 80
4, 4080, Note_on_c, 9, 51, 80
4, 4100, Note_on_c, 9, 51, 0
4, 4100, Note_on_c, 9, 42, 0
4, 4100, Note_on_c, 9, 37, 0
4, 4109, Note_on_c, 9, 50, 0
4, 4160, Note_on_c, 9, 47, 127
4, 4187, Note_on_c, 9, 47, 0
4, 4200, Note_on_c, 9, 42, 80
4, 4220, Note_on_c, 9, 42, 0
4, 4250, Note_on_c, 9, 43, 127
4, 4267, Note_on_c, 9, 43, 0
4, 4280, Note_on_c, 9, 36, 72
4, 4285, Note_on_c, 9, 43, 122
4, 4300, Note_on_c, 9, 36, 0
4, 4304, Note_on_c, 9, 43, 0
4, 4320, Note_on_c, 9, 36, 127
4, 4320, Note_on_c, 9, 42, 80
4, 4333, Note_on_c, 9, 81, 127
4, 4340, Note_on_c, 9, 42, 0
4, 4340, Note_on_c, 9, 36, 0
4, 4358, Note_on_c, 9, 81, 0
4, 4440, Note_on_c, 9, 42, 80
4, 4460, Note_on_c, 9, 42, 0
4, 4520, Note_on_c, 9, 36, 112
4, 4520, Note_on_c, 9, 42, 80
4, 4540, Note_on_c, 9, 42, 0
4, 4540, Note_on_c, 9, 36, 0
4, 4560, Note_on_c, 9, 37, 112
4, 4560, Note_on_c, 9, 42, 80
4, 4560, Note_on_c, 9, 51, 80
4, 4580, Note_on_c, 9, 51, 0
4, 4580, Note_on_c, 9, 42, 0
4, 4580, Note_on_c, 9, 37, 0
4, 4680, Note_on_c, 9, 42, 80
4, 4700, Note_on_c, 9, 42, 0
4, 4760, Note_on_c, 9, 36, 72
4, 4780, Note_on_c, 9, 36, 0
4, 4800, Note_on_c, 9, 36, 127
4, 4800, Note_on_c, 9, 42, 80
4, 4820, Note_on_c, 9, 42, 0
4, 4820, Note_on_c, 9, 36, 0
4, 4920, Note_on_c, 9, 42, 80
4, 4940, Note_on_c, 9, 42, 0
4, 5000, Note_on_c, 9, 36, 112
4, 5000, Note_on_c, 9, 42, 80
4, 5020, Note_on_c, 9, 42, 0
4, 5020, Note_on_c, 9, 36, 0
4, 5040, Note_on_c, 9, 37, 112
4, 5040, Note_on_c, 9, 42, 80
4, 5040, Note_on_c, 9, 51, 80
4, 5060, Note_on_c, 9, 51, 0
4, 5060, Note_on_c, 9, 42, 0
4, 5060, Note_on_c, 9, 37, 0
4, 5160, Note_on_c, 9, 42, 80
4, 5180, Note_on_c, 9, 42, 0
4, 5240, Note_on_c, 9, 36, 72
4, 5260, Note_on_c, 9, 36, 0
4, 5280, Note_on_c, 9, 36, 127
4, 5280, Note_on_c, 9, 42, 80
4, 5300, Note_on_c, 9, 42, 0
4, 5300, Note_on_c, 9, 36, 0
4, 5400, Note_on_c, 9, 42, 80
4, 5420, Note_on_c, 9, 42, 0
4, 5480, Note_on_c, 9, 36, 112
4, 5480, Note_on_c, 9, 42, 80
4, 5500, Note_on_c, 9, 42, 0
4, 5500, Note_on_c, 9, 36, 0
4, 5520, Note_on_c, 9, 37, 112
4, 5520, Note_on_c, 9, 42, 80
4, 5520, Note_on_c, 9, 51, 80
4, 5540, Note_on_c, 9, 51, 0
4, 5540, Note_on_c, 9, 42, 0
4, 5540, Note_on_c, 9, 37, 0
4, 5640, Note_on_c, 9, 42, 80
4, 5660, Note_on_c, 9, 42, 0
4, 5720, Note_on_c, 9, 36, 72
4, 5740, Note_on_c, 9, 36, 0
4, 5760, Note_on_c, 9, 36, 127
4, 5760, Note_on_c, 9, 42, 80
4, 5780, Note_on_c, 9, 42, 0
4, 5780, Note_on_c, 9, 36, 0
4, 5880, Note_on_c, 9, 42, 80
4, 5900, Note_on_c, 9, 42, 0
4, 5960, Note_on_c, 9, 36, 112
4, 5960, Note_on_c, 9, 42, 80
4, 5980, Note_on_c, 9, 42, 0
4, 5980, Note_on_c, 9, 36, 0
4, 6000, Note_on_c, 9, 37, 112
4, 6000, Note_on_c, 9, 42, 80
4, 6000, Note_on_c, 9, 51, 80
4, 6020, Note_on_c, 9, 51, 0
4, 6020, Note_on_c, 9, 42, 0
4, 6020, Note_on_c, 9, 37, 0
4, 6120, Note_on_c, 9, 42, 80
4, 6140, Note_on_c, 9, 42, 0
4, 6200, Note_on_c, 9, 36, 72
4, 6220, Note_on_c, 9, 36, 0
4, 6240, Note_on_c, 9, 36, 127
4, 6240, Note_on_c, 9, 42, 80
4, 6260, Note_on_c, 9, 42, 0
4, 6260, Note_on_c, 9, 36, 0
4, 6360, Note_on_c, 9, 42, 80
4, 6380, Note_on_c, 9, 42, 0
4, 6440, Note_on_c, 9, 36, 112
4, 6440, Note_on_c, 9, 42, 80
4, 6460, Note_on_c, 9, 42, 0
4, 6460, Note_on_c, 9, 36, 0
4, 6480, Note_on_c, 9, 37, 112
4, 6480, Note_on_c, 9, 42, 80
4, 6480, Note_on_c, 9, 51, 80
4, 6500, Note_on_c, 9, 51, 0
4, 6500, Note_on_c, 9, 42, 0
4, 6500, Note_on_c, 9, 37, 0
4, 6600, Note_on_c, 9, 42, 80
4, 6620, Note_on_c, 9, 42, 0
4, 6680, Note_on_c, 9, 36, 72
4, 6700, Note_on_c, 9, 36, 0
4, 6720, Note_on_c, 9, 36, 127
4, 6720, Note_on_c, 9, 42, 80
4, 6740, Note_on_c, 9, 42, 0
4, 6740, Note_on_c, 9, 36, 0
4, 6840, Note_on_c, 9, 42, 80
4, 6860, Note_on_c, 9, 42, 0
4, 6920, Note_on_c, 9, 36, 112
4, 6920, Note_on_c, 9, 42, 80
4, 6940, Note_on_c, 9, 42, 0
4, 6940, Note_on_c, 9, 36, 0
4, 6960, Note_on_c, 9, 37, 112
4, 6960, Note_on_c, 9, 42, 80
4, 6960, Note_on_c, 9, 51, 80
4, 6980, Note_on_c, 9, 51, 0
4, 6980, Note_on_c, 9, 42, 0
4, 6980, Note_on_c, 9, 37, 0
4, 7080, Note_on_c, 9, 42, 80
4, 7100, Note_on_c, 9, 42, 0
4, 7160, Note_on_c, 9, 36, 72
4, 7180, Note_on_c, 9, 36, 0
4, 7200, Note_on_c, 9, 36, 127
4, 7200, Note_on_c, 9, 42, 80
4, 7220, Note_on_c, 9, 42, 0
4, 7220, Note_on_c, 9, 36, 0
4, 7320, Note_on_c, 9, 42, 80
4, 7340, Note_on_c, 9, 42, 0
4, 7400, Note_on_c, 9, 36, 112
4, 7400, Note_on_c, 9, 42, 80
4, 7420, Note_on_c, 9, 42, 0
4, 7420, Note_on_c, 9, 36, 0
4, 7440, Note_on_c, 9, 37, 112
4, 7440, Note_on_c, 9, 42, 80
4, 7440, Note_on_c, 9, 51, 80
4, 7460, Note_on_c, 9, 51, 0
4, 7460, Note_on_c, 9, 42, 0
4, 7460, Note_on_c, 9, 37, 0
4, 7560, Note_on_c, 9, 42, 80
4, 7580, Note_on_c, 9, 42, 0
4, 7640, Note_on_c, 9, 36, 72
4, 7660, Note_on_c, 9, 36, 0
4, 7680, Note_on_c, 9, 36, 127
4, 7680, Note_on_c, 9, 42, 80
4, 7700, Note_on_c, 9, 42, 0
4, 7700, Note_on_c, 9, 36, 0
4, 7800, Note_on_c, 9, 42, 80
4, 7820, Note_on_c, 9, 42, 0
4, 7880, Note_on_c, 9, 36, 112
4, 7880, Note_on_c, 9, 42, 80
4, 7900, Note_on_c, 9, 42, 0
4, 7900, Note_on_c, 9, 36, 0
4, 7919, Note_on_c, 9, 50, 108
4, 7920, Note_on_c, 9, 37, 112
4, 7920, Note_on_c, 9, 42, 80
4, 7920, Note_on_c, 9, 51, 80
4, 7940, Note_on_c, 9, 51, 0
4, 7940, Note_on_c, 9, 42, 0
4, 7940, Note_on_c, 9, 37, 0
4, 7949, Note_on_c, 9, 50, 0
4, 8000, Note_on_c, 9, 47, 127
4, 8027, Note_on_c, 9, 47, 0
4, 8040, Note_on_c, 9, 42, 80
4, 8060, Note_on_c, 9, 42, 0
4, 8090, Note_on_c, 9, 43, 127
4, 8107, Note_on_c, 9, 43, 0
4, 8120, Note_on_c, 9, 36, 72
4, 8125, Note_on_c, 9, 43, 122
4, 8140, Note_on_c, 9, 36, 0
4, 8144, Note_on_c, 9, 43, 0
4, 8160, Note_on_c, 9, 36, 127
4, 8160, Note_on_c, 9, 42, 80
4, 8180, Note_on_c, 9, 42, 0
4, 8180, Note_on_c, 9, 36, 0
4, 8280, Note_on_c, 9, 42, 80
4, 8300, Note_on_c, 9, 42, 0
4, 8360, Note_on_c, 9, 36, 112
4, 8360, Note_on_c, 9, 42, 80
4, 8380, Note_on_c, 9, 42, 0
4, 8380, Note_on_c, 9, 36, 0
4, 8400, Note_on_c, 9, 37, 112
4, 8400, Note_on_c, 9, 42, 80
4, 8400, Note_on_c, 9, 51, 80
4, 8420, Note_on_c, 9, 51, 0
4, 8420, Note_on_c, 9, 42, 0
4, 8420, Note_on_c, 9, 37, 0
4, 8520, Note_on_c, 9, 42, 80
4, 8540, Note_on_c, 9, 42, 0
4, 8600, Note_on_c, 9, 36, 72
4, 8620, Note_on_c, 9, 36, 0
4, 8640, Note_on_c, 9, 36, 127
4, 8640, Note_on_c, 9, 42, 80
4, 8660, Note_on_c, 9, 42, 0
4, 8660, Note_on_c, 9, 36, 0
4, 8760, Note_on_c, 9, 42, 80
4, 8780, Note_on_c, 9, 42, 0
4, 8840, Note_on_c, 9, 36, 112
4, 8840, Note_on_c, 9, 42, 80
4, 8860, Note_on_c, 9, 42, 0
4, 8860, Note_on_c, 9, 36, 0
4, 8880, Note_on_c, 9, 37, 112
4, 8880, Note_on_c, 9, 42, 80
4, 8880, Note_on_c, 9, 51, 80
4, 8900, Note_on_c, 9, 51, 0
4, 8900, Note_on_c, 9, 42, 0
4, 8900, Note_on_c, 9, 37, 0
4, 9000, Note_on_c, 9, 42, 80
4, 9020, Note_on_c, 9, 42, 0
4, 9080, Note_on_c, 9, 36, 72
4, 9100, Note_on_c, 9, 36, 0
4, 9120, Note_on_c, 9, 36, 127
4, 9120, Note_on_c, 9, 42, 80
4, 9140, Note_on_c, 9, 42, 0
4, 9140, Note_on_c, 9, 36, 0
4, 9240, Note_on_c, 9, 42, 80
4, 9260, Note_on_c, 9, 42, 0
4, 9320, Note_on_c, 9, 36, 112
4, 9320, Note_on_c, 9, 42, 80
4, 9340, Note_on_c, 9, 42, 0
4, 9340, Note_on_c, 9, 36, 0
4, 9360, Note_on_c, 9, 37, 112
4, 9360, Note_on_c, 9, 42, 80
4, 9360, Note_on_c, 9, 51, 80
4, 9380, Note_on_c, 9, 51, 0
4, 9380, Note_on_c, 9, 42, 0
4, 9380, Note_on_c, 9, 37, 0
4, 9480, Note_on_c, 9, 42, 80
4, 9500, Note_on_c, 9, 42, 0
4, 9560, Note_on_c, 9, 36, 72
4, 9580, Note_on_c, 9, 36, 0
4, 9600, Note_on_c, 9, 36, 127
4, 9600, Note_on_c, 9, 42, 80
4, 9620, Note_on_c, 9, 42, 0
4, 9620, Note_on_c, 9, 36, 0
4, 9720, Note_on_c, 9, 42, 80
4, 9740, Note_on_c, 9, 42, 0
4, 9800, Note_on_c, 9, 36, 112
4, 9800, Note_on_c, 9, 42, 80
4, 9820, Note_on_c, 9, 42, 0
4, 9820, Note_on_c, 9, 36, 0
4, 9840, Note_on_c, 9, 37, 112
4, 9840, Note_on_c, 9, 42, 80
4, 9840, Note_on_c, 9, 51, 80
4, 9860, Note_on_c, 9, 51, 0
4, 9860, Note_on_c, 9, 42, 0
4, 9860, Note_on_c, 9, 37, 0
4, 9960, Note_on_c, 9, 42, 80
4, 9980, Note_on_c, 9, 42, 0
4, 10040, Note_on_c, 9, 36, 72
4, 10060, Note_on_c, 9, 36, 0
4, 10080, Note_on_c, 9, 36, 127
4, 10080, Note_on_c, 9, 42, 80
4, 10100, Note_on_c, 9, 42, 0
4, 10100, Note_on_c, 9, 36, 0
4, 10200, Note_on_c, 9, 42, 80
4, 10220, Note_on_c, 9, 42, 0
4, 10280, Note_on_c, 9, 36, 112
4, 10280, Note_on_c, 9, 42, 80
4, 10300, Note_on_c, 9, 42, 0
4, 10300, Note_on_c, 9, 36, 0
4, 10320, Note_on_c, 9, 37, 112
4, 10320, Note_on_c, 9, 42, 80
4, 10320, Note_on_c, 9, 51, 80
4, 10340, Note_on_c, 9, 51, 0
4, 10340, Note_on_c, 9, 42, 0
4, 10340, Note_on_c, 9, 37, 0
4, 10440, Note_on_c, 9, 42, 80
4, 10460, Note_on_c, 9, 42, 0
4, 10520, Note_on_c, 9, 36, 72
4, 10540, Note_on_c, 9, 36, 0
4, 10560, Note_on_c, 9, 36, 127
4, 10560, Note_on_c, 9, 42, 80
4, 10580, Note_on_c, 9, 42, 0
4, 10580, Note_on_c, 9, 36, 0
4, 10680, Note_on_c, 9, 42, 80
4, 10700, Note_on_c, 9, 42, 0
4, 10760, Note_on_c, 9, 36, 112
4, 10760, Note_on_c, 9, 42, 80
4, 10780, Note_on_c, 9, 42, 0
4, 10780, Note_on_c, 9, 36, 0
4, 10800, Note_on_c, 9, 37, 112
4, 10800, Note_on_c, 9, 42, 80
4, 10800, Note_on_c, 9, 51, 80
4, 10820, Note_on_c, 9, 51, 0
4, 10820, Note_on_c, 9, 42, 0
4, 10820, Note_on_c, 9, 37, 0
4, 10920, Note_on_c, 9, 42, 80
4, 10940, Note_on_c, 9, 42, 0
4, 11000, Note_on_c, 9, 36, 72
4, 11020, Note_on_c, 9, 36, 0
4, 11040, Note_on_c, 9, 36, 127
4, 11040, Note_on_c, 9, 42, 80
4, 11040, Note_on_c, 9, 38, 125
4, 11060, Note_on_c, 9, 38, 0
4, 11060, Note_on_c, 9, 42, 0
4, 11060, Note_on_c, 9, 36, 0
4, 11123, Note_on_c, 9, 47, 101
4, 11148, Note_on_c, 9, 47, 0
4, 11160, Note_on_c, 9, 42, 80
4, 11180, Note_on_c, 9, 42, 0
4, 11233, Note_on_c, 9, 43, 104
4, 11240, Note_on_c, 9, 36, 112
4, 11240, Note_on_c, 9, 42, 80
4, 11257, Note_on_c, 9, 43, 0
4, 11260, Note_on_c, 9, 42, 0
4, 11260, Note_on_c, 9, 36, 0
4, 11280, Note_on_c, 9, 51, 80
4, 11280, Note_on_c, 9, 42, 80
4, 11280, Note_on_c, 9, 38, 126
4, 11300, Note_on_c, 9, 38, 0
4, 11300, Note_on_c, 9, 42, 0
4, 11300, Note_on_c, 9, 51, 0
4, 11400, Note_on_c, 9, 42, 80
4, 11420, Note_on_c, 9, 42, 0
4, 11440, Note_on_c, 9, 38, 126
4, 11460, Note_on_c, 9, 38, 0
4, 11480, Note_on_c, 9, 36, 72
4, 11480, Note_on_c, 9, 38, 126
4, 11500, Note_on_c, 9, 38, 0
4, 11500, Note_on_c, 9, 36, 0
4, 11520, Note_on_c, 9, 36, 127
4, 11520, Note_on_c, 9, 42, 80
4, 11540, Note_on_c, 9, 42, 0
4, 11540, Note_on_c, 9, 36, 0
4, 11640, Note_on_c, 9, 42, 80
4, 11660, Note_on_c, 9, 42, 0
4, 11720, Note_on_c, 9, 36, 112
4, 11720, Note_on_c, 9, 42, 80
4, 11740, Note_on_c, 9, 42, 0
4, 11740, Note_on_c, 9, 36, 0
4, 11760, Note_on_c, 9, 51, 80
4, 11760, Note_on_c, 9, 42, 80
4, 11760, Note_on_c, 9, 38, 126
4, 11780, Note_on_c, 9, 38, 0
4, 11780, Note_on_c, 9, 42, 0
4, 11780, Note_on_c, 9, 51, 0
4, 11880, Note_on_c, 9, 42, 80
4, 11900, Note_on_c, 9, 42, 0
4, 11960, Note_on_c, 9, 36, 72
4, 11980, Note_on_c, 9, 36, 0
4, 12000, Note_on_c, 9, 36, 127
4, 12000, Note_on_c, 9, 42, 80
4, 12020, Note_on_c, 9, 42, 0
4, 12020, Note_on_c, 9, 36, 0
4, 12120, Note_on_c, 9, 42, 80
4, 12140, Note_on_c, 9, 42, 0
4, 12200, Note_on_c, 9, 36, 112
4, 12200, Note_on_c, 9, 42, 80
4, 12220, Note_on_c, 9, 42, 0
4, 12220, Note_on_c, 9, 36, 0
4, 12240, Note_on_c, 9, 51, 80
4, 12240, Note_on_c, 9, 42, 80
4, 12240, Note_on_c, 9, 38, 127
4, 12260, Note_on_c, 9, 38, 0
4, 12260, Note_on_c, 9, 42, 0
4, 12260, Note_on_c, 9, 51, 0
4, 12360, Note_on_c, 9, 42, 80
4, 12380, Note_on_c, 9, 42, 0
4, 12440, Note_on_c, 9, 36, 72
4, 12460, Note_on_c, 9, 36, 0
4, 12480, Note_on_c, 9, 36, 127
4, 12480, Note_on_c, 9, 42, 80
4, 12500, Note_on_c, 9, 42, 0
4, 12500, Note_on_c, 9, 36, 0
4, 12600, Note_on_c, 9, 42, 80
4, 12620, Note_on_c, 9, 42, 0
4, 12680, Note_on_c, 9, 36, 112
4, 12680, Note_on_c, 9, 42, 80
4, 12700, Note_on_c, 9, 42, 0
4, 12700, Note_on_c, 9, 36, 0
4, 12720, Note_on_c, 9, 51, 80
4, 12720, Note_on_c, 9, 42, 80
4, 12720, Note_on_c, 9, 38, 126
4, 12740, Note_on_c, 9, 38, 0
4, 12740, Note_on_c, 9, 42, 0
4, 12740, Note_on_c, 9, 51, 0
4, 12840, Note_on_c, 9, 42, 80
4, 12860, Note_on_c, 9, 42, 0
4, 12920, Note_on_c, 9, 36, 72
4, 12940, Note_on_c, 9, 36, 0
4, 12960, Note_on_c, 9, 36, 127
4, 12960, Note_on_c, 9, 42, 80
4, 12980, Note_on_c, 9, 42, 0
4, 12980, Note_on_c, 9, 36, 0
4, 13080, Note_on_c, 9, 42, 80
4, 13100, Note_on_c, 9, 42, 0
4, 13160, Note_on_c, 9, 36, 112
4, 13160, Note_on_c, 9, 42, 80
4, 13180, Note_on_c, 9, 42, 0
4, 13180, Note_on_c, 9, 36, 0
4, 13200, Note_on_c, 9, 51, 80
4, 13200, Note_on_c, 9, 42, 80
4, 13200, Note_on_c, 9, 38, 126
4, 13220, Note_on_c, 9, 38, 0
4, 13220, Note_on_c, 9, 42, 0
4, 13220, Note_on_c, 9, 51, 0
4, 13320, Note_on_c, 9, 42, 80
4, 13340, Note_on_c, 9, 42, 0
4, 13400, Note_on_c, 9, 36, 72
4, 13420, Note_on_c, 9, 36, 0
4, 13440, Note_on_c, 9, 36, 127
4, 13440, Note_on_c, 9, 42, 80
4, 13460, Note_on_c, 9, 42, 0
4, 13460, Note_on_c, 9, 36, 0
4, 13560, Note_on_c, 9, 42, 80
4, 13580, Note_on_c, 9, 42, 0
4, 13640, Note_on_c, 9, 36, 112
4, 13640, Note_on_c, 9, 42, 80
4, 13660, Note_on_c, 9, 42, 0
4, 13660, Note_on_c, 9, 36, 0
4, 13680, Note_on_c, 9, 51, 80
4, 13680, Note_on_c, 9, 42, 80
4, 13680, Note_on_c, 9, 38, 126
4, 13700, Note_on_c, 9, 38, 0
4, 13700, Note_on_c, 9, 42, 0
4, 13700, Note_on_c, 9, 51, 0
4, 13800, Note_on_c, 9, 42, 80
4, 13820, Note_on_c, 9, 42, 0
4, 13880, Note_on_c, 9, 36, 72
4, 13900, Note_on_c, 9, 36, 0
4, 13920, Note_on_c, 9, 36, 127
4, 13920, Note_on_c, 9, 42, 80
4, 13940, Note_on_c, 9, 42, 0
4, 13940, Note_on_c, 9, 36, 0
4, 14040, Note_on_c, 9, 42, 80
4, 14060, Note_on_c, 9, 42, 0
4, 14120, Note_on_c, 9, 36, 112
4, 14120, Note_on_c, 9, 42, 80
4, 14140, Note_on_c, 9, 42, 0
4, 14140, Note_on_c, 9, 36, 0
4, 14160, Note_on_c, 9, 51, 80
4, 14160, Note_on_c, 9, 42, 80
4, 14160, Note_on_c, 9, 38, 126
4, 14180, Note_on_c, 9, 38, 0
4, 14180, Note_on_c, 9, 42, 0
4, 14180, Note_on_c, 9, 51, 0
4, 14280, Note_on_c, 9, 42, 80
4, 14300, Note_on_c, 9, 42, 0
4, 14360, Note_on_c, 9, 36, 72
4, 14380, Note_on_c, 9, 36, 0
4, 14400, Note_on_c, 9, 36, 127
4, 14400, Note_on_c, 9, 42, 80
4, 14420, Note_on_c, 9, 42, 0
4, 14420, Note_on_c, 9, 36, 0
4, 14520, Note_on_c, 9, 42, 80
4, 14540, Note_on_c, 9, 42, 0
4, 14600, Note_on_c, 9, 36, 112
4, 14600, Note_on_c, 9, 42, 80
4, 14620, Note_on_c, 9, 42, 0
4, 14620, Note_on_c, 9, 36, 0
4, 14640, Note_on_c, 9, 51, 80
4, 14640, Note_on_c, 9, 42, 80
4, 14640, Note_on_c, 9, 38, 127
4, 14660, Note_on_c, 9, 38, 0
4, 14660, Note_on_c, 9, 42, 0
4, 14660, Note_on_c, 9, 51, 0
4, 14760, Note_on_c, 9, 42, 80
4, 14780, Note_on_c, 9, 42, 0
4, 14840, Note_on_c, 9, 36, 72
4, 14860, Note_on_c, 9, 36, 0
4, 14880, Note_on_c, 9, 36, 127
4, 14880, Note_on_c, 9, 42, 80
4, 14900, Note_on_c, 9, 42, 0
4, 14900, Note_on_c, 9, 36, 0
4, 15000, Note_on_c, 9, 42, 80
4, 15020, Note_on_c, 9, 42, 0
4, 15080, Note_on_c, 9, 36, 112
4, 15080, Note_on_c, 9, 42, 80
4, 15100, Note_on_c, 9, 42, 0
4, 15100, Note_on_c, 9, 36, 0
4, 15120, Note_on_c, 9, 51, 80
4, 15120, Note_on_c, 9, 42, 80
4, 15120, Note_on_c, 9, 38, 127
4, 15140, Note_on_c, 9, 38, 0
4, 15140, Note_on_c, 9, 42, 0
4, 15140, Note_on_c, 9, 51, 0
4, 15240, Note_on_c, 9, 42, 80
4, 15260, Note_on_c, 9, 42, 0
4, 15320, Note_on_c, 9, 36, 72
4, 15340, Note_on_c, 9, 36, 0
4, 15360, Note_on_c, 9, 36, 127
4, 15360, Note_on_c, 9, 42, 80
4, 15380, Note_on_c, 9, 42, 0
4, 15380, Note_on_c, 9, 36, 0
4, 15480, Note_on_c, 9, 42, 80
4, 15500, Note_on_c, 9, 42, 0
4, 15560, Note_on_c, 9, 36, 112
4, 15560, Note_on_c, 9, 42, 80
4, 15580, Note_on_c, 9, 42, 0
4, 15580, Note_on_c, 9, 36, 0
4, 15600, Note_on_c, 9, 51, 80
4, 15600, Note_on_c, 9, 42, 80
4, 15600, Note_on_c, 9, 38, 127
4, 15620, Note_on_c, 9, 38, 0
4, 15620, Note_on_c, 9, 42, 0
4, 15620, Note_on_c, 9, 51, 0
4, 15720, Note_on_c, 9, 42, 80
4, 15740, Note_on_c, 9, 42, 0
4, 15800, Note_on_c, 9, 36, 72
4, 15820, Note_on_c, 9, 36, 0
4, 15840, Note_on_c, 9, 36, 127
4, 15840, Note_on_c, 9, 42, 80
4, 15860, Note_on_c, 9, 42, 0
4, 15860, Note_on_c, 9, 36, 0
4, 15960, Note_on_c, 9, 42, 80
4, 15980, Note_on_c, 9, 42, 0
4, 16040, Note_on_c, 9, 36, 112
4, 16040, Note_on_c, 9, 42, 80
4, 16060, Note_on_c, 9, 42, 0
4, 16060, Note_on_c, 9, 36, 0
4, 16080, Note_on_c, 9, 51, 80
4, 16080, Note_on_c, 9, 42, 80
4, 16080, Note_on_c, 9, 38, 127
4, 16100, Note_on_c, 9, 38, 0
4, 16100, Note_on_c, 9, 42, 0
4, 16100, Note_on_c, 9, 51, 0
4, 16200, Note_on_c, 9, 42, 80
4, 16220, Note_on_c, 9, 42, 0
4, 16280, Note_on_c, 9, 36, 72
4, 16300, Note_on_c, 9, 36, 0
4, 16320, Note_on_c, 9, 36, 127
4, 16320, Note_on_c, 9, 42, 80
4, 16340, Note_on_c, 9, 42, 0
4, 16340, Note_on_c, 9, 36, 0
4, 16440, Note_on_c, 9, 42, 80
4, 16460, Note_on_c, 9, 42, 0
4, 16520, Note_on_c, 9, 36, 112
4, 16520, Note_on_c, 9, 42, 80
4, 16540, Note_on_c, 9, 42, 0
4, 16540, Note_on_c, 9, 36, 0
4, 16560, Note_on_c, 9, 51, 80
4, 16560, Note_on_c, 9, 42, 80
4, 16560, Note_on_c, 9, 38, 126
4, 16580, Note_on_c, 9, 38, 0
4, 16580, Note_on_c, 9, 42, 0
4, 16580, Note_on_c, 9, 51, 0
4, 16680, Note_on_c, 9, 42, 80
4, 16700, Note_on_c, 9, 42, 0
4, 16760, Note_on_c, 9, 36, 72
4, 16780, Note_on_c, 9, 36, 0
4, 16800, Note_on_c, 9, 36, 127
4, 16800, Note_on_c, 9, 42, 80
4, 16820, Note_on_c, 9, 42, 0
4, 16820, Note_on_c, 9, 36, 0
4, 16920, Note_on_c, 9, 42, 80
4, 16940, Note_on_c, 9, 42, 0
4, 17000, Note_on_c, 9, 36, 112
4, 17000, Note_on_c, 9, 42, 80
4, 17020, Note_on_c, 9, 42, 0
4, 17020, Note_on_c, 9, 36, 0
4, 17040, Note_on_c, 9, 51, 80
4, 17040, Note_on_c, 9, 42, 80
4, 17040, Note_on_c, 9, 38, 126
4, 17060, Note_on_c, 9, 38, 0
4, 17060, Note_on_c, 9, 42, 0
4, 17060, Note_on_c, 9, 51, 0
4, 17160, Note_on_c, 9, 42, 80
4, 17180, Note_on_c, 9, 42, 0
4, 17240, Note_on_c, 9, 36, 72
4, 17260, Note_on_c, 9, 36, 0
4, 17280, Note_on_c, 9, 36, 127
4, 17280, Note_on_c, 9, 42, 80
4, 17300, Note_on_c, 9, 42, 0
4, 17300, Note_on_c, 9, 36, 0
4, 17400, Note_on_c, 9, 42, 80
4, 17420, Note_on_c, 9, 42, 0
4, 17480, Note_on_c, 9, 36, 112
4, 17480, Note_on_c, 9, 42, 80
4, 17500, Note_on_c, 9, 42, 0
4, 17500, Note_on_c, 9, 36, 0
4, 17520, Note_on_c, 9, 51, 80
4, 17520, Note_on_c, 9, 42, 80
4, 17520, Note_on_c, 9, 38, 126
4, 17540, Note_on_c, 9, 38, 0
4, 17540, Note_on_c, 9, 42, 0
4, 17540, Note_on_c, 9, 51, 0
4, 17640, Note_on_c, 9, 42, 80
4, 17660, Note_on_c, 9, 42, 0
4, 17720, Note_on_c, 9, 36, 72
4, 17740, Note_on_c, 9, 36, 0
4, 17760, Note_on_c, 9, 36, 127
4, 17760, Note_on_c, 9, 42, 80
4, 17780, Note_on_c, 9, 42, 0
4, 17780, Note_on_c, 9, 36, 0
4, 17880, Note_on_c, 9, 42, 80
4, 17900, Note_on_c, 9, 42, 0
4, 17960, Note_on_c, 9, 36, 112
4, 17960, Note_on_c, 9, 42, 80
4, 17980, Note_on_c, 9, 42, 0
4, 17980, Note_on_c, 9, 36, 0
4, 18000, Note_on_c, 9, 51, 80
4, 18000, Note_on_c, 9, 42, 80
4, 18000, Note_on_c, 9, 38, 127
4, 18020, Note_on_c, 9, 38, 0
4, 18020, Note_on_c, 9, 42, 0
4, 18020, Note_on_c, 9, 51, 0
4, 18120, Note_on_c, 9, 42, 80
4, 18140, Note_on_c, 9, 42, 0
4, 18200, Note_on_c, 9, 36, 72
4, 18220, Note_on_c, 9, 36, 0
4, 18240, Note_on_c, 9, 36, 127
4, 18240, Note_on_c, 9, 42, 80
4, 18260, Note_on_c, 9, 42, 0
4, 18260, Note_on_c, 9, 36, 0
4, 18360, Note_on_c, 9, 42, 80
4, 18380, Note_on_c, 9, 42, 0
4, 18440, Note_on_c, 9, 36, 112
4, 18440, Note_on_c, 9, 42, 80
4, 18460, Note_on_c, 9, 42, 0
4, 18460, Note_on_c, 9, 36, 0
4, 18480, Note_on_c, 9, 51, 80
4, 18480, Note_on_c, 9, 42, 80
4, 18480, Note_on_c, 9, 38, 127
4, 18500, Note_on_c, 9, 38, 0
4, 18500, Note_on_c, 9, 42, 0
4, 18500, Note_on_c, 9, 51, 0
4, 18600, Note_on_c, 9, 42, 80
4, 18620, Note_on_c, 9, 42, 0
4, 18680, Note_on_c, 9, 36, 72
4, 18700, Note_on_c, 9, 36, 0
4, 18720, Note_on_c, 9, 36, 127
4, 18720, Note_on_c, 9, 42, 80
4, 18740, Note_on_c, 9, 42, 0
4, 18740, Note_on_c, 9, 36, 0
4, 18840, Note_on_c, 9, 42, 80
4, 18860, Note_on_c, 9, 42, 0
4, 18920, Note_on_c, 9, 36, 112
4, 18920, Note_on_c, 9, 42, 80
4, 18940, Note_on_c, 9, 42, 0
4, 18940, Note_on_c, 9, 36, 0
4, 18960, Note_on_c, 9, 51, 80
4, 18960, Note_on_c, 9, 42, 80
4, 18960, Note_on_c, 9, 38, 127
4, 18980, Note_on_c, 9, 38, 0
4, 18980, Note_on_c, 9, 42, 0
4, 18980, Note_on_c, 9, 51, 0
4, 19080, Note_on_c, 9, 42, 80
4, 19100, Note_on_c, 9, 42, 0
4, 19160, Note_on_c, 9, 36, 72
4, 19180, Note_on_c, 9, 36, 0
4, 19200, Note_on_c, 9, 36, 127
4, 19200, Note_on_c, 9, 42, 80
4, 19220, Note_on_c, 9, 42, 0
4, 19220, Note_on_c, 9, 36, 0
4, 19320, Note_on_c, 9, 42, 80
4, 19340, Note_on_c, 9, 42, 0
4, 19400, Note_on_c, 9, 36, 112
4, 19400, Note_on_c, 9, 42, 80
4, 19420, Note_on_c, 9, 42, 0
4, 19420, Note_on_c, 9, 36, 0
4, 19440, Note_on_c, 9, 51, 80
4, 19440, Note_on_c, 9, 42, 80
4, 19440, Note_on_c, 9, 38, 127
4, 19460, Note_on_c, 9, 38, 0
4, 19460, Note_on_c, 9, 42, 0
4, 19460, Note_on_c, 9, 51, 0
4, 19560, Note_on_c, 9, 42, 80
4, 19580, Note_on_c, 9, 42, 0
4, 19640, Note_on_c, 9, 36, 72
4, 19660, Note_on_c, 9, 36, 0
4, 19680, Note_on_c, 9, 36, 127
4, 19680, Note_on_c, 9, 42, 80
4, 19700, Note_on_c, 9, 42, 0
4, 19700, Note_on_c, 9, 36, 0
4, 19800, Note_on_c, 9, 42, 80
4, 19820, Note_on_c, 9, 42, 0
4, 19880, Note_on_c, 9, 36, 112
4, 19880, Note_on_c, 9, 42, 80
4, 19900, Note_on_c, 9, 42, 0
4, 19900, Note_on_c, 9, 36, 0
4, 19920, Note_on_c, 9, 51, 80
4, 19920, Note_on_c, 9, 42, 80
4, 19920, Note_on_c, 9, 38, 127
4, 19940, Note_on_c, 9, 38, 0
4, 19940, Note_on_c, 9, 42, 0
4, 19940, Note_on_c, 9, 51, 0
4, 20040, Note_on_c, 9, 42, 80
4, 20060, Note_on_c, 9, 42, 0
4, 20120, Note_on_c, 9, 36, 72
4, 20140, Note_on_c, 9, 36, 0
4, 20160, Note_on_c, 9, 36, 127
4, 20160, Note_on_c, 9, 42, 80
4, 20180, Note_on_c, 9, 42, 0
4, 20180, Note_on_c, 9, 36, 0
4, 20280, Note_on_c, 9, 42, 80
4, 20300, Note_on_c, 9, 42, 0
4, 20360, Note_on_c, 9, 36, 112
4, 20360, Note_on_c, 9, 42, 80
4, 20380, Note_on_c, 9, 42, 0
4, 20380, Note_on_c, 9, 36, 0
4, 20400, Note_on_c, 9, 51, 80
4, 20400, Note_on_c, 9, 42, 80
4, 20400, Note_on_c, 9, 38, 125
4, 20420, Note_on_c, 9, 38, 0
4, 20420, Note_on_c, 9, 42, 0
4, 20420, Note_on_c, 9, 51, 0
4, 20520, Note_on_c, 9, 42, 80
4, 20540, Note_on_c, 9, 42, 0
4, 20600, Note_on_c, 9, 36, 72
4, 20620, Note_on_c, 9, 36, 0
4, 20640, Note_on_c, 9, 36, 127
4, 20640, Note_on_c, 9, 42, 80
4, 20660, Note_on_c, 9, 42, 0
4, 20660, Note_on_c, 9, 36, 0
4, 20760, Note_on_c, 9, 42, 80
4, 20780, Note_on_c, 9, 42, 0
4, 20840, Note_on_c, 9, 36, 112
4, 20840, Note_on_c, 9, 42, 80
4, 20860, Note_on_c, 9, 42, 0
4, 20860, Note_on_c, 9, 36, 0
4, 20880, Note_on_c, 9, 51, 80
4, 20880, Note_on_c, 9, 42, 80
4, 20880, Note_on_c, 9, 38, 124
4, 20900, Note_on_c, 9, 38, 0
4, 20900, Note_on_c, 9, 42, 0
4, 20900, Note_on_c, 9, 51, 0
4, 21000, Note_on_c, 9, 42, 80
4, 21020, Note_on_c, 9, 42, 0
4, 21080, Note_on_c, 9, 36, 72
4, 21100, Note_on_c, 9, 36, 0
4, 21120, Note_on_c, 9, 36, 127
4, 21120, Note_on_c, 9, 42, 80
4, 21140, Note_on_c, 9, 42, 0
4, 21140, Note_on_c, 9, 36, 0
4, 21240, Note_on_c, 9, 42, 80
4, 21260, Note_on_c, 9, 42, 0
4, 21320, Note_on_c, 9, 36, 112
4, 21320, Note_on_c, 9, 42, 80
4, 21340, Note_on_c, 9, 42, 0
4, 21340, Note_on_c, 9, 36, 0
4, 21360, Note_on_c, 9, 51, 80
4, 21360, Note_on_c, 9, 42, 80
4, 21360, Note_on_c, 9, 38, 121
4, 21380, Note_on_c, 9, 38, 0
4, 21380, Note_on_c, 9, 42, 0
4, 21380, Note_on_c, 9, 51, 0
4, 21480, Note_on_c, 9, 42, 80
4, 21500, Note_on_c, 9, 42, 0
4, 21560, Note_on_c, 9, 36, 72
4, 21580, Note_on_c, 9, 36, 0
4, 21600, Note_on_c, 9, 36, 127
4, 21600, Note_on_c, 9, 42, 80
4, 21620, Note_on_c, 9, 42, 0
4, 21620, Note_on_c, 9, 36, 0
4, 21720, Note_on_c, 9, 42, 80
4, 21740, Note_on_c, 9, 42, 0
4, 21800, Note_on_c, 9, 36, 112
4, 21800, Note_on_c, 9, 42, 80
4, 21820, Note_on_c, 9, 42, 0
4, 21820, Note_on_c, 9, 36, 0
4, 21840, Note_on_c, 9, 51, 80
4, 21840, Note_on_c, 9, 42, 80
4, 21840, Note_on_c, 9, 38, 115
4, 21860, Note_on_c, 9, 38, 0
4, 21860, Note_on_c, 9, 42, 0
4, 21860, Note_on_c, 9, 51, 0
4, 21960, Note_on_c, 9, 42, 80
4, 21980, Note_on_c, 9, 42, 0
4, 22040, Note_on_c, 9, 36, 72
4, 22060, Note_on_c, 9, 36, 0
4, 22080, Note_on_c, 9, 36, 127
4, 22080, Note_on_c, 9, 42, 80
4, 22100, Note_on_c, 9, 42, 0
4, 22100, Note_on_c, 9, 36, 0
4, 22200, Note_on_c, 9, 42, 80
4, 22220, Note_on_c, 9, 42, 0
4, 22280, Note_on_c, 9, 36, 112
4, 22280, Note_on_c, 9, 42, 80
4, 22300, Note_on_c, 9, 42, 0
4, 22300, Note_on_c, 9, 36, 0
4, 22320, Note_on_c, 9, 51, 80
4, 22320, Note_on_c, 9, 42, 80
4, 22320, Note_on_c, 9, 38, 113
4, 22340, Note_on_c, 9, 38, 0
4, 22340, Note_on_c, 9, 42, 0
4, 22340, Note_on_c, 9, 51, 0
4, 22440, Note_on_c, 9, 42, 80
4, 22460, Note_on_c, 9, 42, 0
4, 22520, Note_on_c, 9, 36, 72
4, 22540, Note_on_c, 9, 36, 0
4, 22560, Note_on_c, 9, 36, 127
4, 22560, Note_on_c, 9, 42, 80
4, 22580, Note_on_c, 9, 42, 0
4, 22580, Note_on_c, 9, 36, 0
4, 22680, Note_on_c, 9, 42, 80
4, 22700, Note_on_c, 9, 42, 0
4, 22740, Note_on_c, 9, 38, 113
4, 22756, Note_on_c, 9, 38, 0
4, 22760, Note_on_c, 9, 42, 80
4, 22770, Note_on_c, 9, 38, 113
4, 22780, Note_on_c, 9, 42, 0
4, 22790, Note_on_c, 9, 38, 0
4, 22800, Note_on_c, 9, 47, 127
4, 22800, Note_on_c, 9, 51, 80
4, 22800, Note_on_c, 9, 42, 80
4, 22800, Note_on_c, 9, 38, 113
4, 22820, Note_on_c, 9, 38, 0
4, 22820, Note_on_c, 9, 42, 0
4, 22820, Note_on_c, 9, 51, 0
4, 22848, Note_on_c, 9, 47, 0
4, 22885, Note_on_c, 9, 43, 127
4, 22920, Note_on_c, 9, 42, 80
4, 22921, Note_on_c, 9, 43, 0
4, 22940, Note_on_c, 9, 42, 0
4, 22969, Note_on_c, 9, 43, 117
4, 22991, Note_on_c, 9, 43, 0
4, 23000, Note_on_c, 9, 36, 72
4, 23020, Note_on_c, 9, 36, 0
4, 23040, Note_on_c, 9, 36, 127
4, 23040, Note_on_c, 9, 42, 80
4, 23060, Note_on_c, 9, 42, 0
4, 23060, Note_on_c, 9, 36, 0
4, 23160, Note_on_c, 9, 42, 80
4, 23180, Note_on_c, 9, 42, 0
4, 23240, Note_on_c, 9, 36, 112
4, 23240, Note_on_c, 9, 42, 80
4, 23260, Note_on_c, 9, 42, 0
4, 23260, Note_on_c, 9, 36, 0
4, 23280, Note_on_c, 9, 51, 80
4, 23280, Note_on_c, 9, 42, 80
4, 23280, Note_on_c, 9, 38, 115
4, 23300, Note_on_c, 9, 38, 0
4, 23300, Note_on_c, 9, 42, 0
4, 23300, Note_on_c, 9, 51, 0
4, 23400, Note_on_c, 9, 42, 80
4, 23420, Note_on_c, 9, 42, 0
4, 23480, Note_on_c, 9, 36, 72
4, 23500, Note_on_c, 9, 36, 0
4, 23520, Note_on_c, 9, 36, 127
4, 23520, Note_on_c, 9, 42, 80
4, 23540, Note_on_c, 9, 42, 0
4, 23540, Note_on_c, 9, 36, 0
4, 23640, Note_on_c, 9, 42, 80
4, 23660, Note_on_c, 9, 42, 0
4, 23720, Note_on_c, 9, 36, 112
4, 23720, Note_on_c, 9, 42, 80
4, 23740, Note_on_c, 9, 42, 0
4, 23740, Note_on_c, 9, 36, 0
4, 23760, Note_on_c, 9, 51, 80
4, 23760, Note_on_c, 9, 42, 80
4, 23760, Note_on_c, 9, 38, 125
4, 23780, Note_on_c, 9, 38, 0
4, 23780, Note_on_c, 9, 42, 0
4, 23780, Note_on_c, 9, 51, 0
4, 23840, Note_on_c, 9, 38, 125
4, 23860, Note_on_c, 9, 38, 0
4, 23880, Note_on_c, 9, 42, 80
4, 23900, Note_on_c, 9, 42, 0
4, 23939, Note_on_c, 9, 47, 108
4, 23955, Note_on_c, 9, 47, 0
4, 23960, Note_on_c, 9, 36, 72
4, 23971, Note_on_c, 9, 47, 104
4, 23980, Note_on_c, 9, 36, 0
4, 23990, Note_on_c, 9, 47, 0
4, 24000, Note_on_c, 9, 36, 127
4, 24000, Note_on_c, 9, 42, 80
4, 24020, Note_on_c, 9, 42, 0
4, 24020, Note_on_c, 9, 36, 0
4, 24120, Note_on_c, 9, 42, 80
4, 24140, Note_on_c, 9, 42, 0
4, 24200, Note_on_c, 9, 36, 112
4, 24200, Note_on_c, 9, 42, 80
4, 24220, Note_on_c, 9, 42, 0
4, 24220, Note_on_c, 9, 36, 0
4, 24240, Note_on_c, 9, 51, 80
4, 24240, Note_on_c, 9, 42, 80
4, 24240, Note_on_c, 9, 38, 127
4, 24260, Note_on_c, 9, 38, 0
4, 24260, Note_on_c, 9, 42, 0
4, 24260, Note_on_c, 9, 51, 0
4, 24360, Note_on_c, 9, 42, 80
4, 24380, Note_on_c, 9, 42, 0
4, 24440, Note_on_c, 9, 36, 72
4, 24460, Note_on_c, 9, 36, 0
4, 24480, Note_on_c, 9, 36, 127
4, 24480, Note_on_c, 9, 42, 80
4, 24500, Note_on_c, 9, 42, 0
4, 24500, Note_on_c, 9, 36, 0
4, 24600, Note_on_c, 9, 42, 80
4, 24620, Note_on_c, 9, 42, 0
4, 24680, Note_on_c, 9, 36, 112
4, 24680, Note_on_c, 9, 42, 80
4, 24700, Note_on_c, 9, 42, 0
4, 24700, Note_on_c, 9, 36, 0
4, 24720, Note_on_c, 9, 51, 80
4, 24720, Note_on_c, 9, 42, 80
4, 24720, Note_on_c, 9, 38, 126
4, 24740, Note_on_c, 9, 38, 0
4, 24740, Note_on_c, 9, 42, 0
4, 24740, Note_on_c, 9, 51, 0
4, 24840, Note_on_c, 9, 42, 80
4, 24860, Note_on_c, 9, 42, 0
4, 24920, Note_on_c, 9, 36, 72
4, 24940, Note_on_c, 9, 36, 0
4, 24960, Note_on_c, 9, 36, 127
4, 24960, Note_on_c, 9, 42, 80
4, 24980, Note_on_c, 9, 42, 0
4, 24980, Note_on_c, 9, 36, 0
4, 25080, Note_on_c, 9, 42, 80
4, 25100, Note_on_c, 9, 42, 0
4, 25160, Note_on_c, 9, 36, 112
4, 25160, Note_on_c, 9, 42, 80
4, 25180, Note_on_c, 9, 42, 0
4, 25180, Note_on_c, 9, 36, 0
4, 25200, Note_on_c, 9, 51, 80
4, 25200, Note_on_c, 9, 42, 80
4, 25200, Note_on_c, 9, 38, 126
4, 25220, Note_on_c, 9, 38, 0
4, 25220, Note_on_c, 9, 42, 0
4, 25220, Note_on_c, 9, 51, 0
4, 25320, Note_on_c, 9, 42, 80
4, 25340, Note_on_c, 9, 42, 0
4, 25400, Note_on_c, 9, 36, 72
4, 25420, Note_on_c, 9, 36, 0
4, 25440, Note_on_c, 9, 36, 127
4, 25440, Note_on_c, 9, 42, 80
4, 25460, Note_on_c, 9, 42, 0
4, 25460, Note_on_c, 9, 36, 0
4, 25560, Note_on_c, 9, 42, 80
4, 25580, Note_on_c, 9, 42, 0
4, 25640, Note_on_c, 9, 36, 112
4, 25640, Note_on_c, 9, 42, 80
4, 25660, Note_on_c, 9, 42, 0
4, 25660, Note_on_c, 9, 36, 0
4, 25680, Note_on_c, 9, 51, 80
4, 25680, Note_on_c, 9, 42, 80
4, 25680, Note_on_c, 9, 38, 125
4, 25700, Note_on_c, 9, 38, 0
4, 25700, Note_on_c, 9, 42, 0
4, 25700, Note_on_c, 9, 51, 0
4, 25800, Note_on_c, 9, 42, 80
4, 25820, Note_on_c, 9, 42, 0
4, 25880, Note_on_c, 9, 36, 72
4, 25900, Note_on_c, 9, 36, 0
4, 25920, Note_on_c, 9, 36, 127
4, 25920, Note_on_c, 9, 42, 80
4, 25940, Note_on_c, 9, 42, 0
4, 25940, Note_on_c, 9, 36, 0
4, 26040, Note_on_c, 9, 42, 80
4, 26060, Note_on_c, 9, 42, 0
4, 26120, Note_on_c, 9, 36, 112
4, 26120, Note_on_c, 9, 42, 80
4, 26140, Note_on_c, 9, 42, 0
4, 26140, Note_on_c, 9, 36, 0
4, 26160, Note_on_c, 9, 51, 80
4, 26160, Note_on_c, 9, 42, 80
4, 26160, Note_on_c, 9, 38, 125
4, 26180, Note_on_c, 9, 38, 0
4, 26180, Note_on_c, 9, 42, 0
4, 26180, Note_on_c, 9, 51, 0
4, 26280, Note_on_c, 9, 42, 80
4, 26300, Note_on_c, 9, 42, 0
4, 26360, Note_on_c, 9, 36, 72
4, 26380, Note_on_c, 9, 36, 0
4, 26400, Note_on_c, 9, 36, 127
4, 26400, Note_on_c, 9, 42, 80
4, 26420, Note_on_c, 9, 42, 0
4, 26420, Note_on_c, 9, 36, 0
4, 26520, Note_on_c, 9, 42, 80
4, 26540, Note_on_c, 9, 42, 0
4, 26600, Note_on_c, 9, 36, 112
4, 26600, Note_on_c, 9, 42, 80
4, 26620, Note_on_c, 9, 42, 0
4, 26620, Note_on_c, 9, 36, 0
4, 26640, Note_on_c, 9, 51, 80
4, 26640, Note_on_c, 9, 42, 80
4, 26640, Note_on_c, 9, 38, 124
4, 26660, Note_on_c, 9, 38, 0
4, 26660, Note_on_c, 9, 42, 0
4, 26660, Note_on_c, 9, 51, 0
4, 26760, Note_on_c, 9, 42, 80
4, 26780, Note_on_c, 9, 42, 0
4, 26840, Note_on_c, 9, 36, 72
4, 26860, Note_on_c, 9, 36, 0
4, 26880, Note_on_c, 9, 36, 127
4, 26880, Note_on_c, 9, 42, 80
4, 26900, Note_on_c, 9, 42, 0
4, 26900, Note_on_c, 9, 36, 0
4, 26955, Note_on_c, 9, 36, 127
4, 27000, Note_on_c, 9, 42, 80
4, 27003, Note_on_c, 9, 36, 0
4, 27020, Note_on_c, 9, 42, 0
4, 27080, Note_on_c, 9, 36, 112
4, 27080, Note_on_c, 9, 42, 80
4, 27100, Note_on_c, 9, 42, 0
4, 27100, Note_on_c, 9, 36, 0
4, 27120, Note_on_c, 9, 51, 80
4, 27120, Note_on_c, 9, 42, 80
4, 27120, Note_on_c, 9, 38, 124
4, 27140, Note_on_c, 9, 38, 0
4, 27140, Note_on_c, 9, 42, 0
4, 27140, Note_on_c, 9, 51, 0
4, 27240, Note_on_c, 9, 42, 80
4, 27260, Note_on_c, 9, 42, 0
4, 27320, Note_on_c, 9, 36, 72
4, 27340, Note_on_c, 9, 36, 0
4, 27360, Note_on_c, 9, 36, 127
4, 27360, Note_on_c, 9, 42, 80
4, 27380, Note_on_c, 9, 42, 0
4, 27380, Note_on_c, 9, 36, 0
4, 27480, Note_on_c, 9, 42, 80
4, 27500, Note_on_c, 9, 42, 0
4, 27560, Note_on_c, 9, 36, 112
4, 27560, Note_on_c, 9, 42, 80
4, 27580, Note_on_c, 9, 42, 0
4, 27580, Note_on_c, 9, 36, 0
4, 27600, Note_on_c, 9, 51, 80
4, 27600, Note_on_c, 9, 42, 80
4, 27600, Note_on_c, 9, 38, 121
4, 27620, Note_on_c, 9, 38, 0
4, 27620, Note_on_c, 9, 42, 0
4, 27620, Note_on_c, 9, 51, 0
4, 27720, Note_on_c, 9, 42, 80
4, 27740, Note_on_c, 9, 42, 0
4, 27800, Note_on_c, 9, 36, 72
4, 27820, Note_on_c, 9, 36, 0
4, 27840, Note_on_c, 9, 36, 127
4, 27840, Note_on_c, 9, 42, 80
4, 27860, Note_on_c, 9, 42, 0
4, 27860, Note_on_c, 9, 36, 0
4, 27960, Note_on_c, 9, 42, 80
4, 27980, Note_on_c, 9, 42, 0
4, 28040, Note_on_c, 9, 36, 112
4, 28040, Note_on_c, 9, 42, 80
4, 28060, Note_on_c, 9, 42, 0
4, 28060, Note_on_c, 9, 36, 0
4, 28080, Note_on_c, 9, 51, 80
4, 28080, Note_on_c, 9, 42, 80
4, 28080, Note_on_c, 9, 38, 121
4, 28100, Note_on_c, 9, 38, 0
4, 28100, Note_on_c, 9, 42, 0
4, 28100, Note_on_c, 9, 51, 0
4, 28200, Note_on_c, 9, 42, 80
4, 28220, Note_on_c, 9, 42, 0
4, 28280, Note_on_c, 9, 36, 72
4, 28300, Note_on_c, 9, 36, 0
4, 28320, Note_on_c, 9, 36, 127
4, 28320, Note_on_c, 9, 42, 80
4, 28340, Note_on_c, 9, 42, 0
4, 28340, Note_on_c, 9, 36, 0
4, 28440, Note_on_c, 9, 42, 80
4, 28460, Note_on_c, 9, 42, 0
4, 28520, Note_on_c, 9, 36, 112
4, 28520, Note_on_c, 9, 42, 80
4, 28540, Note_on_c, 9, 42, 0
4, 28540, Note_on_c, 9, 36, 0
4, 28560, Note_on_c, 9, 51, 80
4, 28560, Note_on_c, 9, 42, 80
4, 28560, Note_on_c, 9, 38, 122
4, 28580, Note_on_c, 9, 38, 0
4, 28580, Note_on_c, 9, 42, 0
4, 28580, Note_on_c, 9, 51, 0
4, 28680, Note_on_c, 9, 42, 80
4, 28700, Note_on_c, 9, 42, 0
4, 28760, Note_on_c, 9, 36, 72
4, 28780, Note_on_c, 9, 36, 0
4, 28800, Note_on_c, 9, 49, 79
4, 28800, Note_on_c, 9, 36, 127
4, 28800, Note_on_c, 9, 42, 80
4, 28820, Note_on_c, 9, 42, 0
4, 28820, Note_on_c, 9, 36, 0
4, 28848, Note_on_c, 9, 49, 0
4, 28920, Note_on_c, 9, 42, 80
4, 28940, Note_on_c, 9, 42, 0
4, 29000, Note_on_c, 9, 36, 112
4, 29000, Note_on_c, 9, 42, 80
4, 29020, Note_on_c, 9, 42, 0
4, 29020, Note_on_c, 9, 36, 0
4, 29040, Note_on_c, 9, 51, 80
4, 29040, Note_on_c, 9, 42, 80
4, 29040, Note_on_c, 9, 38, 124
4, 29060, Note_on_c, 9, 38, 0
4, 29060, Note_on_c, 9, 42, 0
4, 29060, Note_on_c, 9, 51, 0
4, 29160, Note_on_c, 9, 42, 80
4, 29180, Note_on_c, 9, 42, 0
4, 29240, Note_on_c, 9, 36, 72
4, 29260, Note_on_c, 9, 36, 0
4, 29280, Note_on_c, 9, 36, 127
4, 29280, Note_on_c, 9, 42, 80
4, 29300, Note_on_c, 9, 42, 0
4, 29300, Note_on_c, 9, 36, 0
4, 29400, Note_on_c, 9, 42, 80
4, 29420, Note_on_c, 9, 42, 0
4, 29480, Note_on_c, 9, 36, 112
4, 29480, Note_on_c, 9, 42, 80
4, 29500, Note_on_c, 9, 42, 0
4, 29500, Note_on_c, 9, 36, 0
4, 29520, Note_on_c, 9, 51, 80
4, 29520, Note_on_c, 9, 42, 80
4, 29520, Note_on_c, 9, 38, 124
4, 29540, Note_on_c, 9, 38, 0
4, 29540, Note_on_c, 9, 42, 0
4, 29540, Note_on_c, 9, 51, 0
4, 29640, Note_on_c, 9, 42, 80
4, 29660, Note_on_c, 9, 42, 0
4, 29720, Note_on_c, 9, 36, 72
4, 29740, Note_on_c, 9, 36, 0
4, 29760, Note_on_c, 9, 36, 127
4, 29760, Note_on_c, 9, 42, 80
4, 29780, Note_on_c, 9, 42, 0
4, 29780, Note_on_c, 9, 36, 0
4, 29880, Note_on_c, 9, 42, 80
4, 29900, Note_on_c, 9, 42, 0
4, 29960, Note_on_c, 9, 36, 112
4, 29960, Note_on_c, 9, 42, 80
4, 29980, Note_on_c, 9, 42, 0
4, 29980, Note_on_c, 9, 36, 0
4, 30000, Note_on_c, 9, 51, 80
4, 30000, Note_on_c, 9, 42, 80
4, 30000, Note_on_c, 9, 38, 124
4, 30020, Note_on_c, 9, 38, 0
4, 30020, Note_on_c, 9, 42, 0
4, 30020, Note_on_c, 9, 51, 0
4, 30120, Note_on_c, 9, 42, 80
4, 30140, Note_on_c, 9, 42, 0
4, 30200, Note_on_c, 9, 36, 72
4, 30220, Note_on_c, 9, 36, 0
4, 30240, Note_on_c, 9, 36, 127
4, 30240, Note_on_c, 9, 42, 80
4, 30260, Note_on_c, 9, 42, 0
4, 30260, Note_on_c, 9, 36, 0
4, 30360, Note_on_c, 9, 42, 80
4, 30380, Note_on_c, 9, 42, 0
4, 30440, Note_on_c, 9, 36, 112
4, 30440, Note_on_c, 9, 42, 80
4, 30460, Note_on_c, 9, 42, 0
4, 30460, Note_on_c, 9, 36, 0
4, 30480, Note_on_c, 9, 51, 80
4, 30480, Note_on_c, 9, 42, 80
4, 30480, Note_on_c, 9, 38, 124
4, 30500, Note_on_c, 9, 38, 0
4, 30500, Note_on_c, 9, 42, 0
4, 30500, Note_on_c, 9, 51, 0
4, 30600, Note_on_c, 9, 42, 80
4, 30620, Note_on_c, 9, 42, 0
4, 30680, Note_on_c, 9, 36, 72
4, 30700, Note_on_c, 9, 36, 0
4, 30720, Note_on_c, 9, 36, 127
4, 30720, Note_on_c, 9, 42, 80
4, 30740, Note_on_c, 9, 42, 0
4, 30740, Note_on_c, 9, 36, 0
4, 30840, Note_on_c, 9, 42, 80
4, 30860, Note_on_c, 9, 42, 0
4, 30920, Note_on_c, 9, 36, 112
4, 30920, Note_on_c, 9, 42, 80
4, 30940, Note_on_c, 9, 42, 0
4, 30940, Note_on_c, 9, 36, 0
4, 30960, Note_on_c, 9, 51, 80
4, 30960, Note_on_c, 9, 42, 80
4, 30960, Note_on_c, 9, 38, 124
4, 30980, Note_on_c, 9, 38, 0
4, 30980, Note_on_c, 9, 42, 0
4, 30980, Note_on_c, 9, 51, 0
4, 31080, Note_on_c, 9, 42, 80
4, 31100, Note_on_c, 9, 42, 0
4, 31160, Note_on_c, 9, 36, 72
4, 31180, Note_on_c, 9, 36, 0
4, 31200, Note_on_c, 9, 36, 127
4, 31200, Note_on_c, 9, 42, 80
4, 31220, Note_on_c, 9, 42, 0
4, 31220, Note_on_c, 9, 36, 0
4, 31320, Note_on_c, 9, 42, 80
4, 31340, Note_on_c, 9, 42, 0
4, 31400, Note_on_c, 9, 36, 112
4, 31400, Note_on_c, 9, 42, 80
4, 31420, Note_on_c, 9, 42, 0
4, 31420, Note_on_c, 9, 36, 0
4, 31440, Note_on_c, 9, 51, 80
4, 31440, Note_on_c, 9, 42, 80
4, 31440, Note_on_c, 9, 38, 123
4, 31460, Note_on_c, 9, 38, 0
4, 31460, Note_on_c, 9, 42, 0
4, 31460, Note_on_c, 9, 51, 0
4, 31560, Note_on_c, 9, 42, 80
4, 31580, Note_on_c, 9, 42, 0
4, 31640, Note_on_c, 9, 36, 72
4, 31660, Note_on_c, 9, 36, 0
4, 31680, Note_on_c, 9, 36, 127
4, 31680, Note_on_c, 9, 42, 80
4, 31700, Note_on_c, 9, 42, 0
4, 31700, Note_on_c, 9, 36, 0
4, 31800, Note_on_c, 9, 42, 80
4, 31820, Note_on_c, 9, 42, 0
4, 31880, Note_on_c, 9, 36, 112
4, 31880, Note_on_c, 9, 42, 80
4, 31900, Note_on_c, 9, 42, 0
4, 31900, Note_on_c, 9, 36, 0
4, 31920, Note_on_c, 9, 51, 80
4, 31920, Note_on_c, 9, 42, 80
4, 31920, Note_on_c, 9, 38, 122
4, 31940, Note_on_c, 9, 38, 0
4, 31940, Note_on_c, 9, 42, 0
4, 31940, Note_on_c, 9, 51, 0
4, 32040, Note_on_c, 9, 42, 80
4, 32060, Note_on_c, 9, 42, 0
4, 32120, Note_on_c, 9, 36, 72
4, 32140, Note_on_c, 9, 36, 0
4, 32160, Note_on_c, 9, 36, 127
4, 32160, Note_on_c, 9, 42, 80
4, 32180, Note_on_c, 9, 42, 0
4, 32180, Note_on_c, 9, 36, 0
4, 32280, Note_on_c, 9, 42, 80
4, 32300, Note_on_c, 9, 42, 0
4, 32360, Note_on_c, 9, 36, 112
4, 32360, Note_on_c, 9, 42, 80
4, 32380, Note_on_c, 9, 42, 0
4, 32380, Note_on_c, 9, 36, 0
4, 32400, Note_on_c, 9, 51, 80
4, 32400, Note_on_c, 9, 42, 80
4, 32400, Note_on_c, 9, 38, 121
4, 32420, Note_on_c, 9, 38, 0
4, 32420, Note_on_c, 9, 42, 0
4, 32420, Note_on_c, 9, 51, 0
4, 32520, Note_on_c, 9, 42, 80
4, 32540, Note_on_c, 9, 42, 0
4, 32600, Note_on_c, 9, 36, 72
4, 32620, Note_on_c, 9, 36, 0
4, 32640, Note_on_c, 9, 36, 127
4, 32640, Note_on_c, 9, 42, 80
4, 32660, Note_on_c, 9, 42, 0
4, 32660, Note_on_c, 9, 36, 0
4, 32760, Note_on_c, 9, 42, 80
4, 32780, Note_on_c, 9, 42, 0
4, 32840, Note_on_c, 9, 36, 112
4, 32840, Note_on_c, 9, 42, 80
4, 32860, Note_on_c, 9, 42, 0
4, 32860, Note_on_c, 9, 36, 0
4, 32880, Note_on_c, 9, 51, 80
4, 32880, Note_on_c, 9, 42, 80
4, 32880, Note_on_c, 9, 38, 119
4, 32900, Note_on_c, 9, 38, 0
4, 32900, Note_on_c, 9, 42, 0
4, 32900, Note_on_c, 9, 51, 0
4, 33000, Note_on_c, 9, 42, 80
4, 33020, Note_on_c, 9, 42, 0
4, 33080, Note_on_c, 9, 36, 72
4, 33100, Note_on_c, 9, 36, 0
4, 33120, Note_on_c, 9, 36, 127
4, 33120, Note_on_c, 9, 42, 80
4, 33140, Note_on_c, 9, 42, 0
4, 33140, Note_on_c, 9, 36, 0
4, 33240, Note_on_c, 9, 42, 80
4, 33260, Note_on_c, 9, 42, 0
4, 33320, Note_on_c, 9, 36, 112
4, 33320, Note_on_c, 9, 42, 80
4, 33340, Note_on_c, 9, 42, 0
4, 33340, Note_on_c, 9, 36, 0
4, 33360, Note_on_c, 9, 51, 80
4, 33360, Note_on_c, 9, 42, 80
4, 33360, Note_on_c, 9, 38, 114
4, 33380, Note_on_c, 9, 38, 0
4, 33380, Note_on_c, 9, 42, 0
4, 33380, Note_on_c, 9, 51, 0
4, 33480, Note_on_c, 9, 42, 80
4, 33500, Note_on_c, 9, 42, 0
4, 33560, Note_on_c, 9, 36, 72
4, 33580, Note_on_c, 9, 36, 0
4, 33600, Note_on_c, 9, 36, 127
4, 33600, Note_on_c, 9, 42, 80
4, 33620, Note_on_c, 9, 42, 0
4, 33620, Note_on_c, 9, 36, 0
4, 33720, Note_on_c, 9, 42, 80
4, 33740, Note_on_c, 9, 42, 0
4, 33760, Note_on_c, 9, 38, 112
4, 33780, Note_on_c, 9, 38, 0
4, 33780, Note_on_c, 9, 38, 112
4, 33800, Note_on_c, 9, 38, 0
4, 33800, Note_on_c, 9, 36, 112
4, 33800, Note_on_c, 9, 42, 80
4, 33800, Note_on_c, 9, 38, 112
4, 33820, Note_on_c, 9, 38, 0
4, 33820, Note_on_c, 9, 42, 0
4, 33820, Note_on_c, 9, 36, 0
4, 33840, Note_on_c, 9, 48, 79
4, 33840, Note_on_c, 9, 51, 80
4, 33840, Note_on_c, 9, 42, 80
4, 33840, Note_on_c, 9, 38, 55
4, 33860, Note_on_c, 9, 38, 0
4, 33860, Note_on_c, 9, 42, 0
4, 33860, Note_on_c, 9, 51, 0
4, 33888, Note_on_c, 9, 48, 0
4, 33920, Note_on_c, 9, 48, 79
4, 33960, Note_on_c, 9, 42, 80
4, 33968, Note_on_c, 9, 48, 0
4, 33980, Note_on_c, 9, 42, 0
4, 34040, Note_on_c, 9, 36, 72
4, 34060, Note_on_c, 9, 36, 0
4, 34080, Note_on_c, 9, 36, 127
4, 34080, Note_on_c, 9, 42, 80
4, 34100, Note_on_c, 9, 42, 0
4, 34100, Note_on_c, 9, 36, 0
4, 34200, Note_on_c, 9, 42, 80
4, 34220, Note_on_c, 9, 42, 0
4, 34280, Note_on_c, 9, 36, 112
4, 34280, Note_on_c, 9, 42, 80
4, 34300, Note_on_c, 9, 42, 0
4, 34300, Note_on_c, 9, 36, 0
4, 34320, Note_on_c, 9, 51, 80
4, 34320, Note_on_c, 9, 42, 80
4, 34320, Note_on_c, 9, 38, 116
4, 34340, Note_on_c, 9, 38, 0
4, 34340, Note_on_c, 9, 42, 0
4, 34340, Note_on_c, 9, 51, 0
4, 34440, Note_on_c, 9, 42, 80
4, 34460, Note_on_c, 9, 42, 0
4, 34520, Note_on_c, 9, 36, 72
4, 34540, Note_on_c, 9, 36, 0
4, 34560, Note_on_c, 9, 36, 127
4, 34560, Note_on_c, 9, 42, 80
4, 34580, Note_on_c, 9, 42, 0
4, 34580, Note_on_c, 9, 36, 0
4, 34680, Note_on_c, 9, 42, 80
4, 34700, Note_on_c, 9, 42, 0
4, 34760, Note_on_c, 9, 36, 112
4, 34760, Note_on_c, 9, 42, 80
4, 34780, Note_on_c, 9, 42, 0
4, 34780, Note_on_c, 9, 36, 0
4, 34800, Note_on_c, 9, 51, 80
4, 34800, Note_on_c, 9, 42, 80
4, 34800, Note_on_c, 9, 38, 119
4, 34820, Note_on_c, 9, 38, 0
4, 34820, Note_on_c, 9, 42, 0
4, 34820, Note_on_c, 9, 51, 0
4, 34920, Note_on_c, 9, 42, 80
4, 34940, Note_on_c, 9, 42, 0
4, 35000, Note_on_c, 9, 36, 72
4, 35020, Note_on_c, 9, 36, 0
4, 35040, Note_on_c, 9, 36, 127
4, 35040, Note_on_c, 9, 42, 80
4, 35060, Note_on_c, 9, 42, 0
4, 35060, Note_on_c, 9, 36, 0
4, 35160, Note_on_c, 9, 42, 80
4, 35180, Note_on_c, 9, 42, 0
4, 35240, Note_on_c, 9, 36, 112
4, 35240, Note_on_c, 9, 42, 80
4, 35260, Note_on_c, 9, 42, 0
4, 35260, Note_on_c, 9, 36, 0
4, 35280, Note_on_c, 9, 51, 80
4, 35280, Note_on_c, 9, 42, 80
4, 35280, Note_on_c, 9, 38, 122
4, 35300, Note_on_c, 9, 38, 0
4, 35300, Note_on_c, 9, 42, 0
4, 35300, Note_on_c, 9, 51, 0
4, 35400, Note_on_c, 9, 42, 80
4, 35420, Note_on_c, 9, 42, 0
4, 35480, Note_on_c, 9, 36, 72
4, 35500, Note_on_c, 9, 36, 0
4, 35520, Note_on_c, 9, 36, 127
4, 35520, Note_on_c, 9, 42, 80
4, 35540, Note_on_c, 9, 42, 0
4, 35540, Note_on_c, 9, 36, 0
4, 35640, Note_on_c, 9, 42, 80
4, 35660, Note_on_c, 9, 42, 0
4, 35720, Note_on_c, 9, 36, 112
4, 35720, Note_on_c, 9, 42, 80
4, 35740, Note_on_c, 9, 42, 0
4, 35740, Note_on_c, 9, 36, 0
4, 35760, Note_on_c, 9, 51, 80
4, 35760, Note_on_c, 9, 42, 80
4, 35760, Note_on_c, 9, 38, 127
4, 35780, Note_on_c, 9, 38, 0
4, 35780, Note_on_c, 9, 42, 0
4, 35780, Note_on_c, 9, 51, 0
4, 35880, Note_on_c, 9, 42, 80
4, 35900, Note_on_c, 9, 42, 0
4, 35960, Note_on_c, 9, 36, 72
4, 35980, Note_on_c, 9, 36, 0
4, 36000, Note_on_c, 9, 36, 127
4, 36000, Note_on_c, 9, 42, 80
4, 36020, Note_on_c, 9, 42, 0
4, 36020, Note_on_c, 9, 36, 0
4, 36120, Note_on_c, 9, 42, 80
4, 36140, Note_on_c, 9, 42, 0
4, 36200, Note_on_c, 9, 36, 112
4, 36200, Note_on_c, 9, 42, 80
4, 36220, Note_on_c, 9, 42, 0
4, 36220, Note_on_c, 9, 36, 0
4, 36240, Note_on_c, 9, 51, 80
4, 36240, Note_on_c, 9, 42, 80
4, 36240, Note_on_c, 9, 38, 127
4, 36260, Note_on_c, 9, 38, 0
4, 36260, Note_on_c, 9, 42, 0
4, 36260, Note_on_c, 9, 51, 0
4, 36360, Note_on_c, 9, 42, 80
4, 36380, Note_on_c, 9, 42, 0
4, 36440, Note_on_c, 9, 36, 72
4, 36460, Note_on_c, 9, 36, 0
4, 36480, Note_on_c, 9, 36, 127
4, 36480, Note_on_c, 9, 42, 80
4, 36500, Note_on_c, 9, 42, 0
4, 36500, Note_on_c, 9, 36, 0
4, 36600, Note_on_c, 9, 42, 80
4, 36620, Note_on_c, 9, 42, 0
4, 36680, Note_on_c, 9, 36, 112
4, 36680, Note_on_c, 9, 42, 80
4, 36700, Note_on_c, 9, 42, 0
4, 36700, Note_on_c, 9, 36, 0
4, 36720, Note_on_c, 9, 51, 80
4, 36720, Note_on_c, 9, 42, 80
4, 36720, Note_on_c, 9, 38, 127
4, 36740, Note_on_c, 9, 38, 0
4, 36740, Note_on_c, 9, 42, 0
4, 36740, Note_on_c, 9, 51, 0
4, 36840, Note_on_c, 9, 42, 80
4, 36860, Note_on_c, 9, 42, 0
4, 36920, Note_on_c, 9, 36, 72
4, 36940, Note_on_c, 9, 36, 0
4, 36960, Note_on_c, 9, 36, 127
4, 36960, Note_on_c, 9, 42, 80
4, 36980, Note_on_c, 9, 42, 0
4, 36980, Note_on_c, 9, 36, 0
4, 37080, Note_on_c, 9, 42, 80
4, 37100, Note_on_c, 9, 42, 0
4, 37160, Note_on_c, 9, 36, 112
4, 37160, Note_on_c, 9, 42, 80
4, 37180, Note_on_c, 9, 42, 0
4, 37180, Note_on_c, 9, 36, 0
4, 37200, Note_on_c, 9, 51, 80
4, 37200, Note_on_c, 9, 42, 80
4, 37200, Note_on_c, 9, 38, 127
4, 37220, Note_on_c, 9, 38, 0
4, 37220, Note_on_c, 9, 42, 0
4, 37220, Note_on_c, 9, 51, 0
4, 37320, Note_on_c, 9, 42, 80
4, 37340, Note_on_c, 9, 42, 0
4, 37400, Note_on_c, 9, 36, 72
4, 37420, Note_on_c, 9, 36, 0
4, 37440, Note_on_c, 9, 36, 127
4, 37440, Note_on_c, 9, 42, 80
4, 37460, Note_on_c, 9, 42, 0
4, 37460, Note_on_c, 9, 36, 0
4, 37560, Note_on_c, 9, 42, 80
4, 37580, Note_on_c, 9, 42, 0
4, 37640, Note_on_c, 9, 36, 112
4, 37640, Note_on_c, 9, 42, 80
4, 37660, Note_on_c, 9, 42, 0
4, 37660, Note_on_c, 9, 36, 0
4, 37680, Note_on_c, 9, 51, 80
4, 37680, Note_on_c, 9, 42, 80
4, 37680, Note_on_c, 9, 38, 122
4, 37700, Note_on_c, 9, 38, 0
4, 37700, Note_on_c, 9, 42, 0
4, 37700, Note_on_c, 9, 51, 0
4, 37800, Note_on_c, 9, 42, 80
4, 37820, Note_on_c, 9, 42, 0
4, 37880, Note_on_c, 9, 36, 72
4, 37900, Note_on_c, 9, 36, 0
4, 37920, Note_on_c, 9, 36, 127
4, 37920, Note_on_c, 9, 42, 80
4, 37940, Note_on_c, 9, 42, 0
4, 37940, Note_on_c, 9, 36, 0
4, 38040, Note_on_c, 9, 42, 80
4, 38060, Note_on_c, 9, 42, 0
4, 38120, Note_on_c, 9, 36, 112
4, 38120, Note_on_c, 9, 42, 80
4, 38140, Note_on_c, 9, 42, 0
4, 38140, Note_on_c, 9, 36, 0
4, 38160, Note_on_c, 9, 51, 80
4, 38160, Note_on_c, 9, 42, 80
4, 38160, Note_on_c, 9, 38, 122
4, 38180, Note_on_c, 9, 38, 0
4, 38180, Note_on_c, 9, 42, 0
4, 38180, Note_on_c, 9, 51, 0
4, 38280, Note_on_c, 9, 42, 80
4, 38300, Note_on_c, 9, 42, 0
4, 38360, Note_on_c, 9, 36, 72
4, 38380, Note_on_c, 9, 36, 0
4, 38400, Note_on_c, 9, 36, 127
4, 38400, Note_on_c, 9, 42, 80
4, 38420, Note_on_c, 9, 42, 0
4, 38420, Note_on_c, 9, 36, 0
4, 38520, Note_on_c, 9, 42, 80
4, 38540, Note_on_c, 9, 42, 0
4, 38600, Note_on_c, 9, 36, 112
4, 38600, Note_on_c, 9, 42, 80
4, 38620, Note_on_c, 9, 42, 0
4, 38620, Note_on_c, 9, 36, 0
4, 38640, Note_on_c, 9, 51, 80
4, 38640, Note_on_c, 9, 42, 80
4, 38640, Note_on_c, 9, 38, 122
4, 38660, Note_on_c, 9, 38, 0
4, 38660, Note_on_c, 9, 42, 0
4, 38660, Note_on_c, 9, 51, 0
4, 38760, Note_on_c, 9, 42, 80
4, 38780, Note_on_c, 9, 42, 0
4, 38840, Note_on_c, 9, 36, 72
4, 38860, Note_on_c, 9, 36, 0
4, 38880, Note_on_c, 9, 36, 127
4, 38880, Note_on_c, 9, 42, 80
4, 38900, Note_on_c, 9, 42, 0
4, 38900, Note_on_c, 9, 36, 0
4, 39000, Note_on_c, 9, 42, 80
4, 39020, Note_on_c, 9, 42, 0
4, 39080, Note_on_c, 9, 36, 112
4, 39080, Note_on_c, 9, 42, 80
4, 39100, Note_on_c, 9, 42, 0
4, 39100, Note_on_c, 9, 36, 0
4, 39120, Note_on_c, 9, 51, 80
4, 39120, Note_on_c, 9, 42, 80
4, 39120, Note_on_c, 9, 38, 122
4, 39140, Note_on_c, 9, 38, 0
4, 39140, Note_on_c, 9, 42, 0
4, 39140, Note_on_c, 9, 51, 0
4, 39240, Note_on_c, 9, 42, 80
4, 39260, Note_on_c, 9, 42, 0
4, 39320, Note_on_c, 9, 36, 72
4, 39340, Note_on_c, 9, 36, 0
4, 39360, Note_on_c, 9, 36, 127
4, 39360, Note_on_c, 9, 42, 80
4, 39380, Note_on_c, 9, 42, 0
4, 39380, Note_on_c, 9, 36, 0
4, 39480, Note_on_c, 9, 42, 80
4, 39500, Note_on_c, 9, 42, 0
4, 39560, Note_on_c, 9, 36, 112
4, 39560, Note_on_c, 9, 42, 80
4, 39580, Note_on_c, 9, 42, 0
4, 39580, Note_on_c, 9, 36, 0
4, 39600, Note_on_c, 9, 51, 80
4, 39600, Note_on_c, 9, 42, 80
4, 39600, Note_on_c, 9, 38, 122
4, 39620, Note_on_c, 9, 38, 0
4, 39620, Note_on_c, 9, 42, 0
4, 39620, Note_on_c, 9, 51, 0
4, 39720, Note_on_c, 9, 42, 80
4, 39740, Note_on_c, 9, 42, 0
4, 39800, Note_on_c, 9, 36, 72
4, 39820, Note_on_c, 9, 36, 0
4, 39840, Note_on_c, 9, 36, 127
4, 39840, Note_on_c, 9, 42, 80
4, 39860, Note_on_c, 9, 42, 0
4, 39860, Note_on_c, 9, 36, 0
4, 39960, Note_on_c, 9, 42, 80
4, 39980, Note_on_c, 9, 42, 0
4, 40040, Note_on_c, 9, 36, 112
4, 40040, Note_on_c, 9, 42, 80
4, 40060, Note_on_c, 9, 42, 0
4, 40060, Note_on_c, 9, 36, 0
4, 40080, Note_on_c, 9, 51, 80
4, 40080, Note_on_c, 9, 42, 80
4, 40080, Note_on_c, 9, 38, 122
4, 40100, Note_on_c, 9, 38, 0
4, 40100, Note_on_c, 9, 42, 0
4, 40100, Note_on_c, 9, 51, 0
4, 40200, Note_on_c, 9, 42, 80
4, 40220, Note_on_c, 9, 42, 0
4, 40280, Note_on_c, 9, 36, 72
4, 40300, Note_on_c, 9, 36, 0
4, 40320, Note_on_c, 9, 36, 127
4, 40320, Note_on_c, 9, 42, 80
4, 40340, Note_on_c, 9, 42, 0
4, 40340, Note_on_c, 9, 36, 0
4, 40440, Note_on_c, 9, 42, 80
4, 40460, Note_on_c, 9, 42, 0
4, 40520, Note_on_c, 9, 36, 112
4, 40520, Note_on_c, 9, 42, 80
4, 40540, Note_on_c, 9, 42, 0
4, 40540, Note_on_c, 9, 36, 0
4, 40560, Note_on_c, 9, 51, 80
4, 40560, Note_on_c, 9, 42, 80
4, 40560, Note_on_c, 9, 38, 124
4, 40580, Note_on_c, 9, 38, 0
4, 40580, Note_on_c, 9, 42, 0
4, 40580, Note_on_c, 9, 51, 0
4, 40680, Note_on_c, 9, 42, 80
4, 40700, Note_on_c, 9, 42, 0
4, 40760, Note_on_c, 9, 36, 72
4, 40780, Note_on_c, 9, 36, 0
4, 40800, Note_on_c, 9, 36, 127
4, 40800, Note_on_c, 9, 42, 80
4, 40820, Note_on_c, 9, 42, 0
4, 40820, Note_on_c, 9, 36, 0
4, 40920, Note_on_c, 9, 42, 80
4, 40940, Note_on_c, 9, 42, 0
4, 41000, Note_on_c, 9, 36, 112
4, 41000, Note_on_c, 9, 42, 80
4, 41020, Note_on_c, 9, 42, 0
4, 41020, Note_on_c, 9, 36, 0
4, 41040, Note_on_c, 9, 51, 80
4, 41040, Note_on_c, 9, 42, 80
4, 41040, Note_on_c, 9, 38, 125
4, 41060, Note_on_c, 9, 38, 0
4, 41060, Note_on_c, 9, 42, 0
4, 41060, Note_on_c, 9, 51, 0
4, 41160, Note_on_c, 9, 42, 80
4, 41180, Note_on_c, 9, 42, 0
4, 41240, Note_on_c, 9, 36, 72
4, 41260, Note_on_c, 9, 36, 0
4, 41280, Note_on_c, 9, 36, 127
4, 41280, Note_on_c, 9, 42, 80
4, 41300, Note_on_c, 9, 42, 0
4, 41300, Note_on_c, 9, 36, 0
4, 41400, Note_on_c, 9, 42, 80
4, 41420, Note_on_c, 9, 42, 0
4, 41480, Note_on_c, 9, 36, 112
4, 41480, Note_on_c, 9, 42, 80
4, 41500, Note_on_c, 9, 42, 0
4, 41500, Note_on_c, 9, 36, 0
4, 41520, Note_on_c, 9, 51, 80
4, 41520, Note_on_c, 9, 42, 80
4, 41520, Note_on_c, 9, 38, 123
4, 41540, Note_on_c, 9, 38, 0
4, 41540, Note_on_c, 9, 42, 0
4, 41540, Note_on_c, 9, 51, 0
4, 41640, Note_on_c, 9, 42, 80
4, 41660, Note_on_c, 9, 42, 0
4, 41720, Note_on_c, 9, 36, 72
4, 41740, Note_on_c, 9, 36, 0
4, 41760, Note_on_c, 9, 36, 127
4, 41760, Note_on_c, 9, 42, 80
4, 41780, Note_on_c, 9, 42, 0
4, 41780, Note_on_c, 9, 36, 0
4, 41880, Note_on_c, 9, 42, 80
4, 41900, Note_on_c, 9, 42, 0
4, 41960, Note_on_c, 9, 36, 112
4, 41960, Note_on_c, 9, 42, 80
4, 41980, Note_on_c, 9, 42, 0
4, 41980, Note_on_c, 9, 36, 0
4, 42000, Note_on_c, 9, 51, 80
4, 42000, Note_on_c, 9, 42, 80
4, 42000, Note_on_c, 9, 38, 121
4, 42020, Note_on_c, 9, 38, 0
4, 42020, Note_on_c, 9, 42, 0
4, 42020, Note_on_c, 9, 51, 0
4, 42120, Note_on_c, 9, 42, 80
4, 42140, Note_on_c, 9, 42, 0
4, 42200, Note_on_c, 9, 36, 72
4, 42220, Note_on_c, 9, 36, 0
4, 42240, Note_on_c, 9, 36, 127
4, 42240, Note_on_c, 9, 42, 80
4, 42260, Note_on_c, 9, 42, 0
4, 42260, Note_on_c, 9, 36, 0
4, 42360, Note_on_c, 9, 42, 80
4, 42380, Note_on_c, 9, 42, 0
4, 42440, Note_on_c, 9, 36, 112
4, 42440, Note_on_c, 9, 42, 80
4, 42460, Note_on_c, 9, 42, 0
4, 42460, Note_on_c, 9, 36, 0
4, 42480, Note_on_c, 9, 51, 80
4, 42480, Note_on_c, 9, 42, 80
4, 42480, Note_on_c, 9, 38, 121
4, 42500, Note_on_c, 9, 38, 0
4, 42500, Note_on_c, 9, 42, 0
4, 42500, Note_on_c, 9, 51, 0
4, 42600, Note_on_c, 9, 42, 80
4, 42620, Note_on_c, 9, 42, 0
4, 42680, Note_on_c, 9, 36, 72
4, 42700, Note_on_c, 9, 36, 0
4, 42720, Note_on_c, 9, 36, 127
4, 42720, Note_on_c, 9, 42, 80
4, 42740, Note_on_c, 9, 42, 0
4, 42740, Note_on_c, 9, 36, 0
4, 42840, Note_on_c, 9, 42, 80
4, 42860, Note_on_c, 9, 42, 0
4, 42920, Note_on_c, 9, 36, 112
4, 42920, Note_on_c, 9, 42, 80
4, 42940, Note_on_c, 9, 42, 0
4, 42940, Note_on_c, 9, 36, 0
4, 42960, Note_on_c, 9, 51, 80
4, 42960, Note_on_c, 9, 42, 80
4, 42960, Note_on_c, 9, 38, 121
4, 42980, Note_on_c, 9, 38, 0
4, 42980, Note_on_c, 9, 42, 0
4, 42980, Note_on_c, 9, 51, 0
4, 43080, Note_on_c, 9, 42, 80
4, 43100, Note_on_c, 9, 42, 0
4, 43160, Note_on_c, 9, 36, 72
4, 43180, Note_on_c, 9, 36, 0
4, 43200, Note_on_c, 9, 36, 127
4, 43200, Note_on_c, 9, 42, 80
4, 43220, Note_on_c, 9, 42, 0
4, 43220, Note_on_c, 9, 36, 0
4, 43320, Note_on_c, 9, 42, 80
4, 43340, Note_on_c, 9, 42, 0
4, 43400, Note_on_c, 9, 36, 112
4, 43400, Note_on_c, 9, 42, 80
4, 43400, Note_on_c, 9, 38, 112
4, 43420, Note_on_c, 9, 38, 0
4, 43420, Note_on_c, 9, 42, 0
4, 43420, Note_on_c, 9, 36, 0
4, 43440, Note_on_c, 9, 51, 80
4, 43440, Note_on_c, 9, 42, 80
4, 43440, Note_on_c, 9, 47, 122
4, 43440, Note_on_c, 9, 38, 55
4, 43460, Note_on_c, 9, 38, 0
4, 43460, Note_on_c, 9, 51, 0
4, 43460, Note_on_c, 9, 42, 0
4, 43484, Note_on_c, 9, 47, 0
4, 43524, Note_on_c, 9, 45, 113
4, 43554, Note_on_c, 9, 45, 0
4, 43560, Note_on_c, 9, 42, 80
4, 43580, Note_on_c, 9, 42, 0
4, 43609, Note_on_c, 9, 45, 104
4, 43640, Note_on_c, 9, 36, 72
4, 43641, Note_on_c, 9, 45, 0
4, 43660, Note_on_c, 9, 36, 0
4, 43680, Note_on_c, 9, 36, 127
4, 43680, Note_on_c, 9, 42, 80
4, 43700, Note_on_c, 9, 42, 0
4, 43700, Note_on_c, 9, 36, 0
4, 43800, Note_on_c, 9, 42, 80
4, 43820, Note_on_c, 9, 42, 0
4, 43880, Note_on_c, 9, 36, 112
4, 43880, Note_on_c, 9, 42, 80
4, 43900, Note_on_c, 9, 42, 0
4, 43900, Note_on_c, 9, 36, 0
4, 43920, Note_on_c, 9, 51, 80
4, 43920, Note_on_c, 9, 42, 80
4, 43920, Note_on_c, 9, 38, 105
4, 43940, Note_on_c, 9, 38, 0
4, 43940, Note_on_c, 9, 42, 0
4, 43940, Note_on_c, 9, 51, 0
4, 44040, Note_on_c, 9, 42, 80
4, 44060, Note_on_c, 9, 42, 0
4, 44120, Note_on_c, 9, 36, 72
4, 44140, Note_on_c, 9, 36, 0
4, 44160, Note_on_c, 9, 36, 127
4, 44160, Note_on_c, 9, 42, 80
4, 44180, Note_on_c, 9, 42, 0
4, 44180, Note_on_c, 9, 36, 0
4, 44280, Note_on_c, 9, 42, 80
4, 44300, Note_on_c, 9, 42, 0
4, 44360, Note_on_c, 9, 36, 112
4, 44360, Note_on_c, 9, 42, 80
4, 44380, Note_on_c, 9, 42, 0
4, 44380, Note_on_c, 9, 36, 0
4, 44400, Note_on_c, 9, 51, 80
4, 44400, Note_on_c, 9, 42, 80
4, 44400, Note_on_c, 9, 38, 119
4, 44420, Note_on_c, 9, 38, 0
4, 44420, Note_on_c, 9, 42, 0
4, 44420, Note_on_c, 9, 51, 0
4, 44520, Note_on_c, 9, 42, 80
4, 44540, Note_on_c, 9, 42, 0
4, 44600, Note_on_c, 9, 36, 72
4, 44620, Note_on_c, 9, 36, 0
4, 44640, Note_on_c, 9, 36, 127
4, 44640, Note_on_c, 9, 42, 80
4, 44660, Note_on_c, 9, 42, 0
4, 44660, Note_on_c, 9, 36, 0
4, 44760, Note_on_c, 9, 42, 80
4, 44780, Note_on_c, 9, 42, 0
4, 44840, Note_on_c, 9, 36, 112
4, 44840, Note_on_c, 9, 42, 80
4, 44860, Note_on_c, 9, 42, 0
4, 44860, Note_on_c, 9, 36, 0
4, 44880, Note_on_c, 9, 51, 80
4, 44880, Note_on_c, 9, 42, 80
4, 44880, Note_on_c, 9, 38, 113
4, 44900, Note_on_c, 9, 38, 0
4, 44900, Note_on_c, 9, 42, 0
4, 44900, Note_on_c, 9, 51, 0
4, 45000, Note_on_c, 9, 42, 80
4, 45020, Note_on_c, 9, 42, 0
4, 45080, Note_on_c, 9, 36, 72
4, 45100, Note_on_c, 9, 36, 0
4, 45120, Note_on_c, 9, 36, 127
4, 45120, Note_on_c, 9, 42, 80
4, 45140, Note_on_c, 9, 42, 0
4, 45140, Note_on_c, 9, 36, 0
4, 45240, Note_on_c, 9, 42, 80
4, 45260, Note_on_c, 9, 42, 0
4, 45300, Note_on_c, 9, 38, 88
4, 45316, Note_on_c, 9, 38, 0
4, 45320, Note_on_c, 9, 42, 80
4, 45330, Note_on_c, 9, 38, 101
4, 45340, Note_on_c, 9, 42, 0
4, 45350, Note_on_c, 9, 38, 0
4, 45360, Note_on_c, 9, 47, 127
4, 45360, Note_on_c, 9, 51, 80
4, 45360, Note_on_c, 9, 42, 80
4, 45360, Note_on_c, 9, 38, 55
4, 45380, Note_on_c, 9, 38, 0
4, 45380, Note_on_c, 9, 42, 0
4, 45380, Note_on_c, 9, 51, 0
4, 45408, Note_on_c, 9, 47, 0
4, 45445, Note_on_c, 9, 43, 127
4, 45480, Note_on_c, 9, 42, 80
4, 45481, Note_on_c, 9, 43, 0
4, 45500, Note_on_c, 9, 42, 0
4, 45529, Note_on_c, 9, 43, 117
4, 45551, Note_on_c, 9, 43, 0
4, 45560, Note_on_c, 9, 36, 72
4, 45580, Note_on_c, 9, 36, 0
4, 45600, Note_on_c, 9, 36, 127
4, 45600, Note_on_c, 9, 42, 80
4, 45620, Note_on_c, 9, 42, 0
4, 45620, Note_on_c, 9, 36, 0
4, 45720, Note_on_c, 9, 42, 80
4, 45740, Note_on_c, 9, 42, 0
4, 45800, Note_on_c, 9, 36, 112
4, 45800, Note_on_c, 9, 42, 80
4, 45820, Note_on_c, 9, 42, 0
4, 45820, Note_on_c, 9, 36, 0
4, 45840, Note_on_c, 9, 51, 80
4, 45840, Note_on_c, 9, 42, 80
4, 45840, Note_on_c, 9, 38, 115
4, 45860, Note_on_c, 9, 38, 0
4, 45860, Note_on_c, 9, 42, 0
4, 45860, Note_on_c, 9, 51, 0
4, 45960, Note_on_c, 9, 42, 80
4, 45980, Note_on_c, 9, 42, 0
4, 46040, Note_on_c, 9, 36, 72
4, 46060, Note_on_c, 9, 36, 0
4, 46080, Note_on_c, 9, 36, 127
4, 46080, Note_on_c, 9, 42, 80
4, 46100, Note_on_c, 9, 42, 0
4, 46100, Note_on_c, 9, 36, 0
4, 46200, Note_on_c, 9, 42, 80
4, 46220, Note_on_c, 9, 42, 0
4, 46280, Note_on_c, 9, 36, 112
4, 46280, Note_on_c, 9, 42, 80
4, 46300, Note_on_c, 9, 42, 0
4, 46300, Note_on_c, 9, 36, 0
4, 46320, Note_on_c, 9, 51, 80
4, 46320, Note_on_c, 9, 42, 80
4, 46320, Note_on_c, 9, 38, 55
4, 46340, Note_on_c, 9, 38, 0
4, 46340, Note_on_c, 9, 42, 0
4, 46340, Note_on_c, 9, 51, 0
4, 46400, Note_on_c, 9, 38, 112
4, 46420, Note_on_c, 9, 38, 0
4, 46440, Note_on_c, 9, 42, 80
4, 46460, Note_on_c, 9, 42, 0
4, 46499, Note_on_c, 9, 47, 108
4, 46515, Note_on_c, 9, 47, 0
4, 46520, Note_on_c, 9, 36, 72
4, 46531, Note_on_c, 9, 47, 104
4, 46540, Note_on_c, 9, 36, 0
4, 46550, Note_on_c, 9, 47, 0
4, 46560, Note_on_c, 9, 36, 127
4, 46560, Note_on_c, 9, 42, 80
4, 46580, Note_on_c, 9, 42, 0
4, 46580, Note_on_c, 9, 36, 0
4, 46680, Note_on_c, 9, 42, 80
4, 46700, Note_on_c, 9, 42, 0
4, 46760, Note_on_c, 9, 36, 112
4, 46760, Note_on_c, 9, 42, 80
4, 46780, Note_on_c, 9, 42, 0
4, 46780, Note_on_c, 9, 36, 0
4, 46800, Note_on_c, 9, 51, 80
4, 46800, Note_on_c, 9, 42, 80
4, 46800, Note_on_c, 9, 38, 123
4, 46820, Note_on_c, 9, 38, 0
4, 46820, Note_on_c, 9, 42, 0
4, 46820, Note_on_c, 9, 51, 0
4, 46920, Note_on_c, 9, 42, 80
4, 46940, Note_on_c, 9, 42, 0
4, 47000, Note_on_c, 9, 36, 72
4, 47020, Note_on_c, 9, 36, 0
4, 47040, Note_on_c, 9, 36, 127
4, 47040, Note_on_c, 9, 42, 80
4, 47060, Note_on_c, 9, 42, 0
4, 47060, Note_on_c, 9, 36, 0
4, 47160, Note_on_c, 9, 42, 80
4, 47180, Note_on_c, 9, 42, 0
4, 47240, Note_on_c, 9, 36, 112
4, 47240, Note_on_c, 9, 42, 80
4, 47260, Note_on_c, 9, 42, 0
4, 47260, Note_on_c, 9, 36, 0
4, 47280, Note_on_c, 9, 51, 80
4, 47280, Note_on_c, 9, 42, 80
4, 47280, Note_on_c, 9, 38, 124
4, 47300, Note_on_c, 9, 38, 0
4, 47300, Note_on_c, 9, 42, 0
4, 47300, Note_on_c, 9, 51, 0
4, 47400, Note_on_c, 9, 42, 80
4, 47420, Note_on_c, 9, 42, 0
4, 47480, Note_on_c, 9, 36, 72
4, 47500, Note_on_c, 9, 36, 0
4, 47520, Note_on_c, 9, 36, 127
4, 47520, Note_on_c, 9, 42, 80
4, 47540, Note_on_c, 9, 42, 0
4, 47540, Note_on_c, 9, 36, 0
4, 47640, Note_on_c, 9, 42, 80
4, 47660, Note_on_c, 9, 42, 0
4, 47720, Note_on_c, 9, 36, 112
4, 47720, Note_on_c, 9, 42, 80
4, 47740, Note_on_c, 9, 42, 0
4, 47740, Note_on_c, 9, 36, 0
4, 47760, Note_on_c, 9, 51, 80
4, 47760, Note_on_c, 9, 42, 80
4, 47760, Note_on_c, 9, 38, 124
4, 47780, Note_on_c, 9, 38, 0
4, 47780, Note_on_c, 9, 42, 0
4, 47780, Note_on_c, 9, 51, 0
4, 47880, Note_on_c, 9, 42, 80
4, 47900, Note_on_c, 9, 42, 0
4, 47960, Note_on_c, 9, 36, 72
4, 47980, Note_on_c, 9, 36, 0
4, 48000, Note_on_c, 9, 36, 127
4, 48000, Note_on_c, 9, 42, 80
4, 48020, Note_on_c, 9, 42, 0
4, 48020, Note_on_c, 9, 36, 0
4, 48120, Note_on_c, 9, 42, 80
4, 48140, Note_on_c, 9, 42, 0
4, 48200, Note_on_c, 9, 36, 112
4, 48200, Note_on_c, 9, 42, 80
4, 48220, Note_on_c, 9, 42, 0
4, 48220, Note_on_c, 9, 36, 0
4, 48240, Note_on_c, 9, 51, 80
4, 48240, Note_on_c, 9, 42, 80
4, 48240, Note_on_c, 9, 38, 126
4, 48260, Note_on_c, 9, 38, 0
4, 48260, Note_on_c, 9, 42, 0
4, 48260, Note_on_c, 9, 51, 0
4, 48360, Note_on_c, 9, 42, 80
4, 48380, Note_on_c, 9, 42, 0
4, 48440, Note_on_c, 9, 36, 72
4, 48460, Note_on_c, 9, 36, 0
4, 48480, Note_on_c, 9, 36, 127
4, 48480, Note_on_c, 9, 42, 80
4, 48500, Note_on_c, 9, 42, 0
4, 48500, Note_on_c, 9, 36, 0
4, 48600, Note_on_c, 9, 42, 80
4, 48620, Note_on_c, 9, 42, 0
4, 48680, Note_on_c, 9, 36, 112
4, 48680, Note_on_c, 9, 42, 80
4, 48700, Note_on_c, 9, 42, 0
4, 48700, Note_on_c, 9, 36, 0
4, 48720, Note_on_c, 9, 51, 80
4, 48720, Note_on_c, 9, 42, 80
4, 48720, Note_on_c, 9, 38, 127
4, 48740, Note_on_c, 9, 38, 0
4, 48740, Note_on_c, 9, 42, 0
4, 48740, Note_on_c, 9, 51, 0
4, 48840, Note_on_c, 9, 42, 80
4, 48860, Note_on_c, 9, 42, 0
4, 48920, Note_on_c, 9, 36, 72
4, 48940, Note_on_c, 9, 36, 0
4, 48960, Note_on_c, 9, 36, 127
4, 48960, Note_on_c, 9, 42, 80
4, 48980, Note_on_c, 9, 42, 0
4, 48980, Note_on_c, 9, 36, 0
4, 49080, Note_on_c, 9, 42, 80
4, 49100, Note_on_c, 9, 42, 0
4, 49160, Note_on_c, 9, 36, 112
4, 49160, Note_on_c, 9, 42, 80
4, 49180, Note_on_c, 9, 42, 0
4, 49180, Note_on_c, 9, 36, 0
4, 49200, Note_on_c, 9, 51, 80
4, 49200, Note_on_c, 9, 42, 80
4, 49200, Note_on_c, 9, 38, 127
4, 49220, Note_on_c, 9, 38, 0
4, 49220, Note_on_c, 9, 42, 0
4, 49220, Note_on_c, 9, 51, 0
4, 49320, Note_on_c, 9, 42, 80
4, 49340, Note_on_c, 9, 42, 0
4, 49400, Note_on_c, 9, 36, 72
4, 49420, Note_on_c, 9, 36, 0
4, 49440, Note_on_c, 9, 36, 127
4, 49440, Note_on_c, 9, 42, 80
4, 49460, Note_on_c, 9, 42, 0
4, 49460, Note_on_c, 9, 36, 0
4, 49515, Note_on_c, 9, 36, 127
4, 49560, Note_on_c, 9, 42, 80
4, 49563, Note_on_c, 9, 36, 0
4, 49580, Note_on_c, 9, 42, 0
4, 49640, Note_on_c, 9, 36, 112
4, 49640, Note_on_c, 9, 42, 80
4, 49660, Note_on_c, 9, 42, 0
4, 49660, Note_on_c, 9, 36, 0
4, 49680, Note_on_c, 9, 51, 80
4, 49680, Note_on_c, 9, 42, 80
4, 49680, Note_on_c, 9, 38, 123
4, 49700, Note_on_c, 9, 38, 0
4, 49700, Note_on_c, 9, 42, 0
4, 49700, Note_on_c, 9, 51, 0
4, 49800, Note_on_c, 9, 42, 80
4, 49820, Note_on_c, 9, 42, 0
4, 49880, Note_on_c, 9, 36, 72
4, 49900, Note_on_c, 9, 36, 0
4, 49920, Note_on_c, 9, 36, 127
4, 49920, Note_on_c, 9, 42, 80
4, 49940, Note_on_c, 9, 42, 0
4, 49940, Note_on_c, 9, 36, 0
4, 50040, Note_on_c, 9, 42, 80
4, 50060, Note_on_c, 9, 42, 0
4, 50120, Note_on_c, 9, 36, 112
4, 50120, Note_on_c, 9, 42, 80
4, 50140, Note_on_c, 9, 42, 0
4, 50140, Note_on_c, 9, 36, 0
4, 50160, Note_on_c, 9, 51, 80
4, 50160, Note_on_c, 9, 42, 80
4, 50160, Note_on_c, 9, 38, 127
4, 50180, Note_on_c, 9, 38, 0
4, 50180, Note_on_c, 9, 42, 0
4, 50180, Note_on_c, 9, 51, 0
4, 50280, Note_on_c, 9, 42, 80
4, 50300, Note_on_c, 9, 42, 0
4, 50360, Note_on_c, 9, 36, 72
4, 50380, Note_on_c, 9, 36, 0
4, 50400, Note_on_c, 9, 36, 127
4, 50400, Note_on_c, 9, 42, 80
4, 50420, Note_on_c, 9, 42, 0
4, 50420, Note_on_c, 9, 36, 0
4, 50520, Note_on_c, 9, 42, 80
4, 50540, Note_on_c, 9, 42, 0
4, 50600, Note_on_c, 9, 36, 112
4, 50600, Note_on_c, 9, 42, 80
4, 50620, Note_on_c, 9, 42, 0
4, 50620, Note_on_c, 9, 36, 0
4, 50640, Note_on_c, 9, 51, 80
4, 50640, Note_on_c, 9, 42, 80
4, 50640, Note_on_c, 9, 38, 127
4, 50660, Note_on_c, 9, 38, 0
4, 50660, Note_on_c, 9, 42, 0
4, 50660, Note_on_c, 9, 51, 0
4, 50760, Note_on_c, 9, 42, 80
4, 50780, Note_on_c, 9, 42, 0
4, 50840, Note_on_c, 9, 36, 72
4, 50860, Note_on_c, 9, 36, 0
4, 50880, Note_on_c, 9, 36, 127
4, 50880, Note_on_c, 9, 42, 80
4, 50900, Note_on_c, 9, 42, 0
4, 50900, Note_on_c, 9, 36, 0
4, 51000, Note_on_c, 9, 42, 80
4, 51020, Note_on_c, 9, 42, 0
4, 51080, Note_on_c, 9, 36, 112
4, 51080, Note_on_c, 9, 42, 80
4, 51100, Note_on_c, 9, 42, 0
4, 51100, Note_on_c, 9, 36, 0
4, 51120, Note_on_c, 9, 51, 80
4, 51120, Note_on_c, 9, 42, 80
4, 51120, Note_on_c, 9, 38, 127
4, 51140, Note_on_c, 9, 38, 0
4, 51140, Note_on_c, 9, 42, 0
4, 51140, Note_on_c, 9, 51, 0
4, 51240, Note_on_c, 9, 42, 80
4, 51260, Note_on_c, 9, 42, 0
4, 51296, Note_on_c, 9, 43, 77
4, 51317, Note_on_c, 9, 43, 0
4, 51320, Note_on_c, 9, 36, 72
4, 51331, Note_on_c, 9, 43, 81
4, 51340, Note_on_c, 9, 36, 0
4, 51357, Note_on_c, 9, 43, 0
4, 51360, Note_on_c, 9, 49, 79
4, 51360, Note_on_c, 9, 36, 127
4, 51360, Note_on_c, 9, 42, 80
4, 51380, Note_on_c, 9, 42, 0
4, 51380, Note_on_c, 9, 36, 0
4, 51408, Note_on_c, 9, 49, 0
4, 51480, Note_on_c, 9, 42, 80
4, 51500, Note_on_c, 9, 42, 0
4, 51560, Note_on_c, 9, 36, 112
4, 51560, Note_on_c, 9, 42, 80
4, 51580, Note_on_c, 9, 42, 0
4, 51580, Note_on_c, 9, 36, 0
4, 51600, Note_on_c, 9, 51, 80
4, 51600, Note_on_c, 9, 42, 80
4, 51600, Note_on_c, 9, 38, 127
4, 51620, Note_on_c, 9, 38, 0
4, 51620, Note_on_c, 9, 42, 0
4, 51620, Note_on_c, 9, 51, 0
4, 51720, Note_on_c, 9, 42, 80
4, 51740, Note_on_c, 9, 42, 0
4, 51800, Note_on_c, 9, 36, 72
4, 51820, Note_on_c, 9, 36, 0
4, 51840, Note_on_c, 9, 36, 127
4, 51840, Note_on_c, 9, 42, 80
4, 51860, Note_on_c, 9, 42, 0
4, 51860, Note_on_c, 9, 36, 0
4, 51960, Note_on_c, 9, 42, 80
4, 51980, Note_on_c, 9, 42, 0
4, 52040, Note_on_c, 9, 36, 112
4, 52040, Note_on_c, 9, 42, 80
4, 52060, Note_on_c, 9, 42, 0
4, 52060, Note_on_c, 9, 36, 0
4, 52080, Note_on_c, 9, 51, 80
4, 52080, Note_on_c, 9, 42, 80
4, 52080, Note_on_c, 9, 38, 127
4, 52100, Note_on_c, 9, 38, 0
4, 52100, Note_on_c, 9, 42, 0
4, 52100, Note_on_c, 9, 51, 0
4, 52200, Note_on_c, 9, 42, 80
4, 52220, Note_on_c, 9, 42, 0
4, 52280, Note_on_c, 9, 36, 72
4, 52300, Note_on_c, 9, 36, 0
4, 52320, Note_on_c, 9, 36, 127
4, 52320, Note_on_c, 9, 42, 80
4, 52340, Note_on_c, 9, 42, 0
4, 52340, Note_on_c, 9, 36, 0
4, 52440, Note_on_c, 9, 42, 80
4, 52460, Note_on_c, 9, 42, 0
4, 52520, Note_on_c, 9, 36, 112
4, 52520, Note_on_c, 9, 42, 80
4, 52540, Note_on_c, 9, 42, 0
4, 52540, Note_on_c, 9, 36, 0
4, 52560, Note_on_c, 9, 51, 80
4, 52560, Note_on_c, 9, 42, 80
4, 52560, Note_on_c, 9, 38, 124
4, 52580, Note_on_c, 9, 38, 0
4, 52580, Note_on_c, 9, 42, 0
4, 52580, Note_on_c, 9, 51, 0
4, 52680, Note_on_c, 9, 42, 80
4, 52700, Note_on_c, 9, 42, 0
4, 52760, Note_on_c, 9, 36, 72
4, 52780, Note_on_c, 9, 36, 0
4, 52800, Note_on_c, 9, 36, 127
4, 52800, Note_on_c, 9, 42, 80
4, 52820, Note_on_c, 9, 42, 0
4, 52820, Note_on_c, 9, 36, 0
4, 52920, Note_on_c, 9, 42, 80
4, 52940, Note_on_c, 9, 42, 0
4, 53000, Note_on_c, 9, 36, 112
4, 53000, Note_on_c, 9, 42, 80
4, 53020, Note_on_c, 9, 42, 0
4, 53020, Note_on_c, 9, 36, 0
4, 53040, Note_on_c, 9, 51, 80
4, 53040, Note_on_c, 9, 42, 80
4, 53040, Note_on_c, 9, 38, 127
4, 53060, Note_on_c, 9, 38, 0
4, 53060, Note_on_c, 9, 42, 0
4, 53060, Note_on_c, 9, 51, 0
4, 53160, Note_on_c, 9, 42, 80
4, 53180, Note_on_c, 9, 42, 0
4, 53240, Note_on_c, 9, 36, 72
4, 53260, Note_on_c, 9, 36, 0
4, 53280, Note_on_c, 9, 36, 127
4, 53280, Note_on_c, 9, 42, 80
4, 53300, Note_on_c, 9, 42, 0
4, 53300, Note_on_c, 9, 36, 0
4, 53400, Note_on_c, 9, 42, 80
4, 53420, Note_on_c, 9, 42, 0
4, 53480, Note_on_c, 9, 36, 112
4, 53480, Note_on_c, 9, 42, 80
4, 53500, Note_on_c, 9, 42, 0
4, 53500, Note_on_c, 9, 36, 0
4, 53520, Note_on_c, 9, 51, 80
4, 53520, Note_on_c, 9, 42, 80
4, 53520, Note_on_c, 9, 38, 127
4, 53540, Note_on_c, 9, 38, 0
4, 53540, Note_on_c, 9, 42, 0
4, 53540, Note_on_c, 9, 51, 0
4, 53640, Note_on_c, 9, 42, 80
4, 53660, Note_on_c, 9, 42, 0
4, 53720, Note_on_c, 9, 36, 72
4, 53740, Note_on_c, 9, 36, 0
4, 53760, Note_on_c, 9, 36, 127
4, 53760, Note_on_c, 9, 42, 80
4, 53780, Note_on_c, 9, 42, 0
4, 53780, Note_on_c, 9, 36, 0
4, 53880, Note_on_c, 9, 42, 80
4, 53900, Note_on_c, 9, 42, 0
4, 53960, Note_on_c, 9, 36, 112
4, 53960, Note_on_c, 9, 42, 80
4, 53980, Note_on_c, 9, 42, 0
4, 53980, Note_on_c, 9, 36, 0
4, 54000, Note_on_c, 9, 51, 80
4, 54000, Note_on_c, 9, 42, 80
4, 54000, Note_on_c, 9, 38, 127
4, 54020, Note_on_c, 9, 38, 0
4, 54020, Note_on_c, 9, 42, 0
4, 54020, Note_on_c, 9, 51, 0
4, 54120, Note_on_c, 9, 42, 80
4, 54140, Note_on_c, 9, 42, 0
4, 54200, Note_on_c, 9, 36, 72
4, 54220, Note_on_c, 9, 36, 0
4, 54240, Note_on_c, 9, 36, 127
4, 54240, Note_on_c, 9, 42, 80
4, 54260, Note_on_c, 9, 42, 0
4, 54260, Note_on_c, 9, 36, 0
4, 54360, Note_on_c, 9, 42, 80
4, 54380, Note_on_c, 9, 42, 0
4, 54440, Note_on_c, 9, 36, 112
4, 54440, Note_on_c, 9, 42, 80
4, 54460, Note_on_c, 9, 42, 0
4, 54460, Note_on_c, 9, 36, 0
4, 54480, Note_on_c, 9, 51, 80
4, 54480, Note_on_c, 9, 42, 80
4, 54480, Note_on_c, 9, 38, 127
4, 54500, Note_on_c, 9, 38, 0
4, 54500, Note_on_c, 9, 42, 0
4, 54500, Note_on_c, 9, 51, 0
4, 54600, Note_on_c, 9, 42, 80
4, 54620, Note_on_c, 9, 42, 0
4, 54680, Note_on_c, 9, 36, 72
4, 54700, Note_on_c, 9, 36, 0
4, 54720, Note_on_c, 9, 36, 127
4, 54720, Note_on_c, 9, 42, 80
4, 54740, Note_on_c, 9, 42, 0
4, 54740, Note_on_c, 9, 36, 0
4, 54840, Note_on_c, 9, 42, 80
4, 54860, Note_on_c, 9, 42, 0
4, 54920, Note_on_c, 9, 36, 112
4, 54920, Note_on_c, 9, 42, 80
4, 54940, Note_on_c, 9, 42, 0
4, 54940, Note_on_c, 9, 36, 0
4, 54960, Note_on_c, 9, 51, 80
4, 54960, Note_on_c, 9, 42, 80
4, 54960, Note_on_c, 9, 38, 127
4, 54980, Note_on_c, 9, 38, 0
4, 54980, Note_on_c, 9, 42, 0
4, 54980, Note_on_c, 9, 51, 0
4, 55080, Note_on_c, 9, 42, 80
4, 55100, Note_on_c, 9, 42, 0
4, 55160, Note_on_c, 9, 36, 72
4, 55180, Note_on_c, 9, 36, 0
4, 55200, Note_on_c, 9, 36, 127
4, 55200, Note_on_c, 9, 42, 80
4, 55220, Note_on_c, 9, 42, 0
4, 55220, Note_on_c, 9, 36, 0
4, 55320, Note_on_c, 9, 42, 80
4, 55340, Note_on_c, 9, 42, 0
4, 55400, Note_on_c, 9, 36, 112
4, 55400, Note_on_c, 9, 42, 80
4, 55420, Note_on_c, 9, 42, 0
4, 55420, Note_on_c, 9, 36, 0
4, 55440, Note_on_c, 9, 51, 80
4, 55440, Note_on_c, 9, 42, 80
4, 55440, Note_on_c, 9, 38, 127
4, 55460, Note_on_c, 9, 38, 0
4, 55460, Note_on_c, 9, 42, 0
4, 55460, Note_on_c, 9, 51, 0
4, 55560, Note_on_c, 9, 42, 80
4, 55580, Note_on_c, 9, 42, 0
4, 55640, Note_on_c, 9, 36, 72
4, 55660, Note_on_c, 9, 36, 0
4, 55680, Note_on_c, 9, 36, 127
4, 55680, Note_on_c, 9, 42, 80
4, 55700, Note_on_c, 9, 42, 0
4, 55700, Note_on_c, 9, 36, 0
4, 55800, Note_on_c, 9, 42, 80
4, 55820, Note_on_c, 9, 42, 0
4, 55880, Note_on_c, 9, 36, 112
4, 55880, Note_on_c, 9, 42, 80
4, 55900, Note_on_c, 9, 42, 0
4, 55900, Note_on_c, 9, 36, 0
4, 55920, Note_on_c, 9, 51, 80
4, 55920, Note_on_c, 9, 42, 80
4, 55920, Note_on_c, 9, 38, 127
4, 55940, Note_on_c, 9, 38, 0
4, 55940, Note_on_c, 9, 42, 0
4, 55940, Note_on_c, 9, 51, 0
4, 56040, Note_on_c, 9, 42, 80
4, 56060, Note_on_c, 9, 42, 0
4, 56120, Note_on_c, 9, 36, 72
4, 56140, Note_on_c, 9, 36, 0
4, 56160, Note_on_c, 9, 36, 127
4, 56160, Note_on_c, 9, 42, 80
4, 56180, Note_on_c, 9, 42, 0
4, 56180, Note_on_c, 9, 36, 0
4, 56280, Note_on_c, 9, 42, 80
4, 56300, Note_on_c, 9, 42, 0
4, 56360, Note_on_c, 9, 36, 112
4, 56360, Note_on_c, 9, 42, 80
4, 56380, Note_on_c, 9, 42, 0
4, 56380, Note_on_c, 9, 36, 0
4, 56400, Note_on_c, 9, 51, 80
4, 56400, Note_on_c, 9, 42, 80
4, 56400, Note_on_c, 9, 38, 127
4, 56420, Note_on_c, 9, 38, 0
4, 56420, Note_on_c, 9, 42, 0
4, 56420, Note_on_c, 9, 51, 0
4, 56520, Note_on_c, 9, 42, 80
4, 56540, Note_on_c, 9, 42, 0
4, 56600, Note_on_c, 9, 36, 72
4, 56620, Note_on_c, 9, 36, 0
4, 56640, Note_on_c, 9, 36, 127
4, 56640, Note_on_c, 9, 42, 80
4, 56660, Note_on_c, 9, 42, 0
4, 56660, Note_on_c, 9, 36, 0
4, 56760, Note_on_c, 9, 42, 80
4, 56780, Note_on_c, 9, 42, 0
4, 56840, Note_on_c, 9, 36, 112
4, 56840, Note_on_c, 9, 42, 80
4, 56860, Note_on_c, 9, 42, 0
4, 56860, Note_on_c, 9, 36, 0
4, 56880, Note_on_c, 9, 51, 80
4, 56880, Note_on_c, 9, 42, 80
4, 56880, Note_on_c, 9, 38, 117
4, 56900, Note_on_c, 9, 38, 0
4, 56900, Note_on_c, 9, 42, 0
4, 56900, Note_on_c, 9, 51, 0
4, 57000, Note_on_c, 9, 42, 80
4, 57020, Note_on_c, 9, 42, 0
4, 57080, Note_on_c, 9, 36, 72
4, 57100, Note_on_c, 9, 36, 0
4, 57120, Note_on_c, 9, 36, 127
4, 57120, Note_on_c, 9, 42, 80
4, 57140, Note_on_c, 9, 42, 0
4, 57140, Note_on_c, 9, 36, 0
4, 57240, Note_on_c, 9, 42, 80
4, 57260, Note_on_c, 9, 42, 0
4, 57320, Note_on_c, 9, 36, 112
4, 57320, Note_on_c, 9, 42, 80
4, 57340, Note_on_c, 9, 42, 0
4, 57340, Note_on_c, 9, 36, 0
4, 57360, Note_on_c, 9, 51, 80
4, 57360, Note_on_c, 9, 42, 80
4, 57360, Note_on_c, 9, 38, 122
4, 57380, Note_on_c, 9, 38, 0
4, 57380, Note_on_c, 9, 42, 0
4, 57380, Note_on_c, 9, 51, 0
4, 57480, Note_on_c, 9, 42, 80
4, 57500, Note_on_c, 9, 42, 0
4, 57560, Note_on_c, 9, 36, 72
4, 57580, Note_on_c, 9, 36, 0
4, 57600, Note_on_c, 9, 36, 127
4, 57600, Note_on_c, 9, 42, 80
4, 57620, Note_on_c, 9, 42, 0
4, 57620, Note_on_c, 9, 36, 0
4, 57720, Note_on_c, 9, 42, 80
4, 57740, Note_on_c, 9, 42, 0
4, 57800, Note_on_c, 9, 36, 112
4, 57800, Note_on_c, 9, 42, 80
4, 57820, Note_on_c, 9, 42, 0
4, 57820, Note_on_c, 9, 36, 0
4, 57840, Note_on_c, 9, 51, 80
4, 57840, Note_on_c, 9, 42, 80
4, 57840, Note_on_c, 9, 38, 127
4, 57860, Note_on_c, 9, 38, 0
4, 57860, Note_on_c, 9, 42, 0
4, 57860, Note_on_c, 9, 51, 0
4, 57960, Note_on_c, 9, 42, 80
4, 57980, Note_on_c, 9, 42, 0
4, 58040, Note_on_c, 9, 36, 72
4, 58060, Note_on_c, 9, 36, 0
4, 58080, Note_on_c, 9, 36, 127
4, 58080, Note_on_c, 9, 42, 80
4, 58100, Note_on_c, 9, 42, 0
4, 58100, Note_on_c, 9, 36, 0
4, 58200, Note_on_c, 9, 42, 80
4, 58220, Note_on_c, 9, 42, 0
4, 58280, Note_on_c, 9, 36, 112
4, 58280, Note_on_c, 9, 42, 80
4, 58300, Note_on_c, 9, 42, 0
4, 58300, Note_on_c, 9, 36, 0
4, 58320, Note_on_c, 9, 51, 80
4, 58320, Note_on_c, 9, 42, 80
4, 58320, Note_on_c, 9, 38, 127
4, 58340, Note_on_c, 9, 38, 0
4, 58340, Note_on_c, 9, 42, 0
4, 58340, Note_on_c, 9, 51, 0
4, 58440, Note_on_c, 9, 42, 80
4, 58460, Note_on_c, 9, 42, 0
4, 58520, Note_on_c, 9, 36, 72
4, 58540, Note_on_c, 9, 36, 0
4, 58560, Note_on_c, 9, 36, 127
4, 58560, Note_on_c, 9, 42, 80
4, 58580, Note_on_c, 9, 42, 0
4, 58580, Note_on_c, 9, 36, 0
4, 58680, Note_on_c, 9, 42, 80
4, 58700, Note_on_c, 9, 42, 0
4, 58760, Note_on_c, 9, 36, 112
4, 58760, Note_on_c, 9, 42, 80
4, 58780, Note_on_c, 9, 42, 0
4, 58780, Note_on_c, 9, 36, 0
4, 58800, Note_on_c, 9, 51, 80
4, 58800, Note_on_c, 9, 42, 80
4, 58800, Note_on_c, 9, 38, 127
4, 58820, Note_on_c, 9, 38, 0
4, 58820, Note_on_c, 9, 42, 0
4, 58820, Note_on_c, 9, 51, 0
4, 58920, Note_on_c, 9, 42, 80
4, 58940, Note_on_c, 9, 42, 0
4, 59000, Note_on_c, 9, 36, 72
4, 59020, Note_on_c, 9, 36, 0
4, 59040, Note_on_c, 9, 36, 127
4, 59040, Note_on_c, 9, 42, 80
4, 59060, Note_on_c, 9, 42, 0
4, 59060, Note_on_c, 9, 36, 0
4, 59160, Note_on_c, 9, 42, 80
4, 59180, Note_on_c, 9, 42, 0
4, 59240, Note_on_c, 9, 36, 112
4, 59240, Note_on_c, 9, 42, 80
4, 59260, Note_on_c, 9, 42, 0
4, 59260, Note_on_c, 9, 36, 0
4, 59280, Note_on_c, 9, 51, 80
4, 59280, Note_on_c, 9, 42, 80
4, 59280, Note_on_c, 9, 38, 127
4, 59300, Note_on_c, 9, 38, 0
4, 59300, Note_on_c, 9, 42, 0
4, 59300, Note_on_c, 9, 51, 0
4, 59400, Note_on_c, 9, 42, 80
4, 59420, Note_on_c, 9, 42, 0
4, 59480, Note_on_c, 9, 36, 72
4, 59500, Note_on_c, 9, 36, 0
4, 59520, Note_on_c, 9, 36, 127
4, 59520, Note_on_c, 9, 42, 80
4, 59540, Note_on_c, 9, 42, 0
4, 59540, Note_on_c, 9, 36, 0
4, 59640, Note_on_c, 9, 42, 80
4, 59660, Note_on_c, 9, 42, 0
4, 59720, Note_on_c, 9, 36, 112
4, 59720, Note_on_c, 9, 42, 80
4, 59740, Note_on_c, 9, 42, 0
4, 59740, Note_on_c, 9, 36, 0
4, 59760, Note_on_c, 9, 51, 80
4, 59760, Note_on_c, 9, 42, 80
4, 59760, Note_on_c, 9, 38, 127
4, 59780, Note_on_c, 9, 38, 0
4, 59780, Note_on_c, 9, 42, 0
4, 59780, Note_on_c, 9, 51, 0
4, 59880, Note_on_c, 9, 42, 80
4, 59900, Note_on_c, 9, 42, 0
4, 59960, Note_on_c, 9, 36, 72
4, 59980, Note_on_c, 9, 36, 0
4, 60000, Note_on_c, 9, 36, 127
4, 60000, Note_on_c, 9, 42, 80
4, 60020, Note_on_c, 9, 42, 0
4, 60020, Note_on_c, 9, 36, 0
4, 60120, Note_on_c, 9, 42, 80
4, 60140, Note_on_c, 9, 42, 0
4, 60200, Note_on_c, 9, 36, 112
4, 60200, Note_on_c, 9, 42, 80
4, 60220, Note_on_c, 9, 42, 0
4, 60220, Note_on_c, 9, 36, 0
4, 60240, Note_on_c, 9, 51, 80
4, 60240, Note_on_c, 9, 42, 80
4, 60240, Note_on_c, 9, 38, 127
4, 60260, Note_on_c, 9, 38, 0
4, 60260, Note_on_c, 9, 42, 0
4, 60260, Note_on_c, 9, 51, 0
4, 60360, Note_on_c, 9, 42, 80
4, 60380, Note_on_c, 9, 42, 0
4, 60440, Note_on_c, 9, 36, 72
4, 60460, Note_on_c, 9, 36, 0
4, 60480, Note_on_c, 9, 36, 127
4, 60480, Note_on_c, 9, 42, 80
4, 60500, Note_on_c, 9, 42, 0
4, 60500, Note_on_c, 9, 36, 0
4, 60600, Note_on_c, 9, 42, 80
4, 60620, Note_on_c, 9, 42, 0
4, 60680, Note_on_c, 9, 36, 112
4, 60680, Note_on_c, 9, 42, 80
4, 60700, Note_on_c, 9, 42, 0
4, 60700, Note_on_c, 9, 36, 0
4, 60720, Note_on_c, 9, 51, 80
4, 60720, Note_on_c, 9, 42, 80
4, 60720, Note_on_c, 9, 38, 127
4, 60740, Note_on_c, 9, 38, 0
4, 60740, Note_on_c, 9, 42, 0
4, 60740, Note_on_c, 9, 51, 0
4, 60840, Note_on_c, 9, 42, 80
4, 60860, Note_on_c, 9, 42, 0
4, 60920, Note_on_c, 9, 36, 72
4, 60940, Note_on_c, 9, 36, 0
4, 60960, Note_on_c, 9, 36, 127
4, 60960, Note_on_c, 9, 42, 80
4, 60980, Note_on_c, 9, 42, 0
4, 60980, Note_on_c, 9, 36, 0
4, 61080, Note_on_c, 9, 42, 80
4, 61100, Note_on_c, 9, 42, 0
4, 61160, Note_on_c, 9, 36, 112
4, 61160, Note_on_c, 9, 42, 80
4, 61180, Note_on_c, 9, 42, 0
4, 61180, Note_on_c, 9, 36, 0
4, 61200, Note_on_c, 9, 51, 80
4, 61200, Note_on_c, 9, 42, 80
4, 61200, Note_on_c, 9, 38, 125
4, 61220, Note_on_c, 9, 38, 0
4, 61220, Note_on_c, 9, 42, 0
4, 61220, Note_on_c, 9, 51, 0
4, 61320, Note_on_c, 9, 42, 80
4, 61340, Note_on_c, 9, 42, 0
4, 61400, Note_on_c, 9, 36, 72
4, 61420, Note_on_c, 9, 36, 0
4, 61440, Note_on_c, 9, 36, 127
4, 61440, Note_on_c, 9, 42, 80
4, 61460, Note_on_c, 9, 42, 0
4, 61460, Note_on_c, 9, 36, 0
4, 61560, Note_on_c, 9, 42, 80
4, 61580, Note_on_c, 9, 42, 0
4, 61640, Note_on_c, 9, 36, 112
4, 61640, Note_on_c, 9, 42, 80
4, 61660, Note_on_c, 9, 42, 0
4, 61660, Note_on_c, 9, 36, 0
4, 61680, Note_on_c, 9, 51, 80
4, 61680, Note_on_c, 9, 42, 80
4, 61680, Note_on_c, 9, 38, 123
4, 61700, Note_on_c, 9, 38, 0
4, 61700, Note_on_c, 9, 42, 0
4, 61700, Note_on_c, 9, 51, 0
4, 61800, Note_on_c, 9, 42, 80
4, 61820, Note_on_c, 9, 42, 0
4, 61880, Note_on_c, 9, 36, 72
4, 61900, Note_on_c, 9, 36, 0
4, 61920, Note_on_c, 9, 36, 127
4, 61920, Note_on_c, 9, 42, 80
4, 61940, Note_on_c, 9, 42, 0
4, 61940, Note_on_c, 9, 36, 0
4, 62040, Note_on_c, 9, 42, 80
4, 62060, Note_on_c, 9, 42, 0
4, 62120, Note_on_c, 9, 36, 112
4, 62120, Note_on_c, 9, 42, 80
4, 62140, Note_on_c, 9, 42, 0
4, 62140, Note_on_c, 9, 36, 0
4, 62160, Note_on_c, 9, 51, 80
4, 62160, Note_on_c, 9, 42, 80
4, 62160, Note_on_c, 9, 38, 121
4, 62180, Note_on_c, 9, 38, 0
4, 62180, Note_on_c, 9, 42, 0
4, 62180, Note_on_c, 9, 51, 0
4, 62280, Note_on_c, 9, 42, 80
4, 62300, Note_on_c, 9, 42, 0
4, 62360, Note_on_c, 9, 36, 72
4, 62380, Note_on_c, 9, 36, 0
4, 62400, Note_on_c, 9, 36, 127
4, 62400, Note_on_c, 9, 42, 80
4, 62420, Note_on_c, 9, 42, 0
4, 62420, Note_on_c, 9, 36, 0
4, 62520, Note_on_c, 9, 42, 80
4, 62540, Note_on_c, 9, 42, 0
4, 62600, Note_on_c, 9, 36, 112
4, 62600, Note_on_c, 9, 42, 80
4, 62620, Note_on_c, 9, 42, 0
4, 62620, Note_on_c, 9, 36, 0
4, 62640, Note_on_c, 9, 51, 80
4, 62640, Note_on_c, 9, 42, 80
4, 62640, Note_on_c, 9, 38, 121
4, 62660, Note_on_c, 9, 38, 0
4, 62660, Note_on_c, 9, 42, 0
4, 62660, Note_on_c, 9, 51, 0
4, 62760, Note_on_c, 9, 42, 80
4, 62780, Note_on_c, 9, 42, 0
4, 62840, Note_on_c, 9, 36, 72
4, 62860, Note_on_c, 9, 36, 0
4, 62880, Note_on_c, 9, 36, 127
4, 62880, Note_on_c, 9, 42, 80
4, 62900, Note_on_c, 9, 42, 0
4, 62900, Note_on_c, 9, 36, 0
4, 63000, Note_on_c, 9, 42, 80
4, 63020, Note_on_c, 9, 42, 0
4, 63080, Note_on_c, 9, 36, 112
4, 63080, Note_on_c, 9, 42, 80
4, 63080, Note_on_c, 9, 38, 121
4, 63100, Note_on_c, 9, 38, 0
4, 63100, Note_on_c, 9, 42, 0
4, 63100, Note_on_c, 9, 36, 0
4, 63120, Note_on_c, 9, 51, 80
4, 63120, Note_on_c, 9, 42, 80
4, 63120, Note_on_c, 9, 47, 122
4, 63120, Note_on_c, 9, 38, 121
4, 63140, Note_on_c, 9, 38, 0
4, 63140, Note_on_c, 9, 51, 0
4, 63140, Note_on_c, 9, 42, 0
4, 63164, Note_on_c, 9, 47, 0
4, 63204, Note_on_c, 9, 45, 113
4, 63234, Note_on_c, 9, 45, 0
4, 63240, Note_on_c, 9, 42, 80
4, 63260, Note_on_c, 9, 42, 0
4, 63289, Note_on_c, 9, 45, 104
4, 63320, Note_on_c, 9, 36, 72
4, 63321, Note_on_c, 9, 45, 0
4, 63340, Note_on_c, 9, 36, 0
4, 63360, Note_on_c, 9, 36, 127
4, 63360, Note_on_c, 9, 42, 80
4, 63380, Note_on_c, 9, 42, 0
4, 63380, Note_on_c, 9, 36, 0
4, 63480, Note_on_c, 9, 42, 80
4, 63500, Note_on_c, 9, 42, 0
4, 63560, Note_on_c, 9, 36, 112
4, 63560, Note_on_c, 9, 42, 80
4, 63580, Note_on_c, 9, 42, 0
4, 63580, Note_on_c, 9, 36, 0
4, 63600, Note_on_c, 9, 51, 80
4, 63600, Note_on_c, 9, 42, 80
4, 63600, Note_on_c, 9, 38, 121
4, 63620, Note_on_c, 9, 38, 0
4, 63620, Note_on_c, 9, 42, 0
4, 63620, Note_on_c, 9, 51, 0
4, 63720, Note_on_c, 9, 42, 80
4, 63740, Note_on_c, 9, 42, 0
4, 63800, Note_on_c, 9, 36, 72
4, 63820, Note_on_c, 9, 36, 0
4, 63840, Note_on_c, 9, 36, 127
4, 63840, Note_on_c, 9, 42, 80
4, 63860, Note_on_c, 9, 42, 0
4, 63860, Note_on_c, 9, 36, 0
4, 63960, Note_on_c, 9, 42, 80
4, 63980, Note_on_c, 9, 42, 0
4, 64040, Note_on_c, 9, 36, 112
4, 64040, Note_on_c, 9, 42, 80
4, 64060, Note_on_c, 9, 42, 0
4, 64060, Note_on_c, 9, 36, 0
4, 64080, Note_on_c, 9, 51, 80
4, 64080, Note_on_c, 9, 42, 80
4, 64080, Note_on_c, 9, 38, 123
4, 64100, Note_on_c, 9, 38, 0
4, 64100, Note_on_c, 9, 42, 0
4, 64100, Note_on_c, 9, 51, 0
4, 64200, Note_on_c, 9, 42, 80
4, 64220, Note_on_c, 9, 42, 0
4, 64280, Note_on_c, 9, 36, 72
4, 64300, Note_on_c, 9, 36, 0
4, 64320, Note_on_c, 9, 36, 127
4, 64320, Note_on_c, 9, 42, 80
4, 64340, Note_on_c, 9, 42, 0
4, 64340, Note_on_c, 9, 36, 0
4, 64440, Note_on_c, 9, 42, 80
4, 64460, Note_on_c, 9, 42, 0
4, 64520, Note_on_c, 9, 36, 112
4, 64520, Note_on_c, 9, 42, 80
4, 64540, Note_on_c, 9, 42, 0
4, 64540, Note_on_c, 9, 36, 0
4, 64560, Note_on_c, 9, 51, 80
4, 64560, Note_on_c, 9, 42, 80
4, 64560, Note_on_c, 9, 38, 124
4, 64580, Note_on_c, 9, 38, 0
4, 64580, Note_on_c, 9, 42, 0
4, 64580, Note_on_c, 9, 51, 0
4, 64680, Note_on_c, 9, 42, 80
4, 64700, Note_on_c, 9, 42, 0
4, 64760, Note_on_c, 9, 36, 72
4, 64780, Note_on_c, 9, 36, 0
4, 64800, Note_on_c, 9, 36, 127
4, 64800, Note_on_c, 9, 42, 80
4, 64820, Note_on_c, 9, 42, 0
4, 64820, Note_on_c, 9, 36, 0
4, 64920, Note_on_c, 9, 42, 80
4, 64940, Note_on_c, 9, 42, 0
4, 64980, Note_on_c, 9, 38, 88
4, 64996, Note_on_c, 9, 38, 0
4, 65000, Note_on_c, 9, 42, 80
4, 65010, Note_on_c, 9, 38, 101
4, 65020, Note_on_c, 9, 42, 0
4, 65030, Note_on_c, 9, 38, 0
4, 65040, Note_on_c, 9, 47, 127
4, 65040, Note_on_c, 9, 51, 80
4, 65040, Note_on_c, 9, 42, 80
4, 65040, Note_on_c, 9, 38, 55
4, 65060, Note_on_c, 9, 38, 0
4, 65060, Note_on_c, 9, 42, 0
4, 65060, Note_on_c, 9, 51, 0
4, 65088, Note_on_c, 9, 47, 0
4, 65125, Note_on_c, 9, 43, 127
4, 65160, Note_on_c, 9, 42, 80
4, 65161, Note_on_c, 9, 43, 0
4, 65180, Note_on_c, 9, 42, 0
4, 65209, Note_on_c, 9, 43, 117
4, 65231, Note_on_c, 9, 43, 0
4, 65240, Note_on_c, 9, 36, 72
4, 65260, Note_on_c, 9, 36, 0
4, 65280, Note_on_c, 9, 36, 127
4, 65280, Note_on_c, 9, 42, 80
4, 65300, Note_on_c, 9, 42, 0
4, 65300, Note_on_c, 9, 36, 0
4, 65400, Note_on_c, 9, 42, 80
4, 65420, Note_on_c, 9, 42, 0
4, 65480, Note_on_c, 9, 36, 112
4, 65480, Note_on_c, 9, 42, 80
4, 65500, Note_on_c, 9, 42, 0
4, 65500, Note_on_c, 9, 36, 0
4, 65520, Note_on_c, 9, 51, 80
4, 65520, Note_on_c, 9, 42, 80
4, 65520, Note_on_c, 9, 38, 110
4, 65540, Note_on_c, 9, 38, 0
4, 65540, Note_on_c, 9, 42, 0
4, 65540, Note_on_c, 9, 51, 0
4, 65640, Note_on_c, 9, 42, 80
4, 65660, Note_on_c, 9, 42, 0
4, 65720, Note_on_c, 9, 36, 72
4, 65740, Note_on_c, 9, 36, 0
4, 65760, Note_on_c, 9, 36, 127
4, 65760, Note_on_c, 9, 42, 80
4, 65780, Note_on_c, 9, 42, 0
4, 65780, Note_on_c, 9, 36, 0
4, 65880, Note_on_c, 9, 42, 80
4, 65900, Note_on_c, 9, 42, 0
4, 65960, Note_on_c, 9, 36, 112
4, 65960, Note_on_c, 9, 42, 80
4, 65980, Note_on_c, 9, 42, 0
4, 65980, Note_on_c, 9, 36, 0
4, 66000, Note_on_c, 9, 51, 80
4, 66000, Note_on_c, 9, 42, 80
4, 66000, Note_on_c, 9, 38, 89
4, 66020, Note_on_c, 9, 38, 0
4, 66020, Note_on_c, 9, 42, 0
4, 66020, Note_on_c, 9, 51, 0
4, 66080, Note_on_c, 9, 38, 112
4, 66100, Note_on_c, 9, 38, 0
4, 66120, Note_on_c, 9, 42, 80
4, 66140, Note_on_c, 9, 42, 0
4, 66179, Note_on_c, 9, 47, 108
4, 66195, Note_on_c, 9, 47, 0
4, 66200, Note_on_c, 9, 36, 72
4, 66211, Note_on_c, 9, 47, 104
4, 66220, Note_on_c, 9, 36, 0
4, 66230, Note_on_c, 9, 47, 0
4, 66240, Note_on_c, 9, 36, 127
4, 66240, Note_on_c, 9, 42, 80
4, 66260, Note_on_c, 9, 42, 0
4, 66260, Note_on_c, 9, 36, 0
4, 66360, Note_on_c, 9, 42, 80
4, 66380, Note_on_c, 9, 42, 0
4, 66440, Note_on_c, 9, 36, 112
4, 66440, Note_on_c, 9, 42, 80
4, 66460, Note_on_c, 9, 42, 0
4, 66460, Note_on_c, 9, 36, 0
4, 66480, Note_on_c, 9, 51, 80
4, 66480, Note_on_c, 9, 42, 80
4, 66480, Note_on_c, 9, 38, 120
4, 66500, Note_on_c, 9, 38, 0
4, 66500, Note_on_c, 9, 42, 0
4, 66500, Note_on_c, 9, 51, 0
4, 66600, Note_on_c, 9, 42, 80
4, 66620, Note_on_c, 9, 42, 0
4, 66680, Note_on_c, 9, 36, 72
4, 66700, Note_on_c, 9, 36, 0
4, 66720, Note_on_c, 9, 36, 127
4, 66720, Note_on_c, 9, 42, 80
4, 66740, Note_on_c, 9, 42, 0
4, 66740, Note_on_c, 9, 36, 0
4, 66840, Note_on_c, 9, 42, 80
4, 66860, Note_on_c, 9, 42, 0
4, 66920, Note_on_c, 9, 36, 112
4, 66920, Note_on_c, 9, 42, 80
4, 66940, Note_on_c, 9, 42, 0
4, 66940, Note_on_c, 9, 36, 0
4, 66960, Note_on_c, 9, 51, 80
4, 66960, Note_on_c, 9, 42, 80
4, 66960, Note_on_c, 9, 38, 120
4, 66980, Note_on_c, 9, 38, 0
4, 66980, Note_on_c, 9, 42, 0
4, 66980, Note_on_c, 9, 51, 0
4, 67080, Note_on_c, 9, 42, 80
4, 67100, Note_on_c, 9, 42, 0
4, 67160, Note_on_c, 9, 36, 72
4, 67180, Note_on_c, 9, 36, 0
4, 67200, Note_on_c, 9, 36, 127
4, 67200, Note_on_c, 9, 42, 80
4, 67220, Note_on_c, 9, 42, 0
4, 67220, Note_on_c, 9, 36, 0
4, 67320, Note_on_c, 9, 42, 80
4, 67340, Note_on_c, 9, 42, 0
4, 67400, Note_on_c, 9, 36, 112
4, 67400, Note_on_c, 9, 42, 80
4, 67420, Note_on_c, 9, 42, 0
4, 67420, Note_on_c, 9, 36, 0
4, 67440, Note_on_c, 9, 51, 80
4, 67440, Note_on_c, 9, 42, 80
4, 67440, Note_on_c, 9, 38, 120
4, 67460, Note_on_c, 9, 38, 0
4, 67460, Note_on_c, 9, 42, 0
4, 67460, Note_on_c, 9, 51, 0
4, 67560, Note_on_c, 9, 42, 80
4, 67580, Note_on_c, 9, 42, 0
4, 67640, Note_on_c, 9, 36, 72
4, 67660, Note_on_c, 9, 36, 0
4, 67680, Note_on_c, 9, 36, 127
4, 67680, Note_on_c, 9, 42, 80
4, 67700, Note_on_c, 9, 42, 0
4, 67700, Note_on_c, 9, 36, 0
4, 67800, Note_on_c, 9, 42, 80
4, 67820, Note_on_c, 9, 42, 0
4, 67880, Note_on_c, 9, 36, 112
4, 67880, Note_on_c, 9, 42, 80
4, 67900, Note_on_c, 9, 42, 0
4, 67900, Note_on_c, 9, 36, 0
4, 67920, Note_on_c, 9, 51, 80
4, 67920, Note_on_c, 9, 42, 80
4, 67920, Note_on_c, 9, 38, 121
4, 67940, Note_on_c, 9, 38, 0
4, 67940, Note_on_c, 9, 42, 0
4, 67940, Note_on_c, 9, 51, 0
4, 68040, Note_on_c, 9, 42, 80
4, 68060, Note_on_c, 9, 42, 0
4, 68120, Note_on_c, 9, 36, 72
4, 68140, Note_on_c, 9, 36, 0
4, 68160, Note_on_c, 9, 36, 127
4, 68160, Note_on_c, 9, 42, 80
4, 68180, Note_on_c, 9, 42, 0
4, 68180, Note_on_c, 9, 36, 0
4, 68280, Note_on_c, 9, 42, 80
4, 68300, Note_on_c, 9, 42, 0
4, 68360, Note_on_c, 9, 36, 112
4, 68360, Note_on_c, 9, 42, 80
4, 68380, Note_on_c, 9, 42, 0
4, 68380, Note_on_c, 9, 36, 0
4, 68400, Note_on_c, 9, 51, 80
4, 68400, Note_on_c, 9, 42, 80
4, 68400, Note_on_c, 9, 38, 121
4, 68420, Note_on_c, 9, 38, 0
4, 68420, Note_on_c, 9, 42, 0
4, 68420, Note_on_c, 9, 51, 0
4, 68520, Note_on_c, 9, 42, 80
4, 68540, Note_on_c, 9, 42, 0
4, 68600, Note_on_c, 9, 36, 72
4, 68620, Note_on_c, 9, 36, 0
4, 68640, Note_on_c, 9, 36, 127
4, 68640, Note_on_c, 9, 42, 80
4, 68660, Note_on_c, 9, 42, 0
4, 68660, Note_on_c, 9, 36, 0
4, 68760, Note_on_c, 9, 42, 80
4, 68780, Note_on_c, 9, 42, 0
4, 68840, Note_on_c, 9, 36, 112
4, 68840, Note_on_c, 9, 42, 80
4, 68860, Note_on_c, 9, 42, 0
4, 68860, Note_on_c, 9, 36, 0
4, 68880, Note_on_c, 9, 51, 80
4, 68880, Note_on_c, 9, 42, 80
4, 68880, Note_on_c, 9, 38, 121
4, 68900, Note_on_c, 9, 38, 0
4, 68900, Note_on_c, 9, 42, 0
4, 68900, Note_on_c, 9, 51, 0
4, 69000, Note_on_c, 9, 42, 80
4, 69020, Note_on_c, 9, 42, 0
4, 69080, Note_on_c, 9, 36, 72
4, 69100, Note_on_c, 9, 36, 0
4, 69120, Note_on_c, 9, 36, 127
4, 69120, Note_on_c, 9, 42, 80
4, 69140, Note_on_c, 9, 42, 0
4, 69140, Note_on_c, 9, 36, 0
4, 69195, Note_on_c, 9, 36, 127
4, 69240, Note_on_c, 9, 42, 80
4, 69243, Note_on_c, 9, 36, 0
4, 69260, Note_on_c, 9, 42, 0
4, 69320, Note_on_c, 9, 36, 112
4, 69320, Note_on_c, 9, 42, 80
4, 69340, Note_on_c, 9, 42, 0
4, 69340, Note_on_c, 9, 36, 0
4, 69360, Note_on_c, 9, 51, 80
4, 69360, Note_on_c, 9, 42, 80
4, 69360, Note_on_c, 9, 38, 115
4, 69380, Note_on_c, 9, 38, 0
4, 69380, Note_on_c, 9, 42, 0
4, 69380, Note_on_c, 9, 51, 0
4, 69480, Note_on_c, 9, 42, 80
4, 69500, Note_on_c, 9, 42, 0
4, 69560, Note_on_c, 9, 36, 72
4, 69580, Note_on_c, 9, 36, 0
4, 69600, Note_on_c, 9, 36, 127
4, 69600, Note_on_c, 9, 42, 80
4, 69620, Note_on_c, 9, 42, 0
4, 69620, Note_on_c, 9, 36, 0
4, 69720, Note_on_c, 9, 42, 80
4, 69740, Note_on_c, 9, 42, 0
4, 69800, Note_on_c, 9, 36, 112
4, 69800, Note_on_c, 9, 42, 80
4, 69820, Note_on_c, 9, 42, 0
4, 69820, Note_on_c, 9, 36, 0
4, 69840, Note_on_c, 9, 51, 80
4, 69840, Note_on_c, 9, 42, 80
4, 69840, Note_on_c, 9, 38, 106
4, 69860, Note_on_c, 9, 38, 0
4, 69860, Note_on_c, 9, 42, 0
4, 69860, Note_on_c, 9, 51, 0
4, 69960, Note_on_c, 9, 42, 80
4, 69980, Note_on_c, 9, 42, 0
4, 70040, Note_on_c, 9, 36, 72
4, 70060, Note_on_c, 9, 36, 0
4, 70080, Note_on_c, 9, 36, 127
4, 70080, Note_on_c, 9, 42, 80
4, 70100, Note_on_c, 9, 42, 0
4, 70100, Note_on_c, 9, 36, 0
4, 70200, Note_on_c, 9, 42, 80
4, 70220, Note_on_c, 9, 42, 0
4, 70280, Note_on_c, 9, 36, 112
4, 70280, Note_on_c, 9, 42, 80
4, 70300, Note_on_c, 9, 42, 0
4, 70300, Note_on_c, 9, 36, 0
4, 70320, Note_on_c, 9, 51, 80
4, 70320, Note_on_c, 9, 42, 80
4, 70320, Note_on_c, 9, 38, 106
4, 70340, Note_on_c, 9, 38, 0
4, 70340, Note_on_c, 9, 42, 0
4, 70340, Note_on_c, 9, 51, 0
4, 70440, Note_on_c, 9, 42, 80
4, 70460, Note_on_c, 9, 42, 0
4, 70520, Note_on_c, 9, 36, 72
4, 70540, Note_on_c, 9, 36, 0
4, 70560, Note_on_c, 9, 36, 127
4, 70560, Note_on_c, 9, 42, 80
4, 70580, Note_on_c, 9, 42, 0
4, 70580, Note_on_c, 9, 36, 0
4, 70680, Note_on_c, 9, 42, 80
4, 70700, Note_on_c, 9, 42, 0
4, 70760, Note_on_c, 9, 36, 112
4, 70760, Note_on_c, 9, 42, 80
4, 70780, Note_on_c, 9, 42, 0
4, 70780, Note_on_c, 9, 36, 0
4, 70800, Note_on_c, 9, 51, 80
4, 70800, Note_on_c, 9, 42, 80
4, 70800, Note_on_c, 9, 38, 107
4, 70820, Note_on_c, 9, 38, 0
4, 70820, Note_on_c, 9, 42, 0
4, 70820, Note_on_c, 9, 51, 0
4, 70920, Note_on_c, 9, 42, 80
4, 70940, Note_on_c, 9, 42, 0
4, 70976, Note_on_c, 9, 43, 77
4, 70997, Note_on_c, 9, 43, 0
4, 71000, Note_on_c, 9, 36, 72
4, 71011, Note_on_c, 9, 43, 81
4, 71020, Note_on_c, 9, 36, 0
4, 71037, Note_on_c, 9, 43, 0
4, 71040, Note_on_c, 9, 49, 79
4, 71040, Note_on_c, 9, 36, 127
4, 71040, Note_on_c, 9, 42, 80
4, 71060, Note_on_c, 9, 42, 0
4, 71060, Note_on_c, 9, 36, 0
4, 71088, Note_on_c, 9, 49, 0
4, 71160, Note_on_c, 9, 42, 80
4, 71180, Note_on_c, 9, 42, 0
4, 71240, Note_on_c, 9, 36, 112
4, 71240, Note_on_c, 9, 42, 80
4, 71260, Note_on_c, 9, 42, 0
4, 71260, Note_on_c, 9, 36, 0
4, 71280, Note_on_c, 9, 51, 80
4, 71280, Note_on_c, 9, 42, 80
4, 71280, Note_on_c, 9, 38, 127
4, 71300, Note_on_c, 9, 38, 0
4, 71300, Note_on_c, 9, 42, 0
4, 71300, Note_on_c, 9, 51, 0
4, 71400, Note_on_c, 9, 42, 80
4, 71420, Note_on_c, 9, 42, 0
4, 71480, Note_on_c, 9, 36, 72
4, 71500, Note_on_c, 9, 36, 0
4, 71520, Note_on_c, 9, 36, 127
4, 71520, Note_on_c, 9, 42, 80
4, 71540, Note_on_c, 9, 42, 0
4, 71540, Note_on_c, 9, 36, 0
4, 71640, Note_on_c, 9, 42, 80
4, 71660, Note_on_c, 9, 42, 0
4, 71720, Note_on_c, 9, 36, 112
4, 71720, Note_on_c, 9, 42, 80
4, 71740, Note_on_c, 9, 42, 0
4, 71740, Note_on_c, 9, 36, 0
4, 71760, Note_on_c, 9, 51, 80
4, 71760, Note_on_c, 9, 42, 80
4, 71760, Note_on_c, 9, 38, 127
4, 71780, Note_on_c, 9, 38, 0
4, 71780, Note_on_c, 9, 42, 0
4, 71780, Note_on_c, 9, 51, 0
4, 71880, Note_on_c, 9, 42, 80
4, 71900, Note_on_c, 9, 42, 0
4, 71960, Note_on_c, 9, 36, 72
4, 71980, Note_on_c, 9, 36, 0
4, 72000, Note_on_c, 9, 36, 127
4, 72000, Note_on_c, 9, 42, 80
4, 72020, Note_on_c, 9, 42, 0
4, 72020, Note_on_c, 9, 36, 0
4, 72120, Note_on_c, 9, 42, 80
4, 72140, Note_on_c, 9, 42, 0
4, 72200, Note_on_c, 9, 36, 112
4, 72200, Note_on_c, 9, 42, 80
4, 72220, Note_on_c, 9, 42, 0
4, 72220, Note_on_c, 9, 36, 0
4, 72240, Note_on_c, 9, 51, 80
4, 72240, Note_on_c, 9, 42, 80
4, 72240, Note_on_c, 9, 38, 127
4, 72260, Note_on_c, 9, 38, 0
4, 72260, Note_on_c, 9, 42, 0
4, 72260, Note_on_c, 9, 51, 0
4, 72360, Note_on_c, 9, 42, 80
4, 72380, Note_on_c, 9, 42, 0
4, 72440, Note_on_c, 9, 36, 72
4, 72460, Note_on_c, 9, 36, 0
4, 72480, Note_on_c, 9, 36, 127
4, 72480, Note_on_c, 9, 42, 80
4, 72500, Note_on_c, 9, 42, 0
4, 72500, Note_on_c, 9, 36, 0
4, 72600, Note_on_c, 9, 42, 80
4, 72620, Note_on_c, 9, 42, 0
4, 72680, Note_on_c, 9, 36, 112
4, 72680, Note_on_c, 9, 42, 80
4, 72700, Note_on_c, 9, 42, 0
4, 72700, Note_on_c, 9, 36, 0
4, 72720, Note_on_c, 9, 51, 80
4, 72720, Note_on_c, 9, 42, 80
4, 72720, Note_on_c, 9, 38, 127
4, 72740, Note_on_c, 9, 38, 0
4, 72740, Note_on_c, 9, 42, 0
4, 72740, Note_on_c, 9, 51, 0
4, 72840, Note_on_c, 9, 42, 80
4, 72860, Note_on_c, 9, 42, 0
4, 72920, Note_on_c, 9, 36, 72
4, 72940, Note_on_c, 9, 36, 0
4, 72960, Note_on_c, 9, 36, 127
4, 72960, Note_on_c, 9, 42, 80
4, 72980, Note_on_c, 9, 42, 0
4, 72980, Note_on_c, 9, 36, 0
4, 73035, Note_on_c, 9, 36, 127
4, 73080, Note_on_c, 9, 42, 80
4, 73083, Note_on_c, 9, 36, 0
4, 73100, Note_on_c, 9, 42, 0
4, 73160, Note_on_c, 9, 36, 112
4, 73160, Note_on_c, 9, 42, 80
4, 73180, Note_on_c, 9, 42, 0
4, 73180, Note_on_c, 9, 36, 0
4, 73200, Note_on_c, 9, 51, 80
4, 73200, Note_on_c, 9, 42, 80
4, 73200, Note_on_c, 9, 38, 119
4, 73220, Note_on_c, 9, 38, 0
4, 73220, Note_on_c, 9, 42, 0
4, 73220, Note_on_c, 9, 51, 0
4, 73320, Note_on_c, 9, 42, 80
4, 73340, Note_on_c, 9, 42, 0
4, 73400, Note_on_c, 9, 36, 72
4, 73420, Note_on_c, 9, 36, 0
4, 73440, Note_on_c, 9, 36, 127
4, 73440, Note_on_c, 9, 42, 80
4, 73460, Note_on_c, 9, 42, 0
4, 73460, Note_on_c, 9, 36, 0
4, 73560, Note_on_c, 9, 42, 80
4, 73580, Note_on_c, 9, 42, 0
4, 73640, Note_on_c, 9, 36, 112
4, 73640, Note_on_c, 9, 42, 80
4, 73660, Note_on_c, 9, 42, 0
4, 73660, Note_on_c, 9, 36, 0
4, 73680, Note_on_c, 9, 51, 80
4, 73680, Note_on_c, 9, 42, 80
4, 73680, Note_on_c, 9, 38, 119
4, 73700, Note_on_c, 9, 38, 0
4, 73700, Note_on_c, 9, 42, 0
4, 73700, Note_on_c, 9, 51, 0
4, 73800, Note_on_c, 9, 42, 80
4, 73820, Note_on_c, 9, 42, 0
4, 73880, Note_on_c, 9, 36, 72
4, 73900, Note_on_c, 9, 36, 0
4, 73920, Note_on_c, 9, 36, 127
4, 73920, Note_on_c, 9, 42, 80
4, 73940, Note_on_c, 9, 42, 0
4, 73940, Note_on_c, 9, 36, 0
4, 74040, Note_on_c, 9, 42, 80
4, 74060, Note_on_c, 9, 42, 0
4, 74120, Note_on_c, 9, 36, 112
4, 74120, Note_on_c, 9, 42, 80
4, 74140, Note_on_c, 9, 42, 0
4, 74140, Note_on_c, 9, 36, 0
4, 74160, Note_on_c, 9, 51, 80
4, 74160, Note_on_c, 9, 42, 80
4, 74160, Note_on_c, 9, 38, 119
4, 74180, Note_on_c, 9, 38, 0
4, 74180, Note_on_c, 9, 42, 0
4, 74180, Note_on_c, 9, 51, 0
4, 74280, Note_on_c, 9, 42, 80
4, 74300, Note_on_c, 9, 42, 0
4, 74360, Note_on_c, 9, 36, 72
4, 74380, Note_on_c, 9, 36, 0
4, 74400, Note_on_c, 9, 36, 127
4, 74400, Note_on_c, 9, 42, 80
4, 74420, Note_on_c, 9, 42, 0
4, 74420, Note_on_c, 9, 36, 0
4, 74520, Note_on_c, 9, 42, 80
4, 74540, Note_on_c, 9, 42, 0
4, 74600, Note_on_c, 9, 36, 112
4, 74600, Note_on_c, 9, 42, 80
4, 74620, Note_on_c, 9, 42, 0
4, 74620, Note_on_c, 9, 36, 0
4, 74640, Note_on_c, 9, 51, 80
4, 74640, Note_on_c, 9, 42, 80
4, 74640, Note_on_c, 9, 38, 119
4, 74660, Note_on_c, 9, 38, 0
4, 74660, Note_on_c, 9, 42, 0
4, 74660, Note_on_c, 9, 51, 0
4, 74760, Note_on_c, 9, 42, 80
4, 74780, Note_on_c, 9, 42, 0
4, 74816, Note_on_c, 9, 43, 77
4, 74837, Note_on_c, 9, 43, 0
4, 74840, Note_on_c, 9, 36, 72
4, 74851, Note_on_c, 9, 43, 81
4, 74860, Note_on_c, 9, 36, 0
4, 74877, Note_on_c, 9, 43, 0
4, 74880, Note_on_c, 9, 49, 79
4, 74880, Note_on_c, 9, 36, 127
4, 74880, Note_on_c, 9, 42, 80
4, 74900, Note_on_c, 9, 42, 0
4, 74900, Note_on_c, 9, 36, 0
4, 74928, Note_on_c, 9, 49, 0
4, 75000, Note_on_c, 9, 42, 80
4, 75020, Note_on_c, 9, 42, 0
4, 75080, Note_on_c, 9, 36, 112
4, 75080, Note_on_c, 9, 42, 80
4, 75100, Note_on_c, 9, 42, 0
4, 75100, Note_on_c, 9, 36, 0
4, 75120, Note_on_c, 9, 51, 80
4, 75120, Note_on_c, 9, 42, 80
4, 75120, Note_on_c, 9, 38, 119
4, 75140, Note_on_c, 9, 38, 0
4, 75140, Note_on_c, 9, 42, 0
4, 75140, Note_on_c, 9, 51, 0
4, 75240, Note_on_c, 9, 42, 80
4, 75260, Note_on_c, 9, 42, 0
4, 75320, Note_on_c, 9, 36, 72
4, 75340, Note_on_c, 9, 36, 0
4, 75360, Note_on_c, 9, 36, 127
4, 75360, Note_on_c, 9, 42, 80
4, 75380, Note_on_c, 9, 42, 0
4, 75380, Note_on_c, 9, 36, 0
4, 75480, Note_on_c, 9, 42, 80
4, 75500, Note_on_c, 9, 42, 0
4, 75560, Note_on_c, 9, 36, 112
4, 75560, Note_on_c, 9, 42, 80
4, 75580, Note_on_c, 9, 42, 0
4, 75580, Note_on_c, 9, 36, 0
4, 75600, Note_on_c, 9, 51, 80
4, 75600, Note_on_c, 9, 42, 80
4, 75600, Note_on_c, 9, 38, 118
4, 75620, Note_on_c, 9, 38, 0
4, 75620, Note_on_c, 9, 42, 0
4, 75620, Note_on_c, 9, 51, 0
4, 75720, Note_on_c, 9, 42, 80
4, 75740, Note_on_c, 9, 42, 0
4, 75800, Note_on_c, 9, 36, 72
4, 75820, Note_on_c, 9, 36, 0
4, 75840, Note_on_c, 9, 36, 127
4, 75840, Note_on_c, 9, 42, 80
4, 75860, Note_on_c, 9, 42, 0
4, 75860, Note_on_c, 9, 36, 0
4, 75960, Note_on_c, 9, 42, 80
4, 75980, Note_on_c, 9, 42, 0
4, 76040, Note_on_c, 9, 36, 112
4, 76040, Note_on_c, 9, 42, 80
4, 76060, Note_on_c, 9, 42, 0
4, 76060, Note_on_c, 9, 36, 0
4, 76080, Note_on_c, 9, 51, 80
4, 76080, Note_on_c, 9, 42, 80
4, 76080, Note_on_c, 9, 38, 118
4, 76100, Note_on_c, 9, 38, 0
4, 76100, Note_on_c, 9, 42, 0
4, 76100, Note_on_c, 9, 51, 0
4, 76200, Note_on_c, 9, 42, 80
4, 76220, Note_on_c, 9, 42, 0
4, 76280, Note_on_c, 9, 36, 72
4, 76300, Note_on_c, 9, 36, 0
4, 76320, Note_on_c, 9, 36, 127
4, 76320, Note_on_c, 9, 42, 80
4, 76340, Note_on_c, 9, 42, 0
4, 76340, Note_on_c, 9, 36, 0
4, 76440, Note_on_c, 9, 42, 80
4, 76460, Note_on_c, 9, 42, 0
4, 76520, Note_on_c, 9, 36, 112
4, 76520, Note_on_c, 9, 42, 80
4, 76540, Note_on_c, 9, 42, 0
4, 76540, Note_on_c, 9, 36, 0
4, 76560, Note_on_c, 9, 51, 80
4, 76560, Note_on_c, 9, 42, 80
4, 76560, Note_on_c, 9, 38, 118
4, 76580, Note_on_c, 9, 38, 0
4, 76580, Note_on_c, 9, 42, 0
4, 76580, Note_on_c, 9, 51, 0
4, 76680, Note_on_c, 9, 42, 80
4, 76700, Note_on_c, 9, 42, 0
4, 76760, Note_on_c, 9, 36, 72
4, 76780, Note_on_c, 9, 36, 0
4, 76800, Note_on_c, 9, 36, 127
4, 76800, Note_on_c, 9, 42, 80
4, 76820, Note_on_c, 9, 42, 0
4, 76820, Note_on_c, 9, 36, 0
4, 76875, Note_on_c, 9, 36, 127
4, 76920, Note_on_c, 9, 42, 80
4, 76923, Note_on_c, 9, 36, 0
4, 76940, Note_on_c, 9, 42, 0
4, 77000, Note_on_c, 9, 36, 112
4, 77000, Note_on_c, 9, 42, 80
4, 77020, Note_on_c, 9, 42, 0
4, 77020, Note_on_c, 9, 36, 0
4, 77040, Note_on_c, 9, 51, 80
4, 77040, Note_on_c, 9, 42, 80
4, 77040, Note_on_c, 9, 38, 118
4, 77060, Note_on_c, 9, 38, 0
4, 77060, Note_on_c, 9, 42, 0
4, 77060, Note_on_c, 9, 51, 0
4, 77160, Note_on_c, 9, 42, 80
4, 77180, Note_on_c, 9, 42, 0
4, 77240, Note_on_c, 9, 36, 72
4, 77260, Note_on_c, 9, 36, 0
4, 77280, Note_on_c, 9, 36, 127
4, 77280, Note_on_c, 9, 42, 80
4, 77300, Note_on_c, 9, 42, 0
4, 77300, Note_on_c, 9, 36, 0
4, 77400, Note_on_c, 9, 42, 80
4, 77420, Note_on_c, 9, 42, 0
4, 77480, Note_on_c, 9, 36, 112
4, 77480, Note_on_c, 9, 42, 80
4, 77500, Note_on_c, 9, 42, 0
4, 77500, Note_on_c, 9, 36, 0
4, 77520, Note_on_c, 9, 51, 80
4, 77520, Note_on_c, 9, 42, 80
4, 77520, Note_on_c, 9, 38, 119
4, 77540, Note_on_c, 9, 38, 0
4, 77540, Note_on_c, 9, 42, 0
4, 77540, Note_on_c, 9, 51, 0
4, 77640, Note_on_c, 9, 42, 80
4, 77660, Note_on_c, 9, 42, 0
4, 77720, Note_on_c, 9, 36, 72
4, 77740, Note_on_c, 9, 36, 0
4, 77760, Note_on_c, 9, 36, 127
4, 77760, Note_on_c, 9, 42, 80
4, 77780, Note_on_c, 9, 42, 0
4, 77780, Note_on_c, 9, 36, 0
4, 77880, Note_on_c, 9, 42, 80
4, 77900, Note_on_c, 9, 42, 0
4, 77960, Note_on_c, 9, 36, 112
4, 77960, Note_on_c, 9, 42, 80
4, 77980, Note_on_c, 9, 42, 0
4, 77980, Note_on_c, 9, 36, 0
4, 78000, Note_on_c, 9, 51, 80
4, 78000, Note_on_c, 9, 42, 80
4, 78000, Note_on_c, 9, 38, 119
4, 78020, Note_on_c, 9, 38, 0
4, 78020, Note_on_c, 9, 42, 0
4, 78020, Note_on_c, 9, 51, 0
4, 78120, Note_on_c, 9, 42, 80
4, 78140, Note_on_c, 9, 42, 0
4, 78200, Note_on_c, 9, 36, 72
4, 78220, Note_on_c, 9, 36, 0
4, 78240, Note_on_c, 9, 36, 127
4, 78240, Note_on_c, 9, 42, 80
4, 78260, Note_on_c, 9, 42, 0
4, 78260, Note_on_c, 9, 36, 0
4, 78360, Note_on_c, 9, 42, 80
4, 78380, Note_on_c, 9, 42, 0
4, 78440, Note_on_c, 9, 36, 112
4, 78440, Note_on_c, 9, 42, 80
4, 78460, Note_on_c, 9, 42, 0
4, 78460, Note_on_c, 9, 36, 0
4, 78480, Note_on_c, 9, 51, 80
4, 78480, Note_on_c, 9, 42, 80
4, 78480, Note_on_c, 9, 38, 119
4, 78500, Note_on_c, 9, 38, 0
4, 78500, Note_on_c, 9, 42, 0
4, 78500, Note_on_c, 9, 51, 0
4, 78600, Note_on_c, 9, 42, 80
4, 78620, Note_on_c, 9, 42, 0
4, 78656, Note_on_c, 9, 43, 77
4, 78677, Note_on_c, 9, 43, 0
4, 78680, Note_on_c, 9, 36, 72
4, 78691, Note_on_c, 9, 43, 81
4, 78700, Note_on_c, 9, 36, 0
4, 78717, Note_on_c, 9, 43, 0
4, 78720, Note_on_c, 9, 49, 79
4, 78720, Note_on_c, 9, 36, 127
4, 78720, Note_on_c, 9, 42, 80
4, 78740, Note_on_c, 9, 42, 0
4, 78740, Note_on_c, 9, 36, 0
4, 78768, Note_on_c, 9, 49, 0
4, 78840, Note_on_c, 9, 42, 80
4, 78860, Note_on_c, 9, 42, 0
4, 78920, Note_on_c, 9, 36, 112
4, 78920, Note_on_c, 9, 42, 80
4, 78940, Note_on_c, 9, 42, 0
4, 78940, Note_on_c, 9, 36, 0
4, 78960, Note_on_c, 9, 51, 80
4, 78960, Note_on_c, 9, 42, 80
4, 78960, Note_on_c, 9, 38, 119
4, 78980, Note_on_c, 9, 38, 0
4, 78980, Note_on_c, 9, 42, 0
4, 78980, Note_on_c, 9, 51, 0
4, 79080, Note_on_c, 9, 42, 80
4, 79100, Note_on_c, 9, 42, 0
4, 79160, Note_on_c, 9, 36, 72
4, 79180, Note_on_c, 9, 36, 0
4, 79200, Note_on_c, 9, 36, 127
4, 79200, Note_on_c, 9, 42, 80
4, 79220, Note_on_c, 9, 42, 0
4, 79220, Note_on_c, 9, 36, 0
4, 79320, Note_on_c, 9, 42, 80
4, 79340, Note_on_c, 9, 42, 0
4, 79400, Note_on_c, 9, 36, 112
4, 79400, Note_on_c, 9, 42, 80
4, 79420, Note_on_c, 9, 42, 0
4, 79420, Note_on_c, 9, 36, 0
4, 79440, Note_on_c, 9, 51, 80
4, 79440, Note_on_c, 9, 42, 80
4, 79440, Note_on_c, 9, 38, 119
4, 79460, Note_on_c, 9, 38, 0
4, 79460, Note_on_c, 9, 42, 0
4, 79460, Note_on_c, 9, 51, 0
4, 79560, Note_on_c, 9, 42, 80
4, 79580, Note_on_c, 9, 42, 0
4, 79640, Note_on_c, 9, 36, 72
4, 79660, Note_on_c, 9, 36, 0
4, 79680, Note_on_c, 9, 36, 127
4, 79680, Note_on_c, 9, 42, 80
4, 79700, Note_on_c, 9, 42, 0
4, 79700, Note_on_c, 9, 36, 0
4, 79800, Note_on_c, 9, 42, 80
4, 79820, Note_on_c, 9, 42, 0
4, 79880, Note_on_c, 9, 36, 112
4, 79880, Note_on_c, 9, 42, 80
4, 79900, Note_on_c, 9, 42, 0
4, 79900, Note_on_c, 9, 36, 0
4, 79920, Note_on_c, 9, 51, 80
4, 79920, Note_on_c, 9, 42, 80
4, 79920, Note_on_c, 9, 38, 119
4, 79940, Note_on_c, 9, 38, 0
4, 79940, Note_on_c, 9, 42, 0
4, 79940, Note_on_c, 9, 51, 0
4, 80040, Note_on_c, 9, 42, 80
4, 80060, Note_on_c, 9, 42, 0
4, 80120, Note_on_c, 9, 36, 72
4, 80140, Note_on_c, 9, 36, 0
4, 80160, Note_on_c, 9, 36, 127
4, 80160, Note_on_c, 9, 42, 80
4, 80180, Note_on_c, 9, 42, 0
4, 80180, Note_on_c, 9, 36, 0
4, 80280, Note_on_c, 9, 42, 80
4, 80300, Note_on_c, 9, 42, 0
4, 80360, Note_on_c, 9, 36, 112
4, 80360, Note_on_c, 9, 42, 80
4, 80380, Note_on_c, 9, 42, 0
4, 80380, Note_on_c, 9, 36, 0
4, 80400, Note_on_c, 9, 51, 80
4, 80400, Note_on_c, 9, 42, 80
4, 80400, Note_on_c, 9, 38, 119
4, 80420, Note_on_c, 9, 38, 0
4, 80420, Note_on_c, 9, 42, 0
4, 80420, Note_on_c, 9, 51, 0
4, 80520, Note_on_c, 9, 42, 80
4, 80540, Note_on_c, 9, 42, 0
4, 80600, Note_on_c, 9, 36, 72
4, 80620, Note_on_c, 9, 36, 0
4, 80640, Note_on_c, 9, 36, 127
4, 80640, Note_on_c, 9, 42, 80
4, 80660, Note_on_c, 9, 42, 0
4, 80660, Note_on_c, 9, 36, 0
4, 80715, Note_on_c, 9, 36, 127
4, 80760, Note_on_c, 9, 42, 80
4, 80763, Note_on_c, 9, 36, 0
4, 80780, Note_on_c, 9, 42, 0
4, 80840, Note_on_c, 9, 36, 112
4, 80840, Note_on_c, 9, 42, 80
4, 80860, Note_on_c, 9, 42, 0
4, 80860, Note_on_c, 9, 36, 0
4, 80880, Note_on_c, 9, 51, 80
4, 80880, Note_on_c, 9, 42, 80
4, 80880, Note_on_c, 9, 38, 119
4, 80900, Note_on_c, 9, 38, 0
4, 80900, Note_on_c, 9, 42, 0
4, 80900, Note_on_c, 9, 51, 0
4, 81000, Note_on_c, 9, 42, 80
4, 81020, Note_on_c, 9, 42, 0
4, 81080, Note_on_c, 9, 36, 72
4, 81100, Note_on_c, 9, 36, 0
4, 81120, Note_on_c, 9, 36, 127
4, 81120, Note_on_c, 9, 42, 80
4, 81140, Note_on_c, 9, 42, 0
4, 81140, Note_on_c, 9, 36, 0
4, 81240, Note_on_c, 9, 42, 80
4, 81260, Note_on_c, 9, 42, 0
4, 81320, Note_on_c, 9, 36, 112
4, 81320, Note_on_c, 9, 42, 80
4, 81340, Note_on_c, 9, 42, 0
4, 81340, Note_on_c, 9, 36, 0
4, 81360, Note_on_c, 9, 51, 80
4, 81360, Note_on_c, 9, 42, 80
4, 81360, Note_on_c, 9, 38, 119
4, 81380, Note_on_c, 9, 38, 0
4, 81380, Note_on_c, 9, 42, 0
4, 81380, Note_on_c, 9, 51, 0
4, 81480, Note_on_c, 9, 42, 80
4, 81500, Note_on_c, 9, 42, 0
4, 81560, Note_on_c, 9, 36, 72
4, 81580, Note_on_c, 9, 36, 0
4, 81600, Note_on_c, 9, 36, 127
4, 81600, Note_on_c, 9, 42, 80
4, 81620, Note_on_c, 9, 42, 0
4, 81620, Note_on_c, 9, 36, 0
4, 81720, Note_on_c, 9, 42, 80
4, 81740, Note_on_c, 9, 42, 0
4, 81800, Note_on_c, 9, 36, 112
4, 81800, Note_on_c, 9, 42, 80
4, 81820, Note_on_c, 9, 42, 0
4, 81820, Note_on_c, 9, 36, 0
4, 81840, Note_on_c, 9, 51, 80
4, 81840, Note_on_c, 9, 42, 80
4, 81840, Note_on_c, 9, 38, 119
4, 81860, Note_on_c, 9, 38, 0
4, 81860, Note_on_c, 9, 42, 0
4, 81860, Note_on_c, 9, 51, 0
4, 81960, Note_on_c, 9, 42, 80
4, 81980, Note_on_c, 9, 42, 0
4, 82040, Note_on_c, 9, 36, 72
4, 82060, Note_on_c, 9, 36, 0
4, 82080, Note_on_c, 9, 36, 127
4, 82080, Note_on_c, 9, 42, 80
4, 82100, Note_on_c, 9, 42, 0
4, 82100, Note_on_c, 9, 36, 0
4, 82200, Note_on_c, 9, 42, 80
4, 82220, Note_on_c, 9, 42, 0
4, 82280, Note_on_c, 9, 36, 112
4, 82280, Note_on_c, 9, 42, 80
4, 82300, Note_on_c, 9, 42, 0
4, 82300, Note_on_c, 9, 36, 0
4, 82320, Note_on_c, 9, 51, 80
4, 82320, Note_on_c, 9, 42, 80
4, 82320, Note_on_c, 9, 38, 123
4, 82340, Note_on_c, 9, 38, 0
4, 82340, Note_on_c, 9, 42, 0
4, 82340, Note_on_c, 9, 51, 0
4, 82440, Note_on_c, 9, 42, 80
4, 82460, Note_on_c, 9, 42, 0
4, 82496, Note_on_c, 9, 43, 77
4, 82517, Note_on_c, 9, 43, 0
4, 82520, Note_on_c, 9, 36, 72
4, 82531, Note_on_c, 9, 43, 81
4, 82540, Note_on_c, 9, 36, 0
4, 82557, Note_on_c, 9, 43, 0
4, 82560, Note_on_c, 9, 49, 79
4, 82560, Note_on_c, 9, 36, 127
4, 82560, Note_on_c, 9, 42, 80
4, 82580, Note_on_c, 9, 42, 0
4, 82580, Note_on_c, 9, 36, 0
4, 82608, Note_on_c, 9, 49, 0
4, 82680, Note_on_c, 9, 42, 80
4, 82700, Note_on_c, 9, 42, 0
4, 82760, Note_on_c, 9, 36, 112
4, 82760, Note_on_c, 9, 42, 80
4, 82780, Note_on_c, 9, 42, 0
4, 82780, Note_on_c, 9, 36, 0
4, 82800, Note_on_c, 9, 51, 80
4, 82800, Note_on_c, 9, 42, 80
4, 82800, Note_on_c, 9, 38, 123
4, 82820, Note_on_c, 9, 38, 0
4, 82820, Note_on_c, 9, 42, 0
4, 82820, Note_on_c, 9, 51, 0
4, 82920, Note_on_c, 9, 42, 80
4, 82940, Note_on_c, 9, 42, 0
4, 83000, Note_on_c, 9, 36, 72
4, 83020, Note_on_c, 9, 36, 0
4, 83040, Note_on_c, 9, 36, 127
4, 83040, Note_on_c, 9, 42, 80
4, 83060, Note_on_c, 9, 42, 0
4, 83060, Note_on_c, 9, 36, 0
4, 83160, Note_on_c, 9, 42, 80
4, 83180, Note_on_c, 9, 42, 0
4, 83240, Note_on_c, 9, 36, 112
4, 83240, Note_on_c, 9, 42, 80
4, 83260, Note_on_c, 9, 42, 0
4, 83260, Note_on_c, 9, 36, 0
4, 83280, Note_on_c, 9, 51, 80
4, 83280, Note_on_c, 9, 42, 80
4, 83280, Note_on_c, 9, 38, 123
4, 83300, Note_on_c, 9, 38, 0
4, 83300, Note_on_c, 9, 42, 0
4, 83300, Note_on_c, 9, 51, 0
4, 83400, Note_on_c, 9, 42, 80
4, 83420, Note_on_c, 9, 42, 0
4, 83480, Note_on_c, 9, 36, 72
4, 83500, Note_on_c, 9, 36, 0
4, 83520, Note_on_c, 9, 36, 127
4, 83520, Note_on_c, 9, 42, 80
4, 83540, Note_on_c, 9, 42, 0
4, 83540, Note_on_c, 9, 36, 0
4, 83640, Note_on_c, 9, 42, 80
4, 83660, Note_on_c, 9, 42, 0
4, 83720, Note_on_c, 9, 36, 112
4, 83720, Note_on_c, 9, 42, 80
4, 83740, Note_on_c, 9, 42, 0
4, 83740, Note_on_c, 9, 36, 0
4, 83760, Note_on_c, 9, 51, 80
4, 83760, Note_on_c, 9, 42, 80
4, 83760, Note_on_c, 9, 38, 125
4, 83780, Note_on_c, 9, 38, 0
4, 83780, Note_on_c, 9, 42, 0
4, 83780, Note_on_c, 9, 51, 0
4, 83880, Note_on_c, 9, 42, 80
4, 83900, Note_on_c, 9, 42, 0
4, 83960, Note_on_c, 9, 36, 72
4, 83980, Note_on_c, 9, 36, 0
4, 84000, Note_on_c, 9, 36, 127
4, 84000, Note_on_c, 9, 42, 80
4, 84020, Note_on_c, 9, 42, 0
4, 84020, Note_on_c, 9, 36, 0
4, 84120, Note_on_c, 9, 42, 80
4, 84140, Note_on_c, 9, 42, 0
4, 84200, Note_on_c, 9, 36, 112
4, 84200, Note_on_c, 9, 42, 80
4, 84220, Note_on_c, 9, 42, 0
4, 84220, Note_on_c, 9, 36, 0
4, 84240, Note_on_c, 9, 51, 80
4, 84240, Note_on_c, 9, 42, 80
4, 84240, Note_on_c, 9, 38, 126
4, 84260, Note_on_c, 9, 38, 0
4, 84260, Note_on_c, 9, 42, 0
4, 84260, Note_on_c, 9, 51, 0
4, 84360, Note_on_c, 9, 42, 80
4, 84380, Note_on_c, 9, 42, 0
4, 84440, Note_on_c, 9, 36, 72
4, 84460, Note_on_c, 9, 36, 0
4, 84480, Note_on_c, 9, 36, 127
4, 84480, Note_on_c, 9, 42, 80
4, 84500, Note_on_c, 9, 42, 0
4, 84500, Note_on_c, 9, 36, 0
4, 84555, Note_on_c, 9, 36, 127
4, 84600, Note_on_c, 9, 42, 80
4, 84603, Note_on_c, 9, 36, 0
4, 84620, Note_on_c, 9, 42, 0
4, 84680, Note_on_c, 9, 36, 112
4, 84680, Note_on_c, 9, 42, 80
4, 84700, Note_on_c, 9, 42, 0
4, 84700, Note_on_c, 9, 36, 0
4, 84720, Note_on_c, 9, 51, 80
4, 84720, Note_on_c, 9, 42, 80
4, 84720, Note_on_c, 9, 38, 127
4, 84740, Note_on_c, 9, 38, 0
4, 84740, Note_on_c, 9, 42, 0
4, 84740, Note_on_c, 9, 51, 0
4, 84840, Note_on_c, 9, 42, 80
4, 84860, Note_on_c, 9, 42, 0
4, 84920, Note_on_c, 9, 36, 72
4, 84940, Note_on_c, 9, 36, 0
4, 84960, Note_on_c, 9, 36, 127
4, 84960, Note_on_c, 9, 42, 80
4, 84980, Note_on_c, 9, 42, 0
4, 84980, Note_on_c, 9, 36, 0
4, 85080, Note_on_c, 9, 42, 80
4, 85100, Note_on_c, 9, 42, 0
4, 85160, Note_on_c, 9, 36, 112
4, 85160, Note_on_c, 9, 42, 80
4, 85180, Note_on_c, 9, 42, 0
4, 85180, Note_on_c, 9, 36, 0
4, 85200, Note_on_c, 9, 51, 80
4, 85200, Note_on_c, 9, 42, 80
4, 85200, Note_on_c, 9, 38, 127
4, 85220, Note_on_c, 9, 38, 0
4, 85220, Note_on_c, 9, 42, 0
4, 85220, Note_on_c, 9, 51, 0
4, 85320, Note_on_c, 9, 42, 80
4, 85340, Note_on_c, 9, 42, 0
4, 85400, Note_on_c, 9, 36, 72
4, 85420, Note_on_c, 9, 36, 0
4, 85440, Note_on_c, 9, 36, 127
4, 85440, Note_on_c, 9, 42, 80
4, 85460, Note_on_c, 9, 42, 0
4, 85460, Note_on_c, 9, 36, 0
4, 85560, Note_on_c, 9, 42, 80
4, 85580, Note_on_c, 9, 42, 0
4, 85640, Note_on_c, 9, 36, 112
4, 85640, Note_on_c, 9, 42, 80
4, 85660, Note_on_c, 9, 42, 0
4, 85660, Note_on_c, 9, 36, 0
4, 85680, Note_on_c, 9, 51, 80
4, 85680, Note_on_c, 9, 42, 80
4, 85680, Note_on_c, 9, 38, 127
4, 85700, Note_on_c, 9, 38, 0
4, 85700, Note_on_c, 9, 42, 0
4, 85700, Note_on_c, 9, 51, 0
4, 85800, Note_on_c, 9, 42, 80
4, 85820, Note_on_c, 9, 42, 0
4, 85880, Note_on_c, 9, 36, 72
4, 85900, Note_on_c, 9, 36, 0
4, 85920, Note_on_c, 9, 36, 127
4, 85920, Note_on_c, 9, 42, 80
4, 85940, Note_on_c, 9, 42, 0
4, 85940, Note_on_c, 9, 36, 0
4, 86040, Note_on_c, 9, 42, 80
4, 86060, Note_on_c, 9, 42, 0
4, 86120, Note_on_c, 9, 36, 112
4, 86120, Note_on_c, 9, 42, 80
4, 86140, Note_on_c, 9, 42, 0
4, 86140, Note_on_c, 9, 36, 0
4, 86160, Note_on_c, 9, 51, 80
4, 86160, Note_on_c, 9, 42, 80
4, 86160, Note_on_c, 9, 38, 127
4, 86180, Note_on_c, 9, 38, 0
4, 86180, Note_on_c, 9, 42, 0
4, 86180, Note_on_c, 9, 51, 0
4, 86280, Note_on_c, 9, 42, 80
4, 86300, Note_on_c, 9, 42, 0
4, 86336, Note_on_c, 9, 43, 77
4, 86357, Note_on_c, 9, 43, 0
4, 86360, Note_on_c, 9, 36, 72
4, 86371, Note_on_c, 9, 43, 81
4, 86380, Note_on_c, 9, 36, 0
4, 86397, Note_on_c, 9, 43, 0
4, 86400, Note_on_c, 9, 49, 79
4, 86400, Note_on_c, 9, 36, 127
4, 86400, Note_on_c, 9, 42, 80
4, 86420, Note_on_c, 9, 42, 0
4, 86420, Note_on_c, 9, 36, 0
4, 86448, Note_on_c, 9, 49, 0
4, 86520, Note_on_c, 9, 42, 80
4, 86540, Note_on_c, 9, 42, 0
4, 86600, Note_on_c, 9, 36, 112
4, 86600, Note_on_c, 9, 42, 80
4, 86620, Note_on_c, 9, 42, 0
4, 86620, Note_on_c, 9, 36, 0
4, 86640, Note_on_c, 9, 51, 80
4, 86640, Note_on_c, 9, 42, 80
4, 86640, Note_on_c, 9, 38, 127
4, 86660, Note_on_c, 9, 38, 0
4, 86660, Note_on_c, 9, 42, 0
4, 86660, Note_on_c, 9, 51, 0
4, 86760, Note_on_c, 9, 42, 80
4, 86780, Note_on_c, 9, 42, 0
4, 86840, Note_on_c, 9, 36, 72
4, 86860, Note_on_c, 9, 36, 0
4, 86880, Note_on_c, 9, 36, 127
4, 86880, Note_on_c, 9, 42, 80
4, 86900, Note_on_c, 9, 42, 0
4, 86900, Note_on_c, 9, 36, 0
4, 87000, Note_on_c, 9, 42, 80
4, 87020, Note_on_c, 9, 42, 0
4, 87080, Note_on_c, 9, 36, 112
4, 87080, Note_on_c, 9, 42, 80
4, 87100, Note_on_c, 9, 42, 0
4, 87100, Note_on_c, 9, 36, 0
4, 87120, Note_on_c, 9, 51, 80
4, 87120, Note_on_c, 9, 42, 80
4, 87120, Note_on_c, 9, 38, 123
4, 87140, Note_on_c, 9, 38, 0
4, 87140, Note_on_c, 9, 42, 0
4, 87140, Note_on_c, 9, 51, 0
4, 87240, Note_on_c, 9, 42, 80
4, 87260, Note_on_c, 9, 42, 0
4, 87320, Note_on_c, 9, 36, 72
4, 87340, Note_on_c, 9, 36, 0
4, 87360, Note_on_c, 9, 36, 127
4, 87360, Note_on_c, 9, 42, 80
4, 87380, Note_on_c, 9, 42, 0
4, 87380, Note_on_c, 9, 36, 0
4, 87480, Note_on_c, 9, 42, 80
4, 87500, Note_on_c, 9, 42, 0
4, 87560, Note_on_c, 9, 36, 112
4, 87560, Note_on_c, 9, 42, 80
4, 87580, Note_on_c, 9, 42, 0
4, 87580, Note_on_c, 9, 36, 0
4, 87600, Note_on_c, 9, 51, 80
4, 87600, Note_on_c, 9, 42, 80
4, 87600, Note_on_c, 9, 38, 127
4, 87620, Note_on_c, 9, 38, 0
4, 87620, Note_on_c, 9, 42, 0
4, 87620, Note_on_c, 9, 51, 0
4, 87720, Note_on_c, 9, 42, 80
4, 87740, Note_on_c, 9, 42, 0
4, 87800, Note_on_c, 9, 36, 72
4, 87820, Note_on_c, 9, 36, 0
4, 87840, Note_on_c, 9, 36, 127
4, 87840, Note_on_c, 9, 42, 80
4, 87860, Note_on_c, 9, 42, 0
4, 87860, Note_on_c, 9, 36, 0
4, 87960, Note_on_c, 9, 42, 80
4, 87980, Note_on_c, 9, 42, 0
4, 88040, Note_on_c, 9, 36, 112
4, 88040, Note_on_c, 9, 42, 80
4, 88060, Note_on_c, 9, 42, 0
4, 88060, Note_on_c, 9, 36, 0
4, 88080, Note_on_c, 9, 51, 80
4, 88080, Note_on_c, 9, 42, 80
4, 88080, Note_on_c, 9, 38, 127
4, 88100, Note_on_c, 9, 38, 0
4, 88100, Note_on_c, 9, 42, 0
4, 88100, Note_on_c, 9, 51, 0
4, 88200, Note_on_c, 9, 42, 80
4, 88220, Note_on_c, 9, 42, 0
4, 88280, Note_on_c, 9, 36, 72
4, 88300, Note_on_c, 9, 36, 0
4, 88320, Note_on_c, 9, 36, 127
4, 88320, Note_on_c, 9, 42, 80
4, 88340, Note_on_c, 9, 42, 0
4, 88340, Note_on_c, 9, 36, 0
4, 88395, Note_on_c, 9, 36, 127
4, 88440, Note_on_c, 9, 42, 80
4, 88443, Note_on_c, 9, 36, 0
4, 88460, Note_on_c, 9, 42, 0
4, 88520, Note_on_c, 9, 36, 112
4, 88520, Note_on_c, 9, 42, 80
4, 88540, Note_on_c, 9, 42, 0
4, 88540, Note_on_c, 9, 36, 0
4, 88560, Note_on_c, 9, 51, 80
4, 88560, Note_on_c, 9, 42, 80
4, 88560, Note_on_c, 9, 38, 127
4, 88580, Note_on_c, 9, 38, 0
4, 88580, Note_on_c, 9, 42, 0
4, 88580, Note_on_c, 9, 51, 0
4, 88680, Note_on_c, 9, 42, 80
4, 88700, Note_on_c, 9, 42, 0
4, 88760, Note_on_c, 9, 36, 72
4, 88780, Note_on_c, 9, 36, 0
4, 88800, Note_on_c, 9, 36, 127
4, 88800, Note_on_c, 9, 42, 80
4, 88820, Note_on_c, 9, 42, 0
4, 88820, Note_on_c, 9, 36, 0
4, 88920, Note_on_c, 9, 42, 80
4, 88940, Note_on_c, 9, 42, 0
4, 89000, Note_on_c, 9, 36, 112
4, 89000, Note_on_c, 9, 42, 80
4, 89020, Note_on_c, 9, 42, 0
4, 89020, Note_on_c, 9, 36, 0
4, 89040, Note_on_c, 9, 51, 80
4, 89040, Note_on_c, 9, 42, 80
4, 89040, Note_on_c, 9, 38, 127
4, 89060, Note_on_c, 9, 38, 0
4, 89060, Note_on_c, 9, 42, 0
4, 89060, Note_on_c, 9, 51, 0
4, 89160, Note_on_c, 9, 42, 80
4, 89180, Note_on_c, 9, 42, 0
4, 89240, Note_on_c, 9, 36, 72
4, 89260, Note_on_c, 9, 36, 0
4, 89280, Note_on_c, 9, 36, 127
4, 89280, Note_on_c, 9, 42, 80
4, 89300, Note_on_c, 9, 42, 0
4, 89300, Note_on_c, 9, 36, 0
4, 89400, Note_on_c, 9, 42, 80
4, 89420, Note_on_c, 9, 42, 0
4, 89480, Note_on_c, 9, 36, 112
4, 89480, Note_on_c, 9, 42, 80
4, 89500, Note_on_c, 9, 42, 0
4, 89500, Note_on_c, 9, 36, 0
4, 89520, Note_on_c, 9, 51, 80
4, 89520, Note_on_c, 9, 42, 80
4, 89520, Note_on_c, 9, 38, 127
4, 89540, Note_on_c, 9, 38, 0
4, 89540, Note_on_c, 9, 42, 0
4, 89540, Note_on_c, 9, 51, 0
4, 89640, Note_on_c, 9, 42, 80
4, 89660, Note_on_c, 9, 42, 0
4, 89720, Note_on_c, 9, 36, 72
4, 89740, Note_on_c, 9, 36, 0
4, 89760, Note_on_c, 9, 36, 127
4, 89760, Note_on_c, 9, 42, 80
4, 89780, Note_on_c, 9, 42, 0
4, 89780, Note_on_c, 9, 36, 0
4, 89880, Note_on_c, 9, 42, 80
4, 89900, Note_on_c, 9, 42, 0
4, 89960, Note_on_c, 9, 36, 112
4, 89960, Note_on_c, 9, 42, 80
4, 89980, Note_on_c, 9, 42, 0
4, 89980, Note_on_c, 9, 36, 0
4, 90000, Note_on_c, 9, 51, 80
4, 90000, Note_on_c, 9, 42, 80
4, 90000, Note_on_c, 9, 38, 127
4, 90020, Note_on_c, 9, 38, 0
4, 90020, Note_on_c, 9, 42, 0
4, 90020, Note_on_c, 9, 51, 0
4, 90120, Note_on_c, 9, 42, 80
4, 90140, Note_on_c, 9, 42, 0
4, 90176, Note_on_c, 9, 43, 77
4, 90197, Note_on_c, 9, 43, 0
4, 90200, Note_on_c, 9, 36, 72
4, 90211, Note_on_c, 9, 43, 81
4, 90220, Note_on_c, 9, 36, 0
4, 90237, Note_on_c, 9, 43, 0
4, 90240, Note_on_c, 9, 49, 79
4, 90240, Note_on_c, 9, 36, 127
4, 90240, Note_on_c, 9, 42, 80
4, 90260, Note_on_c, 9, 42, 0
4, 90260, Note_on_c, 9, 36, 0
4, 90288, Note_on_c, 9, 49, 0
4, 90360, Note_on_c, 9, 42, 80
4, 90380, Note_on_c, 9, 42, 0
4, 90440, Note_on_c, 9, 36, 112
4, 90440, Note_on_c, 9, 42, 80
4, 90460, Note_on_c, 9, 42, 0
4, 90460, Note_on_c, 9, 36, 0
4, 90480, Note_on_c, 9, 51, 80
4, 90480, Note_on_c, 9, 42, 80
4, 90480, Note_on_c, 9, 38, 127
4, 90500, Note_on_c, 9, 38, 0
4, 90500, Note_on_c, 9, 42, 0
4, 90500, Note_on_c, 9, 51, 0
4, 90600, Note_on_c, 9, 42, 80
4, 90620, Note_on_c, 9, 42, 0
4, 90680, Note_on_c, 9, 36, 72
4, 90700, Note_on_c, 9, 36, 0
4, 90720, Note_on_c, 9, 36, 127
4, 90720, Note_on_c, 9, 42, 80
4, 90740, Note_on_c, 9, 42, 0
4, 90740, Note_on_c, 9, 36, 0
4, 90840, Note_on_c, 9, 42, 80
4, 90860, Note_on_c, 9, 42, 0
4, 90920, Note_on_c, 9, 36, 74
4, 90920, Note_on_c, 9, 42, 74
4, 90940, Note_on_c, 9, 42, 0
4, 90940, Note_on_c, 9, 36, 0
4, 90960, Note_on_c, 9, 51, 73
4, 90960, Note_on_c, 9, 42, 73
4, 90960, Note_on_c, 9, 38, 73
4, 90980, Note_on_c, 9, 38, 0
4, 90980, Note_on_c, 9, 42, 0
4, 90980, Note_on_c, 9, 51, 0
4, 91080, Note_on_c, 9, 42, 68
4, 91100, Note_on_c, 9, 42, 0
4, 91160, Note_on_c, 9, 36, 67
4, 91180, Note_on_c, 9, 36, 0
4, 91200, Note_on_c, 9, 36, 67
4, 91200, Note_on_c, 9, 42, 67
4, 91220, Note_on_c, 9, 42, 0
4, 91220, Note_on_c, 9, 36, 0
4, 91320, Note_on_c, 9, 42, 66
4, 91340, Note_on_c, 9, 42, 0
4, 91400, Note_on_c, 9, 36, 66
4, 91400, Note_on_c, 9, 42, 66
4, 91420, Note_on_c, 9, 42, 0
4, 91420, Note_on_c, 9, 36, 0
4, 91440, Note_on_c, 9, 51, 65
4, 91440, Note_on_c, 9, 42, 65
4, 91440, Note_on_c, 9, 38, 65
4, 91460, Note_on_c, 9, 38, 0
4, 91460, Note_on_c, 9, 42, 0
4, 91460, Note_on_c, 9, 51, 0
4, 91560, Note_on_c, 9, 42, 60
4, 91580, Note_on_c, 9, 42, 0
4, 91640, Note_on_c, 9, 36, 57
4, 91660, Note_on_c, 9, 36, 0
4, 91680, Note_on_c, 9, 36, 57
4, 91680, Note_on_c, 9, 42, 57
4, 91700, Note_on_c, 9, 42, 0
4, 91700, Note_on_c, 9, 36, 0
4, 91800, Note_on_c, 9, 42, 56
4, 91820, Note_on_c, 9, 42, 0
4, 91880, Note_on_c, 9, 36, 54
4, 91880, Note_on_c, 9, 42, 54
4, 91900, Note_on_c, 9, 42, 0
4, 91900, Note_on_c, 9, 36, 0
4, 91920, Note_on_c, 9, 51, 54
4, 91920, Note_on_c, 9, 42, 54
4, 91920, Note_on_c, 9, 38, 54
4, 91940, Note_on_c, 9, 38, 0
4, 91940, Note_on_c, 9, 42, 0
4, 91940, Note_on_c, 9, 51, 0
4, 92040, Note_on_c, 9, 42, 53
4, 92060, Note_on_c, 9, 42, 0
4, 92120, Note_on_c, 9, 36, 52
4, 92140, Note_on_c, 9, 36, 0
4, 92160, Note_on_c, 9, 36, 52
4, 92160, Note_on_c, 9, 42, 52
4, 92180, Note_on_c, 9, 42, 0
4, 92180, Note_on_c, 9, 36, 0
4, 92235, Note_on_c, 9, 36, 52
4, 92280, Note_on_c, 9, 42, 51
4, 92283, Note_on_c, 9, 36, 0
4, 92300, Note_on_c, 9, 42, 0
4, 92360, Note_on_c, 9, 36, 51
4, 92360, Note_on_c, 9, 42, 51
4, 92380, Note_on_c, 9, 42, 0
4, 92380, Note_on_c, 9, 36, 0
4, 92400, Note_on_c, 9, 51, 51
4, 92400, Note_on_c, 9, 42, 51
4, 92400, Note_on_c, 9, 38, 51
4, 92420, Note_on_c, 9, 38, 0
4, 92420, Note_on_c, 9, 42, 0
4, 92420, Note_on_c, 9, 51, 0
4, 92520, Note_on_c, 9, 42, 51
4, 92540, Note_on_c, 9, 42, 0
4, 92600, Note_on_c, 9, 36, 51
4, 92620, Note_on_c, 9, 36, 0
4, 92640, Note_on_c, 9, 36, 51
4, 92640, Note_on_c, 9, 42, 51
4, 92660, Note_on_c, 9, 42, 0
4, 92660, Note_on_c, 9, 36, 0
4, 92760, Note_on_c, 9, 42, 44
4, 92780, Note_on_c, 9, 42, 0
4, 92840, Note_on_c, 9, 36, 43
4, 92840, Note_on_c, 9, 42, 43
4, 92860, Note_on_c, 9, 42, 0
4, 92860, Note_on_c, 9, 36, 0
4, 92880, Note_on_c, 9, 51, 42
4, 92880, Note_on_c, 9, 42, 42
4, 92880, Note_on_c, 9, 38, 42
4, 92900, Note_on_c, 9, 38, 0
4, 92900, Note_on_c, 9, 42, 0
4, 92900, Note_on_c, 9, 51, 0
4, 93000, Note_on_c, 9, 42, 41
4, 93020, Note_on_c, 9, 42, 0
4, 93080, Note_on_c, 9, 36, 41
4, 93100, Note_on_c, 9, 36, 0
4, 93120, Note_on_c, 9, 36, 41
4, 93120, Note_on_c, 9, 42, 41
4, 93140, Note_on_c, 9, 42, 0
4, 93140, Note_on_c, 9, 36, 0
4, 93240, Note_on_c, 9, 42, 39
4, 93260, Note_on_c, 9, 42, 0
4, 93320, Note_on_c, 9, 36, 39
4, 93320, Note_on_c, 9, 42, 39
4, 93340, Note_on_c, 9, 42, 0
4, 93340, Note_on_c, 9, 36, 0
4, 93360, Note_on_c, 9, 51, 39
4, 93360, Note_on_c, 9, 42, 39
4, 93360, Note_on_c, 9, 38, 39
4, 93380, Note_on_c, 9, 38, 0
4, 93380, Note_on_c, 9, 42, 0
4, 93380, Note_on_c, 9, 51, 0
4, 93480, Note_on_c, 9, 42, 38
4, 93500, Note_on_c, 9, 42, 0
4, 93560, Note_on_c, 9, 36, 37
4, 93580, Note_on_c, 9, 36, 0
4, 93600, Note_on_c, 9, 36, 37
4, 93600, Note_on_c, 9, 42, 37
4, 93620, Note_on_c, 9, 42, 0
4, 93620, Note_on_c, 9, 36, 0
4, 93720, Note_on_c, 9, 42, 36
4, 93740, Note_on_c, 9, 42, 0
4, 93800, Note_on_c, 9, 36, 36
4, 93800, Note_on_c, 9, 42, 36
4, 93820, Note_on_c, 9, 42, 0
4, 93820, Note_on_c, 9, 36, 0
4, 93840, Note_on_c, 9, 51, 35
4, 93840, Note_on_c, 9, 42, 35
4, 93840, Note_on_c, 9, 38, 35
4, 93860, Note_on_c, 9, 38, 0
4, 93860, Note_on_c, 9, 42, 0
4, 93860, Note_on_c, 9, 51, 0
4, 93960, Note_on_c, 9, 42, 34
4, 93980, Note_on_c, 9, 42, 0
4, 94016, Note_on_c, 9, 43, 33
4, 94037, Note_on_c, 9, 43, 0
4, 94040, Note_on_c, 9, 36, 26
4, 94051, Note_on_c, 9, 43, 25
4, 94060, Note_on_c, 9, 36, 0
4, 94077, Note_on_c, 9, 43, 0
4, 94080, Note_on_c, 9, 49, 24
4, 94080, Note_on_c, 9, 36, 24
4, 94080, Note_on_c, 9, 42, 24
4, 94100, Note_on_c, 9, 42, 0
4, 94100, Note_on_c, 9, 36, 0
4, 94128, Note_on_c, 9, 49, 0
4, 94200, Note_on_c, 9, 42, 23
4, 94220, Note_on_c, 9, 42, 0
4, 94280, Note_on_c, 9, 36, 22
4, 94280, Note_on_c, 9, 42, 22
4, 94300, Note_on_c, 9, 42, 0
4, 94300, Note_on_c, 9, 36, 0
4, 94320, Note_on_c, 9, 51, 22
4, 94320, Note_on_c, 9, 42, 22
4, 94320, Note_on_c, 9, 38, 22
4, 94340, Note_on_c, 9, 38, 0
4, 94340, Note_on_c, 9, 42, 0
4, 94340, Note_on_c, 9, 51, 0
4, 94440, Note_on_c, 9, 42, 21
4, 94460, Note_on_c, 9, 42, 0
4, 94520, Note_on_c, 9, 36, 21
4, 94540, Note_on_c, 9, 36, 0
4, 94560, Note_on_c, 9, 36, 21
4, 94560, Note_on_c, 9, 42, 21
4, 94580, Note_on_c, 9, 42, 0
4, 94580, Note_on_c, 9, 36, 0
4, 94680, Note_on_c, 9, 42, 21
4, 94700, Note_on_c, 9, 42, 0
4, 94760, Note_on_c, 9, 36, 21
4, 94760, Note_on_c, 9, 42, 21
4, 94780, Note_on_c, 9, 42, 0
4, 94780, Note_on_c, 9, 36, 0
4, 94800, Note_on_c, 9, 51, 21
4, 94800, Note_on_c, 9, 42, 21
4, 94800, Note_on_c, 9, 38, 21
4, 94820, Note_on_c, 9, 38, 0
4, 94820, Note_on_c, 9, 42, 0
4, 94820, Note_on_c, 9, 51, 0
4, 94920, Note_on_c, 9, 42, 21
4, 94940, Note_on_c, 9, 42, 0
4, 95000, Note_on_c, 9, 36, 21
4, 95020, Note_on_c, 9, 36, 0
4, 95040, Note_on_c, 9, 36, 21
4, 95040, Note_on_c, 9, 42, 21
4, 95060, Note_on_c, 9, 42, 0
4, 95060, Note_on_c, 9, 36, 0
4, 95160, Note_on_c, 9, 42, 21
4, 95180, Note_on_c, 9, 42, 0
4, 95240, Note_on_c, 9, 36, 20
4, 95240, Note_on_c, 9, 42, 20
4, 95260, Note_on_c, 9, 42, 0
4, 95260, Note_on_c, 9, 36, 0
4, 95280, Note_on_c, 9, 51, 14
4, 95280, Note_on_c, 9, 42, 14
4, 95280, Note_on_c, 9, 38, 14
4, 95300, Note_on_c, 9, 38, 0
4, 95300, Note_on_c, 9, 42, 0
4, 95300, Note_on_c, 9, 51, 0
4, 95400, Note_on_c, 9, 42, 9
4, 95420, Note_on_c, 9, 42, 0
4, 95480, Note_on_c, 9, 36, 8
4, 95500, Note_on_c, 9, 36, 0
4, 95520, Note_on_c, 9, 36, 8
4, 95520, Note_on_c, 9, 42, 8
4, 95540, Note_on_c, 9, 42, 0
4, 95540, Note_on_c, 9, 36, 0
4, 95640, Note_on_c, 9, 42, 6
4, 95660, Note_on_c, 9, 42, 0
4, 95720, Note_on_c, 9, 36, 5
4, 95720, Note_on_c, 9, 42, 5
4, 95740, Note_on_c, 9, 42, 0
4, 95740, Note_on_c, 9, 36, 0
4, 95760, Note_on_c, 9, 51, 4
4, 95760, Note_on_c, 9, 42, 4
4, 95760, Note_on_c, 9, 38, 4
4, 95780, Note_on_c, 9, 38, 0
4, 95780, Note_on_c, 9, 42, 0
4, 95780, Note_on_c, 9, 51, 0
4, 95880, Note_on_c, 9, 42, 2
4, 95900, Note_on_c, 9, 42, 0
4, 95960, Note_on_c, 9, 36, 2
4, 95980, Note_on_c, 9, 36, 0
4, 95980, End_track
5, 0, Start_track
5, 0, MIDI_port, 0
5, 0, Title_t, "Becker"
5, 0, Control_c, 2, 0, 56
5, 0, Control_c, 2, 32, 0
5, 0, Program_c, 2, 28
5, 240, Control_c, 2, 7, 83
5, 240, Control_c, 2, 10, 114
5, 240, Control_c, 2, 93, 39
5, 240, Control_c, 2, 91, 0
5, 7187, Note_on_c, 2, 66, 100
5, 7188, Note_on_c, 2, 61, 95
5, 7188, Note_on_c, 2, 58, 91
5, 7200, Note_on_c, 2, 61, 0
5, 7203, Note_on_c, 2, 58, 0
5, 7205, Note_on_c, 2, 66, 0
5, 7315, Note_on_c, 2, 56, 95
5, 7315, Note_on_c, 2, 63, 95
5, 7316, Note_on_c, 2, 58, 95
5, 7467, Note_on_c, 2, 58, 0
5, 7474, Note_on_c, 2, 63, 0
5, 7478, Note_on_c, 2, 56, 0
5, 7562, Note_on_c, 2, 58, 95
5, 7563, Note_on_c, 2, 66, 83
5, 7563, Note_on_c, 2, 61, 76
5, 7570, Note_on_c, 2, 61, 0
5, 7575, Note_on_c, 2, 66, 0
5, 7577, Note_on_c, 2, 58, 0
5, 7684, Note_on_c, 2, 56, 87
5, 7685, Note_on_c, 2, 63, 95
5, 7686, Note_on_c, 2, 58, 76
5, 8018, Note_on_c, 2, 58, 0
5, 8021, Note_on_c, 2, 56, 0
5, 8028, Note_on_c, 2, 63, 0
5, 8154, Note_on_c, 2, 58, 83
5, 8155, Note_on_c, 2, 68, 87
5, 8155, Note_on_c, 2, 63, 73
5, 8202, Note_on_c, 2, 63, 0
5, 8214, Note_on_c, 2, 68, 0
5, 8218, Note_on_c, 2, 58, 0
5, 8234, Note_on_c, 2, 58, 76
5, 8235, Note_on_c, 2, 68, 87
5, 8236, Note_on_c, 2, 63, 76
5, 8245, Note_on_c, 2, 63, 0
5, 8249, Note_on_c, 2, 58, 0
5, 8252, Note_on_c, 2, 68, 0
5, 8841, Note_on_c, 2, 61, 87
5, 8842, Note_on_c, 2, 55, 101
5, 8995, Note_on_c, 2, 55, 0
5, 8999, Note_on_c, 2, 61, 0
5, 9122, Note_on_c, 2, 66, 95
5, 9123, Note_on_c, 2, 58, 80
5, 9123, Note_on_c, 2, 61, 76
5, 9132, Note_on_c, 2, 61, 0
5, 9137, Note_on_c, 2, 58, 0
5, 9141, Note_on_c, 2, 66, 0
5, 9241, Note_on_c, 2, 56, 83
5, 9241, Note_on_c, 2, 63, 80
5, 9242, Note_on_c, 2, 58, 73
5, 9374, Note_on_c, 2, 58, 0
5, 9386, Note_on_c, 2, 63, 0
5, 9386, Note_on_c, 2, 56, 0
5, 9488, Note_on_c, 2, 66, 91
5, 9490, Note_on_c, 2, 58, 87
5, 9508, Note_on_c, 2, 58, 0
5, 9511, Note_on_c, 2, 66, 0
5, 9612, Note_on_c, 2, 56, 91
5, 9613, Note_on_c, 2, 63, 91
5, 9613, Note_on_c, 2, 58, 83
5, 9729, Note_on_c, 2, 58, 0
5, 9743, Note_on_c, 2, 63, 0
5, 9808, Note_on_c, 2, 56, 0
5, 10201, Note_on_c, 2, 56, 76
5, 10201, Note_on_c, 2, 61, 68
5, 10203, Note_on_c, 2, 65, 94
5, 10256, Note_on_c, 2, 61, 0
5, 10259, Note_on_c, 2, 56, 0
5, 10263, Note_on_c, 2, 65, 0
5, 10276, Note_on_c, 2, 61, 76
5, 10276, Note_on_c, 2, 56, 68
5, 10279, Note_on_c, 2, 65, 88
5, 10285, Note_on_c, 2, 61, 0
5, 10288, Note_on_c, 2, 65, 0
5, 10288, Note_on_c, 2, 56, 0
5, 10444, Note_on_c, 2, 61, 83
5, 10445, Note_on_c, 2, 56, 83
5, 10446, Note_on_c, 2, 60, 91
5, 10447, Note_on_c, 2, 65, 101
5, 10497, Note_on_c, 2, 60, 0
5, 10503, Note_on_c, 2, 56, 0
5, 10504, Note_on_c, 2, 61, 0
5, 10507, Note_on_c, 2, 65, 0
5, 10519, Note_on_c, 2, 61, 87
5, 10520, Note_on_c, 2, 56, 68
5, 10523, Note_on_c, 2, 65, 66
5, 10533, Note_on_c, 2, 65, 0
5, 10534, Note_on_c, 2, 56, 0
5, 10534, Note_on_c, 2, 61, 0
5, 10684, Note_on_c, 2, 60, 88
5, 10685, Note_on_c, 2, 61, 50
5, 10685, Note_on_c, 2, 56, 68
5, 10687, Note_on_c, 2, 65, 86
5, 10744, Note_on_c, 2, 56, 0
5, 10744, Note_on_c, 2, 61, 0
5, 10745, Note_on_c, 2, 60, 0
5, 10751, Note_on_c, 2, 65, 0
5, 10764, Note_on_c, 2, 65, 88
5, 10764, Note_on_c, 2, 56, 68
5, 10765, Note_on_c, 2, 60, 91
5, 10766, Note_on_c, 2, 61, 63
5, 10772, Note_on_c, 2, 61, 0
5, 10772, Note_on_c, 2, 60, 0
5, 10773, Note_on_c, 2, 56, 0
5, 10775, Note_on_c, 2, 65, 0
5, 10925, Note_on_c, 2, 60, 88
5, 10926, Note_on_c, 2, 56, 65
5, 10928, Note_on_c, 2, 61, 65
5, 10930, Note_on_c, 2, 65, 83
5, 10981, Note_on_c, 2, 61, 0
5, 10983, Note_on_c, 2, 60, 0
5, 10983, Note_on_c, 2, 56, 0
5, 10984, Note_on_c, 2, 65, 0
5, 10998, Note_on_c, 2, 56, 76
5, 10999, Note_on_c, 2, 60, 97
5, 11000, Note_on_c, 2, 65, 91
5, 11000, Note_on_c, 2, 61, 71
5, 11009, Note_on_c, 2, 61, 0
5, 11010, Note_on_c, 2, 60, 0
5, 11011, Note_on_c, 2, 56, 0
5, 11013, Note_on_c, 2, 65, 0
5, 11161, Note_on_c, 2, 61, 83
5, 11162, Note_on_c, 2, 56, 80
5, 11165, Note_on_c, 2, 65, 86
5, 11221, Note_on_c, 2, 61, 0
5, 11224, Note_on_c, 2, 65, 0
5, 11224, Note_on_c, 2, 56, 0
5, 11239, Note_on_c, 2, 56, 73
5, 11239, Note_on_c, 2, 61, 87
5, 11241, Note_on_c, 2, 65, 88
5, 11252, Note_on_c, 2, 61, 0
5, 11253, Note_on_c, 2, 56, 0
5, 11255, Note_on_c, 2, 65, 0
5, 11405, Note_on_c, 2, 61, 87
5, 11407, Note_on_c, 2, 56, 80
5, 11408, Note_on_c, 2, 65, 91
5, 11470, Note_on_c, 2, 61, 0
5, 11472, Note_on_c, 2, 56, 0
5, 11475, Note_on_c, 2, 65, 0
5, 11481, Note_on_c, 2, 56, 65
5, 11483, Note_on_c, 2, 65, 70
5, 11484, Note_on_c, 2, 61, 87
5, 11497, Note_on_c, 2, 61, 0
5, 11499, Note_on_c, 2, 56, 0
5, 11503, Note_on_c, 2, 65, 0
5, 11638, Note_on_c, 2, 63, 100
5, 11639, Note_on_c, 2, 58, 87
5, 11640, Note_on_c, 2, 67, 97
5, 11696, Note_on_c, 2, 63, 0
5, 11700, Note_on_c, 2, 58, 0
5, 11701, Note_on_c, 2, 67, 0
5, 11718, Note_on_c, 2, 63, 80
5, 11719, Note_on_c, 2, 58, 68
5, 11722, Note_on_c, 2, 67, 75
5, 11727, Note_on_c, 2, 63, 0
5, 11730, Note_on_c, 2, 58, 0
5, 11733, Note_on_c, 2, 67, 0
5, 11897, Note_on_c, 2, 63, 91
5, 11899, Note_on_c, 2, 58, 76
5, 11902, Note_on_c, 2, 67, 79
5, 11958, Note_on_c, 2, 63, 0
5, 11963, Note_on_c, 2, 67, 0
5, 11964, Note_on_c, 2, 58, 0
5, 11975, Note_on_c, 2, 58, 73
5, 11976, Note_on_c, 2, 63, 91
5, 11977, Note_on_c, 2, 67, 81
5, 11988, Note_on_c, 2, 63, 0
5, 11991, Note_on_c, 2, 58, 0
5, 11992, Note_on_c, 2, 67, 0
5, 12133, Note_on_c, 2, 61, 73
5, 12134, Note_on_c, 2, 65, 91
5, 12135, Note_on_c, 2, 60, 97
5, 12136, Note_on_c, 2, 55, 77
5, 12196, Note_on_c, 2, 61, 0
5, 12198, Note_on_c, 2, 55, 0
5, 12198, Note_on_c, 2, 60, 0
5, 12203, Note_on_c, 2, 65, 0
5, 12215, Note_on_c, 2, 61, 76
5, 12216, Note_on_c, 2, 65, 94
5, 12217, Note_on_c, 2, 60, 97
5, 12228, Note_on_c, 2, 60, 0
5, 12228, Note_on_c, 2, 61, 0
5, 12234, Note_on_c, 2, 65, 0
5, 12361, Note_on_c, 2, 60, 104
5, 12362, Note_on_c, 2, 61, 80
5, 12363, Note_on_c, 2, 65, 94
5, 12419, Note_on_c, 2, 61, 0
5, 12422, Note_on_c, 2, 60, 0
5, 12429, Note_on_c, 2, 65, 0
5, 12437, Note_on_c, 2, 60, 88
5, 12438, Note_on_c, 2, 65, 88
5, 12438, Note_on_c, 2, 61, 73
5, 12451, Note_on_c, 2, 61, 0
5, 12451, Note_on_c, 2, 60, 0
5, 12457, Note_on_c, 2, 65, 0
5, 12600, Note_on_c, 2, 61, 73
5, 12601, Note_on_c, 2, 60, 91
5, 12602, Note_on_c, 2, 65, 88
5, 12657, Note_on_c, 2, 61, 0
5, 12658, Note_on_c, 2, 60, 0
5, 12662, Note_on_c, 2, 65, 0
5, 12674, Note_on_c, 2, 60, 88
5, 12675, Note_on_c, 2, 65, 83
5, 12676, Note_on_c, 2, 61, 76
5, 12690, Note_on_c, 2, 61, 0
5, 12691, Note_on_c, 2, 60, 0
5, 12696, Note_on_c, 2, 65, 0
5, 12840, Note_on_c, 2, 65, 94
5, 12841, Note_on_c, 2, 61, 76
5, 12842, Note_on_c, 2, 60, 91
5, 12898, Note_on_c, 2, 60, 0
5, 12898, Note_on_c, 2, 61, 0
5, 12916, Note_on_c, 2, 61, 68
5, 12917, Note_on_c, 2, 60, 83
5, 12930, Note_on_c, 2, 61, 0
5, 12931, Note_on_c, 2, 60, 0
5, 12938, Note_on_c, 2, 65, 0
5, 13091, Note_on_c, 2, 58, 83
5, 13092, Note_on_c, 2, 63, 91
5, 13149, Note_on_c, 2, 63, 0
5, 13153, Note_on_c, 2, 58, 0
5, 13170, Note_on_c, 2, 58, 80
5, 13172, Note_on_c, 2, 63, 83
5, 13181, Note_on_c, 2, 63, 0
5, 13187, Note_on_c, 2, 58, 0
5, 13332, Note_on_c, 2, 63, 95
5, 13332, Note_on_c, 2, 58, 91
5, 13391, Note_on_c, 2, 63, 0
5, 13392, Note_on_c, 2, 58, 0
5, 13406, Note_on_c, 2, 63, 83
5, 13407, Note_on_c, 2, 58, 76
5, 13422, Note_on_c, 2, 63, 0
5, 13425, Note_on_c, 2, 58, 0
5, 13571, Note_on_c, 2, 65, 108
5, 13571, Note_on_c, 2, 54, 83
5, 13572, Note_on_c, 2, 58, 71
5, 13619, Note_on_c, 2, 58, 0
5, 13631, Note_on_c, 2, 54, 0
5, 13635, Note_on_c, 2, 65, 0
5, 13649, Note_on_c, 2, 54, 76
5, 13649, Note_on_c, 2, 65, 94
5, 13651, Note_on_c, 2, 58, 68
5, 13658, Note_on_c, 2, 58, 0
5, 13663, Note_on_c, 2, 54, 0
5, 13665, Note_on_c, 2, 65, 0
5, 13811, Note_on_c, 2, 58, 87
5, 13813, Note_on_c, 2, 65, 101
5, 13813, Note_on_c, 2, 54, 80
5, 13869, Note_on_c, 2, 58, 0
5, 13872, Note_on_c, 2, 54, 0
5, 13880, Note_on_c, 2, 65, 0
5, 13886, Note_on_c, 2, 58, 87
5, 13888, Note_on_c, 2, 54, 68
5, 13888, Note_on_c, 2, 65, 88
5, 13899, Note_on_c, 2, 58, 0
5, 13901, Note_on_c, 2, 54, 0
5, 13902, Note_on_c, 2, 65, 0
5, 14045, Note_on_c, 2, 58, 91
5, 14045, Note_on_c, 2, 54, 87
5, 14046, Note_on_c, 2, 63, 80
5, 14099, Note_on_c, 2, 58, 0
5, 14100, Note_on_c, 2, 63, 0
5, 14105, Note_on_c, 2, 54, 0
5, 14117, Note_on_c, 2, 54, 73
5, 14118, Note_on_c, 2, 58, 83
5, 14120, Note_on_c, 2, 63, 83
5, 14130, Note_on_c, 2, 58, 0
5, 14134, Note_on_c, 2, 54, 0
5, 14135, Note_on_c, 2, 63, 0
5, 14285, Note_on_c, 2, 58, 95
5, 14286, Note_on_c, 2, 63, 95
5, 14287, Note_on_c, 2, 54, 91
5, 14334, Note_on_c, 2, 58, 0
5, 14337, Note_on_c, 2, 63, 0
5, 14341, Note_on_c, 2, 54, 0
5, 14355, Note_on_c, 2, 54, 73
5, 14356, Note_on_c, 2, 58, 91
5, 14358, Note_on_c, 2, 63, 87
5, 14373, Note_on_c, 2, 58, 0
5, 14375, Note_on_c, 2, 54, 0
5, 14376, Note_on_c, 2, 63, 0
5, 14528, Note_on_c, 2, 65, 108
5, 14529, Note_on_c, 2, 56, 87
5, 14530, Note_on_c, 2, 61, 76
5, 14541, Note_on_c, 2, 63, 31
5, 14578, Note_on_c, 2, 61, 0
5, 14581, Note_on_c, 2, 63, 0
5, 14584, Note_on_c, 2, 65, 0
5, 14585, Note_on_c, 2, 56, 0
5, 14601, Note_on_c, 2, 56, 76
5, 14603, Note_on_c, 2, 65, 88
5, 14603, Note_on_c, 2, 63, 83
5, 14604, Note_on_c, 2, 61, 76
5, 14613, Note_on_c, 2, 61, 0
5, 14616, Note_on_c, 2, 63, 0
5, 14617, Note_on_c, 2, 56, 0
5, 14621, Note_on_c, 2, 65, 0
5, 14759, Note_on_c, 2, 61, 87
5, 14760, Note_on_c, 2, 56, 87
5, 14761, Note_on_c, 2, 65, 101
5, 14813, Note_on_c, 2, 61, 0
5, 14819, Note_on_c, 2, 56, 0
5, 14823, Note_on_c, 2, 65, 0
5, 14834, Note_on_c, 2, 61, 80
5, 14835, Note_on_c, 2, 56, 65
5, 14838, Note_on_c, 2, 65, 64
5, 14845, Note_on_c, 2, 61, 0
5, 14847, Note_on_c, 2, 65, 0
5, 14849, Note_on_c, 2, 56, 0
5, 15002, Note_on_c, 2, 61, 91
5, 15003, Note_on_c, 2, 56, 91
5, 15003, Note_on_c, 2, 65, 97
5, 15057, Note_on_c, 2, 61, 0
5, 15062, Note_on_c, 2, 56, 0
5, 15063, Note_on_c, 2, 65, 0
5, 15074, Note_on_c, 2, 56, 63
5, 15075, Note_on_c, 2, 61, 91
5, 15076, Note_on_c, 2, 65, 73
5, 15086, Note_on_c, 2, 61, 0
5, 15087, Note_on_c, 2, 56, 0
5, 15089, Note_on_c, 2, 65, 0
5, 15241, Note_on_c, 2, 56, 87
5, 15242, Note_on_c, 2, 65, 101
5, 15243, Note_on_c, 2, 61, 91
5, 15294, Note_on_c, 2, 61, 0
5, 15297, Note_on_c, 2, 56, 0
5, 15303, Note_on_c, 2, 65, 0
5, 15312, Note_on_c, 2, 56, 73
5, 15314, Note_on_c, 2, 65, 97
5, 15314, Note_on_c, 2, 61, 87
5, 15328, Note_on_c, 2, 61, 0
5, 15331, Note_on_c, 2, 56, 0
5, 15335, Note_on_c, 2, 65, 0
5, 15482, Note_on_c, 2, 63, 104
5, 15484, Note_on_c, 2, 58, 95
5, 15485, Note_on_c, 2, 67, 101
5, 15541, Note_on_c, 2, 63, 0
5, 15544, Note_on_c, 2, 58, 0
5, 15547, Note_on_c, 2, 67, 0
5, 15560, Note_on_c, 2, 63, 95
5, 15560, Note_on_c, 2, 58, 76
5, 15563, Note_on_c, 2, 67, 83
5, 15573, Note_on_c, 2, 63, 0
5, 15574, Note_on_c, 2, 58, 0
5, 15578, Note_on_c, 2, 67, 0
5, 15726, Note_on_c, 2, 63, 100
5, 15728, Note_on_c, 2, 58, 87
5, 15729, Note_on_c, 2, 67, 97
5, 15784, Note_on_c, 2, 58, 0
5, 15785, Note_on_c, 2, 63, 0
5, 15790, Note_on_c, 2, 67, 0
5, 15802, Note_on_c, 2, 63, 95
5, 15802, Note_on_c, 2, 67, 94
5, 15804, Note_on_c, 2, 58, 83
5, 15817, Note_on_c, 2, 58, 0
5, 15817, Note_on_c, 2, 63, 0
5, 15825, Note_on_c, 2, 67, 0
5, 15966, Note_on_c, 2, 60, 104
5, 15967, Note_on_c, 2, 65, 108
5, 15969, Note_on_c, 2, 58, 68
5, 16023, Note_on_c, 2, 60, 0
5, 16029, Note_on_c, 2, 58, 0
5, 16030, Note_on_c, 2, 65, 0
5, 16042, Note_on_c, 2, 58, 83
5, 16043, Note_on_c, 2, 60, 113
5, 16043, Note_on_c, 2, 65, 108
5, 16056, Note_on_c, 2, 60, 0
5, 16057, Note_on_c, 2, 58, 0
5, 16061, Note_on_c, 2, 65, 0
5, 16204, Note_on_c, 2, 60, 122
5, 16205, Note_on_c, 2, 58, 91
5, 16205, Note_on_c, 2, 65, 101
5, 16257, Note_on_c, 2, 60, 0
5, 16259, Note_on_c, 2, 58, 0
5, 16262, Note_on_c, 2, 65, 0
5, 16271, Note_on_c, 2, 60, 104
5, 16272, Note_on_c, 2, 58, 76
5, 16274, Note_on_c, 2, 65, 97
5, 16285, Note_on_c, 2, 60, 0
5, 16287, Note_on_c, 2, 65, 0
5, 16289, Note_on_c, 2, 58, 0
5, 16456, Note_on_c, 2, 61, 95
5, 16457, Note_on_c, 2, 56, 87
5, 16458, Note_on_c, 2, 65, 97
5, 16515, Note_on_c, 2, 61, 0
5, 16519, Note_on_c, 2, 56, 0
5, 16522, Note_on_c, 2, 65, 0
5, 16533, Note_on_c, 2, 61, 83
5, 16533, Note_on_c, 2, 56, 65
5, 16535, Note_on_c, 2, 65, 79
5, 16543, Note_on_c, 2, 61, 0
5, 16545, Note_on_c, 2, 65, 0
5, 16545, Note_on_c, 2, 56, 0
5, 16687, Note_on_c, 2, 61, 91
5, 16687, Note_on_c, 2, 56, 68
5, 16687, Note_on_c, 2, 61, 59
5, 16688, Note_on_c, 2, 65, 91
5, 16689, Note_on_c, 2, 56, 87
5, 16691, Note_on_c, 2, 65, 86
5, 16744, Note_on_c, 2, 65, 0
5, 16744, Note_on_c, 2, 61, 0
5, 16745, Note_on_c, 2, 61, 0
5, 16748, Note_on_c, 2, 56, 0
5, 16751, Note_on_c, 2, 65, 0
5, 16752, Note_on_c, 2, 56, 0
5, 16761, Note_on_c, 2, 56, 57
5, 16764, Note_on_c, 2, 56, 73
5, 16764, Note_on_c, 2, 61, 87
5, 16764, Note_on_c, 2, 61, 80
5, 16766, Note_on_c, 2, 65, 79
5, 16766, Note_on_c, 2, 65, 88
5, 16775, Note_on_c, 2, 61, 0
5, 16776, Note_on_c, 2, 61, 0
5, 16777, Note_on_c, 2, 56, 0
5, 16779, Note_on_c, 2, 65, 0
5, 16780, Note_on_c, 2, 56, 0
5, 16783, Note_on_c, 2, 65, 0
5, 16915, Note_on_c, 2, 61, 61
5, 16915, Note_on_c, 2, 56, 71
5, 16918, Note_on_c, 2, 65, 91
5, 16975, Note_on_c, 2, 61, 0
5, 16978, Note_on_c, 2, 56, 0
5, 16981, Note_on_c, 2, 65, 0
5, 16992, Note_on_c, 2, 61, 80
5, 16993, Note_on_c, 2, 56, 71
5, 16997, Note_on_c, 2, 65, 88
5, 17004, Note_on_c, 2, 61, 0
5, 17006, Note_on_c, 2, 56, 0
5, 17011, Note_on_c, 2, 65, 0
5, 17158, Note_on_c, 2, 61, 80
5, 17159, Note_on_c, 2, 56, 83
5, 17161, Note_on_c, 2, 65, 97
5, 17210, Note_on_c, 2, 61, 0
5, 17213, Note_on_c, 2, 56, 0
5, 17218, Note_on_c, 2, 65, 0
5, 17231, Note_on_c, 2, 56, 73
5, 17234, Note_on_c, 2, 65, 101
5, 17235, Note_on_c, 2, 61, 73
5, 17246, Note_on_c, 2, 61, 0
5, 17248, Note_on_c, 2, 56, 0
5, 17252, Note_on_c, 2, 65, 0
5, 17398, Note_on_c, 2, 63, 95
5, 17398, Note_on_c, 2, 58, 87
5, 17402, Note_on_c, 2, 67, 86
5, 17453, Note_on_c, 2, 63, 0
5, 17457, Note_on_c, 2, 58, 0
5, 17460, Note_on_c, 2, 67, 0
5, 17472, Note_on_c, 2, 63, 83
5, 17473, Note_on_c, 2, 58, 71
5, 17475, Note_on_c, 2, 67, 91
5, 17485, Note_on_c, 2, 63, 0
5, 17486, Note_on_c, 2, 58, 0
5, 17493, Note_on_c, 2, 67, 0
5, 17636, Note_on_c, 2, 63, 91
5, 17638, Note_on_c, 2, 58, 87
5, 17639, Note_on_c, 2, 67, 94
5, 17688, Note_on_c, 2, 63, 0
5, 17691, Note_on_c, 2, 58, 0
5, 17701, Note_on_c, 2, 67, 0
5, 17712, Note_on_c, 2, 63, 91
5, 17713, Note_on_c, 2, 58, 80
5, 17713, Note_on_c, 2, 67, 88
5, 17726, Note_on_c, 2, 63, 0
5, 17728, Note_on_c, 2, 58, 0
5, 17731, Note_on_c, 2, 67, 0
5, 17879, Note_on_c, 2, 63, 91
5, 17880, Note_on_c, 2, 58, 87
5, 17880, Note_on_c, 2, 67, 91
5, 17937, Note_on_c, 2, 63, 0
5, 17940, Note_on_c, 2, 58, 0
5, 17944, Note_on_c, 2, 67, 0
5, 17958, Note_on_c, 2, 58, 76
5, 17959, Note_on_c, 2, 63, 73
5, 17960, Note_on_c, 2, 67, 97
5, 17968, Note_on_c, 2, 63, 0
5, 17973, Note_on_c, 2, 58, 0
5, 17981, Note_on_c, 2, 67, 0
5, 18120, Note_on_c, 2, 63, 95
5, 18121, Note_on_c, 2, 58, 87
5, 18122, Note_on_c, 2, 67, 97
5, 18175, Note_on_c, 2, 58, 0
5, 18175, Note_on_c, 2, 63, 0
5, 18186, Note_on_c, 2, 67, 0
5, 18198, Note_on_c, 2, 67, 91
5, 18199, Note_on_c, 2, 58, 73
5, 18200, Note_on_c, 2, 63, 83
5, 18215, Note_on_c, 2, 63, 0
5, 18217, Note_on_c, 2, 58, 0
5, 18223, Note_on_c, 2, 67, 0
5, 18367, Note_on_c, 2, 65, 101
5, 18368, Note_on_c, 2, 60, 113
5, 18368, Note_on_c, 2, 57, 97
5, 18369, Note_on_c, 2, 62, 101
5, 18423, Note_on_c, 2, 60, 0
5, 18425, Note_on_c, 2, 62, 0
5, 18426, Note_on_c, 2, 57, 0
5, 18430, Note_on_c, 2, 65, 0
5, 18443, Note_on_c, 2, 65, 94
5, 18444, Note_on_c, 2, 62, 88
5, 18444, Note_on_c, 2, 60, 79
5, 18445, Note_on_c, 2, 57, 68
5, 18456, Note_on_c, 2, 60, 0
5, 18456, Note_on_c, 2, 62, 0
5, 18457, Note_on_c, 2, 57, 0
5, 18463, Note_on_c, 2, 65, 0
5, 18605, Note_on_c, 2, 65, 88
5, 18607, Note_on_c, 2, 60, 104
5, 18608, Note_on_c, 2, 57, 91
5, 18608, Note_on_c, 2, 62, 101
5, 18663, Note_on_c, 2, 60, 0
5, 18665, Note_on_c, 2, 62, 0
5, 18666, Note_on_c, 2, 57, 0
5, 18669, Note_on_c, 2, 65, 0
5, 18684, Note_on_c, 2, 60, 83
5, 18684, Note_on_c, 2, 57, 73
5, 18685, Note_on_c, 2, 65, 81
5, 18686, Note_on_c, 2, 62, 83
5, 18697, Note_on_c, 2, 62, 0
5, 18700, Note_on_c, 2, 60, 0
5, 18701, Note_on_c, 2, 57, 0
5, 18709, Note_on_c, 2, 65, 0
5, 18837, Note_on_c, 2, 56, 83
5, 18838, Note_on_c, 2, 62, 101
5, 18838, Note_on_c, 2, 60, 94
5, 18889, Note_on_c, 2, 56, 0
5, 18890, Note_on_c, 2, 60, 0
5, 18891, Note_on_c, 2, 62, 0
5, 18910, Note_on_c, 2, 60, 97
5, 18912, Note_on_c, 2, 56, 76
5, 18912, Note_on_c, 2, 62, 97
5, 18925, Note_on_c, 2, 60, 0
5, 18926, Note_on_c, 2, 62, 0
5, 18927, Note_on_c, 2, 56, 0
5, 19084, Note_on_c, 2, 56, 87
5, 19084, Note_on_c, 2, 60, 104
5, 19086, Note_on_c, 2, 62, 88
5, 19134, Note_on_c, 2, 60, 0
5, 19137, Note_on_c, 2, 62, 0
5, 19137, Note_on_c, 2, 56, 0
5, 19156, Note_on_c, 2, 56, 73
5, 19158, Note_on_c, 2, 60, 97
5, 19158, Note_on_c, 2, 62, 94
5, 19176, Note_on_c, 2, 62, 0
5, 19176, Note_on_c, 2, 60, 0
5, 19177, Note_on_c, 2, 56, 0
5, 19325, Note_on_c, 2, 62, 101
5, 19326, Note_on_c, 2, 58, 87
5, 19326, Note_on_c, 2, 55, 86
5, 19383, Note_on_c, 2, 58, 0
5, 19386, Note_on_c, 2, 55, 0
5, 19388, Note_on_c, 2, 62, 0
5, 19401, Note_on_c, 2, 58, 71
5, 19402, Note_on_c, 2, 62, 101
5, 19403, Note_on_c, 2, 55, 73
5, 19420, Note_on_c, 2, 58, 0
5, 19422, Note_on_c, 2, 55, 0
5, 19424, Note_on_c, 2, 62, 0
5, 19556, Note_on_c, 2, 62, 94
5, 19558, Note_on_c, 2, 55, 88
5, 19558, Note_on_c, 2, 58, 80
5, 19612, Note_on_c, 2, 58, 0
5, 19615, Note_on_c, 2, 55, 0
5, 19618, Note_on_c, 2, 62, 0
5, 19633, Note_on_c, 2, 62, 94
5, 19634, Note_on_c, 2, 55, 75
5, 19634, Note_on_c, 2, 58, 68
5, 19647, Note_on_c, 2, 58, 0
5, 19651, Note_on_c, 2, 55, 0
5, 19651, Note_on_c, 2, 62, 0
5, 19801, Note_on_c, 2, 61, 87
5, 19801, Note_on_c, 2, 60, 113
5, 19802, Note_on_c, 2, 55, 97
5, 19857, Note_on_c, 2, 60, 0
5, 19860, Note_on_c, 2, 61, 0
5, 19864, Note_on_c, 2, 55, 0
5, 19872, Note_on_c, 2, 55, 73
5, 19873, Note_on_c, 2, 61, 80
5, 19874, Note_on_c, 2, 60, 88
5, 19886, Note_on_c, 2, 60, 0
5, 19888, Note_on_c, 2, 55, 0
5, 19889, Note_on_c, 2, 61, 0
5, 20040, Note_on_c, 2, 61, 91
5, 20040, Note_on_c, 2, 55, 88
5, 20041, Note_on_c, 2, 60, 101
5, 20099, Note_on_c, 2, 60, 0
5, 20100, Note_on_c, 2, 61, 0
5, 20107, Note_on_c, 2, 55, 0
5, 20116, Note_on_c, 2, 61, 83
5, 20117, Note_on_c, 2, 55, 67
5, 20118, Note_on_c, 2, 60, 86
5, 20129, Note_on_c, 2, 60, 0
5, 20132, Note_on_c, 2, 55, 0
5, 20132, Note_on_c, 2, 61, 0
5, 21323, Note_on_c, 2, 57, 64
5, 21324, Note_on_c, 2, 62, 59
5, 21325, Note_on_c, 2, 67, 64
5, 21331, Note_on_c, 2, 62, 0
5, 21334, Note_on_c, 2, 57, 0
5, 21336, Note_on_c, 2, 67, 0
5, 21440, Note_on_c, 2, 62, 86
5, 21442, Note_on_c, 2, 57, 70
5, 21446, Note_on_c, 2, 67, 56
5, 21455, Note_on_c, 2, 67, 0
5, 21455, Note_on_c, 2, 62, 0
5, 21457, Note_on_c, 2, 57, 0
5, 21564, Note_on_c, 2, 57, 79
5, 21567, Note_on_c, 2, 62, 77
5, 21569, Note_on_c, 2, 67, 70
5, 21577, Note_on_c, 2, 62, 0
5, 21579, Note_on_c, 2, 67, 0
5, 21581, Note_on_c, 2, 57, 0
5, 21680, Note_on_c, 2, 57, 79
5, 21680, Note_on_c, 2, 62, 83
5, 21684, Note_on_c, 2, 67, 77
5, 21694, Note_on_c, 2, 62, 0
5, 21695, Note_on_c, 2, 67, 0
5, 21697, Note_on_c, 2, 57, 0
5, 21802, Note_on_c, 2, 57, 75
5, 21803, Note_on_c, 2, 62, 83
5, 21805, Note_on_c, 2, 67, 68
5, 21813, Note_on_c, 2, 62, 0
5, 21814, Note_on_c, 2, 57, 0
5, 21816, Note_on_c, 2, 67, 0
5, 21921, Note_on_c, 2, 57, 88
5, 21922, Note_on_c, 2, 62, 94
5, 21923, Note_on_c, 2, 67, 81
5, 21933, Note_on_c, 2, 62, 0
5, 21937, Note_on_c, 2, 57, 0
5, 21939, Note_on_c, 2, 67, 0
5, 22046, Note_on_c, 2, 57, 79
5, 22047, Note_on_c, 2, 62, 86
5, 22057, Note_on_c, 2, 62, 0
5, 22061, Note_on_c, 2, 57, 0
5, 22196, Note_on_c, 2, 60, 64
5, 22198, Note_on_c, 2, 55, 54
5, 22204, Note_on_c, 2, 60, 0
5, 22205, Note_on_c, 2, 55, 0
5, 22285, Note_on_c, 2, 55, 75
5, 22285, Note_on_c, 2, 60, 79
5, 22288, Note_on_c, 2, 65, 64
5, 22296, Note_on_c, 2, 60, 0
5, 22297, Note_on_c, 2, 65, 0
5, 22298, Note_on_c, 2, 55, 0
5, 22452, Note_on_c, 2, 60, 67
5, 22452, Note_on_c, 2, 55, 59
5, 22459, Note_on_c, 2, 65, 58
5, 22502, Note_on_c, 2, 65, 0
5, 22502, Note_on_c, 2, 60, 0
5, 22505, Note_on_c, 2, 55, 0
5, 22522, Note_on_c, 2, 60, 64
5, 22524, Note_on_c, 2, 55, 49
5, 22532, Note_on_c, 2, 60, 0
5, 22533, Note_on_c, 2, 55, 0
5, 22560, Note_on_c, 2, 60, 86
5, 22561, Note_on_c, 2, 55, 70
5, 22563, Note_on_c, 2, 65, 77
5, 22574, Note_on_c, 2, 60, 0
5, 22576, Note_on_c, 2, 65, 0
5, 22576, Note_on_c, 2, 55, 0
5, 22691, Note_on_c, 2, 55, 91
5, 22692, Note_on_c, 2, 60, 97
5, 22693, Note_on_c, 2, 65, 94
5, 22897, Note_on_c, 2, 60, 0
5, 22899, Note_on_c, 2, 55, 0
5, 22904, Note_on_c, 2, 65, 0
5, 23122, Note_on_c, 2, 62, 66
5, 23124, Note_on_c, 2, 57, 54
5, 23132, Note_on_c, 2, 62, 0
5, 23133, Note_on_c, 2, 57, 0
5, 23237, Note_on_c, 2, 62, 70
5, 23238, Note_on_c, 2, 57, 59
5, 23250, Note_on_c, 2, 62, 0
5, 23253, Note_on_c, 2, 57, 0
5, 23359, Note_on_c, 2, 57, 79
5, 23360, Note_on_c, 2, 62, 86
5, 23363, Note_on_c, 2, 67, 79
5, 23374, Note_on_c, 2, 62, 0
5, 23377, Note_on_c, 2, 67, 0
5, 23377, Note_on_c, 2, 57, 0
5, 23481, Note_on_c, 2, 57, 67
5, 23481, Note_on_c, 2, 62, 77
5, 23482, Note_on_c, 2, 67, 75
5, 23495, Note_on_c, 2, 62, 0
5, 23498, Note_on_c, 2, 57, 0
5, 23499, Note_on_c, 2, 67, 0
5, 23594, Note_on_c, 2, 62, 67
5, 23597, Note_on_c, 2, 57, 55
5, 23598, Note_on_c, 2, 67, 55
5, 23609, Note_on_c, 2, 57, 0
5, 23609, Note_on_c, 2, 62, 0
5, 23611, Note_on_c, 2, 67, 0
5, 23713, Note_on_c, 2, 62, 75
5, 23716, Note_on_c, 2, 57, 61
5, 23716, Note_on_c, 2, 67, 66
5, 23729, Note_on_c, 2, 62, 0
5, 23731, Note_on_c, 2, 57, 0
5, 23732, Note_on_c, 2, 67, 0
5, 23834, Note_on_c, 2, 62, 77
5, 23835, Note_on_c, 2, 57, 70
5, 23836, Note_on_c, 2, 67, 66
5, 23846, Note_on_c, 2, 62, 0
5, 23849, Note_on_c, 2, 67, 0
5, 23849, Note_on_c, 2, 57, 0
5, 23954, Note_on_c, 2, 62, 64
5, 23955, Note_on_c, 2, 57, 61
5, 23967, Note_on_c, 2, 62, 0
5, 23971, Note_on_c, 2, 57, 0
5, 24119, Note_on_c, 2, 60, 86
5, 24120, Note_on_c, 2, 55, 77
5, 24120, Note_on_c, 2, 61, 63
5, 24126, Note_on_c, 2, 65, 75
5, 24141, Note_on_c, 2, 61, 0
5, 24172, Note_on_c, 2, 60, 0
5, 24175, Note_on_c, 2, 55, 0
5, 24179, Note_on_c, 2, 65, 0
5, 24196, Note_on_c, 2, 55, 59
5, 24205, Note_on_c, 2, 55, 0
5, 24359, Note_on_c, 2, 60, 88
5, 24359, Note_on_c, 2, 54, 63
5, 24364, Note_on_c, 2, 54, 0
5, 24396, Note_on_c, 2, 58, 41
5, 24404, Note_on_c, 2, 60, 0
5, 24410, Note_on_c, 2, 58, 0
5, 24618, Note_on_c, 2, 60, 97
5, 24619, Note_on_c, 2, 65, 83
5, 24620, Note_on_c, 2, 61, 71
5, 24620, Note_on_c, 2, 55, 81
5, 24646, Note_on_c, 2, 61, 0
5, 24650, Note_on_c, 2, 60, 0
5, 24658, Note_on_c, 2, 55, 0
5, 24670, Note_on_c, 2, 65, 0
5, 24690, Note_on_c, 2, 67, 79
5, 24691, Note_on_c, 2, 65, 81
5, 24699, Note_on_c, 2, 65, 0
5, 24700, Note_on_c, 2, 67, 0
5, 24855, Note_on_c, 2, 63, 73
5, 24855, Note_on_c, 2, 62, 86
5, 24857, Note_on_c, 2, 57, 75
5, 24858, Note_on_c, 2, 67, 81
5, 24900, Note_on_c, 2, 63, 0
5, 24901, Note_on_c, 2, 62, 0
5, 24904, Note_on_c, 2, 57, 0
5, 24908, Note_on_c, 2, 67, 0
5, 24925, Note_on_c, 2, 57, 63
5, 24926, Note_on_c, 2, 62, 66
5, 24929, Note_on_c, 2, 67, 70
5, 24934, Note_on_c, 2, 62, 0
5, 24935, Note_on_c, 2, 57, 0
5, 24939, Note_on_c, 2, 67, 0
5, 25095, Note_on_c, 2, 60, 70
5, 25095, Note_on_c, 2, 65, 83
5, 25097, Note_on_c, 2, 67, 83
5, 25151, Note_on_c, 2, 65, 0
5, 25153, Note_on_c, 2, 60, 0
5, 25154, Note_on_c, 2, 67, 0
5, 25165, Note_on_c, 2, 60, 75
5, 25167, Note_on_c, 2, 65, 91
5, 25168, Note_on_c, 2, 67, 86
5, 25181, Note_on_c, 2, 65, 0
5, 25182, Note_on_c, 2, 67, 0
5, 25182, Note_on_c, 2, 60, 0
5, 25328, Note_on_c, 2, 60, 79
5, 25328, Note_on_c, 2, 65, 94
5, 25381, Note_on_c, 2, 65, 0
5, 25384, Note_on_c, 2, 60, 0
5, 25397, Note_on_c, 2, 65, 79
5, 25397, Note_on_c, 2, 60, 66
5, 25408, Note_on_c, 2, 65, 0
5, 25411, Note_on_c, 2, 60, 0
5, 25564, Note_on_c, 2, 61, 83
5, 25565, Note_on_c, 2, 56, 80
5, 25579, Note_on_c, 2, 56, 0
5, 25579, Note_on_c, 2, 61, 0
5, 25685, Note_on_c, 2, 61, 73
5, 25686, Note_on_c, 2, 55, 86
5, 25687, Note_on_c, 2, 65, 86
5, 25909, Note_on_c, 2, 61, 0
5, 25912, Note_on_c, 2, 65, 0
5, 25917, Note_on_c, 2, 55, 0
5, 26043, Note_on_c, 2, 60, 94
5, 26043, Note_on_c, 2, 55, 94
5, 26044, Note_on_c, 2, 65, 94
5, 26250, Note_on_c, 2, 60, 0
5, 26253, Note_on_c, 2, 65, 0
5, 26254, Note_on_c, 2, 55, 0
5, 26401, Note_on_c, 2, 62, 86
5, 26402, Note_on_c, 2, 53, 70
5, 26404, Note_on_c, 2, 58, 55
5, 26418, Note_on_c, 2, 58, 0
5, 26423, Note_on_c, 2, 62, 0
5, 26424, Note_on_c, 2, 53, 0
5, 26519, Note_on_c, 2, 62, 86
5, 26521, Note_on_c, 2, 53, 68
5, 26522, Note_on_c, 2, 58, 59
5, 26754, Note_on_c, 2, 58, 0
5, 26759, Note_on_c, 2, 53, 0
5, 26760, Note_on_c, 2, 62, 0
5, 26965, Note_on_c, 2, 55, 64
5, 26966, Note_on_c, 2, 60, 63
5, 26973, Note_on_c, 2, 60, 0
5, 26976, Note_on_c, 2, 55, 0
5, 27074, Note_on_c, 2, 60, 83
5, 27075, Note_on_c, 2, 55, 75
5, 27079, Note_on_c, 2, 65, 70
5, 27089, Note_on_c, 2, 65, 0
5, 27089, Note_on_c, 2, 60, 0
5, 27092, Note_on_c, 2, 55, 0
5, 27204, Note_on_c, 2, 62, 83
5, 27204, Note_on_c, 2, 55, 61
5, 27216, Note_on_c, 2, 62, 0
5, 27217, Note_on_c, 2, 55, 0
5, 27322, Note_on_c, 2, 57, 67
5, 27322, Note_on_c, 2, 62, 83
5, 27324, Note_on_c, 2, 55, 71
5, 27325, Note_on_c, 2, 67, 59
5, 27331, Note_on_c, 2, 62, 0
5, 27333, Note_on_c, 2, 55, 0
5, 27334, Note_on_c, 2, 57, 0
5, 27334, Note_on_c, 2, 67, 0
5, 27434, Note_on_c, 2, 62, 94
5, 27435, Note_on_c, 2, 67, 86
5, 27436, Note_on_c, 2, 55, 73
5, 27437, Note_on_c, 2, 57, 60
5, 27446, Note_on_c, 2, 57, 0
5, 27446, Note_on_c, 2, 62, 0
5, 27448, Note_on_c, 2, 55, 0
5, 27451, Note_on_c, 2, 67, 0
5, 27561, Note_on_c, 2, 62, 83
5, 27563, Note_on_c, 2, 55, 57
5, 27563, Note_on_c, 2, 67, 68
5, 27570, Note_on_c, 2, 62, 0
5, 27571, Note_on_c, 2, 55, 0
5, 27572, Note_on_c, 2, 67, 0
5, 27683, Note_on_c, 2, 62, 88
5, 27686, Note_on_c, 2, 55, 66
5, 27686, Note_on_c, 2, 57, 64
5, 27687, Note_on_c, 2, 67, 77
5, 27696, Note_on_c, 2, 62, 0
5, 27697, Note_on_c, 2, 55, 0
5, 27697, Note_on_c, 2, 57, 0
5, 27700, Note_on_c, 2, 67, 0
5, 28924, Note_on_c, 2, 61, 44
5, 28929, Note_on_c, 2, 61, 0
5, 29010, Note_on_c, 2, 66, 73
5, 29012, Note_on_c, 2, 61, 73
5, 29012, Note_on_c, 2, 70, 61
5, 29019, Note_on_c, 2, 66, 0
5, 29020, Note_on_c, 2, 70, 0
5, 29021, Note_on_c, 2, 61, 0
5, 29169, Note_on_c, 2, 66, 73
5, 29170, Note_on_c, 2, 70, 68
5, 29171, Note_on_c, 2, 61, 63
5, 29204, Note_on_c, 2, 61, 0
5, 29205, Note_on_c, 2, 66, 0
5, 29208, Note_on_c, 2, 70, 0
5, 29248, Note_on_c, 2, 66, 91
5, 29248, Note_on_c, 2, 70, 76
5, 29249, Note_on_c, 2, 61, 76
5, 29258, Note_on_c, 2, 66, 0
5, 29260, Note_on_c, 2, 61, 0
5, 29261, Note_on_c, 2, 70, 0
5, 29404, Note_on_c, 2, 65, 83
5, 29406, Note_on_c, 2, 61, 51
5, 29420, Note_on_c, 2, 68, 20
5, 29454, Note_on_c, 2, 68, 0
5, 29454, Note_on_c, 2, 65, 0
5, 29456, Note_on_c, 2, 61, 0
5, 29474, Note_on_c, 2, 61, 59
5, 29476, Note_on_c, 2, 68, 76
5, 29476, Note_on_c, 2, 65, 77
5, 29484, Note_on_c, 2, 65, 0
5, 29486, Note_on_c, 2, 61, 0
5, 29489, Note_on_c, 2, 68, 0
5, 29639, Note_on_c, 2, 61, 65
5, 29639, Note_on_c, 2, 65, 75
5, 29640, Note_on_c, 2, 68, 63
5, 29682, Note_on_c, 2, 65, 0
5, 29687, Note_on_c, 2, 61, 0
5, 29688, Note_on_c, 2, 68, 0
5, 29711, Note_on_c, 2, 61, 55
5, 29712, Note_on_c, 2, 65, 91
5, 29723, Note_on_c, 2, 65, 0
5, 29727, Note_on_c, 2, 61, 0
5, 29880, Note_on_c, 2, 63, 65
5, 29882, Note_on_c, 2, 58, 57
5, 29886, Note_on_c, 2, 66, 57
5, 29932, Note_on_c, 2, 63, 0
5, 29935, Note_on_c, 2, 66, 0
5, 29937, Note_on_c, 2, 58, 0
5, 29957, Note_on_c, 2, 58, 63
5, 29957, Note_on_c, 2, 66, 80
5, 29957, Note_on_c, 2, 63, 80
5, 29968, Note_on_c, 2, 63, 0
5, 29971, Note_on_c, 2, 58, 0
5, 29975, Note_on_c, 2, 66, 0
5, 30120, Note_on_c, 2, 57, 70
5, 30121, Note_on_c, 2, 68, 71
5, 30122, Note_on_c, 2, 63, 59
5, 30169, Note_on_c, 2, 63, 0
5, 30177, Note_on_c, 2, 68, 0
5, 30179, Note_on_c, 2, 57, 0
5, 30193, Note_on_c, 2, 57, 77
5, 30193, Note_on_c, 2, 68, 68
5, 30194, Note_on_c, 2, 63, 80
5, 30203, Note_on_c, 2, 63, 0
5, 30210, Note_on_c, 2, 68, 0
5, 30210, Note_on_c, 2, 57, 0
5, 30367, Note_on_c, 2, 56, 61
5, 30368, Note_on_c, 2, 66, 61
5, 30420, Note_on_c, 2, 66, 0
5, 30421, Note_on_c, 2, 56, 0
5, 30439, Note_on_c, 2, 56, 71
5, 30441, Note_on_c, 2, 66, 73
5, 30444, Note_on_c, 2, 61, 65
5, 30450, Note_on_c, 2, 61, 0
5, 30456, Note_on_c, 2, 56, 0
5, 30457, Note_on_c, 2, 66, 0
5, 30600, Note_on_c, 2, 55, 77
5, 30600, Note_on_c, 2, 66, 73
5, 30612, Note_on_c, 2, 61, 23
5, 30651, Note_on_c, 2, 61, 0
5, 30658, Note_on_c, 2, 66, 0
5, 30659, Note_on_c, 2, 55, 0
5, 30676, Note_on_c, 2, 55, 75
5, 30678, Note_on_c, 2, 66, 76
5, 30689, Note_on_c, 2, 66, 0
5, 30691, Note_on_c, 2, 55, 0
5, 30850, Note_on_c, 2, 66, 63
5, 30900, Note_on_c, 2, 66, 0
5, 30924, Note_on_c, 2, 55, 88
5, 30924, Note_on_c, 2, 66, 83
5, 30926, Note_on_c, 2, 61, 53
5, 30931, Note_on_c, 2, 61, 0
5, 30937, Note_on_c, 2, 66, 0
5, 30940, Note_on_c, 2, 55, 0
5, 31098, Note_on_c, 2, 66, 71
5, 31098, Note_on_c, 2, 56, 68
5, 31146, Note_on_c, 2, 56, 0
5, 31147, Note_on_c, 2, 66, 0
5, 31173, Note_on_c, 2, 66, 80
5, 31174, Note_on_c, 2, 56, 63
5, 31186, Note_on_c, 2, 56, 0
5, 31189, Note_on_c, 2, 66, 0
5, 31333, Note_on_c, 2, 66, 73
5, 31334, Note_on_c, 2, 56, 76
5, 31334, Note_on_c, 2, 61, 51
5, 31343, Note_on_c, 2, 65, 47
5, 31350, Note_on_c, 2, 61, 0
5, 31383, Note_on_c, 2, 56, 0
5, 31384, Note_on_c, 2, 65, 0
5, 31386, Note_on_c, 2, 66, 0
5, 31407, Note_on_c, 2, 56, 71
5, 31408, Note_on_c, 2, 66, 83
5, 31409, Note_on_c, 2, 65, 113
5, 31419, Note_on_c, 2, 56, 0
5, 31421, Note_on_c, 2, 65, 0
5, 31425, Note_on_c, 2, 66, 0
5, 31568, Note_on_c, 2, 60, 94
5, 31569, Note_on_c, 2, 56, 65
5, 31589, Note_on_c, 2, 60, 0
5, 31590, Note_on_c, 2, 56, 0
5, 31644, Note_on_c, 2, 63, 83
5, 31646, Note_on_c, 2, 56, 46
5, 31658, Note_on_c, 2, 63, 0
5, 31659, Note_on_c, 2, 56, 0
5, 31820, Note_on_c, 2, 63, 51
5, 31821, Note_on_c, 2, 61, 44
5, 31822, Note_on_c, 2, 55, 77
5, 31865, Note_on_c, 2, 63, 0
5, 31868, Note_on_c, 2, 61, 0
5, 31873, Note_on_c, 2, 55, 0
5, 31889, Note_on_c, 2, 55, 70
5, 31891, Note_on_c, 2, 63, 71
5, 31892, Note_on_c, 2, 61, 55
5, 31898, Note_on_c, 2, 61, 0
5, 31898, Note_on_c, 2, 63, 0
5, 31903, Note_on_c, 2, 55, 0
5, 32041, Note_on_c, 2, 62, 104
5, 32042, Note_on_c, 2, 56, 80
5, 32095, Note_on_c, 2, 56, 0
5, 32095, Note_on_c, 2, 62, 0
5, 32115, Note_on_c, 2, 56, 61
5, 32116, Note_on_c, 2, 62, 86
5, 32117, Note_on_c, 2, 63, 80
5, 32125, Note_on_c, 2, 63, 0
5, 32127, Note_on_c, 2, 62, 0
5, 32129, Note_on_c, 2, 56, 0
5, 32281, Note_on_c, 2, 61, 71
5, 32282, Note_on_c, 2, 56, 76
5, 32331, Note_on_c, 2, 61, 0
5, 32333, Note_on_c, 2, 56, 0
5, 32354, Note_on_c, 2, 56, 68
5, 32355, Note_on_c, 2, 61, 73
5, 32358, Note_on_c, 2, 63, 83
5, 32370, Note_on_c, 2, 61, 0
5, 32371, Note_on_c, 2, 63, 0
5, 32371, Note_on_c, 2, 56, 0
5, 32531, Note_on_c, 2, 58, 83
5, 32532, Note_on_c, 2, 56, 76
5, 32534, Note_on_c, 2, 63, 59
5, 32588, Note_on_c, 2, 63, 0
5, 32588, Note_on_c, 2, 58, 0
5, 32589, Note_on_c, 2, 56, 0
5, 32604, Note_on_c, 2, 63, 91
5, 32606, Note_on_c, 2, 56, 73
5, 32609, Note_on_c, 2, 58, 68
5, 32613, Note_on_c, 2, 58, 0
5, 32621, Note_on_c, 2, 56, 0
5, 32626, Note_on_c, 2, 63, 0
5, 32772, Note_on_c, 2, 61, 80
5, 32772, Note_on_c, 2, 56, 87
5, 32773, Note_on_c, 2, 65, 97
5, 32828, Note_on_c, 2, 61, 0
5, 32832, Note_on_c, 2, 56, 0
5, 32833, Note_on_c, 2, 65, 0
5, 32846, Note_on_c, 2, 61, 83
5, 32848, Note_on_c, 2, 56, 68
5, 32849, Note_on_c, 2, 65, 79
5, 32857, Note_on_c, 2, 65, 0
5, 32860, Note_on_c, 2, 56, 0
5, 32860, Note_on_c, 2, 61, 0
5, 33001, Note_on_c, 2, 61, 87
5, 33003, Note_on_c, 2, 56, 73
5, 33005, Note_on_c, 2, 65, 83
5, 33062, Note_on_c, 2, 61, 0
5, 33066, Note_on_c, 2, 65, 0
5, 33067, Note_on_c, 2, 56, 0
5, 33078, Note_on_c, 2, 56, 59
5, 33079, Note_on_c, 2, 61, 83
5, 33080, Note_on_c, 2, 65, 75
5, 33090, Note_on_c, 2, 61, 0
5, 33093, Note_on_c, 2, 65, 0
5, 33093, Note_on_c, 2, 56, 0
5, 33237, Note_on_c, 2, 61, 87
5, 33239, Note_on_c, 2, 56, 80
5, 33240, Note_on_c, 2, 65, 91
5, 33293, Note_on_c, 2, 61, 0
5, 33296, Note_on_c, 2, 65, 0
5, 33297, Note_on_c, 2, 56, 0
5, 33312, Note_on_c, 2, 56, 65
5, 33313, Note_on_c, 2, 61, 83
5, 33316, Note_on_c, 2, 65, 70
5, 33327, Note_on_c, 2, 61, 0
5, 33328, Note_on_c, 2, 65, 0
5, 33330, Note_on_c, 2, 56, 0
5, 33490, Note_on_c, 2, 61, 83
5, 33490, Note_on_c, 2, 56, 80
5, 33493, Note_on_c, 2, 65, 86
5, 33544, Note_on_c, 2, 61, 0
5, 33545, Note_on_c, 2, 65, 0
5, 33546, Note_on_c, 2, 56, 0
5, 33562, Note_on_c, 2, 56, 73
5, 33563, Note_on_c, 2, 61, 83
5, 33566, Note_on_c, 2, 65, 77
5, 33573, Note_on_c, 2, 65, 0
5, 33576, Note_on_c, 2, 61, 0
5, 33578, Note_on_c, 2, 56, 0
5, 33730, Note_on_c, 2, 61, 80
5, 33731, Note_on_c, 2, 56, 76
5, 33732, Note_on_c, 2, 65, 91
5, 33784, Note_on_c, 2, 61, 0
5, 33786, Note_on_c, 2, 65, 0
5, 33787, Note_on_c, 2, 56, 0
5, 33801, Note_on_c, 2, 56, 61
5, 33801, Note_on_c, 2, 61, 76
5, 33814, Note_on_c, 2, 61, 0
5, 33817, Note_on_c, 2, 56, 0
5, 33965, Note_on_c, 2, 61, 76
5, 33967, Note_on_c, 2, 56, 76
5, 33969, Note_on_c, 2, 65, 88
5, 34021, Note_on_c, 2, 61, 0
5, 34024, Note_on_c, 2, 65, 0
5, 34024, Note_on_c, 2, 56, 0
5, 34038, Note_on_c, 2, 56, 63
5, 34038, Note_on_c, 2, 61, 87
5, 34040, Note_on_c, 2, 65, 86
5, 34053, Note_on_c, 2, 56, 0
5, 34055, Note_on_c, 2, 61, 0
5, 34058, Note_on_c, 2, 65, 0
5, 34193, Note_on_c, 2, 63, 95
5, 34196, Note_on_c, 2, 58, 80
5, 34197, Note_on_c, 2, 67, 88
5, 34249, Note_on_c, 2, 63, 0
5, 34251, Note_on_c, 2, 58, 0
5, 34253, Note_on_c, 2, 67, 0
5, 34268, Note_on_c, 2, 58, 73
5, 34269, Note_on_c, 2, 63, 87
5, 34271, Note_on_c, 2, 67, 79
5, 34280, Note_on_c, 2, 63, 0
5, 34284, Note_on_c, 2, 58, 0
5, 34285, Note_on_c, 2, 67, 0
5, 34442, Note_on_c, 2, 63, 95
5, 34443, Note_on_c, 2, 58, 83
5, 34445, Note_on_c, 2, 67, 86
5, 34500, Note_on_c, 2, 67, 0
5, 34500, Note_on_c, 2, 63, 0
5, 34501, Note_on_c, 2, 58, 0
5, 34516, Note_on_c, 2, 58, 71
5, 34518, Note_on_c, 2, 63, 87
5, 34519, Note_on_c, 2, 67, 83
5, 34534, Note_on_c, 2, 63, 0
5, 34537, Note_on_c, 2, 58, 0
5, 34538, Note_on_c, 2, 67, 0
5, 34683, Note_on_c, 2, 60, 91
5, 34683, Note_on_c, 2, 61, 83
5, 34684, Note_on_c, 2, 55, 97
5, 34685, Note_on_c, 2, 65, 88
5, 34741, Note_on_c, 2, 61, 0
5, 34742, Note_on_c, 2, 60, 0
5, 34744, Note_on_c, 2, 55, 0
5, 34744, Note_on_c, 2, 65, 0
5, 34760, Note_on_c, 2, 60, 97
5, 34761, Note_on_c, 2, 55, 81
5, 34761, Note_on_c, 2, 61, 76
5, 34763, Note_on_c, 2, 65, 94
5, 34773, Note_on_c, 2, 61, 0
5, 34774, Note_on_c, 2, 60, 0
5, 34776, Note_on_c, 2, 55, 0
5, 34779, Note_on_c, 2, 65, 0
5, 34926, Note_on_c, 2, 61, 83
5, 34926, Note_on_c, 2, 60, 97
5, 34927, Note_on_c, 2, 55, 94
5, 34927, Note_on_c, 2, 65, 88
5, 34983, Note_on_c, 2, 60, 0
5, 34983, Note_on_c, 2, 61, 0
5, 34988, Note_on_c, 2, 55, 0
5, 34989, Note_on_c, 2, 65, 0
5, 35000, Note_on_c, 2, 55, 75
5, 35000, Note_on_c, 2, 65, 83
5, 35002, Note_on_c, 2, 60, 83
5, 35002, Note_on_c, 2, 61, 65
5, 35011, Note_on_c, 2, 61, 0
5, 35011, Note_on_c, 2, 60, 0
5, 35016, Note_on_c, 2, 55, 0
5, 35021, Note_on_c, 2, 65, 0
5, 35171, Note_on_c, 2, 55, 79
5, 35172, Note_on_c, 2, 60, 79
5, 35173, Note_on_c, 2, 61, 63
5, 35173, Note_on_c, 2, 65, 86
5, 35228, Note_on_c, 2, 61, 0
5, 35228, Note_on_c, 2, 60, 0
5, 35233, Note_on_c, 2, 55, 0
5, 35234, Note_on_c, 2, 65, 0
5, 35242, Note_on_c, 2, 55, 71
5, 35244, Note_on_c, 2, 65, 68
5, 35244, Note_on_c, 2, 61, 73
5, 35245, Note_on_c, 2, 60, 91
5, 35256, Note_on_c, 2, 60, 0
5, 35256, Note_on_c, 2, 61, 0
5, 35261, Note_on_c, 2, 65, 0
5, 35261, Note_on_c, 2, 55, 0
5, 35401, Note_on_c, 2, 55, 86
5, 35402, Note_on_c, 2, 61, 73
5, 35402, Note_on_c, 2, 60, 88
5, 35404, Note_on_c, 2, 65, 94
5, 35457, Note_on_c, 2, 61, 0
5, 35458, Note_on_c, 2, 60, 0
5, 35462, Note_on_c, 2, 55, 0
5, 35467, Note_on_c, 2, 65, 0
5, 35473, Note_on_c, 2, 55, 71
5, 35474, Note_on_c, 2, 61, 71
5, 35474, Note_on_c, 2, 60, 88
5, 35475, Note_on_c, 2, 65, 61
5, 35488, Note_on_c, 2, 60, 0
5, 35488, Note_on_c, 2, 61, 0
5, 35490, Note_on_c, 2, 55, 0
5, 35493, Note_on_c, 2, 65, 0
5, 35635, Note_on_c, 2, 58, 87
5, 35636, Note_on_c, 2, 60, 101
5, 35638, Note_on_c, 2, 63, 76
5, 35686, Note_on_c, 2, 60, 0
5, 35689, Note_on_c, 2, 63, 0
5, 35692, Note_on_c, 2, 58, 0
5, 35706, Note_on_c, 2, 58, 71
5, 35707, Note_on_c, 2, 63, 87
5, 35708, Note_on_c, 2, 60, 94
5, 35722, Note_on_c, 2, 60, 0
5, 35724, Note_on_c, 2, 58, 0
5, 35726, Note_on_c, 2, 63, 0
5, 35870, Note_on_c, 2, 60, 104
5, 35872, Note_on_c, 2, 58, 83
5, 35872, Note_on_c, 2, 63, 73
5, 35926, Note_on_c, 2, 63, 0
5, 35926, Note_on_c, 2, 60, 0
5, 35931, Note_on_c, 2, 58, 0
5, 35945, Note_on_c, 2, 58, 63
5, 35946, Note_on_c, 2, 63, 87
5, 35947, Note_on_c, 2, 60, 97
5, 35962, Note_on_c, 2, 60, 0
5, 35965, Note_on_c, 2, 58, 0
5, 35966, Note_on_c, 2, 63, 0
5, 36112, Note_on_c, 2, 65, 104
5, 36118, Note_on_c, 2, 54, 71
5, 36172, Note_on_c, 2, 54, 0
5, 36172, Note_on_c, 2, 65, 0
5, 36189, Note_on_c, 2, 54, 71
5, 36190, Note_on_c, 2, 58, 76
5, 36190, Note_on_c, 2, 65, 101
5, 36202, Note_on_c, 2, 58, 0
5, 36203, Note_on_c, 2, 54, 0
5, 36208, Note_on_c, 2, 65, 0
5, 36358, Note_on_c, 2, 54, 83
5, 36360, Note_on_c, 2, 58, 83
5, 36360, Note_on_c, 2, 65, 97
5, 36417, Note_on_c, 2, 58, 0
5, 36419, Note_on_c, 2, 54, 0
5, 36422, Note_on_c, 2, 65, 0
5, 36435, Note_on_c, 2, 54, 68
5, 36437, Note_on_c, 2, 58, 80
5, 36438, Note_on_c, 2, 65, 86
5, 36447, Note_on_c, 2, 58, 0
5, 36450, Note_on_c, 2, 54, 0
5, 36455, Note_on_c, 2, 65, 0
5, 36602, Note_on_c, 2, 54, 80
5, 36603, Note_on_c, 2, 58, 80
5, 36603, Note_on_c, 2, 63, 76
5, 36654, Note_on_c, 2, 58, 0
5, 36657, Note_on_c, 2, 63, 0
5, 36661, Note_on_c, 2, 54, 0
5, 36677, Note_on_c, 2, 54, 65
5, 36677, Note_on_c, 2, 58, 65
5, 36686, Note_on_c, 2, 58, 0
5, 36691, Note_on_c, 2, 54, 0
5, 36840, Note_on_c, 2, 63, 87
5, 36841, Note_on_c, 2, 58, 83
5, 36841, Note_on_c, 2, 54, 83
5, 36895, Note_on_c, 2, 58, 0
5, 36898, Note_on_c, 2, 63, 0
5, 36900, Note_on_c, 2, 54, 0
5, 36917, Note_on_c, 2, 54, 80
5, 36918, Note_on_c, 2, 63, 95
5, 36919, Note_on_c, 2, 58, 73
5, 36928, Note_on_c, 2, 58, 0
5, 36933, Note_on_c, 2, 54, 0
5, 36936, Note_on_c, 2, 63, 0
5, 37080, Note_on_c, 2, 56, 87
5, 37082, Note_on_c, 2, 61, 83
5, 37082, Note_on_c, 2, 65, 97
5, 37133, Note_on_c, 2, 61, 0
5, 37140, Note_on_c, 2, 65, 0
5, 37140, Note_on_c, 2, 56, 0
5, 37155, Note_on_c, 2, 56, 73
5, 37157, Note_on_c, 2, 61, 83
5, 37160, Note_on_c, 2, 65, 79
5, 37169, Note_on_c, 2, 61, 0
5, 37170, Note_on_c, 2, 65, 0
5, 37173, Note_on_c, 2, 56, 0
5, 37328, Note_on_c, 2, 61, 80
5, 37328, Note_on_c, 2, 56, 76
5, 37332, Note_on_c, 2, 65, 88
5, 37381, Note_on_c, 2, 61, 0
5, 37385, Note_on_c, 2, 65, 0
5, 37387, Note_on_c, 2, 56, 0
5, 37401, Note_on_c, 2, 56, 73
5, 37403, Note_on_c, 2, 61, 80
5, 37406, Note_on_c, 2, 65, 77
5, 37415, Note_on_c, 2, 61, 0
5, 37416, Note_on_c, 2, 65, 0
5, 37418, Note_on_c, 2, 56, 0
5, 37555, Note_on_c, 2, 61, 80
5, 37556, Note_on_c, 2, 56, 80
5, 37559, Note_on_c, 2, 65, 88
5, 37617, Note_on_c, 2, 61, 0
5, 37619, Note_on_c, 2, 65, 0
5, 37621, Note_on_c, 2, 56, 0
5, 37634, Note_on_c, 2, 56, 68
5, 37636, Note_on_c, 2, 61, 80
5, 37639, Note_on_c, 2, 65, 79
5, 37645, Note_on_c, 2, 61, 0
5, 37650, Note_on_c, 2, 65, 0
5, 37650, Note_on_c, 2, 56, 0
5, 37796, Note_on_c, 2, 56, 83
5, 37798, Note_on_c, 2, 61, 83
5, 37798, Note_on_c, 2, 65, 94
5, 37851, Note_on_c, 2, 61, 0
5, 37856, Note_on_c, 2, 65, 0
5, 37859, Note_on_c, 2, 56, 0
5, 37871, Note_on_c, 2, 56, 63
5, 37872, Note_on_c, 2, 61, 80
5, 37876, Note_on_c, 2, 65, 75
5, 37887, Note_on_c, 2, 61, 0
5, 37889, Note_on_c, 2, 56, 0
5, 37893, Note_on_c, 2, 65, 0
5, 38032, Note_on_c, 2, 67, 97
5, 38033, Note_on_c, 2, 63, 87
5, 38034, Note_on_c, 2, 58, 83
5, 38056, Note_on_c, 2, 67, 0
5, 38091, Note_on_c, 2, 63, 0
5, 38096, Note_on_c, 2, 58, 0
5, 38111, Note_on_c, 2, 58, 76
5, 38112, Note_on_c, 2, 63, 95
5, 38125, Note_on_c, 2, 63, 0
5, 38130, Note_on_c, 2, 58, 0
5, 38279, Note_on_c, 2, 63, 95
5, 38280, Note_on_c, 2, 58, 91
5, 38281, Note_on_c, 2, 55, 91
5, 38335, Note_on_c, 2, 63, 0
5, 38336, Note_on_c, 2, 58, 0
5, 38337, Note_on_c, 2, 55, 0
5, 38353, Note_on_c, 2, 58, 87
5, 38354, Note_on_c, 2, 63, 95
5, 38368, Note_on_c, 2, 58, 0
5, 38376, Note_on_c, 2, 63, 0
5, 38509, Note_on_c, 2, 57, 97
5, 38509, Note_on_c, 2, 63, 95
5, 38511, Note_on_c, 2, 60, 104
5, 38567, Note_on_c, 2, 60, 0
5, 38571, Note_on_c, 2, 63, 0
5, 38572, Note_on_c, 2, 57, 0
5, 38592, Note_on_c, 2, 63, 87
5, 38609, Note_on_c, 2, 63, 0
5, 38761, Note_on_c, 2, 60, 97
5, 38762, Note_on_c, 2, 63, 87
5, 38763, Note_on_c, 2, 56, 80
5, 38790, Note_on_c, 2, 60, 0
5, 38816, Note_on_c, 2, 56, 0
5, 38821, Note_on_c, 2, 63, 0
5, 38836, Note_on_c, 2, 56, 68
5, 38837, Note_on_c, 2, 63, 91
5, 38838, Note_on_c, 2, 60, 88
5, 38845, Note_on_c, 2, 60, 0
5, 38846, Note_on_c, 2, 56, 0
5, 38855, Note_on_c, 2, 63, 0
5, 39004, Note_on_c, 2, 61, 76
5, 39005, Note_on_c, 2, 56, 80
5, 39008, Note_on_c, 2, 65, 88
5, 39062, Note_on_c, 2, 61, 0
5, 39064, Note_on_c, 2, 65, 0
5, 39064, Note_on_c, 2, 56, 0
5, 39081, Note_on_c, 2, 56, 73
5, 39082, Note_on_c, 2, 61, 83
5, 39084, Note_on_c, 2, 65, 86
5, 39093, Note_on_c, 2, 61, 0
5, 39096, Note_on_c, 2, 65, 0
5, 39096, Note_on_c, 2, 56, 0
5, 39252, Note_on_c, 2, 61, 91
5, 39252, Note_on_c, 2, 56, 87
5, 39253, Note_on_c, 2, 65, 94
5, 39311, Note_on_c, 2, 56, 0
5, 39311, Note_on_c, 2, 61, 0
5, 39312, Note_on_c, 2, 65, 0
5, 39324, Note_on_c, 2, 56, 71
5, 39326, Note_on_c, 2, 61, 83
5, 39327, Note_on_c, 2, 65, 83
5, 39337, Note_on_c, 2, 61, 0
5, 39341, Note_on_c, 2, 65, 0
5, 39341, Note_on_c, 2, 56, 0
5, 39483, Note_on_c, 2, 61, 91
5, 39485, Note_on_c, 2, 56, 80
5, 39488, Note_on_c, 2, 65, 83
5, 39537, Note_on_c, 2, 65, 0
5, 39539, Note_on_c, 2, 61, 0
5, 39542, Note_on_c, 2, 56, 0
5, 39555, Note_on_c, 2, 56, 68
5, 39557, Note_on_c, 2, 65, 94
5, 39559, Note_on_c, 2, 61, 83
5, 39567, Note_on_c, 2, 61, 0
5, 39572, Note_on_c, 2, 65, 0
5, 39572, Note_on_c, 2, 56, 0
5, 39724, Note_on_c, 2, 56, 80
5, 39725, Note_on_c, 2, 61, 83
5, 39726, Note_on_c, 2, 65, 88
5, 39782, Note_on_c, 2, 61, 0
5, 39783, Note_on_c, 2, 56, 0
5, 39784, Note_on_c, 2, 65, 0
5, 39799, Note_on_c, 2, 56, 71
5, 39800, Note_on_c, 2, 61, 87
5, 39801, Note_on_c, 2, 65, 88
5, 39814, Note_on_c, 2, 61, 0
5, 39815, Note_on_c, 2, 56, 0
5, 39819, Note_on_c, 2, 65, 0
5, 39957, Note_on_c, 2, 63, 87
5, 39959, Note_on_c, 2, 58, 76
5, 39960, Note_on_c, 2, 67, 88
5, 40015, Note_on_c, 2, 63, 0
5, 40017, Note_on_c, 2, 58, 0
5, 40020, Note_on_c, 2, 67, 0
5, 40034, Note_on_c, 2, 58, 73
5, 40034, Note_on_c, 2, 63, 91
5, 40036, Note_on_c, 2, 67, 88
5, 40045, Note_on_c, 2, 63, 0
5, 40048, Note_on_c, 2, 58, 0
5, 40051, Note_on_c, 2, 67, 0
5, 40194, Note_on_c, 2, 63, 87
5, 40196, Note_on_c, 2, 58, 80
5, 40197, Note_on_c, 2, 67, 83
5, 40250, Note_on_c, 2, 63, 0
5, 40252, Note_on_c, 2, 67, 0
5, 40254, Note_on_c, 2, 58, 0
5, 40269, Note_on_c, 2, 58, 73
5, 40270, Note_on_c, 2, 63, 87
5, 40273, Note_on_c, 2, 67, 79
5, 40280, Note_on_c, 2, 63, 0
5, 40285, Note_on_c, 2, 58, 0
5, 40286, Note_on_c, 2, 67, 0
5, 40446, Note_on_c, 2, 63, 95
5, 40446, Note_on_c, 2, 58, 87
5, 40449, Note_on_c, 2, 67, 86
5, 40502, Note_on_c, 2, 63, 0
5, 40507, Note_on_c, 2, 67, 0
5, 40508, Note_on_c, 2, 58, 0
5, 40517, Note_on_c, 2, 58, 53
5, 40518, Note_on_c, 2, 63, 83
5, 40522, Note_on_c, 2, 67, 73
5, 40529, Note_on_c, 2, 63, 0
5, 40536, Note_on_c, 2, 58, 0
5, 40537, Note_on_c, 2, 67, 0
5, 40682, Note_on_c, 2, 63, 95
5, 40683, Note_on_c, 2, 58, 80
5, 40685, Note_on_c, 2, 67, 83
5, 40739, Note_on_c, 2, 63, 0
5, 40742, Note_on_c, 2, 67, 0
5, 40742, Note_on_c, 2, 58, 0
5, 40755, Note_on_c, 2, 58, 73
5, 40755, Note_on_c, 2, 63, 91
5, 40758, Note_on_c, 2, 67, 67
5, 40768, Note_on_c, 2, 67, 0
5, 40772, Note_on_c, 2, 63, 0
5, 40775, Note_on_c, 2, 58, 0
5, 40911, Note_on_c, 2, 65, 94
5, 40912, Note_on_c, 2, 61, 73
5, 40913, Note_on_c, 2, 56, 65
5, 40965, Note_on_c, 2, 61, 0
5, 40969, Note_on_c, 2, 56, 0
5, 40973, Note_on_c, 2, 65, 0
5, 40986, Note_on_c, 2, 65, 97
5, 41004, Note_on_c, 2, 65, 0
5, 41157, Note_on_c, 2, 65, 97
5, 41159, Note_on_c, 2, 60, 97
5, 41159, Note_on_c, 2, 62, 101
5, 41160, Note_on_c, 2, 57, 81
5, 41221, Note_on_c, 2, 60, 0
5, 41222, Note_on_c, 2, 62, 0
5, 41223, Note_on_c, 2, 57, 0
5, 41236, Note_on_c, 2, 57, 73
5, 41238, Note_on_c, 2, 60, 83
5, 41238, Note_on_c, 2, 62, 88
5, 41252, Note_on_c, 2, 62, 0
5, 41253, Note_on_c, 2, 60, 0
5, 41254, Note_on_c, 2, 57, 0
5, 41256, Note_on_c, 2, 65, 0
5, 41393, Note_on_c, 2, 56, 71
5, 41394, Note_on_c, 2, 62, 94
5, 41394, Note_on_c, 2, 60, 79
5, 41442, Note_on_c, 2, 60, 0
5, 41445, Note_on_c, 2, 62, 0
5, 41446, Note_on_c, 2, 56, 0
5, 41466, Note_on_c, 2, 56, 71
5, 41470, Note_on_c, 2, 62, 91
5, 41470, Note_on_c, 2, 60, 75
5, 41481, Note_on_c, 2, 60, 0
5, 41481, Note_on_c, 2, 62, 0
5, 41483, Note_on_c, 2, 56, 0
5, 41637, Note_on_c, 2, 67, 94
5, 41638, Note_on_c, 2, 62, 101
5, 41638, Note_on_c, 2, 60, 94
5, 41639, Note_on_c, 2, 56, 83
5, 41695, Note_on_c, 2, 56, 0
5, 41695, Note_on_c, 2, 62, 0
5, 41696, Note_on_c, 2, 60, 0
5, 41697, Note_on_c, 2, 67, 0
5, 41713, Note_on_c, 2, 56, 73
5, 41714, Note_on_c, 2, 67, 83
5, 41718, Note_on_c, 2, 60, 86
5, 41727, Note_on_c, 2, 60, 0
5, 41730, Note_on_c, 2, 56, 0
5, 41731, Note_on_c, 2, 67, 0
5, 41885, Note_on_c, 2, 62, 94
5, 41886, Note_on_c, 2, 58, 73
5, 41887, Note_on_c, 2, 65, 91
5, 41888, Note_on_c, 2, 55, 91
5, 41946, Note_on_c, 2, 58, 0
5, 41948, Note_on_c, 2, 62, 0
5, 41948, Note_on_c, 2, 55, 0
5, 41952, Note_on_c, 2, 65, 0
5, 41960, Note_on_c, 2, 58, 73
5, 41960, Note_on_c, 2, 65, 64
5, 41962, Note_on_c, 2, 55, 70
5, 41963, Note_on_c, 2, 62, 97
5, 41974, Note_on_c, 2, 62, 0
5, 41974, Note_on_c, 2, 58, 0
5, 41975, Note_on_c, 2, 55, 0
5, 41978, Note_on_c, 2, 65, 0
5, 42130, Note_on_c, 2, 62, 104
5, 42130, Note_on_c, 2, 58, 83
5, 42131, Note_on_c, 2, 65, 91
5, 42133, Note_on_c, 2, 55, 83
5, 42189, Note_on_c, 2, 58, 0
5, 42190, Note_on_c, 2, 65, 0
5, 42191, Note_on_c, 2, 62, 0
5, 42192, Note_on_c, 2, 55, 0
5, 42206, Note_on_c, 2, 58, 73
5, 42206, Note_on_c, 2, 65, 91
5, 42207, Note_on_c, 2, 55, 77
5, 42208, Note_on_c, 2, 62, 83
5, 42217, Note_on_c, 2, 58, 0
5, 42219, Note_on_c, 2, 62, 0
5, 42221, Note_on_c, 2, 55, 0
5, 42228, Note_on_c, 2, 65, 0
5, 42364, Note_on_c, 2, 61, 83
5, 42364, Note_on_c, 2, 55, 81
5, 42365, Note_on_c, 2, 65, 94
5, 42424, Note_on_c, 2, 61, 0
5, 42428, Note_on_c, 2, 65, 0
5, 42429, Note_on_c, 2, 55, 0
5, 42440, Note_on_c, 2, 55, 62
5, 42441, Note_on_c, 2, 61, 76
5, 42442, Note_on_c, 2, 65, 83
5, 42454, Note_on_c, 2, 61, 0
5, 42456, Note_on_c, 2, 55, 0
5, 42457, Note_on_c, 2, 65, 0
5, 42603, Note_on_c, 2, 61, 83
5, 42604, Note_on_c, 2, 55, 81
5, 42605, Note_on_c, 2, 65, 91
5, 42670, Note_on_c, 2, 55, 0
5, 42671, Note_on_c, 2, 61, 0
5, 42681, Note_on_c, 2, 61, 53
5, 42686, Note_on_c, 2, 55, 75
5, 42705, Note_on_c, 2, 55, 0
5, 42708, Note_on_c, 2, 61, 0
5, 42713, Note_on_c, 2, 65, 0
5, 42715, Note_on_c, 2, 55, 88
5, 42718, Note_on_c, 2, 60, 101
5, 42731, Note_on_c, 2, 60, 0
5, 42733, Note_on_c, 2, 55, 0
5, 43215, Note_on_c, 2, 60, 101
5, 43216, Note_on_c, 2, 57, 86
5, 43216, Note_on_c, 2, 65, 91
5, 43231, Note_on_c, 2, 60, 0
5, 43235, Note_on_c, 2, 57, 0
5, 43240, Note_on_c, 2, 65, 0
5, 43336, Note_on_c, 2, 55, 79
5, 43338, Note_on_c, 2, 65, 83
5, 43338, Note_on_c, 2, 60, 81
5, 43623, Note_on_c, 2, 60, 0
5, 43624, Note_on_c, 2, 55, 0
5, 43625, Note_on_c, 2, 65, 0
5, 43754, Note_on_c, 2, 57, 86
5, 43755, Note_on_c, 2, 62, 91
5, 43757, Note_on_c, 2, 67, 77
5, 43768, Note_on_c, 2, 62, 0
5, 43771, Note_on_c, 2, 57, 0
5, 43775, Note_on_c, 2, 67, 0
5, 43878, Note_on_c, 2, 57, 83
5, 43878, Note_on_c, 2, 62, 86
5, 43881, Note_on_c, 2, 67, 67
5, 43888, Note_on_c, 2, 62, 0
5, 43890, Note_on_c, 2, 67, 0
5, 43893, Note_on_c, 2, 57, 0
5, 44292, Note_on_c, 2, 62, 79
5, 44292, Note_on_c, 2, 62, 0
5, 44292, Note_on_c, 2, 57, 75
5, 44292, Note_on_c, 2, 57, 0
5, 44292, Note_on_c, 2, 67, 73
5, 44292, Note_on_c, 2, 67, 0
5, 44292, Note_on_c, 2, 62, 83
5, 44292, Note_on_c, 2, 62, 0
5, 44292, Note_on_c, 2, 57, 73
5, 44292, Note_on_c, 2, 57, 0
5, 44292, Note_on_c, 2, 67, 75
5, 44292, Note_on_c, 2, 67, 0
5, 44292, Note_on_c, 2, 62, 86
5, 44292, Note_on_c, 2, 62, 0
5, 44292, Note_on_c, 2, 57, 75
5, 44292, Note_on_c, 2, 57, 0
5, 44292, Note_on_c, 2, 67, 79
5, 44292, Note_on_c, 2, 67, 0
5, 44370, Note_on_c, 2, 57, 94
5, 44371, Note_on_c, 2, 62, 97
5, 44372, Note_on_c, 2, 67, 86
5, 44380, Note_on_c, 2, 62, 0
5, 44384, Note_on_c, 2, 57, 0
5, 44387, Note_on_c, 2, 67, 0
5, 44488, Note_on_c, 2, 62, 94
5, 44488, Note_on_c, 2, 57, 88
5, 44489, Note_on_c, 2, 67, 88
5, 44499, Note_on_c, 2, 62, 0
5, 44502, Note_on_c, 2, 57, 0
5, 44506, Note_on_c, 2, 67, 0
5, 44612, Note_on_c, 2, 67, 79
5, 44613, Note_on_c, 2, 57, 88
5, 44613, Note_on_c, 2, 62, 88
5, 44620, Note_on_c, 2, 62, 0
5, 44625, Note_on_c, 2, 57, 0
5, 44628, Note_on_c, 2, 67, 0
5, 44727, Note_on_c, 2, 60, 70
5, 44728, Note_on_c, 2, 55, 63
5, 44737, Note_on_c, 2, 60, 0
5, 44741, Note_on_c, 2, 55, 0
5, 44844, Note_on_c, 2, 55, 75
5, 44845, Note_on_c, 2, 60, 81
5, 44846, Note_on_c, 2, 65, 77
5, 44856, Note_on_c, 2, 60, 0
5, 44859, Note_on_c, 2, 65, 0
5, 44859, Note_on_c, 2, 55, 0
5, 44958, Note_on_c, 2, 55, 77
5, 44959, Note_on_c, 2, 60, 81
5, 44972, Note_on_c, 2, 60, 0
5, 44976, Note_on_c, 2, 55, 0
5, 45076, Note_on_c, 2, 60, 73
5, 45077, Note_on_c, 2, 55, 66
5, 45091, Note_on_c, 2, 60, 0
5, 45094, Note_on_c, 2, 55, 0
5, 45119, Note_on_c, 2, 55, 94
5, 45120, Note_on_c, 2, 60, 101
5, 45120, Note_on_c, 2, 65, 94
5, 45135, Note_on_c, 2, 60, 0
5, 45140, Note_on_c, 2, 65, 0
5, 45140, Note_on_c, 2, 55, 0
5, 45247, Note_on_c, 2, 55, 101
5, 45248, Note_on_c, 2, 60, 104
5, 45248, Note_on_c, 2, 65, 97
5, 45552, Note_on_c, 2, 60, 0
5, 45556, Note_on_c, 2, 65, 0
5, 45556, Note_on_c, 2, 55, 0
5, 45685, Note_on_c, 2, 62, 53
5, 45693, Note_on_c, 2, 62, 0
5, 45799, Note_on_c, 2, 62, 79
5, 45800, Note_on_c, 2, 57, 66
5, 45813, Note_on_c, 2, 62, 0
5, 45815, Note_on_c, 2, 57, 0
5, 45919, Note_on_c, 2, 62, 79
5, 45920, Note_on_c, 2, 57, 70
5, 45921, Note_on_c, 2, 67, 73
5, 45933, Note_on_c, 2, 62, 0
5, 45936, Note_on_c, 2, 67, 0
5, 45936, Note_on_c, 2, 57, 0
5, 46043, Note_on_c, 2, 62, 83
5, 46043, Note_on_c, 2, 57, 77
5, 46044, Note_on_c, 2, 67, 73
5, 46055, Note_on_c, 2, 62, 0
5, 46058, Note_on_c, 2, 67, 0
5, 46058, Note_on_c, 2, 57, 0
5, 46156, Note_on_c, 2, 57, 71
5, 46157, Note_on_c, 2, 62, 79
5, 46160, Note_on_c, 2, 67, 67
5, 46169, Note_on_c, 2, 62, 0
5, 46173, Note_on_c, 2, 67, 0
5, 46173, Note_on_c, 2, 57, 0
5, 46272, Note_on_c, 2, 57, 68
5, 46274, Note_on_c, 2, 62, 75
5, 46279, Note_on_c, 2, 67, 59
5, 46284, Note_on_c, 2, 62, 0
5, 46287, Note_on_c, 2, 67, 0
5, 46288, Note_on_c, 2, 57, 0
5, 46396, Note_on_c, 2, 62, 73
5, 46396, Note_on_c, 2, 57, 64
5, 46408, Note_on_c, 2, 62, 0
5, 46411, Note_on_c, 2, 57, 0
5, 46522, Note_on_c, 2, 57, 63
5, 46524, Note_on_c, 2, 62, 66
5, 46533, Note_on_c, 2, 62, 0
5, 46536, Note_on_c, 2, 57, 0
5, 46754, Note_on_c, 2, 60, 79
5, 46754, Note_on_c, 2, 61, 65
5, 46756, Note_on_c, 2, 55, 62
5, 46763, Note_on_c, 2, 61, 0
5, 46764, Note_on_c, 2, 60, 0
5, 46765, Note_on_c, 2, 55, 0
5, 46926, Note_on_c, 2, 55, 55
5, 46927, Note_on_c, 2, 61, 44
5, 46928, Note_on_c, 2, 60, 60
5, 46929, Note_on_c, 2, 65, 64
5, 46980, Note_on_c, 2, 61, 0
5, 46981, Note_on_c, 2, 60, 0
5, 46983, Note_on_c, 2, 65, 0
5, 46985, Note_on_c, 2, 55, 0
5, 47171, Note_on_c, 2, 62, 79
5, 47171, Note_on_c, 2, 57, 75
5, 47172, Note_on_c, 2, 63, 59
5, 47174, Note_on_c, 2, 67, 79
5, 47229, Note_on_c, 2, 63, 0
5, 47230, Note_on_c, 2, 62, 0
5, 47237, Note_on_c, 2, 67, 0
5, 47246, Note_on_c, 2, 63, 59
5, 47246, Note_on_c, 2, 62, 71
5, 47255, Note_on_c, 2, 62, 0
5, 47255, Note_on_c, 2, 63, 0
5, 47257, Note_on_c, 2, 57, 0
5, 47418, Note_on_c, 2, 62, 67
5, 47420, Note_on_c, 2, 63, 51
5, 47420, Note_on_c, 2, 57, 62
5, 47421, Note_on_c, 2, 67, 73
5, 47476, Note_on_c, 2, 63, 0
5, 47477, Note_on_c, 2, 62, 0
5, 47488, Note_on_c, 2, 63, 61
5, 47488, Note_on_c, 2, 62, 68
5, 47500, Note_on_c, 2, 62, 0
5, 47501, Note_on_c, 2, 63, 0
5, 47502, Note_on_c, 2, 67, 0
5, 47505, Note_on_c, 2, 57, 0
5, 47641, Note_on_c, 2, 62, 64
5, 47642, Note_on_c, 2, 60, 63
5, 47643, Note_on_c, 2, 57, 60
5, 47645, Note_on_c, 2, 65, 73
5, 47697, Note_on_c, 2, 62, 0
5, 47699, Note_on_c, 2, 60, 0
5, 47701, Note_on_c, 2, 57, 0
5, 47701, Note_on_c, 2, 65, 0
5, 47714, Note_on_c, 2, 57, 67
5, 47715, Note_on_c, 2, 60, 79
5, 47717, Note_on_c, 2, 62, 86
5, 47722, Note_on_c, 2, 65, 52
5, 47728, Note_on_c, 2, 65, 0
5, 47729, Note_on_c, 2, 62, 0
5, 47729, Note_on_c, 2, 60, 0
5, 47732, Note_on_c, 2, 57, 0
5, 47885, Note_on_c, 2, 60, 64
5, 47886, Note_on_c, 2, 62, 71
5, 47887, Note_on_c, 2, 57, 63
5, 47888, Note_on_c, 2, 65, 75
5, 47942, Note_on_c, 2, 62, 0
5, 47943, Note_on_c, 2, 60, 0
5, 47944, Note_on_c, 2, 65, 0
5, 47945, Note_on_c, 2, 57, 0
5, 47960, Note_on_c, 2, 62, 88
5, 47960, Note_on_c, 2, 60, 81
5, 47961, Note_on_c, 2, 57, 64
5, 47963, Note_on_c, 2, 65, 68
5, 47975, Note_on_c, 2, 60, 0
5, 47976, Note_on_c, 2, 62, 0
5, 47977, Note_on_c, 2, 57, 0
5, 47978, Note_on_c, 2, 65, 0
5, 48121, Note_on_c, 2, 61, 80
5, 48123, Note_on_c, 2, 56, 80
5, 48141, Note_on_c, 2, 61, 0
5, 48143, Note_on_c, 2, 56, 0
5, 48246, Note_on_c, 2, 61, 91
5, 48247, Note_on_c, 2, 55, 101
5, 48248, Note_on_c, 2, 65, 97
5, 48413, Note_on_c, 2, 55, 0
5, 48415, Note_on_c, 2, 65, 0
5, 48417, Note_on_c, 2, 61, 0
5, 48482, Note_on_c, 2, 65, 83
5, 48483, Note_on_c, 2, 60, 94
5, 48483, Note_on_c, 2, 55, 81
5, 48484, Note_on_c, 2, 57, 79
5, 48496, Note_on_c, 2, 60, 0
5, 48498, Note_on_c, 2, 57, 0
5, 48500, Note_on_c, 2, 55, 0
5, 48503, Note_on_c, 2, 65, 0
5, 48608, Note_on_c, 2, 60, 101
5, 48608, Note_on_c, 2, 65, 88
5, 48610, Note_on_c, 2, 55, 91
5, 48836, Note_on_c, 2, 60, 0
5, 48837, Note_on_c, 2, 65, 0
5, 48841, Note_on_c, 2, 55, 0
5, 48960, Note_on_c, 2, 57, 94
5, 48960, Note_on_c, 2, 52, 81
5, 48961, Note_on_c, 2, 58, 73
5, 48963, Note_on_c, 2, 62, 81
5, 48972, Note_on_c, 2, 58, 0
5, 48974, Note_on_c, 2, 57, 0
5, 48977, Note_on_c, 2, 52, 0
5, 48978, Note_on_c, 2, 62, 0
5, 49080, Note_on_c, 2, 58, 65
5, 49081, Note_on_c, 2, 52, 71
5, 49083, Note_on_c, 2, 57, 73
5, 49084, Note_on_c, 2, 62, 83
5, 49338, Note_on_c, 2, 52, 0
5, 49340, Note_on_c, 2, 57, 0
5, 49346, Note_on_c, 2, 58, 0
5, 49353, Note_on_c, 2, 62, 0
5, 49512, Note_on_c, 2, 62, 77
5, 49515, Note_on_c, 2, 57, 63
5, 49516, Note_on_c, 2, 67, 56
5, 49522, Note_on_c, 2, 62, 0
5, 49524, Note_on_c, 2, 57, 0
5, 49525, Note_on_c, 2, 67, 0
5, 49638, Note_on_c, 2, 62, 75
5, 49639, Note_on_c, 2, 57, 68
5, 49640, Note_on_c, 2, 67, 71
5, 49650, Note_on_c, 2, 62, 0
5, 49655, Note_on_c, 2, 67, 0
5, 49655, Note_on_c, 2, 57, 0
5, 49760, Note_on_c, 2, 62, 73
5, 49761, Note_on_c, 2, 57, 67
5, 49764, Note_on_c, 2, 67, 59
5, 49774, Note_on_c, 2, 62, 0
5, 49776, Note_on_c, 2, 67, 0
5, 49777, Note_on_c, 2, 57, 0
5, 49884, Note_on_c, 2, 62, 77
5, 49884, Note_on_c, 2, 57, 70
5, 49887, Note_on_c, 2, 67, 67
5, 49896, Note_on_c, 2, 62, 0
5, 49900, Note_on_c, 2, 67, 0
5, 49900, Note_on_c, 2, 57, 0
5, 49998, Note_on_c, 2, 62, 73
5, 50000, Note_on_c, 2, 57, 58
5, 50010, Note_on_c, 2, 57, 0
5, 50010, Note_on_c, 2, 62, 0
5, 50121, Note_on_c, 2, 57, 79
5, 50123, Note_on_c, 2, 62, 86
5, 50124, Note_on_c, 2, 67, 81
5, 50134, Note_on_c, 2, 62, 0
5, 50138, Note_on_c, 2, 57, 0
5, 50139, Note_on_c, 2, 67, 0
5, 50245, Note_on_c, 2, 62, 86
5, 50246, Note_on_c, 2, 57, 75
5, 50247, Note_on_c, 2, 67, 86
5, 50258, Note_on_c, 2, 62, 0
5, 50261, Note_on_c, 2, 57, 0
5, 50265, Note_on_c, 2, 67, 0
5, 50875, Note_on_c, 2, 61, 80
5, 50877, Note_on_c, 2, 56, 68
5, 50878, Note_on_c, 2, 65, 83
5, 50885, Note_on_c, 2, 56, 0
5, 50885, Note_on_c, 2, 61, 0
5, 50889, Note_on_c, 2, 65, 0
5, 51001, Note_on_c, 2, 60, 81
5, 51002, Note_on_c, 2, 56, 57
5, 51002, Note_on_c, 2, 63, 68
5, 51021, Note_on_c, 2, 60, 0
5, 51022, Note_on_c, 2, 63, 0
5, 51023, Note_on_c, 2, 56, 0
5, 51131, Note_on_c, 2, 62, 94
5, 51131, Note_on_c, 2, 59, 91
5, 51132, Note_on_c, 2, 56, 73
5, 51354, Note_on_c, 2, 59, 0
5, 51354, Note_on_c, 2, 62, 0
5, 51358, Note_on_c, 2, 56, 0
5, 51510, Note_on_c, 2, 61, 42
5, 51539, Note_on_c, 2, 61, 0
5, 51721, Note_on_c, 2, 70, 80
5, 51722, Note_on_c, 2, 61, 76
5, 51722, Note_on_c, 2, 66, 76
5, 51800, Note_on_c, 2, 66, 0
5, 51832, Note_on_c, 2, 61, 0
5, 51834, Note_on_c, 2, 70, 0
5, 51970, Note_on_c, 2, 65, 81
5, 51971, Note_on_c, 2, 61, 53
5, 51973, Note_on_c, 2, 68, 49
5, 52049, Note_on_c, 2, 61, 0
5, 52049, Note_on_c, 2, 65, 0
5, 52052, Note_on_c, 2, 68, 0
5, 52217, Note_on_c, 2, 65, 81
5, 52218, Note_on_c, 2, 61, 57
5, 52219, Note_on_c, 2, 68, 65
5, 52288, Note_on_c, 2, 65, 0
5, 52289, Note_on_c, 2, 68, 0
5, 52291, Note_on_c, 2, 61, 0
5, 52453, Note_on_c, 2, 58, 57
5, 52455, Note_on_c, 2, 63, 65
5, 52461, Note_on_c, 2, 66, 53
5, 52521, Note_on_c, 2, 63, 0
5, 52528, Note_on_c, 2, 58, 0
5, 52530, Note_on_c, 2, 66, 0
5, 52693, Note_on_c, 2, 63, 73
5, 52694, Note_on_c, 2, 57, 73
5, 52695, Note_on_c, 2, 68, 80
5, 52766, Note_on_c, 2, 63, 0
5, 52771, Note_on_c, 2, 57, 0
5, 52773, Note_on_c, 2, 68, 0
5, 52934, Note_on_c, 2, 56, 63
5, 52949, Note_on_c, 2, 66, 28
5, 52978, Note_on_c, 2, 56, 0
5, 52987, Note_on_c, 2, 66, 0
5, 53040, Note_on_c, 2, 57, 66
5, 53047, Note_on_c, 2, 68, 30
5, 53067, Note_on_c, 2, 57, 0
5, 53069, Note_on_c, 2, 68, 0
5, 53163, Note_on_c, 2, 68, 80
5, 53165, Note_on_c, 2, 63, 63
5, 53165, Note_on_c, 2, 57, 77
5, 53240, Note_on_c, 2, 63, 0
5, 53242, Note_on_c, 2, 57, 0
5, 53257, Note_on_c, 2, 68, 0
5, 53404, Note_on_c, 2, 56, 50
5, 53406, Note_on_c, 2, 65, 81
5, 53408, Note_on_c, 2, 61, 36
5, 53470, Note_on_c, 2, 61, 0
5, 53482, Note_on_c, 2, 56, 0
5, 53488, Note_on_c, 2, 65, 0
5, 53635, Note_on_c, 2, 56, 57
5, 53637, Note_on_c, 2, 65, 81
5, 53637, Note_on_c, 2, 61, 63
5, 53686, Note_on_c, 2, 61, 0
5, 53696, Note_on_c, 2, 56, 0
5, 53702, Note_on_c, 2, 65, 0
5, 53713, Note_on_c, 2, 56, 49
5, 53714, Note_on_c, 2, 61, 76
5, 53716, Note_on_c, 2, 65, 75
5, 53729, Note_on_c, 2, 61, 0
5, 53734, Note_on_c, 2, 56, 0
5, 53736, Note_on_c, 2, 65, 0
5, 53872, Note_on_c, 2, 58, 76
5, 53873, Note_on_c, 2, 63, 73
5, 53877, Note_on_c, 2, 67, 81
5, 53931, Note_on_c, 2, 63, 0
5, 53936, Note_on_c, 2, 58, 0
5, 53944, Note_on_c, 2, 67, 0
5, 53954, Note_on_c, 2, 58, 61
5, 53954, Note_on_c, 2, 63, 76
5, 53955, Note_on_c, 2, 67, 79
5, 53965, Note_on_c, 2, 63, 0
5, 53968, Note_on_c, 2, 58, 0
5, 53972, Note_on_c, 2, 67, 0
5, 54124, Note_on_c, 2, 63, 80
5, 54125, Note_on_c, 2, 58, 83
5, 54126, Note_on_c, 2, 67, 97
5, 54182, Note_on_c, 2, 63, 0
5, 54183, Note_on_c, 2, 58, 0
5, 54192, Note_on_c, 2, 67, 0
5, 54203, Note_on_c, 2, 63, 83
5, 54203, Note_on_c, 2, 67, 79
5, 54204, Note_on_c, 2, 58, 65
5, 54216, Note_on_c, 2, 63, 0
5, 54220, Note_on_c, 2, 58, 0
5, 54222, Note_on_c, 2, 67, 0
5, 54367, Note_on_c, 2, 55, 83
5, 54368, Note_on_c, 2, 61, 76
5, 54369, Note_on_c, 2, 60, 91
5, 54370, Note_on_c, 2, 65, 88
5, 54432, Note_on_c, 2, 61, 0
5, 54433, Note_on_c, 2, 60, 0
5, 54440, Note_on_c, 2, 65, 0
5, 54448, Note_on_c, 2, 61, 68
5, 54448, Note_on_c, 2, 60, 81
5, 54449, Note_on_c, 2, 65, 53
5, 54461, Note_on_c, 2, 60, 0
5, 54462, Note_on_c, 2, 61, 0
5, 54463, Note_on_c, 2, 65, 0
5, 54465, Note_on_c, 2, 55, 0
5, 54607, Note_on_c, 2, 55, 77
5, 54608, Note_on_c, 2, 61, 65
5, 54609, Note_on_c, 2, 60, 83
5, 54610, Note_on_c, 2, 65, 77
5, 54667, Note_on_c, 2, 60, 0
5, 54667, Note_on_c, 2, 61, 0
5, 54671, Note_on_c, 2, 55, 0
5, 54676, Note_on_c, 2, 65, 0
5, 54683, Note_on_c, 2, 55, 62
5, 54684, Note_on_c, 2, 61, 68
5, 54684, Note_on_c, 2, 60, 83
5, 54684, Note_on_c, 2, 65, 59
5, 54698, Note_on_c, 2, 60, 0
5, 54698, Note_on_c, 2, 61, 0
5, 54701, Note_on_c, 2, 55, 0
5, 54701, Note_on_c, 2, 65, 0
5, 54848, Note_on_c, 2, 55, 79
5, 54850, Note_on_c, 2, 60, 83
5, 54850, Note_on_c, 2, 61, 68
5, 54852, Note_on_c, 2, 65, 79
5, 54909, Note_on_c, 2, 61, 0
5, 54911, Note_on_c, 2, 60, 0
5, 54923, Note_on_c, 2, 60, 70
5, 54924, Note_on_c, 2, 61, 68
5, 54936, Note_on_c, 2, 61, 0
5, 54936, Note_on_c, 2, 60, 0
5, 54940, Note_on_c, 2, 65, 0
5, 54942, Note_on_c, 2, 55, 0
5, 55078, Note_on_c, 2, 55, 75
5, 55078, Note_on_c, 2, 61, 61
5, 55079, Note_on_c, 2, 60, 70
5, 55080, Note_on_c, 2, 65, 81
5, 55140, Note_on_c, 2, 61, 0
5, 55141, Note_on_c, 2, 60, 0
5, 55146, Note_on_c, 2, 65, 0
5, 55148, Note_on_c, 2, 55, 0
5, 55158, Note_on_c, 2, 55, 61
5, 55159, Note_on_c, 2, 65, 67
5, 55160, Note_on_c, 2, 61, 73
5, 55160, Note_on_c, 2, 60, 88
5, 55176, Note_on_c, 2, 60, 0
5, 55177, Note_on_c, 2, 61, 0
5, 55178, Note_on_c, 2, 55, 0
5, 55180, Note_on_c, 2, 65, 0
5, 55321, Note_on_c, 2, 60, 104
5, 55323, Note_on_c, 2, 58, 76
5, 55326, Note_on_c, 2, 63, 76
5, 55380, Note_on_c, 2, 60, 0
5, 55383, Note_on_c, 2, 63, 0
5, 55383, Note_on_c, 2, 58, 0
5, 55397, Note_on_c, 2, 58, 73
5, 55399, Note_on_c, 2, 60, 97
5, 55400, Note_on_c, 2, 63, 95
5, 55413, Note_on_c, 2, 60, 0
5, 55416, Note_on_c, 2, 58, 0
5, 55420, Note_on_c, 2, 63, 0
5, 55557, Note_on_c, 2, 63, 87
5, 55557, Note_on_c, 2, 60, 113
5, 55558, Note_on_c, 2, 58, 73
5, 55614, Note_on_c, 2, 60, 0
5, 55614, Note_on_c, 2, 63, 0
5, 55616, Note_on_c, 2, 58, 0
5, 55633, Note_on_c, 2, 58, 76
5, 55633, Note_on_c, 2, 63, 91
5, 55634, Note_on_c, 2, 60, 97
5, 55649, Note_on_c, 2, 60, 0
5, 55653, Note_on_c, 2, 58, 0
5, 55656, Note_on_c, 2, 63, 0
5, 55800, Note_on_c, 2, 56, 71
5, 55802, Note_on_c, 2, 65, 97
5, 55802, Note_on_c, 2, 61, 57
5, 55854, Note_on_c, 2, 61, 0
5, 55858, Note_on_c, 2, 56, 0
5, 55863, Note_on_c, 2, 65, 0
5, 55880, Note_on_c, 2, 61, 80
5, 55884, Note_on_c, 2, 56, 51
5, 55892, Note_on_c, 2, 56, 0
5, 55892, Note_on_c, 2, 61, 0
5, 56048, Note_on_c, 2, 54, 83
5, 56051, Note_on_c, 2, 65, 94
5, 56052, Note_on_c, 2, 61, 68
5, 56084, Note_on_c, 2, 61, 0
5, 56102, Note_on_c, 2, 54, 0
5, 56110, Note_on_c, 2, 65, 0
5, 56118, Note_on_c, 2, 65, 86
5, 56120, Note_on_c, 2, 54, 68
5, 56136, Note_on_c, 2, 54, 0
5, 56143, Note_on_c, 2, 65, 0
5, 56293, Note_on_c, 2, 56, 80
5, 56293, Note_on_c, 2, 58, 71
5, 56296, Note_on_c, 2, 63, 53
5, 56352, Note_on_c, 2, 63, 0
5, 56352, Note_on_c, 2, 58, 0
5, 56355, Note_on_c, 2, 56, 0
5, 56375, Note_on_c, 2, 56, 73
5, 56376, Note_on_c, 2, 63, 87
5, 56376, Note_on_c, 2, 58, 73
5, 56385, Note_on_c, 2, 58, 0
5, 56390, Note_on_c, 2, 56, 0
5, 56394, Note_on_c, 2, 63, 0
5, 56532, Note_on_c, 2, 58, 91
5, 56532, Note_on_c, 2, 63, 87
5, 56534, Note_on_c, 2, 56, 76
5, 56591, Note_on_c, 2, 58, 0
5, 56593, Note_on_c, 2, 63, 0
5, 56596, Note_on_c, 2, 56, 0
5, 56610, Note_on_c, 2, 58, 80
5, 56612, Note_on_c, 2, 56, 53
5, 56613, Note_on_c, 2, 63, 87
5, 56624, Note_on_c, 2, 58, 0
5, 56627, Note_on_c, 2, 56, 0
5, 56629, Note_on_c, 2, 63, 0
5, 56770, Note_on_c, 2, 56, 87
5, 56770, Note_on_c, 2, 65, 101
5, 56772, Note_on_c, 2, 61, 73
5, 56824, Note_on_c, 2, 61, 0
5, 56832, Note_on_c, 2, 65, 0
5, 56833, Note_on_c, 2, 56, 0
5, 56845, Note_on_c, 2, 56, 59
5, 56845, Note_on_c, 2, 61, 83
5, 56857, Note_on_c, 2, 61, 0
5, 56860, Note_on_c, 2, 56, 0
5, 56998, Note_on_c, 2, 61, 83
5, 56998, Note_on_c, 2, 56, 76
5, 57000, Note_on_c, 2, 65, 91
5, 57049, Note_on_c, 2, 61, 0
5, 57052, Note_on_c, 2, 65, 0
5, 57055, Note_on_c, 2, 56, 0
5, 57072, Note_on_c, 2, 56, 59
5, 57072, Note_on_c, 2, 61, 71
5, 57073, Note_on_c, 2, 65, 68
5, 57083, Note_on_c, 2, 61, 0
5, 57087, Note_on_c, 2, 56, 0
5, 57089, Note_on_c, 2, 65, 0
5, 57234, Note_on_c, 2, 61, 83
5, 57234, Note_on_c, 2, 56, 80
5, 57235, Note_on_c, 2, 65, 91
5, 57283, Note_on_c, 2, 61, 0
5, 57286, Note_on_c, 2, 65, 0
5, 57288, Note_on_c, 2, 56, 0
5, 57308, Note_on_c, 2, 56, 68
5, 57310, Note_on_c, 2, 61, 71
5, 57311, Note_on_c, 2, 65, 70
5, 57321, Note_on_c, 2, 61, 0
5, 57325, Note_on_c, 2, 65, 0
5, 57325, Note_on_c, 2, 56, 0
5, 57471, Note_on_c, 2, 61, 83
5, 57472, Note_on_c, 2, 56, 80
5, 57475, Note_on_c, 2, 65, 86
5, 57532, Note_on_c, 2, 61, 0
5, 57533, Note_on_c, 2, 65, 0
5, 57537, Note_on_c, 2, 56, 0
5, 57549, Note_on_c, 2, 56, 59
5, 57550, Note_on_c, 2, 61, 87
5, 57550, Note_on_c, 2, 65, 81
5, 57564, Note_on_c, 2, 61, 0
5, 57564, Note_on_c, 2, 56, 0
5, 57567, Note_on_c, 2, 65, 0
5, 57711, Note_on_c, 2, 63, 91
5, 57714, Note_on_c, 2, 58, 73
5, 57718, Note_on_c, 2, 67, 79
5, 57770, Note_on_c, 2, 63, 0
5, 57777, Note_on_c, 2, 58, 0
5, 57779, Note_on_c, 2, 67, 0
5, 57789, Note_on_c, 2, 58, 53
5, 57791, Note_on_c, 2, 63, 87
5, 57792, Note_on_c, 2, 67, 79
5, 57802, Note_on_c, 2, 63, 0
5, 57807, Note_on_c, 2, 58, 0
5, 57808, Note_on_c, 2, 67, 0
5, 57958, Note_on_c, 2, 63, 87
5, 57959, Note_on_c, 2, 58, 80
5, 57960, Note_on_c, 2, 67, 91
5, 58012, Note_on_c, 2, 58, 0
5, 58013, Note_on_c, 2, 63, 0
5, 58025, Note_on_c, 2, 67, 0
5, 58035, Note_on_c, 2, 58, 61
5, 58035, Note_on_c, 2, 63, 83
5, 58038, Note_on_c, 2, 67, 75
5, 58051, Note_on_c, 2, 63, 0
5, 58056, Note_on_c, 2, 58, 0
5, 58058, Note_on_c, 2, 67, 0
5, 58201, Note_on_c, 2, 58, 80
5, 58203, Note_on_c, 2, 60, 97
5, 58203, Note_on_c, 2, 65, 104
5, 58258, Note_on_c, 2, 60, 0
5, 58260, Note_on_c, 2, 58, 0
5, 58266, Note_on_c, 2, 65, 0
5, 58280, Note_on_c, 2, 60, 97
5, 58280, Note_on_c, 2, 58, 57
5, 58282, Note_on_c, 2, 65, 88
5, 58294, Note_on_c, 2, 60, 0
5, 58295, Note_on_c, 2, 58, 0
5, 58296, Note_on_c, 2, 65, 0
5, 58441, Note_on_c, 2, 60, 97
5, 58443, Note_on_c, 2, 58, 73
5, 58445, Note_on_c, 2, 65, 94
5, 58498, Note_on_c, 2, 60, 0
5, 58502, Note_on_c, 2, 65, 0
5, 58502, Note_on_c, 2, 58, 0
5, 58518, Note_on_c, 2, 60, 94
5, 58518, Note_on_c, 2, 58, 55
5, 58521, Note_on_c, 2, 65, 81
5, 58533, Note_on_c, 2, 60, 0
5, 58534, Note_on_c, 2, 65, 0
5, 58534, Note_on_c, 2, 58, 0
5, 58681, Note_on_c, 2, 56, 76
5, 58681, Note_on_c, 2, 61, 71
5, 58682, Note_on_c, 2, 65, 88
5, 58736, Note_on_c, 2, 61, 0
5, 58738, Note_on_c, 2, 65, 0
5, 58741, Note_on_c, 2, 56, 0
5, 58754, Note_on_c, 2, 61, 87
5, 58755, Note_on_c, 2, 56, 68
5, 58769, Note_on_c, 2, 56, 0
5, 58769, Note_on_c, 2, 61, 0
5, 58924, Note_on_c, 2, 61, 80
5, 58925, Note_on_c, 2, 56, 71
5, 58933, Note_on_c, 2, 65, 61
5, 58979, Note_on_c, 2, 61, 0
5, 58983, Note_on_c, 2, 65, 0
5, 58988, Note_on_c, 2, 56, 0
5, 58998, Note_on_c, 2, 56, 59
5, 59001, Note_on_c, 2, 65, 97
5, 59002, Note_on_c, 2, 61, 76
5, 59014, Note_on_c, 2, 61, 0
5, 59018, Note_on_c, 2, 56, 0
5, 59021, Note_on_c, 2, 65, 0
5, 59174, Note_on_c, 2, 61, 76
5, 59176, Note_on_c, 2, 56, 73
5, 59179, Note_on_c, 2, 65, 83
5, 59237, Note_on_c, 2, 61, 0
5, 59242, Note_on_c, 2, 56, 0
5, 59243, Note_on_c, 2, 65, 0
5, 59251, Note_on_c, 2, 56, 44
5, 59253, Note_on_c, 2, 61, 76
5, 59263, Note_on_c, 2, 61, 0
5, 59266, Note_on_c, 2, 56, 0
5, 59407, Note_on_c, 2, 61, 87
5, 59408, Note_on_c, 2, 56, 80
5, 59408, Note_on_c, 2, 65, 94
5, 59463, Note_on_c, 2, 61, 0
5, 59468, Note_on_c, 2, 65, 0
5, 59468, Note_on_c, 2, 56, 0
5, 59482, Note_on_c, 2, 56, 65
5, 59484, Note_on_c, 2, 61, 71
5, 59485, Note_on_c, 2, 65, 83
5, 59494, Note_on_c, 2, 61, 0
5, 59496, Note_on_c, 2, 56, 0
5, 59500, Note_on_c, 2, 65, 0
5, 59642, Note_on_c, 2, 63, 80
5, 59644, Note_on_c, 2, 58, 73
5, 59646, Note_on_c, 2, 67, 83
5, 59700, Note_on_c, 2, 63, 0
5, 59702, Note_on_c, 2, 67, 0
5, 59704, Note_on_c, 2, 58, 0
5, 59720, Note_on_c, 2, 58, 73
5, 59721, Note_on_c, 2, 63, 91
5, 59723, Note_on_c, 2, 67, 91
5, 59732, Note_on_c, 2, 63, 0
5, 59734, Note_on_c, 2, 58, 0
5, 59737, Note_on_c, 2, 67, 0
5, 59883, Note_on_c, 2, 63, 87
5, 59884, Note_on_c, 2, 58, 73
5, 59887, Note_on_c, 2, 67, 83
5, 59942, Note_on_c, 2, 63, 0
5, 59945, Note_on_c, 2, 58, 0
5, 59948, Note_on_c, 2, 67, 0
5, 59957, Note_on_c, 2, 58, 53
5, 59959, Note_on_c, 2, 63, 87
5, 59974, Note_on_c, 2, 63, 0
5, 59976, Note_on_c, 2, 58, 0
5, 60120, Note_on_c, 2, 63, 83
5, 60120, Note_on_c, 2, 58, 71
5, 60122, Note_on_c, 2, 67, 86
5, 60179, Note_on_c, 2, 67, 0
5, 60180, Note_on_c, 2, 63, 0
5, 60182, Note_on_c, 2, 58, 0
5, 60195, Note_on_c, 2, 58, 65
5, 60198, Note_on_c, 2, 63, 80
5, 60200, Note_on_c, 2, 67, 73
5, 60212, Note_on_c, 2, 63, 0
5, 60216, Note_on_c, 2, 67, 0
5, 60216, Note_on_c, 2, 58, 0
5, 60360, Note_on_c, 2, 63, 91
5, 60361, Note_on_c, 2, 58, 76
5, 60363, Note_on_c, 2, 67, 86
5, 60420, Note_on_c, 2, 63, 0
5, 60421, Note_on_c, 2, 58, 0
5, 60422, Note_on_c, 2, 67, 0
5, 60432, Note_on_c, 2, 58, 61
5, 60434, Note_on_c, 2, 63, 87
5, 60448, Note_on_c, 2, 63, 0
5, 60450, Note_on_c, 2, 58, 0
5, 60593, Note_on_c, 2, 60, 91
5, 60594, Note_on_c, 2, 57, 86
5, 60595, Note_on_c, 2, 62, 97
5, 60596, Note_on_c, 2, 65, 91
5, 60656, Note_on_c, 2, 60, 0
5, 60657, Note_on_c, 2, 62, 0
5, 60660, Note_on_c, 2, 57, 0
5, 60664, Note_on_c, 2, 65, 0
5, 60671, Note_on_c, 2, 57, 66
5, 60671, Note_on_c, 2, 60, 81
5, 60673, Note_on_c, 2, 65, 56
5, 60674, Note_on_c, 2, 62, 88
5, 60685, Note_on_c, 2, 62, 0
5, 60685, Note_on_c, 2, 60, 0
5, 60688, Note_on_c, 2, 57, 0
5, 60690, Note_on_c, 2, 65, 0
5, 60841, Note_on_c, 2, 62, 77
5, 60841, Note_on_c, 2, 60, 73
5, 60842, Note_on_c, 2, 65, 83
5, 60843, Note_on_c, 2, 57, 70
5, 60904, Note_on_c, 2, 60, 0
5, 60905, Note_on_c, 2, 62, 0
5, 60910, Note_on_c, 2, 57, 0
5, 60916, Note_on_c, 2, 57, 55
5, 60917, Note_on_c, 2, 62, 88
5, 60919, Note_on_c, 2, 60, 81
5, 60936, Note_on_c, 2, 60, 0
5, 60936, Note_on_c, 2, 57, 0
5, 60937, Note_on_c, 2, 62, 0
5, 60938, Note_on_c, 2, 65, 0
5, 61080, Note_on_c, 2, 56, 63
5, 61080, Note_on_c, 2, 60, 94
5, 61081, Note_on_c, 2, 62, 101
5, 61134, Note_on_c, 2, 56, 0
5, 61137, Note_on_c, 2, 62, 0
5, 61137, Note_on_c, 2, 60, 0
5, 61157, Note_on_c, 2, 56, 68
5, 61158, Note_on_c, 2, 60, 88
5, 61161, Note_on_c, 2, 62, 86
5, 61172, Note_on_c, 2, 62, 0
5, 61172, Note_on_c, 2, 60, 0
5, 61173, Note_on_c, 2, 56, 0
5, 61326, Note_on_c, 2, 60, 81
5, 61326, Note_on_c, 2, 62, 94
5, 61327, Note_on_c, 2, 56, 73
5, 61380, Note_on_c, 2, 56, 0
5, 61384, Note_on_c, 2, 62, 0
5, 61384, Note_on_c, 2, 60, 0
5, 61403, Note_on_c, 2, 56, 61
5, 61404, Note_on_c, 2, 60, 88
5, 61404, Note_on_c, 2, 62, 91
5, 61418, Note_on_c, 2, 62, 0
5, 61418, Note_on_c, 2, 60, 0
5, 61419, Note_on_c, 2, 56, 0
5, 61558, Note_on_c, 2, 62, 88
5, 61558, Note_on_c, 2, 55, 70
5, 61559, Note_on_c, 2, 58, 68
5, 61620, Note_on_c, 2, 58, 0
5, 61622, Note_on_c, 2, 62, 0
5, 61625, Note_on_c, 2, 55, 0
5, 61638, Note_on_c, 2, 58, 65
5, 61638, Note_on_c, 2, 55, 66
5, 61640, Note_on_c, 2, 62, 94
5, 61655, Note_on_c, 2, 58, 0
5, 61658, Note_on_c, 2, 62, 0
5, 61658, Note_on_c, 2, 55, 0
5, 61800, Note_on_c, 2, 62, 97
5, 61802, Note_on_c, 2, 55, 73
5, 61803, Note_on_c, 2, 58, 65
5, 61864, Note_on_c, 2, 58, 0
5, 61866, Note_on_c, 2, 62, 0
5, 61875, Note_on_c, 2, 58, 63
5, 61876, Note_on_c, 2, 62, 81
5, 61893, Note_on_c, 2, 58, 0
5, 61895, Note_on_c, 2, 62, 0
5, 61896, Note_on_c, 2, 55, 0
5, 62041, Note_on_c, 2, 60, 83
5, 62044, Note_on_c, 2, 55, 77
5, 62100, Note_on_c, 2, 60, 0
5, 62105, Note_on_c, 2, 55, 0
5, 62113, Note_on_c, 2, 55, 61
5, 62114, Note_on_c, 2, 60, 91
5, 62134, Note_on_c, 2, 60, 0
5, 62135, Note_on_c, 2, 55, 0
5, 62286, Note_on_c, 2, 55, 81
5, 62286, Note_on_c, 2, 60, 104
5, 62350, Note_on_c, 2, 60, 0
5, 62360, Note_on_c, 2, 60, 77
5, 62394, Note_on_c, 2, 55, 0
5, 62395, Note_on_c, 2, 60, 0
5, 62406, Note_on_c, 2, 62, 104
5, 62427, Note_on_c, 2, 62, 0
5, 62634, Note_on_c, 2, 55, 57
5, 62643, Note_on_c, 2, 56, 49
5, 62651, Note_on_c, 2, 56, 0
5, 62653, Note_on_c, 2, 57, 94
5, 62658, Note_on_c, 2, 55, 0
5, 62714, Note_on_c, 2, 57, 0
5, 62725, Note_on_c, 2, 60, 61
5, 62748, Note_on_c, 2, 60, 0
5, 62767, Note_on_c, 2, 62, 88
5, 62801, Note_on_c, 2, 62, 0
5, 62885, Note_on_c, 2, 57, 79
5, 62886, Note_on_c, 2, 60, 91
5, 62888, Note_on_c, 2, 65, 75
5, 62905, Note_on_c, 2, 60, 0
5, 62908, Note_on_c, 2, 65, 0
5, 62911, Note_on_c, 2, 57, 0
5, 63009, Note_on_c, 2, 55, 77
5, 63009, Note_on_c, 2, 60, 88
5, 63011, Note_on_c, 2, 65, 79
5, 63324, Note_on_c, 2, 60, 0
5, 63327, Note_on_c, 2, 55, 0
5, 63331, Note_on_c, 2, 65, 0
5, 63444, Note_on_c, 2, 57, 68
5, 63445, Note_on_c, 2, 62, 67
5, 63451, Note_on_c, 2, 67, 58
5, 63455, Note_on_c, 2, 62, 0
5, 63459, Note_on_c, 2, 57, 0
5, 63462, Note_on_c, 2, 67, 0
5, 63556, Note_on_c, 2, 62, 75
5, 63557, Note_on_c, 2, 57, 67
5, 63570, Note_on_c, 2, 62, 0
5, 63573, Note_on_c, 2, 57, 0
5, 63681, Note_on_c, 2, 62, 70
5, 63682, Note_on_c, 2, 57, 59
5, 63693, Note_on_c, 2, 62, 0
5, 63696, Note_on_c, 2, 57, 0
5, 63800, Note_on_c, 2, 62, 79
5, 63801, Note_on_c, 2, 57, 73
5, 63804, Note_on_c, 2, 67, 67
5, 63816, Note_on_c, 2, 67, 0
5, 63816, Note_on_c, 2, 62, 0
5, 63819, Note_on_c, 2, 57, 0
5, 63915, Note_on_c, 2, 57, 66
5, 63916, Note_on_c, 2, 62, 66
5, 63928, Note_on_c, 2, 62, 0
5, 63930, Note_on_c, 2, 57, 0
5, 64037, Note_on_c, 2, 57, 64
5, 64038, Note_on_c, 2, 62, 66
5, 64048, Note_on_c, 2, 62, 0
5, 64051, Note_on_c, 2, 57, 0
5, 64164, Note_on_c, 2, 57, 68
5, 64164, Note_on_c, 2, 62, 81
5, 64166, Note_on_c, 2, 67, 75
5, 64177, Note_on_c, 2, 62, 0
5, 64179, Note_on_c, 2, 57, 0
5, 64181, Note_on_c, 2, 67, 0
5, 64285, Note_on_c, 2, 57, 75
5, 64286, Note_on_c, 2, 62, 73
5, 64287, Note_on_c, 2, 67, 77
5, 64299, Note_on_c, 2, 62, 0
5, 64304, Note_on_c, 2, 67, 0
5, 64304, Note_on_c, 2, 57, 0
5, 64405, Note_on_c, 2, 55, 54
5, 64417, Note_on_c, 2, 55, 0
5, 64530, Note_on_c, 2, 65, 63
5, 64531, Note_on_c, 2, 60, 56
5, 64531, Note_on_c, 2, 55, 53
5, 64540, Note_on_c, 2, 60, 0
5, 64544, Note_on_c, 2, 55, 0
5, 64546, Note_on_c, 2, 65, 0
5, 64691, Note_on_c, 2, 55, 49
5, 64704, Note_on_c, 2, 55, 0
5, 64791, Note_on_c, 2, 55, 81
5, 64793, Note_on_c, 2, 60, 81
5, 64793, Note_on_c, 2, 65, 81
5, 64806, Note_on_c, 2, 60, 0
5, 64811, Note_on_c, 2, 65, 0
5, 64811, Note_on_c, 2, 55, 0
5, 64921, Note_on_c, 2, 60, 79
5, 64922, Note_on_c, 2, 55, 71
5, 64923, Note_on_c, 2, 65, 83
5, 65231, Note_on_c, 2, 65, 0
5, 65231, Note_on_c, 2, 55, 0
5, 65237, Note_on_c, 2, 60, 0
5, 65361, Note_on_c, 2, 62, 59
5, 65362, Note_on_c, 2, 67, 58
5, 65368, Note_on_c, 2, 62, 0
5, 65371, Note_on_c, 2, 67, 0
5, 65485, Note_on_c, 2, 62, 68
5, 65487, Note_on_c, 2, 57, 56
5, 65494, Note_on_c, 2, 62, 0
5, 65495, Note_on_c, 2, 57, 0
5, 65600, Note_on_c, 2, 62, 57
5, 65610, Note_on_c, 2, 62, 0
5, 65842, Note_on_c, 2, 62, 51
5, 65851, Note_on_c, 2, 62, 0
5, 65964, Note_on_c, 2, 62, 77
5, 65966, Note_on_c, 2, 57, 62
5, 65968, Note_on_c, 2, 67, 61
5, 65978, Note_on_c, 2, 62, 0
5, 65979, Note_on_c, 2, 57, 0
5, 65980, Note_on_c, 2, 67, 0
5, 66372, Note_on_c, 2, 60, 59
5, 66373, Note_on_c, 2, 55, 51
5, 66373, Note_on_c, 2, 61, 45
5, 66374, Note_on_c, 2, 65, 57
5, 66425, Note_on_c, 2, 61, 0
5, 66429, Note_on_c, 2, 65, 0
5, 66431, Note_on_c, 2, 60, 0
5, 66453, Note_on_c, 2, 55, 0
5, 66586, Note_on_c, 2, 57, 83
5, 66587, Note_on_c, 2, 58, 65
5, 66588, Note_on_c, 2, 52, 71
5, 66589, Note_on_c, 2, 62, 81
5, 66650, Note_on_c, 2, 58, 0
5, 66653, Note_on_c, 2, 57, 0
5, 66655, Note_on_c, 2, 62, 0
5, 66669, Note_on_c, 2, 57, 77
5, 66669, Note_on_c, 2, 58, 76
5, 66672, Note_on_c, 2, 62, 70
5, 66680, Note_on_c, 2, 57, 0
5, 66682, Note_on_c, 2, 52, 0
5, 66683, Note_on_c, 2, 58, 0
5, 66686, Note_on_c, 2, 62, 0
5, 66849, Note_on_c, 2, 67, 83
5, 66850, Note_on_c, 2, 57, 77
5, 66850, Note_on_c, 2, 62, 91
5, 66851, Note_on_c, 2, 63, 80
5, 66912, Note_on_c, 2, 63, 0
5, 66913, Note_on_c, 2, 62, 0
5, 66918, Note_on_c, 2, 67, 0
5, 66927, Note_on_c, 2, 62, 75
5, 66929, Note_on_c, 2, 63, 63
5, 66931, Note_on_c, 2, 67, 49
5, 66935, Note_on_c, 2, 63, 0
5, 66938, Note_on_c, 2, 67, 0
5, 66938, Note_on_c, 2, 62, 0
5, 66940, Note_on_c, 2, 57, 0
5, 67094, Note_on_c, 2, 63, 73
5, 67095, Note_on_c, 2, 57, 70
5, 67096, Note_on_c, 2, 62, 86
5, 67097, Note_on_c, 2, 67, 71
5, 67156, Note_on_c, 2, 62, 0
5, 67156, Note_on_c, 2, 63, 0
5, 67166, Note_on_c, 2, 63, 47
5, 67166, Note_on_c, 2, 62, 60
5, 67180, Note_on_c, 2, 67, 0
5, 67181, Note_on_c, 2, 62, 0
5, 67181, Note_on_c, 2, 63, 0
5, 67183, Note_on_c, 2, 57, 0
5, 67332, Note_on_c, 2, 60, 81
5, 67333, Note_on_c, 2, 62, 81
5, 67334, Note_on_c, 2, 57, 75
5, 67334, Note_on_c, 2, 65, 83
5, 67396, Note_on_c, 2, 60, 0
5, 67397, Note_on_c, 2, 62, 0
5, 67400, Note_on_c, 2, 57, 0
5, 67404, Note_on_c, 2, 65, 0
5, 67409, Note_on_c, 2, 57, 61
5, 67409, Note_on_c, 2, 62, 83
5, 67411, Note_on_c, 2, 60, 77
5, 67412, Note_on_c, 2, 65, 50
5, 67422, Note_on_c, 2, 65, 0
5, 67422, Note_on_c, 2, 60, 0
5, 67423, Note_on_c, 2, 62, 0
5, 67425, Note_on_c, 2, 57, 0
5, 67561, Note_on_c, 2, 62, 68
5, 67562, Note_on_c, 2, 60, 63
5, 67564, Note_on_c, 2, 57, 61
5, 67565, Note_on_c, 2, 65, 71
5, 67627, Note_on_c, 2, 60, 0
5, 67627, Note_on_c, 2, 62, 0
5, 67631, Note_on_c, 2, 65, 0
5, 67640, Note_on_c, 2, 62, 79
5, 67640, Note_on_c, 2, 60, 75
5, 67654, Note_on_c, 2, 60, 0
5, 67655, Note_on_c, 2, 62, 0
5, 67655, Note_on_c, 2, 57, 0
5, 67809, Note_on_c, 2, 61, 68
5, 67809, Note_on_c, 2, 56, 76
5, 67824, Note_on_c, 2, 61, 0
5, 67830, Note_on_c, 2, 56, 0
5, 67920, Note_on_c, 2, 61, 87
5, 67920, Note_on_c, 2, 55, 86
5, 67922, Note_on_c, 2, 65, 86
5, 68124, Note_on_c, 2, 65, 0
5, 68127, Note_on_c, 2, 61, 0
5, 68129, Note_on_c, 2, 55, 0
5, 68168, Note_on_c, 2, 60, 86
5, 68170, Note_on_c, 2, 55, 71
5, 68171, Note_on_c, 2, 65, 83
5, 68172, Note_on_c, 2, 57, 71
5, 68187, Note_on_c, 2, 60, 0
5, 68189, Note_on_c, 2, 57, 0
5, 68190, Note_on_c, 2, 55, 0
5, 68192, Note_on_c, 2, 65, 0
5, 68292, Note_on_c, 2, 60, 70
5, 68292, Note_on_c, 2, 65, 88
5, 68294, Note_on_c, 2, 55, 67
5, 68294, Note_on_c, 2, 57, 66
5, 68462, Note_on_c, 2, 65, 0
5, 68466, Note_on_c, 2, 57, 0
5, 68470, Note_on_c, 2, 55, 0
5, 68470, Note_on_c, 2, 60, 0
5, 68534, Note_on_c, 2, 60, 81
5, 68538, Note_on_c, 2, 55, 77
5, 68539, Note_on_c, 2, 57, 79
5, 68539, Note_on_c, 2, 65, 88
5, 68558, Note_on_c, 2, 60, 0
5, 68559, Note_on_c, 2, 65, 0
5, 68560, Note_on_c, 2, 57, 0
5, 68561, Note_on_c, 2, 55, 0
5, 68643, Note_on_c, 2, 57, 83
5, 68643, Note_on_c, 2, 58, 71
5, 68645, Note_on_c, 2, 52, 79
5, 68647, Note_on_c, 2, 62, 75
5, 68660, Note_on_c, 2, 58, 0
5, 68662, Note_on_c, 2, 57, 0
5, 68664, Note_on_c, 2, 62, 0
5, 68666, Note_on_c, 2, 52, 0
5, 68762, Note_on_c, 2, 52, 77
5, 68763, Note_on_c, 2, 57, 79
5, 68763, Note_on_c, 2, 58, 63
5, 68764, Note_on_c, 2, 62, 88
5, 68950, Note_on_c, 2, 62, 0
5, 68950, Note_on_c, 2, 57, 0
5, 68951, Note_on_c, 2, 58, 0
5, 68964, Note_on_c, 2, 52, 0
5, 69009, Note_on_c, 2, 52, 63
5, 69009, Note_on_c, 2, 57, 71
5, 69010, Note_on_c, 2, 58, 51
5, 69011, Note_on_c, 2, 62, 67
5, 69081, Note_on_c, 2, 52, 0
5, 69082, Note_on_c, 2, 57, 0
5, 69084, Note_on_c, 2, 58, 0
5, 69092, Note_on_c, 2, 62, 0
5, 69205, Note_on_c, 2, 62, 67
5, 69208, Note_on_c, 2, 57, 55
5, 69218, Note_on_c, 2, 62, 0
5, 69221, Note_on_c, 2, 57, 0
5, 69318, Note_on_c, 2, 62, 73
5, 69318, Note_on_c, 2, 57, 66
5, 69320, Note_on_c, 2, 67, 70
5, 69334, Note_on_c, 2, 62, 0
5, 69338, Note_on_c, 2, 67, 0
5, 69338, Note_on_c, 2, 57, 0
5, 69439, Note_on_c, 2, 62, 73
5, 69440, Note_on_c, 2, 57, 64
5, 69440, Note_on_c, 2, 67, 75
5, 69455, Note_on_c, 2, 62, 0
5, 69457, Note_on_c, 2, 57, 0
5, 69459, Note_on_c, 2, 67, 0
5, 69557, Note_on_c, 2, 62, 73
5, 69559, Note_on_c, 2, 57, 62
5, 69561, Note_on_c, 2, 67, 64
5, 69574, Note_on_c, 2, 62, 0
5, 69576, Note_on_c, 2, 67, 0
5, 69576, Note_on_c, 2, 57, 0
5, 69677, Note_on_c, 2, 62, 81
5, 69678, Note_on_c, 2, 57, 71
5, 69680, Note_on_c, 2, 67, 75
5, 69695, Note_on_c, 2, 62, 0
5, 69696, Note_on_c, 2, 57, 0
5, 69697, Note_on_c, 2, 67, 0
5, 69798, Note_on_c, 2, 62, 83
5, 69799, Note_on_c, 2, 57, 73
5, 69802, Note_on_c, 2, 67, 71
5, 69813, Note_on_c, 2, 62, 0
5, 69816, Note_on_c, 2, 67, 0
5, 69816, Note_on_c, 2, 57, 0
5, 69923, Note_on_c, 2, 62, 81
5, 69923, Note_on_c, 2, 57, 70
5, 69924, Note_on_c, 2, 67, 77
5, 69936, Note_on_c, 2, 62, 0
5, 69939, Note_on_c, 2, 57, 0
5, 69944, Note_on_c, 2, 67, 0
5, 70049, Note_on_c, 2, 62, 66
5, 70049, Note_on_c, 2, 57, 59
5, 70051, Note_on_c, 2, 67, 64
5, 70062, Note_on_c, 2, 62, 0
5, 70065, Note_on_c, 2, 67, 0
5, 70065, Note_on_c, 2, 57, 0
5, 70328, Note_on_c, 2, 55, 64
5, 70347, Note_on_c, 2, 55, 0
5, 70429, Note_on_c, 2, 60, 50
5, 70445, Note_on_c, 2, 60, 0
5, 70582, Note_on_c, 2, 60, 59
5, 70591, Note_on_c, 2, 60, 0
5, 70692, Note_on_c, 2, 55, 64
5, 70692, Note_on_c, 2, 60, 68
5, 70698, Note_on_c, 2, 65, 61
5, 70845, Note_on_c, 2, 55, 0
5, 70847, Note_on_c, 2, 60, 0
5, 70860, Note_on_c, 2, 65, 0
5, 71243, Note_on_c, 2, 69, 81
5, 71243, Note_on_c, 2, 65, 77
5, 71243, Note_on_c, 2, 60, 63
5, 71245, Note_on_c, 2, 72, 75
5, 71377, Note_on_c, 2, 60, 0
5, 71378, Note_on_c, 2, 65, 0
5, 71379, Note_on_c, 2, 69, 0
5, 71385, Note_on_c, 2, 72, 0
5, 71520, Note_on_c, 2, 69, 61
5, 71521, Note_on_c, 2, 65, 67
5, 71523, Note_on_c, 2, 60, 53
5, 71580, Note_on_c, 2, 65, 0
5, 71583, Note_on_c, 2, 69, 0
5, 71585, Note_on_c, 2, 60, 0
5, 71597, Note_on_c, 2, 60, 57
5, 71598, Note_on_c, 2, 69, 70
5, 71598, Note_on_c, 2, 65, 81
5, 71610, Note_on_c, 2, 65, 0
5, 71613, Note_on_c, 2, 69, 0
5, 71614, Note_on_c, 2, 60, 0
5, 71762, Note_on_c, 2, 59, 60
5, 71762, Note_on_c, 2, 64, 55
5, 71764, Note_on_c, 2, 67, 59
5, 71820, Note_on_c, 2, 64, 0
5, 71822, Note_on_c, 2, 67, 0
5, 71823, Note_on_c, 2, 59, 0
5, 71835, Note_on_c, 2, 64, 71
5, 71837, Note_on_c, 2, 59, 54
5, 71837, Note_on_c, 2, 67, 68
5, 71848, Note_on_c, 2, 64, 0
5, 71850, Note_on_c, 2, 67, 0
5, 71851, Note_on_c, 2, 59, 0
5, 72001, Note_on_c, 2, 60, 79
5, 72001, Note_on_c, 2, 55, 70
5, 72003, Note_on_c, 2, 65, 81
5, 72024, Note_on_c, 2, 60, 0
5, 72027, Note_on_c, 2, 65, 0
5, 72027, Note_on_c, 2, 55, 0
5, 72199, Note_on_c, 2, 60, 64
5, 72200, Note_on_c, 2, 55, 63
5, 72202, Note_on_c, 2, 65, 75
5, 72328, Note_on_c, 2, 65, 0
5, 72335, Note_on_c, 2, 60, 0
5, 72344, Note_on_c, 2, 55, 0
5, 72481, Note_on_c, 2, 57, 83
5, 72483, Note_on_c, 2, 50, 73
5, 72497, Note_on_c, 2, 57, 0
5, 72498, Note_on_c, 2, 50, 0
5, 72601, Note_on_c, 2, 57, 64
5, 72602, Note_on_c, 2, 50, 66
5, 72819, Note_on_c, 2, 50, 0
5, 72828, Note_on_c, 2, 57, 0
5, 72959, Note_on_c, 2, 58, 83
5, 72966, Note_on_c, 2, 51, 65
5, 72982, Note_on_c, 2, 58, 0
5, 72994, Note_on_c, 2, 51, 0
5, 73161, Note_on_c, 2, 58, 80
5, 73163, Note_on_c, 2, 51, 65
5, 73356, Note_on_c, 2, 58, 0
5, 73361, Note_on_c, 2, 51, 0
5, 73440, Note_on_c, 2, 58, 87
5, 73443, Note_on_c, 2, 51, 83
5, 73470, Note_on_c, 2, 58, 0
5, 73481, Note_on_c, 2, 51, 0
5, 73643, Note_on_c, 2, 56, 91
5, 73842, Note_on_c, 2, 56, 0
5, 73927, Note_on_c, 2, 50, 83
5, 73928, Note_on_c, 2, 57, 94
5, 73956, Note_on_c, 2, 57, 0
5, 73961, Note_on_c, 2, 50, 0
5, 74122, Note_on_c, 2, 57, 91
5, 74125, Note_on_c, 2, 50, 86
5, 74320, Note_on_c, 2, 57, 0
5, 74321, Note_on_c, 2, 50, 0
5, 74399, Note_on_c, 2, 50, 81
5, 74400, Note_on_c, 2, 57, 86
5, 74422, Note_on_c, 2, 57, 0
5, 74426, Note_on_c, 2, 50, 0
5, 74526, Note_on_c, 2, 50, 68
5, 74527, Note_on_c, 2, 57, 73
5, 74806, Note_on_c, 2, 57, 0
5, 74809, Note_on_c, 2, 50, 0
5, 74874, Note_on_c, 2, 60, 83
5, 74877, Note_on_c, 2, 53, 88
5, 74909, Note_on_c, 2, 60, 0
5, 74913, Note_on_c, 2, 53, 0
5, 75076, Note_on_c, 2, 60, 86
5, 75077, Note_on_c, 2, 53, 83
5, 75299, Note_on_c, 2, 53, 0
5, 75299, Note_on_c, 2, 60, 0
5, 75366, Note_on_c, 2, 60, 94
5, 75366, Note_on_c, 2, 53, 83
5, 75403, Note_on_c, 2, 60, 0
5, 75411, Note_on_c, 2, 53, 0
5, 75600, Note_on_c, 2, 58, 80
5, 75601, Note_on_c, 2, 51, 71
5, 75759, Note_on_c, 2, 51, 0
5, 75760, Note_on_c, 2, 58, 0
5, 75842, Note_on_c, 2, 50, 97
5, 75844, Note_on_c, 2, 57, 97
5, 75875, Note_on_c, 2, 57, 0
5, 75881, Note_on_c, 2, 50, 0
5, 76034, Note_on_c, 2, 57, 97
5, 76036, Note_on_c, 2, 50, 97
5, 76252, Note_on_c, 2, 57, 0
5, 76258, Note_on_c, 2, 50, 0
5, 76317, Note_on_c, 2, 50, 101
5, 76318, Note_on_c, 2, 57, 94
5, 76337, Note_on_c, 2, 57, 0
5, 76345, Note_on_c, 2, 50, 0
5, 76443, Note_on_c, 2, 50, 88
5, 76444, Note_on_c, 2, 57, 86
5, 76694, Note_on_c, 2, 50, 0
5, 76729, Note_on_c, 2, 57, 0
5, 76804, Note_on_c, 2, 58, 80
5, 76806, Note_on_c, 2, 51, 76
5, 76826, Note_on_c, 2, 58, 0
5, 76836, Note_on_c, 2, 51, 0
5, 77009, Note_on_c, 2, 58, 71
5, 77010, Note_on_c, 2, 51, 80
5, 77207, Note_on_c, 2, 58, 0
5, 77209, Note_on_c, 2, 51, 0
5, 77273, Note_on_c, 2, 51, 68
5, 77273, Note_on_c, 2, 58, 83
5, 77305, Note_on_c, 2, 58, 0
5, 77317, Note_on_c, 2, 51, 0
5, 77486, Note_on_c, 2, 56, 87
5, 77703, Note_on_c, 2, 56, 0
5, 77770, Note_on_c, 2, 57, 91
5, 77771, Note_on_c, 2, 50, 77
5, 77799, Note_on_c, 2, 57, 0
5, 77818, Note_on_c, 2, 50, 0
5, 77962, Note_on_c, 2, 57, 81
5, 77963, Note_on_c, 2, 50, 83
5, 78167, Note_on_c, 2, 57, 0
5, 78168, Note_on_c, 2, 50, 0
5, 78244, Note_on_c, 2, 57, 79
5, 78252, Note_on_c, 2, 50, 79
5, 78268, Note_on_c, 2, 57, 0
5, 78280, Note_on_c, 2, 50, 0
5, 78366, Note_on_c, 2, 50, 79
5, 78372, Note_on_c, 2, 57, 86
5, 78639, Note_on_c, 2, 50, 0
5, 78642, Note_on_c, 2, 57, 0
5, 78721, Note_on_c, 2, 60, 88
5, 78725, Note_on_c, 2, 53, 81
5, 78756, Note_on_c, 2, 60, 0
5, 78763, Note_on_c, 2, 53, 0
5, 78922, Note_on_c, 2, 60, 81
5, 78924, Note_on_c, 2, 53, 81
5, 79149, Note_on_c, 2, 53, 0
5, 79150, Note_on_c, 2, 60, 0
5, 79211, Note_on_c, 2, 60, 77
5, 79213, Note_on_c, 2, 53, 79
5, 79248, Note_on_c, 2, 60, 0
5, 79255, Note_on_c, 2, 53, 0
5, 79447, Note_on_c, 2, 51, 65
5, 79449, Note_on_c, 2, 58, 68
5, 79548, Note_on_c, 2, 58, 0
5, 79560, Note_on_c, 2, 51, 0
5, 79688, Note_on_c, 2, 50, 81
5, 79690, Note_on_c, 2, 57, 79
5, 79722, Note_on_c, 2, 57, 0
5, 79728, Note_on_c, 2, 50, 0
5, 79882, Note_on_c, 2, 57, 79
5, 79882, Note_on_c, 2, 50, 81
5, 80069, Note_on_c, 2, 57, 0
5, 80071, Note_on_c, 2, 50, 0
5, 80157, Note_on_c, 2, 57, 79
5, 80161, Note_on_c, 2, 50, 71
5, 80178, Note_on_c, 2, 57, 0
5, 80185, Note_on_c, 2, 50, 0
5, 80287, Note_on_c, 2, 50, 81
5, 80287, Note_on_c, 2, 57, 81
5, 80521, Note_on_c, 2, 57, 0
5, 80792, Note_on_c, 2, 50, 0
5, 80792, Note_on_c, 2, 58, 68
5, 80792, Note_on_c, 2, 58, 0
5, 80792, Note_on_c, 2, 51, 55
5, 80792, Note_on_c, 2, 51, 0
5, 80840, Note_on_c, 2, 58, 71
5, 80846, Note_on_c, 2, 51, 57
5, 81038, Note_on_c, 2, 51, 0
5, 81039, Note_on_c, 2, 58, 0
5, 81129, Note_on_c, 2, 58, 80
5, 81130, Note_on_c, 2, 51, 76
5, 81155, Note_on_c, 2, 58, 0
5, 81159, Note_on_c, 2, 51, 0
5, 81325, Note_on_c, 2, 56, 83
5, 81510, Note_on_c, 2, 56, 0
5, 81603, Note_on_c, 2, 57, 94
5, 81607, Note_on_c, 2, 50, 79
5, 81633, Note_on_c, 2, 57, 0
5, 81643, Note_on_c, 2, 50, 0
5, 81805, Note_on_c, 2, 57, 81
5, 81808, Note_on_c, 2, 50, 81
5, 82009, Note_on_c, 2, 57, 0
5, 82016, Note_on_c, 2, 50, 0
5, 82090, Note_on_c, 2, 50, 67
5, 82091, Note_on_c, 2, 57, 73
5, 82112, Note_on_c, 2, 57, 0
5, 82114, Note_on_c, 2, 50, 0
5, 82210, Note_on_c, 2, 57, 75
5, 82211, Note_on_c, 2, 50, 81
5, 82443, Note_on_c, 2, 57, 0
5, 82449, Note_on_c, 2, 50, 0
5, 82559, Note_on_c, 2, 60, 88
5, 82560, Note_on_c, 2, 53, 81
5, 82594, Note_on_c, 2, 60, 0
5, 82600, Note_on_c, 2, 53, 0
5, 82762, Note_on_c, 2, 60, 77
5, 82764, Note_on_c, 2, 53, 79
5, 82999, Note_on_c, 2, 60, 0
5, 83010, Note_on_c, 2, 53, 0
5, 83064, Note_on_c, 2, 53, 79
5, 83067, Note_on_c, 2, 60, 83
5, 83101, Note_on_c, 2, 60, 0
5, 83103, Note_on_c, 2, 53, 0
5, 83289, Note_on_c, 2, 51, 71
5, 83289, Note_on_c, 2, 58, 63
5, 83402, Note_on_c, 2, 58, 0
5, 83419, Note_on_c, 2, 51, 0
5, 83516, Note_on_c, 2, 57, 71
5, 83521, Note_on_c, 2, 50, 79
5, 83553, Note_on_c, 2, 57, 0
5, 83557, Note_on_c, 2, 50, 0
5, 83722, Note_on_c, 2, 50, 83
5, 83722, Note_on_c, 2, 57, 86
5, 83925, Note_on_c, 2, 57, 0
5, 83935, Note_on_c, 2, 50, 0
5, 83994, Note_on_c, 2, 57, 68
5, 83997, Note_on_c, 2, 50, 79
5, 84015, Note_on_c, 2, 57, 0
5, 84028, Note_on_c, 2, 50, 0
5, 84120, Note_on_c, 2, 50, 83
5, 84120, Note_on_c, 2, 57, 77
5, 84344, Note_on_c, 2, 50, 0
5, 84350, Note_on_c, 2, 57, 0
5, 84365, Note_on_c, 2, 57, 66
5, 84369, Note_on_c, 2, 50, 71
5, 84391, Note_on_c, 2, 57, 0
5, 84398, Note_on_c, 2, 50, 0
5, 84481, Note_on_c, 2, 51, 76
5, 84482, Note_on_c, 2, 58, 80
5, 84504, Note_on_c, 2, 58, 0
5, 84508, Note_on_c, 2, 51, 0
5, 84681, Note_on_c, 2, 58, 71
5, 84684, Note_on_c, 2, 51, 63
5, 84893, Note_on_c, 2, 51, 0
5, 84895, Note_on_c, 2, 58, 0
5, 84959, Note_on_c, 2, 51, 71
5, 84960, Note_on_c, 2, 58, 71
5, 84990, Note_on_c, 2, 58, 0
5, 84991, Note_on_c, 2, 51, 0
5, 85167, Note_on_c, 2, 56, 80
5, 85377, Note_on_c, 2, 56, 0
5, 85448, Note_on_c, 2, 57, 81
5, 85449, Note_on_c, 2, 50, 83
5, 85476, Note_on_c, 2, 57, 0
5, 85488, Note_on_c, 2, 50, 0
5, 85649, Note_on_c, 2, 57, 77
5, 85651, Note_on_c, 2, 50, 77
5, 85845, Note_on_c, 2, 57, 0
5, 85850, Note_on_c, 2, 50, 0
5, 85920, Note_on_c, 2, 57, 70
5, 85924, Note_on_c, 2, 50, 83
5, 85942, Note_on_c, 2, 57, 0
5, 85948, Note_on_c, 2, 50, 0
5, 86041, Note_on_c, 2, 50, 77
5, 86045, Note_on_c, 2, 57, 70
5, 86375, Note_on_c, 2, 57, 0
5, 86376, Note_on_c, 2, 50, 0
5, 86401, Note_on_c, 2, 53, 75
5, 86402, Note_on_c, 2, 60, 70
5, 86428, Note_on_c, 2, 60, 0
5, 86428, Note_on_c, 2, 53, 0
5, 86591, Note_on_c, 2, 60, 81
5, 86594, Note_on_c, 2, 53, 83
5, 86825, Note_on_c, 2, 53, 0
5, 86834, Note_on_c, 2, 60, 0
5, 86893, Note_on_c, 2, 60, 73
5, 86894, Note_on_c, 2, 53, 81
5, 86931, Note_on_c, 2, 60, 0
5, 86932, Note_on_c, 2, 53, 0
5, 87126, Note_on_c, 2, 58, 59
5, 87129, Note_on_c, 2, 51, 46
5, 87283, Note_on_c, 2, 58, 0
5, 87285, Note_on_c, 2, 51, 0
5, 87365, Note_on_c, 2, 57, 83
5, 87366, Note_on_c, 2, 50, 86
5, 87402, Note_on_c, 2, 57, 0
5, 87411, Note_on_c, 2, 50, 0
5, 87561, Note_on_c, 2, 50, 88
5, 87561, Note_on_c, 2, 57, 88
5, 87756, Note_on_c, 2, 57, 0
5, 87773, Note_on_c, 2, 50, 0
5, 87849, Note_on_c, 2, 50, 88
5, 87850, Note_on_c, 2, 57, 71
5, 87869, Note_on_c, 2, 57, 0
5, 87882, Note_on_c, 2, 50, 0
5, 87970, Note_on_c, 2, 50, 77
5, 87970, Note_on_c, 2, 57, 73
5, 88270, Note_on_c, 2, 50, 0
5, 88282, Note_on_c, 2, 57, 0
5, 88321, Note_on_c, 2, 51, 76
5, 88322, Note_on_c, 2, 58, 80
5, 88344, Note_on_c, 2, 58, 0
5, 88348, Note_on_c, 2, 51, 0
5, 88521, Note_on_c, 2, 58, 71
5, 88524, Note_on_c, 2, 51, 63
5, 88733, Note_on_c, 2, 51, 0
5, 88735, Note_on_c, 2, 58, 0
5, 88799, Note_on_c, 2, 51, 71
5, 88800, Note_on_c, 2, 58, 71
5, 88830, Note_on_c, 2, 58, 0
5, 88831, Note_on_c, 2, 51, 0
5, 89007, Note_on_c, 2, 56, 80
5, 89217, Note_on_c, 2, 56, 0
5, 89288, Note_on_c, 2, 57, 81
5, 89289, Note_on_c, 2, 50, 83
5, 89316, Note_on_c, 2, 57, 0
5, 89328, Note_on_c, 2, 50, 0
5, 89489, Note_on_c, 2, 57, 77
5, 89491, Note_on_c, 2, 50, 77
5, 89685, Note_on_c, 2, 57, 0
5, 89690, Note_on_c, 2, 50, 0
5, 89760, Note_on_c, 2, 57, 70
5, 89764, Note_on_c, 2, 50, 83
5, 89782, Note_on_c, 2, 57, 0
5, 89788, Note_on_c, 2, 50, 0
5, 89881, Note_on_c, 2, 50, 77
5, 89885, Note_on_c, 2, 57, 70
5, 90215, Note_on_c, 2, 57, 0
5, 90216, Note_on_c, 2, 50, 0
5, 90241, Note_on_c, 2, 53, 75
5, 90242, Note_on_c, 2, 60, 70
5, 90268, Note_on_c, 2, 60, 0
5, 90268, Note_on_c, 2, 53, 0
5, 90431, Note_on_c, 2, 60, 81
5, 90434, Note_on_c, 2, 53, 83
5, 90665, Note_on_c, 2, 53, 0
5, 90674, Note_on_c, 2, 60, 0
5, 90733, Note_on_c, 2, 60, 73
5, 90734, Note_on_c, 2, 53, 81
5, 90771, Note_on_c, 2, 60, 0
5, 90772, Note_on_c, 2, 53, 0
5, 90966, Note_on_c, 2, 58, 59
5, 90969, Note_on_c, 2, 51, 46
5, 91123, Note_on_c, 2, 58, 0
5, 91125, Note_on_c, 2, 51, 0
5, 91205, Note_on_c, 2, 57, 61
5, 91206, Note_on_c, 2, 50, 61
5, 91242, Note_on_c, 2, 57, 0
5, 91251, Note_on_c, 2, 50, 0
5, 91401, Note_on_c, 2, 50, 61
5, 91401, Note_on_c, 2, 57, 61
5, 91596, Note_on_c, 2, 57, 0
5, 91613, Note_on_c, 2, 50, 0
5, 91689, Note_on_c, 2, 50, 61
5, 91690, Note_on_c, 2, 57, 61
5, 91709, Note_on_c, 2, 57, 0
5, 91722, Note_on_c, 2, 50, 0
5, 91810, Note_on_c, 2, 50, 56
5, 91810, Note_on_c, 2, 57, 56
5, 92110, Note_on_c, 2, 50, 0
5, 92122, Note_on_c, 2, 57, 0
5, 92161, Note_on_c, 2, 51, 52
5, 92162, Note_on_c, 2, 58, 52
5, 92184, Note_on_c, 2, 58, 0
5, 92188, Note_on_c, 2, 51, 0
5, 92361, Note_on_c, 2, 58, 51
5, 92364, Note_on_c, 2, 51, 51
5, 92573, Note_on_c, 2, 51, 0
5, 92575, Note_on_c, 2, 58, 0
5, 92639, Note_on_c, 2, 51, 49
5, 92640, Note_on_c, 2, 58, 49
5, 92670, Note_on_c, 2, 58, 0
5, 92671, Note_on_c, 2, 51, 0
5, 92847, Note_on_c, 2, 56, 49
5, 93057, Note_on_c, 2, 56, 0
5, 93128, Note_on_c, 2, 57, 36
5, 93129, Note_on_c, 2, 50, 36
5, 93156, Note_on_c, 2, 57, 0
5, 93168, Note_on_c, 2, 50, 0
5, 93329, Note_on_c, 2, 57, 33
5, 93331, Note_on_c, 2, 50, 31
5, 93525, Note_on_c, 2, 57, 0
5, 93530, Note_on_c, 2, 50, 0
5, 93600, Note_on_c, 2, 57, 29
5, 93604, Note_on_c, 2, 50, 29
5, 93622, Note_on_c, 2, 57, 0
5, 93628, Note_on_c, 2, 50, 0
5, 93721, Note_on_c, 2, 50, 29
5, 93725, Note_on_c, 2, 57, 29
5, 94055, Note_on_c, 2, 57, 0
5, 94056, Note_on_c, 2, 50, 0
5, 94081, Note_on_c, 2, 53, 27
5, 94082, Note_on_c, 2, 60, 27
5, 94108, Note_on_c, 2, 60, 0
5, 94108, Note_on_c, 2, 53, 0
5, 94271, Note_on_c, 2, 60, 25
5, 94274, Note_on_c, 2, 53, 25
5, 94505, Note_on_c, 2, 53, 0
5, 94514, Note_on_c, 2, 60, 0
5, 94573, Note_on_c, 2, 60, 15
5, 94574, Note_on_c, 2, 53, 15
5, 94611, Note_on_c, 2, 60, 0
5, 94612, Note_on_c, 2, 53, 0
5, 94806, Note_on_c, 2, 58, 13
5, 94809, Note_on_c, 2, 51, 13
5, 94963, Note_on_c, 2, 58, 0
5, 94965, Note_on_c, 2, 51, 0
5, 95045, Note_on_c, 2, 57, 11
5, 95046, Note_on_c, 2, 50, 11
5, 95082, Note_on_c, 2, 57, 0
5, 95091, Note_on_c, 2, 50, 0
5, 95241, Note_on_c, 2, 50, 9
5, 95241, Note_on_c, 2, 57, 9
5, 95436, Note_on_c, 2, 57, 0
5, 95453, Note_on_c, 2, 50, 0
5, 95529, Note_on_c, 2, 50, 8
5, 95530, Note_on_c, 2, 57, 8
5, 95549, Note_on_c, 2, 57, 0
5, 95562, Note_on_c, 2, 50, 0
5, 95650, Note_on_c, 2, 50, 7
5, 95650, Note_on_c, 2, 57, 7
5, 95950, Note_on_c, 2, 50, 0
5, 95962, Note_on_c, 2, 57, 0
5, 95962, End_track
6, 0, Start_track
6, 0, MIDI_port, 0
6, 0, Title_t, "Fagen"
6, 0, Control_c, 3, 0, 56
6, 0, Control_c, 3, 32, 0
6, 0, Program_c, 3, 60
6, 240, Control_c, 3, 7, 127
6, 240, Control_c, 3, 10, 102
6, 240, Control_c, 3, 93, 0
6, 240, Control_c, 3, 91, 0
6, 11162, Note_on_c, 3, 58, 115
6, 11222, Note_on_c, 3, 58, 0
6, 11282, Note_on_c, 3, 61, 98
6, 11352, Note_on_c, 3, 61, 0
6, 11363, Pitch_bend_c, 3, 7936
6, 11364, Pitch_bend_c, 3, 7488
6, 11367, Pitch_bend_c, 3, 6976
6, 11369, Pitch_bend_c, 3, 6464
6, 11372, Pitch_bend_c, 3, 5888
6, 11374, Pitch_bend_c, 3, 5248
6, 11376, Pitch_bend_c, 3, 4672
6, 11379, Pitch_bend_c, 3, 4160
6, 11381, Pitch_bend_c, 3, 3648
6, 11384, Pitch_bend_c, 3, 3072
6, 11386, Pitch_bend_c, 3, 2560
6, 11388, Pitch_bend_c, 3, 2304
6, 11390, Pitch_bend_c, 3, 1984
6, 11393, Pitch_bend_c, 3, 1792
6, 11400, Note_on_c, 3, 65, 101
6, 11408, Pitch_bend_c, 3, 2304
6, 11410, Pitch_bend_c, 3, 2752
6, 11412, Pitch_bend_c, 3, 3392
6, 11414, Pitch_bend_c, 3, 4032
6, 11417, Pitch_bend_c, 3, 4928
6, 11419, Pitch_bend_c, 3, 5760
6, 11422, Pitch_bend_c, 3, 6528
6, 11424, Pitch_bend_c, 3, 6848
6, 11429, Pitch_bend_c, 3, 7104
6, 11434, Pitch_bend_c, 3, 7296
6, 11436, Pitch_bend_c, 3, 7488
6, 11438, Pitch_bend_c, 3, 7872
6, 11441, Pitch_bend_c, 3, 8064
6, 11443, Pitch_bend_c, 3, 8192
6, 11495, Note_on_c, 3, 65, 0
6, 11528, Pitch_bend_c, 3, 7872
6, 11530, Pitch_bend_c, 3, 6976
6, 11532, Pitch_bend_c, 3, 6208
6, 11535, Pitch_bend_c, 3, 5568
6, 11537, Pitch_bend_c, 3, 5120
6, 11540, Note_on_c, 3, 65, 104
6, 11547, Pitch_bend_c, 3, 5568
6, 11549, Pitch_bend_c, 3, 5888
6, 11552, Pitch_bend_c, 3, 6464
6, 11555, Pitch_bend_c, 3, 6976
6, 11557, Pitch_bend_c, 3, 7872
6, 11559, Pitch_bend_c, 3, 8192
6, 11637, Note_on_c, 3, 65, 0
6, 11642, Note_on_c, 3, 63, 98
6, 11720, Note_on_c, 3, 63, 0
6, 11917, Note_on_c, 3, 58, 108
6, 11944, Note_on_c, 3, 58, 0
6, 11959, Note_on_c, 3, 58, 87
6, 12012, Note_on_c, 3, 58, 0
6, 12017, Note_on_c, 3, 61, 104
6, 12152, Pitch_bend_c, 3, 7936
6, 12156, Pitch_bend_c, 3, 7616
6, 12161, Pitch_bend_c, 3, 7296
6, 12163, Pitch_bend_c, 3, 7104
6, 12166, Pitch_bend_c, 3, 6848
6, 12168, Pitch_bend_c, 3, 6656
6, 12171, Pitch_bend_c, 3, 6336
6, 12173, Pitch_bend_c, 3, 6080
6, 12175, Pitch_bend_c, 3, 5888
6, 12180, Note_on_c, 3, 61, 0
6, 12180, Pitch_bend_c, 3, 5696
6, 12190, Pitch_bend_c, 3, 5888
6, 12192, Pitch_bend_c, 3, 6080
6, 12199, Pitch_bend_c, 3, 6464
6, 12204, Pitch_bend_c, 3, 6656
6, 12206, Pitch_bend_c, 3, 6848
6, 12209, Pitch_bend_c, 3, 7168
6, 12211, Pitch_bend_c, 3, 7488
6, 12213, Pitch_bend_c, 3, 8192
6, 12545, Pitch_bend_c, 3, 7936
6, 12547, Pitch_bend_c, 3, 7168
6, 12550, Pitch_bend_c, 3, 6528
6, 12552, Pitch_bend_c, 3, 5760
6, 12554, Pitch_bend_c, 3, 5248
6, 12557, Pitch_bend_c, 3, 4928
6, 12561, Note_on_c, 3, 63, 126
6, 12562, Pitch_bend_c, 3, 4672
6, 12566, Pitch_bend_c, 3, 4480
6, 12571, Pitch_bend_c, 3, 4288
6, 12581, Pitch_bend_c, 3, 4480
6, 12583, Pitch_bend_c, 3, 4672
6, 12586, Pitch_bend_c, 3, 5056
6, 12588, Pitch_bend_c, 3, 5440
6, 12590, Pitch_bend_c, 3, 6080
6, 12592, Pitch_bend_c, 3, 6848
6, 12595, Pitch_bend_c, 3, 7872
6, 12597, Pitch_bend_c, 3, 8192
6, 12656, Note_on_c, 3, 63, 0
6, 12663, Note_on_c, 3, 61, 111
6, 12705, Note_on_c, 3, 61, 0
6, 12746, Note_on_c, 3, 60, 95
6, 12824, Note_on_c, 3, 60, 0
6, 12830, Note_on_c, 3, 58, 108
6, 12864, Note_on_c, 3, 58, 0
6, 12916, Note_on_c, 3, 60, 86
6, 12948, Note_on_c, 3, 61, 84
6, 12955, Note_on_c, 3, 60, 0
6, 12991, Note_on_c, 3, 61, 0
6, 13005, Note_on_c, 3, 58, 98
6, 13156, Note_on_c, 3, 58, 0
6, 13476, Pitch_bend_c, 3, 7616
6, 13478, Pitch_bend_c, 3, 7296
6, 13481, Pitch_bend_c, 3, 6848
6, 13483, Pitch_bend_c, 3, 6528
6, 13486, Pitch_bend_c, 3, 6080
6, 13488, Pitch_bend_c, 3, 5760
6, 13490, Pitch_bend_c, 3, 5568
6, 13493, Pitch_bend_c, 3, 5376
6, 13497, Pitch_bend_c, 3, 5120
6, 13516, Pitch_bend_c, 3, 4800
6, 13521, Pitch_bend_c, 3, 4608
6, 13523, Note_on_c, 3, 65, 109
6, 13531, Pitch_bend_c, 3, 4928
6, 13533, Pitch_bend_c, 3, 5248
6, 13536, Pitch_bend_c, 3, 5760
6, 13538, Pitch_bend_c, 3, 6784
6, 13540, Pitch_bend_c, 3, 8512
6, 13542, Pitch_bend_c, 3, 8192
6, 13617, Note_on_c, 3, 65, 0
6, 13636, Note_on_c, 3, 63, 104
6, 13703, Note_on_c, 3, 63, 0
6, 13744, Note_on_c, 3, 61, 92
6, 13836, Note_on_c, 3, 61, 0
6, 13836, Note_on_c, 3, 60, 88
6, 13865, Note_on_c, 3, 60, 0
6, 13935, Note_on_c, 3, 60, 95
6, 13974, Note_on_c, 3, 61, 79
6, 13978, Note_on_c, 3, 60, 0
6, 14028, Note_on_c, 3, 61, 0
6, 14032, Note_on_c, 3, 58, 89
6, 14220, Note_on_c, 3, 58, 0
6, 15004, Note_on_c, 3, 58, 111
6, 15075, Note_on_c, 3, 58, 0
6, 15126, Note_on_c, 3, 61, 101
6, 15192, Note_on_c, 3, 61, 0
6, 15249, Note_on_c, 3, 65, 113
6, 15322, Note_on_c, 3, 65, 0
6, 15340, Pitch_bend_c, 3, 7936
6, 15345, Pitch_bend_c, 3, 7488
6, 15347, Pitch_bend_c, 3, 7168
6, 15349, Pitch_bend_c, 3, 6656
6, 15351, Pitch_bend_c, 3, 6208
6, 15354, Pitch_bend_c, 3, 5760
6, 15356, Pitch_bend_c, 3, 5248
6, 15359, Pitch_bend_c, 3, 4928
6, 15366, Note_on_c, 3, 67, 117
6, 15371, Pitch_bend_c, 3, 5440
6, 15373, Pitch_bend_c, 3, 5888
6, 15375, Pitch_bend_c, 3, 6464
6, 15377, Pitch_bend_c, 3, 7168
6, 15380, Pitch_bend_c, 3, 8192
6, 15460, Note_on_c, 3, 67, 0
6, 15599, Pitch_bend_c, 3, 7744
6, 15604, Pitch_bend_c, 3, 7488
6, 15613, Pitch_bend_c, 3, 7744
6, 15615, Pitch_bend_c, 3, 8064
6, 15618, Pitch_bend_c, 3, 8192
6, 15618, Note_on_c, 3, 67, 113
6, 15712, Note_on_c, 3, 67, 0
6, 15830, Pitch_bend_c, 3, 7936
6, 15832, Pitch_bend_c, 3, 7296
6, 15835, Pitch_bend_c, 3, 6784
6, 15837, Pitch_bend_c, 3, 6336
6, 15840, Pitch_bend_c, 3, 6016
6, 15847, Pitch_bend_c, 3, 6208
6, 15849, Note_on_c, 3, 67, 109
6, 15850, Pitch_bend_c, 3, 7168
6, 15852, Pitch_bend_c, 3, 8192
6, 15912, Note_on_c, 3, 67, 0
6, 15921, Note_on_c, 3, 65, 92
6, 15969, Note_on_c, 3, 65, 0
6, 15971, Note_on_c, 3, 63, 87
6, 16133, Note_on_c, 3, 63, 0
6, 16146, Note_on_c, 3, 65, 106
6, 16194, Note_on_c, 3, 65, 0
6, 16239, Note_on_c, 3, 67, 113
6, 16309, Note_on_c, 3, 67, 0
6, 16346, Note_on_c, 3, 65, 109
6, 16415, Note_on_c, 3, 65, 0
6, 16428, Note_on_c, 3, 65, 98
6, 16478, Note_on_c, 3, 65, 0
6, 16874, Note_on_c, 3, 65, 98
6, 16928, Note_on_c, 3, 65, 0
6, 16961, Note_on_c, 3, 67, 101
6, 17008, Note_on_c, 3, 67, 0
6, 17050, Note_on_c, 3, 68, 115
6, 17185, Note_on_c, 3, 68, 0
6, 17205, Note_on_c, 3, 67, 104
6, 17247, Note_on_c, 3, 67, 0
6, 17249, Note_on_c, 3, 65, 80
6, 17286, Note_on_c, 3, 65, 0
6, 17331, Note_on_c, 3, 65, 109
6, 17408, Note_on_c, 3, 65, 0
6, 17411, Note_on_c, 3, 67, 106
6, 17459, Note_on_c, 3, 67, 0
6, 17664, Note_on_c, 3, 65, 109
6, 17696, Note_on_c, 3, 65, 0
6, 17711, Pitch_bend_c, 3, 7488
6, 17713, Pitch_bend_c, 3, 6976
6, 17715, Pitch_bend_c, 3, 6464
6, 17718, Pitch_bend_c, 3, 6080
6, 17721, Pitch_bend_c, 3, 5888
6, 17727, Pitch_bend_c, 3, 5696
6, 17729, Note_on_c, 3, 65, 117
6, 17733, Pitch_bend_c, 3, 6016
6, 17737, Pitch_bend_c, 3, 6336
6, 17739, Pitch_bend_c, 3, 6656
6, 17742, Pitch_bend_c, 3, 6976
6, 17744, Pitch_bend_c, 3, 7488
6, 17747, Pitch_bend_c, 3, 8192
6, 17866, Note_on_c, 3, 65, 0
6, 17872, Note_on_c, 3, 63, 104
6, 17905, Note_on_c, 3, 63, 0
6, 17948, Note_on_c, 3, 62, 106
6, 18080, Note_on_c, 3, 62, 0
6, 18093, Note_on_c, 3, 63, 89
6, 18109, Note_on_c, 3, 62, 74
6, 18110, Note_on_c, 3, 63, 0
6, 18121, Note_on_c, 3, 60, 86
6, 18131, Note_on_c, 3, 62, 0
6, 18163, Note_on_c, 3, 60, 0
6, 18204, Note_on_c, 3, 62, 113
6, 18347, Note_on_c, 3, 62, 0
6, 18631, Note_on_c, 3, 62, 101
6, 18666, Note_on_c, 3, 62, 0
6, 18680, Pitch_bend_c, 3, 7488
6, 18682, Pitch_bend_c, 3, 6976
6, 18684, Pitch_bend_c, 3, 6464
6, 18686, Pitch_bend_c, 3, 6016
6, 18689, Pitch_bend_c, 3, 5696
6, 18694, Pitch_bend_c, 3, 5440
6, 18703, Note_on_c, 3, 62, 109
6, 18704, Pitch_bend_c, 3, 5760
6, 18706, Pitch_bend_c, 3, 6016
6, 18708, Pitch_bend_c, 3, 6208
6, 18710, Pitch_bend_c, 3, 6784
6, 18713, Pitch_bend_c, 3, 7296
6, 18715, Pitch_bend_c, 3, 8064
6, 18718, Pitch_bend_c, 3, 8192
6, 18792, Note_on_c, 3, 62, 0
6, 18799, Note_on_c, 3, 60, 90
6, 18850, Note_on_c, 3, 60, 0
6, 18853, Note_on_c, 3, 58, 95
6, 19055, Note_on_c, 3, 60, 84
6, 19057, Note_on_c, 3, 58, 0
6, 19094, Note_on_c, 3, 60, 0
6, 19107, Note_on_c, 3, 62, 95
6, 19139, Note_on_c, 3, 62, 0
6, 19187, Note_on_c, 3, 60, 98
6, 19288, Note_on_c, 3, 62, 101
6, 19295, Note_on_c, 3, 60, 0
6, 19315, Note_on_c, 3, 62, 0
6, 19606, Note_on_c, 3, 55, 88
6, 19627, Note_on_c, 3, 55, 0
6, 19642, Note_on_c, 3, 58, 92
6, 19664, Note_on_c, 3, 58, 0
6, 19692, Note_on_c, 3, 60, 106
6, 19831, Note_on_c, 3, 60, 0
6, 19859, Note_on_c, 3, 58, 104
6, 19882, Note_on_c, 3, 58, 0
6, 19896, Note_on_c, 3, 60, 101
6, 19927, Note_on_c, 3, 60, 0
6, 19937, Note_on_c, 3, 57, 101
6, 20111, Note_on_c, 3, 57, 0
6, 20128, Note_on_c, 3, 60, 109
6, 20171, Note_on_c, 3, 60, 0
6, 20176, Note_on_c, 3, 57, 104
6, 20220, Note_on_c, 3, 57, 0
6, 24151, Note_on_c, 3, 64, 109
6, 24216, Note_on_c, 3, 64, 0
6, 24220, Note_on_c, 3, 67, 109
6, 24336, Note_on_c, 3, 67, 0
6, 24368, Note_on_c, 3, 64, 109
6, 24439, Note_on_c, 3, 64, 0
6, 24441, Note_on_c, 3, 63, 104
6, 24626, Note_on_c, 3, 63, 0
6, 24950, Pitch_bend_c, 3, 7872
6, 24953, Pitch_bend_c, 3, 7296
6, 24955, Pitch_bend_c, 3, 6784
6, 24958, Pitch_bend_c, 3, 6336
6, 24960, Pitch_bend_c, 3, 5888
6, 24962, Pitch_bend_c, 3, 5376
6, 24965, Pitch_bend_c, 3, 5056
6, 24967, Pitch_bend_c, 3, 4608
6, 24970, Pitch_bend_c, 3, 4288
6, 24982, Note_on_c, 3, 69, 117
6, 24984, Pitch_bend_c, 3, 4672
6, 24986, Pitch_bend_c, 3, 5248
6, 24987, Note_on_c, 3, 67, 76
6, 24989, Pitch_bend_c, 3, 6080
6, 24992, Pitch_bend_c, 3, 6976
6, 24994, Note_on_c, 3, 67, 0
6, 24994, Pitch_bend_c, 3, 8192
6, 25089, Note_on_c, 3, 69, 0
6, 25107, Note_on_c, 3, 67, 106
6, 25179, Note_on_c, 3, 67, 0
6, 25224, Note_on_c, 3, 65, 106
6, 25323, Note_on_c, 3, 65, 0
6, 25332, Note_on_c, 3, 62, 101
6, 25437, Note_on_c, 3, 62, 0
6, 25445, Note_on_c, 3, 61, 98
6, 25540, Note_on_c, 3, 61, 0
6, 25564, Note_on_c, 3, 65, 101
6, 25652, Note_on_c, 3, 65, 0
6, 25695, Note_on_c, 3, 65, 106
6, 25947, Note_on_c, 3, 65, 0
6, 33728, Note_on_c, 3, 58, 111
6, 33802, Note_on_c, 3, 58, 0
6, 33847, Note_on_c, 3, 61, 98
6, 33911, Note_on_c, 3, 61, 0
6, 33972, Note_on_c, 3, 65, 95
6, 34063, Note_on_c, 3, 65, 0
6, 34079, Pitch_bend_c, 3, 7936
6, 34081, Pitch_bend_c, 3, 7744
6, 34083, Pitch_bend_c, 3, 7296
6, 34086, Pitch_bend_c, 3, 6976
6, 34088, Pitch_bend_c, 3, 6656
6, 34091, Pitch_bend_c, 3, 6208
6, 34093, Pitch_bend_c, 3, 5888
6, 34095, Pitch_bend_c, 3, 5376
6, 34098, Pitch_bend_c, 3, 5056
6, 34099, Note_on_c, 3, 65, 113
6, 34100, Pitch_bend_c, 3, 4800
6, 34110, Pitch_bend_c, 3, 5056
6, 34112, Pitch_bend_c, 3, 5376
6, 34114, Pitch_bend_c, 3, 5760
6, 34116, Pitch_bend_c, 3, 6336
6, 34119, Pitch_bend_c, 3, 6848
6, 34121, Pitch_bend_c, 3, 7616
6, 34124, Pitch_bend_c, 3, 8192
6, 34197, Note_on_c, 3, 65, 0
6, 34197, Note_on_c, 3, 63, 111
6, 34350, Note_on_c, 3, 63, 0
6, 34500, Note_on_c, 3, 58, 111
6, 34523, Note_on_c, 3, 58, 0
6, 34535, Note_on_c, 3, 58, 92
6, 34571, Note_on_c, 3, 58, 0
6, 34581, Note_on_c, 3, 61, 108
6, 34700, Pitch_bend_c, 3, 7936
6, 34702, Pitch_bend_c, 3, 7744
6, 34704, Pitch_bend_c, 3, 7488
6, 34707, Pitch_bend_c, 3, 7296
6, 34712, Pitch_bend_c, 3, 7104
6, 34716, Pitch_bend_c, 3, 6784
6, 34721, Pitch_bend_c, 3, 6464
6, 34726, Pitch_bend_c, 3, 6208
6, 34727, Note_on_c, 3, 61, 0
6, 34728, Pitch_bend_c, 3, 6016
6, 34735, Pitch_bend_c, 3, 5760
6, 34742, Pitch_bend_c, 3, 6016
6, 34745, Pitch_bend_c, 3, 6208
6, 34750, Pitch_bend_c, 3, 6656
6, 34752, Pitch_bend_c, 3, 7168
6, 34754, Pitch_bend_c, 3, 7936
6, 34757, Pitch_bend_c, 3, 8192
6, 35091, Pitch_bend_c, 3, 7296
6, 35093, Pitch_bend_c, 3, 6784
6, 35096, Pitch_bend_c, 3, 6208
6, 35098, Pitch_bend_c, 3, 5376
6, 35100, Pitch_bend_c, 3, 4672
6, 35102, Pitch_bend_c, 3, 4160
6, 35105, Pitch_bend_c, 3, 3712
6, 35107, Pitch_bend_c, 3, 3264
6, 35110, Pitch_bend_c, 3, 2752
6, 35112, Pitch_bend_c, 3, 2560
6, 35114, Note_on_c, 3, 63, 120
6, 35127, Pitch_bend_c, 3, 2880
6, 35129, Pitch_bend_c, 3, 3264
6, 35131, Pitch_bend_c, 3, 3968
6, 35134, Pitch_bend_c, 3, 5056
6, 35136, Pitch_bend_c, 3, 6656
6, 35138, Pitch_bend_c, 3, 8064
6, 35140, Pitch_bend_c, 3, 8192
6, 35202, Note_on_c, 3, 63, 0
6, 35210, Note_on_c, 3, 61, 108
6, 35246, Note_on_c, 3, 61, 0
6, 35297, Note_on_c, 3, 60, 104
6, 35382, Note_on_c, 3, 58, 95
6, 35385, Note_on_c, 3, 60, 0
6, 35427, Note_on_c, 3, 58, 0
6, 35482, Note_on_c, 3, 60, 101
6, 35518, Note_on_c, 3, 61, 95
6, 35522, Note_on_c, 3, 60, 0
6, 35561, Note_on_c, 3, 61, 0
6, 35568, Note_on_c, 3, 58, 101
6, 35700, Note_on_c, 3, 58, 0
6, 36064, Pitch_bend_c, 3, 7744
6, 36066, Pitch_bend_c, 3, 6976
6, 36068, Pitch_bend_c, 3, 6016
6, 36071, Pitch_bend_c, 3, 5056
6, 36073, Pitch_bend_c, 3, 4288
6, 36075, Pitch_bend_c, 3, 3264
6, 36078, Pitch_bend_c, 3, 2432
6, 36080, Pitch_bend_c, 3, 1792
6, 36083, Pitch_bend_c, 3, 1472
6, 36084, Note_on_c, 3, 65, 113
6, 36090, Pitch_bend_c, 3, 1664
6, 36092, Pitch_bend_c, 3, 1984
6, 36095, Pitch_bend_c, 3, 2624
6, 36097, Pitch_bend_c, 3, 3648
6, 36099, Pitch_bend_c, 3, 4800
6, 36102, Pitch_bend_c, 3, 6528
6, 36104, Pitch_bend_c, 3, 8192
6, 36185, Note_on_c, 3, 65, 0
6, 36193, Note_on_c, 3, 63, 120
6, 36351, Note_on_c, 3, 63, 0
6, 36396, Note_on_c, 3, 61, 111
6, 36432, Note_on_c, 3, 60, 92
6, 36436, Note_on_c, 3, 61, 0
6, 36471, Note_on_c, 3, 60, 0
6, 36516, Note_on_c, 3, 60, 106
6, 36546, Note_on_c, 3, 61, 104
6, 36550, Note_on_c, 3, 60, 0
6, 36583, Note_on_c, 3, 61, 0
6, 36587, Note_on_c, 3, 58, 92
6, 36721, Note_on_c, 3, 58, 0
6, 37571, Note_on_c, 3, 58, 115
6, 37665, Note_on_c, 3, 58, 0
6, 37682, Note_on_c, 3, 61, 108
6, 37754, Note_on_c, 3, 61, 0
6, 37809, Note_on_c, 3, 65, 106
6, 37896, Note_on_c, 3, 65, 0
6, 37928, Note_on_c, 3, 67, 106
6, 38077, Note_on_c, 3, 67, 0
6, 38160, Note_on_c, 3, 67, 109
6, 38318, Note_on_c, 3, 67, 0
6, 38361, Pitch_bend_c, 3, 7872
6, 38364, Pitch_bend_c, 3, 7296
6, 38366, Pitch_bend_c, 3, 6848
6, 38368, Pitch_bend_c, 3, 6208
6, 38370, Pitch_bend_c, 3, 5760
6, 38373, Pitch_bend_c, 3, 5568
6, 38375, Pitch_bend_c, 3, 5376
6, 38380, Pitch_bend_c, 3, 5120
6, 38387, Pitch_bend_c, 3, 5376
6, 38395, Note_on_c, 3, 67, 106
6, 38397, Pitch_bend_c, 3, 5760
6, 38399, Pitch_bend_c, 3, 6208
6, 38401, Pitch_bend_c, 3, 6656
6, 38404, Pitch_bend_c, 3, 7104
6, 38406, Pitch_bend_c, 3, 7744
6, 38409, Pitch_bend_c, 3, 8192
6, 38471, Note_on_c, 3, 67, 0
6, 38473, Note_on_c, 3, 65, 88
6, 38518, Note_on_c, 3, 65, 0
6, 38525, Note_on_c, 3, 63, 104
6, 38694, Note_on_c, 3, 63, 0
6, 38709, Note_on_c, 3, 65, 109
6, 38774, Note_on_c, 3, 65, 0
6, 38793, Note_on_c, 3, 67, 106
6, 38844, Note_on_c, 3, 67, 0
6, 38856, Pitch_bend_c, 3, 7488
6, 38858, Pitch_bend_c, 3, 6848
6, 38860, Pitch_bend_c, 3, 6208
6, 38863, Pitch_bend_c, 3, 5568
6, 38865, Pitch_bend_c, 3, 4928
6, 38868, Pitch_bend_c, 3, 4288
6, 38870, Pitch_bend_c, 3, 3712
6, 38872, Pitch_bend_c, 3, 3392
6, 38874, Pitch_bend_c, 3, 3200
6, 38880, Note_on_c, 3, 65, 117
6, 38887, Pitch_bend_c, 3, 3712
6, 38889, Pitch_bend_c, 3, 4288
6, 38892, Pitch_bend_c, 3, 5120
6, 38894, Pitch_bend_c, 3, 6208
6, 38896, Pitch_bend_c, 3, 7168
6, 38898, Pitch_bend_c, 3, 8192
6, 38961, Note_on_c, 3, 65, 0
6, 38964, Pitch_bend_c, 3, 7872
6, 38967, Pitch_bend_c, 3, 7104
6, 38969, Pitch_bend_c, 3, 6336
6, 38972, Pitch_bend_c, 3, 5760
6, 38973, Note_on_c, 3, 65, 113
6, 38975, Pitch_bend_c, 3, 5440
6, 38981, Pitch_bend_c, 3, 5760
6, 38984, Pitch_bend_c, 3, 6080
6, 38986, Pitch_bend_c, 3, 6528
6, 38988, Pitch_bend_c, 3, 7104
6, 38991, Pitch_bend_c, 3, 8192
6, 39154, Note_on_c, 3, 65, 0
6, 39165, Note_on_c, 3, 63, 104
6, 39179, Note_on_c, 3, 61, 75
6, 39182, Note_on_c, 3, 63, 0
6, 39186, Note_on_c, 3, 61, 0
6, 39442, Note_on_c, 3, 65, 113
6, 39508, Note_on_c, 3, 65, 0
6, 39523, Note_on_c, 3, 67, 109
6, 39543, Note_on_c, 3, 67, 0
6, 39577, Pitch_bend_c, 3, 7616
6, 39579, Pitch_bend_c, 3, 6848
6, 39581, Pitch_bend_c, 3, 6336
6, 39584, Pitch_bend_c, 3, 5568
6, 39586, Pitch_bend_c, 3, 5120
6, 39588, Pitch_bend_c, 3, 4800
6, 39591, Pitch_bend_c, 3, 4480
6, 39593, Pitch_bend_c, 3, 4288
6, 39596, Pitch_bend_c, 3, 4032
6, 39600, Note_on_c, 3, 68, 115
6, 39603, Pitch_bend_c, 3, 4288
6, 39605, Pitch_bend_c, 3, 4608
6, 39608, Pitch_bend_c, 3, 5120
6, 39610, Pitch_bend_c, 3, 5888
6, 39613, Pitch_bend_c, 3, 6656
6, 39615, Pitch_bend_c, 3, 7296
6, 39618, Pitch_bend_c, 3, 8192
6, 39758, Note_on_c, 3, 68, 0
6, 39765, Note_on_c, 3, 67, 98
6, 39798, Note_on_c, 3, 65, 101
6, 39800, Note_on_c, 3, 67, 0
6, 39828, Note_on_c, 3, 65, 0
6, 39862, Note_on_c, 3, 65, 113
6, 39937, Note_on_c, 3, 67, 109
6, 39938, Note_on_c, 3, 65, 0
6, 39984, Note_on_c, 3, 67, 0
6, 40211, Note_on_c, 3, 65, 117
6, 40238, Note_on_c, 3, 65, 0
6, 40263, Pitch_bend_c, 3, 7936
6, 40265, Pitch_bend_c, 3, 6848
6, 40267, Pitch_bend_c, 3, 6016
6, 40270, Pitch_bend_c, 3, 5120
6, 40272, Pitch_bend_c, 3, 4352
6, 40274, Pitch_bend_c, 3, 4032
6, 40276, Note_on_c, 3, 65, 113
6, 40284, Pitch_bend_c, 3, 4288
6, 40286, Pitch_bend_c, 3, 4480
6, 40289, Pitch_bend_c, 3, 5120
6, 40291, Pitch_bend_c, 3, 5760
6, 40293, Pitch_bend_c, 3, 6464
6, 40296, Pitch_bend_c, 3, 7296
6, 40298, Pitch_bend_c, 3, 8192
6, 40433, Note_on_c, 3, 65, 0
6, 40435, Note_on_c, 3, 63, 111
6, 40466, Note_on_c, 3, 63, 0
6, 40521, Note_on_c, 3, 62, 113
6, 40644, Note_on_c, 3, 62, 0
6, 40657, Note_on_c, 3, 63, 82
6, 40672, Note_on_c, 3, 62, 76
6, 40676, Note_on_c, 3, 63, 0
6, 40684, Note_on_c, 3, 60, 90
6, 40689, Note_on_c, 3, 62, 0
6, 40755, Note_on_c, 3, 60, 0
6, 40760, Note_on_c, 3, 62, 106
6, 40925, Note_on_c, 3, 62, 0
6, 41175, Note_on_c, 3, 62, 95
6, 41201, Note_on_c, 3, 62, 0
6, 41229, Pitch_bend_c, 3, 7936
6, 41231, Pitch_bend_c, 3, 7104
6, 41233, Pitch_bend_c, 3, 6464
6, 41236, Pitch_bend_c, 3, 5696
6, 41238, Pitch_bend_c, 3, 5248
6, 41241, Pitch_bend_c, 3, 5056
6, 41244, Note_on_c, 3, 62, 106
6, 41250, Pitch_bend_c, 3, 5440
6, 41253, Pitch_bend_c, 3, 5888
6, 41255, Pitch_bend_c, 3, 6336
6, 41257, Pitch_bend_c, 3, 6848
6, 41259, Pitch_bend_c, 3, 7872
6, 41262, Pitch_bend_c, 3, 8192
6, 41341, Note_on_c, 3, 60, 88
6, 41342, Note_on_c, 3, 62, 0
6, 41380, Note_on_c, 3, 60, 0
6, 41405, Note_on_c, 3, 58, 95
6, 41624, Note_on_c, 3, 58, 0
6, 41671, Note_on_c, 3, 60, 90
6, 41700, Note_on_c, 3, 60, 0
6, 41709, Note_on_c, 3, 62, 104
6, 41744, Note_on_c, 3, 62, 0
6, 41789, Note_on_c, 3, 60, 104
6, 41864, Note_on_c, 3, 60, 0
6, 41865, Note_on_c, 3, 62, 101
6, 41893, Note_on_c, 3, 62, 0
6, 42167, Note_on_c, 3, 55, 86
6, 42191, Note_on_c, 3, 55, 0
6, 42202, Note_on_c, 3, 58, 95
6, 42224, Note_on_c, 3, 58, 0
6, 42255, Note_on_c, 3, 60, 106
6, 42404, Note_on_c, 3, 60, 0
6, 42436, Note_on_c, 3, 58, 84
6, 42456, Note_on_c, 3, 58, 0
6, 42476, Note_on_c, 3, 60, 71
6, 42505, Note_on_c, 3, 57, 98
6, 42506, Note_on_c, 3, 60, 0
6, 42665, Note_on_c, 3, 57, 0
6, 42682, Note_on_c, 3, 60, 104
6, 42717, Note_on_c, 3, 60, 0
6, 42723, Note_on_c, 3, 57, 104
6, 42777, Note_on_c, 3, 57, 0
6, 46704, Note_on_c, 3, 64, 113
6, 46760, Note_on_c, 3, 64, 0
6, 46764, Note_on_c, 3, 67, 109
6, 46913, Note_on_c, 3, 67, 0
6, 46936, Note_on_c, 3, 64, 106
6, 46996, Note_on_c, 3, 64, 0
6, 47002, Note_on_c, 3, 63, 95
6, 47182, Note_on_c, 3, 63, 0
6, 47532, Note_on_c, 3, 69, 84
6, 47619, Note_on_c, 3, 69, 0
6, 47644, Note_on_c, 3, 67, 84
6, 47724, Note_on_c, 3, 67, 0
6, 47763, Note_on_c, 3, 65, 95
6, 47867, Note_on_c, 3, 65, 0
6, 47879, Note_on_c, 3, 62, 90
6, 47983, Note_on_c, 3, 62, 0
6, 47999, Note_on_c, 3, 61, 82
6, 48087, Note_on_c, 3, 61, 0
6, 48127, Note_on_c, 3, 65, 92
6, 48208, Note_on_c, 3, 65, 0
6, 48225, Pitch_bend_c, 3, 7872
6, 48228, Pitch_bend_c, 3, 7168
6, 48230, Pitch_bend_c, 3, 6656
6, 48232, Pitch_bend_c, 3, 6080
6, 48235, Pitch_bend_c, 3, 5696
6, 48237, Pitch_bend_c, 3, 5376
6, 48240, Pitch_bend_c, 3, 5120
6, 48250, Note_on_c, 3, 65, 98
6, 48252, Pitch_bend_c, 3, 5376
6, 48256, Pitch_bend_c, 3, 6016
6, 48258, Pitch_bend_c, 3, 6464
6, 48261, Pitch_bend_c, 3, 6848
6, 48263, Pitch_bend_c, 3, 7488
6, 48265, Pitch_bend_c, 3, 8192
6, 48495, Note_on_c, 3, 65, 0
6, 57241, Note_on_c, 3, 58, 104
6, 57308, Note_on_c, 3, 58, 0
6, 57360, Note_on_c, 3, 61, 111
6, 57420, Note_on_c, 3, 61, 0
6, 57481, Note_on_c, 3, 65, 104
6, 57560, Note_on_c, 3, 65, 0
6, 57600, Note_on_c, 3, 67, 109
6, 57707, Note_on_c, 3, 67, 0
6, 57856, Note_on_c, 3, 67, 113
6, 57979, Note_on_c, 3, 67, 0
6, 58038, Pitch_bend_c, 3, 7936
6, 58040, Pitch_bend_c, 3, 7488
6, 58043, Pitch_bend_c, 3, 7168
6, 58045, Pitch_bend_c, 3, 6784
6, 58047, Pitch_bend_c, 3, 6336
6, 58050, Pitch_bend_c, 3, 5760
6, 58052, Pitch_bend_c, 3, 5056
6, 58055, Pitch_bend_c, 3, 4352
6, 58057, Pitch_bend_c, 3, 3968
6, 58059, Pitch_bend_c, 3, 3520
6, 58064, Pitch_bend_c, 3, 3264
6, 58073, Pitch_bend_c, 3, 3520
6, 58076, Pitch_bend_c, 3, 3840
6, 58077, Note_on_c, 3, 67, 113
6, 58079, Pitch_bend_c, 3, 4352
6, 58081, Pitch_bend_c, 3, 5120
6, 58083, Pitch_bend_c, 3, 6208
6, 58085, Pitch_bend_c, 3, 7168
6, 58088, Pitch_bend_c, 3, 8192
6, 58157, Note_on_c, 3, 67, 0
6, 58166, Note_on_c, 3, 65, 86
6, 58206, Note_on_c, 3, 65, 0
6, 58212, Note_on_c, 3, 63, 108
6, 58385, Note_on_c, 3, 63, 0
6, 58398, Note_on_c, 3, 65, 106
6, 58452, Note_on_c, 3, 65, 0
6, 58475, Note_on_c, 3, 67, 106
6, 58523, Note_on_c, 3, 67, 0
6, 58553, Note_on_c, 3, 65, 109
6, 58625, Note_on_c, 3, 65, 0
6, 58641, Pitch_bend_c, 3, 7488
6, 58643, Pitch_bend_c, 3, 6976
6, 58646, Pitch_bend_c, 3, 6464
6, 58648, Pitch_bend_c, 3, 6016
6, 58650, Pitch_bend_c, 3, 5696
6, 58653, Note_on_c, 3, 65, 104
6, 58653, Pitch_bend_c, 3, 5440
6, 58660, Pitch_bend_c, 3, 6016
6, 58662, Pitch_bend_c, 3, 6336
6, 58665, Pitch_bend_c, 3, 6528
6, 58667, Pitch_bend_c, 3, 7104
6, 58669, Pitch_bend_c, 3, 8064
6, 58672, Pitch_bend_c, 3, 8192
6, 58772, Note_on_c, 3, 65, 0
6, 59120, Note_on_c, 3, 65, 109
6, 59173, Note_on_c, 3, 65, 0
6, 59208, Note_on_c, 3, 67, 113
6, 59254, Note_on_c, 3, 67, 0
6, 59261, Pitch_bend_c, 3, 7616
6, 59264, Pitch_bend_c, 3, 7424
6, 59271, Pitch_bend_c, 3, 7168
6, 59275, Pitch_bend_c, 3, 6976
6, 59278, Pitch_bend_c, 3, 6784
6, 59280, Pitch_bend_c, 3, 6464
6, 59282, Pitch_bend_c, 3, 5888
6, 59285, Pitch_bend_c, 3, 5376
6, 59287, Pitch_bend_c, 3, 4928
6, 59290, Pitch_bend_c, 3, 4608
6, 59290, Note_on_c, 3, 68, 126
6, 59302, Pitch_bend_c, 3, 4928
6, 59304, Pitch_bend_c, 3, 5248
6, 59306, Pitch_bend_c, 3, 5568
6, 59309, Pitch_bend_c, 3, 6080
6, 59311, Pitch_bend_c, 3, 6656
6, 59314, Pitch_bend_c, 3, 7296
6, 59316, Pitch_bend_c, 3, 8064
6, 59318, Pitch_bend_c, 3, 8192
6, 59450, Note_on_c, 3, 68, 0
6, 59456, Note_on_c, 3, 67, 101
6, 59484, Note_on_c, 3, 67, 0
6, 59486, Note_on_c, 3, 65, 101
6, 59520, Note_on_c, 3, 65, 0
6, 59550, Note_on_c, 3, 65, 106
6, 59623, Note_on_c, 3, 67, 109
6, 59626, Note_on_c, 3, 65, 0
6, 59672, Note_on_c, 3, 67, 0
6, 59889, Note_on_c, 3, 65, 121
6, 59926, Note_on_c, 3, 65, 0
6, 59947, Pitch_bend_c, 3, 7744
6, 59949, Pitch_bend_c, 3, 7168
6, 59952, Pitch_bend_c, 3, 6784
6, 59954, Pitch_bend_c, 3, 6528
6, 59959, Pitch_bend_c, 3, 6336
6, 59960, Note_on_c, 3, 65, 125
6, 59966, Pitch_bend_c, 3, 6016
6, 59968, Pitch_bend_c, 3, 5696
6, 59971, Pitch_bend_c, 3, 5376
6, 59973, Pitch_bend_c, 3, 5120
6, 59978, Pitch_bend_c, 3, 4928
6, 59985, Pitch_bend_c, 3, 5248
6, 59987, Pitch_bend_c, 3, 5440
6, 59990, Pitch_bend_c, 3, 5888
6, 59992, Pitch_bend_c, 3, 6336
6, 59995, Pitch_bend_c, 3, 6976
6, 59997, Pitch_bend_c, 3, 8192
6, 60122, Note_on_c, 3, 65, 0
6, 60125, Note_on_c, 3, 63, 115
6, 60161, Note_on_c, 3, 63, 0
6, 60202, Note_on_c, 3, 62, 113
6, 60357, Note_on_c, 3, 62, 0
6, 60360, Note_on_c, 3, 60, 104
6, 60430, Note_on_c, 3, 60, 0
6, 60435, Note_on_c, 3, 62, 106
6, 60557, Note_on_c, 3, 62, 0
6, 60854, Note_on_c, 3, 62, 109
6, 60892, Note_on_c, 3, 62, 0
6, 60905, Pitch_bend_c, 3, 7616
6, 60908, Pitch_bend_c, 3, 6976
6, 60910, Pitch_bend_c, 3, 6208
6, 60912, Pitch_bend_c, 3, 5376
6, 60914, Pitch_bend_c, 3, 4672
6, 60917, Pitch_bend_c, 3, 4352
6, 60923, Note_on_c, 3, 62, 106
6, 60929, Pitch_bend_c, 3, 4800
6, 60931, Pitch_bend_c, 3, 5376
6, 60934, Pitch_bend_c, 3, 6016
6, 60936, Pitch_bend_c, 3, 6784
6, 60938, Pitch_bend_c, 3, 7616
6, 60941, Pitch_bend_c, 3, 8192
6, 61027, Note_on_c, 3, 60, 98
6, 61029, Note_on_c, 3, 62, 0
6, 61059, Note_on_c, 3, 60, 0
6, 61083, Note_on_c, 3, 58, 104
6, 61342, Note_on_c, 3, 58, 0
6, 61368, Note_on_c, 3, 60, 101
6, 61398, Note_on_c, 3, 60, 0
6, 61410, Note_on_c, 3, 62, 101
6, 61442, Note_on_c, 3, 62, 0
6, 61485, Note_on_c, 3, 60, 106
6, 61557, Note_on_c, 3, 62, 101
6, 61560, Note_on_c, 3, 60, 0
6, 61605, Note_on_c, 3, 62, 0
6, 61849, Note_on_c, 3, 55, 82
6, 61869, Note_on_c, 3, 55, 0
6, 61874, Note_on_c, 3, 58, 104
6, 61899, Note_on_c, 3, 58, 0
6, 61922, Note_on_c, 3, 60, 109
6, 62071, Note_on_c, 3, 60, 0
6, 62102, Note_on_c, 3, 58, 101
6, 62124, Note_on_c, 3, 58, 0
6, 62137, Note_on_c, 3, 60, 90
6, 62172, Note_on_c, 3, 60, 0
6, 62176, Note_on_c, 3, 57, 98
6, 62334, Note_on_c, 3, 57, 0
6, 62355, Note_on_c, 3, 60, 106
6, 62395, Note_on_c, 3, 60, 0
6, 62401, Note_on_c, 3, 57, 106
6, 62464, Note_on_c, 3, 57, 0
6, 62661, Note_on_c, 3, 57, 80
6, 62698, Note_on_c, 3, 57, 0
6, 62726, Note_on_c, 3, 60, 68
6, 62754, Note_on_c, 3, 60, 0
6, 62770, Note_on_c, 3, 62, 44
6, 62822, Note_on_c, 3, 62, 0
6, 66353, Pitch_bend_c, 3, 7744
6, 66355, Pitch_bend_c, 3, 7104
6, 66357, Pitch_bend_c, 3, 6208
6, 66360, Pitch_bend_c, 3, 5248
6, 66362, Pitch_bend_c, 3, 4480
6, 66364, Pitch_bend_c, 3, 4032
6, 66369, Pitch_bend_c, 3, 3840
6, 66371, Note_on_c, 3, 64, 106
6, 66376, Pitch_bend_c, 3, 4160
6, 66379, Pitch_bend_c, 3, 4480
6, 66381, Pitch_bend_c, 3, 5120
6, 66384, Pitch_bend_c, 3, 5888
6, 66385, Pitch_bend_c, 3, 6976
6, 66388, Pitch_bend_c, 3, 8192
6, 66450, Note_on_c, 3, 64, 0
6, 66455, Note_on_c, 3, 67, 104
6, 66585, Note_on_c, 3, 67, 0
6, 66603, Note_on_c, 3, 64, 117
6, 66672, Note_on_c, 3, 64, 0
6, 66675, Note_on_c, 3, 63, 98
6, 66836, Note_on_c, 3, 63, 0
6, 67212, Note_on_c, 3, 69, 106
6, 67332, Note_on_c, 3, 69, 0
6, 67444, Note_on_c, 3, 65, 92
6, 67554, Note_on_c, 3, 65, 0
6, 67564, Note_on_c, 3, 62, 95
6, 67672, Note_on_c, 3, 62, 0
6, 67685, Note_on_c, 3, 61, 104
6, 67726, Note_on_c, 3, 61, 0
6, 67812, Note_on_c, 3, 65, 98
6, 67871, Note_on_c, 3, 65, 0
6, 67928, Note_on_c, 3, 65, 98
6, 68189, Note_on_c, 3, 65, 0
6, 68189, End_track
7, 0, Start_track
7, 0, MIDI_port, 0
7, 0, Title_t, "bg voc"
7, 0, Control_c, 4, 0, 56
7, 0, Control_c, 4, 32, 0
7, 0, Program_c, 4, 74
7, 240, Control_c, 4, 7, 91
7, 240, Control_c, 4, 10, 29
7, 240, Control_c, 4, 93, 33
7, 240, Control_c, 4, 91, 46
7, 20402, Note_on_c, 4, 57, 109
7, 20475, Note_on_c, 4, 57, 0
7, 20484, Note_on_c, 4, 60, 95
7, 20520, Note_on_c, 4, 60, 0
7, 20531, Note_on_c, 4, 62, 101
7, 20578, Note_on_c, 4, 62, 0
7, 20657, Note_on_c, 4, 62, 113
7, 20661, Note_on_c, 4, 65, 95
7, 20694, Note_on_c, 4, 62, 0
7, 20701, Note_on_c, 4, 65, 0
7, 20778, Note_on_c, 4, 65, 113
7, 20780, Note_on_c, 4, 60, 109
7, 20848, Note_on_c, 4, 62, 63
7, 21044, Note_on_c, 4, 62, 0
7, 21049, Note_on_c, 4, 60, 0
7, 21051, Note_on_c, 4, 65, 0
7, 21129, Note_on_c, 4, 63, 111
7, 21130, Note_on_c, 4, 67, 106
7, 21192, Note_on_c, 4, 63, 0
7, 21197, Note_on_c, 4, 67, 0
7, 21201, Note_on_c, 4, 69, 98
7, 21205, Note_on_c, 4, 65, 106
7, 21209, Note_on_c, 4, 67, 60
7, 21217, Note_on_c, 4, 67, 0
7, 21227, Note_on_c, 4, 65, 0
7, 21232, Note_on_c, 4, 69, 0
7, 22338, Note_on_c, 4, 60, 90
7, 22355, Note_on_c, 4, 62, 65
7, 22362, Note_on_c, 4, 60, 0
7, 22407, Note_on_c, 4, 62, 0
7, 22421, Note_on_c, 4, 62, 40
7, 22468, Note_on_c, 4, 62, 0
7, 22479, Note_on_c, 4, 65, 68
7, 22496, Note_on_c, 4, 65, 0
7, 22569, Note_on_c, 4, 62, 82
7, 22570, Note_on_c, 4, 65, 98
7, 22598, Note_on_c, 4, 65, 0
7, 22603, Note_on_c, 4, 62, 0
7, 22688, Note_on_c, 4, 62, 90
7, 22689, Note_on_c, 4, 65, 104
7, 22689, Note_on_c, 4, 60, 86
7, 22966, Note_on_c, 4, 62, 0
7, 22967, Note_on_c, 4, 60, 0
7, 22972, Note_on_c, 4, 65, 0
7, 23046, Note_on_c, 4, 67, 113
7, 23047, Note_on_c, 4, 63, 111
7, 23112, Note_on_c, 4, 67, 0
7, 23121, Note_on_c, 4, 63, 0
7, 23123, Note_on_c, 4, 65, 98
7, 23124, Note_on_c, 4, 69, 104
7, 23154, Note_on_c, 4, 69, 0
7, 23155, Note_on_c, 4, 65, 0
7, 24974, Note_on_c, 4, 72, 101
7, 24975, Note_on_c, 4, 69, 104
7, 24976, Note_on_c, 4, 65, 101
7, 25080, Note_on_c, 4, 72, 0
7, 25086, Note_on_c, 4, 70, 104
7, 25092, Note_on_c, 4, 65, 0
7, 25093, Note_on_c, 4, 69, 0
7, 25099, Note_on_c, 4, 63, 95
7, 25101, Note_on_c, 4, 67, 95
7, 25194, Note_on_c, 4, 63, 0
7, 25194, Note_on_c, 4, 70, 0
7, 25200, Note_on_c, 4, 67, 0
7, 25206, Note_on_c, 4, 69, 106
7, 25219, Note_on_c, 4, 62, 92
7, 25220, Note_on_c, 4, 65, 109
7, 25320, Note_on_c, 4, 62, 0
7, 25320, Note_on_c, 4, 69, 0
7, 25329, Note_on_c, 4, 65, 0
7, 25331, Note_on_c, 4, 65, 104
7, 25335, Note_on_c, 4, 62, 88
7, 25336, Note_on_c, 4, 60, 86
7, 25357, Note_on_c, 4, 60, 0
7, 25418, Note_on_c, 4, 65, 0
7, 25451, Note_on_c, 4, 62, 0
7, 25452, Note_on_c, 4, 65, 101
7, 25461, Note_on_c, 4, 61, 108
7, 25481, Note_on_c, 4, 58, 40
7, 25532, Note_on_c, 4, 65, 0
7, 25545, Note_on_c, 4, 58, 0
7, 25552, Note_on_c, 4, 61, 0
7, 25569, Note_on_c, 4, 65, 98
7, 25573, Note_on_c, 4, 68, 111
7, 25574, Note_on_c, 4, 62, 98
7, 25575, Note_on_c, 4, 58, 75
7, 25603, Note_on_c, 4, 62, 0
7, 25655, Note_on_c, 4, 58, 0
7, 25669, Note_on_c, 4, 65, 0
7, 25683, Note_on_c, 4, 68, 0
7, 25692, Note_on_c, 4, 67, 104
7, 25697, Note_on_c, 4, 65, 82
7, 25806, Note_on_c, 4, 65, 0
7, 25921, Pitch_bend_c, 4, 8640
7, 25923, Pitch_bend_c, 4, 9088
7, 25925, Pitch_bend_c, 4, 9408
7, 25928, Pitch_bend_c, 4, 9920
7, 25931, Pitch_bend_c, 4, 10688
7, 25932, Pitch_bend_c, 4, 11264
7, 25935, Pitch_bend_c, 4, 11904
7, 25937, Pitch_bend_c, 4, 12672
7, 25940, Pitch_bend_c, 4, 13440
7, 25942, Pitch_bend_c, 4, 13952
7, 25944, Pitch_bend_c, 4, 14528
7, 25947, Pitch_bend_c, 4, 15040
7, 25949, Pitch_bend_c, 4, 15360
7, 25952, Pitch_bend_c, 4, 15808
7, 25954, Pitch_bend_c, 4, 16128
7, 25956, Pitch_bend_c, 4, 16320
7, 26084, Note_on_c, 4, 67, 0
7, 26128, Pitch_bend_c, 4, 15808
7, 26131, Pitch_bend_c, 4, 15360
7, 26133, Pitch_bend_c, 4, 14720
7, 26135, Pitch_bend_c, 4, 14080
7, 26137, Pitch_bend_c, 4, 13312
7, 26140, Pitch_bend_c, 4, 12416
7, 26142, Pitch_bend_c, 4, 11904
7, 26145, Pitch_bend_c, 4, 11456
7, 26147, Pitch_bend_c, 4, 11008
7, 26149, Pitch_bend_c, 4, 10816
7, 26152, Pitch_bend_c, 4, 10304
7, 26155, Pitch_bend_c, 4, 9856
7, 26157, Pitch_bend_c, 4, 9408
7, 26159, Pitch_bend_c, 4, 9088
7, 26161, Pitch_bend_c, 4, 8192
7, 28918, Note_on_c, 4, 66, 108
7, 28918, Note_on_c, 4, 70, 98
7, 28974, Note_on_c, 4, 66, 0
7, 28977, Note_on_c, 4, 70, 0
7, 29040, Note_on_c, 4, 66, 111
7, 29041, Note_on_c, 4, 70, 98
7, 29128, Note_on_c, 4, 66, 0
7, 29131, Note_on_c, 4, 70, 0
7, 29166, Note_on_c, 4, 66, 115
7, 29167, Note_on_c, 4, 70, 98
7, 29255, Note_on_c, 4, 66, 0
7, 29260, Note_on_c, 4, 70, 0
7, 29286, Note_on_c, 4, 70, 101
7, 29287, Note_on_c, 4, 66, 115
7, 29351, Note_on_c, 4, 66, 0
7, 29352, Note_on_c, 4, 65, 92
7, 29356, Note_on_c, 4, 68, 104
7, 29360, Note_on_c, 4, 70, 0
7, 29389, Note_on_c, 4, 68, 0
7, 29390, Note_on_c, 4, 65, 0
7, 29405, Note_on_c, 4, 68, 111
7, 29406, Note_on_c, 4, 65, 90
7, 29453, Note_on_c, 4, 65, 0
7, 29460, Note_on_c, 4, 68, 0
7, 29478, Note_on_c, 4, 68, 98
7, 29482, Note_on_c, 4, 65, 86
7, 29517, Note_on_c, 4, 65, 0
7, 29519, Note_on_c, 4, 68, 0
7, 29535, Note_on_c, 4, 68, 115
7, 29541, Note_on_c, 4, 65, 92
7, 29614, Note_on_c, 4, 65, 0
7, 29621, Note_on_c, 4, 68, 0
7, 29646, Note_on_c, 4, 70, 104
7, 29649, Note_on_c, 4, 66, 104
7, 29737, Note_on_c, 4, 66, 0
7, 29745, Note_on_c, 4, 70, 0
7, 29766, Note_on_c, 4, 68, 111
7, 29768, Note_on_c, 4, 65, 90
7, 29843, Note_on_c, 4, 66, 108
7, 29845, Note_on_c, 4, 68, 0
7, 29847, Note_on_c, 4, 63, 104
7, 29860, Note_on_c, 4, 65, 0
7, 30081, Note_on_c, 4, 68, 62
7, 30099, Note_on_c, 4, 66, 0
7, 30229, Note_on_c, 4, 66, 89
7, 30230, Note_on_c, 4, 68, 0
7, 30257, Note_on_c, 4, 63, 0
7, 30305, Note_on_c, 4, 61, 40
7, 30478, Note_on_c, 4, 63, 75
7, 30504, Note_on_c, 4, 61, 0
7, 30566, Note_on_c, 4, 63, 0
7, 30566, Note_on_c, 4, 66, 0
7, 42974, Note_on_c, 4, 57, 104
7, 43036, Note_on_c, 4, 57, 0
7, 43042, Note_on_c, 4, 60, 92
7, 43070, Note_on_c, 4, 60, 0
7, 43082, Note_on_c, 4, 62, 104
7, 43131, Note_on_c, 4, 62, 0
7, 43196, Note_on_c, 4, 62, 109
7, 43197, Note_on_c, 4, 65, 106
7, 43238, Note_on_c, 4, 62, 0
7, 43244, Note_on_c, 4, 65, 0
7, 43328, Note_on_c, 4, 60, 104
7, 43329, Note_on_c, 4, 65, 86
7, 43331, Note_on_c, 4, 64, 90
7, 43365, Note_on_c, 4, 64, 0
7, 43649, Note_on_c, 4, 65, 0
7, 43653, Note_on_c, 4, 60, 0
7, 43685, Note_on_c, 4, 63, 115
7, 43686, Note_on_c, 4, 67, 109
7, 43752, Note_on_c, 4, 67, 0
7, 43755, Note_on_c, 4, 63, 0
7, 43758, Note_on_c, 4, 65, 104
7, 43758, Note_on_c, 4, 69, 106
7, 43764, Note_on_c, 4, 67, 76
7, 43772, Note_on_c, 4, 67, 0
7, 43793, Note_on_c, 4, 65, 0
7, 43800, Note_on_c, 4, 69, 0
7, 44891, Note_on_c, 4, 57, 106
7, 44953, Note_on_c, 4, 57, 0
7, 44962, Note_on_c, 4, 60, 95
7, 44987, Note_on_c, 4, 60, 0
7, 45004, Note_on_c, 4, 62, 113
7, 45057, Note_on_c, 4, 62, 0
7, 45130, Note_on_c, 4, 62, 106
7, 45133, Note_on_c, 4, 67, 92
7, 45137, Note_on_c, 4, 65, 76
7, 45143, Note_on_c, 4, 65, 0
7, 45167, Note_on_c, 4, 67, 0
7, 45172, Note_on_c, 4, 62, 0
7, 45243, Note_on_c, 4, 60, 109
7, 45245, Note_on_c, 4, 65, 113
7, 45558, Note_on_c, 4, 65, 0
7, 45565, Note_on_c, 4, 60, 0
7, 45598, Note_on_c, 4, 63, 120
7, 45600, Note_on_c, 4, 67, 95
7, 45602, Note_on_c, 4, 65, 101
7, 45635, Note_on_c, 4, 65, 0
7, 45672, Note_on_c, 4, 67, 0
7, 45678, Note_on_c, 4, 63, 0
7, 45680, Note_on_c, 4, 65, 98
7, 45680, Note_on_c, 4, 69, 113
7, 45682, Note_on_c, 4, 67, 67
7, 45695, Note_on_c, 4, 67, 0
7, 45710, Note_on_c, 4, 65, 0
7, 45718, Note_on_c, 4, 69, 0
7, 46598, Note_on_c, 4, 69, 51
7, 46613, Note_on_c, 4, 69, 0
7, 47520, Note_on_c, 4, 69, 113
7, 47524, Note_on_c, 4, 72, 101
7, 47632, Note_on_c, 4, 69, 0
7, 47636, Note_on_c, 4, 67, 106
7, 47641, Note_on_c, 4, 72, 0
7, 47643, Note_on_c, 4, 70, 108
7, 47750, Note_on_c, 4, 70, 0
7, 47759, Note_on_c, 4, 67, 0
7, 47760, Note_on_c, 4, 69, 109
7, 47765, Note_on_c, 4, 65, 109
7, 47883, Note_on_c, 4, 69, 0
7, 47885, Note_on_c, 4, 65, 0
7, 47890, Note_on_c, 4, 65, 104
7, 47891, Note_on_c, 4, 62, 106
7, 47971, Note_on_c, 4, 65, 0
7, 48000, Note_on_c, 4, 62, 0
7, 48001, Note_on_c, 4, 61, 111
7, 48003, Note_on_c, 4, 65, 98
7, 48085, Note_on_c, 4, 65, 0
7, 48111, Note_on_c, 4, 61, 0
7, 48119, Note_on_c, 4, 65, 101
7, 48126, Note_on_c, 4, 68, 111
7, 48233, Note_on_c, 4, 65, 0
7, 48251, Note_on_c, 4, 67, 104
7, 48253, Note_on_c, 4, 65, 109
7, 48257, Note_on_c, 4, 68, 0
7, 48489, Note_on_c, 4, 69, 104
7, 48512, Note_on_c, 4, 67, 0
7, 48612, Note_on_c, 4, 65, 0
7, 48624, Note_on_c, 4, 69, 0
7, 51482, Note_on_c, 4, 66, 108
7, 51483, Note_on_c, 4, 70, 98
7, 51549, Note_on_c, 4, 66, 0
7, 51551, Note_on_c, 4, 70, 0
7, 51606, Note_on_c, 4, 66, 108
7, 51608, Note_on_c, 4, 70, 98
7, 51701, Note_on_c, 4, 70, 0
7, 51701, Note_on_c, 4, 66, 0
7, 51732, Note_on_c, 4, 66, 108
7, 51735, Note_on_c, 4, 70, 95
7, 51814, Note_on_c, 4, 66, 0
7, 51815, Note_on_c, 4, 70, 0
7, 51846, Note_on_c, 4, 70, 98
7, 51847, Note_on_c, 4, 66, 108
7, 51910, Note_on_c, 4, 66, 0
7, 51917, Note_on_c, 4, 70, 0
7, 51919, Note_on_c, 4, 65, 88
7, 51919, Note_on_c, 4, 68, 104
7, 51953, Note_on_c, 4, 65, 0
7, 51955, Note_on_c, 4, 68, 0
7, 51966, Note_on_c, 4, 68, 104
7, 51968, Note_on_c, 4, 65, 86
7, 52013, Note_on_c, 4, 65, 0
7, 52020, Note_on_c, 4, 68, 0
7, 52032, Note_on_c, 4, 65, 80
7, 52036, Note_on_c, 4, 68, 104
7, 52070, Note_on_c, 4, 65, 0
7, 52074, Note_on_c, 4, 68, 0
7, 52091, Note_on_c, 4, 68, 108
7, 52091, Note_on_c, 4, 65, 104
7, 52175, Note_on_c, 4, 68, 0
7, 52176, Note_on_c, 4, 65, 0
7, 52201, Note_on_c, 4, 70, 104
7, 52201, Note_on_c, 4, 66, 111
7, 52293, Note_on_c, 4, 66, 0
7, 52302, Note_on_c, 4, 70, 0
7, 52324, Note_on_c, 4, 65, 98
7, 52324, Note_on_c, 4, 68, 108
7, 52396, Note_on_c, 4, 65, 0
7, 52403, Note_on_c, 4, 63, 101
7, 52404, Note_on_c, 4, 66, 115
7, 52406, Note_on_c, 4, 68, 0
7, 52789, Note_on_c, 4, 66, 0
7, 52789, Note_on_c, 4, 63, 0
7, 62667, Note_on_c, 4, 57, 101
7, 62717, Note_on_c, 4, 57, 0
7, 62722, Note_on_c, 4, 60, 76
7, 62748, Note_on_c, 4, 60, 0
7, 62762, Note_on_c, 4, 62, 106
7, 62811, Note_on_c, 4, 62, 0
7, 62884, Note_on_c, 4, 62, 106
7, 62885, Note_on_c, 4, 65, 90
7, 62888, Note_on_c, 4, 64, 82
7, 62894, Note_on_c, 4, 64, 0
7, 62928, Note_on_c, 4, 62, 0
7, 62932, Note_on_c, 4, 65, 0
7, 63007, Note_on_c, 4, 60, 106
7, 63007, Note_on_c, 4, 65, 104
7, 63283, Note_on_c, 4, 65, 0
7, 63305, Note_on_c, 4, 60, 0
7, 63357, Note_on_c, 4, 67, 104
7, 63358, Note_on_c, 4, 63, 108
7, 63432, Note_on_c, 4, 63, 0
7, 63433, Note_on_c, 4, 67, 0
7, 63441, Note_on_c, 4, 65, 104
7, 63444, Note_on_c, 4, 69, 106
7, 63445, Note_on_c, 4, 67, 78
7, 63455, Note_on_c, 4, 67, 0
7, 63476, Note_on_c, 4, 65, 0
7, 63482, Note_on_c, 4, 69, 0
7, 64575, Note_on_c, 4, 57, 109
7, 64628, Note_on_c, 4, 57, 0
7, 64639, Note_on_c, 4, 60, 98
7, 64670, Note_on_c, 4, 60, 0
7, 64683, Note_on_c, 4, 62, 106
7, 64735, Note_on_c, 4, 62, 0
7, 64804, Note_on_c, 4, 62, 106
7, 64808, Note_on_c, 4, 65, 104
7, 64835, Note_on_c, 4, 62, 0
7, 64847, Note_on_c, 4, 65, 0
7, 64920, Note_on_c, 4, 65, 106
7, 64921, Note_on_c, 4, 60, 98
7, 65197, Note_on_c, 4, 65, 0
7, 65201, Note_on_c, 4, 60, 0
7, 65293, Note_on_c, 4, 63, 108
7, 65293, Note_on_c, 4, 67, 106
7, 65361, Note_on_c, 4, 67, 0
7, 65363, Note_on_c, 4, 63, 0
7, 65371, Note_on_c, 4, 65, 106
7, 65371, Note_on_c, 4, 69, 109
7, 65374, Note_on_c, 4, 67, 78
7, 65384, Note_on_c, 4, 67, 0
7, 65405, Note_on_c, 4, 65, 0
7, 65411, Note_on_c, 4, 69, 0
7, 67212, Note_on_c, 4, 69, 106
7, 67214, Note_on_c, 4, 72, 109
7, 67327, Note_on_c, 4, 72, 0
7, 67327, Note_on_c, 4, 69, 0
7, 67334, Note_on_c, 4, 70, 104
7, 67338, Note_on_c, 4, 67, 104
7, 67436, Note_on_c, 4, 70, 0
7, 67439, Note_on_c, 4, 67, 0
7, 67452, Note_on_c, 4, 65, 106
7, 67455, Note_on_c, 4, 69, 109
7, 67556, Note_on_c, 4, 65, 0
7, 67561, Note_on_c, 4, 69, 0
7, 67563, Note_on_c, 4, 62, 101
7, 67573, Note_on_c, 4, 65, 104
7, 67664, Note_on_c, 4, 65, 0
7, 67677, Note_on_c, 4, 62, 0
7, 67684, Note_on_c, 4, 65, 106
7, 67689, Note_on_c, 4, 61, 98
7, 67779, Note_on_c, 4, 65, 0
7, 67787, Note_on_c, 4, 61, 0
7, 67799, Note_on_c, 4, 65, 101
7, 67811, Note_on_c, 4, 68, 111
7, 67918, Note_on_c, 4, 65, 0
7, 67923, Note_on_c, 4, 68, 0
7, 67925, Note_on_c, 4, 67, 101
7, 67938, Note_on_c, 4, 65, 117
7, 68161, Note_on_c, 4, 69, 90
7, 68181, Note_on_c, 4, 67, 0
7, 68296, Note_on_c, 4, 67, 56
7, 68319, Note_on_c, 4, 69, 0
7, 68320, Note_on_c, 4, 67, 0
7, 68393, Note_on_c, 4, 65, 0
7, 77168, Note_on_c, 4, 62, 101
7, 77192, Note_on_c, 4, 62, 0
7, 77208, Note_on_c, 4, 65, 106
7, 77229, Note_on_c, 4, 67, 92
7, 77232, Note_on_c, 4, 65, 0
7, 77250, Note_on_c, 4, 67, 0
7, 77274, Note_on_c, 4, 68, 120
7, 77301, Note_on_c, 4, 68, 0
7, 77308, Note_on_c, 4, 67, 86
7, 77343, Note_on_c, 4, 67, 0
7, 77347, Note_on_c, 4, 65, 90
7, 77369, Note_on_c, 4, 65, 0
7, 77382, Note_on_c, 4, 67, 101
7, 77411, Note_on_c, 4, 67, 0
7, 77423, Note_on_c, 4, 62, 98
7, 77447, Note_on_c, 4, 62, 0
7, 77465, Note_on_c, 4, 65, 95
7, 77492, Note_on_c, 4, 67, 73
7, 77493, Note_on_c, 4, 65, 0
7, 77523, Note_on_c, 4, 67, 0
7, 77535, Note_on_c, 4, 68, 101
7, 77560, Note_on_c, 4, 68, 0
7, 77574, Note_on_c, 4, 67, 92
7, 77603, Note_on_c, 4, 67, 0
7, 77608, Note_on_c, 4, 65, 84
7, 77637, Note_on_c, 4, 65, 0
7, 77651, Note_on_c, 4, 67, 98
7, 77677, Note_on_c, 4, 67, 0
7, 77688, Note_on_c, 4, 62, 90
7, 77711, Note_on_c, 4, 62, 0
7, 77725, Note_on_c, 4, 65, 98
7, 77756, Note_on_c, 4, 65, 0
7, 77762, Note_on_c, 4, 67, 84
7, 77786, Note_on_c, 4, 67, 0
7, 77808, Note_on_c, 4, 67, 106
7, 77815, Pitch_bend_c, 4, 8512
7, 77817, Pitch_bend_c, 4, 8960
7, 77820, Pitch_bend_c, 4, 9280
7, 77822, Pitch_bend_c, 4, 9600
7, 77824, Pitch_bend_c, 4, 10048
7, 77827, Pitch_bend_c, 4, 10624
7, 77829, Pitch_bend_c, 4, 11136
7, 77832, Pitch_bend_c, 4, 11904
7, 77833, Pitch_bend_c, 4, 12672
7, 77836, Pitch_bend_c, 4, 13312
7, 77838, Pitch_bend_c, 4, 13824
7, 77841, Pitch_bend_c, 4, 14272
7, 77843, Pitch_bend_c, 4, 14528
7, 77847, Pitch_bend_c, 4, 14720
7, 77853, Pitch_bend_c, 4, 14400
7, 77855, Pitch_bend_c, 4, 13952
7, 77857, Pitch_bend_c, 4, 13440
7, 77860, Pitch_bend_c, 4, 12224
7, 77862, Pitch_bend_c, 4, 10816
7, 77865, Pitch_bend_c, 4, 8640
7, 77867, Pitch_bend_c, 4, 8448
7, 77869, Pitch_bend_c, 4, 8192
7, 77869, Note_on_c, 4, 65, 98
7, 77871, Note_on_c, 4, 67, 0
7, 77903, Note_on_c, 4, 65, 0
7, 77908, Note_on_c, 4, 62, 109
7, 77940, Note_on_c, 4, 62, 0
7, 81008, Note_on_c, 4, 62, 101
7, 81032, Note_on_c, 4, 62, 0
7, 81048, Note_on_c, 4, 65, 106
7, 81069, Note_on_c, 4, 67, 92
7, 81072, Note_on_c, 4, 65, 0
7, 81090, Note_on_c, 4, 67, 0
7, 81114, Note_on_c, 4, 68, 120
7, 81141, Note_on_c, 4, 68, 0
7, 81148, Note_on_c, 4, 67, 86
7, 81183, Note_on_c, 4, 67, 0
7, 81187, Note_on_c, 4, 65, 90
7, 81209, Note_on_c, 4, 65, 0
7, 81222, Note_on_c, 4, 67, 101
7, 81251, Note_on_c, 4, 67, 0
7, 81263, Note_on_c, 4, 62, 98
7, 81287, Note_on_c, 4, 62, 0
7, 81305, Note_on_c, 4, 65, 95
7, 81332, Note_on_c, 4, 67, 73
7, 81333, Note_on_c, 4, 65, 0
7, 81363, Note_on_c, 4, 67, 0
7, 81375, Note_on_c, 4, 68, 101
7, 81400, Note_on_c, 4, 68, 0
7, 81414, Note_on_c, 4, 67, 92
7, 81443, Note_on_c, 4, 67, 0
7, 81448, Note_on_c, 4, 65, 84
7, 81477, Note_on_c, 4, 65, 0
7, 81491, Note_on_c, 4, 67, 98
7, 81517, Note_on_c, 4, 67, 0
7, 81528, Note_on_c, 4, 62, 90
7, 81551, Note_on_c, 4, 62, 0
7, 81565, Note_on_c, 4, 65, 98
7, 81596, Note_on_c, 4, 65, 0
7, 81602, Note_on_c, 4, 67, 84
7, 81626, Note_on_c, 4, 67, 0
7, 81648, Note_on_c, 4, 67, 106
7, 81655, Pitch_bend_c, 4, 8512
7, 81657, Pitch_bend_c, 4, 8960
7, 81660, Pitch_bend_c, 4, 9280
7, 81662, Pitch_bend_c, 4, 9600
7, 81664, Pitch_bend_c, 4, 10048
7, 81667, Pitch_bend_c, 4, 10624
7, 81669, Pitch_bend_c, 4, 11136
7, 81672, Pitch_bend_c, 4, 11904
7, 81673, Pitch_bend_c, 4, 12672
7, 81676, Pitch_bend_c, 4, 13312
7, 81678, Pitch_bend_c, 4, 13824
7, 81681, Pitch_bend_c, 4, 14272
7, 81683, Pitch_bend_c, 4, 14528
7, 81687, Pitch_bend_c, 4, 14720
7, 81693, Pitch_bend_c, 4, 14400
7, 81695, Pitch_bend_c, 4, 13952
7, 81697, Pitch_bend_c, 4, 13440
7, 81700, Pitch_bend_c, 4, 12224
7, 81702, Pitch_bend_c, 4, 10816
7, 81705, Pitch_bend_c, 4, 8640
7, 81707, Pitch_bend_c, 4, 8448
7, 81709, Pitch_bend_c, 4, 8192
7, 81709, Note_on_c, 4, 65, 98
7, 81711, Note_on_c, 4, 67, 0
7, 81743, Note_on_c, 4, 65, 0
7, 81748, Note_on_c, 4, 62, 109
7, 81780, Note_on_c, 4, 62, 0
7, 84848, Note_on_c, 4, 62, 101
7, 84872, Note_on_c, 4, 62, 0
7, 84888, Note_on_c, 4, 65, 106
7, 84909, Note_on_c, 4, 67, 92
7, 84912, Note_on_c, 4, 65, 0
7, 84930, Note_on_c, 4, 67, 0
7, 84954, Note_on_c, 4, 68, 120
7, 84981, Note_on_c, 4, 68, 0
7, 84988, Note_on_c, 4, 67, 86
7, 85023, Note_on_c, 4, 67, 0
7, 85027, Note_on_c, 4, 65, 90
7, 85049, Note_on_c, 4, 65, 0
7, 85062, Note_on_c, 4, 67, 101
7, 85091, Note_on_c, 4, 67, 0
7, 85103, Note_on_c, 4, 62, 98
7, 85127, Note_on_c, 4, 62, 0
7, 85145, Note_on_c, 4, 65, 95
7, 85172, Note_on_c, 4, 67, 73
7, 85173, Note_on_c, 4, 65, 0
7, 85203, Note_on_c, 4, 67, 0
7, 85215, Note_on_c, 4, 68, 101
7, 85240, Note_on_c, 4, 68, 0
7, 85254, Note_on_c, 4, 67, 92
7, 85283, Note_on_c, 4, 67, 0
7, 85288, Note_on_c, 4, 65, 84
7, 85317, Note_on_c, 4, 65, 0
7, 85331, Note_on_c, 4, 67, 98
7, 85357, Note_on_c, 4, 67, 0
7, 85368, Note_on_c, 4, 62, 90
7, 85391, Note_on_c, 4, 62, 0
7, 85405, Note_on_c, 4, 65, 98
7, 85436, Note_on_c, 4, 65, 0
7, 85442, Note_on_c, 4, 67, 84
7, 85466, Note_on_c, 4, 67, 0
7, 85488, Note_on_c, 4, 67, 106
7, 85495, Pitch_bend_c, 4, 8512
7, 85497, Pitch_bend_c, 4, 8960
7, 85500, Pitch_bend_c, 4, 9280
7, 85502, Pitch_bend_c, 4, 9600
7, 85504, Pitch_bend_c, 4, 10048
7, 85507, Pitch_bend_c, 4, 10624
7, 85509, Pitch_bend_c, 4, 11136
7, 85512, Pitch_bend_c, 4, 11904
7, 85513, Pitch_bend_c, 4, 12672
7, 85516, Pitch_bend_c, 4, 13312
7, 85518, Pitch_bend_c, 4, 13824
7, 85521, Pitch_bend_c, 4, 14272
7, 85523, Pitch_bend_c, 4, 14528
7, 85527, Pitch_bend_c, 4, 14720
7, 85533, Pitch_bend_c, 4, 14400
7, 85535, Pitch_bend_c, 4, 13952
7, 85537, Pitch_bend_c, 4, 13440
7, 85540, Pitch_bend_c, 4, 12224
7, 85542, Pitch_bend_c, 4, 10816
7, 85545, Pitch_bend_c, 4, 8640
7, 85547, Pitch_bend_c, 4, 8448
7, 85549, Pitch_bend_c, 4, 8192
7, 85549, Note_on_c, 4, 65, 98
7, 85551, Note_on_c, 4, 67, 0
7, 85583, Note_on_c, 4, 65, 0
7, 85588, Note_on_c, 4, 62, 109
7, 85620, Note_on_c, 4, 62, 0
7, 88688, Note_on_c, 4, 62, 101
7, 88712, Note_on_c, 4, 62, 0
7, 88728, Note_on_c, 4, 65, 106
7, 88749, Note_on_c, 4, 67, 92
7, 88752, Note_on_c, 4, 65, 0
7, 88770, Note_on_c, 4, 67, 0
7, 88794, Note_on_c, 4, 68, 120
7, 88821, Note_on_c, 4, 68, 0
7, 88828, Note_on_c, 4, 67, 86
7, 88863, Note_on_c, 4, 67, 0
7, 88867, Note_on_c, 4, 65, 90
7, 88889, Note_on_c, 4, 65, 0
7, 88902, Note_on_c, 4, 67, 101
7, 88931, Note_on_c, 4, 67, 0
7, 88943, Note_on_c, 4, 62, 98
7, 88967, Note_on_c, 4, 62, 0
7, 88985, Note_on_c, 4, 65, 95
7, 89012, Note_on_c, 4, 67, 73
7, 89013, Note_on_c, 4, 65, 0
7, 89043, Note_on_c, 4, 67, 0
7, 89055, Note_on_c, 4, 68, 101
7, 89080, Note_on_c, 4, 68, 0
7, 89094, Note_on_c, 4, 67, 92
7, 89123, Note_on_c, 4, 67, 0
7, 89128, Note_on_c, 4, 65, 84
7, 89157, Note_on_c, 4, 65, 0
7, 89171, Note_on_c, 4, 67, 98
7, 89197, Note_on_c, 4, 67, 0
7, 89208, Note_on_c, 4, 62, 90
7, 89231, Note_on_c, 4, 62, 0
7, 89245, Note_on_c, 4, 65, 98
7, 89276, Note_on_c, 4, 65, 0
7, 89282, Note_on_c, 4, 67, 84
7, 89306, Note_on_c, 4, 67, 0
7, 89328, Note_on_c, 4, 67, 106
7, 89335, Pitch_bend_c, 4, 8512
7, 89337, Pitch_bend_c, 4, 8960
7, 89340, Pitch_bend_c, 4, 9280
7, 89342, Pitch_bend_c, 4, 9600
7, 89344, Pitch_bend_c, 4, 10048
7, 89347, Pitch_bend_c, 4, 10624
7, 89349, Pitch_bend_c, 4, 11136
7, 89352, Pitch_bend_c, 4, 11904
7, 89353, Pitch_bend_c, 4, 12672
7, 89356, Pitch_bend_c, 4, 13312
7, 89358, Pitch_bend_c, 4, 13824
7, 89361, Pitch_bend_c, 4, 14272
7, 89363, Pitch_bend_c, 4, 14528
7, 89367, Pitch_bend_c, 4, 14720
7, 89373, Pitch_bend_c, 4, 14400
7, 89375, Pitch_bend_c, 4, 13952
7, 89377, Pitch_bend_c, 4, 13440
7, 89380, Pitch_bend_c, 4, 12224
7, 89382, Pitch_bend_c, 4, 10816
7, 89385, Pitch_bend_c, 4, 8640
7, 89387, Pitch_bend_c, 4, 8448
7, 89389, Pitch_bend_c, 4, 8192
7, 89389, Note_on_c, 4, 65, 98
7, 89391, Note_on_c, 4, 67, 0
7, 89423, Note_on_c, 4, 65, 0
7, 89428, Note_on_c, 4, 62, 109
7, 89460, Note_on_c, 4, 62, 0
7, 89460, End_track
8, 0, Start_track
8, 0, MIDI_port, 0
8, 0, Title_t, "mt trp solo"
8, 0, Control_c, 5, 0, 56
8, 0, Control_c, 5, 32, 0
8, 0, Program_c, 5, 59
8, 240, Control_c, 5, 7, 127
8, 240, Control_c, 5, 10, 77
8, 240, Control_c, 5, 93, 0
8, 240, Control_c, 5, 91, 66
8, 51998, Pitch_bend_c, 5, 7936
8, 52055, Pitch_bend_c, 5, 8192
8, 54112, Note_on_c, 5, 70, 111
8, 54173, Note_on_c, 5, 70, 0
8, 54212, Pitch_bend_c, 5, 7872
8, 54215, Pitch_bend_c, 5, 7296
8, 54217, Pitch_bend_c, 5, 6656
8, 54219, Pitch_bend_c, 5, 5888
8, 54222, Pitch_bend_c, 5, 5056
8, 54224, Pitch_bend_c, 5, 4352
8, 54226, Pitch_bend_c, 5, 3840
8, 54228, Pitch_bend_c, 5, 3520
8, 54240, Note_on_c, 5, 73, 95
8, 54241, Pitch_bend_c, 5, 3712
8, 54243, Pitch_bend_c, 5, 4032
8, 54246, Pitch_bend_c, 5, 4480
8, 54248, Pitch_bend_c, 5, 5056
8, 54250, Pitch_bend_c, 5, 5696
8, 54253, Pitch_bend_c, 5, 6464
8, 54255, Pitch_bend_c, 5, 6848
8, 54257, Pitch_bend_c, 5, 7296
8, 54260, Pitch_bend_c, 5, 7616
8, 54262, Pitch_bend_c, 5, 7936
8, 54264, Pitch_bend_c, 5, 8192
8, 54383, Note_on_c, 5, 73, 0
8, 54458, Pitch_bend_c, 5, 7936
8, 54460, Pitch_bend_c, 5, 7616
8, 54463, Pitch_bend_c, 5, 7296
8, 54465, Pitch_bend_c, 5, 6848
8, 54467, Pitch_bend_c, 5, 6528
8, 54469, Pitch_bend_c, 5, 6336
8, 54472, Pitch_bend_c, 5, 6016
8, 54474, Pitch_bend_c, 5, 5760
8, 54477, Pitch_bend_c, 5, 5568
8, 54481, Note_on_c, 5, 70, 98
8, 54486, Pitch_bend_c, 5, 5888
8, 54489, Pitch_bend_c, 5, 6080
8, 54491, Pitch_bend_c, 5, 6336
8, 54493, Pitch_bend_c, 5, 6656
8, 54496, Pitch_bend_c, 5, 7104
8, 54498, Pitch_bend_c, 5, 7872
8, 54500, Pitch_bend_c, 5, 8192
8, 54640, Note_on_c, 5, 70, 0
8, 54725, Note_on_c, 5, 67, 101
8, 54909, Note_on_c, 5, 67, 0
8, 54969, Note_on_c, 5, 63, 104
8, 55111, Note_on_c, 5, 63, 0
8, 55395, Note_on_c, 5, 65, 104
8, 55440, Note_on_c, 5, 65, 0
8, 55521, Note_on_c, 5, 72, 106
8, 55714, Note_on_c, 5, 72, 0
8, 55879, Note_on_c, 5, 70, 108
8, 55922, Note_on_c, 5, 70, 0
8, 55992, Note_on_c, 5, 73, 92
8, 56152, Note_on_c, 5, 73, 0
8, 56243, Note_on_c, 5, 80, 98
8, 56279, Note_on_c, 5, 80, 0
8, 56364, Note_on_c, 5, 77, 95
8, 56478, Note_on_c, 5, 77, 0
8, 56595, Note_on_c, 5, 70, 98
8, 56638, Note_on_c, 5, 70, 0
8, 56645, Note_on_c, 5, 73, 87
8, 56708, Note_on_c, 5, 73, 0
8, 56764, Note_on_c, 5, 70, 92
8, 56827, Note_on_c, 5, 70, 0
8, 56858, Pitch_bend_c, 5, 7936
8, 56860, Pitch_bend_c, 5, 7488
8, 56863, Pitch_bend_c, 5, 7104
8, 56866, Pitch_bend_c, 5, 6656
8, 56868, Pitch_bend_c, 5, 6208
8, 56870, Pitch_bend_c, 5, 5696
8, 56873, Pitch_bend_c, 5, 5376
8, 56875, Pitch_bend_c, 5, 5120
8, 56880, Pitch_bend_c, 5, 4928
8, 56883, Note_on_c, 5, 75, 108
8, 56887, Pitch_bend_c, 5, 5120
8, 56889, Pitch_bend_c, 5, 5440
8, 56892, Pitch_bend_c, 5, 5696
8, 56894, Pitch_bend_c, 5, 6016
8, 56896, Pitch_bend_c, 5, 6464
8, 56899, Pitch_bend_c, 5, 6784
8, 56901, Pitch_bend_c, 5, 7424
8, 56904, Pitch_bend_c, 5, 8192
8, 56976, Note_on_c, 5, 75, 0
8, 57013, Note_on_c, 5, 70, 101
8, 57096, Note_on_c, 5, 70, 0
8, 57203, Pitch_bend_c, 5, 7936
8, 57205, Pitch_bend_c, 5, 7616
8, 57208, Pitch_bend_c, 5, 7296
8, 57210, Pitch_bend_c, 5, 7104
8, 57212, Pitch_bend_c, 5, 6656
8, 57215, Pitch_bend_c, 5, 6208
8, 57217, Pitch_bend_c, 5, 5440
8, 57219, Pitch_bend_c, 5, 4672
8, 57222, Pitch_bend_c, 5, 3712
8, 57224, Pitch_bend_c, 5, 3072
8, 57227, Pitch_bend_c, 5, 2624
8, 57229, Pitch_bend_c, 5, 2304
8, 57234, Pitch_bend_c, 5, 1984
8, 57236, Pitch_bend_c, 5, 2240
8, 57237, Note_on_c, 5, 77, 104
8, 57243, Pitch_bend_c, 5, 2432
8, 57246, Pitch_bend_c, 5, 2624
8, 57248, Pitch_bend_c, 5, 3072
8, 57251, Pitch_bend_c, 5, 3648
8, 57253, Pitch_bend_c, 5, 4480
8, 57255, Pitch_bend_c, 5, 5248
8, 57258, Pitch_bend_c, 5, 5888
8, 57260, Pitch_bend_c, 5, 6336
8, 57263, Pitch_bend_c, 5, 6784
8, 57267, Pitch_bend_c, 5, 7104
8, 57270, Pitch_bend_c, 5, 7296
8, 57272, Pitch_bend_c, 5, 7488
8, 57275, Pitch_bend_c, 5, 7872
8, 57277, Pitch_bend_c, 5, 8192
8, 57528, Note_on_c, 5, 77, 0
8, 63656, Note_on_c, 5, 63, 104
8, 63684, Note_on_c, 5, 63, 0
8, 63697, Note_on_c, 5, 65, 88
8, 63722, Note_on_c, 5, 65, 0
8, 63746, Note_on_c, 5, 67, 92
8, 63774, Note_on_c, 5, 67, 0
8, 63788, Note_on_c, 5, 69, 104
8, 63815, Note_on_c, 5, 69, 0
8, 63832, Note_on_c, 5, 70, 115
8, 63864, Note_on_c, 5, 70, 0
8, 63894, Pitch_bend_c, 5, 7744
8, 63896, Pitch_bend_c, 5, 7104
8, 63899, Pitch_bend_c, 5, 6656
8, 63901, Pitch_bend_c, 5, 5760
8, 63903, Pitch_bend_c, 5, 5120
8, 63905, Pitch_bend_c, 5, 4672
8, 63908, Pitch_bend_c, 5, 4288
8, 63910, Note_on_c, 5, 72, 109
8, 63911, Pitch_bend_c, 5, 3968
8, 63913, Pitch_bend_c, 5, 3648
8, 63927, Pitch_bend_c, 5, 3840
8, 63932, Pitch_bend_c, 5, 4352
8, 63934, Pitch_bend_c, 5, 5056
8, 63936, Pitch_bend_c, 5, 5760
8, 63939, Pitch_bend_c, 5, 6656
8, 63941, Pitch_bend_c, 5, 7424
8, 63944, Pitch_bend_c, 5, 7936
8, 63946, Pitch_bend_c, 5, 8192
8, 64037, Note_on_c, 5, 72, 0
8, 64064, Pitch_bend_c, 5, 7616
8, 64066, Pitch_bend_c, 5, 6976
8, 64068, Pitch_bend_c, 5, 6208
8, 64071, Pitch_bend_c, 5, 5760
8, 64073, Pitch_bend_c, 5, 5248
8, 64076, Pitch_bend_c, 5, 4928
8, 64078, Pitch_bend_c, 5, 4672
8, 64088, Pitch_bend_c, 5, 5056
8, 64088, Note_on_c, 5, 70, 120
8, 64091, Pitch_bend_c, 5, 5376
8, 64092, Pitch_bend_c, 5, 5696
8, 64095, Pitch_bend_c, 5, 6336
8, 64097, Pitch_bend_c, 5, 6848
8, 64100, Pitch_bend_c, 5, 7872
8, 64102, Pitch_bend_c, 5, 8192
8, 64187, Note_on_c, 5, 70, 0
8, 64257, Note_on_c, 5, 69, 90
8, 64276, Note_on_c, 5, 70, 87
8, 64278, Note_on_c, 5, 69, 0
8, 64306, Note_on_c, 5, 70, 0
8, 64324, Note_on_c, 5, 69, 113
8, 64457, Note_on_c, 5, 69, 0
8, 64459, Pitch_bend_c, 5, 7936
8, 64461, Pitch_bend_c, 5, 7744
8, 64464, Pitch_bend_c, 5, 7488
8, 64466, Pitch_bend_c, 5, 7296
8, 64468, Pitch_bend_c, 5, 6848
8, 64471, Pitch_bend_c, 5, 6464
8, 64473, Pitch_bend_c, 5, 6080
8, 64476, Pitch_bend_c, 5, 5760
8, 64478, Pitch_bend_c, 5, 5568
8, 64480, Pitch_bend_c, 5, 5376
8, 64487, Pitch_bend_c, 5, 5120
8, 64497, Pitch_bend_c, 5, 4928
8, 64513, Pitch_bend_c, 5, 5248
8, 64515, Pitch_bend_c, 5, 5568
8, 64518, Pitch_bend_c, 5, 6016
8, 64520, Pitch_bend_c, 5, 6528
8, 64523, Pitch_bend_c, 5, 6976
8, 64525, Pitch_bend_c, 5, 7616
8, 64527, Pitch_bend_c, 5, 8192
8, 64527, End_track
9, 0, Start_track
9, 0, MIDI_port, 0
9, 0, Title_t, "sax"
9, 0, Control_c, 6, 0, 56
9, 0, Control_c, 6, 32, 0
9, 0, Program_c, 6, 66
9, 240, Control_c, 6, 7, 127
9, 240, Control_c, 6, 10, 15
9, 240, Control_c, 6, 93, 21
9, 240, Control_c, 6, 91, 32
9, 7056, Control_c, 6, 7, 124
9, 7060, Control_c, 6, 7, 122
9, 7063, Control_c, 6, 7, 120
9, 7067, Control_c, 6, 7, 117
9, 7071, Control_c, 6, 7, 114
9, 7075, Control_c, 6, 7, 111
9, 7078, Control_c, 6, 7, 108
9, 7082, Control_c, 6, 7, 104
9, 7085, Control_c, 6, 7, 100
9, 7089, Control_c, 6, 7, 96
9, 7093, Control_c, 6, 7, 92
9, 7096, Control_c, 6, 7, 88
9, 7100, Control_c, 6, 7, 84
9, 7104, Control_c, 6, 7, 80
9, 7107, Control_c, 6, 7, 75
9, 7111, Control_c, 6, 7, 72
9, 7115, Control_c, 6, 7, 69
9, 7119, Control_c, 6, 7, 66
9, 7122, Control_c, 6, 7, 64
9, 7126, Control_c, 6, 7, 63
9, 7130, Control_c, 6, 7, 62
9, 7133, Control_c, 6, 7, 61
9, 7182, Control_c, 6, 7, 58
9, 7185, Control_c, 6, 7, 57
9, 7189, Control_c, 6, 7, 56
9, 7193, Control_c, 6, 7, 55
9, 7200, Note_on_c, 6, 61, 100
9, 7201, Note_on_c, 6, 66, 87
9, 7217, Note_on_c, 6, 61, 0
9, 7219, Note_on_c, 6, 66, 0
9, 7321, Note_on_c, 6, 58, 83
9, 7322, Note_on_c, 6, 63, 100
9, 7540, Note_on_c, 6, 63, 0
9, 7548, Note_on_c, 6, 58, 0
9, 7564, Note_on_c, 6, 66, 91
9, 7565, Note_on_c, 6, 61, 87
9, 7580, Note_on_c, 6, 61, 0
9, 7586, Note_on_c, 6, 66, 0
9, 7671, Note_on_c, 6, 63, 104
9, 7672, Note_on_c, 6, 58, 95
9, 7672, Control_c, 6, 7, 53
9, 7676, Control_c, 6, 7, 52
9, 7680, Control_c, 6, 7, 50
9, 7683, Control_c, 6, 7, 49
9, 7687, Control_c, 6, 7, 47
9, 7691, Control_c, 6, 7, 45
9, 7695, Control_c, 6, 7, 43
9, 7698, Control_c, 6, 7, 41
9, 7702, Control_c, 6, 7, 40
9, 7706, Control_c, 6, 7, 38
9, 7735, Control_c, 6, 7, 42
9, 7739, Control_c, 6, 7, 44
9, 7743, Control_c, 6, 7, 46
9, 7746, Control_c, 6, 7, 48
9, 7750, Control_c, 6, 7, 50
9, 7753, Control_c, 6, 7, 51
9, 7758, Control_c, 6, 7, 52
9, 7795, Control_c, 6, 7, 55
9, 7817, Control_c, 6, 7, 57
9, 7842, Control_c, 6, 7, 60
9, 7869, Control_c, 6, 7, 62
9, 7891, Control_c, 6, 7, 65
9, 7909, Control_c, 6, 7, 67
9, 7936, Control_c, 6, 7, 70
9, 7958, Control_c, 6, 7, 72
9, 7961, Control_c, 6, 7, 73
9, 7976, Control_c, 6, 7, 76
9, 7980, Control_c, 6, 7, 77
9, 7995, Control_c, 6, 7, 79
9, 8013, Control_c, 6, 7, 82
9, 8025, Control_c, 6, 7, 84
9, 8043, Control_c, 6, 7, 87
9, 8058, Control_c, 6, 7, 89
9, 8069, Control_c, 6, 7, 92
9, 8073, Control_c, 6, 7, 93
9, 8088, Control_c, 6, 7, 95
9, 8090, Control_c, 6, 7, 96
9, 8095, Control_c, 6, 7, 97
9, 8099, Control_c, 6, 7, 98
9, 8102, Control_c, 6, 7, 99
9, 8106, Control_c, 6, 7, 101
9, 8109, Control_c, 6, 7, 102
9, 8113, Control_c, 6, 7, 103
9, 8117, Note_on_c, 6, 58, 0
9, 8117, Control_c, 6, 7, 104
9, 8121, Control_c, 6, 7, 106
9, 8124, Control_c, 6, 7, 107
9, 8128, Note_on_c, 6, 63, 0
9, 8128, Control_c, 6, 7, 108
9, 8147, Control_c, 6, 7, 111
9, 8151, Control_c, 6, 7, 112
9, 8154, Control_c, 6, 7, 114
9, 8158, Control_c, 6, 7, 115
9, 8163, Note_on_c, 6, 64, 122
9, 8164, Note_on_c, 6, 68, 110
9, 8173, Control_c, 6, 7, 117
9, 8176, Control_c, 6, 7, 120
9, 8180, Control_c, 6, 7, 121
9, 8230, Note_on_c, 6, 68, 0
9, 8241, Note_on_c, 6, 66, 104
9, 8244, Note_on_c, 6, 64, 0
9, 8244, Note_on_c, 6, 70, 51
9, 8251, Control_c, 6, 7, 126
9, 8256, Note_on_c, 6, 70, 0
9, 8260, Note_on_c, 6, 66, 0
9, 8525, Control_c, 6, 7, 123
9, 8547, Control_c, 6, 7, 120
9, 8565, Control_c, 6, 7, 118
9, 8603, Control_c, 6, 7, 115
9, 8621, Control_c, 6, 7, 113
9, 8640, Control_c, 6, 7, 110
9, 8643, Control_c, 6, 7, 109
9, 8647, Control_c, 6, 7, 108
9, 8702, Control_c, 6, 7, 110
9, 8751, Control_c, 6, 7, 113
9, 8770, Control_c, 6, 7, 116
9, 8843, Note_on_c, 6, 61, 104
9, 8844, Note_on_c, 6, 63, 100
9, 8873, Control_c, 6, 7, 109
9, 8877, Control_c, 6, 7, 103
9, 8880, Control_c, 6, 7, 97
9, 8884, Control_c, 6, 7, 88
9, 8888, Control_c, 6, 7, 78
9, 8892, Control_c, 6, 7, 67
9, 8895, Control_c, 6, 7, 58
9, 8899, Control_c, 6, 7, 50
9, 8903, Control_c, 6, 7, 44
9, 8906, Control_c, 6, 7, 40
9, 8910, Control_c, 6, 7, 38
9, 8914, Control_c, 6, 7, 36
9, 8958, Control_c, 6, 7, 39
9, 8962, Control_c, 6, 7, 45
9, 8966, Control_c, 6, 7, 54
9, 8969, Control_c, 6, 7, 65
9, 8973, Control_c, 6, 7, 77
9, 8977, Control_c, 6, 7, 87
9, 8981, Control_c, 6, 7, 95
9, 8984, Control_c, 6, 7, 100
9, 8988, Control_c, 6, 7, 103
9, 8992, Control_c, 6, 7, 104
9, 9092, Note_on_c, 6, 63, 0
9, 9099, Note_on_c, 6, 61, 0
9, 9125, Note_on_c, 6, 66, 91
9, 9126, Note_on_c, 6, 61, 91
9, 9143, Note_on_c, 6, 61, 0
9, 9147, Note_on_c, 6, 66, 0
9, 9245, Note_on_c, 6, 58, 80
9, 9246, Note_on_c, 6, 63, 100
9, 9274, Control_c, 6, 7, 102
9, 9326, Control_c, 6, 7, 99
9, 9341, Control_c, 6, 7, 97
9, 9344, Control_c, 6, 7, 96
9, 9360, Control_c, 6, 7, 93
9, 9385, Control_c, 6, 7, 91
9, 9411, Control_c, 6, 7, 88
9, 9460, Note_on_c, 6, 63, 0
9, 9463, Note_on_c, 6, 58, 0
9, 9487, Note_on_c, 6, 66, 87
9, 9488, Note_on_c, 6, 61, 87
9, 9502, Note_on_c, 6, 61, 0
9, 9511, Note_on_c, 6, 66, 0
9, 9605, Note_on_c, 6, 58, 73
9, 9606, Note_on_c, 6, 63, 87
9, 9745, Control_c, 6, 7, 86
9, 9748, Control_c, 6, 7, 85
9, 9860, Control_c, 6, 7, 87
9, 9912, Control_c, 6, 7, 90
9, 9979, Control_c, 6, 7, 87
9, 9983, Control_c, 6, 7, 85
9, 9986, Control_c, 6, 7, 84
9, 9990, Control_c, 6, 7, 83
9, 10064, Control_c, 6, 7, 81
9, 10075, Control_c, 6, 7, 78
9, 10079, Control_c, 6, 7, 76
9, 10079, Note_on_c, 6, 61, 91
9, 10080, Note_on_c, 6, 65, 104
9, 10081, Note_on_c, 6, 63, 0
9, 10083, Control_c, 6, 7, 73
9, 10084, Note_on_c, 6, 58, 0
9, 10086, Control_c, 6, 7, 70
9, 10090, Control_c, 6, 7, 68
9, 10093, Control_c, 6, 7, 66
9, 10097, Control_c, 6, 7, 64
9, 10101, Control_c, 6, 7, 63
9, 10104, Control_c, 6, 7, 62
9, 10138, Control_c, 6, 7, 60
9, 10194, Control_c, 6, 7, 62
9, 10212, Control_c, 6, 7, 65
9, 10227, Control_c, 6, 7, 68
9, 10242, Control_c, 6, 7, 71
9, 10264, Control_c, 6, 7, 73
9, 10294, Control_c, 6, 7, 76
9, 10327, Control_c, 6, 7, 78
9, 10357, Control_c, 6, 7, 81
9, 10387, Control_c, 6, 7, 83
9, 10442, Control_c, 6, 7, 86
9, 10480, Control_c, 6, 7, 88
9, 10510, Control_c, 6, 7, 91
9, 10528, Control_c, 6, 7, 93
9, 10553, Control_c, 6, 7, 96
9, 10576, Control_c, 6, 7, 98
9, 10591, Control_c, 6, 7, 101
9, 10613, Control_c, 6, 7, 103
9, 10646, Control_c, 6, 7, 106
9, 10672, Control_c, 6, 7, 108
9, 10691, Control_c, 6, 7, 111
9, 10706, Control_c, 6, 7, 113
9, 10710, Control_c, 6, 7, 114
9, 10743, Control_c, 6, 7, 117
9, 10762, Control_c, 6, 7, 120
9, 10780, Control_c, 6, 7, 122
9, 10795, Control_c, 6, 7, 125
9, 10847, Control_c, 6, 7, 127
9, 10914, Control_c, 6, 7, 125
9, 10932, Control_c, 6, 7, 122
9, 10935, Control_c, 6, 7, 121
9, 10955, Control_c, 6, 7, 118
9, 10969, Control_c, 6, 7, 115
9, 10973, Control_c, 6, 7, 114
9, 10984, Control_c, 6, 7, 112
9, 10988, Control_c, 6, 7, 111
9, 10992, Control_c, 6, 7, 110
9, 10995, Control_c, 6, 7, 109
9, 10999, Control_c, 6, 7, 108
9, 11003, Control_c, 6, 7, 107
9, 11006, Control_c, 6, 7, 106
9, 11010, Control_c, 6, 7, 105
9, 11025, Control_c, 6, 7, 102
9, 11028, Control_c, 6, 7, 101
9, 11032, Control_c, 6, 7, 100
9, 11036, Control_c, 6, 7, 99
9, 11040, Control_c, 6, 7, 98
9, 11043, Control_c, 6, 7, 97
9, 11047, Control_c, 6, 7, 96
9, 11051, Control_c, 6, 7, 95
9, 11054, Control_c, 6, 7, 93
9, 11058, Control_c, 6, 7, 92
9, 11062, Control_c, 6, 7, 91
9, 11065, Control_c, 6, 7, 90
9, 11069, Note_on_c, 6, 61, 0
9, 11069, Control_c, 6, 7, 88
9, 11073, Control_c, 6, 7, 87
9, 11076, Control_c, 6, 7, 85
9, 11080, Control_c, 6, 7, 83
9, 11084, Note_on_c, 6, 65, 0
9, 11084, Control_c, 6, 7, 81
9, 11088, Control_c, 6, 7, 79
9, 11091, Control_c, 6, 7, 77
9, 11095, Control_c, 6, 7, 75
9, 11099, Control_c, 6, 7, 74
9, 11102, Control_c, 6, 7, 72
9, 11106, Control_c, 6, 7, 70
9, 11110, Control_c, 6, 7, 68
9, 11113, Control_c, 6, 7, 67
9, 11117, Control_c, 6, 7, 65
9, 11121, Control_c, 6, 7, 64
9, 12077, Control_c, 6, 7, 67
9, 12081, Control_c, 6, 7, 73
9, 12085, Control_c, 6, 7, 87
9, 12088, Control_c, 6, 7, 115
9, 12092, Control_c, 6, 7, 127
9, 20419, Note_on_c, 6, 57, 88
9, 20429, Control_c, 6, 7, 125
9, 20479, Note_on_c, 6, 57, 0
9, 20486, Note_on_c, 6, 60, 77
9, 20516, Note_on_c, 6, 60, 0
9, 20525, Note_on_c, 6, 62, 86
9, 20562, Note_on_c, 6, 62, 0
9, 20643, Note_on_c, 6, 60, 101
9, 20645, Note_on_c, 6, 65, 88
9, 20663, Note_on_c, 6, 60, 0
9, 20672, Note_on_c, 6, 65, 0
9, 20771, Note_on_c, 6, 60, 88
9, 20772, Note_on_c, 6, 65, 83
9, 21023, Note_on_c, 6, 65, 0
9, 21026, Note_on_c, 6, 60, 0
9, 21121, Note_on_c, 6, 67, 113
9, 21122, Note_on_c, 6, 63, 91
9, 21192, Note_on_c, 6, 63, 0
9, 21201, Note_on_c, 6, 65, 91
9, 21201, Note_on_c, 6, 69, 101
9, 21213, Note_on_c, 6, 67, 0
9, 21216, Note_on_c, 6, 65, 0
9, 21226, Note_on_c, 6, 69, 0
9, 22334, Note_on_c, 6, 57, 83
9, 22395, Note_on_c, 6, 57, 0
9, 22409, Note_on_c, 6, 60, 75
9, 22435, Note_on_c, 6, 60, 0
9, 22450, Note_on_c, 6, 62, 81
9, 22481, Note_on_c, 6, 62, 0
9, 22561, Note_on_c, 6, 62, 101
9, 22561, Note_on_c, 6, 65, 86
9, 22575, Note_on_c, 6, 62, 0
9, 22582, Note_on_c, 6, 65, 0
9, 22680, Note_on_c, 6, 65, 86
9, 22680, Note_on_c, 6, 60, 83
9, 22902, Note_on_c, 6, 65, 0
9, 22905, Note_on_c, 6, 60, 0
9, 23035, Note_on_c, 6, 67, 101
9, 23037, Note_on_c, 6, 63, 83
9, 23111, Note_on_c, 6, 63, 0
9, 23112, Note_on_c, 6, 67, 0
9, 23121, Note_on_c, 6, 69, 97
9, 23123, Note_on_c, 6, 65, 91
9, 23126, Note_on_c, 6, 67, 64
9, 23134, Note_on_c, 6, 67, 0
9, 23142, Note_on_c, 6, 65, 0
9, 23148, Note_on_c, 6, 69, 0
9, 26885, Note_on_c, 6, 67, 108
9, 26886, Note_on_c, 6, 63, 95
9, 26952, Note_on_c, 6, 67, 0
9, 26954, Note_on_c, 6, 63, 0
9, 26964, Note_on_c, 6, 69, 101
9, 26964, Note_on_c, 6, 65, 108
9, 26966, Note_on_c, 6, 67, 75
9, 26975, Note_on_c, 6, 67, 0
9, 26979, Note_on_c, 6, 65, 0
9, 26985, Note_on_c, 6, 69, 0
9, 32647, Note_on_c, 6, 61, 80
9, 32648, Note_on_c, 6, 65, 101
9, 32691, Control_c, 6, 7, 122
9, 32694, Control_c, 6, 7, 121
9, 32698, Control_c, 6, 7, 119
9, 32701, Control_c, 6, 7, 118
9, 32705, Control_c, 6, 7, 116
9, 32709, Control_c, 6, 7, 114
9, 32713, Control_c, 6, 7, 112
9, 32716, Control_c, 6, 7, 110
9, 32720, Control_c, 6, 7, 109
9, 32724, Control_c, 6, 7, 108
9, 32742, Control_c, 6, 7, 105
9, 32746, Control_c, 6, 7, 103
9, 32749, Control_c, 6, 7, 100
9, 32753, Control_c, 6, 7, 98
9, 32757, Control_c, 6, 7, 96
9, 32761, Control_c, 6, 7, 94
9, 32765, Control_c, 6, 7, 93
9, 32768, Control_c, 6, 7, 91
9, 32772, Control_c, 6, 7, 90
9, 32775, Control_c, 6, 7, 89
9, 32779, Control_c, 6, 7, 87
9, 32783, Control_c, 6, 7, 86
9, 32787, Control_c, 6, 7, 85
9, 32790, Control_c, 6, 7, 84
9, 32794, Control_c, 6, 7, 83
9, 32797, Control_c, 6, 7, 82
9, 32801, Control_c, 6, 7, 81
9, 32805, Control_c, 6, 7, 80
9, 32808, Control_c, 6, 7, 79
9, 32812, Control_c, 6, 7, 78
9, 32816, Control_c, 6, 7, 76
9, 32820, Control_c, 6, 7, 75
9, 32823, Control_c, 6, 7, 73
9, 32827, Control_c, 6, 7, 72
9, 32831, Control_c, 6, 7, 71
9, 32834, Control_c, 6, 7, 70
9, 32913, Control_c, 6, 7, 72
9, 32916, Control_c, 6, 7, 73
9, 32920, Control_c, 6, 7, 74
9, 32964, Control_c, 6, 7, 77
9, 33053, Control_c, 6, 7, 79
9, 33084, Control_c, 6, 7, 82
9, 33106, Control_c, 6, 7, 84
9, 33154, Control_c, 6, 7, 87
9, 33191, Control_c, 6, 7, 89
9, 33214, Control_c, 6, 7, 92
9, 33236, Control_c, 6, 7, 94
9, 33265, Control_c, 6, 7, 97
9, 33314, Control_c, 6, 7, 99
9, 33332, Control_c, 6, 7, 102
9, 33370, Control_c, 6, 7, 104
9, 33396, Control_c, 6, 7, 107
9, 33399, Control_c, 6, 7, 108
9, 33414, Control_c, 6, 7, 110
9, 33429, Control_c, 6, 7, 113
9, 33432, Control_c, 6, 7, 114
9, 33451, Control_c, 6, 7, 116
9, 33469, Control_c, 6, 7, 119
9, 33484, Control_c, 6, 7, 122
9, 33488, Control_c, 6, 7, 123
9, 33517, Control_c, 6, 7, 125
9, 33621, Note_on_c, 6, 61, 0
9, 33628, Note_on_c, 6, 65, 0
9, 33731, Control_c, 6, 7, 122
9, 33734, Control_c, 6, 7, 120
9, 33738, Control_c, 6, 7, 118
9, 33742, Control_c, 6, 7, 116
9, 33745, Control_c, 6, 7, 114
9, 33749, Control_c, 6, 7, 112
9, 33753, Control_c, 6, 7, 110
9, 33756, Control_c, 6, 7, 108
9, 33760, Control_c, 6, 7, 106
9, 33764, Control_c, 6, 7, 104
9, 33767, Control_c, 6, 7, 102
9, 33771, Control_c, 6, 7, 101
9, 33775, Control_c, 6, 7, 99
9, 33779, Control_c, 6, 7, 97
9, 33782, Control_c, 6, 7, 96
9, 33786, Control_c, 6, 7, 94
9, 33790, Control_c, 6, 7, 93
9, 33793, Control_c, 6, 7, 91
9, 33797, Control_c, 6, 7, 90
9, 33801, Control_c, 6, 7, 88
9, 33804, Control_c, 6, 7, 87
9, 33808, Control_c, 6, 7, 86
9, 33827, Control_c, 6, 7, 84
9, 33878, Control_c, 6, 7, 86
9, 38227, Note_on_c, 6, 65, 50
9, 38229, Note_on_c, 6, 61, 25
9, 38253, Note_on_c, 6, 65, 0
9, 38256, Note_on_c, 6, 61, 0
9, 39134, Note_on_c, 6, 61, 76
9, 39359, Note_on_c, 6, 61, 0
9, 39371, Note_on_c, 6, 63, 104
9, 39427, Control_c, 6, 7, 90
9, 39431, Control_c, 6, 7, 91
9, 39435, Control_c, 6, 7, 92
9, 39438, Control_c, 6, 7, 93
9, 39442, Control_c, 6, 7, 94
9, 39467, Control_c, 6, 7, 97
9, 39561, Control_c, 6, 7, 99
9, 39579, Control_c, 6, 7, 102
9, 39591, Note_on_c, 6, 63, 0
9, 39600, Note_on_c, 6, 65, 104
9, 39601, Control_c, 6, 7, 104
9, 39613, Control_c, 6, 7, 107
9, 39635, Control_c, 6, 7, 109
9, 39654, Control_c, 6, 7, 112
9, 39832, Control_c, 6, 7, 109
9, 39834, Note_on_c, 6, 65, 0
9, 39838, Note_on_c, 6, 63, 80
9, 39924, Control_c, 6, 7, 107
9, 40106, Note_on_c, 6, 63, 0
9, 40200, Note_on_c, 6, 77, 77
9, 40321, Note_on_c, 6, 77, 0
9, 40325, Note_on_c, 6, 70, 95
9, 40553, Note_on_c, 6, 70, 0
9, 40561, Note_on_c, 6, 72, 94
9, 40797, Note_on_c, 6, 72, 0
9, 40798, Note_on_c, 6, 74, 94
9, 40889, Control_c, 6, 7, 104
9, 40908, Control_c, 6, 7, 102
9, 40930, Control_c, 6, 7, 99
9, 40959, Control_c, 6, 7, 97
9, 40978, Control_c, 6, 7, 94
9, 41011, Control_c, 6, 7, 92
9, 41082, Control_c, 6, 7, 89
9, 41125, Note_on_c, 6, 74, 0
9, 42969, Note_on_c, 6, 57, 113
9, 43039, Note_on_c, 6, 57, 0
9, 43045, Note_on_c, 6, 60, 91
9, 43072, Note_on_c, 6, 60, 0
9, 43088, Note_on_c, 6, 62, 101
9, 43135, Note_on_c, 6, 62, 0
9, 43206, Note_on_c, 6, 65, 97
9, 43213, Note_on_c, 6, 62, 88
9, 43220, Note_on_c, 6, 62, 0
9, 43232, Note_on_c, 6, 65, 0
9, 43331, Note_on_c, 6, 65, 91
9, 43333, Note_on_c, 6, 60, 113
9, 43564, Note_on_c, 6, 65, 0
9, 43565, Note_on_c, 6, 60, 0
9, 43691, Note_on_c, 6, 67, 122
9, 43691, Note_on_c, 6, 63, 100
9, 43757, Note_on_c, 6, 63, 0
9, 43765, Note_on_c, 6, 65, 79
9, 43766, Note_on_c, 6, 69, 113
9, 43776, Note_on_c, 6, 67, 0
9, 43779, Note_on_c, 6, 65, 0
9, 43794, Note_on_c, 6, 69, 0
9, 44875, Note_on_c, 6, 55, 91
9, 44878, Note_on_c, 6, 57, 117
9, 44886, Note_on_c, 6, 55, 0
9, 44951, Note_on_c, 6, 57, 0
9, 44959, Note_on_c, 6, 60, 77
9, 44989, Note_on_c, 6, 60, 0
9, 45000, Note_on_c, 6, 62, 94
9, 45035, Note_on_c, 6, 62, 0
9, 45120, Note_on_c, 6, 65, 86
9, 45121, Note_on_c, 6, 60, 101
9, 45139, Note_on_c, 6, 60, 0
9, 45144, Note_on_c, 6, 65, 0
9, 45243, Note_on_c, 6, 65, 86
9, 45245, Note_on_c, 6, 57, 94
9, 45485, Note_on_c, 6, 57, 0
9, 45492, Note_on_c, 6, 65, 0
9, 45607, Note_on_c, 6, 67, 113
9, 45609, Note_on_c, 6, 63, 95
9, 45673, Note_on_c, 6, 67, 0
9, 45674, Note_on_c, 6, 63, 0
9, 45685, Note_on_c, 6, 65, 94
9, 45685, Note_on_c, 6, 69, 113
9, 45686, Note_on_c, 6, 67, 86
9, 45697, Note_on_c, 6, 67, 0
9, 45701, Note_on_c, 6, 65, 0
9, 45709, Note_on_c, 6, 69, 0
9, 49440, Note_on_c, 6, 75, 100
9, 49441, Note_on_c, 6, 79, 101
9, 49512, Note_on_c, 6, 75, 0
9, 49517, Note_on_c, 6, 79, 0
9, 49523, Note_on_c, 6, 81, 86
9, 49524, Note_on_c, 6, 77, 97
9, 49539, Note_on_c, 6, 81, 0
9, 49542, Note_on_c, 6, 77, 0
9, 52717, Control_c, 6, 7, 92
9, 52814, Control_c, 6, 7, 98
9, 52818, Control_c, 6, 7, 107
9, 52821, Control_c, 6, 7, 124
9, 52825, Control_c, 6, 7, 127
9, 53402, Note_on_c, 6, 58, 91
9, 53425, Note_on_c, 6, 58, 0
9, 53436, Note_on_c, 6, 63, 127
9, 53460, Note_on_c, 6, 63, 0
9, 53476, Note_on_c, 6, 60, 104
9, 53504, Note_on_c, 6, 60, 0
9, 53520, Note_on_c, 6, 61, 91
9, 53541, Note_on_c, 6, 61, 0
9, 53560, Note_on_c, 6, 65, 113
9, 53592, Note_on_c, 6, 65, 0
9, 53608, Note_on_c, 6, 61, 73
9, 53628, Note_on_c, 6, 61, 0
9, 53642, Note_on_c, 6, 63, 100
9, 53656, Note_on_c, 6, 63, 0
9, 53680, Note_on_c, 6, 68, 110
9, 53702, Note_on_c, 6, 68, 0
9, 53713, Note_on_c, 6, 65, 108
9, 53735, Note_on_c, 6, 65, 0
9, 53751, Note_on_c, 6, 67, 122
9, 53957, Note_on_c, 6, 67, 0
9, 58808, Note_on_c, 6, 65, 75
9, 58809, Note_on_c, 6, 61, 40
9, 59019, Note_on_c, 6, 61, 0
9, 59021, Note_on_c, 6, 65, 0
9, 59052, Note_on_c, 6, 63, 63
9, 59052, Note_on_c, 6, 67, 86
9, 59224, Note_on_c, 6, 63, 0
9, 59235, Note_on_c, 6, 67, 0
9, 59293, Note_on_c, 6, 65, 71
9, 59295, Note_on_c, 6, 68, 61
9, 59472, Note_on_c, 6, 68, 0
9, 59479, Note_on_c, 6, 65, 0
9, 59524, Note_on_c, 6, 67, 62
9, 59528, Note_on_c, 6, 63, 39
9, 59747, Note_on_c, 6, 63, 0
9, 59753, Note_on_c, 6, 67, 0
9, 59880, Note_on_c, 6, 65, 108
9, 60007, Note_on_c, 6, 65, 0
9, 60012, Note_on_c, 6, 58, 80
9, 60229, Note_on_c, 6, 58, 0
9, 60233, Note_on_c, 6, 60, 94
9, 60477, Note_on_c, 6, 60, 0
9, 60479, Note_on_c, 6, 62, 88
9, 60777, Note_on_c, 6, 62, 0
9, 62662, Note_on_c, 6, 57, 117
9, 62723, Note_on_c, 6, 57, 0
9, 62731, Note_on_c, 6, 60, 81
9, 62758, Note_on_c, 6, 60, 0
9, 62772, Note_on_c, 6, 62, 101
9, 62812, Note_on_c, 6, 62, 0
9, 62880, Note_on_c, 6, 65, 101
9, 62911, Note_on_c, 6, 65, 0
9, 63005, Note_on_c, 6, 65, 94
9, 63008, Note_on_c, 6, 57, 73
9, 63257, Note_on_c, 6, 57, 0
9, 63257, Note_on_c, 6, 65, 0
9, 63365, Note_on_c, 6, 63, 104
9, 63365, Note_on_c, 6, 67, 113
9, 63437, Note_on_c, 6, 63, 0
9, 63440, Note_on_c, 6, 67, 0
9, 63445, Note_on_c, 6, 69, 113
9, 63445, Note_on_c, 6, 65, 88
9, 63446, Note_on_c, 6, 67, 63
9, 63456, Note_on_c, 6, 67, 0
9, 63463, Note_on_c, 6, 65, 0
9, 63470, Note_on_c, 6, 69, 0
9, 65268, Note_on_c, 6, 67, 122
9, 65268, Note_on_c, 6, 63, 104
9, 65348, Note_on_c, 6, 63, 0
9, 65350, Note_on_c, 6, 67, 0
9, 65353, Note_on_c, 6, 65, 108
9, 65355, Note_on_c, 6, 69, 113
9, 65371, Note_on_c, 6, 65, 0
9, 65375, Note_on_c, 6, 69, 0
9, 69125, Note_on_c, 6, 67, 122
9, 69127, Note_on_c, 6, 63, 110
9, 69204, Note_on_c, 6, 63, 0
9, 69205, Note_on_c, 6, 67, 0
9, 69207, Note_on_c, 6, 69, 117
9, 69209, Note_on_c, 6, 65, 104
9, 69227, Note_on_c, 6, 69, 0
9, 69242, Note_on_c, 6, 65, 0
9, 70319, Note_on_c, 6, 57, 101
9, 70400, Note_on_c, 6, 57, 0
9, 70402, Note_on_c, 6, 60, 77
9, 70431, Note_on_c, 6, 60, 0
9, 70444, Note_on_c, 6, 62, 88
9, 70480, Note_on_c, 6, 62, 0
9, 70564, Note_on_c, 6, 62, 97
9, 70566, Note_on_c, 6, 65, 91
9, 70582, Note_on_c, 6, 62, 0
9, 70586, Note_on_c, 6, 65, 0
9, 70691, Note_on_c, 6, 65, 83
9, 70692, Note_on_c, 6, 60, 77
9, 70932, Note_on_c, 6, 65, 0
9, 70937, Note_on_c, 6, 60, 0
9, 71043, Note_on_c, 6, 71, 122
9, 71049, Note_on_c, 6, 67, 79
9, 71112, Note_on_c, 6, 71, 0
9, 71113, Note_on_c, 6, 69, 104
9, 71115, Note_on_c, 6, 67, 0
9, 71117, Note_on_c, 6, 72, 86
9, 71131, Note_on_c, 6, 69, 0
9, 71136, Note_on_c, 6, 72, 0
9, 71412, Note_on_c, 6, 71, 101
9, 71414, Note_on_c, 6, 67, 83
9, 71446, Note_on_c, 6, 71, 0
9, 71450, Note_on_c, 6, 72, 79
9, 71454, Note_on_c, 6, 69, 71
9, 71456, Note_on_c, 6, 67, 0
9, 71473, Note_on_c, 6, 72, 0
9, 71481, Note_on_c, 6, 69, 0
9, 71492, Note_on_c, 6, 71, 91
9, 71494, Note_on_c, 6, 67, 79
9, 71523, Note_on_c, 6, 67, 0
9, 71525, Note_on_c, 6, 71, 0
9, 71574, Note_on_c, 6, 69, 88
9, 71575, Note_on_c, 6, 65, 67
9, 71597, Note_on_c, 6, 69, 0
9, 71600, Note_on_c, 6, 71, 73
9, 71609, Note_on_c, 6, 65, 0
9, 71624, Note_on_c, 6, 67, 57
9, 71632, Note_on_c, 6, 71, 0
9, 71641, Note_on_c, 6, 69, 108
9, 71651, Note_on_c, 6, 65, 88
9, 71653, Note_on_c, 6, 67, 0
9, 71685, Note_on_c, 6, 65, 0
9, 71687, Note_on_c, 6, 69, 0
9, 71763, Note_on_c, 6, 67, 101
9, 71764, Note_on_c, 6, 63, 95
9, 71828, Note_on_c, 6, 63, 0
9, 71830, Note_on_c, 6, 67, 0
9, 71841, Note_on_c, 6, 69, 70
9, 71842, Note_on_c, 6, 65, 79
9, 71876, Note_on_c, 6, 65, 0
9, 71877, Note_on_c, 6, 69, 0
9, 71882, Note_on_c, 6, 67, 91
9, 71884, Note_on_c, 6, 63, 80
9, 71920, Note_on_c, 6, 63, 0
9, 71922, Note_on_c, 6, 67, 0
9, 71959, Note_on_c, 6, 65, 81
9, 71963, Note_on_c, 6, 69, 101
9, 72221, Note_on_c, 6, 65, 0
9, 72240, Note_on_c, 6, 69, 0
9, 72484, Note_on_c, 6, 60, 104
9, 72486, Note_on_c, 6, 65, 97
9, 72502, Note_on_c, 6, 60, 0
9, 72508, Note_on_c, 6, 65, 0
9, 72600, Note_on_c, 6, 55, 81
9, 72600, Note_on_c, 6, 60, 75
9, 72602, Note_on_c, 6, 65, 75
9, 72868, Note_on_c, 6, 55, 0
9, 72880, Note_on_c, 6, 60, 0
9, 72897, Note_on_c, 6, 65, 0
9, 72962, Note_on_c, 6, 63, 104
9, 72965, Note_on_c, 6, 67, 127
9, 73032, Note_on_c, 6, 63, 0
9, 73036, Note_on_c, 6, 67, 0
9, 73038, Note_on_c, 6, 65, 79
9, 73041, Note_on_c, 6, 69, 108
9, 73059, Note_on_c, 6, 69, 0
9, 73059, Note_on_c, 6, 65, 0
9, 73729, Note_on_c, 6, 65, 70
9, 73731, Note_on_c, 6, 60, 55
9, 73740, Note_on_c, 6, 60, 0
9, 73749, Note_on_c, 6, 65, 0
9, 74154, Note_on_c, 6, 57, 97
9, 74240, Note_on_c, 6, 57, 0
9, 74244, Note_on_c, 6, 60, 62
9, 74274, Note_on_c, 6, 60, 0
9, 74286, Note_on_c, 6, 62, 83
9, 74318, Note_on_c, 6, 62, 0
9, 74397, Note_on_c, 6, 60, 104
9, 74398, Note_on_c, 6, 65, 83
9, 74400, Note_on_c, 6, 57, 83
9, 74412, Note_on_c, 6, 57, 0
9, 74412, Note_on_c, 6, 60, 0
9, 74415, Note_on_c, 6, 65, 0
9, 74529, Note_on_c, 6, 60, 94
9, 74529, Note_on_c, 6, 65, 88
9, 74771, Note_on_c, 6, 60, 0
9, 74782, Note_on_c, 6, 65, 0
9, 74892, Note_on_c, 6, 71, 122
9, 74894, Note_on_c, 6, 67, 117
9, 74959, Note_on_c, 6, 71, 0
9, 74961, Note_on_c, 6, 69, 104
9, 74963, Note_on_c, 6, 67, 0
9, 74963, Note_on_c, 6, 72, 91
9, 74981, Note_on_c, 6, 69, 0
9, 74987, Note_on_c, 6, 72, 0
9, 75256, Note_on_c, 6, 71, 113
9, 75257, Note_on_c, 6, 67, 117
9, 75285, Note_on_c, 6, 67, 0
9, 75286, Note_on_c, 6, 71, 0
9, 75288, Note_on_c, 6, 72, 91
9, 75288, Note_on_c, 6, 69, 55
9, 75316, Note_on_c, 6, 72, 0
9, 75320, Note_on_c, 6, 69, 0
9, 75323, Note_on_c, 6, 67, 94
9, 75324, Note_on_c, 6, 71, 73
9, 75354, Note_on_c, 6, 67, 0
9, 75355, Note_on_c, 6, 71, 0
9, 75412, Note_on_c, 6, 69, 94
9, 75417, Note_on_c, 6, 65, 91
9, 75435, Note_on_c, 6, 69, 0
9, 75438, Note_on_c, 6, 71, 63
9, 75444, Note_on_c, 6, 65, 0
9, 75460, Note_on_c, 6, 67, 45
9, 75473, Note_on_c, 6, 71, 0
9, 75482, Note_on_c, 6, 69, 108
9, 75487, Note_on_c, 6, 67, 0
9, 75489, Note_on_c, 6, 65, 91
9, 75523, Note_on_c, 6, 65, 0
9, 75523, Note_on_c, 6, 69, 0
9, 75605, Note_on_c, 6, 67, 104
9, 75606, Note_on_c, 6, 63, 91
9, 75661, Note_on_c, 6, 63, 0
9, 75669, Note_on_c, 6, 67, 0
9, 75673, Note_on_c, 6, 65, 75
9, 75679, Note_on_c, 6, 69, 71
9, 75711, Note_on_c, 6, 65, 0
9, 75715, Note_on_c, 6, 69, 0
9, 75718, Note_on_c, 6, 67, 104
9, 75722, Note_on_c, 6, 63, 73
9, 75755, Note_on_c, 6, 67, 0
9, 75757, Note_on_c, 6, 63, 0
9, 75795, Note_on_c, 6, 64, 91
9, 75799, Note_on_c, 6, 69, 108
9, 76038, Note_on_c, 6, 64, 0
9, 76055, Note_on_c, 6, 69, 0
9, 76318, Note_on_c, 6, 60, 108
9, 76318, Note_on_c, 6, 55, 101
9, 76319, Note_on_c, 6, 65, 91
9, 76333, Note_on_c, 6, 60, 0
9, 76338, Note_on_c, 6, 55, 0
9, 76339, Note_on_c, 6, 65, 0
9, 76443, Note_on_c, 6, 65, 88
9, 76445, Note_on_c, 6, 60, 86
9, 76446, Note_on_c, 6, 55, 86
9, 76696, Note_on_c, 6, 55, 0
9, 76697, Note_on_c, 6, 60, 0
9, 76708, Note_on_c, 6, 65, 0
9, 76810, Note_on_c, 6, 63, 110
9, 76811, Note_on_c, 6, 67, 127
9, 76881, Note_on_c, 6, 63, 0
9, 76885, Note_on_c, 6, 65, 108
9, 76886, Note_on_c, 6, 67, 0
9, 76887, Note_on_c, 6, 69, 117
9, 76908, Note_on_c, 6, 69, 0
9, 76910, Note_on_c, 6, 65, 0
9, 77475, Note_on_c, 6, 62, 101
9, 77475, Note_on_c, 6, 60, 88
9, 77479, Note_on_c, 6, 56, 68
9, 77490, Note_on_c, 6, 60, 0
9, 77492, Note_on_c, 6, 62, 0
9, 77496, Note_on_c, 6, 56, 0
9, 77593, Note_on_c, 6, 56, 80
9, 77595, Note_on_c, 6, 60, 83
9, 77596, Note_on_c, 6, 62, 91
9, 77696, Note_on_c, 6, 60, 0
9, 77701, Note_on_c, 6, 62, 0
9, 77735, Note_on_c, 6, 56, 0
9, 77748, Note_on_c, 6, 55, 73
9, 77764, Note_on_c, 6, 55, 0
9, 77995, Note_on_c, 6, 55, 62
9, 78014, Note_on_c, 6, 55, 0
9, 78018, Note_on_c, 6, 57, 68
9, 78048, Note_on_c, 6, 57, 0
9, 78088, Note_on_c, 6, 60, 79
9, 78114, Note_on_c, 6, 60, 0
9, 78131, Note_on_c, 6, 62, 77
9, 78155, Note_on_c, 6, 62, 0
9, 78232, Note_on_c, 6, 57, 94
9, 78232, Note_on_c, 6, 60, 94
9, 78233, Note_on_c, 6, 65, 81
9, 78246, Note_on_c, 6, 60, 0
9, 78251, Note_on_c, 6, 57, 0
9, 78253, Note_on_c, 6, 65, 0
9, 78370, Note_on_c, 6, 60, 81
9, 78372, Note_on_c, 6, 55, 61
9, 78373, Note_on_c, 6, 65, 77
9, 78602, Note_on_c, 6, 55, 0
9, 78606, Note_on_c, 6, 60, 0
9, 78624, Note_on_c, 6, 65, 0
9, 78721, Note_on_c, 6, 67, 94
9, 78723, Note_on_c, 6, 71, 117
9, 78799, Note_on_c, 6, 71, 0
9, 78800, Note_on_c, 6, 67, 0
9, 78800, Note_on_c, 6, 72, 101
9, 78804, Note_on_c, 6, 69, 88
9, 78823, Note_on_c, 6, 69, 0
9, 78824, Note_on_c, 6, 72, 0
9, 79098, Note_on_c, 6, 71, 91
9, 79099, Note_on_c, 6, 67, 101
9, 79125, Note_on_c, 6, 72, 71
9, 79128, Note_on_c, 6, 71, 0
9, 79129, Note_on_c, 6, 69, 86
9, 79130, Note_on_c, 6, 67, 0
9, 79154, Note_on_c, 6, 69, 0
9, 79155, Note_on_c, 6, 72, 0
9, 79180, Note_on_c, 6, 67, 86
9, 79181, Note_on_c, 6, 71, 97
9, 79204, Note_on_c, 6, 67, 0
9, 79208, Note_on_c, 6, 71, 0
9, 79259, Note_on_c, 6, 65, 91
9, 79259, Note_on_c, 6, 69, 94
9, 79284, Note_on_c, 6, 69, 0
9, 79289, Note_on_c, 6, 71, 71
9, 79290, Note_on_c, 6, 65, 0
9, 79296, Note_on_c, 6, 67, 77
9, 79326, Note_on_c, 6, 67, 0
9, 79326, Note_on_c, 6, 71, 0
9, 79334, Note_on_c, 6, 69, 108
9, 79335, Note_on_c, 6, 65, 101
9, 79367, Note_on_c, 6, 65, 0
9, 79372, Note_on_c, 6, 69, 0
9, 79446, Note_on_c, 6, 67, 94
9, 79447, Note_on_c, 6, 63, 100
9, 79511, Note_on_c, 6, 63, 0
9, 79513, Note_on_c, 6, 67, 0
9, 79520, Note_on_c, 6, 65, 88
9, 79522, Note_on_c, 6, 69, 68
9, 79555, Note_on_c, 6, 69, 0
9, 79558, Note_on_c, 6, 65, 0
9, 79561, Note_on_c, 6, 67, 101
9, 79567, Note_on_c, 6, 63, 71
9, 79595, Note_on_c, 6, 67, 0
9, 79596, Note_on_c, 6, 63, 0
9, 79641, Note_on_c, 6, 64, 94
9, 79642, Note_on_c, 6, 69, 104
9, 79836, Note_on_c, 6, 64, 0
9, 79853, Note_on_c, 6, 69, 0
9, 79925, Note_on_c, 6, 57, 86
9, 79994, Note_on_c, 6, 57, 0
9, 80004, Note_on_c, 6, 60, 75
9, 80026, Note_on_c, 6, 60, 0
9, 80042, Note_on_c, 6, 62, 101
9, 80072, Note_on_c, 6, 62, 0
9, 80156, Note_on_c, 6, 60, 91
9, 80158, Note_on_c, 6, 65, 77
9, 80158, Note_on_c, 6, 57, 94
9, 80176, Note_on_c, 6, 60, 0
9, 80180, Note_on_c, 6, 65, 0
9, 80185, Note_on_c, 6, 57, 0
9, 80289, Note_on_c, 6, 55, 91
9, 80291, Note_on_c, 6, 60, 73
9, 80292, Note_on_c, 6, 65, 81
9, 80518, Note_on_c, 6, 60, 0
9, 80522, Note_on_c, 6, 65, 0
9, 80530, Note_on_c, 6, 55, 0
9, 80645, Note_on_c, 6, 63, 100
9, 80647, Note_on_c, 6, 67, 117
9, 80710, Note_on_c, 6, 63, 0
9, 80715, Note_on_c, 6, 67, 0
9, 80717, Note_on_c, 6, 65, 101
9, 80718, Note_on_c, 6, 69, 113
9, 80737, Note_on_c, 6, 65, 0
9, 80738, Note_on_c, 6, 69, 0
9, 81315, Note_on_c, 6, 60, 113
9, 81316, Note_on_c, 6, 62, 104
9, 81317, Note_on_c, 6, 56, 91
9, 81347, Control_c, 6, 7, 124
9, 81351, Control_c, 6, 7, 114
9, 81355, Control_c, 6, 7, 104
9, 81359, Control_c, 6, 7, 94
9, 81362, Control_c, 6, 7, 85
9, 81366, Control_c, 6, 7, 77
9, 81370, Control_c, 6, 7, 70
9, 81373, Control_c, 6, 7, 64
9, 81377, Control_c, 6, 7, 59
9, 81381, Control_c, 6, 7, 57
9, 81384, Control_c, 6, 7, 55
9, 81388, Control_c, 6, 7, 54
9, 81433, Control_c, 6, 7, 60
9, 81436, Control_c, 6, 7, 71
9, 81440, Control_c, 6, 7, 89
9, 81444, Control_c, 6, 7, 122
9, 81447, Control_c, 6, 7, 127
9, 81464, Note_on_c, 6, 60, 0
9, 81467, Note_on_c, 6, 56, 0
9, 81468, Note_on_c, 6, 62, 0
9, 81848, Note_on_c, 6, 57, 101
9, 81921, Note_on_c, 6, 57, 0
9, 81928, Note_on_c, 6, 60, 81
9, 81952, Note_on_c, 6, 60, 0
9, 81966, Note_on_c, 6, 62, 79
9, 81995, Note_on_c, 6, 62, 0
9, 82075, Note_on_c, 6, 60, 104
9, 82076, Note_on_c, 6, 57, 94
9, 82077, Note_on_c, 6, 65, 88
9, 82092, Note_on_c, 6, 60, 0
9, 82097, Note_on_c, 6, 57, 0
9, 82098, Note_on_c, 6, 65, 0
9, 82210, Note_on_c, 6, 55, 86
9, 82211, Note_on_c, 6, 60, 88
9, 82212, Note_on_c, 6, 65, 88
9, 82432, Note_on_c, 6, 60, 0
9, 82432, Note_on_c, 6, 55, 0
9, 82448, Note_on_c, 6, 65, 0
9, 82554, Note_on_c, 6, 67, 108
9, 82555, Note_on_c, 6, 71, 122
9, 82634, Note_on_c, 6, 71, 0
9, 82635, Note_on_c, 6, 72, 101
9, 82635, Note_on_c, 6, 69, 94
9, 82637, Note_on_c, 6, 67, 0
9, 82653, Note_on_c, 6, 69, 0
9, 82653, Note_on_c, 6, 72, 0
9, 82930, Note_on_c, 6, 71, 94
9, 82933, Note_on_c, 6, 67, 104
9, 82961, Note_on_c, 6, 71, 0
9, 82962, Note_on_c, 6, 72, 83
9, 82969, Note_on_c, 6, 67, 0
9, 82994, Note_on_c, 6, 72, 0
9, 83014, Note_on_c, 6, 67, 94
9, 83015, Note_on_c, 6, 71, 91
9, 83042, Note_on_c, 6, 67, 0
9, 83043, Note_on_c, 6, 71, 0
9, 83097, Note_on_c, 6, 65, 88
9, 83098, Note_on_c, 6, 69, 86
9, 83122, Note_on_c, 6, 69, 0
9, 83128, Note_on_c, 6, 65, 0
9, 83128, Note_on_c, 6, 71, 77
9, 83152, Note_on_c, 6, 67, 53
9, 83166, Note_on_c, 6, 71, 0
9, 83172, Note_on_c, 6, 69, 104
9, 83173, Note_on_c, 6, 67, 0
9, 83175, Note_on_c, 6, 65, 97
9, 83207, Note_on_c, 6, 65, 0
9, 83212, Note_on_c, 6, 69, 0
9, 83290, Note_on_c, 6, 63, 95
9, 83292, Note_on_c, 6, 67, 101
9, 83353, Note_on_c, 6, 63, 0
9, 83357, Note_on_c, 6, 67, 0
9, 83364, Note_on_c, 6, 65, 79
9, 83366, Note_on_c, 6, 69, 75
9, 83403, Note_on_c, 6, 69, 0
9, 83403, Note_on_c, 6, 65, 0
9, 83404, Note_on_c, 6, 67, 108
9, 83408, Note_on_c, 6, 63, 87
9, 83442, Note_on_c, 6, 67, 0
9, 83444, Note_on_c, 6, 63, 0
9, 83484, Note_on_c, 6, 64, 81
9, 83485, Note_on_c, 6, 69, 108
9, 83681, Note_on_c, 6, 64, 0
9, 83696, Note_on_c, 6, 69, 0
9, 83770, Note_on_c, 6, 57, 81
9, 83831, Note_on_c, 6, 57, 0
9, 83844, Note_on_c, 6, 60, 64
9, 83872, Note_on_c, 6, 60, 0
9, 83878, Note_on_c, 6, 62, 83
9, 83902, Note_on_c, 6, 62, 0
9, 83991, Note_on_c, 6, 57, 91
9, 83993, Note_on_c, 6, 60, 101
9, 83993, Note_on_c, 6, 65, 91
9, 84006, Note_on_c, 6, 60, 0
9, 84011, Note_on_c, 6, 57, 0
9, 84015, Note_on_c, 6, 65, 0
9, 84126, Note_on_c, 6, 55, 81
9, 84127, Note_on_c, 6, 60, 91
9, 84128, Note_on_c, 6, 65, 79
9, 84339, Note_on_c, 6, 55, 0
9, 84349, Note_on_c, 6, 60, 0
9, 84369, Note_on_c, 6, 65, 0
9, 84483, Note_on_c, 6, 63, 95
9, 84484, Note_on_c, 6, 67, 117
9, 84553, Note_on_c, 6, 63, 0
9, 84560, Note_on_c, 6, 67, 0
9, 84561, Note_on_c, 6, 65, 108
9, 84563, Note_on_c, 6, 69, 113
9, 84584, Note_on_c, 6, 69, 0
9, 84588, Note_on_c, 6, 65, 0
9, 85155, Note_on_c, 6, 60, 122
9, 85156, Note_on_c, 6, 62, 108
9, 85157, Note_on_c, 6, 56, 95
9, 85178, Control_c, 6, 7, 122
9, 85182, Control_c, 6, 7, 113
9, 85186, Control_c, 6, 7, 100
9, 85188, Control_c, 6, 7, 79
9, 85193, Control_c, 6, 7, 48
9, 85197, Control_c, 6, 7, 5
9, 85200, Control_c, 6, 7, 1
9, 85204, Control_c, 6, 7, 0
9, 85270, Control_c, 6, 7, 7
9, 85274, Control_c, 6, 7, 20
9, 85278, Control_c, 6, 7, 33
9, 85282, Control_c, 6, 7, 48
9, 85285, Control_c, 6, 7, 65
9, 85289, Control_c, 6, 7, 81
9, 85292, Control_c, 6, 7, 97
9, 85296, Control_c, 6, 7, 112
9, 85299, Control_c, 6, 7, 125
9, 85304, Control_c, 6, 7, 127
9, 85307, Note_on_c, 6, 60, 0
9, 85309, Note_on_c, 6, 56, 0
9, 85310, Note_on_c, 6, 62, 0
9, 85690, Note_on_c, 6, 57, 91
9, 85759, Note_on_c, 6, 57, 0
9, 85764, Note_on_c, 6, 60, 86
9, 85791, Note_on_c, 6, 60, 0
9, 85803, Note_on_c, 6, 62, 77
9, 85833, Note_on_c, 6, 62, 0
9, 85919, Note_on_c, 6, 60, 88
9, 85920, Note_on_c, 6, 57, 83
9, 85920, Note_on_c, 6, 65, 83
9, 85937, Note_on_c, 6, 60, 0
9, 85942, Note_on_c, 6, 65, 0
9, 85943, Note_on_c, 6, 57, 0
9, 86047, Note_on_c, 6, 55, 79
9, 86048, Note_on_c, 6, 60, 86
9, 86049, Note_on_c, 6, 65, 83
9, 86260, Note_on_c, 6, 55, 0
9, 86262, Note_on_c, 6, 60, 0
9, 86278, Note_on_c, 6, 65, 0
9, 86401, Note_on_c, 6, 71, 104
9, 86402, Note_on_c, 6, 67, 91
9, 86481, Note_on_c, 6, 67, 0
9, 86481, Note_on_c, 6, 71, 0
9, 86483, Note_on_c, 6, 69, 77
9, 86484, Note_on_c, 6, 72, 88
9, 86504, Note_on_c, 6, 72, 0
9, 86507, Note_on_c, 6, 69, 0
9, 86769, Note_on_c, 6, 71, 91
9, 86769, Note_on_c, 6, 67, 88
9, 86802, Note_on_c, 6, 71, 0
9, 86806, Note_on_c, 6, 72, 71
9, 86807, Note_on_c, 6, 69, 70
9, 86808, Note_on_c, 6, 67, 0
9, 86834, Note_on_c, 6, 72, 0
9, 86840, Note_on_c, 6, 69, 0
9, 86849, Note_on_c, 6, 71, 83
9, 86853, Note_on_c, 6, 67, 81
9, 86880, Note_on_c, 6, 67, 0
9, 86881, Note_on_c, 6, 71, 0
9, 86941, Note_on_c, 6, 69, 83
9, 86942, Note_on_c, 6, 65, 70
9, 86966, Note_on_c, 6, 69, 0
9, 86969, Note_on_c, 6, 71, 67
9, 86975, Note_on_c, 6, 65, 0
9, 86988, Note_on_c, 6, 67, 45
9, 87001, Note_on_c, 6, 71, 0
9, 87011, Note_on_c, 6, 69, 81
9, 87012, Note_on_c, 6, 65, 81
9, 87019, Note_on_c, 6, 67, 0
9, 87050, Note_on_c, 6, 65, 0
9, 87054, Note_on_c, 6, 69, 0
9, 87129, Note_on_c, 6, 63, 83
9, 87132, Note_on_c, 6, 67, 86
9, 87192, Note_on_c, 6, 67, 0
9, 87193, Note_on_c, 6, 63, 0
9, 87203, Note_on_c, 6, 65, 81
9, 87203, Note_on_c, 6, 69, 63
9, 87228, Note_on_c, 6, 67, 97
9, 87229, Note_on_c, 6, 69, 0
9, 87241, Note_on_c, 6, 63, 80
9, 87244, Note_on_c, 6, 65, 0
9, 87277, Note_on_c, 6, 67, 0
9, 87283, Note_on_c, 6, 63, 0
9, 87324, Note_on_c, 6, 65, 86
9, 87325, Note_on_c, 6, 67, 94
9, 87327, Note_on_c, 6, 69, 94
9, 87351, Note_on_c, 6, 67, 0
9, 87626, Note_on_c, 6, 65, 0
9, 87632, Note_on_c, 6, 69, 0
9, 88323, Note_on_c, 6, 63, 95
9, 88324, Note_on_c, 6, 67, 117
9, 88393, Note_on_c, 6, 63, 0
9, 88400, Note_on_c, 6, 67, 0
9, 88401, Note_on_c, 6, 65, 108
9, 88403, Note_on_c, 6, 69, 113
9, 88424, Note_on_c, 6, 69, 0
9, 88428, Note_on_c, 6, 65, 0
9, 88995, Note_on_c, 6, 60, 122
9, 88996, Note_on_c, 6, 62, 108
9, 88997, Note_on_c, 6, 56, 95
9, 89018, Control_c, 6, 7, 122
9, 89022, Control_c, 6, 7, 113
9, 89026, Control_c, 6, 7, 100
9, 89028, Control_c, 6, 7, 79
9, 89033, Control_c, 6, 7, 48
9, 89037, Control_c, 6, 7, 5
9, 89040, Control_c, 6, 7, 1
9, 89044, Control_c, 6, 7, 0
9, 89110, Control_c, 6, 7, 7
9, 89114, Control_c, 6, 7, 20
9, 89118, Control_c, 6, 7, 33
9, 89122, Control_c, 6, 7, 48
9, 89125, Control_c, 6, 7, 65
9, 89129, Control_c, 6, 7, 81
9, 89132, Control_c, 6, 7, 97
9, 89136, Control_c, 6, 7, 112
9, 89139, Control_c, 6, 7, 125
9, 89144, Control_c, 6, 7, 127
9, 89147, Note_on_c, 6, 60, 0
9, 89149, Note_on_c, 6, 56, 0
9, 89150, Note_on_c, 6, 62, 0
9, 89530, Note_on_c, 6, 57, 91
9, 89599, Note_on_c, 6, 57, 0
9, 89604, Note_on_c, 6, 60, 86
9, 89631, Note_on_c, 6, 60, 0
9, 89643, Note_on_c, 6, 62, 77
9, 89673, Note_on_c, 6, 62, 0
9, 89759, Note_on_c, 6, 60, 88
9, 89760, Note_on_c, 6, 57, 83
9, 89760, Note_on_c, 6, 65, 83
9, 89777, Note_on_c, 6, 60, 0
9, 89782, Note_on_c, 6, 65, 0
9, 89783, Note_on_c, 6, 57, 0
9, 89887, Note_on_c, 6, 55, 79
9, 89888, Note_on_c, 6, 60, 86
9, 89889, Note_on_c, 6, 65, 83
9, 90100, Note_on_c, 6, 55, 0
9, 90102, Note_on_c, 6, 60, 0
9, 90118, Note_on_c, 6, 65, 0
9, 90241, Note_on_c, 6, 71, 104
9, 90242, Note_on_c, 6, 67, 91
9, 90321, Note_on_c, 6, 67, 0
9, 90321, Note_on_c, 6, 71, 0
9, 90323, Note_on_c, 6, 69, 77
9, 90324, Note_on_c, 6, 72, 88
9, 90344, Note_on_c, 6, 72, 0
9, 90347, Note_on_c, 6, 69, 0
9, 90609, Note_on_c, 6, 71, 91
9, 90609, Note_on_c, 6, 67, 88
9, 90642, Note_on_c, 6, 71, 0
9, 90646, Note_on_c, 6, 72, 71
9, 90647, Note_on_c, 6, 69, 70
9, 90648, Note_on_c, 6, 67, 0
9, 90674, Note_on_c, 6, 72, 0
9, 90680, Note_on_c, 6, 69, 0
9, 90689, Note_on_c, 6, 71, 83
9, 90693, Note_on_c, 6, 67, 81
9, 90720, Note_on_c, 6, 67, 0
9, 90721, Note_on_c, 6, 71, 0
9, 90781, Note_on_c, 6, 69, 83
9, 90782, Note_on_c, 6, 65, 70
9, 90806, Note_on_c, 6, 69, 0
9, 90809, Note_on_c, 6, 71, 67
9, 90815, Note_on_c, 6, 65, 0
9, 90828, Note_on_c, 6, 67, 45
9, 90841, Note_on_c, 6, 71, 0
9, 90851, Note_on_c, 6, 69, 81
9, 90852, Note_on_c, 6, 65, 81
9, 90859, Note_on_c, 6, 67, 0
9, 90890, Note_on_c, 6, 65, 0
9, 90894, Note_on_c, 6, 69, 0
9, 90969, Note_on_c, 6, 63, 52
9, 90972, Note_on_c, 6, 67, 52
9, 91032, Note_on_c, 6, 67, 0
9, 91033, Note_on_c, 6, 63, 0
9, 91043, Note_on_c, 6, 65, 52
9, 91043, Note_on_c, 6, 69, 52
9, 91068, Note_on_c, 6, 67, 52
9, 91069, Note_on_c, 6, 69, 0
9, 91081, Note_on_c, 6, 63, 52
9, 91084, Note_on_c, 6, 65, 0
9, 91117, Note_on_c, 6, 67, 0
9, 91123, Note_on_c, 6, 63, 0
9, 91164, Note_on_c, 6, 65, 52
9, 91165, Note_on_c, 6, 67, 52
9, 91167, Note_on_c, 6, 69, 52
9, 91191, Note_on_c, 6, 67, 0
9, 91466, Note_on_c, 6, 65, 0
9, 91472, Note_on_c, 6, 69, 0
9, 92163, Note_on_c, 6, 63, 40
9, 92164, Note_on_c, 6, 67, 40
9, 92233, Note_on_c, 6, 63, 0
9, 92240, Note_on_c, 6, 67, 0
9, 92241, Note_on_c, 6, 65, 40
9, 92243, Note_on_c, 6, 69, 40
9, 92264, Note_on_c, 6, 69, 0
9, 92268, Note_on_c, 6, 65, 0
9, 92835, Note_on_c, 6, 60, 39
9, 92836, Note_on_c, 6, 62, 39
9, 92837, Note_on_c, 6, 56, 39
9, 92858, Control_c, 6, 7, 122
9, 92862, Control_c, 6, 7, 113
9, 92866, Control_c, 6, 7, 100
9, 92868, Control_c, 6, 7, 79
9, 92873, Control_c, 6, 7, 48
9, 92877, Control_c, 6, 7, 5
9, 92880, Control_c, 6, 7, 1
9, 92884, Control_c, 6, 7, 0
9, 92950, Control_c, 6, 7, 7
9, 92954, Control_c, 6, 7, 20
9, 92958, Control_c, 6, 7, 33
9, 92962, Control_c, 6, 7, 48
9, 92965, Control_c, 6, 7, 65
9, 92969, Control_c, 6, 7, 81
9, 92972, Control_c, 6, 7, 97
9, 92976, Control_c, 6, 7, 112
9, 92979, Control_c, 6, 7, 125
9, 92984, Control_c, 6, 7, 127
9, 92987, Note_on_c, 6, 60, 0
9, 92989, Note_on_c, 6, 56, 0
9, 92990, Note_on_c, 6, 62, 0
9, 93370, Note_on_c, 6, 57, 39
9, 93439, Note_on_c, 6, 57, 0
9, 93444, Note_on_c, 6, 60, 32
9, 93471, Note_on_c, 6, 60, 0
9, 93483, Note_on_c, 6, 62, 29
9, 93513, Note_on_c, 6, 62, 0
9, 93599, Note_on_c, 6, 60, 27
9, 93600, Note_on_c, 6, 57, 27
9, 93600, Note_on_c, 6, 65, 27
9, 93617, Note_on_c, 6, 60, 0
9, 93622, Note_on_c, 6, 65, 0
9, 93623, Note_on_c, 6, 57, 0
9, 93727, Note_on_c, 6, 55, 27
9, 93728, Note_on_c, 6, 60, 27
9, 93729, Note_on_c, 6, 65, 27
9, 93940, Note_on_c, 6, 55, 0
9, 93942, Note_on_c, 6, 60, 0
9, 93958, Note_on_c, 6, 65, 0
9, 94081, Note_on_c, 6, 71, 25
9, 94082, Note_on_c, 6, 67, 25
9, 94161, Note_on_c, 6, 67, 0
9, 94161, Note_on_c, 6, 71, 0
9, 94163, Note_on_c, 6, 69, 25
9, 94164, Note_on_c, 6, 72, 25
9, 94184, Note_on_c, 6, 72, 0
9, 94187, Note_on_c, 6, 69, 0
9, 94449, Note_on_c, 6, 71, 24
9, 94449, Note_on_c, 6, 67, 24
9, 94482, Note_on_c, 6, 71, 0
9, 94486, Note_on_c, 6, 72, 24
9, 94487, Note_on_c, 6, 69, 24
9, 94488, Note_on_c, 6, 67, 0
9, 94514, Note_on_c, 6, 72, 0
9, 94520, Note_on_c, 6, 69, 0
9, 94529, Note_on_c, 6, 71, 24
9, 94533, Note_on_c, 6, 67, 24
9, 94560, Note_on_c, 6, 67, 0
9, 94561, Note_on_c, 6, 71, 0
9, 94621, Note_on_c, 6, 69, 24
9, 94622, Note_on_c, 6, 65, 24
9, 94646, Note_on_c, 6, 69, 0
9, 94649, Note_on_c, 6, 71, 24
9, 94655, Note_on_c, 6, 65, 0
9, 94668, Note_on_c, 6, 67, 24
9, 94681, Note_on_c, 6, 71, 0
9, 94691, Note_on_c, 6, 69, 23
9, 94692, Note_on_c, 6, 65, 23
9, 94699, Note_on_c, 6, 67, 0
9, 94730, Note_on_c, 6, 65, 0
9, 94734, Note_on_c, 6, 69, 0
9, 94809, Note_on_c, 6, 63, 16
9, 94812, Note_on_c, 6, 67, 15
9, 94872, Note_on_c, 6, 67, 0
9, 94873, Note_on_c, 6, 63, 0
9, 94883, Note_on_c, 6, 65, 12
9, 94883, Note_on_c, 6, 69, 12
9, 94908, Note_on_c, 6, 67, 12
9, 94909, Note_on_c, 6, 69, 0
9, 94921, Note_on_c, 6, 63, 12
9, 94924, Note_on_c, 6, 65, 0
9, 94957, Note_on_c, 6, 67, 0
9, 94963, Note_on_c, 6, 63, 0
9, 95004, Note_on_c, 6, 65, 12
9, 95005, Note_on_c, 6, 67, 12
9, 95007, Note_on_c, 6, 69, 12
9, 95031, Note_on_c, 6, 67, 0
9, 95306, Note_on_c, 6, 65, 0
9, 95312, Note_on_c, 6, 69, 0
9, 95312, End_track
10, 0, Start_track
10, 0, MIDI_port, 0
10, 0, Title_t, "trp"
10, 0, Control_c, 7, 0, 56
10, 0, Control_c, 7, 32, 0
10, 0, Program_c, 7, 56
10, 240, Control_c, 7, 7, 127
10, 240, Control_c, 7, 10, 93
10, 240, Control_c, 7, 93, 21
10, 240, Control_c, 7, 91, 29
10, 7170, Control_c, 7, 7, 122
10, 7174, Control_c, 7, 7, 116
10, 7177, Control_c, 7, 7, 110
10, 7181, Control_c, 7, 7, 104
10, 7185, Control_c, 7, 7, 99
10, 7188, Control_c, 7, 7, 94
10, 7191, Control_c, 7, 7, 90
10, 7195, Control_c, 7, 7, 85
10, 7199, Control_c, 7, 7, 79
10, 7202, Note_on_c, 7, 66, 100
10, 7203, Control_c, 7, 7, 73
10, 7203, Note_on_c, 7, 61, 95
10, 7206, Control_c, 7, 7, 68
10, 7211, Control_c, 7, 7, 66
10, 7214, Control_c, 7, 7, 65
10, 7223, Note_on_c, 7, 61, 0
10, 7225, Control_c, 7, 7, 68
10, 7229, Note_on_c, 7, 66, 0
10, 7229, Control_c, 7, 7, 69
10, 7273, Control_c, 7, 7, 72
10, 7277, Control_c, 7, 7, 74
10, 7281, Control_c, 7, 7, 76
10, 7284, Control_c, 7, 7, 78
10, 7288, Control_c, 7, 7, 79
10, 7321, Note_on_c, 7, 58, 87
10, 7322, Note_on_c, 7, 63, 95
10, 7448, Control_c, 7, 7, 81
10, 7535, Note_on_c, 7, 63, 0
10, 7538, Note_on_c, 7, 58, 0
10, 7564, Note_on_c, 7, 66, 104
10, 7565, Note_on_c, 7, 61, 110
10, 7581, Note_on_c, 7, 61, 0
10, 7586, Note_on_c, 7, 66, 0
10, 7632, Control_c, 7, 7, 78
10, 7636, Control_c, 7, 7, 76
10, 7640, Control_c, 7, 7, 74
10, 7644, Control_c, 7, 7, 72
10, 7647, Control_c, 7, 7, 70
10, 7651, Control_c, 7, 7, 67
10, 7655, Control_c, 7, 7, 65
10, 7658, Control_c, 7, 7, 63
10, 7662, Control_c, 7, 7, 61
10, 7665, Control_c, 7, 7, 58
10, 7669, Control_c, 7, 7, 56
10, 7670, Note_on_c, 7, 58, 95
10, 7670, Note_on_c, 7, 63, 104
10, 7673, Control_c, 7, 7, 54
10, 7677, Control_c, 7, 7, 53
10, 7680, Control_c, 7, 7, 52
10, 7751, Control_c, 7, 7, 55
10, 7754, Control_c, 7, 7, 57
10, 7758, Control_c, 7, 7, 58
10, 7780, Control_c, 7, 7, 60
10, 7783, Control_c, 7, 7, 61
10, 7787, Control_c, 7, 7, 62
10, 7791, Control_c, 7, 7, 63
10, 7794, Control_c, 7, 7, 65
10, 7798, Control_c, 7, 7, 66
10, 7802, Control_c, 7, 7, 67
10, 7806, Control_c, 7, 7, 68
10, 7809, Control_c, 7, 7, 69
10, 7812, Control_c, 7, 7, 70
10, 7816, Control_c, 7, 7, 71
10, 7820, Control_c, 7, 7, 72
10, 7831, Control_c, 7, 7, 75
10, 7842, Control_c, 7, 7, 77
10, 7846, Control_c, 7, 7, 78
10, 7850, Control_c, 7, 7, 79
10, 7860, Control_c, 7, 7, 82
10, 7864, Control_c, 7, 7, 83
10, 7868, Control_c, 7, 7, 84
10, 7872, Control_c, 7, 7, 85
10, 7890, Control_c, 7, 7, 87
10, 7894, Control_c, 7, 7, 88
10, 7897, Control_c, 7, 7, 89
10, 7901, Control_c, 7, 7, 90
10, 7905, Control_c, 7, 7, 91
10, 7908, Control_c, 7, 7, 92
10, 7912, Control_c, 7, 7, 93
10, 7916, Control_c, 7, 7, 94
10, 7920, Control_c, 7, 7, 95
10, 7938, Control_c, 7, 7, 98
10, 7953, Control_c, 7, 7, 101
10, 7956, Control_c, 7, 7, 102
10, 7960, Control_c, 7, 7, 103
10, 7971, Control_c, 7, 7, 106
10, 7975, Control_c, 7, 7, 107
10, 7979, Control_c, 7, 7, 108
10, 8001, Control_c, 7, 7, 110
10, 8012, Control_c, 7, 7, 114
10, 8016, Control_c, 7, 7, 116
10, 8019, Control_c, 7, 7, 118
10, 8022, Control_c, 7, 7, 119
10, 8027, Control_c, 7, 7, 121
10, 8030, Control_c, 7, 7, 122
10, 8034, Control_c, 7, 7, 123
10, 8056, Control_c, 7, 7, 125
10, 8060, Control_c, 7, 7, 126
10, 8081, Note_on_c, 7, 58, 0
10, 8105, Note_on_c, 7, 63, 0
10, 8158, Note_on_c, 7, 64, 104
10, 8160, Note_on_c, 7, 68, 127
10, 8231, Note_on_c, 7, 68, 0
10, 8235, Note_on_c, 7, 66, 100
10, 8237, Note_on_c, 7, 64, 0
10, 8238, Note_on_c, 7, 70, 95
10, 8263, Note_on_c, 7, 66, 0
10, 8266, Note_on_c, 7, 70, 0
10, 8832, Note_on_c, 7, 61, 104
10, 8832, Note_on_c, 7, 63, 104
10, 8833, Note_on_c, 7, 57, 122
10, 8855, Control_c, 7, 7, 123
10, 8859, Control_c, 7, 7, 122
10, 8863, Control_c, 7, 7, 118
10, 8866, Control_c, 7, 7, 113
10, 8870, Control_c, 7, 7, 107
10, 8874, Control_c, 7, 7, 101
10, 8877, Control_c, 7, 7, 93
10, 8881, Control_c, 7, 7, 81
10, 8885, Control_c, 7, 7, 65
10, 8888, Control_c, 7, 7, 41
10, 8892, Control_c, 7, 7, 21
10, 8896, Control_c, 7, 7, 11
10, 8900, Control_c, 7, 7, 9
10, 8952, Control_c, 7, 7, 14
10, 8955, Control_c, 7, 7, 20
10, 8959, Control_c, 7, 7, 29
10, 8962, Control_c, 7, 7, 42
10, 8966, Control_c, 7, 7, 55
10, 8970, Control_c, 7, 7, 67
10, 8974, Control_c, 7, 7, 77
10, 8977, Control_c, 7, 7, 84
10, 8980, Control_c, 7, 7, 90
10, 8984, Control_c, 7, 7, 94
10, 8988, Control_c, 7, 7, 97
10, 8991, Control_c, 7, 7, 98
10, 9010, Control_c, 7, 7, 101
10, 9013, Control_c, 7, 7, 103
10, 9017, Control_c, 7, 7, 106
10, 9021, Control_c, 7, 7, 109
10, 9024, Control_c, 7, 7, 111
10, 9028, Control_c, 7, 7, 113
10, 9032, Control_c, 7, 7, 115
10, 9036, Control_c, 7, 7, 116
10, 9050, Control_c, 7, 7, 119
10, 9054, Control_c, 7, 7, 121
10, 9058, Control_c, 7, 7, 124
10, 9061, Control_c, 7, 7, 125
10, 9096, Note_on_c, 7, 63, 0
10, 9097, Note_on_c, 7, 57, 0
10, 9097, Note_on_c, 7, 61, 0
10, 9119, Note_on_c, 7, 66, 100
10, 9119, Note_on_c, 7, 61, 100
10, 9134, Note_on_c, 7, 61, 0
10, 9139, Note_on_c, 7, 66, 0
10, 9147, Control_c, 7, 7, 122
10, 9151, Control_c, 7, 7, 121
10, 9237, Note_on_c, 7, 58, 83
10, 9238, Note_on_c, 7, 63, 100
10, 9368, Control_c, 7, 7, 118
10, 9401, Control_c, 7, 7, 116
10, 9438, Control_c, 7, 7, 113
10, 9456, Control_c, 7, 7, 111
10, 9465, Note_on_c, 7, 63, 0
10, 9466, Note_on_c, 7, 58, 0
10, 9484, Note_on_c, 7, 66, 104
10, 9485, Note_on_c, 7, 61, 104
10, 9501, Note_on_c, 7, 61, 0
10, 9507, Note_on_c, 7, 66, 0
10, 9593, Note_on_c, 7, 58, 87
10, 9595, Note_on_c, 7, 63, 91
10, 9679, Control_c, 7, 7, 108
10, 9720, Control_c, 7, 7, 106
10, 9734, Control_c, 7, 7, 103
10, 9753, Control_c, 7, 7, 101
10, 9793, Control_c, 7, 7, 98
10, 9852, Control_c, 7, 7, 95
10, 9864, Control_c, 7, 7, 93
10, 9867, Control_c, 7, 7, 92
10, 9882, Control_c, 7, 7, 89
10, 9886, Control_c, 7, 7, 88
10, 9908, Control_c, 7, 7, 86
10, 9922, Control_c, 7, 7, 83
10, 9933, Control_c, 7, 7, 80
10, 9937, Control_c, 7, 7, 79
10, 9941, Control_c, 7, 7, 78
10, 9944, Control_c, 7, 7, 76
10, 9948, Control_c, 7, 7, 75
10, 9952, Control_c, 7, 7, 74
10, 9966, Control_c, 7, 7, 72
10, 9981, Control_c, 7, 7, 69
10, 9996, Control_c, 7, 7, 67
10, 9999, Control_c, 7, 7, 66
10, 10014, Control_c, 7, 7, 63
10, 10040, Control_c, 7, 7, 61
10, 10046, Note_on_c, 7, 63, 0
10, 10058, Control_c, 7, 7, 58
10, 10067, Note_on_c, 7, 58, 0
10, 10073, Control_c, 7, 7, 55
10, 10077, Control_c, 7, 7, 54
10, 10080, Control_c, 7, 7, 53
10, 10081, Note_on_c, 7, 61, 95
10, 10084, Note_on_c, 7, 65, 113
10, 10106, Control_c, 7, 7, 56
10, 10140, Control_c, 7, 7, 58
10, 10143, Control_c, 7, 7, 59
10, 10147, Control_c, 7, 7, 60
10, 10162, Control_c, 7, 7, 63
10, 10165, Control_c, 7, 7, 64
10, 10180, Control_c, 7, 7, 66
10, 10202, Control_c, 7, 7, 69
10, 10221, Control_c, 7, 7, 71
10, 10236, Control_c, 7, 7, 74
10, 10254, Control_c, 7, 7, 76
10, 10280, Control_c, 7, 7, 79
10, 10306, Control_c, 7, 7, 81
10, 10309, Control_c, 7, 7, 82
10, 10328, Control_c, 7, 7, 85
10, 10368, Control_c, 7, 7, 87
10, 10383, Control_c, 7, 7, 90
10, 10405, Control_c, 7, 7, 92
10, 10435, Control_c, 7, 7, 95
10, 10450, Control_c, 7, 7, 98
10, 10453, Control_c, 7, 7, 99
10, 10457, Control_c, 7, 7, 100
10, 10461, Control_c, 7, 7, 101
10, 10464, Control_c, 7, 7, 102
10, 10494, Control_c, 7, 7, 105
10, 10527, Control_c, 7, 7, 107
10, 10552, Control_c, 7, 7, 110
10, 10590, Control_c, 7, 7, 112
10, 10616, Control_c, 7, 7, 115
10, 10620, Control_c, 7, 7, 116
10, 10634, Control_c, 7, 7, 119
10, 10690, Control_c, 7, 7, 121
10, 10715, Control_c, 7, 7, 124
10, 10764, Control_c, 7, 7, 126
10, 11044, Control_c, 7, 7, 123
10, 11048, Control_c, 7, 7, 122
10, 11050, Note_on_c, 7, 61, 0
10, 11052, Note_on_c, 7, 65, 0
10, 11052, Control_c, 7, 7, 120
10, 11056, Control_c, 7, 7, 118
10, 11060, Control_c, 7, 7, 117
10, 11063, Control_c, 7, 7, 115
10, 11067, Control_c, 7, 7, 114
10, 11070, Control_c, 7, 7, 113
10, 11074, Control_c, 7, 7, 112
10, 11078, Control_c, 7, 7, 110
10, 11081, Control_c, 7, 7, 108
10, 11085, Control_c, 7, 7, 106
10, 11089, Control_c, 7, 7, 105
10, 20238, Control_c, 7, 7, 102
10, 20242, Control_c, 7, 7, 101
10, 20423, Note_on_c, 7, 57, 101
10, 20484, Note_on_c, 7, 57, 0
10, 20487, Note_on_c, 7, 60, 91
10, 20516, Note_on_c, 7, 60, 0
10, 20528, Note_on_c, 7, 62, 91
10, 20575, Note_on_c, 7, 62, 0
10, 20647, Note_on_c, 7, 62, 122
10, 20649, Note_on_c, 7, 60, 117
10, 20652, Note_on_c, 7, 65, 88
10, 20667, Note_on_c, 7, 60, 0
10, 20671, Note_on_c, 7, 62, 0
10, 20696, Note_on_c, 7, 65, 0
10, 20767, Note_on_c, 7, 65, 104
10, 20770, Note_on_c, 7, 60, 104
10, 20900, Note_on_c, 7, 62, 48
10, 20939, Note_on_c, 7, 62, 0
10, 21030, Note_on_c, 7, 60, 0
10, 21039, Note_on_c, 7, 65, 0
10, 21124, Note_on_c, 7, 63, 100
10, 21125, Note_on_c, 7, 67, 127
10, 21188, Note_on_c, 7, 63, 0
10, 21189, Note_on_c, 7, 67, 0
10, 21199, Note_on_c, 7, 69, 108
10, 21200, Note_on_c, 7, 65, 113
10, 21218, Note_on_c, 7, 65, 0
10, 21221, Note_on_c, 7, 69, 0
10, 22148, Control_c, 7, 7, 99
10, 22152, Control_c, 7, 7, 98
10, 22170, Control_c, 7, 7, 95
10, 22185, Control_c, 7, 7, 93
10, 22291, Control_c, 7, 7, 96
10, 22324, Control_c, 7, 7, 98
10, 22331, Note_on_c, 7, 57, 104
10, 22393, Note_on_c, 7, 57, 0
10, 22402, Note_on_c, 7, 60, 88
10, 22429, Note_on_c, 7, 60, 0
10, 22442, Note_on_c, 7, 60, 64
10, 22447, Note_on_c, 7, 62, 104
10, 22458, Note_on_c, 7, 60, 0
10, 22498, Note_on_c, 7, 62, 0
10, 22558, Note_on_c, 7, 60, 117
10, 22559, Note_on_c, 7, 65, 101
10, 22560, Note_on_c, 7, 62, 108
10, 22567, Control_c, 7, 7, 101
10, 22568, Note_on_c, 7, 62, 0
10, 22575, Note_on_c, 7, 60, 0
10, 22584, Note_on_c, 7, 65, 0
10, 22683, Note_on_c, 7, 57, 94
10, 22684, Note_on_c, 7, 62, 97
10, 22686, Note_on_c, 7, 65, 94
10, 23009, Note_on_c, 7, 57, 0
10, 23010, Note_on_c, 7, 62, 0
10, 23015, Note_on_c, 7, 65, 0
10, 23049, Note_on_c, 7, 67, 117
10, 23049, Note_on_c, 7, 63, 100
10, 23064, Control_c, 7, 7, 103
10, 23109, Note_on_c, 7, 67, 0
10, 23111, Note_on_c, 7, 63, 0
10, 23122, Note_on_c, 7, 69, 108
10, 23123, Note_on_c, 7, 64, 88
10, 23124, Note_on_c, 7, 65, 108
10, 23128, Note_on_c, 7, 64, 0
10, 23147, Note_on_c, 7, 65, 0
10, 23153, Note_on_c, 7, 69, 0
10, 30688, Control_c, 7, 7, 101
10, 30732, Control_c, 7, 7, 98
10, 32633, Note_on_c, 7, 61, 87
10, 32651, Note_on_c, 7, 65, 117
10, 32725, Control_c, 7, 7, 96
10, 32730, Control_c, 7, 7, 95
10, 32734, Control_c, 7, 7, 93
10, 32736, Control_c, 7, 7, 92
10, 32741, Control_c, 7, 7, 91
10, 32745, Control_c, 7, 7, 90
10, 32747, Control_c, 7, 7, 89
10, 32759, Control_c, 7, 7, 86
10, 32770, Control_c, 7, 7, 83
10, 32773, Control_c, 7, 7, 82
10, 32778, Control_c, 7, 7, 81
10, 32781, Control_c, 7, 7, 80
10, 32793, Control_c, 7, 7, 77
10, 32795, Control_c, 7, 7, 76
10, 32807, Control_c, 7, 7, 73
10, 32818, Control_c, 7, 7, 71
10, 32821, Control_c, 7, 7, 70
10, 32825, Control_c, 7, 7, 68
10, 32829, Control_c, 7, 7, 67
10, 32832, Control_c, 7, 7, 65
10, 32836, Control_c, 7, 7, 63
10, 32840, Control_c, 7, 7, 62
10, 32844, Control_c, 7, 7, 60
10, 32847, Control_c, 7, 7, 58
10, 32851, Control_c, 7, 7, 56
10, 32854, Control_c, 7, 7, 54
10, 32858, Control_c, 7, 7, 52
10, 32862, Control_c, 7, 7, 50
10, 32866, Control_c, 7, 7, 47
10, 32869, Control_c, 7, 7, 45
10, 32873, Control_c, 7, 7, 43
10, 32877, Control_c, 7, 7, 41
10, 32880, Control_c, 7, 7, 39
10, 32884, Control_c, 7, 7, 37
10, 32888, Control_c, 7, 7, 35
10, 32891, Control_c, 7, 7, 34
10, 32895, Control_c, 7, 7, 32
10, 32899, Control_c, 7, 7, 31
10, 32902, Control_c, 7, 7, 30
10, 32906, Control_c, 7, 7, 29
10, 33042, Control_c, 7, 7, 32
10, 33060, Control_c, 7, 7, 34
10, 33095, Control_c, 7, 7, 37
10, 33120, Control_c, 7, 7, 39
10, 33138, Control_c, 7, 7, 42
10, 33161, Control_c, 7, 7, 45
10, 33179, Control_c, 7, 7, 47
10, 33194, Control_c, 7, 7, 50
10, 33209, Control_c, 7, 7, 52
10, 33223, Control_c, 7, 7, 55
10, 33239, Control_c, 7, 7, 57
10, 33257, Control_c, 7, 7, 60
10, 33286, Control_c, 7, 7, 62
10, 33305, Control_c, 7, 7, 65
10, 33308, Control_c, 7, 7, 66
10, 33320, Control_c, 7, 7, 68
10, 33323, Control_c, 7, 7, 69
10, 33327, Control_c, 7, 7, 70
10, 33342, Control_c, 7, 7, 73
10, 33346, Control_c, 7, 7, 74
10, 33360, Control_c, 7, 7, 77
10, 33382, Control_c, 7, 7, 79
10, 33401, Control_c, 7, 7, 82
10, 33404, Control_c, 7, 7, 83
10, 33408, Control_c, 7, 7, 84
10, 33423, Control_c, 7, 7, 87
10, 33426, Control_c, 7, 7, 88
10, 33442, Control_c, 7, 7, 90
10, 33445, Control_c, 7, 7, 91
10, 33448, Control_c, 7, 7, 92
10, 33453, Control_c, 7, 7, 93
10, 33456, Control_c, 7, 7, 94
10, 33459, Control_c, 7, 7, 95
10, 33464, Control_c, 7, 7, 96
10, 33468, Control_c, 7, 7, 97
10, 33486, Control_c, 7, 7, 100
10, 33507, Control_c, 7, 7, 102
10, 33527, Control_c, 7, 7, 105
10, 33540, Control_c, 7, 7, 108
10, 33564, Control_c, 7, 7, 110
10, 33575, Control_c, 7, 7, 113
10, 33578, Control_c, 7, 7, 114
10, 33582, Control_c, 7, 7, 116
10, 33586, Control_c, 7, 7, 117
10, 33589, Control_c, 7, 7, 118
10, 33593, Control_c, 7, 7, 119
10, 33597, Control_c, 7, 7, 120
10, 33600, Control_c, 7, 7, 121
10, 33604, Control_c, 7, 7, 122
10, 33607, Control_c, 7, 7, 123
10, 33630, Note_on_c, 7, 65, 0
10, 33689, Note_on_c, 7, 61, 0
10, 34735, Note_on_c, 7, 60, 71
10, 34757, Note_on_c, 7, 60, 0
10, 34763, Note_on_c, 7, 61, 63
10, 34792, Note_on_c, 7, 61, 0
10, 34808, Note_on_c, 7, 63, 91
10, 34863, Note_on_c, 7, 63, 0
10, 34883, Note_on_c, 7, 68, 80
10, 34900, Note_on_c, 7, 68, 0
10, 34983, Note_on_c, 7, 68, 100
10, 35005, Note_on_c, 7, 68, 0
10, 35011, Note_on_c, 7, 65, 83
10, 35037, Note_on_c, 7, 65, 0
10, 35056, Note_on_c, 7, 70, 100
10, 35218, Note_on_c, 7, 70, 0
10, 35250, Pitch_bend_c, 7, 8191
10, 35254, Pitch_bend_c, 7, 7926
10, 35261, Pitch_bend_c, 7, 7398
10, 35265, Pitch_bend_c, 7, 7134
10, 35280, Pitch_bend_c, 7, 7662
10, 35284, Pitch_bend_c, 7, 8192
10, 35805, Note_on_c, 7, 72, 113
10, 35837, Note_on_c, 7, 72, 0
10, 35840, Note_on_c, 7, 70, 83
10, 35866, Note_on_c, 7, 70, 0
10, 35877, Note_on_c, 7, 72, 71
10, 35908, Note_on_c, 7, 72, 0
10, 35915, Note_on_c, 7, 73, 100
10, 35942, Note_on_c, 7, 73, 0
10, 35957, Note_on_c, 7, 68, 95
10, 36104, Note_on_c, 7, 68, 0
10, 36106, Pitch_bend_c, 7, 7926
10, 36109, Pitch_bend_c, 7, 7134
10, 36113, Pitch_bend_c, 7, 6341
10, 36116, Pitch_bend_c, 7, 5812
10, 36120, Pitch_bend_c, 7, 5020
10, 36124, Pitch_bend_c, 7, 4756
10, 36127, Pitch_bend_c, 7, 4491
10, 36138, Pitch_bend_c, 7, 4756
10, 36145, Pitch_bend_c, 7, 5284
10, 36150, Pitch_bend_c, 7, 5812
10, 36153, Pitch_bend_c, 7, 6341
10, 36157, Pitch_bend_c, 7, 7134
10, 36161, Pitch_bend_c, 7, 7662
10, 36164, Pitch_bend_c, 7, 8192
10, 36604, Note_on_c, 7, 65, 113
10, 36630, Note_on_c, 7, 65, 0
10, 36636, Note_on_c, 7, 66, 76
10, 36659, Note_on_c, 7, 66, 0
10, 36681, Note_on_c, 7, 68, 100
10, 36773, Note_on_c, 7, 68, 0
10, 36833, Note_on_c, 7, 68, 95
10, 36858, Note_on_c, 7, 68, 0
10, 36872, Note_on_c, 7, 70, 83
10, 36894, Note_on_c, 7, 70, 0
10, 36917, Note_on_c, 7, 72, 108
10, 37023, Pitch_bend_c, 7, 7926
10, 37025, Pitch_bend_c, 7, 7398
10, 37030, Pitch_bend_c, 7, 7134
10, 37033, Pitch_bend_c, 7, 6605
10, 37037, Pitch_bend_c, 7, 6077
10, 37040, Pitch_bend_c, 7, 5548
10, 37044, Pitch_bend_c, 7, 5020
10, 37048, Pitch_bend_c, 7, 4491
10, 37051, Pitch_bend_c, 7, 4227
10, 37059, Pitch_bend_c, 7, 3963
10, 37060, Note_on_c, 7, 72, 0
10, 37081, Pitch_bend_c, 7, 4227
10, 37085, Pitch_bend_c, 7, 4756
10, 37089, Pitch_bend_c, 7, 5548
10, 37092, Pitch_bend_c, 7, 6341
10, 37096, Pitch_bend_c, 7, 7134
10, 37100, Pitch_bend_c, 7, 8191
10, 37103, Pitch_bend_c, 7, 8192
10, 37140, Note_on_c, 7, 65, 57
10, 37167, Note_on_c, 7, 65, 0
10, 37204, Note_on_c, 7, 68, 100
10, 37339, Pitch_bend_c, 7, 8191
10, 37342, Pitch_bend_c, 7, 7926
10, 37346, Pitch_bend_c, 7, 7398
10, 37350, Pitch_bend_c, 7, 7134
10, 37353, Pitch_bend_c, 7, 6605
10, 37357, Pitch_bend_c, 7, 6341
10, 37358, Note_on_c, 7, 68, 0
10, 37360, Pitch_bend_c, 7, 5812
10, 37364, Pitch_bend_c, 7, 5548
10, 37367, Pitch_bend_c, 7, 5284
10, 37372, Pitch_bend_c, 7, 5020
10, 37374, Pitch_bend_c, 7, 4756
10, 37379, Pitch_bend_c, 7, 4491
10, 37383, Pitch_bend_c, 7, 4227
10, 37389, Pitch_bend_c, 7, 3963
10, 37398, Pitch_bend_c, 7, 4227
10, 37401, Pitch_bend_c, 7, 4756
10, 37405, Pitch_bend_c, 7, 5284
10, 37408, Pitch_bend_c, 7, 5812
10, 37411, Pitch_bend_c, 7, 6605
10, 37416, Pitch_bend_c, 7, 7134
10, 37420, Pitch_bend_c, 7, 8191
10, 37422, Pitch_bend_c, 7, 8192
10, 39122, Note_on_c, 7, 65, 88
10, 39122, Note_on_c, 7, 61, 68
10, 39356, Note_on_c, 7, 61, 0
10, 39357, Note_on_c, 7, 65, 0
10, 39364, Note_on_c, 7, 67, 104
10, 39365, Note_on_c, 7, 63, 76
10, 39583, Note_on_c, 7, 63, 0
10, 39590, Note_on_c, 7, 65, 83
10, 39591, Note_on_c, 7, 67, 0
10, 39591, Note_on_c, 7, 68, 83
10, 39823, Note_on_c, 7, 68, 0
10, 39830, Note_on_c, 7, 67, 101
10, 39833, Note_on_c, 7, 65, 0
10, 39834, Note_on_c, 7, 63, 65
10, 40055, Note_on_c, 7, 67, 0
10, 40065, Note_on_c, 7, 63, 0
10, 40204, Note_on_c, 7, 65, 122
10, 40320, Note_on_c, 7, 65, 0
10, 40323, Note_on_c, 7, 58, 87
10, 40548, Note_on_c, 7, 60, 104
10, 40549, Note_on_c, 7, 58, 0
10, 40801, Note_on_c, 7, 62, 97
10, 40804, Note_on_c, 7, 60, 0
10, 41353, Note_on_c, 7, 62, 0
10, 42964, Note_on_c, 7, 55, 68
10, 42979, Note_on_c, 7, 57, 86
10, 42986, Note_on_c, 7, 55, 0
10, 43041, Note_on_c, 7, 57, 0
10, 43044, Note_on_c, 7, 60, 73
10, 43065, Note_on_c, 7, 60, 0
10, 43082, Note_on_c, 7, 62, 104
10, 43119, Note_on_c, 7, 62, 0
10, 43205, Note_on_c, 7, 65, 104
10, 43205, Note_on_c, 7, 60, 108
10, 43227, Note_on_c, 7, 60, 0
10, 43244, Note_on_c, 7, 65, 0
10, 43320, Note_on_c, 7, 65, 91
10, 43321, Note_on_c, 7, 60, 108
10, 43322, Note_on_c, 7, 57, 101
10, 43423, Note_on_c, 7, 57, 0
10, 43555, Note_on_c, 7, 60, 0
10, 43565, Note_on_c, 7, 65, 0
10, 43680, Note_on_c, 7, 67, 117
10, 43681, Note_on_c, 7, 63, 100
10, 43741, Note_on_c, 7, 63, 0
10, 43745, Note_on_c, 7, 67, 0
10, 43760, Note_on_c, 7, 65, 122
10, 43760, Note_on_c, 7, 69, 113
10, 43787, Note_on_c, 7, 65, 0
10, 43791, Note_on_c, 7, 69, 0
10, 44893, Note_on_c, 7, 55, 70
10, 44899, Note_on_c, 7, 56, 80
10, 44904, Note_on_c, 7, 56, 0
10, 44906, Note_on_c, 7, 57, 94
10, 44909, Note_on_c, 7, 55, 0
10, 44962, Note_on_c, 7, 57, 0
10, 44966, Note_on_c, 7, 60, 75
10, 44997, Note_on_c, 7, 60, 0
10, 45007, Note_on_c, 7, 62, 88
10, 45048, Note_on_c, 7, 62, 0
10, 45122, Note_on_c, 7, 60, 101
10, 45123, Note_on_c, 7, 57, 83
10, 45127, Note_on_c, 7, 65, 66
10, 45144, Note_on_c, 7, 60, 0
10, 45146, Note_on_c, 7, 57, 0
10, 45147, Note_on_c, 7, 65, 0
10, 45242, Note_on_c, 7, 55, 83
10, 45243, Note_on_c, 7, 60, 97
10, 45245, Note_on_c, 7, 65, 86
10, 45503, Note_on_c, 7, 60, 0
10, 45504, Note_on_c, 7, 55, 0
10, 45510, Note_on_c, 7, 65, 0
10, 45601, Note_on_c, 7, 67, 122
10, 45602, Note_on_c, 7, 63, 100
10, 45665, Note_on_c, 7, 63, 0
10, 45670, Note_on_c, 7, 67, 0
10, 45681, Note_on_c, 7, 69, 97
10, 45682, Note_on_c, 7, 65, 108
10, 45706, Note_on_c, 7, 65, 0
10, 45715, Note_on_c, 7, 69, 0
10, 53402, Note_on_c, 7, 58, 100
10, 53424, Note_on_c, 7, 58, 0
10, 53438, Note_on_c, 7, 63, 104
10, 53465, Note_on_c, 7, 63, 0
10, 53475, Note_on_c, 7, 60, 108
10, 53502, Note_on_c, 7, 60, 0
10, 53514, Note_on_c, 7, 61, 110
10, 53544, Note_on_c, 7, 61, 0
10, 53554, Note_on_c, 7, 65, 117
10, 53592, Note_on_c, 7, 61, 76
10, 53598, Note_on_c, 7, 65, 0
10, 53618, Note_on_c, 7, 61, 0
10, 53632, Note_on_c, 7, 63, 100
10, 53651, Note_on_c, 7, 63, 0
10, 53673, Note_on_c, 7, 68, 110
10, 53705, Note_on_c, 7, 68, 0
10, 53709, Note_on_c, 7, 65, 104
10, 53733, Note_on_c, 7, 65, 0
10, 53747, Note_on_c, 7, 67, 127
10, 53998, Note_on_c, 7, 67, 0
10, 58792, Note_on_c, 7, 61, 65
10, 58794, Note_on_c, 7, 65, 75
10, 59024, Note_on_c, 7, 61, 0
10, 59031, Note_on_c, 7, 65, 0
10, 59043, Note_on_c, 7, 67, 101
10, 59048, Note_on_c, 7, 63, 80
10, 59267, Note_on_c, 7, 63, 0
10, 59271, Note_on_c, 7, 67, 0
10, 59282, Note_on_c, 7, 65, 88
10, 59284, Note_on_c, 7, 68, 87
10, 59514, Note_on_c, 7, 68, 0
10, 59518, Note_on_c, 7, 65, 0
10, 59525, Note_on_c, 7, 67, 94
10, 59530, Note_on_c, 7, 63, 71
10, 59754, Note_on_c, 7, 63, 0
10, 59770, Note_on_c, 7, 67, 0
10, 59878, Note_on_c, 7, 65, 94
10, 59880, Note_on_c, 7, 77, 104
10, 59993, Note_on_c, 7, 77, 0
10, 59994, Note_on_c, 7, 65, 0
10, 59995, Note_on_c, 7, 58, 73
10, 59996, Note_on_c, 7, 70, 73
10, 60232, Note_on_c, 7, 70, 0
10, 60233, Note_on_c, 7, 58, 0
10, 60237, Note_on_c, 7, 72, 97
10, 60240, Note_on_c, 7, 60, 68
10, 60470, Note_on_c, 7, 72, 0
10, 60473, Note_on_c, 7, 74, 86
10, 60474, Note_on_c, 7, 62, 91
10, 60475, Note_on_c, 7, 60, 0
10, 60835, Note_on_c, 7, 74, 0
10, 60848, Note_on_c, 7, 65, 77
10, 60959, Note_on_c, 7, 65, 0
10, 60960, Note_on_c, 7, 56, 68
10, 60963, Note_on_c, 7, 67, 77
10, 61110, Note_on_c, 7, 62, 0
10, 61288, Note_on_c, 7, 67, 0
10, 61293, Note_on_c, 7, 56, 0
10, 62412, Note_on_c, 7, 65, 88
10, 62414, Note_on_c, 7, 60, 88
10, 62415, Note_on_c, 7, 53, 75
10, 62428, Note_on_c, 7, 60, 0
10, 62430, Note_on_c, 7, 53, 0
10, 62439, Note_on_c, 7, 65, 0
10, 62647, Note_on_c, 7, 55, 70
10, 62660, Note_on_c, 7, 56, 83
10, 62669, Note_on_c, 7, 55, 0
10, 62670, Note_on_c, 7, 56, 0
10, 62672, Note_on_c, 7, 57, 94
10, 62720, Note_on_c, 7, 57, 0
10, 62732, Note_on_c, 7, 60, 66
10, 62757, Note_on_c, 7, 60, 0
10, 62772, Note_on_c, 7, 62, 88
10, 62806, Note_on_c, 7, 62, 0
10, 62886, Note_on_c, 7, 60, 97
10, 62886, Note_on_c, 7, 57, 86
10, 62887, Note_on_c, 7, 65, 88
10, 62907, Note_on_c, 7, 60, 0
10, 62911, Note_on_c, 7, 57, 0
10, 62914, Note_on_c, 7, 65, 0
10, 63003, Note_on_c, 7, 55, 88
10, 63005, Note_on_c, 7, 60, 94
10, 63005, Note_on_c, 7, 65, 88
10, 63262, Note_on_c, 7, 55, 0
10, 63286, Note_on_c, 7, 65, 0
10, 63287, Note_on_c, 7, 60, 0
10, 63362, Note_on_c, 7, 63, 110
10, 63363, Note_on_c, 7, 67, 127
10, 63428, Note_on_c, 7, 67, 0
10, 63431, Note_on_c, 7, 69, 108
10, 63432, Note_on_c, 7, 63, 0
10, 63435, Note_on_c, 7, 65, 104
10, 63466, Note_on_c, 7, 69, 0
10, 63469, Note_on_c, 7, 65, 0
10, 64593, Note_on_c, 7, 57, 75
10, 64635, Note_on_c, 7, 57, 0
10, 64649, Note_on_c, 7, 60, 97
10, 64671, Note_on_c, 7, 60, 0
10, 64680, Note_on_c, 7, 62, 94
10, 64726, Note_on_c, 7, 62, 0
10, 64798, Note_on_c, 7, 60, 108
10, 64800, Note_on_c, 7, 65, 94
10, 64824, Note_on_c, 7, 60, 0
10, 64829, Note_on_c, 7, 65, 0
10, 64923, Note_on_c, 7, 65, 86
10, 64924, Note_on_c, 7, 60, 81
10, 64925, Note_on_c, 7, 57, 104
10, 65141, Note_on_c, 7, 60, 0
10, 65145, Note_on_c, 7, 57, 0
10, 65156, Note_on_c, 7, 65, 0
10, 65276, Note_on_c, 7, 63, 110
10, 65278, Note_on_c, 7, 67, 127
10, 65350, Note_on_c, 7, 67, 0
10, 65353, Note_on_c, 7, 63, 0
10, 65355, Note_on_c, 7, 69, 122
10, 65360, Note_on_c, 7, 65, 108
10, 65379, Note_on_c, 7, 69, 0
10, 65390, Note_on_c, 7, 65, 0
10, 70328, Note_on_c, 7, 57, 62
10, 70336, Note_on_c, 7, 57, 0
10, 71046, Note_on_c, 7, 67, 108
10, 71048, Note_on_c, 7, 71, 113
10, 71103, Note_on_c, 7, 71, 0
10, 71104, Note_on_c, 7, 67, 0
10, 71111, Note_on_c, 7, 69, 108
10, 71114, Note_on_c, 7, 72, 81
10, 71128, Note_on_c, 7, 72, 0
10, 71132, Note_on_c, 7, 69, 0
10, 71414, Note_on_c, 7, 67, 104
10, 71414, Note_on_c, 7, 71, 108
10, 71443, Note_on_c, 7, 72, 77
10, 71444, Note_on_c, 7, 71, 0
10, 71456, Note_on_c, 7, 67, 0
10, 71460, Note_on_c, 7, 69, 67
10, 71472, Note_on_c, 7, 72, 0
10, 71488, Note_on_c, 7, 71, 113
10, 71493, Note_on_c, 7, 67, 91
10, 71497, Note_on_c, 7, 69, 0
10, 71524, Note_on_c, 7, 71, 0
10, 71527, Note_on_c, 7, 67, 0
10, 71570, Note_on_c, 7, 69, 83
10, 71574, Note_on_c, 7, 65, 67
10, 71593, Note_on_c, 7, 69, 0
10, 71601, Note_on_c, 7, 71, 77
10, 71612, Note_on_c, 7, 65, 0
10, 71620, Note_on_c, 7, 67, 79
10, 71630, Note_on_c, 7, 71, 0
10, 71635, Note_on_c, 7, 69, 113
10, 71653, Note_on_c, 7, 65, 81
10, 71664, Note_on_c, 7, 67, 0
10, 71698, Note_on_c, 7, 65, 0
10, 71698, Note_on_c, 7, 69, 0
10, 71757, Note_on_c, 7, 63, 91
10, 71760, Note_on_c, 7, 67, 108
10, 71822, Note_on_c, 7, 63, 0
10, 71825, Note_on_c, 7, 67, 0
10, 71839, Note_on_c, 7, 65, 68
10, 71841, Note_on_c, 7, 69, 59
10, 71884, Note_on_c, 7, 69, 0
10, 71886, Note_on_c, 7, 67, 104
10, 71887, Note_on_c, 7, 63, 76
10, 71889, Note_on_c, 7, 65, 0
10, 71926, Note_on_c, 7, 67, 0
10, 71929, Note_on_c, 7, 63, 0
10, 71957, Note_on_c, 7, 65, 88
10, 71962, Note_on_c, 7, 67, 77
10, 71962, Note_on_c, 7, 69, 101
10, 71979, Note_on_c, 7, 67, 0
10, 72449, Control_c, 7, 7, 119
10, 72453, Control_c, 7, 7, 118
10, 72457, Control_c, 7, 7, 117
10, 72460, Control_c, 7, 7, 115
10, 72465, Control_c, 7, 7, 114
10, 72468, Control_c, 7, 7, 113
10, 72472, Control_c, 7, 7, 112
10, 72476, Control_c, 7, 7, 110
10, 72478, Note_on_c, 7, 69, 0
10, 72479, Note_on_c, 7, 65, 0
10, 72480, Control_c, 7, 7, 109
10, 72483, Control_c, 7, 7, 107
10, 72487, Control_c, 7, 7, 105
10, 72491, Control_c, 7, 7, 103
10, 72495, Control_c, 7, 7, 102
10, 72498, Control_c, 7, 7, 101
10, 72635, Control_c, 7, 7, 103
10, 72660, Control_c, 7, 7, 106
10, 72683, Control_c, 7, 7, 109
10, 72686, Control_c, 7, 7, 110
10, 72700, Control_c, 7, 7, 112
10, 72722, Control_c, 7, 7, 115
10, 72966, Note_on_c, 7, 67, 117
10, 72967, Note_on_c, 7, 63, 95
10, 73031, Note_on_c, 7, 63, 0
10, 73041, Note_on_c, 7, 69, 101
10, 73041, Note_on_c, 7, 65, 117
10, 73053, Note_on_c, 7, 67, 0
10, 73058, Note_on_c, 7, 65, 0
10, 73066, Note_on_c, 7, 69, 0
10, 73629, Note_on_c, 7, 56, 71
10, 73631, Note_on_c, 7, 60, 83
10, 73633, Note_on_c, 7, 62, 91
10, 73903, Note_on_c, 7, 56, 0
10, 73905, Note_on_c, 7, 60, 0
10, 73906, Note_on_c, 7, 62, 0
10, 74147, Note_on_c, 7, 57, 91
10, 74232, Note_on_c, 7, 57, 0
10, 74239, Note_on_c, 7, 60, 75
10, 74265, Note_on_c, 7, 60, 0
10, 74279, Note_on_c, 7, 62, 94
10, 74325, Note_on_c, 7, 62, 0
10, 74400, Note_on_c, 7, 65, 97
10, 74400, Note_on_c, 7, 60, 83
10, 74429, Note_on_c, 7, 60, 0
10, 74430, Note_on_c, 7, 65, 0
10, 74517, Note_on_c, 7, 57, 77
10, 74521, Note_on_c, 7, 60, 79
10, 74523, Note_on_c, 7, 65, 94
10, 74805, Note_on_c, 7, 57, 0
10, 74830, Note_on_c, 7, 60, 0
10, 74835, Note_on_c, 7, 65, 0
10, 74882, Note_on_c, 7, 67, 104
10, 74884, Note_on_c, 7, 71, 117
10, 74956, Note_on_c, 7, 72, 97
10, 74957, Note_on_c, 7, 69, 91
10, 74961, Note_on_c, 7, 67, 0
10, 74965, Note_on_c, 7, 71, 0
10, 74979, Note_on_c, 7, 69, 0
10, 74989, Note_on_c, 7, 72, 0
10, 75234, Note_on_c, 7, 67, 88
10, 75235, Note_on_c, 7, 71, 94
10, 75273, Note_on_c, 7, 67, 0
10, 75275, Note_on_c, 7, 69, 79
10, 75278, Note_on_c, 7, 72, 75
10, 75280, Note_on_c, 7, 71, 0
10, 75297, Note_on_c, 7, 69, 0
10, 75302, Note_on_c, 7, 72, 0
10, 75323, Note_on_c, 7, 71, 88
10, 75324, Note_on_c, 7, 67, 101
10, 75348, Note_on_c, 7, 71, 0
10, 75365, Note_on_c, 7, 67, 0
10, 75411, Note_on_c, 7, 65, 81
10, 75412, Note_on_c, 7, 69, 101
10, 75444, Note_on_c, 7, 69, 0
10, 75449, Note_on_c, 7, 71, 75
10, 75460, Note_on_c, 7, 65, 0
10, 75466, Note_on_c, 7, 67, 71
10, 75480, Note_on_c, 7, 71, 0
10, 75487, Note_on_c, 7, 67, 0
10, 75490, Note_on_c, 7, 69, 94
10, 75499, Note_on_c, 7, 65, 81
10, 75531, Note_on_c, 7, 69, 0
10, 75535, Note_on_c, 7, 65, 0
10, 75595, Note_on_c, 7, 63, 76
10, 75598, Note_on_c, 7, 67, 101
10, 75666, Note_on_c, 7, 63, 0
10, 75668, Note_on_c, 7, 67, 0
10, 75674, Note_on_c, 7, 69, 75
10, 75675, Note_on_c, 7, 65, 79
10, 75717, Note_on_c, 7, 69, 0
10, 75718, Note_on_c, 7, 65, 0
10, 75720, Note_on_c, 7, 67, 101
10, 75724, Note_on_c, 7, 63, 73
10, 75757, Note_on_c, 7, 67, 0
10, 75772, Note_on_c, 7, 63, 0
10, 75792, Note_on_c, 7, 65, 81
10, 75795, Note_on_c, 7, 69, 97
10, 75984, Note_on_c, 7, 64, 1
10, 76119, Note_on_c, 7, 64, 0
10, 76136, Note_on_c, 7, 69, 0
10, 76148, Note_on_c, 7, 65, 0
10, 76320, Note_on_c, 7, 60, 83
10, 76321, Note_on_c, 7, 65, 97
10, 76327, Note_on_c, 7, 55, 60
10, 76339, Note_on_c, 7, 55, 0
10, 76343, Note_on_c, 7, 60, 0
10, 76344, Note_on_c, 7, 65, 0
10, 76430, Note_on_c, 7, 55, 79
10, 76434, Note_on_c, 7, 60, 63
10, 76434, Note_on_c, 7, 65, 77
10, 76727, Note_on_c, 7, 60, 0
10, 76747, Note_on_c, 7, 55, 0
10, 76763, Note_on_c, 7, 65, 0
10, 76798, Note_on_c, 7, 63, 100
10, 76800, Note_on_c, 7, 67, 122
10, 76870, Note_on_c, 7, 63, 0
10, 76871, Note_on_c, 7, 67, 0
10, 76880, Note_on_c, 7, 69, 113
10, 76886, Note_on_c, 7, 65, 104
10, 76906, Note_on_c, 7, 69, 0
10, 76917, Note_on_c, 7, 65, 0
10, 77471, Note_on_c, 7, 60, 88
10, 77472, Note_on_c, 7, 62, 94
10, 77472, Note_on_c, 7, 56, 71
10, 77742, Note_on_c, 7, 56, 0
10, 77744, Note_on_c, 7, 62, 0
10, 77746, Note_on_c, 7, 60, 0
10, 77993, Note_on_c, 7, 57, 71
10, 78058, Note_on_c, 7, 57, 0
10, 78071, Note_on_c, 7, 60, 73
10, 78099, Note_on_c, 7, 60, 0
10, 78118, Note_on_c, 7, 62, 81
10, 78153, Note_on_c, 7, 62, 0
10, 78238, Note_on_c, 7, 65, 113
10, 78239, Note_on_c, 7, 60, 81
10, 78264, Note_on_c, 7, 65, 0
10, 78271, Note_on_c, 7, 60, 0
10, 78369, Note_on_c, 7, 57, 73
10, 78373, Note_on_c, 7, 65, 88
10, 78602, Note_on_c, 7, 57, 0
10, 78606, Note_on_c, 7, 65, 0
10, 78718, Note_on_c, 7, 71, 113
10, 78718, Note_on_c, 7, 67, 104
10, 78794, Note_on_c, 7, 71, 0
10, 78797, Note_on_c, 7, 67, 0
10, 78797, Note_on_c, 7, 69, 101
10, 78798, Note_on_c, 7, 72, 91
10, 78819, Note_on_c, 7, 69, 0
10, 78820, Note_on_c, 7, 72, 0
10, 78920, Note_on_c, 7, 72, 71
10, 78920, Note_on_c, 7, 69, 77
10, 79009, Note_on_c, 7, 72, 0
10, 79032, Note_on_c, 7, 69, 0
10, 79181, Note_on_c, 7, 71, 91
10, 79182, Note_on_c, 7, 67, 81
10, 79207, Note_on_c, 7, 67, 0
10, 79210, Note_on_c, 7, 71, 0
10, 79259, Note_on_c, 7, 69, 88
10, 79262, Note_on_c, 7, 65, 68
10, 79281, Note_on_c, 7, 69, 0
10, 79290, Note_on_c, 7, 71, 62
10, 79291, Note_on_c, 7, 65, 0
10, 79299, Note_on_c, 7, 67, 51
10, 79324, Note_on_c, 7, 71, 0
10, 79328, Note_on_c, 7, 69, 63
10, 79333, Note_on_c, 7, 67, 0
10, 79334, Note_on_c, 7, 65, 73
10, 79364, Note_on_c, 7, 65, 0
10, 79366, Note_on_c, 7, 69, 0
10, 79438, Note_on_c, 7, 67, 94
10, 79438, Note_on_c, 7, 63, 73
10, 79500, Note_on_c, 7, 67, 0
10, 79505, Note_on_c, 7, 63, 0
10, 79512, Note_on_c, 7, 69, 67
10, 79519, Note_on_c, 7, 65, 77
10, 79557, Note_on_c, 7, 69, 0
10, 79559, Note_on_c, 7, 65, 0
10, 79560, Note_on_c, 7, 67, 70
10, 79565, Note_on_c, 7, 63, 80
10, 79597, Note_on_c, 7, 67, 0
10, 79601, Note_on_c, 7, 63, 0
10, 79641, Note_on_c, 7, 65, 81
10, 79642, Note_on_c, 7, 69, 91
10, 79895, Note_on_c, 7, 65, 0
10, 79903, Note_on_c, 7, 69, 0
10, 80158, Note_on_c, 7, 65, 88
10, 80158, Note_on_c, 7, 60, 88
10, 80160, Note_on_c, 7, 55, 64
10, 80182, Note_on_c, 7, 65, 0
10, 80183, Note_on_c, 7, 60, 0
10, 80185, Note_on_c, 7, 55, 0
10, 80284, Note_on_c, 7, 60, 75
10, 80286, Note_on_c, 7, 55, 66
10, 80291, Note_on_c, 7, 65, 71
10, 80522, Note_on_c, 7, 55, 0
10, 80527, Note_on_c, 7, 65, 0
10, 80533, Note_on_c, 7, 60, 0
10, 80648, Note_on_c, 7, 67, 122
10, 80649, Note_on_c, 7, 63, 104
10, 80710, Note_on_c, 7, 67, 0
10, 80712, Note_on_c, 7, 63, 0
10, 80714, Note_on_c, 7, 65, 104
10, 80716, Note_on_c, 7, 69, 113
10, 80729, Note_on_c, 7, 65, 0
10, 80734, Note_on_c, 7, 69, 0
10, 81311, Note_on_c, 7, 60, 117
10, 81312, Note_on_c, 7, 62, 117
10, 81313, Note_on_c, 7, 56, 83
10, 81418, Note_on_c, 7, 62, 0
10, 81420, Note_on_c, 7, 56, 0
10, 81420, Note_on_c, 7, 60, 0
10, 81431, Note_on_c, 7, 60, 101
10, 81432, Note_on_c, 7, 62, 108
10, 81432, Note_on_c, 7, 56, 76
10, 81450, Note_on_c, 7, 60, 0
10, 81451, Note_on_c, 7, 62, 0
10, 81455, Note_on_c, 7, 56, 0
10, 81842, Note_on_c, 7, 55, 73
10, 81911, Note_on_c, 7, 55, 0
10, 81921, Note_on_c, 7, 57, 75
10, 81940, Note_on_c, 7, 57, 0
10, 81968, Note_on_c, 7, 62, 91
10, 81983, Note_on_c, 7, 62, 0
10, 82079, Note_on_c, 7, 65, 91
10, 82083, Note_on_c, 7, 62, 66
10, 82086, Note_on_c, 7, 57, 68
10, 82099, Note_on_c, 7, 65, 0
10, 82100, Note_on_c, 7, 62, 0
10, 82107, Note_on_c, 7, 57, 0
10, 82206, Note_on_c, 7, 55, 57
10, 82207, Note_on_c, 7, 65, 81
10, 82208, Note_on_c, 7, 60, 66
10, 82426, Note_on_c, 7, 55, 0
10, 82427, Note_on_c, 7, 60, 0
10, 82433, Note_on_c, 7, 65, 0
10, 82557, Note_on_c, 7, 67, 97
10, 82560, Note_on_c, 7, 71, 113
10, 82622, Note_on_c, 7, 71, 0
10, 82634, Note_on_c, 7, 69, 97
10, 82635, Note_on_c, 7, 72, 94
10, 82637, Note_on_c, 7, 71, 67
10, 82639, Note_on_c, 7, 67, 0
10, 82643, Note_on_c, 7, 71, 0
10, 82655, Note_on_c, 7, 69, 0
10, 82659, Note_on_c, 7, 72, 0
10, 82934, Note_on_c, 7, 71, 101
10, 82938, Note_on_c, 7, 67, 71
10, 82973, Note_on_c, 7, 71, 0
10, 82975, Note_on_c, 7, 72, 73
10, 82982, Note_on_c, 7, 67, 0
10, 82983, Note_on_c, 7, 69, 83
10, 83004, Note_on_c, 7, 72, 0
10, 83012, Note_on_c, 7, 69, 0
10, 83022, Note_on_c, 7, 67, 79
10, 83023, Note_on_c, 7, 71, 86
10, 83051, Note_on_c, 7, 67, 0
10, 83052, Note_on_c, 7, 71, 0
10, 83103, Note_on_c, 7, 65, 70
10, 83103, Note_on_c, 7, 69, 91
10, 83127, Note_on_c, 7, 69, 0
10, 83128, Note_on_c, 7, 71, 67
10, 83141, Note_on_c, 7, 65, 0
10, 83147, Note_on_c, 7, 67, 60
10, 83162, Note_on_c, 7, 71, 0
10, 83170, Note_on_c, 7, 69, 108
10, 83177, Note_on_c, 7, 65, 91
10, 83181, Note_on_c, 7, 67, 0
10, 83215, Note_on_c, 7, 65, 0
10, 83215, Note_on_c, 7, 69, 0
10, 83288, Note_on_c, 7, 63, 95
10, 83289, Note_on_c, 7, 67, 104
10, 83349, Note_on_c, 7, 63, 0
10, 83353, Note_on_c, 7, 67, 0
10, 83356, Note_on_c, 7, 65, 91
10, 83362, Note_on_c, 7, 69, 64
10, 83392, Note_on_c, 7, 69, 0
10, 83396, Note_on_c, 7, 65, 0
10, 83396, Note_on_c, 7, 67, 88
10, 83402, Note_on_c, 7, 63, 73
10, 83443, Note_on_c, 7, 67, 0
10, 83453, Note_on_c, 7, 63, 0
10, 83473, Note_on_c, 7, 65, 67
10, 83478, Note_on_c, 7, 69, 101
10, 83714, Note_on_c, 7, 65, 0
10, 83731, Note_on_c, 7, 69, 0
10, 84487, Note_on_c, 7, 67, 94
10, 84487, Note_on_c, 7, 63, 100
10, 84553, Note_on_c, 7, 63, 0
10, 84558, Note_on_c, 7, 65, 101
10, 84560, Note_on_c, 7, 67, 0
10, 84561, Note_on_c, 7, 69, 94
10, 84578, Note_on_c, 7, 69, 0
10, 84580, Note_on_c, 7, 65, 0
10, 85141, Note_on_c, 7, 56, 87
10, 85142, Note_on_c, 7, 60, 97
10, 85143, Note_on_c, 7, 62, 104
10, 85176, Note_on_c, 7, 56, 0
10, 85186, Note_on_c, 7, 62, 0
10, 85188, Note_on_c, 7, 60, 0
10, 85191, Note_on_c, 7, 56, 71
10, 85197, Note_on_c, 7, 60, 50
10, 85253, Note_on_c, 7, 60, 0
10, 85260, Note_on_c, 7, 56, 0
10, 85272, Note_on_c, 7, 60, 88
10, 85273, Note_on_c, 7, 62, 101
10, 85278, Note_on_c, 7, 56, 73
10, 85304, Note_on_c, 7, 62, 0
10, 85304, Note_on_c, 7, 60, 0
10, 85306, Note_on_c, 7, 56, 0
10, 85673, Note_on_c, 7, 55, 64
10, 85682, Note_on_c, 7, 57, 73
10, 85697, Note_on_c, 7, 55, 0
10, 85757, Note_on_c, 7, 57, 0
10, 85765, Note_on_c, 7, 60, 71
10, 85796, Note_on_c, 7, 60, 0
10, 85808, Note_on_c, 7, 62, 77
10, 85842, Note_on_c, 7, 62, 0
10, 85921, Note_on_c, 7, 65, 71
10, 85922, Note_on_c, 7, 60, 71
10, 85923, Note_on_c, 7, 57, 68
10, 85946, Note_on_c, 7, 60, 0
10, 85953, Note_on_c, 7, 57, 0
10, 85953, Note_on_c, 7, 65, 0
10, 86039, Note_on_c, 7, 55, 68
10, 86041, Note_on_c, 7, 60, 64
10, 86042, Note_on_c, 7, 65, 73
10, 86257, Note_on_c, 7, 60, 0
10, 86268, Note_on_c, 7, 55, 0
10, 86273, Note_on_c, 7, 65, 0
10, 86403, Note_on_c, 7, 67, 104
10, 86403, Note_on_c, 7, 71, 117
10, 86469, Note_on_c, 7, 71, 0
10, 86475, Note_on_c, 7, 67, 0
10, 86475, Note_on_c, 7, 69, 83
10, 86477, Note_on_c, 7, 72, 86
10, 86497, Note_on_c, 7, 69, 0
10, 86499, Note_on_c, 7, 72, 0
10, 86777, Note_on_c, 7, 67, 88
10, 86779, Note_on_c, 7, 71, 101
10, 86807, Note_on_c, 7, 72, 61
10, 86810, Note_on_c, 7, 67, 0
10, 86814, Note_on_c, 7, 71, 0
10, 86843, Note_on_c, 7, 72, 0
10, 86858, Note_on_c, 7, 69, 73
10, 86862, Note_on_c, 7, 71, 97
10, 86862, Note_on_c, 7, 67, 94
10, 86868, Note_on_c, 7, 69, 0
10, 86886, Note_on_c, 7, 71, 0
10, 86896, Note_on_c, 7, 67, 0
10, 86947, Note_on_c, 7, 69, 104
10, 86948, Note_on_c, 7, 65, 83
10, 86974, Note_on_c, 7, 69, 0
10, 86978, Note_on_c, 7, 71, 79
10, 86983, Note_on_c, 7, 65, 0
10, 86995, Note_on_c, 7, 67, 63
10, 87004, Note_on_c, 7, 71, 0
10, 87012, Note_on_c, 7, 67, 0
10, 87016, Note_on_c, 7, 69, 81
10, 87020, Note_on_c, 7, 65, 94
10, 87051, Note_on_c, 7, 69, 0
10, 87054, Note_on_c, 7, 65, 0
10, 87121, Note_on_c, 7, 63, 76
10, 87124, Note_on_c, 7, 67, 94
10, 87185, Note_on_c, 7, 63, 0
10, 87190, Note_on_c, 7, 67, 0
10, 87198, Note_on_c, 7, 65, 79
10, 87200, Note_on_c, 7, 69, 68
10, 87235, Note_on_c, 7, 65, 0
10, 87238, Note_on_c, 7, 69, 0
10, 87240, Note_on_c, 7, 67, 88
10, 87245, Note_on_c, 7, 63, 80
10, 87284, Note_on_c, 7, 63, 0
10, 87284, Note_on_c, 7, 67, 0
10, 87323, Note_on_c, 7, 65, 79
10, 87324, Note_on_c, 7, 69, 91
10, 87545, Note_on_c, 7, 69, 0
10, 87546, Note_on_c, 7, 65, 0
10, 87851, Note_on_c, 7, 55, 86
10, 87852, Note_on_c, 7, 60, 83
10, 87855, Note_on_c, 7, 65, 71
10, 87868, Note_on_c, 7, 60, 0
10, 87871, Note_on_c, 7, 65, 0
10, 87872, Note_on_c, 7, 55, 0
10, 87975, Note_on_c, 7, 60, 79
10, 87976, Note_on_c, 7, 55, 64
10, 87976, Note_on_c, 7, 65, 86
10, 88205, Note_on_c, 7, 55, 0
10, 88214, Note_on_c, 7, 60, 0
10, 88230, Note_on_c, 7, 65, 0
10, 88327, Note_on_c, 7, 67, 94
10, 88327, Note_on_c, 7, 63, 100
10, 88393, Note_on_c, 7, 63, 0
10, 88398, Note_on_c, 7, 65, 101
10, 88400, Note_on_c, 7, 67, 0
10, 88401, Note_on_c, 7, 69, 94
10, 88418, Note_on_c, 7, 69, 0
10, 88420, Note_on_c, 7, 65, 0
10, 88981, Note_on_c, 7, 56, 87
10, 88982, Note_on_c, 7, 60, 97
10, 88983, Note_on_c, 7, 62, 104
10, 89016, Note_on_c, 7, 56, 0
10, 89026, Note_on_c, 7, 62, 0
10, 89028, Note_on_c, 7, 60, 0
10, 89031, Note_on_c, 7, 56, 71
10, 89037, Note_on_c, 7, 60, 50
10, 89093, Note_on_c, 7, 60, 0
10, 89100, Note_on_c, 7, 56, 0
10, 89112, Note_on_c, 7, 60, 88
10, 89113, Note_on_c, 7, 62, 101
10, 89118, Note_on_c, 7, 56, 73
10, 89144, Note_on_c, 7, 62, 0
10, 89144, Note_on_c, 7, 60, 0
10, 89146, Note_on_c, 7, 56, 0
10, 89513, Note_on_c, 7, 55, 64
10, 89522, Note_on_c, 7, 57, 73
10, 89537, Note_on_c, 7, 55, 0
10, 89597, Note_on_c, 7, 57, 0
10, 89605, Note_on_c, 7, 60, 71
10, 89636, Note_on_c, 7, 60, 0
10, 89648, Note_on_c, 7, 62, 77
10, 89682, Note_on_c, 7, 62, 0
10, 89761, Note_on_c, 7, 65, 71
10, 89762, Note_on_c, 7, 60, 71
10, 89763, Note_on_c, 7, 57, 68
10, 89786, Note_on_c, 7, 60, 0
10, 89793, Note_on_c, 7, 57, 0
10, 89793, Note_on_c, 7, 65, 0
10, 89879, Note_on_c, 7, 55, 68
10, 89881, Note_on_c, 7, 60, 64
10, 89882, Note_on_c, 7, 65, 73
10, 90097, Note_on_c, 7, 60, 0
10, 90108, Note_on_c, 7, 55, 0
10, 90113, Note_on_c, 7, 65, 0
10, 90243, Note_on_c, 7, 67, 104
10, 90243, Note_on_c, 7, 71, 117
10, 90309, Note_on_c, 7, 71, 0
10, 90315, Note_on_c, 7, 67, 0
10, 90315, Note_on_c, 7, 69, 83
10, 90317, Note_on_c, 7, 72, 86
10, 90337, Note_on_c, 7, 69, 0
10, 90339, Note_on_c, 7, 72, 0
10, 90617, Note_on_c, 7, 67, 88
10, 90619, Note_on_c, 7, 71, 101
10, 90647, Note_on_c, 7, 72, 61
10, 90650, Note_on_c, 7, 67, 0
10, 90654, Note_on_c, 7, 71, 0
10, 90683, Note_on_c, 7, 72, 0
10, 90698, Note_on_c, 7, 69, 73
10, 90702, Note_on_c, 7, 71, 73
10, 90702, Note_on_c, 7, 67, 73
10, 90708, Note_on_c, 7, 69, 0
10, 90726, Note_on_c, 7, 71, 0
10, 90736, Note_on_c, 7, 67, 0
10, 90787, Note_on_c, 7, 69, 73
10, 90788, Note_on_c, 7, 65, 73
10, 90814, Note_on_c, 7, 69, 0
10, 90818, Note_on_c, 7, 71, 73
10, 90823, Note_on_c, 7, 65, 0
10, 90835, Note_on_c, 7, 67, 73
10, 90844, Note_on_c, 7, 71, 0
10, 90852, Note_on_c, 7, 67, 0
10, 90856, Note_on_c, 7, 69, 73
10, 90860, Note_on_c, 7, 65, 73
10, 90891, Note_on_c, 7, 69, 0
10, 90894, Note_on_c, 7, 65, 0
10, 90961, Note_on_c, 7, 63, 68
10, 90964, Note_on_c, 7, 67, 68
10, 91025, Note_on_c, 7, 63, 0
10, 91030, Note_on_c, 7, 67, 0
10, 91038, Note_on_c, 7, 65, 68
10, 91040, Note_on_c, 7, 69, 68
10, 91075, Note_on_c, 7, 65, 0
10, 91078, Note_on_c, 7, 69, 0
10, 91080, Note_on_c, 7, 67, 68
10, 91085, Note_on_c, 7, 63, 68
10, 91124, Note_on_c, 7, 63, 0
10, 91124, Note_on_c, 7, 67, 0
10, 91163, Note_on_c, 7, 65, 68
10, 91164, Note_on_c, 7, 69, 68
10, 91385, Note_on_c, 7, 69, 0
10, 91386, Note_on_c, 7, 65, 0
10, 91691, Note_on_c, 7, 55, 50
10, 91692, Note_on_c, 7, 60, 50
10, 91695, Note_on_c, 7, 65, 50
10, 91708, Note_on_c, 7, 60, 0
10, 91711, Note_on_c, 7, 65, 0
10, 91712, Note_on_c, 7, 55, 0
10, 91815, Note_on_c, 7, 60, 50
10, 91816, Note_on_c, 7, 55, 50
10, 91816, Note_on_c, 7, 65, 50
10, 92045, Note_on_c, 7, 55, 0
10, 92054, Note_on_c, 7, 60, 0
10, 92070, Note_on_c, 7, 65, 0
10, 92167, Note_on_c, 7, 67, 47
10, 92167, Note_on_c, 7, 63, 47
10, 92233, Note_on_c, 7, 63, 0
10, 92238, Note_on_c, 7, 65, 47
10, 92240, Note_on_c, 7, 67, 0
10, 92241, Note_on_c, 7, 69, 47
10, 92258, Note_on_c, 7, 69, 0
10, 92260, Note_on_c, 7, 65, 0
10, 92821, Note_on_c, 7, 56, 38
10, 92822, Note_on_c, 7, 60, 38
10, 92823, Note_on_c, 7, 62, 38
10, 92856, Note_on_c, 7, 56, 0
10, 92866, Note_on_c, 7, 62, 0
10, 92868, Note_on_c, 7, 60, 0
10, 92871, Note_on_c, 7, 56, 24
10, 92877, Note_on_c, 7, 60, 24
10, 92933, Note_on_c, 7, 60, 0
10, 92940, Note_on_c, 7, 56, 0
10, 92952, Note_on_c, 7, 60, 23
10, 92953, Note_on_c, 7, 62, 23
10, 92958, Note_on_c, 7, 56, 23
10, 92984, Note_on_c, 7, 62, 0
10, 92984, Note_on_c, 7, 60, 0
10, 92986, Note_on_c, 7, 56, 0
10, 93353, Note_on_c, 7, 55, 24
10, 93362, Note_on_c, 7, 57, 24
10, 93377, Note_on_c, 7, 55, 0
10, 93437, Note_on_c, 7, 57, 0
10, 93445, Note_on_c, 7, 60, 25
10, 93476, Note_on_c, 7, 60, 0
10, 93488, Note_on_c, 7, 62, 25
10, 93522, Note_on_c, 7, 62, 0
10, 93601, Note_on_c, 7, 65, 22
10, 93602, Note_on_c, 7, 60, 22
10, 93603, Note_on_c, 7, 57, 22
10, 93626, Note_on_c, 7, 60, 0
10, 93633, Note_on_c, 7, 57, 0
10, 93633, Note_on_c, 7, 65, 0
10, 93719, Note_on_c, 7, 55, 22
10, 93721, Note_on_c, 7, 60, 22
10, 93722, Note_on_c, 7, 65, 22
10, 93937, Note_on_c, 7, 60, 0
10, 93948, Note_on_c, 7, 55, 0
10, 93953, Note_on_c, 7, 65, 0
10, 94083, Note_on_c, 7, 67, 24
10, 94083, Note_on_c, 7, 71, 24
10, 94149, Note_on_c, 7, 71, 0
10, 94155, Note_on_c, 7, 67, 0
10, 94155, Note_on_c, 7, 69, 23
10, 94157, Note_on_c, 7, 72, 23
10, 94177, Note_on_c, 7, 69, 0
10, 94179, Note_on_c, 7, 72, 0
10, 94457, Note_on_c, 7, 67, 13
10, 94459, Note_on_c, 7, 71, 13
10, 94487, Note_on_c, 7, 72, 13
10, 94490, Note_on_c, 7, 67, 0
10, 94494, Note_on_c, 7, 71, 0
10, 94523, Note_on_c, 7, 72, 0
10, 94538, Note_on_c, 7, 69, 11
10, 94542, Note_on_c, 7, 71, 11
10, 94542, Note_on_c, 7, 67, 11
10, 94548, Note_on_c, 7, 69, 0
10, 94566, Note_on_c, 7, 71, 0
10, 94576, Note_on_c, 7, 67, 0
10, 94627, Note_on_c, 7, 69, 11
10, 94628, Note_on_c, 7, 65, 11
10, 94654, Note_on_c, 7, 69, 0
10, 94658, Note_on_c, 7, 71, 10
10, 94663, Note_on_c, 7, 65, 0
10, 94675, Note_on_c, 7, 67, 9
10, 94684, Note_on_c, 7, 71, 0
10, 94692, Note_on_c, 7, 67, 0
10, 94696, Note_on_c, 7, 69, 9
10, 94700, Note_on_c, 7, 65, 9
10, 94731, Note_on_c, 7, 69, 0
10, 94734, Note_on_c, 7, 65, 0
10, 94801, Note_on_c, 7, 63, 7
10, 94804, Note_on_c, 7, 67, 7
10, 94865, Note_on_c, 7, 63, 0
10, 94870, Note_on_c, 7, 67, 0
10, 94878, Note_on_c, 7, 65, 5
10, 94880, Note_on_c, 7, 69, 5
10, 94915, Note_on_c, 7, 65, 0
10, 94918, Note_on_c, 7, 69, 0
10, 94920, Note_on_c, 7, 67, 4
10, 94925, Note_on_c, 7, 63, 4
10, 94964, Note_on_c, 7, 63, 0
10, 94964, Note_on_c, 7, 67, 0
10, 95003, Note_on_c, 7, 65, 3
10, 95004, Note_on_c, 7, 69, 3
10, 95225, Note_on_c, 7, 69, 0
10, 95226, Note_on_c, 7, 65, 0
10, 95226, End_track
11, 0, Start_track
11, 0, MIDI_port, 0
11, 0, End_track
12, 0, Start_track
12, 0, MIDI_port, 0
12, 0, Title_t, "Sequenced by"
12, 0, Control_c, 0, 121, 0
12, 0, Control_c, 1, 121, 0
12, 0, Control_c, 2, 121, 0
12, 0, Control_c, 3, 121, 0
12, 0, Control_c, 4, 121, 0
12, 0, Control_c, 5, 121, 0
12, 0, Control_c, 6, 121, 0
12, 0, Control_c, 7, 121, 0
12, 0, Control_c, 8, 121, 0
12, 0, Control_c, 9, 121, 0
12, 0, Control_c, 10, 121, 0
12, 0, Control_c, 11, 121, 0
12, 0, Control_c, 12, 121, 0
12, 0, Control_c, 13, 121, 0
12, 0, Control_c, 14, 121, 0
12, 0, Control_c, 15, 121, 0
12, 96000, Control_c, 0, 121, 0
12, 96000, Control_c, 1, 121, 0
12, 96000, Control_c, 2, 121, 0
12, 96000, Control_c, 3, 121, 0
12, 96000, Control_c, 4, 121, 0
12, 96000, Control_c, 5, 121, 0
12, 96000, Control_c, 6, 121, 0
12, 96000, Control_c, 7, 121, 0
12, 96000, Control_c, 8, 121, 0
12, 96000, Control_c, 9, 121, 0
12, 96000, Control_c, 10, 121, 0
12, 96000, Control_c, 11, 121, 0
12, 96000, Control_c, 12, 121, 0
12, 96000, Control_c, 13, 121, 0
12, 96000, Control_c, 14, 121, 0
12, 96000, Control_c, 15, 121, 0
12, 96000, End_track
13, 0, Start_track
13, 0, MIDI_port, 0
13, 0, Title_t, "Stein Rimehaug"
13, 0, End_track
14, 0, Start_track
14, 0, MIDI_port, 0
14, 0, Title_t, "Waystein@aol.com"
14, 0, End_track
15, 0, Start_track
15, 0, MIDI_port, 0
15, 0, End_track
0, 0, End_of_file
