0, 0, Header, 1, 16, 384
1, 0, Start_track
1, 0, Time_signature, 4, 2, 96, 8
1, 0, Sequencer_specific, 3, 0, 0, 65
1, 0, Sequencer_specific, 5, 0, 0, 119, 14, 0
1, 0, Tempo, 500000
1, 0, End_track
2, 0, Start_track
2, 0, Title_t, "Drums"
2, 0, Control_c, 9, 0, 0
2, 0, Program_c, 9, 0
2, 0, Control_c, 9, 7, 120
2, 0, Control_c, 9, 10, 54
2, 0, Key_signature, -1, "major"
2, 0, Program_c, 9, 0
2, 0, Note_on_c, 9, 35, 90
2, 0, Note_on_c, 9, 42, 90
2, 96, Note_off_c, 9, 35, 0
2, 96, Note_off_c, 9, 42, 0
2, 192, Note_on_c, 9, 42, 70
2, 288, Note_off_c, 9, 42, 0
2, 384, Note_on_c, 9, 42, 100
2, 480, Note_off_c, 9, 42, 0
2, 576, Note_on_c, 9, 35, 80
2, 576, Note_on_c, 9, 42, 70
2, 672, Note_off_c, 9, 35, 0
2, 672, Note_off_c, 9, 42, 0
2, 768, Note_on_c, 9, 35, 100
2, 768, Note_on_c, 9, 42, 90
2, 864, Note_off_c, 9, 35, 0
2, 864, Note_off_c, 9, 42, 0
2, 960, Note_on_c, 9, 42, 70
2, 1056, Note_off_c, 9, 42, 0
2, 1152, Note_on_c, 9, 42, 100
2, 1248, Note_off_c, 9, 42, 0
2, 1344, Note_on_c, 9, 35, 70
2, 1344, Note_on_c, 9, 42, 70
2, 1440, Note_off_c, 9, 35, 0
2, 1440, Note_off_c, 9, 42, 0
2, 1536, Note_on_c, 9, 35, 90
2, 1536, Note_on_c, 9, 42, 90
2, 1632, Note_off_c, 9, 35, 0
2, 1632, Note_off_c, 9, 42, 0
2, 1728, Note_on_c, 9, 42, 70
2, 1824, Note_off_c, 9, 42, 0
2, 1920, Note_on_c, 9, 38, 100
2, 1920, Note_on_c, 9, 42, 100
2, 2016, Note_off_c, 9, 38, 0
2, 2016, Note_off_c, 9, 42, 0
2, 2112, Note_on_c, 9, 35, 80
2, 2112, Note_on_c, 9, 42, 100
2, 2208, Note_off_c, 9, 35, 0
2, 2208, Note_off_c, 9, 42, 0
2, 2304, Note_on_c, 9, 35, 100
2, 2304, Note_on_c, 9, 42, 90
2, 2400, Note_off_c, 9, 35, 0
2, 2400, Note_off_c, 9, 42, 0
2, 2496, Note_on_c, 9, 35, 90
2, 2496, Note_on_c, 9, 42, 70
2, 2592, Note_off_c, 9, 35, 0
2, 2592, Note_off_c, 9, 42, 0
2, 2688, Note_on_c, 9, 38, 100
2, 2688, Note_on_c, 9, 42, 100
2, 2784, Note_off_c, 9, 38, 0
2, 2784, Note_off_c, 9, 42, 0
2, 2880, Note_on_c, 9, 35, 70
2, 2880, Note_on_c, 9, 42, 70
2, 2976, Note_off_c, 9, 35, 0
2, 2976, Note_off_c, 9, 42, 0
2, 3072, Note_on_c, 9, 35, 90
2, 3072, Note_on_c, 9, 42, 90
2, 3168, Note_off_c, 9, 35, 0
2, 3168, Note_off_c, 9, 42, 0
2, 3168, Note_on_c, 9, 42, 70
2, 3264, Note_off_c, 9, 42, 0
2, 3264, Note_on_c, 9, 42, 70
2, 3360, Note_off_c, 9, 42, 0
2, 3456, Note_on_c, 9, 38, 100
2, 3456, Note_on_c, 9, 42, 100
2, 3552, Note_off_c, 9, 38, 0
2, 3552, Note_off_c, 9, 42, 0
2, 3648, Note_on_c, 9, 35, 80
2, 3648, Note_on_c, 9, 42, 70
2, 3744, Note_off_c, 9, 35, 0
2, 3744, Note_off_c, 9, 42, 0
2, 3840, Note_on_c, 9, 35, 100
2, 3840, Note_on_c, 9, 42, 90
2, 3936, Note_off_c, 9, 35, 0
2, 3936, Note_off_c, 9, 42, 0
2, 4032, Note_on_c, 9, 42, 70
2, 4128, Note_off_c, 9, 42, 0
2, 4224, Note_on_c, 9, 38, 100
2, 4224, Note_on_c, 9, 42, 100
2, 4320, Note_off_c, 9, 38, 0
2, 4320, Note_off_c, 9, 42, 0
2, 4416, Note_on_c, 9, 35, 70
2, 4416, Note_on_c, 9, 42, 70
2, 4512, Note_off_c, 9, 35, 0
2, 4512, Note_off_c, 9, 42, 0
2, 4512, Note_on_c, 9, 46, 70
2, 4608, Note_off_c, 9, 46, 0
2, 4608, Note_on_c, 9, 35, 90
2, 4608, Note_on_c, 9, 42, 90
2, 4704, Note_off_c, 9, 35, 0
2, 4704, Note_off_c, 9, 42, 0
2, 4800, Note_on_c, 9, 42, 70
2, 4896, Note_off_c, 9, 42, 0
2, 4992, Note_on_c, 9, 38, 100
2, 4992, Note_on_c, 9, 42, 100
2, 5088, Note_off_c, 9, 38, 0
2, 5088, Note_off_c, 9, 42, 0
2, 5184, Note_on_c, 9, 35, 80
2, 5184, Note_on_c, 9, 42, 100
2, 5280, Note_off_c, 9, 35, 0
2, 5280, Note_off_c, 9, 42, 0
2, 5376, Note_on_c, 9, 35, 100
2, 5376, Note_on_c, 9, 42, 90
2, 5472, Note_off_c, 9, 35, 0
2, 5472, Note_off_c, 9, 42, 0
2, 5568, Note_on_c, 9, 35, 90
2, 5568, Note_on_c, 9, 42, 70
2, 5664, Note_off_c, 9, 35, 0
2, 5664, Note_off_c, 9, 42, 0
2, 5760, Note_on_c, 9, 38, 100
2, 5760, Note_on_c, 9, 42, 100
2, 5856, Note_off_c, 9, 38, 0
2, 5856, Note_off_c, 9, 42, 0
2, 5952, Note_on_c, 9, 35, 70
2, 5952, Note_on_c, 9, 42, 70
2, 6048, Note_off_c, 9, 35, 0
2, 6048, Note_off_c, 9, 42, 0
2, 6144, Note_on_c, 9, 35, 90
2, 6144, Note_on_c, 9, 42, 90
2, 6240, Note_off_c, 9, 35, 0
2, 6240, Note_off_c, 9, 42, 0
2, 6240, Note_on_c, 9, 42, 70
2, 6336, Note_off_c, 9, 42, 0
2, 6336, Note_on_c, 9, 42, 70
2, 6432, Note_off_c, 9, 42, 0
2, 6528, Note_on_c, 9, 38, 100
2, 6528, Note_on_c, 9, 42, 100
2, 6624, Note_off_c, 9, 38, 0
2, 6624, Note_off_c, 9, 42, 0
2, 6720, Note_on_c, 9, 35, 80
2, 6720, Note_on_c, 9, 42, 70
2, 6816, Note_off_c, 9, 35, 0
2, 6816, Note_off_c, 9, 42, 0
2, 6912, Note_on_c, 9, 35, 100
2, 6912, Note_on_c, 9, 42, 90
2, 7008, Note_off_c, 9, 35, 0
2, 7008, Note_off_c, 9, 42, 0
2, 7104, Note_on_c, 9, 42, 70
2, 7200, Note_off_c, 9, 42, 0
2, 7296, Note_on_c, 9, 38, 100
2, 7296, Note_on_c, 9, 42, 100
2, 7392, Note_off_c, 9, 38, 0
2, 7392, Note_off_c, 9, 42, 0
2, 7488, Note_on_c, 9, 35, 70
2, 7488, Note_on_c, 9, 42, 70
2, 7584, Note_off_c, 9, 35, 0
2, 7584, Note_off_c, 9, 42, 0
2, 7584, Note_on_c, 9, 46, 70
2, 7680, Note_off_c, 9, 46, 0
2, 7680, Note_on_c, 9, 35, 90
2, 7680, Note_on_c, 9, 42, 90
2, 7776, Note_off_c, 9, 35, 0
2, 7776, Note_off_c, 9, 42, 0
2, 7872, Note_on_c, 9, 42, 70
2, 7968, Note_off_c, 9, 42, 0
2, 8064, Note_on_c, 9, 38, 100
2, 8064, Note_on_c, 9, 42, 100
2, 8160, Note_off_c, 9, 38, 0
2, 8160, Note_off_c, 9, 42, 0
2, 8256, Note_on_c, 9, 35, 80
2, 8256, Note_on_c, 9, 42, 100
2, 8352, Note_off_c, 9, 35, 0
2, 8352, Note_off_c, 9, 42, 0
2, 8448, Note_on_c, 9, 35, 100
2, 8448, Note_on_c, 9, 42, 90
2, 8544, Note_off_c, 9, 35, 0
2, 8544, Note_off_c, 9, 42, 0
2, 8640, Note_on_c, 9, 35, 90
2, 8640, Note_on_c, 9, 42, 70
2, 8736, Note_off_c, 9, 35, 0
2, 8736, Note_off_c, 9, 42, 0
2, 8832, Note_on_c, 9, 38, 100
2, 8832, Note_on_c, 9, 42, 100
2, 8928, Note_off_c, 9, 38, 0
2, 8928, Note_off_c, 9, 42, 0
2, 9024, Note_on_c, 9, 35, 70
2, 9024, Note_on_c, 9, 42, 70
2, 9120, Note_off_c, 9, 35, 0
2, 9120, Note_off_c, 9, 42, 0
2, 9216, Note_on_c, 9, 35, 90
2, 9216, Note_on_c, 9, 42, 90
2, 9312, Note_off_c, 9, 35, 0
2, 9312, Note_off_c, 9, 42, 0
2, 9312, Note_on_c, 9, 42, 70
2, 9408, Note_off_c, 9, 42, 0
2, 9408, Note_on_c, 9, 42, 70
2, 9504, Note_off_c, 9, 42, 0
2, 9600, Note_on_c, 9, 38, 100
2, 9600, Note_on_c, 9, 42, 100
2, 9696, Note_off_c, 9, 38, 0
2, 9696, Note_off_c, 9, 42, 0
2, 9792, Note_on_c, 9, 35, 80
2, 9792, Note_on_c, 9, 42, 70
2, 9888, Note_off_c, 9, 35, 0
2, 9888, Note_off_c, 9, 42, 0
2, 9984, Note_on_c, 9, 35, 100
2, 9984, Note_on_c, 9, 42, 90
2, 10080, Note_off_c, 9, 35, 0
2, 10080, Note_off_c, 9, 42, 0
2, 10176, Note_on_c, 9, 42, 70
2, 10272, Note_off_c, 9, 42, 0
2, 10368, Note_on_c, 9, 38, 100
2, 10368, Note_on_c, 9, 42, 100
2, 10464, Note_off_c, 9, 38, 0
2, 10464, Note_off_c, 9, 42, 0
2, 10560, Note_on_c, 9, 35, 70
2, 10560, Note_on_c, 9, 42, 70
2, 10656, Note_off_c, 9, 35, 0
2, 10656, Note_off_c, 9, 42, 0
2, 10656, Note_on_c, 9, 46, 70
2, 10752, Note_off_c, 9, 46, 0
2, 10752, Note_on_c, 9, 35, 90
2, 10752, Note_on_c, 9, 42, 90
2, 10848, Note_off_c, 9, 35, 0
2, 10848, Note_off_c, 9, 42, 0
2, 10944, Note_on_c, 9, 42, 70
2, 11040, Note_off_c, 9, 42, 0
2, 11136, Note_on_c, 9, 38, 100
2, 11136, Note_on_c, 9, 42, 100
2, 11232, Note_off_c, 9, 38, 0
2, 11232, Note_off_c, 9, 42, 0
2, 11328, Note_on_c, 9, 35, 80
2, 11328, Note_on_c, 9, 42, 100
2, 11424, Note_off_c, 9, 35, 0
2, 11424, Note_off_c, 9, 42, 0
2, 11520, Note_on_c, 9, 35, 100
2, 11520, Note_on_c, 9, 42, 90
2, 11616, Note_off_c, 9, 35, 0
2, 11616, Note_off_c, 9, 42, 0
2, 11712, Note_on_c, 9, 35, 90
2, 11712, Note_on_c, 9, 42, 70
2, 11808, Note_off_c, 9, 42, 0
2, 11864, Note_off_c, 9, 35, 0
2, 11904, Note_on_c, 9, 49, 90
2, 11904, Note_on_c, 9, 38, 100
2, 11904, Note_on_c, 9, 42, 100
2, 12000, Note_off_c, 9, 42, 0
2, 12056, Note_off_c, 9, 49, 0
2, 12056, Note_off_c, 9, 38, 0
2, 12096, Note_on_c, 9, 38, 100
2, 12096, Note_on_c, 9, 35, 70
2, 12096, Note_on_c, 9, 42, 70
2, 12192, Note_off_c, 9, 35, 0
2, 12192, Note_off_c, 9, 42, 0
2, 12248, Note_off_c, 9, 38, 0
2, 12288, Note_on_c, 9, 35, 90
2, 12288, Note_on_c, 9, 42, 90
2, 12384, Note_off_c, 9, 35, 0
2, 12384, Note_off_c, 9, 42, 0
2, 12384, Note_on_c, 9, 42, 70
2, 12480, Note_off_c, 9, 42, 0
2, 12480, Note_on_c, 9, 42, 70
2, 12576, Note_off_c, 9, 42, 0
2, 12672, Note_on_c, 9, 38, 100
2, 12672, Note_on_c, 9, 42, 100
2, 12768, Note_off_c, 9, 38, 0
2, 12768, Note_off_c, 9, 42, 0
2, 12864, Note_on_c, 9, 35, 80
2, 12864, Note_on_c, 9, 42, 70
2, 12960, Note_off_c, 9, 35, 0
2, 12960, Note_off_c, 9, 42, 0
2, 13056, Note_on_c, 9, 35, 100
2, 13056, Note_on_c, 9, 42, 90
2, 13152, Note_off_c, 9, 35, 0
2, 13152, Note_off_c, 9, 42, 0
2, 13248, Note_on_c, 9, 42, 70
2, 13344, Note_off_c, 9, 42, 0
2, 13440, Note_on_c, 9, 38, 100
2, 13440, Note_on_c, 9, 42, 100
2, 13536, Note_off_c, 9, 42, 0
2, 13592, Note_off_c, 9, 38, 0
2, 13632, Note_on_c, 9, 38, 100
2, 13632, Note_on_c, 9, 35, 70
2, 13632, Note_on_c, 9, 42, 70
2, 13708, Note_off_c, 9, 38, 0
2, 13728, Note_off_c, 9, 35, 0
2, 13728, Note_off_c, 9, 42, 0
2, 13728, Note_on_c, 9, 46, 70
2, 13808, Note_on_c, 9, 49, 66
2, 13808, Note_on_c, 9, 42, 83
2, 13812, Note_on_c, 9, 42, 103
2, 13824, Note_off_c, 9, 46, 0
2, 13824, Note_on_c, 9, 36, 122
2, 13872, Note_off_c, 9, 42, 0
2, 13872, Note_off_c, 9, 49, 0
2, 13876, Note_off_c, 9, 42, 0
2, 13888, Note_off_c, 9, 36, 0
2, 14020, Note_on_c, 9, 42, 59
2, 14020, Note_on_c, 9, 36, 110
2, 14084, Note_off_c, 9, 42, 0
2, 14084, Note_off_c, 9, 36, 0
2, 14192, Note_on_c, 9, 42, 87
2, 14208, Note_on_c, 9, 38, 92
2, 14256, Note_off_c, 9, 42, 0
2, 14272, Note_off_c, 9, 38, 0
2, 14384, Note_on_c, 9, 42, 71
2, 14448, Note_off_c, 9, 42, 0
2, 14596, Note_on_c, 9, 42, 97
2, 14596, Note_on_c, 9, 36, 127
2, 14660, Note_off_c, 9, 42, 0
2, 14660, Note_off_c, 9, 36, 0
2, 14772, Note_on_c, 9, 42, 65
2, 14836, Note_off_c, 9, 42, 0
2, 14984, Note_on_c, 9, 42, 85
2, 14984, Note_on_c, 9, 38, 94
2, 15048, Note_off_c, 9, 42, 0
2, 15048, Note_off_c, 9, 38, 0
2, 15152, Note_on_c, 9, 42, 60
2, 15216, Note_off_c, 9, 42, 0
2, 15364, Note_on_c, 9, 42, 77
2, 15364, Note_on_c, 9, 36, 110
2, 15428, Note_off_c, 9, 42, 0
2, 15428, Note_off_c, 9, 36, 0
2, 15552, Note_on_c, 9, 42, 70
2, 15552, Note_on_c, 9, 36, 98
2, 15616, Note_off_c, 9, 42, 0
2, 15616, Note_off_c, 9, 36, 0
2, 15752, Note_on_c, 9, 42, 89
2, 15752, Note_on_c, 9, 38, 103
2, 15816, Note_off_c, 9, 42, 0
2, 15816, Note_off_c, 9, 38, 0
2, 15920, Note_on_c, 9, 42, 61
2, 15984, Note_off_c, 9, 42, 0
2, 16124, Note_on_c, 9, 42, 104
2, 16128, Note_on_c, 9, 36, 117
2, 16188, Note_off_c, 9, 42, 0
2, 16192, Note_off_c, 9, 36, 0
2, 16316, Note_on_c, 9, 42, 64
2, 16380, Note_off_c, 9, 42, 0
2, 16512, Note_on_c, 9, 42, 81
2, 16512, Note_on_c, 9, 38, 81
2, 16576, Note_off_c, 9, 42, 0
2, 16576, Note_off_c, 9, 38, 0
2, 16688, Note_on_c, 9, 42, 63
2, 16752, Note_off_c, 9, 42, 0
2, 16904, Note_on_c, 9, 42, 93
2, 16904, Note_on_c, 9, 36, 120
2, 16968, Note_off_c, 9, 42, 0
2, 16968, Note_off_c, 9, 36, 0
2, 17088, Note_on_c, 9, 42, 77
2, 17092, Note_on_c, 9, 36, 99
2, 17152, Note_off_c, 9, 42, 0
2, 17156, Note_off_c, 9, 36, 0
2, 17264, Note_on_c, 9, 42, 83
2, 17280, Note_on_c, 9, 38, 101
2, 17328, Note_off_c, 9, 42, 0
2, 17344, Note_off_c, 9, 38, 0
2, 17460, Note_on_c, 9, 42, 74
2, 17524, Note_off_c, 9, 42, 0
2, 17648, Note_on_c, 9, 42, 78
2, 17672, Note_on_c, 9, 36, 111
2, 17712, Note_off_c, 9, 42, 0
2, 17736, Note_off_c, 9, 36, 0
2, 17864, Note_on_c, 9, 42, 59
2, 17928, Note_off_c, 9, 42, 0
2, 18032, Note_on_c, 9, 42, 100
2, 18036, Note_on_c, 9, 38, 85
2, 18096, Note_off_c, 9, 42, 0
2, 18100, Note_off_c, 9, 38, 0
2, 18232, Note_on_c, 9, 42, 61
2, 18296, Note_off_c, 9, 42, 0
2, 18428, Note_on_c, 9, 42, 96
2, 18428, Note_on_c, 9, 36, 115
2, 18492, Note_off_c, 9, 36, 0
2, 18492, Note_off_c, 9, 42, 0
2, 18624, Note_on_c, 9, 42, 62
2, 18624, Note_on_c, 9, 36, 118
2, 18688, Note_off_c, 9, 42, 0
2, 18688, Note_off_c, 9, 36, 0
2, 18824, Note_on_c, 9, 42, 88
2, 18824, Note_on_c, 9, 38, 106
2, 18888, Note_off_c, 9, 42, 0
2, 18888, Note_off_c, 9, 38, 0
2, 19008, Note_on_c, 9, 42, 76
2, 19072, Note_off_c, 9, 42, 0
2, 19208, Note_on_c, 9, 42, 79
2, 19208, Note_on_c, 9, 36, 126
2, 19272, Note_off_c, 9, 42, 0
2, 19272, Note_off_c, 9, 36, 0
2, 19384, Note_on_c, 9, 42, 78
2, 19448, Note_off_c, 9, 42, 0
2, 19584, Note_on_c, 9, 42, 102
2, 19592, Note_on_c, 9, 38, 87
2, 19648, Note_off_c, 9, 42, 0
2, 19656, Note_off_c, 9, 38, 0
2, 19768, Note_on_c, 9, 42, 75
2, 19832, Note_off_c, 9, 42, 0
2, 19968, Note_on_c, 9, 42, 90
2, 19968, Note_on_c, 9, 36, 108
2, 20032, Note_off_c, 9, 42, 0
2, 20032, Note_off_c, 9, 36, 0
2, 20152, Note_on_c, 9, 42, 63
2, 20164, Note_on_c, 9, 36, 107
2, 20216, Note_off_c, 9, 42, 0
2, 20228, Note_off_c, 9, 36, 0
2, 20336, Note_on_c, 9, 42, 92
2, 20336, Note_on_c, 9, 38, 93
2, 20400, Note_off_c, 9, 42, 0
2, 20400, Note_off_c, 9, 38, 0
2, 20532, Note_on_c, 9, 42, 61
2, 20596, Note_off_c, 9, 42, 0
2, 20724, Note_on_c, 9, 42, 83
2, 20736, Note_on_c, 9, 36, 125
2, 20788, Note_off_c, 9, 42, 0
2, 20800, Note_off_c, 9, 36, 0
2, 20936, Note_on_c, 9, 42, 62
2, 21000, Note_off_c, 9, 42, 0
2, 21124, Note_on_c, 9, 42, 91
2, 21124, Note_on_c, 9, 38, 77
2, 21188, Note_off_c, 9, 42, 0
2, 21188, Note_off_c, 9, 38, 0
2, 21312, Note_on_c, 9, 42, 65
2, 21376, Note_off_c, 9, 42, 0
2, 21496, Note_on_c, 9, 42, 86
2, 21496, Note_on_c, 9, 36, 114
2, 21560, Note_off_c, 9, 36, 0
2, 21560, Note_off_c, 9, 42, 0
2, 21680, Note_on_c, 9, 42, 75
2, 21680, Note_on_c, 9, 36, 116
2, 21744, Note_off_c, 9, 42, 0
2, 21744, Note_off_c, 9, 36, 0
2, 21892, Note_on_c, 9, 42, 87
2, 21892, Note_on_c, 9, 38, 106
2, 21956, Note_off_c, 9, 42, 0
2, 21956, Note_off_c, 9, 38, 0
2, 22088, Note_on_c, 9, 42, 63
2, 22152, Note_off_c, 9, 42, 0
2, 22256, Note_on_c, 9, 42, 88
2, 22256, Note_on_c, 9, 36, 121
2, 22320, Note_off_c, 9, 42, 0
2, 22320, Note_off_c, 9, 36, 0
2, 22448, Note_on_c, 9, 42, 77
2, 22512, Note_off_c, 9, 42, 0
2, 22664, Note_on_c, 9, 42, 80
2, 22664, Note_on_c, 9, 38, 103
2, 22728, Note_off_c, 9, 42, 0
2, 22728, Note_off_c, 9, 38, 0
2, 22844, Note_on_c, 9, 42, 68
2, 22908, Note_off_c, 9, 42, 0
2, 23032, Note_on_c, 9, 42, 84
2, 23032, Note_on_c, 9, 36, 119
2, 23096, Note_off_c, 9, 36, 0
2, 23096, Note_off_c, 9, 42, 0
2, 23240, Note_on_c, 9, 42, 59
2, 23240, Note_on_c, 9, 36, 122
2, 23304, Note_off_c, 9, 42, 0
2, 23304, Note_off_c, 9, 36, 0
2, 23428, Note_on_c, 9, 42, 85
2, 23428, Note_on_c, 9, 38, 86
2, 23492, Note_off_c, 9, 42, 0
2, 23492, Note_off_c, 9, 38, 0
2, 23616, Note_on_c, 9, 42, 60
2, 23680, Note_off_c, 9, 42, 0
2, 23792, Note_on_c, 9, 42, 99
2, 23800, Note_on_c, 9, 36, 117
2, 23856, Note_off_c, 9, 42, 0
2, 23864, Note_off_c, 9, 36, 0
2, 23984, Note_on_c, 9, 42, 77
2, 24048, Note_off_c, 9, 42, 0
2, 24192, Note_on_c, 9, 42, 83
2, 24192, Note_on_c, 9, 38, 91
2, 24256, Note_off_c, 9, 42, 0
2, 24256, Note_off_c, 9, 38, 0
2, 24388, Note_on_c, 9, 42, 65
2, 24452, Note_off_c, 9, 42, 0
2, 24576, Note_on_c, 9, 42, 99
2, 24576, Note_on_c, 9, 36, 118
2, 24640, Note_off_c, 9, 42, 0
2, 24640, Note_off_c, 9, 36, 0
2, 24752, Note_on_c, 9, 42, 68
2, 24776, Note_on_c, 9, 36, 99
2, 24816, Note_off_c, 9, 42, 0
2, 24840, Note_off_c, 9, 36, 0
2, 24948, Note_on_c, 9, 42, 87
2, 24956, Note_on_c, 9, 38, 114
2, 25012, Note_off_c, 9, 42, 0
2, 25020, Note_off_c, 9, 38, 0
2, 25152, Note_on_c, 9, 42, 72
2, 25216, Note_off_c, 9, 42, 0
2, 25344, Note_on_c, 9, 42, 82
2, 25344, Note_on_c, 9, 36, 118
2, 25408, Note_off_c, 9, 42, 0
2, 25408, Note_off_c, 9, 36, 0
2, 25544, Note_on_c, 9, 42, 74
2, 25608, Note_off_c, 9, 42, 0
2, 25712, Note_on_c, 9, 42, 77
2, 25736, Note_on_c, 9, 38, 86
2, 25776, Note_off_c, 9, 42, 0
2, 25800, Note_off_c, 9, 38, 0
2, 25904, Note_on_c, 9, 42, 61
2, 25968, Note_off_c, 9, 42, 0
2, 26100, Note_on_c, 9, 42, 103
2, 26108, Note_on_c, 9, 36, 127
2, 26164, Note_off_c, 9, 42, 0
2, 26172, Note_off_c, 9, 36, 0
2, 26304, Note_on_c, 9, 42, 64
2, 26308, Note_on_c, 9, 36, 122
2, 26368, Note_off_c, 9, 42, 0
2, 26372, Note_off_c, 9, 36, 0
2, 26504, Note_on_c, 9, 42, 87
2, 26504, Note_on_c, 9, 38, 102
2, 26568, Note_off_c, 9, 42, 0
2, 26568, Note_off_c, 9, 38, 0
2, 26696, Note_on_c, 9, 42, 66
2, 26760, Note_off_c, 9, 42, 0
2, 26872, Note_on_c, 9, 42, 93
2, 26880, Note_on_c, 9, 36, 119
2, 26936, Note_off_c, 9, 42, 0
2, 26944, Note_off_c, 9, 36, 0
2, 27056, Note_on_c, 9, 42, 65
2, 27120, Note_off_c, 9, 42, 0
2, 27252, Note_on_c, 9, 42, 81
2, 27264, Note_on_c, 9, 38, 100
2, 27316, Note_off_c, 9, 42, 0
2, 27328, Note_off_c, 9, 38, 0
2, 27448, Note_on_c, 9, 42, 76
2, 27512, Note_off_c, 9, 42, 0
2, 27644, Note_on_c, 9, 42, 90
2, 27644, Note_on_c, 9, 36, 110
2, 27708, Note_off_c, 9, 36, 0
2, 27708, Note_off_c, 9, 42, 0
2, 27844, Note_on_c, 9, 42, 79
2, 27844, Note_on_c, 9, 36, 101
2, 27908, Note_off_c, 9, 42, 0
2, 27908, Note_off_c, 9, 36, 0
2, 28016, Note_on_c, 9, 42, 81
2, 28032, Note_on_c, 9, 38, 107
2, 28080, Note_off_c, 9, 42, 0
2, 28096, Note_off_c, 9, 38, 0
2, 28228, Note_on_c, 9, 42, 66
2, 28292, Note_off_c, 9, 42, 0
2, 28404, Note_on_c, 9, 42, 90
2, 28404, Note_on_c, 9, 36, 120
2, 28468, Note_off_c, 9, 42, 0
2, 28468, Note_off_c, 9, 36, 0
2, 28600, Note_on_c, 9, 42, 70
2, 28664, Note_off_c, 9, 42, 0
2, 28792, Note_on_c, 9, 42, 95
2, 28792, Note_on_c, 9, 38, 79
2, 28856, Note_off_c, 9, 42, 0
2, 28856, Note_off_c, 9, 38, 0
2, 28988, Note_on_c, 9, 42, 62
2, 29052, Note_off_c, 9, 42, 0
2, 29188, Note_on_c, 9, 42, 100
2, 29188, Note_on_c, 9, 36, 117
2, 29252, Note_off_c, 9, 42, 0
2, 29252, Note_off_c, 9, 36, 0
2, 29360, Note_on_c, 9, 42, 69
2, 29372, Note_on_c, 9, 36, 99
2, 29424, Note_off_c, 9, 42, 0
2, 29436, Note_off_c, 9, 36, 0
2, 29552, Note_on_c, 9, 42, 88
2, 29572, Note_on_c, 9, 38, 106
2, 29616, Note_off_c, 9, 42, 0
2, 29636, Note_off_c, 9, 38, 0
2, 29768, Note_on_c, 9, 42, 79
2, 29832, Note_off_c, 9, 42, 0
2, 29940, Note_on_c, 9, 42, 87
2, 29960, Note_on_c, 9, 36, 114
2, 30004, Note_off_c, 9, 42, 0
2, 30024, Note_off_c, 9, 36, 0
2, 30148, Note_on_c, 9, 42, 71
2, 30212, Note_off_c, 9, 42, 0
2, 30336, Note_on_c, 9, 42, 102
2, 30336, Note_on_c, 9, 38, 77
2, 30400, Note_off_c, 9, 42, 0
2, 30400, Note_off_c, 9, 38, 0
2, 30528, Note_on_c, 9, 42, 60
2, 30592, Note_off_c, 9, 42, 0
2, 30720, Note_on_c, 9, 42, 83
2, 30728, Note_on_c, 9, 36, 113
2, 30784, Note_off_c, 9, 42, 0
2, 30792, Note_off_c, 9, 36, 0
2, 30912, Note_on_c, 9, 42, 74
2, 30912, Note_on_c, 9, 36, 103
2, 30976, Note_off_c, 9, 42, 0
2, 30976, Note_off_c, 9, 36, 0
2, 31096, Note_on_c, 9, 42, 92
2, 31112, Note_on_c, 9, 38, 91
2, 31160, Note_off_c, 9, 42, 0
2, 31176, Note_off_c, 9, 38, 0
2, 31296, Note_on_c, 9, 42, 61
2, 31360, Note_off_c, 9, 42, 0
2, 31472, Note_on_c, 9, 42, 96
2, 31488, Note_on_c, 9, 36, 125
2, 31536, Note_off_c, 9, 42, 0
2, 31552, Note_off_c, 9, 36, 0
2, 31668, Note_on_c, 9, 42, 66
2, 31732, Note_off_c, 9, 42, 0
2, 31876, Note_on_c, 9, 42, 98
2, 31876, Note_on_c, 9, 38, 104
2, 31940, Note_off_c, 9, 42, 0
2, 31940, Note_off_c, 9, 38, 0
2, 32064, Note_on_c, 9, 42, 65
2, 32128, Note_off_c, 9, 42, 0
2, 32240, Note_on_c, 9, 42, 99
2, 32256, Note_on_c, 9, 36, 122
2, 32304, Note_off_c, 9, 42, 0
2, 32320, Note_off_c, 9, 36, 0
2, 32456, Note_on_c, 9, 42, 59
2, 32456, Note_on_c, 9, 36, 106
2, 32520, Note_off_c, 9, 42, 0
2, 32520, Note_off_c, 9, 36, 0
2, 32640, Note_on_c, 9, 42, 92
2, 32640, Note_on_c, 9, 38, 100
2, 32704, Note_off_c, 9, 42, 0
2, 32704, Note_off_c, 9, 38, 0
2, 32828, Note_on_c, 9, 42, 69
2, 32892, Note_off_c, 9, 42, 0
2, 33024, Note_on_c, 9, 42, 77
2, 33024, Note_on_c, 9, 36, 116
2, 33088, Note_off_c, 9, 42, 0
2, 33088, Note_off_c, 9, 36, 0
2, 33224, Note_on_c, 9, 42, 69
2, 33288, Note_off_c, 9, 42, 0
2, 33392, Note_on_c, 9, 42, 88
2, 33404, Note_on_c, 9, 38, 85
2, 33456, Note_off_c, 9, 42, 0
2, 33468, Note_off_c, 9, 38, 0
2, 33604, Note_on_c, 9, 42, 75
2, 33668, Note_off_c, 9, 42, 0
2, 33792, Note_on_c, 9, 42, 91
2, 33800, Note_on_c, 9, 36, 127
2, 33856, Note_off_c, 9, 42, 0
2, 33864, Note_off_c, 9, 36, 0
2, 33976, Note_on_c, 9, 42, 60
2, 33976, Note_on_c, 9, 36, 115
2, 34040, Note_off_c, 9, 42, 0
2, 34040, Note_off_c, 9, 36, 0
2, 34160, Note_on_c, 9, 42, 77
2, 34168, Note_on_c, 9, 38, 102
2, 34224, Note_off_c, 9, 42, 0
2, 34232, Note_off_c, 9, 38, 0
2, 34372, Note_on_c, 9, 42, 79
2, 34436, Note_off_c, 9, 42, 0
2, 34564, Note_on_c, 9, 42, 104
2, 34564, Note_on_c, 9, 36, 125
2, 34628, Note_off_c, 9, 42, 0
2, 34628, Note_off_c, 9, 36, 0
2, 34760, Note_on_c, 9, 42, 72
2, 34824, Note_off_c, 9, 42, 0
2, 34928, Note_on_c, 9, 42, 95
2, 34936, Note_on_c, 9, 38, 101
2, 34992, Note_off_c, 9, 42, 0
2, 35000, Note_off_c, 9, 38, 0
2, 35140, Note_on_c, 9, 42, 74
2, 35204, Note_off_c, 9, 42, 0
2, 35316, Note_on_c, 9, 42, 99
2, 35328, Note_on_c, 9, 36, 111
2, 35380, Note_off_c, 9, 42, 0
2, 35392, Note_off_c, 9, 36, 0
2, 35508, Note_on_c, 9, 42, 67
2, 35520, Note_on_c, 9, 36, 125
2, 35572, Note_off_c, 9, 42, 0
2, 35584, Note_off_c, 9, 36, 0
2, 35708, Note_on_c, 9, 42, 77
2, 35708, Note_on_c, 9, 38, 91
2, 35772, Note_off_c, 9, 42, 0
2, 35772, Note_off_c, 9, 38, 0
2, 35912, Note_on_c, 9, 42, 72
2, 35976, Note_off_c, 9, 42, 0
2, 36084, Note_on_c, 9, 42, 103
2, 36096, Note_on_c, 9, 36, 121
2, 36148, Note_off_c, 9, 42, 0
2, 36160, Note_off_c, 9, 36, 0
2, 36292, Note_on_c, 9, 42, 77
2, 36356, Note_off_c, 9, 42, 0
2, 36484, Note_on_c, 9, 42, 84
2, 36484, Note_on_c, 9, 38, 87
2, 36548, Note_off_c, 9, 42, 0
2, 36548, Note_off_c, 9, 38, 0
2, 36680, Note_on_c, 9, 42, 73
2, 36744, Note_off_c, 9, 42, 0
2, 36868, Note_on_c, 9, 42, 102
2, 36868, Note_on_c, 9, 36, 113
2, 36932, Note_off_c, 9, 42, 0
2, 36932, Note_off_c, 9, 36, 0
2, 37040, Note_on_c, 9, 42, 74
2, 37056, Note_on_c, 9, 36, 101
2, 37104, Note_off_c, 9, 42, 0
2, 37120, Note_off_c, 9, 36, 0
2, 37248, Note_on_c, 9, 42, 99
2, 37248, Note_on_c, 9, 38, 85
2, 37312, Note_off_c, 9, 42, 0
2, 37312, Note_off_c, 9, 38, 0
2, 37436, Note_on_c, 9, 42, 63
2, 37500, Note_off_c, 9, 42, 0
2, 37616, Note_on_c, 9, 42, 84
2, 37616, Note_on_c, 9, 36, 125
2, 37680, Note_off_c, 9, 42, 0
2, 37680, Note_off_c, 9, 36, 0
2, 37824, Note_on_c, 9, 42, 73
2, 37888, Note_off_c, 9, 42, 0
2, 38000, Note_on_c, 9, 42, 101
2, 38012, Note_on_c, 9, 38, 100
2, 38076, Note_off_c, 9, 38, 0
2, 38164, Note_off_c, 9, 42, 0
2, 38208, Note_on_c, 9, 38, 100
2, 38208, Note_on_c, 9, 42, 72
2, 38272, Note_off_c, 9, 42, 0
2, 38360, Note_off_c, 9, 38, 0
2, 38400, Note_on_c, 9, 35, 115
2, 38400, Note_on_c, 9, 42, 115
2, 38496, Note_off_c, 9, 35, 0
2, 38496, Note_off_c, 9, 42, 0
2, 38592, Note_on_c, 9, 42, 50
2, 38688, Note_off_c, 9, 42, 0
2, 38784, Note_on_c, 9, 38, 115
2, 38784, Note_on_c, 9, 42, 100
2, 38880, Note_off_c, 9, 38, 0
2, 38880, Note_off_c, 9, 42, 0
2, 38976, Note_on_c, 9, 35, 100
2, 38976, Note_on_c, 9, 42, 60
2, 39072, Note_off_c, 9, 35, 0
2, 39072, Note_off_c, 9, 42, 0
2, 39168, Note_on_c, 9, 35, 115
2, 39168, Note_on_c, 9, 42, 115
2, 39264, Note_off_c, 9, 35, 0
2, 39264, Note_off_c, 9, 42, 0
2, 39360, Note_on_c, 9, 42, 55
2, 39456, Note_off_c, 9, 42, 0
2, 39552, Note_on_c, 9, 38, 115
2, 39552, Note_on_c, 9, 42, 100
2, 39648, Note_off_c, 9, 38, 0
2, 39648, Note_off_c, 9, 42, 0
2, 39744, Note_on_c, 9, 42, 70
2, 39840, Note_off_c, 9, 42, 0
2, 39936, Note_on_c, 9, 35, 115
2, 39936, Note_on_c, 9, 42, 115
2, 40032, Note_off_c, 9, 35, 0
2, 40032, Note_off_c, 9, 42, 0
2, 40128, Note_on_c, 9, 42, 50
2, 40224, Note_off_c, 9, 42, 0
2, 40320, Note_on_c, 9, 38, 115
2, 40320, Note_on_c, 9, 42, 100
2, 40416, Note_off_c, 9, 38, 0
2, 40416, Note_off_c, 9, 42, 0
2, 40512, Note_on_c, 9, 35, 100
2, 40512, Note_on_c, 9, 42, 60
2, 40608, Note_off_c, 9, 35, 0
2, 40608, Note_off_c, 9, 42, 0
2, 40704, Note_on_c, 9, 35, 115
2, 40704, Note_on_c, 9, 42, 115
2, 40800, Note_off_c, 9, 35, 0
2, 40800, Note_off_c, 9, 42, 0
2, 40896, Note_on_c, 9, 42, 55
2, 40992, Note_off_c, 9, 42, 0
2, 41088, Note_on_c, 9, 38, 115
2, 41088, Note_on_c, 9, 42, 100
2, 41184, Note_off_c, 9, 38, 0
2, 41184, Note_off_c, 9, 42, 0
2, 41280, Note_on_c, 9, 42, 70
2, 41376, Note_off_c, 9, 42, 0
2, 41472, Note_on_c, 9, 35, 115
2, 41472, Note_on_c, 9, 42, 115
2, 41568, Note_off_c, 9, 35, 0
2, 41568, Note_off_c, 9, 42, 0
2, 41664, Note_on_c, 9, 42, 50
2, 41760, Note_off_c, 9, 42, 0
2, 41856, Note_on_c, 9, 38, 115
2, 41856, Note_on_c, 9, 42, 100
2, 41952, Note_off_c, 9, 38, 0
2, 41952, Note_off_c, 9, 42, 0
2, 42048, Note_on_c, 9, 35, 100
2, 42048, Note_on_c, 9, 42, 60
2, 42144, Note_off_c, 9, 35, 0
2, 42144, Note_off_c, 9, 42, 0
2, 42240, Note_on_c, 9, 35, 115
2, 42240, Note_on_c, 9, 42, 115
2, 42336, Note_off_c, 9, 35, 0
2, 42336, Note_off_c, 9, 42, 0
2, 42432, Note_on_c, 9, 42, 55
2, 42528, Note_off_c, 9, 42, 0
2, 42624, Note_on_c, 9, 38, 115
2, 42624, Note_on_c, 9, 42, 100
2, 42720, Note_off_c, 9, 38, 0
2, 42720, Note_off_c, 9, 42, 0
2, 42816, Note_on_c, 9, 42, 70
2, 42912, Note_off_c, 9, 42, 0
2, 43008, Note_on_c, 9, 35, 115
2, 43008, Note_on_c, 9, 42, 115
2, 43104, Note_off_c, 9, 35, 0
2, 43104, Note_off_c, 9, 42, 0
2, 43200, Note_on_c, 9, 42, 50
2, 43296, Note_off_c, 9, 42, 0
2, 43392, Note_on_c, 9, 38, 115
2, 43392, Note_on_c, 9, 42, 100
2, 43488, Note_off_c, 9, 38, 0
2, 43488, Note_off_c, 9, 42, 0
2, 43584, Note_on_c, 9, 35, 100
2, 43584, Note_on_c, 9, 42, 60
2, 43680, Note_off_c, 9, 35, 0
2, 43680, Note_off_c, 9, 42, 0
2, 43776, Note_on_c, 9, 35, 115
2, 43776, Note_on_c, 9, 42, 115
2, 43872, Note_off_c, 9, 35, 0
2, 43872, Note_off_c, 9, 42, 0
2, 43968, Note_on_c, 9, 42, 55
2, 44064, Note_off_c, 9, 42, 0
2, 44160, Note_on_c, 9, 38, 115
2, 44160, Note_on_c, 9, 42, 100
2, 44256, Note_off_c, 9, 38, 0
2, 44256, Note_off_c, 9, 42, 0
2, 44352, Note_on_c, 9, 42, 70
2, 44448, Note_off_c, 9, 42, 0
2, 44544, Note_on_c, 9, 35, 115
2, 44544, Note_on_c, 9, 42, 115
2, 44640, Note_off_c, 9, 35, 0
2, 44640, Note_off_c, 9, 42, 0
2, 44736, Note_on_c, 9, 42, 50
2, 44832, Note_off_c, 9, 42, 0
2, 44928, Note_on_c, 9, 38, 115
2, 44928, Note_on_c, 9, 42, 100
2, 45024, Note_off_c, 9, 38, 0
2, 45024, Note_off_c, 9, 42, 0
2, 45120, Note_on_c, 9, 35, 100
2, 45120, Note_on_c, 9, 42, 60
2, 45216, Note_off_c, 9, 35, 0
2, 45216, Note_off_c, 9, 42, 0
2, 45312, Note_on_c, 9, 35, 115
2, 45312, Note_on_c, 9, 42, 115
2, 45408, Note_off_c, 9, 35, 0
2, 45408, Note_off_c, 9, 42, 0
2, 45504, Note_on_c, 9, 42, 55
2, 45600, Note_off_c, 9, 42, 0
2, 45696, Note_on_c, 9, 38, 115
2, 45696, Note_on_c, 9, 42, 100
2, 45792, Note_off_c, 9, 38, 0
2, 45792, Note_off_c, 9, 42, 0
2, 45888, Note_on_c, 9, 42, 70
2, 45984, Note_off_c, 9, 42, 0
2, 46080, Note_on_c, 9, 35, 115
2, 46080, Note_on_c, 9, 42, 115
2, 46176, Note_off_c, 9, 35, 0
2, 46176, Note_off_c, 9, 42, 0
2, 46272, Note_on_c, 9, 42, 50
2, 46368, Note_off_c, 9, 42, 0
2, 46464, Note_on_c, 9, 38, 115
2, 46464, Note_on_c, 9, 42, 100
2, 46560, Note_off_c, 9, 38, 0
2, 46560, Note_off_c, 9, 42, 0
2, 46656, Note_on_c, 9, 35, 100
2, 46656, Note_on_c, 9, 42, 60
2, 46752, Note_off_c, 9, 35, 0
2, 46752, Note_off_c, 9, 42, 0
2, 46848, Note_on_c, 9, 35, 115
2, 46848, Note_on_c, 9, 42, 115
2, 46944, Note_off_c, 9, 35, 0
2, 46944, Note_off_c, 9, 42, 0
2, 47040, Note_on_c, 9, 42, 55
2, 47136, Note_off_c, 9, 42, 0
2, 47232, Note_on_c, 9, 38, 115
2, 47232, Note_on_c, 9, 42, 100
2, 47328, Note_off_c, 9, 38, 0
2, 47328, Note_off_c, 9, 42, 0
2, 47424, Note_on_c, 9, 42, 70
2, 47520, Note_off_c, 9, 42, 0
2, 47616, Note_on_c, 9, 35, 115
2, 47616, Note_on_c, 9, 42, 115
2, 47712, Note_off_c, 9, 35, 0
2, 47712, Note_off_c, 9, 42, 0
2, 47808, Note_on_c, 9, 42, 50
2, 47904, Note_off_c, 9, 42, 0
2, 48000, Note_on_c, 9, 38, 115
2, 48000, Note_on_c, 9, 42, 100
2, 48096, Note_off_c, 9, 38, 0
2, 48096, Note_off_c, 9, 42, 0
2, 48192, Note_on_c, 9, 35, 100
2, 48192, Note_on_c, 9, 42, 60
2, 48288, Note_off_c, 9, 35, 0
2, 48288, Note_off_c, 9, 42, 0
2, 48384, Note_on_c, 9, 35, 115
2, 48384, Note_on_c, 9, 42, 115
2, 48480, Note_off_c, 9, 35, 0
2, 48480, Note_off_c, 9, 42, 0
2, 48576, Note_on_c, 9, 42, 55
2, 48672, Note_off_c, 9, 42, 0
2, 48768, Note_on_c, 9, 38, 115
2, 48768, Note_on_c, 9, 42, 100
2, 48864, Note_off_c, 9, 38, 0
2, 48864, Note_off_c, 9, 42, 0
2, 48960, Note_on_c, 9, 42, 70
2, 49056, Note_off_c, 9, 42, 0
2, 49152, Note_on_c, 9, 51, 127
2, 49152, Note_on_c, 9, 35, 115
2, 49152, Note_on_c, 9, 42, 115
2, 49228, Note_off_c, 9, 51, 0
2, 49228, Note_off_c, 9, 35, 0
2, 49228, Note_off_c, 9, 42, 0
2, 49344, Note_on_c, 9, 51, 127
2, 49344, Note_on_c, 9, 42, 50
2, 49440, Note_off_c, 9, 42, 0
2, 49496, Note_off_c, 9, 51, 0
2, 49536, Note_on_c, 9, 59, 127
2, 49536, Note_on_c, 9, 38, 115
2, 49536, Note_on_c, 9, 42, 100
2, 49632, Note_off_c, 9, 38, 0
2, 49632, Note_off_c, 9, 42, 0
2, 49728, Note_on_c, 9, 35, 100
2, 49728, Note_on_c, 9, 42, 60
2, 49824, Note_off_c, 9, 42, 0
2, 49840, Note_off_c, 9, 59, 0
2, 49880, Note_off_c, 9, 35, 0
2, 49920, Note_on_c, 9, 51, 127
2, 49920, Note_on_c, 9, 35, 115
2, 49920, Note_on_c, 9, 42, 115
2, 49996, Note_off_c, 9, 51, 0
2, 49996, Note_off_c, 9, 35, 0
2, 49996, Note_off_c, 9, 42, 0
2, 50112, Note_on_c, 9, 51, 127
2, 50112, Note_on_c, 9, 42, 55
2, 50208, Note_off_c, 9, 42, 0
2, 50264, Note_off_c, 9, 51, 0
2, 50304, Note_on_c, 9, 49, 85
2, 50304, Note_on_c, 9, 59, 127
2, 50304, Note_on_c, 9, 38, 115
2, 50304, Note_on_c, 9, 42, 100
2, 50400, Note_off_c, 9, 42, 0
2, 50456, Note_off_c, 9, 49, 0
2, 50456, Note_off_c, 9, 59, 0
2, 50456, Note_off_c, 9, 38, 0
2, 50496, Note_on_c, 9, 38, 100
2, 50496, Note_on_c, 9, 42, 70
2, 50592, Note_off_c, 9, 42, 0
2, 50648, Note_off_c, 9, 38, 0
2, 50688, Note_on_c, 9, 35, 115
2, 50688, Note_on_c, 9, 42, 115
2, 50784, Note_off_c, 9, 35, 0
2, 50784, Note_off_c, 9, 42, 0
2, 50880, Note_on_c, 9, 42, 50
2, 50976, Note_off_c, 9, 42, 0
2, 51072, Note_on_c, 9, 38, 115
2, 51072, Note_on_c, 9, 42, 100
2, 51168, Note_off_c, 9, 38, 0
2, 51168, Note_off_c, 9, 42, 0
2, 51264, Note_on_c, 9, 35, 100
2, 51264, Note_on_c, 9, 42, 60
2, 51360, Note_off_c, 9, 35, 0
2, 51360, Note_off_c, 9, 42, 0
2, 51456, Note_on_c, 9, 35, 115
2, 51456, Note_on_c, 9, 42, 115
2, 51552, Note_off_c, 9, 35, 0
2, 51552, Note_off_c, 9, 42, 0
2, 51648, Note_on_c, 9, 42, 55
2, 51744, Note_off_c, 9, 42, 0
2, 51840, Note_on_c, 9, 38, 115
2, 51840, Note_on_c, 9, 42, 100
2, 51936, Note_off_c, 9, 38, 0
2, 51936, Note_off_c, 9, 42, 0
2, 52032, Note_on_c, 9, 42, 70
2, 52128, Note_off_c, 9, 42, 0
2, 52224, Note_on_c, 9, 35, 115
2, 52224, Note_on_c, 9, 42, 115
2, 52320, Note_off_c, 9, 35, 0
2, 52320, Note_off_c, 9, 42, 0
2, 52416, Note_on_c, 9, 42, 50
2, 52512, Note_off_c, 9, 42, 0
2, 52608, Note_on_c, 9, 38, 115
2, 52608, Note_on_c, 9, 42, 100
2, 52704, Note_off_c, 9, 38, 0
2, 52704, Note_off_c, 9, 42, 0
2, 52800, Note_on_c, 9, 35, 100
2, 52800, Note_on_c, 9, 42, 60
2, 52896, Note_off_c, 9, 35, 0
2, 52896, Note_off_c, 9, 42, 0
2, 52992, Note_on_c, 9, 35, 115
2, 52992, Note_on_c, 9, 42, 115
2, 53088, Note_off_c, 9, 35, 0
2, 53088, Note_off_c, 9, 42, 0
2, 53184, Note_on_c, 9, 42, 55
2, 53280, Note_off_c, 9, 42, 0
2, 53376, Note_on_c, 9, 38, 115
2, 53376, Note_on_c, 9, 42, 100
2, 53472, Note_off_c, 9, 38, 0
2, 53472, Note_off_c, 9, 42, 0
2, 53568, Note_on_c, 9, 42, 70
2, 53664, Note_off_c, 9, 42, 0
2, 53760, Note_on_c, 9, 35, 115
2, 53760, Note_on_c, 9, 42, 115
2, 53856, Note_off_c, 9, 35, 0
2, 53856, Note_off_c, 9, 42, 0
2, 53952, Note_on_c, 9, 42, 50
2, 54048, Note_off_c, 9, 42, 0
2, 54144, Note_on_c, 9, 42, 100
2, 54240, Note_off_c, 9, 42, 0
2, 54336, Note_on_c, 9, 42, 60
2, 54432, Note_off_c, 9, 42, 0
2, 54528, Note_on_c, 9, 49, 85
2, 54528, Note_on_c, 9, 35, 115
2, 54528, Note_on_c, 9, 42, 115
2, 54624, Note_off_c, 9, 35, 0
2, 54624, Note_off_c, 9, 42, 0
2, 54680, Note_off_c, 9, 49, 0
2, 54720, Note_on_c, 9, 42, 55
2, 54816, Note_off_c, 9, 42, 0
2, 54912, Note_on_c, 9, 38, 115
2, 54912, Note_on_c, 9, 42, 100
2, 55008, Note_off_c, 9, 38, 0
2, 55008, Note_off_c, 9, 42, 0
2, 55104, Note_on_c, 9, 42, 70
2, 55200, Note_off_c, 9, 42, 0
2, 55296, Note_on_c, 9, 35, 115
2, 55296, Note_on_c, 9, 42, 115
2, 55392, Note_off_c, 9, 35, 0
2, 55392, Note_off_c, 9, 42, 0
2, 55488, Note_on_c, 9, 42, 50
2, 55584, Note_off_c, 9, 42, 0
2, 55680, Note_on_c, 9, 38, 115
2, 55680, Note_on_c, 9, 42, 100
2, 55776, Note_off_c, 9, 38, 0
2, 55776, Note_off_c, 9, 42, 0
2, 55872, Note_on_c, 9, 35, 100
2, 55872, Note_on_c, 9, 42, 60
2, 55968, Note_off_c, 9, 35, 0
2, 55968, Note_off_c, 9, 42, 0
2, 56064, Note_on_c, 9, 35, 115
2, 56064, Note_on_c, 9, 42, 115
2, 56160, Note_off_c, 9, 35, 0
2, 56160, Note_off_c, 9, 42, 0
2, 56256, Note_on_c, 9, 42, 55
2, 56352, Note_off_c, 9, 42, 0
2, 56448, Note_on_c, 9, 38, 115
2, 56448, Note_on_c, 9, 42, 100
2, 56544, Note_off_c, 9, 38, 0
2, 56544, Note_off_c, 9, 42, 0
2, 56640, Note_on_c, 9, 42, 70
2, 56736, Note_off_c, 9, 42, 0
2, 56832, Note_on_c, 9, 35, 115
2, 56832, Note_on_c, 9, 42, 115
2, 56928, Note_off_c, 9, 35, 0
2, 56928, Note_off_c, 9, 42, 0
2, 57024, Note_on_c, 9, 42, 50
2, 57120, Note_off_c, 9, 42, 0
2, 57216, Note_on_c, 9, 38, 115
2, 57216, Note_on_c, 9, 42, 100
2, 57312, Note_off_c, 9, 38, 0
2, 57312, Note_off_c, 9, 42, 0
2, 57408, Note_on_c, 9, 35, 100
2, 57408, Note_on_c, 9, 42, 60
2, 57504, Note_off_c, 9, 42, 0
2, 57560, Note_off_c, 9, 35, 0
2, 57600, Note_on_c, 9, 35, 115
2, 57600, Note_on_c, 9, 42, 115
2, 57696, Note_off_c, 9, 35, 0
2, 57696, Note_off_c, 9, 42, 0
2, 57792, Note_on_c, 9, 42, 55
2, 57888, Note_off_c, 9, 42, 0
2, 57984, Note_on_c, 9, 38, 115
2, 57984, Note_on_c, 9, 42, 100
2, 58080, Note_off_c, 9, 38, 0
2, 58080, Note_off_c, 9, 42, 0
2, 58176, Note_on_c, 9, 42, 70
2, 58272, Note_off_c, 9, 42, 0
2, 58368, Note_on_c, 9, 35, 115
2, 58368, Note_on_c, 9, 42, 115
2, 58464, Note_off_c, 9, 35, 0
2, 58464, Note_off_c, 9, 42, 0
2, 58560, Note_on_c, 9, 42, 50
2, 58656, Note_off_c, 9, 42, 0
2, 58752, Note_on_c, 9, 38, 115
2, 58752, Note_on_c, 9, 42, 100
2, 58848, Note_off_c, 9, 38, 0
2, 58848, Note_off_c, 9, 42, 0
2, 58944, Note_on_c, 9, 35, 100
2, 58944, Note_on_c, 9, 42, 60
2, 59040, Note_off_c, 9, 35, 0
2, 59040, Note_off_c, 9, 42, 0
2, 59136, Note_on_c, 9, 35, 115
2, 59136, Note_on_c, 9, 42, 115
2, 59232, Note_off_c, 9, 35, 0
2, 59232, Note_off_c, 9, 42, 0
2, 59328, Note_on_c, 9, 42, 55
2, 59424, Note_off_c, 9, 42, 0
2, 59520, Note_on_c, 9, 38, 115
2, 59520, Note_on_c, 9, 42, 100
2, 59616, Note_off_c, 9, 38, 0
2, 59616, Note_off_c, 9, 42, 0
2, 59712, Note_on_c, 9, 42, 70
2, 59808, Note_off_c, 9, 42, 0
2, 59904, Note_on_c, 9, 35, 115
2, 59904, Note_on_c, 9, 42, 115
2, 60000, Note_off_c, 9, 35, 0
2, 60000, Note_off_c, 9, 42, 0
2, 60096, Note_on_c, 9, 42, 50
2, 60192, Note_off_c, 9, 42, 0
2, 60288, Note_on_c, 9, 42, 100
2, 60384, Note_off_c, 9, 42, 0
2, 60480, Note_on_c, 9, 42, 60
2, 60576, Note_off_c, 9, 42, 0
2, 60672, Note_on_c, 9, 49, 85
2, 60672, Note_on_c, 9, 35, 115
2, 60672, Note_on_c, 9, 42, 115
2, 60768, Note_off_c, 9, 35, 0
2, 60768, Note_off_c, 9, 42, 0
2, 60824, Note_off_c, 9, 49, 0
2, 60864, Note_on_c, 9, 42, 55
2, 60960, Note_off_c, 9, 42, 0
2, 61056, Note_on_c, 9, 38, 115
2, 61056, Note_on_c, 9, 42, 100
2, 61152, Note_off_c, 9, 38, 0
2, 61152, Note_off_c, 9, 42, 0
2, 61248, Note_on_c, 9, 42, 70
2, 61344, Note_off_c, 9, 42, 0
2, 61440, Note_on_c, 9, 35, 115
2, 61440, Note_on_c, 9, 42, 115
2, 61536, Note_off_c, 9, 35, 0
2, 61536, Note_off_c, 9, 42, 0
2, 61632, Note_on_c, 9, 42, 50
2, 61728, Note_off_c, 9, 42, 0
2, 61824, Note_on_c, 9, 38, 115
2, 61824, Note_on_c, 9, 42, 100
2, 61920, Note_off_c, 9, 38, 0
2, 61920, Note_off_c, 9, 42, 0
2, 62016, Note_on_c, 9, 35, 100
2, 62016, Note_on_c, 9, 42, 60
2, 62112, Note_off_c, 9, 35, 0
2, 62112, Note_off_c, 9, 42, 0
2, 62208, Note_on_c, 9, 35, 115
2, 62208, Note_on_c, 9, 42, 115
2, 62304, Note_off_c, 9, 35, 0
2, 62304, Note_off_c, 9, 42, 0
2, 62400, Note_on_c, 9, 42, 55
2, 62496, Note_off_c, 9, 42, 0
2, 62592, Note_on_c, 9, 38, 115
2, 62592, Note_on_c, 9, 42, 100
2, 62688, Note_off_c, 9, 42, 0
2, 62744, Note_off_c, 9, 38, 0
2, 62784, Note_on_c, 9, 38, 100
2, 62784, Note_on_c, 9, 42, 70
2, 62880, Note_off_c, 9, 42, 0
2, 62936, Note_off_c, 9, 38, 0
2, 62976, Note_on_c, 9, 35, 90
2, 62976, Note_on_c, 9, 42, 90
2, 63072, Note_off_c, 9, 35, 0
2, 63072, Note_off_c, 9, 42, 0
2, 63072, Note_on_c, 9, 42, 70
2, 63168, Note_off_c, 9, 42, 0
2, 63168, Note_on_c, 9, 42, 70
2, 63264, Note_off_c, 9, 42, 0
2, 63360, Note_on_c, 9, 38, 100
2, 63360, Note_on_c, 9, 42, 100
2, 63456, Note_off_c, 9, 38, 0
2, 63456, Note_off_c, 9, 42, 0
2, 63552, Note_on_c, 9, 35, 80
2, 63552, Note_on_c, 9, 42, 70
2, 63648, Note_off_c, 9, 35, 0
2, 63648, Note_off_c, 9, 42, 0
2, 63744, Note_on_c, 9, 35, 100
2, 63744, Note_on_c, 9, 42, 90
2, 63840, Note_off_c, 9, 35, 0
2, 63840, Note_off_c, 9, 42, 0
2, 63936, Note_on_c, 9, 42, 70
2, 64032, Note_off_c, 9, 42, 0
2, 64128, Note_on_c, 9, 38, 100
2, 64128, Note_on_c, 9, 42, 100
2, 64224, Note_off_c, 9, 38, 0
2, 64224, Note_off_c, 9, 42, 0
2, 64320, Note_on_c, 9, 35, 70
2, 64320, Note_on_c, 9, 42, 70
2, 64416, Note_off_c, 9, 35, 0
2, 64416, Note_off_c, 9, 42, 0
2, 64416, Note_on_c, 9, 46, 70
2, 64512, Note_off_c, 9, 46, 0
2, 64512, Note_on_c, 9, 35, 90
2, 64512, Note_on_c, 9, 42, 90
2, 64608, Note_off_c, 9, 35, 0
2, 64608, Note_off_c, 9, 42, 0
2, 64704, Note_on_c, 9, 42, 70
2, 64800, Note_off_c, 9, 42, 0
2, 64896, Note_on_c, 9, 38, 100
2, 64896, Note_on_c, 9, 42, 100
2, 64992, Note_off_c, 9, 38, 0
2, 64992, Note_off_c, 9, 42, 0
2, 65088, Note_on_c, 9, 35, 80
2, 65088, Note_on_c, 9, 42, 100
2, 65184, Note_off_c, 9, 35, 0
2, 65184, Note_off_c, 9, 42, 0
2, 65280, Note_on_c, 9, 35, 100
2, 65280, Note_on_c, 9, 42, 90
2, 65376, Note_off_c, 9, 35, 0
2, 65376, Note_off_c, 9, 42, 0
2, 65472, Note_on_c, 9, 35, 90
2, 65472, Note_on_c, 9, 42, 70
2, 65568, Note_off_c, 9, 35, 0
2, 65568, Note_off_c, 9, 42, 0
2, 65664, Note_on_c, 9, 38, 100
2, 65664, Note_on_c, 9, 42, 100
2, 65760, Note_off_c, 9, 38, 0
2, 65760, Note_off_c, 9, 42, 0
2, 65856, Note_on_c, 9, 35, 70
2, 65856, Note_on_c, 9, 42, 70
2, 65952, Note_off_c, 9, 35, 0
2, 65952, Note_off_c, 9, 42, 0
2, 66048, Note_on_c, 9, 35, 90
2, 66048, Note_on_c, 9, 42, 90
2, 66144, Note_off_c, 9, 35, 0
2, 66144, Note_off_c, 9, 42, 0
2, 66144, Note_on_c, 9, 42, 70
2, 66240, Note_off_c, 9, 42, 0
2, 66240, Note_on_c, 9, 42, 70
2, 66336, Note_off_c, 9, 42, 0
2, 66432, Note_on_c, 9, 38, 100
2, 66432, Note_on_c, 9, 42, 100
2, 66528, Note_off_c, 9, 38, 0
2, 66528, Note_off_c, 9, 42, 0
2, 66624, Note_on_c, 9, 35, 80
2, 66624, Note_on_c, 9, 42, 70
2, 66720, Note_off_c, 9, 35, 0
2, 66720, Note_off_c, 9, 42, 0
2, 66816, Note_on_c, 9, 35, 100
2, 66816, Note_on_c, 9, 42, 90
2, 66912, Note_off_c, 9, 35, 0
2, 66912, Note_off_c, 9, 42, 0
2, 67008, Note_on_c, 9, 42, 70
2, 67104, Note_off_c, 9, 42, 0
2, 67200, Note_on_c, 9, 38, 100
2, 67200, Note_on_c, 9, 42, 100
2, 67296, Note_off_c, 9, 38, 0
2, 67296, Note_off_c, 9, 42, 0
2, 67392, Note_on_c, 9, 35, 70
2, 67392, Note_on_c, 9, 42, 70
2, 67488, Note_off_c, 9, 35, 0
2, 67488, Note_off_c, 9, 42, 0
2, 67488, Note_on_c, 9, 46, 70
2, 67584, Note_off_c, 9, 46, 0
2, 67584, Note_on_c, 9, 35, 90
2, 67584, Note_on_c, 9, 42, 90
2, 67680, Note_off_c, 9, 35, 0
2, 67680, Note_off_c, 9, 42, 0
2, 67776, Note_on_c, 9, 42, 70
2, 67872, Note_off_c, 9, 42, 0
2, 67968, Note_on_c, 9, 38, 100
2, 67968, Note_on_c, 9, 42, 100
2, 68064, Note_off_c, 9, 38, 0
2, 68064, Note_off_c, 9, 42, 0
2, 68160, Note_on_c, 9, 35, 80
2, 68160, Note_on_c, 9, 42, 100
2, 68256, Note_off_c, 9, 35, 0
2, 68256, Note_off_c, 9, 42, 0
2, 68352, Note_on_c, 9, 35, 100
2, 68352, Note_on_c, 9, 42, 90
2, 68448, Note_off_c, 9, 35, 0
2, 68448, Note_off_c, 9, 42, 0
2, 68544, Note_on_c, 9, 35, 90
2, 68544, Note_on_c, 9, 42, 70
2, 68640, Note_off_c, 9, 42, 0
2, 68696, Note_off_c, 9, 35, 0
2, 68736, Note_on_c, 9, 57, 85
2, 68736, Note_on_c, 9, 38, 100
2, 68736, Note_on_c, 9, 42, 100
2, 68832, Note_off_c, 9, 42, 0
2, 68888, Note_off_c, 9, 57, 0
2, 68888, Note_off_c, 9, 38, 0
2, 68928, Note_on_c, 9, 38, 100
2, 68928, Note_on_c, 9, 35, 70
2, 68928, Note_on_c, 9, 42, 70
2, 69024, Note_off_c, 9, 35, 0
2, 69024, Note_off_c, 9, 42, 0
2, 69080, Note_off_c, 9, 38, 0
2, 69120, Note_on_c, 9, 36, 122
2, 69184, Note_off_c, 9, 36, 0
2, 69316, Note_on_c, 9, 42, 59
2, 69316, Note_on_c, 9, 36, 110
2, 69380, Note_off_c, 9, 42, 0
2, 69380, Note_off_c, 9, 36, 0
2, 69488, Note_on_c, 9, 42, 87
2, 69504, Note_on_c, 9, 38, 92
2, 69552, Note_off_c, 9, 42, 0
2, 69568, Note_off_c, 9, 38, 0
2, 69680, Note_on_c, 9, 42, 71
2, 69744, Note_off_c, 9, 42, 0
2, 69892, Note_on_c, 9, 42, 97
2, 69892, Note_on_c, 9, 36, 127
2, 69956, Note_off_c, 9, 42, 0
2, 69956, Note_off_c, 9, 36, 0
2, 70068, Note_on_c, 9, 42, 65
2, 70132, Note_off_c, 9, 42, 0
2, 70280, Note_on_c, 9, 42, 85
2, 70280, Note_on_c, 9, 38, 94
2, 70344, Note_off_c, 9, 42, 0
2, 70344, Note_off_c, 9, 38, 0
2, 70448, Note_on_c, 9, 42, 60
2, 70512, Note_off_c, 9, 42, 0
2, 70660, Note_on_c, 9, 42, 77
2, 70660, Note_on_c, 9, 36, 110
2, 70724, Note_off_c, 9, 42, 0
2, 70724, Note_off_c, 9, 36, 0
2, 70848, Note_on_c, 9, 42, 70
2, 70848, Note_on_c, 9, 36, 98
2, 70912, Note_off_c, 9, 42, 0
2, 70912, Note_off_c, 9, 36, 0
2, 71048, Note_on_c, 9, 42, 89
2, 71048, Note_on_c, 9, 38, 103
2, 71112, Note_off_c, 9, 42, 0
2, 71112, Note_off_c, 9, 38, 0
2, 71216, Note_on_c, 9, 42, 61
2, 71280, Note_off_c, 9, 42, 0
2, 71420, Note_on_c, 9, 42, 104
2, 71424, Note_on_c, 9, 36, 117
2, 71484, Note_off_c, 9, 42, 0
2, 71488, Note_off_c, 9, 36, 0
2, 71612, Note_on_c, 9, 42, 64
2, 71676, Note_off_c, 9, 42, 0
2, 71808, Note_on_c, 9, 42, 81
2, 71808, Note_on_c, 9, 38, 81
2, 71872, Note_off_c, 9, 42, 0
2, 71872, Note_off_c, 9, 38, 0
2, 71984, Note_on_c, 9, 42, 63
2, 72048, Note_off_c, 9, 42, 0
2, 72200, Note_on_c, 9, 42, 93
2, 72200, Note_on_c, 9, 36, 120
2, 72264, Note_off_c, 9, 42, 0
2, 72264, Note_off_c, 9, 36, 0
2, 72384, Note_on_c, 9, 42, 77
2, 72388, Note_on_c, 9, 36, 99
2, 72448, Note_off_c, 9, 42, 0
2, 72452, Note_off_c, 9, 36, 0
2, 72560, Note_on_c, 9, 42, 83
2, 72576, Note_on_c, 9, 38, 101
2, 72624, Note_off_c, 9, 42, 0
2, 72640, Note_off_c, 9, 38, 0
2, 72756, Note_on_c, 9, 42, 74
2, 72820, Note_off_c, 9, 42, 0
2, 72944, Note_on_c, 9, 42, 78
2, 72968, Note_on_c, 9, 36, 111
2, 73008, Note_off_c, 9, 42, 0
2, 73032, Note_off_c, 9, 36, 0
2, 73160, Note_on_c, 9, 42, 59
2, 73224, Note_off_c, 9, 42, 0
2, 73328, Note_on_c, 9, 42, 100
2, 73332, Note_on_c, 9, 38, 85
2, 73392, Note_off_c, 9, 42, 0
2, 73396, Note_off_c, 9, 38, 0
2, 73528, Note_on_c, 9, 42, 61
2, 73592, Note_off_c, 9, 42, 0
2, 73724, Note_on_c, 9, 42, 96
2, 73724, Note_on_c, 9, 36, 115
2, 73788, Note_off_c, 9, 36, 0
2, 73788, Note_off_c, 9, 42, 0
2, 73920, Note_on_c, 9, 42, 62
2, 73920, Note_on_c, 9, 36, 118
2, 73984, Note_off_c, 9, 42, 0
2, 73984, Note_off_c, 9, 36, 0
2, 74120, Note_on_c, 9, 42, 88
2, 74120, Note_on_c, 9, 38, 106
2, 74184, Note_off_c, 9, 42, 0
2, 74184, Note_off_c, 9, 38, 0
2, 74304, Note_on_c, 9, 42, 76
2, 74368, Note_off_c, 9, 42, 0
2, 74504, Note_on_c, 9, 42, 79
2, 74504, Note_on_c, 9, 36, 126
2, 74568, Note_off_c, 9, 42, 0
2, 74568, Note_off_c, 9, 36, 0
2, 74680, Note_on_c, 9, 42, 78
2, 74744, Note_off_c, 9, 42, 0
2, 74880, Note_on_c, 9, 42, 102
2, 74888, Note_on_c, 9, 38, 87
2, 74944, Note_off_c, 9, 42, 0
2, 74952, Note_off_c, 9, 38, 0
2, 75064, Note_on_c, 9, 42, 75
2, 75128, Note_off_c, 9, 42, 0
2, 75264, Note_on_c, 9, 42, 90
2, 75264, Note_on_c, 9, 36, 108
2, 75328, Note_off_c, 9, 42, 0
2, 75328, Note_off_c, 9, 36, 0
2, 75448, Note_on_c, 9, 42, 63
2, 75460, Note_on_c, 9, 36, 107
2, 75512, Note_off_c, 9, 42, 0
2, 75524, Note_off_c, 9, 36, 0
2, 75632, Note_on_c, 9, 42, 92
2, 75632, Note_on_c, 9, 38, 93
2, 75696, Note_off_c, 9, 42, 0
2, 75696, Note_off_c, 9, 38, 0
2, 75828, Note_on_c, 9, 42, 61
2, 75892, Note_off_c, 9, 42, 0
2, 76020, Note_on_c, 9, 42, 83
2, 76032, Note_on_c, 9, 36, 125
2, 76084, Note_off_c, 9, 42, 0
2, 76096, Note_off_c, 9, 36, 0
2, 76232, Note_on_c, 9, 42, 62
2, 76296, Note_off_c, 9, 42, 0
2, 76420, Note_on_c, 9, 42, 91
2, 76420, Note_on_c, 9, 38, 77
2, 76484, Note_off_c, 9, 42, 0
2, 76484, Note_off_c, 9, 38, 0
2, 76608, Note_on_c, 9, 42, 65
2, 76672, Note_off_c, 9, 42, 0
2, 76792, Note_on_c, 9, 42, 86
2, 76792, Note_on_c, 9, 36, 114
2, 76856, Note_off_c, 9, 36, 0
2, 76856, Note_off_c, 9, 42, 0
2, 76976, Note_on_c, 9, 42, 75
2, 76976, Note_on_c, 9, 36, 116
2, 77040, Note_off_c, 9, 42, 0
2, 77040, Note_off_c, 9, 36, 0
2, 77188, Note_on_c, 9, 42, 87
2, 77188, Note_on_c, 9, 38, 106
2, 77252, Note_off_c, 9, 42, 0
2, 77252, Note_off_c, 9, 38, 0
2, 77384, Note_on_c, 9, 42, 63
2, 77448, Note_off_c, 9, 42, 0
2, 77552, Note_on_c, 9, 42, 88
2, 77552, Note_on_c, 9, 36, 121
2, 77616, Note_off_c, 9, 42, 0
2, 77616, Note_off_c, 9, 36, 0
2, 77744, Note_on_c, 9, 42, 77
2, 77808, Note_off_c, 9, 42, 0
2, 77960, Note_on_c, 9, 42, 80
2, 77960, Note_on_c, 9, 38, 103
2, 78024, Note_off_c, 9, 42, 0
2, 78024, Note_off_c, 9, 38, 0
2, 78140, Note_on_c, 9, 42, 68
2, 78204, Note_off_c, 9, 42, 0
2, 78328, Note_on_c, 9, 42, 84
2, 78328, Note_on_c, 9, 36, 119
2, 78392, Note_off_c, 9, 36, 0
2, 78392, Note_off_c, 9, 42, 0
2, 78536, Note_on_c, 9, 42, 59
2, 78536, Note_on_c, 9, 36, 122
2, 78600, Note_off_c, 9, 42, 0
2, 78600, Note_off_c, 9, 36, 0
2, 78724, Note_on_c, 9, 42, 85
2, 78724, Note_on_c, 9, 38, 86
2, 78788, Note_off_c, 9, 42, 0
2, 78788, Note_off_c, 9, 38, 0
2, 78912, Note_on_c, 9, 42, 60
2, 78976, Note_off_c, 9, 42, 0
2, 79088, Note_on_c, 9, 42, 99
2, 79096, Note_on_c, 9, 36, 117
2, 79152, Note_off_c, 9, 42, 0
2, 79160, Note_off_c, 9, 36, 0
2, 79280, Note_on_c, 9, 42, 77
2, 79344, Note_off_c, 9, 42, 0
2, 79488, Note_on_c, 9, 42, 83
2, 79488, Note_on_c, 9, 38, 91
2, 79552, Note_off_c, 9, 42, 0
2, 79552, Note_off_c, 9, 38, 0
2, 79684, Note_on_c, 9, 42, 65
2, 79748, Note_off_c, 9, 42, 0
2, 79872, Note_on_c, 9, 42, 99
2, 79872, Note_on_c, 9, 36, 118
2, 79936, Note_off_c, 9, 42, 0
2, 79936, Note_off_c, 9, 36, 0
2, 80048, Note_on_c, 9, 42, 68
2, 80072, Note_on_c, 9, 36, 99
2, 80112, Note_off_c, 9, 42, 0
2, 80136, Note_off_c, 9, 36, 0
2, 80244, Note_on_c, 9, 42, 87
2, 80252, Note_on_c, 9, 38, 114
2, 80308, Note_off_c, 9, 42, 0
2, 80316, Note_off_c, 9, 38, 0
2, 80448, Note_on_c, 9, 42, 72
2, 80512, Note_off_c, 9, 42, 0
2, 80640, Note_on_c, 9, 42, 82
2, 80640, Note_on_c, 9, 36, 118
2, 80704, Note_off_c, 9, 42, 0
2, 80704, Note_off_c, 9, 36, 0
2, 80840, Note_on_c, 9, 42, 74
2, 80904, Note_off_c, 9, 42, 0
2, 81008, Note_on_c, 9, 42, 77
2, 81032, Note_on_c, 9, 38, 86
2, 81072, Note_off_c, 9, 42, 0
2, 81096, Note_off_c, 9, 38, 0
2, 81200, Note_on_c, 9, 42, 61
2, 81264, Note_off_c, 9, 42, 0
2, 81396, Note_on_c, 9, 42, 103
2, 81404, Note_on_c, 9, 36, 127
2, 81460, Note_off_c, 9, 42, 0
2, 81468, Note_off_c, 9, 36, 0
2, 81600, Note_on_c, 9, 42, 64
2, 81604, Note_on_c, 9, 36, 122
2, 81664, Note_off_c, 9, 42, 0
2, 81668, Note_off_c, 9, 36, 0
2, 81800, Note_on_c, 9, 42, 87
2, 81800, Note_on_c, 9, 38, 102
2, 81864, Note_off_c, 9, 42, 0
2, 81864, Note_off_c, 9, 38, 0
2, 81992, Note_on_c, 9, 42, 66
2, 82056, Note_off_c, 9, 42, 0
2, 82168, Note_on_c, 9, 42, 93
2, 82176, Note_on_c, 9, 36, 119
2, 82232, Note_off_c, 9, 42, 0
2, 82240, Note_off_c, 9, 36, 0
2, 82352, Note_on_c, 9, 42, 65
2, 82416, Note_off_c, 9, 42, 0
2, 82548, Note_on_c, 9, 42, 81
2, 82560, Note_on_c, 9, 38, 100
2, 82612, Note_off_c, 9, 42, 0
2, 82624, Note_off_c, 9, 38, 0
2, 82744, Note_on_c, 9, 42, 76
2, 82808, Note_off_c, 9, 42, 0
2, 82940, Note_on_c, 9, 42, 90
2, 82940, Note_on_c, 9, 36, 110
2, 83004, Note_off_c, 9, 36, 0
2, 83004, Note_off_c, 9, 42, 0
2, 83140, Note_on_c, 9, 42, 79
2, 83140, Note_on_c, 9, 36, 101
2, 83204, Note_off_c, 9, 42, 0
2, 83204, Note_off_c, 9, 36, 0
2, 83312, Note_on_c, 9, 42, 81
2, 83328, Note_on_c, 9, 38, 107
2, 83376, Note_off_c, 9, 42, 0
2, 83392, Note_off_c, 9, 38, 0
2, 83524, Note_on_c, 9, 42, 66
2, 83588, Note_off_c, 9, 42, 0
2, 83700, Note_on_c, 9, 42, 90
2, 83700, Note_on_c, 9, 36, 120
2, 83764, Note_off_c, 9, 42, 0
2, 83764, Note_off_c, 9, 36, 0
2, 83896, Note_on_c, 9, 42, 70
2, 83960, Note_off_c, 9, 42, 0
2, 84088, Note_on_c, 9, 42, 95
2, 84088, Note_on_c, 9, 38, 79
2, 84152, Note_off_c, 9, 42, 0
2, 84152, Note_off_c, 9, 38, 0
2, 84284, Note_on_c, 9, 42, 62
2, 84348, Note_off_c, 9, 42, 0
2, 84484, Note_on_c, 9, 42, 100
2, 84484, Note_on_c, 9, 36, 117
2, 84548, Note_off_c, 9, 42, 0
2, 84548, Note_off_c, 9, 36, 0
2, 84656, Note_on_c, 9, 42, 69
2, 84668, Note_on_c, 9, 36, 99
2, 84720, Note_off_c, 9, 42, 0
2, 84732, Note_off_c, 9, 36, 0
2, 84848, Note_on_c, 9, 42, 88
2, 84868, Note_on_c, 9, 38, 106
2, 84912, Note_off_c, 9, 42, 0
2, 84932, Note_off_c, 9, 38, 0
2, 85064, Note_on_c, 9, 42, 79
2, 85128, Note_off_c, 9, 42, 0
2, 85236, Note_on_c, 9, 42, 87
2, 85256, Note_on_c, 9, 36, 114
2, 85300, Note_off_c, 9, 42, 0
2, 85320, Note_off_c, 9, 36, 0
2, 85444, Note_on_c, 9, 42, 71
2, 85508, Note_off_c, 9, 42, 0
2, 85632, Note_on_c, 9, 42, 102
2, 85632, Note_on_c, 9, 38, 77
2, 85696, Note_off_c, 9, 42, 0
2, 85696, Note_off_c, 9, 38, 0
2, 85824, Note_on_c, 9, 42, 60
2, 85888, Note_off_c, 9, 42, 0
2, 86016, Note_on_c, 9, 42, 83
2, 86024, Note_on_c, 9, 36, 113
2, 86080, Note_off_c, 9, 42, 0
2, 86088, Note_off_c, 9, 36, 0
2, 86208, Note_on_c, 9, 42, 74
2, 86208, Note_on_c, 9, 36, 103
2, 86272, Note_off_c, 9, 42, 0
2, 86272, Note_off_c, 9, 36, 0
2, 86392, Note_on_c, 9, 42, 92
2, 86408, Note_on_c, 9, 38, 91
2, 86456, Note_off_c, 9, 42, 0
2, 86472, Note_off_c, 9, 38, 0
2, 86592, Note_on_c, 9, 42, 61
2, 86656, Note_off_c, 9, 42, 0
2, 86768, Note_on_c, 9, 42, 96
2, 86784, Note_on_c, 9, 36, 125
2, 86832, Note_off_c, 9, 42, 0
2, 86848, Note_off_c, 9, 36, 0
2, 86964, Note_on_c, 9, 42, 66
2, 87028, Note_off_c, 9, 42, 0
2, 87172, Note_on_c, 9, 42, 98
2, 87172, Note_on_c, 9, 38, 104
2, 87236, Note_off_c, 9, 42, 0
2, 87236, Note_off_c, 9, 38, 0
2, 87360, Note_on_c, 9, 42, 65
2, 87424, Note_off_c, 9, 42, 0
2, 87536, Note_on_c, 9, 42, 99
2, 87552, Note_on_c, 9, 36, 122
2, 87600, Note_off_c, 9, 42, 0
2, 87616, Note_off_c, 9, 36, 0
2, 87752, Note_on_c, 9, 42, 59
2, 87752, Note_on_c, 9, 36, 106
2, 87816, Note_off_c, 9, 42, 0
2, 87816, Note_off_c, 9, 36, 0
2, 87936, Note_on_c, 9, 42, 92
2, 87936, Note_on_c, 9, 38, 100
2, 88000, Note_off_c, 9, 42, 0
2, 88000, Note_off_c, 9, 38, 0
2, 88124, Note_on_c, 9, 42, 69
2, 88188, Note_off_c, 9, 42, 0
2, 88320, Note_on_c, 9, 42, 77
2, 88320, Note_on_c, 9, 36, 116
2, 88384, Note_off_c, 9, 42, 0
2, 88384, Note_off_c, 9, 36, 0
2, 88520, Note_on_c, 9, 42, 69
2, 88584, Note_off_c, 9, 42, 0
2, 88688, Note_on_c, 9, 42, 88
2, 88700, Note_on_c, 9, 38, 85
2, 88752, Note_off_c, 9, 42, 0
2, 88764, Note_off_c, 9, 38, 0
2, 88900, Note_on_c, 9, 42, 75
2, 88964, Note_off_c, 9, 42, 0
2, 89088, Note_on_c, 9, 42, 91
2, 89096, Note_on_c, 9, 36, 127
2, 89152, Note_off_c, 9, 42, 0
2, 89160, Note_off_c, 9, 36, 0
2, 89272, Note_on_c, 9, 42, 60
2, 89272, Note_on_c, 9, 36, 115
2, 89336, Note_off_c, 9, 42, 0
2, 89336, Note_off_c, 9, 36, 0
2, 89456, Note_on_c, 9, 42, 77
2, 89464, Note_on_c, 9, 38, 102
2, 89520, Note_off_c, 9, 42, 0
2, 89528, Note_off_c, 9, 38, 0
2, 89668, Note_on_c, 9, 42, 79
2, 89732, Note_off_c, 9, 42, 0
2, 89860, Note_on_c, 9, 42, 104
2, 89860, Note_on_c, 9, 36, 125
2, 89924, Note_off_c, 9, 42, 0
2, 89924, Note_off_c, 9, 36, 0
2, 90056, Note_on_c, 9, 42, 72
2, 90120, Note_off_c, 9, 42, 0
2, 90224, Note_on_c, 9, 42, 95
2, 90232, Note_on_c, 9, 38, 101
2, 90288, Note_off_c, 9, 42, 0
2, 90296, Note_off_c, 9, 38, 0
2, 90436, Note_on_c, 9, 42, 74
2, 90500, Note_off_c, 9, 42, 0
2, 90612, Note_on_c, 9, 42, 99
2, 90624, Note_on_c, 9, 36, 111
2, 90676, Note_off_c, 9, 42, 0
2, 90688, Note_off_c, 9, 36, 0
2, 90804, Note_on_c, 9, 42, 67
2, 90816, Note_on_c, 9, 36, 125
2, 90868, Note_off_c, 9, 42, 0
2, 90880, Note_off_c, 9, 36, 0
2, 91004, Note_on_c, 9, 42, 77
2, 91004, Note_on_c, 9, 38, 91
2, 91068, Note_off_c, 9, 42, 0
2, 91068, Note_off_c, 9, 38, 0
2, 91208, Note_on_c, 9, 42, 72
2, 91272, Note_off_c, 9, 42, 0
2, 91380, Note_on_c, 9, 42, 103
2, 91392, Note_on_c, 9, 36, 121
2, 91444, Note_off_c, 9, 42, 0
2, 91456, Note_off_c, 9, 36, 0
2, 91588, Note_on_c, 9, 42, 77
2, 91652, Note_off_c, 9, 42, 0
2, 91780, Note_on_c, 9, 42, 84
2, 91780, Note_on_c, 9, 38, 87
2, 91844, Note_off_c, 9, 42, 0
2, 91844, Note_off_c, 9, 38, 0
2, 91976, Note_on_c, 9, 42, 73
2, 92040, Note_off_c, 9, 42, 0
2, 92164, Note_on_c, 9, 42, 102
2, 92164, Note_on_c, 9, 36, 113
2, 92228, Note_off_c, 9, 42, 0
2, 92228, Note_off_c, 9, 36, 0
2, 92336, Note_on_c, 9, 42, 74
2, 92352, Note_on_c, 9, 36, 101
2, 92400, Note_off_c, 9, 42, 0
2, 92416, Note_off_c, 9, 36, 0
2, 92544, Note_on_c, 9, 42, 99
2, 92544, Note_on_c, 9, 38, 85
2, 92608, Note_off_c, 9, 42, 0
2, 92608, Note_off_c, 9, 38, 0
2, 92732, Note_on_c, 9, 42, 63
2, 92796, Note_off_c, 9, 42, 0
2, 92912, Note_on_c, 9, 42, 84
2, 92912, Note_on_c, 9, 36, 125
2, 92976, Note_off_c, 9, 42, 0
2, 92976, Note_off_c, 9, 36, 0
2, 93120, Note_on_c, 9, 42, 73
2, 93184, Note_off_c, 9, 42, 0
2, 93296, Note_on_c, 9, 42, 101
2, 93308, Note_on_c, 9, 38, 100
2, 93372, Note_off_c, 9, 38, 0
2, 93460, Note_off_c, 9, 42, 0
2, 93504, Note_on_c, 9, 38, 100
2, 93504, Note_on_c, 9, 42, 72
2, 93568, Note_off_c, 9, 42, 0
2, 93656, Note_off_c, 9, 38, 0
2, 93696, Note_on_c, 9, 35, 115
2, 93696, Note_on_c, 9, 42, 115
2, 93792, Note_off_c, 9, 35, 0
2, 93792, Note_off_c, 9, 42, 0
2, 93888, Note_on_c, 9, 42, 50
2, 93984, Note_off_c, 9, 42, 0
2, 94080, Note_on_c, 9, 38, 115
2, 94080, Note_on_c, 9, 42, 100
2, 94176, Note_off_c, 9, 38, 0
2, 94176, Note_off_c, 9, 42, 0
2, 94272, Note_on_c, 9, 35, 100
2, 94272, Note_on_c, 9, 42, 60
2, 94368, Note_off_c, 9, 35, 0
2, 94368, Note_off_c, 9, 42, 0
2, 94464, Note_on_c, 9, 35, 115
2, 94464, Note_on_c, 9, 42, 115
2, 94560, Note_off_c, 9, 35, 0
2, 94560, Note_off_c, 9, 42, 0
2, 94656, Note_on_c, 9, 42, 55
2, 94752, Note_off_c, 9, 42, 0
2, 94848, Note_on_c, 9, 38, 115
2, 94848, Note_on_c, 9, 42, 100
2, 94944, Note_off_c, 9, 38, 0
2, 94944, Note_off_c, 9, 42, 0
2, 95040, Note_on_c, 9, 42, 70
2, 95136, Note_off_c, 9, 42, 0
2, 95232, Note_on_c, 9, 35, 115
2, 95232, Note_on_c, 9, 42, 115
2, 95328, Note_off_c, 9, 35, 0
2, 95328, Note_off_c, 9, 42, 0
2, 95424, Note_on_c, 9, 42, 50
2, 95520, Note_off_c, 9, 42, 0
2, 95616, Note_on_c, 9, 38, 115
2, 95616, Note_on_c, 9, 42, 100
2, 95712, Note_off_c, 9, 38, 0
2, 95712, Note_off_c, 9, 42, 0
2, 95808, Note_on_c, 9, 35, 100
2, 95808, Note_on_c, 9, 42, 60
2, 95904, Note_off_c, 9, 35, 0
2, 95904, Note_off_c, 9, 42, 0
2, 96000, Note_on_c, 9, 35, 115
2, 96000, Note_on_c, 9, 42, 115
2, 96096, Note_off_c, 9, 35, 0
2, 96096, Note_off_c, 9, 42, 0
2, 96192, Note_on_c, 9, 42, 55
2, 96288, Note_off_c, 9, 42, 0
2, 96384, Note_on_c, 9, 38, 115
2, 96384, Note_on_c, 9, 42, 100
2, 96480, Note_off_c, 9, 38, 0
2, 96480, Note_off_c, 9, 42, 0
2, 96576, Note_on_c, 9, 42, 70
2, 96672, Note_off_c, 9, 42, 0
2, 96768, Note_on_c, 9, 35, 115
2, 96768, Note_on_c, 9, 42, 115
2, 96864, Note_off_c, 9, 35, 0
2, 96864, Note_off_c, 9, 42, 0
2, 96960, Note_on_c, 9, 42, 50
2, 97056, Note_off_c, 9, 42, 0
2, 97152, Note_on_c, 9, 38, 115
2, 97152, Note_on_c, 9, 42, 100
2, 97248, Note_off_c, 9, 38, 0
2, 97248, Note_off_c, 9, 42, 0
2, 97344, Note_on_c, 9, 35, 100
2, 97344, Note_on_c, 9, 42, 60
2, 97440, Note_off_c, 9, 35, 0
2, 97440, Note_off_c, 9, 42, 0
2, 97536, Note_on_c, 9, 35, 115
2, 97536, Note_on_c, 9, 42, 115
2, 97632, Note_off_c, 9, 35, 0
2, 97632, Note_off_c, 9, 42, 0
2, 97728, Note_on_c, 9, 42, 55
2, 97824, Note_off_c, 9, 42, 0
2, 97920, Note_on_c, 9, 38, 115
2, 97920, Note_on_c, 9, 42, 100
2, 98016, Note_off_c, 9, 38, 0
2, 98016, Note_off_c, 9, 42, 0
2, 98112, Note_on_c, 9, 42, 70
2, 98208, Note_off_c, 9, 42, 0
2, 98304, Note_on_c, 9, 35, 115
2, 98304, Note_on_c, 9, 42, 115
2, 98400, Note_off_c, 9, 35, 0
2, 98400, Note_off_c, 9, 42, 0
2, 98496, Note_on_c, 9, 42, 50
2, 98592, Note_off_c, 9, 42, 0
2, 98688, Note_on_c, 9, 38, 115
2, 98688, Note_on_c, 9, 42, 100
2, 98784, Note_off_c, 9, 38, 0
2, 98784, Note_off_c, 9, 42, 0
2, 98880, Note_on_c, 9, 35, 100
2, 98880, Note_on_c, 9, 42, 60
2, 98976, Note_off_c, 9, 35, 0
2, 98976, Note_off_c, 9, 42, 0
2, 99072, Note_on_c, 9, 35, 115
2, 99072, Note_on_c, 9, 42, 115
2, 99168, Note_off_c, 9, 35, 0
2, 99168, Note_off_c, 9, 42, 0
2, 99264, Note_on_c, 9, 42, 55
2, 99360, Note_off_c, 9, 42, 0
2, 99456, Note_on_c, 9, 38, 115
2, 99456, Note_on_c, 9, 42, 100
2, 99552, Note_off_c, 9, 38, 0
2, 99552, Note_off_c, 9, 42, 0
2, 99648, Note_on_c, 9, 42, 70
2, 99744, Note_off_c, 9, 42, 0
2, 99840, Note_on_c, 9, 35, 115
2, 99840, Note_on_c, 9, 42, 115
2, 99936, Note_off_c, 9, 35, 0
2, 99936, Note_off_c, 9, 42, 0
2, 100032, Note_on_c, 9, 42, 50
2, 100128, Note_off_c, 9, 42, 0
2, 100224, Note_on_c, 9, 38, 115
2, 100224, Note_on_c, 9, 42, 100
2, 100320, Note_off_c, 9, 38, 0
2, 100320, Note_off_c, 9, 42, 0
2, 100416, Note_on_c, 9, 35, 100
2, 100416, Note_on_c, 9, 42, 60
2, 100512, Note_off_c, 9, 35, 0
2, 100512, Note_off_c, 9, 42, 0
2, 100608, Note_on_c, 9, 35, 115
2, 100608, Note_on_c, 9, 42, 115
2, 100704, Note_off_c, 9, 35, 0
2, 100704, Note_off_c, 9, 42, 0
2, 100800, Note_on_c, 9, 42, 55
2, 100896, Note_off_c, 9, 42, 0
2, 100992, Note_on_c, 9, 38, 115
2, 100992, Note_on_c, 9, 42, 100
2, 101088, Note_off_c, 9, 38, 0
2, 101088, Note_off_c, 9, 42, 0
2, 101184, Note_on_c, 9, 42, 70
2, 101280, Note_off_c, 9, 42, 0
2, 101376, Note_on_c, 9, 35, 115
2, 101376, Note_on_c, 9, 42, 115
2, 101472, Note_off_c, 9, 35, 0
2, 101472, Note_off_c, 9, 42, 0
2, 101568, Note_on_c, 9, 42, 50
2, 101664, Note_off_c, 9, 42, 0
2, 101760, Note_on_c, 9, 38, 115
2, 101760, Note_on_c, 9, 42, 100
2, 101856, Note_off_c, 9, 38, 0
2, 101856, Note_off_c, 9, 42, 0
2, 101952, Note_on_c, 9, 35, 100
2, 101952, Note_on_c, 9, 42, 60
2, 102048, Note_off_c, 9, 35, 0
2, 102048, Note_off_c, 9, 42, 0
2, 102144, Note_on_c, 9, 35, 115
2, 102144, Note_on_c, 9, 42, 115
2, 102240, Note_off_c, 9, 35, 0
2, 102240, Note_off_c, 9, 42, 0
2, 102336, Note_on_c, 9, 42, 55
2, 102432, Note_off_c, 9, 42, 0
2, 102528, Note_on_c, 9, 38, 115
2, 102528, Note_on_c, 9, 42, 100
2, 102624, Note_off_c, 9, 38, 0
2, 102624, Note_off_c, 9, 42, 0
2, 102720, Note_on_c, 9, 42, 70
2, 102816, Note_off_c, 9, 42, 0
2, 102912, Note_on_c, 9, 35, 115
2, 102912, Note_on_c, 9, 42, 115
2, 103008, Note_off_c, 9, 35, 0
2, 103008, Note_off_c, 9, 42, 0
2, 103104, Note_on_c, 9, 42, 50
2, 103200, Note_off_c, 9, 42, 0
2, 103296, Note_on_c, 9, 38, 115
2, 103296, Note_on_c, 9, 42, 100
2, 103392, Note_off_c, 9, 38, 0
2, 103392, Note_off_c, 9, 42, 0
2, 103488, Note_on_c, 9, 35, 100
2, 103488, Note_on_c, 9, 42, 60
2, 103584, Note_off_c, 9, 35, 0
2, 103584, Note_off_c, 9, 42, 0
2, 103680, Note_on_c, 9, 35, 115
2, 103680, Note_on_c, 9, 42, 115
2, 103776, Note_off_c, 9, 35, 0
2, 103776, Note_off_c, 9, 42, 0
2, 103872, Note_on_c, 9, 42, 55
2, 103968, Note_off_c, 9, 42, 0
2, 104064, Note_on_c, 9, 38, 115
2, 104064, Note_on_c, 9, 42, 100
2, 104160, Note_off_c, 9, 38, 0
2, 104160, Note_off_c, 9, 42, 0
2, 104256, Note_on_c, 9, 42, 70
2, 104352, Note_off_c, 9, 42, 0
2, 104448, Note_on_c, 9, 51, 127
2, 104448, Note_on_c, 9, 35, 115
2, 104448, Note_on_c, 9, 42, 115
2, 104524, Note_off_c, 9, 51, 0
2, 104524, Note_off_c, 9, 35, 0
2, 104524, Note_off_c, 9, 42, 0
2, 104640, Note_on_c, 9, 51, 127
2, 104640, Note_on_c, 9, 42, 50
2, 104736, Note_off_c, 9, 42, 0
2, 104792, Note_off_c, 9, 51, 0
2, 104832, Note_on_c, 9, 59, 127
2, 104832, Note_on_c, 9, 38, 115
2, 104832, Note_on_c, 9, 42, 100
2, 104928, Note_off_c, 9, 38, 0
2, 104928, Note_off_c, 9, 42, 0
2, 105024, Note_on_c, 9, 35, 100
2, 105024, Note_on_c, 9, 42, 60
2, 105120, Note_off_c, 9, 42, 0
2, 105136, Note_off_c, 9, 59, 0
2, 105176, Note_off_c, 9, 35, 0
2, 105216, Note_on_c, 9, 51, 127
2, 105216, Note_on_c, 9, 35, 115
2, 105216, Note_on_c, 9, 42, 115
2, 105292, Note_off_c, 9, 51, 0
2, 105292, Note_off_c, 9, 35, 0
2, 105292, Note_off_c, 9, 42, 0
2, 105408, Note_on_c, 9, 51, 127
2, 105408, Note_on_c, 9, 42, 55
2, 105504, Note_off_c, 9, 42, 0
2, 105560, Note_off_c, 9, 51, 0
2, 105600, Note_on_c, 9, 49, 85
2, 105600, Note_on_c, 9, 59, 127
2, 105600, Note_on_c, 9, 38, 115
2, 105600, Note_on_c, 9, 42, 100
2, 105696, Note_off_c, 9, 42, 0
2, 105752, Note_off_c, 9, 49, 0
2, 105752, Note_off_c, 9, 59, 0
2, 105752, Note_off_c, 9, 38, 0
2, 105792, Note_on_c, 9, 38, 100
2, 105792, Note_on_c, 9, 42, 70
2, 105888, Note_off_c, 9, 42, 0
2, 105944, Note_off_c, 9, 38, 0
2, 105984, Note_on_c, 9, 35, 115
2, 105984, Note_on_c, 9, 42, 115
2, 106080, Note_off_c, 9, 35, 0
2, 106080, Note_off_c, 9, 42, 0
2, 106176, Note_on_c, 9, 42, 50
2, 106272, Note_off_c, 9, 42, 0
2, 106368, Note_on_c, 9, 38, 115
2, 106368, Note_on_c, 9, 42, 100
2, 106464, Note_off_c, 9, 38, 0
2, 106464, Note_off_c, 9, 42, 0
2, 106560, Note_on_c, 9, 35, 100
2, 106560, Note_on_c, 9, 42, 60
2, 106656, Note_off_c, 9, 35, 0
2, 106656, Note_off_c, 9, 42, 0
2, 106752, Note_on_c, 9, 35, 115
2, 106752, Note_on_c, 9, 42, 115
2, 106848, Note_off_c, 9, 35, 0
2, 106848, Note_off_c, 9, 42, 0
2, 106944, Note_on_c, 9, 42, 55
2, 107040, Note_off_c, 9, 42, 0
2, 107136, Note_on_c, 9, 38, 115
2, 107136, Note_on_c, 9, 42, 100
2, 107232, Note_off_c, 9, 38, 0
2, 107232, Note_off_c, 9, 42, 0
2, 107328, Note_on_c, 9, 42, 70
2, 107424, Note_off_c, 9, 42, 0
2, 107520, Note_on_c, 9, 35, 115
2, 107520, Note_on_c, 9, 42, 115
2, 107616, Note_off_c, 9, 35, 0
2, 107616, Note_off_c, 9, 42, 0
2, 107712, Note_on_c, 9, 42, 50
2, 107808, Note_off_c, 9, 42, 0
2, 107904, Note_on_c, 9, 38, 115
2, 107904, Note_on_c, 9, 42, 100
2, 108000, Note_off_c, 9, 38, 0
2, 108000, Note_off_c, 9, 42, 0
2, 108096, Note_on_c, 9, 35, 100
2, 108096, Note_on_c, 9, 42, 60
2, 108192, Note_off_c, 9, 35, 0
2, 108192, Note_off_c, 9, 42, 0
2, 108288, Note_on_c, 9, 35, 115
2, 108288, Note_on_c, 9, 42, 115
2, 108384, Note_off_c, 9, 35, 0
2, 108384, Note_off_c, 9, 42, 0
2, 108480, Note_on_c, 9, 42, 55
2, 108576, Note_off_c, 9, 42, 0
2, 108672, Note_on_c, 9, 38, 115
2, 108672, Note_on_c, 9, 42, 100
2, 108768, Note_off_c, 9, 38, 0
2, 108768, Note_off_c, 9, 42, 0
2, 108864, Note_on_c, 9, 42, 70
2, 108960, Note_off_c, 9, 42, 0
2, 109056, Note_on_c, 9, 35, 115
2, 109056, Note_on_c, 9, 42, 115
2, 109152, Note_off_c, 9, 35, 0
2, 109152, Note_off_c, 9, 42, 0
2, 109248, Note_on_c, 9, 42, 50
2, 109344, Note_off_c, 9, 42, 0
2, 109440, Note_on_c, 9, 42, 100
2, 109536, Note_off_c, 9, 42, 0
2, 109632, Note_on_c, 9, 42, 60
2, 109728, Note_off_c, 9, 42, 0
2, 109824, Note_on_c, 9, 49, 85
2, 109824, Note_on_c, 9, 35, 115
2, 109824, Note_on_c, 9, 42, 115
2, 109920, Note_off_c, 9, 35, 0
2, 109920, Note_off_c, 9, 42, 0
2, 109976, Note_off_c, 9, 49, 0
2, 110016, Note_on_c, 9, 42, 55
2, 110112, Note_off_c, 9, 42, 0
2, 110208, Note_on_c, 9, 38, 115
2, 110208, Note_on_c, 9, 42, 100
2, 110304, Note_off_c, 9, 38, 0
2, 110304, Note_off_c, 9, 42, 0
2, 110400, Note_on_c, 9, 42, 70
2, 110496, Note_off_c, 9, 42, 0
2, 110592, Note_on_c, 9, 35, 115
2, 110592, Note_on_c, 9, 42, 115
2, 110688, Note_off_c, 9, 35, 0
2, 110688, Note_off_c, 9, 42, 0
2, 110784, Note_on_c, 9, 42, 50
2, 110880, Note_off_c, 9, 42, 0
2, 110976, Note_on_c, 9, 38, 115
2, 110976, Note_on_c, 9, 42, 100
2, 111072, Note_off_c, 9, 38, 0
2, 111072, Note_off_c, 9, 42, 0
2, 111168, Note_on_c, 9, 35, 100
2, 111168, Note_on_c, 9, 42, 60
2, 111264, Note_off_c, 9, 35, 0
2, 111264, Note_off_c, 9, 42, 0
2, 111360, Note_on_c, 9, 35, 115
2, 111360, Note_on_c, 9, 42, 115
2, 111456, Note_off_c, 9, 35, 0
2, 111456, Note_off_c, 9, 42, 0
2, 111552, Note_on_c, 9, 42, 55
2, 111648, Note_off_c, 9, 42, 0
2, 111744, Note_on_c, 9, 38, 115
2, 111744, Note_on_c, 9, 42, 100
2, 111840, Note_off_c, 9, 38, 0
2, 111840, Note_off_c, 9, 42, 0
2, 111936, Note_on_c, 9, 42, 70
2, 112032, Note_off_c, 9, 42, 0
2, 112128, Note_on_c, 9, 35, 115
2, 112128, Note_on_c, 9, 42, 115
2, 112224, Note_off_c, 9, 35, 0
2, 112224, Note_off_c, 9, 42, 0
2, 112320, Note_on_c, 9, 42, 50
2, 112416, Note_off_c, 9, 42, 0
2, 112512, Note_on_c, 9, 38, 115
2, 112512, Note_on_c, 9, 42, 100
2, 112608, Note_off_c, 9, 38, 0
2, 112608, Note_off_c, 9, 42, 0
2, 112704, Note_on_c, 9, 35, 100
2, 112704, Note_on_c, 9, 42, 60
2, 112800, Note_off_c, 9, 42, 0
2, 112856, Note_off_c, 9, 35, 0
2, 112896, Note_on_c, 9, 35, 115
2, 112896, Note_on_c, 9, 42, 115
2, 112992, Note_off_c, 9, 35, 0
2, 112992, Note_off_c, 9, 42, 0
2, 113088, Note_on_c, 9, 42, 55
2, 113184, Note_off_c, 9, 42, 0
2, 113280, Note_on_c, 9, 38, 115
2, 113280, Note_on_c, 9, 42, 100
2, 113376, Note_off_c, 9, 38, 0
2, 113376, Note_off_c, 9, 42, 0
2, 113472, Note_on_c, 9, 42, 70
2, 113568, Note_off_c, 9, 42, 0
2, 113664, Note_on_c, 9, 35, 115
2, 113664, Note_on_c, 9, 42, 115
2, 113760, Note_off_c, 9, 35, 0
2, 113760, Note_off_c, 9, 42, 0
2, 113856, Note_on_c, 9, 42, 50
2, 113952, Note_off_c, 9, 42, 0
2, 114048, Note_on_c, 9, 38, 115
2, 114048, Note_on_c, 9, 42, 100
2, 114144, Note_off_c, 9, 38, 0
2, 114144, Note_off_c, 9, 42, 0
2, 114240, Note_on_c, 9, 35, 100
2, 114240, Note_on_c, 9, 42, 60
2, 114336, Note_off_c, 9, 35, 0
2, 114336, Note_off_c, 9, 42, 0
2, 114432, Note_on_c, 9, 35, 115
2, 114432, Note_on_c, 9, 42, 115
2, 114528, Note_off_c, 9, 35, 0
2, 114528, Note_off_c, 9, 42, 0
2, 114624, Note_on_c, 9, 42, 55
2, 114720, Note_off_c, 9, 42, 0
2, 114816, Note_on_c, 9, 38, 115
2, 114816, Note_on_c, 9, 42, 100
2, 114912, Note_off_c, 9, 38, 0
2, 114912, Note_off_c, 9, 42, 0
2, 115008, Note_on_c, 9, 42, 70
2, 115104, Note_off_c, 9, 42, 0
2, 115200, Note_on_c, 9, 35, 115
2, 115200, Note_on_c, 9, 42, 115
2, 115296, Note_off_c, 9, 35, 0
2, 115296, Note_off_c, 9, 42, 0
2, 115392, Note_on_c, 9, 42, 50
2, 115488, Note_off_c, 9, 42, 0
2, 115584, Note_on_c, 9, 42, 100
2, 115680, Note_off_c, 9, 42, 0
2, 115776, Note_on_c, 9, 42, 60
2, 115872, Note_off_c, 9, 42, 0
2, 115968, Note_on_c, 9, 49, 85
2, 115968, Note_on_c, 9, 35, 115
2, 115968, Note_on_c, 9, 42, 115
2, 116064, Note_off_c, 9, 35, 0
2, 116064, Note_off_c, 9, 42, 0
2, 116120, Note_off_c, 9, 49, 0
2, 116160, Note_on_c, 9, 42, 55
2, 116256, Note_off_c, 9, 42, 0
2, 116352, Note_on_c, 9, 38, 115
2, 116352, Note_on_c, 9, 42, 100
2, 116448, Note_off_c, 9, 38, 0
2, 116448, Note_off_c, 9, 42, 0
2, 116544, Note_on_c, 9, 42, 70
2, 116640, Note_off_c, 9, 42, 0
2, 116736, Note_on_c, 9, 35, 115
2, 116736, Note_on_c, 9, 42, 115
2, 116832, Note_off_c, 9, 35, 0
2, 116832, Note_off_c, 9, 42, 0
2, 116928, Note_on_c, 9, 42, 50
2, 117024, Note_off_c, 9, 42, 0
2, 117120, Note_on_c, 9, 38, 115
2, 117120, Note_on_c, 9, 42, 100
2, 117216, Note_off_c, 9, 38, 0
2, 117216, Note_off_c, 9, 42, 0
2, 117312, Note_on_c, 9, 35, 100
2, 117312, Note_on_c, 9, 42, 60
2, 117408, Note_off_c, 9, 35, 0
2, 117408, Note_off_c, 9, 42, 0
2, 117504, Note_on_c, 9, 35, 115
2, 117504, Note_on_c, 9, 42, 115
2, 117600, Note_off_c, 9, 35, 0
2, 117600, Note_off_c, 9, 42, 0
2, 117696, Note_on_c, 9, 42, 55
2, 117792, Note_off_c, 9, 42, 0
2, 117888, Note_on_c, 9, 36, 115
2, 117888, Note_on_c, 9, 49, 85
2, 117888, Note_on_c, 9, 38, 115
2, 117888, Note_on_c, 9, 42, 100
2, 117984, Note_off_c, 9, 42, 0
2, 118040, Note_off_c, 9, 36, 0
2, 118040, Note_off_c, 9, 49, 0
2, 118040, Note_off_c, 9, 38, 0
2, 118080, Note_on_c, 9, 36, 100
2, 118080, Note_on_c, 9, 38, 100
2, 118080, Note_on_c, 9, 42, 70
2, 118176, Note_off_c, 9, 42, 0
2, 118232, Note_off_c, 9, 36, 0
2, 118232, Note_off_c, 9, 38, 0
2, 118272, Note_on_c, 9, 35, 115
2, 118272, Note_on_c, 9, 42, 115
2, 118368, Note_off_c, 9, 35, 0
2, 118368, Note_off_c, 9, 42, 0
2, 118464, Note_on_c, 9, 42, 50
2, 118560, Note_off_c, 9, 42, 0
2, 118656, Note_on_c, 9, 38, 115
2, 118656, Note_on_c, 9, 42, 100
2, 118752, Note_off_c, 9, 38, 0
2, 118752, Note_off_c, 9, 42, 0
2, 118848, Note_on_c, 9, 35, 100
2, 118848, Note_on_c, 9, 42, 60
2, 118944, Note_off_c, 9, 35, 0
2, 118944, Note_off_c, 9, 42, 0
2, 119040, Note_on_c, 9, 35, 115
2, 119040, Note_on_c, 9, 42, 115
2, 119136, Note_off_c, 9, 35, 0
2, 119136, Note_off_c, 9, 42, 0
2, 119232, Note_on_c, 9, 42, 55
2, 119328, Note_off_c, 9, 42, 0
2, 119424, Note_on_c, 9, 38, 115
2, 119424, Note_on_c, 9, 42, 100
2, 119520, Note_off_c, 9, 38, 0
2, 119520, Note_off_c, 9, 42, 0
2, 119616, Note_on_c, 9, 42, 70
2, 119712, Note_off_c, 9, 42, 0
2, 119808, Note_on_c, 9, 35, 115
2, 119808, Note_on_c, 9, 42, 115
2, 119904, Note_off_c, 9, 35, 0
2, 119904, Note_off_c, 9, 42, 0
2, 120000, Note_on_c, 9, 42, 50
2, 120096, Note_off_c, 9, 42, 0
2, 120192, Note_on_c, 9, 38, 115
2, 120192, Note_on_c, 9, 42, 100
2, 120288, Note_off_c, 9, 38, 0
2, 120288, Note_off_c, 9, 42, 0
2, 120384, Note_on_c, 9, 35, 100
2, 120384, Note_on_c, 9, 42, 60
2, 120480, Note_off_c, 9, 35, 0
2, 120480, Note_off_c, 9, 42, 0
2, 120576, Note_on_c, 9, 35, 115
2, 120576, Note_on_c, 9, 42, 115
2, 120672, Note_off_c, 9, 35, 0
2, 120672, Note_off_c, 9, 42, 0
2, 120768, Note_on_c, 9, 42, 55
2, 120864, Note_off_c, 9, 42, 0
2, 120960, Note_on_c, 9, 38, 115
2, 120960, Note_on_c, 9, 42, 100
2, 121056, Note_off_c, 9, 38, 0
2, 121056, Note_off_c, 9, 42, 0
2, 121152, Note_on_c, 9, 42, 70
2, 121248, Note_off_c, 9, 42, 0
2, 121344, Note_on_c, 9, 35, 115
2, 121344, Note_on_c, 9, 42, 115
2, 121440, Note_off_c, 9, 35, 0
2, 121440, Note_off_c, 9, 42, 0
2, 121536, Note_on_c, 9, 42, 50
2, 121632, Note_off_c, 9, 42, 0
2, 121728, Note_on_c, 9, 38, 115
2, 121728, Note_on_c, 9, 42, 100
2, 121824, Note_off_c, 9, 38, 0
2, 121824, Note_off_c, 9, 42, 0
2, 121920, Note_on_c, 9, 35, 100
2, 121920, Note_on_c, 9, 42, 60
2, 122016, Note_off_c, 9, 35, 0
2, 122016, Note_off_c, 9, 42, 0
2, 122112, Note_on_c, 9, 35, 115
2, 122112, Note_on_c, 9, 42, 115
2, 122208, Note_off_c, 9, 35, 0
2, 122208, Note_off_c, 9, 42, 0
2, 122304, Note_on_c, 9, 42, 55
2, 122400, Note_off_c, 9, 42, 0
2, 122496, Note_on_c, 9, 38, 115
2, 122496, Note_on_c, 9, 42, 100
2, 122592, Note_off_c, 9, 38, 0
2, 122592, Note_off_c, 9, 42, 0
2, 122688, Note_on_c, 9, 42, 70
2, 122784, Note_off_c, 9, 42, 0
2, 122880, Note_on_c, 9, 35, 115
2, 122880, Note_on_c, 9, 42, 115
2, 122976, Note_off_c, 9, 35, 0
2, 122976, Note_off_c, 9, 42, 0
2, 123072, Note_on_c, 9, 42, 50
2, 123168, Note_off_c, 9, 42, 0
2, 123264, Note_on_c, 9, 38, 115
2, 123264, Note_on_c, 9, 42, 100
2, 123360, Note_off_c, 9, 38, 0
2, 123360, Note_off_c, 9, 42, 0
2, 123456, Note_on_c, 9, 35, 100
2, 123456, Note_on_c, 9, 42, 60
2, 123552, Note_off_c, 9, 35, 0
2, 123552, Note_off_c, 9, 42, 0
2, 123648, Note_on_c, 9, 35, 115
2, 123648, Note_on_c, 9, 42, 115
2, 123744, Note_off_c, 9, 35, 0
2, 123744, Note_off_c, 9, 42, 0
2, 123840, Note_on_c, 9, 42, 55
2, 123936, Note_off_c, 9, 42, 0
2, 124032, Note_on_c, 9, 38, 115
2, 124032, Note_on_c, 9, 42, 100
2, 124128, Note_off_c, 9, 38, 0
2, 124128, Note_off_c, 9, 42, 0
2, 124224, Note_on_c, 9, 42, 70
2, 124320, Note_off_c, 9, 42, 0
2, 124416, Note_on_c, 9, 35, 115
2, 124416, Note_on_c, 9, 42, 115
2, 124512, Note_off_c, 9, 35, 0
2, 124512, Note_off_c, 9, 42, 0
2, 124608, Note_on_c, 9, 42, 50
2, 124704, Note_off_c, 9, 42, 0
2, 124800, Note_on_c, 9, 38, 115
2, 124800, Note_on_c, 9, 42, 100
2, 124896, Note_off_c, 9, 38, 0
2, 124896, Note_off_c, 9, 42, 0
2, 124992, Note_on_c, 9, 35, 100
2, 124992, Note_on_c, 9, 42, 60
2, 125088, Note_off_c, 9, 35, 0
2, 125088, Note_off_c, 9, 42, 0
2, 125184, Note_on_c, 9, 35, 115
2, 125184, Note_on_c, 9, 42, 115
2, 125280, Note_off_c, 9, 35, 0
2, 125280, Note_off_c, 9, 42, 0
2, 125376, Note_on_c, 9, 42, 55
2, 125472, Note_off_c, 9, 42, 0
2, 125568, Note_on_c, 9, 38, 115
2, 125568, Note_on_c, 9, 42, 100
2, 125664, Note_off_c, 9, 38, 0
2, 125664, Note_off_c, 9, 42, 0
2, 125760, Note_on_c, 9, 42, 70
2, 125856, Note_off_c, 9, 42, 0
2, 125952, Note_on_c, 9, 35, 115
2, 125952, Note_on_c, 9, 42, 115
2, 126048, Note_off_c, 9, 35, 0
2, 126048, Note_off_c, 9, 42, 0
2, 126144, Note_on_c, 9, 42, 50
2, 126240, Note_off_c, 9, 42, 0
2, 126336, Note_on_c, 9, 38, 115
2, 126336, Note_on_c, 9, 42, 100
2, 126432, Note_off_c, 9, 38, 0
2, 126432, Note_off_c, 9, 42, 0
2, 126528, Note_on_c, 9, 35, 100
2, 126528, Note_on_c, 9, 42, 60
2, 126624, Note_off_c, 9, 35, 0
2, 126624, Note_off_c, 9, 42, 0
2, 126720, Note_on_c, 9, 35, 115
2, 126720, Note_on_c, 9, 42, 115
2, 126816, Note_off_c, 9, 35, 0
2, 126816, Note_off_c, 9, 42, 0
2, 126912, Note_on_c, 9, 42, 55
2, 127008, Note_off_c, 9, 42, 0
2, 127104, Note_on_c, 9, 38, 115
2, 127104, Note_on_c, 9, 42, 100
2, 127200, Note_off_c, 9, 38, 0
2, 127200, Note_off_c, 9, 42, 0
2, 127296, Note_on_c, 9, 42, 70
2, 127392, Note_off_c, 9, 42, 0
2, 127488, Note_on_c, 9, 35, 115
2, 127488, Note_on_c, 9, 42, 115
2, 127584, Note_off_c, 9, 35, 0
2, 127584, Note_off_c, 9, 42, 0
2, 127680, Note_on_c, 9, 42, 50
2, 127776, Note_off_c, 9, 42, 0
2, 127872, Note_on_c, 9, 42, 100
2, 127968, Note_off_c, 9, 42, 0
2, 128064, Note_on_c, 9, 42, 60
2, 128160, Note_off_c, 9, 42, 0
2, 128256, Note_on_c, 9, 49, 75
2, 128256, Note_on_c, 9, 35, 115
2, 128256, Note_on_c, 9, 42, 115
2, 128352, Note_off_c, 9, 35, 0
2, 128352, Note_off_c, 9, 42, 0
2, 128408, Note_off_c, 9, 49, 0
2, 128448, Note_on_c, 9, 42, 55
2, 128544, Note_off_c, 9, 42, 0
2, 128640, Note_on_c, 9, 38, 115
2, 128640, Note_on_c, 9, 42, 100
2, 128736, Note_off_c, 9, 38, 0
2, 128736, Note_off_c, 9, 42, 0
2, 128832, Note_on_c, 9, 42, 70
2, 128928, Note_off_c, 9, 42, 0
2, 129024, Note_on_c, 9, 35, 115
2, 129024, Note_on_c, 9, 42, 115
2, 129120, Note_off_c, 9, 35, 0
2, 129120, Note_off_c, 9, 42, 0
2, 129216, Note_on_c, 9, 42, 50
2, 129312, Note_off_c, 9, 42, 0
2, 129408, Note_on_c, 9, 38, 115
2, 129408, Note_on_c, 9, 42, 100
2, 129504, Note_off_c, 9, 38, 0
2, 129504, Note_off_c, 9, 42, 0
2, 129600, Note_on_c, 9, 35, 100
2, 129600, Note_on_c, 9, 42, 60
2, 129696, Note_off_c, 9, 35, 0
2, 129696, Note_off_c, 9, 42, 0
2, 129792, Note_on_c, 9, 35, 115
2, 129792, Note_on_c, 9, 42, 115
2, 129888, Note_off_c, 9, 35, 0
2, 129888, Note_off_c, 9, 42, 0
2, 129984, Note_on_c, 9, 42, 55
2, 130080, Note_off_c, 9, 42, 0
2, 130176, Note_on_c, 9, 57, 75
2, 130176, Note_on_c, 9, 38, 115
2, 130176, Note_on_c, 9, 42, 100
2, 130272, Note_off_c, 9, 42, 0
2, 130328, Note_off_c, 9, 57, 0
2, 130328, Note_off_c, 9, 38, 0
2, 130368, Note_on_c, 9, 38, 100
2, 130368, Note_on_c, 9, 42, 70
2, 130464, Note_off_c, 9, 42, 0
2, 130520, Note_off_c, 9, 38, 0
2, 130560, Note_on_c, 9, 35, 90
2, 130560, Note_on_c, 9, 42, 90
2, 130656, Note_off_c, 9, 35, 0
2, 130656, Note_off_c, 9, 42, 0
2, 130656, Note_on_c, 9, 42, 70
2, 130752, Note_off_c, 9, 42, 0
2, 130752, Note_on_c, 9, 42, 70
2, 130848, Note_off_c, 9, 42, 0
2, 130944, Note_on_c, 9, 38, 100
2, 130944, Note_on_c, 9, 42, 100
2, 131040, Note_off_c, 9, 38, 0
2, 131040, Note_off_c, 9, 42, 0
2, 131136, Note_on_c, 9, 35, 80
2, 131136, Note_on_c, 9, 42, 70
2, 131232, Note_off_c, 9, 35, 0
2, 131232, Note_off_c, 9, 42, 0
2, 131328, Note_on_c, 9, 35, 100
2, 131328, Note_on_c, 9, 42, 90
2, 131424, Note_off_c, 9, 35, 0
2, 131424, Note_off_c, 9, 42, 0
2, 131520, Note_on_c, 9, 42, 70
2, 131616, Note_off_c, 9, 42, 0
2, 131712, Note_on_c, 9, 38, 100
2, 131712, Note_on_c, 9, 42, 100
2, 131808, Note_off_c, 9, 38, 0
2, 131808, Note_off_c, 9, 42, 0
2, 131904, Note_on_c, 9, 35, 70
2, 131904, Note_on_c, 9, 42, 70
2, 132000, Note_off_c, 9, 35, 0
2, 132000, Note_off_c, 9, 42, 0
2, 132000, Note_on_c, 9, 46, 70
2, 132096, Note_off_c, 9, 46, 0
2, 132096, Note_on_c, 9, 35, 90
2, 132096, Note_on_c, 9, 42, 90
2, 132192, Note_off_c, 9, 35, 0
2, 132192, Note_off_c, 9, 42, 0
2, 132288, Note_on_c, 9, 42, 70
2, 132384, Note_off_c, 9, 42, 0
2, 132480, Note_on_c, 9, 38, 100
2, 132480, Note_on_c, 9, 42, 100
2, 132576, Note_off_c, 9, 38, 0
2, 132576, Note_off_c, 9, 42, 0
2, 132672, Note_on_c, 9, 35, 80
2, 132672, Note_on_c, 9, 42, 100
2, 132768, Note_off_c, 9, 35, 0
2, 132768, Note_off_c, 9, 42, 0
2, 132864, Note_on_c, 9, 35, 100
2, 132864, Note_on_c, 9, 42, 90
2, 132960, Note_off_c, 9, 35, 0
2, 132960, Note_off_c, 9, 42, 0
2, 133056, Note_on_c, 9, 35, 90
2, 133056, Note_on_c, 9, 42, 70
2, 133152, Note_off_c, 9, 35, 0
2, 133152, Note_off_c, 9, 42, 0
2, 133248, Note_on_c, 9, 38, 100
2, 133248, Note_on_c, 9, 42, 100
2, 133344, Note_off_c, 9, 38, 0
2, 133344, Note_off_c, 9, 42, 0
2, 133440, Note_on_c, 9, 35, 70
2, 133440, Note_on_c, 9, 42, 70
2, 133536, Note_off_c, 9, 35, 0
2, 133536, Note_off_c, 9, 42, 0
2, 133632, Note_on_c, 9, 35, 90
2, 133632, Note_on_c, 9, 42, 90
2, 133728, Note_off_c, 9, 35, 0
2, 133728, Note_off_c, 9, 42, 0
2, 133728, Note_on_c, 9, 42, 70
2, 133824, Note_off_c, 9, 42, 0
2, 133824, Note_on_c, 9, 42, 70
2, 133920, Note_off_c, 9, 42, 0
2, 134016, Note_on_c, 9, 38, 100
2, 134016, Note_on_c, 9, 42, 100
2, 134112, Note_off_c, 9, 38, 0
2, 134112, Note_off_c, 9, 42, 0
2, 134208, Note_on_c, 9, 35, 80
2, 134208, Note_on_c, 9, 42, 70
2, 134304, Note_off_c, 9, 35, 0
2, 134304, Note_off_c, 9, 42, 0
2, 134400, Note_on_c, 9, 35, 100
2, 134400, Note_on_c, 9, 42, 90
2, 134496, Note_off_c, 9, 35, 0
2, 134496, Note_off_c, 9, 42, 0
2, 134592, Note_on_c, 9, 42, 70
2, 134688, Note_off_c, 9, 42, 0
2, 134784, Note_on_c, 9, 38, 100
2, 134784, Note_on_c, 9, 42, 100
2, 134880, Note_off_c, 9, 38, 0
2, 134880, Note_off_c, 9, 42, 0
2, 134976, Note_on_c, 9, 35, 70
2, 134976, Note_on_c, 9, 42, 70
2, 135072, Note_off_c, 9, 35, 0
2, 135072, Note_off_c, 9, 42, 0
2, 135072, Note_on_c, 9, 46, 70
2, 135168, Note_off_c, 9, 46, 0
2, 135168, Note_on_c, 9, 35, 90
2, 135168, Note_on_c, 9, 42, 90
2, 135264, Note_off_c, 9, 35, 0
2, 135264, Note_off_c, 9, 42, 0
2, 135360, Note_on_c, 9, 42, 70
2, 135456, Note_off_c, 9, 42, 0
2, 135552, Note_on_c, 9, 38, 100
2, 135552, Note_on_c, 9, 42, 100
2, 135648, Note_off_c, 9, 38, 0
2, 135648, Note_off_c, 9, 42, 0
2, 135744, Note_on_c, 9, 35, 80
2, 135744, Note_on_c, 9, 42, 100
2, 135840, Note_off_c, 9, 35, 0
2, 135840, Note_off_c, 9, 42, 0
2, 135936, Note_on_c, 9, 35, 100
2, 135936, Note_on_c, 9, 42, 90
2, 136032, Note_off_c, 9, 35, 0
2, 136032, Note_off_c, 9, 42, 0
2, 136128, Note_on_c, 9, 35, 90
2, 136128, Note_on_c, 9, 42, 70
2, 136224, Note_off_c, 9, 35, 0
2, 136224, Note_off_c, 9, 42, 0
2, 136320, Note_on_c, 9, 38, 100
2, 136320, Note_on_c, 9, 42, 100
2, 136416, Note_off_c, 9, 38, 0
2, 136416, Note_off_c, 9, 42, 0
2, 136512, Note_on_c, 9, 35, 70
2, 136512, Note_on_c, 9, 42, 70
2, 136608, Note_off_c, 9, 35, 0
2, 136608, Note_off_c, 9, 42, 0
2, 136704, Note_on_c, 9, 35, 90
2, 136704, Note_on_c, 9, 42, 90
2, 136800, Note_off_c, 9, 35, 0
2, 136800, Note_off_c, 9, 42, 0
2, 136800, Note_on_c, 9, 42, 70
2, 136896, Note_off_c, 9, 42, 0
2, 136896, Note_on_c, 9, 42, 70
2, 136992, Note_off_c, 9, 42, 0
2, 137088, Note_on_c, 9, 38, 100
2, 137088, Note_on_c, 9, 42, 100
2, 137184, Note_off_c, 9, 38, 0
2, 137184, Note_off_c, 9, 42, 0
2, 137280, Note_on_c, 9, 35, 80
2, 137280, Note_on_c, 9, 42, 70
2, 137376, Note_off_c, 9, 35, 0
2, 137376, Note_off_c, 9, 42, 0
2, 137472, Note_on_c, 9, 35, 100
2, 137472, Note_on_c, 9, 42, 90
2, 137568, Note_off_c, 9, 35, 0
2, 137568, Note_off_c, 9, 42, 0
2, 137664, Note_on_c, 9, 42, 70
2, 137760, Note_off_c, 9, 42, 0
2, 137856, Note_on_c, 9, 38, 100
2, 137856, Note_on_c, 9, 42, 100
2, 137952, Note_off_c, 9, 38, 0
2, 137952, Note_off_c, 9, 42, 0
2, 138048, Note_on_c, 9, 35, 70
2, 138048, Note_on_c, 9, 42, 70
2, 138144, Note_off_c, 9, 35, 0
2, 138144, Note_off_c, 9, 42, 0
2, 138144, Note_on_c, 9, 46, 70
2, 138240, Note_off_c, 9, 46, 0
2, 138240, Note_on_c, 9, 35, 90
2, 138240, Note_on_c, 9, 42, 90
2, 138336, Note_off_c, 9, 35, 0
2, 138336, Note_off_c, 9, 42, 0
2, 138432, Note_on_c, 9, 42, 70
2, 138528, Note_off_c, 9, 42, 0
2, 138624, Note_on_c, 9, 38, 100
2, 138624, Note_on_c, 9, 42, 100
2, 138720, Note_off_c, 9, 38, 0
2, 138720, Note_off_c, 9, 42, 0
2, 138816, Note_on_c, 9, 35, 80
2, 138816, Note_on_c, 9, 42, 100
2, 138912, Note_off_c, 9, 35, 0
2, 138912, Note_off_c, 9, 42, 0
2, 139008, Note_on_c, 9, 35, 100
2, 139008, Note_on_c, 9, 42, 90
2, 139104, Note_off_c, 9, 35, 0
2, 139104, Note_off_c, 9, 42, 0
2, 139200, Note_on_c, 9, 35, 90
2, 139200, Note_on_c, 9, 42, 70
2, 139296, Note_off_c, 9, 35, 0
2, 139296, Note_off_c, 9, 42, 0
2, 139392, Note_on_c, 9, 38, 100
2, 139392, Note_on_c, 9, 42, 100
2, 139488, Note_off_c, 9, 38, 0
2, 139488, Note_off_c, 9, 42, 0
2, 139584, Note_on_c, 9, 35, 70
2, 139584, Note_on_c, 9, 42, 70
2, 139680, Note_off_c, 9, 35, 0
2, 139680, Note_off_c, 9, 42, 0
2, 139776, Note_on_c, 9, 35, 90
2, 139776, Note_on_c, 9, 42, 90
2, 139872, Note_off_c, 9, 35, 0
2, 139872, Note_off_c, 9, 42, 0
2, 139872, Note_on_c, 9, 42, 70
2, 139968, Note_off_c, 9, 42, 0
2, 139968, Note_on_c, 9, 42, 70
2, 140064, Note_off_c, 9, 42, 0
2, 140160, Note_on_c, 9, 38, 100
2, 140160, Note_on_c, 9, 42, 100
2, 140256, Note_off_c, 9, 38, 0
2, 140256, Note_off_c, 9, 42, 0
2, 140352, Note_on_c, 9, 35, 80
2, 140352, Note_on_c, 9, 42, 70
2, 140448, Note_off_c, 9, 35, 0
2, 140448, Note_off_c, 9, 42, 0
2, 140544, Note_on_c, 9, 35, 100
2, 140544, Note_on_c, 9, 42, 90
2, 140640, Note_off_c, 9, 35, 0
2, 140640, Note_off_c, 9, 42, 0
2, 140736, Note_on_c, 9, 42, 70
2, 140832, Note_off_c, 9, 42, 0
2, 140928, Note_on_c, 9, 38, 100
2, 140928, Note_on_c, 9, 42, 100
2, 141024, Note_off_c, 9, 38, 0
2, 141024, Note_off_c, 9, 42, 0
2, 141120, Note_on_c, 9, 35, 70
2, 141120, Note_on_c, 9, 42, 70
2, 141216, Note_off_c, 9, 35, 0
2, 141216, Note_off_c, 9, 42, 0
2, 141216, Note_on_c, 9, 46, 70
2, 141312, Note_off_c, 9, 46, 0
2, 141312, Note_on_c, 9, 35, 90
2, 141312, Note_on_c, 9, 42, 90
2, 141408, Note_off_c, 9, 35, 0
2, 141408, Note_off_c, 9, 42, 0
2, 141504, Note_on_c, 9, 42, 70
2, 141600, Note_off_c, 9, 42, 0
2, 141696, Note_on_c, 9, 38, 100
2, 141696, Note_on_c, 9, 42, 100
2, 141792, Note_off_c, 9, 38, 0
2, 141792, Note_off_c, 9, 42, 0
2, 141888, Note_on_c, 9, 35, 80
2, 141888, Note_on_c, 9, 42, 100
2, 141984, Note_off_c, 9, 35, 0
2, 141984, Note_off_c, 9, 42, 0
2, 142080, Note_on_c, 9, 35, 100
2, 142080, Note_on_c, 9, 42, 90
2, 142176, Note_off_c, 9, 35, 0
2, 142176, Note_off_c, 9, 42, 0
2, 142272, Note_on_c, 9, 35, 90
2, 142272, Note_on_c, 9, 42, 70
2, 142368, Note_off_c, 9, 35, 0
2, 142368, Note_off_c, 9, 42, 0
2, 142464, Note_on_c, 9, 38, 100
2, 142464, Note_on_c, 9, 42, 100
2, 142560, Note_off_c, 9, 38, 0
2, 142560, Note_off_c, 9, 42, 0
2, 142656, Note_on_c, 9, 35, 70
2, 142656, Note_on_c, 9, 42, 70
2, 142752, Note_off_c, 9, 35, 0
2, 142752, Note_off_c, 9, 42, 0
2, 142848, Note_on_c, 9, 35, 90
2, 142848, Note_on_c, 9, 42, 90
2, 142944, Note_off_c, 9, 35, 0
2, 142944, Note_off_c, 9, 42, 0
2, 142944, Note_on_c, 9, 42, 70
2, 143040, Note_off_c, 9, 42, 0
2, 143040, Note_on_c, 9, 42, 70
2, 143136, Note_off_c, 9, 42, 0
2, 143232, Note_on_c, 9, 38, 100
2, 143232, Note_on_c, 9, 42, 100
2, 143328, Note_off_c, 9, 38, 0
2, 143328, Note_off_c, 9, 42, 0
2, 143424, Note_on_c, 9, 35, 80
2, 143424, Note_on_c, 9, 42, 70
2, 143520, Note_off_c, 9, 35, 0
2, 143520, Note_off_c, 9, 42, 0
2, 143616, Note_on_c, 9, 35, 100
2, 143616, Note_on_c, 9, 42, 90
2, 143712, Note_off_c, 9, 35, 0
2, 143712, Note_off_c, 9, 42, 0
2, 143808, Note_on_c, 9, 42, 70
2, 143904, Note_off_c, 9, 42, 0
2, 144000, Note_on_c, 9, 38, 100
2, 144000, Note_on_c, 9, 42, 100
2, 144096, Note_off_c, 9, 38, 0
2, 144096, Note_off_c, 9, 42, 0
2, 144192, Note_on_c, 9, 35, 70
2, 144192, Note_on_c, 9, 42, 70
2, 144288, Note_off_c, 9, 35, 0
2, 144288, Note_off_c, 9, 42, 0
2, 144288, Note_on_c, 9, 46, 70
2, 144384, Note_off_c, 9, 46, 0
2, 144384, Note_on_c, 9, 35, 90
2, 144384, Note_on_c, 9, 42, 90
2, 144480, Note_off_c, 9, 35, 0
2, 144480, Note_off_c, 9, 42, 0
2, 144576, Note_on_c, 9, 42, 70
2, 144672, Note_off_c, 9, 42, 0
2, 144768, Note_on_c, 9, 38, 100
2, 144768, Note_on_c, 9, 42, 100
2, 144864, Note_off_c, 9, 38, 0
2, 144864, Note_off_c, 9, 42, 0
2, 144960, Note_on_c, 9, 35, 80
2, 144960, Note_on_c, 9, 42, 100
2, 145056, Note_off_c, 9, 35, 0
2, 145056, Note_off_c, 9, 42, 0
2, 145152, Note_on_c, 9, 35, 100
2, 145152, Note_on_c, 9, 42, 90
2, 145248, Note_off_c, 9, 35, 0
2, 145248, Note_off_c, 9, 42, 0
2, 145344, Note_on_c, 9, 35, 90
2, 145344, Note_on_c, 9, 42, 70
2, 145440, Note_off_c, 9, 35, 0
2, 145440, Note_off_c, 9, 42, 0
2, 145536, Note_on_c, 9, 38, 100
2, 145536, Note_on_c, 9, 42, 100
2, 145632, Note_off_c, 9, 38, 0
2, 145632, Note_off_c, 9, 42, 0
2, 145728, Note_on_c, 9, 35, 70
2, 145728, Note_on_c, 9, 42, 70
2, 145824, Note_off_c, 9, 35, 0
2, 145824, Note_off_c, 9, 42, 0
2, 145920, Note_on_c, 9, 35, 90
2, 145920, Note_on_c, 9, 42, 90
2, 146016, Note_off_c, 9, 35, 0
2, 146016, Note_off_c, 9, 42, 0
2, 146016, Note_on_c, 9, 42, 70
2, 146112, Note_off_c, 9, 42, 0
2, 146112, Note_on_c, 9, 42, 70
2, 146208, Note_off_c, 9, 42, 0
2, 146304, Note_on_c, 9, 38, 100
2, 146304, Note_on_c, 9, 42, 100
2, 146400, Note_off_c, 9, 38, 0
2, 146400, Note_off_c, 9, 42, 0
2, 146496, Note_on_c, 9, 35, 80
2, 146496, Note_on_c, 9, 42, 70
2, 146592, Note_off_c, 9, 35, 0
2, 146592, Note_off_c, 9, 42, 0
2, 146688, Note_on_c, 9, 35, 100
2, 146688, Note_on_c, 9, 42, 90
2, 146784, Note_off_c, 9, 35, 0
2, 146784, Note_off_c, 9, 42, 0
2, 146880, Note_on_c, 9, 42, 70
2, 146976, Note_off_c, 9, 42, 0
2, 147072, Note_on_c, 9, 38, 100
2, 147072, Note_on_c, 9, 42, 100
2, 147168, Note_off_c, 9, 38, 0
2, 147168, Note_off_c, 9, 42, 0
2, 147264, Note_on_c, 9, 35, 70
2, 147264, Note_on_c, 9, 42, 70
2, 147360, Note_off_c, 9, 35, 0
2, 147360, Note_off_c, 9, 42, 0
2, 147360, Note_on_c, 9, 46, 70
2, 147456, Note_off_c, 9, 46, 0
2, 147456, Note_on_c, 9, 35, 90
2, 147456, Note_on_c, 9, 42, 90
2, 147552, Note_off_c, 9, 35, 0
2, 147552, Note_off_c, 9, 42, 0
2, 147648, Note_on_c, 9, 42, 70
2, 147744, Note_off_c, 9, 42, 0
2, 147840, Note_on_c, 9, 38, 100
2, 147840, Note_on_c, 9, 42, 100
2, 147936, Note_off_c, 9, 38, 0
2, 147936, Note_off_c, 9, 42, 0
2, 148032, Note_on_c, 9, 35, 80
2, 148032, Note_on_c, 9, 42, 100
2, 148128, Note_off_c, 9, 35, 0
2, 148128, Note_off_c, 9, 42, 0
2, 148224, Note_on_c, 9, 35, 100
2, 148224, Note_on_c, 9, 42, 90
2, 148320, Note_off_c, 9, 35, 0
2, 148320, Note_off_c, 9, 42, 0
2, 148416, Note_on_c, 9, 35, 90
2, 148416, Note_on_c, 9, 42, 70
2, 148512, Note_off_c, 9, 42, 0
2, 148568, Note_off_c, 9, 35, 0
2, 148608, Note_on_c, 9, 49, 100
2, 148608, Note_on_c, 9, 38, 100
2, 148608, Note_on_c, 9, 42, 100
2, 148704, Note_off_c, 9, 42, 0
2, 148760, Note_off_c, 9, 49, 0
2, 148760, Note_off_c, 9, 38, 0
2, 148800, Note_on_c, 9, 38, 100
2, 148800, Note_on_c, 9, 35, 70
2, 148800, Note_on_c, 9, 42, 70
2, 148896, Note_off_c, 9, 35, 0
2, 148896, Note_off_c, 9, 42, 0
2, 148952, Note_off_c, 9, 38, 0
2, 148992, Note_on_c, 9, 36, 122
2, 149056, Note_off_c, 9, 36, 0
2, 149188, Note_on_c, 9, 42, 59
2, 149188, Note_on_c, 9, 36, 110
2, 149252, Note_off_c, 9, 42, 0
2, 149252, Note_off_c, 9, 36, 0
2, 149360, Note_on_c, 9, 42, 87
2, 149376, Note_on_c, 9, 38, 92
2, 149424, Note_off_c, 9, 42, 0
2, 149440, Note_off_c, 9, 38, 0
2, 149552, Note_on_c, 9, 42, 71
2, 149616, Note_off_c, 9, 42, 0
2, 149764, Note_on_c, 9, 42, 97
2, 149764, Note_on_c, 9, 36, 127
2, 149828, Note_off_c, 9, 42, 0
2, 149828, Note_off_c, 9, 36, 0
2, 149940, Note_on_c, 9, 42, 65
2, 150004, Note_off_c, 9, 42, 0
2, 150152, Note_on_c, 9, 42, 85
2, 150152, Note_on_c, 9, 38, 94
2, 150216, Note_off_c, 9, 42, 0
2, 150216, Note_off_c, 9, 38, 0
2, 150320, Note_on_c, 9, 42, 60
2, 150384, Note_off_c, 9, 42, 0
2, 150532, Note_on_c, 9, 42, 77
2, 150532, Note_on_c, 9, 36, 110
2, 150596, Note_off_c, 9, 42, 0
2, 150596, Note_off_c, 9, 36, 0
2, 150720, Note_on_c, 9, 42, 70
2, 150720, Note_on_c, 9, 36, 98
2, 150784, Note_off_c, 9, 42, 0
2, 150784, Note_off_c, 9, 36, 0
2, 150920, Note_on_c, 9, 42, 89
2, 150920, Note_on_c, 9, 38, 103
2, 150984, Note_off_c, 9, 42, 0
2, 150984, Note_off_c, 9, 38, 0
2, 151088, Note_on_c, 9, 42, 61
2, 151152, Note_off_c, 9, 42, 0
2, 151292, Note_on_c, 9, 42, 104
2, 151296, Note_on_c, 9, 36, 117
2, 151356, Note_off_c, 9, 42, 0
2, 151360, Note_off_c, 9, 36, 0
2, 151484, Note_on_c, 9, 42, 64
2, 151548, Note_off_c, 9, 42, 0
2, 151680, Note_on_c, 9, 42, 81
2, 151680, Note_on_c, 9, 38, 81
2, 151744, Note_off_c, 9, 42, 0
2, 151744, Note_off_c, 9, 38, 0
2, 151856, Note_on_c, 9, 42, 63
2, 151920, Note_off_c, 9, 42, 0
2, 152072, Note_on_c, 9, 42, 93
2, 152072, Note_on_c, 9, 36, 120
2, 152136, Note_off_c, 9, 42, 0
2, 152136, Note_off_c, 9, 36, 0
2, 152256, Note_on_c, 9, 42, 77
2, 152260, Note_on_c, 9, 36, 99
2, 152320, Note_off_c, 9, 42, 0
2, 152324, Note_off_c, 9, 36, 0
2, 152432, Note_on_c, 9, 42, 83
2, 152448, Note_on_c, 9, 38, 101
2, 152496, Note_off_c, 9, 42, 0
2, 152512, Note_off_c, 9, 38, 0
2, 152628, Note_on_c, 9, 42, 74
2, 152692, Note_off_c, 9, 42, 0
2, 152816, Note_on_c, 9, 42, 78
2, 152840, Note_on_c, 9, 36, 111
2, 152880, Note_off_c, 9, 42, 0
2, 152904, Note_off_c, 9, 36, 0
2, 153032, Note_on_c, 9, 42, 59
2, 153096, Note_off_c, 9, 42, 0
2, 153200, Note_on_c, 9, 42, 100
2, 153204, Note_on_c, 9, 38, 85
2, 153264, Note_off_c, 9, 42, 0
2, 153268, Note_off_c, 9, 38, 0
2, 153400, Note_on_c, 9, 42, 61
2, 153464, Note_off_c, 9, 42, 0
2, 153596, Note_on_c, 9, 42, 96
2, 153596, Note_on_c, 9, 36, 115
2, 153660, Note_off_c, 9, 36, 0
2, 153660, Note_off_c, 9, 42, 0
2, 153792, Note_on_c, 9, 42, 62
2, 153792, Note_on_c, 9, 36, 118
2, 153856, Note_off_c, 9, 42, 0
2, 153856, Note_off_c, 9, 36, 0
2, 153992, Note_on_c, 9, 42, 88
2, 153992, Note_on_c, 9, 38, 106
2, 154056, Note_off_c, 9, 42, 0
2, 154056, Note_off_c, 9, 38, 0
2, 154176, Note_on_c, 9, 42, 76
2, 154240, Note_off_c, 9, 42, 0
2, 154376, Note_on_c, 9, 42, 79
2, 154376, Note_on_c, 9, 36, 126
2, 154440, Note_off_c, 9, 42, 0
2, 154440, Note_off_c, 9, 36, 0
2, 154552, Note_on_c, 9, 42, 78
2, 154616, Note_off_c, 9, 42, 0
2, 154752, Note_on_c, 9, 42, 102
2, 154760, Note_on_c, 9, 38, 87
2, 154816, Note_off_c, 9, 42, 0
2, 154824, Note_off_c, 9, 38, 0
2, 154936, Note_on_c, 9, 42, 75
2, 155000, Note_off_c, 9, 42, 0
2, 155136, Note_on_c, 9, 42, 90
2, 155136, Note_on_c, 9, 36, 108
2, 155200, Note_off_c, 9, 42, 0
2, 155200, Note_off_c, 9, 36, 0
2, 155320, Note_on_c, 9, 42, 63
2, 155332, Note_on_c, 9, 36, 107
2, 155384, Note_off_c, 9, 42, 0
2, 155396, Note_off_c, 9, 36, 0
2, 155504, Note_on_c, 9, 42, 92
2, 155504, Note_on_c, 9, 38, 93
2, 155568, Note_off_c, 9, 42, 0
2, 155568, Note_off_c, 9, 38, 0
2, 155700, Note_on_c, 9, 42, 61
2, 155764, Note_off_c, 9, 42, 0
2, 155892, Note_on_c, 9, 42, 83
2, 155904, Note_on_c, 9, 36, 125
2, 155956, Note_off_c, 9, 42, 0
2, 155968, Note_off_c, 9, 36, 0
2, 156104, Note_on_c, 9, 42, 62
2, 156168, Note_off_c, 9, 42, 0
2, 156292, Note_on_c, 9, 42, 91
2, 156292, Note_on_c, 9, 38, 77
2, 156356, Note_off_c, 9, 42, 0
2, 156356, Note_off_c, 9, 38, 0
2, 156480, Note_on_c, 9, 42, 65
2, 156544, Note_off_c, 9, 42, 0
2, 156664, Note_on_c, 9, 42, 86
2, 156664, Note_on_c, 9, 36, 114
2, 156728, Note_off_c, 9, 36, 0
2, 156728, Note_off_c, 9, 42, 0
2, 156848, Note_on_c, 9, 42, 75
2, 156848, Note_on_c, 9, 36, 116
2, 156912, Note_off_c, 9, 42, 0
2, 156912, Note_off_c, 9, 36, 0
2, 157060, Note_on_c, 9, 42, 87
2, 157060, Note_on_c, 9, 38, 106
2, 157124, Note_off_c, 9, 42, 0
2, 157124, Note_off_c, 9, 38, 0
2, 157256, Note_on_c, 9, 42, 63
2, 157320, Note_off_c, 9, 42, 0
2, 157424, Note_on_c, 9, 42, 88
2, 157424, Note_on_c, 9, 36, 121
2, 157488, Note_off_c, 9, 42, 0
2, 157488, Note_off_c, 9, 36, 0
2, 157616, Note_on_c, 9, 42, 77
2, 157680, Note_off_c, 9, 42, 0
2, 157832, Note_on_c, 9, 42, 80
2, 157832, Note_on_c, 9, 38, 103
2, 157896, Note_off_c, 9, 42, 0
2, 157896, Note_off_c, 9, 38, 0
2, 158012, Note_on_c, 9, 42, 68
2, 158076, Note_off_c, 9, 42, 0
2, 158200, Note_on_c, 9, 42, 84
2, 158200, Note_on_c, 9, 36, 119
2, 158264, Note_off_c, 9, 36, 0
2, 158264, Note_off_c, 9, 42, 0
2, 158408, Note_on_c, 9, 42, 59
2, 158408, Note_on_c, 9, 36, 122
2, 158472, Note_off_c, 9, 42, 0
2, 158472, Note_off_c, 9, 36, 0
2, 158596, Note_on_c, 9, 42, 85
2, 158596, Note_on_c, 9, 38, 86
2, 158660, Note_off_c, 9, 42, 0
2, 158660, Note_off_c, 9, 38, 0
2, 158784, Note_on_c, 9, 42, 60
2, 158848, Note_off_c, 9, 42, 0
2, 158960, Note_on_c, 9, 42, 99
2, 158968, Note_on_c, 9, 36, 117
2, 159024, Note_off_c, 9, 42, 0
2, 159032, Note_off_c, 9, 36, 0
2, 159152, Note_on_c, 9, 42, 77
2, 159216, Note_off_c, 9, 42, 0
2, 159360, Note_on_c, 9, 42, 83
2, 159360, Note_on_c, 9, 38, 91
2, 159424, Note_off_c, 9, 42, 0
2, 159424, Note_off_c, 9, 38, 0
2, 159556, Note_on_c, 9, 42, 65
2, 159620, Note_off_c, 9, 42, 0
2, 159744, Note_on_c, 9, 42, 99
2, 159744, Note_on_c, 9, 36, 118
2, 159808, Note_off_c, 9, 42, 0
2, 159808, Note_off_c, 9, 36, 0
2, 159920, Note_on_c, 9, 42, 68
2, 159944, Note_on_c, 9, 36, 99
2, 159984, Note_off_c, 9, 42, 0
2, 160008, Note_off_c, 9, 36, 0
2, 160116, Note_on_c, 9, 42, 87
2, 160124, Note_on_c, 9, 38, 114
2, 160180, Note_off_c, 9, 42, 0
2, 160188, Note_off_c, 9, 38, 0
2, 160320, Note_on_c, 9, 42, 72
2, 160384, Note_off_c, 9, 42, 0
2, 160512, Note_on_c, 9, 42, 82
2, 160512, Note_on_c, 9, 36, 118
2, 160576, Note_off_c, 9, 42, 0
2, 160576, Note_off_c, 9, 36, 0
2, 160712, Note_on_c, 9, 42, 74
2, 160776, Note_off_c, 9, 42, 0
2, 160880, Note_on_c, 9, 42, 77
2, 160904, Note_on_c, 9, 38, 86
2, 160944, Note_off_c, 9, 42, 0
2, 160968, Note_off_c, 9, 38, 0
2, 161072, Note_on_c, 9, 42, 61
2, 161136, Note_off_c, 9, 42, 0
2, 161268, Note_on_c, 9, 42, 103
2, 161276, Note_on_c, 9, 36, 127
2, 161332, Note_off_c, 9, 42, 0
2, 161340, Note_off_c, 9, 36, 0
2, 161472, Note_on_c, 9, 42, 64
2, 161476, Note_on_c, 9, 36, 122
2, 161536, Note_off_c, 9, 42, 0
2, 161540, Note_off_c, 9, 36, 0
2, 161672, Note_on_c, 9, 42, 87
2, 161672, Note_on_c, 9, 38, 102
2, 161736, Note_off_c, 9, 42, 0
2, 161736, Note_off_c, 9, 38, 0
2, 161864, Note_on_c, 9, 42, 66
2, 161928, Note_off_c, 9, 42, 0
2, 162040, Note_on_c, 9, 42, 93
2, 162048, Note_on_c, 9, 36, 119
2, 162104, Note_off_c, 9, 42, 0
2, 162112, Note_off_c, 9, 36, 0
2, 162224, Note_on_c, 9, 42, 65
2, 162288, Note_off_c, 9, 42, 0
2, 162420, Note_on_c, 9, 42, 81
2, 162432, Note_on_c, 9, 38, 100
2, 162484, Note_off_c, 9, 42, 0
2, 162496, Note_off_c, 9, 38, 0
2, 162616, Note_on_c, 9, 42, 76
2, 162680, Note_off_c, 9, 42, 0
2, 162812, Note_on_c, 9, 42, 90
2, 162812, Note_on_c, 9, 36, 110
2, 162876, Note_off_c, 9, 36, 0
2, 162876, Note_off_c, 9, 42, 0
2, 163012, Note_on_c, 9, 42, 79
2, 163012, Note_on_c, 9, 36, 101
2, 163076, Note_off_c, 9, 42, 0
2, 163076, Note_off_c, 9, 36, 0
2, 163184, Note_on_c, 9, 42, 81
2, 163200, Note_on_c, 9, 38, 107
2, 163248, Note_off_c, 9, 42, 0
2, 163264, Note_off_c, 9, 38, 0
2, 163396, Note_on_c, 9, 42, 66
2, 163460, Note_off_c, 9, 42, 0
2, 163572, Note_on_c, 9, 42, 90
2, 163572, Note_on_c, 9, 36, 120
2, 163636, Note_off_c, 9, 42, 0
2, 163636, Note_off_c, 9, 36, 0
2, 163768, Note_on_c, 9, 42, 70
2, 163832, Note_off_c, 9, 42, 0
2, 163960, Note_on_c, 9, 42, 95
2, 163960, Note_on_c, 9, 38, 79
2, 164024, Note_off_c, 9, 42, 0
2, 164024, Note_off_c, 9, 38, 0
2, 164156, Note_on_c, 9, 42, 62
2, 164220, Note_off_c, 9, 42, 0
2, 164356, Note_on_c, 9, 42, 100
2, 164356, Note_on_c, 9, 36, 117
2, 164420, Note_off_c, 9, 42, 0
2, 164420, Note_off_c, 9, 36, 0
2, 164528, Note_on_c, 9, 42, 69
2, 164540, Note_on_c, 9, 36, 99
2, 164592, Note_off_c, 9, 42, 0
2, 164604, Note_off_c, 9, 36, 0
2, 164720, Note_on_c, 9, 42, 88
2, 164740, Note_on_c, 9, 38, 106
2, 164784, Note_off_c, 9, 42, 0
2, 164804, Note_off_c, 9, 38, 0
2, 164936, Note_on_c, 9, 42, 79
2, 165000, Note_off_c, 9, 42, 0
2, 165108, Note_on_c, 9, 42, 87
2, 165128, Note_on_c, 9, 36, 114
2, 165172, Note_off_c, 9, 42, 0
2, 165192, Note_off_c, 9, 36, 0
2, 165316, Note_on_c, 9, 42, 71
2, 165380, Note_off_c, 9, 42, 0
2, 165504, Note_on_c, 9, 42, 102
2, 165504, Note_on_c, 9, 38, 77
2, 165568, Note_off_c, 9, 42, 0
2, 165568, Note_off_c, 9, 38, 0
2, 165696, Note_on_c, 9, 42, 60
2, 165760, Note_off_c, 9, 42, 0
2, 165888, Note_on_c, 9, 42, 83
2, 165896, Note_on_c, 9, 36, 113
2, 165952, Note_off_c, 9, 42, 0
2, 165960, Note_off_c, 9, 36, 0
2, 166080, Note_on_c, 9, 42, 74
2, 166080, Note_on_c, 9, 36, 103
2, 166144, Note_off_c, 9, 42, 0
2, 166144, Note_off_c, 9, 36, 0
2, 166264, Note_on_c, 9, 42, 92
2, 166280, Note_on_c, 9, 38, 91
2, 166328, Note_off_c, 9, 42, 0
2, 166344, Note_off_c, 9, 38, 0
2, 166464, Note_on_c, 9, 42, 61
2, 166528, Note_off_c, 9, 42, 0
2, 166640, Note_on_c, 9, 42, 96
2, 166656, Note_on_c, 9, 36, 125
2, 166704, Note_off_c, 9, 42, 0
2, 166720, Note_off_c, 9, 36, 0
2, 166836, Note_on_c, 9, 42, 66
2, 166900, Note_off_c, 9, 42, 0
2, 167044, Note_on_c, 9, 42, 98
2, 167044, Note_on_c, 9, 38, 104
2, 167108, Note_off_c, 9, 42, 0
2, 167108, Note_off_c, 9, 38, 0
2, 167232, Note_on_c, 9, 42, 65
2, 167296, Note_off_c, 9, 42, 0
2, 167408, Note_on_c, 9, 42, 99
2, 167424, Note_on_c, 9, 36, 122
2, 167472, Note_off_c, 9, 42, 0
2, 167488, Note_off_c, 9, 36, 0
2, 167624, Note_on_c, 9, 42, 59
2, 167624, Note_on_c, 9, 36, 106
2, 167688, Note_off_c, 9, 42, 0
2, 167688, Note_off_c, 9, 36, 0
2, 167808, Note_on_c, 9, 42, 92
2, 167808, Note_on_c, 9, 38, 100
2, 167872, Note_off_c, 9, 42, 0
2, 167872, Note_off_c, 9, 38, 0
2, 167996, Note_on_c, 9, 42, 69
2, 168060, Note_off_c, 9, 42, 0
2, 168192, Note_on_c, 9, 42, 77
2, 168192, Note_on_c, 9, 36, 116
2, 168256, Note_off_c, 9, 42, 0
2, 168256, Note_off_c, 9, 36, 0
2, 168392, Note_on_c, 9, 42, 69
2, 168456, Note_off_c, 9, 42, 0
2, 168560, Note_on_c, 9, 42, 88
2, 168572, Note_on_c, 9, 38, 85
2, 168624, Note_off_c, 9, 42, 0
2, 168636, Note_off_c, 9, 38, 0
2, 168772, Note_on_c, 9, 42, 75
2, 168836, Note_off_c, 9, 42, 0
2, 168960, Note_on_c, 9, 42, 91
2, 168968, Note_on_c, 9, 36, 127
2, 169024, Note_off_c, 9, 42, 0
2, 169032, Note_off_c, 9, 36, 0
2, 169144, Note_on_c, 9, 42, 60
2, 169144, Note_on_c, 9, 36, 115
2, 169208, Note_off_c, 9, 42, 0
2, 169208, Note_off_c, 9, 36, 0
2, 169328, Note_on_c, 9, 42, 77
2, 169336, Note_on_c, 9, 38, 102
2, 169392, Note_off_c, 9, 42, 0
2, 169400, Note_off_c, 9, 38, 0
2, 169540, Note_on_c, 9, 42, 79
2, 169604, Note_off_c, 9, 42, 0
2, 169732, Note_on_c, 9, 42, 104
2, 169732, Note_on_c, 9, 36, 125
2, 169796, Note_off_c, 9, 42, 0
2, 169796, Note_off_c, 9, 36, 0
2, 169928, Note_on_c, 9, 42, 72
2, 169992, Note_off_c, 9, 42, 0
2, 170096, Note_on_c, 9, 42, 95
2, 170104, Note_on_c, 9, 38, 101
2, 170160, Note_off_c, 9, 42, 0
2, 170168, Note_off_c, 9, 38, 0
2, 170308, Note_on_c, 9, 42, 74
2, 170372, Note_off_c, 9, 42, 0
2, 170484, Note_on_c, 9, 42, 99
2, 170496, Note_on_c, 9, 36, 111
2, 170548, Note_off_c, 9, 42, 0
2, 170560, Note_off_c, 9, 36, 0
2, 170676, Note_on_c, 9, 42, 67
2, 170688, Note_on_c, 9, 36, 125
2, 170740, Note_off_c, 9, 42, 0
2, 170752, Note_off_c, 9, 36, 0
2, 170876, Note_on_c, 9, 42, 77
2, 170876, Note_on_c, 9, 38, 91
2, 170940, Note_off_c, 9, 42, 0
2, 170940, Note_off_c, 9, 38, 0
2, 171080, Note_on_c, 9, 42, 72
2, 171144, Note_off_c, 9, 42, 0
2, 171252, Note_on_c, 9, 42, 103
2, 171264, Note_on_c, 9, 36, 121
2, 171316, Note_off_c, 9, 42, 0
2, 171328, Note_off_c, 9, 36, 0
2, 171460, Note_on_c, 9, 42, 77
2, 171524, Note_off_c, 9, 42, 0
2, 171652, Note_on_c, 9, 42, 84
2, 171652, Note_on_c, 9, 38, 87
2, 171716, Note_off_c, 9, 42, 0
2, 171716, Note_off_c, 9, 38, 0
2, 171848, Note_on_c, 9, 42, 73
2, 171912, Note_off_c, 9, 42, 0
2, 172036, Note_on_c, 9, 42, 102
2, 172036, Note_on_c, 9, 36, 113
2, 172100, Note_off_c, 9, 42, 0
2, 172100, Note_off_c, 9, 36, 0
2, 172208, Note_on_c, 9, 42, 74
2, 172224, Note_on_c, 9, 36, 101
2, 172272, Note_off_c, 9, 42, 0
2, 172288, Note_off_c, 9, 36, 0
2, 172416, Note_on_c, 9, 42, 99
2, 172416, Note_on_c, 9, 38, 85
2, 172480, Note_off_c, 9, 42, 0
2, 172480, Note_off_c, 9, 38, 0
2, 172604, Note_on_c, 9, 42, 63
2, 172668, Note_off_c, 9, 42, 0
2, 172784, Note_on_c, 9, 42, 84
2, 172784, Note_on_c, 9, 36, 125
2, 172848, Note_off_c, 9, 42, 0
2, 172848, Note_off_c, 9, 36, 0
2, 172992, Note_on_c, 9, 42, 73
2, 173056, Note_off_c, 9, 42, 0
2, 173168, Note_on_c, 9, 42, 101
2, 173180, Note_on_c, 9, 38, 100
2, 173244, Note_off_c, 9, 38, 0
2, 173332, Note_off_c, 9, 42, 0
2, 173376, Note_on_c, 9, 38, 100
2, 173376, Note_on_c, 9, 42, 72
2, 173440, Note_off_c, 9, 42, 0
2, 173528, Note_off_c, 9, 38, 0
2, 173568, Note_on_c, 9, 35, 115
2, 173568, Note_on_c, 9, 42, 115
2, 173664, Note_off_c, 9, 35, 0
2, 173664, Note_off_c, 9, 42, 0
2, 173760, Note_on_c, 9, 42, 50
2, 173856, Note_off_c, 9, 42, 0
2, 173952, Note_on_c, 9, 38, 115
2, 173952, Note_on_c, 9, 42, 100
2, 174048, Note_off_c, 9, 38, 0
2, 174048, Note_off_c, 9, 42, 0
2, 174144, Note_on_c, 9, 35, 100
2, 174144, Note_on_c, 9, 42, 60
2, 174240, Note_off_c, 9, 35, 0
2, 174240, Note_off_c, 9, 42, 0
2, 174336, Note_on_c, 9, 35, 115
2, 174336, Note_on_c, 9, 42, 115
2, 174432, Note_off_c, 9, 35, 0
2, 174432, Note_off_c, 9, 42, 0
2, 174528, Note_on_c, 9, 42, 55
2, 174624, Note_off_c, 9, 42, 0
2, 174720, Note_on_c, 9, 38, 115
2, 174720, Note_on_c, 9, 42, 100
2, 174816, Note_off_c, 9, 38, 0
2, 174816, Note_off_c, 9, 42, 0
2, 174912, Note_on_c, 9, 42, 70
2, 175008, Note_off_c, 9, 42, 0
2, 175104, Note_on_c, 9, 35, 115
2, 175104, Note_on_c, 9, 42, 115
2, 175200, Note_off_c, 9, 35, 0
2, 175200, Note_off_c, 9, 42, 0
2, 175296, Note_on_c, 9, 42, 50
2, 175392, Note_off_c, 9, 42, 0
2, 175488, Note_on_c, 9, 38, 115
2, 175488, Note_on_c, 9, 42, 100
2, 175584, Note_off_c, 9, 38, 0
2, 175584, Note_off_c, 9, 42, 0
2, 175680, Note_on_c, 9, 35, 100
2, 175680, Note_on_c, 9, 42, 60
2, 175776, Note_off_c, 9, 35, 0
2, 175776, Note_off_c, 9, 42, 0
2, 175872, Note_on_c, 9, 35, 115
2, 175872, Note_on_c, 9, 42, 115
2, 175968, Note_off_c, 9, 35, 0
2, 175968, Note_off_c, 9, 42, 0
2, 176064, Note_on_c, 9, 42, 55
2, 176160, Note_off_c, 9, 42, 0
2, 176256, Note_on_c, 9, 38, 115
2, 176256, Note_on_c, 9, 42, 100
2, 176352, Note_off_c, 9, 38, 0
2, 176352, Note_off_c, 9, 42, 0
2, 176448, Note_on_c, 9, 42, 70
2, 176544, Note_off_c, 9, 42, 0
2, 176640, Note_on_c, 9, 35, 115
2, 176640, Note_on_c, 9, 42, 115
2, 176736, Note_off_c, 9, 35, 0
2, 176736, Note_off_c, 9, 42, 0
2, 176832, Note_on_c, 9, 42, 50
2, 176928, Note_off_c, 9, 42, 0
2, 177024, Note_on_c, 9, 38, 115
2, 177024, Note_on_c, 9, 42, 100
2, 177120, Note_off_c, 9, 38, 0
2, 177120, Note_off_c, 9, 42, 0
2, 177216, Note_on_c, 9, 35, 100
2, 177216, Note_on_c, 9, 42, 60
2, 177312, Note_off_c, 9, 35, 0
2, 177312, Note_off_c, 9, 42, 0
2, 177408, Note_on_c, 9, 35, 115
2, 177408, Note_on_c, 9, 42, 115
2, 177504, Note_off_c, 9, 35, 0
2, 177504, Note_off_c, 9, 42, 0
2, 177600, Note_on_c, 9, 42, 55
2, 177696, Note_off_c, 9, 42, 0
2, 177792, Note_on_c, 9, 38, 115
2, 177792, Note_on_c, 9, 42, 100
2, 177888, Note_off_c, 9, 38, 0
2, 177888, Note_off_c, 9, 42, 0
2, 177984, Note_on_c, 9, 42, 70
2, 178080, Note_off_c, 9, 42, 0
2, 178176, Note_on_c, 9, 35, 115
2, 178176, Note_on_c, 9, 42, 115
2, 178272, Note_off_c, 9, 35, 0
2, 178272, Note_off_c, 9, 42, 0
2, 178368, Note_on_c, 9, 42, 50
2, 178464, Note_off_c, 9, 42, 0
2, 178560, Note_on_c, 9, 38, 115
2, 178560, Note_on_c, 9, 42, 100
2, 178656, Note_off_c, 9, 38, 0
2, 178656, Note_off_c, 9, 42, 0
2, 178752, Note_on_c, 9, 35, 100
2, 178752, Note_on_c, 9, 42, 60
2, 178848, Note_off_c, 9, 35, 0
2, 178848, Note_off_c, 9, 42, 0
2, 178944, Note_on_c, 9, 35, 115
2, 178944, Note_on_c, 9, 42, 115
2, 179040, Note_off_c, 9, 35, 0
2, 179040, Note_off_c, 9, 42, 0
2, 179136, Note_on_c, 9, 42, 55
2, 179232, Note_off_c, 9, 42, 0
2, 179328, Note_on_c, 9, 38, 115
2, 179328, Note_on_c, 9, 42, 100
2, 179424, Note_off_c, 9, 38, 0
2, 179424, Note_off_c, 9, 42, 0
2, 179520, Note_on_c, 9, 42, 70
2, 179616, Note_off_c, 9, 42, 0
2, 179712, Note_on_c, 9, 35, 115
2, 179712, Note_on_c, 9, 42, 115
2, 179808, Note_off_c, 9, 35, 0
2, 179808, Note_off_c, 9, 42, 0
2, 179904, Note_on_c, 9, 42, 50
2, 180000, Note_off_c, 9, 42, 0
2, 180096, Note_on_c, 9, 38, 115
2, 180096, Note_on_c, 9, 42, 100
2, 180192, Note_off_c, 9, 38, 0
2, 180192, Note_off_c, 9, 42, 0
2, 180288, Note_on_c, 9, 35, 100
2, 180288, Note_on_c, 9, 42, 60
2, 180384, Note_off_c, 9, 35, 0
2, 180384, Note_off_c, 9, 42, 0
2, 180480, Note_on_c, 9, 35, 115
2, 180480, Note_on_c, 9, 42, 115
2, 180576, Note_off_c, 9, 35, 0
2, 180576, Note_off_c, 9, 42, 0
2, 180672, Note_on_c, 9, 42, 55
2, 180768, Note_off_c, 9, 42, 0
2, 180864, Note_on_c, 9, 38, 115
2, 180864, Note_on_c, 9, 42, 100
2, 180960, Note_off_c, 9, 38, 0
2, 180960, Note_off_c, 9, 42, 0
2, 181056, Note_on_c, 9, 42, 70
2, 181152, Note_off_c, 9, 42, 0
2, 181248, Note_on_c, 9, 35, 115
2, 181248, Note_on_c, 9, 42, 115
2, 181344, Note_off_c, 9, 35, 0
2, 181344, Note_off_c, 9, 42, 0
2, 181440, Note_on_c, 9, 42, 50
2, 181536, Note_off_c, 9, 42, 0
2, 181632, Note_on_c, 9, 38, 115
2, 181632, Note_on_c, 9, 42, 100
2, 181728, Note_off_c, 9, 38, 0
2, 181728, Note_off_c, 9, 42, 0
2, 181824, Note_on_c, 9, 35, 100
2, 181824, Note_on_c, 9, 42, 60
2, 181920, Note_off_c, 9, 35, 0
2, 181920, Note_off_c, 9, 42, 0
2, 182016, Note_on_c, 9, 35, 115
2, 182016, Note_on_c, 9, 42, 115
2, 182112, Note_off_c, 9, 35, 0
2, 182112, Note_off_c, 9, 42, 0
2, 182208, Note_on_c, 9, 42, 55
2, 182304, Note_off_c, 9, 42, 0
2, 182400, Note_on_c, 9, 38, 115
2, 182400, Note_on_c, 9, 42, 100
2, 182496, Note_off_c, 9, 38, 0
2, 182496, Note_off_c, 9, 42, 0
2, 182592, Note_on_c, 9, 42, 70
2, 182688, Note_off_c, 9, 42, 0
2, 182784, Note_on_c, 9, 35, 115
2, 182784, Note_on_c, 9, 42, 115
2, 182880, Note_off_c, 9, 35, 0
2, 182880, Note_off_c, 9, 42, 0
2, 182976, Note_on_c, 9, 42, 50
2, 183072, Note_off_c, 9, 42, 0
2, 183168, Note_on_c, 9, 38, 115
2, 183168, Note_on_c, 9, 42, 100
2, 183264, Note_off_c, 9, 38, 0
2, 183264, Note_off_c, 9, 42, 0
2, 183360, Note_on_c, 9, 35, 100
2, 183360, Note_on_c, 9, 42, 60
2, 183456, Note_off_c, 9, 35, 0
2, 183456, Note_off_c, 9, 42, 0
2, 183552, Note_on_c, 9, 35, 115
2, 183552, Note_on_c, 9, 42, 115
2, 183648, Note_off_c, 9, 35, 0
2, 183648, Note_off_c, 9, 42, 0
2, 183744, Note_on_c, 9, 42, 55
2, 183840, Note_off_c, 9, 42, 0
2, 183936, Note_on_c, 9, 38, 115
2, 183936, Note_on_c, 9, 42, 100
2, 184032, Note_off_c, 9, 38, 0
2, 184032, Note_off_c, 9, 42, 0
2, 184128, Note_on_c, 9, 42, 70
2, 184224, Note_off_c, 9, 42, 0
2, 184320, Note_on_c, 9, 51, 127
2, 184320, Note_on_c, 9, 35, 115
2, 184320, Note_on_c, 9, 42, 115
2, 184396, Note_off_c, 9, 51, 0
2, 184396, Note_off_c, 9, 35, 0
2, 184396, Note_off_c, 9, 42, 0
2, 184512, Note_on_c, 9, 51, 127
2, 184512, Note_on_c, 9, 42, 50
2, 184608, Note_off_c, 9, 42, 0
2, 184664, Note_off_c, 9, 51, 0
2, 184704, Note_on_c, 9, 59, 127
2, 184704, Note_on_c, 9, 38, 115
2, 184704, Note_on_c, 9, 42, 100
2, 184800, Note_off_c, 9, 38, 0
2, 184800, Note_off_c, 9, 42, 0
2, 184896, Note_on_c, 9, 35, 100
2, 184896, Note_on_c, 9, 42, 60
2, 184992, Note_off_c, 9, 42, 0
2, 185008, Note_off_c, 9, 59, 0
2, 185048, Note_off_c, 9, 35, 0
2, 185088, Note_on_c, 9, 51, 127
2, 185088, Note_on_c, 9, 35, 115
2, 185088, Note_on_c, 9, 42, 115
2, 185164, Note_off_c, 9, 51, 0
2, 185164, Note_off_c, 9, 35, 0
2, 185164, Note_off_c, 9, 42, 0
2, 185280, Note_on_c, 9, 51, 127
2, 185280, Note_on_c, 9, 42, 55
2, 185376, Note_off_c, 9, 42, 0
2, 185432, Note_off_c, 9, 51, 0
2, 185472, Note_on_c, 9, 49, 85
2, 185472, Note_on_c, 9, 59, 127
2, 185472, Note_on_c, 9, 38, 115
2, 185472, Note_on_c, 9, 42, 100
2, 185568, Note_off_c, 9, 42, 0
2, 185624, Note_off_c, 9, 49, 0
2, 185624, Note_off_c, 9, 59, 0
2, 185624, Note_off_c, 9, 38, 0
2, 185664, Note_on_c, 9, 38, 100
2, 185664, Note_on_c, 9, 42, 70
2, 185760, Note_off_c, 9, 42, 0
2, 185816, Note_off_c, 9, 38, 0
2, 185856, Note_on_c, 9, 35, 115
2, 185856, Note_on_c, 9, 42, 115
2, 185952, Note_off_c, 9, 35, 0
2, 185952, Note_off_c, 9, 42, 0
2, 186048, Note_on_c, 9, 42, 50
2, 186144, Note_off_c, 9, 42, 0
2, 186240, Note_on_c, 9, 38, 115
2, 186240, Note_on_c, 9, 42, 100
2, 186336, Note_off_c, 9, 38, 0
2, 186336, Note_off_c, 9, 42, 0
2, 186432, Note_on_c, 9, 35, 100
2, 186432, Note_on_c, 9, 42, 60
2, 186528, Note_off_c, 9, 35, 0
2, 186528, Note_off_c, 9, 42, 0
2, 186624, Note_on_c, 9, 35, 115
2, 186624, Note_on_c, 9, 42, 115
2, 186720, Note_off_c, 9, 35, 0
2, 186720, Note_off_c, 9, 42, 0
2, 186816, Note_on_c, 9, 42, 55
2, 186912, Note_off_c, 9, 42, 0
2, 187008, Note_on_c, 9, 38, 115
2, 187008, Note_on_c, 9, 42, 100
2, 187104, Note_off_c, 9, 38, 0
2, 187104, Note_off_c, 9, 42, 0
2, 187200, Note_on_c, 9, 42, 70
2, 187296, Note_off_c, 9, 42, 0
2, 187392, Note_on_c, 9, 35, 115
2, 187392, Note_on_c, 9, 42, 115
2, 187488, Note_off_c, 9, 35, 0
2, 187488, Note_off_c, 9, 42, 0
2, 187584, Note_on_c, 9, 42, 50
2, 187680, Note_off_c, 9, 42, 0
2, 187776, Note_on_c, 9, 38, 115
2, 187776, Note_on_c, 9, 42, 100
2, 187872, Note_off_c, 9, 38, 0
2, 187872, Note_off_c, 9, 42, 0
2, 187968, Note_on_c, 9, 35, 100
2, 187968, Note_on_c, 9, 42, 60
2, 188064, Note_off_c, 9, 35, 0
2, 188064, Note_off_c, 9, 42, 0
2, 188160, Note_on_c, 9, 35, 115
2, 188160, Note_on_c, 9, 42, 115
2, 188256, Note_off_c, 9, 35, 0
2, 188256, Note_off_c, 9, 42, 0
2, 188352, Note_on_c, 9, 42, 55
2, 188448, Note_off_c, 9, 42, 0
2, 188544, Note_on_c, 9, 38, 115
2, 188544, Note_on_c, 9, 42, 100
2, 188640, Note_off_c, 9, 38, 0
2, 188640, Note_off_c, 9, 42, 0
2, 188736, Note_on_c, 9, 42, 70
2, 188832, Note_off_c, 9, 42, 0
2, 188928, Note_on_c, 9, 35, 115
2, 188928, Note_on_c, 9, 42, 115
2, 189024, Note_off_c, 9, 35, 0
2, 189024, Note_off_c, 9, 42, 0
2, 189120, Note_on_c, 9, 42, 50
2, 189216, Note_off_c, 9, 42, 0
2, 189312, Note_on_c, 9, 42, 100
2, 189408, Note_off_c, 9, 42, 0
2, 189504, Note_on_c, 9, 42, 60
2, 189600, Note_off_c, 9, 42, 0
2, 189696, Note_on_c, 9, 49, 85
2, 189696, Note_on_c, 9, 35, 115
2, 189696, Note_on_c, 9, 42, 115
2, 189792, Note_off_c, 9, 35, 0
2, 189792, Note_off_c, 9, 42, 0
2, 189848, Note_off_c, 9, 49, 0
2, 189888, Note_on_c, 9, 42, 55
2, 189984, Note_off_c, 9, 42, 0
2, 190080, Note_on_c, 9, 38, 115
2, 190080, Note_on_c, 9, 42, 100
2, 190176, Note_off_c, 9, 38, 0
2, 190176, Note_off_c, 9, 42, 0
2, 190272, Note_on_c, 9, 42, 70
2, 190368, Note_off_c, 9, 42, 0
2, 190464, Note_on_c, 9, 35, 115
2, 190464, Note_on_c, 9, 42, 115
2, 190560, Note_off_c, 9, 35, 0
2, 190560, Note_off_c, 9, 42, 0
2, 190656, Note_on_c, 9, 42, 50
2, 190752, Note_off_c, 9, 42, 0
2, 190848, Note_on_c, 9, 38, 115
2, 190848, Note_on_c, 9, 42, 100
2, 190944, Note_off_c, 9, 38, 0
2, 190944, Note_off_c, 9, 42, 0
2, 191040, Note_on_c, 9, 35, 100
2, 191040, Note_on_c, 9, 42, 60
2, 191136, Note_off_c, 9, 35, 0
2, 191136, Note_off_c, 9, 42, 0
2, 191232, Note_on_c, 9, 35, 115
2, 191232, Note_on_c, 9, 42, 115
2, 191328, Note_off_c, 9, 35, 0
2, 191328, Note_off_c, 9, 42, 0
2, 191424, Note_on_c, 9, 42, 55
2, 191520, Note_off_c, 9, 42, 0
2, 191616, Note_on_c, 9, 38, 115
2, 191616, Note_on_c, 9, 42, 100
2, 191712, Note_off_c, 9, 38, 0
2, 191712, Note_off_c, 9, 42, 0
2, 191808, Note_on_c, 9, 42, 70
2, 191904, Note_off_c, 9, 42, 0
2, 192000, Note_on_c, 9, 35, 115
2, 192000, Note_on_c, 9, 42, 115
2, 192096, Note_off_c, 9, 35, 0
2, 192096, Note_off_c, 9, 42, 0
2, 192192, Note_on_c, 9, 42, 50
2, 192288, Note_off_c, 9, 42, 0
2, 192384, Note_on_c, 9, 38, 115
2, 192384, Note_on_c, 9, 42, 100
2, 192480, Note_off_c, 9, 38, 0
2, 192480, Note_off_c, 9, 42, 0
2, 192576, Note_on_c, 9, 35, 100
2, 192576, Note_on_c, 9, 42, 60
2, 192672, Note_off_c, 9, 42, 0
2, 192728, Note_off_c, 9, 35, 0
2, 192768, Note_on_c, 9, 35, 115
2, 192768, Note_on_c, 9, 42, 115
2, 192864, Note_off_c, 9, 35, 0
2, 192864, Note_off_c, 9, 42, 0
2, 192960, Note_on_c, 9, 42, 55
2, 193056, Note_off_c, 9, 42, 0
2, 193152, Note_on_c, 9, 38, 115
2, 193152, Note_on_c, 9, 42, 100
2, 193248, Note_off_c, 9, 38, 0
2, 193248, Note_off_c, 9, 42, 0
2, 193344, Note_on_c, 9, 42, 70
2, 193440, Note_off_c, 9, 42, 0
2, 193536, Note_on_c, 9, 35, 115
2, 193536, Note_on_c, 9, 42, 115
2, 193632, Note_off_c, 9, 35, 0
2, 193632, Note_off_c, 9, 42, 0
2, 193728, Note_on_c, 9, 42, 50
2, 193824, Note_off_c, 9, 42, 0
2, 193920, Note_on_c, 9, 38, 115
2, 193920, Note_on_c, 9, 42, 100
2, 194016, Note_off_c, 9, 38, 0
2, 194016, Note_off_c, 9, 42, 0
2, 194112, Note_on_c, 9, 35, 100
2, 194112, Note_on_c, 9, 42, 60
2, 194208, Note_off_c, 9, 35, 0
2, 194208, Note_off_c, 9, 42, 0
2, 194304, Note_on_c, 9, 35, 115
2, 194304, Note_on_c, 9, 42, 115
2, 194400, Note_off_c, 9, 35, 0
2, 194400, Note_off_c, 9, 42, 0
2, 194496, Note_on_c, 9, 42, 55
2, 194592, Note_off_c, 9, 42, 0
2, 194688, Note_on_c, 9, 38, 115
2, 194688, Note_on_c, 9, 42, 100
2, 194784, Note_off_c, 9, 38, 0
2, 194784, Note_off_c, 9, 42, 0
2, 194880, Note_on_c, 9, 42, 70
2, 194976, Note_off_c, 9, 42, 0
2, 195072, Note_on_c, 9, 35, 115
2, 195072, Note_on_c, 9, 42, 115
2, 195168, Note_off_c, 9, 35, 0
2, 195168, Note_off_c, 9, 42, 0
2, 195264, Note_on_c, 9, 42, 50
2, 195360, Note_off_c, 9, 42, 0
2, 195456, Note_on_c, 9, 42, 100
2, 195552, Note_off_c, 9, 42, 0
2, 195648, Note_on_c, 9, 42, 60
2, 195744, Note_off_c, 9, 42, 0
2, 195840, Note_on_c, 9, 49, 85
2, 195840, Note_on_c, 9, 35, 115
2, 195840, Note_on_c, 9, 42, 115
2, 195936, Note_off_c, 9, 35, 0
2, 195936, Note_off_c, 9, 42, 0
2, 195992, Note_off_c, 9, 49, 0
2, 196032, Note_on_c, 9, 42, 55
2, 196128, Note_off_c, 9, 42, 0
2, 196224, Note_on_c, 9, 38, 115
2, 196224, Note_on_c, 9, 42, 100
2, 196320, Note_off_c, 9, 38, 0
2, 196320, Note_off_c, 9, 42, 0
2, 196416, Note_on_c, 9, 42, 70
2, 196512, Note_off_c, 9, 42, 0
2, 196608, Note_on_c, 9, 35, 115
2, 196608, Note_on_c, 9, 42, 115
2, 196704, Note_off_c, 9, 35, 0
2, 196704, Note_off_c, 9, 42, 0
2, 196800, Note_on_c, 9, 42, 50
2, 196896, Note_off_c, 9, 42, 0
2, 196992, Note_on_c, 9, 38, 115
2, 196992, Note_on_c, 9, 42, 100
2, 197088, Note_off_c, 9, 38, 0
2, 197088, Note_off_c, 9, 42, 0
2, 197184, Note_on_c, 9, 35, 100
2, 197184, Note_on_c, 9, 42, 60
2, 197280, Note_off_c, 9, 35, 0
2, 197280, Note_off_c, 9, 42, 0
2, 197376, Note_on_c, 9, 35, 115
2, 197376, Note_on_c, 9, 42, 115
2, 197472, Note_off_c, 9, 35, 0
2, 197472, Note_off_c, 9, 42, 0
2, 197568, Note_on_c, 9, 42, 55
2, 197664, Note_off_c, 9, 42, 0
2, 197760, Note_on_c, 9, 36, 115
2, 197760, Note_on_c, 9, 49, 85
2, 197760, Note_on_c, 9, 38, 115
2, 197760, Note_on_c, 9, 42, 100
2, 197856, Note_off_c, 9, 42, 0
2, 197912, Note_off_c, 9, 36, 0
2, 197912, Note_off_c, 9, 49, 0
2, 197912, Note_off_c, 9, 38, 0
2, 197952, Note_on_c, 9, 36, 100
2, 197952, Note_on_c, 9, 38, 100
2, 197952, Note_on_c, 9, 42, 70
2, 198048, Note_off_c, 9, 42, 0
2, 198104, Note_off_c, 9, 36, 0
2, 198104, Note_off_c, 9, 38, 0
2, 198144, Note_on_c, 9, 35, 115
2, 198144, Note_on_c, 9, 42, 115
2, 198240, Note_off_c, 9, 35, 0
2, 198240, Note_off_c, 9, 42, 0
2, 198336, Note_on_c, 9, 42, 50
2, 198432, Note_off_c, 9, 42, 0
2, 198528, Note_on_c, 9, 38, 115
2, 198528, Note_on_c, 9, 42, 100
2, 198624, Note_off_c, 9, 38, 0
2, 198624, Note_off_c, 9, 42, 0
2, 198720, Note_on_c, 9, 35, 100
2, 198720, Note_on_c, 9, 42, 60
2, 198816, Note_off_c, 9, 35, 0
2, 198816, Note_off_c, 9, 42, 0
2, 198912, Note_on_c, 9, 35, 115
2, 198912, Note_on_c, 9, 42, 115
2, 199008, Note_off_c, 9, 35, 0
2, 199008, Note_off_c, 9, 42, 0
2, 199104, Note_on_c, 9, 42, 55
2, 199200, Note_off_c, 9, 42, 0
2, 199296, Note_on_c, 9, 38, 115
2, 199296, Note_on_c, 9, 42, 100
2, 199392, Note_off_c, 9, 38, 0
2, 199392, Note_off_c, 9, 42, 0
2, 199488, Note_on_c, 9, 42, 70
2, 199584, Note_off_c, 9, 42, 0
2, 199680, Note_on_c, 9, 35, 115
2, 199680, Note_on_c, 9, 42, 115
2, 199776, Note_off_c, 9, 35, 0
2, 199776, Note_off_c, 9, 42, 0
2, 199872, Note_on_c, 9, 42, 50
2, 199968, Note_off_c, 9, 42, 0
2, 200064, Note_on_c, 9, 38, 115
2, 200064, Note_on_c, 9, 42, 100
2, 200160, Note_off_c, 9, 38, 0
2, 200160, Note_off_c, 9, 42, 0
2, 200256, Note_on_c, 9, 35, 100
2, 200256, Note_on_c, 9, 42, 60
2, 200352, Note_off_c, 9, 35, 0
2, 200352, Note_off_c, 9, 42, 0
2, 200448, Note_on_c, 9, 35, 115
2, 200448, Note_on_c, 9, 42, 115
2, 200544, Note_off_c, 9, 35, 0
2, 200544, Note_off_c, 9, 42, 0
2, 200640, Note_on_c, 9, 42, 55
2, 200736, Note_off_c, 9, 42, 0
2, 200832, Note_on_c, 9, 38, 115
2, 200832, Note_on_c, 9, 42, 100
2, 200928, Note_off_c, 9, 38, 0
2, 200928, Note_off_c, 9, 42, 0
2, 201024, Note_on_c, 9, 42, 70
2, 201120, Note_off_c, 9, 42, 0
2, 201216, Note_on_c, 9, 35, 115
2, 201216, Note_on_c, 9, 42, 115
2, 201312, Note_off_c, 9, 35, 0
2, 201312, Note_off_c, 9, 42, 0
2, 201408, Note_on_c, 9, 42, 50
2, 201504, Note_off_c, 9, 42, 0
2, 201600, Note_on_c, 9, 38, 115
2, 201600, Note_on_c, 9, 42, 100
2, 201696, Note_off_c, 9, 38, 0
2, 201696, Note_off_c, 9, 42, 0
2, 201792, Note_on_c, 9, 35, 100
2, 201792, Note_on_c, 9, 42, 60
2, 201888, Note_off_c, 9, 35, 0
2, 201888, Note_off_c, 9, 42, 0
2, 201984, Note_on_c, 9, 35, 115
2, 201984, Note_on_c, 9, 42, 115
2, 202080, Note_off_c, 9, 35, 0
2, 202080, Note_off_c, 9, 42, 0
2, 202176, Note_on_c, 9, 42, 55
2, 202272, Note_off_c, 9, 42, 0
2, 202368, Note_on_c, 9, 38, 115
2, 202368, Note_on_c, 9, 42, 100
2, 202464, Note_off_c, 9, 38, 0
2, 202464, Note_off_c, 9, 42, 0
2, 202560, Note_on_c, 9, 42, 70
2, 202656, Note_off_c, 9, 42, 0
2, 202752, Note_on_c, 9, 35, 115
2, 202752, Note_on_c, 9, 42, 115
2, 202848, Note_off_c, 9, 35, 0
2, 202848, Note_off_c, 9, 42, 0
2, 202944, Note_on_c, 9, 42, 50
2, 203040, Note_off_c, 9, 42, 0
2, 203136, Note_on_c, 9, 38, 115
2, 203136, Note_on_c, 9, 42, 100
2, 203232, Note_off_c, 9, 38, 0
2, 203232, Note_off_c, 9, 42, 0
2, 203328, Note_on_c, 9, 35, 100
2, 203328, Note_on_c, 9, 42, 60
2, 203424, Note_off_c, 9, 35, 0
2, 203424, Note_off_c, 9, 42, 0
2, 203520, Note_on_c, 9, 35, 115
2, 203520, Note_on_c, 9, 42, 115
2, 203616, Note_off_c, 9, 35, 0
2, 203616, Note_off_c, 9, 42, 0
2, 203712, Note_on_c, 9, 42, 55
2, 203808, Note_off_c, 9, 42, 0
2, 203904, Note_on_c, 9, 38, 115
2, 203904, Note_on_c, 9, 42, 100
2, 204000, Note_off_c, 9, 38, 0
2, 204000, Note_off_c, 9, 42, 0
2, 204096, Note_on_c, 9, 42, 70
2, 204192, Note_off_c, 9, 42, 0
2, 204288, Note_on_c, 9, 35, 115
2, 204288, Note_on_c, 9, 42, 115
2, 204384, Note_off_c, 9, 35, 0
2, 204384, Note_off_c, 9, 42, 0
2, 204480, Note_on_c, 9, 42, 50
2, 204576, Note_off_c, 9, 42, 0
2, 204672, Note_on_c, 9, 38, 115
2, 204672, Note_on_c, 9, 42, 100
2, 204768, Note_off_c, 9, 38, 0
2, 204768, Note_off_c, 9, 42, 0
2, 204864, Note_on_c, 9, 35, 100
2, 204864, Note_on_c, 9, 42, 60
2, 204960, Note_off_c, 9, 35, 0
2, 204960, Note_off_c, 9, 42, 0
2, 205056, Note_on_c, 9, 35, 115
2, 205056, Note_on_c, 9, 42, 115
2, 205152, Note_off_c, 9, 35, 0
2, 205152, Note_off_c, 9, 42, 0
2, 205248, Note_on_c, 9, 42, 55
2, 205344, Note_off_c, 9, 42, 0
2, 205440, Note_on_c, 9, 38, 115
2, 205440, Note_on_c, 9, 42, 100
2, 205536, Note_off_c, 9, 38, 0
2, 205536, Note_off_c, 9, 42, 0
2, 205632, Note_on_c, 9, 42, 70
2, 205728, Note_off_c, 9, 42, 0
2, 205824, Note_on_c, 9, 35, 115
2, 205824, Note_on_c, 9, 42, 115
2, 205920, Note_off_c, 9, 35, 0
2, 205920, Note_off_c, 9, 42, 0
2, 206016, Note_on_c, 9, 42, 50
2, 206112, Note_off_c, 9, 42, 0
2, 206208, Note_on_c, 9, 38, 115
2, 206208, Note_on_c, 9, 42, 100
2, 206304, Note_off_c, 9, 38, 0
2, 206304, Note_off_c, 9, 42, 0
2, 206400, Note_on_c, 9, 35, 100
2, 206400, Note_on_c, 9, 42, 60
2, 206496, Note_off_c, 9, 35, 0
2, 206496, Note_off_c, 9, 42, 0
2, 206592, Note_on_c, 9, 35, 115
2, 206592, Note_on_c, 9, 42, 115
2, 206688, Note_off_c, 9, 35, 0
2, 206688, Note_off_c, 9, 42, 0
2, 206784, Note_on_c, 9, 42, 55
2, 206880, Note_off_c, 9, 42, 0
2, 206976, Note_on_c, 9, 38, 115
2, 206976, Note_on_c, 9, 42, 100
2, 207072, Note_off_c, 9, 38, 0
2, 207072, Note_off_c, 9, 42, 0
2, 207168, Note_on_c, 9, 42, 70
2, 207264, Note_off_c, 9, 42, 0
2, 207360, Note_on_c, 9, 35, 115
2, 207360, Note_on_c, 9, 42, 115
2, 207456, Note_off_c, 9, 35, 0
2, 207456, Note_off_c, 9, 42, 0
2, 207552, Note_on_c, 9, 42, 50
2, 207648, Note_off_c, 9, 42, 0
2, 207744, Note_on_c, 9, 42, 100
2, 207840, Note_off_c, 9, 42, 0
2, 207936, Note_on_c, 9, 42, 60
2, 208032, Note_off_c, 9, 42, 0
2, 208128, Note_on_c, 9, 49, 75
2, 208128, Note_on_c, 9, 35, 115
2, 208128, Note_on_c, 9, 42, 115
2, 208224, Note_off_c, 9, 35, 0
2, 208224, Note_off_c, 9, 42, 0
2, 208280, Note_off_c, 9, 49, 0
2, 208320, Note_on_c, 9, 42, 55
2, 208416, Note_off_c, 9, 42, 0
2, 208512, Note_on_c, 9, 38, 115
2, 208512, Note_on_c, 9, 42, 100
2, 208608, Note_off_c, 9, 38, 0
2, 208608, Note_off_c, 9, 42, 0
2, 208704, Note_on_c, 9, 42, 70
2, 208800, Note_off_c, 9, 42, 0
2, 208896, Note_on_c, 9, 35, 115
2, 208896, Note_on_c, 9, 42, 115
2, 208992, Note_off_c, 9, 35, 0
2, 208992, Note_off_c, 9, 42, 0
2, 209088, Note_on_c, 9, 42, 50
2, 209184, Note_off_c, 9, 42, 0
2, 209280, Note_on_c, 9, 38, 115
2, 209280, Note_on_c, 9, 42, 100
2, 209376, Note_off_c, 9, 38, 0
2, 209376, Note_off_c, 9, 42, 0
2, 209472, Note_on_c, 9, 35, 100
2, 209472, Note_on_c, 9, 42, 60
2, 209568, Note_off_c, 9, 35, 0
2, 209568, Note_off_c, 9, 42, 0
2, 209664, Note_on_c, 9, 35, 115
2, 209664, Note_on_c, 9, 42, 115
2, 209760, Note_off_c, 9, 35, 0
2, 209760, Note_off_c, 9, 42, 0
2, 209856, Note_on_c, 9, 42, 55
2, 209952, Note_off_c, 9, 42, 0
2, 210048, Note_on_c, 9, 57, 75
2, 210048, Note_on_c, 9, 38, 115
2, 210048, Note_on_c, 9, 42, 100
2, 210144, Note_off_c, 9, 42, 0
2, 210200, Note_off_c, 9, 57, 0
2, 210200, Note_off_c, 9, 38, 0
2, 210240, Note_on_c, 9, 38, 100
2, 210240, Note_on_c, 9, 42, 70
2, 210336, Note_off_c, 9, 42, 0
2, 210392, Note_off_c, 9, 38, 0
2, 210432, Note_on_c, 9, 49, 60
2, 210432, Note_on_c, 9, 51, 115
2, 210432, Note_on_c, 9, 42, 100
2, 210432, Note_on_c, 9, 36, 100
2, 210496, Note_off_c, 9, 49, 0
2, 210496, Note_off_c, 9, 51, 0
2, 210496, Note_off_c, 9, 42, 0
2, 210496, Note_off_c, 9, 36, 0
2, 210624, Note_on_c, 9, 42, 70
2, 210688, Note_off_c, 9, 42, 0
2, 210816, Note_on_c, 9, 42, 100
2, 210816, Note_on_c, 9, 38, 115
2, 210880, Note_off_c, 9, 42, 0
2, 210880, Note_off_c, 9, 38, 0
2, 211008, Note_on_c, 9, 42, 70
2, 211072, Note_off_c, 9, 42, 0
2, 211200, Note_on_c, 9, 42, 100
2, 211200, Note_on_c, 9, 36, 100
2, 211264, Note_off_c, 9, 42, 0
2, 211264, Note_off_c, 9, 36, 0
2, 211392, Note_on_c, 9, 42, 70
2, 211392, Note_on_c, 9, 36, 90
2, 211456, Note_off_c, 9, 42, 0
2, 211456, Note_off_c, 9, 36, 0
2, 211584, Note_on_c, 9, 42, 100
2, 211584, Note_on_c, 9, 38, 115
2, 211648, Note_off_c, 9, 42, 0
2, 211648, Note_off_c, 9, 38, 0
2, 211776, Note_on_c, 9, 42, 70
2, 211840, Note_off_c, 9, 42, 0
2, 211968, Note_on_c, 9, 51, 115
2, 211968, Note_on_c, 9, 42, 100
2, 211968, Note_on_c, 9, 36, 100
2, 212032, Note_off_c, 9, 51, 0
2, 212032, Note_off_c, 9, 42, 0
2, 212032, Note_off_c, 9, 36, 0
2, 212160, Note_on_c, 9, 42, 70
2, 212224, Note_off_c, 9, 42, 0
2, 212352, Note_on_c, 9, 42, 100
2, 212352, Note_on_c, 9, 38, 115
2, 212416, Note_off_c, 9, 42, 0
2, 212416, Note_off_c, 9, 38, 0
2, 212544, Note_on_c, 9, 42, 70
2, 212608, Note_off_c, 9, 42, 0
2, 212736, Note_on_c, 9, 42, 100
2, 212736, Note_on_c, 9, 36, 100
2, 212800, Note_off_c, 9, 42, 0
2, 212800, Note_off_c, 9, 36, 0
2, 212928, Note_on_c, 9, 42, 70
2, 212928, Note_on_c, 9, 36, 90
2, 212992, Note_off_c, 9, 42, 0
2, 212992, Note_off_c, 9, 36, 0
2, 213120, Note_on_c, 9, 42, 100
2, 213120, Note_on_c, 9, 38, 115
2, 213184, Note_off_c, 9, 42, 0
2, 213184, Note_off_c, 9, 38, 0
2, 213312, Note_on_c, 9, 42, 70
2, 213376, Note_off_c, 9, 42, 0
2, 213504, Note_on_c, 9, 51, 115
2, 213504, Note_on_c, 9, 42, 100
2, 213504, Note_on_c, 9, 36, 100
2, 213568, Note_off_c, 9, 51, 0
2, 213568, Note_off_c, 9, 42, 0
2, 213568, Note_off_c, 9, 36, 0
2, 213696, Note_on_c, 9, 42, 70
2, 213760, Note_off_c, 9, 42, 0
2, 213888, Note_on_c, 9, 42, 100
2, 213888, Note_on_c, 9, 38, 115
2, 213952, Note_off_c, 9, 42, 0
2, 213952, Note_off_c, 9, 38, 0
2, 214080, Note_on_c, 9, 42, 70
2, 214144, Note_off_c, 9, 42, 0
2, 214272, Note_on_c, 9, 42, 100
2, 214272, Note_on_c, 9, 36, 100
2, 214336, Note_off_c, 9, 42, 0
2, 214336, Note_off_c, 9, 36, 0
2, 214464, Note_on_c, 9, 42, 70
2, 214464, Note_on_c, 9, 36, 90
2, 214528, Note_off_c, 9, 42, 0
2, 214528, Note_off_c, 9, 36, 0
2, 214656, Note_on_c, 9, 42, 100
2, 214656, Note_on_c, 9, 38, 115
2, 214720, Note_off_c, 9, 42, 0
2, 214720, Note_off_c, 9, 38, 0
2, 214848, Note_on_c, 9, 42, 70
2, 214912, Note_off_c, 9, 42, 0
2, 215040, Note_on_c, 9, 51, 115
2, 215040, Note_on_c, 9, 42, 100
2, 215040, Note_on_c, 9, 36, 100
2, 215104, Note_off_c, 9, 51, 0
2, 215104, Note_off_c, 9, 42, 0
2, 215104, Note_off_c, 9, 36, 0
2, 215232, Note_on_c, 9, 42, 70
2, 215296, Note_off_c, 9, 42, 0
2, 215424, Note_on_c, 9, 42, 100
2, 215424, Note_on_c, 9, 38, 115
2, 215488, Note_off_c, 9, 42, 0
2, 215488, Note_off_c, 9, 38, 0
2, 215616, Note_on_c, 9, 42, 70
2, 215680, Note_off_c, 9, 42, 0
2, 215808, Note_on_c, 9, 42, 100
2, 215808, Note_on_c, 9, 36, 100
2, 215872, Note_off_c, 9, 42, 0
2, 215872, Note_off_c, 9, 36, 0
2, 216000, Note_on_c, 9, 42, 70
2, 216000, Note_on_c, 9, 36, 90
2, 216064, Note_off_c, 9, 42, 0
2, 216064, Note_off_c, 9, 36, 0
2, 216192, Note_on_c, 9, 42, 100
2, 216192, Note_on_c, 9, 38, 115
2, 216256, Note_off_c, 9, 42, 0
2, 216256, Note_off_c, 9, 38, 0
2, 216384, Note_on_c, 9, 42, 70
2, 216448, Note_off_c, 9, 42, 0
2, 216576, Note_on_c, 9, 49, 60
2, 216576, Note_on_c, 9, 51, 115
2, 216576, Note_on_c, 9, 42, 100
2, 216576, Note_on_c, 9, 36, 100
2, 216640, Note_off_c, 9, 49, 0
2, 216640, Note_off_c, 9, 51, 0
2, 216640, Note_off_c, 9, 42, 0
2, 216640, Note_off_c, 9, 36, 0
2, 216768, Note_on_c, 9, 42, 70
2, 216832, Note_off_c, 9, 42, 0
2, 216960, Note_on_c, 9, 42, 100
2, 216960, Note_on_c, 9, 38, 115
2, 217024, Note_off_c, 9, 42, 0
2, 217024, Note_off_c, 9, 38, 0
2, 217152, Note_on_c, 9, 42, 70
2, 217216, Note_off_c, 9, 42, 0
2, 217344, Note_on_c, 9, 42, 100
2, 217344, Note_on_c, 9, 36, 100
2, 217408, Note_off_c, 9, 42, 0
2, 217408, Note_off_c, 9, 36, 0
2, 217536, Note_on_c, 9, 42, 70
2, 217536, Note_on_c, 9, 36, 90
2, 217600, Note_off_c, 9, 42, 0
2, 217600, Note_off_c, 9, 36, 0
2, 217728, Note_on_c, 9, 42, 100
2, 217728, Note_on_c, 9, 38, 115
2, 217792, Note_off_c, 9, 42, 0
2, 217792, Note_off_c, 9, 38, 0
2, 217920, Note_on_c, 9, 42, 70
2, 217984, Note_off_c, 9, 42, 0
2, 218112, Note_on_c, 9, 51, 115
2, 218112, Note_on_c, 9, 42, 100
2, 218112, Note_on_c, 9, 36, 100
2, 218176, Note_off_c, 9, 51, 0
2, 218176, Note_off_c, 9, 42, 0
2, 218176, Note_off_c, 9, 36, 0
2, 218304, Note_on_c, 9, 42, 70
2, 218368, Note_off_c, 9, 42, 0
2, 218496, Note_on_c, 9, 42, 100
2, 218496, Note_on_c, 9, 38, 115
2, 218560, Note_off_c, 9, 42, 0
2, 218560, Note_off_c, 9, 38, 0
2, 218688, Note_on_c, 9, 42, 70
2, 218752, Note_off_c, 9, 42, 0
2, 218880, Note_on_c, 9, 42, 100
2, 218880, Note_on_c, 9, 36, 100
2, 218944, Note_off_c, 9, 42, 0
2, 218944, Note_off_c, 9, 36, 0
2, 219072, Note_on_c, 9, 42, 70
2, 219072, Note_on_c, 9, 36, 90
2, 219136, Note_off_c, 9, 42, 0
2, 219136, Note_off_c, 9, 36, 0
2, 219264, Note_on_c, 9, 42, 100
2, 219264, Note_on_c, 9, 38, 115
2, 219328, Note_off_c, 9, 42, 0
2, 219328, Note_off_c, 9, 38, 0
2, 219456, Note_on_c, 9, 42, 70
2, 219520, Note_off_c, 9, 42, 0
2, 219648, Note_on_c, 9, 49, 60
2, 219648, Note_on_c, 9, 51, 115
2, 219648, Note_on_c, 9, 42, 100
2, 219648, Note_on_c, 9, 36, 100
2, 219712, Note_off_c, 9, 49, 0
2, 219712, Note_off_c, 9, 51, 0
2, 219712, Note_off_c, 9, 42, 0
2, 219712, Note_off_c, 9, 36, 0
2, 219840, Note_on_c, 9, 42, 70
2, 219904, Note_off_c, 9, 42, 0
2, 220032, Note_on_c, 9, 42, 100
2, 220032, Note_on_c, 9, 38, 115
2, 220096, Note_off_c, 9, 42, 0
2, 220096, Note_off_c, 9, 38, 0
2, 220224, Note_on_c, 9, 42, 70
2, 220288, Note_off_c, 9, 42, 0
2, 220416, Note_on_c, 9, 42, 100
2, 220416, Note_on_c, 9, 36, 100
2, 220480, Note_off_c, 9, 42, 0
2, 220480, Note_off_c, 9, 36, 0
2, 220608, Note_on_c, 9, 42, 70
2, 220608, Note_on_c, 9, 36, 90
2, 220672, Note_off_c, 9, 42, 0
2, 220672, Note_off_c, 9, 36, 0
2, 220800, Note_on_c, 9, 42, 100
2, 220800, Note_on_c, 9, 38, 115
2, 220864, Note_off_c, 9, 42, 0
2, 220864, Note_off_c, 9, 38, 0
2, 220992, Note_on_c, 9, 42, 70
2, 221056, Note_off_c, 9, 42, 0
2, 221184, Note_on_c, 9, 51, 115
2, 221184, Note_on_c, 9, 42, 100
2, 221184, Note_on_c, 9, 36, 100
2, 221248, Note_off_c, 9, 51, 0
2, 221248, Note_off_c, 9, 42, 0
2, 221248, Note_off_c, 9, 36, 0
2, 221376, Note_on_c, 9, 42, 70
2, 221440, Note_off_c, 9, 42, 0
2, 221568, Note_on_c, 9, 42, 100
2, 221568, Note_on_c, 9, 38, 115
2, 221632, Note_off_c, 9, 42, 0
2, 221632, Note_off_c, 9, 38, 0
2, 221760, Note_on_c, 9, 42, 70
2, 221824, Note_off_c, 9, 42, 0
2, 221952, Note_on_c, 9, 42, 100
2, 221952, Note_on_c, 9, 36, 100
2, 222016, Note_off_c, 9, 42, 0
2, 222016, Note_off_c, 9, 36, 0
2, 222144, Note_on_c, 9, 42, 70
2, 222144, Note_on_c, 9, 36, 90
2, 222208, Note_off_c, 9, 42, 0
2, 222208, Note_off_c, 9, 36, 0
2, 222336, Note_on_c, 9, 42, 100
2, 222336, Note_on_c, 9, 38, 115
2, 222400, Note_off_c, 9, 42, 0
2, 222400, Note_off_c, 9, 38, 0
2, 222528, Note_on_c, 9, 42, 70
2, 222592, Note_off_c, 9, 42, 0
2, 222720, Note_on_c, 9, 49, 60
2, 222720, Note_on_c, 9, 51, 115
2, 222720, Note_on_c, 9, 42, 100
2, 222720, Note_on_c, 9, 36, 100
2, 222784, Note_off_c, 9, 49, 0
2, 222784, Note_off_c, 9, 51, 0
2, 222784, Note_off_c, 9, 42, 0
2, 222784, Note_off_c, 9, 36, 0
2, 222912, Note_on_c, 9, 42, 70
2, 222976, Note_off_c, 9, 42, 0
2, 223104, Note_on_c, 9, 42, 100
2, 223104, Note_on_c, 9, 38, 115
2, 223168, Note_off_c, 9, 42, 0
2, 223168, Note_off_c, 9, 38, 0
2, 223296, Note_on_c, 9, 42, 70
2, 223360, Note_off_c, 9, 42, 0
2, 223488, Note_on_c, 9, 42, 100
2, 223488, Note_on_c, 9, 36, 100
2, 223552, Note_off_c, 9, 42, 0
2, 223552, Note_off_c, 9, 36, 0
2, 223680, Note_on_c, 9, 42, 70
2, 223680, Note_on_c, 9, 36, 90
2, 223744, Note_off_c, 9, 42, 0
2, 223744, Note_off_c, 9, 36, 0
2, 223872, Note_on_c, 9, 42, 100
2, 223872, Note_on_c, 9, 38, 115
2, 223936, Note_off_c, 9, 42, 0
2, 223936, Note_off_c, 9, 38, 0
2, 224064, Note_on_c, 9, 42, 70
2, 224128, Note_off_c, 9, 42, 0
2, 224256, Note_on_c, 9, 51, 115
2, 224256, Note_on_c, 9, 42, 100
2, 224256, Note_on_c, 9, 36, 100
2, 224320, Note_off_c, 9, 51, 0
2, 224320, Note_off_c, 9, 42, 0
2, 224320, Note_off_c, 9, 36, 0
2, 224448, Note_on_c, 9, 42, 70
2, 224512, Note_off_c, 9, 42, 0
2, 224640, Note_on_c, 9, 42, 100
2, 224640, Note_on_c, 9, 38, 115
2, 224704, Note_off_c, 9, 42, 0
2, 224704, Note_off_c, 9, 38, 0
2, 224832, Note_on_c, 9, 42, 70
2, 224896, Note_off_c, 9, 42, 0
2, 225024, Note_on_c, 9, 42, 100
2, 225024, Note_on_c, 9, 36, 100
2, 225088, Note_off_c, 9, 42, 0
2, 225088, Note_off_c, 9, 36, 0
2, 225216, Note_on_c, 9, 42, 70
2, 225216, Note_on_c, 9, 36, 90
2, 225280, Note_off_c, 9, 42, 0
2, 225280, Note_off_c, 9, 36, 0
2, 225408, Note_on_c, 9, 42, 100
2, 225408, Note_on_c, 9, 38, 115
2, 225472, Note_off_c, 9, 42, 0
2, 225472, Note_off_c, 9, 38, 0
2, 225600, Note_on_c, 9, 42, 70
2, 225664, Note_off_c, 9, 42, 0
2, 225792, Note_on_c, 9, 49, 60
2, 225792, Note_on_c, 9, 51, 115
2, 225792, Note_on_c, 9, 42, 100
2, 225792, Note_on_c, 9, 36, 100
2, 225856, Note_off_c, 9, 49, 0
2, 225856, Note_off_c, 9, 51, 0
2, 225856, Note_off_c, 9, 42, 0
2, 225856, Note_off_c, 9, 36, 0
2, 225984, Note_on_c, 9, 42, 70
2, 226048, Note_off_c, 9, 42, 0
2, 226176, Note_on_c, 9, 42, 100
2, 226176, Note_on_c, 9, 38, 115
2, 226240, Note_off_c, 9, 42, 0
2, 226240, Note_off_c, 9, 38, 0
2, 226368, Note_on_c, 9, 42, 70
2, 226432, Note_off_c, 9, 42, 0
2, 226560, Note_on_c, 9, 42, 100
2, 226560, Note_on_c, 9, 36, 100
2, 226624, Note_off_c, 9, 42, 0
2, 226624, Note_off_c, 9, 36, 0
2, 226752, Note_on_c, 9, 42, 70
2, 226752, Note_on_c, 9, 36, 90
2, 226816, Note_off_c, 9, 42, 0
2, 226816, Note_off_c, 9, 36, 0
2, 226944, Note_on_c, 9, 42, 100
2, 226944, Note_on_c, 9, 38, 115
2, 227008, Note_off_c, 9, 42, 0
2, 227008, Note_off_c, 9, 38, 0
2, 227136, Note_on_c, 9, 42, 70
2, 227200, Note_off_c, 9, 42, 0
2, 227328, Note_on_c, 9, 49, 60
2, 227328, Note_on_c, 9, 51, 115
2, 227328, Note_on_c, 9, 42, 100
2, 227328, Note_on_c, 9, 36, 100
2, 227392, Note_off_c, 9, 49, 0
2, 227392, Note_off_c, 9, 51, 0
2, 227392, Note_off_c, 9, 42, 0
2, 227392, Note_off_c, 9, 36, 0
2, 227520, Note_on_c, 9, 42, 70
2, 227584, Note_off_c, 9, 42, 0
2, 227712, Note_on_c, 9, 42, 100
2, 227712, Note_on_c, 9, 38, 115
2, 227776, Note_off_c, 9, 42, 0
2, 227776, Note_off_c, 9, 38, 0
2, 227904, Note_on_c, 9, 42, 70
2, 227968, Note_off_c, 9, 42, 0
2, 228096, Note_on_c, 9, 42, 100
2, 228096, Note_on_c, 9, 36, 100
2, 228160, Note_off_c, 9, 42, 0
2, 228160, Note_off_c, 9, 36, 0
2, 228288, Note_on_c, 9, 42, 70
2, 228288, Note_on_c, 9, 36, 90
2, 228352, Note_off_c, 9, 42, 0
2, 228352, Note_off_c, 9, 36, 0
2, 228480, Note_on_c, 9, 42, 100
2, 228480, Note_on_c, 9, 38, 115
2, 228544, Note_off_c, 9, 42, 0
2, 228544, Note_off_c, 9, 38, 0
2, 228672, Note_on_c, 9, 42, 70
2, 228736, Note_off_c, 9, 42, 0
2, 228736, End_track
3, 0, Start_track
3, 0, Title_t, "Bass"
3, 0, Control_c, 1, 0, 0
3, 0, Program_c, 1, 33
3, 0, Control_c, 1, 7, 116
3, 0, Control_c, 1, 10, 88
3, 0, Key_signature, -1, "major"
3, 0, Control_c, 1, 7, 100
3, 0, Program_c, 1, 35
3, 1536, Note_on_c, 1, 38, 127
3, 1688, Note_off_c, 1, 38, 0
3, 1728, Note_on_c, 1, 38, 127
3, 1880, Note_off_c, 1, 38, 0
3, 1920, Note_on_c, 1, 38, 127
3, 2072, Note_off_c, 1, 38, 0
3, 2112, Note_on_c, 1, 38, 127
3, 2264, Note_off_c, 1, 38, 0
3, 2304, Note_on_c, 1, 38, 127
3, 2456, Note_off_c, 1, 38, 0
3, 2496, Note_on_c, 1, 38, 127
3, 2648, Note_off_c, 1, 38, 0
3, 2688, Note_on_c, 1, 38, 127
3, 2840, Note_off_c, 1, 38, 0
3, 2880, Note_on_c, 1, 38, 127
3, 3032, Note_off_c, 1, 38, 0
3, 3072, Note_on_c, 1, 45, 127
3, 3224, Note_off_c, 1, 45, 0
3, 3264, Note_on_c, 1, 45, 127
3, 3416, Note_off_c, 1, 45, 0
3, 3456, Note_on_c, 1, 45, 127
3, 3608, Note_off_c, 1, 45, 0
3, 3648, Note_on_c, 1, 45, 127
3, 3800, Note_off_c, 1, 45, 0
3, 3840, Note_on_c, 1, 45, 127
3, 3992, Note_off_c, 1, 45, 0
3, 4032, Note_on_c, 1, 45, 127
3, 4184, Note_off_c, 1, 45, 0
3, 4224, Note_on_c, 1, 45, 127
3, 4376, Note_off_c, 1, 45, 0
3, 4416, Note_on_c, 1, 45, 127
3, 4568, Note_off_c, 1, 45, 0
3, 4608, Note_on_c, 1, 46, 127
3, 4760, Note_off_c, 1, 46, 0
3, 4800, Note_on_c, 1, 46, 127
3, 4952, Note_off_c, 1, 46, 0
3, 4992, Note_on_c, 1, 46, 127
3, 5144, Note_off_c, 1, 46, 0
3, 5184, Note_on_c, 1, 46, 127
3, 5336, Note_off_c, 1, 46, 0
3, 5376, Note_on_c, 1, 46, 127
3, 5528, Note_off_c, 1, 46, 0
3, 5568, Note_on_c, 1, 46, 127
3, 5720, Note_off_c, 1, 46, 0
3, 5760, Note_on_c, 1, 46, 127
3, 5912, Note_off_c, 1, 46, 0
3, 5952, Note_on_c, 1, 46, 127
3, 6104, Note_off_c, 1, 46, 0
3, 6144, Note_on_c, 1, 46, 127
3, 6296, Note_off_c, 1, 46, 0
3, 6336, Note_on_c, 1, 46, 127
3, 6488, Note_off_c, 1, 46, 0
3, 6528, Note_on_c, 1, 46, 127
3, 6680, Note_off_c, 1, 46, 0
3, 6720, Note_on_c, 1, 46, 127
3, 6872, Note_off_c, 1, 46, 0
3, 6912, Note_on_c, 1, 46, 127
3, 7064, Note_off_c, 1, 46, 0
3, 7104, Note_on_c, 1, 46, 127
3, 7256, Note_off_c, 1, 46, 0
3, 7296, Note_on_c, 1, 46, 127
3, 7448, Note_off_c, 1, 46, 0
3, 7488, Note_on_c, 1, 46, 127
3, 7640, Note_off_c, 1, 46, 0
3, 7680, Note_on_c, 1, 38, 127
3, 7832, Note_off_c, 1, 38, 0
3, 7872, Note_on_c, 1, 38, 127
3, 8024, Note_off_c, 1, 38, 0
3, 8064, Note_on_c, 1, 38, 127
3, 8216, Note_off_c, 1, 38, 0
3, 8256, Note_on_c, 1, 38, 127
3, 8408, Note_off_c, 1, 38, 0
3, 8448, Note_on_c, 1, 38, 127
3, 8600, Note_off_c, 1, 38, 0
3, 8640, Note_on_c, 1, 38, 127
3, 8792, Note_off_c, 1, 38, 0
3, 8832, Note_on_c, 1, 38, 127
3, 8984, Note_off_c, 1, 38, 0
3, 9024, Note_on_c, 1, 38, 127
3, 9176, Note_off_c, 1, 38, 0
3, 9216, Note_on_c, 1, 45, 127
3, 9368, Note_off_c, 1, 45, 0
3, 9408, Note_on_c, 1, 45, 127
3, 9560, Note_off_c, 1, 45, 0
3, 9600, Note_on_c, 1, 45, 127
3, 9752, Note_off_c, 1, 45, 0
3, 9792, Note_on_c, 1, 45, 127
3, 9944, Note_off_c, 1, 45, 0
3, 9984, Note_on_c, 1, 45, 127
3, 10136, Note_off_c, 1, 45, 0
3, 10176, Note_on_c, 1, 45, 127
3, 10328, Note_off_c, 1, 45, 0
3, 10368, Note_on_c, 1, 45, 127
3, 10520, Note_off_c, 1, 45, 0
3, 10560, Note_on_c, 1, 45, 127
3, 10712, Note_off_c, 1, 45, 0
3, 10752, Note_on_c, 1, 46, 127
3, 10904, Note_off_c, 1, 46, 0
3, 10944, Note_on_c, 1, 46, 127
3, 11096, Note_off_c, 1, 46, 0
3, 11136, Note_on_c, 1, 46, 127
3, 11288, Note_off_c, 1, 46, 0
3, 11328, Note_on_c, 1, 46, 127
3, 11480, Note_off_c, 1, 46, 0
3, 11520, Note_on_c, 1, 46, 127
3, 11672, Note_off_c, 1, 46, 0
3, 11712, Note_on_c, 1, 46, 127
3, 11864, Note_off_c, 1, 46, 0
3, 11904, Note_on_c, 1, 46, 127
3, 12056, Note_off_c, 1, 46, 0
3, 12096, Note_on_c, 1, 46, 127
3, 12248, Note_off_c, 1, 46, 0
3, 12288, Note_on_c, 1, 46, 127
3, 12440, Note_off_c, 1, 46, 0
3, 12480, Note_on_c, 1, 46, 127
3, 12632, Note_off_c, 1, 46, 0
3, 12672, Note_on_c, 1, 46, 127
3, 12824, Note_off_c, 1, 46, 0
3, 12864, Note_on_c, 1, 46, 127
3, 13016, Note_off_c, 1, 46, 0
3, 13056, Note_on_c, 1, 46, 127
3, 13208, Note_off_c, 1, 46, 0
3, 13248, Note_on_c, 1, 46, 127
3, 13400, Note_off_c, 1, 46, 0
3, 13440, Note_on_c, 1, 46, 127
3, 13592, Note_off_c, 1, 46, 0
3, 13632, Note_on_c, 1, 46, 127
3, 13784, Note_off_c, 1, 46, 0
3, 13824, Note_on_c, 1, 41, 127
3, 13976, Note_off_c, 1, 41, 0
3, 14016, Note_on_c, 1, 41, 127
3, 14168, Note_off_c, 1, 41, 0
3, 14208, Note_on_c, 1, 41, 127
3, 14360, Note_off_c, 1, 41, 0
3, 14400, Note_on_c, 1, 41, 127
3, 14552, Note_off_c, 1, 41, 0
3, 14592, Note_on_c, 1, 41, 127
3, 14744, Note_off_c, 1, 41, 0
3, 14784, Note_on_c, 1, 41, 127
3, 14936, Note_off_c, 1, 41, 0
3, 14976, Note_on_c, 1, 41, 127
3, 15128, Note_off_c, 1, 41, 0
3, 15168, Note_on_c, 1, 41, 127
3, 15320, Note_off_c, 1, 41, 0
3, 15360, Note_on_c, 1, 41, 127
3, 15512, Note_off_c, 1, 41, 0
3, 15552, Note_on_c, 1, 41, 127
3, 15704, Note_off_c, 1, 41, 0
3, 15744, Note_on_c, 1, 41, 127
3, 15896, Note_off_c, 1, 41, 0
3, 15936, Note_on_c, 1, 41, 127
3, 16088, Note_off_c, 1, 41, 0
3, 16128, Note_on_c, 1, 41, 127
3, 16280, Note_off_c, 1, 41, 0
3, 16320, Note_on_c, 1, 41, 127
3, 16472, Note_off_c, 1, 41, 0
3, 16512, Note_on_c, 1, 41, 127
3, 16664, Note_off_c, 1, 41, 0
3, 16704, Note_on_c, 1, 41, 127
3, 16856, Note_off_c, 1, 41, 0
3, 16896, Note_on_c, 1, 36, 127
3, 17048, Note_off_c, 1, 36, 0
3, 17088, Note_on_c, 1, 36, 127
3, 17240, Note_off_c, 1, 36, 0
3, 17280, Note_on_c, 1, 36, 127
3, 17432, Note_off_c, 1, 36, 0
3, 17472, Note_on_c, 1, 36, 127
3, 17624, Note_off_c, 1, 36, 0
3, 17664, Note_on_c, 1, 36, 127
3, 17816, Note_off_c, 1, 36, 0
3, 17856, Note_on_c, 1, 36, 127
3, 18008, Note_off_c, 1, 36, 0
3, 18048, Note_on_c, 1, 36, 127
3, 18200, Note_off_c, 1, 36, 0
3, 18240, Note_on_c, 1, 36, 127
3, 18392, Note_off_c, 1, 36, 0
3, 18432, Note_on_c, 1, 36, 127
3, 18584, Note_off_c, 1, 36, 0
3, 18624, Note_on_c, 1, 36, 127
3, 18776, Note_off_c, 1, 36, 0
3, 18816, Note_on_c, 1, 36, 127
3, 18968, Note_off_c, 1, 36, 0
3, 19008, Note_on_c, 1, 36, 127
3, 19160, Note_off_c, 1, 36, 0
3, 19200, Note_on_c, 1, 36, 127
3, 19352, Note_off_c, 1, 36, 0
3, 19392, Note_on_c, 1, 36, 127
3, 19544, Note_off_c, 1, 36, 0
3, 19584, Note_on_c, 1, 36, 127
3, 19736, Note_off_c, 1, 36, 0
3, 19776, Note_on_c, 1, 36, 127
3, 19928, Note_off_c, 1, 36, 0
3, 19968, Note_on_c, 1, 38, 127
3, 20120, Note_off_c, 1, 38, 0
3, 20160, Note_on_c, 1, 38, 127
3, 20312, Note_off_c, 1, 38, 0
3, 20352, Note_on_c, 1, 38, 127
3, 20504, Note_off_c, 1, 38, 0
3, 20544, Note_on_c, 1, 38, 127
3, 20696, Note_off_c, 1, 38, 0
3, 20736, Note_on_c, 1, 38, 127
3, 20888, Note_off_c, 1, 38, 0
3, 20928, Note_on_c, 1, 38, 127
3, 21080, Note_off_c, 1, 38, 0
3, 21120, Note_on_c, 1, 38, 127
3, 21272, Note_off_c, 1, 38, 0
3, 21312, Note_on_c, 1, 38, 127
3, 21464, Note_off_c, 1, 38, 0
3, 21504, Note_on_c, 1, 38, 127
3, 21656, Note_off_c, 1, 38, 0
3, 21696, Note_on_c, 1, 38, 127
3, 21848, Note_off_c, 1, 38, 0
3, 21888, Note_on_c, 1, 38, 127
3, 22040, Note_off_c, 1, 38, 0
3, 22080, Note_on_c, 1, 38, 127
3, 22232, Note_off_c, 1, 38, 0
3, 22272, Note_on_c, 1, 38, 127
3, 22424, Note_off_c, 1, 38, 0
3, 22464, Note_on_c, 1, 38, 127
3, 22616, Note_off_c, 1, 38, 0
3, 22656, Note_on_c, 1, 38, 127
3, 22808, Note_off_c, 1, 38, 0
3, 22848, Note_on_c, 1, 38, 127
3, 23000, Note_off_c, 1, 38, 0
3, 23040, Note_on_c, 1, 34, 127
3, 23192, Note_off_c, 1, 34, 0
3, 23232, Note_on_c, 1, 34, 127
3, 23384, Note_off_c, 1, 34, 0
3, 23424, Note_on_c, 1, 34, 127
3, 23576, Note_off_c, 1, 34, 0
3, 23616, Note_on_c, 1, 34, 127
3, 23768, Note_off_c, 1, 34, 0
3, 23808, Note_on_c, 1, 34, 127
3, 23960, Note_off_c, 1, 34, 0
3, 24000, Note_on_c, 1, 34, 127
3, 24152, Note_off_c, 1, 34, 0
3, 24192, Note_on_c, 1, 34, 127
3, 24344, Note_off_c, 1, 34, 0
3, 24384, Note_on_c, 1, 34, 127
3, 24536, Note_off_c, 1, 34, 0
3, 24576, Note_on_c, 1, 34, 127
3, 24728, Note_off_c, 1, 34, 0
3, 24768, Note_on_c, 1, 34, 127
3, 24920, Note_off_c, 1, 34, 0
3, 24960, Note_on_c, 1, 34, 127
3, 25112, Note_off_c, 1, 34, 0
3, 25152, Note_on_c, 1, 34, 127
3, 25304, Note_off_c, 1, 34, 0
3, 25344, Note_on_c, 1, 34, 127
3, 25496, Note_off_c, 1, 34, 0
3, 25536, Note_on_c, 1, 34, 127
3, 25688, Note_off_c, 1, 34, 0
3, 25728, Note_on_c, 1, 34, 127
3, 25880, Note_off_c, 1, 34, 0
3, 25920, Note_on_c, 1, 34, 127
3, 26072, Note_off_c, 1, 34, 0
3, 26112, Note_on_c, 1, 41, 127
3, 26264, Note_off_c, 1, 41, 0
3, 26304, Note_on_c, 1, 41, 127
3, 26456, Note_off_c, 1, 41, 0
3, 26496, Note_on_c, 1, 41, 127
3, 26648, Note_off_c, 1, 41, 0
3, 26688, Note_on_c, 1, 41, 127
3, 26840, Note_off_c, 1, 41, 0
3, 26880, Note_on_c, 1, 41, 127
3, 27032, Note_off_c, 1, 41, 0
3, 27072, Note_on_c, 1, 41, 127
3, 27224, Note_off_c, 1, 41, 0
3, 27264, Note_on_c, 1, 41, 127
3, 27416, Note_off_c, 1, 41, 0
3, 27456, Note_on_c, 1, 41, 127
3, 27608, Note_off_c, 1, 41, 0
3, 27648, Note_on_c, 1, 41, 127
3, 27800, Note_off_c, 1, 41, 0
3, 27840, Note_on_c, 1, 41, 127
3, 27992, Note_off_c, 1, 41, 0
3, 28032, Note_on_c, 1, 41, 127
3, 28184, Note_off_c, 1, 41, 0
3, 28224, Note_on_c, 1, 41, 127
3, 28376, Note_off_c, 1, 41, 0
3, 28416, Note_on_c, 1, 41, 127
3, 28568, Note_off_c, 1, 41, 0
3, 28608, Note_on_c, 1, 41, 127
3, 28760, Note_off_c, 1, 41, 0
3, 28800, Note_on_c, 1, 41, 127
3, 28952, Note_off_c, 1, 41, 0
3, 28992, Note_on_c, 1, 41, 127
3, 29144, Note_off_c, 1, 41, 0
3, 29184, Note_on_c, 1, 36, 127
3, 29336, Note_off_c, 1, 36, 0
3, 29376, Note_on_c, 1, 36, 127
3, 29528, Note_off_c, 1, 36, 0
3, 29568, Note_on_c, 1, 36, 127
3, 29720, Note_off_c, 1, 36, 0
3, 29760, Note_on_c, 1, 36, 127
3, 29912, Note_off_c, 1, 36, 0
3, 29952, Note_on_c, 1, 36, 127
3, 30104, Note_off_c, 1, 36, 0
3, 30144, Note_on_c, 1, 36, 127
3, 30296, Note_off_c, 1, 36, 0
3, 30336, Note_on_c, 1, 36, 127
3, 30488, Note_off_c, 1, 36, 0
3, 30528, Note_on_c, 1, 36, 127
3, 30680, Note_off_c, 1, 36, 0
3, 30720, Note_on_c, 1, 36, 127
3, 30872, Note_off_c, 1, 36, 0
3, 30912, Note_on_c, 1, 36, 127
3, 31064, Note_off_c, 1, 36, 0
3, 31104, Note_on_c, 1, 36, 127
3, 31256, Note_off_c, 1, 36, 0
3, 31296, Note_on_c, 1, 36, 127
3, 31448, Note_off_c, 1, 36, 0
3, 31488, Note_on_c, 1, 36, 127
3, 31640, Note_off_c, 1, 36, 0
3, 31680, Note_on_c, 1, 36, 127
3, 31832, Note_off_c, 1, 36, 0
3, 31872, Note_on_c, 1, 36, 127
3, 32024, Note_off_c, 1, 36, 0
3, 32064, Note_on_c, 1, 36, 127
3, 32216, Note_off_c, 1, 36, 0
3, 32256, Note_on_c, 1, 38, 127
3, 32408, Note_off_c, 1, 38, 0
3, 32448, Note_on_c, 1, 38, 127
3, 32600, Note_off_c, 1, 38, 0
3, 32640, Note_on_c, 1, 38, 127
3, 32792, Note_off_c, 1, 38, 0
3, 32832, Note_on_c, 1, 38, 127
3, 32984, Note_off_c, 1, 38, 0
3, 33024, Note_on_c, 1, 38, 127
3, 33176, Note_off_c, 1, 38, 0
3, 33216, Note_on_c, 1, 38, 127
3, 33368, Note_off_c, 1, 38, 0
3, 33408, Note_on_c, 1, 38, 127
3, 33560, Note_off_c, 1, 38, 0
3, 33600, Note_on_c, 1, 38, 127
3, 33752, Note_off_c, 1, 38, 0
3, 33792, Note_on_c, 1, 34, 127
3, 33944, Note_off_c, 1, 34, 0
3, 33984, Note_on_c, 1, 34, 127
3, 34136, Note_off_c, 1, 34, 0
3, 34176, Note_on_c, 1, 34, 127
3, 34328, Note_off_c, 1, 34, 0
3, 34368, Note_on_c, 1, 34, 127
3, 34520, Note_off_c, 1, 34, 0
3, 34560, Note_on_c, 1, 34, 127
3, 34712, Note_off_c, 1, 34, 0
3, 34752, Note_on_c, 1, 34, 127
3, 34904, Note_off_c, 1, 34, 0
3, 34944, Note_on_c, 1, 34, 127
3, 35096, Note_off_c, 1, 34, 0
3, 35136, Note_on_c, 1, 34, 127
3, 35288, Note_off_c, 1, 34, 0
3, 35328, Note_on_c, 1, 36, 127
3, 35480, Note_off_c, 1, 36, 0
3, 35520, Note_on_c, 1, 36, 127
3, 35672, Note_off_c, 1, 36, 0
3, 35712, Note_on_c, 1, 36, 127
3, 35864, Note_off_c, 1, 36, 0
3, 35904, Note_on_c, 1, 36, 127
3, 36056, Note_off_c, 1, 36, 0
3, 36096, Note_on_c, 1, 36, 127
3, 36248, Note_off_c, 1, 36, 0
3, 36288, Note_on_c, 1, 36, 127
3, 36440, Note_off_c, 1, 36, 0
3, 36480, Note_on_c, 1, 36, 127
3, 36632, Note_off_c, 1, 36, 0
3, 36672, Note_on_c, 1, 36, 127
3, 36824, Note_off_c, 1, 36, 0
3, 36864, Note_on_c, 1, 36, 127
3, 37016, Note_off_c, 1, 36, 0
3, 37056, Note_on_c, 1, 36, 127
3, 37208, Note_off_c, 1, 36, 0
3, 37248, Note_on_c, 1, 36, 127
3, 37400, Note_off_c, 1, 36, 0
3, 37440, Note_on_c, 1, 36, 127
3, 37592, Note_off_c, 1, 36, 0
3, 37632, Note_on_c, 1, 36, 127
3, 37784, Note_off_c, 1, 36, 0
3, 37824, Note_on_c, 1, 36, 127
3, 37976, Note_off_c, 1, 36, 0
3, 38016, Note_on_c, 1, 36, 127
3, 38168, Note_off_c, 1, 36, 0
3, 38208, Note_on_c, 1, 36, 127
3, 38360, Note_off_c, 1, 36, 0
3, 38400, Note_on_c, 1, 34, 127
3, 38552, Note_off_c, 1, 34, 0
3, 38592, Note_on_c, 1, 34, 127
3, 38744, Note_off_c, 1, 34, 0
3, 38784, Note_on_c, 1, 34, 127
3, 38936, Note_off_c, 1, 34, 0
3, 38976, Note_on_c, 1, 34, 127
3, 39128, Note_off_c, 1, 34, 0
3, 39168, Note_on_c, 1, 34, 127
3, 39320, Note_off_c, 1, 34, 0
3, 39360, Note_on_c, 1, 34, 127
3, 39512, Note_off_c, 1, 34, 0
3, 39552, Note_on_c, 1, 34, 127
3, 39704, Note_off_c, 1, 34, 0
3, 39744, Note_on_c, 1, 34, 127
3, 39896, Note_off_c, 1, 34, 0
3, 39936, Note_on_c, 1, 33, 127
3, 40088, Note_off_c, 1, 33, 0
3, 40128, Note_on_c, 1, 33, 127
3, 40280, Note_off_c, 1, 33, 0
3, 40320, Note_on_c, 1, 33, 127
3, 40472, Note_off_c, 1, 33, 0
3, 40512, Note_on_c, 1, 33, 127
3, 40664, Note_off_c, 1, 33, 0
3, 40704, Note_on_c, 1, 33, 127
3, 40856, Note_off_c, 1, 33, 0
3, 40896, Note_on_c, 1, 33, 127
3, 41048, Note_off_c, 1, 33, 0
3, 41088, Note_on_c, 1, 33, 127
3, 41240, Note_off_c, 1, 33, 0
3, 41280, Note_on_c, 1, 33, 127
3, 41432, Note_off_c, 1, 33, 0
3, 41472, Note_on_c, 1, 43, 127
3, 41624, Note_off_c, 1, 43, 0
3, 41664, Note_on_c, 1, 43, 127
3, 41816, Note_off_c, 1, 43, 0
3, 41856, Note_on_c, 1, 43, 127
3, 42008, Note_off_c, 1, 43, 0
3, 42048, Note_on_c, 1, 43, 127
3, 42200, Note_off_c, 1, 43, 0
3, 42240, Note_on_c, 1, 43, 127
3, 42392, Note_off_c, 1, 43, 0
3, 42432, Note_on_c, 1, 43, 127
3, 42584, Note_off_c, 1, 43, 0
3, 42624, Note_on_c, 1, 43, 127
3, 42776, Note_off_c, 1, 43, 0
3, 42816, Note_on_c, 1, 43, 127
3, 42968, Note_off_c, 1, 43, 0
3, 43008, Note_on_c, 1, 43, 127
3, 43160, Note_off_c, 1, 43, 0
3, 43200, Note_on_c, 1, 43, 127
3, 43352, Note_off_c, 1, 43, 0
3, 43392, Note_on_c, 1, 43, 127
3, 43544, Note_off_c, 1, 43, 0
3, 43584, Note_on_c, 1, 43, 127
3, 43736, Note_off_c, 1, 43, 0
3, 43776, Note_on_c, 1, 43, 127
3, 43928, Note_off_c, 1, 43, 0
3, 43968, Note_on_c, 1, 43, 127
3, 44120, Note_off_c, 1, 43, 0
3, 44160, Note_on_c, 1, 43, 127
3, 44312, Note_off_c, 1, 43, 0
3, 44352, Note_on_c, 1, 43, 127
3, 44504, Note_off_c, 1, 43, 0
3, 44544, Note_on_c, 1, 34, 127
3, 44696, Note_off_c, 1, 34, 0
3, 44736, Note_on_c, 1, 34, 127
3, 44888, Note_off_c, 1, 34, 0
3, 44928, Note_on_c, 1, 34, 127
3, 45080, Note_off_c, 1, 34, 0
3, 45120, Note_on_c, 1, 34, 127
3, 45272, Note_off_c, 1, 34, 0
3, 45312, Note_on_c, 1, 34, 127
3, 45464, Note_off_c, 1, 34, 0
3, 45504, Note_on_c, 1, 34, 127
3, 45656, Note_off_c, 1, 34, 0
3, 45696, Note_on_c, 1, 34, 127
3, 45848, Note_off_c, 1, 34, 0
3, 45888, Note_on_c, 1, 34, 127
3, 46040, Note_off_c, 1, 34, 0
3, 46080, Note_on_c, 1, 33, 127
3, 46232, Note_off_c, 1, 33, 0
3, 46272, Note_on_c, 1, 33, 127
3, 46424, Note_off_c, 1, 33, 0
3, 46464, Note_on_c, 1, 33, 127
3, 46616, Note_off_c, 1, 33, 0
3, 46656, Note_on_c, 1, 33, 127
3, 46808, Note_off_c, 1, 33, 0
3, 46848, Note_on_c, 1, 33, 127
3, 47000, Note_off_c, 1, 33, 0
3, 47040, Note_on_c, 1, 33, 127
3, 47192, Note_off_c, 1, 33, 0
3, 47232, Note_on_c, 1, 33, 127
3, 47384, Note_off_c, 1, 33, 0
3, 47424, Note_on_c, 1, 33, 127
3, 47576, Note_off_c, 1, 33, 0
3, 47616, Note_on_c, 1, 36, 127
3, 47768, Note_off_c, 1, 36, 0
3, 47808, Note_on_c, 1, 36, 127
3, 47960, Note_off_c, 1, 36, 0
3, 48000, Note_on_c, 1, 36, 127
3, 48152, Note_off_c, 1, 36, 0
3, 48192, Note_on_c, 1, 36, 127
3, 48344, Note_off_c, 1, 36, 0
3, 48384, Note_on_c, 1, 36, 127
3, 48536, Note_off_c, 1, 36, 0
3, 48576, Note_on_c, 1, 36, 127
3, 48728, Note_off_c, 1, 36, 0
3, 48768, Note_on_c, 1, 36, 127
3, 48920, Note_off_c, 1, 36, 0
3, 48960, Note_on_c, 1, 36, 127
3, 49112, Note_off_c, 1, 36, 0
3, 49152, Note_on_c, 1, 36, 127
3, 49304, Note_off_c, 1, 36, 0
3, 49344, Note_on_c, 1, 36, 127
3, 49496, Note_off_c, 1, 36, 0
3, 49536, Note_on_c, 1, 36, 127
3, 49688, Note_off_c, 1, 36, 0
3, 49728, Note_on_c, 1, 36, 127
3, 49880, Note_off_c, 1, 36, 0
3, 49920, Note_on_c, 1, 36, 127
3, 50072, Note_off_c, 1, 36, 0
3, 50112, Note_on_c, 1, 36, 127
3, 50264, Note_off_c, 1, 36, 0
3, 50304, Note_on_c, 1, 36, 127
3, 50456, Note_off_c, 1, 36, 0
3, 50496, Note_on_c, 1, 36, 127
3, 50648, Note_off_c, 1, 36, 0
3, 50688, Note_on_c, 1, 38, 127
3, 50840, Note_off_c, 1, 38, 0
3, 50880, Note_on_c, 1, 38, 127
3, 51032, Note_off_c, 1, 38, 0
3, 51072, Note_on_c, 1, 38, 127
3, 51224, Note_off_c, 1, 38, 0
3, 51264, Note_on_c, 1, 38, 127
3, 51416, Note_off_c, 1, 38, 0
3, 51456, Note_on_c, 1, 38, 127
3, 51608, Note_off_c, 1, 38, 0
3, 51648, Note_on_c, 1, 38, 127
3, 51800, Note_off_c, 1, 38, 0
3, 51840, Note_on_c, 1, 38, 127
3, 51992, Note_off_c, 1, 38, 0
3, 52032, Note_on_c, 1, 38, 127
3, 52184, Note_off_c, 1, 38, 0
3, 52224, Note_on_c, 1, 45, 127
3, 52376, Note_off_c, 1, 45, 0
3, 52416, Note_on_c, 1, 45, 127
3, 52568, Note_off_c, 1, 45, 0
3, 52608, Note_on_c, 1, 45, 127
3, 52760, Note_off_c, 1, 45, 0
3, 52800, Note_on_c, 1, 45, 127
3, 52952, Note_off_c, 1, 45, 0
3, 52992, Note_on_c, 1, 45, 127
3, 53144, Note_off_c, 1, 45, 0
3, 53184, Note_on_c, 1, 45, 127
3, 53336, Note_off_c, 1, 45, 0
3, 53376, Note_on_c, 1, 45, 127
3, 53528, Note_off_c, 1, 45, 0
3, 53568, Note_on_c, 1, 45, 127
3, 53720, Note_off_c, 1, 45, 0
3, 53760, Note_on_c, 1, 43, 127
3, 53912, Note_off_c, 1, 43, 0
3, 53952, Note_on_c, 1, 43, 127
3, 54104, Note_off_c, 1, 43, 0
3, 54144, Note_on_c, 1, 43, 127
3, 54296, Note_off_c, 1, 43, 0
3, 54336, Note_on_c, 1, 43, 127
3, 54488, Note_off_c, 1, 43, 0
3, 54528, Note_on_c, 1, 43, 127
3, 54680, Note_off_c, 1, 43, 0
3, 54720, Note_on_c, 1, 43, 127
3, 54872, Note_off_c, 1, 43, 0
3, 54912, Note_on_c, 1, 43, 127
3, 55064, Note_off_c, 1, 43, 0
3, 55104, Note_on_c, 1, 43, 127
3, 55256, Note_off_c, 1, 43, 0
3, 55296, Note_on_c, 1, 43, 127
3, 55448, Note_off_c, 1, 43, 0
3, 55488, Note_on_c, 1, 43, 127
3, 55640, Note_off_c, 1, 43, 0
3, 55680, Note_on_c, 1, 43, 127
3, 55832, Note_off_c, 1, 43, 0
3, 55872, Note_on_c, 1, 43, 127
3, 56024, Note_off_c, 1, 43, 0
3, 56064, Note_on_c, 1, 33, 127
3, 56368, Note_off_c, 1, 33, 0
3, 56448, Note_on_c, 1, 36, 127
3, 56752, Note_off_c, 1, 36, 0
3, 56832, Note_on_c, 1, 38, 127
3, 56984, Note_off_c, 1, 38, 0
3, 57024, Note_on_c, 1, 38, 127
3, 57176, Note_off_c, 1, 38, 0
3, 57216, Note_on_c, 1, 38, 127
3, 57368, Note_off_c, 1, 38, 0
3, 57408, Note_on_c, 1, 38, 127
3, 57560, Note_off_c, 1, 38, 0
3, 57600, Note_on_c, 1, 38, 127
3, 57752, Note_off_c, 1, 38, 0
3, 57792, Note_on_c, 1, 38, 127
3, 57944, Note_off_c, 1, 38, 0
3, 57984, Note_on_c, 1, 38, 127
3, 58136, Note_off_c, 1, 38, 0
3, 58176, Note_on_c, 1, 38, 127
3, 58328, Note_off_c, 1, 38, 0
3, 58368, Note_on_c, 1, 45, 127
3, 58520, Note_off_c, 1, 45, 0
3, 58560, Note_on_c, 1, 45, 127
3, 58712, Note_off_c, 1, 45, 0
3, 58752, Note_on_c, 1, 45, 127
3, 58904, Note_off_c, 1, 45, 0
3, 58944, Note_on_c, 1, 45, 127
3, 59096, Note_off_c, 1, 45, 0
3, 59136, Note_on_c, 1, 45, 127
3, 59288, Note_off_c, 1, 45, 0
3, 59328, Note_on_c, 1, 45, 127
3, 59480, Note_off_c, 1, 45, 0
3, 59520, Note_on_c, 1, 45, 127
3, 59672, Note_off_c, 1, 45, 0
3, 59712, Note_on_c, 1, 45, 127
3, 59864, Note_off_c, 1, 45, 0
3, 59904, Note_on_c, 1, 43, 127
3, 60056, Note_off_c, 1, 43, 0
3, 60096, Note_on_c, 1, 43, 127
3, 60248, Note_off_c, 1, 43, 0
3, 60288, Note_on_c, 1, 43, 127
3, 60440, Note_off_c, 1, 43, 0
3, 60480, Note_on_c, 1, 43, 127
3, 60632, Note_off_c, 1, 43, 0
3, 60672, Note_on_c, 1, 43, 127
3, 60824, Note_off_c, 1, 43, 0
3, 60864, Note_on_c, 1, 43, 127
3, 61016, Note_off_c, 1, 43, 0
3, 61056, Note_on_c, 1, 43, 127
3, 61208, Note_off_c, 1, 43, 0
3, 61248, Note_on_c, 1, 43, 127
3, 61400, Note_off_c, 1, 43, 0
3, 61440, Note_on_c, 1, 43, 127
3, 61592, Note_off_c, 1, 43, 0
3, 61632, Note_on_c, 1, 43, 127
3, 61784, Note_off_c, 1, 43, 0
3, 61824, Note_on_c, 1, 43, 127
3, 61976, Note_off_c, 1, 43, 0
3, 62016, Note_on_c, 1, 43, 127
3, 62168, Note_off_c, 1, 43, 0
3, 62208, Note_on_c, 1, 33, 127
3, 62512, Note_off_c, 1, 33, 0
3, 62592, Note_on_c, 1, 36, 127
3, 62896, Note_off_c, 1, 36, 0
3, 62976, Note_on_c, 1, 38, 127
3, 63128, Note_off_c, 1, 38, 0
3, 63168, Note_on_c, 1, 38, 127
3, 63320, Note_off_c, 1, 38, 0
3, 63360, Note_on_c, 1, 38, 127
3, 63512, Note_off_c, 1, 38, 0
3, 63552, Note_on_c, 1, 38, 127
3, 63704, Note_off_c, 1, 38, 0
3, 63744, Note_on_c, 1, 38, 127
3, 63896, Note_off_c, 1, 38, 0
3, 63936, Note_on_c, 1, 38, 127
3, 64088, Note_off_c, 1, 38, 0
3, 64128, Note_on_c, 1, 38, 127
3, 64280, Note_off_c, 1, 38, 0
3, 64320, Note_on_c, 1, 38, 127
3, 64472, Note_off_c, 1, 38, 0
3, 64512, Note_on_c, 1, 45, 127
3, 64664, Note_off_c, 1, 45, 0
3, 64704, Note_on_c, 1, 45, 127
3, 64856, Note_off_c, 1, 45, 0
3, 64896, Note_on_c, 1, 45, 127
3, 65048, Note_off_c, 1, 45, 0
3, 65088, Note_on_c, 1, 45, 127
3, 65240, Note_off_c, 1, 45, 0
3, 65280, Note_on_c, 1, 45, 127
3, 65432, Note_off_c, 1, 45, 0
3, 65472, Note_on_c, 1, 45, 127
3, 65624, Note_off_c, 1, 45, 0
3, 65664, Note_on_c, 1, 45, 127
3, 65816, Note_off_c, 1, 45, 0
3, 65856, Note_on_c, 1, 45, 127
3, 66008, Note_off_c, 1, 45, 0
3, 66048, Note_on_c, 1, 46, 127
3, 66200, Note_off_c, 1, 46, 0
3, 66240, Note_on_c, 1, 46, 127
3, 66392, Note_off_c, 1, 46, 0
3, 66432, Note_on_c, 1, 46, 127
3, 66584, Note_off_c, 1, 46, 0
3, 66624, Note_on_c, 1, 46, 127
3, 66776, Note_off_c, 1, 46, 0
3, 66816, Note_on_c, 1, 46, 127
3, 66968, Note_off_c, 1, 46, 0
3, 67008, Note_on_c, 1, 46, 127
3, 67160, Note_off_c, 1, 46, 0
3, 67200, Note_on_c, 1, 46, 127
3, 67352, Note_off_c, 1, 46, 0
3, 67392, Note_on_c, 1, 46, 127
3, 67544, Note_off_c, 1, 46, 0
3, 67584, Note_on_c, 1, 46, 127
3, 67736, Note_off_c, 1, 46, 0
3, 67776, Note_on_c, 1, 46, 127
3, 67928, Note_off_c, 1, 46, 0
3, 67968, Note_on_c, 1, 46, 127
3, 68120, Note_off_c, 1, 46, 0
3, 68160, Note_on_c, 1, 46, 127
3, 68312, Note_off_c, 1, 46, 0
3, 68352, Note_on_c, 1, 46, 127
3, 68448, Note_on_c, 1, 58, 127
3, 68504, Note_off_c, 1, 46, 0
3, 68544, Note_on_c, 1, 46, 127
3, 68600, Note_off_c, 1, 58, 0
3, 68696, Note_off_c, 1, 46, 0
3, 68736, Note_on_c, 1, 58, 127
3, 68832, Note_on_c, 1, 46, 127
3, 68888, Note_off_c, 1, 58, 0
3, 68928, Note_on_c, 1, 58, 127
3, 68984, Note_off_c, 1, 46, 0
3, 69080, Note_off_c, 1, 58, 0
3, 69120, Note_on_c, 1, 41, 127
3, 69272, Note_off_c, 1, 41, 0
3, 69312, Note_on_c, 1, 41, 127
3, 69464, Note_off_c, 1, 41, 0
3, 69504, Note_on_c, 1, 41, 127
3, 69656, Note_off_c, 1, 41, 0
3, 69696, Note_on_c, 1, 41, 127
3, 69848, Note_off_c, 1, 41, 0
3, 69888, Note_on_c, 1, 41, 127
3, 70040, Note_off_c, 1, 41, 0
3, 70080, Note_on_c, 1, 41, 127
3, 70232, Note_off_c, 1, 41, 0
3, 70272, Note_on_c, 1, 41, 127
3, 70424, Note_off_c, 1, 41, 0
3, 70464, Note_on_c, 1, 41, 127
3, 70616, Note_off_c, 1, 41, 0
3, 70656, Note_on_c, 1, 41, 127
3, 70808, Note_off_c, 1, 41, 0
3, 70848, Note_on_c, 1, 41, 127
3, 71000, Note_off_c, 1, 41, 0
3, 71040, Note_on_c, 1, 41, 127
3, 71192, Note_off_c, 1, 41, 0
3, 71232, Note_on_c, 1, 41, 127
3, 71384, Note_off_c, 1, 41, 0
3, 71424, Note_on_c, 1, 41, 127
3, 71576, Note_off_c, 1, 41, 0
3, 71616, Note_on_c, 1, 41, 127
3, 71768, Note_off_c, 1, 41, 0
3, 71808, Note_on_c, 1, 41, 127
3, 71960, Note_off_c, 1, 41, 0
3, 72000, Note_on_c, 1, 41, 127
3, 72152, Note_off_c, 1, 41, 0
3, 72192, Note_on_c, 1, 36, 127
3, 72344, Note_off_c, 1, 36, 0
3, 72384, Note_on_c, 1, 36, 127
3, 72536, Note_off_c, 1, 36, 0
3, 72576, Note_on_c, 1, 36, 127
3, 72728, Note_off_c, 1, 36, 0
3, 72768, Note_on_c, 1, 36, 127
3, 72920, Note_off_c, 1, 36, 0
3, 72960, Note_on_c, 1, 36, 127
3, 73112, Note_off_c, 1, 36, 0
3, 73152, Note_on_c, 1, 36, 127
3, 73304, Note_off_c, 1, 36, 0
3, 73344, Note_on_c, 1, 36, 127
3, 73496, Note_off_c, 1, 36, 0
3, 73536, Note_on_c, 1, 36, 127
3, 73688, Note_off_c, 1, 36, 0
3, 73728, Note_on_c, 1, 36, 127
3, 73880, Note_off_c, 1, 36, 0
3, 73920, Note_on_c, 1, 36, 127
3, 74072, Note_off_c, 1, 36, 0
3, 74112, Note_on_c, 1, 36, 127
3, 74264, Note_off_c, 1, 36, 0
3, 74304, Note_on_c, 1, 36, 127
3, 74456, Note_off_c, 1, 36, 0
3, 74496, Note_on_c, 1, 36, 127
3, 74648, Note_off_c, 1, 36, 0
3, 74688, Note_on_c, 1, 36, 127
3, 74840, Note_off_c, 1, 36, 0
3, 74880, Note_on_c, 1, 36, 127
3, 75032, Note_off_c, 1, 36, 0
3, 75072, Note_on_c, 1, 36, 127
3, 75224, Note_off_c, 1, 36, 0
3, 75264, Note_on_c, 1, 38, 127
3, 75416, Note_off_c, 1, 38, 0
3, 75456, Note_on_c, 1, 38, 127
3, 75608, Note_off_c, 1, 38, 0
3, 75648, Note_on_c, 1, 38, 127
3, 75800, Note_off_c, 1, 38, 0
3, 75840, Note_on_c, 1, 38, 127
3, 75992, Note_off_c, 1, 38, 0
3, 76032, Note_on_c, 1, 38, 127
3, 76184, Note_off_c, 1, 38, 0
3, 76224, Note_on_c, 1, 38, 127
3, 76376, Note_off_c, 1, 38, 0
3, 76416, Note_on_c, 1, 38, 127
3, 76568, Note_off_c, 1, 38, 0
3, 76608, Note_on_c, 1, 38, 127
3, 76760, Note_off_c, 1, 38, 0
3, 76800, Note_on_c, 1, 38, 127
3, 76952, Note_off_c, 1, 38, 0
3, 76992, Note_on_c, 1, 38, 127
3, 77144, Note_off_c, 1, 38, 0
3, 77184, Note_on_c, 1, 38, 127
3, 77336, Note_off_c, 1, 38, 0
3, 77376, Note_on_c, 1, 38, 127
3, 77528, Note_off_c, 1, 38, 0
3, 77568, Note_on_c, 1, 38, 127
3, 77720, Note_off_c, 1, 38, 0
3, 77760, Note_on_c, 1, 38, 127
3, 77912, Note_off_c, 1, 38, 0
3, 77952, Note_on_c, 1, 38, 127
3, 78104, Note_off_c, 1, 38, 0
3, 78144, Note_on_c, 1, 38, 127
3, 78296, Note_off_c, 1, 38, 0
3, 78336, Note_on_c, 1, 34, 127
3, 78488, Note_off_c, 1, 34, 0
3, 78528, Note_on_c, 1, 34, 127
3, 78680, Note_off_c, 1, 34, 0
3, 78720, Note_on_c, 1, 34, 127
3, 78872, Note_off_c, 1, 34, 0
3, 78912, Note_on_c, 1, 34, 127
3, 79064, Note_off_c, 1, 34, 0
3, 79104, Note_on_c, 1, 34, 127
3, 79256, Note_off_c, 1, 34, 0
3, 79296, Note_on_c, 1, 34, 127
3, 79448, Note_off_c, 1, 34, 0
3, 79488, Note_on_c, 1, 34, 127
3, 79640, Note_off_c, 1, 34, 0
3, 79680, Note_on_c, 1, 34, 127
3, 79832, Note_off_c, 1, 34, 0
3, 79872, Note_on_c, 1, 34, 127
3, 80024, Note_off_c, 1, 34, 0
3, 80064, Note_on_c, 1, 34, 127
3, 80216, Note_off_c, 1, 34, 0
3, 80256, Note_on_c, 1, 34, 127
3, 80408, Note_off_c, 1, 34, 0
3, 80448, Note_on_c, 1, 34, 127
3, 80600, Note_off_c, 1, 34, 0
3, 80640, Note_on_c, 1, 34, 127
3, 80792, Note_off_c, 1, 34, 0
3, 80832, Note_on_c, 1, 34, 127
3, 80984, Note_off_c, 1, 34, 0
3, 81024, Note_on_c, 1, 34, 127
3, 81176, Note_off_c, 1, 34, 0
3, 81216, Note_on_c, 1, 34, 127
3, 81368, Note_off_c, 1, 34, 0
3, 81408, Note_on_c, 1, 41, 127
3, 81560, Note_off_c, 1, 41, 0
3, 81600, Note_on_c, 1, 41, 127
3, 81752, Note_off_c, 1, 41, 0
3, 81792, Note_on_c, 1, 41, 127
3, 81944, Note_off_c, 1, 41, 0
3, 81984, Note_on_c, 1, 41, 127
3, 82136, Note_off_c, 1, 41, 0
3, 82176, Note_on_c, 1, 41, 127
3, 82328, Note_off_c, 1, 41, 0
3, 82368, Note_on_c, 1, 41, 127
3, 82520, Note_off_c, 1, 41, 0
3, 82560, Note_on_c, 1, 41, 127
3, 82712, Note_off_c, 1, 41, 0
3, 82752, Note_on_c, 1, 41, 127
3, 82904, Note_off_c, 1, 41, 0
3, 82944, Note_on_c, 1, 41, 127
3, 83096, Note_off_c, 1, 41, 0
3, 83136, Note_on_c, 1, 41, 127
3, 83288, Note_off_c, 1, 41, 0
3, 83328, Note_on_c, 1, 41, 127
3, 83480, Note_off_c, 1, 41, 0
3, 83520, Note_on_c, 1, 41, 127
3, 83672, Note_off_c, 1, 41, 0
3, 83712, Note_on_c, 1, 41, 127
3, 83864, Note_off_c, 1, 41, 0
3, 83904, Note_on_c, 1, 41, 127
3, 84056, Note_off_c, 1, 41, 0
3, 84096, Note_on_c, 1, 41, 127
3, 84248, Note_off_c, 1, 41, 0
3, 84288, Note_on_c, 1, 41, 127
3, 84440, Note_off_c, 1, 41, 0
3, 84480, Note_on_c, 1, 36, 127
3, 84632, Note_off_c, 1, 36, 0
3, 84672, Note_on_c, 1, 36, 127
3, 84824, Note_off_c, 1, 36, 0
3, 84864, Note_on_c, 1, 36, 127
3, 85016, Note_off_c, 1, 36, 0
3, 85056, Note_on_c, 1, 36, 127
3, 85208, Note_off_c, 1, 36, 0
3, 85248, Note_on_c, 1, 36, 127
3, 85400, Note_off_c, 1, 36, 0
3, 85440, Note_on_c, 1, 36, 127
3, 85592, Note_off_c, 1, 36, 0
3, 85632, Note_on_c, 1, 36, 127
3, 85784, Note_off_c, 1, 36, 0
3, 85824, Note_on_c, 1, 36, 127
3, 85976, Note_off_c, 1, 36, 0
3, 86016, Note_on_c, 1, 36, 127
3, 86168, Note_off_c, 1, 36, 0
3, 86208, Note_on_c, 1, 36, 127
3, 86360, Note_off_c, 1, 36, 0
3, 86400, Note_on_c, 1, 36, 127
3, 86552, Note_off_c, 1, 36, 0
3, 86592, Note_on_c, 1, 36, 127
3, 86744, Note_off_c, 1, 36, 0
3, 86784, Note_on_c, 1, 36, 127
3, 86936, Note_off_c, 1, 36, 0
3, 86976, Note_on_c, 1, 36, 127
3, 87128, Note_off_c, 1, 36, 0
3, 87168, Note_on_c, 1, 36, 127
3, 87320, Note_off_c, 1, 36, 0
3, 87360, Note_on_c, 1, 36, 127
3, 87512, Note_off_c, 1, 36, 0
3, 87552, Note_on_c, 1, 38, 127
3, 87704, Note_off_c, 1, 38, 0
3, 87744, Note_on_c, 1, 38, 127
3, 87896, Note_off_c, 1, 38, 0
3, 87936, Note_on_c, 1, 38, 127
3, 88088, Note_off_c, 1, 38, 0
3, 88128, Note_on_c, 1, 38, 127
3, 88280, Note_off_c, 1, 38, 0
3, 88320, Note_on_c, 1, 38, 127
3, 88472, Note_off_c, 1, 38, 0
3, 88512, Note_on_c, 1, 38, 127
3, 88664, Note_off_c, 1, 38, 0
3, 88704, Note_on_c, 1, 38, 127
3, 88856, Note_off_c, 1, 38, 0
3, 88896, Note_on_c, 1, 38, 127
3, 89048, Note_off_c, 1, 38, 0
3, 89088, Note_on_c, 1, 34, 127
3, 89240, Note_off_c, 1, 34, 0
3, 89280, Note_on_c, 1, 34, 127
3, 89432, Note_off_c, 1, 34, 0
3, 89472, Note_on_c, 1, 34, 127
3, 89624, Note_off_c, 1, 34, 0
3, 89664, Note_on_c, 1, 34, 127
3, 89816, Note_off_c, 1, 34, 0
3, 89856, Note_on_c, 1, 34, 127
3, 90008, Note_off_c, 1, 34, 0
3, 90048, Note_on_c, 1, 34, 127
3, 90200, Note_off_c, 1, 34, 0
3, 90240, Note_on_c, 1, 34, 127
3, 90392, Note_off_c, 1, 34, 0
3, 90432, Note_on_c, 1, 34, 127
3, 90584, Note_off_c, 1, 34, 0
3, 90624, Note_on_c, 1, 36, 127
3, 90776, Note_off_c, 1, 36, 0
3, 90816, Note_on_c, 1, 36, 127
3, 90968, Note_off_c, 1, 36, 0
3, 91008, Note_on_c, 1, 36, 127
3, 91160, Note_off_c, 1, 36, 0
3, 91200, Note_on_c, 1, 36, 127
3, 91352, Note_off_c, 1, 36, 0
3, 91392, Note_on_c, 1, 36, 127
3, 91544, Note_off_c, 1, 36, 0
3, 91584, Note_on_c, 1, 36, 127
3, 91736, Note_off_c, 1, 36, 0
3, 91776, Note_on_c, 1, 36, 127
3, 91928, Note_off_c, 1, 36, 0
3, 91968, Note_on_c, 1, 36, 127
3, 92120, Note_off_c, 1, 36, 0
3, 92160, Note_on_c, 1, 36, 127
3, 92312, Note_off_c, 1, 36, 0
3, 92352, Note_on_c, 1, 36, 127
3, 92504, Note_off_c, 1, 36, 0
3, 92544, Note_on_c, 1, 36, 127
3, 92696, Note_off_c, 1, 36, 0
3, 92736, Note_on_c, 1, 36, 127
3, 92888, Note_off_c, 1, 36, 0
3, 92928, Note_on_c, 1, 36, 127
3, 93080, Note_off_c, 1, 36, 0
3, 93120, Note_on_c, 1, 36, 127
3, 93272, Note_off_c, 1, 36, 0
3, 93312, Note_on_c, 1, 36, 127
3, 93464, Note_off_c, 1, 36, 0
3, 93504, Note_on_c, 1, 36, 127
3, 93656, Note_off_c, 1, 36, 0
3, 93696, Note_on_c, 1, 34, 127
3, 93848, Note_off_c, 1, 34, 0
3, 93888, Note_on_c, 1, 34, 127
3, 94040, Note_off_c, 1, 34, 0
3, 94080, Note_on_c, 1, 34, 127
3, 94232, Note_off_c, 1, 34, 0
3, 94272, Note_on_c, 1, 34, 127
3, 94424, Note_off_c, 1, 34, 0
3, 94464, Note_on_c, 1, 34, 127
3, 94616, Note_off_c, 1, 34, 0
3, 94656, Note_on_c, 1, 34, 127
3, 94808, Note_off_c, 1, 34, 0
3, 94848, Note_on_c, 1, 34, 127
3, 95000, Note_off_c, 1, 34, 0
3, 95040, Note_on_c, 1, 34, 127
3, 95192, Note_off_c, 1, 34, 0
3, 95232, Note_on_c, 1, 33, 127
3, 95384, Note_off_c, 1, 33, 0
3, 95424, Note_on_c, 1, 33, 127
3, 95576, Note_off_c, 1, 33, 0
3, 95616, Note_on_c, 1, 33, 127
3, 95768, Note_off_c, 1, 33, 0
3, 95808, Note_on_c, 1, 33, 127
3, 95960, Note_off_c, 1, 33, 0
3, 96000, Note_on_c, 1, 33, 127
3, 96152, Note_off_c, 1, 33, 0
3, 96192, Note_on_c, 1, 33, 127
3, 96344, Note_off_c, 1, 33, 0
3, 96384, Note_on_c, 1, 33, 127
3, 96536, Note_off_c, 1, 33, 0
3, 96576, Note_on_c, 1, 33, 127
3, 96728, Note_off_c, 1, 33, 0
3, 96768, Note_on_c, 1, 43, 127
3, 96920, Note_off_c, 1, 43, 0
3, 96960, Note_on_c, 1, 43, 127
3, 97112, Note_off_c, 1, 43, 0
3, 97152, Note_on_c, 1, 43, 127
3, 97304, Note_off_c, 1, 43, 0
3, 97344, Note_on_c, 1, 43, 127
3, 97496, Note_off_c, 1, 43, 0
3, 97536, Note_on_c, 1, 43, 127
3, 97688, Note_off_c, 1, 43, 0
3, 97728, Note_on_c, 1, 43, 127
3, 97880, Note_off_c, 1, 43, 0
3, 97920, Note_on_c, 1, 43, 127
3, 98072, Note_off_c, 1, 43, 0
3, 98112, Note_on_c, 1, 43, 127
3, 98264, Note_off_c, 1, 43, 0
3, 98304, Note_on_c, 1, 43, 127
3, 98456, Note_off_c, 1, 43, 0
3, 98496, Note_on_c, 1, 43, 127
3, 98648, Note_off_c, 1, 43, 0
3, 98688, Note_on_c, 1, 43, 127
3, 98840, Note_off_c, 1, 43, 0
3, 98880, Note_on_c, 1, 43, 127
3, 99032, Note_off_c, 1, 43, 0
3, 99072, Note_on_c, 1, 43, 127
3, 99224, Note_off_c, 1, 43, 0
3, 99264, Note_on_c, 1, 43, 127
3, 99416, Note_off_c, 1, 43, 0
3, 99456, Note_on_c, 1, 43, 127
3, 99608, Note_off_c, 1, 43, 0
3, 99648, Note_on_c, 1, 43, 127
3, 99800, Note_off_c, 1, 43, 0
3, 99840, Note_on_c, 1, 34, 127
3, 99992, Note_off_c, 1, 34, 0
3, 100032, Note_on_c, 1, 34, 127
3, 100184, Note_off_c, 1, 34, 0
3, 100224, Note_on_c, 1, 34, 127
3, 100376, Note_off_c, 1, 34, 0
3, 100416, Note_on_c, 1, 34, 127
3, 100568, Note_off_c, 1, 34, 0
3, 100608, Note_on_c, 1, 34, 127
3, 100760, Note_off_c, 1, 34, 0
3, 100800, Note_on_c, 1, 34, 127
3, 100952, Note_off_c, 1, 34, 0
3, 100992, Note_on_c, 1, 34, 127
3, 101144, Note_off_c, 1, 34, 0
3, 101184, Note_on_c, 1, 34, 127
3, 101336, Note_off_c, 1, 34, 0
3, 101376, Note_on_c, 1, 33, 127
3, 101528, Note_off_c, 1, 33, 0
3, 101568, Note_on_c, 1, 33, 127
3, 101720, Note_off_c, 1, 33, 0
3, 101760, Note_on_c, 1, 33, 127
3, 101912, Note_off_c, 1, 33, 0
3, 101952, Note_on_c, 1, 33, 127
3, 102104, Note_off_c, 1, 33, 0
3, 102144, Note_on_c, 1, 33, 127
3, 102296, Note_off_c, 1, 33, 0
3, 102336, Note_on_c, 1, 33, 127
3, 102488, Note_off_c, 1, 33, 0
3, 102528, Note_on_c, 1, 33, 127
3, 102680, Note_off_c, 1, 33, 0
3, 102720, Note_on_c, 1, 33, 127
3, 102872, Note_off_c, 1, 33, 0
3, 102912, Note_on_c, 1, 36, 127
3, 103064, Note_off_c, 1, 36, 0
3, 103104, Note_on_c, 1, 36, 127
3, 103256, Note_off_c, 1, 36, 0
3, 103296, Note_on_c, 1, 36, 127
3, 103448, Note_off_c, 1, 36, 0
3, 103488, Note_on_c, 1, 36, 127
3, 103640, Note_off_c, 1, 36, 0
3, 103680, Note_on_c, 1, 36, 127
3, 103832, Note_off_c, 1, 36, 0
3, 103872, Note_on_c, 1, 36, 127
3, 104024, Note_off_c, 1, 36, 0
3, 104064, Note_on_c, 1, 36, 127
3, 104216, Note_off_c, 1, 36, 0
3, 104256, Note_on_c, 1, 36, 127
3, 104408, Note_off_c, 1, 36, 0
3, 104448, Note_on_c, 1, 36, 127
3, 104600, Note_off_c, 1, 36, 0
3, 104640, Note_on_c, 1, 36, 127
3, 104792, Note_off_c, 1, 36, 0
3, 104832, Note_on_c, 1, 36, 127
3, 104984, Note_off_c, 1, 36, 0
3, 105024, Note_on_c, 1, 36, 127
3, 105176, Note_off_c, 1, 36, 0
3, 105216, Note_on_c, 1, 36, 127
3, 105368, Note_off_c, 1, 36, 0
3, 105408, Note_on_c, 1, 36, 127
3, 105560, Note_off_c, 1, 36, 0
3, 105600, Note_on_c, 1, 36, 127
3, 105752, Note_off_c, 1, 36, 0
3, 105792, Note_on_c, 1, 36, 127
3, 105944, Note_off_c, 1, 36, 0
3, 105984, Note_on_c, 1, 38, 127
3, 106136, Note_off_c, 1, 38, 0
3, 106176, Note_on_c, 1, 38, 127
3, 106328, Note_off_c, 1, 38, 0
3, 106368, Note_on_c, 1, 38, 127
3, 106520, Note_off_c, 1, 38, 0
3, 106560, Note_on_c, 1, 38, 127
3, 106712, Note_off_c, 1, 38, 0
3, 106752, Note_on_c, 1, 38, 127
3, 106904, Note_off_c, 1, 38, 0
3, 106944, Note_on_c, 1, 38, 127
3, 107096, Note_off_c, 1, 38, 0
3, 107136, Note_on_c, 1, 38, 127
3, 107288, Note_off_c, 1, 38, 0
3, 107328, Note_on_c, 1, 38, 127
3, 107480, Note_off_c, 1, 38, 0
3, 107520, Note_on_c, 1, 45, 127
3, 107672, Note_off_c, 1, 45, 0
3, 107712, Note_on_c, 1, 45, 127
3, 107864, Note_off_c, 1, 45, 0
3, 107904, Note_on_c, 1, 45, 127
3, 108056, Note_off_c, 1, 45, 0
3, 108096, Note_on_c, 1, 45, 127
3, 108248, Note_off_c, 1, 45, 0
3, 108288, Note_on_c, 1, 45, 127
3, 108440, Note_off_c, 1, 45, 0
3, 108480, Note_on_c, 1, 45, 127
3, 108632, Note_off_c, 1, 45, 0
3, 108672, Note_on_c, 1, 45, 127
3, 108824, Note_off_c, 1, 45, 0
3, 108864, Note_on_c, 1, 45, 127
3, 109016, Note_off_c, 1, 45, 0
3, 109056, Note_on_c, 1, 43, 127
3, 109208, Note_off_c, 1, 43, 0
3, 109248, Note_on_c, 1, 43, 127
3, 109400, Note_off_c, 1, 43, 0
3, 109440, Note_on_c, 1, 43, 127
3, 109592, Note_off_c, 1, 43, 0
3, 109632, Note_on_c, 1, 43, 127
3, 109784, Note_off_c, 1, 43, 0
3, 109824, Note_on_c, 1, 43, 127
3, 109976, Note_off_c, 1, 43, 0
3, 110016, Note_on_c, 1, 43, 127
3, 110168, Note_off_c, 1, 43, 0
3, 110208, Note_on_c, 1, 43, 127
3, 110360, Note_off_c, 1, 43, 0
3, 110400, Note_on_c, 1, 43, 127
3, 110552, Note_off_c, 1, 43, 0
3, 110592, Note_on_c, 1, 43, 127
3, 110744, Note_off_c, 1, 43, 0
3, 110784, Note_on_c, 1, 43, 127
3, 110936, Note_off_c, 1, 43, 0
3, 110976, Note_on_c, 1, 43, 127
3, 111128, Note_off_c, 1, 43, 0
3, 111168, Note_on_c, 1, 43, 127
3, 111320, Note_off_c, 1, 43, 0
3, 111360, Note_on_c, 1, 33, 127
3, 111664, Note_off_c, 1, 33, 0
3, 111744, Note_on_c, 1, 36, 127
3, 112048, Note_off_c, 1, 36, 0
3, 112128, Note_on_c, 1, 38, 127
3, 112280, Note_off_c, 1, 38, 0
3, 112320, Note_on_c, 1, 38, 127
3, 112472, Note_off_c, 1, 38, 0
3, 112512, Note_on_c, 1, 38, 127
3, 112664, Note_off_c, 1, 38, 0
3, 112704, Note_on_c, 1, 38, 127
3, 112856, Note_off_c, 1, 38, 0
3, 112896, Note_on_c, 1, 38, 127
3, 113048, Note_off_c, 1, 38, 0
3, 113088, Note_on_c, 1, 38, 127
3, 113240, Note_off_c, 1, 38, 0
3, 113280, Note_on_c, 1, 38, 127
3, 113432, Note_off_c, 1, 38, 0
3, 113472, Note_on_c, 1, 38, 127
3, 113624, Note_off_c, 1, 38, 0
3, 113664, Note_on_c, 1, 45, 127
3, 113816, Note_off_c, 1, 45, 0
3, 113856, Note_on_c, 1, 45, 127
3, 114008, Note_off_c, 1, 45, 0
3, 114048, Note_on_c, 1, 45, 127
3, 114200, Note_off_c, 1, 45, 0
3, 114240, Note_on_c, 1, 45, 127
3, 114392, Note_off_c, 1, 45, 0
3, 114432, Note_on_c, 1, 45, 127
3, 114584, Note_off_c, 1, 45, 0
3, 114624, Note_on_c, 1, 45, 127
3, 114776, Note_off_c, 1, 45, 0
3, 114816, Note_on_c, 1, 45, 127
3, 114968, Note_off_c, 1, 45, 0
3, 115008, Note_on_c, 1, 45, 127
3, 115160, Note_off_c, 1, 45, 0
3, 115200, Note_on_c, 1, 43, 127
3, 115352, Note_off_c, 1, 43, 0
3, 115392, Note_on_c, 1, 43, 127
3, 115544, Note_off_c, 1, 43, 0
3, 115584, Note_on_c, 1, 43, 127
3, 115736, Note_off_c, 1, 43, 0
3, 115776, Note_on_c, 1, 43, 127
3, 115928, Note_off_c, 1, 43, 0
3, 115968, Note_on_c, 1, 43, 127
3, 116120, Note_off_c, 1, 43, 0
3, 116160, Note_on_c, 1, 43, 127
3, 116312, Note_off_c, 1, 43, 0
3, 116352, Note_on_c, 1, 43, 127
3, 116504, Note_off_c, 1, 43, 0
3, 116544, Note_on_c, 1, 43, 127
3, 116696, Note_off_c, 1, 43, 0
3, 116736, Note_on_c, 1, 43, 127
3, 116888, Note_off_c, 1, 43, 0
3, 116928, Note_on_c, 1, 43, 127
3, 117080, Note_off_c, 1, 43, 0
3, 117120, Note_on_c, 1, 43, 127
3, 117272, Note_off_c, 1, 43, 0
3, 117312, Note_on_c, 1, 43, 127
3, 117464, Note_off_c, 1, 43, 0
3, 117504, Note_on_c, 1, 33, 127
3, 117808, Note_off_c, 1, 33, 0
3, 117888, Note_on_c, 1, 36, 127
3, 118192, Note_off_c, 1, 36, 0
3, 118272, Note_on_c, 1, 38, 127
3, 118424, Note_off_c, 1, 38, 0
3, 118464, Note_on_c, 1, 38, 127
3, 118616, Note_off_c, 1, 38, 0
3, 118656, Note_on_c, 1, 38, 127
3, 118808, Note_off_c, 1, 38, 0
3, 118848, Note_on_c, 1, 38, 127
3, 119000, Note_off_c, 1, 38, 0
3, 119040, Note_on_c, 1, 38, 127
3, 119192, Note_off_c, 1, 38, 0
3, 119232, Note_on_c, 1, 38, 127
3, 119384, Note_off_c, 1, 38, 0
3, 119424, Note_on_c, 1, 38, 127
3, 119576, Note_off_c, 1, 38, 0
3, 119616, Note_on_c, 1, 38, 127
3, 119768, Note_off_c, 1, 38, 0
3, 119808, Note_on_c, 1, 45, 127
3, 119960, Note_off_c, 1, 45, 0
3, 120000, Note_on_c, 1, 45, 127
3, 120152, Note_off_c, 1, 45, 0
3, 120192, Note_on_c, 1, 45, 127
3, 120344, Note_off_c, 1, 45, 0
3, 120384, Note_on_c, 1, 45, 127
3, 120536, Note_off_c, 1, 45, 0
3, 120576, Note_on_c, 1, 45, 127
3, 120728, Note_off_c, 1, 45, 0
3, 120768, Note_on_c, 1, 45, 127
3, 120920, Note_off_c, 1, 45, 0
3, 120960, Note_on_c, 1, 45, 127
3, 121112, Note_off_c, 1, 45, 0
3, 121152, Note_on_c, 1, 45, 127
3, 121304, Note_off_c, 1, 45, 0
3, 121344, Note_on_c, 1, 43, 127
3, 121496, Note_off_c, 1, 43, 0
3, 121536, Note_on_c, 1, 43, 127
3, 121688, Note_off_c, 1, 43, 0
3, 121728, Note_on_c, 1, 43, 127
3, 121880, Note_off_c, 1, 43, 0
3, 121920, Note_on_c, 1, 43, 127
3, 122072, Note_off_c, 1, 43, 0
3, 122112, Note_on_c, 1, 43, 127
3, 122264, Note_off_c, 1, 43, 0
3, 122304, Note_on_c, 1, 43, 127
3, 122456, Note_off_c, 1, 43, 0
3, 122496, Note_on_c, 1, 43, 127
3, 122648, Note_off_c, 1, 43, 0
3, 122688, Note_on_c, 1, 43, 127
3, 122840, Note_off_c, 1, 43, 0
3, 122880, Note_on_c, 1, 43, 127
3, 123032, Note_off_c, 1, 43, 0
3, 123072, Note_on_c, 1, 43, 127
3, 123224, Note_off_c, 1, 43, 0
3, 123264, Note_on_c, 1, 43, 127
3, 123416, Note_off_c, 1, 43, 0
3, 123456, Note_on_c, 1, 43, 127
3, 123608, Note_off_c, 1, 43, 0
3, 123648, Note_on_c, 1, 33, 127
3, 123952, Note_off_c, 1, 33, 0
3, 124032, Note_on_c, 1, 36, 127
3, 124336, Note_off_c, 1, 36, 0
3, 124416, Note_on_c, 1, 38, 127
3, 124568, Note_off_c, 1, 38, 0
3, 124608, Note_on_c, 1, 38, 127
3, 124760, Note_off_c, 1, 38, 0
3, 124800, Note_on_c, 1, 38, 127
3, 124952, Note_off_c, 1, 38, 0
3, 124992, Note_on_c, 1, 38, 127
3, 125144, Note_off_c, 1, 38, 0
3, 125184, Note_on_c, 1, 38, 127
3, 125336, Note_off_c, 1, 38, 0
3, 125376, Note_on_c, 1, 38, 127
3, 125528, Note_off_c, 1, 38, 0
3, 125568, Note_on_c, 1, 38, 127
3, 125720, Note_off_c, 1, 38, 0
3, 125760, Note_on_c, 1, 38, 127
3, 125912, Note_off_c, 1, 38, 0
3, 125952, Note_on_c, 1, 45, 127
3, 126104, Note_off_c, 1, 45, 0
3, 126144, Note_on_c, 1, 45, 127
3, 126296, Note_off_c, 1, 45, 0
3, 126336, Note_on_c, 1, 45, 127
3, 126488, Note_off_c, 1, 45, 0
3, 126528, Note_on_c, 1, 45, 127
3, 126680, Note_off_c, 1, 45, 0
3, 126720, Note_on_c, 1, 45, 127
3, 126872, Note_off_c, 1, 45, 0
3, 126912, Note_on_c, 1, 45, 127
3, 127064, Note_off_c, 1, 45, 0
3, 127104, Note_on_c, 1, 45, 127
3, 127256, Note_off_c, 1, 45, 0
3, 127296, Note_on_c, 1, 45, 127
3, 127448, Note_off_c, 1, 45, 0
3, 127488, Note_on_c, 1, 43, 127
3, 127640, Note_off_c, 1, 43, 0
3, 127680, Note_on_c, 1, 43, 127
3, 127832, Note_off_c, 1, 43, 0
3, 127872, Note_on_c, 1, 43, 127
3, 128024, Note_off_c, 1, 43, 0
3, 128064, Note_on_c, 1, 43, 127
3, 128216, Note_off_c, 1, 43, 0
3, 128256, Note_on_c, 1, 43, 127
3, 128408, Note_off_c, 1, 43, 0
3, 128448, Note_on_c, 1, 43, 127
3, 128600, Note_off_c, 1, 43, 0
3, 128640, Note_on_c, 1, 43, 127
3, 128792, Note_off_c, 1, 43, 0
3, 128832, Note_on_c, 1, 43, 127
3, 128984, Note_off_c, 1, 43, 0
3, 129024, Note_on_c, 1, 43, 127
3, 129176, Note_off_c, 1, 43, 0
3, 129216, Note_on_c, 1, 43, 127
3, 129368, Note_off_c, 1, 43, 0
3, 129408, Note_on_c, 1, 43, 127
3, 129560, Note_off_c, 1, 43, 0
3, 129600, Note_on_c, 1, 43, 127
3, 129752, Note_off_c, 1, 43, 0
3, 129792, Note_on_c, 1, 33, 127
3, 130096, Note_off_c, 1, 33, 0
3, 130176, Note_on_c, 1, 36, 127
3, 130480, Note_off_c, 1, 36, 0
3, 130560, Note_on_c, 1, 38, 127
3, 130712, Note_off_c, 1, 38, 0
3, 130752, Note_on_c, 1, 38, 127
3, 130904, Note_off_c, 1, 38, 0
3, 130944, Note_on_c, 1, 38, 127
3, 131096, Note_off_c, 1, 38, 0
3, 131136, Note_on_c, 1, 38, 127
3, 131288, Note_off_c, 1, 38, 0
3, 131328, Note_on_c, 1, 38, 127
3, 131480, Note_off_c, 1, 38, 0
3, 131520, Note_on_c, 1, 38, 127
3, 131672, Note_off_c, 1, 38, 0
3, 131712, Note_on_c, 1, 38, 127
3, 131864, Note_off_c, 1, 38, 0
3, 131904, Note_on_c, 1, 38, 127
3, 132056, Note_off_c, 1, 38, 0
3, 132096, Note_on_c, 1, 45, 127
3, 132248, Note_off_c, 1, 45, 0
3, 132288, Note_on_c, 1, 45, 127
3, 132440, Note_off_c, 1, 45, 0
3, 132480, Note_on_c, 1, 45, 127
3, 132632, Note_off_c, 1, 45, 0
3, 132672, Note_on_c, 1, 45, 127
3, 132824, Note_off_c, 1, 45, 0
3, 132864, Note_on_c, 1, 45, 127
3, 133016, Note_off_c, 1, 45, 0
3, 133056, Note_on_c, 1, 45, 127
3, 133208, Note_off_c, 1, 45, 0
3, 133248, Note_on_c, 1, 45, 127
3, 133400, Note_off_c, 1, 45, 0
3, 133440, Note_on_c, 1, 45, 127
3, 133592, Note_off_c, 1, 45, 0
3, 133632, Note_on_c, 1, 46, 127
3, 133784, Note_off_c, 1, 46, 0
3, 133824, Note_on_c, 1, 46, 127
3, 133976, Note_off_c, 1, 46, 0
3, 134016, Note_on_c, 1, 46, 127
3, 134168, Note_off_c, 1, 46, 0
3, 134208, Note_on_c, 1, 46, 127
3, 134360, Note_off_c, 1, 46, 0
3, 134400, Note_on_c, 1, 46, 127
3, 134552, Note_off_c, 1, 46, 0
3, 134592, Note_on_c, 1, 46, 127
3, 134744, Note_off_c, 1, 46, 0
3, 134784, Note_on_c, 1, 46, 127
3, 134936, Note_off_c, 1, 46, 0
3, 134976, Note_on_c, 1, 46, 127
3, 135128, Note_off_c, 1, 46, 0
3, 135168, Note_on_c, 1, 46, 127
3, 135320, Note_off_c, 1, 46, 0
3, 135360, Note_on_c, 1, 46, 127
3, 135512, Note_off_c, 1, 46, 0
3, 135552, Note_on_c, 1, 46, 127
3, 135704, Note_off_c, 1, 46, 0
3, 135744, Note_on_c, 1, 46, 127
3, 135896, Note_off_c, 1, 46, 0
3, 135936, Note_on_c, 1, 46, 127
3, 136032, Note_on_c, 1, 58, 127
3, 136088, Note_off_c, 1, 46, 0
3, 136128, Note_on_c, 1, 46, 127
3, 136184, Note_off_c, 1, 58, 0
3, 136280, Note_off_c, 1, 46, 0
3, 136320, Note_on_c, 1, 58, 127
3, 136416, Note_on_c, 1, 46, 127
3, 136472, Note_off_c, 1, 58, 0
3, 136512, Note_on_c, 1, 58, 127
3, 136568, Note_off_c, 1, 46, 0
3, 136664, Note_off_c, 1, 58, 0
3, 136704, Note_on_c, 1, 41, 127
3, 136856, Note_off_c, 1, 41, 0
3, 136896, Note_on_c, 1, 41, 127
3, 137048, Note_off_c, 1, 41, 0
3, 137088, Note_on_c, 1, 41, 127
3, 137240, Note_off_c, 1, 41, 0
3, 137280, Note_on_c, 1, 41, 127
3, 137432, Note_off_c, 1, 41, 0
3, 137472, Note_on_c, 1, 41, 127
3, 137624, Note_off_c, 1, 41, 0
3, 137664, Note_on_c, 1, 41, 127
3, 137816, Note_off_c, 1, 41, 0
3, 137856, Note_on_c, 1, 41, 127
3, 138008, Note_off_c, 1, 41, 0
3, 138048, Note_on_c, 1, 41, 127
3, 138200, Note_off_c, 1, 41, 0
3, 138240, Note_on_c, 1, 41, 127
3, 138392, Note_off_c, 1, 41, 0
3, 138432, Note_on_c, 1, 41, 127
3, 138584, Note_off_c, 1, 41, 0
3, 138624, Note_on_c, 1, 41, 127
3, 138776, Note_off_c, 1, 41, 0
3, 138816, Note_on_c, 1, 41, 127
3, 138968, Note_off_c, 1, 41, 0
3, 139008, Note_on_c, 1, 41, 127
3, 139160, Note_off_c, 1, 41, 0
3, 139200, Note_on_c, 1, 41, 127
3, 139352, Note_off_c, 1, 41, 0
3, 139392, Note_on_c, 1, 41, 127
3, 139544, Note_off_c, 1, 41, 0
3, 139584, Note_on_c, 1, 41, 127
3, 139736, Note_off_c, 1, 41, 0
3, 139776, Note_on_c, 1, 36, 127
3, 139928, Note_off_c, 1, 36, 0
3, 139968, Note_on_c, 1, 36, 127
3, 140120, Note_off_c, 1, 36, 0
3, 140160, Note_on_c, 1, 36, 127
3, 140312, Note_off_c, 1, 36, 0
3, 140352, Note_on_c, 1, 36, 127
3, 140504, Note_off_c, 1, 36, 0
3, 140544, Note_on_c, 1, 36, 127
3, 140696, Note_off_c, 1, 36, 0
3, 140736, Note_on_c, 1, 36, 127
3, 140888, Note_off_c, 1, 36, 0
3, 140928, Note_on_c, 1, 36, 127
3, 141080, Note_off_c, 1, 36, 0
3, 141120, Note_on_c, 1, 36, 127
3, 141272, Note_off_c, 1, 36, 0
3, 141312, Note_on_c, 1, 36, 127
3, 141464, Note_off_c, 1, 36, 0
3, 141504, Note_on_c, 1, 36, 127
3, 141656, Note_off_c, 1, 36, 0
3, 141696, Note_on_c, 1, 36, 127
3, 141848, Note_off_c, 1, 36, 0
3, 141888, Note_on_c, 1, 36, 127
3, 142040, Note_off_c, 1, 36, 0
3, 142080, Note_on_c, 1, 36, 127
3, 142232, Note_off_c, 1, 36, 0
3, 142272, Note_on_c, 1, 36, 127
3, 142424, Note_off_c, 1, 36, 0
3, 142464, Note_on_c, 1, 36, 127
3, 142616, Note_off_c, 1, 36, 0
3, 142656, Note_on_c, 1, 36, 127
3, 142808, Note_off_c, 1, 36, 0
3, 142848, Note_on_c, 1, 38, 127
3, 143000, Note_off_c, 1, 38, 0
3, 143040, Note_on_c, 1, 38, 127
3, 143192, Note_off_c, 1, 38, 0
3, 143232, Note_on_c, 1, 38, 127
3, 143384, Note_off_c, 1, 38, 0
3, 143424, Note_on_c, 1, 38, 127
3, 143576, Note_off_c, 1, 38, 0
3, 143616, Note_on_c, 1, 38, 127
3, 143768, Note_off_c, 1, 38, 0
3, 143808, Note_on_c, 1, 38, 127
3, 143960, Note_off_c, 1, 38, 0
3, 144000, Note_on_c, 1, 38, 127
3, 144152, Note_off_c, 1, 38, 0
3, 144192, Note_on_c, 1, 38, 127
3, 144344, Note_off_c, 1, 38, 0
3, 144384, Note_on_c, 1, 34, 127
3, 144536, Note_off_c, 1, 34, 0
3, 144576, Note_on_c, 1, 34, 127
3, 144728, Note_off_c, 1, 34, 0
3, 144768, Note_on_c, 1, 34, 127
3, 144920, Note_off_c, 1, 34, 0
3, 144960, Note_on_c, 1, 34, 127
3, 145112, Note_off_c, 1, 34, 0
3, 145152, Note_on_c, 1, 34, 127
3, 145304, Note_off_c, 1, 34, 0
3, 145344, Note_on_c, 1, 34, 127
3, 145496, Note_off_c, 1, 34, 0
3, 145536, Note_on_c, 1, 34, 127
3, 145688, Note_off_c, 1, 34, 0
3, 145728, Note_on_c, 1, 34, 127
3, 145880, Note_off_c, 1, 34, 0
3, 145920, Note_on_c, 1, 36, 127
3, 146072, Note_off_c, 1, 36, 0
3, 146112, Note_on_c, 1, 36, 127
3, 146264, Note_off_c, 1, 36, 0
3, 146304, Note_on_c, 1, 36, 127
3, 146456, Note_off_c, 1, 36, 0
3, 146496, Note_on_c, 1, 36, 127
3, 146648, Note_off_c, 1, 36, 0
3, 146688, Note_on_c, 1, 36, 127
3, 146840, Note_off_c, 1, 36, 0
3, 146880, Note_on_c, 1, 36, 127
3, 147032, Note_off_c, 1, 36, 0
3, 147072, Note_on_c, 1, 36, 127
3, 147224, Note_off_c, 1, 36, 0
3, 147264, Note_on_c, 1, 36, 127
3, 147416, Note_off_c, 1, 36, 0
3, 147456, Note_on_c, 1, 36, 127
3, 147608, Note_off_c, 1, 36, 0
3, 147648, Note_on_c, 1, 36, 127
3, 147800, Note_off_c, 1, 36, 0
3, 147840, Note_on_c, 1, 36, 127
3, 147992, Note_off_c, 1, 36, 0
3, 148032, Note_on_c, 1, 36, 127
3, 148184, Note_off_c, 1, 36, 0
3, 148224, Note_on_c, 1, 36, 127
3, 148376, Note_off_c, 1, 36, 0
3, 148416, Note_on_c, 1, 36, 127
3, 148568, Note_off_c, 1, 36, 0
3, 148608, Note_on_c, 1, 36, 127
3, 148760, Note_off_c, 1, 36, 0
3, 148800, Note_on_c, 1, 36, 127
3, 148952, Note_off_c, 1, 36, 0
3, 148992, Note_on_c, 1, 41, 127
3, 149144, Note_off_c, 1, 41, 0
3, 149184, Note_on_c, 1, 41, 127
3, 149336, Note_off_c, 1, 41, 0
3, 149376, Note_on_c, 1, 41, 127
3, 149528, Note_off_c, 1, 41, 0
3, 149568, Note_on_c, 1, 41, 127
3, 149720, Note_off_c, 1, 41, 0
3, 149760, Note_on_c, 1, 41, 127
3, 149912, Note_off_c, 1, 41, 0
3, 149952, Note_on_c, 1, 41, 127
3, 150104, Note_off_c, 1, 41, 0
3, 150144, Note_on_c, 1, 41, 127
3, 150296, Note_off_c, 1, 41, 0
3, 150336, Note_on_c, 1, 41, 127
3, 150488, Note_off_c, 1, 41, 0
3, 150528, Note_on_c, 1, 41, 127
3, 150680, Note_off_c, 1, 41, 0
3, 150720, Note_on_c, 1, 41, 127
3, 150872, Note_off_c, 1, 41, 0
3, 150912, Note_on_c, 1, 41, 127
3, 151064, Note_off_c, 1, 41, 0
3, 151104, Note_on_c, 1, 41, 127
3, 151256, Note_off_c, 1, 41, 0
3, 151296, Note_on_c, 1, 41, 127
3, 151448, Note_off_c, 1, 41, 0
3, 151488, Note_on_c, 1, 41, 127
3, 151640, Note_off_c, 1, 41, 0
3, 151680, Note_on_c, 1, 41, 127
3, 151832, Note_off_c, 1, 41, 0
3, 151872, Note_on_c, 1, 41, 127
3, 152024, Note_off_c, 1, 41, 0
3, 152064, Note_on_c, 1, 36, 127
3, 152216, Note_off_c, 1, 36, 0
3, 152256, Note_on_c, 1, 36, 127
3, 152408, Note_off_c, 1, 36, 0
3, 152448, Note_on_c, 1, 36, 127
3, 152600, Note_off_c, 1, 36, 0
3, 152640, Note_on_c, 1, 36, 127
3, 152792, Note_off_c, 1, 36, 0
3, 152832, Note_on_c, 1, 36, 127
3, 152984, Note_off_c, 1, 36, 0
3, 153024, Note_on_c, 1, 36, 127
3, 153176, Note_off_c, 1, 36, 0
3, 153216, Note_on_c, 1, 36, 127
3, 153368, Note_off_c, 1, 36, 0
3, 153408, Note_on_c, 1, 36, 127
3, 153560, Note_off_c, 1, 36, 0
3, 153600, Note_on_c, 1, 36, 127
3, 153752, Note_off_c, 1, 36, 0
3, 153792, Note_on_c, 1, 36, 127
3, 153944, Note_off_c, 1, 36, 0
3, 153984, Note_on_c, 1, 36, 127
3, 154136, Note_off_c, 1, 36, 0
3, 154176, Note_on_c, 1, 36, 127
3, 154328, Note_off_c, 1, 36, 0
3, 154368, Note_on_c, 1, 36, 127
3, 154520, Note_off_c, 1, 36, 0
3, 154560, Note_on_c, 1, 36, 127
3, 154712, Note_off_c, 1, 36, 0
3, 154752, Note_on_c, 1, 36, 127
3, 154904, Note_off_c, 1, 36, 0
3, 154944, Note_on_c, 1, 36, 127
3, 155096, Note_off_c, 1, 36, 0
3, 155136, Note_on_c, 1, 38, 127
3, 155288, Note_off_c, 1, 38, 0
3, 155328, Note_on_c, 1, 38, 127
3, 155480, Note_off_c, 1, 38, 0
3, 155520, Note_on_c, 1, 38, 127
3, 155672, Note_off_c, 1, 38, 0
3, 155712, Note_on_c, 1, 38, 127
3, 155864, Note_off_c, 1, 38, 0
3, 155904, Note_on_c, 1, 38, 127
3, 156056, Note_off_c, 1, 38, 0
3, 156096, Note_on_c, 1, 38, 127
3, 156248, Note_off_c, 1, 38, 0
3, 156288, Note_on_c, 1, 38, 127
3, 156440, Note_off_c, 1, 38, 0
3, 156480, Note_on_c, 1, 38, 127
3, 156632, Note_off_c, 1, 38, 0
3, 156672, Note_on_c, 1, 38, 127
3, 156824, Note_off_c, 1, 38, 0
3, 156864, Note_on_c, 1, 38, 127
3, 157016, Note_off_c, 1, 38, 0
3, 157056, Note_on_c, 1, 38, 127
3, 157208, Note_off_c, 1, 38, 0
3, 157248, Note_on_c, 1, 38, 127
3, 157400, Note_off_c, 1, 38, 0
3, 157440, Note_on_c, 1, 38, 127
3, 157592, Note_off_c, 1, 38, 0
3, 157632, Note_on_c, 1, 38, 127
3, 157784, Note_off_c, 1, 38, 0
3, 157824, Note_on_c, 1, 38, 127
3, 157976, Note_off_c, 1, 38, 0
3, 158016, Note_on_c, 1, 38, 127
3, 158168, Note_off_c, 1, 38, 0
3, 158208, Note_on_c, 1, 34, 127
3, 158360, Note_off_c, 1, 34, 0
3, 158400, Note_on_c, 1, 34, 127
3, 158552, Note_off_c, 1, 34, 0
3, 158592, Note_on_c, 1, 34, 127
3, 158744, Note_off_c, 1, 34, 0
3, 158784, Note_on_c, 1, 34, 127
3, 158936, Note_off_c, 1, 34, 0
3, 158976, Note_on_c, 1, 34, 127
3, 159128, Note_off_c, 1, 34, 0
3, 159168, Note_on_c, 1, 34, 127
3, 159320, Note_off_c, 1, 34, 0
3, 159360, Note_on_c, 1, 34, 127
3, 159512, Note_off_c, 1, 34, 0
3, 159552, Note_on_c, 1, 34, 127
3, 159704, Note_off_c, 1, 34, 0
3, 159744, Note_on_c, 1, 34, 127
3, 159896, Note_off_c, 1, 34, 0
3, 159936, Note_on_c, 1, 34, 127
3, 160088, Note_off_c, 1, 34, 0
3, 160128, Note_on_c, 1, 34, 127
3, 160280, Note_off_c, 1, 34, 0
3, 160320, Note_on_c, 1, 34, 127
3, 160472, Note_off_c, 1, 34, 0
3, 160512, Note_on_c, 1, 34, 127
3, 160664, Note_off_c, 1, 34, 0
3, 160704, Note_on_c, 1, 34, 127
3, 160856, Note_off_c, 1, 34, 0
3, 160896, Note_on_c, 1, 34, 127
3, 161048, Note_off_c, 1, 34, 0
3, 161088, Note_on_c, 1, 34, 127
3, 161240, Note_off_c, 1, 34, 0
3, 161280, Note_on_c, 1, 41, 127
3, 161432, Note_off_c, 1, 41, 0
3, 161472, Note_on_c, 1, 41, 127
3, 161624, Note_off_c, 1, 41, 0
3, 161664, Note_on_c, 1, 41, 127
3, 161816, Note_off_c, 1, 41, 0
3, 161856, Note_on_c, 1, 41, 127
3, 162008, Note_off_c, 1, 41, 0
3, 162048, Note_on_c, 1, 41, 127
3, 162200, Note_off_c, 1, 41, 0
3, 162240, Note_on_c, 1, 41, 127
3, 162392, Note_off_c, 1, 41, 0
3, 162432, Note_on_c, 1, 41, 127
3, 162584, Note_off_c, 1, 41, 0
3, 162624, Note_on_c, 1, 41, 127
3, 162776, Note_off_c, 1, 41, 0
3, 162816, Note_on_c, 1, 41, 127
3, 162968, Note_off_c, 1, 41, 0
3, 163008, Note_on_c, 1, 41, 127
3, 163160, Note_off_c, 1, 41, 0
3, 163200, Note_on_c, 1, 41, 127
3, 163352, Note_off_c, 1, 41, 0
3, 163392, Note_on_c, 1, 41, 127
3, 163544, Note_off_c, 1, 41, 0
3, 163584, Note_on_c, 1, 41, 127
3, 163736, Note_off_c, 1, 41, 0
3, 163776, Note_on_c, 1, 41, 127
3, 163928, Note_off_c, 1, 41, 0
3, 163968, Note_on_c, 1, 41, 127
3, 164120, Note_off_c, 1, 41, 0
3, 164160, Note_on_c, 1, 41, 127
3, 164312, Note_off_c, 1, 41, 0
3, 164352, Note_on_c, 1, 36, 127
3, 164504, Note_off_c, 1, 36, 0
3, 164544, Note_on_c, 1, 36, 127
3, 164696, Note_off_c, 1, 36, 0
3, 164736, Note_on_c, 1, 36, 127
3, 164888, Note_off_c, 1, 36, 0
3, 164928, Note_on_c, 1, 36, 127
3, 165080, Note_off_c, 1, 36, 0
3, 165120, Note_on_c, 1, 36, 127
3, 165272, Note_off_c, 1, 36, 0
3, 165312, Note_on_c, 1, 36, 127
3, 165464, Note_off_c, 1, 36, 0
3, 165504, Note_on_c, 1, 36, 127
3, 165656, Note_off_c, 1, 36, 0
3, 165696, Note_on_c, 1, 36, 127
3, 165848, Note_off_c, 1, 36, 0
3, 165888, Note_on_c, 1, 36, 127
3, 166040, Note_off_c, 1, 36, 0
3, 166080, Note_on_c, 1, 36, 127
3, 166232, Note_off_c, 1, 36, 0
3, 166272, Note_on_c, 1, 36, 127
3, 166424, Note_off_c, 1, 36, 0
3, 166464, Note_on_c, 1, 36, 127
3, 166616, Note_off_c, 1, 36, 0
3, 166656, Note_on_c, 1, 36, 127
3, 166808, Note_off_c, 1, 36, 0
3, 166848, Note_on_c, 1, 36, 127
3, 167000, Note_off_c, 1, 36, 0
3, 167040, Note_on_c, 1, 36, 127
3, 167192, Note_off_c, 1, 36, 0
3, 167232, Note_on_c, 1, 36, 127
3, 167384, Note_off_c, 1, 36, 0
3, 167424, Note_on_c, 1, 38, 127
3, 167576, Note_off_c, 1, 38, 0
3, 167616, Note_on_c, 1, 38, 127
3, 167768, Note_off_c, 1, 38, 0
3, 167808, Note_on_c, 1, 38, 127
3, 167960, Note_off_c, 1, 38, 0
3, 168000, Note_on_c, 1, 38, 127
3, 168152, Note_off_c, 1, 38, 0
3, 168192, Note_on_c, 1, 38, 127
3, 168344, Note_off_c, 1, 38, 0
3, 168384, Note_on_c, 1, 38, 127
3, 168536, Note_off_c, 1, 38, 0
3, 168576, Note_on_c, 1, 38, 127
3, 168728, Note_off_c, 1, 38, 0
3, 168768, Note_on_c, 1, 38, 127
3, 168920, Note_off_c, 1, 38, 0
3, 168960, Note_on_c, 1, 34, 127
3, 169112, Note_off_c, 1, 34, 0
3, 169152, Note_on_c, 1, 34, 127
3, 169304, Note_off_c, 1, 34, 0
3, 169344, Note_on_c, 1, 34, 127
3, 169496, Note_off_c, 1, 34, 0
3, 169536, Note_on_c, 1, 34, 127
3, 169688, Note_off_c, 1, 34, 0
3, 169728, Note_on_c, 1, 34, 127
3, 169880, Note_off_c, 1, 34, 0
3, 169920, Note_on_c, 1, 34, 127
3, 170072, Note_off_c, 1, 34, 0
3, 170112, Note_on_c, 1, 34, 127
3, 170264, Note_off_c, 1, 34, 0
3, 170304, Note_on_c, 1, 34, 127
3, 170456, Note_off_c, 1, 34, 0
3, 170496, Note_on_c, 1, 36, 127
3, 170648, Note_off_c, 1, 36, 0
3, 170688, Note_on_c, 1, 36, 127
3, 170840, Note_off_c, 1, 36, 0
3, 170880, Note_on_c, 1, 36, 127
3, 171032, Note_off_c, 1, 36, 0
3, 171072, Note_on_c, 1, 36, 127
3, 171224, Note_off_c, 1, 36, 0
3, 171264, Note_on_c, 1, 36, 127
3, 171416, Note_off_c, 1, 36, 0
3, 171456, Note_on_c, 1, 36, 127
3, 171608, Note_off_c, 1, 36, 0
3, 171648, Note_on_c, 1, 36, 127
3, 171800, Note_off_c, 1, 36, 0
3, 171840, Note_on_c, 1, 36, 127
3, 171992, Note_off_c, 1, 36, 0
3, 172032, Note_on_c, 1, 36, 127
3, 172184, Note_off_c, 1, 36, 0
3, 172224, Note_on_c, 1, 36, 127
3, 172376, Note_off_c, 1, 36, 0
3, 172416, Note_on_c, 1, 36, 127
3, 172568, Note_off_c, 1, 36, 0
3, 172608, Note_on_c, 1, 36, 127
3, 172760, Note_off_c, 1, 36, 0
3, 172800, Note_on_c, 1, 36, 127
3, 172952, Note_off_c, 1, 36, 0
3, 172992, Note_on_c, 1, 36, 127
3, 173144, Note_off_c, 1, 36, 0
3, 173184, Note_on_c, 1, 36, 127
3, 173336, Note_off_c, 1, 36, 0
3, 173376, Note_on_c, 1, 36, 127
3, 173528, Note_off_c, 1, 36, 0
3, 173568, Note_on_c, 1, 34, 127
3, 173720, Note_off_c, 1, 34, 0
3, 173760, Note_on_c, 1, 34, 127
3, 173912, Note_off_c, 1, 34, 0
3, 173952, Note_on_c, 1, 34, 127
3, 174104, Note_off_c, 1, 34, 0
3, 174144, Note_on_c, 1, 34, 127
3, 174296, Note_off_c, 1, 34, 0
3, 174336, Note_on_c, 1, 34, 127
3, 174488, Note_off_c, 1, 34, 0
3, 174528, Note_on_c, 1, 34, 127
3, 174680, Note_off_c, 1, 34, 0
3, 174720, Note_on_c, 1, 34, 127
3, 174872, Note_off_c, 1, 34, 0
3, 174912, Note_on_c, 1, 34, 127
3, 175064, Note_off_c, 1, 34, 0
3, 175104, Note_on_c, 1, 33, 127
3, 175256, Note_off_c, 1, 33, 0
3, 175296, Note_on_c, 1, 33, 127
3, 175448, Note_off_c, 1, 33, 0
3, 175488, Note_on_c, 1, 33, 127
3, 175640, Note_off_c, 1, 33, 0
3, 175680, Note_on_c, 1, 33, 127
3, 175832, Note_off_c, 1, 33, 0
3, 175872, Note_on_c, 1, 33, 127
3, 176024, Note_off_c, 1, 33, 0
3, 176064, Note_on_c, 1, 33, 127
3, 176216, Note_off_c, 1, 33, 0
3, 176256, Note_on_c, 1, 33, 127
3, 176408, Note_off_c, 1, 33, 0
3, 176448, Note_on_c, 1, 33, 127
3, 176600, Note_off_c, 1, 33, 0
3, 176640, Note_on_c, 1, 43, 127
3, 176792, Note_off_c, 1, 43, 0
3, 176832, Note_on_c, 1, 43, 127
3, 176984, Note_off_c, 1, 43, 0
3, 177024, Note_on_c, 1, 43, 127
3, 177176, Note_off_c, 1, 43, 0
3, 177216, Note_on_c, 1, 43, 127
3, 177368, Note_off_c, 1, 43, 0
3, 177408, Note_on_c, 1, 43, 127
3, 177560, Note_off_c, 1, 43, 0
3, 177600, Note_on_c, 1, 43, 127
3, 177752, Note_off_c, 1, 43, 0
3, 177792, Note_on_c, 1, 43, 127
3, 177944, Note_off_c, 1, 43, 0
3, 177984, Note_on_c, 1, 43, 127
3, 178136, Note_off_c, 1, 43, 0
3, 178176, Note_on_c, 1, 43, 127
3, 178328, Note_off_c, 1, 43, 0
3, 178368, Note_on_c, 1, 43, 127
3, 178520, Note_off_c, 1, 43, 0
3, 178560, Note_on_c, 1, 43, 127
3, 178712, Note_off_c, 1, 43, 0
3, 178752, Note_on_c, 1, 43, 127
3, 178904, Note_off_c, 1, 43, 0
3, 178944, Note_on_c, 1, 43, 127
3, 179096, Note_off_c, 1, 43, 0
3, 179136, Note_on_c, 1, 43, 127
3, 179288, Note_off_c, 1, 43, 0
3, 179328, Note_on_c, 1, 43, 127
3, 179480, Note_off_c, 1, 43, 0
3, 179520, Note_on_c, 1, 43, 127
3, 179672, Note_off_c, 1, 43, 0
3, 179712, Note_on_c, 1, 34, 127
3, 179864, Note_off_c, 1, 34, 0
3, 179904, Note_on_c, 1, 34, 127
3, 180056, Note_off_c, 1, 34, 0
3, 180096, Note_on_c, 1, 34, 127
3, 180248, Note_off_c, 1, 34, 0
3, 180288, Note_on_c, 1, 34, 127
3, 180440, Note_off_c, 1, 34, 0
3, 180480, Note_on_c, 1, 34, 127
3, 180632, Note_off_c, 1, 34, 0
3, 180672, Note_on_c, 1, 34, 127
3, 180824, Note_off_c, 1, 34, 0
3, 180864, Note_on_c, 1, 34, 127
3, 181016, Note_off_c, 1, 34, 0
3, 181056, Note_on_c, 1, 34, 127
3, 181208, Note_off_c, 1, 34, 0
3, 181248, Note_on_c, 1, 33, 127
3, 181400, Note_off_c, 1, 33, 0
3, 181440, Note_on_c, 1, 33, 127
3, 181592, Note_off_c, 1, 33, 0
3, 181632, Note_on_c, 1, 33, 127
3, 181784, Note_off_c, 1, 33, 0
3, 181824, Note_on_c, 1, 33, 127
3, 181976, Note_off_c, 1, 33, 0
3, 182016, Note_on_c, 1, 33, 127
3, 182168, Note_off_c, 1, 33, 0
3, 182208, Note_on_c, 1, 33, 127
3, 182360, Note_off_c, 1, 33, 0
3, 182400, Note_on_c, 1, 33, 127
3, 182552, Note_off_c, 1, 33, 0
3, 182592, Note_on_c, 1, 33, 127
3, 182744, Note_off_c, 1, 33, 0
3, 182784, Note_on_c, 1, 36, 127
3, 182936, Note_off_c, 1, 36, 0
3, 182976, Note_on_c, 1, 36, 127
3, 183128, Note_off_c, 1, 36, 0
3, 183168, Note_on_c, 1, 36, 127
3, 183320, Note_off_c, 1, 36, 0
3, 183360, Note_on_c, 1, 36, 127
3, 183512, Note_off_c, 1, 36, 0
3, 183552, Note_on_c, 1, 36, 127
3, 183704, Note_off_c, 1, 36, 0
3, 183744, Note_on_c, 1, 36, 127
3, 183896, Note_off_c, 1, 36, 0
3, 183936, Note_on_c, 1, 36, 127
3, 184088, Note_off_c, 1, 36, 0
3, 184128, Note_on_c, 1, 36, 127
3, 184280, Note_off_c, 1, 36, 0
3, 184320, Note_on_c, 1, 36, 127
3, 184472, Note_off_c, 1, 36, 0
3, 184512, Note_on_c, 1, 36, 127
3, 184664, Note_off_c, 1, 36, 0
3, 184704, Note_on_c, 1, 36, 127
3, 184856, Note_off_c, 1, 36, 0
3, 184896, Note_on_c, 1, 36, 127
3, 185048, Note_off_c, 1, 36, 0
3, 185088, Note_on_c, 1, 36, 127
3, 185240, Note_off_c, 1, 36, 0
3, 185280, Note_on_c, 1, 36, 127
3, 185432, Note_off_c, 1, 36, 0
3, 185472, Note_on_c, 1, 36, 127
3, 185624, Note_off_c, 1, 36, 0
3, 185664, Note_on_c, 1, 36, 127
3, 185816, Note_off_c, 1, 36, 0
3, 185856, Note_on_c, 1, 38, 127
3, 186008, Note_off_c, 1, 38, 0
3, 186048, Note_on_c, 1, 38, 127
3, 186200, Note_off_c, 1, 38, 0
3, 186240, Note_on_c, 1, 38, 127
3, 186392, Note_off_c, 1, 38, 0
3, 186432, Note_on_c, 1, 38, 127
3, 186584, Note_off_c, 1, 38, 0
3, 186624, Note_on_c, 1, 38, 127
3, 186776, Note_off_c, 1, 38, 0
3, 186816, Note_on_c, 1, 38, 127
3, 186968, Note_off_c, 1, 38, 0
3, 187008, Note_on_c, 1, 38, 127
3, 187160, Note_off_c, 1, 38, 0
3, 187200, Note_on_c, 1, 38, 127
3, 187352, Note_off_c, 1, 38, 0
3, 187392, Note_on_c, 1, 45, 127
3, 187544, Note_off_c, 1, 45, 0
3, 187584, Note_on_c, 1, 45, 127
3, 187736, Note_off_c, 1, 45, 0
3, 187776, Note_on_c, 1, 45, 127
3, 187928, Note_off_c, 1, 45, 0
3, 187968, Note_on_c, 1, 45, 127
3, 188120, Note_off_c, 1, 45, 0
3, 188160, Note_on_c, 1, 45, 127
3, 188312, Note_off_c, 1, 45, 0
3, 188352, Note_on_c, 1, 45, 127
3, 188504, Note_off_c, 1, 45, 0
3, 188544, Note_on_c, 1, 45, 127
3, 188696, Note_off_c, 1, 45, 0
3, 188736, Note_on_c, 1, 45, 127
3, 188888, Note_off_c, 1, 45, 0
3, 188928, Note_on_c, 1, 43, 127
3, 189080, Note_off_c, 1, 43, 0
3, 189120, Note_on_c, 1, 43, 127
3, 189272, Note_off_c, 1, 43, 0
3, 189312, Note_on_c, 1, 43, 127
3, 189464, Note_off_c, 1, 43, 0
3, 189504, Note_on_c, 1, 43, 127
3, 189656, Note_off_c, 1, 43, 0
3, 189696, Note_on_c, 1, 43, 127
3, 189848, Note_off_c, 1, 43, 0
3, 189888, Note_on_c, 1, 43, 127
3, 190040, Note_off_c, 1, 43, 0
3, 190080, Note_on_c, 1, 43, 127
3, 190232, Note_off_c, 1, 43, 0
3, 190272, Note_on_c, 1, 43, 127
3, 190424, Note_off_c, 1, 43, 0
3, 190464, Note_on_c, 1, 43, 127
3, 190616, Note_off_c, 1, 43, 0
3, 190656, Note_on_c, 1, 43, 127
3, 190808, Note_off_c, 1, 43, 0
3, 190848, Note_on_c, 1, 43, 127
3, 191000, Note_off_c, 1, 43, 0
3, 191040, Note_on_c, 1, 43, 127
3, 191192, Note_off_c, 1, 43, 0
3, 191232, Note_on_c, 1, 33, 127
3, 191536, Note_off_c, 1, 33, 0
3, 191616, Note_on_c, 1, 36, 127
3, 191920, Note_off_c, 1, 36, 0
3, 192000, Note_on_c, 1, 38, 127
3, 192152, Note_off_c, 1, 38, 0
3, 192192, Note_on_c, 1, 38, 127
3, 192344, Note_off_c, 1, 38, 0
3, 192384, Note_on_c, 1, 38, 127
3, 192536, Note_off_c, 1, 38, 0
3, 192576, Note_on_c, 1, 38, 127
3, 192728, Note_off_c, 1, 38, 0
3, 192768, Note_on_c, 1, 38, 127
3, 192920, Note_off_c, 1, 38, 0
3, 192960, Note_on_c, 1, 38, 127
3, 193112, Note_off_c, 1, 38, 0
3, 193152, Note_on_c, 1, 38, 127
3, 193304, Note_off_c, 1, 38, 0
3, 193344, Note_on_c, 1, 38, 127
3, 193496, Note_off_c, 1, 38, 0
3, 193536, Note_on_c, 1, 45, 127
3, 193688, Note_off_c, 1, 45, 0
3, 193728, Note_on_c, 1, 45, 127
3, 193880, Note_off_c, 1, 45, 0
3, 193920, Note_on_c, 1, 45, 127
3, 194072, Note_off_c, 1, 45, 0
3, 194112, Note_on_c, 1, 45, 127
3, 194264, Note_off_c, 1, 45, 0
3, 194304, Note_on_c, 1, 45, 127
3, 194456, Note_off_c, 1, 45, 0
3, 194496, Note_on_c, 1, 45, 127
3, 194648, Note_off_c, 1, 45, 0
3, 194688, Note_on_c, 1, 45, 127
3, 194840, Note_off_c, 1, 45, 0
3, 194880, Note_on_c, 1, 45, 127
3, 195032, Note_off_c, 1, 45, 0
3, 195072, Note_on_c, 1, 43, 127
3, 195224, Note_off_c, 1, 43, 0
3, 195264, Note_on_c, 1, 43, 127
3, 195416, Note_off_c, 1, 43, 0
3, 195456, Note_on_c, 1, 43, 127
3, 195608, Note_off_c, 1, 43, 0
3, 195648, Note_on_c, 1, 43, 127
3, 195800, Note_off_c, 1, 43, 0
3, 195840, Note_on_c, 1, 43, 127
3, 195992, Note_off_c, 1, 43, 0
3, 196032, Note_on_c, 1, 43, 127
3, 196184, Note_off_c, 1, 43, 0
3, 196224, Note_on_c, 1, 43, 127
3, 196376, Note_off_c, 1, 43, 0
3, 196416, Note_on_c, 1, 43, 127
3, 196568, Note_off_c, 1, 43, 0
3, 196608, Note_on_c, 1, 43, 127
3, 196760, Note_off_c, 1, 43, 0
3, 196800, Note_on_c, 1, 43, 127
3, 196952, Note_off_c, 1, 43, 0
3, 196992, Note_on_c, 1, 43, 127
3, 197144, Note_off_c, 1, 43, 0
3, 197184, Note_on_c, 1, 43, 127
3, 197336, Note_off_c, 1, 43, 0
3, 197376, Note_on_c, 1, 33, 127
3, 197680, Note_off_c, 1, 33, 0
3, 197760, Note_on_c, 1, 36, 127
3, 198064, Note_off_c, 1, 36, 0
3, 198144, Note_on_c, 1, 38, 127
3, 198296, Note_off_c, 1, 38, 0
3, 198336, Note_on_c, 1, 38, 127
3, 198488, Note_off_c, 1, 38, 0
3, 198528, Note_on_c, 1, 38, 127
3, 198680, Note_off_c, 1, 38, 0
3, 198720, Note_on_c, 1, 38, 127
3, 198872, Note_off_c, 1, 38, 0
3, 198912, Note_on_c, 1, 38, 127
3, 199064, Note_off_c, 1, 38, 0
3, 199104, Note_on_c, 1, 38, 127
3, 199256, Note_off_c, 1, 38, 0
3, 199296, Note_on_c, 1, 38, 127
3, 199448, Note_off_c, 1, 38, 0
3, 199488, Note_on_c, 1, 38, 127
3, 199640, Note_off_c, 1, 38, 0
3, 199680, Note_on_c, 1, 45, 127
3, 199832, Note_off_c, 1, 45, 0
3, 199872, Note_on_c, 1, 45, 127
3, 200024, Note_off_c, 1, 45, 0
3, 200064, Note_on_c, 1, 45, 127
3, 200216, Note_off_c, 1, 45, 0
3, 200256, Note_on_c, 1, 45, 127
3, 200408, Note_off_c, 1, 45, 0
3, 200448, Note_on_c, 1, 45, 127
3, 200600, Note_off_c, 1, 45, 0
3, 200640, Note_on_c, 1, 45, 127
3, 200792, Note_off_c, 1, 45, 0
3, 200832, Note_on_c, 1, 45, 127
3, 200984, Note_off_c, 1, 45, 0
3, 201024, Note_on_c, 1, 45, 127
3, 201176, Note_off_c, 1, 45, 0
3, 201216, Note_on_c, 1, 43, 127
3, 201368, Note_off_c, 1, 43, 0
3, 201408, Note_on_c, 1, 43, 127
3, 201560, Note_off_c, 1, 43, 0
3, 201600, Note_on_c, 1, 43, 127
3, 201752, Note_off_c, 1, 43, 0
3, 201792, Note_on_c, 1, 43, 127
3, 201944, Note_off_c, 1, 43, 0
3, 201984, Note_on_c, 1, 43, 127
3, 202136, Note_off_c, 1, 43, 0
3, 202176, Note_on_c, 1, 43, 127
3, 202328, Note_off_c, 1, 43, 0
3, 202368, Note_on_c, 1, 43, 127
3, 202520, Note_off_c, 1, 43, 0
3, 202560, Note_on_c, 1, 43, 127
3, 202712, Note_off_c, 1, 43, 0
3, 202752, Note_on_c, 1, 43, 127
3, 202904, Note_off_c, 1, 43, 0
3, 202944, Note_on_c, 1, 43, 127
3, 203096, Note_off_c, 1, 43, 0
3, 203136, Note_on_c, 1, 43, 127
3, 203288, Note_off_c, 1, 43, 0
3, 203328, Note_on_c, 1, 43, 127
3, 203480, Note_off_c, 1, 43, 0
3, 203520, Note_on_c, 1, 33, 127
3, 203824, Note_off_c, 1, 33, 0
3, 203904, Note_on_c, 1, 36, 127
3, 204208, Note_off_c, 1, 36, 0
3, 204288, Note_on_c, 1, 38, 127
3, 204440, Note_off_c, 1, 38, 0
3, 204480, Note_on_c, 1, 38, 127
3, 204632, Note_off_c, 1, 38, 0
3, 204672, Note_on_c, 1, 38, 127
3, 204824, Note_off_c, 1, 38, 0
3, 204864, Note_on_c, 1, 38, 127
3, 205016, Note_off_c, 1, 38, 0
3, 205056, Note_on_c, 1, 38, 127
3, 205208, Note_off_c, 1, 38, 0
3, 205248, Note_on_c, 1, 38, 127
3, 205400, Note_off_c, 1, 38, 0
3, 205440, Note_on_c, 1, 38, 127
3, 205592, Note_off_c, 1, 38, 0
3, 205632, Note_on_c, 1, 38, 127
3, 205784, Note_off_c, 1, 38, 0
3, 205824, Note_on_c, 1, 45, 127
3, 205976, Note_off_c, 1, 45, 0
3, 206016, Note_on_c, 1, 45, 127
3, 206168, Note_off_c, 1, 45, 0
3, 206208, Note_on_c, 1, 45, 127
3, 206360, Note_off_c, 1, 45, 0
3, 206400, Note_on_c, 1, 45, 127
3, 206552, Note_off_c, 1, 45, 0
3, 206592, Note_on_c, 1, 45, 127
3, 206744, Note_off_c, 1, 45, 0
3, 206784, Note_on_c, 1, 45, 127
3, 206936, Note_off_c, 1, 45, 0
3, 206976, Note_on_c, 1, 45, 127
3, 207128, Note_off_c, 1, 45, 0
3, 207168, Note_on_c, 1, 45, 127
3, 207320, Note_off_c, 1, 45, 0
3, 207360, Note_on_c, 1, 43, 127
3, 207512, Note_off_c, 1, 43, 0
3, 207552, Note_on_c, 1, 43, 127
3, 207704, Note_off_c, 1, 43, 0
3, 207744, Note_on_c, 1, 43, 127
3, 207896, Note_off_c, 1, 43, 0
3, 207936, Note_on_c, 1, 43, 127
3, 208088, Note_off_c, 1, 43, 0
3, 208128, Note_on_c, 1, 43, 127
3, 208280, Note_off_c, 1, 43, 0
3, 208320, Note_on_c, 1, 43, 127
3, 208472, Note_off_c, 1, 43, 0
3, 208512, Note_on_c, 1, 43, 127
3, 208664, Note_off_c, 1, 43, 0
3, 208704, Note_on_c, 1, 43, 127
3, 208856, Note_off_c, 1, 43, 0
3, 208896, Note_on_c, 1, 43, 127
3, 209048, Note_off_c, 1, 43, 0
3, 209088, Note_on_c, 1, 43, 127
3, 209240, Note_off_c, 1, 43, 0
3, 209280, Note_on_c, 1, 43, 127
3, 209432, Note_off_c, 1, 43, 0
3, 209472, Note_on_c, 1, 43, 127
3, 209624, Note_off_c, 1, 43, 0
3, 209664, Note_on_c, 1, 33, 127
3, 209968, Note_off_c, 1, 33, 0
3, 210048, Note_on_c, 1, 36, 127
3, 210352, Note_off_c, 1, 36, 0
3, 210432, Note_on_c, 1, 38, 127
3, 210584, Note_off_c, 1, 38, 0
3, 210624, Note_on_c, 1, 38, 127
3, 210776, Note_off_c, 1, 38, 0
3, 210816, Note_on_c, 1, 38, 127
3, 210968, Note_off_c, 1, 38, 0
3, 211008, Note_on_c, 1, 38, 127
3, 211160, Note_off_c, 1, 38, 0
3, 211200, Note_on_c, 1, 38, 127
3, 211352, Note_off_c, 1, 38, 0
3, 211392, Note_on_c, 1, 38, 127
3, 211544, Note_off_c, 1, 38, 0
3, 211584, Note_on_c, 1, 38, 127
3, 211736, Note_off_c, 1, 38, 0
3, 211776, Note_on_c, 1, 38, 127
3, 211928, Note_off_c, 1, 38, 0
3, 211968, Note_on_c, 1, 45, 127
3, 212120, Note_off_c, 1, 45, 0
3, 212160, Note_on_c, 1, 45, 127
3, 212312, Note_off_c, 1, 45, 0
3, 212352, Note_on_c, 1, 45, 127
3, 212504, Note_off_c, 1, 45, 0
3, 212544, Note_on_c, 1, 45, 127
3, 212696, Note_off_c, 1, 45, 0
3, 212736, Note_on_c, 1, 45, 127
3, 212888, Note_off_c, 1, 45, 0
3, 212928, Note_on_c, 1, 45, 127
3, 213080, Note_off_c, 1, 45, 0
3, 213120, Note_on_c, 1, 45, 127
3, 213272, Note_off_c, 1, 45, 0
3, 213312, Note_on_c, 1, 45, 127
3, 213464, Note_off_c, 1, 45, 0
3, 213504, Note_on_c, 1, 46, 127
3, 213656, Note_off_c, 1, 46, 0
3, 213696, Note_on_c, 1, 46, 127
3, 213848, Note_off_c, 1, 46, 0
3, 213888, Note_on_c, 1, 46, 127
3, 214040, Note_off_c, 1, 46, 0
3, 214080, Note_on_c, 1, 46, 127
3, 214232, Note_off_c, 1, 46, 0
3, 214272, Note_on_c, 1, 46, 127
3, 214424, Note_off_c, 1, 46, 0
3, 214464, Note_on_c, 1, 46, 127
3, 214616, Note_off_c, 1, 46, 0
3, 214656, Note_on_c, 1, 46, 127
3, 214808, Note_off_c, 1, 46, 0
3, 214848, Note_on_c, 1, 46, 127
3, 215000, Note_off_c, 1, 46, 0
3, 215040, Note_on_c, 1, 46, 127
3, 215192, Note_off_c, 1, 46, 0
3, 215232, Note_on_c, 1, 46, 127
3, 215384, Note_off_c, 1, 46, 0
3, 215424, Note_on_c, 1, 46, 127
3, 215576, Note_off_c, 1, 46, 0
3, 215616, Note_on_c, 1, 46, 127
3, 215768, Note_off_c, 1, 46, 0
3, 215808, Note_on_c, 1, 46, 127
3, 216112, Note_off_c, 1, 46, 0
3, 216192, Note_on_c, 1, 48, 127
3, 216496, Note_off_c, 1, 48, 0
3, 216576, Note_on_c, 1, 38, 127
3, 216728, Note_off_c, 1, 38, 0
3, 216768, Note_on_c, 1, 38, 127
3, 216920, Note_off_c, 1, 38, 0
3, 216960, Note_on_c, 1, 38, 127
3, 217112, Note_off_c, 1, 38, 0
3, 217152, Note_on_c, 1, 38, 127
3, 217304, Note_off_c, 1, 38, 0
3, 217344, Note_on_c, 1, 38, 127
3, 217496, Note_off_c, 1, 38, 0
3, 217536, Note_on_c, 1, 38, 127
3, 217688, Note_off_c, 1, 38, 0
3, 217728, Note_on_c, 1, 38, 127
3, 217880, Note_off_c, 1, 38, 0
3, 217920, Note_on_c, 1, 38, 127
3, 218072, Note_off_c, 1, 38, 0
3, 218112, Note_on_c, 1, 45, 127
3, 218264, Note_off_c, 1, 45, 0
3, 218304, Note_on_c, 1, 45, 127
3, 218456, Note_off_c, 1, 45, 0
3, 218496, Note_on_c, 1, 45, 127
3, 218648, Note_off_c, 1, 45, 0
3, 218688, Note_on_c, 1, 45, 127
3, 218840, Note_off_c, 1, 45, 0
3, 218880, Note_on_c, 1, 45, 127
3, 219032, Note_off_c, 1, 45, 0
3, 219072, Note_on_c, 1, 45, 127
3, 219224, Note_off_c, 1, 45, 0
3, 219264, Note_on_c, 1, 45, 127
3, 219416, Note_off_c, 1, 45, 0
3, 219456, Note_on_c, 1, 45, 127
3, 219608, Note_off_c, 1, 45, 0
3, 219648, Note_on_c, 1, 46, 127
3, 219800, Note_off_c, 1, 46, 0
3, 219840, Note_on_c, 1, 46, 127
3, 219992, Note_off_c, 1, 46, 0
3, 220032, Note_on_c, 1, 46, 127
3, 220184, Note_off_c, 1, 46, 0
3, 220224, Note_on_c, 1, 46, 127
3, 220376, Note_off_c, 1, 46, 0
3, 220416, Note_on_c, 1, 46, 127
3, 220568, Note_off_c, 1, 46, 0
3, 220608, Note_on_c, 1, 46, 127
3, 220760, Note_off_c, 1, 46, 0
3, 220800, Note_on_c, 1, 46, 127
3, 220952, Note_off_c, 1, 46, 0
3, 220992, Note_on_c, 1, 46, 127
3, 221144, Note_off_c, 1, 46, 0
3, 221184, Note_on_c, 1, 46, 127
3, 221336, Note_off_c, 1, 46, 0
3, 221376, Note_on_c, 1, 46, 127
3, 221528, Note_off_c, 1, 46, 0
3, 221568, Note_on_c, 1, 46, 127
3, 221720, Note_off_c, 1, 46, 0
3, 221760, Note_on_c, 1, 46, 127
3, 221912, Note_off_c, 1, 46, 0
3, 221952, Note_on_c, 1, 46, 127
3, 222256, Note_off_c, 1, 46, 0
3, 222336, Note_on_c, 1, 48, 127
3, 222640, Note_off_c, 1, 48, 0
3, 222720, Note_on_c, 1, 38, 127
3, 222872, Note_off_c, 1, 38, 0
3, 222912, Note_on_c, 1, 38, 127
3, 223064, Note_off_c, 1, 38, 0
3, 223104, Note_on_c, 1, 38, 127
3, 223256, Note_off_c, 1, 38, 0
3, 223296, Note_on_c, 1, 38, 127
3, 223448, Note_off_c, 1, 38, 0
3, 223488, Note_on_c, 1, 38, 127
3, 223640, Note_off_c, 1, 38, 0
3, 223680, Note_on_c, 1, 38, 127
3, 223832, Note_off_c, 1, 38, 0
3, 223872, Note_on_c, 1, 38, 127
3, 224024, Note_off_c, 1, 38, 0
3, 224064, Note_on_c, 1, 38, 127
3, 224216, Note_off_c, 1, 38, 0
3, 224256, Note_on_c, 1, 45, 127
3, 224408, Note_off_c, 1, 45, 0
3, 224448, Note_on_c, 1, 45, 127
3, 224600, Note_off_c, 1, 45, 0
3, 224640, Note_on_c, 1, 45, 127
3, 224792, Note_off_c, 1, 45, 0
3, 224832, Note_on_c, 1, 45, 127
3, 224984, Note_off_c, 1, 45, 0
3, 225024, Note_on_c, 1, 45, 127
3, 225176, Note_off_c, 1, 45, 0
3, 225216, Note_on_c, 1, 45, 127
3, 225368, Note_off_c, 1, 45, 0
3, 225408, Note_on_c, 1, 45, 127
3, 225560, Note_off_c, 1, 45, 0
3, 225600, Note_on_c, 1, 45, 127
3, 225752, Note_off_c, 1, 45, 0
3, 225792, Note_on_c, 1, 46, 127
3, 225944, Note_off_c, 1, 46, 0
3, 225984, Note_on_c, 1, 46, 127
3, 226136, Note_off_c, 1, 46, 0
3, 226176, Note_on_c, 1, 46, 127
3, 226328, Note_off_c, 1, 46, 0
3, 226368, Note_on_c, 1, 46, 127
3, 226520, Note_off_c, 1, 46, 0
3, 226560, Note_on_c, 1, 46, 127
3, 226712, Note_off_c, 1, 46, 0
3, 226752, Note_on_c, 1, 46, 127
3, 226904, Note_off_c, 1, 46, 0
3, 226944, Note_on_c, 1, 46, 127
3, 227096, Note_off_c, 1, 46, 0
3, 227136, Note_on_c, 1, 46, 127
3, 227288, Note_off_c, 1, 46, 0
3, 227328, Note_on_c, 1, 46, 127
3, 228556, Note_off_c, 1, 46, 0
3, 228556, End_track
4, 0, Start_track
4, 0, Title_t, "Keyboard"
4, 0, Control_c, 2, 0, 0
4, 0, Program_c, 2, 94
4, 0, Control_c, 2, 7, 80
4, 0, Key_signature, -1, "major"
4, 0, Control_c, 2, 7, 100
4, 0, Program_c, 2, 94
4, 0, Note_on_c, 2, 60, 127
4, 76, Note_off_c, 2, 60, 0
4, 96, Note_on_c, 2, 62, 127
4, 172, Note_off_c, 2, 62, 0
4, 192, Note_on_c, 2, 65, 127
4, 344, Note_off_c, 2, 65, 0
4, 384, Note_on_c, 2, 60, 127
4, 460, Note_off_c, 2, 60, 0
4, 480, Note_on_c, 2, 65, 127
4, 556, Note_off_c, 2, 65, 0
4, 576, Note_on_c, 2, 67, 127
4, 728, Note_off_c, 2, 67, 0
4, 768, Note_on_c, 2, 65, 127
4, 844, Note_off_c, 2, 65, 0
4, 864, Note_on_c, 2, 67, 127
4, 940, Note_off_c, 2, 67, 0
4, 960, Note_on_c, 2, 69, 127
4, 1112, Note_off_c, 2, 69, 0
4, 1152, Note_on_c, 2, 67, 127
4, 1228, Note_off_c, 2, 67, 0
4, 1248, Note_on_c, 2, 69, 127
4, 1324, Note_off_c, 2, 69, 0
4, 1344, Note_on_c, 2, 72, 127
4, 1496, Note_off_c, 2, 72, 0
4, 1536, Note_on_c, 2, 74, 127
4, 1536, Note_on_c, 2, 69, 127
4, 1536, Note_on_c, 2, 65, 127
4, 2148, Note_off_c, 2, 65, 0
4, 2304, Note_off_c, 2, 74, 0
4, 2304, Note_off_c, 2, 69, 0
4, 2304, Note_on_c, 2, 69, 127
4, 2304, Note_on_c, 2, 74, 127
4, 2304, Note_on_c, 2, 77, 127
4, 2608, Note_off_c, 2, 69, 0
4, 2608, Note_off_c, 2, 74, 0
4, 2608, Note_off_c, 2, 77, 0
4, 2688, Note_on_c, 2, 81, 127
4, 2688, Note_on_c, 2, 77, 127
4, 2688, Note_on_c, 2, 74, 127
4, 2992, Note_off_c, 2, 81, 0
4, 2992, Note_off_c, 2, 77, 0
4, 2992, Note_off_c, 2, 74, 0
4, 3072, Note_on_c, 2, 79, 127
4, 3072, Note_on_c, 2, 76, 127
4, 3072, Note_on_c, 2, 72, 127
4, 3840, Note_off_c, 2, 79, 0
4, 3840, Note_off_c, 2, 76, 0
4, 3840, Note_off_c, 2, 72, 0
4, 3840, Note_on_c, 2, 67, 127
4, 3840, Note_on_c, 2, 72, 127
4, 3840, Note_on_c, 2, 76, 127
4, 4144, Note_off_c, 2, 67, 0
4, 4144, Note_off_c, 2, 72, 0
4, 4144, Note_off_c, 2, 76, 0
4, 4224, Note_on_c, 2, 64, 127
4, 4224, Note_on_c, 2, 67, 127
4, 4224, Note_on_c, 2, 72, 127
4, 4528, Note_off_c, 2, 64, 0
4, 4528, Note_off_c, 2, 67, 0
4, 4528, Note_off_c, 2, 72, 0
4, 4608, Note_on_c, 2, 65, 127
4, 4608, Note_on_c, 2, 70, 127
4, 4608, Note_on_c, 2, 74, 127
4, 7372, Note_off_c, 2, 65, 0
4, 7372, Note_off_c, 2, 70, 0
4, 7372, Note_off_c, 2, 74, 0
4, 7680, Note_on_c, 2, 74, 127
4, 7680, Note_on_c, 2, 69, 127
4, 7680, Note_on_c, 2, 65, 127
4, 8448, Note_off_c, 2, 74, 0
4, 8448, Note_off_c, 2, 69, 0
4, 8448, Note_off_c, 2, 65, 0
4, 8448, Note_on_c, 2, 69, 127
4, 8448, Note_on_c, 2, 74, 127
4, 8448, Note_on_c, 2, 77, 127
4, 8752, Note_off_c, 2, 69, 0
4, 8752, Note_off_c, 2, 74, 0
4, 8752, Note_off_c, 2, 77, 0
4, 8832, Note_on_c, 2, 81, 127
4, 8832, Note_on_c, 2, 77, 127
4, 8832, Note_on_c, 2, 74, 127
4, 9136, Note_off_c, 2, 81, 0
4, 9136, Note_off_c, 2, 77, 0
4, 9136, Note_off_c, 2, 74, 0
4, 9216, Note_on_c, 2, 79, 127
4, 9216, Note_on_c, 2, 76, 127
4, 9216, Note_on_c, 2, 72, 127
4, 9984, Note_off_c, 2, 79, 0
4, 9984, Note_off_c, 2, 76, 0
4, 9984, Note_off_c, 2, 72, 0
4, 9984, Note_on_c, 2, 67, 127
4, 9984, Note_on_c, 2, 72, 127
4, 9984, Note_on_c, 2, 76, 127
4, 10288, Note_off_c, 2, 67, 0
4, 10288, Note_off_c, 2, 72, 0
4, 10288, Note_off_c, 2, 76, 0
4, 10368, Note_on_c, 2, 64, 127
4, 10368, Note_on_c, 2, 67, 127
4, 10368, Note_on_c, 2, 72, 127
4, 10672, Note_off_c, 2, 64, 0
4, 10672, Note_off_c, 2, 67, 0
4, 10672, Note_off_c, 2, 72, 0
4, 10752, Note_on_c, 2, 65, 127
4, 10752, Note_on_c, 2, 70, 127
4, 10752, Note_on_c, 2, 74, 127
4, 13516, Note_off_c, 2, 65, 0
4, 13516, Note_off_c, 2, 70, 0
4, 13516, Note_off_c, 2, 74, 0
4, 62976, Note_on_c, 2, 74, 127
4, 62976, Note_on_c, 2, 69, 127
4, 62976, Note_on_c, 2, 65, 127
4, 63588, Note_off_c, 2, 65, 0
4, 63744, Note_off_c, 2, 74, 0
4, 63744, Note_off_c, 2, 69, 0
4, 63744, Note_on_c, 2, 69, 127
4, 63744, Note_on_c, 2, 74, 127
4, 63744, Note_on_c, 2, 77, 127
4, 64048, Note_off_c, 2, 69, 0
4, 64048, Note_off_c, 2, 74, 0
4, 64048, Note_off_c, 2, 77, 0
4, 64128, Note_on_c, 2, 81, 127
4, 64128, Note_on_c, 2, 77, 127
4, 64128, Note_on_c, 2, 74, 127
4, 64432, Note_off_c, 2, 81, 0
4, 64432, Note_off_c, 2, 77, 0
4, 64432, Note_off_c, 2, 74, 0
4, 64512, Note_on_c, 2, 79, 127
4, 64512, Note_on_c, 2, 76, 127
4, 64512, Note_on_c, 2, 72, 127
4, 65280, Note_off_c, 2, 79, 0
4, 65280, Note_off_c, 2, 76, 0
4, 65280, Note_off_c, 2, 72, 0
4, 65280, Note_on_c, 2, 67, 127
4, 65280, Note_on_c, 2, 72, 127
4, 65280, Note_on_c, 2, 76, 127
4, 65584, Note_off_c, 2, 67, 0
4, 65584, Note_off_c, 2, 72, 0
4, 65584, Note_off_c, 2, 76, 0
4, 65664, Note_on_c, 2, 64, 127
4, 65664, Note_on_c, 2, 67, 127
4, 65664, Note_on_c, 2, 72, 127
4, 65968, Note_off_c, 2, 64, 0
4, 65968, Note_off_c, 2, 67, 0
4, 65968, Note_off_c, 2, 72, 0
4, 66048, Note_on_c, 2, 65, 127
4, 66048, Note_on_c, 2, 70, 127
4, 66048, Note_on_c, 2, 74, 127
4, 68812, Note_off_c, 2, 65, 0
4, 68812, Note_off_c, 2, 70, 0
4, 68812, Note_off_c, 2, 74, 0
4, 130560, Note_on_c, 2, 74, 127
4, 130560, Note_on_c, 2, 69, 127
4, 130560, Note_on_c, 2, 65, 127
4, 131172, Note_off_c, 2, 65, 0
4, 131328, Note_off_c, 2, 74, 0
4, 131328, Note_off_c, 2, 69, 0
4, 131328, Note_on_c, 2, 69, 127
4, 131328, Note_on_c, 2, 74, 127
4, 131328, Note_on_c, 2, 77, 127
4, 131632, Note_off_c, 2, 69, 0
4, 131632, Note_off_c, 2, 74, 0
4, 131632, Note_off_c, 2, 77, 0
4, 131712, Note_on_c, 2, 81, 127
4, 131712, Note_on_c, 2, 77, 127
4, 131712, Note_on_c, 2, 74, 127
4, 132016, Note_off_c, 2, 81, 0
4, 132016, Note_off_c, 2, 77, 0
4, 132016, Note_off_c, 2, 74, 0
4, 132096, Note_on_c, 2, 79, 127
4, 132096, Note_on_c, 2, 76, 127
4, 132096, Note_on_c, 2, 72, 127
4, 132864, Note_off_c, 2, 79, 0
4, 132864, Note_off_c, 2, 76, 0
4, 132864, Note_off_c, 2, 72, 0
4, 132864, Note_on_c, 2, 67, 127
4, 132864, Note_on_c, 2, 72, 127
4, 132864, Note_on_c, 2, 76, 127
4, 133168, Note_off_c, 2, 67, 0
4, 133168, Note_off_c, 2, 72, 0
4, 133168, Note_off_c, 2, 76, 0
4, 133248, Note_on_c, 2, 64, 127
4, 133248, Note_on_c, 2, 67, 127
4, 133248, Note_on_c, 2, 72, 127
4, 133552, Note_off_c, 2, 64, 0
4, 133552, Note_off_c, 2, 67, 0
4, 133552, Note_off_c, 2, 72, 0
4, 133632, Note_on_c, 2, 65, 127
4, 133632, Note_on_c, 2, 70, 127
4, 133632, Note_on_c, 2, 74, 127
4, 136396, Note_off_c, 2, 65, 0
4, 136396, Note_off_c, 2, 70, 0
4, 136396, Note_off_c, 2, 74, 0
4, 210432, Note_on_c, 2, 74, 127
4, 210432, Note_on_c, 2, 69, 127
4, 210432, Note_on_c, 2, 65, 127
4, 211044, Note_off_c, 2, 65, 0
4, 211200, Note_off_c, 2, 74, 0
4, 211200, Note_off_c, 2, 69, 0
4, 211200, Note_on_c, 2, 69, 127
4, 211200, Note_on_c, 2, 74, 127
4, 211200, Note_on_c, 2, 77, 127
4, 211504, Note_off_c, 2, 69, 0
4, 211504, Note_off_c, 2, 74, 0
4, 211504, Note_off_c, 2, 77, 0
4, 211584, Note_on_c, 2, 81, 127
4, 211584, Note_on_c, 2, 77, 127
4, 211584, Note_on_c, 2, 74, 127
4, 211888, Note_off_c, 2, 81, 0
4, 211888, Note_off_c, 2, 77, 0
4, 211888, Note_off_c, 2, 74, 0
4, 211968, Note_on_c, 2, 79, 127
4, 211968, Note_on_c, 2, 76, 127
4, 211968, Note_on_c, 2, 72, 127
4, 212736, Note_off_c, 2, 79, 0
4, 212736, Note_off_c, 2, 76, 0
4, 212736, Note_off_c, 2, 72, 0
4, 212736, Note_on_c, 2, 67, 127
4, 212736, Note_on_c, 2, 72, 127
4, 212736, Note_on_c, 2, 76, 127
4, 213040, Note_off_c, 2, 67, 0
4, 213040, Note_off_c, 2, 72, 0
4, 213040, Note_off_c, 2, 76, 0
4, 213120, Note_on_c, 2, 64, 127
4, 213120, Note_on_c, 2, 67, 127
4, 213120, Note_on_c, 2, 72, 127
4, 213424, Note_off_c, 2, 64, 0
4, 213424, Note_off_c, 2, 67, 0
4, 213424, Note_off_c, 2, 72, 0
4, 213504, Note_on_c, 2, 65, 127
4, 213504, Note_on_c, 2, 70, 127
4, 213504, Note_on_c, 2, 74, 127
4, 216024, Note_off_c, 2, 65, 0
4, 216024, Note_off_c, 2, 70, 0
4, 216024, Note_off_c, 2, 74, 0
4, 216576, Note_on_c, 2, 74, 127
4, 216576, Note_on_c, 2, 69, 127
4, 216576, Note_on_c, 2, 65, 127
4, 217188, Note_off_c, 2, 65, 0
4, 217344, Note_off_c, 2, 74, 0
4, 217344, Note_off_c, 2, 69, 0
4, 217344, Note_on_c, 2, 69, 127
4, 217344, Note_on_c, 2, 74, 127
4, 217344, Note_on_c, 2, 77, 127
4, 217648, Note_off_c, 2, 69, 0
4, 217648, Note_off_c, 2, 74, 0
4, 217648, Note_off_c, 2, 77, 0
4, 217728, Note_on_c, 2, 81, 127
4, 217728, Note_on_c, 2, 77, 127
4, 217728, Note_on_c, 2, 74, 127
4, 218032, Note_off_c, 2, 81, 0
4, 218032, Note_off_c, 2, 77, 0
4, 218032, Note_off_c, 2, 74, 0
4, 218112, Note_on_c, 2, 79, 127
4, 218112, Note_on_c, 2, 76, 127
4, 218112, Note_on_c, 2, 72, 127
4, 218880, Note_off_c, 2, 79, 0
4, 218880, Note_off_c, 2, 76, 0
4, 218880, Note_off_c, 2, 72, 0
4, 218880, Note_on_c, 2, 67, 127
4, 218880, Note_on_c, 2, 72, 127
4, 218880, Note_on_c, 2, 76, 127
4, 219184, Note_off_c, 2, 67, 0
4, 219184, Note_off_c, 2, 72, 0
4, 219184, Note_off_c, 2, 76, 0
4, 219264, Note_on_c, 2, 64, 127
4, 219264, Note_on_c, 2, 67, 127
4, 219264, Note_on_c, 2, 72, 127
4, 219568, Note_off_c, 2, 64, 0
4, 219568, Note_off_c, 2, 67, 0
4, 219568, Note_off_c, 2, 72, 0
4, 219648, Note_on_c, 2, 65, 127
4, 219648, Note_on_c, 2, 70, 127
4, 219648, Note_on_c, 2, 74, 127
4, 222168, Note_off_c, 2, 65, 0
4, 222168, Note_off_c, 2, 70, 0
4, 222168, Note_off_c, 2, 74, 0
4, 222720, Note_on_c, 2, 74, 127
4, 222720, Note_on_c, 2, 69, 127
4, 222720, Note_on_c, 2, 65, 127
4, 223332, Note_off_c, 2, 65, 0
4, 223488, Note_off_c, 2, 74, 0
4, 223488, Note_off_c, 2, 69, 0
4, 223488, Note_on_c, 2, 69, 127
4, 223488, Note_on_c, 2, 74, 127
4, 223488, Note_on_c, 2, 77, 127
4, 223792, Note_off_c, 2, 69, 0
4, 223792, Note_off_c, 2, 74, 0
4, 223792, Note_off_c, 2, 77, 0
4, 223872, Note_on_c, 2, 81, 127
4, 223872, Note_on_c, 2, 77, 127
4, 223872, Note_on_c, 2, 74, 127
4, 224176, Note_off_c, 2, 81, 0
4, 224176, Note_off_c, 2, 77, 0
4, 224176, Note_off_c, 2, 74, 0
4, 224256, Note_on_c, 2, 79, 127
4, 224256, Note_on_c, 2, 76, 127
4, 224256, Note_on_c, 2, 72, 127
4, 225024, Note_off_c, 2, 79, 0
4, 225024, Note_off_c, 2, 76, 0
4, 225024, Note_off_c, 2, 72, 0
4, 225024, Note_on_c, 2, 67, 127
4, 225024, Note_on_c, 2, 72, 127
4, 225024, Note_on_c, 2, 76, 127
4, 225328, Note_off_c, 2, 67, 0
4, 225328, Note_off_c, 2, 72, 0
4, 225328, Note_off_c, 2, 76, 0
4, 225408, Note_on_c, 2, 64, 127
4, 225408, Note_on_c, 2, 67, 127
4, 225408, Note_on_c, 2, 72, 127
4, 225712, Note_off_c, 2, 64, 0
4, 225712, Note_off_c, 2, 67, 0
4, 225712, Note_off_c, 2, 72, 0
4, 225792, Note_on_c, 2, 65, 127
4, 225792, Note_on_c, 2, 70, 127
4, 225792, Note_on_c, 2, 74, 127
4, 228312, Note_off_c, 2, 65, 0
4, 228312, Note_off_c, 2, 70, 0
4, 228312, Note_off_c, 2, 74, 0
4, 228312, End_track
5, 0, Start_track
5, 0, Title_t, "Piano"
5, 0, Control_c, 4, 0, 0
5, 0, Program_c, 4, 4
5, 0, Control_c, 4, 7, 105
5, 0, Control_c, 4, 10, 51
5, 0, Key_signature, -1, "major"
5, 0, Control_c, 4, 7, 100
5, 0, Program_c, 4, 4
5, 13824, Note_on_c, 4, 60, 127
5, 13824, Note_on_c, 4, 65, 127
5, 14744, Note_off_c, 4, 60, 0
5, 14744, Note_off_c, 4, 65, 0
5, 14976, Note_on_c, 4, 60, 127
5, 15128, Note_off_c, 4, 60, 0
5, 15168, Note_on_c, 4, 57, 127
5, 15168, Note_on_c, 4, 60, 127
5, 15628, Note_off_c, 4, 57, 0
5, 15628, Note_off_c, 4, 60, 0
5, 15744, Note_on_c, 4, 57, 127
5, 15744, Note_on_c, 4, 65, 127
5, 16048, Note_off_c, 4, 57, 0
5, 16048, Note_off_c, 4, 65, 0
5, 16128, Note_on_c, 4, 60, 127
5, 16432, Note_off_c, 4, 60, 0
5, 16512, Note_on_c, 4, 65, 127
5, 16816, Note_off_c, 4, 65, 0
5, 16896, Note_on_c, 4, 60, 127
5, 16896, Note_on_c, 4, 64, 127
5, 17356, Note_off_c, 4, 60, 0
5, 17356, Note_off_c, 4, 64, 0
5, 17472, Note_on_c, 4, 60, 127
5, 17472, Note_on_c, 4, 64, 127
5, 17624, Note_off_c, 4, 60, 0
5, 17624, Note_off_c, 4, 64, 0
5, 17664, Note_on_c, 4, 60, 127
5, 17664, Note_on_c, 4, 64, 127
5, 18124, Note_off_c, 4, 60, 0
5, 18124, Note_off_c, 4, 64, 0
5, 18240, Note_on_c, 4, 60, 127
5, 18392, Note_off_c, 4, 60, 0
5, 18432, Note_on_c, 4, 60, 127
5, 18432, Note_on_c, 4, 64, 127
5, 18584, Note_off_c, 4, 60, 0
5, 18584, Note_off_c, 4, 64, 0
5, 18624, Note_on_c, 4, 60, 127
5, 18624, Note_on_c, 4, 64, 127
5, 18776, Note_off_c, 4, 60, 0
5, 18776, Note_off_c, 4, 64, 0
5, 19584, Note_on_c, 4, 60, 127
5, 19584, Note_on_c, 4, 64, 127
5, 19888, Note_off_c, 4, 60, 0
5, 19888, Note_off_c, 4, 64, 0
5, 19968, Note_on_c, 4, 62, 127
5, 19968, Note_on_c, 4, 65, 127
5, 20952, Note_off_c, 4, 62, 0
5, 20952, Note_off_c, 4, 65, 0
5, 21312, Note_on_c, 4, 57, 127
5, 21312, Note_on_c, 4, 62, 127
5, 22256, Note_off_c, 4, 57, 0
5, 22256, Note_off_c, 4, 62, 0
5, 22272, Note_on_c, 4, 62, 127
5, 22424, Note_off_c, 4, 62, 0
5, 22464, Note_on_c, 4, 62, 127
5, 22464, Note_on_c, 4, 65, 127
5, 22924, Note_off_c, 4, 62, 0
5, 22924, Note_off_c, 4, 65, 0
5, 23040, Note_on_c, 4, 62, 127
5, 23040, Note_on_c, 4, 65, 127
5, 23652, Note_off_c, 4, 62, 0
5, 23652, Note_off_c, 4, 65, 0
5, 23808, Note_on_c, 4, 62, 127
5, 23808, Note_on_c, 4, 65, 127
5, 24268, Note_off_c, 4, 62, 0
5, 24268, Note_off_c, 4, 65, 0
5, 24576, Note_on_c, 4, 58, 127
5, 24576, Note_on_c, 4, 62, 127
5, 25188, Note_off_c, 4, 58, 0
5, 25188, Note_off_c, 4, 62, 0
5, 25344, Note_on_c, 4, 53, 127
5, 25344, Note_on_c, 4, 58, 127
5, 25956, Note_off_c, 4, 53, 0
5, 25956, Note_off_c, 4, 58, 0
5, 26112, Note_on_c, 4, 60, 127
5, 26112, Note_on_c, 4, 65, 127
5, 27032, Note_off_c, 4, 60, 0
5, 27032, Note_off_c, 4, 65, 0
5, 27264, Note_on_c, 4, 60, 127
5, 27568, Note_off_c, 4, 60, 0
5, 27648, Note_on_c, 4, 57, 127
5, 27648, Note_on_c, 4, 60, 127
5, 28108, Note_off_c, 4, 57, 0
5, 28108, Note_off_c, 4, 60, 0
5, 28224, Note_on_c, 4, 60, 127
5, 28684, Note_off_c, 4, 60, 0
5, 28800, Note_on_c, 4, 65, 127
5, 29104, Note_off_c, 4, 65, 0
5, 29184, Note_on_c, 4, 60, 127
5, 29184, Note_on_c, 4, 64, 127
5, 29644, Note_off_c, 4, 60, 0
5, 29644, Note_off_c, 4, 64, 0
5, 29760, Note_on_c, 4, 60, 127
5, 29760, Note_on_c, 4, 64, 127
5, 29912, Note_off_c, 4, 60, 0
5, 29912, Note_off_c, 4, 64, 0
5, 29952, Note_on_c, 4, 60, 127
5, 29952, Note_on_c, 4, 64, 127
5, 30412, Note_off_c, 4, 60, 0
5, 30412, Note_off_c, 4, 64, 0
5, 30528, Note_on_c, 4, 60, 127
5, 30680, Note_off_c, 4, 60, 0
5, 30720, Note_on_c, 4, 60, 127
5, 30720, Note_on_c, 4, 64, 127
5, 30872, Note_off_c, 4, 60, 0
5, 30872, Note_off_c, 4, 64, 0
5, 30912, Note_on_c, 4, 60, 127
5, 30912, Note_on_c, 4, 64, 127
5, 31064, Note_off_c, 4, 60, 0
5, 31064, Note_off_c, 4, 64, 0
5, 32256, Note_on_c, 4, 62, 127
5, 32256, Note_on_c, 4, 65, 127
5, 33200, Note_off_c, 4, 62, 0
5, 33200, Note_off_c, 4, 65, 0
5, 33600, Note_on_c, 4, 58, 127
5, 33600, Note_on_c, 4, 62, 127
5, 34544, Note_off_c, 4, 58, 0
5, 34544, Note_off_c, 4, 62, 0
5, 34560, Note_on_c, 4, 62, 127
5, 34712, Note_off_c, 4, 62, 0
5, 34752, Note_on_c, 4, 62, 127
5, 35212, Note_off_c, 4, 62, 0
5, 35328, Note_on_c, 4, 64, 127
5, 35328, Note_on_c, 4, 67, 127
5, 35940, Note_off_c, 4, 64, 0
5, 35940, Note_off_c, 4, 67, 0
5, 36096, Note_on_c, 4, 60, 127
5, 36096, Note_on_c, 4, 64, 127
5, 36556, Note_off_c, 4, 60, 0
5, 36556, Note_off_c, 4, 64, 0
5, 36864, Note_on_c, 4, 58, 127
5, 36864, Note_on_c, 4, 60, 127
5, 37324, Note_off_c, 4, 58, 0
5, 37324, Note_off_c, 4, 60, 0
5, 37440, Note_on_c, 4, 53, 127
5, 37440, Note_on_c, 4, 58, 127
5, 37900, Note_off_c, 4, 53, 0
5, 37900, Note_off_c, 4, 58, 0
5, 38592, Note_on_c, 4, 62, 127
5, 38744, Note_off_c, 4, 62, 0
5, 38784, Note_on_c, 4, 62, 127
5, 38936, Note_off_c, 4, 62, 0
5, 38976, Note_on_c, 4, 62, 127
5, 39128, Note_off_c, 4, 62, 0
5, 39168, Note_on_c, 4, 65, 127
5, 39320, Note_off_c, 4, 65, 0
5, 39360, Note_on_c, 4, 67, 127
5, 39512, Note_off_c, 4, 67, 0
5, 39552, Note_on_c, 4, 65, 127
5, 39704, Note_off_c, 4, 65, 0
5, 39744, Note_on_c, 4, 60, 127
5, 39744, Note_on_c, 4, 65, 127
5, 40048, Note_off_c, 4, 60, 0
5, 40048, Note_off_c, 4, 65, 0
5, 40128, Note_on_c, 4, 60, 127
5, 40432, Note_off_c, 4, 60, 0
5, 40512, Note_on_c, 4, 60, 127
5, 40512, Note_on_c, 4, 65, 127
5, 40972, Note_off_c, 4, 60, 0
5, 40972, Note_off_c, 4, 65, 0
5, 41472, Note_on_c, 4, 58, 127
5, 41472, Note_on_c, 4, 62, 127
5, 41472, Note_on_c, 4, 65, 127
5, 41624, Note_off_c, 4, 58, 0
5, 41624, Note_off_c, 4, 62, 0
5, 41624, Note_off_c, 4, 65, 0
5, 41664, Note_on_c, 4, 58, 127
5, 41664, Note_on_c, 4, 62, 127
5, 41664, Note_on_c, 4, 65, 127
5, 42124, Note_off_c, 4, 58, 0
5, 42124, Note_off_c, 4, 62, 0
5, 42124, Note_off_c, 4, 65, 0
5, 42816, Note_on_c, 4, 58, 127
5, 42816, Note_on_c, 4, 62, 127
5, 43120, Note_off_c, 4, 58, 0
5, 43120, Note_off_c, 4, 62, 0
5, 43200, Note_on_c, 4, 58, 127
5, 43200, Note_on_c, 4, 62, 127
5, 43660, Note_off_c, 4, 58, 0
5, 43660, Note_off_c, 4, 62, 0
5, 43776, Note_on_c, 4, 60, 127
5, 43776, Note_on_c, 4, 72, 127
5, 44080, Note_off_c, 4, 60, 0
5, 44080, Note_off_c, 4, 72, 0
5, 44160, Note_on_c, 4, 58, 127
5, 44160, Note_on_c, 4, 70, 127
5, 44464, Note_off_c, 4, 58, 0
5, 44464, Note_off_c, 4, 70, 0
5, 44544, Note_on_c, 4, 58, 127
5, 44544, Note_on_c, 4, 62, 127
5, 44696, Note_off_c, 4, 58, 0
5, 44696, Note_off_c, 4, 62, 0
5, 44736, Note_on_c, 4, 62, 127
5, 44888, Note_off_c, 4, 62, 0
5, 44928, Note_on_c, 4, 62, 127
5, 45080, Note_off_c, 4, 62, 0
5, 45120, Note_on_c, 4, 62, 127
5, 45272, Note_off_c, 4, 62, 0
5, 45312, Note_on_c, 4, 65, 127
5, 45464, Note_off_c, 4, 65, 0
5, 45504, Note_on_c, 4, 67, 127
5, 45656, Note_off_c, 4, 67, 0
5, 45696, Note_on_c, 4, 65, 127
5, 45848, Note_off_c, 4, 65, 0
5, 45888, Note_on_c, 4, 60, 127
5, 45888, Note_on_c, 4, 65, 127
5, 46192, Note_off_c, 4, 60, 0
5, 46192, Note_off_c, 4, 65, 0
5, 46272, Note_on_c, 4, 60, 127
5, 46424, Note_off_c, 4, 60, 0
5, 46464, Note_on_c, 4, 60, 127
5, 46616, Note_off_c, 4, 60, 0
5, 46656, Note_on_c, 4, 60, 127
5, 46960, Note_off_c, 4, 60, 0
5, 47616, Note_on_c, 4, 64, 127
5, 47616, Note_on_c, 4, 67, 127
5, 47768, Note_off_c, 4, 64, 0
5, 47768, Note_off_c, 4, 67, 0
5, 48000, Note_on_c, 4, 60, 127
5, 48000, Note_on_c, 4, 64, 127
5, 48304, Note_off_c, 4, 60, 0
5, 48304, Note_off_c, 4, 64, 0
5, 49152, Note_on_c, 4, 55, 127
5, 49228, Note_off_c, 4, 55, 0
5, 49248, Note_on_c, 4, 55, 127
5, 49324, Note_off_c, 4, 55, 0
5, 49344, Note_on_c, 4, 57, 127
5, 49496, Note_off_c, 4, 57, 0
5, 49536, Note_on_c, 4, 60, 127
5, 49840, Note_off_c, 4, 60, 0
5, 49920, Note_on_c, 4, 55, 127
5, 49996, Note_off_c, 4, 55, 0
5, 50016, Note_on_c, 4, 55, 127
5, 50092, Note_off_c, 4, 55, 0
5, 50112, Note_on_c, 4, 57, 127
5, 50264, Note_off_c, 4, 57, 0
5, 50304, Note_on_c, 4, 60, 127
5, 50608, Note_off_c, 4, 60, 0
5, 50688, Note_on_c, 4, 62, 127
5, 50688, Note_on_c, 4, 65, 127
5, 50840, Note_off_c, 4, 62, 0
5, 50840, Note_off_c, 4, 65, 0
5, 50880, Note_on_c, 4, 57, 127
5, 50880, Note_on_c, 4, 62, 127
5, 51184, Note_off_c, 4, 57, 0
5, 51184, Note_off_c, 4, 62, 0
5, 51264, Note_on_c, 4, 57, 127
5, 51264, Note_on_c, 4, 62, 127
5, 51568, Note_off_c, 4, 57, 0
5, 51568, Note_off_c, 4, 62, 0
5, 51648, Note_on_c, 4, 62, 127
5, 51648, Note_on_c, 4, 65, 127
5, 51952, Note_off_c, 4, 62, 0
5, 51952, Note_off_c, 4, 65, 0
5, 52224, Note_on_c, 4, 60, 127
5, 52224, Note_on_c, 4, 64, 127
5, 52528, Note_off_c, 4, 60, 0
5, 52528, Note_off_c, 4, 64, 0
5, 53376, Note_on_c, 4, 60, 127
5, 53376, Note_on_c, 4, 64, 127
5, 53528, Note_off_c, 4, 60, 0
5, 53528, Note_off_c, 4, 64, 0
5, 53568, Note_on_c, 4, 58, 127
5, 53568, Note_on_c, 4, 62, 127
5, 54512, Note_off_c, 4, 58, 0
5, 54512, Note_off_c, 4, 62, 0
5, 55104, Note_on_c, 4, 58, 127
5, 55104, Note_on_c, 4, 62, 127
5, 55408, Note_off_c, 4, 58, 0
5, 55408, Note_off_c, 4, 62, 0
5, 55488, Note_on_c, 4, 58, 127
5, 55488, Note_on_c, 4, 62, 127
5, 55792, Note_off_c, 4, 58, 0
5, 55792, Note_off_c, 4, 62, 0
5, 56064, Note_on_c, 4, 60, 127
5, 56064, Note_on_c, 4, 64, 127
5, 56216, Note_off_c, 4, 60, 0
5, 56216, Note_off_c, 4, 64, 0
5, 56256, Note_on_c, 4, 67, 127
5, 56256, Note_on_c, 4, 60, 127
5, 56256, Note_on_c, 4, 64, 127
5, 56408, Note_off_c, 4, 67, 0
5, 56408, Note_off_c, 4, 60, 0
5, 56408, Note_off_c, 4, 64, 0
5, 56832, Note_on_c, 4, 62, 127
5, 56832, Note_on_c, 4, 65, 127
5, 56984, Note_off_c, 4, 62, 0
5, 56984, Note_off_c, 4, 65, 0
5, 57024, Note_on_c, 4, 57, 127
5, 57024, Note_on_c, 4, 62, 127
5, 57328, Note_off_c, 4, 57, 0
5, 57328, Note_off_c, 4, 62, 0
5, 57408, Note_on_c, 4, 57, 127
5, 57712, Note_off_c, 4, 57, 0
5, 57792, Note_on_c, 4, 62, 127
5, 57792, Note_on_c, 4, 65, 127
5, 58096, Note_off_c, 4, 62, 0
5, 58096, Note_off_c, 4, 65, 0
5, 58368, Note_on_c, 4, 60, 127
5, 58368, Note_on_c, 4, 64, 127
5, 58672, Note_off_c, 4, 60, 0
5, 58672, Note_off_c, 4, 64, 0
5, 59520, Note_on_c, 4, 60, 127
5, 59520, Note_on_c, 4, 64, 127
5, 59672, Note_off_c, 4, 60, 0
5, 59672, Note_off_c, 4, 64, 0
5, 59712, Note_on_c, 4, 58, 127
5, 59712, Note_on_c, 4, 62, 127
5, 60656, Note_off_c, 4, 58, 0
5, 60656, Note_off_c, 4, 62, 0
5, 61248, Note_on_c, 4, 58, 127
5, 61248, Note_on_c, 4, 62, 127
5, 61552, Note_off_c, 4, 58, 0
5, 61552, Note_off_c, 4, 62, 0
5, 61632, Note_on_c, 4, 58, 127
5, 61632, Note_on_c, 4, 62, 127
5, 61936, Note_off_c, 4, 58, 0
5, 61936, Note_off_c, 4, 62, 0
5, 62208, Note_on_c, 4, 60, 127
5, 62208, Note_on_c, 4, 64, 127
5, 62360, Note_off_c, 4, 60, 0
5, 62360, Note_off_c, 4, 64, 0
5, 62400, Note_on_c, 4, 60, 127
5, 62400, Note_on_c, 4, 64, 127
5, 62400, Note_on_c, 4, 67, 127
5, 62552, Note_off_c, 4, 60, 0
5, 62552, Note_off_c, 4, 64, 0
5, 62552, Note_off_c, 4, 67, 0
5, 69120, Note_on_c, 4, 60, 127
5, 69120, Note_on_c, 4, 65, 127
5, 70040, Note_off_c, 4, 60, 0
5, 70040, Note_off_c, 4, 65, 0
5, 70272, Note_on_c, 4, 60, 127
5, 70424, Note_off_c, 4, 60, 0
5, 70464, Note_on_c, 4, 57, 127
5, 70464, Note_on_c, 4, 60, 127
5, 70924, Note_off_c, 4, 57, 0
5, 70924, Note_off_c, 4, 60, 0
5, 71040, Note_on_c, 4, 57, 127
5, 71040, Note_on_c, 4, 65, 127
5, 71344, Note_off_c, 4, 57, 0
5, 71344, Note_off_c, 4, 65, 0
5, 71424, Note_on_c, 4, 60, 127
5, 71728, Note_off_c, 4, 60, 0
5, 71808, Note_on_c, 4, 65, 127
5, 72112, Note_off_c, 4, 65, 0
5, 72192, Note_on_c, 4, 60, 127
5, 72192, Note_on_c, 4, 64, 127
5, 72652, Note_off_c, 4, 60, 0
5, 72652, Note_off_c, 4, 64, 0
5, 72768, Note_on_c, 4, 60, 127
5, 72768, Note_on_c, 4, 64, 127
5, 72920, Note_off_c, 4, 60, 0
5, 72920, Note_off_c, 4, 64, 0
5, 72960, Note_on_c, 4, 60, 127
5, 72960, Note_on_c, 4, 64, 127
5, 73420, Note_off_c, 4, 60, 0
5, 73420, Note_off_c, 4, 64, 0
5, 73536, Note_on_c, 4, 60, 127
5, 73688, Note_off_c, 4, 60, 0
5, 73728, Note_on_c, 4, 60, 127
5, 73728, Note_on_c, 4, 64, 127
5, 73880, Note_off_c, 4, 60, 0
5, 73880, Note_off_c, 4, 64, 0
5, 73920, Note_on_c, 4, 60, 127
5, 73920, Note_on_c, 4, 64, 127
5, 74072, Note_off_c, 4, 60, 0
5, 74072, Note_off_c, 4, 64, 0
5, 74880, Note_on_c, 4, 60, 127
5, 74880, Note_on_c, 4, 64, 127
5, 75184, Note_off_c, 4, 60, 0
5, 75184, Note_off_c, 4, 64, 0
5, 75264, Note_on_c, 4, 62, 127
5, 75264, Note_on_c, 4, 65, 127
5, 76248, Note_off_c, 4, 62, 0
5, 76248, Note_off_c, 4, 65, 0
5, 76608, Note_on_c, 4, 57, 127
5, 76608, Note_on_c, 4, 62, 127
5, 77552, Note_off_c, 4, 57, 0
5, 77552, Note_off_c, 4, 62, 0
5, 77568, Note_on_c, 4, 62, 127
5, 77720, Note_off_c, 4, 62, 0
5, 77760, Note_on_c, 4, 62, 127
5, 77760, Note_on_c, 4, 65, 127
5, 78220, Note_off_c, 4, 62, 0
5, 78220, Note_off_c, 4, 65, 0
5, 78336, Note_on_c, 4, 62, 127
5, 78336, Note_on_c, 4, 65, 127
5, 78948, Note_off_c, 4, 62, 0
5, 78948, Note_off_c, 4, 65, 0
5, 79104, Note_on_c, 4, 62, 127
5, 79104, Note_on_c, 4, 65, 127
5, 79564, Note_off_c, 4, 62, 0
5, 79564, Note_off_c, 4, 65, 0
5, 79872, Note_on_c, 4, 58, 127
5, 79872, Note_on_c, 4, 62, 127
5, 80484, Note_off_c, 4, 58, 0
5, 80484, Note_off_c, 4, 62, 0
5, 80640, Note_on_c, 4, 53, 127
5, 80640, Note_on_c, 4, 58, 127
5, 81252, Note_off_c, 4, 53, 0
5, 81252, Note_off_c, 4, 58, 0
5, 81408, Note_on_c, 4, 60, 127
5, 81408, Note_on_c, 4, 65, 127
5, 82328, Note_off_c, 4, 60, 0
5, 82328, Note_off_c, 4, 65, 0
5, 82560, Note_on_c, 4, 60, 127
5, 82864, Note_off_c, 4, 60, 0
5, 82944, Note_on_c, 4, 57, 127
5, 82944, Note_on_c, 4, 60, 127
5, 83404, Note_off_c, 4, 57, 0
5, 83404, Note_off_c, 4, 60, 0
5, 83520, Note_on_c, 4, 60, 127
5, 83980, Note_off_c, 4, 60, 0
5, 84096, Note_on_c, 4, 65, 127
5, 84400, Note_off_c, 4, 65, 0
5, 84480, Note_on_c, 4, 60, 127
5, 84480, Note_on_c, 4, 64, 127
5, 84940, Note_off_c, 4, 60, 0
5, 84940, Note_off_c, 4, 64, 0
5, 85056, Note_on_c, 4, 60, 127
5, 85056, Note_on_c, 4, 64, 127
5, 85208, Note_off_c, 4, 60, 0
5, 85208, Note_off_c, 4, 64, 0
5, 85248, Note_on_c, 4, 60, 127
5, 85248, Note_on_c, 4, 64, 127
5, 85708, Note_off_c, 4, 60, 0
5, 85708, Note_off_c, 4, 64, 0
5, 85824, Note_on_c, 4, 60, 127
5, 85976, Note_off_c, 4, 60, 0
5, 86016, Note_on_c, 4, 60, 127
5, 86016, Note_on_c, 4, 64, 127
5, 86168, Note_off_c, 4, 60, 0
5, 86168, Note_off_c, 4, 64, 0
5, 86208, Note_on_c, 4, 60, 127
5, 86208, Note_on_c, 4, 64, 127
5, 86360, Note_off_c, 4, 60, 0
5, 86360, Note_off_c, 4, 64, 0
5, 87552, Note_on_c, 4, 62, 127
5, 87552, Note_on_c, 4, 65, 127
5, 88496, Note_off_c, 4, 62, 0
5, 88496, Note_off_c, 4, 65, 0
5, 88896, Note_on_c, 4, 58, 127
5, 88896, Note_on_c, 4, 62, 127
5, 89840, Note_off_c, 4, 58, 0
5, 89840, Note_off_c, 4, 62, 0
5, 89856, Note_on_c, 4, 62, 127
5, 90008, Note_off_c, 4, 62, 0
5, 90048, Note_on_c, 4, 62, 127
5, 90508, Note_off_c, 4, 62, 0
5, 90624, Note_on_c, 4, 64, 127
5, 90624, Note_on_c, 4, 67, 127
5, 91236, Note_off_c, 4, 64, 0
5, 91236, Note_off_c, 4, 67, 0
5, 91392, Note_on_c, 4, 60, 127
5, 91392, Note_on_c, 4, 64, 127
5, 91852, Note_off_c, 4, 60, 0
5, 91852, Note_off_c, 4, 64, 0
5, 92160, Note_on_c, 4, 58, 127
5, 92160, Note_on_c, 4, 60, 127
5, 92620, Note_off_c, 4, 58, 0
5, 92620, Note_off_c, 4, 60, 0
5, 92736, Note_on_c, 4, 53, 127
5, 92736, Note_on_c, 4, 58, 127
5, 93196, Note_off_c, 4, 53, 0
5, 93196, Note_off_c, 4, 58, 0
5, 93888, Note_on_c, 4, 62, 127
5, 94040, Note_off_c, 4, 62, 0
5, 94080, Note_on_c, 4, 62, 127
5, 94232, Note_off_c, 4, 62, 0
5, 94272, Note_on_c, 4, 62, 127
5, 94424, Note_off_c, 4, 62, 0
5, 94464, Note_on_c, 4, 65, 127
5, 94616, Note_off_c, 4, 65, 0
5, 94656, Note_on_c, 4, 67, 127
5, 94808, Note_off_c, 4, 67, 0
5, 94848, Note_on_c, 4, 65, 127
5, 95000, Note_off_c, 4, 65, 0
5, 95040, Note_on_c, 4, 60, 127
5, 95040, Note_on_c, 4, 65, 127
5, 95344, Note_off_c, 4, 60, 0
5, 95344, Note_off_c, 4, 65, 0
5, 95424, Note_on_c, 4, 60, 127
5, 95728, Note_off_c, 4, 60, 0
5, 95808, Note_on_c, 4, 60, 127
5, 95808, Note_on_c, 4, 65, 127
5, 96268, Note_off_c, 4, 60, 0
5, 96268, Note_off_c, 4, 65, 0
5, 96768, Note_on_c, 4, 58, 127
5, 96768, Note_on_c, 4, 62, 127
5, 96768, Note_on_c, 4, 65, 127
5, 96920, Note_off_c, 4, 58, 0
5, 96920, Note_off_c, 4, 62, 0
5, 96920, Note_off_c, 4, 65, 0
5, 96960, Note_on_c, 4, 58, 127
5, 96960, Note_on_c, 4, 62, 127
5, 96960, Note_on_c, 4, 65, 127
5, 97420, Note_off_c, 4, 58, 0
5, 97420, Note_off_c, 4, 62, 0
5, 97420, Note_off_c, 4, 65, 0
5, 98112, Note_on_c, 4, 58, 127
5, 98112, Note_on_c, 4, 62, 127
5, 98416, Note_off_c, 4, 58, 0
5, 98416, Note_off_c, 4, 62, 0
5, 98496, Note_on_c, 4, 58, 127
5, 98496, Note_on_c, 4, 62, 127
5, 98956, Note_off_c, 4, 58, 0
5, 98956, Note_off_c, 4, 62, 0
5, 99072, Note_on_c, 4, 60, 127
5, 99072, Note_on_c, 4, 72, 127
5, 99376, Note_off_c, 4, 60, 0
5, 99376, Note_off_c, 4, 72, 0
5, 99456, Note_on_c, 4, 58, 127
5, 99456, Note_on_c, 4, 70, 127
5, 99760, Note_off_c, 4, 58, 0
5, 99760, Note_off_c, 4, 70, 0
5, 99840, Note_on_c, 4, 58, 127
5, 99840, Note_on_c, 4, 62, 127
5, 99992, Note_off_c, 4, 58, 0
5, 99992, Note_off_c, 4, 62, 0
5, 100032, Note_on_c, 4, 62, 127
5, 100184, Note_off_c, 4, 62, 0
5, 100224, Note_on_c, 4, 62, 127
5, 100376, Note_off_c, 4, 62, 0
5, 100416, Note_on_c, 4, 62, 127
5, 100568, Note_off_c, 4, 62, 0
5, 100608, Note_on_c, 4, 65, 127
5, 100760, Note_off_c, 4, 65, 0
5, 100800, Note_on_c, 4, 67, 127
5, 100952, Note_off_c, 4, 67, 0
5, 100992, Note_on_c, 4, 65, 127
5, 101144, Note_off_c, 4, 65, 0
5, 101184, Note_on_c, 4, 60, 127
5, 101184, Note_on_c, 4, 65, 127
5, 101488, Note_off_c, 4, 60, 0
5, 101488, Note_off_c, 4, 65, 0
5, 101568, Note_on_c, 4, 60, 127
5, 101720, Note_off_c, 4, 60, 0
5, 101760, Note_on_c, 4, 60, 127
5, 101912, Note_off_c, 4, 60, 0
5, 101952, Note_on_c, 4, 60, 127
5, 102256, Note_off_c, 4, 60, 0
5, 102912, Note_on_c, 4, 64, 127
5, 102912, Note_on_c, 4, 67, 127
5, 103064, Note_off_c, 4, 64, 0
5, 103064, Note_off_c, 4, 67, 0
5, 103296, Note_on_c, 4, 60, 127
5, 103296, Note_on_c, 4, 64, 127
5, 103600, Note_off_c, 4, 60, 0
5, 103600, Note_off_c, 4, 64, 0
5, 104448, Note_on_c, 4, 55, 127
5, 104524, Note_off_c, 4, 55, 0
5, 104544, Note_on_c, 4, 55, 127
5, 104620, Note_off_c, 4, 55, 0
5, 104640, Note_on_c, 4, 57, 127
5, 104792, Note_off_c, 4, 57, 0
5, 104832, Note_on_c, 4, 60, 127
5, 105136, Note_off_c, 4, 60, 0
5, 105216, Note_on_c, 4, 55, 127
5, 105292, Note_off_c, 4, 55, 0
5, 105312, Note_on_c, 4, 55, 127
5, 105388, Note_off_c, 4, 55, 0
5, 105408, Note_on_c, 4, 57, 127
5, 105560, Note_off_c, 4, 57, 0
5, 105600, Note_on_c, 4, 60, 127
5, 105904, Note_off_c, 4, 60, 0
5, 105984, Note_on_c, 4, 62, 127
5, 105984, Note_on_c, 4, 65, 127
5, 106136, Note_off_c, 4, 62, 0
5, 106136, Note_off_c, 4, 65, 0
5, 106176, Note_on_c, 4, 57, 127
5, 106176, Note_on_c, 4, 62, 127
5, 106480, Note_off_c, 4, 57, 0
5, 106480, Note_off_c, 4, 62, 0
5, 106560, Note_on_c, 4, 57, 127
5, 106560, Note_on_c, 4, 62, 127
5, 106864, Note_off_c, 4, 57, 0
5, 106864, Note_off_c, 4, 62, 0
5, 106944, Note_on_c, 4, 62, 127
5, 106944, Note_on_c, 4, 65, 127
5, 107248, Note_off_c, 4, 62, 0
5, 107248, Note_off_c, 4, 65, 0
5, 107520, Note_on_c, 4, 60, 127
5, 107520, Note_on_c, 4, 64, 127
5, 107824, Note_off_c, 4, 60, 0
5, 107824, Note_off_c, 4, 64, 0
5, 108672, Note_on_c, 4, 60, 127
5, 108672, Note_on_c, 4, 64, 127
5, 108824, Note_off_c, 4, 60, 0
5, 108824, Note_off_c, 4, 64, 0
5, 108864, Note_on_c, 4, 58, 127
5, 108864, Note_on_c, 4, 62, 127
5, 109808, Note_off_c, 4, 58, 0
5, 109808, Note_off_c, 4, 62, 0
5, 110400, Note_on_c, 4, 58, 127
5, 110400, Note_on_c, 4, 62, 127
5, 110704, Note_off_c, 4, 58, 0
5, 110704, Note_off_c, 4, 62, 0
5, 110784, Note_on_c, 4, 58, 127
5, 110784, Note_on_c, 4, 62, 127
5, 111088, Note_off_c, 4, 58, 0
5, 111088, Note_off_c, 4, 62, 0
5, 111360, Note_on_c, 4, 60, 127
5, 111360, Note_on_c, 4, 64, 127
5, 111512, Note_off_c, 4, 60, 0
5, 111512, Note_off_c, 4, 64, 0
5, 111552, Note_on_c, 4, 67, 127
5, 111552, Note_on_c, 4, 60, 127
5, 111552, Note_on_c, 4, 64, 127
5, 111704, Note_off_c, 4, 67, 0
5, 111704, Note_off_c, 4, 60, 0
5, 111704, Note_off_c, 4, 64, 0
5, 112128, Note_on_c, 4, 62, 127
5, 112128, Note_on_c, 4, 65, 127
5, 112280, Note_off_c, 4, 62, 0
5, 112280, Note_off_c, 4, 65, 0
5, 112320, Note_on_c, 4, 57, 127
5, 112320, Note_on_c, 4, 62, 127
5, 112624, Note_off_c, 4, 57, 0
5, 112624, Note_off_c, 4, 62, 0
5, 112704, Note_on_c, 4, 57, 127
5, 113008, Note_off_c, 4, 57, 0
5, 113088, Note_on_c, 4, 62, 127
5, 113088, Note_on_c, 4, 65, 127
5, 113392, Note_off_c, 4, 62, 0
5, 113392, Note_off_c, 4, 65, 0
5, 113664, Note_on_c, 4, 60, 127
5, 113664, Note_on_c, 4, 64, 127
5, 113968, Note_off_c, 4, 60, 0
5, 113968, Note_off_c, 4, 64, 0
5, 114816, Note_on_c, 4, 60, 127
5, 114816, Note_on_c, 4, 64, 127
5, 114968, Note_off_c, 4, 60, 0
5, 114968, Note_off_c, 4, 64, 0
5, 115008, Note_on_c, 4, 58, 127
5, 115008, Note_on_c, 4, 62, 127
5, 115952, Note_off_c, 4, 58, 0
5, 115952, Note_off_c, 4, 62, 0
5, 116544, Note_on_c, 4, 58, 127
5, 116544, Note_on_c, 4, 62, 127
5, 116848, Note_off_c, 4, 58, 0
5, 116848, Note_off_c, 4, 62, 0
5, 116928, Note_on_c, 4, 58, 127
5, 116928, Note_on_c, 4, 62, 127
5, 117232, Note_off_c, 4, 58, 0
5, 117232, Note_off_c, 4, 62, 0
5, 117504, Note_on_c, 4, 60, 127
5, 117504, Note_on_c, 4, 64, 127
5, 117656, Note_off_c, 4, 60, 0
5, 117656, Note_off_c, 4, 64, 0
5, 117696, Note_on_c, 4, 60, 127
5, 117696, Note_on_c, 4, 64, 127
5, 117696, Note_on_c, 4, 67, 127
5, 117848, Note_off_c, 4, 60, 0
5, 117848, Note_off_c, 4, 64, 0
5, 117848, Note_off_c, 4, 67, 0
5, 118272, Note_on_c, 4, 62, 127
5, 118272, Note_on_c, 4, 65, 127
5, 118424, Note_off_c, 4, 62, 0
5, 118424, Note_off_c, 4, 65, 0
5, 118464, Note_on_c, 4, 57, 127
5, 118464, Note_on_c, 4, 62, 127
5, 118768, Note_off_c, 4, 57, 0
5, 118768, Note_off_c, 4, 62, 0
5, 118848, Note_on_c, 4, 57, 127
5, 119152, Note_off_c, 4, 57, 0
5, 119232, Note_on_c, 4, 62, 127
5, 119232, Note_on_c, 4, 65, 127
5, 119536, Note_off_c, 4, 62, 0
5, 119536, Note_off_c, 4, 65, 0
5, 119808, Note_on_c, 4, 60, 127
5, 119808, Note_on_c, 4, 64, 127
5, 120112, Note_off_c, 4, 60, 0
5, 120112, Note_off_c, 4, 64, 0
5, 120960, Note_on_c, 4, 60, 127
5, 120960, Note_on_c, 4, 64, 127
5, 121112, Note_off_c, 4, 60, 0
5, 121112, Note_off_c, 4, 64, 0
5, 121152, Note_on_c, 4, 58, 127
5, 121152, Note_on_c, 4, 62, 127
5, 122096, Note_off_c, 4, 58, 0
5, 122096, Note_off_c, 4, 62, 0
5, 122688, Note_on_c, 4, 58, 127
5, 122688, Note_on_c, 4, 62, 127
5, 122992, Note_off_c, 4, 58, 0
5, 122992, Note_off_c, 4, 62, 0
5, 123072, Note_on_c, 4, 58, 127
5, 123072, Note_on_c, 4, 62, 127
5, 123376, Note_off_c, 4, 58, 0
5, 123376, Note_off_c, 4, 62, 0
5, 123648, Note_on_c, 4, 60, 127
5, 123648, Note_on_c, 4, 64, 127
5, 123800, Note_off_c, 4, 60, 0
5, 123800, Note_off_c, 4, 64, 0
5, 123840, Note_on_c, 4, 60, 127
5, 123840, Note_on_c, 4, 64, 127
5, 123840, Note_on_c, 4, 67, 127
5, 123992, Note_off_c, 4, 60, 0
5, 123992, Note_off_c, 4, 64, 0
5, 123992, Note_off_c, 4, 67, 0
5, 124416, Note_on_c, 4, 62, 127
5, 124416, Note_on_c, 4, 65, 127
5, 124568, Note_off_c, 4, 62, 0
5, 124568, Note_off_c, 4, 65, 0
5, 124608, Note_on_c, 4, 57, 127
5, 124608, Note_on_c, 4, 62, 127
5, 124912, Note_off_c, 4, 57, 0
5, 124912, Note_off_c, 4, 62, 0
5, 124992, Note_on_c, 4, 57, 127
5, 125296, Note_off_c, 4, 57, 0
5, 125376, Note_on_c, 4, 62, 127
5, 125376, Note_on_c, 4, 65, 127
5, 125680, Note_off_c, 4, 62, 0
5, 125680, Note_off_c, 4, 65, 0
5, 125952, Note_on_c, 4, 60, 127
5, 125952, Note_on_c, 4, 64, 127
5, 126256, Note_off_c, 4, 60, 0
5, 126256, Note_off_c, 4, 64, 0
5, 127104, Note_on_c, 4, 60, 127
5, 127104, Note_on_c, 4, 64, 127
5, 127256, Note_off_c, 4, 60, 0
5, 127256, Note_off_c, 4, 64, 0
5, 127296, Note_on_c, 4, 58, 127
5, 127296, Note_on_c, 4, 62, 127
5, 128240, Note_off_c, 4, 58, 0
5, 128240, Note_off_c, 4, 62, 0
5, 129216, Note_on_c, 4, 58, 127
5, 129216, Note_on_c, 4, 62, 127
5, 129216, Note_on_c, 4, 65, 127
5, 129520, Note_off_c, 4, 58, 0
5, 129520, Note_off_c, 4, 62, 0
5, 129520, Note_off_c, 4, 65, 0
5, 129600, Note_on_c, 4, 58, 127
5, 129600, Note_on_c, 4, 62, 127
5, 129600, Note_on_c, 4, 65, 127
5, 129752, Note_off_c, 4, 58, 0
5, 129752, Note_off_c, 4, 62, 0
5, 129752, Note_off_c, 4, 65, 0
5, 129792, Note_on_c, 4, 60, 127
5, 129792, Note_on_c, 4, 64, 127
5, 129792, Note_on_c, 4, 67, 127
5, 129944, Note_off_c, 4, 60, 0
5, 129944, Note_off_c, 4, 64, 0
5, 129944, Note_off_c, 4, 67, 0
5, 129984, Note_on_c, 4, 60, 127
5, 129984, Note_on_c, 4, 64, 127
5, 129984, Note_on_c, 4, 67, 127
5, 130444, Note_off_c, 4, 60, 0
5, 130444, Note_off_c, 4, 64, 0
5, 130444, Note_off_c, 4, 67, 0
5, 148992, Note_on_c, 4, 60, 127
5, 148992, Note_on_c, 4, 65, 127
5, 149912, Note_off_c, 4, 60, 0
5, 149912, Note_off_c, 4, 65, 0
5, 150144, Note_on_c, 4, 60, 127
5, 150296, Note_off_c, 4, 60, 0
5, 150336, Note_on_c, 4, 57, 127
5, 150336, Note_on_c, 4, 60, 127
5, 150796, Note_off_c, 4, 57, 0
5, 150796, Note_off_c, 4, 60, 0
5, 150912, Note_on_c, 4, 57, 127
5, 150912, Note_on_c, 4, 65, 127
5, 151216, Note_off_c, 4, 57, 0
5, 151216, Note_off_c, 4, 65, 0
5, 151296, Note_on_c, 4, 60, 127
5, 151600, Note_off_c, 4, 60, 0
5, 151680, Note_on_c, 4, 65, 127
5, 151984, Note_off_c, 4, 65, 0
5, 152064, Note_on_c, 4, 60, 127
5, 152064, Note_on_c, 4, 64, 127
5, 152524, Note_off_c, 4, 60, 0
5, 152524, Note_off_c, 4, 64, 0
5, 152640, Note_on_c, 4, 60, 127
5, 152640, Note_on_c, 4, 64, 127
5, 152792, Note_off_c, 4, 60, 0
5, 152792, Note_off_c, 4, 64, 0
5, 152832, Note_on_c, 4, 60, 127
5, 152832, Note_on_c, 4, 64, 127
5, 153292, Note_off_c, 4, 60, 0
5, 153292, Note_off_c, 4, 64, 0
5, 153408, Note_on_c, 4, 60, 127
5, 153560, Note_off_c, 4, 60, 0
5, 153600, Note_on_c, 4, 60, 127
5, 153600, Note_on_c, 4, 64, 127
5, 153752, Note_off_c, 4, 60, 0
5, 153752, Note_off_c, 4, 64, 0
5, 153792, Note_on_c, 4, 60, 127
5, 153792, Note_on_c, 4, 64, 127
5, 153944, Note_off_c, 4, 60, 0
5, 153944, Note_off_c, 4, 64, 0
5, 154752, Note_on_c, 4, 60, 127
5, 154752, Note_on_c, 4, 64, 127
5, 155056, Note_off_c, 4, 60, 0
5, 155056, Note_off_c, 4, 64, 0
5, 155136, Note_on_c, 4, 62, 127
5, 155136, Note_on_c, 4, 65, 127
5, 156120, Note_off_c, 4, 62, 0
5, 156120, Note_off_c, 4, 65, 0
5, 156480, Note_on_c, 4, 57, 127
5, 156480, Note_on_c, 4, 62, 127
5, 157424, Note_off_c, 4, 57, 0
5, 157424, Note_off_c, 4, 62, 0
5, 157440, Note_on_c, 4, 62, 127
5, 157592, Note_off_c, 4, 62, 0
5, 157632, Note_on_c, 4, 62, 127
5, 157632, Note_on_c, 4, 65, 127
5, 158092, Note_off_c, 4, 62, 0
5, 158092, Note_off_c, 4, 65, 0
5, 158208, Note_on_c, 4, 62, 127
5, 158208, Note_on_c, 4, 65, 127
5, 158820, Note_off_c, 4, 62, 0
5, 158820, Note_off_c, 4, 65, 0
5, 158976, Note_on_c, 4, 62, 127
5, 158976, Note_on_c, 4, 65, 127
5, 159436, Note_off_c, 4, 62, 0
5, 159436, Note_off_c, 4, 65, 0
5, 159744, Note_on_c, 4, 58, 127
5, 159744, Note_on_c, 4, 62, 127
5, 160356, Note_off_c, 4, 58, 0
5, 160356, Note_off_c, 4, 62, 0
5, 160512, Note_on_c, 4, 53, 127
5, 160512, Note_on_c, 4, 58, 127
5, 161124, Note_off_c, 4, 53, 0
5, 161124, Note_off_c, 4, 58, 0
5, 161280, Note_on_c, 4, 60, 127
5, 161280, Note_on_c, 4, 65, 127
5, 162200, Note_off_c, 4, 60, 0
5, 162200, Note_off_c, 4, 65, 0
5, 162432, Note_on_c, 4, 60, 127
5, 162736, Note_off_c, 4, 60, 0
5, 162816, Note_on_c, 4, 57, 127
5, 162816, Note_on_c, 4, 60, 127
5, 163276, Note_off_c, 4, 57, 0
5, 163276, Note_off_c, 4, 60, 0
5, 163392, Note_on_c, 4, 60, 127
5, 163852, Note_off_c, 4, 60, 0
5, 163968, Note_on_c, 4, 65, 127
5, 164272, Note_off_c, 4, 65, 0
5, 164352, Note_on_c, 4, 60, 127
5, 164352, Note_on_c, 4, 64, 127
5, 164812, Note_off_c, 4, 60, 0
5, 164812, Note_off_c, 4, 64, 0
5, 164928, Note_on_c, 4, 60, 127
5, 164928, Note_on_c, 4, 64, 127
5, 165080, Note_off_c, 4, 60, 0
5, 165080, Note_off_c, 4, 64, 0
5, 165120, Note_on_c, 4, 60, 127
5, 165120, Note_on_c, 4, 64, 127
5, 165580, Note_off_c, 4, 60, 0
5, 165580, Note_off_c, 4, 64, 0
5, 165696, Note_on_c, 4, 60, 127
5, 165848, Note_off_c, 4, 60, 0
5, 165888, Note_on_c, 4, 60, 127
5, 165888, Note_on_c, 4, 64, 127
5, 166040, Note_off_c, 4, 60, 0
5, 166040, Note_off_c, 4, 64, 0
5, 166080, Note_on_c, 4, 60, 127
5, 166080, Note_on_c, 4, 64, 127
5, 166232, Note_off_c, 4, 60, 0
5, 166232, Note_off_c, 4, 64, 0
5, 167424, Note_on_c, 4, 62, 127
5, 167424, Note_on_c, 4, 65, 127
5, 168368, Note_off_c, 4, 62, 0
5, 168368, Note_off_c, 4, 65, 0
5, 168768, Note_on_c, 4, 58, 127
5, 168768, Note_on_c, 4, 62, 127
5, 169712, Note_off_c, 4, 58, 0
5, 169712, Note_off_c, 4, 62, 0
5, 169728, Note_on_c, 4, 62, 127
5, 169880, Note_off_c, 4, 62, 0
5, 169920, Note_on_c, 4, 62, 127
5, 170380, Note_off_c, 4, 62, 0
5, 170496, Note_on_c, 4, 64, 127
5, 170496, Note_on_c, 4, 67, 127
5, 171108, Note_off_c, 4, 64, 0
5, 171108, Note_off_c, 4, 67, 0
5, 171264, Note_on_c, 4, 60, 127
5, 171264, Note_on_c, 4, 64, 127
5, 171724, Note_off_c, 4, 60, 0
5, 171724, Note_off_c, 4, 64, 0
5, 172032, Note_on_c, 4, 58, 127
5, 172032, Note_on_c, 4, 60, 127
5, 172492, Note_off_c, 4, 58, 0
5, 172492, Note_off_c, 4, 60, 0
5, 172608, Note_on_c, 4, 53, 127
5, 172608, Note_on_c, 4, 58, 127
5, 173068, Note_off_c, 4, 53, 0
5, 173068, Note_off_c, 4, 58, 0
5, 173760, Note_on_c, 4, 62, 127
5, 173912, Note_off_c, 4, 62, 0
5, 173952, Note_on_c, 4, 62, 127
5, 174104, Note_off_c, 4, 62, 0
5, 174144, Note_on_c, 4, 62, 127
5, 174296, Note_off_c, 4, 62, 0
5, 174336, Note_on_c, 4, 65, 127
5, 174488, Note_off_c, 4, 65, 0
5, 174528, Note_on_c, 4, 67, 127
5, 174680, Note_off_c, 4, 67, 0
5, 174720, Note_on_c, 4, 65, 127
5, 174872, Note_off_c, 4, 65, 0
5, 174912, Note_on_c, 4, 60, 127
5, 174912, Note_on_c, 4, 65, 127
5, 175216, Note_off_c, 4, 60, 0
5, 175216, Note_off_c, 4, 65, 0
5, 175296, Note_on_c, 4, 60, 127
5, 175600, Note_off_c, 4, 60, 0
5, 175680, Note_on_c, 4, 60, 127
5, 175680, Note_on_c, 4, 65, 127
5, 176140, Note_off_c, 4, 60, 0
5, 176140, Note_off_c, 4, 65, 0
5, 176640, Note_on_c, 4, 58, 127
5, 176640, Note_on_c, 4, 62, 127
5, 176640, Note_on_c, 4, 65, 127
5, 176792, Note_off_c, 4, 58, 0
5, 176792, Note_off_c, 4, 62, 0
5, 176792, Note_off_c, 4, 65, 0
5, 176832, Note_on_c, 4, 58, 127
5, 176832, Note_on_c, 4, 62, 127
5, 176832, Note_on_c, 4, 65, 127
5, 177292, Note_off_c, 4, 58, 0
5, 177292, Note_off_c, 4, 62, 0
5, 177292, Note_off_c, 4, 65, 0
5, 177984, Note_on_c, 4, 58, 127
5, 177984, Note_on_c, 4, 62, 127
5, 178288, Note_off_c, 4, 58, 0
5, 178288, Note_off_c, 4, 62, 0
5, 178368, Note_on_c, 4, 58, 127
5, 178368, Note_on_c, 4, 62, 127
5, 178828, Note_off_c, 4, 58, 0
5, 178828, Note_off_c, 4, 62, 0
5, 178944, Note_on_c, 4, 60, 127
5, 178944, Note_on_c, 4, 72, 127
5, 179248, Note_off_c, 4, 60, 0
5, 179248, Note_off_c, 4, 72, 0
5, 179328, Note_on_c, 4, 58, 127
5, 179328, Note_on_c, 4, 70, 127
5, 179632, Note_off_c, 4, 58, 0
5, 179632, Note_off_c, 4, 70, 0
5, 179712, Note_on_c, 4, 58, 127
5, 179712, Note_on_c, 4, 62, 127
5, 179864, Note_off_c, 4, 58, 0
5, 179864, Note_off_c, 4, 62, 0
5, 179904, Note_on_c, 4, 62, 127
5, 180056, Note_off_c, 4, 62, 0
5, 180096, Note_on_c, 4, 62, 127
5, 180248, Note_off_c, 4, 62, 0
5, 180288, Note_on_c, 4, 62, 127
5, 180440, Note_off_c, 4, 62, 0
5, 180480, Note_on_c, 4, 65, 127
5, 180632, Note_off_c, 4, 65, 0
5, 180672, Note_on_c, 4, 67, 127
5, 180824, Note_off_c, 4, 67, 0
5, 180864, Note_on_c, 4, 65, 127
5, 181016, Note_off_c, 4, 65, 0
5, 181056, Note_on_c, 4, 60, 127
5, 181056, Note_on_c, 4, 65, 127
5, 181360, Note_off_c, 4, 60, 0
5, 181360, Note_off_c, 4, 65, 0
5, 181440, Note_on_c, 4, 60, 127
5, 181592, Note_off_c, 4, 60, 0
5, 181632, Note_on_c, 4, 60, 127
5, 181784, Note_off_c, 4, 60, 0
5, 181824, Note_on_c, 4, 60, 127
5, 182128, Note_off_c, 4, 60, 0
5, 182784, Note_on_c, 4, 64, 127
5, 182784, Note_on_c, 4, 67, 127
5, 182936, Note_off_c, 4, 64, 0
5, 182936, Note_off_c, 4, 67, 0
5, 183168, Note_on_c, 4, 60, 127
5, 183168, Note_on_c, 4, 64, 127
5, 183472, Note_off_c, 4, 60, 0
5, 183472, Note_off_c, 4, 64, 0
5, 184320, Note_on_c, 4, 55, 127
5, 184396, Note_off_c, 4, 55, 0
5, 184416, Note_on_c, 4, 55, 127
5, 184492, Note_off_c, 4, 55, 0
5, 184512, Note_on_c, 4, 57, 127
5, 184664, Note_off_c, 4, 57, 0
5, 184704, Note_on_c, 4, 60, 127
5, 185008, Note_off_c, 4, 60, 0
5, 185088, Note_on_c, 4, 55, 127
5, 185164, Note_off_c, 4, 55, 0
5, 185184, Note_on_c, 4, 55, 127
5, 185260, Note_off_c, 4, 55, 0
5, 185280, Note_on_c, 4, 57, 127
5, 185432, Note_off_c, 4, 57, 0
5, 185472, Note_on_c, 4, 60, 127
5, 185776, Note_off_c, 4, 60, 0
5, 185856, Note_on_c, 4, 62, 127
5, 185856, Note_on_c, 4, 65, 127
5, 186008, Note_off_c, 4, 62, 0
5, 186008, Note_off_c, 4, 65, 0
5, 186048, Note_on_c, 4, 57, 127
5, 186048, Note_on_c, 4, 62, 127
5, 186352, Note_off_c, 4, 57, 0
5, 186352, Note_off_c, 4, 62, 0
5, 186432, Note_on_c, 4, 57, 127
5, 186432, Note_on_c, 4, 62, 127
5, 186736, Note_off_c, 4, 57, 0
5, 186736, Note_off_c, 4, 62, 0
5, 186816, Note_on_c, 4, 62, 127
5, 186816, Note_on_c, 4, 65, 127
5, 187120, Note_off_c, 4, 62, 0
5, 187120, Note_off_c, 4, 65, 0
5, 187392, Note_on_c, 4, 60, 127
5, 187392, Note_on_c, 4, 64, 127
5, 187696, Note_off_c, 4, 60, 0
5, 187696, Note_off_c, 4, 64, 0
5, 188544, Note_on_c, 4, 60, 127
5, 188544, Note_on_c, 4, 64, 127
5, 188696, Note_off_c, 4, 60, 0
5, 188696, Note_off_c, 4, 64, 0
5, 188736, Note_on_c, 4, 58, 127
5, 188736, Note_on_c, 4, 62, 127
5, 189680, Note_off_c, 4, 58, 0
5, 189680, Note_off_c, 4, 62, 0
5, 190272, Note_on_c, 4, 58, 127
5, 190272, Note_on_c, 4, 62, 127
5, 190576, Note_off_c, 4, 58, 0
5, 190576, Note_off_c, 4, 62, 0
5, 190656, Note_on_c, 4, 58, 127
5, 190656, Note_on_c, 4, 62, 127
5, 190960, Note_off_c, 4, 58, 0
5, 190960, Note_off_c, 4, 62, 0
5, 191232, Note_on_c, 4, 60, 127
5, 191232, Note_on_c, 4, 64, 127
5, 191384, Note_off_c, 4, 60, 0
5, 191384, Note_off_c, 4, 64, 0
5, 191424, Note_on_c, 4, 67, 127
5, 191424, Note_on_c, 4, 60, 127
5, 191424, Note_on_c, 4, 64, 127
5, 191576, Note_off_c, 4, 67, 0
5, 191576, Note_off_c, 4, 60, 0
5, 191576, Note_off_c, 4, 64, 0
5, 192000, Note_on_c, 4, 62, 127
5, 192000, Note_on_c, 4, 65, 127
5, 192152, Note_off_c, 4, 62, 0
5, 192152, Note_off_c, 4, 65, 0
5, 192192, Note_on_c, 4, 57, 127
5, 192192, Note_on_c, 4, 62, 127
5, 192496, Note_off_c, 4, 57, 0
5, 192496, Note_off_c, 4, 62, 0
5, 192576, Note_on_c, 4, 57, 127
5, 192880, Note_off_c, 4, 57, 0
5, 192960, Note_on_c, 4, 62, 127
5, 192960, Note_on_c, 4, 65, 127
5, 193264, Note_off_c, 4, 62, 0
5, 193264, Note_off_c, 4, 65, 0
5, 193536, Note_on_c, 4, 60, 127
5, 193536, Note_on_c, 4, 64, 127
5, 193840, Note_off_c, 4, 60, 0
5, 193840, Note_off_c, 4, 64, 0
5, 194688, Note_on_c, 4, 60, 127
5, 194688, Note_on_c, 4, 64, 127
5, 194840, Note_off_c, 4, 60, 0
5, 194840, Note_off_c, 4, 64, 0
5, 194880, Note_on_c, 4, 58, 127
5, 194880, Note_on_c, 4, 62, 127
5, 195824, Note_off_c, 4, 58, 0
5, 195824, Note_off_c, 4, 62, 0
5, 196416, Note_on_c, 4, 58, 127
5, 196416, Note_on_c, 4, 62, 127
5, 196720, Note_off_c, 4, 58, 0
5, 196720, Note_off_c, 4, 62, 0
5, 196800, Note_on_c, 4, 58, 127
5, 196800, Note_on_c, 4, 62, 127
5, 197104, Note_off_c, 4, 58, 0
5, 197104, Note_off_c, 4, 62, 0
5, 197376, Note_on_c, 4, 60, 127
5, 197376, Note_on_c, 4, 64, 127
5, 197528, Note_off_c, 4, 60, 0
5, 197528, Note_off_c, 4, 64, 0
5, 197568, Note_on_c, 4, 60, 127
5, 197568, Note_on_c, 4, 64, 127
5, 197568, Note_on_c, 4, 67, 127
5, 197720, Note_off_c, 4, 60, 0
5, 197720, Note_off_c, 4, 64, 0
5, 197720, Note_off_c, 4, 67, 0
5, 198144, Note_on_c, 4, 62, 127
5, 198144, Note_on_c, 4, 65, 127
5, 198296, Note_off_c, 4, 62, 0
5, 198296, Note_off_c, 4, 65, 0
5, 198336, Note_on_c, 4, 57, 127
5, 198336, Note_on_c, 4, 62, 127
5, 198640, Note_off_c, 4, 57, 0
5, 198640, Note_off_c, 4, 62, 0
5, 198720, Note_on_c, 4, 57, 127
5, 199024, Note_off_c, 4, 57, 0
5, 199104, Note_on_c, 4, 62, 127
5, 199104, Note_on_c, 4, 65, 127
5, 199408, Note_off_c, 4, 62, 0
5, 199408, Note_off_c, 4, 65, 0
5, 199680, Note_on_c, 4, 60, 127
5, 199680, Note_on_c, 4, 64, 127
5, 199984, Note_off_c, 4, 60, 0
5, 199984, Note_off_c, 4, 64, 0
5, 200832, Note_on_c, 4, 60, 127
5, 200832, Note_on_c, 4, 64, 127
5, 200984, Note_off_c, 4, 60, 0
5, 200984, Note_off_c, 4, 64, 0
5, 201024, Note_on_c, 4, 58, 127
5, 201024, Note_on_c, 4, 62, 127
5, 201968, Note_off_c, 4, 58, 0
5, 201968, Note_off_c, 4, 62, 0
5, 202560, Note_on_c, 4, 58, 127
5, 202560, Note_on_c, 4, 62, 127
5, 202864, Note_off_c, 4, 58, 0
5, 202864, Note_off_c, 4, 62, 0
5, 202944, Note_on_c, 4, 58, 127
5, 202944, Note_on_c, 4, 62, 127
5, 203248, Note_off_c, 4, 58, 0
5, 203248, Note_off_c, 4, 62, 0
5, 203520, Note_on_c, 4, 60, 127
5, 203520, Note_on_c, 4, 64, 127
5, 203672, Note_off_c, 4, 60, 0
5, 203672, Note_off_c, 4, 64, 0
5, 203712, Note_on_c, 4, 60, 127
5, 203712, Note_on_c, 4, 64, 127
5, 203712, Note_on_c, 4, 67, 127
5, 203864, Note_off_c, 4, 60, 0
5, 203864, Note_off_c, 4, 64, 0
5, 203864, Note_off_c, 4, 67, 0
5, 204288, Note_on_c, 4, 62, 127
5, 204288, Note_on_c, 4, 65, 127
5, 204440, Note_off_c, 4, 62, 0
5, 204440, Note_off_c, 4, 65, 0
5, 204480, Note_on_c, 4, 57, 127
5, 204480, Note_on_c, 4, 62, 127
5, 204784, Note_off_c, 4, 57, 0
5, 204784, Note_off_c, 4, 62, 0
5, 204864, Note_on_c, 4, 57, 127
5, 205168, Note_off_c, 4, 57, 0
5, 205248, Note_on_c, 4, 62, 127
5, 205248, Note_on_c, 4, 65, 127
5, 205552, Note_off_c, 4, 62, 0
5, 205552, Note_off_c, 4, 65, 0
5, 205824, Note_on_c, 4, 60, 127
5, 205824, Note_on_c, 4, 64, 127
5, 206128, Note_off_c, 4, 60, 0
5, 206128, Note_off_c, 4, 64, 0
5, 206976, Note_on_c, 4, 60, 127
5, 206976, Note_on_c, 4, 64, 127
5, 207128, Note_off_c, 4, 60, 0
5, 207128, Note_off_c, 4, 64, 0
5, 207168, Note_on_c, 4, 58, 127
5, 207168, Note_on_c, 4, 62, 127
5, 208112, Note_off_c, 4, 58, 0
5, 208112, Note_off_c, 4, 62, 0
5, 209088, Note_on_c, 4, 58, 127
5, 209088, Note_on_c, 4, 62, 127
5, 209088, Note_on_c, 4, 65, 127
5, 209392, Note_off_c, 4, 58, 0
5, 209392, Note_off_c, 4, 62, 0
5, 209392, Note_off_c, 4, 65, 0
5, 209472, Note_on_c, 4, 58, 127
5, 209472, Note_on_c, 4, 62, 127
5, 209472, Note_on_c, 4, 65, 127
5, 209624, Note_off_c, 4, 58, 0
5, 209624, Note_off_c, 4, 62, 0
5, 209624, Note_off_c, 4, 65, 0
5, 209664, Note_on_c, 4, 60, 127
5, 209664, Note_on_c, 4, 64, 127
5, 209664, Note_on_c, 4, 67, 127
5, 209816, Note_off_c, 4, 60, 0
5, 209816, Note_off_c, 4, 64, 0
5, 209816, Note_off_c, 4, 67, 0
5, 209856, Note_on_c, 4, 60, 127
5, 209856, Note_on_c, 4, 64, 127
5, 209856, Note_on_c, 4, 67, 127
5, 210316, Note_off_c, 4, 60, 0
5, 210316, Note_off_c, 4, 64, 0
5, 210316, Note_off_c, 4, 67, 0
5, 210316, End_track
6, 0, Start_track
6, 0, Title_t, "Sax"
6, 0, Control_c, 5, 0, 0
6, 0, Program_c, 5, 67
6, 0, Control_c, 5, 7, 100
6, 0, Control_c, 5, 10, 87
6, 0, Key_signature, -1, "major"
6, 0, Program_c, 5, 65
6, 48384, Note_on_c, 5, 67, 90
6, 48384, Note_on_c, 5, 64, 90
6, 48384, Note_on_c, 5, 60, 90
6, 48384, Note_on_c, 5, 72, 115
6, 48688, Note_off_c, 5, 67, 0
6, 48688, Note_off_c, 5, 64, 0
6, 48688, Note_off_c, 5, 60, 0
6, 48688, Note_off_c, 5, 72, 0
6, 48768, Note_on_c, 5, 60, 90
6, 48768, Note_on_c, 5, 64, 90
6, 48768, Note_on_c, 5, 67, 90
6, 48768, Note_on_c, 5, 57, 90
6, 48768, Note_on_c, 5, 69, 115
6, 49072, Note_off_c, 5, 60, 0
6, 49072, Note_off_c, 5, 64, 0
6, 49072, Note_off_c, 5, 67, 0
6, 49152, Note_on_c, 5, 60, 90
6, 49152, Note_on_c, 5, 64, 90
6, 49152, Note_on_c, 5, 67, 90
6, 49152, Note_on_c, 5, 57, 90
6, 49152, Note_on_c, 5, 69, 115
6, 49228, Note_off_c, 5, 57, 0
6, 49228, Note_off_c, 5, 69, 0
6, 49304, Note_off_c, 5, 60, 0
6, 49304, Note_off_c, 5, 64, 0
6, 49304, Note_off_c, 5, 67, 0
6, 49304, Note_off_c, 5, 57, 0
6, 49304, Note_off_c, 5, 69, 0
6, 49344, Note_on_c, 5, 64, 90
6, 49344, Note_on_c, 5, 60, 90
6, 49344, Note_on_c, 5, 55, 90
6, 49344, Note_on_c, 5, 67, 115
6, 49804, Note_off_c, 5, 55, 0
6, 49804, Note_off_c, 5, 67, 0
6, 50416, Note_off_c, 5, 64, 0
6, 50416, Note_off_c, 5, 60, 0
6, 103680, Note_on_c, 5, 67, 90
6, 103680, Note_on_c, 5, 64, 90
6, 103680, Note_on_c, 5, 60, 90
6, 103680, Note_on_c, 5, 72, 115
6, 103984, Note_off_c, 5, 67, 0
6, 103984, Note_off_c, 5, 64, 0
6, 103984, Note_off_c, 5, 60, 0
6, 103984, Note_off_c, 5, 72, 0
6, 104064, Note_on_c, 5, 60, 90
6, 104064, Note_on_c, 5, 64, 90
6, 104064, Note_on_c, 5, 67, 90
6, 104064, Note_on_c, 5, 57, 90
6, 104064, Note_on_c, 5, 69, 115
6, 104368, Note_off_c, 5, 60, 0
6, 104368, Note_off_c, 5, 64, 0
6, 104368, Note_off_c, 5, 67, 0
6, 104448, Note_on_c, 5, 60, 90
6, 104448, Note_on_c, 5, 64, 90
6, 104448, Note_on_c, 5, 67, 90
6, 104448, Note_on_c, 5, 57, 90
6, 104448, Note_on_c, 5, 69, 115
6, 104524, Note_off_c, 5, 57, 0
6, 104524, Note_off_c, 5, 69, 0
6, 104600, Note_off_c, 5, 60, 0
6, 104600, Note_off_c, 5, 64, 0
6, 104600, Note_off_c, 5, 67, 0
6, 104600, Note_off_c, 5, 57, 0
6, 104600, Note_off_c, 5, 69, 0
6, 104640, Note_on_c, 5, 64, 90
6, 104640, Note_on_c, 5, 60, 90
6, 104640, Note_on_c, 5, 55, 90
6, 104640, Note_on_c, 5, 67, 115
6, 105100, Note_off_c, 5, 55, 0
6, 105100, Note_off_c, 5, 67, 0
6, 105712, Note_off_c, 5, 64, 0
6, 105712, Note_off_c, 5, 60, 0
6, 136320, Note_on_c, 5, 58, 127
6, 136416, Note_on_c, 5, 60, 127
6, 136492, Note_off_c, 5, 60, 0
6, 136512, Note_on_c, 5, 62, 127
6, 136588, Note_off_c, 5, 62, 0
6, 136608, Note_on_c, 5, 64, 127
6, 136624, Note_off_c, 5, 58, 0
6, 136684, Note_off_c, 5, 64, 0
6, 136704, Note_on_c, 5, 60, 90
6, 136704, Note_on_c, 5, 57, 90
6, 136704, Note_on_c, 5, 65, 127
6, 137280, Note_on_c, 5, 69, 90
6, 137316, Note_off_c, 5, 60, 0
6, 137316, Note_off_c, 5, 57, 0
6, 137316, Note_off_c, 5, 65, 0
6, 137356, Note_off_c, 5, 69, 0
6, 137376, Note_on_c, 5, 69, 90
6, 137376, Note_on_c, 5, 57, 90
6, 137376, Note_on_c, 5, 60, 90
6, 137376, Note_on_c, 5, 65, 115
6, 137452, Note_off_c, 5, 69, 0
6, 137452, Note_off_c, 5, 57, 0
6, 137452, Note_off_c, 5, 60, 0
6, 137452, Note_off_c, 5, 65, 0
6, 137472, Note_on_c, 5, 53, 90
6, 137472, Note_on_c, 5, 59, 90
6, 137472, Note_on_c, 5, 62, 127
6, 137624, Note_off_c, 5, 53, 0
6, 137624, Note_off_c, 5, 59, 0
6, 137624, Note_off_c, 5, 62, 0
6, 137664, Note_on_c, 5, 57, 90
6, 137664, Note_on_c, 5, 53, 90
6, 137664, Note_on_c, 5, 60, 127
6, 137816, Note_off_c, 5, 57, 0
6, 137816, Note_off_c, 5, 53, 0
6, 137816, Note_off_c, 5, 60, 0
6, 137856, Note_on_c, 5, 53, 90
6, 137856, Note_on_c, 5, 59, 90
6, 137856, Note_on_c, 5, 62, 127
6, 138160, Note_off_c, 5, 53, 0
6, 138160, Note_off_c, 5, 59, 0
6, 138160, Note_off_c, 5, 62, 0
6, 138240, Note_on_c, 5, 57, 90
6, 138240, Note_on_c, 5, 60, 90
6, 138240, Note_on_c, 5, 65, 127
6, 138852, Note_off_c, 5, 57, 0
6, 138852, Note_off_c, 5, 60, 0
6, 138852, Note_off_c, 5, 65, 0
6, 139008, Note_on_c, 5, 55, 90
6, 139008, Note_on_c, 5, 60, 90
6, 139008, Note_on_c, 5, 67, 127
6, 139160, Note_off_c, 5, 55, 0
6, 139160, Note_off_c, 5, 60, 0
6, 139160, Note_off_c, 5, 67, 0
6, 139200, Note_on_c, 5, 55, 90
6, 139200, Note_on_c, 5, 60, 90
6, 139200, Note_on_c, 5, 67, 127
6, 139812, Note_off_c, 5, 55, 0
6, 139812, Note_off_c, 5, 60, 0
6, 139812, Note_off_c, 5, 67, 0
6, 140736, Note_on_c, 5, 60, 127
6, 140812, Note_off_c, 5, 60, 0
6, 140832, Note_on_c, 5, 64, 127
6, 140908, Note_off_c, 5, 64, 0
6, 140928, Note_on_c, 5, 60, 90
6, 140928, Note_on_c, 5, 64, 90
6, 140928, Note_on_c, 5, 67, 127
6, 141232, Note_off_c, 5, 60, 0
6, 141232, Note_off_c, 5, 64, 0
6, 141232, Note_off_c, 5, 67, 0
6, 141504, Note_on_c, 5, 60, 127
6, 141580, Note_off_c, 5, 60, 0
6, 141600, Note_on_c, 5, 64, 127
6, 141676, Note_off_c, 5, 64, 0
6, 141696, Note_on_c, 5, 60, 90
6, 141696, Note_on_c, 5, 64, 90
6, 141696, Note_on_c, 5, 67, 127
6, 142000, Note_off_c, 5, 60, 0
6, 142000, Note_off_c, 5, 64, 0
6, 142000, Note_off_c, 5, 67, 0
6, 142272, Note_on_c, 5, 60, 127
6, 142348, Note_off_c, 5, 60, 0
6, 142368, Note_on_c, 5, 64, 127
6, 142444, Note_off_c, 5, 64, 0
6, 142464, Note_on_c, 5, 60, 90
6, 142464, Note_on_c, 5, 64, 90
6, 142464, Note_on_c, 5, 67, 127
6, 142848, Note_off_c, 5, 60, 0
6, 142848, Note_off_c, 5, 64, 0
6, 142848, Note_off_c, 5, 67, 0
6, 142848, Note_on_c, 5, 65, 127
6, 142848, Note_on_c, 5, 69, 127
6, 142848, Note_on_c, 5, 74, 127
6, 143232, Note_on_c, 5, 69, 127
6, 143232, Note_on_c, 5, 74, 127
6, 143232, Note_on_c, 5, 77, 127
6, 143308, Note_off_c, 5, 65, 0
6, 143308, Note_off_c, 5, 69, 0
6, 143308, Note_off_c, 5, 74, 0
6, 143424, Note_on_c, 5, 74, 127
6, 143424, Note_on_c, 5, 77, 127
6, 143424, Note_on_c, 5, 81, 127
6, 143460, Note_off_c, 5, 69, 0
6, 143460, Note_off_c, 5, 74, 0
6, 143460, Note_off_c, 5, 77, 0
6, 143616, Note_on_c, 5, 72, 127
6, 143616, Note_on_c, 5, 76, 127
6, 143616, Note_on_c, 5, 79, 127
6, 143652, Note_off_c, 5, 74, 0
6, 143652, Note_off_c, 5, 77, 0
6, 143652, Note_off_c, 5, 81, 0
6, 144000, Note_on_c, 5, 67, 127
6, 144000, Note_on_c, 5, 72, 127
6, 144000, Note_on_c, 5, 76, 127
6, 144076, Note_off_c, 5, 72, 0
6, 144076, Note_off_c, 5, 76, 0
6, 144076, Note_off_c, 5, 79, 0
6, 144192, Note_on_c, 5, 64, 127
6, 144192, Note_on_c, 5, 67, 127
6, 144192, Note_on_c, 5, 72, 127
6, 144228, Note_off_c, 5, 67, 0
6, 144228, Note_off_c, 5, 72, 0
6, 144228, Note_off_c, 5, 76, 0
6, 144384, Note_off_c, 5, 64, 0
6, 144384, Note_off_c, 5, 67, 0
6, 144384, Note_off_c, 5, 72, 0
6, 144384, Note_on_c, 5, 65, 127
6, 144384, Note_on_c, 5, 70, 127
6, 144384, Note_on_c, 5, 74, 127
6, 145612, Note_off_c, 5, 65, 0
6, 145612, Note_off_c, 5, 70, 0
6, 145612, Note_off_c, 5, 74, 0
6, 145920, Note_on_c, 5, 67, 127
6, 145920, Note_on_c, 5, 64, 127
6, 145920, Note_on_c, 5, 60, 127
6, 146072, Note_off_c, 5, 67, 0
6, 146072, Note_off_c, 5, 64, 0
6, 146072, Note_off_c, 5, 60, 0
6, 146112, Note_on_c, 5, 67, 127
6, 146112, Note_on_c, 5, 64, 127
6, 146112, Note_on_c, 5, 60, 127
6, 146264, Note_off_c, 5, 67, 0
6, 146264, Note_off_c, 5, 64, 0
6, 146264, Note_off_c, 5, 60, 0
6, 146688, Note_on_c, 5, 67, 127
6, 146688, Note_on_c, 5, 64, 127
6, 146688, Note_on_c, 5, 60, 127
6, 146840, Note_off_c, 5, 67, 0
6, 146840, Note_off_c, 5, 64, 0
6, 146840, Note_off_c, 5, 60, 0
6, 146880, Note_on_c, 5, 67, 127
6, 146880, Note_on_c, 5, 64, 127
6, 146880, Note_on_c, 5, 60, 127
6, 147032, Note_off_c, 5, 67, 0
6, 147032, Note_off_c, 5, 64, 0
6, 147032, Note_off_c, 5, 60, 0
6, 147456, Note_on_c, 5, 67, 127
6, 147456, Note_on_c, 5, 64, 127
6, 147456, Note_on_c, 5, 60, 127
6, 147608, Note_off_c, 5, 67, 0
6, 147608, Note_off_c, 5, 64, 0
6, 147608, Note_off_c, 5, 60, 0
6, 147648, Note_on_c, 5, 67, 127
6, 147648, Note_on_c, 5, 64, 127
6, 147648, Note_on_c, 5, 60, 127
6, 147800, Note_off_c, 5, 67, 0
6, 147800, Note_off_c, 5, 64, 0
6, 147800, Note_off_c, 5, 60, 0
6, 148224, Note_on_c, 5, 67, 127
6, 148224, Note_on_c, 5, 64, 127
6, 148224, Note_on_c, 5, 60, 127
6, 148376, Note_off_c, 5, 67, 0
6, 148376, Note_off_c, 5, 64, 0
6, 148376, Note_off_c, 5, 60, 0
6, 148416, Note_on_c, 5, 67, 127
6, 148416, Note_on_c, 5, 64, 127
6, 148416, Note_on_c, 5, 60, 127
6, 148568, Note_off_c, 5, 67, 0
6, 148568, Note_off_c, 5, 64, 0
6, 148568, Note_off_c, 5, 60, 0
6, 183552, Note_on_c, 5, 67, 90
6, 183552, Note_on_c, 5, 64, 90
6, 183552, Note_on_c, 5, 60, 90
6, 183552, Note_on_c, 5, 72, 115
6, 183856, Note_off_c, 5, 67, 0
6, 183856, Note_off_c, 5, 64, 0
6, 183856, Note_off_c, 5, 60, 0
6, 183856, Note_off_c, 5, 72, 0
6, 183936, Note_on_c, 5, 60, 90
6, 183936, Note_on_c, 5, 64, 90
6, 183936, Note_on_c, 5, 67, 90
6, 183936, Note_on_c, 5, 57, 90
6, 183936, Note_on_c, 5, 69, 115
6, 184240, Note_off_c, 5, 60, 0
6, 184240, Note_off_c, 5, 64, 0
6, 184240, Note_off_c, 5, 67, 0
6, 184320, Note_on_c, 5, 60, 90
6, 184320, Note_on_c, 5, 64, 90
6, 184320, Note_on_c, 5, 67, 90
6, 184320, Note_on_c, 5, 57, 90
6, 184320, Note_on_c, 5, 69, 115
6, 184396, Note_off_c, 5, 57, 0
6, 184396, Note_off_c, 5, 69, 0
6, 184472, Note_off_c, 5, 60, 0
6, 184472, Note_off_c, 5, 64, 0
6, 184472, Note_off_c, 5, 67, 0
6, 184472, Note_off_c, 5, 57, 0
6, 184472, Note_off_c, 5, 69, 0
6, 184512, Note_on_c, 5, 64, 90
6, 184512, Note_on_c, 5, 60, 90
6, 184512, Note_on_c, 5, 55, 90
6, 184512, Note_on_c, 5, 67, 115
6, 184972, Note_off_c, 5, 55, 0
6, 184972, Note_off_c, 5, 67, 0
6, 185584, Note_off_c, 5, 64, 0
6, 185584, Note_off_c, 5, 60, 0
6, 185584, End_track
7, 0, Start_track
7, 0, Title_t, "Sax 2"
7, 0, Control_c, 6, 0, 0
7, 0, Program_c, 6, 66
7, 0, Control_c, 6, 7, 100
7, 0, Control_c, 6, 10, 51
7, 0, Key_signature, -1, "major"
7, 0, Program_c, 6, 63
7, 136320, Note_on_c, 6, 58, 127
7, 136416, Note_on_c, 6, 60, 127
7, 136492, Note_off_c, 6, 60, 0
7, 136512, Note_on_c, 6, 62, 127
7, 136588, Note_off_c, 6, 62, 0
7, 136608, Note_on_c, 6, 64, 127
7, 136624, Note_off_c, 6, 58, 0
7, 136684, Note_off_c, 6, 64, 0
7, 136704, Note_on_c, 6, 60, 90
7, 136704, Note_on_c, 6, 57, 90
7, 136704, Note_on_c, 6, 65, 127
7, 137280, Note_on_c, 6, 69, 90
7, 137316, Note_off_c, 6, 60, 0
7, 137316, Note_off_c, 6, 57, 0
7, 137316, Note_off_c, 6, 65, 0
7, 137356, Note_off_c, 6, 69, 0
7, 137376, Note_on_c, 6, 69, 90
7, 137376, Note_on_c, 6, 57, 90
7, 137376, Note_on_c, 6, 60, 90
7, 137376, Note_on_c, 6, 65, 115
7, 137452, Note_off_c, 6, 69, 0
7, 137452, Note_off_c, 6, 57, 0
7, 137452, Note_off_c, 6, 60, 0
7, 137452, Note_off_c, 6, 65, 0
7, 137472, Note_on_c, 6, 53, 90
7, 137472, Note_on_c, 6, 59, 90
7, 137472, Note_on_c, 6, 62, 127
7, 137624, Note_off_c, 6, 53, 0
7, 137624, Note_off_c, 6, 59, 0
7, 137624, Note_off_c, 6, 62, 0
7, 137664, Note_on_c, 6, 57, 90
7, 137664, Note_on_c, 6, 53, 90
7, 137664, Note_on_c, 6, 60, 127
7, 137816, Note_off_c, 6, 57, 0
7, 137816, Note_off_c, 6, 53, 0
7, 137816, Note_off_c, 6, 60, 0
7, 137856, Note_on_c, 6, 53, 90
7, 137856, Note_on_c, 6, 59, 90
7, 137856, Note_on_c, 6, 62, 127
7, 138160, Note_off_c, 6, 53, 0
7, 138160, Note_off_c, 6, 59, 0
7, 138160, Note_off_c, 6, 62, 0
7, 138240, Note_on_c, 6, 57, 90
7, 138240, Note_on_c, 6, 60, 90
7, 138240, Note_on_c, 6, 65, 127
7, 138852, Note_off_c, 6, 57, 0
7, 138852, Note_off_c, 6, 60, 0
7, 138852, Note_off_c, 6, 65, 0
7, 139008, Note_on_c, 6, 55, 90
7, 139008, Note_on_c, 6, 60, 90
7, 139008, Note_on_c, 6, 67, 127
7, 139160, Note_off_c, 6, 55, 0
7, 139160, Note_off_c, 6, 60, 0
7, 139160, Note_off_c, 6, 67, 0
7, 139200, Note_on_c, 6, 55, 90
7, 139200, Note_on_c, 6, 60, 90
7, 139200, Note_on_c, 6, 67, 127
7, 139812, Note_off_c, 6, 55, 0
7, 139812, Note_off_c, 6, 60, 0
7, 139812, Note_off_c, 6, 67, 0
7, 140736, Note_on_c, 6, 60, 127
7, 140812, Note_off_c, 6, 60, 0
7, 140832, Note_on_c, 6, 64, 127
7, 140908, Note_off_c, 6, 64, 0
7, 140928, Note_on_c, 6, 60, 90
7, 140928, Note_on_c, 6, 64, 90
7, 140928, Note_on_c, 6, 67, 127
7, 141232, Note_off_c, 6, 60, 0
7, 141232, Note_off_c, 6, 64, 0
7, 141232, Note_off_c, 6, 67, 0
7, 141504, Note_on_c, 6, 60, 127
7, 141580, Note_off_c, 6, 60, 0
7, 141600, Note_on_c, 6, 64, 127
7, 141676, Note_off_c, 6, 64, 0
7, 141696, Note_on_c, 6, 60, 90
7, 141696, Note_on_c, 6, 64, 90
7, 141696, Note_on_c, 6, 67, 127
7, 142000, Note_off_c, 6, 60, 0
7, 142000, Note_off_c, 6, 64, 0
7, 142000, Note_off_c, 6, 67, 0
7, 142272, Note_on_c, 6, 60, 127
7, 142348, Note_off_c, 6, 60, 0
7, 142368, Note_on_c, 6, 64, 127
7, 142444, Note_off_c, 6, 64, 0
7, 142464, Note_on_c, 6, 60, 90
7, 142464, Note_on_c, 6, 64, 90
7, 142464, Note_on_c, 6, 67, 127
7, 142848, Note_off_c, 6, 60, 0
7, 142848, Note_off_c, 6, 64, 0
7, 142848, Note_off_c, 6, 67, 0
7, 142848, Note_on_c, 6, 65, 127
7, 142848, Note_on_c, 6, 69, 127
7, 142848, Note_on_c, 6, 74, 127
7, 143232, Note_on_c, 6, 69, 127
7, 143232, Note_on_c, 6, 74, 127
7, 143232, Note_on_c, 6, 77, 127
7, 143308, Note_off_c, 6, 65, 0
7, 143308, Note_off_c, 6, 69, 0
7, 143308, Note_off_c, 6, 74, 0
7, 143424, Note_on_c, 6, 74, 127
7, 143424, Note_on_c, 6, 77, 127
7, 143424, Note_on_c, 6, 81, 127
7, 143460, Note_off_c, 6, 69, 0
7, 143460, Note_off_c, 6, 74, 0
7, 143460, Note_off_c, 6, 77, 0
7, 143616, Note_on_c, 6, 72, 127
7, 143616, Note_on_c, 6, 76, 127
7, 143616, Note_on_c, 6, 79, 127
7, 143652, Note_off_c, 6, 74, 0
7, 143652, Note_off_c, 6, 77, 0
7, 143652, Note_off_c, 6, 81, 0
7, 144000, Note_on_c, 6, 67, 127
7, 144000, Note_on_c, 6, 72, 127
7, 144000, Note_on_c, 6, 76, 127
7, 144076, Note_off_c, 6, 72, 0
7, 144076, Note_off_c, 6, 76, 0
7, 144076, Note_off_c, 6, 79, 0
7, 144192, Note_on_c, 6, 64, 127
7, 144192, Note_on_c, 6, 67, 127
7, 144192, Note_on_c, 6, 72, 127
7, 144228, Note_off_c, 6, 67, 0
7, 144228, Note_off_c, 6, 72, 0
7, 144228, Note_off_c, 6, 76, 0
7, 144384, Note_off_c, 6, 64, 0
7, 144384, Note_off_c, 6, 67, 0
7, 144384, Note_off_c, 6, 72, 0
7, 144384, Note_on_c, 6, 65, 127
7, 144384, Note_on_c, 6, 70, 127
7, 144384, Note_on_c, 6, 74, 127
7, 145612, Note_off_c, 6, 65, 0
7, 145612, Note_off_c, 6, 70, 0
7, 145612, Note_off_c, 6, 74, 0
7, 145920, Note_on_c, 6, 67, 127
7, 145920, Note_on_c, 6, 64, 127
7, 145920, Note_on_c, 6, 60, 127
7, 146072, Note_off_c, 6, 67, 0
7, 146072, Note_off_c, 6, 64, 0
7, 146072, Note_off_c, 6, 60, 0
7, 146112, Note_on_c, 6, 67, 127
7, 146112, Note_on_c, 6, 64, 127
7, 146112, Note_on_c, 6, 60, 127
7, 146264, Note_off_c, 6, 67, 0
7, 146264, Note_off_c, 6, 64, 0
7, 146264, Note_off_c, 6, 60, 0
7, 146688, Note_on_c, 6, 67, 127
7, 146688, Note_on_c, 6, 64, 127
7, 146688, Note_on_c, 6, 60, 127
7, 146840, Note_off_c, 6, 67, 0
7, 146840, Note_off_c, 6, 64, 0
7, 146840, Note_off_c, 6, 60, 0
7, 146880, Note_on_c, 6, 67, 127
7, 146880, Note_on_c, 6, 64, 127
7, 146880, Note_on_c, 6, 60, 127
7, 147032, Note_off_c, 6, 67, 0
7, 147032, Note_off_c, 6, 64, 0
7, 147032, Note_off_c, 6, 60, 0
7, 147456, Note_on_c, 6, 67, 127
7, 147456, Note_on_c, 6, 64, 127
7, 147456, Note_on_c, 6, 60, 127
7, 147608, Note_off_c, 6, 67, 0
7, 147608, Note_off_c, 6, 64, 0
7, 147608, Note_off_c, 6, 60, 0
7, 147648, Note_on_c, 6, 67, 127
7, 147648, Note_on_c, 6, 64, 127
7, 147648, Note_on_c, 6, 60, 127
7, 147800, Note_off_c, 6, 67, 0
7, 147800, Note_off_c, 6, 64, 0
7, 147800, Note_off_c, 6, 60, 0
7, 148224, Note_on_c, 6, 67, 127
7, 148224, Note_on_c, 6, 64, 127
7, 148224, Note_on_c, 6, 60, 127
7, 148376, Note_off_c, 6, 67, 0
7, 148376, Note_off_c, 6, 64, 0
7, 148376, Note_off_c, 6, 60, 0
7, 148416, Note_on_c, 6, 67, 127
7, 148416, Note_on_c, 6, 64, 127
7, 148416, Note_on_c, 6, 60, 127
7, 148568, Note_off_c, 6, 67, 0
7, 148568, Note_off_c, 6, 64, 0
7, 148568, Note_off_c, 6, 60, 0
7, 148568, End_track
8, 0, Start_track
8, 0, Title_t, "Brass"
8, 0, Control_c, 7, 0, 0
8, 0, Program_c, 7, 57
8, 0, Control_c, 7, 7, 91
8, 0, Control_c, 7, 10, 84
8, 0, Key_signature, -1, "major"
8, 0, Control_c, 7, 7, 100
8, 0, Program_c, 7, 57
8, 0, Note_on_c, 7, 60, 127
8, 76, Note_off_c, 7, 60, 0
8, 96, Note_on_c, 7, 62, 127
8, 172, Note_off_c, 7, 62, 0
8, 192, Note_on_c, 7, 65, 127
8, 344, Note_off_c, 7, 65, 0
8, 384, Note_on_c, 7, 60, 127
8, 460, Note_off_c, 7, 60, 0
8, 480, Note_on_c, 7, 65, 127
8, 556, Note_off_c, 7, 65, 0
8, 576, Note_on_c, 7, 67, 127
8, 728, Note_off_c, 7, 67, 0
8, 768, Note_on_c, 7, 65, 127
8, 844, Note_off_c, 7, 65, 0
8, 864, Note_on_c, 7, 67, 127
8, 940, Note_off_c, 7, 67, 0
8, 960, Note_on_c, 7, 69, 127
8, 1112, Note_off_c, 7, 69, 0
8, 1152, Note_on_c, 7, 67, 127
8, 1228, Note_off_c, 7, 67, 0
8, 1248, Note_on_c, 7, 69, 127
8, 1324, Note_off_c, 7, 69, 0
8, 1344, Note_on_c, 7, 72, 127
8, 1496, Note_off_c, 7, 72, 0
8, 1536, Note_on_c, 7, 74, 127
8, 1536, Note_on_c, 7, 69, 127
8, 1536, Note_on_c, 7, 65, 127
8, 2148, Note_off_c, 7, 65, 0
8, 2304, Note_off_c, 7, 74, 0
8, 2304, Note_off_c, 7, 69, 0
8, 2304, Note_on_c, 7, 69, 127
8, 2304, Note_on_c, 7, 74, 127
8, 2304, Note_on_c, 7, 77, 127
8, 2608, Note_off_c, 7, 69, 0
8, 2608, Note_off_c, 7, 74, 0
8, 2608, Note_off_c, 7, 77, 0
8, 2688, Note_on_c, 7, 81, 127
8, 2688, Note_on_c, 7, 77, 127
8, 2688, Note_on_c, 7, 74, 127
8, 2992, Note_off_c, 7, 81, 0
8, 2992, Note_off_c, 7, 77, 0
8, 2992, Note_off_c, 7, 74, 0
8, 3072, Note_on_c, 7, 79, 127
8, 3072, Note_on_c, 7, 76, 127
8, 3072, Note_on_c, 7, 72, 127
8, 3840, Note_off_c, 7, 79, 0
8, 3840, Note_off_c, 7, 76, 0
8, 3840, Note_off_c, 7, 72, 0
8, 3840, Note_on_c, 7, 67, 127
8, 3840, Note_on_c, 7, 72, 127
8, 3840, Note_on_c, 7, 76, 127
8, 4144, Note_off_c, 7, 67, 0
8, 4144, Note_off_c, 7, 72, 0
8, 4144, Note_off_c, 7, 76, 0
8, 4224, Note_on_c, 7, 64, 127
8, 4224, Note_on_c, 7, 67, 127
8, 4224, Note_on_c, 7, 72, 127
8, 4528, Note_off_c, 7, 64, 0
8, 4528, Note_off_c, 7, 67, 0
8, 4528, Note_off_c, 7, 72, 0
8, 4608, Note_on_c, 7, 65, 127
8, 4608, Note_on_c, 7, 70, 127
8, 4608, Note_on_c, 7, 74, 127
8, 7372, Note_off_c, 7, 65, 0
8, 7372, Note_off_c, 7, 70, 0
8, 7372, Note_off_c, 7, 74, 0
8, 7680, Note_on_c, 7, 74, 127
8, 7680, Note_on_c, 7, 69, 127
8, 7680, Note_on_c, 7, 65, 127
8, 8448, Note_off_c, 7, 74, 0
8, 8448, Note_off_c, 7, 69, 0
8, 8448, Note_off_c, 7, 65, 0
8, 8448, Note_on_c, 7, 69, 127
8, 8448, Note_on_c, 7, 74, 127
8, 8448, Note_on_c, 7, 77, 127
8, 8752, Note_off_c, 7, 69, 0
8, 8752, Note_off_c, 7, 74, 0
8, 8752, Note_off_c, 7, 77, 0
8, 8832, Note_on_c, 7, 81, 127
8, 8832, Note_on_c, 7, 77, 127
8, 8832, Note_on_c, 7, 74, 127
8, 9136, Note_off_c, 7, 81, 0
8, 9136, Note_off_c, 7, 77, 0
8, 9136, Note_off_c, 7, 74, 0
8, 9216, Note_on_c, 7, 79, 127
8, 9216, Note_on_c, 7, 76, 127
8, 9216, Note_on_c, 7, 72, 127
8, 9984, Note_off_c, 7, 79, 0
8, 9984, Note_off_c, 7, 76, 0
8, 9984, Note_off_c, 7, 72, 0
8, 9984, Note_on_c, 7, 67, 127
8, 9984, Note_on_c, 7, 72, 127
8, 9984, Note_on_c, 7, 76, 127
8, 10288, Note_off_c, 7, 67, 0
8, 10288, Note_off_c, 7, 72, 0
8, 10288, Note_off_c, 7, 76, 0
8, 10368, Note_on_c, 7, 64, 127
8, 10368, Note_on_c, 7, 67, 127
8, 10368, Note_on_c, 7, 72, 127
8, 10672, Note_off_c, 7, 64, 0
8, 10672, Note_off_c, 7, 67, 0
8, 10672, Note_off_c, 7, 72, 0
8, 10752, Note_on_c, 7, 65, 127
8, 10752, Note_on_c, 7, 70, 127
8, 10752, Note_on_c, 7, 74, 127
8, 13516, Note_off_c, 7, 65, 0
8, 13516, Note_off_c, 7, 70, 0
8, 13516, Note_off_c, 7, 74, 0
8, 62976, Note_on_c, 7, 74, 127
8, 62976, Note_on_c, 7, 69, 127
8, 62976, Note_on_c, 7, 65, 127
8, 63588, Note_off_c, 7, 65, 0
8, 63744, Note_off_c, 7, 74, 0
8, 63744, Note_off_c, 7, 69, 0
8, 63744, Note_on_c, 7, 69, 127
8, 63744, Note_on_c, 7, 74, 127
8, 63744, Note_on_c, 7, 77, 127
8, 64048, Note_off_c, 7, 69, 0
8, 64048, Note_off_c, 7, 74, 0
8, 64048, Note_off_c, 7, 77, 0
8, 64128, Note_on_c, 7, 81, 127
8, 64128, Note_on_c, 7, 77, 127
8, 64128, Note_on_c, 7, 74, 127
8, 64432, Note_off_c, 7, 81, 0
8, 64432, Note_off_c, 7, 77, 0
8, 64432, Note_off_c, 7, 74, 0
8, 64512, Note_on_c, 7, 79, 127
8, 64512, Note_on_c, 7, 76, 127
8, 64512, Note_on_c, 7, 72, 127
8, 65280, Note_off_c, 7, 79, 0
8, 65280, Note_off_c, 7, 76, 0
8, 65280, Note_off_c, 7, 72, 0
8, 65280, Note_on_c, 7, 67, 127
8, 65280, Note_on_c, 7, 72, 127
8, 65280, Note_on_c, 7, 76, 127
8, 65584, Note_off_c, 7, 67, 0
8, 65584, Note_off_c, 7, 72, 0
8, 65584, Note_off_c, 7, 76, 0
8, 65664, Note_on_c, 7, 64, 127
8, 65664, Note_on_c, 7, 67, 127
8, 65664, Note_on_c, 7, 72, 127
8, 65968, Note_off_c, 7, 64, 0
8, 65968, Note_off_c, 7, 67, 0
8, 65968, Note_off_c, 7, 72, 0
8, 66048, Note_on_c, 7, 65, 127
8, 66048, Note_on_c, 7, 70, 127
8, 66048, Note_on_c, 7, 74, 127
8, 68812, Note_off_c, 7, 65, 0
8, 68812, Note_off_c, 7, 70, 0
8, 68812, Note_off_c, 7, 74, 0
8, 130560, Note_on_c, 7, 74, 127
8, 130560, Note_on_c, 7, 69, 127
8, 130560, Note_on_c, 7, 65, 127
8, 131172, Note_off_c, 7, 65, 0
8, 131328, Note_off_c, 7, 74, 0
8, 131328, Note_off_c, 7, 69, 0
8, 131328, Note_on_c, 7, 69, 127
8, 131328, Note_on_c, 7, 74, 127
8, 131328, Note_on_c, 7, 77, 127
8, 131632, Note_off_c, 7, 69, 0
8, 131632, Note_off_c, 7, 74, 0
8, 131632, Note_off_c, 7, 77, 0
8, 131712, Note_on_c, 7, 81, 127
8, 131712, Note_on_c, 7, 77, 127
8, 131712, Note_on_c, 7, 74, 127
8, 132016, Note_off_c, 7, 81, 0
8, 132016, Note_off_c, 7, 77, 0
8, 132016, Note_off_c, 7, 74, 0
8, 132096, Note_on_c, 7, 79, 127
8, 132096, Note_on_c, 7, 76, 127
8, 132096, Note_on_c, 7, 72, 127
8, 132864, Note_off_c, 7, 79, 0
8, 132864, Note_off_c, 7, 76, 0
8, 132864, Note_off_c, 7, 72, 0
8, 132864, Note_on_c, 7, 67, 127
8, 132864, Note_on_c, 7, 72, 127
8, 132864, Note_on_c, 7, 76, 127
8, 133168, Note_off_c, 7, 67, 0
8, 133168, Note_off_c, 7, 72, 0
8, 133168, Note_off_c, 7, 76, 0
8, 133248, Note_on_c, 7, 64, 127
8, 133248, Note_on_c, 7, 67, 127
8, 133248, Note_on_c, 7, 72, 127
8, 133552, Note_off_c, 7, 64, 0
8, 133552, Note_off_c, 7, 67, 0
8, 133552, Note_off_c, 7, 72, 0
8, 133632, Note_on_c, 7, 65, 127
8, 133632, Note_on_c, 7, 70, 127
8, 133632, Note_on_c, 7, 74, 127
8, 136396, Note_off_c, 7, 65, 0
8, 136396, Note_off_c, 7, 70, 0
8, 136396, Note_off_c, 7, 74, 0
8, 210432, Note_on_c, 7, 74, 127
8, 210432, Note_on_c, 7, 69, 127
8, 210432, Note_on_c, 7, 65, 127
8, 211044, Note_off_c, 7, 65, 0
8, 211200, Note_off_c, 7, 74, 0
8, 211200, Note_off_c, 7, 69, 0
8, 211200, Note_on_c, 7, 69, 127
8, 211200, Note_on_c, 7, 74, 127
8, 211200, Note_on_c, 7, 77, 127
8, 211504, Note_off_c, 7, 69, 0
8, 211504, Note_off_c, 7, 74, 0
8, 211504, Note_off_c, 7, 77, 0
8, 211584, Note_on_c, 7, 81, 127
8, 211584, Note_on_c, 7, 77, 127
8, 211584, Note_on_c, 7, 74, 127
8, 211888, Note_off_c, 7, 81, 0
8, 211888, Note_off_c, 7, 77, 0
8, 211888, Note_off_c, 7, 74, 0
8, 211968, Note_on_c, 7, 79, 127
8, 211968, Note_on_c, 7, 76, 127
8, 211968, Note_on_c, 7, 72, 127
8, 212736, Note_off_c, 7, 79, 0
8, 212736, Note_off_c, 7, 76, 0
8, 212736, Note_off_c, 7, 72, 0
8, 212736, Note_on_c, 7, 67, 127
8, 212736, Note_on_c, 7, 72, 127
8, 212736, Note_on_c, 7, 76, 127
8, 213040, Note_off_c, 7, 67, 0
8, 213040, Note_off_c, 7, 72, 0
8, 213040, Note_off_c, 7, 76, 0
8, 213120, Note_on_c, 7, 64, 127
8, 213120, Note_on_c, 7, 67, 127
8, 213120, Note_on_c, 7, 72, 127
8, 213424, Note_off_c, 7, 64, 0
8, 213424, Note_off_c, 7, 67, 0
8, 213424, Note_off_c, 7, 72, 0
8, 213504, Note_on_c, 7, 65, 127
8, 213504, Note_on_c, 7, 70, 127
8, 213504, Note_on_c, 7, 74, 127
8, 216024, Note_off_c, 7, 65, 0
8, 216024, Note_off_c, 7, 70, 0
8, 216024, Note_off_c, 7, 74, 0
8, 216576, Note_on_c, 7, 74, 127
8, 216576, Note_on_c, 7, 69, 127
8, 216576, Note_on_c, 7, 65, 127
8, 217188, Note_off_c, 7, 65, 0
8, 217344, Note_off_c, 7, 74, 0
8, 217344, Note_off_c, 7, 69, 0
8, 217344, Note_on_c, 7, 69, 127
8, 217344, Note_on_c, 7, 74, 127
8, 217344, Note_on_c, 7, 77, 127
8, 217648, Note_off_c, 7, 69, 0
8, 217648, Note_off_c, 7, 74, 0
8, 217648, Note_off_c, 7, 77, 0
8, 217728, Note_on_c, 7, 81, 127
8, 217728, Note_on_c, 7, 77, 127
8, 217728, Note_on_c, 7, 74, 127
8, 218032, Note_off_c, 7, 81, 0
8, 218032, Note_off_c, 7, 77, 0
8, 218032, Note_off_c, 7, 74, 0
8, 218112, Note_on_c, 7, 79, 127
8, 218112, Note_on_c, 7, 76, 127
8, 218112, Note_on_c, 7, 72, 127
8, 218880, Note_off_c, 7, 79, 0
8, 218880, Note_off_c, 7, 76, 0
8, 218880, Note_off_c, 7, 72, 0
8, 218880, Note_on_c, 7, 67, 127
8, 218880, Note_on_c, 7, 72, 127
8, 218880, Note_on_c, 7, 76, 127
8, 219184, Note_off_c, 7, 67, 0
8, 219184, Note_off_c, 7, 72, 0
8, 219184, Note_off_c, 7, 76, 0
8, 219264, Note_on_c, 7, 64, 127
8, 219264, Note_on_c, 7, 67, 127
8, 219264, Note_on_c, 7, 72, 127
8, 219568, Note_off_c, 7, 64, 0
8, 219568, Note_off_c, 7, 67, 0
8, 219568, Note_off_c, 7, 72, 0
8, 219648, Note_on_c, 7, 65, 127
8, 219648, Note_on_c, 7, 70, 127
8, 219648, Note_on_c, 7, 74, 127
8, 222168, Note_off_c, 7, 65, 0
8, 222168, Note_off_c, 7, 70, 0
8, 222168, Note_off_c, 7, 74, 0
8, 222720, Note_on_c, 7, 74, 127
8, 222720, Note_on_c, 7, 69, 127
8, 222720, Note_on_c, 7, 65, 127
8, 223332, Note_off_c, 7, 65, 0
8, 223488, Note_off_c, 7, 74, 0
8, 223488, Note_off_c, 7, 69, 0
8, 223488, Note_on_c, 7, 69, 127
8, 223488, Note_on_c, 7, 74, 127
8, 223488, Note_on_c, 7, 77, 127
8, 223792, Note_off_c, 7, 69, 0
8, 223792, Note_off_c, 7, 74, 0
8, 223792, Note_off_c, 7, 77, 0
8, 223872, Note_on_c, 7, 81, 127
8, 223872, Note_on_c, 7, 77, 127
8, 223872, Note_on_c, 7, 74, 127
8, 224176, Note_off_c, 7, 81, 0
8, 224176, Note_off_c, 7, 77, 0
8, 224176, Note_off_c, 7, 74, 0
8, 224256, Note_on_c, 7, 79, 127
8, 224256, Note_on_c, 7, 76, 127
8, 224256, Note_on_c, 7, 72, 127
8, 225024, Note_off_c, 7, 79, 0
8, 225024, Note_off_c, 7, 76, 0
8, 225024, Note_off_c, 7, 72, 0
8, 225024, Note_on_c, 7, 67, 127
8, 225024, Note_on_c, 7, 72, 127
8, 225024, Note_on_c, 7, 76, 127
8, 225328, Note_off_c, 7, 67, 0
8, 225328, Note_off_c, 7, 72, 0
8, 225328, Note_off_c, 7, 76, 0
8, 225408, Note_on_c, 7, 64, 127
8, 225408, Note_on_c, 7, 67, 127
8, 225408, Note_on_c, 7, 72, 127
8, 225712, Note_off_c, 7, 64, 0
8, 225712, Note_off_c, 7, 67, 0
8, 225712, Note_off_c, 7, 72, 0
8, 225792, Note_on_c, 7, 65, 127
8, 225792, Note_on_c, 7, 70, 127
8, 225792, Note_on_c, 7, 74, 127
8, 228312, Note_off_c, 7, 65, 0
8, 228312, Note_off_c, 7, 70, 0
8, 228312, Note_off_c, 7, 74, 0
8, 228312, End_track
9, 0, Start_track
9, 0, Title_t, "Keyboard "
9, 0, Control_c, 8, 0, 0
9, 0, Program_c, 8, 16
9, 0, Control_c, 8, 7, 62
9, 0, Control_c, 8, 10, 51
9, 0, Key_signature, -1, "major"
9, 0, Program_c, 8, 16
9, 50688, Note_on_c, 8, 65, 127
9, 50688, Note_on_c, 8, 62, 127
9, 50688, Note_on_c, 8, 57, 127
9, 51916, Note_off_c, 8, 65, 0
9, 51916, Note_off_c, 8, 62, 0
9, 51916, Note_off_c, 8, 57, 0
9, 52224, Note_on_c, 8, 55, 127
9, 52224, Note_on_c, 8, 57, 127
9, 52224, Note_on_c, 8, 60, 127
9, 52224, Note_on_c, 8, 64, 127
9, 53452, Note_off_c, 8, 55, 0
9, 53452, Note_off_c, 8, 57, 0
9, 53452, Note_off_c, 8, 60, 0
9, 53452, Note_off_c, 8, 64, 0
9, 53760, Note_on_c, 8, 58, 127
9, 53760, Note_on_c, 8, 62, 127
9, 53760, Note_on_c, 8, 67, 127
9, 53760, Note_on_c, 8, 65, 127
9, 55908, Note_off_c, 8, 58, 0
9, 55908, Note_off_c, 8, 62, 0
9, 55908, Note_off_c, 8, 65, 0
9, 55908, Note_off_c, 8, 67, 0
9, 56832, Note_on_c, 8, 65, 127
9, 56832, Note_on_c, 8, 62, 127
9, 56832, Note_on_c, 8, 57, 127
9, 58060, Note_off_c, 8, 65, 0
9, 58060, Note_off_c, 8, 62, 0
9, 58060, Note_off_c, 8, 57, 0
9, 58368, Note_on_c, 8, 55, 127
9, 58368, Note_on_c, 8, 57, 127
9, 58368, Note_on_c, 8, 60, 127
9, 58368, Note_on_c, 8, 64, 127
9, 59596, Note_off_c, 8, 55, 0
9, 59596, Note_off_c, 8, 57, 0
9, 59596, Note_off_c, 8, 60, 0
9, 59596, Note_off_c, 8, 64, 0
9, 59904, Note_on_c, 8, 58, 127
9, 59904, Note_on_c, 8, 62, 127
9, 59904, Note_on_c, 8, 67, 127
9, 59904, Note_on_c, 8, 65, 127
9, 62052, Note_off_c, 8, 58, 0
9, 62052, Note_off_c, 8, 62, 0
9, 62052, Note_off_c, 8, 65, 0
9, 62052, Note_off_c, 8, 67, 0
9, 105984, Note_on_c, 8, 65, 127
9, 105984, Note_on_c, 8, 62, 127
9, 105984, Note_on_c, 8, 57, 127
9, 107212, Note_off_c, 8, 65, 0
9, 107212, Note_off_c, 8, 62, 0
9, 107212, Note_off_c, 8, 57, 0
9, 107520, Note_on_c, 8, 55, 127
9, 107520, Note_on_c, 8, 57, 127
9, 107520, Note_on_c, 8, 60, 127
9, 107520, Note_on_c, 8, 64, 127
9, 108748, Note_off_c, 8, 55, 0
9, 108748, Note_off_c, 8, 57, 0
9, 108748, Note_off_c, 8, 60, 0
9, 108748, Note_off_c, 8, 64, 0
9, 109056, Note_on_c, 8, 58, 127
9, 109056, Note_on_c, 8, 62, 127
9, 109056, Note_on_c, 8, 67, 127
9, 109056, Note_on_c, 8, 65, 127
9, 111204, Note_off_c, 8, 58, 0
9, 111204, Note_off_c, 8, 62, 0
9, 111204, Note_off_c, 8, 65, 0
9, 111204, Note_off_c, 8, 67, 0
9, 112128, Note_on_c, 8, 65, 127
9, 112128, Note_on_c, 8, 62, 127
9, 112128, Note_on_c, 8, 57, 127
9, 113356, Note_off_c, 8, 65, 0
9, 113356, Note_off_c, 8, 62, 0
9, 113356, Note_off_c, 8, 57, 0
9, 113664, Note_on_c, 8, 55, 127
9, 113664, Note_on_c, 8, 57, 127
9, 113664, Note_on_c, 8, 60, 127
9, 113664, Note_on_c, 8, 64, 127
9, 114892, Note_off_c, 8, 55, 0
9, 114892, Note_off_c, 8, 57, 0
9, 114892, Note_off_c, 8, 60, 0
9, 114892, Note_off_c, 8, 64, 0
9, 115200, Note_on_c, 8, 58, 127
9, 115200, Note_on_c, 8, 62, 127
9, 115200, Note_on_c, 8, 67, 127
9, 115200, Note_on_c, 8, 65, 127
9, 117348, Note_off_c, 8, 58, 0
9, 117348, Note_off_c, 8, 62, 0
9, 117348, Note_off_c, 8, 65, 0
9, 117348, Note_off_c, 8, 67, 0
9, 118272, Note_on_c, 8, 65, 127
9, 118272, Note_on_c, 8, 62, 127
9, 118272, Note_on_c, 8, 57, 127
9, 119500, Note_off_c, 8, 65, 0
9, 119500, Note_off_c, 8, 62, 0
9, 119500, Note_off_c, 8, 57, 0
9, 119808, Note_on_c, 8, 55, 127
9, 119808, Note_on_c, 8, 57, 127
9, 119808, Note_on_c, 8, 60, 127
9, 119808, Note_on_c, 8, 64, 127
9, 121036, Note_off_c, 8, 55, 0
9, 121036, Note_off_c, 8, 57, 0
9, 121036, Note_off_c, 8, 60, 0
9, 121036, Note_off_c, 8, 64, 0
9, 121344, Note_on_c, 8, 58, 127
9, 121344, Note_on_c, 8, 62, 127
9, 121344, Note_on_c, 8, 67, 127
9, 121344, Note_on_c, 8, 65, 127
9, 123492, Note_off_c, 8, 58, 0
9, 123492, Note_off_c, 8, 62, 0
9, 123492, Note_off_c, 8, 65, 0
9, 123492, Note_off_c, 8, 67, 0
9, 124416, Note_on_c, 8, 65, 127
9, 124416, Note_on_c, 8, 62, 127
9, 124416, Note_on_c, 8, 57, 127
9, 125644, Note_off_c, 8, 65, 0
9, 125644, Note_off_c, 8, 62, 0
9, 125644, Note_off_c, 8, 57, 0
9, 125952, Note_on_c, 8, 55, 127
9, 125952, Note_on_c, 8, 57, 127
9, 125952, Note_on_c, 8, 60, 127
9, 125952, Note_on_c, 8, 64, 127
9, 127180, Note_off_c, 8, 55, 0
9, 127180, Note_off_c, 8, 57, 0
9, 127180, Note_off_c, 8, 60, 0
9, 127180, Note_off_c, 8, 64, 0
9, 127488, Note_on_c, 8, 58, 127
9, 127488, Note_on_c, 8, 62, 127
9, 127488, Note_on_c, 8, 67, 127
9, 127488, Note_on_c, 8, 65, 127
9, 129636, Note_off_c, 8, 58, 0
9, 129636, Note_off_c, 8, 62, 0
9, 129636, Note_off_c, 8, 65, 0
9, 129636, Note_off_c, 8, 67, 0
9, 185856, Note_on_c, 8, 65, 127
9, 185856, Note_on_c, 8, 62, 127
9, 185856, Note_on_c, 8, 57, 127
9, 187084, Note_off_c, 8, 65, 0
9, 187084, Note_off_c, 8, 62, 0
9, 187084, Note_off_c, 8, 57, 0
9, 187392, Note_on_c, 8, 55, 127
9, 187392, Note_on_c, 8, 57, 127
9, 187392, Note_on_c, 8, 60, 127
9, 187392, Note_on_c, 8, 64, 127
9, 188620, Note_off_c, 8, 55, 0
9, 188620, Note_off_c, 8, 57, 0
9, 188620, Note_off_c, 8, 60, 0
9, 188620, Note_off_c, 8, 64, 0
9, 188928, Note_on_c, 8, 58, 127
9, 188928, Note_on_c, 8, 62, 127
9, 188928, Note_on_c, 8, 67, 127
9, 188928, Note_on_c, 8, 65, 127
9, 191076, Note_off_c, 8, 58, 0
9, 191076, Note_off_c, 8, 62, 0
9, 191076, Note_off_c, 8, 65, 0
9, 191076, Note_off_c, 8, 67, 0
9, 192000, Note_on_c, 8, 65, 127
9, 192000, Note_on_c, 8, 62, 127
9, 192000, Note_on_c, 8, 57, 127
9, 193228, Note_off_c, 8, 65, 0
9, 193228, Note_off_c, 8, 62, 0
9, 193228, Note_off_c, 8, 57, 0
9, 193536, Note_on_c, 8, 55, 127
9, 193536, Note_on_c, 8, 57, 127
9, 193536, Note_on_c, 8, 60, 127
9, 193536, Note_on_c, 8, 64, 127
9, 194764, Note_off_c, 8, 55, 0
9, 194764, Note_off_c, 8, 57, 0
9, 194764, Note_off_c, 8, 60, 0
9, 194764, Note_off_c, 8, 64, 0
9, 195072, Note_on_c, 8, 58, 127
9, 195072, Note_on_c, 8, 62, 127
9, 195072, Note_on_c, 8, 67, 127
9, 195072, Note_on_c, 8, 65, 127
9, 197220, Note_off_c, 8, 58, 0
9, 197220, Note_off_c, 8, 62, 0
9, 197220, Note_off_c, 8, 65, 0
9, 197220, Note_off_c, 8, 67, 0
9, 198144, Note_on_c, 8, 65, 127
9, 198144, Note_on_c, 8, 62, 127
9, 198144, Note_on_c, 8, 57, 127
9, 199372, Note_off_c, 8, 65, 0
9, 199372, Note_off_c, 8, 62, 0
9, 199372, Note_off_c, 8, 57, 0
9, 199680, Note_on_c, 8, 55, 127
9, 199680, Note_on_c, 8, 57, 127
9, 199680, Note_on_c, 8, 60, 127
9, 199680, Note_on_c, 8, 64, 127
9, 200908, Note_off_c, 8, 55, 0
9, 200908, Note_off_c, 8, 57, 0
9, 200908, Note_off_c, 8, 60, 0
9, 200908, Note_off_c, 8, 64, 0
9, 201216, Note_on_c, 8, 58, 127
9, 201216, Note_on_c, 8, 62, 127
9, 201216, Note_on_c, 8, 67, 127
9, 201216, Note_on_c, 8, 65, 127
9, 203364, Note_off_c, 8, 58, 0
9, 203364, Note_off_c, 8, 62, 0
9, 203364, Note_off_c, 8, 65, 0
9, 203364, Note_off_c, 8, 67, 0
9, 204288, Note_on_c, 8, 65, 127
9, 204288, Note_on_c, 8, 62, 127
9, 204288, Note_on_c, 8, 57, 127
9, 205516, Note_off_c, 8, 65, 0
9, 205516, Note_off_c, 8, 62, 0
9, 205516, Note_off_c, 8, 57, 0
9, 205824, Note_on_c, 8, 55, 127
9, 205824, Note_on_c, 8, 57, 127
9, 205824, Note_on_c, 8, 60, 127
9, 205824, Note_on_c, 8, 64, 127
9, 207052, Note_off_c, 8, 55, 0
9, 207052, Note_off_c, 8, 57, 0
9, 207052, Note_off_c, 8, 60, 0
9, 207052, Note_off_c, 8, 64, 0
9, 207360, Note_on_c, 8, 58, 127
9, 207360, Note_on_c, 8, 62, 127
9, 207360, Note_on_c, 8, 67, 127
9, 207360, Note_on_c, 8, 65, 127
9, 209508, Note_off_c, 8, 58, 0
9, 209508, Note_off_c, 8, 62, 0
9, 209508, Note_off_c, 8, 65, 0
9, 209508, Note_off_c, 8, 67, 0
9, 209508, End_track
10, 0, Start_track
10, 0, Title_t, "Melody"
10, 0, Control_c, 3, 0, 0
10, 0, Program_c, 3, 87
10, 0, Control_c, 3, 7, 90
10, 0, Control_c, 3, 10, 47
10, 0, Key_signature, -1, "major"
10, 0, Control_c, 3, 7, 100
10, 0, Program_c, 3, 65
10, 13824, Note_on_c, 3, 69, 127
10, 14840, Note_off_c, 3, 69, 0
10, 14976, Note_on_c, 3, 67, 127
10, 15168, Note_on_c, 3, 65, 127
10, 15280, Note_off_c, 3, 67, 0
10, 15744, Note_on_c, 3, 67, 127
10, 15780, Note_off_c, 3, 65, 0
10, 16048, Note_off_c, 3, 67, 0
10, 16128, Note_on_c, 3, 67, 127
10, 16432, Note_off_c, 3, 67, 0
10, 16512, Note_on_c, 3, 69, 127
10, 16816, Note_off_c, 3, 69, 0
10, 16896, Note_on_c, 3, 69, 127
10, 17356, Note_off_c, 3, 69, 0
10, 17472, Note_on_c, 3, 67, 127
10, 17624, Note_off_c, 3, 67, 0
10, 17664, Note_on_c, 3, 67, 127
10, 18124, Note_off_c, 3, 67, 0
10, 18240, Note_on_c, 3, 65, 127
10, 18392, Note_off_c, 3, 65, 0
10, 18432, Note_on_c, 3, 69, 127
10, 18584, Note_off_c, 3, 69, 0
10, 18624, Note_on_c, 3, 67, 127
10, 18876, Note_off_c, 3, 67, 0
10, 19584, Note_on_c, 3, 69, 127
10, 19888, Note_off_c, 3, 69, 0
10, 19968, Note_on_c, 3, 69, 127
10, 20736, Note_off_c, 3, 69, 0
10, 20928, Note_on_c, 3, 69, 127
10, 21080, Note_off_c, 3, 69, 0
10, 21120, Note_on_c, 3, 67, 127
10, 21272, Note_off_c, 3, 67, 0
10, 21312, Note_on_c, 3, 65, 127
10, 21564, Note_off_c, 3, 65, 0
10, 22272, Note_on_c, 3, 67, 127
10, 22424, Note_off_c, 3, 67, 0
10, 22464, Note_on_c, 3, 69, 127
10, 22924, Note_off_c, 3, 69, 0
10, 23040, Note_on_c, 3, 70, 127
10, 23652, Note_off_c, 3, 70, 0
10, 23808, Note_on_c, 3, 69, 127
10, 24268, Note_off_c, 3, 69, 0
10, 24384, Note_on_c, 3, 69, 127
10, 24536, Note_off_c, 3, 69, 0
10, 24576, Note_on_c, 3, 65, 127
10, 25344, Note_off_c, 3, 65, 0
10, 25344, Note_on_c, 3, 62, 127
10, 25648, Note_off_c, 3, 62, 0
10, 26112, Note_on_c, 3, 69, 127
10, 27032, Note_off_c, 3, 69, 0
10, 27264, Note_on_c, 3, 67, 127
10, 27568, Note_off_c, 3, 67, 0
10, 27648, Note_on_c, 3, 65, 127
10, 28108, Note_off_c, 3, 65, 0
10, 28224, Note_on_c, 3, 67, 127
10, 28684, Note_off_c, 3, 67, 0
10, 28800, Note_on_c, 3, 69, 127
10, 29104, Note_off_c, 3, 69, 0
10, 29184, Note_on_c, 3, 69, 127
10, 29644, Note_off_c, 3, 69, 0
10, 29760, Note_on_c, 3, 67, 127
10, 29912, Note_off_c, 3, 67, 0
10, 29952, Note_on_c, 3, 67, 127
10, 30412, Note_off_c, 3, 67, 0
10, 30528, Note_on_c, 3, 65, 127
10, 30680, Note_off_c, 3, 65, 0
10, 30720, Note_on_c, 3, 69, 127
10, 30872, Note_off_c, 3, 69, 0
10, 30912, Note_on_c, 3, 67, 127
10, 31164, Note_off_c, 3, 67, 0
10, 32256, Note_on_c, 3, 69, 127
10, 33024, Note_off_c, 3, 69, 0
10, 33216, Note_on_c, 3, 69, 127
10, 33368, Note_off_c, 3, 69, 0
10, 33408, Note_on_c, 3, 67, 127
10, 33560, Note_off_c, 3, 67, 0
10, 33600, Note_on_c, 3, 65, 127
10, 33852, Note_off_c, 3, 65, 0
10, 34560, Note_on_c, 3, 67, 127
10, 34712, Note_off_c, 3, 67, 0
10, 34752, Note_on_c, 3, 69, 127
10, 35212, Note_off_c, 3, 69, 0
10, 35328, Note_on_c, 3, 70, 127
10, 35940, Note_off_c, 3, 70, 0
10, 36096, Note_on_c, 3, 69, 127
10, 36556, Note_off_c, 3, 69, 0
10, 36672, Note_on_c, 3, 69, 127
10, 36824, Note_off_c, 3, 69, 0
10, 36864, Note_on_c, 3, 65, 127
10, 37360, Note_off_c, 3, 65, 0
10, 37440, Note_on_c, 3, 60, 127
10, 37792, Note_off_c, 3, 60, 0
10, 38592, Note_on_c, 3, 62, 127
10, 38744, Note_off_c, 3, 62, 0
10, 38784, Note_on_c, 3, 62, 127
10, 38936, Note_off_c, 3, 62, 0
10, 38976, Note_on_c, 3, 62, 127
10, 39128, Note_off_c, 3, 62, 0
10, 39168, Note_on_c, 3, 65, 127
10, 39320, Note_off_c, 3, 65, 0
10, 39360, Note_on_c, 3, 67, 127
10, 39512, Note_off_c, 3, 67, 0
10, 39552, Note_on_c, 3, 65, 127
10, 39744, Note_on_c, 3, 69, 127
10, 39776, Note_off_c, 3, 65, 0
10, 40048, Note_off_c, 3, 69, 0
10, 40128, Note_on_c, 3, 67, 127
10, 40432, Note_off_c, 3, 67, 0
10, 40512, Note_on_c, 3, 67, 127
10, 41124, Note_off_c, 3, 67, 0
10, 41280, Note_on_c, 3, 60, 127
10, 41432, Note_off_c, 3, 60, 0
10, 41472, Note_on_c, 3, 69, 127
10, 41624, Note_off_c, 3, 69, 0
10, 41664, Note_on_c, 3, 69, 127
10, 42124, Note_off_c, 3, 69, 0
10, 42240, Note_on_c, 3, 67, 127
10, 42392, Note_off_c, 3, 67, 0
10, 42432, Note_on_c, 3, 65, 127
10, 42584, Note_off_c, 3, 65, 0
10, 42624, Note_on_c, 3, 62, 127
10, 42816, Note_on_c, 3, 67, 127
10, 42848, Note_off_c, 3, 62, 0
10, 43120, Note_off_c, 3, 67, 0
10, 43200, Note_on_c, 3, 65, 127
10, 43452, Note_off_c, 3, 65, 0
10, 44736, Note_on_c, 3, 62, 127
10, 44888, Note_off_c, 3, 62, 0
10, 44928, Note_on_c, 3, 62, 127
10, 45080, Note_off_c, 3, 62, 0
10, 45120, Note_on_c, 3, 62, 127
10, 45272, Note_off_c, 3, 62, 0
10, 45312, Note_on_c, 3, 65, 127
10, 45464, Note_off_c, 3, 65, 0
10, 45504, Note_on_c, 3, 67, 127
10, 45888, Note_off_c, 3, 67, 0
10, 45888, Note_on_c, 3, 69, 127
10, 46192, Note_off_c, 3, 69, 0
10, 46272, Note_on_c, 3, 67, 127
10, 46424, Note_off_c, 3, 67, 0
10, 46464, Note_on_c, 3, 65, 127
10, 46616, Note_off_c, 3, 65, 0
10, 46656, Note_on_c, 3, 67, 127
10, 47268, Note_off_c, 3, 67, 0
10, 47424, Note_on_c, 3, 62, 127
10, 47576, Note_off_c, 3, 62, 0
10, 47616, Note_on_c, 3, 72, 127
10, 47768, Note_off_c, 3, 72, 0
10, 47808, Note_on_c, 3, 69, 127
10, 48000, Note_on_c, 3, 67, 127
10, 48032, Note_off_c, 3, 69, 0
10, 48304, Note_off_c, 3, 67, 0
10, 50688, Note_on_c, 3, 69, 127
10, 50840, Note_off_c, 3, 69, 0
10, 50880, Note_on_c, 3, 65, 127
10, 51216, Note_off_c, 3, 65, 0
10, 51264, Note_on_c, 3, 62, 127
10, 51568, Note_off_c, 3, 62, 0
10, 51648, Note_on_c, 3, 69, 127
10, 52224, Note_on_c, 3, 67, 127
10, 52256, Note_off_c, 3, 69, 0
10, 52528, Note_off_c, 3, 67, 0
10, 52608, Note_on_c, 3, 64, 127
10, 52760, Note_off_c, 3, 64, 0
10, 52800, Note_on_c, 3, 60, 127
10, 53260, Note_off_c, 3, 60, 0
10, 53376, Note_on_c, 3, 67, 127
10, 53528, Note_off_c, 3, 67, 0
10, 53568, Note_on_c, 3, 65, 127
10, 53820, Note_off_c, 3, 65, 0
10, 54720, Note_on_c, 3, 62, 127
10, 54872, Note_off_c, 3, 62, 0
10, 54912, Note_on_c, 3, 65, 127
10, 55064, Note_off_c, 3, 65, 0
10, 55104, Note_on_c, 3, 67, 127
10, 55200, Note_on_c, 3, 69, 127
10, 55216, Note_off_c, 3, 67, 0
10, 55488, Note_on_c, 3, 67, 127
10, 55504, Note_off_c, 3, 69, 0
10, 55792, Note_off_c, 3, 67, 0
10, 55872, Note_on_c, 3, 65, 127
10, 56064, Note_on_c, 3, 67, 127
10, 56124, Note_off_c, 3, 65, 0
10, 56216, Note_off_c, 3, 67, 0
10, 56256, Note_on_c, 3, 69, 127
10, 56508, Note_off_c, 3, 69, 0
10, 56832, Note_on_c, 3, 69, 127
10, 56984, Note_off_c, 3, 69, 0
10, 57024, Note_on_c, 3, 65, 127
10, 57328, Note_off_c, 3, 65, 0
10, 57408, Note_on_c, 3, 62, 127
10, 57712, Note_off_c, 3, 62, 0
10, 57792, Note_on_c, 3, 69, 127
10, 58368, Note_on_c, 3, 67, 127
10, 58400, Note_off_c, 3, 69, 0
10, 58672, Note_off_c, 3, 67, 0
10, 58752, Note_on_c, 3, 64, 127
10, 58904, Note_off_c, 3, 64, 0
10, 58944, Note_on_c, 3, 60, 127
10, 59404, Note_off_c, 3, 60, 0
10, 59520, Note_on_c, 3, 67, 127
10, 59672, Note_off_c, 3, 67, 0
10, 59712, Note_on_c, 3, 65, 127
10, 59964, Note_off_c, 3, 65, 0
10, 60864, Note_on_c, 3, 62, 127
10, 61016, Note_off_c, 3, 62, 0
10, 61056, Note_on_c, 3, 65, 127
10, 61208, Note_off_c, 3, 65, 0
10, 61248, Note_on_c, 3, 67, 127
10, 61344, Note_on_c, 3, 69, 127
10, 61372, Note_off_c, 3, 67, 0
10, 61632, Note_on_c, 3, 67, 127
10, 61648, Note_off_c, 3, 69, 0
10, 61936, Note_off_c, 3, 67, 0
10, 62016, Note_on_c, 3, 65, 127
10, 62168, Note_off_c, 3, 65, 0
10, 62208, Note_on_c, 3, 67, 127
10, 62400, Note_on_c, 3, 69, 127
10, 62432, Note_off_c, 3, 67, 0
10, 62552, Note_off_c, 3, 69, 0
10, 69120, Note_on_c, 3, 69, 127
10, 70136, Note_off_c, 3, 69, 0
10, 70272, Note_on_c, 3, 67, 127
10, 70464, Note_on_c, 3, 65, 127
10, 70576, Note_off_c, 3, 67, 0
10, 71076, Note_off_c, 3, 65, 0
10, 71424, Note_on_c, 3, 72, 127
10, 71576, Note_off_c, 3, 72, 0
10, 71616, Note_on_c, 3, 69, 127
10, 71868, Note_off_c, 3, 69, 0
10, 72192, Note_on_c, 3, 69, 127
10, 72652, Note_off_c, 3, 69, 0
10, 72768, Note_on_c, 3, 67, 127
10, 72920, Note_off_c, 3, 67, 0
10, 72960, Note_on_c, 3, 67, 127
10, 73648, Note_off_c, 3, 67, 0
10, 73728, Note_on_c, 3, 69, 127
10, 73880, Note_off_c, 3, 69, 0
10, 73920, Note_on_c, 3, 67, 127
10, 74172, Note_off_c, 3, 67, 0
10, 75264, Note_on_c, 3, 69, 127
10, 76032, Note_off_c, 3, 69, 0
10, 76224, Note_on_c, 3, 69, 127
10, 76376, Note_off_c, 3, 69, 0
10, 76416, Note_on_c, 3, 67, 127
10, 76568, Note_off_c, 3, 67, 0
10, 76608, Note_on_c, 3, 65, 127
10, 76860, Note_off_c, 3, 65, 0
10, 77568, Note_on_c, 3, 67, 127
10, 77720, Note_off_c, 3, 67, 0
10, 77760, Note_on_c, 3, 69, 127
10, 77912, Note_off_c, 3, 69, 0
10, 77952, Note_on_c, 3, 69, 127
10, 78256, Note_off_c, 3, 69, 0
10, 78336, Note_on_c, 3, 70, 127
10, 78948, Note_off_c, 3, 70, 0
10, 79104, Note_on_c, 3, 69, 127
10, 79716, Note_off_c, 3, 69, 0
10, 79872, Note_on_c, 3, 65, 127
10, 80640, Note_off_c, 3, 65, 0
10, 80640, Note_on_c, 3, 62, 127
10, 80944, Note_off_c, 3, 62, 0
10, 81408, Note_on_c, 3, 69, 127
10, 82328, Note_off_c, 3, 69, 0
10, 82560, Note_on_c, 3, 67, 127
10, 82752, Note_on_c, 3, 65, 127
10, 82784, Note_off_c, 3, 67, 0
10, 83212, Note_off_c, 3, 65, 0
10, 83712, Note_on_c, 3, 67, 127
10, 84096, Note_off_c, 3, 67, 0
10, 84096, Note_on_c, 3, 69, 127
10, 84400, Note_off_c, 3, 69, 0
10, 84480, Note_on_c, 3, 69, 127
10, 84940, Note_off_c, 3, 69, 0
10, 85056, Note_on_c, 3, 67, 127
10, 85208, Note_off_c, 3, 67, 0
10, 85248, Note_on_c, 3, 67, 127
10, 85708, Note_off_c, 3, 67, 0
10, 85824, Note_on_c, 3, 65, 127
10, 85976, Note_off_c, 3, 65, 0
10, 86016, Note_on_c, 3, 69, 127
10, 86168, Note_off_c, 3, 69, 0
10, 86208, Note_on_c, 3, 67, 127
10, 86460, Note_off_c, 3, 67, 0
10, 87552, Note_on_c, 3, 69, 127
10, 88320, Note_off_c, 3, 69, 0
10, 88512, Note_on_c, 3, 69, 127
10, 88664, Note_off_c, 3, 69, 0
10, 88704, Note_on_c, 3, 67, 127
10, 88856, Note_off_c, 3, 67, 0
10, 88896, Note_on_c, 3, 65, 127
10, 89148, Note_off_c, 3, 65, 0
10, 89856, Note_on_c, 3, 67, 127
10, 90008, Note_off_c, 3, 67, 0
10, 90048, Note_on_c, 3, 69, 127
10, 90508, Note_off_c, 3, 69, 0
10, 90624, Note_on_c, 3, 70, 127
10, 91236, Note_off_c, 3, 70, 0
10, 91392, Note_on_c, 3, 69, 127
10, 91852, Note_off_c, 3, 69, 0
10, 91968, Note_on_c, 3, 69, 127
10, 92120, Note_off_c, 3, 69, 0
10, 92160, Note_on_c, 3, 65, 127
10, 92656, Note_off_c, 3, 65, 0
10, 92736, Note_on_c, 3, 60, 127
10, 93088, Note_off_c, 3, 60, 0
10, 93888, Note_on_c, 3, 62, 127
10, 94040, Note_off_c, 3, 62, 0
10, 94080, Note_on_c, 3, 62, 127
10, 94232, Note_off_c, 3, 62, 0
10, 94272, Note_on_c, 3, 62, 127
10, 94424, Note_off_c, 3, 62, 0
10, 94464, Note_on_c, 3, 65, 127
10, 94616, Note_off_c, 3, 65, 0
10, 94656, Note_on_c, 3, 67, 127
10, 94808, Note_off_c, 3, 67, 0
10, 94848, Note_on_c, 3, 65, 127
10, 95040, Note_on_c, 3, 69, 127
10, 95072, Note_off_c, 3, 65, 0
10, 95344, Note_off_c, 3, 69, 0
10, 95424, Note_on_c, 3, 67, 127
10, 95728, Note_off_c, 3, 67, 0
10, 95808, Note_on_c, 3, 67, 127
10, 96420, Note_off_c, 3, 67, 0
10, 96576, Note_on_c, 3, 60, 127
10, 96728, Note_off_c, 3, 60, 0
10, 96768, Note_on_c, 3, 69, 127
10, 96920, Note_off_c, 3, 69, 0
10, 96960, Note_on_c, 3, 69, 127
10, 97420, Note_off_c, 3, 69, 0
10, 97536, Note_on_c, 3, 67, 127
10, 97688, Note_off_c, 3, 67, 0
10, 97728, Note_on_c, 3, 65, 127
10, 97880, Note_off_c, 3, 65, 0
10, 97920, Note_on_c, 3, 62, 127
10, 98112, Note_on_c, 3, 67, 127
10, 98144, Note_off_c, 3, 62, 0
10, 98416, Note_off_c, 3, 67, 0
10, 98496, Note_on_c, 3, 65, 127
10, 98748, Note_off_c, 3, 65, 0
10, 100032, Note_on_c, 3, 62, 127
10, 100184, Note_off_c, 3, 62, 0
10, 100224, Note_on_c, 3, 62, 127
10, 100376, Note_off_c, 3, 62, 0
10, 100416, Note_on_c, 3, 62, 127
10, 100568, Note_off_c, 3, 62, 0
10, 100608, Note_on_c, 3, 65, 127
10, 100760, Note_off_c, 3, 65, 0
10, 100800, Note_on_c, 3, 67, 127
10, 101184, Note_off_c, 3, 67, 0
10, 101184, Note_on_c, 3, 69, 127
10, 101488, Note_off_c, 3, 69, 0
10, 101568, Note_on_c, 3, 67, 127
10, 101720, Note_off_c, 3, 67, 0
10, 101760, Note_on_c, 3, 65, 127
10, 101912, Note_off_c, 3, 65, 0
10, 101952, Note_on_c, 3, 67, 127
10, 102564, Note_off_c, 3, 67, 0
10, 102720, Note_on_c, 3, 62, 127
10, 102872, Note_off_c, 3, 62, 0
10, 102912, Note_on_c, 3, 72, 127
10, 103064, Note_off_c, 3, 72, 0
10, 103104, Note_on_c, 3, 69, 127
10, 103296, Note_on_c, 3, 67, 127
10, 103328, Note_off_c, 3, 69, 0
10, 103600, Note_off_c, 3, 67, 0
10, 105984, Note_on_c, 3, 69, 127
10, 106136, Note_off_c, 3, 69, 0
10, 106176, Note_on_c, 3, 65, 127
10, 106512, Note_off_c, 3, 65, 0
10, 106560, Note_on_c, 3, 62, 127
10, 106864, Note_off_c, 3, 62, 0
10, 106944, Note_on_c, 3, 69, 127
10, 107520, Note_on_c, 3, 67, 127
10, 107552, Note_off_c, 3, 69, 0
10, 107824, Note_off_c, 3, 67, 0
10, 107904, Note_on_c, 3, 64, 127
10, 108056, Note_off_c, 3, 64, 0
10, 108096, Note_on_c, 3, 60, 127
10, 108556, Note_off_c, 3, 60, 0
10, 108672, Note_on_c, 3, 67, 127
10, 108824, Note_off_c, 3, 67, 0
10, 108864, Note_on_c, 3, 65, 127
10, 109116, Note_off_c, 3, 65, 0
10, 110016, Note_on_c, 3, 62, 127
10, 110168, Note_off_c, 3, 62, 0
10, 110208, Note_on_c, 3, 65, 127
10, 110360, Note_off_c, 3, 65, 0
10, 110400, Note_on_c, 3, 67, 127
10, 110496, Note_on_c, 3, 69, 127
10, 110512, Note_off_c, 3, 67, 0
10, 110784, Note_on_c, 3, 67, 127
10, 110800, Note_off_c, 3, 69, 0
10, 111088, Note_off_c, 3, 67, 0
10, 111168, Note_on_c, 3, 65, 127
10, 111360, Note_on_c, 3, 67, 127
10, 111420, Note_off_c, 3, 65, 0
10, 111512, Note_off_c, 3, 67, 0
10, 111552, Note_on_c, 3, 69, 127
10, 111804, Note_off_c, 3, 69, 0
10, 112128, Note_on_c, 3, 69, 127
10, 112280, Note_off_c, 3, 69, 0
10, 112320, Note_on_c, 3, 65, 127
10, 112624, Note_off_c, 3, 65, 0
10, 112704, Note_on_c, 3, 62, 127
10, 113008, Note_off_c, 3, 62, 0
10, 113088, Note_on_c, 3, 69, 127
10, 113664, Note_on_c, 3, 67, 127
10, 113696, Note_off_c, 3, 69, 0
10, 113968, Note_off_c, 3, 67, 0
10, 114048, Note_on_c, 3, 64, 127
10, 114200, Note_off_c, 3, 64, 0
10, 114240, Note_on_c, 3, 60, 127
10, 114700, Note_off_c, 3, 60, 0
10, 114816, Note_on_c, 3, 67, 127
10, 114968, Note_off_c, 3, 67, 0
10, 115008, Note_on_c, 3, 65, 127
10, 115260, Note_off_c, 3, 65, 0
10, 116160, Note_on_c, 3, 62, 127
10, 116312, Note_off_c, 3, 62, 0
10, 116352, Note_on_c, 3, 65, 127
10, 116504, Note_off_c, 3, 65, 0
10, 116544, Note_on_c, 3, 67, 127
10, 116640, Note_on_c, 3, 69, 127
10, 116668, Note_off_c, 3, 67, 0
10, 116928, Note_on_c, 3, 67, 127
10, 116944, Note_off_c, 3, 69, 0
10, 117232, Note_off_c, 3, 67, 0
10, 117312, Note_on_c, 3, 65, 127
10, 117464, Note_off_c, 3, 65, 0
10, 117504, Note_on_c, 3, 67, 127
10, 117696, Note_on_c, 3, 69, 127
10, 117728, Note_off_c, 3, 67, 0
10, 117848, Note_off_c, 3, 69, 0
10, 118272, Note_on_c, 3, 69, 127
10, 118424, Note_off_c, 3, 69, 0
10, 118464, Note_on_c, 3, 65, 127
10, 118768, Note_off_c, 3, 65, 0
10, 118848, Note_on_c, 3, 62, 127
10, 119232, Note_on_c, 3, 69, 127
10, 119308, Note_off_c, 3, 62, 0
10, 119808, Note_on_c, 3, 67, 127
10, 119840, Note_off_c, 3, 69, 0
10, 120112, Note_off_c, 3, 67, 0
10, 120192, Note_on_c, 3, 64, 127
10, 120344, Note_off_c, 3, 64, 0
10, 120384, Note_on_c, 3, 60, 127
10, 120844, Note_off_c, 3, 60, 0
10, 120960, Note_on_c, 3, 67, 127
10, 121112, Note_off_c, 3, 67, 0
10, 121152, Note_on_c, 3, 65, 127
10, 121404, Note_off_c, 3, 65, 0
10, 122304, Note_on_c, 3, 62, 127
10, 122456, Note_off_c, 3, 62, 0
10, 122496, Note_on_c, 3, 65, 127
10, 122648, Note_off_c, 3, 65, 0
10, 122688, Note_on_c, 3, 67, 127
10, 122784, Note_on_c, 3, 69, 127
10, 122840, Note_off_c, 3, 67, 0
10, 123072, Note_on_c, 3, 67, 127
10, 123088, Note_off_c, 3, 69, 0
10, 123376, Note_off_c, 3, 67, 0
10, 123456, Note_on_c, 3, 65, 127
10, 123608, Note_off_c, 3, 65, 0
10, 123648, Note_on_c, 3, 67, 127
10, 123840, Note_on_c, 3, 69, 127
10, 124092, Note_off_c, 3, 69, 0
10, 124260, Note_off_c, 3, 67, 0
10, 124416, Note_on_c, 3, 69, 127
10, 124568, Note_off_c, 3, 69, 0
10, 124608, Note_on_c, 3, 65, 127
10, 124912, Note_off_c, 3, 65, 0
10, 124992, Note_on_c, 3, 62, 127
10, 125296, Note_off_c, 3, 62, 0
10, 125376, Note_on_c, 3, 69, 127
10, 125952, Note_on_c, 3, 67, 127
10, 125984, Note_off_c, 3, 69, 0
10, 126256, Note_off_c, 3, 67, 0
10, 126336, Note_on_c, 3, 64, 127
10, 126488, Note_off_c, 3, 64, 0
10, 126528, Note_on_c, 3, 60, 127
10, 126988, Note_off_c, 3, 60, 0
10, 127104, Note_on_c, 3, 67, 127
10, 127256, Note_off_c, 3, 67, 0
10, 127296, Note_on_c, 3, 65, 127
10, 127548, Note_off_c, 3, 65, 0
10, 128448, Note_on_c, 3, 69, 127
10, 128600, Note_off_c, 3, 69, 0
10, 128640, Note_on_c, 3, 72, 127
10, 128792, Note_off_c, 3, 72, 0
10, 128832, Note_on_c, 3, 69, 127
10, 128928, Note_on_c, 3, 72, 127
10, 128984, Note_off_c, 3, 69, 0
10, 129216, Note_on_c, 3, 69, 127
10, 129232, Note_off_c, 3, 72, 0
10, 129520, Note_off_c, 3, 69, 0
10, 129600, Note_on_c, 3, 67, 127
10, 129752, Note_off_c, 3, 67, 0
10, 129792, Note_on_c, 3, 69, 127
10, 129944, Note_off_c, 3, 69, 0
10, 129984, Note_on_c, 3, 69, 127
10, 130444, Note_off_c, 3, 69, 0
10, 148992, Note_on_c, 3, 69, 127
10, 150008, Note_off_c, 3, 69, 0
10, 150144, Note_on_c, 3, 67, 127
10, 150336, Note_on_c, 3, 65, 127
10, 150448, Note_off_c, 3, 67, 0
10, 150948, Note_off_c, 3, 65, 0
10, 151296, Note_on_c, 3, 72, 127
10, 151448, Note_off_c, 3, 72, 0
10, 151488, Note_on_c, 3, 69, 127
10, 151740, Note_off_c, 3, 69, 0
10, 152064, Note_on_c, 3, 69, 127
10, 152524, Note_off_c, 3, 69, 0
10, 152640, Note_on_c, 3, 67, 127
10, 152792, Note_off_c, 3, 67, 0
10, 152832, Note_on_c, 3, 67, 127
10, 153520, Note_off_c, 3, 67, 0
10, 153600, Note_on_c, 3, 69, 127
10, 153752, Note_off_c, 3, 69, 0
10, 153792, Note_on_c, 3, 67, 127
10, 154044, Note_off_c, 3, 67, 0
10, 155136, Note_on_c, 3, 69, 127
10, 155904, Note_off_c, 3, 69, 0
10, 156096, Note_on_c, 3, 69, 127
10, 156248, Note_off_c, 3, 69, 0
10, 156288, Note_on_c, 3, 67, 127
10, 156440, Note_off_c, 3, 67, 0
10, 156480, Note_on_c, 3, 65, 127
10, 156732, Note_off_c, 3, 65, 0
10, 157440, Note_on_c, 3, 67, 127
10, 157592, Note_off_c, 3, 67, 0
10, 157632, Note_on_c, 3, 69, 127
10, 157784, Note_off_c, 3, 69, 0
10, 157824, Note_on_c, 3, 69, 127
10, 158128, Note_off_c, 3, 69, 0
10, 158208, Note_on_c, 3, 70, 127
10, 158820, Note_off_c, 3, 70, 0
10, 158976, Note_on_c, 3, 69, 127
10, 159588, Note_off_c, 3, 69, 0
10, 159744, Note_on_c, 3, 65, 127
10, 160512, Note_off_c, 3, 65, 0
10, 160512, Note_on_c, 3, 62, 127
10, 160816, Note_off_c, 3, 62, 0
10, 161280, Note_on_c, 3, 69, 127
10, 162200, Note_off_c, 3, 69, 0
10, 162432, Note_on_c, 3, 67, 127
10, 162736, Note_off_c, 3, 67, 0
10, 162816, Note_on_c, 3, 65, 127
10, 163276, Note_off_c, 3, 65, 0
10, 163392, Note_on_c, 3, 67, 127
10, 163888, Note_off_c, 3, 67, 0
10, 163968, Note_on_c, 3, 69, 127
10, 164272, Note_off_c, 3, 69, 0
10, 164352, Note_on_c, 3, 69, 127
10, 164812, Note_off_c, 3, 69, 0
10, 164928, Note_on_c, 3, 67, 127
10, 165080, Note_off_c, 3, 67, 0
10, 165120, Note_on_c, 3, 67, 127
10, 165580, Note_off_c, 3, 67, 0
10, 165696, Note_on_c, 3, 65, 127
10, 165848, Note_off_c, 3, 65, 0
10, 165888, Note_on_c, 3, 69, 127
10, 166040, Note_off_c, 3, 69, 0
10, 166080, Note_on_c, 3, 67, 127
10, 166332, Note_off_c, 3, 67, 0
10, 167424, Note_on_c, 3, 69, 127
10, 168192, Note_off_c, 3, 69, 0
10, 168384, Note_on_c, 3, 69, 127
10, 168536, Note_off_c, 3, 69, 0
10, 168576, Note_on_c, 3, 67, 127
10, 168728, Note_off_c, 3, 67, 0
10, 168768, Note_on_c, 3, 65, 127
10, 169020, Note_off_c, 3, 65, 0
10, 169728, Note_on_c, 3, 67, 127
10, 169880, Note_off_c, 3, 67, 0
10, 169920, Note_on_c, 3, 69, 127
10, 170380, Note_off_c, 3, 69, 0
10, 170496, Note_on_c, 3, 70, 127
10, 171108, Note_off_c, 3, 70, 0
10, 171264, Note_on_c, 3, 69, 127
10, 171724, Note_off_c, 3, 69, 0
10, 171840, Note_on_c, 3, 69, 127
10, 171992, Note_off_c, 3, 69, 0
10, 172032, Note_on_c, 3, 65, 127
10, 172528, Note_off_c, 3, 65, 0
10, 172608, Note_on_c, 3, 60, 127
10, 172960, Note_off_c, 3, 60, 0
10, 173760, Note_on_c, 3, 62, 127
10, 173912, Note_off_c, 3, 62, 0
10, 173952, Note_on_c, 3, 62, 127
10, 174104, Note_off_c, 3, 62, 0
10, 174144, Note_on_c, 3, 62, 127
10, 174296, Note_off_c, 3, 62, 0
10, 174336, Note_on_c, 3, 65, 127
10, 174488, Note_off_c, 3, 65, 0
10, 174528, Note_on_c, 3, 67, 127
10, 174680, Note_off_c, 3, 67, 0
10, 174720, Note_on_c, 3, 65, 127
10, 174912, Note_on_c, 3, 69, 127
10, 174944, Note_off_c, 3, 65, 0
10, 175216, Note_off_c, 3, 69, 0
10, 175296, Note_on_c, 3, 67, 127
10, 175600, Note_off_c, 3, 67, 0
10, 175680, Note_on_c, 3, 67, 127
10, 176292, Note_off_c, 3, 67, 0
10, 176448, Note_on_c, 3, 60, 127
10, 176600, Note_off_c, 3, 60, 0
10, 176640, Note_on_c, 3, 69, 127
10, 176792, Note_off_c, 3, 69, 0
10, 176832, Note_on_c, 3, 69, 127
10, 177292, Note_off_c, 3, 69, 0
10, 177408, Note_on_c, 3, 67, 127
10, 177560, Note_off_c, 3, 67, 0
10, 177600, Note_on_c, 3, 65, 127
10, 177752, Note_off_c, 3, 65, 0
10, 177792, Note_on_c, 3, 62, 127
10, 177984, Note_on_c, 3, 67, 127
10, 178016, Note_off_c, 3, 62, 0
10, 178288, Note_off_c, 3, 67, 0
10, 178368, Note_on_c, 3, 65, 127
10, 178620, Note_off_c, 3, 65, 0
10, 179904, Note_on_c, 3, 62, 127
10, 180056, Note_off_c, 3, 62, 0
10, 180096, Note_on_c, 3, 62, 127
10, 180248, Note_off_c, 3, 62, 0
10, 180288, Note_on_c, 3, 62, 127
10, 180440, Note_off_c, 3, 62, 0
10, 180480, Note_on_c, 3, 65, 127
10, 180632, Note_off_c, 3, 65, 0
10, 180672, Note_on_c, 3, 67, 127
10, 181056, Note_off_c, 3, 67, 0
10, 181056, Note_on_c, 3, 69, 127
10, 181360, Note_off_c, 3, 69, 0
10, 181440, Note_on_c, 3, 67, 127
10, 181592, Note_off_c, 3, 67, 0
10, 181632, Note_on_c, 3, 65, 127
10, 181784, Note_off_c, 3, 65, 0
10, 181824, Note_on_c, 3, 67, 127
10, 182436, Note_off_c, 3, 67, 0
10, 182592, Note_on_c, 3, 62, 127
10, 182744, Note_off_c, 3, 62, 0
10, 182784, Note_on_c, 3, 72, 127
10, 182936, Note_off_c, 3, 72, 0
10, 182976, Note_on_c, 3, 69, 127
10, 183168, Note_on_c, 3, 67, 127
10, 183200, Note_off_c, 3, 69, 0
10, 183472, Note_off_c, 3, 67, 0
10, 185856, Note_on_c, 3, 69, 127
10, 186008, Note_off_c, 3, 69, 0
10, 186048, Note_on_c, 3, 65, 127
10, 186384, Note_off_c, 3, 65, 0
10, 186432, Note_on_c, 3, 62, 127
10, 186736, Note_off_c, 3, 62, 0
10, 186816, Note_on_c, 3, 69, 127
10, 187392, Note_on_c, 3, 67, 127
10, 187424, Note_off_c, 3, 69, 0
10, 187696, Note_off_c, 3, 67, 0
10, 187776, Note_on_c, 3, 64, 127
10, 187928, Note_off_c, 3, 64, 0
10, 187968, Note_on_c, 3, 60, 127
10, 188428, Note_off_c, 3, 60, 0
10, 188544, Note_on_c, 3, 67, 127
10, 188696, Note_off_c, 3, 67, 0
10, 188736, Note_on_c, 3, 65, 127
10, 188988, Note_off_c, 3, 65, 0
10, 189888, Note_on_c, 3, 62, 127
10, 190040, Note_off_c, 3, 62, 0
10, 190080, Note_on_c, 3, 65, 127
10, 190232, Note_off_c, 3, 65, 0
10, 190272, Note_on_c, 3, 67, 127
10, 190368, Note_on_c, 3, 69, 127
10, 190384, Note_off_c, 3, 67, 0
10, 190656, Note_on_c, 3, 67, 127
10, 190672, Note_off_c, 3, 69, 0
10, 190960, Note_off_c, 3, 67, 0
10, 191040, Note_on_c, 3, 65, 127
10, 191232, Note_on_c, 3, 67, 127
10, 191292, Note_off_c, 3, 65, 0
10, 191384, Note_off_c, 3, 67, 0
10, 191424, Note_on_c, 3, 69, 127
10, 191676, Note_off_c, 3, 69, 0
10, 192000, Note_on_c, 3, 69, 127
10, 192152, Note_off_c, 3, 69, 0
10, 192192, Note_on_c, 3, 65, 127
10, 192496, Note_off_c, 3, 65, 0
10, 192576, Note_on_c, 3, 62, 127
10, 192880, Note_off_c, 3, 62, 0
10, 192960, Note_on_c, 3, 69, 127
10, 193536, Note_on_c, 3, 67, 127
10, 193568, Note_off_c, 3, 69, 0
10, 193840, Note_off_c, 3, 67, 0
10, 193920, Note_on_c, 3, 64, 127
10, 194072, Note_off_c, 3, 64, 0
10, 194112, Note_on_c, 3, 60, 127
10, 194572, Note_off_c, 3, 60, 0
10, 194688, Note_on_c, 3, 67, 127
10, 194840, Note_off_c, 3, 67, 0
10, 194880, Note_on_c, 3, 65, 127
10, 195132, Note_off_c, 3, 65, 0
10, 196032, Note_on_c, 3, 62, 127
10, 196184, Note_off_c, 3, 62, 0
10, 196224, Note_on_c, 3, 65, 127
10, 196376, Note_off_c, 3, 65, 0
10, 196416, Note_on_c, 3, 67, 127
10, 196512, Note_on_c, 3, 69, 127
10, 196540, Note_off_c, 3, 67, 0
10, 196800, Note_on_c, 3, 67, 127
10, 196816, Note_off_c, 3, 69, 0
10, 197104, Note_off_c, 3, 67, 0
10, 197184, Note_on_c, 3, 65, 127
10, 197336, Note_off_c, 3, 65, 0
10, 197376, Note_on_c, 3, 67, 127
10, 197568, Note_on_c, 3, 69, 127
10, 197600, Note_off_c, 3, 67, 0
10, 197720, Note_off_c, 3, 69, 0
10, 198144, Note_on_c, 3, 69, 127
10, 198296, Note_off_c, 3, 69, 0
10, 198336, Note_on_c, 3, 65, 127
10, 198640, Note_off_c, 3, 65, 0
10, 198720, Note_on_c, 3, 62, 127
10, 199104, Note_on_c, 3, 69, 127
10, 199180, Note_off_c, 3, 62, 0
10, 199680, Note_on_c, 3, 67, 127
10, 199712, Note_off_c, 3, 69, 0
10, 199984, Note_off_c, 3, 67, 0
10, 200064, Note_on_c, 3, 64, 127
10, 200216, Note_off_c, 3, 64, 0
10, 200256, Note_on_c, 3, 60, 127
10, 200716, Note_off_c, 3, 60, 0
10, 200832, Note_on_c, 3, 67, 127
10, 200984, Note_off_c, 3, 67, 0
10, 201024, Note_on_c, 3, 65, 127
10, 201276, Note_off_c, 3, 65, 0
10, 202176, Note_on_c, 3, 62, 127
10, 202328, Note_off_c, 3, 62, 0
10, 202368, Note_on_c, 3, 65, 127
10, 202520, Note_off_c, 3, 65, 0
10, 202560, Note_on_c, 3, 67, 127
10, 202656, Note_on_c, 3, 69, 127
10, 202712, Note_off_c, 3, 67, 0
10, 202944, Note_on_c, 3, 67, 127
10, 202960, Note_off_c, 3, 69, 0
10, 203248, Note_off_c, 3, 67, 0
10, 203328, Note_on_c, 3, 65, 127
10, 203480, Note_off_c, 3, 65, 0
10, 203520, Note_on_c, 3, 67, 127
10, 203712, Note_on_c, 3, 69, 127
10, 203964, Note_off_c, 3, 69, 0
10, 204132, Note_off_c, 3, 67, 0
10, 204288, Note_on_c, 3, 69, 127
10, 204440, Note_off_c, 3, 69, 0
10, 204480, Note_on_c, 3, 65, 127
10, 204784, Note_off_c, 3, 65, 0
10, 204864, Note_on_c, 3, 62, 127
10, 205168, Note_off_c, 3, 62, 0
10, 205248, Note_on_c, 3, 69, 127
10, 205824, Note_on_c, 3, 67, 127
10, 205856, Note_off_c, 3, 69, 0
10, 206128, Note_off_c, 3, 67, 0
10, 206208, Note_on_c, 3, 64, 127
10, 206360, Note_off_c, 3, 64, 0
10, 206400, Note_on_c, 3, 60, 127
10, 206860, Note_off_c, 3, 60, 0
10, 206976, Note_on_c, 3, 67, 127
10, 207128, Note_off_c, 3, 67, 0
10, 207168, Note_on_c, 3, 65, 127
10, 207420, Note_off_c, 3, 65, 0
10, 208320, Note_on_c, 3, 69, 127
10, 208472, Note_off_c, 3, 69, 0
10, 208512, Note_on_c, 3, 72, 127
10, 208664, Note_off_c, 3, 72, 0
10, 208704, Note_on_c, 3, 69, 127
10, 208800, Note_on_c, 3, 72, 127
10, 208856, Note_off_c, 3, 69, 0
10, 209088, Note_on_c, 3, 69, 127
10, 209104, Note_off_c, 3, 72, 0
10, 209392, Note_off_c, 3, 69, 0
10, 209472, Note_on_c, 3, 67, 127
10, 209624, Note_off_c, 3, 67, 0
10, 209664, Note_on_c, 3, 69, 127
10, 209816, Note_off_c, 3, 69, 0
10, 209856, Note_on_c, 3, 69, 127
10, 210316, Note_off_c, 3, 69, 0
10, 210316, End_track
11, 0, Start_track
11, 0, Title_t, "Baby Jane"
11, 0, Control_c, 3, 0, 0
11, 0, Program_c, 3, 87
11, 0, Control_c, 3, 7, 90
11, 0, Control_c, 3, 10, 47
11, 0, Key_signature, -1, "major"
11, 0, End_track
12, 0, Start_track
12, 0, Title_t, "Rod Stewart"
12, 0, Control_c, 3, 0, 0
12, 0, Program_c, 3, 87
12, 0, Control_c, 3, 7, 90
12, 0, Control_c, 3, 10, 47
12, 0, Key_signature, -1, "major"
12, 0, End_track
13, 0, Start_track
13, 0, Title_t, "Programmed by"
13, 0, Control_c, 3, 0, 0
13, 0, Program_c, 3, 87
13, 0, Control_c, 3, 7, 90
13, 0, Control_c, 3, 10, 47
13, 0, Key_signature, -1, "major"
13, 0, End_track
14, 0, Start_track
14, 0, Title_t, "H.D. Schulze"
14, 0, Control_c, 3, 0, 0
14, 0, Program_c, 3, 87
14, 0, Control_c, 3, 7, 90
14, 0, Control_c, 3, 10, 47
14, 0, Key_signature, -1, "major"
14, 0, End_track
15, 0, Start_track
15, 0, Title_t, "Fontanestr. 21"
15, 0, Control_c, 3, 0, 0
15, 0, Program_c, 3, 87
15, 0, Control_c, 3, 7, 90
15, 0, Control_c, 3, 10, 47
15, 0, Key_signature, -1, "major"
15, 0, End_track
16, 0, Start_track
16, 0, Title_t, "47877 Willich Germany"
16, 0, Control_c, 3, 0, 0
16, 0, Program_c, 3, 87
16, 0, Control_c, 3, 7, 90
16, 0, Control_c, 3, 10, 47
16, 0, Key_signature, -1, "major"
16, 0, End_track
0, 0, End_of_file
