0, 0, Header, 0, 1, 96
1, 0, Start_track
1, 0, SMPTE_offset, 96, 0, 3, 0, 0
1, 0, MIDI_port, 0
1, 0, System_exclusive, 5, 126, 127, 9, 1, 247
1, 0, MIDI_port, 0
1, 0, Time_signature, 4, 2, 24, 8
1, 0, Key_signature, -3, "major"
1, 0, Tempo, 483871
1, 98, Program_c, 0, 0
1, 99, Control_c, 0, 7, 90
1, 99, Control_c, 0, 10, 88
1, 99, Control_c, 0, 11, 127
1, 100, Control_c, 0, 91, 60
1, 100, Control_c, 0, 93, 0
1, 103, Program_c, 1, 32
1, 104, Control_c, 1, 7, 105
1, 104, Control_c, 1, 10, 63
1, 104, Control_c, 1, 11, 127
1, 105, Control_c, 1, 91, 35
1, 105, Control_c, 1, 93, 0
1, 108, Program_c, 2, 27
1, 109, Control_c, 2, 7, 105
1, 109, Control_c, 2, 10, 35
1, 109, Control_c, 2, 11, 127
1, 110, Control_c, 2, 91, 50
1, 110, Control_c, 2, 93, 0
1, 113, Program_c, 3, 18
1, 114, Control_c, 3, 7, 100
1, 114, Control_c, 3, 10, 65
1, 114, Control_c, 3, 11, 127
1, 115, Control_c, 3, 93, 0
1, 115, Control_c, 3, 91, 55
1, 118, Program_c, 4, 73
1, 119, Control_c, 4, 7, 70
1, 119, Control_c, 4, 10, 57
1, 119, Control_c, 4, 11, 127
1, 120, Control_c, 4, 93, 0
1, 120, Control_c, 4, 91, 60
1, 123, Program_c, 5, 73
1, 124, Control_c, 5, 7, 70
1, 124, Control_c, 5, 10, 60
1, 124, Control_c, 5, 11, 127
1, 125, Control_c, 5, 93, 0
1, 125, Control_c, 5, 91, 60
1, 128, Program_c, 6, 48
1, 129, Control_c, 6, 7, 105
1, 129, Control_c, 6, 10, 51
1, 129, Control_c, 6, 11, 127
1, 130, Control_c, 6, 91, 60
1, 130, Control_c, 6, 93, 0
1, 133, Program_c, 7, 56
1, 134, Control_c, 7, 7, 95
1, 134, Control_c, 7, 10, 45
1, 134, Control_c, 7, 11, 127
1, 135, Control_c, 7, 91, 50
1, 135, Control_c, 7, 93, 0
1, 138, Program_c, 8, 57
1, 139, Control_c, 8, 7, 95
1, 139, Control_c, 8, 10, 30
1, 139, Control_c, 8, 11, 127
1, 140, Control_c, 8, 91, 50
1, 140, Control_c, 8, 93, 0
1, 144, Control_c, 9, 7, 105
1, 144, Control_c, 9, 11, 127
1, 145, Control_c, 9, 93, 0
1, 145, Control_c, 9, 91, 60
1, 148, Program_c, 10, 65
1, 149, Control_c, 10, 7, 55
1, 149, Control_c, 10, 10, 117
1, 149, Control_c, 10, 11, 127
1, 150, Control_c, 10, 93, 0
1, 150, Control_c, 10, 91, 50
1, 575, Note_on_c, 9, 38, 79
1, 575, Note_on_c, 9, 40, 122
1, 576, Note_on_c, 9, 40, 0
1, 576, Note_on_c, 9, 38, 0
1, 576, Control_c, 9, 1, 0
1, 576, Pitch_bend_c, 9, 8192
1, 647, Note_on_c, 9, 40, 122
1, 647, Note_on_c, 9, 38, 79
1, 648, Note_on_c, 9, 38, 0
1, 648, Note_on_c, 9, 40, 0
1, 671, Note_on_c, 9, 47, 114
1, 672, Note_on_c, 9, 47, 0
1, 719, Note_on_c, 9, 40, 122
1, 719, Note_on_c, 9, 38, 79
1, 720, Note_on_c, 9, 38, 0
1, 720, Note_on_c, 9, 40, 0
1, 768, Note_on_c, 0, 80, 109
1, 768, Note_on_c, 0, 84, 105
1, 768, Note_on_c, 0, 87, 104
1, 768, Note_on_c, 0, 75, 104
1, 768, Note_on_c, 1, 32, 93
1, 768, Note_on_c, 8, 56, 93
1, 768, Note_on_c, 8, 60, 94
1, 768, Note_on_c, 9, 42, 99
1, 768, Note_on_c, 9, 35, 106
1, 768, Note_on_c, 10, 56, 102
1, 768, Note_on_c, 10, 60, 103
1, 769, Note_on_c, 9, 35, 0
1, 769, Note_on_c, 9, 42, 0
1, 769, Control_c, 0, 1, 0
1, 769, Pitch_bend_c, 0, 8192
1, 769, Control_c, 1, 1, 0
1, 769, Pitch_bend_c, 1, 8192
1, 769, Note_on_c, 7, 63, 111
1, 769, Control_c, 8, 1, 0
1, 769, Pitch_bend_c, 8, 8192
1, 769, Control_c, 10, 1, 0
1, 769, Note_on_c, 10, 63, 120
1, 769, Pitch_bend_c, 10, 8192
1, 770, Pitch_bend_c, 7, 8192
1, 770, Control_c, 7, 1, 0
1, 815, Note_on_c, 9, 42, 43
1, 816, Note_on_c, 9, 42, 0
1, 849, Note_on_c, 1, 32, 0
1, 863, Note_on_c, 9, 38, 74
1, 863, Note_on_c, 9, 40, 117
1, 864, Note_on_c, 9, 40, 0
1, 864, Note_on_c, 9, 38, 0
1, 864, Note_on_c, 1, 32, 87
1, 864, Note_on_c, 9, 42, 110
1, 864, Note_on_c, 9, 54, 100
1, 865, Note_on_c, 9, 42, 0
1, 865, Control_c, 9, 1, 0
1, 865, Pitch_bend_c, 9, 8192
1, 874, Note_on_c, 9, 54, 0
1, 912, Note_on_c, 4, 56, 91
1, 912, Note_on_c, 9, 42, 68
1, 912, Note_on_c, 9, 35, 103
1, 913, Note_on_c, 9, 35, 0
1, 913, Note_on_c, 9, 42, 0
1, 913, Pitch_bend_c, 4, 8192
1, 913, Control_c, 4, 1, 0
1, 939, Note_on_c, 1, 32, 0
1, 959, Note_on_c, 9, 42, 93
1, 960, Note_on_c, 9, 42, 0
1, 960, Note_on_c, 1, 32, 81
1, 961, Note_on_c, 4, 56, 0
1, 961, Note_on_c, 4, 60, 88
1, 1007, Note_on_c, 9, 42, 54
1, 1007, Note_on_c, 9, 38, 52
1, 1007, Note_on_c, 9, 40, 95
1, 1008, Note_on_c, 9, 40, 0
1, 1008, Note_on_c, 4, 60, 0
1, 1008, Note_on_c, 9, 38, 0
1, 1008, Note_on_c, 9, 42, 0
1, 1008, Note_on_c, 4, 61, 80
1, 1035, Note_on_c, 1, 32, 0
1, 1055, Note_on_c, 4, 61, 0
1, 1055, Note_on_c, 4, 60, 80
1, 1055, Note_on_c, 9, 38, 74
1, 1055, Note_on_c, 9, 40, 117
1, 1056, Note_on_c, 9, 40, 0
1, 1056, Note_on_c, 9, 38, 0
1, 1056, Note_on_c, 1, 32, 77
1, 1056, Note_on_c, 9, 42, 110
1, 1056, Note_on_c, 9, 54, 97
1, 1057, Note_on_c, 9, 42, 0
1, 1066, Note_on_c, 9, 54, 0
1, 1103, Note_on_c, 4, 60, 0
1, 1103, Note_on_c, 4, 63, 81
1, 1104, Note_on_c, 9, 42, 51
1, 1104, Note_on_c, 9, 35, 97
1, 1105, Note_on_c, 9, 35, 0
1, 1105, Note_on_c, 9, 42, 0
1, 1126, Note_on_c, 7, 63, 0
1, 1126, Note_on_c, 10, 63, 0
1, 1127, Note_on_c, 0, 87, 0
1, 1127, Note_on_c, 0, 80, 0
1, 1127, Note_on_c, 0, 75, 0
1, 1127, Note_on_c, 10, 60, 0
1, 1127, Note_on_c, 0, 84, 0
1, 1127, Note_on_c, 8, 60, 0
1, 1128, Note_on_c, 8, 56, 0
1, 1128, Note_on_c, 10, 56, 0
1, 1132, Note_on_c, 1, 32, 0
1, 1151, Note_on_c, 0, 90, 101
1, 1151, Note_on_c, 0, 78, 109
1, 1151, Note_on_c, 0, 82, 101
1, 1151, Note_on_c, 7, 66, 107
1, 1151, Note_on_c, 9, 42, 84
1, 1151, Note_on_c, 10, 66, 116
1, 1152, Note_on_c, 9, 42, 0
1, 1152, Note_on_c, 0, 85, 87
1, 1152, Note_on_c, 1, 32, 87
1, 1152, Note_on_c, 8, 56, 75
1, 1152, Note_on_c, 8, 61, 95
1, 1152, Note_on_c, 9, 35, 104
1, 1152, Note_on_c, 10, 56, 84
1, 1152, Note_on_c, 10, 61, 104
1, 1153, Note_on_c, 9, 35, 0
1, 1200, Note_on_c, 9, 42, 53
1, 1201, Note_on_c, 9, 42, 0
1, 1225, Note_on_c, 1, 32, 0
1, 1247, Note_on_c, 9, 38, 76
1, 1247, Note_on_c, 9, 40, 119
1, 1248, Note_on_c, 9, 40, 0
1, 1248, Note_on_c, 9, 38, 0
1, 1248, Note_on_c, 1, 32, 71
1, 1248, Note_on_c, 9, 42, 113
1, 1248, Note_on_c, 9, 54, 97
1, 1249, Note_on_c, 9, 42, 0
1, 1259, Note_on_c, 9, 54, 0
1, 1287, Note_on_c, 0, 90, 0
1, 1292, Note_on_c, 0, 85, 0
1, 1293, Note_on_c, 0, 82, 0
1, 1295, Note_on_c, 9, 42, 58
1, 1296, Note_on_c, 9, 42, 0
1, 1296, Note_on_c, 4, 63, 0
1, 1296, Note_on_c, 0, 78, 0
1, 1296, Note_on_c, 4, 61, 90
1, 1296, Note_on_c, 9, 35, 103
1, 1297, Note_on_c, 9, 35, 0
1, 1321, Note_on_c, 7, 66, 0
1, 1321, Note_on_c, 10, 66, 0
1, 1326, Note_on_c, 10, 61, 0
1, 1326, Note_on_c, 8, 61, 0
1, 1327, Note_on_c, 1, 32, 0
1, 1328, Note_on_c, 10, 56, 0
1, 1328, Note_on_c, 8, 56, 0
1, 1343, Note_on_c, 0, 78, 91
1, 1343, Note_on_c, 0, 73, 111
1, 1343, Note_on_c, 0, 82, 88
1, 1343, Note_on_c, 0, 85, 95
1, 1343, Note_on_c, 9, 42, 103
1, 1344, Note_on_c, 9, 42, 0
1, 1344, Note_on_c, 1, 32, 71
1, 1344, Note_on_c, 7, 61, 116
1, 1344, Note_on_c, 8, 56, 77
1, 1344, Note_on_c, 8, 58, 98
1, 1344, Note_on_c, 10, 56, 86
1, 1344, Note_on_c, 10, 61, 120
1, 1344, Note_on_c, 10, 58, 107
1, 1345, Note_on_c, 4, 61, 0
1, 1345, Note_on_c, 4, 60, 84
1, 1389, Note_on_c, 0, 78, 0
1, 1389, Note_on_c, 0, 73, 0
1, 1390, Note_on_c, 10, 61, 0
1, 1390, Note_on_c, 7, 61, 0
1, 1391, Note_on_c, 0, 82, 0
1, 1391, Note_on_c, 9, 40, 96
1, 1391, Note_on_c, 9, 38, 53
1, 1392, Note_on_c, 9, 38, 0
1, 1392, Note_on_c, 9, 40, 0
1, 1392, Note_on_c, 4, 60, 0
1, 1392, Note_on_c, 4, 56, 85
1, 1392, Note_on_c, 9, 42, 52
1, 1393, Note_on_c, 9, 42, 0
1, 1394, Note_on_c, 8, 58, 0
1, 1394, Note_on_c, 10, 58, 0
1, 1398, Note_on_c, 0, 85, 0
1, 1399, Note_on_c, 8, 56, 0
1, 1399, Note_on_c, 10, 56, 0
1, 1428, Note_on_c, 1, 32, 0
1, 1439, Note_on_c, 0, 85, 99
1, 1439, Note_on_c, 0, 77, 96
1, 1439, Note_on_c, 0, 89, 112
1, 1439, Note_on_c, 0, 80, 100
1, 1439, Note_on_c, 8, 56, 88
1, 1439, Note_on_c, 8, 61, 103
1, 1439, Note_on_c, 9, 40, 116
1, 1439, Note_on_c, 9, 38, 73
1, 1439, Note_on_c, 10, 56, 97
1, 1439, Note_on_c, 10, 61, 112
1, 1440, Note_on_c, 9, 38, 0
1, 1440, Note_on_c, 9, 40, 0
1, 1440, Note_on_c, 1, 32, 77
1, 1440, Note_on_c, 7, 65, 117
1, 1440, Note_on_c, 9, 42, 76
1, 1440, Note_on_c, 9, 54, 97
1, 1440, Note_on_c, 10, 65, 124
1, 1441, Note_on_c, 9, 42, 0
1, 1455, Note_on_c, 9, 54, 0
1, 1481, Note_on_c, 7, 65, 0
1, 1481, Note_on_c, 10, 65, 0
1, 1484, Note_on_c, 8, 56, 0
1, 1484, Note_on_c, 10, 56, 0
1, 1488, Note_on_c, 0, 89, 0
1, 1488, Note_on_c, 0, 85, 0
1, 1488, Note_on_c, 0, 80, 0
1, 1488, Note_on_c, 9, 35, 96
1, 1488, Note_on_c, 9, 42, 47
1, 1489, Note_on_c, 9, 42, 0
1, 1489, Note_on_c, 9, 35, 0
1, 1490, Note_on_c, 0, 77, 0
1, 1494, Note_on_c, 10, 61, 0
1, 1494, Note_on_c, 8, 61, 0
1, 1514, Note_on_c, 1, 32, 0
1, 1535, Note_on_c, 0, 84, 105
1, 1535, Note_on_c, 0, 87, 104
1, 1535, Note_on_c, 0, 75, 104
1, 1535, Note_on_c, 0, 80, 109
1, 1535, Note_on_c, 8, 60, 109
1, 1535, Note_on_c, 9, 42, 101
1, 1535, Note_on_c, 10, 60, 118
1, 1536, Note_on_c, 9, 42, 0
1, 1536, Note_on_c, 1, 32, 84
1, 1536, Note_on_c, 7, 63, 110
1, 1536, Note_on_c, 8, 56, 86
1, 1536, Note_on_c, 9, 35, 104
1, 1536, Note_on_c, 10, 56, 95
1, 1536, Note_on_c, 10, 63, 116
1, 1537, Note_on_c, 9, 35, 0
1, 1548, Note_on_c, 4, 56, 0
1, 1584, Note_on_c, 9, 42, 48
1, 1585, Note_on_c, 9, 42, 0
1, 1612, Note_on_c, 1, 32, 0
1, 1631, Note_on_c, 9, 40, 117
1, 1631, Note_on_c, 9, 38, 74
1, 1632, Note_on_c, 9, 38, 0
1, 1632, Note_on_c, 9, 40, 0
1, 1632, Note_on_c, 1, 32, 77
1, 1632, Note_on_c, 9, 42, 110
1, 1632, Note_on_c, 9, 54, 103
1, 1633, Note_on_c, 9, 42, 0
1, 1644, Note_on_c, 9, 54, 0
1, 1678, Note_on_c, 4, 56, 92
1, 1679, Note_on_c, 6, 68, 72
1, 1679, Note_on_c, 9, 42, 67
1, 1680, Note_on_c, 9, 42, 0
1, 1680, Pitch_bend_c, 6, 8192
1, 1680, Control_c, 6, 1, 0
1, 1680, Note_on_c, 9, 35, 102
1, 1681, Note_on_c, 9, 35, 0
1, 1713, Note_on_c, 1, 32, 0
1, 1727, Note_on_c, 4, 56, 0
1, 1727, Note_on_c, 4, 60, 90
1, 1727, Note_on_c, 6, 72, 74
1, 1728, Note_on_c, 1, 32, 77
1, 1728, Note_on_c, 9, 42, 95
1, 1729, Note_on_c, 9, 42, 0
1, 1729, Note_on_c, 6, 68, 0
1, 1775, Note_on_c, 4, 60, 0
1, 1775, Note_on_c, 4, 61, 80
1, 1775, Note_on_c, 6, 73, 63
1, 1775, Note_on_c, 9, 42, 56
1, 1775, Note_on_c, 9, 38, 40
1, 1775, Note_on_c, 9, 40, 83
1, 1776, Note_on_c, 9, 40, 0
1, 1776, Note_on_c, 9, 38, 0
1, 1776, Note_on_c, 9, 42, 0
1, 1778, Note_on_c, 6, 72, 0
1, 1807, Note_on_c, 1, 32, 0
1, 1823, Note_on_c, 4, 61, 0
1, 1823, Note_on_c, 4, 60, 75
1, 1823, Note_on_c, 6, 72, 63
1, 1823, Note_on_c, 9, 38, 74
1, 1823, Note_on_c, 9, 40, 117
1, 1824, Note_on_c, 9, 40, 0
1, 1824, Note_on_c, 9, 38, 0
1, 1824, Note_on_c, 1, 32, 81
1, 1824, Note_on_c, 9, 54, 103
1, 1824, Note_on_c, 9, 42, 113
1, 1825, Note_on_c, 9, 42, 0
1, 1825, Note_on_c, 6, 73, 0
1, 1830, Note_on_c, 9, 54, 0
1, 1871, Note_on_c, 4, 60, 0
1, 1871, Note_on_c, 4, 63, 81
1, 1871, Note_on_c, 6, 73, 69
1, 1871, Note_on_c, 9, 42, 49
1, 1872, Note_on_c, 9, 42, 0
1, 1872, Note_on_c, 9, 35, 97
1, 1873, Note_on_c, 9, 35, 0
1, 1874, Note_on_c, 6, 72, 0
1, 1894, Note_on_c, 0, 75, 0
1, 1894, Note_on_c, 0, 80, 0
1, 1894, Note_on_c, 0, 84, 0
1, 1894, Note_on_c, 0, 87, 0
1, 1899, Note_on_c, 1, 32, 0
1, 1901, Note_on_c, 8, 60, 0
1, 1901, Note_on_c, 10, 60, 0
1, 1902, Note_on_c, 10, 56, 0
1, 1902, Note_on_c, 8, 56, 0
1, 1903, Note_on_c, 7, 63, 0
1, 1903, Note_on_c, 10, 63, 0
1, 1919, Note_on_c, 0, 82, 101
1, 1919, Note_on_c, 0, 78, 109
1, 1919, Note_on_c, 0, 90, 101
1, 1919, Note_on_c, 6, 75, 64
1, 1919, Note_on_c, 7, 66, 101
1, 1919, Note_on_c, 8, 56, 75
1, 1919, Note_on_c, 8, 61, 91
1, 1919, Note_on_c, 9, 42, 95
1, 1919, Note_on_c, 10, 66, 116
1, 1919, Note_on_c, 10, 61, 100
1, 1919, Note_on_c, 10, 56, 84
1, 1920, Note_on_c, 9, 42, 0
1, 1920, Note_on_c, 6, 73, 0
1, 1920, Note_on_c, 0, 85, 87
1, 1920, Note_on_c, 1, 32, 71
1, 1920, Note_on_c, 9, 35, 104
1, 1921, Note_on_c, 9, 35, 0
1, 1967, Note_on_c, 9, 42, 49
1, 1968, Note_on_c, 9, 42, 0
1, 1991, Note_on_c, 1, 32, 0
1, 2015, Note_on_c, 9, 38, 74
1, 2015, Note_on_c, 9, 40, 117
1, 2015, Note_on_c, 9, 42, 113
1, 2016, Note_on_c, 9, 42, 0
1, 2016, Note_on_c, 9, 40, 0
1, 2016, Note_on_c, 9, 38, 0
1, 2016, Note_on_c, 1, 32, 77
1, 2016, Note_on_c, 9, 54, 100
1, 2027, Note_on_c, 9, 54, 0
1, 2055, Note_on_c, 0, 90, 0
1, 2060, Note_on_c, 0, 85, 0
1, 2061, Note_on_c, 0, 82, 0
1, 2063, Note_on_c, 4, 63, 0
1, 2063, Note_on_c, 4, 61, 99
1, 2063, Note_on_c, 9, 42, 54
1, 2064, Note_on_c, 9, 42, 0
1, 2064, Note_on_c, 0, 78, 0
1, 2064, Note_on_c, 9, 35, 103
1, 2065, Note_on_c, 9, 35, 0
1, 2085, Note_on_c, 10, 66, 0
1, 2085, Note_on_c, 7, 66, 0
1, 2088, Note_on_c, 8, 61, 0
1, 2088, Note_on_c, 10, 61, 0
1, 2100, Note_on_c, 1, 32, 0
1, 2103, Note_on_c, 10, 56, 0
1, 2103, Note_on_c, 8, 56, 0
1, 2111, Note_on_c, 0, 78, 91
1, 2111, Note_on_c, 0, 85, 95
1, 2111, Note_on_c, 0, 82, 88
1, 2111, Note_on_c, 0, 73, 111
1, 2111, Note_on_c, 7, 61, 108
1, 2111, Note_on_c, 8, 58, 94
1, 2111, Note_on_c, 9, 42, 104
1, 2111, Note_on_c, 10, 61, 116
1, 2111, Note_on_c, 10, 58, 103
1, 2112, Note_on_c, 9, 42, 0
1, 2112, Note_on_c, 1, 32, 75
1, 2112, Note_on_c, 8, 56, 75
1, 2112, Note_on_c, 10, 56, 84
1, 2113, Note_on_c, 4, 61, 0
1, 2113, Note_on_c, 4, 60, 84
1, 2157, Note_on_c, 0, 73, 0
1, 2157, Note_on_c, 0, 78, 0
1, 2159, Note_on_c, 0, 82, 0
1, 2159, Note_on_c, 9, 38, 41
1, 2159, Note_on_c, 9, 42, 50
1, 2159, Note_on_c, 9, 40, 84
1, 2160, Note_on_c, 9, 40, 0
1, 2160, Note_on_c, 4, 60, 0
1, 2160, Note_on_c, 10, 61, 0
1, 2160, Note_on_c, 9, 42, 0
1, 2160, Note_on_c, 9, 38, 0
1, 2160, Note_on_c, 7, 61, 0
1, 2160, Note_on_c, 4, 56, 90
1, 2161, Note_on_c, 10, 56, 0
1, 2161, Note_on_c, 8, 56, 0
1, 2166, Note_on_c, 0, 85, 0
1, 2168, Note_on_c, 10, 58, 0
1, 2168, Note_on_c, 8, 58, 0
1, 2193, Note_on_c, 1, 32, 0
1, 2207, Note_on_c, 0, 80, 100
1, 2207, Note_on_c, 0, 77, 96
1, 2207, Note_on_c, 0, 85, 99
1, 2207, Note_on_c, 0, 89, 112
1, 2207, Note_on_c, 7, 65, 111
1, 2207, Note_on_c, 8, 56, 86
1, 2207, Note_on_c, 8, 61, 86
1, 2207, Note_on_c, 9, 38, 75
1, 2207, Note_on_c, 9, 42, 113
1, 2207, Note_on_c, 9, 40, 118
1, 2207, Note_on_c, 10, 61, 95
1, 2207, Note_on_c, 10, 65, 119
1, 2207, Note_on_c, 10, 56, 95
1, 2208, Note_on_c, 9, 40, 0
1, 2208, Note_on_c, 9, 38, 0
1, 2208, Note_on_c, 9, 42, 0
1, 2208, Note_on_c, 1, 32, 79
1, 2208, Note_on_c, 9, 54, 100
1, 2219, Note_on_c, 9, 54, 0
1, 2255, Note_on_c, 7, 65, 0
1, 2255, Note_on_c, 10, 65, 0
1, 2256, Note_on_c, 0, 80, 0
1, 2256, Note_on_c, 0, 89, 0
1, 2256, Note_on_c, 0, 85, 0
1, 2256, Note_on_c, 9, 35, 96
1, 2256, Note_on_c, 9, 42, 54
1, 2257, Note_on_c, 9, 42, 0
1, 2257, Note_on_c, 9, 35, 0
1, 2258, Note_on_c, 0, 77, 0
1, 2259, Note_on_c, 8, 56, 0
1, 2259, Note_on_c, 10, 56, 0
1, 2262, Note_on_c, 8, 61, 0
1, 2262, Note_on_c, 10, 61, 0
1, 2283, Note_on_c, 1, 32, 0
1, 2302, Note_on_c, 6, 75, 0
1, 2302, Note_on_c, 7, 63, 111
1, 2302, Note_on_c, 10, 63, 115
1, 2303, Note_on_c, 0, 80, 109
1, 2303, Note_on_c, 0, 75, 104
1, 2303, Note_on_c, 0, 87, 104
1, 2303, Note_on_c, 0, 84, 105
1, 2303, Note_on_c, 8, 56, 84
1, 2303, Note_on_c, 9, 42, 107
1, 2303, Note_on_c, 10, 56, 93
1, 2304, Note_on_c, 9, 42, 0
1, 2304, Note_on_c, 1, 32, 73
1, 2304, Note_on_c, 8, 60, 98
1, 2304, Note_on_c, 9, 35, 105
1, 2304, Note_on_c, 10, 60, 107
1, 2305, Note_on_c, 9, 35, 0
1, 2316, Note_on_c, 4, 56, 0
1, 2352, Note_on_c, 9, 42, 53
1, 2353, Note_on_c, 9, 42, 0
1, 2378, Note_on_c, 1, 32, 0
1, 2399, Note_on_c, 9, 38, 75
1, 2399, Note_on_c, 9, 40, 118
1, 2400, Note_on_c, 9, 40, 0
1, 2400, Note_on_c, 9, 38, 0
1, 2400, Note_on_c, 1, 32, 87
1, 2400, Note_on_c, 9, 42, 110
1, 2400, Note_on_c, 9, 54, 103
1, 2401, Note_on_c, 9, 42, 0
1, 2411, Note_on_c, 9, 54, 0
1, 2447, Note_on_c, 4, 56, 92
1, 2447, Note_on_c, 6, 68, 63
1, 2447, Note_on_c, 9, 42, 73
1, 2448, Note_on_c, 9, 42, 0
1, 2448, Note_on_c, 9, 35, 102
1, 2449, Note_on_c, 9, 35, 0
1, 2476, Note_on_c, 1, 32, 0
1, 2495, Note_on_c, 4, 56, 0
1, 2495, Note_on_c, 4, 60, 100
1, 2495, Note_on_c, 9, 42, 89
1, 2496, Note_on_c, 9, 42, 0
1, 2496, Note_on_c, 1, 32, 65
1, 2497, Note_on_c, 6, 72, 68
1, 2500, Note_on_c, 6, 68, 0
1, 2543, Note_on_c, 4, 60, 0
1, 2543, Note_on_c, 4, 61, 81
1, 2543, Note_on_c, 9, 38, 42
1, 2543, Note_on_c, 9, 42, 53
1, 2543, Note_on_c, 9, 40, 85
1, 2544, Note_on_c, 9, 40, 0
1, 2544, Note_on_c, 9, 42, 0
1, 2544, Note_on_c, 9, 38, 0
1, 2545, Note_on_c, 6, 73, 62
1, 2547, Note_on_c, 6, 72, 0
1, 2574, Note_on_c, 1, 32, 0
1, 2591, Note_on_c, 4, 61, 0
1, 2591, Note_on_c, 6, 73, 0
1, 2591, Note_on_c, 4, 60, 80
1, 2591, Note_on_c, 6, 72, 62
1, 2591, Note_on_c, 9, 38, 74
1, 2591, Note_on_c, 9, 40, 117
1, 2592, Note_on_c, 9, 40, 0
1, 2592, Note_on_c, 9, 38, 0
1, 2592, Note_on_c, 1, 32, 84
1, 2592, Note_on_c, 9, 54, 100
1, 2592, Note_on_c, 9, 42, 113
1, 2593, Note_on_c, 9, 42, 0
1, 2603, Note_on_c, 9, 54, 0
1, 2639, Note_on_c, 4, 60, 0
1, 2639, Note_on_c, 4, 63, 84
1, 2639, Note_on_c, 6, 73, 69
1, 2639, Note_on_c, 9, 42, 73
1, 2640, Note_on_c, 9, 42, 0
1, 2640, Note_on_c, 9, 35, 96
1, 2641, Note_on_c, 9, 35, 0
1, 2641, Note_on_c, 6, 72, 0
1, 2657, Note_on_c, 8, 60, 0
1, 2657, Note_on_c, 10, 60, 0
1, 2662, Note_on_c, 0, 75, 0
1, 2662, Note_on_c, 0, 80, 0
1, 2662, Note_on_c, 0, 84, 0
1, 2662, Note_on_c, 0, 87, 0
1, 2668, Note_on_c, 7, 63, 0
1, 2668, Note_on_c, 10, 63, 0
1, 2669, Note_on_c, 1, 32, 0
1, 2670, Note_on_c, 8, 56, 0
1, 2670, Note_on_c, 10, 56, 0
1, 2687, Note_on_c, 0, 78, 109
1, 2687, Note_on_c, 0, 90, 101
1, 2687, Note_on_c, 0, 82, 101
1, 2687, Note_on_c, 7, 66, 111
1, 2687, Note_on_c, 8, 61, 85
1, 2687, Note_on_c, 8, 56, 81
1, 2687, Note_on_c, 9, 42, 85
1, 2687, Note_on_c, 10, 66, 114
1, 2687, Note_on_c, 10, 56, 90
1, 2687, Note_on_c, 10, 61, 94
1, 2688, Note_on_c, 9, 42, 0
1, 2688, Note_on_c, 0, 85, 87
1, 2688, Note_on_c, 1, 32, 64
1, 2688, Note_on_c, 6, 68, 70
1, 2688, Note_on_c, 9, 35, 104
1, 2689, Note_on_c, 9, 35, 0
1, 2690, Note_on_c, 6, 73, 0
1, 2736, Note_on_c, 9, 42, 45
1, 2737, Note_on_c, 9, 42, 0
1, 2773, Note_on_c, 1, 32, 0
1, 2783, Note_on_c, 9, 40, 119
1, 2783, Note_on_c, 9, 42, 107
1, 2783, Note_on_c, 9, 38, 76
1, 2784, Note_on_c, 9, 38, 0
1, 2784, Note_on_c, 9, 42, 0
1, 2784, Note_on_c, 9, 40, 0
1, 2784, Note_on_c, 1, 32, 81
1, 2784, Note_on_c, 9, 54, 103
1, 2794, Note_on_c, 9, 54, 0
1, 2823, Note_on_c, 0, 90, 0
1, 2828, Note_on_c, 0, 85, 0
1, 2829, Note_on_c, 0, 82, 0
1, 2831, Note_on_c, 4, 63, 0
1, 2831, Note_on_c, 4, 61, 90
1, 2832, Note_on_c, 0, 78, 0
1, 2832, Note_on_c, 9, 35, 103
1, 2832, Note_on_c, 9, 42, 71
1, 2833, Note_on_c, 9, 42, 0
1, 2833, Note_on_c, 9, 35, 0
1, 2858, Note_on_c, 1, 32, 0
1, 2861, Note_on_c, 10, 66, 0
1, 2861, Note_on_c, 7, 66, 0
1, 2862, Note_on_c, 10, 61, 0
1, 2862, Note_on_c, 8, 61, 0
1, 2865, Note_on_c, 10, 56, 0
1, 2865, Note_on_c, 8, 56, 0
1, 2879, Note_on_c, 0, 78, 91
1, 2879, Note_on_c, 0, 85, 95
1, 2879, Note_on_c, 0, 82, 88
1, 2879, Note_on_c, 0, 73, 111
1, 2879, Note_on_c, 7, 61, 107
1, 2879, Note_on_c, 8, 56, 82
1, 2879, Note_on_c, 9, 42, 85
1, 2879, Note_on_c, 10, 61, 116
1, 2879, Note_on_c, 10, 56, 91
1, 2880, Note_on_c, 9, 42, 0
1, 2880, Note_on_c, 4, 61, 0
1, 2880, Note_on_c, 1, 32, 73
1, 2880, Note_on_c, 4, 60, 84
1, 2880, Note_on_c, 8, 58, 95
1, 2880, Note_on_c, 10, 58, 104
1, 2925, Note_on_c, 0, 73, 0
1, 2925, Note_on_c, 0, 78, 0
1, 2927, Note_on_c, 4, 60, 0
1, 2927, Note_on_c, 0, 82, 0
1, 2927, Note_on_c, 10, 61, 0
1, 2927, Note_on_c, 7, 61, 0
1, 2927, Note_on_c, 4, 56, 75
1, 2927, Note_on_c, 9, 42, 46
1, 2927, Note_on_c, 9, 38, 46
1, 2927, Note_on_c, 9, 40, 89
1, 2928, Note_on_c, 9, 40, 0
1, 2928, Note_on_c, 9, 38, 0
1, 2928, Note_on_c, 9, 42, 0
1, 2934, Note_on_c, 0, 85, 0
1, 2935, Note_on_c, 8, 56, 0
1, 2935, Note_on_c, 10, 56, 0
1, 2936, Note_on_c, 8, 58, 0
1, 2936, Note_on_c, 10, 58, 0
1, 2963, Note_on_c, 1, 32, 0
1, 2975, Note_on_c, 0, 80, 100
1, 2975, Note_on_c, 0, 77, 96
1, 2975, Note_on_c, 0, 85, 99
1, 2975, Note_on_c, 0, 89, 112
1, 2975, Note_on_c, 7, 65, 116
1, 2975, Note_on_c, 8, 56, 79
1, 2975, Note_on_c, 9, 40, 118
1, 2975, Note_on_c, 9, 38, 75
1, 2975, Note_on_c, 10, 56, 88
1, 2975, Note_on_c, 10, 65, 125
1, 2976, Note_on_c, 9, 38, 0
1, 2976, Note_on_c, 9, 40, 0
1, 2976, Note_on_c, 1, 32, 73
1, 2976, Note_on_c, 8, 61, 87
1, 2976, Note_on_c, 9, 54, 103
1, 2976, Note_on_c, 9, 42, 113
1, 2976, Note_on_c, 10, 61, 96
1, 2977, Note_on_c, 9, 42, 0
1, 2987, Note_on_c, 9, 54, 0
1, 3017, Note_on_c, 10, 65, 0
1, 3017, Note_on_c, 7, 65, 0
1, 3022, Note_on_c, 8, 56, 0
1, 3022, Note_on_c, 10, 56, 0
1, 3024, Note_on_c, 0, 80, 0
1, 3024, Note_on_c, 0, 89, 0
1, 3024, Note_on_c, 0, 85, 0
1, 3024, Note_on_c, 9, 42, 58
1, 3024, Note_on_c, 9, 35, 96
1, 3025, Note_on_c, 9, 35, 0
1, 3025, Note_on_c, 9, 42, 0
1, 3026, Note_on_c, 0, 77, 0
1, 3029, Note_on_c, 8, 61, 0
1, 3029, Note_on_c, 10, 61, 0
1, 3047, Note_on_c, 1, 32, 0
1, 3065, Note_on_c, 0, 72, 83
1, 3069, Note_on_c, 0, 75, 94
1, 3072, Note_on_c, 1, 32, 99
1, 3072, Note_on_c, 8, 60, 84
1, 3072, Note_on_c, 8, 56, 74
1, 3072, Note_on_c, 9, 42, 99
1, 3072, Note_on_c, 9, 35, 106
1, 3072, Note_on_c, 10, 60, 93
1, 3072, Note_on_c, 10, 56, 83
1, 3073, Note_on_c, 9, 35, 0
1, 3073, Note_on_c, 9, 42, 0
1, 3073, Note_on_c, 7, 63, 90
1, 3073, Note_on_c, 10, 63, 99
1, 3076, Note_on_c, 6, 68, 0
1, 3077, Note_on_c, 0, 80, 105
1, 3081, Note_on_c, 0, 84, 70
1, 3088, Note_on_c, 4, 56, 0
1, 3119, Note_on_c, 9, 42, 43
1, 3120, Note_on_c, 9, 42, 0
1, 3136, Note_on_c, 1, 32, 0
1, 3167, Note_on_c, 9, 38, 76
1, 3167, Note_on_c, 9, 40, 119
1, 3168, Note_on_c, 9, 40, 0
1, 3168, Note_on_c, 9, 38, 0
1, 3168, Note_on_c, 1, 32, 96
1, 3168, Note_on_c, 2, 65, 73
1, 3168, Note_on_c, 2, 56, 58
1, 3168, Note_on_c, 2, 60, 78
1, 3168, Note_on_c, 9, 54, 100
1, 3168, Note_on_c, 9, 42, 110
1, 3169, Note_on_c, 9, 42, 0
1, 3169, Control_c, 2, 1, 0
1, 3169, Pitch_bend_c, 2, 8192
1, 3178, Note_on_c, 9, 54, 0
1, 3193, Note_on_c, 2, 56, 0
1, 3196, Note_on_c, 2, 65, 0
1, 3196, Note_on_c, 2, 60, 0
1, 3213, Pitch_bend_c, 3, 2809
1, 3213, Note_on_c, 3, 72, 106
1, 3214, Control_c, 3, 1, 0
1, 3216, Note_on_c, 9, 35, 105
1, 3216, Note_on_c, 9, 42, 68
1, 3217, Note_on_c, 9, 42, 0
1, 3217, Note_on_c, 9, 35, 0
1, 3220, Pitch_bend_c, 3, 2224
1, 3240, Note_on_c, 1, 32, 0
1, 3241, Pitch_bend_c, 3, 2458
1, 3244, Pitch_bend_c, 3, 2809
1, 3247, Pitch_bend_c, 3, 3043
1, 3251, Pitch_bend_c, 3, 3277
1, 3254, Pitch_bend_c, 3, 3628
1, 3255, Pitch_bend_c, 3, 3862
1, 3260, Pitch_bend_c, 3, 4213
1, 3263, Pitch_bend_c, 3, 4447
1, 3263, Note_on_c, 9, 42, 93
1, 3264, Note_on_c, 9, 42, 0
1, 3264, Note_on_c, 1, 32, 79
1, 3267, Pitch_bend_c, 3, 4798
1, 3269, Pitch_bend_c, 3, 5032
1, 3272, Pitch_bend_c, 3, 5266
1, 3275, Pitch_bend_c, 3, 5500
1, 3277, Pitch_bend_c, 3, 5851
1, 3281, Pitch_bend_c, 3, 6202
1, 3283, Pitch_bend_c, 3, 6553
1, 3289, Pitch_bend_c, 3, 6787
1, 3291, Pitch_bend_c, 3, 7138
1, 3293, Pitch_bend_c, 3, 7489
1, 3297, Pitch_bend_c, 3, 7723
1, 3301, Pitch_bend_c, 3, 8074
1, 3303, Pitch_bend_c, 3, 8192
1, 3311, Note_on_c, 9, 42, 54
1, 3311, Note_on_c, 9, 38, 56
1, 3311, Note_on_c, 9, 40, 99
1, 3312, Note_on_c, 9, 40, 0
1, 3312, Note_on_c, 9, 38, 0
1, 3312, Note_on_c, 9, 42, 0
1, 3313, Note_on_c, 3, 72, 0
1, 3314, Note_on_c, 3, 70, 88
1, 3341, Note_on_c, 1, 32, 0
1, 3359, Note_on_c, 2, 56, 63
1, 3359, Note_on_c, 2, 65, 80
1, 3359, Note_on_c, 9, 38, 76
1, 3359, Note_on_c, 9, 40, 119
1, 3360, Note_on_c, 9, 40, 0
1, 3360, Note_on_c, 9, 38, 0
1, 3360, Note_on_c, 1, 32, 73
1, 3360, Note_on_c, 2, 60, 80
1, 3360, Note_on_c, 9, 54, 97
1, 3360, Note_on_c, 9, 42, 110
1, 3361, Note_on_c, 9, 42, 0
1, 3370, Note_on_c, 9, 54, 0
1, 3382, Note_on_c, 8, 56, 0
1, 3382, Note_on_c, 10, 56, 0
1, 3383, Note_on_c, 10, 60, 0
1, 3383, Note_on_c, 2, 56, 0
1, 3383, Note_on_c, 8, 60, 0
1, 3384, Note_on_c, 2, 60, 0
1, 3384, Note_on_c, 2, 65, 0
1, 3393, Note_on_c, 7, 63, 0
1, 3393, Note_on_c, 10, 63, 0
1, 3400, Note_on_c, 1, 32, 0
1, 3407, Note_on_c, 2, 65, 61
1, 3408, Note_on_c, 1, 36, 92
1, 3408, Note_on_c, 9, 35, 96
1, 3408, Note_on_c, 9, 42, 51
1, 3409, Note_on_c, 9, 42, 0
1, 3409, Note_on_c, 9, 35, 0
1, 3409, Note_on_c, 2, 60, 60
1, 3409, Note_on_c, 2, 56, 30
1, 3419, Note_on_c, 0, 84, 0
1, 3421, Note_on_c, 2, 56, 0
1, 3424, Note_on_c, 0, 80, 0
1, 3425, Note_on_c, 0, 75, 0
1, 3425, Note_on_c, 2, 60, 0
1, 3426, Note_on_c, 2, 65, 0
1, 3427, Note_on_c, 0, 72, 0
1, 3431, Note_on_c, 3, 70, 0
1, 3432, Note_on_c, 3, 72, 88
1, 3446, Note_on_c, 0, 73, 77
1, 3449, Note_on_c, 1, 36, 0
1, 3451, Note_on_c, 0, 77, 84
1, 3455, Note_on_c, 9, 42, 84
1, 3456, Note_on_c, 9, 42, 0
1, 3456, Note_on_c, 1, 37, 93
1, 3456, Note_on_c, 9, 35, 104
1, 3457, Note_on_c, 9, 35, 0
1, 3462, Note_on_c, 0, 80, 99
1, 3464, Note_on_c, 0, 84, 88
1, 3503, Note_on_c, 3, 72, 0
1, 3504, Note_on_c, 3, 75, 101
1, 3504, Note_on_c, 9, 42, 53
1, 3505, Note_on_c, 9, 42, 0
1, 3531, Note_on_c, 1, 37, 0
1, 3551, Note_on_c, 2, 65, 90
1, 3551, Note_on_c, 2, 56, 75
1, 3551, Note_on_c, 2, 60, 90
1, 3551, Note_on_c, 9, 38, 76
1, 3551, Note_on_c, 9, 40, 119
1, 3552, Note_on_c, 9, 40, 0
1, 3552, Note_on_c, 9, 38, 0
1, 3552, Note_on_c, 1, 37, 93
1, 3552, Note_on_c, 9, 42, 113
1, 3552, Note_on_c, 9, 54, 97
1, 3553, Note_on_c, 9, 42, 0
1, 3563, Note_on_c, 9, 54, 0
1, 3576, Note_on_c, 2, 65, 0
1, 3577, Note_on_c, 2, 56, 0
1, 3578, Note_on_c, 2, 60, 0
1, 3599, Note_on_c, 3, 75, 0
1, 3599, Note_on_c, 9, 42, 58
1, 3600, Note_on_c, 9, 42, 0
1, 3600, Note_on_c, 2, 65, 61
1, 3600, Note_on_c, 3, 72, 90
1, 3600, Note_on_c, 9, 35, 105
1, 3601, Note_on_c, 9, 35, 0
1, 3601, Note_on_c, 2, 56, 37
1, 3601, Note_on_c, 2, 60, 65
1, 3617, Note_on_c, 2, 60, 0
1, 3617, Note_on_c, 2, 56, 0
1, 3619, Note_on_c, 2, 65, 0
1, 3629, Note_on_c, 1, 37, 0
1, 3647, Note_on_c, 9, 42, 103
1, 3648, Note_on_c, 9, 42, 0
1, 3648, Note_on_c, 1, 37, 90
1, 3695, Note_on_c, 3, 72, 0
1, 3695, Note_on_c, 8, 56, 77
1, 3695, Note_on_c, 9, 38, 52
1, 3695, Note_on_c, 9, 40, 95
1, 3695, Note_on_c, 10, 56, 86
1, 3696, Note_on_c, 9, 40, 0
1, 3696, Note_on_c, 9, 38, 0
1, 3696, Note_on_c, 3, 68, 100
1, 3696, Note_on_c, 7, 60, 84
1, 3696, Note_on_c, 8, 51, 80
1, 3696, Note_on_c, 9, 42, 52
1, 3696, Note_on_c, 10, 60, 93
1, 3696, Note_on_c, 10, 51, 89
1, 3697, Note_on_c, 9, 42, 0
1, 3698, Note_on_c, 2, 60, 52
1, 3698, Note_on_c, 2, 65, 52
1, 3698, Note_on_c, 2, 56, 52
1, 3711, Note_on_c, 2, 56, 0
1, 3711, Note_on_c, 2, 65, 0
1, 3711, Note_on_c, 2, 60, 0
1, 3713, Note_on_c, 10, 60, 0
1, 3713, Note_on_c, 7, 60, 0
1, 3715, Note_on_c, 10, 56, 0
1, 3715, Note_on_c, 8, 56, 0
1, 3717, Note_on_c, 8, 51, 0
1, 3717, Note_on_c, 10, 51, 0
1, 3733, Note_on_c, 1, 37, 0
1, 3736, Note_on_c, 3, 68, 0
1, 3743, Note_on_c, 9, 38, 76
1, 3743, Note_on_c, 9, 40, 119
1, 3744, Note_on_c, 9, 40, 0
1, 3744, Note_on_c, 9, 38, 0
1, 3744, Note_on_c, 1, 37, 81
1, 3744, Note_on_c, 3, 68, 93
1, 3744, Note_on_c, 9, 42, 104
1, 3744, Note_on_c, 9, 54, 97
1, 3745, Note_on_c, 9, 42, 0
1, 3745, Note_on_c, 2, 60, 97
1, 3745, Note_on_c, 2, 65, 94
1, 3745, Note_on_c, 2, 56, 82
1, 3759, Note_on_c, 9, 54, 0
1, 3765, Note_on_c, 2, 65, 0
1, 3766, Note_on_c, 2, 60, 0
1, 3768, Note_on_c, 2, 56, 0
1, 3784, Note_on_c, 1, 37, 0
1, 3792, Note_on_c, 1, 37, 90
1, 3792, Note_on_c, 2, 56, 57
1, 3792, Note_on_c, 2, 65, 57
1, 3792, Note_on_c, 9, 42, 64
1, 3792, Note_on_c, 9, 35, 96
1, 3793, Note_on_c, 9, 35, 0
1, 3793, Note_on_c, 9, 42, 0
1, 3793, Note_on_c, 2, 60, 57
1, 3804, Note_on_c, 0, 77, 0
1, 3805, Note_on_c, 0, 84, 0
1, 3808, Note_on_c, 0, 73, 0
1, 3808, Note_on_c, 0, 80, 0
1, 3812, Note_on_c, 2, 56, 0
1, 3813, Note_on_c, 2, 60, 0
1, 3814, Note_on_c, 2, 65, 0
1, 3825, Note_on_c, 3, 68, 0
1, 3828, Note_on_c, 0, 72, 79
1, 3834, Note_on_c, 1, 37, 0
1, 3837, Note_on_c, 0, 75, 90
1, 3839, Note_on_c, 0, 80, 109
1, 3840, Note_on_c, 1, 32, 93
1, 3840, Note_on_c, 9, 35, 106
1, 3840, Note_on_c, 9, 42, 99
1, 3841, Note_on_c, 9, 42, 0
1, 3841, Note_on_c, 9, 35, 0
1, 3844, Note_on_c, 0, 84, 95
1, 3887, Note_on_c, 9, 42, 43
1, 3888, Note_on_c, 9, 42, 0
1, 3891, Pitch_bend_c, 3, 9245
1, 3894, Pitch_bend_c, 3, 13457
1, 3898, Pitch_bend_c, 3, 16383
1, 3922, Note_on_c, 1, 32, 0
1, 3935, Note_on_c, 9, 38, 74
1, 3935, Note_on_c, 9, 40, 117
1, 3936, Note_on_c, 9, 40, 0
1, 3936, Note_on_c, 9, 38, 0
1, 3936, Note_on_c, 1, 32, 93
1, 3936, Note_on_c, 2, 60, 78
1, 3936, Note_on_c, 2, 56, 58
1, 3936, Note_on_c, 2, 65, 73
1, 3936, Note_on_c, 9, 54, 103
1, 3936, Note_on_c, 9, 42, 110
1, 3937, Note_on_c, 9, 42, 0
1, 3940, Note_on_c, 3, 70, 96
1, 3948, Note_on_c, 9, 54, 0
1, 3961, Note_on_c, 2, 56, 0
1, 3964, Note_on_c, 2, 65, 0
1, 3964, Note_on_c, 2, 60, 0
1, 3984, Note_on_c, 9, 35, 105
1, 3984, Note_on_c, 9, 42, 68
1, 3985, Note_on_c, 9, 42, 0
1, 3985, Note_on_c, 9, 35, 0
1, 3991, Pitch_bend_c, 3, 15914
1, 3994, Pitch_bend_c, 3, 12872
1, 3997, Pitch_bend_c, 3, 9362
1, 4000, Pitch_bend_c, 3, 8192
1, 4006, Note_on_c, 1, 32, 0
1, 4031, Note_on_c, 9, 42, 93
1, 4032, Note_on_c, 9, 42, 0
1, 4032, Note_on_c, 1, 32, 84
1, 4077, Note_on_c, 3, 70, 0
1, 4079, Note_on_c, 9, 38, 52
1, 4079, Note_on_c, 9, 40, 95
1, 4079, Note_on_c, 9, 42, 54
1, 4080, Note_on_c, 9, 42, 0
1, 4080, Note_on_c, 9, 40, 0
1, 4080, Note_on_c, 9, 38, 0
1, 4085, Note_on_c, 3, 70, 84
1, 4105, Note_on_c, 1, 32, 0
1, 4127, Note_on_c, 3, 70, 0
1, 4127, Note_on_c, 2, 65, 80
1, 4127, Note_on_c, 2, 56, 63
1, 4127, Note_on_c, 9, 40, 119
1, 4127, Note_on_c, 9, 38, 76
1, 4128, Note_on_c, 9, 38, 0
1, 4128, Note_on_c, 9, 40, 0
1, 4128, Note_on_c, 1, 32, 73
1, 4128, Note_on_c, 2, 60, 80
1, 4128, Note_on_c, 9, 54, 103
1, 4128, Note_on_c, 9, 42, 110
1, 4129, Note_on_c, 9, 42, 0
1, 4134, Note_on_c, 9, 54, 0
1, 4135, Note_on_c, 3, 70, 89
1, 4151, Note_on_c, 2, 56, 0
1, 4152, Note_on_c, 2, 60, 0
1, 4152, Note_on_c, 2, 65, 0
1, 4168, Note_on_c, 1, 32, 0
1, 4175, Note_on_c, 2, 65, 61
1, 4176, Note_on_c, 1, 36, 91
1, 4176, Note_on_c, 9, 42, 51
1, 4176, Note_on_c, 9, 35, 96
1, 4177, Note_on_c, 9, 35, 0
1, 4177, Note_on_c, 9, 42, 0
1, 4177, Note_on_c, 2, 56, 30
1, 4177, Note_on_c, 2, 60, 60
1, 4189, Note_on_c, 2, 56, 0
1, 4192, Note_on_c, 0, 80, 0
1, 4193, Note_on_c, 2, 60, 0
1, 4194, Note_on_c, 0, 84, 0
1, 4194, Note_on_c, 2, 65, 0
1, 4196, Note_on_c, 0, 75, 0
1, 4196, Note_on_c, 0, 72, 0
1, 4212, Note_on_c, 3, 70, 0
1, 4215, Note_on_c, 0, 73, 68
1, 4221, Note_on_c, 1, 36, 0
1, 4221, Note_on_c, 0, 77, 82
1, 4223, Note_on_c, 9, 42, 84
1, 4224, Note_on_c, 9, 42, 0
1, 4224, Note_on_c, 0, 80, 107
1, 4224, Note_on_c, 1, 37, 96
1, 4224, Note_on_c, 3, 68, 108
1, 4224, Pitch_bend_c, 3, 16383
1, 4224, Note_on_c, 9, 35, 106
1, 4225, Note_on_c, 9, 35, 0
1, 4230, Note_on_c, 0, 84, 90
1, 4272, Note_on_c, 9, 42, 53
1, 4273, Note_on_c, 9, 42, 0
1, 4285, Pitch_bend_c, 3, 14510
1, 4288, Pitch_bend_c, 3, 10649
1, 4292, Pitch_bend_c, 3, 8192
1, 4302, Note_on_c, 1, 37, 0
1, 4319, Note_on_c, 2, 60, 90
1, 4319, Note_on_c, 2, 56, 75
1, 4319, Note_on_c, 2, 65, 90
1, 4319, Note_on_c, 9, 38, 76
1, 4319, Note_on_c, 9, 40, 119
1, 4320, Note_on_c, 9, 40, 0
1, 4320, Note_on_c, 9, 38, 0
1, 4320, Note_on_c, 1, 37, 90
1, 4320, Note_on_c, 9, 42, 113
1, 4320, Note_on_c, 9, 54, 100
1, 4321, Note_on_c, 9, 42, 0
1, 4331, Note_on_c, 9, 54, 0
1, 4344, Note_on_c, 2, 65, 0
1, 4345, Note_on_c, 2, 56, 0
1, 4346, Note_on_c, 2, 60, 0
1, 4360, Note_on_c, 3, 68, 0
1, 4367, Note_on_c, 9, 42, 58
1, 4368, Note_on_c, 9, 42, 0
1, 4368, Note_on_c, 2, 65, 61
1, 4368, Note_on_c, 3, 72, 95
1, 4368, Note_on_c, 7, 60, 84
1, 4368, Note_on_c, 8, 51, 80
1, 4368, Note_on_c, 8, 56, 77
1, 4368, Note_on_c, 9, 35, 104
1, 4368, Note_on_c, 10, 51, 89
1, 4368, Note_on_c, 10, 60, 93
1, 4368, Note_on_c, 10, 56, 86
1, 4369, Note_on_c, 9, 35, 0
1, 4369, Note_on_c, 2, 60, 65
1, 4369, Note_on_c, 2, 56, 37
1, 4385, Note_on_c, 2, 56, 0
1, 4385, Note_on_c, 10, 60, 0
1, 4385, Note_on_c, 2, 60, 0
1, 4385, Note_on_c, 7, 60, 0
1, 4387, Note_on_c, 2, 65, 0
1, 4388, Note_on_c, 8, 56, 0
1, 4388, Note_on_c, 10, 56, 0
1, 4389, Note_on_c, 8, 51, 0
1, 4389, Note_on_c, 10, 51, 0
1, 4394, Note_on_c, 1, 37, 0
1, 4415, Note_on_c, 9, 42, 103
1, 4416, Note_on_c, 9, 42, 0
1, 4416, Note_on_c, 1, 37, 84
1, 4463, Note_on_c, 3, 72, 0
1, 4463, Note_on_c, 8, 56, 77
1, 4463, Note_on_c, 9, 38, 54
1, 4463, Note_on_c, 9, 40, 97
1, 4463, Note_on_c, 10, 56, 86
1, 4464, Note_on_c, 9, 40, 0
1, 4464, Note_on_c, 9, 38, 0
1, 4464, Note_on_c, 3, 68, 90
1, 4464, Note_on_c, 7, 60, 84
1, 4464, Note_on_c, 8, 51, 80
1, 4464, Note_on_c, 9, 42, 52
1, 4464, Note_on_c, 10, 51, 89
1, 4464, Note_on_c, 10, 60, 93
1, 4465, Note_on_c, 9, 42, 0
1, 4466, Note_on_c, 2, 65, 52
1, 4466, Note_on_c, 2, 60, 52
1, 4466, Note_on_c, 2, 56, 52
1, 4479, Note_on_c, 2, 56, 0
1, 4479, Note_on_c, 2, 60, 0
1, 4479, Note_on_c, 2, 65, 0
1, 4481, Note_on_c, 10, 60, 0
1, 4481, Note_on_c, 7, 60, 0
1, 4483, Note_on_c, 10, 56, 0
1, 4483, Note_on_c, 8, 56, 0
1, 4485, Note_on_c, 8, 51, 0
1, 4485, Note_on_c, 10, 51, 0
1, 4505, Note_on_c, 3, 68, 0
1, 4505, Note_on_c, 1, 37, 0
1, 4510, Note_on_c, 0, 58, 101
1, 4511, Note_on_c, 0, 70, 110
1, 4511, Note_on_c, 0, 82, 110
1, 4511, Note_on_c, 9, 40, 119
1, 4511, Note_on_c, 9, 38, 76
1, 4512, Note_on_c, 9, 38, 0
1, 4512, Note_on_c, 9, 40, 0
1, 4512, Note_on_c, 1, 37, 87
1, 4512, Note_on_c, 3, 68, 80
1, 4512, Note_on_c, 9, 42, 104
1, 4512, Note_on_c, 9, 54, 100
1, 4513, Note_on_c, 9, 42, 0
1, 4513, Note_on_c, 2, 65, 94
1, 4513, Note_on_c, 2, 56, 82
1, 4513, Note_on_c, 2, 60, 97
1, 4523, Note_on_c, 9, 54, 0
1, 4533, Note_on_c, 2, 65, 0
1, 4534, Note_on_c, 2, 60, 0
1, 4536, Note_on_c, 2, 56, 0
1, 4549, Note_on_c, 1, 37, 0
1, 4560, Note_on_c, 1, 37, 93
1, 4560, Note_on_c, 2, 56, 57
1, 4560, Note_on_c, 2, 65, 57
1, 4560, Note_on_c, 7, 60, 84
1, 4560, Note_on_c, 8, 56, 77
1, 4560, Note_on_c, 8, 51, 80
1, 4560, Note_on_c, 9, 42, 64
1, 4560, Note_on_c, 9, 35, 96
1, 4560, Note_on_c, 10, 56, 86
1, 4560, Note_on_c, 10, 60, 93
1, 4560, Note_on_c, 10, 51, 89
1, 4561, Note_on_c, 9, 35, 0
1, 4561, Note_on_c, 9, 42, 0
1, 4561, Note_on_c, 2, 60, 57
1, 4577, Note_on_c, 10, 60, 0
1, 4577, Note_on_c, 7, 60, 0
1, 4580, Note_on_c, 10, 56, 0
1, 4580, Note_on_c, 2, 56, 0
1, 4580, Note_on_c, 8, 56, 0
1, 4581, Note_on_c, 2, 60, 0
1, 4581, Note_on_c, 0, 84, 0
1, 4581, Note_on_c, 10, 51, 0
1, 4581, Note_on_c, 8, 51, 0
1, 4582, Note_on_c, 2, 65, 0
1, 4583, Note_on_c, 3, 68, 0
1, 4584, Note_on_c, 0, 73, 0
1, 4586, Note_on_c, 0, 80, 0
1, 4587, Note_on_c, 0, 77, 0
1, 4599, Note_on_c, 1, 37, 0
1, 4601, Note_on_c, 0, 72, 78
1, 4606, Note_on_c, 0, 82, 0
1, 4607, Note_on_c, 0, 75, 87
1, 4608, Note_on_c, 1, 32, 96
1, 4608, Note_on_c, 9, 35, 106
1, 4608, Note_on_c, 9, 42, 99
1, 4609, Note_on_c, 9, 42, 0
1, 4609, Note_on_c, 9, 35, 0
1, 4610, Note_on_c, 0, 70, 0
1, 4612, Note_on_c, 0, 58, 0
1, 4613, Note_on_c, 0, 80, 94
1, 4621, Note_on_c, 0, 84, 80
1, 4655, Note_on_c, 9, 42, 43
1, 4656, Note_on_c, 9, 42, 0
1, 4687, Note_on_c, 1, 32, 0
1, 4703, Note_on_c, 9, 38, 74
1, 4703, Note_on_c, 9, 40, 117
1, 4704, Note_on_c, 9, 40, 0
1, 4704, Note_on_c, 9, 38, 0
1, 4704, Note_on_c, 1, 32, 90
1, 4704, Note_on_c, 2, 60, 78
1, 4704, Note_on_c, 2, 65, 73
1, 4704, Note_on_c, 2, 56, 58
1, 4704, Note_on_c, 9, 54, 103
1, 4704, Note_on_c, 9, 42, 110
1, 4705, Note_on_c, 9, 42, 0
1, 4715, Note_on_c, 9, 54, 0
1, 4729, Note_on_c, 2, 56, 0
1, 4732, Note_on_c, 2, 65, 0
1, 4732, Note_on_c, 2, 60, 0
1, 4752, Note_on_c, 9, 35, 104
1, 4752, Note_on_c, 9, 42, 68
1, 4753, Note_on_c, 9, 42, 0
1, 4753, Note_on_c, 9, 35, 0
1, 4761, Note_on_c, 3, 72, 104
1, 4782, Note_on_c, 1, 32, 0
1, 4799, Note_on_c, 9, 42, 93
1, 4800, Note_on_c, 9, 42, 0
1, 4800, Note_on_c, 1, 32, 81
1, 4847, Note_on_c, 9, 40, 95
1, 4847, Note_on_c, 9, 38, 52
1, 4847, Note_on_c, 9, 42, 54
1, 4848, Note_on_c, 9, 42, 0
1, 4848, Note_on_c, 9, 38, 0
1, 4848, Note_on_c, 9, 40, 0
1, 4850, Note_on_c, 3, 72, 0
1, 4856, Note_on_c, 3, 72, 93
1, 4881, Note_on_c, 1, 32, 0
1, 4895, Note_on_c, 2, 65, 80
1, 4895, Note_on_c, 2, 56, 63
1, 4895, Note_on_c, 9, 38, 74
1, 4895, Note_on_c, 9, 40, 117
1, 4896, Note_on_c, 9, 40, 0
1, 4896, Note_on_c, 9, 38, 0
1, 4896, Note_on_c, 1, 32, 77
1, 4896, Note_on_c, 2, 60, 80
1, 4896, Note_on_c, 9, 42, 110
1, 4896, Note_on_c, 9, 54, 100
1, 4897, Note_on_c, 9, 42, 0
1, 4907, Note_on_c, 9, 54, 0
1, 4919, Note_on_c, 2, 56, 0
1, 4920, Note_on_c, 2, 60, 0
1, 4920, Note_on_c, 2, 65, 0
1, 4936, Note_on_c, 1, 32, 0
1, 4937, Note_on_c, 3, 72, 0
1, 4943, Note_on_c, 2, 65, 61
1, 4943, Note_on_c, 3, 72, 94
1, 4944, Note_on_c, 1, 36, 95
1, 4944, Note_on_c, 9, 35, 96
1, 4944, Note_on_c, 9, 42, 51
1, 4945, Note_on_c, 9, 42, 0
1, 4945, Note_on_c, 9, 35, 0
1, 4945, Note_on_c, 2, 56, 30
1, 4945, Note_on_c, 2, 60, 60
1, 4957, Note_on_c, 2, 56, 0
1, 4961, Note_on_c, 2, 60, 0
1, 4962, Note_on_c, 2, 65, 0
1, 4963, Note_on_c, 0, 80, 0
1, 4966, Note_on_c, 0, 84, 0
1, 4968, Note_on_c, 0, 75, 0
1, 4968, Note_on_c, 0, 72, 0
1, 4978, Note_on_c, 0, 73, 61
1, 4981, Note_on_c, 1, 36, 0
1, 4987, Note_on_c, 0, 77, 83
1, 4991, Note_on_c, 9, 42, 84
1, 4992, Note_on_c, 9, 42, 0
1, 4992, Note_on_c, 1, 37, 87
1, 4992, Note_on_c, 9, 35, 105
1, 4993, Note_on_c, 9, 35, 0
1, 4993, Note_on_c, 5, 60, 75
1, 4994, Pitch_bend_c, 5, 8192
1, 4994, Control_c, 5, 1, 0
1, 4997, Note_on_c, 0, 80, 101
1, 5002, Note_on_c, 0, 84, 90
1, 5027, Note_on_c, 3, 72, 0
1, 5040, Note_on_c, 9, 42, 53
1, 5041, Note_on_c, 9, 42, 0
1, 5042, Note_on_c, 3, 75, 111
1, 5064, Note_on_c, 1, 37, 0
1, 5087, Note_on_c, 2, 60, 90
1, 5087, Note_on_c, 2, 56, 75
1, 5087, Note_on_c, 2, 65, 90
1, 5087, Note_on_c, 9, 40, 119
1, 5087, Note_on_c, 9, 38, 76
1, 5088, Note_on_c, 9, 38, 0
1, 5088, Note_on_c, 9, 40, 0
1, 5088, Note_on_c, 3, 75, 0
1, 5088, Note_on_c, 1, 37, 96
1, 5088, Note_on_c, 9, 54, 103
1, 5088, Note_on_c, 9, 42, 113
1, 5089, Note_on_c, 9, 42, 0
1, 5089, Note_on_c, 3, 72, 96
1, 5090, Note_on_c, 5, 58, 77
1, 5093, Note_on_c, 5, 60, 0
1, 5098, Note_on_c, 9, 54, 0
1, 5112, Note_on_c, 2, 65, 0
1, 5113, Note_on_c, 2, 56, 0
1, 5114, Note_on_c, 2, 60, 0
1, 5134, Note_on_c, 3, 72, 0
1, 5135, Note_on_c, 7, 60, 95
1, 5135, Note_on_c, 9, 42, 58
1, 5135, Note_on_c, 10, 60, 104
1, 5136, Note_on_c, 9, 42, 0
1, 5136, Note_on_c, 3, 68, 85
1, 5136, Note_on_c, 9, 35, 104
1, 5137, Note_on_c, 9, 35, 0
1, 5137, Note_on_c, 8, 56, 80
1, 5137, Note_on_c, 8, 53, 78
1, 5137, Note_on_c, 10, 56, 89
1, 5137, Note_on_c, 10, 53, 87
1, 5150, Note_on_c, 10, 60, 0
1, 5150, Note_on_c, 7, 60, 0
1, 5160, Note_on_c, 1, 37, 0
1, 5163, Note_on_c, 8, 56, 0
1, 5163, Note_on_c, 10, 56, 0
1, 5163, Note_on_c, 8, 53, 0
1, 5163, Note_on_c, 10, 53, 0
1, 5183, Note_on_c, 9, 42, 103
1, 5184, Note_on_c, 9, 42, 0
1, 5184, Note_on_c, 5, 58, 0
1, 5184, Note_on_c, 1, 37, 93
1, 5185, Note_on_c, 5, 56, 71
1, 5230, Note_on_c, 8, 56, 80
1, 5230, Note_on_c, 8, 51, 82
1, 5230, Note_on_c, 10, 56, 89
1, 5230, Note_on_c, 10, 51, 91
1, 5231, Note_on_c, 9, 38, 53
1, 5231, Note_on_c, 9, 40, 96
1, 5232, Note_on_c, 9, 40, 0
1, 5232, Note_on_c, 9, 38, 0
1, 5232, Note_on_c, 7, 60, 100
1, 5232, Note_on_c, 9, 42, 52
1, 5232, Note_on_c, 10, 60, 109
1, 5233, Note_on_c, 9, 42, 0
1, 5234, Note_on_c, 2, 56, 52
1, 5234, Note_on_c, 2, 65, 52
1, 5234, Note_on_c, 2, 60, 52
1, 5247, Note_on_c, 2, 60, 0
1, 5247, Note_on_c, 2, 65, 0
1, 5247, Note_on_c, 2, 56, 0
1, 5250, Note_on_c, 7, 60, 0
1, 5250, Note_on_c, 10, 60, 0
1, 5256, Note_on_c, 10, 56, 0
1, 5256, Note_on_c, 8, 56, 0
1, 5259, Note_on_c, 10, 51, 0
1, 5259, Note_on_c, 8, 51, 0
1, 5272, Note_on_c, 1, 37, 0
1, 5278, Note_on_c, 5, 56, 0
1, 5279, Note_on_c, 5, 53, 76
1, 5279, Note_on_c, 9, 40, 119
1, 5279, Note_on_c, 9, 38, 76
1, 5280, Note_on_c, 9, 38, 0
1, 5280, Note_on_c, 9, 40, 0
1, 5280, Note_on_c, 1, 37, 90
1, 5280, Note_on_c, 9, 42, 104
1, 5280, Note_on_c, 9, 54, 103
1, 5281, Note_on_c, 9, 42, 0
1, 5281, Note_on_c, 2, 56, 82
1, 5281, Note_on_c, 2, 65, 94
1, 5281, Note_on_c, 2, 60, 97
1, 5291, Note_on_c, 9, 54, 0
1, 5299, Note_on_c, 3, 68, 0
1, 5301, Note_on_c, 2, 65, 0
1, 5302, Note_on_c, 2, 60, 0
1, 5304, Note_on_c, 2, 56, 0
1, 5320, Note_on_c, 1, 37, 0
1, 5328, Note_on_c, 1, 37, 96
1, 5328, Note_on_c, 2, 65, 57
1, 5328, Note_on_c, 2, 56, 57
1, 5328, Note_on_c, 9, 35, 97
1, 5328, Note_on_c, 9, 42, 64
1, 5329, Note_on_c, 9, 42, 0
1, 5329, Note_on_c, 9, 35, 0
1, 5329, Note_on_c, 2, 60, 57
1, 5348, Note_on_c, 0, 77, 0
1, 5348, Note_on_c, 2, 56, 0
1, 5349, Note_on_c, 2, 60, 0
1, 5350, Note_on_c, 2, 65, 0
1, 5351, Note_on_c, 0, 80, 0
1, 5351, Note_on_c, 0, 73, 0
1, 5353, Note_on_c, 0, 84, 0
1, 5369, Note_on_c, 0, 72, 78
1, 5370, Note_on_c, 1, 37, 0
1, 5373, Note_on_c, 0, 75, 91
1, 5374, Note_on_c, 5, 53, 0
1, 5375, Note_on_c, 5, 56, 67
1, 5376, Note_on_c, 1, 32, 93
1, 5376, Note_on_c, 9, 35, 106
1, 5376, Note_on_c, 9, 42, 99
1, 5377, Note_on_c, 9, 42, 0
1, 5377, Note_on_c, 9, 35, 0
1, 5379, Note_on_c, 0, 84, 86
1, 5381, Note_on_c, 0, 80, 99
1, 5423, Note_on_c, 9, 42, 43
1, 5424, Note_on_c, 9, 42, 0
1, 5452, Note_on_c, 1, 32, 0
1, 5471, Note_on_c, 9, 40, 119
1, 5471, Note_on_c, 9, 38, 76
1, 5472, Note_on_c, 9, 38, 0
1, 5472, Note_on_c, 9, 40, 0
1, 5472, Note_on_c, 1, 32, 93
1, 5472, Note_on_c, 2, 65, 73
1, 5472, Note_on_c, 2, 60, 78
1, 5472, Note_on_c, 2, 56, 58
1, 5472, Note_on_c, 9, 54, 100
1, 5472, Note_on_c, 9, 42, 110
1, 5473, Note_on_c, 9, 42, 0
1, 5478, Note_on_c, 5, 56, 0
1, 5482, Note_on_c, 9, 54, 0
1, 5497, Note_on_c, 2, 56, 0
1, 5500, Note_on_c, 2, 60, 0
1, 5500, Note_on_c, 2, 65, 0
1, 5520, Note_on_c, 3, 72, 108
1, 5520, Note_on_c, 9, 42, 68
1, 5520, Note_on_c, 9, 35, 104
1, 5521, Note_on_c, 9, 35, 0
1, 5521, Note_on_c, 9, 42, 0
1, 5547, Note_on_c, 1, 32, 0
1, 5567, Note_on_c, 9, 42, 93
1, 5568, Note_on_c, 9, 42, 0
1, 5568, Note_on_c, 1, 32, 87
1, 5579, Note_on_c, 3, 72, 0
1, 5581, Note_on_c, 3, 68, 79
1, 5615, Note_on_c, 9, 42, 54
1, 5615, Note_on_c, 9, 40, 96
1, 5615, Note_on_c, 9, 38, 53
1, 5616, Note_on_c, 9, 38, 0
1, 5616, Note_on_c, 9, 40, 0
1, 5616, Note_on_c, 9, 42, 0
1, 5652, Note_on_c, 1, 32, 0
1, 5663, Note_on_c, 2, 56, 63
1, 5663, Note_on_c, 2, 65, 80
1, 5663, Note_on_c, 9, 40, 119
1, 5663, Note_on_c, 9, 38, 76
1, 5664, Note_on_c, 9, 38, 0
1, 5664, Note_on_c, 9, 40, 0
1, 5664, Note_on_c, 1, 32, 84
1, 5664, Note_on_c, 2, 60, 80
1, 5664, Note_on_c, 9, 42, 110
1, 5664, Note_on_c, 9, 54, 97
1, 5665, Note_on_c, 9, 42, 0
1, 5674, Note_on_c, 9, 54, 0
1, 5687, Note_on_c, 2, 56, 0
1, 5688, Note_on_c, 2, 60, 0
1, 5688, Note_on_c, 2, 65, 0
1, 5691, Note_on_c, 3, 68, 0
1, 5704, Note_on_c, 1, 32, 0
1, 5709, Note_on_c, 3, 65, 95
1, 5711, Note_on_c, 2, 65, 61
1, 5712, Note_on_c, 1, 36, 92
1, 5712, Note_on_c, 9, 42, 51
1, 5712, Note_on_c, 9, 35, 96
1, 5713, Note_on_c, 9, 35, 0
1, 5713, Note_on_c, 9, 42, 0
1, 5713, Note_on_c, 2, 56, 30
1, 5713, Note_on_c, 2, 60, 60
1, 5722, Note_on_c, 0, 84, 0
1, 5725, Note_on_c, 2, 56, 0
1, 5729, Note_on_c, 2, 60, 0
1, 5729, Note_on_c, 0, 75, 0
1, 5730, Note_on_c, 2, 65, 0
1, 5734, Note_on_c, 0, 80, 0
1, 5742, Note_on_c, 0, 72, 0
1, 5750, Note_on_c, 1, 36, 0
1, 5753, Note_on_c, 3, 65, 0
1, 5753, Note_on_c, 0, 73, 73
1, 5758, Note_on_c, 5, 60, 78
1, 5759, Note_on_c, 0, 77, 81
1, 5759, Note_on_c, 9, 42, 84
1, 5760, Note_on_c, 9, 42, 0
1, 5760, Note_on_c, 1, 37, 93
1, 5760, Note_on_c, 3, 72, 108
1, 5760, Note_on_c, 9, 35, 106
1, 5761, Note_on_c, 9, 35, 0
1, 5763, Note_on_c, 0, 80, 107
1, 5767, Note_on_c, 0, 84, 80
1, 5808, Note_on_c, 9, 42, 53
1, 5809, Note_on_c, 9, 42, 0
1, 5839, Note_on_c, 1, 37, 0
1, 5855, Note_on_c, 3, 72, 0
1, 5855, Note_on_c, 2, 56, 75
1, 5855, Note_on_c, 2, 65, 90
1, 5855, Note_on_c, 2, 60, 90
1, 5855, Note_on_c, 5, 58, 75
1, 5855, Note_on_c, 9, 40, 119
1, 5855, Note_on_c, 9, 38, 76
1, 5856, Note_on_c, 9, 38, 0
1, 5856, Note_on_c, 9, 40, 0
1, 5856, Note_on_c, 1, 37, 84
1, 5856, Note_on_c, 3, 70, 92
1, 5856, Note_on_c, 9, 42, 113
1, 5856, Note_on_c, 9, 54, 97
1, 5857, Note_on_c, 9, 42, 0
1, 5859, Note_on_c, 5, 60, 0
1, 5867, Note_on_c, 9, 54, 0
1, 5880, Note_on_c, 2, 65, 0
1, 5881, Note_on_c, 2, 56, 0
1, 5882, Note_on_c, 2, 60, 0
1, 5903, Note_on_c, 3, 70, 0
1, 5903, Note_on_c, 9, 42, 58
1, 5904, Note_on_c, 9, 42, 0
1, 5904, Note_on_c, 9, 35, 104
1, 5905, Note_on_c, 9, 35, 0
1, 5905, Note_on_c, 3, 68, 80
1, 5925, Note_on_c, 1, 37, 0
1, 5951, Note_on_c, 5, 58, 0
1, 5951, Note_on_c, 5, 56, 62
1, 5951, Note_on_c, 9, 42, 103
1, 5952, Note_on_c, 9, 42, 0
1, 5952, Note_on_c, 1, 37, 87
1, 5999, Note_on_c, 8, 56, 77
1, 5999, Note_on_c, 9, 40, 95
1, 5999, Note_on_c, 9, 38, 52
1, 5999, Note_on_c, 10, 56, 86
1, 6000, Note_on_c, 9, 38, 0
1, 6000, Note_on_c, 9, 40, 0
1, 6000, Note_on_c, 7, 60, 84
1, 6000, Note_on_c, 8, 51, 80
1, 6000, Note_on_c, 9, 42, 52
1, 6000, Note_on_c, 10, 60, 93
1, 6000, Note_on_c, 10, 51, 89
1, 6001, Note_on_c, 9, 42, 0
1, 6010, Note_on_c, 3, 68, 0
1, 6017, Note_on_c, 7, 60, 0
1, 6017, Note_on_c, 10, 60, 0
1, 6019, Note_on_c, 8, 56, 0
1, 6019, Note_on_c, 10, 56, 0
1, 6021, Note_on_c, 8, 51, 0
1, 6021, Note_on_c, 10, 51, 0
1, 6037, Note_on_c, 1, 37, 0
1, 6047, Note_on_c, 5, 56, 0
1, 6047, Note_on_c, 5, 53, 62
1, 6047, Note_on_c, 9, 38, 75
1, 6047, Note_on_c, 9, 40, 118
1, 6048, Note_on_c, 9, 40, 0
1, 6048, Note_on_c, 9, 38, 0
1, 6048, Note_on_c, 1, 37, 75
1, 6048, Note_on_c, 9, 54, 97
1, 6048, Note_on_c, 9, 42, 104
1, 6049, Note_on_c, 9, 42, 0
1, 6049, Note_on_c, 2, 60, 97
1, 6049, Note_on_c, 2, 65, 94
1, 6049, Note_on_c, 2, 56, 82
1, 6063, Note_on_c, 9, 54, 0
1, 6069, Note_on_c, 2, 65, 0
1, 6070, Note_on_c, 2, 60, 0
1, 6072, Note_on_c, 2, 56, 0
1, 6088, Note_on_c, 1, 37, 0
1, 6096, Note_on_c, 1, 37, 93
1, 6096, Note_on_c, 2, 65, 57
1, 6096, Note_on_c, 2, 56, 57
1, 6096, Note_on_c, 9, 42, 64
1, 6096, Note_on_c, 9, 35, 96
1, 6097, Note_on_c, 9, 35, 0
1, 6097, Note_on_c, 9, 42, 0
1, 6097, Note_on_c, 2, 60, 57
1, 6109, Note_on_c, 0, 84, 0
1, 6116, Note_on_c, 2, 56, 0
1, 6117, Note_on_c, 2, 60, 0
1, 6118, Note_on_c, 0, 80, 0
1, 6118, Note_on_c, 2, 65, 0
1, 6119, Note_on_c, 0, 77, 0
1, 6120, Note_on_c, 0, 73, 0
1, 6127, Note_on_c, 1, 37, 0
1, 6135, Note_on_c, 0, 72, 82
1, 6139, Note_on_c, 0, 75, 90
1, 6142, Note_on_c, 5, 53, 0
1, 6142, Note_on_c, 5, 56, 67
1, 6144, Note_on_c, 0, 80, 97
1, 6144, Note_on_c, 1, 32, 93
1, 6144, Note_on_c, 9, 35, 106
1, 6144, Note_on_c, 9, 42, 99
1, 6145, Note_on_c, 9, 42, 0
1, 6145, Note_on_c, 9, 35, 0
1, 6152, Note_on_c, 0, 84, 93
1, 6191, Note_on_c, 9, 42, 43
1, 6192, Note_on_c, 9, 42, 0
1, 6225, Note_on_c, 1, 32, 0
1, 6239, Note_on_c, 9, 38, 74
1, 6239, Note_on_c, 9, 40, 117
1, 6240, Note_on_c, 9, 40, 0
1, 6240, Note_on_c, 9, 38, 0
1, 6240, Note_on_c, 1, 32, 93
1, 6240, Note_on_c, 2, 56, 58
1, 6240, Note_on_c, 2, 65, 73
1, 6240, Note_on_c, 2, 60, 78
1, 6240, Note_on_c, 9, 54, 103
1, 6240, Note_on_c, 9, 42, 110
1, 6241, Note_on_c, 9, 42, 0
1, 6245, Note_on_c, 5, 56, 0
1, 6252, Note_on_c, 9, 54, 0
1, 6265, Note_on_c, 2, 56, 0
1, 6268, Note_on_c, 2, 65, 0
1, 6268, Note_on_c, 2, 60, 0
1, 6287, Note_on_c, 3, 68, 64
1, 6288, Note_on_c, 9, 42, 68
1, 6288, Note_on_c, 9, 35, 103
1, 6289, Note_on_c, 9, 35, 0
1, 6289, Note_on_c, 9, 42, 0
1, 6320, Note_on_c, 1, 32, 0
1, 6323, Note_on_c, 3, 68, 0
1, 6335, Note_on_c, 9, 42, 93
1, 6336, Note_on_c, 9, 42, 0
1, 6336, Note_on_c, 1, 32, 87
1, 6339, Note_on_c, 3, 72, 84
1, 6361, Note_on_c, 3, 72, 0
1, 6373, Note_on_c, 3, 72, 73
1, 6383, Note_on_c, 9, 38, 51
1, 6383, Note_on_c, 9, 40, 94
1, 6383, Note_on_c, 9, 42, 54
1, 6384, Note_on_c, 9, 42, 0
1, 6384, Note_on_c, 9, 40, 0
1, 6384, Note_on_c, 9, 38, 0
1, 6393, Note_on_c, 3, 72, 0
1, 6402, Note_on_c, 3, 75, 115
1, 6418, Note_on_c, 1, 32, 0
1, 6431, Note_on_c, 2, 56, 63
1, 6431, Note_on_c, 2, 65, 80
1, 6431, Note_on_c, 9, 38, 75
1, 6431, Note_on_c, 9, 40, 118
1, 6432, Note_on_c, 9, 40, 0
1, 6432, Note_on_c, 9, 38, 0
1, 6432, Note_on_c, 1, 32, 79
1, 6432, Note_on_c, 2, 60, 80
1, 6432, Note_on_c, 9, 54, 103
1, 6432, Note_on_c, 9, 42, 110
1, 6433, Note_on_c, 9, 42, 0
1, 6438, Note_on_c, 9, 54, 0
1, 6455, Note_on_c, 2, 56, 0
1, 6456, Note_on_c, 2, 60, 0
1, 6456, Note_on_c, 2, 65, 0
1, 6456, Note_on_c, 3, 75, 0
1, 6461, Note_on_c, 3, 72, 74
1, 6472, Note_on_c, 1, 32, 0
1, 6479, Note_on_c, 2, 65, 61
1, 6480, Note_on_c, 1, 36, 97
1, 6480, Note_on_c, 9, 42, 51
1, 6480, Note_on_c, 9, 35, 95
1, 6481, Note_on_c, 9, 35, 0
1, 6481, Note_on_c, 9, 42, 0
1, 6481, Note_on_c, 2, 56, 30
1, 6481, Note_on_c, 2, 60, 60
1, 6493, Note_on_c, 2, 56, 0
1, 6496, Note_on_c, 0, 80, 0
1, 6497, Note_on_c, 2, 60, 0
1, 6497, Note_on_c, 0, 75, 0
1, 6498, Note_on_c, 2, 65, 0
1, 6499, Note_on_c, 0, 84, 0
1, 6512, Note_on_c, 0, 72, 0
1, 6518, Note_on_c, 0, 73, 67
1, 6519, Note_on_c, 1, 36, 0
1, 6522, Note_on_c, 0, 77, 81
1, 6527, Note_on_c, 9, 42, 96
1, 6528, Note_on_c, 9, 42, 0
1, 6528, Note_on_c, 1, 37, 93
1, 6528, Note_on_c, 9, 35, 105
1, 6529, Note_on_c, 9, 35, 0
1, 6529, Note_on_c, 5, 60, 73
1, 6531, Note_on_c, 0, 80, 101
1, 6537, Note_on_c, 0, 84, 90
1, 6576, Note_on_c, 9, 42, 53
1, 6577, Note_on_c, 9, 42, 0
1, 6580, Note_on_c, 3, 72, 0
1, 6610, Note_on_c, 1, 37, 0
1, 6622, Note_on_c, 5, 60, 0
1, 6623, Note_on_c, 2, 56, 75
1, 6623, Note_on_c, 2, 65, 90
1, 6623, Note_on_c, 2, 60, 90
1, 6623, Note_on_c, 5, 58, 73
1, 6623, Note_on_c, 9, 40, 119
1, 6623, Note_on_c, 9, 38, 76
1, 6624, Note_on_c, 9, 38, 0
1, 6624, Note_on_c, 9, 40, 0
1, 6624, Note_on_c, 1, 37, 93
1, 6624, Note_on_c, 9, 42, 113
1, 6624, Note_on_c, 9, 54, 100
1, 6625, Note_on_c, 9, 42, 0
1, 6635, Note_on_c, 9, 54, 0
1, 6648, Note_on_c, 2, 65, 0
1, 6649, Note_on_c, 2, 56, 0
1, 6650, Note_on_c, 2, 60, 0
1, 6654, Note_on_c, 3, 72, 102
1, 6671, Note_on_c, 7, 60, 95
1, 6671, Note_on_c, 9, 42, 58
1, 6671, Note_on_c, 10, 60, 104
1, 6672, Note_on_c, 9, 42, 0
1, 6672, Note_on_c, 9, 35, 104
1, 6673, Note_on_c, 9, 35, 0
1, 6673, Note_on_c, 8, 53, 78
1, 6673, Note_on_c, 8, 56, 80
1, 6673, Note_on_c, 10, 53, 87
1, 6673, Note_on_c, 10, 56, 89
1, 6686, Note_on_c, 10, 60, 0
1, 6686, Note_on_c, 7, 60, 0
1, 6699, Note_on_c, 3, 72, 0
1, 6699, Note_on_c, 8, 56, 0
1, 6699, Note_on_c, 8, 53, 0
1, 6699, Note_on_c, 10, 56, 0
1, 6699, Note_on_c, 10, 53, 0
1, 6702, Note_on_c, 1, 37, 0
1, 6704, Note_on_c, 3, 70, 90
1, 6719, Note_on_c, 5, 58, 0
1, 6719, Note_on_c, 5, 56, 70
1, 6719, Note_on_c, 9, 42, 103
1, 6720, Note_on_c, 9, 42, 0
1, 6720, Note_on_c, 1, 37, 87
1, 6739, Note_on_c, 3, 70, 0
1, 6752, Note_on_c, 3, 68, 86
1, 6755, Pitch_bend_c, 3, 9947
1, 6757, Pitch_bend_c, 3, 12287
1, 6761, Pitch_bend_c, 3, 14510
1, 6764, Pitch_bend_c, 3, 16382
1, 6766, Note_on_c, 8, 51, 82
1, 6766, Note_on_c, 8, 56, 80
1, 6766, Note_on_c, 10, 51, 91
1, 6766, Note_on_c, 10, 56, 89
1, 6767, Pitch_bend_c, 3, 16383
1, 6767, Note_on_c, 9, 38, 52
1, 6767, Note_on_c, 9, 40, 95
1, 6768, Note_on_c, 9, 40, 0
1, 6768, Note_on_c, 9, 38, 0
1, 6768, Note_on_c, 7, 60, 100
1, 6768, Note_on_c, 9, 42, 52
1, 6768, Note_on_c, 10, 60, 109
1, 6769, Note_on_c, 9, 42, 0
1, 6770, Note_on_c, 2, 65, 52
1, 6770, Note_on_c, 2, 56, 52
1, 6770, Note_on_c, 2, 60, 52
1, 6783, Note_on_c, 2, 60, 0
1, 6783, Note_on_c, 2, 56, 0
1, 6783, Note_on_c, 2, 65, 0
1, 6786, Note_on_c, 7, 60, 0
1, 6786, Note_on_c, 10, 60, 0
1, 6792, Note_on_c, 10, 56, 0
1, 6792, Note_on_c, 8, 56, 0
1, 6795, Note_on_c, 10, 51, 0
1, 6795, Note_on_c, 8, 51, 0
1, 6801, Note_on_c, 1, 37, 0
1, 6802, Pitch_bend_c, 3, 16382
1, 6805, Pitch_bend_c, 3, 14510
1, 6808, Pitch_bend_c, 3, 11819
1, 6810, Pitch_bend_c, 3, 9362
1, 6813, Pitch_bend_c, 3, 8192
1, 6815, Note_on_c, 9, 38, 76
1, 6815, Note_on_c, 9, 40, 119
1, 6816, Note_on_c, 9, 40, 0
1, 6816, Note_on_c, 9, 38, 0
1, 6816, Note_on_c, 5, 56, 0
1, 6816, Note_on_c, 1, 37, 84
1, 6816, Note_on_c, 5, 53, 72
1, 6816, Note_on_c, 9, 54, 100
1, 6816, Note_on_c, 9, 42, 104
1, 6817, Note_on_c, 9, 42, 0
1, 6817, Note_on_c, 2, 60, 97
1, 6817, Note_on_c, 2, 56, 82
1, 6817, Note_on_c, 2, 65, 94
1, 6827, Note_on_c, 9, 54, 0
1, 6837, Note_on_c, 2, 65, 0
1, 6838, Note_on_c, 2, 60, 0
1, 6840, Note_on_c, 2, 56, 0
1, 6851, Note_on_c, 1, 37, 0
1, 6864, Note_on_c, 1, 37, 79
1, 6864, Note_on_c, 2, 65, 57
1, 6864, Note_on_c, 2, 56, 57
1, 6864, Note_on_c, 9, 42, 64
1, 6864, Note_on_c, 9, 35, 97
1, 6865, Note_on_c, 9, 35, 0
1, 6865, Note_on_c, 9, 42, 0
1, 6865, Note_on_c, 2, 60, 57
1, 6867, Note_on_c, 0, 82, 88
1, 6879, Note_on_c, 0, 77, 0
1, 6883, Note_on_c, 0, 84, 0
1, 6883, Note_on_c, 0, 80, 0
1, 6884, Note_on_c, 2, 56, 0
1, 6885, Note_on_c, 2, 60, 0
1, 6886, Note_on_c, 2, 65, 0
1, 6891, Note_on_c, 0, 73, 0
1, 6896, Note_on_c, 0, 82, 0
1, 6904, Note_on_c, 0, 72, 78
1, 6907, Note_on_c, 1, 37, 0
1, 6908, Note_on_c, 0, 75, 87
1, 6910, Note_on_c, 5, 53, 0
1, 6911, Note_on_c, 5, 56, 68
1, 6912, Note_on_c, 3, 68, 0
1, 6912, Note_on_c, 0, 80, 92
1, 6912, Note_on_c, 1, 32, 96
1, 6912, Note_on_c, 9, 35, 106
1, 6912, Note_on_c, 9, 42, 99
1, 6913, Note_on_c, 9, 42, 0
1, 6913, Note_on_c, 9, 35, 0
1, 6918, Note_on_c, 0, 84, 83
1, 6959, Note_on_c, 9, 42, 43
1, 6960, Note_on_c, 9, 42, 0
1, 6989, Note_on_c, 1, 32, 0
1, 7007, Note_on_c, 9, 38, 76
1, 7007, Note_on_c, 9, 40, 119
1, 7008, Note_on_c, 9, 40, 0
1, 7008, Note_on_c, 9, 38, 0
1, 7008, Note_on_c, 1, 32, 84
1, 7008, Note_on_c, 2, 60, 78
1, 7008, Note_on_c, 2, 56, 58
1, 7008, Note_on_c, 2, 65, 73
1, 7008, Note_on_c, 9, 42, 110
1, 7008, Note_on_c, 9, 54, 103
1, 7009, Note_on_c, 9, 42, 0
1, 7009, Note_on_c, 5, 56, 0
1, 7019, Note_on_c, 9, 54, 0
1, 7033, Note_on_c, 2, 56, 0
1, 7036, Note_on_c, 2, 65, 0
1, 7036, Note_on_c, 2, 60, 0
1, 7053, Note_on_c, 3, 65, 93
1, 7056, Note_on_c, 9, 42, 68
1, 7056, Note_on_c, 9, 35, 104
1, 7057, Note_on_c, 9, 35, 0
1, 7057, Note_on_c, 9, 42, 0
1, 7088, Note_on_c, 1, 32, 0
1, 7102, Note_on_c, 3, 65, 0
1, 7103, Note_on_c, 3, 72, 100
1, 7103, Note_on_c, 9, 42, 93
1, 7104, Note_on_c, 9, 42, 0
1, 7104, Note_on_c, 1, 32, 84
1, 7151, Note_on_c, 9, 38, 52
1, 7151, Note_on_c, 9, 40, 95
1, 7151, Note_on_c, 9, 42, 54
1, 7152, Note_on_c, 9, 42, 0
1, 7152, Note_on_c, 9, 40, 0
1, 7152, Note_on_c, 9, 38, 0
1, 7170, Note_on_c, 3, 72, 0
1, 7171, Note_on_c, 3, 70, 82
1, 7189, Note_on_c, 1, 32, 0
1, 7199, Note_on_c, 3, 70, 0
1, 7199, Note_on_c, 2, 65, 80
1, 7199, Note_on_c, 2, 56, 63
1, 7199, Note_on_c, 9, 38, 75
1, 7199, Note_on_c, 9, 40, 118
1, 7200, Note_on_c, 9, 40, 0
1, 7200, Note_on_c, 9, 38, 0
1, 7200, Note_on_c, 1, 32, 81
1, 7200, Note_on_c, 2, 60, 80
1, 7200, Note_on_c, 3, 68, 75
1, 7200, Note_on_c, 9, 42, 110
1, 7200, Note_on_c, 9, 54, 100
1, 7201, Note_on_c, 9, 42, 0
1, 7211, Note_on_c, 9, 54, 0
1, 7223, Note_on_c, 2, 56, 0
1, 7224, Note_on_c, 2, 60, 0
1, 7224, Note_on_c, 2, 65, 0
1, 7235, Note_on_c, 1, 32, 0
1, 7241, Note_on_c, 3, 68, 0
1, 7243, Note_on_c, 3, 65, 67
1, 7247, Note_on_c, 2, 65, 61
1, 7248, Note_on_c, 1, 36, 90
1, 7248, Note_on_c, 9, 35, 97
1, 7248, Note_on_c, 9, 42, 51
1, 7249, Note_on_c, 9, 42, 0
1, 7249, Note_on_c, 9, 35, 0
1, 7249, Note_on_c, 2, 56, 30
1, 7249, Note_on_c, 2, 60, 60
1, 7261, Note_on_c, 2, 56, 0
1, 7263, Note_on_c, 0, 80, 0
1, 7264, Note_on_c, 0, 75, 0
1, 7265, Note_on_c, 2, 60, 0
1, 7266, Note_on_c, 0, 84, 0
1, 7266, Note_on_c, 2, 65, 0
1, 7279, Note_on_c, 0, 72, 0
1, 7286, Note_on_c, 1, 36, 0
1, 7289, Note_on_c, 0, 73, 67
1, 7294, Note_on_c, 5, 60, 78
1, 7295, Note_on_c, 0, 77, 76
1, 7295, Note_on_c, 9, 42, 84
1, 7296, Note_on_c, 9, 42, 0
1, 7296, Note_on_c, 1, 37, 87
1, 7296, Note_on_c, 9, 35, 105
1, 7297, Note_on_c, 9, 35, 0
1, 7302, Note_on_c, 0, 80, 101
1, 7305, Note_on_c, 0, 84, 90
1, 7338, Note_on_c, 3, 65, 0
1, 7344, Note_on_c, 9, 42, 53
1, 7345, Note_on_c, 9, 42, 0
1, 7364, Note_on_c, 3, 65, 56
1, 7373, Note_on_c, 1, 37, 0
1, 7391, Note_on_c, 2, 65, 90
1, 7391, Note_on_c, 2, 56, 75
1, 7391, Note_on_c, 2, 60, 90
1, 7391, Note_on_c, 9, 38, 76
1, 7391, Note_on_c, 9, 40, 119
1, 7392, Note_on_c, 9, 40, 0
1, 7392, Note_on_c, 9, 38, 0
1, 7392, Note_on_c, 1, 37, 87
1, 7392, Note_on_c, 5, 58, 73
1, 7392, Note_on_c, 9, 42, 113
1, 7392, Note_on_c, 9, 54, 103
1, 7393, Note_on_c, 9, 42, 0
1, 7395, Note_on_c, 5, 60, 0
1, 7402, Note_on_c, 9, 54, 0
1, 7404, Note_on_c, 3, 65, 0
1, 7405, Note_on_c, 3, 72, 104
1, 7416, Note_on_c, 2, 65, 0
1, 7417, Note_on_c, 2, 56, 0
1, 7418, Note_on_c, 2, 60, 0
1, 7439, Note_on_c, 7, 60, 95
1, 7439, Note_on_c, 9, 42, 58
1, 7439, Note_on_c, 10, 60, 104
1, 7440, Note_on_c, 9, 42, 0
1, 7440, Note_on_c, 9, 35, 105
1, 7441, Note_on_c, 9, 35, 0
1, 7441, Note_on_c, 8, 56, 80
1, 7441, Note_on_c, 8, 53, 78
1, 7441, Note_on_c, 10, 56, 89
1, 7441, Note_on_c, 10, 53, 87
1, 7454, Note_on_c, 10, 60, 0
1, 7454, Note_on_c, 7, 60, 0
1, 7460, Note_on_c, 3, 72, 0
1, 7461, Note_on_c, 3, 70, 88
1, 7467, Note_on_c, 8, 53, 0
1, 7467, Note_on_c, 8, 56, 0
1, 7467, Note_on_c, 10, 53, 0
1, 7467, Note_on_c, 10, 56, 0
1, 7471, Note_on_c, 1, 37, 0
1, 7486, Note_on_c, 5, 58, 0
1, 7486, Note_on_c, 5, 56, 65
1, 7487, Note_on_c, 9, 42, 103
1, 7488, Note_on_c, 9, 42, 0
1, 7488, Note_on_c, 1, 37, 90
1, 7501, Note_on_c, 3, 70, 0
1, 7507, Note_on_c, 3, 68, 83
1, 7524, Pitch_bend_c, 3, 8777
1, 7526, Pitch_bend_c, 3, 10766
1, 7530, Pitch_bend_c, 3, 13106
1, 7532, Pitch_bend_c, 3, 14978
1, 7534, Note_on_c, 8, 56, 80
1, 7534, Note_on_c, 8, 51, 82
1, 7534, Note_on_c, 10, 56, 89
1, 7534, Note_on_c, 10, 51, 91
1, 7535, Note_on_c, 9, 40, 95
1, 7535, Note_on_c, 9, 38, 52
1, 7536, Note_on_c, 9, 38, 0
1, 7536, Note_on_c, 9, 40, 0
1, 7536, Pitch_bend_c, 3, 16383
1, 7536, Note_on_c, 7, 60, 100
1, 7536, Note_on_c, 9, 42, 52
1, 7536, Note_on_c, 10, 60, 109
1, 7537, Note_on_c, 9, 42, 0
1, 7538, Note_on_c, 2, 56, 52
1, 7538, Note_on_c, 2, 60, 52
1, 7538, Note_on_c, 2, 65, 52
1, 7551, Note_on_c, 2, 65, 0
1, 7551, Note_on_c, 2, 60, 0
1, 7551, Note_on_c, 2, 56, 0
1, 7554, Note_on_c, 7, 60, 0
1, 7554, Note_on_c, 10, 60, 0
1, 7560, Note_on_c, 10, 56, 0
1, 7560, Note_on_c, 8, 56, 0
1, 7563, Note_on_c, 10, 51, 0
1, 7563, Note_on_c, 8, 51, 0
1, 7566, Note_on_c, 1, 37, 0
1, 7570, Pitch_bend_c, 3, 14744
1, 7574, Pitch_bend_c, 3, 11351
1, 7577, Pitch_bend_c, 3, 8192
1, 7583, Note_on_c, 5, 53, 75
1, 7583, Note_on_c, 9, 40, 118
1, 7583, Note_on_c, 9, 38, 75
1, 7584, Note_on_c, 9, 38, 0
1, 7584, Note_on_c, 9, 40, 0
1, 7584, Note_on_c, 1, 37, 84
1, 7584, Note_on_c, 9, 54, 103
1, 7584, Note_on_c, 9, 42, 104
1, 7585, Note_on_c, 9, 42, 0
1, 7585, Note_on_c, 5, 56, 0
1, 7585, Note_on_c, 2, 56, 82
1, 7585, Note_on_c, 2, 60, 97
1, 7585, Note_on_c, 2, 65, 94
1, 7595, Note_on_c, 9, 54, 0
1, 7605, Note_on_c, 2, 65, 0
1, 7606, Note_on_c, 2, 60, 0
1, 7608, Note_on_c, 2, 56, 0
1, 7619, Note_on_c, 1, 37, 0
1, 7632, Note_on_c, 0, 82, 95
1, 7632, Note_on_c, 1, 37, 93
1, 7632, Note_on_c, 2, 65, 57
1, 7632, Note_on_c, 2, 56, 57
1, 7632, Note_on_c, 9, 35, 96
1, 7632, Note_on_c, 9, 42, 64
1, 7633, Note_on_c, 9, 42, 0
1, 7633, Note_on_c, 9, 35, 0
1, 7633, Note_on_c, 2, 60, 57
1, 7649, Note_on_c, 0, 84, 0
1, 7651, Note_on_c, 0, 77, 0
1, 7652, Note_on_c, 2, 56, 0
1, 7653, Note_on_c, 0, 80, 0
1, 7653, Note_on_c, 2, 60, 0
1, 7654, Note_on_c, 2, 65, 0
1, 7659, Note_on_c, 0, 73, 0
1, 7664, Note_on_c, 0, 82, 0
1, 7669, Note_on_c, 1, 37, 0
1, 7671, Note_on_c, 3, 68, 0
1, 7674, Note_on_c, 0, 72, 80
1, 7677, Note_on_c, 5, 53, 0
1, 7679, Note_on_c, 5, 56, 66
1, 7680, Note_on_c, 1, 32, 96
1, 7680, Note_on_c, 9, 42, 99
1, 7680, Note_on_c, 9, 35, 106
1, 7681, Note_on_c, 9, 35, 0
1, 7681, Note_on_c, 9, 42, 0
1, 7682, Note_on_c, 0, 75, 94
1, 7687, Note_on_c, 0, 80, 109
1, 7689, Note_on_c, 0, 84, 98
1, 7727, Note_on_c, 9, 42, 43
1, 7728, Note_on_c, 9, 42, 0
1, 7759, Note_on_c, 1, 32, 0
1, 7775, Note_on_c, 9, 40, 117
1, 7775, Note_on_c, 9, 38, 74
1, 7776, Note_on_c, 9, 38, 0
1, 7776, Note_on_c, 9, 40, 0
1, 7776, Note_on_c, 1, 32, 96
1, 7776, Note_on_c, 2, 65, 73
1, 7776, Note_on_c, 2, 60, 78
1, 7776, Note_on_c, 2, 56, 58
1, 7776, Note_on_c, 9, 54, 100
1, 7776, Note_on_c, 9, 42, 110
1, 7777, Note_on_c, 9, 42, 0
1, 7781, Note_on_c, 5, 56, 0
1, 7786, Note_on_c, 9, 54, 0
1, 7801, Note_on_c, 2, 56, 0
1, 7804, Note_on_c, 2, 60, 0
1, 7804, Note_on_c, 2, 65, 0
1, 7823, Note_on_c, 3, 65, 83
1, 7824, Note_on_c, 9, 42, 68
1, 7824, Note_on_c, 9, 35, 104
1, 7825, Note_on_c, 9, 35, 0
1, 7825, Note_on_c, 9, 42, 0
1, 7845, Note_on_c, 1, 32, 0
1, 7871, Note_on_c, 9, 42, 93
1, 7872, Note_on_c, 9, 42, 0
1, 7872, Note_on_c, 1, 32, 99
1, 7875, Note_on_c, 3, 65, 0
1, 7876, Note_on_c, 3, 72, 104
1, 7919, Note_on_c, 9, 42, 54
1, 7919, Note_on_c, 9, 40, 95
1, 7919, Note_on_c, 9, 38, 52
1, 7920, Note_on_c, 9, 38, 0
1, 7920, Note_on_c, 9, 40, 0
1, 7920, Note_on_c, 9, 42, 0
1, 7943, Note_on_c, 1, 32, 0
1, 7945, Note_on_c, 3, 72, 0
1, 7946, Note_on_c, 3, 70, 85
1, 7967, Note_on_c, 2, 65, 80
1, 7967, Note_on_c, 2, 56, 63
1, 7967, Note_on_c, 9, 38, 77
1, 7967, Note_on_c, 9, 40, 120
1, 7968, Note_on_c, 9, 40, 0
1, 7968, Note_on_c, 9, 38, 0
1, 7968, Note_on_c, 1, 32, 90
1, 7968, Note_on_c, 2, 60, 80
1, 7968, Note_on_c, 9, 42, 110
1, 7968, Note_on_c, 9, 54, 97
1, 7969, Note_on_c, 9, 42, 0
1, 7978, Note_on_c, 9, 54, 0
1, 7991, Note_on_c, 2, 56, 0
1, 7992, Note_on_c, 2, 60, 0
1, 7992, Note_on_c, 2, 65, 0
1, 8003, Note_on_c, 1, 32, 0
1, 8008, Note_on_c, 3, 70, 0
1, 8009, Note_on_c, 3, 68, 73
1, 8015, Note_on_c, 2, 65, 61
1, 8016, Note_on_c, 1, 36, 88
1, 8016, Note_on_c, 9, 35, 97
1, 8016, Note_on_c, 9, 42, 51
1, 8017, Note_on_c, 9, 42, 0
1, 8017, Note_on_c, 9, 35, 0
1, 8017, Note_on_c, 2, 56, 30
1, 8017, Note_on_c, 2, 60, 60
1, 8029, Note_on_c, 2, 56, 0
1, 8030, Note_on_c, 0, 75, 0
1, 8033, Note_on_c, 0, 80, 0
1, 8033, Note_on_c, 2, 60, 0
1, 8034, Note_on_c, 2, 65, 0
1, 8035, Note_on_c, 0, 84, 0
1, 8041, Note_on_c, 3, 68, 0
1, 8043, Note_on_c, 3, 65, 61
1, 8044, Note_on_c, 0, 72, 0
1, 8054, Note_on_c, 1, 36, 0
1, 8055, Note_on_c, 0, 73, 82
1, 8058, Note_on_c, 0, 77, 75
1, 8063, Note_on_c, 5, 60, 68
1, 8063, Note_on_c, 9, 42, 84
1, 8064, Note_on_c, 9, 42, 0
1, 8064, Note_on_c, 1, 37, 99
1, 8064, Note_on_c, 9, 35, 105
1, 8065, Note_on_c, 9, 35, 0
1, 8067, Note_on_c, 0, 80, 101
1, 8070, Note_on_c, 0, 84, 94
1, 8112, Note_on_c, 9, 42, 53
1, 8113, Note_on_c, 9, 42, 0
1, 8114, Note_on_c, 3, 65, 0
1, 8126, Note_on_c, 3, 72, 102
1, 8141, Note_on_c, 1, 37, 0
1, 8159, Note_on_c, 2, 65, 90
1, 8159, Note_on_c, 2, 56, 75
1, 8159, Note_on_c, 2, 60, 90
1, 8159, Note_on_c, 9, 40, 119
1, 8159, Note_on_c, 9, 38, 76
1, 8160, Note_on_c, 9, 38, 0
1, 8160, Note_on_c, 9, 40, 0
1, 8160, Note_on_c, 1, 37, 87
1, 8160, Note_on_c, 9, 42, 113
1, 8160, Note_on_c, 9, 54, 97
1, 8161, Note_on_c, 9, 42, 0
1, 8161, Note_on_c, 5, 58, 75
1, 8162, Note_on_c, 5, 60, 0
1, 8171, Note_on_c, 9, 54, 0
1, 8184, Note_on_c, 2, 65, 0
1, 8185, Note_on_c, 2, 56, 0
1, 8186, Note_on_c, 2, 60, 0
1, 8207, Note_on_c, 9, 42, 58
1, 8208, Note_on_c, 9, 42, 0
1, 8208, Note_on_c, 2, 65, 61
1, 8208, Note_on_c, 9, 35, 104
1, 8209, Note_on_c, 9, 35, 0
1, 8209, Note_on_c, 2, 56, 37
1, 8209, Note_on_c, 2, 60, 65
1, 8221, Note_on_c, 3, 72, 0
1, 8223, Note_on_c, 3, 68, 95
1, 8225, Note_on_c, 2, 60, 0
1, 8225, Note_on_c, 2, 56, 0
1, 8227, Note_on_c, 2, 65, 0
1, 8240, Note_on_c, 1, 37, 0
1, 8254, Note_on_c, 8, 56, 86
1, 8255, Note_on_c, 5, 58, 0
1, 8255, Note_on_c, 5, 56, 60
1, 8255, Note_on_c, 8, 61, 79
1, 8255, Note_on_c, 9, 42, 103
1, 8256, Note_on_c, 9, 42, 0
1, 8256, Note_on_c, 1, 37, 99
1, 8256, Note_on_c, 8, 49, 79
1, 8259, Note_on_c, 7, 65, 96
1, 8294, Note_on_c, 3, 68, 0
1, 8303, Note_on_c, 9, 40, 95
1, 8303, Note_on_c, 9, 38, 52
1, 8304, Note_on_c, 9, 38, 0
1, 8304, Note_on_c, 9, 40, 0
1, 8304, Note_on_c, 3, 68, 102
1, 8304, Note_on_c, 9, 42, 52
1, 8305, Note_on_c, 9, 42, 0
1, 8319, Note_on_c, 0, 73, 0
1, 8327, Note_on_c, 1, 37, 0
1, 8329, Note_on_c, 0, 80, 0
1, 8329, Note_on_c, 0, 77, 0
1, 8329, Note_on_c, 0, 84, 0
1, 8337, Note_on_c, 8, 61, 0
1, 8338, Note_on_c, 8, 49, 0
1, 8339, Note_on_c, 8, 56, 0
1, 8340, Note_on_c, 7, 65, 0
1, 8349, Note_on_c, 5, 56, 0
1, 8349, Note_on_c, 8, 61, 86
1, 8351, Note_on_c, 5, 53, 73
1, 8351, Note_on_c, 7, 65, 93
1, 8351, Note_on_c, 8, 56, 81
1, 8351, Note_on_c, 9, 40, 117
1, 8351, Note_on_c, 9, 38, 74
1, 8352, Note_on_c, 9, 38, 0
1, 8352, Note_on_c, 9, 40, 0
1, 8352, Note_on_c, 0, 77, 95
1, 8352, Note_on_c, 0, 82, 110
1, 8352, Note_on_c, 0, 70, 90
1, 8352, Note_on_c, 0, 73, 101
1, 8352, Note_on_c, 1, 41, 94
1, 8352, Note_on_c, 6, 61, 60
1, 8352, Note_on_c, 8, 49, 79
1, 8352, Note_on_c, 9, 42, 104
1, 8352, Note_on_c, 9, 54, 97
1, 8353, Note_on_c, 9, 42, 0
1, 8367, Note_on_c, 9, 54, 0
1, 8377, Note_on_c, 6, 63, 72
1, 8379, Note_on_c, 6, 61, 0
1, 8400, Note_on_c, 9, 35, 96
1, 8400, Note_on_c, 9, 42, 64
1, 8401, Note_on_c, 9, 42, 0
1, 8401, Note_on_c, 9, 35, 0
1, 8401, Note_on_c, 6, 65, 76
1, 8402, Note_on_c, 6, 63, 0
1, 8417, Note_on_c, 3, 68, 0
1, 8422, Note_on_c, 6, 68, 81
1, 8425, Note_on_c, 6, 65, 0
1, 8426, Note_on_c, 1, 41, 0
1, 8434, Note_on_c, 8, 49, 0
1, 8435, Note_on_c, 0, 73, 0
1, 8440, Note_on_c, 0, 77, 0
1, 8441, Note_on_c, 5, 53, 0
1, 8444, Note_on_c, 7, 65, 0
1, 8444, Note_on_c, 0, 70, 0
1, 8444, Note_on_c, 0, 82, 0
1, 8446, Note_on_c, 8, 56, 0
1, 8447, Note_on_c, 6, 68, 0
1, 8447, Note_on_c, 6, 70, 76
1, 8448, Note_on_c, 0, 70, 83
1, 8448, Note_on_c, 1, 42, 96
1, 8448, Note_on_c, 9, 35, 106
1, 8448, Note_on_c, 9, 42, 99
1, 8449, Note_on_c, 9, 42, 0
1, 8449, Note_on_c, 8, 61, 0
1, 8449, Note_on_c, 9, 35, 0
1, 8450, Note_on_c, 7, 61, 92
1, 8450, Note_on_c, 8, 58, 87
1, 8450, Note_on_c, 8, 54, 82
1, 8452, Note_on_c, 0, 73, 89
1, 8454, Note_on_c, 0, 78, 101
1, 8495, Note_on_c, 9, 42, 43
1, 8496, Note_on_c, 9, 42, 0
1, 8524, Note_on_c, 1, 42, 0
1, 8543, Note_on_c, 3, 73, 115
1, 8543, Note_on_c, 9, 40, 120
1, 8543, Note_on_c, 9, 38, 77
1, 8544, Note_on_c, 9, 38, 0
1, 8544, Note_on_c, 9, 40, 0
1, 8544, Note_on_c, 1, 42, 93
1, 8544, Note_on_c, 4, 66, 72
1, 8544, Note_on_c, 4, 58, 70
1, 8544, Note_on_c, 4, 54, 74
1, 8544, Note_on_c, 4, 73, 79
1, 8544, Note_on_c, 9, 42, 110
1, 8544, Note_on_c, 9, 54, 103
1, 8545, Note_on_c, 9, 42, 0
1, 8556, Note_on_c, 9, 54, 0
1, 8592, Note_on_c, 9, 42, 68
1, 8592, Note_on_c, 9, 35, 105
1, 8593, Note_on_c, 9, 35, 0
1, 8593, Note_on_c, 9, 42, 0
1, 8619, Note_on_c, 1, 42, 0
1, 8638, Note_on_c, 6, 82, 77
1, 8640, Note_on_c, 1, 42, 89
1, 8640, Note_on_c, 9, 42, 93
1, 8641, Note_on_c, 9, 42, 0
1, 8642, Note_on_c, 6, 70, 0
1, 8683, Note_on_c, 3, 73, 0
1, 8685, Note_on_c, 6, 82, 0
1, 8686, Note_on_c, 6, 82, 77
1, 8687, Note_on_c, 4, 58, 0
1, 8687, Note_on_c, 4, 66, 0
1, 8687, Note_on_c, 4, 73, 0
1, 8687, Note_on_c, 4, 54, 0
1, 8687, Note_on_c, 9, 38, 53
1, 8687, Note_on_c, 9, 40, 96
1, 8687, Note_on_c, 9, 42, 54
1, 8688, Note_on_c, 9, 42, 0
1, 8688, Note_on_c, 9, 40, 0
1, 8688, Note_on_c, 9, 38, 0
1, 8688, Note_on_c, 4, 66, 72
1, 8688, Note_on_c, 4, 58, 75
1, 8688, Note_on_c, 4, 54, 74
1, 8688, Note_on_c, 4, 73, 81
1, 8689, Note_on_c, 3, 73, 115
1, 8724, Note_on_c, 1, 42, 0
1, 8734, Note_on_c, 3, 73, 0
1, 8734, Note_on_c, 6, 78, 79
1, 8735, Note_on_c, 4, 54, 0
1, 8735, Note_on_c, 4, 58, 0
1, 8735, Note_on_c, 4, 66, 0
1, 8735, Note_on_c, 4, 73, 0
1, 8735, Note_on_c, 3, 73, 115
1, 8735, Note_on_c, 9, 40, 119
1, 8735, Note_on_c, 9, 38, 76
1, 8736, Note_on_c, 9, 38, 0
1, 8736, Note_on_c, 9, 40, 0
1, 8736, Note_on_c, 1, 42, 90
1, 8736, Note_on_c, 4, 58, 63
1, 8736, Note_on_c, 4, 66, 58
1, 8736, Note_on_c, 4, 54, 58
1, 8736, Note_on_c, 4, 73, 77
1, 8736, Note_on_c, 9, 54, 103
1, 8736, Note_on_c, 9, 42, 110
1, 8737, Note_on_c, 9, 42, 0
1, 8739, Note_on_c, 6, 82, 0
1, 8742, Note_on_c, 9, 54, 0
1, 8768, Note_on_c, 1, 42, 0
1, 8781, Note_on_c, 6, 78, 0
1, 8781, Note_on_c, 3, 73, 0
1, 8781, Note_on_c, 6, 77, 78
1, 8783, Note_on_c, 4, 58, 0
1, 8783, Note_on_c, 4, 54, 0
1, 8783, Note_on_c, 4, 66, 0
1, 8783, Note_on_c, 4, 73, 0
1, 8783, Note_on_c, 3, 77, 115
1, 8784, Note_on_c, 1, 41, 94
1, 8784, Note_on_c, 4, 70, 63
1, 8784, Note_on_c, 4, 77, 74
1, 8784, Note_on_c, 4, 58, 73
1, 8784, Note_on_c, 4, 61, 71
1, 8784, Note_on_c, 9, 35, 96
1, 8784, Note_on_c, 9, 42, 51
1, 8785, Note_on_c, 9, 42, 0
1, 8785, Note_on_c, 9, 35, 0
1, 8785, Note_on_c, 0, 73, 0
1, 8786, Note_on_c, 0, 78, 0
1, 8788, Note_on_c, 0, 70, 0
1, 8821, Note_on_c, 1, 41, 0
1, 8825, Note_on_c, 0, 66, 88
1, 8829, Note_on_c, 6, 77, 0
1, 8830, Note_on_c, 6, 75, 80
1, 8831, Note_on_c, 0, 75, 98
1, 8831, Note_on_c, 0, 70, 94
1, 8832, Note_on_c, 1, 39, 85
1, 8832, Note_on_c, 9, 35, 104
1, 8832, Note_on_c, 9, 42, 84
1, 8833, Note_on_c, 9, 42, 0
1, 8833, Note_on_c, 9, 35, 0
1, 8835, Note_on_c, 8, 54, 0
1, 8835, Note_on_c, 8, 58, 0
1, 8840, Note_on_c, 7, 61, 0
1, 8880, Note_on_c, 9, 42, 53
1, 8881, Note_on_c, 9, 42, 0
1, 8904, Note_on_c, 1, 39, 0
1, 8923, Note_on_c, 3, 77, 0
1, 8927, Note_on_c, 4, 58, 0
1, 8927, Note_on_c, 4, 61, 0
1, 8927, Note_on_c, 4, 77, 0
1, 8927, Note_on_c, 4, 70, 0
1, 8927, Note_on_c, 9, 38, 76
1, 8927, Note_on_c, 9, 40, 119
1, 8928, Note_on_c, 9, 40, 0
1, 8928, Note_on_c, 9, 38, 0
1, 8928, Note_on_c, 1, 39, 94
1, 8928, Note_on_c, 3, 77, 115
1, 8928, Note_on_c, 4, 77, 74
1, 8928, Note_on_c, 4, 70, 65
1, 8928, Note_on_c, 4, 61, 65
1, 8928, Note_on_c, 4, 58, 66
1, 8928, Note_on_c, 9, 42, 113
1, 8928, Note_on_c, 9, 54, 100
1, 8929, Note_on_c, 9, 42, 0
1, 8939, Note_on_c, 9, 54, 0
1, 8975, Note_on_c, 9, 42, 58
1, 8976, Note_on_c, 9, 42, 0
1, 8976, Note_on_c, 9, 35, 105
1, 8977, Note_on_c, 9, 35, 0
1, 9004, Note_on_c, 1, 39, 0
1, 9020, Note_on_c, 3, 77, 0
1, 9023, Note_on_c, 4, 61, 0
1, 9023, Note_on_c, 4, 70, 0
1, 9023, Note_on_c, 4, 58, 0
1, 9023, Note_on_c, 4, 77, 0
1, 9024, Note_on_c, 1, 39, 87
1, 9024, Note_on_c, 4, 68, 60
1, 9024, Note_on_c, 4, 75, 74
1, 9024, Note_on_c, 4, 56, 64
1, 9024, Note_on_c, 4, 60, 69
1, 9024, Note_on_c, 9, 42, 90
1, 9025, Note_on_c, 9, 42, 0
1, 9025, Note_on_c, 3, 75, 115
1, 9070, Note_on_c, 6, 78, 73
1, 9071, Note_on_c, 6, 75, 0
1, 9071, Note_on_c, 9, 38, 54
1, 9071, Note_on_c, 9, 40, 97
1, 9072, Note_on_c, 9, 40, 0
1, 9072, Note_on_c, 9, 38, 0
1, 9072, Note_on_c, 9, 42, 52
1, 9073, Note_on_c, 9, 42, 0
1, 9099, Note_on_c, 1, 39, 0
1, 9117, Note_on_c, 6, 78, 0
1, 9118, Note_on_c, 3, 75, 0
1, 9119, Note_on_c, 4, 56, 0
1, 9119, Note_on_c, 4, 68, 0
1, 9119, Note_on_c, 4, 60, 0
1, 9119, Note_on_c, 4, 75, 0
1, 9119, Note_on_c, 3, 73, 114
1, 9119, Note_on_c, 6, 75, 82
1, 9119, Note_on_c, 9, 40, 120
1, 9119, Note_on_c, 9, 38, 77
1, 9120, Note_on_c, 9, 38, 0
1, 9120, Note_on_c, 9, 40, 0
1, 9120, Note_on_c, 1, 39, 97
1, 9120, Note_on_c, 4, 54, 58
1, 9120, Note_on_c, 4, 73, 64
1, 9120, Note_on_c, 4, 66, 54
1, 9120, Note_on_c, 4, 58, 63
1, 9120, Note_on_c, 9, 42, 104
1, 9120, Note_on_c, 9, 54, 100
1, 9121, Note_on_c, 9, 42, 0
1, 9131, Note_on_c, 9, 54, 0
1, 9155, Note_on_c, 1, 39, 0
1, 9168, Note_on_c, 1, 38, 88
1, 9168, Note_on_c, 9, 42, 64
1, 9168, Note_on_c, 9, 35, 96
1, 9169, Note_on_c, 9, 35, 0
1, 9169, Note_on_c, 9, 42, 0
1, 9189, Note_on_c, 0, 70, 0
1, 9189, Note_on_c, 0, 66, 0
1, 9192, Note_on_c, 0, 75, 0
1, 9196, Note_on_c, 1, 38, 0
1, 9214, Note_on_c, 6, 75, 0
1, 9215, Note_on_c, 4, 58, 0
1, 9215, Note_on_c, 4, 73, 0
1, 9215, Note_on_c, 4, 66, 0
1, 9215, Note_on_c, 4, 54, 0
1, 9215, Note_on_c, 0, 65, 89
1, 9216, Note_on_c, 0, 73, 99
1, 9216, Note_on_c, 0, 68, 95
1, 9216, Note_on_c, 1, 37, 90
1, 9216, Note_on_c, 6, 65, 68
1, 9216, Note_on_c, 6, 68, 63
1, 9216, Note_on_c, 6, 73, 69
1, 9216, Note_on_c, 9, 42, 99
1, 9216, Note_on_c, 9, 35, 106
1, 9217, Note_on_c, 9, 35, 0
1, 9217, Note_on_c, 9, 42, 0
1, 9220, Note_on_c, 3, 73, 0
1, 9263, Note_on_c, 9, 42, 43
1, 9264, Note_on_c, 9, 42, 0
1, 9294, Note_on_c, 1, 37, 0
1, 9311, Note_on_c, 9, 40, 119
1, 9311, Note_on_c, 9, 38, 76
1, 9312, Note_on_c, 9, 38, 0
1, 9312, Note_on_c, 9, 40, 0
1, 9312, Note_on_c, 1, 37, 96
1, 9312, Note_on_c, 4, 53, 74
1, 9312, Note_on_c, 4, 56, 87
1, 9312, Note_on_c, 4, 68, 67
1, 9312, Note_on_c, 4, 77, 71
1, 9312, Note_on_c, 9, 42, 110
1, 9312, Note_on_c, 9, 54, 103
1, 9313, Note_on_c, 9, 42, 0
1, 9313, Note_on_c, 3, 77, 115
1, 9323, Note_on_c, 9, 54, 0
1, 9359, Note_on_c, 8, 56, 98
1, 9359, Note_on_c, 8, 53, 89
1, 9360, Note_on_c, 7, 61, 117
1, 9360, Note_on_c, 9, 42, 68
1, 9360, Note_on_c, 9, 35, 105
1, 9361, Note_on_c, 9, 35, 0
1, 9361, Note_on_c, 9, 42, 0
1, 9364, Note_on_c, 3, 77, 0
1, 9383, Note_on_c, 8, 56, 0
1, 9389, Note_on_c, 8, 53, 0
1, 9396, Note_on_c, 1, 37, 0
1, 9402, Note_on_c, 7, 61, 0
1, 9408, Note_on_c, 1, 32, 96
1, 9408, Note_on_c, 9, 42, 93
1, 9409, Note_on_c, 9, 42, 0
1, 9455, Note_on_c, 4, 53, 0
1, 9455, Note_on_c, 4, 77, 0
1, 9455, Note_on_c, 4, 68, 0
1, 9455, Note_on_c, 4, 56, 0
1, 9455, Note_on_c, 3, 73, 115
1, 9455, Note_on_c, 8, 56, 81
1, 9455, Note_on_c, 9, 38, 52
1, 9455, Note_on_c, 9, 40, 95
1, 9455, Note_on_c, 9, 42, 54
1, 9456, Note_on_c, 9, 42, 0
1, 9456, Note_on_c, 9, 38, 0
1, 9456, Note_on_c, 9, 40, 0
1, 9456, Note_on_c, 4, 56, 83
1, 9456, Note_on_c, 4, 70, 79
1, 9456, Note_on_c, 4, 53, 70
1, 9456, Note_on_c, 4, 65, 81
1, 9458, Note_on_c, 7, 61, 99
1, 9459, Note_on_c, 8, 53, 92
1, 9482, Note_on_c, 1, 32, 0
1, 9485, Note_on_c, 8, 56, 0
1, 9488, Note_on_c, 8, 53, 0
1, 9494, Note_on_c, 7, 61, 0
1, 9496, Note_on_c, 8, 53, 84
1, 9502, Note_on_c, 3, 73, 0
1, 9503, Note_on_c, 4, 65, 0
1, 9503, Note_on_c, 4, 70, 0
1, 9503, Note_on_c, 4, 56, 0
1, 9503, Note_on_c, 4, 53, 0
1, 9503, Note_on_c, 8, 56, 86
1, 9503, Note_on_c, 9, 38, 77
1, 9503, Note_on_c, 9, 40, 120
1, 9504, Note_on_c, 9, 40, 0
1, 9504, Note_on_c, 9, 38, 0
1, 9504, Note_on_c, 1, 37, 97
1, 9504, Note_on_c, 4, 56, 77
1, 9504, Note_on_c, 4, 68, 64
1, 9504, Note_on_c, 4, 73, 78
1, 9504, Note_on_c, 4, 53, 57
1, 9504, Note_on_c, 7, 61, 104
1, 9504, Note_on_c, 9, 54, 100
1, 9504, Note_on_c, 9, 42, 110
1, 9505, Note_on_c, 9, 42, 0
1, 9505, Note_on_c, 3, 73, 115
1, 9515, Note_on_c, 9, 54, 0
1, 9533, Note_on_c, 8, 53, 0
1, 9538, Note_on_c, 8, 56, 0
1, 9538, Note_on_c, 7, 61, 0
1, 9540, Note_on_c, 1, 37, 0
1, 9548, Note_on_c, 3, 73, 0
1, 9551, Note_on_c, 4, 68, 0
1, 9551, Note_on_c, 4, 56, 0
1, 9551, Note_on_c, 4, 73, 0
1, 9551, Note_on_c, 4, 53, 0
1, 9552, Note_on_c, 1, 36, 97
1, 9552, Note_on_c, 4, 70, 65
1, 9552, Note_on_c, 4, 58, 88
1, 9552, Note_on_c, 4, 75, 76
1, 9552, Note_on_c, 4, 53, 67
1, 9552, Note_on_c, 9, 35, 96
1, 9552, Note_on_c, 9, 42, 51
1, 9553, Note_on_c, 9, 42, 0
1, 9553, Note_on_c, 9, 35, 0
1, 9553, Note_on_c, 3, 75, 115
1, 9553, Note_on_c, 7, 61, 118
1, 9553, Note_on_c, 8, 58, 92
1, 9555, Note_on_c, 0, 73, 0
1, 9555, Note_on_c, 0, 68, 0
1, 9556, Note_on_c, 8, 53, 87
1, 9560, Note_on_c, 0, 65, 0
1, 9587, Note_on_c, 1, 36, 0
1, 9593, Note_on_c, 0, 61, 94
1, 9595, Note_on_c, 0, 65, 112
1, 9598, Note_on_c, 0, 70, 96
1, 9599, Note_on_c, 6, 68, 0
1, 9599, Note_on_c, 9, 42, 84
1, 9600, Note_on_c, 9, 42, 0
1, 9600, Note_on_c, 1, 34, 99
1, 9600, Note_on_c, 6, 70, 57
1, 9600, Note_on_c, 9, 35, 106
1, 9601, Note_on_c, 9, 35, 0
1, 9648, Note_on_c, 9, 42, 53
1, 9649, Note_on_c, 9, 42, 0
1, 9686, Note_on_c, 1, 34, 0
1, 9692, Note_on_c, 3, 75, 0
1, 9695, Note_on_c, 4, 70, 0
1, 9695, Note_on_c, 4, 58, 0
1, 9695, Note_on_c, 4, 53, 0
1, 9695, Note_on_c, 4, 75, 0
1, 9695, Note_on_c, 9, 40, 119
1, 9695, Note_on_c, 9, 38, 76
1, 9696, Note_on_c, 9, 38, 0
1, 9696, Note_on_c, 9, 40, 0
1, 9696, Note_on_c, 1, 34, 93
1, 9696, Note_on_c, 4, 58, 63
1, 9696, Note_on_c, 4, 53, 74
1, 9696, Note_on_c, 4, 65, 76
1, 9696, Note_on_c, 4, 73, 81
1, 9696, Note_on_c, 9, 54, 103
1, 9696, Note_on_c, 9, 42, 113
1, 9697, Note_on_c, 9, 42, 0
1, 9697, Note_on_c, 3, 73, 115
1, 9706, Note_on_c, 9, 54, 0
1, 9743, Note_on_c, 9, 42, 58
1, 9744, Note_on_c, 9, 42, 0
1, 9744, Note_on_c, 9, 35, 104
1, 9745, Note_on_c, 9, 35, 0
1, 9748, Note_on_c, 3, 73, 0
1, 9763, Pitch_bend_c, 3, 8426
1, 9765, Pitch_bend_c, 3, 13106
1, 9768, Pitch_bend_c, 3, 14744
1, 9772, Pitch_bend_c, 3, 15446
1, 9773, Note_on_c, 1, 34, 0
1, 9775, Pitch_bend_c, 3, 15914
1, 9778, Pitch_bend_c, 3, 16382
1, 9782, Pitch_bend_c, 3, 16383
1, 9791, Note_on_c, 4, 58, 0
1, 9791, Note_on_c, 4, 65, 0
1, 9791, Note_on_c, 4, 53, 0
1, 9791, Note_on_c, 4, 73, 0
1, 9791, Note_on_c, 3, 73, 115
1, 9791, Note_on_c, 9, 42, 93
1, 9792, Note_on_c, 9, 42, 0
1, 9792, Note_on_c, 1, 37, 99
1, 9792, Note_on_c, 4, 63, 73
1, 9792, Note_on_c, 4, 53, 65
1, 9792, Note_on_c, 4, 72, 75
1, 9792, Note_on_c, 4, 75, 69
1, 9837, Pitch_bend_c, 3, 13925
1, 9839, Pitch_bend_c, 3, 9011
1, 9839, Note_on_c, 9, 40, 96
1, 9839, Note_on_c, 9, 38, 53
1, 9840, Note_on_c, 9, 38, 0
1, 9840, Note_on_c, 9, 40, 0
1, 9840, Note_on_c, 9, 42, 52
1, 9841, Note_on_c, 9, 42, 0
1, 9842, Pitch_bend_c, 3, 8192
1, 9857, Note_on_c, 0, 70, 0
1, 9857, Note_on_c, 0, 61, 0
1, 9863, Note_on_c, 0, 65, 0
1, 9864, Note_on_c, 7, 61, 0
1, 9868, Note_on_c, 1, 37, 0
1, 9874, Note_on_c, 3, 73, 0
1, 9878, Note_on_c, 8, 53, 0
1, 9882, Note_on_c, 8, 58, 0
1, 9886, Note_on_c, 0, 61, 84
1, 9887, Note_on_c, 4, 63, 0
1, 9887, Note_on_c, 4, 72, 0
1, 9887, Note_on_c, 4, 75, 0
1, 9887, Note_on_c, 4, 53, 0
1, 9887, Note_on_c, 9, 38, 76
1, 9887, Note_on_c, 9, 40, 119
1, 9888, Note_on_c, 9, 40, 0
1, 9888, Note_on_c, 9, 38, 0
1, 9888, Note_on_c, 0, 65, 108
1, 9888, Note_on_c, 1, 41, 97
1, 9888, Note_on_c, 3, 73, 115
1, 9888, Note_on_c, 4, 70, 78
1, 9888, Note_on_c, 4, 73, 69
1, 9888, Note_on_c, 4, 61, 71
1, 9888, Note_on_c, 4, 53, 58
1, 9888, Note_on_c, 7, 61, 95
1, 9888, Note_on_c, 9, 42, 104
1, 9888, Note_on_c, 9, 54, 103
1, 9889, Note_on_c, 9, 42, 0
1, 9889, Note_on_c, 8, 58, 84
1, 9890, Note_on_c, 0, 70, 98
1, 9894, Note_on_c, 8, 53, 94
1, 9899, Note_on_c, 9, 54, 0
1, 9935, Note_on_c, 6, 73, 0
1, 9936, Note_on_c, 6, 77, 64
1, 9936, Note_on_c, 9, 35, 96
1, 9936, Note_on_c, 9, 42, 64
1, 9937, Note_on_c, 9, 42, 0
1, 9937, Note_on_c, 9, 35, 0
1, 9938, Note_on_c, 0, 61, 0
1, 9947, Note_on_c, 0, 65, 0
1, 9954, Note_on_c, 0, 70, 0
1, 9956, Note_on_c, 1, 41, 0
1, 9960, Note_on_c, 6, 73, 57
1, 9961, Note_on_c, 6, 77, 0
1, 9965, Note_on_c, 8, 58, 0
1, 9967, Note_on_c, 8, 53, 0
1, 9970, Note_on_c, 7, 61, 0
1, 9975, Note_on_c, 3, 73, 0
1, 9978, Note_on_c, 0, 70, 97
1, 9978, Note_on_c, 8, 54, 86
1, 9981, Note_on_c, 6, 70, 0
1, 9982, Note_on_c, 0, 73, 99
1, 9983, Note_on_c, 4, 53, 0
1, 9983, Note_on_c, 6, 73, 0
1, 9983, Note_on_c, 6, 65, 0
1, 9983, Note_on_c, 4, 61, 0
1, 9983, Note_on_c, 4, 70, 0
1, 9983, Note_on_c, 4, 73, 0
1, 9984, Note_on_c, 0, 78, 114
1, 9984, Note_on_c, 1, 42, 93
1, 9984, Note_on_c, 7, 61, 99
1, 9984, Note_on_c, 9, 42, 99
1, 9984, Note_on_c, 9, 35, 106
1, 9985, Note_on_c, 9, 35, 0
1, 9985, Note_on_c, 9, 42, 0
1, 9986, Note_on_c, 6, 70, 66
1, 9987, Note_on_c, 8, 58, 85
1, 10031, Note_on_c, 9, 42, 43
1, 10032, Note_on_c, 9, 42, 0
1, 10079, Note_on_c, 9, 38, 76
1, 10079, Note_on_c, 9, 40, 119
1, 10080, Note_on_c, 9, 40, 0
1, 10080, Note_on_c, 9, 38, 0
1, 10080, Note_on_c, 4, 73, 79
1, 10080, Note_on_c, 4, 54, 74
1, 10080, Note_on_c, 4, 58, 70
1, 10080, Note_on_c, 4, 66, 72
1, 10080, Note_on_c, 9, 54, 100
1, 10080, Note_on_c, 9, 42, 110
1, 10081, Note_on_c, 9, 42, 0
1, 10081, Note_on_c, 3, 73, 115
1, 10090, Note_on_c, 9, 54, 0
1, 10098, Note_on_c, 1, 42, 0
1, 10128, Note_on_c, 1, 42, 90
1, 10128, Note_on_c, 9, 42, 68
1, 10128, Note_on_c, 9, 35, 104
1, 10129, Note_on_c, 9, 35, 0
1, 10129, Note_on_c, 9, 42, 0
1, 10162, Note_on_c, 1, 42, 0
1, 10175, Note_on_c, 6, 82, 72
1, 10175, Note_on_c, 9, 42, 93
1, 10176, Note_on_c, 9, 42, 0
1, 10176, Note_on_c, 1, 37, 98
1, 10177, Note_on_c, 6, 70, 0
1, 10210, Note_on_c, 3, 73, 0
1, 10220, Note_on_c, 6, 82, 0
1, 10222, Note_on_c, 6, 82, 75
1, 10223, Note_on_c, 4, 58, 0
1, 10223, Note_on_c, 4, 54, 0
1, 10223, Note_on_c, 4, 73, 0
1, 10223, Note_on_c, 4, 66, 0
1, 10223, Note_on_c, 3, 73, 115
1, 10223, Note_on_c, 9, 38, 54
1, 10223, Note_on_c, 9, 40, 97
1, 10223, Note_on_c, 9, 42, 54
1, 10224, Note_on_c, 9, 42, 0
1, 10224, Note_on_c, 9, 38, 0
1, 10224, Note_on_c, 9, 40, 0
1, 10224, Note_on_c, 4, 54, 74
1, 10224, Note_on_c, 4, 58, 75
1, 10224, Note_on_c, 4, 66, 72
1, 10224, Note_on_c, 4, 73, 81
1, 10264, Note_on_c, 3, 73, 0
1, 10271, Note_on_c, 4, 58, 0
1, 10271, Note_on_c, 4, 54, 0
1, 10271, Note_on_c, 4, 73, 0
1, 10271, Note_on_c, 4, 66, 0
1, 10271, Note_on_c, 3, 73, 115
1, 10271, Note_on_c, 6, 78, 87
1, 10271, Note_on_c, 9, 38, 76
1, 10271, Note_on_c, 9, 40, 119
1, 10272, Note_on_c, 9, 40, 0
1, 10272, Note_on_c, 9, 38, 0
1, 10272, Note_on_c, 4, 54, 58
1, 10272, Note_on_c, 4, 66, 58
1, 10272, Note_on_c, 4, 58, 63
1, 10272, Note_on_c, 4, 73, 77
1, 10272, Note_on_c, 9, 54, 97
1, 10272, Note_on_c, 9, 42, 110
1, 10273, Note_on_c, 9, 42, 0
1, 10275, Note_on_c, 6, 82, 0
1, 10282, Note_on_c, 1, 37, 0
1, 10282, Note_on_c, 9, 54, 0
1, 10317, Note_on_c, 3, 73, 0
1, 10318, Note_on_c, 6, 78, 0
1, 10318, Note_on_c, 6, 77, 73
1, 10319, Note_on_c, 4, 58, 0
1, 10319, Note_on_c, 4, 54, 0
1, 10319, Note_on_c, 4, 66, 0
1, 10319, Note_on_c, 4, 73, 0
1, 10320, Note_on_c, 1, 41, 90
1, 10320, Note_on_c, 3, 77, 115
1, 10320, Note_on_c, 4, 61, 71
1, 10320, Note_on_c, 4, 70, 63
1, 10320, Note_on_c, 4, 77, 74
1, 10320, Note_on_c, 4, 58, 73
1, 10320, Note_on_c, 9, 35, 96
1, 10320, Note_on_c, 9, 42, 51
1, 10321, Note_on_c, 9, 42, 0
1, 10321, Note_on_c, 9, 35, 0
1, 10330, Note_on_c, 0, 73, 0
1, 10330, Note_on_c, 0, 70, 0
1, 10330, Note_on_c, 0, 78, 0
1, 10353, Note_on_c, 8, 54, 0
1, 10353, Note_on_c, 8, 58, 0
1, 10356, Note_on_c, 1, 41, 0
1, 10366, Note_on_c, 0, 66, 92
1, 10367, Note_on_c, 0, 70, 94
1, 10367, Note_on_c, 6, 75, 82
1, 10367, Note_on_c, 9, 42, 84
1, 10368, Note_on_c, 9, 42, 0
1, 10368, Note_on_c, 1, 39, 90
1, 10368, Note_on_c, 9, 35, 105
1, 10369, Note_on_c, 9, 35, 0
1, 10369, Note_on_c, 6, 77, 0
1, 10370, Note_on_c, 0, 75, 105
1, 10384, Note_on_c, 7, 61, 0
1, 10416, Note_on_c, 9, 42, 53
1, 10417, Note_on_c, 9, 42, 0
1, 10449, Note_on_c, 3, 77, 0
1, 10463, Note_on_c, 4, 61, 0
1, 10463, Note_on_c, 4, 77, 0
1, 10463, Note_on_c, 4, 70, 0
1, 10463, Note_on_c, 4, 58, 0
1, 10463, Note_on_c, 9, 40, 119
1, 10463, Note_on_c, 9, 38, 76
1, 10464, Note_on_c, 9, 38, 0
1, 10464, Note_on_c, 9, 40, 0
1, 10464, Note_on_c, 4, 61, 65
1, 10464, Note_on_c, 4, 70, 65
1, 10464, Note_on_c, 4, 58, 66
1, 10464, Note_on_c, 4, 77, 74
1, 10464, Note_on_c, 9, 54, 97
1, 10464, Note_on_c, 9, 42, 113
1, 10465, Note_on_c, 9, 42, 0
1, 10465, Note_on_c, 3, 77, 115
1, 10475, Note_on_c, 9, 54, 0
1, 10485, Note_on_c, 1, 39, 0
1, 10511, Note_on_c, 9, 42, 58
1, 10512, Note_on_c, 9, 42, 0
1, 10512, Note_on_c, 1, 39, 88
1, 10512, Note_on_c, 9, 35, 104
1, 10513, Note_on_c, 9, 35, 0
1, 10547, Note_on_c, 1, 39, 0
1, 10557, Note_on_c, 3, 77, 0
1, 10558, Note_on_c, 3, 75, 115
1, 10559, Note_on_c, 4, 58, 0
1, 10559, Note_on_c, 4, 77, 0
1, 10559, Note_on_c, 4, 70, 0
1, 10559, Note_on_c, 4, 61, 0
1, 10559, Note_on_c, 9, 42, 95
1, 10560, Note_on_c, 9, 42, 0
1, 10560, Note_on_c, 1, 34, 90
1, 10560, Note_on_c, 4, 56, 64
1, 10560, Note_on_c, 4, 60, 69
1, 10560, Note_on_c, 4, 75, 74
1, 10560, Note_on_c, 4, 68, 60
1, 10605, Note_on_c, 6, 75, 0
1, 10606, Note_on_c, 6, 78, 73
1, 10607, Note_on_c, 9, 38, 52
1, 10607, Note_on_c, 9, 40, 95
1, 10608, Note_on_c, 9, 40, 0
1, 10608, Note_on_c, 9, 38, 0
1, 10608, Note_on_c, 9, 42, 52
1, 10609, Note_on_c, 9, 42, 0
1, 10631, Note_on_c, 0, 75, 0
1, 10632, Note_on_c, 1, 34, 0
1, 10635, Note_on_c, 0, 66, 0
1, 10637, Note_on_c, 0, 70, 0
1, 10654, Note_on_c, 3, 75, 0
1, 10655, Note_on_c, 4, 56, 0
1, 10655, Note_on_c, 4, 68, 0
1, 10655, Note_on_c, 4, 60, 0
1, 10655, Note_on_c, 4, 75, 0
1, 10655, Note_on_c, 3, 73, 115
1, 10655, Note_on_c, 6, 75, 82
1, 10655, Note_on_c, 9, 40, 118
1, 10655, Note_on_c, 9, 38, 75
1, 10656, Note_on_c, 9, 38, 0
1, 10656, Note_on_c, 9, 40, 0
1, 10656, Note_on_c, 1, 39, 92
1, 10656, Note_on_c, 4, 73, 64
1, 10656, Note_on_c, 4, 58, 63
1, 10656, Note_on_c, 4, 66, 54
1, 10656, Note_on_c, 4, 54, 58
1, 10656, Note_on_c, 9, 42, 104
1, 10656, Note_on_c, 9, 54, 97
1, 10657, Note_on_c, 9, 42, 0
1, 10657, Note_on_c, 6, 78, 0
1, 10660, Note_on_c, 0, 66, 92
1, 10661, Note_on_c, 0, 70, 97
1, 10662, Note_on_c, 0, 75, 101
1, 10671, Note_on_c, 9, 54, 0
1, 10687, Note_on_c, 1, 39, 0
1, 10704, Note_on_c, 1, 38, 86
1, 10704, Note_on_c, 9, 35, 95
1, 10704, Note_on_c, 9, 42, 64
1, 10705, Note_on_c, 9, 42, 0
1, 10705, Note_on_c, 9, 35, 0
1, 10712, Note_on_c, 3, 73, 0
1, 10728, Note_on_c, 0, 66, 0
1, 10732, Note_on_c, 0, 70, 0
1, 10735, Note_on_c, 1, 38, 0
1, 10736, Note_on_c, 0, 75, 0
1, 10751, Note_on_c, 4, 58, 0
1, 10751, Note_on_c, 4, 73, 0
1, 10751, Note_on_c, 4, 54, 0
1, 10751, Note_on_c, 4, 66, 0
1, 10751, Note_on_c, 6, 73, 64
1, 10751, Note_on_c, 6, 68, 67
1, 10752, Note_on_c, 0, 68, 99
1, 10752, Note_on_c, 0, 65, 81
1, 10752, Note_on_c, 0, 73, 87
1, 10752, Note_on_c, 1, 37, 87
1, 10752, Note_on_c, 9, 35, 106
1, 10752, Note_on_c, 9, 42, 99
1, 10753, Note_on_c, 9, 42, 0
1, 10753, Note_on_c, 9, 35, 0
1, 10753, Note_on_c, 6, 65, 64
1, 10755, Note_on_c, 6, 75, 0
1, 10799, Note_on_c, 9, 42, 43
1, 10800, Note_on_c, 9, 42, 0
1, 10828, Note_on_c, 1, 37, 0
1, 10847, Note_on_c, 9, 38, 77
1, 10847, Note_on_c, 9, 40, 120
1, 10848, Note_on_c, 9, 40, 0
1, 10848, Note_on_c, 9, 38, 0
1, 10848, Note_on_c, 1, 37, 96
1, 10848, Note_on_c, 4, 77, 71
1, 10848, Note_on_c, 4, 68, 67
1, 10848, Note_on_c, 4, 53, 74
1, 10848, Note_on_c, 4, 56, 87
1, 10848, Note_on_c, 9, 42, 110
1, 10848, Note_on_c, 9, 54, 103
1, 10849, Note_on_c, 9, 42, 0
1, 10849, Note_on_c, 3, 77, 115
1, 10860, Note_on_c, 9, 54, 0
1, 10895, Note_on_c, 8, 56, 99
1, 10896, Note_on_c, 7, 61, 107
1, 10896, Note_on_c, 8, 53, 84
1, 10896, Note_on_c, 9, 35, 104
1, 10896, Note_on_c, 9, 42, 68
1, 10897, Note_on_c, 9, 42, 0
1, 10897, Note_on_c, 9, 35, 0
1, 10900, Note_on_c, 3, 77, 0
1, 10917, Note_on_c, 8, 56, 0
1, 10924, Note_on_c, 8, 53, 0
1, 10931, Note_on_c, 1, 37, 0
1, 10932, Note_on_c, 7, 61, 0
1, 10943, Note_on_c, 9, 42, 90
1, 10944, Note_on_c, 9, 42, 0
1, 10944, Note_on_c, 1, 37, 81
1, 10991, Note_on_c, 4, 53, 0
1, 10991, Note_on_c, 4, 68, 0
1, 10991, Note_on_c, 4, 56, 0
1, 10991, Note_on_c, 4, 77, 0
1, 10991, Note_on_c, 3, 73, 115
1, 10991, Note_on_c, 9, 38, 53
1, 10991, Note_on_c, 9, 42, 54
1, 10991, Note_on_c, 9, 40, 96
1, 10992, Note_on_c, 9, 40, 0
1, 10992, Note_on_c, 9, 42, 0
1, 10992, Note_on_c, 9, 38, 0
1, 10992, Note_on_c, 4, 53, 70
1, 10992, Note_on_c, 4, 65, 81
1, 10992, Note_on_c, 4, 56, 83
1, 10992, Note_on_c, 4, 70, 79
1, 10993, Note_on_c, 8, 53, 87
1, 10993, Note_on_c, 8, 56, 91
1, 10994, Note_on_c, 7, 61, 92
1, 11012, Note_on_c, 0, 65, 0
1, 11015, Note_on_c, 1, 37, 0
1, 11016, Note_on_c, 0, 73, 0
1, 11018, Note_on_c, 0, 68, 0
1, 11021, Note_on_c, 8, 56, 0
1, 11023, Note_on_c, 8, 53, 0
1, 11028, Note_on_c, 7, 61, 0
1, 11038, Note_on_c, 3, 73, 0
1, 11039, Note_on_c, 4, 53, 0
1, 11039, Note_on_c, 4, 70, 0
1, 11039, Note_on_c, 4, 56, 0
1, 11039, Note_on_c, 4, 65, 0
1, 11039, Note_on_c, 0, 65, 78
1, 11039, Note_on_c, 7, 61, 97
1, 11039, Note_on_c, 8, 53, 92
1, 11039, Note_on_c, 8, 56, 89
1, 11039, Note_on_c, 9, 40, 119
1, 11039, Note_on_c, 9, 38, 76
1, 11040, Note_on_c, 9, 38, 0
1, 11040, Note_on_c, 9, 40, 0
1, 11040, Note_on_c, 1, 37, 96
1, 11040, Note_on_c, 4, 53, 57
1, 11040, Note_on_c, 4, 56, 77
1, 11040, Note_on_c, 4, 68, 64
1, 11040, Note_on_c, 4, 73, 78
1, 11040, Note_on_c, 9, 42, 110
1, 11040, Note_on_c, 9, 54, 103
1, 11041, Note_on_c, 9, 42, 0
1, 11041, Note_on_c, 3, 73, 115
1, 11042, Note_on_c, 0, 68, 95
1, 11042, Note_on_c, 0, 73, 101
1, 11046, Note_on_c, 9, 54, 0
1, 11070, Note_on_c, 1, 37, 0
1, 11071, Note_on_c, 8, 56, 0
1, 11078, Note_on_c, 8, 53, 0
1, 11079, Note_on_c, 7, 61, 0
1, 11084, Note_on_c, 3, 73, 0
1, 11087, Note_on_c, 4, 56, 0
1, 11087, Note_on_c, 4, 53, 0
1, 11087, Note_on_c, 4, 68, 0
1, 11087, Note_on_c, 4, 73, 0
1, 11087, Note_on_c, 8, 58, 93
1, 11088, Note_on_c, 1, 36, 94
1, 11088, Note_on_c, 4, 58, 88
1, 11088, Note_on_c, 4, 53, 67
1, 11088, Note_on_c, 4, 75, 76
1, 11088, Note_on_c, 4, 70, 65
1, 11088, Note_on_c, 8, 53, 87
1, 11088, Note_on_c, 9, 35, 96
1, 11088, Note_on_c, 9, 42, 51
1, 11089, Note_on_c, 9, 42, 0
1, 11089, Note_on_c, 9, 35, 0
1, 11089, Note_on_c, 3, 75, 115
1, 11095, Note_on_c, 7, 61, 97
1, 11101, Note_on_c, 0, 73, 0
1, 11105, Note_on_c, 0, 68, 0
1, 11109, Note_on_c, 0, 65, 0
1, 11121, Note_on_c, 1, 36, 0
1, 11134, Note_on_c, 6, 68, 0
1, 11134, Note_on_c, 6, 70, 72
1, 11135, Note_on_c, 9, 42, 84
1, 11136, Note_on_c, 9, 42, 0
1, 11136, Note_on_c, 0, 61, 87
1, 11136, Note_on_c, 0, 70, 87
1, 11136, Note_on_c, 0, 65, 101
1, 11136, Note_on_c, 1, 34, 86
1, 11136, Note_on_c, 9, 35, 106
1, 11137, Note_on_c, 9, 35, 0
1, 11184, Note_on_c, 9, 42, 53
1, 11185, Note_on_c, 9, 42, 0
1, 11220, Note_on_c, 1, 34, 0
1, 11228, Note_on_c, 3, 75, 0
1, 11231, Note_on_c, 4, 58, 0
1, 11231, Note_on_c, 4, 53, 0
1, 11231, Note_on_c, 4, 75, 0
1, 11231, Note_on_c, 4, 70, 0
1, 11231, Note_on_c, 9, 40, 119
1, 11231, Note_on_c, 9, 38, 76
1, 11232, Note_on_c, 9, 38, 0
1, 11232, Note_on_c, 9, 40, 0
1, 11232, Note_on_c, 1, 34, 84
1, 11232, Note_on_c, 4, 53, 74
1, 11232, Note_on_c, 4, 65, 76
1, 11232, Note_on_c, 4, 73, 81
1, 11232, Note_on_c, 4, 58, 63
1, 11232, Note_on_c, 9, 42, 113
1, 11232, Note_on_c, 9, 54, 100
1, 11233, Note_on_c, 9, 42, 0
1, 11233, Note_on_c, 3, 73, 112
1, 11243, Note_on_c, 9, 54, 0
1, 11279, Note_on_c, 3, 73, 0
1, 11279, Note_on_c, 9, 42, 58
1, 11280, Note_on_c, 9, 42, 0
1, 11280, Note_on_c, 3, 70, 79
1, 11280, Note_on_c, 9, 35, 104
1, 11281, Note_on_c, 9, 35, 0
1, 11299, Pitch_bend_c, 3, 8426
1, 11301, Note_on_c, 1, 34, 0
1, 11301, Pitch_bend_c, 3, 13106
1, 11302, Note_on_c, 3, 70, 0
1, 11304, Pitch_bend_c, 3, 14744
1, 11308, Pitch_bend_c, 3, 15446
1, 11311, Pitch_bend_c, 3, 15914
1, 11314, Pitch_bend_c, 3, 16382
1, 11318, Pitch_bend_c, 3, 16383
1, 11327, Note_on_c, 4, 53, 0
1, 11327, Note_on_c, 4, 73, 0
1, 11327, Note_on_c, 4, 65, 0
1, 11327, Note_on_c, 4, 58, 0
1, 11327, Note_on_c, 3, 73, 115
1, 11327, Note_on_c, 9, 42, 90
1, 11328, Note_on_c, 9, 42, 0
1, 11328, Note_on_c, 1, 34, 72
1, 11328, Note_on_c, 4, 63, 73
1, 11328, Note_on_c, 4, 75, 69
1, 11328, Note_on_c, 4, 53, 65
1, 11328, Note_on_c, 4, 72, 75
1, 11373, Pitch_bend_c, 3, 13925
1, 11375, Pitch_bend_c, 3, 9011
1, 11375, Note_on_c, 9, 40, 95
1, 11375, Note_on_c, 9, 38, 52
1, 11376, Note_on_c, 9, 38, 0
1, 11376, Note_on_c, 9, 40, 0
1, 11376, Note_on_c, 9, 42, 52
1, 11377, Note_on_c, 9, 42, 0
1, 11378, Pitch_bend_c, 3, 8192
1, 11390, Note_on_c, 0, 61, 0
1, 11392, Note_on_c, 0, 70, 0
1, 11396, Note_on_c, 0, 65, 0
1, 11402, Note_on_c, 8, 53, 0
1, 11404, Note_on_c, 1, 34, 0
1, 11406, Note_on_c, 7, 61, 0
1, 11410, Note_on_c, 3, 73, 0
1, 11411, Note_on_c, 8, 58, 0
1, 11422, Note_on_c, 0, 65, 91
1, 11423, Note_on_c, 4, 75, 0
1, 11423, Note_on_c, 4, 53, 0
1, 11423, Note_on_c, 4, 72, 0
1, 11423, Note_on_c, 4, 63, 0
1, 11423, Note_on_c, 0, 70, 98
1, 11423, Note_on_c, 0, 73, 96
1, 11423, Note_on_c, 8, 53, 96
1, 11423, Note_on_c, 9, 38, 77
1, 11423, Note_on_c, 9, 40, 120
1, 11424, Note_on_c, 9, 40, 0
1, 11424, Note_on_c, 9, 38, 0
1, 11424, Note_on_c, 1, 37, 87
1, 11424, Note_on_c, 3, 73, 115
1, 11424, Note_on_c, 4, 61, 71
1, 11424, Note_on_c, 4, 73, 69
1, 11424, Note_on_c, 4, 70, 78
1, 11424, Note_on_c, 4, 53, 58
1, 11424, Note_on_c, 7, 61, 103
1, 11424, Note_on_c, 8, 58, 79
1, 11424, Note_on_c, 9, 54, 100
1, 11424, Note_on_c, 9, 42, 104
1, 11425, Note_on_c, 9, 42, 0
1, 11435, Note_on_c, 9, 54, 0
1, 11463, Note_on_c, 1, 37, 0
1, 11472, Note_on_c, 1, 39, 67
1, 11472, Note_on_c, 9, 35, 96
1, 11472, Note_on_c, 9, 42, 64
1, 11473, Note_on_c, 9, 42, 0
1, 11473, Note_on_c, 9, 35, 0
1, 11496, Note_on_c, 0, 65, 0
1, 11501, Note_on_c, 0, 70, 0
1, 11501, Note_on_c, 8, 53, 0
1, 11504, Note_on_c, 7, 61, 0
1, 11504, Note_on_c, 1, 39, 0
1, 11507, Note_on_c, 8, 58, 0
1, 11509, Note_on_c, 0, 73, 0
1, 11511, Note_on_c, 3, 73, 0
1, 11517, Note_on_c, 6, 70, 0
1, 11519, Note_on_c, 4, 73, 0
1, 11519, Note_on_c, 4, 53, 0
1, 11519, Note_on_c, 4, 70, 0
1, 11519, Note_on_c, 4, 61, 0
1, 11520, Note_on_c, 0, 72, 82
1, 11520, Note_on_c, 1, 32, 99
1, 11520, Note_on_c, 5, 68, 65
1, 11520, Note_on_c, 5, 63, 59
1, 11520, Note_on_c, 5, 72, 70
1, 11520, Note_on_c, 8, 56, 74
1, 11520, Note_on_c, 8, 60, 84
1, 11520, Note_on_c, 9, 42, 99
1, 11520, Note_on_c, 9, 35, 106
1, 11521, Note_on_c, 9, 35, 0
1, 11521, Note_on_c, 9, 42, 0
1, 11521, Note_on_c, 7, 63, 90
1, 11523, Note_on_c, 6, 65, 0
1, 11524, Note_on_c, 6, 73, 0
1, 11529, Note_on_c, 0, 75, 96
1, 11533, Note_on_c, 0, 80, 91
1, 11537, Note_on_c, 0, 84, 88
1, 11567, Note_on_c, 9, 42, 43
1, 11568, Note_on_c, 9, 42, 0
1, 11584, Note_on_c, 1, 32, 0
1, 11615, Note_on_c, 1, 32, 96
1, 11615, Note_on_c, 6, 75, 85
1, 11615, Note_on_c, 9, 40, 120
1, 11615, Note_on_c, 9, 38, 77
1, 11616, Note_on_c, 9, 38, 0
1, 11616, Note_on_c, 9, 40, 0
1, 11616, Note_on_c, 2, 56, 58
1, 11616, Note_on_c, 2, 65, 73
1, 11616, Note_on_c, 2, 60, 78
1, 11616, Note_on_c, 9, 42, 110
1, 11616, Note_on_c, 9, 54, 103
1, 11617, Note_on_c, 9, 42, 0
1, 11627, Note_on_c, 9, 54, 0
1, 11641, Note_on_c, 2, 56, 0
1, 11644, Note_on_c, 2, 60, 0
1, 11644, Note_on_c, 2, 65, 0
1, 11664, Note_on_c, 9, 42, 68
1, 11664, Note_on_c, 9, 35, 105
1, 11665, Note_on_c, 9, 35, 0
1, 11665, Note_on_c, 9, 42, 0
1, 11687, Note_on_c, 1, 32, 0
1, 11711, Note_on_c, 1, 32, 95
1, 11711, Note_on_c, 9, 42, 93
1, 11712, Note_on_c, 9, 42, 0
1, 11714, Note_on_c, 6, 80, 79
1, 11717, Note_on_c, 6, 75, 0
1, 11759, Note_on_c, 9, 38, 56
1, 11759, Note_on_c, 9, 40, 99
1, 11759, Note_on_c, 9, 42, 54
1, 11760, Note_on_c, 9, 42, 0
1, 11760, Note_on_c, 9, 40, 0
1, 11760, Note_on_c, 9, 38, 0
1, 11765, Note_on_c, 3, 77, 111
1, 11788, Note_on_c, 1, 32, 0
1, 11807, Note_on_c, 1, 32, 90
1, 11807, Note_on_c, 2, 65, 80
1, 11807, Note_on_c, 2, 56, 63
1, 11807, Note_on_c, 9, 38, 78
1, 11807, Note_on_c, 9, 40, 121
1, 11808, Note_on_c, 9, 40, 0
1, 11808, Note_on_c, 9, 38, 0
1, 11808, Note_on_c, 2, 60, 80
1, 11808, Note_on_c, 9, 54, 100
1, 11808, Note_on_c, 9, 42, 110
1, 11809, Note_on_c, 9, 42, 0
1, 11810, Note_on_c, 6, 84, 85
1, 11812, Note_on_c, 6, 80, 0
1, 11819, Note_on_c, 9, 54, 0
1, 11830, Note_on_c, 8, 56, 0
1, 11831, Note_on_c, 8, 60, 0
1, 11831, Note_on_c, 2, 56, 0
1, 11832, Note_on_c, 2, 60, 0
1, 11832, Note_on_c, 2, 65, 0
1, 11834, Note_on_c, 3, 77, 0
1, 11841, Note_on_c, 7, 63, 0
1, 11847, Note_on_c, 1, 32, 0
1, 11855, Note_on_c, 1, 36, 92
1, 11855, Note_on_c, 2, 65, 61
1, 11856, Note_on_c, 9, 42, 51
1, 11856, Note_on_c, 9, 35, 96
1, 11857, Note_on_c, 9, 35, 0
1, 11857, Note_on_c, 9, 42, 0
1, 11857, Note_on_c, 2, 60, 60
1, 11857, Note_on_c, 2, 56, 30
1, 11859, Note_on_c, 0, 72, 0
1, 11863, Note_on_c, 0, 75, 0
1, 11863, Note_on_c, 3, 77, 108
1, 11866, Note_on_c, 0, 80, 0
1, 11869, Note_on_c, 2, 56, 0
1, 11873, Note_on_c, 2, 60, 0
1, 11874, Note_on_c, 2, 65, 0
1, 11896, Note_on_c, 1, 36, 0
1, 11902, Note_on_c, 6, 84, 0
1, 11903, Note_on_c, 5, 72, 0
1, 11903, Note_on_c, 5, 68, 0
1, 11903, Note_on_c, 5, 63, 0
1, 11903, Note_on_c, 1, 37, 93
1, 11903, Note_on_c, 9, 42, 84
1, 11904, Note_on_c, 9, 42, 0
1, 11904, Note_on_c, 5, 72, 69
1, 11904, Note_on_c, 5, 65, 62
1, 11904, Note_on_c, 5, 68, 57
1, 11904, Note_on_c, 9, 35, 104
1, 11905, Note_on_c, 9, 35, 0
1, 11905, Note_on_c, 0, 72, 91
1, 11905, Note_on_c, 6, 84, 86
1, 11911, Note_on_c, 0, 77, 86
1, 11911, Note_on_c, 0, 80, 71
1, 11952, Note_on_c, 9, 42, 53
1, 11953, Note_on_c, 9, 42, 0
1, 11978, Note_on_c, 1, 37, 0
1, 11998, Note_on_c, 6, 80, 81
1, 11999, Note_on_c, 1, 37, 93
1, 11999, Note_on_c, 2, 56, 75
1, 11999, Note_on_c, 2, 65, 90
1, 11999, Note_on_c, 2, 60, 90
1, 11999, Note_on_c, 9, 38, 76
1, 11999, Note_on_c, 9, 40, 119
1, 12000, Note_on_c, 9, 40, 0
1, 12000, Note_on_c, 9, 38, 0
1, 12000, Note_on_c, 6, 84, 0
1, 12000, Note_on_c, 9, 54, 103
1, 12000, Note_on_c, 9, 42, 113
1, 12001, Note_on_c, 9, 42, 0
1, 12006, Note_on_c, 3, 77, 0
1, 12010, Note_on_c, 9, 54, 0
1, 12024, Note_on_c, 2, 65, 0
1, 12025, Note_on_c, 2, 56, 0
1, 12026, Note_on_c, 2, 60, 0
1, 12047, Note_on_c, 9, 42, 58
1, 12048, Note_on_c, 9, 42, 0
1, 12048, Note_on_c, 2, 65, 61
1, 12048, Note_on_c, 9, 35, 105
1, 12049, Note_on_c, 9, 35, 0
1, 12049, Note_on_c, 2, 56, 37
1, 12049, Note_on_c, 2, 60, 65
1, 12053, Note_on_c, 3, 65, 85
1, 12065, Note_on_c, 2, 60, 0
1, 12065, Note_on_c, 2, 56, 0
1, 12067, Note_on_c, 2, 65, 0
1, 12069, Note_on_c, 3, 65, 0
1, 12072, Note_on_c, 3, 68, 95
1, 12076, Note_on_c, 1, 37, 0
1, 12087, Note_on_c, 3, 68, 0
1, 12095, Note_on_c, 6, 77, 74
1, 12095, Note_on_c, 9, 42, 103
1, 12096, Note_on_c, 9, 42, 0
1, 12096, Note_on_c, 1, 37, 93
1, 12098, Note_on_c, 3, 72, 112
1, 12100, Note_on_c, 6, 80, 0
1, 12124, Note_on_c, 0, 80, 0
1, 12126, Note_on_c, 0, 72, 0
1, 12127, Note_on_c, 0, 77, 0
1, 12129, Note_on_c, 0, 84, 0
1, 12139, Note_on_c, 3, 72, 0
1, 12141, Note_on_c, 3, 70, 89
1, 12143, Note_on_c, 8, 56, 77
1, 12143, Note_on_c, 9, 38, 52
1, 12143, Note_on_c, 9, 40, 95
1, 12143, Note_on_c, 10, 56, 86
1, 12144, Note_on_c, 9, 40, 0
1, 12144, Note_on_c, 9, 38, 0
1, 12144, Note_on_c, 7, 60, 84
1, 12144, Note_on_c, 8, 51, 80
1, 12144, Note_on_c, 9, 42, 52
1, 12144, Note_on_c, 10, 51, 89
1, 12144, Note_on_c, 10, 60, 93
1, 12145, Note_on_c, 9, 42, 0
1, 12145, Note_on_c, 0, 70, 112
1, 12145, Note_on_c, 0, 82, 114
1, 12145, Note_on_c, 0, 58, 101
1, 12146, Note_on_c, 2, 60, 52
1, 12146, Note_on_c, 2, 65, 52
1, 12146, Note_on_c, 2, 56, 52
1, 12159, Note_on_c, 2, 56, 0
1, 12159, Note_on_c, 2, 65, 0
1, 12159, Note_on_c, 2, 60, 0
1, 12161, Note_on_c, 7, 60, 0
1, 12161, Note_on_c, 10, 60, 0
1, 12163, Note_on_c, 10, 56, 0
1, 12163, Note_on_c, 8, 56, 0
1, 12165, Note_on_c, 8, 51, 0
1, 12165, Note_on_c, 10, 51, 0
1, 12167, Note_on_c, 5, 72, 0
1, 12172, Note_on_c, 1, 37, 0
1, 12173, Note_on_c, 0, 70, 0
1, 12175, Note_on_c, 5, 68, 0
1, 12182, Note_on_c, 0, 82, 0
1, 12187, Note_on_c, 5, 65, 0
1, 12188, Note_on_c, 3, 70, 0
1, 12191, Note_on_c, 6, 73, 67
1, 12191, Note_on_c, 9, 38, 76
1, 12191, Note_on_c, 9, 40, 119
1, 12192, Note_on_c, 9, 40, 0
1, 12192, Note_on_c, 0, 58, 0
1, 12192, Note_on_c, 9, 38, 0
1, 12192, Note_on_c, 1, 37, 98
1, 12192, Note_on_c, 3, 70, 107
1, 12192, Note_on_c, 5, 65, 65
1, 12192, Note_on_c, 5, 70, 71
1, 12192, Note_on_c, 9, 54, 103
1, 12192, Note_on_c, 9, 42, 104
1, 12193, Note_on_c, 9, 42, 0
1, 12193, Note_on_c, 0, 84, 114
1, 12193, Note_on_c, 0, 72, 112
1, 12193, Note_on_c, 0, 60, 120
1, 12193, Note_on_c, 2, 56, 82
1, 12193, Note_on_c, 2, 65, 94
1, 12193, Note_on_c, 2, 60, 97
1, 12196, Note_on_c, 6, 77, 0
1, 12203, Note_on_c, 9, 54, 0
1, 12213, Note_on_c, 2, 65, 0
1, 12214, Note_on_c, 2, 60, 0
1, 12216, Note_on_c, 2, 56, 0
1, 12226, Note_on_c, 0, 72, 0
1, 12232, Note_on_c, 1, 37, 0
1, 12234, Note_on_c, 0, 84, 0
1, 12237, Note_on_c, 3, 70, 0
1, 12238, Note_on_c, 0, 60, 0
1, 12239, Note_on_c, 5, 70, 0
1, 12239, Note_on_c, 5, 65, 0
1, 12239, Note_on_c, 1, 37, 90
1, 12240, Note_on_c, 0, 82, 102
1, 12240, Note_on_c, 0, 58, 102
1, 12240, Note_on_c, 2, 56, 57
1, 12240, Note_on_c, 2, 65, 57
1, 12240, Note_on_c, 3, 68, 102
1, 12240, Note_on_c, 5, 63, 56
1, 12240, Note_on_c, 5, 68, 64
1, 12240, Note_on_c, 9, 35, 96
1, 12240, Note_on_c, 9, 42, 64
1, 12241, Note_on_c, 9, 42, 0
1, 12241, Note_on_c, 9, 35, 0
1, 12241, Note_on_c, 0, 70, 108
1, 12241, Note_on_c, 2, 60, 57
1, 12260, Note_on_c, 2, 56, 0
1, 12261, Note_on_c, 2, 60, 0
1, 12262, Note_on_c, 2, 65, 0
1, 12281, Note_on_c, 1, 37, 0
1, 12282, Note_on_c, 0, 70, 0
1, 12284, Note_on_c, 5, 68, 0
1, 12284, Note_on_c, 6, 73, 0
1, 12285, Note_on_c, 0, 58, 0
1, 12287, Note_on_c, 5, 63, 0
1, 12288, Note_on_c, 0, 82, 0
1, 12288, Note_on_c, 0, 60, 93
1, 12288, Note_on_c, 0, 72, 82
1, 12288, Note_on_c, 1, 32, 93
1, 12288, Note_on_c, 5, 68, 65
1, 12288, Note_on_c, 5, 72, 67
1, 12288, Note_on_c, 5, 63, 59
1, 12288, Note_on_c, 9, 35, 106
1, 12288, Note_on_c, 9, 42, 99
1, 12289, Note_on_c, 9, 42, 0
1, 12289, Note_on_c, 9, 35, 0
1, 12297, Note_on_c, 0, 75, 96
1, 12301, Note_on_c, 0, 80, 91
1, 12305, Note_on_c, 0, 84, 88
1, 12335, Note_on_c, 9, 42, 43
1, 12336, Note_on_c, 9, 42, 0
1, 12363, Note_on_c, 3, 68, 0
1, 12364, Note_on_c, 1, 32, 0
1, 12383, Note_on_c, 6, 75, 85
1, 12383, Note_on_c, 9, 40, 119
1, 12383, Note_on_c, 9, 38, 76
1, 12384, Note_on_c, 9, 38, 0
1, 12384, Note_on_c, 9, 40, 0
1, 12384, Note_on_c, 1, 32, 98
1, 12384, Note_on_c, 2, 56, 58
1, 12384, Note_on_c, 2, 60, 78
1, 12384, Note_on_c, 2, 65, 73
1, 12384, Note_on_c, 9, 54, 100
1, 12384, Note_on_c, 9, 42, 110
1, 12385, Note_on_c, 9, 42, 0
1, 12394, Note_on_c, 9, 54, 0
1, 12409, Note_on_c, 2, 56, 0
1, 12412, Note_on_c, 2, 60, 0
1, 12412, Note_on_c, 2, 65, 0
1, 12432, Note_on_c, 9, 35, 105
1, 12432, Note_on_c, 9, 42, 68
1, 12433, Note_on_c, 9, 42, 0
1, 12433, Note_on_c, 9, 35, 0
1, 12437, Note_on_c, 3, 65, 77
1, 12446, Note_on_c, 1, 32, 0
1, 12451, Note_on_c, 3, 65, 0
1, 12461, Note_on_c, 3, 68, 82
1, 12478, Note_on_c, 3, 68, 0
1, 12479, Note_on_c, 9, 42, 93
1, 12480, Note_on_c, 9, 42, 0
1, 12480, Note_on_c, 1, 32, 95
1, 12482, Note_on_c, 6, 80, 79
1, 12485, Note_on_c, 6, 75, 0
1, 12485, Note_on_c, 3, 72, 104
1, 12527, Note_on_c, 9, 38, 52
1, 12527, Note_on_c, 9, 42, 54
1, 12527, Note_on_c, 9, 40, 95
1, 12528, Note_on_c, 9, 40, 0
1, 12528, Note_on_c, 9, 42, 0
1, 12528, Note_on_c, 9, 38, 0
1, 12540, Note_on_c, 3, 72, 0
1, 12541, Note_on_c, 3, 70, 81
1, 12546, Note_on_c, 1, 32, 0
1, 12575, Note_on_c, 1, 32, 98
1, 12575, Note_on_c, 2, 65, 80
1, 12575, Note_on_c, 2, 56, 63
1, 12575, Note_on_c, 9, 38, 77
1, 12575, Note_on_c, 9, 40, 120
1, 12576, Note_on_c, 9, 40, 0
1, 12576, Note_on_c, 9, 38, 0
1, 12576, Note_on_c, 2, 60, 80
1, 12576, Note_on_c, 9, 54, 97
1, 12576, Note_on_c, 9, 42, 110
1, 12577, Note_on_c, 9, 42, 0
1, 12578, Note_on_c, 6, 84, 85
1, 12580, Note_on_c, 6, 80, 0
1, 12586, Note_on_c, 9, 54, 0
1, 12596, Note_on_c, 3, 70, 0
1, 12599, Note_on_c, 2, 56, 0
1, 12600, Note_on_c, 2, 65, 0
1, 12600, Note_on_c, 2, 60, 0
1, 12602, Note_on_c, 3, 68, 73
1, 12615, Note_on_c, 1, 32, 0
1, 12623, Note_on_c, 1, 36, 90
1, 12623, Note_on_c, 2, 65, 61
1, 12624, Note_on_c, 9, 35, 96
1, 12624, Note_on_c, 9, 42, 51
1, 12625, Note_on_c, 9, 42, 0
1, 12625, Note_on_c, 9, 35, 0
1, 12625, Note_on_c, 2, 56, 30
1, 12625, Note_on_c, 2, 60, 60
1, 12627, Note_on_c, 0, 72, 0
1, 12627, Note_on_c, 0, 60, 0
1, 12631, Note_on_c, 0, 75, 0
1, 12634, Note_on_c, 0, 80, 0
1, 12637, Note_on_c, 2, 56, 0
1, 12641, Note_on_c, 2, 60, 0
1, 12642, Note_on_c, 2, 65, 0
1, 12662, Note_on_c, 1, 36, 0
1, 12670, Note_on_c, 6, 84, 0
1, 12671, Note_on_c, 5, 63, 0
1, 12671, Note_on_c, 5, 72, 0
1, 12671, Note_on_c, 5, 68, 0
1, 12671, Note_on_c, 1, 37, 96
1, 12671, Note_on_c, 9, 42, 84
1, 12672, Note_on_c, 9, 42, 0
1, 12672, Note_on_c, 5, 72, 63
1, 12672, Note_on_c, 5, 65, 59
1, 12672, Note_on_c, 5, 68, 60
1, 12672, Note_on_c, 9, 35, 106
1, 12673, Note_on_c, 9, 35, 0
1, 12673, Note_on_c, 0, 72, 91
1, 12673, Note_on_c, 6, 84, 86
1, 12679, Note_on_c, 0, 80, 71
1, 12679, Note_on_c, 0, 77, 86
1, 12685, Note_on_c, 3, 68, 0
1, 12691, Note_on_c, 3, 65, 86
1, 12720, Note_on_c, 9, 42, 53
1, 12721, Note_on_c, 9, 42, 0
1, 12724, Note_on_c, 3, 65, 0
1, 12731, Note_on_c, 3, 70, 106
1, 12749, Note_on_c, 1, 37, 0
1, 12766, Note_on_c, 6, 80, 81
1, 12767, Note_on_c, 2, 60, 90
1, 12767, Note_on_c, 2, 65, 90
1, 12767, Note_on_c, 2, 56, 75
1, 12767, Note_on_c, 9, 38, 77
1, 12767, Note_on_c, 9, 40, 120
1, 12768, Note_on_c, 9, 40, 0
1, 12768, Note_on_c, 9, 38, 0
1, 12768, Note_on_c, 6, 84, 0
1, 12768, Note_on_c, 1, 37, 92
1, 12768, Note_on_c, 9, 54, 97
1, 12768, Note_on_c, 9, 42, 113
1, 12769, Note_on_c, 9, 42, 0
1, 12779, Note_on_c, 9, 54, 0
1, 12792, Note_on_c, 2, 65, 0
1, 12793, Note_on_c, 2, 56, 0
1, 12794, Note_on_c, 2, 60, 0
1, 12813, Note_on_c, 3, 70, 0
1, 12815, Note_on_c, 9, 42, 58
1, 12816, Note_on_c, 9, 42, 0
1, 12816, Note_on_c, 2, 65, 61
1, 12816, Note_on_c, 3, 68, 65
1, 12816, Note_on_c, 9, 35, 104
1, 12817, Note_on_c, 9, 35, 0
1, 12817, Note_on_c, 2, 56, 37
1, 12817, Note_on_c, 2, 60, 65
1, 12833, Note_on_c, 2, 60, 0
1, 12833, Note_on_c, 2, 56, 0
1, 12835, Note_on_c, 2, 65, 0
1, 12842, Note_on_c, 1, 37, 0
1, 12863, Note_on_c, 1, 37, 93
1, 12863, Note_on_c, 6, 77, 74
1, 12863, Note_on_c, 9, 42, 103
1, 12864, Note_on_c, 9, 42, 0
1, 12868, Note_on_c, 6, 80, 0
1, 12892, Note_on_c, 0, 80, 0
1, 12894, Note_on_c, 0, 72, 0
1, 12895, Note_on_c, 0, 77, 0
1, 12897, Note_on_c, 0, 84, 0
1, 12911, Note_on_c, 8, 56, 77
1, 12911, Note_on_c, 9, 40, 97
1, 12911, Note_on_c, 9, 38, 54
1, 12911, Note_on_c, 10, 56, 86
1, 12912, Note_on_c, 9, 38, 0
1, 12912, Note_on_c, 9, 40, 0
1, 12912, Note_on_c, 7, 60, 84
1, 12912, Note_on_c, 8, 51, 80
1, 12912, Note_on_c, 9, 42, 52
1, 12912, Note_on_c, 10, 51, 89
1, 12912, Note_on_c, 10, 60, 93
1, 12913, Note_on_c, 9, 42, 0
1, 12913, Note_on_c, 0, 70, 112
1, 12913, Note_on_c, 0, 58, 101
1, 12913, Note_on_c, 0, 82, 114
1, 12914, Note_on_c, 2, 65, 52
1, 12914, Note_on_c, 2, 56, 52
1, 12914, Note_on_c, 2, 60, 52
1, 12927, Note_on_c, 2, 60, 0
1, 12927, Note_on_c, 2, 56, 0
1, 12927, Note_on_c, 2, 65, 0
1, 12929, Note_on_c, 7, 60, 0
1, 12929, Note_on_c, 10, 60, 0
1, 12931, Note_on_c, 10, 56, 0
1, 12931, Note_on_c, 8, 56, 0
1, 12933, Note_on_c, 8, 51, 0
1, 12933, Note_on_c, 10, 51, 0
1, 12941, Note_on_c, 0, 70, 0
1, 12950, Note_on_c, 0, 82, 0
1, 12952, Note_on_c, 1, 37, 0
1, 12952, Note_on_c, 5, 68, 0
1, 12959, Note_on_c, 5, 72, 0
1, 12959, Note_on_c, 5, 65, 0
1, 12959, Note_on_c, 1, 37, 87
1, 12959, Note_on_c, 6, 73, 67
1, 12959, Note_on_c, 9, 40, 119
1, 12959, Note_on_c, 9, 38, 76
1, 12960, Note_on_c, 9, 38, 0
1, 12960, Note_on_c, 0, 58, 0
1, 12960, Note_on_c, 9, 40, 0
1, 12960, Note_on_c, 5, 65, 64
1, 12960, Note_on_c, 5, 70, 71
1, 12960, Note_on_c, 9, 54, 97
1, 12960, Note_on_c, 9, 42, 104
1, 12961, Note_on_c, 9, 42, 0
1, 12961, Note_on_c, 0, 60, 120
1, 12961, Note_on_c, 0, 72, 112
1, 12961, Note_on_c, 0, 84, 114
1, 12961, Note_on_c, 2, 56, 82
1, 12961, Note_on_c, 2, 60, 97
1, 12961, Note_on_c, 2, 65, 94
1, 12964, Note_on_c, 6, 77, 0
1, 12975, Note_on_c, 9, 54, 0
1, 12981, Note_on_c, 2, 65, 0
1, 12982, Note_on_c, 2, 60, 0
1, 12984, Note_on_c, 2, 56, 0
1, 12994, Note_on_c, 0, 72, 0
1, 12996, Note_on_c, 1, 37, 0
1, 13002, Note_on_c, 0, 84, 0
1, 13006, Note_on_c, 0, 60, 0
1, 13007, Note_on_c, 5, 65, 0
1, 13007, Note_on_c, 5, 70, 0
1, 13008, Note_on_c, 0, 82, 102
1, 13008, Note_on_c, 0, 58, 102
1, 13008, Note_on_c, 1, 37, 93
1, 13008, Note_on_c, 2, 65, 57
1, 13008, Note_on_c, 2, 56, 57
1, 13008, Note_on_c, 5, 63, 54
1, 13008, Note_on_c, 5, 68, 59
1, 13008, Note_on_c, 9, 42, 64
1, 13008, Note_on_c, 9, 35, 96
1, 13009, Note_on_c, 9, 35, 0
1, 13009, Note_on_c, 9, 42, 0
1, 13009, Note_on_c, 0, 70, 108
1, 13009, Note_on_c, 2, 60, 57
1, 13028, Note_on_c, 2, 56, 0
1, 13029, Note_on_c, 2, 60, 0
1, 13030, Note_on_c, 2, 65, 0
1, 13031, Note_on_c, 3, 68, 0
1, 13047, Note_on_c, 1, 37, 0
1, 13048, Note_on_c, 5, 68, 0
1, 13050, Note_on_c, 0, 70, 0
1, 13050, Note_on_c, 5, 63, 0
1, 13051, Note_on_c, 0, 58, 0
1, 13052, Note_on_c, 6, 73, 0
1, 13056, Note_on_c, 0, 82, 0
1, 13056, Note_on_c, 0, 60, 93
1, 13056, Note_on_c, 0, 72, 82
1, 13056, Note_on_c, 1, 32, 96
1, 13056, Note_on_c, 5, 72, 71
1, 13056, Note_on_c, 5, 68, 61
1, 13056, Note_on_c, 5, 63, 59
1, 13056, Note_on_c, 9, 42, 99
1, 13056, Note_on_c, 9, 35, 106
1, 13057, Note_on_c, 9, 35, 0
1, 13057, Note_on_c, 9, 42, 0
1, 13065, Note_on_c, 0, 75, 96
1, 13069, Note_on_c, 0, 80, 91
1, 13073, Note_on_c, 0, 84, 88
1, 13103, Note_on_c, 9, 42, 43
1, 13104, Note_on_c, 9, 42, 0
1, 13135, Note_on_c, 1, 32, 0
1, 13151, Note_on_c, 1, 32, 91
1, 13151, Note_on_c, 6, 75, 85
1, 13151, Note_on_c, 9, 38, 76
1, 13151, Note_on_c, 9, 40, 119
1, 13152, Note_on_c, 9, 40, 0
1, 13152, Note_on_c, 9, 38, 0
1, 13152, Note_on_c, 2, 60, 78
1, 13152, Note_on_c, 2, 56, 58
1, 13152, Note_on_c, 2, 65, 73
1, 13152, Note_on_c, 9, 54, 103
1, 13152, Note_on_c, 9, 42, 110
1, 13153, Note_on_c, 9, 42, 0
1, 13164, Note_on_c, 9, 54, 0
1, 13177, Note_on_c, 2, 56, 0
1, 13180, Note_on_c, 2, 60, 0
1, 13180, Note_on_c, 2, 65, 0
1, 13192, Note_on_c, 3, 72, 115
1, 13200, Note_on_c, 9, 42, 68
1, 13200, Note_on_c, 9, 35, 104
1, 13201, Note_on_c, 9, 35, 0
1, 13201, Note_on_c, 9, 42, 0
1, 13229, Note_on_c, 1, 32, 0
1, 13245, Note_on_c, 3, 72, 0
1, 13247, Note_on_c, 9, 42, 93
1, 13248, Note_on_c, 9, 42, 0
1, 13248, Note_on_c, 1, 32, 81
1, 13250, Note_on_c, 3, 77, 112
1, 13250, Note_on_c, 6, 80, 79
1, 13253, Note_on_c, 6, 75, 0
1, 13295, Note_on_c, 9, 42, 54
1, 13295, Note_on_c, 9, 40, 95
1, 13295, Note_on_c, 9, 38, 52
1, 13296, Note_on_c, 9, 38, 0
1, 13296, Note_on_c, 9, 40, 0
1, 13296, Note_on_c, 9, 42, 0
1, 13329, Note_on_c, 1, 32, 0
1, 13343, Note_on_c, 2, 56, 63
1, 13343, Note_on_c, 2, 65, 80
1, 13343, Note_on_c, 9, 38, 76
1, 13343, Note_on_c, 9, 40, 119
1, 13344, Note_on_c, 9, 40, 0
1, 13344, Note_on_c, 9, 38, 0
1, 13344, Note_on_c, 1, 32, 77
1, 13344, Note_on_c, 2, 60, 80
1, 13344, Note_on_c, 9, 42, 110
1, 13344, Note_on_c, 9, 54, 103
1, 13345, Note_on_c, 9, 42, 0
1, 13346, Note_on_c, 6, 84, 85
1, 13348, Note_on_c, 6, 80, 0
1, 13350, Note_on_c, 9, 54, 0
1, 13352, Note_on_c, 3, 77, 0
1, 13367, Note_on_c, 2, 56, 0
1, 13368, Note_on_c, 2, 60, 0
1, 13368, Note_on_c, 2, 65, 0
1, 13370, Note_on_c, 3, 70, 91
1, 13384, Note_on_c, 1, 32, 0
1, 13391, Note_on_c, 1, 36, 95
1, 13391, Note_on_c, 2, 65, 61
1, 13392, Note_on_c, 9, 35, 96
1, 13392, Note_on_c, 9, 42, 51
1, 13393, Note_on_c, 9, 42, 0
1, 13393, Note_on_c, 9, 35, 0
1, 13393, Note_on_c, 2, 56, 30
1, 13393, Note_on_c, 2, 60, 60
1, 13395, Note_on_c, 0, 72, 0
1, 13395, Note_on_c, 0, 60, 0
1, 13399, Note_on_c, 0, 75, 0
1, 13402, Note_on_c, 0, 80, 0
1, 13405, Note_on_c, 2, 56, 0
1, 13409, Note_on_c, 2, 60, 0
1, 13410, Note_on_c, 2, 65, 0
1, 13430, Note_on_c, 1, 36, 0
1, 13438, Note_on_c, 6, 84, 0
1, 13439, Note_on_c, 5, 68, 0
1, 13439, Note_on_c, 5, 63, 0
1, 13439, Note_on_c, 5, 72, 0
1, 13439, Note_on_c, 9, 42, 84
1, 13440, Note_on_c, 9, 42, 0
1, 13440, Note_on_c, 1, 37, 87
1, 13440, Note_on_c, 5, 72, 65
1, 13440, Note_on_c, 5, 65, 59
1, 13440, Note_on_c, 5, 68, 60
1, 13440, Note_on_c, 9, 35, 105
1, 13441, Note_on_c, 9, 35, 0
1, 13441, Note_on_c, 0, 72, 91
1, 13441, Note_on_c, 6, 84, 86
1, 13446, Note_on_c, 3, 70, 0
1, 13447, Note_on_c, 0, 80, 71
1, 13447, Note_on_c, 0, 77, 86
1, 13447, Note_on_c, 3, 68, 74
1, 13488, Note_on_c, 9, 42, 53
1, 13489, Note_on_c, 9, 42, 0
1, 13498, Note_on_c, 3, 68, 0
1, 13502, Note_on_c, 3, 72, 98
1, 13512, Note_on_c, 1, 37, 0
1, 13534, Note_on_c, 6, 80, 81
1, 13535, Note_on_c, 2, 56, 75
1, 13535, Note_on_c, 2, 65, 90
1, 13535, Note_on_c, 2, 60, 90
1, 13535, Note_on_c, 9, 40, 119
1, 13535, Note_on_c, 9, 38, 76
1, 13536, Note_on_c, 9, 38, 0
1, 13536, Note_on_c, 9, 40, 0
1, 13536, Note_on_c, 6, 84, 0
1, 13536, Note_on_c, 1, 37, 96
1, 13536, Note_on_c, 9, 42, 113
1, 13536, Note_on_c, 9, 54, 100
1, 13537, Note_on_c, 9, 42, 0
1, 13547, Note_on_c, 9, 54, 0
1, 13547, Note_on_c, 3, 72, 0
1, 13548, Note_on_c, 3, 70, 90
1, 13560, Note_on_c, 2, 65, 0
1, 13561, Note_on_c, 2, 56, 0
1, 13562, Note_on_c, 2, 60, 0
1, 13583, Note_on_c, 7, 60, 95
1, 13583, Note_on_c, 9, 42, 58
1, 13583, Note_on_c, 10, 60, 104
1, 13584, Note_on_c, 9, 42, 0
1, 13584, Note_on_c, 9, 35, 104
1, 13585, Note_on_c, 9, 35, 0
1, 13585, Note_on_c, 8, 53, 78
1, 13585, Note_on_c, 8, 56, 80
1, 13585, Note_on_c, 10, 53, 87
1, 13585, Note_on_c, 10, 56, 89
1, 13598, Note_on_c, 10, 60, 0
1, 13598, Note_on_c, 7, 60, 0
1, 13607, Note_on_c, 3, 70, 0
1, 13608, Note_on_c, 1, 37, 0
1, 13611, Note_on_c, 10, 56, 0
1, 13611, Note_on_c, 8, 56, 0
1, 13611, Note_on_c, 8, 53, 0
1, 13611, Note_on_c, 10, 53, 0
1, 13611, Note_on_c, 3, 70, 83
1, 13631, Note_on_c, 1, 37, 93
1, 13631, Note_on_c, 6, 77, 74
1, 13631, Note_on_c, 9, 42, 103
1, 13632, Note_on_c, 9, 42, 0
1, 13636, Note_on_c, 6, 80, 0
1, 13655, Note_on_c, 3, 70, 0
1, 13656, Note_on_c, 3, 68, 73
1, 13660, Note_on_c, 0, 80, 0
1, 13662, Note_on_c, 0, 72, 0
1, 13663, Note_on_c, 0, 77, 0
1, 13665, Note_on_c, 0, 84, 0
1, 13678, Note_on_c, 8, 51, 82
1, 13678, Note_on_c, 8, 56, 80
1, 13678, Note_on_c, 10, 56, 89
1, 13678, Note_on_c, 10, 51, 91
1, 13679, Note_on_c, 9, 40, 96
1, 13679, Note_on_c, 9, 38, 53
1, 13680, Note_on_c, 9, 38, 0
1, 13680, Note_on_c, 9, 40, 0
1, 13680, Note_on_c, 7, 60, 100
1, 13680, Note_on_c, 9, 42, 52
1, 13680, Note_on_c, 10, 60, 109
1, 13681, Note_on_c, 9, 42, 0
1, 13681, Note_on_c, 0, 82, 114
1, 13681, Note_on_c, 0, 70, 112
1, 13681, Note_on_c, 0, 58, 101
1, 13682, Note_on_c, 2, 65, 52
1, 13682, Note_on_c, 2, 60, 52
1, 13682, Note_on_c, 2, 56, 52
1, 13695, Note_on_c, 2, 56, 0
1, 13695, Note_on_c, 2, 60, 0
1, 13695, Note_on_c, 2, 65, 0
1, 13698, Note_on_c, 10, 60, 0
1, 13698, Note_on_c, 7, 60, 0
1, 13704, Note_on_c, 10, 56, 0
1, 13704, Note_on_c, 8, 56, 0
1, 13707, Note_on_c, 8, 51, 0
1, 13707, Note_on_c, 10, 51, 0
1, 13709, Note_on_c, 0, 70, 0
1, 13711, Note_on_c, 3, 68, 0
1, 13718, Note_on_c, 0, 82, 0
1, 13719, Note_on_c, 1, 37, 0
1, 13723, Note_on_c, 5, 68, 0
1, 13727, Note_on_c, 5, 65, 0
1, 13727, Note_on_c, 5, 72, 0
1, 13727, Note_on_c, 6, 73, 67
1, 13727, Note_on_c, 9, 40, 119
1, 13727, Note_on_c, 9, 38, 76
1, 13728, Note_on_c, 9, 38, 0
1, 13728, Note_on_c, 0, 58, 0
1, 13728, Note_on_c, 9, 40, 0
1, 13728, Note_on_c, 1, 37, 90
1, 13728, Note_on_c, 5, 70, 69
1, 13728, Note_on_c, 5, 65, 69
1, 13728, Note_on_c, 9, 54, 100
1, 13728, Note_on_c, 9, 42, 104
1, 13729, Note_on_c, 9, 42, 0
1, 13729, Note_on_c, 0, 72, 112
1, 13729, Note_on_c, 0, 84, 114
1, 13729, Note_on_c, 0, 60, 120
1, 13729, Note_on_c, 2, 60, 97
1, 13729, Note_on_c, 2, 65, 94
1, 13729, Note_on_c, 2, 56, 82
1, 13732, Note_on_c, 6, 77, 0
1, 13739, Note_on_c, 9, 54, 0
1, 13749, Note_on_c, 2, 65, 0
1, 13750, Note_on_c, 2, 60, 0
1, 13752, Note_on_c, 2, 56, 0
1, 13762, Note_on_c, 0, 72, 0
1, 13768, Note_on_c, 1, 37, 0
1, 13770, Note_on_c, 0, 84, 0
1, 13774, Note_on_c, 0, 60, 0
1, 13775, Note_on_c, 5, 70, 0
1, 13775, Note_on_c, 5, 65, 0
1, 13775, Note_on_c, 1, 37, 96
1, 13776, Note_on_c, 0, 58, 102
1, 13776, Note_on_c, 0, 82, 102
1, 13776, Note_on_c, 2, 65, 57
1, 13776, Note_on_c, 2, 56, 57
1, 13776, Note_on_c, 5, 68, 56
1, 13776, Note_on_c, 5, 63, 52
1, 13776, Note_on_c, 9, 42, 64
1, 13776, Note_on_c, 9, 35, 96
1, 13777, Note_on_c, 9, 35, 0
1, 13777, Note_on_c, 9, 42, 0
1, 13777, Note_on_c, 0, 70, 108
1, 13777, Note_on_c, 2, 60, 57
1, 13796, Note_on_c, 2, 56, 0
1, 13797, Note_on_c, 2, 60, 0
1, 13798, Note_on_c, 2, 65, 0
1, 13817, Note_on_c, 1, 37, 0
1, 13818, Note_on_c, 0, 70, 0
1, 13818, Note_on_c, 0, 58, 0
1, 13820, Note_on_c, 6, 73, 0
1, 13823, Note_on_c, 5, 68, 0
1, 13823, Note_on_c, 5, 63, 0
1, 13824, Note_on_c, 0, 82, 0
1, 13824, Note_on_c, 0, 60, 93
1, 13824, Note_on_c, 0, 72, 82
1, 13824, Note_on_c, 1, 32, 93
1, 13824, Note_on_c, 5, 68, 66
1, 13824, Note_on_c, 5, 63, 59
1, 13824, Note_on_c, 5, 72, 71
1, 13824, Note_on_c, 9, 35, 106
1, 13824, Note_on_c, 9, 42, 99
1, 13825, Note_on_c, 9, 42, 0
1, 13825, Note_on_c, 9, 35, 0
1, 13833, Note_on_c, 0, 75, 96
1, 13837, Note_on_c, 0, 80, 91
1, 13841, Note_on_c, 0, 84, 88
1, 13871, Note_on_c, 9, 42, 43
1, 13872, Note_on_c, 9, 42, 0
1, 13900, Note_on_c, 1, 32, 0
1, 13919, Note_on_c, 1, 32, 93
1, 13919, Note_on_c, 6, 75, 85
1, 13919, Note_on_c, 9, 40, 120
1, 13919, Note_on_c, 9, 38, 77
1, 13920, Note_on_c, 9, 38, 0
1, 13920, Note_on_c, 9, 40, 0
1, 13920, Note_on_c, 2, 65, 73
1, 13920, Note_on_c, 2, 60, 78
1, 13920, Note_on_c, 2, 56, 58
1, 13920, Note_on_c, 9, 54, 103
1, 13920, Note_on_c, 9, 42, 110
1, 13921, Note_on_c, 9, 42, 0
1, 13931, Note_on_c, 9, 54, 0
1, 13945, Note_on_c, 2, 56, 0
1, 13948, Note_on_c, 2, 65, 0
1, 13948, Note_on_c, 2, 60, 0
1, 13968, Note_on_c, 9, 42, 68
1, 13968, Note_on_c, 9, 35, 104
1, 13969, Note_on_c, 9, 35, 0
1, 13969, Note_on_c, 9, 42, 0
1, 13975, Note_on_c, 3, 72, 92
1, 13987, Note_on_c, 3, 72, 0
1, 13994, Note_on_c, 1, 32, 0
1, 14001, Note_on_c, 3, 75, 108
1, 14015, Note_on_c, 1, 32, 87
1, 14015, Note_on_c, 9, 42, 93
1, 14016, Note_on_c, 9, 42, 0
1, 14018, Note_on_c, 6, 80, 79
1, 14021, Note_on_c, 6, 75, 0
1, 14023, Note_on_c, 3, 75, 0
1, 14027, Note_on_c, 3, 77, 108
1, 14063, Note_on_c, 9, 40, 96
1, 14063, Note_on_c, 9, 42, 54
1, 14063, Note_on_c, 9, 38, 53
1, 14064, Note_on_c, 9, 38, 0
1, 14064, Note_on_c, 9, 42, 0
1, 14064, Note_on_c, 9, 40, 0
1, 14099, Note_on_c, 1, 32, 0
1, 14111, Note_on_c, 2, 65, 80
1, 14111, Note_on_c, 2, 56, 63
1, 14111, Note_on_c, 9, 38, 76
1, 14111, Note_on_c, 9, 40, 119
1, 14112, Note_on_c, 9, 40, 0
1, 14112, Note_on_c, 9, 38, 0
1, 14112, Note_on_c, 1, 32, 84
1, 14112, Note_on_c, 2, 60, 80
1, 14112, Note_on_c, 9, 42, 110
1, 14112, Note_on_c, 9, 54, 100
1, 14113, Note_on_c, 9, 42, 0
1, 14114, Note_on_c, 6, 84, 85
1, 14116, Note_on_c, 6, 80, 0
1, 14123, Note_on_c, 9, 54, 0
1, 14135, Note_on_c, 2, 56, 0
1, 14136, Note_on_c, 2, 65, 0
1, 14136, Note_on_c, 2, 60, 0
1, 14152, Note_on_c, 1, 32, 0
1, 14154, Note_on_c, 3, 77, 0
1, 14156, Note_on_c, 3, 70, 95
1, 14159, Note_on_c, 1, 36, 92
1, 14159, Note_on_c, 2, 65, 61
1, 14160, Note_on_c, 9, 42, 51
1, 14160, Note_on_c, 9, 35, 96
1, 14161, Note_on_c, 9, 35, 0
1, 14161, Note_on_c, 9, 42, 0
1, 14161, Note_on_c, 2, 60, 60
1, 14161, Note_on_c, 2, 56, 30
1, 14163, Note_on_c, 0, 72, 0
1, 14163, Note_on_c, 0, 60, 0
1, 14167, Note_on_c, 0, 75, 0
1, 14170, Note_on_c, 0, 80, 0
1, 14173, Note_on_c, 2, 56, 0
1, 14177, Note_on_c, 2, 60, 0
1, 14178, Note_on_c, 2, 65, 0
1, 14204, Note_on_c, 1, 36, 0
1, 14204, Note_on_c, 3, 70, 0
1, 14206, Note_on_c, 6, 84, 0
1, 14207, Note_on_c, 5, 72, 0
1, 14207, Note_on_c, 5, 63, 0
1, 14207, Note_on_c, 5, 68, 0
1, 14207, Note_on_c, 1, 37, 93
1, 14207, Note_on_c, 3, 68, 82
1, 14207, Note_on_c, 9, 42, 84
1, 14208, Note_on_c, 9, 42, 0
1, 14208, Note_on_c, 5, 72, 68
1, 14208, Note_on_c, 5, 68, 56
1, 14208, Note_on_c, 5, 65, 59
1, 14208, Note_on_c, 9, 35, 106
1, 14209, Note_on_c, 9, 35, 0
1, 14209, Note_on_c, 0, 72, 91
1, 14209, Note_on_c, 6, 84, 86
1, 14215, Note_on_c, 0, 77, 86
1, 14215, Note_on_c, 0, 80, 71
1, 14256, Note_on_c, 9, 42, 53
1, 14257, Note_on_c, 9, 42, 0
1, 14260, Note_on_c, 3, 68, 0
1, 14272, Note_on_c, 3, 72, 98
1, 14286, Note_on_c, 1, 37, 0
1, 14302, Note_on_c, 6, 80, 81
1, 14303, Note_on_c, 2, 56, 75
1, 14303, Note_on_c, 2, 60, 90
1, 14303, Note_on_c, 2, 65, 90
1, 14303, Note_on_c, 9, 40, 120
1, 14303, Note_on_c, 9, 38, 77
1, 14304, Note_on_c, 9, 38, 0
1, 14304, Note_on_c, 9, 40, 0
1, 14304, Note_on_c, 6, 84, 0
1, 14304, Note_on_c, 1, 37, 84
1, 14304, Note_on_c, 9, 42, 113
1, 14304, Note_on_c, 9, 54, 103
1, 14305, Note_on_c, 9, 42, 0
1, 14314, Note_on_c, 9, 54, 0
1, 14323, Note_on_c, 3, 72, 0
1, 14328, Note_on_c, 2, 65, 0
1, 14328, Note_on_c, 3, 70, 77
1, 14329, Note_on_c, 2, 56, 0
1, 14330, Note_on_c, 2, 60, 0
1, 14351, Note_on_c, 9, 42, 58
1, 14352, Note_on_c, 9, 42, 0
1, 14352, Note_on_c, 9, 35, 104
1, 14353, Note_on_c, 9, 35, 0
1, 14373, Note_on_c, 1, 37, 0
1, 14373, Note_on_c, 3, 70, 0
1, 14382, Note_on_c, 3, 70, 83
1, 14399, Note_on_c, 1, 37, 87
1, 14399, Note_on_c, 6, 77, 74
1, 14399, Note_on_c, 9, 42, 103
1, 14400, Note_on_c, 9, 42, 0
1, 14404, Note_on_c, 6, 80, 0
1, 14428, Note_on_c, 0, 80, 0
1, 14430, Note_on_c, 0, 72, 0
1, 14431, Note_on_c, 0, 77, 0
1, 14433, Note_on_c, 0, 84, 0
1, 14447, Note_on_c, 8, 56, 77
1, 14447, Note_on_c, 9, 38, 52
1, 14447, Note_on_c, 9, 40, 95
1, 14447, Note_on_c, 10, 56, 86
1, 14448, Note_on_c, 9, 40, 0
1, 14448, Note_on_c, 9, 38, 0
1, 14448, Note_on_c, 7, 60, 84
1, 14448, Note_on_c, 8, 51, 80
1, 14448, Note_on_c, 9, 42, 52
1, 14448, Note_on_c, 10, 51, 89
1, 14448, Note_on_c, 10, 60, 93
1, 14449, Note_on_c, 9, 42, 0
1, 14449, Note_on_c, 0, 70, 112
1, 14449, Note_on_c, 0, 58, 101
1, 14449, Note_on_c, 0, 82, 114
1, 14457, Note_on_c, 3, 70, 0
1, 14458, Note_on_c, 3, 68, 52
1, 14465, Note_on_c, 7, 60, 0
1, 14465, Note_on_c, 10, 60, 0
1, 14467, Note_on_c, 10, 56, 0
1, 14467, Note_on_c, 8, 56, 0
1, 14469, Note_on_c, 10, 51, 0
1, 14469, Note_on_c, 8, 51, 0
1, 14477, Note_on_c, 0, 70, 0
1, 14484, Note_on_c, 1, 37, 0
1, 14486, Note_on_c, 0, 82, 0
1, 14487, Note_on_c, 5, 72, 0
1, 14495, Note_on_c, 5, 65, 0
1, 14495, Note_on_c, 1, 37, 75
1, 14495, Note_on_c, 6, 73, 67
1, 14495, Note_on_c, 9, 38, 76
1, 14495, Note_on_c, 9, 40, 119
1, 14496, Note_on_c, 9, 40, 0
1, 14496, Note_on_c, 9, 38, 0
1, 14496, Note_on_c, 0, 58, 0
1, 14496, Note_on_c, 5, 65, 67
1, 14496, Note_on_c, 5, 70, 71
1, 14496, Note_on_c, 9, 42, 104
1, 14496, Note_on_c, 9, 54, 103
1, 14497, Note_on_c, 9, 42, 0
1, 14497, Note_on_c, 0, 72, 112
1, 14497, Note_on_c, 0, 84, 114
1, 14497, Note_on_c, 0, 60, 120
1, 14497, Note_on_c, 2, 65, 94
1, 14497, Note_on_c, 2, 60, 97
1, 14497, Note_on_c, 2, 56, 82
1, 14500, Note_on_c, 5, 68, 0
1, 14500, Note_on_c, 6, 77, 0
1, 14507, Note_on_c, 9, 54, 0
1, 14517, Note_on_c, 2, 65, 0
1, 14518, Note_on_c, 2, 60, 0
1, 14520, Note_on_c, 2, 56, 0
1, 14530, Note_on_c, 0, 72, 0
1, 14535, Note_on_c, 1, 37, 0
1, 14538, Note_on_c, 0, 84, 0
1, 14542, Note_on_c, 0, 60, 0
1, 14543, Note_on_c, 5, 65, 0
1, 14543, Note_on_c, 5, 70, 0
1, 14543, Note_on_c, 3, 68, 0
1, 14543, Note_on_c, 1, 37, 93
1, 14544, Note_on_c, 0, 58, 102
1, 14544, Note_on_c, 0, 82, 102
1, 14544, Note_on_c, 2, 65, 57
1, 14544, Note_on_c, 2, 56, 57
1, 14544, Note_on_c, 5, 63, 56
1, 14544, Note_on_c, 5, 68, 60
1, 14544, Note_on_c, 9, 35, 96
1, 14544, Note_on_c, 9, 42, 64
1, 14545, Note_on_c, 9, 42, 0
1, 14545, Note_on_c, 9, 35, 0
1, 14545, Note_on_c, 0, 70, 108
1, 14545, Note_on_c, 2, 60, 57
1, 14564, Note_on_c, 2, 56, 0
1, 14565, Note_on_c, 2, 60, 0
1, 14566, Note_on_c, 2, 65, 0
1, 14574, Note_on_c, 1, 37, 0
1, 14584, Note_on_c, 0, 58, 0
1, 14586, Note_on_c, 0, 70, 0
1, 14588, Note_on_c, 6, 73, 0
1, 14591, Note_on_c, 5, 68, 0
1, 14591, Note_on_c, 5, 63, 0
1, 14591, Note_on_c, 1, 32, 93
1, 14592, Note_on_c, 0, 82, 0
1, 14592, Note_on_c, 0, 60, 102
1, 14592, Note_on_c, 0, 72, 82
1, 14592, Note_on_c, 5, 63, 59
1, 14592, Note_on_c, 5, 68, 70
1, 14592, Note_on_c, 5, 72, 71
1, 14592, Note_on_c, 9, 42, 99
1, 14592, Note_on_c, 9, 35, 106
1, 14593, Note_on_c, 9, 35, 0
1, 14593, Note_on_c, 9, 42, 0
1, 14601, Note_on_c, 0, 75, 96
1, 14605, Note_on_c, 0, 80, 91
1, 14609, Note_on_c, 0, 84, 88
1, 14639, Note_on_c, 9, 42, 43
1, 14640, Note_on_c, 9, 42, 0
1, 14672, Note_on_c, 1, 32, 0
1, 14687, Note_on_c, 1, 32, 93
1, 14687, Note_on_c, 6, 75, 85
1, 14687, Note_on_c, 9, 38, 77
1, 14687, Note_on_c, 9, 40, 120
1, 14688, Note_on_c, 9, 40, 0
1, 14688, Note_on_c, 9, 38, 0
1, 14688, Note_on_c, 2, 56, 58
1, 14688, Note_on_c, 2, 60, 78
1, 14688, Note_on_c, 2, 65, 73
1, 14688, Note_on_c, 9, 42, 110
1, 14688, Note_on_c, 9, 54, 100
1, 14689, Note_on_c, 9, 42, 0
1, 14698, Note_on_c, 9, 54, 0
1, 14713, Note_on_c, 2, 56, 0
1, 14716, Note_on_c, 2, 60, 0
1, 14716, Note_on_c, 2, 65, 0
1, 14736, Note_on_c, 9, 35, 103
1, 14736, Note_on_c, 9, 42, 68
1, 14737, Note_on_c, 9, 42, 0
1, 14737, Note_on_c, 9, 35, 0
1, 14738, Note_on_c, 3, 72, 102
1, 14767, Note_on_c, 1, 32, 0
1, 14777, Note_on_c, 3, 72, 0
1, 14783, Note_on_c, 9, 42, 93
1, 14784, Note_on_c, 9, 42, 0
1, 14784, Note_on_c, 1, 32, 91
1, 14786, Note_on_c, 3, 77, 115
1, 14786, Note_on_c, 6, 80, 79
1, 14789, Note_on_c, 6, 75, 0
1, 14831, Note_on_c, 9, 42, 54
1, 14831, Note_on_c, 9, 40, 94
1, 14831, Note_on_c, 9, 38, 51
1, 14832, Note_on_c, 9, 38, 0
1, 14832, Note_on_c, 9, 40, 0
1, 14832, Note_on_c, 9, 42, 0
1, 14848, Note_on_c, 3, 77, 0
1, 14852, Note_on_c, 3, 75, 115
1, 14866, Note_on_c, 1, 32, 0
1, 14879, Note_on_c, 2, 56, 63
1, 14879, Note_on_c, 2, 65, 80
1, 14879, Note_on_c, 9, 40, 120
1, 14879, Note_on_c, 9, 38, 77
1, 14880, Note_on_c, 9, 38, 0
1, 14880, Note_on_c, 9, 40, 0
1, 14880, Note_on_c, 1, 32, 99
1, 14880, Note_on_c, 2, 60, 80
1, 14880, Note_on_c, 9, 54, 97
1, 14880, Note_on_c, 9, 42, 110
1, 14881, Note_on_c, 9, 42, 0
1, 14882, Note_on_c, 6, 84, 85
1, 14884, Note_on_c, 6, 80, 0
1, 14890, Note_on_c, 9, 54, 0
1, 14903, Note_on_c, 2, 56, 0
1, 14904, Note_on_c, 2, 60, 0
1, 14904, Note_on_c, 2, 65, 0
1, 14919, Note_on_c, 3, 75, 0
1, 14920, Note_on_c, 1, 32, 0
1, 14924, Note_on_c, 3, 72, 112
1, 14927, Note_on_c, 0, 60, 0
1, 14927, Note_on_c, 1, 36, 97
1, 14927, Note_on_c, 2, 65, 61
1, 14928, Note_on_c, 9, 42, 51
1, 14928, Note_on_c, 9, 35, 95
1, 14929, Note_on_c, 9, 35, 0
1, 14929, Note_on_c, 9, 42, 0
1, 14929, Note_on_c, 2, 56, 30
1, 14929, Note_on_c, 2, 60, 60
1, 14931, Note_on_c, 0, 72, 0
1, 14935, Note_on_c, 0, 75, 0
1, 14938, Note_on_c, 0, 80, 0
1, 14941, Note_on_c, 2, 56, 0
1, 14945, Note_on_c, 2, 60, 0
1, 14946, Note_on_c, 2, 65, 0
1, 14962, Note_on_c, 1, 36, 0
1, 14974, Note_on_c, 6, 84, 0
1, 14975, Note_on_c, 5, 72, 0
1, 14975, Note_on_c, 5, 63, 0
1, 14975, Note_on_c, 5, 68, 0
1, 14975, Note_on_c, 3, 72, 0
1, 14975, Note_on_c, 9, 42, 84
1, 14976, Note_on_c, 9, 42, 0
1, 14976, Note_on_c, 1, 37, 93
1, 14976, Note_on_c, 3, 68, 106
1, 14976, Note_on_c, 5, 65, 59
1, 14976, Note_on_c, 5, 72, 66
1, 14976, Note_on_c, 5, 68, 66
1, 14976, Note_on_c, 6, 84, 85
1, 14976, Note_on_c, 9, 35, 105
1, 14977, Note_on_c, 9, 35, 0
1, 14977, Note_on_c, 0, 72, 91
1, 14983, Note_on_c, 0, 80, 71
1, 14983, Note_on_c, 0, 77, 86
1, 15022, Note_on_c, 6, 80, 70
1, 15024, Note_on_c, 9, 42, 53
1, 15025, Note_on_c, 9, 42, 0
1, 15026, Note_on_c, 6, 84, 0
1, 15051, Note_on_c, 3, 68, 0
1, 15052, Note_on_c, 3, 72, 114
1, 15058, Note_on_c, 1, 37, 0
1, 15070, Note_on_c, 6, 77, 72
1, 15071, Note_on_c, 2, 65, 90
1, 15071, Note_on_c, 2, 60, 90
1, 15071, Note_on_c, 2, 56, 75
1, 15071, Note_on_c, 9, 38, 76
1, 15071, Note_on_c, 9, 40, 119
1, 15072, Note_on_c, 9, 40, 0
1, 15072, Note_on_c, 9, 38, 0
1, 15072, Note_on_c, 1, 37, 99
1, 15072, Note_on_c, 9, 54, 97
1, 15072, Note_on_c, 9, 42, 113
1, 15073, Note_on_c, 9, 42, 0
1, 15074, Note_on_c, 6, 80, 0
1, 15083, Note_on_c, 9, 54, 0
1, 15096, Note_on_c, 2, 65, 0
1, 15097, Note_on_c, 2, 56, 0
1, 15098, Note_on_c, 2, 60, 0
1, 15119, Note_on_c, 9, 42, 58
1, 15120, Note_on_c, 9, 42, 0
1, 15120, Note_on_c, 9, 35, 104
1, 15121, Note_on_c, 9, 35, 0
1, 15121, Note_on_c, 6, 73, 81
1, 15123, Note_on_c, 6, 77, 0
1, 15125, Note_on_c, 3, 72, 0
1, 15126, Note_on_c, 0, 77, 0
1, 15126, Note_on_c, 0, 80, 0
1, 15126, Note_on_c, 3, 70, 101
1, 15136, Note_on_c, 0, 84, 0
1, 15144, Note_on_c, 0, 72, 0
1, 15150, Note_on_c, 1, 37, 0
1, 15167, Note_on_c, 9, 42, 103
1, 15168, Note_on_c, 9, 42, 0
1, 15168, Note_on_c, 0, 70, 124
1, 15168, Note_on_c, 0, 77, 127
1, 15168, Note_on_c, 0, 58, 100
1, 15168, Note_on_c, 0, 82, 120
1, 15168, Note_on_c, 1, 37, 87
1, 15168, Note_on_c, 7, 60, 115
1, 15168, Note_on_c, 8, 53, 103
1, 15168, Note_on_c, 8, 56, 103
1, 15187, Note_on_c, 3, 70, 0
1, 15194, Note_on_c, 3, 70, 94
1, 15215, Note_on_c, 3, 70, 0
1, 15215, Note_on_c, 8, 53, 0
1, 15215, Note_on_c, 7, 60, 0
1, 15215, Note_on_c, 8, 56, 0
1, 15215, Note_on_c, 9, 40, 95
1, 15215, Note_on_c, 9, 38, 52
1, 15216, Note_on_c, 9, 38, 0
1, 15216, Note_on_c, 9, 40, 0
1, 15216, Note_on_c, 3, 68, 81
1, 15216, Note_on_c, 9, 42, 52
1, 15217, Note_on_c, 9, 42, 0
1, 15218, Note_on_c, 2, 56, 52
1, 15218, Note_on_c, 2, 60, 52
1, 15218, Note_on_c, 2, 65, 52
1, 15231, Note_on_c, 2, 65, 0
1, 15231, Note_on_c, 2, 60, 0
1, 15231, Note_on_c, 2, 56, 0
1, 15233, Note_on_c, 0, 82, 0
1, 15233, Note_on_c, 0, 70, 0
1, 15236, Note_on_c, 0, 58, 0
1, 15236, Note_on_c, 0, 77, 0
1, 15249, Note_on_c, 1, 37, 0
1, 15263, Note_on_c, 5, 65, 0
1, 15263, Note_on_c, 5, 72, 0
1, 15263, Note_on_c, 5, 68, 0
1, 15263, Note_on_c, 6, 70, 92
1, 15263, Note_on_c, 9, 40, 119
1, 15263, Note_on_c, 9, 38, 76
1, 15264, Note_on_c, 9, 38, 0
1, 15264, Note_on_c, 9, 40, 0
1, 15264, Note_on_c, 1, 37, 96
1, 15264, Note_on_c, 7, 60, 114
1, 15264, Note_on_c, 8, 53, 100
1, 15264, Note_on_c, 8, 56, 100
1, 15264, Note_on_c, 9, 54, 97
1, 15264, Note_on_c, 9, 42, 104
1, 15265, Note_on_c, 9, 42, 0
1, 15265, Note_on_c, 6, 73, 0
1, 15265, Note_on_c, 0, 58, 98
1, 15265, Note_on_c, 0, 70, 127
1, 15265, Note_on_c, 0, 77, 124
1, 15265, Note_on_c, 0, 82, 122
1, 15265, Note_on_c, 2, 56, 82
1, 15265, Note_on_c, 2, 65, 94
1, 15265, Note_on_c, 2, 60, 97
1, 15279, Note_on_c, 9, 54, 0
1, 15285, Note_on_c, 2, 65, 0
1, 15286, Note_on_c, 2, 60, 0
1, 15287, Note_on_c, 3, 68, 0
1, 15287, Note_on_c, 6, 68, 74
1, 15288, Note_on_c, 2, 56, 0
1, 15290, Note_on_c, 6, 70, 0
1, 15299, Note_on_c, 1, 37, 0
1, 15311, Note_on_c, 8, 53, 0
1, 15311, Note_on_c, 7, 60, 0
1, 15311, Note_on_c, 8, 56, 0
1, 15311, Note_on_c, 1, 37, 79
1, 15311, Note_on_c, 6, 65, 79
1, 15312, Note_on_c, 2, 56, 57
1, 15312, Note_on_c, 2, 65, 57
1, 15312, Note_on_c, 9, 42, 64
1, 15312, Note_on_c, 9, 35, 96
1, 15313, Note_on_c, 9, 35, 0
1, 15313, Note_on_c, 9, 42, 0
1, 15313, Note_on_c, 2, 60, 57
1, 15314, Note_on_c, 6, 68, 0
1, 15332, Note_on_c, 2, 56, 0
1, 15333, Note_on_c, 2, 60, 0
1, 15334, Note_on_c, 2, 65, 0
1, 15335, Note_on_c, 6, 61, 74
1, 15338, Note_on_c, 0, 70, 0
1, 15338, Note_on_c, 6, 65, 0
1, 15341, Note_on_c, 0, 77, 0
1, 15343, Note_on_c, 0, 82, 0
1, 15350, Note_on_c, 0, 58, 0
1, 15354, Note_on_c, 1, 37, 0
1, 15360, Note_on_c, 0, 70, 83
1, 15360, Note_on_c, 1, 42, 96
1, 15360, Note_on_c, 9, 35, 106
1, 15360, Note_on_c, 9, 42, 99
1, 15361, Note_on_c, 9, 42, 0
1, 15361, Note_on_c, 6, 61, 0
1, 15361, Note_on_c, 9, 35, 0
1, 15362, Note_on_c, 7, 61, 92
1, 15362, Note_on_c, 8, 58, 87
1, 15362, Note_on_c, 8, 54, 82
1, 15364, Note_on_c, 0, 73, 89
1, 15366, Note_on_c, 0, 78, 101
1, 15407, Note_on_c, 9, 42, 43
1, 15408, Note_on_c, 9, 42, 0
1, 15436, Note_on_c, 1, 42, 0
1, 15455, Note_on_c, 3, 73, 115
1, 15455, Note_on_c, 9, 40, 120
1, 15455, Note_on_c, 9, 38, 77
1, 15456, Note_on_c, 9, 38, 0
1, 15456, Note_on_c, 9, 40, 0
1, 15456, Note_on_c, 1, 42, 93
1, 15456, Note_on_c, 4, 73, 79
1, 15456, Note_on_c, 4, 66, 72
1, 15456, Note_on_c, 4, 58, 70
1, 15456, Note_on_c, 4, 54, 74
1, 15456, Note_on_c, 9, 42, 110
1, 15456, Note_on_c, 9, 54, 103
1, 15457, Note_on_c, 9, 42, 0
1, 15468, Note_on_c, 9, 54, 0
1, 15504, Note_on_c, 9, 42, 68
1, 15504, Note_on_c, 9, 35, 105
1, 15505, Note_on_c, 9, 35, 0
1, 15505, Note_on_c, 9, 42, 0
1, 15531, Note_on_c, 1, 42, 0
1, 15550, Note_on_c, 6, 82, 77
1, 15551, Note_on_c, 9, 42, 93
1, 15552, Note_on_c, 9, 42, 0
1, 15552, Note_on_c, 1, 42, 89
1, 15595, Note_on_c, 3, 73, 0
1, 15597, Note_on_c, 6, 82, 0
1, 15598, Note_on_c, 6, 82, 77
1, 15599, Note_on_c, 4, 73, 0
1, 15599, Note_on_c, 4, 58, 0
1, 15599, Note_on_c, 4, 66, 0
1, 15599, Note_on_c, 4, 54, 0
1, 15599, Note_on_c, 9, 38, 53
1, 15599, Note_on_c, 9, 40, 96
1, 15599, Note_on_c, 9, 42, 54
1, 15600, Note_on_c, 9, 42, 0
1, 15600, Note_on_c, 9, 40, 0
1, 15600, Note_on_c, 9, 38, 0
1, 15600, Note_on_c, 4, 58, 75
1, 15600, Note_on_c, 4, 54, 74
1, 15600, Note_on_c, 4, 73, 81
1, 15600, Note_on_c, 4, 66, 72
1, 15601, Note_on_c, 3, 73, 115
1, 15636, Note_on_c, 1, 42, 0
1, 15646, Note_on_c, 3, 73, 0
1, 15646, Note_on_c, 6, 78, 79
1, 15647, Note_on_c, 4, 73, 0
1, 15647, Note_on_c, 4, 54, 0
1, 15647, Note_on_c, 4, 58, 0
1, 15647, Note_on_c, 4, 66, 0
1, 15647, Note_on_c, 3, 73, 115
1, 15647, Note_on_c, 9, 40, 119
1, 15647, Note_on_c, 9, 38, 76
1, 15648, Note_on_c, 9, 38, 0
1, 15648, Note_on_c, 9, 40, 0
1, 15648, Note_on_c, 1, 42, 90
1, 15648, Note_on_c, 4, 54, 58
1, 15648, Note_on_c, 4, 58, 63
1, 15648, Note_on_c, 4, 73, 77
1, 15648, Note_on_c, 4, 66, 58
1, 15648, Note_on_c, 9, 42, 110
1, 15648, Note_on_c, 9, 54, 103
1, 15649, Note_on_c, 9, 42, 0
1, 15651, Note_on_c, 6, 82, 0
1, 15654, Note_on_c, 9, 54, 0
1, 15680, Note_on_c, 1, 42, 0
1, 15693, Note_on_c, 3, 73, 0
1, 15693, Note_on_c, 6, 78, 0
1, 15693, Note_on_c, 6, 77, 78
1, 15695, Note_on_c, 4, 58, 0
1, 15695, Note_on_c, 4, 54, 0
1, 15695, Note_on_c, 4, 73, 0
1, 15695, Note_on_c, 4, 66, 0
1, 15695, Note_on_c, 1, 41, 94
1, 15695, Note_on_c, 3, 77, 115
1, 15696, Note_on_c, 4, 61, 71
1, 15696, Note_on_c, 4, 70, 63
1, 15696, Note_on_c, 4, 58, 73
1, 15696, Note_on_c, 4, 77, 74
1, 15696, Note_on_c, 9, 35, 96
1, 15696, Note_on_c, 9, 42, 51
1, 15697, Note_on_c, 9, 42, 0
1, 15697, Note_on_c, 9, 35, 0
1, 15697, Note_on_c, 0, 73, 0
1, 15698, Note_on_c, 0, 78, 0
1, 15700, Note_on_c, 0, 70, 0
1, 15732, Note_on_c, 1, 41, 0
1, 15737, Note_on_c, 0, 66, 88
1, 15741, Note_on_c, 6, 77, 0
1, 15742, Note_on_c, 6, 75, 80
1, 15743, Note_on_c, 0, 75, 98
1, 15743, Note_on_c, 0, 70, 94
1, 15743, Note_on_c, 1, 39, 85
1, 15743, Note_on_c, 9, 42, 84
1, 15744, Note_on_c, 9, 42, 0
1, 15744, Note_on_c, 9, 35, 104
1, 15745, Note_on_c, 9, 35, 0
1, 15747, Note_on_c, 8, 58, 0
1, 15747, Note_on_c, 8, 54, 0
1, 15752, Note_on_c, 7, 61, 0
1, 15792, Note_on_c, 9, 42, 53
1, 15793, Note_on_c, 9, 42, 0
1, 15815, Note_on_c, 1, 39, 0
1, 15835, Note_on_c, 3, 77, 0
1, 15839, Note_on_c, 4, 58, 0
1, 15839, Note_on_c, 4, 61, 0
1, 15839, Note_on_c, 4, 70, 0
1, 15839, Note_on_c, 4, 77, 0
1, 15839, Note_on_c, 9, 40, 119
1, 15839, Note_on_c, 9, 38, 76
1, 15840, Note_on_c, 9, 38, 0
1, 15840, Note_on_c, 9, 40, 0
1, 15840, Note_on_c, 1, 39, 94
1, 15840, Note_on_c, 3, 77, 115
1, 15840, Note_on_c, 4, 58, 66
1, 15840, Note_on_c, 4, 70, 65
1, 15840, Note_on_c, 4, 77, 74
1, 15840, Note_on_c, 4, 61, 65
1, 15840, Note_on_c, 9, 42, 113
1, 15840, Note_on_c, 9, 54, 100
1, 15841, Note_on_c, 9, 42, 0
1, 15851, Note_on_c, 9, 54, 0
1, 15887, Note_on_c, 9, 42, 58
1, 15888, Note_on_c, 9, 42, 0
1, 15888, Note_on_c, 9, 35, 105
1, 15889, Note_on_c, 9, 35, 0
1, 15916, Note_on_c, 1, 39, 0
1, 15932, Note_on_c, 3, 77, 0
1, 15935, Note_on_c, 4, 77, 0
1, 15935, Note_on_c, 4, 70, 0
1, 15935, Note_on_c, 4, 61, 0
1, 15935, Note_on_c, 4, 58, 0
1, 15935, Note_on_c, 9, 42, 90
1, 15936, Note_on_c, 9, 42, 0
1, 15936, Note_on_c, 1, 39, 87
1, 15936, Note_on_c, 4, 68, 60
1, 15936, Note_on_c, 4, 75, 74
1, 15936, Note_on_c, 4, 60, 69
1, 15936, Note_on_c, 4, 56, 64
1, 15937, Note_on_c, 3, 75, 115
1, 15982, Note_on_c, 6, 78, 73
1, 15983, Note_on_c, 6, 75, 0
1, 15983, Note_on_c, 9, 40, 97
1, 15983, Note_on_c, 9, 38, 54
1, 15984, Note_on_c, 9, 38, 0
1, 15984, Note_on_c, 9, 40, 0
1, 15984, Note_on_c, 9, 42, 52
1, 15985, Note_on_c, 9, 42, 0
1, 16011, Note_on_c, 1, 39, 0
1, 16029, Note_on_c, 6, 78, 0
1, 16030, Note_on_c, 3, 75, 0
1, 16031, Note_on_c, 4, 60, 0
1, 16031, Note_on_c, 4, 68, 0
1, 16031, Note_on_c, 4, 56, 0
1, 16031, Note_on_c, 4, 75, 0
1, 16031, Note_on_c, 3, 73, 114
1, 16031, Note_on_c, 6, 75, 82
1, 16031, Note_on_c, 9, 40, 120
1, 16031, Note_on_c, 9, 38, 77
1, 16032, Note_on_c, 9, 38, 0
1, 16032, Note_on_c, 9, 40, 0
1, 16032, Note_on_c, 1, 39, 97
1, 16032, Note_on_c, 4, 73, 64
1, 16032, Note_on_c, 4, 66, 54
1, 16032, Note_on_c, 4, 54, 58
1, 16032, Note_on_c, 4, 58, 63
1, 16032, Note_on_c, 9, 42, 104
1, 16032, Note_on_c, 9, 54, 100
1, 16033, Note_on_c, 9, 42, 0
1, 16043, Note_on_c, 9, 54, 0
1, 16073, Note_on_c, 1, 39, 0
1, 16080, Note_on_c, 1, 39, 97
1, 16080, Note_on_c, 9, 35, 96
1, 16080, Note_on_c, 9, 42, 64
1, 16081, Note_on_c, 9, 42, 0
1, 16081, Note_on_c, 9, 35, 0
1, 16101, Note_on_c, 0, 70, 0
1, 16101, Note_on_c, 0, 66, 0
1, 16104, Note_on_c, 0, 75, 0
1, 16121, Note_on_c, 1, 39, 0
1, 16126, Note_on_c, 6, 75, 0
1, 16127, Note_on_c, 4, 58, 0
1, 16127, Note_on_c, 4, 66, 0
1, 16127, Note_on_c, 4, 54, 0
1, 16127, Note_on_c, 4, 73, 0
1, 16127, Note_on_c, 0, 65, 89
1, 16127, Note_on_c, 1, 37, 90
1, 16128, Note_on_c, 0, 73, 99
1, 16128, Note_on_c, 0, 68, 95
1, 16128, Note_on_c, 6, 65, 68
1, 16128, Note_on_c, 6, 73, 69
1, 16128, Note_on_c, 6, 68, 63
1, 16128, Note_on_c, 9, 42, 99
1, 16128, Note_on_c, 9, 35, 106
1, 16129, Note_on_c, 9, 35, 0
1, 16129, Note_on_c, 9, 42, 0
1, 16132, Note_on_c, 3, 73, 0
1, 16175, Note_on_c, 9, 42, 43
1, 16176, Note_on_c, 9, 42, 0
1, 16205, Note_on_c, 1, 37, 0
1, 16223, Note_on_c, 1, 37, 96
1, 16223, Note_on_c, 9, 38, 76
1, 16223, Note_on_c, 9, 40, 119
1, 16224, Note_on_c, 9, 40, 0
1, 16224, Note_on_c, 9, 38, 0
1, 16224, Note_on_c, 4, 56, 87
1, 16224, Note_on_c, 4, 68, 67
1, 16224, Note_on_c, 4, 77, 71
1, 16224, Note_on_c, 4, 53, 74
1, 16224, Note_on_c, 9, 42, 110
1, 16224, Note_on_c, 9, 54, 103
1, 16225, Note_on_c, 9, 42, 0
1, 16225, Note_on_c, 3, 77, 115
1, 16235, Note_on_c, 9, 54, 0
1, 16271, Note_on_c, 8, 53, 89
1, 16271, Note_on_c, 8, 56, 98
1, 16272, Note_on_c, 7, 61, 117
1, 16272, Note_on_c, 9, 35, 105
1, 16272, Note_on_c, 9, 42, 68
1, 16273, Note_on_c, 9, 42, 0
1, 16273, Note_on_c, 9, 35, 0
1, 16276, Note_on_c, 3, 77, 0
1, 16295, Note_on_c, 8, 56, 0
1, 16301, Note_on_c, 8, 53, 0
1, 16307, Note_on_c, 1, 37, 0
1, 16314, Note_on_c, 7, 61, 0
1, 16319, Note_on_c, 9, 42, 93
1, 16320, Note_on_c, 9, 42, 0
1, 16320, Note_on_c, 1, 37, 96
1, 16367, Note_on_c, 4, 77, 0
1, 16367, Note_on_c, 4, 68, 0
1, 16367, Note_on_c, 4, 53, 0
1, 16367, Note_on_c, 4, 56, 0
1, 16367, Note_on_c, 3, 73, 115
1, 16367, Note_on_c, 8, 56, 81
1, 16367, Note_on_c, 9, 40, 95
1, 16367, Note_on_c, 9, 42, 54
1, 16367, Note_on_c, 9, 38, 52
1, 16368, Note_on_c, 9, 38, 0
1, 16368, Note_on_c, 9, 40, 0
1, 16368, Note_on_c, 9, 42, 0
1, 16368, Note_on_c, 4, 65, 81
1, 16368, Note_on_c, 4, 53, 70
1, 16368, Note_on_c, 4, 70, 79
1, 16368, Note_on_c, 4, 56, 83
1, 16370, Note_on_c, 7, 61, 99
1, 16371, Note_on_c, 8, 53, 92
1, 16394, Note_on_c, 1, 37, 0
1, 16397, Note_on_c, 8, 56, 0
1, 16400, Note_on_c, 8, 53, 0
1, 16406, Note_on_c, 7, 61, 0
1, 16408, Note_on_c, 8, 53, 84
1, 16414, Note_on_c, 3, 73, 0
1, 16415, Note_on_c, 4, 56, 0
1, 16415, Note_on_c, 4, 53, 0
1, 16415, Note_on_c, 4, 65, 0
1, 16415, Note_on_c, 4, 70, 0
1, 16415, Note_on_c, 8, 56, 86
1, 16415, Note_on_c, 9, 40, 120
1, 16415, Note_on_c, 9, 38, 77
1, 16416, Note_on_c, 9, 38, 0
1, 16416, Note_on_c, 9, 40, 0
1, 16416, Note_on_c, 1, 36, 97
1, 16416, Note_on_c, 4, 56, 77
1, 16416, Note_on_c, 4, 73, 78
1, 16416, Note_on_c, 4, 53, 57
1, 16416, Note_on_c, 4, 68, 64
1, 16416, Note_on_c, 7, 61, 104
1, 16416, Note_on_c, 9, 42, 110
1, 16416, Note_on_c, 9, 54, 100
1, 16417, Note_on_c, 9, 42, 0
1, 16417, Note_on_c, 3, 73, 115
1, 16427, Note_on_c, 9, 54, 0
1, 16445, Note_on_c, 8, 53, 0
1, 16450, Note_on_c, 8, 56, 0
1, 16450, Note_on_c, 7, 61, 0
1, 16460, Note_on_c, 3, 73, 0
1, 16463, Note_on_c, 4, 73, 0
1, 16463, Note_on_c, 4, 56, 0
1, 16463, Note_on_c, 4, 53, 0
1, 16463, Note_on_c, 4, 68, 0
1, 16464, Note_on_c, 4, 53, 67
1, 16464, Note_on_c, 4, 58, 88
1, 16464, Note_on_c, 4, 75, 76
1, 16464, Note_on_c, 4, 70, 65
1, 16464, Note_on_c, 9, 42, 51
1, 16464, Note_on_c, 9, 35, 96
1, 16465, Note_on_c, 9, 35, 0
1, 16465, Note_on_c, 9, 42, 0
1, 16465, Note_on_c, 3, 75, 115
1, 16465, Note_on_c, 7, 61, 118
1, 16465, Note_on_c, 8, 58, 92
1, 16467, Note_on_c, 0, 68, 0
1, 16467, Note_on_c, 0, 73, 0
1, 16468, Note_on_c, 8, 53, 87
1, 16472, Note_on_c, 0, 65, 0
1, 16487, Note_on_c, 1, 36, 0
1, 16505, Note_on_c, 0, 61, 94
1, 16507, Note_on_c, 0, 65, 112
1, 16510, Note_on_c, 0, 70, 96
1, 16511, Note_on_c, 6, 68, 0
1, 16511, Note_on_c, 1, 34, 99
1, 16511, Note_on_c, 9, 42, 84
1, 16512, Note_on_c, 9, 42, 0
1, 16512, Note_on_c, 6, 70, 57
1, 16512, Note_on_c, 9, 35, 106
1, 16513, Note_on_c, 9, 35, 0
1, 16560, Note_on_c, 9, 42, 53
1, 16561, Note_on_c, 9, 42, 0
1, 16597, Note_on_c, 1, 34, 0
1, 16604, Note_on_c, 3, 75, 0
1, 16607, Note_on_c, 4, 53, 0
1, 16607, Note_on_c, 4, 58, 0
1, 16607, Note_on_c, 4, 70, 0
1, 16607, Note_on_c, 4, 75, 0
1, 16607, Note_on_c, 9, 40, 119
1, 16607, Note_on_c, 9, 38, 76
1, 16608, Note_on_c, 9, 38, 0
1, 16608, Note_on_c, 9, 40, 0
1, 16608, Note_on_c, 1, 34, 93
1, 16608, Note_on_c, 4, 53, 74
1, 16608, Note_on_c, 4, 58, 63
1, 16608, Note_on_c, 4, 65, 76
1, 16608, Note_on_c, 4, 73, 81
1, 16608, Note_on_c, 9, 54, 103
1, 16608, Note_on_c, 9, 42, 113
1, 16609, Note_on_c, 9, 42, 0
1, 16609, Note_on_c, 3, 73, 115
1, 16618, Note_on_c, 9, 54, 0
1, 16655, Note_on_c, 3, 73, 0
1, 16655, Note_on_c, 9, 42, 58
1, 16656, Note_on_c, 9, 42, 0
1, 16656, Note_on_c, 3, 70, 84
1, 16656, Note_on_c, 9, 35, 104
1, 16657, Note_on_c, 9, 35, 0
1, 16675, Pitch_bend_c, 3, 8426
1, 16677, Pitch_bend_c, 3, 13106
1, 16680, Pitch_bend_c, 3, 14744
1, 16684, Pitch_bend_c, 3, 15446
1, 16685, Note_on_c, 1, 34, 0
1, 16687, Pitch_bend_c, 3, 15914
1, 16690, Pitch_bend_c, 3, 16382
1, 16694, Pitch_bend_c, 3, 16383
1, 16696, Note_on_c, 3, 70, 0
1, 16703, Note_on_c, 4, 53, 0
1, 16703, Note_on_c, 4, 65, 0
1, 16703, Note_on_c, 4, 58, 0
1, 16703, Note_on_c, 4, 73, 0
1, 16703, Note_on_c, 1, 37, 99
1, 16703, Note_on_c, 3, 73, 115
1, 16703, Note_on_c, 9, 42, 93
1, 16704, Note_on_c, 9, 42, 0
1, 16704, Note_on_c, 4, 75, 69
1, 16704, Note_on_c, 4, 53, 65
1, 16704, Note_on_c, 4, 63, 73
1, 16704, Note_on_c, 4, 72, 75
1, 16749, Pitch_bend_c, 3, 13925
1, 16751, Pitch_bend_c, 3, 9011
1, 16751, Note_on_c, 9, 40, 96
1, 16751, Note_on_c, 9, 38, 53
1, 16752, Note_on_c, 9, 38, 0
1, 16752, Note_on_c, 9, 40, 0
1, 16752, Note_on_c, 9, 42, 52
1, 16753, Note_on_c, 9, 42, 0
1, 16754, Pitch_bend_c, 3, 8192
1, 16769, Note_on_c, 0, 61, 0
1, 16769, Note_on_c, 0, 70, 0
1, 16775, Note_on_c, 0, 65, 0
1, 16776, Note_on_c, 7, 61, 0
1, 16779, Note_on_c, 1, 37, 0
1, 16786, Note_on_c, 3, 73, 0
1, 16790, Note_on_c, 8, 53, 0
1, 16794, Note_on_c, 8, 58, 0
1, 16798, Note_on_c, 0, 61, 84
1, 16799, Note_on_c, 4, 75, 0
1, 16799, Note_on_c, 4, 63, 0
1, 16799, Note_on_c, 4, 72, 0
1, 16799, Note_on_c, 4, 53, 0
1, 16799, Note_on_c, 1, 41, 97
1, 16799, Note_on_c, 9, 38, 76
1, 16799, Note_on_c, 9, 40, 119
1, 16800, Note_on_c, 9, 40, 0
1, 16800, Note_on_c, 9, 38, 0
1, 16800, Note_on_c, 0, 65, 108
1, 16800, Note_on_c, 3, 73, 115
1, 16800, Note_on_c, 4, 53, 58
1, 16800, Note_on_c, 4, 73, 69
1, 16800, Note_on_c, 4, 70, 78
1, 16800, Note_on_c, 4, 61, 71
1, 16800, Note_on_c, 7, 61, 95
1, 16800, Note_on_c, 9, 42, 104
1, 16800, Note_on_c, 9, 54, 103
1, 16801, Note_on_c, 9, 42, 0
1, 16801, Note_on_c, 8, 58, 84
1, 16802, Note_on_c, 0, 70, 98
1, 16806, Note_on_c, 8, 53, 94
1, 16811, Note_on_c, 9, 54, 0
1, 16836, Note_on_c, 1, 41, 0
1, 16847, Note_on_c, 6, 73, 0
1, 16848, Note_on_c, 1, 41, 97
1, 16848, Note_on_c, 6, 77, 70
1, 16848, Note_on_c, 9, 42, 64
1, 16848, Note_on_c, 9, 35, 95
1, 16849, Note_on_c, 9, 35, 0
1, 16849, Note_on_c, 9, 42, 0
1, 16850, Note_on_c, 0, 61, 0
1, 16859, Note_on_c, 0, 65, 0
1, 16866, Note_on_c, 0, 70, 0
1, 16872, Note_on_c, 6, 73, 63
1, 16873, Note_on_c, 6, 77, 0
1, 16877, Note_on_c, 8, 58, 0
1, 16879, Note_on_c, 8, 53, 0
1, 16882, Note_on_c, 7, 61, 0
1, 16885, Note_on_c, 1, 41, 0
1, 16887, Note_on_c, 3, 73, 0
1, 16890, Note_on_c, 0, 70, 97
1, 16890, Note_on_c, 8, 54, 86
1, 16893, Note_on_c, 6, 70, 0
1, 16894, Note_on_c, 0, 73, 99
1, 16895, Note_on_c, 4, 53, 0
1, 16895, Note_on_c, 6, 73, 0
1, 16895, Note_on_c, 6, 65, 0
1, 16895, Note_on_c, 4, 61, 0
1, 16895, Note_on_c, 4, 70, 0
1, 16895, Note_on_c, 4, 73, 0
1, 16895, Note_on_c, 1, 42, 93
1, 16896, Note_on_c, 0, 78, 114
1, 16896, Note_on_c, 7, 61, 99
1, 16896, Note_on_c, 9, 42, 99
1, 16896, Note_on_c, 9, 35, 106
1, 16897, Note_on_c, 9, 35, 0
1, 16897, Note_on_c, 9, 42, 0
1, 16898, Note_on_c, 6, 70, 66
1, 16899, Note_on_c, 8, 58, 85
1, 16943, Note_on_c, 9, 42, 43
1, 16944, Note_on_c, 9, 42, 0
1, 16991, Note_on_c, 9, 40, 119
1, 16991, Note_on_c, 9, 38, 76
1, 16992, Note_on_c, 9, 38, 0
1, 16992, Note_on_c, 9, 40, 0
1, 16992, Note_on_c, 4, 54, 74
1, 16992, Note_on_c, 4, 73, 79
1, 16992, Note_on_c, 4, 58, 70
1, 16992, Note_on_c, 4, 66, 72
1, 16992, Note_on_c, 9, 54, 100
1, 16992, Note_on_c, 9, 42, 110
1, 16993, Note_on_c, 9, 42, 0
1, 16993, Note_on_c, 3, 73, 115
1, 17002, Note_on_c, 9, 54, 0
1, 17014, Note_on_c, 1, 42, 0
1, 17039, Note_on_c, 1, 42, 90
1, 17040, Note_on_c, 9, 35, 104
1, 17040, Note_on_c, 9, 42, 68
1, 17041, Note_on_c, 9, 42, 0
1, 17041, Note_on_c, 9, 35, 0
1, 17073, Note_on_c, 1, 42, 0
1, 17087, Note_on_c, 6, 82, 72
1, 17087, Note_on_c, 9, 42, 93
1, 17088, Note_on_c, 9, 42, 0
1, 17088, Note_on_c, 1, 37, 98
1, 17089, Note_on_c, 6, 70, 0
1, 17122, Note_on_c, 3, 73, 0
1, 17132, Note_on_c, 6, 82, 0
1, 17134, Note_on_c, 6, 82, 75
1, 17135, Note_on_c, 4, 58, 0
1, 17135, Note_on_c, 4, 73, 0
1, 17135, Note_on_c, 4, 54, 0
1, 17135, Note_on_c, 4, 66, 0
1, 17135, Note_on_c, 3, 73, 115
1, 17135, Note_on_c, 9, 40, 97
1, 17135, Note_on_c, 9, 38, 54
1, 17135, Note_on_c, 9, 42, 54
1, 17136, Note_on_c, 9, 42, 0
1, 17136, Note_on_c, 9, 40, 0
1, 17136, Note_on_c, 9, 38, 0
1, 17136, Note_on_c, 4, 66, 72
1, 17136, Note_on_c, 4, 54, 74
1, 17136, Note_on_c, 4, 58, 75
1, 17136, Note_on_c, 4, 73, 81
1, 17176, Note_on_c, 3, 73, 0
1, 17183, Note_on_c, 4, 54, 0
1, 17183, Note_on_c, 4, 66, 0
1, 17183, Note_on_c, 4, 73, 0
1, 17183, Note_on_c, 4, 58, 0
1, 17183, Note_on_c, 3, 73, 115
1, 17183, Note_on_c, 6, 78, 87
1, 17183, Note_on_c, 9, 38, 76
1, 17183, Note_on_c, 9, 40, 119
1, 17184, Note_on_c, 9, 40, 0
1, 17184, Note_on_c, 9, 38, 0
1, 17184, Note_on_c, 4, 54, 58
1, 17184, Note_on_c, 4, 58, 63
1, 17184, Note_on_c, 4, 66, 58
1, 17184, Note_on_c, 4, 73, 77
1, 17184, Note_on_c, 9, 42, 110
1, 17184, Note_on_c, 9, 54, 97
1, 17185, Note_on_c, 9, 42, 0
1, 17187, Note_on_c, 6, 82, 0
1, 17194, Note_on_c, 9, 54, 0
1, 17194, Note_on_c, 1, 37, 0
1, 17229, Note_on_c, 3, 73, 0
1, 17230, Note_on_c, 6, 78, 0
1, 17230, Note_on_c, 6, 77, 73
1, 17231, Note_on_c, 4, 66, 0
1, 17231, Note_on_c, 4, 54, 0
1, 17231, Note_on_c, 4, 58, 0
1, 17231, Note_on_c, 4, 73, 0
1, 17231, Note_on_c, 1, 41, 90
1, 17232, Note_on_c, 3, 77, 115
1, 17232, Note_on_c, 4, 77, 74
1, 17232, Note_on_c, 4, 61, 71
1, 17232, Note_on_c, 4, 58, 73
1, 17232, Note_on_c, 4, 70, 63
1, 17232, Note_on_c, 9, 42, 51
1, 17232, Note_on_c, 9, 35, 95
1, 17233, Note_on_c, 9, 35, 0
1, 17233, Note_on_c, 9, 42, 0
1, 17242, Note_on_c, 0, 73, 0
1, 17242, Note_on_c, 0, 70, 0
1, 17242, Note_on_c, 0, 78, 0
1, 17265, Note_on_c, 8, 54, 0
1, 17265, Note_on_c, 8, 58, 0
1, 17267, Note_on_c, 1, 41, 0
1, 17278, Note_on_c, 0, 66, 92
1, 17279, Note_on_c, 0, 70, 94
1, 17279, Note_on_c, 1, 39, 90
1, 17279, Note_on_c, 6, 75, 82
1, 17279, Note_on_c, 9, 42, 84
1, 17280, Note_on_c, 9, 42, 0
1, 17280, Note_on_c, 9, 35, 105
1, 17281, Note_on_c, 9, 35, 0
1, 17281, Note_on_c, 6, 77, 0
1, 17282, Note_on_c, 0, 75, 105
1, 17296, Note_on_c, 7, 61, 0
1, 17328, Note_on_c, 9, 42, 53
1, 17329, Note_on_c, 9, 42, 0
1, 17361, Note_on_c, 3, 77, 0
1, 17375, Note_on_c, 4, 77, 0
1, 17375, Note_on_c, 4, 61, 0
1, 17375, Note_on_c, 4, 58, 0
1, 17375, Note_on_c, 4, 70, 0
1, 17375, Note_on_c, 9, 38, 76
1, 17375, Note_on_c, 9, 40, 119
1, 17376, Note_on_c, 9, 40, 0
1, 17376, Note_on_c, 9, 38, 0
1, 17376, Note_on_c, 4, 70, 65
1, 17376, Note_on_c, 4, 61, 65
1, 17376, Note_on_c, 4, 77, 74
1, 17376, Note_on_c, 4, 58, 66
1, 17376, Note_on_c, 9, 54, 97
1, 17376, Note_on_c, 9, 42, 113
1, 17377, Note_on_c, 9, 42, 0
1, 17377, Note_on_c, 3, 77, 115
1, 17387, Note_on_c, 9, 54, 0
1, 17396, Note_on_c, 1, 39, 0
1, 17423, Note_on_c, 1, 39, 88
1, 17423, Note_on_c, 9, 42, 58
1, 17424, Note_on_c, 9, 42, 0
1, 17424, Note_on_c, 9, 35, 104
1, 17425, Note_on_c, 9, 35, 0
1, 17458, Note_on_c, 1, 39, 0
1, 17469, Note_on_c, 3, 77, 0
1, 17470, Note_on_c, 3, 75, 115
1, 17471, Note_on_c, 4, 58, 0
1, 17471, Note_on_c, 4, 77, 0
1, 17471, Note_on_c, 4, 61, 0
1, 17471, Note_on_c, 4, 70, 0
1, 17471, Note_on_c, 9, 42, 95
1, 17472, Note_on_c, 9, 42, 0
1, 17472, Note_on_c, 1, 34, 90
1, 17472, Note_on_c, 4, 56, 64
1, 17472, Note_on_c, 4, 68, 60
1, 17472, Note_on_c, 4, 60, 69
1, 17472, Note_on_c, 4, 75, 74
1, 17517, Note_on_c, 6, 75, 0
1, 17518, Note_on_c, 6, 78, 73
1, 17519, Note_on_c, 9, 38, 52
1, 17519, Note_on_c, 9, 40, 95
1, 17520, Note_on_c, 9, 40, 0
1, 17520, Note_on_c, 9, 38, 0
1, 17520, Note_on_c, 9, 42, 52
1, 17521, Note_on_c, 9, 42, 0
1, 17543, Note_on_c, 0, 75, 0
1, 17544, Note_on_c, 1, 34, 0
1, 17547, Note_on_c, 0, 66, 0
1, 17549, Note_on_c, 0, 70, 0
1, 17566, Note_on_c, 3, 75, 0
1, 17567, Note_on_c, 4, 68, 0
1, 17567, Note_on_c, 4, 60, 0
1, 17567, Note_on_c, 4, 75, 0
1, 17567, Note_on_c, 4, 56, 0
1, 17567, Note_on_c, 3, 73, 115
1, 17567, Note_on_c, 6, 75, 82
1, 17567, Note_on_c, 9, 40, 118
1, 17567, Note_on_c, 9, 38, 75
1, 17568, Note_on_c, 9, 38, 0
1, 17568, Note_on_c, 9, 40, 0
1, 17568, Note_on_c, 1, 39, 92
1, 17568, Note_on_c, 4, 66, 54
1, 17568, Note_on_c, 4, 58, 63
1, 17568, Note_on_c, 4, 73, 64
1, 17568, Note_on_c, 4, 54, 58
1, 17568, Note_on_c, 9, 42, 104
1, 17568, Note_on_c, 9, 54, 97
1, 17569, Note_on_c, 9, 42, 0
1, 17569, Note_on_c, 6, 78, 0
1, 17572, Note_on_c, 0, 66, 92
1, 17573, Note_on_c, 0, 70, 97
1, 17574, Note_on_c, 0, 75, 101
1, 17583, Note_on_c, 9, 54, 0
1, 17599, Note_on_c, 1, 39, 0
1, 17614, Note_on_c, 3, 73, 0
1, 17616, Note_on_c, 1, 38, 86
1, 17616, Note_on_c, 3, 70, 114
1, 17616, Note_on_c, 9, 42, 64
1, 17616, Note_on_c, 9, 35, 96
1, 17617, Note_on_c, 9, 35, 0
1, 17617, Note_on_c, 9, 42, 0
1, 17640, Note_on_c, 0, 66, 0
1, 17644, Note_on_c, 0, 70, 0
1, 17647, Note_on_c, 1, 38, 0
1, 17648, Note_on_c, 0, 75, 0
1, 17663, Note_on_c, 4, 58, 0
1, 17663, Note_on_c, 4, 54, 0
1, 17663, Note_on_c, 4, 66, 0
1, 17663, Note_on_c, 4, 73, 0
1, 17663, Note_on_c, 6, 68, 67
1, 17663, Note_on_c, 6, 73, 64
1, 17664, Note_on_c, 0, 65, 81
1, 17664, Note_on_c, 0, 73, 87
1, 17664, Note_on_c, 0, 68, 99
1, 17664, Note_on_c, 1, 37, 87
1, 17664, Note_on_c, 9, 35, 106
1, 17664, Note_on_c, 9, 42, 99
1, 17665, Note_on_c, 9, 42, 0
1, 17665, Note_on_c, 9, 35, 0
1, 17665, Note_on_c, 6, 65, 64
1, 17667, Note_on_c, 6, 75, 0
1, 17673, Note_on_c, 3, 70, 0
1, 17711, Note_on_c, 9, 42, 43
1, 17712, Note_on_c, 9, 42, 0
1, 17740, Note_on_c, 1, 37, 0
1, 17759, Note_on_c, 1, 37, 96
1, 17759, Note_on_c, 9, 40, 120
1, 17759, Note_on_c, 9, 38, 77
1, 17760, Note_on_c, 9, 38, 0
1, 17760, Note_on_c, 9, 40, 0
1, 17760, Note_on_c, 4, 77, 71
1, 17760, Note_on_c, 4, 68, 67
1, 17760, Note_on_c, 4, 56, 87
1, 17760, Note_on_c, 4, 53, 74
1, 17760, Note_on_c, 9, 42, 110
1, 17760, Note_on_c, 9, 54, 103
1, 17761, Note_on_c, 9, 42, 0
1, 17761, Note_on_c, 3, 77, 115
1, 17772, Note_on_c, 9, 54, 0
1, 17807, Note_on_c, 8, 56, 99
1, 17808, Note_on_c, 7, 61, 107
1, 17808, Note_on_c, 8, 53, 84
1, 17808, Note_on_c, 9, 42, 68
1, 17808, Note_on_c, 9, 35, 104
1, 17809, Note_on_c, 9, 35, 0
1, 17809, Note_on_c, 9, 42, 0
1, 17812, Note_on_c, 3, 77, 0
1, 17829, Note_on_c, 8, 56, 0
1, 17836, Note_on_c, 8, 53, 0
1, 17842, Note_on_c, 1, 37, 0
1, 17844, Note_on_c, 7, 61, 0
1, 17855, Note_on_c, 9, 42, 90
1, 17856, Note_on_c, 9, 42, 0
1, 17856, Note_on_c, 1, 37, 81
1, 17903, Note_on_c, 4, 56, 0
1, 17903, Note_on_c, 4, 68, 0
1, 17903, Note_on_c, 4, 53, 0
1, 17903, Note_on_c, 4, 77, 0
1, 17903, Note_on_c, 3, 73, 115
1, 17903, Note_on_c, 9, 38, 53
1, 17903, Note_on_c, 9, 42, 54
1, 17903, Note_on_c, 9, 40, 96
1, 17904, Note_on_c, 9, 40, 0
1, 17904, Note_on_c, 9, 42, 0
1, 17904, Note_on_c, 9, 38, 0
1, 17904, Note_on_c, 4, 53, 70
1, 17904, Note_on_c, 4, 65, 81
1, 17904, Note_on_c, 4, 56, 83
1, 17904, Note_on_c, 4, 70, 79
1, 17905, Note_on_c, 8, 56, 91
1, 17905, Note_on_c, 8, 53, 87
1, 17906, Note_on_c, 7, 61, 92
1, 17924, Note_on_c, 0, 65, 0
1, 17927, Note_on_c, 1, 37, 0
1, 17928, Note_on_c, 0, 73, 0
1, 17930, Note_on_c, 0, 68, 0
1, 17933, Note_on_c, 8, 56, 0
1, 17935, Note_on_c, 8, 53, 0
1, 17940, Note_on_c, 7, 61, 0
1, 17950, Note_on_c, 3, 73, 0
1, 17951, Note_on_c, 4, 53, 0
1, 17951, Note_on_c, 4, 56, 0
1, 17951, Note_on_c, 4, 70, 0
1, 17951, Note_on_c, 4, 65, 0
1, 17951, Note_on_c, 0, 65, 78
1, 17951, Note_on_c, 7, 61, 97
1, 17951, Note_on_c, 8, 56, 89
1, 17951, Note_on_c, 8, 53, 92
1, 17951, Note_on_c, 9, 40, 119
1, 17951, Note_on_c, 9, 38, 76
1, 17952, Note_on_c, 9, 38, 0
1, 17952, Note_on_c, 9, 40, 0
1, 17952, Note_on_c, 1, 37, 96
1, 17952, Note_on_c, 4, 73, 78
1, 17952, Note_on_c, 4, 53, 57
1, 17952, Note_on_c, 4, 68, 64
1, 17952, Note_on_c, 4, 56, 77
1, 17952, Note_on_c, 9, 42, 110
1, 17952, Note_on_c, 9, 54, 103
1, 17953, Note_on_c, 9, 42, 0
1, 17953, Note_on_c, 3, 73, 115
1, 17954, Note_on_c, 0, 73, 101
1, 17954, Note_on_c, 0, 68, 95
1, 17958, Note_on_c, 9, 54, 0
1, 17982, Note_on_c, 1, 37, 0
1, 17983, Note_on_c, 8, 56, 0
1, 17990, Note_on_c, 8, 53, 0
1, 17991, Note_on_c, 7, 61, 0
1, 17996, Note_on_c, 3, 73, 0
1, 17999, Note_on_c, 4, 53, 0
1, 17999, Note_on_c, 4, 73, 0
1, 17999, Note_on_c, 4, 68, 0
1, 17999, Note_on_c, 4, 56, 0
1, 17999, Note_on_c, 1, 36, 94
1, 17999, Note_on_c, 8, 58, 93
1, 18000, Note_on_c, 4, 75, 76
1, 18000, Note_on_c, 4, 58, 88
1, 18000, Note_on_c, 4, 53, 67
1, 18000, Note_on_c, 4, 70, 65
1, 18000, Note_on_c, 8, 53, 87
1, 18000, Note_on_c, 9, 42, 51
1, 18000, Note_on_c, 9, 35, 96
1, 18001, Note_on_c, 9, 35, 0
1, 18001, Note_on_c, 9, 42, 0
1, 18001, Note_on_c, 3, 75, 115
1, 18007, Note_on_c, 7, 61, 97
1, 18013, Note_on_c, 0, 73, 0
1, 18017, Note_on_c, 0, 68, 0
1, 18021, Note_on_c, 0, 65, 0
1, 18032, Note_on_c, 1, 36, 0
1, 18046, Note_on_c, 6, 68, 0
1, 18046, Note_on_c, 6, 70, 72
1, 18047, Note_on_c, 9, 42, 84
1, 18048, Note_on_c, 9, 42, 0
1, 18048, Note_on_c, 0, 70, 87
1, 18048, Note_on_c, 0, 65, 101
1, 18048, Note_on_c, 0, 61, 87
1, 18048, Note_on_c, 1, 34, 86
1, 18048, Note_on_c, 9, 35, 106
1, 18049, Note_on_c, 9, 35, 0
1, 18096, Note_on_c, 9, 42, 53
1, 18097, Note_on_c, 9, 42, 0
1, 18132, Note_on_c, 1, 34, 0
1, 18140, Note_on_c, 3, 75, 0
1, 18143, Note_on_c, 4, 75, 0
1, 18143, Note_on_c, 4, 58, 0
1, 18143, Note_on_c, 4, 53, 0
1, 18143, Note_on_c, 4, 70, 0
1, 18143, Note_on_c, 9, 38, 76
1, 18143, Note_on_c, 9, 40, 119
1, 18144, Note_on_c, 9, 40, 0
1, 18144, Note_on_c, 9, 38, 0
1, 18144, Note_on_c, 1, 34, 84
1, 18144, Note_on_c, 4, 53, 74
1, 18144, Note_on_c, 4, 58, 63
1, 18144, Note_on_c, 4, 73, 81
1, 18144, Note_on_c, 4, 65, 76
1, 18144, Note_on_c, 9, 54, 100
1, 18144, Note_on_c, 9, 42, 113
1, 18145, Note_on_c, 9, 42, 0
1, 18145, Note_on_c, 3, 73, 112
1, 18155, Note_on_c, 9, 54, 0
1, 18191, Note_on_c, 3, 73, 0
1, 18191, Note_on_c, 9, 42, 58
1, 18192, Note_on_c, 9, 42, 0
1, 18192, Note_on_c, 3, 70, 79
1, 18192, Note_on_c, 9, 35, 104
1, 18193, Note_on_c, 9, 35, 0
1, 18211, Pitch_bend_c, 3, 8426
1, 18213, Note_on_c, 1, 34, 0
1, 18213, Pitch_bend_c, 3, 13106
1, 18214, Note_on_c, 3, 70, 0
1, 18215, Note_on_c, 0, 65, 0
1, 18215, Note_on_c, 0, 70, 0
1, 18215, Note_on_c, 0, 61, 0
1, 18216, Pitch_bend_c, 3, 14744
1, 18220, Pitch_bend_c, 3, 15446
1, 18223, Pitch_bend_c, 3, 15914
1, 18226, Pitch_bend_c, 3, 16382
1, 18230, Pitch_bend_c, 3, 16383
1, 18239, Note_on_c, 4, 65, 0
1, 18239, Note_on_c, 4, 53, 0
1, 18239, Note_on_c, 4, 73, 0
1, 18239, Note_on_c, 4, 58, 0
1, 18239, Note_on_c, 0, 70, 118
1, 18239, Note_on_c, 0, 73, 117
1, 18239, Note_on_c, 0, 66, 120
1, 18239, Note_on_c, 3, 73, 115
1, 18239, Note_on_c, 9, 42, 90
1, 18240, Note_on_c, 9, 42, 0
1, 18240, Note_on_c, 1, 34, 72
1, 18240, Note_on_c, 4, 53, 65
1, 18240, Note_on_c, 4, 63, 73
1, 18240, Note_on_c, 4, 75, 69
1, 18240, Note_on_c, 4, 72, 75
1, 18241, Note_on_c, 0, 78, 114
1, 18285, Pitch_bend_c, 3, 13925
1, 18287, Pitch_bend_c, 3, 9011
1, 18287, Note_on_c, 9, 40, 95
1, 18287, Note_on_c, 9, 38, 52
1, 18288, Note_on_c, 9, 38, 0
1, 18288, Note_on_c, 9, 40, 0
1, 18288, Note_on_c, 9, 42, 52
1, 18289, Note_on_c, 9, 42, 0
1, 18290, Pitch_bend_c, 3, 8192
1, 18314, Note_on_c, 0, 78, 0
1, 18314, Note_on_c, 8, 53, 0
1, 18316, Note_on_c, 1, 34, 0
1, 18317, Note_on_c, 0, 70, 0
1, 18318, Note_on_c, 7, 61, 0
1, 18318, Note_on_c, 0, 73, 0
1, 18320, Note_on_c, 0, 66, 0
1, 18322, Note_on_c, 3, 73, 0
1, 18323, Note_on_c, 8, 58, 0
1, 18335, Note_on_c, 4, 75, 0
1, 18335, Note_on_c, 4, 72, 0
1, 18335, Note_on_c, 4, 53, 0
1, 18335, Note_on_c, 4, 63, 0
1, 18335, Note_on_c, 0, 65, 112
1, 18335, Note_on_c, 0, 77, 98
1, 18335, Note_on_c, 0, 73, 109
1, 18335, Note_on_c, 0, 70, 120
1, 18335, Note_on_c, 1, 34, 87
1, 18335, Note_on_c, 8, 53, 96
1, 18335, Note_on_c, 9, 38, 77
1, 18335, Note_on_c, 9, 40, 120
1, 18336, Note_on_c, 9, 40, 0
1, 18336, Note_on_c, 9, 38, 0
1, 18336, Note_on_c, 3, 73, 115
1, 18336, Note_on_c, 4, 70, 78
1, 18336, Note_on_c, 4, 61, 71
1, 18336, Note_on_c, 4, 53, 58
1, 18336, Note_on_c, 4, 73, 69
1, 18336, Note_on_c, 7, 61, 103
1, 18336, Note_on_c, 8, 58, 79
1, 18336, Note_on_c, 9, 42, 104
1, 18336, Note_on_c, 9, 54, 100
1, 18337, Note_on_c, 9, 42, 0
1, 18347, Note_on_c, 9, 54, 0
1, 18374, Note_on_c, 1, 34, 0
1, 18383, Note_on_c, 1, 29, 67
1, 18384, Note_on_c, 9, 35, 95
1, 18384, Note_on_c, 9, 42, 64
1, 18385, Note_on_c, 9, 42, 0
1, 18385, Note_on_c, 9, 35, 0
1, 18407, Note_on_c, 0, 77, 0
1, 18413, Note_on_c, 8, 53, 0
1, 18415, Note_on_c, 1, 29, 0
1, 18416, Note_on_c, 0, 65, 0
1, 18416, Note_on_c, 7, 61, 0
1, 18416, Note_on_c, 0, 70, 0
1, 18419, Note_on_c, 8, 58, 0
1, 18421, Note_on_c, 0, 73, 0
1, 18423, Note_on_c, 3, 73, 0
1, 18429, Note_on_c, 6, 70, 0
1, 18431, Note_on_c, 4, 61, 0
1, 18431, Note_on_c, 4, 73, 0
1, 18431, Note_on_c, 4, 70, 0
1, 18431, Note_on_c, 4, 53, 0
1, 18432, Note_on_c, 1, 32, 93
1, 18432, Note_on_c, 6, 72, 67
1, 18432, Note_on_c, 6, 75, 87
1, 18432, Note_on_c, 7, 63, 105
1, 18432, Note_on_c, 9, 35, 106
1, 18432, Note_on_c, 9, 42, 99
1, 18433, Note_on_c, 9, 42, 0
1, 18433, Note_on_c, 9, 35, 0
1, 18433, Note_on_c, 0, 68, 114
1, 18433, Note_on_c, 0, 72, 105
1, 18433, Note_on_c, 0, 63, 102
1, 18435, Note_on_c, 6, 65, 0
1, 18435, Note_on_c, 8, 60, 97
1, 18436, Note_on_c, 6, 73, 0
1, 18436, Note_on_c, 8, 56, 85
1, 18479, Note_on_c, 9, 42, 43
1, 18480, Note_on_c, 9, 42, 0
1, 18513, Note_on_c, 1, 32, 0
1, 18527, Note_on_c, 9, 40, 120
1, 18527, Note_on_c, 9, 38, 77
1, 18528, Note_on_c, 9, 38, 0
1, 18528, Note_on_c, 9, 40, 0
1, 18528, Note_on_c, 1, 32, 87
1, 18528, Note_on_c, 9, 42, 110
1, 18528, Note_on_c, 9, 54, 103
1, 18529, Note_on_c, 9, 42, 0
1, 18539, Note_on_c, 9, 54, 0
1, 18576, Note_on_c, 5, 56, 102
1, 18576, Note_on_c, 9, 42, 68
1, 18576, Note_on_c, 9, 35, 105
1, 18577, Note_on_c, 9, 35, 0
1, 18577, Note_on_c, 9, 42, 0
1, 18603, Note_on_c, 1, 32, 0
1, 18623, Note_on_c, 9, 42, 93
1, 18624, Note_on_c, 9, 42, 0
1, 18624, Note_on_c, 1, 32, 81
1, 18625, Note_on_c, 5, 60, 99
1, 18627, Note_on_c, 5, 56, 0
1, 18671, Note_on_c, 9, 42, 54
1, 18671, Note_on_c, 9, 38, 53
1, 18671, Note_on_c, 9, 40, 96
1, 18672, Note_on_c, 9, 40, 0
1, 18672, Note_on_c, 9, 38, 0
1, 18672, Note_on_c, 9, 42, 0
1, 18672, Note_on_c, 5, 61, 91
1, 18674, Note_on_c, 5, 60, 0
1, 18674, Note_on_c, 3, 77, 115
1, 18699, Note_on_c, 1, 32, 0
1, 18719, Note_on_c, 3, 77, 0
1, 18719, Note_on_c, 5, 60, 91
1, 18719, Note_on_c, 9, 38, 76
1, 18719, Note_on_c, 9, 40, 119
1, 18720, Note_on_c, 9, 40, 0
1, 18720, Note_on_c, 5, 61, 0
1, 18720, Note_on_c, 9, 38, 0
1, 18720, Note_on_c, 1, 32, 77
1, 18720, Note_on_c, 3, 75, 106
1, 18720, Note_on_c, 9, 54, 100
1, 18720, Note_on_c, 9, 42, 110
1, 18721, Note_on_c, 9, 42, 0
1, 18731, Note_on_c, 9, 54, 0
1, 18761, Note_on_c, 3, 75, 0
1, 18767, Note_on_c, 5, 63, 92
1, 18768, Note_on_c, 5, 60, 0
1, 18768, Note_on_c, 3, 77, 115
1, 18768, Note_on_c, 9, 42, 51
1, 18768, Note_on_c, 9, 35, 95
1, 18769, Note_on_c, 9, 35, 0
1, 18769, Note_on_c, 9, 42, 0
1, 18774, Note_on_c, 0, 72, 0
1, 18783, Note_on_c, 0, 63, 0
1, 18783, Note_on_c, 0, 68, 0
1, 18793, Note_on_c, 7, 63, 0
1, 18796, Note_on_c, 1, 32, 0
1, 18798, Note_on_c, 8, 56, 0
1, 18799, Note_on_c, 8, 60, 0
1, 18810, Note_on_c, 6, 72, 0
1, 18810, Note_on_c, 6, 70, 70
1, 18810, Note_on_c, 6, 73, 76
1, 18811, Note_on_c, 8, 54, 77
1, 18811, Note_on_c, 8, 58, 94
1, 18813, Note_on_c, 6, 75, 0
1, 18814, Note_on_c, 7, 61, 111
1, 18815, Note_on_c, 0, 70, 100
1, 18815, Note_on_c, 0, 61, 109
1, 18815, Note_on_c, 0, 66, 107
1, 18815, Note_on_c, 1, 32, 87
1, 18815, Note_on_c, 9, 42, 84
1, 18816, Note_on_c, 9, 42, 0
1, 18816, Note_on_c, 9, 35, 104
1, 18817, Note_on_c, 9, 35, 0
1, 18864, Note_on_c, 9, 42, 53
1, 18865, Note_on_c, 9, 42, 0
1, 18888, Note_on_c, 1, 32, 0
1, 18911, Note_on_c, 9, 38, 76
1, 18911, Note_on_c, 9, 40, 119
1, 18912, Note_on_c, 9, 40, 0
1, 18912, Note_on_c, 9, 38, 0
1, 18912, Note_on_c, 1, 32, 71
1, 18912, Note_on_c, 9, 42, 113
1, 18912, Note_on_c, 9, 54, 103
1, 18913, Note_on_c, 9, 42, 0
1, 18922, Note_on_c, 9, 54, 0
1, 18958, Note_on_c, 5, 63, 0
1, 18959, Note_on_c, 3, 77, 0
1, 18959, Note_on_c, 9, 42, 58
1, 18960, Note_on_c, 9, 42, 0
1, 18960, Note_on_c, 5, 61, 100
1, 18960, Note_on_c, 9, 35, 105
1, 18961, Note_on_c, 9, 35, 0
1, 18982, Note_on_c, 7, 61, 0
1, 18983, Note_on_c, 0, 61, 0
1, 18988, Note_on_c, 0, 70, 0
1, 18988, Note_on_c, 0, 66, 0
1, 18991, Note_on_c, 1, 32, 0
1, 18991, Note_on_c, 8, 54, 0
1, 18999, Note_on_c, 8, 58, 0
1, 19001, Note_on_c, 6, 70, 0
1, 19004, Note_on_c, 6, 73, 0
1, 19005, Note_on_c, 6, 75, 81
1, 19005, Note_on_c, 6, 72, 71
1, 19005, Note_on_c, 7, 63, 104
1, 19007, Note_on_c, 5, 61, 0
1, 19007, Note_on_c, 0, 72, 116
1, 19007, Note_on_c, 0, 63, 104
1, 19007, Note_on_c, 0, 68, 123
1, 19007, Note_on_c, 9, 42, 90
1, 19008, Note_on_c, 9, 42, 0
1, 19008, Note_on_c, 1, 32, 71
1, 19008, Note_on_c, 8, 60, 102
1, 19008, Note_on_c, 8, 56, 79
1, 19009, Note_on_c, 5, 60, 95
1, 19012, Note_on_c, 3, 77, 115
1, 19055, Note_on_c, 3, 77, 0
1, 19055, Note_on_c, 9, 38, 54
1, 19055, Note_on_c, 9, 40, 97
1, 19056, Note_on_c, 9, 40, 0
1, 19056, Note_on_c, 9, 38, 0
1, 19056, Note_on_c, 3, 75, 108
1, 19056, Note_on_c, 5, 56, 96
1, 19056, Note_on_c, 9, 42, 52
1, 19057, Note_on_c, 9, 42, 0
1, 19057, Note_on_c, 5, 60, 0
1, 19080, Note_on_c, 0, 72, 0
1, 19081, Note_on_c, 8, 56, 0
1, 19085, Note_on_c, 0, 63, 0
1, 19087, Note_on_c, 8, 60, 0
1, 19087, Note_on_c, 7, 63, 0
1, 19087, Note_on_c, 0, 68, 0
1, 19092, Note_on_c, 1, 32, 0
1, 19100, Note_on_c, 3, 75, 0
1, 19102, Note_on_c, 3, 72, 110
1, 19103, Note_on_c, 9, 40, 120
1, 19103, Note_on_c, 9, 38, 77
1, 19104, Note_on_c, 9, 38, 0
1, 19104, Note_on_c, 9, 40, 0
1, 19104, Note_on_c, 0, 70, 101
1, 19104, Note_on_c, 0, 66, 114
1, 19104, Note_on_c, 0, 61, 111
1, 19104, Note_on_c, 1, 32, 77
1, 19104, Note_on_c, 7, 61, 111
1, 19104, Note_on_c, 8, 54, 92
1, 19104, Note_on_c, 8, 58, 102
1, 19104, Note_on_c, 9, 42, 104
1, 19104, Note_on_c, 9, 54, 103
1, 19105, Note_on_c, 9, 42, 0
1, 19110, Note_on_c, 6, 75, 0
1, 19110, Note_on_c, 6, 70, 70
1, 19110, Note_on_c, 6, 73, 69
1, 19114, Note_on_c, 6, 72, 0
1, 19115, Note_on_c, 9, 54, 0
1, 19139, Note_on_c, 3, 72, 0
1, 19152, Note_on_c, 3, 75, 115
1, 19152, Note_on_c, 9, 42, 64
1, 19152, Note_on_c, 9, 35, 95
1, 19153, Note_on_c, 9, 35, 0
1, 19153, Note_on_c, 9, 42, 0
1, 19168, Note_on_c, 8, 54, 0
1, 19172, Note_on_c, 0, 66, 0
1, 19172, Note_on_c, 0, 61, 0
1, 19174, Note_on_c, 7, 61, 0
1, 19174, Note_on_c, 8, 58, 0
1, 19175, Note_on_c, 0, 70, 0
1, 19178, Note_on_c, 1, 32, 0
1, 19197, Note_on_c, 7, 63, 101
1, 19199, Note_on_c, 5, 56, 0
1, 19199, Note_on_c, 0, 68, 114
1, 19199, Note_on_c, 0, 72, 107
1, 19199, Note_on_c, 0, 63, 104
1, 19199, Note_on_c, 1, 32, 84
1, 19199, Note_on_c, 6, 75, 80
1, 19199, Note_on_c, 8, 60, 95
1, 19199, Note_on_c, 8, 56, 88
1, 19200, Note_on_c, 9, 42, 99
1, 19200, Note_on_c, 9, 35, 106
1, 19201, Note_on_c, 9, 35, 0
1, 19201, Note_on_c, 9, 42, 0
1, 19203, Note_on_c, 6, 70, 0
1, 19204, Note_on_c, 6, 73, 0
1, 19204, Note_on_c, 6, 72, 66
1, 19247, Note_on_c, 9, 42, 43
1, 19248, Note_on_c, 9, 42, 0
1, 19275, Note_on_c, 1, 32, 0
1, 19295, Note_on_c, 9, 40, 119
1, 19295, Note_on_c, 9, 38, 76
1, 19296, Note_on_c, 9, 38, 0
1, 19296, Note_on_c, 9, 40, 0
1, 19296, Note_on_c, 1, 32, 77
1, 19296, Note_on_c, 9, 42, 110
1, 19296, Note_on_c, 9, 54, 100
1, 19297, Note_on_c, 9, 42, 0
1, 19306, Note_on_c, 9, 54, 0
1, 19340, Note_on_c, 3, 75, 0
1, 19342, Note_on_c, 5, 56, 102
1, 19342, Note_on_c, 5, 68, 109
1, 19344, Note_on_c, 9, 42, 68
1, 19344, Note_on_c, 9, 35, 105
1, 19345, Note_on_c, 9, 35, 0
1, 19345, Note_on_c, 9, 42, 0
1, 19346, Note_on_c, 3, 72, 115
1, 19377, Note_on_c, 1, 32, 0
1, 19391, Note_on_c, 5, 60, 100
1, 19391, Note_on_c, 9, 42, 93
1, 19392, Note_on_c, 9, 42, 0
1, 19392, Note_on_c, 1, 32, 77
1, 19394, Note_on_c, 5, 56, 0
1, 19394, Note_on_c, 5, 68, 0
1, 19396, Note_on_c, 5, 72, 98
1, 19439, Note_on_c, 5, 61, 91
1, 19439, Note_on_c, 9, 40, 95
1, 19439, Note_on_c, 9, 42, 54
1, 19439, Note_on_c, 9, 38, 52
1, 19440, Note_on_c, 9, 38, 0
1, 19440, Note_on_c, 9, 42, 0
1, 19440, Note_on_c, 9, 40, 0
1, 19441, Note_on_c, 5, 60, 0
1, 19444, Note_on_c, 5, 73, 87
1, 19447, Note_on_c, 5, 72, 0
1, 19471, Note_on_c, 1, 32, 0
1, 19487, Note_on_c, 5, 61, 0
1, 19487, Note_on_c, 5, 60, 87
1, 19487, Note_on_c, 9, 40, 120
1, 19487, Note_on_c, 9, 38, 77
1, 19488, Note_on_c, 9, 38, 0
1, 19488, Note_on_c, 9, 40, 0
1, 19488, Note_on_c, 1, 32, 81
1, 19488, Note_on_c, 9, 42, 110
1, 19488, Note_on_c, 9, 54, 97
1, 19489, Note_on_c, 9, 42, 0
1, 19490, Note_on_c, 5, 72, 90
1, 19492, Note_on_c, 5, 73, 0
1, 19498, Note_on_c, 9, 54, 0
1, 19534, Note_on_c, 5, 72, 0
1, 19534, Note_on_c, 5, 75, 107
1, 19535, Note_on_c, 5, 63, 92
1, 19536, Note_on_c, 9, 42, 51
1, 19536, Note_on_c, 9, 35, 96
1, 19537, Note_on_c, 9, 35, 0
1, 19537, Note_on_c, 9, 42, 0
1, 19538, Note_on_c, 5, 60, 0
1, 19541, Note_on_c, 0, 72, 0
1, 19550, Note_on_c, 0, 68, 0
1, 19550, Note_on_c, 0, 63, 0
1, 19561, Note_on_c, 3, 72, 0
1, 19563, Note_on_c, 1, 32, 0
1, 19565, Note_on_c, 7, 63, 0
1, 19568, Note_on_c, 8, 60, 0
1, 19569, Note_on_c, 8, 56, 0
1, 19580, Note_on_c, 8, 58, 95
1, 19582, Note_on_c, 0, 70, 101
1, 19582, Note_on_c, 6, 73, 67
1, 19582, Note_on_c, 6, 70, 70
1, 19582, Note_on_c, 7, 61, 101
1, 19582, Note_on_c, 8, 54, 93
1, 19583, Note_on_c, 0, 61, 114
1, 19583, Note_on_c, 0, 66, 114
1, 19583, Note_on_c, 1, 32, 71
1, 19583, Note_on_c, 9, 42, 84
1, 19584, Note_on_c, 9, 42, 0
1, 19584, Note_on_c, 9, 35, 106
1, 19585, Note_on_c, 9, 35, 0
1, 19587, Note_on_c, 6, 72, 0
1, 19587, Note_on_c, 6, 75, 0
1, 19632, Note_on_c, 9, 42, 53
1, 19633, Note_on_c, 9, 42, 0
1, 19654, Note_on_c, 1, 32, 0
1, 19679, Note_on_c, 9, 38, 76
1, 19679, Note_on_c, 9, 40, 119
1, 19680, Note_on_c, 9, 40, 0
1, 19680, Note_on_c, 9, 38, 0
1, 19680, Note_on_c, 1, 32, 77
1, 19680, Note_on_c, 9, 42, 113
1, 19680, Note_on_c, 9, 54, 97
1, 19681, Note_on_c, 9, 42, 0
1, 19681, Note_on_c, 3, 77, 115
1, 19691, Note_on_c, 9, 54, 0
1, 19724, Note_on_c, 5, 63, 0
1, 19726, Note_on_c, 5, 75, 0
1, 19727, Note_on_c, 3, 77, 0
1, 19727, Note_on_c, 5, 61, 109
1, 19727, Note_on_c, 5, 73, 97
1, 19727, Note_on_c, 9, 42, 58
1, 19728, Note_on_c, 9, 42, 0
1, 19728, Note_on_c, 9, 35, 104
1, 19729, Note_on_c, 9, 35, 0
1, 19729, Note_on_c, 3, 80, 111
1, 19748, Note_on_c, 0, 61, 0
1, 19752, Note_on_c, 8, 54, 0
1, 19752, Note_on_c, 7, 61, 0
1, 19752, Note_on_c, 0, 66, 0
1, 19756, Note_on_c, 8, 58, 0
1, 19756, Note_on_c, 0, 70, 0
1, 19764, Note_on_c, 1, 32, 0
1, 19770, Note_on_c, 6, 70, 0
1, 19770, Note_on_c, 3, 80, 0
1, 19772, Note_on_c, 6, 72, 68
1, 19772, Note_on_c, 8, 60, 108
1, 19774, Note_on_c, 6, 73, 0
1, 19774, Note_on_c, 6, 75, 75
1, 19774, Note_on_c, 8, 56, 85
1, 19775, Note_on_c, 3, 77, 112
1, 19775, Note_on_c, 9, 42, 93
1, 19776, Note_on_c, 9, 42, 0
1, 19776, Note_on_c, 1, 32, 75
1, 19777, Note_on_c, 5, 61, 0
1, 19777, Note_on_c, 0, 72, 112
1, 19777, Note_on_c, 0, 68, 123
1, 19777, Note_on_c, 0, 63, 101
1, 19777, Note_on_c, 5, 72, 87
1, 19777, Note_on_c, 5, 60, 95
1, 19777, Note_on_c, 7, 63, 102
1, 19779, Note_on_c, 5, 73, 0
1, 19823, Note_on_c, 9, 40, 96
1, 19823, Note_on_c, 9, 38, 53
1, 19824, Note_on_c, 9, 38, 0
1, 19824, Note_on_c, 9, 40, 0
1, 19824, Note_on_c, 3, 77, 0
1, 19824, Note_on_c, 5, 56, 100
1, 19824, Note_on_c, 9, 42, 52
1, 19825, Note_on_c, 9, 42, 0
1, 19825, Note_on_c, 3, 75, 115
1, 19826, Note_on_c, 5, 72, 0
1, 19826, Note_on_c, 5, 60, 0
1, 19826, Note_on_c, 5, 68, 78
1, 19842, Note_on_c, 8, 56, 0
1, 19843, Note_on_c, 0, 72, 0
1, 19848, Note_on_c, 8, 60, 0
1, 19849, Note_on_c, 0, 63, 0
1, 19850, Note_on_c, 7, 63, 0
1, 19852, Note_on_c, 0, 68, 0
1, 19857, Note_on_c, 1, 32, 0
1, 19869, Note_on_c, 8, 54, 82
1, 19871, Note_on_c, 6, 75, 0
1, 19871, Note_on_c, 6, 72, 0
1, 19871, Note_on_c, 0, 61, 114
1, 19871, Note_on_c, 0, 70, 100
1, 19871, Note_on_c, 0, 66, 117
1, 19871, Note_on_c, 6, 70, 70
1, 19871, Note_on_c, 6, 73, 68
1, 19871, Note_on_c, 9, 38, 76
1, 19871, Note_on_c, 9, 40, 119
1, 19872, Note_on_c, 9, 40, 0
1, 19872, Note_on_c, 9, 38, 0
1, 19872, Note_on_c, 1, 32, 79
1, 19872, Note_on_c, 9, 42, 104
1, 19872, Note_on_c, 9, 54, 97
1, 19873, Note_on_c, 9, 42, 0
1, 19874, Note_on_c, 7, 61, 107
1, 19874, Note_on_c, 8, 58, 102
1, 19887, Note_on_c, 9, 54, 0
1, 19920, Note_on_c, 9, 35, 96
1, 19920, Note_on_c, 9, 42, 64
1, 19921, Note_on_c, 9, 42, 0
1, 19921, Note_on_c, 9, 35, 0
1, 19921, Note_on_c, 3, 75, 0
1, 19922, Note_on_c, 3, 72, 100
1, 19936, Note_on_c, 0, 61, 0
1, 19939, Note_on_c, 0, 66, 0
1, 19941, Note_on_c, 8, 54, 0
1, 19941, Note_on_c, 7, 61, 0
1, 19941, Note_on_c, 0, 70, 0
1, 19943, Note_on_c, 8, 58, 0
1, 19947, Note_on_c, 1, 32, 0
1, 19961, Note_on_c, 6, 70, 0
1, 19962, Note_on_c, 3, 72, 0
1, 19963, Note_on_c, 6, 72, 67
1, 19965, Note_on_c, 6, 73, 0
1, 19965, Note_on_c, 6, 75, 81
1, 19967, Note_on_c, 5, 56, 0
1, 19967, Note_on_c, 1, 32, 73
1, 19967, Note_on_c, 8, 60, 101
1, 19967, Note_on_c, 8, 56, 87
1, 19968, Note_on_c, 0, 63, 102
1, 19968, Note_on_c, 0, 72, 102
1, 19968, Note_on_c, 0, 68, 114
1, 19968, Note_on_c, 3, 75, 115
1, 19968, Note_on_c, 7, 63, 104
1, 19968, Note_on_c, 9, 35, 106
1, 19968, Note_on_c, 9, 42, 99
1, 19969, Note_on_c, 9, 42, 0
1, 19969, Note_on_c, 9, 35, 0
1, 19972, Note_on_c, 5, 68, 0
1, 20015, Note_on_c, 9, 42, 43
1, 20016, Note_on_c, 9, 42, 0
1, 20017, Note_on_c, 3, 75, 0
1, 20018, Note_on_c, 3, 72, 110
1, 20041, Note_on_c, 1, 32, 0
1, 20063, Note_on_c, 9, 40, 120
1, 20063, Note_on_c, 9, 38, 77
1, 20064, Note_on_c, 9, 38, 0
1, 20064, Note_on_c, 9, 40, 0
1, 20064, Note_on_c, 1, 32, 87
1, 20064, Note_on_c, 9, 54, 103
1, 20064, Note_on_c, 9, 42, 110
1, 20065, Note_on_c, 9, 42, 0
1, 20076, Note_on_c, 9, 54, 0
1, 20107, Note_on_c, 5, 68, 88
1, 20112, Note_on_c, 5, 56, 102
1, 20112, Note_on_c, 9, 35, 105
1, 20112, Note_on_c, 9, 42, 68
1, 20113, Note_on_c, 9, 42, 0
1, 20113, Note_on_c, 9, 35, 0
1, 20139, Note_on_c, 1, 32, 0
1, 20156, Note_on_c, 5, 68, 0
1, 20159, Note_on_c, 5, 72, 102
1, 20159, Note_on_c, 9, 42, 93
1, 20160, Note_on_c, 9, 42, 0
1, 20160, Note_on_c, 1, 32, 81
1, 20161, Note_on_c, 5, 60, 99
1, 20163, Note_on_c, 5, 56, 0
1, 20207, Note_on_c, 9, 40, 96
1, 20207, Note_on_c, 9, 42, 54
1, 20207, Note_on_c, 9, 38, 53
1, 20208, Note_on_c, 9, 38, 0
1, 20208, Note_on_c, 9, 42, 0
1, 20208, Note_on_c, 9, 40, 0
1, 20208, Note_on_c, 5, 61, 91
1, 20210, Note_on_c, 5, 60, 0
1, 20210, Note_on_c, 5, 72, 0
1, 20210, Note_on_c, 5, 73, 88
1, 20235, Note_on_c, 1, 32, 0
1, 20253, Note_on_c, 5, 72, 87
1, 20255, Note_on_c, 5, 60, 91
1, 20255, Note_on_c, 9, 38, 76
1, 20255, Note_on_c, 9, 40, 119
1, 20256, Note_on_c, 9, 40, 0
1, 20256, Note_on_c, 9, 38, 0
1, 20256, Note_on_c, 5, 61, 0
1, 20256, Note_on_c, 1, 32, 77
1, 20256, Note_on_c, 9, 42, 110
1, 20256, Note_on_c, 9, 54, 103
1, 20257, Note_on_c, 9, 42, 0
1, 20258, Note_on_c, 5, 73, 0
1, 20262, Note_on_c, 9, 54, 0
1, 20269, Note_on_c, 3, 72, 0
1, 20299, Note_on_c, 5, 72, 0
1, 20301, Note_on_c, 5, 75, 95
1, 20303, Note_on_c, 5, 63, 92
1, 20304, Note_on_c, 5, 60, 0
1, 20304, Note_on_c, 9, 35, 96
1, 20304, Note_on_c, 9, 42, 51
1, 20305, Note_on_c, 9, 42, 0
1, 20305, Note_on_c, 9, 35, 0
1, 20317, Note_on_c, 0, 72, 0
1, 20321, Note_on_c, 0, 63, 0
1, 20323, Note_on_c, 0, 68, 0
1, 20326, Note_on_c, 7, 63, 0
1, 20327, Note_on_c, 8, 56, 0
1, 20332, Note_on_c, 8, 60, 0
1, 20332, Note_on_c, 1, 32, 0
1, 20342, Note_on_c, 8, 54, 86
1, 20343, Note_on_c, 8, 58, 98
1, 20346, Note_on_c, 6, 72, 0
1, 20346, Note_on_c, 6, 70, 71
1, 20346, Note_on_c, 6, 73, 74
1, 20348, Note_on_c, 7, 61, 107
1, 20351, Note_on_c, 6, 75, 0
1, 20351, Note_on_c, 1, 32, 87
1, 20351, Note_on_c, 9, 42, 84
1, 20352, Note_on_c, 9, 42, 0
1, 20352, Note_on_c, 9, 35, 104
1, 20353, Note_on_c, 9, 35, 0
1, 20353, Note_on_c, 0, 66, 107
1, 20353, Note_on_c, 0, 61, 114
1, 20353, Note_on_c, 0, 70, 98
1, 20400, Note_on_c, 9, 42, 53
1, 20401, Note_on_c, 9, 42, 0
1, 20424, Note_on_c, 1, 32, 0
1, 20447, Note_on_c, 9, 38, 76
1, 20447, Note_on_c, 9, 40, 119
1, 20448, Note_on_c, 9, 40, 0
1, 20448, Note_on_c, 9, 38, 0
1, 20448, Note_on_c, 1, 32, 71
1, 20448, Note_on_c, 9, 54, 100
1, 20448, Note_on_c, 9, 42, 113
1, 20449, Note_on_c, 9, 42, 0
1, 20459, Note_on_c, 9, 54, 0
1, 20494, Note_on_c, 5, 63, 0
1, 20494, Note_on_c, 3, 68, 108
1, 20495, Note_on_c, 9, 42, 58
1, 20496, Note_on_c, 9, 42, 0
1, 20496, Note_on_c, 5, 61, 100
1, 20496, Note_on_c, 9, 35, 105
1, 20497, Note_on_c, 9, 35, 0
1, 20498, Note_on_c, 5, 75, 0
1, 20500, Note_on_c, 5, 73, 88
1, 20507, Note_on_c, 3, 68, 0
1, 20521, Note_on_c, 3, 68, 95
1, 20527, Note_on_c, 1, 32, 0
1, 20537, Note_on_c, 3, 68, 0
1, 20543, Note_on_c, 5, 61, 0
1, 20543, Note_on_c, 9, 42, 90
1, 20544, Note_on_c, 9, 42, 0
1, 20544, Note_on_c, 1, 32, 71
1, 20545, Note_on_c, 5, 60, 95
1, 20549, Note_on_c, 3, 72, 112
1, 20551, Note_on_c, 5, 72, 77
1, 20554, Note_on_c, 5, 73, 0
1, 20591, Note_on_c, 9, 40, 97
1, 20591, Note_on_c, 9, 38, 54
1, 20592, Note_on_c, 9, 38, 0
1, 20592, Note_on_c, 9, 40, 0
1, 20592, Note_on_c, 5, 72, 0
1, 20592, Note_on_c, 5, 56, 96
1, 20592, Note_on_c, 9, 42, 52
1, 20593, Note_on_c, 9, 42, 0
1, 20593, Note_on_c, 5, 60, 0
1, 20597, Note_on_c, 5, 68, 80
1, 20599, Note_on_c, 3, 72, 0
1, 20610, Note_on_c, 3, 75, 108
1, 20616, Note_on_c, 7, 61, 0
1, 20616, Note_on_c, 0, 66, 0
1, 20616, Note_on_c, 8, 54, 0
1, 20616, Note_on_c, 0, 61, 0
1, 20616, Note_on_c, 0, 70, 0
1, 20628, Note_on_c, 8, 58, 0
1, 20628, Note_on_c, 1, 32, 0
1, 20632, Note_on_c, 6, 73, 0
1, 20634, Note_on_c, 6, 70, 0
1, 20634, Note_on_c, 6, 77, 78
1, 20636, Note_on_c, 6, 73, 60
1, 20636, Note_on_c, 8, 56, 95
1, 20636, Note_on_c, 8, 61, 105
1, 20639, Note_on_c, 7, 65, 112
1, 20639, Note_on_c, 9, 40, 120
1, 20639, Note_on_c, 9, 38, 77
1, 20640, Note_on_c, 9, 38, 0
1, 20640, Note_on_c, 9, 40, 0
1, 20640, Note_on_c, 1, 32, 77
1, 20640, Note_on_c, 9, 42, 104
1, 20640, Note_on_c, 9, 54, 100
1, 20641, Note_on_c, 9, 42, 0
1, 20641, Note_on_c, 0, 65, 116
1, 20641, Note_on_c, 0, 73, 123
1, 20641, Note_on_c, 0, 68, 126
1, 20651, Note_on_c, 9, 54, 0
1, 20661, Note_on_c, 3, 75, 0
1, 20668, Note_on_c, 3, 77, 104
1, 20688, Note_on_c, 9, 35, 95
1, 20688, Note_on_c, 9, 42, 64
1, 20689, Note_on_c, 9, 42, 0
1, 20689, Note_on_c, 9, 35, 0
1, 20711, Note_on_c, 8, 56, 0
1, 20712, Note_on_c, 0, 73, 0
1, 20714, Note_on_c, 1, 32, 0
1, 20717, Note_on_c, 0, 65, 0
1, 20719, Note_on_c, 0, 68, 0
1, 20720, Note_on_c, 7, 65, 0
1, 20720, Note_on_c, 8, 61, 0
1, 20722, Note_on_c, 3, 77, 0
1, 20730, Note_on_c, 3, 75, 109
1, 20733, Note_on_c, 6, 73, 0
1, 20733, Note_on_c, 6, 75, 77
1, 20733, Note_on_c, 6, 72, 68
1, 20735, Note_on_c, 5, 56, 0
1, 20735, Note_on_c, 0, 63, 100
1, 20735, Note_on_c, 0, 72, 105
1, 20735, Note_on_c, 0, 68, 117
1, 20735, Note_on_c, 1, 32, 84
1, 20736, Note_on_c, 8, 56, 88
1, 20736, Note_on_c, 9, 35, 106
1, 20736, Note_on_c, 9, 42, 99
1, 20737, Note_on_c, 9, 42, 0
1, 20737, Note_on_c, 9, 35, 0
1, 20738, Note_on_c, 7, 63, 102
1, 20739, Note_on_c, 8, 60, 106
1, 20741, Note_on_c, 6, 77, 0
1, 20744, Note_on_c, 5, 68, 0
1, 20783, Note_on_c, 9, 42, 43
1, 20784, Note_on_c, 9, 42, 0
1, 20796, Note_on_c, 3, 75, 0
1, 20804, Note_on_c, 3, 75, 108
1, 20811, Note_on_c, 1, 32, 0
1, 20831, Note_on_c, 9, 38, 76
1, 20831, Note_on_c, 9, 40, 119
1, 20832, Note_on_c, 9, 40, 0
1, 20832, Note_on_c, 9, 38, 0
1, 20832, Note_on_c, 1, 32, 77
1, 20832, Note_on_c, 9, 42, 110
1, 20832, Note_on_c, 9, 54, 103
1, 20833, Note_on_c, 9, 42, 0
1, 20843, Note_on_c, 9, 54, 0
1, 20869, Note_on_c, 5, 68, 70
1, 20877, Note_on_c, 3, 75, 0
1, 20878, Note_on_c, 3, 72, 108
1, 20878, Note_on_c, 5, 56, 102
1, 20880, Note_on_c, 9, 42, 68
1, 20880, Note_on_c, 9, 35, 105
1, 20881, Note_on_c, 9, 35, 0
1, 20881, Note_on_c, 9, 42, 0
1, 20913, Note_on_c, 1, 32, 0
1, 20921, Note_on_c, 5, 68, 0
1, 20927, Note_on_c, 5, 60, 100
1, 20927, Note_on_c, 5, 72, 98
1, 20927, Note_on_c, 9, 42, 93
1, 20928, Note_on_c, 9, 42, 0
1, 20928, Note_on_c, 1, 32, 77
1, 20930, Note_on_c, 5, 56, 0
1, 20973, Note_on_c, 5, 72, 0
1, 20973, Note_on_c, 5, 73, 93
1, 20975, Note_on_c, 5, 61, 91
1, 20975, Note_on_c, 9, 42, 54
1, 20975, Note_on_c, 9, 38, 76
1, 20975, Note_on_c, 9, 40, 119
1, 20976, Note_on_c, 9, 40, 0
1, 20976, Note_on_c, 9, 38, 0
1, 20976, Note_on_c, 9, 42, 0
1, 20977, Note_on_c, 5, 60, 0
1, 21007, Note_on_c, 1, 32, 0
1, 21019, Note_on_c, 3, 72, 0
1, 21020, Note_on_c, 5, 72, 79
1, 21023, Note_on_c, 5, 73, 0
1, 21023, Note_on_c, 5, 61, 0
1, 21023, Note_on_c, 5, 60, 87
1, 21024, Note_on_c, 1, 32, 81
1, 21024, Note_on_c, 9, 54, 100
1, 21024, Note_on_c, 9, 42, 110
1, 21025, Note_on_c, 9, 42, 0
1, 21035, Note_on_c, 9, 54, 0
1, 21068, Note_on_c, 5, 72, 0
1, 21070, Note_on_c, 5, 75, 102
1, 21071, Note_on_c, 5, 63, 92
1, 21072, Note_on_c, 9, 42, 51
1, 21072, Note_on_c, 9, 35, 95
1, 21073, Note_on_c, 9, 35, 0
1, 21073, Note_on_c, 9, 42, 0
1, 21074, Note_on_c, 5, 60, 0
1, 21077, Note_on_c, 0, 72, 0
1, 21082, Note_on_c, 0, 68, 0
1, 21085, Note_on_c, 0, 63, 0
1, 21099, Note_on_c, 1, 32, 0
1, 21099, Note_on_c, 7, 63, 0
1, 21102, Note_on_c, 8, 56, 0
1, 21107, Note_on_c, 8, 60, 0
1, 21109, Note_on_c, 6, 72, 0
1, 21110, Note_on_c, 6, 73, 74
1, 21112, Note_on_c, 6, 70, 68
1, 21113, Note_on_c, 6, 75, 0
1, 21115, Note_on_c, 7, 61, 105
1, 21117, Note_on_c, 8, 54, 95
1, 21117, Note_on_c, 8, 58, 105
1, 21119, Note_on_c, 0, 66, 107
1, 21119, Note_on_c, 0, 70, 105
1, 21119, Note_on_c, 0, 61, 114
1, 21119, Note_on_c, 1, 32, 71
1, 21119, Note_on_c, 9, 42, 84
1, 21120, Note_on_c, 9, 42, 0
1, 21120, Note_on_c, 9, 35, 106
1, 21121, Note_on_c, 9, 35, 0
1, 21168, Note_on_c, 9, 42, 53
1, 21169, Note_on_c, 9, 42, 0
1, 21190, Note_on_c, 1, 32, 0
1, 21215, Note_on_c, 9, 38, 76
1, 21215, Note_on_c, 9, 40, 119
1, 21216, Note_on_c, 9, 40, 0
1, 21216, Note_on_c, 9, 38, 0
1, 21216, Note_on_c, 1, 32, 77
1, 21216, Note_on_c, 9, 42, 113
1, 21216, Note_on_c, 9, 54, 103
1, 21217, Note_on_c, 9, 42, 0
1, 21226, Note_on_c, 9, 54, 0
1, 21257, Note_on_c, 5, 75, 0
1, 21260, Note_on_c, 5, 63, 0
1, 21262, Note_on_c, 5, 73, 100
1, 21263, Note_on_c, 3, 72, 110
1, 21263, Note_on_c, 5, 61, 109
1, 21263, Note_on_c, 9, 42, 58
1, 21264, Note_on_c, 9, 42, 0
1, 21264, Note_on_c, 9, 35, 104
1, 21265, Note_on_c, 9, 35, 0
1, 21300, Note_on_c, 1, 32, 0
1, 21311, Note_on_c, 9, 42, 93
1, 21312, Note_on_c, 9, 42, 0
1, 21312, Note_on_c, 1, 32, 75
1, 21313, Note_on_c, 5, 73, 0
1, 21313, Note_on_c, 5, 61, 0
1, 21313, Note_on_c, 5, 60, 95
1, 21313, Note_on_c, 5, 72, 90
1, 21319, Note_on_c, 3, 72, 0
1, 21326, Note_on_c, 3, 68, 93
1, 21359, Note_on_c, 9, 38, 50
1, 21359, Note_on_c, 9, 40, 93
1, 21360, Note_on_c, 9, 40, 0
1, 21360, Note_on_c, 9, 38, 0
1, 21360, Note_on_c, 5, 72, 0
1, 21360, Note_on_c, 5, 68, 78
1, 21360, Note_on_c, 5, 56, 100
1, 21360, Note_on_c, 9, 42, 52
1, 21361, Note_on_c, 9, 42, 0
1, 21362, Note_on_c, 5, 60, 0
1, 21382, Note_on_c, 0, 70, 0
1, 21382, Note_on_c, 0, 66, 0
1, 21382, Note_on_c, 7, 61, 0
1, 21382, Note_on_c, 0, 61, 0
1, 21385, Note_on_c, 8, 54, 0
1, 21393, Note_on_c, 1, 32, 0
1, 21394, Note_on_c, 8, 58, 0
1, 21407, Note_on_c, 0, 65, 108
1, 21407, Note_on_c, 7, 65, 114
1, 21407, Note_on_c, 8, 61, 113
1, 21407, Note_on_c, 9, 38, 76
1, 21407, Note_on_c, 9, 40, 119
1, 21408, Note_on_c, 9, 40, 0
1, 21408, Note_on_c, 9, 38, 0
1, 21408, Note_on_c, 0, 70, 120
1, 21408, Note_on_c, 0, 73, 114
1, 21408, Note_on_c, 1, 32, 79
1, 21408, Note_on_c, 9, 42, 104
1, 21408, Note_on_c, 9, 54, 103
1, 21409, Note_on_c, 9, 42, 0
1, 21412, Note_on_c, 8, 58, 85
1, 21419, Note_on_c, 9, 54, 0
1, 21440, Note_on_c, 3, 68, 0
1, 21456, Note_on_c, 9, 42, 64
1, 21456, Note_on_c, 9, 35, 95
1, 21457, Note_on_c, 9, 35, 0
1, 21457, Note_on_c, 9, 42, 0
1, 21476, Note_on_c, 0, 65, 0
1, 21476, Note_on_c, 0, 70, 0
1, 21479, Note_on_c, 0, 73, 0
1, 21483, Note_on_c, 1, 32, 0
1, 21486, Note_on_c, 8, 61, 0
1, 21491, Note_on_c, 8, 58, 0
1, 21498, Note_on_c, 6, 73, 0
1, 21502, Note_on_c, 7, 65, 0
1, 21503, Note_on_c, 5, 56, 0
1, 21503, Note_on_c, 5, 68, 0
1, 21503, Note_on_c, 1, 32, 73
1, 21504, Note_on_c, 0, 72, 82
1, 21504, Note_on_c, 8, 56, 74
1, 21504, Note_on_c, 8, 60, 84
1, 21504, Note_on_c, 9, 42, 99
1, 21504, Note_on_c, 9, 35, 106
1, 21505, Note_on_c, 9, 35, 0
1, 21505, Note_on_c, 6, 70, 0
1, 21505, Note_on_c, 9, 42, 0
1, 21505, Note_on_c, 7, 63, 90
1, 21513, Note_on_c, 0, 75, 96
1, 21517, Note_on_c, 0, 80, 91
1, 21521, Note_on_c, 0, 84, 88
1, 21551, Note_on_c, 9, 42, 43
1, 21552, Note_on_c, 9, 42, 0
1, 21577, Note_on_c, 1, 32, 0
1, 21599, Note_on_c, 1, 32, 96
1, 21599, Note_on_c, 6, 75, 85
1, 21599, Note_on_c, 9, 40, 120
1, 21599, Note_on_c, 9, 38, 77
1, 21600, Note_on_c, 9, 38, 0
1, 21600, Note_on_c, 9, 40, 0
1, 21600, Note_on_c, 2, 65, 73
1, 21600, Note_on_c, 2, 56, 58
1, 21600, Note_on_c, 2, 60, 78
1, 21600, Note_on_c, 9, 54, 100
1, 21600, Note_on_c, 9, 42, 110
1, 21601, Note_on_c, 9, 42, 0
1, 21610, Note_on_c, 9, 54, 0
1, 21625, Note_on_c, 2, 56, 0
1, 21628, Note_on_c, 2, 65, 0
1, 21628, Note_on_c, 2, 60, 0
1, 21640, Note_on_c, 3, 72, 104
1, 21648, Note_on_c, 9, 42, 68
1, 21648, Note_on_c, 9, 35, 105
1, 21649, Note_on_c, 9, 35, 0
1, 21649, Note_on_c, 9, 42, 0
1, 21668, Note_on_c, 3, 72, 0
1, 21671, Note_on_c, 1, 32, 0
1, 21679, Note_on_c, 3, 72, 110
1, 21695, Note_on_c, 1, 32, 95
1, 21695, Note_on_c, 9, 42, 93
1, 21696, Note_on_c, 9, 42, 0
1, 21698, Note_on_c, 6, 80, 79
1, 21701, Note_on_c, 6, 75, 0
1, 21731, Note_on_c, 3, 72, 0
1, 21743, Note_on_c, 9, 42, 54
1, 21743, Note_on_c, 9, 40, 95
1, 21743, Note_on_c, 9, 38, 52
1, 21744, Note_on_c, 9, 38, 0
1, 21744, Note_on_c, 9, 42, 0
1, 21744, Note_on_c, 9, 40, 0
1, 21744, Note_on_c, 3, 75, 115
1, 21772, Note_on_c, 1, 32, 0
1, 21791, Note_on_c, 1, 36, 90
1, 21791, Note_on_c, 2, 56, 63
1, 21791, Note_on_c, 2, 65, 80
1, 21791, Note_on_c, 9, 38, 78
1, 21791, Note_on_c, 9, 40, 121
1, 21792, Note_on_c, 9, 40, 0
1, 21792, Note_on_c, 9, 38, 0
1, 21792, Note_on_c, 2, 60, 80
1, 21792, Note_on_c, 9, 42, 110
1, 21792, Note_on_c, 9, 54, 97
1, 21793, Note_on_c, 9, 42, 0
1, 21794, Note_on_c, 6, 84, 85
1, 21795, Note_on_c, 3, 75, 0
1, 21796, Note_on_c, 6, 80, 0
1, 21802, Note_on_c, 9, 54, 0
1, 21802, Note_on_c, 3, 72, 108
1, 21814, Note_on_c, 8, 56, 0
1, 21815, Note_on_c, 8, 60, 0
1, 21815, Note_on_c, 2, 56, 0
1, 21816, Note_on_c, 2, 65, 0
1, 21816, Note_on_c, 2, 60, 0
1, 21825, Note_on_c, 7, 63, 0
1, 21831, Note_on_c, 1, 36, 0
1, 21839, Note_on_c, 1, 36, 82
1, 21839, Note_on_c, 2, 65, 61
1, 21840, Note_on_c, 9, 35, 95
1, 21840, Note_on_c, 9, 42, 51
1, 21841, Note_on_c, 9, 42, 0
1, 21841, Note_on_c, 9, 35, 0
1, 21841, Note_on_c, 2, 60, 60
1, 21841, Note_on_c, 2, 56, 30
1, 21843, Note_on_c, 0, 72, 0
1, 21847, Note_on_c, 0, 75, 0
1, 21850, Note_on_c, 0, 80, 0
1, 21853, Note_on_c, 2, 56, 0
1, 21857, Note_on_c, 2, 60, 0
1, 21858, Note_on_c, 2, 65, 0
1, 21880, Note_on_c, 1, 36, 0
1, 21886, Note_on_c, 6, 84, 0
1, 21887, Note_on_c, 1, 37, 93
1, 21887, Note_on_c, 9, 42, 84
1, 21888, Note_on_c, 9, 42, 0
1, 21888, Note_on_c, 9, 35, 104
1, 21889, Note_on_c, 9, 35, 0
1, 21889, Note_on_c, 0, 72, 91
1, 21889, Note_on_c, 6, 84, 86
1, 21893, Note_on_c, 3, 72, 0
1, 21894, Note_on_c, 3, 68, 105
1, 21895, Note_on_c, 0, 80, 71
1, 21895, Note_on_c, 0, 77, 86
1, 21936, Note_on_c, 5, 65, 77
1, 21936, Note_on_c, 9, 42, 53
1, 21937, Note_on_c, 9, 42, 0
1, 21941, Note_on_c, 3, 68, 0
1, 21944, Note_on_c, 3, 65, 73
1, 21962, Note_on_c, 1, 37, 0
1, 21972, Note_on_c, 5, 65, 0
1, 21982, Note_on_c, 6, 80, 81
1, 21983, Note_on_c, 1, 37, 93
1, 21983, Note_on_c, 2, 65, 90
1, 21983, Note_on_c, 2, 60, 90
1, 21983, Note_on_c, 2, 56, 75
1, 21983, Note_on_c, 5, 72, 81
1, 21983, Note_on_c, 9, 38, 76
1, 21983, Note_on_c, 9, 40, 119
1, 21984, Note_on_c, 9, 40, 0
1, 21984, Note_on_c, 9, 38, 0
1, 21984, Note_on_c, 6, 84, 0
1, 21984, Note_on_c, 9, 54, 97
1, 21984, Note_on_c, 9, 42, 113
1, 21985, Note_on_c, 9, 42, 0
1, 21995, Note_on_c, 9, 54, 0
1, 22007, Note_on_c, 3, 65, 0
1, 22008, Note_on_c, 2, 65, 0
1, 22008, Note_on_c, 3, 72, 113
1, 22009, Note_on_c, 2, 56, 0
1, 22010, Note_on_c, 2, 60, 0
1, 22021, Note_on_c, 5, 72, 0
1, 22031, Note_on_c, 9, 42, 58
1, 22032, Note_on_c, 9, 42, 0
1, 22032, Note_on_c, 2, 65, 61
1, 22032, Note_on_c, 9, 35, 105
1, 22033, Note_on_c, 9, 35, 0
1, 22033, Note_on_c, 2, 60, 65
1, 22033, Note_on_c, 2, 56, 37
1, 22033, Note_on_c, 5, 70, 84
1, 22049, Note_on_c, 2, 56, 0
1, 22049, Note_on_c, 2, 60, 0
1, 22051, Note_on_c, 2, 65, 0
1, 22060, Note_on_c, 1, 37, 0
1, 22079, Note_on_c, 3, 72, 0
1, 22079, Note_on_c, 6, 77, 74
1, 22079, Note_on_c, 9, 42, 103
1, 22080, Note_on_c, 9, 42, 0
1, 22080, Note_on_c, 1, 37, 93
1, 22084, Note_on_c, 6, 80, 0
1, 22108, Note_on_c, 0, 80, 0
1, 22110, Note_on_c, 0, 72, 0
1, 22111, Note_on_c, 0, 77, 0
1, 22111, Note_on_c, 3, 70, 115
1, 22113, Note_on_c, 0, 84, 0
1, 22118, Note_on_c, 5, 70, 0
1, 22127, Note_on_c, 5, 68, 75
1, 22127, Note_on_c, 8, 56, 77
1, 22127, Note_on_c, 9, 38, 52
1, 22127, Note_on_c, 9, 40, 95
1, 22127, Note_on_c, 10, 56, 86
1, 22128, Note_on_c, 9, 40, 0
1, 22128, Note_on_c, 9, 38, 0
1, 22128, Note_on_c, 7, 60, 84
1, 22128, Note_on_c, 8, 51, 80
1, 22128, Note_on_c, 9, 42, 52
1, 22128, Note_on_c, 10, 60, 93
1, 22128, Note_on_c, 10, 51, 89
1, 22129, Note_on_c, 9, 42, 0
1, 22129, Note_on_c, 0, 58, 101
1, 22129, Note_on_c, 0, 82, 114
1, 22129, Note_on_c, 0, 70, 112
1, 22130, Note_on_c, 2, 60, 52
1, 22130, Note_on_c, 2, 56, 52
1, 22130, Note_on_c, 2, 65, 52
1, 22143, Note_on_c, 2, 65, 0
1, 22143, Note_on_c, 2, 56, 0
1, 22143, Note_on_c, 2, 60, 0
1, 22145, Note_on_c, 7, 60, 0
1, 22145, Note_on_c, 3, 70, 0
1, 22145, Note_on_c, 10, 60, 0
1, 22147, Note_on_c, 10, 56, 0
1, 22147, Note_on_c, 8, 56, 0
1, 22149, Note_on_c, 8, 51, 0
1, 22149, Note_on_c, 10, 51, 0
1, 22154, Note_on_c, 3, 68, 97
1, 22156, Note_on_c, 1, 37, 0
1, 22157, Note_on_c, 0, 70, 0
1, 22164, Note_on_c, 5, 68, 0
1, 22166, Note_on_c, 0, 82, 0
1, 22174, Note_on_c, 5, 68, 71
1, 22175, Note_on_c, 6, 73, 67
1, 22175, Note_on_c, 9, 40, 119
1, 22175, Note_on_c, 9, 38, 76
1, 22176, Note_on_c, 9, 38, 0
1, 22176, Note_on_c, 0, 58, 0
1, 22176, Note_on_c, 9, 40, 0
1, 22176, Note_on_c, 1, 37, 98
1, 22176, Note_on_c, 9, 42, 104
1, 22176, Note_on_c, 9, 54, 97
1, 22177, Note_on_c, 9, 42, 0
1, 22177, Note_on_c, 0, 72, 112
1, 22177, Note_on_c, 0, 60, 120
1, 22177, Note_on_c, 0, 84, 114
1, 22177, Note_on_c, 2, 56, 82
1, 22177, Note_on_c, 2, 60, 97
1, 22177, Note_on_c, 2, 65, 94
1, 22180, Note_on_c, 6, 77, 0
1, 22191, Note_on_c, 9, 54, 0
1, 22197, Note_on_c, 2, 65, 0
1, 22198, Note_on_c, 2, 60, 0
1, 22200, Note_on_c, 2, 56, 0
1, 22210, Note_on_c, 0, 72, 0
1, 22216, Note_on_c, 1, 37, 0
1, 22218, Note_on_c, 0, 84, 0
1, 22220, Note_on_c, 5, 68, 0
1, 22222, Note_on_c, 0, 60, 0
1, 22223, Note_on_c, 1, 41, 82
1, 22223, Note_on_c, 5, 65, 82
1, 22224, Note_on_c, 0, 82, 102
1, 22224, Note_on_c, 0, 58, 102
1, 22224, Note_on_c, 2, 65, 57
1, 22224, Note_on_c, 2, 56, 57
1, 22224, Note_on_c, 9, 35, 96
1, 22224, Note_on_c, 9, 42, 64
1, 22225, Note_on_c, 9, 42, 0
1, 22225, Note_on_c, 9, 35, 0
1, 22225, Note_on_c, 0, 70, 108
1, 22225, Note_on_c, 2, 60, 57
1, 22237, Note_on_c, 3, 68, 0
1, 22244, Note_on_c, 2, 56, 0
1, 22245, Note_on_c, 2, 60, 0
1, 22246, Note_on_c, 2, 65, 0
1, 22259, Note_on_c, 5, 65, 0
1, 22265, Note_on_c, 1, 41, 0
1, 22266, Note_on_c, 0, 70, 0
1, 22268, Note_on_c, 6, 73, 0
1, 22271, Note_on_c, 5, 68, 75
1, 22272, Note_on_c, 0, 58, 0
1, 22272, Note_on_c, 0, 82, 0
1, 22272, Note_on_c, 0, 72, 82
1, 22272, Note_on_c, 0, 60, 82
1, 22272, Note_on_c, 1, 44, 93
1, 22272, Note_on_c, 9, 35, 106
1, 22272, Note_on_c, 9, 42, 99
1, 22273, Note_on_c, 9, 42, 0
1, 22273, Note_on_c, 9, 35, 0
1, 22281, Note_on_c, 0, 75, 96
1, 22285, Note_on_c, 0, 80, 91
1, 22289, Note_on_c, 0, 84, 88
1, 22319, Note_on_c, 9, 42, 43
1, 22320, Note_on_c, 9, 42, 0
1, 22347, Note_on_c, 5, 68, 0
1, 22348, Note_on_c, 1, 44, 0
1, 22367, Note_on_c, 6, 75, 85
1, 22367, Note_on_c, 9, 40, 119
1, 22367, Note_on_c, 9, 38, 76
1, 22368, Note_on_c, 9, 38, 0
1, 22368, Note_on_c, 9, 40, 0
1, 22368, Note_on_c, 1, 44, 98
1, 22368, Note_on_c, 2, 56, 58
1, 22368, Note_on_c, 2, 60, 78
1, 22368, Note_on_c, 2, 65, 73
1, 22368, Note_on_c, 9, 54, 103
1, 22368, Note_on_c, 9, 42, 110
1, 22369, Note_on_c, 9, 42, 0
1, 22369, Note_on_c, 5, 65, 76
1, 22380, Note_on_c, 9, 54, 0
1, 22393, Note_on_c, 2, 56, 0
1, 22396, Note_on_c, 2, 65, 0
1, 22396, Note_on_c, 2, 60, 0
1, 22416, Note_on_c, 9, 42, 68
1, 22416, Note_on_c, 9, 35, 105
1, 22417, Note_on_c, 9, 35, 0
1, 22417, Note_on_c, 9, 42, 0
1, 22422, Note_on_c, 3, 72, 100
1, 22431, Note_on_c, 5, 65, 0
1, 22444, Note_on_c, 1, 44, 0
1, 22463, Note_on_c, 9, 42, 93
1, 22464, Note_on_c, 9, 42, 0
1, 22464, Note_on_c, 1, 44, 95
1, 22465, Note_on_c, 5, 68, 65
1, 22466, Note_on_c, 6, 80, 79
1, 22469, Note_on_c, 6, 75, 0
1, 22511, Note_on_c, 9, 38, 52
1, 22511, Note_on_c, 9, 40, 95
1, 22511, Note_on_c, 9, 42, 54
1, 22512, Note_on_c, 9, 42, 0
1, 22512, Note_on_c, 9, 38, 0
1, 22512, Note_on_c, 9, 40, 0
1, 22513, Note_on_c, 3, 72, 0
1, 22514, Note_on_c, 3, 70, 100
1, 22540, Note_on_c, 5, 68, 0
1, 22541, Note_on_c, 1, 44, 0
1, 22559, Note_on_c, 1, 44, 98
1, 22559, Note_on_c, 2, 65, 80
1, 22559, Note_on_c, 2, 56, 63
1, 22559, Note_on_c, 9, 38, 77
1, 22559, Note_on_c, 9, 40, 120
1, 22560, Note_on_c, 9, 40, 0
1, 22560, Note_on_c, 9, 38, 0
1, 22560, Note_on_c, 2, 60, 80
1, 22560, Note_on_c, 9, 42, 110
1, 22560, Note_on_c, 9, 54, 103
1, 22561, Note_on_c, 9, 42, 0
1, 22562, Note_on_c, 6, 84, 85
1, 22564, Note_on_c, 6, 80, 0
1, 22566, Note_on_c, 9, 54, 0
1, 22583, Note_on_c, 2, 56, 0
1, 22584, Note_on_c, 2, 60, 0
1, 22584, Note_on_c, 2, 65, 0
1, 22594, Note_on_c, 3, 70, 0
1, 22595, Note_on_c, 3, 68, 99
1, 22599, Note_on_c, 1, 44, 0
1, 22607, Note_on_c, 1, 36, 90
1, 22607, Note_on_c, 2, 65, 61
1, 22608, Note_on_c, 9, 35, 96
1, 22608, Note_on_c, 9, 42, 51
1, 22609, Note_on_c, 9, 42, 0
1, 22609, Note_on_c, 9, 35, 0
1, 22609, Note_on_c, 2, 60, 60
1, 22609, Note_on_c, 2, 56, 30
1, 22611, Note_on_c, 0, 60, 0
1, 22611, Note_on_c, 0, 72, 0
1, 22615, Note_on_c, 0, 75, 0
1, 22618, Note_on_c, 0, 80, 0
1, 22621, Note_on_c, 2, 56, 0
1, 22625, Note_on_c, 2, 60, 0
1, 22626, Note_on_c, 2, 65, 0
1, 22646, Note_on_c, 1, 36, 0
1, 22648, Note_on_c, 3, 68, 0
1, 22650, Note_on_c, 3, 65, 112
1, 22654, Note_on_c, 6, 84, 0
1, 22655, Note_on_c, 1, 37, 96
1, 22655, Note_on_c, 9, 42, 84
1, 22656, Note_on_c, 9, 42, 0
1, 22656, Note_on_c, 9, 35, 106
1, 22657, Note_on_c, 9, 35, 0
1, 22657, Note_on_c, 0, 72, 91
1, 22657, Note_on_c, 6, 84, 86
1, 22663, Note_on_c, 0, 80, 71
1, 22663, Note_on_c, 0, 77, 86
1, 22695, Note_on_c, 3, 65, 0
1, 22701, Note_on_c, 3, 63, 92
1, 22704, Note_on_c, 5, 65, 77
1, 22704, Note_on_c, 9, 42, 53
1, 22705, Note_on_c, 9, 42, 0
1, 22733, Note_on_c, 3, 63, 0
1, 22733, Note_on_c, 1, 37, 0
1, 22740, Note_on_c, 5, 65, 0
1, 22750, Note_on_c, 6, 80, 81
1, 22751, Note_on_c, 2, 65, 90
1, 22751, Note_on_c, 2, 56, 75
1, 22751, Note_on_c, 2, 60, 90
1, 22751, Note_on_c, 5, 72, 81
1, 22751, Note_on_c, 9, 38, 77
1, 22751, Note_on_c, 9, 40, 120
1, 22752, Note_on_c, 9, 40, 0
1, 22752, Note_on_c, 6, 84, 0
1, 22752, Note_on_c, 9, 38, 0
1, 22752, Note_on_c, 1, 37, 92
1, 22752, Note_on_c, 9, 54, 100
1, 22752, Note_on_c, 9, 42, 113
1, 22753, Note_on_c, 9, 42, 0
1, 22763, Note_on_c, 9, 54, 0
1, 22776, Note_on_c, 2, 65, 0
1, 22777, Note_on_c, 2, 56, 0
1, 22778, Note_on_c, 2, 60, 0
1, 22789, Note_on_c, 5, 72, 0
1, 22795, Note_on_c, 3, 65, 100
1, 22799, Note_on_c, 9, 42, 58
1, 22800, Note_on_c, 9, 42, 0
1, 22800, Note_on_c, 2, 65, 61
1, 22800, Note_on_c, 9, 35, 104
1, 22801, Note_on_c, 9, 35, 0
1, 22801, Note_on_c, 2, 60, 65
1, 22801, Note_on_c, 2, 56, 37
1, 22801, Note_on_c, 5, 70, 84
1, 22817, Note_on_c, 2, 56, 0
1, 22817, Note_on_c, 2, 60, 0
1, 22819, Note_on_c, 2, 65, 0
1, 22826, Note_on_c, 1, 37, 0
1, 22847, Note_on_c, 1, 37, 93
1, 22847, Note_on_c, 6, 77, 74
1, 22847, Note_on_c, 9, 42, 103
1, 22848, Note_on_c, 9, 42, 0
1, 22852, Note_on_c, 6, 80, 0
1, 22862, Note_on_c, 3, 65, 0
1, 22866, Note_on_c, 3, 70, 111
1, 22876, Note_on_c, 0, 80, 0
1, 22878, Note_on_c, 0, 72, 0
1, 22879, Note_on_c, 0, 77, 0
1, 22881, Note_on_c, 0, 84, 0
1, 22886, Note_on_c, 5, 70, 0
1, 22895, Note_on_c, 5, 68, 75
1, 22895, Note_on_c, 8, 56, 77
1, 22895, Note_on_c, 9, 40, 97
1, 22895, Note_on_c, 9, 38, 54
1, 22895, Note_on_c, 10, 56, 86
1, 22896, Note_on_c, 9, 38, 0
1, 22896, Note_on_c, 9, 40, 0
1, 22896, Note_on_c, 7, 60, 84
1, 22896, Note_on_c, 8, 51, 80
1, 22896, Note_on_c, 9, 42, 52
1, 22896, Note_on_c, 10, 51, 89
1, 22896, Note_on_c, 10, 60, 93
1, 22897, Note_on_c, 9, 42, 0
1, 22897, Note_on_c, 0, 70, 112
1, 22897, Note_on_c, 0, 82, 114
1, 22897, Note_on_c, 0, 58, 101
1, 22898, Note_on_c, 2, 60, 52
1, 22898, Note_on_c, 2, 56, 52
1, 22898, Note_on_c, 2, 65, 52
1, 22911, Note_on_c, 2, 65, 0
1, 22911, Note_on_c, 2, 56, 0
1, 22911, Note_on_c, 2, 60, 0
1, 22913, Note_on_c, 7, 60, 0
1, 22913, Note_on_c, 10, 60, 0
1, 22915, Note_on_c, 8, 56, 0
1, 22915, Note_on_c, 10, 56, 0
1, 22917, Note_on_c, 8, 51, 0
1, 22917, Note_on_c, 3, 70, 0
1, 22917, Note_on_c, 10, 51, 0
1, 22925, Note_on_c, 0, 70, 0
1, 22926, Note_on_c, 3, 70, 115
1, 22932, Note_on_c, 5, 68, 0
1, 22934, Note_on_c, 0, 82, 0
1, 22936, Note_on_c, 1, 37, 0
1, 22942, Note_on_c, 5, 68, 71
1, 22943, Note_on_c, 1, 37, 96
1, 22943, Note_on_c, 6, 73, 67
1, 22943, Note_on_c, 9, 38, 76
1, 22943, Note_on_c, 9, 40, 119
1, 22944, Note_on_c, 9, 40, 0
1, 22944, Note_on_c, 9, 38, 0
1, 22944, Note_on_c, 0, 58, 0
1, 22944, Note_on_c, 9, 42, 104
1, 22944, Note_on_c, 9, 54, 100
1, 22945, Note_on_c, 9, 42, 0
1, 22945, Note_on_c, 0, 60, 120
1, 22945, Note_on_c, 0, 72, 112
1, 22945, Note_on_c, 0, 84, 114
1, 22945, Note_on_c, 2, 60, 97
1, 22945, Note_on_c, 2, 65, 94
1, 22945, Note_on_c, 2, 56, 82
1, 22948, Note_on_c, 6, 77, 0
1, 22955, Note_on_c, 9, 54, 0
1, 22965, Note_on_c, 2, 65, 0
1, 22966, Note_on_c, 2, 60, 0
1, 22968, Note_on_c, 2, 56, 0
1, 22978, Note_on_c, 0, 72, 0
1, 22986, Note_on_c, 0, 84, 0
1, 22987, Note_on_c, 1, 37, 0
1, 22988, Note_on_c, 5, 68, 0
1, 22990, Note_on_c, 0, 60, 0
1, 22991, Note_on_c, 5, 65, 82
1, 22992, Note_on_c, 0, 58, 102
1, 22992, Note_on_c, 0, 82, 102
1, 22992, Note_on_c, 1, 37, 81
1, 22992, Note_on_c, 2, 56, 57
1, 22992, Note_on_c, 2, 65, 57
1, 22992, Note_on_c, 9, 42, 64
1, 22992, Note_on_c, 9, 35, 95
1, 22993, Note_on_c, 9, 35, 0
1, 22993, Note_on_c, 9, 42, 0
1, 22993, Note_on_c, 0, 70, 108
1, 22993, Note_on_c, 2, 60, 57
1, 22997, Note_on_c, 3, 70, 0
1, 22998, Note_on_c, 3, 68, 87
1, 23012, Note_on_c, 2, 56, 0
1, 23013, Note_on_c, 2, 60, 0
1, 23014, Note_on_c, 2, 65, 0
1, 23027, Note_on_c, 5, 65, 0
1, 23031, Note_on_c, 1, 37, 0
1, 23034, Note_on_c, 0, 70, 0
1, 23036, Note_on_c, 6, 73, 0
1, 23039, Note_on_c, 5, 68, 75
1, 23040, Note_on_c, 0, 58, 0
1, 23040, Note_on_c, 0, 82, 0
1, 23040, Note_on_c, 0, 72, 82
1, 23040, Note_on_c, 0, 60, 82
1, 23040, Note_on_c, 1, 32, 96
1, 23040, Note_on_c, 9, 42, 99
1, 23040, Note_on_c, 9, 35, 106
1, 23041, Note_on_c, 9, 35, 0
1, 23041, Note_on_c, 9, 42, 0
1, 23049, Note_on_c, 0, 75, 96
1, 23053, Note_on_c, 0, 80, 91
1, 23056, Note_on_c, 3, 68, 0
1, 23057, Note_on_c, 0, 84, 88
1, 23087, Note_on_c, 9, 42, 43
1, 23088, Note_on_c, 9, 42, 0
1, 23111, Note_on_c, 5, 68, 0
1, 23119, Note_on_c, 1, 32, 0
1, 23135, Note_on_c, 1, 32, 91
1, 23135, Note_on_c, 6, 75, 85
1, 23135, Note_on_c, 9, 38, 76
1, 23135, Note_on_c, 9, 40, 119
1, 23136, Note_on_c, 9, 40, 0
1, 23136, Note_on_c, 9, 38, 0
1, 23136, Note_on_c, 2, 56, 58
1, 23136, Note_on_c, 2, 60, 78
1, 23136, Note_on_c, 2, 65, 73
1, 23136, Note_on_c, 9, 42, 110
1, 23136, Note_on_c, 9, 54, 103
1, 23137, Note_on_c, 9, 42, 0
1, 23137, Note_on_c, 5, 65, 76
1, 23147, Note_on_c, 9, 54, 0
1, 23161, Note_on_c, 2, 56, 0
1, 23164, Note_on_c, 2, 65, 0
1, 23164, Note_on_c, 2, 60, 0
1, 23175, Note_on_c, 3, 72, 106
1, 23184, Note_on_c, 9, 42, 68
1, 23184, Note_on_c, 9, 35, 104
1, 23185, Note_on_c, 9, 35, 0
1, 23185, Note_on_c, 9, 42, 0
1, 23199, Note_on_c, 5, 65, 0
1, 23213, Note_on_c, 1, 32, 0
1, 23215, Note_on_c, 3, 72, 0
1, 23222, Note_on_c, 3, 72, 100
1, 23231, Note_on_c, 9, 42, 93
1, 23232, Note_on_c, 9, 42, 0
1, 23232, Note_on_c, 1, 32, 89
1, 23233, Note_on_c, 5, 68, 65
1, 23234, Note_on_c, 6, 80, 79
1, 23237, Note_on_c, 6, 75, 0
1, 23269, Note_on_c, 3, 72, 0
1, 23276, Note_on_c, 3, 75, 108
1, 23279, Note_on_c, 9, 42, 54
1, 23279, Note_on_c, 9, 38, 52
1, 23279, Note_on_c, 9, 40, 95
1, 23280, Note_on_c, 9, 40, 0
1, 23280, Note_on_c, 9, 42, 0
1, 23280, Note_on_c, 9, 38, 0
1, 23308, Note_on_c, 5, 68, 0
1, 23313, Note_on_c, 1, 32, 0
1, 23327, Note_on_c, 2, 56, 63
1, 23327, Note_on_c, 2, 65, 80
1, 23327, Note_on_c, 9, 38, 76
1, 23327, Note_on_c, 9, 40, 119
1, 23328, Note_on_c, 9, 40, 0
1, 23328, Note_on_c, 9, 38, 0
1, 23328, Note_on_c, 1, 32, 90
1, 23328, Note_on_c, 2, 60, 80
1, 23328, Note_on_c, 9, 54, 100
1, 23328, Note_on_c, 9, 42, 110
1, 23329, Note_on_c, 9, 42, 0
1, 23330, Note_on_c, 6, 84, 85
1, 23332, Note_on_c, 6, 80, 0
1, 23339, Note_on_c, 9, 54, 0
1, 23351, Note_on_c, 2, 56, 0
1, 23352, Note_on_c, 2, 65, 0
1, 23352, Note_on_c, 2, 60, 0
1, 23368, Note_on_c, 3, 75, 0
1, 23368, Note_on_c, 1, 32, 0
1, 23373, Note_on_c, 3, 72, 104
1, 23375, Note_on_c, 1, 36, 90
1, 23375, Note_on_c, 2, 65, 61
1, 23376, Note_on_c, 9, 42, 51
1, 23376, Note_on_c, 9, 35, 96
1, 23377, Note_on_c, 9, 35, 0
1, 23377, Note_on_c, 9, 42, 0
1, 23377, Note_on_c, 2, 56, 30
1, 23377, Note_on_c, 2, 60, 60
1, 23379, Note_on_c, 0, 72, 0
1, 23379, Note_on_c, 0, 60, 0
1, 23383, Note_on_c, 0, 75, 0
1, 23386, Note_on_c, 0, 80, 0
1, 23389, Note_on_c, 2, 56, 0
1, 23393, Note_on_c, 2, 60, 0
1, 23394, Note_on_c, 2, 65, 0
1, 23414, Note_on_c, 1, 36, 0
1, 23421, Note_on_c, 3, 72, 0
1, 23422, Note_on_c, 6, 84, 0
1, 23423, Note_on_c, 9, 42, 84
1, 23424, Note_on_c, 9, 42, 0
1, 23424, Note_on_c, 1, 37, 98
1, 23424, Note_on_c, 3, 70, 106
1, 23424, Note_on_c, 9, 35, 105
1, 23425, Note_on_c, 9, 35, 0
1, 23425, Note_on_c, 0, 72, 91
1, 23425, Note_on_c, 6, 84, 86
1, 23431, Note_on_c, 0, 77, 86
1, 23431, Note_on_c, 0, 80, 71
1, 23472, Note_on_c, 3, 70, 0
1, 23472, Note_on_c, 5, 65, 77
1, 23472, Note_on_c, 9, 42, 53
1, 23473, Note_on_c, 9, 42, 0
1, 23488, Note_on_c, 3, 70, 102
1, 23496, Note_on_c, 1, 37, 0
1, 23508, Note_on_c, 5, 65, 0
1, 23518, Note_on_c, 6, 80, 81
1, 23519, Note_on_c, 2, 65, 90
1, 23519, Note_on_c, 2, 60, 90
1, 23519, Note_on_c, 2, 56, 75
1, 23519, Note_on_c, 5, 72, 81
1, 23519, Note_on_c, 9, 38, 76
1, 23519, Note_on_c, 9, 40, 119
1, 23520, Note_on_c, 9, 40, 0
1, 23520, Note_on_c, 9, 38, 0
1, 23520, Note_on_c, 6, 84, 0
1, 23520, Note_on_c, 1, 37, 96
1, 23520, Note_on_c, 9, 54, 103
1, 23520, Note_on_c, 9, 42, 113
1, 23521, Note_on_c, 9, 42, 0
1, 23530, Note_on_c, 9, 54, 0
1, 23544, Note_on_c, 2, 65, 0
1, 23545, Note_on_c, 2, 56, 0
1, 23546, Note_on_c, 2, 60, 0
1, 23557, Note_on_c, 5, 72, 0
1, 23567, Note_on_c, 7, 60, 95
1, 23567, Note_on_c, 9, 42, 58
1, 23567, Note_on_c, 10, 60, 104
1, 23568, Note_on_c, 9, 42, 0
1, 23568, Note_on_c, 9, 35, 104
1, 23569, Note_on_c, 9, 35, 0
1, 23569, Note_on_c, 5, 70, 84
1, 23569, Note_on_c, 8, 53, 78
1, 23569, Note_on_c, 8, 56, 80
1, 23569, Note_on_c, 10, 53, 87
1, 23569, Note_on_c, 10, 56, 89
1, 23582, Note_on_c, 10, 60, 0
1, 23582, Note_on_c, 7, 60, 0
1, 23583, Note_on_c, 3, 70, 0
1, 23584, Note_on_c, 3, 68, 72
1, 23592, Note_on_c, 1, 37, 0
1, 23595, Note_on_c, 8, 53, 0
1, 23595, Note_on_c, 10, 56, 0
1, 23595, Note_on_c, 8, 56, 0
1, 23595, Note_on_c, 10, 53, 0
1, 23615, Note_on_c, 1, 37, 99
1, 23615, Note_on_c, 6, 77, 74
1, 23615, Note_on_c, 9, 42, 103
1, 23616, Note_on_c, 9, 42, 0
1, 23620, Note_on_c, 6, 80, 0
1, 23644, Note_on_c, 0, 80, 0
1, 23646, Note_on_c, 0, 72, 0
1, 23647, Note_on_c, 0, 77, 0
1, 23649, Note_on_c, 0, 84, 0
1, 23654, Note_on_c, 5, 70, 0
1, 23662, Note_on_c, 8, 56, 80
1, 23662, Note_on_c, 8, 51, 82
1, 23662, Note_on_c, 10, 51, 91
1, 23662, Note_on_c, 10, 56, 89
1, 23663, Note_on_c, 5, 68, 75
1, 23663, Note_on_c, 9, 38, 53
1, 23663, Note_on_c, 9, 40, 96
1, 23664, Note_on_c, 9, 40, 0
1, 23664, Note_on_c, 9, 38, 0
1, 23664, Note_on_c, 7, 60, 100
1, 23664, Note_on_c, 9, 42, 52
1, 23664, Note_on_c, 10, 60, 109
1, 23665, Note_on_c, 9, 42, 0
1, 23665, Note_on_c, 0, 58, 101
1, 23665, Note_on_c, 0, 70, 112
1, 23665, Note_on_c, 0, 82, 114
1, 23666, Note_on_c, 2, 60, 52
1, 23666, Note_on_c, 2, 65, 52
1, 23666, Note_on_c, 2, 56, 52
1, 23679, Note_on_c, 2, 56, 0
1, 23679, Note_on_c, 2, 65, 0
1, 23679, Note_on_c, 2, 60, 0
1, 23682, Note_on_c, 7, 60, 0
1, 23682, Note_on_c, 10, 60, 0
1, 23688, Note_on_c, 10, 56, 0
1, 23688, Note_on_c, 8, 56, 0
1, 23691, Note_on_c, 8, 51, 0
1, 23691, Note_on_c, 10, 51, 0
1, 23693, Note_on_c, 0, 70, 0
1, 23700, Note_on_c, 5, 68, 0
1, 23700, Note_on_c, 3, 68, 0
1, 23702, Note_on_c, 0, 82, 0
1, 23703, Note_on_c, 1, 37, 0
1, 23710, Note_on_c, 5, 68, 71
1, 23711, Note_on_c, 6, 73, 67
1, 23711, Note_on_c, 9, 40, 119
1, 23711, Note_on_c, 9, 38, 76
1, 23712, Note_on_c, 9, 38, 0
1, 23712, Note_on_c, 0, 58, 0
1, 23712, Note_on_c, 9, 40, 0
1, 23712, Note_on_c, 1, 37, 91
1, 23712, Note_on_c, 9, 42, 104
1, 23712, Note_on_c, 9, 54, 103
1, 23713, Note_on_c, 9, 42, 0
1, 23713, Note_on_c, 0, 72, 112
1, 23713, Note_on_c, 0, 60, 120
1, 23713, Note_on_c, 0, 84, 114
1, 23713, Note_on_c, 2, 60, 97
1, 23713, Note_on_c, 2, 56, 82
1, 23713, Note_on_c, 2, 65, 94
1, 23716, Note_on_c, 6, 77, 0
1, 23723, Note_on_c, 9, 54, 0
1, 23733, Note_on_c, 2, 65, 0
1, 23734, Note_on_c, 2, 60, 0
1, 23736, Note_on_c, 2, 56, 0
1, 23746, Note_on_c, 0, 72, 0
1, 23752, Note_on_c, 1, 37, 0
1, 23754, Note_on_c, 0, 84, 0
1, 23756, Note_on_c, 5, 68, 0
1, 23758, Note_on_c, 0, 60, 0
1, 23759, Note_on_c, 1, 37, 87
1, 23759, Note_on_c, 5, 65, 82
1, 23760, Note_on_c, 0, 58, 102
1, 23760, Note_on_c, 0, 82, 102
1, 23760, Note_on_c, 2, 65, 57
1, 23760, Note_on_c, 2, 56, 57
1, 23760, Note_on_c, 9, 42, 64
1, 23760, Note_on_c, 9, 35, 96
1, 23761, Note_on_c, 9, 35, 0
1, 23761, Note_on_c, 9, 42, 0
1, 23761, Note_on_c, 0, 70, 108
1, 23761, Note_on_c, 2, 60, 57
1, 23780, Note_on_c, 2, 56, 0
1, 23781, Note_on_c, 2, 60, 0
1, 23782, Note_on_c, 2, 65, 0
1, 23795, Note_on_c, 5, 65, 0
1, 23801, Note_on_c, 1, 37, 0
1, 23802, Note_on_c, 0, 70, 0
1, 23804, Note_on_c, 6, 73, 0
1, 23807, Note_on_c, 5, 68, 75
1, 23808, Note_on_c, 0, 58, 0
1, 23808, Note_on_c, 0, 82, 0
1, 23808, Note_on_c, 0, 72, 82
1, 23808, Note_on_c, 1, 32, 91
1, 23808, Note_on_c, 9, 42, 99
1, 23808, Note_on_c, 9, 35, 106
1, 23809, Note_on_c, 9, 35, 0
1, 23809, Note_on_c, 9, 42, 0
1, 23817, Note_on_c, 0, 75, 96
1, 23821, Note_on_c, 0, 80, 91
1, 23825, Note_on_c, 0, 84, 88
1, 23855, Note_on_c, 9, 42, 43
1, 23856, Note_on_c, 9, 42, 0
1, 23880, Note_on_c, 5, 68, 0
1, 23884, Note_on_c, 1, 32, 0
1, 23903, Note_on_c, 1, 32, 93
1, 23903, Note_on_c, 6, 75, 85
1, 23903, Note_on_c, 9, 40, 120
1, 23903, Note_on_c, 9, 38, 77
1, 23904, Note_on_c, 9, 38, 0
1, 23904, Note_on_c, 9, 40, 0
1, 23904, Note_on_c, 2, 60, 78
1, 23904, Note_on_c, 2, 56, 58
1, 23904, Note_on_c, 2, 65, 73
1, 23904, Note_on_c, 9, 42, 110
1, 23904, Note_on_c, 9, 54, 100
1, 23905, Note_on_c, 9, 42, 0
1, 23905, Note_on_c, 5, 65, 76
1, 23914, Note_on_c, 9, 54, 0
1, 23929, Note_on_c, 2, 56, 0
1, 23932, Note_on_c, 2, 60, 0
1, 23932, Note_on_c, 2, 65, 0
1, 23942, Note_on_c, 3, 65, 115
1, 23952, Note_on_c, 9, 35, 104
1, 23952, Note_on_c, 9, 42, 68
1, 23953, Note_on_c, 9, 42, 0
1, 23953, Note_on_c, 9, 35, 0
1, 23967, Note_on_c, 5, 65, 0
1, 23978, Note_on_c, 1, 32, 0
1, 23999, Note_on_c, 1, 32, 87
1, 23999, Note_on_c, 9, 42, 93
1, 24000, Note_on_c, 9, 42, 0
1, 24001, Note_on_c, 5, 68, 65
1, 24002, Note_on_c, 6, 80, 79
1, 24005, Note_on_c, 6, 75, 0
1, 24006, Note_on_c, 3, 65, 0
1, 24007, Note_on_c, 3, 72, 112
1, 24047, Note_on_c, 9, 42, 54
1, 24047, Note_on_c, 9, 38, 53
1, 24047, Note_on_c, 9, 40, 96
1, 24048, Note_on_c, 9, 40, 0
1, 24048, Note_on_c, 9, 38, 0
1, 24048, Note_on_c, 9, 42, 0
1, 24076, Note_on_c, 5, 68, 0
1, 24077, Note_on_c, 3, 72, 0
1, 24078, Note_on_c, 3, 70, 105
1, 24083, Note_on_c, 1, 32, 0
1, 24095, Note_on_c, 2, 56, 63
1, 24095, Note_on_c, 2, 65, 80
1, 24095, Note_on_c, 9, 38, 76
1, 24095, Note_on_c, 9, 40, 119
1, 24096, Note_on_c, 9, 40, 0
1, 24096, Note_on_c, 9, 38, 0
1, 24096, Note_on_c, 1, 32, 84
1, 24096, Note_on_c, 2, 60, 80
1, 24096, Note_on_c, 9, 54, 97
1, 24096, Note_on_c, 9, 42, 110
1, 24097, Note_on_c, 9, 42, 0
1, 24098, Note_on_c, 6, 84, 85
1, 24100, Note_on_c, 6, 80, 0
1, 24106, Note_on_c, 9, 54, 0
1, 24117, Note_on_c, 3, 70, 0
1, 24118, Note_on_c, 3, 68, 99
1, 24119, Note_on_c, 2, 56, 0
1, 24120, Note_on_c, 2, 60, 0
1, 24120, Note_on_c, 2, 65, 0
1, 24136, Note_on_c, 1, 32, 0
1, 24143, Note_on_c, 1, 36, 92
1, 24143, Note_on_c, 2, 65, 61
1, 24144, Note_on_c, 9, 35, 95
1, 24144, Note_on_c, 9, 42, 51
1, 24145, Note_on_c, 9, 42, 0
1, 24145, Note_on_c, 9, 35, 0
1, 24145, Note_on_c, 2, 56, 30
1, 24145, Note_on_c, 2, 60, 60
1, 24147, Note_on_c, 0, 72, 0
1, 24151, Note_on_c, 0, 75, 0
1, 24154, Note_on_c, 0, 80, 0
1, 24156, Note_on_c, 3, 68, 0
1, 24157, Note_on_c, 2, 56, 0
1, 24157, Note_on_c, 3, 65, 90
1, 24161, Note_on_c, 2, 60, 0
1, 24162, Note_on_c, 2, 65, 0
1, 24188, Note_on_c, 1, 36, 0
1, 24190, Note_on_c, 6, 84, 0
1, 24191, Note_on_c, 3, 65, 0
1, 24191, Note_on_c, 1, 37, 93
1, 24191, Note_on_c, 9, 42, 84
1, 24192, Note_on_c, 9, 42, 0
1, 24192, Note_on_c, 9, 35, 106
1, 24193, Note_on_c, 9, 35, 0
1, 24193, Note_on_c, 0, 72, 91
1, 24193, Note_on_c, 6, 84, 86
1, 24199, Note_on_c, 0, 80, 71
1, 24199, Note_on_c, 0, 77, 86
1, 24240, Note_on_c, 5, 65, 77
1, 24240, Note_on_c, 9, 42, 53
1, 24241, Note_on_c, 9, 42, 0
1, 24243, Note_on_c, 3, 72, 110
1, 24270, Note_on_c, 1, 37, 0
1, 24276, Note_on_c, 5, 65, 0
1, 24286, Note_on_c, 6, 80, 81
1, 24287, Note_on_c, 2, 65, 90
1, 24287, Note_on_c, 2, 56, 75
1, 24287, Note_on_c, 2, 60, 90
1, 24287, Note_on_c, 5, 72, 81
1, 24287, Note_on_c, 9, 40, 120
1, 24287, Note_on_c, 9, 38, 77
1, 24288, Note_on_c, 9, 38, 0
1, 24288, Note_on_c, 9, 40, 0
1, 24288, Note_on_c, 6, 84, 0
1, 24288, Note_on_c, 1, 37, 84
1, 24288, Note_on_c, 9, 54, 97
1, 24288, Note_on_c, 9, 42, 113
1, 24289, Note_on_c, 9, 42, 0
1, 24299, Note_on_c, 9, 54, 0
1, 24312, Note_on_c, 2, 65, 0
1, 24313, Note_on_c, 2, 56, 0
1, 24314, Note_on_c, 2, 60, 0
1, 24325, Note_on_c, 5, 72, 0
1, 24335, Note_on_c, 9, 42, 58
1, 24336, Note_on_c, 9, 42, 0
1, 24336, Note_on_c, 9, 35, 104
1, 24337, Note_on_c, 9, 35, 0
1, 24337, Note_on_c, 3, 72, 0
1, 24337, Note_on_c, 5, 70, 84
1, 24338, Note_on_c, 3, 68, 81
1, 24366, Note_on_c, 1, 37, 0
1, 24383, Note_on_c, 1, 37, 87
1, 24383, Note_on_c, 6, 77, 74
1, 24383, Note_on_c, 9, 42, 103
1, 24384, Note_on_c, 9, 42, 0
1, 24387, Note_on_c, 3, 68, 0
1, 24388, Note_on_c, 6, 80, 0
1, 24388, Note_on_c, 3, 70, 109
1, 24412, Note_on_c, 0, 80, 0
1, 24414, Note_on_c, 0, 72, 0
1, 24415, Note_on_c, 0, 77, 0
1, 24417, Note_on_c, 0, 84, 0
1, 24422, Note_on_c, 5, 70, 0
1, 24431, Note_on_c, 5, 68, 75
1, 24431, Note_on_c, 8, 56, 77
1, 24431, Note_on_c, 9, 38, 52
1, 24431, Note_on_c, 9, 40, 95
1, 24431, Note_on_c, 10, 56, 86
1, 24432, Note_on_c, 9, 40, 0
1, 24432, Note_on_c, 9, 38, 0
1, 24432, Note_on_c, 7, 60, 84
1, 24432, Note_on_c, 8, 51, 80
1, 24432, Note_on_c, 9, 42, 52
1, 24432, Note_on_c, 10, 51, 89
1, 24432, Note_on_c, 10, 60, 93
1, 24433, Note_on_c, 9, 42, 0
1, 24433, Note_on_c, 0, 58, 101
1, 24433, Note_on_c, 0, 70, 112
1, 24433, Note_on_c, 0, 82, 114
1, 24444, Note_on_c, 3, 70, 0
1, 24445, Note_on_c, 3, 68, 74
1, 24449, Note_on_c, 10, 60, 0
1, 24449, Note_on_c, 7, 60, 0
1, 24451, Note_on_c, 10, 56, 0
1, 24451, Note_on_c, 8, 56, 0
1, 24453, Note_on_c, 8, 51, 0
1, 24453, Note_on_c, 10, 51, 0
1, 24468, Note_on_c, 5, 68, 0
1, 24468, Note_on_c, 1, 37, 0
1, 24478, Note_on_c, 5, 68, 71
1, 24479, Note_on_c, 1, 37, 75
1, 24479, Note_on_c, 6, 73, 67
1, 24479, Note_on_c, 9, 38, 76
1, 24479, Note_on_c, 9, 40, 119
1, 24480, Note_on_c, 9, 40, 0
1, 24480, Note_on_c, 9, 38, 0
1, 24480, Note_on_c, 9, 54, 97
1, 24480, Note_on_c, 9, 42, 104
1, 24481, Note_on_c, 9, 42, 0
1, 24481, Note_on_c, 2, 60, 97
1, 24481, Note_on_c, 2, 56, 82
1, 24481, Note_on_c, 2, 65, 94
1, 24484, Note_on_c, 6, 77, 0
1, 24495, Note_on_c, 9, 54, 0
1, 24501, Note_on_c, 2, 65, 0
1, 24502, Note_on_c, 2, 60, 0
1, 24504, Note_on_c, 2, 56, 0
1, 24512, Note_on_c, 0, 82, 0
1, 24512, Note_on_c, 0, 60, 120
1, 24512, Note_on_c, 0, 72, 112
1, 24512, Note_on_c, 0, 84, 114
1, 24513, Note_on_c, 0, 70, 0
1, 24516, Note_on_c, 3, 68, 0
1, 24517, Note_on_c, 0, 58, 0
1, 24519, Note_on_c, 1, 37, 0
1, 24524, Note_on_c, 5, 68, 0
1, 24527, Note_on_c, 1, 37, 93
1, 24527, Note_on_c, 5, 65, 82
1, 24528, Note_on_c, 2, 56, 57
1, 24528, Note_on_c, 2, 65, 57
1, 24528, Note_on_c, 9, 35, 95
1, 24528, Note_on_c, 9, 42, 64
1, 24529, Note_on_c, 9, 42, 0
1, 24529, Note_on_c, 9, 35, 0
1, 24529, Note_on_c, 2, 60, 57
1, 24543, Note_on_c, 0, 84, 0
1, 24543, Note_on_c, 0, 60, 0
1, 24544, Note_on_c, 0, 70, 108
1, 24544, Note_on_c, 0, 58, 102
1, 24544, Note_on_c, 0, 82, 102
1, 24545, Note_on_c, 0, 72, 0
1, 24548, Note_on_c, 2, 56, 0
1, 24549, Note_on_c, 2, 60, 0
1, 24550, Note_on_c, 2, 65, 0
1, 24558, Note_on_c, 1, 37, 0
1, 24563, Note_on_c, 5, 65, 0
1, 24572, Note_on_c, 6, 73, 0
1, 24575, Note_on_c, 0, 58, 0
1, 24575, Note_on_c, 0, 82, 0
1, 24575, Note_on_c, 0, 70, 0
1, 24575, Note_on_c, 1, 32, 93
1, 24576, Note_on_c, 0, 60, 110
1, 24576, Note_on_c, 0, 72, 88
1, 24576, Note_on_c, 5, 68, 65
1, 24576, Note_on_c, 9, 42, 99
1, 24576, Note_on_c, 9, 35, 106
1, 24577, Note_on_c, 9, 35, 0
1, 24577, Note_on_c, 9, 42, 0
1, 24578, Note_on_c, 0, 75, 116
1, 24580, Note_on_c, 0, 80, 101
1, 24582, Note_on_c, 0, 84, 110
1, 24623, Note_on_c, 9, 42, 43
1, 24624, Note_on_c, 9, 42, 0
1, 24651, Note_on_c, 5, 68, 0
1, 24656, Note_on_c, 1, 32, 0
1, 24671, Note_on_c, 1, 32, 96
1, 24671, Note_on_c, 6, 75, 85
1, 24671, Note_on_c, 9, 38, 77
1, 24671, Note_on_c, 9, 40, 120
1, 24672, Note_on_c, 9, 40, 0
1, 24672, Note_on_c, 9, 38, 0
1, 24672, Note_on_c, 2, 60, 78
1, 24672, Note_on_c, 2, 56, 58
1, 24672, Note_on_c, 2, 65, 73
1, 24672, Note_on_c, 9, 54, 103
1, 24672, Note_on_c, 9, 42, 110
1, 24673, Note_on_c, 9, 42, 0
1, 24673, Note_on_c, 5, 65, 76
1, 24684, Note_on_c, 9, 54, 0
1, 24697, Note_on_c, 2, 56, 0
1, 24700, Note_on_c, 2, 65, 0
1, 24700, Note_on_c, 2, 60, 0
1, 24720, Note_on_c, 3, 77, 115
1, 24720, Note_on_c, 9, 35, 105
1, 24720, Note_on_c, 9, 42, 68
1, 24721, Note_on_c, 9, 42, 0
1, 24721, Note_on_c, 9, 35, 0
1, 24735, Note_on_c, 5, 65, 0
1, 24743, Note_on_c, 1, 32, 0
1, 24767, Note_on_c, 1, 32, 95
1, 24767, Note_on_c, 9, 42, 93
1, 24768, Note_on_c, 9, 42, 0
1, 24769, Note_on_c, 3, 77, 0
1, 24769, Note_on_c, 5, 68, 65
1, 24770, Note_on_c, 3, 75, 115
1, 24770, Note_on_c, 6, 80, 79
1, 24773, Note_on_c, 6, 75, 0
1, 24815, Note_on_c, 9, 40, 99
1, 24815, Note_on_c, 9, 38, 56
1, 24815, Note_on_c, 9, 42, 54
1, 24816, Note_on_c, 9, 42, 0
1, 24816, Note_on_c, 9, 40, 0
1, 24816, Note_on_c, 9, 38, 0
1, 24825, Note_on_c, 3, 75, 0
1, 24826, Note_on_c, 3, 72, 102
1, 24844, Note_on_c, 1, 32, 0
1, 24844, Note_on_c, 5, 68, 0
1, 24862, Note_on_c, 3, 72, 0
1, 24863, Note_on_c, 1, 32, 90
1, 24863, Note_on_c, 2, 56, 63
1, 24863, Note_on_c, 2, 65, 80
1, 24863, Note_on_c, 3, 70, 93
1, 24863, Note_on_c, 9, 38, 78
1, 24863, Note_on_c, 9, 40, 121
1, 24864, Note_on_c, 9, 40, 0
1, 24864, Note_on_c, 9, 38, 0
1, 24864, Note_on_c, 2, 60, 80
1, 24864, Note_on_c, 9, 54, 103
1, 24864, Note_on_c, 9, 42, 110
1, 24865, Note_on_c, 9, 42, 0
1, 24866, Note_on_c, 6, 84, 85
1, 24868, Note_on_c, 6, 80, 0
1, 24870, Note_on_c, 9, 54, 0
1, 24887, Note_on_c, 2, 56, 0
1, 24888, Note_on_c, 2, 65, 0
1, 24888, Note_on_c, 2, 60, 0
1, 24898, Note_on_c, 3, 70, 0
1, 24899, Note_on_c, 3, 68, 88
1, 24903, Note_on_c, 1, 32, 0
1, 24911, Note_on_c, 0, 60, 0
1, 24911, Note_on_c, 1, 36, 82
1, 24911, Note_on_c, 2, 65, 61
1, 24912, Note_on_c, 9, 42, 51
1, 24912, Note_on_c, 9, 35, 96
1, 24913, Note_on_c, 9, 35, 0
1, 24913, Note_on_c, 9, 42, 0
1, 24913, Note_on_c, 2, 56, 30
1, 24913, Note_on_c, 2, 60, 60
1, 24914, Note_on_c, 0, 75, 0
1, 24920, Note_on_c, 0, 80, 0
1, 24920, Note_on_c, 0, 72, 0
1, 24925, Note_on_c, 2, 56, 0
1, 24925, Note_on_c, 3, 68, 0
1, 24929, Note_on_c, 2, 60, 0
1, 24929, Note_on_c, 3, 65, 79
1, 24930, Note_on_c, 2, 65, 0
1, 24952, Note_on_c, 1, 36, 0
1, 24958, Note_on_c, 3, 65, 0
1, 24958, Note_on_c, 6, 84, 0
1, 24958, Note_on_c, 0, 77, 89
1, 24958, Note_on_c, 0, 72, 83
1, 24958, Note_on_c, 0, 80, 77
1, 24959, Note_on_c, 1, 37, 93
1, 24959, Note_on_c, 9, 42, 84
1, 24960, Note_on_c, 9, 42, 0
1, 24960, Note_on_c, 9, 35, 104
1, 24961, Note_on_c, 9, 35, 0
1, 24961, Note_on_c, 6, 80, 86
1, 25008, Note_on_c, 5, 65, 77
1, 25008, Note_on_c, 9, 42, 53
1, 25009, Note_on_c, 9, 42, 0
1, 25015, Note_on_c, 3, 72, 115
1, 25034, Note_on_c, 1, 37, 0
1, 25044, Note_on_c, 5, 65, 0
1, 25055, Note_on_c, 1, 37, 93
1, 25055, Note_on_c, 2, 56, 75
1, 25055, Note_on_c, 2, 61, 90
1, 25055, Note_on_c, 2, 65, 90
1, 25055, Note_on_c, 5, 72, 81
1, 25055, Note_on_c, 9, 40, 119
1, 25055, Note_on_c, 9, 38, 76
1, 25056, Note_on_c, 9, 38, 0
1, 25056, Note_on_c, 9, 40, 0
1, 25056, Note_on_c, 9, 54, 100
1, 25056, Note_on_c, 9, 42, 113
1, 25057, Note_on_c, 9, 42, 0
1, 25059, Note_on_c, 3, 72, 0
1, 25060, Note_on_c, 3, 70, 106
1, 25067, Note_on_c, 9, 54, 0
1, 25080, Note_on_c, 2, 65, 0
1, 25081, Note_on_c, 2, 56, 0
1, 25082, Note_on_c, 2, 61, 0
1, 25093, Note_on_c, 5, 72, 0
1, 25103, Note_on_c, 9, 42, 58
1, 25104, Note_on_c, 9, 42, 0
1, 25104, Note_on_c, 2, 61, 65
1, 25104, Note_on_c, 2, 65, 61
1, 25104, Note_on_c, 9, 35, 105
1, 25105, Note_on_c, 9, 35, 0
1, 25105, Note_on_c, 2, 56, 37
1, 25105, Note_on_c, 5, 70, 84
1, 25107, Note_on_c, 3, 70, 0
1, 25108, Note_on_c, 3, 68, 99
1, 25120, Note_on_c, 2, 61, 0
1, 25121, Note_on_c, 2, 56, 0
1, 25123, Note_on_c, 2, 65, 0
1, 25125, Note_on_c, 0, 80, 0
1, 25125, Note_on_c, 0, 72, 0
1, 25125, Note_on_c, 0, 77, 0
1, 25132, Note_on_c, 1, 37, 0
1, 25133, Note_on_c, 0, 84, 0
1, 25150, Note_on_c, 3, 68, 0
1, 25151, Note_on_c, 3, 65, 104
1, 25151, Note_on_c, 6, 78, 74
1, 25151, Note_on_c, 9, 42, 103
1, 25152, Note_on_c, 9, 42, 0
1, 25152, Note_on_c, 6, 80, 0
1, 25152, Note_on_c, 0, 78, 117
1, 25152, Note_on_c, 0, 73, 126
1, 25152, Note_on_c, 1, 37, 93
1, 25153, Note_on_c, 0, 70, 114
1, 25190, Note_on_c, 5, 70, 0
1, 25199, Note_on_c, 5, 68, 75
1, 25199, Note_on_c, 8, 58, 77
1, 25199, Note_on_c, 9, 40, 95
1, 25199, Note_on_c, 9, 38, 52
1, 25199, Note_on_c, 10, 58, 86
1, 25200, Note_on_c, 9, 38, 0
1, 25200, Note_on_c, 9, 40, 0
1, 25200, Note_on_c, 7, 61, 84
1, 25200, Note_on_c, 8, 54, 80
1, 25200, Note_on_c, 9, 42, 52
1, 25200, Note_on_c, 10, 54, 89
1, 25200, Note_on_c, 10, 61, 93
1, 25201, Note_on_c, 9, 42, 0
1, 25201, Note_on_c, 3, 65, 0
1, 25202, Note_on_c, 3, 68, 111
1, 25204, Note_on_c, 0, 70, 0
1, 25205, Note_on_c, 0, 78, 0
1, 25209, Note_on_c, 0, 73, 0
1, 25217, Note_on_c, 7, 61, 0
1, 25217, Note_on_c, 10, 61, 0
1, 25219, Note_on_c, 10, 58, 0
1, 25219, Note_on_c, 8, 58, 0
1, 25221, Note_on_c, 8, 54, 0
1, 25221, Note_on_c, 10, 54, 0
1, 25236, Note_on_c, 5, 68, 0
1, 25246, Note_on_c, 5, 68, 71
1, 25247, Note_on_c, 6, 77, 70
1, 25247, Note_on_c, 9, 38, 76
1, 25247, Note_on_c, 9, 40, 119
1, 25248, Note_on_c, 9, 40, 0
1, 25248, Note_on_c, 3, 68, 0
1, 25248, Note_on_c, 9, 38, 0
1, 25248, Note_on_c, 2, 61, 94
1, 25248, Note_on_c, 9, 42, 104
1, 25248, Note_on_c, 9, 54, 100
1, 25249, Note_on_c, 9, 42, 0
1, 25249, Note_on_c, 2, 65, 82
1, 25249, Note_on_c, 2, 56, 97
1, 25250, Note_on_c, 0, 73, 109
1, 25250, Note_on_c, 0, 77, 110
1, 25250, Note_on_c, 0, 68, 120
1, 25252, Note_on_c, 6, 78, 0
1, 25255, Note_on_c, 3, 68, 115
1, 25259, Note_on_c, 9, 54, 0
1, 25268, Note_on_c, 2, 61, 0
1, 25271, Note_on_c, 1, 37, 0
1, 25272, Note_on_c, 2, 56, 0
1, 25272, Note_on_c, 2, 65, 0
1, 25292, Note_on_c, 5, 68, 0
1, 25295, Note_on_c, 1, 41, 93
1, 25295, Note_on_c, 5, 65, 82
1, 25296, Note_on_c, 2, 61, 57
1, 25296, Note_on_c, 2, 56, 57
1, 25296, Note_on_c, 2, 65, 57
1, 25296, Note_on_c, 9, 35, 96
1, 25296, Note_on_c, 9, 42, 64
1, 25297, Note_on_c, 9, 42, 0
1, 25297, Note_on_c, 9, 35, 0
1, 25305, Note_on_c, 0, 73, 0
1, 25308, Note_on_c, 0, 77, 0
1, 25308, Note_on_c, 0, 68, 0
1, 25316, Note_on_c, 2, 56, 0
1, 25316, Note_on_c, 2, 61, 0
1, 25318, Note_on_c, 2, 65, 0
1, 25331, Note_on_c, 5, 65, 0
1, 25332, Note_on_c, 3, 68, 0
1, 25337, Note_on_c, 1, 41, 0
1, 25342, Note_on_c, 6, 77, 0
1, 25344, Note_on_c, 1, 32, 90
1, 25344, Note_on_c, 5, 68, 65
1, 25344, Note_on_c, 6, 75, 78
1, 25344, Note_on_c, 6, 72, 78
1, 25344, Note_on_c, 7, 68, 91
1, 25344, Note_on_c, 7, 63, 78
1, 25344, Note_on_c, 8, 60, 98
1, 25344, Note_on_c, 8, 56, 84
1, 25344, Note_on_c, 9, 42, 99
1, 25344, Note_on_c, 9, 35, 106
1, 25345, Note_on_c, 9, 35, 0
1, 25345, Note_on_c, 9, 42, 0
1, 25345, Note_on_c, 0, 72, 120
1, 25345, Note_on_c, 0, 68, 126
1, 25346, Note_on_c, 0, 75, 120
1, 25391, Note_on_c, 9, 42, 43
1, 25392, Note_on_c, 9, 42, 0
1, 25419, Note_on_c, 5, 68, 0
1, 25425, Note_on_c, 1, 32, 0
1, 25439, Note_on_c, 9, 38, 76
1, 25439, Note_on_c, 9, 40, 119
1, 25440, Note_on_c, 9, 40, 0
1, 25440, Note_on_c, 9, 38, 0
1, 25440, Note_on_c, 1, 32, 97
1, 25440, Note_on_c, 2, 60, 78
1, 25440, Note_on_c, 2, 56, 58
1, 25440, Note_on_c, 2, 63, 73
1, 25440, Note_on_c, 9, 54, 103
1, 25440, Note_on_c, 9, 42, 110
1, 25441, Note_on_c, 9, 42, 0
1, 25441, Note_on_c, 5, 65, 76
1, 25451, Note_on_c, 9, 54, 0
1, 25465, Note_on_c, 2, 56, 0
1, 25468, Note_on_c, 2, 60, 0
1, 25468, Note_on_c, 2, 63, 0
1, 25486, Note_on_c, 3, 72, 108
1, 25488, Note_on_c, 9, 42, 68
1, 25488, Note_on_c, 9, 35, 105
1, 25489, Note_on_c, 9, 35, 0
1, 25489, Note_on_c, 9, 42, 0
1, 25503, Note_on_c, 5, 65, 0
1, 25515, Note_on_c, 1, 32, 0
1, 25535, Note_on_c, 3, 72, 0
1, 25535, Note_on_c, 9, 42, 93
1, 25536, Note_on_c, 9, 42, 0
1, 25536, Note_on_c, 1, 32, 91
1, 25536, Note_on_c, 3, 77, 115
1, 25537, Note_on_c, 5, 68, 65
1, 25583, Note_on_c, 9, 40, 95
1, 25583, Note_on_c, 9, 42, 54
1, 25583, Note_on_c, 9, 38, 52
1, 25584, Note_on_c, 9, 38, 0
1, 25584, Note_on_c, 9, 42, 0
1, 25584, Note_on_c, 9, 40, 0
1, 25611, Note_on_c, 1, 32, 0
1, 25612, Note_on_c, 5, 68, 0
1, 25631, Note_on_c, 3, 77, 0
1, 25631, Note_on_c, 2, 63, 80
1, 25631, Note_on_c, 2, 56, 63
1, 25631, Note_on_c, 9, 38, 77
1, 25631, Note_on_c, 9, 40, 120
1, 25632, Note_on_c, 9, 40, 0
1, 25632, Note_on_c, 9, 38, 0
1, 25632, Note_on_c, 1, 32, 96
1, 25632, Note_on_c, 2, 60, 80
1, 25632, Note_on_c, 3, 75, 115
1, 25632, Note_on_c, 9, 42, 110
1, 25632, Note_on_c, 9, 54, 100
1, 25633, Note_on_c, 9, 42, 0
1, 25643, Note_on_c, 9, 54, 0
1, 25655, Note_on_c, 2, 56, 0
1, 25656, Note_on_c, 2, 63, 0
1, 25656, Note_on_c, 2, 60, 0
1, 25679, Note_on_c, 3, 75, 0
1, 25679, Note_on_c, 2, 63, 61
1, 25680, Note_on_c, 3, 72, 112
1, 25680, Note_on_c, 9, 35, 96
1, 25680, Note_on_c, 9, 42, 51
1, 25681, Note_on_c, 9, 42, 0
1, 25681, Note_on_c, 9, 35, 0
1, 25681, Note_on_c, 2, 60, 60
1, 25681, Note_on_c, 2, 56, 30
1, 25688, Note_on_c, 0, 72, 0
1, 25693, Note_on_c, 2, 56, 0
1, 25694, Note_on_c, 0, 68, 0
1, 25694, Note_on_c, 0, 75, 0
1, 25697, Note_on_c, 2, 60, 0
1, 25698, Note_on_c, 2, 63, 0
1, 25708, Note_on_c, 1, 32, 0
1, 25715, Note_on_c, 7, 63, 0
1, 25716, Note_on_c, 7, 68, 0
1, 25718, Note_on_c, 8, 56, 0
1, 25722, Note_on_c, 8, 60, 0
1, 25726, Note_on_c, 7, 61, 91
1, 25726, Note_on_c, 8, 54, 81
1, 25726, Note_on_c, 8, 58, 94
1, 25727, Note_on_c, 6, 75, 0
1, 25727, Note_on_c, 3, 72, 0
1, 25727, Note_on_c, 1, 32, 97
1, 25727, Note_on_c, 6, 70, 72
1, 25727, Note_on_c, 6, 73, 74
1, 25727, Note_on_c, 7, 66, 105
1, 25727, Note_on_c, 9, 42, 84
1, 25728, Note_on_c, 9, 42, 0
1, 25728, Note_on_c, 6, 72, 0
1, 25728, Note_on_c, 3, 70, 112
1, 25728, Note_on_c, 9, 35, 106
1, 25729, Note_on_c, 9, 35, 0
1, 25729, Note_on_c, 0, 70, 105
1, 25729, Note_on_c, 0, 66, 114
1, 25729, Note_on_c, 0, 73, 99
1, 25771, Note_on_c, 3, 70, 0
1, 25776, Note_on_c, 3, 72, 115
1, 25776, Note_on_c, 5, 65, 77
1, 25776, Note_on_c, 9, 42, 53
1, 25777, Note_on_c, 9, 42, 0
1, 25800, Note_on_c, 1, 32, 0
1, 25812, Note_on_c, 5, 65, 0
1, 25823, Note_on_c, 3, 72, 0
1, 25823, Note_on_c, 2, 54, 75
1, 25823, Note_on_c, 2, 61, 90
1, 25823, Note_on_c, 2, 58, 90
1, 25823, Note_on_c, 5, 72, 81
1, 25823, Note_on_c, 9, 38, 77
1, 25823, Note_on_c, 9, 40, 120
1, 25824, Note_on_c, 9, 40, 0
1, 25824, Note_on_c, 9, 38, 0
1, 25824, Note_on_c, 1, 32, 89
1, 25824, Note_on_c, 9, 42, 113
1, 25824, Note_on_c, 9, 54, 103
1, 25825, Note_on_c, 9, 42, 0
1, 25826, Note_on_c, 3, 70, 108
1, 25834, Note_on_c, 9, 54, 0
1, 25848, Note_on_c, 2, 61, 0
1, 25849, Note_on_c, 2, 54, 0
1, 25850, Note_on_c, 2, 58, 0
1, 25861, Note_on_c, 5, 72, 0
1, 25869, Note_on_c, 3, 70, 0
1, 25871, Note_on_c, 9, 42, 58
1, 25872, Note_on_c, 9, 42, 0
1, 25872, Note_on_c, 2, 61, 61
1, 25872, Note_on_c, 9, 35, 104
1, 25873, Note_on_c, 9, 35, 0
1, 25873, Note_on_c, 2, 54, 37
1, 25873, Note_on_c, 2, 58, 65
1, 25873, Note_on_c, 3, 70, 95
1, 25873, Note_on_c, 5, 70, 84
1, 25883, Note_on_c, 0, 70, 0
1, 25883, Note_on_c, 0, 66, 0
1, 25887, Note_on_c, 0, 73, 0
1, 25889, Note_on_c, 2, 58, 0
1, 25889, Note_on_c, 2, 54, 0
1, 25891, Note_on_c, 2, 61, 0
1, 25903, Note_on_c, 1, 32, 0
1, 25909, Note_on_c, 7, 66, 0
1, 25909, Note_on_c, 7, 61, 0
1, 25911, Note_on_c, 8, 54, 0
1, 25915, Note_on_c, 3, 70, 0
1, 25917, Note_on_c, 6, 70, 0
1, 25918, Note_on_c, 8, 56, 75
1, 25919, Note_on_c, 6, 75, 83
1, 25919, Note_on_c, 6, 72, 75
1, 25919, Note_on_c, 9, 42, 103
1, 25920, Note_on_c, 9, 42, 0
1, 25920, Note_on_c, 8, 58, 0
1, 25920, Note_on_c, 6, 73, 0
1, 25920, Note_on_c, 1, 32, 95
1, 25920, Note_on_c, 3, 65, 109
1, 25920, Note_on_c, 8, 60, 98
1, 25921, Note_on_c, 0, 72, 122
1, 25921, Note_on_c, 0, 68, 120
1, 25921, Note_on_c, 0, 75, 118
1, 25921, Note_on_c, 7, 68, 103
1, 25921, Note_on_c, 7, 63, 90
1, 25958, Note_on_c, 5, 70, 0
1, 25961, Note_on_c, 3, 65, 0
1, 25967, Note_on_c, 5, 68, 75
1, 25967, Note_on_c, 9, 40, 97
1, 25967, Note_on_c, 9, 38, 54
1, 25968, Note_on_c, 9, 38, 0
1, 25968, Note_on_c, 9, 40, 0
1, 25968, Note_on_c, 3, 68, 98
1, 25968, Note_on_c, 9, 42, 52
1, 25969, Note_on_c, 9, 42, 0
1, 25970, Note_on_c, 2, 54, 52
1, 25970, Note_on_c, 2, 61, 52
1, 25970, Note_on_c, 2, 58, 52
1, 25977, Note_on_c, 0, 72, 0
1, 25983, Note_on_c, 2, 54, 0
1, 25983, Note_on_c, 0, 68, 0
1, 25983, Note_on_c, 0, 75, 0
1, 25983, Note_on_c, 2, 58, 0
1, 25983, Note_on_c, 2, 61, 0
1, 26004, Note_on_c, 1, 32, 0
1, 26004, Note_on_c, 5, 68, 0
1, 26006, Note_on_c, 7, 63, 0
1, 26007, Note_on_c, 7, 68, 0
1, 26012, Note_on_c, 3, 68, 0
1, 26014, Note_on_c, 5, 68, 71
1, 26015, Note_on_c, 8, 54, 81
1, 26015, Note_on_c, 9, 40, 119
1, 26015, Note_on_c, 9, 38, 76
1, 26016, Note_on_c, 9, 38, 0
1, 26016, Note_on_c, 9, 40, 0
1, 26016, Note_on_c, 8, 60, 0
1, 26016, Note_on_c, 1, 32, 96
1, 26016, Note_on_c, 3, 68, 112
1, 26016, Note_on_c, 9, 54, 103
1, 26016, Note_on_c, 9, 42, 104
1, 26017, Note_on_c, 9, 42, 0
1, 26017, Note_on_c, 0, 70, 114
1, 26017, Note_on_c, 0, 73, 103
1, 26017, Note_on_c, 0, 66, 120
1, 26017, Note_on_c, 2, 54, 82
1, 26017, Note_on_c, 2, 58, 97
1, 26017, Note_on_c, 2, 61, 94
1, 26017, Note_on_c, 6, 70, 74
1, 26017, Note_on_c, 6, 73, 77
1, 26017, Note_on_c, 7, 61, 83
1, 26017, Note_on_c, 7, 66, 109
1, 26017, Note_on_c, 8, 58, 99
1, 26018, Note_on_c, 6, 72, 0
1, 26018, Note_on_c, 6, 75, 0
1, 26019, Note_on_c, 8, 56, 0
1, 26027, Note_on_c, 9, 54, 0
1, 26037, Note_on_c, 2, 61, 0
1, 26038, Note_on_c, 2, 58, 0
1, 26040, Note_on_c, 2, 54, 0
1, 26060, Note_on_c, 5, 68, 0
1, 26063, Note_on_c, 5, 66, 82
1, 26064, Note_on_c, 2, 54, 57
1, 26064, Note_on_c, 2, 61, 57
1, 26064, Note_on_c, 9, 35, 96
1, 26064, Note_on_c, 9, 42, 64
1, 26065, Note_on_c, 9, 42, 0
1, 26065, Note_on_c, 9, 35, 0
1, 26065, Note_on_c, 2, 58, 57
1, 26075, Note_on_c, 0, 66, 0
1, 26077, Note_on_c, 0, 70, 0
1, 26080, Note_on_c, 0, 73, 0
1, 26084, Note_on_c, 2, 54, 0
1, 26085, Note_on_c, 2, 58, 0
1, 26086, Note_on_c, 2, 61, 0
1, 26090, Note_on_c, 1, 32, 0
1, 26099, Note_on_c, 5, 66, 0
1, 26102, Note_on_c, 7, 61, 0
1, 26102, Note_on_c, 7, 66, 0
1, 26104, Note_on_c, 3, 68, 0
1, 26105, Note_on_c, 8, 58, 0
1, 26106, Note_on_c, 8, 54, 0
1, 26110, Note_on_c, 6, 70, 0
1, 26111, Note_on_c, 0, 68, 117
1, 26111, Note_on_c, 0, 75, 122
1, 26111, Note_on_c, 0, 72, 118
1, 26111, Note_on_c, 1, 32, 94
1, 26111, Note_on_c, 6, 75, 83
1, 26111, Note_on_c, 6, 72, 74
1, 26111, Note_on_c, 8, 56, 80
1, 26111, Note_on_c, 8, 60, 101
1, 26112, Note_on_c, 5, 68, 65
1, 26112, Note_on_c, 9, 42, 99
1, 26112, Note_on_c, 9, 35, 106
1, 26113, Note_on_c, 9, 35, 0
1, 26113, Note_on_c, 9, 42, 0
1, 26114, Note_on_c, 6, 73, 0
1, 26114, Note_on_c, 7, 63, 88
1, 26114, Note_on_c, 7, 68, 97
1, 26159, Note_on_c, 9, 42, 43
1, 26160, Note_on_c, 9, 42, 0
1, 26187, Note_on_c, 5, 68, 0
1, 26187, Note_on_c, 1, 32, 0
1, 26207, Note_on_c, 9, 38, 76
1, 26207, Note_on_c, 9, 40, 119
1, 26208, Note_on_c, 9, 40, 0
1, 26208, Note_on_c, 9, 38, 0
1, 26208, Note_on_c, 1, 32, 96
1, 26208, Note_on_c, 2, 60, 78
1, 26208, Note_on_c, 2, 56, 58
1, 26208, Note_on_c, 2, 63, 73
1, 26208, Note_on_c, 9, 42, 110
1, 26208, Note_on_c, 9, 54, 100
1, 26209, Note_on_c, 9, 42, 0
1, 26209, Note_on_c, 5, 65, 76
1, 26218, Note_on_c, 9, 54, 0
1, 26233, Note_on_c, 2, 56, 0
1, 26236, Note_on_c, 2, 60, 0
1, 26236, Note_on_c, 2, 63, 0
1, 26249, Note_on_c, 3, 72, 115
1, 26256, Note_on_c, 9, 42, 68
1, 26256, Note_on_c, 9, 35, 104
1, 26257, Note_on_c, 9, 35, 0
1, 26257, Note_on_c, 9, 42, 0
1, 26271, Note_on_c, 5, 65, 0
1, 26289, Note_on_c, 1, 32, 0
1, 26301, Note_on_c, 3, 72, 0
1, 26303, Note_on_c, 3, 77, 115
1, 26303, Note_on_c, 9, 42, 93
1, 26304, Note_on_c, 9, 42, 0
1, 26304, Note_on_c, 1, 32, 96
1, 26305, Note_on_c, 5, 68, 65
1, 26351, Note_on_c, 9, 40, 95
1, 26351, Note_on_c, 9, 38, 52
1, 26351, Note_on_c, 9, 42, 54
1, 26352, Note_on_c, 9, 42, 0
1, 26352, Note_on_c, 9, 38, 0
1, 26352, Note_on_c, 9, 40, 0
1, 26380, Note_on_c, 5, 68, 0
1, 26383, Note_on_c, 1, 32, 0
1, 26398, Note_on_c, 3, 77, 0
1, 26399, Note_on_c, 2, 56, 63
1, 26399, Note_on_c, 2, 63, 80
1, 26399, Note_on_c, 3, 75, 115
1, 26399, Note_on_c, 9, 40, 119
1, 26399, Note_on_c, 9, 38, 76
1, 26400, Note_on_c, 9, 38, 0
1, 26400, Note_on_c, 9, 40, 0
1, 26400, Note_on_c, 1, 32, 91
1, 26400, Note_on_c, 2, 60, 80
1, 26400, Note_on_c, 9, 54, 97
1, 26400, Note_on_c, 9, 42, 110
1, 26401, Note_on_c, 9, 42, 0
1, 26410, Note_on_c, 9, 54, 0
1, 26423, Note_on_c, 2, 56, 0
1, 26424, Note_on_c, 2, 63, 0
1, 26424, Note_on_c, 2, 60, 0
1, 26447, Note_on_c, 2, 63, 61
1, 26448, Note_on_c, 9, 42, 51
1, 26448, Note_on_c, 9, 35, 96
1, 26449, Note_on_c, 9, 35, 0
1, 26449, Note_on_c, 9, 42, 0
1, 26449, Note_on_c, 2, 60, 60
1, 26449, Note_on_c, 2, 56, 30
1, 26452, Note_on_c, 3, 75, 0
1, 26453, Note_on_c, 3, 72, 104
1, 26458, Note_on_c, 0, 72, 0
1, 26461, Note_on_c, 2, 56, 0
1, 26465, Note_on_c, 0, 68, 0
1, 26465, Note_on_c, 2, 60, 0
1, 26466, Note_on_c, 2, 63, 0
1, 26467, Note_on_c, 0, 75, 0
1, 26475, Note_on_c, 1, 32, 0
1, 26484, Note_on_c, 7, 63, 0
1, 26487, Note_on_c, 8, 56, 0
1, 26488, Note_on_c, 7, 68, 0
1, 26494, Note_on_c, 8, 60, 0
1, 26495, Note_on_c, 3, 72, 0
1, 26495, Note_on_c, 0, 70, 112
1, 26495, Note_on_c, 0, 73, 99
1, 26495, Note_on_c, 0, 66, 114
1, 26495, Note_on_c, 1, 32, 93
1, 26495, Note_on_c, 6, 73, 72
1, 26495, Note_on_c, 6, 70, 77
1, 26495, Note_on_c, 8, 54, 89
1, 26495, Note_on_c, 8, 58, 94
1, 26495, Note_on_c, 9, 42, 84
1, 26496, Note_on_c, 9, 42, 0
1, 26496, Note_on_c, 9, 35, 105
1, 26497, Note_on_c, 9, 35, 0
1, 26497, Note_on_c, 7, 66, 109
1, 26497, Note_on_c, 7, 61, 89
1, 26498, Note_on_c, 6, 72, 0
1, 26498, Note_on_c, 6, 75, 0
1, 26502, Note_on_c, 3, 70, 112
1, 26544, Note_on_c, 5, 65, 77
1, 26544, Note_on_c, 9, 42, 53
1, 26545, Note_on_c, 9, 42, 0
1, 26549, Note_on_c, 3, 70, 0
1, 26551, Note_on_c, 3, 68, 108
1, 26566, Note_on_c, 1, 32, 0
1, 26580, Note_on_c, 5, 65, 0
1, 26591, Note_on_c, 2, 61, 90
1, 26591, Note_on_c, 2, 54, 75
1, 26591, Note_on_c, 2, 58, 90
1, 26591, Note_on_c, 5, 72, 81
1, 26591, Note_on_c, 9, 40, 119
1, 26591, Note_on_c, 9, 38, 76
1, 26592, Note_on_c, 9, 38, 0
1, 26592, Note_on_c, 9, 40, 0
1, 26592, Note_on_c, 1, 32, 96
1, 26592, Note_on_c, 9, 54, 97
1, 26592, Note_on_c, 9, 42, 113
1, 26593, Note_on_c, 9, 42, 0
1, 26603, Note_on_c, 9, 54, 0
1, 26616, Note_on_c, 2, 61, 0
1, 26617, Note_on_c, 2, 54, 0
1, 26618, Note_on_c, 2, 58, 0
1, 26629, Note_on_c, 5, 72, 0
1, 26632, Note_on_c, 3, 68, 0
1, 26639, Note_on_c, 9, 42, 58
1, 26640, Note_on_c, 9, 42, 0
1, 26640, Note_on_c, 2, 61, 61
1, 26640, Note_on_c, 9, 35, 104
1, 26641, Note_on_c, 9, 35, 0
1, 26641, Note_on_c, 2, 54, 37
1, 26641, Note_on_c, 2, 58, 65
1, 26641, Note_on_c, 5, 70, 84
1, 26643, Note_on_c, 3, 68, 97
1, 26656, Note_on_c, 0, 66, 0
1, 26657, Note_on_c, 2, 58, 0
1, 26657, Note_on_c, 2, 54, 0
1, 26658, Note_on_c, 0, 70, 0
1, 26659, Note_on_c, 2, 61, 0
1, 26660, Note_on_c, 0, 73, 0
1, 26672, Note_on_c, 7, 66, 0
1, 26674, Note_on_c, 7, 61, 0
1, 26674, Note_on_c, 3, 68, 0
1, 26676, Note_on_c, 1, 32, 0
1, 26678, Note_on_c, 8, 54, 0
1, 26683, Note_on_c, 6, 70, 0
1, 26686, Note_on_c, 6, 73, 0
1, 26686, Note_on_c, 6, 72, 77
1, 26686, Note_on_c, 6, 75, 87
1, 26686, Note_on_c, 8, 56, 72
1, 26687, Note_on_c, 8, 58, 0
1, 26687, Note_on_c, 7, 63, 93
1, 26687, Note_on_c, 7, 68, 107
1, 26687, Note_on_c, 8, 60, 102
1, 26687, Note_on_c, 9, 42, 103
1, 26688, Note_on_c, 9, 42, 0
1, 26688, Note_on_c, 1, 32, 94
1, 26689, Note_on_c, 0, 75, 114
1, 26689, Note_on_c, 0, 68, 114
1, 26689, Note_on_c, 0, 72, 116
1, 26692, Note_on_c, 3, 72, 108
1, 26726, Note_on_c, 5, 70, 0
1, 26728, Note_on_c, 3, 72, 0
1, 26735, Note_on_c, 5, 68, 75
1, 26735, Note_on_c, 9, 40, 96
1, 26735, Note_on_c, 9, 38, 53
1, 26736, Note_on_c, 9, 38, 0
1, 26736, Note_on_c, 9, 40, 0
1, 26736, Note_on_c, 9, 42, 52
1, 26737, Note_on_c, 9, 42, 0
1, 26738, Note_on_c, 2, 58, 52
1, 26738, Note_on_c, 2, 54, 52
1, 26738, Note_on_c, 2, 61, 52
1, 26738, Note_on_c, 3, 72, 102
1, 26743, Note_on_c, 0, 72, 0
1, 26750, Note_on_c, 0, 68, 0
1, 26751, Note_on_c, 2, 61, 0
1, 26751, Note_on_c, 2, 58, 0
1, 26751, Note_on_c, 2, 54, 0
1, 26752, Note_on_c, 0, 75, 0
1, 26769, Note_on_c, 1, 32, 0
1, 26772, Note_on_c, 5, 68, 0
1, 26774, Note_on_c, 7, 68, 0
1, 26775, Note_on_c, 7, 63, 0
1, 26781, Note_on_c, 8, 60, 0
1, 26782, Note_on_c, 5, 68, 71
1, 26783, Note_on_c, 6, 72, 0
1, 26783, Note_on_c, 6, 70, 70
1, 26783, Note_on_c, 6, 73, 76
1, 26783, Note_on_c, 7, 61, 77
1, 26783, Note_on_c, 8, 58, 94
1, 26783, Note_on_c, 8, 54, 86
1, 26783, Note_on_c, 9, 40, 119
1, 26783, Note_on_c, 9, 38, 76
1, 26784, Note_on_c, 9, 38, 0
1, 26784, Note_on_c, 9, 40, 0
1, 26784, Note_on_c, 6, 75, 0
1, 26784, Note_on_c, 8, 56, 0
1, 26784, Note_on_c, 1, 32, 98
1, 26784, Note_on_c, 7, 66, 109
1, 26784, Note_on_c, 9, 42, 104
1, 26784, Note_on_c, 9, 54, 97
1, 26785, Note_on_c, 9, 42, 0
1, 26785, Note_on_c, 0, 70, 110
1, 26785, Note_on_c, 0, 73, 103
1, 26785, Note_on_c, 0, 66, 114
1, 26785, Note_on_c, 2, 61, 94
1, 26785, Note_on_c, 2, 54, 82
1, 26785, Note_on_c, 2, 58, 97
1, 26799, Note_on_c, 9, 54, 0
1, 26805, Note_on_c, 2, 61, 0
1, 26806, Note_on_c, 2, 58, 0
1, 26808, Note_on_c, 2, 54, 0
1, 26828, Note_on_c, 5, 68, 0
1, 26831, Note_on_c, 5, 66, 82
1, 26832, Note_on_c, 2, 61, 57
1, 26832, Note_on_c, 2, 54, 57
1, 26832, Note_on_c, 9, 42, 64
1, 26832, Note_on_c, 9, 35, 96
1, 26833, Note_on_c, 9, 35, 0
1, 26833, Note_on_c, 9, 42, 0
1, 26833, Note_on_c, 2, 58, 57
1, 26847, Note_on_c, 0, 66, 0
1, 26849, Note_on_c, 0, 70, 0
1, 26852, Note_on_c, 2, 54, 0
1, 26853, Note_on_c, 0, 73, 0
1, 26853, Note_on_c, 2, 58, 0
1, 26854, Note_on_c, 2, 61, 0
1, 26859, Note_on_c, 1, 32, 0
1, 26867, Note_on_c, 5, 66, 0
1, 26868, Note_on_c, 7, 66, 0
1, 26868, Note_on_c, 7, 61, 0
1, 26873, Note_on_c, 8, 54, 0
1, 26873, Note_on_c, 8, 58, 0
1, 26877, Note_on_c, 6, 75, 86
1, 26878, Note_on_c, 6, 70, 0
1, 26878, Note_on_c, 6, 72, 77
1, 26879, Note_on_c, 6, 73, 0
1, 26879, Note_on_c, 0, 68, 117
1, 26879, Note_on_c, 0, 72, 124
1, 26879, Note_on_c, 1, 32, 97
1, 26879, Note_on_c, 7, 68, 103
1, 26879, Note_on_c, 8, 60, 102
1, 26879, Note_on_c, 8, 56, 82
1, 26880, Note_on_c, 5, 68, 65
1, 26880, Note_on_c, 7, 63, 87
1, 26880, Note_on_c, 9, 42, 99
1, 26880, Note_on_c, 9, 35, 106
1, 26881, Note_on_c, 9, 35, 0
1, 26881, Note_on_c, 9, 42, 0
1, 26881, Note_on_c, 0, 75, 116
1, 26883, Note_on_c, 3, 72, 0
1, 26927, Note_on_c, 9, 42, 43
1, 26928, Note_on_c, 9, 42, 0
1, 26953, Note_on_c, 1, 32, 0
1, 26955, Note_on_c, 5, 68, 0
1, 26975, Note_on_c, 9, 38, 77
1, 26975, Note_on_c, 9, 40, 120
1, 26976, Note_on_c, 9, 40, 0
1, 26976, Note_on_c, 9, 38, 0
1, 26976, Note_on_c, 1, 32, 97
1, 26976, Note_on_c, 2, 60, 78
1, 26976, Note_on_c, 2, 63, 73
1, 26976, Note_on_c, 2, 56, 58
1, 26976, Note_on_c, 9, 42, 110
1, 26976, Note_on_c, 9, 54, 103
1, 26977, Note_on_c, 9, 42, 0
1, 26977, Note_on_c, 5, 65, 76
1, 26988, Note_on_c, 9, 54, 0
1, 27001, Note_on_c, 2, 56, 0
1, 27004, Note_on_c, 2, 60, 0
1, 27004, Note_on_c, 2, 63, 0
1, 27024, Note_on_c, 3, 72, 115
1, 27024, Note_on_c, 9, 35, 104
1, 27024, Note_on_c, 9, 42, 68
1, 27025, Note_on_c, 9, 42, 0
1, 27025, Note_on_c, 9, 35, 0
1, 27039, Note_on_c, 5, 65, 0
1, 27051, Note_on_c, 1, 32, 0
1, 27071, Note_on_c, 9, 42, 93
1, 27072, Note_on_c, 9, 42, 0
1, 27072, Note_on_c, 1, 32, 91
1, 27073, Note_on_c, 5, 68, 65
1, 27118, Note_on_c, 3, 72, 0
1, 27119, Note_on_c, 9, 42, 54
1, 27119, Note_on_c, 9, 38, 53
1, 27119, Note_on_c, 9, 40, 96
1, 27120, Note_on_c, 9, 40, 0
1, 27120, Note_on_c, 9, 38, 0
1, 27120, Note_on_c, 9, 42, 0
1, 27120, Note_on_c, 3, 75, 115
1, 27147, Note_on_c, 1, 32, 0
1, 27148, Note_on_c, 5, 68, 0
1, 27167, Note_on_c, 3, 75, 0
1, 27167, Note_on_c, 2, 56, 63
1, 27167, Note_on_c, 2, 63, 80
1, 27167, Note_on_c, 9, 40, 119
1, 27167, Note_on_c, 9, 38, 76
1, 27168, Note_on_c, 9, 38, 0
1, 27168, Note_on_c, 9, 40, 0
1, 27168, Note_on_c, 1, 32, 96
1, 27168, Note_on_c, 2, 60, 80
1, 27168, Note_on_c, 3, 77, 115
1, 27168, Note_on_c, 9, 42, 110
1, 27168, Note_on_c, 9, 54, 103
1, 27169, Note_on_c, 9, 42, 0
1, 27174, Note_on_c, 9, 54, 0
1, 27191, Note_on_c, 2, 56, 0
1, 27192, Note_on_c, 2, 63, 0
1, 27192, Note_on_c, 2, 60, 0
1, 27200, Note_on_c, 0, 68, 0
1, 27201, Note_on_c, 0, 75, 0
1, 27202, Note_on_c, 0, 72, 0
1, 27215, Note_on_c, 2, 63, 61
1, 27216, Note_on_c, 9, 42, 51
1, 27216, Note_on_c, 9, 35, 96
1, 27217, Note_on_c, 9, 35, 0
1, 27217, Note_on_c, 9, 42, 0
1, 27217, Note_on_c, 2, 56, 30
1, 27217, Note_on_c, 2, 60, 60
1, 27229, Note_on_c, 2, 56, 0
1, 27233, Note_on_c, 2, 60, 0
1, 27234, Note_on_c, 2, 63, 0
1, 27244, Note_on_c, 1, 32, 0
1, 27247, Note_on_c, 8, 56, 0
1, 27249, Note_on_c, 7, 68, 0
1, 27252, Note_on_c, 7, 63, 0
1, 27262, Note_on_c, 6, 68, 69
1, 27262, Note_on_c, 8, 56, 85
1, 27262, Note_on_c, 8, 53, 85
1, 27263, Note_on_c, 6, 75, 0
1, 27263, Note_on_c, 8, 60, 0
1, 27263, Note_on_c, 0, 77, 105
1, 27263, Note_on_c, 0, 72, 114
1, 27263, Note_on_c, 0, 68, 114
1, 27263, Note_on_c, 0, 65, 120
1, 27263, Note_on_c, 1, 37, 97
1, 27263, Note_on_c, 7, 65, 112
1, 27263, Note_on_c, 9, 42, 84
1, 27264, Note_on_c, 9, 42, 0
1, 27264, Note_on_c, 6, 65, 72
1, 27264, Note_on_c, 9, 35, 106
1, 27265, Note_on_c, 9, 35, 0
1, 27267, Note_on_c, 6, 72, 0
1, 27311, Note_on_c, 3, 77, 0
1, 27312, Note_on_c, 5, 65, 77
1, 27312, Note_on_c, 9, 42, 53
1, 27313, Note_on_c, 9, 42, 0
1, 27315, Note_on_c, 3, 72, 112
1, 27336, Note_on_c, 1, 37, 0
1, 27348, Note_on_c, 5, 65, 0
1, 27359, Note_on_c, 2, 65, 90
1, 27359, Note_on_c, 2, 60, 90
1, 27359, Note_on_c, 2, 56, 75
1, 27359, Note_on_c, 5, 72, 81
1, 27359, Note_on_c, 9, 40, 120
1, 27359, Note_on_c, 9, 38, 77
1, 27360, Note_on_c, 9, 38, 0
1, 27360, Note_on_c, 9, 40, 0
1, 27360, Note_on_c, 3, 72, 0
1, 27360, Note_on_c, 1, 37, 96
1, 27360, Note_on_c, 9, 42, 113
1, 27360, Note_on_c, 9, 54, 100
1, 27361, Note_on_c, 9, 42, 0
1, 27366, Note_on_c, 3, 70, 102
1, 27371, Note_on_c, 9, 54, 0
1, 27384, Note_on_c, 2, 65, 0
1, 27385, Note_on_c, 2, 56, 0
1, 27386, Note_on_c, 2, 60, 0
1, 27397, Note_on_c, 5, 72, 0
1, 27400, Note_on_c, 3, 70, 0
1, 27407, Note_on_c, 9, 42, 58
1, 27408, Note_on_c, 9, 42, 0
1, 27408, Note_on_c, 2, 65, 61
1, 27408, Note_on_c, 3, 70, 106
1, 27408, Note_on_c, 9, 35, 104
1, 27409, Note_on_c, 9, 35, 0
1, 27409, Note_on_c, 2, 60, 65
1, 27409, Note_on_c, 2, 56, 37
1, 27409, Note_on_c, 5, 70, 84
1, 27425, Note_on_c, 2, 56, 0
1, 27425, Note_on_c, 2, 60, 0
1, 27427, Note_on_c, 2, 65, 0
1, 27430, Note_on_c, 0, 68, 0
1, 27430, Note_on_c, 0, 65, 0
1, 27430, Note_on_c, 0, 77, 0
1, 27430, Note_on_c, 0, 72, 0
1, 27439, Note_on_c, 1, 37, 0
1, 27442, Note_on_c, 8, 56, 0
1, 27452, Note_on_c, 8, 53, 0
1, 27453, Note_on_c, 6, 68, 0
1, 27455, Note_on_c, 0, 73, 103
1, 27455, Note_on_c, 0, 70, 104
1, 27455, Note_on_c, 0, 77, 105
1, 27455, Note_on_c, 0, 82, 105
1, 27455, Note_on_c, 8, 58, 79
1, 27455, Note_on_c, 8, 61, 91
1, 27455, Note_on_c, 9, 42, 103
1, 27456, Note_on_c, 9, 42, 0
1, 27456, Note_on_c, 1, 37, 92
1, 27456, Note_on_c, 6, 70, 69
1, 27458, Note_on_c, 6, 73, 71
1, 27464, Note_on_c, 3, 70, 0
1, 27465, Note_on_c, 3, 68, 85
1, 27494, Note_on_c, 5, 70, 0
1, 27503, Note_on_c, 5, 68, 75
1, 27503, Note_on_c, 9, 40, 95
1, 27503, Note_on_c, 9, 38, 52
1, 27504, Note_on_c, 9, 38, 0
1, 27504, Note_on_c, 9, 40, 0
1, 27504, Note_on_c, 9, 42, 52
1, 27505, Note_on_c, 9, 42, 0
1, 27506, Note_on_c, 2, 65, 52
1, 27506, Note_on_c, 2, 56, 52
1, 27506, Note_on_c, 2, 60, 52
1, 27519, Note_on_c, 2, 60, 0
1, 27519, Note_on_c, 2, 56, 0
1, 27519, Note_on_c, 2, 65, 0
1, 27530, Note_on_c, 3, 68, 0
1, 27540, Note_on_c, 1, 37, 0
1, 27540, Note_on_c, 5, 68, 0
1, 27550, Note_on_c, 5, 68, 71
1, 27551, Note_on_c, 9, 38, 76
1, 27551, Note_on_c, 9, 40, 119
1, 27552, Note_on_c, 9, 40, 0
1, 27552, Note_on_c, 9, 38, 0
1, 27552, Note_on_c, 1, 34, 96
1, 27552, Note_on_c, 9, 54, 100
1, 27552, Note_on_c, 9, 42, 104
1, 27553, Note_on_c, 9, 42, 0
1, 27553, Note_on_c, 2, 56, 82
1, 27553, Note_on_c, 2, 65, 94
1, 27553, Note_on_c, 2, 60, 97
1, 27563, Note_on_c, 9, 54, 0
1, 27573, Note_on_c, 2, 65, 0
1, 27574, Note_on_c, 2, 60, 0
1, 27576, Note_on_c, 2, 56, 0
1, 27592, Note_on_c, 1, 34, 0
1, 27596, Note_on_c, 5, 68, 0
1, 27599, Note_on_c, 5, 65, 82
1, 27600, Note_on_c, 1, 41, 96
1, 27600, Note_on_c, 2, 56, 57
1, 27600, Note_on_c, 2, 65, 57
1, 27600, Note_on_c, 9, 35, 96
1, 27600, Note_on_c, 9, 42, 64
1, 27601, Note_on_c, 9, 42, 0
1, 27601, Note_on_c, 9, 35, 0
1, 27601, Note_on_c, 2, 60, 57
1, 27620, Note_on_c, 2, 56, 0
1, 27621, Note_on_c, 2, 60, 0
1, 27622, Note_on_c, 2, 65, 0
1, 27628, Note_on_c, 8, 58, 0
1, 27631, Note_on_c, 8, 61, 0
1, 27633, Note_on_c, 7, 65, 0
1, 27635, Note_on_c, 5, 65, 0
1, 27640, Note_on_c, 1, 41, 0
1, 27641, Note_on_c, 6, 65, 0
1, 27647, Note_on_c, 6, 70, 0
1, 27647, Note_on_c, 0, 70, 0
1, 27648, Note_on_c, 0, 70, 83
1, 27648, Note_on_c, 1, 42, 96
1, 27648, Note_on_c, 6, 66, 68
1, 27648, Note_on_c, 6, 61, 68
1, 27648, Note_on_c, 9, 35, 106
1, 27648, Note_on_c, 9, 42, 99
1, 27649, Note_on_c, 9, 42, 0
1, 27649, Note_on_c, 9, 35, 0
1, 27649, Note_on_c, 6, 73, 0
1, 27649, Note_on_c, 6, 58, 61
1, 27650, Note_on_c, 7, 61, 92
1, 27650, Note_on_c, 8, 54, 82
1, 27650, Note_on_c, 8, 58, 87
1, 27651, Note_on_c, 0, 73, 0
1, 27652, Note_on_c, 0, 77, 0
1, 27652, Note_on_c, 0, 73, 89
1, 27654, Note_on_c, 0, 78, 101
1, 27655, Note_on_c, 0, 82, 0
1, 27695, Note_on_c, 9, 42, 43
1, 27696, Note_on_c, 9, 42, 0
1, 27743, Note_on_c, 3, 73, 115
1, 27743, Note_on_c, 9, 38, 77
1, 27743, Note_on_c, 9, 40, 120
1, 27744, Note_on_c, 9, 40, 0
1, 27744, Note_on_c, 9, 38, 0
1, 27744, Note_on_c, 4, 58, 70
1, 27744, Note_on_c, 4, 54, 74
1, 27744, Note_on_c, 4, 73, 79
1, 27744, Note_on_c, 4, 66, 72
1, 27744, Note_on_c, 9, 54, 103
1, 27744, Note_on_c, 9, 42, 110
1, 27745, Note_on_c, 9, 42, 0
1, 27755, Note_on_c, 9, 54, 0
1, 27767, Note_on_c, 1, 42, 0
1, 27792, Note_on_c, 1, 42, 89
1, 27792, Note_on_c, 9, 42, 68
1, 27792, Note_on_c, 9, 35, 105
1, 27793, Note_on_c, 9, 35, 0
1, 27793, Note_on_c, 9, 42, 0
1, 27838, Note_on_c, 6, 82, 77
1, 27839, Note_on_c, 9, 42, 93
1, 27840, Note_on_c, 9, 42, 0
1, 27883, Note_on_c, 3, 73, 0
1, 27885, Note_on_c, 6, 82, 0
1, 27886, Note_on_c, 6, 82, 77
1, 27887, Note_on_c, 4, 54, 0
1, 27887, Note_on_c, 4, 66, 0
1, 27887, Note_on_c, 4, 58, 0
1, 27887, Note_on_c, 4, 73, 0
1, 27887, Note_on_c, 9, 42, 54
1, 27887, Note_on_c, 9, 38, 53
1, 27887, Note_on_c, 9, 40, 96
1, 27888, Note_on_c, 9, 40, 0
1, 27888, Note_on_c, 9, 38, 0
1, 27888, Note_on_c, 9, 42, 0
1, 27888, Note_on_c, 4, 66, 72
1, 27888, Note_on_c, 4, 58, 75
1, 27888, Note_on_c, 4, 54, 74
1, 27888, Note_on_c, 4, 73, 81
1, 27889, Note_on_c, 3, 73, 115
1, 27934, Note_on_c, 3, 73, 0
1, 27934, Note_on_c, 6, 78, 79
1, 27935, Note_on_c, 4, 73, 0
1, 27935, Note_on_c, 4, 54, 0
1, 27935, Note_on_c, 4, 58, 0
1, 27935, Note_on_c, 4, 66, 0
1, 27935, Note_on_c, 3, 73, 115
1, 27935, Note_on_c, 9, 38, 76
1, 27935, Note_on_c, 9, 40, 119
1, 27936, Note_on_c, 9, 40, 0
1, 27936, Note_on_c, 9, 38, 0
1, 27936, Note_on_c, 4, 58, 63
1, 27936, Note_on_c, 4, 66, 58
1, 27936, Note_on_c, 4, 54, 58
1, 27936, Note_on_c, 4, 73, 77
1, 27936, Note_on_c, 9, 42, 110
1, 27936, Note_on_c, 9, 54, 100
1, 27937, Note_on_c, 9, 42, 0
1, 27939, Note_on_c, 6, 82, 0
1, 27947, Note_on_c, 9, 54, 0
1, 27959, Note_on_c, 1, 42, 0
1, 27981, Note_on_c, 6, 78, 0
1, 27981, Note_on_c, 3, 73, 0
1, 27981, Note_on_c, 6, 77, 78
1, 27983, Note_on_c, 4, 54, 0
1, 27983, Note_on_c, 4, 73, 0
1, 27983, Note_on_c, 4, 58, 0
1, 27983, Note_on_c, 4, 66, 0
1, 27983, Note_on_c, 1, 41, 84
1, 27983, Note_on_c, 3, 77, 115
1, 27984, Note_on_c, 4, 77, 74
1, 27984, Note_on_c, 4, 61, 71
1, 27984, Note_on_c, 4, 70, 63
1, 27984, Note_on_c, 4, 58, 73
1, 27984, Note_on_c, 9, 42, 51
1, 27984, Note_on_c, 9, 35, 96
1, 27985, Note_on_c, 9, 35, 0
1, 27985, Note_on_c, 9, 42, 0
1, 27985, Note_on_c, 0, 73, 0
1, 27986, Note_on_c, 0, 78, 0
1, 27988, Note_on_c, 0, 70, 0
1, 28020, Note_on_c, 1, 41, 0
1, 28025, Note_on_c, 0, 66, 88
1, 28029, Note_on_c, 6, 77, 0
1, 28030, Note_on_c, 6, 75, 80
1, 28031, Note_on_c, 0, 75, 98
1, 28031, Note_on_c, 0, 70, 94
1, 28031, Note_on_c, 9, 42, 84
1, 28032, Note_on_c, 9, 42, 0
1, 28032, Note_on_c, 1, 39, 91
1, 28032, Note_on_c, 9, 35, 104
1, 28033, Note_on_c, 9, 35, 0
1, 28033, Note_on_c, 6, 63, 75
1, 28035, Note_on_c, 8, 54, 0
1, 28035, Note_on_c, 8, 58, 0
1, 28039, Note_on_c, 6, 61, 0
1, 28040, Note_on_c, 7, 61, 0
1, 28080, Note_on_c, 9, 42, 53
1, 28081, Note_on_c, 9, 42, 0
1, 28104, Note_on_c, 1, 39, 0
1, 28123, Note_on_c, 3, 77, 0
1, 28127, Note_on_c, 4, 58, 0
1, 28127, Note_on_c, 4, 77, 0
1, 28127, Note_on_c, 4, 61, 0
1, 28127, Note_on_c, 4, 70, 0
1, 28127, Note_on_c, 9, 40, 119
1, 28127, Note_on_c, 9, 38, 76
1, 28128, Note_on_c, 9, 38, 0
1, 28128, Note_on_c, 9, 40, 0
1, 28128, Note_on_c, 1, 39, 94
1, 28128, Note_on_c, 3, 77, 115
1, 28128, Note_on_c, 4, 61, 65
1, 28128, Note_on_c, 4, 58, 66
1, 28128, Note_on_c, 4, 77, 74
1, 28128, Note_on_c, 4, 70, 65
1, 28128, Note_on_c, 9, 54, 103
1, 28128, Note_on_c, 9, 42, 113
1, 28129, Note_on_c, 9, 42, 0
1, 28138, Note_on_c, 9, 54, 0
1, 28175, Note_on_c, 9, 42, 58
1, 28176, Note_on_c, 9, 42, 0
1, 28176, Note_on_c, 9, 35, 105
1, 28177, Note_on_c, 9, 35, 0
1, 28204, Note_on_c, 1, 39, 0
1, 28220, Note_on_c, 3, 77, 0
1, 28223, Note_on_c, 4, 58, 0
1, 28223, Note_on_c, 4, 61, 0
1, 28223, Note_on_c, 4, 77, 0
1, 28223, Note_on_c, 4, 70, 0
1, 28223, Note_on_c, 9, 42, 90
1, 28224, Note_on_c, 9, 42, 0
1, 28224, Note_on_c, 1, 39, 87
1, 28224, Note_on_c, 4, 60, 69
1, 28224, Note_on_c, 4, 68, 60
1, 28224, Note_on_c, 4, 75, 74
1, 28224, Note_on_c, 4, 56, 64
1, 28225, Note_on_c, 3, 75, 115
1, 28270, Note_on_c, 6, 78, 73
1, 28271, Note_on_c, 6, 75, 0
1, 28271, Note_on_c, 9, 40, 97
1, 28271, Note_on_c, 9, 38, 54
1, 28272, Note_on_c, 9, 38, 0
1, 28272, Note_on_c, 9, 40, 0
1, 28272, Note_on_c, 9, 42, 52
1, 28273, Note_on_c, 9, 42, 0
1, 28299, Note_on_c, 1, 39, 0
1, 28317, Note_on_c, 6, 78, 0
1, 28318, Note_on_c, 3, 75, 0
1, 28319, Note_on_c, 4, 68, 0
1, 28319, Note_on_c, 4, 60, 0
1, 28319, Note_on_c, 4, 75, 0
1, 28319, Note_on_c, 4, 56, 0
1, 28319, Note_on_c, 3, 73, 114
1, 28319, Note_on_c, 6, 75, 82
1, 28319, Note_on_c, 9, 38, 77
1, 28319, Note_on_c, 9, 40, 120
1, 28320, Note_on_c, 9, 40, 0
1, 28320, Note_on_c, 9, 38, 0
1, 28320, Note_on_c, 1, 39, 97
1, 28320, Note_on_c, 4, 66, 54
1, 28320, Note_on_c, 4, 54, 58
1, 28320, Note_on_c, 4, 73, 64
1, 28320, Note_on_c, 4, 58, 63
1, 28320, Note_on_c, 9, 54, 103
1, 28320, Note_on_c, 9, 42, 104
1, 28321, Note_on_c, 9, 42, 0
1, 28331, Note_on_c, 9, 54, 0
1, 28361, Note_on_c, 1, 39, 0
1, 28368, Note_on_c, 1, 39, 97
1, 28368, Note_on_c, 9, 35, 96
1, 28368, Note_on_c, 9, 42, 64
1, 28369, Note_on_c, 9, 42, 0
1, 28369, Note_on_c, 9, 35, 0
1, 28389, Note_on_c, 0, 66, 0
1, 28389, Note_on_c, 0, 70, 0
1, 28392, Note_on_c, 0, 75, 0
1, 28408, Note_on_c, 6, 58, 0
1, 28408, Note_on_c, 6, 66, 0
1, 28409, Note_on_c, 6, 63, 0
1, 28409, Note_on_c, 1, 39, 0
1, 28413, Note_on_c, 6, 56, 63
1, 28413, Note_on_c, 6, 61, 61
1, 28414, Note_on_c, 6, 75, 0
1, 28415, Note_on_c, 4, 58, 0
1, 28415, Note_on_c, 4, 54, 0
1, 28415, Note_on_c, 4, 73, 0
1, 28415, Note_on_c, 4, 66, 0
1, 28415, Note_on_c, 0, 65, 89
1, 28415, Note_on_c, 1, 37, 90
1, 28416, Note_on_c, 0, 73, 99
1, 28416, Note_on_c, 0, 68, 95
1, 28416, Note_on_c, 6, 65, 68
1, 28416, Note_on_c, 6, 68, 63
1, 28416, Note_on_c, 6, 73, 69
1, 28416, Note_on_c, 9, 35, 106
1, 28416, Note_on_c, 9, 42, 99
1, 28417, Note_on_c, 9, 42, 0
1, 28417, Note_on_c, 9, 35, 0
1, 28420, Note_on_c, 3, 73, 0
1, 28463, Note_on_c, 9, 42, 43
1, 28464, Note_on_c, 9, 42, 0
1, 28493, Note_on_c, 1, 37, 0
1, 28511, Note_on_c, 1, 37, 96
1, 28511, Note_on_c, 9, 38, 76
1, 28511, Note_on_c, 9, 40, 119
1, 28512, Note_on_c, 9, 40, 0
1, 28512, Note_on_c, 9, 38, 0
1, 28512, Note_on_c, 4, 53, 74
1, 28512, Note_on_c, 4, 68, 67
1, 28512, Note_on_c, 4, 77, 71
1, 28512, Note_on_c, 4, 56, 87
1, 28512, Note_on_c, 9, 54, 100
1, 28512, Note_on_c, 9, 42, 110
1, 28513, Note_on_c, 9, 42, 0
1, 28513, Note_on_c, 3, 77, 115
1, 28522, Note_on_c, 9, 54, 0
1, 28559, Note_on_c, 8, 53, 89
1, 28559, Note_on_c, 8, 56, 98
1, 28560, Note_on_c, 7, 61, 117
1, 28560, Note_on_c, 9, 42, 68
1, 28560, Note_on_c, 9, 35, 105
1, 28561, Note_on_c, 9, 35, 0
1, 28561, Note_on_c, 9, 42, 0
1, 28564, Note_on_c, 3, 77, 0
1, 28583, Note_on_c, 8, 56, 0
1, 28589, Note_on_c, 8, 53, 0
1, 28595, Note_on_c, 1, 37, 0
1, 28602, Note_on_c, 7, 61, 0
1, 28607, Note_on_c, 9, 42, 93
1, 28608, Note_on_c, 9, 42, 0
1, 28608, Note_on_c, 1, 37, 96
1, 28655, Note_on_c, 4, 53, 0
1, 28655, Note_on_c, 4, 68, 0
1, 28655, Note_on_c, 4, 77, 0
1, 28655, Note_on_c, 4, 56, 0
1, 28655, Note_on_c, 3, 73, 115
1, 28655, Note_on_c, 8, 56, 81
1, 28655, Note_on_c, 9, 40, 95
1, 28655, Note_on_c, 9, 42, 54
1, 28655, Note_on_c, 9, 38, 52
1, 28656, Note_on_c, 9, 38, 0
1, 28656, Note_on_c, 9, 42, 0
1, 28656, Note_on_c, 9, 40, 0
1, 28656, Note_on_c, 4, 65, 81
1, 28656, Note_on_c, 4, 53, 70
1, 28656, Note_on_c, 4, 70, 79
1, 28656, Note_on_c, 4, 56, 83
1, 28658, Note_on_c, 7, 61, 99
1, 28659, Note_on_c, 8, 53, 92
1, 28682, Note_on_c, 1, 37, 0
1, 28685, Note_on_c, 8, 56, 0
1, 28688, Note_on_c, 8, 53, 0
1, 28694, Note_on_c, 7, 61, 0
1, 28696, Note_on_c, 8, 53, 84
1, 28702, Note_on_c, 3, 73, 0
1, 28703, Note_on_c, 4, 53, 0
1, 28703, Note_on_c, 4, 56, 0
1, 28703, Note_on_c, 4, 65, 0
1, 28703, Note_on_c, 4, 70, 0
1, 28703, Note_on_c, 8, 56, 86
1, 28703, Note_on_c, 9, 38, 77
1, 28703, Note_on_c, 9, 40, 120
1, 28704, Note_on_c, 9, 40, 0
1, 28704, Note_on_c, 9, 38, 0
1, 28704, Note_on_c, 1, 37, 97
1, 28704, Note_on_c, 4, 56, 77
1, 28704, Note_on_c, 4, 68, 64
1, 28704, Note_on_c, 4, 73, 78
1, 28704, Note_on_c, 4, 53, 57
1, 28704, Note_on_c, 7, 61, 104
1, 28704, Note_on_c, 9, 42, 110
1, 28704, Note_on_c, 9, 54, 97
1, 28705, Note_on_c, 9, 42, 0
1, 28705, Note_on_c, 3, 73, 115
1, 28714, Note_on_c, 9, 54, 0
1, 28733, Note_on_c, 8, 53, 0
1, 28738, Note_on_c, 8, 56, 0
1, 28738, Note_on_c, 7, 61, 0
1, 28745, Note_on_c, 1, 37, 0
1, 28748, Note_on_c, 3, 73, 0
1, 28751, Note_on_c, 4, 68, 0
1, 28751, Note_on_c, 4, 53, 0
1, 28751, Note_on_c, 4, 56, 0
1, 28751, Note_on_c, 4, 73, 0
1, 28752, Note_on_c, 1, 36, 97
1, 28752, Note_on_c, 4, 70, 65
1, 28752, Note_on_c, 4, 53, 67
1, 28752, Note_on_c, 4, 58, 88
1, 28752, Note_on_c, 4, 75, 76
1, 28752, Note_on_c, 9, 35, 96
1, 28752, Note_on_c, 9, 42, 51
1, 28753, Note_on_c, 9, 42, 0
1, 28753, Note_on_c, 9, 35, 0
1, 28753, Note_on_c, 3, 75, 115
1, 28753, Note_on_c, 7, 61, 118
1, 28753, Note_on_c, 8, 58, 92
1, 28755, Note_on_c, 0, 68, 0
1, 28755, Note_on_c, 0, 73, 0
1, 28756, Note_on_c, 8, 53, 87
1, 28760, Note_on_c, 0, 65, 0
1, 28793, Note_on_c, 1, 36, 0
1, 28793, Note_on_c, 0, 61, 94
1, 28795, Note_on_c, 0, 65, 112
1, 28796, Note_on_c, 6, 56, 0
1, 28796, Note_on_c, 6, 61, 0
1, 28798, Note_on_c, 0, 70, 96
1, 28799, Note_on_c, 6, 65, 0
1, 28799, Note_on_c, 6, 68, 0
1, 28799, Note_on_c, 1, 34, 99
1, 28799, Note_on_c, 9, 42, 84
1, 28800, Note_on_c, 9, 42, 0
1, 28800, Note_on_c, 6, 61, 65
1, 28800, Note_on_c, 6, 65, 80
1, 28800, Note_on_c, 6, 70, 57
1, 28800, Note_on_c, 6, 58, 63
1, 28800, Note_on_c, 9, 35, 106
1, 28801, Note_on_c, 9, 35, 0
1, 28848, Note_on_c, 9, 42, 53
1, 28849, Note_on_c, 9, 42, 0
1, 28885, Note_on_c, 1, 34, 0
1, 28892, Note_on_c, 3, 75, 0
1, 28895, Note_on_c, 4, 70, 0
1, 28895, Note_on_c, 4, 53, 0
1, 28895, Note_on_c, 4, 58, 0
1, 28895, Note_on_c, 4, 75, 0
1, 28895, Note_on_c, 9, 38, 76
1, 28895, Note_on_c, 9, 40, 119
1, 28896, Note_on_c, 9, 40, 0
1, 28896, Note_on_c, 9, 38, 0
1, 28896, Note_on_c, 1, 34, 93
1, 28896, Note_on_c, 4, 58, 63
1, 28896, Note_on_c, 4, 53, 74
1, 28896, Note_on_c, 4, 73, 81
1, 28896, Note_on_c, 4, 65, 76
1, 28896, Note_on_c, 9, 54, 97
1, 28896, Note_on_c, 9, 42, 113
1, 28897, Note_on_c, 9, 42, 0
1, 28897, Note_on_c, 3, 73, 115
1, 28907, Note_on_c, 9, 54, 0
1, 28943, Note_on_c, 3, 73, 0
1, 28943, Note_on_c, 9, 42, 58
1, 28944, Note_on_c, 9, 42, 0
1, 28944, Note_on_c, 3, 70, 84
1, 28944, Note_on_c, 9, 35, 104
1, 28945, Note_on_c, 9, 35, 0
1, 28963, Pitch_bend_c, 3, 8426
1, 28965, Pitch_bend_c, 3, 13106
1, 28968, Pitch_bend_c, 3, 14744
1, 28972, Pitch_bend_c, 3, 15446
1, 28973, Note_on_c, 1, 34, 0
1, 28975, Pitch_bend_c, 3, 15914
1, 28978, Pitch_bend_c, 3, 16382
1, 28982, Pitch_bend_c, 3, 16383
1, 28984, Note_on_c, 3, 70, 0
1, 28991, Note_on_c, 4, 65, 0
1, 28991, Note_on_c, 4, 58, 0
1, 28991, Note_on_c, 4, 73, 0
1, 28991, Note_on_c, 4, 53, 0
1, 28991, Note_on_c, 1, 37, 99
1, 28991, Note_on_c, 3, 73, 115
1, 28991, Note_on_c, 9, 42, 93
1, 28992, Note_on_c, 9, 42, 0
1, 28992, Note_on_c, 4, 75, 69
1, 28992, Note_on_c, 4, 72, 75
1, 28992, Note_on_c, 4, 63, 73
1, 28992, Note_on_c, 4, 53, 65
1, 29037, Pitch_bend_c, 3, 13925
1, 29039, Pitch_bend_c, 3, 9011
1, 29039, Note_on_c, 9, 38, 53
1, 29039, Note_on_c, 9, 40, 96
1, 29040, Note_on_c, 9, 40, 0
1, 29040, Note_on_c, 9, 38, 0
1, 29040, Note_on_c, 9, 42, 52
1, 29041, Note_on_c, 9, 42, 0
1, 29042, Pitch_bend_c, 3, 8192
1, 29057, Note_on_c, 0, 61, 0
1, 29057, Note_on_c, 0, 70, 0
1, 29063, Note_on_c, 0, 65, 0
1, 29064, Note_on_c, 7, 61, 0
1, 29067, Note_on_c, 1, 37, 0
1, 29074, Note_on_c, 3, 73, 0
1, 29078, Note_on_c, 8, 53, 0
1, 29082, Note_on_c, 8, 58, 0
1, 29086, Note_on_c, 0, 61, 84
1, 29087, Note_on_c, 4, 53, 0
1, 29087, Note_on_c, 4, 75, 0
1, 29087, Note_on_c, 4, 63, 0
1, 29087, Note_on_c, 4, 72, 0
1, 29087, Note_on_c, 1, 41, 97
1, 29087, Note_on_c, 9, 40, 119
1, 29087, Note_on_c, 9, 38, 76
1, 29088, Note_on_c, 9, 38, 0
1, 29088, Note_on_c, 9, 40, 0
1, 29088, Note_on_c, 0, 65, 108
1, 29088, Note_on_c, 3, 73, 115
1, 29088, Note_on_c, 4, 61, 71
1, 29088, Note_on_c, 4, 53, 58
1, 29088, Note_on_c, 4, 70, 78
1, 29088, Note_on_c, 4, 73, 69
1, 29088, Note_on_c, 7, 61, 95
1, 29088, Note_on_c, 9, 54, 97
1, 29088, Note_on_c, 9, 42, 104
1, 29089, Note_on_c, 9, 42, 0
1, 29089, Note_on_c, 8, 58, 84
1, 29090, Note_on_c, 0, 70, 98
1, 29094, Note_on_c, 8, 53, 94
1, 29103, Note_on_c, 9, 54, 0
1, 29124, Note_on_c, 1, 41, 0
1, 29135, Note_on_c, 6, 73, 0
1, 29136, Note_on_c, 1, 41, 97
1, 29136, Note_on_c, 6, 77, 63
1, 29136, Note_on_c, 9, 42, 64
1, 29136, Note_on_c, 9, 35, 96
1, 29137, Note_on_c, 9, 35, 0
1, 29137, Note_on_c, 9, 42, 0
1, 29138, Note_on_c, 0, 61, 0
1, 29147, Note_on_c, 0, 65, 0
1, 29154, Note_on_c, 0, 70, 0
1, 29160, Note_on_c, 6, 73, 63
1, 29161, Note_on_c, 6, 77, 0
1, 29165, Note_on_c, 8, 58, 0
1, 29167, Note_on_c, 8, 53, 0
1, 29170, Note_on_c, 7, 61, 0
1, 29173, Note_on_c, 1, 41, 0
1, 29175, Note_on_c, 3, 73, 0
1, 29178, Note_on_c, 0, 70, 97
1, 29178, Note_on_c, 8, 54, 86
1, 29181, Note_on_c, 6, 70, 0
1, 29182, Note_on_c, 6, 58, 0
1, 29182, Note_on_c, 6, 61, 0
1, 29182, Note_on_c, 0, 73, 99
1, 29183, Note_on_c, 4, 70, 0
1, 29183, Note_on_c, 4, 61, 0
1, 29183, Note_on_c, 6, 73, 0
1, 29183, Note_on_c, 4, 53, 0
1, 29183, Note_on_c, 4, 73, 0
1, 29183, Note_on_c, 1, 42, 93
1, 29184, Note_on_c, 0, 78, 114
1, 29184, Note_on_c, 6, 61, 68
1, 29184, Note_on_c, 6, 66, 72
1, 29184, Note_on_c, 6, 58, 72
1, 29184, Note_on_c, 7, 61, 99
1, 29184, Note_on_c, 9, 42, 99
1, 29184, Note_on_c, 9, 35, 106
1, 29185, Note_on_c, 9, 35, 0
1, 29185, Note_on_c, 6, 65, 0
1, 29185, Note_on_c, 9, 42, 0
1, 29186, Note_on_c, 6, 70, 66
1, 29187, Note_on_c, 8, 58, 85
1, 29231, Note_on_c, 9, 42, 43
1, 29232, Note_on_c, 9, 42, 0
1, 29279, Note_on_c, 9, 38, 76
1, 29279, Note_on_c, 9, 40, 119
1, 29280, Note_on_c, 9, 40, 0
1, 29280, Note_on_c, 9, 38, 0
1, 29280, Note_on_c, 4, 66, 72
1, 29280, Note_on_c, 4, 54, 74
1, 29280, Note_on_c, 4, 58, 70
1, 29280, Note_on_c, 4, 73, 79
1, 29280, Note_on_c, 9, 42, 110
1, 29280, Note_on_c, 9, 54, 103
1, 29281, Note_on_c, 9, 42, 0
1, 29281, Note_on_c, 3, 73, 115
1, 29292, Note_on_c, 9, 54, 0
1, 29302, Note_on_c, 1, 42, 0
1, 29327, Note_on_c, 1, 42, 90
1, 29328, Note_on_c, 9, 42, 68
1, 29328, Note_on_c, 9, 35, 104
1, 29329, Note_on_c, 9, 35, 0
1, 29329, Note_on_c, 9, 42, 0
1, 29361, Note_on_c, 1, 42, 0
1, 29375, Note_on_c, 6, 82, 72
1, 29375, Note_on_c, 9, 42, 93
1, 29376, Note_on_c, 9, 42, 0
1, 29376, Note_on_c, 1, 37, 98
1, 29377, Note_on_c, 6, 70, 0
1, 29410, Note_on_c, 3, 73, 0
1, 29420, Note_on_c, 6, 82, 0
1, 29422, Note_on_c, 6, 82, 75
1, 29423, Note_on_c, 4, 54, 0
1, 29423, Note_on_c, 4, 73, 0
1, 29423, Note_on_c, 4, 66, 0
1, 29423, Note_on_c, 4, 58, 0
1, 29423, Note_on_c, 3, 73, 115
1, 29423, Note_on_c, 9, 42, 54
1, 29423, Note_on_c, 9, 38, 54
1, 29423, Note_on_c, 9, 40, 97
1, 29424, Note_on_c, 9, 40, 0
1, 29424, Note_on_c, 9, 38, 0
1, 29424, Note_on_c, 9, 42, 0
1, 29424, Note_on_c, 4, 54, 74
1, 29424, Note_on_c, 4, 66, 72
1, 29424, Note_on_c, 4, 73, 81
1, 29424, Note_on_c, 4, 58, 75
1, 29447, Note_on_c, 1, 37, 0
1, 29464, Note_on_c, 3, 73, 0
1, 29471, Note_on_c, 4, 66, 0
1, 29471, Note_on_c, 4, 58, 0
1, 29471, Note_on_c, 4, 54, 0
1, 29471, Note_on_c, 4, 73, 0
1, 29471, Note_on_c, 3, 73, 115
1, 29471, Note_on_c, 6, 78, 87
1, 29471, Note_on_c, 9, 38, 76
1, 29471, Note_on_c, 9, 40, 119
1, 29472, Note_on_c, 9, 40, 0
1, 29472, Note_on_c, 9, 38, 0
1, 29472, Note_on_c, 1, 42, 90
1, 29472, Note_on_c, 4, 66, 58
1, 29472, Note_on_c, 4, 58, 63
1, 29472, Note_on_c, 4, 54, 58
1, 29472, Note_on_c, 4, 73, 77
1, 29472, Note_on_c, 9, 54, 103
1, 29472, Note_on_c, 9, 42, 110
1, 29473, Note_on_c, 9, 42, 0
1, 29475, Note_on_c, 6, 82, 0
1, 29478, Note_on_c, 9, 54, 0
1, 29508, Note_on_c, 1, 42, 0
1, 29517, Note_on_c, 3, 73, 0
1, 29518, Note_on_c, 6, 78, 0
1, 29518, Note_on_c, 6, 77, 73
1, 29519, Note_on_c, 4, 54, 0
1, 29519, Note_on_c, 4, 73, 0
1, 29519, Note_on_c, 4, 66, 0
1, 29519, Note_on_c, 4, 58, 0
1, 29519, Note_on_c, 1, 41, 90
1, 29520, Note_on_c, 3, 77, 115
1, 29520, Note_on_c, 4, 70, 63
1, 29520, Note_on_c, 4, 58, 73
1, 29520, Note_on_c, 4, 61, 71
1, 29520, Note_on_c, 4, 77, 74
1, 29520, Note_on_c, 9, 35, 96
1, 29520, Note_on_c, 9, 42, 51
1, 29521, Note_on_c, 9, 42, 0
1, 29521, Note_on_c, 9, 35, 0
1, 29530, Note_on_c, 0, 78, 0
1, 29530, Note_on_c, 0, 70, 0
1, 29530, Note_on_c, 0, 73, 0
1, 29553, Note_on_c, 8, 54, 0
1, 29553, Note_on_c, 8, 58, 0
1, 29555, Note_on_c, 1, 41, 0
1, 29563, Note_on_c, 6, 63, 75
1, 29565, Note_on_c, 6, 61, 0
1, 29566, Note_on_c, 0, 66, 92
1, 29567, Note_on_c, 0, 70, 94
1, 29567, Note_on_c, 1, 39, 90
1, 29567, Note_on_c, 6, 75, 82
1, 29567, Note_on_c, 9, 42, 84
1, 29568, Note_on_c, 9, 42, 0
1, 29568, Note_on_c, 9, 35, 105
1, 29569, Note_on_c, 9, 35, 0
1, 29569, Note_on_c, 6, 77, 0
1, 29570, Note_on_c, 0, 75, 105
1, 29584, Note_on_c, 7, 61, 0
1, 29616, Note_on_c, 9, 42, 53
1, 29617, Note_on_c, 9, 42, 0
1, 29647, Note_on_c, 1, 39, 0
1, 29649, Note_on_c, 3, 77, 0
1, 29663, Note_on_c, 4, 58, 0
1, 29663, Note_on_c, 4, 77, 0
1, 29663, Note_on_c, 4, 70, 0
1, 29663, Note_on_c, 4, 61, 0
1, 29663, Note_on_c, 9, 38, 76
1, 29663, Note_on_c, 9, 40, 119
1, 29664, Note_on_c, 9, 40, 0
1, 29664, Note_on_c, 9, 38, 0
1, 29664, Note_on_c, 1, 39, 88
1, 29664, Note_on_c, 4, 61, 65
1, 29664, Note_on_c, 4, 77, 74
1, 29664, Note_on_c, 4, 58, 66
1, 29664, Note_on_c, 4, 70, 65
1, 29664, Note_on_c, 9, 54, 100
1, 29664, Note_on_c, 9, 42, 113
1, 29665, Note_on_c, 9, 42, 0
1, 29665, Note_on_c, 3, 77, 115
1, 29675, Note_on_c, 9, 54, 0
1, 29711, Note_on_c, 9, 42, 58
1, 29712, Note_on_c, 9, 42, 0
1, 29712, Note_on_c, 9, 35, 104
1, 29713, Note_on_c, 9, 35, 0
1, 29742, Note_on_c, 1, 39, 0
1, 29757, Note_on_c, 3, 77, 0
1, 29758, Note_on_c, 3, 75, 115
1, 29759, Note_on_c, 4, 58, 0
1, 29759, Note_on_c, 4, 77, 0
1, 29759, Note_on_c, 4, 61, 0
1, 29759, Note_on_c, 4, 70, 0
1, 29759, Note_on_c, 9, 42, 95
1, 29760, Note_on_c, 9, 42, 0
1, 29760, Note_on_c, 1, 34, 90
1, 29760, Note_on_c, 4, 56, 64
1, 29760, Note_on_c, 4, 75, 74
1, 29760, Note_on_c, 4, 60, 69
1, 29760, Note_on_c, 4, 68, 60
1, 29805, Note_on_c, 6, 75, 0
1, 29806, Note_on_c, 6, 78, 73
1, 29807, Note_on_c, 9, 40, 95
1, 29807, Note_on_c, 9, 38, 52
1, 29808, Note_on_c, 9, 38, 0
1, 29808, Note_on_c, 9, 40, 0
1, 29808, Note_on_c, 9, 42, 52
1, 29809, Note_on_c, 9, 42, 0
1, 29831, Note_on_c, 0, 75, 0
1, 29832, Note_on_c, 1, 34, 0
1, 29835, Note_on_c, 0, 66, 0
1, 29837, Note_on_c, 0, 70, 0
1, 29854, Note_on_c, 3, 75, 0
1, 29855, Note_on_c, 4, 56, 0
1, 29855, Note_on_c, 4, 75, 0
1, 29855, Note_on_c, 4, 68, 0
1, 29855, Note_on_c, 4, 60, 0
1, 29855, Note_on_c, 3, 73, 115
1, 29855, Note_on_c, 6, 75, 82
1, 29855, Note_on_c, 9, 40, 118
1, 29855, Note_on_c, 9, 38, 75
1, 29856, Note_on_c, 9, 38, 0
1, 29856, Note_on_c, 9, 40, 0
1, 29856, Note_on_c, 1, 39, 92
1, 29856, Note_on_c, 4, 54, 58
1, 29856, Note_on_c, 4, 58, 63
1, 29856, Note_on_c, 4, 66, 54
1, 29856, Note_on_c, 4, 73, 64
1, 29856, Note_on_c, 9, 42, 104
1, 29856, Note_on_c, 9, 54, 100
1, 29857, Note_on_c, 9, 42, 0
1, 29857, Note_on_c, 6, 78, 0
1, 29860, Note_on_c, 0, 66, 92
1, 29861, Note_on_c, 0, 70, 97
1, 29862, Note_on_c, 0, 75, 101
1, 29867, Note_on_c, 9, 54, 0
1, 29887, Note_on_c, 1, 39, 0
1, 29902, Note_on_c, 3, 73, 0
1, 29904, Note_on_c, 1, 38, 86
1, 29904, Note_on_c, 3, 70, 95
1, 29904, Note_on_c, 9, 42, 64
1, 29904, Note_on_c, 9, 35, 96
1, 29905, Note_on_c, 9, 35, 0
1, 29905, Note_on_c, 9, 42, 0
1, 29928, Note_on_c, 0, 66, 0
1, 29932, Note_on_c, 0, 70, 0
1, 29935, Note_on_c, 1, 38, 0
1, 29936, Note_on_c, 0, 75, 0
1, 29948, Note_on_c, 6, 56, 63
1, 29949, Note_on_c, 6, 63, 0
1, 29950, Note_on_c, 6, 65, 85
1, 29950, Note_on_c, 6, 61, 74
1, 29951, Note_on_c, 4, 66, 0
1, 29951, Note_on_c, 4, 58, 0
1, 29951, Note_on_c, 6, 66, 0
1, 29951, Note_on_c, 4, 54, 0
1, 29951, Note_on_c, 6, 58, 0
1, 29951, Note_on_c, 4, 73, 0
1, 29951, Note_on_c, 6, 68, 67
1, 29951, Note_on_c, 6, 73, 64
1, 29952, Note_on_c, 0, 68, 99
1, 29952, Note_on_c, 0, 73, 87
1, 29952, Note_on_c, 0, 65, 81
1, 29952, Note_on_c, 1, 37, 87
1, 29952, Note_on_c, 9, 42, 99
1, 29952, Note_on_c, 9, 35, 106
1, 29953, Note_on_c, 9, 35, 0
1, 29953, Note_on_c, 9, 42, 0
1, 29955, Note_on_c, 6, 75, 0
1, 29961, Note_on_c, 3, 70, 0
1, 29999, Note_on_c, 9, 42, 43
1, 30000, Note_on_c, 9, 42, 0
1, 30028, Note_on_c, 1, 37, 0
1, 30047, Note_on_c, 1, 37, 96
1, 30047, Note_on_c, 9, 40, 120
1, 30047, Note_on_c, 9, 38, 77
1, 30048, Note_on_c, 9, 38, 0
1, 30048, Note_on_c, 9, 40, 0
1, 30048, Note_on_c, 4, 53, 74
1, 30048, Note_on_c, 4, 68, 67
1, 30048, Note_on_c, 4, 56, 87
1, 30048, Note_on_c, 4, 77, 71
1, 30048, Note_on_c, 9, 54, 103
1, 30048, Note_on_c, 9, 42, 110
1, 30049, Note_on_c, 9, 42, 0
1, 30049, Note_on_c, 3, 77, 115
1, 30059, Note_on_c, 9, 54, 0
1, 30095, Note_on_c, 8, 56, 99
1, 30096, Note_on_c, 7, 61, 107
1, 30096, Note_on_c, 8, 53, 84
1, 30096, Note_on_c, 9, 42, 68
1, 30096, Note_on_c, 9, 35, 104
1, 30097, Note_on_c, 9, 35, 0
1, 30097, Note_on_c, 9, 42, 0
1, 30100, Note_on_c, 3, 77, 0
1, 30117, Note_on_c, 8, 56, 0
1, 30124, Note_on_c, 8, 53, 0
1, 30130, Note_on_c, 1, 37, 0
1, 30132, Note_on_c, 7, 61, 0
1, 30143, Note_on_c, 9, 42, 90
1, 30144, Note_on_c, 9, 42, 0
1, 30144, Note_on_c, 1, 37, 95
1, 30191, Note_on_c, 4, 53, 0
1, 30191, Note_on_c, 4, 68, 0
1, 30191, Note_on_c, 4, 56, 0
1, 30191, Note_on_c, 4, 77, 0
1, 30191, Note_on_c, 3, 73, 115
1, 30191, Note_on_c, 9, 42, 54
1, 30191, Note_on_c, 9, 38, 53
1, 30191, Note_on_c, 9, 40, 96
1, 30192, Note_on_c, 9, 40, 0
1, 30192, Note_on_c, 9, 38, 0
1, 30192, Note_on_c, 9, 42, 0
1, 30192, Note_on_c, 4, 53, 70
1, 30192, Note_on_c, 4, 70, 79
1, 30192, Note_on_c, 4, 65, 81
1, 30192, Note_on_c, 4, 56, 83
1, 30193, Note_on_c, 8, 53, 87
1, 30193, Note_on_c, 8, 56, 91
1, 30194, Note_on_c, 7, 61, 92
1, 30212, Note_on_c, 0, 65, 0
1, 30215, Note_on_c, 1, 37, 0
1, 30216, Note_on_c, 0, 73, 0
1, 30218, Note_on_c, 0, 68, 0
1, 30221, Note_on_c, 8, 56, 0
1, 30223, Note_on_c, 8, 53, 0
1, 30228, Note_on_c, 7, 61, 0
1, 30238, Note_on_c, 3, 73, 0
1, 30239, Note_on_c, 4, 53, 0
1, 30239, Note_on_c, 4, 65, 0
1, 30239, Note_on_c, 4, 70, 0
1, 30239, Note_on_c, 4, 56, 0
1, 30239, Note_on_c, 0, 65, 78
1, 30239, Note_on_c, 7, 61, 97
1, 30239, Note_on_c, 8, 56, 89
1, 30239, Note_on_c, 8, 53, 92
1, 30239, Note_on_c, 9, 40, 119
1, 30239, Note_on_c, 9, 38, 76
1, 30240, Note_on_c, 9, 38, 0
1, 30240, Note_on_c, 9, 40, 0
1, 30240, Note_on_c, 1, 37, 96
1, 30240, Note_on_c, 4, 73, 78
1, 30240, Note_on_c, 4, 53, 57
1, 30240, Note_on_c, 4, 68, 64
1, 30240, Note_on_c, 4, 56, 77
1, 30240, Note_on_c, 9, 54, 100
1, 30240, Note_on_c, 9, 42, 110
1, 30241, Note_on_c, 9, 42, 0
1, 30241, Note_on_c, 3, 73, 115
1, 30242, Note_on_c, 0, 68, 95
1, 30242, Note_on_c, 0, 73, 101
1, 30251, Note_on_c, 9, 54, 0
1, 30270, Note_on_c, 1, 37, 0
1, 30271, Note_on_c, 8, 56, 0
1, 30278, Note_on_c, 8, 53, 0
1, 30279, Note_on_c, 7, 61, 0
1, 30284, Note_on_c, 3, 73, 0
1, 30287, Note_on_c, 4, 68, 0
1, 30287, Note_on_c, 4, 73, 0
1, 30287, Note_on_c, 4, 53, 0
1, 30287, Note_on_c, 4, 56, 0
1, 30287, Note_on_c, 1, 36, 87
1, 30287, Note_on_c, 8, 58, 93
1, 30288, Note_on_c, 4, 53, 67
1, 30288, Note_on_c, 4, 75, 76
1, 30288, Note_on_c, 4, 70, 65
1, 30288, Note_on_c, 4, 58, 88
1, 30288, Note_on_c, 8, 53, 87
1, 30288, Note_on_c, 9, 42, 51
1, 30288, Note_on_c, 9, 35, 96
1, 30289, Note_on_c, 9, 35, 0
1, 30289, Note_on_c, 9, 42, 0
1, 30289, Note_on_c, 3, 75, 115
1, 30295, Note_on_c, 7, 61, 97
1, 30301, Note_on_c, 0, 73, 0
1, 30305, Note_on_c, 0, 68, 0
1, 30309, Note_on_c, 0, 65, 0
1, 30320, Note_on_c, 1, 36, 0
1, 30333, Note_on_c, 6, 61, 0
1, 30333, Note_on_c, 6, 65, 0
1, 30334, Note_on_c, 6, 68, 0
1, 30334, Note_on_c, 6, 56, 0
1, 30334, Note_on_c, 6, 70, 72
1, 30334, Note_on_c, 6, 61, 69
1, 30334, Note_on_c, 6, 65, 79
1, 30335, Note_on_c, 9, 42, 84
1, 30336, Note_on_c, 9, 42, 0
1, 30336, Note_on_c, 0, 65, 101
1, 30336, Note_on_c, 0, 70, 87
1, 30336, Note_on_c, 0, 61, 87
1, 30336, Note_on_c, 1, 34, 95
1, 30336, Note_on_c, 9, 35, 106
1, 30337, Note_on_c, 9, 35, 0
1, 30338, Note_on_c, 6, 58, 73
1, 30384, Note_on_c, 9, 42, 53
1, 30385, Note_on_c, 9, 42, 0
1, 30414, Note_on_c, 1, 34, 0
1, 30428, Note_on_c, 3, 75, 0
1, 30431, Note_on_c, 4, 58, 0
1, 30431, Note_on_c, 4, 53, 0
1, 30431, Note_on_c, 4, 70, 0
1, 30431, Note_on_c, 4, 75, 0
1, 30431, Note_on_c, 9, 40, 119
1, 30431, Note_on_c, 9, 38, 76
1, 30432, Note_on_c, 9, 38, 0
1, 30432, Note_on_c, 9, 40, 0
1, 30432, Note_on_c, 1, 34, 99
1, 30432, Note_on_c, 4, 58, 63
1, 30432, Note_on_c, 4, 73, 81
1, 30432, Note_on_c, 4, 65, 76
1, 30432, Note_on_c, 4, 53, 74
1, 30432, Note_on_c, 9, 42, 113
1, 30432, Note_on_c, 9, 54, 103
1, 30433, Note_on_c, 9, 42, 0
1, 30433, Note_on_c, 3, 73, 112
1, 30442, Note_on_c, 9, 54, 0
1, 30479, Note_on_c, 3, 73, 0
1, 30479, Note_on_c, 9, 42, 58
1, 30480, Note_on_c, 9, 42, 0
1, 30480, Note_on_c, 3, 70, 79
1, 30480, Note_on_c, 9, 35, 104
1, 30481, Note_on_c, 9, 35, 0
1, 30499, Pitch_bend_c, 3, 8426
1, 30501, Note_on_c, 1, 34, 0
1, 30501, Pitch_bend_c, 3, 13106
1, 30502, Note_on_c, 3, 70, 0
1, 30504, Pitch_bend_c, 3, 14744
1, 30508, Pitch_bend_c, 3, 15446
1, 30511, Pitch_bend_c, 3, 15914
1, 30514, Pitch_bend_c, 3, 16382
1, 30518, Pitch_bend_c, 3, 16383
1, 30527, Note_on_c, 4, 53, 0
1, 30527, Note_on_c, 4, 58, 0
1, 30527, Note_on_c, 4, 65, 0
1, 30527, Note_on_c, 4, 73, 0
1, 30527, Note_on_c, 3, 73, 115
1, 30527, Note_on_c, 9, 42, 90
1, 30528, Note_on_c, 9, 42, 0
1, 30528, Note_on_c, 1, 34, 98
1, 30528, Note_on_c, 4, 75, 69
1, 30528, Note_on_c, 4, 53, 65
1, 30528, Note_on_c, 4, 72, 75
1, 30528, Note_on_c, 4, 63, 73
1, 30573, Pitch_bend_c, 3, 13925
1, 30575, Pitch_bend_c, 3, 9011
1, 30575, Note_on_c, 9, 40, 95
1, 30575, Note_on_c, 9, 38, 52
1, 30576, Note_on_c, 9, 38, 0
1, 30576, Note_on_c, 9, 40, 0
1, 30576, Note_on_c, 9, 42, 52
1, 30577, Note_on_c, 9, 42, 0
1, 30578, Pitch_bend_c, 3, 8192
1, 30599, Note_on_c, 0, 61, 0
1, 30599, Note_on_c, 0, 65, 0
1, 30599, Note_on_c, 0, 70, 0
1, 30602, Note_on_c, 8, 53, 0
1, 30604, Note_on_c, 1, 34, 0
1, 30606, Note_on_c, 7, 61, 0
1, 30610, Note_on_c, 3, 73, 0
1, 30611, Note_on_c, 8, 58, 0
1, 30623, Note_on_c, 4, 53, 0
1, 30623, Note_on_c, 4, 63, 0
1, 30623, Note_on_c, 4, 75, 0
1, 30623, Note_on_c, 4, 72, 0
1, 30623, Note_on_c, 0, 70, 120
1, 30623, Note_on_c, 0, 65, 112
1, 30623, Note_on_c, 0, 77, 98
1, 30623, Note_on_c, 0, 73, 109
1, 30623, Note_on_c, 1, 37, 97
1, 30623, Note_on_c, 8, 53, 96
1, 30623, Note_on_c, 9, 38, 77
1, 30623, Note_on_c, 9, 40, 120
1, 30624, Note_on_c, 9, 40, 0
1, 30624, Note_on_c, 9, 38, 0
1, 30624, Note_on_c, 3, 73, 115
1, 30624, Note_on_c, 4, 70, 78
1, 30624, Note_on_c, 4, 61, 71
1, 30624, Note_on_c, 4, 73, 69
1, 30624, Note_on_c, 4, 53, 58
1, 30624, Note_on_c, 7, 61, 103
1, 30624, Note_on_c, 8, 58, 79
1, 30624, Note_on_c, 9, 54, 103
1, 30624, Note_on_c, 9, 42, 104
1, 30625, Note_on_c, 9, 42, 0
1, 30635, Note_on_c, 9, 54, 0
1, 30662, Note_on_c, 1, 37, 0
1, 30671, Note_on_c, 1, 41, 92
1, 30672, Note_on_c, 9, 42, 64
1, 30672, Note_on_c, 9, 35, 96
1, 30673, Note_on_c, 9, 35, 0
1, 30673, Note_on_c, 9, 42, 0
1, 30695, Note_on_c, 0, 77, 0
1, 30701, Note_on_c, 8, 53, 0
1, 30703, Note_on_c, 1, 41, 0
1, 30704, Note_on_c, 7, 61, 0
1, 30704, Note_on_c, 0, 65, 0
1, 30704, Note_on_c, 0, 70, 0
1, 30707, Note_on_c, 8, 58, 0
1, 30709, Note_on_c, 0, 73, 0
1, 30711, Note_on_c, 3, 73, 0
1, 30715, Note_on_c, 6, 73, 0
1, 30717, Note_on_c, 6, 70, 0
1, 30717, Note_on_c, 6, 65, 0
1, 30717, Note_on_c, 6, 61, 0
1, 30719, Note_on_c, 4, 73, 0
1, 30719, Note_on_c, 4, 53, 0
1, 30719, Note_on_c, 4, 70, 0
1, 30719, Note_on_c, 4, 61, 0
1, 30720, Note_on_c, 6, 58, 0
1, 30720, Note_on_c, 0, 70, 83
1, 30720, Note_on_c, 1, 42, 96
1, 30720, Note_on_c, 6, 61, 68
1, 30720, Note_on_c, 6, 66, 68
1, 30720, Note_on_c, 9, 42, 99
1, 30720, Note_on_c, 9, 35, 106
1, 30721, Note_on_c, 9, 35, 0
1, 30721, Note_on_c, 9, 42, 0
1, 30721, Note_on_c, 6, 58, 61
1, 30722, Note_on_c, 7, 61, 92
1, 30722, Note_on_c, 8, 54, 82
1, 30722, Note_on_c, 8, 58, 87
1, 30724, Note_on_c, 0, 73, 89
1, 30726, Note_on_c, 0, 78, 101
1, 30760, Control_c, 0, 11, 126
1, 30760, Control_c, 1, 11, 126
1, 30760, Control_c, 3, 11, 126
1, 30760, Control_c, 4, 11, 126
1, 30760, Control_c, 6, 11, 126
1, 30760, Control_c, 7, 11, 126
1, 30760, Control_c, 8, 11, 126
1, 30760, Control_c, 9, 11, 126
1, 30767, Note_on_c, 9, 42, 43
1, 30768, Note_on_c, 9, 42, 0
1, 30808, Control_c, 0, 11, 124
1, 30808, Control_c, 1, 11, 124
1, 30808, Control_c, 3, 11, 124
1, 30808, Control_c, 4, 11, 124
1, 30808, Control_c, 6, 11, 124
1, 30808, Control_c, 7, 11, 124
1, 30808, Control_c, 8, 11, 124
1, 30808, Control_c, 9, 11, 124
1, 30815, Note_on_c, 3, 73, 115
1, 30815, Note_on_c, 9, 40, 120
1, 30815, Note_on_c, 9, 38, 77
1, 30816, Note_on_c, 9, 38, 0
1, 30816, Note_on_c, 9, 40, 0
1, 30816, Note_on_c, 4, 73, 79
1, 30816, Note_on_c, 4, 54, 74
1, 30816, Note_on_c, 4, 58, 70
1, 30816, Note_on_c, 4, 66, 72
1, 30816, Note_on_c, 9, 42, 110
1, 30816, Note_on_c, 9, 54, 100
1, 30817, Note_on_c, 9, 42, 0
1, 30826, Note_on_c, 9, 54, 0
1, 30839, Note_on_c, 1, 42, 0
1, 30856, Control_c, 0, 11, 122
1, 30856, Control_c, 1, 11, 122
1, 30856, Control_c, 3, 11, 122
1, 30856, Control_c, 4, 11, 122
1, 30856, Control_c, 6, 11, 122
1, 30856, Control_c, 7, 11, 122
1, 30856, Control_c, 8, 11, 122
1, 30856, Control_c, 9, 11, 122
1, 30864, Note_on_c, 1, 42, 93
1, 30864, Note_on_c, 9, 42, 68
1, 30864, Note_on_c, 9, 35, 105
1, 30865, Note_on_c, 9, 35, 0
1, 30865, Note_on_c, 9, 42, 0
1, 30904, Control_c, 0, 11, 120
1, 30904, Control_c, 1, 11, 120
1, 30904, Control_c, 3, 11, 120
1, 30904, Control_c, 4, 11, 120
1, 30904, Control_c, 6, 11, 120
1, 30904, Control_c, 7, 11, 120
1, 30904, Control_c, 8, 11, 120
1, 30904, Control_c, 9, 11, 120
1, 30910, Note_on_c, 6, 82, 77
1, 30911, Note_on_c, 9, 42, 93
1, 30912, Note_on_c, 9, 42, 0
1, 30952, Control_c, 0, 11, 118
1, 30952, Control_c, 1, 11, 118
1, 30952, Control_c, 3, 11, 118
1, 30952, Control_c, 4, 11, 118
1, 30952, Control_c, 6, 11, 118
1, 30952, Control_c, 7, 11, 118
1, 30952, Control_c, 8, 11, 118
1, 30952, Control_c, 9, 11, 118
1, 30955, Note_on_c, 3, 73, 0
1, 30957, Note_on_c, 6, 82, 0
1, 30958, Note_on_c, 6, 82, 77
1, 30959, Note_on_c, 4, 54, 0
1, 30959, Note_on_c, 4, 66, 0
1, 30959, Note_on_c, 4, 73, 0
1, 30959, Note_on_c, 4, 58, 0
1, 30959, Note_on_c, 9, 40, 96
1, 30959, Note_on_c, 9, 42, 54
1, 30959, Note_on_c, 9, 38, 53
1, 30960, Note_on_c, 9, 38, 0
1, 30960, Note_on_c, 9, 42, 0
1, 30960, Note_on_c, 9, 40, 0
1, 30960, Note_on_c, 4, 54, 74
1, 30960, Note_on_c, 4, 66, 72
1, 30960, Note_on_c, 4, 58, 75
1, 30960, Note_on_c, 4, 73, 81
1, 30961, Note_on_c, 3, 73, 115
1, 31000, Control_c, 0, 11, 116
1, 31000, Control_c, 1, 11, 116
1, 31000, Control_c, 3, 11, 116
1, 31000, Control_c, 4, 11, 116
1, 31000, Control_c, 6, 11, 116
1, 31000, Control_c, 7, 11, 116
1, 31000, Control_c, 8, 11, 116
1, 31000, Control_c, 9, 11, 116
1, 31006, Note_on_c, 3, 73, 0
1, 31006, Note_on_c, 6, 78, 79
1, 31007, Note_on_c, 4, 73, 0
1, 31007, Note_on_c, 4, 58, 0
1, 31007, Note_on_c, 4, 66, 0
1, 31007, Note_on_c, 4, 54, 0
1, 31007, Note_on_c, 3, 73, 115
1, 31007, Note_on_c, 9, 40, 119
1, 31007, Note_on_c, 9, 38, 76
1, 31008, Note_on_c, 9, 38, 0
1, 31008, Note_on_c, 9, 40, 0
1, 31008, Note_on_c, 4, 66, 58
1, 31008, Note_on_c, 4, 54, 58
1, 31008, Note_on_c, 4, 73, 77
1, 31008, Note_on_c, 4, 58, 63
1, 31008, Note_on_c, 9, 54, 97
1, 31008, Note_on_c, 9, 42, 110
1, 31009, Note_on_c, 9, 42, 0
1, 31011, Note_on_c, 6, 82, 0
1, 31018, Note_on_c, 9, 54, 0
1, 31031, Note_on_c, 1, 42, 0
1, 31048, Control_c, 0, 11, 114
1, 31048, Control_c, 1, 11, 114
1, 31048, Control_c, 3, 11, 114
1, 31048, Control_c, 4, 11, 114
1, 31048, Control_c, 6, 11, 114
1, 31048, Control_c, 7, 11, 114
1, 31048, Control_c, 8, 11, 114
1, 31048, Control_c, 9, 11, 114
1, 31053, Note_on_c, 6, 78, 0
1, 31053, Note_on_c, 3, 73, 0
1, 31053, Note_on_c, 6, 77, 78
1, 31055, Note_on_c, 4, 73, 0
1, 31055, Note_on_c, 4, 58, 0
1, 31055, Note_on_c, 4, 66, 0
1, 31055, Note_on_c, 4, 54, 0
1, 31055, Note_on_c, 3, 77, 115
1, 31055, Note_on_c, 9, 42, 51
1, 31056, Note_on_c, 9, 42, 0
1, 31056, Note_on_c, 1, 41, 84
1, 31056, Note_on_c, 4, 77, 74
1, 31056, Note_on_c, 4, 70, 63
1, 31056, Note_on_c, 4, 58, 73
1, 31056, Note_on_c, 4, 61, 71
1, 31056, Note_on_c, 9, 35, 96
1, 31057, Note_on_c, 9, 35, 0
1, 31057, Note_on_c, 0, 73, 0
1, 31058, Note_on_c, 0, 78, 0
1, 31060, Note_on_c, 0, 70, 0
1, 31093, Note_on_c, 1, 41, 0
1, 31096, Control_c, 0, 11, 112
1, 31096, Control_c, 1, 11, 112
1, 31096, Control_c, 3, 11, 112
1, 31096, Control_c, 4, 11, 112
1, 31096, Control_c, 6, 11, 112
1, 31096, Control_c, 7, 11, 112
1, 31096, Control_c, 8, 11, 112
1, 31096, Control_c, 9, 11, 112
1, 31097, Note_on_c, 0, 66, 88
1, 31101, Note_on_c, 6, 77, 0
1, 31102, Note_on_c, 6, 75, 80
1, 31103, Note_on_c, 0, 70, 94
1, 31103, Note_on_c, 0, 75, 98
1, 31104, Note_on_c, 1, 39, 97
1, 31104, Note_on_c, 9, 42, 84
1, 31104, Note_on_c, 9, 35, 104
1, 31105, Note_on_c, 9, 35, 0
1, 31105, Note_on_c, 9, 42, 0
1, 31105, Note_on_c, 6, 63, 75
1, 31107, Note_on_c, 8, 58, 0
1, 31107, Note_on_c, 8, 54, 0
1, 31111, Note_on_c, 6, 61, 0
1, 31112, Note_on_c, 7, 61, 0
1, 31144, Control_c, 0, 11, 110
1, 31144, Control_c, 1, 11, 110
1, 31144, Control_c, 3, 11, 110
1, 31144, Control_c, 4, 11, 110
1, 31144, Control_c, 6, 11, 110
1, 31144, Control_c, 7, 11, 110
1, 31144, Control_c, 8, 11, 110
1, 31144, Control_c, 9, 11, 110
1, 31152, Note_on_c, 9, 42, 53
1, 31153, Note_on_c, 9, 42, 0
1, 31176, Note_on_c, 1, 39, 0
1, 31192, Control_c, 0, 11, 108
1, 31192, Control_c, 1, 11, 108
1, 31192, Control_c, 3, 11, 108
1, 31192, Control_c, 4, 11, 108
1, 31192, Control_c, 6, 11, 108
1, 31192, Control_c, 7, 11, 108
1, 31192, Control_c, 8, 11, 108
1, 31192, Control_c, 9, 11, 108
1, 31195, Note_on_c, 3, 77, 0
1, 31199, Note_on_c, 4, 77, 0
1, 31199, Note_on_c, 4, 61, 0
1, 31199, Note_on_c, 4, 58, 0
1, 31199, Note_on_c, 4, 70, 0
1, 31199, Note_on_c, 9, 40, 119
1, 31199, Note_on_c, 9, 38, 76
1, 31200, Note_on_c, 9, 38, 0
1, 31200, Note_on_c, 9, 40, 0
1, 31200, Note_on_c, 1, 39, 94
1, 31200, Note_on_c, 3, 77, 115
1, 31200, Note_on_c, 4, 77, 74
1, 31200, Note_on_c, 4, 61, 65
1, 31200, Note_on_c, 4, 70, 65
1, 31200, Note_on_c, 4, 58, 66
1, 31200, Note_on_c, 9, 42, 113
1, 31200, Note_on_c, 9, 54, 97
1, 31201, Note_on_c, 9, 42, 0
1, 31211, Note_on_c, 9, 54, 0
1, 31240, Control_c, 0, 11, 106
1, 31240, Control_c, 1, 11, 106
1, 31240, Control_c, 3, 11, 106
1, 31240, Control_c, 4, 11, 106
1, 31240, Control_c, 6, 11, 106
1, 31240, Control_c, 7, 11, 106
1, 31240, Control_c, 8, 11, 106
1, 31240, Control_c, 9, 11, 106
1, 31247, Note_on_c, 9, 42, 58
1, 31248, Note_on_c, 9, 42, 0
1, 31248, Note_on_c, 9, 35, 105
1, 31249, Note_on_c, 9, 35, 0
1, 31276, Note_on_c, 1, 39, 0
1, 31288, Control_c, 0, 11, 104
1, 31288, Control_c, 1, 11, 104
1, 31288, Control_c, 3, 11, 104
1, 31288, Control_c, 4, 11, 104
1, 31288, Control_c, 6, 11, 104
1, 31288, Control_c, 7, 11, 104
1, 31288, Control_c, 8, 11, 104
1, 31288, Control_c, 9, 11, 104
1, 31292, Note_on_c, 3, 77, 0
1, 31295, Note_on_c, 4, 61, 0
1, 31295, Note_on_c, 4, 77, 0
1, 31295, Note_on_c, 4, 70, 0
1, 31295, Note_on_c, 4, 58, 0
1, 31295, Note_on_c, 9, 42, 90
1, 31296, Note_on_c, 9, 42, 0
1, 31296, Note_on_c, 1, 39, 93
1, 31296, Note_on_c, 4, 68, 60
1, 31296, Note_on_c, 4, 75, 74
1, 31296, Note_on_c, 4, 60, 69
1, 31296, Note_on_c, 4, 56, 64
1, 31297, Note_on_c, 3, 75, 115
1, 31336, Control_c, 0, 11, 102
1, 31336, Control_c, 1, 11, 102
1, 31336, Control_c, 3, 11, 102
1, 31336, Control_c, 4, 11, 102
1, 31336, Control_c, 6, 11, 102
1, 31336, Control_c, 7, 11, 102
1, 31336, Control_c, 8, 11, 102
1, 31336, Control_c, 9, 11, 102
1, 31342, Note_on_c, 6, 78, 73
1, 31343, Note_on_c, 6, 75, 0
1, 31343, Note_on_c, 9, 38, 54
1, 31343, Note_on_c, 9, 40, 97
1, 31344, Note_on_c, 9, 40, 0
1, 31344, Note_on_c, 9, 38, 0
1, 31344, Note_on_c, 9, 42, 52
1, 31345, Note_on_c, 9, 42, 0
1, 31371, Note_on_c, 1, 39, 0
1, 31384, Control_c, 0, 11, 100
1, 31384, Control_c, 1, 11, 100
1, 31384, Control_c, 3, 11, 100
1, 31384, Control_c, 4, 11, 100
1, 31384, Control_c, 6, 11, 100
1, 31384, Control_c, 7, 11, 100
1, 31384, Control_c, 8, 11, 100
1, 31384, Control_c, 9, 11, 100
1, 31389, Note_on_c, 6, 78, 0
1, 31390, Note_on_c, 3, 75, 0
1, 31391, Note_on_c, 4, 75, 0
1, 31391, Note_on_c, 4, 68, 0
1, 31391, Note_on_c, 4, 60, 0
1, 31391, Note_on_c, 4, 56, 0
1, 31391, Note_on_c, 3, 73, 114
1, 31391, Note_on_c, 6, 75, 82
1, 31391, Note_on_c, 9, 38, 77
1, 31391, Note_on_c, 9, 40, 120
1, 31392, Note_on_c, 9, 40, 0
1, 31392, Note_on_c, 9, 38, 0
1, 31392, Note_on_c, 1, 39, 97
1, 31392, Note_on_c, 4, 73, 64
1, 31392, Note_on_c, 4, 54, 58
1, 31392, Note_on_c, 4, 66, 54
1, 31392, Note_on_c, 4, 58, 63
1, 31392, Note_on_c, 9, 42, 104
1, 31392, Note_on_c, 9, 54, 97
1, 31393, Note_on_c, 9, 42, 0
1, 31407, Note_on_c, 9, 54, 0
1, 31432, Control_c, 0, 11, 98
1, 31432, Control_c, 1, 11, 98
1, 31432, Control_c, 3, 11, 98
1, 31432, Control_c, 4, 11, 98
1, 31432, Control_c, 6, 11, 98
1, 31432, Control_c, 7, 11, 98
1, 31432, Control_c, 8, 11, 98
1, 31432, Control_c, 9, 11, 98
1, 31433, Note_on_c, 1, 39, 0
1, 31440, Note_on_c, 1, 39, 97
1, 31440, Note_on_c, 9, 35, 96
1, 31440, Note_on_c, 9, 42, 64
1, 31441, Note_on_c, 9, 42, 0
1, 31441, Note_on_c, 9, 35, 0
1, 31461, Note_on_c, 0, 70, 0
1, 31461, Note_on_c, 0, 66, 0
1, 31464, Note_on_c, 0, 75, 0
1, 31480, Note_on_c, 6, 58, 0
1, 31480, Note_on_c, 6, 66, 0
1, 31480, Control_c, 0, 11, 96
1, 31480, Control_c, 1, 11, 96
1, 31480, Control_c, 3, 11, 96
1, 31480, Control_c, 4, 11, 96
1, 31480, Control_c, 6, 11, 96
1, 31480, Control_c, 7, 11, 96
1, 31480, Control_c, 8, 11, 96
1, 31480, Control_c, 9, 11, 96
1, 31481, Note_on_c, 6, 63, 0
1, 31481, Note_on_c, 1, 39, 0
1, 31485, Note_on_c, 6, 56, 63
1, 31485, Note_on_c, 6, 61, 61
1, 31486, Note_on_c, 6, 75, 0
1, 31487, Note_on_c, 4, 58, 0
1, 31487, Note_on_c, 4, 66, 0
1, 31487, Note_on_c, 4, 73, 0
1, 31487, Note_on_c, 4, 54, 0
1, 31487, Note_on_c, 0, 65, 89
1, 31487, Note_on_c, 1, 37, 90
1, 31488, Note_on_c, 0, 68, 95
1, 31488, Note_on_c, 0, 73, 99
1, 31488, Note_on_c, 6, 65, 68
1, 31488, Note_on_c, 6, 68, 63
1, 31488, Note_on_c, 6, 73, 69
1, 31488, Note_on_c, 9, 35, 106
1, 31488, Note_on_c, 9, 42, 99
1, 31489, Note_on_c, 9, 42, 0
1, 31489, Note_on_c, 9, 35, 0
1, 31492, Note_on_c, 3, 73, 0
1, 31528, Control_c, 0, 11, 94
1, 31528, Control_c, 1, 11, 94
1, 31528, Control_c, 3, 11, 94
1, 31528, Control_c, 6, 11, 94
1, 31528, Control_c, 7, 11, 94
1, 31528, Control_c, 8, 11, 94
1, 31528, Control_c, 9, 11, 94
1, 31535, Note_on_c, 9, 42, 43
1, 31536, Note_on_c, 9, 42, 0
1, 31565, Note_on_c, 1, 37, 0
1, 31576, Control_c, 0, 11, 92
1, 31576, Control_c, 1, 11, 92
1, 31576, Control_c, 3, 11, 92
1, 31576, Control_c, 6, 11, 92
1, 31576, Control_c, 7, 11, 92
1, 31576, Control_c, 8, 11, 92
1, 31576, Control_c, 9, 11, 92
1, 31583, Note_on_c, 1, 37, 96
1, 31583, Note_on_c, 9, 40, 119
1, 31583, Note_on_c, 9, 38, 76
1, 31584, Note_on_c, 9, 38, 0
1, 31584, Note_on_c, 9, 40, 0
1, 31584, Note_on_c, 4, 56, 87
1, 31584, Note_on_c, 4, 77, 71
1, 31584, Note_on_c, 4, 68, 67
1, 31584, Note_on_c, 4, 53, 74
1, 31584, Note_on_c, 9, 54, 103
1, 31584, Note_on_c, 9, 42, 110
1, 31585, Note_on_c, 9, 42, 0
1, 31585, Note_on_c, 3, 77, 115
1, 31596, Note_on_c, 9, 54, 0
1, 31624, Control_c, 0, 11, 90
1, 31624, Control_c, 1, 11, 90
1, 31624, Control_c, 3, 11, 90
1, 31624, Control_c, 6, 11, 90
1, 31624, Control_c, 7, 11, 90
1, 31624, Control_c, 8, 11, 90
1, 31624, Control_c, 9, 11, 90
1, 31631, Note_on_c, 8, 56, 98
1, 31631, Note_on_c, 8, 53, 89
1, 31632, Note_on_c, 7, 61, 117
1, 31632, Note_on_c, 9, 35, 105
1, 31632, Note_on_c, 9, 42, 68
1, 31633, Note_on_c, 9, 42, 0
1, 31633, Note_on_c, 9, 35, 0
1, 31636, Note_on_c, 3, 77, 0
1, 31655, Note_on_c, 8, 56, 0
1, 31661, Note_on_c, 8, 53, 0
1, 31667, Note_on_c, 1, 37, 0
1, 31672, Control_c, 0, 11, 88
1, 31672, Control_c, 1, 11, 88
1, 31672, Control_c, 3, 11, 88
1, 31672, Control_c, 6, 11, 88
1, 31672, Control_c, 7, 11, 88
1, 31672, Control_c, 8, 11, 88
1, 31672, Control_c, 9, 11, 88
1, 31674, Note_on_c, 7, 61, 0
1, 31679, Note_on_c, 9, 42, 93
1, 31680, Note_on_c, 9, 42, 0
1, 31680, Note_on_c, 1, 37, 96
1, 31720, Control_c, 0, 11, 86
1, 31720, Control_c, 1, 11, 86
1, 31720, Control_c, 3, 11, 86
1, 31720, Control_c, 6, 11, 86
1, 31720, Control_c, 7, 11, 86
1, 31720, Control_c, 8, 11, 86
1, 31720, Control_c, 9, 11, 86
1, 31727, Note_on_c, 4, 56, 0
1, 31727, Note_on_c, 4, 77, 0
1, 31727, Note_on_c, 4, 68, 0
1, 31727, Note_on_c, 4, 53, 0
1, 31727, Note_on_c, 3, 73, 115
1, 31727, Note_on_c, 8, 56, 81
1, 31727, Note_on_c, 9, 42, 54
1, 31727, Note_on_c, 9, 38, 52
1, 31727, Note_on_c, 9, 40, 95
1, 31728, Note_on_c, 9, 40, 0
1, 31728, Note_on_c, 9, 38, 0
1, 31728, Note_on_c, 9, 42, 0
1, 31728, Note_on_c, 4, 56, 83
1, 31728, Note_on_c, 4, 70, 79
1, 31728, Note_on_c, 4, 53, 70
1, 31728, Note_on_c, 4, 65, 81
1, 31730, Note_on_c, 7, 61, 99
1, 31731, Note_on_c, 8, 53, 92
1, 31754, Note_on_c, 1, 37, 0
1, 31757, Note_on_c, 8, 56, 0
1, 31760, Note_on_c, 8, 53, 0
1, 31766, Note_on_c, 7, 61, 0
1, 31768, Control_c, 0, 11, 84
1, 31768, Control_c, 1, 11, 84
1, 31768, Control_c, 3, 11, 84
1, 31768, Control_c, 6, 11, 84
1, 31768, Control_c, 7, 11, 84
1, 31768, Note_on_c, 8, 53, 84
1, 31768, Control_c, 8, 11, 84
1, 31768, Control_c, 9, 11, 84
1, 31774, Note_on_c, 3, 73, 0
1, 31775, Note_on_c, 4, 70, 0
1, 31775, Note_on_c, 4, 65, 0
1, 31775, Note_on_c, 4, 56, 0
1, 31775, Note_on_c, 4, 53, 0
1, 31775, Note_on_c, 8, 56, 86
1, 31775, Note_on_c, 9, 38, 77
1, 31775, Note_on_c, 9, 40, 120
1, 31776, Note_on_c, 9, 40, 0
1, 31776, Note_on_c, 9, 38, 0
1, 31776, Note_on_c, 1, 37, 97
1, 31776, Note_on_c, 4, 56, 77
1, 31776, Note_on_c, 4, 68, 64
1, 31776, Note_on_c, 4, 73, 78
1, 31776, Note_on_c, 4, 53, 57
1, 31776, Note_on_c, 7, 61, 104
1, 31776, Note_on_c, 9, 54, 103
1, 31776, Note_on_c, 9, 42, 110
1, 31777, Note_on_c, 9, 42, 0
1, 31777, Note_on_c, 3, 73, 115
1, 31782, Note_on_c, 9, 54, 0
1, 31805, Note_on_c, 8, 53, 0
1, 31810, Note_on_c, 8, 56, 0
1, 31810, Note_on_c, 7, 61, 0
1, 31816, Control_c, 0, 11, 82
1, 31816, Control_c, 1, 11, 82
1, 31816, Control_c, 3, 11, 82
1, 31816, Control_c, 6, 11, 82
1, 31816, Control_c, 7, 11, 82
1, 31816, Control_c, 8, 11, 82
1, 31816, Control_c, 9, 11, 82
1, 31817, Note_on_c, 1, 37, 0
1, 31820, Note_on_c, 3, 73, 0
1, 31823, Note_on_c, 4, 68, 0
1, 31823, Note_on_c, 4, 53, 0
1, 31823, Note_on_c, 4, 56, 0
1, 31823, Note_on_c, 4, 73, 0
1, 31824, Note_on_c, 1, 36, 97
1, 31824, Note_on_c, 4, 58, 88
1, 31824, Note_on_c, 4, 75, 76
1, 31824, Note_on_c, 4, 53, 67
1, 31824, Note_on_c, 4, 70, 65
1, 31824, Note_on_c, 9, 35, 96
1, 31824, Note_on_c, 9, 42, 51
1, 31825, Note_on_c, 9, 42, 0
1, 31825, Note_on_c, 9, 35, 0
1, 31825, Note_on_c, 3, 75, 115
1, 31825, Note_on_c, 7, 61, 118
1, 31825, Note_on_c, 8, 58, 92
1, 31827, Note_on_c, 0, 73, 0
1, 31827, Note_on_c, 0, 68, 0
1, 31828, Note_on_c, 8, 53, 87
1, 31832, Note_on_c, 0, 65, 0
1, 31864, Control_c, 0, 11, 80
1, 31864, Control_c, 1, 11, 80
1, 31864, Control_c, 3, 11, 80
1, 31864, Control_c, 6, 11, 80
1, 31864, Control_c, 7, 11, 80
1, 31864, Control_c, 8, 11, 80
1, 31864, Control_c, 9, 11, 80
1, 31865, Note_on_c, 1, 36, 0
1, 31865, Note_on_c, 0, 61, 94
1, 31867, Note_on_c, 0, 65, 112
1, 31868, Note_on_c, 6, 56, 0
1, 31868, Note_on_c, 6, 61, 0
1, 31870, Note_on_c, 0, 70, 96
1, 31871, Note_on_c, 6, 65, 0
1, 31871, Note_on_c, 6, 68, 0
1, 31871, Note_on_c, 1, 34, 99
1, 31871, Note_on_c, 9, 42, 84
1, 31872, Note_on_c, 9, 42, 0
1, 31872, Note_on_c, 6, 58, 63
1, 31872, Note_on_c, 6, 65, 80
1, 31872, Note_on_c, 6, 61, 65
1, 31872, Note_on_c, 6, 70, 57
1, 31872, Note_on_c, 9, 35, 106
1, 31873, Note_on_c, 9, 35, 0
1, 31912, Control_c, 0, 11, 78
1, 31912, Control_c, 1, 11, 78
1, 31912, Control_c, 3, 11, 78
1, 31912, Control_c, 6, 11, 78
1, 31912, Control_c, 7, 11, 78
1, 31912, Control_c, 8, 11, 78
1, 31912, Control_c, 9, 11, 78
1, 31920, Note_on_c, 9, 42, 53
1, 31921, Note_on_c, 9, 42, 0
1, 31957, Note_on_c, 1, 34, 0
1, 31960, Control_c, 0, 11, 76
1, 31960, Control_c, 1, 11, 76
1, 31960, Control_c, 3, 11, 76
1, 31960, Control_c, 6, 11, 76
1, 31960, Control_c, 7, 11, 76
1, 31960, Control_c, 8, 11, 76
1, 31960, Control_c, 9, 11, 76
1, 31964, Note_on_c, 3, 75, 0
1, 31967, Note_on_c, 4, 58, 0
1, 31967, Note_on_c, 4, 75, 0
1, 31967, Note_on_c, 4, 70, 0
1, 31967, Note_on_c, 4, 53, 0
1, 31967, Note_on_c, 9, 40, 119
1, 31967, Note_on_c, 9, 38, 76
1, 31968, Note_on_c, 9, 38, 0
1, 31968, Note_on_c, 9, 40, 0
1, 31968, Note_on_c, 1, 34, 93
1, 31968, Note_on_c, 4, 58, 63
1, 31968, Note_on_c, 4, 65, 76
1, 31968, Note_on_c, 4, 73, 81
1, 31968, Note_on_c, 4, 53, 74
1, 31968, Note_on_c, 9, 54, 100
1, 31968, Note_on_c, 9, 42, 113
1, 31969, Note_on_c, 9, 42, 0
1, 31969, Note_on_c, 3, 73, 115
1, 31979, Note_on_c, 9, 54, 0
1, 32008, Control_c, 0, 11, 74
1, 32008, Control_c, 1, 11, 74
1, 32008, Control_c, 3, 11, 74
1, 32008, Control_c, 6, 11, 74
1, 32008, Control_c, 7, 11, 74
1, 32008, Control_c, 8, 11, 74
1, 32008, Control_c, 9, 11, 74
1, 32015, Note_on_c, 3, 73, 0
1, 32015, Note_on_c, 9, 42, 58
1, 32016, Note_on_c, 9, 42, 0
1, 32016, Note_on_c, 3, 70, 84
1, 32016, Note_on_c, 9, 35, 104
1, 32017, Note_on_c, 9, 35, 0
1, 32035, Pitch_bend_c, 3, 8426
1, 32037, Pitch_bend_c, 3, 13106
1, 32040, Pitch_bend_c, 3, 14744
1, 32044, Pitch_bend_c, 3, 15446
1, 32045, Note_on_c, 1, 34, 0
1, 32047, Pitch_bend_c, 3, 15914
1, 32050, Pitch_bend_c, 3, 16382
1, 32054, Pitch_bend_c, 3, 16383
1, 32056, Note_on_c, 3, 70, 0
1, 32056, Control_c, 0, 11, 72
1, 32056, Control_c, 1, 11, 72
1, 32056, Control_c, 3, 11, 72
1, 32056, Control_c, 6, 11, 72
1, 32056, Control_c, 7, 11, 72
1, 32056, Control_c, 8, 11, 72
1, 32056, Control_c, 9, 11, 72
1, 32063, Note_on_c, 4, 53, 0
1, 32063, Note_on_c, 4, 58, 0
1, 32063, Note_on_c, 4, 73, 0
1, 32063, Note_on_c, 4, 65, 0
1, 32063, Note_on_c, 1, 37, 99
1, 32063, Note_on_c, 3, 73, 115
1, 32063, Note_on_c, 9, 42, 93
1, 32064, Note_on_c, 9, 42, 0
1, 32064, Note_on_c, 4, 75, 69
1, 32064, Note_on_c, 4, 63, 73
1, 32064, Note_on_c, 4, 72, 75
1, 32064, Note_on_c, 4, 53, 65
1, 32104, Control_c, 0, 11, 70
1, 32104, Control_c, 1, 11, 70
1, 32104, Control_c, 3, 11, 70
1, 32104, Control_c, 6, 11, 70
1, 32104, Control_c, 7, 11, 70
1, 32104, Control_c, 8, 11, 70
1, 32104, Control_c, 9, 11, 70
1, 32109, Pitch_bend_c, 3, 13925
1, 32111, Pitch_bend_c, 3, 9011
1, 32111, Note_on_c, 9, 38, 53
1, 32111, Note_on_c, 9, 40, 96
1, 32112, Note_on_c, 9, 40, 0
1, 32112, Note_on_c, 9, 38, 0
1, 32112, Note_on_c, 9, 42, 52
1, 32113, Note_on_c, 9, 42, 0
1, 32114, Pitch_bend_c, 3, 8192
1, 32129, Note_on_c, 0, 61, 0
1, 32129, Note_on_c, 0, 70, 0
1, 32135, Note_on_c, 0, 65, 0
1, 32136, Note_on_c, 7, 61, 0
1, 32139, Note_on_c, 1, 37, 0
1, 32146, Note_on_c, 3, 73, 0
1, 32150, Note_on_c, 8, 53, 0
1, 32152, Control_c, 0, 11, 68
1, 32152, Control_c, 1, 11, 68
1, 32152, Control_c, 3, 11, 68
1, 32152, Control_c, 6, 11, 68
1, 32152, Control_c, 7, 11, 68
1, 32152, Control_c, 8, 11, 68
1, 32152, Control_c, 9, 11, 68
1, 32154, Note_on_c, 8, 58, 0
1, 32158, Note_on_c, 0, 61, 84
1, 32159, Note_on_c, 4, 72, 0
1, 32159, Note_on_c, 4, 75, 0
1, 32159, Note_on_c, 4, 53, 0
1, 32159, Note_on_c, 4, 63, 0
1, 32159, Note_on_c, 1, 41, 97
1, 32159, Note_on_c, 9, 38, 76
1, 32159, Note_on_c, 9, 40, 119
1, 32160, Note_on_c, 9, 40, 0
1, 32160, Note_on_c, 9, 38, 0
1, 32160, Note_on_c, 0, 65, 108
1, 32160, Note_on_c, 3, 73, 115
1, 32160, Note_on_c, 4, 70, 78
1, 32160, Note_on_c, 4, 73, 69
1, 32160, Note_on_c, 4, 53, 58
1, 32160, Note_on_c, 4, 61, 71
1, 32160, Note_on_c, 7, 61, 95
1, 32160, Note_on_c, 9, 42, 104
1, 32160, Note_on_c, 9, 54, 100
1, 32161, Note_on_c, 9, 42, 0
1, 32161, Note_on_c, 8, 58, 84
1, 32162, Note_on_c, 0, 70, 98
1, 32166, Note_on_c, 8, 53, 94
1, 32171, Note_on_c, 9, 54, 0
1, 32196, Note_on_c, 1, 41, 0
1, 32200, Control_c, 0, 11, 66
1, 32200, Control_c, 1, 11, 66
1, 32200, Control_c, 3, 11, 66
1, 32200, Control_c, 6, 11, 66
1, 32200, Control_c, 7, 11, 66
1, 32200, Control_c, 8, 11, 66
1, 32200, Control_c, 9, 11, 66
1, 32207, Note_on_c, 6, 73, 0
1, 32208, Note_on_c, 1, 41, 97
1, 32208, Note_on_c, 6, 77, 63
1, 32208, Note_on_c, 9, 35, 96
1, 32208, Note_on_c, 9, 42, 64
1, 32209, Note_on_c, 9, 42, 0
1, 32209, Note_on_c, 9, 35, 0
1, 32210, Note_on_c, 0, 61, 0
1, 32219, Note_on_c, 0, 65, 0
1, 32226, Note_on_c, 0, 70, 0
1, 32232, Note_on_c, 6, 73, 63
1, 32233, Note_on_c, 6, 77, 0
1, 32237, Note_on_c, 8, 58, 0
1, 32239, Note_on_c, 8, 53, 0
1, 32242, Note_on_c, 7, 61, 0
1, 32245, Note_on_c, 1, 41, 0
1, 32247, Note_on_c, 3, 73, 0
1, 32248, Control_c, 0, 11, 64
1, 32248, Control_c, 1, 11, 64
1, 32248, Control_c, 3, 11, 64
1, 32248, Control_c, 4, 11, 64
1, 32248, Control_c, 6, 11, 64
1, 32248, Control_c, 7, 11, 64
1, 32248, Control_c, 8, 11, 64
1, 32248, Control_c, 9, 11, 64
1, 32250, Note_on_c, 0, 70, 97
1, 32250, Note_on_c, 8, 54, 86
1, 32253, Note_on_c, 6, 70, 0
1, 32254, Note_on_c, 6, 61, 0
1, 32254, Note_on_c, 6, 58, 0
1, 32254, Note_on_c, 0, 73, 99
1, 32255, Note_on_c, 4, 73, 0
1, 32255, Note_on_c, 6, 73, 0
1, 32255, Note_on_c, 4, 70, 0
1, 32255, Note_on_c, 4, 53, 0
1, 32255, Note_on_c, 4, 61, 0
1, 32255, Note_on_c, 1, 42, 93
1, 32256, Note_on_c, 0, 78, 114
1, 32256, Note_on_c, 6, 61, 68
1, 32256, Note_on_c, 6, 66, 72
1, 32256, Note_on_c, 6, 58, 72
1, 32256, Note_on_c, 7, 61, 99
1, 32256, Note_on_c, 9, 35, 106
1, 32256, Note_on_c, 9, 42, 99
1, 32257, Note_on_c, 9, 42, 0
1, 32257, Note_on_c, 6, 65, 0
1, 32257, Note_on_c, 9, 35, 0
1, 32258, Note_on_c, 6, 70, 66
1, 32259, Note_on_c, 8, 58, 85
1, 32296, Control_c, 0, 11, 62
1, 32296, Control_c, 1, 11, 62
1, 32296, Control_c, 3, 11, 62
1, 32296, Control_c, 4, 11, 62
1, 32296, Control_c, 6, 11, 62
1, 32296, Control_c, 7, 11, 62
1, 32296, Control_c, 8, 11, 62
1, 32296, Control_c, 9, 11, 62
1, 32303, Note_on_c, 9, 42, 43
1, 32304, Note_on_c, 9, 42, 0
1, 32344, Control_c, 0, 11, 60
1, 32344, Control_c, 1, 11, 60
1, 32344, Control_c, 3, 11, 60
1, 32344, Control_c, 4, 11, 60
1, 32344, Control_c, 6, 11, 60
1, 32344, Control_c, 7, 11, 60
1, 32344, Control_c, 8, 11, 60
1, 32344, Control_c, 9, 11, 60
1, 32351, Note_on_c, 9, 40, 119
1, 32351, Note_on_c, 9, 38, 76
1, 32352, Note_on_c, 9, 38, 0
1, 32352, Note_on_c, 9, 40, 0
1, 32352, Note_on_c, 4, 66, 72
1, 32352, Note_on_c, 4, 73, 79
1, 32352, Note_on_c, 4, 54, 74
1, 32352, Note_on_c, 4, 58, 70
1, 32352, Note_on_c, 9, 42, 110
1, 32352, Note_on_c, 9, 54, 103
1, 32353, Note_on_c, 9, 42, 0
1, 32353, Note_on_c, 3, 73, 115
1, 32363, Note_on_c, 9, 54, 0
1, 32374, Note_on_c, 1, 42, 0
1, 32392, Control_c, 0, 11, 58
1, 32392, Control_c, 1, 11, 58
1, 32392, Control_c, 3, 11, 58
1, 32392, Control_c, 4, 11, 58
1, 32392, Control_c, 6, 11, 58
1, 32392, Control_c, 7, 11, 58
1, 32392, Control_c, 8, 11, 58
1, 32392, Control_c, 9, 11, 58
1, 32399, Note_on_c, 1, 42, 90
1, 32400, Note_on_c, 9, 35, 104
1, 32400, Note_on_c, 9, 42, 68
1, 32401, Note_on_c, 9, 42, 0
1, 32401, Note_on_c, 9, 35, 0
1, 32433, Note_on_c, 1, 42, 0
1, 32440, Control_c, 0, 11, 56
1, 32440, Control_c, 1, 11, 56
1, 32440, Control_c, 3, 11, 56
1, 32440, Control_c, 4, 11, 56
1, 32440, Control_c, 6, 11, 56
1, 32440, Control_c, 7, 11, 56
1, 32440, Control_c, 8, 11, 56
1, 32440, Control_c, 9, 11, 56
1, 32447, Note_on_c, 6, 82, 72
1, 32447, Note_on_c, 9, 42, 93
1, 32448, Note_on_c, 9, 42, 0
1, 32448, Note_on_c, 1, 37, 98
1, 32449, Note_on_c, 6, 70, 0
1, 32482, Note_on_c, 3, 73, 0
1, 32488, Control_c, 0, 11, 54
1, 32488, Control_c, 1, 11, 54
1, 32488, Control_c, 3, 11, 54
1, 32488, Control_c, 4, 11, 54
1, 32488, Control_c, 6, 11, 54
1, 32488, Control_c, 7, 11, 54
1, 32488, Control_c, 8, 11, 54
1, 32488, Control_c, 9, 11, 54
1, 32492, Note_on_c, 6, 82, 0
1, 32494, Note_on_c, 6, 82, 75
1, 32495, Note_on_c, 4, 73, 0
1, 32495, Note_on_c, 4, 58, 0
1, 32495, Note_on_c, 4, 66, 0
1, 32495, Note_on_c, 4, 54, 0
1, 32495, Note_on_c, 3, 73, 115
1, 32495, Note_on_c, 9, 38, 54
1, 32495, Note_on_c, 9, 42, 54
1, 32495, Note_on_c, 9, 40, 97
1, 32496, Note_on_c, 9, 40, 0
1, 32496, Note_on_c, 9, 42, 0
1, 32496, Note_on_c, 9, 38, 0
1, 32496, Note_on_c, 4, 66, 72
1, 32496, Note_on_c, 4, 54, 74
1, 32496, Note_on_c, 4, 73, 81
1, 32496, Note_on_c, 4, 58, 75
1, 32519, Note_on_c, 1, 37, 0
1, 32536, Note_on_c, 3, 73, 0
1, 32536, Control_c, 0, 11, 52
1, 32536, Control_c, 1, 11, 52
1, 32536, Control_c, 3, 11, 52
1, 32536, Control_c, 4, 11, 52
1, 32536, Control_c, 6, 11, 52
1, 32536, Control_c, 7, 11, 52
1, 32536, Control_c, 8, 11, 52
1, 32536, Control_c, 9, 11, 52
1, 32543, Note_on_c, 4, 54, 0
1, 32543, Note_on_c, 4, 58, 0
1, 32543, Note_on_c, 4, 66, 0
1, 32543, Note_on_c, 4, 73, 0
1, 32543, Note_on_c, 3, 73, 115
1, 32543, Note_on_c, 6, 78, 87
1, 32543, Note_on_c, 9, 40, 119
1, 32543, Note_on_c, 9, 38, 76
1, 32544, Note_on_c, 9, 38, 0
1, 32544, Note_on_c, 9, 40, 0
1, 32544, Note_on_c, 1, 42, 90
1, 32544, Note_on_c, 4, 66, 58
1, 32544, Note_on_c, 4, 58, 63
1, 32544, Note_on_c, 4, 73, 77
1, 32544, Note_on_c, 4, 54, 58
1, 32544, Note_on_c, 9, 54, 100
1, 32544, Note_on_c, 9, 42, 110
1, 32545, Note_on_c, 9, 42, 0
1, 32547, Note_on_c, 6, 82, 0
1, 32555, Note_on_c, 9, 54, 0
1, 32580, Note_on_c, 1, 42, 0
1, 32584, Control_c, 0, 11, 50
1, 32584, Control_c, 1, 11, 50
1, 32584, Control_c, 3, 11, 50
1, 32584, Control_c, 4, 11, 50
1, 32584, Control_c, 6, 11, 50
1, 32584, Control_c, 7, 11, 50
1, 32584, Control_c, 8, 11, 50
1, 32584, Control_c, 9, 11, 50
1, 32584, Control_c, 10, 11, 50
1, 32589, Note_on_c, 3, 73, 0
1, 32590, Note_on_c, 6, 78, 0
1, 32590, Note_on_c, 6, 77, 73
1, 32591, Note_on_c, 4, 73, 0
1, 32591, Note_on_c, 4, 54, 0
1, 32591, Note_on_c, 4, 66, 0
1, 32591, Note_on_c, 4, 58, 0
1, 32591, Note_on_c, 1, 41, 90
1, 32592, Note_on_c, 3, 77, 115
1, 32592, Note_on_c, 4, 70, 63
1, 32592, Note_on_c, 4, 77, 74
1, 32592, Note_on_c, 4, 61, 71
1, 32592, Note_on_c, 4, 58, 73
1, 32592, Note_on_c, 9, 42, 51
1, 32592, Note_on_c, 9, 35, 95
1, 32593, Note_on_c, 9, 35, 0
1, 32593, Note_on_c, 9, 42, 0
1, 32602, Note_on_c, 0, 78, 0
1, 32602, Note_on_c, 0, 70, 0
1, 32602, Note_on_c, 0, 73, 0
1, 32625, Note_on_c, 8, 54, 0
1, 32625, Note_on_c, 8, 58, 0
1, 32627, Note_on_c, 1, 41, 0
1, 32632, Control_c, 0, 11, 48
1, 32632, Control_c, 1, 11, 48
1, 32632, Control_c, 3, 11, 48
1, 32632, Control_c, 4, 11, 48
1, 32632, Control_c, 6, 11, 48
1, 32632, Control_c, 7, 11, 48
1, 32632, Control_c, 8, 11, 48
1, 32632, Control_c, 9, 11, 48
1, 32632, Control_c, 10, 11, 48
1, 32635, Note_on_c, 6, 63, 75
1, 32637, Note_on_c, 6, 61, 0
1, 32638, Note_on_c, 0, 66, 92
1, 32639, Note_on_c, 0, 70, 94
1, 32639, Note_on_c, 1, 39, 90
1, 32639, Note_on_c, 6, 75, 82
1, 32639, Note_on_c, 9, 42, 84
1, 32640, Note_on_c, 9, 42, 0
1, 32640, Note_on_c, 9, 35, 105
1, 32641, Note_on_c, 9, 35, 0
1, 32641, Note_on_c, 6, 77, 0
1, 32642, Note_on_c, 0, 75, 105
1, 32656, Note_on_c, 7, 61, 0
1, 32680, Control_c, 0, 11, 46
1, 32680, Control_c, 1, 11, 46
1, 32680, Control_c, 3, 11, 46
1, 32680, Control_c, 4, 11, 46
1, 32680, Control_c, 6, 11, 46
1, 32680, Control_c, 7, 11, 46
1, 32680, Control_c, 8, 11, 46
1, 32680, Control_c, 9, 11, 46
1, 32680, Control_c, 10, 11, 46
1, 32688, Note_on_c, 9, 42, 53
1, 32689, Note_on_c, 9, 42, 0
1, 32719, Note_on_c, 1, 39, 0
1, 32721, Note_on_c, 3, 77, 0
1, 32728, Control_c, 0, 11, 44
1, 32728, Control_c, 1, 11, 44
1, 32728, Control_c, 3, 11, 44
1, 32728, Control_c, 4, 11, 44
1, 32728, Control_c, 6, 11, 44
1, 32728, Control_c, 7, 11, 44
1, 32728, Control_c, 8, 11, 44
1, 32728, Control_c, 9, 11, 44
1, 32728, Control_c, 10, 11, 44
1, 32735, Note_on_c, 4, 77, 0
1, 32735, Note_on_c, 4, 58, 0
1, 32735, Note_on_c, 4, 70, 0
1, 32735, Note_on_c, 4, 61, 0
1, 32735, Note_on_c, 9, 40, 119
1, 32735, Note_on_c, 9, 38, 76
1, 32736, Note_on_c, 9, 38, 0
1, 32736, Note_on_c, 9, 40, 0
1, 32736, Note_on_c, 1, 39, 88
1, 32736, Note_on_c, 4, 70, 65
1, 32736, Note_on_c, 4, 77, 74
1, 32736, Note_on_c, 4, 58, 66
1, 32736, Note_on_c, 4, 61, 65
1, 32736, Note_on_c, 9, 54, 103
1, 32736, Note_on_c, 9, 42, 113
1, 32737, Note_on_c, 9, 42, 0
1, 32737, Note_on_c, 3, 77, 115
1, 32746, Note_on_c, 9, 54, 0
1, 32776, Control_c, 0, 11, 42
1, 32776, Control_c, 1, 11, 42
1, 32776, Control_c, 3, 11, 42
1, 32776, Control_c, 4, 11, 42
1, 32776, Control_c, 6, 11, 42
1, 32776, Control_c, 7, 11, 42
1, 32776, Control_c, 8, 11, 42
1, 32776, Control_c, 9, 11, 42
1, 32776, Control_c, 10, 11, 42
1, 32783, Note_on_c, 9, 42, 58
1, 32784, Note_on_c, 9, 42, 0
1, 32784, Note_on_c, 9, 35, 104
1, 32785, Note_on_c, 9, 35, 0
1, 32814, Note_on_c, 1, 39, 0
1, 32824, Control_c, 0, 11, 40
1, 32824, Control_c, 1, 11, 40
1, 32824, Control_c, 3, 11, 40
1, 32824, Control_c, 4, 11, 40
1, 32824, Control_c, 6, 11, 40
1, 32824, Control_c, 7, 11, 40
1, 32824, Control_c, 8, 11, 40
1, 32824, Control_c, 9, 11, 40
1, 32824, Control_c, 10, 11, 40
1, 32829, Note_on_c, 3, 77, 0
1, 32830, Note_on_c, 3, 75, 115
1, 32831, Note_on_c, 4, 58, 0
1, 32831, Note_on_c, 4, 77, 0
1, 32831, Note_on_c, 4, 70, 0
1, 32831, Note_on_c, 4, 61, 0
1, 32831, Note_on_c, 9, 42, 95
1, 32832, Note_on_c, 9, 42, 0
1, 32832, Note_on_c, 1, 34, 90
1, 32832, Note_on_c, 4, 56, 64
1, 32832, Note_on_c, 4, 75, 74
1, 32832, Note_on_c, 4, 68, 60
1, 32832, Note_on_c, 4, 60, 69
1, 32872, Control_c, 0, 11, 38
1, 32872, Control_c, 1, 11, 38
1, 32872, Control_c, 3, 11, 38
1, 32872, Control_c, 4, 11, 38
1, 32872, Control_c, 6, 11, 38
1, 32872, Control_c, 7, 11, 38
1, 32872, Control_c, 8, 11, 38
1, 32872, Control_c, 9, 11, 38
1, 32872, Control_c, 10, 11, 38
1, 32877, Note_on_c, 6, 75, 0
1, 32878, Note_on_c, 6, 78, 73
1, 32879, Note_on_c, 9, 38, 52
1, 32879, Note_on_c, 9, 40, 95
1, 32880, Note_on_c, 9, 40, 0
1, 32880, Note_on_c, 9, 38, 0
1, 32880, Note_on_c, 9, 42, 52
1, 32881, Note_on_c, 9, 42, 0
1, 32903, Note_on_c, 0, 75, 0
1, 32904, Note_on_c, 1, 34, 0
1, 32907, Note_on_c, 0, 66, 0
1, 32909, Note_on_c, 0, 70, 0
1, 32920, Control_c, 0, 11, 36
1, 32920, Control_c, 1, 11, 36
1, 32920, Control_c, 3, 11, 36
1, 32920, Control_c, 4, 11, 36
1, 32920, Control_c, 6, 11, 36
1, 32920, Control_c, 7, 11, 36
1, 32920, Control_c, 8, 11, 36
1, 32920, Control_c, 9, 11, 36
1, 32920, Control_c, 10, 11, 36
1, 32926, Note_on_c, 3, 75, 0
1, 32927, Note_on_c, 4, 56, 0
1, 32927, Note_on_c, 4, 75, 0
1, 32927, Note_on_c, 4, 60, 0
1, 32927, Note_on_c, 4, 68, 0
1, 32927, Note_on_c, 3, 73, 115
1, 32927, Note_on_c, 6, 75, 82
1, 32927, Note_on_c, 9, 38, 75
1, 32927, Note_on_c, 9, 40, 118
1, 32928, Note_on_c, 9, 40, 0
1, 32928, Note_on_c, 9, 38, 0
1, 32928, Note_on_c, 1, 39, 92
1, 32928, Note_on_c, 4, 58, 63
1, 32928, Note_on_c, 4, 66, 54
1, 32928, Note_on_c, 4, 73, 64
1, 32928, Note_on_c, 4, 54, 58
1, 32928, Note_on_c, 9, 54, 103
1, 32928, Note_on_c, 9, 42, 104
1, 32929, Note_on_c, 9, 42, 0
1, 32929, Note_on_c, 6, 78, 0
1, 32932, Note_on_c, 0, 66, 92
1, 32933, Note_on_c, 0, 70, 97
1, 32934, Note_on_c, 0, 75, 101
1, 32939, Note_on_c, 9, 54, 0
1, 32959, Note_on_c, 1, 39, 0
1, 32968, Control_c, 0, 11, 34
1, 32968, Control_c, 1, 11, 34
1, 32968, Control_c, 3, 11, 34
1, 32968, Control_c, 4, 11, 34
1, 32968, Control_c, 6, 11, 34
1, 32968, Control_c, 7, 11, 34
1, 32968, Control_c, 8, 11, 34
1, 32968, Control_c, 9, 11, 34
1, 32968, Control_c, 10, 11, 34
1, 32974, Note_on_c, 3, 73, 0
1, 32976, Note_on_c, 1, 38, 86
1, 32976, Note_on_c, 3, 70, 95
1, 32976, Note_on_c, 9, 42, 64
1, 32976, Note_on_c, 9, 35, 96
1, 32977, Note_on_c, 9, 35, 0
1, 32977, Note_on_c, 9, 42, 0
1, 33000, Note_on_c, 0, 66, 0
1, 33004, Note_on_c, 0, 70, 0
1, 33007, Note_on_c, 1, 38, 0
1, 33008, Note_on_c, 0, 75, 0
1, 33016, Control_c, 0, 11, 32
1, 33016, Control_c, 1, 11, 32
1, 33016, Control_c, 3, 11, 32
1, 33016, Control_c, 4, 11, 32
1, 33016, Control_c, 6, 11, 32
1, 33016, Control_c, 7, 11, 32
1, 33016, Control_c, 8, 11, 32
1, 33016, Control_c, 9, 11, 32
1, 33016, Control_c, 10, 11, 32
1, 33020, Note_on_c, 6, 56, 63
1, 33021, Note_on_c, 6, 63, 0
1, 33022, Note_on_c, 6, 65, 85
1, 33022, Note_on_c, 6, 61, 74
1, 33023, Note_on_c, 4, 73, 0
1, 33023, Note_on_c, 4, 66, 0
1, 33023, Note_on_c, 6, 66, 0
1, 33023, Note_on_c, 4, 58, 0
1, 33023, Note_on_c, 6, 58, 0
1, 33023, Note_on_c, 4, 54, 0
1, 33023, Note_on_c, 6, 73, 64
1, 33023, Note_on_c, 6, 68, 67
1, 33024, Note_on_c, 0, 68, 99
1, 33024, Note_on_c, 0, 65, 81
1, 33024, Note_on_c, 0, 73, 87
1, 33024, Note_on_c, 1, 37, 87
1, 33024, Note_on_c, 9, 42, 99
1, 33024, Note_on_c, 9, 35, 106
1, 33025, Note_on_c, 9, 35, 0
1, 33025, Note_on_c, 9, 42, 0
1, 33027, Note_on_c, 6, 75, 0
1, 33033, Note_on_c, 3, 70, 0
1, 33064, Control_c, 0, 11, 30
1, 33064, Control_c, 1, 11, 30
1, 33064, Control_c, 3, 11, 30
1, 33064, Control_c, 6, 11, 30
1, 33064, Control_c, 7, 11, 30
1, 33064, Control_c, 8, 11, 30
1, 33064, Control_c, 9, 11, 30
1, 33064, Control_c, 10, 11, 30
1, 33071, Note_on_c, 9, 42, 43
1, 33072, Note_on_c, 9, 42, 0
1, 33100, Note_on_c, 1, 37, 0
1, 33112, Control_c, 0, 11, 28
1, 33112, Control_c, 1, 11, 28
1, 33112, Control_c, 3, 11, 28
1, 33112, Control_c, 6, 11, 28
1, 33112, Control_c, 7, 11, 28
1, 33112, Control_c, 8, 11, 28
1, 33112, Control_c, 9, 11, 28
1, 33119, Note_on_c, 1, 37, 96
1, 33119, Note_on_c, 9, 38, 77
1, 33119, Note_on_c, 9, 40, 120
1, 33120, Note_on_c, 9, 40, 0
1, 33120, Note_on_c, 9, 38, 0
1, 33120, Note_on_c, 4, 68, 67
1, 33120, Note_on_c, 4, 53, 74
1, 33120, Note_on_c, 4, 77, 71
1, 33120, Note_on_c, 4, 56, 87
1, 33120, Note_on_c, 9, 42, 110
1, 33120, Note_on_c, 9, 54, 100
1, 33121, Note_on_c, 9, 42, 0
1, 33121, Note_on_c, 3, 77, 115
1, 33130, Note_on_c, 9, 54, 0
1, 33160, Control_c, 0, 11, 26
1, 33160, Control_c, 1, 11, 26
1, 33160, Control_c, 3, 11, 26
1, 33160, Control_c, 6, 11, 26
1, 33160, Control_c, 7, 11, 26
1, 33160, Control_c, 8, 11, 26
1, 33160, Control_c, 9, 11, 26
1, 33167, Note_on_c, 8, 56, 99
1, 33168, Note_on_c, 7, 61, 107
1, 33168, Note_on_c, 8, 53, 84
1, 33168, Note_on_c, 9, 35, 104
1, 33168, Note_on_c, 9, 42, 68
1, 33169, Note_on_c, 9, 42, 0
1, 33169, Note_on_c, 9, 35, 0
1, 33172, Note_on_c, 3, 77, 0
1, 33189, Note_on_c, 8, 56, 0
1, 33196, Note_on_c, 8, 53, 0
1, 33202, Note_on_c, 1, 37, 0
1, 33204, Note_on_c, 7, 61, 0
1, 33208, Control_c, 0, 11, 24
1, 33208, Control_c, 1, 11, 24
1, 33208, Control_c, 3, 11, 24
1, 33208, Control_c, 6, 11, 24
1, 33208, Control_c, 7, 11, 24
1, 33208, Control_c, 8, 11, 24
1, 33208, Control_c, 9, 11, 24
1, 33215, Note_on_c, 9, 42, 90
1, 33216, Note_on_c, 9, 42, 0
1, 33216, Note_on_c, 1, 37, 81
1, 33256, Control_c, 0, 11, 22
1, 33256, Control_c, 1, 11, 22
1, 33256, Control_c, 3, 11, 22
1, 33256, Control_c, 6, 11, 22
1, 33256, Control_c, 7, 11, 22
1, 33256, Control_c, 8, 11, 22
1, 33256, Control_c, 9, 11, 22
1, 33263, Note_on_c, 4, 68, 0
1, 33263, Note_on_c, 4, 53, 0
1, 33263, Note_on_c, 4, 77, 0
1, 33263, Note_on_c, 4, 56, 0
1, 33263, Note_on_c, 3, 73, 115
1, 33263, Note_on_c, 9, 40, 96
1, 33263, Note_on_c, 9, 42, 54
1, 33263, Note_on_c, 9, 38, 53
1, 33264, Note_on_c, 9, 38, 0
1, 33264, Note_on_c, 9, 42, 0
1, 33264, Note_on_c, 9, 40, 0
1, 33264, Note_on_c, 4, 56, 83
1, 33264, Note_on_c, 4, 70, 79
1, 33264, Note_on_c, 4, 53, 70
1, 33264, Note_on_c, 4, 65, 81
1, 33265, Note_on_c, 8, 56, 91
1, 33265, Note_on_c, 8, 53, 87
1, 33266, Note_on_c, 7, 61, 92
1, 33284, Note_on_c, 0, 65, 0
1, 33287, Note_on_c, 1, 37, 0
1, 33288, Note_on_c, 0, 73, 0
1, 33290, Note_on_c, 0, 68, 0
1, 33293, Note_on_c, 8, 56, 0
1, 33295, Note_on_c, 8, 53, 0
1, 33300, Note_on_c, 7, 61, 0
1, 33304, Control_c, 0, 11, 20
1, 33304, Control_c, 1, 11, 20
1, 33304, Control_c, 3, 11, 20
1, 33304, Control_c, 6, 11, 20
1, 33304, Control_c, 7, 11, 20
1, 33304, Control_c, 8, 11, 20
1, 33304, Control_c, 9, 11, 20
1, 33310, Note_on_c, 3, 73, 0
1, 33311, Note_on_c, 4, 56, 0
1, 33311, Note_on_c, 4, 70, 0
1, 33311, Note_on_c, 4, 53, 0
1, 33311, Note_on_c, 4, 65, 0
1, 33311, Note_on_c, 0, 65, 78
1, 33311, Note_on_c, 7, 61, 97
1, 33311, Note_on_c, 8, 56, 89
1, 33311, Note_on_c, 8, 53, 92
1, 33311, Note_on_c, 9, 40, 119
1, 33311, Note_on_c, 9, 38, 76
1, 33312, Note_on_c, 9, 38, 0
1, 33312, Note_on_c, 9, 40, 0
1, 33312, Note_on_c, 1, 37, 96
1, 33312, Note_on_c, 4, 56, 77
1, 33312, Note_on_c, 4, 68, 64
1, 33312, Note_on_c, 4, 73, 78
1, 33312, Note_on_c, 4, 53, 57
1, 33312, Note_on_c, 9, 54, 97
1, 33312, Note_on_c, 9, 42, 110
1, 33313, Note_on_c, 9, 42, 0
1, 33313, Note_on_c, 3, 73, 115
1, 33314, Note_on_c, 0, 68, 95
1, 33314, Note_on_c, 0, 73, 101
1, 33322, Note_on_c, 9, 54, 0
1, 33342, Note_on_c, 1, 37, 0
1, 33343, Note_on_c, 8, 56, 0
1, 33350, Note_on_c, 8, 53, 0
1, 33351, Note_on_c, 7, 61, 0
1, 33352, Control_c, 0, 11, 18
1, 33352, Control_c, 1, 11, 18
1, 33352, Control_c, 3, 11, 18
1, 33352, Control_c, 6, 11, 18
1, 33352, Control_c, 7, 11, 18
1, 33352, Control_c, 8, 11, 18
1, 33352, Control_c, 9, 11, 18
1, 33356, Note_on_c, 3, 73, 0
1, 33359, Note_on_c, 4, 73, 0
1, 33359, Note_on_c, 4, 56, 0
1, 33359, Note_on_c, 4, 68, 0
1, 33359, Note_on_c, 4, 53, 0
1, 33359, Note_on_c, 1, 36, 87
1, 33359, Note_on_c, 8, 58, 93
1, 33360, Note_on_c, 4, 70, 65
1, 33360, Note_on_c, 4, 53, 67
1, 33360, Note_on_c, 4, 58, 88
1, 33360, Note_on_c, 4, 75, 76
1, 33360, Note_on_c, 8, 53, 87
1, 33360, Note_on_c, 9, 35, 96
1, 33360, Note_on_c, 9, 42, 51
1, 33361, Note_on_c, 9, 42, 0
1, 33361, Note_on_c, 9, 35, 0
1, 33361, Note_on_c, 3, 75, 115
1, 33367, Note_on_c, 7, 61, 97
1, 33373, Note_on_c, 0, 73, 0
1, 33377, Note_on_c, 0, 68, 0
1, 33381, Note_on_c, 0, 65, 0
1, 33392, Note_on_c, 1, 36, 0
1, 33400, Control_c, 0, 11, 16
1, 33400, Control_c, 1, 11, 16
1, 33400, Control_c, 3, 11, 16
1, 33400, Control_c, 6, 11, 16
1, 33400, Control_c, 7, 11, 16
1, 33400, Control_c, 8, 11, 16
1, 33400, Control_c, 9, 11, 16
1, 33405, Note_on_c, 6, 61, 0
1, 33405, Note_on_c, 6, 65, 0
1, 33406, Note_on_c, 6, 56, 0
1, 33406, Note_on_c, 6, 68, 0
1, 33406, Note_on_c, 6, 61, 69
1, 33406, Note_on_c, 6, 70, 72
1, 33406, Note_on_c, 6, 65, 79
1, 33407, Note_on_c, 9, 42, 84
1, 33408, Note_on_c, 9, 42, 0
1, 33408, Note_on_c, 0, 65, 101
1, 33408, Note_on_c, 0, 61, 87
1, 33408, Note_on_c, 0, 70, 87
1, 33408, Note_on_c, 1, 34, 95
1, 33408, Note_on_c, 9, 35, 106
1, 33409, Note_on_c, 9, 35, 0
1, 33410, Note_on_c, 6, 58, 73
1, 33448, Control_c, 0, 11, 14
1, 33448, Control_c, 1, 11, 14
1, 33448, Control_c, 3, 11, 14
1, 33448, Control_c, 6, 11, 14
1, 33448, Control_c, 7, 11, 14
1, 33448, Control_c, 8, 11, 14
1, 33448, Control_c, 9, 11, 14
1, 33456, Note_on_c, 9, 42, 53
1, 33457, Note_on_c, 9, 42, 0
1, 33486, Note_on_c, 1, 34, 0
1, 33496, Control_c, 0, 11, 12
1, 33496, Control_c, 1, 11, 12
1, 33496, Control_c, 3, 11, 12
1, 33496, Control_c, 6, 11, 12
1, 33496, Control_c, 7, 11, 12
1, 33496, Control_c, 8, 11, 12
1, 33496, Control_c, 9, 11, 12
1, 33500, Note_on_c, 3, 75, 0
1, 33503, Note_on_c, 4, 75, 0
1, 33503, Note_on_c, 4, 70, 0
1, 33503, Note_on_c, 4, 58, 0
1, 33503, Note_on_c, 4, 53, 0
1, 33503, Note_on_c, 9, 40, 119
1, 33503, Note_on_c, 9, 38, 76
1, 33504, Note_on_c, 9, 38, 0
1, 33504, Note_on_c, 9, 40, 0
1, 33504, Note_on_c, 1, 34, 99
1, 33504, Note_on_c, 4, 65, 76
1, 33504, Note_on_c, 4, 58, 63
1, 33504, Note_on_c, 4, 73, 81
1, 33504, Note_on_c, 4, 53, 74
1, 33504, Note_on_c, 9, 54, 97
1, 33504, Note_on_c, 9, 42, 113
1, 33505, Note_on_c, 9, 42, 0
1, 33505, Note_on_c, 3, 73, 112
1, 33515, Note_on_c, 9, 54, 0
1, 33544, Control_c, 0, 11, 10
1, 33544, Control_c, 1, 11, 10
1, 33544, Control_c, 3, 11, 10
1, 33544, Control_c, 6, 11, 10
1, 33544, Control_c, 7, 11, 10
1, 33544, Control_c, 8, 11, 10
1, 33544, Control_c, 9, 11, 10
1, 33551, Note_on_c, 3, 73, 0
1, 33551, Note_on_c, 9, 42, 58
1, 33552, Note_on_c, 9, 42, 0
1, 33552, Note_on_c, 3, 70, 79
1, 33552, Note_on_c, 9, 35, 104
1, 33553, Note_on_c, 9, 35, 0
1, 33571, Pitch_bend_c, 3, 8426
1, 33573, Note_on_c, 1, 34, 0
1, 33573, Pitch_bend_c, 3, 13106
1, 33574, Note_on_c, 3, 70, 0
1, 33576, Pitch_bend_c, 3, 14744
1, 33580, Pitch_bend_c, 3, 15446
1, 33583, Pitch_bend_c, 3, 15914
1, 33586, Pitch_bend_c, 3, 16382
1, 33590, Pitch_bend_c, 3, 16383
1, 33592, Control_c, 0, 11, 8
1, 33592, Control_c, 1, 11, 8
1, 33592, Control_c, 3, 11, 8
1, 33592, Control_c, 6, 11, 8
1, 33592, Control_c, 7, 11, 8
1, 33592, Control_c, 8, 11, 8
1, 33592, Control_c, 9, 11, 8
1, 33599, Note_on_c, 4, 53, 0
1, 33599, Note_on_c, 4, 65, 0
1, 33599, Note_on_c, 4, 73, 0
1, 33599, Note_on_c, 4, 58, 0
1, 33599, Note_on_c, 3, 73, 115
1, 33599, Note_on_c, 9, 42, 90
1, 33600, Note_on_c, 9, 42, 0
1, 33600, Note_on_c, 1, 34, 98
1, 33600, Note_on_c, 4, 63, 73
1, 33600, Note_on_c, 4, 72, 75
1, 33600, Note_on_c, 4, 75, 69
1, 33600, Note_on_c, 4, 53, 65
1, 33640, Control_c, 0, 11, 6
1, 33640, Control_c, 1, 11, 6
1, 33640, Control_c, 3, 11, 6
1, 33640, Control_c, 6, 11, 6
1, 33640, Control_c, 7, 11, 6
1, 33640, Control_c, 8, 11, 6
1, 33640, Control_c, 9, 11, 6
1, 33645, Pitch_bend_c, 3, 13925
1, 33647, Pitch_bend_c, 3, 9011
1, 33647, Note_on_c, 9, 38, 52
1, 33647, Note_on_c, 9, 40, 95
1, 33648, Note_on_c, 9, 40, 0
1, 33648, Note_on_c, 9, 38, 0
1, 33648, Note_on_c, 9, 42, 52
1, 33649, Note_on_c, 9, 42, 0
1, 33650, Pitch_bend_c, 3, 8192
1, 33671, Note_on_c, 0, 70, 0
1, 33671, Note_on_c, 0, 65, 0
1, 33671, Note_on_c, 0, 61, 0
1, 33674, Note_on_c, 8, 53, 0
1, 33676, Note_on_c, 1, 34, 0
1, 33678, Note_on_c, 7, 61, 0
1, 33682, Note_on_c, 3, 73, 0
1, 33683, Note_on_c, 8, 58, 0
1, 33688, Control_c, 0, 11, 4
1, 33688, Control_c, 1, 11, 4
1, 33688, Control_c, 3, 11, 4
1, 33688, Control_c, 6, 11, 4
1, 33688, Control_c, 7, 11, 4
1, 33688, Control_c, 8, 11, 4
1, 33688, Control_c, 9, 11, 4
1, 33695, Note_on_c, 4, 72, 0
1, 33695, Note_on_c, 4, 53, 0
1, 33695, Note_on_c, 4, 63, 0
1, 33695, Note_on_c, 4, 75, 0
1, 33695, Note_on_c, 0, 65, 112
1, 33695, Note_on_c, 0, 77, 98
1, 33695, Note_on_c, 0, 70, 120
1, 33695, Note_on_c, 0, 73, 109
1, 33695, Note_on_c, 1, 37, 97
1, 33695, Note_on_c, 8, 53, 96
1, 33695, Note_on_c, 9, 40, 120
1, 33695, Note_on_c, 9, 38, 77
1, 33696, Note_on_c, 9, 38, 0
1, 33696, Note_on_c, 9, 40, 0
1, 33696, Note_on_c, 3, 73, 115
1, 33696, Note_on_c, 4, 61, 71
1, 33696, Note_on_c, 4, 70, 78
1, 33696, Note_on_c, 4, 53, 58
1, 33696, Note_on_c, 4, 73, 69
1, 33696, Note_on_c, 7, 61, 103
1, 33696, Note_on_c, 8, 58, 79
1, 33696, Note_on_c, 9, 42, 104
1, 33696, Note_on_c, 9, 54, 97
1, 33697, Note_on_c, 9, 42, 0
1, 33711, Note_on_c, 9, 54, 0
1, 33734, Note_on_c, 1, 37, 0
1, 33736, Control_c, 0, 11, 2
1, 33736, Control_c, 1, 11, 2
1, 33736, Control_c, 3, 11, 2
1, 33736, Control_c, 4, 11, 2
1, 33736, Control_c, 6, 11, 2
1, 33736, Control_c, 7, 11, 2
1, 33736, Control_c, 8, 11, 2
1, 33736, Control_c, 9, 11, 2
1, 33743, Note_on_c, 1, 41, 92
1, 33744, Note_on_c, 9, 35, 96
1, 33744, Note_on_c, 9, 42, 64
1, 33745, Note_on_c, 9, 42, 0
1, 33745, Note_on_c, 9, 35, 0
1, 33767, Note_on_c, 0, 77, 0
1, 33773, Note_on_c, 8, 53, 0
1, 33775, Note_on_c, 1, 41, 0
1, 33776, Note_on_c, 7, 61, 0
1, 33776, Note_on_c, 0, 70, 0
1, 33776, Note_on_c, 0, 65, 0
1, 33779, Note_on_c, 8, 58, 0
1, 33781, Note_on_c, 0, 73, 0
1, 33783, Note_on_c, 3, 73, 0
1, 33784, Control_c, 0, 11, 0
1, 33784, Control_c, 1, 11, 0
1, 33784, Control_c, 3, 11, 0
1, 33784, Control_c, 4, 11, 0
1, 33784, Control_c, 6, 11, 0
1, 33784, Control_c, 7, 11, 0
1, 33784, Control_c, 8, 11, 0
1, 33784, Control_c, 9, 11, 0
1, 33787, Note_on_c, 6, 73, 0
1, 33789, Note_on_c, 6, 61, 0
1, 33789, Note_on_c, 6, 65, 0
1, 33789, Note_on_c, 6, 70, 0
1, 33791, Note_on_c, 4, 53, 0
1, 33791, Note_on_c, 4, 73, 0
1, 33791, Note_on_c, 4, 61, 0
1, 33791, Note_on_c, 4, 70, 0
1, 33793, Note_on_c, 6, 58, 0
1, 34168, Control_c, 0, 11, 127
1, 34168, Control_c, 1, 11, 127
1, 34168, Control_c, 3, 11, 127
1, 34168, Control_c, 4, 11, 127
1, 34168, Control_c, 6, 11, 127
1, 34168, Control_c, 7, 11, 127
1, 34168, Control_c, 8, 11, 127
1, 34168, Control_c, 9, 11, 127
1, 34168, End_track
0, 0, End_of_file
