0, 0, Header, 0, 1, 480
1, 0, Start_track
1, 0, Title_t, "Back to Black"
1, 0, Instrument_name_t, " Dispositivo GM"
1, 0, Time_signature, 4, 2, 24, 8
1, 0, Key_signature, 0, "major"
1, 0, SMPTE_offset, 32, 0, 0, 0, 0
1, 0, Tempo, 486223
1, 0, Lyric_t, "All "
1, 0, Lyric_t, "rights"
1, 0, Lyric_t, " re"
1, 0, Lyric_t, "served "
1, 0, Lyric_t, "\015"
1, 4, System_exclusive, 5, 126, 127, 9, 1, 247
1, 32, System_exclusive, 10, 65, 16, 66, 18, 64, 0, 127, 0, 65, 247
1, 152, System_exclusive, 26, 65, 16, 66, 18, 64, 1, 0, 40, 99, 41, 32, 81, 85, 65, 78, 84, 85, 77, 32, 74, 85, 77, 80, 32, 68, 247
1, 480, Control_c, 1, 121, 0
1, 480, System_exclusive, 10, 65, 16, 66, 18, 64, 0, 4, 127, 61, 247
1, 484, Text_t, "QUANTUM JUMP"
1, 485, Control_c, 1, 10, 64
1, 490, Control_c, 1, 93, 38
1, 495, Control_c, 1, 91, 4
1, 500, Control_c, 1, 11, 127
1, 505, Control_c, 1, 7, 95
1, 510, Pitch_bend_c, 1, 8192
1, 515, Control_c, 1, 0, 0
1, 520, Program_c, 1, 32
1, 525, Control_c, 2, 121, 0
1, 528, System_exclusive, 10, 65, 16, 66, 18, 64, 1, 48, 4, 11, 247
1, 530, Control_c, 2, 10, 56
1, 535, Control_c, 2, 93, 6
1, 540, Control_c, 2, 91, 77
1, 545, Control_c, 2, 11, 127
1, 550, Control_c, 2, 7, 73
1, 550, System_exclusive, 10, 65, 16, 66, 18, 64, 1, 51, 76, 64, 247
1, 555, Pitch_bend_c, 2, 8192
1, 560, Control_c, 2, 0, 0
1, 565, Program_c, 2, 49
1, 570, Control_c, 3, 121, 0
1, 575, Control_c, 3, 10, 64
1, 575, System_exclusive, 10, 65, 16, 66, 18, 64, 1, 52, 80, 59, 247
1, 580, Control_c, 3, 93, 14
1, 585, Control_c, 3, 91, 80
1, 590, Control_c, 3, 11, 127
1, 595, Control_c, 3, 7, 96
1, 600, Pitch_bend_c, 3, 8192
1, 600, System_exclusive, 10, 65, 16, 66, 18, 64, 1, 56, 2, 5, 247
1, 605, Control_c, 3, 0, 0
1, 610, Program_c, 3, 73
1, 623, System_exclusive, 10, 65, 16, 66, 18, 64, 1, 58, 96, 37, 247
1, 648, System_exclusive, 10, 65, 16, 66, 18, 64, 1, 59, 12, 120, 247
1, 660, Control_c, 4, 121, 0
1, 665, Control_c, 4, 10, 57
1, 670, Control_c, 4, 93, 1
1, 670, System_exclusive, 10, 65, 16, 66, 18, 64, 1, 61, 2, 0, 247
1, 675, Control_c, 4, 91, 83
1, 680, Control_c, 4, 11, 127
1, 685, Control_c, 4, 7, 106
1, 690, Pitch_bend_c, 4, 8192
1, 695, Control_c, 4, 0, 0
1, 695, System_exclusive, 10, 65, 16, 66, 18, 64, 1, 62, 24, 105, 247
1, 700, Program_c, 4, 52
1, 705, Control_c, 6, 121, 0
1, 710, Control_c, 6, 10, 48
1, 715, Control_c, 6, 93, 22
1, 720, Control_c, 6, 91, 82
1, 725, Control_c, 6, 11, 127
1, 730, Control_c, 6, 7, 85
1, 735, Pitch_bend_c, 6, 8192
1, 740, Control_c, 6, 0, 0
1, 745, Program_c, 6, 60
1, 750, Control_c, 7, 121, 0
1, 750, Control_c, 10, 121, 0
1, 751, Control_c, 13, 121, 0
1, 751, Control_c, 14, 121, 0
1, 755, Control_c, 7, 10, 45
1, 755, Control_c, 10, 10, 69
1, 756, Control_c, 13, 10, 98
1, 756, Control_c, 14, 10, 92
1, 760, Control_c, 7, 93, 15
1, 760, Control_c, 10, 93, 19
1, 761, Control_c, 13, 93, 19
1, 761, Control_c, 14, 93, 22
1, 765, Control_c, 7, 91, 70
1, 765, Control_c, 10, 91, 95
1, 766, Control_c, 13, 91, 94
1, 766, Control_c, 14, 91, 95
1, 770, Control_c, 7, 11, 127
1, 770, Control_c, 10, 11, 127
1, 771, Control_c, 13, 11, 127
1, 771, Control_c, 14, 11, 127
1, 775, Control_c, 7, 7, 74
1, 775, Control_c, 10, 7, 79
1, 776, Control_c, 13, 7, 94
1, 776, Control_c, 14, 7, 76
1, 780, Pitch_bend_c, 7, 8192
1, 780, Pitch_bend_c, 10, 8192
1, 780, Pitch_bend_c, 13, 8192
1, 780, Pitch_bend_c, 14, 8192
1, 785, Control_c, 7, 0, 0
1, 785, Control_c, 10, 0, 0
1, 786, Control_c, 13, 0, 0
1, 786, Control_c, 14, 0, 0
1, 790, Program_c, 7, 14
1, 790, Program_c, 10, 48
1, 790, Program_c, 13, 11
1, 790, Program_c, 14, 25
1, 795, Control_c, 8, 121, 0
1, 800, Control_c, 8, 10, 86
1, 805, Control_c, 8, 93, 38
1, 810, Control_c, 8, 91, 81
1, 815, Control_c, 8, 11, 127
1, 820, Control_c, 8, 7, 108
1, 825, Pitch_bend_c, 8, 8192
1, 830, Control_c, 8, 0, 0
1, 835, Program_c, 8, 1
1, 840, Control_c, 9, 121, 0
1, 850, Control_c, 9, 93, 24
1, 855, Control_c, 9, 91, 48
1, 860, Control_c, 9, 11, 127
1, 865, Control_c, 9, 7, 106
1, 870, Pitch_bend_c, 9, 8192
1, 880, Program_c, 9, 32
1, 885, Control_c, 11, 121, 0
1, 885, Control_c, 12, 121, 0
1, 890, Control_c, 11, 10, 81
1, 890, Control_c, 12, 10, 46
1, 895, Control_c, 11, 93, 27
1, 895, Control_c, 12, 93, 27
1, 900, Control_c, 11, 91, 81
1, 900, Control_c, 12, 91, 74
1, 905, Control_c, 11, 11, 127
1, 905, Control_c, 12, 11, 127
1, 910, Control_c, 11, 7, 69
1, 910, Control_c, 12, 7, 84
1, 915, Pitch_bend_c, 11, 8192
1, 915, Pitch_bend_c, 12, 8192
1, 920, Control_c, 9, 99, 24
1, 920, Control_c, 11, 0, 0
1, 921, Control_c, 12, 0, 0
1, 925, Program_c, 11, 47
1, 925, Program_c, 12, 27
1, 925, Control_c, 9, 98, 36
1, 930, Control_c, 9, 6, 68
1, 960, Control_c, 9, 98, 40
1, 965, Control_c, 9, 6, 67
1, 975, Control_c, 5, 121, 0
1, 980, Control_c, 5, 10, 52
1, 985, Control_c, 5, 93, 12
1, 990, Control_c, 5, 91, 81
1, 995, Control_c, 5, 11, 127
1, 1000, Control_c, 5, 7, 102
1, 1005, Control_c, 9, 98, 28
1, 1005, Pitch_bend_c, 5, 8192
1, 1010, Control_c, 5, 0, 0
1, 1010, Control_c, 9, 6, 53
1, 1015, Program_c, 5, 0
1, 1046, Control_c, 9, 98, 27
1, 1051, Control_c, 9, 6, 56
1, 1461, Control_c, 1, 99, 1
1, 1485, Control_c, 1, 98, 32
1, 1486, Control_c, 1, 6, 66
1, 1920, Note_on_c, 1, 38, 99
1, 1920, Note_on_c, 5, 74, 101
1, 1920, Note_on_c, 5, 77, 97
1, 1920, Note_on_c, 5, 81, 105
1, 1920, Note_on_c, 8, 38, 99
1, 1920, Note_on_c, 9, 35, 114
1, 1920, Note_on_c, 11, 41, 114
1, 1932, Note_on_c, 9, 35, 0
1, 1933, Note_on_c, 14, 62, 101
1, 1933, Note_on_c, 14, 65, 97
1, 1933, Note_on_c, 14, 69, 105
1, 1993, Note_on_c, 5, 81, 0
1, 2006, Note_on_c, 14, 69, 0
1, 2041, Note_on_c, 5, 77, 0
1, 2043, Note_on_c, 5, 74, 0
1, 2054, Note_on_c, 14, 65, 0
1, 2056, Note_on_c, 14, 62, 0
1, 2081, Note_on_c, 11, 41, 0
1, 2400, Note_on_c, 5, 74, 111
1, 2400, Note_on_c, 5, 77, 107
1, 2400, Note_on_c, 5, 81, 105
1, 2400, Note_on_c, 9, 44, 107
1, 2400, Note_on_c, 9, 69, 109
1, 2412, Note_on_c, 9, 44, 0
1, 2412, Note_on_c, 9, 69, 0
1, 2413, Note_on_c, 14, 62, 111
1, 2413, Note_on_c, 14, 65, 107
1, 2413, Note_on_c, 14, 69, 105
1, 2557, Note_on_c, 5, 81, 0
1, 2564, Note_on_c, 5, 77, 0
1, 2568, Note_on_c, 5, 74, 0
1, 2570, Note_on_c, 14, 69, 0
1, 2577, Note_on_c, 14, 65, 0
1, 2581, Note_on_c, 14, 62, 0
1, 2641, Note_on_c, 1, 38, 0
1, 2641, Note_on_c, 8, 38, 0
1, 2720, Note_on_c, 1, 38, 99
1, 2720, Note_on_c, 8, 38, 99
1, 2720, Note_on_c, 9, 35, 107
1, 2720, Note_on_c, 11, 41, 107
1, 2732, Note_on_c, 9, 35, 0
1, 2880, Note_on_c, 5, 74, 105
1, 2880, Note_on_c, 5, 77, 94
1, 2880, Note_on_c, 5, 81, 94
1, 2880, Note_on_c, 9, 35, 114
1, 2880, Note_on_c, 11, 41, 114
1, 2881, Note_on_c, 11, 41, 0
1, 2892, Note_on_c, 9, 35, 0
1, 2893, Note_on_c, 14, 62, 105
1, 2893, Note_on_c, 14, 65, 94
1, 2893, Note_on_c, 14, 69, 94
1, 3035, Note_on_c, 5, 81, 0
1, 3041, Note_on_c, 11, 41, 0
1, 3043, Note_on_c, 5, 74, 0
1, 3047, Note_on_c, 5, 77, 0
1, 3048, Note_on_c, 14, 69, 0
1, 3056, Note_on_c, 14, 62, 0
1, 3060, Note_on_c, 14, 65, 0
1, 3200, Note_on_c, 9, 70, 65
1, 3212, Note_on_c, 9, 70, 0
1, 3360, Note_on_c, 5, 74, 109
1, 3360, Note_on_c, 5, 77, 94
1, 3360, Note_on_c, 5, 81, 94
1, 3360, Note_on_c, 9, 44, 107
1, 3360, Note_on_c, 9, 54, 109
1, 3372, Note_on_c, 9, 44, 0
1, 3372, Note_on_c, 9, 54, 0
1, 3373, Note_on_c, 14, 62, 109
1, 3373, Note_on_c, 14, 65, 94
1, 3373, Note_on_c, 14, 69, 94
1, 3501, Note_on_c, 5, 81, 0
1, 3514, Note_on_c, 5, 74, 0
1, 3514, Note_on_c, 5, 77, 0
1, 3514, Note_on_c, 14, 69, 0
1, 3521, Note_on_c, 1, 38, 0
1, 3521, Note_on_c, 8, 38, 0
1, 3527, Note_on_c, 14, 62, 0
1, 3527, Note_on_c, 14, 65, 0
1, 3680, Note_on_c, 1, 38, 99
1, 3680, Note_on_c, 8, 38, 99
1, 3840, Note_on_c, 5, 74, 109
1, 3840, Note_on_c, 5, 77, 94
1, 3840, Note_on_c, 5, 81, 101
1, 3840, Note_on_c, 9, 35, 114
1, 3840, Note_on_c, 11, 41, 114
1, 3852, Note_on_c, 9, 35, 0
1, 3853, Note_on_c, 14, 62, 109
1, 3853, Note_on_c, 14, 65, 94
1, 3853, Note_on_c, 14, 69, 101
1, 3995, Note_on_c, 5, 81, 0
1, 4001, Note_on_c, 11, 41, 0
1, 4008, Note_on_c, 14, 69, 0
1, 4011, Note_on_c, 5, 74, 0
1, 4011, Note_on_c, 5, 77, 0
1, 4024, Note_on_c, 14, 62, 0
1, 4024, Note_on_c, 14, 65, 0
1, 4320, Note_on_c, 5, 74, 108
1, 4320, Note_on_c, 5, 77, 97
1, 4320, Note_on_c, 5, 81, 98
1, 4320, Note_on_c, 9, 44, 107
1, 4320, Note_on_c, 9, 69, 109
1, 4332, Note_on_c, 9, 44, 0
1, 4332, Note_on_c, 9, 69, 0
1, 4333, Note_on_c, 14, 62, 108
1, 4333, Note_on_c, 14, 65, 97
1, 4333, Note_on_c, 14, 69, 98
1, 4466, Note_on_c, 5, 81, 0
1, 4478, Note_on_c, 5, 74, 0
1, 4479, Note_on_c, 14, 69, 0
1, 4481, Note_on_c, 1, 38, 0
1, 4481, Note_on_c, 8, 38, 0
1, 4483, Note_on_c, 5, 77, 0
1, 4491, Note_on_c, 14, 62, 0
1, 4496, Note_on_c, 14, 65, 0
1, 4640, Note_on_c, 1, 38, 99
1, 4640, Note_on_c, 8, 38, 99
1, 4640, Note_on_c, 9, 35, 114
1, 4640, Note_on_c, 11, 41, 114
1, 4652, Note_on_c, 9, 35, 0
1, 4800, Note_on_c, 5, 74, 105
1, 4800, Note_on_c, 5, 77, 89
1, 4800, Note_on_c, 5, 81, 94
1, 4801, Note_on_c, 11, 41, 0
1, 4813, Note_on_c, 14, 62, 105
1, 4813, Note_on_c, 14, 65, 89
1, 4813, Note_on_c, 14, 69, 94
1, 4946, Note_on_c, 5, 81, 0
1, 4959, Note_on_c, 14, 69, 0
1, 4968, Note_on_c, 5, 74, 0
1, 4968, Note_on_c, 5, 77, 0
1, 4981, Note_on_c, 14, 62, 0
1, 4981, Note_on_c, 14, 65, 0
1, 5116, Note_on_c, 1, 38, 0
1, 5116, Note_on_c, 8, 38, 0
1, 5120, Note_on_c, 1, 36, 99
1, 5120, Note_on_c, 8, 36, 99
1, 5120, Note_on_c, 9, 35, 114
1, 5120, Note_on_c, 9, 70, 65
1, 5120, Note_on_c, 11, 41, 114
1, 5132, Note_on_c, 9, 35, 0
1, 5132, Note_on_c, 9, 70, 0
1, 5280, Note_on_c, 5, 74, 109
1, 5280, Note_on_c, 5, 77, 97
1, 5280, Note_on_c, 5, 81, 110
1, 5280, Note_on_c, 9, 44, 107
1, 5280, Note_on_c, 9, 54, 109
1, 5281, Note_on_c, 11, 41, 0
1, 5292, Note_on_c, 9, 44, 0
1, 5292, Note_on_c, 9, 54, 0
1, 5293, Note_on_c, 14, 62, 109
1, 5293, Note_on_c, 14, 65, 97
1, 5293, Note_on_c, 14, 69, 110
1, 5429, Note_on_c, 5, 81, 0
1, 5438, Note_on_c, 5, 74, 0
1, 5441, Note_on_c, 5, 77, 0
1, 5442, Note_on_c, 14, 69, 0
1, 5451, Note_on_c, 14, 62, 0
1, 5454, Note_on_c, 14, 65, 0
1, 5596, Note_on_c, 1, 36, 0
1, 5596, Note_on_c, 8, 36, 0
1, 5600, Note_on_c, 1, 33, 99
1, 5600, Note_on_c, 8, 33, 99
1, 5756, Note_on_c, 1, 33, 0
1, 5756, Note_on_c, 8, 33, 0
1, 5760, Note_on_c, 1, 31, 99
1, 5760, Note_on_c, 5, 74, 101
1, 5760, Note_on_c, 5, 79, 97
1, 5760, Note_on_c, 5, 82, 105
1, 5760, Note_on_c, 8, 31, 99
1, 5760, Note_on_c, 9, 35, 114
1, 5760, Note_on_c, 11, 41, 114
1, 5772, Note_on_c, 9, 35, 0
1, 5773, Note_on_c, 14, 62, 101
1, 5773, Note_on_c, 14, 67, 97
1, 5773, Note_on_c, 14, 70, 105
1, 5833, Note_on_c, 5, 82, 0
1, 5846, Note_on_c, 14, 70, 0
1, 5881, Note_on_c, 5, 79, 0
1, 5883, Note_on_c, 5, 74, 0
1, 5894, Note_on_c, 14, 67, 0
1, 5896, Note_on_c, 14, 62, 0
1, 5921, Note_on_c, 11, 41, 0
1, 6240, Note_on_c, 5, 74, 111
1, 6240, Note_on_c, 5, 79, 107
1, 6240, Note_on_c, 5, 82, 105
1, 6240, Note_on_c, 9, 44, 107
1, 6240, Note_on_c, 9, 69, 109
1, 6252, Note_on_c, 9, 44, 0
1, 6252, Note_on_c, 9, 69, 0
1, 6253, Note_on_c, 14, 62, 111
1, 6253, Note_on_c, 14, 67, 107
1, 6253, Note_on_c, 14, 70, 105
1, 6397, Note_on_c, 5, 82, 0
1, 6401, Note_on_c, 1, 31, 0
1, 6401, Note_on_c, 8, 31, 0
1, 6404, Note_on_c, 5, 79, 0
1, 6408, Note_on_c, 5, 74, 0
1, 6410, Note_on_c, 14, 70, 0
1, 6417, Note_on_c, 14, 67, 0
1, 6421, Note_on_c, 14, 62, 0
1, 6560, Note_on_c, 1, 31, 99
1, 6560, Note_on_c, 8, 31, 99
1, 6560, Note_on_c, 9, 35, 107
1, 6560, Note_on_c, 11, 41, 107
1, 6572, Note_on_c, 9, 35, 0
1, 6720, Note_on_c, 5, 74, 105
1, 6720, Note_on_c, 5, 79, 94
1, 6720, Note_on_c, 5, 82, 94
1, 6720, Note_on_c, 9, 35, 114
1, 6720, Note_on_c, 11, 41, 114
1, 6721, Note_on_c, 11, 41, 0
1, 6732, Note_on_c, 9, 35, 0
1, 6733, Note_on_c, 14, 62, 105
1, 6733, Note_on_c, 14, 67, 94
1, 6733, Note_on_c, 14, 70, 94
1, 6875, Note_on_c, 5, 82, 0
1, 6881, Note_on_c, 11, 41, 0
1, 6883, Note_on_c, 5, 74, 0
1, 6887, Note_on_c, 5, 79, 0
1, 6888, Note_on_c, 14, 70, 0
1, 6896, Note_on_c, 14, 62, 0
1, 6900, Note_on_c, 14, 67, 0
1, 7040, Note_on_c, 9, 70, 65
1, 7052, Note_on_c, 9, 70, 0
1, 7200, Note_on_c, 5, 74, 109
1, 7200, Note_on_c, 5, 79, 94
1, 7200, Note_on_c, 5, 82, 94
1, 7200, Note_on_c, 9, 44, 107
1, 7200, Note_on_c, 9, 54, 109
1, 7212, Note_on_c, 9, 44, 0
1, 7212, Note_on_c, 9, 54, 0
1, 7213, Note_on_c, 14, 62, 109
1, 7213, Note_on_c, 14, 67, 94
1, 7213, Note_on_c, 14, 70, 94
1, 7341, Note_on_c, 5, 82, 0
1, 7354, Note_on_c, 5, 74, 0
1, 7354, Note_on_c, 5, 79, 0
1, 7354, Note_on_c, 14, 70, 0
1, 7361, Note_on_c, 1, 31, 0
1, 7361, Note_on_c, 8, 31, 0
1, 7367, Note_on_c, 14, 62, 0
1, 7367, Note_on_c, 14, 67, 0
1, 7520, Note_on_c, 1, 31, 99
1, 7520, Note_on_c, 8, 31, 99
1, 7680, Note_on_c, 5, 74, 109
1, 7680, Note_on_c, 5, 79, 94
1, 7680, Note_on_c, 5, 82, 101
1, 7680, Note_on_c, 9, 35, 114
1, 7680, Note_on_c, 11, 41, 114
1, 7692, Note_on_c, 9, 35, 0
1, 7693, Note_on_c, 14, 62, 109
1, 7693, Note_on_c, 14, 67, 94
1, 7693, Note_on_c, 14, 70, 101
1, 7835, Note_on_c, 5, 82, 0
1, 7841, Note_on_c, 11, 41, 0
1, 7848, Note_on_c, 14, 70, 0
1, 7851, Note_on_c, 5, 74, 0
1, 7851, Note_on_c, 5, 79, 0
1, 7864, Note_on_c, 14, 62, 0
1, 7864, Note_on_c, 14, 67, 0
1, 8160, Note_on_c, 5, 74, 108
1, 8160, Note_on_c, 5, 79, 97
1, 8160, Note_on_c, 5, 82, 98
1, 8160, Note_on_c, 9, 44, 107
1, 8160, Note_on_c, 9, 69, 109
1, 8172, Note_on_c, 9, 44, 0
1, 8172, Note_on_c, 9, 69, 0
1, 8173, Note_on_c, 14, 62, 108
1, 8173, Note_on_c, 14, 67, 97
1, 8173, Note_on_c, 14, 70, 98
1, 8306, Note_on_c, 5, 82, 0
1, 8318, Note_on_c, 5, 74, 0
1, 8319, Note_on_c, 14, 70, 0
1, 8321, Note_on_c, 1, 31, 0
1, 8321, Note_on_c, 8, 31, 0
1, 8323, Note_on_c, 5, 79, 0
1, 8331, Note_on_c, 14, 62, 0
1, 8336, Note_on_c, 14, 67, 0
1, 8480, Note_on_c, 1, 31, 99
1, 8480, Note_on_c, 8, 31, 99
1, 8480, Note_on_c, 9, 35, 114
1, 8480, Note_on_c, 11, 41, 114
1, 8492, Note_on_c, 9, 35, 0
1, 8640, Note_on_c, 5, 74, 105
1, 8640, Note_on_c, 5, 79, 89
1, 8640, Note_on_c, 5, 82, 94
1, 8641, Note_on_c, 11, 41, 0
1, 8653, Note_on_c, 14, 62, 105
1, 8653, Note_on_c, 14, 67, 89
1, 8653, Note_on_c, 14, 70, 94
1, 8786, Note_on_c, 5, 82, 0
1, 8799, Note_on_c, 14, 70, 0
1, 8808, Note_on_c, 5, 74, 0
1, 8808, Note_on_c, 5, 79, 0
1, 8821, Note_on_c, 14, 62, 0
1, 8821, Note_on_c, 14, 67, 0
1, 8956, Note_on_c, 1, 31, 0
1, 8956, Note_on_c, 8, 31, 0
1, 8960, Note_on_c, 1, 32, 99
1, 8960, Note_on_c, 8, 32, 99
1, 8960, Note_on_c, 9, 35, 114
1, 8960, Note_on_c, 9, 70, 65
1, 8960, Note_on_c, 11, 41, 114
1, 8972, Note_on_c, 9, 35, 0
1, 8972, Note_on_c, 9, 70, 0
1, 9120, Note_on_c, 5, 74, 109
1, 9120, Note_on_c, 5, 79, 97
1, 9120, Note_on_c, 5, 82, 110
1, 9120, Note_on_c, 9, 44, 107
1, 9120, Note_on_c, 9, 54, 109
1, 9121, Note_on_c, 11, 41, 0
1, 9132, Note_on_c, 9, 44, 0
1, 9132, Note_on_c, 9, 54, 0
1, 9133, Note_on_c, 14, 62, 109
1, 9133, Note_on_c, 14, 67, 97
1, 9133, Note_on_c, 14, 70, 110
1, 9269, Note_on_c, 5, 82, 0
1, 9278, Note_on_c, 5, 74, 0
1, 9281, Note_on_c, 5, 79, 0
1, 9282, Note_on_c, 14, 70, 0
1, 9291, Note_on_c, 14, 62, 0
1, 9294, Note_on_c, 14, 67, 0
1, 9436, Note_on_c, 1, 32, 0
1, 9436, Note_on_c, 8, 32, 0
1, 9440, Note_on_c, 1, 33, 99
1, 9440, Note_on_c, 8, 33, 99
1, 9596, Note_on_c, 1, 33, 0
1, 9596, Note_on_c, 8, 33, 0
1, 9600, Note_on_c, 1, 34, 99
1, 9600, Note_on_c, 5, 74, 101
1, 9600, Note_on_c, 5, 77, 97
1, 9600, Note_on_c, 5, 82, 105
1, 9600, Note_on_c, 8, 34, 99
1, 9600, Note_on_c, 9, 35, 114
1, 9600, Note_on_c, 11, 41, 114
1, 9612, Note_on_c, 9, 35, 0
1, 9613, Note_on_c, 14, 62, 101
1, 9613, Note_on_c, 14, 65, 97
1, 9613, Note_on_c, 14, 70, 105
1, 9673, Note_on_c, 5, 82, 0
1, 9686, Note_on_c, 14, 70, 0
1, 9721, Note_on_c, 5, 77, 0
1, 9723, Note_on_c, 5, 74, 0
1, 9734, Note_on_c, 14, 65, 0
1, 9736, Note_on_c, 14, 62, 0
1, 9761, Note_on_c, 11, 41, 0
1, 10080, Note_on_c, 5, 74, 111
1, 10080, Note_on_c, 5, 77, 107
1, 10080, Note_on_c, 5, 82, 105
1, 10080, Note_on_c, 9, 44, 107
1, 10080, Note_on_c, 9, 69, 109
1, 10092, Note_on_c, 9, 44, 0
1, 10092, Note_on_c, 9, 69, 0
1, 10093, Note_on_c, 14, 62, 111
1, 10093, Note_on_c, 14, 65, 107
1, 10093, Note_on_c, 14, 70, 105
1, 10237, Note_on_c, 5, 82, 0
1, 10244, Note_on_c, 5, 77, 0
1, 10248, Note_on_c, 5, 74, 0
1, 10250, Note_on_c, 14, 70, 0
1, 10257, Note_on_c, 14, 65, 0
1, 10261, Note_on_c, 14, 62, 0
1, 10341, Note_on_c, 1, 34, 0
1, 10341, Note_on_c, 8, 34, 0
1, 10400, Note_on_c, 1, 34, 99
1, 10400, Note_on_c, 8, 34, 99
1, 10400, Note_on_c, 9, 35, 107
1, 10400, Note_on_c, 11, 41, 107
1, 10412, Note_on_c, 9, 35, 0
1, 10560, Note_on_c, 5, 74, 105
1, 10560, Note_on_c, 5, 77, 94
1, 10560, Note_on_c, 5, 82, 94
1, 10560, Note_on_c, 9, 35, 114
1, 10560, Note_on_c, 11, 41, 114
1, 10561, Note_on_c, 11, 41, 0
1, 10572, Note_on_c, 9, 35, 0
1, 10573, Note_on_c, 14, 62, 105
1, 10573, Note_on_c, 14, 65, 94
1, 10573, Note_on_c, 14, 70, 94
1, 10715, Note_on_c, 5, 82, 0
1, 10721, Note_on_c, 11, 41, 0
1, 10723, Note_on_c, 5, 74, 0
1, 10727, Note_on_c, 5, 77, 0
1, 10728, Note_on_c, 14, 70, 0
1, 10736, Note_on_c, 14, 62, 0
1, 10740, Note_on_c, 14, 65, 0
1, 10880, Note_on_c, 9, 70, 65
1, 10892, Note_on_c, 9, 70, 0
1, 11040, Note_on_c, 5, 74, 109
1, 11040, Note_on_c, 5, 77, 94
1, 11040, Note_on_c, 5, 82, 94
1, 11040, Note_on_c, 9, 44, 107
1, 11040, Note_on_c, 9, 54, 109
1, 11052, Note_on_c, 9, 44, 0
1, 11052, Note_on_c, 9, 54, 0
1, 11053, Note_on_c, 14, 62, 109
1, 11053, Note_on_c, 14, 65, 94
1, 11053, Note_on_c, 14, 70, 94
1, 11141, Note_on_c, 1, 34, 0
1, 11141, Note_on_c, 8, 34, 0
1, 11181, Note_on_c, 5, 82, 0
1, 11194, Note_on_c, 5, 74, 0
1, 11194, Note_on_c, 5, 77, 0
1, 11194, Note_on_c, 14, 70, 0
1, 11207, Note_on_c, 14, 62, 0
1, 11207, Note_on_c, 14, 65, 0
1, 11360, Note_on_c, 1, 34, 99
1, 11360, Note_on_c, 8, 34, 99
1, 11520, Note_on_c, 5, 74, 109
1, 11520, Note_on_c, 5, 77, 94
1, 11520, Note_on_c, 5, 82, 101
1, 11520, Note_on_c, 9, 35, 114
1, 11520, Note_on_c, 11, 41, 114
1, 11532, Note_on_c, 9, 35, 0
1, 11533, Note_on_c, 14, 62, 109
1, 11533, Note_on_c, 14, 65, 94
1, 11533, Note_on_c, 14, 70, 101
1, 11675, Note_on_c, 5, 82, 0
1, 11681, Note_on_c, 11, 41, 0
1, 11688, Note_on_c, 14, 70, 0
1, 11691, Note_on_c, 5, 74, 0
1, 11691, Note_on_c, 5, 77, 0
1, 11704, Note_on_c, 14, 62, 0
1, 11704, Note_on_c, 14, 65, 0
1, 12000, Note_on_c, 5, 74, 108
1, 12000, Note_on_c, 5, 77, 97
1, 12000, Note_on_c, 5, 82, 98
1, 12000, Note_on_c, 9, 44, 107
1, 12000, Note_on_c, 9, 69, 109
1, 12012, Note_on_c, 9, 44, 0
1, 12012, Note_on_c, 9, 69, 0
1, 12013, Note_on_c, 14, 62, 108
1, 12013, Note_on_c, 14, 65, 97
1, 12013, Note_on_c, 14, 70, 98
1, 12101, Note_on_c, 1, 34, 0
1, 12101, Note_on_c, 8, 34, 0
1, 12146, Note_on_c, 5, 82, 0
1, 12158, Note_on_c, 5, 74, 0
1, 12159, Note_on_c, 14, 70, 0
1, 12163, Note_on_c, 5, 77, 0
1, 12171, Note_on_c, 14, 62, 0
1, 12176, Note_on_c, 14, 65, 0
1, 12320, Note_on_c, 1, 34, 99
1, 12320, Note_on_c, 8, 34, 99
1, 12320, Note_on_c, 9, 35, 114
1, 12320, Note_on_c, 11, 41, 114
1, 12332, Note_on_c, 9, 35, 0
1, 12480, Note_on_c, 5, 74, 105
1, 12480, Note_on_c, 5, 77, 89
1, 12480, Note_on_c, 5, 82, 94
1, 12481, Note_on_c, 11, 41, 0
1, 12493, Note_on_c, 14, 62, 105
1, 12493, Note_on_c, 14, 65, 89
1, 12493, Note_on_c, 14, 70, 94
1, 12626, Note_on_c, 5, 82, 0
1, 12639, Note_on_c, 14, 70, 0
1, 12648, Note_on_c, 5, 74, 0
1, 12648, Note_on_c, 5, 77, 0
1, 12661, Note_on_c, 14, 62, 0
1, 12661, Note_on_c, 14, 65, 0
1, 12796, Note_on_c, 1, 34, 0
1, 12796, Note_on_c, 8, 34, 0
1, 12800, Note_on_c, 1, 41, 99
1, 12800, Note_on_c, 8, 41, 99
1, 12800, Note_on_c, 9, 35, 114
1, 12800, Note_on_c, 9, 70, 65
1, 12800, Note_on_c, 11, 41, 114
1, 12812, Note_on_c, 9, 35, 0
1, 12812, Note_on_c, 9, 70, 0
1, 12960, Note_on_c, 5, 74, 109
1, 12960, Note_on_c, 5, 77, 97
1, 12960, Note_on_c, 5, 82, 110
1, 12960, Note_on_c, 9, 44, 107
1, 12960, Note_on_c, 9, 54, 109
1, 12961, Note_on_c, 11, 41, 0
1, 12972, Note_on_c, 9, 44, 0
1, 12972, Note_on_c, 9, 54, 0
1, 12973, Note_on_c, 14, 62, 109
1, 12973, Note_on_c, 14, 65, 97
1, 12973, Note_on_c, 14, 70, 110
1, 13109, Note_on_c, 5, 82, 0
1, 13118, Note_on_c, 5, 74, 0
1, 13121, Note_on_c, 5, 77, 0
1, 13122, Note_on_c, 14, 70, 0
1, 13131, Note_on_c, 14, 62, 0
1, 13134, Note_on_c, 14, 65, 0
1, 13276, Note_on_c, 1, 41, 0
1, 13276, Note_on_c, 8, 41, 0
1, 13280, Note_on_c, 1, 34, 99
1, 13280, Note_on_c, 8, 34, 99
1, 13280, Note_on_c, 1, 34, 0
1, 13280, Note_on_c, 8, 34, 0
1, 13440, Note_on_c, 1, 33, 99
1, 13440, Note_on_c, 5, 73, 101
1, 13440, Note_on_c, 5, 76, 97
1, 13440, Note_on_c, 5, 81, 105
1, 13440, Note_on_c, 8, 33, 99
1, 13440, Note_on_c, 9, 35, 114
1, 13440, Note_on_c, 11, 41, 114
1, 13452, Note_on_c, 9, 35, 0
1, 13453, Note_on_c, 14, 61, 101
1, 13453, Note_on_c, 14, 64, 97
1, 13453, Note_on_c, 14, 69, 105
1, 13513, Note_on_c, 5, 81, 0
1, 13526, Note_on_c, 14, 69, 0
1, 13561, Note_on_c, 5, 76, 0
1, 13563, Note_on_c, 5, 73, 0
1, 13574, Note_on_c, 14, 64, 0
1, 13576, Note_on_c, 14, 61, 0
1, 13601, Note_on_c, 11, 41, 0
1, 13920, Note_on_c, 5, 73, 111
1, 13920, Note_on_c, 5, 76, 107
1, 13920, Note_on_c, 5, 81, 105
1, 13920, Note_on_c, 9, 44, 107
1, 13920, Note_on_c, 9, 69, 109
1, 13932, Note_on_c, 9, 44, 0
1, 13932, Note_on_c, 9, 69, 0
1, 13933, Note_on_c, 14, 61, 111
1, 13933, Note_on_c, 14, 64, 107
1, 13933, Note_on_c, 14, 69, 105
1, 14077, Note_on_c, 5, 81, 0
1, 14084, Note_on_c, 5, 76, 0
1, 14088, Note_on_c, 5, 73, 0
1, 14090, Note_on_c, 14, 69, 0
1, 14097, Note_on_c, 14, 64, 0
1, 14101, Note_on_c, 14, 61, 0
1, 14181, Note_on_c, 1, 33, 0
1, 14181, Note_on_c, 8, 33, 0
1, 14240, Note_on_c, 1, 33, 99
1, 14240, Note_on_c, 8, 33, 99
1, 14240, Note_on_c, 9, 35, 107
1, 14240, Note_on_c, 11, 41, 107
1, 14252, Note_on_c, 9, 35, 0
1, 14400, Note_on_c, 5, 73, 105
1, 14400, Note_on_c, 5, 76, 94
1, 14400, Note_on_c, 5, 81, 94
1, 14400, Note_on_c, 9, 35, 114
1, 14400, Note_on_c, 11, 41, 114
1, 14401, Note_on_c, 11, 41, 0
1, 14412, Note_on_c, 9, 35, 0
1, 14413, Note_on_c, 14, 61, 105
1, 14413, Note_on_c, 14, 64, 94
1, 14413, Note_on_c, 14, 69, 94
1, 14555, Note_on_c, 5, 81, 0
1, 14561, Note_on_c, 11, 41, 0
1, 14563, Note_on_c, 5, 73, 0
1, 14567, Note_on_c, 5, 76, 0
1, 14568, Note_on_c, 14, 69, 0
1, 14576, Note_on_c, 14, 61, 0
1, 14580, Note_on_c, 14, 64, 0
1, 14720, Note_on_c, 9, 70, 65
1, 14732, Note_on_c, 9, 70, 0
1, 14880, Note_on_c, 5, 73, 109
1, 14880, Note_on_c, 5, 76, 94
1, 14880, Note_on_c, 5, 81, 94
1, 14880, Note_on_c, 9, 44, 107
1, 14880, Note_on_c, 9, 54, 109
1, 14892, Note_on_c, 9, 44, 0
1, 14892, Note_on_c, 9, 54, 0
1, 14893, Note_on_c, 14, 61, 109
1, 14893, Note_on_c, 14, 64, 94
1, 14893, Note_on_c, 14, 69, 94
1, 14981, Note_on_c, 1, 33, 0
1, 14981, Note_on_c, 8, 33, 0
1, 15021, Note_on_c, 5, 81, 0
1, 15034, Note_on_c, 5, 73, 0
1, 15034, Note_on_c, 5, 76, 0
1, 15034, Note_on_c, 14, 69, 0
1, 15047, Note_on_c, 14, 61, 0
1, 15047, Note_on_c, 14, 64, 0
1, 15200, Note_on_c, 1, 33, 99
1, 15200, Note_on_c, 8, 33, 99
1, 15360, Note_on_c, 5, 73, 109
1, 15360, Note_on_c, 5, 76, 94
1, 15360, Note_on_c, 5, 81, 101
1, 15360, Note_on_c, 9, 35, 114
1, 15360, Note_on_c, 11, 41, 114
1, 15372, Note_on_c, 9, 35, 0
1, 15373, Note_on_c, 14, 61, 109
1, 15373, Note_on_c, 14, 64, 94
1, 15373, Note_on_c, 14, 69, 101
1, 15515, Note_on_c, 5, 81, 0
1, 15521, Note_on_c, 11, 41, 0
1, 15528, Note_on_c, 14, 69, 0
1, 15531, Note_on_c, 5, 73, 0
1, 15531, Note_on_c, 5, 76, 0
1, 15544, Note_on_c, 14, 61, 0
1, 15544, Note_on_c, 14, 64, 0
1, 15840, Note_on_c, 5, 73, 108
1, 15840, Note_on_c, 5, 76, 97
1, 15840, Note_on_c, 5, 81, 98
1, 15840, Note_on_c, 9, 44, 107
1, 15840, Note_on_c, 9, 69, 109
1, 15852, Note_on_c, 9, 44, 0
1, 15852, Note_on_c, 9, 69, 0
1, 15853, Note_on_c, 14, 61, 108
1, 15853, Note_on_c, 14, 64, 97
1, 15853, Note_on_c, 14, 69, 98
1, 15941, Note_on_c, 1, 33, 0
1, 15941, Note_on_c, 8, 33, 0
1, 15986, Note_on_c, 5, 81, 0
1, 15998, Note_on_c, 5, 73, 0
1, 15999, Note_on_c, 14, 69, 0
1, 16003, Note_on_c, 5, 76, 0
1, 16011, Note_on_c, 14, 61, 0
1, 16016, Note_on_c, 14, 64, 0
1, 16160, Note_on_c, 1, 33, 99
1, 16160, Note_on_c, 8, 33, 99
1, 16160, Note_on_c, 9, 35, 114
1, 16160, Note_on_c, 11, 41, 114
1, 16172, Note_on_c, 9, 35, 0
1, 16320, Note_on_c, 5, 73, 105
1, 16320, Note_on_c, 5, 76, 89
1, 16320, Note_on_c, 5, 81, 94
1, 16321, Note_on_c, 11, 41, 0
1, 16333, Note_on_c, 14, 61, 105
1, 16333, Note_on_c, 14, 64, 89
1, 16333, Note_on_c, 14, 69, 94
1, 16466, Note_on_c, 5, 81, 0
1, 16479, Note_on_c, 14, 69, 0
1, 16488, Note_on_c, 5, 73, 0
1, 16488, Note_on_c, 5, 76, 0
1, 16501, Note_on_c, 14, 61, 0
1, 16501, Note_on_c, 14, 64, 0
1, 16636, Note_on_c, 1, 33, 0
1, 16636, Note_on_c, 8, 33, 0
1, 16640, Note_on_c, 1, 36, 99
1, 16640, Note_on_c, 8, 36, 99
1, 16640, Note_on_c, 9, 35, 114
1, 16640, Note_on_c, 9, 70, 65
1, 16640, Note_on_c, 11, 41, 114
1, 16652, Note_on_c, 9, 35, 0
1, 16652, Note_on_c, 9, 70, 0
1, 16800, Note_on_c, 5, 73, 109
1, 16800, Note_on_c, 5, 76, 97
1, 16800, Note_on_c, 5, 81, 110
1, 16800, Note_on_c, 9, 44, 107
1, 16800, Note_on_c, 9, 54, 109
1, 16801, Note_on_c, 11, 41, 0
1, 16812, Note_on_c, 9, 44, 0
1, 16812, Note_on_c, 9, 54, 0
1, 16813, Note_on_c, 14, 61, 109
1, 16813, Note_on_c, 14, 64, 97
1, 16813, Note_on_c, 14, 69, 110
1, 16949, Note_on_c, 5, 81, 0
1, 16958, Note_on_c, 5, 73, 0
1, 16961, Note_on_c, 5, 76, 0
1, 16962, Note_on_c, 14, 69, 0
1, 16971, Note_on_c, 14, 61, 0
1, 16974, Note_on_c, 14, 64, 0
1, 17116, Note_on_c, 1, 36, 0
1, 17116, Note_on_c, 8, 36, 0
1, 17120, Note_on_c, 1, 37, 99
1, 17120, Note_on_c, 8, 37, 99
1, 17276, Note_on_c, 1, 37, 0
1, 17276, Note_on_c, 8, 37, 0
1, 17280, Note_on_c, 1, 38, 99
1, 17280, Note_on_c, 5, 74, 101
1, 17280, Note_on_c, 5, 77, 97
1, 17280, Note_on_c, 5, 81, 105
1, 17280, Note_on_c, 8, 38, 99
1, 17280, Note_on_c, 9, 35, 114
1, 17280, Note_on_c, 11, 41, 114
1, 17292, Note_on_c, 9, 35, 0
1, 17305, Note_on_c, 14, 62, 101
1, 17305, Note_on_c, 14, 65, 97
1, 17305, Note_on_c, 14, 69, 105
1, 17353, Note_on_c, 5, 81, 0
1, 17378, Note_on_c, 14, 69, 0
1, 17401, Note_on_c, 5, 77, 0
1, 17403, Note_on_c, 5, 74, 0
1, 17426, Note_on_c, 14, 65, 0
1, 17428, Note_on_c, 14, 62, 0
1, 17441, Note_on_c, 11, 41, 0
1, 17740, Lyric_t, "HE "
1, 17740, Note_on_c, 3, 74, 114
1, 17760, Note_on_c, 5, 74, 111
1, 17760, Note_on_c, 5, 77, 107
1, 17760, Note_on_c, 5, 81, 105
1, 17760, Note_on_c, 9, 44, 107
1, 17760, Note_on_c, 9, 69, 109
1, 17772, Note_on_c, 9, 44, 0
1, 17772, Note_on_c, 9, 69, 0
1, 17785, Note_on_c, 14, 62, 111
1, 17785, Note_on_c, 14, 65, 107
1, 17785, Note_on_c, 14, 69, 105
1, 17917, Note_on_c, 5, 81, 0
1, 17924, Note_on_c, 5, 77, 0
1, 17928, Note_on_c, 5, 74, 0
1, 17942, Note_on_c, 14, 69, 0
1, 17949, Note_on_c, 14, 65, 0
1, 17953, Note_on_c, 14, 62, 0
1, 18001, Note_on_c, 1, 38, 0
1, 18001, Note_on_c, 8, 38, 0
1, 18080, Note_on_c, 1, 38, 99
1, 18080, Note_on_c, 8, 38, 99
1, 18080, Note_on_c, 9, 35, 107
1, 18080, Note_on_c, 11, 41, 107
1, 18092, Note_on_c, 9, 35, 0
1, 18240, Note_on_c, 5, 74, 105
1, 18240, Note_on_c, 5, 77, 94
1, 18240, Note_on_c, 5, 81, 94
1, 18240, Note_on_c, 9, 35, 114
1, 18240, Note_on_c, 11, 41, 114
1, 18241, Note_on_c, 11, 41, 0
1, 18252, Note_on_c, 9, 35, 0
1, 18265, Note_on_c, 14, 62, 105
1, 18265, Note_on_c, 14, 65, 94
1, 18265, Note_on_c, 14, 69, 94
1, 18395, Note_on_c, 5, 81, 0
1, 18401, Note_on_c, 11, 41, 0
1, 18403, Note_on_c, 5, 74, 0
1, 18407, Note_on_c, 5, 77, 0
1, 18420, Note_on_c, 14, 69, 0
1, 18428, Note_on_c, 14, 62, 0
1, 18432, Note_on_c, 14, 65, 0
1, 18560, Note_on_c, 9, 70, 65
1, 18572, Note_on_c, 9, 70, 0
1, 18704, Note_on_c, 3, 74, 0
1, 18720, Note_on_c, 5, 74, 109
1, 18720, Note_on_c, 5, 77, 94
1, 18720, Note_on_c, 5, 81, 94
1, 18720, Note_on_c, 9, 44, 107
1, 18720, Note_on_c, 9, 54, 109
1, 18732, Note_on_c, 9, 44, 0
1, 18732, Note_on_c, 9, 54, 0
1, 18733, Lyric_t, "LEFT "
1, 18733, Note_on_c, 3, 74, 114
1, 18745, Note_on_c, 14, 62, 109
1, 18745, Note_on_c, 14, 65, 94
1, 18745, Note_on_c, 14, 69, 94
1, 18861, Note_on_c, 5, 81, 0
1, 18874, Note_on_c, 5, 74, 0
1, 18874, Note_on_c, 5, 77, 0
1, 18881, Note_on_c, 1, 38, 0
1, 18881, Note_on_c, 8, 38, 0
1, 18886, Note_on_c, 14, 69, 0
1, 18899, Note_on_c, 14, 62, 0
1, 18899, Note_on_c, 14, 65, 0
1, 18951, Note_on_c, 3, 74, 0
1, 19040, Note_on_c, 1, 38, 99
1, 19040, Note_on_c, 8, 38, 99
1, 19200, Note_on_c, 5, 74, 109
1, 19200, Note_on_c, 5, 77, 94
1, 19200, Note_on_c, 5, 81, 101
1, 19200, Note_on_c, 9, 35, 114
1, 19200, Note_on_c, 11, 41, 114
1, 19209, Lyric_t, "NO "
1, 19209, Note_on_c, 3, 74, 124
1, 19212, Note_on_c, 9, 35, 0
1, 19225, Note_on_c, 14, 62, 109
1, 19225, Note_on_c, 14, 65, 94
1, 19225, Note_on_c, 14, 69, 101
1, 19355, Note_on_c, 5, 81, 0
1, 19361, Note_on_c, 11, 41, 0
1, 19371, Note_on_c, 5, 74, 0
1, 19371, Note_on_c, 5, 77, 0
1, 19380, Note_on_c, 14, 69, 0
1, 19396, Note_on_c, 14, 62, 0
1, 19396, Note_on_c, 14, 65, 0
1, 19417, Note_on_c, 3, 74, 0
1, 19680, Note_on_c, 5, 74, 108
1, 19680, Note_on_c, 5, 77, 97
1, 19680, Note_on_c, 5, 81, 98
1, 19680, Note_on_c, 9, 44, 107
1, 19680, Note_on_c, 9, 69, 109
1, 19692, Note_on_c, 9, 44, 0
1, 19692, Note_on_c, 9, 69, 0
1, 19703, Lyric_t, "TIME"
1, 19703, Lyric_t, "\015"
1, 19703, Note_on_c, 3, 74, 124
1, 19705, Note_on_c, 14, 62, 108
1, 19705, Note_on_c, 14, 65, 97
1, 19705, Note_on_c, 14, 69, 98
1, 19826, Note_on_c, 5, 81, 0
1, 19838, Note_on_c, 5, 74, 0
1, 19841, Note_on_c, 1, 38, 0
1, 19841, Note_on_c, 8, 38, 0
1, 19843, Note_on_c, 5, 77, 0
1, 19851, Note_on_c, 14, 69, 0
1, 19863, Note_on_c, 14, 62, 0
1, 19868, Note_on_c, 14, 65, 0
1, 20000, Note_on_c, 1, 38, 99
1, 20000, Note_on_c, 8, 38, 99
1, 20000, Note_on_c, 9, 35, 114
1, 20000, Note_on_c, 11, 41, 114
1, 20012, Note_on_c, 9, 35, 0
1, 20160, Note_on_c, 5, 74, 105
1, 20160, Note_on_c, 5, 77, 89
1, 20160, Note_on_c, 5, 81, 94
1, 20161, Note_on_c, 11, 41, 0
1, 20185, Note_on_c, 14, 62, 105
1, 20185, Note_on_c, 14, 65, 89
1, 20185, Note_on_c, 14, 69, 94
1, 20306, Note_on_c, 5, 81, 0
1, 20328, Note_on_c, 5, 74, 0
1, 20328, Note_on_c, 5, 77, 0
1, 20331, Note_on_c, 14, 69, 0
1, 20343, Note_on_c, 3, 74, 0
1, 20353, Note_on_c, 14, 62, 0
1, 20353, Note_on_c, 14, 65, 0
1, 20447, Lyric_t, "TO "
1, 20447, Note_on_c, 3, 74, 119
1, 20476, Note_on_c, 1, 38, 0
1, 20476, Note_on_c, 8, 38, 0
1, 20480, Note_on_c, 1, 36, 99
1, 20480, Note_on_c, 8, 36, 99
1, 20480, Note_on_c, 9, 35, 114
1, 20480, Note_on_c, 9, 70, 65
1, 20480, Note_on_c, 11, 41, 114
1, 20492, Note_on_c, 9, 35, 0
1, 20492, Note_on_c, 9, 70, 0
1, 20640, Note_on_c, 5, 74, 109
1, 20640, Note_on_c, 5, 77, 97
1, 20640, Note_on_c, 5, 81, 110
1, 20640, Note_on_c, 9, 44, 107
1, 20640, Note_on_c, 9, 54, 109
1, 20641, Note_on_c, 11, 41, 0
1, 20652, Note_on_c, 9, 44, 0
1, 20652, Note_on_c, 9, 54, 0
1, 20665, Note_on_c, 14, 62, 109
1, 20665, Note_on_c, 14, 65, 97
1, 20665, Note_on_c, 14, 69, 110
1, 20746, Note_on_c, 3, 74, 0
1, 20789, Note_on_c, 5, 81, 0
1, 20798, Note_on_c, 5, 74, 0
1, 20801, Note_on_c, 5, 77, 0
1, 20814, Note_on_c, 14, 69, 0
1, 20823, Note_on_c, 14, 62, 0
1, 20826, Note_on_c, 14, 65, 0
1, 20840, Lyric_t, "RE"
1, 20840, Note_on_c, 3, 74, 119
1, 20956, Note_on_c, 1, 36, 0
1, 20956, Note_on_c, 8, 36, 0
1, 20960, Note_on_c, 1, 33, 99
1, 20960, Note_on_c, 8, 33, 99
1, 21076, Note_on_c, 3, 74, 0
1, 21116, Note_on_c, 1, 33, 0
1, 21116, Note_on_c, 8, 33, 0
1, 21120, Note_on_c, 1, 31, 99
1, 21120, Note_on_c, 5, 74, 101
1, 21120, Note_on_c, 5, 79, 97
1, 21120, Note_on_c, 5, 82, 105
1, 21120, Note_on_c, 8, 31, 99
1, 21120, Note_on_c, 9, 35, 114
1, 21120, Note_on_c, 11, 41, 114
1, 21132, Note_on_c, 9, 35, 0
1, 21145, Note_on_c, 14, 62, 101
1, 21145, Note_on_c, 14, 67, 97
1, 21145, Note_on_c, 14, 70, 105
1, 21162, Lyric_t, "GRET"
1, 21162, Lyric_t, "\015"
1, 21162, Note_on_c, 3, 74, 114
1, 21193, Note_on_c, 5, 82, 0
1, 21218, Note_on_c, 14, 70, 0
1, 21241, Note_on_c, 5, 79, 0
1, 21243, Note_on_c, 5, 74, 0
1, 21266, Note_on_c, 14, 67, 0
1, 21268, Note_on_c, 14, 62, 0
1, 21281, Note_on_c, 11, 41, 0
1, 21600, Note_on_c, 5, 74, 111
1, 21600, Note_on_c, 5, 79, 107
1, 21600, Note_on_c, 5, 82, 105
1, 21600, Note_on_c, 9, 44, 107
1, 21600, Note_on_c, 9, 69, 109
1, 21612, Note_on_c, 9, 44, 0
1, 21612, Note_on_c, 9, 69, 0
1, 21625, Note_on_c, 14, 62, 111
1, 21625, Note_on_c, 14, 67, 107
1, 21625, Note_on_c, 14, 70, 105
1, 21757, Note_on_c, 5, 82, 0
1, 21761, Note_on_c, 1, 31, 0
1, 21761, Note_on_c, 8, 31, 0
1, 21764, Note_on_c, 5, 79, 0
1, 21768, Note_on_c, 5, 74, 0
1, 21782, Note_on_c, 14, 70, 0
1, 21789, Note_on_c, 14, 67, 0
1, 21793, Note_on_c, 14, 62, 0
1, 21920, Note_on_c, 1, 31, 99
1, 21920, Note_on_c, 8, 31, 99
1, 21920, Note_on_c, 9, 35, 107
1, 21920, Note_on_c, 11, 41, 107
1, 21932, Note_on_c, 9, 35, 0
1, 22080, Note_on_c, 5, 74, 105
1, 22080, Note_on_c, 5, 79, 94
1, 22080, Note_on_c, 5, 82, 94
1, 22080, Note_on_c, 9, 35, 114
1, 22080, Note_on_c, 11, 41, 114
1, 22081, Note_on_c, 11, 41, 0
1, 22092, Note_on_c, 9, 35, 0
1, 22105, Note_on_c, 14, 62, 105
1, 22105, Note_on_c, 14, 67, 94
1, 22105, Note_on_c, 14, 70, 94
1, 22179, Note_on_c, 3, 74, 0
1, 22235, Note_on_c, 5, 82, 0
1, 22241, Note_on_c, 11, 41, 0
1, 22243, Note_on_c, 5, 74, 0
1, 22247, Note_on_c, 5, 79, 0
1, 22260, Note_on_c, 14, 70, 0
1, 22268, Note_on_c, 14, 62, 0
1, 22272, Note_on_c, 14, 67, 0
1, 22400, Note_on_c, 9, 70, 65
1, 22412, Note_on_c, 9, 70, 0
1, 22560, Note_on_c, 5, 74, 109
1, 22560, Note_on_c, 5, 79, 94
1, 22560, Note_on_c, 5, 82, 94
1, 22560, Note_on_c, 9, 44, 107
1, 22560, Note_on_c, 9, 54, 109
1, 22572, Note_on_c, 9, 44, 0
1, 22572, Note_on_c, 9, 54, 0
1, 22585, Note_on_c, 14, 62, 109
1, 22585, Note_on_c, 14, 67, 94
1, 22585, Note_on_c, 14, 70, 94
1, 22701, Note_on_c, 5, 82, 0
1, 22714, Note_on_c, 5, 74, 0
1, 22714, Note_on_c, 5, 79, 0
1, 22721, Note_on_c, 1, 31, 0
1, 22721, Note_on_c, 8, 31, 0
1, 22726, Note_on_c, 14, 70, 0
1, 22739, Note_on_c, 14, 62, 0
1, 22739, Note_on_c, 14, 67, 0
1, 22880, Note_on_c, 1, 31, 99
1, 22880, Note_on_c, 8, 31, 99
1, 23040, Note_on_c, 5, 74, 109
1, 23040, Note_on_c, 5, 79, 94
1, 23040, Note_on_c, 5, 82, 101
1, 23040, Note_on_c, 9, 35, 114
1, 23040, Note_on_c, 11, 41, 114
1, 23052, Note_on_c, 9, 35, 0
1, 23065, Note_on_c, 14, 62, 109
1, 23065, Note_on_c, 14, 67, 94
1, 23065, Note_on_c, 14, 70, 101
1, 23195, Note_on_c, 5, 82, 0
1, 23201, Note_on_c, 11, 41, 0
1, 23211, Note_on_c, 5, 74, 0
1, 23211, Note_on_c, 5, 79, 0
1, 23220, Note_on_c, 14, 70, 0
1, 23236, Note_on_c, 14, 62, 0
1, 23236, Note_on_c, 14, 67, 0
1, 23520, Note_on_c, 5, 74, 108
1, 23520, Note_on_c, 5, 79, 97
1, 23520, Note_on_c, 5, 82, 98
1, 23520, Note_on_c, 9, 44, 107
1, 23520, Note_on_c, 9, 69, 109
1, 23524, Lyric_t, "KEPT "
1, 23524, Note_on_c, 3, 74, 109
1, 23532, Note_on_c, 9, 44, 0
1, 23532, Note_on_c, 9, 69, 0
1, 23545, Note_on_c, 14, 62, 108
1, 23545, Note_on_c, 14, 67, 97
1, 23545, Note_on_c, 14, 70, 98
1, 23666, Note_on_c, 5, 82, 0
1, 23678, Note_on_c, 5, 74, 0
1, 23681, Note_on_c, 1, 31, 0
1, 23681, Note_on_c, 8, 31, 0
1, 23683, Note_on_c, 5, 79, 0
1, 23691, Note_on_c, 14, 70, 0
1, 23703, Note_on_c, 14, 62, 0
1, 23708, Note_on_c, 14, 67, 0
1, 23840, Note_on_c, 1, 31, 99
1, 23840, Note_on_c, 8, 31, 99
1, 23840, Note_on_c, 9, 35, 114
1, 23840, Note_on_c, 11, 41, 114
1, 23852, Note_on_c, 9, 35, 0
1, 23873, Note_on_c, 3, 74, 0
1, 24000, Note_on_c, 5, 74, 105
1, 24000, Note_on_c, 5, 79, 89
1, 24000, Note_on_c, 5, 82, 94
1, 24001, Note_on_c, 11, 41, 0
1, 24021, Lyric_t, "HIS "
1, 24021, Note_on_c, 3, 74, 114
1, 24025, Note_on_c, 14, 62, 105
1, 24025, Note_on_c, 14, 67, 89
1, 24025, Note_on_c, 14, 70, 94
1, 24146, Note_on_c, 5, 82, 0
1, 24168, Note_on_c, 5, 74, 0
1, 24168, Note_on_c, 5, 79, 0
1, 24171, Note_on_c, 14, 70, 0
1, 24193, Note_on_c, 14, 62, 0
1, 24193, Note_on_c, 14, 67, 0
1, 24316, Note_on_c, 1, 31, 0
1, 24316, Note_on_c, 8, 31, 0
1, 24320, Note_on_c, 1, 32, 99
1, 24320, Note_on_c, 8, 32, 99
1, 24320, Note_on_c, 9, 35, 114
1, 24320, Note_on_c, 9, 70, 65
1, 24320, Note_on_c, 11, 41, 114
1, 24332, Note_on_c, 9, 35, 0
1, 24332, Note_on_c, 9, 70, 0
1, 24361, Note_on_c, 3, 74, 0
1, 24480, Note_on_c, 5, 74, 109
1, 24480, Note_on_c, 5, 79, 97
1, 24480, Note_on_c, 5, 82, 110
1, 24480, Note_on_c, 9, 44, 107
1, 24480, Note_on_c, 9, 54, 109
1, 24481, Note_on_c, 11, 41, 0
1, 24492, Note_on_c, 9, 44, 0
1, 24492, Note_on_c, 9, 54, 0
1, 24505, Note_on_c, 14, 62, 109
1, 24505, Note_on_c, 14, 67, 97
1, 24505, Note_on_c, 14, 70, 110
1, 24515, Lyric_t, "DICK "
1, 24515, Note_on_c, 3, 74, 119
1, 24629, Note_on_c, 5, 82, 0
1, 24638, Note_on_c, 5, 74, 0
1, 24641, Note_on_c, 5, 79, 0
1, 24654, Note_on_c, 14, 70, 0
1, 24663, Note_on_c, 14, 62, 0
1, 24666, Note_on_c, 14, 67, 0
1, 24796, Note_on_c, 1, 32, 0
1, 24796, Note_on_c, 8, 32, 0
1, 24800, Note_on_c, 1, 33, 99
1, 24800, Note_on_c, 8, 33, 99
1, 24944, Note_on_c, 3, 74, 0
1, 24956, Note_on_c, 1, 33, 0
1, 24956, Note_on_c, 8, 33, 0
1, 24960, Note_on_c, 1, 34, 99
1, 24960, Note_on_c, 5, 74, 101
1, 24960, Note_on_c, 5, 77, 97
1, 24960, Note_on_c, 5, 82, 105
1, 24960, Note_on_c, 8, 34, 99
1, 24960, Note_on_c, 9, 35, 114
1, 24960, Note_on_c, 11, 41, 114
1, 24972, Note_on_c, 9, 35, 0
1, 24985, Note_on_c, 14, 62, 101
1, 24985, Note_on_c, 14, 65, 97
1, 24985, Note_on_c, 14, 70, 105
1, 25033, Note_on_c, 5, 82, 0
1, 25058, Note_on_c, 14, 70, 0
1, 25081, Note_on_c, 5, 77, 0
1, 25083, Note_on_c, 5, 74, 0
1, 25106, Note_on_c, 14, 65, 0
1, 25108, Note_on_c, 14, 62, 0
1, 25121, Note_on_c, 11, 41, 0
1, 25440, Note_on_c, 5, 74, 111
1, 25440, Note_on_c, 5, 77, 107
1, 25440, Note_on_c, 5, 82, 105
1, 25440, Note_on_c, 9, 44, 107
1, 25440, Note_on_c, 9, 69, 109
1, 25452, Note_on_c, 9, 44, 0
1, 25452, Note_on_c, 9, 69, 0
1, 25455, Lyric_t, "WET"
1, 25455, Lyric_t, "\015"
1, 25455, Note_on_c, 3, 74, 124
1, 25465, Note_on_c, 14, 62, 111
1, 25465, Note_on_c, 14, 65, 107
1, 25465, Note_on_c, 14, 70, 105
1, 25597, Note_on_c, 5, 82, 0
1, 25604, Note_on_c, 5, 77, 0
1, 25608, Note_on_c, 5, 74, 0
1, 25622, Note_on_c, 14, 70, 0
1, 25629, Note_on_c, 14, 65, 0
1, 25633, Note_on_c, 14, 62, 0
1, 25701, Note_on_c, 1, 34, 0
1, 25701, Note_on_c, 8, 34, 0
1, 25760, Note_on_c, 1, 34, 99
1, 25760, Note_on_c, 8, 34, 99
1, 25760, Note_on_c, 9, 35, 107
1, 25760, Note_on_c, 11, 41, 107
1, 25772, Note_on_c, 9, 35, 0
1, 25920, Note_on_c, 5, 74, 105
1, 25920, Note_on_c, 5, 77, 94
1, 25920, Note_on_c, 5, 82, 94
1, 25920, Note_on_c, 9, 35, 114
1, 25920, Note_on_c, 11, 41, 114
1, 25921, Note_on_c, 11, 41, 0
1, 25932, Note_on_c, 9, 35, 0
1, 25945, Note_on_c, 14, 62, 105
1, 25945, Note_on_c, 14, 65, 94
1, 25945, Note_on_c, 14, 70, 94
1, 26075, Note_on_c, 5, 82, 0
1, 26081, Note_on_c, 11, 41, 0
1, 26083, Note_on_c, 5, 74, 0
1, 26087, Note_on_c, 5, 77, 0
1, 26100, Note_on_c, 14, 70, 0
1, 26108, Note_on_c, 14, 62, 0
1, 26112, Note_on_c, 14, 65, 0
1, 26240, Note_on_c, 9, 70, 65
1, 26252, Note_on_c, 9, 70, 0
1, 26307, Note_on_c, 3, 74, 0
1, 26400, Note_on_c, 5, 74, 109
1, 26400, Note_on_c, 5, 77, 94
1, 26400, Note_on_c, 5, 82, 94
1, 26400, Note_on_c, 9, 44, 107
1, 26400, Note_on_c, 9, 54, 109
1, 26412, Note_on_c, 9, 44, 0
1, 26412, Note_on_c, 9, 54, 0
1, 26425, Note_on_c, 14, 62, 109
1, 26425, Note_on_c, 14, 65, 94
1, 26425, Note_on_c, 14, 70, 94
1, 26501, Note_on_c, 1, 34, 0
1, 26501, Note_on_c, 8, 34, 0
1, 26541, Note_on_c, 5, 82, 0
1, 26554, Note_on_c, 5, 74, 0
1, 26554, Note_on_c, 5, 77, 0
1, 26566, Note_on_c, 14, 70, 0
1, 26579, Note_on_c, 14, 62, 0
1, 26579, Note_on_c, 14, 65, 0
1, 26720, Note_on_c, 1, 34, 99
1, 26720, Note_on_c, 8, 34, 99
1, 26743, Lyric_t, "WITH "
1, 26743, Note_on_c, 3, 69, 119
1, 26849, Note_on_c, 3, 69, 0
1, 26880, Note_on_c, 5, 74, 109
1, 26880, Note_on_c, 5, 77, 94
1, 26880, Note_on_c, 5, 82, 101
1, 26880, Note_on_c, 9, 35, 114
1, 26880, Note_on_c, 11, 41, 114
1, 26892, Note_on_c, 9, 35, 0
1, 26905, Note_on_c, 14, 62, 109
1, 26905, Note_on_c, 14, 65, 94
1, 26905, Note_on_c, 14, 70, 101
1, 26921, Lyric_t, "HIS "
1, 26921, Note_on_c, 3, 74, 127
1, 27035, Note_on_c, 5, 82, 0
1, 27041, Note_on_c, 11, 41, 0
1, 27051, Note_on_c, 5, 74, 0
1, 27051, Note_on_c, 5, 77, 0
1, 27060, Note_on_c, 14, 70, 0
1, 27076, Note_on_c, 14, 62, 0
1, 27076, Note_on_c, 14, 65, 0
1, 27171, Note_on_c, 3, 74, 0
1, 27360, Note_on_c, 5, 74, 108
1, 27360, Note_on_c, 5, 77, 97
1, 27360, Note_on_c, 5, 82, 98
1, 27360, Note_on_c, 9, 44, 107
1, 27360, Note_on_c, 9, 69, 109
1, 27372, Note_on_c, 9, 44, 0
1, 27372, Note_on_c, 9, 69, 0
1, 27381, Lyric_t, "SAME "
1, 27381, Note_on_c, 3, 69, 109
1, 27385, Note_on_c, 14, 62, 108
1, 27385, Note_on_c, 14, 65, 97
1, 27385, Note_on_c, 14, 70, 98
1, 27461, Note_on_c, 1, 34, 0
1, 27461, Note_on_c, 8, 34, 0
1, 27506, Note_on_c, 5, 82, 0
1, 27518, Note_on_c, 5, 74, 0
1, 27523, Note_on_c, 5, 77, 0
1, 27531, Note_on_c, 14, 70, 0
1, 27543, Note_on_c, 14, 62, 0
1, 27548, Note_on_c, 14, 65, 0
1, 27665, Note_on_c, 3, 69, 0
1, 27680, Note_on_c, 1, 34, 99
1, 27680, Note_on_c, 8, 34, 99
1, 27680, Note_on_c, 9, 35, 114
1, 27680, Note_on_c, 11, 41, 114
1, 27692, Note_on_c, 9, 35, 0
1, 27840, Note_on_c, 5, 74, 105
1, 27840, Note_on_c, 5, 77, 89
1, 27840, Note_on_c, 5, 82, 94
1, 27841, Note_on_c, 11, 41, 0
1, 27846, Lyric_t, "OLD "
1, 27846, Note_on_c, 3, 74, 127
1, 27865, Note_on_c, 14, 62, 105
1, 27865, Note_on_c, 14, 65, 89
1, 27865, Note_on_c, 14, 70, 94
1, 27986, Note_on_c, 5, 82, 0
1, 28008, Note_on_c, 5, 74, 0
1, 28008, Note_on_c, 5, 77, 0
1, 28011, Note_on_c, 14, 70, 0
1, 28033, Note_on_c, 14, 62, 0
1, 28033, Note_on_c, 14, 65, 0
1, 28101, Note_on_c, 3, 74, 0
1, 28156, Note_on_c, 1, 34, 0
1, 28156, Note_on_c, 8, 34, 0
1, 28160, Note_on_c, 1, 41, 99
1, 28160, Note_on_c, 8, 41, 99
1, 28160, Note_on_c, 9, 35, 114
1, 28160, Note_on_c, 9, 70, 65
1, 28160, Note_on_c, 11, 41, 114
1, 28172, Note_on_c, 9, 35, 0
1, 28172, Note_on_c, 9, 70, 0
1, 28317, Lyric_t, "SAFE "
1, 28317, Note_on_c, 3, 69, 119
1, 28320, Note_on_c, 5, 74, 109
1, 28320, Note_on_c, 5, 77, 97
1, 28320, Note_on_c, 5, 82, 110
1, 28320, Note_on_c, 9, 44, 107
1, 28320, Note_on_c, 9, 54, 109
1, 28321, Note_on_c, 11, 41, 0
1, 28332, Note_on_c, 9, 44, 0
1, 28332, Note_on_c, 9, 54, 0
1, 28345, Note_on_c, 14, 62, 109
1, 28345, Note_on_c, 14, 65, 97
1, 28345, Note_on_c, 14, 70, 110
1, 28469, Note_on_c, 5, 82, 0
1, 28478, Note_on_c, 5, 74, 0
1, 28481, Note_on_c, 5, 77, 0
1, 28494, Note_on_c, 14, 70, 0
1, 28503, Note_on_c, 14, 62, 0
1, 28506, Note_on_c, 14, 65, 0
1, 28636, Note_on_c, 1, 41, 0
1, 28636, Note_on_c, 8, 41, 0
1, 28640, Note_on_c, 1, 34, 99
1, 28640, Note_on_c, 8, 34, 99
1, 28640, Note_on_c, 1, 34, 0
1, 28640, Note_on_c, 8, 34, 0
1, 28800, Note_on_c, 1, 33, 99
1, 28800, Note_on_c, 5, 73, 101
1, 28800, Note_on_c, 5, 76, 97
1, 28800, Note_on_c, 5, 81, 105
1, 28800, Note_on_c, 7, 81, 119
1, 28800, Note_on_c, 8, 33, 99
1, 28800, Note_on_c, 9, 35, 114
1, 28800, Note_on_c, 11, 41, 114
1, 28812, Note_on_c, 9, 35, 0
1, 28825, Note_on_c, 14, 61, 101
1, 28825, Note_on_c, 14, 64, 97
1, 28825, Note_on_c, 14, 69, 105
1, 28873, Note_on_c, 5, 81, 0
1, 28898, Note_on_c, 14, 69, 0
1, 28921, Note_on_c, 5, 76, 0
1, 28923, Note_on_c, 5, 73, 0
1, 28946, Note_on_c, 14, 64, 0
1, 28948, Note_on_c, 14, 61, 0
1, 28958, Note_on_c, 3, 69, 0
1, 28961, Note_on_c, 11, 41, 0
1, 29251, Lyric_t, "BET"
1, 29251, Lyric_t, "\015"
1, 29251, Note_on_c, 3, 73, 127
1, 29280, Note_on_c, 5, 73, 111
1, 29280, Note_on_c, 5, 76, 107
1, 29280, Note_on_c, 5, 81, 105
1, 29280, Note_on_c, 9, 44, 107
1, 29280, Note_on_c, 9, 69, 109
1, 29292, Note_on_c, 9, 44, 0
1, 29292, Note_on_c, 9, 69, 0
1, 29305, Note_on_c, 14, 61, 111
1, 29305, Note_on_c, 14, 64, 107
1, 29305, Note_on_c, 14, 69, 105
1, 29437, Note_on_c, 5, 81, 0
1, 29441, Note_on_c, 7, 81, 0
1, 29444, Note_on_c, 5, 76, 0
1, 29448, Note_on_c, 5, 73, 0
1, 29462, Note_on_c, 14, 69, 0
1, 29469, Note_on_c, 14, 64, 0
1, 29473, Note_on_c, 14, 61, 0
1, 29541, Note_on_c, 1, 33, 0
1, 29541, Note_on_c, 8, 33, 0
1, 29600, Note_on_c, 1, 33, 99
1, 29600, Note_on_c, 8, 33, 99
1, 29600, Note_on_c, 9, 35, 107
1, 29600, Note_on_c, 11, 41, 107
1, 29612, Note_on_c, 9, 35, 0
1, 29760, Note_on_c, 5, 73, 105
1, 29760, Note_on_c, 5, 76, 94
1, 29760, Note_on_c, 5, 81, 94
1, 29760, Note_on_c, 9, 35, 114
1, 29760, Note_on_c, 11, 41, 114
1, 29761, Note_on_c, 11, 41, 0
1, 29772, Note_on_c, 9, 35, 0
1, 29785, Note_on_c, 14, 61, 105
1, 29785, Note_on_c, 14, 64, 94
1, 29785, Note_on_c, 14, 69, 94
1, 29915, Note_on_c, 5, 81, 0
1, 29921, Note_on_c, 11, 41, 0
1, 29923, Note_on_c, 5, 73, 0
1, 29927, Note_on_c, 5, 76, 0
1, 29940, Note_on_c, 14, 69, 0
1, 29948, Note_on_c, 14, 61, 0
1, 29952, Note_on_c, 14, 64, 0
1, 30080, Note_on_c, 9, 70, 65
1, 30092, Note_on_c, 9, 70, 0
1, 30215, Note_on_c, 3, 73, 0
1, 30240, Note_on_c, 5, 73, 109
1, 30240, Note_on_c, 5, 76, 94
1, 30240, Note_on_c, 5, 81, 94
1, 30240, Note_on_c, 9, 44, 107
1, 30240, Note_on_c, 9, 54, 109
1, 30252, Note_on_c, 9, 44, 0
1, 30252, Note_on_c, 9, 54, 0
1, 30265, Note_on_c, 14, 61, 109
1, 30265, Note_on_c, 14, 64, 94
1, 30265, Note_on_c, 14, 69, 94
1, 30341, Note_on_c, 1, 33, 0
1, 30341, Note_on_c, 8, 33, 0
1, 30381, Note_on_c, 5, 81, 0
1, 30394, Note_on_c, 5, 73, 0
1, 30394, Note_on_c, 5, 76, 0
1, 30406, Note_on_c, 14, 69, 0
1, 30419, Note_on_c, 14, 61, 0
1, 30419, Note_on_c, 14, 64, 0
1, 30560, Note_on_c, 1, 33, 99
1, 30560, Note_on_c, 8, 33, 99
1, 30720, Note_on_c, 5, 73, 109
1, 30720, Note_on_c, 5, 76, 94
1, 30720, Note_on_c, 5, 81, 101
1, 30720, Note_on_c, 7, 81, 119
1, 30720, Note_on_c, 9, 35, 114
1, 30720, Note_on_c, 11, 41, 114
1, 30732, Note_on_c, 9, 35, 0
1, 30745, Note_on_c, 14, 61, 109
1, 30745, Note_on_c, 14, 64, 94
1, 30745, Note_on_c, 14, 69, 101
1, 30875, Note_on_c, 5, 81, 0
1, 30881, Note_on_c, 11, 41, 0
1, 30891, Note_on_c, 5, 73, 0
1, 30891, Note_on_c, 5, 76, 0
1, 30900, Note_on_c, 14, 69, 0
1, 30916, Note_on_c, 14, 61, 0
1, 30916, Note_on_c, 14, 64, 0
1, 31196, Note_on_c, 7, 81, 0
1, 31200, Note_on_c, 5, 73, 108
1, 31200, Note_on_c, 5, 76, 97
1, 31200, Note_on_c, 5, 81, 98
1, 31200, Note_on_c, 7, 79, 119
1, 31200, Note_on_c, 9, 44, 107
1, 31200, Note_on_c, 9, 69, 109
1, 31212, Note_on_c, 9, 44, 0
1, 31212, Note_on_c, 9, 69, 0
1, 31225, Note_on_c, 14, 61, 108
1, 31225, Note_on_c, 14, 64, 97
1, 31225, Note_on_c, 14, 69, 98
1, 31301, Note_on_c, 1, 33, 0
1, 31301, Note_on_c, 8, 33, 0
1, 31346, Note_on_c, 5, 81, 0
1, 31358, Note_on_c, 5, 73, 0
1, 31363, Note_on_c, 5, 76, 0
1, 31371, Note_on_c, 14, 69, 0
1, 31383, Note_on_c, 14, 61, 0
1, 31388, Note_on_c, 14, 64, 0
1, 31520, Note_on_c, 1, 33, 99
1, 31520, Note_on_c, 8, 33, 99
1, 31520, Note_on_c, 9, 35, 114
1, 31520, Note_on_c, 11, 41, 114
1, 31532, Note_on_c, 9, 35, 0
1, 31676, Note_on_c, 7, 79, 0
1, 31680, Note_on_c, 5, 73, 105
1, 31680, Note_on_c, 5, 76, 89
1, 31680, Note_on_c, 5, 81, 94
1, 31680, Note_on_c, 7, 77, 119
1, 31681, Note_on_c, 11, 41, 0
1, 31705, Note_on_c, 14, 61, 105
1, 31705, Note_on_c, 14, 64, 89
1, 31705, Note_on_c, 14, 69, 94
1, 31826, Note_on_c, 5, 81, 0
1, 31848, Note_on_c, 5, 73, 0
1, 31848, Note_on_c, 5, 76, 0
1, 31851, Note_on_c, 14, 69, 0
1, 31873, Note_on_c, 14, 61, 0
1, 31873, Note_on_c, 14, 64, 0
1, 31996, Note_on_c, 1, 33, 0
1, 31996, Note_on_c, 8, 33, 0
1, 32000, Note_on_c, 1, 36, 99
1, 32000, Note_on_c, 8, 36, 99
1, 32000, Note_on_c, 9, 35, 114
1, 32000, Note_on_c, 9, 70, 65
1, 32000, Note_on_c, 11, 41, 114
1, 32012, Note_on_c, 9, 35, 0
1, 32012, Note_on_c, 9, 70, 0
1, 32156, Note_on_c, 7, 77, 0
1, 32160, Note_on_c, 5, 73, 109
1, 32160, Note_on_c, 5, 76, 97
1, 32160, Note_on_c, 5, 81, 110
1, 32160, Note_on_c, 7, 76, 119
1, 32160, Note_on_c, 9, 44, 107
1, 32160, Note_on_c, 9, 54, 109
1, 32161, Note_on_c, 11, 41, 0
1, 32172, Note_on_c, 9, 44, 0
1, 32172, Note_on_c, 9, 54, 0
1, 32185, Note_on_c, 14, 61, 109
1, 32185, Note_on_c, 14, 64, 97
1, 32185, Note_on_c, 14, 69, 110
1, 32309, Note_on_c, 5, 81, 0
1, 32318, Note_on_c, 5, 73, 0
1, 32321, Note_on_c, 5, 76, 0
1, 32334, Note_on_c, 14, 69, 0
1, 32343, Note_on_c, 14, 61, 0
1, 32346, Note_on_c, 14, 64, 0
1, 32445, Lyric_t, "ME "
1, 32445, Note_on_c, 3, 74, 116
1, 32476, Note_on_c, 1, 36, 0
1, 32476, Note_on_c, 8, 36, 0
1, 32480, Note_on_c, 1, 37, 99
1, 32480, Note_on_c, 8, 37, 99
1, 32636, Note_on_c, 1, 37, 0
1, 32636, Note_on_c, 7, 76, 0
1, 32636, Note_on_c, 8, 37, 0
1, 32640, Note_on_c, 1, 38, 99
1, 32640, Note_on_c, 5, 74, 101
1, 32640, Note_on_c, 5, 77, 97
1, 32640, Note_on_c, 5, 81, 105
1, 32640, Note_on_c, 7, 74, 119
1, 32640, Note_on_c, 8, 38, 99
1, 32640, Note_on_c, 9, 35, 114
1, 32640, Note_on_c, 11, 41, 114
1, 32652, Note_on_c, 9, 35, 0
1, 32665, Note_on_c, 14, 62, 101
1, 32665, Note_on_c, 14, 65, 97
1, 32665, Note_on_c, 14, 69, 105
1, 32713, Note_on_c, 5, 81, 0
1, 32738, Note_on_c, 14, 69, 0
1, 32761, Note_on_c, 5, 77, 0
1, 32763, Note_on_c, 5, 74, 0
1, 32786, Note_on_c, 14, 65, 0
1, 32788, Note_on_c, 14, 62, 0
1, 32801, Note_on_c, 11, 41, 0
1, 33116, Note_on_c, 7, 74, 0
1, 33120, Note_on_c, 5, 74, 111
1, 33120, Note_on_c, 5, 77, 107
1, 33120, Note_on_c, 5, 81, 105
1, 33120, Note_on_c, 9, 44, 107
1, 33120, Note_on_c, 9, 69, 109
1, 33132, Note_on_c, 9, 44, 0
1, 33132, Note_on_c, 9, 69, 0
1, 33145, Note_on_c, 14, 62, 111
1, 33145, Note_on_c, 14, 65, 107
1, 33145, Note_on_c, 14, 69, 105
1, 33277, Note_on_c, 5, 81, 0
1, 33284, Note_on_c, 5, 77, 0
1, 33288, Note_on_c, 5, 74, 0
1, 33302, Note_on_c, 14, 69, 0
1, 33309, Note_on_c, 14, 65, 0
1, 33313, Note_on_c, 14, 62, 0
1, 33361, Note_on_c, 1, 38, 0
1, 33361, Note_on_c, 8, 38, 0
1, 33440, Note_on_c, 1, 38, 99
1, 33440, Note_on_c, 8, 38, 99
1, 33440, Note_on_c, 9, 35, 107
1, 33440, Note_on_c, 11, 41, 107
1, 33452, Note_on_c, 9, 35, 0
1, 33600, Note_on_c, 5, 74, 105
1, 33600, Note_on_c, 5, 77, 94
1, 33600, Note_on_c, 5, 81, 94
1, 33600, Note_on_c, 9, 35, 114
1, 33600, Note_on_c, 11, 41, 114
1, 33601, Note_on_c, 11, 41, 0
1, 33612, Note_on_c, 9, 35, 0
1, 33625, Note_on_c, 14, 62, 105
1, 33625, Note_on_c, 14, 65, 94
1, 33625, Note_on_c, 14, 69, 94
1, 33755, Note_on_c, 5, 81, 0
1, 33761, Note_on_c, 11, 41, 0
1, 33763, Note_on_c, 5, 74, 0
1, 33767, Note_on_c, 5, 77, 0
1, 33780, Note_on_c, 14, 69, 0
1, 33788, Note_on_c, 14, 62, 0
1, 33792, Note_on_c, 14, 65, 0
1, 33920, Note_on_c, 9, 70, 65
1, 33932, Note_on_c, 9, 70, 0
1, 33995, Note_on_c, 3, 74, 0
1, 34080, Note_on_c, 5, 74, 109
1, 34080, Note_on_c, 5, 77, 94
1, 34080, Note_on_c, 5, 81, 94
1, 34080, Note_on_c, 9, 44, 107
1, 34080, Note_on_c, 9, 54, 109
1, 34092, Note_on_c, 9, 44, 0
1, 34092, Note_on_c, 9, 54, 0
1, 34105, Note_on_c, 14, 62, 109
1, 34105, Note_on_c, 14, 65, 94
1, 34105, Note_on_c, 14, 69, 94
1, 34221, Note_on_c, 5, 81, 0
1, 34234, Note_on_c, 5, 74, 0
1, 34234, Note_on_c, 5, 77, 0
1, 34241, Note_on_c, 1, 38, 0
1, 34241, Note_on_c, 8, 38, 0
1, 34246, Note_on_c, 14, 69, 0
1, 34259, Note_on_c, 14, 62, 0
1, 34259, Note_on_c, 14, 65, 0
1, 34400, Note_on_c, 1, 38, 99
1, 34400, Note_on_c, 8, 38, 99
1, 34560, Note_on_c, 5, 74, 109
1, 34560, Note_on_c, 5, 77, 94
1, 34560, Note_on_c, 5, 81, 101
1, 34560, Note_on_c, 9, 35, 114
1, 34560, Note_on_c, 11, 41, 114
1, 34572, Note_on_c, 9, 35, 0
1, 34585, Note_on_c, 14, 62, 109
1, 34585, Note_on_c, 14, 65, 94
1, 34585, Note_on_c, 14, 69, 101
1, 34715, Note_on_c, 5, 81, 0
1, 34721, Note_on_c, 11, 41, 0
1, 34731, Note_on_c, 5, 74, 0
1, 34731, Note_on_c, 5, 77, 0
1, 34740, Note_on_c, 14, 69, 0
1, 34756, Note_on_c, 14, 62, 0
1, 34756, Note_on_c, 14, 65, 0
1, 35040, Note_on_c, 5, 74, 108
1, 35040, Note_on_c, 5, 77, 97
1, 35040, Note_on_c, 5, 81, 98
1, 35040, Note_on_c, 9, 44, 107
1, 35040, Note_on_c, 9, 69, 109
1, 35052, Note_on_c, 9, 44, 0
1, 35052, Note_on_c, 9, 69, 0
1, 35057, Lyric_t, "AND "
1, 35057, Note_on_c, 3, 74, 119
1, 35065, Note_on_c, 14, 62, 108
1, 35065, Note_on_c, 14, 65, 97
1, 35065, Note_on_c, 14, 69, 98
1, 35186, Note_on_c, 5, 81, 0
1, 35198, Note_on_c, 5, 74, 0
1, 35201, Note_on_c, 1, 38, 0
1, 35201, Note_on_c, 8, 38, 0
1, 35203, Note_on_c, 5, 77, 0
1, 35211, Note_on_c, 14, 69, 0
1, 35223, Note_on_c, 14, 62, 0
1, 35228, Note_on_c, 14, 65, 0
1, 35299, Note_on_c, 3, 74, 0
1, 35360, Note_on_c, 1, 38, 99
1, 35360, Note_on_c, 8, 38, 99
1, 35360, Note_on_c, 9, 35, 114
1, 35360, Note_on_c, 11, 41, 114
1, 35372, Note_on_c, 9, 35, 0
1, 35520, Note_on_c, 5, 74, 105
1, 35520, Note_on_c, 5, 77, 89
1, 35520, Note_on_c, 5, 81, 94
1, 35521, Note_on_c, 11, 41, 0
1, 35545, Note_on_c, 14, 62, 105
1, 35545, Note_on_c, 14, 65, 89
1, 35545, Note_on_c, 14, 69, 94
1, 35562, Lyric_t, "MY "
1, 35562, Note_on_c, 3, 74, 124
1, 35666, Note_on_c, 5, 81, 0
1, 35688, Note_on_c, 5, 74, 0
1, 35688, Note_on_c, 5, 77, 0
1, 35691, Note_on_c, 14, 69, 0
1, 35713, Note_on_c, 14, 62, 0
1, 35713, Note_on_c, 14, 65, 0
1, 35836, Note_on_c, 1, 38, 0
1, 35836, Note_on_c, 8, 38, 0
1, 35840, Note_on_c, 1, 36, 99
1, 35840, Note_on_c, 8, 36, 99
1, 35840, Note_on_c, 9, 35, 114
1, 35840, Note_on_c, 9, 70, 65
1, 35840, Note_on_c, 11, 41, 114
1, 35852, Note_on_c, 9, 35, 0
1, 35852, Note_on_c, 9, 70, 0
1, 35948, Note_on_c, 3, 74, 0
1, 36000, Note_on_c, 5, 74, 109
1, 36000, Note_on_c, 5, 77, 97
1, 36000, Note_on_c, 5, 81, 110
1, 36000, Note_on_c, 9, 44, 107
1, 36000, Note_on_c, 9, 54, 109
1, 36001, Note_on_c, 11, 41, 0
1, 36004, Lyric_t, "HEAD "
1, 36004, Note_on_c, 3, 72, 127
1, 36012, Note_on_c, 9, 44, 0
1, 36012, Note_on_c, 9, 54, 0
1, 36025, Note_on_c, 14, 62, 109
1, 36025, Note_on_c, 14, 65, 97
1, 36025, Note_on_c, 14, 69, 110
1, 36149, Note_on_c, 5, 81, 0
1, 36158, Note_on_c, 5, 74, 0
1, 36161, Note_on_c, 5, 77, 0
1, 36174, Note_on_c, 14, 69, 0
1, 36183, Note_on_c, 14, 62, 0
1, 36186, Note_on_c, 14, 65, 0
1, 36316, Note_on_c, 1, 36, 0
1, 36316, Note_on_c, 8, 36, 0
1, 36320, Note_on_c, 1, 33, 99
1, 36320, Note_on_c, 8, 33, 99
1, 36476, Note_on_c, 1, 33, 0
1, 36476, Note_on_c, 8, 33, 0
1, 36480, Note_on_c, 1, 31, 99
1, 36480, Note_on_c, 5, 74, 101
1, 36480, Note_on_c, 5, 79, 97
1, 36480, Note_on_c, 5, 82, 105
1, 36480, Note_on_c, 8, 31, 99
1, 36480, Note_on_c, 9, 35, 114
1, 36480, Note_on_c, 11, 41, 114
1, 36492, Note_on_c, 9, 35, 0
1, 36505, Note_on_c, 14, 62, 101
1, 36505, Note_on_c, 14, 67, 97
1, 36505, Note_on_c, 14, 70, 105
1, 36553, Note_on_c, 5, 82, 0
1, 36578, Note_on_c, 14, 70, 0
1, 36601, Note_on_c, 5, 79, 0
1, 36603, Note_on_c, 5, 74, 0
1, 36626, Note_on_c, 14, 67, 0
1, 36628, Note_on_c, 14, 62, 0
1, 36641, Note_on_c, 11, 41, 0
1, 36832, Note_on_c, 3, 72, 0
1, 36882, Lyric_t, "HIGH"
1, 36882, Lyric_t, "\015"
1, 36882, Note_on_c, 3, 74, 121
1, 36960, Note_on_c, 5, 74, 111
1, 36960, Note_on_c, 5, 79, 107
1, 36960, Note_on_c, 5, 82, 105
1, 36960, Note_on_c, 9, 44, 107
1, 36960, Note_on_c, 9, 69, 109
1, 36972, Note_on_c, 9, 44, 0
1, 36972, Note_on_c, 9, 69, 0
1, 36985, Note_on_c, 14, 62, 111
1, 36985, Note_on_c, 14, 67, 107
1, 36985, Note_on_c, 14, 70, 105
1, 37117, Note_on_c, 5, 82, 0
1, 37121, Note_on_c, 1, 31, 0
1, 37121, Note_on_c, 8, 31, 0
1, 37124, Note_on_c, 5, 79, 0
1, 37128, Note_on_c, 5, 74, 0
1, 37142, Note_on_c, 14, 70, 0
1, 37149, Note_on_c, 14, 67, 0
1, 37153, Note_on_c, 14, 62, 0
1, 37280, Note_on_c, 1, 31, 99
1, 37280, Note_on_c, 8, 31, 99
1, 37280, Note_on_c, 9, 35, 107
1, 37280, Note_on_c, 11, 41, 107
1, 37292, Note_on_c, 9, 35, 0
1, 37440, Note_on_c, 5, 74, 105
1, 37440, Note_on_c, 5, 79, 94
1, 37440, Note_on_c, 5, 82, 94
1, 37440, Note_on_c, 9, 35, 114
1, 37440, Note_on_c, 11, 41, 114
1, 37441, Note_on_c, 11, 41, 0
1, 37452, Note_on_c, 9, 35, 0
1, 37465, Note_on_c, 14, 62, 105
1, 37465, Note_on_c, 14, 67, 94
1, 37465, Note_on_c, 14, 70, 94
1, 37595, Note_on_c, 5, 82, 0
1, 37601, Note_on_c, 11, 41, 0
1, 37603, Note_on_c, 5, 74, 0
1, 37607, Note_on_c, 5, 79, 0
1, 37620, Note_on_c, 14, 70, 0
1, 37628, Note_on_c, 14, 62, 0
1, 37632, Note_on_c, 14, 67, 0
1, 37760, Note_on_c, 9, 70, 65
1, 37772, Note_on_c, 9, 70, 0
1, 37920, Note_on_c, 5, 74, 109
1, 37920, Note_on_c, 5, 79, 94
1, 37920, Note_on_c, 5, 82, 94
1, 37920, Note_on_c, 9, 44, 107
1, 37920, Note_on_c, 9, 54, 109
1, 37932, Note_on_c, 9, 44, 0
1, 37932, Note_on_c, 9, 54, 0
1, 37945, Note_on_c, 14, 62, 109
1, 37945, Note_on_c, 14, 67, 94
1, 37945, Note_on_c, 14, 70, 94
1, 38061, Note_on_c, 5, 82, 0
1, 38070, Note_on_c, 3, 74, 0
1, 38074, Note_on_c, 5, 74, 0
1, 38074, Note_on_c, 5, 79, 0
1, 38081, Note_on_c, 1, 31, 0
1, 38081, Note_on_c, 8, 31, 0
1, 38086, Note_on_c, 14, 70, 0
1, 38099, Note_on_c, 14, 62, 0
1, 38099, Note_on_c, 14, 67, 0
1, 38240, Note_on_c, 1, 31, 99
1, 38240, Note_on_c, 8, 31, 99
1, 38400, Note_on_c, 5, 74, 109
1, 38400, Note_on_c, 5, 79, 94
1, 38400, Note_on_c, 5, 82, 101
1, 38400, Note_on_c, 9, 35, 114
1, 38400, Note_on_c, 11, 41, 114
1, 38412, Note_on_c, 9, 35, 0
1, 38425, Note_on_c, 14, 62, 109
1, 38425, Note_on_c, 14, 67, 94
1, 38425, Note_on_c, 14, 70, 101
1, 38555, Note_on_c, 5, 82, 0
1, 38561, Note_on_c, 11, 41, 0
1, 38571, Note_on_c, 5, 74, 0
1, 38571, Note_on_c, 5, 79, 0
1, 38580, Note_on_c, 14, 70, 0
1, 38596, Note_on_c, 14, 62, 0
1, 38596, Note_on_c, 14, 67, 0
1, 38853, Lyric_t, "AND "
1, 38853, Note_on_c, 3, 74, 119
1, 38880, Note_on_c, 5, 74, 108
1, 38880, Note_on_c, 5, 79, 97
1, 38880, Note_on_c, 5, 82, 98
1, 38880, Note_on_c, 9, 44, 107
1, 38880, Note_on_c, 9, 69, 109
1, 38892, Note_on_c, 9, 44, 0
1, 38892, Note_on_c, 9, 69, 0
1, 38905, Note_on_c, 14, 62, 108
1, 38905, Note_on_c, 14, 67, 97
1, 38905, Note_on_c, 14, 70, 98
1, 39026, Note_on_c, 5, 82, 0
1, 39038, Note_on_c, 5, 74, 0
1, 39041, Note_on_c, 1, 31, 0
1, 39041, Note_on_c, 8, 31, 0
1, 39043, Note_on_c, 5, 79, 0
1, 39051, Note_on_c, 14, 70, 0
1, 39063, Note_on_c, 14, 62, 0
1, 39068, Note_on_c, 14, 67, 0
1, 39160, Note_on_c, 3, 74, 0
1, 39200, Note_on_c, 1, 31, 99
1, 39200, Note_on_c, 8, 31, 99
1, 39200, Note_on_c, 9, 35, 114
1, 39200, Note_on_c, 11, 41, 114
1, 39212, Note_on_c, 9, 35, 0
1, 39344, Lyric_t, "MY "
1, 39344, Note_on_c, 3, 74, 124
1, 39360, Note_on_c, 5, 74, 105
1, 39360, Note_on_c, 5, 79, 89
1, 39360, Note_on_c, 5, 82, 94
1, 39361, Note_on_c, 11, 41, 0
1, 39385, Note_on_c, 14, 62, 105
1, 39385, Note_on_c, 14, 67, 89
1, 39385, Note_on_c, 14, 70, 94
1, 39506, Note_on_c, 5, 82, 0
1, 39528, Note_on_c, 5, 74, 0
1, 39528, Note_on_c, 5, 79, 0
1, 39531, Note_on_c, 14, 70, 0
1, 39553, Note_on_c, 14, 62, 0
1, 39553, Note_on_c, 14, 67, 0
1, 39676, Note_on_c, 1, 31, 0
1, 39676, Note_on_c, 8, 31, 0
1, 39680, Note_on_c, 1, 32, 99
1, 39680, Note_on_c, 8, 32, 99
1, 39680, Note_on_c, 9, 35, 114
1, 39680, Note_on_c, 9, 70, 65
1, 39680, Note_on_c, 11, 41, 114
1, 39692, Note_on_c, 9, 35, 0
1, 39692, Note_on_c, 9, 70, 0
1, 39716, Note_on_c, 3, 74, 0
1, 39840, Lyric_t, "TEARS "
1, 39840, Note_on_c, 3, 74, 119
1, 39840, Note_on_c, 5, 74, 109
1, 39840, Note_on_c, 5, 79, 97
1, 39840, Note_on_c, 5, 82, 110
1, 39840, Note_on_c, 9, 44, 107
1, 39840, Note_on_c, 9, 54, 109
1, 39841, Note_on_c, 11, 41, 0
1, 39852, Note_on_c, 9, 44, 0
1, 39852, Note_on_c, 9, 54, 0
1, 39865, Note_on_c, 14, 62, 109
1, 39865, Note_on_c, 14, 67, 97
1, 39865, Note_on_c, 14, 70, 110
1, 39989, Note_on_c, 5, 82, 0
1, 39998, Note_on_c, 5, 74, 0
1, 40001, Note_on_c, 5, 79, 0
1, 40014, Note_on_c, 14, 70, 0
1, 40023, Note_on_c, 14, 62, 0
1, 40026, Note_on_c, 14, 67, 0
1, 40156, Note_on_c, 1, 32, 0
1, 40156, Note_on_c, 8, 32, 0
1, 40160, Note_on_c, 1, 33, 99
1, 40160, Note_on_c, 8, 33, 99
1, 40316, Note_on_c, 1, 33, 0
1, 40316, Note_on_c, 8, 33, 0
1, 40320, Note_on_c, 1, 34, 99
1, 40320, Note_on_c, 5, 74, 101
1, 40320, Note_on_c, 5, 77, 97
1, 40320, Note_on_c, 5, 82, 105
1, 40320, Note_on_c, 8, 34, 99
1, 40320, Note_on_c, 9, 35, 114
1, 40320, Note_on_c, 11, 41, 114
1, 40332, Note_on_c, 9, 35, 0
1, 40345, Note_on_c, 14, 62, 101
1, 40345, Note_on_c, 14, 65, 97
1, 40345, Note_on_c, 14, 70, 105
1, 40393, Note_on_c, 5, 82, 0
1, 40418, Note_on_c, 14, 70, 0
1, 40441, Note_on_c, 5, 77, 0
1, 40443, Note_on_c, 5, 74, 0
1, 40466, Note_on_c, 14, 65, 0
1, 40468, Note_on_c, 14, 62, 0
1, 40481, Note_on_c, 11, 41, 0
1, 40719, Note_on_c, 3, 74, 0
1, 40744, Lyric_t, "DRY"
1, 40744, Lyric_t, "\015"
1, 40744, Note_on_c, 3, 74, 119
1, 40800, Note_on_c, 5, 74, 111
1, 40800, Note_on_c, 5, 77, 107
1, 40800, Note_on_c, 5, 82, 105
1, 40800, Note_on_c, 9, 44, 107
1, 40800, Note_on_c, 9, 69, 109
1, 40812, Note_on_c, 9, 44, 0
1, 40812, Note_on_c, 9, 69, 0
1, 40825, Note_on_c, 14, 62, 111
1, 40825, Note_on_c, 14, 65, 107
1, 40825, Note_on_c, 14, 70, 105
1, 40957, Note_on_c, 5, 82, 0
1, 40964, Note_on_c, 5, 77, 0
1, 40968, Note_on_c, 5, 74, 0
1, 40982, Note_on_c, 14, 70, 0
1, 40989, Note_on_c, 14, 65, 0
1, 40993, Note_on_c, 14, 62, 0
1, 41061, Note_on_c, 1, 34, 0
1, 41061, Note_on_c, 8, 34, 0
1, 41120, Note_on_c, 1, 34, 99
1, 41120, Note_on_c, 8, 34, 99
1, 41120, Note_on_c, 9, 35, 107
1, 41120, Note_on_c, 11, 41, 107
1, 41132, Note_on_c, 9, 35, 0
1, 41280, Note_on_c, 5, 74, 105
1, 41280, Note_on_c, 5, 77, 94
1, 41280, Note_on_c, 5, 82, 94
1, 41280, Note_on_c, 9, 35, 114
1, 41280, Note_on_c, 11, 41, 114
1, 41281, Note_on_c, 11, 41, 0
1, 41292, Note_on_c, 9, 35, 0
1, 41305, Note_on_c, 14, 62, 105
1, 41305, Note_on_c, 14, 65, 94
1, 41305, Note_on_c, 14, 70, 94
1, 41435, Note_on_c, 5, 82, 0
1, 41441, Note_on_c, 11, 41, 0
1, 41443, Note_on_c, 5, 74, 0
1, 41447, Note_on_c, 5, 77, 0
1, 41460, Note_on_c, 14, 70, 0
1, 41468, Note_on_c, 14, 62, 0
1, 41472, Note_on_c, 14, 65, 0
1, 41600, Note_on_c, 9, 70, 65
1, 41612, Note_on_c, 9, 70, 0
1, 41760, Note_on_c, 5, 74, 109
1, 41760, Note_on_c, 5, 77, 94
1, 41760, Note_on_c, 5, 82, 94
1, 41760, Note_on_c, 9, 44, 107
1, 41760, Note_on_c, 9, 54, 109
1, 41772, Note_on_c, 9, 44, 0
1, 41772, Note_on_c, 9, 54, 0
1, 41785, Note_on_c, 14, 62, 109
1, 41785, Note_on_c, 14, 65, 94
1, 41785, Note_on_c, 14, 70, 94
1, 41819, Note_on_c, 3, 74, 0
1, 41861, Note_on_c, 1, 34, 0
1, 41861, Note_on_c, 8, 34, 0
1, 41901, Note_on_c, 5, 82, 0
1, 41914, Note_on_c, 5, 74, 0
1, 41914, Note_on_c, 5, 77, 0
1, 41926, Note_on_c, 14, 70, 0
1, 41939, Note_on_c, 14, 62, 0
1, 41939, Note_on_c, 14, 65, 0
1, 42016, Lyric_t, "GET "
1, 42016, Note_on_c, 3, 69, 127
1, 42080, Note_on_c, 1, 34, 99
1, 42080, Note_on_c, 8, 34, 99
1, 42144, Note_on_c, 3, 69, 0
1, 42218, Lyric_t, "ON "
1, 42218, Note_on_c, 3, 74, 127
1, 42240, Note_on_c, 5, 74, 109
1, 42240, Note_on_c, 5, 77, 94
1, 42240, Note_on_c, 5, 82, 101
1, 42240, Note_on_c, 9, 35, 114
1, 42240, Note_on_c, 11, 41, 114
1, 42252, Note_on_c, 9, 35, 0
1, 42265, Note_on_c, 14, 62, 109
1, 42265, Note_on_c, 14, 65, 94
1, 42265, Note_on_c, 14, 70, 101
1, 42395, Note_on_c, 5, 82, 0
1, 42401, Note_on_c, 11, 41, 0
1, 42411, Note_on_c, 5, 74, 0
1, 42411, Note_on_c, 5, 77, 0
1, 42420, Note_on_c, 14, 70, 0
1, 42436, Note_on_c, 14, 62, 0
1, 42436, Note_on_c, 14, 65, 0
1, 42465, Note_on_c, 3, 74, 0
1, 42670, Lyric_t, "WITH"
1, 42670, Note_on_c, 3, 69, 127
1, 42720, Note_on_c, 5, 74, 108
1, 42720, Note_on_c, 5, 77, 97
1, 42720, Note_on_c, 5, 82, 98
1, 42720, Note_on_c, 9, 44, 107
1, 42720, Note_on_c, 9, 69, 109
1, 42732, Note_on_c, 9, 44, 0
1, 42732, Note_on_c, 9, 69, 0
1, 42745, Note_on_c, 14, 62, 108
1, 42745, Note_on_c, 14, 65, 97
1, 42745, Note_on_c, 14, 70, 98
1, 42821, Note_on_c, 1, 34, 0
1, 42821, Note_on_c, 8, 34, 0
1, 42866, Note_on_c, 5, 82, 0
1, 42878, Note_on_c, 5, 74, 0
1, 42883, Note_on_c, 5, 77, 0
1, 42891, Note_on_c, 14, 70, 0
1, 42903, Note_on_c, 14, 62, 0
1, 42908, Note_on_c, 14, 65, 0
1, 43040, Note_on_c, 1, 34, 99
1, 43040, Note_on_c, 8, 34, 99
1, 43040, Note_on_c, 9, 35, 114
1, 43040, Note_on_c, 11, 41, 114
1, 43052, Note_on_c, 9, 35, 0
1, 43128, Note_on_c, 3, 69, 0
1, 43160, Lyric_t, "OUT "
1, 43160, Note_on_c, 3, 74, 114
1, 43200, Note_on_c, 5, 74, 105
1, 43200, Note_on_c, 5, 77, 89
1, 43200, Note_on_c, 5, 82, 94
1, 43201, Note_on_c, 11, 41, 0
1, 43225, Note_on_c, 14, 62, 105
1, 43225, Note_on_c, 14, 65, 89
1, 43225, Note_on_c, 14, 70, 94
1, 43346, Note_on_c, 5, 82, 0
1, 43368, Note_on_c, 5, 74, 0
1, 43368, Note_on_c, 5, 77, 0
1, 43371, Note_on_c, 14, 70, 0
1, 43393, Note_on_c, 14, 62, 0
1, 43393, Note_on_c, 14, 65, 0
1, 43442, Note_on_c, 3, 74, 0
1, 43516, Note_on_c, 1, 34, 0
1, 43516, Note_on_c, 8, 34, 0
1, 43520, Note_on_c, 1, 41, 99
1, 43520, Note_on_c, 8, 41, 99
1, 43520, Note_on_c, 9, 35, 114
1, 43520, Note_on_c, 9, 70, 65
1, 43520, Note_on_c, 11, 41, 114
1, 43532, Note_on_c, 9, 35, 0
1, 43532, Note_on_c, 9, 70, 0
1, 43632, Lyric_t, "MY "
1, 43632, Note_on_c, 3, 74, 124
1, 43680, Note_on_c, 5, 74, 109
1, 43680, Note_on_c, 5, 77, 97
1, 43680, Note_on_c, 5, 82, 110
1, 43680, Note_on_c, 9, 44, 107
1, 43680, Note_on_c, 9, 54, 109
1, 43681, Note_on_c, 11, 41, 0
1, 43692, Note_on_c, 9, 44, 0
1, 43692, Note_on_c, 9, 54, 0
1, 43705, Note_on_c, 14, 62, 109
1, 43705, Note_on_c, 14, 65, 97
1, 43705, Note_on_c, 14, 70, 110
1, 43829, Note_on_c, 5, 82, 0
1, 43838, Note_on_c, 5, 74, 0
1, 43841, Note_on_c, 5, 77, 0
1, 43854, Note_on_c, 14, 70, 0
1, 43863, Note_on_c, 14, 62, 0
1, 43866, Note_on_c, 14, 65, 0
1, 43996, Note_on_c, 1, 41, 0
1, 43996, Note_on_c, 8, 41, 0
1, 44000, Note_on_c, 1, 34, 99
1, 44000, Note_on_c, 8, 34, 99
1, 44000, Note_on_c, 1, 34, 0
1, 44000, Note_on_c, 8, 34, 0
1, 44160, Note_on_c, 1, 33, 99
1, 44160, Note_on_c, 5, 73, 101
1, 44160, Note_on_c, 5, 76, 97
1, 44160, Note_on_c, 5, 81, 105
1, 44160, Note_on_c, 7, 81, 119
1, 44160, Note_on_c, 8, 33, 99
1, 44160, Note_on_c, 9, 35, 114
1, 44160, Note_on_c, 11, 41, 114
1, 44172, Note_on_c, 9, 35, 0
1, 44185, Note_on_c, 14, 61, 101
1, 44185, Note_on_c, 14, 64, 97
1, 44185, Note_on_c, 14, 69, 105
1, 44233, Note_on_c, 5, 81, 0
1, 44258, Note_on_c, 14, 69, 0
1, 44281, Note_on_c, 5, 76, 0
1, 44283, Note_on_c, 5, 73, 0
1, 44306, Note_on_c, 14, 64, 0
1, 44308, Note_on_c, 14, 61, 0
1, 44321, Note_on_c, 11, 41, 0
1, 44370, Note_on_c, 3, 74, 0
1, 44540, Lyric_t, "GUY"
1, 44540, Lyric_t, "\015"
1, 44540, Note_on_c, 3, 73, 122
1, 44640, Note_on_c, 5, 73, 111
1, 44640, Note_on_c, 5, 76, 107
1, 44640, Note_on_c, 5, 81, 105
1, 44640, Note_on_c, 9, 44, 107
1, 44640, Note_on_c, 9, 69, 109
1, 44652, Note_on_c, 9, 44, 0
1, 44652, Note_on_c, 9, 69, 0
1, 44665, Note_on_c, 14, 61, 111
1, 44665, Note_on_c, 14, 64, 107
1, 44665, Note_on_c, 14, 69, 105
1, 44797, Note_on_c, 5, 81, 0
1, 44801, Note_on_c, 7, 81, 0
1, 44804, Note_on_c, 5, 76, 0
1, 44808, Note_on_c, 5, 73, 0
1, 44822, Note_on_c, 14, 69, 0
1, 44829, Note_on_c, 14, 64, 0
1, 44833, Note_on_c, 14, 61, 0
1, 44901, Note_on_c, 1, 33, 0
1, 44901, Note_on_c, 8, 33, 0
1, 44960, Note_on_c, 1, 33, 99
1, 44960, Note_on_c, 8, 33, 99
1, 44960, Note_on_c, 9, 35, 107
1, 44960, Note_on_c, 11, 41, 107
1, 44972, Note_on_c, 9, 35, 0
1, 45120, Note_on_c, 5, 73, 105
1, 45120, Note_on_c, 5, 76, 94
1, 45120, Note_on_c, 5, 81, 94
1, 45120, Note_on_c, 9, 35, 114
1, 45120, Note_on_c, 11, 41, 114
1, 45121, Note_on_c, 11, 41, 0
1, 45132, Note_on_c, 9, 35, 0
1, 45145, Note_on_c, 14, 61, 105
1, 45145, Note_on_c, 14, 64, 94
1, 45145, Note_on_c, 14, 69, 94
1, 45275, Note_on_c, 5, 81, 0
1, 45281, Note_on_c, 11, 41, 0
1, 45283, Note_on_c, 5, 73, 0
1, 45287, Note_on_c, 5, 76, 0
1, 45300, Note_on_c, 14, 69, 0
1, 45308, Note_on_c, 14, 61, 0
1, 45312, Note_on_c, 14, 64, 0
1, 45440, Note_on_c, 9, 70, 65
1, 45452, Note_on_c, 9, 70, 0
1, 45600, Note_on_c, 5, 73, 109
1, 45600, Note_on_c, 5, 76, 94
1, 45600, Note_on_c, 5, 81, 94
1, 45600, Note_on_c, 9, 44, 107
1, 45600, Note_on_c, 9, 54, 109
1, 45612, Note_on_c, 9, 44, 0
1, 45612, Note_on_c, 9, 54, 0
1, 45625, Note_on_c, 14, 61, 109
1, 45625, Note_on_c, 14, 64, 94
1, 45625, Note_on_c, 14, 69, 94
1, 45701, Note_on_c, 1, 33, 0
1, 45701, Note_on_c, 8, 33, 0
1, 45741, Note_on_c, 5, 81, 0
1, 45754, Note_on_c, 5, 73, 0
1, 45754, Note_on_c, 5, 76, 0
1, 45766, Note_on_c, 14, 69, 0
1, 45779, Note_on_c, 14, 61, 0
1, 45779, Note_on_c, 14, 64, 0
1, 45920, Note_on_c, 1, 33, 99
1, 45920, Note_on_c, 8, 33, 99
1, 46080, Note_on_c, 5, 73, 109
1, 46080, Note_on_c, 5, 76, 94
1, 46080, Note_on_c, 5, 81, 101
1, 46080, Note_on_c, 7, 81, 119
1, 46080, Note_on_c, 9, 35, 114
1, 46080, Note_on_c, 11, 41, 114
1, 46092, Note_on_c, 9, 35, 0
1, 46105, Note_on_c, 14, 61, 109
1, 46105, Note_on_c, 14, 64, 94
1, 46105, Note_on_c, 14, 69, 101
1, 46235, Note_on_c, 5, 81, 0
1, 46241, Note_on_c, 11, 41, 0
1, 46251, Note_on_c, 5, 73, 0
1, 46251, Note_on_c, 5, 76, 0
1, 46260, Note_on_c, 14, 69, 0
1, 46276, Note_on_c, 14, 61, 0
1, 46276, Note_on_c, 14, 64, 0
1, 46340, Note_on_c, 3, 73, 0
1, 46556, Note_on_c, 7, 81, 0
1, 46560, Note_on_c, 5, 73, 108
1, 46560, Note_on_c, 5, 76, 97
1, 46560, Note_on_c, 5, 81, 98
1, 46560, Note_on_c, 7, 79, 119
1, 46560, Note_on_c, 9, 44, 107
1, 46560, Note_on_c, 9, 69, 109
1, 46572, Note_on_c, 9, 44, 0
1, 46572, Note_on_c, 9, 69, 0
1, 46585, Note_on_c, 14, 61, 108
1, 46585, Note_on_c, 14, 64, 97
1, 46585, Note_on_c, 14, 69, 98
1, 46661, Note_on_c, 1, 33, 0
1, 46661, Note_on_c, 8, 33, 0
1, 46706, Note_on_c, 5, 81, 0
1, 46718, Note_on_c, 5, 73, 0
1, 46723, Note_on_c, 5, 76, 0
1, 46731, Note_on_c, 14, 69, 0
1, 46743, Note_on_c, 14, 61, 0
1, 46748, Note_on_c, 14, 64, 0
1, 46880, Note_on_c, 1, 33, 99
1, 46880, Note_on_c, 8, 33, 99
1, 46880, Note_on_c, 9, 35, 114
1, 46880, Note_on_c, 11, 41, 114
1, 46892, Note_on_c, 9, 35, 0
1, 47036, Note_on_c, 7, 79, 0
1, 47040, Note_on_c, 5, 73, 105
1, 47040, Note_on_c, 5, 76, 89
1, 47040, Note_on_c, 5, 81, 94
1, 47040, Note_on_c, 7, 77, 119
1, 47041, Note_on_c, 11, 41, 0
1, 47065, Note_on_c, 14, 61, 105
1, 47065, Note_on_c, 14, 64, 89
1, 47065, Note_on_c, 14, 69, 94
1, 47186, Note_on_c, 5, 81, 0
1, 47208, Note_on_c, 5, 73, 0
1, 47208, Note_on_c, 5, 76, 0
1, 47211, Note_on_c, 14, 69, 0
1, 47233, Note_on_c, 14, 61, 0
1, 47233, Note_on_c, 14, 64, 0
1, 47356, Note_on_c, 1, 33, 0
1, 47356, Note_on_c, 8, 33, 0
1, 47360, Note_on_c, 1, 36, 99
1, 47360, Note_on_c, 8, 36, 99
1, 47360, Note_on_c, 9, 35, 114
1, 47360, Note_on_c, 9, 70, 65
1, 47360, Note_on_c, 11, 41, 114
1, 47372, Note_on_c, 9, 35, 0
1, 47372, Note_on_c, 9, 70, 0
1, 47516, Note_on_c, 7, 77, 0
1, 47520, Note_on_c, 5, 73, 109
1, 47520, Note_on_c, 5, 76, 97
1, 47520, Note_on_c, 5, 81, 110
1, 47520, Note_on_c, 7, 76, 119
1, 47520, Note_on_c, 9, 44, 107
1, 47520, Note_on_c, 9, 54, 109
1, 47521, Note_on_c, 11, 41, 0
1, 47532, Note_on_c, 9, 44, 0
1, 47532, Note_on_c, 9, 54, 0
1, 47545, Note_on_c, 14, 61, 109
1, 47545, Note_on_c, 14, 64, 97
1, 47545, Note_on_c, 14, 69, 110
1, 47669, Note_on_c, 5, 81, 0
1, 47678, Note_on_c, 5, 73, 0
1, 47681, Note_on_c, 5, 76, 0
1, 47694, Note_on_c, 14, 69, 0
1, 47703, Note_on_c, 14, 61, 0
1, 47706, Note_on_c, 14, 64, 0
1, 47816, Lyric_t, "YOU "
1, 47816, Note_on_c, 3, 74, 114
1, 47836, Note_on_c, 1, 36, 0
1, 47836, Note_on_c, 8, 36, 0
1, 47840, Note_on_c, 1, 37, 99
1, 47840, Note_on_c, 8, 37, 99
1, 47996, Note_on_c, 1, 37, 0
1, 47996, Note_on_c, 7, 76, 0
1, 47996, Note_on_c, 8, 37, 0
1, 48000, Note_on_c, 1, 38, 99
1, 48000, Note_on_c, 5, 74, 101
1, 48000, Note_on_c, 5, 77, 97
1, 48000, Note_on_c, 5, 81, 105
1, 48000, Note_on_c, 6, 53, 72
1, 48000, Note_on_c, 6, 57, 72
1, 48000, Note_on_c, 6, 60, 72
1, 48000, Note_on_c, 7, 74, 119
1, 48000, Note_on_c, 8, 38, 99
1, 48000, Note_on_c, 9, 35, 114
1, 48000, Note_on_c, 11, 41, 114
1, 48012, Note_on_c, 9, 35, 0
1, 48025, Note_on_c, 14, 62, 101
1, 48025, Note_on_c, 14, 65, 97
1, 48025, Note_on_c, 14, 69, 105
1, 48073, Note_on_c, 5, 81, 0
1, 48098, Note_on_c, 14, 69, 0
1, 48121, Note_on_c, 5, 77, 0
1, 48123, Note_on_c, 5, 74, 0
1, 48146, Note_on_c, 14, 65, 0
1, 48148, Note_on_c, 14, 62, 0
1, 48161, Note_on_c, 11, 41, 0
1, 48476, Note_on_c, 7, 74, 0
1, 48480, Note_on_c, 5, 74, 111
1, 48480, Note_on_c, 5, 77, 107
1, 48480, Note_on_c, 5, 81, 105
1, 48480, Note_on_c, 9, 44, 107
1, 48480, Note_on_c, 9, 69, 109
1, 48492, Note_on_c, 9, 44, 0
1, 48492, Note_on_c, 9, 69, 0
1, 48505, Note_on_c, 14, 62, 111
1, 48505, Note_on_c, 14, 65, 107
1, 48505, Note_on_c, 14, 69, 105
1, 48637, Note_on_c, 5, 81, 0
1, 48644, Note_on_c, 5, 77, 0
1, 48648, Note_on_c, 5, 74, 0
1, 48662, Note_on_c, 14, 69, 0
1, 48669, Note_on_c, 14, 65, 0
1, 48673, Note_on_c, 14, 62, 0
1, 48721, Note_on_c, 1, 38, 0
1, 48721, Note_on_c, 8, 38, 0
1, 48800, Note_on_c, 1, 38, 99
1, 48800, Note_on_c, 8, 38, 99
1, 48800, Note_on_c, 9, 35, 107
1, 48800, Note_on_c, 11, 41, 107
1, 48812, Note_on_c, 9, 35, 0
1, 48960, Note_on_c, 5, 74, 105
1, 48960, Note_on_c, 5, 77, 94
1, 48960, Note_on_c, 5, 81, 94
1, 48960, Note_on_c, 9, 35, 114
1, 48960, Note_on_c, 11, 41, 114
1, 48961, Note_on_c, 11, 41, 0
1, 48972, Note_on_c, 9, 35, 0
1, 48985, Note_on_c, 14, 62, 105
1, 48985, Note_on_c, 14, 65, 94
1, 48985, Note_on_c, 14, 69, 94
1, 49073, Note_on_c, 3, 74, 0
1, 49115, Note_on_c, 5, 81, 0
1, 49121, Note_on_c, 11, 41, 0
1, 49123, Note_on_c, 5, 74, 0
1, 49127, Note_on_c, 5, 77, 0
1, 49140, Note_on_c, 14, 69, 0
1, 49148, Note_on_c, 14, 62, 0
1, 49152, Note_on_c, 14, 65, 0
1, 49280, Note_on_c, 9, 70, 65
1, 49292, Note_on_c, 9, 70, 0
1, 49294, Note_on_c, 3, 72, 127
1, 49398, Note_on_c, 3, 72, 0
1, 49440, Note_on_c, 5, 74, 109
1, 49440, Note_on_c, 5, 77, 94
1, 49440, Note_on_c, 5, 81, 94
1, 49440, Note_on_c, 9, 44, 107
1, 49440, Note_on_c, 9, 54, 109
1, 49452, Note_on_c, 9, 44, 0
1, 49452, Note_on_c, 9, 54, 0
1, 49465, Note_on_c, 14, 62, 109
1, 49465, Note_on_c, 14, 65, 94
1, 49465, Note_on_c, 14, 69, 94
1, 49467, Lyric_t, "WENT "
1, 49467, Note_on_c, 3, 74, 114
1, 49581, Note_on_c, 5, 81, 0
1, 49594, Note_on_c, 5, 74, 0
1, 49594, Note_on_c, 5, 77, 0
1, 49601, Note_on_c, 1, 38, 0
1, 49601, Note_on_c, 8, 38, 0
1, 49606, Note_on_c, 14, 69, 0
1, 49619, Note_on_c, 14, 62, 0
1, 49619, Note_on_c, 14, 65, 0
1, 49718, Note_on_c, 3, 74, 0
1, 49760, Note_on_c, 1, 38, 99
1, 49760, Note_on_c, 8, 38, 99
1, 49766, Note_on_c, 3, 72, 114
1, 49888, Note_on_c, 3, 72, 0
1, 49910, Note_on_c, 6, 60, 0
1, 49920, Note_on_c, 5, 74, 109
1, 49920, Note_on_c, 5, 77, 94
1, 49920, Note_on_c, 5, 81, 101
1, 49920, Note_on_c, 6, 59, 72
1, 49920, Note_on_c, 9, 35, 114
1, 49920, Note_on_c, 11, 41, 114
1, 49932, Note_on_c, 9, 35, 0
1, 49945, Note_on_c, 14, 62, 109
1, 49945, Note_on_c, 14, 65, 94
1, 49945, Note_on_c, 14, 69, 101
1, 49951, Lyric_t, "BACK"
1, 49951, Lyric_t, "\015"
1, 49951, Note_on_c, 3, 74, 119
1, 50075, Note_on_c, 5, 81, 0
1, 50081, Note_on_c, 11, 41, 0
1, 50091, Note_on_c, 5, 74, 0
1, 50091, Note_on_c, 5, 77, 0
1, 50100, Note_on_c, 14, 69, 0
1, 50116, Note_on_c, 14, 62, 0
1, 50116, Note_on_c, 14, 65, 0
1, 50272, Note_on_c, 3, 74, 0
1, 50400, Note_on_c, 5, 74, 108
1, 50400, Note_on_c, 5, 77, 97
1, 50400, Note_on_c, 5, 81, 98
1, 50400, Note_on_c, 9, 44, 107
1, 50400, Note_on_c, 9, 69, 109
1, 50412, Note_on_c, 9, 44, 0
1, 50412, Note_on_c, 9, 69, 0
1, 50425, Note_on_c, 14, 62, 108
1, 50425, Note_on_c, 14, 65, 97
1, 50425, Note_on_c, 14, 69, 98
1, 50546, Note_on_c, 5, 81, 0
1, 50558, Note_on_c, 5, 74, 0
1, 50561, Note_on_c, 1, 38, 0
1, 50561, Note_on_c, 8, 38, 0
1, 50563, Note_on_c, 5, 77, 0
1, 50571, Note_on_c, 14, 69, 0
1, 50583, Note_on_c, 14, 62, 0
1, 50588, Note_on_c, 14, 65, 0
1, 50686, Lyric_t, "TO "
1, 50686, Note_on_c, 3, 74, 119
1, 50720, Note_on_c, 1, 38, 99
1, 50720, Note_on_c, 8, 38, 99
1, 50720, Note_on_c, 9, 35, 114
1, 50720, Note_on_c, 11, 41, 114
1, 50732, Note_on_c, 9, 35, 0
1, 50756, Note_on_c, 3, 74, 0
1, 50880, Note_on_c, 5, 74, 105
1, 50880, Note_on_c, 5, 77, 89
1, 50880, Note_on_c, 5, 81, 94
1, 50881, Note_on_c, 11, 41, 0
1, 50884, Lyric_t, "WHAT "
1, 50884, Note_on_c, 3, 74, 127
1, 50905, Note_on_c, 14, 62, 105
1, 50905, Note_on_c, 14, 65, 89
1, 50905, Note_on_c, 14, 69, 94
1, 51026, Note_on_c, 5, 81, 0
1, 51048, Note_on_c, 5, 74, 0
1, 51048, Note_on_c, 5, 77, 0
1, 51051, Note_on_c, 14, 69, 0
1, 51073, Note_on_c, 14, 62, 0
1, 51073, Note_on_c, 14, 65, 0
1, 51122, Note_on_c, 3, 74, 0
1, 51196, Note_on_c, 1, 38, 0
1, 51196, Note_on_c, 8, 38, 0
1, 51200, Note_on_c, 1, 36, 99
1, 51200, Note_on_c, 8, 36, 99
1, 51200, Note_on_c, 9, 35, 114
1, 51200, Note_on_c, 9, 70, 65
1, 51200, Note_on_c, 11, 41, 114
1, 51212, Note_on_c, 9, 35, 0
1, 51212, Note_on_c, 9, 70, 0
1, 51360, Note_on_c, 5, 74, 109
1, 51360, Note_on_c, 5, 77, 97
1, 51360, Note_on_c, 5, 81, 110
1, 51360, Note_on_c, 9, 44, 107
1, 51360, Note_on_c, 9, 54, 109
1, 51361, Note_on_c, 11, 41, 0
1, 51372, Note_on_c, 9, 44, 0
1, 51372, Note_on_c, 9, 54, 0
1, 51374, Lyric_t, "YOU "
1, 51374, Note_on_c, 3, 74, 127
1, 51385, Note_on_c, 14, 62, 109
1, 51385, Note_on_c, 14, 65, 97
1, 51385, Note_on_c, 14, 69, 110
1, 51509, Note_on_c, 5, 81, 0
1, 51518, Note_on_c, 5, 74, 0
1, 51521, Note_on_c, 5, 77, 0
1, 51534, Note_on_c, 14, 69, 0
1, 51543, Note_on_c, 14, 62, 0
1, 51546, Note_on_c, 14, 65, 0
1, 51676, Note_on_c, 1, 36, 0
1, 51676, Note_on_c, 8, 36, 0
1, 51680, Note_on_c, 1, 33, 99
1, 51680, Note_on_c, 8, 33, 99
1, 51681, Note_on_c, 3, 74, 0
1, 51830, Note_on_c, 6, 53, 0
1, 51830, Note_on_c, 6, 57, 0
1, 51830, Note_on_c, 6, 59, 0
1, 51836, Note_on_c, 1, 33, 0
1, 51836, Note_on_c, 8, 33, 0
1, 51840, Note_on_c, 1, 31, 99
1, 51840, Note_on_c, 4, 58, 78
1, 51840, Note_on_c, 4, 62, 78
1, 51840, Note_on_c, 4, 65, 78
1, 51840, Note_on_c, 5, 74, 101
1, 51840, Note_on_c, 5, 79, 97
1, 51840, Note_on_c, 5, 82, 105
1, 51840, Note_on_c, 8, 31, 99
1, 51840, Note_on_c, 9, 35, 114
1, 51840, Note_on_c, 11, 41, 114
1, 51852, Note_on_c, 9, 35, 0
1, 51865, Note_on_c, 14, 62, 101
1, 51865, Note_on_c, 14, 67, 97
1, 51865, Note_on_c, 14, 70, 105
1, 51913, Note_on_c, 5, 82, 0
1, 51938, Note_on_c, 14, 70, 0
1, 51961, Note_on_c, 5, 79, 0
1, 51963, Note_on_c, 5, 74, 0
1, 51986, Note_on_c, 14, 67, 0
1, 51988, Note_on_c, 14, 62, 0
1, 52001, Note_on_c, 11, 41, 0
1, 52317, Lyric_t, "KNEW"
1, 52317, Lyric_t, "\015"
1, 52317, Note_on_c, 3, 74, 119
1, 52320, Note_on_c, 5, 74, 111
1, 52320, Note_on_c, 5, 79, 107
1, 52320, Note_on_c, 5, 82, 105
1, 52320, Note_on_c, 9, 44, 107
1, 52320, Note_on_c, 9, 69, 109
1, 52332, Note_on_c, 9, 44, 0
1, 52332, Note_on_c, 9, 69, 0
1, 52345, Note_on_c, 14, 62, 111
1, 52345, Note_on_c, 14, 67, 107
1, 52345, Note_on_c, 14, 70, 105
1, 52477, Note_on_c, 5, 82, 0
1, 52481, Note_on_c, 1, 31, 0
1, 52481, Note_on_c, 8, 31, 0
1, 52484, Note_on_c, 5, 79, 0
1, 52488, Note_on_c, 5, 74, 0
1, 52502, Note_on_c, 14, 70, 0
1, 52509, Note_on_c, 14, 67, 0
1, 52513, Note_on_c, 14, 62, 0
1, 52640, Note_on_c, 1, 31, 99
1, 52640, Note_on_c, 8, 31, 99
1, 52640, Note_on_c, 9, 35, 107
1, 52640, Note_on_c, 11, 41, 107
1, 52652, Note_on_c, 9, 35, 0
1, 52800, Note_on_c, 5, 74, 105
1, 52800, Note_on_c, 5, 79, 94
1, 52800, Note_on_c, 5, 82, 94
1, 52800, Note_on_c, 9, 35, 114
1, 52800, Note_on_c, 11, 41, 114
1, 52801, Note_on_c, 11, 41, 0
1, 52812, Note_on_c, 9, 35, 0
1, 52825, Note_on_c, 14, 62, 105
1, 52825, Note_on_c, 14, 67, 94
1, 52825, Note_on_c, 14, 70, 94
1, 52955, Note_on_c, 5, 82, 0
1, 52961, Note_on_c, 11, 41, 0
1, 52963, Note_on_c, 5, 74, 0
1, 52967, Note_on_c, 5, 79, 0
1, 52980, Note_on_c, 14, 70, 0
1, 52988, Note_on_c, 14, 62, 0
1, 52992, Note_on_c, 14, 67, 0
1, 53120, Note_on_c, 9, 70, 65
1, 53132, Note_on_c, 9, 70, 0
1, 53280, Note_on_c, 5, 74, 109
1, 53280, Note_on_c, 5, 79, 94
1, 53280, Note_on_c, 5, 82, 94
1, 53280, Note_on_c, 9, 44, 107
1, 53280, Note_on_c, 9, 54, 109
1, 53292, Note_on_c, 9, 44, 0
1, 53292, Note_on_c, 9, 54, 0
1, 53305, Note_on_c, 14, 62, 109
1, 53305, Note_on_c, 14, 67, 94
1, 53305, Note_on_c, 14, 70, 94
1, 53421, Note_on_c, 5, 82, 0
1, 53434, Note_on_c, 5, 74, 0
1, 53434, Note_on_c, 5, 79, 0
1, 53441, Note_on_c, 1, 31, 0
1, 53441, Note_on_c, 8, 31, 0
1, 53446, Note_on_c, 14, 70, 0
1, 53459, Note_on_c, 14, 62, 0
1, 53459, Note_on_c, 14, 67, 0
1, 53600, Note_on_c, 1, 31, 99
1, 53600, Note_on_c, 8, 31, 99
1, 53613, Note_on_c, 3, 74, 0
1, 53760, Note_on_c, 5, 74, 109
1, 53760, Note_on_c, 5, 79, 94
1, 53760, Note_on_c, 5, 82, 101
1, 53760, Note_on_c, 9, 35, 114
1, 53760, Note_on_c, 11, 41, 114
1, 53772, Note_on_c, 9, 35, 0
1, 53785, Note_on_c, 14, 62, 109
1, 53785, Note_on_c, 14, 67, 94
1, 53785, Note_on_c, 14, 70, 101
1, 53915, Note_on_c, 5, 82, 0
1, 53921, Note_on_c, 11, 41, 0
1, 53931, Note_on_c, 5, 74, 0
1, 53931, Note_on_c, 5, 79, 0
1, 53940, Note_on_c, 14, 70, 0
1, 53956, Note_on_c, 14, 62, 0
1, 53956, Note_on_c, 14, 67, 0
1, 54240, Note_on_c, 5, 74, 108
1, 54240, Note_on_c, 5, 79, 97
1, 54240, Note_on_c, 5, 82, 98
1, 54240, Note_on_c, 9, 44, 107
1, 54240, Note_on_c, 9, 69, 109
1, 54244, Lyric_t, "SO FAR "
1, 54244, Note_on_c, 3, 74, 127
1, 54252, Note_on_c, 9, 44, 0
1, 54252, Note_on_c, 9, 69, 0
1, 54265, Note_on_c, 14, 62, 108
1, 54265, Note_on_c, 14, 67, 97
1, 54265, Note_on_c, 14, 70, 98
1, 54386, Note_on_c, 5, 82, 0
1, 54398, Note_on_c, 5, 74, 0
1, 54401, Note_on_c, 1, 31, 0
1, 54401, Note_on_c, 8, 31, 0
1, 54403, Note_on_c, 5, 79, 0
1, 54411, Note_on_c, 14, 70, 0
1, 54423, Note_on_c, 14, 62, 0
1, 54428, Note_on_c, 14, 67, 0
1, 54479, Note_on_c, 3, 74, 0
1, 54560, Note_on_c, 1, 31, 99
1, 54560, Note_on_c, 8, 31, 99
1, 54560, Note_on_c, 9, 35, 114
1, 54560, Note_on_c, 11, 41, 114
1, 54572, Note_on_c, 9, 35, 0
1, 54720, Note_on_c, 5, 74, 105
1, 54720, Note_on_c, 5, 79, 89
1, 54720, Note_on_c, 5, 82, 94
1, 54721, Note_on_c, 11, 41, 0
1, 54745, Note_on_c, 14, 62, 105
1, 54745, Note_on_c, 14, 67, 89
1, 54745, Note_on_c, 14, 70, 94
1, 54765, Lyric_t, "REMOVED"
1, 54765, Lyric_t, "\015"
1, 54765, Note_on_c, 3, 74, 124
1, 54866, Note_on_c, 5, 82, 0
1, 54888, Note_on_c, 5, 74, 0
1, 54888, Note_on_c, 5, 79, 0
1, 54891, Note_on_c, 14, 70, 0
1, 54913, Note_on_c, 14, 62, 0
1, 54913, Note_on_c, 14, 67, 0
1, 55036, Note_on_c, 1, 31, 0
1, 55036, Note_on_c, 8, 31, 0
1, 55040, Note_on_c, 1, 32, 99
1, 55040, Note_on_c, 8, 32, 99
1, 55040, Note_on_c, 9, 35, 114
1, 55040, Note_on_c, 9, 70, 65
1, 55040, Note_on_c, 11, 41, 114
1, 55052, Note_on_c, 9, 35, 0
1, 55052, Note_on_c, 9, 70, 0
1, 55200, Note_on_c, 5, 74, 109
1, 55200, Note_on_c, 5, 79, 97
1, 55200, Note_on_c, 5, 82, 110
1, 55200, Note_on_c, 9, 44, 107
1, 55200, Note_on_c, 9, 54, 109
1, 55201, Note_on_c, 11, 41, 0
1, 55212, Note_on_c, 9, 44, 0
1, 55212, Note_on_c, 9, 54, 0
1, 55225, Note_on_c, 14, 62, 109
1, 55225, Note_on_c, 14, 67, 97
1, 55225, Note_on_c, 14, 70, 110
1, 55349, Note_on_c, 5, 82, 0
1, 55358, Note_on_c, 5, 74, 0
1, 55361, Note_on_c, 5, 79, 0
1, 55374, Note_on_c, 14, 70, 0
1, 55383, Note_on_c, 14, 62, 0
1, 55386, Note_on_c, 14, 67, 0
1, 55516, Note_on_c, 1, 32, 0
1, 55516, Note_on_c, 8, 32, 0
1, 55520, Note_on_c, 1, 33, 99
1, 55520, Note_on_c, 8, 33, 99
1, 55635, Note_on_c, 4, 58, 0
1, 55635, Note_on_c, 4, 62, 0
1, 55635, Note_on_c, 4, 65, 0
1, 55676, Note_on_c, 1, 33, 0
1, 55676, Note_on_c, 8, 33, 0
1, 55680, Note_on_c, 1, 34, 99
1, 55680, Note_on_c, 4, 58, 78
1, 55680, Note_on_c, 4, 62, 78
1, 55680, Note_on_c, 4, 65, 78
1, 55680, Note_on_c, 4, 70, 78
1, 55680, Note_on_c, 5, 74, 101
1, 55680, Note_on_c, 5, 77, 97
1, 55680, Note_on_c, 5, 82, 105
1, 55680, Note_on_c, 8, 34, 99
1, 55680, Note_on_c, 9, 35, 114
1, 55680, Note_on_c, 11, 41, 114
1, 55692, Note_on_c, 9, 35, 0
1, 55705, Note_on_c, 14, 62, 101
1, 55705, Note_on_c, 14, 65, 97
1, 55705, Note_on_c, 14, 70, 105
1, 55753, Note_on_c, 5, 82, 0
1, 55778, Note_on_c, 14, 70, 0
1, 55801, Note_on_c, 5, 77, 0
1, 55803, Note_on_c, 5, 74, 0
1, 55826, Note_on_c, 14, 65, 0
1, 55828, Note_on_c, 14, 62, 0
1, 55841, Note_on_c, 11, 41, 0
1, 56151, Note_on_c, 3, 74, 0
1, 56160, Note_on_c, 5, 74, 111
1, 56160, Note_on_c, 5, 77, 107
1, 56160, Note_on_c, 5, 82, 105
1, 56160, Note_on_c, 9, 44, 107
1, 56160, Note_on_c, 9, 69, 109
1, 56172, Note_on_c, 9, 44, 0
1, 56172, Note_on_c, 9, 69, 0
1, 56185, Note_on_c, 14, 62, 111
1, 56185, Note_on_c, 14, 65, 107
1, 56185, Note_on_c, 14, 70, 105
1, 56317, Note_on_c, 5, 82, 0
1, 56324, Note_on_c, 5, 77, 0
1, 56328, Note_on_c, 5, 74, 0
1, 56342, Note_on_c, 14, 70, 0
1, 56349, Note_on_c, 14, 65, 0
1, 56353, Note_on_c, 14, 62, 0
1, 56421, Note_on_c, 1, 34, 0
1, 56421, Note_on_c, 8, 34, 0
1, 56480, Note_on_c, 1, 34, 99
1, 56480, Note_on_c, 8, 34, 99
1, 56480, Note_on_c, 9, 35, 107
1, 56480, Note_on_c, 11, 41, 107
1, 56492, Note_on_c, 9, 35, 0
1, 56640, Note_on_c, 5, 74, 105
1, 56640, Note_on_c, 5, 77, 94
1, 56640, Note_on_c, 5, 82, 94
1, 56640, Note_on_c, 9, 35, 114
1, 56640, Note_on_c, 11, 41, 114
1, 56641, Note_on_c, 11, 41, 0
1, 56652, Note_on_c, 9, 35, 0
1, 56665, Note_on_c, 14, 62, 105
1, 56665, Note_on_c, 14, 65, 94
1, 56665, Note_on_c, 14, 70, 94
1, 56795, Note_on_c, 5, 82, 0
1, 56801, Note_on_c, 11, 41, 0
1, 56803, Note_on_c, 5, 74, 0
1, 56807, Note_on_c, 5, 77, 0
1, 56820, Note_on_c, 14, 70, 0
1, 56828, Note_on_c, 14, 62, 0
1, 56832, Note_on_c, 14, 65, 0
1, 56960, Note_on_c, 9, 70, 65
1, 56972, Note_on_c, 9, 70, 0
1, 57120, Note_on_c, 5, 74, 109
1, 57120, Note_on_c, 5, 77, 94
1, 57120, Note_on_c, 5, 82, 94
1, 57120, Note_on_c, 9, 44, 107
1, 57120, Note_on_c, 9, 54, 109
1, 57132, Note_on_c, 9, 44, 0
1, 57132, Note_on_c, 9, 54, 0
1, 57145, Note_on_c, 14, 62, 109
1, 57145, Note_on_c, 14, 65, 94
1, 57145, Note_on_c, 14, 70, 94
1, 57221, Note_on_c, 1, 34, 0
1, 57221, Note_on_c, 8, 34, 0
1, 57261, Note_on_c, 5, 82, 0
1, 57274, Note_on_c, 5, 74, 0
1, 57274, Note_on_c, 5, 77, 0
1, 57286, Note_on_c, 14, 70, 0
1, 57299, Note_on_c, 14, 62, 0
1, 57299, Note_on_c, 14, 65, 0
1, 57440, Note_on_c, 1, 34, 99
1, 57440, Note_on_c, 8, 34, 99
1, 57456, Lyric_t, "FROM "
1, 57456, Note_on_c, 3, 69, 101
1, 57600, Note_on_c, 5, 74, 109
1, 57600, Note_on_c, 5, 77, 94
1, 57600, Note_on_c, 5, 82, 101
1, 57600, Note_on_c, 9, 35, 114
1, 57600, Note_on_c, 11, 41, 114
1, 57604, Note_on_c, 3, 69, 0
1, 57612, Note_on_c, 9, 35, 0
1, 57625, Note_on_c, 14, 62, 109
1, 57625, Note_on_c, 14, 65, 94
1, 57625, Note_on_c, 14, 70, 101
1, 57636, Lyric_t, "ALL "
1, 57636, Note_on_c, 3, 74, 114
1, 57755, Note_on_c, 5, 82, 0
1, 57761, Note_on_c, 11, 41, 0
1, 57771, Note_on_c, 5, 74, 0
1, 57771, Note_on_c, 5, 77, 0
1, 57780, Note_on_c, 14, 70, 0
1, 57796, Note_on_c, 14, 62, 0
1, 57796, Note_on_c, 14, 65, 0
1, 57904, Note_on_c, 3, 74, 0
1, 58080, Note_on_c, 5, 74, 108
1, 58080, Note_on_c, 5, 77, 97
1, 58080, Note_on_c, 5, 82, 98
1, 58080, Note_on_c, 9, 44, 107
1, 58080, Note_on_c, 9, 69, 109
1, 58085, Lyric_t, "THAT "
1, 58085, Note_on_c, 3, 69, 105
1, 58092, Note_on_c, 9, 44, 0
1, 58092, Note_on_c, 9, 69, 0
1, 58105, Note_on_c, 14, 62, 108
1, 58105, Note_on_c, 14, 65, 97
1, 58105, Note_on_c, 14, 70, 98
1, 58181, Note_on_c, 1, 34, 0
1, 58181, Note_on_c, 8, 34, 0
1, 58226, Note_on_c, 5, 82, 0
1, 58238, Note_on_c, 5, 74, 0
1, 58243, Note_on_c, 5, 77, 0
1, 58251, Note_on_c, 14, 70, 0
1, 58263, Note_on_c, 14, 62, 0
1, 58268, Note_on_c, 14, 65, 0
1, 58400, Note_on_c, 1, 34, 99
1, 58400, Note_on_c, 3, 69, 0
1, 58400, Note_on_c, 8, 34, 99
1, 58400, Note_on_c, 9, 35, 114
1, 58400, Note_on_c, 11, 41, 114
1, 58412, Note_on_c, 9, 35, 0
1, 58557, Lyric_t, "WE "
1, 58557, Note_on_c, 3, 74, 119
1, 58560, Note_on_c, 5, 74, 105
1, 58560, Note_on_c, 5, 77, 89
1, 58560, Note_on_c, 5, 82, 94
1, 58561, Note_on_c, 11, 41, 0
1, 58585, Note_on_c, 14, 62, 105
1, 58585, Note_on_c, 14, 65, 89
1, 58585, Note_on_c, 14, 70, 94
1, 58706, Note_on_c, 5, 82, 0
1, 58728, Note_on_c, 5, 74, 0
1, 58728, Note_on_c, 5, 77, 0
1, 58731, Note_on_c, 14, 70, 0
1, 58753, Note_on_c, 14, 62, 0
1, 58753, Note_on_c, 14, 65, 0
1, 58876, Note_on_c, 1, 34, 0
1, 58876, Note_on_c, 8, 34, 0
1, 58880, Note_on_c, 1, 41, 99
1, 58880, Note_on_c, 8, 41, 99
1, 58880, Note_on_c, 9, 35, 114
1, 58880, Note_on_c, 9, 70, 65
1, 58880, Note_on_c, 11, 41, 114
1, 58889, Note_on_c, 3, 74, 0
1, 58892, Note_on_c, 9, 35, 0
1, 58892, Note_on_c, 9, 70, 0
1, 59040, Note_on_c, 5, 74, 109
1, 59040, Note_on_c, 5, 77, 97
1, 59040, Note_on_c, 5, 82, 110
1, 59040, Note_on_c, 9, 44, 107
1, 59040, Note_on_c, 9, 54, 109
1, 59041, Note_on_c, 11, 41, 0
1, 59052, Note_on_c, 9, 44, 0
1, 59052, Note_on_c, 9, 54, 0
1, 59065, Note_on_c, 14, 62, 109
1, 59065, Note_on_c, 14, 65, 97
1, 59065, Note_on_c, 14, 70, 110
1, 59067, Lyric_t, "WENT "
1, 59067, Note_on_c, 3, 69, 109
1, 59189, Note_on_c, 5, 82, 0
1, 59198, Note_on_c, 5, 74, 0
1, 59201, Note_on_c, 5, 77, 0
1, 59214, Note_on_c, 14, 70, 0
1, 59223, Note_on_c, 14, 62, 0
1, 59226, Note_on_c, 14, 65, 0
1, 59356, Note_on_c, 1, 41, 0
1, 59356, Note_on_c, 8, 41, 0
1, 59360, Note_on_c, 1, 34, 99
1, 59360, Note_on_c, 8, 34, 99
1, 59360, Note_on_c, 1, 34, 0
1, 59360, Note_on_c, 8, 34, 0
1, 59475, Note_on_c, 4, 58, 0
1, 59475, Note_on_c, 4, 62, 0
1, 59475, Note_on_c, 4, 65, 0
1, 59475, Note_on_c, 4, 70, 0
1, 59520, Note_on_c, 1, 33, 99
1, 59520, Note_on_c, 4, 61, 78
1, 59520, Note_on_c, 4, 64, 78
1, 59520, Note_on_c, 4, 69, 78
1, 59520, Note_on_c, 5, 73, 101
1, 59520, Note_on_c, 5, 76, 97
1, 59520, Note_on_c, 5, 81, 105
1, 59520, Note_on_c, 7, 81, 119
1, 59520, Note_on_c, 8, 33, 99
1, 59520, Note_on_c, 9, 35, 114
1, 59520, Note_on_c, 11, 41, 114
1, 59532, Note_on_c, 9, 35, 0
1, 59545, Note_on_c, 14, 61, 101
1, 59545, Note_on_c, 14, 64, 97
1, 59545, Note_on_c, 14, 69, 105
1, 59593, Note_on_c, 5, 81, 0
1, 59618, Note_on_c, 14, 69, 0
1, 59641, Note_on_c, 5, 76, 0
1, 59643, Note_on_c, 5, 73, 0
1, 59666, Note_on_c, 14, 64, 0
1, 59668, Note_on_c, 14, 61, 0
1, 59681, Note_on_c, 11, 41, 0
1, 60000, Note_on_c, 5, 73, 111
1, 60000, Note_on_c, 5, 76, 107
1, 60000, Note_on_c, 5, 81, 105
1, 60000, Note_on_c, 9, 44, 107
1, 60000, Note_on_c, 9, 69, 109
1, 60012, Note_on_c, 9, 44, 0
1, 60012, Note_on_c, 9, 69, 0
1, 60016, Note_on_c, 3, 69, 0
1, 60025, Lyric_t, "THROUGH"
1, 60025, Lyric_t, "\015"
1, 60025, Note_on_c, 3, 73, 115
1, 60025, Note_on_c, 14, 61, 111
1, 60025, Note_on_c, 14, 64, 107
1, 60025, Note_on_c, 14, 69, 105
1, 60157, Note_on_c, 5, 81, 0
1, 60161, Note_on_c, 7, 81, 0
1, 60164, Note_on_c, 5, 76, 0
1, 60168, Note_on_c, 5, 73, 0
1, 60182, Note_on_c, 14, 69, 0
1, 60189, Note_on_c, 14, 64, 0
1, 60193, Note_on_c, 14, 61, 0
1, 60261, Note_on_c, 1, 33, 0
1, 60261, Note_on_c, 8, 33, 0
1, 60320, Note_on_c, 1, 33, 99
1, 60320, Note_on_c, 8, 33, 99
1, 60320, Note_on_c, 9, 35, 107
1, 60320, Note_on_c, 11, 41, 107
1, 60332, Note_on_c, 9, 35, 0
1, 60480, Note_on_c, 5, 73, 105
1, 60480, Note_on_c, 5, 76, 94
1, 60480, Note_on_c, 5, 81, 94
1, 60480, Note_on_c, 9, 35, 114
1, 60480, Note_on_c, 11, 41, 114
1, 60481, Note_on_c, 11, 41, 0
1, 60492, Note_on_c, 9, 35, 0
1, 60505, Note_on_c, 14, 61, 105
1, 60505, Note_on_c, 14, 64, 94
1, 60505, Note_on_c, 14, 69, 94
1, 60635, Note_on_c, 5, 81, 0
1, 60641, Note_on_c, 11, 41, 0
1, 60643, Note_on_c, 5, 73, 0
1, 60647, Note_on_c, 5, 76, 0
1, 60660, Note_on_c, 14, 69, 0
1, 60668, Note_on_c, 14, 61, 0
1, 60672, Note_on_c, 14, 64, 0
1, 60800, Note_on_c, 9, 70, 65
1, 60812, Note_on_c, 9, 70, 0
1, 60960, Note_on_c, 5, 73, 109
1, 60960, Note_on_c, 5, 76, 94
1, 60960, Note_on_c, 5, 81, 94
1, 60960, Note_on_c, 9, 44, 107
1, 60960, Note_on_c, 9, 54, 109
1, 60972, Note_on_c, 9, 44, 0
1, 60972, Note_on_c, 9, 54, 0
1, 60985, Note_on_c, 14, 61, 109
1, 60985, Note_on_c, 14, 64, 94
1, 60985, Note_on_c, 14, 69, 94
1, 61061, Note_on_c, 1, 33, 0
1, 61061, Note_on_c, 8, 33, 0
1, 61101, Note_on_c, 5, 81, 0
1, 61114, Note_on_c, 5, 73, 0
1, 61114, Note_on_c, 5, 76, 0
1, 61126, Note_on_c, 14, 69, 0
1, 61139, Note_on_c, 14, 61, 0
1, 61139, Note_on_c, 14, 64, 0
1, 61280, Note_on_c, 1, 33, 99
1, 61280, Note_on_c, 8, 33, 99
1, 61440, Note_on_c, 5, 73, 109
1, 61440, Note_on_c, 5, 76, 94
1, 61440, Note_on_c, 5, 81, 101
1, 61440, Note_on_c, 7, 81, 119
1, 61440, Note_on_c, 9, 35, 114
1, 61440, Note_on_c, 11, 41, 114
1, 61452, Note_on_c, 9, 35, 0
1, 61465, Note_on_c, 14, 61, 109
1, 61465, Note_on_c, 14, 64, 94
1, 61465, Note_on_c, 14, 69, 101
1, 61595, Note_on_c, 5, 81, 0
1, 61601, Note_on_c, 11, 41, 0
1, 61611, Note_on_c, 5, 73, 0
1, 61611, Note_on_c, 5, 76, 0
1, 61620, Note_on_c, 14, 69, 0
1, 61636, Note_on_c, 14, 61, 0
1, 61636, Note_on_c, 14, 64, 0
1, 61916, Note_on_c, 7, 81, 0
1, 61920, Note_on_c, 5, 73, 108
1, 61920, Note_on_c, 5, 76, 97
1, 61920, Note_on_c, 5, 81, 98
1, 61920, Note_on_c, 7, 79, 119
1, 61920, Note_on_c, 9, 44, 107
1, 61920, Note_on_c, 9, 69, 109
1, 61932, Note_on_c, 9, 44, 0
1, 61932, Note_on_c, 9, 69, 0
1, 61945, Note_on_c, 14, 61, 108
1, 61945, Note_on_c, 14, 64, 97
1, 61945, Note_on_c, 14, 69, 98
1, 62021, Note_on_c, 1, 33, 0
1, 62021, Note_on_c, 8, 33, 0
1, 62066, Note_on_c, 5, 81, 0
1, 62078, Note_on_c, 5, 73, 0
1, 62083, Note_on_c, 5, 76, 0
1, 62091, Note_on_c, 14, 69, 0
1, 62103, Note_on_c, 14, 61, 0
1, 62108, Note_on_c, 14, 64, 0
1, 62240, Note_on_c, 1, 33, 99
1, 62240, Note_on_c, 8, 33, 99
1, 62240, Note_on_c, 9, 35, 114
1, 62240, Note_on_c, 11, 41, 114
1, 62252, Note_on_c, 9, 35, 0
1, 62345, Note_on_c, 3, 73, 0
1, 62396, Note_on_c, 7, 79, 0
1, 62400, Note_on_c, 5, 73, 105
1, 62400, Note_on_c, 5, 76, 89
1, 62400, Note_on_c, 5, 81, 94
1, 62400, Note_on_c, 7, 77, 119
1, 62401, Note_on_c, 11, 41, 0
1, 62425, Note_on_c, 14, 61, 105
1, 62425, Note_on_c, 14, 64, 89
1, 62425, Note_on_c, 14, 69, 94
1, 62546, Note_on_c, 5, 81, 0
1, 62568, Note_on_c, 5, 73, 0
1, 62568, Note_on_c, 5, 76, 0
1, 62571, Note_on_c, 14, 69, 0
1, 62593, Note_on_c, 14, 61, 0
1, 62593, Note_on_c, 14, 64, 0
1, 62716, Note_on_c, 1, 33, 0
1, 62716, Note_on_c, 8, 33, 0
1, 62720, Note_on_c, 1, 36, 99
1, 62720, Note_on_c, 8, 36, 99
1, 62720, Note_on_c, 9, 35, 114
1, 62720, Note_on_c, 9, 70, 65
1, 62720, Note_on_c, 11, 41, 114
1, 62732, Note_on_c, 9, 35, 0
1, 62732, Note_on_c, 9, 70, 0
1, 62876, Note_on_c, 7, 77, 0
1, 62880, Note_on_c, 5, 73, 109
1, 62880, Note_on_c, 5, 76, 97
1, 62880, Note_on_c, 5, 81, 110
1, 62880, Note_on_c, 7, 76, 119
1, 62880, Note_on_c, 9, 44, 107
1, 62880, Note_on_c, 9, 54, 109
1, 62881, Note_on_c, 11, 41, 0
1, 62892, Note_on_c, 9, 44, 0
1, 62892, Note_on_c, 9, 54, 0
1, 62905, Note_on_c, 14, 61, 109
1, 62905, Note_on_c, 14, 64, 97
1, 62905, Note_on_c, 14, 69, 110
1, 63029, Note_on_c, 5, 81, 0
1, 63038, Note_on_c, 5, 73, 0
1, 63041, Note_on_c, 5, 76, 0
1, 63054, Note_on_c, 14, 69, 0
1, 63063, Note_on_c, 14, 61, 0
1, 63066, Note_on_c, 14, 64, 0
1, 63192, Lyric_t, "AND "
1, 63192, Note_on_c, 3, 69, 109
1, 63196, Note_on_c, 1, 36, 0
1, 63196, Note_on_c, 8, 36, 0
1, 63200, Note_on_c, 1, 37, 99
1, 63200, Note_on_c, 8, 37, 99
1, 63315, Note_on_c, 4, 61, 0
1, 63315, Note_on_c, 4, 64, 0
1, 63315, Note_on_c, 4, 69, 0
1, 63343, Note_on_c, 3, 69, 0
1, 63356, Note_on_c, 1, 37, 0
1, 63356, Note_on_c, 7, 76, 0
1, 63356, Note_on_c, 8, 37, 0
1, 63360, Note_on_c, 1, 38, 99
1, 63360, Note_on_c, 5, 74, 101
1, 63360, Note_on_c, 5, 77, 97
1, 63360, Note_on_c, 5, 81, 105
1, 63360, Note_on_c, 7, 74, 119
1, 63360, Note_on_c, 8, 38, 99
1, 63360, Note_on_c, 9, 35, 114
1, 63360, Note_on_c, 11, 41, 114
1, 63372, Note_on_c, 9, 35, 0
1, 63378, Lyric_t, "I"
1, 63378, Lyric_t, "\015"
1, 63378, Note_on_c, 3, 74, 114
1, 63385, Note_on_c, 14, 62, 101
1, 63385, Note_on_c, 14, 65, 97
1, 63385, Note_on_c, 14, 69, 105
1, 63433, Note_on_c, 5, 81, 0
1, 63458, Note_on_c, 14, 69, 0
1, 63481, Note_on_c, 5, 77, 0
1, 63483, Note_on_c, 5, 74, 0
1, 63506, Note_on_c, 14, 65, 0
1, 63508, Note_on_c, 14, 62, 0
1, 63521, Note_on_c, 11, 41, 0
1, 63836, Note_on_c, 7, 74, 0
1, 63840, Note_on_c, 5, 74, 111
1, 63840, Note_on_c, 5, 77, 107
1, 63840, Note_on_c, 5, 81, 105
1, 63840, Note_on_c, 9, 44, 107
1, 63840, Note_on_c, 9, 69, 109
1, 63840, Note_on_c, 13, 62, 83
1, 63852, Note_on_c, 9, 44, 0
1, 63852, Note_on_c, 9, 69, 0
1, 63865, Note_on_c, 14, 62, 111
1, 63865, Note_on_c, 14, 65, 107
1, 63865, Note_on_c, 14, 69, 105
1, 63997, Note_on_c, 5, 81, 0
1, 64004, Note_on_c, 5, 77, 0
1, 64008, Note_on_c, 5, 74, 0
1, 64022, Note_on_c, 14, 69, 0
1, 64029, Note_on_c, 14, 65, 0
1, 64033, Note_on_c, 14, 62, 0
1, 64081, Note_on_c, 1, 38, 0
1, 64081, Note_on_c, 8, 38, 0
1, 64160, Note_on_c, 1, 38, 99
1, 64160, Note_on_c, 8, 38, 99
1, 64160, Note_on_c, 9, 35, 107
1, 64160, Note_on_c, 11, 41, 107
1, 64172, Note_on_c, 9, 35, 0
1, 64320, Note_on_c, 5, 74, 105
1, 64320, Note_on_c, 5, 77, 94
1, 64320, Note_on_c, 5, 81, 94
1, 64320, Note_on_c, 9, 35, 114
1, 64320, Note_on_c, 11, 41, 114
1, 64321, Note_on_c, 11, 41, 0
1, 64332, Note_on_c, 9, 35, 0
1, 64345, Note_on_c, 14, 62, 105
1, 64345, Note_on_c, 14, 65, 94
1, 64345, Note_on_c, 14, 69, 94
1, 64475, Note_on_c, 5, 81, 0
1, 64481, Note_on_c, 11, 41, 0
1, 64483, Note_on_c, 5, 74, 0
1, 64487, Note_on_c, 5, 77, 0
1, 64500, Note_on_c, 14, 69, 0
1, 64508, Note_on_c, 14, 62, 0
1, 64512, Note_on_c, 14, 65, 0
1, 64640, Note_on_c, 9, 70, 65
1, 64652, Note_on_c, 9, 70, 0
1, 64773, Note_on_c, 3, 74, 0
1, 64800, Note_on_c, 5, 74, 109
1, 64800, Note_on_c, 5, 77, 94
1, 64800, Note_on_c, 5, 81, 94
1, 64800, Note_on_c, 9, 44, 107
1, 64800, Note_on_c, 9, 54, 109
1, 64800, Note_on_c, 13, 65, 83
1, 64812, Note_on_c, 9, 44, 0
1, 64812, Note_on_c, 9, 54, 0
1, 64825, Note_on_c, 14, 62, 109
1, 64825, Note_on_c, 14, 65, 94
1, 64825, Note_on_c, 14, 69, 94
1, 64941, Note_on_c, 5, 81, 0
1, 64954, Note_on_c, 5, 74, 0
1, 64954, Note_on_c, 5, 77, 0
1, 64961, Note_on_c, 1, 38, 0
1, 64961, Note_on_c, 8, 38, 0
1, 64966, Note_on_c, 14, 69, 0
1, 64979, Note_on_c, 14, 62, 0
1, 64979, Note_on_c, 14, 65, 0
1, 65104, Lyric_t, "TREAD "
1, 65104, Note_on_c, 3, 72, 127
1, 65120, Note_on_c, 1, 38, 99
1, 65120, Note_on_c, 8, 38, 99
1, 65235, Note_on_c, 3, 72, 0
1, 65270, Note_on_c, 13, 62, 0
1, 65280, Note_on_c, 5, 74, 109
1, 65280, Note_on_c, 5, 77, 94
1, 65280, Note_on_c, 5, 81, 101
1, 65280, Note_on_c, 9, 35, 114
1, 65280, Note_on_c, 11, 41, 114
1, 65292, Note_on_c, 9, 35, 0
1, 65297, Note_on_c, 3, 74, 114
1, 65305, Note_on_c, 14, 62, 109
1, 65305, Note_on_c, 14, 65, 94
1, 65305, Note_on_c, 14, 69, 101
1, 65435, Note_on_c, 5, 81, 0
1, 65441, Note_on_c, 11, 41, 0
1, 65451, Note_on_c, 5, 74, 0
1, 65451, Note_on_c, 5, 77, 0
1, 65460, Note_on_c, 14, 69, 0
1, 65476, Note_on_c, 14, 62, 0
1, 65476, Note_on_c, 14, 65, 0
1, 65646, Note_on_c, 3, 74, 0
1, 65760, Note_on_c, 5, 74, 108
1, 65760, Note_on_c, 5, 77, 97
1, 65760, Note_on_c, 5, 81, 98
1, 65760, Note_on_c, 9, 44, 107
1, 65760, Note_on_c, 9, 69, 109
1, 65772, Note_on_c, 9, 44, 0
1, 65772, Note_on_c, 9, 69, 0
1, 65785, Note_on_c, 14, 62, 108
1, 65785, Note_on_c, 14, 65, 97
1, 65785, Note_on_c, 14, 69, 98
1, 65906, Note_on_c, 5, 81, 0
1, 65918, Note_on_c, 5, 74, 0
1, 65921, Note_on_c, 1, 38, 0
1, 65921, Note_on_c, 8, 38, 0
1, 65923, Note_on_c, 5, 77, 0
1, 65931, Note_on_c, 14, 69, 0
1, 65943, Note_on_c, 14, 62, 0
1, 65948, Note_on_c, 14, 65, 0
1, 66062, Lyric_t, "A "
1, 66062, Note_on_c, 3, 72, 127
1, 66080, Note_on_c, 1, 38, 99
1, 66080, Note_on_c, 8, 38, 99
1, 66080, Note_on_c, 9, 35, 114
1, 66080, Note_on_c, 11, 41, 114
1, 66080, Note_on_c, 13, 57, 83
1, 66092, Note_on_c, 9, 35, 0
1, 66167, Note_on_c, 3, 72, 0
1, 66230, Note_on_c, 13, 65, 0
1, 66240, Note_on_c, 5, 74, 105
1, 66240, Note_on_c, 5, 77, 89
1, 66240, Note_on_c, 5, 81, 94
1, 66241, Note_on_c, 11, 41, 0
1, 66248, Lyric_t, "TROU"
1, 66248, Note_on_c, 3, 74, 114
1, 66265, Note_on_c, 14, 62, 105
1, 66265, Note_on_c, 14, 65, 89
1, 66265, Note_on_c, 14, 69, 94
1, 66386, Note_on_c, 5, 81, 0
1, 66408, Note_on_c, 5, 74, 0
1, 66408, Note_on_c, 5, 77, 0
1, 66411, Note_on_c, 14, 69, 0
1, 66433, Note_on_c, 14, 62, 0
1, 66433, Note_on_c, 14, 65, 0
1, 66556, Note_on_c, 1, 38, 0
1, 66556, Note_on_c, 8, 38, 0
1, 66560, Note_on_c, 1, 36, 99
1, 66560, Note_on_c, 8, 36, 99
1, 66560, Note_on_c, 9, 35, 114
1, 66560, Note_on_c, 9, 70, 65
1, 66560, Note_on_c, 11, 41, 114
1, 66572, Note_on_c, 9, 35, 0
1, 66572, Note_on_c, 9, 70, 0
1, 66636, Note_on_c, 3, 74, 0
1, 66720, Note_on_c, 5, 74, 109
1, 66720, Note_on_c, 5, 77, 97
1, 66720, Note_on_c, 5, 81, 110
1, 66720, Note_on_c, 9, 44, 107
1, 66720, Note_on_c, 9, 54, 109
1, 66721, Note_on_c, 11, 41, 0
1, 66732, Note_on_c, 9, 44, 0
1, 66732, Note_on_c, 9, 54, 0
1, 66745, Note_on_c, 14, 62, 109
1, 66745, Note_on_c, 14, 65, 97
1, 66745, Note_on_c, 14, 69, 110
1, 66750, Lyric_t, "BLED "
1, 66750, Note_on_c, 3, 74, 114
1, 66869, Note_on_c, 5, 81, 0
1, 66878, Note_on_c, 5, 74, 0
1, 66881, Note_on_c, 5, 77, 0
1, 66894, Note_on_c, 14, 69, 0
1, 66903, Note_on_c, 14, 62, 0
1, 66906, Note_on_c, 14, 65, 0
1, 67036, Note_on_c, 1, 36, 0
1, 67036, Note_on_c, 8, 36, 0
1, 67040, Note_on_c, 1, 33, 99
1, 67040, Note_on_c, 8, 33, 99
1, 67196, Note_on_c, 1, 33, 0
1, 67196, Note_on_c, 8, 33, 0
1, 67200, Note_on_c, 1, 31, 99
1, 67200, Note_on_c, 5, 74, 101
1, 67200, Note_on_c, 5, 79, 97
1, 67200, Note_on_c, 5, 82, 105
1, 67200, Note_on_c, 8, 31, 99
1, 67200, Note_on_c, 9, 35, 114
1, 67200, Note_on_c, 11, 41, 114
1, 67212, Note_on_c, 9, 35, 0
1, 67225, Note_on_c, 14, 62, 101
1, 67225, Note_on_c, 14, 67, 97
1, 67225, Note_on_c, 14, 70, 105
1, 67273, Note_on_c, 5, 82, 0
1, 67298, Note_on_c, 14, 70, 0
1, 67321, Note_on_c, 5, 79, 0
1, 67323, Note_on_c, 5, 74, 0
1, 67346, Note_on_c, 14, 67, 0
1, 67348, Note_on_c, 14, 62, 0
1, 67361, Note_on_c, 11, 41, 0
1, 67510, Note_on_c, 13, 57, 0
1, 67583, Note_on_c, 3, 74, 0
1, 67680, Note_on_c, 5, 74, 111
1, 67680, Note_on_c, 5, 79, 107
1, 67680, Note_on_c, 5, 82, 105
1, 67680, Note_on_c, 9, 44, 107
1, 67680, Note_on_c, 9, 69, 109
1, 67680, Note_on_c, 13, 62, 83
1, 67692, Note_on_c, 9, 44, 0
1, 67692, Note_on_c, 9, 69, 0
1, 67694, Lyric_t, "TRACK"
1, 67694, Lyric_t, "\015"
1, 67694, Note_on_c, 3, 74, 105
1, 67705, Note_on_c, 14, 62, 111
1, 67705, Note_on_c, 14, 67, 107
1, 67705, Note_on_c, 14, 70, 105
1, 67837, Note_on_c, 5, 82, 0
1, 67841, Note_on_c, 1, 31, 0
1, 67841, Note_on_c, 8, 31, 0
1, 67844, Note_on_c, 5, 79, 0
1, 67848, Note_on_c, 5, 74, 0
1, 67862, Note_on_c, 14, 70, 0
1, 67869, Note_on_c, 14, 67, 0
1, 67873, Note_on_c, 14, 62, 0
1, 68000, Note_on_c, 1, 31, 99
1, 68000, Note_on_c, 8, 31, 99
1, 68000, Note_on_c, 9, 35, 107
1, 68000, Note_on_c, 11, 41, 107
1, 68012, Note_on_c, 9, 35, 0
1, 68160, Note_on_c, 5, 74, 105
1, 68160, Note_on_c, 5, 79, 94
1, 68160, Note_on_c, 5, 82, 94
1, 68160, Note_on_c, 9, 35, 114
1, 68160, Note_on_c, 11, 41, 114
1, 68161, Note_on_c, 11, 41, 0
1, 68172, Note_on_c, 9, 35, 0
1, 68185, Note_on_c, 14, 62, 105
1, 68185, Note_on_c, 14, 67, 94
1, 68185, Note_on_c, 14, 70, 94
1, 68315, Note_on_c, 5, 82, 0
1, 68321, Note_on_c, 11, 41, 0
1, 68323, Note_on_c, 5, 74, 0
1, 68327, Note_on_c, 5, 79, 0
1, 68340, Note_on_c, 14, 70, 0
1, 68348, Note_on_c, 14, 62, 0
1, 68352, Note_on_c, 14, 67, 0
1, 68480, Note_on_c, 9, 70, 65
1, 68492, Note_on_c, 9, 70, 0
1, 68615, Note_on_c, 3, 74, 0
1, 68640, Note_on_c, 5, 74, 109
1, 68640, Note_on_c, 5, 79, 94
1, 68640, Note_on_c, 5, 82, 94
1, 68640, Note_on_c, 9, 44, 107
1, 68640, Note_on_c, 9, 54, 109
1, 68640, Note_on_c, 13, 67, 83
1, 68652, Note_on_c, 9, 44, 0
1, 68652, Note_on_c, 9, 54, 0
1, 68665, Note_on_c, 14, 62, 109
1, 68665, Note_on_c, 14, 67, 94
1, 68665, Note_on_c, 14, 70, 94
1, 68781, Note_on_c, 5, 82, 0
1, 68794, Note_on_c, 5, 74, 0
1, 68794, Note_on_c, 5, 79, 0
1, 68801, Note_on_c, 1, 31, 0
1, 68801, Note_on_c, 8, 31, 0
1, 68806, Note_on_c, 14, 70, 0
1, 68819, Note_on_c, 14, 62, 0
1, 68819, Note_on_c, 14, 67, 0
1, 68960, Note_on_c, 1, 31, 99
1, 68960, Note_on_c, 8, 31, 99
1, 69110, Note_on_c, 13, 62, 0
1, 69120, Note_on_c, 5, 74, 109
1, 69120, Note_on_c, 5, 79, 94
1, 69120, Note_on_c, 5, 82, 101
1, 69120, Note_on_c, 9, 35, 114
1, 69120, Note_on_c, 11, 41, 114
1, 69132, Note_on_c, 9, 35, 0
1, 69145, Note_on_c, 14, 62, 109
1, 69145, Note_on_c, 14, 67, 94
1, 69145, Note_on_c, 14, 70, 101
1, 69275, Note_on_c, 5, 82, 0
1, 69281, Note_on_c, 11, 41, 0
1, 69291, Note_on_c, 5, 74, 0
1, 69291, Note_on_c, 5, 79, 0
1, 69300, Note_on_c, 14, 70, 0
1, 69316, Note_on_c, 14, 62, 0
1, 69316, Note_on_c, 14, 67, 0
1, 69600, Note_on_c, 5, 74, 108
1, 69600, Note_on_c, 5, 79, 97
1, 69600, Note_on_c, 5, 82, 98
1, 69600, Note_on_c, 9, 44, 107
1, 69600, Note_on_c, 9, 69, 109
1, 69610, Lyric_t, "MY "
1, 69610, Note_on_c, 3, 74, 109
1, 69612, Note_on_c, 9, 44, 0
1, 69612, Note_on_c, 9, 69, 0
1, 69625, Note_on_c, 14, 62, 108
1, 69625, Note_on_c, 14, 67, 97
1, 69625, Note_on_c, 14, 70, 98
1, 69746, Note_on_c, 5, 82, 0
1, 69758, Note_on_c, 5, 74, 0
1, 69761, Note_on_c, 1, 31, 0
1, 69761, Note_on_c, 8, 31, 0
1, 69763, Note_on_c, 5, 79, 0
1, 69771, Note_on_c, 14, 70, 0
1, 69783, Note_on_c, 14, 62, 0
1, 69788, Note_on_c, 14, 67, 0
1, 69920, Note_on_c, 1, 31, 99
1, 69920, Note_on_c, 8, 31, 99
1, 69920, Note_on_c, 9, 35, 114
1, 69920, Note_on_c, 11, 41, 114
1, 69920, Note_on_c, 13, 58, 83
1, 69932, Note_on_c, 9, 35, 0
1, 69969, Note_on_c, 3, 74, 0
1, 70070, Note_on_c, 13, 67, 0
1, 70072, Lyric_t, "ODDS "
1, 70072, Note_on_c, 3, 74, 109
1, 70080, Note_on_c, 5, 74, 105
1, 70080, Note_on_c, 5, 79, 89
1, 70080, Note_on_c, 5, 82, 94
1, 70081, Note_on_c, 11, 41, 0
1, 70105, Note_on_c, 14, 62, 105
1, 70105, Note_on_c, 14, 67, 89
1, 70105, Note_on_c, 14, 70, 94
1, 70226, Note_on_c, 5, 82, 0
1, 70248, Note_on_c, 5, 74, 0
1, 70248, Note_on_c, 5, 79, 0
1, 70251, Note_on_c, 14, 70, 0
1, 70273, Note_on_c, 14, 62, 0
1, 70273, Note_on_c, 14, 67, 0
1, 70396, Note_on_c, 1, 31, 0
1, 70396, Note_on_c, 8, 31, 0
1, 70400, Note_on_c, 1, 32, 99
1, 70400, Note_on_c, 8, 32, 99
1, 70400, Note_on_c, 9, 35, 114
1, 70400, Note_on_c, 9, 70, 65
1, 70400, Note_on_c, 11, 41, 114
1, 70412, Note_on_c, 9, 35, 0
1, 70412, Note_on_c, 9, 70, 0
1, 70429, Note_on_c, 3, 74, 0
1, 70560, Note_on_c, 5, 74, 109
1, 70560, Note_on_c, 5, 79, 97
1, 70560, Note_on_c, 5, 82, 110
1, 70560, Note_on_c, 9, 44, 107
1, 70560, Note_on_c, 9, 54, 109
1, 70561, Note_on_c, 11, 41, 0
1, 70563, Lyric_t, "ARE "
1, 70563, Note_on_c, 3, 74, 105
1, 70572, Note_on_c, 9, 44, 0
1, 70572, Note_on_c, 9, 54, 0
1, 70585, Note_on_c, 14, 62, 109
1, 70585, Note_on_c, 14, 67, 97
1, 70585, Note_on_c, 14, 70, 110
1, 70709, Note_on_c, 5, 82, 0
1, 70718, Note_on_c, 5, 74, 0
1, 70721, Note_on_c, 5, 79, 0
1, 70734, Note_on_c, 14, 70, 0
1, 70743, Note_on_c, 14, 62, 0
1, 70746, Note_on_c, 14, 67, 0
1, 70876, Note_on_c, 1, 32, 0
1, 70876, Note_on_c, 8, 32, 0
1, 70880, Note_on_c, 1, 33, 99
1, 70880, Note_on_c, 8, 33, 99
1, 71036, Note_on_c, 1, 33, 0
1, 71036, Note_on_c, 8, 33, 0
1, 71040, Note_on_c, 1, 34, 99
1, 71040, Note_on_c, 5, 74, 101
1, 71040, Note_on_c, 5, 77, 97
1, 71040, Note_on_c, 5, 82, 105
1, 71040, Note_on_c, 8, 34, 99
1, 71040, Note_on_c, 9, 35, 114
1, 71040, Note_on_c, 11, 41, 114
1, 71052, Note_on_c, 9, 35, 0
1, 71065, Note_on_c, 14, 62, 101
1, 71065, Note_on_c, 14, 65, 97
1, 71065, Note_on_c, 14, 70, 105
1, 71113, Note_on_c, 5, 82, 0
1, 71138, Note_on_c, 14, 70, 0
1, 71161, Note_on_c, 5, 77, 0
1, 71163, Note_on_c, 5, 74, 0
1, 71186, Note_on_c, 14, 65, 0
1, 71188, Note_on_c, 14, 62, 0
1, 71201, Note_on_c, 11, 41, 0
1, 71271, Note_on_c, 3, 74, 0
1, 71350, Note_on_c, 13, 58, 0
1, 71520, Note_on_c, 5, 74, 111
1, 71520, Note_on_c, 5, 77, 107
1, 71520, Note_on_c, 5, 82, 105
1, 71520, Note_on_c, 9, 44, 107
1, 71520, Note_on_c, 9, 69, 109
1, 71520, Note_on_c, 13, 62, 83
1, 71531, Lyric_t, "STACKED"
1, 71531, Lyric_t, "\015"
1, 71531, Note_on_c, 3, 74, 114
1, 71532, Note_on_c, 9, 44, 0
1, 71532, Note_on_c, 9, 69, 0
1, 71545, Note_on_c, 14, 62, 111
1, 71545, Note_on_c, 14, 65, 107
1, 71545, Note_on_c, 14, 70, 105
1, 71677, Note_on_c, 5, 82, 0
1, 71684, Note_on_c, 5, 77, 0
1, 71688, Note_on_c, 5, 74, 0
1, 71702, Note_on_c, 14, 70, 0
1, 71709, Note_on_c, 14, 65, 0
1, 71713, Note_on_c, 14, 62, 0
1, 71781, Note_on_c, 1, 34, 0
1, 71781, Note_on_c, 8, 34, 0
1, 71840, Note_on_c, 1, 34, 99
1, 71840, Note_on_c, 8, 34, 99
1, 71840, Note_on_c, 9, 35, 107
1, 71840, Note_on_c, 11, 41, 107
1, 71852, Note_on_c, 9, 35, 0
1, 72000, Note_on_c, 5, 74, 105
1, 72000, Note_on_c, 5, 77, 94
1, 72000, Note_on_c, 5, 82, 94
1, 72000, Note_on_c, 9, 35, 114
1, 72000, Note_on_c, 11, 41, 114
1, 72001, Note_on_c, 11, 41, 0
1, 72012, Note_on_c, 9, 35, 0
1, 72025, Note_on_c, 14, 62, 105
1, 72025, Note_on_c, 14, 65, 94
1, 72025, Note_on_c, 14, 70, 94
1, 72155, Note_on_c, 5, 82, 0
1, 72161, Note_on_c, 11, 41, 0
1, 72163, Note_on_c, 5, 74, 0
1, 72167, Note_on_c, 5, 77, 0
1, 72180, Note_on_c, 14, 70, 0
1, 72188, Note_on_c, 14, 62, 0
1, 72192, Note_on_c, 14, 65, 0
1, 72320, Note_on_c, 9, 70, 65
1, 72332, Note_on_c, 9, 70, 0
1, 72477, Note_on_c, 3, 74, 0
1, 72480, Note_on_c, 5, 74, 109
1, 72480, Note_on_c, 5, 77, 94
1, 72480, Note_on_c, 5, 82, 94
1, 72480, Note_on_c, 9, 44, 107
1, 72480, Note_on_c, 9, 54, 109
1, 72480, Note_on_c, 13, 65, 83
1, 72492, Note_on_c, 9, 44, 0
1, 72492, Note_on_c, 9, 54, 0
1, 72505, Note_on_c, 14, 62, 109
1, 72505, Note_on_c, 14, 65, 94
1, 72505, Note_on_c, 14, 70, 94
1, 72581, Note_on_c, 1, 34, 0
1, 72581, Note_on_c, 8, 34, 0
1, 72621, Note_on_c, 5, 82, 0
1, 72634, Note_on_c, 5, 74, 0
1, 72634, Note_on_c, 5, 77, 0
1, 72646, Note_on_c, 14, 70, 0
1, 72659, Note_on_c, 14, 62, 0
1, 72659, Note_on_c, 14, 65, 0
1, 72790, Lyric_t, "I'LL "
1, 72790, Note_on_c, 3, 69, 105
1, 72800, Note_on_c, 1, 34, 99
1, 72800, Note_on_c, 8, 34, 99
1, 72869, Note_on_c, 3, 69, 0
1, 72950, Note_on_c, 13, 62, 0
1, 72960, Note_on_c, 5, 74, 109
1, 72960, Note_on_c, 5, 77, 94
1, 72960, Note_on_c, 5, 82, 101
1, 72960, Note_on_c, 9, 35, 114
1, 72960, Note_on_c, 11, 41, 114
1, 72970, Note_on_c, 3, 74, 119
1, 72972, Note_on_c, 9, 35, 0
1, 72985, Note_on_c, 14, 62, 109
1, 72985, Note_on_c, 14, 65, 94
1, 72985, Note_on_c, 14, 70, 101
1, 73115, Note_on_c, 5, 82, 0
1, 73121, Note_on_c, 11, 41, 0
1, 73131, Note_on_c, 5, 74, 0
1, 73131, Note_on_c, 5, 77, 0
1, 73140, Note_on_c, 14, 70, 0
1, 73156, Note_on_c, 14, 62, 0
1, 73156, Note_on_c, 14, 65, 0
1, 73288, Note_on_c, 3, 74, 0
1, 73415, Lyric_t, "GO "
1, 73415, Note_on_c, 3, 69, 97
1, 73440, Note_on_c, 5, 74, 108
1, 73440, Note_on_c, 5, 77, 97
1, 73440, Note_on_c, 5, 82, 98
1, 73440, Note_on_c, 9, 44, 107
1, 73440, Note_on_c, 9, 69, 109
1, 73452, Note_on_c, 9, 44, 0
1, 73452, Note_on_c, 9, 69, 0
1, 73465, Note_on_c, 14, 62, 108
1, 73465, Note_on_c, 14, 65, 97
1, 73465, Note_on_c, 14, 70, 98
1, 73541, Note_on_c, 1, 34, 0
1, 73541, Note_on_c, 8, 34, 0
1, 73586, Note_on_c, 5, 82, 0
1, 73598, Note_on_c, 5, 74, 0
1, 73603, Note_on_c, 5, 77, 0
1, 73611, Note_on_c, 14, 70, 0
1, 73623, Note_on_c, 14, 62, 0
1, 73628, Note_on_c, 14, 65, 0
1, 73747, Note_on_c, 3, 69, 0
1, 73760, Note_on_c, 1, 34, 99
1, 73760, Note_on_c, 8, 34, 99
1, 73760, Note_on_c, 9, 35, 114
1, 73760, Note_on_c, 11, 41, 114
1, 73760, Note_on_c, 13, 57, 83
1, 73772, Note_on_c, 9, 35, 0
1, 73895, Lyric_t, "BA"
1, 73895, Note_on_c, 3, 74, 124
1, 73910, Note_on_c, 13, 65, 0
1, 73920, Note_on_c, 5, 74, 105
1, 73920, Note_on_c, 5, 77, 89
1, 73920, Note_on_c, 5, 82, 94
1, 73921, Note_on_c, 11, 41, 0
1, 73945, Note_on_c, 14, 62, 105
1, 73945, Note_on_c, 14, 65, 89
1, 73945, Note_on_c, 14, 70, 94
1, 74066, Note_on_c, 5, 82, 0
1, 74088, Note_on_c, 5, 74, 0
1, 74088, Note_on_c, 5, 77, 0
1, 74091, Note_on_c, 14, 70, 0
1, 74113, Note_on_c, 14, 62, 0
1, 74113, Note_on_c, 14, 65, 0
1, 74224, Note_on_c, 3, 74, 0
1, 74236, Note_on_c, 1, 34, 0
1, 74236, Note_on_c, 8, 34, 0
1, 74240, Note_on_c, 1, 41, 99
1, 74240, Note_on_c, 8, 41, 99
1, 74240, Note_on_c, 9, 35, 114
1, 74240, Note_on_c, 9, 70, 65
1, 74240, Note_on_c, 11, 41, 114
1, 74252, Note_on_c, 9, 35, 0
1, 74252, Note_on_c, 9, 70, 0
1, 74399, Lyric_t, "CK "
1, 74399, Note_on_c, 3, 69, 105
1, 74400, Note_on_c, 5, 74, 109
1, 74400, Note_on_c, 5, 77, 97
1, 74400, Note_on_c, 5, 82, 110
1, 74400, Note_on_c, 9, 44, 107
1, 74400, Note_on_c, 9, 54, 109
1, 74401, Note_on_c, 11, 41, 0
1, 74412, Note_on_c, 9, 44, 0
1, 74412, Note_on_c, 9, 54, 0
1, 74425, Note_on_c, 14, 62, 109
1, 74425, Note_on_c, 14, 65, 97
1, 74425, Note_on_c, 14, 70, 110
1, 74549, Note_on_c, 5, 82, 0
1, 74558, Note_on_c, 5, 74, 0
1, 74561, Note_on_c, 5, 77, 0
1, 74574, Note_on_c, 14, 70, 0
1, 74583, Note_on_c, 14, 62, 0
1, 74586, Note_on_c, 14, 65, 0
1, 74716, Note_on_c, 1, 41, 0
1, 74716, Note_on_c, 8, 41, 0
1, 74720, Note_on_c, 1, 34, 99
1, 74720, Note_on_c, 8, 34, 99
1, 74720, Note_on_c, 1, 34, 0
1, 74720, Note_on_c, 8, 34, 0
1, 74880, Note_on_c, 1, 33, 99
1, 74880, Note_on_c, 5, 73, 101
1, 74880, Note_on_c, 5, 76, 97
1, 74880, Note_on_c, 5, 81, 105
1, 74880, Note_on_c, 8, 33, 99
1, 74880, Note_on_c, 9, 35, 114
1, 74880, Note_on_c, 11, 41, 114
1, 74892, Note_on_c, 9, 35, 0
1, 74905, Note_on_c, 14, 61, 101
1, 74905, Note_on_c, 14, 64, 97
1, 74905, Note_on_c, 14, 69, 105
1, 74953, Note_on_c, 5, 81, 0
1, 74978, Note_on_c, 14, 69, 0
1, 75001, Note_on_c, 5, 76, 0
1, 75003, Note_on_c, 5, 73, 0
1, 75026, Note_on_c, 14, 64, 0
1, 75028, Note_on_c, 14, 61, 0
1, 75041, Note_on_c, 11, 41, 0
1, 75153, Note_on_c, 3, 69, 0
1, 75157, Lyric_t, "TO "
1, 75157, Note_on_c, 3, 73, 122
1, 75190, Note_on_c, 13, 57, 0
1, 75235, Note_on_c, 3, 73, 0
1, 75313, Lyric_t, "BLACK"
1, 75313, Lyric_t, "\015"
1, 75313, Note_on_c, 3, 73, 115
1, 75360, Note_on_c, 5, 73, 111
1, 75360, Note_on_c, 5, 76, 107
1, 75360, Note_on_c, 5, 81, 105
1, 75360, Note_on_c, 9, 44, 107
1, 75360, Note_on_c, 9, 69, 109
1, 75372, Note_on_c, 9, 44, 0
1, 75372, Note_on_c, 9, 69, 0
1, 75385, Note_on_c, 14, 61, 111
1, 75385, Note_on_c, 14, 64, 107
1, 75385, Note_on_c, 14, 69, 105
1, 75517, Note_on_c, 5, 81, 0
1, 75524, Note_on_c, 5, 76, 0
1, 75528, Note_on_c, 5, 73, 0
1, 75542, Note_on_c, 14, 69, 0
1, 75549, Note_on_c, 14, 64, 0
1, 75553, Note_on_c, 14, 61, 0
1, 75621, Note_on_c, 1, 33, 0
1, 75621, Note_on_c, 8, 33, 0
1, 75680, Note_on_c, 1, 33, 99
1, 75680, Note_on_c, 8, 33, 99
1, 75680, Note_on_c, 9, 35, 107
1, 75680, Note_on_c, 11, 41, 107
1, 75692, Note_on_c, 9, 35, 0
1, 75840, Note_on_c, 5, 73, 105
1, 75840, Note_on_c, 5, 76, 94
1, 75840, Note_on_c, 5, 81, 94
1, 75840, Note_on_c, 9, 35, 114
1, 75840, Note_on_c, 11, 41, 114
1, 75841, Note_on_c, 11, 41, 0
1, 75852, Note_on_c, 9, 35, 0
1, 75865, Note_on_c, 14, 61, 105
1, 75865, Note_on_c, 14, 64, 94
1, 75865, Note_on_c, 14, 69, 94
1, 75995, Note_on_c, 5, 81, 0
1, 76001, Note_on_c, 11, 41, 0
1, 76003, Note_on_c, 5, 73, 0
1, 76007, Note_on_c, 5, 76, 0
1, 76020, Note_on_c, 14, 69, 0
1, 76028, Note_on_c, 14, 61, 0
1, 76032, Note_on_c, 14, 64, 0
1, 76160, Note_on_c, 9, 70, 65
1, 76172, Note_on_c, 9, 70, 0
1, 76320, Note_on_c, 5, 73, 109
1, 76320, Note_on_c, 5, 76, 94
1, 76320, Note_on_c, 5, 81, 94
1, 76320, Note_on_c, 9, 44, 107
1, 76320, Note_on_c, 9, 54, 109
1, 76332, Note_on_c, 9, 44, 0
1, 76332, Note_on_c, 9, 54, 0
1, 76345, Note_on_c, 14, 61, 109
1, 76345, Note_on_c, 14, 64, 94
1, 76345, Note_on_c, 14, 69, 94
1, 76421, Note_on_c, 1, 33, 0
1, 76421, Note_on_c, 8, 33, 0
1, 76461, Note_on_c, 5, 81, 0
1, 76474, Note_on_c, 5, 73, 0
1, 76474, Note_on_c, 5, 76, 0
1, 76486, Note_on_c, 14, 69, 0
1, 76499, Note_on_c, 14, 61, 0
1, 76499, Note_on_c, 14, 64, 0
1, 76640, Note_on_c, 1, 33, 99
1, 76640, Note_on_c, 8, 33, 99
1, 76800, Note_on_c, 5, 73, 109
1, 76800, Note_on_c, 5, 76, 94
1, 76800, Note_on_c, 5, 81, 101
1, 76800, Note_on_c, 9, 35, 114
1, 76800, Note_on_c, 11, 41, 114
1, 76812, Note_on_c, 9, 35, 0
1, 76825, Note_on_c, 14, 61, 109
1, 76825, Note_on_c, 14, 64, 94
1, 76825, Note_on_c, 14, 69, 101
1, 76955, Note_on_c, 5, 81, 0
1, 76961, Note_on_c, 11, 41, 0
1, 76971, Note_on_c, 5, 73, 0
1, 76971, Note_on_c, 5, 76, 0
1, 76980, Note_on_c, 14, 69, 0
1, 76996, Note_on_c, 14, 61, 0
1, 76996, Note_on_c, 14, 64, 0
1, 77229, Note_on_c, 3, 73, 0
1, 77280, Note_on_c, 5, 73, 108
1, 77280, Note_on_c, 5, 76, 97
1, 77280, Note_on_c, 5, 81, 98
1, 77280, Note_on_c, 9, 44, 107
1, 77280, Note_on_c, 9, 69, 109
1, 77292, Note_on_c, 9, 44, 0
1, 77292, Note_on_c, 9, 69, 0
1, 77305, Note_on_c, 14, 61, 108
1, 77305, Note_on_c, 14, 64, 97
1, 77305, Note_on_c, 14, 69, 98
1, 77381, Note_on_c, 1, 33, 0
1, 77381, Note_on_c, 8, 33, 0
1, 77426, Note_on_c, 5, 81, 0
1, 77438, Note_on_c, 5, 73, 0
1, 77443, Note_on_c, 5, 76, 0
1, 77451, Note_on_c, 14, 69, 0
1, 77463, Note_on_c, 14, 61, 0
1, 77468, Note_on_c, 14, 64, 0
1, 77600, Note_on_c, 1, 33, 99
1, 77600, Note_on_c, 8, 33, 99
1, 77600, Note_on_c, 9, 35, 114
1, 77600, Note_on_c, 11, 41, 114
1, 77612, Note_on_c, 9, 35, 0
1, 77760, Note_on_c, 5, 73, 105
1, 77760, Note_on_c, 5, 76, 89
1, 77760, Note_on_c, 5, 81, 94
1, 77760, Note_on_c, 12, 55, 119
1, 77761, Note_on_c, 11, 41, 0
1, 77785, Note_on_c, 14, 61, 105
1, 77785, Note_on_c, 14, 64, 89
1, 77785, Note_on_c, 14, 69, 94
1, 77906, Note_on_c, 5, 81, 0
1, 77928, Note_on_c, 5, 73, 0
1, 77928, Note_on_c, 5, 76, 0
1, 77931, Note_on_c, 14, 69, 0
1, 77953, Note_on_c, 14, 61, 0
1, 77953, Note_on_c, 14, 64, 0
1, 78062, Note_on_c, 12, 55, 0
1, 78076, Note_on_c, 1, 33, 0
1, 78076, Note_on_c, 8, 33, 0
1, 78080, Note_on_c, 1, 36, 99
1, 78080, Note_on_c, 8, 36, 99
1, 78080, Note_on_c, 9, 35, 114
1, 78080, Note_on_c, 9, 70, 65
1, 78080, Note_on_c, 11, 41, 114
1, 78080, Note_on_c, 12, 57, 114
1, 78092, Note_on_c, 9, 35, 0
1, 78092, Note_on_c, 9, 70, 0
1, 78240, Note_on_c, 5, 73, 109
1, 78240, Note_on_c, 5, 76, 97
1, 78240, Note_on_c, 5, 81, 110
1, 78240, Note_on_c, 9, 44, 107
1, 78240, Note_on_c, 9, 54, 109
1, 78241, Note_on_c, 11, 41, 0
1, 78252, Note_on_c, 9, 44, 0
1, 78252, Note_on_c, 9, 54, 0
1, 78265, Note_on_c, 14, 61, 109
1, 78265, Note_on_c, 14, 64, 97
1, 78265, Note_on_c, 14, 69, 110
1, 78389, Note_on_c, 5, 81, 0
1, 78398, Note_on_c, 5, 73, 0
1, 78401, Note_on_c, 5, 76, 0
1, 78414, Note_on_c, 14, 69, 0
1, 78423, Note_on_c, 14, 61, 0
1, 78426, Note_on_c, 14, 64, 0
1, 78556, Note_on_c, 1, 36, 0
1, 78556, Note_on_c, 8, 36, 0
1, 78560, Note_on_c, 1, 37, 99
1, 78560, Note_on_c, 8, 37, 99
1, 78560, Note_on_c, 12, 50, 104
1, 78716, Note_on_c, 1, 37, 0
1, 78716, Note_on_c, 8, 37, 0
1, 78720, Note_on_c, 1, 38, 110
1, 78720, Note_on_c, 5, 74, 101
1, 78720, Note_on_c, 5, 77, 97
1, 78720, Note_on_c, 5, 81, 105
1, 78720, Note_on_c, 8, 38, 110
1, 78720, Note_on_c, 9, 35, 114
1, 78720, Note_on_c, 11, 41, 114
1, 78732, Note_on_c, 9, 35, 0
1, 78739, Note_on_c, 14, 62, 101
1, 78739, Note_on_c, 14, 65, 97
1, 78739, Note_on_c, 14, 69, 105
1, 78793, Note_on_c, 5, 81, 0
1, 78813, Note_on_c, 14, 69, 0
1, 78841, Note_on_c, 5, 77, 0
1, 78843, Note_on_c, 5, 74, 0
1, 78860, Note_on_c, 14, 65, 0
1, 78862, Note_on_c, 14, 62, 0
1, 78881, Note_on_c, 11, 41, 0
1, 79200, Note_on_c, 5, 74, 111
1, 79200, Note_on_c, 5, 77, 107
1, 79200, Note_on_c, 5, 81, 105
1, 79200, Note_on_c, 9, 44, 107
1, 79200, Note_on_c, 9, 69, 109
1, 79200, Note_on_c, 12, 62, 119
1, 79212, Note_on_c, 9, 44, 0
1, 79212, Note_on_c, 9, 69, 0
1, 79213, Note_on_c, 1, 38, 0
1, 79213, Note_on_c, 8, 38, 0
1, 79219, Note_on_c, 14, 62, 111
1, 79219, Note_on_c, 14, 65, 107
1, 79219, Note_on_c, 14, 69, 105
1, 79357, Note_on_c, 5, 81, 0
1, 79364, Note_on_c, 5, 77, 0
1, 79368, Note_on_c, 5, 74, 0
1, 79377, Note_on_c, 14, 69, 0
1, 79384, Note_on_c, 14, 65, 0
1, 79388, Note_on_c, 14, 62, 0
1, 79520, Note_on_c, 1, 38, 110
1, 79520, Note_on_c, 8, 38, 110
1, 79520, Note_on_c, 9, 35, 107
1, 79520, Note_on_c, 11, 41, 107
1, 79532, Note_on_c, 9, 35, 0
1, 79566, Note_on_c, 1, 38, 0
1, 79566, Note_on_c, 8, 38, 0
1, 79658, Lyric_t, "WE "
1, 79658, Note_on_c, 3, 76, 124
1, 79680, Note_on_c, 1, 38, 110
1, 79680, Note_on_c, 5, 74, 105
1, 79680, Note_on_c, 5, 77, 94
1, 79680, Note_on_c, 5, 81, 94
1, 79680, Note_on_c, 8, 38, 110
1, 79680, Note_on_c, 9, 35, 114
1, 79680, Note_on_c, 11, 41, 114
1, 79681, Note_on_c, 11, 41, 0
1, 79692, Note_on_c, 9, 35, 0
1, 79699, Note_on_c, 14, 62, 105
1, 79699, Note_on_c, 14, 65, 94
1, 79699, Note_on_c, 14, 69, 94
1, 79723, Note_on_c, 12, 57, 0
1, 79770, Note_on_c, 12, 50, 0
1, 79835, Note_on_c, 5, 81, 0
1, 79841, Note_on_c, 11, 41, 0
1, 79843, Note_on_c, 5, 74, 0
1, 79847, Note_on_c, 5, 77, 0
1, 79855, Note_on_c, 14, 69, 0
1, 79863, Note_on_c, 14, 62, 0
1, 79867, Note_on_c, 14, 65, 0
1, 79942, Note_on_c, 3, 76, 0
1, 80000, Note_on_c, 9, 70, 65
1, 80012, Note_on_c, 9, 70, 0
1, 80028, Lyric_t, "ON"
1, 80028, Note_on_c, 3, 77, 114
1, 80160, Note_on_c, 5, 74, 109
1, 80160, Note_on_c, 5, 77, 94
1, 80160, Note_on_c, 5, 81, 94
1, 80160, Note_on_c, 9, 44, 107
1, 80160, Note_on_c, 9, 54, 109
1, 80172, Note_on_c, 9, 44, 0
1, 80172, Note_on_c, 9, 54, 0
1, 80173, Note_on_c, 1, 38, 0
1, 80173, Note_on_c, 8, 38, 0
1, 80179, Note_on_c, 14, 62, 109
1, 80179, Note_on_c, 14, 65, 94
1, 80179, Note_on_c, 14, 69, 94
1, 80242, Note_on_c, 3, 77, 0
1, 80301, Note_on_c, 5, 81, 0
1, 80314, Note_on_c, 5, 74, 0
1, 80314, Note_on_c, 5, 77, 0
1, 80321, Note_on_c, 14, 69, 0
1, 80334, Note_on_c, 14, 62, 0
1, 80334, Note_on_c, 14, 65, 0
1, 80343, Lyric_t, "LY "
1, 80343, Note_on_c, 3, 76, 127
1, 80410, Note_on_c, 12, 62, 0
1, 80614, Note_on_c, 3, 76, 0
1, 80640, Note_on_c, 1, 38, 110
1, 80640, Note_on_c, 5, 74, 109
1, 80640, Note_on_c, 5, 77, 94
1, 80640, Note_on_c, 5, 81, 101
1, 80640, Note_on_c, 8, 38, 110
1, 80640, Note_on_c, 9, 35, 114
1, 80640, Note_on_c, 11, 41, 114
1, 80652, Note_on_c, 9, 35, 0
1, 80659, Note_on_c, 14, 62, 109
1, 80659, Note_on_c, 14, 65, 94
1, 80659, Note_on_c, 14, 69, 101
1, 80663, Lyric_t, "SAID "
1, 80663, Note_on_c, 3, 79, 123
1, 80795, Note_on_c, 5, 81, 0
1, 80801, Note_on_c, 11, 41, 0
1, 80811, Note_on_c, 5, 74, 0
1, 80811, Note_on_c, 5, 77, 0
1, 80815, Note_on_c, 14, 69, 0
1, 80831, Note_on_c, 14, 62, 0
1, 80831, Note_on_c, 14, 65, 0
1, 80934, Note_on_c, 3, 79, 0
1, 81078, Lyric_t, "GOOD"
1, 81078, Note_on_c, 3, 77, 125
1, 81120, Note_on_c, 5, 74, 108
1, 81120, Note_on_c, 5, 77, 97
1, 81120, Note_on_c, 5, 81, 98
1, 81120, Note_on_c, 9, 44, 107
1, 81120, Note_on_c, 9, 69, 109
1, 81120, Note_on_c, 10, 57, 105
1, 81120, Note_on_c, 12, 57, 124
1, 81132, Note_on_c, 9, 44, 0
1, 81132, Note_on_c, 9, 69, 0
1, 81139, Note_on_c, 14, 62, 108
1, 81139, Note_on_c, 14, 65, 97
1, 81139, Note_on_c, 14, 69, 98
1, 81153, Note_on_c, 1, 38, 0
1, 81153, Note_on_c, 8, 38, 0
1, 81266, Note_on_c, 5, 81, 0
1, 81278, Note_on_c, 5, 74, 0
1, 81281, Note_on_c, 3, 77, 0
1, 81283, Note_on_c, 5, 77, 0
1, 81286, Note_on_c, 14, 69, 0
1, 81298, Note_on_c, 14, 62, 0
1, 81303, Note_on_c, 14, 65, 0
1, 81368, Note_on_c, 10, 57, 0
1, 81400, Lyric_t, "BYE"
1, 81400, Lyric_t, "\015"
1, 81400, Note_on_c, 3, 77, 114
1, 81440, Note_on_c, 1, 38, 110
1, 81440, Note_on_c, 8, 38, 110
1, 81440, Note_on_c, 9, 35, 114
1, 81440, Note_on_c, 10, 65, 113
1, 81440, Note_on_c, 11, 41, 114
1, 81440, Note_on_c, 12, 65, 114
1, 81452, Note_on_c, 9, 35, 0
1, 81600, Note_on_c, 5, 74, 105
1, 81600, Note_on_c, 5, 77, 89
1, 81600, Note_on_c, 5, 81, 94
1, 81601, Note_on_c, 11, 41, 0
1, 81619, Note_on_c, 14, 62, 105
1, 81619, Note_on_c, 14, 65, 89
1, 81619, Note_on_c, 14, 69, 94
1, 81746, Note_on_c, 5, 81, 0
1, 81765, Note_on_c, 14, 69, 0
1, 81768, Note_on_c, 5, 74, 0
1, 81768, Note_on_c, 5, 77, 0
1, 81788, Note_on_c, 14, 62, 0
1, 81788, Note_on_c, 14, 65, 0
1, 81916, Note_on_c, 1, 38, 0
1, 81916, Note_on_c, 8, 38, 0
1, 81920, Note_on_c, 1, 41, 110
1, 81920, Note_on_c, 8, 41, 110
1, 81920, Note_on_c, 9, 35, 114
1, 81920, Note_on_c, 9, 70, 65
1, 81920, Note_on_c, 11, 41, 114
1, 81932, Note_on_c, 9, 35, 0
1, 81932, Note_on_c, 9, 70, 0
1, 82080, Note_on_c, 5, 74, 109
1, 82080, Note_on_c, 5, 77, 97
1, 82080, Note_on_c, 5, 81, 110
1, 82080, Note_on_c, 9, 44, 107
1, 82080, Note_on_c, 9, 54, 109
1, 82080, Note_on_c, 10, 62, 95
1, 82080, Note_on_c, 12, 62, 121
1, 82081, Note_on_c, 11, 41, 0
1, 82092, Note_on_c, 3, 77, 0
1, 82092, Note_on_c, 9, 44, 0
1, 82092, Note_on_c, 9, 54, 0
1, 82093, Note_on_c, 10, 65, 0
1, 82096, Note_on_c, 12, 57, 0
1, 82099, Note_on_c, 14, 62, 109
1, 82099, Note_on_c, 14, 65, 97
1, 82099, Note_on_c, 14, 69, 110
1, 82106, Lyric_t, "WITH "
1, 82106, Note_on_c, 3, 76, 124
1, 82121, Note_on_c, 12, 65, 0
1, 82229, Note_on_c, 5, 81, 0
1, 82238, Note_on_c, 5, 74, 0
1, 82241, Note_on_c, 5, 77, 0
1, 82248, Note_on_c, 14, 69, 0
1, 82257, Note_on_c, 14, 62, 0
1, 82260, Note_on_c, 14, 65, 0
1, 82357, Note_on_c, 3, 76, 0
1, 82395, Lyric_t, "WOR"
1, 82395, Note_on_c, 3, 77, 114
1, 82396, Note_on_c, 1, 41, 0
1, 82396, Note_on_c, 8, 41, 0
1, 82396, Note_on_c, 12, 62, 0
1, 82400, Note_on_c, 1, 42, 110
1, 82400, Note_on_c, 8, 42, 110
1, 82520, Note_on_c, 10, 62, 0
1, 82556, Note_on_c, 1, 42, 0
1, 82556, Note_on_c, 8, 42, 0
1, 82560, Note_on_c, 1, 43, 110
1, 82560, Note_on_c, 5, 74, 101
1, 82560, Note_on_c, 5, 79, 97
1, 82560, Note_on_c, 5, 82, 105
1, 82560, Note_on_c, 8, 43, 110
1, 82560, Note_on_c, 9, 35, 114
1, 82560, Note_on_c, 10, 58, 104
1, 82560, Note_on_c, 11, 41, 114
1, 82560, Note_on_c, 12, 55, 114
1, 82572, Note_on_c, 9, 35, 0
1, 82579, Note_on_c, 14, 62, 101
1, 82579, Note_on_c, 14, 67, 97
1, 82579, Note_on_c, 14, 70, 105
1, 82633, Note_on_c, 5, 82, 0
1, 82653, Note_on_c, 14, 70, 0
1, 82681, Note_on_c, 5, 79, 0
1, 82683, Note_on_c, 5, 74, 0
1, 82700, Note_on_c, 14, 67, 0
1, 82702, Note_on_c, 14, 62, 0
1, 82715, Note_on_c, 3, 77, 0
1, 82721, Note_on_c, 11, 41, 0
1, 82845, Lyric_t, "DS"
1, 82845, Lyric_t, "\015"
1, 82845, Note_on_c, 3, 70, 127
1, 83040, Note_on_c, 5, 74, 111
1, 83040, Note_on_c, 5, 79, 107
1, 83040, Note_on_c, 5, 82, 105
1, 83040, Note_on_c, 9, 44, 107
1, 83040, Note_on_c, 9, 69, 109
1, 83040, Note_on_c, 12, 58, 122
1, 83052, Note_on_c, 9, 44, 0
1, 83052, Note_on_c, 9, 69, 0
1, 83059, Note_on_c, 14, 62, 111
1, 83059, Note_on_c, 14, 67, 107
1, 83059, Note_on_c, 14, 70, 105
1, 83068, Note_on_c, 3, 70, 0
1, 83073, Note_on_c, 1, 43, 0
1, 83073, Note_on_c, 8, 43, 0
1, 83197, Note_on_c, 5, 82, 0
1, 83204, Note_on_c, 5, 79, 0
1, 83208, Note_on_c, 5, 74, 0
1, 83217, Note_on_c, 14, 70, 0
1, 83224, Note_on_c, 14, 67, 0
1, 83228, Note_on_c, 14, 62, 0
1, 83360, Note_on_c, 1, 31, 110
1, 83360, Note_on_c, 8, 31, 110
1, 83360, Note_on_c, 9, 35, 107
1, 83360, Note_on_c, 11, 41, 107
1, 83372, Note_on_c, 9, 35, 0
1, 83409, Note_on_c, 1, 31, 0
1, 83409, Note_on_c, 8, 31, 0
1, 83520, Note_on_c, 1, 31, 110
1, 83520, Note_on_c, 5, 74, 105
1, 83520, Note_on_c, 5, 79, 94
1, 83520, Note_on_c, 5, 82, 94
1, 83520, Note_on_c, 8, 31, 110
1, 83520, Note_on_c, 9, 35, 114
1, 83520, Note_on_c, 11, 41, 114
1, 83520, Note_on_c, 12, 62, 119
1, 83521, Note_on_c, 11, 41, 0
1, 83532, Note_on_c, 9, 35, 0
1, 83539, Lyric_t, "I "
1, 83539, Note_on_c, 3, 76, 127
1, 83539, Note_on_c, 14, 62, 105
1, 83539, Note_on_c, 14, 67, 94
1, 83539, Note_on_c, 14, 70, 94
1, 83675, Note_on_c, 5, 82, 0
1, 83681, Note_on_c, 11, 41, 0
1, 83683, Note_on_c, 5, 74, 0
1, 83687, Note_on_c, 5, 79, 0
1, 83695, Note_on_c, 14, 70, 0
1, 83703, Note_on_c, 14, 62, 0
1, 83707, Note_on_c, 14, 67, 0
1, 83840, Note_on_c, 9, 70, 65
1, 83852, Note_on_c, 9, 70, 0
1, 83872, Lyric_t, "DIED "
1, 83872, Note_on_c, 3, 77, 124
1, 83884, Note_on_c, 3, 76, 0
1, 84000, Note_on_c, 5, 74, 109
1, 84000, Note_on_c, 5, 79, 94
1, 84000, Note_on_c, 5, 82, 94
1, 84000, Note_on_c, 9, 44, 107
1, 84000, Note_on_c, 9, 54, 109
1, 84012, Note_on_c, 9, 44, 0
1, 84012, Note_on_c, 9, 54, 0
1, 84013, Note_on_c, 1, 31, 0
1, 84013, Note_on_c, 8, 31, 0
1, 84019, Note_on_c, 14, 62, 109
1, 84019, Note_on_c, 14, 67, 94
1, 84019, Note_on_c, 14, 70, 94
1, 84141, Note_on_c, 5, 82, 0
1, 84154, Note_on_c, 5, 74, 0
1, 84154, Note_on_c, 5, 79, 0
1, 84161, Note_on_c, 14, 70, 0
1, 84174, Note_on_c, 14, 62, 0
1, 84174, Note_on_c, 14, 67, 0
1, 84272, Note_on_c, 3, 77, 0
1, 84288, Lyric_t, "A "
1, 84288, Note_on_c, 3, 76, 127
1, 84480, Note_on_c, 1, 31, 110
1, 84480, Note_on_c, 5, 74, 109
1, 84480, Note_on_c, 5, 79, 94
1, 84480, Note_on_c, 5, 82, 101
1, 84480, Note_on_c, 8, 31, 110
1, 84480, Note_on_c, 9, 35, 114
1, 84480, Note_on_c, 11, 41, 114
1, 84480, Note_on_c, 12, 67, 119
1, 84492, Note_on_c, 9, 35, 0
1, 84499, Note_on_c, 14, 62, 109
1, 84499, Note_on_c, 14, 67, 94
1, 84499, Note_on_c, 14, 70, 101
1, 84635, Note_on_c, 5, 82, 0
1, 84641, Note_on_c, 11, 41, 0
1, 84651, Note_on_c, 5, 74, 0
1, 84651, Note_on_c, 5, 79, 0
1, 84655, Note_on_c, 14, 70, 0
1, 84671, Note_on_c, 14, 62, 0
1, 84671, Note_on_c, 14, 67, 0
1, 84768, Lyric_t, "HUND"
1, 84768, Note_on_c, 3, 79, 127
1, 84796, Note_on_c, 12, 62, 0
1, 84808, Note_on_c, 3, 76, 0
1, 84956, Note_on_c, 12, 67, 0
1, 84960, Note_on_c, 5, 74, 108
1, 84960, Note_on_c, 5, 79, 97
1, 84960, Note_on_c, 5, 82, 98
1, 84960, Note_on_c, 9, 44, 107
1, 84960, Note_on_c, 9, 69, 109
1, 84960, Note_on_c, 12, 62, 119
1, 84972, Note_on_c, 9, 44, 0
1, 84972, Note_on_c, 9, 69, 0
1, 84973, Note_on_c, 1, 31, 0
1, 84973, Note_on_c, 8, 31, 0
1, 84979, Note_on_c, 14, 62, 108
1, 84979, Note_on_c, 14, 67, 97
1, 84979, Note_on_c, 14, 70, 98
1, 84989, Note_on_c, 12, 55, 0
1, 85031, Note_on_c, 12, 58, 0
1, 85106, Note_on_c, 5, 82, 0
1, 85118, Note_on_c, 5, 74, 0
1, 85123, Note_on_c, 5, 79, 0
1, 85126, Note_on_c, 14, 70, 0
1, 85138, Note_on_c, 14, 62, 0
1, 85143, Note_on_c, 14, 67, 0
1, 85186, Note_on_c, 3, 79, 0
1, 85190, Lyric_t, "RED "
1, 85190, Note_on_c, 3, 77, 115
1, 85280, Note_on_c, 1, 31, 110
1, 85280, Note_on_c, 8, 31, 110
1, 85280, Note_on_c, 9, 35, 114
1, 85280, Note_on_c, 11, 41, 114
1, 85292, Note_on_c, 9, 35, 0
1, 85293, Note_on_c, 3, 77, 0
1, 85391, Lyric_t, "TIMES"
1, 85391, Lyric_t, "\015"
1, 85391, Note_on_c, 3, 77, 119
1, 85436, Note_on_c, 12, 62, 0
1, 85440, Note_on_c, 5, 74, 105
1, 85440, Note_on_c, 5, 79, 89
1, 85440, Note_on_c, 5, 82, 94
1, 85440, Note_on_c, 12, 58, 119
1, 85441, Note_on_c, 11, 41, 0
1, 85459, Note_on_c, 14, 62, 105
1, 85459, Note_on_c, 14, 67, 89
1, 85459, Note_on_c, 14, 70, 94
1, 85586, Note_on_c, 5, 82, 0
1, 85605, Note_on_c, 14, 70, 0
1, 85608, Note_on_c, 5, 74, 0
1, 85608, Note_on_c, 5, 79, 0
1, 85628, Note_on_c, 14, 62, 0
1, 85628, Note_on_c, 14, 67, 0
1, 85760, Note_on_c, 1, 32, 110
1, 85760, Note_on_c, 8, 32, 110
1, 85760, Note_on_c, 9, 35, 114
1, 85760, Note_on_c, 9, 70, 65
1, 85760, Note_on_c, 11, 41, 114
1, 85772, Note_on_c, 9, 35, 0
1, 85772, Note_on_c, 9, 70, 0
1, 85773, Note_on_c, 1, 31, 0
1, 85773, Note_on_c, 8, 31, 0
1, 85920, Note_on_c, 5, 74, 109
1, 85920, Note_on_c, 5, 79, 97
1, 85920, Note_on_c, 5, 82, 110
1, 85920, Note_on_c, 9, 44, 107
1, 85920, Note_on_c, 9, 54, 109
1, 85921, Note_on_c, 11, 41, 0
1, 85932, Note_on_c, 9, 44, 0
1, 85932, Note_on_c, 9, 54, 0
1, 85939, Note_on_c, 14, 62, 109
1, 85939, Note_on_c, 14, 67, 97
1, 85939, Note_on_c, 14, 70, 110
1, 86010, Note_on_c, 3, 77, 0
1, 86069, Note_on_c, 5, 82, 0
1, 86078, Note_on_c, 5, 74, 0
1, 86081, Note_on_c, 5, 79, 0
1, 86088, Note_on_c, 14, 70, 0
1, 86097, Note_on_c, 14, 62, 0
1, 86100, Note_on_c, 14, 67, 0
1, 86236, Note_on_c, 1, 32, 0
1, 86236, Note_on_c, 8, 32, 0
1, 86236, Note_on_c, 12, 58, 0
1, 86240, Note_on_c, 1, 33, 110
1, 86240, Note_on_c, 8, 33, 110
1, 86240, Note_on_c, 12, 55, 119
1, 86316, Note_on_c, 12, 55, 0
1, 86320, Note_on_c, 12, 57, 119
1, 86396, Note_on_c, 1, 33, 0
1, 86396, Note_on_c, 8, 33, 0
1, 86396, Note_on_c, 12, 57, 0
1, 86400, Note_on_c, 1, 34, 110
1, 86400, Note_on_c, 5, 74, 101
1, 86400, Note_on_c, 5, 77, 97
1, 86400, Note_on_c, 5, 82, 105
1, 86400, Note_on_c, 7, 82, 104
1, 86400, Note_on_c, 8, 34, 110
1, 86400, Note_on_c, 9, 35, 114
1, 86400, Note_on_c, 10, 70, 104
1, 86400, Note_on_c, 11, 41, 114
1, 86400, Note_on_c, 12, 58, 127
1, 86412, Note_on_c, 9, 35, 0
1, 86415, Note_on_c, 10, 58, 0
1, 86419, Note_on_c, 14, 62, 101
1, 86419, Note_on_c, 14, 65, 97
1, 86419, Note_on_c, 14, 70, 105
1, 86473, Note_on_c, 5, 82, 0
1, 86493, Note_on_c, 14, 70, 0
1, 86521, Note_on_c, 5, 77, 0
1, 86523, Note_on_c, 5, 74, 0
1, 86540, Note_on_c, 14, 65, 0
1, 86542, Note_on_c, 14, 62, 0
1, 86561, Note_on_c, 11, 41, 0
1, 86720, Note_on_c, 12, 62, 105
1, 86880, Note_on_c, 5, 74, 111
1, 86880, Note_on_c, 5, 77, 107
1, 86880, Note_on_c, 5, 82, 105
1, 86880, Note_on_c, 9, 44, 107
1, 86880, Note_on_c, 9, 69, 109
1, 86880, Note_on_c, 12, 65, 89
1, 86892, Note_on_c, 9, 44, 0
1, 86892, Note_on_c, 9, 69, 0
1, 86893, Note_on_c, 1, 34, 0
1, 86893, Note_on_c, 8, 34, 0
1, 86899, Note_on_c, 14, 62, 111
1, 86899, Note_on_c, 14, 65, 107
1, 86899, Note_on_c, 14, 70, 105
1, 87037, Note_on_c, 5, 82, 0
1, 87044, Note_on_c, 5, 77, 0
1, 87048, Note_on_c, 5, 74, 0
1, 87057, Note_on_c, 14, 70, 0
1, 87064, Note_on_c, 14, 65, 0
1, 87068, Note_on_c, 14, 62, 0
1, 87155, Lyric_t, "YOU "
1, 87155, Note_on_c, 3, 76, 119
1, 87200, Note_on_c, 1, 34, 110
1, 87200, Note_on_c, 8, 34, 110
1, 87200, Note_on_c, 9, 35, 107
1, 87200, Note_on_c, 11, 41, 107
1, 87200, Note_on_c, 12, 70, 115
1, 87212, Note_on_c, 9, 35, 0
1, 87249, Note_on_c, 1, 34, 0
1, 87249, Note_on_c, 8, 34, 0
1, 87356, Note_on_c, 10, 70, 0
1, 87360, Note_on_c, 1, 34, 110
1, 87360, Note_on_c, 5, 74, 105
1, 87360, Note_on_c, 5, 77, 94
1, 87360, Note_on_c, 5, 82, 94
1, 87360, Note_on_c, 7, 81, 104
1, 87360, Note_on_c, 8, 34, 110
1, 87360, Note_on_c, 9, 35, 114
1, 87360, Note_on_c, 10, 69, 104
1, 87360, Note_on_c, 11, 41, 114
1, 87360, Note_on_c, 12, 69, 124
1, 87361, Note_on_c, 11, 41, 0
1, 87372, Note_on_c, 9, 35, 0
1, 87375, Note_on_c, 7, 82, 0
1, 87379, Note_on_c, 14, 62, 105
1, 87379, Note_on_c, 14, 65, 94
1, 87379, Note_on_c, 14, 70, 94
1, 87420, Note_on_c, 12, 70, 0
1, 87515, Note_on_c, 5, 82, 0
1, 87521, Note_on_c, 11, 41, 0
1, 87523, Note_on_c, 5, 74, 0
1, 87527, Note_on_c, 5, 77, 0
1, 87535, Note_on_c, 14, 70, 0
1, 87543, Note_on_c, 14, 62, 0
1, 87547, Note_on_c, 14, 65, 0
1, 87680, Note_on_c, 9, 70, 65
1, 87692, Note_on_c, 9, 70, 0
1, 87695, Note_on_c, 3, 76, 0
1, 87712, Lyric_t, "GO "
1, 87712, Note_on_c, 3, 77, 114
1, 87840, Note_on_c, 5, 74, 109
1, 87840, Note_on_c, 5, 77, 94
1, 87840, Note_on_c, 5, 82, 94
1, 87840, Note_on_c, 9, 44, 107
1, 87840, Note_on_c, 9, 54, 109
1, 87852, Note_on_c, 9, 44, 0
1, 87852, Note_on_c, 9, 54, 0
1, 87853, Note_on_c, 1, 34, 0
1, 87853, Note_on_c, 8, 34, 0
1, 87859, Note_on_c, 14, 62, 109
1, 87859, Note_on_c, 14, 65, 94
1, 87859, Note_on_c, 14, 70, 94
1, 87981, Note_on_c, 5, 82, 0
1, 87990, Note_on_c, 12, 58, 0
1, 87994, Note_on_c, 5, 74, 0
1, 87994, Note_on_c, 5, 77, 0
1, 88001, Note_on_c, 14, 70, 0
1, 88014, Note_on_c, 14, 62, 0
1, 88014, Note_on_c, 14, 65, 0
1, 88018, Note_on_c, 12, 65, 0
1, 88022, Note_on_c, 12, 62, 0
1, 88031, Note_on_c, 12, 69, 0
1, 88261, Note_on_c, 3, 77, 0
1, 88264, Note_on_c, 3, 76, 119
1, 88316, Note_on_c, 10, 69, 0
1, 88320, Note_on_c, 1, 34, 110
1, 88320, Note_on_c, 5, 74, 109
1, 88320, Note_on_c, 5, 77, 94
1, 88320, Note_on_c, 5, 82, 101
1, 88320, Note_on_c, 7, 79, 104
1, 88320, Note_on_c, 8, 34, 110
1, 88320, Note_on_c, 9, 35, 114
1, 88320, Note_on_c, 10, 67, 104
1, 88320, Note_on_c, 11, 41, 114
1, 88332, Note_on_c, 9, 35, 0
1, 88335, Note_on_c, 7, 81, 0
1, 88338, Note_on_c, 12, 58, 127
1, 88339, Note_on_c, 14, 62, 109
1, 88339, Note_on_c, 14, 65, 94
1, 88339, Note_on_c, 14, 70, 101
1, 88475, Note_on_c, 5, 82, 0
1, 88481, Note_on_c, 11, 41, 0
1, 88491, Note_on_c, 5, 74, 0
1, 88491, Note_on_c, 5, 77, 0
1, 88495, Note_on_c, 14, 70, 0
1, 88511, Note_on_c, 14, 62, 0
1, 88511, Note_on_c, 14, 65, 0
1, 88608, Note_on_c, 12, 62, 114
1, 88744, Lyric_t, "BACK "
1, 88744, Note_on_c, 3, 79, 119
1, 88773, Note_on_c, 3, 76, 0
1, 88800, Note_on_c, 5, 74, 108
1, 88800, Note_on_c, 5, 77, 97
1, 88800, Note_on_c, 5, 82, 98
1, 88800, Note_on_c, 9, 44, 107
1, 88800, Note_on_c, 9, 69, 109
1, 88812, Note_on_c, 9, 44, 0
1, 88812, Note_on_c, 9, 69, 0
1, 88813, Note_on_c, 1, 34, 0
1, 88813, Note_on_c, 8, 34, 0
1, 88819, Note_on_c, 14, 62, 108
1, 88819, Note_on_c, 14, 65, 97
1, 88819, Note_on_c, 14, 70, 98
1, 88946, Note_on_c, 5, 82, 0
1, 88958, Note_on_c, 5, 74, 0
1, 88963, Note_on_c, 5, 77, 0
1, 88966, Note_on_c, 14, 70, 0
1, 88978, Note_on_c, 14, 62, 0
1, 88983, Note_on_c, 14, 65, 0
1, 89100, Note_on_c, 3, 79, 0
1, 89104, Lyric_t, "TO "
1, 89104, Note_on_c, 3, 77, 127
1, 89120, Note_on_c, 1, 34, 110
1, 89120, Note_on_c, 8, 34, 110
1, 89120, Note_on_c, 9, 35, 114
1, 89120, Note_on_c, 11, 41, 114
1, 89120, Note_on_c, 12, 67, 115
1, 89132, Note_on_c, 9, 35, 0
1, 89271, Note_on_c, 12, 67, 0
1, 89275, Note_on_c, 12, 65, 105
1, 89276, Note_on_c, 10, 67, 0
1, 89280, Note_on_c, 5, 74, 105
1, 89280, Note_on_c, 5, 77, 89
1, 89280, Note_on_c, 5, 82, 94
1, 89280, Note_on_c, 7, 77, 104
1, 89280, Note_on_c, 10, 65, 104
1, 89281, Note_on_c, 11, 41, 0
1, 89295, Note_on_c, 7, 79, 0
1, 89299, Note_on_c, 14, 62, 105
1, 89299, Note_on_c, 14, 65, 89
1, 89299, Note_on_c, 14, 70, 94
1, 89426, Note_on_c, 5, 82, 0
1, 89432, Note_on_c, 3, 77, 0
1, 89445, Note_on_c, 14, 70, 0
1, 89448, Note_on_c, 5, 74, 0
1, 89448, Note_on_c, 5, 77, 0
1, 89468, Note_on_c, 14, 62, 0
1, 89468, Note_on_c, 14, 65, 0
1, 89522, Lyric_t, "HER"
1, 89522, Lyric_t, "\015"
1, 89522, Note_on_c, 3, 77, 114
1, 89547, Note_on_c, 1, 34, 0
1, 89547, Note_on_c, 8, 34, 0
1, 89600, Note_on_c, 1, 34, 110
1, 89600, Note_on_c, 8, 34, 110
1, 89600, Note_on_c, 9, 35, 114
1, 89600, Note_on_c, 9, 70, 65
1, 89600, Note_on_c, 11, 41, 114
1, 89612, Note_on_c, 9, 35, 0
1, 89612, Note_on_c, 9, 70, 0
1, 89760, Note_on_c, 5, 74, 109
1, 89760, Note_on_c, 5, 77, 97
1, 89760, Note_on_c, 5, 82, 110
1, 89760, Note_on_c, 9, 44, 107
1, 89760, Note_on_c, 9, 54, 109
1, 89761, Note_on_c, 11, 41, 0
1, 89772, Note_on_c, 9, 44, 0
1, 89772, Note_on_c, 9, 54, 0
1, 89779, Note_on_c, 14, 62, 109
1, 89779, Note_on_c, 14, 65, 97
1, 89779, Note_on_c, 14, 70, 110
1, 89909, Note_on_c, 5, 82, 0
1, 89918, Note_on_c, 5, 74, 0
1, 89921, Note_on_c, 5, 77, 0
1, 89928, Note_on_c, 14, 70, 0
1, 89937, Note_on_c, 14, 62, 0
1, 89940, Note_on_c, 14, 65, 0
1, 90027, Note_on_c, 1, 34, 0
1, 90027, Note_on_c, 8, 34, 0
1, 90058, Note_on_c, 12, 58, 0
1, 90063, Note_on_c, 12, 65, 0
1, 90071, Note_on_c, 12, 62, 0
1, 90080, Note_on_c, 1, 34, 110
1, 90080, Note_on_c, 8, 34, 110
1, 90081, Note_on_c, 3, 77, 0
1, 90129, Note_on_c, 1, 34, 0
1, 90129, Note_on_c, 8, 34, 0
1, 90156, Note_on_c, 12, 57, 105
1, 90217, Note_on_c, 12, 61, 127
1, 90240, Lyric_t, "AND I "
1, 90240, Note_on_c, 1, 33, 110
1, 90240, Note_on_c, 3, 76, 114
1, 90240, Note_on_c, 5, 73, 101
1, 90240, Note_on_c, 5, 76, 97
1, 90240, Note_on_c, 5, 81, 105
1, 90240, Note_on_c, 8, 33, 110
1, 90240, Note_on_c, 9, 35, 114
1, 90240, Note_on_c, 10, 64, 104
1, 90240, Note_on_c, 11, 41, 114
1, 90252, Note_on_c, 9, 35, 0
1, 90255, Note_on_c, 7, 77, 0
1, 90255, Note_on_c, 10, 65, 0
1, 90259, Note_on_c, 14, 61, 101
1, 90259, Note_on_c, 14, 64, 97
1, 90259, Note_on_c, 14, 69, 105
1, 90274, Note_on_c, 12, 64, 119
1, 90313, Note_on_c, 5, 81, 0
1, 90333, Note_on_c, 14, 69, 0
1, 90361, Note_on_c, 5, 76, 0
1, 90363, Note_on_c, 5, 73, 0
1, 90380, Note_on_c, 14, 64, 0
1, 90382, Note_on_c, 14, 61, 0
1, 90401, Note_on_c, 11, 41, 0
1, 90720, Note_on_c, 5, 73, 111
1, 90720, Note_on_c, 5, 76, 107
1, 90720, Note_on_c, 5, 81, 105
1, 90720, Note_on_c, 9, 44, 107
1, 90720, Note_on_c, 9, 69, 109
1, 90732, Note_on_c, 9, 44, 0
1, 90732, Note_on_c, 9, 69, 0
1, 90733, Note_on_c, 1, 33, 0
1, 90733, Note_on_c, 8, 33, 0
1, 90739, Note_on_c, 14, 61, 111
1, 90739, Note_on_c, 14, 64, 107
1, 90739, Note_on_c, 14, 69, 105
1, 90877, Note_on_c, 5, 81, 0
1, 90884, Note_on_c, 5, 76, 0
1, 90888, Note_on_c, 5, 73, 0
1, 90897, Note_on_c, 14, 69, 0
1, 90904, Note_on_c, 14, 64, 0
1, 90908, Note_on_c, 14, 61, 0
1, 90989, Note_on_c, 12, 61, 0
1, 91040, Note_on_c, 1, 33, 110
1, 91040, Note_on_c, 8, 33, 110
1, 91040, Note_on_c, 9, 35, 107
1, 91040, Note_on_c, 11, 41, 107
1, 91052, Note_on_c, 9, 35, 0
1, 91063, Note_on_c, 12, 64, 0
1, 91083, Note_on_c, 12, 57, 0
1, 91089, Note_on_c, 1, 33, 0
1, 91089, Note_on_c, 8, 33, 0
1, 91116, Note_on_c, 12, 57, 105
1, 91177, Note_on_c, 12, 61, 127
1, 91196, Note_on_c, 3, 76, 0
1, 91200, Lyric_t, "GO "
1, 91200, Note_on_c, 1, 33, 110
1, 91200, Note_on_c, 3, 74, 114
1, 91200, Note_on_c, 5, 73, 105
1, 91200, Note_on_c, 5, 76, 94
1, 91200, Note_on_c, 5, 81, 94
1, 91200, Note_on_c, 8, 33, 110
1, 91200, Note_on_c, 9, 35, 114
1, 91200, Note_on_c, 11, 41, 114
1, 91201, Note_on_c, 11, 41, 0
1, 91212, Note_on_c, 9, 35, 0
1, 91219, Note_on_c, 14, 61, 105
1, 91219, Note_on_c, 14, 64, 94
1, 91219, Note_on_c, 14, 69, 94
1, 91234, Note_on_c, 12, 64, 119
1, 91355, Note_on_c, 5, 81, 0
1, 91361, Note_on_c, 11, 41, 0
1, 91363, Note_on_c, 5, 73, 0
1, 91367, Note_on_c, 5, 76, 0
1, 91375, Note_on_c, 14, 69, 0
1, 91383, Note_on_c, 14, 61, 0
1, 91387, Note_on_c, 14, 64, 0
1, 91520, Note_on_c, 9, 70, 65
1, 91532, Note_on_c, 9, 70, 0
1, 91680, Note_on_c, 5, 73, 109
1, 91680, Note_on_c, 5, 76, 94
1, 91680, Note_on_c, 5, 81, 94
1, 91680, Note_on_c, 9, 44, 107
1, 91680, Note_on_c, 9, 54, 109
1, 91692, Note_on_c, 9, 44, 0
1, 91692, Note_on_c, 9, 54, 0
1, 91693, Note_on_c, 1, 33, 0
1, 91693, Note_on_c, 8, 33, 0
1, 91699, Note_on_c, 14, 61, 109
1, 91699, Note_on_c, 14, 64, 94
1, 91699, Note_on_c, 14, 69, 94
1, 91821, Note_on_c, 5, 81, 0
1, 91834, Note_on_c, 5, 73, 0
1, 91834, Note_on_c, 5, 76, 0
1, 91841, Note_on_c, 14, 69, 0
1, 91854, Note_on_c, 14, 61, 0
1, 91854, Note_on_c, 14, 64, 0
1, 91949, Note_on_c, 12, 61, 0
1, 92023, Note_on_c, 12, 64, 0
1, 92043, Note_on_c, 12, 57, 0
1, 92076, Note_on_c, 12, 57, 101
1, 92104, Note_on_c, 12, 61, 127
1, 92156, Note_on_c, 3, 74, 0
1, 92160, Lyric_t, "BACK "
1, 92160, Note_on_c, 1, 33, 110
1, 92160, Note_on_c, 3, 73, 114
1, 92160, Note_on_c, 5, 73, 109
1, 92160, Note_on_c, 5, 76, 94
1, 92160, Note_on_c, 5, 81, 101
1, 92160, Note_on_c, 8, 33, 110
1, 92160, Note_on_c, 9, 35, 114
1, 92160, Note_on_c, 10, 65, 104
1, 92160, Note_on_c, 11, 41, 114
1, 92172, Note_on_c, 9, 35, 0
1, 92174, Note_on_c, 12, 65, 114
1, 92175, Note_on_c, 10, 64, 0
1, 92179, Note_on_c, 14, 61, 109
1, 92179, Note_on_c, 14, 64, 94
1, 92179, Note_on_c, 14, 69, 101
1, 92315, Note_on_c, 5, 81, 0
1, 92321, Note_on_c, 11, 41, 0
1, 92331, Note_on_c, 5, 73, 0
1, 92331, Note_on_c, 5, 76, 0
1, 92335, Note_on_c, 14, 69, 0
1, 92351, Note_on_c, 14, 61, 0
1, 92351, Note_on_c, 14, 64, 0
1, 92640, Note_on_c, 5, 73, 108
1, 92640, Note_on_c, 5, 76, 97
1, 92640, Note_on_c, 5, 81, 98
1, 92640, Note_on_c, 9, 44, 107
1, 92640, Note_on_c, 9, 69, 109
1, 92652, Note_on_c, 9, 44, 0
1, 92652, Note_on_c, 9, 69, 0
1, 92653, Note_on_c, 1, 33, 0
1, 92653, Note_on_c, 8, 33, 0
1, 92659, Note_on_c, 14, 61, 108
1, 92659, Note_on_c, 14, 64, 97
1, 92659, Note_on_c, 14, 69, 98
1, 92786, Note_on_c, 5, 81, 0
1, 92798, Note_on_c, 5, 73, 0
1, 92803, Note_on_c, 5, 76, 0
1, 92806, Note_on_c, 14, 69, 0
1, 92818, Note_on_c, 14, 61, 0
1, 92823, Note_on_c, 14, 64, 0
1, 92830, Note_on_c, 12, 61, 0
1, 92876, Note_on_c, 12, 57, 0
1, 92960, Note_on_c, 1, 33, 110
1, 92960, Note_on_c, 8, 33, 110
1, 92960, Note_on_c, 9, 35, 114
1, 92960, Note_on_c, 11, 41, 114
1, 92964, Note_on_c, 12, 57, 101
1, 92972, Note_on_c, 9, 35, 0
1, 92973, Note_on_c, 12, 65, 0
1, 93017, Note_on_c, 12, 61, 127
1, 93094, Note_on_c, 12, 64, 114
1, 93116, Note_on_c, 3, 73, 0
1, 93116, Note_on_c, 10, 65, 0
1, 93120, Lyric_t, "TO"
1, 93120, Lyric_t, "\015"
1, 93120, Note_on_c, 3, 69, 114
1, 93120, Note_on_c, 5, 73, 105
1, 93120, Note_on_c, 5, 76, 89
1, 93120, Note_on_c, 5, 81, 94
1, 93120, Note_on_c, 10, 64, 104
1, 93121, Note_on_c, 11, 41, 0
1, 93139, Note_on_c, 14, 61, 105
1, 93139, Note_on_c, 14, 64, 89
1, 93139, Note_on_c, 14, 69, 94
1, 93266, Note_on_c, 5, 81, 0
1, 93285, Note_on_c, 14, 69, 0
1, 93288, Note_on_c, 5, 73, 0
1, 93288, Note_on_c, 5, 76, 0
1, 93308, Note_on_c, 14, 61, 0
1, 93308, Note_on_c, 14, 64, 0
1, 93387, Note_on_c, 1, 33, 0
1, 93387, Note_on_c, 8, 33, 0
1, 93440, Note_on_c, 1, 33, 110
1, 93440, Note_on_c, 8, 33, 110
1, 93440, Note_on_c, 9, 35, 114
1, 93440, Note_on_c, 9, 70, 65
1, 93440, Note_on_c, 11, 41, 114
1, 93452, Note_on_c, 9, 35, 0
1, 93452, Note_on_c, 9, 70, 0
1, 93600, Note_on_c, 5, 73, 109
1, 93600, Note_on_c, 5, 76, 97
1, 93600, Note_on_c, 5, 81, 110
1, 93600, Note_on_c, 9, 44, 107
1, 93600, Note_on_c, 9, 54, 109
1, 93601, Note_on_c, 11, 41, 0
1, 93612, Note_on_c, 9, 44, 0
1, 93612, Note_on_c, 9, 54, 0
1, 93619, Note_on_c, 14, 61, 109
1, 93619, Note_on_c, 14, 64, 97
1, 93619, Note_on_c, 14, 69, 110
1, 93673, Note_on_c, 12, 61, 0
1, 93704, Note_on_c, 12, 64, 0
1, 93712, Note_on_c, 12, 57, 0
1, 93749, Note_on_c, 5, 81, 0
1, 93758, Note_on_c, 5, 73, 0
1, 93761, Note_on_c, 5, 76, 0
1, 93768, Note_on_c, 14, 69, 0
1, 93777, Note_on_c, 14, 61, 0
1, 93780, Note_on_c, 14, 64, 0
1, 93867, Note_on_c, 1, 33, 0
1, 93867, Note_on_c, 8, 33, 0
1, 93920, Note_on_c, 1, 33, 110
1, 93920, Note_on_c, 8, 33, 110
1, 93924, Note_on_c, 12, 57, 101
1, 93969, Note_on_c, 1, 33, 0
1, 93969, Note_on_c, 8, 33, 0
1, 93977, Note_on_c, 12, 61, 127
1, 94054, Note_on_c, 12, 64, 114
1, 94076, Note_on_c, 3, 69, 0
1, 94076, Note_on_c, 10, 64, 0
1, 94080, Note_on_c, 9, 35, 114
1, 94080, Note_on_c, 11, 41, 114
1, 94092, Note_on_c, 9, 35, 0
1, 94241, Note_on_c, 11, 41, 0
1, 94560, Lyric_t, "I "
1, 94560, Note_on_c, 3, 76, 114
1, 94560, Note_on_c, 9, 44, 107
1, 94560, Note_on_c, 9, 69, 109
1, 94572, Note_on_c, 9, 44, 0
1, 94572, Note_on_c, 9, 69, 0
1, 94880, Note_on_c, 9, 35, 107
1, 94880, Note_on_c, 11, 41, 107
1, 94892, Note_on_c, 9, 35, 0
1, 95036, Note_on_c, 3, 76, 0
1, 95040, Lyric_t, "GO "
1, 95040, Note_on_c, 3, 74, 114
1, 95040, Note_on_c, 9, 35, 114
1, 95040, Note_on_c, 11, 41, 114
1, 95041, Note_on_c, 11, 41, 0
1, 95052, Note_on_c, 9, 35, 0
1, 95201, Note_on_c, 11, 41, 0
1, 95360, Note_on_c, 9, 70, 65
1, 95372, Note_on_c, 9, 70, 0
1, 95520, Note_on_c, 9, 44, 107
1, 95520, Note_on_c, 9, 54, 109
1, 95532, Note_on_c, 9, 44, 0
1, 95532, Note_on_c, 9, 54, 0
1, 95996, Note_on_c, 3, 74, 0
1, 96000, Lyric_t, "BACK "
1, 96000, Note_on_c, 3, 73, 114
1, 96000, Note_on_c, 9, 35, 114
1, 96000, Note_on_c, 11, 41, 114
1, 96012, Note_on_c, 9, 35, 0
1, 96073, Note_on_c, 12, 61, 0
1, 96104, Note_on_c, 12, 64, 0
1, 96112, Note_on_c, 12, 57, 0
1, 96161, Note_on_c, 11, 41, 0
1, 96480, Note_on_c, 9, 44, 107
1, 96480, Note_on_c, 9, 69, 109
1, 96492, Note_on_c, 9, 44, 0
1, 96492, Note_on_c, 9, 69, 0
1, 96800, Note_on_c, 9, 35, 114
1, 96800, Note_on_c, 11, 41, 114
1, 96812, Note_on_c, 9, 35, 0
1, 96956, Note_on_c, 3, 73, 0
1, 96960, Lyric_t, "TO "
1, 96960, Note_on_c, 3, 69, 114
1, 96961, Note_on_c, 11, 41, 0
1, 97280, Note_on_c, 9, 35, 114
1, 97280, Note_on_c, 9, 70, 65
1, 97280, Note_on_c, 11, 41, 114
1, 97292, Note_on_c, 9, 35, 0
1, 97292, Note_on_c, 9, 70, 0
1, 97440, Note_on_c, 9, 44, 107
1, 97440, Note_on_c, 9, 54, 109
1, 97441, Note_on_c, 11, 41, 0
1, 97452, Note_on_c, 9, 44, 0
1, 97452, Note_on_c, 9, 54, 0
1, 97916, Note_on_c, 3, 69, 0
1, 97920, Note_on_c, 1, 38, 99
1, 97920, Note_on_c, 5, 74, 101
1, 97920, Note_on_c, 5, 77, 97
1, 97920, Note_on_c, 5, 81, 105
1, 97920, Note_on_c, 8, 38, 99
1, 97920, Note_on_c, 9, 35, 114
1, 97920, Note_on_c, 11, 41, 114
1, 97920, Note_on_c, 12, 50, 101
1, 97932, Note_on_c, 9, 35, 0
1, 97935, Lyric_t, "US"
1, 97935, Lyric_t, "\015"
1, 97935, Note_on_c, 3, 74, 119
1, 97945, Note_on_c, 14, 62, 101
1, 97945, Note_on_c, 14, 65, 97
1, 97945, Note_on_c, 14, 69, 105
1, 97993, Note_on_c, 5, 81, 0
1, 98018, Note_on_c, 14, 69, 0
1, 98041, Note_on_c, 5, 77, 0
1, 98043, Note_on_c, 5, 74, 0
1, 98066, Note_on_c, 14, 65, 0
1, 98068, Note_on_c, 14, 62, 0
1, 98081, Note_on_c, 11, 41, 0
1, 98400, Note_on_c, 5, 74, 111
1, 98400, Note_on_c, 5, 77, 107
1, 98400, Note_on_c, 5, 81, 105
1, 98400, Note_on_c, 9, 44, 107
1, 98400, Note_on_c, 9, 69, 109
1, 98412, Note_on_c, 9, 44, 0
1, 98412, Note_on_c, 9, 69, 0
1, 98425, Note_on_c, 14, 62, 111
1, 98425, Note_on_c, 14, 65, 107
1, 98425, Note_on_c, 14, 69, 105
1, 98557, Note_on_c, 5, 81, 0
1, 98564, Note_on_c, 5, 77, 0
1, 98568, Note_on_c, 5, 74, 0
1, 98582, Note_on_c, 14, 69, 0
1, 98589, Note_on_c, 14, 65, 0
1, 98593, Note_on_c, 14, 62, 0
1, 98641, Note_on_c, 1, 38, 0
1, 98641, Note_on_c, 8, 38, 0
1, 98720, Note_on_c, 1, 38, 99
1, 98720, Note_on_c, 8, 38, 99
1, 98720, Note_on_c, 9, 35, 107
1, 98720, Note_on_c, 11, 41, 107
1, 98732, Note_on_c, 9, 35, 0
1, 98880, Note_on_c, 5, 74, 105
1, 98880, Note_on_c, 5, 77, 94
1, 98880, Note_on_c, 5, 81, 94
1, 98880, Note_on_c, 9, 35, 114
1, 98880, Note_on_c, 11, 41, 114
1, 98881, Note_on_c, 11, 41, 0
1, 98892, Note_on_c, 9, 35, 0
1, 98905, Note_on_c, 14, 62, 105
1, 98905, Note_on_c, 14, 65, 94
1, 98905, Note_on_c, 14, 69, 94
1, 99035, Note_on_c, 5, 81, 0
1, 99041, Note_on_c, 11, 41, 0
1, 99043, Note_on_c, 5, 74, 0
1, 99047, Note_on_c, 5, 77, 0
1, 99060, Note_on_c, 14, 69, 0
1, 99068, Note_on_c, 14, 62, 0
1, 99072, Note_on_c, 14, 65, 0
1, 99073, Note_on_c, 3, 74, 0
1, 99200, Note_on_c, 9, 70, 65
1, 99212, Note_on_c, 9, 70, 0
1, 99356, Note_on_c, 12, 50, 0
1, 99360, Note_on_c, 5, 74, 109
1, 99360, Note_on_c, 5, 77, 94
1, 99360, Note_on_c, 5, 81, 94
1, 99360, Note_on_c, 9, 44, 107
1, 99360, Note_on_c, 9, 54, 109
1, 99360, Note_on_c, 12, 52, 101
1, 99372, Note_on_c, 9, 44, 0
1, 99372, Note_on_c, 9, 54, 0
1, 99385, Note_on_c, 14, 62, 109
1, 99385, Note_on_c, 14, 65, 94
1, 99385, Note_on_c, 14, 69, 94
1, 99501, Note_on_c, 5, 81, 0
1, 99514, Note_on_c, 5, 74, 0
1, 99514, Note_on_c, 5, 77, 0
1, 99521, Note_on_c, 1, 38, 0
1, 99521, Note_on_c, 8, 38, 0
1, 99526, Note_on_c, 14, 69, 0
1, 99539, Note_on_c, 14, 62, 0
1, 99539, Note_on_c, 14, 65, 0
1, 99680, Note_on_c, 1, 38, 99
1, 99680, Note_on_c, 8, 38, 99
1, 99836, Note_on_c, 12, 52, 0
1, 99840, Note_on_c, 5, 74, 109
1, 99840, Note_on_c, 5, 77, 94
1, 99840, Note_on_c, 5, 81, 101
1, 99840, Note_on_c, 9, 35, 114
1, 99840, Note_on_c, 11, 41, 114
1, 99840, Note_on_c, 12, 53, 101
1, 99852, Note_on_c, 9, 35, 0
1, 99865, Note_on_c, 14, 62, 109
1, 99865, Note_on_c, 14, 65, 94
1, 99865, Note_on_c, 14, 69, 101
1, 99995, Note_on_c, 5, 81, 0
1, 100001, Note_on_c, 11, 41, 0
1, 100011, Note_on_c, 5, 74, 0
1, 100011, Note_on_c, 5, 77, 0
1, 100020, Note_on_c, 14, 69, 0
1, 100036, Note_on_c, 14, 62, 0
1, 100036, Note_on_c, 14, 65, 0
1, 100279, Lyric_t, "I "
1, 100279, Note_on_c, 3, 74, 119
1, 100320, Note_on_c, 5, 74, 108
1, 100320, Note_on_c, 5, 77, 97
1, 100320, Note_on_c, 5, 81, 98
1, 100320, Note_on_c, 9, 44, 107
1, 100320, Note_on_c, 9, 69, 109
1, 100332, Note_on_c, 9, 44, 0
1, 100332, Note_on_c, 9, 69, 0
1, 100345, Note_on_c, 14, 62, 108
1, 100345, Note_on_c, 14, 65, 97
1, 100345, Note_on_c, 14, 69, 98
1, 100466, Note_on_c, 5, 81, 0
1, 100478, Note_on_c, 5, 74, 0
1, 100481, Note_on_c, 1, 38, 0
1, 100481, Note_on_c, 8, 38, 0
1, 100483, Note_on_c, 5, 77, 0
1, 100491, Note_on_c, 14, 69, 0
1, 100503, Note_on_c, 14, 62, 0
1, 100508, Note_on_c, 14, 65, 0
1, 100640, Note_on_c, 1, 38, 99
1, 100640, Note_on_c, 8, 38, 99
1, 100640, Note_on_c, 9, 35, 114
1, 100640, Note_on_c, 11, 41, 114
1, 100652, Note_on_c, 9, 35, 0
1, 100657, Note_on_c, 3, 74, 0
1, 100796, Note_on_c, 12, 53, 0
1, 100800, Note_on_c, 5, 74, 105
1, 100800, Note_on_c, 5, 77, 89
1, 100800, Note_on_c, 5, 81, 94
1, 100800, Note_on_c, 12, 55, 101
1, 100801, Note_on_c, 11, 41, 0
1, 100822, Lyric_t, "LOVE "
1, 100822, Note_on_c, 3, 74, 124
1, 100825, Note_on_c, 14, 62, 105
1, 100825, Note_on_c, 14, 65, 89
1, 100825, Note_on_c, 14, 69, 94
1, 100946, Note_on_c, 5, 81, 0
1, 100968, Note_on_c, 5, 74, 0
1, 100968, Note_on_c, 5, 77, 0
1, 100971, Note_on_c, 14, 69, 0
1, 100993, Note_on_c, 14, 62, 0
1, 100993, Note_on_c, 14, 65, 0
1, 101116, Note_on_c, 1, 38, 0
1, 101116, Note_on_c, 8, 38, 0
1, 101116, Note_on_c, 12, 55, 0
1, 101120, Note_on_c, 1, 36, 99
1, 101120, Note_on_c, 8, 36, 99
1, 101120, Note_on_c, 9, 35, 114
1, 101120, Note_on_c, 9, 70, 65
1, 101120, Note_on_c, 11, 41, 114
1, 101120, Note_on_c, 12, 57, 101
1, 101132, Note_on_c, 3, 74, 0
1, 101132, Note_on_c, 9, 35, 0
1, 101132, Note_on_c, 9, 70, 0
1, 101270, Lyric_t, "YOU "
1, 101270, Note_on_c, 3, 74, 124
1, 101280, Note_on_c, 5, 74, 109
1, 101280, Note_on_c, 5, 77, 97
1, 101280, Note_on_c, 5, 81, 110
1, 101280, Note_on_c, 9, 44, 107
1, 101280, Note_on_c, 9, 54, 109
1, 101281, Note_on_c, 11, 41, 0
1, 101292, Note_on_c, 9, 44, 0
1, 101292, Note_on_c, 9, 54, 0
1, 101305, Note_on_c, 14, 62, 109
1, 101305, Note_on_c, 14, 65, 97
1, 101305, Note_on_c, 14, 69, 110
1, 101429, Note_on_c, 5, 81, 0
1, 101438, Note_on_c, 5, 74, 0
1, 101441, Note_on_c, 5, 77, 0
1, 101454, Note_on_c, 14, 69, 0
1, 101463, Note_on_c, 14, 62, 0
1, 101466, Note_on_c, 14, 65, 0
1, 101505, Note_on_c, 3, 74, 0
1, 101596, Note_on_c, 1, 36, 0
1, 101596, Note_on_c, 8, 36, 0
1, 101600, Note_on_c, 1, 33, 99
1, 101600, Note_on_c, 8, 33, 99
1, 101606, Lyric_t, "MU"
1, 101606, Note_on_c, 3, 69, 105
1, 101727, Note_on_c, 3, 69, 0
1, 101756, Note_on_c, 1, 33, 0
1, 101756, Note_on_c, 8, 33, 0
1, 101756, Note_on_c, 12, 57, 0
1, 101760, Note_on_c, 1, 31, 99
1, 101760, Note_on_c, 5, 74, 101
1, 101760, Note_on_c, 5, 79, 97
1, 101760, Note_on_c, 5, 82, 105
1, 101760, Note_on_c, 8, 31, 99
1, 101760, Note_on_c, 9, 35, 114
1, 101760, Note_on_c, 11, 41, 114
1, 101760, Note_on_c, 12, 55, 101
1, 101772, Note_on_c, 9, 35, 0
1, 101778, Lyric_t, "CH"
1, 101778, Lyric_t, "\015"
1, 101778, Note_on_c, 3, 74, 119
1, 101785, Note_on_c, 14, 62, 101
1, 101785, Note_on_c, 14, 67, 97
1, 101785, Note_on_c, 14, 70, 105
1, 101833, Note_on_c, 5, 82, 0
1, 101858, Note_on_c, 14, 70, 0
1, 101881, Note_on_c, 5, 79, 0
1, 101883, Note_on_c, 5, 74, 0
1, 101906, Note_on_c, 14, 67, 0
1, 101908, Note_on_c, 14, 62, 0
1, 101921, Note_on_c, 11, 41, 0
1, 102240, Note_on_c, 5, 74, 111
1, 102240, Note_on_c, 5, 79, 107
1, 102240, Note_on_c, 5, 82, 105
1, 102240, Note_on_c, 9, 44, 107
1, 102240, Note_on_c, 9, 69, 109
1, 102252, Note_on_c, 9, 44, 0
1, 102252, Note_on_c, 9, 69, 0
1, 102265, Note_on_c, 14, 62, 111
1, 102265, Note_on_c, 14, 67, 107
1, 102265, Note_on_c, 14, 70, 105
1, 102397, Note_on_c, 5, 82, 0
1, 102401, Note_on_c, 1, 31, 0
1, 102401, Note_on_c, 8, 31, 0
1, 102404, Note_on_c, 5, 79, 0
1, 102408, Note_on_c, 5, 74, 0
1, 102422, Note_on_c, 14, 70, 0
1, 102429, Note_on_c, 14, 67, 0
1, 102433, Note_on_c, 14, 62, 0
1, 102560, Note_on_c, 1, 31, 99
1, 102560, Note_on_c, 8, 31, 99
1, 102560, Note_on_c, 9, 35, 107
1, 102560, Note_on_c, 11, 41, 107
1, 102572, Note_on_c, 9, 35, 0
1, 102720, Note_on_c, 5, 74, 105
1, 102720, Note_on_c, 5, 79, 94
1, 102720, Note_on_c, 5, 82, 94
1, 102720, Note_on_c, 9, 35, 114
1, 102720, Note_on_c, 11, 41, 114
1, 102721, Note_on_c, 11, 41, 0
1, 102732, Note_on_c, 9, 35, 0
1, 102745, Note_on_c, 14, 62, 105
1, 102745, Note_on_c, 14, 67, 94
1, 102745, Note_on_c, 14, 70, 94
1, 102875, Note_on_c, 5, 82, 0
1, 102881, Note_on_c, 11, 41, 0
1, 102883, Note_on_c, 5, 74, 0
1, 102887, Note_on_c, 5, 79, 0
1, 102900, Note_on_c, 14, 70, 0
1, 102908, Note_on_c, 14, 62, 0
1, 102912, Note_on_c, 14, 67, 0
1, 102913, Note_on_c, 3, 74, 0
1, 103040, Note_on_c, 9, 70, 65
1, 103052, Note_on_c, 9, 70, 0
1, 103196, Note_on_c, 12, 55, 0
1, 103200, Note_on_c, 5, 74, 109
1, 103200, Note_on_c, 5, 79, 94
1, 103200, Note_on_c, 5, 82, 94
1, 103200, Note_on_c, 9, 44, 107
1, 103200, Note_on_c, 9, 54, 109
1, 103200, Note_on_c, 12, 58, 101
1, 103212, Note_on_c, 9, 44, 0
1, 103212, Note_on_c, 9, 54, 0
1, 103225, Note_on_c, 14, 62, 109
1, 103225, Note_on_c, 14, 67, 94
1, 103225, Note_on_c, 14, 70, 94
1, 103341, Note_on_c, 5, 82, 0
1, 103354, Note_on_c, 5, 74, 0
1, 103354, Note_on_c, 5, 79, 0
1, 103361, Note_on_c, 1, 31, 0
1, 103361, Note_on_c, 8, 31, 0
1, 103366, Note_on_c, 14, 70, 0
1, 103379, Note_on_c, 14, 62, 0
1, 103379, Note_on_c, 14, 67, 0
1, 103520, Note_on_c, 1, 31, 99
1, 103520, Note_on_c, 8, 31, 99
1, 103680, Note_on_c, 5, 74, 109
1, 103680, Note_on_c, 5, 79, 94
1, 103680, Note_on_c, 5, 82, 101
1, 103680, Note_on_c, 9, 35, 114
1, 103680, Note_on_c, 11, 41, 114
1, 103692, Note_on_c, 9, 35, 0
1, 103705, Note_on_c, 14, 62, 109
1, 103705, Note_on_c, 14, 67, 94
1, 103705, Note_on_c, 14, 70, 101
1, 103835, Note_on_c, 5, 82, 0
1, 103841, Note_on_c, 11, 41, 0
1, 103851, Note_on_c, 5, 74, 0
1, 103851, Note_on_c, 5, 79, 0
1, 103860, Note_on_c, 14, 70, 0
1, 103876, Note_on_c, 14, 62, 0
1, 103876, Note_on_c, 14, 67, 0
1, 104138, Lyric_t, "IT'S "
1, 104138, Note_on_c, 3, 74, 119
1, 104156, Note_on_c, 12, 58, 0
1, 104160, Note_on_c, 4, 65, 93
1, 104160, Note_on_c, 5, 74, 108
1, 104160, Note_on_c, 5, 79, 97
1, 104160, Note_on_c, 5, 82, 98
1, 104160, Note_on_c, 9, 44, 107
1, 104160, Note_on_c, 9, 69, 109
1, 104160, Note_on_c, 12, 57, 101
1, 104172, Note_on_c, 9, 44, 0
1, 104172, Note_on_c, 9, 69, 0
1, 104185, Note_on_c, 14, 62, 108
1, 104185, Note_on_c, 14, 67, 97
1, 104185, Note_on_c, 14, 70, 98
1, 104306, Note_on_c, 5, 82, 0
1, 104318, Note_on_c, 5, 74, 0
1, 104321, Note_on_c, 1, 31, 0
1, 104321, Note_on_c, 8, 31, 0
1, 104323, Note_on_c, 5, 79, 0
1, 104331, Note_on_c, 14, 70, 0
1, 104343, Note_on_c, 14, 62, 0
1, 104348, Note_on_c, 14, 67, 0
1, 104408, Note_on_c, 3, 74, 0
1, 104480, Note_on_c, 1, 31, 99
1, 104480, Note_on_c, 8, 31, 99
1, 104480, Note_on_c, 9, 35, 114
1, 104480, Note_on_c, 11, 41, 114
1, 104492, Note_on_c, 9, 35, 0
1, 104571, Note_on_c, 4, 65, 0
1, 104615, Lyric_t, "NOT "
1, 104615, Note_on_c, 3, 74, 119
1, 104636, Note_on_c, 12, 57, 0
1, 104640, Note_on_c, 4, 65, 93
1, 104640, Note_on_c, 5, 74, 105
1, 104640, Note_on_c, 5, 79, 89
1, 104640, Note_on_c, 5, 82, 94
1, 104640, Note_on_c, 12, 55, 101
1, 104641, Note_on_c, 11, 41, 0
1, 104665, Note_on_c, 14, 62, 105
1, 104665, Note_on_c, 14, 67, 89
1, 104665, Note_on_c, 14, 70, 94
1, 104786, Note_on_c, 5, 82, 0
1, 104808, Note_on_c, 5, 74, 0
1, 104808, Note_on_c, 5, 79, 0
1, 104811, Note_on_c, 14, 70, 0
1, 104833, Note_on_c, 14, 62, 0
1, 104833, Note_on_c, 14, 67, 0
1, 104956, Note_on_c, 1, 31, 0
1, 104956, Note_on_c, 8, 31, 0
1, 104960, Note_on_c, 1, 32, 99
1, 104960, Note_on_c, 8, 32, 99
1, 104960, Note_on_c, 9, 35, 114
1, 104960, Note_on_c, 9, 70, 65
1, 104960, Note_on_c, 11, 41, 114
1, 104972, Note_on_c, 9, 35, 0
1, 104972, Note_on_c, 9, 70, 0
1, 104991, Note_on_c, 3, 74, 0
1, 105051, Note_on_c, 4, 65, 0
1, 105112, Lyric_t, "E"
1, 105112, Note_on_c, 3, 74, 114
1, 105116, Note_on_c, 12, 55, 0
1, 105120, Note_on_c, 4, 65, 93
1, 105120, Note_on_c, 5, 74, 109
1, 105120, Note_on_c, 5, 79, 97
1, 105120, Note_on_c, 5, 82, 110
1, 105120, Note_on_c, 9, 44, 107
1, 105120, Note_on_c, 9, 54, 109
1, 105120, Note_on_c, 12, 57, 101
1, 105121, Note_on_c, 11, 41, 0
1, 105132, Note_on_c, 9, 44, 0
1, 105132, Note_on_c, 9, 54, 0
1, 105145, Note_on_c, 14, 62, 109
1, 105145, Note_on_c, 14, 67, 97
1, 105145, Note_on_c, 14, 70, 110
1, 105269, Note_on_c, 5, 82, 0
1, 105278, Note_on_c, 5, 74, 0
1, 105281, Note_on_c, 5, 79, 0
1, 105294, Note_on_c, 14, 70, 0
1, 105303, Note_on_c, 14, 62, 0
1, 105306, Note_on_c, 14, 67, 0
1, 105436, Note_on_c, 1, 32, 0
1, 105436, Note_on_c, 8, 32, 0
1, 105440, Note_on_c, 1, 33, 99
1, 105440, Note_on_c, 8, 33, 99
1, 105523, Note_on_c, 3, 74, 0
1, 105531, Note_on_c, 4, 65, 0
1, 105596, Note_on_c, 1, 33, 0
1, 105596, Note_on_c, 8, 33, 0
1, 105596, Note_on_c, 12, 57, 0
1, 105600, Lyric_t, "NOUGH"
1, 105600, Lyric_t, "\015"
1, 105600, Note_on_c, 1, 34, 99
1, 105600, Note_on_c, 3, 74, 119
1, 105600, Note_on_c, 4, 65, 93
1, 105600, Note_on_c, 5, 74, 101
1, 105600, Note_on_c, 5, 77, 97
1, 105600, Note_on_c, 5, 82, 105
1, 105600, Note_on_c, 8, 34, 99
1, 105600, Note_on_c, 9, 35, 114
1, 105600, Note_on_c, 11, 41, 114
1, 105600, Note_on_c, 12, 58, 101
1, 105612, Note_on_c, 9, 35, 0
1, 105625, Note_on_c, 14, 62, 101
1, 105625, Note_on_c, 14, 65, 97
1, 105625, Note_on_c, 14, 70, 105
1, 105673, Note_on_c, 5, 82, 0
1, 105698, Note_on_c, 14, 70, 0
1, 105721, Note_on_c, 5, 77, 0
1, 105723, Note_on_c, 5, 74, 0
1, 105746, Note_on_c, 14, 65, 0
1, 105748, Note_on_c, 14, 62, 0
1, 105761, Note_on_c, 11, 41, 0
1, 106011, Note_on_c, 4, 65, 0
1, 106057, Note_on_c, 3, 74, 0
1, 106080, Note_on_c, 5, 74, 111
1, 106080, Note_on_c, 5, 77, 107
1, 106080, Note_on_c, 5, 82, 105
1, 106080, Note_on_c, 9, 44, 107
1, 106080, Note_on_c, 9, 69, 109
1, 106092, Note_on_c, 9, 44, 0
1, 106092, Note_on_c, 9, 69, 0
1, 106105, Note_on_c, 14, 62, 111
1, 106105, Note_on_c, 14, 65, 107
1, 106105, Note_on_c, 14, 70, 105
1, 106237, Note_on_c, 5, 82, 0
1, 106244, Note_on_c, 5, 77, 0
1, 106248, Note_on_c, 5, 74, 0
1, 106262, Note_on_c, 14, 70, 0
1, 106269, Note_on_c, 14, 65, 0
1, 106273, Note_on_c, 14, 62, 0
1, 106341, Note_on_c, 1, 34, 0
1, 106341, Note_on_c, 8, 34, 0
1, 106400, Note_on_c, 1, 34, 99
1, 106400, Note_on_c, 8, 34, 99
1, 106400, Note_on_c, 9, 35, 107
1, 106400, Note_on_c, 11, 41, 107
1, 106412, Note_on_c, 9, 35, 0
1, 106556, Note_on_c, 12, 58, 0
1, 106560, Lyric_t, "YOU "
1, 106560, Note_on_c, 3, 74, 124
1, 106560, Note_on_c, 4, 65, 93
1, 106560, Note_on_c, 5, 74, 105
1, 106560, Note_on_c, 5, 77, 94
1, 106560, Note_on_c, 5, 82, 94
1, 106560, Note_on_c, 9, 35, 114
1, 106560, Note_on_c, 11, 41, 114
1, 106560, Note_on_c, 12, 57, 101
1, 106561, Note_on_c, 11, 41, 0
1, 106572, Note_on_c, 9, 35, 0
1, 106585, Note_on_c, 14, 62, 105
1, 106585, Note_on_c, 14, 65, 94
1, 106585, Note_on_c, 14, 70, 94
1, 106715, Note_on_c, 5, 82, 0
1, 106721, Note_on_c, 11, 41, 0
1, 106723, Note_on_c, 5, 74, 0
1, 106727, Note_on_c, 5, 77, 0
1, 106740, Note_on_c, 14, 70, 0
1, 106748, Note_on_c, 14, 62, 0
1, 106752, Note_on_c, 14, 65, 0
1, 106880, Note_on_c, 9, 70, 65
1, 106892, Note_on_c, 9, 70, 0
1, 106971, Note_on_c, 4, 65, 0
1, 106972, Note_on_c, 3, 74, 0
1, 107040, Lyric_t, "LOVE "
1, 107040, Note_on_c, 3, 69, 94
1, 107040, Note_on_c, 4, 62, 93
1, 107040, Note_on_c, 5, 74, 109
1, 107040, Note_on_c, 5, 77, 94
1, 107040, Note_on_c, 5, 82, 94
1, 107040, Note_on_c, 9, 44, 107
1, 107040, Note_on_c, 9, 54, 109
1, 107052, Note_on_c, 9, 44, 0
1, 107052, Note_on_c, 9, 54, 0
1, 107065, Note_on_c, 14, 62, 109
1, 107065, Note_on_c, 14, 65, 94
1, 107065, Note_on_c, 14, 70, 94
1, 107141, Note_on_c, 1, 34, 0
1, 107141, Note_on_c, 8, 34, 0
1, 107181, Note_on_c, 5, 82, 0
1, 107194, Note_on_c, 5, 74, 0
1, 107194, Note_on_c, 5, 77, 0
1, 107206, Note_on_c, 14, 70, 0
1, 107219, Note_on_c, 14, 62, 0
1, 107219, Note_on_c, 14, 65, 0
1, 107333, Note_on_c, 3, 69, 0
1, 107360, Note_on_c, 1, 34, 99
1, 107360, Note_on_c, 8, 34, 99
1, 107451, Note_on_c, 4, 62, 0
1, 107516, Note_on_c, 12, 57, 0
1, 107520, Lyric_t, "BLOW"
1, 107520, Lyric_t, "\015"
1, 107520, Note_on_c, 3, 74, 124
1, 107520, Note_on_c, 4, 65, 93
1, 107520, Note_on_c, 5, 74, 109
1, 107520, Note_on_c, 5, 77, 94
1, 107520, Note_on_c, 5, 82, 101
1, 107520, Note_on_c, 9, 35, 114
1, 107520, Note_on_c, 11, 41, 114
1, 107520, Note_on_c, 12, 55, 101
1, 107532, Note_on_c, 9, 35, 0
1, 107545, Note_on_c, 14, 62, 109
1, 107545, Note_on_c, 14, 65, 94
1, 107545, Note_on_c, 14, 70, 101
1, 107675, Note_on_c, 5, 82, 0
1, 107681, Note_on_c, 11, 41, 0
1, 107691, Note_on_c, 5, 74, 0
1, 107691, Note_on_c, 5, 77, 0
1, 107700, Note_on_c, 14, 70, 0
1, 107716, Note_on_c, 14, 62, 0
1, 107716, Note_on_c, 14, 65, 0
1, 107931, Note_on_c, 4, 65, 0
1, 108000, Note_on_c, 5, 74, 108
1, 108000, Note_on_c, 5, 77, 97
1, 108000, Note_on_c, 5, 82, 98
1, 108000, Note_on_c, 9, 44, 107
1, 108000, Note_on_c, 9, 69, 109
1, 108012, Note_on_c, 9, 44, 0
1, 108012, Note_on_c, 9, 69, 0
1, 108025, Note_on_c, 14, 62, 108
1, 108025, Note_on_c, 14, 65, 97
1, 108025, Note_on_c, 14, 70, 98
1, 108100, Note_on_c, 3, 74, 0
1, 108101, Note_on_c, 1, 34, 0
1, 108101, Note_on_c, 8, 34, 0
1, 108146, Note_on_c, 5, 82, 0
1, 108158, Note_on_c, 5, 74, 0
1, 108163, Note_on_c, 5, 77, 0
1, 108171, Note_on_c, 14, 70, 0
1, 108183, Note_on_c, 14, 62, 0
1, 108188, Note_on_c, 14, 65, 0
1, 108299, Lyric_t, "AND "
1, 108299, Note_on_c, 3, 69, 101
1, 108320, Note_on_c, 1, 34, 99
1, 108320, Note_on_c, 4, 62, 93
1, 108320, Note_on_c, 8, 34, 99
1, 108320, Note_on_c, 9, 35, 114
1, 108320, Note_on_c, 11, 41, 114
1, 108332, Note_on_c, 9, 35, 0
1, 108394, Note_on_c, 3, 69, 0
1, 108462, Lyric_t, "I "
1, 108462, Note_on_c, 3, 74, 127
1, 108476, Note_on_c, 4, 62, 0
1, 108476, Note_on_c, 12, 55, 0
1, 108480, Note_on_c, 4, 65, 93
1, 108480, Note_on_c, 5, 74, 105
1, 108480, Note_on_c, 5, 77, 89
1, 108480, Note_on_c, 5, 82, 94
1, 108480, Note_on_c, 12, 53, 101
1, 108481, Note_on_c, 11, 41, 0
1, 108505, Note_on_c, 14, 62, 105
1, 108505, Note_on_c, 14, 65, 89
1, 108505, Note_on_c, 14, 70, 94
1, 108626, Note_on_c, 5, 82, 0
1, 108648, Note_on_c, 5, 74, 0
1, 108648, Note_on_c, 5, 77, 0
1, 108651, Note_on_c, 14, 70, 0
1, 108673, Note_on_c, 14, 62, 0
1, 108673, Note_on_c, 14, 65, 0
1, 108796, Note_on_c, 1, 34, 0
1, 108796, Note_on_c, 8, 34, 0
1, 108800, Note_on_c, 1, 41, 99
1, 108800, Note_on_c, 8, 41, 99
1, 108800, Note_on_c, 9, 35, 114
1, 108800, Note_on_c, 9, 70, 65
1, 108800, Note_on_c, 11, 41, 114
1, 108812, Note_on_c, 9, 35, 0
1, 108812, Note_on_c, 9, 70, 0
1, 108891, Note_on_c, 4, 65, 0
1, 108893, Note_on_c, 3, 74, 0
1, 108923, Note_on_c, 3, 69, 124
1, 108960, Note_on_c, 4, 62, 93
1, 108960, Note_on_c, 5, 74, 109
1, 108960, Note_on_c, 5, 77, 97
1, 108960, Note_on_c, 5, 82, 110
1, 108960, Note_on_c, 9, 44, 107
1, 108960, Note_on_c, 9, 54, 109
1, 108961, Note_on_c, 11, 41, 0
1, 108972, Note_on_c, 9, 44, 0
1, 108972, Note_on_c, 9, 54, 0
1, 108985, Note_on_c, 14, 62, 109
1, 108985, Note_on_c, 14, 65, 97
1, 108985, Note_on_c, 14, 70, 110
1, 109109, Note_on_c, 5, 82, 0
1, 109118, Note_on_c, 5, 74, 0
1, 109121, Note_on_c, 5, 77, 0
1, 109134, Note_on_c, 14, 70, 0
1, 109143, Note_on_c, 14, 62, 0
1, 109146, Note_on_c, 14, 65, 0
1, 109276, Note_on_c, 1, 41, 0
1, 109276, Note_on_c, 8, 41, 0
1, 109280, Note_on_c, 1, 34, 99
1, 109280, Note_on_c, 8, 34, 99
1, 109280, Note_on_c, 1, 34, 0
1, 109280, Note_on_c, 8, 34, 0
1, 109364, Note_on_c, 3, 69, 0
1, 109371, Note_on_c, 4, 62, 0
1, 109392, Lyric_t, "LOVE "
1, 109392, Note_on_c, 3, 74, 124
1, 109436, Note_on_c, 12, 53, 0
1, 109440, Note_on_c, 1, 33, 99
1, 109440, Note_on_c, 4, 65, 93
1, 109440, Note_on_c, 5, 73, 101
1, 109440, Note_on_c, 5, 76, 97
1, 109440, Note_on_c, 5, 81, 105
1, 109440, Note_on_c, 7, 81, 119
1, 109440, Note_on_c, 8, 33, 99
1, 109440, Note_on_c, 9, 35, 114
1, 109440, Note_on_c, 11, 41, 114
1, 109440, Note_on_c, 12, 52, 101
1, 109452, Note_on_c, 9, 35, 0
1, 109465, Note_on_c, 14, 61, 101
1, 109465, Note_on_c, 14, 64, 97
1, 109465, Note_on_c, 14, 69, 105
1, 109513, Note_on_c, 5, 81, 0
1, 109538, Note_on_c, 14, 69, 0
1, 109561, Note_on_c, 5, 76, 0
1, 109563, Note_on_c, 5, 73, 0
1, 109586, Note_on_c, 14, 64, 0
1, 109588, Note_on_c, 14, 61, 0
1, 109601, Note_on_c, 11, 41, 0
1, 109684, Note_on_c, 3, 74, 0
1, 109851, Note_on_c, 4, 65, 0
1, 109899, Lyric_t, "PUFF"
1, 109899, Lyric_t, "\015"
1, 109899, Note_on_c, 3, 73, 115
1, 109920, Note_on_c, 4, 64, 93
1, 109920, Note_on_c, 5, 73, 111
1, 109920, Note_on_c, 5, 76, 107
1, 109920, Note_on_c, 5, 81, 105
1, 109920, Note_on_c, 9, 44, 107
1, 109920, Note_on_c, 9, 69, 109
1, 109932, Note_on_c, 9, 44, 0
1, 109932, Note_on_c, 9, 69, 0
1, 109945, Note_on_c, 14, 61, 111
1, 109945, Note_on_c, 14, 64, 107
1, 109945, Note_on_c, 14, 69, 105
1, 110077, Note_on_c, 5, 81, 0
1, 110081, Note_on_c, 7, 81, 0
1, 110084, Note_on_c, 5, 76, 0
1, 110088, Note_on_c, 5, 73, 0
1, 110102, Note_on_c, 14, 69, 0
1, 110109, Note_on_c, 14, 64, 0
1, 110113, Note_on_c, 14, 61, 0
1, 110181, Note_on_c, 1, 33, 0
1, 110181, Note_on_c, 8, 33, 0
1, 110240, Note_on_c, 1, 33, 99
1, 110240, Note_on_c, 8, 33, 99
1, 110240, Note_on_c, 9, 35, 107
1, 110240, Note_on_c, 11, 41, 107
1, 110252, Note_on_c, 9, 35, 0
1, 110400, Note_on_c, 5, 73, 105
1, 110400, Note_on_c, 5, 76, 94
1, 110400, Note_on_c, 5, 81, 94
1, 110400, Note_on_c, 9, 35, 114
1, 110400, Note_on_c, 11, 41, 114
1, 110401, Note_on_c, 11, 41, 0
1, 110412, Note_on_c, 9, 35, 0
1, 110425, Note_on_c, 14, 61, 105
1, 110425, Note_on_c, 14, 64, 94
1, 110425, Note_on_c, 14, 69, 94
1, 110555, Note_on_c, 5, 81, 0
1, 110561, Note_on_c, 11, 41, 0
1, 110563, Note_on_c, 5, 73, 0
1, 110567, Note_on_c, 5, 76, 0
1, 110580, Note_on_c, 14, 69, 0
1, 110588, Note_on_c, 14, 61, 0
1, 110592, Note_on_c, 14, 64, 0
1, 110720, Note_on_c, 9, 70, 65
1, 110732, Note_on_c, 9, 70, 0
1, 110873, Note_on_c, 3, 73, 0
1, 110880, Note_on_c, 5, 73, 109
1, 110880, Note_on_c, 5, 76, 94
1, 110880, Note_on_c, 5, 81, 94
1, 110880, Note_on_c, 9, 44, 107
1, 110880, Note_on_c, 9, 54, 109
1, 110892, Note_on_c, 9, 44, 0
1, 110892, Note_on_c, 9, 54, 0
1, 110905, Note_on_c, 14, 61, 109
1, 110905, Note_on_c, 14, 64, 94
1, 110905, Note_on_c, 14, 69, 94
1, 110981, Note_on_c, 1, 33, 0
1, 110981, Note_on_c, 8, 33, 0
1, 111021, Note_on_c, 5, 81, 0
1, 111034, Note_on_c, 5, 73, 0
1, 111034, Note_on_c, 5, 76, 0
1, 111046, Note_on_c, 14, 69, 0
1, 111059, Note_on_c, 14, 61, 0
1, 111059, Note_on_c, 14, 64, 0
1, 111131, Note_on_c, 4, 64, 0
1, 111200, Note_on_c, 1, 33, 99
1, 111200, Note_on_c, 8, 33, 99
1, 111360, Note_on_c, 5, 73, 109
1, 111360, Note_on_c, 5, 76, 94
1, 111360, Note_on_c, 5, 81, 101
1, 111360, Note_on_c, 7, 81, 119
1, 111360, Note_on_c, 9, 35, 114
1, 111360, Note_on_c, 11, 41, 114
1, 111372, Note_on_c, 9, 35, 0
1, 111385, Note_on_c, 14, 61, 109
1, 111385, Note_on_c, 14, 64, 94
1, 111385, Note_on_c, 14, 69, 101
1, 111515, Note_on_c, 5, 81, 0
1, 111521, Note_on_c, 11, 41, 0
1, 111531, Note_on_c, 5, 73, 0
1, 111531, Note_on_c, 5, 76, 0
1, 111540, Note_on_c, 14, 69, 0
1, 111556, Note_on_c, 14, 61, 0
1, 111556, Note_on_c, 14, 64, 0
1, 111836, Note_on_c, 7, 81, 0
1, 111840, Note_on_c, 5, 73, 108
1, 111840, Note_on_c, 5, 76, 97
1, 111840, Note_on_c, 5, 81, 98
1, 111840, Note_on_c, 7, 79, 119
1, 111840, Note_on_c, 9, 44, 107
1, 111840, Note_on_c, 9, 69, 109
1, 111852, Note_on_c, 9, 44, 0
1, 111852, Note_on_c, 9, 69, 0
1, 111865, Note_on_c, 14, 61, 108
1, 111865, Note_on_c, 14, 64, 97
1, 111865, Note_on_c, 14, 69, 98
1, 111941, Note_on_c, 1, 33, 0
1, 111941, Note_on_c, 8, 33, 0
1, 111986, Note_on_c, 5, 81, 0
1, 111998, Note_on_c, 5, 73, 0
1, 112003, Note_on_c, 5, 76, 0
1, 112011, Note_on_c, 14, 69, 0
1, 112023, Note_on_c, 14, 61, 0
1, 112028, Note_on_c, 14, 64, 0
1, 112160, Note_on_c, 1, 33, 99
1, 112160, Note_on_c, 8, 33, 99
1, 112160, Note_on_c, 9, 35, 114
1, 112160, Note_on_c, 11, 41, 114
1, 112172, Note_on_c, 9, 35, 0
1, 112316, Note_on_c, 7, 79, 0
1, 112320, Note_on_c, 5, 73, 105
1, 112320, Note_on_c, 5, 76, 89
1, 112320, Note_on_c, 5, 81, 94
1, 112320, Note_on_c, 7, 77, 119
1, 112321, Note_on_c, 11, 41, 0
1, 112345, Note_on_c, 14, 61, 105
1, 112345, Note_on_c, 14, 64, 89
1, 112345, Note_on_c, 14, 69, 94
1, 112466, Note_on_c, 5, 81, 0
1, 112488, Note_on_c, 5, 73, 0
1, 112488, Note_on_c, 5, 76, 0
1, 112491, Note_on_c, 14, 69, 0
1, 112513, Note_on_c, 14, 61, 0
1, 112513, Note_on_c, 14, 64, 0
1, 112636, Note_on_c, 1, 33, 0
1, 112636, Note_on_c, 8, 33, 0
1, 112640, Note_on_c, 1, 36, 99
1, 112640, Note_on_c, 8, 36, 99
1, 112640, Note_on_c, 9, 35, 114
1, 112640, Note_on_c, 9, 70, 65
1, 112640, Note_on_c, 11, 41, 114
1, 112652, Note_on_c, 9, 35, 0
1, 112652, Note_on_c, 9, 70, 0
1, 112796, Note_on_c, 7, 77, 0
1, 112796, Note_on_c, 12, 52, 0
1, 112800, Note_on_c, 5, 73, 109
1, 112800, Note_on_c, 5, 76, 97
1, 112800, Note_on_c, 5, 81, 110
1, 112800, Note_on_c, 7, 76, 119
1, 112800, Note_on_c, 9, 44, 107
1, 112800, Note_on_c, 9, 54, 109
1, 112801, Note_on_c, 11, 41, 0
1, 112812, Note_on_c, 9, 44, 0
1, 112812, Note_on_c, 9, 54, 0
1, 112825, Note_on_c, 14, 61, 109
1, 112825, Note_on_c, 14, 64, 97
1, 112825, Note_on_c, 14, 69, 110
1, 112949, Note_on_c, 5, 81, 0
1, 112958, Note_on_c, 5, 73, 0
1, 112961, Note_on_c, 5, 76, 0
1, 112974, Note_on_c, 14, 69, 0
1, 112983, Note_on_c, 14, 61, 0
1, 112986, Note_on_c, 14, 64, 0
1, 113055, Lyric_t, "AND "
1, 113055, Note_on_c, 3, 69, 119
1, 113116, Note_on_c, 1, 36, 0
1, 113116, Note_on_c, 8, 36, 0
1, 113120, Note_on_c, 1, 37, 99
1, 113120, Note_on_c, 8, 37, 99
1, 113267, Note_on_c, 3, 69, 0
1, 113276, Note_on_c, 1, 37, 0
1, 113276, Note_on_c, 7, 76, 0
1, 113276, Note_on_c, 8, 37, 0
1, 113280, Note_on_c, 1, 38, 99
1, 113280, Note_on_c, 5, 74, 101
1, 113280, Note_on_c, 5, 77, 97
1, 113280, Note_on_c, 5, 81, 105
1, 113280, Note_on_c, 7, 74, 119
1, 113280, Note_on_c, 8, 38, 99
1, 113280, Note_on_c, 9, 35, 114
1, 113280, Note_on_c, 11, 41, 114
1, 113283, Lyric_t, "LIFE"
1, 113283, Lyric_t, "\015"
1, 113283, Note_on_c, 3, 74, 114
1, 113292, Note_on_c, 9, 35, 0
1, 113305, Note_on_c, 14, 62, 101
1, 113305, Note_on_c, 14, 65, 97
1, 113305, Note_on_c, 14, 69, 105
1, 113353, Note_on_c, 5, 81, 0
1, 113378, Note_on_c, 14, 69, 0
1, 113401, Note_on_c, 5, 77, 0
1, 113403, Note_on_c, 5, 74, 0
1, 113426, Note_on_c, 14, 65, 0
1, 113428, Note_on_c, 14, 62, 0
1, 113441, Note_on_c, 11, 41, 0
1, 113756, Note_on_c, 7, 74, 0
1, 113760, Note_on_c, 5, 74, 111
1, 113760, Note_on_c, 5, 77, 107
1, 113760, Note_on_c, 5, 81, 105
1, 113760, Note_on_c, 9, 44, 107
1, 113760, Note_on_c, 9, 69, 109
1, 113772, Note_on_c, 9, 44, 0
1, 113772, Note_on_c, 9, 69, 0
1, 113785, Note_on_c, 14, 62, 111
1, 113785, Note_on_c, 14, 65, 107
1, 113785, Note_on_c, 14, 69, 105
1, 113917, Note_on_c, 5, 81, 0
1, 113924, Note_on_c, 5, 77, 0
1, 113928, Note_on_c, 5, 74, 0
1, 113942, Note_on_c, 14, 69, 0
1, 113949, Note_on_c, 14, 65, 0
1, 113953, Note_on_c, 14, 62, 0
1, 114001, Note_on_c, 1, 38, 0
1, 114001, Note_on_c, 8, 38, 0
1, 114080, Note_on_c, 1, 38, 99
1, 114080, Note_on_c, 8, 38, 99
1, 114080, Note_on_c, 9, 35, 107
1, 114080, Note_on_c, 11, 41, 107
1, 114092, Note_on_c, 9, 35, 0
1, 114240, Note_on_c, 5, 74, 105
1, 114240, Note_on_c, 5, 77, 94
1, 114240, Note_on_c, 5, 81, 94
1, 114240, Note_on_c, 9, 35, 114
1, 114240, Note_on_c, 11, 41, 114
1, 114240, Note_on_c, 12, 55, 97
1, 114241, Note_on_c, 11, 41, 0
1, 114252, Note_on_c, 9, 35, 0
1, 114265, Note_on_c, 14, 62, 105
1, 114265, Note_on_c, 14, 65, 94
1, 114265, Note_on_c, 14, 69, 94
1, 114395, Note_on_c, 5, 81, 0
1, 114401, Note_on_c, 11, 41, 0
1, 114403, Note_on_c, 5, 74, 0
1, 114407, Note_on_c, 5, 77, 0
1, 114420, Note_on_c, 14, 69, 0
1, 114428, Note_on_c, 14, 62, 0
1, 114432, Note_on_c, 14, 65, 0
1, 114560, Note_on_c, 9, 70, 65
1, 114572, Note_on_c, 9, 70, 0
1, 114716, Note_on_c, 12, 55, 0
1, 114719, Note_on_c, 3, 74, 0
1, 114720, Note_on_c, 5, 74, 109
1, 114720, Note_on_c, 5, 77, 94
1, 114720, Note_on_c, 5, 81, 94
1, 114720, Note_on_c, 9, 44, 107
1, 114720, Note_on_c, 9, 54, 109
1, 114720, Note_on_c, 12, 57, 97
1, 114732, Note_on_c, 9, 44, 0
1, 114732, Note_on_c, 9, 54, 0
1, 114745, Note_on_c, 14, 62, 109
1, 114745, Note_on_c, 14, 65, 94
1, 114745, Note_on_c, 14, 69, 94
1, 114861, Note_on_c, 5, 81, 0
1, 114874, Note_on_c, 5, 74, 0
1, 114874, Note_on_c, 5, 77, 0
1, 114881, Note_on_c, 1, 38, 0
1, 114881, Note_on_c, 8, 38, 0
1, 114886, Note_on_c, 14, 69, 0
1, 114899, Note_on_c, 14, 62, 0
1, 114899, Note_on_c, 14, 65, 0
1, 115036, Note_on_c, 12, 57, 0
1, 115040, Note_on_c, 1, 38, 99
1, 115040, Note_on_c, 8, 38, 99
1, 115040, Note_on_c, 12, 50, 97
1, 115200, Note_on_c, 5, 74, 109
1, 115200, Note_on_c, 5, 77, 94
1, 115200, Note_on_c, 5, 81, 101
1, 115200, Note_on_c, 9, 35, 114
1, 115200, Note_on_c, 11, 41, 114
1, 115212, Note_on_c, 9, 35, 0
1, 115225, Note_on_c, 14, 62, 109
1, 115225, Note_on_c, 14, 65, 94
1, 115225, Note_on_c, 14, 69, 101
1, 115355, Note_on_c, 5, 81, 0
1, 115361, Note_on_c, 11, 41, 0
1, 115371, Note_on_c, 5, 74, 0
1, 115371, Note_on_c, 5, 77, 0
1, 115380, Note_on_c, 14, 69, 0
1, 115396, Note_on_c, 14, 62, 0
1, 115396, Note_on_c, 14, 65, 0
1, 115655, Lyric_t, "IS "
1, 115655, Note_on_c, 3, 74, 119
1, 115680, Note_on_c, 5, 74, 108
1, 115680, Note_on_c, 5, 77, 97
1, 115680, Note_on_c, 5, 81, 98
1, 115680, Note_on_c, 9, 44, 107
1, 115680, Note_on_c, 9, 69, 109
1, 115692, Note_on_c, 9, 44, 0
1, 115692, Note_on_c, 9, 69, 0
1, 115705, Note_on_c, 14, 62, 108
1, 115705, Note_on_c, 14, 65, 97
1, 115705, Note_on_c, 14, 69, 98
1, 115826, Note_on_c, 5, 81, 0
1, 115838, Note_on_c, 5, 74, 0
1, 115841, Note_on_c, 1, 38, 0
1, 115841, Note_on_c, 8, 38, 0
1, 115843, Note_on_c, 5, 77, 0
1, 115851, Note_on_c, 14, 69, 0
1, 115863, Note_on_c, 14, 62, 0
1, 115868, Note_on_c, 14, 65, 0
1, 115905, Note_on_c, 3, 74, 0
1, 116000, Note_on_c, 1, 38, 99
1, 116000, Note_on_c, 8, 38, 99
1, 116000, Note_on_c, 9, 35, 114
1, 116000, Note_on_c, 11, 41, 114
1, 116012, Note_on_c, 9, 35, 0
1, 116143, Lyric_t, "LIKE "
1, 116143, Note_on_c, 3, 74, 119
1, 116156, Note_on_c, 12, 50, 0
1, 116160, Note_on_c, 5, 74, 105
1, 116160, Note_on_c, 5, 77, 89
1, 116160, Note_on_c, 5, 81, 94
1, 116160, Note_on_c, 12, 62, 97
1, 116161, Note_on_c, 11, 41, 0
1, 116185, Note_on_c, 14, 62, 105
1, 116185, Note_on_c, 14, 65, 89
1, 116185, Note_on_c, 14, 69, 94
1, 116306, Note_on_c, 5, 81, 0
1, 116328, Note_on_c, 5, 74, 0
1, 116328, Note_on_c, 5, 77, 0
1, 116331, Note_on_c, 14, 69, 0
1, 116353, Note_on_c, 14, 62, 0
1, 116353, Note_on_c, 14, 65, 0
1, 116476, Note_on_c, 1, 38, 0
1, 116476, Note_on_c, 8, 38, 0
1, 116476, Note_on_c, 12, 62, 0
1, 116480, Note_on_c, 1, 36, 99
1, 116480, Note_on_c, 8, 36, 99
1, 116480, Note_on_c, 9, 35, 114
1, 116480, Note_on_c, 9, 70, 65
1, 116480, Note_on_c, 11, 41, 114
1, 116480, Note_on_c, 12, 60, 97
1, 116492, Note_on_c, 9, 35, 0
1, 116492, Note_on_c, 9, 70, 0
1, 116640, Note_on_c, 5, 74, 109
1, 116640, Note_on_c, 5, 77, 97
1, 116640, Note_on_c, 5, 81, 110
1, 116640, Note_on_c, 9, 44, 107
1, 116640, Note_on_c, 9, 54, 109
1, 116641, Note_on_c, 11, 41, 0
1, 116652, Note_on_c, 9, 44, 0
1, 116652, Note_on_c, 9, 54, 0
1, 116665, Note_on_c, 14, 62, 109
1, 116665, Note_on_c, 14, 65, 97
1, 116665, Note_on_c, 14, 69, 110
1, 116789, Note_on_c, 5, 81, 0
1, 116798, Note_on_c, 5, 74, 0
1, 116801, Note_on_c, 5, 77, 0
1, 116814, Note_on_c, 14, 69, 0
1, 116823, Note_on_c, 14, 62, 0
1, 116826, Note_on_c, 14, 65, 0
1, 116956, Note_on_c, 1, 36, 0
1, 116956, Note_on_c, 8, 36, 0
1, 116960, Note_on_c, 1, 33, 99
1, 116960, Note_on_c, 8, 33, 99
1, 117116, Note_on_c, 1, 33, 0
1, 117116, Note_on_c, 8, 33, 0
1, 117120, Note_on_c, 1, 31, 99
1, 117120, Note_on_c, 4, 58, 69
1, 117120, Note_on_c, 4, 62, 69
1, 117120, Note_on_c, 4, 65, 69
1, 117120, Note_on_c, 5, 74, 101
1, 117120, Note_on_c, 5, 79, 97
1, 117120, Note_on_c, 5, 82, 105
1, 117120, Note_on_c, 8, 31, 99
1, 117120, Note_on_c, 9, 35, 114
1, 117120, Note_on_c, 11, 41, 114
1, 117132, Note_on_c, 9, 35, 0
1, 117145, Note_on_c, 14, 62, 101
1, 117145, Note_on_c, 14, 67, 97
1, 117145, Note_on_c, 14, 70, 105
1, 117167, Note_on_c, 3, 74, 0
1, 117193, Note_on_c, 5, 82, 0
1, 117218, Note_on_c, 14, 70, 0
1, 117241, Note_on_c, 5, 79, 0
1, 117243, Note_on_c, 5, 74, 0
1, 117266, Note_on_c, 14, 67, 0
1, 117268, Note_on_c, 14, 62, 0
1, 117281, Note_on_c, 11, 41, 0
1, 117367, Lyric_t, "A "
1, 117367, Note_on_c, 3, 74, 127
1, 117453, Note_on_c, 3, 74, 0
1, 117556, Lyric_t, "PIPE"
1, 117556, Lyric_t, "\015"
1, 117556, Note_on_c, 3, 74, 124
1, 117596, Note_on_c, 12, 60, 0
1, 117600, Note_on_c, 5, 74, 111
1, 117600, Note_on_c, 5, 79, 107
1, 117600, Note_on_c, 5, 82, 105
1, 117600, Note_on_c, 9, 44, 107
1, 117600, Note_on_c, 9, 69, 109
1, 117600, Note_on_c, 12, 55, 97
1, 117612, Note_on_c, 9, 44, 0
1, 117612, Note_on_c, 9, 69, 0
1, 117625, Note_on_c, 14, 62, 111
1, 117625, Note_on_c, 14, 67, 107
1, 117625, Note_on_c, 14, 70, 105
1, 117757, Note_on_c, 5, 82, 0
1, 117761, Note_on_c, 1, 31, 0
1, 117761, Note_on_c, 8, 31, 0
1, 117764, Note_on_c, 5, 79, 0
1, 117768, Note_on_c, 5, 74, 0
1, 117782, Note_on_c, 14, 70, 0
1, 117789, Note_on_c, 14, 67, 0
1, 117793, Note_on_c, 14, 62, 0
1, 117920, Note_on_c, 1, 31, 99
1, 117920, Note_on_c, 8, 31, 99
1, 117920, Note_on_c, 9, 35, 107
1, 117920, Note_on_c, 11, 41, 107
1, 117932, Note_on_c, 9, 35, 0
1, 118080, Note_on_c, 5, 74, 105
1, 118080, Note_on_c, 5, 79, 94
1, 118080, Note_on_c, 5, 82, 94
1, 118080, Note_on_c, 9, 35, 114
1, 118080, Note_on_c, 11, 41, 114
1, 118081, Note_on_c, 11, 41, 0
1, 118092, Note_on_c, 9, 35, 0
1, 118105, Note_on_c, 14, 62, 105
1, 118105, Note_on_c, 14, 67, 94
1, 118105, Note_on_c, 14, 70, 94
1, 118235, Note_on_c, 5, 82, 0
1, 118241, Note_on_c, 11, 41, 0
1, 118243, Note_on_c, 5, 74, 0
1, 118247, Note_on_c, 5, 79, 0
1, 118260, Note_on_c, 14, 70, 0
1, 118268, Note_on_c, 14, 62, 0
1, 118272, Note_on_c, 14, 67, 0
1, 118400, Note_on_c, 9, 70, 65
1, 118412, Note_on_c, 9, 70, 0
1, 118560, Note_on_c, 5, 74, 109
1, 118560, Note_on_c, 5, 79, 94
1, 118560, Note_on_c, 5, 82, 94
1, 118560, Note_on_c, 9, 44, 107
1, 118560, Note_on_c, 9, 54, 109
1, 118572, Note_on_c, 9, 44, 0
1, 118572, Note_on_c, 9, 54, 0
1, 118585, Note_on_c, 14, 62, 109
1, 118585, Note_on_c, 14, 67, 94
1, 118585, Note_on_c, 14, 70, 94
1, 118675, Note_on_c, 3, 74, 0
1, 118701, Note_on_c, 5, 82, 0
1, 118714, Note_on_c, 5, 74, 0
1, 118714, Note_on_c, 5, 79, 0
1, 118716, Note_on_c, 12, 55, 0
1, 118721, Note_on_c, 1, 31, 0
1, 118721, Note_on_c, 8, 31, 0
1, 118726, Note_on_c, 14, 70, 0
1, 118739, Note_on_c, 14, 62, 0
1, 118739, Note_on_c, 14, 67, 0
1, 118880, Lyric_t, "AND "
1, 118880, Note_on_c, 1, 31, 99
1, 118880, Note_on_c, 3, 69, 109
1, 118880, Note_on_c, 8, 31, 99
1, 118978, Note_on_c, 3, 69, 0
1, 119040, Lyric_t, "I'M "
1, 119040, Note_on_c, 3, 74, 124
1, 119040, Note_on_c, 5, 74, 109
1, 119040, Note_on_c, 5, 79, 94
1, 119040, Note_on_c, 5, 82, 101
1, 119040, Note_on_c, 9, 35, 114
1, 119040, Note_on_c, 11, 41, 114
1, 119052, Note_on_c, 9, 35, 0
1, 119065, Note_on_c, 14, 62, 109
1, 119065, Note_on_c, 14, 67, 94
1, 119065, Note_on_c, 14, 70, 101
1, 119195, Note_on_c, 5, 82, 0
1, 119201, Note_on_c, 11, 41, 0
1, 119211, Note_on_c, 5, 74, 0
1, 119211, Note_on_c, 5, 79, 0
1, 119220, Note_on_c, 14, 70, 0
1, 119236, Note_on_c, 14, 62, 0
1, 119236, Note_on_c, 14, 67, 0
1, 119389, Note_on_c, 3, 74, 0
1, 119520, Lyric_t, "A "
1, 119520, Note_on_c, 3, 69, 105
1, 119520, Note_on_c, 5, 74, 108
1, 119520, Note_on_c, 5, 79, 97
1, 119520, Note_on_c, 5, 82, 98
1, 119520, Note_on_c, 9, 44, 107
1, 119520, Note_on_c, 9, 69, 109
1, 119520, Note_on_c, 12, 58, 97
1, 119532, Note_on_c, 9, 44, 0
1, 119532, Note_on_c, 9, 69, 0
1, 119545, Note_on_c, 14, 62, 108
1, 119545, Note_on_c, 14, 67, 97
1, 119545, Note_on_c, 14, 70, 98
1, 119666, Note_on_c, 5, 82, 0
1, 119678, Note_on_c, 5, 74, 0
1, 119681, Note_on_c, 1, 31, 0
1, 119681, Note_on_c, 8, 31, 0
1, 119683, Note_on_c, 5, 79, 0
1, 119691, Note_on_c, 14, 70, 0
1, 119703, Note_on_c, 14, 62, 0
1, 119708, Note_on_c, 14, 67, 0
1, 119779, Note_on_c, 3, 69, 0
1, 119840, Note_on_c, 1, 31, 99
1, 119840, Note_on_c, 8, 31, 99
1, 119840, Note_on_c, 9, 35, 114
1, 119840, Note_on_c, 11, 41, 114
1, 119852, Note_on_c, 9, 35, 0
1, 119996, Note_on_c, 12, 58, 0
1, 120000, Lyric_t, "TI"
1, 120000, Note_on_c, 3, 74, 119
1, 120000, Note_on_c, 5, 74, 105
1, 120000, Note_on_c, 5, 79, 89
1, 120000, Note_on_c, 5, 82, 94
1, 120000, Note_on_c, 12, 57, 97
1, 120001, Note_on_c, 11, 41, 0
1, 120025, Note_on_c, 14, 62, 105
1, 120025, Note_on_c, 14, 67, 89
1, 120025, Note_on_c, 14, 70, 94
1, 120146, Note_on_c, 5, 82, 0
1, 120168, Note_on_c, 5, 74, 0
1, 120168, Note_on_c, 5, 79, 0
1, 120171, Note_on_c, 14, 70, 0
1, 120193, Note_on_c, 14, 62, 0
1, 120193, Note_on_c, 14, 67, 0
1, 120306, Note_on_c, 3, 74, 0
1, 120316, Note_on_c, 1, 31, 0
1, 120316, Note_on_c, 8, 31, 0
1, 120320, Note_on_c, 1, 32, 99
1, 120320, Note_on_c, 8, 32, 99
1, 120320, Note_on_c, 9, 35, 114
1, 120320, Note_on_c, 9, 70, 65
1, 120320, Note_on_c, 11, 41, 114
1, 120332, Note_on_c, 9, 35, 0
1, 120332, Note_on_c, 9, 70, 0
1, 120476, Note_on_c, 12, 57, 0
1, 120480, Lyric_t, "NY "
1, 120480, Note_on_c, 3, 69, 119
1, 120480, Note_on_c, 5, 74, 109
1, 120480, Note_on_c, 5, 79, 97
1, 120480, Note_on_c, 5, 82, 110
1, 120480, Note_on_c, 9, 44, 107
1, 120480, Note_on_c, 9, 54, 109
1, 120480, Note_on_c, 12, 55, 97
1, 120481, Note_on_c, 11, 41, 0
1, 120492, Note_on_c, 9, 44, 0
1, 120492, Note_on_c, 9, 54, 0
1, 120505, Note_on_c, 14, 62, 109
1, 120505, Note_on_c, 14, 67, 97
1, 120505, Note_on_c, 14, 70, 110
1, 120629, Note_on_c, 5, 82, 0
1, 120638, Note_on_c, 5, 74, 0
1, 120641, Note_on_c, 5, 79, 0
1, 120654, Note_on_c, 14, 70, 0
1, 120663, Note_on_c, 14, 62, 0
1, 120666, Note_on_c, 14, 67, 0
1, 120760, Note_on_c, 3, 69, 0
1, 120796, Note_on_c, 1, 32, 0
1, 120796, Note_on_c, 8, 32, 0
1, 120800, Note_on_c, 1, 33, 99
1, 120800, Note_on_c, 8, 33, 99
1, 120915, Note_on_c, 4, 58, 0
1, 120915, Note_on_c, 4, 62, 0
1, 120915, Note_on_c, 4, 65, 0
1, 120956, Note_on_c, 1, 33, 0
1, 120956, Note_on_c, 8, 33, 0
1, 120956, Note_on_c, 12, 55, 0
1, 120960, Lyric_t, "PEN"
1, 120960, Note_on_c, 1, 34, 99
1, 120960, Note_on_c, 3, 74, 124
1, 120960, Note_on_c, 4, 58, 69
1, 120960, Note_on_c, 4, 62, 69
1, 120960, Note_on_c, 4, 65, 69
1, 120960, Note_on_c, 4, 70, 69
1, 120960, Note_on_c, 5, 74, 101
1, 120960, Note_on_c, 5, 77, 97
1, 120960, Note_on_c, 5, 82, 105
1, 120960, Note_on_c, 8, 34, 99
1, 120960, Note_on_c, 9, 35, 114
1, 120960, Note_on_c, 11, 41, 114
1, 120960, Note_on_c, 12, 58, 97
1, 120972, Note_on_c, 9, 35, 0
1, 120985, Note_on_c, 14, 62, 101
1, 120985, Note_on_c, 14, 65, 97
1, 120985, Note_on_c, 14, 70, 105
1, 121033, Note_on_c, 5, 82, 0
1, 121058, Note_on_c, 14, 70, 0
1, 121081, Note_on_c, 5, 77, 0
1, 121083, Note_on_c, 5, 74, 0
1, 121106, Note_on_c, 14, 65, 0
1, 121108, Note_on_c, 14, 62, 0
1, 121121, Note_on_c, 11, 41, 0
1, 121309, Note_on_c, 3, 74, 0
1, 121440, Lyric_t, "NY"
1, 121440, Lyric_t, "\015"
1, 121440, Note_on_c, 3, 69, 105
1, 121440, Note_on_c, 5, 74, 111
1, 121440, Note_on_c, 5, 77, 107
1, 121440, Note_on_c, 5, 82, 105
1, 121440, Note_on_c, 9, 44, 107
1, 121440, Note_on_c, 9, 69, 109
1, 121452, Note_on_c, 9, 44, 0
1, 121452, Note_on_c, 9, 69, 0
1, 121465, Note_on_c, 14, 62, 111
1, 121465, Note_on_c, 14, 65, 107
1, 121465, Note_on_c, 14, 70, 105
1, 121597, Note_on_c, 5, 82, 0
1, 121604, Note_on_c, 5, 77, 0
1, 121608, Note_on_c, 5, 74, 0
1, 121622, Note_on_c, 14, 70, 0
1, 121629, Note_on_c, 14, 65, 0
1, 121633, Note_on_c, 14, 62, 0
1, 121699, Note_on_c, 3, 69, 0
1, 121701, Note_on_c, 1, 34, 0
1, 121701, Note_on_c, 8, 34, 0
1, 121760, Note_on_c, 1, 34, 99
1, 121760, Note_on_c, 8, 34, 99
1, 121760, Note_on_c, 9, 35, 107
1, 121760, Note_on_c, 11, 41, 107
1, 121772, Note_on_c, 9, 35, 0
1, 121916, Note_on_c, 12, 58, 0
1, 121920, Lyric_t, "ROL"
1, 121920, Note_on_c, 3, 74, 119
1, 121920, Note_on_c, 5, 74, 105
1, 121920, Note_on_c, 5, 77, 94
1, 121920, Note_on_c, 5, 82, 94
1, 121920, Note_on_c, 9, 35, 114
1, 121920, Note_on_c, 11, 41, 114
1, 121920, Note_on_c, 12, 57, 97
1, 121921, Note_on_c, 11, 41, 0
1, 121932, Note_on_c, 9, 35, 0
1, 121945, Note_on_c, 14, 62, 105
1, 121945, Note_on_c, 14, 65, 94
1, 121945, Note_on_c, 14, 70, 94
1, 122075, Note_on_c, 5, 82, 0
1, 122081, Note_on_c, 11, 41, 0
1, 122083, Note_on_c, 5, 74, 0
1, 122087, Note_on_c, 5, 77, 0
1, 122100, Note_on_c, 14, 70, 0
1, 122108, Note_on_c, 14, 62, 0
1, 122112, Note_on_c, 14, 65, 0
1, 122226, Note_on_c, 3, 74, 0
1, 122240, Note_on_c, 9, 70, 65
1, 122252, Note_on_c, 9, 70, 0
1, 122400, Lyric_t, "LING "
1, 122400, Note_on_c, 3, 69, 119
1, 122400, Note_on_c, 5, 74, 109
1, 122400, Note_on_c, 5, 77, 94
1, 122400, Note_on_c, 5, 82, 94
1, 122400, Note_on_c, 9, 44, 107
1, 122400, Note_on_c, 9, 54, 109
1, 122412, Note_on_c, 9, 44, 0
1, 122412, Note_on_c, 9, 54, 0
1, 122425, Note_on_c, 14, 62, 109
1, 122425, Note_on_c, 14, 65, 94
1, 122425, Note_on_c, 14, 70, 94
1, 122501, Note_on_c, 1, 34, 0
1, 122501, Note_on_c, 8, 34, 0
1, 122541, Note_on_c, 5, 82, 0
1, 122554, Note_on_c, 5, 74, 0
1, 122554, Note_on_c, 5, 77, 0
1, 122566, Note_on_c, 14, 70, 0
1, 122579, Note_on_c, 14, 62, 0
1, 122579, Note_on_c, 14, 65, 0
1, 122680, Note_on_c, 3, 69, 0
1, 122720, Note_on_c, 1, 34, 99
1, 122720, Note_on_c, 8, 34, 99
1, 122876, Note_on_c, 12, 57, 0
1, 122880, Lyric_t, "UP "
1, 122880, Note_on_c, 3, 74, 124
1, 122880, Note_on_c, 5, 74, 109
1, 122880, Note_on_c, 5, 77, 94
1, 122880, Note_on_c, 5, 82, 101
1, 122880, Note_on_c, 9, 35, 114
1, 122880, Note_on_c, 11, 41, 114
1, 122880, Note_on_c, 12, 55, 97
1, 122892, Note_on_c, 9, 35, 0
1, 122905, Note_on_c, 14, 62, 109
1, 122905, Note_on_c, 14, 65, 94
1, 122905, Note_on_c, 14, 70, 101
1, 123035, Note_on_c, 5, 82, 0
1, 123041, Note_on_c, 11, 41, 0
1, 123051, Note_on_c, 5, 74, 0
1, 123051, Note_on_c, 5, 77, 0
1, 123060, Note_on_c, 14, 70, 0
1, 123076, Note_on_c, 14, 62, 0
1, 123076, Note_on_c, 14, 65, 0
1, 123229, Note_on_c, 3, 74, 0
1, 123360, Lyric_t, "THE "
1, 123360, Note_on_c, 3, 69, 105
1, 123360, Note_on_c, 5, 74, 108
1, 123360, Note_on_c, 5, 77, 97
1, 123360, Note_on_c, 5, 82, 98
1, 123360, Note_on_c, 9, 44, 107
1, 123360, Note_on_c, 9, 69, 109
1, 123372, Note_on_c, 9, 44, 0
1, 123372, Note_on_c, 9, 69, 0
1, 123385, Note_on_c, 14, 62, 108
1, 123385, Note_on_c, 14, 65, 97
1, 123385, Note_on_c, 14, 70, 98
1, 123461, Note_on_c, 1, 34, 0
1, 123461, Note_on_c, 8, 34, 0
1, 123506, Note_on_c, 5, 82, 0
1, 123518, Note_on_c, 5, 74, 0
1, 123523, Note_on_c, 5, 77, 0
1, 123531, Note_on_c, 14, 70, 0
1, 123543, Note_on_c, 14, 62, 0
1, 123548, Note_on_c, 14, 65, 0
1, 123619, Note_on_c, 3, 69, 0
1, 123680, Lyric_t, "WALLS"
1, 123680, Lyric_t, "\015"
1, 123680, Note_on_c, 1, 34, 99
1, 123680, Note_on_c, 3, 74, 119
1, 123680, Note_on_c, 8, 34, 99
1, 123680, Note_on_c, 9, 35, 114
1, 123680, Note_on_c, 11, 41, 114
1, 123692, Note_on_c, 9, 35, 0
1, 123836, Note_on_c, 12, 55, 0
1, 123840, Note_on_c, 5, 74, 105
1, 123840, Note_on_c, 5, 77, 89
1, 123840, Note_on_c, 5, 82, 94
1, 123840, Note_on_c, 12, 53, 97
1, 123841, Note_on_c, 11, 41, 0
1, 123865, Note_on_c, 14, 62, 105
1, 123865, Note_on_c, 14, 65, 89
1, 123865, Note_on_c, 14, 70, 94
1, 123986, Note_on_c, 5, 82, 0
1, 124008, Note_on_c, 5, 74, 0
1, 124008, Note_on_c, 5, 77, 0
1, 124011, Note_on_c, 14, 70, 0
1, 124033, Note_on_c, 14, 62, 0
1, 124033, Note_on_c, 14, 65, 0
1, 124156, Note_on_c, 1, 34, 0
1, 124156, Note_on_c, 8, 34, 0
1, 124160, Note_on_c, 1, 41, 99
1, 124160, Note_on_c, 8, 41, 99
1, 124160, Note_on_c, 9, 35, 114
1, 124160, Note_on_c, 9, 70, 65
1, 124160, Note_on_c, 11, 41, 114
1, 124172, Note_on_c, 9, 35, 0
1, 124172, Note_on_c, 9, 70, 0
1, 124320, Note_on_c, 5, 74, 109
1, 124320, Note_on_c, 5, 77, 97
1, 124320, Note_on_c, 5, 82, 110
1, 124320, Note_on_c, 9, 44, 107
1, 124320, Note_on_c, 9, 54, 109
1, 124321, Note_on_c, 11, 41, 0
1, 124332, Note_on_c, 9, 44, 0
1, 124332, Note_on_c, 9, 54, 0
1, 124345, Note_on_c, 14, 62, 109
1, 124345, Note_on_c, 14, 65, 97
1, 124345, Note_on_c, 14, 70, 110
1, 124466, Note_on_c, 3, 74, 0
1, 124469, Note_on_c, 5, 82, 0
1, 124478, Note_on_c, 5, 74, 0
1, 124481, Note_on_c, 5, 77, 0
1, 124494, Note_on_c, 14, 70, 0
1, 124503, Note_on_c, 14, 62, 0
1, 124506, Note_on_c, 14, 65, 0
1, 124636, Note_on_c, 1, 41, 0
1, 124636, Note_on_c, 8, 41, 0
1, 124640, Note_on_c, 1, 34, 99
1, 124640, Note_on_c, 8, 34, 99
1, 124640, Note_on_c, 1, 34, 0
1, 124640, Note_on_c, 8, 34, 0
1, 124755, Note_on_c, 4, 58, 0
1, 124755, Note_on_c, 4, 62, 0
1, 124755, Note_on_c, 4, 65, 0
1, 124755, Note_on_c, 4, 70, 0
1, 124796, Note_on_c, 12, 53, 0
1, 124800, Note_on_c, 1, 33, 99
1, 124800, Note_on_c, 4, 61, 69
1, 124800, Note_on_c, 4, 64, 69
1, 124800, Note_on_c, 4, 69, 69
1, 124800, Note_on_c, 5, 73, 101
1, 124800, Note_on_c, 5, 76, 97
1, 124800, Note_on_c, 5, 81, 105
1, 124800, Note_on_c, 7, 81, 119
1, 124800, Note_on_c, 8, 33, 99
1, 124800, Note_on_c, 9, 35, 114
1, 124800, Note_on_c, 11, 41, 114
1, 124800, Note_on_c, 12, 52, 97
1, 124812, Note_on_c, 9, 35, 0
1, 124825, Note_on_c, 14, 61, 101
1, 124825, Note_on_c, 14, 64, 97
1, 124825, Note_on_c, 14, 69, 105
1, 124873, Note_on_c, 5, 81, 0
1, 124898, Note_on_c, 14, 69, 0
1, 124921, Note_on_c, 5, 76, 0
1, 124923, Note_on_c, 5, 73, 0
1, 124946, Note_on_c, 14, 64, 0
1, 124948, Note_on_c, 14, 61, 0
1, 124961, Note_on_c, 11, 41, 0
1, 125029, Lyric_t, "IN"
1, 125029, Note_on_c, 3, 73, 122
1, 125116, Note_on_c, 3, 73, 0
1, 125227, Lyric_t, "SIDE"
1, 125227, Lyric_t, "\015"
1, 125227, Note_on_c, 3, 73, 122
1, 125280, Note_on_c, 5, 73, 111
1, 125280, Note_on_c, 5, 76, 107
1, 125280, Note_on_c, 5, 81, 105
1, 125280, Note_on_c, 9, 44, 107
1, 125280, Note_on_c, 9, 69, 109
1, 125292, Note_on_c, 9, 44, 0
1, 125292, Note_on_c, 9, 69, 0
1, 125305, Note_on_c, 14, 61, 111
1, 125305, Note_on_c, 14, 64, 107
1, 125305, Note_on_c, 14, 69, 105
1, 125437, Note_on_c, 5, 81, 0
1, 125441, Note_on_c, 7, 81, 0
1, 125444, Note_on_c, 5, 76, 0
1, 125448, Note_on_c, 5, 73, 0
1, 125462, Note_on_c, 14, 69, 0
1, 125469, Note_on_c, 14, 64, 0
1, 125473, Note_on_c, 14, 61, 0
1, 125541, Note_on_c, 1, 33, 0
1, 125541, Note_on_c, 8, 33, 0
1, 125600, Note_on_c, 1, 33, 99
1, 125600, Note_on_c, 8, 33, 99
1, 125600, Note_on_c, 9, 35, 107
1, 125600, Note_on_c, 11, 41, 107
1, 125612, Note_on_c, 9, 35, 0
1, 125760, Note_on_c, 5, 73, 105
1, 125760, Note_on_c, 5, 76, 94
1, 125760, Note_on_c, 5, 81, 94
1, 125760, Note_on_c, 9, 35, 114
1, 125760, Note_on_c, 11, 41, 114
1, 125761, Note_on_c, 11, 41, 0
1, 125772, Note_on_c, 9, 35, 0
1, 125785, Note_on_c, 14, 61, 105
1, 125785, Note_on_c, 14, 64, 94
1, 125785, Note_on_c, 14, 69, 94
1, 125915, Note_on_c, 5, 81, 0
1, 125921, Note_on_c, 11, 41, 0
1, 125923, Note_on_c, 5, 73, 0
1, 125927, Note_on_c, 5, 76, 0
1, 125940, Note_on_c, 14, 69, 0
1, 125948, Note_on_c, 14, 61, 0
1, 125952, Note_on_c, 14, 64, 0
1, 126080, Note_on_c, 9, 70, 65
1, 126092, Note_on_c, 9, 70, 0
1, 126240, Note_on_c, 5, 73, 109
1, 126240, Note_on_c, 5, 76, 94
1, 126240, Note_on_c, 5, 81, 94
1, 126240, Note_on_c, 9, 44, 107
1, 126240, Note_on_c, 9, 54, 109
1, 126252, Note_on_c, 9, 44, 0
1, 126252, Note_on_c, 9, 54, 0
1, 126265, Note_on_c, 14, 61, 109
1, 126265, Note_on_c, 14, 64, 94
1, 126265, Note_on_c, 14, 69, 94
1, 126341, Note_on_c, 1, 33, 0
1, 126341, Note_on_c, 8, 33, 0
1, 126381, Note_on_c, 5, 81, 0
1, 126394, Note_on_c, 5, 73, 0
1, 126394, Note_on_c, 5, 76, 0
1, 126406, Note_on_c, 14, 69, 0
1, 126419, Note_on_c, 14, 61, 0
1, 126419, Note_on_c, 14, 64, 0
1, 126560, Note_on_c, 1, 33, 99
1, 126560, Note_on_c, 8, 33, 99
1, 126716, Note_on_c, 12, 52, 0
1, 126720, Note_on_c, 5, 73, 109
1, 126720, Note_on_c, 5, 76, 94
1, 126720, Note_on_c, 5, 81, 101
1, 126720, Note_on_c, 7, 81, 119
1, 126720, Note_on_c, 9, 35, 114
1, 126720, Note_on_c, 11, 41, 114
1, 126720, Note_on_c, 12, 55, 97
1, 126732, Note_on_c, 9, 35, 0
1, 126741, Note_on_c, 3, 73, 0
1, 126745, Note_on_c, 14, 61, 109
1, 126745, Note_on_c, 14, 64, 94
1, 126745, Note_on_c, 14, 69, 101
1, 126875, Note_on_c, 5, 81, 0
1, 126881, Note_on_c, 11, 41, 0
1, 126891, Note_on_c, 5, 73, 0
1, 126891, Note_on_c, 5, 76, 0
1, 126900, Note_on_c, 14, 69, 0
1, 126916, Note_on_c, 14, 61, 0
1, 126916, Note_on_c, 14, 64, 0
1, 127196, Note_on_c, 7, 81, 0
1, 127200, Note_on_c, 5, 73, 108
1, 127200, Note_on_c, 5, 76, 97
1, 127200, Note_on_c, 5, 81, 98
1, 127200, Note_on_c, 7, 79, 119
1, 127200, Note_on_c, 9, 44, 107
1, 127200, Note_on_c, 9, 69, 109
1, 127212, Note_on_c, 9, 44, 0
1, 127212, Note_on_c, 9, 69, 0
1, 127225, Note_on_c, 14, 61, 108
1, 127225, Note_on_c, 14, 64, 97
1, 127225, Note_on_c, 14, 69, 98
1, 127301, Note_on_c, 1, 33, 0
1, 127301, Note_on_c, 8, 33, 0
1, 127346, Note_on_c, 5, 81, 0
1, 127358, Note_on_c, 5, 73, 0
1, 127363, Note_on_c, 5, 76, 0
1, 127371, Note_on_c, 14, 69, 0
1, 127383, Note_on_c, 14, 61, 0
1, 127388, Note_on_c, 14, 64, 0
1, 127520, Note_on_c, 1, 33, 99
1, 127520, Note_on_c, 8, 33, 99
1, 127520, Note_on_c, 9, 35, 114
1, 127520, Note_on_c, 11, 41, 114
1, 127532, Note_on_c, 9, 35, 0
1, 127676, Note_on_c, 7, 79, 0
1, 127680, Note_on_c, 5, 73, 105
1, 127680, Note_on_c, 5, 76, 89
1, 127680, Note_on_c, 5, 81, 94
1, 127680, Note_on_c, 7, 77, 119
1, 127680, Note_on_c, 12, 55, 119
1, 127681, Note_on_c, 11, 41, 0
1, 127705, Note_on_c, 14, 61, 105
1, 127705, Note_on_c, 14, 64, 89
1, 127705, Note_on_c, 14, 69, 94
1, 127826, Note_on_c, 5, 81, 0
1, 127848, Note_on_c, 5, 73, 0
1, 127848, Note_on_c, 5, 76, 0
1, 127851, Note_on_c, 14, 69, 0
1, 127873, Note_on_c, 14, 61, 0
1, 127873, Note_on_c, 14, 64, 0
1, 127982, Note_on_c, 12, 55, 0
1, 127996, Note_on_c, 1, 33, 0
1, 127996, Note_on_c, 8, 33, 0
1, 128000, Note_on_c, 1, 36, 99
1, 128000, Note_on_c, 8, 36, 99
1, 128000, Note_on_c, 9, 35, 114
1, 128000, Note_on_c, 9, 70, 65
1, 128000, Note_on_c, 11, 41, 114
1, 128000, Note_on_c, 12, 57, 114
1, 128012, Note_on_c, 9, 35, 0
1, 128012, Note_on_c, 9, 70, 0
1, 128156, Note_on_c, 7, 77, 0
1, 128160, Note_on_c, 5, 73, 109
1, 128160, Note_on_c, 5, 76, 97
1, 128160, Note_on_c, 5, 81, 110
1, 128160, Note_on_c, 7, 76, 119
1, 128160, Note_on_c, 9, 44, 107
1, 128160, Note_on_c, 9, 54, 109
1, 128161, Note_on_c, 11, 41, 0
1, 128172, Note_on_c, 9, 44, 0
1, 128172, Note_on_c, 9, 54, 0
1, 128185, Note_on_c, 14, 61, 109
1, 128185, Note_on_c, 14, 64, 97
1, 128185, Note_on_c, 14, 69, 110
1, 128309, Note_on_c, 5, 81, 0
1, 128318, Note_on_c, 5, 73, 0
1, 128321, Note_on_c, 5, 76, 0
1, 128334, Note_on_c, 14, 69, 0
1, 128343, Note_on_c, 14, 61, 0
1, 128346, Note_on_c, 14, 64, 0
1, 128476, Note_on_c, 1, 36, 0
1, 128476, Note_on_c, 8, 36, 0
1, 128480, Note_on_c, 1, 37, 99
1, 128480, Note_on_c, 8, 37, 99
1, 128480, Note_on_c, 12, 50, 104
1, 128595, Note_on_c, 4, 61, 0
1, 128595, Note_on_c, 4, 64, 0
1, 128595, Note_on_c, 4, 69, 0
1, 128636, Note_on_c, 1, 37, 0
1, 128636, Note_on_c, 7, 76, 0
1, 128636, Note_on_c, 8, 37, 0
1, 128636, Note_on_c, 12, 55, 0
1, 128640, Note_on_c, 1, 38, 110
1, 128640, Note_on_c, 5, 74, 101
1, 128640, Note_on_c, 5, 77, 97
1, 128640, Note_on_c, 5, 81, 105
1, 128640, Note_on_c, 7, 74, 119
1, 128640, Note_on_c, 8, 38, 110
1, 128640, Note_on_c, 9, 35, 114
1, 128640, Note_on_c, 10, 74, 104
1, 128640, Note_on_c, 11, 41, 114
1, 128652, Note_on_c, 9, 35, 0
1, 128659, Note_on_c, 14, 62, 101
1, 128659, Note_on_c, 14, 65, 97
1, 128659, Note_on_c, 14, 69, 105
1, 128713, Note_on_c, 5, 81, 0
1, 128733, Note_on_c, 14, 69, 0
1, 128761, Note_on_c, 5, 77, 0
1, 128763, Note_on_c, 5, 74, 0
1, 128780, Note_on_c, 14, 65, 0
1, 128782, Note_on_c, 14, 62, 0
1, 128801, Note_on_c, 11, 41, 0
1, 129116, Note_on_c, 7, 74, 0
1, 129120, Note_on_c, 5, 74, 111
1, 129120, Note_on_c, 5, 77, 107
1, 129120, Note_on_c, 5, 81, 105
1, 129120, Note_on_c, 9, 44, 107
1, 129120, Note_on_c, 9, 69, 109
1, 129120, Note_on_c, 12, 62, 119
1, 129132, Note_on_c, 9, 44, 0
1, 129132, Note_on_c, 9, 69, 0
1, 129133, Note_on_c, 1, 38, 0
1, 129133, Note_on_c, 8, 38, 0
1, 129139, Note_on_c, 14, 62, 111
1, 129139, Note_on_c, 14, 65, 107
1, 129139, Note_on_c, 14, 69, 105
1, 129277, Note_on_c, 5, 81, 0
1, 129284, Note_on_c, 5, 77, 0
1, 129288, Note_on_c, 5, 74, 0
1, 129297, Note_on_c, 14, 69, 0
1, 129304, Note_on_c, 14, 65, 0
1, 129308, Note_on_c, 14, 62, 0
1, 129440, Note_on_c, 1, 38, 110
1, 129440, Note_on_c, 8, 38, 110
1, 129440, Note_on_c, 9, 35, 107
1, 129440, Note_on_c, 11, 41, 107
1, 129452, Note_on_c, 9, 35, 0
1, 129486, Note_on_c, 1, 38, 0
1, 129486, Note_on_c, 8, 38, 0
1, 129578, Lyric_t, "WE "
1, 129578, Note_on_c, 3, 76, 124
1, 129600, Note_on_c, 1, 38, 110
1, 129600, Note_on_c, 5, 74, 105
1, 129600, Note_on_c, 5, 77, 94
1, 129600, Note_on_c, 5, 81, 94
1, 129600, Note_on_c, 8, 38, 110
1, 129600, Note_on_c, 9, 35, 114
1, 129600, Note_on_c, 11, 41, 114
1, 129601, Note_on_c, 11, 41, 0
1, 129612, Note_on_c, 9, 35, 0
1, 129619, Note_on_c, 14, 62, 105
1, 129619, Note_on_c, 14, 65, 94
1, 129619, Note_on_c, 14, 69, 94
1, 129643, Note_on_c, 12, 57, 0
1, 129690, Note_on_c, 12, 50, 0
1, 129755, Note_on_c, 5, 81, 0
1, 129761, Note_on_c, 11, 41, 0
1, 129763, Note_on_c, 5, 74, 0
1, 129767, Note_on_c, 5, 77, 0
1, 129775, Note_on_c, 14, 69, 0
1, 129783, Note_on_c, 14, 62, 0
1, 129787, Note_on_c, 14, 65, 0
1, 129862, Note_on_c, 3, 76, 0
1, 129920, Note_on_c, 9, 70, 65
1, 129932, Note_on_c, 9, 70, 0
1, 129948, Lyric_t, "ON"
1, 129948, Note_on_c, 3, 77, 114
1, 130080, Note_on_c, 5, 74, 109
1, 130080, Note_on_c, 5, 77, 94
1, 130080, Note_on_c, 5, 81, 94
1, 130080, Note_on_c, 9, 44, 107
1, 130080, Note_on_c, 9, 54, 109
1, 130092, Note_on_c, 9, 44, 0
1, 130092, Note_on_c, 9, 54, 0
1, 130093, Note_on_c, 1, 38, 0
1, 130093, Note_on_c, 8, 38, 0
1, 130099, Note_on_c, 14, 62, 109
1, 130099, Note_on_c, 14, 65, 94
1, 130099, Note_on_c, 14, 69, 94
1, 130162, Note_on_c, 3, 77, 0
1, 130221, Note_on_c, 5, 81, 0
1, 130234, Note_on_c, 5, 74, 0
1, 130234, Note_on_c, 5, 77, 0
1, 130241, Note_on_c, 14, 69, 0
1, 130254, Note_on_c, 14, 62, 0
1, 130254, Note_on_c, 14, 65, 0
1, 130263, Lyric_t, "LY "
1, 130263, Note_on_c, 3, 76, 127
1, 130330, Note_on_c, 12, 62, 0
1, 130534, Note_on_c, 3, 76, 0
1, 130560, Note_on_c, 1, 38, 110
1, 130560, Note_on_c, 5, 74, 109
1, 130560, Note_on_c, 5, 77, 94
1, 130560, Note_on_c, 5, 81, 101
1, 130560, Note_on_c, 8, 38, 110
1, 130560, Note_on_c, 9, 35, 114
1, 130560, Note_on_c, 11, 41, 114
1, 130572, Note_on_c, 9, 35, 0
1, 130579, Note_on_c, 14, 62, 109
1, 130579, Note_on_c, 14, 65, 94
1, 130579, Note_on_c, 14, 69, 101
1, 130583, Lyric_t, "SAID "
1, 130583, Note_on_c, 3, 79, 123
1, 130715, Note_on_c, 5, 81, 0
1, 130721, Note_on_c, 11, 41, 0
1, 130731, Note_on_c, 5, 74, 0
1, 130731, Note_on_c, 5, 77, 0
1, 130735, Note_on_c, 14, 69, 0
1, 130751, Note_on_c, 14, 62, 0
1, 130751, Note_on_c, 14, 65, 0
1, 130854, Note_on_c, 3, 79, 0
1, 130998, Lyric_t, "GOOD"
1, 130998, Note_on_c, 3, 77, 125
1, 131040, Note_on_c, 5, 74, 108
1, 131040, Note_on_c, 5, 77, 97
1, 131040, Note_on_c, 5, 81, 98
1, 131040, Note_on_c, 9, 44, 107
1, 131040, Note_on_c, 9, 69, 109
1, 131040, Note_on_c, 12, 57, 124
1, 131052, Note_on_c, 9, 44, 0
1, 131052, Note_on_c, 9, 69, 0
1, 131059, Note_on_c, 14, 62, 108
1, 131059, Note_on_c, 14, 65, 97
1, 131059, Note_on_c, 14, 69, 98
1, 131073, Note_on_c, 1, 38, 0
1, 131073, Note_on_c, 8, 38, 0
1, 131186, Note_on_c, 5, 81, 0
1, 131198, Note_on_c, 5, 74, 0
1, 131201, Note_on_c, 3, 77, 0
1, 131203, Note_on_c, 5, 77, 0
1, 131206, Note_on_c, 14, 69, 0
1, 131218, Note_on_c, 14, 62, 0
1, 131223, Note_on_c, 14, 65, 0
1, 131320, Lyric_t, "BYE"
1, 131320, Lyric_t, "\015"
1, 131320, Note_on_c, 3, 77, 114
1, 131360, Note_on_c, 1, 38, 110
1, 131360, Note_on_c, 8, 38, 110
1, 131360, Note_on_c, 9, 35, 114
1, 131360, Note_on_c, 11, 41, 114
1, 131360, Note_on_c, 12, 65, 114
1, 131372, Note_on_c, 9, 35, 0
1, 131516, Note_on_c, 10, 74, 0
1, 131520, Note_on_c, 5, 74, 105
1, 131520, Note_on_c, 5, 77, 89
1, 131520, Note_on_c, 5, 81, 94
1, 131520, Note_on_c, 10, 77, 105
1, 131521, Note_on_c, 11, 41, 0
1, 131539, Note_on_c, 14, 62, 105
1, 131539, Note_on_c, 14, 65, 89
1, 131539, Note_on_c, 14, 69, 94
1, 131666, Note_on_c, 5, 81, 0
1, 131685, Note_on_c, 14, 69, 0
1, 131688, Note_on_c, 5, 74, 0
1, 131688, Note_on_c, 5, 77, 0
1, 131708, Note_on_c, 14, 62, 0
1, 131708, Note_on_c, 14, 65, 0
1, 131836, Note_on_c, 1, 38, 0
1, 131836, Note_on_c, 8, 38, 0
1, 131840, Note_on_c, 1, 41, 110
1, 131840, Note_on_c, 8, 41, 110
1, 131840, Note_on_c, 9, 35, 114
1, 131840, Note_on_c, 9, 70, 65
1, 131840, Note_on_c, 11, 41, 114
1, 131852, Note_on_c, 9, 35, 0
1, 131852, Note_on_c, 9, 70, 0
1, 131996, Note_on_c, 10, 77, 0
1, 132000, Note_on_c, 5, 74, 109
1, 132000, Note_on_c, 5, 77, 97
1, 132000, Note_on_c, 5, 81, 110
1, 132000, Note_on_c, 9, 44, 107
1, 132000, Note_on_c, 9, 54, 109
1, 132000, Note_on_c, 10, 81, 105
1, 132000, Note_on_c, 12, 62, 121
1, 132001, Note_on_c, 11, 41, 0
1, 132012, Note_on_c, 3, 77, 0
1, 132012, Note_on_c, 9, 44, 0
1, 132012, Note_on_c, 9, 54, 0
1, 132016, Note_on_c, 12, 57, 0
1, 132019, Note_on_c, 14, 62, 109
1, 132019, Note_on_c, 14, 65, 97
1, 132019, Note_on_c, 14, 69, 110
1, 132026, Lyric_t, "WITH "
1, 132026, Note_on_c, 3, 76, 124
1, 132041, Note_on_c, 12, 65, 0
1, 132149, Note_on_c, 5, 81, 0
1, 132158, Note_on_c, 5, 74, 0
1, 132161, Note_on_c, 5, 77, 0
1, 132168, Note_on_c, 14, 69, 0
1, 132177, Note_on_c, 14, 62, 0
1, 132180, Note_on_c, 14, 65, 0
1, 132277, Note_on_c, 3, 76, 0
1, 132315, Lyric_t, "WOR"
1, 132315, Note_on_c, 3, 77, 114
1, 132316, Note_on_c, 1, 41, 0
1, 132316, Note_on_c, 8, 41, 0
1, 132316, Note_on_c, 12, 62, 0
1, 132320, Note_on_c, 1, 42, 110
1, 132320, Note_on_c, 8, 42, 110
1, 132476, Note_on_c, 1, 42, 0
1, 132476, Note_on_c, 8, 42, 0
1, 132476, Note_on_c, 10, 81, 0
1, 132480, Note_on_c, 1, 43, 110
1, 132480, Note_on_c, 5, 74, 101
1, 132480, Note_on_c, 5, 79, 97
1, 132480, Note_on_c, 5, 82, 105
1, 132480, Note_on_c, 8, 43, 110
1, 132480, Note_on_c, 9, 35, 114
1, 132480, Note_on_c, 10, 79, 105
1, 132480, Note_on_c, 11, 41, 114
1, 132480, Note_on_c, 12, 55, 114
1, 132492, Note_on_c, 9, 35, 0
1, 132499, Note_on_c, 14, 62, 101
1, 132499, Note_on_c, 14, 67, 97
1, 132499, Note_on_c, 14, 70, 105
1, 132553, Note_on_c, 5, 82, 0
1, 132573, Note_on_c, 14, 70, 0
1, 132601, Note_on_c, 5, 79, 0
1, 132603, Note_on_c, 5, 74, 0
1, 132620, Note_on_c, 14, 67, 0
1, 132622, Note_on_c, 14, 62, 0
1, 132635, Note_on_c, 3, 77, 0
1, 132641, Note_on_c, 11, 41, 0
1, 132765, Lyric_t, "DS"
1, 132765, Lyric_t, "\015"
1, 132765, Note_on_c, 3, 70, 127
1, 132960, Note_on_c, 5, 74, 111
1, 132960, Note_on_c, 5, 79, 107
1, 132960, Note_on_c, 5, 82, 105
1, 132960, Note_on_c, 9, 44, 107
1, 132960, Note_on_c, 9, 69, 109
1, 132960, Note_on_c, 12, 58, 122
1, 132972, Note_on_c, 9, 44, 0
1, 132972, Note_on_c, 9, 69, 0
1, 132979, Note_on_c, 14, 62, 111
1, 132979, Note_on_c, 14, 67, 107
1, 132979, Note_on_c, 14, 70, 105
1, 132988, Note_on_c, 3, 70, 0
1, 132993, Note_on_c, 1, 43, 0
1, 132993, Note_on_c, 8, 43, 0
1, 133117, Note_on_c, 5, 82, 0
1, 133124, Note_on_c, 5, 79, 0
1, 133128, Note_on_c, 5, 74, 0
1, 133137, Note_on_c, 14, 70, 0
1, 133144, Note_on_c, 14, 67, 0
1, 133148, Note_on_c, 14, 62, 0
1, 133280, Note_on_c, 1, 31, 110
1, 133280, Note_on_c, 8, 31, 110
1, 133280, Note_on_c, 9, 35, 107
1, 133280, Note_on_c, 11, 41, 107
1, 133292, Note_on_c, 9, 35, 0
1, 133329, Note_on_c, 1, 31, 0
1, 133329, Note_on_c, 8, 31, 0
1, 133440, Note_on_c, 1, 31, 110
1, 133440, Note_on_c, 5, 74, 105
1, 133440, Note_on_c, 5, 79, 94
1, 133440, Note_on_c, 5, 82, 94
1, 133440, Note_on_c, 8, 31, 110
1, 133440, Note_on_c, 9, 35, 114
1, 133440, Note_on_c, 11, 41, 114
1, 133440, Note_on_c, 12, 62, 119
1, 133441, Note_on_c, 11, 41, 0
1, 133452, Note_on_c, 9, 35, 0
1, 133459, Lyric_t, "I "
1, 133459, Note_on_c, 3, 76, 127
1, 133459, Note_on_c, 14, 62, 105
1, 133459, Note_on_c, 14, 67, 94
1, 133459, Note_on_c, 14, 70, 94
1, 133595, Note_on_c, 5, 82, 0
1, 133601, Note_on_c, 11, 41, 0
1, 133603, Note_on_c, 5, 74, 0
1, 133607, Note_on_c, 5, 79, 0
1, 133615, Note_on_c, 14, 70, 0
1, 133623, Note_on_c, 14, 62, 0
1, 133627, Note_on_c, 14, 67, 0
1, 133760, Note_on_c, 9, 70, 65
1, 133772, Note_on_c, 9, 70, 0
1, 133792, Lyric_t, "DIED "
1, 133792, Note_on_c, 3, 77, 124
1, 133804, Note_on_c, 3, 76, 0
1, 133920, Note_on_c, 5, 74, 109
1, 133920, Note_on_c, 5, 79, 94
1, 133920, Note_on_c, 5, 82, 94
1, 133920, Note_on_c, 9, 44, 107
1, 133920, Note_on_c, 9, 54, 109
1, 133932, Note_on_c, 9, 44, 0
1, 133932, Note_on_c, 9, 54, 0
1, 133933, Note_on_c, 1, 31, 0
1, 133933, Note_on_c, 8, 31, 0
1, 133939, Note_on_c, 14, 62, 109
1, 133939, Note_on_c, 14, 67, 94
1, 133939, Note_on_c, 14, 70, 94
1, 134061, Note_on_c, 5, 82, 0
1, 134074, Note_on_c, 5, 74, 0
1, 134074, Note_on_c, 5, 79, 0
1, 134081, Note_on_c, 14, 70, 0
1, 134094, Note_on_c, 14, 62, 0
1, 134094, Note_on_c, 14, 67, 0
1, 134192, Note_on_c, 3, 77, 0
1, 134208, Lyric_t, "A "
1, 134208, Note_on_c, 3, 76, 127
1, 134400, Note_on_c, 1, 31, 110
1, 134400, Note_on_c, 5, 74, 109
1, 134400, Note_on_c, 5, 79, 94
1, 134400, Note_on_c, 5, 82, 101
1, 134400, Note_on_c, 8, 31, 110
1, 134400, Note_on_c, 9, 35, 114
1, 134400, Note_on_c, 11, 41, 114
1, 134400, Note_on_c, 12, 67, 119
1, 134412, Note_on_c, 9, 35, 0
1, 134419, Note_on_c, 14, 62, 109
1, 134419, Note_on_c, 14, 67, 94
1, 134419, Note_on_c, 14, 70, 101
1, 134555, Note_on_c, 5, 82, 0
1, 134561, Note_on_c, 11, 41, 0
1, 134571, Note_on_c, 5, 74, 0
1, 134571, Note_on_c, 5, 79, 0
1, 134575, Note_on_c, 14, 70, 0
1, 134591, Note_on_c, 14, 62, 0
1, 134591, Note_on_c, 14, 67, 0
1, 134688, Lyric_t, "HUN"
1, 134688, Note_on_c, 3, 79, 127
1, 134716, Note_on_c, 12, 62, 0
1, 134728, Note_on_c, 3, 76, 0
1, 134876, Note_on_c, 12, 67, 0
1, 134880, Note_on_c, 5, 74, 108
1, 134880, Note_on_c, 5, 79, 97
1, 134880, Note_on_c, 5, 82, 98
1, 134880, Note_on_c, 9, 44, 107
1, 134880, Note_on_c, 9, 69, 109
1, 134880, Note_on_c, 12, 62, 119
1, 134892, Note_on_c, 9, 44, 0
1, 134892, Note_on_c, 9, 69, 0
1, 134893, Note_on_c, 1, 31, 0
1, 134893, Note_on_c, 8, 31, 0
1, 134899, Note_on_c, 14, 62, 108
1, 134899, Note_on_c, 14, 67, 97
1, 134899, Note_on_c, 14, 70, 98
1, 134909, Note_on_c, 12, 55, 0
1, 134951, Note_on_c, 12, 58, 0
1, 135026, Note_on_c, 5, 82, 0
1, 135038, Note_on_c, 5, 74, 0
1, 135043, Note_on_c, 5, 79, 0
1, 135046, Note_on_c, 14, 70, 0
1, 135058, Note_on_c, 14, 62, 0
1, 135063, Note_on_c, 14, 67, 0
1, 135106, Note_on_c, 3, 79, 0
1, 135110, Lyric_t, "DRED "
1, 135110, Note_on_c, 3, 77, 115
1, 135200, Note_on_c, 1, 31, 110
1, 135200, Note_on_c, 8, 31, 110
1, 135200, Note_on_c, 9, 35, 114
1, 135200, Note_on_c, 11, 41, 114
1, 135212, Note_on_c, 9, 35, 0
1, 135213, Note_on_c, 3, 77, 0
1, 135311, Lyric_t, "TIMES"
1, 135311, Lyric_t, "\015"
1, 135311, Note_on_c, 3, 77, 119
1, 135356, Note_on_c, 12, 62, 0
1, 135360, Note_on_c, 5, 74, 105
1, 135360, Note_on_c, 5, 79, 89
1, 135360, Note_on_c, 5, 82, 94
1, 135360, Note_on_c, 12, 58, 119
1, 135361, Note_on_c, 11, 41, 0
1, 135379, Note_on_c, 14, 62, 105
1, 135379, Note_on_c, 14, 67, 89
1, 135379, Note_on_c, 14, 70, 94
1, 135506, Note_on_c, 5, 82, 0
1, 135525, Note_on_c, 14, 70, 0
1, 135528, Note_on_c, 5, 74, 0
1, 135528, Note_on_c, 5, 79, 0
1, 135548, Note_on_c, 14, 62, 0
1, 135548, Note_on_c, 14, 67, 0
1, 135680, Note_on_c, 1, 32, 110
1, 135680, Note_on_c, 8, 32, 110
1, 135680, Note_on_c, 9, 35, 114
1, 135680, Note_on_c, 9, 70, 65
1, 135680, Note_on_c, 11, 41, 114
1, 135692, Note_on_c, 9, 35, 0
1, 135692, Note_on_c, 9, 70, 0
1, 135693, Note_on_c, 1, 31, 0
1, 135693, Note_on_c, 8, 31, 0
1, 135840, Note_on_c, 5, 74, 109
1, 135840, Note_on_c, 5, 79, 97
1, 135840, Note_on_c, 5, 82, 110
1, 135840, Note_on_c, 9, 44, 107
1, 135840, Note_on_c, 9, 54, 109
1, 135841, Note_on_c, 11, 41, 0
1, 135852, Note_on_c, 9, 44, 0
1, 135852, Note_on_c, 9, 54, 0
1, 135859, Note_on_c, 14, 62, 109
1, 135859, Note_on_c, 14, 67, 97
1, 135859, Note_on_c, 14, 70, 110
1, 135930, Note_on_c, 3, 77, 0
1, 135989, Note_on_c, 5, 82, 0
1, 135998, Note_on_c, 5, 74, 0
1, 136001, Note_on_c, 5, 79, 0
1, 136008, Note_on_c, 14, 70, 0
1, 136017, Note_on_c, 14, 62, 0
1, 136020, Note_on_c, 14, 67, 0
1, 136156, Note_on_c, 1, 32, 0
1, 136156, Note_on_c, 8, 32, 0
1, 136156, Note_on_c, 12, 58, 0
1, 136160, Note_on_c, 1, 33, 110
1, 136160, Note_on_c, 8, 33, 110
1, 136160, Note_on_c, 12, 55, 119
1, 136236, Note_on_c, 12, 55, 0
1, 136240, Note_on_c, 12, 57, 119
1, 136316, Note_on_c, 1, 33, 0
1, 136316, Note_on_c, 8, 33, 0
1, 136316, Note_on_c, 10, 79, 0
1, 136316, Note_on_c, 12, 57, 0
1, 136320, Note_on_c, 1, 34, 110
1, 136320, Note_on_c, 5, 74, 101
1, 136320, Note_on_c, 5, 77, 97
1, 136320, Note_on_c, 5, 82, 105
1, 136320, Note_on_c, 7, 82, 104
1, 136320, Note_on_c, 8, 34, 110
1, 136320, Note_on_c, 9, 35, 114
1, 136320, Note_on_c, 10, 70, 104
1, 136320, Note_on_c, 10, 82, 104
1, 136320, Note_on_c, 11, 41, 114
1, 136320, Note_on_c, 12, 58, 127
1, 136332, Note_on_c, 9, 35, 0
1, 136339, Note_on_c, 14, 62, 101
1, 136339, Note_on_c, 14, 65, 97
1, 136339, Note_on_c, 14, 70, 105
1, 136393, Note_on_c, 5, 82, 0
1, 136413, Note_on_c, 14, 70, 0
1, 136441, Note_on_c, 5, 77, 0
1, 136443, Note_on_c, 5, 74, 0
1, 136460, Note_on_c, 14, 65, 0
1, 136462, Note_on_c, 14, 62, 0
1, 136481, Note_on_c, 11, 41, 0
1, 136640, Note_on_c, 12, 62, 105
1, 136800, Note_on_c, 5, 74, 111
1, 136800, Note_on_c, 5, 77, 107
1, 136800, Note_on_c, 5, 82, 105
1, 136800, Note_on_c, 9, 44, 107
1, 136800, Note_on_c, 9, 69, 109
1, 136800, Note_on_c, 12, 65, 89
1, 136812, Note_on_c, 9, 44, 0
1, 136812, Note_on_c, 9, 69, 0
1, 136813, Note_on_c, 1, 34, 0
1, 136813, Note_on_c, 8, 34, 0
1, 136819, Note_on_c, 14, 62, 111
1, 136819, Note_on_c, 14, 65, 107
1, 136819, Note_on_c, 14, 70, 105
1, 136957, Note_on_c, 5, 82, 0
1, 136964, Note_on_c, 5, 77, 0
1, 136968, Note_on_c, 5, 74, 0
1, 136977, Note_on_c, 14, 70, 0
1, 136984, Note_on_c, 14, 65, 0
1, 136988, Note_on_c, 14, 62, 0
1, 137075, Lyric_t, "YOU "
1, 137075, Note_on_c, 3, 76, 119
1, 137120, Note_on_c, 1, 34, 110
1, 137120, Note_on_c, 8, 34, 110
1, 137120, Note_on_c, 9, 35, 107
1, 137120, Note_on_c, 11, 41, 107
1, 137120, Note_on_c, 12, 70, 115
1, 137132, Note_on_c, 9, 35, 0
1, 137169, Note_on_c, 1, 34, 0
1, 137169, Note_on_c, 8, 34, 0
1, 137276, Note_on_c, 10, 70, 0
1, 137276, Note_on_c, 10, 82, 0
1, 137280, Note_on_c, 1, 34, 110
1, 137280, Note_on_c, 5, 74, 105
1, 137280, Note_on_c, 5, 77, 94
1, 137280, Note_on_c, 5, 82, 94
1, 137280, Note_on_c, 7, 81, 104
1, 137280, Note_on_c, 8, 34, 110
1, 137280, Note_on_c, 9, 35, 114
1, 137280, Note_on_c, 10, 69, 104
1, 137280, Note_on_c, 10, 81, 104
1, 137280, Note_on_c, 11, 41, 114
1, 137280, Note_on_c, 12, 69, 124
1, 137281, Note_on_c, 11, 41, 0
1, 137292, Note_on_c, 9, 35, 0
1, 137295, Note_on_c, 7, 82, 0
1, 137299, Note_on_c, 14, 62, 105
1, 137299, Note_on_c, 14, 65, 94
1, 137299, Note_on_c, 14, 70, 94
1, 137340, Note_on_c, 12, 70, 0
1, 137435, Note_on_c, 5, 82, 0
1, 137441, Note_on_c, 11, 41, 0
1, 137443, Note_on_c, 5, 74, 0
1, 137447, Note_on_c, 5, 77, 0
1, 137455, Note_on_c, 14, 70, 0
1, 137463, Note_on_c, 14, 62, 0
1, 137467, Note_on_c, 14, 65, 0
1, 137600, Note_on_c, 9, 70, 65
1, 137612, Note_on_c, 9, 70, 0
1, 137615, Note_on_c, 3, 76, 0
1, 137632, Lyric_t, "GO "
1, 137632, Note_on_c, 3, 77, 114
1, 137760, Note_on_c, 5, 74, 109
1, 137760, Note_on_c, 5, 77, 94
1, 137760, Note_on_c, 5, 82, 94
1, 137760, Note_on_c, 9, 44, 107
1, 137760, Note_on_c, 9, 54, 109
1, 137772, Note_on_c, 9, 44, 0
1, 137772, Note_on_c, 9, 54, 0
1, 137773, Note_on_c, 1, 34, 0
1, 137773, Note_on_c, 8, 34, 0
1, 137779, Note_on_c, 14, 62, 109
1, 137779, Note_on_c, 14, 65, 94
1, 137779, Note_on_c, 14, 70, 94
1, 137901, Note_on_c, 5, 82, 0
1, 137910, Note_on_c, 12, 58, 0
1, 137914, Note_on_c, 5, 74, 0
1, 137914, Note_on_c, 5, 77, 0
1, 137921, Note_on_c, 14, 70, 0
1, 137934, Note_on_c, 14, 62, 0
1, 137934, Note_on_c, 14, 65, 0
1, 137938, Note_on_c, 12, 65, 0
1, 137942, Note_on_c, 12, 62, 0
1, 137951, Note_on_c, 12, 69, 0
1, 138181, Note_on_c, 3, 77, 0
1, 138184, Note_on_c, 3, 76, 119
1, 138236, Note_on_c, 10, 69, 0
1, 138236, Note_on_c, 10, 81, 0
1, 138240, Note_on_c, 1, 34, 110
1, 138240, Note_on_c, 5, 74, 109
1, 138240, Note_on_c, 5, 77, 94
1, 138240, Note_on_c, 5, 82, 101
1, 138240, Note_on_c, 7, 79, 104
1, 138240, Note_on_c, 8, 34, 110
1, 138240, Note_on_c, 9, 35, 114
1, 138240, Note_on_c, 10, 67, 104
1, 138240, Note_on_c, 10, 79, 104
1, 138240, Note_on_c, 11, 41, 114
1, 138252, Note_on_c, 9, 35, 0
1, 138255, Note_on_c, 7, 81, 0
1, 138258, Note_on_c, 12, 58, 127
1, 138259, Note_on_c, 14, 62, 109
1, 138259, Note_on_c, 14, 65, 94
1, 138259, Note_on_c, 14, 70, 101
1, 138395, Note_on_c, 5, 82, 0
1, 138401, Note_on_c, 11, 41, 0
1, 138411, Note_on_c, 5, 74, 0
1, 138411, Note_on_c, 5, 77, 0
1, 138415, Note_on_c, 14, 70, 0
1, 138431, Note_on_c, 14, 62, 0
1, 138431, Note_on_c, 14, 65, 0
1, 138528, Note_on_c, 12, 62, 114
1, 138664, Lyric_t, "BACK "
1, 138664, Note_on_c, 3, 79, 119
1, 138693, Note_on_c, 3, 76, 0
1, 138720, Note_on_c, 5, 74, 108
1, 138720, Note_on_c, 5, 77, 97
1, 138720, Note_on_c, 5, 82, 98
1, 138720, Note_on_c, 9, 44, 107
1, 138720, Note_on_c, 9, 69, 109
1, 138732, Note_on_c, 9, 44, 0
1, 138732, Note_on_c, 9, 69, 0
1, 138733, Note_on_c, 1, 34, 0
1, 138733, Note_on_c, 8, 34, 0
1, 138739, Note_on_c, 14, 62, 108
1, 138739, Note_on_c, 14, 65, 97
1, 138739, Note_on_c, 14, 70, 98
1, 138866, Note_on_c, 5, 82, 0
1, 138878, Note_on_c, 5, 74, 0
1, 138883, Note_on_c, 5, 77, 0
1, 138886, Note_on_c, 14, 70, 0
1, 138898, Note_on_c, 14, 62, 0
1, 138903, Note_on_c, 14, 65, 0
1, 139020, Note_on_c, 3, 79, 0
1, 139024, Lyric_t, "TO "
1, 139024, Note_on_c, 3, 77, 127
1, 139040, Note_on_c, 1, 34, 110
1, 139040, Note_on_c, 8, 34, 110
1, 139040, Note_on_c, 9, 35, 114
1, 139040, Note_on_c, 11, 41, 114
1, 139040, Note_on_c, 12, 67, 115
1, 139052, Note_on_c, 9, 35, 0
1, 139191, Note_on_c, 12, 67, 0
1, 139195, Note_on_c, 12, 65, 105
1, 139196, Note_on_c, 10, 67, 0
1, 139196, Note_on_c, 10, 79, 0
1, 139200, Note_on_c, 5, 74, 105
1, 139200, Note_on_c, 5, 77, 89
1, 139200, Note_on_c, 5, 82, 94
1, 139200, Note_on_c, 7, 77, 104
1, 139200, Note_on_c, 10, 65, 104
1, 139200, Note_on_c, 10, 77, 104
1, 139201, Note_on_c, 11, 41, 0
1, 139215, Note_on_c, 7, 79, 0
1, 139219, Note_on_c, 14, 62, 105
1, 139219, Note_on_c, 14, 65, 89
1, 139219, Note_on_c, 14, 70, 94
1, 139346, Note_on_c, 5, 82, 0
1, 139352, Note_on_c, 3, 77, 0
1, 139365, Note_on_c, 14, 70, 0
1, 139368, Note_on_c, 5, 74, 0
1, 139368, Note_on_c, 5, 77, 0
1, 139388, Note_on_c, 14, 62, 0
1, 139388, Note_on_c, 14, 65, 0
1, 139442, Lyric_t, "HER"
1, 139442, Lyric_t, "\015"
1, 139442, Note_on_c, 3, 77, 114
1, 139467, Note_on_c, 1, 34, 0
1, 139467, Note_on_c, 8, 34, 0
1, 139520, Note_on_c, 1, 34, 110
1, 139520, Note_on_c, 8, 34, 110
1, 139520, Note_on_c, 9, 35, 114
1, 139520, Note_on_c, 9, 70, 65
1, 139520, Note_on_c, 11, 41, 114
1, 139532, Note_on_c, 9, 35, 0
1, 139532, Note_on_c, 9, 70, 0
1, 139680, Note_on_c, 5, 74, 109
1, 139680, Note_on_c, 5, 77, 97
1, 139680, Note_on_c, 5, 82, 110
1, 139680, Note_on_c, 9, 44, 107
1, 139680, Note_on_c, 9, 54, 109
1, 139681, Note_on_c, 11, 41, 0
1, 139692, Note_on_c, 9, 44, 0
1, 139692, Note_on_c, 9, 54, 0
1, 139699, Note_on_c, 14, 62, 109
1, 139699, Note_on_c, 14, 65, 97
1, 139699, Note_on_c, 14, 70, 110
1, 139829, Note_on_c, 5, 82, 0
1, 139838, Note_on_c, 5, 74, 0
1, 139841, Note_on_c, 5, 77, 0
1, 139848, Note_on_c, 14, 70, 0
1, 139857, Note_on_c, 14, 62, 0
1, 139860, Note_on_c, 14, 65, 0
1, 139947, Note_on_c, 1, 34, 0
1, 139947, Note_on_c, 8, 34, 0
1, 139978, Note_on_c, 12, 58, 0
1, 139983, Note_on_c, 12, 65, 0
1, 139991, Note_on_c, 12, 62, 0
1, 139996, Note_on_c, 3, 77, 0
1, 140000, Lyric_t, "AND "
1, 140000, Note_on_c, 1, 34, 110
1, 140000, Note_on_c, 3, 76, 119
1, 140000, Note_on_c, 8, 34, 110
1, 140049, Note_on_c, 1, 34, 0
1, 140049, Note_on_c, 8, 34, 0
1, 140076, Note_on_c, 12, 57, 105
1, 140137, Note_on_c, 12, 61, 127
1, 140156, Note_on_c, 3, 76, 0
1, 140160, Lyric_t, "I "
1, 140160, Note_on_c, 1, 33, 110
1, 140160, Note_on_c, 3, 76, 114
1, 140160, Note_on_c, 5, 73, 101
1, 140160, Note_on_c, 5, 76, 97
1, 140160, Note_on_c, 5, 81, 105
1, 140160, Note_on_c, 8, 33, 110
1, 140160, Note_on_c, 9, 35, 114
1, 140160, Note_on_c, 10, 64, 104
1, 140160, Note_on_c, 10, 76, 104
1, 140160, Note_on_c, 11, 41, 114
1, 140172, Note_on_c, 9, 35, 0
1, 140175, Note_on_c, 7, 77, 0
1, 140175, Note_on_c, 10, 65, 0
1, 140175, Note_on_c, 10, 77, 0
1, 140179, Note_on_c, 14, 61, 101
1, 140179, Note_on_c, 14, 64, 97
1, 140179, Note_on_c, 14, 69, 105
1, 140194, Note_on_c, 12, 64, 119
1, 140233, Note_on_c, 5, 81, 0
1, 140253, Note_on_c, 14, 69, 0
1, 140281, Note_on_c, 5, 76, 0
1, 140283, Note_on_c, 5, 73, 0
1, 140300, Note_on_c, 14, 64, 0
1, 140302, Note_on_c, 14, 61, 0
1, 140321, Note_on_c, 11, 41, 0
1, 140640, Note_on_c, 5, 73, 111
1, 140640, Note_on_c, 5, 76, 107
1, 140640, Note_on_c, 5, 81, 105
1, 140640, Note_on_c, 9, 44, 107
1, 140640, Note_on_c, 9, 69, 109
1, 140652, Note_on_c, 9, 44, 0
1, 140652, Note_on_c, 9, 69, 0
1, 140653, Note_on_c, 1, 33, 0
1, 140653, Note_on_c, 8, 33, 0
1, 140659, Note_on_c, 14, 61, 111
1, 140659, Note_on_c, 14, 64, 107
1, 140659, Note_on_c, 14, 69, 105
1, 140797, Note_on_c, 5, 81, 0
1, 140804, Note_on_c, 5, 76, 0
1, 140808, Note_on_c, 5, 73, 0
1, 140817, Note_on_c, 14, 69, 0
1, 140824, Note_on_c, 14, 64, 0
1, 140828, Note_on_c, 14, 61, 0
1, 140909, Note_on_c, 12, 61, 0
1, 140960, Note_on_c, 1, 33, 110
1, 140960, Note_on_c, 8, 33, 110
1, 140960, Note_on_c, 9, 35, 107
1, 140960, Note_on_c, 11, 41, 107
1, 140972, Note_on_c, 9, 35, 0
1, 140983, Note_on_c, 12, 64, 0
1, 141003, Note_on_c, 12, 57, 0
1, 141009, Note_on_c, 1, 33, 0
1, 141009, Note_on_c, 8, 33, 0
1, 141036, Note_on_c, 12, 57, 105
1, 141097, Note_on_c, 12, 61, 127
1, 141116, Note_on_c, 3, 76, 0
1, 141120, Lyric_t, "GO "
1, 141120, Note_on_c, 1, 33, 110
1, 141120, Note_on_c, 3, 74, 114
1, 141120, Note_on_c, 5, 73, 105
1, 141120, Note_on_c, 5, 76, 94
1, 141120, Note_on_c, 5, 81, 94
1, 141120, Note_on_c, 8, 33, 110
1, 141120, Note_on_c, 9, 35, 114
1, 141120, Note_on_c, 11, 41, 114
1, 141121, Note_on_c, 11, 41, 0
1, 141132, Note_on_c, 9, 35, 0
1, 141139, Note_on_c, 14, 61, 105
1, 141139, Note_on_c, 14, 64, 94
1, 141139, Note_on_c, 14, 69, 94
1, 141154, Note_on_c, 12, 64, 119
1, 141275, Note_on_c, 5, 81, 0
1, 141281, Note_on_c, 11, 41, 0
1, 141283, Note_on_c, 5, 73, 0
1, 141287, Note_on_c, 5, 76, 0
1, 141295, Note_on_c, 14, 69, 0
1, 141303, Note_on_c, 14, 61, 0
1, 141307, Note_on_c, 14, 64, 0
1, 141440, Note_on_c, 9, 70, 65
1, 141452, Note_on_c, 9, 70, 0
1, 141600, Note_on_c, 5, 73, 109
1, 141600, Note_on_c, 5, 76, 94
1, 141600, Note_on_c, 5, 81, 94
1, 141600, Note_on_c, 9, 44, 107
1, 141600, Note_on_c, 9, 54, 109
1, 141612, Note_on_c, 9, 44, 0
1, 141612, Note_on_c, 9, 54, 0
1, 141613, Note_on_c, 1, 33, 0
1, 141613, Note_on_c, 8, 33, 0
1, 141619, Note_on_c, 14, 61, 109
1, 141619, Note_on_c, 14, 64, 94
1, 141619, Note_on_c, 14, 69, 94
1, 141741, Note_on_c, 5, 81, 0
1, 141754, Note_on_c, 5, 73, 0
1, 141754, Note_on_c, 5, 76, 0
1, 141761, Note_on_c, 14, 69, 0
1, 141774, Note_on_c, 14, 61, 0
1, 141774, Note_on_c, 14, 64, 0
1, 141869, Note_on_c, 12, 61, 0
1, 141943, Note_on_c, 12, 64, 0
1, 141963, Note_on_c, 12, 57, 0
1, 141996, Note_on_c, 12, 57, 101
1, 142024, Note_on_c, 12, 61, 127
1, 142076, Note_on_c, 3, 74, 0
1, 142080, Lyric_t, "BACK "
1, 142080, Note_on_c, 1, 33, 110
1, 142080, Note_on_c, 3, 73, 114
1, 142080, Note_on_c, 5, 73, 109
1, 142080, Note_on_c, 5, 76, 94
1, 142080, Note_on_c, 5, 81, 101
1, 142080, Note_on_c, 8, 33, 110
1, 142080, Note_on_c, 9, 35, 114
1, 142080, Note_on_c, 10, 65, 104
1, 142080, Note_on_c, 10, 77, 104
1, 142080, Note_on_c, 11, 41, 114
1, 142092, Note_on_c, 9, 35, 0
1, 142094, Note_on_c, 12, 65, 114
1, 142095, Note_on_c, 10, 64, 0
1, 142095, Note_on_c, 10, 76, 0
1, 142099, Note_on_c, 14, 61, 109
1, 142099, Note_on_c, 14, 64, 94
1, 142099, Note_on_c, 14, 69, 101
1, 142235, Note_on_c, 5, 81, 0
1, 142241, Note_on_c, 11, 41, 0
1, 142251, Note_on_c, 5, 73, 0
1, 142251, Note_on_c, 5, 76, 0
1, 142255, Note_on_c, 14, 69, 0
1, 142271, Note_on_c, 14, 61, 0
1, 142271, Note_on_c, 14, 64, 0
1, 142560, Note_on_c, 5, 73, 108
1, 142560, Note_on_c, 5, 76, 97
1, 142560, Note_on_c, 5, 81, 98
1, 142560, Note_on_c, 9, 44, 107
1, 142560, Note_on_c, 9, 69, 109
1, 142572, Note_on_c, 9, 44, 0
1, 142572, Note_on_c, 9, 69, 0
1, 142573, Note_on_c, 1, 33, 0
1, 142573, Note_on_c, 8, 33, 0
1, 142579, Note_on_c, 14, 61, 108
1, 142579, Note_on_c, 14, 64, 97
1, 142579, Note_on_c, 14, 69, 98
1, 142706, Note_on_c, 5, 81, 0
1, 142718, Note_on_c, 5, 73, 0
1, 142723, Note_on_c, 5, 76, 0
1, 142726, Note_on_c, 14, 69, 0
1, 142738, Note_on_c, 14, 61, 0
1, 142743, Note_on_c, 14, 64, 0
1, 142750, Note_on_c, 12, 61, 0
1, 142796, Note_on_c, 12, 57, 0
1, 142880, Note_on_c, 1, 33, 110
1, 142880, Note_on_c, 8, 33, 110
1, 142880, Note_on_c, 9, 35, 114
1, 142880, Note_on_c, 11, 41, 114
1, 142884, Note_on_c, 12, 57, 101
1, 142892, Note_on_c, 9, 35, 0
1, 142893, Note_on_c, 12, 65, 0
1, 142937, Note_on_c, 12, 61, 127
1, 143014, Note_on_c, 12, 64, 114
1, 143036, Note_on_c, 3, 73, 0
1, 143036, Note_on_c, 10, 65, 0
1, 143036, Note_on_c, 10, 77, 0
1, 143040, Lyric_t, "TO"
1, 143040, Lyric_t, "\015"
1, 143040, Note_on_c, 3, 69, 114
1, 143040, Note_on_c, 5, 73, 105
1, 143040, Note_on_c, 5, 76, 89
1, 143040, Note_on_c, 5, 81, 94
1, 143040, Note_on_c, 10, 64, 104
1, 143040, Note_on_c, 12, 55, 119
1, 143041, Note_on_c, 11, 41, 0
1, 143059, Note_on_c, 14, 61, 105
1, 143059, Note_on_c, 14, 64, 89
1, 143059, Note_on_c, 14, 69, 94
1, 143186, Note_on_c, 5, 81, 0
1, 143205, Note_on_c, 14, 69, 0
1, 143208, Note_on_c, 5, 73, 0
1, 143208, Note_on_c, 5, 76, 0
1, 143228, Note_on_c, 14, 61, 0
1, 143228, Note_on_c, 14, 64, 0
1, 143307, Note_on_c, 1, 33, 0
1, 143307, Note_on_c, 8, 33, 0
1, 143342, Note_on_c, 12, 55, 0
1, 143360, Note_on_c, 1, 33, 110
1, 143360, Note_on_c, 8, 33, 110
1, 143360, Note_on_c, 9, 35, 114
1, 143360, Note_on_c, 9, 70, 65
1, 143360, Note_on_c, 11, 41, 114
1, 143360, Note_on_c, 12, 57, 114
1, 143372, Note_on_c, 9, 35, 0
1, 143372, Note_on_c, 9, 70, 0
1, 143520, Note_on_c, 5, 73, 109
1, 143520, Note_on_c, 5, 76, 97
1, 143520, Note_on_c, 5, 81, 110
1, 143520, Note_on_c, 9, 44, 107
1, 143520, Note_on_c, 9, 54, 109
1, 143521, Note_on_c, 11, 41, 0
1, 143532, Note_on_c, 9, 44, 0
1, 143532, Note_on_c, 9, 54, 0
1, 143539, Note_on_c, 14, 61, 109
1, 143539, Note_on_c, 14, 64, 97
1, 143539, Note_on_c, 14, 69, 110
1, 143593, Note_on_c, 12, 61, 0
1, 143624, Note_on_c, 12, 64, 0
1, 143632, Note_on_c, 12, 57, 0
1, 143669, Note_on_c, 5, 81, 0
1, 143678, Note_on_c, 5, 73, 0
1, 143681, Note_on_c, 5, 76, 0
1, 143688, Note_on_c, 14, 69, 0
1, 143697, Note_on_c, 14, 61, 0
1, 143700, Note_on_c, 14, 64, 0
1, 143787, Note_on_c, 1, 33, 0
1, 143787, Note_on_c, 8, 33, 0
1, 143840, Note_on_c, 1, 33, 110
1, 143840, Note_on_c, 8, 33, 110
1, 143840, Note_on_c, 12, 50, 104
1, 143844, Note_on_c, 12, 57, 101
1, 143889, Note_on_c, 1, 33, 0
1, 143889, Note_on_c, 8, 33, 0
1, 143897, Note_on_c, 12, 61, 127
1, 143974, Note_on_c, 12, 64, 114
1, 143996, Note_on_c, 3, 69, 0
1, 143996, Note_on_c, 10, 64, 0
1, 144000, Note_on_c, 1, 38, 110
1, 144000, Note_on_c, 5, 74, 101
1, 144000, Note_on_c, 5, 77, 97
1, 144000, Note_on_c, 5, 81, 105
1, 144000, Note_on_c, 8, 38, 110
1, 144000, Note_on_c, 9, 35, 114
1, 144000, Note_on_c, 10, 74, 104
1, 144000, Note_on_c, 11, 41, 114
1, 144012, Note_on_c, 9, 35, 0
1, 144019, Note_on_c, 14, 62, 101
1, 144019, Note_on_c, 14, 65, 97
1, 144019, Note_on_c, 14, 69, 105
1, 144073, Note_on_c, 5, 81, 0
1, 144093, Note_on_c, 14, 69, 0
1, 144121, Note_on_c, 5, 77, 0
1, 144123, Note_on_c, 5, 74, 0
1, 144140, Note_on_c, 14, 65, 0
1, 144142, Note_on_c, 14, 62, 0
1, 144161, Note_on_c, 11, 41, 0
1, 144480, Note_on_c, 5, 74, 111
1, 144480, Note_on_c, 5, 77, 107
1, 144480, Note_on_c, 5, 81, 105
1, 144480, Note_on_c, 9, 44, 107
1, 144480, Note_on_c, 9, 69, 109
1, 144480, Note_on_c, 12, 62, 119
1, 144492, Note_on_c, 9, 44, 0
1, 144492, Note_on_c, 9, 69, 0
1, 144493, Note_on_c, 1, 38, 0
1, 144493, Note_on_c, 8, 38, 0
1, 144499, Note_on_c, 14, 62, 111
1, 144499, Note_on_c, 14, 65, 107
1, 144499, Note_on_c, 14, 69, 105
1, 144637, Note_on_c, 5, 81, 0
1, 144644, Note_on_c, 5, 77, 0
1, 144648, Note_on_c, 5, 74, 0
1, 144657, Note_on_c, 14, 69, 0
1, 144664, Note_on_c, 14, 65, 0
1, 144668, Note_on_c, 14, 62, 0
1, 144800, Note_on_c, 1, 38, 110
1, 144800, Note_on_c, 8, 38, 110
1, 144800, Note_on_c, 9, 35, 107
1, 144800, Note_on_c, 11, 41, 107
1, 144812, Note_on_c, 9, 35, 0
1, 144846, Note_on_c, 1, 38, 0
1, 144846, Note_on_c, 8, 38, 0
1, 144938, Lyric_t, "WE "
1, 144938, Note_on_c, 3, 76, 124
1, 144960, Note_on_c, 1, 38, 110
1, 144960, Note_on_c, 5, 74, 105
1, 144960, Note_on_c, 5, 77, 94
1, 144960, Note_on_c, 5, 81, 94
1, 144960, Note_on_c, 8, 38, 110
1, 144960, Note_on_c, 9, 35, 114
1, 144960, Note_on_c, 11, 41, 114
1, 144961, Note_on_c, 11, 41, 0
1, 144972, Note_on_c, 9, 35, 0
1, 144979, Note_on_c, 14, 62, 105
1, 144979, Note_on_c, 14, 65, 94
1, 144979, Note_on_c, 14, 69, 94
1, 145003, Note_on_c, 12, 57, 0
1, 145050, Note_on_c, 12, 50, 0
1, 145115, Note_on_c, 5, 81, 0
1, 145121, Note_on_c, 11, 41, 0
1, 145123, Note_on_c, 5, 74, 0
1, 145127, Note_on_c, 5, 77, 0
1, 145135, Note_on_c, 14, 69, 0
1, 145143, Note_on_c, 14, 62, 0
1, 145147, Note_on_c, 14, 65, 0
1, 145222, Note_on_c, 3, 76, 0
1, 145280, Note_on_c, 9, 70, 65
1, 145292, Note_on_c, 9, 70, 0
1, 145308, Lyric_t, "ON"
1, 145308, Note_on_c, 3, 77, 114
1, 145440, Note_on_c, 5, 74, 109
1, 145440, Note_on_c, 5, 77, 94
1, 145440, Note_on_c, 5, 81, 94
1, 145440, Note_on_c, 9, 44, 107
1, 145440, Note_on_c, 9, 54, 109
1, 145452, Note_on_c, 9, 44, 0
1, 145452, Note_on_c, 9, 54, 0
1, 145453, Note_on_c, 1, 38, 0
1, 145453, Note_on_c, 8, 38, 0
1, 145459, Note_on_c, 14, 62, 109
1, 145459, Note_on_c, 14, 65, 94
1, 145459, Note_on_c, 14, 69, 94
1, 145522, Note_on_c, 3, 77, 0
1, 145581, Note_on_c, 5, 81, 0
1, 145594, Note_on_c, 5, 74, 0
1, 145594, Note_on_c, 5, 77, 0
1, 145601, Note_on_c, 14, 69, 0
1, 145614, Note_on_c, 14, 62, 0
1, 145614, Note_on_c, 14, 65, 0
1, 145623, Lyric_t, "LY "
1, 145623, Note_on_c, 3, 76, 127
1, 145690, Note_on_c, 12, 62, 0
1, 145894, Note_on_c, 3, 76, 0
1, 145920, Note_on_c, 1, 38, 110
1, 145920, Note_on_c, 5, 74, 109
1, 145920, Note_on_c, 5, 77, 94
1, 145920, Note_on_c, 5, 81, 101
1, 145920, Note_on_c, 8, 38, 110
1, 145920, Note_on_c, 9, 35, 114
1, 145920, Note_on_c, 11, 41, 114
1, 145932, Note_on_c, 9, 35, 0
1, 145939, Note_on_c, 14, 62, 109
1, 145939, Note_on_c, 14, 65, 94
1, 145939, Note_on_c, 14, 69, 101
1, 145943, Lyric_t, "SAID "
1, 145943, Note_on_c, 3, 79, 123
1, 145993, Note_on_c, 12, 61, 0
1, 146024, Note_on_c, 12, 64, 0
1, 146032, Note_on_c, 12, 57, 0
1, 146075, Note_on_c, 5, 81, 0
1, 146081, Note_on_c, 11, 41, 0
1, 146091, Note_on_c, 5, 74, 0
1, 146091, Note_on_c, 5, 77, 0
1, 146095, Note_on_c, 14, 69, 0
1, 146111, Note_on_c, 14, 62, 0
1, 146111, Note_on_c, 14, 65, 0
1, 146214, Note_on_c, 3, 79, 0
1, 146358, Lyric_t, "GOOD"
1, 146358, Note_on_c, 3, 77, 125
1, 146400, Note_on_c, 5, 74, 108
1, 146400, Note_on_c, 5, 77, 97
1, 146400, Note_on_c, 5, 81, 98
1, 146400, Note_on_c, 9, 44, 107
1, 146400, Note_on_c, 9, 69, 109
1, 146400, Note_on_c, 12, 57, 124
1, 146412, Note_on_c, 9, 44, 0
1, 146412, Note_on_c, 9, 69, 0
1, 146419, Note_on_c, 14, 62, 108
1, 146419, Note_on_c, 14, 65, 97
1, 146419, Note_on_c, 14, 69, 98
1, 146433, Note_on_c, 1, 38, 0
1, 146433, Note_on_c, 8, 38, 0
1, 146546, Note_on_c, 5, 81, 0
1, 146558, Note_on_c, 5, 74, 0
1, 146561, Note_on_c, 3, 77, 0
1, 146563, Note_on_c, 5, 77, 0
1, 146566, Note_on_c, 14, 69, 0
1, 146578, Note_on_c, 14, 62, 0
1, 146583, Note_on_c, 14, 65, 0
1, 146680, Lyric_t, "BYE"
1, 146680, Lyric_t, "\015"
1, 146680, Note_on_c, 3, 77, 114
1, 146720, Note_on_c, 1, 38, 110
1, 146720, Note_on_c, 8, 38, 110
1, 146720, Note_on_c, 9, 35, 114
1, 146720, Note_on_c, 11, 41, 114
1, 146720, Note_on_c, 12, 65, 114
1, 146732, Note_on_c, 9, 35, 0
1, 146876, Note_on_c, 10, 74, 0
1, 146880, Note_on_c, 5, 74, 105
1, 146880, Note_on_c, 5, 77, 89
1, 146880, Note_on_c, 5, 81, 94
1, 146880, Note_on_c, 10, 77, 105
1, 146881, Note_on_c, 11, 41, 0
1, 146899, Note_on_c, 14, 62, 105
1, 146899, Note_on_c, 14, 65, 89
1, 146899, Note_on_c, 14, 69, 94
1, 147026, Note_on_c, 5, 81, 0
1, 147045, Note_on_c, 14, 69, 0
1, 147048, Note_on_c, 5, 74, 0
1, 147048, Note_on_c, 5, 77, 0
1, 147068, Note_on_c, 14, 62, 0
1, 147068, Note_on_c, 14, 65, 0
1, 147196, Note_on_c, 1, 38, 0
1, 147196, Note_on_c, 8, 38, 0
1, 147200, Note_on_c, 1, 41, 110
1, 147200, Note_on_c, 8, 41, 110
1, 147200, Note_on_c, 9, 35, 114
1, 147200, Note_on_c, 9, 70, 65
1, 147200, Note_on_c, 11, 41, 114
1, 147212, Note_on_c, 9, 35, 0
1, 147212, Note_on_c, 9, 70, 0
1, 147356, Note_on_c, 10, 77, 0
1, 147360, Note_on_c, 5, 74, 109
1, 147360, Note_on_c, 5, 77, 97
1, 147360, Note_on_c, 5, 81, 110
1, 147360, Note_on_c, 9, 44, 107
1, 147360, Note_on_c, 9, 54, 109
1, 147360, Note_on_c, 10, 81, 105
1, 147360, Note_on_c, 12, 62, 121
1, 147361, Note_on_c, 11, 41, 0
1, 147372, Note_on_c, 3, 77, 0
1, 147372, Note_on_c, 9, 44, 0
1, 147372, Note_on_c, 9, 54, 0
1, 147376, Note_on_c, 12, 57, 0
1, 147379, Note_on_c, 14, 62, 109
1, 147379, Note_on_c, 14, 65, 97
1, 147379, Note_on_c, 14, 69, 110
1, 147386, Lyric_t, "WITH "
1, 147386, Note_on_c, 3, 76, 124
1, 147401, Note_on_c, 12, 65, 0
1, 147509, Note_on_c, 5, 81, 0
1, 147518, Note_on_c, 5, 74, 0
1, 147521, Note_on_c, 5, 77, 0
1, 147528, Note_on_c, 14, 69, 0
1, 147537, Note_on_c, 14, 62, 0
1, 147540, Note_on_c, 14, 65, 0
1, 147637, Note_on_c, 3, 76, 0
1, 147675, Lyric_t, "WOR"
1, 147675, Note_on_c, 3, 77, 114
1, 147676, Note_on_c, 1, 41, 0
1, 147676, Note_on_c, 8, 41, 0
1, 147676, Note_on_c, 12, 62, 0
1, 147680, Note_on_c, 1, 42, 110
1, 147680, Note_on_c, 8, 42, 110
1, 147836, Note_on_c, 1, 42, 0
1, 147836, Note_on_c, 8, 42, 0
1, 147836, Note_on_c, 10, 81, 0
1, 147840, Note_on_c, 1, 43, 110
1, 147840, Note_on_c, 5, 74, 101
1, 147840, Note_on_c, 5, 79, 97
1, 147840, Note_on_c, 5, 82, 105
1, 147840, Note_on_c, 8, 43, 110
1, 147840, Note_on_c, 9, 35, 114
1, 147840, Note_on_c, 10, 79, 105
1, 147840, Note_on_c, 11, 41, 114
1, 147840, Note_on_c, 12, 55, 114
1, 147852, Note_on_c, 9, 35, 0
1, 147859, Note_on_c, 14, 62, 101
1, 147859, Note_on_c, 14, 67, 97
1, 147859, Note_on_c, 14, 70, 105
1, 147913, Note_on_c, 5, 82, 0
1, 147933, Note_on_c, 14, 70, 0
1, 147961, Note_on_c, 5, 79, 0
1, 147963, Note_on_c, 5, 74, 0
1, 147980, Note_on_c, 14, 67, 0
1, 147982, Note_on_c, 14, 62, 0
1, 147995, Note_on_c, 3, 77, 0
1, 148001, Note_on_c, 11, 41, 0
1, 148125, Lyric_t, "DS"
1, 148125, Lyric_t, "\015"
1, 148125, Note_on_c, 3, 70, 127
1, 148320, Note_on_c, 5, 74, 111
1, 148320, Note_on_c, 5, 79, 107
1, 148320, Note_on_c, 5, 82, 105
1, 148320, Note_on_c, 9, 44, 107
1, 148320, Note_on_c, 9, 69, 109
1, 148320, Note_on_c, 12, 58, 122
1, 148332, Note_on_c, 9, 44, 0
1, 148332, Note_on_c, 9, 69, 0
1, 148339, Note_on_c, 14, 62, 111
1, 148339, Note_on_c, 14, 67, 107
1, 148339, Note_on_c, 14, 70, 105
1, 148348, Note_on_c, 3, 70, 0
1, 148353, Note_on_c, 1, 43, 0
1, 148353, Note_on_c, 8, 43, 0
1, 148477, Note_on_c, 5, 82, 0
1, 148484, Note_on_c, 5, 79, 0
1, 148488, Note_on_c, 5, 74, 0
1, 148497, Note_on_c, 14, 70, 0
1, 148504, Note_on_c, 14, 67, 0
1, 148508, Note_on_c, 14, 62, 0
1, 148640, Note_on_c, 1, 31, 110
1, 148640, Note_on_c, 8, 31, 110
1, 148640, Note_on_c, 9, 35, 107
1, 148640, Note_on_c, 11, 41, 107
1, 148652, Note_on_c, 9, 35, 0
1, 148689, Note_on_c, 1, 31, 0
1, 148689, Note_on_c, 8, 31, 0
1, 148800, Note_on_c, 1, 31, 110
1, 148800, Note_on_c, 5, 74, 105
1, 148800, Note_on_c, 5, 79, 94
1, 148800, Note_on_c, 5, 82, 94
1, 148800, Note_on_c, 8, 31, 110
1, 148800, Note_on_c, 9, 35, 114
1, 148800, Note_on_c, 11, 41, 114
1, 148800, Note_on_c, 12, 62, 119
1, 148801, Note_on_c, 11, 41, 0
1, 148812, Note_on_c, 9, 35, 0
1, 148819, Lyric_t, "I "
1, 148819, Note_on_c, 3, 76, 127
1, 148819, Note_on_c, 14, 62, 105
1, 148819, Note_on_c, 14, 67, 94
1, 148819, Note_on_c, 14, 70, 94
1, 148955, Note_on_c, 5, 82, 0
1, 148961, Note_on_c, 11, 41, 0
1, 148963, Note_on_c, 5, 74, 0
1, 148967, Note_on_c, 5, 79, 0
1, 148975, Note_on_c, 14, 70, 0
1, 148983, Note_on_c, 14, 62, 0
1, 148987, Note_on_c, 14, 67, 0
1, 149120, Note_on_c, 9, 70, 65
1, 149132, Note_on_c, 9, 70, 0
1, 149152, Lyric_t, "DIED "
1, 149152, Note_on_c, 3, 77, 124
1, 149164, Note_on_c, 3, 76, 0
1, 149280, Note_on_c, 5, 74, 109
1, 149280, Note_on_c, 5, 79, 94
1, 149280, Note_on_c, 5, 82, 94
1, 149280, Note_on_c, 9, 44, 107
1, 149280, Note_on_c, 9, 54, 109
1, 149292, Note_on_c, 9, 44, 0
1, 149292, Note_on_c, 9, 54, 0
1, 149293, Note_on_c, 1, 31, 0
1, 149293, Note_on_c, 8, 31, 0
1, 149299, Note_on_c, 14, 62, 109
1, 149299, Note_on_c, 14, 67, 94
1, 149299, Note_on_c, 14, 70, 94
1, 149421, Note_on_c, 5, 82, 0
1, 149434, Note_on_c, 5, 74, 0
1, 149434, Note_on_c, 5, 79, 0
1, 149441, Note_on_c, 14, 70, 0
1, 149454, Note_on_c, 14, 62, 0
1, 149454, Note_on_c, 14, 67, 0
1, 149552, Note_on_c, 3, 77, 0
1, 149568, Lyric_t, "A "
1, 149568, Note_on_c, 3, 76, 127
1, 149760, Note_on_c, 1, 31, 110
1, 149760, Note_on_c, 5, 74, 109
1, 149760, Note_on_c, 5, 79, 94
1, 149760, Note_on_c, 5, 82, 101
1, 149760, Note_on_c, 8, 31, 110
1, 149760, Note_on_c, 9, 35, 114
1, 149760, Note_on_c, 11, 41, 114
1, 149760, Note_on_c, 12, 67, 119
1, 149772, Note_on_c, 9, 35, 0
1, 149779, Note_on_c, 14, 62, 109
1, 149779, Note_on_c, 14, 67, 94
1, 149779, Note_on_c, 14, 70, 101
1, 149915, Note_on_c, 5, 82, 0
1, 149921, Note_on_c, 11, 41, 0
1, 149931, Note_on_c, 5, 74, 0
1, 149931, Note_on_c, 5, 79, 0
1, 149935, Note_on_c, 14, 70, 0
1, 149951, Note_on_c, 14, 62, 0
1, 149951, Note_on_c, 14, 67, 0
1, 150048, Lyric_t, "HUN"
1, 150048, Note_on_c, 3, 79, 127
1, 150076, Note_on_c, 12, 62, 0
1, 150088, Note_on_c, 3, 76, 0
1, 150236, Note_on_c, 12, 67, 0
1, 150240, Note_on_c, 5, 74, 108
1, 150240, Note_on_c, 5, 79, 97
1, 150240, Note_on_c, 5, 82, 98
1, 150240, Note_on_c, 9, 44, 107
1, 150240, Note_on_c, 9, 69, 109
1, 150240, Note_on_c, 12, 62, 119
1, 150252, Note_on_c, 9, 44, 0
1, 150252, Note_on_c, 9, 69, 0
1, 150253, Note_on_c, 1, 31, 0
1, 150253, Note_on_c, 8, 31, 0
1, 150259, Note_on_c, 14, 62, 108
1, 150259, Note_on_c, 14, 67, 97
1, 150259, Note_on_c, 14, 70, 98
1, 150269, Note_on_c, 12, 55, 0
1, 150311, Note_on_c, 12, 58, 0
1, 150386, Note_on_c, 5, 82, 0
1, 150398, Note_on_c, 5, 74, 0
1, 150403, Note_on_c, 5, 79, 0
1, 150406, Note_on_c, 14, 70, 0
1, 150418, Note_on_c, 14, 62, 0
1, 150423, Note_on_c, 14, 67, 0
1, 150466, Note_on_c, 3, 79, 0
1, 150470, Lyric_t, "DRED "
1, 150470, Note_on_c, 3, 77, 115
1, 150560, Note_on_c, 1, 31, 110
1, 150560, Note_on_c, 8, 31, 110
1, 150560, Note_on_c, 9, 35, 114
1, 150560, Note_on_c, 11, 41, 114
1, 150572, Note_on_c, 9, 35, 0
1, 150573, Note_on_c, 3, 77, 0
1, 150671, Lyric_t, "TIMES"
1, 150671, Lyric_t, "\015"
1, 150671, Note_on_c, 3, 77, 119
1, 150716, Note_on_c, 12, 62, 0
1, 150720, Note_on_c, 5, 74, 105
1, 150720, Note_on_c, 5, 79, 89
1, 150720, Note_on_c, 5, 82, 94
1, 150720, Note_on_c, 12, 58, 119
1, 150721, Note_on_c, 11, 41, 0
1, 150739, Note_on_c, 14, 62, 105
1, 150739, Note_on_c, 14, 67, 89
1, 150739, Note_on_c, 14, 70, 94
1, 150866, Note_on_c, 5, 82, 0
1, 150885, Note_on_c, 14, 70, 0
1, 150888, Note_on_c, 5, 74, 0
1, 150888, Note_on_c, 5, 79, 0
1, 150908, Note_on_c, 14, 62, 0
1, 150908, Note_on_c, 14, 67, 0
1, 151040, Note_on_c, 1, 32, 110
1, 151040, Note_on_c, 8, 32, 110
1, 151040, Note_on_c, 9, 35, 114
1, 151040, Note_on_c, 9, 70, 65
1, 151040, Note_on_c, 11, 41, 114
1, 151052, Note_on_c, 9, 35, 0
1, 151052, Note_on_c, 9, 70, 0
1, 151053, Note_on_c, 1, 31, 0
1, 151053, Note_on_c, 8, 31, 0
1, 151200, Note_on_c, 5, 74, 109
1, 151200, Note_on_c, 5, 79, 97
1, 151200, Note_on_c, 5, 82, 110
1, 151200, Note_on_c, 9, 44, 107
1, 151200, Note_on_c, 9, 54, 109
1, 151201, Note_on_c, 11, 41, 0
1, 151212, Note_on_c, 9, 44, 0
1, 151212, Note_on_c, 9, 54, 0
1, 151219, Note_on_c, 14, 62, 109
1, 151219, Note_on_c, 14, 67, 97
1, 151219, Note_on_c, 14, 70, 110
1, 151290, Note_on_c, 3, 77, 0
1, 151349, Note_on_c, 5, 82, 0
1, 151358, Note_on_c, 5, 74, 0
1, 151361, Note_on_c, 5, 79, 0
1, 151368, Note_on_c, 14, 70, 0
1, 151377, Note_on_c, 14, 62, 0
1, 151380, Note_on_c, 14, 67, 0
1, 151516, Note_on_c, 1, 32, 0
1, 151516, Note_on_c, 8, 32, 0
1, 151516, Note_on_c, 12, 58, 0
1, 151520, Note_on_c, 1, 33, 110
1, 151520, Note_on_c, 8, 33, 110
1, 151520, Note_on_c, 12, 55, 119
1, 151596, Note_on_c, 12, 55, 0
1, 151600, Note_on_c, 12, 57, 119
1, 151676, Note_on_c, 1, 33, 0
1, 151676, Note_on_c, 8, 33, 0
1, 151676, Note_on_c, 10, 79, 0
1, 151676, Note_on_c, 12, 57, 0
1, 151680, Note_on_c, 1, 34, 110
1, 151680, Note_on_c, 5, 74, 101
1, 151680, Note_on_c, 5, 77, 97
1, 151680, Note_on_c, 5, 82, 105
1, 151680, Note_on_c, 7, 82, 104
1, 151680, Note_on_c, 8, 34, 110
1, 151680, Note_on_c, 9, 35, 114
1, 151680, Note_on_c, 10, 70, 104
1, 151680, Note_on_c, 10, 82, 104
1, 151680, Note_on_c, 11, 41, 114
1, 151680, Note_on_c, 12, 58, 127
1, 151692, Note_on_c, 9, 35, 0
1, 151699, Note_on_c, 14, 62, 101
1, 151699, Note_on_c, 14, 65, 97
1, 151699, Note_on_c, 14, 70, 105
1, 151753, Note_on_c, 5, 82, 0
1, 151773, Note_on_c, 14, 70, 0
1, 151801, Note_on_c, 5, 77, 0
1, 151803, Note_on_c, 5, 74, 0
1, 151820, Note_on_c, 14, 65, 0
1, 151822, Note_on_c, 14, 62, 0
1, 151841, Note_on_c, 11, 41, 0
1, 152000, Note_on_c, 12, 62, 105
1, 152160, Note_on_c, 5, 74, 111
1, 152160, Note_on_c, 5, 77, 107
1, 152160, Note_on_c, 5, 82, 105
1, 152160, Note_on_c, 9, 44, 107
1, 152160, Note_on_c, 9, 69, 109
1, 152160, Note_on_c, 12, 65, 89
1, 152172, Note_on_c, 9, 44, 0
1, 152172, Note_on_c, 9, 69, 0
1, 152173, Note_on_c, 1, 34, 0
1, 152173, Note_on_c, 8, 34, 0
1, 152179, Note_on_c, 14, 62, 111
1, 152179, Note_on_c, 14, 65, 107
1, 152179, Note_on_c, 14, 70, 105
1, 152317, Note_on_c, 5, 82, 0
1, 152324, Note_on_c, 5, 77, 0
1, 152328, Note_on_c, 5, 74, 0
1, 152337, Note_on_c, 14, 70, 0
1, 152344, Note_on_c, 14, 65, 0
1, 152348, Note_on_c, 14, 62, 0
1, 152435, Lyric_t, "YOU "
1, 152435, Note_on_c, 3, 76, 119
1, 152480, Note_on_c, 1, 34, 110
1, 152480, Note_on_c, 8, 34, 110
1, 152480, Note_on_c, 9, 35, 107
1, 152480, Note_on_c, 11, 41, 107
1, 152480, Note_on_c, 12, 70, 115
1, 152492, Note_on_c, 9, 35, 0
1, 152529, Note_on_c, 1, 34, 0
1, 152529, Note_on_c, 8, 34, 0
1, 152636, Note_on_c, 10, 70, 0
1, 152636, Note_on_c, 10, 82, 0
1, 152640, Note_on_c, 1, 34, 110
1, 152640, Note_on_c, 5, 74, 105
1, 152640, Note_on_c, 5, 77, 94
1, 152640, Note_on_c, 5, 82, 94
1, 152640, Note_on_c, 7, 81, 104
1, 152640, Note_on_c, 8, 34, 110
1, 152640, Note_on_c, 9, 35, 114
1, 152640, Note_on_c, 10, 69, 104
1, 152640, Note_on_c, 10, 81, 104
1, 152640, Note_on_c, 11, 41, 114
1, 152640, Note_on_c, 12, 69, 124
1, 152641, Note_on_c, 11, 41, 0
1, 152652, Note_on_c, 9, 35, 0
1, 152655, Note_on_c, 7, 82, 0
1, 152659, Note_on_c, 14, 62, 105
1, 152659, Note_on_c, 14, 65, 94
1, 152659, Note_on_c, 14, 70, 94
1, 152700, Note_on_c, 12, 70, 0
1, 152795, Note_on_c, 5, 82, 0
1, 152801, Note_on_c, 11, 41, 0
1, 152803, Note_on_c, 5, 74, 0
1, 152807, Note_on_c, 5, 77, 0
1, 152815, Note_on_c, 14, 70, 0
1, 152823, Note_on_c, 14, 62, 0
1, 152827, Note_on_c, 14, 65, 0
1, 152960, Note_on_c, 9, 70, 65
1, 152972, Note_on_c, 9, 70, 0
1, 152975, Note_on_c, 3, 76, 0
1, 152992, Lyric_t, "GO "
1, 152992, Note_on_c, 3, 77, 114
1, 153120, Note_on_c, 5, 74, 109
1, 153120, Note_on_c, 5, 77, 94
1, 153120, Note_on_c, 5, 82, 94
1, 153120, Note_on_c, 9, 44, 107
1, 153120, Note_on_c, 9, 54, 109
1, 153132, Note_on_c, 9, 44, 0
1, 153132, Note_on_c, 9, 54, 0
1, 153133, Note_on_c, 1, 34, 0
1, 153133, Note_on_c, 8, 34, 0
1, 153139, Note_on_c, 14, 62, 109
1, 153139, Note_on_c, 14, 65, 94
1, 153139, Note_on_c, 14, 70, 94
1, 153261, Note_on_c, 5, 82, 0
1, 153270, Note_on_c, 12, 58, 0
1, 153274, Note_on_c, 5, 74, 0
1, 153274, Note_on_c, 5, 77, 0
1, 153281, Note_on_c, 14, 70, 0
1, 153294, Note_on_c, 14, 62, 0
1, 153294, Note_on_c, 14, 65, 0
1, 153298, Note_on_c, 12, 65, 0
1, 153302, Note_on_c, 12, 62, 0
1, 153311, Note_on_c, 12, 69, 0
1, 153541, Note_on_c, 3, 77, 0
1, 153544, Note_on_c, 3, 76, 119
1, 153596, Note_on_c, 10, 69, 0
1, 153596, Note_on_c, 10, 81, 0
1, 153600, Note_on_c, 1, 34, 110
1, 153600, Note_on_c, 5, 74, 109
1, 153600, Note_on_c, 5, 77, 94
1, 153600, Note_on_c, 5, 82, 101
1, 153600, Note_on_c, 7, 79, 104
1, 153600, Note_on_c, 8, 34, 110
1, 153600, Note_on_c, 9, 35, 114
1, 153600, Note_on_c, 10, 67, 104
1, 153600, Note_on_c, 10, 79, 104
1, 153600, Note_on_c, 11, 41, 114
1, 153612, Note_on_c, 9, 35, 0
1, 153615, Note_on_c, 7, 81, 0
1, 153618, Note_on_c, 12, 58, 127
1, 153619, Note_on_c, 14, 62, 109
1, 153619, Note_on_c, 14, 65, 94
1, 153619, Note_on_c, 14, 70, 101
1, 153755, Note_on_c, 5, 82, 0
1, 153761, Note_on_c, 11, 41, 0
1, 153771, Note_on_c, 5, 74, 0
1, 153771, Note_on_c, 5, 77, 0
1, 153775, Note_on_c, 14, 70, 0
1, 153791, Note_on_c, 14, 62, 0
1, 153791, Note_on_c, 14, 65, 0
1, 153888, Note_on_c, 12, 62, 114
1, 154024, Lyric_t, "BACK "
1, 154024, Note_on_c, 3, 79, 119
1, 154053, Note_on_c, 3, 76, 0
1, 154080, Note_on_c, 5, 74, 108
1, 154080, Note_on_c, 5, 77, 97
1, 154080, Note_on_c, 5, 82, 98
1, 154080, Note_on_c, 9, 44, 107
1, 154080, Note_on_c, 9, 69, 109
1, 154092, Note_on_c, 9, 44, 0
1, 154092, Note_on_c, 9, 69, 0
1, 154093, Note_on_c, 1, 34, 0
1, 154093, Note_on_c, 8, 34, 0
1, 154099, Note_on_c, 14, 62, 108
1, 154099, Note_on_c, 14, 65, 97
1, 154099, Note_on_c, 14, 70, 98
1, 154226, Note_on_c, 5, 82, 0
1, 154238, Note_on_c, 5, 74, 0
1, 154243, Note_on_c, 5, 77, 0
1, 154246, Note_on_c, 14, 70, 0
1, 154258, Note_on_c, 14, 62, 0
1, 154263, Note_on_c, 14, 65, 0
1, 154380, Note_on_c, 3, 79, 0
1, 154384, Lyric_t, "TO "
1, 154384, Note_on_c, 3, 77, 127
1, 154400, Note_on_c, 1, 34, 110
1, 154400, Note_on_c, 8, 34, 110
1, 154400, Note_on_c, 9, 35, 114
1, 154400, Note_on_c, 11, 41, 114
1, 154400, Note_on_c, 12, 67, 115
1, 154412, Note_on_c, 9, 35, 0
1, 154551, Note_on_c, 12, 67, 0
1, 154555, Note_on_c, 12, 65, 105
1, 154556, Note_on_c, 10, 67, 0
1, 154556, Note_on_c, 10, 79, 0
1, 154560, Note_on_c, 5, 74, 105
1, 154560, Note_on_c, 5, 77, 89
1, 154560, Note_on_c, 5, 82, 94
1, 154560, Note_on_c, 7, 77, 104
1, 154560, Note_on_c, 10, 65, 104
1, 154560, Note_on_c, 10, 77, 104
1, 154561, Note_on_c, 11, 41, 0
1, 154575, Note_on_c, 7, 79, 0
1, 154579, Note_on_c, 14, 62, 105
1, 154579, Note_on_c, 14, 65, 89
1, 154579, Note_on_c, 14, 70, 94
1, 154706, Note_on_c, 5, 82, 0
1, 154712, Note_on_c, 3, 77, 0
1, 154725, Note_on_c, 14, 70, 0
1, 154728, Note_on_c, 5, 74, 0
1, 154728, Note_on_c, 5, 77, 0
1, 154748, Note_on_c, 14, 62, 0
1, 154748, Note_on_c, 14, 65, 0
1, 154802, Lyric_t, "HER"
1, 154802, Lyric_t, "\015"
1, 154802, Note_on_c, 3, 77, 114
1, 154827, Note_on_c, 1, 34, 0
1, 154827, Note_on_c, 8, 34, 0
1, 154880, Note_on_c, 1, 34, 110
1, 154880, Note_on_c, 8, 34, 110
1, 154880, Note_on_c, 9, 35, 114
1, 154880, Note_on_c, 9, 70, 65
1, 154880, Note_on_c, 11, 41, 114
1, 154892, Note_on_c, 9, 35, 0
1, 154892, Note_on_c, 9, 70, 0
1, 155040, Note_on_c, 5, 74, 109
1, 155040, Note_on_c, 5, 77, 97
1, 155040, Note_on_c, 5, 82, 110
1, 155040, Note_on_c, 9, 44, 107
1, 155040, Note_on_c, 9, 54, 109
1, 155041, Note_on_c, 11, 41, 0
1, 155052, Note_on_c, 9, 44, 0
1, 155052, Note_on_c, 9, 54, 0
1, 155059, Note_on_c, 14, 62, 109
1, 155059, Note_on_c, 14, 65, 97
1, 155059, Note_on_c, 14, 70, 110
1, 155189, Note_on_c, 5, 82, 0
1, 155198, Note_on_c, 5, 74, 0
1, 155201, Note_on_c, 5, 77, 0
1, 155208, Note_on_c, 14, 70, 0
1, 155217, Note_on_c, 14, 62, 0
1, 155220, Note_on_c, 14, 65, 0
1, 155307, Note_on_c, 1, 34, 0
1, 155307, Note_on_c, 8, 34, 0
1, 155338, Note_on_c, 12, 58, 0
1, 155343, Note_on_c, 12, 65, 0
1, 155351, Note_on_c, 12, 62, 0
1, 155356, Note_on_c, 3, 77, 0
1, 155360, Lyric_t, "AND "
1, 155360, Note_on_c, 1, 34, 110
1, 155360, Note_on_c, 3, 76, 119
1, 155360, Note_on_c, 8, 34, 110
1, 155409, Note_on_c, 1, 34, 0
1, 155409, Note_on_c, 8, 34, 0
1, 155436, Note_on_c, 12, 57, 105
1, 155497, Note_on_c, 12, 61, 127
1, 155516, Note_on_c, 3, 76, 0
1, 155520, Lyric_t, "I "
1, 155520, Note_on_c, 1, 33, 110
1, 155520, Note_on_c, 3, 76, 114
1, 155520, Note_on_c, 5, 73, 101
1, 155520, Note_on_c, 5, 76, 97
1, 155520, Note_on_c, 5, 81, 105
1, 155520, Note_on_c, 8, 33, 110
1, 155520, Note_on_c, 9, 35, 114
1, 155520, Note_on_c, 10, 64, 104
1, 155520, Note_on_c, 10, 76, 104
1, 155520, Note_on_c, 11, 41, 114
1, 155532, Note_on_c, 9, 35, 0
1, 155535, Note_on_c, 7, 77, 0
1, 155535, Note_on_c, 10, 65, 0
1, 155535, Note_on_c, 10, 77, 0
1, 155539, Note_on_c, 14, 61, 101
1, 155539, Note_on_c, 14, 64, 97
1, 155539, Note_on_c, 14, 69, 105
1, 155554, Note_on_c, 12, 64, 119
1, 155593, Note_on_c, 5, 81, 0
1, 155613, Note_on_c, 14, 69, 0
1, 155641, Note_on_c, 5, 76, 0
1, 155643, Note_on_c, 5, 73, 0
1, 155660, Note_on_c, 14, 64, 0
1, 155662, Note_on_c, 14, 61, 0
1, 155681, Note_on_c, 11, 41, 0
1, 156000, Note_on_c, 5, 73, 111
1, 156000, Note_on_c, 5, 76, 107
1, 156000, Note_on_c, 5, 81, 105
1, 156000, Note_on_c, 9, 44, 107
1, 156000, Note_on_c, 9, 69, 109
1, 156012, Note_on_c, 9, 44, 0
1, 156012, Note_on_c, 9, 69, 0
1, 156013, Note_on_c, 1, 33, 0
1, 156013, Note_on_c, 8, 33, 0
1, 156019, Note_on_c, 14, 61, 111
1, 156019, Note_on_c, 14, 64, 107
1, 156019, Note_on_c, 14, 69, 105
1, 156157, Note_on_c, 5, 81, 0
1, 156164, Note_on_c, 5, 76, 0
1, 156168, Note_on_c, 5, 73, 0
1, 156177, Note_on_c, 14, 69, 0
1, 156184, Note_on_c, 14, 64, 0
1, 156188, Note_on_c, 14, 61, 0
1, 156269, Note_on_c, 12, 61, 0
1, 156320, Note_on_c, 1, 33, 110
1, 156320, Note_on_c, 8, 33, 110
1, 156320, Note_on_c, 9, 35, 107
1, 156320, Note_on_c, 11, 41, 107
1, 156332, Note_on_c, 9, 35, 0
1, 156343, Note_on_c, 12, 64, 0
1, 156363, Note_on_c, 12, 57, 0
1, 156369, Note_on_c, 1, 33, 0
1, 156369, Note_on_c, 8, 33, 0
1, 156396, Note_on_c, 12, 57, 105
1, 156457, Note_on_c, 12, 61, 127
1, 156476, Note_on_c, 3, 76, 0
1, 156480, Lyric_t, "GO "
1, 156480, Note_on_c, 1, 33, 110
1, 156480, Note_on_c, 3, 74, 114
1, 156480, Note_on_c, 5, 73, 105
1, 156480, Note_on_c, 5, 76, 94
1, 156480, Note_on_c, 5, 81, 94
1, 156480, Note_on_c, 8, 33, 110
1, 156480, Note_on_c, 9, 35, 114
1, 156480, Note_on_c, 11, 41, 114
1, 156481, Note_on_c, 11, 41, 0
1, 156492, Note_on_c, 9, 35, 0
1, 156499, Note_on_c, 14, 61, 105
1, 156499, Note_on_c, 14, 64, 94
1, 156499, Note_on_c, 14, 69, 94
1, 156514, Note_on_c, 12, 64, 119
1, 156635, Note_on_c, 5, 81, 0
1, 156641, Note_on_c, 11, 41, 0
1, 156643, Note_on_c, 5, 73, 0
1, 156647, Note_on_c, 5, 76, 0
1, 156655, Note_on_c, 14, 69, 0
1, 156663, Note_on_c, 14, 61, 0
1, 156667, Note_on_c, 14, 64, 0
1, 156800, Note_on_c, 9, 70, 65
1, 156812, Note_on_c, 9, 70, 0
1, 156960, Note_on_c, 5, 73, 109
1, 156960, Note_on_c, 5, 76, 94
1, 156960, Note_on_c, 5, 81, 94
1, 156960, Note_on_c, 9, 44, 107
1, 156960, Note_on_c, 9, 54, 109
1, 156972, Note_on_c, 9, 44, 0
1, 156972, Note_on_c, 9, 54, 0
1, 156973, Note_on_c, 1, 33, 0
1, 156973, Note_on_c, 8, 33, 0
1, 156979, Note_on_c, 14, 61, 109
1, 156979, Note_on_c, 14, 64, 94
1, 156979, Note_on_c, 14, 69, 94
1, 157101, Note_on_c, 5, 81, 0
1, 157114, Note_on_c, 5, 73, 0
1, 157114, Note_on_c, 5, 76, 0
1, 157121, Note_on_c, 14, 69, 0
1, 157134, Note_on_c, 14, 61, 0
1, 157134, Note_on_c, 14, 64, 0
1, 157229, Note_on_c, 12, 61, 0
1, 157303, Note_on_c, 12, 64, 0
1, 157323, Note_on_c, 12, 57, 0
1, 157356, Note_on_c, 12, 57, 101
1, 157384, Note_on_c, 12, 61, 127
1, 157436, Note_on_c, 3, 74, 0
1, 157440, Lyric_t, "BACK "
1, 157440, Note_on_c, 1, 33, 110
1, 157440, Note_on_c, 3, 73, 114
1, 157440, Note_on_c, 5, 73, 109
1, 157440, Note_on_c, 5, 76, 94
1, 157440, Note_on_c, 5, 81, 101
1, 157440, Note_on_c, 8, 33, 110
1, 157440, Note_on_c, 9, 35, 114
1, 157440, Note_on_c, 10, 65, 104
1, 157440, Note_on_c, 10, 77, 104
1, 157440, Note_on_c, 11, 41, 114
1, 157452, Note_on_c, 9, 35, 0
1, 157454, Note_on_c, 12, 65, 114
1, 157455, Note_on_c, 10, 64, 0
1, 157455, Note_on_c, 10, 76, 0
1, 157459, Note_on_c, 14, 61, 109
1, 157459, Note_on_c, 14, 64, 94
1, 157459, Note_on_c, 14, 69, 101
1, 157595, Note_on_c, 5, 81, 0
1, 157601, Note_on_c, 11, 41, 0
1, 157611, Note_on_c, 5, 73, 0
1, 157611, Note_on_c, 5, 76, 0
1, 157615, Note_on_c, 14, 69, 0
1, 157631, Note_on_c, 14, 61, 0
1, 157631, Note_on_c, 14, 64, 0
1, 157920, Note_on_c, 5, 73, 108
1, 157920, Note_on_c, 5, 76, 97
1, 157920, Note_on_c, 5, 81, 98
1, 157920, Note_on_c, 9, 44, 107
1, 157920, Note_on_c, 9, 69, 109
1, 157932, Note_on_c, 9, 44, 0
1, 157932, Note_on_c, 9, 69, 0
1, 157933, Note_on_c, 1, 33, 0
1, 157933, Note_on_c, 8, 33, 0
1, 157939, Note_on_c, 14, 61, 108
1, 157939, Note_on_c, 14, 64, 97
1, 157939, Note_on_c, 14, 69, 98
1, 158066, Note_on_c, 5, 81, 0
1, 158078, Note_on_c, 5, 73, 0
1, 158083, Note_on_c, 5, 76, 0
1, 158086, Note_on_c, 14, 69, 0
1, 158098, Note_on_c, 14, 61, 0
1, 158103, Note_on_c, 14, 64, 0
1, 158110, Note_on_c, 12, 61, 0
1, 158156, Note_on_c, 12, 57, 0
1, 158240, Note_on_c, 1, 33, 110
1, 158240, Note_on_c, 8, 33, 110
1, 158240, Note_on_c, 9, 35, 114
1, 158240, Note_on_c, 11, 41, 114
1, 158244, Note_on_c, 12, 57, 101
1, 158252, Note_on_c, 9, 35, 0
1, 158253, Note_on_c, 12, 65, 0
1, 158297, Note_on_c, 12, 61, 127
1, 158374, Note_on_c, 12, 64, 114
1, 158396, Note_on_c, 3, 73, 0
1, 158396, Note_on_c, 10, 65, 0
1, 158396, Note_on_c, 10, 77, 0
1, 158400, Lyric_t, "TO"
1, 158400, Lyric_t, "\015"
1, 158400, Note_on_c, 3, 69, 114
1, 158400, Note_on_c, 5, 73, 105
1, 158400, Note_on_c, 5, 76, 89
1, 158400, Note_on_c, 5, 81, 94
1, 158400, Note_on_c, 10, 64, 104
1, 158401, Note_on_c, 11, 41, 0
1, 158419, Note_on_c, 14, 61, 105
1, 158419, Note_on_c, 14, 64, 89
1, 158419, Note_on_c, 14, 69, 94
1, 158546, Note_on_c, 5, 81, 0
1, 158565, Note_on_c, 14, 69, 0
1, 158568, Note_on_c, 5, 73, 0
1, 158568, Note_on_c, 5, 76, 0
1, 158588, Note_on_c, 14, 61, 0
1, 158588, Note_on_c, 14, 64, 0
1, 158667, Note_on_c, 1, 33, 0
1, 158667, Note_on_c, 8, 33, 0
1, 158720, Note_on_c, 1, 33, 110
1, 158720, Note_on_c, 8, 33, 110
1, 158720, Note_on_c, 9, 35, 114
1, 158720, Note_on_c, 9, 70, 65
1, 158720, Note_on_c, 11, 41, 114
1, 158732, Note_on_c, 9, 35, 0
1, 158732, Note_on_c, 9, 70, 0
1, 158880, Note_on_c, 5, 73, 109
1, 158880, Note_on_c, 5, 76, 97
1, 158880, Note_on_c, 5, 81, 110
1, 158880, Note_on_c, 9, 44, 107
1, 158880, Note_on_c, 9, 54, 109
1, 158881, Note_on_c, 11, 41, 0
1, 158892, Note_on_c, 9, 44, 0
1, 158892, Note_on_c, 9, 54, 0
1, 158899, Note_on_c, 14, 61, 109
1, 158899, Note_on_c, 14, 64, 97
1, 158899, Note_on_c, 14, 69, 110
1, 158953, Note_on_c, 12, 61, 0
1, 158984, Note_on_c, 12, 64, 0
1, 158992, Note_on_c, 12, 57, 0
1, 159029, Note_on_c, 5, 81, 0
1, 159038, Note_on_c, 5, 73, 0
1, 159041, Note_on_c, 5, 76, 0
1, 159048, Note_on_c, 14, 69, 0
1, 159057, Note_on_c, 14, 61, 0
1, 159060, Note_on_c, 14, 64, 0
1, 159147, Note_on_c, 1, 33, 0
1, 159147, Note_on_c, 8, 33, 0
1, 159200, Note_on_c, 1, 33, 110
1, 159200, Note_on_c, 8, 33, 110
1, 159204, Note_on_c, 12, 57, 101
1, 159249, Note_on_c, 1, 33, 0
1, 159249, Note_on_c, 8, 33, 0
1, 159257, Note_on_c, 12, 61, 127
1, 159334, Note_on_c, 12, 64, 114
1, 159356, Note_on_c, 3, 69, 0
1, 159356, Note_on_c, 10, 64, 0
1, 159360, Tempo, 540540
1, 159360, Note_on_c, 7, 69, 105
1, 159360, Note_on_c, 9, 35, 105
1, 159372, Note_on_c, 9, 35, 0
1, 160080, Note_on_c, 7, 69, 0
1, 160080, Note_on_c, 9, 35, 105
1, 160092, Note_on_c, 9, 35, 0
1, 160320, Note_on_c, 9, 35, 105
1, 160332, Note_on_c, 9, 35, 0
1, 160680, Note_on_c, 9, 69, 105
1, 160692, Note_on_c, 9, 69, 0
1, 160800, Note_on_c, 9, 54, 105
1, 160812, Note_on_c, 9, 54, 0
1, 161280, Note_on_c, 9, 35, 105
1, 161292, Note_on_c, 9, 35, 0
1, 161353, Note_on_c, 12, 61, 0
1, 161384, Note_on_c, 12, 64, 0
1, 161392, Note_on_c, 12, 57, 0
1, 162000, Note_on_c, 9, 35, 105
1, 162012, Note_on_c, 9, 35, 0
1, 162240, Note_on_c, 9, 35, 105
1, 162252, Note_on_c, 9, 35, 0
1, 162600, Note_on_c, 9, 69, 105
1, 162612, Note_on_c, 9, 69, 0
1, 162720, Note_on_c, 9, 54, 105
1, 162732, Note_on_c, 9, 54, 0
1, 163200, Note_on_c, 1, 38, 106
1, 163200, Note_on_c, 2, 65, 78
1, 163200, Note_on_c, 2, 69, 78
1, 163200, Note_on_c, 2, 74, 97
1, 163200, Note_on_c, 6, 53, 80
1, 163200, Note_on_c, 6, 57, 80
1, 163200, Note_on_c, 6, 62, 80
1, 163200, Note_on_c, 7, 74, 119
1, 163200, Note_on_c, 9, 35, 105
1, 163211, Note_on_c, 4, 65, 78
1, 163211, Note_on_c, 4, 69, 78
1, 163212, Note_on_c, 9, 35, 0
1, 163680, Note_on_c, 1, 38, 0
1, 163920, Lyric_t, "BLA"
1, 163920, Note_on_c, 1, 38, 106
1, 163920, Note_on_c, 3, 69, 119
1, 163920, Note_on_c, 9, 35, 105
1, 163932, Note_on_c, 9, 35, 0
1, 164093, Note_on_c, 1, 38, 0
1, 164160, Note_on_c, 1, 38, 106
1, 164160, Note_on_c, 9, 35, 105
1, 164172, Note_on_c, 9, 35, 0
1, 164508, Note_on_c, 3, 69, 0
1, 164520, Note_on_c, 3, 67, 105
1, 164520, Note_on_c, 9, 69, 105
1, 164532, Note_on_c, 9, 69, 0
1, 164604, Note_on_c, 3, 67, 0
1, 164640, Lyric_t, "CK"
1, 164640, Lyric_t, "\015"
1, 164640, Note_on_c, 3, 69, 101
1, 164640, Note_on_c, 9, 54, 105
1, 164652, Note_on_c, 9, 54, 0
1, 164813, Note_on_c, 7, 74, 0
1, 165000, Note_on_c, 1, 38, 0
1, 165120, Note_on_c, 1, 38, 106
1, 165120, Note_on_c, 9, 35, 105
1, 165132, Note_on_c, 9, 35, 0
1, 165600, Note_on_c, 1, 38, 0
1, 165840, Note_on_c, 1, 38, 106
1, 165840, Note_on_c, 9, 35, 105
1, 165852, Note_on_c, 9, 35, 0
1, 166002, Note_on_c, 3, 69, 0
1, 166013, Note_on_c, 1, 38, 0
1, 166080, Note_on_c, 1, 38, 106
1, 166080, Note_on_c, 9, 35, 105
1, 166092, Note_on_c, 9, 35, 0
1, 166440, Note_on_c, 9, 69, 105
1, 166452, Note_on_c, 9, 69, 0
1, 166560, Note_on_c, 9, 54, 105
1, 166572, Note_on_c, 9, 54, 0
1, 166920, Note_on_c, 1, 38, 0
1, 167040, Tempo, 535714
1, 167040, Note_on_c, 1, 34, 106
1, 167040, Note_on_c, 7, 70, 117
1, 167040, Note_on_c, 9, 35, 105
1, 167052, Note_on_c, 9, 35, 0
1, 167520, Note_on_c, 1, 34, 0
1, 167760, Lyric_t, "BLA"
1, 167760, Note_on_c, 1, 34, 106
1, 167760, Note_on_c, 3, 69, 127
1, 167760, Note_on_c, 9, 35, 105
1, 167772, Note_on_c, 9, 35, 0
1, 167933, Note_on_c, 1, 34, 0
1, 168000, Note_on_c, 1, 34, 106
1, 168000, Note_on_c, 9, 35, 105
1, 168012, Note_on_c, 9, 35, 0
1, 168360, Note_on_c, 9, 69, 105
1, 168372, Note_on_c, 9, 69, 0
1, 168395, Note_on_c, 3, 69, 0
1, 168480, Note_on_c, 3, 67, 114
1, 168480, Note_on_c, 9, 54, 105
1, 168492, Note_on_c, 9, 54, 0
1, 168590, Note_on_c, 3, 67, 0
1, 168600, Lyric_t, "CK"
1, 168600, Lyric_t, "\015"
1, 168600, Note_on_c, 3, 69, 101
1, 168653, Note_on_c, 7, 70, 0
1, 168840, Note_on_c, 1, 34, 0
1, 168960, Note_on_c, 1, 34, 106
1, 168960, Note_on_c, 9, 35, 105
1, 168972, Note_on_c, 9, 35, 0
1, 169440, Note_on_c, 1, 34, 0
1, 169680, Note_on_c, 1, 34, 106
1, 169680, Note_on_c, 9, 35, 105
1, 169692, Note_on_c, 9, 35, 0
1, 169790, Note_on_c, 3, 69, 0
1, 169853, Note_on_c, 1, 34, 0
1, 169920, Note_on_c, 1, 34, 106
1, 169920, Note_on_c, 9, 35, 105
1, 169932, Note_on_c, 9, 35, 0
1, 170280, Note_on_c, 9, 69, 105
1, 170292, Note_on_c, 9, 69, 0
1, 170400, Note_on_c, 9, 54, 105
1, 170412, Note_on_c, 9, 54, 0
1, 170760, Note_on_c, 1, 34, 0
1, 170880, Note_on_c, 1, 29, 106
1, 170880, Note_on_c, 2, 65, 0
1, 170880, Note_on_c, 2, 65, 78
1, 170880, Note_on_c, 2, 69, 0
1, 170880, Note_on_c, 2, 69, 78
1, 170880, Note_on_c, 2, 72, 97
1, 170880, Note_on_c, 2, 74, 0
1, 170880, Note_on_c, 6, 53, 0
1, 170880, Note_on_c, 6, 53, 80
1, 170880, Note_on_c, 6, 57, 0
1, 170880, Note_on_c, 6, 57, 80
1, 170880, Note_on_c, 6, 60, 80
1, 170880, Note_on_c, 6, 62, 0
1, 170880, Note_on_c, 7, 72, 117
1, 170880, Note_on_c, 9, 35, 105
1, 170891, Note_on_c, 4, 65, 78
1, 170891, Note_on_c, 4, 69, 78
1, 170892, Note_on_c, 4, 65, 0
1, 170892, Note_on_c, 4, 69, 0
1, 170892, Note_on_c, 9, 35, 0
1, 171360, Note_on_c, 1, 29, 0
1, 171600, Lyric_t, "BLA"
1, 171600, Note_on_c, 1, 29, 106
1, 171600, Note_on_c, 3, 69, 119
1, 171600, Note_on_c, 9, 35, 105
1, 171612, Note_on_c, 9, 35, 0
1, 171773, Note_on_c, 1, 29, 0
1, 171840, Note_on_c, 1, 29, 106
1, 171840, Note_on_c, 9, 35, 105
1, 171852, Note_on_c, 9, 35, 0
1, 172200, Note_on_c, 3, 67, 105
1, 172200, Note_on_c, 9, 69, 105
1, 172210, Note_on_c, 3, 69, 0
1, 172212, Note_on_c, 9, 69, 0
1, 172290, Note_on_c, 3, 67, 0
1, 172320, Lyric_t, "CK"
1, 172320, Lyric_t, "\015"
1, 172320, Note_on_c, 3, 69, 105
1, 172320, Note_on_c, 9, 54, 105
1, 172332, Note_on_c, 9, 54, 0
1, 172493, Note_on_c, 7, 72, 0
1, 172680, Note_on_c, 1, 29, 0
1, 172800, Note_on_c, 1, 29, 106
1, 172800, Note_on_c, 9, 35, 105
1, 172812, Note_on_c, 9, 35, 0
1, 173280, Note_on_c, 1, 29, 0
1, 173520, Note_on_c, 1, 29, 106
1, 173520, Note_on_c, 9, 35, 105
1, 173532, Note_on_c, 9, 35, 0
1, 173693, Note_on_c, 1, 29, 0
1, 173760, Note_on_c, 1, 29, 106
1, 173760, Note_on_c, 9, 35, 105
1, 173772, Note_on_c, 9, 35, 0
1, 174120, Note_on_c, 9, 69, 105
1, 174132, Note_on_c, 9, 69, 0
1, 174240, Note_on_c, 9, 54, 105
1, 174252, Note_on_c, 9, 54, 0
1, 174266, Note_on_c, 3, 69, 0
1, 174600, Note_on_c, 1, 29, 0
1, 174720, Tempo, 530973
1, 174720, Note_on_c, 1, 33, 106
1, 174720, Note_on_c, 2, 64, 78
1, 174720, Note_on_c, 2, 65, 0
1, 174720, Note_on_c, 2, 69, 0
1, 174720, Note_on_c, 2, 69, 78
1, 174720, Note_on_c, 2, 72, 0
1, 174720, Note_on_c, 2, 73, 97
1, 174720, Note_on_c, 6, 52, 80
1, 174720, Note_on_c, 6, 53, 0
1, 174720, Note_on_c, 6, 57, 0
1, 174720, Note_on_c, 6, 57, 80
1, 174720, Note_on_c, 6, 60, 0
1, 174720, Note_on_c, 6, 61, 80
1, 174720, Note_on_c, 7, 73, 117
1, 174720, Note_on_c, 9, 35, 105
1, 174731, Note_on_c, 4, 64, 78
1, 174731, Note_on_c, 4, 69, 78
1, 174732, Note_on_c, 4, 65, 0
1, 174732, Note_on_c, 4, 69, 0
1, 174732, Note_on_c, 9, 35, 0
1, 175200, Note_on_c, 1, 33, 0
1, 175440, Lyric_t, "BLA"
1, 175440, Note_on_c, 1, 33, 106
1, 175440, Note_on_c, 3, 69, 119
1, 175440, Note_on_c, 9, 35, 105
1, 175452, Note_on_c, 9, 35, 0
1, 175613, Note_on_c, 1, 33, 0
1, 175680, Note_on_c, 1, 33, 106
1, 175680, Note_on_c, 9, 35, 105
1, 175692, Note_on_c, 9, 35, 0
1, 176040, Note_on_c, 3, 67, 105
1, 176040, Note_on_c, 9, 69, 105
1, 176050, Note_on_c, 3, 69, 0
1, 176052, Note_on_c, 9, 69, 0
1, 176130, Note_on_c, 3, 67, 0
1, 176160, Lyric_t, "CK"
1, 176160, Lyric_t, "\015"
1, 176160, Note_on_c, 3, 69, 105
1, 176160, Note_on_c, 9, 54, 105
1, 176172, Note_on_c, 9, 54, 0
1, 176333, Note_on_c, 7, 73, 0
1, 176520, Note_on_c, 1, 33, 0
1, 176640, Note_on_c, 1, 33, 106
1, 176640, Note_on_c, 9, 35, 105
1, 176652, Note_on_c, 9, 35, 0
1, 177120, Note_on_c, 1, 33, 0
1, 177360, Note_on_c, 1, 33, 106
1, 177360, Note_on_c, 9, 35, 105
1, 177372, Note_on_c, 9, 35, 0
1, 177533, Note_on_c, 1, 33, 0
1, 177600, Note_on_c, 1, 33, 106
1, 177600, Note_on_c, 5, 61, 100
1, 177600, Note_on_c, 9, 35, 105
1, 177612, Note_on_c, 9, 35, 0
1, 177820, Note_on_c, 5, 61, 0
1, 177840, Note_on_c, 5, 64, 109
1, 177960, Note_on_c, 9, 69, 105
1, 177972, Note_on_c, 9, 69, 0
1, 178039, Note_on_c, 5, 64, 0
1, 178080, Note_on_c, 5, 69, 124
1, 178080, Note_on_c, 9, 54, 105
1, 178092, Note_on_c, 9, 54, 0
1, 178106, Note_on_c, 3, 69, 0
1, 178283, Note_on_c, 5, 69, 0
1, 178320, Note_on_c, 5, 67, 127
1, 178440, Note_on_c, 1, 33, 0
1, 178529, Note_on_c, 5, 67, 0
1, 178560, Tempo, 526315
1, 178560, Note_on_c, 1, 38, 106
1, 178560, Note_on_c, 2, 64, 0
1, 178560, Note_on_c, 2, 65, 78
1, 178560, Note_on_c, 2, 69, 0
1, 178560, Note_on_c, 2, 69, 78
1, 178560, Note_on_c, 2, 73, 0
1, 178560, Note_on_c, 5, 65, 127
1, 178560, Note_on_c, 6, 52, 0
1, 178560, Note_on_c, 6, 53, 80
1, 178560, Note_on_c, 6, 57, 0
1, 178560, Note_on_c, 6, 57, 80
1, 178560, Note_on_c, 6, 61, 0
1, 178560, Note_on_c, 6, 62, 80
1, 178560, Note_on_c, 7, 74, 119
1, 178560, Note_on_c, 9, 35, 105
1, 178571, Note_on_c, 4, 65, 78
1, 178571, Note_on_c, 4, 69, 78
1, 178572, Note_on_c, 4, 64, 0
1, 178572, Note_on_c, 4, 69, 0
1, 178572, Note_on_c, 9, 35, 0
1, 178620, Control_c, 10, 11, 72
1, 178804, Control_c, 10, 11, 73
1, 178896, Control_c, 10, 11, 74
1, 178988, Control_c, 10, 11, 75
1, 179040, Note_on_c, 1, 38, 0
1, 179040, Note_on_c, 10, 74, 121
1, 179080, Control_c, 10, 11, 76
1, 179172, Control_c, 10, 11, 77
1, 179264, Control_c, 10, 11, 78
1, 179280, Lyric_t, "BLA"
1, 179280, Note_on_c, 1, 38, 106
1, 179280, Note_on_c, 3, 69, 119
1, 179280, Note_on_c, 9, 35, 105
1, 179292, Note_on_c, 9, 35, 0
1, 179356, Control_c, 10, 11, 79
1, 179448, Control_c, 10, 11, 80
1, 179453, Note_on_c, 1, 38, 0
1, 179520, Note_on_c, 1, 38, 106
1, 179520, Note_on_c, 9, 35, 105
1, 179532, Note_on_c, 9, 35, 0
1, 179540, Control_c, 10, 11, 81
1, 179609, Note_on_c, 5, 65, 0
1, 179632, Control_c, 10, 11, 82
1, 179724, Control_c, 10, 11, 83
1, 179816, Control_c, 10, 11, 84
1, 179868, Note_on_c, 3, 69, 0
1, 179880, Note_on_c, 3, 67, 105
1, 179880, Note_on_c, 9, 69, 105
1, 179892, Note_on_c, 9, 69, 0
1, 179908, Control_c, 10, 11, 85
1, 179964, Note_on_c, 3, 67, 0
1, 180000, Lyric_t, "CK"
1, 180000, Lyric_t, "\015"
1, 180000, Note_on_c, 3, 69, 101
1, 180000, Note_on_c, 9, 54, 105
1, 180000, Control_c, 10, 11, 86
1, 180012, Note_on_c, 9, 54, 0
1, 180092, Control_c, 10, 11, 87
1, 180173, Note_on_c, 7, 74, 0
1, 180184, Control_c, 10, 11, 88
1, 180276, Control_c, 10, 11, 89
1, 180360, Note_on_c, 1, 38, 0
1, 180368, Control_c, 10, 11, 90
1, 180460, Control_c, 10, 11, 91
1, 180480, Note_on_c, 1, 38, 106
1, 180480, Note_on_c, 5, 62, 102
1, 180480, Note_on_c, 9, 35, 105
1, 180492, Note_on_c, 9, 35, 0
1, 180552, Control_c, 10, 11, 92
1, 180644, Control_c, 10, 11, 93
1, 180736, Control_c, 10, 11, 94
1, 180828, Control_c, 10, 11, 95
1, 180920, Control_c, 10, 11, 96
1, 180960, Note_on_c, 1, 38, 0
1, 181012, Control_c, 10, 11, 97
1, 181104, Control_c, 10, 11, 98
1, 181159, Note_on_c, 5, 62, 0
1, 181196, Control_c, 10, 11, 99
1, 181200, Note_on_c, 1, 38, 106
1, 181200, Note_on_c, 5, 65, 106
1, 181200, Note_on_c, 9, 35, 105
1, 181212, Note_on_c, 9, 35, 0
1, 181288, Control_c, 10, 11, 100
1, 181362, Note_on_c, 3, 69, 0
1, 181373, Note_on_c, 1, 38, 0
1, 181380, Control_c, 10, 11, 101
1, 181436, Note_on_c, 5, 65, 0
1, 181440, Note_on_c, 1, 38, 106
1, 181440, Note_on_c, 5, 69, 105
1, 181440, Note_on_c, 9, 35, 105
1, 181452, Note_on_c, 9, 35, 0
1, 181472, Control_c, 10, 11, 102
1, 181564, Control_c, 10, 11, 103
1, 181656, Control_c, 10, 11, 104
1, 181748, Control_c, 10, 11, 105
1, 181800, Note_on_c, 9, 69, 105
1, 181812, Note_on_c, 9, 69, 0
1, 181840, Control_c, 10, 11, 106
1, 181920, Note_on_c, 5, 74, 124
1, 181920, Note_on_c, 9, 54, 105
1, 181932, Note_on_c, 9, 54, 0
1, 181932, Control_c, 10, 11, 107
1, 181937, Note_on_c, 5, 69, 0
1, 182024, Control_c, 10, 11, 108
1, 182116, Control_c, 10, 11, 109
1, 182208, Control_c, 10, 11, 110
1, 182280, Note_on_c, 1, 38, 0
1, 182300, Control_c, 10, 11, 111
1, 182392, Control_c, 10, 11, 112
1, 182400, Tempo, 521739
1, 182400, Note_on_c, 1, 34, 106
1, 182400, Note_on_c, 7, 70, 117
1, 182400, Note_on_c, 9, 35, 105
1, 182412, Note_on_c, 9, 35, 0
1, 182484, Control_c, 10, 11, 113
1, 182576, Control_c, 10, 11, 114
1, 182668, Control_c, 10, 11, 115
1, 182760, Control_c, 10, 11, 116
1, 182852, Control_c, 10, 11, 117
1, 182880, Note_on_c, 1, 34, 0
1, 182944, Control_c, 10, 11, 118
1, 183036, Control_c, 10, 11, 119
1, 183120, Lyric_t, "BLA"
1, 183120, Note_on_c, 1, 34, 106
1, 183120, Note_on_c, 3, 69, 127
1, 183120, Note_on_c, 9, 35, 105
1, 183128, Control_c, 10, 11, 120
1, 183132, Note_on_c, 9, 35, 0
1, 183220, Control_c, 10, 11, 121
1, 183293, Note_on_c, 1, 34, 0
1, 183312, Control_c, 10, 11, 122
1, 183360, Note_on_c, 1, 34, 106
1, 183360, Note_on_c, 9, 35, 105
1, 183372, Note_on_c, 9, 35, 0
1, 183404, Control_c, 10, 11, 123
1, 183496, Control_c, 10, 11, 124
1, 183512, Note_on_c, 5, 74, 0
1, 183588, Control_c, 10, 11, 125
1, 183690, Control_c, 10, 11, 127
1, 183720, Note_on_c, 9, 69, 105
1, 183732, Note_on_c, 9, 69, 0
1, 183755, Note_on_c, 3, 69, 0
1, 183840, Note_on_c, 3, 67, 114
1, 183840, Note_on_c, 9, 54, 105
1, 183852, Note_on_c, 9, 54, 0
1, 183950, Note_on_c, 3, 67, 0
1, 183960, Lyric_t, "CK"
1, 183960, Lyric_t, "\015"
1, 183960, Note_on_c, 3, 69, 101
1, 184013, Note_on_c, 7, 70, 0
1, 184200, Note_on_c, 1, 34, 0
1, 184320, Note_on_c, 1, 34, 106
1, 184320, Note_on_c, 9, 35, 105
1, 184332, Note_on_c, 9, 35, 0
1, 184800, Note_on_c, 1, 34, 0
1, 184802, Note_on_c, 5, 65, 120
1, 185040, Note_on_c, 1, 34, 106
1, 185040, Note_on_c, 9, 35, 105
1, 185052, Note_on_c, 9, 35, 0
1, 185060, Note_on_c, 5, 70, 125
1, 185150, Note_on_c, 3, 69, 0
1, 185176, Note_on_c, 5, 70, 0
1, 185213, Note_on_c, 1, 34, 0
1, 185280, Note_on_c, 1, 34, 106
1, 185280, Note_on_c, 9, 35, 105
1, 185292, Note_on_c, 9, 35, 0
1, 185311, Note_on_c, 5, 70, 127
1, 185640, Note_on_c, 9, 69, 105
1, 185652, Note_on_c, 9, 69, 0
1, 185756, Note_on_c, 10, 74, 0
1, 185760, Note_on_c, 9, 54, 105
1, 185760, Note_on_c, 10, 65, 121
1, 185772, Note_on_c, 9, 54, 0
1, 185774, Note_on_c, 5, 74, 124
1, 185996, Note_on_c, 10, 65, 0
1, 186000, Note_on_c, 10, 74, 121
1, 186120, Note_on_c, 1, 34, 0
1, 186187, Note_on_c, 5, 65, 0
1, 186191, Note_on_c, 5, 70, 0
1, 186210, Note_on_c, 5, 74, 0
1, 186236, Note_on_c, 10, 74, 0
1, 186240, Note_on_c, 1, 29, 106
1, 186240, Note_on_c, 2, 65, 0
1, 186240, Note_on_c, 2, 65, 78
1, 186240, Note_on_c, 2, 69, 0
1, 186240, Note_on_c, 2, 69, 78
1, 186240, Note_on_c, 6, 53, 0
1, 186240, Note_on_c, 6, 53, 80
1, 186240, Note_on_c, 6, 57, 0
1, 186240, Note_on_c, 6, 57, 80
1, 186240, Note_on_c, 6, 60, 80
1, 186240, Note_on_c, 6, 62, 0
1, 186240, Note_on_c, 7, 72, 117
1, 186240, Note_on_c, 9, 35, 105
1, 186240, Note_on_c, 10, 72, 121
1, 186251, Note_on_c, 4, 65, 78
1, 186251, Note_on_c, 4, 69, 78
1, 186252, Note_on_c, 4, 65, 0
1, 186252, Note_on_c, 4, 69, 0
1, 186252, Note_on_c, 9, 35, 0
1, 186265, Note_on_c, 5, 72, 127
1, 186720, Note_on_c, 1, 29, 0
1, 186960, Lyric_t, "BLA"
1, 186960, Note_on_c, 1, 29, 106
1, 186960, Note_on_c, 3, 69, 119
1, 186960, Note_on_c, 9, 35, 105
1, 186972, Note_on_c, 9, 35, 0
1, 187133, Note_on_c, 1, 29, 0
1, 187200, Note_on_c, 1, 29, 106
1, 187200, Note_on_c, 9, 35, 105
1, 187212, Note_on_c, 9, 35, 0
1, 187277, Note_on_c, 5, 72, 0
1, 187560, Note_on_c, 3, 67, 105
1, 187560, Note_on_c, 9, 69, 105
1, 187570, Note_on_c, 3, 69, 0
1, 187572, Note_on_c, 9, 69, 0
1, 187650, Note_on_c, 3, 67, 0
1, 187676, Note_on_c, 5, 67, 119
1, 187680, Lyric_t, "CK"
1, 187680, Lyric_t, "\015"
1, 187680, Note_on_c, 3, 69, 105
1, 187680, Note_on_c, 9, 54, 105
1, 187692, Note_on_c, 9, 54, 0
1, 187853, Note_on_c, 7, 72, 0
1, 187922, Note_on_c, 5, 65, 127
1, 187946, Note_on_c, 5, 67, 0
1, 188040, Note_on_c, 1, 29, 0
1, 188160, Note_on_c, 1, 29, 106
1, 188160, Note_on_c, 9, 35, 105
1, 188172, Note_on_c, 9, 35, 0
1, 188185, Note_on_c, 5, 72, 125
1, 188186, Note_on_c, 5, 65, 0
1, 188640, Note_on_c, 1, 29, 0
1, 188841, Note_on_c, 5, 72, 0
1, 188880, Note_on_c, 1, 29, 106
1, 188880, Note_on_c, 9, 35, 105
1, 188892, Note_on_c, 9, 35, 0
1, 189053, Note_on_c, 1, 29, 0
1, 189116, Note_on_c, 10, 72, 0
1, 189120, Note_on_c, 1, 29, 106
1, 189120, Note_on_c, 9, 35, 105
1, 189120, Note_on_c, 10, 69, 121
1, 189132, Note_on_c, 5, 69, 114
1, 189132, Note_on_c, 9, 35, 0
1, 189356, Note_on_c, 10, 69, 0
1, 189360, Note_on_c, 10, 67, 121
1, 189460, Note_on_c, 5, 69, 0
1, 189479, Note_on_c, 5, 67, 114
1, 189480, Note_on_c, 9, 69, 105
1, 189492, Note_on_c, 9, 69, 0
1, 189600, Note_on_c, 9, 54, 105
1, 189612, Note_on_c, 9, 54, 0
1, 189626, Note_on_c, 3, 69, 0
1, 189716, Note_on_c, 10, 67, 0
1, 189720, Note_on_c, 10, 65, 121
1, 189792, Note_on_c, 5, 67, 0
1, 189839, Note_on_c, 5, 65, 114
1, 189960, Note_on_c, 1, 29, 0
1, 190076, Note_on_c, 10, 65, 0
1, 190080, Note_on_c, 1, 33, 106
1, 190080, Note_on_c, 2, 64, 78
1, 190080, Note_on_c, 2, 65, 0
1, 190080, Note_on_c, 2, 69, 0
1, 190080, Note_on_c, 2, 69, 78
1, 190080, Note_on_c, 5, 61, 104
1, 190080, Note_on_c, 5, 69, 104
1, 190080, Note_on_c, 6, 52, 80
1, 190080, Note_on_c, 6, 53, 0
1, 190080, Note_on_c, 6, 57, 0
1, 190080, Note_on_c, 6, 57, 80
1, 190080, Note_on_c, 6, 60, 0
1, 190080, Note_on_c, 6, 61, 80
1, 190080, Note_on_c, 7, 73, 117
1, 190080, Note_on_c, 9, 35, 105
1, 190080, Note_on_c, 10, 69, 121
1, 190091, Note_on_c, 4, 64, 78
1, 190091, Note_on_c, 4, 69, 78
1, 190092, Note_on_c, 4, 65, 0
1, 190092, Note_on_c, 4, 69, 0
1, 190092, Note_on_c, 5, 65, 0
1, 190092, Note_on_c, 9, 35, 0
1, 190096, Note_on_c, 5, 64, 104
1, 190560, Lyric_t, "I "
1, 190560, Note_on_c, 1, 33, 0
1, 190560, Note_on_c, 3, 77, 105
1, 190800, Note_on_c, 1, 33, 106
1, 190800, Note_on_c, 9, 35, 105
1, 190812, Note_on_c, 9, 35, 0
1, 190973, Note_on_c, 1, 33, 0
1, 191036, Note_on_c, 3, 77, 0
1, 191040, Lyric_t, "GO "
1, 191040, Note_on_c, 1, 33, 106
1, 191040, Note_on_c, 3, 76, 105
1, 191040, Note_on_c, 9, 35, 105
1, 191052, Note_on_c, 9, 35, 0
1, 191400, Note_on_c, 9, 69, 105
1, 191412, Note_on_c, 9, 69, 0
1, 191520, Note_on_c, 9, 54, 105
1, 191532, Note_on_c, 9, 54, 0
1, 191693, Note_on_c, 7, 73, 0
1, 191880, Note_on_c, 1, 33, 0
1, 191949, Note_on_c, 5, 61, 0
1, 191949, Note_on_c, 5, 69, 0
1, 191965, Note_on_c, 5, 64, 0
1, 191969, Note_on_c, 10, 69, 0
1, 191996, Note_on_c, 3, 76, 0
1, 192000, Lyric_t, "BACK "
1, 192000, Note_on_c, 1, 33, 106
1, 192000, Note_on_c, 2, 67, 96
1, 192000, Note_on_c, 2, 69, 0
1, 192000, Note_on_c, 3, 74, 105
1, 192000, Note_on_c, 5, 58, 127
1, 192000, Note_on_c, 5, 62, 97
1, 192000, Note_on_c, 5, 67, 114
1, 192000, Note_on_c, 6, 57, 0
1, 192000, Note_on_c, 6, 58, 107
1, 192000, Note_on_c, 9, 35, 105
1, 192000, Note_on_c, 10, 67, 121
1, 192012, Note_on_c, 9, 35, 0
1, 192480, Note_on_c, 1, 33, 0
1, 192720, Note_on_c, 1, 33, 106
1, 192720, Note_on_c, 9, 35, 105
1, 192732, Note_on_c, 9, 35, 0
1, 192893, Note_on_c, 1, 33, 0
1, 192956, Note_on_c, 3, 74, 0
1, 192956, Note_on_c, 5, 58, 0
1, 192956, Note_on_c, 6, 58, 0
1, 192960, Lyric_t, "TO"
1, 192960, Lyric_t, "\015"
1, 192960, Note_on_c, 1, 33, 106
1, 192960, Note_on_c, 3, 73, 105
1, 192960, Note_on_c, 5, 57, 127
1, 192960, Note_on_c, 6, 57, 107
1, 192960, Note_on_c, 9, 35, 105
1, 192972, Note_on_c, 9, 35, 0
1, 193320, Note_on_c, 9, 69, 105
1, 193332, Note_on_c, 9, 69, 0
1, 193440, Note_on_c, 9, 54, 105
1, 193452, Note_on_c, 9, 54, 0
1, 193800, Note_on_c, 1, 33, 0
1, 193841, Note_on_c, 5, 62, 0
1, 193844, Note_on_c, 5, 67, 0
1, 193889, Note_on_c, 10, 67, 0
1, 193916, Note_on_c, 5, 57, 0
1, 193920, Note_on_c, 1, 33, 106
1, 193920, Note_on_c, 2, 64, 0
1, 193920, Note_on_c, 2, 67, 0
1, 193920, Note_on_c, 5, 57, 114
1, 193920, Note_on_c, 5, 65, 97
1, 193920, Note_on_c, 5, 67, 107
1, 193920, Note_on_c, 5, 70, 122
1, 193920, Note_on_c, 6, 52, 0
1, 193920, Note_on_c, 6, 53, 80
1, 193920, Note_on_c, 9, 35, 105
1, 193920, Note_on_c, 10, 65, 121
1, 193927, Note_on_c, 4, 64, 0
1, 193931, Note_on_c, 4, 65, 78
1, 193932, Note_on_c, 9, 35, 0
1, 193946, Note_on_c, 3, 73, 0
1, 194400, Lyric_t, "I "
1, 194400, Note_on_c, 1, 33, 0
1, 194400, Note_on_c, 3, 77, 105
1, 194640, Note_on_c, 1, 33, 106
1, 194640, Note_on_c, 9, 35, 105
1, 194652, Note_on_c, 9, 35, 0
1, 194813, Note_on_c, 1, 33, 0
1, 194876, Note_on_c, 3, 77, 0
1, 194880, Lyric_t, "GO "
1, 194880, Note_on_c, 1, 33, 106
1, 194880, Note_on_c, 3, 76, 105
1, 194880, Note_on_c, 9, 35, 105
1, 194892, Note_on_c, 9, 35, 0
1, 195240, Note_on_c, 9, 69, 105
1, 195252, Note_on_c, 9, 69, 0
1, 195360, Note_on_c, 9, 54, 105
1, 195372, Note_on_c, 9, 54, 0
1, 195720, Note_on_c, 1, 33, 0
1, 195803, Note_on_c, 5, 67, 0
1, 195808, Note_on_c, 5, 65, 0
1, 195809, Note_on_c, 10, 65, 0
1, 195811, Note_on_c, 5, 70, 0
1, 195828, Note_on_c, 5, 57, 0
1, 195836, Note_on_c, 3, 76, 0
1, 195836, Note_on_c, 6, 53, 0
1, 195840, Lyric_t, "BACK "
1, 195840, Note_on_c, 1, 33, 106
1, 195840, Note_on_c, 3, 74, 105
1, 195840, Note_on_c, 5, 61, 104
1, 195840, Note_on_c, 5, 64, 97
1, 195840, Note_on_c, 5, 67, 109
1, 195840, Note_on_c, 5, 69, 97
1, 195840, Note_on_c, 6, 52, 80
1, 195840, Note_on_c, 9, 35, 105
1, 195840, Note_on_c, 10, 64, 121
1, 195847, Note_on_c, 4, 65, 0
1, 195851, Note_on_c, 4, 64, 78
1, 195852, Note_on_c, 9, 35, 0
1, 196320, Note_on_c, 1, 33, 0
1, 196560, Note_on_c, 1, 33, 106
1, 196560, Note_on_c, 9, 35, 105
1, 196572, Note_on_c, 9, 35, 0
1, 196733, Note_on_c, 1, 33, 0
1, 196796, Note_on_c, 3, 74, 0
1, 196800, Lyric_t, "TO"
1, 196800, Lyric_t, "\015"
1, 196800, Note_on_c, 1, 33, 106
1, 196800, Note_on_c, 3, 73, 105
1, 196800, Note_on_c, 9, 35, 105
1, 196812, Note_on_c, 9, 35, 0
1, 197160, Note_on_c, 9, 69, 105
1, 197172, Note_on_c, 9, 69, 0
1, 197280, Note_on_c, 9, 54, 105
1, 197292, Note_on_c, 9, 54, 0
1, 197423, Note_on_c, 5, 64, 0
1, 197428, Note_on_c, 5, 69, 0
1, 197432, Note_on_c, 5, 67, 0
1, 197433, Note_on_c, 5, 61, 0
1, 197640, Note_on_c, 1, 33, 0
1, 197729, Note_on_c, 10, 64, 0
1, 197756, Note_on_c, 6, 52, 0
1, 197756, Note_on_c, 6, 57, 0
1, 197760, Tempo, 482315
1, 197760, Note_on_c, 1, 38, 110
1, 197760, Note_on_c, 5, 74, 101
1, 197760, Note_on_c, 5, 77, 97
1, 197760, Note_on_c, 5, 81, 105
1, 197760, Note_on_c, 6, 61, 0
1, 197760, Note_on_c, 8, 38, 110
1, 197760, Note_on_c, 9, 35, 114
1, 197760, Note_on_c, 10, 74, 104
1, 197760, Note_on_c, 11, 41, 114
1, 197772, Note_on_c, 4, 69, 0
1, 197772, Note_on_c, 9, 35, 0
1, 197779, Note_on_c, 14, 62, 101
1, 197779, Note_on_c, 14, 65, 97
1, 197779, Note_on_c, 14, 69, 105
1, 197786, Note_on_c, 3, 73, 0
1, 197833, Note_on_c, 5, 81, 0
1, 197853, Note_on_c, 14, 69, 0
1, 197881, Note_on_c, 5, 77, 0
1, 197883, Note_on_c, 5, 74, 0
1, 197900, Note_on_c, 14, 65, 0
1, 197902, Note_on_c, 14, 62, 0
1, 197921, Note_on_c, 11, 41, 0
1, 198240, Note_on_c, 5, 74, 111
1, 198240, Note_on_c, 5, 77, 107
1, 198240, Note_on_c, 5, 81, 105
1, 198240, Note_on_c, 9, 44, 107
1, 198240, Note_on_c, 9, 69, 109
1, 198240, Note_on_c, 12, 57, 110
1, 198252, Note_on_c, 9, 44, 0
1, 198252, Note_on_c, 9, 69, 0
1, 198253, Note_on_c, 1, 38, 0
1, 198253, Note_on_c, 8, 38, 0
1, 198259, Note_on_c, 14, 62, 111
1, 198259, Note_on_c, 14, 65, 107
1, 198259, Note_on_c, 14, 69, 105
1, 198397, Note_on_c, 5, 81, 0
1, 198404, Note_on_c, 5, 77, 0
1, 198408, Note_on_c, 5, 74, 0
1, 198417, Note_on_c, 14, 69, 0
1, 198424, Note_on_c, 14, 65, 0
1, 198428, Note_on_c, 14, 62, 0
1, 198560, Note_on_c, 1, 38, 110
1, 198560, Note_on_c, 8, 38, 110
1, 198560, Note_on_c, 9, 35, 107
1, 198560, Note_on_c, 11, 41, 107
1, 198572, Note_on_c, 9, 35, 0
1, 198606, Note_on_c, 1, 38, 0
1, 198606, Note_on_c, 8, 38, 0
1, 198698, Lyric_t, "WE "
1, 198698, Note_on_c, 3, 76, 124
1, 198720, Note_on_c, 1, 38, 110
1, 198720, Note_on_c, 5, 74, 105
1, 198720, Note_on_c, 5, 77, 94
1, 198720, Note_on_c, 5, 81, 94
1, 198720, Note_on_c, 8, 38, 110
1, 198720, Note_on_c, 9, 35, 114
1, 198720, Note_on_c, 11, 41, 114
1, 198720, Note_on_c, 12, 62, 110
1, 198721, Note_on_c, 11, 41, 0
1, 198732, Note_on_c, 9, 35, 0
1, 198739, Note_on_c, 14, 62, 105
1, 198739, Note_on_c, 14, 65, 94
1, 198739, Note_on_c, 14, 69, 94
1, 198875, Note_on_c, 5, 81, 0
1, 198881, Note_on_c, 11, 41, 0
1, 198883, Note_on_c, 5, 74, 0
1, 198887, Note_on_c, 5, 77, 0
1, 198895, Note_on_c, 14, 69, 0
1, 198903, Note_on_c, 14, 62, 0
1, 198907, Note_on_c, 14, 65, 0
1, 198982, Note_on_c, 3, 76, 0
1, 199040, Note_on_c, 9, 70, 65
1, 199052, Note_on_c, 9, 70, 0
1, 199068, Lyric_t, "ON"
1, 199068, Note_on_c, 3, 77, 114
1, 199200, Note_on_c, 5, 74, 109
1, 199200, Note_on_c, 5, 77, 94
1, 199200, Note_on_c, 5, 81, 94
1, 199200, Note_on_c, 9, 44, 107
1, 199200, Note_on_c, 9, 54, 109
1, 199200, Note_on_c, 12, 65, 102
1, 199212, Note_on_c, 9, 44, 0
1, 199212, Note_on_c, 9, 54, 0
1, 199213, Note_on_c, 1, 38, 0
1, 199213, Note_on_c, 8, 38, 0
1, 199219, Note_on_c, 14, 62, 109
1, 199219, Note_on_c, 14, 65, 94
1, 199219, Note_on_c, 14, 69, 94
1, 199282, Note_on_c, 3, 77, 0
1, 199341, Note_on_c, 5, 81, 0
1, 199354, Note_on_c, 5, 74, 0
1, 199354, Note_on_c, 5, 77, 0
1, 199361, Note_on_c, 14, 69, 0
1, 199374, Note_on_c, 14, 62, 0
1, 199374, Note_on_c, 14, 65, 0
1, 199383, Lyric_t, "LY "
1, 199383, Note_on_c, 3, 76, 127
1, 199654, Note_on_c, 3, 76, 0
1, 199680, Tempo, 478468
1, 199680, Note_on_c, 1, 38, 110
1, 199680, Note_on_c, 5, 74, 109
1, 199680, Note_on_c, 5, 77, 94
1, 199680, Note_on_c, 5, 81, 101
1, 199680, Note_on_c, 8, 38, 110
1, 199680, Note_on_c, 9, 35, 114
1, 199680, Note_on_c, 11, 41, 114
1, 199687, Note_on_c, 4, 64, 0
1, 199692, Note_on_c, 9, 35, 0
1, 199699, Note_on_c, 14, 62, 109
1, 199699, Note_on_c, 14, 65, 94
1, 199699, Note_on_c, 14, 69, 101
1, 199703, Lyric_t, "SAID "
1, 199703, Note_on_c, 3, 79, 123
1, 199835, Note_on_c, 5, 81, 0
1, 199841, Note_on_c, 11, 41, 0
1, 199851, Note_on_c, 5, 74, 0
1, 199851, Note_on_c, 5, 77, 0
1, 199855, Note_on_c, 14, 69, 0
1, 199871, Note_on_c, 14, 62, 0
1, 199871, Note_on_c, 14, 65, 0
1, 199974, Note_on_c, 3, 79, 0
1, 200118, Lyric_t, "GOOD"
1, 200118, Note_on_c, 3, 77, 125
1, 200160, Note_on_c, 5, 74, 108
1, 200160, Note_on_c, 5, 77, 97
1, 200160, Note_on_c, 5, 81, 98
1, 200160, Note_on_c, 9, 44, 107
1, 200160, Note_on_c, 9, 69, 109
1, 200172, Note_on_c, 9, 44, 0
1, 200172, Note_on_c, 9, 69, 0
1, 200179, Note_on_c, 14, 62, 108
1, 200179, Note_on_c, 14, 65, 97
1, 200179, Note_on_c, 14, 69, 98
1, 200193, Note_on_c, 1, 38, 0
1, 200193, Note_on_c, 8, 38, 0
1, 200306, Note_on_c, 5, 81, 0
1, 200318, Note_on_c, 5, 74, 0
1, 200321, Note_on_c, 3, 77, 0
1, 200323, Note_on_c, 5, 77, 0
1, 200326, Note_on_c, 14, 69, 0
1, 200338, Note_on_c, 14, 62, 0
1, 200343, Note_on_c, 14, 65, 0
1, 200397, Note_on_c, 12, 62, 0
1, 200430, Note_on_c, 12, 65, 0
1, 200431, Note_on_c, 12, 57, 0
1, 200440, Lyric_t, "BYE"
1, 200440, Lyric_t, "\015"
1, 200440, Note_on_c, 3, 77, 114
1, 200480, Note_on_c, 1, 38, 110
1, 200480, Note_on_c, 8, 38, 110
1, 200480, Note_on_c, 9, 35, 114
1, 200480, Note_on_c, 11, 41, 114
1, 200480, Note_on_c, 12, 50, 101
1, 200492, Note_on_c, 9, 35, 0
1, 200636, Note_on_c, 10, 74, 0
1, 200640, Note_on_c, 5, 74, 105
1, 200640, Note_on_c, 5, 77, 89
1, 200640, Note_on_c, 5, 81, 94
1, 200640, Note_on_c, 10, 77, 105
1, 200641, Note_on_c, 11, 41, 0
1, 200659, Note_on_c, 14, 62, 105
1, 200659, Note_on_c, 14, 65, 89
1, 200659, Note_on_c, 14, 69, 94
1, 200786, Note_on_c, 5, 81, 0
1, 200805, Note_on_c, 14, 69, 0
1, 200808, Note_on_c, 5, 74, 0
1, 200808, Note_on_c, 5, 77, 0
1, 200828, Note_on_c, 14, 62, 0
1, 200828, Note_on_c, 14, 65, 0
1, 200883, Note_on_c, 12, 50, 0
1, 200956, Note_on_c, 1, 38, 0
1, 200956, Note_on_c, 8, 38, 0
1, 200960, Note_on_c, 1, 41, 110
1, 200960, Note_on_c, 8, 41, 110
1, 200960, Note_on_c, 9, 35, 114
1, 200960, Note_on_c, 9, 70, 65
1, 200960, Note_on_c, 11, 41, 114
1, 200960, Note_on_c, 12, 48, 86
1, 200972, Note_on_c, 9, 35, 0
1, 200972, Note_on_c, 9, 70, 0
1, 201104, Note_on_c, 12, 48, 0
1, 201116, Note_on_c, 10, 77, 0
1, 201120, Note_on_c, 5, 74, 109
1, 201120, Note_on_c, 5, 77, 97
1, 201120, Note_on_c, 5, 81, 110
1, 201120, Note_on_c, 9, 44, 107
1, 201120, Note_on_c, 9, 54, 109
1, 201120, Note_on_c, 10, 81, 105
1, 201120, Note_on_c, 12, 45, 119
1, 201121, Note_on_c, 11, 41, 0
1, 201132, Note_on_c, 3, 77, 0
1, 201132, Note_on_c, 9, 44, 0
1, 201132, Note_on_c, 9, 54, 0
1, 201139, Note_on_c, 14, 62, 109
1, 201139, Note_on_c, 14, 65, 97
1, 201139, Note_on_c, 14, 69, 110
1, 201146, Lyric_t, "WITH "
1, 201146, Note_on_c, 3, 76, 124
1, 201269, Note_on_c, 5, 81, 0
1, 201278, Note_on_c, 5, 74, 0
1, 201281, Note_on_c, 5, 77, 0
1, 201288, Note_on_c, 14, 69, 0
1, 201297, Note_on_c, 14, 62, 0
1, 201300, Note_on_c, 14, 65, 0
1, 201397, Note_on_c, 3, 76, 0
1, 201435, Lyric_t, "WOR"
1, 201435, Note_on_c, 3, 77, 114
1, 201436, Note_on_c, 1, 41, 0
1, 201436, Note_on_c, 8, 41, 0
1, 201440, Note_on_c, 1, 42, 110
1, 201440, Note_on_c, 8, 42, 110
1, 201574, Note_on_c, 12, 45, 0
1, 201596, Note_on_c, 1, 42, 0
1, 201596, Note_on_c, 8, 42, 0
1, 201596, Note_on_c, 10, 81, 0
1, 201600, Note_on_c, 1, 43, 110
1, 201600, Note_on_c, 5, 74, 101
1, 201600, Note_on_c, 5, 79, 97
1, 201600, Note_on_c, 5, 82, 105
1, 201600, Note_on_c, 8, 43, 110
1, 201600, Note_on_c, 9, 35, 114
1, 201600, Note_on_c, 10, 79, 105
1, 201600, Note_on_c, 11, 41, 114
1, 201600, Note_on_c, 12, 43, 86
1, 201600, Note_on_c, 12, 55, 114
1, 201612, Note_on_c, 9, 35, 0
1, 201619, Note_on_c, 14, 62, 101
1, 201619, Note_on_c, 14, 67, 97
1, 201619, Note_on_c, 14, 70, 105
1, 201673, Note_on_c, 5, 82, 0
1, 201693, Note_on_c, 14, 70, 0
1, 201721, Note_on_c, 5, 79, 0
1, 201723, Note_on_c, 5, 74, 0
1, 201740, Note_on_c, 14, 67, 0
1, 201742, Note_on_c, 14, 62, 0
1, 201755, Note_on_c, 3, 77, 0
1, 201761, Note_on_c, 11, 41, 0
1, 201885, Lyric_t, "DS"
1, 201885, Lyric_t, "\015"
1, 201885, Note_on_c, 3, 70, 127
1, 202065, Note_on_c, 12, 43, 0
1, 202080, Note_on_c, 5, 74, 111
1, 202080, Note_on_c, 5, 79, 107
1, 202080, Note_on_c, 5, 82, 105
1, 202080, Note_on_c, 9, 44, 107
1, 202080, Note_on_c, 9, 69, 109
1, 202080, Note_on_c, 12, 58, 122
1, 202092, Note_on_c, 9, 44, 0
1, 202092, Note_on_c, 9, 69, 0
1, 202099, Note_on_c, 14, 62, 111
1, 202099, Note_on_c, 14, 67, 107
1, 202099, Note_on_c, 14, 70, 105
1, 202108, Note_on_c, 3, 70, 0
1, 202113, Note_on_c, 1, 43, 0
1, 202113, Note_on_c, 8, 43, 0
1, 202237, Note_on_c, 5, 82, 0
1, 202244, Note_on_c, 5, 79, 0
1, 202248, Note_on_c, 5, 74, 0
1, 202257, Note_on_c, 14, 70, 0
1, 202264, Note_on_c, 14, 67, 0
1, 202268, Note_on_c, 14, 62, 0
1, 202400, Note_on_c, 1, 31, 110
1, 202400, Note_on_c, 8, 31, 110
1, 202400, Note_on_c, 9, 35, 107
1, 202400, Note_on_c, 11, 41, 107
1, 202412, Note_on_c, 9, 35, 0
1, 202449, Note_on_c, 1, 31, 0
1, 202449, Note_on_c, 8, 31, 0
1, 202560, Note_on_c, 1, 31, 110
1, 202560, Note_on_c, 5, 74, 105
1, 202560, Note_on_c, 5, 79, 94
1, 202560, Note_on_c, 5, 82, 94
1, 202560, Note_on_c, 8, 31, 110
1, 202560, Note_on_c, 9, 35, 114
1, 202560, Note_on_c, 11, 41, 114
1, 202560, Note_on_c, 12, 62, 119
1, 202561, Note_on_c, 11, 41, 0
1, 202572, Note_on_c, 9, 35, 0
1, 202579, Lyric_t, "I "
1, 202579, Note_on_c, 3, 76, 127
1, 202579, Note_on_c, 14, 62, 105
1, 202579, Note_on_c, 14, 67, 94
1, 202579, Note_on_c, 14, 70, 94
1, 202715, Note_on_c, 5, 82, 0
1, 202721, Note_on_c, 11, 41, 0
1, 202723, Note_on_c, 5, 74, 0
1, 202727, Note_on_c, 5, 79, 0
1, 202735, Note_on_c, 14, 70, 0
1, 202743, Note_on_c, 14, 62, 0
1, 202747, Note_on_c, 14, 67, 0
1, 202880, Note_on_c, 9, 70, 65
1, 202892, Note_on_c, 9, 70, 0
1, 202912, Lyric_t, "DIED "
1, 202912, Note_on_c, 3, 77, 124
1, 202924, Note_on_c, 3, 76, 0
1, 203040, Note_on_c, 5, 74, 109
1, 203040, Note_on_c, 5, 79, 94
1, 203040, Note_on_c, 5, 82, 94
1, 203040, Note_on_c, 9, 44, 107
1, 203040, Note_on_c, 9, 54, 109
1, 203052, Note_on_c, 9, 44, 0
1, 203052, Note_on_c, 9, 54, 0
1, 203053, Note_on_c, 1, 31, 0
1, 203053, Note_on_c, 8, 31, 0
1, 203059, Note_on_c, 14, 62, 109
1, 203059, Note_on_c, 14, 67, 94
1, 203059, Note_on_c, 14, 70, 94
1, 203181, Note_on_c, 5, 82, 0
1, 203194, Note_on_c, 5, 74, 0
1, 203194, Note_on_c, 5, 79, 0
1, 203201, Note_on_c, 14, 70, 0
1, 203214, Note_on_c, 14, 62, 0
1, 203214, Note_on_c, 14, 67, 0
1, 203312, Note_on_c, 3, 77, 0
1, 203328, Lyric_t, "A "
1, 203328, Note_on_c, 3, 76, 127
1, 203520, Note_on_c, 1, 31, 110
1, 203520, Note_on_c, 5, 74, 109
1, 203520, Note_on_c, 5, 79, 94
1, 203520, Note_on_c, 5, 82, 101
1, 203520, Note_on_c, 8, 31, 110
1, 203520, Note_on_c, 9, 35, 114
1, 203520, Note_on_c, 11, 41, 114
1, 203520, Note_on_c, 12, 67, 119
1, 203532, Note_on_c, 9, 35, 0
1, 203539, Note_on_c, 14, 62, 109
1, 203539, Note_on_c, 14, 67, 94
1, 203539, Note_on_c, 14, 70, 101
1, 203675, Note_on_c, 5, 82, 0
1, 203681, Note_on_c, 11, 41, 0
1, 203691, Note_on_c, 5, 74, 0
1, 203691, Note_on_c, 5, 79, 0
1, 203695, Note_on_c, 14, 70, 0
1, 203711, Note_on_c, 14, 62, 0
1, 203711, Note_on_c, 14, 67, 0
1, 203808, Lyric_t, "HUN"
1, 203808, Note_on_c, 3, 79, 127
1, 203836, Note_on_c, 12, 62, 0
1, 203848, Note_on_c, 3, 76, 0
1, 203996, Note_on_c, 12, 67, 0
1, 204000, Note_on_c, 5, 74, 108
1, 204000, Note_on_c, 5, 79, 97
1, 204000, Note_on_c, 5, 82, 98
1, 204000, Note_on_c, 9, 44, 107
1, 204000, Note_on_c, 9, 69, 109
1, 204000, Note_on_c, 12, 62, 119
1, 204012, Note_on_c, 9, 44, 0
1, 204012, Note_on_c, 9, 69, 0
1, 204013, Note_on_c, 1, 31, 0
1, 204013, Note_on_c, 8, 31, 0
1, 204019, Note_on_c, 14, 62, 108
1, 204019, Note_on_c, 14, 67, 97
1, 204019, Note_on_c, 14, 70, 98
1, 204029, Note_on_c, 12, 55, 0
1, 204071, Note_on_c, 12, 58, 0
1, 204146, Note_on_c, 5, 82, 0
1, 204158, Note_on_c, 5, 74, 0
1, 204163, Note_on_c, 5, 79, 0
1, 204166, Note_on_c, 14, 70, 0
1, 204178, Note_on_c, 14, 62, 0
1, 204183, Note_on_c, 14, 67, 0
1, 204226, Note_on_c, 3, 79, 0
1, 204230, Lyric_t, "DRED "
1, 204230, Note_on_c, 3, 77, 115
1, 204320, Note_on_c, 1, 31, 110
1, 204320, Note_on_c, 8, 31, 110
1, 204320, Note_on_c, 9, 35, 114
1, 204320, Note_on_c, 11, 41, 114
1, 204332, Note_on_c, 9, 35, 0
1, 204333, Note_on_c, 3, 77, 0
1, 204431, Lyric_t, "TIMES"
1, 204431, Lyric_t, "\015"
1, 204431, Note_on_c, 3, 77, 119
1, 204476, Note_on_c, 12, 62, 0
1, 204480, Note_on_c, 5, 74, 105
1, 204480, Note_on_c, 5, 79, 89
1, 204480, Note_on_c, 5, 82, 94
1, 204480, Note_on_c, 12, 58, 119
1, 204481, Note_on_c, 11, 41, 0
1, 204499, Note_on_c, 14, 62, 105
1, 204499, Note_on_c, 14, 67, 89
1, 204499, Note_on_c, 14, 70, 94
1, 204626, Note_on_c, 5, 82, 0
1, 204645, Note_on_c, 14, 70, 0
1, 204648, Note_on_c, 5, 74, 0
1, 204648, Note_on_c, 5, 79, 0
1, 204668, Note_on_c, 14, 62, 0
1, 204668, Note_on_c, 14, 67, 0
1, 204800, Note_on_c, 1, 32, 110
1, 204800, Note_on_c, 8, 32, 110
1, 204800, Note_on_c, 9, 35, 114
1, 204800, Note_on_c, 9, 70, 65
1, 204800, Note_on_c, 11, 41, 114
1, 204812, Note_on_c, 9, 35, 0
1, 204812, Note_on_c, 9, 70, 0
1, 204813, Note_on_c, 1, 31, 0
1, 204813, Note_on_c, 8, 31, 0
1, 204960, Note_on_c, 5, 74, 109
1, 204960, Note_on_c, 5, 79, 97
1, 204960, Note_on_c, 5, 82, 110
1, 204960, Note_on_c, 9, 44, 107
1, 204960, Note_on_c, 9, 54, 109
1, 204961, Note_on_c, 11, 41, 0
1, 204972, Note_on_c, 9, 44, 0
1, 204972, Note_on_c, 9, 54, 0
1, 204979, Note_on_c, 14, 62, 109
1, 204979, Note_on_c, 14, 67, 97
1, 204979, Note_on_c, 14, 70, 110
1, 205050, Note_on_c, 3, 77, 0
1, 205109, Note_on_c, 5, 82, 0
1, 205118, Note_on_c, 5, 74, 0
1, 205121, Note_on_c, 5, 79, 0
1, 205128, Note_on_c, 14, 70, 0
1, 205137, Note_on_c, 14, 62, 0
1, 205140, Note_on_c, 14, 67, 0
1, 205276, Note_on_c, 1, 32, 0
1, 205276, Note_on_c, 8, 32, 0
1, 205276, Note_on_c, 12, 58, 0
1, 205280, Note_on_c, 1, 33, 110
1, 205280, Note_on_c, 8, 33, 110
1, 205280, Note_on_c, 12, 55, 119
1, 205356, Note_on_c, 12, 55, 0
1, 205360, Note_on_c, 12, 57, 119
1, 205436, Note_on_c, 1, 33, 0
1, 205436, Note_on_c, 8, 33, 0
1, 205436, Note_on_c, 10, 79, 0
1, 205436, Note_on_c, 12, 57, 0
1, 205440, Note_on_c, 1, 34, 110
1, 205440, Note_on_c, 5, 74, 101
1, 205440, Note_on_c, 5, 77, 97
1, 205440, Note_on_c, 5, 82, 105
1, 205440, Note_on_c, 7, 82, 104
1, 205440, Note_on_c, 8, 34, 110
1, 205440, Note_on_c, 9, 35, 114
1, 205440, Note_on_c, 10, 70, 104
1, 205440, Note_on_c, 10, 82, 104
1, 205440, Note_on_c, 11, 41, 114
1, 205440, Note_on_c, 12, 58, 127
1, 205452, Note_on_c, 9, 35, 0
1, 205459, Note_on_c, 14, 62, 101
1, 205459, Note_on_c, 14, 65, 97
1, 205459, Note_on_c, 14, 70, 105
1, 205513, Note_on_c, 5, 82, 0
1, 205533, Note_on_c, 14, 70, 0
1, 205561, Note_on_c, 5, 77, 0
1, 205563, Note_on_c, 5, 74, 0
1, 205580, Note_on_c, 14, 65, 0
1, 205582, Note_on_c, 14, 62, 0
1, 205601, Note_on_c, 11, 41, 0
1, 205760, Note_on_c, 12, 62, 105
1, 205920, Note_on_c, 5, 74, 111
1, 205920, Note_on_c, 5, 77, 107
1, 205920, Note_on_c, 5, 82, 105
1, 205920, Note_on_c, 9, 44, 107
1, 205920, Note_on_c, 9, 69, 109
1, 205920, Note_on_c, 12, 65, 89
1, 205932, Note_on_c, 9, 44, 0
1, 205932, Note_on_c, 9, 69, 0
1, 205933, Note_on_c, 1, 34, 0
1, 205933, Note_on_c, 8, 34, 0
1, 205939, Note_on_c, 14, 62, 111
1, 205939, Note_on_c, 14, 65, 107
1, 205939, Note_on_c, 14, 70, 105
1, 206077, Note_on_c, 5, 82, 0
1, 206084, Note_on_c, 5, 77, 0
1, 206088, Note_on_c, 5, 74, 0
1, 206097, Note_on_c, 14, 70, 0
1, 206104, Note_on_c, 14, 65, 0
1, 206108, Note_on_c, 14, 62, 0
1, 206195, Lyric_t, "YOU "
1, 206195, Note_on_c, 3, 76, 119
1, 206240, Note_on_c, 1, 34, 110
1, 206240, Note_on_c, 8, 34, 110
1, 206240, Note_on_c, 9, 35, 107
1, 206240, Note_on_c, 11, 41, 107
1, 206240, Note_on_c, 12, 70, 115
1, 206252, Note_on_c, 9, 35, 0
1, 206289, Note_on_c, 1, 34, 0
1, 206289, Note_on_c, 8, 34, 0
1, 206396, Note_on_c, 10, 70, 0
1, 206396, Note_on_c, 10, 82, 0
1, 206400, Note_on_c, 1, 34, 110
1, 206400, Note_on_c, 5, 74, 105
1, 206400, Note_on_c, 5, 77, 94
1, 206400, Note_on_c, 5, 82, 94
1, 206400, Note_on_c, 7, 81, 104
1, 206400, Note_on_c, 8, 34, 110
1, 206400, Note_on_c, 9, 35, 114
1, 206400, Note_on_c, 10, 69, 104
1, 206400, Note_on_c, 10, 81, 104
1, 206400, Note_on_c, 11, 41, 114
1, 206400, Note_on_c, 12, 69, 124
1, 206401, Note_on_c, 11, 41, 0
1, 206412, Note_on_c, 9, 35, 0
1, 206415, Note_on_c, 7, 82, 0
1, 206419, Note_on_c, 14, 62, 105
1, 206419, Note_on_c, 14, 65, 94
1, 206419, Note_on_c, 14, 70, 94
1, 206460, Note_on_c, 12, 70, 0
1, 206555, Note_on_c, 5, 82, 0
1, 206561, Note_on_c, 11, 41, 0
1, 206563, Note_on_c, 5, 74, 0
1, 206567, Note_on_c, 5, 77, 0
1, 206575, Note_on_c, 14, 70, 0
1, 206583, Note_on_c, 14, 62, 0
1, 206587, Note_on_c, 14, 65, 0
1, 206720, Note_on_c, 9, 70, 65
1, 206732, Note_on_c, 9, 70, 0
1, 206735, Note_on_c, 3, 76, 0
1, 206752, Lyric_t, "GO "
1, 206752, Note_on_c, 3, 77, 114
1, 206880, Note_on_c, 5, 74, 109
1, 206880, Note_on_c, 5, 77, 94
1, 206880, Note_on_c, 5, 82, 94
1, 206880, Note_on_c, 9, 44, 107
1, 206880, Note_on_c, 9, 54, 109
1, 206892, Note_on_c, 9, 44, 0
1, 206892, Note_on_c, 9, 54, 0
1, 206893, Note_on_c, 1, 34, 0
1, 206893, Note_on_c, 8, 34, 0
1, 206899, Note_on_c, 14, 62, 109
1, 206899, Note_on_c, 14, 65, 94
1, 206899, Note_on_c, 14, 70, 94
1, 207021, Note_on_c, 5, 82, 0
1, 207030, Note_on_c, 12, 58, 0
1, 207034, Note_on_c, 5, 74, 0
1, 207034, Note_on_c, 5, 77, 0
1, 207041, Note_on_c, 14, 70, 0
1, 207054, Note_on_c, 14, 62, 0
1, 207054, Note_on_c, 14, 65, 0
1, 207058, Note_on_c, 12, 65, 0
1, 207062, Note_on_c, 12, 62, 0
1, 207071, Note_on_c, 12, 69, 0
1, 207301, Note_on_c, 3, 77, 0
1, 207304, Note_on_c, 3, 76, 119
1, 207356, Note_on_c, 10, 69, 0
1, 207356, Note_on_c, 10, 81, 0
1, 207360, Note_on_c, 1, 34, 110
1, 207360, Note_on_c, 5, 74, 109
1, 207360, Note_on_c, 5, 77, 94
1, 207360, Note_on_c, 5, 82, 101
1, 207360, Note_on_c, 7, 79, 104
1, 207360, Note_on_c, 8, 34, 110
1, 207360, Note_on_c, 9, 35, 114
1, 207360, Note_on_c, 10, 67, 104
1, 207360, Note_on_c, 10, 79, 104
1, 207360, Note_on_c, 11, 41, 114
1, 207372, Note_on_c, 9, 35, 0
1, 207375, Note_on_c, 7, 81, 0
1, 207378, Note_on_c, 12, 58, 127
1, 207379, Note_on_c, 14, 62, 109
1, 207379, Note_on_c, 14, 65, 94
1, 207379, Note_on_c, 14, 70, 101
1, 207515, Note_on_c, 5, 82, 0
1, 207521, Note_on_c, 11, 41, 0
1, 207531, Note_on_c, 5, 74, 0
1, 207531, Note_on_c, 5, 77, 0
1, 207535, Note_on_c, 14, 70, 0
1, 207551, Note_on_c, 14, 62, 0
1, 207551, Note_on_c, 14, 65, 0
1, 207648, Note_on_c, 12, 62, 114
1, 207784, Lyric_t, "BACK "
1, 207784, Note_on_c, 3, 79, 119
1, 207813, Note_on_c, 3, 76, 0
1, 207840, Note_on_c, 5, 74, 108
1, 207840, Note_on_c, 5, 77, 97
1, 207840, Note_on_c, 5, 82, 98
1, 207840, Note_on_c, 9, 44, 107
1, 207840, Note_on_c, 9, 69, 109
1, 207852, Note_on_c, 9, 44, 0
1, 207852, Note_on_c, 9, 69, 0
1, 207853, Note_on_c, 1, 34, 0
1, 207853, Note_on_c, 8, 34, 0
1, 207859, Note_on_c, 14, 62, 108
1, 207859, Note_on_c, 14, 65, 97
1, 207859, Note_on_c, 14, 70, 98
1, 207986, Note_on_c, 5, 82, 0
1, 207998, Note_on_c, 5, 74, 0
1, 208003, Note_on_c, 5, 77, 0
1, 208006, Note_on_c, 14, 70, 0
1, 208018, Note_on_c, 14, 62, 0
1, 208023, Note_on_c, 14, 65, 0
1, 208140, Note_on_c, 3, 79, 0
1, 208144, Lyric_t, "TO "
1, 208144, Note_on_c, 3, 77, 127
1, 208160, Note_on_c, 1, 34, 110
1, 208160, Note_on_c, 8, 34, 110
1, 208160, Note_on_c, 9, 35, 114
1, 208160, Note_on_c, 11, 41, 114
1, 208160, Note_on_c, 12, 67, 115
1, 208172, Note_on_c, 9, 35, 0
1, 208311, Note_on_c, 12, 67, 0
1, 208315, Note_on_c, 12, 65, 105
1, 208316, Note_on_c, 10, 67, 0
1, 208316, Note_on_c, 10, 79, 0
1, 208320, Note_on_c, 5, 74, 105
1, 208320, Note_on_c, 5, 77, 89
1, 208320, Note_on_c, 5, 82, 94
1, 208320, Note_on_c, 7, 77, 104
1, 208320, Note_on_c, 10, 65, 104
1, 208320, Note_on_c, 10, 77, 104
1, 208321, Note_on_c, 11, 41, 0
1, 208335, Note_on_c, 7, 79, 0
1, 208339, Note_on_c, 14, 62, 105
1, 208339, Note_on_c, 14, 65, 89
1, 208339, Note_on_c, 14, 70, 94
1, 208466, Note_on_c, 5, 82, 0
1, 208472, Note_on_c, 3, 77, 0
1, 208485, Note_on_c, 14, 70, 0
1, 208488, Note_on_c, 5, 74, 0
1, 208488, Note_on_c, 5, 77, 0
1, 208508, Note_on_c, 14, 62, 0
1, 208508, Note_on_c, 14, 65, 0
1, 208562, Lyric_t, "HER"
1, 208562, Lyric_t, "\015"
1, 208562, Note_on_c, 3, 77, 114
1, 208587, Note_on_c, 1, 34, 0
1, 208587, Note_on_c, 8, 34, 0
1, 208640, Note_on_c, 1, 34, 110
1, 208640, Note_on_c, 8, 34, 110
1, 208640, Note_on_c, 9, 35, 114
1, 208640, Note_on_c, 9, 70, 65
1, 208640, Note_on_c, 11, 41, 114
1, 208652, Note_on_c, 9, 35, 0
1, 208652, Note_on_c, 9, 70, 0
1, 208800, Note_on_c, 5, 74, 109
1, 208800, Note_on_c, 5, 77, 97
1, 208800, Note_on_c, 5, 82, 110
1, 208800, Note_on_c, 9, 44, 107
1, 208800, Note_on_c, 9, 54, 109
1, 208801, Note_on_c, 11, 41, 0
1, 208812, Note_on_c, 9, 44, 0
1, 208812, Note_on_c, 9, 54, 0
1, 208819, Note_on_c, 14, 62, 109
1, 208819, Note_on_c, 14, 65, 97
1, 208819, Note_on_c, 14, 70, 110
1, 208949, Note_on_c, 5, 82, 0
1, 208958, Note_on_c, 5, 74, 0
1, 208961, Note_on_c, 5, 77, 0
1, 208968, Note_on_c, 14, 70, 0
1, 208977, Note_on_c, 14, 62, 0
1, 208980, Note_on_c, 14, 65, 0
1, 209067, Note_on_c, 1, 34, 0
1, 209067, Note_on_c, 8, 34, 0
1, 209098, Note_on_c, 12, 58, 0
1, 209103, Note_on_c, 12, 65, 0
1, 209111, Note_on_c, 12, 62, 0
1, 209116, Note_on_c, 3, 77, 0
1, 209120, Lyric_t, "AND "
1, 209120, Note_on_c, 1, 34, 110
1, 209120, Note_on_c, 3, 76, 119
1, 209120, Note_on_c, 8, 34, 110
1, 209169, Note_on_c, 1, 34, 0
1, 209169, Note_on_c, 8, 34, 0
1, 209196, Note_on_c, 12, 57, 105
1, 209257, Note_on_c, 12, 61, 127
1, 209276, Note_on_c, 3, 76, 0
1, 209280, Lyric_t, "I "
1, 209280, Note_on_c, 1, 33, 110
1, 209280, Note_on_c, 3, 76, 114
1, 209280, Note_on_c, 5, 73, 101
1, 209280, Note_on_c, 5, 76, 97
1, 209280, Note_on_c, 5, 81, 105
1, 209280, Note_on_c, 8, 33, 110
1, 209280, Note_on_c, 9, 35, 114
1, 209280, Note_on_c, 10, 64, 104
1, 209280, Note_on_c, 10, 76, 104
1, 209280, Note_on_c, 11, 41, 114
1, 209292, Note_on_c, 9, 35, 0
1, 209295, Note_on_c, 7, 77, 0
1, 209295, Note_on_c, 10, 65, 0
1, 209295, Note_on_c, 10, 77, 0
1, 209299, Note_on_c, 14, 61, 101
1, 209299, Note_on_c, 14, 64, 97
1, 209299, Note_on_c, 14, 69, 105
1, 209314, Note_on_c, 12, 64, 119
1, 209353, Note_on_c, 5, 81, 0
1, 209373, Note_on_c, 14, 69, 0
1, 209401, Note_on_c, 5, 76, 0
1, 209403, Note_on_c, 5, 73, 0
1, 209420, Note_on_c, 14, 64, 0
1, 209422, Note_on_c, 14, 61, 0
1, 209441, Note_on_c, 11, 41, 0
1, 209760, Note_on_c, 5, 73, 111
1, 209760, Note_on_c, 5, 76, 107
1, 209760, Note_on_c, 5, 81, 105
1, 209760, Note_on_c, 9, 44, 107
1, 209760, Note_on_c, 9, 69, 109
1, 209772, Note_on_c, 9, 44, 0
1, 209772, Note_on_c, 9, 69, 0
1, 209773, Note_on_c, 1, 33, 0
1, 209773, Note_on_c, 8, 33, 0
1, 209779, Note_on_c, 14, 61, 111
1, 209779, Note_on_c, 14, 64, 107
1, 209779, Note_on_c, 14, 69, 105
1, 209917, Note_on_c, 5, 81, 0
1, 209924, Note_on_c, 5, 76, 0
1, 209928, Note_on_c, 5, 73, 0
1, 209937, Note_on_c, 14, 69, 0
1, 209944, Note_on_c, 14, 64, 0
1, 209948, Note_on_c, 14, 61, 0
1, 210029, Note_on_c, 12, 61, 0
1, 210080, Note_on_c, 1, 33, 110
1, 210080, Note_on_c, 8, 33, 110
1, 210080, Note_on_c, 9, 35, 107
1, 210080, Note_on_c, 11, 41, 107
1, 210092, Note_on_c, 9, 35, 0
1, 210103, Note_on_c, 12, 64, 0
1, 210123, Note_on_c, 12, 57, 0
1, 210129, Note_on_c, 1, 33, 0
1, 210129, Note_on_c, 8, 33, 0
1, 210156, Note_on_c, 12, 57, 105
1, 210217, Note_on_c, 12, 61, 127
1, 210236, Note_on_c, 3, 76, 0
1, 210240, Lyric_t, "GO "
1, 210240, Note_on_c, 1, 33, 110
1, 210240, Note_on_c, 3, 74, 114
1, 210240, Note_on_c, 5, 73, 105
1, 210240, Note_on_c, 5, 76, 94
1, 210240, Note_on_c, 5, 81, 94
1, 210240, Note_on_c, 8, 33, 110
1, 210240, Note_on_c, 9, 35, 114
1, 210240, Note_on_c, 11, 41, 114
1, 210241, Note_on_c, 11, 41, 0
1, 210252, Note_on_c, 9, 35, 0
1, 210259, Note_on_c, 14, 61, 105
1, 210259, Note_on_c, 14, 64, 94
1, 210259, Note_on_c, 14, 69, 94
1, 210274, Note_on_c, 12, 64, 119
1, 210395, Note_on_c, 5, 81, 0
1, 210401, Note_on_c, 11, 41, 0
1, 210403, Note_on_c, 5, 73, 0
1, 210407, Note_on_c, 5, 76, 0
1, 210415, Note_on_c, 14, 69, 0
1, 210423, Note_on_c, 14, 61, 0
1, 210427, Note_on_c, 14, 64, 0
1, 210560, Note_on_c, 9, 70, 65
1, 210572, Note_on_c, 9, 70, 0
1, 210720, Note_on_c, 5, 73, 109
1, 210720, Note_on_c, 5, 76, 94
1, 210720, Note_on_c, 5, 81, 94
1, 210720, Note_on_c, 9, 44, 107
1, 210720, Note_on_c, 9, 54, 109
1, 210732, Note_on_c, 9, 44, 0
1, 210732, Note_on_c, 9, 54, 0
1, 210733, Note_on_c, 1, 33, 0
1, 210733, Note_on_c, 8, 33, 0
1, 210739, Note_on_c, 14, 61, 109
1, 210739, Note_on_c, 14, 64, 94
1, 210739, Note_on_c, 14, 69, 94
1, 210861, Note_on_c, 5, 81, 0
1, 210874, Note_on_c, 5, 73, 0
1, 210874, Note_on_c, 5, 76, 0
1, 210881, Note_on_c, 14, 69, 0
1, 210894, Note_on_c, 14, 61, 0
1, 210894, Note_on_c, 14, 64, 0
1, 210989, Note_on_c, 12, 61, 0
1, 211063, Note_on_c, 12, 64, 0
1, 211083, Note_on_c, 12, 57, 0
1, 211116, Note_on_c, 12, 57, 101
1, 211144, Note_on_c, 12, 61, 127
1, 211196, Note_on_c, 3, 74, 0
1, 211200, Lyric_t, "BACK "
1, 211200, Note_on_c, 1, 33, 110
1, 211200, Note_on_c, 3, 73, 114
1, 211200, Note_on_c, 5, 73, 109
1, 211200, Note_on_c, 5, 76, 94
1, 211200, Note_on_c, 5, 81, 101
1, 211200, Note_on_c, 8, 33, 110
1, 211200, Note_on_c, 9, 35, 114
1, 211200, Note_on_c, 10, 65, 104
1, 211200, Note_on_c, 10, 77, 104
1, 211200, Note_on_c, 11, 41, 114
1, 211212, Note_on_c, 9, 35, 0
1, 211214, Note_on_c, 12, 65, 114
1, 211215, Note_on_c, 10, 64, 0
1, 211215, Note_on_c, 10, 76, 0
1, 211219, Note_on_c, 14, 61, 109
1, 211219, Note_on_c, 14, 64, 94
1, 211219, Note_on_c, 14, 69, 101
1, 211355, Note_on_c, 5, 81, 0
1, 211361, Note_on_c, 11, 41, 0
1, 211371, Note_on_c, 5, 73, 0
1, 211371, Note_on_c, 5, 76, 0
1, 211375, Note_on_c, 14, 69, 0
1, 211391, Note_on_c, 14, 61, 0
1, 211391, Note_on_c, 14, 64, 0
1, 211680, Note_on_c, 5, 73, 108
1, 211680, Note_on_c, 5, 76, 97
1, 211680, Note_on_c, 5, 81, 98
1, 211680, Note_on_c, 9, 44, 107
1, 211680, Note_on_c, 9, 69, 109
1, 211692, Note_on_c, 9, 44, 0
1, 211692, Note_on_c, 9, 69, 0
1, 211693, Note_on_c, 1, 33, 0
1, 211693, Note_on_c, 8, 33, 0
1, 211699, Note_on_c, 14, 61, 108
1, 211699, Note_on_c, 14, 64, 97
1, 211699, Note_on_c, 14, 69, 98
1, 211826, Note_on_c, 5, 81, 0
1, 211838, Note_on_c, 5, 73, 0
1, 211843, Note_on_c, 5, 76, 0
1, 211846, Note_on_c, 14, 69, 0
1, 211858, Note_on_c, 14, 61, 0
1, 211863, Note_on_c, 14, 64, 0
1, 211870, Note_on_c, 12, 61, 0
1, 211916, Note_on_c, 12, 57, 0
1, 212000, Note_on_c, 1, 33, 110
1, 212000, Note_on_c, 8, 33, 110
1, 212000, Note_on_c, 9, 35, 114
1, 212000, Note_on_c, 11, 41, 114
1, 212004, Note_on_c, 12, 57, 101
1, 212012, Note_on_c, 9, 35, 0
1, 212013, Note_on_c, 12, 65, 0
1, 212057, Note_on_c, 12, 61, 127
1, 212134, Note_on_c, 12, 64, 114
1, 212156, Note_on_c, 3, 73, 0
1, 212156, Note_on_c, 10, 65, 0
1, 212156, Note_on_c, 10, 77, 0
1, 212160, Lyric_t, "TO"
1, 212160, Lyric_t, "\015"
1, 212160, Note_on_c, 3, 69, 114
1, 212160, Note_on_c, 5, 73, 105
1, 212160, Note_on_c, 5, 76, 89
1, 212160, Note_on_c, 5, 81, 94
1, 212160, Note_on_c, 10, 64, 104
1, 212161, Note_on_c, 11, 41, 0
1, 212179, Note_on_c, 14, 61, 105
1, 212179, Note_on_c, 14, 64, 89
1, 212179, Note_on_c, 14, 69, 94
1, 212306, Note_on_c, 5, 81, 0
1, 212325, Note_on_c, 14, 69, 0
1, 212328, Note_on_c, 5, 73, 0
1, 212328, Note_on_c, 5, 76, 0
1, 212348, Note_on_c, 14, 61, 0
1, 212348, Note_on_c, 14, 64, 0
1, 212427, Note_on_c, 1, 33, 0
1, 212427, Note_on_c, 8, 33, 0
1, 212480, Note_on_c, 1, 33, 110
1, 212480, Note_on_c, 8, 33, 110
1, 212480, Note_on_c, 9, 35, 114
1, 212480, Note_on_c, 9, 70, 65
1, 212480, Note_on_c, 11, 41, 114
1, 212492, Note_on_c, 9, 35, 0
1, 212492, Note_on_c, 9, 70, 0
1, 212640, Note_on_c, 5, 73, 109
1, 212640, Note_on_c, 5, 76, 97
1, 212640, Note_on_c, 5, 81, 110
1, 212640, Note_on_c, 9, 44, 107
1, 212640, Note_on_c, 9, 54, 109
1, 212641, Note_on_c, 11, 41, 0
1, 212652, Note_on_c, 9, 44, 0
1, 212652, Note_on_c, 9, 54, 0
1, 212659, Note_on_c, 14, 61, 109
1, 212659, Note_on_c, 14, 64, 97
1, 212659, Note_on_c, 14, 69, 110
1, 212713, Note_on_c, 12, 61, 0
1, 212744, Note_on_c, 12, 64, 0
1, 212752, Note_on_c, 12, 57, 0
1, 212789, Note_on_c, 5, 81, 0
1, 212798, Note_on_c, 5, 73, 0
1, 212801, Note_on_c, 5, 76, 0
1, 212808, Note_on_c, 14, 69, 0
1, 212817, Note_on_c, 14, 61, 0
1, 212820, Note_on_c, 14, 64, 0
1, 212907, Note_on_c, 1, 33, 0
1, 212907, Note_on_c, 8, 33, 0
1, 212960, Note_on_c, 1, 33, 110
1, 212960, Note_on_c, 8, 33, 110
1, 213009, Note_on_c, 1, 33, 0
1, 213009, Note_on_c, 8, 33, 0
1, 213116, Note_on_c, 3, 69, 0
1, 213116, Note_on_c, 10, 64, 0
1, 213120, Note_on_c, 1, 38, 110
1, 213120, Note_on_c, 5, 74, 101
1, 213120, Note_on_c, 5, 77, 97
1, 213120, Note_on_c, 5, 81, 105
1, 213120, Note_on_c, 8, 38, 110
1, 213120, Note_on_c, 9, 35, 114
1, 213120, Note_on_c, 10, 74, 104
1, 213120, Note_on_c, 11, 41, 114
1, 213132, Note_on_c, 9, 35, 0
1, 213139, Note_on_c, 14, 62, 101
1, 213139, Note_on_c, 14, 65, 97
1, 213139, Note_on_c, 14, 69, 105
1, 213193, Note_on_c, 5, 81, 0
1, 213213, Note_on_c, 14, 69, 0
1, 213241, Note_on_c, 5, 77, 0
1, 213243, Note_on_c, 5, 74, 0
1, 213260, Note_on_c, 14, 65, 0
1, 213262, Note_on_c, 14, 62, 0
1, 213281, Note_on_c, 11, 41, 0
1, 213600, Note_on_c, 5, 74, 111
1, 213600, Note_on_c, 5, 77, 107
1, 213600, Note_on_c, 5, 81, 105
1, 213600, Note_on_c, 9, 44, 107
1, 213600, Note_on_c, 9, 69, 109
1, 213600, Note_on_c, 12, 57, 110
1, 213612, Note_on_c, 9, 44, 0
1, 213612, Note_on_c, 9, 69, 0
1, 213613, Note_on_c, 1, 38, 0
1, 213613, Note_on_c, 8, 38, 0
1, 213619, Note_on_c, 14, 62, 111
1, 213619, Note_on_c, 14, 65, 107
1, 213619, Note_on_c, 14, 69, 105
1, 213757, Note_on_c, 5, 81, 0
1, 213764, Note_on_c, 5, 77, 0
1, 213768, Note_on_c, 5, 74, 0
1, 213777, Note_on_c, 14, 69, 0
1, 213784, Note_on_c, 14, 65, 0
1, 213788, Note_on_c, 14, 62, 0
1, 213920, Note_on_c, 1, 38, 110
1, 213920, Note_on_c, 8, 38, 110
1, 213920, Note_on_c, 9, 35, 107
1, 213920, Note_on_c, 11, 41, 107
1, 213932, Note_on_c, 9, 35, 0
1, 213966, Note_on_c, 1, 38, 0
1, 213966, Note_on_c, 8, 38, 0
1, 214058, Lyric_t, "WE "
1, 214058, Note_on_c, 3, 76, 124
1, 214080, Note_on_c, 1, 38, 110
1, 214080, Note_on_c, 5, 74, 105
1, 214080, Note_on_c, 5, 77, 94
1, 214080, Note_on_c, 5, 81, 94
1, 214080, Note_on_c, 8, 38, 110
1, 214080, Note_on_c, 9, 35, 114
1, 214080, Note_on_c, 11, 41, 114
1, 214080, Note_on_c, 12, 62, 110
1, 214081, Note_on_c, 11, 41, 0
1, 214092, Note_on_c, 9, 35, 0
1, 214099, Note_on_c, 14, 62, 105
1, 214099, Note_on_c, 14, 65, 94
1, 214099, Note_on_c, 14, 69, 94
1, 214235, Note_on_c, 5, 81, 0
1, 214241, Note_on_c, 11, 41, 0
1, 214243, Note_on_c, 5, 74, 0
1, 214247, Note_on_c, 5, 77, 0
1, 214255, Note_on_c, 14, 69, 0
1, 214263, Note_on_c, 14, 62, 0
1, 214267, Note_on_c, 14, 65, 0
1, 214342, Note_on_c, 3, 76, 0
1, 214400, Note_on_c, 9, 70, 65
1, 214412, Note_on_c, 9, 70, 0
1, 214428, Lyric_t, "ON"
1, 214428, Note_on_c, 3, 77, 114
1, 214560, Note_on_c, 5, 74, 109
1, 214560, Note_on_c, 5, 77, 94
1, 214560, Note_on_c, 5, 81, 94
1, 214560, Note_on_c, 9, 44, 107
1, 214560, Note_on_c, 9, 54, 109
1, 214560, Note_on_c, 12, 65, 102
1, 214572, Note_on_c, 9, 44, 0
1, 214572, Note_on_c, 9, 54, 0
1, 214573, Note_on_c, 1, 38, 0
1, 214573, Note_on_c, 8, 38, 0
1, 214579, Note_on_c, 14, 62, 109
1, 214579, Note_on_c, 14, 65, 94
1, 214579, Note_on_c, 14, 69, 94
1, 214642, Note_on_c, 3, 77, 0
1, 214701, Note_on_c, 5, 81, 0
1, 214714, Note_on_c, 5, 74, 0
1, 214714, Note_on_c, 5, 77, 0
1, 214721, Note_on_c, 14, 69, 0
1, 214734, Note_on_c, 14, 62, 0
1, 214734, Note_on_c, 14, 65, 0
1, 214743, Lyric_t, "LY "
1, 214743, Note_on_c, 3, 76, 127
1, 215014, Note_on_c, 3, 76, 0
1, 215040, Note_on_c, 1, 38, 110
1, 215040, Note_on_c, 5, 74, 109
1, 215040, Note_on_c, 5, 77, 94
1, 215040, Note_on_c, 5, 81, 101
1, 215040, Note_on_c, 8, 38, 110
1, 215040, Note_on_c, 9, 35, 114
1, 215040, Note_on_c, 11, 41, 114
1, 215052, Note_on_c, 9, 35, 0
1, 215059, Note_on_c, 14, 62, 109
1, 215059, Note_on_c, 14, 65, 94
1, 215059, Note_on_c, 14, 69, 101
1, 215063, Lyric_t, "SAID "
1, 215063, Note_on_c, 3, 79, 123
1, 215195, Note_on_c, 5, 81, 0
1, 215201, Note_on_c, 11, 41, 0
1, 215211, Note_on_c, 5, 74, 0
1, 215211, Note_on_c, 5, 77, 0
1, 215215, Note_on_c, 14, 69, 0
1, 215231, Note_on_c, 14, 62, 0
1, 215231, Note_on_c, 14, 65, 0
1, 215334, Note_on_c, 3, 79, 0
1, 215478, Lyric_t, "GOOD"
1, 215478, Note_on_c, 3, 77, 125
1, 215520, Note_on_c, 5, 74, 108
1, 215520, Note_on_c, 5, 77, 97
1, 215520, Note_on_c, 5, 81, 98
1, 215520, Note_on_c, 9, 44, 107
1, 215520, Note_on_c, 9, 69, 109
1, 215532, Note_on_c, 9, 44, 0
1, 215532, Note_on_c, 9, 69, 0
1, 215539, Note_on_c, 14, 62, 108
1, 215539, Note_on_c, 14, 65, 97
1, 215539, Note_on_c, 14, 69, 98
1, 215553, Note_on_c, 1, 38, 0
1, 215553, Note_on_c, 8, 38, 0
1, 215666, Note_on_c, 5, 81, 0
1, 215678, Note_on_c, 5, 74, 0
1, 215681, Note_on_c, 3, 77, 0
1, 215683, Note_on_c, 5, 77, 0
1, 215686, Note_on_c, 14, 69, 0
1, 215698, Note_on_c, 14, 62, 0
1, 215703, Note_on_c, 14, 65, 0
1, 215757, Note_on_c, 12, 62, 0
1, 215790, Note_on_c, 12, 65, 0
1, 215791, Note_on_c, 12, 57, 0
1, 215800, Lyric_t, "BYE"
1, 215800, Lyric_t, "\015"
1, 215800, Note_on_c, 3, 77, 114
1, 215840, Note_on_c, 1, 38, 110
1, 215840, Note_on_c, 8, 38, 110
1, 215840, Note_on_c, 9, 35, 114
1, 215840, Note_on_c, 11, 41, 114
1, 215840, Note_on_c, 12, 50, 101
1, 215852, Note_on_c, 9, 35, 0
1, 215996, Note_on_c, 10, 74, 0
1, 216000, Note_on_c, 5, 74, 105
1, 216000, Note_on_c, 5, 77, 89
1, 216000, Note_on_c, 5, 81, 94
1, 216000, Note_on_c, 10, 77, 105
1, 216001, Note_on_c, 11, 41, 0
1, 216019, Note_on_c, 14, 62, 105
1, 216019, Note_on_c, 14, 65, 89
1, 216019, Note_on_c, 14, 69, 94
1, 216146, Note_on_c, 5, 81, 0
1, 216165, Note_on_c, 14, 69, 0
1, 216168, Note_on_c, 5, 74, 0
1, 216168, Note_on_c, 5, 77, 0
1, 216188, Note_on_c, 14, 62, 0
1, 216188, Note_on_c, 14, 65, 0
1, 216243, Note_on_c, 12, 50, 0
1, 216316, Note_on_c, 1, 38, 0
1, 216316, Note_on_c, 8, 38, 0
1, 216320, Note_on_c, 1, 41, 110
1, 216320, Note_on_c, 8, 41, 110
1, 216320, Note_on_c, 9, 35, 114
1, 216320, Note_on_c, 9, 70, 65
1, 216320, Note_on_c, 11, 41, 114
1, 216320, Note_on_c, 12, 48, 86
1, 216332, Note_on_c, 9, 35, 0
1, 216332, Note_on_c, 9, 70, 0
1, 216464, Note_on_c, 12, 48, 0
1, 216476, Note_on_c, 10, 77, 0
1, 216480, Note_on_c, 5, 74, 109
1, 216480, Note_on_c, 5, 77, 97
1, 216480, Note_on_c, 5, 81, 110
1, 216480, Note_on_c, 9, 44, 107
1, 216480, Note_on_c, 9, 54, 109
1, 216480, Note_on_c, 10, 81, 105
1, 216480, Note_on_c, 12, 45, 119
1, 216481, Note_on_c, 11, 41, 0
1, 216492, Note_on_c, 3, 77, 0
1, 216492, Note_on_c, 9, 44, 0
1, 216492, Note_on_c, 9, 54, 0
1, 216499, Note_on_c, 14, 62, 109
1, 216499, Note_on_c, 14, 65, 97
1, 216499, Note_on_c, 14, 69, 110
1, 216506, Lyric_t, "WITH "
1, 216506, Note_on_c, 3, 76, 124
1, 216629, Note_on_c, 5, 81, 0
1, 216638, Note_on_c, 5, 74, 0
1, 216641, Note_on_c, 5, 77, 0
1, 216648, Note_on_c, 14, 69, 0
1, 216657, Note_on_c, 14, 62, 0
1, 216660, Note_on_c, 14, 65, 0
1, 216757, Note_on_c, 3, 76, 0
1, 216795, Lyric_t, "WOR"
1, 216795, Note_on_c, 3, 77, 114
1, 216796, Note_on_c, 1, 41, 0
1, 216796, Note_on_c, 8, 41, 0
1, 216800, Note_on_c, 1, 42, 110
1, 216800, Note_on_c, 8, 42, 110
1, 216934, Note_on_c, 12, 45, 0
1, 216956, Note_on_c, 1, 42, 0
1, 216956, Note_on_c, 8, 42, 0
1, 216956, Note_on_c, 10, 81, 0
1, 216960, Note_on_c, 1, 43, 110
1, 216960, Note_on_c, 5, 74, 101
1, 216960, Note_on_c, 5, 79, 97
1, 216960, Note_on_c, 5, 82, 105
1, 216960, Note_on_c, 8, 43, 110
1, 216960, Note_on_c, 9, 35, 114
1, 216960, Note_on_c, 10, 79, 105
1, 216960, Note_on_c, 11, 41, 114
1, 216960, Note_on_c, 12, 43, 86
1, 216960, Note_on_c, 12, 55, 114
1, 216972, Note_on_c, 9, 35, 0
1, 216979, Note_on_c, 14, 62, 101
1, 216979, Note_on_c, 14, 67, 97
1, 216979, Note_on_c, 14, 70, 105
1, 217033, Note_on_c, 5, 82, 0
1, 217053, Note_on_c, 14, 70, 0
1, 217081, Note_on_c, 5, 79, 0
1, 217083, Note_on_c, 5, 74, 0
1, 217100, Note_on_c, 14, 67, 0
1, 217102, Note_on_c, 14, 62, 0
1, 217115, Note_on_c, 3, 77, 0
1, 217121, Note_on_c, 11, 41, 0
1, 217245, Lyric_t, "DS"
1, 217245, Lyric_t, "\015"
1, 217245, Note_on_c, 3, 70, 127
1, 217425, Note_on_c, 12, 43, 0
1, 217440, Note_on_c, 5, 74, 111
1, 217440, Note_on_c, 5, 79, 107
1, 217440, Note_on_c, 5, 82, 105
1, 217440, Note_on_c, 9, 44, 107
1, 217440, Note_on_c, 9, 69, 109
1, 217440, Note_on_c, 12, 58, 122
1, 217452, Note_on_c, 9, 44, 0
1, 217452, Note_on_c, 9, 69, 0
1, 217459, Note_on_c, 14, 62, 111
1, 217459, Note_on_c, 14, 67, 107
1, 217459, Note_on_c, 14, 70, 105
1, 217468, Note_on_c, 3, 70, 0
1, 217473, Note_on_c, 1, 43, 0
1, 217473, Note_on_c, 8, 43, 0
1, 217597, Note_on_c, 5, 82, 0
1, 217604, Note_on_c, 5, 79, 0
1, 217608, Note_on_c, 5, 74, 0
1, 217617, Note_on_c, 14, 70, 0
1, 217624, Note_on_c, 14, 67, 0
1, 217628, Note_on_c, 14, 62, 0
1, 217760, Note_on_c, 1, 31, 110
1, 217760, Note_on_c, 8, 31, 110
1, 217760, Note_on_c, 9, 35, 107
1, 217760, Note_on_c, 11, 41, 107
1, 217772, Note_on_c, 9, 35, 0
1, 217809, Note_on_c, 1, 31, 0
1, 217809, Note_on_c, 8, 31, 0
1, 217920, Note_on_c, 1, 31, 110
1, 217920, Note_on_c, 5, 74, 105
1, 217920, Note_on_c, 5, 79, 94
1, 217920, Note_on_c, 5, 82, 94
1, 217920, Note_on_c, 8, 31, 110
1, 217920, Note_on_c, 9, 35, 114
1, 217920, Note_on_c, 11, 41, 114
1, 217920, Note_on_c, 12, 62, 119
1, 217921, Note_on_c, 11, 41, 0
1, 217932, Note_on_c, 9, 35, 0
1, 217939, Lyric_t, "I "
1, 217939, Note_on_c, 3, 76, 127
1, 217939, Note_on_c, 14, 62, 105
1, 217939, Note_on_c, 14, 67, 94
1, 217939, Note_on_c, 14, 70, 94
1, 218075, Note_on_c, 5, 82, 0
1, 218081, Note_on_c, 11, 41, 0
1, 218083, Note_on_c, 5, 74, 0
1, 218087, Note_on_c, 5, 79, 0
1, 218095, Note_on_c, 14, 70, 0
1, 218103, Note_on_c, 14, 62, 0
1, 218107, Note_on_c, 14, 67, 0
1, 218240, Note_on_c, 9, 70, 65
1, 218252, Note_on_c, 9, 70, 0
1, 218272, Lyric_t, "DIED "
1, 218272, Note_on_c, 3, 77, 124
1, 218284, Note_on_c, 3, 76, 0
1, 218400, Note_on_c, 5, 74, 109
1, 218400, Note_on_c, 5, 79, 94
1, 218400, Note_on_c, 5, 82, 94
1, 218400, Note_on_c, 9, 44, 107
1, 218400, Note_on_c, 9, 54, 109
1, 218412, Note_on_c, 9, 44, 0
1, 218412, Note_on_c, 9, 54, 0
1, 218413, Note_on_c, 1, 31, 0
1, 218413, Note_on_c, 8, 31, 0
1, 218419, Note_on_c, 14, 62, 109
1, 218419, Note_on_c, 14, 67, 94
1, 218419, Note_on_c, 14, 70, 94
1, 218541, Note_on_c, 5, 82, 0
1, 218554, Note_on_c, 5, 74, 0
1, 218554, Note_on_c, 5, 79, 0
1, 218561, Note_on_c, 14, 70, 0
1, 218574, Note_on_c, 14, 62, 0
1, 218574, Note_on_c, 14, 67, 0
1, 218672, Note_on_c, 3, 77, 0
1, 218688, Lyric_t, "A "
1, 218688, Note_on_c, 3, 76, 127
1, 218880, Note_on_c, 1, 31, 110
1, 218880, Note_on_c, 5, 74, 109
1, 218880, Note_on_c, 5, 79, 94
1, 218880, Note_on_c, 5, 82, 101
1, 218880, Note_on_c, 8, 31, 110
1, 218880, Note_on_c, 9, 35, 114
1, 218880, Note_on_c, 11, 41, 114
1, 218880, Note_on_c, 12, 67, 119
1, 218892, Note_on_c, 9, 35, 0
1, 218899, Note_on_c, 14, 62, 109
1, 218899, Note_on_c, 14, 67, 94
1, 218899, Note_on_c, 14, 70, 101
1, 219035, Note_on_c, 5, 82, 0
1, 219041, Note_on_c, 11, 41, 0
1, 219051, Note_on_c, 5, 74, 0
1, 219051, Note_on_c, 5, 79, 0
1, 219055, Note_on_c, 14, 70, 0
1, 219071, Note_on_c, 14, 62, 0
1, 219071, Note_on_c, 14, 67, 0
1, 219168, Lyric_t, "HUN"
1, 219168, Note_on_c, 3, 79, 127
1, 219196, Note_on_c, 12, 62, 0
1, 219208, Note_on_c, 3, 76, 0
1, 219356, Note_on_c, 12, 67, 0
1, 219360, Note_on_c, 5, 74, 108
1, 219360, Note_on_c, 5, 79, 97
1, 219360, Note_on_c, 5, 82, 98
1, 219360, Note_on_c, 9, 44, 107
1, 219360, Note_on_c, 9, 69, 109
1, 219360, Note_on_c, 12, 62, 119
1, 219372, Note_on_c, 9, 44, 0
1, 219372, Note_on_c, 9, 69, 0
1, 219373, Note_on_c, 1, 31, 0
1, 219373, Note_on_c, 8, 31, 0
1, 219379, Note_on_c, 14, 62, 108
1, 219379, Note_on_c, 14, 67, 97
1, 219379, Note_on_c, 14, 70, 98
1, 219389, Note_on_c, 12, 55, 0
1, 219431, Note_on_c, 12, 58, 0
1, 219506, Note_on_c, 5, 82, 0
1, 219518, Note_on_c, 5, 74, 0
1, 219523, Note_on_c, 5, 79, 0
1, 219526, Note_on_c, 14, 70, 0
1, 219538, Note_on_c, 14, 62, 0
1, 219543, Note_on_c, 14, 67, 0
1, 219586, Note_on_c, 3, 79, 0
1, 219590, Lyric_t, "DRED "
1, 219590, Note_on_c, 3, 77, 115
1, 219680, Note_on_c, 1, 31, 110
1, 219680, Note_on_c, 8, 31, 110
1, 219680, Note_on_c, 9, 35, 114
1, 219680, Note_on_c, 11, 41, 114
1, 219692, Note_on_c, 9, 35, 0
1, 219693, Note_on_c, 3, 77, 0
1, 219791, Lyric_t, "TIMES"
1, 219791, Lyric_t, "\015"
1, 219791, Note_on_c, 3, 77, 119
1, 219836, Note_on_c, 12, 62, 0
1, 219840, Note_on_c, 5, 74, 105
1, 219840, Note_on_c, 5, 79, 89
1, 219840, Note_on_c, 5, 82, 94
1, 219840, Note_on_c, 12, 58, 119
1, 219841, Note_on_c, 11, 41, 0
1, 219859, Note_on_c, 14, 62, 105
1, 219859, Note_on_c, 14, 67, 89
1, 219859, Note_on_c, 14, 70, 94
1, 219986, Note_on_c, 5, 82, 0
1, 220005, Note_on_c, 14, 70, 0
1, 220008, Note_on_c, 5, 74, 0
1, 220008, Note_on_c, 5, 79, 0
1, 220028, Note_on_c, 14, 62, 0
1, 220028, Note_on_c, 14, 67, 0
1, 220160, Note_on_c, 1, 32, 110
1, 220160, Note_on_c, 8, 32, 110
1, 220160, Note_on_c, 9, 35, 114
1, 220160, Note_on_c, 9, 70, 65
1, 220160, Note_on_c, 11, 41, 114
1, 220172, Note_on_c, 9, 35, 0
1, 220172, Note_on_c, 9, 70, 0
1, 220173, Note_on_c, 1, 31, 0
1, 220173, Note_on_c, 8, 31, 0
1, 220320, Note_on_c, 5, 74, 109
1, 220320, Note_on_c, 5, 79, 97
1, 220320, Note_on_c, 5, 82, 110
1, 220320, Note_on_c, 9, 44, 107
1, 220320, Note_on_c, 9, 54, 109
1, 220321, Note_on_c, 11, 41, 0
1, 220332, Note_on_c, 9, 44, 0
1, 220332, Note_on_c, 9, 54, 0
1, 220339, Note_on_c, 14, 62, 109
1, 220339, Note_on_c, 14, 67, 97
1, 220339, Note_on_c, 14, 70, 110
1, 220410, Note_on_c, 3, 77, 0
1, 220469, Note_on_c, 5, 82, 0
1, 220478, Note_on_c, 5, 74, 0
1, 220481, Note_on_c, 5, 79, 0
1, 220488, Note_on_c, 14, 70, 0
1, 220497, Note_on_c, 14, 62, 0
1, 220500, Note_on_c, 14, 67, 0
1, 220636, Note_on_c, 1, 32, 0
1, 220636, Note_on_c, 8, 32, 0
1, 220636, Note_on_c, 12, 58, 0
1, 220640, Note_on_c, 1, 33, 110
1, 220640, Note_on_c, 8, 33, 110
1, 220640, Note_on_c, 12, 55, 119
1, 220716, Note_on_c, 12, 55, 0
1, 220720, Note_on_c, 12, 57, 119
1, 220796, Note_on_c, 1, 33, 0
1, 220796, Note_on_c, 8, 33, 0
1, 220796, Note_on_c, 10, 79, 0
1, 220796, Note_on_c, 12, 57, 0
1, 220800, Note_on_c, 1, 34, 110
1, 220800, Note_on_c, 5, 74, 101
1, 220800, Note_on_c, 5, 77, 97
1, 220800, Note_on_c, 5, 82, 105
1, 220800, Note_on_c, 7, 82, 104
1, 220800, Note_on_c, 8, 34, 110
1, 220800, Note_on_c, 9, 35, 114
1, 220800, Note_on_c, 10, 70, 104
1, 220800, Note_on_c, 10, 82, 104
1, 220800, Note_on_c, 11, 41, 114
1, 220800, Note_on_c, 12, 58, 127
1, 220812, Note_on_c, 9, 35, 0
1, 220819, Note_on_c, 14, 62, 101
1, 220819, Note_on_c, 14, 65, 97
1, 220819, Note_on_c, 14, 70, 105
1, 220873, Note_on_c, 5, 82, 0
1, 220893, Note_on_c, 14, 70, 0
1, 220921, Note_on_c, 5, 77, 0
1, 220923, Note_on_c, 5, 74, 0
1, 220940, Note_on_c, 14, 65, 0
1, 220942, Note_on_c, 14, 62, 0
1, 220961, Note_on_c, 11, 41, 0
1, 221120, Note_on_c, 12, 62, 105
1, 221280, Note_on_c, 5, 74, 111
1, 221280, Note_on_c, 5, 77, 107
1, 221280, Note_on_c, 5, 82, 105
1, 221280, Note_on_c, 9, 44, 107
1, 221280, Note_on_c, 9, 69, 109
1, 221280, Note_on_c, 12, 65, 89
1, 221292, Note_on_c, 9, 44, 0
1, 221292, Note_on_c, 9, 69, 0
1, 221293, Note_on_c, 1, 34, 0
1, 221293, Note_on_c, 8, 34, 0
1, 221299, Note_on_c, 14, 62, 111
1, 221299, Note_on_c, 14, 65, 107
1, 221299, Note_on_c, 14, 70, 105
1, 221437, Note_on_c, 5, 82, 0
1, 221444, Note_on_c, 5, 77, 0
1, 221448, Note_on_c, 5, 74, 0
1, 221457, Note_on_c, 14, 70, 0
1, 221464, Note_on_c, 14, 65, 0
1, 221468, Note_on_c, 14, 62, 0
1, 221555, Lyric_t, "YOU "
1, 221555, Note_on_c, 3, 76, 119
1, 221600, Note_on_c, 1, 34, 110
1, 221600, Note_on_c, 8, 34, 110
1, 221600, Note_on_c, 9, 35, 107
1, 221600, Note_on_c, 11, 41, 107
1, 221600, Note_on_c, 12, 70, 115
1, 221612, Note_on_c, 9, 35, 0
1, 221649, Note_on_c, 1, 34, 0
1, 221649, Note_on_c, 8, 34, 0
1, 221756, Note_on_c, 10, 70, 0
1, 221756, Note_on_c, 10, 82, 0
1, 221760, Note_on_c, 1, 34, 110
1, 221760, Note_on_c, 5, 74, 105
1, 221760, Note_on_c, 5, 77, 94
1, 221760, Note_on_c, 5, 82, 94
1, 221760, Note_on_c, 7, 81, 104
1, 221760, Note_on_c, 8, 34, 110
1, 221760, Note_on_c, 9, 35, 114
1, 221760, Note_on_c, 10, 69, 104
1, 221760, Note_on_c, 10, 81, 104
1, 221760, Note_on_c, 11, 41, 114
1, 221760, Note_on_c, 12, 69, 124
1, 221761, Note_on_c, 11, 41, 0
1, 221772, Note_on_c, 9, 35, 0
1, 221775, Note_on_c, 7, 82, 0
1, 221779, Note_on_c, 14, 62, 105
1, 221779, Note_on_c, 14, 65, 94
1, 221779, Note_on_c, 14, 70, 94
1, 221820, Note_on_c, 12, 70, 0
1, 221915, Note_on_c, 5, 82, 0
1, 221921, Note_on_c, 11, 41, 0
1, 221923, Note_on_c, 5, 74, 0
1, 221927, Note_on_c, 5, 77, 0
1, 221935, Note_on_c, 14, 70, 0
1, 221943, Note_on_c, 14, 62, 0
1, 221947, Note_on_c, 14, 65, 0
1, 222080, Note_on_c, 9, 70, 65
1, 222092, Note_on_c, 9, 70, 0
1, 222095, Note_on_c, 3, 76, 0
1, 222112, Lyric_t, "GO "
1, 222112, Note_on_c, 3, 77, 114
1, 222240, Note_on_c, 5, 74, 109
1, 222240, Note_on_c, 5, 77, 94
1, 222240, Note_on_c, 5, 82, 94
1, 222240, Note_on_c, 9, 44, 107
1, 222240, Note_on_c, 9, 54, 109
1, 222252, Note_on_c, 9, 44, 0
1, 222252, Note_on_c, 9, 54, 0
1, 222253, Note_on_c, 1, 34, 0
1, 222253, Note_on_c, 8, 34, 0
1, 222259, Note_on_c, 14, 62, 109
1, 222259, Note_on_c, 14, 65, 94
1, 222259, Note_on_c, 14, 70, 94
1, 222381, Note_on_c, 5, 82, 0
1, 222390, Note_on_c, 12, 58, 0
1, 222394, Note_on_c, 5, 74, 0
1, 222394, Note_on_c, 5, 77, 0
1, 222401, Note_on_c, 14, 70, 0
1, 222414, Note_on_c, 14, 62, 0
1, 222414, Note_on_c, 14, 65, 0
1, 222418, Note_on_c, 12, 65, 0
1, 222422, Note_on_c, 12, 62, 0
1, 222431, Note_on_c, 12, 69, 0
1, 222661, Note_on_c, 3, 77, 0
1, 222664, Note_on_c, 3, 76, 119
1, 222716, Note_on_c, 10, 69, 0
1, 222716, Note_on_c, 10, 81, 0
1, 222720, Note_on_c, 1, 34, 110
1, 222720, Note_on_c, 5, 74, 109
1, 222720, Note_on_c, 5, 77, 94
1, 222720, Note_on_c, 5, 82, 101
1, 222720, Note_on_c, 7, 79, 104
1, 222720, Note_on_c, 8, 34, 110
1, 222720, Note_on_c, 9, 35, 114
1, 222720, Note_on_c, 10, 67, 104
1, 222720, Note_on_c, 10, 79, 104
1, 222720, Note_on_c, 11, 41, 114
1, 222732, Note_on_c, 9, 35, 0
1, 222735, Note_on_c, 7, 81, 0
1, 222738, Note_on_c, 12, 58, 127
1, 222739, Note_on_c, 14, 62, 109
1, 222739, Note_on_c, 14, 65, 94
1, 222739, Note_on_c, 14, 70, 101
1, 222875, Note_on_c, 5, 82, 0
1, 222881, Note_on_c, 11, 41, 0
1, 222891, Note_on_c, 5, 74, 0
1, 222891, Note_on_c, 5, 77, 0
1, 222895, Note_on_c, 14, 70, 0
1, 222911, Note_on_c, 14, 62, 0
1, 222911, Note_on_c, 14, 65, 0
1, 223008, Note_on_c, 12, 62, 114
1, 223144, Lyric_t, "BACK "
1, 223144, Note_on_c, 3, 79, 119
1, 223173, Note_on_c, 3, 76, 0
1, 223200, Note_on_c, 5, 74, 108
1, 223200, Note_on_c, 5, 77, 97
1, 223200, Note_on_c, 5, 82, 98
1, 223200, Note_on_c, 9, 44, 107
1, 223200, Note_on_c, 9, 69, 109
1, 223212, Note_on_c, 9, 44, 0
1, 223212, Note_on_c, 9, 69, 0
1, 223213, Note_on_c, 1, 34, 0
1, 223213, Note_on_c, 8, 34, 0
1, 223219, Note_on_c, 14, 62, 108
1, 223219, Note_on_c, 14, 65, 97
1, 223219, Note_on_c, 14, 70, 98
1, 223346, Note_on_c, 5, 82, 0
1, 223358, Note_on_c, 5, 74, 0
1, 223363, Note_on_c, 5, 77, 0
1, 223366, Note_on_c, 14, 70, 0
1, 223378, Note_on_c, 14, 62, 0
1, 223383, Note_on_c, 14, 65, 0
1, 223500, Note_on_c, 3, 79, 0
1, 223504, Lyric_t, "TO "
1, 223504, Note_on_c, 3, 77, 127
1, 223520, Note_on_c, 1, 34, 110
1, 223520, Note_on_c, 8, 34, 110
1, 223520, Note_on_c, 9, 35, 114
1, 223520, Note_on_c, 11, 41, 114
1, 223520, Note_on_c, 12, 67, 115
1, 223532, Note_on_c, 9, 35, 0
1, 223671, Note_on_c, 12, 67, 0
1, 223675, Note_on_c, 12, 65, 105
1, 223676, Note_on_c, 10, 67, 0
1, 223676, Note_on_c, 10, 79, 0
1, 223680, Note_on_c, 5, 74, 105
1, 223680, Note_on_c, 5, 77, 89
1, 223680, Note_on_c, 5, 82, 94
1, 223680, Note_on_c, 7, 77, 104
1, 223680, Note_on_c, 10, 65, 104
1, 223680, Note_on_c, 10, 77, 104
1, 223681, Note_on_c, 11, 41, 0
1, 223695, Note_on_c, 7, 79, 0
1, 223699, Note_on_c, 14, 62, 105
1, 223699, Note_on_c, 14, 65, 89
1, 223699, Note_on_c, 14, 70, 94
1, 223826, Note_on_c, 5, 82, 0
1, 223832, Note_on_c, 3, 77, 0
1, 223845, Note_on_c, 14, 70, 0
1, 223848, Note_on_c, 5, 74, 0
1, 223848, Note_on_c, 5, 77, 0
1, 223868, Note_on_c, 14, 62, 0
1, 223868, Note_on_c, 14, 65, 0
1, 223922, Lyric_t, "HER"
1, 223922, Lyric_t, "\015"
1, 223922, Note_on_c, 3, 77, 114
1, 223947, Note_on_c, 1, 34, 0
1, 223947, Note_on_c, 8, 34, 0
1, 224000, Note_on_c, 1, 34, 110
1, 224000, Note_on_c, 8, 34, 110
1, 224000, Note_on_c, 9, 35, 114
1, 224000, Note_on_c, 9, 70, 65
1, 224000, Note_on_c, 11, 41, 114
1, 224012, Note_on_c, 9, 35, 0
1, 224012, Note_on_c, 9, 70, 0
1, 224160, Note_on_c, 5, 74, 109
1, 224160, Note_on_c, 5, 77, 97
1, 224160, Note_on_c, 5, 82, 110
1, 224160, Note_on_c, 9, 44, 107
1, 224160, Note_on_c, 9, 54, 109
1, 224161, Note_on_c, 11, 41, 0
1, 224172, Note_on_c, 9, 44, 0
1, 224172, Note_on_c, 9, 54, 0
1, 224179, Note_on_c, 14, 62, 109
1, 224179, Note_on_c, 14, 65, 97
1, 224179, Note_on_c, 14, 70, 110
1, 224309, Note_on_c, 5, 82, 0
1, 224318, Note_on_c, 5, 74, 0
1, 224321, Note_on_c, 5, 77, 0
1, 224328, Note_on_c, 14, 70, 0
1, 224337, Note_on_c, 14, 62, 0
1, 224340, Note_on_c, 14, 65, 0
1, 224427, Note_on_c, 1, 34, 0
1, 224427, Note_on_c, 8, 34, 0
1, 224458, Note_on_c, 12, 58, 0
1, 224463, Note_on_c, 12, 65, 0
1, 224471, Note_on_c, 12, 62, 0
1, 224476, Note_on_c, 3, 77, 0
1, 224480, Lyric_t, "AND "
1, 224480, Note_on_c, 1, 34, 110
1, 224480, Note_on_c, 3, 76, 119
1, 224480, Note_on_c, 8, 34, 110
1, 224529, Note_on_c, 1, 34, 0
1, 224529, Note_on_c, 8, 34, 0
1, 224556, Note_on_c, 12, 57, 105
1, 224617, Note_on_c, 12, 61, 127
1, 224636, Note_on_c, 3, 76, 0
1, 224640, Lyric_t, "I "
1, 224640, Note_on_c, 1, 33, 110
1, 224640, Note_on_c, 3, 76, 114
1, 224640, Note_on_c, 5, 73, 101
1, 224640, Note_on_c, 5, 76, 97
1, 224640, Note_on_c, 5, 81, 105
1, 224640, Note_on_c, 7, 76, 104
1, 224640, Note_on_c, 8, 33, 110
1, 224640, Note_on_c, 9, 35, 114
1, 224640, Note_on_c, 10, 64, 104
1, 224640, Note_on_c, 10, 76, 104
1, 224640, Note_on_c, 11, 41, 114
1, 224652, Note_on_c, 9, 35, 0
1, 224655, Note_on_c, 7, 77, 0
1, 224655, Note_on_c, 10, 65, 0
1, 224655, Note_on_c, 10, 77, 0
1, 224659, Note_on_c, 14, 61, 101
1, 224659, Note_on_c, 14, 64, 97
1, 224659, Note_on_c, 14, 69, 105
1, 224674, Note_on_c, 12, 64, 119
1, 224713, Note_on_c, 5, 81, 0
1, 224733, Note_on_c, 14, 69, 0
1, 224761, Note_on_c, 5, 76, 0
1, 224763, Note_on_c, 5, 73, 0
1, 224780, Note_on_c, 14, 64, 0
1, 224782, Note_on_c, 14, 61, 0
1, 224801, Note_on_c, 11, 41, 0
1, 225120, Note_on_c, 5, 73, 111
1, 225120, Note_on_c, 5, 76, 107
1, 225120, Note_on_c, 5, 81, 105
1, 225120, Note_on_c, 9, 44, 107
1, 225120, Note_on_c, 9, 69, 109
1, 225132, Note_on_c, 9, 44, 0
1, 225132, Note_on_c, 9, 69, 0
1, 225133, Note_on_c, 1, 33, 0
1, 225133, Note_on_c, 8, 33, 0
1, 225139, Note_on_c, 14, 61, 111
1, 225139, Note_on_c, 14, 64, 107
1, 225139, Note_on_c, 14, 69, 105
1, 225277, Note_on_c, 5, 81, 0
1, 225284, Note_on_c, 5, 76, 0
1, 225288, Note_on_c, 5, 73, 0
1, 225297, Note_on_c, 14, 69, 0
1, 225304, Note_on_c, 14, 64, 0
1, 225308, Note_on_c, 14, 61, 0
1, 225389, Note_on_c, 12, 61, 0
1, 225440, Note_on_c, 1, 33, 110
1, 225440, Note_on_c, 8, 33, 110
1, 225440, Note_on_c, 9, 35, 107
1, 225440, Note_on_c, 11, 41, 107
1, 225452, Note_on_c, 9, 35, 0
1, 225463, Note_on_c, 12, 64, 0
1, 225483, Note_on_c, 12, 57, 0
1, 225489, Note_on_c, 1, 33, 0
1, 225489, Note_on_c, 8, 33, 0
1, 225516, Note_on_c, 12, 57, 105
1, 225577, Note_on_c, 12, 61, 127
1, 225596, Note_on_c, 3, 76, 0
1, 225600, Lyric_t, "GO "
1, 225600, Note_on_c, 1, 33, 110
1, 225600, Note_on_c, 3, 74, 114
1, 225600, Note_on_c, 5, 73, 105
1, 225600, Note_on_c, 5, 76, 94
1, 225600, Note_on_c, 5, 81, 94
1, 225600, Note_on_c, 8, 33, 110
1, 225600, Note_on_c, 9, 35, 114
1, 225600, Note_on_c, 11, 41, 114
1, 225601, Note_on_c, 11, 41, 0
1, 225612, Note_on_c, 9, 35, 0
1, 225619, Note_on_c, 14, 61, 105
1, 225619, Note_on_c, 14, 64, 94
1, 225619, Note_on_c, 14, 69, 94
1, 225634, Note_on_c, 12, 64, 119
1, 225755, Note_on_c, 5, 81, 0
1, 225761, Note_on_c, 11, 41, 0
1, 225763, Note_on_c, 5, 73, 0
1, 225767, Note_on_c, 5, 76, 0
1, 225775, Note_on_c, 14, 69, 0
1, 225783, Note_on_c, 14, 61, 0
1, 225787, Note_on_c, 14, 64, 0
1, 225920, Note_on_c, 9, 70, 65
1, 225932, Note_on_c, 9, 70, 0
1, 226080, Note_on_c, 5, 73, 109
1, 226080, Note_on_c, 5, 76, 94
1, 226080, Note_on_c, 5, 81, 94
1, 226080, Note_on_c, 9, 44, 107
1, 226080, Note_on_c, 9, 54, 109
1, 226092, Note_on_c, 9, 44, 0
1, 226092, Note_on_c, 9, 54, 0
1, 226093, Note_on_c, 1, 33, 0
1, 226093, Note_on_c, 8, 33, 0
1, 226099, Note_on_c, 14, 61, 109
1, 226099, Note_on_c, 14, 64, 94
1, 226099, Note_on_c, 14, 69, 94
1, 226221, Note_on_c, 5, 81, 0
1, 226234, Note_on_c, 5, 73, 0
1, 226234, Note_on_c, 5, 76, 0
1, 226241, Note_on_c, 14, 69, 0
1, 226254, Note_on_c, 14, 61, 0
1, 226254, Note_on_c, 14, 64, 0
1, 226349, Note_on_c, 12, 61, 0
1, 226423, Note_on_c, 12, 64, 0
1, 226443, Note_on_c, 12, 57, 0
1, 226455, Note_on_c, 7, 76, 0
1, 226476, Note_on_c, 12, 57, 101
1, 226504, Note_on_c, 12, 61, 127
1, 226556, Note_on_c, 3, 74, 0
1, 226560, Lyric_t, "BACK "
1, 226560, Note_on_c, 1, 33, 110
1, 226560, Note_on_c, 3, 73, 114
1, 226560, Note_on_c, 5, 73, 109
1, 226560, Note_on_c, 5, 76, 94
1, 226560, Note_on_c, 5, 81, 101
1, 226560, Note_on_c, 8, 33, 110
1, 226560, Note_on_c, 9, 35, 114
1, 226560, Note_on_c, 10, 65, 104
1, 226560, Note_on_c, 10, 77, 104
1, 226560, Note_on_c, 11, 41, 114
1, 226572, Note_on_c, 9, 35, 0
1, 226574, Note_on_c, 12, 65, 114
1, 226575, Note_on_c, 10, 64, 0
1, 226575, Note_on_c, 10, 76, 0
1, 226579, Note_on_c, 14, 61, 109
1, 226579, Note_on_c, 14, 64, 94
1, 226579, Note_on_c, 14, 69, 101
1, 226715, Note_on_c, 5, 81, 0
1, 226721, Note_on_c, 11, 41, 0
1, 226731, Note_on_c, 5, 73, 0
1, 226731, Note_on_c, 5, 76, 0
1, 226735, Note_on_c, 14, 69, 0
1, 226751, Note_on_c, 14, 61, 0
1, 226751, Note_on_c, 14, 64, 0
1, 227040, Note_on_c, 5, 73, 108
1, 227040, Note_on_c, 5, 76, 97
1, 227040, Note_on_c, 5, 81, 98
1, 227040, Note_on_c, 9, 44, 107
1, 227040, Note_on_c, 9, 69, 109
1, 227052, Note_on_c, 9, 44, 0
1, 227052, Note_on_c, 9, 69, 0
1, 227053, Note_on_c, 1, 33, 0
1, 227053, Note_on_c, 8, 33, 0
1, 227059, Note_on_c, 14, 61, 108
1, 227059, Note_on_c, 14, 64, 97
1, 227059, Note_on_c, 14, 69, 98
1, 227186, Note_on_c, 5, 81, 0
1, 227198, Note_on_c, 5, 73, 0
1, 227203, Note_on_c, 5, 76, 0
1, 227206, Note_on_c, 14, 69, 0
1, 227218, Note_on_c, 14, 61, 0
1, 227223, Note_on_c, 14, 64, 0
1, 227230, Note_on_c, 12, 61, 0
1, 227276, Note_on_c, 12, 57, 0
1, 227360, Note_on_c, 1, 33, 110
1, 227360, Note_on_c, 8, 33, 110
1, 227360, Note_on_c, 9, 35, 114
1, 227360, Note_on_c, 11, 41, 114
1, 227364, Note_on_c, 12, 57, 101
1, 227372, Note_on_c, 9, 35, 0
1, 227373, Note_on_c, 12, 65, 0
1, 227417, Note_on_c, 12, 61, 127
1, 227494, Note_on_c, 12, 64, 114
1, 227516, Note_on_c, 3, 73, 0
1, 227516, Note_on_c, 10, 65, 0
1, 227516, Note_on_c, 10, 77, 0
1, 227520, Lyric_t, "TO "
1, 227520, Note_on_c, 3, 69, 114
1, 227520, Note_on_c, 5, 73, 105
1, 227520, Note_on_c, 5, 76, 89
1, 227520, Note_on_c, 5, 81, 94
1, 227520, Note_on_c, 10, 64, 104
1, 227520, Note_on_c, 10, 76, 104
1, 227521, Note_on_c, 11, 41, 0
1, 227539, Note_on_c, 14, 61, 105
1, 227539, Note_on_c, 14, 64, 89
1, 227539, Note_on_c, 14, 69, 94
1, 227666, Note_on_c, 5, 81, 0
1, 227685, Note_on_c, 14, 69, 0
1, 227688, Note_on_c, 5, 73, 0
1, 227688, Note_on_c, 5, 76, 0
1, 227708, Note_on_c, 14, 61, 0
1, 227708, Note_on_c, 14, 64, 0
1, 227787, Note_on_c, 1, 33, 0
1, 227787, Note_on_c, 8, 33, 0
1, 227840, Note_on_c, 1, 33, 110
1, 227840, Note_on_c, 8, 33, 110
1, 227840, Note_on_c, 9, 35, 114
1, 227840, Note_on_c, 9, 70, 65
1, 227840, Note_on_c, 11, 41, 114
1, 227852, Note_on_c, 9, 35, 0
1, 227852, Note_on_c, 9, 70, 0
1, 228000, Note_on_c, 5, 73, 109
1, 228000, Note_on_c, 5, 76, 97
1, 228000, Note_on_c, 5, 81, 110
1, 228000, Note_on_c, 9, 44, 107
1, 228000, Note_on_c, 9, 54, 109
1, 228001, Note_on_c, 11, 41, 0
1, 228012, Note_on_c, 9, 44, 0
1, 228012, Note_on_c, 9, 54, 0
1, 228019, Note_on_c, 14, 61, 109
1, 228019, Note_on_c, 14, 64, 97
1, 228019, Note_on_c, 14, 69, 110
1, 228073, Note_on_c, 12, 61, 0
1, 228104, Note_on_c, 12, 64, 0
1, 228112, Note_on_c, 12, 57, 0
1, 228149, Note_on_c, 5, 81, 0
1, 228158, Note_on_c, 5, 73, 0
1, 228161, Note_on_c, 5, 76, 0
1, 228168, Note_on_c, 14, 69, 0
1, 228177, Note_on_c, 14, 61, 0
1, 228180, Note_on_c, 14, 64, 0
1, 228267, Note_on_c, 1, 33, 0
1, 228267, Note_on_c, 8, 33, 0
1, 228276, Note_on_c, 12, 53, 101
1, 228304, Note_on_c, 12, 57, 123
1, 228320, Note_on_c, 1, 33, 110
1, 228320, Note_on_c, 8, 33, 110
1, 228369, Note_on_c, 1, 33, 0
1, 228369, Note_on_c, 8, 33, 0
1, 228374, Note_on_c, 12, 62, 114
1, 228476, Note_on_c, 3, 69, 0
1, 228476, Note_on_c, 10, 64, 0
1, 228476, Note_on_c, 10, 76, 0
1, 228480, Lyric_t, "BLACK"
1, 228480, Lyric_t, "\015"
1, 228480, Note_on_c, 1, 38, 110
1, 228480, Note_on_c, 2, 50, 87
1, 228480, Note_on_c, 2, 53, 87
1, 228480, Note_on_c, 2, 57, 87
1, 228480, Note_on_c, 3, 69, 114
1, 228480, Note_on_c, 4, 57, 87
1, 228480, Note_on_c, 4, 62, 87
1, 228480, Note_on_c, 6, 50, 87
1, 228480, Note_on_c, 6, 53, 87
1, 228480, Note_on_c, 6, 57, 87
1, 228480, Note_on_c, 6, 62, 87
1, 228480, Note_on_c, 7, 74, 104
1, 228480, Note_on_c, 10, 62, 104
1, 228480, Note_on_c, 10, 74, 104
1, 229436, Note_on_c, 3, 69, 0
1, 230295, Note_on_c, 7, 74, 0
1, 232030, Note_on_c, 12, 57, 0
1, 232076, Note_on_c, 12, 53, 0
1, 232173, Note_on_c, 12, 62, 0
1, 232196, Note_on_c, 10, 62, 0
1, 232196, Note_on_c, 10, 74, 0
1, 232213, Note_on_c, 1, 38, 0
1, 232335, Note_on_c, 2, 50, 0
1, 232335, Note_on_c, 2, 53, 0
1, 232335, Note_on_c, 2, 57, 0
1, 232335, Note_on_c, 4, 57, 0
1, 232335, Note_on_c, 4, 62, 0
1, 232335, Note_on_c, 6, 50, 0
1, 232335, Note_on_c, 6, 53, 0
1, 232335, Note_on_c, 6, 57, 0
1, 232335, Note_on_c, 6, 62, 0
1, 234720, Control_c, 1, 123, 0
1, 234720, Control_c, 2, 123, 0
1, 234721, Control_c, 3, 123, 0
1, 234721, Control_c, 4, 123, 0
1, 234722, Control_c, 5, 123, 0
1, 234722, Control_c, 6, 123, 0
1, 234723, Control_c, 7, 123, 0
1, 234723, Control_c, 8, 123, 0
1, 234724, Control_c, 9, 123, 0
1, 234724, Control_c, 10, 123, 0
1, 234725, Control_c, 11, 123, 0
1, 234725, Control_c, 12, 123, 0
1, 234726, Control_c, 13, 123, 0
1, 234726, Control_c, 14, 123, 0
1, 235080, Control_c, 1, 120, 0
1, 235080, Control_c, 2, 120, 0
1, 235081, Control_c, 3, 120, 0
1, 235081, Control_c, 4, 120, 0
1, 235082, Control_c, 5, 120, 0
1, 235082, Control_c, 6, 120, 0
1, 235083, Control_c, 7, 120, 0
1, 235083, Control_c, 8, 120, 0
1, 235084, Control_c, 9, 120, 0
1, 235084, Control_c, 10, 120, 0
1, 235085, Control_c, 11, 120, 0
1, 235085, Control_c, 12, 120, 0
1, 235086, Control_c, 13, 120, 0
1, 235086, Control_c, 14, 120, 0
1, 236040, System_exclusive, 10, 65, 16, 66, 18, 64, 0, 127, 0, 65, 247
1, 236040, End_track
0, 0, End_of_file
