0, 0, Header, 1, 10, 384
1, 0, Start_track
1, 0, Time_signature, 4, 2, 96, 8
1, 0, Sequencer_specific, 3, 0, 0, 65
1, 0, Tempo, 480000
1, 0, End_track
2, 0, Start_track
2, 0, Title_t, "Vocal"
2, 0, Control_c, 3, 0, 0
2, 0, Program_c, 3, 24
2, 0, Control_c, 3, 10, 64
2, 0, Control_c, 3, 91, 60
2, 0, Key_signature, 3, "major"
2, 0, Control_c, 3, 7, 90
2, 0, Control_c, 3, 121, 0
2, 0, Control_c, 3, 100, 0
2, 4, Control_c, 3, 101, 0
2, 8, Control_c, 3, 6, 2
2, 16, Control_c, 3, 38, 0
2, 16, Control_c, 3, 1, 10
2, 16, Pitch_bend_c, 3, 8192
2, 192, Note_on_c, 3, 73, 106
2, 384, Note_on_c, 3, 71, 99
2, 388, Note_off_c, 3, 73, 0
2, 576, Note_on_c, 3, 69, 106
2, 612, Note_off_c, 3, 71, 0
2, 624, Note_off_c, 3, 69, 0
2, 768, Note_on_c, 3, 69, 106
2, 808, Note_off_c, 3, 69, 0
2, 960, Note_on_c, 3, 69, 106
2, 1136, Note_off_c, 3, 69, 0
2, 1152, Note_on_c, 3, 66, 104
2, 1336, Note_off_c, 3, 66, 0
2, 1344, Note_on_c, 3, 69, 99
2, 1780, Note_off_c, 3, 69, 0
2, 1920, Note_on_c, 3, 69, 106
2, 1996, Note_off_c, 3, 69, 0
2, 2112, Note_on_c, 3, 69, 106
2, 2240, Note_off_c, 3, 69, 0
2, 3264, Note_on_c, 3, 73, 105
2, 3456, Note_on_c, 3, 71, 99
2, 3472, Note_off_c, 3, 73, 0
2, 3648, Note_on_c, 3, 69, 104
2, 3668, Note_off_c, 3, 71, 0
2, 3696, Note_off_c, 3, 69, 0
2, 3840, Note_on_c, 3, 69, 106
2, 3884, Note_off_c, 3, 69, 0
2, 4032, Note_on_c, 3, 69, 106
2, 4288, Note_off_c, 3, 69, 0
2, 4416, Note_on_c, 3, 69, 104
2, 4800, Note_on_c, 3, 69, 100
2, 4844, Note_off_c, 3, 69, 0
2, 4992, Note_off_c, 3, 69, 0
2, 4992, Note_on_c, 3, 69, 106
2, 5060, Note_off_c, 3, 69, 0
2, 5184, Note_on_c, 3, 69, 99
2, 5296, Note_off_c, 3, 69, 0
2, 5568, Note_on_c, 3, 69, 99
2, 5744, Note_off_c, 3, 69, 0
2, 5760, Note_on_c, 3, 66, 95
2, 5952, Note_on_c, 3, 67, 95
2, 5976, Note_off_c, 3, 66, 0
2, 6248, Note_off_c, 3, 67, 0
2, 6336, Note_on_c, 3, 67, 106
2, 6396, Note_off_c, 3, 67, 0
2, 6528, Note_on_c, 3, 67, 105
2, 6592, Note_off_c, 3, 67, 0
2, 6720, Note_on_c, 3, 67, 96
2, 6784, Note_off_c, 3, 67, 0
2, 6912, Note_on_c, 3, 67, 104
2, 7100, Note_off_c, 3, 67, 0
2, 7104, Note_on_c, 3, 64, 95
2, 7236, Note_off_c, 3, 64, 0
2, 7488, Note_on_c, 3, 57, 94
2, 7616, Note_off_c, 3, 57, 0
2, 7680, Note_on_c, 3, 67, 95
2, 7812, Note_off_c, 3, 67, 0
2, 7872, Note_on_c, 3, 67, 95
2, 7920, Note_off_c, 3, 67, 0
2, 7968, Note_on_c, 3, 67, 99
2, 8104, Note_off_c, 3, 67, 0
2, 8160, Note_on_c, 3, 67, 95
2, 8228, Note_off_c, 3, 67, 0
2, 8256, Note_on_c, 3, 69, 84
2, 8448, Note_off_c, 3, 69, 0
2, 8448, Note_on_c, 3, 67, 94
2, 8712, Note_off_c, 3, 67, 0
2, 8832, Note_on_c, 3, 67, 105
2, 9000, Note_off_c, 3, 67, 0
2, 9024, Note_on_c, 3, 66, 92
2, 9216, Note_on_c, 3, 67, 99
2, 9228, Note_off_c, 3, 66, 0
2, 9408, Note_on_c, 3, 66, 96
2, 9416, Note_off_c, 3, 67, 0
2, 9484, Note_off_c, 3, 66, 0
2, 9600, Note_on_c, 3, 66, 101
2, 9680, Note_off_c, 3, 66, 0
2, 9792, Note_on_c, 3, 66, 95
2, 9984, Note_off_c, 3, 66, 0
2, 10176, Note_on_c, 3, 67, 99
2, 10348, Note_off_c, 3, 67, 0
2, 10560, Note_on_c, 3, 66, 99
2, 10732, Note_off_c, 3, 66, 0
2, 12480, Note_on_c, 3, 73, 106
2, 12672, Note_on_c, 3, 71, 99
2, 12676, Note_off_c, 3, 73, 0
2, 12864, Note_on_c, 3, 69, 106
2, 12900, Note_off_c, 3, 71, 0
2, 12964, Note_off_c, 3, 69, 0
2, 13056, Note_on_c, 3, 69, 106
2, 13096, Note_off_c, 3, 69, 0
2, 13248, Note_on_c, 3, 69, 106
2, 13424, Note_off_c, 3, 69, 0
2, 13440, Note_on_c, 3, 69, 104
2, 13624, Note_off_c, 3, 69, 0
2, 13632, Note_on_c, 3, 66, 99
2, 13824, Note_off_c, 3, 66, 0
2, 13824, Note_on_c, 3, 69, 104
2, 14016, Note_off_c, 3, 69, 0
2, 14208, Note_on_c, 3, 69, 106
2, 14284, Note_off_c, 3, 69, 0
2, 14400, Note_on_c, 3, 71, 106
2, 14528, Note_off_c, 3, 71, 0
2, 14784, Note_on_c, 3, 66, 106
2, 14912, Note_off_c, 3, 66, 0
2, 14976, Note_on_c, 3, 69, 106
2, 15104, Note_off_c, 3, 69, 0
2, 15552, Note_on_c, 3, 73, 105
2, 15744, Note_on_c, 3, 71, 99
2, 15760, Note_off_c, 3, 73, 0
2, 15936, Note_on_c, 3, 69, 104
2, 15956, Note_off_c, 3, 71, 0
2, 15984, Note_off_c, 3, 69, 0
2, 16128, Note_on_c, 3, 69, 106
2, 16172, Note_off_c, 3, 69, 0
2, 16320, Note_on_c, 3, 69, 106
2, 16448, Note_off_c, 3, 69, 0
2, 16512, Note_on_c, 3, 69, 106
2, 16560, Note_off_c, 3, 69, 0
2, 16704, Note_on_c, 3, 69, 104
2, 16896, Note_off_c, 3, 69, 0
2, 16896, Note_on_c, 3, 69, 106
2, 17024, Note_off_c, 3, 69, 0
2, 17280, Note_on_c, 3, 69, 106
2, 17348, Note_off_c, 3, 69, 0
2, 17472, Note_on_c, 3, 69, 99
2, 17584, Note_off_c, 3, 69, 0
2, 17856, Note_on_c, 3, 69, 99
2, 18032, Note_off_c, 3, 69, 0
2, 18048, Note_on_c, 3, 66, 95
2, 18240, Note_on_c, 3, 67, 95
2, 18264, Note_off_c, 3, 66, 0
2, 18536, Note_off_c, 3, 67, 0
2, 18624, Note_on_c, 3, 67, 106
2, 18684, Note_off_c, 3, 67, 0
2, 18816, Note_on_c, 3, 67, 105
2, 18880, Note_off_c, 3, 67, 0
2, 19008, Note_on_c, 3, 67, 96
2, 19072, Note_off_c, 3, 67, 0
2, 19200, Note_on_c, 3, 67, 104
2, 19388, Note_off_c, 3, 67, 0
2, 19392, Note_on_c, 3, 64, 95
2, 19524, Note_off_c, 3, 64, 0
2, 19776, Note_on_c, 3, 57, 94
2, 19904, Note_off_c, 3, 57, 0
2, 19968, Note_on_c, 3, 67, 95
2, 20100, Note_off_c, 3, 67, 0
2, 20160, Note_on_c, 3, 67, 95
2, 20208, Note_off_c, 3, 67, 0
2, 20256, Note_on_c, 3, 67, 99
2, 20392, Note_off_c, 3, 67, 0
2, 20448, Note_on_c, 3, 67, 95
2, 20516, Note_off_c, 3, 67, 0
2, 20544, Note_on_c, 3, 69, 84
2, 20736, Note_off_c, 3, 69, 0
2, 21120, Note_on_c, 3, 67, 105
2, 21288, Note_off_c, 3, 67, 0
2, 21312, Note_on_c, 3, 66, 92
2, 21504, Note_on_c, 3, 67, 99
2, 21516, Note_off_c, 3, 66, 0
2, 21696, Note_on_c, 3, 66, 96
2, 21704, Note_off_c, 3, 67, 0
2, 21772, Note_off_c, 3, 66, 0
2, 21888, Note_on_c, 3, 66, 101
2, 21968, Note_off_c, 3, 66, 0
2, 22080, Note_on_c, 3, 66, 95
2, 22272, Note_off_c, 3, 66, 0
2, 22464, Note_on_c, 3, 67, 99
2, 22636, Note_off_c, 3, 67, 0
2, 22848, Note_on_c, 3, 66, 99
2, 23020, Note_off_c, 3, 66, 0
2, 24768, Note_on_c, 3, 69, 106
2, 24944, Note_off_c, 3, 69, 0
2, 24960, Note_on_c, 3, 72, 106
2, 25152, Note_on_c, 3, 71, 105
2, 25164, Note_off_c, 3, 72, 0
2, 25344, Note_on_c, 3, 72, 106
2, 25352, Note_off_c, 3, 71, 0
2, 25536, Note_on_c, 3, 71, 106
2, 25552, Note_off_c, 3, 72, 0
2, 25728, Note_on_c, 3, 72, 106
2, 25756, Note_off_c, 3, 71, 0
2, 25920, Note_off_c, 3, 72, 0
2, 25920, Note_on_c, 3, 71, 106
2, 26112, Note_on_c, 3, 72, 106
2, 26120, Note_off_c, 3, 71, 0
2, 26688, Note_off_c, 3, 72, 0
2, 26688, Note_on_c, 3, 71, 106
2, 27072, Note_on_c, 3, 72, 106
2, 27104, Note_off_c, 3, 71, 0
2, 27220, Note_off_c, 3, 72, 0
2, 27840, Note_on_c, 3, 69, 106
2, 28028, Note_off_c, 3, 69, 0
2, 28032, Note_on_c, 3, 72, 105
2, 28216, Note_off_c, 3, 72, 0
2, 28224, Note_on_c, 3, 71, 100
2, 28416, Note_on_c, 3, 72, 106
2, 28440, Note_off_c, 3, 71, 0
2, 28608, Note_on_c, 3, 71, 96
2, 28624, Note_off_c, 3, 72, 0
2, 28800, Note_on_c, 3, 72, 105
2, 28820, Note_off_c, 3, 71, 0
2, 28976, Note_off_c, 3, 72, 0
2, 28992, Note_on_c, 3, 71, 99
2, 29184, Note_on_c, 3, 72, 106
2, 29220, Note_off_c, 3, 71, 0
2, 29760, Note_on_c, 3, 71, 106
2, 29768, Note_off_c, 3, 72, 0
2, 30144, Note_on_c, 3, 72, 106
2, 30168, Note_off_c, 3, 71, 0
2, 30256, Note_off_c, 3, 72, 0
2, 30528, Note_on_c, 3, 67, 104
2, 30608, Note_off_c, 3, 67, 0
2, 30720, Note_on_c, 3, 74, 106
2, 31296, Note_on_c, 3, 72, 106
2, 31300, Note_off_c, 3, 74, 0
2, 31672, Note_off_c, 3, 72, 0
2, 31680, Note_on_c, 3, 67, 106
2, 31812, Note_off_c, 3, 67, 0
2, 32256, Note_on_c, 3, 74, 106
2, 32832, Note_on_c, 3, 71, 106
2, 32836, Note_off_c, 3, 74, 0
2, 33352, Note_off_c, 3, 71, 0
2, 33408, Note_on_c, 3, 67, 106
2, 33600, Note_on_c, 3, 69, 106
2, 33604, Note_off_c, 3, 67, 0
2, 35396, Note_off_c, 3, 69, 0
2, 37056, Note_on_c, 3, 69, 104
2, 37240, Note_off_c, 3, 69, 0
2, 37248, Note_on_c, 3, 72, 106
2, 37440, Note_on_c, 3, 71, 105
2, 37444, Note_off_c, 3, 72, 0
2, 37632, Note_on_c, 3, 72, 106
2, 37660, Note_off_c, 3, 71, 0
2, 37824, Note_on_c, 3, 71, 104
2, 37828, Note_off_c, 3, 72, 0
2, 38016, Note_on_c, 3, 72, 106
2, 38040, Note_off_c, 3, 71, 0
2, 38208, Note_on_c, 3, 71, 105
2, 38216, Note_off_c, 3, 72, 0
2, 38400, Note_on_c, 3, 72, 106
2, 38428, Note_off_c, 3, 71, 0
2, 38976, Note_off_c, 3, 72, 0
2, 38976, Note_on_c, 3, 71, 106
2, 39360, Note_on_c, 3, 72, 106
2, 39396, Note_off_c, 3, 71, 0
2, 39472, Note_off_c, 3, 72, 0
2, 40128, Note_on_c, 3, 69, 106
2, 40316, Note_off_c, 3, 69, 0
2, 40320, Note_on_c, 3, 72, 106
2, 40484, Note_off_c, 3, 72, 0
2, 40512, Note_on_c, 3, 71, 106
2, 40704, Note_on_c, 3, 72, 106
2, 40724, Note_off_c, 3, 71, 0
2, 40896, Note_on_c, 3, 71, 104
2, 40908, Note_off_c, 3, 72, 0
2, 41088, Note_on_c, 3, 72, 103
2, 41116, Note_off_c, 3, 71, 0
2, 41276, Note_off_c, 3, 72, 0
2, 41280, Note_on_c, 3, 71, 106
2, 41472, Note_on_c, 3, 72, 106
2, 41520, Note_off_c, 3, 71, 0
2, 42024, Note_off_c, 3, 72, 0
2, 42048, Note_on_c, 3, 71, 105
2, 42432, Note_on_c, 3, 72, 106
2, 42484, Note_off_c, 3, 71, 0
2, 42584, Note_off_c, 3, 72, 0
2, 42816, Note_on_c, 3, 67, 96
2, 42896, Note_off_c, 3, 67, 0
2, 43008, Note_on_c, 3, 74, 106
2, 43580, Note_off_c, 3, 74, 0
2, 43584, Note_on_c, 3, 72, 105
2, 43960, Note_off_c, 3, 72, 0
2, 43968, Note_on_c, 3, 67, 99
2, 44100, Note_off_c, 3, 67, 0
2, 44544, Note_on_c, 3, 74, 106
2, 45104, Note_off_c, 3, 74, 0
2, 45120, Note_on_c, 3, 71, 106
2, 45684, Note_off_c, 3, 71, 0
2, 45696, Note_on_c, 3, 67, 106
2, 45872, Note_off_c, 3, 67, 0
2, 45888, Note_on_c, 3, 69, 106
2, 47616, Note_off_c, 3, 69, 0
2, 61440, Control_c, 3, 7, 110
2, 61632, Note_on_c, 3, 73, 106
2, 61824, Note_on_c, 3, 71, 99
2, 61828, Note_off_c, 3, 73, 0
2, 62016, Note_on_c, 3, 69, 106
2, 62052, Note_off_c, 3, 71, 0
2, 62064, Note_off_c, 3, 69, 0
2, 62208, Note_on_c, 3, 69, 106
2, 62248, Note_off_c, 3, 69, 0
2, 62400, Note_on_c, 3, 69, 106
2, 62576, Note_off_c, 3, 69, 0
2, 62592, Note_on_c, 3, 66, 104
2, 62776, Note_off_c, 3, 66, 0
2, 62784, Note_on_c, 3, 69, 99
2, 63220, Note_off_c, 3, 69, 0
2, 63360, Note_on_c, 3, 69, 106
2, 63436, Note_off_c, 3, 69, 0
2, 63552, Note_on_c, 3, 69, 106
2, 63680, Note_off_c, 3, 69, 0
2, 63744, Note_on_c, 3, 71, 104
2, 63840, Note_off_c, 3, 71, 0
2, 64320, Note_on_c, 3, 64, 104
2, 64416, Note_off_c, 3, 64, 0
2, 64512, Note_on_c, 3, 73, 105
2, 64704, Note_on_c, 3, 71, 99
2, 64720, Note_off_c, 3, 73, 0
2, 64896, Note_on_c, 3, 69, 104
2, 64916, Note_off_c, 3, 71, 0
2, 64944, Note_off_c, 3, 69, 0
2, 65088, Note_on_c, 3, 69, 106
2, 65132, Note_off_c, 3, 69, 0
2, 65472, Note_on_c, 3, 69, 106
2, 65600, Note_off_c, 3, 69, 0
2, 65664, Note_on_c, 3, 69, 106
2, 65792, Note_off_c, 3, 69, 0
2, 65856, Note_on_c, 3, 69, 104
2, 65984, Note_off_c, 3, 69, 0
2, 66048, Note_on_c, 3, 69, 104
2, 66240, Note_off_c, 3, 69, 0
2, 66240, Note_on_c, 3, 69, 104
2, 66432, Note_off_c, 3, 69, 0
2, 66432, Note_on_c, 3, 69, 106
2, 66500, Note_off_c, 3, 69, 0
2, 66624, Note_on_c, 3, 71, 99
2, 66736, Note_off_c, 3, 71, 0
2, 67008, Note_on_c, 3, 69, 99
2, 67184, Note_off_c, 3, 69, 0
2, 67200, Note_on_c, 3, 66, 95
2, 67392, Note_on_c, 3, 67, 95
2, 67416, Note_off_c, 3, 66, 0
2, 67688, Note_off_c, 3, 67, 0
2, 67776, Note_on_c, 3, 67, 106
2, 67836, Note_off_c, 3, 67, 0
2, 67968, Note_on_c, 3, 67, 105
2, 68032, Note_off_c, 3, 67, 0
2, 68160, Note_on_c, 3, 67, 96
2, 68224, Note_off_c, 3, 67, 0
2, 68352, Note_on_c, 3, 67, 104
2, 68540, Note_off_c, 3, 67, 0
2, 68544, Note_on_c, 3, 64, 95
2, 68676, Note_off_c, 3, 64, 0
2, 68928, Note_on_c, 3, 57, 94
2, 69056, Note_off_c, 3, 57, 0
2, 69120, Note_on_c, 3, 67, 95
2, 69252, Note_off_c, 3, 67, 0
2, 69312, Note_on_c, 3, 67, 95
2, 69360, Note_off_c, 3, 67, 0
2, 69408, Note_on_c, 3, 67, 99
2, 69544, Note_off_c, 3, 67, 0
2, 69600, Note_on_c, 3, 67, 95
2, 69668, Note_off_c, 3, 67, 0
2, 69696, Note_on_c, 3, 69, 84
2, 69888, Note_off_c, 3, 69, 0
2, 69888, Note_on_c, 3, 67, 94
2, 70152, Note_off_c, 3, 67, 0
2, 70272, Note_on_c, 3, 67, 105
2, 70440, Note_off_c, 3, 67, 0
2, 70464, Note_on_c, 3, 66, 92
2, 70656, Note_on_c, 3, 67, 99
2, 70668, Note_off_c, 3, 66, 0
2, 70848, Note_on_c, 3, 66, 96
2, 70856, Note_off_c, 3, 67, 0
2, 70924, Note_off_c, 3, 66, 0
2, 71040, Note_on_c, 3, 66, 101
2, 71120, Note_off_c, 3, 66, 0
2, 71232, Note_on_c, 3, 66, 95
2, 71424, Note_off_c, 3, 66, 0
2, 71616, Note_on_c, 3, 67, 99
2, 71788, Note_off_c, 3, 67, 0
2, 72000, Note_on_c, 3, 66, 99
2, 72172, Note_off_c, 3, 66, 0
2, 73920, Note_on_c, 3, 73, 106
2, 74112, Note_on_c, 3, 71, 99
2, 74116, Note_off_c, 3, 73, 0
2, 74304, Note_on_c, 3, 69, 106
2, 74340, Note_off_c, 3, 71, 0
2, 74352, Note_off_c, 3, 69, 0
2, 74496, Note_on_c, 3, 69, 106
2, 74536, Note_off_c, 3, 69, 0
2, 74592, Note_on_c, 3, 69, 106
2, 74640, Note_off_c, 3, 69, 0
2, 74784, Note_on_c, 3, 69, 99
2, 74880, Note_off_c, 3, 69, 0
2, 74880, Note_on_c, 3, 66, 104
2, 75064, Note_off_c, 3, 66, 0
2, 75072, Note_on_c, 3, 69, 99
2, 75508, Note_off_c, 3, 69, 0
2, 75648, Note_on_c, 3, 69, 106
2, 75724, Note_off_c, 3, 69, 0
2, 75840, Note_on_c, 3, 69, 106
2, 75968, Note_off_c, 3, 69, 0
2, 76224, Note_on_c, 3, 64, 106
2, 76272, Note_off_c, 3, 64, 0
2, 76416, Note_on_c, 3, 66, 106
2, 76464, Note_off_c, 3, 66, 0
2, 76608, Note_on_c, 3, 69, 106
2, 76656, Note_off_c, 3, 69, 0
2, 76800, Note_on_c, 3, 73, 105
2, 76992, Note_on_c, 3, 71, 99
2, 77008, Note_off_c, 3, 73, 0
2, 77184, Note_on_c, 3, 69, 104
2, 77204, Note_off_c, 3, 71, 0
2, 77232, Note_off_c, 3, 69, 0
2, 77376, Note_on_c, 3, 69, 106
2, 77420, Note_off_c, 3, 69, 0
2, 77952, Note_on_c, 3, 69, 106
2, 78080, Note_off_c, 3, 69, 0
2, 78144, Note_on_c, 3, 64, 104
2, 78272, Note_off_c, 3, 64, 0
2, 78336, Note_on_c, 3, 66, 106
2, 78404, Note_off_c, 3, 66, 0
2, 78528, Note_on_c, 3, 69, 106
2, 78596, Note_off_c, 3, 69, 0
2, 78912, Note_on_c, 3, 69, 99
2, 79024, Note_off_c, 3, 69, 0
2, 79296, Note_on_c, 3, 69, 99
2, 79472, Note_off_c, 3, 69, 0
2, 79488, Note_on_c, 3, 66, 95
2, 79680, Note_on_c, 3, 67, 95
2, 79704, Note_off_c, 3, 66, 0
2, 79976, Note_off_c, 3, 67, 0
2, 80064, Note_on_c, 3, 67, 106
2, 80124, Note_off_c, 3, 67, 0
2, 80256, Note_on_c, 3, 67, 105
2, 80320, Note_off_c, 3, 67, 0
2, 80448, Note_on_c, 3, 67, 96
2, 80512, Note_off_c, 3, 67, 0
2, 80640, Note_on_c, 3, 67, 104
2, 80828, Note_off_c, 3, 67, 0
2, 80832, Note_on_c, 3, 64, 95
2, 80964, Note_off_c, 3, 64, 0
2, 81216, Note_on_c, 3, 57, 94
2, 81344, Note_off_c, 3, 57, 0
2, 81408, Note_on_c, 3, 67, 95
2, 81540, Note_off_c, 3, 67, 0
2, 81600, Note_on_c, 3, 67, 95
2, 81648, Note_off_c, 3, 67, 0
2, 81696, Note_on_c, 3, 67, 99
2, 81832, Note_off_c, 3, 67, 0
2, 81888, Note_on_c, 3, 67, 95
2, 81956, Note_off_c, 3, 67, 0
2, 81984, Note_on_c, 3, 69, 84
2, 82176, Note_off_c, 3, 69, 0
2, 82176, Note_on_c, 3, 67, 94
2, 82440, Note_off_c, 3, 67, 0
2, 82560, Note_on_c, 3, 67, 105
2, 82728, Note_off_c, 3, 67, 0
2, 82752, Note_on_c, 3, 66, 92
2, 82944, Note_on_c, 3, 67, 99
2, 82956, Note_off_c, 3, 66, 0
2, 83136, Note_on_c, 3, 66, 96
2, 83144, Note_off_c, 3, 67, 0
2, 83212, Note_off_c, 3, 66, 0
2, 83328, Note_on_c, 3, 66, 101
2, 83408, Note_off_c, 3, 66, 0
2, 83520, Note_on_c, 3, 66, 95
2, 83712, Note_off_c, 3, 66, 0
2, 83904, Note_on_c, 3, 67, 99
2, 84076, Note_off_c, 3, 67, 0
2, 84288, Note_on_c, 3, 66, 99
2, 84460, Note_off_c, 3, 66, 0
2, 86208, Note_on_c, 3, 69, 106
2, 86384, Note_off_c, 3, 69, 0
2, 86400, Note_on_c, 3, 72, 106
2, 86592, Note_on_c, 3, 71, 105
2, 86604, Note_off_c, 3, 72, 0
2, 86784, Note_on_c, 3, 72, 106
2, 86792, Note_off_c, 3, 71, 0
2, 86976, Note_on_c, 3, 71, 106
2, 86992, Note_off_c, 3, 72, 0
2, 87168, Note_on_c, 3, 72, 106
2, 87196, Note_off_c, 3, 71, 0
2, 87360, Note_off_c, 3, 72, 0
2, 87360, Note_on_c, 3, 71, 106
2, 87552, Note_on_c, 3, 72, 106
2, 87560, Note_off_c, 3, 71, 0
2, 88128, Note_off_c, 3, 72, 0
2, 88128, Note_on_c, 3, 71, 106
2, 88512, Note_on_c, 3, 72, 106
2, 88544, Note_off_c, 3, 71, 0
2, 88660, Note_off_c, 3, 72, 0
2, 89280, Note_on_c, 3, 69, 106
2, 89468, Note_off_c, 3, 69, 0
2, 89472, Note_on_c, 3, 72, 105
2, 89656, Note_off_c, 3, 72, 0
2, 89664, Note_on_c, 3, 71, 100
2, 89856, Note_on_c, 3, 72, 106
2, 89880, Note_off_c, 3, 71, 0
2, 90048, Note_on_c, 3, 71, 96
2, 90064, Note_off_c, 3, 72, 0
2, 90240, Note_on_c, 3, 72, 105
2, 90260, Note_off_c, 3, 71, 0
2, 90416, Note_off_c, 3, 72, 0
2, 90432, Note_on_c, 3, 71, 99
2, 90624, Note_on_c, 3, 72, 106
2, 90660, Note_off_c, 3, 71, 0
2, 91200, Note_on_c, 3, 71, 106
2, 91208, Note_off_c, 3, 72, 0
2, 91584, Note_on_c, 3, 72, 106
2, 91608, Note_off_c, 3, 71, 0
2, 91696, Note_off_c, 3, 72, 0
2, 91968, Note_on_c, 3, 67, 104
2, 92048, Note_off_c, 3, 67, 0
2, 92160, Note_on_c, 3, 74, 106
2, 92736, Note_on_c, 3, 72, 106
2, 92740, Note_off_c, 3, 74, 0
2, 93112, Note_off_c, 3, 72, 0
2, 93120, Note_on_c, 3, 67, 106
2, 93252, Note_off_c, 3, 67, 0
2, 93696, Note_on_c, 3, 74, 106
2, 93888, Note_off_c, 3, 74, 0
2, 94080, Note_on_c, 3, 71, 106
2, 94272, Note_off_c, 3, 71, 0
2, 94272, Note_on_c, 3, 71, 106
2, 94792, Note_off_c, 3, 71, 0
2, 94848, Note_on_c, 3, 67, 106
2, 95040, Note_on_c, 3, 69, 106
2, 95044, Note_off_c, 3, 67, 0
2, 96836, Note_off_c, 3, 69, 0
2, 98688, Note_on_c, 3, 72, 106
2, 98880, Note_on_c, 3, 71, 105
2, 98884, Note_off_c, 3, 72, 0
2, 99072, Note_on_c, 3, 72, 106
2, 99100, Note_off_c, 3, 71, 0
2, 99264, Note_on_c, 3, 71, 104
2, 99268, Note_off_c, 3, 72, 0
2, 99456, Note_on_c, 3, 72, 106
2, 99480, Note_off_c, 3, 71, 0
2, 99648, Note_on_c, 3, 71, 105
2, 99656, Note_off_c, 3, 72, 0
2, 99840, Note_on_c, 3, 72, 106
2, 99868, Note_off_c, 3, 71, 0
2, 100416, Note_off_c, 3, 72, 0
2, 100416, Note_on_c, 3, 71, 106
2, 100800, Note_on_c, 3, 72, 106
2, 100836, Note_off_c, 3, 71, 0
2, 100912, Note_off_c, 3, 72, 0
2, 101568, Note_on_c, 3, 69, 106
2, 101756, Note_off_c, 3, 69, 0
2, 101760, Note_on_c, 3, 72, 106
2, 101924, Note_off_c, 3, 72, 0
2, 101952, Note_on_c, 3, 71, 106
2, 102144, Note_on_c, 3, 72, 106
2, 102164, Note_off_c, 3, 71, 0
2, 102336, Note_on_c, 3, 71, 104
2, 102348, Note_off_c, 3, 72, 0
2, 102528, Note_on_c, 3, 72, 103
2, 102556, Note_off_c, 3, 71, 0
2, 102716, Note_off_c, 3, 72, 0
2, 102720, Note_on_c, 3, 71, 106
2, 102912, Note_on_c, 3, 72, 106
2, 102960, Note_off_c, 3, 71, 0
2, 103464, Note_off_c, 3, 72, 0
2, 103488, Note_on_c, 3, 71, 105
2, 103872, Note_on_c, 3, 72, 106
2, 103924, Note_off_c, 3, 71, 0
2, 104024, Note_off_c, 3, 72, 0
2, 104256, Note_on_c, 3, 67, 96
2, 104336, Note_off_c, 3, 67, 0
2, 104448, Note_on_c, 3, 74, 106
2, 105020, Note_off_c, 3, 74, 0
2, 105024, Note_on_c, 3, 72, 105
2, 105400, Note_off_c, 3, 72, 0
2, 105408, Note_on_c, 3, 67, 99
2, 105540, Note_off_c, 3, 67, 0
2, 105984, Note_on_c, 3, 74, 106
2, 106544, Note_off_c, 3, 74, 0
2, 106560, Note_on_c, 3, 71, 106
2, 107124, Note_off_c, 3, 71, 0
2, 107136, Note_on_c, 3, 67, 106
2, 107312, Note_off_c, 3, 67, 0
2, 107328, Note_on_c, 3, 69, 106
2, 109056, Note_off_c, 3, 69, 0
2, 109056, End_track
3, 0, Start_track
3, 0, Title_t, "electric piano"
3, 0, Control_c, 0, 0, 0
3, 0, Program_c, 0, 4
3, 0, Control_c, 0, 10, 64
3, 0, Control_c, 0, 91, 90
3, 0, Key_signature, 0, "major"
3, 0, Control_c, 0, 7, 90
3, 0, Control_c, 0, 121, 0
3, 0, Note_on_c, 0, 57, 81
3, 192, Note_on_c, 0, 64, 82
3, 196, Note_off_c, 0, 57, 0
3, 384, Note_on_c, 0, 57, 72
3, 392, Note_off_c, 0, 64, 0
3, 576, Note_off_c, 0, 57, 0
3, 576, Note_on_c, 0, 64, 73
3, 768, Note_off_c, 0, 64, 0
3, 768, Note_on_c, 0, 57, 72
3, 960, Note_on_c, 0, 64, 84
3, 976, Note_off_c, 0, 57, 0
3, 1152, Note_off_c, 0, 64, 0
3, 1152, Note_on_c, 0, 69, 80
3, 1344, Note_on_c, 0, 64, 76
3, 1384, Note_off_c, 0, 69, 0
3, 1536, Note_off_c, 0, 64, 0
3, 1536, Note_on_c, 0, 57, 81
3, 1728, Note_on_c, 0, 64, 82
3, 1732, Note_off_c, 0, 57, 0
3, 1920, Note_on_c, 0, 57, 72
3, 1928, Note_off_c, 0, 64, 0
3, 2112, Note_off_c, 0, 57, 0
3, 2112, Note_on_c, 0, 64, 73
3, 2304, Note_off_c, 0, 64, 0
3, 2304, Note_on_c, 0, 57, 72
3, 2496, Note_on_c, 0, 64, 84
3, 2512, Note_off_c, 0, 57, 0
3, 2688, Note_off_c, 0, 64, 0
3, 2688, Note_on_c, 0, 69, 80
3, 2880, Note_on_c, 0, 64, 76
3, 2920, Note_off_c, 0, 69, 0
3, 3072, Note_off_c, 0, 64, 0
3, 3072, Note_on_c, 0, 57, 81
3, 3264, Note_on_c, 0, 64, 82
3, 3268, Note_off_c, 0, 57, 0
3, 3456, Note_on_c, 0, 57, 72
3, 3464, Note_off_c, 0, 64, 0
3, 3648, Note_off_c, 0, 57, 0
3, 3648, Note_on_c, 0, 64, 73
3, 3840, Note_off_c, 0, 64, 0
3, 3840, Note_on_c, 0, 57, 72
3, 4032, Note_on_c, 0, 64, 84
3, 4048, Note_off_c, 0, 57, 0
3, 4224, Note_off_c, 0, 64, 0
3, 4224, Note_on_c, 0, 69, 80
3, 4416, Note_on_c, 0, 64, 76
3, 4456, Note_off_c, 0, 69, 0
3, 4608, Note_off_c, 0, 64, 0
3, 4608, Note_on_c, 0, 57, 81
3, 4800, Note_on_c, 0, 64, 82
3, 4804, Note_off_c, 0, 57, 0
3, 4992, Note_on_c, 0, 57, 72
3, 5000, Note_off_c, 0, 64, 0
3, 5184, Note_off_c, 0, 57, 0
3, 5184, Note_on_c, 0, 64, 73
3, 5376, Note_off_c, 0, 64, 0
3, 5376, Note_on_c, 0, 57, 72
3, 5568, Note_on_c, 0, 64, 84
3, 5584, Note_off_c, 0, 57, 0
3, 5760, Note_off_c, 0, 64, 0
3, 5760, Note_on_c, 0, 69, 80
3, 5952, Note_on_c, 0, 64, 76
3, 5992, Note_off_c, 0, 69, 0
3, 6144, Note_off_c, 0, 64, 0
3, 6144, Note_on_c, 0, 62, 81
3, 6336, Note_on_c, 0, 57, 82
3, 6340, Note_off_c, 0, 62, 0
3, 6528, Note_on_c, 0, 62, 72
3, 6536, Note_off_c, 0, 57, 0
3, 6720, Note_off_c, 0, 62, 0
3, 6720, Note_on_c, 0, 69, 73
3, 6912, Note_off_c, 0, 69, 0
3, 6912, Note_on_c, 0, 62, 72
3, 7104, Note_on_c, 0, 69, 84
3, 7120, Note_off_c, 0, 62, 0
3, 7296, Note_off_c, 0, 69, 0
3, 7296, Note_on_c, 0, 74, 80
3, 7488, Note_on_c, 0, 69, 76
3, 7528, Note_off_c, 0, 74, 0
3, 7680, Note_off_c, 0, 69, 0
3, 7680, Note_on_c, 0, 62, 81
3, 7872, Note_on_c, 0, 57, 82
3, 7876, Note_off_c, 0, 62, 0
3, 8064, Note_on_c, 0, 62, 72
3, 8072, Note_off_c, 0, 57, 0
3, 8256, Note_off_c, 0, 62, 0
3, 8256, Note_on_c, 0, 69, 73
3, 8448, Note_off_c, 0, 69, 0
3, 8448, Note_on_c, 0, 62, 72
3, 8640, Note_on_c, 0, 69, 84
3, 8656, Note_off_c, 0, 62, 0
3, 8832, Note_off_c, 0, 69, 0
3, 8832, Note_on_c, 0, 74, 80
3, 9024, Note_on_c, 0, 69, 76
3, 9064, Note_off_c, 0, 74, 0
3, 9216, Note_off_c, 0, 69, 0
3, 9216, Note_on_c, 0, 74, 81
3, 9408, Note_on_c, 0, 69, 82
3, 9412, Note_off_c, 0, 74, 0
3, 9600, Note_on_c, 0, 74, 72
3, 9608, Note_off_c, 0, 69, 0
3, 9792, Note_off_c, 0, 74, 0
3, 9792, Note_on_c, 0, 81, 73
3, 9984, Note_off_c, 0, 81, 0
3, 9984, Note_on_c, 0, 74, 72
3, 10176, Note_on_c, 0, 81, 84
3, 10192, Note_off_c, 0, 74, 0
3, 10368, Note_off_c, 0, 81, 0
3, 10368, Note_on_c, 0, 86, 80
3, 10560, Note_on_c, 0, 81, 76
3, 10600, Note_off_c, 0, 86, 0
3, 10752, Note_off_c, 0, 81, 0
3, 10752, Note_on_c, 0, 74, 81
3, 10944, Note_on_c, 0, 69, 82
3, 10948, Note_off_c, 0, 74, 0
3, 11136, Note_on_c, 0, 74, 72
3, 11144, Note_off_c, 0, 69, 0
3, 11328, Note_off_c, 0, 74, 0
3, 11328, Note_on_c, 0, 81, 73
3, 11520, Note_off_c, 0, 81, 0
3, 11520, Note_on_c, 0, 74, 72
3, 11712, Note_on_c, 0, 81, 84
3, 11728, Note_off_c, 0, 74, 0
3, 11904, Note_off_c, 0, 81, 0
3, 11904, Note_on_c, 0, 86, 80
3, 12096, Note_on_c, 0, 81, 76
3, 12136, Note_off_c, 0, 86, 0
3, 12288, Note_off_c, 0, 81, 0
3, 12288, Note_on_c, 0, 57, 81
3, 12480, Note_on_c, 0, 64, 82
3, 12484, Note_off_c, 0, 57, 0
3, 12672, Note_on_c, 0, 57, 72
3, 12680, Note_off_c, 0, 64, 0
3, 12864, Note_off_c, 0, 57, 0
3, 12864, Note_on_c, 0, 64, 73
3, 13056, Note_off_c, 0, 64, 0
3, 13056, Note_on_c, 0, 57, 72
3, 13248, Note_on_c, 0, 64, 84
3, 13264, Note_off_c, 0, 57, 0
3, 13440, Note_off_c, 0, 64, 0
3, 13440, Note_on_c, 0, 69, 80
3, 13632, Note_on_c, 0, 64, 76
3, 13672, Note_off_c, 0, 69, 0
3, 13824, Note_off_c, 0, 64, 0
3, 13824, Note_on_c, 0, 57, 81
3, 14016, Note_on_c, 0, 64, 82
3, 14020, Note_off_c, 0, 57, 0
3, 14208, Note_on_c, 0, 57, 72
3, 14216, Note_off_c, 0, 64, 0
3, 14400, Note_off_c, 0, 57, 0
3, 14400, Note_on_c, 0, 64, 73
3, 14592, Note_off_c, 0, 64, 0
3, 14592, Note_on_c, 0, 57, 72
3, 14784, Note_on_c, 0, 64, 84
3, 14800, Note_off_c, 0, 57, 0
3, 14976, Note_off_c, 0, 64, 0
3, 14976, Note_on_c, 0, 69, 80
3, 15168, Note_on_c, 0, 64, 76
3, 15208, Note_off_c, 0, 69, 0
3, 15360, Note_off_c, 0, 64, 0
3, 15360, Note_on_c, 0, 57, 81
3, 15552, Note_on_c, 0, 64, 82
3, 15556, Note_off_c, 0, 57, 0
3, 15744, Note_on_c, 0, 57, 72
3, 15752, Note_off_c, 0, 64, 0
3, 15936, Note_off_c, 0, 57, 0
3, 15936, Note_on_c, 0, 64, 73
3, 16128, Note_off_c, 0, 64, 0
3, 16128, Note_on_c, 0, 57, 72
3, 16320, Note_on_c, 0, 64, 84
3, 16336, Note_off_c, 0, 57, 0
3, 16512, Note_off_c, 0, 64, 0
3, 16512, Note_on_c, 0, 69, 80
3, 16704, Note_on_c, 0, 64, 76
3, 16744, Note_off_c, 0, 69, 0
3, 16896, Note_off_c, 0, 64, 0
3, 16896, Note_on_c, 0, 57, 81
3, 17088, Note_on_c, 0, 64, 82
3, 17092, Note_off_c, 0, 57, 0
3, 17280, Note_on_c, 0, 57, 72
3, 17288, Note_off_c, 0, 64, 0
3, 17472, Note_off_c, 0, 57, 0
3, 17472, Note_on_c, 0, 64, 73
3, 17664, Note_off_c, 0, 64, 0
3, 17664, Note_on_c, 0, 57, 72
3, 17856, Note_on_c, 0, 64, 84
3, 17872, Note_off_c, 0, 57, 0
3, 18048, Note_off_c, 0, 64, 0
3, 18048, Note_on_c, 0, 69, 80
3, 18240, Note_on_c, 0, 64, 76
3, 18280, Note_off_c, 0, 69, 0
3, 18432, Note_off_c, 0, 64, 0
3, 18432, Note_on_c, 0, 62, 81
3, 18624, Note_on_c, 0, 57, 82
3, 18628, Note_off_c, 0, 62, 0
3, 18816, Note_on_c, 0, 62, 72
3, 18824, Note_off_c, 0, 57, 0
3, 19008, Note_off_c, 0, 62, 0
3, 19008, Note_on_c, 0, 69, 73
3, 19200, Note_off_c, 0, 69, 0
3, 19200, Note_on_c, 0, 62, 72
3, 19392, Note_on_c, 0, 69, 84
3, 19408, Note_off_c, 0, 62, 0
3, 19584, Note_off_c, 0, 69, 0
3, 19584, Note_on_c, 0, 74, 80
3, 19776, Note_on_c, 0, 69, 76
3, 19816, Note_off_c, 0, 74, 0
3, 19968, Note_off_c, 0, 69, 0
3, 19968, Note_on_c, 0, 62, 81
3, 20160, Note_on_c, 0, 57, 82
3, 20164, Note_off_c, 0, 62, 0
3, 20352, Note_on_c, 0, 62, 72
3, 20360, Note_off_c, 0, 57, 0
3, 20544, Note_off_c, 0, 62, 0
3, 20544, Note_on_c, 0, 69, 73
3, 20736, Note_off_c, 0, 69, 0
3, 20736, Note_on_c, 0, 62, 72
3, 20928, Note_on_c, 0, 69, 84
3, 20944, Note_off_c, 0, 62, 0
3, 21120, Note_off_c, 0, 69, 0
3, 21120, Note_on_c, 0, 74, 80
3, 21312, Note_on_c, 0, 69, 76
3, 21352, Note_off_c, 0, 74, 0
3, 21504, Note_off_c, 0, 69, 0
3, 21504, Note_on_c, 0, 74, 81
3, 21696, Note_on_c, 0, 69, 82
3, 21700, Note_off_c, 0, 74, 0
3, 21888, Note_on_c, 0, 74, 72
3, 21896, Note_off_c, 0, 69, 0
3, 22080, Note_off_c, 0, 74, 0
3, 22080, Note_on_c, 0, 81, 73
3, 22272, Note_off_c, 0, 81, 0
3, 22272, Note_on_c, 0, 74, 72
3, 22464, Note_on_c, 0, 81, 84
3, 22480, Note_off_c, 0, 74, 0
3, 22656, Note_off_c, 0, 81, 0
3, 22656, Note_on_c, 0, 86, 80
3, 22848, Note_on_c, 0, 81, 76
3, 22888, Note_off_c, 0, 86, 0
3, 23040, Note_off_c, 0, 81, 0
3, 23040, Note_on_c, 0, 74, 81
3, 23232, Note_on_c, 0, 69, 82
3, 23236, Note_off_c, 0, 74, 0
3, 23424, Note_on_c, 0, 74, 72
3, 23432, Note_off_c, 0, 69, 0
3, 23616, Note_off_c, 0, 74, 0
3, 23616, Note_on_c, 0, 81, 73
3, 23808, Note_off_c, 0, 81, 0
3, 23808, Note_on_c, 0, 74, 72
3, 24000, Note_on_c, 0, 81, 84
3, 24016, Note_off_c, 0, 74, 0
3, 24192, Note_off_c, 0, 81, 0
3, 24192, Note_on_c, 0, 86, 80
3, 24384, Note_on_c, 0, 81, 76
3, 24424, Note_off_c, 0, 86, 0
3, 24576, Note_off_c, 0, 81, 0
3, 24576, Note_on_c, 0, 62, 81
3, 24768, Note_on_c, 0, 69, 82
3, 24772, Note_off_c, 0, 62, 0
3, 24960, Note_on_c, 0, 62, 72
3, 24968, Note_off_c, 0, 69, 0
3, 25152, Note_off_c, 0, 62, 0
3, 25152, Note_on_c, 0, 69, 73
3, 25344, Note_off_c, 0, 69, 0
3, 25344, Note_on_c, 0, 62, 72
3, 25536, Note_on_c, 0, 69, 84
3, 25552, Note_off_c, 0, 62, 0
3, 25728, Note_off_c, 0, 69, 0
3, 25728, Note_on_c, 0, 74, 80
3, 25920, Note_on_c, 0, 69, 76
3, 25960, Note_off_c, 0, 74, 0
3, 26112, Note_off_c, 0, 69, 0
3, 26112, Note_on_c, 0, 62, 81
3, 26304, Note_on_c, 0, 69, 82
3, 26308, Note_off_c, 0, 62, 0
3, 26496, Note_on_c, 0, 62, 72
3, 26504, Note_off_c, 0, 69, 0
3, 26688, Note_off_c, 0, 62, 0
3, 26688, Note_on_c, 0, 69, 73
3, 26880, Note_off_c, 0, 69, 0
3, 26880, Note_on_c, 0, 62, 72
3, 27072, Note_on_c, 0, 69, 84
3, 27088, Note_off_c, 0, 62, 0
3, 27264, Note_off_c, 0, 69, 0
3, 27264, Note_on_c, 0, 74, 80
3, 27456, Note_on_c, 0, 69, 76
3, 27496, Note_off_c, 0, 74, 0
3, 27648, Note_off_c, 0, 69, 0
3, 27648, Note_on_c, 0, 62, 81
3, 27840, Note_on_c, 0, 69, 82
3, 27844, Note_off_c, 0, 62, 0
3, 28032, Note_on_c, 0, 62, 72
3, 28040, Note_off_c, 0, 69, 0
3, 28224, Note_off_c, 0, 62, 0
3, 28224, Note_on_c, 0, 69, 73
3, 28416, Note_off_c, 0, 69, 0
3, 28416, Note_on_c, 0, 62, 72
3, 28608, Note_on_c, 0, 69, 84
3, 28624, Note_off_c, 0, 62, 0
3, 28800, Note_off_c, 0, 69, 0
3, 28800, Note_on_c, 0, 74, 80
3, 28992, Note_on_c, 0, 69, 76
3, 29032, Note_off_c, 0, 74, 0
3, 29184, Note_off_c, 0, 69, 0
3, 29184, Note_on_c, 0, 62, 81
3, 29376, Note_on_c, 0, 69, 82
3, 29380, Note_off_c, 0, 62, 0
3, 29568, Note_on_c, 0, 62, 72
3, 29576, Note_off_c, 0, 69, 0
3, 29760, Note_off_c, 0, 62, 0
3, 29760, Note_on_c, 0, 69, 73
3, 29952, Note_off_c, 0, 69, 0
3, 29952, Note_on_c, 0, 62, 72
3, 30144, Note_on_c, 0, 69, 84
3, 30160, Note_off_c, 0, 62, 0
3, 30336, Note_off_c, 0, 69, 0
3, 30336, Note_on_c, 0, 74, 80
3, 30528, Note_on_c, 0, 69, 76
3, 30568, Note_off_c, 0, 74, 0
3, 30720, Note_off_c, 0, 69, 0
3, 30720, Note_on_c, 0, 62, 81
3, 30912, Note_on_c, 0, 69, 82
3, 30916, Note_off_c, 0, 62, 0
3, 31104, Note_on_c, 0, 62, 72
3, 31112, Note_off_c, 0, 69, 0
3, 31296, Note_off_c, 0, 62, 0
3, 31296, Note_on_c, 0, 69, 73
3, 31488, Note_off_c, 0, 69, 0
3, 31488, Note_on_c, 0, 62, 72
3, 31680, Note_on_c, 0, 69, 84
3, 31696, Note_off_c, 0, 62, 0
3, 31872, Note_off_c, 0, 69, 0
3, 31872, Note_on_c, 0, 74, 80
3, 32064, Note_on_c, 0, 67, 76
3, 32104, Note_off_c, 0, 74, 0
3, 32256, Note_off_c, 0, 67, 0
3, 32256, Note_on_c, 0, 62, 81
3, 32448, Note_on_c, 0, 69, 82
3, 32452, Note_off_c, 0, 62, 0
3, 32640, Note_on_c, 0, 62, 72
3, 32648, Note_off_c, 0, 69, 0
3, 32832, Note_off_c, 0, 62, 0
3, 32832, Note_on_c, 0, 69, 73
3, 33024, Note_off_c, 0, 69, 0
3, 33024, Note_on_c, 0, 62, 72
3, 33216, Note_on_c, 0, 69, 84
3, 33232, Note_off_c, 0, 62, 0
3, 33408, Note_off_c, 0, 69, 0
3, 33408, Note_on_c, 0, 74, 80
3, 33600, Note_on_c, 0, 67, 76
3, 33640, Note_off_c, 0, 74, 0
3, 33792, Note_off_c, 0, 67, 0
3, 33792, Note_on_c, 0, 62, 81
3, 33984, Note_on_c, 0, 69, 82
3, 33988, Note_off_c, 0, 62, 0
3, 34176, Note_on_c, 0, 62, 72
3, 34184, Note_off_c, 0, 69, 0
3, 34368, Note_off_c, 0, 62, 0
3, 34368, Note_on_c, 0, 69, 73
3, 34560, Note_off_c, 0, 69, 0
3, 34560, Note_on_c, 0, 62, 72
3, 34752, Note_on_c, 0, 69, 84
3, 34768, Note_off_c, 0, 62, 0
3, 34944, Note_off_c, 0, 69, 0
3, 34944, Note_on_c, 0, 74, 80
3, 35136, Note_on_c, 0, 69, 76
3, 35176, Note_off_c, 0, 74, 0
3, 35328, Note_off_c, 0, 69, 0
3, 35328, Note_on_c, 0, 62, 81
3, 35520, Note_on_c, 0, 69, 82
3, 35524, Note_off_c, 0, 62, 0
3, 35712, Note_on_c, 0, 62, 72
3, 35720, Note_off_c, 0, 69, 0
3, 35904, Note_off_c, 0, 62, 0
3, 35904, Note_on_c, 0, 69, 73
3, 36096, Note_off_c, 0, 69, 0
3, 36096, Note_on_c, 0, 62, 72
3, 36288, Note_on_c, 0, 69, 84
3, 36304, Note_off_c, 0, 62, 0
3, 36480, Note_off_c, 0, 69, 0
3, 36480, Note_on_c, 0, 74, 80
3, 36672, Note_on_c, 0, 69, 76
3, 36712, Note_off_c, 0, 74, 0
3, 36864, Note_off_c, 0, 69, 0
3, 36864, Note_on_c, 0, 62, 81
3, 37056, Note_on_c, 0, 69, 82
3, 37060, Note_off_c, 0, 62, 0
3, 37248, Note_on_c, 0, 62, 72
3, 37256, Note_off_c, 0, 69, 0
3, 37440, Note_off_c, 0, 62, 0
3, 37440, Note_on_c, 0, 69, 73
3, 37632, Note_off_c, 0, 69, 0
3, 37632, Note_on_c, 0, 62, 72
3, 37824, Note_on_c, 0, 69, 84
3, 37840, Note_off_c, 0, 62, 0
3, 38016, Note_off_c, 0, 69, 0
3, 38016, Note_on_c, 0, 74, 80
3, 38208, Note_on_c, 0, 69, 76
3, 38248, Note_off_c, 0, 74, 0
3, 38400, Note_off_c, 0, 69, 0
3, 38400, Note_on_c, 0, 62, 81
3, 38592, Note_on_c, 0, 69, 82
3, 38596, Note_off_c, 0, 62, 0
3, 38784, Note_on_c, 0, 62, 72
3, 38792, Note_off_c, 0, 69, 0
3, 38976, Note_off_c, 0, 62, 0
3, 38976, Note_on_c, 0, 69, 73
3, 39168, Note_off_c, 0, 69, 0
3, 39168, Note_on_c, 0, 62, 72
3, 39360, Note_on_c, 0, 69, 84
3, 39376, Note_off_c, 0, 62, 0
3, 39552, Note_off_c, 0, 69, 0
3, 39552, Note_on_c, 0, 74, 80
3, 39744, Note_on_c, 0, 69, 76
3, 39784, Note_off_c, 0, 74, 0
3, 39936, Note_off_c, 0, 69, 0
3, 39936, Note_on_c, 0, 62, 81
3, 40128, Note_on_c, 0, 69, 82
3, 40132, Note_off_c, 0, 62, 0
3, 40320, Note_on_c, 0, 62, 72
3, 40328, Note_off_c, 0, 69, 0
3, 40512, Note_off_c, 0, 62, 0
3, 40512, Note_on_c, 0, 69, 73
3, 40704, Note_off_c, 0, 69, 0
3, 40704, Note_on_c, 0, 62, 72
3, 40896, Note_on_c, 0, 69, 84
3, 40912, Note_off_c, 0, 62, 0
3, 41088, Note_off_c, 0, 69, 0
3, 41088, Note_on_c, 0, 74, 80
3, 41280, Note_on_c, 0, 69, 76
3, 41320, Note_off_c, 0, 74, 0
3, 41472, Note_off_c, 0, 69, 0
3, 41472, Note_on_c, 0, 62, 81
3, 41664, Note_on_c, 0, 69, 82
3, 41668, Note_off_c, 0, 62, 0
3, 41856, Note_on_c, 0, 62, 72
3, 41864, Note_off_c, 0, 69, 0
3, 42048, Note_off_c, 0, 62, 0
3, 42048, Note_on_c, 0, 69, 73
3, 42240, Note_off_c, 0, 69, 0
3, 42240, Note_on_c, 0, 62, 72
3, 42432, Note_on_c, 0, 69, 84
3, 42448, Note_off_c, 0, 62, 0
3, 42624, Note_off_c, 0, 69, 0
3, 42624, Note_on_c, 0, 74, 80
3, 42816, Note_on_c, 0, 69, 76
3, 42856, Note_off_c, 0, 74, 0
3, 43008, Note_off_c, 0, 69, 0
3, 43008, Note_on_c, 0, 62, 81
3, 43200, Note_on_c, 0, 69, 82
3, 43204, Note_off_c, 0, 62, 0
3, 43392, Note_on_c, 0, 62, 72
3, 43400, Note_off_c, 0, 69, 0
3, 43584, Note_off_c, 0, 62, 0
3, 43584, Note_on_c, 0, 69, 73
3, 43776, Note_off_c, 0, 69, 0
3, 43776, Note_on_c, 0, 62, 72
3, 43968, Note_on_c, 0, 69, 84
3, 43984, Note_off_c, 0, 62, 0
3, 44160, Note_off_c, 0, 69, 0
3, 44160, Note_on_c, 0, 74, 80
3, 44352, Note_on_c, 0, 67, 76
3, 44392, Note_off_c, 0, 74, 0
3, 44544, Note_off_c, 0, 67, 0
3, 44544, Note_on_c, 0, 62, 81
3, 44736, Note_on_c, 0, 69, 82
3, 44740, Note_off_c, 0, 62, 0
3, 44928, Note_on_c, 0, 62, 72
3, 44936, Note_off_c, 0, 69, 0
3, 45120, Note_off_c, 0, 62, 0
3, 45120, Note_on_c, 0, 69, 73
3, 45312, Note_off_c, 0, 69, 0
3, 45312, Note_on_c, 0, 62, 72
3, 45504, Note_on_c, 0, 69, 84
3, 45520, Note_off_c, 0, 62, 0
3, 45696, Note_off_c, 0, 69, 0
3, 45696, Note_on_c, 0, 74, 80
3, 45888, Note_on_c, 0, 67, 76
3, 45928, Note_off_c, 0, 74, 0
3, 46080, Note_off_c, 0, 67, 0
3, 49152, Note_on_c, 0, 62, 81
3, 49344, Note_on_c, 0, 69, 82
3, 49348, Note_off_c, 0, 62, 0
3, 49536, Note_on_c, 0, 62, 72
3, 49544, Note_off_c, 0, 69, 0
3, 49728, Note_off_c, 0, 62, 0
3, 49728, Note_on_c, 0, 69, 73
3, 49920, Note_off_c, 0, 69, 0
3, 49920, Note_on_c, 0, 62, 72
3, 50112, Note_on_c, 0, 69, 84
3, 50128, Note_off_c, 0, 62, 0
3, 50304, Note_off_c, 0, 69, 0
3, 50304, Note_on_c, 0, 74, 80
3, 50496, Note_on_c, 0, 69, 76
3, 50536, Note_off_c, 0, 74, 0
3, 50688, Note_off_c, 0, 69, 0
3, 50688, Note_on_c, 0, 62, 81
3, 50880, Note_on_c, 0, 69, 82
3, 50884, Note_off_c, 0, 62, 0
3, 51072, Note_on_c, 0, 62, 72
3, 51080, Note_off_c, 0, 69, 0
3, 51264, Note_off_c, 0, 62, 0
3, 51264, Note_on_c, 0, 69, 73
3, 51456, Note_off_c, 0, 69, 0
3, 51456, Note_on_c, 0, 62, 72
3, 51648, Note_on_c, 0, 69, 84
3, 51664, Note_off_c, 0, 62, 0
3, 51840, Note_off_c, 0, 69, 0
3, 51840, Note_on_c, 0, 74, 80
3, 52032, Note_on_c, 0, 69, 76
3, 52072, Note_off_c, 0, 74, 0
3, 52224, Note_off_c, 0, 69, 0
3, 52224, Note_on_c, 0, 62, 81
3, 52416, Note_on_c, 0, 69, 82
3, 52420, Note_off_c, 0, 62, 0
3, 52608, Note_on_c, 0, 62, 72
3, 52616, Note_off_c, 0, 69, 0
3, 52800, Note_off_c, 0, 62, 0
3, 52800, Note_on_c, 0, 69, 73
3, 52992, Note_off_c, 0, 69, 0
3, 52992, Note_on_c, 0, 62, 72
3, 53184, Note_on_c, 0, 69, 84
3, 53200, Note_off_c, 0, 62, 0
3, 53376, Note_off_c, 0, 69, 0
3, 53376, Note_on_c, 0, 74, 80
3, 53568, Note_on_c, 0, 69, 76
3, 53608, Note_off_c, 0, 74, 0
3, 53760, Note_off_c, 0, 69, 0
3, 53760, Note_on_c, 0, 62, 81
3, 53952, Note_on_c, 0, 69, 82
3, 53956, Note_off_c, 0, 62, 0
3, 54144, Note_on_c, 0, 62, 72
3, 54152, Note_off_c, 0, 69, 0
3, 54336, Note_off_c, 0, 62, 0
3, 54336, Note_on_c, 0, 69, 73
3, 54528, Note_off_c, 0, 69, 0
3, 54528, Note_on_c, 0, 62, 72
3, 54720, Note_on_c, 0, 69, 84
3, 54736, Note_off_c, 0, 62, 0
3, 54912, Note_off_c, 0, 69, 0
3, 54912, Note_on_c, 0, 74, 80
3, 55104, Note_on_c, 0, 69, 76
3, 55144, Note_off_c, 0, 74, 0
3, 55296, Note_off_c, 0, 69, 0
3, 55296, Note_on_c, 0, 62, 81
3, 55488, Note_on_c, 0, 69, 82
3, 55492, Note_off_c, 0, 62, 0
3, 55680, Note_on_c, 0, 62, 72
3, 55688, Note_off_c, 0, 69, 0
3, 55872, Note_off_c, 0, 62, 0
3, 55872, Note_on_c, 0, 69, 73
3, 56064, Note_off_c, 0, 69, 0
3, 56064, Note_on_c, 0, 62, 72
3, 56256, Note_on_c, 0, 69, 84
3, 56272, Note_off_c, 0, 62, 0
3, 56448, Note_off_c, 0, 69, 0
3, 56448, Note_on_c, 0, 74, 80
3, 56640, Note_on_c, 0, 69, 76
3, 56680, Note_off_c, 0, 74, 0
3, 56832, Note_off_c, 0, 69, 0
3, 56832, Note_on_c, 0, 62, 81
3, 57024, Note_on_c, 0, 69, 82
3, 57028, Note_off_c, 0, 62, 0
3, 57216, Note_on_c, 0, 62, 72
3, 57224, Note_off_c, 0, 69, 0
3, 57408, Note_off_c, 0, 62, 0
3, 57408, Note_on_c, 0, 69, 73
3, 57600, Note_off_c, 0, 69, 0
3, 57600, Note_on_c, 0, 62, 72
3, 57792, Note_on_c, 0, 69, 84
3, 57808, Note_off_c, 0, 62, 0
3, 57984, Note_off_c, 0, 69, 0
3, 57984, Note_on_c, 0, 74, 80
3, 58176, Note_on_c, 0, 69, 76
3, 58216, Note_off_c, 0, 74, 0
3, 58368, Note_off_c, 0, 69, 0
3, 58368, Note_on_c, 0, 69, 81
3, 58560, Note_on_c, 0, 74, 82
3, 58564, Note_off_c, 0, 69, 0
3, 58752, Note_on_c, 0, 69, 72
3, 58760, Note_off_c, 0, 74, 0
3, 58944, Note_off_c, 0, 69, 0
3, 58944, Note_on_c, 0, 81, 73
3, 59136, Note_off_c, 0, 81, 0
3, 59136, Note_on_c, 0, 69, 72
3, 59328, Note_on_c, 0, 81, 84
3, 59344, Note_off_c, 0, 69, 0
3, 59520, Note_off_c, 0, 81, 0
3, 59520, Note_on_c, 0, 69, 80
3, 59712, Note_on_c, 0, 74, 76
3, 59752, Note_off_c, 0, 69, 0
3, 59904, Note_off_c, 0, 74, 0
3, 59904, Note_on_c, 0, 69, 81
3, 60096, Note_on_c, 0, 74, 82
3, 60100, Note_off_c, 0, 69, 0
3, 60288, Note_on_c, 0, 69, 72
3, 60296, Note_off_c, 0, 74, 0
3, 60480, Note_off_c, 0, 69, 0
3, 60480, Note_on_c, 0, 81, 73
3, 60672, Note_off_c, 0, 81, 0
3, 60672, Note_on_c, 0, 69, 72
3, 60864, Note_on_c, 0, 81, 84
3, 60880, Note_off_c, 0, 69, 0
3, 61056, Note_off_c, 0, 81, 0
3, 61056, Note_on_c, 0, 69, 80
3, 61248, Note_on_c, 0, 74, 76
3, 61288, Note_off_c, 0, 69, 0
3, 61440, Note_off_c, 0, 74, 0
3, 61440, Note_on_c, 0, 57, 81
3, 61632, Note_on_c, 0, 64, 82
3, 61636, Note_off_c, 0, 57, 0
3, 61824, Note_on_c, 0, 57, 72
3, 61832, Note_off_c, 0, 64, 0
3, 62016, Note_off_c, 0, 57, 0
3, 62016, Note_on_c, 0, 64, 73
3, 62208, Note_off_c, 0, 64, 0
3, 62208, Note_on_c, 0, 57, 72
3, 62400, Note_on_c, 0, 64, 84
3, 62416, Note_off_c, 0, 57, 0
3, 62592, Note_off_c, 0, 64, 0
3, 62592, Note_on_c, 0, 69, 80
3, 62784, Note_on_c, 0, 64, 76
3, 62824, Note_off_c, 0, 69, 0
3, 62976, Note_off_c, 0, 64, 0
3, 62976, Note_on_c, 0, 57, 81
3, 63168, Note_on_c, 0, 64, 82
3, 63172, Note_off_c, 0, 57, 0
3, 63360, Note_on_c, 0, 57, 72
3, 63368, Note_off_c, 0, 64, 0
3, 63552, Note_off_c, 0, 57, 0
3, 63552, Note_on_c, 0, 64, 73
3, 63744, Note_off_c, 0, 64, 0
3, 63744, Note_on_c, 0, 57, 72
3, 63936, Note_on_c, 0, 64, 84
3, 63952, Note_off_c, 0, 57, 0
3, 64128, Note_off_c, 0, 64, 0
3, 64128, Note_on_c, 0, 69, 80
3, 64320, Note_on_c, 0, 64, 76
3, 64360, Note_off_c, 0, 69, 0
3, 64512, Note_off_c, 0, 64, 0
3, 64512, Note_on_c, 0, 57, 81
3, 64704, Note_on_c, 0, 64, 82
3, 64708, Note_off_c, 0, 57, 0
3, 64896, Note_on_c, 0, 57, 72
3, 64904, Note_off_c, 0, 64, 0
3, 65088, Note_off_c, 0, 57, 0
3, 65088, Note_on_c, 0, 64, 73
3, 65280, Note_off_c, 0, 64, 0
3, 65280, Note_on_c, 0, 57, 72
3, 65472, Note_on_c, 0, 64, 84
3, 65488, Note_off_c, 0, 57, 0
3, 65664, Note_off_c, 0, 64, 0
3, 65664, Note_on_c, 0, 69, 80
3, 65856, Note_on_c, 0, 64, 76
3, 65896, Note_off_c, 0, 69, 0
3, 66048, Note_off_c, 0, 64, 0
3, 66048, Note_on_c, 0, 57, 81
3, 66240, Note_on_c, 0, 64, 82
3, 66244, Note_off_c, 0, 57, 0
3, 66432, Note_on_c, 0, 57, 72
3, 66440, Note_off_c, 0, 64, 0
3, 66624, Note_off_c, 0, 57, 0
3, 66624, Note_on_c, 0, 64, 73
3, 66816, Note_off_c, 0, 64, 0
3, 66816, Note_on_c, 0, 57, 72
3, 67008, Note_on_c, 0, 64, 84
3, 67024, Note_off_c, 0, 57, 0
3, 67200, Note_off_c, 0, 64, 0
3, 67200, Note_on_c, 0, 69, 80
3, 67392, Note_on_c, 0, 64, 76
3, 67432, Note_off_c, 0, 69, 0
3, 67584, Note_off_c, 0, 64, 0
3, 67584, Note_on_c, 0, 62, 81
3, 67776, Note_on_c, 0, 57, 82
3, 67780, Note_off_c, 0, 62, 0
3, 67968, Note_on_c, 0, 62, 72
3, 67976, Note_off_c, 0, 57, 0
3, 68160, Note_off_c, 0, 62, 0
3, 68160, Note_on_c, 0, 69, 73
3, 68352, Note_off_c, 0, 69, 0
3, 68352, Note_on_c, 0, 62, 72
3, 68544, Note_on_c, 0, 69, 84
3, 68560, Note_off_c, 0, 62, 0
3, 68736, Note_off_c, 0, 69, 0
3, 68736, Note_on_c, 0, 74, 80
3, 68928, Note_on_c, 0, 69, 76
3, 68968, Note_off_c, 0, 74, 0
3, 69120, Note_off_c, 0, 69, 0
3, 69120, Note_on_c, 0, 62, 81
3, 69312, Note_on_c, 0, 57, 82
3, 69316, Note_off_c, 0, 62, 0
3, 69504, Note_on_c, 0, 62, 72
3, 69512, Note_off_c, 0, 57, 0
3, 69696, Note_off_c, 0, 62, 0
3, 69696, Note_on_c, 0, 69, 73
3, 69888, Note_off_c, 0, 69, 0
3, 69888, Note_on_c, 0, 62, 72
3, 70080, Note_on_c, 0, 69, 84
3, 70096, Note_off_c, 0, 62, 0
3, 70272, Note_off_c, 0, 69, 0
3, 70272, Note_on_c, 0, 74, 80
3, 70464, Note_on_c, 0, 69, 76
3, 70504, Note_off_c, 0, 74, 0
3, 70656, Note_off_c, 0, 69, 0
3, 70656, Note_on_c, 0, 74, 81
3, 70848, Note_on_c, 0, 69, 82
3, 70852, Note_off_c, 0, 74, 0
3, 71040, Note_on_c, 0, 74, 72
3, 71048, Note_off_c, 0, 69, 0
3, 71232, Note_off_c, 0, 74, 0
3, 71232, Note_on_c, 0, 81, 73
3, 71424, Note_off_c, 0, 81, 0
3, 71424, Note_on_c, 0, 74, 72
3, 71616, Note_on_c, 0, 81, 84
3, 71632, Note_off_c, 0, 74, 0
3, 71808, Note_off_c, 0, 81, 0
3, 71808, Note_on_c, 0, 86, 80
3, 72000, Note_on_c, 0, 81, 76
3, 72040, Note_off_c, 0, 86, 0
3, 72192, Note_off_c, 0, 81, 0
3, 72192, Note_on_c, 0, 74, 81
3, 72384, Note_on_c, 0, 69, 82
3, 72388, Note_off_c, 0, 74, 0
3, 72576, Note_on_c, 0, 74, 72
3, 72584, Note_off_c, 0, 69, 0
3, 72768, Note_off_c, 0, 74, 0
3, 72768, Note_on_c, 0, 81, 73
3, 72960, Note_off_c, 0, 81, 0
3, 72960, Note_on_c, 0, 74, 72
3, 73152, Note_on_c, 0, 81, 84
3, 73168, Note_off_c, 0, 74, 0
3, 73344, Note_off_c, 0, 81, 0
3, 73344, Note_on_c, 0, 86, 80
3, 73536, Note_on_c, 0, 81, 76
3, 73576, Note_off_c, 0, 86, 0
3, 73728, Note_off_c, 0, 81, 0
3, 73728, Note_on_c, 0, 57, 81
3, 73920, Note_on_c, 0, 64, 82
3, 73924, Note_off_c, 0, 57, 0
3, 74112, Note_on_c, 0, 57, 72
3, 74120, Note_off_c, 0, 64, 0
3, 74304, Note_off_c, 0, 57, 0
3, 74304, Note_on_c, 0, 64, 73
3, 74496, Note_off_c, 0, 64, 0
3, 74496, Note_on_c, 0, 57, 72
3, 74688, Note_on_c, 0, 64, 84
3, 74704, Note_off_c, 0, 57, 0
3, 74880, Note_off_c, 0, 64, 0
3, 74880, Note_on_c, 0, 69, 80
3, 75072, Note_on_c, 0, 64, 76
3, 75112, Note_off_c, 0, 69, 0
3, 75264, Note_off_c, 0, 64, 0
3, 75264, Note_on_c, 0, 57, 81
3, 75456, Note_on_c, 0, 64, 82
3, 75460, Note_off_c, 0, 57, 0
3, 75648, Note_on_c, 0, 57, 72
3, 75656, Note_off_c, 0, 64, 0
3, 75840, Note_off_c, 0, 57, 0
3, 75840, Note_on_c, 0, 64, 73
3, 76032, Note_off_c, 0, 64, 0
3, 76032, Note_on_c, 0, 57, 72
3, 76224, Note_on_c, 0, 64, 84
3, 76240, Note_off_c, 0, 57, 0
3, 76416, Note_off_c, 0, 64, 0
3, 76416, Note_on_c, 0, 69, 80
3, 76608, Note_on_c, 0, 64, 76
3, 76648, Note_off_c, 0, 69, 0
3, 76800, Note_off_c, 0, 64, 0
3, 76800, Note_on_c, 0, 57, 81
3, 76992, Note_on_c, 0, 64, 82
3, 76996, Note_off_c, 0, 57, 0
3, 77184, Note_on_c, 0, 57, 72
3, 77192, Note_off_c, 0, 64, 0
3, 77376, Note_off_c, 0, 57, 0
3, 77376, Note_on_c, 0, 64, 73
3, 77568, Note_off_c, 0, 64, 0
3, 77568, Note_on_c, 0, 57, 72
3, 77760, Note_on_c, 0, 64, 84
3, 77776, Note_off_c, 0, 57, 0
3, 77952, Note_off_c, 0, 64, 0
3, 77952, Note_on_c, 0, 69, 80
3, 78144, Note_on_c, 0, 64, 76
3, 78184, Note_off_c, 0, 69, 0
3, 78336, Note_off_c, 0, 64, 0
3, 78336, Note_on_c, 0, 57, 81
3, 78528, Note_on_c, 0, 64, 82
3, 78532, Note_off_c, 0, 57, 0
3, 78720, Note_on_c, 0, 57, 72
3, 78728, Note_off_c, 0, 64, 0
3, 78912, Note_off_c, 0, 57, 0
3, 78912, Note_on_c, 0, 64, 73
3, 79104, Note_off_c, 0, 64, 0
3, 79104, Note_on_c, 0, 57, 72
3, 79296, Note_on_c, 0, 64, 84
3, 79312, Note_off_c, 0, 57, 0
3, 79488, Note_off_c, 0, 64, 0
3, 79488, Note_on_c, 0, 69, 80
3, 79680, Note_on_c, 0, 64, 76
3, 79720, Note_off_c, 0, 69, 0
3, 79872, Note_off_c, 0, 64, 0
3, 79872, Note_on_c, 0, 62, 81
3, 80064, Note_on_c, 0, 57, 82
3, 80068, Note_off_c, 0, 62, 0
3, 80256, Note_on_c, 0, 62, 72
3, 80264, Note_off_c, 0, 57, 0
3, 80448, Note_off_c, 0, 62, 0
3, 80448, Note_on_c, 0, 69, 73
3, 80640, Note_off_c, 0, 69, 0
3, 80640, Note_on_c, 0, 62, 72
3, 80832, Note_on_c, 0, 69, 84
3, 80848, Note_off_c, 0, 62, 0
3, 81024, Note_off_c, 0, 69, 0
3, 81024, Note_on_c, 0, 74, 80
3, 81216, Note_on_c, 0, 69, 76
3, 81256, Note_off_c, 0, 74, 0
3, 81408, Note_off_c, 0, 69, 0
3, 81408, Note_on_c, 0, 62, 81
3, 81600, Note_on_c, 0, 57, 82
3, 81604, Note_off_c, 0, 62, 0
3, 81792, Note_on_c, 0, 62, 72
3, 81800, Note_off_c, 0, 57, 0
3, 81984, Note_off_c, 0, 62, 0
3, 81984, Note_on_c, 0, 69, 73
3, 82176, Note_off_c, 0, 69, 0
3, 82176, Note_on_c, 0, 62, 72
3, 82368, Note_on_c, 0, 69, 84
3, 82384, Note_off_c, 0, 62, 0
3, 82560, Note_off_c, 0, 69, 0
3, 82560, Note_on_c, 0, 74, 80
3, 82752, Note_on_c, 0, 69, 76
3, 82792, Note_off_c, 0, 74, 0
3, 82944, Note_off_c, 0, 69, 0
3, 82944, Note_on_c, 0, 74, 81
3, 83136, Note_on_c, 0, 69, 82
3, 83140, Note_off_c, 0, 74, 0
3, 83328, Note_on_c, 0, 74, 72
3, 83336, Note_off_c, 0, 69, 0
3, 83520, Note_off_c, 0, 74, 0
3, 83520, Note_on_c, 0, 81, 73
3, 83712, Note_off_c, 0, 81, 0
3, 83712, Note_on_c, 0, 74, 72
3, 83904, Note_on_c, 0, 81, 84
3, 83920, Note_off_c, 0, 74, 0
3, 84096, Note_off_c, 0, 81, 0
3, 84096, Note_on_c, 0, 86, 80
3, 84288, Note_on_c, 0, 81, 76
3, 84328, Note_off_c, 0, 86, 0
3, 84480, Note_off_c, 0, 81, 0
3, 84480, Note_on_c, 0, 74, 81
3, 84672, Note_on_c, 0, 69, 82
3, 84676, Note_off_c, 0, 74, 0
3, 84864, Note_on_c, 0, 74, 72
3, 84872, Note_off_c, 0, 69, 0
3, 85056, Note_off_c, 0, 74, 0
3, 85056, Note_on_c, 0, 81, 73
3, 85248, Note_off_c, 0, 81, 0
3, 85248, Note_on_c, 0, 74, 72
3, 85440, Note_on_c, 0, 81, 84
3, 85456, Note_off_c, 0, 74, 0
3, 85632, Note_off_c, 0, 81, 0
3, 85632, Note_on_c, 0, 86, 80
3, 85824, Note_on_c, 0, 81, 76
3, 85864, Note_off_c, 0, 86, 0
3, 86016, Note_off_c, 0, 81, 0
3, 86016, Note_on_c, 0, 62, 81
3, 86208, Note_on_c, 0, 69, 82
3, 86212, Note_off_c, 0, 62, 0
3, 86400, Note_on_c, 0, 62, 72
3, 86408, Note_off_c, 0, 69, 0
3, 86592, Note_off_c, 0, 62, 0
3, 86592, Note_on_c, 0, 69, 73
3, 86784, Note_off_c, 0, 69, 0
3, 86784, Note_on_c, 0, 62, 72
3, 86976, Note_on_c, 0, 69, 84
3, 86992, Note_off_c, 0, 62, 0
3, 87168, Note_off_c, 0, 69, 0
3, 87168, Note_on_c, 0, 74, 80
3, 87360, Note_on_c, 0, 69, 76
3, 87400, Note_off_c, 0, 74, 0
3, 87552, Note_off_c, 0, 69, 0
3, 87552, Note_on_c, 0, 62, 81
3, 87744, Note_on_c, 0, 69, 82
3, 87748, Note_off_c, 0, 62, 0
3, 87936, Note_on_c, 0, 62, 72
3, 87944, Note_off_c, 0, 69, 0
3, 88128, Note_off_c, 0, 62, 0
3, 88128, Note_on_c, 0, 69, 73
3, 88320, Note_off_c, 0, 69, 0
3, 88320, Note_on_c, 0, 62, 72
3, 88512, Note_on_c, 0, 69, 84
3, 88528, Note_off_c, 0, 62, 0
3, 88704, Note_off_c, 0, 69, 0
3, 88704, Note_on_c, 0, 74, 80
3, 88896, Note_on_c, 0, 69, 76
3, 88936, Note_off_c, 0, 74, 0
3, 89088, Note_off_c, 0, 69, 0
3, 89088, Note_on_c, 0, 62, 81
3, 89280, Note_on_c, 0, 69, 82
3, 89284, Note_off_c, 0, 62, 0
3, 89472, Note_on_c, 0, 62, 72
3, 89480, Note_off_c, 0, 69, 0
3, 89664, Note_off_c, 0, 62, 0
3, 89664, Note_on_c, 0, 69, 73
3, 89856, Note_off_c, 0, 69, 0
3, 89856, Note_on_c, 0, 62, 72
3, 90048, Note_on_c, 0, 69, 84
3, 90064, Note_off_c, 0, 62, 0
3, 90240, Note_off_c, 0, 69, 0
3, 90240, Note_on_c, 0, 74, 80
3, 90432, Note_on_c, 0, 69, 76
3, 90472, Note_off_c, 0, 74, 0
3, 90624, Note_off_c, 0, 69, 0
3, 90624, Note_on_c, 0, 62, 81
3, 90816, Note_on_c, 0, 69, 82
3, 90820, Note_off_c, 0, 62, 0
3, 91008, Note_on_c, 0, 62, 72
3, 91016, Note_off_c, 0, 69, 0
3, 91200, Note_off_c, 0, 62, 0
3, 91200, Note_on_c, 0, 69, 73
3, 91392, Note_off_c, 0, 69, 0
3, 91392, Note_on_c, 0, 62, 72
3, 91584, Note_on_c, 0, 69, 84
3, 91600, Note_off_c, 0, 62, 0
3, 91776, Note_off_c, 0, 69, 0
3, 91776, Note_on_c, 0, 74, 80
3, 91968, Note_on_c, 0, 69, 76
3, 92008, Note_off_c, 0, 74, 0
3, 92160, Note_off_c, 0, 69, 0
3, 92160, Note_on_c, 0, 62, 81
3, 92352, Note_on_c, 0, 69, 82
3, 92356, Note_off_c, 0, 62, 0
3, 92544, Note_on_c, 0, 62, 72
3, 92552, Note_off_c, 0, 69, 0
3, 92736, Note_off_c, 0, 62, 0
3, 92736, Note_on_c, 0, 69, 73
3, 92928, Note_off_c, 0, 69, 0
3, 92928, Note_on_c, 0, 62, 72
3, 93120, Note_on_c, 0, 69, 84
3, 93136, Note_off_c, 0, 62, 0
3, 93312, Note_off_c, 0, 69, 0
3, 93312, Note_on_c, 0, 74, 80
3, 93504, Note_on_c, 0, 67, 76
3, 93544, Note_off_c, 0, 74, 0
3, 93696, Note_off_c, 0, 67, 0
3, 93696, Note_on_c, 0, 62, 81
3, 93888, Note_on_c, 0, 69, 82
3, 93892, Note_off_c, 0, 62, 0
3, 94080, Note_on_c, 0, 62, 72
3, 94088, Note_off_c, 0, 69, 0
3, 94272, Note_off_c, 0, 62, 0
3, 94272, Note_on_c, 0, 69, 73
3, 94464, Note_off_c, 0, 69, 0
3, 94464, Note_on_c, 0, 62, 72
3, 94656, Note_on_c, 0, 69, 84
3, 94672, Note_off_c, 0, 62, 0
3, 94848, Note_off_c, 0, 69, 0
3, 94848, Note_on_c, 0, 74, 80
3, 95040, Note_on_c, 0, 67, 76
3, 95080, Note_off_c, 0, 74, 0
3, 95232, Note_off_c, 0, 67, 0
3, 95232, Note_on_c, 0, 62, 81
3, 95424, Note_on_c, 0, 69, 82
3, 95428, Note_off_c, 0, 62, 0
3, 95616, Note_on_c, 0, 62, 72
3, 95624, Note_off_c, 0, 69, 0
3, 95808, Note_off_c, 0, 62, 0
3, 95808, Note_on_c, 0, 69, 73
3, 96000, Note_off_c, 0, 69, 0
3, 96000, Note_on_c, 0, 62, 72
3, 96192, Note_on_c, 0, 69, 84
3, 96208, Note_off_c, 0, 62, 0
3, 96384, Note_off_c, 0, 69, 0
3, 96384, Note_on_c, 0, 74, 80
3, 96576, Note_on_c, 0, 69, 76
3, 96616, Note_off_c, 0, 74, 0
3, 96768, Note_off_c, 0, 69, 0
3, 96768, Note_on_c, 0, 62, 81
3, 96960, Note_on_c, 0, 69, 82
3, 96964, Note_off_c, 0, 62, 0
3, 97152, Note_on_c, 0, 62, 72
3, 97160, Note_off_c, 0, 69, 0
3, 97344, Note_off_c, 0, 62, 0
3, 97344, Note_on_c, 0, 69, 73
3, 97536, Note_off_c, 0, 69, 0
3, 97536, Note_on_c, 0, 62, 72
3, 97728, Note_on_c, 0, 69, 84
3, 97744, Note_off_c, 0, 62, 0
3, 97920, Note_off_c, 0, 69, 0
3, 97920, Note_on_c, 0, 74, 80
3, 98112, Note_on_c, 0, 69, 76
3, 98152, Note_off_c, 0, 74, 0
3, 98304, Note_off_c, 0, 69, 0
3, 98304, Note_on_c, 0, 62, 81
3, 98496, Note_on_c, 0, 69, 82
3, 98500, Note_off_c, 0, 62, 0
3, 98688, Note_on_c, 0, 62, 72
3, 98696, Note_off_c, 0, 69, 0
3, 98880, Note_off_c, 0, 62, 0
3, 98880, Note_on_c, 0, 69, 73
3, 99072, Note_off_c, 0, 69, 0
3, 99072, Note_on_c, 0, 62, 72
3, 99264, Note_on_c, 0, 69, 84
3, 99280, Note_off_c, 0, 62, 0
3, 99456, Note_off_c, 0, 69, 0
3, 99456, Note_on_c, 0, 74, 80
3, 99648, Note_on_c, 0, 69, 76
3, 99688, Note_off_c, 0, 74, 0
3, 99840, Note_off_c, 0, 69, 0
3, 99840, Note_on_c, 0, 62, 81
3, 100032, Note_on_c, 0, 69, 82
3, 100036, Note_off_c, 0, 62, 0
3, 100224, Note_on_c, 0, 62, 72
3, 100232, Note_off_c, 0, 69, 0
3, 100416, Note_off_c, 0, 62, 0
3, 100416, Note_on_c, 0, 69, 73
3, 100608, Note_off_c, 0, 69, 0
3, 100608, Note_on_c, 0, 62, 72
3, 100800, Note_on_c, 0, 69, 84
3, 100816, Note_off_c, 0, 62, 0
3, 100992, Note_off_c, 0, 69, 0
3, 100992, Note_on_c, 0, 74, 80
3, 101184, Note_on_c, 0, 69, 76
3, 101224, Note_off_c, 0, 74, 0
3, 101376, Note_off_c, 0, 69, 0
3, 101376, Note_on_c, 0, 62, 81
3, 101568, Note_on_c, 0, 69, 82
3, 101572, Note_off_c, 0, 62, 0
3, 101760, Note_on_c, 0, 62, 72
3, 101768, Note_off_c, 0, 69, 0
3, 101952, Note_off_c, 0, 62, 0
3, 101952, Note_on_c, 0, 69, 73
3, 102144, Note_off_c, 0, 69, 0
3, 102144, Note_on_c, 0, 62, 72
3, 102336, Note_on_c, 0, 69, 84
3, 102352, Note_off_c, 0, 62, 0
3, 102528, Note_off_c, 0, 69, 0
3, 102528, Note_on_c, 0, 74, 80
3, 102720, Note_on_c, 0, 69, 76
3, 102760, Note_off_c, 0, 74, 0
3, 102912, Note_off_c, 0, 69, 0
3, 102912, Note_on_c, 0, 62, 81
3, 103104, Note_on_c, 0, 69, 82
3, 103108, Note_off_c, 0, 62, 0
3, 103296, Note_on_c, 0, 62, 72
3, 103304, Note_off_c, 0, 69, 0
3, 103488, Note_off_c, 0, 62, 0
3, 103488, Note_on_c, 0, 69, 73
3, 103680, Note_off_c, 0, 69, 0
3, 103680, Note_on_c, 0, 62, 72
3, 103872, Note_on_c, 0, 69, 84
3, 103888, Note_off_c, 0, 62, 0
3, 104064, Note_off_c, 0, 69, 0
3, 104064, Note_on_c, 0, 74, 80
3, 104256, Note_on_c, 0, 69, 76
3, 104296, Note_off_c, 0, 74, 0
3, 104448, Note_off_c, 0, 69, 0
3, 104448, Note_on_c, 0, 62, 81
3, 104640, Note_on_c, 0, 69, 82
3, 104644, Note_off_c, 0, 62, 0
3, 104832, Note_on_c, 0, 62, 72
3, 104840, Note_off_c, 0, 69, 0
3, 105024, Note_off_c, 0, 62, 0
3, 105024, Note_on_c, 0, 69, 73
3, 105216, Note_off_c, 0, 69, 0
3, 105216, Note_on_c, 0, 62, 72
3, 105408, Note_on_c, 0, 69, 84
3, 105424, Note_off_c, 0, 62, 0
3, 105600, Note_off_c, 0, 69, 0
3, 105600, Note_on_c, 0, 74, 80
3, 105792, Note_on_c, 0, 67, 76
3, 105832, Note_off_c, 0, 74, 0
3, 105984, Note_off_c, 0, 67, 0
3, 105984, Note_on_c, 0, 62, 81
3, 106176, Note_on_c, 0, 69, 82
3, 106180, Note_off_c, 0, 62, 0
3, 106368, Note_on_c, 0, 62, 72
3, 106376, Note_off_c, 0, 69, 0
3, 106560, Note_off_c, 0, 62, 0
3, 106560, Note_on_c, 0, 69, 73
3, 106752, Note_off_c, 0, 69, 0
3, 106752, Note_on_c, 0, 62, 72
3, 106944, Note_on_c, 0, 69, 84
3, 106960, Note_off_c, 0, 62, 0
3, 107136, Note_off_c, 0, 69, 0
3, 107136, Note_on_c, 0, 74, 80
3, 107328, Note_on_c, 0, 67, 76
3, 107368, Note_off_c, 0, 74, 0
3, 107520, Note_off_c, 0, 67, 0
3, 110592, Note_on_c, 0, 62, 81
3, 110784, Note_on_c, 0, 69, 82
3, 110788, Note_off_c, 0, 62, 0
3, 110976, Note_on_c, 0, 62, 72
3, 110984, Note_off_c, 0, 69, 0
3, 111168, Note_off_c, 0, 62, 0
3, 111168, Note_on_c, 0, 69, 73
3, 111360, Note_off_c, 0, 69, 0
3, 111360, Note_on_c, 0, 62, 72
3, 111552, Note_on_c, 0, 69, 84
3, 111568, Note_off_c, 0, 62, 0
3, 111744, Note_off_c, 0, 69, 0
3, 111744, Note_on_c, 0, 74, 80
3, 111936, Note_on_c, 0, 69, 76
3, 111976, Note_off_c, 0, 74, 0
3, 112128, Note_off_c, 0, 69, 0
3, 112128, Note_on_c, 0, 62, 81
3, 112320, Note_on_c, 0, 69, 82
3, 112324, Note_off_c, 0, 62, 0
3, 112512, Note_on_c, 0, 62, 72
3, 112520, Note_off_c, 0, 69, 0
3, 112704, Note_off_c, 0, 62, 0
3, 112704, Note_on_c, 0, 69, 73
3, 112896, Note_off_c, 0, 69, 0
3, 112896, Note_on_c, 0, 62, 72
3, 113088, Note_on_c, 0, 69, 84
3, 113104, Note_off_c, 0, 62, 0
3, 113280, Note_off_c, 0, 69, 0
3, 113280, Note_on_c, 0, 74, 80
3, 113472, Note_on_c, 0, 69, 76
3, 113512, Note_off_c, 0, 74, 0
3, 113664, Note_off_c, 0, 69, 0
3, 113664, Note_on_c, 0, 62, 81
3, 113856, Note_on_c, 0, 69, 82
3, 113860, Note_off_c, 0, 62, 0
3, 114048, Note_on_c, 0, 62, 72
3, 114056, Note_off_c, 0, 69, 0
3, 114240, Note_off_c, 0, 62, 0
3, 114240, Note_on_c, 0, 69, 73
3, 114432, Note_off_c, 0, 69, 0
3, 114432, Note_on_c, 0, 62, 72
3, 114624, Note_on_c, 0, 69, 84
3, 114640, Note_off_c, 0, 62, 0
3, 114816, Note_off_c, 0, 69, 0
3, 114816, Note_on_c, 0, 74, 80
3, 115008, Note_on_c, 0, 69, 76
3, 115048, Note_off_c, 0, 74, 0
3, 115200, Note_off_c, 0, 69, 0
3, 115200, Note_on_c, 0, 62, 81
3, 115392, Note_on_c, 0, 69, 82
3, 115396, Note_off_c, 0, 62, 0
3, 115584, Note_on_c, 0, 62, 72
3, 115592, Note_off_c, 0, 69, 0
3, 115776, Note_off_c, 0, 62, 0
3, 115776, Note_on_c, 0, 69, 73
3, 115968, Note_off_c, 0, 69, 0
3, 115968, Note_on_c, 0, 62, 72
3, 116160, Note_on_c, 0, 69, 84
3, 116176, Note_off_c, 0, 62, 0
3, 116352, Note_off_c, 0, 69, 0
3, 116352, Note_on_c, 0, 74, 80
3, 116544, Note_on_c, 0, 69, 76
3, 116584, Note_off_c, 0, 74, 0
3, 116736, Note_off_c, 0, 69, 0
3, 116736, Note_on_c, 0, 62, 81
3, 116928, Note_on_c, 0, 69, 82
3, 116932, Note_off_c, 0, 62, 0
3, 117120, Note_on_c, 0, 62, 72
3, 117128, Note_off_c, 0, 69, 0
3, 117312, Note_off_c, 0, 62, 0
3, 117312, Note_on_c, 0, 69, 73
3, 117504, Note_off_c, 0, 69, 0
3, 117504, Note_on_c, 0, 62, 72
3, 117696, Note_on_c, 0, 69, 84
3, 117712, Note_off_c, 0, 62, 0
3, 117888, Note_off_c, 0, 69, 0
3, 117888, Note_on_c, 0, 74, 80
3, 118080, Note_on_c, 0, 69, 76
3, 118120, Note_off_c, 0, 74, 0
3, 118272, Note_off_c, 0, 69, 0
3, 118272, Note_on_c, 0, 62, 81
3, 118464, Note_on_c, 0, 69, 82
3, 118468, Note_off_c, 0, 62, 0
3, 118656, Note_on_c, 0, 62, 72
3, 118664, Note_off_c, 0, 69, 0
3, 118848, Note_off_c, 0, 62, 0
3, 118848, Note_on_c, 0, 69, 73
3, 119040, Note_off_c, 0, 69, 0
3, 119040, Note_on_c, 0, 62, 72
3, 119232, Note_on_c, 0, 69, 84
3, 119248, Note_off_c, 0, 62, 0
3, 119424, Note_off_c, 0, 69, 0
3, 119424, Note_on_c, 0, 74, 80
3, 119616, Note_on_c, 0, 69, 76
3, 119656, Note_off_c, 0, 74, 0
3, 119808, Note_off_c, 0, 69, 0
3, 119808, Note_on_c, 0, 69, 81
3, 120000, Note_on_c, 0, 74, 82
3, 120004, Note_off_c, 0, 69, 0
3, 120192, Note_on_c, 0, 69, 72
3, 120200, Note_off_c, 0, 74, 0
3, 120384, Note_off_c, 0, 69, 0
3, 120384, Note_on_c, 0, 81, 73
3, 120576, Note_off_c, 0, 81, 0
3, 120576, Note_on_c, 0, 69, 72
3, 120768, Note_on_c, 0, 81, 84
3, 120784, Note_off_c, 0, 69, 0
3, 120960, Note_off_c, 0, 81, 0
3, 120960, Note_on_c, 0, 69, 80
3, 121152, Note_on_c, 0, 74, 76
3, 121192, Note_off_c, 0, 69, 0
3, 121344, Note_off_c, 0, 74, 0
3, 121344, Note_on_c, 0, 69, 81
3, 121536, Note_on_c, 0, 74, 82
3, 121540, Note_off_c, 0, 69, 0
3, 121728, Note_on_c, 0, 69, 72
3, 121736, Note_off_c, 0, 74, 0
3, 121920, Note_off_c, 0, 69, 0
3, 121920, Note_on_c, 0, 81, 73
3, 122112, Note_off_c, 0, 81, 0
3, 122112, Note_on_c, 0, 69, 72
3, 122304, Note_on_c, 0, 81, 84
3, 122320, Note_off_c, 0, 69, 0
3, 122496, Note_off_c, 0, 81, 0
3, 122496, Note_on_c, 0, 69, 80
3, 122688, Note_on_c, 0, 74, 76
3, 122728, Note_off_c, 0, 69, 0
3, 122880, Note_off_c, 0, 74, 0
3, 122880, Note_on_c, 0, 62, 81
3, 123072, Note_on_c, 0, 69, 82
3, 123076, Note_off_c, 0, 62, 0
3, 123264, Note_on_c, 0, 62, 72
3, 123272, Note_off_c, 0, 69, 0
3, 123456, Note_off_c, 0, 62, 0
3, 123456, Note_on_c, 0, 69, 73
3, 123648, Note_off_c, 0, 69, 0
3, 123648, Note_on_c, 0, 62, 72
3, 123840, Note_on_c, 0, 69, 84
3, 123856, Note_off_c, 0, 62, 0
3, 124032, Note_off_c, 0, 69, 0
3, 124032, Note_on_c, 0, 74, 80
3, 124224, Note_on_c, 0, 69, 76
3, 124264, Note_off_c, 0, 74, 0
3, 124416, Note_off_c, 0, 69, 0
3, 124416, Note_on_c, 0, 62, 81
3, 124608, Note_on_c, 0, 69, 82
3, 124612, Note_off_c, 0, 62, 0
3, 124800, Note_on_c, 0, 62, 72
3, 124808, Note_off_c, 0, 69, 0
3, 124992, Note_off_c, 0, 62, 0
3, 124992, Note_on_c, 0, 69, 73
3, 125184, Note_off_c, 0, 69, 0
3, 125184, Note_on_c, 0, 62, 72
3, 125376, Note_on_c, 0, 69, 84
3, 125392, Note_off_c, 0, 62, 0
3, 125568, Note_off_c, 0, 69, 0
3, 125568, Note_on_c, 0, 74, 80
3, 125760, Note_on_c, 0, 69, 76
3, 125800, Note_off_c, 0, 74, 0
3, 125952, Note_off_c, 0, 69, 0
3, 125952, Note_on_c, 0, 62, 81
3, 126144, Note_on_c, 0, 69, 82
3, 126148, Note_off_c, 0, 62, 0
3, 126336, Note_on_c, 0, 62, 72
3, 126344, Note_off_c, 0, 69, 0
3, 126528, Note_off_c, 0, 62, 0
3, 126528, Note_on_c, 0, 69, 73
3, 126720, Note_off_c, 0, 69, 0
3, 126720, Note_on_c, 0, 62, 72
3, 126912, Note_on_c, 0, 69, 84
3, 126928, Note_off_c, 0, 62, 0
3, 127104, Note_off_c, 0, 69, 0
3, 127104, Note_on_c, 0, 74, 80
3, 127296, Note_on_c, 0, 69, 76
3, 127336, Note_off_c, 0, 74, 0
3, 127488, Note_off_c, 0, 69, 0
3, 127488, Note_on_c, 0, 62, 81
3, 127680, Note_on_c, 0, 69, 82
3, 127684, Note_off_c, 0, 62, 0
3, 127872, Note_on_c, 0, 62, 72
3, 127880, Note_off_c, 0, 69, 0
3, 128064, Note_off_c, 0, 62, 0
3, 128064, Note_on_c, 0, 69, 73
3, 128256, Note_off_c, 0, 69, 0
3, 128256, Note_on_c, 0, 62, 72
3, 128448, Note_on_c, 0, 69, 84
3, 128464, Note_off_c, 0, 62, 0
3, 128640, Note_off_c, 0, 69, 0
3, 128640, Note_on_c, 0, 74, 80
3, 128832, Note_on_c, 0, 69, 76
3, 128872, Note_off_c, 0, 74, 0
3, 129024, Note_off_c, 0, 69, 0
3, 129024, Note_on_c, 0, 62, 81
3, 129216, Note_on_c, 0, 69, 82
3, 129220, Note_off_c, 0, 62, 0
3, 129408, Note_on_c, 0, 62, 72
3, 129416, Note_off_c, 0, 69, 0
3, 129600, Note_off_c, 0, 62, 0
3, 129600, Note_on_c, 0, 69, 73
3, 129792, Note_off_c, 0, 69, 0
3, 129792, Note_on_c, 0, 62, 72
3, 129984, Note_on_c, 0, 69, 84
3, 130000, Note_off_c, 0, 62, 0
3, 130176, Note_off_c, 0, 69, 0
3, 130176, Note_on_c, 0, 74, 80
3, 130368, Note_on_c, 0, 69, 76
3, 130408, Note_off_c, 0, 74, 0
3, 130560, Note_off_c, 0, 69, 0
3, 130560, Note_on_c, 0, 62, 81
3, 130752, Note_on_c, 0, 69, 82
3, 130756, Note_off_c, 0, 62, 0
3, 130944, Note_on_c, 0, 62, 72
3, 130952, Note_off_c, 0, 69, 0
3, 131136, Note_off_c, 0, 62, 0
3, 131136, Note_on_c, 0, 69, 73
3, 131328, Note_off_c, 0, 69, 0
3, 131328, Note_on_c, 0, 62, 72
3, 131520, Note_on_c, 0, 69, 84
3, 131536, Note_off_c, 0, 62, 0
3, 131712, Note_off_c, 0, 69, 0
3, 131712, Note_on_c, 0, 74, 80
3, 131904, Note_on_c, 0, 69, 76
3, 131944, Note_off_c, 0, 74, 0
3, 132096, Note_off_c, 0, 69, 0
3, 132096, Note_on_c, 0, 69, 81
3, 132288, Note_on_c, 0, 74, 82
3, 132292, Note_off_c, 0, 69, 0
3, 132480, Note_on_c, 0, 69, 72
3, 132488, Note_off_c, 0, 74, 0
3, 132672, Note_off_c, 0, 69, 0
3, 132672, Note_on_c, 0, 81, 73
3, 132864, Note_off_c, 0, 81, 0
3, 132864, Note_on_c, 0, 69, 72
3, 133056, Note_on_c, 0, 81, 84
3, 133072, Note_off_c, 0, 69, 0
3, 133248, Note_off_c, 0, 81, 0
3, 133248, Note_on_c, 0, 69, 80
3, 133440, Note_on_c, 0, 74, 76
3, 133480, Note_off_c, 0, 69, 0
3, 133632, Note_off_c, 0, 74, 0
3, 133632, Note_on_c, 0, 69, 81
3, 133824, Note_on_c, 0, 74, 82
3, 133828, Note_off_c, 0, 69, 0
3, 134016, Note_on_c, 0, 69, 72
3, 134024, Note_off_c, 0, 74, 0
3, 134208, Note_off_c, 0, 69, 0
3, 134208, Note_on_c, 0, 81, 73
3, 134400, Note_off_c, 0, 81, 0
3, 134400, Note_on_c, 0, 69, 72
3, 134592, Note_on_c, 0, 81, 84
3, 134608, Note_off_c, 0, 69, 0
3, 134784, Note_off_c, 0, 81, 0
3, 134784, Note_on_c, 0, 69, 80
3, 134976, Note_on_c, 0, 74, 76
3, 135016, Note_off_c, 0, 69, 0
3, 135168, Note_off_c, 0, 74, 0
3, 135168, Note_on_c, 0, 62, 81
3, 135168, Control_c, 0, 7, 85
3, 135292, Control_c, 0, 7, 84
3, 135360, Note_on_c, 0, 69, 82
3, 135364, Note_off_c, 0, 62, 0
3, 135420, Control_c, 0, 7, 83
3, 135544, Control_c, 0, 7, 82
3, 135552, Note_on_c, 0, 62, 72
3, 135560, Note_off_c, 0, 69, 0
3, 135672, Control_c, 0, 7, 81
3, 135744, Note_off_c, 0, 62, 0
3, 135744, Note_on_c, 0, 69, 73
3, 135796, Control_c, 0, 7, 80
3, 135924, Control_c, 0, 7, 79
3, 135936, Note_off_c, 0, 69, 0
3, 135936, Note_on_c, 0, 62, 72
3, 136048, Control_c, 0, 7, 78
3, 136128, Note_on_c, 0, 69, 84
3, 136144, Note_off_c, 0, 62, 0
3, 136176, Control_c, 0, 7, 77
3, 136304, Control_c, 0, 7, 76
3, 136320, Note_off_c, 0, 69, 0
3, 136320, Note_on_c, 0, 74, 80
3, 136432, Control_c, 0, 7, 75
3, 136512, Note_on_c, 0, 69, 76
3, 136552, Note_off_c, 0, 74, 0
3, 136556, Control_c, 0, 7, 74
3, 136684, Control_c, 0, 7, 73
3, 136704, Note_off_c, 0, 69, 0
3, 136704, Note_on_c, 0, 62, 81
3, 136808, Control_c, 0, 7, 72
3, 136896, Note_on_c, 0, 69, 82
3, 136900, Note_off_c, 0, 62, 0
3, 136936, Control_c, 0, 7, 71
3, 137060, Control_c, 0, 7, 70
3, 137088, Note_on_c, 0, 62, 72
3, 137096, Note_off_c, 0, 69, 0
3, 137188, Control_c, 0, 7, 69
3, 137280, Note_off_c, 0, 62, 0
3, 137280, Note_on_c, 0, 69, 73
3, 137312, Control_c, 0, 7, 68
3, 137440, Control_c, 0, 7, 67
3, 137472, Note_off_c, 0, 69, 0
3, 137472, Note_on_c, 0, 62, 72
3, 137568, Control_c, 0, 7, 66
3, 137664, Note_on_c, 0, 69, 84
3, 137680, Note_off_c, 0, 62, 0
3, 137696, Control_c, 0, 7, 65
3, 137820, Control_c, 0, 7, 64
3, 137856, Note_off_c, 0, 69, 0
3, 137856, Note_on_c, 0, 74, 80
3, 137948, Control_c, 0, 7, 63
3, 138048, Note_on_c, 0, 69, 76
3, 138072, Control_c, 0, 7, 62
3, 138088, Note_off_c, 0, 74, 0
3, 138200, Control_c, 0, 7, 61
3, 138240, Note_off_c, 0, 69, 0
3, 138240, Note_on_c, 0, 62, 81
3, 138324, Control_c, 0, 7, 60
3, 138432, Note_on_c, 0, 69, 82
3, 138436, Note_off_c, 0, 62, 0
3, 138452, Control_c, 0, 7, 59
3, 138576, Control_c, 0, 7, 58
3, 138624, Note_on_c, 0, 62, 72
3, 138632, Note_off_c, 0, 69, 0
3, 138704, Control_c, 0, 7, 57
3, 138816, Note_off_c, 0, 62, 0
3, 138816, Note_on_c, 0, 69, 73
3, 138832, Control_c, 0, 7, 56
3, 138960, Control_c, 0, 7, 55
3, 139008, Note_off_c, 0, 69, 0
3, 139008, Note_on_c, 0, 62, 72
3, 139088, Control_c, 0, 7, 54
3, 139200, Note_on_c, 0, 69, 84
3, 139212, Control_c, 0, 7, 53
3, 139216, Note_off_c, 0, 62, 0
3, 139340, Control_c, 0, 7, 52
3, 139392, Note_off_c, 0, 69, 0
3, 139392, Note_on_c, 0, 74, 80
3, 139464, Control_c, 0, 7, 51
3, 139584, Note_on_c, 0, 69, 76
3, 139592, Control_c, 0, 7, 50
3, 139624, Note_off_c, 0, 74, 0
3, 139716, Control_c, 0, 7, 49
3, 139776, Note_off_c, 0, 69, 0
3, 139776, Note_on_c, 0, 62, 81
3, 139844, Control_c, 0, 7, 48
3, 139968, Note_on_c, 0, 69, 82
3, 139968, Control_c, 0, 7, 47
3, 139972, Note_off_c, 0, 62, 0
3, 140096, Control_c, 0, 7, 46
3, 140160, Note_on_c, 0, 62, 72
3, 140168, Note_off_c, 0, 69, 0
3, 140224, Control_c, 0, 7, 45
3, 140352, Note_off_c, 0, 62, 0
3, 140352, Note_on_c, 0, 69, 73
3, 140352, Control_c, 0, 7, 44
3, 140476, Control_c, 0, 7, 43
3, 140544, Note_off_c, 0, 69, 0
3, 140544, Note_on_c, 0, 62, 72
3, 140604, Control_c, 0, 7, 42
3, 140728, Control_c, 0, 7, 41
3, 140736, Note_on_c, 0, 69, 84
3, 140752, Note_off_c, 0, 62, 0
3, 140856, Control_c, 0, 7, 40
3, 140928, Note_off_c, 0, 69, 0
3, 140928, Note_on_c, 0, 74, 80
3, 140980, Control_c, 0, 7, 39
3, 141108, Control_c, 0, 7, 38
3, 141120, Note_on_c, 0, 69, 76
3, 141160, Note_off_c, 0, 74, 0
3, 141232, Control_c, 0, 7, 37
3, 141312, Note_off_c, 0, 69, 0
3, 141312, Note_on_c, 0, 62, 81
3, 141360, Control_c, 0, 7, 36
3, 141488, Control_c, 0, 7, 35
3, 141504, Note_on_c, 0, 69, 82
3, 141508, Note_off_c, 0, 62, 0
3, 141616, Control_c, 0, 7, 34
3, 141696, Note_on_c, 0, 62, 72
3, 141704, Note_off_c, 0, 69, 0
3, 141740, Control_c, 0, 7, 33
3, 141868, Control_c, 0, 7, 32
3, 141888, Note_off_c, 0, 62, 0
3, 141888, Note_on_c, 0, 69, 73
3, 141992, Control_c, 0, 7, 31
3, 142080, Note_off_c, 0, 69, 0
3, 142080, Note_on_c, 0, 62, 72
3, 142120, Control_c, 0, 7, 30
3, 142244, Control_c, 0, 7, 29
3, 142272, Note_on_c, 0, 69, 84
3, 142288, Note_off_c, 0, 62, 0
3, 142372, Control_c, 0, 7, 28
3, 142464, Note_off_c, 0, 69, 0
3, 142464, Note_on_c, 0, 74, 80
3, 142500, Control_c, 0, 7, 27
3, 142624, Control_c, 0, 7, 26
3, 142656, Note_on_c, 0, 69, 76
3, 142696, Note_off_c, 0, 74, 0
3, 142752, Control_c, 0, 7, 25
3, 142848, Note_off_c, 0, 69, 0
3, 142848, Note_on_c, 0, 62, 81
3, 142880, Control_c, 0, 7, 24
3, 143008, Control_c, 0, 7, 23
3, 143040, Note_on_c, 0, 69, 82
3, 143044, Note_off_c, 0, 62, 0
3, 143132, Control_c, 0, 7, 22
3, 143232, Note_on_c, 0, 62, 72
3, 143240, Note_off_c, 0, 69, 0
3, 143260, Control_c, 0, 7, 21
3, 143384, Control_c, 0, 7, 20
3, 143424, Note_off_c, 0, 62, 0
3, 143424, Note_on_c, 0, 69, 73
3, 143512, Control_c, 0, 7, 19
3, 143616, Note_off_c, 0, 69, 0
3, 143616, Note_on_c, 0, 62, 72
3, 143636, Control_c, 0, 7, 18
3, 143764, Control_c, 0, 7, 17
3, 143808, Note_on_c, 0, 69, 84
3, 143824, Note_off_c, 0, 62, 0
3, 143888, Control_c, 0, 7, 16
3, 144000, Note_off_c, 0, 69, 0
3, 144000, Note_on_c, 0, 74, 80
3, 144016, Control_c, 0, 7, 15
3, 144144, Control_c, 0, 7, 14
3, 144192, Note_on_c, 0, 69, 76
3, 144232, Note_off_c, 0, 74, 0
3, 144272, Control_c, 0, 7, 13
3, 144384, Note_off_c, 0, 69, 0
3, 144384, Note_on_c, 0, 69, 81
3, 144396, Control_c, 0, 7, 12
3, 144524, Control_c, 0, 7, 11
3, 144576, Note_on_c, 0, 74, 82
3, 144580, Note_off_c, 0, 69, 0
3, 144648, Control_c, 0, 7, 10
3, 144768, Note_on_c, 0, 69, 72
3, 144776, Note_off_c, 0, 74, 0
3, 144776, Control_c, 0, 7, 9
3, 144900, Control_c, 0, 7, 8
3, 144960, Note_off_c, 0, 69, 0
3, 144960, Note_on_c, 0, 81, 73
3, 145028, Control_c, 0, 7, 7
3, 145152, Note_off_c, 0, 81, 0
3, 145152, Note_on_c, 0, 69, 72
3, 145152, Control_c, 0, 7, 6
3, 145280, Control_c, 0, 7, 5
3, 145344, Note_on_c, 0, 81, 84
3, 145360, Note_off_c, 0, 69, 0
3, 145408, Control_c, 0, 7, 4
3, 145536, Note_off_c, 0, 81, 0
3, 145536, Note_on_c, 0, 69, 80
3, 145536, Control_c, 0, 7, 3
3, 145660, Control_c, 0, 7, 2
3, 145728, Note_on_c, 0, 74, 76
3, 145768, Note_off_c, 0, 69, 0
3, 145788, Control_c, 0, 7, 1
3, 145916, Control_c, 0, 7, 0
3, 145920, Note_off_c, 0, 74, 0
3, 145920, End_track
4, 0, Start_track
4, 0, Title_t, "acoustic piano"
4, 0, Control_c, 1, 0, 0
4, 0, Program_c, 1, 0
4, 0, Control_c, 1, 10, 80
4, 0, Control_c, 1, 91, 100
4, 0, Key_signature, 0, "major"
4, 0, Control_c, 1, 7, 90
4, 0, Control_c, 1, 121, 0
4, 0, Note_on_c, 1, 64, 94
4, 192, Note_off_c, 1, 64, 0
4, 192, Note_on_c, 1, 69, 89
4, 384, Note_on_c, 1, 76, 99
4, 400, Note_off_c, 1, 69, 0
4, 576, Note_on_c, 1, 69, 89
4, 608, Note_off_c, 1, 76, 0
4, 672, Note_off_c, 1, 69, 0
4, 1728, Note_on_c, 1, 69, 86
4, 1896, Note_off_c, 1, 69, 0
4, 1920, Note_on_c, 1, 76, 95
4, 2112, Note_on_c, 1, 69, 99
4, 2128, Note_off_c, 1, 76, 0
4, 2464, Note_off_c, 1, 69, 0
4, 2496, Note_on_c, 1, 81, 95
4, 2864, Note_off_c, 1, 81, 0
4, 2880, Note_on_c, 1, 76, 99
4, 3252, Note_off_c, 1, 76, 0
4, 3264, Note_on_c, 1, 69, 84
4, 3456, Note_on_c, 1, 76, 95
4, 3468, Note_off_c, 1, 69, 0
4, 3648, Note_on_c, 1, 69, 81
4, 3672, Note_off_c, 1, 76, 0
4, 3728, Note_off_c, 1, 69, 0
4, 4800, Note_on_c, 1, 69, 84
4, 4968, Note_off_c, 1, 69, 0
4, 4992, Note_on_c, 1, 76, 95
4, 5184, Note_on_c, 1, 69, 88
4, 5200, Note_off_c, 1, 76, 0
4, 5364, Note_off_c, 1, 69, 0
4, 5376, Note_on_c, 1, 71, 89
4, 5376, Note_on_c, 1, 83, 89
4, 5624, Note_off_c, 1, 71, 0
4, 5624, Note_off_c, 1, 83, 0
4, 5664, Note_on_c, 1, 81, 87
4, 5664, Note_on_c, 1, 69, 87
4, 5912, Note_off_c, 1, 81, 0
4, 5912, Note_off_c, 1, 69, 0
4, 5952, Note_on_c, 1, 76, 90
4, 5952, Note_on_c, 1, 64, 90
4, 6128, Note_off_c, 1, 76, 0
4, 6128, Note_off_c, 1, 64, 0
4, 6144, Note_on_c, 1, 62, 82
4, 6324, Note_off_c, 1, 62, 0
4, 6336, Note_on_c, 1, 69, 85
4, 6504, Note_off_c, 1, 69, 0
4, 6528, Note_on_c, 1, 74, 83
4, 6700, Note_off_c, 1, 74, 0
4, 6720, Note_on_c, 1, 78, 89
4, 6884, Note_off_c, 1, 78, 0
4, 6912, Note_on_c, 1, 79, 93
4, 7068, Note_off_c, 1, 79, 0
4, 7104, Note_on_c, 1, 78, 89
4, 7228, Note_off_c, 1, 78, 0
4, 7872, Note_on_c, 1, 74, 91
4, 8216, Note_off_c, 1, 74, 0
4, 8256, Note_on_c, 1, 74, 84
4, 8420, Note_off_c, 1, 74, 0
4, 8448, Note_on_c, 1, 81, 94
4, 8624, Note_off_c, 1, 81, 0
4, 8640, Note_on_c, 1, 74, 85
4, 8816, Note_off_c, 1, 74, 0
4, 9024, Note_on_c, 1, 81, 89
4, 9168, Note_off_c, 1, 81, 0
4, 10176, Note_on_c, 1, 78, 92
4, 10268, Note_off_c, 1, 78, 0
4, 10272, Note_on_c, 1, 74, 86
4, 10440, Note_off_c, 1, 74, 0
4, 10464, Note_on_c, 1, 78, 84
4, 10728, Note_off_c, 1, 78, 0
4, 10752, Note_on_c, 1, 81, 94
4, 11112, Note_off_c, 1, 81, 0
4, 11712, Note_on_c, 1, 78, 88
4, 11804, Note_off_c, 1, 78, 0
4, 11808, Note_on_c, 1, 79, 93
4, 11984, Note_off_c, 1, 79, 0
4, 12000, Note_on_c, 1, 78, 90
4, 12260, Note_off_c, 1, 78, 0
4, 12288, Note_on_c, 1, 64, 94
4, 12480, Note_off_c, 1, 64, 0
4, 12480, Note_on_c, 1, 69, 89
4, 12672, Note_on_c, 1, 76, 99
4, 12688, Note_off_c, 1, 69, 0
4, 12864, Note_on_c, 1, 69, 89
4, 12896, Note_off_c, 1, 76, 0
4, 12960, Note_off_c, 1, 69, 0
4, 14016, Note_on_c, 1, 69, 86
4, 14184, Note_off_c, 1, 69, 0
4, 14208, Note_on_c, 1, 76, 95
4, 14400, Note_on_c, 1, 69, 99
4, 14416, Note_off_c, 1, 76, 0
4, 14752, Note_off_c, 1, 69, 0
4, 14784, Note_on_c, 1, 81, 95
4, 15152, Note_off_c, 1, 81, 0
4, 15168, Note_on_c, 1, 76, 99
4, 15540, Note_off_c, 1, 76, 0
4, 15552, Note_on_c, 1, 69, 84
4, 15744, Note_on_c, 1, 76, 95
4, 15756, Note_off_c, 1, 69, 0
4, 15936, Note_on_c, 1, 69, 81
4, 15960, Note_off_c, 1, 76, 0
4, 16016, Note_off_c, 1, 69, 0
4, 17088, Note_on_c, 1, 69, 84
4, 17256, Note_off_c, 1, 69, 0
4, 17280, Note_on_c, 1, 76, 95
4, 17472, Note_on_c, 1, 69, 88
4, 17488, Note_off_c, 1, 76, 0
4, 17652, Note_off_c, 1, 69, 0
4, 17664, Note_on_c, 1, 71, 89
4, 17664, Note_on_c, 1, 83, 89
4, 17912, Note_off_c, 1, 71, 0
4, 17912, Note_off_c, 1, 83, 0
4, 17952, Note_on_c, 1, 81, 87
4, 17952, Note_on_c, 1, 69, 87
4, 18200, Note_off_c, 1, 81, 0
4, 18200, Note_off_c, 1, 69, 0
4, 18240, Note_on_c, 1, 76, 90
4, 18240, Note_on_c, 1, 64, 90
4, 18416, Note_off_c, 1, 76, 0
4, 18416, Note_off_c, 1, 64, 0
4, 18432, Note_on_c, 1, 62, 82
4, 18612, Note_off_c, 1, 62, 0
4, 18624, Note_on_c, 1, 69, 85
4, 18792, Note_off_c, 1, 69, 0
4, 18816, Note_on_c, 1, 74, 83
4, 18988, Note_off_c, 1, 74, 0
4, 19008, Note_on_c, 1, 78, 89
4, 19172, Note_off_c, 1, 78, 0
4, 19200, Note_on_c, 1, 79, 93
4, 19356, Note_off_c, 1, 79, 0
4, 19392, Note_on_c, 1, 78, 89
4, 19516, Note_off_c, 1, 78, 0
4, 20160, Note_on_c, 1, 74, 91
4, 20504, Note_off_c, 1, 74, 0
4, 20544, Note_on_c, 1, 74, 84
4, 20708, Note_off_c, 1, 74, 0
4, 20736, Note_on_c, 1, 81, 94
4, 20912, Note_off_c, 1, 81, 0
4, 20928, Note_on_c, 1, 74, 85
4, 21104, Note_off_c, 1, 74, 0
4, 21312, Note_on_c, 1, 81, 89
4, 21456, Note_off_c, 1, 81, 0
4, 22464, Note_on_c, 1, 78, 92
4, 22556, Note_off_c, 1, 78, 0
4, 22560, Note_on_c, 1, 74, 86
4, 22728, Note_off_c, 1, 74, 0
4, 22752, Note_on_c, 1, 78, 84
4, 23016, Note_off_c, 1, 78, 0
4, 23040, Note_on_c, 1, 81, 94
4, 23400, Note_off_c, 1, 81, 0
4, 24000, Note_on_c, 1, 78, 88
4, 24092, Note_off_c, 1, 78, 0
4, 24096, Note_on_c, 1, 79, 93
4, 24272, Note_off_c, 1, 79, 0
4, 24288, Note_on_c, 1, 78, 90
4, 24548, Note_off_c, 1, 78, 0
4, 35904, Note_on_c, 1, 69, 84
4, 35984, Note_off_c, 1, 69, 0
4, 36000, Note_on_c, 1, 69, 91
4, 36000, Note_on_c, 1, 57, 91
4, 36264, Note_off_c, 1, 69, 0
4, 36264, Note_off_c, 1, 57, 0
4, 36288, Note_on_c, 1, 79, 87
4, 36288, Note_on_c, 1, 67, 87
4, 36376, Note_off_c, 1, 79, 0
4, 36376, Note_off_c, 1, 67, 0
4, 36384, Note_on_c, 1, 79, 92
4, 36384, Note_on_c, 1, 67, 92
4, 36552, Note_off_c, 1, 79, 0
4, 36552, Note_off_c, 1, 67, 0
4, 36576, Note_on_c, 1, 78, 92
4, 36576, Note_on_c, 1, 66, 92
4, 36848, Note_off_c, 1, 78, 0
4, 36848, Note_off_c, 1, 66, 0
4, 97344, Note_on_c, 1, 69, 84
4, 97424, Note_off_c, 1, 69, 0
4, 97440, Note_on_c, 1, 69, 91
4, 97440, Note_on_c, 1, 57, 91
4, 97704, Note_off_c, 1, 69, 0
4, 97704, Note_off_c, 1, 57, 0
4, 97728, Note_on_c, 1, 79, 87
4, 97728, Note_on_c, 1, 67, 87
4, 97816, Note_off_c, 1, 79, 0
4, 97816, Note_off_c, 1, 67, 0
4, 97824, Note_on_c, 1, 79, 92
4, 97824, Note_on_c, 1, 67, 92
4, 97992, Note_off_c, 1, 79, 0
4, 97992, Note_off_c, 1, 67, 0
4, 98016, Note_on_c, 1, 78, 92
4, 98016, Note_on_c, 1, 66, 92
4, 98288, Note_off_c, 1, 78, 0
4, 98288, Note_off_c, 1, 66, 0
4, 98288, End_track
5, 0, Start_track
5, 0, Title_t, "acoustic piano"
5, 0, Control_c, 2, 0, 0
5, 0, Program_c, 2, 0
5, 0, Control_c, 2, 10, 50
5, 0, Control_c, 2, 91, 110
5, 0, Key_signature, 0, "major"
5, 0, Control_c, 2, 7, 90
5, 0, Control_c, 2, 121, 0
5, 0, Note_on_c, 2, 45, 85
5, 0, Note_on_c, 2, 52, 85
5, 0, Note_on_c, 2, 54, 85
5, 0, Note_on_c, 2, 57, 85
5, 0, Note_on_c, 2, 61, 85
5, 380, Note_off_c, 2, 45, 0
5, 380, Note_off_c, 2, 52, 0
5, 380, Note_off_c, 2, 54, 0
5, 380, Note_off_c, 2, 57, 0
5, 380, Note_off_c, 2, 61, 0
5, 6144, Note_on_c, 2, 43, 85
5, 6144, Note_on_c, 2, 50, 85
5, 6144, Note_on_c, 2, 55, 85
5, 6144, Note_on_c, 2, 59, 85
5, 6524, Note_off_c, 2, 43, 0
5, 6524, Note_off_c, 2, 50, 0
5, 6524, Note_off_c, 2, 55, 0
5, 6524, Note_off_c, 2, 59, 0
5, 12288, Note_on_c, 2, 45, 85
5, 12288, Note_on_c, 2, 52, 85
5, 12288, Note_on_c, 2, 54, 85
5, 12288, Note_on_c, 2, 57, 85
5, 12288, Note_on_c, 2, 61, 85
5, 12668, Note_off_c, 2, 45, 0
5, 12668, Note_off_c, 2, 52, 0
5, 12668, Note_off_c, 2, 54, 0
5, 12668, Note_off_c, 2, 57, 0
5, 12668, Note_off_c, 2, 61, 0
5, 18432, Note_on_c, 2, 43, 85
5, 18432, Note_on_c, 2, 50, 85
5, 18432, Note_on_c, 2, 55, 85
5, 18432, Note_on_c, 2, 59, 85
5, 18812, Note_off_c, 2, 43, 0
5, 18812, Note_off_c, 2, 50, 0
5, 18812, Note_off_c, 2, 55, 0
5, 18812, Note_off_c, 2, 59, 0
5, 24576, Note_on_c, 2, 72, 82
5, 24576, Note_on_c, 2, 69, 82
5, 24576, Note_on_c, 2, 65, 82
5, 24576, Note_on_c, 2, 62, 82
5, 24864, Note_off_c, 2, 72, 0
5, 24864, Note_off_c, 2, 69, 0
5, 24864, Note_off_c, 2, 65, 0
5, 24864, Note_off_c, 2, 62, 0
5, 24960, Note_on_c, 2, 72, 86
5, 24960, Note_on_c, 2, 69, 86
5, 24960, Note_on_c, 2, 65, 86
5, 24960, Note_on_c, 2, 62, 86
5, 25168, Note_off_c, 2, 72, 0
5, 25168, Note_off_c, 2, 69, 0
5, 25168, Note_off_c, 2, 65, 0
5, 25168, Note_off_c, 2, 62, 0
5, 25248, Note_on_c, 2, 72, 88
5, 25248, Note_on_c, 2, 69, 88
5, 25248, Note_on_c, 2, 65, 88
5, 25248, Note_on_c, 2, 62, 88
5, 25456, Note_off_c, 2, 72, 0
5, 25456, Note_off_c, 2, 69, 0
5, 25456, Note_off_c, 2, 65, 0
5, 25456, Note_off_c, 2, 62, 0
5, 25536, Note_on_c, 2, 72, 86
5, 25536, Note_on_c, 2, 69, 86
5, 25536, Note_on_c, 2, 65, 86
5, 25536, Note_on_c, 2, 62, 86
5, 25744, Note_off_c, 2, 72, 0
5, 25744, Note_off_c, 2, 69, 0
5, 25744, Note_off_c, 2, 65, 0
5, 25744, Note_off_c, 2, 62, 0
5, 25824, Note_on_c, 2, 72, 90
5, 25824, Note_on_c, 2, 69, 90
5, 25824, Note_on_c, 2, 65, 90
5, 25824, Note_on_c, 2, 62, 90
5, 26032, Note_off_c, 2, 72, 0
5, 26032, Note_off_c, 2, 69, 0
5, 26032, Note_off_c, 2, 65, 0
5, 26032, Note_off_c, 2, 62, 0
5, 26112, Note_on_c, 2, 72, 82
5, 26112, Note_on_c, 2, 67, 82
5, 26112, Note_on_c, 2, 64, 82
5, 26400, Note_off_c, 2, 72, 0
5, 26400, Note_off_c, 2, 67, 0
5, 26400, Note_off_c, 2, 64, 0
5, 26496, Note_on_c, 2, 72, 86
5, 26496, Note_on_c, 2, 67, 86
5, 26496, Note_on_c, 2, 64, 86
5, 26704, Note_off_c, 2, 72, 0
5, 26704, Note_off_c, 2, 67, 0
5, 26704, Note_off_c, 2, 64, 0
5, 26784, Note_on_c, 2, 72, 88
5, 26784, Note_on_c, 2, 67, 88
5, 26784, Note_on_c, 2, 64, 88
5, 26992, Note_off_c, 2, 72, 0
5, 26992, Note_off_c, 2, 67, 0
5, 26992, Note_off_c, 2, 64, 0
5, 27072, Note_on_c, 2, 72, 86
5, 27072, Note_on_c, 2, 67, 86
5, 27072, Note_on_c, 2, 64, 86
5, 27280, Note_off_c, 2, 72, 0
5, 27280, Note_off_c, 2, 67, 0
5, 27280, Note_off_c, 2, 64, 0
5, 27360, Note_on_c, 2, 72, 90
5, 27360, Note_on_c, 2, 67, 90
5, 27360, Note_on_c, 2, 64, 90
5, 27568, Note_off_c, 2, 72, 0
5, 27568, Note_off_c, 2, 67, 0
5, 27568, Note_off_c, 2, 64, 0
5, 27648, Note_on_c, 2, 72, 82
5, 27648, Note_on_c, 2, 69, 82
5, 27648, Note_on_c, 2, 65, 82
5, 27648, Note_on_c, 2, 62, 82
5, 27936, Note_off_c, 2, 72, 0
5, 27936, Note_off_c, 2, 69, 0
5, 27936, Note_off_c, 2, 65, 0
5, 27936, Note_off_c, 2, 62, 0
5, 28032, Note_on_c, 2, 72, 86
5, 28032, Note_on_c, 2, 69, 86
5, 28032, Note_on_c, 2, 65, 86
5, 28032, Note_on_c, 2, 62, 86
5, 28240, Note_off_c, 2, 72, 0
5, 28240, Note_off_c, 2, 69, 0
5, 28240, Note_off_c, 2, 65, 0
5, 28240, Note_off_c, 2, 62, 0
5, 28320, Note_on_c, 2, 72, 88
5, 28320, Note_on_c, 2, 69, 88
5, 28320, Note_on_c, 2, 65, 88
5, 28320, Note_on_c, 2, 62, 88
5, 28528, Note_off_c, 2, 72, 0
5, 28528, Note_off_c, 2, 69, 0
5, 28528, Note_off_c, 2, 65, 0
5, 28528, Note_off_c, 2, 62, 0
5, 28608, Note_on_c, 2, 72, 86
5, 28608, Note_on_c, 2, 69, 86
5, 28608, Note_on_c, 2, 65, 86
5, 28608, Note_on_c, 2, 62, 86
5, 28816, Note_off_c, 2, 72, 0
5, 28816, Note_off_c, 2, 69, 0
5, 28816, Note_off_c, 2, 65, 0
5, 28816, Note_off_c, 2, 62, 0
5, 28896, Note_on_c, 2, 72, 90
5, 28896, Note_on_c, 2, 69, 90
5, 28896, Note_on_c, 2, 65, 90
5, 28896, Note_on_c, 2, 62, 90
5, 29104, Note_off_c, 2, 72, 0
5, 29104, Note_off_c, 2, 69, 0
5, 29104, Note_off_c, 2, 65, 0
5, 29104, Note_off_c, 2, 62, 0
5, 29184, Note_on_c, 2, 72, 82
5, 29184, Note_on_c, 2, 67, 82
5, 29184, Note_on_c, 2, 64, 82
5, 29472, Note_off_c, 2, 72, 0
5, 29472, Note_off_c, 2, 67, 0
5, 29472, Note_off_c, 2, 64, 0
5, 29568, Note_on_c, 2, 72, 86
5, 29568, Note_on_c, 2, 67, 86
5, 29568, Note_on_c, 2, 64, 86
5, 29776, Note_off_c, 2, 72, 0
5, 29776, Note_off_c, 2, 67, 0
5, 29776, Note_off_c, 2, 64, 0
5, 29856, Note_on_c, 2, 72, 88
5, 29856, Note_on_c, 2, 67, 88
5, 29856, Note_on_c, 2, 64, 88
5, 30064, Note_off_c, 2, 72, 0
5, 30064, Note_off_c, 2, 67, 0
5, 30064, Note_off_c, 2, 64, 0
5, 30144, Note_on_c, 2, 72, 86
5, 30144, Note_on_c, 2, 67, 86
5, 30144, Note_on_c, 2, 64, 86
5, 30352, Note_off_c, 2, 72, 0
5, 30352, Note_off_c, 2, 67, 0
5, 30352, Note_off_c, 2, 64, 0
5, 30432, Note_on_c, 2, 72, 90
5, 30432, Note_on_c, 2, 67, 90
5, 30432, Note_on_c, 2, 64, 90
5, 30640, Note_off_c, 2, 72, 0
5, 30640, Note_off_c, 2, 67, 0
5, 30640, Note_off_c, 2, 64, 0
5, 30720, Note_on_c, 2, 74, 82
5, 30720, Note_on_c, 2, 71, 82
5, 30720, Note_on_c, 2, 67, 82
5, 30720, Note_on_c, 2, 64, 82
5, 31008, Note_off_c, 2, 74, 0
5, 31008, Note_off_c, 2, 71, 0
5, 31008, Note_off_c, 2, 67, 0
5, 31008, Note_off_c, 2, 64, 0
5, 31104, Note_on_c, 2, 74, 86
5, 31104, Note_on_c, 2, 71, 86
5, 31104, Note_on_c, 2, 67, 86
5, 31104, Note_on_c, 2, 64, 86
5, 31312, Note_off_c, 2, 74, 0
5, 31312, Note_off_c, 2, 71, 0
5, 31312, Note_off_c, 2, 67, 0
5, 31312, Note_off_c, 2, 64, 0
5, 31392, Note_on_c, 2, 74, 88
5, 31392, Note_on_c, 2, 71, 88
5, 31392, Note_on_c, 2, 67, 88
5, 31392, Note_on_c, 2, 64, 88
5, 31600, Note_off_c, 2, 74, 0
5, 31600, Note_off_c, 2, 71, 0
5, 31600, Note_off_c, 2, 67, 0
5, 31600, Note_off_c, 2, 64, 0
5, 31680, Note_on_c, 2, 74, 86
5, 31680, Note_on_c, 2, 71, 86
5, 31680, Note_on_c, 2, 67, 86
5, 31680, Note_on_c, 2, 64, 86
5, 31888, Note_off_c, 2, 74, 0
5, 31888, Note_off_c, 2, 71, 0
5, 31888, Note_off_c, 2, 67, 0
5, 31888, Note_off_c, 2, 64, 0
5, 31968, Note_on_c, 2, 74, 90
5, 31968, Note_on_c, 2, 71, 90
5, 31968, Note_on_c, 2, 67, 90
5, 31968, Note_on_c, 2, 64, 90
5, 32176, Note_off_c, 2, 74, 0
5, 32176, Note_off_c, 2, 71, 0
5, 32176, Note_off_c, 2, 67, 0
5, 32176, Note_off_c, 2, 64, 0
5, 32256, Note_on_c, 2, 74, 82
5, 32256, Note_on_c, 2, 71, 82
5, 32256, Note_on_c, 2, 67, 82
5, 32544, Note_off_c, 2, 74, 0
5, 32544, Note_off_c, 2, 71, 0
5, 32544, Note_off_c, 2, 67, 0
5, 32640, Note_on_c, 2, 74, 86
5, 32640, Note_on_c, 2, 71, 86
5, 32640, Note_on_c, 2, 67, 86
5, 32848, Note_off_c, 2, 74, 0
5, 32848, Note_off_c, 2, 71, 0
5, 32848, Note_off_c, 2, 67, 0
5, 32928, Note_on_c, 2, 74, 88
5, 32928, Note_on_c, 2, 71, 88
5, 32928, Note_on_c, 2, 67, 88
5, 33136, Note_off_c, 2, 74, 0
5, 33136, Note_off_c, 2, 71, 0
5, 33136, Note_off_c, 2, 67, 0
5, 33216, Note_on_c, 2, 74, 86
5, 33216, Note_on_c, 2, 71, 86
5, 33216, Note_on_c, 2, 67, 86
5, 33424, Note_off_c, 2, 74, 0
5, 33424, Note_off_c, 2, 71, 0
5, 33424, Note_off_c, 2, 67, 0
5, 33504, Note_on_c, 2, 74, 90
5, 33504, Note_on_c, 2, 71, 90
5, 33504, Note_on_c, 2, 67, 90
5, 33712, Note_off_c, 2, 74, 0
5, 33712, Note_off_c, 2, 71, 0
5, 33712, Note_off_c, 2, 67, 0
5, 33792, Note_on_c, 2, 78, 82
5, 33792, Note_on_c, 2, 74, 82
5, 33792, Note_on_c, 2, 69, 82
5, 34080, Note_off_c, 2, 78, 0
5, 34080, Note_off_c, 2, 74, 0
5, 34080, Note_off_c, 2, 69, 0
5, 34176, Note_on_c, 2, 78, 86
5, 34176, Note_on_c, 2, 74, 86
5, 34176, Note_on_c, 2, 69, 86
5, 34384, Note_off_c, 2, 78, 0
5, 34384, Note_off_c, 2, 74, 0
5, 34384, Note_off_c, 2, 69, 0
5, 34464, Note_on_c, 2, 78, 88
5, 34464, Note_on_c, 2, 74, 88
5, 34464, Note_on_c, 2, 69, 88
5, 34672, Note_off_c, 2, 78, 0
5, 34672, Note_off_c, 2, 74, 0
5, 34672, Note_off_c, 2, 69, 0
5, 34752, Note_on_c, 2, 79, 86
5, 34752, Note_on_c, 2, 74, 86
5, 34752, Note_on_c, 2, 69, 86
5, 34960, Note_off_c, 2, 79, 0
5, 34960, Note_off_c, 2, 74, 0
5, 34960, Note_off_c, 2, 69, 0
5, 35040, Note_on_c, 2, 78, 90
5, 35040, Note_on_c, 2, 74, 90
5, 35040, Note_on_c, 2, 69, 90
5, 35248, Note_off_c, 2, 78, 0
5, 35248, Note_off_c, 2, 74, 0
5, 35248, Note_off_c, 2, 69, 0
5, 35328, Note_on_c, 2, 78, 82
5, 35328, Note_on_c, 2, 74, 82
5, 35328, Note_on_c, 2, 69, 82
5, 35616, Note_off_c, 2, 78, 0
5, 35616, Note_off_c, 2, 74, 0
5, 35616, Note_off_c, 2, 69, 0
5, 35712, Note_on_c, 2, 78, 86
5, 35712, Note_on_c, 2, 74, 86
5, 35712, Note_on_c, 2, 69, 86
5, 35920, Note_off_c, 2, 78, 0
5, 35920, Note_off_c, 2, 74, 0
5, 35920, Note_off_c, 2, 69, 0
5, 36000, Note_on_c, 2, 78, 88
5, 36000, Note_on_c, 2, 74, 88
5, 36000, Note_on_c, 2, 69, 88
5, 36208, Note_off_c, 2, 78, 0
5, 36208, Note_off_c, 2, 74, 0
5, 36208, Note_off_c, 2, 69, 0
5, 36288, Note_on_c, 2, 79, 86
5, 36288, Note_on_c, 2, 74, 86
5, 36288, Note_on_c, 2, 69, 86
5, 36496, Note_off_c, 2, 79, 0
5, 36496, Note_off_c, 2, 74, 0
5, 36496, Note_off_c, 2, 69, 0
5, 36576, Note_on_c, 2, 78, 90
5, 36576, Note_on_c, 2, 74, 90
5, 36576, Note_on_c, 2, 69, 90
5, 36784, Note_off_c, 2, 78, 0
5, 36784, Note_off_c, 2, 74, 0
5, 36784, Note_off_c, 2, 69, 0
5, 36864, Note_on_c, 2, 72, 82
5, 36864, Note_on_c, 2, 69, 82
5, 36864, Note_on_c, 2, 65, 82
5, 36864, Note_on_c, 2, 62, 82
5, 37152, Note_off_c, 2, 72, 0
5, 37152, Note_off_c, 2, 69, 0
5, 37152, Note_off_c, 2, 65, 0
5, 37152, Note_off_c, 2, 62, 0
5, 37248, Note_on_c, 2, 72, 86
5, 37248, Note_on_c, 2, 69, 86
5, 37248, Note_on_c, 2, 65, 86
5, 37248, Note_on_c, 2, 62, 86
5, 37456, Note_off_c, 2, 72, 0
5, 37456, Note_off_c, 2, 69, 0
5, 37456, Note_off_c, 2, 65, 0
5, 37456, Note_off_c, 2, 62, 0
5, 37536, Note_on_c, 2, 72, 88
5, 37536, Note_on_c, 2, 69, 88
5, 37536, Note_on_c, 2, 65, 88
5, 37536, Note_on_c, 2, 62, 88
5, 37744, Note_off_c, 2, 72, 0
5, 37744, Note_off_c, 2, 69, 0
5, 37744, Note_off_c, 2, 65, 0
5, 37744, Note_off_c, 2, 62, 0
5, 37824, Note_on_c, 2, 72, 86
5, 37824, Note_on_c, 2, 69, 86
5, 37824, Note_on_c, 2, 65, 86
5, 37824, Note_on_c, 2, 62, 86
5, 38032, Note_off_c, 2, 72, 0
5, 38032, Note_off_c, 2, 69, 0
5, 38032, Note_off_c, 2, 65, 0
5, 38032, Note_off_c, 2, 62, 0
5, 38112, Note_on_c, 2, 72, 90
5, 38112, Note_on_c, 2, 69, 90
5, 38112, Note_on_c, 2, 65, 90
5, 38112, Note_on_c, 2, 62, 90
5, 38320, Note_off_c, 2, 72, 0
5, 38320, Note_off_c, 2, 69, 0
5, 38320, Note_off_c, 2, 65, 0
5, 38320, Note_off_c, 2, 62, 0
5, 38400, Note_on_c, 2, 72, 82
5, 38400, Note_on_c, 2, 67, 82
5, 38400, Note_on_c, 2, 64, 82
5, 38688, Note_off_c, 2, 72, 0
5, 38688, Note_off_c, 2, 67, 0
5, 38688, Note_off_c, 2, 64, 0
5, 38784, Note_on_c, 2, 72, 86
5, 38784, Note_on_c, 2, 67, 86
5, 38784, Note_on_c, 2, 64, 86
5, 38992, Note_off_c, 2, 72, 0
5, 38992, Note_off_c, 2, 67, 0
5, 38992, Note_off_c, 2, 64, 0
5, 39072, Note_on_c, 2, 72, 88
5, 39072, Note_on_c, 2, 67, 88
5, 39072, Note_on_c, 2, 64, 88
5, 39280, Note_off_c, 2, 72, 0
5, 39280, Note_off_c, 2, 67, 0
5, 39280, Note_off_c, 2, 64, 0
5, 39360, Note_on_c, 2, 72, 86
5, 39360, Note_on_c, 2, 67, 86
5, 39360, Note_on_c, 2, 64, 86
5, 39568, Note_off_c, 2, 72, 0
5, 39568, Note_off_c, 2, 67, 0
5, 39568, Note_off_c, 2, 64, 0
5, 39648, Note_on_c, 2, 72, 90
5, 39648, Note_on_c, 2, 67, 90
5, 39648, Note_on_c, 2, 64, 90
5, 39856, Note_off_c, 2, 72, 0
5, 39856, Note_off_c, 2, 67, 0
5, 39856, Note_off_c, 2, 64, 0
5, 39936, Note_on_c, 2, 72, 82
5, 39936, Note_on_c, 2, 69, 82
5, 39936, Note_on_c, 2, 65, 82
5, 39936, Note_on_c, 2, 62, 82
5, 40224, Note_off_c, 2, 72, 0
5, 40224, Note_off_c, 2, 69, 0
5, 40224, Note_off_c, 2, 65, 0
5, 40224, Note_off_c, 2, 62, 0
5, 40320, Note_on_c, 2, 72, 86
5, 40320, Note_on_c, 2, 69, 86
5, 40320, Note_on_c, 2, 65, 86
5, 40320, Note_on_c, 2, 62, 86
5, 40528, Note_off_c, 2, 72, 0
5, 40528, Note_off_c, 2, 69, 0
5, 40528, Note_off_c, 2, 65, 0
5, 40528, Note_off_c, 2, 62, 0
5, 40608, Note_on_c, 2, 72, 88
5, 40608, Note_on_c, 2, 69, 88
5, 40608, Note_on_c, 2, 65, 88
5, 40608, Note_on_c, 2, 62, 88
5, 40816, Note_off_c, 2, 72, 0
5, 40816, Note_off_c, 2, 69, 0
5, 40816, Note_off_c, 2, 65, 0
5, 40816, Note_off_c, 2, 62, 0
5, 40896, Note_on_c, 2, 72, 86
5, 40896, Note_on_c, 2, 69, 86
5, 40896, Note_on_c, 2, 65, 86
5, 40896, Note_on_c, 2, 62, 86
5, 41104, Note_off_c, 2, 72, 0
5, 41104, Note_off_c, 2, 69, 0
5, 41104, Note_off_c, 2, 65, 0
5, 41104, Note_off_c, 2, 62, 0
5, 41184, Note_on_c, 2, 72, 90
5, 41184, Note_on_c, 2, 69, 90
5, 41184, Note_on_c, 2, 65, 90
5, 41184, Note_on_c, 2, 62, 90
5, 41392, Note_off_c, 2, 72, 0
5, 41392, Note_off_c, 2, 69, 0
5, 41392, Note_off_c, 2, 65, 0
5, 41392, Note_off_c, 2, 62, 0
5, 41472, Note_on_c, 2, 72, 82
5, 41472, Note_on_c, 2, 67, 82
5, 41472, Note_on_c, 2, 64, 82
5, 41760, Note_off_c, 2, 72, 0
5, 41760, Note_off_c, 2, 67, 0
5, 41760, Note_off_c, 2, 64, 0
5, 41856, Note_on_c, 2, 72, 86
5, 41856, Note_on_c, 2, 67, 86
5, 41856, Note_on_c, 2, 64, 86
5, 42064, Note_off_c, 2, 72, 0
5, 42064, Note_off_c, 2, 67, 0
5, 42064, Note_off_c, 2, 64, 0
5, 42144, Note_on_c, 2, 72, 88
5, 42144, Note_on_c, 2, 67, 88
5, 42144, Note_on_c, 2, 64, 88
5, 42352, Note_off_c, 2, 72, 0
5, 42352, Note_off_c, 2, 67, 0
5, 42352, Note_off_c, 2, 64, 0
5, 42432, Note_on_c, 2, 72, 86
5, 42432, Note_on_c, 2, 67, 86
5, 42432, Note_on_c, 2, 64, 86
5, 42640, Note_off_c, 2, 72, 0
5, 42640, Note_off_c, 2, 67, 0
5, 42640, Note_off_c, 2, 64, 0
5, 42720, Note_on_c, 2, 72, 90
5, 42720, Note_on_c, 2, 67, 90
5, 42720, Note_on_c, 2, 64, 90
5, 42928, Note_off_c, 2, 72, 0
5, 42928, Note_off_c, 2, 67, 0
5, 42928, Note_off_c, 2, 64, 0
5, 43008, Note_on_c, 2, 74, 82
5, 43008, Note_on_c, 2, 71, 82
5, 43008, Note_on_c, 2, 67, 82
5, 43008, Note_on_c, 2, 64, 82
5, 43296, Note_off_c, 2, 74, 0
5, 43296, Note_off_c, 2, 71, 0
5, 43296, Note_off_c, 2, 67, 0
5, 43296, Note_off_c, 2, 64, 0
5, 43392, Note_on_c, 2, 74, 86
5, 43392, Note_on_c, 2, 71, 86
5, 43392, Note_on_c, 2, 67, 86
5, 43392, Note_on_c, 2, 64, 86
5, 43600, Note_off_c, 2, 74, 0
5, 43600, Note_off_c, 2, 71, 0
5, 43600, Note_off_c, 2, 67, 0
5, 43600, Note_off_c, 2, 64, 0
5, 43680, Note_on_c, 2, 74, 88
5, 43680, Note_on_c, 2, 71, 88
5, 43680, Note_on_c, 2, 67, 88
5, 43680, Note_on_c, 2, 64, 88
5, 43888, Note_off_c, 2, 74, 0
5, 43888, Note_off_c, 2, 71, 0
5, 43888, Note_off_c, 2, 67, 0
5, 43888, Note_off_c, 2, 64, 0
5, 43968, Note_on_c, 2, 74, 86
5, 43968, Note_on_c, 2, 71, 86
5, 43968, Note_on_c, 2, 67, 86
5, 43968, Note_on_c, 2, 64, 86
5, 44176, Note_off_c, 2, 74, 0
5, 44176, Note_off_c, 2, 71, 0
5, 44176, Note_off_c, 2, 67, 0
5, 44176, Note_off_c, 2, 64, 0
5, 44256, Note_on_c, 2, 74, 90
5, 44256, Note_on_c, 2, 71, 90
5, 44256, Note_on_c, 2, 67, 90
5, 44256, Note_on_c, 2, 64, 90
5, 44464, Note_off_c, 2, 74, 0
5, 44464, Note_off_c, 2, 71, 0
5, 44464, Note_off_c, 2, 67, 0
5, 44464, Note_off_c, 2, 64, 0
5, 44544, Note_on_c, 2, 74, 82
5, 44544, Note_on_c, 2, 71, 82
5, 44544, Note_on_c, 2, 67, 82
5, 44832, Note_off_c, 2, 74, 0
5, 44832, Note_off_c, 2, 71, 0
5, 44832, Note_off_c, 2, 67, 0
5, 44928, Note_on_c, 2, 74, 86
5, 44928, Note_on_c, 2, 71, 86
5, 44928, Note_on_c, 2, 67, 86
5, 45136, Note_off_c, 2, 74, 0
5, 45136, Note_off_c, 2, 71, 0
5, 45136, Note_off_c, 2, 67, 0
5, 45216, Note_on_c, 2, 74, 88
5, 45216, Note_on_c, 2, 71, 88
5, 45216, Note_on_c, 2, 67, 88
5, 45424, Note_off_c, 2, 74, 0
5, 45424, Note_off_c, 2, 71, 0
5, 45424, Note_off_c, 2, 67, 0
5, 45504, Note_on_c, 2, 74, 86
5, 45504, Note_on_c, 2, 71, 86
5, 45504, Note_on_c, 2, 67, 86
5, 45712, Note_off_c, 2, 74, 0
5, 45712, Note_off_c, 2, 71, 0
5, 45712, Note_off_c, 2, 67, 0
5, 45792, Note_on_c, 2, 74, 90
5, 45792, Note_on_c, 2, 71, 90
5, 45792, Note_on_c, 2, 67, 90
5, 46000, Note_off_c, 2, 74, 0
5, 46000, Note_off_c, 2, 71, 0
5, 46000, Note_off_c, 2, 67, 0
5, 46080, Note_on_c, 2, 76, 82
5, 46080, Note_on_c, 2, 73, 82
5, 46080, Note_on_c, 2, 69, 82
5, 46368, Note_off_c, 2, 76, 0
5, 46368, Note_off_c, 2, 73, 0
5, 46368, Note_off_c, 2, 69, 0
5, 46464, Note_on_c, 2, 76, 86
5, 46464, Note_on_c, 2, 73, 86
5, 46464, Note_on_c, 2, 69, 86
5, 46624, Note_off_c, 2, 76, 0
5, 46624, Note_off_c, 2, 73, 0
5, 46624, Note_off_c, 2, 69, 0
5, 46656, Note_on_c, 2, 69, 93
5, 46736, Note_off_c, 2, 69, 0
5, 46752, Note_on_c, 2, 76, 89
5, 46752, Note_on_c, 2, 73, 89
5, 46752, Note_on_c, 2, 69, 89
5, 46912, Note_off_c, 2, 76, 0
5, 46912, Note_off_c, 2, 73, 0
5, 46912, Note_off_c, 2, 69, 0
5, 46944, Note_on_c, 2, 69, 93
5, 47024, Note_off_c, 2, 69, 0
5, 47040, Note_on_c, 2, 76, 87
5, 47040, Note_on_c, 2, 73, 87
5, 47040, Note_on_c, 2, 69, 87
5, 47200, Note_off_c, 2, 76, 0
5, 47200, Note_off_c, 2, 73, 0
5, 47200, Note_off_c, 2, 69, 0
5, 47232, Note_on_c, 2, 69, 91
5, 47312, Note_off_c, 2, 69, 0
5, 47328, Note_on_c, 2, 76, 87
5, 47328, Note_on_c, 2, 73, 87
5, 47328, Note_on_c, 2, 69, 87
5, 47536, Note_off_c, 2, 76, 0
5, 47536, Note_off_c, 2, 73, 0
5, 47536, Note_off_c, 2, 69, 0
5, 47616, Note_on_c, 2, 74, 98
5, 47616, Note_on_c, 2, 71, 98
5, 47616, Note_on_c, 2, 67, 98
5, 47616, Note_on_c, 2, 55, 98
5, 47904, Note_off_c, 2, 74, 0
5, 47904, Note_off_c, 2, 71, 0
5, 47904, Note_off_c, 2, 67, 0
5, 47904, Note_off_c, 2, 55, 0
5, 49152, Note_on_c, 2, 78, 82
5, 49152, Note_on_c, 2, 74, 82
5, 49152, Note_on_c, 2, 69, 82
5, 49440, Note_off_c, 2, 78, 0
5, 49440, Note_off_c, 2, 74, 0
5, 49440, Note_off_c, 2, 69, 0
5, 49536, Note_on_c, 2, 78, 86
5, 49536, Note_on_c, 2, 74, 86
5, 49536, Note_on_c, 2, 69, 86
5, 49696, Note_off_c, 2, 78, 0
5, 49696, Note_off_c, 2, 74, 0
5, 49696, Note_off_c, 2, 69, 0
5, 49728, Note_on_c, 2, 62, 93
5, 49808, Note_off_c, 2, 62, 0
5, 49824, Note_on_c, 2, 78, 89
5, 49824, Note_on_c, 2, 74, 89
5, 49824, Note_on_c, 2, 69, 89
5, 49984, Note_off_c, 2, 78, 0
5, 49984, Note_off_c, 2, 74, 0
5, 49984, Note_off_c, 2, 69, 0
5, 50016, Note_on_c, 2, 62, 93
5, 50096, Note_off_c, 2, 62, 0
5, 50112, Note_on_c, 2, 78, 87
5, 50112, Note_on_c, 2, 74, 87
5, 50112, Note_on_c, 2, 69, 87
5, 50272, Note_off_c, 2, 78, 0
5, 50272, Note_off_c, 2, 74, 0
5, 50272, Note_off_c, 2, 69, 0
5, 50304, Note_on_c, 2, 62, 91
5, 50384, Note_off_c, 2, 62, 0
5, 50400, Note_on_c, 2, 78, 87
5, 50400, Note_on_c, 2, 74, 87
5, 50400, Note_on_c, 2, 69, 87
5, 50608, Note_off_c, 2, 78, 0
5, 50608, Note_off_c, 2, 74, 0
5, 50608, Note_off_c, 2, 69, 0
5, 50688, Note_on_c, 2, 78, 82
5, 50688, Note_on_c, 2, 74, 82
5, 50688, Note_on_c, 2, 69, 82
5, 50976, Note_off_c, 2, 78, 0
5, 50976, Note_off_c, 2, 74, 0
5, 50976, Note_off_c, 2, 69, 0
5, 51072, Note_on_c, 2, 78, 86
5, 51072, Note_on_c, 2, 74, 86
5, 51072, Note_on_c, 2, 69, 86
5, 51232, Note_off_c, 2, 78, 0
5, 51232, Note_off_c, 2, 74, 0
5, 51232, Note_off_c, 2, 69, 0
5, 51264, Note_on_c, 2, 62, 93
5, 51344, Note_off_c, 2, 62, 0
5, 51360, Note_on_c, 2, 78, 89
5, 51360, Note_on_c, 2, 74, 89
5, 51360, Note_on_c, 2, 69, 89
5, 51520, Note_off_c, 2, 78, 0
5, 51520, Note_off_c, 2, 74, 0
5, 51520, Note_off_c, 2, 69, 0
5, 51552, Note_on_c, 2, 62, 93
5, 51632, Note_off_c, 2, 62, 0
5, 51648, Note_on_c, 2, 78, 87
5, 51648, Note_on_c, 2, 74, 87
5, 51648, Note_on_c, 2, 69, 87
5, 51808, Note_off_c, 2, 78, 0
5, 51808, Note_off_c, 2, 74, 0
5, 51808, Note_off_c, 2, 69, 0
5, 51840, Note_on_c, 2, 62, 91
5, 51920, Note_off_c, 2, 62, 0
5, 51936, Note_on_c, 2, 78, 87
5, 51936, Note_on_c, 2, 74, 87
5, 51936, Note_on_c, 2, 69, 87
5, 52144, Note_off_c, 2, 78, 0
5, 52144, Note_off_c, 2, 74, 0
5, 52144, Note_off_c, 2, 69, 0
5, 52224, Note_on_c, 2, 78, 82
5, 52224, Note_on_c, 2, 74, 82
5, 52224, Note_on_c, 2, 69, 82
5, 52512, Note_off_c, 2, 78, 0
5, 52512, Note_off_c, 2, 74, 0
5, 52512, Note_off_c, 2, 69, 0
5, 52608, Note_on_c, 2, 78, 86
5, 52608, Note_on_c, 2, 74, 86
5, 52608, Note_on_c, 2, 69, 86
5, 52768, Note_off_c, 2, 78, 0
5, 52768, Note_off_c, 2, 74, 0
5, 52768, Note_off_c, 2, 69, 0
5, 52800, Note_on_c, 2, 62, 93
5, 52880, Note_off_c, 2, 62, 0
5, 52896, Note_on_c, 2, 78, 89
5, 52896, Note_on_c, 2, 74, 89
5, 52896, Note_on_c, 2, 69, 89
5, 53056, Note_off_c, 2, 78, 0
5, 53056, Note_off_c, 2, 74, 0
5, 53056, Note_off_c, 2, 69, 0
5, 53088, Note_on_c, 2, 62, 93
5, 53168, Note_off_c, 2, 62, 0
5, 53184, Note_on_c, 2, 78, 87
5, 53184, Note_on_c, 2, 74, 87
5, 53184, Note_on_c, 2, 69, 87
5, 53344, Note_off_c, 2, 78, 0
5, 53344, Note_off_c, 2, 74, 0
5, 53344, Note_off_c, 2, 69, 0
5, 53376, Note_on_c, 2, 62, 91
5, 53456, Note_off_c, 2, 62, 0
5, 53472, Note_on_c, 2, 78, 87
5, 53472, Note_on_c, 2, 74, 87
5, 53472, Note_on_c, 2, 69, 87
5, 53680, Note_off_c, 2, 78, 0
5, 53680, Note_off_c, 2, 74, 0
5, 53680, Note_off_c, 2, 69, 0
5, 53760, Note_on_c, 2, 78, 82
5, 53760, Note_on_c, 2, 74, 82
5, 53760, Note_on_c, 2, 69, 82
5, 54048, Note_off_c, 2, 78, 0
5, 54048, Note_off_c, 2, 74, 0
5, 54048, Note_off_c, 2, 69, 0
5, 54144, Note_on_c, 2, 78, 86
5, 54144, Note_on_c, 2, 74, 86
5, 54144, Note_on_c, 2, 69, 86
5, 54304, Note_off_c, 2, 78, 0
5, 54304, Note_off_c, 2, 74, 0
5, 54304, Note_off_c, 2, 69, 0
5, 54336, Note_on_c, 2, 62, 93
5, 54416, Note_off_c, 2, 62, 0
5, 54432, Note_on_c, 2, 78, 89
5, 54432, Note_on_c, 2, 74, 89
5, 54432, Note_on_c, 2, 69, 89
5, 54592, Note_off_c, 2, 78, 0
5, 54592, Note_off_c, 2, 74, 0
5, 54592, Note_off_c, 2, 69, 0
5, 54624, Note_on_c, 2, 62, 93
5, 54704, Note_off_c, 2, 62, 0
5, 54720, Note_on_c, 2, 78, 87
5, 54720, Note_on_c, 2, 74, 87
5, 54720, Note_on_c, 2, 69, 87
5, 54880, Note_off_c, 2, 78, 0
5, 54880, Note_off_c, 2, 74, 0
5, 54880, Note_off_c, 2, 69, 0
5, 54912, Note_on_c, 2, 62, 91
5, 54992, Note_off_c, 2, 62, 0
5, 55008, Note_on_c, 2, 78, 87
5, 55008, Note_on_c, 2, 74, 87
5, 55008, Note_on_c, 2, 69, 87
5, 55216, Note_off_c, 2, 78, 0
5, 55216, Note_off_c, 2, 74, 0
5, 55216, Note_off_c, 2, 69, 0
5, 55296, Note_on_c, 2, 76, 82
5, 55296, Note_on_c, 2, 72, 82
5, 55296, Note_on_c, 2, 67, 82
5, 55584, Note_off_c, 2, 76, 0
5, 55584, Note_off_c, 2, 72, 0
5, 55584, Note_off_c, 2, 67, 0
5, 55680, Note_on_c, 2, 76, 86
5, 55680, Note_on_c, 2, 72, 86
5, 55680, Note_on_c, 2, 67, 86
5, 55840, Note_off_c, 2, 76, 0
5, 55840, Note_off_c, 2, 72, 0
5, 55840, Note_off_c, 2, 67, 0
5, 55872, Note_on_c, 2, 60, 93
5, 55952, Note_off_c, 2, 60, 0
5, 55968, Note_on_c, 2, 76, 89
5, 55968, Note_on_c, 2, 72, 89
5, 55968, Note_on_c, 2, 67, 89
5, 56128, Note_off_c, 2, 76, 0
5, 56128, Note_off_c, 2, 72, 0
5, 56128, Note_off_c, 2, 67, 0
5, 56160, Note_on_c, 2, 60, 93
5, 56240, Note_off_c, 2, 60, 0
5, 56256, Note_on_c, 2, 76, 87
5, 56256, Note_on_c, 2, 72, 87
5, 56256, Note_on_c, 2, 67, 87
5, 56416, Note_off_c, 2, 76, 0
5, 56416, Note_off_c, 2, 72, 0
5, 56416, Note_off_c, 2, 67, 0
5, 56448, Note_on_c, 2, 60, 91
5, 56528, Note_off_c, 2, 60, 0
5, 56544, Note_on_c, 2, 76, 87
5, 56544, Note_on_c, 2, 72, 87
5, 56544, Note_on_c, 2, 67, 87
5, 56752, Note_off_c, 2, 76, 0
5, 56752, Note_off_c, 2, 72, 0
5, 56752, Note_off_c, 2, 67, 0
5, 56832, Note_on_c, 2, 74, 82
5, 56832, Note_on_c, 2, 71, 82
5, 56832, Note_on_c, 2, 67, 82
5, 57120, Note_off_c, 2, 74, 0
5, 57120, Note_off_c, 2, 71, 0
5, 57120, Note_off_c, 2, 67, 0
5, 57216, Note_on_c, 2, 74, 86
5, 57216, Note_on_c, 2, 71, 86
5, 57216, Note_on_c, 2, 67, 86
5, 57376, Note_off_c, 2, 74, 0
5, 57376, Note_off_c, 2, 71, 0
5, 57376, Note_off_c, 2, 67, 0
5, 57408, Note_on_c, 2, 64, 93
5, 57488, Note_off_c, 2, 64, 0
5, 57504, Note_on_c, 2, 74, 89
5, 57504, Note_on_c, 2, 71, 89
5, 57504, Note_on_c, 2, 67, 89
5, 57664, Note_off_c, 2, 74, 0
5, 57664, Note_off_c, 2, 71, 0
5, 57664, Note_off_c, 2, 67, 0
5, 57696, Note_on_c, 2, 64, 93
5, 57776, Note_off_c, 2, 64, 0
5, 57792, Note_on_c, 2, 74, 87
5, 57792, Note_on_c, 2, 71, 87
5, 57792, Note_on_c, 2, 67, 87
5, 57952, Note_off_c, 2, 74, 0
5, 57952, Note_off_c, 2, 71, 0
5, 57952, Note_off_c, 2, 67, 0
5, 57984, Note_on_c, 2, 64, 91
5, 58064, Note_off_c, 2, 64, 0
5, 58080, Note_on_c, 2, 74, 87
5, 58080, Note_on_c, 2, 71, 87
5, 58080, Note_on_c, 2, 67, 87
5, 58288, Note_off_c, 2, 74, 0
5, 58288, Note_off_c, 2, 71, 0
5, 58288, Note_off_c, 2, 67, 0
5, 58368, Note_on_c, 2, 74, 82
5, 58368, Note_on_c, 2, 71, 82
5, 58368, Note_on_c, 2, 79, 82
5, 58656, Note_off_c, 2, 74, 0
5, 58656, Note_off_c, 2, 71, 0
5, 58656, Note_off_c, 2, 79, 0
5, 58752, Note_on_c, 2, 74, 86
5, 58752, Note_on_c, 2, 71, 86
5, 58752, Note_on_c, 2, 79, 86
5, 58912, Note_off_c, 2, 74, 0
5, 58912, Note_off_c, 2, 71, 0
5, 58912, Note_off_c, 2, 79, 0
5, 58944, Note_on_c, 2, 67, 93
5, 59024, Note_off_c, 2, 67, 0
5, 59040, Note_on_c, 2, 74, 89
5, 59040, Note_on_c, 2, 71, 89
5, 59040, Note_on_c, 2, 79, 89
5, 59200, Note_off_c, 2, 74, 0
5, 59200, Note_off_c, 2, 71, 0
5, 59200, Note_off_c, 2, 79, 0
5, 59232, Note_on_c, 2, 67, 93
5, 59312, Note_off_c, 2, 67, 0
5, 59328, Note_on_c, 2, 74, 87
5, 59328, Note_on_c, 2, 71, 87
5, 59328, Note_on_c, 2, 79, 87
5, 59488, Note_off_c, 2, 74, 0
5, 59488, Note_off_c, 2, 71, 0
5, 59488, Note_off_c, 2, 79, 0
5, 59520, Note_on_c, 2, 67, 91
5, 59600, Note_off_c, 2, 67, 0
5, 59616, Note_on_c, 2, 74, 87
5, 59616, Note_on_c, 2, 71, 87
5, 59616, Note_on_c, 2, 79, 87
5, 59824, Note_off_c, 2, 74, 0
5, 59824, Note_off_c, 2, 71, 0
5, 59824, Note_off_c, 2, 79, 0
5, 59904, Note_on_c, 2, 74, 82
5, 59904, Note_on_c, 2, 71, 82
5, 59904, Note_on_c, 2, 79, 82
5, 60192, Note_off_c, 2, 74, 0
5, 60192, Note_off_c, 2, 71, 0
5, 60192, Note_off_c, 2, 79, 0
5, 60288, Note_on_c, 2, 74, 86
5, 60288, Note_on_c, 2, 71, 86
5, 60288, Note_on_c, 2, 79, 86
5, 60448, Note_off_c, 2, 74, 0
5, 60448, Note_off_c, 2, 71, 0
5, 60448, Note_off_c, 2, 79, 0
5, 60480, Note_on_c, 2, 67, 93
5, 60560, Note_off_c, 2, 67, 0
5, 60576, Note_on_c, 2, 74, 89
5, 60576, Note_on_c, 2, 71, 89
5, 60576, Note_on_c, 2, 79, 89
5, 60736, Note_off_c, 2, 74, 0
5, 60736, Note_off_c, 2, 71, 0
5, 60736, Note_off_c, 2, 79, 0
5, 60768, Note_on_c, 2, 67, 93
5, 60848, Note_off_c, 2, 67, 0
5, 60864, Note_on_c, 2, 74, 87
5, 60864, Note_on_c, 2, 71, 87
5, 60864, Note_on_c, 2, 79, 87
5, 61024, Note_off_c, 2, 74, 0
5, 61024, Note_off_c, 2, 71, 0
5, 61024, Note_off_c, 2, 79, 0
5, 61056, Note_on_c, 2, 67, 91
5, 61136, Note_off_c, 2, 67, 0
5, 61152, Note_on_c, 2, 74, 87
5, 61152, Note_on_c, 2, 71, 87
5, 61152, Note_on_c, 2, 79, 87
5, 61360, Note_off_c, 2, 74, 0
5, 61360, Note_off_c, 2, 71, 0
5, 61360, Note_off_c, 2, 79, 0
5, 73728, Note_on_c, 2, 69, 82
5, 73728, Note_on_c, 2, 73, 82
5, 73728, Note_on_c, 2, 76, 82
5, 74016, Note_off_c, 2, 69, 0
5, 74016, Note_off_c, 2, 73, 0
5, 74016, Note_off_c, 2, 76, 0
5, 74112, Note_on_c, 2, 69, 87
5, 74112, Note_on_c, 2, 73, 86
5, 74112, Note_on_c, 2, 76, 86
5, 74320, Note_off_c, 2, 69, 0
5, 74320, Note_off_c, 2, 73, 0
5, 74320, Note_off_c, 2, 76, 0
5, 74400, Note_on_c, 2, 69, 88
5, 74400, Note_on_c, 2, 73, 88
5, 74400, Note_on_c, 2, 76, 88
5, 74608, Note_off_c, 2, 69, 0
5, 74608, Note_off_c, 2, 73, 0
5, 74608, Note_off_c, 2, 76, 0
5, 74688, Note_on_c, 2, 69, 86
5, 74688, Note_on_c, 2, 73, 86
5, 74688, Note_on_c, 2, 76, 86
5, 74896, Note_off_c, 2, 69, 0
5, 74896, Note_off_c, 2, 73, 0
5, 74896, Note_off_c, 2, 76, 0
5, 74976, Note_on_c, 2, 69, 90
5, 74976, Note_on_c, 2, 73, 90
5, 74976, Note_on_c, 2, 76, 90
5, 75184, Note_off_c, 2, 69, 0
5, 75184, Note_off_c, 2, 73, 0
5, 75184, Note_off_c, 2, 76, 0
5, 75264, Note_on_c, 2, 69, 82
5, 75264, Note_on_c, 2, 73, 82
5, 75264, Note_on_c, 2, 76, 82
5, 75552, Note_off_c, 2, 69, 0
5, 75552, Note_off_c, 2, 73, 0
5, 75552, Note_off_c, 2, 76, 0
5, 75648, Note_on_c, 2, 69, 87
5, 75648, Note_on_c, 2, 73, 86
5, 75648, Note_on_c, 2, 76, 86
5, 75856, Note_off_c, 2, 69, 0
5, 75856, Note_off_c, 2, 73, 0
5, 75856, Note_off_c, 2, 76, 0
5, 75936, Note_on_c, 2, 69, 88
5, 75936, Note_on_c, 2, 73, 88
5, 75936, Note_on_c, 2, 76, 88
5, 76144, Note_off_c, 2, 69, 0
5, 76144, Note_off_c, 2, 73, 0
5, 76144, Note_off_c, 2, 76, 0
5, 76224, Note_on_c, 2, 69, 86
5, 76224, Note_on_c, 2, 73, 86
5, 76224, Note_on_c, 2, 76, 86
5, 76432, Note_off_c, 2, 69, 0
5, 76432, Note_off_c, 2, 73, 0
5, 76432, Note_off_c, 2, 76, 0
5, 76512, Note_on_c, 2, 69, 90
5, 76512, Note_on_c, 2, 73, 90
5, 76512, Note_on_c, 2, 76, 90
5, 76720, Note_off_c, 2, 69, 0
5, 76720, Note_off_c, 2, 73, 0
5, 76720, Note_off_c, 2, 76, 0
5, 76800, Note_on_c, 2, 69, 82
5, 76800, Note_on_c, 2, 73, 82
5, 76800, Note_on_c, 2, 76, 82
5, 77088, Note_off_c, 2, 69, 0
5, 77088, Note_off_c, 2, 73, 0
5, 77088, Note_off_c, 2, 76, 0
5, 77184, Note_on_c, 2, 69, 87
5, 77184, Note_on_c, 2, 73, 86
5, 77184, Note_on_c, 2, 76, 86
5, 77392, Note_off_c, 2, 69, 0
5, 77392, Note_off_c, 2, 73, 0
5, 77392, Note_off_c, 2, 76, 0
5, 77472, Note_on_c, 2, 69, 88
5, 77472, Note_on_c, 2, 73, 88
5, 77472, Note_on_c, 2, 76, 88
5, 77680, Note_off_c, 2, 69, 0
5, 77680, Note_off_c, 2, 73, 0
5, 77680, Note_off_c, 2, 76, 0
5, 77760, Note_on_c, 2, 69, 86
5, 77760, Note_on_c, 2, 73, 86
5, 77760, Note_on_c, 2, 76, 86
5, 77968, Note_off_c, 2, 69, 0
5, 77968, Note_off_c, 2, 73, 0
5, 77968, Note_off_c, 2, 76, 0
5, 78048, Note_on_c, 2, 69, 90
5, 78048, Note_on_c, 2, 73, 90
5, 78048, Note_on_c, 2, 76, 90
5, 78256, Note_off_c, 2, 69, 0
5, 78256, Note_off_c, 2, 73, 0
5, 78256, Note_off_c, 2, 76, 0
5, 78336, Note_on_c, 2, 69, 82
5, 78336, Note_on_c, 2, 73, 82
5, 78336, Note_on_c, 2, 76, 82
5, 78624, Note_off_c, 2, 69, 0
5, 78624, Note_off_c, 2, 73, 0
5, 78624, Note_off_c, 2, 76, 0
5, 78720, Note_on_c, 2, 69, 87
5, 78720, Note_on_c, 2, 73, 86
5, 78720, Note_on_c, 2, 76, 86
5, 78928, Note_off_c, 2, 69, 0
5, 78928, Note_off_c, 2, 73, 0
5, 78928, Note_off_c, 2, 76, 0
5, 79008, Note_on_c, 2, 69, 88
5, 79008, Note_on_c, 2, 73, 88
5, 79008, Note_on_c, 2, 76, 88
5, 79216, Note_off_c, 2, 69, 0
5, 79216, Note_off_c, 2, 73, 0
5, 79216, Note_off_c, 2, 76, 0
5, 79296, Note_on_c, 2, 69, 86
5, 79296, Note_on_c, 2, 73, 86
5, 79296, Note_on_c, 2, 76, 86
5, 79504, Note_off_c, 2, 69, 0
5, 79504, Note_off_c, 2, 73, 0
5, 79504, Note_off_c, 2, 76, 0
5, 79584, Note_on_c, 2, 69, 90
5, 79584, Note_on_c, 2, 73, 90
5, 79584, Note_on_c, 2, 76, 90
5, 79792, Note_off_c, 2, 69, 0
5, 79792, Note_off_c, 2, 73, 0
5, 79792, Note_off_c, 2, 76, 0
5, 79872, Note_on_c, 2, 64, 82
5, 79872, Note_on_c, 2, 67, 82
5, 79872, Note_on_c, 2, 71, 82
5, 79872, Note_on_c, 2, 74, 82
5, 80160, Note_off_c, 2, 64, 0
5, 80160, Note_off_c, 2, 67, 0
5, 80160, Note_off_c, 2, 71, 0
5, 80160, Note_off_c, 2, 74, 0
5, 80256, Note_on_c, 2, 64, 87
5, 80256, Note_on_c, 2, 67, 87
5, 80256, Note_on_c, 2, 71, 86
5, 80256, Note_on_c, 2, 74, 86
5, 80464, Note_off_c, 2, 64, 0
5, 80464, Note_off_c, 2, 67, 0
5, 80464, Note_off_c, 2, 71, 0
5, 80464, Note_off_c, 2, 74, 0
5, 80544, Note_on_c, 2, 64, 88
5, 80544, Note_on_c, 2, 67, 88
5, 80544, Note_on_c, 2, 71, 88
5, 80544, Note_on_c, 2, 74, 88
5, 80752, Note_off_c, 2, 64, 0
5, 80752, Note_off_c, 2, 67, 0
5, 80752, Note_off_c, 2, 71, 0
5, 80752, Note_off_c, 2, 74, 0
5, 80832, Note_on_c, 2, 64, 86
5, 80832, Note_on_c, 2, 67, 86
5, 80832, Note_on_c, 2, 71, 86
5, 80832, Note_on_c, 2, 74, 86
5, 81040, Note_off_c, 2, 64, 0
5, 81040, Note_off_c, 2, 67, 0
5, 81040, Note_off_c, 2, 71, 0
5, 81040, Note_off_c, 2, 74, 0
5, 81120, Note_on_c, 2, 64, 90
5, 81120, Note_on_c, 2, 67, 90
5, 81120, Note_on_c, 2, 71, 90
5, 81120, Note_on_c, 2, 74, 90
5, 81328, Note_off_c, 2, 64, 0
5, 81328, Note_off_c, 2, 67, 0
5, 81328, Note_off_c, 2, 71, 0
5, 81328, Note_off_c, 2, 74, 0
5, 81408, Note_on_c, 2, 67, 82
5, 81408, Note_on_c, 2, 71, 82
5, 81408, Note_on_c, 2, 74, 82
5, 81696, Note_off_c, 2, 67, 0
5, 81696, Note_off_c, 2, 71, 0
5, 81696, Note_off_c, 2, 74, 0
5, 81792, Note_on_c, 2, 67, 87
5, 81792, Note_on_c, 2, 71, 86
5, 81792, Note_on_c, 2, 74, 86
5, 82000, Note_off_c, 2, 67, 0
5, 82000, Note_off_c, 2, 71, 0
5, 82000, Note_off_c, 2, 74, 0
5, 82080, Note_on_c, 2, 67, 88
5, 82080, Note_on_c, 2, 71, 88
5, 82080, Note_on_c, 2, 74, 88
5, 82288, Note_off_c, 2, 67, 0
5, 82288, Note_off_c, 2, 71, 0
5, 82288, Note_off_c, 2, 74, 0
5, 82368, Note_on_c, 2, 67, 86
5, 82368, Note_on_c, 2, 71, 86
5, 82368, Note_on_c, 2, 74, 86
5, 82576, Note_off_c, 2, 67, 0
5, 82576, Note_off_c, 2, 71, 0
5, 82576, Note_off_c, 2, 74, 0
5, 82656, Note_on_c, 2, 67, 90
5, 82656, Note_on_c, 2, 71, 90
5, 82656, Note_on_c, 2, 74, 90
5, 82864, Note_off_c, 2, 67, 0
5, 82864, Note_off_c, 2, 71, 0
5, 82864, Note_off_c, 2, 74, 0
5, 82944, Note_on_c, 2, 69, 82
5, 82944, Note_on_c, 2, 74, 82
5, 82944, Note_on_c, 2, 78, 82
5, 83232, Note_off_c, 2, 69, 0
5, 83232, Note_off_c, 2, 74, 0
5, 83232, Note_off_c, 2, 78, 0
5, 83328, Note_on_c, 2, 69, 87
5, 83328, Note_on_c, 2, 74, 86
5, 83328, Note_on_c, 2, 78, 86
5, 83536, Note_off_c, 2, 69, 0
5, 83536, Note_off_c, 2, 74, 0
5, 83536, Note_off_c, 2, 78, 0
5, 83616, Note_on_c, 2, 69, 88
5, 83616, Note_on_c, 2, 74, 88
5, 83616, Note_on_c, 2, 78, 88
5, 83824, Note_off_c, 2, 69, 0
5, 83824, Note_off_c, 2, 74, 0
5, 83824, Note_off_c, 2, 78, 0
5, 83904, Note_on_c, 2, 69, 86
5, 83904, Note_on_c, 2, 74, 86
5, 83904, Note_on_c, 2, 79, 86
5, 84112, Note_off_c, 2, 69, 0
5, 84112, Note_off_c, 2, 74, 0
5, 84112, Note_off_c, 2, 79, 0
5, 84192, Note_on_c, 2, 69, 90
5, 84192, Note_on_c, 2, 74, 90
5, 84192, Note_on_c, 2, 78, 90
5, 84400, Note_off_c, 2, 69, 0
5, 84400, Note_off_c, 2, 74, 0
5, 84400, Note_off_c, 2, 78, 0
5, 84480, Note_on_c, 2, 69, 82
5, 84480, Note_on_c, 2, 74, 82
5, 84480, Note_on_c, 2, 78, 82
5, 84768, Note_off_c, 2, 69, 0
5, 84768, Note_off_c, 2, 74, 0
5, 84768, Note_off_c, 2, 78, 0
5, 84864, Note_on_c, 2, 69, 87
5, 84864, Note_on_c, 2, 74, 86
5, 84864, Note_on_c, 2, 78, 86
5, 85072, Note_off_c, 2, 69, 0
5, 85072, Note_off_c, 2, 74, 0
5, 85072, Note_off_c, 2, 78, 0
5, 85152, Note_on_c, 2, 69, 88
5, 85152, Note_on_c, 2, 74, 88
5, 85152, Note_on_c, 2, 78, 88
5, 85360, Note_off_c, 2, 69, 0
5, 85360, Note_off_c, 2, 74, 0
5, 85360, Note_off_c, 2, 78, 0
5, 85440, Note_on_c, 2, 69, 86
5, 85440, Note_on_c, 2, 74, 86
5, 85440, Note_on_c, 2, 79, 86
5, 85648, Note_off_c, 2, 69, 0
5, 85648, Note_off_c, 2, 74, 0
5, 85648, Note_off_c, 2, 79, 0
5, 85728, Note_on_c, 2, 69, 90
5, 85728, Note_on_c, 2, 74, 90
5, 85728, Note_on_c, 2, 78, 90
5, 85936, Note_off_c, 2, 69, 0
5, 85936, Note_off_c, 2, 74, 0
5, 85936, Note_off_c, 2, 78, 0
5, 86016, Note_on_c, 2, 72, 82
5, 86016, Note_on_c, 2, 69, 82
5, 86016, Note_on_c, 2, 65, 82
5, 86016, Note_on_c, 2, 62, 82
5, 86304, Note_off_c, 2, 72, 0
5, 86304, Note_off_c, 2, 69, 0
5, 86304, Note_off_c, 2, 65, 0
5, 86304, Note_off_c, 2, 62, 0
5, 86400, Note_on_c, 2, 72, 86
5, 86400, Note_on_c, 2, 69, 86
5, 86400, Note_on_c, 2, 65, 86
5, 86400, Note_on_c, 2, 62, 86
5, 86608, Note_off_c, 2, 72, 0
5, 86608, Note_off_c, 2, 69, 0
5, 86608, Note_off_c, 2, 65, 0
5, 86608, Note_off_c, 2, 62, 0
5, 86688, Note_on_c, 2, 72, 88
5, 86688, Note_on_c, 2, 69, 88
5, 86688, Note_on_c, 2, 65, 88
5, 86688, Note_on_c, 2, 62, 88
5, 86896, Note_off_c, 2, 72, 0
5, 86896, Note_off_c, 2, 69, 0
5, 86896, Note_off_c, 2, 65, 0
5, 86896, Note_off_c, 2, 62, 0
5, 86976, Note_on_c, 2, 72, 86
5, 86976, Note_on_c, 2, 69, 86
5, 86976, Note_on_c, 2, 65, 86
5, 86976, Note_on_c, 2, 62, 86
5, 87184, Note_off_c, 2, 72, 0
5, 87184, Note_off_c, 2, 69, 0
5, 87184, Note_off_c, 2, 65, 0
5, 87184, Note_off_c, 2, 62, 0
5, 87264, Note_on_c, 2, 72, 90
5, 87264, Note_on_c, 2, 69, 90
5, 87264, Note_on_c, 2, 65, 90
5, 87264, Note_on_c, 2, 62, 90
5, 87472, Note_off_c, 2, 72, 0
5, 87472, Note_off_c, 2, 69, 0
5, 87472, Note_off_c, 2, 65, 0
5, 87472, Note_off_c, 2, 62, 0
5, 87552, Note_on_c, 2, 72, 82
5, 87552, Note_on_c, 2, 67, 82
5, 87552, Note_on_c, 2, 64, 82
5, 87840, Note_off_c, 2, 72, 0
5, 87840, Note_off_c, 2, 67, 0
5, 87840, Note_off_c, 2, 64, 0
5, 87936, Note_on_c, 2, 72, 86
5, 87936, Note_on_c, 2, 67, 86
5, 87936, Note_on_c, 2, 64, 86
5, 88144, Note_off_c, 2, 72, 0
5, 88144, Note_off_c, 2, 67, 0
5, 88144, Note_off_c, 2, 64, 0
5, 88224, Note_on_c, 2, 72, 88
5, 88224, Note_on_c, 2, 67, 88
5, 88224, Note_on_c, 2, 64, 88
5, 88432, Note_off_c, 2, 72, 0
5, 88432, Note_off_c, 2, 67, 0
5, 88432, Note_off_c, 2, 64, 0
5, 88512, Note_on_c, 2, 72, 86
5, 88512, Note_on_c, 2, 67, 86
5, 88512, Note_on_c, 2, 64, 86
5, 88720, Note_off_c, 2, 72, 0
5, 88720, Note_off_c, 2, 67, 0
5, 88720, Note_off_c, 2, 64, 0
5, 88800, Note_on_c, 2, 72, 90
5, 88800, Note_on_c, 2, 67, 90
5, 88800, Note_on_c, 2, 64, 90
5, 89008, Note_off_c, 2, 72, 0
5, 89008, Note_off_c, 2, 67, 0
5, 89008, Note_off_c, 2, 64, 0
5, 89088, Note_on_c, 2, 72, 82
5, 89088, Note_on_c, 2, 69, 82
5, 89088, Note_on_c, 2, 65, 82
5, 89088, Note_on_c, 2, 62, 82
5, 89376, Note_off_c, 2, 72, 0
5, 89376, Note_off_c, 2, 69, 0
5, 89376, Note_off_c, 2, 65, 0
5, 89376, Note_off_c, 2, 62, 0
5, 89472, Note_on_c, 2, 72, 86
5, 89472, Note_on_c, 2, 69, 86
5, 89472, Note_on_c, 2, 65, 86
5, 89472, Note_on_c, 2, 62, 86
5, 89680, Note_off_c, 2, 72, 0
5, 89680, Note_off_c, 2, 69, 0
5, 89680, Note_off_c, 2, 65, 0
5, 89680, Note_off_c, 2, 62, 0
5, 89760, Note_on_c, 2, 72, 88
5, 89760, Note_on_c, 2, 69, 88
5, 89760, Note_on_c, 2, 65, 88
5, 89760, Note_on_c, 2, 62, 88
5, 89968, Note_off_c, 2, 72, 0
5, 89968, Note_off_c, 2, 69, 0
5, 89968, Note_off_c, 2, 65, 0
5, 89968, Note_off_c, 2, 62, 0
5, 90048, Note_on_c, 2, 72, 86
5, 90048, Note_on_c, 2, 69, 86
5, 90048, Note_on_c, 2, 65, 86
5, 90048, Note_on_c, 2, 62, 86
5, 90256, Note_off_c, 2, 72, 0
5, 90256, Note_off_c, 2, 69, 0
5, 90256, Note_off_c, 2, 65, 0
5, 90256, Note_off_c, 2, 62, 0
5, 90336, Note_on_c, 2, 72, 90
5, 90336, Note_on_c, 2, 69, 90
5, 90336, Note_on_c, 2, 65, 90
5, 90336, Note_on_c, 2, 62, 90
5, 90544, Note_off_c, 2, 72, 0
5, 90544, Note_off_c, 2, 69, 0
5, 90544, Note_off_c, 2, 65, 0
5, 90544, Note_off_c, 2, 62, 0
5, 90624, Note_on_c, 2, 72, 82
5, 90624, Note_on_c, 2, 67, 82
5, 90624, Note_on_c, 2, 64, 82
5, 90912, Note_off_c, 2, 72, 0
5, 90912, Note_off_c, 2, 67, 0
5, 90912, Note_off_c, 2, 64, 0
5, 91008, Note_on_c, 2, 72, 86
5, 91008, Note_on_c, 2, 67, 86
5, 91008, Note_on_c, 2, 64, 86
5, 91216, Note_off_c, 2, 72, 0
5, 91216, Note_off_c, 2, 67, 0
5, 91216, Note_off_c, 2, 64, 0
5, 91296, Note_on_c, 2, 72, 88
5, 91296, Note_on_c, 2, 67, 88
5, 91296, Note_on_c, 2, 64, 88
5, 91504, Note_off_c, 2, 72, 0
5, 91504, Note_off_c, 2, 67, 0
5, 91504, Note_off_c, 2, 64, 0
5, 91584, Note_on_c, 2, 72, 86
5, 91584, Note_on_c, 2, 67, 86
5, 91584, Note_on_c, 2, 64, 86
5, 91792, Note_off_c, 2, 72, 0
5, 91792, Note_off_c, 2, 67, 0
5, 91792, Note_off_c, 2, 64, 0
5, 91872, Note_on_c, 2, 72, 90
5, 91872, Note_on_c, 2, 67, 90
5, 91872, Note_on_c, 2, 64, 90
5, 92080, Note_off_c, 2, 72, 0
5, 92080, Note_off_c, 2, 67, 0
5, 92080, Note_off_c, 2, 64, 0
5, 92160, Note_on_c, 2, 74, 82
5, 92160, Note_on_c, 2, 71, 82
5, 92160, Note_on_c, 2, 67, 82
5, 92160, Note_on_c, 2, 64, 82
5, 92448, Note_off_c, 2, 74, 0
5, 92448, Note_off_c, 2, 71, 0
5, 92448, Note_off_c, 2, 67, 0
5, 92448, Note_off_c, 2, 64, 0
5, 92544, Note_on_c, 2, 74, 86
5, 92544, Note_on_c, 2, 71, 86
5, 92544, Note_on_c, 2, 67, 86
5, 92544, Note_on_c, 2, 64, 86
5, 92752, Note_off_c, 2, 74, 0
5, 92752, Note_off_c, 2, 71, 0
5, 92752, Note_off_c, 2, 67, 0
5, 92752, Note_off_c, 2, 64, 0
5, 92832, Note_on_c, 2, 74, 88
5, 92832, Note_on_c, 2, 71, 88
5, 92832, Note_on_c, 2, 67, 88
5, 92832, Note_on_c, 2, 64, 88
5, 93040, Note_off_c, 2, 74, 0
5, 93040, Note_off_c, 2, 71, 0
5, 93040, Note_off_c, 2, 67, 0
5, 93040, Note_off_c, 2, 64, 0
5, 93120, Note_on_c, 2, 74, 86
5, 93120, Note_on_c, 2, 71, 86
5, 93120, Note_on_c, 2, 67, 86
5, 93120, Note_on_c, 2, 64, 86
5, 93328, Note_off_c, 2, 74, 0
5, 93328, Note_off_c, 2, 71, 0
5, 93328, Note_off_c, 2, 67, 0
5, 93328, Note_off_c, 2, 64, 0
5, 93408, Note_on_c, 2, 74, 90
5, 93408, Note_on_c, 2, 71, 90
5, 93408, Note_on_c, 2, 67, 90
5, 93408, Note_on_c, 2, 64, 90
5, 93616, Note_off_c, 2, 74, 0
5, 93616, Note_off_c, 2, 71, 0
5, 93616, Note_off_c, 2, 67, 0
5, 93616, Note_off_c, 2, 64, 0
5, 93696, Note_on_c, 2, 74, 82
5, 93696, Note_on_c, 2, 71, 82
5, 93696, Note_on_c, 2, 67, 82
5, 93984, Note_off_c, 2, 74, 0
5, 93984, Note_off_c, 2, 71, 0
5, 93984, Note_off_c, 2, 67, 0
5, 94080, Note_on_c, 2, 74, 86
5, 94080, Note_on_c, 2, 71, 86
5, 94080, Note_on_c, 2, 67, 86
5, 94288, Note_off_c, 2, 74, 0
5, 94288, Note_off_c, 2, 71, 0
5, 94288, Note_off_c, 2, 67, 0
5, 94368, Note_on_c, 2, 74, 88
5, 94368, Note_on_c, 2, 71, 88
5, 94368, Note_on_c, 2, 67, 88
5, 94576, Note_off_c, 2, 74, 0
5, 94576, Note_off_c, 2, 71, 0
5, 94576, Note_off_c, 2, 67, 0
5, 94656, Note_on_c, 2, 74, 86
5, 94656, Note_on_c, 2, 71, 86
5, 94656, Note_on_c, 2, 67, 86
5, 94864, Note_off_c, 2, 74, 0
5, 94864, Note_off_c, 2, 71, 0
5, 94864, Note_off_c, 2, 67, 0
5, 94944, Note_on_c, 2, 74, 90
5, 94944, Note_on_c, 2, 71, 90
5, 94944, Note_on_c, 2, 67, 90
5, 95152, Note_off_c, 2, 74, 0
5, 95152, Note_off_c, 2, 71, 0
5, 95152, Note_off_c, 2, 67, 0
5, 95232, Note_on_c, 2, 78, 82
5, 95232, Note_on_c, 2, 74, 82
5, 95232, Note_on_c, 2, 69, 82
5, 95520, Note_off_c, 2, 78, 0
5, 95520, Note_off_c, 2, 74, 0
5, 95520, Note_off_c, 2, 69, 0
5, 95616, Note_on_c, 2, 78, 86
5, 95616, Note_on_c, 2, 74, 86
5, 95616, Note_on_c, 2, 69, 86
5, 95824, Note_off_c, 2, 78, 0
5, 95824, Note_off_c, 2, 74, 0
5, 95824, Note_off_c, 2, 69, 0
5, 95904, Note_on_c, 2, 78, 88
5, 95904, Note_on_c, 2, 74, 88
5, 95904, Note_on_c, 2, 69, 88
5, 96112, Note_off_c, 2, 78, 0
5, 96112, Note_off_c, 2, 74, 0
5, 96112, Note_off_c, 2, 69, 0
5, 96192, Note_on_c, 2, 79, 86
5, 96192, Note_on_c, 2, 74, 86
5, 96192, Note_on_c, 2, 69, 86
5, 96400, Note_off_c, 2, 79, 0
5, 96400, Note_off_c, 2, 74, 0
5, 96400, Note_off_c, 2, 69, 0
5, 96480, Note_on_c, 2, 78, 90
5, 96480, Note_on_c, 2, 74, 90
5, 96480, Note_on_c, 2, 69, 90
5, 96688, Note_off_c, 2, 78, 0
5, 96688, Note_off_c, 2, 74, 0
5, 96688, Note_off_c, 2, 69, 0
5, 96768, Note_on_c, 2, 78, 82
5, 96768, Note_on_c, 2, 74, 82
5, 96768, Note_on_c, 2, 69, 82
5, 97056, Note_off_c, 2, 78, 0
5, 97056, Note_off_c, 2, 74, 0
5, 97056, Note_off_c, 2, 69, 0
5, 97152, Note_on_c, 2, 78, 86
5, 97152, Note_on_c, 2, 74, 86
5, 97152, Note_on_c, 2, 69, 86
5, 97360, Note_off_c, 2, 78, 0
5, 97360, Note_off_c, 2, 74, 0
5, 97360, Note_off_c, 2, 69, 0
5, 97440, Note_on_c, 2, 78, 88
5, 97440, Note_on_c, 2, 74, 88
5, 97440, Note_on_c, 2, 69, 88
5, 97648, Note_off_c, 2, 78, 0
5, 97648, Note_off_c, 2, 74, 0
5, 97648, Note_off_c, 2, 69, 0
5, 97728, Note_on_c, 2, 79, 86
5, 97728, Note_on_c, 2, 74, 86
5, 97728, Note_on_c, 2, 69, 86
5, 97936, Note_off_c, 2, 79, 0
5, 97936, Note_off_c, 2, 74, 0
5, 97936, Note_off_c, 2, 69, 0
5, 98016, Note_on_c, 2, 78, 90
5, 98016, Note_on_c, 2, 74, 90
5, 98016, Note_on_c, 2, 69, 90
5, 98224, Note_off_c, 2, 78, 0
5, 98224, Note_off_c, 2, 74, 0
5, 98224, Note_off_c, 2, 69, 0
5, 98304, Note_on_c, 2, 72, 82
5, 98304, Note_on_c, 2, 69, 82
5, 98304, Note_on_c, 2, 65, 82
5, 98304, Note_on_c, 2, 62, 82
5, 98592, Note_off_c, 2, 72, 0
5, 98592, Note_off_c, 2, 69, 0
5, 98592, Note_off_c, 2, 65, 0
5, 98592, Note_off_c, 2, 62, 0
5, 98688, Note_on_c, 2, 72, 86
5, 98688, Note_on_c, 2, 69, 86
5, 98688, Note_on_c, 2, 65, 86
5, 98688, Note_on_c, 2, 62, 86
5, 98896, Note_off_c, 2, 72, 0
5, 98896, Note_off_c, 2, 69, 0
5, 98896, Note_off_c, 2, 65, 0
5, 98896, Note_off_c, 2, 62, 0
5, 98976, Note_on_c, 2, 72, 88
5, 98976, Note_on_c, 2, 69, 88
5, 98976, Note_on_c, 2, 65, 88
5, 98976, Note_on_c, 2, 62, 88
5, 99184, Note_off_c, 2, 72, 0
5, 99184, Note_off_c, 2, 69, 0
5, 99184, Note_off_c, 2, 65, 0
5, 99184, Note_off_c, 2, 62, 0
5, 99264, Note_on_c, 2, 72, 86
5, 99264, Note_on_c, 2, 69, 86
5, 99264, Note_on_c, 2, 65, 86
5, 99264, Note_on_c, 2, 62, 86
5, 99472, Note_off_c, 2, 72, 0
5, 99472, Note_off_c, 2, 69, 0
5, 99472, Note_off_c, 2, 65, 0
5, 99472, Note_off_c, 2, 62, 0
5, 99552, Note_on_c, 2, 72, 90
5, 99552, Note_on_c, 2, 69, 90
5, 99552, Note_on_c, 2, 65, 90
5, 99552, Note_on_c, 2, 62, 90
5, 99760, Note_off_c, 2, 72, 0
5, 99760, Note_off_c, 2, 69, 0
5, 99760, Note_off_c, 2, 65, 0
5, 99760, Note_off_c, 2, 62, 0
5, 99840, Note_on_c, 2, 72, 82
5, 99840, Note_on_c, 2, 67, 82
5, 99840, Note_on_c, 2, 64, 82
5, 100128, Note_off_c, 2, 72, 0
5, 100128, Note_off_c, 2, 67, 0
5, 100128, Note_off_c, 2, 64, 0
5, 100224, Note_on_c, 2, 72, 86
5, 100224, Note_on_c, 2, 67, 86
5, 100224, Note_on_c, 2, 64, 86
5, 100432, Note_off_c, 2, 72, 0
5, 100432, Note_off_c, 2, 67, 0
5, 100432, Note_off_c, 2, 64, 0
5, 100512, Note_on_c, 2, 72, 88
5, 100512, Note_on_c, 2, 67, 88
5, 100512, Note_on_c, 2, 64, 88
5, 100720, Note_off_c, 2, 72, 0
5, 100720, Note_off_c, 2, 67, 0
5, 100720, Note_off_c, 2, 64, 0
5, 100800, Note_on_c, 2, 72, 86
5, 100800, Note_on_c, 2, 67, 86
5, 100800, Note_on_c, 2, 64, 86
5, 101008, Note_off_c, 2, 72, 0
5, 101008, Note_off_c, 2, 67, 0
5, 101008, Note_off_c, 2, 64, 0
5, 101088, Note_on_c, 2, 72, 90
5, 101088, Note_on_c, 2, 67, 90
5, 101088, Note_on_c, 2, 64, 90
5, 101296, Note_off_c, 2, 72, 0
5, 101296, Note_off_c, 2, 67, 0
5, 101296, Note_off_c, 2, 64, 0
5, 101376, Note_on_c, 2, 72, 82
5, 101376, Note_on_c, 2, 69, 82
5, 101376, Note_on_c, 2, 65, 82
5, 101376, Note_on_c, 2, 62, 82
5, 101664, Note_off_c, 2, 72, 0
5, 101664, Note_off_c, 2, 69, 0
5, 101664, Note_off_c, 2, 65, 0
5, 101664, Note_off_c, 2, 62, 0
5, 101760, Note_on_c, 2, 72, 86
5, 101760, Note_on_c, 2, 69, 86
5, 101760, Note_on_c, 2, 65, 86
5, 101760, Note_on_c, 2, 62, 86
5, 101968, Note_off_c, 2, 72, 0
5, 101968, Note_off_c, 2, 69, 0
5, 101968, Note_off_c, 2, 65, 0
5, 101968, Note_off_c, 2, 62, 0
5, 102048, Note_on_c, 2, 72, 88
5, 102048, Note_on_c, 2, 69, 88
5, 102048, Note_on_c, 2, 65, 88
5, 102048, Note_on_c, 2, 62, 88
5, 102256, Note_off_c, 2, 72, 0
5, 102256, Note_off_c, 2, 69, 0
5, 102256, Note_off_c, 2, 65, 0
5, 102256, Note_off_c, 2, 62, 0
5, 102336, Note_on_c, 2, 72, 86
5, 102336, Note_on_c, 2, 69, 86
5, 102336, Note_on_c, 2, 65, 86
5, 102336, Note_on_c, 2, 62, 86
5, 102544, Note_off_c, 2, 72, 0
5, 102544, Note_off_c, 2, 69, 0
5, 102544, Note_off_c, 2, 65, 0
5, 102544, Note_off_c, 2, 62, 0
5, 102624, Note_on_c, 2, 72, 90
5, 102624, Note_on_c, 2, 69, 90
5, 102624, Note_on_c, 2, 65, 90
5, 102624, Note_on_c, 2, 62, 90
5, 102832, Note_off_c, 2, 72, 0
5, 102832, Note_off_c, 2, 69, 0
5, 102832, Note_off_c, 2, 65, 0
5, 102832, Note_off_c, 2, 62, 0
5, 102912, Note_on_c, 2, 72, 82
5, 102912, Note_on_c, 2, 67, 82
5, 102912, Note_on_c, 2, 64, 82
5, 103200, Note_off_c, 2, 72, 0
5, 103200, Note_off_c, 2, 67, 0
5, 103200, Note_off_c, 2, 64, 0
5, 103296, Note_on_c, 2, 72, 86
5, 103296, Note_on_c, 2, 67, 86
5, 103296, Note_on_c, 2, 64, 86
5, 103504, Note_off_c, 2, 72, 0
5, 103504, Note_off_c, 2, 67, 0
5, 103504, Note_off_c, 2, 64, 0
5, 103584, Note_on_c, 2, 72, 88
5, 103584, Note_on_c, 2, 67, 88
5, 103584, Note_on_c, 2, 64, 88
5, 103792, Note_off_c, 2, 72, 0
5, 103792, Note_off_c, 2, 67, 0
5, 103792, Note_off_c, 2, 64, 0
5, 103872, Note_on_c, 2, 72, 86
5, 103872, Note_on_c, 2, 67, 86
5, 103872, Note_on_c, 2, 64, 86
5, 104080, Note_off_c, 2, 72, 0
5, 104080, Note_off_c, 2, 67, 0
5, 104080, Note_off_c, 2, 64, 0
5, 104160, Note_on_c, 2, 72, 90
5, 104160, Note_on_c, 2, 67, 90
5, 104160, Note_on_c, 2, 64, 90
5, 104368, Note_off_c, 2, 72, 0
5, 104368, Note_off_c, 2, 67, 0
5, 104368, Note_off_c, 2, 64, 0
5, 104448, Note_on_c, 2, 74, 82
5, 104448, Note_on_c, 2, 71, 82
5, 104448, Note_on_c, 2, 67, 82
5, 104448, Note_on_c, 2, 64, 82
5, 104736, Note_off_c, 2, 74, 0
5, 104736, Note_off_c, 2, 71, 0
5, 104736, Note_off_c, 2, 67, 0
5, 104736, Note_off_c, 2, 64, 0
5, 104832, Note_on_c, 2, 74, 86
5, 104832, Note_on_c, 2, 71, 86
5, 104832, Note_on_c, 2, 67, 86
5, 104832, Note_on_c, 2, 64, 86
5, 105040, Note_off_c, 2, 74, 0
5, 105040, Note_off_c, 2, 71, 0
5, 105040, Note_off_c, 2, 67, 0
5, 105040, Note_off_c, 2, 64, 0
5, 105120, Note_on_c, 2, 74, 88
5, 105120, Note_on_c, 2, 71, 88
5, 105120, Note_on_c, 2, 67, 88
5, 105120, Note_on_c, 2, 64, 88
5, 105328, Note_off_c, 2, 74, 0
5, 105328, Note_off_c, 2, 71, 0
5, 105328, Note_off_c, 2, 67, 0
5, 105328, Note_off_c, 2, 64, 0
5, 105408, Note_on_c, 2, 74, 86
5, 105408, Note_on_c, 2, 71, 86
5, 105408, Note_on_c, 2, 67, 86
5, 105408, Note_on_c, 2, 64, 86
5, 105616, Note_off_c, 2, 74, 0
5, 105616, Note_off_c, 2, 71, 0
5, 105616, Note_off_c, 2, 67, 0
5, 105616, Note_off_c, 2, 64, 0
5, 105696, Note_on_c, 2, 74, 90
5, 105696, Note_on_c, 2, 71, 90
5, 105696, Note_on_c, 2, 67, 90
5, 105696, Note_on_c, 2, 64, 90
5, 105904, Note_off_c, 2, 74, 0
5, 105904, Note_off_c, 2, 71, 0
5, 105904, Note_off_c, 2, 67, 0
5, 105904, Note_off_c, 2, 64, 0
5, 105984, Note_on_c, 2, 74, 82
5, 105984, Note_on_c, 2, 71, 82
5, 105984, Note_on_c, 2, 67, 82
5, 106272, Note_off_c, 2, 74, 0
5, 106272, Note_off_c, 2, 71, 0
5, 106272, Note_off_c, 2, 67, 0
5, 106368, Note_on_c, 2, 74, 86
5, 106368, Note_on_c, 2, 71, 86
5, 106368, Note_on_c, 2, 67, 86
5, 106576, Note_off_c, 2, 74, 0
5, 106576, Note_off_c, 2, 71, 0
5, 106576, Note_off_c, 2, 67, 0
5, 106656, Note_on_c, 2, 74, 88
5, 106656, Note_on_c, 2, 71, 88
5, 106656, Note_on_c, 2, 67, 88
5, 106864, Note_off_c, 2, 74, 0
5, 106864, Note_off_c, 2, 71, 0
5, 106864, Note_off_c, 2, 67, 0
5, 106944, Note_on_c, 2, 74, 86
5, 106944, Note_on_c, 2, 71, 86
5, 106944, Note_on_c, 2, 67, 86
5, 107152, Note_off_c, 2, 74, 0
5, 107152, Note_off_c, 2, 71, 0
5, 107152, Note_off_c, 2, 67, 0
5, 107232, Note_on_c, 2, 74, 90
5, 107232, Note_on_c, 2, 71, 90
5, 107232, Note_on_c, 2, 67, 90
5, 107440, Note_off_c, 2, 74, 0
5, 107440, Note_off_c, 2, 71, 0
5, 107440, Note_off_c, 2, 67, 0
5, 107520, Note_on_c, 2, 76, 82
5, 107520, Note_on_c, 2, 73, 82
5, 107520, Note_on_c, 2, 69, 82
5, 107808, Note_off_c, 2, 76, 0
5, 107808, Note_off_c, 2, 73, 0
5, 107808, Note_off_c, 2, 69, 0
5, 107904, Note_on_c, 2, 76, 86
5, 107904, Note_on_c, 2, 73, 86
5, 107904, Note_on_c, 2, 69, 86
5, 108064, Note_off_c, 2, 76, 0
5, 108064, Note_off_c, 2, 73, 0
5, 108064, Note_off_c, 2, 69, 0
5, 108096, Note_on_c, 2, 69, 93
5, 108176, Note_off_c, 2, 69, 0
5, 108192, Note_on_c, 2, 76, 89
5, 108192, Note_on_c, 2, 73, 89
5, 108192, Note_on_c, 2, 69, 89
5, 108352, Note_off_c, 2, 76, 0
5, 108352, Note_off_c, 2, 73, 0
5, 108352, Note_off_c, 2, 69, 0
5, 108384, Note_on_c, 2, 69, 93
5, 108464, Note_off_c, 2, 69, 0
5, 108480, Note_on_c, 2, 76, 87
5, 108480, Note_on_c, 2, 73, 87
5, 108480, Note_on_c, 2, 69, 87
5, 108640, Note_off_c, 2, 76, 0
5, 108640, Note_off_c, 2, 73, 0
5, 108640, Note_off_c, 2, 69, 0
5, 108672, Note_on_c, 2, 69, 87
5, 108768, Note_on_c, 2, 76, 87
5, 108768, Note_on_c, 2, 73, 87
5, 108768, Note_on_c, 2, 69, 87
5, 108880, Note_off_c, 2, 69, 0
5, 108976, Note_off_c, 2, 76, 0
5, 108976, Note_off_c, 2, 73, 0
5, 108976, Note_off_c, 2, 69, 0
5, 109056, Note_on_c, 2, 74, 98
5, 109056, Note_on_c, 2, 55, 98
5, 109056, Note_on_c, 2, 67, 98
5, 109056, Note_on_c, 2, 71, 98
5, 109344, Note_off_c, 2, 74, 0
5, 109344, Note_off_c, 2, 55, 0
5, 109344, Note_off_c, 2, 67, 0
5, 109344, Note_off_c, 2, 71, 0
5, 110592, Note_on_c, 2, 78, 82
5, 110592, Note_on_c, 2, 74, 82
5, 110592, Note_on_c, 2, 69, 82
5, 110880, Note_off_c, 2, 78, 0
5, 110880, Note_off_c, 2, 74, 0
5, 110880, Note_off_c, 2, 69, 0
5, 110976, Note_on_c, 2, 78, 86
5, 110976, Note_on_c, 2, 74, 86
5, 110976, Note_on_c, 2, 69, 86
5, 111136, Note_off_c, 2, 78, 0
5, 111136, Note_off_c, 2, 74, 0
5, 111136, Note_off_c, 2, 69, 0
5, 111168, Note_on_c, 2, 62, 93
5, 111248, Note_off_c, 2, 62, 0
5, 111264, Note_on_c, 2, 78, 89
5, 111264, Note_on_c, 2, 74, 89
5, 111264, Note_on_c, 2, 69, 89
5, 111424, Note_off_c, 2, 78, 0
5, 111424, Note_off_c, 2, 74, 0
5, 111424, Note_off_c, 2, 69, 0
5, 111456, Note_on_c, 2, 62, 93
5, 111536, Note_off_c, 2, 62, 0
5, 111552, Note_on_c, 2, 78, 87
5, 111552, Note_on_c, 2, 74, 87
5, 111552, Note_on_c, 2, 69, 87
5, 111712, Note_off_c, 2, 78, 0
5, 111712, Note_off_c, 2, 74, 0
5, 111712, Note_off_c, 2, 69, 0
5, 111744, Note_on_c, 2, 62, 91
5, 111824, Note_off_c, 2, 62, 0
5, 111840, Note_on_c, 2, 78, 87
5, 111840, Note_on_c, 2, 74, 87
5, 111840, Note_on_c, 2, 69, 87
5, 112048, Note_off_c, 2, 78, 0
5, 112048, Note_off_c, 2, 74, 0
5, 112048, Note_off_c, 2, 69, 0
5, 112128, Note_on_c, 2, 78, 82
5, 112128, Note_on_c, 2, 74, 82
5, 112128, Note_on_c, 2, 69, 82
5, 112416, Note_off_c, 2, 78, 0
5, 112416, Note_off_c, 2, 74, 0
5, 112416, Note_off_c, 2, 69, 0
5, 112512, Note_on_c, 2, 78, 86
5, 112512, Note_on_c, 2, 74, 86
5, 112512, Note_on_c, 2, 69, 86
5, 112672, Note_off_c, 2, 78, 0
5, 112672, Note_off_c, 2, 74, 0
5, 112672, Note_off_c, 2, 69, 0
5, 112704, Note_on_c, 2, 62, 93
5, 112784, Note_off_c, 2, 62, 0
5, 112800, Note_on_c, 2, 78, 89
5, 112800, Note_on_c, 2, 74, 89
5, 112800, Note_on_c, 2, 69, 89
5, 112960, Note_off_c, 2, 78, 0
5, 112960, Note_off_c, 2, 74, 0
5, 112960, Note_off_c, 2, 69, 0
5, 112992, Note_on_c, 2, 62, 93
5, 113072, Note_off_c, 2, 62, 0
5, 113088, Note_on_c, 2, 78, 87
5, 113088, Note_on_c, 2, 74, 87
5, 113088, Note_on_c, 2, 69, 87
5, 113248, Note_off_c, 2, 78, 0
5, 113248, Note_off_c, 2, 74, 0
5, 113248, Note_off_c, 2, 69, 0
5, 113280, Note_on_c, 2, 62, 91
5, 113360, Note_off_c, 2, 62, 0
5, 113376, Note_on_c, 2, 78, 87
5, 113376, Note_on_c, 2, 74, 87
5, 113376, Note_on_c, 2, 69, 87
5, 113584, Note_off_c, 2, 78, 0
5, 113584, Note_off_c, 2, 74, 0
5, 113584, Note_off_c, 2, 69, 0
5, 113664, Note_on_c, 2, 78, 82
5, 113664, Note_on_c, 2, 74, 82
5, 113664, Note_on_c, 2, 69, 82
5, 113952, Note_off_c, 2, 78, 0
5, 113952, Note_off_c, 2, 74, 0
5, 113952, Note_off_c, 2, 69, 0
5, 114048, Note_on_c, 2, 78, 86
5, 114048, Note_on_c, 2, 74, 86
5, 114048, Note_on_c, 2, 69, 86
5, 114208, Note_off_c, 2, 78, 0
5, 114208, Note_off_c, 2, 74, 0
5, 114208, Note_off_c, 2, 69, 0
5, 114240, Note_on_c, 2, 62, 93
5, 114320, Note_off_c, 2, 62, 0
5, 114336, Note_on_c, 2, 78, 89
5, 114336, Note_on_c, 2, 74, 89
5, 114336, Note_on_c, 2, 69, 89
5, 114496, Note_off_c, 2, 78, 0
5, 114496, Note_off_c, 2, 74, 0
5, 114496, Note_off_c, 2, 69, 0
5, 114528, Note_on_c, 2, 62, 93
5, 114608, Note_off_c, 2, 62, 0
5, 114624, Note_on_c, 2, 78, 87
5, 114624, Note_on_c, 2, 74, 87
5, 114624, Note_on_c, 2, 69, 87
5, 114784, Note_off_c, 2, 78, 0
5, 114784, Note_off_c, 2, 74, 0
5, 114784, Note_off_c, 2, 69, 0
5, 114816, Note_on_c, 2, 62, 91
5, 114896, Note_off_c, 2, 62, 0
5, 114912, Note_on_c, 2, 78, 87
5, 114912, Note_on_c, 2, 74, 87
5, 114912, Note_on_c, 2, 69, 87
5, 115120, Note_off_c, 2, 78, 0
5, 115120, Note_off_c, 2, 74, 0
5, 115120, Note_off_c, 2, 69, 0
5, 115200, Note_on_c, 2, 78, 82
5, 115200, Note_on_c, 2, 74, 82
5, 115200, Note_on_c, 2, 69, 82
5, 115488, Note_off_c, 2, 78, 0
5, 115488, Note_off_c, 2, 74, 0
5, 115488, Note_off_c, 2, 69, 0
5, 115584, Note_on_c, 2, 78, 86
5, 115584, Note_on_c, 2, 74, 86
5, 115584, Note_on_c, 2, 69, 86
5, 115744, Note_off_c, 2, 78, 0
5, 115744, Note_off_c, 2, 74, 0
5, 115744, Note_off_c, 2, 69, 0
5, 115776, Note_on_c, 2, 62, 93
5, 115856, Note_off_c, 2, 62, 0
5, 115872, Note_on_c, 2, 78, 89
5, 115872, Note_on_c, 2, 74, 89
5, 115872, Note_on_c, 2, 69, 89
5, 116032, Note_off_c, 2, 78, 0
5, 116032, Note_off_c, 2, 74, 0
5, 116032, Note_off_c, 2, 69, 0
5, 116064, Note_on_c, 2, 62, 93
5, 116144, Note_off_c, 2, 62, 0
5, 116160, Note_on_c, 2, 78, 87
5, 116160, Note_on_c, 2, 74, 87
5, 116160, Note_on_c, 2, 69, 87
5, 116320, Note_off_c, 2, 78, 0
5, 116320, Note_off_c, 2, 74, 0
5, 116320, Note_off_c, 2, 69, 0
5, 116352, Note_on_c, 2, 62, 91
5, 116432, Note_off_c, 2, 62, 0
5, 116448, Note_on_c, 2, 78, 87
5, 116448, Note_on_c, 2, 74, 87
5, 116448, Note_on_c, 2, 69, 87
5, 116656, Note_off_c, 2, 78, 0
5, 116656, Note_off_c, 2, 74, 0
5, 116656, Note_off_c, 2, 69, 0
5, 116736, Note_on_c, 2, 76, 82
5, 116736, Note_on_c, 2, 72, 82
5, 116736, Note_on_c, 2, 67, 82
5, 117024, Note_off_c, 2, 76, 0
5, 117024, Note_off_c, 2, 72, 0
5, 117024, Note_off_c, 2, 67, 0
5, 117120, Note_on_c, 2, 76, 86
5, 117120, Note_on_c, 2, 72, 86
5, 117120, Note_on_c, 2, 67, 86
5, 117280, Note_off_c, 2, 76, 0
5, 117280, Note_off_c, 2, 72, 0
5, 117280, Note_off_c, 2, 67, 0
5, 117312, Note_on_c, 2, 60, 93
5, 117392, Note_off_c, 2, 60, 0
5, 117408, Note_on_c, 2, 76, 89
5, 117408, Note_on_c, 2, 72, 89
5, 117408, Note_on_c, 2, 67, 89
5, 117568, Note_off_c, 2, 76, 0
5, 117568, Note_off_c, 2, 72, 0
5, 117568, Note_off_c, 2, 67, 0
5, 117600, Note_on_c, 2, 60, 93
5, 117680, Note_off_c, 2, 60, 0
5, 117696, Note_on_c, 2, 76, 87
5, 117696, Note_on_c, 2, 72, 87
5, 117696, Note_on_c, 2, 67, 87
5, 117856, Note_off_c, 2, 76, 0
5, 117856, Note_off_c, 2, 72, 0
5, 117856, Note_off_c, 2, 67, 0
5, 117888, Note_on_c, 2, 60, 91
5, 117968, Note_off_c, 2, 60, 0
5, 117984, Note_on_c, 2, 76, 87
5, 117984, Note_on_c, 2, 72, 87
5, 117984, Note_on_c, 2, 67, 87
5, 118192, Note_off_c, 2, 76, 0
5, 118192, Note_off_c, 2, 72, 0
5, 118192, Note_off_c, 2, 67, 0
5, 118272, Note_on_c, 2, 74, 82
5, 118272, Note_on_c, 2, 71, 82
5, 118272, Note_on_c, 2, 67, 82
5, 118560, Note_off_c, 2, 74, 0
5, 118560, Note_off_c, 2, 71, 0
5, 118560, Note_off_c, 2, 67, 0
5, 118656, Note_on_c, 2, 74, 86
5, 118656, Note_on_c, 2, 71, 86
5, 118656, Note_on_c, 2, 67, 86
5, 118816, Note_off_c, 2, 74, 0
5, 118816, Note_off_c, 2, 71, 0
5, 118816, Note_off_c, 2, 67, 0
5, 118848, Note_on_c, 2, 64, 93
5, 118928, Note_off_c, 2, 64, 0
5, 118944, Note_on_c, 2, 74, 89
5, 118944, Note_on_c, 2, 71, 89
5, 118944, Note_on_c, 2, 67, 89
5, 119104, Note_off_c, 2, 74, 0
5, 119104, Note_off_c, 2, 71, 0
5, 119104, Note_off_c, 2, 67, 0
5, 119136, Note_on_c, 2, 64, 93
5, 119216, Note_off_c, 2, 64, 0
5, 119232, Note_on_c, 2, 74, 87
5, 119232, Note_on_c, 2, 71, 87
5, 119232, Note_on_c, 2, 67, 87
5, 119392, Note_off_c, 2, 74, 0
5, 119392, Note_off_c, 2, 71, 0
5, 119392, Note_off_c, 2, 67, 0
5, 119424, Note_on_c, 2, 64, 91
5, 119504, Note_off_c, 2, 64, 0
5, 119520, Note_on_c, 2, 74, 87
5, 119520, Note_on_c, 2, 71, 87
5, 119520, Note_on_c, 2, 67, 87
5, 119728, Note_off_c, 2, 74, 0
5, 119728, Note_off_c, 2, 71, 0
5, 119728, Note_off_c, 2, 67, 0
5, 119808, Note_on_c, 2, 74, 82
5, 119808, Note_on_c, 2, 71, 82
5, 119808, Note_on_c, 2, 79, 82
5, 120096, Note_off_c, 2, 74, 0
5, 120096, Note_off_c, 2, 71, 0
5, 120096, Note_off_c, 2, 79, 0
5, 120192, Note_on_c, 2, 74, 86
5, 120192, Note_on_c, 2, 71, 86
5, 120192, Note_on_c, 2, 79, 86
5, 120352, Note_off_c, 2, 74, 0
5, 120352, Note_off_c, 2, 71, 0
5, 120352, Note_off_c, 2, 79, 0
5, 120384, Note_on_c, 2, 67, 93
5, 120464, Note_off_c, 2, 67, 0
5, 120480, Note_on_c, 2, 74, 89
5, 120480, Note_on_c, 2, 71, 89
5, 120480, Note_on_c, 2, 79, 89
5, 120640, Note_off_c, 2, 74, 0
5, 120640, Note_off_c, 2, 71, 0
5, 120640, Note_off_c, 2, 79, 0
5, 120672, Note_on_c, 2, 67, 93
5, 120752, Note_off_c, 2, 67, 0
5, 120768, Note_on_c, 2, 74, 87
5, 120768, Note_on_c, 2, 71, 87
5, 120768, Note_on_c, 2, 79, 87
5, 120928, Note_off_c, 2, 74, 0
5, 120928, Note_off_c, 2, 71, 0
5, 120928, Note_off_c, 2, 79, 0
5, 120960, Note_on_c, 2, 67, 91
5, 121040, Note_off_c, 2, 67, 0
5, 121056, Note_on_c, 2, 74, 87
5, 121056, Note_on_c, 2, 71, 87
5, 121056, Note_on_c, 2, 79, 87
5, 121264, Note_off_c, 2, 74, 0
5, 121264, Note_off_c, 2, 71, 0
5, 121264, Note_off_c, 2, 79, 0
5, 121344, Note_on_c, 2, 74, 82
5, 121344, Note_on_c, 2, 71, 82
5, 121344, Note_on_c, 2, 79, 82
5, 121632, Note_off_c, 2, 74, 0
5, 121632, Note_off_c, 2, 71, 0
5, 121632, Note_off_c, 2, 79, 0
5, 121728, Note_on_c, 2, 74, 86
5, 121728, Note_on_c, 2, 71, 86
5, 121728, Note_on_c, 2, 79, 86
5, 121888, Note_off_c, 2, 74, 0
5, 121888, Note_off_c, 2, 71, 0
5, 121888, Note_off_c, 2, 79, 0
5, 121920, Note_on_c, 2, 67, 93
5, 122000, Note_off_c, 2, 67, 0
5, 122016, Note_on_c, 2, 74, 89
5, 122016, Note_on_c, 2, 71, 89
5, 122016, Note_on_c, 2, 79, 89
5, 122176, Note_off_c, 2, 74, 0
5, 122176, Note_off_c, 2, 71, 0
5, 122176, Note_off_c, 2, 79, 0
5, 122208, Note_on_c, 2, 67, 93
5, 122288, Note_off_c, 2, 67, 0
5, 122304, Note_on_c, 2, 74, 87
5, 122304, Note_on_c, 2, 71, 87
5, 122304, Note_on_c, 2, 79, 87
5, 122464, Note_off_c, 2, 74, 0
5, 122464, Note_off_c, 2, 71, 0
5, 122464, Note_off_c, 2, 79, 0
5, 122496, Note_on_c, 2, 67, 91
5, 122576, Note_off_c, 2, 67, 0
5, 122592, Note_on_c, 2, 74, 87
5, 122592, Note_on_c, 2, 71, 87
5, 122592, Note_on_c, 2, 79, 87
5, 122800, Note_off_c, 2, 74, 0
5, 122800, Note_off_c, 2, 71, 0
5, 122800, Note_off_c, 2, 79, 0
5, 122880, Note_on_c, 2, 78, 82
5, 122880, Note_on_c, 2, 74, 82
5, 122880, Note_on_c, 2, 69, 82
5, 123168, Note_off_c, 2, 78, 0
5, 123168, Note_off_c, 2, 74, 0
5, 123168, Note_off_c, 2, 69, 0
5, 123264, Note_on_c, 2, 78, 86
5, 123264, Note_on_c, 2, 74, 86
5, 123264, Note_on_c, 2, 69, 86
5, 123424, Note_off_c, 2, 78, 0
5, 123424, Note_off_c, 2, 74, 0
5, 123424, Note_off_c, 2, 69, 0
5, 123456, Note_on_c, 2, 62, 93
5, 123536, Note_off_c, 2, 62, 0
5, 123552, Note_on_c, 2, 78, 89
5, 123552, Note_on_c, 2, 74, 89
5, 123552, Note_on_c, 2, 69, 89
5, 123712, Note_off_c, 2, 78, 0
5, 123712, Note_off_c, 2, 74, 0
5, 123712, Note_off_c, 2, 69, 0
5, 123744, Note_on_c, 2, 62, 93
5, 123824, Note_off_c, 2, 62, 0
5, 123840, Note_on_c, 2, 78, 87
5, 123840, Note_on_c, 2, 74, 87
5, 123840, Note_on_c, 2, 69, 87
5, 124000, Note_off_c, 2, 78, 0
5, 124000, Note_off_c, 2, 74, 0
5, 124000, Note_off_c, 2, 69, 0
5, 124032, Note_on_c, 2, 62, 91
5, 124112, Note_off_c, 2, 62, 0
5, 124128, Note_on_c, 2, 78, 87
5, 124128, Note_on_c, 2, 74, 87
5, 124128, Note_on_c, 2, 69, 87
5, 124336, Note_off_c, 2, 78, 0
5, 124336, Note_off_c, 2, 74, 0
5, 124336, Note_off_c, 2, 69, 0
5, 124416, Note_on_c, 2, 78, 82
5, 124416, Note_on_c, 2, 74, 82
5, 124416, Note_on_c, 2, 69, 82
5, 124704, Note_off_c, 2, 78, 0
5, 124704, Note_off_c, 2, 74, 0
5, 124704, Note_off_c, 2, 69, 0
5, 124800, Note_on_c, 2, 78, 86
5, 124800, Note_on_c, 2, 74, 86
5, 124800, Note_on_c, 2, 69, 86
5, 124960, Note_off_c, 2, 78, 0
5, 124960, Note_off_c, 2, 74, 0
5, 124960, Note_off_c, 2, 69, 0
5, 124992, Note_on_c, 2, 62, 93
5, 125072, Note_off_c, 2, 62, 0
5, 125088, Note_on_c, 2, 78, 89
5, 125088, Note_on_c, 2, 74, 89
5, 125088, Note_on_c, 2, 69, 89
5, 125248, Note_off_c, 2, 78, 0
5, 125248, Note_off_c, 2, 74, 0
5, 125248, Note_off_c, 2, 69, 0
5, 125280, Note_on_c, 2, 62, 93
5, 125360, Note_off_c, 2, 62, 0
5, 125376, Note_on_c, 2, 78, 87
5, 125376, Note_on_c, 2, 74, 87
5, 125376, Note_on_c, 2, 69, 87
5, 125536, Note_off_c, 2, 78, 0
5, 125536, Note_off_c, 2, 74, 0
5, 125536, Note_off_c, 2, 69, 0
5, 125568, Note_on_c, 2, 62, 91
5, 125648, Note_off_c, 2, 62, 0
5, 125664, Note_on_c, 2, 78, 87
5, 125664, Note_on_c, 2, 74, 87
5, 125664, Note_on_c, 2, 69, 87
5, 125872, Note_off_c, 2, 78, 0
5, 125872, Note_off_c, 2, 74, 0
5, 125872, Note_off_c, 2, 69, 0
5, 125952, Note_on_c, 2, 78, 82
5, 125952, Note_on_c, 2, 74, 82
5, 125952, Note_on_c, 2, 69, 82
5, 126240, Note_off_c, 2, 78, 0
5, 126240, Note_off_c, 2, 74, 0
5, 126240, Note_off_c, 2, 69, 0
5, 126336, Note_on_c, 2, 78, 86
5, 126336, Note_on_c, 2, 74, 86
5, 126336, Note_on_c, 2, 69, 86
5, 126496, Note_off_c, 2, 78, 0
5, 126496, Note_off_c, 2, 74, 0
5, 126496, Note_off_c, 2, 69, 0
5, 126528, Note_on_c, 2, 62, 93
5, 126608, Note_off_c, 2, 62, 0
5, 126624, Note_on_c, 2, 78, 89
5, 126624, Note_on_c, 2, 74, 89
5, 126624, Note_on_c, 2, 69, 89
5, 126784, Note_off_c, 2, 78, 0
5, 126784, Note_off_c, 2, 74, 0
5, 126784, Note_off_c, 2, 69, 0
5, 126816, Note_on_c, 2, 62, 93
5, 126896, Note_off_c, 2, 62, 0
5, 126912, Note_on_c, 2, 78, 87
5, 126912, Note_on_c, 2, 74, 87
5, 126912, Note_on_c, 2, 69, 87
5, 127072, Note_off_c, 2, 78, 0
5, 127072, Note_off_c, 2, 74, 0
5, 127072, Note_off_c, 2, 69, 0
5, 127104, Note_on_c, 2, 62, 91
5, 127184, Note_off_c, 2, 62, 0
5, 127200, Note_on_c, 2, 78, 87
5, 127200, Note_on_c, 2, 74, 87
5, 127200, Note_on_c, 2, 69, 87
5, 127408, Note_off_c, 2, 78, 0
5, 127408, Note_off_c, 2, 74, 0
5, 127408, Note_off_c, 2, 69, 0
5, 127488, Note_on_c, 2, 78, 82
5, 127488, Note_on_c, 2, 74, 82
5, 127488, Note_on_c, 2, 69, 82
5, 127776, Note_off_c, 2, 78, 0
5, 127776, Note_off_c, 2, 74, 0
5, 127776, Note_off_c, 2, 69, 0
5, 127872, Note_on_c, 2, 78, 86
5, 127872, Note_on_c, 2, 74, 86
5, 127872, Note_on_c, 2, 69, 86
5, 128032, Note_off_c, 2, 78, 0
5, 128032, Note_off_c, 2, 74, 0
5, 128032, Note_off_c, 2, 69, 0
5, 128064, Note_on_c, 2, 62, 93
5, 128144, Note_off_c, 2, 62, 0
5, 128160, Note_on_c, 2, 78, 89
5, 128160, Note_on_c, 2, 74, 89
5, 128160, Note_on_c, 2, 69, 89
5, 128320, Note_off_c, 2, 78, 0
5, 128320, Note_off_c, 2, 74, 0
5, 128320, Note_off_c, 2, 69, 0
5, 128352, Note_on_c, 2, 62, 93
5, 128432, Note_off_c, 2, 62, 0
5, 128448, Note_on_c, 2, 78, 87
5, 128448, Note_on_c, 2, 74, 87
5, 128448, Note_on_c, 2, 69, 87
5, 128608, Note_off_c, 2, 78, 0
5, 128608, Note_off_c, 2, 74, 0
5, 128608, Note_off_c, 2, 69, 0
5, 128640, Note_on_c, 2, 62, 91
5, 128720, Note_off_c, 2, 62, 0
5, 128736, Note_on_c, 2, 78, 87
5, 128736, Note_on_c, 2, 74, 87
5, 128736, Note_on_c, 2, 69, 87
5, 128944, Note_off_c, 2, 78, 0
5, 128944, Note_off_c, 2, 74, 0
5, 128944, Note_off_c, 2, 69, 0
5, 129024, Note_on_c, 2, 76, 82
5, 129024, Note_on_c, 2, 72, 82
5, 129024, Note_on_c, 2, 67, 82
5, 129312, Note_off_c, 2, 76, 0
5, 129312, Note_off_c, 2, 72, 0
5, 129312, Note_off_c, 2, 67, 0
5, 129408, Note_on_c, 2, 76, 86
5, 129408, Note_on_c, 2, 72, 86
5, 129408, Note_on_c, 2, 67, 86
5, 129568, Note_off_c, 2, 76, 0
5, 129568, Note_off_c, 2, 72, 0
5, 129568, Note_off_c, 2, 67, 0
5, 129600, Note_on_c, 2, 60, 93
5, 129680, Note_off_c, 2, 60, 0
5, 129696, Note_on_c, 2, 76, 89
5, 129696, Note_on_c, 2, 72, 89
5, 129696, Note_on_c, 2, 67, 89
5, 129856, Note_off_c, 2, 76, 0
5, 129856, Note_off_c, 2, 72, 0
5, 129856, Note_off_c, 2, 67, 0
5, 129888, Note_on_c, 2, 60, 93
5, 129968, Note_off_c, 2, 60, 0
5, 129984, Note_on_c, 2, 76, 87
5, 129984, Note_on_c, 2, 72, 87
5, 129984, Note_on_c, 2, 67, 87
5, 130144, Note_off_c, 2, 76, 0
5, 130144, Note_off_c, 2, 72, 0
5, 130144, Note_off_c, 2, 67, 0
5, 130176, Note_on_c, 2, 60, 91
5, 130256, Note_off_c, 2, 60, 0
5, 130272, Note_on_c, 2, 76, 87
5, 130272, Note_on_c, 2, 72, 87
5, 130272, Note_on_c, 2, 67, 87
5, 130480, Note_off_c, 2, 76, 0
5, 130480, Note_off_c, 2, 72, 0
5, 130480, Note_off_c, 2, 67, 0
5, 130560, Note_on_c, 2, 74, 82
5, 130560, Note_on_c, 2, 71, 82
5, 130560, Note_on_c, 2, 67, 82
5, 130848, Note_off_c, 2, 74, 0
5, 130848, Note_off_c, 2, 71, 0
5, 130848, Note_off_c, 2, 67, 0
5, 130944, Note_on_c, 2, 74, 86
5, 130944, Note_on_c, 2, 71, 86
5, 130944, Note_on_c, 2, 67, 86
5, 131104, Note_off_c, 2, 74, 0
5, 131104, Note_off_c, 2, 71, 0
5, 131104, Note_off_c, 2, 67, 0
5, 131136, Note_on_c, 2, 64, 93
5, 131216, Note_off_c, 2, 64, 0
5, 131232, Note_on_c, 2, 74, 89
5, 131232, Note_on_c, 2, 71, 89
5, 131232, Note_on_c, 2, 67, 89
5, 131392, Note_off_c, 2, 74, 0
5, 131392, Note_off_c, 2, 71, 0
5, 131392, Note_off_c, 2, 67, 0
5, 131424, Note_on_c, 2, 64, 93
5, 131504, Note_off_c, 2, 64, 0
5, 131520, Note_on_c, 2, 74, 87
5, 131520, Note_on_c, 2, 71, 87
5, 131520, Note_on_c, 2, 67, 87
5, 131680, Note_off_c, 2, 74, 0
5, 131680, Note_off_c, 2, 71, 0
5, 131680, Note_off_c, 2, 67, 0
5, 131712, Note_on_c, 2, 64, 91
5, 131792, Note_off_c, 2, 64, 0
5, 131808, Note_on_c, 2, 74, 87
5, 131808, Note_on_c, 2, 71, 87
5, 131808, Note_on_c, 2, 67, 87
5, 132016, Note_off_c, 2, 74, 0
5, 132016, Note_off_c, 2, 71, 0
5, 132016, Note_off_c, 2, 67, 0
5, 132096, Note_on_c, 2, 74, 82
5, 132096, Note_on_c, 2, 71, 82
5, 132096, Note_on_c, 2, 79, 82
5, 132384, Note_off_c, 2, 74, 0
5, 132384, Note_off_c, 2, 71, 0
5, 132384, Note_off_c, 2, 79, 0
5, 132480, Note_on_c, 2, 74, 86
5, 132480, Note_on_c, 2, 71, 86
5, 132480, Note_on_c, 2, 79, 86
5, 132640, Note_off_c, 2, 74, 0
5, 132640, Note_off_c, 2, 71, 0
5, 132640, Note_off_c, 2, 79, 0
5, 132672, Note_on_c, 2, 67, 93
5, 132752, Note_off_c, 2, 67, 0
5, 132768, Note_on_c, 2, 74, 89
5, 132768, Note_on_c, 2, 71, 89
5, 132768, Note_on_c, 2, 79, 89
5, 132928, Note_off_c, 2, 74, 0
5, 132928, Note_off_c, 2, 71, 0
5, 132928, Note_off_c, 2, 79, 0
5, 132960, Note_on_c, 2, 67, 93
5, 133040, Note_off_c, 2, 67, 0
5, 133056, Note_on_c, 2, 74, 87
5, 133056, Note_on_c, 2, 71, 87
5, 133056, Note_on_c, 2, 79, 87
5, 133216, Note_off_c, 2, 74, 0
5, 133216, Note_off_c, 2, 71, 0
5, 133216, Note_off_c, 2, 79, 0
5, 133248, Note_on_c, 2, 67, 91
5, 133328, Note_off_c, 2, 67, 0
5, 133344, Note_on_c, 2, 74, 87
5, 133344, Note_on_c, 2, 71, 87
5, 133344, Note_on_c, 2, 79, 87
5, 133552, Note_off_c, 2, 74, 0
5, 133552, Note_off_c, 2, 71, 0
5, 133552, Note_off_c, 2, 79, 0
5, 133632, Note_on_c, 2, 74, 82
5, 133632, Note_on_c, 2, 71, 82
5, 133632, Note_on_c, 2, 79, 82
5, 133920, Note_off_c, 2, 74, 0
5, 133920, Note_off_c, 2, 71, 0
5, 133920, Note_off_c, 2, 79, 0
5, 134016, Note_on_c, 2, 74, 86
5, 134016, Note_on_c, 2, 71, 86
5, 134016, Note_on_c, 2, 79, 86
5, 134176, Note_off_c, 2, 74, 0
5, 134176, Note_off_c, 2, 71, 0
5, 134176, Note_off_c, 2, 79, 0
5, 134208, Note_on_c, 2, 67, 93
5, 134288, Note_off_c, 2, 67, 0
5, 134304, Note_on_c, 2, 74, 89
5, 134304, Note_on_c, 2, 71, 89
5, 134304, Note_on_c, 2, 79, 89
5, 134464, Note_off_c, 2, 74, 0
5, 134464, Note_off_c, 2, 71, 0
5, 134464, Note_off_c, 2, 79, 0
5, 134496, Note_on_c, 2, 67, 93
5, 134576, Note_off_c, 2, 67, 0
5, 134592, Note_on_c, 2, 74, 87
5, 134592, Note_on_c, 2, 71, 87
5, 134592, Note_on_c, 2, 79, 87
5, 134752, Note_off_c, 2, 74, 0
5, 134752, Note_off_c, 2, 71, 0
5, 134752, Note_off_c, 2, 79, 0
5, 134784, Note_on_c, 2, 67, 91
5, 134864, Note_off_c, 2, 67, 0
5, 134880, Note_on_c, 2, 74, 87
5, 134880, Note_on_c, 2, 71, 87
5, 134880, Note_on_c, 2, 79, 87
5, 135088, Note_off_c, 2, 74, 0
5, 135088, Note_off_c, 2, 71, 0
5, 135088, Note_off_c, 2, 79, 0
5, 135168, Note_on_c, 2, 78, 82
5, 135168, Note_on_c, 2, 74, 82
5, 135168, Note_on_c, 2, 69, 82
5, 135168, Control_c, 2, 7, 80
5, 135296, Control_c, 2, 7, 79
5, 135432, Control_c, 2, 7, 78
5, 135456, Note_off_c, 2, 78, 0
5, 135456, Note_off_c, 2, 74, 0
5, 135456, Note_off_c, 2, 69, 0
5, 135552, Note_on_c, 2, 78, 86
5, 135552, Note_on_c, 2, 74, 86
5, 135552, Note_on_c, 2, 69, 86
5, 135568, Control_c, 2, 7, 77
5, 135700, Control_c, 2, 7, 76
5, 135712, Note_off_c, 2, 78, 0
5, 135712, Note_off_c, 2, 74, 0
5, 135712, Note_off_c, 2, 69, 0
5, 135744, Note_on_c, 2, 62, 93
5, 135824, Note_off_c, 2, 62, 0
5, 135836, Control_c, 2, 7, 75
5, 135840, Note_on_c, 2, 78, 89
5, 135840, Note_on_c, 2, 74, 89
5, 135840, Note_on_c, 2, 69, 89
5, 135968, Control_c, 2, 7, 74
5, 136000, Note_off_c, 2, 78, 0
5, 136000, Note_off_c, 2, 74, 0
5, 136000, Note_off_c, 2, 69, 0
5, 136032, Note_on_c, 2, 62, 93
5, 136104, Control_c, 2, 7, 73
5, 136112, Note_off_c, 2, 62, 0
5, 136128, Note_on_c, 2, 78, 87
5, 136128, Note_on_c, 2, 74, 87
5, 136128, Note_on_c, 2, 69, 87
5, 136240, Control_c, 2, 7, 72
5, 136288, Note_off_c, 2, 78, 0
5, 136288, Note_off_c, 2, 74, 0
5, 136288, Note_off_c, 2, 69, 0
5, 136320, Note_on_c, 2, 62, 91
5, 136372, Control_c, 2, 7, 71
5, 136400, Note_off_c, 2, 62, 0
5, 136416, Note_on_c, 2, 78, 87
5, 136416, Note_on_c, 2, 74, 87
5, 136416, Note_on_c, 2, 69, 87
5, 136508, Control_c, 2, 7, 70
5, 136624, Note_off_c, 2, 78, 0
5, 136624, Note_off_c, 2, 74, 0
5, 136624, Note_off_c, 2, 69, 0
5, 136640, Control_c, 2, 7, 69
5, 136704, Note_on_c, 2, 78, 82
5, 136704, Note_on_c, 2, 74, 82
5, 136704, Note_on_c, 2, 69, 82
5, 136776, Control_c, 2, 7, 68
5, 136912, Control_c, 2, 7, 67
5, 136992, Note_off_c, 2, 78, 0
5, 136992, Note_off_c, 2, 74, 0
5, 136992, Note_off_c, 2, 69, 0
5, 137044, Control_c, 2, 7, 66
5, 137088, Note_on_c, 2, 78, 86
5, 137088, Note_on_c, 2, 74, 86
5, 137088, Note_on_c, 2, 69, 86
5, 137180, Control_c, 2, 7, 65
5, 137248, Note_off_c, 2, 78, 0
5, 137248, Note_off_c, 2, 74, 0
5, 137248, Note_off_c, 2, 69, 0
5, 137280, Note_on_c, 2, 62, 93
5, 137312, Control_c, 2, 7, 64
5, 137360, Note_off_c, 2, 62, 0
5, 137376, Note_on_c, 2, 78, 89
5, 137376, Note_on_c, 2, 74, 89
5, 137376, Note_on_c, 2, 69, 89
5, 137448, Control_c, 2, 7, 63
5, 137536, Note_off_c, 2, 78, 0
5, 137536, Note_off_c, 2, 74, 0
5, 137536, Note_off_c, 2, 69, 0
5, 137568, Note_on_c, 2, 62, 93
5, 137584, Control_c, 2, 7, 62
5, 137648, Note_off_c, 2, 62, 0
5, 137664, Note_on_c, 2, 78, 87
5, 137664, Note_on_c, 2, 74, 87
5, 137664, Note_on_c, 2, 69, 87
5, 137716, Control_c, 2, 7, 61
5, 137824, Note_off_c, 2, 78, 0
5, 137824, Note_off_c, 2, 74, 0
5, 137824, Note_off_c, 2, 69, 0
5, 137852, Control_c, 2, 7, 60
5, 137856, Note_on_c, 2, 62, 91
5, 137936, Note_off_c, 2, 62, 0
5, 137952, Note_on_c, 2, 78, 87
5, 137952, Note_on_c, 2, 74, 87
5, 137952, Note_on_c, 2, 69, 87
5, 137984, Control_c, 2, 7, 59
5, 138120, Control_c, 2, 7, 58
5, 138160, Note_off_c, 2, 78, 0
5, 138160, Note_off_c, 2, 74, 0
5, 138160, Note_off_c, 2, 69, 0
5, 138240, Note_on_c, 2, 78, 82
5, 138240, Note_on_c, 2, 74, 82
5, 138240, Note_on_c, 2, 69, 82
5, 138256, Control_c, 2, 7, 57
5, 138388, Control_c, 2, 7, 56
5, 138524, Control_c, 2, 7, 55
5, 138528, Note_off_c, 2, 78, 0
5, 138528, Note_off_c, 2, 74, 0
5, 138528, Note_off_c, 2, 69, 0
5, 138624, Note_on_c, 2, 78, 86
5, 138624, Note_on_c, 2, 74, 86
5, 138624, Note_on_c, 2, 69, 86
5, 138656, Control_c, 2, 7, 54
5, 138784, Note_off_c, 2, 78, 0
5, 138784, Note_off_c, 2, 74, 0
5, 138784, Note_off_c, 2, 69, 0
5, 138792, Control_c, 2, 7, 53
5, 138816, Note_on_c, 2, 62, 93
5, 138896, Note_off_c, 2, 62, 0
5, 138912, Note_on_c, 2, 78, 89
5, 138912, Note_on_c, 2, 74, 89
5, 138912, Note_on_c, 2, 69, 89
5, 138928, Control_c, 2, 7, 52
5, 139060, Control_c, 2, 7, 51
5, 139072, Note_off_c, 2, 78, 0
5, 139072, Note_off_c, 2, 74, 0
5, 139072, Note_off_c, 2, 69, 0
5, 139104, Note_on_c, 2, 62, 93
5, 139184, Note_off_c, 2, 62, 0
5, 139196, Control_c, 2, 7, 50
5, 139200, Note_on_c, 2, 78, 87
5, 139200, Note_on_c, 2, 74, 87
5, 139200, Note_on_c, 2, 69, 87
5, 139328, Control_c, 2, 7, 49
5, 139360, Note_off_c, 2, 78, 0
5, 139360, Note_off_c, 2, 74, 0
5, 139360, Note_off_c, 2, 69, 0
5, 139392, Note_on_c, 2, 62, 91
5, 139464, Control_c, 2, 7, 48
5, 139472, Note_off_c, 2, 62, 0
5, 139488, Note_on_c, 2, 78, 87
5, 139488, Note_on_c, 2, 74, 87
5, 139488, Note_on_c, 2, 69, 87
5, 139600, Control_c, 2, 7, 47
5, 139696, Note_off_c, 2, 78, 0
5, 139696, Note_off_c, 2, 74, 0
5, 139696, Note_off_c, 2, 69, 0
5, 139732, Control_c, 2, 7, 46
5, 139776, Note_on_c, 2, 78, 82
5, 139776, Note_on_c, 2, 74, 82
5, 139776, Note_on_c, 2, 69, 82
5, 139868, Control_c, 2, 7, 45
5, 140000, Control_c, 2, 7, 44
5, 140064, Note_off_c, 2, 78, 0
5, 140064, Note_off_c, 2, 74, 0
5, 140064, Note_off_c, 2, 69, 0
5, 140136, Control_c, 2, 7, 43
5, 140160, Note_on_c, 2, 78, 86
5, 140160, Note_on_c, 2, 74, 86
5, 140160, Note_on_c, 2, 69, 86
5, 140272, Control_c, 2, 7, 42
5, 140320, Note_off_c, 2, 78, 0
5, 140320, Note_off_c, 2, 74, 0
5, 140320, Note_off_c, 2, 69, 0
5, 140352, Note_on_c, 2, 62, 93
5, 140404, Control_c, 2, 7, 41
5, 140432, Note_off_c, 2, 62, 0
5, 140448, Note_on_c, 2, 78, 89
5, 140448, Note_on_c, 2, 74, 89
5, 140448, Note_on_c, 2, 69, 89
5, 140540, Control_c, 2, 7, 40
5, 140608, Note_off_c, 2, 78, 0
5, 140608, Note_off_c, 2, 74, 0
5, 140608, Note_off_c, 2, 69, 0
5, 140640, Note_on_c, 2, 62, 93
5, 140672, Control_c, 2, 7, 39
5, 140720, Note_off_c, 2, 62, 0
5, 140736, Note_on_c, 2, 78, 87
5, 140736, Note_on_c, 2, 74, 87
5, 140736, Note_on_c, 2, 69, 87
5, 140808, Control_c, 2, 7, 38
5, 140896, Note_off_c, 2, 78, 0
5, 140896, Note_off_c, 2, 74, 0
5, 140896, Note_off_c, 2, 69, 0
5, 140928, Note_on_c, 2, 62, 91
5, 140944, Control_c, 2, 7, 37
5, 141008, Note_off_c, 2, 62, 0
5, 141024, Note_on_c, 2, 78, 87
5, 141024, Note_on_c, 2, 74, 87
5, 141024, Note_on_c, 2, 69, 87
5, 141076, Control_c, 2, 7, 36
5, 141212, Control_c, 2, 7, 35
5, 141232, Note_off_c, 2, 78, 0
5, 141232, Note_off_c, 2, 74, 0
5, 141232, Note_off_c, 2, 69, 0
5, 141312, Note_on_c, 2, 76, 82
5, 141312, Note_on_c, 2, 72, 82
5, 141312, Note_on_c, 2, 67, 82
5, 141344, Control_c, 2, 7, 34
5, 141480, Control_c, 2, 7, 33
5, 141600, Note_off_c, 2, 76, 0
5, 141600, Note_off_c, 2, 72, 0
5, 141600, Note_off_c, 2, 67, 0
5, 141616, Control_c, 2, 7, 32
5, 141696, Note_on_c, 2, 76, 86
5, 141696, Note_on_c, 2, 72, 86
5, 141696, Note_on_c, 2, 67, 86
5, 141748, Control_c, 2, 7, 31
5, 141856, Note_off_c, 2, 76, 0
5, 141856, Note_off_c, 2, 72, 0
5, 141856, Note_off_c, 2, 67, 0
5, 141884, Control_c, 2, 7, 30
5, 141888, Note_on_c, 2, 60, 93
5, 141968, Note_off_c, 2, 60, 0
5, 141984, Note_on_c, 2, 76, 89
5, 141984, Note_on_c, 2, 72, 89
5, 141984, Note_on_c, 2, 67, 89
5, 142016, Control_c, 2, 7, 29
5, 142144, Note_off_c, 2, 76, 0
5, 142144, Note_off_c, 2, 72, 0
5, 142144, Note_off_c, 2, 67, 0
5, 142152, Control_c, 2, 7, 28
5, 142176, Note_on_c, 2, 60, 93
5, 142256, Note_off_c, 2, 60, 0
5, 142272, Note_on_c, 2, 76, 87
5, 142272, Note_on_c, 2, 72, 87
5, 142272, Note_on_c, 2, 67, 87
5, 142288, Control_c, 2, 7, 27
5, 142420, Control_c, 2, 7, 26
5, 142432, Note_off_c, 2, 76, 0
5, 142432, Note_off_c, 2, 72, 0
5, 142432, Note_off_c, 2, 67, 0
5, 142464, Note_on_c, 2, 60, 91
5, 142544, Note_off_c, 2, 60, 0
5, 142556, Control_c, 2, 7, 25
5, 142560, Note_on_c, 2, 76, 87
5, 142560, Note_on_c, 2, 72, 87
5, 142560, Note_on_c, 2, 67, 87
5, 142688, Control_c, 2, 7, 24
5, 142768, Note_off_c, 2, 76, 0
5, 142768, Note_off_c, 2, 72, 0
5, 142768, Note_off_c, 2, 67, 0
5, 142824, Control_c, 2, 7, 23
5, 142848, Note_on_c, 2, 74, 82
5, 142848, Note_on_c, 2, 71, 82
5, 142848, Note_on_c, 2, 67, 82
5, 142960, Control_c, 2, 7, 22
5, 143092, Control_c, 2, 7, 21
5, 143136, Note_off_c, 2, 74, 0
5, 143136, Note_off_c, 2, 71, 0
5, 143136, Note_off_c, 2, 67, 0
5, 143228, Control_c, 2, 7, 20
5, 143232, Note_on_c, 2, 74, 86
5, 143232, Note_on_c, 2, 71, 86
5, 143232, Note_on_c, 2, 67, 86
5, 143360, Control_c, 2, 7, 19
5, 143392, Note_off_c, 2, 74, 0
5, 143392, Note_off_c, 2, 71, 0
5, 143392, Note_off_c, 2, 67, 0
5, 143424, Note_on_c, 2, 64, 93
5, 143496, Control_c, 2, 7, 18
5, 143504, Note_off_c, 2, 64, 0
5, 143520, Note_on_c, 2, 74, 89
5, 143520, Note_on_c, 2, 71, 89
5, 143520, Note_on_c, 2, 67, 89
5, 143632, Control_c, 2, 7, 17
5, 143680, Note_off_c, 2, 74, 0
5, 143680, Note_off_c, 2, 71, 0
5, 143680, Note_off_c, 2, 67, 0
5, 143712, Note_on_c, 2, 64, 93
5, 143764, Control_c, 2, 7, 16
5, 143792, Note_off_c, 2, 64, 0
5, 143808, Note_on_c, 2, 74, 87
5, 143808, Note_on_c, 2, 71, 87
5, 143808, Note_on_c, 2, 67, 87
5, 143900, Control_c, 2, 7, 15
5, 143968, Note_off_c, 2, 74, 0
5, 143968, Note_off_c, 2, 71, 0
5, 143968, Note_off_c, 2, 67, 0
5, 144000, Note_on_c, 2, 64, 91
5, 144032, Control_c, 2, 7, 14
5, 144080, Note_off_c, 2, 64, 0
5, 144096, Note_on_c, 2, 74, 87
5, 144096, Note_on_c, 2, 71, 87
5, 144096, Note_on_c, 2, 67, 87
5, 144168, Control_c, 2, 7, 13
5, 144304, Note_off_c, 2, 74, 0
5, 144304, Note_off_c, 2, 71, 0
5, 144304, Note_off_c, 2, 67, 0
5, 144304, Control_c, 2, 7, 12
5, 144384, Note_on_c, 2, 74, 82
5, 144384, Note_on_c, 2, 71, 82
5, 144384, Note_on_c, 2, 79, 82
5, 144436, Control_c, 2, 7, 11
5, 144572, Control_c, 2, 7, 10
5, 144672, Note_off_c, 2, 74, 0
5, 144672, Note_off_c, 2, 71, 0
5, 144672, Note_off_c, 2, 79, 0
5, 144704, Control_c, 2, 7, 9
5, 144768, Note_on_c, 2, 74, 86
5, 144768, Note_on_c, 2, 71, 86
5, 144768, Note_on_c, 2, 79, 86
5, 144840, Control_c, 2, 7, 8
5, 144928, Note_off_c, 2, 74, 0
5, 144928, Note_off_c, 2, 71, 0
5, 144928, Note_off_c, 2, 79, 0
5, 144960, Note_on_c, 2, 67, 93
5, 144976, Control_c, 2, 7, 7
5, 145040, Note_off_c, 2, 67, 0
5, 145056, Note_on_c, 2, 74, 89
5, 145056, Note_on_c, 2, 71, 89
5, 145056, Note_on_c, 2, 79, 89
5, 145108, Control_c, 2, 7, 6
5, 145216, Note_off_c, 2, 74, 0
5, 145216, Note_off_c, 2, 71, 0
5, 145216, Note_off_c, 2, 79, 0
5, 145244, Control_c, 2, 7, 5
5, 145248, Note_on_c, 2, 67, 93
5, 145328, Note_off_c, 2, 67, 0
5, 145344, Note_on_c, 2, 74, 87
5, 145344, Note_on_c, 2, 71, 87
5, 145344, Note_on_c, 2, 79, 87
5, 145376, Control_c, 2, 7, 4
5, 145504, Note_off_c, 2, 74, 0
5, 145504, Note_off_c, 2, 71, 0
5, 145504, Note_off_c, 2, 79, 0
5, 145512, Control_c, 2, 7, 3
5, 145536, Note_on_c, 2, 67, 91
5, 145616, Note_off_c, 2, 67, 0
5, 145632, Note_on_c, 2, 74, 87
5, 145632, Note_on_c, 2, 71, 87
5, 145632, Note_on_c, 2, 79, 87
5, 145648, Control_c, 2, 7, 2
5, 145780, Control_c, 2, 7, 1
5, 145840, Note_off_c, 2, 74, 0
5, 145840, Note_off_c, 2, 71, 0
5, 145840, Note_off_c, 2, 79, 0
5, 145916, Control_c, 2, 7, 0
5, 145916, End_track
6, 0, Start_track
6, 0, Title_t, "organ"
6, 0, Control_c, 5, 0, 0
6, 0, Program_c, 5, 18
6, 0, Control_c, 5, 10, 64
6, 0, Control_c, 5, 91, 80
6, 0, Key_signature, 0, "major"
6, 0, Control_c, 5, 7, 80
6, 96, Control_c, 5, 121, 0
6, 12288, Note_on_c, 5, 69, 82
6, 12288, Note_on_c, 5, 73, 82
6, 12288, Note_on_c, 5, 76, 82
6, 12576, Note_off_c, 5, 69, 0
6, 12576, Note_off_c, 5, 73, 0
6, 12576, Note_off_c, 5, 76, 0
6, 12672, Note_on_c, 5, 69, 87
6, 12672, Note_on_c, 5, 73, 86
6, 12672, Note_on_c, 5, 76, 86
6, 12880, Note_off_c, 5, 69, 0
6, 12880, Note_off_c, 5, 73, 0
6, 12880, Note_off_c, 5, 76, 0
6, 12960, Note_on_c, 5, 69, 88
6, 12960, Note_on_c, 5, 73, 88
6, 12960, Note_on_c, 5, 76, 88
6, 13168, Note_off_c, 5, 69, 0
6, 13168, Note_off_c, 5, 73, 0
6, 13168, Note_off_c, 5, 76, 0
6, 13248, Note_on_c, 5, 69, 86
6, 13248, Note_on_c, 5, 73, 86
6, 13248, Note_on_c, 5, 76, 86
6, 13456, Note_off_c, 5, 69, 0
6, 13456, Note_off_c, 5, 73, 0
6, 13456, Note_off_c, 5, 76, 0
6, 13536, Note_on_c, 5, 69, 90
6, 13536, Note_on_c, 5, 73, 90
6, 13536, Note_on_c, 5, 76, 90
6, 13744, Note_off_c, 5, 69, 0
6, 13744, Note_off_c, 5, 73, 0
6, 13744, Note_off_c, 5, 76, 0
6, 13824, Note_on_c, 5, 69, 82
6, 13824, Note_on_c, 5, 73, 82
6, 13824, Note_on_c, 5, 76, 82
6, 14112, Note_off_c, 5, 69, 0
6, 14112, Note_off_c, 5, 73, 0
6, 14112, Note_off_c, 5, 76, 0
6, 14208, Note_on_c, 5, 69, 87
6, 14208, Note_on_c, 5, 73, 86
6, 14208, Note_on_c, 5, 76, 86
6, 14416, Note_off_c, 5, 69, 0
6, 14416, Note_off_c, 5, 73, 0
6, 14416, Note_off_c, 5, 76, 0
6, 14496, Note_on_c, 5, 69, 88
6, 14496, Note_on_c, 5, 73, 88
6, 14496, Note_on_c, 5, 76, 88
6, 14704, Note_off_c, 5, 69, 0
6, 14704, Note_off_c, 5, 73, 0
6, 14704, Note_off_c, 5, 76, 0
6, 14784, Note_on_c, 5, 69, 86
6, 14784, Note_on_c, 5, 73, 86
6, 14784, Note_on_c, 5, 76, 86
6, 14992, Note_off_c, 5, 69, 0
6, 14992, Note_off_c, 5, 73, 0
6, 14992, Note_off_c, 5, 76, 0
6, 15072, Note_on_c, 5, 69, 90
6, 15072, Note_on_c, 5, 73, 90
6, 15072, Note_on_c, 5, 76, 90
6, 15280, Note_off_c, 5, 69, 0
6, 15280, Note_off_c, 5, 73, 0
6, 15280, Note_off_c, 5, 76, 0
6, 15360, Note_on_c, 5, 69, 82
6, 15360, Note_on_c, 5, 73, 82
6, 15360, Note_on_c, 5, 76, 82
6, 15648, Note_off_c, 5, 69, 0
6, 15648, Note_off_c, 5, 73, 0
6, 15648, Note_off_c, 5, 76, 0
6, 15744, Note_on_c, 5, 69, 87
6, 15744, Note_on_c, 5, 73, 86
6, 15744, Note_on_c, 5, 76, 86
6, 15952, Note_off_c, 5, 69, 0
6, 15952, Note_off_c, 5, 73, 0
6, 15952, Note_off_c, 5, 76, 0
6, 16032, Note_on_c, 5, 69, 88
6, 16032, Note_on_c, 5, 73, 88
6, 16032, Note_on_c, 5, 76, 88
6, 16240, Note_off_c, 5, 69, 0
6, 16240, Note_off_c, 5, 73, 0
6, 16240, Note_off_c, 5, 76, 0
6, 16320, Note_on_c, 5, 69, 86
6, 16320, Note_on_c, 5, 73, 86
6, 16320, Note_on_c, 5, 76, 86
6, 16528, Note_off_c, 5, 69, 0
6, 16528, Note_off_c, 5, 73, 0
6, 16528, Note_off_c, 5, 76, 0
6, 16608, Note_on_c, 5, 69, 90
6, 16608, Note_on_c, 5, 73, 90
6, 16608, Note_on_c, 5, 76, 90
6, 16816, Note_off_c, 5, 69, 0
6, 16816, Note_off_c, 5, 73, 0
6, 16816, Note_off_c, 5, 76, 0
6, 16896, Note_on_c, 5, 69, 82
6, 16896, Note_on_c, 5, 73, 82
6, 16896, Note_on_c, 5, 76, 82
6, 17184, Note_off_c, 5, 69, 0
6, 17184, Note_off_c, 5, 73, 0
6, 17184, Note_off_c, 5, 76, 0
6, 17280, Note_on_c, 5, 69, 87
6, 17280, Note_on_c, 5, 73, 86
6, 17280, Note_on_c, 5, 76, 86
6, 17488, Note_off_c, 5, 69, 0
6, 17488, Note_off_c, 5, 73, 0
6, 17488, Note_off_c, 5, 76, 0
6, 17568, Note_on_c, 5, 69, 88
6, 17568, Note_on_c, 5, 73, 88
6, 17568, Note_on_c, 5, 76, 88
6, 17776, Note_off_c, 5, 69, 0
6, 17776, Note_off_c, 5, 73, 0
6, 17776, Note_off_c, 5, 76, 0
6, 17856, Note_on_c, 5, 69, 86
6, 17856, Note_on_c, 5, 73, 86
6, 17856, Note_on_c, 5, 76, 86
6, 18064, Note_off_c, 5, 69, 0
6, 18064, Note_off_c, 5, 73, 0
6, 18064, Note_off_c, 5, 76, 0
6, 18144, Note_on_c, 5, 69, 90
6, 18144, Note_on_c, 5, 73, 90
6, 18144, Note_on_c, 5, 76, 90
6, 18352, Note_off_c, 5, 69, 0
6, 18352, Note_off_c, 5, 73, 0
6, 18352, Note_off_c, 5, 76, 0
6, 18432, Note_on_c, 5, 71, 82
6, 18432, Note_on_c, 5, 74, 82
6, 18432, Note_on_c, 5, 79, 82
6, 18720, Note_off_c, 5, 71, 0
6, 18720, Note_off_c, 5, 74, 0
6, 18720, Note_off_c, 5, 79, 0
6, 18816, Note_on_c, 5, 71, 87
6, 18816, Note_on_c, 5, 74, 86
6, 18816, Note_on_c, 5, 79, 86
6, 19024, Note_off_c, 5, 71, 0
6, 19024, Note_off_c, 5, 74, 0
6, 19024, Note_off_c, 5, 79, 0
6, 19104, Note_on_c, 5, 71, 88
6, 19104, Note_on_c, 5, 74, 88
6, 19104, Note_on_c, 5, 79, 88
6, 19312, Note_off_c, 5, 71, 0
6, 19312, Note_off_c, 5, 74, 0
6, 19312, Note_off_c, 5, 79, 0
6, 19392, Note_on_c, 5, 71, 86
6, 19392, Note_on_c, 5, 74, 86
6, 19392, Note_on_c, 5, 79, 86
6, 19600, Note_off_c, 5, 71, 0
6, 19600, Note_off_c, 5, 74, 0
6, 19600, Note_off_c, 5, 79, 0
6, 19680, Note_on_c, 5, 71, 90
6, 19680, Note_on_c, 5, 74, 90
6, 19680, Note_on_c, 5, 79, 90
6, 19888, Note_off_c, 5, 71, 0
6, 19888, Note_off_c, 5, 74, 0
6, 19888, Note_off_c, 5, 79, 0
6, 19968, Note_on_c, 5, 71, 82
6, 19968, Note_on_c, 5, 74, 82
6, 19968, Note_on_c, 5, 79, 82
6, 20256, Note_off_c, 5, 71, 0
6, 20256, Note_off_c, 5, 74, 0
6, 20256, Note_off_c, 5, 79, 0
6, 20352, Note_on_c, 5, 71, 87
6, 20352, Note_on_c, 5, 74, 86
6, 20352, Note_on_c, 5, 79, 86
6, 20560, Note_off_c, 5, 71, 0
6, 20560, Note_off_c, 5, 74, 0
6, 20560, Note_off_c, 5, 79, 0
6, 20640, Note_on_c, 5, 71, 88
6, 20640, Note_on_c, 5, 74, 88
6, 20640, Note_on_c, 5, 79, 88
6, 20848, Note_off_c, 5, 71, 0
6, 20848, Note_off_c, 5, 74, 0
6, 20848, Note_off_c, 5, 79, 0
6, 20928, Note_on_c, 5, 71, 86
6, 20928, Note_on_c, 5, 74, 86
6, 20928, Note_on_c, 5, 79, 86
6, 21136, Note_off_c, 5, 71, 0
6, 21136, Note_off_c, 5, 74, 0
6, 21136, Note_off_c, 5, 79, 0
6, 21216, Note_on_c, 5, 71, 90
6, 21216, Note_on_c, 5, 74, 90
6, 21216, Note_on_c, 5, 79, 90
6, 21424, Note_off_c, 5, 71, 0
6, 21424, Note_off_c, 5, 74, 0
6, 21424, Note_off_c, 5, 79, 0
6, 21504, Note_on_c, 5, 69, 82
6, 21504, Note_on_c, 5, 74, 82
6, 21504, Note_on_c, 5, 78, 82
6, 21792, Note_off_c, 5, 69, 0
6, 21792, Note_off_c, 5, 74, 0
6, 21792, Note_off_c, 5, 78, 0
6, 21888, Note_on_c, 5, 69, 87
6, 21888, Note_on_c, 5, 74, 86
6, 21888, Note_on_c, 5, 78, 86
6, 22096, Note_off_c, 5, 69, 0
6, 22096, Note_off_c, 5, 74, 0
6, 22096, Note_off_c, 5, 78, 0
6, 22176, Note_on_c, 5, 69, 88
6, 22176, Note_on_c, 5, 74, 88
6, 22176, Note_on_c, 5, 78, 88
6, 22384, Note_off_c, 5, 69, 0
6, 22384, Note_off_c, 5, 74, 0
6, 22384, Note_off_c, 5, 78, 0
6, 22464, Note_on_c, 5, 69, 86
6, 22464, Note_on_c, 5, 74, 86
6, 22464, Note_on_c, 5, 79, 86
6, 22672, Note_off_c, 5, 69, 0
6, 22672, Note_off_c, 5, 74, 0
6, 22672, Note_off_c, 5, 79, 0
6, 22752, Note_on_c, 5, 69, 90
6, 22752, Note_on_c, 5, 74, 90
6, 22752, Note_on_c, 5, 78, 90
6, 22960, Note_off_c, 5, 69, 0
6, 22960, Note_off_c, 5, 74, 0
6, 22960, Note_off_c, 5, 78, 0
6, 23040, Note_on_c, 5, 69, 82
6, 23040, Note_on_c, 5, 74, 82
6, 23040, Note_on_c, 5, 78, 82
6, 23328, Note_off_c, 5, 69, 0
6, 23328, Note_off_c, 5, 74, 0
6, 23328, Note_off_c, 5, 78, 0
6, 23424, Note_on_c, 5, 69, 86
6, 23424, Note_on_c, 5, 74, 86
6, 23424, Note_on_c, 5, 78, 86
6, 23632, Note_off_c, 5, 69, 0
6, 23632, Note_off_c, 5, 74, 0
6, 23632, Note_off_c, 5, 78, 0
6, 23712, Note_on_c, 5, 69, 88
6, 23712, Note_on_c, 5, 74, 88
6, 23712, Note_on_c, 5, 78, 88
6, 23920, Note_off_c, 5, 69, 0
6, 23920, Note_off_c, 5, 74, 0
6, 23920, Note_off_c, 5, 78, 0
6, 24000, Note_on_c, 5, 69, 86
6, 24000, Note_on_c, 5, 74, 86
6, 24000, Note_on_c, 5, 79, 86
6, 24208, Note_off_c, 5, 69, 0
6, 24208, Note_off_c, 5, 74, 0
6, 24208, Note_off_c, 5, 79, 0
6, 24288, Note_on_c, 5, 69, 90
6, 24288, Note_on_c, 5, 74, 90
6, 24288, Note_on_c, 5, 78, 90
6, 24496, Note_off_c, 5, 69, 0
6, 24496, Note_off_c, 5, 74, 0
6, 24496, Note_off_c, 5, 78, 0
6, 24576, Note_on_c, 5, 72, 82
6, 24576, Note_on_c, 5, 69, 82
6, 24576, Note_on_c, 5, 65, 82
6, 24576, Note_on_c, 5, 62, 82
6, 24864, Note_off_c, 5, 72, 0
6, 24864, Note_off_c, 5, 69, 0
6, 24864, Note_off_c, 5, 65, 0
6, 24864, Note_off_c, 5, 62, 0
6, 24960, Note_on_c, 5, 72, 86
6, 24960, Note_on_c, 5, 69, 86
6, 24960, Note_on_c, 5, 65, 86
6, 24960, Note_on_c, 5, 62, 86
6, 25168, Note_off_c, 5, 72, 0
6, 25168, Note_off_c, 5, 69, 0
6, 25168, Note_off_c, 5, 65, 0
6, 25168, Note_off_c, 5, 62, 0
6, 25248, Note_on_c, 5, 72, 88
6, 25248, Note_on_c, 5, 69, 88
6, 25248, Note_on_c, 5, 65, 88
6, 25248, Note_on_c, 5, 62, 88
6, 25456, Note_off_c, 5, 72, 0
6, 25456, Note_off_c, 5, 69, 0
6, 25456, Note_off_c, 5, 65, 0
6, 25456, Note_off_c, 5, 62, 0
6, 25536, Note_on_c, 5, 72, 86
6, 25536, Note_on_c, 5, 69, 86
6, 25536, Note_on_c, 5, 65, 86
6, 25536, Note_on_c, 5, 62, 86
6, 25744, Note_off_c, 5, 72, 0
6, 25744, Note_off_c, 5, 69, 0
6, 25744, Note_off_c, 5, 65, 0
6, 25744, Note_off_c, 5, 62, 0
6, 25824, Note_on_c, 5, 72, 90
6, 25824, Note_on_c, 5, 69, 90
6, 25824, Note_on_c, 5, 65, 90
6, 25824, Note_on_c, 5, 62, 90
6, 26032, Note_off_c, 5, 72, 0
6, 26032, Note_off_c, 5, 69, 0
6, 26032, Note_off_c, 5, 65, 0
6, 26032, Note_off_c, 5, 62, 0
6, 26112, Note_on_c, 5, 72, 82
6, 26112, Note_on_c, 5, 67, 82
6, 26112, Note_on_c, 5, 64, 82
6, 26400, Note_off_c, 5, 72, 0
6, 26400, Note_off_c, 5, 67, 0
6, 26400, Note_off_c, 5, 64, 0
6, 26496, Note_on_c, 5, 72, 86
6, 26496, Note_on_c, 5, 67, 86
6, 26496, Note_on_c, 5, 64, 86
6, 26704, Note_off_c, 5, 72, 0
6, 26704, Note_off_c, 5, 67, 0
6, 26704, Note_off_c, 5, 64, 0
6, 26784, Note_on_c, 5, 72, 88
6, 26784, Note_on_c, 5, 67, 88
6, 26784, Note_on_c, 5, 64, 88
6, 26992, Note_off_c, 5, 72, 0
6, 26992, Note_off_c, 5, 67, 0
6, 26992, Note_off_c, 5, 64, 0
6, 27072, Note_on_c, 5, 72, 86
6, 27072, Note_on_c, 5, 67, 86
6, 27072, Note_on_c, 5, 64, 86
6, 27280, Note_off_c, 5, 72, 0
6, 27280, Note_off_c, 5, 67, 0
6, 27280, Note_off_c, 5, 64, 0
6, 27360, Note_on_c, 5, 72, 90
6, 27360, Note_on_c, 5, 67, 90
6, 27360, Note_on_c, 5, 64, 90
6, 27568, Note_off_c, 5, 72, 0
6, 27568, Note_off_c, 5, 67, 0
6, 27568, Note_off_c, 5, 64, 0
6, 27648, Note_on_c, 5, 72, 82
6, 27648, Note_on_c, 5, 69, 82
6, 27648, Note_on_c, 5, 65, 82
6, 27648, Note_on_c, 5, 62, 82
6, 27936, Note_off_c, 5, 72, 0
6, 27936, Note_off_c, 5, 69, 0
6, 27936, Note_off_c, 5, 65, 0
6, 27936, Note_off_c, 5, 62, 0
6, 28032, Note_on_c, 5, 72, 86
6, 28032, Note_on_c, 5, 69, 86
6, 28032, Note_on_c, 5, 65, 86
6, 28032, Note_on_c, 5, 62, 86
6, 28240, Note_off_c, 5, 72, 0
6, 28240, Note_off_c, 5, 69, 0
6, 28240, Note_off_c, 5, 65, 0
6, 28240, Note_off_c, 5, 62, 0
6, 28320, Note_on_c, 5, 72, 88
6, 28320, Note_on_c, 5, 69, 88
6, 28320, Note_on_c, 5, 65, 88
6, 28320, Note_on_c, 5, 62, 88
6, 28528, Note_off_c, 5, 72, 0
6, 28528, Note_off_c, 5, 69, 0
6, 28528, Note_off_c, 5, 65, 0
6, 28528, Note_off_c, 5, 62, 0
6, 28608, Note_on_c, 5, 72, 86
6, 28608, Note_on_c, 5, 69, 86
6, 28608, Note_on_c, 5, 65, 86
6, 28608, Note_on_c, 5, 62, 86
6, 28816, Note_off_c, 5, 72, 0
6, 28816, Note_off_c, 5, 69, 0
6, 28816, Note_off_c, 5, 65, 0
6, 28816, Note_off_c, 5, 62, 0
6, 28896, Note_on_c, 5, 72, 90
6, 28896, Note_on_c, 5, 69, 90
6, 28896, Note_on_c, 5, 65, 90
6, 28896, Note_on_c, 5, 62, 90
6, 29104, Note_off_c, 5, 72, 0
6, 29104, Note_off_c, 5, 69, 0
6, 29104, Note_off_c, 5, 65, 0
6, 29104, Note_off_c, 5, 62, 0
6, 29184, Note_on_c, 5, 72, 82
6, 29184, Note_on_c, 5, 67, 82
6, 29184, Note_on_c, 5, 64, 82
6, 29472, Note_off_c, 5, 72, 0
6, 29472, Note_off_c, 5, 67, 0
6, 29472, Note_off_c, 5, 64, 0
6, 29568, Note_on_c, 5, 72, 86
6, 29568, Note_on_c, 5, 67, 86
6, 29568, Note_on_c, 5, 64, 86
6, 29776, Note_off_c, 5, 72, 0
6, 29776, Note_off_c, 5, 67, 0
6, 29776, Note_off_c, 5, 64, 0
6, 29856, Note_on_c, 5, 72, 88
6, 29856, Note_on_c, 5, 67, 88
6, 29856, Note_on_c, 5, 64, 88
6, 30064, Note_off_c, 5, 72, 0
6, 30064, Note_off_c, 5, 67, 0
6, 30064, Note_off_c, 5, 64, 0
6, 30144, Note_on_c, 5, 72, 86
6, 30144, Note_on_c, 5, 67, 86
6, 30144, Note_on_c, 5, 64, 86
6, 30352, Note_off_c, 5, 72, 0
6, 30352, Note_off_c, 5, 67, 0
6, 30352, Note_off_c, 5, 64, 0
6, 30432, Note_on_c, 5, 72, 90
6, 30432, Note_on_c, 5, 67, 90
6, 30432, Note_on_c, 5, 64, 90
6, 30640, Note_off_c, 5, 72, 0
6, 30640, Note_off_c, 5, 67, 0
6, 30640, Note_off_c, 5, 64, 0
6, 30720, Note_on_c, 5, 74, 82
6, 30720, Note_on_c, 5, 71, 82
6, 30720, Note_on_c, 5, 67, 82
6, 30720, Note_on_c, 5, 64, 82
6, 31008, Note_off_c, 5, 74, 0
6, 31008, Note_off_c, 5, 71, 0
6, 31008, Note_off_c, 5, 67, 0
6, 31008, Note_off_c, 5, 64, 0
6, 31104, Note_on_c, 5, 74, 86
6, 31104, Note_on_c, 5, 71, 86
6, 31104, Note_on_c, 5, 67, 86
6, 31104, Note_on_c, 5, 64, 86
6, 31312, Note_off_c, 5, 74, 0
6, 31312, Note_off_c, 5, 71, 0
6, 31312, Note_off_c, 5, 67, 0
6, 31312, Note_off_c, 5, 64, 0
6, 31392, Note_on_c, 5, 74, 88
6, 31392, Note_on_c, 5, 71, 88
6, 31392, Note_on_c, 5, 67, 88
6, 31392, Note_on_c, 5, 64, 88
6, 31600, Note_off_c, 5, 74, 0
6, 31600, Note_off_c, 5, 71, 0
6, 31600, Note_off_c, 5, 67, 0
6, 31600, Note_off_c, 5, 64, 0
6, 31680, Note_on_c, 5, 74, 86
6, 31680, Note_on_c, 5, 71, 86
6, 31680, Note_on_c, 5, 67, 86
6, 31680, Note_on_c, 5, 64, 86
6, 31888, Note_off_c, 5, 74, 0
6, 31888, Note_off_c, 5, 71, 0
6, 31888, Note_off_c, 5, 67, 0
6, 31888, Note_off_c, 5, 64, 0
6, 31968, Note_on_c, 5, 74, 90
6, 31968, Note_on_c, 5, 71, 90
6, 31968, Note_on_c, 5, 67, 90
6, 31968, Note_on_c, 5, 64, 90
6, 32176, Note_off_c, 5, 74, 0
6, 32176, Note_off_c, 5, 71, 0
6, 32176, Note_off_c, 5, 67, 0
6, 32176, Note_off_c, 5, 64, 0
6, 32256, Note_on_c, 5, 74, 82
6, 32256, Note_on_c, 5, 71, 82
6, 32256, Note_on_c, 5, 67, 82
6, 32544, Note_off_c, 5, 74, 0
6, 32544, Note_off_c, 5, 71, 0
6, 32544, Note_off_c, 5, 67, 0
6, 32640, Note_on_c, 5, 74, 86
6, 32640, Note_on_c, 5, 71, 86
6, 32640, Note_on_c, 5, 67, 86
6, 32848, Note_off_c, 5, 74, 0
6, 32848, Note_off_c, 5, 71, 0
6, 32848, Note_off_c, 5, 67, 0
6, 32928, Note_on_c, 5, 74, 88
6, 32928, Note_on_c, 5, 71, 88
6, 32928, Note_on_c, 5, 67, 88
6, 33136, Note_off_c, 5, 74, 0
6, 33136, Note_off_c, 5, 71, 0
6, 33136, Note_off_c, 5, 67, 0
6, 33216, Note_on_c, 5, 74, 86
6, 33216, Note_on_c, 5, 71, 86
6, 33216, Note_on_c, 5, 67, 86
6, 33424, Note_off_c, 5, 74, 0
6, 33424, Note_off_c, 5, 71, 0
6, 33424, Note_off_c, 5, 67, 0
6, 33504, Note_on_c, 5, 74, 90
6, 33504, Note_on_c, 5, 71, 90
6, 33504, Note_on_c, 5, 67, 90
6, 33712, Note_off_c, 5, 74, 0
6, 33712, Note_off_c, 5, 71, 0
6, 33712, Note_off_c, 5, 67, 0
6, 33792, Note_on_c, 5, 78, 82
6, 33792, Note_on_c, 5, 74, 82
6, 33792, Note_on_c, 5, 69, 82
6, 34080, Note_off_c, 5, 78, 0
6, 34080, Note_off_c, 5, 74, 0
6, 34080, Note_off_c, 5, 69, 0
6, 34176, Note_on_c, 5, 78, 86
6, 34176, Note_on_c, 5, 74, 86
6, 34176, Note_on_c, 5, 69, 86
6, 34384, Note_off_c, 5, 78, 0
6, 34384, Note_off_c, 5, 74, 0
6, 34384, Note_off_c, 5, 69, 0
6, 34464, Note_on_c, 5, 78, 88
6, 34464, Note_on_c, 5, 74, 88
6, 34464, Note_on_c, 5, 69, 88
6, 34672, Note_off_c, 5, 78, 0
6, 34672, Note_off_c, 5, 74, 0
6, 34672, Note_off_c, 5, 69, 0
6, 34752, Note_on_c, 5, 79, 86
6, 34752, Note_on_c, 5, 74, 86
6, 34752, Note_on_c, 5, 69, 86
6, 34960, Note_off_c, 5, 79, 0
6, 34960, Note_off_c, 5, 74, 0
6, 34960, Note_off_c, 5, 69, 0
6, 35040, Note_on_c, 5, 78, 90
6, 35040, Note_on_c, 5, 74, 90
6, 35040, Note_on_c, 5, 69, 90
6, 35248, Note_off_c, 5, 78, 0
6, 35248, Note_off_c, 5, 74, 0
6, 35248, Note_off_c, 5, 69, 0
6, 35328, Note_on_c, 5, 78, 82
6, 35328, Note_on_c, 5, 74, 82
6, 35328, Note_on_c, 5, 69, 82
6, 35616, Note_off_c, 5, 78, 0
6, 35616, Note_off_c, 5, 74, 0
6, 35616, Note_off_c, 5, 69, 0
6, 35712, Note_on_c, 5, 78, 86
6, 35712, Note_on_c, 5, 74, 86
6, 35712, Note_on_c, 5, 69, 86
6, 35920, Note_off_c, 5, 78, 0
6, 35920, Note_off_c, 5, 74, 0
6, 35920, Note_off_c, 5, 69, 0
6, 36000, Note_on_c, 5, 78, 88
6, 36000, Note_on_c, 5, 74, 88
6, 36000, Note_on_c, 5, 69, 88
6, 36208, Note_off_c, 5, 78, 0
6, 36208, Note_off_c, 5, 74, 0
6, 36208, Note_off_c, 5, 69, 0
6, 36288, Note_on_c, 5, 79, 86
6, 36288, Note_on_c, 5, 74, 86
6, 36288, Note_on_c, 5, 69, 86
6, 36496, Note_off_c, 5, 79, 0
6, 36496, Note_off_c, 5, 74, 0
6, 36496, Note_off_c, 5, 69, 0
6, 36576, Note_on_c, 5, 78, 90
6, 36576, Note_on_c, 5, 74, 90
6, 36576, Note_on_c, 5, 69, 90
6, 36784, Note_off_c, 5, 78, 0
6, 36784, Note_off_c, 5, 74, 0
6, 36784, Note_off_c, 5, 69, 0
6, 36864, Note_on_c, 5, 72, 82
6, 36864, Note_on_c, 5, 69, 82
6, 36864, Note_on_c, 5, 65, 82
6, 36864, Note_on_c, 5, 62, 82
6, 37152, Note_off_c, 5, 72, 0
6, 37152, Note_off_c, 5, 69, 0
6, 37152, Note_off_c, 5, 65, 0
6, 37152, Note_off_c, 5, 62, 0
6, 37248, Note_on_c, 5, 72, 86
6, 37248, Note_on_c, 5, 69, 86
6, 37248, Note_on_c, 5, 65, 86
6, 37248, Note_on_c, 5, 62, 86
6, 37456, Note_off_c, 5, 72, 0
6, 37456, Note_off_c, 5, 69, 0
6, 37456, Note_off_c, 5, 65, 0
6, 37456, Note_off_c, 5, 62, 0
6, 37536, Note_on_c, 5, 72, 88
6, 37536, Note_on_c, 5, 69, 88
6, 37536, Note_on_c, 5, 65, 88
6, 37536, Note_on_c, 5, 62, 88
6, 37744, Note_off_c, 5, 72, 0
6, 37744, Note_off_c, 5, 69, 0
6, 37744, Note_off_c, 5, 65, 0
6, 37744, Note_off_c, 5, 62, 0
6, 37824, Note_on_c, 5, 72, 86
6, 37824, Note_on_c, 5, 69, 86
6, 37824, Note_on_c, 5, 65, 86
6, 37824, Note_on_c, 5, 62, 86
6, 38032, Note_off_c, 5, 72, 0
6, 38032, Note_off_c, 5, 69, 0
6, 38032, Note_off_c, 5, 65, 0
6, 38032, Note_off_c, 5, 62, 0
6, 38112, Note_on_c, 5, 72, 90
6, 38112, Note_on_c, 5, 69, 90
6, 38112, Note_on_c, 5, 65, 90
6, 38112, Note_on_c, 5, 62, 90
6, 38320, Note_off_c, 5, 72, 0
6, 38320, Note_off_c, 5, 69, 0
6, 38320, Note_off_c, 5, 65, 0
6, 38320, Note_off_c, 5, 62, 0
6, 38400, Note_on_c, 5, 72, 82
6, 38400, Note_on_c, 5, 67, 82
6, 38400, Note_on_c, 5, 64, 82
6, 38688, Note_off_c, 5, 72, 0
6, 38688, Note_off_c, 5, 67, 0
6, 38688, Note_off_c, 5, 64, 0
6, 38784, Note_on_c, 5, 72, 86
6, 38784, Note_on_c, 5, 67, 86
6, 38784, Note_on_c, 5, 64, 86
6, 38992, Note_off_c, 5, 72, 0
6, 38992, Note_off_c, 5, 67, 0
6, 38992, Note_off_c, 5, 64, 0
6, 39072, Note_on_c, 5, 72, 88
6, 39072, Note_on_c, 5, 67, 88
6, 39072, Note_on_c, 5, 64, 88
6, 39280, Note_off_c, 5, 72, 0
6, 39280, Note_off_c, 5, 67, 0
6, 39280, Note_off_c, 5, 64, 0
6, 39360, Note_on_c, 5, 72, 86
6, 39360, Note_on_c, 5, 67, 86
6, 39360, Note_on_c, 5, 64, 86
6, 39568, Note_off_c, 5, 72, 0
6, 39568, Note_off_c, 5, 67, 0
6, 39568, Note_off_c, 5, 64, 0
6, 39648, Note_on_c, 5, 72, 90
6, 39648, Note_on_c, 5, 67, 90
6, 39648, Note_on_c, 5, 64, 90
6, 39856, Note_off_c, 5, 72, 0
6, 39856, Note_off_c, 5, 67, 0
6, 39856, Note_off_c, 5, 64, 0
6, 39936, Note_on_c, 5, 72, 82
6, 39936, Note_on_c, 5, 69, 82
6, 39936, Note_on_c, 5, 65, 82
6, 39936, Note_on_c, 5, 62, 82
6, 40224, Note_off_c, 5, 72, 0
6, 40224, Note_off_c, 5, 69, 0
6, 40224, Note_off_c, 5, 65, 0
6, 40224, Note_off_c, 5, 62, 0
6, 40320, Note_on_c, 5, 72, 86
6, 40320, Note_on_c, 5, 69, 86
6, 40320, Note_on_c, 5, 65, 86
6, 40320, Note_on_c, 5, 62, 86
6, 40528, Note_off_c, 5, 72, 0
6, 40528, Note_off_c, 5, 69, 0
6, 40528, Note_off_c, 5, 65, 0
6, 40528, Note_off_c, 5, 62, 0
6, 40608, Note_on_c, 5, 72, 88
6, 40608, Note_on_c, 5, 69, 88
6, 40608, Note_on_c, 5, 65, 88
6, 40608, Note_on_c, 5, 62, 88
6, 40816, Note_off_c, 5, 72, 0
6, 40816, Note_off_c, 5, 69, 0
6, 40816, Note_off_c, 5, 65, 0
6, 40816, Note_off_c, 5, 62, 0
6, 40896, Note_on_c, 5, 72, 86
6, 40896, Note_on_c, 5, 69, 86
6, 40896, Note_on_c, 5, 65, 86
6, 40896, Note_on_c, 5, 62, 86
6, 41104, Note_off_c, 5, 72, 0
6, 41104, Note_off_c, 5, 69, 0
6, 41104, Note_off_c, 5, 65, 0
6, 41104, Note_off_c, 5, 62, 0
6, 41184, Note_on_c, 5, 72, 90
6, 41184, Note_on_c, 5, 69, 90
6, 41184, Note_on_c, 5, 65, 90
6, 41184, Note_on_c, 5, 62, 90
6, 41392, Note_off_c, 5, 72, 0
6, 41392, Note_off_c, 5, 69, 0
6, 41392, Note_off_c, 5, 65, 0
6, 41392, Note_off_c, 5, 62, 0
6, 41472, Note_on_c, 5, 72, 82
6, 41472, Note_on_c, 5, 67, 82
6, 41472, Note_on_c, 5, 64, 82
6, 41760, Note_off_c, 5, 72, 0
6, 41760, Note_off_c, 5, 67, 0
6, 41760, Note_off_c, 5, 64, 0
6, 41856, Note_on_c, 5, 72, 86
6, 41856, Note_on_c, 5, 67, 86
6, 41856, Note_on_c, 5, 64, 86
6, 42064, Note_off_c, 5, 72, 0
6, 42064, Note_off_c, 5, 67, 0
6, 42064, Note_off_c, 5, 64, 0
6, 42144, Note_on_c, 5, 72, 88
6, 42144, Note_on_c, 5, 67, 88
6, 42144, Note_on_c, 5, 64, 88
6, 42352, Note_off_c, 5, 72, 0
6, 42352, Note_off_c, 5, 67, 0
6, 42352, Note_off_c, 5, 64, 0
6, 42432, Note_on_c, 5, 72, 86
6, 42432, Note_on_c, 5, 67, 86
6, 42432, Note_on_c, 5, 64, 86
6, 42640, Note_off_c, 5, 72, 0
6, 42640, Note_off_c, 5, 67, 0
6, 42640, Note_off_c, 5, 64, 0
6, 42720, Note_on_c, 5, 72, 90
6, 42720, Note_on_c, 5, 67, 90
6, 42720, Note_on_c, 5, 64, 90
6, 42928, Note_off_c, 5, 72, 0
6, 42928, Note_off_c, 5, 67, 0
6, 42928, Note_off_c, 5, 64, 0
6, 43008, Note_on_c, 5, 74, 82
6, 43008, Note_on_c, 5, 71, 82
6, 43008, Note_on_c, 5, 67, 82
6, 43008, Note_on_c, 5, 64, 82
6, 43296, Note_off_c, 5, 74, 0
6, 43296, Note_off_c, 5, 71, 0
6, 43296, Note_off_c, 5, 67, 0
6, 43296, Note_off_c, 5, 64, 0
6, 43392, Note_on_c, 5, 74, 86
6, 43392, Note_on_c, 5, 71, 86
6, 43392, Note_on_c, 5, 67, 86
6, 43392, Note_on_c, 5, 64, 86
6, 43600, Note_off_c, 5, 74, 0
6, 43600, Note_off_c, 5, 71, 0
6, 43600, Note_off_c, 5, 67, 0
6, 43600, Note_off_c, 5, 64, 0
6, 43680, Note_on_c, 5, 74, 88
6, 43680, Note_on_c, 5, 71, 88
6, 43680, Note_on_c, 5, 67, 88
6, 43680, Note_on_c, 5, 64, 88
6, 43888, Note_off_c, 5, 74, 0
6, 43888, Note_off_c, 5, 71, 0
6, 43888, Note_off_c, 5, 67, 0
6, 43888, Note_off_c, 5, 64, 0
6, 43968, Note_on_c, 5, 74, 86
6, 43968, Note_on_c, 5, 71, 86
6, 43968, Note_on_c, 5, 67, 86
6, 43968, Note_on_c, 5, 64, 86
6, 44176, Note_off_c, 5, 74, 0
6, 44176, Note_off_c, 5, 71, 0
6, 44176, Note_off_c, 5, 67, 0
6, 44176, Note_off_c, 5, 64, 0
6, 44256, Note_on_c, 5, 74, 90
6, 44256, Note_on_c, 5, 71, 90
6, 44256, Note_on_c, 5, 67, 90
6, 44256, Note_on_c, 5, 64, 90
6, 44464, Note_off_c, 5, 74, 0
6, 44464, Note_off_c, 5, 71, 0
6, 44464, Note_off_c, 5, 67, 0
6, 44464, Note_off_c, 5, 64, 0
6, 44544, Note_on_c, 5, 74, 82
6, 44544, Note_on_c, 5, 71, 82
6, 44544, Note_on_c, 5, 67, 82
6, 44832, Note_off_c, 5, 74, 0
6, 44832, Note_off_c, 5, 71, 0
6, 44832, Note_off_c, 5, 67, 0
6, 44928, Note_on_c, 5, 74, 86
6, 44928, Note_on_c, 5, 71, 86
6, 44928, Note_on_c, 5, 67, 86
6, 45136, Note_off_c, 5, 74, 0
6, 45136, Note_off_c, 5, 71, 0
6, 45136, Note_off_c, 5, 67, 0
6, 45216, Note_on_c, 5, 74, 88
6, 45216, Note_on_c, 5, 71, 88
6, 45216, Note_on_c, 5, 67, 88
6, 45424, Note_off_c, 5, 74, 0
6, 45424, Note_off_c, 5, 71, 0
6, 45424, Note_off_c, 5, 67, 0
6, 45504, Note_on_c, 5, 74, 86
6, 45504, Note_on_c, 5, 71, 86
6, 45504, Note_on_c, 5, 67, 86
6, 45712, Note_off_c, 5, 74, 0
6, 45712, Note_off_c, 5, 71, 0
6, 45712, Note_off_c, 5, 67, 0
6, 45792, Note_on_c, 5, 74, 90
6, 45792, Note_on_c, 5, 71, 90
6, 45792, Note_on_c, 5, 67, 90
6, 46000, Note_off_c, 5, 74, 0
6, 46000, Note_off_c, 5, 71, 0
6, 46000, Note_off_c, 5, 67, 0
6, 46080, Note_on_c, 5, 76, 82
6, 46080, Note_on_c, 5, 73, 82
6, 46080, Note_on_c, 5, 69, 82
6, 46368, Note_off_c, 5, 76, 0
6, 46368, Note_off_c, 5, 73, 0
6, 46368, Note_off_c, 5, 69, 0
6, 46464, Note_on_c, 5, 76, 86
6, 46464, Note_on_c, 5, 73, 86
6, 46464, Note_on_c, 5, 69, 86
6, 46624, Note_off_c, 5, 76, 0
6, 46624, Note_off_c, 5, 73, 0
6, 46624, Note_off_c, 5, 69, 0
6, 46656, Note_on_c, 5, 69, 93
6, 46736, Note_off_c, 5, 69, 0
6, 46752, Note_on_c, 5, 76, 89
6, 46752, Note_on_c, 5, 73, 89
6, 46752, Note_on_c, 5, 69, 89
6, 46912, Note_off_c, 5, 76, 0
6, 46912, Note_off_c, 5, 73, 0
6, 46912, Note_off_c, 5, 69, 0
6, 46944, Note_on_c, 5, 69, 93
6, 47024, Note_off_c, 5, 69, 0
6, 47040, Note_on_c, 5, 76, 87
6, 47040, Note_on_c, 5, 73, 87
6, 47040, Note_on_c, 5, 69, 87
6, 47200, Note_off_c, 5, 76, 0
6, 47200, Note_off_c, 5, 73, 0
6, 47200, Note_off_c, 5, 69, 0
6, 47232, Note_on_c, 5, 69, 91
6, 47312, Note_off_c, 5, 69, 0
6, 47328, Note_on_c, 5, 76, 87
6, 47328, Note_on_c, 5, 73, 87
6, 47328, Note_on_c, 5, 69, 87
6, 47536, Note_off_c, 5, 76, 0
6, 47536, Note_off_c, 5, 73, 0
6, 47536, Note_off_c, 5, 69, 0
6, 47616, Note_on_c, 5, 74, 98
6, 47616, Note_on_c, 5, 71, 98
6, 47616, Note_on_c, 5, 67, 98
6, 47616, Note_on_c, 5, 55, 98
6, 47904, Note_off_c, 5, 74, 0
6, 47904, Note_off_c, 5, 71, 0
6, 47904, Note_off_c, 5, 67, 0
6, 47904, Note_off_c, 5, 55, 0
6, 49152, Note_on_c, 5, 78, 82
6, 49152, Note_on_c, 5, 74, 82
6, 49152, Note_on_c, 5, 69, 82
6, 49440, Note_off_c, 5, 78, 0
6, 49440, Note_off_c, 5, 74, 0
6, 49440, Note_off_c, 5, 69, 0
6, 49536, Note_on_c, 5, 78, 86
6, 49536, Note_on_c, 5, 74, 86
6, 49536, Note_on_c, 5, 69, 86
6, 49696, Note_off_c, 5, 78, 0
6, 49696, Note_off_c, 5, 74, 0
6, 49696, Note_off_c, 5, 69, 0
6, 49728, Note_on_c, 5, 62, 93
6, 49808, Note_off_c, 5, 62, 0
6, 49824, Note_on_c, 5, 78, 89
6, 49824, Note_on_c, 5, 74, 89
6, 49824, Note_on_c, 5, 69, 89
6, 49984, Note_off_c, 5, 78, 0
6, 49984, Note_off_c, 5, 74, 0
6, 49984, Note_off_c, 5, 69, 0
6, 50016, Note_on_c, 5, 62, 93
6, 50096, Note_off_c, 5, 62, 0
6, 50112, Note_on_c, 5, 78, 87
6, 50112, Note_on_c, 5, 74, 87
6, 50112, Note_on_c, 5, 69, 87
6, 50272, Note_off_c, 5, 78, 0
6, 50272, Note_off_c, 5, 74, 0
6, 50272, Note_off_c, 5, 69, 0
6, 50304, Note_on_c, 5, 62, 91
6, 50384, Note_off_c, 5, 62, 0
6, 50400, Note_on_c, 5, 78, 87
6, 50400, Note_on_c, 5, 74, 87
6, 50400, Note_on_c, 5, 69, 87
6, 50608, Note_off_c, 5, 78, 0
6, 50608, Note_off_c, 5, 74, 0
6, 50608, Note_off_c, 5, 69, 0
6, 50688, Note_on_c, 5, 78, 82
6, 50688, Note_on_c, 5, 74, 82
6, 50688, Note_on_c, 5, 69, 82
6, 50976, Note_off_c, 5, 78, 0
6, 50976, Note_off_c, 5, 74, 0
6, 50976, Note_off_c, 5, 69, 0
6, 51072, Note_on_c, 5, 78, 86
6, 51072, Note_on_c, 5, 74, 86
6, 51072, Note_on_c, 5, 69, 86
6, 51232, Note_off_c, 5, 78, 0
6, 51232, Note_off_c, 5, 74, 0
6, 51232, Note_off_c, 5, 69, 0
6, 51264, Note_on_c, 5, 62, 93
6, 51344, Note_off_c, 5, 62, 0
6, 51360, Note_on_c, 5, 78, 89
6, 51360, Note_on_c, 5, 74, 89
6, 51360, Note_on_c, 5, 69, 89
6, 51520, Note_off_c, 5, 78, 0
6, 51520, Note_off_c, 5, 74, 0
6, 51520, Note_off_c, 5, 69, 0
6, 51552, Note_on_c, 5, 62, 93
6, 51632, Note_off_c, 5, 62, 0
6, 51648, Note_on_c, 5, 78, 87
6, 51648, Note_on_c, 5, 74, 87
6, 51648, Note_on_c, 5, 69, 87
6, 51808, Note_off_c, 5, 78, 0
6, 51808, Note_off_c, 5, 74, 0
6, 51808, Note_off_c, 5, 69, 0
6, 51840, Note_on_c, 5, 62, 91
6, 51920, Note_off_c, 5, 62, 0
6, 51936, Note_on_c, 5, 78, 87
6, 51936, Note_on_c, 5, 74, 87
6, 51936, Note_on_c, 5, 69, 87
6, 52144, Note_off_c, 5, 78, 0
6, 52144, Note_off_c, 5, 74, 0
6, 52144, Note_off_c, 5, 69, 0
6, 52224, Note_on_c, 5, 78, 82
6, 52224, Note_on_c, 5, 74, 82
6, 52224, Note_on_c, 5, 69, 82
6, 52512, Note_off_c, 5, 78, 0
6, 52512, Note_off_c, 5, 74, 0
6, 52512, Note_off_c, 5, 69, 0
6, 52608, Note_on_c, 5, 78, 86
6, 52608, Note_on_c, 5, 74, 86
6, 52608, Note_on_c, 5, 69, 86
6, 52768, Note_off_c, 5, 78, 0
6, 52768, Note_off_c, 5, 74, 0
6, 52768, Note_off_c, 5, 69, 0
6, 52800, Note_on_c, 5, 62, 93
6, 52880, Note_off_c, 5, 62, 0
6, 52896, Note_on_c, 5, 78, 89
6, 52896, Note_on_c, 5, 74, 89
6, 52896, Note_on_c, 5, 69, 89
6, 53056, Note_off_c, 5, 78, 0
6, 53056, Note_off_c, 5, 74, 0
6, 53056, Note_off_c, 5, 69, 0
6, 53088, Note_on_c, 5, 62, 93
6, 53168, Note_off_c, 5, 62, 0
6, 53184, Note_on_c, 5, 78, 87
6, 53184, Note_on_c, 5, 74, 87
6, 53184, Note_on_c, 5, 69, 87
6, 53344, Note_off_c, 5, 78, 0
6, 53344, Note_off_c, 5, 74, 0
6, 53344, Note_off_c, 5, 69, 0
6, 53376, Note_on_c, 5, 62, 91
6, 53456, Note_off_c, 5, 62, 0
6, 53472, Note_on_c, 5, 78, 87
6, 53472, Note_on_c, 5, 74, 87
6, 53472, Note_on_c, 5, 69, 87
6, 53680, Note_off_c, 5, 78, 0
6, 53680, Note_off_c, 5, 74, 0
6, 53680, Note_off_c, 5, 69, 0
6, 53760, Note_on_c, 5, 78, 82
6, 53760, Note_on_c, 5, 74, 82
6, 53760, Note_on_c, 5, 69, 82
6, 54048, Note_off_c, 5, 78, 0
6, 54048, Note_off_c, 5, 74, 0
6, 54048, Note_off_c, 5, 69, 0
6, 54144, Note_on_c, 5, 78, 86
6, 54144, Note_on_c, 5, 74, 86
6, 54144, Note_on_c, 5, 69, 86
6, 54304, Note_off_c, 5, 78, 0
6, 54304, Note_off_c, 5, 74, 0
6, 54304, Note_off_c, 5, 69, 0
6, 54336, Note_on_c, 5, 62, 93
6, 54416, Note_off_c, 5, 62, 0
6, 54432, Note_on_c, 5, 78, 89
6, 54432, Note_on_c, 5, 74, 89
6, 54432, Note_on_c, 5, 69, 89
6, 54592, Note_off_c, 5, 78, 0
6, 54592, Note_off_c, 5, 74, 0
6, 54592, Note_off_c, 5, 69, 0
6, 54624, Note_on_c, 5, 62, 93
6, 54704, Note_off_c, 5, 62, 0
6, 54720, Note_on_c, 5, 78, 87
6, 54720, Note_on_c, 5, 74, 87
6, 54720, Note_on_c, 5, 69, 87
6, 54880, Note_off_c, 5, 78, 0
6, 54880, Note_off_c, 5, 74, 0
6, 54880, Note_off_c, 5, 69, 0
6, 54912, Note_on_c, 5, 62, 91
6, 54992, Note_off_c, 5, 62, 0
6, 55008, Note_on_c, 5, 78, 87
6, 55008, Note_on_c, 5, 74, 87
6, 55008, Note_on_c, 5, 69, 87
6, 55216, Note_off_c, 5, 78, 0
6, 55216, Note_off_c, 5, 74, 0
6, 55216, Note_off_c, 5, 69, 0
6, 55296, Note_on_c, 5, 76, 82
6, 55296, Note_on_c, 5, 72, 82
6, 55296, Note_on_c, 5, 67, 82
6, 55584, Note_off_c, 5, 76, 0
6, 55584, Note_off_c, 5, 72, 0
6, 55584, Note_off_c, 5, 67, 0
6, 55680, Note_on_c, 5, 76, 86
6, 55680, Note_on_c, 5, 72, 86
6, 55680, Note_on_c, 5, 67, 86
6, 55840, Note_off_c, 5, 76, 0
6, 55840, Note_off_c, 5, 72, 0
6, 55840, Note_off_c, 5, 67, 0
6, 55872, Note_on_c, 5, 60, 93
6, 55952, Note_off_c, 5, 60, 0
6, 55968, Note_on_c, 5, 76, 89
6, 55968, Note_on_c, 5, 72, 89
6, 55968, Note_on_c, 5, 67, 89
6, 56128, Note_off_c, 5, 76, 0
6, 56128, Note_off_c, 5, 72, 0
6, 56128, Note_off_c, 5, 67, 0
6, 56160, Note_on_c, 5, 60, 93
6, 56240, Note_off_c, 5, 60, 0
6, 56256, Note_on_c, 5, 76, 87
6, 56256, Note_on_c, 5, 72, 87
6, 56256, Note_on_c, 5, 67, 87
6, 56416, Note_off_c, 5, 76, 0
6, 56416, Note_off_c, 5, 72, 0
6, 56416, Note_off_c, 5, 67, 0
6, 56448, Note_on_c, 5, 60, 91
6, 56528, Note_off_c, 5, 60, 0
6, 56544, Note_on_c, 5, 76, 87
6, 56544, Note_on_c, 5, 72, 87
6, 56544, Note_on_c, 5, 67, 87
6, 56752, Note_off_c, 5, 76, 0
6, 56752, Note_off_c, 5, 72, 0
6, 56752, Note_off_c, 5, 67, 0
6, 56832, Note_on_c, 5, 74, 82
6, 56832, Note_on_c, 5, 71, 82
6, 56832, Note_on_c, 5, 67, 82
6, 57120, Note_off_c, 5, 74, 0
6, 57120, Note_off_c, 5, 71, 0
6, 57120, Note_off_c, 5, 67, 0
6, 57216, Note_on_c, 5, 74, 86
6, 57216, Note_on_c, 5, 71, 86
6, 57216, Note_on_c, 5, 67, 86
6, 57376, Note_off_c, 5, 74, 0
6, 57376, Note_off_c, 5, 71, 0
6, 57376, Note_off_c, 5, 67, 0
6, 57408, Note_on_c, 5, 64, 93
6, 57488, Note_off_c, 5, 64, 0
6, 57504, Note_on_c, 5, 74, 89
6, 57504, Note_on_c, 5, 71, 89
6, 57504, Note_on_c, 5, 67, 89
6, 57664, Note_off_c, 5, 74, 0
6, 57664, Note_off_c, 5, 71, 0
6, 57664, Note_off_c, 5, 67, 0
6, 57696, Note_on_c, 5, 64, 93
6, 57776, Note_off_c, 5, 64, 0
6, 57792, Note_on_c, 5, 74, 87
6, 57792, Note_on_c, 5, 71, 87
6, 57792, Note_on_c, 5, 67, 87
6, 57952, Note_off_c, 5, 74, 0
6, 57952, Note_off_c, 5, 71, 0
6, 57952, Note_off_c, 5, 67, 0
6, 57984, Note_on_c, 5, 64, 91
6, 58064, Note_off_c, 5, 64, 0
6, 58080, Note_on_c, 5, 74, 87
6, 58080, Note_on_c, 5, 71, 87
6, 58080, Note_on_c, 5, 67, 87
6, 58288, Note_off_c, 5, 74, 0
6, 58288, Note_off_c, 5, 71, 0
6, 58288, Note_off_c, 5, 67, 0
6, 58368, Note_on_c, 5, 74, 82
6, 58368, Note_on_c, 5, 71, 82
6, 58368, Note_on_c, 5, 79, 82
6, 58656, Note_off_c, 5, 74, 0
6, 58656, Note_off_c, 5, 71, 0
6, 58656, Note_off_c, 5, 79, 0
6, 58752, Note_on_c, 5, 74, 86
6, 58752, Note_on_c, 5, 71, 86
6, 58752, Note_on_c, 5, 79, 86
6, 58912, Note_off_c, 5, 74, 0
6, 58912, Note_off_c, 5, 71, 0
6, 58912, Note_off_c, 5, 79, 0
6, 58944, Note_on_c, 5, 67, 93
6, 59024, Note_off_c, 5, 67, 0
6, 59040, Note_on_c, 5, 74, 89
6, 59040, Note_on_c, 5, 71, 89
6, 59040, Note_on_c, 5, 79, 89
6, 59200, Note_off_c, 5, 74, 0
6, 59200, Note_off_c, 5, 71, 0
6, 59200, Note_off_c, 5, 79, 0
6, 59232, Note_on_c, 5, 67, 93
6, 59312, Note_off_c, 5, 67, 0
6, 59328, Note_on_c, 5, 74, 87
6, 59328, Note_on_c, 5, 71, 87
6, 59328, Note_on_c, 5, 79, 87
6, 59488, Note_off_c, 5, 74, 0
6, 59488, Note_off_c, 5, 71, 0
6, 59488, Note_off_c, 5, 79, 0
6, 59520, Note_on_c, 5, 67, 91
6, 59600, Note_off_c, 5, 67, 0
6, 59616, Note_on_c, 5, 74, 87
6, 59616, Note_on_c, 5, 71, 87
6, 59616, Note_on_c, 5, 79, 87
6, 59824, Note_off_c, 5, 74, 0
6, 59824, Note_off_c, 5, 71, 0
6, 59824, Note_off_c, 5, 79, 0
6, 59904, Note_on_c, 5, 74, 82
6, 59904, Note_on_c, 5, 71, 82
6, 59904, Note_on_c, 5, 79, 82
6, 60192, Note_off_c, 5, 74, 0
6, 60192, Note_off_c, 5, 71, 0
6, 60192, Note_off_c, 5, 79, 0
6, 60288, Note_on_c, 5, 74, 86
6, 60288, Note_on_c, 5, 71, 86
6, 60288, Note_on_c, 5, 79, 86
6, 60448, Note_off_c, 5, 74, 0
6, 60448, Note_off_c, 5, 71, 0
6, 60448, Note_off_c, 5, 79, 0
6, 60480, Note_on_c, 5, 67, 93
6, 60560, Note_off_c, 5, 67, 0
6, 60576, Note_on_c, 5, 74, 89
6, 60576, Note_on_c, 5, 71, 89
6, 60576, Note_on_c, 5, 79, 89
6, 60736, Note_off_c, 5, 74, 0
6, 60736, Note_off_c, 5, 71, 0
6, 60736, Note_off_c, 5, 79, 0
6, 60768, Note_on_c, 5, 67, 93
6, 60848, Note_off_c, 5, 67, 0
6, 60864, Note_on_c, 5, 74, 87
6, 60864, Note_on_c, 5, 71, 87
6, 60864, Note_on_c, 5, 79, 87
6, 61024, Note_off_c, 5, 74, 0
6, 61024, Note_off_c, 5, 71, 0
6, 61024, Note_off_c, 5, 79, 0
6, 61056, Note_on_c, 5, 67, 91
6, 61136, Note_off_c, 5, 67, 0
6, 61152, Note_on_c, 5, 74, 87
6, 61152, Note_on_c, 5, 71, 87
6, 61152, Note_on_c, 5, 79, 87
6, 61360, Note_off_c, 5, 74, 0
6, 61360, Note_off_c, 5, 71, 0
6, 61360, Note_off_c, 5, 79, 0
6, 61440, Note_on_c, 5, 69, 82
6, 61440, Note_on_c, 5, 73, 82
6, 61440, Note_on_c, 5, 76, 82
6, 61728, Note_off_c, 5, 69, 0
6, 61728, Note_off_c, 5, 73, 0
6, 61728, Note_off_c, 5, 76, 0
6, 61824, Note_on_c, 5, 69, 87
6, 61824, Note_on_c, 5, 73, 86
6, 61824, Note_on_c, 5, 76, 86
6, 62032, Note_off_c, 5, 69, 0
6, 62032, Note_off_c, 5, 73, 0
6, 62032, Note_off_c, 5, 76, 0
6, 62112, Note_on_c, 5, 69, 88
6, 62112, Note_on_c, 5, 73, 88
6, 62112, Note_on_c, 5, 76, 88
6, 62320, Note_off_c, 5, 69, 0
6, 62320, Note_off_c, 5, 73, 0
6, 62320, Note_off_c, 5, 76, 0
6, 62400, Note_on_c, 5, 69, 86
6, 62400, Note_on_c, 5, 73, 86
6, 62400, Note_on_c, 5, 76, 86
6, 62608, Note_off_c, 5, 69, 0
6, 62608, Note_off_c, 5, 73, 0
6, 62608, Note_off_c, 5, 76, 0
6, 62688, Note_on_c, 5, 69, 90
6, 62688, Note_on_c, 5, 73, 90
6, 62688, Note_on_c, 5, 76, 90
6, 62896, Note_off_c, 5, 69, 0
6, 62896, Note_off_c, 5, 73, 0
6, 62896, Note_off_c, 5, 76, 0
6, 62976, Note_on_c, 5, 69, 82
6, 62976, Note_on_c, 5, 73, 82
6, 62976, Note_on_c, 5, 76, 82
6, 63264, Note_off_c, 5, 69, 0
6, 63264, Note_off_c, 5, 73, 0
6, 63264, Note_off_c, 5, 76, 0
6, 63360, Note_on_c, 5, 69, 87
6, 63360, Note_on_c, 5, 73, 86
6, 63360, Note_on_c, 5, 76, 86
6, 63568, Note_off_c, 5, 69, 0
6, 63568, Note_off_c, 5, 73, 0
6, 63568, Note_off_c, 5, 76, 0
6, 63648, Note_on_c, 5, 69, 88
6, 63648, Note_on_c, 5, 73, 88
6, 63648, Note_on_c, 5, 76, 88
6, 63856, Note_off_c, 5, 69, 0
6, 63856, Note_off_c, 5, 73, 0
6, 63856, Note_off_c, 5, 76, 0
6, 63936, Note_on_c, 5, 69, 86
6, 63936, Note_on_c, 5, 73, 86
6, 63936, Note_on_c, 5, 76, 86
6, 64144, Note_off_c, 5, 69, 0
6, 64144, Note_off_c, 5, 73, 0
6, 64144, Note_off_c, 5, 76, 0
6, 64224, Note_on_c, 5, 69, 90
6, 64224, Note_on_c, 5, 73, 90
6, 64224, Note_on_c, 5, 76, 90
6, 64432, Note_off_c, 5, 69, 0
6, 64432, Note_off_c, 5, 73, 0
6, 64432, Note_off_c, 5, 76, 0
6, 64512, Note_on_c, 5, 69, 82
6, 64512, Note_on_c, 5, 73, 82
6, 64512, Note_on_c, 5, 76, 82
6, 64800, Note_off_c, 5, 69, 0
6, 64800, Note_off_c, 5, 73, 0
6, 64800, Note_off_c, 5, 76, 0
6, 64896, Note_on_c, 5, 69, 87
6, 64896, Note_on_c, 5, 73, 86
6, 64896, Note_on_c, 5, 76, 86
6, 65104, Note_off_c, 5, 69, 0
6, 65104, Note_off_c, 5, 73, 0
6, 65104, Note_off_c, 5, 76, 0
6, 65184, Note_on_c, 5, 69, 88
6, 65184, Note_on_c, 5, 73, 88
6, 65184, Note_on_c, 5, 76, 88
6, 65392, Note_off_c, 5, 69, 0
6, 65392, Note_off_c, 5, 73, 0
6, 65392, Note_off_c, 5, 76, 0
6, 65472, Note_on_c, 5, 69, 86
6, 65472, Note_on_c, 5, 73, 86
6, 65472, Note_on_c, 5, 76, 86
6, 65680, Note_off_c, 5, 69, 0
6, 65680, Note_off_c, 5, 73, 0
6, 65680, Note_off_c, 5, 76, 0
6, 65760, Note_on_c, 5, 69, 90
6, 65760, Note_on_c, 5, 73, 90
6, 65760, Note_on_c, 5, 76, 90
6, 65968, Note_off_c, 5, 69, 0
6, 65968, Note_off_c, 5, 73, 0
6, 65968, Note_off_c, 5, 76, 0
6, 66048, Note_on_c, 5, 69, 82
6, 66048, Note_on_c, 5, 73, 82
6, 66048, Note_on_c, 5, 76, 82
6, 66336, Note_off_c, 5, 69, 0
6, 66336, Note_off_c, 5, 73, 0
6, 66336, Note_off_c, 5, 76, 0
6, 66432, Note_on_c, 5, 69, 87
6, 66432, Note_on_c, 5, 73, 86
6, 66432, Note_on_c, 5, 76, 86
6, 66640, Note_off_c, 5, 69, 0
6, 66640, Note_off_c, 5, 73, 0
6, 66640, Note_off_c, 5, 76, 0
6, 66720, Note_on_c, 5, 69, 88
6, 66720, Note_on_c, 5, 73, 88
6, 66720, Note_on_c, 5, 76, 88
6, 66928, Note_off_c, 5, 69, 0
6, 66928, Note_off_c, 5, 73, 0
6, 66928, Note_off_c, 5, 76, 0
6, 67008, Note_on_c, 5, 69, 86
6, 67008, Note_on_c, 5, 73, 86
6, 67008, Note_on_c, 5, 76, 86
6, 67216, Note_off_c, 5, 69, 0
6, 67216, Note_off_c, 5, 73, 0
6, 67216, Note_off_c, 5, 76, 0
6, 67296, Note_on_c, 5, 69, 90
6, 67296, Note_on_c, 5, 73, 90
6, 67296, Note_on_c, 5, 76, 90
6, 67504, Note_off_c, 5, 69, 0
6, 67504, Note_off_c, 5, 73, 0
6, 67504, Note_off_c, 5, 76, 0
6, 67584, Note_on_c, 5, 64, 82
6, 67584, Note_on_c, 5, 67, 82
6, 67584, Note_on_c, 5, 71, 82
6, 67584, Note_on_c, 5, 74, 82
6, 67872, Note_off_c, 5, 64, 0
6, 67872, Note_off_c, 5, 67, 0
6, 67872, Note_off_c, 5, 71, 0
6, 67872, Note_off_c, 5, 74, 0
6, 67968, Note_on_c, 5, 64, 87
6, 67968, Note_on_c, 5, 67, 87
6, 67968, Note_on_c, 5, 71, 86
6, 67968, Note_on_c, 5, 74, 86
6, 68176, Note_off_c, 5, 64, 0
6, 68176, Note_off_c, 5, 67, 0
6, 68176, Note_off_c, 5, 71, 0
6, 68176, Note_off_c, 5, 74, 0
6, 68256, Note_on_c, 5, 64, 88
6, 68256, Note_on_c, 5, 67, 88
6, 68256, Note_on_c, 5, 71, 88
6, 68256, Note_on_c, 5, 74, 88
6, 68464, Note_off_c, 5, 64, 0
6, 68464, Note_off_c, 5, 67, 0
6, 68464, Note_off_c, 5, 71, 0
6, 68464, Note_off_c, 5, 74, 0
6, 68544, Note_on_c, 5, 64, 86
6, 68544, Note_on_c, 5, 67, 86
6, 68544, Note_on_c, 5, 71, 86
6, 68544, Note_on_c, 5, 74, 86
6, 68752, Note_off_c, 5, 64, 0
6, 68752, Note_off_c, 5, 67, 0
6, 68752, Note_off_c, 5, 71, 0
6, 68752, Note_off_c, 5, 74, 0
6, 68832, Note_on_c, 5, 64, 90
6, 68832, Note_on_c, 5, 67, 90
6, 68832, Note_on_c, 5, 71, 90
6, 68832, Note_on_c, 5, 74, 90
6, 69040, Note_off_c, 5, 64, 0
6, 69040, Note_off_c, 5, 67, 0
6, 69040, Note_off_c, 5, 71, 0
6, 69040, Note_off_c, 5, 74, 0
6, 69120, Note_on_c, 5, 67, 82
6, 69120, Note_on_c, 5, 71, 82
6, 69120, Note_on_c, 5, 74, 82
6, 69408, Note_off_c, 5, 67, 0
6, 69408, Note_off_c, 5, 71, 0
6, 69408, Note_off_c, 5, 74, 0
6, 69504, Note_on_c, 5, 67, 87
6, 69504, Note_on_c, 5, 71, 86
6, 69504, Note_on_c, 5, 74, 86
6, 69712, Note_off_c, 5, 67, 0
6, 69712, Note_off_c, 5, 71, 0
6, 69712, Note_off_c, 5, 74, 0
6, 69792, Note_on_c, 5, 67, 88
6, 69792, Note_on_c, 5, 71, 88
6, 69792, Note_on_c, 5, 74, 88
6, 70000, Note_off_c, 5, 67, 0
6, 70000, Note_off_c, 5, 71, 0
6, 70000, Note_off_c, 5, 74, 0
6, 70080, Note_on_c, 5, 67, 86
6, 70080, Note_on_c, 5, 71, 86
6, 70080, Note_on_c, 5, 74, 86
6, 70288, Note_off_c, 5, 67, 0
6, 70288, Note_off_c, 5, 71, 0
6, 70288, Note_off_c, 5, 74, 0
6, 70368, Note_on_c, 5, 67, 90
6, 70368, Note_on_c, 5, 71, 90
6, 70368, Note_on_c, 5, 74, 90
6, 70576, Note_off_c, 5, 67, 0
6, 70576, Note_off_c, 5, 71, 0
6, 70576, Note_off_c, 5, 74, 0
6, 70656, Note_on_c, 5, 69, 82
6, 70656, Note_on_c, 5, 74, 82
6, 70656, Note_on_c, 5, 78, 82
6, 70944, Note_off_c, 5, 69, 0
6, 70944, Note_off_c, 5, 74, 0
6, 70944, Note_off_c, 5, 78, 0
6, 71040, Note_on_c, 5, 69, 87
6, 71040, Note_on_c, 5, 74, 86
6, 71040, Note_on_c, 5, 78, 86
6, 71248, Note_off_c, 5, 69, 0
6, 71248, Note_off_c, 5, 74, 0
6, 71248, Note_off_c, 5, 78, 0
6, 71328, Note_on_c, 5, 69, 88
6, 71328, Note_on_c, 5, 74, 88
6, 71328, Note_on_c, 5, 78, 88
6, 71536, Note_off_c, 5, 69, 0
6, 71536, Note_off_c, 5, 74, 0
6, 71536, Note_off_c, 5, 78, 0
6, 71616, Note_on_c, 5, 69, 86
6, 71616, Note_on_c, 5, 74, 86
6, 71616, Note_on_c, 5, 79, 86
6, 71824, Note_off_c, 5, 69, 0
6, 71824, Note_off_c, 5, 74, 0
6, 71824, Note_off_c, 5, 79, 0
6, 71904, Note_on_c, 5, 69, 90
6, 71904, Note_on_c, 5, 74, 90
6, 71904, Note_on_c, 5, 78, 90
6, 72112, Note_off_c, 5, 69, 0
6, 72112, Note_off_c, 5, 74, 0
6, 72112, Note_off_c, 5, 78, 0
6, 72192, Note_on_c, 5, 69, 82
6, 72192, Note_on_c, 5, 74, 82
6, 72192, Note_on_c, 5, 78, 82
6, 72480, Note_off_c, 5, 69, 0
6, 72480, Note_off_c, 5, 74, 0
6, 72480, Note_off_c, 5, 78, 0
6, 72576, Note_on_c, 5, 69, 87
6, 72576, Note_on_c, 5, 74, 86
6, 72576, Note_on_c, 5, 78, 86
6, 72784, Note_off_c, 5, 69, 0
6, 72784, Note_off_c, 5, 74, 0
6, 72784, Note_off_c, 5, 78, 0
6, 72864, Note_on_c, 5, 69, 88
6, 72864, Note_on_c, 5, 74, 88
6, 72864, Note_on_c, 5, 78, 88
6, 73072, Note_off_c, 5, 69, 0
6, 73072, Note_off_c, 5, 74, 0
6, 73072, Note_off_c, 5, 78, 0
6, 73152, Note_on_c, 5, 69, 86
6, 73152, Note_on_c, 5, 74, 86
6, 73152, Note_on_c, 5, 79, 86
6, 73360, Note_off_c, 5, 69, 0
6, 73360, Note_off_c, 5, 74, 0
6, 73360, Note_off_c, 5, 79, 0
6, 73440, Note_on_c, 5, 69, 90
6, 73440, Note_on_c, 5, 74, 90
6, 73440, Note_on_c, 5, 78, 90
6, 73648, Note_off_c, 5, 69, 0
6, 73648, Note_off_c, 5, 74, 0
6, 73648, Note_off_c, 5, 78, 0
6, 73728, Note_on_c, 5, 69, 82
6, 73728, Note_on_c, 5, 73, 82
6, 73728, Note_on_c, 5, 76, 82
6, 74016, Note_off_c, 5, 69, 0
6, 74016, Note_off_c, 5, 73, 0
6, 74016, Note_off_c, 5, 76, 0
6, 74112, Note_on_c, 5, 69, 87
6, 74112, Note_on_c, 5, 73, 86
6, 74112, Note_on_c, 5, 76, 86
6, 74320, Note_off_c, 5, 69, 0
6, 74320, Note_off_c, 5, 73, 0
6, 74320, Note_off_c, 5, 76, 0
6, 74400, Note_on_c, 5, 69, 88
6, 74400, Note_on_c, 5, 73, 88
6, 74400, Note_on_c, 5, 76, 88
6, 74608, Note_off_c, 5, 69, 0
6, 74608, Note_off_c, 5, 73, 0
6, 74608, Note_off_c, 5, 76, 0
6, 74688, Note_on_c, 5, 69, 86
6, 74688, Note_on_c, 5, 73, 86
6, 74688, Note_on_c, 5, 76, 86
6, 74896, Note_off_c, 5, 69, 0
6, 74896, Note_off_c, 5, 73, 0
6, 74896, Note_off_c, 5, 76, 0
6, 74976, Note_on_c, 5, 69, 90
6, 74976, Note_on_c, 5, 73, 90
6, 74976, Note_on_c, 5, 76, 90
6, 75184, Note_off_c, 5, 69, 0
6, 75184, Note_off_c, 5, 73, 0
6, 75184, Note_off_c, 5, 76, 0
6, 75264, Note_on_c, 5, 69, 82
6, 75264, Note_on_c, 5, 73, 82
6, 75264, Note_on_c, 5, 76, 82
6, 75552, Note_off_c, 5, 69, 0
6, 75552, Note_off_c, 5, 73, 0
6, 75552, Note_off_c, 5, 76, 0
6, 75648, Note_on_c, 5, 69, 87
6, 75648, Note_on_c, 5, 73, 86
6, 75648, Note_on_c, 5, 76, 86
6, 75856, Note_off_c, 5, 69, 0
6, 75856, Note_off_c, 5, 73, 0
6, 75856, Note_off_c, 5, 76, 0
6, 75936, Note_on_c, 5, 69, 88
6, 75936, Note_on_c, 5, 73, 88
6, 75936, Note_on_c, 5, 76, 88
6, 76144, Note_off_c, 5, 69, 0
6, 76144, Note_off_c, 5, 73, 0
6, 76144, Note_off_c, 5, 76, 0
6, 76224, Note_on_c, 5, 69, 86
6, 76224, Note_on_c, 5, 73, 86
6, 76224, Note_on_c, 5, 76, 86
6, 76432, Note_off_c, 5, 69, 0
6, 76432, Note_off_c, 5, 73, 0
6, 76432, Note_off_c, 5, 76, 0
6, 76512, Note_on_c, 5, 69, 90
6, 76512, Note_on_c, 5, 73, 90
6, 76512, Note_on_c, 5, 76, 90
6, 76720, Note_off_c, 5, 69, 0
6, 76720, Note_off_c, 5, 73, 0
6, 76720, Note_off_c, 5, 76, 0
6, 76800, Note_on_c, 5, 69, 82
6, 76800, Note_on_c, 5, 73, 82
6, 76800, Note_on_c, 5, 76, 82
6, 77088, Note_off_c, 5, 69, 0
6, 77088, Note_off_c, 5, 73, 0
6, 77088, Note_off_c, 5, 76, 0
6, 77184, Note_on_c, 5, 69, 87
6, 77184, Note_on_c, 5, 73, 86
6, 77184, Note_on_c, 5, 76, 86
6, 77392, Note_off_c, 5, 69, 0
6, 77392, Note_off_c, 5, 73, 0
6, 77392, Note_off_c, 5, 76, 0
6, 77472, Note_on_c, 5, 69, 88
6, 77472, Note_on_c, 5, 73, 88
6, 77472, Note_on_c, 5, 76, 88
6, 77680, Note_off_c, 5, 69, 0
6, 77680, Note_off_c, 5, 73, 0
6, 77680, Note_off_c, 5, 76, 0
6, 77760, Note_on_c, 5, 69, 86
6, 77760, Note_on_c, 5, 73, 86
6, 77760, Note_on_c, 5, 76, 86
6, 77968, Note_off_c, 5, 69, 0
6, 77968, Note_off_c, 5, 73, 0
6, 77968, Note_off_c, 5, 76, 0
6, 78048, Note_on_c, 5, 69, 90
6, 78048, Note_on_c, 5, 73, 90
6, 78048, Note_on_c, 5, 76, 90
6, 78256, Note_off_c, 5, 69, 0
6, 78256, Note_off_c, 5, 73, 0
6, 78256, Note_off_c, 5, 76, 0
6, 78336, Note_on_c, 5, 69, 82
6, 78336, Note_on_c, 5, 73, 82
6, 78336, Note_on_c, 5, 76, 82
6, 78624, Note_off_c, 5, 69, 0
6, 78624, Note_off_c, 5, 73, 0
6, 78624, Note_off_c, 5, 76, 0
6, 78720, Note_on_c, 5, 69, 87
6, 78720, Note_on_c, 5, 73, 86
6, 78720, Note_on_c, 5, 76, 86
6, 78928, Note_off_c, 5, 69, 0
6, 78928, Note_off_c, 5, 73, 0
6, 78928, Note_off_c, 5, 76, 0
6, 79008, Note_on_c, 5, 69, 88
6, 79008, Note_on_c, 5, 73, 88
6, 79008, Note_on_c, 5, 76, 88
6, 79216, Note_off_c, 5, 69, 0
6, 79216, Note_off_c, 5, 73, 0
6, 79216, Note_off_c, 5, 76, 0
6, 79296, Note_on_c, 5, 69, 86
6, 79296, Note_on_c, 5, 73, 86
6, 79296, Note_on_c, 5, 76, 86
6, 79504, Note_off_c, 5, 69, 0
6, 79504, Note_off_c, 5, 73, 0
6, 79504, Note_off_c, 5, 76, 0
6, 79584, Note_on_c, 5, 69, 90
6, 79584, Note_on_c, 5, 73, 90
6, 79584, Note_on_c, 5, 76, 90
6, 79792, Note_off_c, 5, 69, 0
6, 79792, Note_off_c, 5, 73, 0
6, 79792, Note_off_c, 5, 76, 0
6, 79872, Note_on_c, 5, 64, 82
6, 79872, Note_on_c, 5, 67, 82
6, 79872, Note_on_c, 5, 71, 82
6, 79872, Note_on_c, 5, 74, 82
6, 80160, Note_off_c, 5, 64, 0
6, 80160, Note_off_c, 5, 67, 0
6, 80160, Note_off_c, 5, 71, 0
6, 80160, Note_off_c, 5, 74, 0
6, 80256, Note_on_c, 5, 64, 87
6, 80256, Note_on_c, 5, 67, 87
6, 80256, Note_on_c, 5, 71, 86
6, 80256, Note_on_c, 5, 74, 86
6, 80464, Note_off_c, 5, 64, 0
6, 80464, Note_off_c, 5, 67, 0
6, 80464, Note_off_c, 5, 71, 0
6, 80464, Note_off_c, 5, 74, 0
6, 80544, Note_on_c, 5, 64, 88
6, 80544, Note_on_c, 5, 67, 88
6, 80544, Note_on_c, 5, 71, 88
6, 80544, Note_on_c, 5, 74, 88
6, 80752, Note_off_c, 5, 64, 0
6, 80752, Note_off_c, 5, 67, 0
6, 80752, Note_off_c, 5, 71, 0
6, 80752, Note_off_c, 5, 74, 0
6, 80832, Note_on_c, 5, 64, 86
6, 80832, Note_on_c, 5, 67, 86
6, 80832, Note_on_c, 5, 71, 86
6, 80832, Note_on_c, 5, 74, 86
6, 81040, Note_off_c, 5, 64, 0
6, 81040, Note_off_c, 5, 67, 0
6, 81040, Note_off_c, 5, 71, 0
6, 81040, Note_off_c, 5, 74, 0
6, 81120, Note_on_c, 5, 64, 90
6, 81120, Note_on_c, 5, 67, 90
6, 81120, Note_on_c, 5, 71, 90
6, 81120, Note_on_c, 5, 74, 90
6, 81328, Note_off_c, 5, 64, 0
6, 81328, Note_off_c, 5, 67, 0
6, 81328, Note_off_c, 5, 71, 0
6, 81328, Note_off_c, 5, 74, 0
6, 81408, Note_on_c, 5, 67, 82
6, 81408, Note_on_c, 5, 71, 82
6, 81408, Note_on_c, 5, 74, 82
6, 81696, Note_off_c, 5, 67, 0
6, 81696, Note_off_c, 5, 71, 0
6, 81696, Note_off_c, 5, 74, 0
6, 81792, Note_on_c, 5, 67, 87
6, 81792, Note_on_c, 5, 71, 86
6, 81792, Note_on_c, 5, 74, 86
6, 82000, Note_off_c, 5, 67, 0
6, 82000, Note_off_c, 5, 71, 0
6, 82000, Note_off_c, 5, 74, 0
6, 82080, Note_on_c, 5, 67, 88
6, 82080, Note_on_c, 5, 71, 88
6, 82080, Note_on_c, 5, 74, 88
6, 82288, Note_off_c, 5, 67, 0
6, 82288, Note_off_c, 5, 71, 0
6, 82288, Note_off_c, 5, 74, 0
6, 82368, Note_on_c, 5, 67, 86
6, 82368, Note_on_c, 5, 71, 86
6, 82368, Note_on_c, 5, 74, 86
6, 82576, Note_off_c, 5, 67, 0
6, 82576, Note_off_c, 5, 71, 0
6, 82576, Note_off_c, 5, 74, 0
6, 82656, Note_on_c, 5, 67, 90
6, 82656, Note_on_c, 5, 71, 90
6, 82656, Note_on_c, 5, 74, 90
6, 82864, Note_off_c, 5, 67, 0
6, 82864, Note_off_c, 5, 71, 0
6, 82864, Note_off_c, 5, 74, 0
6, 82944, Note_on_c, 5, 69, 82
6, 82944, Note_on_c, 5, 74, 82
6, 82944, Note_on_c, 5, 78, 82
6, 83232, Note_off_c, 5, 69, 0
6, 83232, Note_off_c, 5, 74, 0
6, 83232, Note_off_c, 5, 78, 0
6, 83328, Note_on_c, 5, 69, 87
6, 83328, Note_on_c, 5, 74, 86
6, 83328, Note_on_c, 5, 78, 86
6, 83536, Note_off_c, 5, 69, 0
6, 83536, Note_off_c, 5, 74, 0
6, 83536, Note_off_c, 5, 78, 0
6, 83616, Note_on_c, 5, 69, 88
6, 83616, Note_on_c, 5, 74, 88
6, 83616, Note_on_c, 5, 78, 88
6, 83824, Note_off_c, 5, 69, 0
6, 83824, Note_off_c, 5, 74, 0
6, 83824, Note_off_c, 5, 78, 0
6, 83904, Note_on_c, 5, 69, 86
6, 83904, Note_on_c, 5, 74, 86
6, 83904, Note_on_c, 5, 79, 86
6, 84112, Note_off_c, 5, 69, 0
6, 84112, Note_off_c, 5, 74, 0
6, 84112, Note_off_c, 5, 79, 0
6, 84192, Note_on_c, 5, 69, 90
6, 84192, Note_on_c, 5, 74, 90
6, 84192, Note_on_c, 5, 78, 90
6, 84400, Note_off_c, 5, 69, 0
6, 84400, Note_off_c, 5, 74, 0
6, 84400, Note_off_c, 5, 78, 0
6, 84480, Note_on_c, 5, 69, 82
6, 84480, Note_on_c, 5, 74, 82
6, 84480, Note_on_c, 5, 78, 82
6, 84768, Note_off_c, 5, 69, 0
6, 84768, Note_off_c, 5, 74, 0
6, 84768, Note_off_c, 5, 78, 0
6, 84864, Note_on_c, 5, 69, 87
6, 84864, Note_on_c, 5, 74, 86
6, 84864, Note_on_c, 5, 78, 86
6, 85072, Note_off_c, 5, 69, 0
6, 85072, Note_off_c, 5, 74, 0
6, 85072, Note_off_c, 5, 78, 0
6, 85152, Note_on_c, 5, 69, 88
6, 85152, Note_on_c, 5, 74, 88
6, 85152, Note_on_c, 5, 78, 88
6, 85360, Note_off_c, 5, 69, 0
6, 85360, Note_off_c, 5, 74, 0
6, 85360, Note_off_c, 5, 78, 0
6, 85440, Note_on_c, 5, 69, 86
6, 85440, Note_on_c, 5, 74, 86
6, 85440, Note_on_c, 5, 79, 86
6, 85648, Note_off_c, 5, 69, 0
6, 85648, Note_off_c, 5, 74, 0
6, 85648, Note_off_c, 5, 79, 0
6, 85728, Note_on_c, 5, 69, 90
6, 85728, Note_on_c, 5, 74, 90
6, 85728, Note_on_c, 5, 78, 90
6, 85936, Note_off_c, 5, 69, 0
6, 85936, Note_off_c, 5, 74, 0
6, 85936, Note_off_c, 5, 78, 0
6, 86016, Note_on_c, 5, 72, 82
6, 86016, Note_on_c, 5, 69, 82
6, 86016, Note_on_c, 5, 65, 82
6, 86016, Note_on_c, 5, 62, 82
6, 86304, Note_off_c, 5, 72, 0
6, 86304, Note_off_c, 5, 69, 0
6, 86304, Note_off_c, 5, 65, 0
6, 86304, Note_off_c, 5, 62, 0
6, 86400, Note_on_c, 5, 72, 86
6, 86400, Note_on_c, 5, 69, 86
6, 86400, Note_on_c, 5, 65, 86
6, 86400, Note_on_c, 5, 62, 86
6, 86608, Note_off_c, 5, 72, 0
6, 86608, Note_off_c, 5, 69, 0
6, 86608, Note_off_c, 5, 65, 0
6, 86608, Note_off_c, 5, 62, 0
6, 86688, Note_on_c, 5, 72, 88
6, 86688, Note_on_c, 5, 69, 88
6, 86688, Note_on_c, 5, 65, 88
6, 86688, Note_on_c, 5, 62, 88
6, 86896, Note_off_c, 5, 72, 0
6, 86896, Note_off_c, 5, 69, 0
6, 86896, Note_off_c, 5, 65, 0
6, 86896, Note_off_c, 5, 62, 0
6, 86976, Note_on_c, 5, 72, 86
6, 86976, Note_on_c, 5, 69, 86
6, 86976, Note_on_c, 5, 65, 86
6, 86976, Note_on_c, 5, 62, 86
6, 87184, Note_off_c, 5, 72, 0
6, 87184, Note_off_c, 5, 69, 0
6, 87184, Note_off_c, 5, 65, 0
6, 87184, Note_off_c, 5, 62, 0
6, 87264, Note_on_c, 5, 72, 90
6, 87264, Note_on_c, 5, 69, 90
6, 87264, Note_on_c, 5, 65, 90
6, 87264, Note_on_c, 5, 62, 90
6, 87472, Note_off_c, 5, 72, 0
6, 87472, Note_off_c, 5, 69, 0
6, 87472, Note_off_c, 5, 65, 0
6, 87472, Note_off_c, 5, 62, 0
6, 87552, Note_on_c, 5, 72, 82
6, 87552, Note_on_c, 5, 67, 82
6, 87552, Note_on_c, 5, 64, 82
6, 87840, Note_off_c, 5, 72, 0
6, 87840, Note_off_c, 5, 67, 0
6, 87840, Note_off_c, 5, 64, 0
6, 87936, Note_on_c, 5, 72, 86
6, 87936, Note_on_c, 5, 67, 86
6, 87936, Note_on_c, 5, 64, 86
6, 88144, Note_off_c, 5, 72, 0
6, 88144, Note_off_c, 5, 67, 0
6, 88144, Note_off_c, 5, 64, 0
6, 88224, Note_on_c, 5, 72, 88
6, 88224, Note_on_c, 5, 67, 88
6, 88224, Note_on_c, 5, 64, 88
6, 88432, Note_off_c, 5, 72, 0
6, 88432, Note_off_c, 5, 67, 0
6, 88432, Note_off_c, 5, 64, 0
6, 88512, Note_on_c, 5, 72, 86
6, 88512, Note_on_c, 5, 67, 86
6, 88512, Note_on_c, 5, 64, 86
6, 88720, Note_off_c, 5, 72, 0
6, 88720, Note_off_c, 5, 67, 0
6, 88720, Note_off_c, 5, 64, 0
6, 88800, Note_on_c, 5, 72, 90
6, 88800, Note_on_c, 5, 67, 90
6, 88800, Note_on_c, 5, 64, 90
6, 89008, Note_off_c, 5, 72, 0
6, 89008, Note_off_c, 5, 67, 0
6, 89008, Note_off_c, 5, 64, 0
6, 89088, Note_on_c, 5, 72, 82
6, 89088, Note_on_c, 5, 69, 82
6, 89088, Note_on_c, 5, 65, 82
6, 89088, Note_on_c, 5, 62, 82
6, 89376, Note_off_c, 5, 72, 0
6, 89376, Note_off_c, 5, 69, 0
6, 89376, Note_off_c, 5, 65, 0
6, 89376, Note_off_c, 5, 62, 0
6, 89472, Note_on_c, 5, 72, 86
6, 89472, Note_on_c, 5, 69, 86
6, 89472, Note_on_c, 5, 65, 86
6, 89472, Note_on_c, 5, 62, 86
6, 89680, Note_off_c, 5, 72, 0
6, 89680, Note_off_c, 5, 69, 0
6, 89680, Note_off_c, 5, 65, 0
6, 89680, Note_off_c, 5, 62, 0
6, 89760, Note_on_c, 5, 72, 88
6, 89760, Note_on_c, 5, 69, 88
6, 89760, Note_on_c, 5, 65, 88
6, 89760, Note_on_c, 5, 62, 88
6, 89968, Note_off_c, 5, 72, 0
6, 89968, Note_off_c, 5, 69, 0
6, 89968, Note_off_c, 5, 65, 0
6, 89968, Note_off_c, 5, 62, 0
6, 90048, Note_on_c, 5, 72, 86
6, 90048, Note_on_c, 5, 69, 86
6, 90048, Note_on_c, 5, 65, 86
6, 90048, Note_on_c, 5, 62, 86
6, 90256, Note_off_c, 5, 72, 0
6, 90256, Note_off_c, 5, 69, 0
6, 90256, Note_off_c, 5, 65, 0
6, 90256, Note_off_c, 5, 62, 0
6, 90336, Note_on_c, 5, 72, 90
6, 90336, Note_on_c, 5, 69, 90
6, 90336, Note_on_c, 5, 65, 90
6, 90336, Note_on_c, 5, 62, 90
6, 90544, Note_off_c, 5, 72, 0
6, 90544, Note_off_c, 5, 69, 0
6, 90544, Note_off_c, 5, 65, 0
6, 90544, Note_off_c, 5, 62, 0
6, 90624, Note_on_c, 5, 72, 82
6, 90624, Note_on_c, 5, 67, 82
6, 90624, Note_on_c, 5, 64, 82
6, 90912, Note_off_c, 5, 72, 0
6, 90912, Note_off_c, 5, 67, 0
6, 90912, Note_off_c, 5, 64, 0
6, 91008, Note_on_c, 5, 72, 86
6, 91008, Note_on_c, 5, 67, 86
6, 91008, Note_on_c, 5, 64, 86
6, 91216, Note_off_c, 5, 72, 0
6, 91216, Note_off_c, 5, 67, 0
6, 91216, Note_off_c, 5, 64, 0
6, 91296, Note_on_c, 5, 72, 88
6, 91296, Note_on_c, 5, 67, 88
6, 91296, Note_on_c, 5, 64, 88
6, 91504, Note_off_c, 5, 72, 0
6, 91504, Note_off_c, 5, 67, 0
6, 91504, Note_off_c, 5, 64, 0
6, 91584, Note_on_c, 5, 72, 86
6, 91584, Note_on_c, 5, 67, 86
6, 91584, Note_on_c, 5, 64, 86
6, 91792, Note_off_c, 5, 72, 0
6, 91792, Note_off_c, 5, 67, 0
6, 91792, Note_off_c, 5, 64, 0
6, 91872, Note_on_c, 5, 72, 90
6, 91872, Note_on_c, 5, 67, 90
6, 91872, Note_on_c, 5, 64, 90
6, 92080, Note_off_c, 5, 72, 0
6, 92080, Note_off_c, 5, 67, 0
6, 92080, Note_off_c, 5, 64, 0
6, 92160, Note_on_c, 5, 74, 82
6, 92160, Note_on_c, 5, 71, 82
6, 92160, Note_on_c, 5, 67, 82
6, 92160, Note_on_c, 5, 64, 82
6, 92448, Note_off_c, 5, 74, 0
6, 92448, Note_off_c, 5, 71, 0
6, 92448, Note_off_c, 5, 67, 0
6, 92448, Note_off_c, 5, 64, 0
6, 92544, Note_on_c, 5, 74, 86
6, 92544, Note_on_c, 5, 71, 86
6, 92544, Note_on_c, 5, 67, 86
6, 92544, Note_on_c, 5, 64, 86
6, 92752, Note_off_c, 5, 74, 0
6, 92752, Note_off_c, 5, 71, 0
6, 92752, Note_off_c, 5, 67, 0
6, 92752, Note_off_c, 5, 64, 0
6, 92832, Note_on_c, 5, 74, 88
6, 92832, Note_on_c, 5, 71, 88
6, 92832, Note_on_c, 5, 67, 88
6, 92832, Note_on_c, 5, 64, 88
6, 93040, Note_off_c, 5, 74, 0
6, 93040, Note_off_c, 5, 71, 0
6, 93040, Note_off_c, 5, 67, 0
6, 93040, Note_off_c, 5, 64, 0
6, 93120, Note_on_c, 5, 74, 86
6, 93120, Note_on_c, 5, 71, 86
6, 93120, Note_on_c, 5, 67, 86
6, 93120, Note_on_c, 5, 64, 86
6, 93328, Note_off_c, 5, 74, 0
6, 93328, Note_off_c, 5, 71, 0
6, 93328, Note_off_c, 5, 67, 0
6, 93328, Note_off_c, 5, 64, 0
6, 93408, Note_on_c, 5, 74, 90
6, 93408, Note_on_c, 5, 71, 90
6, 93408, Note_on_c, 5, 67, 90
6, 93408, Note_on_c, 5, 64, 90
6, 93616, Note_off_c, 5, 74, 0
6, 93616, Note_off_c, 5, 71, 0
6, 93616, Note_off_c, 5, 67, 0
6, 93616, Note_off_c, 5, 64, 0
6, 93696, Note_on_c, 5, 74, 82
6, 93696, Note_on_c, 5, 71, 82
6, 93696, Note_on_c, 5, 67, 82
6, 93984, Note_off_c, 5, 74, 0
6, 93984, Note_off_c, 5, 71, 0
6, 93984, Note_off_c, 5, 67, 0
6, 94080, Note_on_c, 5, 74, 86
6, 94080, Note_on_c, 5, 71, 86
6, 94080, Note_on_c, 5, 67, 86
6, 94288, Note_off_c, 5, 74, 0
6, 94288, Note_off_c, 5, 71, 0
6, 94288, Note_off_c, 5, 67, 0
6, 94368, Note_on_c, 5, 74, 88
6, 94368, Note_on_c, 5, 71, 88
6, 94368, Note_on_c, 5, 67, 88
6, 94576, Note_off_c, 5, 74, 0
6, 94576, Note_off_c, 5, 71, 0
6, 94576, Note_off_c, 5, 67, 0
6, 94656, Note_on_c, 5, 74, 86
6, 94656, Note_on_c, 5, 71, 86
6, 94656, Note_on_c, 5, 67, 86
6, 94864, Note_off_c, 5, 74, 0
6, 94864, Note_off_c, 5, 71, 0
6, 94864, Note_off_c, 5, 67, 0
6, 94944, Note_on_c, 5, 74, 90
6, 94944, Note_on_c, 5, 71, 90
6, 94944, Note_on_c, 5, 67, 90
6, 95152, Note_off_c, 5, 74, 0
6, 95152, Note_off_c, 5, 71, 0
6, 95152, Note_off_c, 5, 67, 0
6, 95232, Note_on_c, 5, 78, 82
6, 95232, Note_on_c, 5, 74, 82
6, 95232, Note_on_c, 5, 69, 82
6, 95520, Note_off_c, 5, 78, 0
6, 95520, Note_off_c, 5, 74, 0
6, 95520, Note_off_c, 5, 69, 0
6, 95616, Note_on_c, 5, 78, 86
6, 95616, Note_on_c, 5, 74, 86
6, 95616, Note_on_c, 5, 69, 86
6, 95824, Note_off_c, 5, 78, 0
6, 95824, Note_off_c, 5, 74, 0
6, 95824, Note_off_c, 5, 69, 0
6, 95904, Note_on_c, 5, 78, 88
6, 95904, Note_on_c, 5, 74, 88
6, 95904, Note_on_c, 5, 69, 88
6, 96112, Note_off_c, 5, 78, 0
6, 96112, Note_off_c, 5, 74, 0
6, 96112, Note_off_c, 5, 69, 0
6, 96192, Note_on_c, 5, 79, 86
6, 96192, Note_on_c, 5, 74, 86
6, 96192, Note_on_c, 5, 69, 86
6, 96400, Note_off_c, 5, 79, 0
6, 96400, Note_off_c, 5, 74, 0
6, 96400, Note_off_c, 5, 69, 0
6, 96480, Note_on_c, 5, 78, 90
6, 96480, Note_on_c, 5, 74, 90
6, 96480, Note_on_c, 5, 69, 90
6, 96688, Note_off_c, 5, 78, 0
6, 96688, Note_off_c, 5, 74, 0
6, 96688, Note_off_c, 5, 69, 0
6, 96768, Note_on_c, 5, 78, 82
6, 96768, Note_on_c, 5, 74, 82
6, 96768, Note_on_c, 5, 69, 82
6, 97056, Note_off_c, 5, 78, 0
6, 97056, Note_off_c, 5, 74, 0
6, 97056, Note_off_c, 5, 69, 0
6, 97152, Note_on_c, 5, 78, 86
6, 97152, Note_on_c, 5, 74, 86
6, 97152, Note_on_c, 5, 69, 86
6, 97360, Note_off_c, 5, 78, 0
6, 97360, Note_off_c, 5, 74, 0
6, 97360, Note_off_c, 5, 69, 0
6, 97440, Note_on_c, 5, 78, 88
6, 97440, Note_on_c, 5, 74, 88
6, 97440, Note_on_c, 5, 69, 88
6, 97648, Note_off_c, 5, 78, 0
6, 97648, Note_off_c, 5, 74, 0
6, 97648, Note_off_c, 5, 69, 0
6, 97728, Note_on_c, 5, 79, 86
6, 97728, Note_on_c, 5, 74, 86
6, 97728, Note_on_c, 5, 69, 86
6, 97936, Note_off_c, 5, 79, 0
6, 97936, Note_off_c, 5, 74, 0
6, 97936, Note_off_c, 5, 69, 0
6, 98016, Note_on_c, 5, 78, 90
6, 98016, Note_on_c, 5, 74, 90
6, 98016, Note_on_c, 5, 69, 90
6, 98224, Note_off_c, 5, 78, 0
6, 98224, Note_off_c, 5, 74, 0
6, 98224, Note_off_c, 5, 69, 0
6, 98304, Note_on_c, 5, 72, 82
6, 98304, Note_on_c, 5, 69, 82
6, 98304, Note_on_c, 5, 65, 82
6, 98304, Note_on_c, 5, 62, 82
6, 98592, Note_off_c, 5, 72, 0
6, 98592, Note_off_c, 5, 69, 0
6, 98592, Note_off_c, 5, 65, 0
6, 98592, Note_off_c, 5, 62, 0
6, 98688, Note_on_c, 5, 72, 86
6, 98688, Note_on_c, 5, 69, 86
6, 98688, Note_on_c, 5, 65, 86
6, 98688, Note_on_c, 5, 62, 86
6, 98896, Note_off_c, 5, 72, 0
6, 98896, Note_off_c, 5, 69, 0
6, 98896, Note_off_c, 5, 65, 0
6, 98896, Note_off_c, 5, 62, 0
6, 98976, Note_on_c, 5, 72, 88
6, 98976, Note_on_c, 5, 69, 88
6, 98976, Note_on_c, 5, 65, 88
6, 98976, Note_on_c, 5, 62, 88
6, 99184, Note_off_c, 5, 72, 0
6, 99184, Note_off_c, 5, 69, 0
6, 99184, Note_off_c, 5, 65, 0
6, 99184, Note_off_c, 5, 62, 0
6, 99264, Note_on_c, 5, 72, 86
6, 99264, Note_on_c, 5, 69, 86
6, 99264, Note_on_c, 5, 65, 86
6, 99264, Note_on_c, 5, 62, 86
6, 99472, Note_off_c, 5, 72, 0
6, 99472, Note_off_c, 5, 69, 0
6, 99472, Note_off_c, 5, 65, 0
6, 99472, Note_off_c, 5, 62, 0
6, 99552, Note_on_c, 5, 72, 90
6, 99552, Note_on_c, 5, 69, 90
6, 99552, Note_on_c, 5, 65, 90
6, 99552, Note_on_c, 5, 62, 90
6, 99760, Note_off_c, 5, 72, 0
6, 99760, Note_off_c, 5, 69, 0
6, 99760, Note_off_c, 5, 65, 0
6, 99760, Note_off_c, 5, 62, 0
6, 99840, Note_on_c, 5, 72, 82
6, 99840, Note_on_c, 5, 67, 82
6, 99840, Note_on_c, 5, 64, 82
6, 100128, Note_off_c, 5, 72, 0
6, 100128, Note_off_c, 5, 67, 0
6, 100128, Note_off_c, 5, 64, 0
6, 100224, Note_on_c, 5, 72, 86
6, 100224, Note_on_c, 5, 67, 86
6, 100224, Note_on_c, 5, 64, 86
6, 100432, Note_off_c, 5, 72, 0
6, 100432, Note_off_c, 5, 67, 0
6, 100432, Note_off_c, 5, 64, 0
6, 100512, Note_on_c, 5, 72, 88
6, 100512, Note_on_c, 5, 67, 88
6, 100512, Note_on_c, 5, 64, 88
6, 100720, Note_off_c, 5, 72, 0
6, 100720, Note_off_c, 5, 67, 0
6, 100720, Note_off_c, 5, 64, 0
6, 100800, Note_on_c, 5, 72, 86
6, 100800, Note_on_c, 5, 67, 86
6, 100800, Note_on_c, 5, 64, 86
6, 101008, Note_off_c, 5, 72, 0
6, 101008, Note_off_c, 5, 67, 0
6, 101008, Note_off_c, 5, 64, 0
6, 101088, Note_on_c, 5, 72, 90
6, 101088, Note_on_c, 5, 67, 90
6, 101088, Note_on_c, 5, 64, 90
6, 101296, Note_off_c, 5, 72, 0
6, 101296, Note_off_c, 5, 67, 0
6, 101296, Note_off_c, 5, 64, 0
6, 101376, Note_on_c, 5, 72, 82
6, 101376, Note_on_c, 5, 69, 82
6, 101376, Note_on_c, 5, 65, 82
6, 101376, Note_on_c, 5, 62, 82
6, 101664, Note_off_c, 5, 72, 0
6, 101664, Note_off_c, 5, 69, 0
6, 101664, Note_off_c, 5, 65, 0
6, 101664, Note_off_c, 5, 62, 0
6, 101760, Note_on_c, 5, 72, 86
6, 101760, Note_on_c, 5, 69, 86
6, 101760, Note_on_c, 5, 65, 86
6, 101760, Note_on_c, 5, 62, 86
6, 101968, Note_off_c, 5, 72, 0
6, 101968, Note_off_c, 5, 69, 0
6, 101968, Note_off_c, 5, 65, 0
6, 101968, Note_off_c, 5, 62, 0
6, 102048, Note_on_c, 5, 72, 88
6, 102048, Note_on_c, 5, 69, 88
6, 102048, Note_on_c, 5, 65, 88
6, 102048, Note_on_c, 5, 62, 88
6, 102256, Note_off_c, 5, 72, 0
6, 102256, Note_off_c, 5, 69, 0
6, 102256, Note_off_c, 5, 65, 0
6, 102256, Note_off_c, 5, 62, 0
6, 102336, Note_on_c, 5, 72, 86
6, 102336, Note_on_c, 5, 69, 86
6, 102336, Note_on_c, 5, 65, 86
6, 102336, Note_on_c, 5, 62, 86
6, 102544, Note_off_c, 5, 72, 0
6, 102544, Note_off_c, 5, 69, 0
6, 102544, Note_off_c, 5, 65, 0
6, 102544, Note_off_c, 5, 62, 0
6, 102624, Note_on_c, 5, 72, 90
6, 102624, Note_on_c, 5, 69, 90
6, 102624, Note_on_c, 5, 65, 90
6, 102624, Note_on_c, 5, 62, 90
6, 102832, Note_off_c, 5, 72, 0
6, 102832, Note_off_c, 5, 69, 0
6, 102832, Note_off_c, 5, 65, 0
6, 102832, Note_off_c, 5, 62, 0
6, 102912, Note_on_c, 5, 72, 82
6, 102912, Note_on_c, 5, 67, 82
6, 102912, Note_on_c, 5, 64, 82
6, 103200, Note_off_c, 5, 72, 0
6, 103200, Note_off_c, 5, 67, 0
6, 103200, Note_off_c, 5, 64, 0
6, 103296, Note_on_c, 5, 72, 86
6, 103296, Note_on_c, 5, 67, 86
6, 103296, Note_on_c, 5, 64, 86
6, 103504, Note_off_c, 5, 72, 0
6, 103504, Note_off_c, 5, 67, 0
6, 103504, Note_off_c, 5, 64, 0
6, 103584, Note_on_c, 5, 72, 88
6, 103584, Note_on_c, 5, 67, 88
6, 103584, Note_on_c, 5, 64, 88
6, 103792, Note_off_c, 5, 72, 0
6, 103792, Note_off_c, 5, 67, 0
6, 103792, Note_off_c, 5, 64, 0
6, 103872, Note_on_c, 5, 72, 86
6, 103872, Note_on_c, 5, 67, 86
6, 103872, Note_on_c, 5, 64, 86
6, 104080, Note_off_c, 5, 72, 0
6, 104080, Note_off_c, 5, 67, 0
6, 104080, Note_off_c, 5, 64, 0
6, 104160, Note_on_c, 5, 72, 90
6, 104160, Note_on_c, 5, 67, 90
6, 104160, Note_on_c, 5, 64, 90
6, 104368, Note_off_c, 5, 72, 0
6, 104368, Note_off_c, 5, 67, 0
6, 104368, Note_off_c, 5, 64, 0
6, 104448, Note_on_c, 5, 74, 82
6, 104448, Note_on_c, 5, 71, 82
6, 104448, Note_on_c, 5, 67, 82
6, 104448, Note_on_c, 5, 64, 82
6, 104736, Note_off_c, 5, 74, 0
6, 104736, Note_off_c, 5, 71, 0
6, 104736, Note_off_c, 5, 67, 0
6, 104736, Note_off_c, 5, 64, 0
6, 104832, Note_on_c, 5, 74, 86
6, 104832, Note_on_c, 5, 71, 86
6, 104832, Note_on_c, 5, 67, 86
6, 104832, Note_on_c, 5, 64, 86
6, 105040, Note_off_c, 5, 74, 0
6, 105040, Note_off_c, 5, 71, 0
6, 105040, Note_off_c, 5, 67, 0
6, 105040, Note_off_c, 5, 64, 0
6, 105120, Note_on_c, 5, 74, 88
6, 105120, Note_on_c, 5, 71, 88
6, 105120, Note_on_c, 5, 67, 88
6, 105120, Note_on_c, 5, 64, 88
6, 105328, Note_off_c, 5, 74, 0
6, 105328, Note_off_c, 5, 71, 0
6, 105328, Note_off_c, 5, 67, 0
6, 105328, Note_off_c, 5, 64, 0
6, 105408, Note_on_c, 5, 74, 86
6, 105408, Note_on_c, 5, 71, 86
6, 105408, Note_on_c, 5, 67, 86
6, 105408, Note_on_c, 5, 64, 86
6, 105616, Note_off_c, 5, 74, 0
6, 105616, Note_off_c, 5, 71, 0
6, 105616, Note_off_c, 5, 67, 0
6, 105616, Note_off_c, 5, 64, 0
6, 105696, Note_on_c, 5, 74, 90
6, 105696, Note_on_c, 5, 71, 90
6, 105696, Note_on_c, 5, 67, 90
6, 105696, Note_on_c, 5, 64, 90
6, 105904, Note_off_c, 5, 74, 0
6, 105904, Note_off_c, 5, 71, 0
6, 105904, Note_off_c, 5, 67, 0
6, 105904, Note_off_c, 5, 64, 0
6, 105984, Note_on_c, 5, 74, 82
6, 105984, Note_on_c, 5, 71, 82
6, 105984, Note_on_c, 5, 67, 82
6, 106272, Note_off_c, 5, 74, 0
6, 106272, Note_off_c, 5, 71, 0
6, 106272, Note_off_c, 5, 67, 0
6, 106368, Note_on_c, 5, 74, 86
6, 106368, Note_on_c, 5, 71, 86
6, 106368, Note_on_c, 5, 67, 86
6, 106576, Note_off_c, 5, 74, 0
6, 106576, Note_off_c, 5, 71, 0
6, 106576, Note_off_c, 5, 67, 0
6, 106656, Note_on_c, 5, 74, 88
6, 106656, Note_on_c, 5, 71, 88
6, 106656, Note_on_c, 5, 67, 88
6, 106864, Note_off_c, 5, 74, 0
6, 106864, Note_off_c, 5, 71, 0
6, 106864, Note_off_c, 5, 67, 0
6, 106944, Note_on_c, 5, 74, 86
6, 106944, Note_on_c, 5, 71, 86
6, 106944, Note_on_c, 5, 67, 86
6, 107152, Note_off_c, 5, 74, 0
6, 107152, Note_off_c, 5, 71, 0
6, 107152, Note_off_c, 5, 67, 0
6, 107232, Note_on_c, 5, 74, 90
6, 107232, Note_on_c, 5, 71, 90
6, 107232, Note_on_c, 5, 67, 90
6, 107440, Note_off_c, 5, 74, 0
6, 107440, Note_off_c, 5, 71, 0
6, 107440, Note_off_c, 5, 67, 0
6, 107520, Note_on_c, 5, 76, 82
6, 107520, Note_on_c, 5, 73, 82
6, 107520, Note_on_c, 5, 69, 82
6, 107808, Note_off_c, 5, 76, 0
6, 107808, Note_off_c, 5, 73, 0
6, 107808, Note_off_c, 5, 69, 0
6, 107904, Note_on_c, 5, 76, 86
6, 107904, Note_on_c, 5, 73, 86
6, 107904, Note_on_c, 5, 69, 86
6, 108064, Note_off_c, 5, 76, 0
6, 108064, Note_off_c, 5, 73, 0
6, 108064, Note_off_c, 5, 69, 0
6, 108096, Note_on_c, 5, 69, 93
6, 108176, Note_off_c, 5, 69, 0
6, 108192, Note_on_c, 5, 76, 89
6, 108192, Note_on_c, 5, 73, 89
6, 108192, Note_on_c, 5, 69, 89
6, 108352, Note_off_c, 5, 76, 0
6, 108352, Note_off_c, 5, 73, 0
6, 108352, Note_off_c, 5, 69, 0
6, 108384, Note_on_c, 5, 69, 93
6, 108464, Note_off_c, 5, 69, 0
6, 108480, Note_on_c, 5, 76, 87
6, 108480, Note_on_c, 5, 73, 87
6, 108480, Note_on_c, 5, 69, 87
6, 108640, Note_off_c, 5, 76, 0
6, 108640, Note_off_c, 5, 73, 0
6, 108640, Note_off_c, 5, 69, 0
6, 108672, Note_on_c, 5, 69, 91
6, 108752, Note_off_c, 5, 69, 0
6, 108768, Note_on_c, 5, 76, 87
6, 108768, Note_on_c, 5, 73, 87
6, 108768, Note_on_c, 5, 69, 87
6, 108976, Note_off_c, 5, 76, 0
6, 108976, Note_off_c, 5, 73, 0
6, 108976, Note_off_c, 5, 69, 0
6, 109056, Note_on_c, 5, 55, 98
6, 109056, Note_on_c, 5, 67, 98
6, 109056, Note_on_c, 5, 71, 98
6, 109056, Note_on_c, 5, 74, 98
6, 109344, Note_off_c, 5, 55, 0
6, 109344, Note_off_c, 5, 67, 0
6, 109344, Note_off_c, 5, 71, 0
6, 109344, Note_off_c, 5, 74, 0
6, 110592, Note_on_c, 5, 78, 82
6, 110592, Note_on_c, 5, 74, 82
6, 110592, Note_on_c, 5, 69, 82
6, 110880, Note_off_c, 5, 78, 0
6, 110880, Note_off_c, 5, 74, 0
6, 110880, Note_off_c, 5, 69, 0
6, 110976, Note_on_c, 5, 78, 86
6, 110976, Note_on_c, 5, 74, 86
6, 110976, Note_on_c, 5, 69, 86
6, 111136, Note_off_c, 5, 78, 0
6, 111136, Note_off_c, 5, 74, 0
6, 111136, Note_off_c, 5, 69, 0
6, 111168, Note_on_c, 5, 62, 93
6, 111248, Note_off_c, 5, 62, 0
6, 111264, Note_on_c, 5, 78, 89
6, 111264, Note_on_c, 5, 74, 89
6, 111264, Note_on_c, 5, 69, 89
6, 111424, Note_off_c, 5, 78, 0
6, 111424, Note_off_c, 5, 74, 0
6, 111424, Note_off_c, 5, 69, 0
6, 111456, Note_on_c, 5, 62, 93
6, 111536, Note_off_c, 5, 62, 0
6, 111552, Note_on_c, 5, 78, 87
6, 111552, Note_on_c, 5, 74, 87
6, 111552, Note_on_c, 5, 69, 87
6, 111712, Note_off_c, 5, 78, 0
6, 111712, Note_off_c, 5, 74, 0
6, 111712, Note_off_c, 5, 69, 0
6, 111744, Note_on_c, 5, 62, 91
6, 111824, Note_off_c, 5, 62, 0
6, 111840, Note_on_c, 5, 78, 87
6, 111840, Note_on_c, 5, 74, 87
6, 111840, Note_on_c, 5, 69, 87
6, 112048, Note_off_c, 5, 78, 0
6, 112048, Note_off_c, 5, 74, 0
6, 112048, Note_off_c, 5, 69, 0
6, 112128, Note_on_c, 5, 78, 82
6, 112128, Note_on_c, 5, 74, 82
6, 112128, Note_on_c, 5, 69, 82
6, 112416, Note_off_c, 5, 78, 0
6, 112416, Note_off_c, 5, 74, 0
6, 112416, Note_off_c, 5, 69, 0
6, 112512, Note_on_c, 5, 78, 86
6, 112512, Note_on_c, 5, 74, 86
6, 112512, Note_on_c, 5, 69, 86
6, 112672, Note_off_c, 5, 78, 0
6, 112672, Note_off_c, 5, 74, 0
6, 112672, Note_off_c, 5, 69, 0
6, 112704, Note_on_c, 5, 62, 93
6, 112784, Note_off_c, 5, 62, 0
6, 112800, Note_on_c, 5, 78, 89
6, 112800, Note_on_c, 5, 74, 89
6, 112800, Note_on_c, 5, 69, 89
6, 112960, Note_off_c, 5, 78, 0
6, 112960, Note_off_c, 5, 74, 0
6, 112960, Note_off_c, 5, 69, 0
6, 112992, Note_on_c, 5, 62, 93
6, 113072, Note_off_c, 5, 62, 0
6, 113088, Note_on_c, 5, 78, 87
6, 113088, Note_on_c, 5, 74, 87
6, 113088, Note_on_c, 5, 69, 87
6, 113248, Note_off_c, 5, 78, 0
6, 113248, Note_off_c, 5, 74, 0
6, 113248, Note_off_c, 5, 69, 0
6, 113280, Note_on_c, 5, 62, 91
6, 113360, Note_off_c, 5, 62, 0
6, 113376, Note_on_c, 5, 78, 87
6, 113376, Note_on_c, 5, 74, 87
6, 113376, Note_on_c, 5, 69, 87
6, 113584, Note_off_c, 5, 78, 0
6, 113584, Note_off_c, 5, 74, 0
6, 113584, Note_off_c, 5, 69, 0
6, 113664, Note_on_c, 5, 78, 82
6, 113664, Note_on_c, 5, 74, 82
6, 113664, Note_on_c, 5, 69, 82
6, 113952, Note_off_c, 5, 78, 0
6, 113952, Note_off_c, 5, 74, 0
6, 113952, Note_off_c, 5, 69, 0
6, 114048, Note_on_c, 5, 78, 86
6, 114048, Note_on_c, 5, 74, 86
6, 114048, Note_on_c, 5, 69, 86
6, 114208, Note_off_c, 5, 78, 0
6, 114208, Note_off_c, 5, 74, 0
6, 114208, Note_off_c, 5, 69, 0
6, 114240, Note_on_c, 5, 62, 93
6, 114320, Note_off_c, 5, 62, 0
6, 114336, Note_on_c, 5, 78, 89
6, 114336, Note_on_c, 5, 74, 89
6, 114336, Note_on_c, 5, 69, 89
6, 114496, Note_off_c, 5, 78, 0
6, 114496, Note_off_c, 5, 74, 0
6, 114496, Note_off_c, 5, 69, 0
6, 114528, Note_on_c, 5, 62, 93
6, 114608, Note_off_c, 5, 62, 0
6, 114624, Note_on_c, 5, 78, 87
6, 114624, Note_on_c, 5, 74, 87
6, 114624, Note_on_c, 5, 69, 87
6, 114784, Note_off_c, 5, 78, 0
6, 114784, Note_off_c, 5, 74, 0
6, 114784, Note_off_c, 5, 69, 0
6, 114816, Note_on_c, 5, 62, 91
6, 114896, Note_off_c, 5, 62, 0
6, 114912, Note_on_c, 5, 78, 87
6, 114912, Note_on_c, 5, 74, 87
6, 114912, Note_on_c, 5, 69, 87
6, 115120, Note_off_c, 5, 78, 0
6, 115120, Note_off_c, 5, 74, 0
6, 115120, Note_off_c, 5, 69, 0
6, 115200, Note_on_c, 5, 78, 82
6, 115200, Note_on_c, 5, 74, 82
6, 115200, Note_on_c, 5, 69, 82
6, 115488, Note_off_c, 5, 78, 0
6, 115488, Note_off_c, 5, 74, 0
6, 115488, Note_off_c, 5, 69, 0
6, 115584, Note_on_c, 5, 78, 86
6, 115584, Note_on_c, 5, 74, 86
6, 115584, Note_on_c, 5, 69, 86
6, 115744, Note_off_c, 5, 78, 0
6, 115744, Note_off_c, 5, 74, 0
6, 115744, Note_off_c, 5, 69, 0
6, 115776, Note_on_c, 5, 62, 93
6, 115856, Note_off_c, 5, 62, 0
6, 115872, Note_on_c, 5, 78, 89
6, 115872, Note_on_c, 5, 74, 89
6, 115872, Note_on_c, 5, 69, 89
6, 116032, Note_off_c, 5, 78, 0
6, 116032, Note_off_c, 5, 74, 0
6, 116032, Note_off_c, 5, 69, 0
6, 116064, Note_on_c, 5, 62, 93
6, 116144, Note_off_c, 5, 62, 0
6, 116160, Note_on_c, 5, 78, 87
6, 116160, Note_on_c, 5, 74, 87
6, 116160, Note_on_c, 5, 69, 87
6, 116320, Note_off_c, 5, 78, 0
6, 116320, Note_off_c, 5, 74, 0
6, 116320, Note_off_c, 5, 69, 0
6, 116352, Note_on_c, 5, 62, 91
6, 116432, Note_off_c, 5, 62, 0
6, 116448, Note_on_c, 5, 78, 87
6, 116448, Note_on_c, 5, 74, 87
6, 116448, Note_on_c, 5, 69, 87
6, 116656, Note_off_c, 5, 78, 0
6, 116656, Note_off_c, 5, 74, 0
6, 116656, Note_off_c, 5, 69, 0
6, 116736, Note_on_c, 5, 76, 82
6, 116736, Note_on_c, 5, 72, 82
6, 116736, Note_on_c, 5, 67, 82
6, 117024, Note_off_c, 5, 76, 0
6, 117024, Note_off_c, 5, 72, 0
6, 117024, Note_off_c, 5, 67, 0
6, 117120, Note_on_c, 5, 76, 86
6, 117120, Note_on_c, 5, 72, 86
6, 117120, Note_on_c, 5, 67, 86
6, 117280, Note_off_c, 5, 76, 0
6, 117280, Note_off_c, 5, 72, 0
6, 117280, Note_off_c, 5, 67, 0
6, 117312, Note_on_c, 5, 60, 93
6, 117392, Note_off_c, 5, 60, 0
6, 117408, Note_on_c, 5, 76, 89
6, 117408, Note_on_c, 5, 72, 89
6, 117408, Note_on_c, 5, 67, 89
6, 117568, Note_off_c, 5, 76, 0
6, 117568, Note_off_c, 5, 72, 0
6, 117568, Note_off_c, 5, 67, 0
6, 117600, Note_on_c, 5, 60, 93
6, 117680, Note_off_c, 5, 60, 0
6, 117696, Note_on_c, 5, 76, 87
6, 117696, Note_on_c, 5, 72, 87
6, 117696, Note_on_c, 5, 67, 87
6, 117856, Note_off_c, 5, 76, 0
6, 117856, Note_off_c, 5, 72, 0
6, 117856, Note_off_c, 5, 67, 0
6, 117888, Note_on_c, 5, 60, 91
6, 117968, Note_off_c, 5, 60, 0
6, 117984, Note_on_c, 5, 76, 87
6, 117984, Note_on_c, 5, 72, 87
6, 117984, Note_on_c, 5, 67, 87
6, 118192, Note_off_c, 5, 76, 0
6, 118192, Note_off_c, 5, 72, 0
6, 118192, Note_off_c, 5, 67, 0
6, 118272, Note_on_c, 5, 74, 82
6, 118272, Note_on_c, 5, 71, 82
6, 118272, Note_on_c, 5, 67, 82
6, 118560, Note_off_c, 5, 74, 0
6, 118560, Note_off_c, 5, 71, 0
6, 118560, Note_off_c, 5, 67, 0
6, 118656, Note_on_c, 5, 74, 86
6, 118656, Note_on_c, 5, 71, 86
6, 118656, Note_on_c, 5, 67, 86
6, 118816, Note_off_c, 5, 74, 0
6, 118816, Note_off_c, 5, 71, 0
6, 118816, Note_off_c, 5, 67, 0
6, 118848, Note_on_c, 5, 64, 93
6, 118928, Note_off_c, 5, 64, 0
6, 118944, Note_on_c, 5, 74, 89
6, 118944, Note_on_c, 5, 71, 89
6, 118944, Note_on_c, 5, 67, 89
6, 119104, Note_off_c, 5, 74, 0
6, 119104, Note_off_c, 5, 71, 0
6, 119104, Note_off_c, 5, 67, 0
6, 119136, Note_on_c, 5, 64, 93
6, 119216, Note_off_c, 5, 64, 0
6, 119232, Note_on_c, 5, 74, 87
6, 119232, Note_on_c, 5, 71, 87
6, 119232, Note_on_c, 5, 67, 87
6, 119392, Note_off_c, 5, 74, 0
6, 119392, Note_off_c, 5, 71, 0
6, 119392, Note_off_c, 5, 67, 0
6, 119424, Note_on_c, 5, 64, 91
6, 119504, Note_off_c, 5, 64, 0
6, 119520, Note_on_c, 5, 74, 87
6, 119520, Note_on_c, 5, 71, 87
6, 119520, Note_on_c, 5, 67, 87
6, 119728, Note_off_c, 5, 74, 0
6, 119728, Note_off_c, 5, 71, 0
6, 119728, Note_off_c, 5, 67, 0
6, 119808, Note_on_c, 5, 74, 82
6, 119808, Note_on_c, 5, 71, 82
6, 119808, Note_on_c, 5, 79, 82
6, 120096, Note_off_c, 5, 74, 0
6, 120096, Note_off_c, 5, 71, 0
6, 120096, Note_off_c, 5, 79, 0
6, 120192, Note_on_c, 5, 74, 86
6, 120192, Note_on_c, 5, 71, 86
6, 120192, Note_on_c, 5, 79, 86
6, 120352, Note_off_c, 5, 74, 0
6, 120352, Note_off_c, 5, 71, 0
6, 120352, Note_off_c, 5, 79, 0
6, 120384, Note_on_c, 5, 67, 93
6, 120464, Note_off_c, 5, 67, 0
6, 120480, Note_on_c, 5, 74, 89
6, 120480, Note_on_c, 5, 71, 89
6, 120480, Note_on_c, 5, 79, 89
6, 120640, Note_off_c, 5, 74, 0
6, 120640, Note_off_c, 5, 71, 0
6, 120640, Note_off_c, 5, 79, 0
6, 120672, Note_on_c, 5, 67, 93
6, 120752, Note_off_c, 5, 67, 0
6, 120768, Note_on_c, 5, 74, 87
6, 120768, Note_on_c, 5, 71, 87
6, 120768, Note_on_c, 5, 79, 87
6, 120928, Note_off_c, 5, 74, 0
6, 120928, Note_off_c, 5, 71, 0
6, 120928, Note_off_c, 5, 79, 0
6, 120960, Note_on_c, 5, 67, 91
6, 121040, Note_off_c, 5, 67, 0
6, 121056, Note_on_c, 5, 74, 87
6, 121056, Note_on_c, 5, 71, 87
6, 121056, Note_on_c, 5, 79, 87
6, 121264, Note_off_c, 5, 74, 0
6, 121264, Note_off_c, 5, 71, 0
6, 121264, Note_off_c, 5, 79, 0
6, 121344, Note_on_c, 5, 74, 82
6, 121344, Note_on_c, 5, 71, 82
6, 121344, Note_on_c, 5, 79, 82
6, 121632, Note_off_c, 5, 74, 0
6, 121632, Note_off_c, 5, 71, 0
6, 121632, Note_off_c, 5, 79, 0
6, 121728, Note_on_c, 5, 74, 86
6, 121728, Note_on_c, 5, 71, 86
6, 121728, Note_on_c, 5, 79, 86
6, 121888, Note_off_c, 5, 74, 0
6, 121888, Note_off_c, 5, 71, 0
6, 121888, Note_off_c, 5, 79, 0
6, 121920, Note_on_c, 5, 67, 93
6, 122000, Note_off_c, 5, 67, 0
6, 122016, Note_on_c, 5, 74, 89
6, 122016, Note_on_c, 5, 71, 89
6, 122016, Note_on_c, 5, 79, 89
6, 122176, Note_off_c, 5, 74, 0
6, 122176, Note_off_c, 5, 71, 0
6, 122176, Note_off_c, 5, 79, 0
6, 122208, Note_on_c, 5, 67, 93
6, 122288, Note_off_c, 5, 67, 0
6, 122304, Note_on_c, 5, 74, 87
6, 122304, Note_on_c, 5, 71, 87
6, 122304, Note_on_c, 5, 79, 87
6, 122464, Note_off_c, 5, 74, 0
6, 122464, Note_off_c, 5, 71, 0
6, 122464, Note_off_c, 5, 79, 0
6, 122496, Note_on_c, 5, 67, 91
6, 122576, Note_off_c, 5, 67, 0
6, 122592, Note_on_c, 5, 74, 87
6, 122592, Note_on_c, 5, 71, 87
6, 122592, Note_on_c, 5, 79, 87
6, 122800, Note_off_c, 5, 74, 0
6, 122800, Note_off_c, 5, 71, 0
6, 122800, Note_off_c, 5, 79, 0
6, 122880, Note_on_c, 5, 78, 82
6, 122880, Note_on_c, 5, 74, 82
6, 122880, Note_on_c, 5, 69, 82
6, 123168, Note_off_c, 5, 78, 0
6, 123168, Note_off_c, 5, 74, 0
6, 123168, Note_off_c, 5, 69, 0
6, 123264, Note_on_c, 5, 78, 86
6, 123264, Note_on_c, 5, 74, 86
6, 123264, Note_on_c, 5, 69, 86
6, 123424, Note_off_c, 5, 78, 0
6, 123424, Note_off_c, 5, 74, 0
6, 123424, Note_off_c, 5, 69, 0
6, 123456, Note_on_c, 5, 62, 93
6, 123536, Note_off_c, 5, 62, 0
6, 123552, Note_on_c, 5, 78, 89
6, 123552, Note_on_c, 5, 74, 89
6, 123552, Note_on_c, 5, 69, 89
6, 123712, Note_off_c, 5, 78, 0
6, 123712, Note_off_c, 5, 74, 0
6, 123712, Note_off_c, 5, 69, 0
6, 123744, Note_on_c, 5, 62, 93
6, 123824, Note_off_c, 5, 62, 0
6, 123840, Note_on_c, 5, 78, 87
6, 123840, Note_on_c, 5, 74, 87
6, 123840, Note_on_c, 5, 69, 87
6, 124000, Note_off_c, 5, 78, 0
6, 124000, Note_off_c, 5, 74, 0
6, 124000, Note_off_c, 5, 69, 0
6, 124032, Note_on_c, 5, 62, 91
6, 124112, Note_off_c, 5, 62, 0
6, 124128, Note_on_c, 5, 78, 87
6, 124128, Note_on_c, 5, 74, 87
6, 124128, Note_on_c, 5, 69, 87
6, 124336, Note_off_c, 5, 78, 0
6, 124336, Note_off_c, 5, 74, 0
6, 124336, Note_off_c, 5, 69, 0
6, 124416, Note_on_c, 5, 78, 82
6, 124416, Note_on_c, 5, 74, 82
6, 124416, Note_on_c, 5, 69, 82
6, 124704, Note_off_c, 5, 78, 0
6, 124704, Note_off_c, 5, 74, 0
6, 124704, Note_off_c, 5, 69, 0
6, 124800, Note_on_c, 5, 78, 86
6, 124800, Note_on_c, 5, 74, 86
6, 124800, Note_on_c, 5, 69, 86
6, 124960, Note_off_c, 5, 78, 0
6, 124960, Note_off_c, 5, 74, 0
6, 124960, Note_off_c, 5, 69, 0
6, 124992, Note_on_c, 5, 62, 93
6, 125072, Note_off_c, 5, 62, 0
6, 125088, Note_on_c, 5, 78, 89
6, 125088, Note_on_c, 5, 74, 89
6, 125088, Note_on_c, 5, 69, 89
6, 125248, Note_off_c, 5, 78, 0
6, 125248, Note_off_c, 5, 74, 0
6, 125248, Note_off_c, 5, 69, 0
6, 125280, Note_on_c, 5, 62, 93
6, 125360, Note_off_c, 5, 62, 0
6, 125376, Note_on_c, 5, 78, 87
6, 125376, Note_on_c, 5, 74, 87
6, 125376, Note_on_c, 5, 69, 87
6, 125536, Note_off_c, 5, 78, 0
6, 125536, Note_off_c, 5, 74, 0
6, 125536, Note_off_c, 5, 69, 0
6, 125568, Note_on_c, 5, 62, 91
6, 125648, Note_off_c, 5, 62, 0
6, 125664, Note_on_c, 5, 78, 87
6, 125664, Note_on_c, 5, 74, 87
6, 125664, Note_on_c, 5, 69, 87
6, 125872, Note_off_c, 5, 78, 0
6, 125872, Note_off_c, 5, 74, 0
6, 125872, Note_off_c, 5, 69, 0
6, 125952, Note_on_c, 5, 78, 82
6, 125952, Note_on_c, 5, 74, 82
6, 125952, Note_on_c, 5, 69, 82
6, 126240, Note_off_c, 5, 78, 0
6, 126240, Note_off_c, 5, 74, 0
6, 126240, Note_off_c, 5, 69, 0
6, 126336, Note_on_c, 5, 78, 86
6, 126336, Note_on_c, 5, 74, 86
6, 126336, Note_on_c, 5, 69, 86
6, 126496, Note_off_c, 5, 78, 0
6, 126496, Note_off_c, 5, 74, 0
6, 126496, Note_off_c, 5, 69, 0
6, 126528, Note_on_c, 5, 62, 93
6, 126608, Note_off_c, 5, 62, 0
6, 126624, Note_on_c, 5, 78, 89
6, 126624, Note_on_c, 5, 74, 89
6, 126624, Note_on_c, 5, 69, 89
6, 126784, Note_off_c, 5, 78, 0
6, 126784, Note_off_c, 5, 74, 0
6, 126784, Note_off_c, 5, 69, 0
6, 126816, Note_on_c, 5, 62, 93
6, 126896, Note_off_c, 5, 62, 0
6, 126912, Note_on_c, 5, 78, 87
6, 126912, Note_on_c, 5, 74, 87
6, 126912, Note_on_c, 5, 69, 87
6, 127072, Note_off_c, 5, 78, 0
6, 127072, Note_off_c, 5, 74, 0
6, 127072, Note_off_c, 5, 69, 0
6, 127104, Note_on_c, 5, 62, 91
6, 127184, Note_off_c, 5, 62, 0
6, 127200, Note_on_c, 5, 78, 87
6, 127200, Note_on_c, 5, 74, 87
6, 127200, Note_on_c, 5, 69, 87
6, 127408, Note_off_c, 5, 78, 0
6, 127408, Note_off_c, 5, 74, 0
6, 127408, Note_off_c, 5, 69, 0
6, 127488, Note_on_c, 5, 78, 82
6, 127488, Note_on_c, 5, 74, 82
6, 127488, Note_on_c, 5, 69, 82
6, 127776, Note_off_c, 5, 78, 0
6, 127776, Note_off_c, 5, 74, 0
6, 127776, Note_off_c, 5, 69, 0
6, 127872, Note_on_c, 5, 78, 86
6, 127872, Note_on_c, 5, 74, 86
6, 127872, Note_on_c, 5, 69, 86
6, 128032, Note_off_c, 5, 78, 0
6, 128032, Note_off_c, 5, 74, 0
6, 128032, Note_off_c, 5, 69, 0
6, 128064, Note_on_c, 5, 62, 93
6, 128144, Note_off_c, 5, 62, 0
6, 128160, Note_on_c, 5, 78, 89
6, 128160, Note_on_c, 5, 74, 89
6, 128160, Note_on_c, 5, 69, 89
6, 128320, Note_off_c, 5, 78, 0
6, 128320, Note_off_c, 5, 74, 0
6, 128320, Note_off_c, 5, 69, 0
6, 128352, Note_on_c, 5, 62, 93
6, 128432, Note_off_c, 5, 62, 0
6, 128448, Note_on_c, 5, 78, 87
6, 128448, Note_on_c, 5, 74, 87
6, 128448, Note_on_c, 5, 69, 87
6, 128608, Note_off_c, 5, 78, 0
6, 128608, Note_off_c, 5, 74, 0
6, 128608, Note_off_c, 5, 69, 0
6, 128640, Note_on_c, 5, 62, 91
6, 128720, Note_off_c, 5, 62, 0
6, 128736, Note_on_c, 5, 78, 87
6, 128736, Note_on_c, 5, 74, 87
6, 128736, Note_on_c, 5, 69, 87
6, 128944, Note_off_c, 5, 78, 0
6, 128944, Note_off_c, 5, 74, 0
6, 128944, Note_off_c, 5, 69, 0
6, 129024, Note_on_c, 5, 76, 82
6, 129024, Note_on_c, 5, 72, 82
6, 129024, Note_on_c, 5, 67, 82
6, 129312, Note_off_c, 5, 76, 0
6, 129312, Note_off_c, 5, 72, 0
6, 129312, Note_off_c, 5, 67, 0
6, 129408, Note_on_c, 5, 76, 86
6, 129408, Note_on_c, 5, 72, 86
6, 129408, Note_on_c, 5, 67, 86
6, 129568, Note_off_c, 5, 76, 0
6, 129568, Note_off_c, 5, 72, 0
6, 129568, Note_off_c, 5, 67, 0
6, 129600, Note_on_c, 5, 60, 93
6, 129680, Note_off_c, 5, 60, 0
6, 129696, Note_on_c, 5, 76, 89
6, 129696, Note_on_c, 5, 72, 89
6, 129696, Note_on_c, 5, 67, 89
6, 129856, Note_off_c, 5, 76, 0
6, 129856, Note_off_c, 5, 72, 0
6, 129856, Note_off_c, 5, 67, 0
6, 129888, Note_on_c, 5, 60, 93
6, 129968, Note_off_c, 5, 60, 0
6, 129984, Note_on_c, 5, 76, 87
6, 129984, Note_on_c, 5, 72, 87
6, 129984, Note_on_c, 5, 67, 87
6, 130144, Note_off_c, 5, 76, 0
6, 130144, Note_off_c, 5, 72, 0
6, 130144, Note_off_c, 5, 67, 0
6, 130176, Note_on_c, 5, 60, 91
6, 130256, Note_off_c, 5, 60, 0
6, 130272, Note_on_c, 5, 76, 87
6, 130272, Note_on_c, 5, 72, 87
6, 130272, Note_on_c, 5, 67, 87
6, 130480, Note_off_c, 5, 76, 0
6, 130480, Note_off_c, 5, 72, 0
6, 130480, Note_off_c, 5, 67, 0
6, 130560, Note_on_c, 5, 74, 82
6, 130560, Note_on_c, 5, 71, 82
6, 130560, Note_on_c, 5, 67, 82
6, 130848, Note_off_c, 5, 74, 0
6, 130848, Note_off_c, 5, 71, 0
6, 130848, Note_off_c, 5, 67, 0
6, 130944, Note_on_c, 5, 74, 86
6, 130944, Note_on_c, 5, 71, 86
6, 130944, Note_on_c, 5, 67, 86
6, 131104, Note_off_c, 5, 74, 0
6, 131104, Note_off_c, 5, 71, 0
6, 131104, Note_off_c, 5, 67, 0
6, 131136, Note_on_c, 5, 64, 93
6, 131216, Note_off_c, 5, 64, 0
6, 131232, Note_on_c, 5, 74, 89
6, 131232, Note_on_c, 5, 71, 89
6, 131232, Note_on_c, 5, 67, 89
6, 131392, Note_off_c, 5, 74, 0
6, 131392, Note_off_c, 5, 71, 0
6, 131392, Note_off_c, 5, 67, 0
6, 131424, Note_on_c, 5, 64, 93
6, 131504, Note_off_c, 5, 64, 0
6, 131520, Note_on_c, 5, 74, 87
6, 131520, Note_on_c, 5, 71, 87
6, 131520, Note_on_c, 5, 67, 87
6, 131680, Note_off_c, 5, 74, 0
6, 131680, Note_off_c, 5, 71, 0
6, 131680, Note_off_c, 5, 67, 0
6, 131712, Note_on_c, 5, 64, 91
6, 131792, Note_off_c, 5, 64, 0
6, 131808, Note_on_c, 5, 74, 87
6, 131808, Note_on_c, 5, 71, 87
6, 131808, Note_on_c, 5, 67, 87
6, 132016, Note_off_c, 5, 74, 0
6, 132016, Note_off_c, 5, 71, 0
6, 132016, Note_off_c, 5, 67, 0
6, 132096, Note_on_c, 5, 74, 82
6, 132096, Note_on_c, 5, 71, 82
6, 132096, Note_on_c, 5, 79, 82
6, 132384, Note_off_c, 5, 74, 0
6, 132384, Note_off_c, 5, 71, 0
6, 132384, Note_off_c, 5, 79, 0
6, 132480, Note_on_c, 5, 74, 86
6, 132480, Note_on_c, 5, 71, 86
6, 132480, Note_on_c, 5, 79, 86
6, 132640, Note_off_c, 5, 74, 0
6, 132640, Note_off_c, 5, 71, 0
6, 132640, Note_off_c, 5, 79, 0
6, 132672, Note_on_c, 5, 67, 93
6, 132752, Note_off_c, 5, 67, 0
6, 132768, Note_on_c, 5, 74, 89
6, 132768, Note_on_c, 5, 71, 89
6, 132768, Note_on_c, 5, 79, 89
6, 132928, Note_off_c, 5, 74, 0
6, 132928, Note_off_c, 5, 71, 0
6, 132928, Note_off_c, 5, 79, 0
6, 132960, Note_on_c, 5, 67, 93
6, 133040, Note_off_c, 5, 67, 0
6, 133056, Note_on_c, 5, 74, 87
6, 133056, Note_on_c, 5, 71, 87
6, 133056, Note_on_c, 5, 79, 87
6, 133216, Note_off_c, 5, 74, 0
6, 133216, Note_off_c, 5, 71, 0
6, 133216, Note_off_c, 5, 79, 0
6, 133248, Note_on_c, 5, 67, 91
6, 133328, Note_off_c, 5, 67, 0
6, 133344, Note_on_c, 5, 74, 87
6, 133344, Note_on_c, 5, 71, 87
6, 133344, Note_on_c, 5, 79, 87
6, 133552, Note_off_c, 5, 74, 0
6, 133552, Note_off_c, 5, 71, 0
6, 133552, Note_off_c, 5, 79, 0
6, 133632, Note_on_c, 5, 74, 82
6, 133632, Note_on_c, 5, 71, 82
6, 133632, Note_on_c, 5, 79, 82
6, 133920, Note_off_c, 5, 74, 0
6, 133920, Note_off_c, 5, 71, 0
6, 133920, Note_off_c, 5, 79, 0
6, 134016, Note_on_c, 5, 74, 86
6, 134016, Note_on_c, 5, 71, 86
6, 134016, Note_on_c, 5, 79, 86
6, 134176, Note_off_c, 5, 74, 0
6, 134176, Note_off_c, 5, 71, 0
6, 134176, Note_off_c, 5, 79, 0
6, 134208, Note_on_c, 5, 67, 93
6, 134288, Note_off_c, 5, 67, 0
6, 134304, Note_on_c, 5, 74, 89
6, 134304, Note_on_c, 5, 71, 89
6, 134304, Note_on_c, 5, 79, 89
6, 134464, Note_off_c, 5, 74, 0
6, 134464, Note_off_c, 5, 71, 0
6, 134464, Note_off_c, 5, 79, 0
6, 134496, Note_on_c, 5, 67, 93
6, 134576, Note_off_c, 5, 67, 0
6, 134592, Note_on_c, 5, 74, 87
6, 134592, Note_on_c, 5, 71, 87
6, 134592, Note_on_c, 5, 79, 87
6, 134752, Note_off_c, 5, 74, 0
6, 134752, Note_off_c, 5, 71, 0
6, 134752, Note_off_c, 5, 79, 0
6, 134784, Note_on_c, 5, 67, 91
6, 134864, Note_off_c, 5, 67, 0
6, 134880, Note_on_c, 5, 74, 87
6, 134880, Note_on_c, 5, 71, 87
6, 134880, Note_on_c, 5, 79, 87
6, 135088, Note_off_c, 5, 74, 0
6, 135088, Note_off_c, 5, 71, 0
6, 135088, Note_off_c, 5, 79, 0
6, 135168, Note_on_c, 5, 78, 82
6, 135168, Note_on_c, 5, 74, 82
6, 135168, Note_on_c, 5, 69, 82
6, 135168, Control_c, 5, 7, 70
6, 135316, Control_c, 5, 7, 69
6, 135456, Note_off_c, 5, 78, 0
6, 135456, Note_off_c, 5, 74, 0
6, 135456, Note_off_c, 5, 69, 0
6, 135472, Control_c, 5, 7, 68
6, 135552, Note_on_c, 5, 78, 86
6, 135552, Note_on_c, 5, 74, 86
6, 135552, Note_on_c, 5, 69, 86
6, 135624, Control_c, 5, 7, 67
6, 135712, Note_off_c, 5, 78, 0
6, 135712, Note_off_c, 5, 74, 0
6, 135712, Note_off_c, 5, 69, 0
6, 135744, Note_on_c, 5, 62, 93
6, 135776, Control_c, 5, 7, 66
6, 135824, Note_off_c, 5, 62, 0
6, 135840, Note_on_c, 5, 78, 89
6, 135840, Note_on_c, 5, 74, 89
6, 135840, Note_on_c, 5, 69, 89
6, 135932, Control_c, 5, 7, 65
6, 136000, Note_off_c, 5, 78, 0
6, 136000, Note_off_c, 5, 74, 0
6, 136000, Note_off_c, 5, 69, 0
6, 136032, Note_on_c, 5, 62, 93
6, 136084, Control_c, 5, 7, 64
6, 136112, Note_off_c, 5, 62, 0
6, 136128, Note_on_c, 5, 78, 87
6, 136128, Note_on_c, 5, 74, 87
6, 136128, Note_on_c, 5, 69, 87
6, 136240, Control_c, 5, 7, 63
6, 136288, Note_off_c, 5, 78, 0
6, 136288, Note_off_c, 5, 74, 0
6, 136288, Note_off_c, 5, 69, 0
6, 136320, Note_on_c, 5, 62, 91
6, 136392, Control_c, 5, 7, 62
6, 136400, Note_off_c, 5, 62, 0
6, 136416, Note_on_c, 5, 78, 87
6, 136416, Note_on_c, 5, 74, 87
6, 136416, Note_on_c, 5, 69, 87
6, 136544, Control_c, 5, 7, 61
6, 136624, Note_off_c, 5, 78, 0
6, 136624, Note_off_c, 5, 74, 0
6, 136624, Note_off_c, 5, 69, 0
6, 136700, Control_c, 5, 7, 60
6, 136704, Note_on_c, 5, 78, 82
6, 136704, Note_on_c, 5, 74, 82
6, 136704, Note_on_c, 5, 69, 82
6, 136852, Control_c, 5, 7, 59
6, 136992, Note_off_c, 5, 78, 0
6, 136992, Note_off_c, 5, 74, 0
6, 136992, Note_off_c, 5, 69, 0
6, 137008, Control_c, 5, 7, 58
6, 137088, Note_on_c, 5, 78, 86
6, 137088, Note_on_c, 5, 74, 86
6, 137088, Note_on_c, 5, 69, 86
6, 137160, Control_c, 5, 7, 57
6, 137248, Note_off_c, 5, 78, 0
6, 137248, Note_off_c, 5, 74, 0
6, 137248, Note_off_c, 5, 69, 0
6, 137280, Note_on_c, 5, 62, 93
6, 137312, Control_c, 5, 7, 56
6, 137360, Note_off_c, 5, 62, 0
6, 137376, Note_on_c, 5, 78, 89
6, 137376, Note_on_c, 5, 74, 89
6, 137376, Note_on_c, 5, 69, 89
6, 137468, Control_c, 5, 7, 55
6, 137536, Note_off_c, 5, 78, 0
6, 137536, Note_off_c, 5, 74, 0
6, 137536, Note_off_c, 5, 69, 0
6, 137568, Note_on_c, 5, 62, 93
6, 137620, Control_c, 5, 7, 54
6, 137648, Note_off_c, 5, 62, 0
6, 137664, Note_on_c, 5, 78, 87
6, 137664, Note_on_c, 5, 74, 87
6, 137664, Note_on_c, 5, 69, 87
6, 137776, Control_c, 5, 7, 53
6, 137824, Note_off_c, 5, 78, 0
6, 137824, Note_off_c, 5, 74, 0
6, 137824, Note_off_c, 5, 69, 0
6, 137856, Note_on_c, 5, 62, 91
6, 137928, Control_c, 5, 7, 52
6, 137936, Note_off_c, 5, 62, 0
6, 137952, Note_on_c, 5, 78, 87
6, 137952, Note_on_c, 5, 74, 87
6, 137952, Note_on_c, 5, 69, 87
6, 138080, Control_c, 5, 7, 51
6, 138160, Note_off_c, 5, 78, 0
6, 138160, Note_off_c, 5, 74, 0
6, 138160, Note_off_c, 5, 69, 0
6, 138236, Control_c, 5, 7, 50
6, 138240, Note_on_c, 5, 78, 82
6, 138240, Note_on_c, 5, 74, 82
6, 138240, Note_on_c, 5, 69, 82
6, 138388, Control_c, 5, 7, 49
6, 138528, Note_off_c, 5, 78, 0
6, 138528, Note_off_c, 5, 74, 0
6, 138528, Note_off_c, 5, 69, 0
6, 138544, Control_c, 5, 7, 48
6, 138624, Note_on_c, 5, 78, 86
6, 138624, Note_on_c, 5, 74, 86
6, 138624, Note_on_c, 5, 69, 86
6, 138696, Control_c, 5, 7, 47
6, 138784, Note_off_c, 5, 78, 0
6, 138784, Note_off_c, 5, 74, 0
6, 138784, Note_off_c, 5, 69, 0
6, 138816, Note_on_c, 5, 62, 93
6, 138848, Control_c, 5, 7, 46
6, 138896, Note_off_c, 5, 62, 0
6, 138912, Note_on_c, 5, 78, 89
6, 138912, Note_on_c, 5, 74, 89
6, 138912, Note_on_c, 5, 69, 89
6, 139004, Control_c, 5, 7, 45
6, 139072, Note_off_c, 5, 78, 0
6, 139072, Note_off_c, 5, 74, 0
6, 139072, Note_off_c, 5, 69, 0
6, 139104, Note_on_c, 5, 62, 93
6, 139156, Control_c, 5, 7, 44
6, 139184, Note_off_c, 5, 62, 0
6, 139200, Note_on_c, 5, 78, 87
6, 139200, Note_on_c, 5, 74, 87
6, 139200, Note_on_c, 5, 69, 87
6, 139312, Control_c, 5, 7, 43
6, 139360, Note_off_c, 5, 78, 0
6, 139360, Note_off_c, 5, 74, 0
6, 139360, Note_off_c, 5, 69, 0
6, 139392, Note_on_c, 5, 62, 91
6, 139464, Control_c, 5, 7, 42
6, 139472, Note_off_c, 5, 62, 0
6, 139488, Note_on_c, 5, 78, 87
6, 139488, Note_on_c, 5, 74, 87
6, 139488, Note_on_c, 5, 69, 87
6, 139616, Control_c, 5, 7, 41
6, 139696, Note_off_c, 5, 78, 0
6, 139696, Note_off_c, 5, 74, 0
6, 139696, Note_off_c, 5, 69, 0
6, 139772, Control_c, 5, 7, 40
6, 139776, Note_on_c, 5, 78, 82
6, 139776, Note_on_c, 5, 74, 82
6, 139776, Note_on_c, 5, 69, 82
6, 139924, Control_c, 5, 7, 39
6, 140064, Note_off_c, 5, 78, 0
6, 140064, Note_off_c, 5, 74, 0
6, 140064, Note_off_c, 5, 69, 0
6, 140080, Control_c, 5, 7, 38
6, 140160, Note_on_c, 5, 78, 86
6, 140160, Note_on_c, 5, 74, 86
6, 140160, Note_on_c, 5, 69, 86
6, 140232, Control_c, 5, 7, 37
6, 140320, Note_off_c, 5, 78, 0
6, 140320, Note_off_c, 5, 74, 0
6, 140320, Note_off_c, 5, 69, 0
6, 140352, Note_on_c, 5, 62, 93
6, 140384, Control_c, 5, 7, 36
6, 140432, Note_off_c, 5, 62, 0
6, 140448, Note_on_c, 5, 78, 89
6, 140448, Note_on_c, 5, 74, 89
6, 140448, Note_on_c, 5, 69, 89
6, 140540, Control_c, 5, 7, 35
6, 140608, Note_off_c, 5, 78, 0
6, 140608, Note_off_c, 5, 74, 0
6, 140608, Note_off_c, 5, 69, 0
6, 140640, Note_on_c, 5, 62, 93
6, 140692, Control_c, 5, 7, 34
6, 140720, Note_off_c, 5, 62, 0
6, 140736, Note_on_c, 5, 78, 87
6, 140736, Note_on_c, 5, 74, 87
6, 140736, Note_on_c, 5, 69, 87
6, 140848, Control_c, 5, 7, 33
6, 140896, Note_off_c, 5, 78, 0
6, 140896, Note_off_c, 5, 74, 0
6, 140896, Note_off_c, 5, 69, 0
6, 140928, Note_on_c, 5, 62, 91
6, 141000, Control_c, 5, 7, 32
6, 141008, Note_off_c, 5, 62, 0
6, 141024, Note_on_c, 5, 78, 87
6, 141024, Note_on_c, 5, 74, 87
6, 141024, Note_on_c, 5, 69, 87
6, 141152, Control_c, 5, 7, 31
6, 141232, Note_off_c, 5, 78, 0
6, 141232, Note_off_c, 5, 74, 0
6, 141232, Note_off_c, 5, 69, 0
6, 141308, Control_c, 5, 7, 30
6, 141312, Note_on_c, 5, 76, 82
6, 141312, Note_on_c, 5, 72, 82
6, 141312, Note_on_c, 5, 67, 82
6, 141460, Control_c, 5, 7, 29
6, 141600, Note_off_c, 5, 76, 0
6, 141600, Note_off_c, 5, 72, 0
6, 141600, Note_off_c, 5, 67, 0
6, 141616, Control_c, 5, 7, 28
6, 141696, Note_on_c, 5, 76, 86
6, 141696, Note_on_c, 5, 72, 86
6, 141696, Note_on_c, 5, 67, 86
6, 141768, Control_c, 5, 7, 27
6, 141856, Note_off_c, 5, 76, 0
6, 141856, Note_off_c, 5, 72, 0
6, 141856, Note_off_c, 5, 67, 0
6, 141888, Note_on_c, 5, 60, 93
6, 141920, Control_c, 5, 7, 26
6, 141968, Note_off_c, 5, 60, 0
6, 141984, Note_on_c, 5, 76, 89
6, 141984, Note_on_c, 5, 72, 89
6, 141984, Note_on_c, 5, 67, 89
6, 142076, Control_c, 5, 7, 25
6, 142144, Note_off_c, 5, 76, 0
6, 142144, Note_off_c, 5, 72, 0
6, 142144, Note_off_c, 5, 67, 0
6, 142176, Note_on_c, 5, 60, 93
6, 142228, Control_c, 5, 7, 24
6, 142256, Note_off_c, 5, 60, 0
6, 142272, Note_on_c, 5, 76, 87
6, 142272, Note_on_c, 5, 72, 87
6, 142272, Note_on_c, 5, 67, 87
6, 142384, Control_c, 5, 7, 23
6, 142432, Note_off_c, 5, 76, 0
6, 142432, Note_off_c, 5, 72, 0
6, 142432, Note_off_c, 5, 67, 0
6, 142464, Note_on_c, 5, 60, 91
6, 142536, Control_c, 5, 7, 22
6, 142544, Note_off_c, 5, 60, 0
6, 142560, Note_on_c, 5, 76, 87
6, 142560, Note_on_c, 5, 72, 87
6, 142560, Note_on_c, 5, 67, 87
6, 142688, Control_c, 5, 7, 21
6, 142768, Note_off_c, 5, 76, 0
6, 142768, Note_off_c, 5, 72, 0
6, 142768, Note_off_c, 5, 67, 0
6, 142844, Control_c, 5, 7, 20
6, 142848, Note_on_c, 5, 74, 82
6, 142848, Note_on_c, 5, 71, 82
6, 142848, Note_on_c, 5, 67, 82
6, 142996, Control_c, 5, 7, 19
6, 143136, Note_off_c, 5, 74, 0
6, 143136, Note_off_c, 5, 71, 0
6, 143136, Note_off_c, 5, 67, 0
6, 143152, Control_c, 5, 7, 18
6, 143232, Note_on_c, 5, 74, 86
6, 143232, Note_on_c, 5, 71, 86
6, 143232, Note_on_c, 5, 67, 86
6, 143304, Control_c, 5, 7, 17
6, 143392, Note_off_c, 5, 74, 0
6, 143392, Note_off_c, 5, 71, 0
6, 143392, Note_off_c, 5, 67, 0
6, 143424, Note_on_c, 5, 64, 93
6, 143456, Control_c, 5, 7, 16
6, 143504, Note_off_c, 5, 64, 0
6, 143520, Note_on_c, 5, 74, 89
6, 143520, Note_on_c, 5, 71, 89
6, 143520, Note_on_c, 5, 67, 89
6, 143612, Control_c, 5, 7, 15
6, 143680, Note_off_c, 5, 74, 0
6, 143680, Note_off_c, 5, 71, 0
6, 143680, Note_off_c, 5, 67, 0
6, 143712, Note_on_c, 5, 64, 93
6, 143764, Control_c, 5, 7, 14
6, 143792, Note_off_c, 5, 64, 0
6, 143808, Note_on_c, 5, 74, 87
6, 143808, Note_on_c, 5, 71, 87
6, 143808, Note_on_c, 5, 67, 87
6, 143920, Control_c, 5, 7, 13
6, 143968, Note_off_c, 5, 74, 0
6, 143968, Note_off_c, 5, 71, 0
6, 143968, Note_off_c, 5, 67, 0
6, 144000, Note_on_c, 5, 64, 91
6, 144072, Control_c, 5, 7, 12
6, 144080, Note_off_c, 5, 64, 0
6, 144096, Note_on_c, 5, 74, 87
6, 144096, Note_on_c, 5, 71, 87
6, 144096, Note_on_c, 5, 67, 87
6, 144224, Control_c, 5, 7, 11
6, 144304, Note_off_c, 5, 74, 0
6, 144304, Note_off_c, 5, 71, 0
6, 144304, Note_off_c, 5, 67, 0
6, 144380, Control_c, 5, 7, 10
6, 144384, Note_on_c, 5, 74, 82
6, 144384, Note_on_c, 5, 71, 82
6, 144384, Note_on_c, 5, 79, 82
6, 144532, Control_c, 5, 7, 9
6, 144672, Note_off_c, 5, 74, 0
6, 144672, Note_off_c, 5, 71, 0
6, 144672, Note_off_c, 5, 79, 0
6, 144688, Control_c, 5, 7, 8
6, 144768, Note_on_c, 5, 74, 86
6, 144768, Note_on_c, 5, 71, 86
6, 144768, Note_on_c, 5, 79, 86
6, 144840, Control_c, 5, 7, 7
6, 144928, Note_off_c, 5, 74, 0
6, 144928, Note_off_c, 5, 71, 0
6, 144928, Note_off_c, 5, 79, 0
6, 144960, Note_on_c, 5, 67, 93
6, 144992, Control_c, 5, 7, 6
6, 145040, Note_off_c, 5, 67, 0
6, 145056, Note_on_c, 5, 74, 89
6, 145056, Note_on_c, 5, 71, 89
6, 145056, Note_on_c, 5, 79, 89
6, 145148, Control_c, 5, 7, 5
6, 145216, Note_off_c, 5, 74, 0
6, 145216, Note_off_c, 5, 71, 0
6, 145216, Note_off_c, 5, 79, 0
6, 145248, Note_on_c, 5, 67, 93
6, 145300, Control_c, 5, 7, 4
6, 145328, Note_off_c, 5, 67, 0
6, 145344, Note_on_c, 5, 74, 87
6, 145344, Note_on_c, 5, 71, 87
6, 145344, Note_on_c, 5, 79, 87
6, 145456, Control_c, 5, 7, 3
6, 145504, Note_off_c, 5, 74, 0
6, 145504, Note_off_c, 5, 71, 0
6, 145504, Note_off_c, 5, 79, 0
6, 145536, Note_on_c, 5, 67, 91
6, 145608, Control_c, 5, 7, 2
6, 145616, Note_off_c, 5, 67, 0
6, 145632, Note_on_c, 5, 74, 87
6, 145632, Note_on_c, 5, 71, 87
6, 145632, Note_on_c, 5, 79, 87
6, 145760, Control_c, 5, 7, 1
6, 145840, Note_off_c, 5, 74, 0
6, 145840, Note_off_c, 5, 71, 0
6, 145840, Note_off_c, 5, 79, 0
6, 145916, Control_c, 5, 7, 0
6, 145916, End_track
7, 0, Start_track
7, 0, Title_t, "fingered bass"
7, 0, Control_c, 6, 0, 0
7, 0, Program_c, 6, 33
7, 0, Control_c, 6, 10, 64
7, 0, Control_c, 6, 91, 0
7, 0, Key_signature, 0, "major"
7, 0, Control_c, 6, 7, 120
7, 0, Control_c, 6, 121, 0
7, 0, Note_on_c, 6, 33, 90
7, 6144, Note_off_c, 6, 33, 0
7, 6144, Note_on_c, 6, 31, 90
7, 9216, Note_off_c, 6, 31, 0
7, 9216, Note_on_c, 6, 26, 90
7, 12288, Note_off_c, 6, 26, 0
7, 12288, Note_on_c, 6, 33, 90
7, 18432, Note_off_c, 6, 33, 0
7, 18432, Note_on_c, 6, 31, 90
7, 21504, Note_off_c, 6, 31, 0
7, 21504, Note_on_c, 6, 26, 90
7, 24576, Note_off_c, 6, 26, 0
7, 24576, Note_on_c, 6, 26, 90
7, 26112, Note_off_c, 6, 26, 0
7, 26112, Note_on_c, 6, 33, 90
7, 27648, Note_off_c, 6, 33, 0
7, 27648, Note_on_c, 6, 26, 90
7, 29184, Note_off_c, 6, 26, 0
7, 29184, Note_on_c, 6, 33, 90
7, 30720, Note_off_c, 6, 33, 0
7, 30720, Note_on_c, 6, 28, 90
7, 32256, Note_off_c, 6, 28, 0
7, 32256, Note_on_c, 6, 31, 90
7, 33792, Note_off_c, 6, 31, 0
7, 33792, Note_on_c, 6, 26, 90
7, 36864, Note_off_c, 6, 26, 0
7, 36864, Note_on_c, 6, 26, 90
7, 38400, Note_off_c, 6, 26, 0
7, 38400, Note_on_c, 6, 33, 90
7, 39936, Note_off_c, 6, 33, 0
7, 39936, Note_on_c, 6, 26, 90
7, 41472, Note_off_c, 6, 26, 0
7, 41472, Note_on_c, 6, 33, 90
7, 43008, Note_off_c, 6, 33, 0
7, 43008, Note_on_c, 6, 28, 90
7, 44544, Note_off_c, 6, 28, 0
7, 44544, Note_on_c, 6, 31, 90
7, 46080, Note_off_c, 6, 31, 0
7, 49152, Note_on_c, 6, 38, 90
7, 49440, Note_off_c, 6, 38, 0
7, 49536, Note_on_c, 6, 38, 90
7, 49744, Note_off_c, 6, 38, 0
7, 49824, Note_on_c, 6, 38, 90
7, 50032, Note_off_c, 6, 38, 0
7, 50112, Note_on_c, 6, 38, 90
7, 50320, Note_off_c, 6, 38, 0
7, 50400, Note_on_c, 6, 38, 90
7, 50608, Note_off_c, 6, 38, 0
7, 50688, Note_on_c, 6, 38, 90
7, 50976, Note_off_c, 6, 38, 0
7, 51072, Note_on_c, 6, 38, 90
7, 51280, Note_off_c, 6, 38, 0
7, 51360, Note_on_c, 6, 38, 90
7, 51568, Note_off_c, 6, 38, 0
7, 51648, Note_on_c, 6, 38, 90
7, 51856, Note_off_c, 6, 38, 0
7, 51936, Note_on_c, 6, 38, 90
7, 52144, Note_off_c, 6, 38, 0
7, 52224, Note_on_c, 6, 38, 90
7, 52512, Note_off_c, 6, 38, 0
7, 52608, Note_on_c, 6, 38, 90
7, 52816, Note_off_c, 6, 38, 0
7, 52896, Note_on_c, 6, 38, 90
7, 53104, Note_off_c, 6, 38, 0
7, 53184, Note_on_c, 6, 38, 90
7, 53392, Note_off_c, 6, 38, 0
7, 53472, Note_on_c, 6, 38, 90
7, 53680, Note_off_c, 6, 38, 0
7, 53760, Note_on_c, 6, 38, 90
7, 54048, Note_off_c, 6, 38, 0
7, 54144, Note_on_c, 6, 38, 90
7, 54352, Note_off_c, 6, 38, 0
7, 54432, Note_on_c, 6, 38, 90
7, 54640, Note_off_c, 6, 38, 0
7, 54720, Note_on_c, 6, 38, 90
7, 54928, Note_off_c, 6, 38, 0
7, 55008, Note_on_c, 6, 38, 90
7, 55216, Note_off_c, 6, 38, 0
7, 55296, Note_on_c, 6, 36, 90
7, 55584, Note_off_c, 6, 36, 0
7, 55680, Note_on_c, 6, 36, 90
7, 55888, Note_off_c, 6, 36, 0
7, 55968, Note_on_c, 6, 36, 90
7, 56176, Note_off_c, 6, 36, 0
7, 56256, Note_on_c, 6, 36, 90
7, 56464, Note_off_c, 6, 36, 0
7, 56544, Note_on_c, 6, 36, 90
7, 56752, Note_off_c, 6, 36, 0
7, 56832, Note_on_c, 6, 28, 90
7, 57120, Note_off_c, 6, 28, 0
7, 57216, Note_on_c, 6, 28, 90
7, 57424, Note_off_c, 6, 28, 0
7, 57504, Note_on_c, 6, 28, 90
7, 57712, Note_off_c, 6, 28, 0
7, 57792, Note_on_c, 6, 28, 90
7, 58000, Note_off_c, 6, 28, 0
7, 58080, Note_on_c, 6, 28, 90
7, 58288, Note_off_c, 6, 28, 0
7, 58368, Note_on_c, 6, 31, 90
7, 58656, Note_off_c, 6, 31, 0
7, 58752, Note_on_c, 6, 31, 90
7, 58960, Note_off_c, 6, 31, 0
7, 59040, Note_on_c, 6, 31, 90
7, 59248, Note_off_c, 6, 31, 0
7, 59328, Note_on_c, 6, 31, 90
7, 59536, Note_off_c, 6, 31, 0
7, 59616, Note_on_c, 6, 31, 90
7, 59824, Note_off_c, 6, 31, 0
7, 59904, Note_on_c, 6, 31, 90
7, 60192, Note_off_c, 6, 31, 0
7, 60288, Note_on_c, 6, 31, 90
7, 60496, Note_off_c, 6, 31, 0
7, 60576, Note_on_c, 6, 31, 90
7, 60784, Note_off_c, 6, 31, 0
7, 60864, Note_on_c, 6, 31, 90
7, 61072, Note_off_c, 6, 31, 0
7, 61152, Note_on_c, 6, 31, 90
7, 61360, Note_off_c, 6, 31, 0
7, 61440, Note_on_c, 6, 33, 90
7, 61728, Note_off_c, 6, 33, 0
7, 61824, Note_on_c, 6, 33, 90
7, 62032, Note_off_c, 6, 33, 0
7, 62112, Note_on_c, 6, 33, 90
7, 62320, Note_off_c, 6, 33, 0
7, 62400, Note_on_c, 6, 33, 90
7, 62608, Note_off_c, 6, 33, 0
7, 62688, Note_on_c, 6, 33, 90
7, 62896, Note_off_c, 6, 33, 0
7, 62976, Note_on_c, 6, 33, 90
7, 63264, Note_off_c, 6, 33, 0
7, 63360, Note_on_c, 6, 33, 90
7, 63568, Note_off_c, 6, 33, 0
7, 63648, Note_on_c, 6, 33, 90
7, 63856, Note_off_c, 6, 33, 0
7, 63936, Note_on_c, 6, 33, 90
7, 64144, Note_off_c, 6, 33, 0
7, 64224, Note_on_c, 6, 33, 90
7, 64432, Note_off_c, 6, 33, 0
7, 64512, Note_on_c, 6, 33, 90
7, 64800, Note_off_c, 6, 33, 0
7, 64896, Note_on_c, 6, 33, 90
7, 65104, Note_off_c, 6, 33, 0
7, 65184, Note_on_c, 6, 33, 90
7, 65392, Note_off_c, 6, 33, 0
7, 65472, Note_on_c, 6, 33, 90
7, 65680, Note_off_c, 6, 33, 0
7, 65760, Note_on_c, 6, 33, 90
7, 65968, Note_off_c, 6, 33, 0
7, 66048, Note_on_c, 6, 33, 90
7, 66336, Note_off_c, 6, 33, 0
7, 66432, Note_on_c, 6, 33, 90
7, 66640, Note_off_c, 6, 33, 0
7, 66720, Note_on_c, 6, 33, 90
7, 66928, Note_off_c, 6, 33, 0
7, 67008, Note_on_c, 6, 33, 90
7, 67216, Note_off_c, 6, 33, 0
7, 67296, Note_on_c, 6, 33, 90
7, 67504, Note_off_c, 6, 33, 0
7, 67584, Note_on_c, 6, 28, 90
7, 67872, Note_off_c, 6, 28, 0
7, 67968, Note_on_c, 6, 28, 90
7, 68176, Note_off_c, 6, 28, 0
7, 68256, Note_on_c, 6, 28, 90
7, 68464, Note_off_c, 6, 28, 0
7, 68544, Note_on_c, 6, 28, 90
7, 68752, Note_off_c, 6, 28, 0
7, 68832, Note_on_c, 6, 28, 90
7, 69040, Note_off_c, 6, 28, 0
7, 69120, Note_on_c, 6, 31, 90
7, 69408, Note_off_c, 6, 31, 0
7, 69504, Note_on_c, 6, 31, 90
7, 69712, Note_off_c, 6, 31, 0
7, 69792, Note_on_c, 6, 31, 90
7, 70000, Note_off_c, 6, 31, 0
7, 70080, Note_on_c, 6, 31, 90
7, 70288, Note_off_c, 6, 31, 0
7, 70368, Note_on_c, 6, 31, 90
7, 70576, Note_off_c, 6, 31, 0
7, 70656, Note_on_c, 6, 38, 90
7, 70944, Note_off_c, 6, 38, 0
7, 71040, Note_on_c, 6, 38, 90
7, 71248, Note_off_c, 6, 38, 0
7, 71328, Note_on_c, 6, 38, 90
7, 71536, Note_off_c, 6, 38, 0
7, 71616, Note_on_c, 6, 38, 90
7, 71824, Note_off_c, 6, 38, 0
7, 71904, Note_on_c, 6, 38, 90
7, 72112, Note_off_c, 6, 38, 0
7, 72192, Note_on_c, 6, 38, 90
7, 72480, Note_off_c, 6, 38, 0
7, 72576, Note_on_c, 6, 38, 90
7, 72784, Note_off_c, 6, 38, 0
7, 72864, Note_on_c, 6, 38, 90
7, 73072, Note_off_c, 6, 38, 0
7, 73152, Note_on_c, 6, 38, 90
7, 73360, Note_off_c, 6, 38, 0
7, 73440, Note_on_c, 6, 38, 90
7, 73648, Note_off_c, 6, 38, 0
7, 73728, Note_on_c, 6, 33, 90
7, 74016, Note_off_c, 6, 33, 0
7, 74112, Note_on_c, 6, 33, 90
7, 74320, Note_off_c, 6, 33, 0
7, 74400, Note_on_c, 6, 33, 90
7, 74608, Note_off_c, 6, 33, 0
7, 74688, Note_on_c, 6, 33, 90
7, 74896, Note_off_c, 6, 33, 0
7, 74976, Note_on_c, 6, 33, 90
7, 75184, Note_off_c, 6, 33, 0
7, 75264, Note_on_c, 6, 33, 90
7, 75552, Note_off_c, 6, 33, 0
7, 75648, Note_on_c, 6, 33, 90
7, 75856, Note_off_c, 6, 33, 0
7, 75936, Note_on_c, 6, 33, 90
7, 76144, Note_off_c, 6, 33, 0
7, 76224, Note_on_c, 6, 33, 90
7, 76432, Note_off_c, 6, 33, 0
7, 76512, Note_on_c, 6, 33, 90
7, 76720, Note_off_c, 6, 33, 0
7, 76800, Note_on_c, 6, 33, 90
7, 77088, Note_off_c, 6, 33, 0
7, 77184, Note_on_c, 6, 33, 90
7, 77392, Note_off_c, 6, 33, 0
7, 77472, Note_on_c, 6, 33, 90
7, 77680, Note_off_c, 6, 33, 0
7, 77760, Note_on_c, 6, 33, 90
7, 77968, Note_off_c, 6, 33, 0
7, 78048, Note_on_c, 6, 33, 90
7, 78256, Note_off_c, 6, 33, 0
7, 78336, Note_on_c, 6, 33, 90
7, 78624, Note_off_c, 6, 33, 0
7, 78720, Note_on_c, 6, 33, 90
7, 78928, Note_off_c, 6, 33, 0
7, 79008, Note_on_c, 6, 33, 90
7, 79216, Note_off_c, 6, 33, 0
7, 79296, Note_on_c, 6, 33, 90
7, 79504, Note_off_c, 6, 33, 0
7, 79584, Note_on_c, 6, 33, 90
7, 79792, Note_off_c, 6, 33, 0
7, 79872, Note_on_c, 6, 28, 90
7, 80160, Note_off_c, 6, 28, 0
7, 80256, Note_on_c, 6, 28, 90
7, 80464, Note_off_c, 6, 28, 0
7, 80544, Note_on_c, 6, 28, 90
7, 80752, Note_off_c, 6, 28, 0
7, 80832, Note_on_c, 6, 28, 90
7, 81040, Note_off_c, 6, 28, 0
7, 81120, Note_on_c, 6, 28, 90
7, 81328, Note_off_c, 6, 28, 0
7, 81408, Note_on_c, 6, 31, 90
7, 81696, Note_off_c, 6, 31, 0
7, 81792, Note_on_c, 6, 31, 90
7, 82000, Note_off_c, 6, 31, 0
7, 82080, Note_on_c, 6, 31, 90
7, 82288, Note_off_c, 6, 31, 0
7, 82368, Note_on_c, 6, 31, 90
7, 82576, Note_off_c, 6, 31, 0
7, 82656, Note_on_c, 6, 31, 90
7, 82864, Note_off_c, 6, 31, 0
7, 82944, Note_on_c, 6, 38, 90
7, 83232, Note_off_c, 6, 38, 0
7, 83328, Note_on_c, 6, 38, 90
7, 83536, Note_off_c, 6, 38, 0
7, 83616, Note_on_c, 6, 38, 90
7, 83824, Note_off_c, 6, 38, 0
7, 83904, Note_on_c, 6, 38, 90
7, 84112, Note_off_c, 6, 38, 0
7, 84192, Note_on_c, 6, 38, 90
7, 84400, Note_off_c, 6, 38, 0
7, 84480, Note_on_c, 6, 38, 90
7, 84768, Note_off_c, 6, 38, 0
7, 84864, Note_on_c, 6, 38, 90
7, 85072, Note_off_c, 6, 38, 0
7, 85152, Note_on_c, 6, 38, 90
7, 85360, Note_off_c, 6, 38, 0
7, 85440, Note_on_c, 6, 38, 90
7, 85648, Note_off_c, 6, 38, 0
7, 85728, Note_on_c, 6, 38, 90
7, 85936, Note_off_c, 6, 38, 0
7, 86016, Note_on_c, 6, 38, 90
7, 86304, Note_off_c, 6, 38, 0
7, 86400, Note_on_c, 6, 38, 90
7, 86608, Note_off_c, 6, 38, 0
7, 86688, Note_on_c, 6, 38, 90
7, 86896, Note_off_c, 6, 38, 0
7, 86976, Note_on_c, 6, 38, 90
7, 87184, Note_off_c, 6, 38, 0
7, 87264, Note_on_c, 6, 38, 90
7, 87472, Note_off_c, 6, 38, 0
7, 87552, Note_on_c, 6, 33, 90
7, 87840, Note_off_c, 6, 33, 0
7, 87936, Note_on_c, 6, 33, 90
7, 88144, Note_off_c, 6, 33, 0
7, 88224, Note_on_c, 6, 33, 90
7, 88432, Note_off_c, 6, 33, 0
7, 88512, Note_on_c, 6, 33, 90
7, 88720, Note_off_c, 6, 33, 0
7, 88800, Note_on_c, 6, 33, 90
7, 89008, Note_off_c, 6, 33, 0
7, 89088, Note_on_c, 6, 38, 90
7, 89376, Note_off_c, 6, 38, 0
7, 89472, Note_on_c, 6, 38, 90
7, 89680, Note_off_c, 6, 38, 0
7, 89760, Note_on_c, 6, 38, 90
7, 89968, Note_off_c, 6, 38, 0
7, 90048, Note_on_c, 6, 38, 90
7, 90256, Note_off_c, 6, 38, 0
7, 90336, Note_on_c, 6, 38, 90
7, 90544, Note_off_c, 6, 38, 0
7, 90624, Note_on_c, 6, 33, 90
7, 90912, Note_off_c, 6, 33, 0
7, 91008, Note_on_c, 6, 33, 90
7, 91216, Note_off_c, 6, 33, 0
7, 91296, Note_on_c, 6, 33, 90
7, 91504, Note_off_c, 6, 33, 0
7, 91584, Note_on_c, 6, 33, 90
7, 91792, Note_off_c, 6, 33, 0
7, 91872, Note_on_c, 6, 33, 90
7, 92080, Note_off_c, 6, 33, 0
7, 92160, Note_on_c, 6, 28, 90
7, 92448, Note_off_c, 6, 28, 0
7, 92544, Note_on_c, 6, 28, 90
7, 92752, Note_off_c, 6, 28, 0
7, 92832, Note_on_c, 6, 28, 90
7, 93040, Note_off_c, 6, 28, 0
7, 93120, Note_on_c, 6, 28, 90
7, 93328, Note_off_c, 6, 28, 0
7, 93408, Note_on_c, 6, 28, 90
7, 93616, Note_off_c, 6, 28, 0
7, 93696, Note_on_c, 6, 31, 90
7, 93984, Note_off_c, 6, 31, 0
7, 94080, Note_on_c, 6, 31, 90
7, 94288, Note_off_c, 6, 31, 0
7, 94368, Note_on_c, 6, 31, 90
7, 94576, Note_off_c, 6, 31, 0
7, 94656, Note_on_c, 6, 31, 90
7, 94864, Note_off_c, 6, 31, 0
7, 94944, Note_on_c, 6, 31, 90
7, 95152, Note_off_c, 6, 31, 0
7, 95232, Note_on_c, 6, 26, 90
7, 95520, Note_off_c, 6, 26, 0
7, 95616, Note_on_c, 6, 26, 90
7, 95824, Note_off_c, 6, 26, 0
7, 95904, Note_on_c, 6, 26, 90
7, 96112, Note_off_c, 6, 26, 0
7, 96192, Note_on_c, 6, 26, 90
7, 96400, Note_off_c, 6, 26, 0
7, 96480, Note_on_c, 6, 26, 90
7, 96688, Note_off_c, 6, 26, 0
7, 96768, Note_on_c, 6, 26, 90
7, 97056, Note_off_c, 6, 26, 0
7, 97152, Note_on_c, 6, 26, 90
7, 97360, Note_off_c, 6, 26, 0
7, 97440, Note_on_c, 6, 26, 90
7, 97648, Note_off_c, 6, 26, 0
7, 97728, Note_on_c, 6, 26, 90
7, 97936, Note_off_c, 6, 26, 0
7, 98016, Note_on_c, 6, 26, 90
7, 98224, Note_off_c, 6, 26, 0
7, 98304, Note_on_c, 6, 38, 90
7, 98592, Note_off_c, 6, 38, 0
7, 98688, Note_on_c, 6, 38, 90
7, 98896, Note_off_c, 6, 38, 0
7, 98976, Note_on_c, 6, 38, 90
7, 99184, Note_off_c, 6, 38, 0
7, 99264, Note_on_c, 6, 38, 90
7, 99472, Note_off_c, 6, 38, 0
7, 99552, Note_on_c, 6, 38, 90
7, 99760, Note_off_c, 6, 38, 0
7, 99840, Note_on_c, 6, 33, 90
7, 100128, Note_off_c, 6, 33, 0
7, 100224, Note_on_c, 6, 33, 90
7, 100432, Note_off_c, 6, 33, 0
7, 100512, Note_on_c, 6, 33, 90
7, 100720, Note_off_c, 6, 33, 0
7, 100800, Note_on_c, 6, 33, 90
7, 101008, Note_off_c, 6, 33, 0
7, 101088, Note_on_c, 6, 33, 90
7, 101296, Note_off_c, 6, 33, 0
7, 101376, Note_on_c, 6, 38, 90
7, 101664, Note_off_c, 6, 38, 0
7, 101760, Note_on_c, 6, 38, 90
7, 101968, Note_off_c, 6, 38, 0
7, 102048, Note_on_c, 6, 38, 90
7, 102256, Note_off_c, 6, 38, 0
7, 102336, Note_on_c, 6, 38, 90
7, 102544, Note_off_c, 6, 38, 0
7, 102624, Note_on_c, 6, 38, 90
7, 102832, Note_off_c, 6, 38, 0
7, 102912, Note_on_c, 6, 33, 90
7, 103200, Note_off_c, 6, 33, 0
7, 103296, Note_on_c, 6, 33, 90
7, 103504, Note_off_c, 6, 33, 0
7, 103584, Note_on_c, 6, 33, 90
7, 103792, Note_off_c, 6, 33, 0
7, 103872, Note_on_c, 6, 33, 90
7, 104080, Note_off_c, 6, 33, 0
7, 104160, Note_on_c, 6, 33, 90
7, 104368, Note_off_c, 6, 33, 0
7, 104448, Note_on_c, 6, 28, 90
7, 104736, Note_off_c, 6, 28, 0
7, 104832, Note_on_c, 6, 28, 90
7, 105040, Note_off_c, 6, 28, 0
7, 105120, Note_on_c, 6, 28, 90
7, 105328, Note_off_c, 6, 28, 0
7, 105408, Note_on_c, 6, 28, 90
7, 105616, Note_off_c, 6, 28, 0
7, 105696, Note_on_c, 6, 28, 90
7, 105904, Note_off_c, 6, 28, 0
7, 105984, Note_on_c, 6, 31, 90
7, 106272, Note_off_c, 6, 31, 0
7, 106368, Note_on_c, 6, 31, 90
7, 106576, Note_off_c, 6, 31, 0
7, 106656, Note_on_c, 6, 31, 90
7, 106864, Note_off_c, 6, 31, 0
7, 106944, Note_on_c, 6, 31, 90
7, 107152, Note_off_c, 6, 31, 0
7, 107232, Note_on_c, 6, 31, 90
7, 107440, Note_off_c, 6, 31, 0
7, 107520, Note_on_c, 6, 33, 90
7, 107808, Note_off_c, 6, 33, 0
7, 107904, Note_on_c, 6, 33, 90
7, 108112, Note_off_c, 6, 33, 0
7, 108192, Note_on_c, 6, 33, 90
7, 108400, Note_off_c, 6, 33, 0
7, 108480, Note_on_c, 6, 33, 90
7, 108688, Note_off_c, 6, 33, 0
7, 108768, Note_on_c, 6, 33, 90
7, 108976, Note_off_c, 6, 33, 0
7, 109056, Note_on_c, 6, 31, 90
7, 109264, Note_off_c, 6, 31, 0
7, 110592, Note_on_c, 6, 38, 90
7, 110880, Note_off_c, 6, 38, 0
7, 110976, Note_on_c, 6, 38, 90
7, 111184, Note_off_c, 6, 38, 0
7, 111264, Note_on_c, 6, 38, 90
7, 111472, Note_off_c, 6, 38, 0
7, 111552, Note_on_c, 6, 38, 90
7, 111760, Note_off_c, 6, 38, 0
7, 111840, Note_on_c, 6, 38, 90
7, 112048, Note_off_c, 6, 38, 0
7, 112128, Note_on_c, 6, 38, 90
7, 112416, Note_off_c, 6, 38, 0
7, 112512, Note_on_c, 6, 38, 90
7, 112720, Note_off_c, 6, 38, 0
7, 112800, Note_on_c, 6, 38, 90
7, 113008, Note_off_c, 6, 38, 0
7, 113088, Note_on_c, 6, 38, 90
7, 113296, Note_off_c, 6, 38, 0
7, 113376, Note_on_c, 6, 38, 90
7, 113584, Note_off_c, 6, 38, 0
7, 113664, Note_on_c, 6, 38, 90
7, 113952, Note_off_c, 6, 38, 0
7, 114048, Note_on_c, 6, 38, 90
7, 114256, Note_off_c, 6, 38, 0
7, 114336, Note_on_c, 6, 38, 90
7, 114544, Note_off_c, 6, 38, 0
7, 114624, Note_on_c, 6, 38, 90
7, 114832, Note_off_c, 6, 38, 0
7, 114912, Note_on_c, 6, 38, 90
7, 115120, Note_off_c, 6, 38, 0
7, 115200, Note_on_c, 6, 38, 90
7, 115488, Note_off_c, 6, 38, 0
7, 115584, Note_on_c, 6, 38, 90
7, 115792, Note_off_c, 6, 38, 0
7, 115872, Note_on_c, 6, 38, 90
7, 116080, Note_off_c, 6, 38, 0
7, 116160, Note_on_c, 6, 38, 90
7, 116368, Note_off_c, 6, 38, 0
7, 116448, Note_on_c, 6, 38, 90
7, 116656, Note_off_c, 6, 38, 0
7, 116736, Note_on_c, 6, 36, 90
7, 117024, Note_off_c, 6, 36, 0
7, 117120, Note_on_c, 6, 36, 90
7, 117328, Note_off_c, 6, 36, 0
7, 117408, Note_on_c, 6, 36, 90
7, 117616, Note_off_c, 6, 36, 0
7, 117696, Note_on_c, 6, 36, 90
7, 117904, Note_off_c, 6, 36, 0
7, 117984, Note_on_c, 6, 36, 90
7, 118192, Note_off_c, 6, 36, 0
7, 118272, Note_on_c, 6, 28, 90
7, 118560, Note_off_c, 6, 28, 0
7, 118656, Note_on_c, 6, 28, 90
7, 118864, Note_off_c, 6, 28, 0
7, 118944, Note_on_c, 6, 28, 90
7, 119152, Note_off_c, 6, 28, 0
7, 119232, Note_on_c, 6, 28, 90
7, 119440, Note_off_c, 6, 28, 0
7, 119520, Note_on_c, 6, 28, 90
7, 119728, Note_off_c, 6, 28, 0
7, 119808, Note_on_c, 6, 31, 90
7, 120096, Note_off_c, 6, 31, 0
7, 120192, Note_on_c, 6, 31, 90
7, 120400, Note_off_c, 6, 31, 0
7, 120480, Note_on_c, 6, 31, 90
7, 120688, Note_off_c, 6, 31, 0
7, 120768, Note_on_c, 6, 31, 90
7, 120976, Note_off_c, 6, 31, 0
7, 121056, Note_on_c, 6, 31, 90
7, 121264, Note_off_c, 6, 31, 0
7, 121344, Note_on_c, 6, 31, 90
7, 121632, Note_off_c, 6, 31, 0
7, 121728, Note_on_c, 6, 31, 90
7, 121936, Note_off_c, 6, 31, 0
7, 122016, Note_on_c, 6, 31, 90
7, 122224, Note_off_c, 6, 31, 0
7, 122304, Note_on_c, 6, 31, 90
7, 122512, Note_off_c, 6, 31, 0
7, 122592, Note_on_c, 6, 31, 90
7, 122800, Note_off_c, 6, 31, 0
7, 122880, Note_on_c, 6, 38, 90
7, 123168, Note_off_c, 6, 38, 0
7, 123264, Note_on_c, 6, 38, 90
7, 123472, Note_off_c, 6, 38, 0
7, 123552, Note_on_c, 6, 38, 90
7, 123760, Note_off_c, 6, 38, 0
7, 123840, Note_on_c, 6, 38, 90
7, 124048, Note_off_c, 6, 38, 0
7, 124128, Note_on_c, 6, 38, 90
7, 124336, Note_off_c, 6, 38, 0
7, 124416, Note_on_c, 6, 38, 90
7, 124704, Note_off_c, 6, 38, 0
7, 124800, Note_on_c, 6, 38, 90
7, 125008, Note_off_c, 6, 38, 0
7, 125088, Note_on_c, 6, 38, 90
7, 125296, Note_off_c, 6, 38, 0
7, 125376, Note_on_c, 6, 38, 90
7, 125584, Note_off_c, 6, 38, 0
7, 125664, Note_on_c, 6, 38, 90
7, 125872, Note_off_c, 6, 38, 0
7, 125952, Note_on_c, 6, 38, 90
7, 126240, Note_off_c, 6, 38, 0
7, 126336, Note_on_c, 6, 38, 90
7, 126544, Note_off_c, 6, 38, 0
7, 126624, Note_on_c, 6, 38, 90
7, 126832, Note_off_c, 6, 38, 0
7, 126912, Note_on_c, 6, 38, 90
7, 127120, Note_off_c, 6, 38, 0
7, 127200, Note_on_c, 6, 38, 90
7, 127408, Note_off_c, 6, 38, 0
7, 127488, Note_on_c, 6, 38, 90
7, 127776, Note_off_c, 6, 38, 0
7, 127872, Note_on_c, 6, 38, 90
7, 128080, Note_off_c, 6, 38, 0
7, 128160, Note_on_c, 6, 38, 90
7, 128368, Note_off_c, 6, 38, 0
7, 128448, Note_on_c, 6, 38, 90
7, 128656, Note_off_c, 6, 38, 0
7, 128736, Note_on_c, 6, 38, 90
7, 128944, Note_off_c, 6, 38, 0
7, 129024, Note_on_c, 6, 36, 90
7, 129312, Note_off_c, 6, 36, 0
7, 129408, Note_on_c, 6, 36, 90
7, 129616, Note_off_c, 6, 36, 0
7, 129696, Note_on_c, 6, 36, 90
7, 129904, Note_off_c, 6, 36, 0
7, 129984, Note_on_c, 6, 36, 90
7, 130192, Note_off_c, 6, 36, 0
7, 130272, Note_on_c, 6, 36, 90
7, 130480, Note_off_c, 6, 36, 0
7, 130560, Note_on_c, 6, 28, 90
7, 130848, Note_off_c, 6, 28, 0
7, 130944, Note_on_c, 6, 28, 90
7, 131152, Note_off_c, 6, 28, 0
7, 131232, Note_on_c, 6, 28, 90
7, 131440, Note_off_c, 6, 28, 0
7, 131520, Note_on_c, 6, 28, 90
7, 131728, Note_off_c, 6, 28, 0
7, 131808, Note_on_c, 6, 28, 90
7, 132016, Note_off_c, 6, 28, 0
7, 132096, Note_on_c, 6, 31, 90
7, 132384, Note_off_c, 6, 31, 0
7, 132480, Note_on_c, 6, 31, 90
7, 132688, Note_off_c, 6, 31, 0
7, 132768, Note_on_c, 6, 31, 90
7, 132976, Note_off_c, 6, 31, 0
7, 133056, Note_on_c, 6, 31, 90
7, 133264, Note_off_c, 6, 31, 0
7, 133344, Note_on_c, 6, 31, 90
7, 133552, Note_off_c, 6, 31, 0
7, 133632, Note_on_c, 6, 31, 90
7, 133920, Note_off_c, 6, 31, 0
7, 134016, Note_on_c, 6, 31, 90
7, 134224, Note_off_c, 6, 31, 0
7, 134304, Note_on_c, 6, 31, 90
7, 134512, Note_off_c, 6, 31, 0
7, 134592, Note_on_c, 6, 31, 90
7, 134800, Note_off_c, 6, 31, 0
7, 134880, Note_on_c, 6, 31, 90
7, 135088, Note_off_c, 6, 31, 0
7, 135168, Note_on_c, 6, 38, 90
7, 135168, Control_c, 6, 7, 90
7, 135284, Control_c, 6, 7, 89
7, 135404, Control_c, 6, 7, 88
7, 135456, Note_off_c, 6, 38, 0
7, 135520, Control_c, 6, 7, 87
7, 135552, Note_on_c, 6, 38, 90
7, 135644, Control_c, 6, 7, 86
7, 135760, Note_off_c, 6, 38, 0
7, 135760, Control_c, 6, 7, 85
7, 135840, Note_on_c, 6, 38, 90
7, 135880, Control_c, 6, 7, 84
7, 136000, Control_c, 6, 7, 83
7, 136048, Note_off_c, 6, 38, 0
7, 136120, Control_c, 6, 7, 82
7, 136128, Note_on_c, 6, 38, 90
7, 136240, Control_c, 6, 7, 81
7, 136336, Note_off_c, 6, 38, 0
7, 136360, Control_c, 6, 7, 80
7, 136416, Note_on_c, 6, 38, 90
7, 136480, Control_c, 6, 7, 79
7, 136596, Control_c, 6, 7, 78
7, 136624, Note_off_c, 6, 38, 0
7, 136704, Note_on_c, 6, 38, 90
7, 136720, Control_c, 6, 7, 77
7, 136836, Control_c, 6, 7, 76
7, 136956, Control_c, 6, 7, 75
7, 136992, Note_off_c, 6, 38, 0
7, 137076, Control_c, 6, 7, 74
7, 137088, Note_on_c, 6, 38, 90
7, 137196, Control_c, 6, 7, 73
7, 137296, Note_off_c, 6, 38, 0
7, 137312, Control_c, 6, 7, 72
7, 137376, Note_on_c, 6, 38, 90
7, 137436, Control_c, 6, 7, 71
7, 137552, Control_c, 6, 7, 70
7, 137584, Note_off_c, 6, 38, 0
7, 137664, Note_on_c, 6, 38, 90
7, 137672, Control_c, 6, 7, 69
7, 137792, Control_c, 6, 7, 68
7, 137872, Note_off_c, 6, 38, 0
7, 137912, Control_c, 6, 7, 67
7, 137952, Note_on_c, 6, 38, 90
7, 138032, Control_c, 6, 7, 66
7, 138152, Control_c, 6, 7, 65
7, 138160, Note_off_c, 6, 38, 0
7, 138240, Note_on_c, 6, 38, 90
7, 138272, Control_c, 6, 7, 64
7, 138388, Control_c, 6, 7, 63
7, 138512, Control_c, 6, 7, 62
7, 138528, Note_off_c, 6, 38, 0
7, 138624, Note_on_c, 6, 38, 90
7, 138628, Control_c, 6, 7, 61
7, 138748, Control_c, 6, 7, 60
7, 138832, Note_off_c, 6, 38, 0
7, 138864, Control_c, 6, 7, 59
7, 138912, Note_on_c, 6, 38, 90
7, 138988, Control_c, 6, 7, 58
7, 139104, Control_c, 6, 7, 57
7, 139120, Note_off_c, 6, 38, 0
7, 139200, Note_on_c, 6, 38, 90
7, 139224, Control_c, 6, 7, 56
7, 139344, Control_c, 6, 7, 55
7, 139408, Note_off_c, 6, 38, 0
7, 139464, Control_c, 6, 7, 54
7, 139488, Note_on_c, 6, 38, 90
7, 139584, Control_c, 6, 7, 53
7, 139696, Note_off_c, 6, 38, 0
7, 139704, Control_c, 6, 7, 52
7, 139776, Note_on_c, 6, 38, 90
7, 139824, Control_c, 6, 7, 51
7, 139940, Control_c, 6, 7, 50
7, 140064, Note_off_c, 6, 38, 0
7, 140064, Control_c, 6, 7, 49
7, 140160, Note_on_c, 6, 38, 90
7, 140180, Control_c, 6, 7, 48
7, 140300, Control_c, 6, 7, 47
7, 140368, Note_off_c, 6, 38, 0
7, 140420, Control_c, 6, 7, 46
7, 140448, Note_on_c, 6, 38, 90
7, 140540, Control_c, 6, 7, 45
7, 140656, Note_off_c, 6, 38, 0
7, 140656, Control_c, 6, 7, 44
7, 140736, Note_on_c, 6, 38, 90
7, 140780, Control_c, 6, 7, 43
7, 140896, Control_c, 6, 7, 42
7, 140944, Note_off_c, 6, 38, 0
7, 141016, Control_c, 6, 7, 41
7, 141024, Note_on_c, 6, 38, 90
7, 141136, Control_c, 6, 7, 40
7, 141232, Note_off_c, 6, 38, 0
7, 141256, Control_c, 6, 7, 39
7, 141312, Note_on_c, 6, 36, 90
7, 141376, Control_c, 6, 7, 38
7, 141496, Control_c, 6, 7, 37
7, 141600, Note_off_c, 6, 36, 0
7, 141616, Control_c, 6, 7, 36
7, 141696, Note_on_c, 6, 36, 90
7, 141732, Control_c, 6, 7, 35
7, 141856, Control_c, 6, 7, 34
7, 141904, Note_off_c, 6, 36, 0
7, 141972, Control_c, 6, 7, 33
7, 141984, Note_on_c, 6, 36, 90
7, 142092, Control_c, 6, 7, 32
7, 142192, Note_off_c, 6, 36, 0
7, 142212, Control_c, 6, 7, 31
7, 142272, Note_on_c, 6, 36, 90
7, 142332, Control_c, 6, 7, 30
7, 142448, Control_c, 6, 7, 29
7, 142480, Note_off_c, 6, 36, 0
7, 142560, Note_on_c, 6, 36, 90
7, 142568, Control_c, 6, 7, 28
7, 142688, Control_c, 6, 7, 27
7, 142768, Note_off_c, 6, 36, 0
7, 142808, Control_c, 6, 7, 26
7, 142848, Note_on_c, 6, 28, 90
7, 142928, Control_c, 6, 7, 25
7, 143048, Control_c, 6, 7, 24
7, 143136, Note_off_c, 6, 28, 0
7, 143168, Control_c, 6, 7, 23
7, 143232, Note_on_c, 6, 28, 90
7, 143284, Control_c, 6, 7, 22
7, 143408, Control_c, 6, 7, 21
7, 143440, Note_off_c, 6, 28, 0
7, 143520, Note_on_c, 6, 28, 90
7, 143524, Control_c, 6, 7, 20
7, 143644, Control_c, 6, 7, 19
7, 143728, Note_off_c, 6, 28, 0
7, 143764, Control_c, 6, 7, 18
7, 143808, Note_on_c, 6, 28, 90
7, 143884, Control_c, 6, 7, 17
7, 144000, Control_c, 6, 7, 16
7, 144016, Note_off_c, 6, 28, 0
7, 144096, Note_on_c, 6, 28, 90
7, 144124, Control_c, 6, 7, 15
7, 144240, Control_c, 6, 7, 14
7, 144304, Note_off_c, 6, 28, 0
7, 144360, Control_c, 6, 7, 13
7, 144384, Note_on_c, 6, 31, 90
7, 144480, Control_c, 6, 7, 12
7, 144600, Control_c, 6, 7, 11
7, 144672, Note_off_c, 6, 31, 0
7, 144720, Control_c, 6, 7, 10
7, 144768, Note_on_c, 6, 31, 90
7, 144840, Control_c, 6, 7, 9
7, 144960, Control_c, 6, 7, 8
7, 144976, Note_off_c, 6, 31, 0
7, 145056, Note_on_c, 6, 31, 90
7, 145076, Control_c, 6, 7, 7
7, 145200, Control_c, 6, 7, 6
7, 145264, Note_off_c, 6, 31, 0
7, 145316, Control_c, 6, 7, 5
7, 145344, Note_on_c, 6, 31, 90
7, 145436, Control_c, 6, 7, 4
7, 145552, Note_off_c, 6, 31, 0
7, 145556, Control_c, 6, 7, 3
7, 145632, Note_on_c, 6, 31, 90
7, 145676, Control_c, 6, 7, 2
7, 145792, Control_c, 6, 7, 1
7, 145840, Note_off_c, 6, 31, 0
7, 145916, Control_c, 6, 7, 0
7, 145916, End_track
8, 0, Start_track
8, 0, Title_t, "Alto Sax"
8, 0, Control_c, 7, 0, 0
8, 0, Program_c, 7, 65
8, 0, Control_c, 7, 10, 100
8, 0, Control_c, 7, 91, 80
8, 0, Key_signature, 0, "major"
8, 0, Control_c, 7, 7, 100
8, 0, Control_c, 7, 121, 0
8, 128, Control_c, 7, 100, 0
8, 128, Control_c, 7, 101, 0
8, 128, Control_c, 7, 6, 2
8, 128, Control_c, 7, 38, 0
8, 48000, Pitch_bend_c, 7, 7892
8, 48240, Note_on_c, 7, 65, 94
8, 48288, Note_on_c, 7, 69, 101
8, 48320, Note_off_c, 7, 65, 0
8, 48336, Note_on_c, 7, 72, 78
8, 48356, Note_off_c, 7, 69, 0
8, 48372, Note_off_c, 7, 72, 0
8, 48384, Note_on_c, 7, 77, 117
8, 48628, Note_off_c, 7, 77, 0
8, 48672, Note_on_c, 7, 76, 119
8, 48912, Note_off_c, 7, 76, 0
8, 48960, Note_on_c, 7, 74, 119
8, 49028, Note_off_c, 7, 74, 0
8, 49056, Note_on_c, 7, 72, 115
8, 49120, Note_off_c, 7, 72, 0
8, 49152, Note_on_c, 7, 74, 119
8, 49220, Note_off_c, 7, 74, 0
8, 49248, Note_on_c, 7, 76, 119
8, 49328, Note_off_c, 7, 76, 0
8, 49344, Note_on_c, 7, 74, 119
8, 49952, Control_c, 7, 1, 10
8, 49992, Control_c, 7, 1, 30
8, 50032, Control_c, 7, 1, 40
8, 50112, Control_c, 7, 1, 50
8, 50160, Control_c, 7, 1, 60
8, 50220, Control_c, 7, 1, 100
8, 50304, Control_c, 7, 1, 127
8, 51088, Note_off_c, 7, 74, 0
8, 51248, Control_c, 7, 1, 0
8, 51312, Note_on_c, 7, 65, 99
8, 51360, Note_on_c, 7, 69, 105
8, 51392, Note_off_c, 7, 65, 0
8, 51408, Note_on_c, 7, 72, 99
8, 51416, Note_off_c, 7, 69, 0
8, 51456, Note_off_c, 7, 72, 0
8, 51456, Note_on_c, 7, 77, 117
8, 51668, Note_off_c, 7, 77, 0
8, 51744, Note_on_c, 7, 76, 115
8, 51964, Note_off_c, 7, 76, 0
8, 52032, Note_on_c, 7, 74, 119
8, 52092, Note_off_c, 7, 74, 0
8, 52128, Note_on_c, 7, 72, 115
8, 52196, Note_off_c, 7, 72, 0
8, 52224, Note_on_c, 7, 69, 112
8, 52416, Pitch_bend_c, 7, 6912
8, 52476, Pitch_bend_c, 7, 6144
8, 52500, Pitch_bend_c, 7, 6528
8, 52508, Pitch_bend_c, 7, 5632
8, 52540, Pitch_bend_c, 7, 5632
8, 52572, Pitch_bend_c, 7, 7168
8, 52604, Pitch_bend_c, 7, 7936
8, 52620, Control_c, 7, 1, 20
8, 52652, Control_c, 7, 1, 50
8, 52684, Control_c, 7, 1, 40
8, 52716, Control_c, 7, 1, 60
8, 52764, Control_c, 7, 1, 70
8, 52816, Control_c, 7, 1, 80
8, 52880, Control_c, 7, 1, 100
8, 52952, Control_c, 7, 1, 127
8, 53952, Note_off_c, 7, 69, 0
8, 54304, Control_c, 7, 1, 0
8, 54336, Note_on_c, 7, 69, 112
8, 54420, Note_off_c, 7, 69, 0
8, 54528, Note_on_c, 7, 77, 112
8, 54732, Note_off_c, 7, 77, 0
8, 54816, Note_on_c, 7, 76, 115
8, 55104, Note_on_c, 7, 74, 119
8, 55120, Note_off_c, 7, 76, 0
8, 55152, Note_off_c, 7, 74, 0
8, 55200, Note_on_c, 7, 72, 119
8, 55244, Note_off_c, 7, 72, 0
8, 55296, Note_on_c, 7, 72, 115
8, 55768, Note_off_c, 7, 72, 0
8, 55872, Note_on_c, 7, 72, 119
8, 55960, Note_off_c, 7, 72, 0
8, 56064, Note_on_c, 7, 72, 115
8, 56484, Note_off_c, 7, 72, 0
8, 56640, Note_on_c, 7, 72, 115
8, 56768, Note_off_c, 7, 72, 0
8, 56832, Note_on_c, 7, 69, 115
8, 57296, Note_off_c, 7, 69, 0
8, 57408, Note_on_c, 7, 69, 115
8, 57516, Note_off_c, 7, 69, 0
8, 57600, Note_on_c, 7, 77, 115
8, 57808, Note_off_c, 7, 77, 0
8, 57888, Note_on_c, 7, 76, 119
8, 58176, Note_on_c, 7, 74, 115
8, 58180, Note_off_c, 7, 76, 0
8, 58248, Note_off_c, 7, 74, 0
8, 58272, Note_on_c, 7, 72, 115
8, 58348, Note_off_c, 7, 72, 0
8, 58368, Note_on_c, 7, 77, 110
8, 58464, Note_on_c, 7, 76, 93
8, 58472, Note_off_c, 7, 77, 0
8, 58544, Note_off_c, 7, 76, 0
8, 58560, Note_on_c, 7, 74, 112
8, 58924, Note_off_c, 7, 74, 0
8, 58944, Note_on_c, 7, 72, 112
8, 59132, Note_off_c, 7, 72, 0
8, 59136, Note_on_c, 7, 77, 112
8, 59228, Note_off_c, 7, 77, 0
8, 59232, Note_on_c, 7, 76, 117
8, 59324, Note_off_c, 7, 76, 0
8, 59328, Note_on_c, 7, 74, 107
8, 59684, Note_off_c, 7, 74, 0
8, 59712, Note_on_c, 7, 72, 115
8, 59904, Note_off_c, 7, 72, 0
8, 59904, Note_on_c, 7, 77, 115
8, 60152, Note_off_c, 7, 77, 0
8, 60160, Note_on_c, 7, 76, 119
8, 60404, Note_off_c, 7, 76, 0
8, 60416, Note_on_c, 7, 74, 119
8, 60604, Note_off_c, 7, 74, 0
8, 60672, Note_on_c, 7, 72, 119
8, 60920, Note_off_c, 7, 72, 0
8, 60928, Note_on_c, 7, 69, 112
8, 61168, Note_off_c, 7, 69, 0
8, 61184, Note_on_c, 7, 67, 125
8, 61432, Note_off_c, 7, 67, 0
8, 109440, Control_c, 7, 1, 0
8, 109680, Note_on_c, 7, 65, 94
8, 109728, Note_on_c, 7, 69, 101
8, 109760, Note_off_c, 7, 65, 0
8, 109776, Note_on_c, 7, 72, 78
8, 109796, Note_off_c, 7, 69, 0
8, 109812, Note_off_c, 7, 72, 0
8, 109824, Note_on_c, 7, 77, 117
8, 110068, Note_off_c, 7, 77, 0
8, 110112, Note_on_c, 7, 76, 119
8, 110352, Note_off_c, 7, 76, 0
8, 110400, Note_on_c, 7, 74, 119
8, 110468, Note_off_c, 7, 74, 0
8, 110496, Note_on_c, 7, 72, 115
8, 110560, Note_off_c, 7, 72, 0
8, 110592, Note_on_c, 7, 74, 119
8, 110660, Note_off_c, 7, 74, 0
8, 110688, Note_on_c, 7, 76, 119
8, 110768, Note_off_c, 7, 76, 0
8, 110784, Note_on_c, 7, 74, 119
8, 111392, Control_c, 7, 1, 20
8, 111432, Control_c, 7, 1, 50
8, 111472, Control_c, 7, 1, 70
8, 111552, Control_c, 7, 1, 80
8, 111600, Control_c, 7, 1, 90
8, 111660, Control_c, 7, 1, 100
8, 111744, Control_c, 7, 1, 127
8, 112528, Note_off_c, 7, 74, 0
8, 112688, Control_c, 7, 1, 0
8, 112752, Note_on_c, 7, 65, 99
8, 112800, Note_on_c, 7, 69, 105
8, 112832, Note_off_c, 7, 65, 0
8, 112848, Note_on_c, 7, 72, 99
8, 112856, Note_off_c, 7, 69, 0
8, 112896, Note_off_c, 7, 72, 0
8, 112896, Note_on_c, 7, 77, 117
8, 113108, Note_off_c, 7, 77, 0
8, 113184, Note_on_c, 7, 76, 115
8, 113404, Note_off_c, 7, 76, 0
8, 113472, Note_on_c, 7, 74, 119
8, 113532, Note_off_c, 7, 74, 0
8, 113568, Note_on_c, 7, 72, 115
8, 113636, Note_off_c, 7, 72, 0
8, 113664, Note_on_c, 7, 69, 112
8, 113964, Pitch_bend_c, 7, 6912
8, 113996, Pitch_bend_c, 7, 5504
8, 114048, Pitch_bend_c, 7, 5248
8, 114060, Control_c, 7, 1, 20
8, 114092, Control_c, 7, 1, 30
8, 114096, Pitch_bend_c, 7, 6400
8, 114124, Control_c, 7, 1, 40
8, 114156, Control_c, 7, 1, 50
8, 114204, Control_c, 7, 1, 70
8, 114212, Pitch_bend_c, 7, 6912
8, 114256, Control_c, 7, 1, 90
8, 114296, Pitch_bend_c, 7, 8576
8, 114320, Control_c, 7, 1, 100
8, 114392, Control_c, 7, 1, 127
8, 115392, Note_off_c, 7, 69, 0
8, 115744, Control_c, 7, 1, 0
8, 115776, Note_on_c, 7, 69, 112
8, 115860, Note_off_c, 7, 69, 0
8, 115968, Note_on_c, 7, 77, 112
8, 116172, Note_off_c, 7, 77, 0
8, 116256, Note_on_c, 7, 76, 115
8, 116544, Note_on_c, 7, 74, 119
8, 116560, Note_off_c, 7, 76, 0
8, 116592, Note_off_c, 7, 74, 0
8, 116640, Note_on_c, 7, 72, 119
8, 116684, Note_off_c, 7, 72, 0
8, 116736, Note_on_c, 7, 72, 115
8, 117208, Note_off_c, 7, 72, 0
8, 117312, Note_on_c, 7, 72, 119
8, 117400, Note_off_c, 7, 72, 0
8, 117504, Note_on_c, 7, 72, 115
8, 117924, Note_off_c, 7, 72, 0
8, 118080, Note_on_c, 7, 72, 115
8, 118208, Note_off_c, 7, 72, 0
8, 118272, Note_on_c, 7, 69, 115
8, 118736, Note_off_c, 7, 69, 0
8, 118848, Note_on_c, 7, 69, 115
8, 118956, Note_off_c, 7, 69, 0
8, 119040, Note_on_c, 7, 77, 115
8, 119248, Note_off_c, 7, 77, 0
8, 119328, Note_on_c, 7, 76, 119
8, 119616, Note_on_c, 7, 74, 115
8, 119620, Note_off_c, 7, 76, 0
8, 119688, Note_off_c, 7, 74, 0
8, 119712, Note_on_c, 7, 72, 115
8, 119788, Note_off_c, 7, 72, 0
8, 119808, Note_on_c, 7, 77, 110
8, 119904, Note_on_c, 7, 76, 93
8, 119912, Note_off_c, 7, 77, 0
8, 119984, Note_off_c, 7, 76, 0
8, 120000, Note_on_c, 7, 74, 112
8, 120364, Note_off_c, 7, 74, 0
8, 120384, Note_on_c, 7, 72, 112
8, 120572, Note_off_c, 7, 72, 0
8, 120576, Note_on_c, 7, 77, 112
8, 120668, Note_off_c, 7, 77, 0
8, 120672, Note_on_c, 7, 76, 117
8, 120764, Note_off_c, 7, 76, 0
8, 120768, Note_on_c, 7, 74, 107
8, 121124, Note_off_c, 7, 74, 0
8, 121152, Note_on_c, 7, 72, 115
8, 121504, Note_off_c, 7, 72, 0
8, 121728, Control_c, 7, 1, 0
8, 121968, Note_on_c, 7, 65, 94
8, 122016, Note_on_c, 7, 69, 101
8, 122048, Note_off_c, 7, 65, 0
8, 122064, Note_on_c, 7, 72, 78
8, 122084, Note_off_c, 7, 69, 0
8, 122100, Note_off_c, 7, 72, 0
8, 122112, Note_on_c, 7, 77, 117
8, 122356, Note_off_c, 7, 77, 0
8, 122400, Note_on_c, 7, 76, 119
8, 122640, Note_off_c, 7, 76, 0
8, 122688, Note_on_c, 7, 74, 119
8, 122756, Note_off_c, 7, 74, 0
8, 122784, Note_on_c, 7, 72, 115
8, 122848, Note_off_c, 7, 72, 0
8, 122880, Note_on_c, 7, 74, 119
8, 122948, Note_off_c, 7, 74, 0
8, 122976, Note_on_c, 7, 76, 119
8, 123056, Note_off_c, 7, 76, 0
8, 123072, Note_on_c, 7, 74, 119
8, 123680, Control_c, 7, 1, 30
8, 123720, Control_c, 7, 1, 40
8, 123760, Control_c, 7, 1, 60
8, 123840, Control_c, 7, 1, 80
8, 123888, Control_c, 7, 1, 90
8, 123948, Control_c, 7, 1, 100
8, 124032, Control_c, 7, 1, 127
8, 124816, Note_off_c, 7, 74, 0
8, 124976, Control_c, 7, 1, 0
8, 125040, Note_on_c, 7, 65, 99
8, 125088, Note_on_c, 7, 69, 105
8, 125120, Note_off_c, 7, 65, 0
8, 125136, Note_on_c, 7, 72, 99
8, 125144, Note_off_c, 7, 69, 0
8, 125184, Note_off_c, 7, 72, 0
8, 125184, Note_on_c, 7, 77, 117
8, 125396, Note_off_c, 7, 77, 0
8, 125472, Note_on_c, 7, 76, 115
8, 125692, Note_off_c, 7, 76, 0
8, 125760, Note_on_c, 7, 74, 119
8, 125820, Note_off_c, 7, 74, 0
8, 125856, Note_on_c, 7, 72, 115
8, 125924, Note_off_c, 7, 72, 0
8, 125952, Note_on_c, 7, 69, 112
8, 126104, Pitch_bend_c, 7, 7168
8, 126188, Pitch_bend_c, 7, 6144
8, 126284, Pitch_bend_c, 7, 6400
8, 126348, Control_c, 7, 1, 20
8, 126352, Pitch_bend_c, 7, 7296
8, 126380, Control_c, 7, 1, 40
8, 126412, Control_c, 7, 1, 50
8, 126444, Control_c, 7, 1, 60
8, 126488, Pitch_bend_c, 7, 7808
8, 126492, Control_c, 7, 1, 80
8, 126544, Control_c, 7, 1, 90
8, 126572, Pitch_bend_c, 7, 8704
8, 126608, Control_c, 7, 1, 100
8, 126680, Control_c, 7, 1, 110
8, 127680, Note_off_c, 7, 69, 0
8, 128032, Control_c, 7, 1, 0
8, 128064, Note_on_c, 7, 69, 112
8, 128148, Note_off_c, 7, 69, 0
8, 128256, Note_on_c, 7, 77, 112
8, 128460, Note_off_c, 7, 77, 0
8, 128544, Note_on_c, 7, 76, 115
8, 128832, Note_on_c, 7, 74, 119
8, 128848, Note_off_c, 7, 76, 0
8, 128880, Note_off_c, 7, 74, 0
8, 128928, Note_on_c, 7, 72, 119
8, 128972, Note_off_c, 7, 72, 0
8, 129024, Note_on_c, 7, 72, 115
8, 129496, Note_off_c, 7, 72, 0
8, 129600, Note_on_c, 7, 72, 119
8, 129688, Note_off_c, 7, 72, 0
8, 129792, Note_on_c, 7, 72, 115
8, 130212, Note_off_c, 7, 72, 0
8, 130368, Note_on_c, 7, 72, 115
8, 130496, Note_off_c, 7, 72, 0
8, 130560, Note_on_c, 7, 69, 115
8, 131024, Note_off_c, 7, 69, 0
8, 131136, Note_on_c, 7, 69, 115
8, 131244, Note_off_c, 7, 69, 0
8, 131328, Note_on_c, 7, 77, 115
8, 131536, Note_off_c, 7, 77, 0
8, 131616, Note_on_c, 7, 76, 119
8, 131904, Note_on_c, 7, 74, 115
8, 131908, Note_off_c, 7, 76, 0
8, 131976, Note_off_c, 7, 74, 0
8, 132000, Note_on_c, 7, 72, 115
8, 132076, Note_off_c, 7, 72, 0
8, 132096, Note_on_c, 7, 77, 110
8, 132192, Note_on_c, 7, 76, 93
8, 132200, Note_off_c, 7, 77, 0
8, 132272, Note_off_c, 7, 76, 0
8, 132288, Note_on_c, 7, 74, 112
8, 132652, Note_off_c, 7, 74, 0
8, 132672, Note_on_c, 7, 72, 112
8, 132860, Note_off_c, 7, 72, 0
8, 132864, Note_on_c, 7, 77, 112
8, 132956, Note_off_c, 7, 77, 0
8, 132960, Note_on_c, 7, 76, 117
8, 133052, Note_off_c, 7, 76, 0
8, 133056, Note_on_c, 7, 74, 107
8, 133412, Note_off_c, 7, 74, 0
8, 133440, Note_on_c, 7, 72, 115
8, 133792, Note_off_c, 7, 72, 0
8, 134016, Control_c, 7, 1, 0
8, 134256, Note_on_c, 7, 65, 94
8, 134304, Note_on_c, 7, 69, 101
8, 134336, Note_off_c, 7, 65, 0
8, 134352, Note_on_c, 7, 72, 78
8, 134372, Note_off_c, 7, 69, 0
8, 134388, Note_off_c, 7, 72, 0
8, 134400, Note_on_c, 7, 77, 117
8, 134644, Note_off_c, 7, 77, 0
8, 134688, Note_on_c, 7, 76, 119
8, 134928, Note_off_c, 7, 76, 0
8, 134976, Note_on_c, 7, 74, 119
8, 135044, Note_off_c, 7, 74, 0
8, 135072, Note_on_c, 7, 72, 115
8, 135136, Note_off_c, 7, 72, 0
8, 135168, Note_on_c, 7, 74, 119
8, 135168, Control_c, 7, 7, 95
8, 135236, Note_off_c, 7, 74, 0
8, 135264, Note_on_c, 7, 76, 119
8, 135280, Control_c, 7, 7, 94
8, 135344, Note_off_c, 7, 76, 0
8, 135360, Note_on_c, 7, 74, 119
8, 135392, Control_c, 7, 7, 93
8, 135504, Control_c, 7, 7, 92
8, 135616, Control_c, 7, 7, 91
8, 135728, Control_c, 7, 7, 90
8, 135844, Control_c, 7, 7, 89
8, 135956, Control_c, 7, 7, 88
8, 136068, Control_c, 7, 7, 87
8, 136184, Control_c, 7, 7, 86
8, 136296, Control_c, 7, 7, 85
8, 136408, Control_c, 7, 7, 84
8, 136524, Control_c, 7, 7, 83
8, 136636, Control_c, 7, 7, 82
8, 136752, Control_c, 7, 7, 81
8, 136864, Control_c, 7, 7, 80
8, 136976, Control_c, 7, 7, 79
8, 137088, Control_c, 7, 7, 78
8, 137104, Note_off_c, 7, 74, 0
8, 137200, Control_c, 7, 7, 77
8, 137312, Control_c, 7, 7, 76
8, 137328, Note_on_c, 7, 65, 99
8, 137376, Note_on_c, 7, 69, 105
8, 137408, Note_off_c, 7, 65, 0
8, 137424, Note_on_c, 7, 72, 99
8, 137428, Control_c, 7, 7, 75
8, 137432, Note_off_c, 7, 69, 0
8, 137472, Note_off_c, 7, 72, 0
8, 137472, Note_on_c, 7, 77, 117
8, 137540, Control_c, 7, 7, 74
8, 137652, Control_c, 7, 7, 73
8, 137684, Note_off_c, 7, 77, 0
8, 137760, Note_on_c, 7, 76, 115
8, 137768, Control_c, 7, 7, 72
8, 137880, Control_c, 7, 7, 71
8, 137980, Note_off_c, 7, 76, 0
8, 137992, Control_c, 7, 7, 70
8, 138048, Note_on_c, 7, 74, 119
8, 138108, Note_off_c, 7, 74, 0
8, 138108, Control_c, 7, 7, 69
8, 138144, Note_on_c, 7, 72, 115
8, 138212, Note_off_c, 7, 72, 0
8, 138220, Control_c, 7, 7, 68
8, 138240, Note_on_c, 7, 69, 112
8, 138336, Control_c, 7, 7, 67
8, 138448, Control_c, 7, 7, 66
8, 138560, Control_c, 7, 7, 65
8, 138672, Control_c, 7, 7, 64
8, 138784, Control_c, 7, 7, 63
8, 138896, Control_c, 7, 7, 62
8, 139012, Control_c, 7, 7, 61
8, 139124, Control_c, 7, 7, 60
8, 139236, Control_c, 7, 7, 59
8, 139352, Control_c, 7, 7, 58
8, 139464, Control_c, 7, 7, 57
8, 139576, Control_c, 7, 7, 56
8, 139692, Control_c, 7, 7, 55
8, 139804, Control_c, 7, 7, 54
8, 139920, Control_c, 7, 7, 53
8, 139968, Note_off_c, 7, 69, 0
8, 140032, Control_c, 7, 7, 52
8, 140144, Control_c, 7, 7, 51
8, 140256, Control_c, 7, 7, 50
8, 140352, Note_on_c, 7, 69, 112
8, 140368, Control_c, 7, 7, 49
8, 140436, Note_off_c, 7, 69, 0
8, 140480, Control_c, 7, 7, 48
8, 140544, Note_on_c, 7, 77, 112
8, 140596, Control_c, 7, 7, 47
8, 140708, Control_c, 7, 7, 46
8, 140748, Note_off_c, 7, 77, 0
8, 140820, Control_c, 7, 7, 45
8, 140832, Note_on_c, 7, 76, 115
8, 140936, Control_c, 7, 7, 44
8, 141048, Control_c, 7, 7, 43
8, 141120, Note_on_c, 7, 74, 119
8, 141136, Note_off_c, 7, 76, 0
8, 141160, Control_c, 7, 7, 42
8, 141168, Note_off_c, 7, 74, 0
8, 141216, Note_on_c, 7, 72, 119
8, 141260, Note_off_c, 7, 72, 0
8, 141276, Control_c, 7, 7, 41
8, 141312, Note_on_c, 7, 72, 115
8, 141388, Control_c, 7, 7, 40
8, 141504, Control_c, 7, 7, 39
8, 141616, Control_c, 7, 7, 38
8, 141728, Control_c, 7, 7, 37
8, 141784, Note_off_c, 7, 72, 0
8, 141840, Control_c, 7, 7, 36
8, 141888, Note_on_c, 7, 72, 119
8, 141952, Control_c, 7, 7, 35
8, 141976, Note_off_c, 7, 72, 0
8, 142064, Control_c, 7, 7, 34
8, 142080, Note_on_c, 7, 72, 115
8, 142180, Control_c, 7, 7, 33
8, 142292, Control_c, 7, 7, 32
8, 142404, Control_c, 7, 7, 31
8, 142500, Note_off_c, 7, 72, 0
8, 142520, Control_c, 7, 7, 30
8, 142632, Control_c, 7, 7, 29
8, 142656, Note_on_c, 7, 72, 115
8, 142744, Control_c, 7, 7, 28
8, 142784, Note_off_c, 7, 72, 0
8, 142848, Note_on_c, 7, 69, 115
8, 142860, Control_c, 7, 7, 27
8, 142972, Control_c, 7, 7, 26
8, 143088, Control_c, 7, 7, 25
8, 143200, Control_c, 7, 7, 24
8, 143312, Note_off_c, 7, 69, 0
8, 143312, Control_c, 7, 7, 23
8, 143424, Note_on_c, 7, 69, 115
8, 143424, Control_c, 7, 7, 22
8, 143532, Note_off_c, 7, 69, 0
8, 143536, Control_c, 7, 7, 21
8, 143616, Note_on_c, 7, 77, 115
8, 143648, Control_c, 7, 7, 20
8, 143764, Control_c, 7, 7, 19
8, 143824, Note_off_c, 7, 77, 0
8, 143876, Control_c, 7, 7, 18
8, 143904, Note_on_c, 7, 76, 119
8, 143988, Control_c, 7, 7, 17
8, 144104, Control_c, 7, 7, 16
8, 144192, Note_on_c, 7, 74, 115
8, 144196, Note_off_c, 7, 76, 0
8, 144216, Control_c, 7, 7, 15
8, 144264, Note_off_c, 7, 74, 0
8, 144288, Note_on_c, 7, 72, 115
8, 144328, Control_c, 7, 7, 14
8, 144364, Note_off_c, 7, 72, 0
8, 144384, Note_on_c, 7, 77, 110
8, 144444, Control_c, 7, 7, 13
8, 144480, Note_on_c, 7, 76, 93
8, 144488, Note_off_c, 7, 77, 0
8, 144556, Control_c, 7, 7, 12
8, 144560, Note_off_c, 7, 76, 0
8, 144576, Note_on_c, 7, 74, 112
8, 144672, Control_c, 7, 7, 11
8, 144784, Control_c, 7, 7, 10
8, 144896, Control_c, 7, 7, 9
8, 144940, Note_off_c, 7, 74, 0
8, 144960, Note_on_c, 7, 72, 112
8, 145008, Control_c, 7, 7, 8
8, 145120, Control_c, 7, 7, 7
8, 145148, Note_off_c, 7, 72, 0
8, 145152, Note_on_c, 7, 77, 112
8, 145232, Control_c, 7, 7, 6
8, 145244, Note_off_c, 7, 77, 0
8, 145248, Note_on_c, 7, 76, 117
8, 145340, Note_off_c, 7, 76, 0
8, 145344, Note_on_c, 7, 74, 107
8, 145348, Control_c, 7, 7, 5
8, 145460, Control_c, 7, 7, 4
8, 145572, Control_c, 7, 7, 3
8, 145688, Control_c, 7, 7, 2
8, 145700, Note_off_c, 7, 74, 0
8, 145728, Note_on_c, 7, 72, 115
8, 145800, Control_c, 7, 7, 1
8, 145916, Control_c, 7, 7, 0
8, 146080, Note_off_c, 7, 72, 0
8, 146080, End_track
9, 0, Start_track
9, 0, Title_t, "Tenor Sax"
9, 0, Control_c, 8, 0, 0
9, 0, Program_c, 8, 66
9, 0, Control_c, 8, 10, 20
9, 0, Control_c, 8, 91, 80
9, 0, Key_signature, 0, "major"
9, 0, Control_c, 8, 7, 100
9, 0, Control_c, 8, 121, 0
9, 128, Control_c, 8, 100, 0
9, 128, Control_c, 8, 101, 0
9, 128, Control_c, 8, 6, 2
9, 128, Control_c, 8, 38, 0
9, 48000, Pitch_bend_c, 8, 8492
9, 48240, Note_on_c, 8, 65, 94
9, 48288, Note_on_c, 8, 69, 101
9, 48320, Note_off_c, 8, 65, 0
9, 48336, Note_on_c, 8, 72, 78
9, 48356, Note_off_c, 8, 69, 0
9, 48372, Note_off_c, 8, 72, 0
9, 48384, Note_on_c, 8, 77, 117
9, 48628, Note_off_c, 8, 77, 0
9, 48672, Note_on_c, 8, 76, 119
9, 48912, Note_off_c, 8, 76, 0
9, 48960, Note_on_c, 8, 74, 119
9, 49028, Note_off_c, 8, 74, 0
9, 49056, Note_on_c, 8, 72, 115
9, 49120, Note_off_c, 8, 72, 0
9, 49152, Note_on_c, 8, 74, 119
9, 49220, Note_off_c, 8, 74, 0
9, 49248, Note_on_c, 8, 76, 119
9, 49328, Note_off_c, 8, 76, 0
9, 49344, Note_on_c, 8, 74, 119
9, 49952, Control_c, 8, 1, 10
9, 49992, Control_c, 8, 1, 30
9, 50032, Control_c, 8, 1, 40
9, 50112, Control_c, 8, 1, 50
9, 50160, Control_c, 8, 1, 60
9, 50220, Control_c, 8, 1, 100
9, 50304, Control_c, 8, 1, 127
9, 51088, Note_off_c, 8, 74, 0
9, 51248, Control_c, 8, 1, 0
9, 51312, Note_on_c, 8, 65, 99
9, 51360, Note_on_c, 8, 69, 105
9, 51392, Note_off_c, 8, 65, 0
9, 51408, Note_on_c, 8, 72, 99
9, 51416, Note_off_c, 8, 69, 0
9, 51456, Note_off_c, 8, 72, 0
9, 51456, Note_on_c, 8, 77, 117
9, 51668, Note_off_c, 8, 77, 0
9, 51744, Note_on_c, 8, 76, 115
9, 51964, Note_off_c, 8, 76, 0
9, 52032, Note_on_c, 8, 74, 119
9, 52092, Note_off_c, 8, 74, 0
9, 52128, Note_on_c, 8, 72, 115
9, 52196, Note_off_c, 8, 72, 0
9, 52224, Note_on_c, 8, 69, 112
9, 52412, Pitch_bend_c, 8, 7936
9, 52464, Pitch_bend_c, 8, 6784
9, 52500, Pitch_bend_c, 8, 5760
9, 52572, Pitch_bend_c, 8, 6016
9, 52604, Pitch_bend_c, 8, 7296
9, 52620, Control_c, 8, 1, 20
9, 52652, Control_c, 8, 1, 50
9, 52656, Pitch_bend_c, 8, 8192
9, 52684, Control_c, 8, 1, 40
9, 52692, Pitch_bend_c, 8, 8576
9, 52716, Control_c, 8, 1, 60
9, 52764, Control_c, 8, 1, 70
9, 52816, Control_c, 8, 1, 80
9, 52880, Control_c, 8, 1, 100
9, 52952, Control_c, 8, 1, 127
9, 53952, Note_off_c, 8, 69, 0
9, 54304, Control_c, 8, 1, 0
9, 54336, Note_on_c, 8, 69, 112
9, 54420, Note_off_c, 8, 69, 0
9, 54528, Note_on_c, 8, 77, 112
9, 54732, Note_off_c, 8, 77, 0
9, 54816, Note_on_c, 8, 76, 115
9, 55104, Note_on_c, 8, 74, 119
9, 55120, Note_off_c, 8, 76, 0
9, 55152, Note_off_c, 8, 74, 0
9, 55200, Note_on_c, 8, 72, 119
9, 55244, Note_off_c, 8, 72, 0
9, 55296, Note_on_c, 8, 72, 115
9, 55768, Note_off_c, 8, 72, 0
9, 55872, Note_on_c, 8, 72, 119
9, 55960, Note_off_c, 8, 72, 0
9, 56064, Note_on_c, 8, 72, 115
9, 56484, Note_off_c, 8, 72, 0
9, 56640, Note_on_c, 8, 72, 115
9, 56768, Note_off_c, 8, 72, 0
9, 56832, Note_on_c, 8, 69, 115
9, 57296, Note_off_c, 8, 69, 0
9, 57408, Note_on_c, 8, 69, 115
9, 57516, Note_off_c, 8, 69, 0
9, 57600, Note_on_c, 8, 77, 115
9, 57808, Note_off_c, 8, 77, 0
9, 57888, Note_on_c, 8, 76, 119
9, 58176, Note_on_c, 8, 74, 115
9, 58180, Note_off_c, 8, 76, 0
9, 58248, Note_off_c, 8, 74, 0
9, 58272, Note_on_c, 8, 72, 115
9, 58348, Note_off_c, 8, 72, 0
9, 58368, Note_on_c, 8, 77, 110
9, 58464, Note_on_c, 8, 76, 93
9, 58472, Note_off_c, 8, 77, 0
9, 58544, Note_off_c, 8, 76, 0
9, 58560, Note_on_c, 8, 74, 112
9, 58924, Note_off_c, 8, 74, 0
9, 58944, Note_on_c, 8, 72, 112
9, 59132, Note_off_c, 8, 72, 0
9, 59136, Note_on_c, 8, 77, 112
9, 59228, Note_off_c, 8, 77, 0
9, 59232, Note_on_c, 8, 76, 117
9, 59324, Note_off_c, 8, 76, 0
9, 59328, Note_on_c, 8, 74, 107
9, 59684, Note_off_c, 8, 74, 0
9, 59712, Note_on_c, 8, 72, 115
9, 59904, Note_off_c, 8, 72, 0
9, 59904, Note_on_c, 8, 77, 115
9, 60152, Note_off_c, 8, 77, 0
9, 60160, Note_on_c, 8, 76, 119
9, 60404, Note_off_c, 8, 76, 0
9, 60416, Note_on_c, 8, 74, 119
9, 60604, Note_off_c, 8, 74, 0
9, 60672, Note_on_c, 8, 72, 119
9, 60920, Note_off_c, 8, 72, 0
9, 60928, Note_on_c, 8, 69, 112
9, 61168, Note_off_c, 8, 69, 0
9, 61184, Note_on_c, 8, 67, 125
9, 61432, Note_off_c, 8, 67, 0
9, 109440, Control_c, 8, 1, 0
9, 109680, Note_on_c, 8, 65, 94
9, 109728, Note_on_c, 8, 69, 101
9, 109760, Note_off_c, 8, 65, 0
9, 109776, Note_on_c, 8, 72, 78
9, 109796, Note_off_c, 8, 69, 0
9, 109812, Note_off_c, 8, 72, 0
9, 109824, Note_on_c, 8, 77, 117
9, 110068, Note_off_c, 8, 77, 0
9, 110112, Note_on_c, 8, 76, 119
9, 110352, Note_off_c, 8, 76, 0
9, 110400, Note_on_c, 8, 74, 119
9, 110468, Note_off_c, 8, 74, 0
9, 110496, Note_on_c, 8, 72, 115
9, 110560, Note_off_c, 8, 72, 0
9, 110592, Note_on_c, 8, 74, 119
9, 110660, Note_off_c, 8, 74, 0
9, 110688, Note_on_c, 8, 76, 119
9, 110768, Note_off_c, 8, 76, 0
9, 110784, Note_on_c, 8, 74, 119
9, 111392, Control_c, 8, 1, 20
9, 111432, Control_c, 8, 1, 50
9, 111472, Control_c, 8, 1, 70
9, 111552, Control_c, 8, 1, 80
9, 111600, Control_c, 8, 1, 90
9, 111660, Control_c, 8, 1, 100
9, 111744, Control_c, 8, 1, 127
9, 112528, Note_off_c, 8, 74, 0
9, 112688, Control_c, 8, 1, 0
9, 112752, Note_on_c, 8, 65, 99
9, 112800, Note_on_c, 8, 69, 105
9, 112832, Note_off_c, 8, 65, 0
9, 112848, Note_on_c, 8, 72, 99
9, 112856, Note_off_c, 8, 69, 0
9, 112896, Note_off_c, 8, 72, 0
9, 112896, Note_on_c, 8, 77, 117
9, 113108, Note_off_c, 8, 77, 0
9, 113184, Note_on_c, 8, 76, 115
9, 113404, Note_off_c, 8, 76, 0
9, 113472, Note_on_c, 8, 74, 119
9, 113532, Note_off_c, 8, 74, 0
9, 113568, Note_on_c, 8, 72, 115
9, 113636, Note_off_c, 8, 72, 0
9, 113664, Note_on_c, 8, 69, 112
9, 113944, Pitch_bend_c, 8, 7168
9, 113988, Pitch_bend_c, 8, 5504
9, 114052, Pitch_bend_c, 8, 6016
9, 114060, Control_c, 8, 1, 20
9, 114080, Pitch_bend_c, 8, 6528
9, 114092, Control_c, 8, 1, 30
9, 114124, Control_c, 8, 1, 40
9, 114156, Control_c, 8, 1, 50
9, 114176, Pitch_bend_c, 8, 7552
9, 114204, Control_c, 8, 1, 70
9, 114256, Control_c, 8, 1, 90
9, 114256, Pitch_bend_c, 8, 7296
9, 114320, Control_c, 8, 1, 100
9, 114320, Pitch_bend_c, 8, 7936
9, 114392, Control_c, 8, 1, 127
9, 115392, Note_off_c, 8, 69, 0
9, 115744, Control_c, 8, 1, 0
9, 115776, Note_on_c, 8, 69, 112
9, 115860, Note_off_c, 8, 69, 0
9, 115968, Note_on_c, 8, 77, 112
9, 116172, Note_off_c, 8, 77, 0
9, 116256, Note_on_c, 8, 76, 115
9, 116544, Note_on_c, 8, 74, 119
9, 116560, Note_off_c, 8, 76, 0
9, 116592, Note_off_c, 8, 74, 0
9, 116640, Note_on_c, 8, 72, 119
9, 116684, Note_off_c, 8, 72, 0
9, 116736, Note_on_c, 8, 72, 115
9, 117208, Note_off_c, 8, 72, 0
9, 117312, Note_on_c, 8, 72, 119
9, 117400, Note_off_c, 8, 72, 0
9, 117504, Note_on_c, 8, 72, 115
9, 117924, Note_off_c, 8, 72, 0
9, 118080, Note_on_c, 8, 72, 115
9, 118208, Note_off_c, 8, 72, 0
9, 118272, Note_on_c, 8, 69, 115
9, 118736, Note_off_c, 8, 69, 0
9, 118848, Note_on_c, 8, 69, 115
9, 118956, Note_off_c, 8, 69, 0
9, 119040, Note_on_c, 8, 77, 115
9, 119248, Note_off_c, 8, 77, 0
9, 119328, Note_on_c, 8, 76, 119
9, 119616, Note_on_c, 8, 74, 115
9, 119620, Note_off_c, 8, 76, 0
9, 119688, Note_off_c, 8, 74, 0
9, 119712, Note_on_c, 8, 72, 115
9, 119788, Note_off_c, 8, 72, 0
9, 119808, Note_on_c, 8, 77, 110
9, 119904, Note_on_c, 8, 76, 93
9, 119912, Note_off_c, 8, 77, 0
9, 119984, Note_off_c, 8, 76, 0
9, 120000, Note_on_c, 8, 74, 112
9, 120364, Note_off_c, 8, 74, 0
9, 120384, Note_on_c, 8, 72, 112
9, 120572, Note_off_c, 8, 72, 0
9, 120576, Note_on_c, 8, 77, 112
9, 120668, Note_off_c, 8, 77, 0
9, 120672, Note_on_c, 8, 76, 117
9, 120764, Note_off_c, 8, 76, 0
9, 120768, Note_on_c, 8, 74, 107
9, 121124, Note_off_c, 8, 74, 0
9, 121152, Note_on_c, 8, 72, 115
9, 121504, Note_off_c, 8, 72, 0
9, 121728, Control_c, 8, 1, 0
9, 121968, Note_on_c, 8, 65, 94
9, 122016, Note_on_c, 8, 69, 101
9, 122048, Note_off_c, 8, 65, 0
9, 122064, Note_on_c, 8, 72, 78
9, 122084, Note_off_c, 8, 69, 0
9, 122100, Note_off_c, 8, 72, 0
9, 122112, Note_on_c, 8, 77, 117
9, 122356, Note_off_c, 8, 77, 0
9, 122400, Note_on_c, 8, 76, 119
9, 122640, Note_off_c, 8, 76, 0
9, 122688, Note_on_c, 8, 74, 119
9, 122756, Note_off_c, 8, 74, 0
9, 122784, Note_on_c, 8, 72, 115
9, 122848, Note_off_c, 8, 72, 0
9, 122880, Note_on_c, 8, 74, 119
9, 122948, Note_off_c, 8, 74, 0
9, 122976, Note_on_c, 8, 76, 119
9, 123056, Note_off_c, 8, 76, 0
9, 123072, Note_on_c, 8, 74, 119
9, 123680, Control_c, 8, 1, 30
9, 123720, Control_c, 8, 1, 40
9, 123760, Control_c, 8, 1, 60
9, 123840, Control_c, 8, 1, 80
9, 123888, Control_c, 8, 1, 90
9, 123948, Control_c, 8, 1, 100
9, 124032, Control_c, 8, 1, 127
9, 124816, Note_off_c, 8, 74, 0
9, 124976, Control_c, 8, 1, 0
9, 125040, Note_on_c, 8, 65, 99
9, 125088, Note_on_c, 8, 69, 105
9, 125120, Note_off_c, 8, 65, 0
9, 125136, Note_on_c, 8, 72, 99
9, 125144, Note_off_c, 8, 69, 0
9, 125184, Note_off_c, 8, 72, 0
9, 125184, Note_on_c, 8, 77, 117
9, 125396, Note_off_c, 8, 77, 0
9, 125472, Note_on_c, 8, 76, 115
9, 125692, Note_off_c, 8, 76, 0
9, 125760, Note_on_c, 8, 74, 119
9, 125820, Note_off_c, 8, 74, 0
9, 125856, Note_on_c, 8, 72, 115
9, 125924, Note_off_c, 8, 72, 0
9, 125952, Note_on_c, 8, 69, 112
9, 126064, Pitch_bend_c, 8, 6784
9, 126180, Pitch_bend_c, 8, 6016
9, 126272, Pitch_bend_c, 8, 7040
9, 126328, Pitch_bend_c, 8, 7936
9, 126348, Control_c, 8, 1, 20
9, 126380, Control_c, 8, 1, 40
9, 126412, Control_c, 8, 1, 50
9, 126444, Control_c, 8, 1, 60
9, 126492, Control_c, 8, 1, 80
9, 126544, Control_c, 8, 1, 90
9, 126608, Control_c, 8, 1, 100
9, 126680, Control_c, 8, 1, 110
9, 127680, Note_off_c, 8, 69, 0
9, 128032, Control_c, 8, 1, 0
9, 128064, Note_on_c, 8, 69, 112
9, 128148, Note_off_c, 8, 69, 0
9, 128256, Note_on_c, 8, 77, 112
9, 128460, Note_off_c, 8, 77, 0
9, 128544, Note_on_c, 8, 76, 115
9, 128832, Note_on_c, 8, 74, 119
9, 128848, Note_off_c, 8, 76, 0
9, 128880, Note_off_c, 8, 74, 0
9, 128928, Note_on_c, 8, 72, 119
9, 128972, Note_off_c, 8, 72, 0
9, 129024, Note_on_c, 8, 72, 115
9, 129496, Note_off_c, 8, 72, 0
9, 129600, Note_on_c, 8, 72, 119
9, 129688, Note_off_c, 8, 72, 0
9, 129792, Note_on_c, 8, 72, 115
9, 130212, Note_off_c, 8, 72, 0
9, 130368, Note_on_c, 8, 72, 115
9, 130496, Note_off_c, 8, 72, 0
9, 130560, Note_on_c, 8, 69, 115
9, 131024, Note_off_c, 8, 69, 0
9, 131136, Note_on_c, 8, 69, 115
9, 131244, Note_off_c, 8, 69, 0
9, 131328, Note_on_c, 8, 77, 115
9, 131536, Note_off_c, 8, 77, 0
9, 131616, Note_on_c, 8, 76, 119
9, 131904, Note_on_c, 8, 74, 115
9, 131908, Note_off_c, 8, 76, 0
9, 131976, Note_off_c, 8, 74, 0
9, 132000, Note_on_c, 8, 72, 115
9, 132076, Note_off_c, 8, 72, 0
9, 132096, Note_on_c, 8, 77, 110
9, 132192, Note_on_c, 8, 76, 93
9, 132200, Note_off_c, 8, 77, 0
9, 132272, Note_off_c, 8, 76, 0
9, 132288, Note_on_c, 8, 74, 112
9, 132652, Note_off_c, 8, 74, 0
9, 132672, Note_on_c, 8, 72, 112
9, 132860, Note_off_c, 8, 72, 0
9, 132864, Note_on_c, 8, 77, 112
9, 132956, Note_off_c, 8, 77, 0
9, 132960, Note_on_c, 8, 76, 117
9, 133052, Note_off_c, 8, 76, 0
9, 133056, Note_on_c, 8, 74, 107
9, 133412, Note_off_c, 8, 74, 0
9, 133440, Note_on_c, 8, 72, 115
9, 133792, Note_off_c, 8, 72, 0
9, 134000, Control_c, 8, 7, 118
9, 134016, Control_c, 8, 1, 0
9, 134212, Control_c, 8, 7, 113
9, 134256, Note_on_c, 8, 65, 94
9, 134304, Note_on_c, 8, 69, 101
9, 134336, Note_off_c, 8, 65, 0
9, 134352, Note_on_c, 8, 72, 78
9, 134372, Note_off_c, 8, 69, 0
9, 134388, Note_off_c, 8, 72, 0
9, 134400, Note_on_c, 8, 77, 117
9, 134452, Control_c, 8, 7, 111
9, 134624, Control_c, 8, 7, 105
9, 134644, Note_off_c, 8, 77, 0
9, 134688, Note_on_c, 8, 76, 119
9, 134880, Control_c, 8, 7, 102
9, 134884, Control_c, 8, 7, 98
9, 134928, Note_off_c, 8, 76, 0
9, 134976, Note_on_c, 8, 74, 119
9, 135044, Note_off_c, 8, 74, 0
9, 135072, Note_on_c, 8, 72, 115
9, 135136, Note_off_c, 8, 72, 0
9, 135168, Note_on_c, 8, 74, 119
9, 135168, Control_c, 8, 7, 95
9, 135236, Note_off_c, 8, 74, 0
9, 135264, Note_on_c, 8, 76, 119
9, 135280, Control_c, 8, 7, 94
9, 135344, Note_off_c, 8, 76, 0
9, 135360, Note_on_c, 8, 74, 119
9, 135392, Control_c, 8, 7, 93
9, 135504, Control_c, 8, 7, 92
9, 135616, Control_c, 8, 7, 91
9, 135728, Control_c, 8, 7, 90
9, 135844, Control_c, 8, 7, 89
9, 135956, Control_c, 8, 7, 88
9, 136068, Control_c, 8, 7, 87
9, 136184, Control_c, 8, 7, 86
9, 136296, Control_c, 8, 7, 85
9, 136408, Control_c, 8, 7, 84
9, 136524, Control_c, 8, 7, 83
9, 136636, Control_c, 8, 7, 82
9, 136752, Control_c, 8, 7, 81
9, 136864, Control_c, 8, 7, 80
9, 136976, Control_c, 8, 7, 79
9, 137088, Control_c, 8, 7, 78
9, 137104, Note_off_c, 8, 74, 0
9, 137200, Control_c, 8, 7, 77
9, 137312, Control_c, 8, 7, 76
9, 137328, Note_on_c, 8, 65, 99
9, 137376, Note_on_c, 8, 69, 105
9, 137408, Note_off_c, 8, 65, 0
9, 137424, Note_on_c, 8, 72, 99
9, 137428, Control_c, 8, 7, 75
9, 137432, Note_off_c, 8, 69, 0
9, 137472, Note_off_c, 8, 72, 0
9, 137472, Note_on_c, 8, 77, 117
9, 137540, Control_c, 8, 7, 74
9, 137652, Control_c, 8, 7, 73
9, 137684, Note_off_c, 8, 77, 0
9, 137760, Note_on_c, 8, 76, 115
9, 137768, Control_c, 8, 7, 72
9, 137880, Control_c, 8, 7, 71
9, 137980, Note_off_c, 8, 76, 0
9, 137992, Control_c, 8, 7, 70
9, 138048, Note_on_c, 8, 74, 119
9, 138108, Note_off_c, 8, 74, 0
9, 138108, Control_c, 8, 7, 69
9, 138144, Note_on_c, 8, 72, 115
9, 138212, Note_off_c, 8, 72, 0
9, 138220, Control_c, 8, 7, 68
9, 138240, Note_on_c, 8, 69, 112
9, 138336, Control_c, 8, 7, 67
9, 138448, Control_c, 8, 7, 66
9, 138560, Control_c, 8, 7, 65
9, 138672, Control_c, 8, 7, 64
9, 138784, Control_c, 8, 7, 63
9, 138896, Control_c, 8, 7, 62
9, 139012, Control_c, 8, 7, 61
9, 139124, Control_c, 8, 7, 60
9, 139236, Control_c, 8, 7, 59
9, 139352, Control_c, 8, 7, 58
9, 139464, Control_c, 8, 7, 57
9, 139576, Control_c, 8, 7, 56
9, 139692, Control_c, 8, 7, 55
9, 139804, Control_c, 8, 7, 54
9, 139920, Control_c, 8, 7, 53
9, 139968, Note_off_c, 8, 69, 0
9, 140032, Control_c, 8, 7, 52
9, 140144, Control_c, 8, 7, 51
9, 140256, Control_c, 8, 7, 50
9, 140352, Note_on_c, 8, 69, 112
9, 140368, Control_c, 8, 7, 49
9, 140436, Note_off_c, 8, 69, 0
9, 140480, Control_c, 8, 7, 48
9, 140544, Note_on_c, 8, 77, 112
9, 140596, Control_c, 8, 7, 47
9, 140708, Control_c, 8, 7, 46
9, 140748, Note_off_c, 8, 77, 0
9, 140820, Control_c, 8, 7, 45
9, 140832, Note_on_c, 8, 76, 115
9, 140936, Control_c, 8, 7, 44
9, 141048, Control_c, 8, 7, 43
9, 141120, Note_on_c, 8, 74, 119
9, 141136, Note_off_c, 8, 76, 0
9, 141160, Control_c, 8, 7, 42
9, 141168, Note_off_c, 8, 74, 0
9, 141216, Note_on_c, 8, 72, 119
9, 141260, Note_off_c, 8, 72, 0
9, 141276, Control_c, 8, 7, 41
9, 141312, Note_on_c, 8, 72, 115
9, 141388, Control_c, 8, 7, 40
9, 141504, Control_c, 8, 7, 39
9, 141616, Control_c, 8, 7, 38
9, 141728, Control_c, 8, 7, 37
9, 141784, Note_off_c, 8, 72, 0
9, 141840, Control_c, 8, 7, 36
9, 141888, Note_on_c, 8, 72, 119
9, 141952, Control_c, 8, 7, 35
9, 141976, Note_off_c, 8, 72, 0
9, 142064, Control_c, 8, 7, 34
9, 142080, Note_on_c, 8, 72, 115
9, 142180, Control_c, 8, 7, 33
9, 142292, Control_c, 8, 7, 32
9, 142404, Control_c, 8, 7, 31
9, 142500, Note_off_c, 8, 72, 0
9, 142520, Control_c, 8, 7, 30
9, 142632, Control_c, 8, 7, 29
9, 142656, Note_on_c, 8, 72, 115
9, 142744, Control_c, 8, 7, 28
9, 142784, Note_off_c, 8, 72, 0
9, 142848, Note_on_c, 8, 69, 115
9, 142860, Control_c, 8, 7, 27
9, 142972, Control_c, 8, 7, 26
9, 143088, Control_c, 8, 7, 25
9, 143200, Control_c, 8, 7, 24
9, 143312, Note_off_c, 8, 69, 0
9, 143312, Control_c, 8, 7, 23
9, 143424, Note_on_c, 8, 69, 115
9, 143424, Control_c, 8, 7, 22
9, 143532, Note_off_c, 8, 69, 0
9, 143536, Control_c, 8, 7, 21
9, 143616, Note_on_c, 8, 77, 115
9, 143648, Control_c, 8, 7, 20
9, 143764, Control_c, 8, 7, 19
9, 143824, Note_off_c, 8, 77, 0
9, 143876, Control_c, 8, 7, 18
9, 143904, Note_on_c, 8, 76, 119
9, 143988, Control_c, 8, 7, 17
9, 144104, Control_c, 8, 7, 16
9, 144192, Note_on_c, 8, 74, 115
9, 144196, Note_off_c, 8, 76, 0
9, 144216, Control_c, 8, 7, 15
9, 144264, Note_off_c, 8, 74, 0
9, 144288, Note_on_c, 8, 72, 115
9, 144328, Control_c, 8, 7, 14
9, 144364, Note_off_c, 8, 72, 0
9, 144384, Note_on_c, 8, 77, 110
9, 144444, Control_c, 8, 7, 13
9, 144480, Note_on_c, 8, 76, 93
9, 144488, Note_off_c, 8, 77, 0
9, 144556, Control_c, 8, 7, 12
9, 144560, Note_off_c, 8, 76, 0
9, 144576, Note_on_c, 8, 74, 112
9, 144672, Control_c, 8, 7, 11
9, 144784, Control_c, 8, 7, 10
9, 144896, Control_c, 8, 7, 9
9, 144940, Note_off_c, 8, 74, 0
9, 144960, Note_on_c, 8, 72, 112
9, 145008, Control_c, 8, 7, 8
9, 145120, Control_c, 8, 7, 7
9, 145148, Note_off_c, 8, 72, 0
9, 145152, Note_on_c, 8, 77, 112
9, 145232, Control_c, 8, 7, 6
9, 145244, Note_off_c, 8, 77, 0
9, 145248, Note_on_c, 8, 76, 117
9, 145340, Note_off_c, 8, 76, 0
9, 145344, Note_on_c, 8, 74, 107
9, 145348, Control_c, 8, 7, 5
9, 145460, Control_c, 8, 7, 4
9, 145572, Control_c, 8, 7, 3
9, 145688, Control_c, 8, 7, 2
9, 145700, Note_off_c, 8, 74, 0
9, 145728, Note_on_c, 8, 72, 115
9, 145800, Control_c, 8, 7, 1
9, 145916, Control_c, 8, 7, 0
9, 146080, Note_off_c, 8, 72, 0
9, 146080, End_track
10, 0, Start_track
10, 0, Title_t, "drums"
10, 0, Control_c, 9, 0, 0
10, 0, Program_c, 9, 0
10, 0, Control_c, 9, 10, 64
10, 0, Control_c, 9, 91, 90
10, 0, Key_signature, 0, "major"
10, 0, Control_c, 9, 7, 100
10, 160, Control_c, 9, 121, 0
10, 24576, Note_on_c, 9, 36, 90
10, 24672, Note_off_c, 9, 36, 0
10, 24960, Note_on_c, 9, 36, 90
10, 25056, Note_off_c, 9, 36, 0
10, 25344, Note_on_c, 9, 36, 90
10, 25440, Note_off_c, 9, 36, 0
10, 25728, Note_on_c, 9, 36, 90
10, 25824, Note_off_c, 9, 36, 0
10, 26112, Note_on_c, 9, 36, 90
10, 26208, Note_off_c, 9, 36, 0
10, 26496, Note_on_c, 9, 36, 90
10, 26592, Note_off_c, 9, 36, 0
10, 26880, Note_on_c, 9, 36, 90
10, 26976, Note_off_c, 9, 36, 0
10, 27264, Note_on_c, 9, 36, 90
10, 27360, Note_off_c, 9, 36, 0
10, 27456, Note_on_c, 9, 36, 90
10, 27552, Note_off_c, 9, 36, 0
10, 27648, Note_on_c, 9, 36, 90
10, 27744, Note_off_c, 9, 36, 0
10, 28032, Note_on_c, 9, 36, 90
10, 28128, Note_off_c, 9, 36, 0
10, 28416, Note_on_c, 9, 36, 90
10, 28512, Note_off_c, 9, 36, 0
10, 28800, Note_on_c, 9, 36, 90
10, 28896, Note_off_c, 9, 36, 0
10, 29184, Note_on_c, 9, 36, 90
10, 29280, Note_off_c, 9, 36, 0
10, 29568, Note_on_c, 9, 36, 90
10, 29664, Note_off_c, 9, 36, 0
10, 29952, Note_on_c, 9, 36, 90
10, 30048, Note_off_c, 9, 36, 0
10, 30336, Note_on_c, 9, 36, 90
10, 30432, Note_off_c, 9, 36, 0
10, 30528, Note_on_c, 9, 36, 90
10, 30624, Note_off_c, 9, 36, 0
10, 30720, Note_on_c, 9, 36, 90
10, 30816, Note_off_c, 9, 36, 0
10, 31104, Note_on_c, 9, 36, 90
10, 31200, Note_off_c, 9, 36, 0
10, 31488, Note_on_c, 9, 36, 90
10, 31584, Note_off_c, 9, 36, 0
10, 31872, Note_on_c, 9, 36, 90
10, 31968, Note_off_c, 9, 36, 0
10, 32256, Note_on_c, 9, 36, 90
10, 32352, Note_off_c, 9, 36, 0
10, 32640, Note_on_c, 9, 36, 90
10, 32736, Note_off_c, 9, 36, 0
10, 33024, Note_on_c, 9, 36, 90
10, 33120, Note_off_c, 9, 36, 0
10, 33408, Note_on_c, 9, 36, 90
10, 33504, Note_off_c, 9, 36, 0
10, 33600, Note_on_c, 9, 36, 90
10, 33696, Note_off_c, 9, 36, 0
10, 33792, Note_on_c, 9, 36, 90
10, 33888, Note_off_c, 9, 36, 0
10, 34176, Note_on_c, 9, 36, 90
10, 34272, Note_off_c, 9, 36, 0
10, 34560, Note_on_c, 9, 36, 90
10, 34656, Note_off_c, 9, 36, 0
10, 34944, Note_on_c, 9, 36, 90
10, 35040, Note_off_c, 9, 36, 0
10, 35328, Note_on_c, 9, 36, 90
10, 35424, Note_off_c, 9, 36, 0
10, 35712, Note_on_c, 9, 36, 90
10, 35808, Note_off_c, 9, 36, 0
10, 36096, Note_on_c, 9, 36, 90
10, 36192, Note_off_c, 9, 36, 0
10, 36480, Note_on_c, 9, 36, 90
10, 36576, Note_off_c, 9, 36, 0
10, 36672, Note_on_c, 9, 36, 90
10, 36768, Note_off_c, 9, 36, 0
10, 36864, Note_on_c, 9, 36, 90
10, 36960, Note_off_c, 9, 36, 0
10, 37248, Note_on_c, 9, 36, 90
10, 37344, Note_off_c, 9, 36, 0
10, 37632, Note_on_c, 9, 36, 90
10, 37728, Note_off_c, 9, 36, 0
10, 38016, Note_on_c, 9, 36, 90
10, 38112, Note_off_c, 9, 36, 0
10, 38400, Note_on_c, 9, 36, 90
10, 38496, Note_off_c, 9, 36, 0
10, 38784, Note_on_c, 9, 36, 90
10, 38880, Note_off_c, 9, 36, 0
10, 39168, Note_on_c, 9, 36, 90
10, 39264, Note_off_c, 9, 36, 0
10, 39552, Note_on_c, 9, 36, 90
10, 39648, Note_off_c, 9, 36, 0
10, 39744, Note_on_c, 9, 36, 90
10, 39840, Note_off_c, 9, 36, 0
10, 39936, Note_on_c, 9, 36, 90
10, 40032, Note_off_c, 9, 36, 0
10, 40320, Note_on_c, 9, 36, 90
10, 40416, Note_off_c, 9, 36, 0
10, 40704, Note_on_c, 9, 36, 90
10, 40800, Note_off_c, 9, 36, 0
10, 41088, Note_on_c, 9, 36, 90
10, 41184, Note_off_c, 9, 36, 0
10, 41472, Note_on_c, 9, 36, 90
10, 41568, Note_off_c, 9, 36, 0
10, 41856, Note_on_c, 9, 36, 90
10, 41952, Note_off_c, 9, 36, 0
10, 42240, Note_on_c, 9, 36, 90
10, 42336, Note_off_c, 9, 36, 0
10, 42624, Note_on_c, 9, 36, 90
10, 42720, Note_off_c, 9, 36, 0
10, 42816, Note_on_c, 9, 36, 90
10, 42912, Note_off_c, 9, 36, 0
10, 43008, Note_on_c, 9, 36, 90
10, 43104, Note_off_c, 9, 36, 0
10, 43392, Note_on_c, 9, 36, 90
10, 43488, Note_off_c, 9, 36, 0
10, 43776, Note_on_c, 9, 36, 90
10, 43872, Note_off_c, 9, 36, 0
10, 44160, Note_on_c, 9, 36, 90
10, 44256, Note_off_c, 9, 36, 0
10, 44544, Note_on_c, 9, 36, 90
10, 44640, Note_off_c, 9, 36, 0
10, 44928, Note_on_c, 9, 36, 90
10, 45024, Note_off_c, 9, 36, 0
10, 45312, Note_on_c, 9, 36, 90
10, 45408, Note_off_c, 9, 36, 0
10, 45696, Note_on_c, 9, 36, 90
10, 45792, Note_off_c, 9, 36, 0
10, 45888, Note_on_c, 9, 36, 90
10, 45984, Note_off_c, 9, 36, 0
10, 46080, Note_on_c, 9, 54, 80
10, 46080, Note_on_c, 9, 36, 90
10, 46080, Note_on_c, 9, 38, 90
10, 46176, Note_off_c, 9, 54, 0
10, 46176, Note_off_c, 9, 36, 0
10, 46176, Note_off_c, 9, 38, 0
10, 46176, Note_on_c, 9, 38, 90
10, 46272, Note_off_c, 9, 38, 0
10, 46272, Note_on_c, 9, 54, 80
10, 46272, Note_on_c, 9, 38, 90
10, 46368, Note_off_c, 9, 54, 0
10, 46368, Note_off_c, 9, 38, 0
10, 46368, Note_on_c, 9, 38, 90
10, 46464, Note_off_c, 9, 38, 0
10, 46464, Note_on_c, 9, 54, 80
10, 46464, Note_on_c, 9, 36, 90
10, 46464, Note_on_c, 9, 38, 90
10, 46560, Note_off_c, 9, 54, 0
10, 46560, Note_off_c, 9, 36, 0
10, 46560, Note_off_c, 9, 38, 0
10, 46656, Note_on_c, 9, 54, 80
10, 46656, Note_on_c, 9, 38, 90
10, 46752, Note_off_c, 9, 54, 0
10, 46752, Note_off_c, 9, 38, 0
10, 46752, Note_on_c, 9, 54, 80
10, 46752, Note_on_c, 9, 38, 90
10, 46848, Note_off_c, 9, 54, 0
10, 46848, Note_off_c, 9, 38, 0
10, 46848, Note_on_c, 9, 54, 80
10, 46848, Note_on_c, 9, 36, 90
10, 46944, Note_off_c, 9, 54, 0
10, 46944, Note_off_c, 9, 36, 0
10, 46944, Note_on_c, 9, 38, 90
10, 47040, Note_off_c, 9, 38, 0
10, 47040, Note_on_c, 9, 54, 80
10, 47040, Note_on_c, 9, 38, 90
10, 47136, Note_off_c, 9, 54, 0
10, 47136, Note_off_c, 9, 38, 0
10, 47136, Note_on_c, 9, 38, 90
10, 47232, Note_off_c, 9, 38, 0
10, 47232, Note_on_c, 9, 54, 80
10, 47232, Note_on_c, 9, 36, 90
10, 47232, Note_on_c, 9, 38, 90
10, 47328, Note_off_c, 9, 54, 0
10, 47328, Note_off_c, 9, 36, 0
10, 47328, Note_off_c, 9, 38, 0
10, 47328, Note_on_c, 9, 54, 80
10, 47328, Note_on_c, 9, 38, 90
10, 47424, Note_off_c, 9, 54, 0
10, 47424, Note_off_c, 9, 38, 0
10, 47424, Note_on_c, 9, 54, 80
10, 47424, Note_on_c, 9, 38, 90
10, 47520, Note_off_c, 9, 54, 0
10, 47520, Note_off_c, 9, 38, 0
10, 47520, Note_on_c, 9, 38, 90
10, 47616, Note_off_c, 9, 38, 0
10, 47616, Note_on_c, 9, 54, 80
10, 47616, Note_on_c, 9, 47, 90
10, 47616, Note_on_c, 9, 36, 90
10, 47616, Note_on_c, 9, 38, 90
10, 47712, Note_off_c, 9, 54, 0
10, 47712, Note_off_c, 9, 47, 0
10, 47712, Note_off_c, 9, 36, 0
10, 47712, Note_off_c, 9, 38, 0
10, 47808, Note_on_c, 9, 54, 80
10, 47904, Note_off_c, 9, 54, 0
10, 48000, Note_on_c, 9, 54, 80
10, 48000, Note_on_c, 9, 38, 90
10, 48096, Note_off_c, 9, 54, 0
10, 48096, Note_off_c, 9, 38, 0
10, 48192, Note_on_c, 9, 54, 80
10, 48288, Note_off_c, 9, 54, 0
10, 48288, Note_on_c, 9, 54, 80
10, 48384, Note_off_c, 9, 54, 0
10, 48384, Note_on_c, 9, 54, 80
10, 48384, Note_on_c, 9, 38, 90
10, 48480, Note_off_c, 9, 54, 0
10, 48480, Note_off_c, 9, 38, 0
10, 48480, Note_on_c, 9, 47, 90
10, 48576, Note_off_c, 9, 47, 0
10, 48576, Note_on_c, 9, 54, 80
10, 48576, Note_on_c, 9, 47, 90
10, 48672, Note_off_c, 9, 54, 0
10, 48672, Note_off_c, 9, 47, 0
10, 48672, Note_on_c, 9, 38, 90
10, 48768, Note_off_c, 9, 38, 0
10, 48768, Note_on_c, 9, 54, 80
10, 48768, Note_on_c, 9, 43, 90
10, 48768, Note_on_c, 9, 39, 80
10, 48864, Note_off_c, 9, 54, 0
10, 48864, Note_off_c, 9, 43, 0
10, 48864, Note_off_c, 9, 39, 0
10, 48864, Note_on_c, 9, 54, 80
10, 48960, Note_off_c, 9, 54, 0
10, 48960, Note_on_c, 9, 54, 80
10, 48960, Note_on_c, 9, 43, 90
10, 49056, Note_off_c, 9, 54, 0
10, 49056, Note_off_c, 9, 43, 0
10, 49152, Note_on_c, 9, 49, 100
10, 49152, Note_on_c, 9, 69, 80
10, 49152, Note_on_c, 9, 54, 80
10, 49152, Note_on_c, 9, 36, 80
10, 49152, Note_on_c, 9, 42, 70
10, 49248, Note_off_c, 9, 69, 0
10, 49248, Note_off_c, 9, 54, 0
10, 49248, Note_off_c, 9, 36, 0
10, 49248, Note_off_c, 9, 42, 0
10, 49344, Note_on_c, 9, 69, 80
10, 49344, Note_on_c, 9, 54, 90
10, 49344, Note_on_c, 9, 46, 70
10, 49440, Note_off_c, 9, 69, 0
10, 49440, Note_off_c, 9, 54, 0
10, 49440, Note_off_c, 9, 46, 0
10, 49532, Note_off_c, 9, 49, 0
10, 49536, Note_on_c, 9, 39, 80
10, 49536, Note_on_c, 9, 69, 80
10, 49536, Note_on_c, 9, 54, 80
10, 49536, Note_on_c, 9, 36, 90
10, 49536, Note_on_c, 9, 42, 70
10, 49536, Note_on_c, 9, 38, 90
10, 49632, Note_off_c, 9, 39, 0
10, 49632, Note_off_c, 9, 69, 0
10, 49632, Note_off_c, 9, 54, 0
10, 49632, Note_off_c, 9, 36, 0
10, 49632, Note_off_c, 9, 42, 0
10, 49632, Note_off_c, 9, 38, 0
10, 49728, Note_on_c, 9, 69, 80
10, 49728, Note_on_c, 9, 54, 80
10, 49728, Note_on_c, 9, 46, 70
10, 49824, Note_off_c, 9, 69, 0
10, 49824, Note_off_c, 9, 54, 0
10, 49824, Note_off_c, 9, 46, 0
10, 49824, Note_on_c, 9, 54, 80
10, 49920, Note_off_c, 9, 54, 0
10, 49920, Note_on_c, 9, 69, 80
10, 49920, Note_on_c, 9, 54, 80
10, 49920, Note_on_c, 9, 36, 90
10, 49920, Note_on_c, 9, 42, 70
10, 50016, Note_off_c, 9, 69, 0
10, 50016, Note_off_c, 9, 54, 0
10, 50016, Note_off_c, 9, 36, 0
10, 50016, Note_off_c, 9, 42, 0
10, 50016, Note_on_c, 9, 54, 80
10, 50016, Note_on_c, 9, 42, 70
10, 50112, Note_off_c, 9, 54, 0
10, 50112, Note_off_c, 9, 42, 0
10, 50112, Note_on_c, 9, 69, 80
10, 50112, Note_on_c, 9, 54, 80
10, 50112, Note_on_c, 9, 46, 70
10, 50208, Note_off_c, 9, 69, 0
10, 50208, Note_off_c, 9, 54, 0
10, 50208, Note_off_c, 9, 46, 0
10, 50304, Note_on_c, 9, 39, 80
10, 50304, Note_on_c, 9, 42, 70
10, 50304, Note_on_c, 9, 69, 80
10, 50304, Note_on_c, 9, 54, 80
10, 50304, Note_on_c, 9, 36, 90
10, 50304, Note_on_c, 9, 38, 90
10, 50400, Note_off_c, 9, 39, 0
10, 50400, Note_off_c, 9, 42, 0
10, 50400, Note_off_c, 9, 69, 0
10, 50400, Note_off_c, 9, 54, 0
10, 50400, Note_off_c, 9, 36, 0
10, 50400, Note_off_c, 9, 38, 0
10, 50400, Note_on_c, 9, 54, 80
10, 50400, Note_on_c, 9, 42, 70
10, 50496, Note_off_c, 9, 54, 0
10, 50496, Note_off_c, 9, 42, 0
10, 50496, Note_on_c, 9, 69, 80
10, 50496, Note_on_c, 9, 54, 80
10, 50496, Note_on_c, 9, 46, 70
10, 50592, Note_off_c, 9, 69, 0
10, 50592, Note_off_c, 9, 54, 0
10, 50592, Note_off_c, 9, 46, 0
10, 50592, Note_on_c, 9, 38, 90
10, 50688, Note_off_c, 9, 38, 0
10, 50688, Note_on_c, 9, 69, 80
10, 50688, Note_on_c, 9, 54, 80
10, 50688, Note_on_c, 9, 36, 90
10, 50688, Note_on_c, 9, 42, 70
10, 50784, Note_off_c, 9, 69, 0
10, 50784, Note_off_c, 9, 54, 0
10, 50784, Note_off_c, 9, 36, 0
10, 50784, Note_off_c, 9, 42, 0
10, 50880, Note_on_c, 9, 69, 80
10, 50880, Note_on_c, 9, 54, 90
10, 50880, Note_on_c, 9, 46, 70
10, 50976, Note_off_c, 9, 69, 0
10, 50976, Note_off_c, 9, 54, 0
10, 50976, Note_off_c, 9, 46, 0
10, 51072, Note_on_c, 9, 39, 80
10, 51072, Note_on_c, 9, 69, 80
10, 51072, Note_on_c, 9, 54, 80
10, 51072, Note_on_c, 9, 36, 90
10, 51072, Note_on_c, 9, 42, 70
10, 51072, Note_on_c, 9, 38, 90
10, 51168, Note_off_c, 9, 39, 0
10, 51168, Note_off_c, 9, 69, 0
10, 51168, Note_off_c, 9, 54, 0
10, 51168, Note_off_c, 9, 36, 0
10, 51168, Note_off_c, 9, 42, 0
10, 51168, Note_off_c, 9, 38, 0
10, 51264, Note_on_c, 9, 69, 80
10, 51264, Note_on_c, 9, 54, 80
10, 51264, Note_on_c, 9, 46, 70
10, 51360, Note_off_c, 9, 69, 0
10, 51360, Note_off_c, 9, 54, 0
10, 51360, Note_off_c, 9, 46, 0
10, 51360, Note_on_c, 9, 54, 80
10, 51456, Note_off_c, 9, 54, 0
10, 51456, Note_on_c, 9, 69, 80
10, 51456, Note_on_c, 9, 54, 80
10, 51456, Note_on_c, 9, 36, 90
10, 51456, Note_on_c, 9, 42, 70
10, 51552, Note_off_c, 9, 69, 0
10, 51552, Note_off_c, 9, 54, 0
10, 51552, Note_off_c, 9, 36, 0
10, 51552, Note_off_c, 9, 42, 0
10, 51552, Note_on_c, 9, 54, 80
10, 51552, Note_on_c, 9, 42, 70
10, 51648, Note_off_c, 9, 54, 0
10, 51648, Note_off_c, 9, 42, 0
10, 51648, Note_on_c, 9, 69, 80
10, 51648, Note_on_c, 9, 54, 80
10, 51648, Note_on_c, 9, 46, 70
10, 51744, Note_off_c, 9, 69, 0
10, 51744, Note_off_c, 9, 54, 0
10, 51744, Note_off_c, 9, 46, 0
10, 51840, Note_on_c, 9, 39, 80
10, 51840, Note_on_c, 9, 42, 70
10, 51840, Note_on_c, 9, 69, 80
10, 51840, Note_on_c, 9, 54, 80
10, 51840, Note_on_c, 9, 36, 90
10, 51840, Note_on_c, 9, 38, 90
10, 51936, Note_off_c, 9, 39, 0
10, 51936, Note_off_c, 9, 42, 0
10, 51936, Note_off_c, 9, 69, 0
10, 51936, Note_off_c, 9, 54, 0
10, 51936, Note_off_c, 9, 36, 0
10, 51936, Note_off_c, 9, 38, 0
10, 51936, Note_on_c, 9, 54, 80
10, 51936, Note_on_c, 9, 42, 70
10, 52032, Note_off_c, 9, 54, 0
10, 52032, Note_off_c, 9, 42, 0
10, 52032, Note_on_c, 9, 38, 80
10, 52032, Note_on_c, 9, 69, 80
10, 52032, Note_on_c, 9, 54, 80
10, 52032, Note_on_c, 9, 46, 70
10, 52128, Note_off_c, 9, 38, 0
10, 52128, Note_off_c, 9, 69, 0
10, 52128, Note_off_c, 9, 54, 0
10, 52128, Note_off_c, 9, 46, 0
10, 52128, Note_on_c, 9, 38, 90
10, 52224, Note_off_c, 9, 38, 0
10, 52224, Note_on_c, 9, 69, 80
10, 52224, Note_on_c, 9, 54, 80
10, 52224, Note_on_c, 9, 36, 80
10, 52224, Note_on_c, 9, 42, 70
10, 52320, Note_off_c, 9, 69, 0
10, 52320, Note_off_c, 9, 54, 0
10, 52320, Note_off_c, 9, 36, 0
10, 52320, Note_off_c, 9, 42, 0
10, 52416, Note_on_c, 9, 69, 80
10, 52416, Note_on_c, 9, 54, 90
10, 52416, Note_on_c, 9, 46, 70
10, 52512, Note_off_c, 9, 69, 0
10, 52512, Note_off_c, 9, 54, 0
10, 52512, Note_off_c, 9, 46, 0
10, 52608, Note_on_c, 9, 39, 80
10, 52608, Note_on_c, 9, 69, 80
10, 52608, Note_on_c, 9, 54, 80
10, 52608, Note_on_c, 9, 36, 90
10, 52608, Note_on_c, 9, 42, 70
10, 52608, Note_on_c, 9, 38, 90
10, 52704, Note_off_c, 9, 39, 0
10, 52704, Note_off_c, 9, 69, 0
10, 52704, Note_off_c, 9, 54, 0
10, 52704, Note_off_c, 9, 36, 0
10, 52704, Note_off_c, 9, 42, 0
10, 52704, Note_off_c, 9, 38, 0
10, 52800, Note_on_c, 9, 69, 80
10, 52800, Note_on_c, 9, 54, 80
10, 52800, Note_on_c, 9, 46, 70
10, 52896, Note_off_c, 9, 69, 0
10, 52896, Note_off_c, 9, 54, 0
10, 52896, Note_off_c, 9, 46, 0
10, 52896, Note_on_c, 9, 54, 80
10, 52992, Note_off_c, 9, 54, 0
10, 52992, Note_on_c, 9, 69, 80
10, 52992, Note_on_c, 9, 54, 80
10, 52992, Note_on_c, 9, 36, 90
10, 52992, Note_on_c, 9, 42, 70
10, 53088, Note_off_c, 9, 69, 0
10, 53088, Note_off_c, 9, 54, 0
10, 53088, Note_off_c, 9, 36, 0
10, 53088, Note_off_c, 9, 42, 0
10, 53088, Note_on_c, 9, 54, 80
10, 53088, Note_on_c, 9, 42, 70
10, 53184, Note_off_c, 9, 54, 0
10, 53184, Note_off_c, 9, 42, 0
10, 53184, Note_on_c, 9, 69, 80
10, 53184, Note_on_c, 9, 54, 80
10, 53184, Note_on_c, 9, 46, 70
10, 53280, Note_off_c, 9, 69, 0
10, 53280, Note_off_c, 9, 54, 0
10, 53280, Note_off_c, 9, 46, 0
10, 53376, Note_on_c, 9, 39, 80
10, 53376, Note_on_c, 9, 42, 70
10, 53376, Note_on_c, 9, 69, 80
10, 53376, Note_on_c, 9, 54, 80
10, 53376, Note_on_c, 9, 36, 90
10, 53376, Note_on_c, 9, 38, 90
10, 53472, Note_off_c, 9, 39, 0
10, 53472, Note_off_c, 9, 42, 0
10, 53472, Note_off_c, 9, 69, 0
10, 53472, Note_off_c, 9, 54, 0
10, 53472, Note_off_c, 9, 36, 0
10, 53472, Note_off_c, 9, 38, 0
10, 53472, Note_on_c, 9, 54, 80
10, 53472, Note_on_c, 9, 42, 70
10, 53568, Note_off_c, 9, 54, 0
10, 53568, Note_off_c, 9, 42, 0
10, 53568, Note_on_c, 9, 69, 80
10, 53568, Note_on_c, 9, 54, 80
10, 53568, Note_on_c, 9, 46, 70
10, 53664, Note_off_c, 9, 69, 0
10, 53664, Note_off_c, 9, 54, 0
10, 53664, Note_off_c, 9, 46, 0
10, 53664, Note_on_c, 9, 38, 90
10, 53760, Note_off_c, 9, 38, 0
10, 53760, Note_on_c, 9, 69, 80
10, 53760, Note_on_c, 9, 54, 80
10, 53760, Note_on_c, 9, 36, 90
10, 53760, Note_on_c, 9, 42, 70
10, 53856, Note_off_c, 9, 69, 0
10, 53856, Note_off_c, 9, 54, 0
10, 53856, Note_off_c, 9, 36, 0
10, 53856, Note_off_c, 9, 42, 0
10, 53952, Note_on_c, 9, 69, 80
10, 53952, Note_on_c, 9, 54, 90
10, 53952, Note_on_c, 9, 46, 70
10, 54048, Note_off_c, 9, 69, 0
10, 54048, Note_off_c, 9, 54, 0
10, 54048, Note_off_c, 9, 46, 0
10, 54144, Note_on_c, 9, 39, 80
10, 54144, Note_on_c, 9, 69, 80
10, 54144, Note_on_c, 9, 54, 80
10, 54144, Note_on_c, 9, 36, 90
10, 54144, Note_on_c, 9, 42, 70
10, 54144, Note_on_c, 9, 38, 90
10, 54240, Note_off_c, 9, 39, 0
10, 54240, Note_off_c, 9, 69, 0
10, 54240, Note_off_c, 9, 54, 0
10, 54240, Note_off_c, 9, 36, 0
10, 54240, Note_off_c, 9, 42, 0
10, 54240, Note_off_c, 9, 38, 0
10, 54336, Note_on_c, 9, 69, 80
10, 54336, Note_on_c, 9, 54, 80
10, 54336, Note_on_c, 9, 46, 70
10, 54432, Note_off_c, 9, 69, 0
10, 54432, Note_off_c, 9, 54, 0
10, 54432, Note_off_c, 9, 46, 0
10, 54432, Note_on_c, 9, 54, 80
10, 54528, Note_off_c, 9, 54, 0
10, 54528, Note_on_c, 9, 69, 80
10, 54528, Note_on_c, 9, 54, 80
10, 54528, Note_on_c, 9, 36, 90
10, 54528, Note_on_c, 9, 42, 70
10, 54624, Note_off_c, 9, 69, 0
10, 54624, Note_off_c, 9, 54, 0
10, 54624, Note_off_c, 9, 36, 0
10, 54624, Note_off_c, 9, 42, 0
10, 54624, Note_on_c, 9, 54, 80
10, 54624, Note_on_c, 9, 42, 70
10, 54720, Note_off_c, 9, 54, 0
10, 54720, Note_off_c, 9, 42, 0
10, 54720, Note_on_c, 9, 69, 80
10, 54720, Note_on_c, 9, 54, 80
10, 54720, Note_on_c, 9, 46, 70
10, 54816, Note_off_c, 9, 69, 0
10, 54816, Note_off_c, 9, 54, 0
10, 54816, Note_off_c, 9, 46, 0
10, 54912, Note_on_c, 9, 39, 80
10, 54912, Note_on_c, 9, 42, 70
10, 54912, Note_on_c, 9, 69, 80
10, 54912, Note_on_c, 9, 54, 80
10, 54912, Note_on_c, 9, 36, 90
10, 54912, Note_on_c, 9, 38, 90
10, 55008, Note_off_c, 9, 39, 0
10, 55008, Note_off_c, 9, 42, 0
10, 55008, Note_off_c, 9, 69, 0
10, 55008, Note_off_c, 9, 54, 0
10, 55008, Note_off_c, 9, 36, 0
10, 55008, Note_off_c, 9, 38, 0
10, 55008, Note_on_c, 9, 54, 80
10, 55008, Note_on_c, 9, 42, 70
10, 55104, Note_off_c, 9, 54, 0
10, 55104, Note_off_c, 9, 42, 0
10, 55104, Note_on_c, 9, 38, 80
10, 55104, Note_on_c, 9, 69, 80
10, 55104, Note_on_c, 9, 54, 80
10, 55104, Note_on_c, 9, 46, 70
10, 55200, Note_off_c, 9, 38, 0
10, 55200, Note_off_c, 9, 69, 0
10, 55200, Note_off_c, 9, 54, 0
10, 55200, Note_off_c, 9, 46, 0
10, 55200, Note_on_c, 9, 38, 90
10, 55296, Note_off_c, 9, 38, 0
10, 55296, Note_on_c, 9, 69, 80
10, 55296, Note_on_c, 9, 54, 80
10, 55296, Note_on_c, 9, 36, 80
10, 55296, Note_on_c, 9, 42, 70
10, 55392, Note_off_c, 9, 69, 0
10, 55392, Note_off_c, 9, 54, 0
10, 55392, Note_off_c, 9, 36, 0
10, 55392, Note_off_c, 9, 42, 0
10, 55488, Note_on_c, 9, 69, 80
10, 55488, Note_on_c, 9, 54, 90
10, 55488, Note_on_c, 9, 46, 70
10, 55584, Note_off_c, 9, 69, 0
10, 55584, Note_off_c, 9, 54, 0
10, 55584, Note_off_c, 9, 46, 0
10, 55680, Note_on_c, 9, 39, 80
10, 55680, Note_on_c, 9, 69, 80
10, 55680, Note_on_c, 9, 54, 80
10, 55680, Note_on_c, 9, 36, 90
10, 55680, Note_on_c, 9, 42, 70
10, 55680, Note_on_c, 9, 38, 90
10, 55776, Note_off_c, 9, 39, 0
10, 55776, Note_off_c, 9, 69, 0
10, 55776, Note_off_c, 9, 54, 0
10, 55776, Note_off_c, 9, 36, 0
10, 55776, Note_off_c, 9, 42, 0
10, 55776, Note_off_c, 9, 38, 0
10, 55872, Note_on_c, 9, 69, 80
10, 55872, Note_on_c, 9, 54, 80
10, 55872, Note_on_c, 9, 46, 70
10, 55968, Note_off_c, 9, 69, 0
10, 55968, Note_off_c, 9, 54, 0
10, 55968, Note_off_c, 9, 46, 0
10, 55968, Note_on_c, 9, 54, 80
10, 56064, Note_off_c, 9, 54, 0
10, 56064, Note_on_c, 9, 69, 80
10, 56064, Note_on_c, 9, 54, 80
10, 56064, Note_on_c, 9, 36, 90
10, 56064, Note_on_c, 9, 42, 70
10, 56160, Note_off_c, 9, 69, 0
10, 56160, Note_off_c, 9, 54, 0
10, 56160, Note_off_c, 9, 36, 0
10, 56160, Note_off_c, 9, 42, 0
10, 56160, Note_on_c, 9, 54, 80
10, 56160, Note_on_c, 9, 42, 70
10, 56256, Note_off_c, 9, 54, 0
10, 56256, Note_off_c, 9, 42, 0
10, 56256, Note_on_c, 9, 69, 80
10, 56256, Note_on_c, 9, 54, 80
10, 56256, Note_on_c, 9, 46, 70
10, 56352, Note_off_c, 9, 69, 0
10, 56352, Note_off_c, 9, 54, 0
10, 56352, Note_off_c, 9, 46, 0
10, 56448, Note_on_c, 9, 39, 80
10, 56448, Note_on_c, 9, 42, 70
10, 56448, Note_on_c, 9, 69, 80
10, 56448, Note_on_c, 9, 54, 80
10, 56448, Note_on_c, 9, 36, 90
10, 56448, Note_on_c, 9, 38, 90
10, 56544, Note_off_c, 9, 39, 0
10, 56544, Note_off_c, 9, 42, 0
10, 56544, Note_off_c, 9, 69, 0
10, 56544, Note_off_c, 9, 54, 0
10, 56544, Note_off_c, 9, 36, 0
10, 56544, Note_off_c, 9, 38, 0
10, 56544, Note_on_c, 9, 54, 80
10, 56544, Note_on_c, 9, 42, 70
10, 56640, Note_off_c, 9, 54, 0
10, 56640, Note_off_c, 9, 42, 0
10, 56640, Note_on_c, 9, 69, 80
10, 56640, Note_on_c, 9, 54, 80
10, 56640, Note_on_c, 9, 46, 70
10, 56736, Note_off_c, 9, 69, 0
10, 56736, Note_off_c, 9, 54, 0
10, 56736, Note_off_c, 9, 46, 0
10, 56736, Note_on_c, 9, 38, 90
10, 56832, Note_off_c, 9, 38, 0
10, 56832, Note_on_c, 9, 69, 80
10, 56832, Note_on_c, 9, 54, 80
10, 56832, Note_on_c, 9, 36, 90
10, 56832, Note_on_c, 9, 42, 70
10, 56928, Note_off_c, 9, 69, 0
10, 56928, Note_off_c, 9, 54, 0
10, 56928, Note_off_c, 9, 36, 0
10, 56928, Note_off_c, 9, 42, 0
10, 57024, Note_on_c, 9, 69, 80
10, 57024, Note_on_c, 9, 54, 90
10, 57024, Note_on_c, 9, 46, 70
10, 57120, Note_off_c, 9, 69, 0
10, 57120, Note_off_c, 9, 54, 0
10, 57120, Note_off_c, 9, 46, 0
10, 57216, Note_on_c, 9, 39, 80
10, 57216, Note_on_c, 9, 69, 80
10, 57216, Note_on_c, 9, 54, 80
10, 57216, Note_on_c, 9, 36, 90
10, 57216, Note_on_c, 9, 42, 70
10, 57216, Note_on_c, 9, 38, 90
10, 57312, Note_off_c, 9, 39, 0
10, 57312, Note_off_c, 9, 69, 0
10, 57312, Note_off_c, 9, 54, 0
10, 57312, Note_off_c, 9, 36, 0
10, 57312, Note_off_c, 9, 42, 0
10, 57312, Note_off_c, 9, 38, 0
10, 57408, Note_on_c, 9, 69, 80
10, 57408, Note_on_c, 9, 54, 80
10, 57408, Note_on_c, 9, 46, 70
10, 57504, Note_off_c, 9, 69, 0
10, 57504, Note_off_c, 9, 54, 0
10, 57504, Note_off_c, 9, 46, 0
10, 57504, Note_on_c, 9, 54, 80
10, 57600, Note_off_c, 9, 54, 0
10, 57600, Note_on_c, 9, 69, 80
10, 57600, Note_on_c, 9, 54, 80
10, 57600, Note_on_c, 9, 36, 90
10, 57600, Note_on_c, 9, 42, 70
10, 57696, Note_off_c, 9, 69, 0
10, 57696, Note_off_c, 9, 54, 0
10, 57696, Note_off_c, 9, 36, 0
10, 57696, Note_off_c, 9, 42, 0
10, 57696, Note_on_c, 9, 54, 80
10, 57696, Note_on_c, 9, 42, 70
10, 57792, Note_off_c, 9, 54, 0
10, 57792, Note_off_c, 9, 42, 0
10, 57792, Note_on_c, 9, 69, 80
10, 57792, Note_on_c, 9, 54, 80
10, 57792, Note_on_c, 9, 46, 70
10, 57888, Note_off_c, 9, 69, 0
10, 57888, Note_off_c, 9, 54, 0
10, 57888, Note_off_c, 9, 46, 0
10, 57984, Note_on_c, 9, 39, 80
10, 57984, Note_on_c, 9, 42, 70
10, 57984, Note_on_c, 9, 69, 80
10, 57984, Note_on_c, 9, 54, 80
10, 57984, Note_on_c, 9, 36, 90
10, 57984, Note_on_c, 9, 38, 90
10, 58080, Note_off_c, 9, 39, 0
10, 58080, Note_off_c, 9, 42, 0
10, 58080, Note_off_c, 9, 69, 0
10, 58080, Note_off_c, 9, 54, 0
10, 58080, Note_off_c, 9, 36, 0
10, 58080, Note_off_c, 9, 38, 0
10, 58080, Note_on_c, 9, 54, 80
10, 58080, Note_on_c, 9, 42, 70
10, 58176, Note_off_c, 9, 54, 0
10, 58176, Note_off_c, 9, 42, 0
10, 58176, Note_on_c, 9, 38, 80
10, 58176, Note_on_c, 9, 69, 80
10, 58176, Note_on_c, 9, 54, 80
10, 58176, Note_on_c, 9, 46, 70
10, 58272, Note_off_c, 9, 38, 0
10, 58272, Note_off_c, 9, 69, 0
10, 58272, Note_off_c, 9, 54, 0
10, 58272, Note_off_c, 9, 46, 0
10, 58272, Note_on_c, 9, 38, 90
10, 58368, Note_off_c, 9, 38, 0
10, 58368, Note_on_c, 9, 69, 80
10, 58368, Note_on_c, 9, 54, 80
10, 58368, Note_on_c, 9, 36, 80
10, 58368, Note_on_c, 9, 42, 70
10, 58464, Note_off_c, 9, 69, 0
10, 58464, Note_off_c, 9, 54, 0
10, 58464, Note_off_c, 9, 36, 0
10, 58464, Note_off_c, 9, 42, 0
10, 58560, Note_on_c, 9, 69, 80
10, 58560, Note_on_c, 9, 54, 90
10, 58560, Note_on_c, 9, 46, 70
10, 58656, Note_off_c, 9, 69, 0
10, 58656, Note_off_c, 9, 54, 0
10, 58656, Note_off_c, 9, 46, 0
10, 58752, Note_on_c, 9, 39, 80
10, 58752, Note_on_c, 9, 69, 80
10, 58752, Note_on_c, 9, 54, 80
10, 58752, Note_on_c, 9, 36, 90
10, 58752, Note_on_c, 9, 42, 70
10, 58752, Note_on_c, 9, 38, 90
10, 58848, Note_off_c, 9, 39, 0
10, 58848, Note_off_c, 9, 69, 0
10, 58848, Note_off_c, 9, 54, 0
10, 58848, Note_off_c, 9, 36, 0
10, 58848, Note_off_c, 9, 42, 0
10, 58848, Note_off_c, 9, 38, 0
10, 58944, Note_on_c, 9, 69, 80
10, 58944, Note_on_c, 9, 54, 80
10, 58944, Note_on_c, 9, 46, 70
10, 59040, Note_off_c, 9, 69, 0
10, 59040, Note_off_c, 9, 54, 0
10, 59040, Note_off_c, 9, 46, 0
10, 59040, Note_on_c, 9, 54, 80
10, 59136, Note_off_c, 9, 54, 0
10, 59136, Note_on_c, 9, 69, 80
10, 59136, Note_on_c, 9, 54, 80
10, 59136, Note_on_c, 9, 36, 90
10, 59136, Note_on_c, 9, 42, 70
10, 59232, Note_off_c, 9, 69, 0
10, 59232, Note_off_c, 9, 54, 0
10, 59232, Note_off_c, 9, 36, 0
10, 59232, Note_off_c, 9, 42, 0
10, 59232, Note_on_c, 9, 54, 80
10, 59232, Note_on_c, 9, 42, 70
10, 59328, Note_off_c, 9, 54, 0
10, 59328, Note_off_c, 9, 42, 0
10, 59328, Note_on_c, 9, 69, 80
10, 59328, Note_on_c, 9, 54, 80
10, 59328, Note_on_c, 9, 46, 70
10, 59424, Note_off_c, 9, 69, 0
10, 59424, Note_off_c, 9, 54, 0
10, 59424, Note_off_c, 9, 46, 0
10, 59520, Note_on_c, 9, 39, 80
10, 59520, Note_on_c, 9, 42, 70
10, 59520, Note_on_c, 9, 69, 80
10, 59520, Note_on_c, 9, 54, 80
10, 59520, Note_on_c, 9, 36, 90
10, 59520, Note_on_c, 9, 38, 90
10, 59616, Note_off_c, 9, 39, 0
10, 59616, Note_off_c, 9, 42, 0
10, 59616, Note_off_c, 9, 69, 0
10, 59616, Note_off_c, 9, 54, 0
10, 59616, Note_off_c, 9, 36, 0
10, 59616, Note_off_c, 9, 38, 0
10, 59616, Note_on_c, 9, 54, 80
10, 59616, Note_on_c, 9, 42, 70
10, 59712, Note_off_c, 9, 54, 0
10, 59712, Note_off_c, 9, 42, 0
10, 59712, Note_on_c, 9, 69, 80
10, 59712, Note_on_c, 9, 54, 80
10, 59712, Note_on_c, 9, 46, 70
10, 59808, Note_off_c, 9, 69, 0
10, 59808, Note_off_c, 9, 54, 0
10, 59808, Note_off_c, 9, 46, 0
10, 59808, Note_on_c, 9, 38, 90
10, 59904, Note_off_c, 9, 38, 0
10, 59904, Note_on_c, 9, 54, 80
10, 59904, Note_on_c, 9, 36, 90
10, 59904, Note_on_c, 9, 38, 90
10, 60000, Note_off_c, 9, 54, 0
10, 60000, Note_off_c, 9, 36, 0
10, 60000, Note_off_c, 9, 38, 0
10, 60000, Note_on_c, 9, 38, 90
10, 60096, Note_off_c, 9, 38, 0
10, 60096, Note_on_c, 9, 54, 80
10, 60096, Note_on_c, 9, 38, 90
10, 60192, Note_off_c, 9, 54, 0
10, 60192, Note_off_c, 9, 38, 0
10, 60192, Note_on_c, 9, 38, 90
10, 60288, Note_off_c, 9, 38, 0
10, 60288, Note_on_c, 9, 54, 80
10, 60288, Note_on_c, 9, 36, 90
10, 60288, Note_on_c, 9, 38, 90
10, 60384, Note_off_c, 9, 54, 0
10, 60384, Note_off_c, 9, 36, 0
10, 60384, Note_off_c, 9, 38, 0
10, 60480, Note_on_c, 9, 54, 80
10, 60480, Note_on_c, 9, 38, 90
10, 60576, Note_off_c, 9, 54, 0
10, 60576, Note_off_c, 9, 38, 0
10, 60576, Note_on_c, 9, 54, 80
10, 60576, Note_on_c, 9, 38, 90
10, 60672, Note_off_c, 9, 54, 0
10, 60672, Note_off_c, 9, 38, 0
10, 60672, Note_on_c, 9, 54, 80
10, 60672, Note_on_c, 9, 36, 90
10, 60768, Note_off_c, 9, 54, 0
10, 60768, Note_off_c, 9, 36, 0
10, 60768, Note_on_c, 9, 38, 90
10, 60864, Note_off_c, 9, 38, 0
10, 60864, Note_on_c, 9, 54, 80
10, 60864, Note_on_c, 9, 38, 90
10, 60960, Note_off_c, 9, 54, 0
10, 60960, Note_off_c, 9, 38, 0
10, 60960, Note_on_c, 9, 38, 90
10, 61056, Note_off_c, 9, 38, 0
10, 61056, Note_on_c, 9, 54, 80
10, 61056, Note_on_c, 9, 36, 90
10, 61056, Note_on_c, 9, 38, 90
10, 61152, Note_off_c, 9, 54, 0
10, 61152, Note_off_c, 9, 36, 0
10, 61152, Note_off_c, 9, 38, 0
10, 61152, Note_on_c, 9, 54, 80
10, 61152, Note_on_c, 9, 38, 90
10, 61248, Note_off_c, 9, 54, 0
10, 61248, Note_off_c, 9, 38, 0
10, 61248, Note_on_c, 9, 54, 80
10, 61248, Note_on_c, 9, 38, 90
10, 61344, Note_off_c, 9, 54, 0
10, 61344, Note_off_c, 9, 38, 0
10, 61344, Note_on_c, 9, 38, 90
10, 61440, Note_off_c, 9, 38, 0
10, 61440, Note_on_c, 9, 69, 80
10, 61440, Note_on_c, 9, 54, 80
10, 61440, Note_on_c, 9, 36, 80
10, 61440, Note_on_c, 9, 42, 70
10, 61536, Note_off_c, 9, 69, 0
10, 61536, Note_off_c, 9, 54, 0
10, 61536, Note_off_c, 9, 36, 0
10, 61536, Note_off_c, 9, 42, 0
10, 61632, Note_on_c, 9, 69, 80
10, 61632, Note_on_c, 9, 54, 90
10, 61632, Note_on_c, 9, 46, 70
10, 61728, Note_off_c, 9, 69, 0
10, 61728, Note_off_c, 9, 54, 0
10, 61728, Note_off_c, 9, 46, 0
10, 61824, Note_on_c, 9, 39, 80
10, 61824, Note_on_c, 9, 69, 80
10, 61824, Note_on_c, 9, 54, 80
10, 61824, Note_on_c, 9, 36, 90
10, 61824, Note_on_c, 9, 42, 70
10, 61824, Note_on_c, 9, 38, 90
10, 61920, Note_off_c, 9, 39, 0
10, 61920, Note_off_c, 9, 69, 0
10, 61920, Note_off_c, 9, 54, 0
10, 61920, Note_off_c, 9, 36, 0
10, 61920, Note_off_c, 9, 42, 0
10, 61920, Note_off_c, 9, 38, 0
10, 62016, Note_on_c, 9, 69, 80
10, 62016, Note_on_c, 9, 54, 80
10, 62016, Note_on_c, 9, 46, 70
10, 62112, Note_off_c, 9, 69, 0
10, 62112, Note_off_c, 9, 54, 0
10, 62112, Note_off_c, 9, 46, 0
10, 62112, Note_on_c, 9, 54, 80
10, 62208, Note_off_c, 9, 54, 0
10, 62208, Note_on_c, 9, 69, 80
10, 62208, Note_on_c, 9, 54, 80
10, 62208, Note_on_c, 9, 36, 90
10, 62208, Note_on_c, 9, 42, 70
10, 62304, Note_off_c, 9, 69, 0
10, 62304, Note_off_c, 9, 54, 0
10, 62304, Note_off_c, 9, 36, 0
10, 62304, Note_off_c, 9, 42, 0
10, 62304, Note_on_c, 9, 54, 80
10, 62304, Note_on_c, 9, 42, 70
10, 62400, Note_off_c, 9, 54, 0
10, 62400, Note_off_c, 9, 42, 0
10, 62400, Note_on_c, 9, 69, 80
10, 62400, Note_on_c, 9, 54, 80
10, 62400, Note_on_c, 9, 46, 70
10, 62496, Note_off_c, 9, 69, 0
10, 62496, Note_off_c, 9, 54, 0
10, 62496, Note_off_c, 9, 46, 0
10, 62592, Note_on_c, 9, 39, 80
10, 62592, Note_on_c, 9, 42, 70
10, 62592, Note_on_c, 9, 69, 80
10, 62592, Note_on_c, 9, 54, 80
10, 62592, Note_on_c, 9, 36, 90
10, 62592, Note_on_c, 9, 38, 90
10, 62688, Note_off_c, 9, 39, 0
10, 62688, Note_off_c, 9, 42, 0
10, 62688, Note_off_c, 9, 69, 0
10, 62688, Note_off_c, 9, 54, 0
10, 62688, Note_off_c, 9, 36, 0
10, 62688, Note_off_c, 9, 38, 0
10, 62688, Note_on_c, 9, 54, 80
10, 62688, Note_on_c, 9, 42, 70
10, 62784, Note_off_c, 9, 54, 0
10, 62784, Note_off_c, 9, 42, 0
10, 62784, Note_on_c, 9, 69, 80
10, 62784, Note_on_c, 9, 54, 80
10, 62784, Note_on_c, 9, 46, 70
10, 62880, Note_off_c, 9, 69, 0
10, 62880, Note_off_c, 9, 54, 0
10, 62880, Note_off_c, 9, 46, 0
10, 62880, Note_on_c, 9, 38, 90
10, 62976, Note_off_c, 9, 38, 0
10, 62976, Note_on_c, 9, 69, 80
10, 62976, Note_on_c, 9, 54, 80
10, 62976, Note_on_c, 9, 36, 90
10, 62976, Note_on_c, 9, 42, 70
10, 63072, Note_off_c, 9, 69, 0
10, 63072, Note_off_c, 9, 54, 0
10, 63072, Note_off_c, 9, 36, 0
10, 63072, Note_off_c, 9, 42, 0
10, 63168, Note_on_c, 9, 69, 80
10, 63168, Note_on_c, 9, 54, 90
10, 63168, Note_on_c, 9, 46, 70
10, 63264, Note_off_c, 9, 69, 0
10, 63264, Note_off_c, 9, 54, 0
10, 63264, Note_off_c, 9, 46, 0
10, 63360, Note_on_c, 9, 39, 80
10, 63360, Note_on_c, 9, 69, 80
10, 63360, Note_on_c, 9, 54, 80
10, 63360, Note_on_c, 9, 36, 90
10, 63360, Note_on_c, 9, 42, 70
10, 63360, Note_on_c, 9, 38, 90
10, 63456, Note_off_c, 9, 39, 0
10, 63456, Note_off_c, 9, 69, 0
10, 63456, Note_off_c, 9, 54, 0
10, 63456, Note_off_c, 9, 36, 0
10, 63456, Note_off_c, 9, 42, 0
10, 63456, Note_off_c, 9, 38, 0
10, 63552, Note_on_c, 9, 69, 80
10, 63552, Note_on_c, 9, 54, 80
10, 63552, Note_on_c, 9, 46, 70
10, 63648, Note_off_c, 9, 69, 0
10, 63648, Note_off_c, 9, 54, 0
10, 63648, Note_off_c, 9, 46, 0
10, 63648, Note_on_c, 9, 54, 80
10, 63744, Note_off_c, 9, 54, 0
10, 63744, Note_on_c, 9, 69, 80
10, 63744, Note_on_c, 9, 54, 80
10, 63744, Note_on_c, 9, 36, 90
10, 63744, Note_on_c, 9, 42, 70
10, 63840, Note_off_c, 9, 69, 0
10, 63840, Note_off_c, 9, 54, 0
10, 63840, Note_off_c, 9, 36, 0
10, 63840, Note_off_c, 9, 42, 0
10, 63840, Note_on_c, 9, 54, 80
10, 63840, Note_on_c, 9, 42, 70
10, 63936, Note_off_c, 9, 54, 0
10, 63936, Note_off_c, 9, 42, 0
10, 63936, Note_on_c, 9, 69, 80
10, 63936, Note_on_c, 9, 54, 80
10, 63936, Note_on_c, 9, 46, 70
10, 64032, Note_off_c, 9, 69, 0
10, 64032, Note_off_c, 9, 54, 0
10, 64032, Note_off_c, 9, 46, 0
10, 64128, Note_on_c, 9, 39, 80
10, 64128, Note_on_c, 9, 42, 70
10, 64128, Note_on_c, 9, 69, 80
10, 64128, Note_on_c, 9, 54, 80
10, 64128, Note_on_c, 9, 36, 90
10, 64128, Note_on_c, 9, 38, 90
10, 64224, Note_off_c, 9, 39, 0
10, 64224, Note_off_c, 9, 42, 0
10, 64224, Note_off_c, 9, 69, 0
10, 64224, Note_off_c, 9, 54, 0
10, 64224, Note_off_c, 9, 36, 0
10, 64224, Note_off_c, 9, 38, 0
10, 64224, Note_on_c, 9, 54, 80
10, 64224, Note_on_c, 9, 42, 70
10, 64320, Note_off_c, 9, 54, 0
10, 64320, Note_off_c, 9, 42, 0
10, 64320, Note_on_c, 9, 38, 80
10, 64320, Note_on_c, 9, 69, 80
10, 64320, Note_on_c, 9, 54, 80
10, 64320, Note_on_c, 9, 46, 70
10, 64416, Note_off_c, 9, 38, 0
10, 64416, Note_off_c, 9, 69, 0
10, 64416, Note_off_c, 9, 54, 0
10, 64416, Note_off_c, 9, 46, 0
10, 64416, Note_on_c, 9, 38, 90
10, 64512, Note_off_c, 9, 38, 0
10, 64512, Note_on_c, 9, 69, 80
10, 64512, Note_on_c, 9, 54, 80
10, 64512, Note_on_c, 9, 36, 80
10, 64512, Note_on_c, 9, 42, 70
10, 64608, Note_off_c, 9, 69, 0
10, 64608, Note_off_c, 9, 54, 0
10, 64608, Note_off_c, 9, 36, 0
10, 64608, Note_off_c, 9, 42, 0
10, 64704, Note_on_c, 9, 69, 80
10, 64704, Note_on_c, 9, 54, 90
10, 64704, Note_on_c, 9, 46, 70
10, 64800, Note_off_c, 9, 69, 0
10, 64800, Note_off_c, 9, 54, 0
10, 64800, Note_off_c, 9, 46, 0
10, 64896, Note_on_c, 9, 39, 80
10, 64896, Note_on_c, 9, 69, 80
10, 64896, Note_on_c, 9, 54, 80
10, 64896, Note_on_c, 9, 36, 90
10, 64896, Note_on_c, 9, 42, 70
10, 64896, Note_on_c, 9, 38, 90
10, 64992, Note_off_c, 9, 39, 0
10, 64992, Note_off_c, 9, 69, 0
10, 64992, Note_off_c, 9, 54, 0
10, 64992, Note_off_c, 9, 36, 0
10, 64992, Note_off_c, 9, 42, 0
10, 64992, Note_off_c, 9, 38, 0
10, 65088, Note_on_c, 9, 69, 80
10, 65088, Note_on_c, 9, 54, 80
10, 65088, Note_on_c, 9, 46, 70
10, 65184, Note_off_c, 9, 69, 0
10, 65184, Note_off_c, 9, 54, 0
10, 65184, Note_off_c, 9, 46, 0
10, 65184, Note_on_c, 9, 54, 80
10, 65280, Note_off_c, 9, 54, 0
10, 65280, Note_on_c, 9, 69, 80
10, 65280, Note_on_c, 9, 54, 80
10, 65280, Note_on_c, 9, 36, 90
10, 65280, Note_on_c, 9, 42, 70
10, 65376, Note_off_c, 9, 69, 0
10, 65376, Note_off_c, 9, 54, 0
10, 65376, Note_off_c, 9, 36, 0
10, 65376, Note_off_c, 9, 42, 0
10, 65376, Note_on_c, 9, 54, 80
10, 65376, Note_on_c, 9, 42, 70
10, 65472, Note_off_c, 9, 54, 0
10, 65472, Note_off_c, 9, 42, 0
10, 65472, Note_on_c, 9, 69, 80
10, 65472, Note_on_c, 9, 54, 80
10, 65472, Note_on_c, 9, 46, 70
10, 65568, Note_off_c, 9, 69, 0
10, 65568, Note_off_c, 9, 54, 0
10, 65568, Note_off_c, 9, 46, 0
10, 65664, Note_on_c, 9, 39, 80
10, 65664, Note_on_c, 9, 42, 70
10, 65664, Note_on_c, 9, 69, 80
10, 65664, Note_on_c, 9, 54, 80
10, 65664, Note_on_c, 9, 36, 90
10, 65664, Note_on_c, 9, 38, 90
10, 65760, Note_off_c, 9, 39, 0
10, 65760, Note_off_c, 9, 42, 0
10, 65760, Note_off_c, 9, 69, 0
10, 65760, Note_off_c, 9, 54, 0
10, 65760, Note_off_c, 9, 36, 0
10, 65760, Note_off_c, 9, 38, 0
10, 65760, Note_on_c, 9, 54, 80
10, 65760, Note_on_c, 9, 42, 70
10, 65856, Note_off_c, 9, 54, 0
10, 65856, Note_off_c, 9, 42, 0
10, 65856, Note_on_c, 9, 69, 80
10, 65856, Note_on_c, 9, 54, 80
10, 65856, Note_on_c, 9, 46, 70
10, 65952, Note_off_c, 9, 69, 0
10, 65952, Note_off_c, 9, 54, 0
10, 65952, Note_off_c, 9, 46, 0
10, 65952, Note_on_c, 9, 38, 90
10, 66048, Note_off_c, 9, 38, 0
10, 66048, Note_on_c, 9, 69, 80
10, 66048, Note_on_c, 9, 54, 80
10, 66048, Note_on_c, 9, 36, 90
10, 66048, Note_on_c, 9, 42, 70
10, 66144, Note_off_c, 9, 69, 0
10, 66144, Note_off_c, 9, 54, 0
10, 66144, Note_off_c, 9, 36, 0
10, 66144, Note_off_c, 9, 42, 0
10, 66240, Note_on_c, 9, 69, 80
10, 66240, Note_on_c, 9, 54, 90
10, 66240, Note_on_c, 9, 46, 70
10, 66336, Note_off_c, 9, 69, 0
10, 66336, Note_off_c, 9, 54, 0
10, 66336, Note_off_c, 9, 46, 0
10, 66432, Note_on_c, 9, 39, 80
10, 66432, Note_on_c, 9, 69, 80
10, 66432, Note_on_c, 9, 54, 80
10, 66432, Note_on_c, 9, 36, 90
10, 66432, Note_on_c, 9, 42, 70
10, 66432, Note_on_c, 9, 38, 90
10, 66528, Note_off_c, 9, 39, 0
10, 66528, Note_off_c, 9, 69, 0
10, 66528, Note_off_c, 9, 54, 0
10, 66528, Note_off_c, 9, 36, 0
10, 66528, Note_off_c, 9, 42, 0
10, 66528, Note_off_c, 9, 38, 0
10, 66624, Note_on_c, 9, 69, 80
10, 66624, Note_on_c, 9, 54, 80
10, 66624, Note_on_c, 9, 46, 70
10, 66720, Note_off_c, 9, 69, 0
10, 66720, Note_off_c, 9, 54, 0
10, 66720, Note_off_c, 9, 46, 0
10, 66720, Note_on_c, 9, 54, 80
10, 66816, Note_off_c, 9, 54, 0
10, 66816, Note_on_c, 9, 69, 80
10, 66816, Note_on_c, 9, 54, 80
10, 66816, Note_on_c, 9, 36, 90
10, 66816, Note_on_c, 9, 42, 70
10, 66912, Note_off_c, 9, 69, 0
10, 66912, Note_off_c, 9, 54, 0
10, 66912, Note_off_c, 9, 36, 0
10, 66912, Note_off_c, 9, 42, 0
10, 66912, Note_on_c, 9, 54, 80
10, 66912, Note_on_c, 9, 42, 70
10, 67008, Note_off_c, 9, 54, 0
10, 67008, Note_off_c, 9, 42, 0
10, 67008, Note_on_c, 9, 69, 80
10, 67008, Note_on_c, 9, 54, 80
10, 67008, Note_on_c, 9, 46, 70
10, 67104, Note_off_c, 9, 69, 0
10, 67104, Note_off_c, 9, 54, 0
10, 67104, Note_off_c, 9, 46, 0
10, 67200, Note_on_c, 9, 39, 80
10, 67200, Note_on_c, 9, 42, 70
10, 67200, Note_on_c, 9, 69, 80
10, 67200, Note_on_c, 9, 54, 80
10, 67200, Note_on_c, 9, 36, 90
10, 67200, Note_on_c, 9, 38, 90
10, 67296, Note_off_c, 9, 39, 0
10, 67296, Note_off_c, 9, 42, 0
10, 67296, Note_off_c, 9, 69, 0
10, 67296, Note_off_c, 9, 54, 0
10, 67296, Note_off_c, 9, 36, 0
10, 67296, Note_off_c, 9, 38, 0
10, 67296, Note_on_c, 9, 54, 80
10, 67296, Note_on_c, 9, 42, 70
10, 67392, Note_off_c, 9, 54, 0
10, 67392, Note_off_c, 9, 42, 0
10, 67392, Note_on_c, 9, 38, 80
10, 67392, Note_on_c, 9, 69, 80
10, 67392, Note_on_c, 9, 54, 80
10, 67392, Note_on_c, 9, 46, 70
10, 67488, Note_off_c, 9, 38, 0
10, 67488, Note_off_c, 9, 69, 0
10, 67488, Note_off_c, 9, 54, 0
10, 67488, Note_off_c, 9, 46, 0
10, 67488, Note_on_c, 9, 38, 90
10, 67584, Note_off_c, 9, 38, 0
10, 67584, Note_on_c, 9, 69, 80
10, 67584, Note_on_c, 9, 54, 80
10, 67584, Note_on_c, 9, 36, 80
10, 67584, Note_on_c, 9, 42, 70
10, 67680, Note_off_c, 9, 69, 0
10, 67680, Note_off_c, 9, 54, 0
10, 67680, Note_off_c, 9, 36, 0
10, 67680, Note_off_c, 9, 42, 0
10, 67776, Note_on_c, 9, 69, 80
10, 67776, Note_on_c, 9, 54, 90
10, 67776, Note_on_c, 9, 46, 70
10, 67872, Note_off_c, 9, 69, 0
10, 67872, Note_off_c, 9, 54, 0
10, 67872, Note_off_c, 9, 46, 0
10, 67968, Note_on_c, 9, 39, 80
10, 67968, Note_on_c, 9, 69, 80
10, 67968, Note_on_c, 9, 54, 80
10, 67968, Note_on_c, 9, 36, 90
10, 67968, Note_on_c, 9, 42, 70
10, 67968, Note_on_c, 9, 38, 90
10, 68064, Note_off_c, 9, 39, 0
10, 68064, Note_off_c, 9, 69, 0
10, 68064, Note_off_c, 9, 54, 0
10, 68064, Note_off_c, 9, 36, 0
10, 68064, Note_off_c, 9, 42, 0
10, 68064, Note_off_c, 9, 38, 0
10, 68160, Note_on_c, 9, 69, 80
10, 68160, Note_on_c, 9, 54, 80
10, 68160, Note_on_c, 9, 46, 70
10, 68256, Note_off_c, 9, 69, 0
10, 68256, Note_off_c, 9, 54, 0
10, 68256, Note_off_c, 9, 46, 0
10, 68256, Note_on_c, 9, 54, 80
10, 68352, Note_off_c, 9, 54, 0
10, 68352, Note_on_c, 9, 69, 80
10, 68352, Note_on_c, 9, 54, 80
10, 68352, Note_on_c, 9, 36, 90
10, 68352, Note_on_c, 9, 42, 70
10, 68448, Note_off_c, 9, 69, 0
10, 68448, Note_off_c, 9, 54, 0
10, 68448, Note_off_c, 9, 36, 0
10, 68448, Note_off_c, 9, 42, 0
10, 68448, Note_on_c, 9, 54, 80
10, 68448, Note_on_c, 9, 42, 70
10, 68544, Note_off_c, 9, 54, 0
10, 68544, Note_off_c, 9, 42, 0
10, 68544, Note_on_c, 9, 69, 80
10, 68544, Note_on_c, 9, 54, 80
10, 68544, Note_on_c, 9, 46, 70
10, 68640, Note_off_c, 9, 69, 0
10, 68640, Note_off_c, 9, 54, 0
10, 68640, Note_off_c, 9, 46, 0
10, 68736, Note_on_c, 9, 39, 80
10, 68736, Note_on_c, 9, 42, 70
10, 68736, Note_on_c, 9, 69, 80
10, 68736, Note_on_c, 9, 54, 80
10, 68736, Note_on_c, 9, 36, 90
10, 68736, Note_on_c, 9, 38, 90
10, 68832, Note_off_c, 9, 39, 0
10, 68832, Note_off_c, 9, 42, 0
10, 68832, Note_off_c, 9, 69, 0
10, 68832, Note_off_c, 9, 54, 0
10, 68832, Note_off_c, 9, 36, 0
10, 68832, Note_off_c, 9, 38, 0
10, 68832, Note_on_c, 9, 54, 80
10, 68832, Note_on_c, 9, 42, 70
10, 68928, Note_off_c, 9, 54, 0
10, 68928, Note_off_c, 9, 42, 0
10, 68928, Note_on_c, 9, 69, 80
10, 68928, Note_on_c, 9, 54, 80
10, 68928, Note_on_c, 9, 46, 70
10, 69024, Note_off_c, 9, 69, 0
10, 69024, Note_off_c, 9, 54, 0
10, 69024, Note_off_c, 9, 46, 0
10, 69024, Note_on_c, 9, 38, 90
10, 69120, Note_off_c, 9, 38, 0
10, 69120, Note_on_c, 9, 69, 80
10, 69120, Note_on_c, 9, 54, 80
10, 69120, Note_on_c, 9, 36, 90
10, 69120, Note_on_c, 9, 42, 70
10, 69216, Note_off_c, 9, 69, 0
10, 69216, Note_off_c, 9, 54, 0
10, 69216, Note_off_c, 9, 36, 0
10, 69216, Note_off_c, 9, 42, 0
10, 69312, Note_on_c, 9, 69, 80
10, 69312, Note_on_c, 9, 54, 90
10, 69312, Note_on_c, 9, 46, 70
10, 69408, Note_off_c, 9, 69, 0
10, 69408, Note_off_c, 9, 54, 0
10, 69408, Note_off_c, 9, 46, 0
10, 69504, Note_on_c, 9, 39, 80
10, 69504, Note_on_c, 9, 69, 80
10, 69504, Note_on_c, 9, 54, 80
10, 69504, Note_on_c, 9, 36, 90
10, 69504, Note_on_c, 9, 42, 70
10, 69504, Note_on_c, 9, 38, 90
10, 69600, Note_off_c, 9, 39, 0
10, 69600, Note_off_c, 9, 69, 0
10, 69600, Note_off_c, 9, 54, 0
10, 69600, Note_off_c, 9, 36, 0
10, 69600, Note_off_c, 9, 42, 0
10, 69600, Note_off_c, 9, 38, 0
10, 69696, Note_on_c, 9, 69, 80
10, 69696, Note_on_c, 9, 54, 80
10, 69696, Note_on_c, 9, 46, 70
10, 69792, Note_off_c, 9, 69, 0
10, 69792, Note_off_c, 9, 54, 0
10, 69792, Note_off_c, 9, 46, 0
10, 69792, Note_on_c, 9, 54, 80
10, 69888, Note_off_c, 9, 54, 0
10, 69888, Note_on_c, 9, 69, 80
10, 69888, Note_on_c, 9, 54, 80
10, 69888, Note_on_c, 9, 36, 90
10, 69888, Note_on_c, 9, 42, 70
10, 69984, Note_off_c, 9, 69, 0
10, 69984, Note_off_c, 9, 54, 0
10, 69984, Note_off_c, 9, 36, 0
10, 69984, Note_off_c, 9, 42, 0
10, 69984, Note_on_c, 9, 54, 80
10, 69984, Note_on_c, 9, 42, 70
10, 70080, Note_off_c, 9, 54, 0
10, 70080, Note_off_c, 9, 42, 0
10, 70080, Note_on_c, 9, 69, 80
10, 70080, Note_on_c, 9, 54, 80
10, 70080, Note_on_c, 9, 46, 70
10, 70176, Note_off_c, 9, 69, 0
10, 70176, Note_off_c, 9, 54, 0
10, 70176, Note_off_c, 9, 46, 0
10, 70272, Note_on_c, 9, 39, 80
10, 70272, Note_on_c, 9, 42, 70
10, 70272, Note_on_c, 9, 69, 80
10, 70272, Note_on_c, 9, 54, 80
10, 70272, Note_on_c, 9, 36, 90
10, 70272, Note_on_c, 9, 38, 90
10, 70368, Note_off_c, 9, 39, 0
10, 70368, Note_off_c, 9, 42, 0
10, 70368, Note_off_c, 9, 69, 0
10, 70368, Note_off_c, 9, 54, 0
10, 70368, Note_off_c, 9, 36, 0
10, 70368, Note_off_c, 9, 38, 0
10, 70368, Note_on_c, 9, 54, 80
10, 70368, Note_on_c, 9, 42, 70
10, 70464, Note_off_c, 9, 54, 0
10, 70464, Note_off_c, 9, 42, 0
10, 70464, Note_on_c, 9, 38, 80
10, 70464, Note_on_c, 9, 69, 80
10, 70464, Note_on_c, 9, 54, 80
10, 70464, Note_on_c, 9, 46, 70
10, 70560, Note_off_c, 9, 38, 0
10, 70560, Note_off_c, 9, 69, 0
10, 70560, Note_off_c, 9, 54, 0
10, 70560, Note_off_c, 9, 46, 0
10, 70560, Note_on_c, 9, 38, 90
10, 70656, Note_off_c, 9, 38, 0
10, 70656, Note_on_c, 9, 69, 80
10, 70656, Note_on_c, 9, 54, 80
10, 70656, Note_on_c, 9, 36, 80
10, 70656, Note_on_c, 9, 42, 70
10, 70752, Note_off_c, 9, 69, 0
10, 70752, Note_off_c, 9, 54, 0
10, 70752, Note_off_c, 9, 36, 0
10, 70752, Note_off_c, 9, 42, 0
10, 70848, Note_on_c, 9, 69, 80
10, 70848, Note_on_c, 9, 54, 90
10, 70848, Note_on_c, 9, 46, 70
10, 70944, Note_off_c, 9, 69, 0
10, 70944, Note_off_c, 9, 54, 0
10, 70944, Note_off_c, 9, 46, 0
10, 71040, Note_on_c, 9, 39, 80
10, 71040, Note_on_c, 9, 69, 80
10, 71040, Note_on_c, 9, 54, 80
10, 71040, Note_on_c, 9, 36, 90
10, 71040, Note_on_c, 9, 42, 70
10, 71040, Note_on_c, 9, 38, 90
10, 71136, Note_off_c, 9, 39, 0
10, 71136, Note_off_c, 9, 69, 0
10, 71136, Note_off_c, 9, 54, 0
10, 71136, Note_off_c, 9, 36, 0
10, 71136, Note_off_c, 9, 42, 0
10, 71136, Note_off_c, 9, 38, 0
10, 71232, Note_on_c, 9, 69, 80
10, 71232, Note_on_c, 9, 54, 80
10, 71232, Note_on_c, 9, 46, 70
10, 71328, Note_off_c, 9, 69, 0
10, 71328, Note_off_c, 9, 54, 0
10, 71328, Note_off_c, 9, 46, 0
10, 71328, Note_on_c, 9, 54, 80
10, 71424, Note_off_c, 9, 54, 0
10, 71424, Note_on_c, 9, 69, 80
10, 71424, Note_on_c, 9, 54, 80
10, 71424, Note_on_c, 9, 36, 90
10, 71424, Note_on_c, 9, 42, 70
10, 71520, Note_off_c, 9, 69, 0
10, 71520, Note_off_c, 9, 54, 0
10, 71520, Note_off_c, 9, 36, 0
10, 71520, Note_off_c, 9, 42, 0
10, 71520, Note_on_c, 9, 54, 80
10, 71520, Note_on_c, 9, 42, 70
10, 71616, Note_off_c, 9, 54, 0
10, 71616, Note_off_c, 9, 42, 0
10, 71616, Note_on_c, 9, 69, 80
10, 71616, Note_on_c, 9, 54, 80
10, 71616, Note_on_c, 9, 46, 70
10, 71712, Note_off_c, 9, 69, 0
10, 71712, Note_off_c, 9, 54, 0
10, 71712, Note_off_c, 9, 46, 0
10, 71808, Note_on_c, 9, 39, 80
10, 71808, Note_on_c, 9, 42, 70
10, 71808, Note_on_c, 9, 69, 80
10, 71808, Note_on_c, 9, 54, 80
10, 71808, Note_on_c, 9, 36, 90
10, 71808, Note_on_c, 9, 38, 90
10, 71904, Note_off_c, 9, 39, 0
10, 71904, Note_off_c, 9, 42, 0
10, 71904, Note_off_c, 9, 69, 0
10, 71904, Note_off_c, 9, 54, 0
10, 71904, Note_off_c, 9, 36, 0
10, 71904, Note_off_c, 9, 38, 0
10, 71904, Note_on_c, 9, 54, 80
10, 71904, Note_on_c, 9, 42, 70
10, 72000, Note_off_c, 9, 54, 0
10, 72000, Note_off_c, 9, 42, 0
10, 72000, Note_on_c, 9, 69, 80
10, 72000, Note_on_c, 9, 54, 80
10, 72000, Note_on_c, 9, 46, 70
10, 72096, Note_off_c, 9, 69, 0
10, 72096, Note_off_c, 9, 54, 0
10, 72096, Note_off_c, 9, 46, 0
10, 72096, Note_on_c, 9, 38, 90
10, 72192, Note_off_c, 9, 38, 0
10, 72192, Note_on_c, 9, 69, 80
10, 72192, Note_on_c, 9, 54, 80
10, 72192, Note_on_c, 9, 36, 90
10, 72192, Note_on_c, 9, 42, 70
10, 72288, Note_off_c, 9, 69, 0
10, 72288, Note_off_c, 9, 54, 0
10, 72288, Note_off_c, 9, 36, 0
10, 72288, Note_off_c, 9, 42, 0
10, 72384, Note_on_c, 9, 69, 80
10, 72384, Note_on_c, 9, 54, 90
10, 72384, Note_on_c, 9, 46, 70
10, 72480, Note_off_c, 9, 69, 0
10, 72480, Note_off_c, 9, 54, 0
10, 72480, Note_off_c, 9, 46, 0
10, 72576, Note_on_c, 9, 39, 80
10, 72576, Note_on_c, 9, 69, 80
10, 72576, Note_on_c, 9, 54, 80
10, 72576, Note_on_c, 9, 36, 90
10, 72576, Note_on_c, 9, 42, 70
10, 72576, Note_on_c, 9, 38, 90
10, 72672, Note_off_c, 9, 39, 0
10, 72672, Note_off_c, 9, 69, 0
10, 72672, Note_off_c, 9, 54, 0
10, 72672, Note_off_c, 9, 36, 0
10, 72672, Note_off_c, 9, 42, 0
10, 72672, Note_off_c, 9, 38, 0
10, 72768, Note_on_c, 9, 69, 80
10, 72768, Note_on_c, 9, 54, 80
10, 72768, Note_on_c, 9, 46, 70
10, 72864, Note_off_c, 9, 69, 0
10, 72864, Note_off_c, 9, 54, 0
10, 72864, Note_off_c, 9, 46, 0
10, 72864, Note_on_c, 9, 54, 80
10, 72960, Note_off_c, 9, 54, 0
10, 72960, Note_on_c, 9, 69, 80
10, 72960, Note_on_c, 9, 54, 80
10, 72960, Note_on_c, 9, 36, 90
10, 72960, Note_on_c, 9, 42, 70
10, 73056, Note_off_c, 9, 69, 0
10, 73056, Note_off_c, 9, 54, 0
10, 73056, Note_off_c, 9, 36, 0
10, 73056, Note_off_c, 9, 42, 0
10, 73056, Note_on_c, 9, 54, 80
10, 73056, Note_on_c, 9, 42, 70
10, 73152, Note_off_c, 9, 54, 0
10, 73152, Note_off_c, 9, 42, 0
10, 73152, Note_on_c, 9, 69, 80
10, 73152, Note_on_c, 9, 54, 80
10, 73152, Note_on_c, 9, 46, 70
10, 73248, Note_off_c, 9, 69, 0
10, 73248, Note_off_c, 9, 54, 0
10, 73248, Note_off_c, 9, 46, 0
10, 73344, Note_on_c, 9, 39, 80
10, 73344, Note_on_c, 9, 42, 70
10, 73344, Note_on_c, 9, 69, 80
10, 73344, Note_on_c, 9, 54, 80
10, 73344, Note_on_c, 9, 36, 90
10, 73344, Note_on_c, 9, 38, 90
10, 73440, Note_off_c, 9, 39, 0
10, 73440, Note_off_c, 9, 42, 0
10, 73440, Note_off_c, 9, 69, 0
10, 73440, Note_off_c, 9, 54, 0
10, 73440, Note_off_c, 9, 36, 0
10, 73440, Note_off_c, 9, 38, 0
10, 73440, Note_on_c, 9, 54, 80
10, 73440, Note_on_c, 9, 42, 70
10, 73536, Note_off_c, 9, 54, 0
10, 73536, Note_off_c, 9, 42, 0
10, 73536, Note_on_c, 9, 38, 80
10, 73536, Note_on_c, 9, 69, 80
10, 73536, Note_on_c, 9, 54, 80
10, 73536, Note_on_c, 9, 46, 70
10, 73632, Note_off_c, 9, 38, 0
10, 73632, Note_off_c, 9, 69, 0
10, 73632, Note_off_c, 9, 54, 0
10, 73632, Note_off_c, 9, 46, 0
10, 73632, Note_on_c, 9, 38, 90
10, 73728, Note_off_c, 9, 38, 0
10, 73728, Note_on_c, 9, 69, 80
10, 73728, Note_on_c, 9, 54, 80
10, 73728, Note_on_c, 9, 36, 80
10, 73728, Note_on_c, 9, 42, 70
10, 73824, Note_off_c, 9, 69, 0
10, 73824, Note_off_c, 9, 54, 0
10, 73824, Note_off_c, 9, 36, 0
10, 73824, Note_off_c, 9, 42, 0
10, 73920, Note_on_c, 9, 69, 80
10, 73920, Note_on_c, 9, 54, 90
10, 73920, Note_on_c, 9, 46, 70
10, 74016, Note_off_c, 9, 69, 0
10, 74016, Note_off_c, 9, 54, 0
10, 74016, Note_off_c, 9, 46, 0
10, 74112, Note_on_c, 9, 39, 80
10, 74112, Note_on_c, 9, 69, 80
10, 74112, Note_on_c, 9, 54, 80
10, 74112, Note_on_c, 9, 36, 90
10, 74112, Note_on_c, 9, 42, 70
10, 74112, Note_on_c, 9, 38, 90
10, 74208, Note_off_c, 9, 39, 0
10, 74208, Note_off_c, 9, 69, 0
10, 74208, Note_off_c, 9, 54, 0
10, 74208, Note_off_c, 9, 36, 0
10, 74208, Note_off_c, 9, 42, 0
10, 74208, Note_off_c, 9, 38, 0
10, 74304, Note_on_c, 9, 69, 80
10, 74304, Note_on_c, 9, 54, 80
10, 74304, Note_on_c, 9, 46, 70
10, 74400, Note_off_c, 9, 69, 0
10, 74400, Note_off_c, 9, 54, 0
10, 74400, Note_off_c, 9, 46, 0
10, 74400, Note_on_c, 9, 54, 80
10, 74496, Note_off_c, 9, 54, 0
10, 74496, Note_on_c, 9, 69, 80
10, 74496, Note_on_c, 9, 54, 80
10, 74496, Note_on_c, 9, 36, 90
10, 74496, Note_on_c, 9, 42, 70
10, 74592, Note_off_c, 9, 69, 0
10, 74592, Note_off_c, 9, 54, 0
10, 74592, Note_off_c, 9, 36, 0
10, 74592, Note_off_c, 9, 42, 0
10, 74592, Note_on_c, 9, 54, 80
10, 74592, Note_on_c, 9, 42, 70
10, 74688, Note_off_c, 9, 54, 0
10, 74688, Note_off_c, 9, 42, 0
10, 74688, Note_on_c, 9, 69, 80
10, 74688, Note_on_c, 9, 54, 80
10, 74688, Note_on_c, 9, 46, 70
10, 74784, Note_off_c, 9, 69, 0
10, 74784, Note_off_c, 9, 54, 0
10, 74784, Note_off_c, 9, 46, 0
10, 74880, Note_on_c, 9, 39, 80
10, 74880, Note_on_c, 9, 42, 70
10, 74880, Note_on_c, 9, 69, 80
10, 74880, Note_on_c, 9, 54, 80
10, 74880, Note_on_c, 9, 36, 90
10, 74880, Note_on_c, 9, 38, 90
10, 74976, Note_off_c, 9, 39, 0
10, 74976, Note_off_c, 9, 42, 0
10, 74976, Note_off_c, 9, 69, 0
10, 74976, Note_off_c, 9, 54, 0
10, 74976, Note_off_c, 9, 36, 0
10, 74976, Note_off_c, 9, 38, 0
10, 74976, Note_on_c, 9, 54, 80
10, 74976, Note_on_c, 9, 42, 70
10, 75072, Note_off_c, 9, 54, 0
10, 75072, Note_off_c, 9, 42, 0
10, 75072, Note_on_c, 9, 69, 80
10, 75072, Note_on_c, 9, 54, 80
10, 75072, Note_on_c, 9, 46, 70
10, 75168, Note_off_c, 9, 69, 0
10, 75168, Note_off_c, 9, 54, 0
10, 75168, Note_off_c, 9, 46, 0
10, 75168, Note_on_c, 9, 38, 90
10, 75264, Note_off_c, 9, 38, 0
10, 75264, Note_on_c, 9, 69, 80
10, 75264, Note_on_c, 9, 54, 80
10, 75264, Note_on_c, 9, 36, 90
10, 75264, Note_on_c, 9, 42, 70
10, 75360, Note_off_c, 9, 69, 0
10, 75360, Note_off_c, 9, 54, 0
10, 75360, Note_off_c, 9, 36, 0
10, 75360, Note_off_c, 9, 42, 0
10, 75456, Note_on_c, 9, 69, 80
10, 75456, Note_on_c, 9, 54, 90
10, 75456, Note_on_c, 9, 46, 70
10, 75552, Note_off_c, 9, 69, 0
10, 75552, Note_off_c, 9, 54, 0
10, 75552, Note_off_c, 9, 46, 0
10, 75648, Note_on_c, 9, 39, 80
10, 75648, Note_on_c, 9, 69, 80
10, 75648, Note_on_c, 9, 54, 80
10, 75648, Note_on_c, 9, 36, 90
10, 75648, Note_on_c, 9, 42, 70
10, 75648, Note_on_c, 9, 38, 90
10, 75744, Note_off_c, 9, 39, 0
10, 75744, Note_off_c, 9, 69, 0
10, 75744, Note_off_c, 9, 54, 0
10, 75744, Note_off_c, 9, 36, 0
10, 75744, Note_off_c, 9, 42, 0
10, 75744, Note_off_c, 9, 38, 0
10, 75840, Note_on_c, 9, 69, 80
10, 75840, Note_on_c, 9, 54, 80
10, 75840, Note_on_c, 9, 46, 70
10, 75936, Note_off_c, 9, 69, 0
10, 75936, Note_off_c, 9, 54, 0
10, 75936, Note_off_c, 9, 46, 0
10, 75936, Note_on_c, 9, 54, 80
10, 76032, Note_off_c, 9, 54, 0
10, 76032, Note_on_c, 9, 69, 80
10, 76032, Note_on_c, 9, 54, 80
10, 76032, Note_on_c, 9, 36, 90
10, 76032, Note_on_c, 9, 42, 70
10, 76128, Note_off_c, 9, 69, 0
10, 76128, Note_off_c, 9, 54, 0
10, 76128, Note_off_c, 9, 36, 0
10, 76128, Note_off_c, 9, 42, 0
10, 76128, Note_on_c, 9, 54, 80
10, 76128, Note_on_c, 9, 42, 70
10, 76224, Note_off_c, 9, 54, 0
10, 76224, Note_off_c, 9, 42, 0
10, 76224, Note_on_c, 9, 69, 80
10, 76224, Note_on_c, 9, 54, 80
10, 76224, Note_on_c, 9, 46, 70
10, 76320, Note_off_c, 9, 69, 0
10, 76320, Note_off_c, 9, 54, 0
10, 76320, Note_off_c, 9, 46, 0
10, 76416, Note_on_c, 9, 39, 80
10, 76416, Note_on_c, 9, 42, 70
10, 76416, Note_on_c, 9, 69, 80
10, 76416, Note_on_c, 9, 54, 80
10, 76416, Note_on_c, 9, 36, 90
10, 76416, Note_on_c, 9, 38, 90
10, 76512, Note_off_c, 9, 39, 0
10, 76512, Note_off_c, 9, 42, 0
10, 76512, Note_off_c, 9, 69, 0
10, 76512, Note_off_c, 9, 54, 0
10, 76512, Note_off_c, 9, 36, 0
10, 76512, Note_off_c, 9, 38, 0
10, 76512, Note_on_c, 9, 54, 80
10, 76512, Note_on_c, 9, 42, 70
10, 76608, Note_off_c, 9, 54, 0
10, 76608, Note_off_c, 9, 42, 0
10, 76608, Note_on_c, 9, 38, 80
10, 76608, Note_on_c, 9, 69, 80
10, 76608, Note_on_c, 9, 54, 80
10, 76608, Note_on_c, 9, 46, 70
10, 76704, Note_off_c, 9, 38, 0
10, 76704, Note_off_c, 9, 69, 0
10, 76704, Note_off_c, 9, 54, 0
10, 76704, Note_off_c, 9, 46, 0
10, 76704, Note_on_c, 9, 38, 90
10, 76800, Note_off_c, 9, 38, 0
10, 76800, Note_on_c, 9, 69, 80
10, 76800, Note_on_c, 9, 54, 80
10, 76800, Note_on_c, 9, 36, 80
10, 76800, Note_on_c, 9, 42, 70
10, 76896, Note_off_c, 9, 69, 0
10, 76896, Note_off_c, 9, 54, 0
10, 76896, Note_off_c, 9, 36, 0
10, 76896, Note_off_c, 9, 42, 0
10, 76992, Note_on_c, 9, 69, 80
10, 76992, Note_on_c, 9, 54, 90
10, 76992, Note_on_c, 9, 46, 70
10, 77088, Note_off_c, 9, 69, 0
10, 77088, Note_off_c, 9, 54, 0
10, 77088, Note_off_c, 9, 46, 0
10, 77184, Note_on_c, 9, 39, 80
10, 77184, Note_on_c, 9, 69, 80
10, 77184, Note_on_c, 9, 54, 80
10, 77184, Note_on_c, 9, 36, 90
10, 77184, Note_on_c, 9, 42, 70
10, 77184, Note_on_c, 9, 38, 90
10, 77280, Note_off_c, 9, 39, 0
10, 77280, Note_off_c, 9, 69, 0
10, 77280, Note_off_c, 9, 54, 0
10, 77280, Note_off_c, 9, 36, 0
10, 77280, Note_off_c, 9, 42, 0
10, 77280, Note_off_c, 9, 38, 0
10, 77376, Note_on_c, 9, 69, 80
10, 77376, Note_on_c, 9, 54, 80
10, 77376, Note_on_c, 9, 46, 70
10, 77472, Note_off_c, 9, 69, 0
10, 77472, Note_off_c, 9, 54, 0
10, 77472, Note_off_c, 9, 46, 0
10, 77472, Note_on_c, 9, 54, 80
10, 77568, Note_off_c, 9, 54, 0
10, 77568, Note_on_c, 9, 69, 80
10, 77568, Note_on_c, 9, 54, 80
10, 77568, Note_on_c, 9, 36, 90
10, 77568, Note_on_c, 9, 42, 70
10, 77664, Note_off_c, 9, 69, 0
10, 77664, Note_off_c, 9, 54, 0
10, 77664, Note_off_c, 9, 36, 0
10, 77664, Note_off_c, 9, 42, 0
10, 77664, Note_on_c, 9, 54, 80
10, 77664, Note_on_c, 9, 42, 70
10, 77760, Note_off_c, 9, 54, 0
10, 77760, Note_off_c, 9, 42, 0
10, 77760, Note_on_c, 9, 69, 80
10, 77760, Note_on_c, 9, 54, 80
10, 77760, Note_on_c, 9, 46, 70
10, 77856, Note_off_c, 9, 69, 0
10, 77856, Note_off_c, 9, 54, 0
10, 77856, Note_off_c, 9, 46, 0
10, 77952, Note_on_c, 9, 39, 80
10, 77952, Note_on_c, 9, 42, 70
10, 77952, Note_on_c, 9, 69, 80
10, 77952, Note_on_c, 9, 54, 80
10, 77952, Note_on_c, 9, 36, 90
10, 77952, Note_on_c, 9, 38, 90
10, 78048, Note_off_c, 9, 39, 0
10, 78048, Note_off_c, 9, 42, 0
10, 78048, Note_off_c, 9, 69, 0
10, 78048, Note_off_c, 9, 54, 0
10, 78048, Note_off_c, 9, 36, 0
10, 78048, Note_off_c, 9, 38, 0
10, 78048, Note_on_c, 9, 54, 80
10, 78048, Note_on_c, 9, 42, 70
10, 78144, Note_off_c, 9, 54, 0
10, 78144, Note_off_c, 9, 42, 0
10, 78144, Note_on_c, 9, 69, 80
10, 78144, Note_on_c, 9, 54, 80
10, 78144, Note_on_c, 9, 46, 70
10, 78240, Note_off_c, 9, 69, 0
10, 78240, Note_off_c, 9, 54, 0
10, 78240, Note_off_c, 9, 46, 0
10, 78240, Note_on_c, 9, 38, 90
10, 78336, Note_off_c, 9, 38, 0
10, 78336, Note_on_c, 9, 69, 80
10, 78336, Note_on_c, 9, 54, 80
10, 78336, Note_on_c, 9, 36, 90
10, 78336, Note_on_c, 9, 42, 70
10, 78432, Note_off_c, 9, 69, 0
10, 78432, Note_off_c, 9, 54, 0
10, 78432, Note_off_c, 9, 36, 0
10, 78432, Note_off_c, 9, 42, 0
10, 78528, Note_on_c, 9, 69, 80
10, 78528, Note_on_c, 9, 54, 90
10, 78528, Note_on_c, 9, 46, 70
10, 78624, Note_off_c, 9, 69, 0
10, 78624, Note_off_c, 9, 54, 0
10, 78624, Note_off_c, 9, 46, 0
10, 78720, Note_on_c, 9, 39, 80
10, 78720, Note_on_c, 9, 69, 80
10, 78720, Note_on_c, 9, 54, 80
10, 78720, Note_on_c, 9, 36, 90
10, 78720, Note_on_c, 9, 42, 70
10, 78720, Note_on_c, 9, 38, 90
10, 78816, Note_off_c, 9, 39, 0
10, 78816, Note_off_c, 9, 69, 0
10, 78816, Note_off_c, 9, 54, 0
10, 78816, Note_off_c, 9, 36, 0
10, 78816, Note_off_c, 9, 42, 0
10, 78816, Note_off_c, 9, 38, 0
10, 78912, Note_on_c, 9, 69, 80
10, 78912, Note_on_c, 9, 54, 80
10, 78912, Note_on_c, 9, 46, 70
10, 79008, Note_off_c, 9, 69, 0
10, 79008, Note_off_c, 9, 54, 0
10, 79008, Note_off_c, 9, 46, 0
10, 79008, Note_on_c, 9, 54, 80
10, 79104, Note_off_c, 9, 54, 0
10, 79104, Note_on_c, 9, 69, 80
10, 79104, Note_on_c, 9, 54, 80
10, 79104, Note_on_c, 9, 36, 90
10, 79104, Note_on_c, 9, 42, 70
10, 79200, Note_off_c, 9, 69, 0
10, 79200, Note_off_c, 9, 54, 0
10, 79200, Note_off_c, 9, 36, 0
10, 79200, Note_off_c, 9, 42, 0
10, 79200, Note_on_c, 9, 54, 80
10, 79200, Note_on_c, 9, 42, 70
10, 79296, Note_off_c, 9, 54, 0
10, 79296, Note_off_c, 9, 42, 0
10, 79296, Note_on_c, 9, 69, 80
10, 79296, Note_on_c, 9, 54, 80
10, 79296, Note_on_c, 9, 46, 70
10, 79392, Note_off_c, 9, 69, 0
10, 79392, Note_off_c, 9, 54, 0
10, 79392, Note_off_c, 9, 46, 0
10, 79488, Note_on_c, 9, 39, 80
10, 79488, Note_on_c, 9, 42, 70
10, 79488, Note_on_c, 9, 69, 80
10, 79488, Note_on_c, 9, 54, 80
10, 79488, Note_on_c, 9, 36, 90
10, 79488, Note_on_c, 9, 38, 90
10, 79584, Note_off_c, 9, 39, 0
10, 79584, Note_off_c, 9, 42, 0
10, 79584, Note_off_c, 9, 69, 0
10, 79584, Note_off_c, 9, 54, 0
10, 79584, Note_off_c, 9, 36, 0
10, 79584, Note_off_c, 9, 38, 0
10, 79584, Note_on_c, 9, 54, 80
10, 79584, Note_on_c, 9, 42, 70
10, 79680, Note_off_c, 9, 54, 0
10, 79680, Note_off_c, 9, 42, 0
10, 79680, Note_on_c, 9, 38, 80
10, 79680, Note_on_c, 9, 69, 80
10, 79680, Note_on_c, 9, 54, 80
10, 79680, Note_on_c, 9, 46, 70
10, 79776, Note_off_c, 9, 38, 0
10, 79776, Note_off_c, 9, 69, 0
10, 79776, Note_off_c, 9, 54, 0
10, 79776, Note_off_c, 9, 46, 0
10, 79776, Note_on_c, 9, 38, 90
10, 79872, Note_off_c, 9, 38, 0
10, 79872, Note_on_c, 9, 69, 80
10, 79872, Note_on_c, 9, 54, 80
10, 79872, Note_on_c, 9, 36, 80
10, 79872, Note_on_c, 9, 42, 70
10, 79968, Note_off_c, 9, 69, 0
10, 79968, Note_off_c, 9, 54, 0
10, 79968, Note_off_c, 9, 36, 0
10, 79968, Note_off_c, 9, 42, 0
10, 80064, Note_on_c, 9, 69, 80
10, 80064, Note_on_c, 9, 54, 90
10, 80064, Note_on_c, 9, 46, 70
10, 80160, Note_off_c, 9, 69, 0
10, 80160, Note_off_c, 9, 54, 0
10, 80160, Note_off_c, 9, 46, 0
10, 80256, Note_on_c, 9, 39, 80
10, 80256, Note_on_c, 9, 69, 80
10, 80256, Note_on_c, 9, 54, 80
10, 80256, Note_on_c, 9, 36, 90
10, 80256, Note_on_c, 9, 42, 70
10, 80256, Note_on_c, 9, 38, 90
10, 80352, Note_off_c, 9, 39, 0
10, 80352, Note_off_c, 9, 69, 0
10, 80352, Note_off_c, 9, 54, 0
10, 80352, Note_off_c, 9, 36, 0
10, 80352, Note_off_c, 9, 42, 0
10, 80352, Note_off_c, 9, 38, 0
10, 80448, Note_on_c, 9, 69, 80
10, 80448, Note_on_c, 9, 54, 80
10, 80448, Note_on_c, 9, 46, 70
10, 80544, Note_off_c, 9, 69, 0
10, 80544, Note_off_c, 9, 54, 0
10, 80544, Note_off_c, 9, 46, 0
10, 80544, Note_on_c, 9, 54, 80
10, 80640, Note_off_c, 9, 54, 0
10, 80640, Note_on_c, 9, 69, 80
10, 80640, Note_on_c, 9, 54, 80
10, 80640, Note_on_c, 9, 36, 90
10, 80640, Note_on_c, 9, 42, 70
10, 80736, Note_off_c, 9, 69, 0
10, 80736, Note_off_c, 9, 54, 0
10, 80736, Note_off_c, 9, 36, 0
10, 80736, Note_off_c, 9, 42, 0
10, 80736, Note_on_c, 9, 54, 80
10, 80736, Note_on_c, 9, 42, 70
10, 80832, Note_off_c, 9, 54, 0
10, 80832, Note_off_c, 9, 42, 0
10, 80832, Note_on_c, 9, 69, 80
10, 80832, Note_on_c, 9, 54, 80
10, 80832, Note_on_c, 9, 46, 70
10, 80928, Note_off_c, 9, 69, 0
10, 80928, Note_off_c, 9, 54, 0
10, 80928, Note_off_c, 9, 46, 0
10, 81024, Note_on_c, 9, 39, 80
10, 81024, Note_on_c, 9, 42, 70
10, 81024, Note_on_c, 9, 69, 80
10, 81024, Note_on_c, 9, 54, 80
10, 81024, Note_on_c, 9, 36, 90
10, 81024, Note_on_c, 9, 38, 90
10, 81120, Note_off_c, 9, 39, 0
10, 81120, Note_off_c, 9, 42, 0
10, 81120, Note_off_c, 9, 69, 0
10, 81120, Note_off_c, 9, 54, 0
10, 81120, Note_off_c, 9, 36, 0
10, 81120, Note_off_c, 9, 38, 0
10, 81120, Note_on_c, 9, 54, 80
10, 81120, Note_on_c, 9, 42, 70
10, 81216, Note_off_c, 9, 54, 0
10, 81216, Note_off_c, 9, 42, 0
10, 81216, Note_on_c, 9, 69, 80
10, 81216, Note_on_c, 9, 54, 80
10, 81216, Note_on_c, 9, 46, 70
10, 81312, Note_off_c, 9, 69, 0
10, 81312, Note_off_c, 9, 54, 0
10, 81312, Note_off_c, 9, 46, 0
10, 81312, Note_on_c, 9, 38, 90
10, 81408, Note_off_c, 9, 38, 0
10, 81408, Note_on_c, 9, 69, 80
10, 81408, Note_on_c, 9, 54, 80
10, 81408, Note_on_c, 9, 36, 90
10, 81408, Note_on_c, 9, 42, 70
10, 81504, Note_off_c, 9, 69, 0
10, 81504, Note_off_c, 9, 54, 0
10, 81504, Note_off_c, 9, 36, 0
10, 81504, Note_off_c, 9, 42, 0
10, 81600, Note_on_c, 9, 69, 80
10, 81600, Note_on_c, 9, 54, 90
10, 81600, Note_on_c, 9, 46, 70
10, 81696, Note_off_c, 9, 69, 0
10, 81696, Note_off_c, 9, 54, 0
10, 81696, Note_off_c, 9, 46, 0
10, 81792, Note_on_c, 9, 39, 80
10, 81792, Note_on_c, 9, 69, 80
10, 81792, Note_on_c, 9, 54, 80
10, 81792, Note_on_c, 9, 36, 90
10, 81792, Note_on_c, 9, 42, 70
10, 81792, Note_on_c, 9, 38, 90
10, 81888, Note_off_c, 9, 39, 0
10, 81888, Note_off_c, 9, 69, 0
10, 81888, Note_off_c, 9, 54, 0
10, 81888, Note_off_c, 9, 36, 0
10, 81888, Note_off_c, 9, 42, 0
10, 81888, Note_off_c, 9, 38, 0
10, 81984, Note_on_c, 9, 69, 80
10, 81984, Note_on_c, 9, 54, 80
10, 81984, Note_on_c, 9, 46, 70
10, 82080, Note_off_c, 9, 69, 0
10, 82080, Note_off_c, 9, 54, 0
10, 82080, Note_off_c, 9, 46, 0
10, 82080, Note_on_c, 9, 54, 80
10, 82176, Note_off_c, 9, 54, 0
10, 82176, Note_on_c, 9, 69, 80
10, 82176, Note_on_c, 9, 54, 80
10, 82176, Note_on_c, 9, 36, 90
10, 82176, Note_on_c, 9, 42, 70
10, 82272, Note_off_c, 9, 69, 0
10, 82272, Note_off_c, 9, 54, 0
10, 82272, Note_off_c, 9, 36, 0
10, 82272, Note_off_c, 9, 42, 0
10, 82272, Note_on_c, 9, 54, 80
10, 82272, Note_on_c, 9, 42, 70
10, 82368, Note_off_c, 9, 54, 0
10, 82368, Note_off_c, 9, 42, 0
10, 82368, Note_on_c, 9, 69, 80
10, 82368, Note_on_c, 9, 54, 80
10, 82368, Note_on_c, 9, 46, 70
10, 82464, Note_off_c, 9, 69, 0
10, 82464, Note_off_c, 9, 54, 0
10, 82464, Note_off_c, 9, 46, 0
10, 82560, Note_on_c, 9, 39, 80
10, 82560, Note_on_c, 9, 42, 70
10, 82560, Note_on_c, 9, 69, 80
10, 82560, Note_on_c, 9, 54, 80
10, 82560, Note_on_c, 9, 36, 90
10, 82560, Note_on_c, 9, 38, 90
10, 82656, Note_off_c, 9, 39, 0
10, 82656, Note_off_c, 9, 42, 0
10, 82656, Note_off_c, 9, 69, 0
10, 82656, Note_off_c, 9, 54, 0
10, 82656, Note_off_c, 9, 36, 0
10, 82656, Note_off_c, 9, 38, 0
10, 82656, Note_on_c, 9, 54, 80
10, 82656, Note_on_c, 9, 42, 70
10, 82752, Note_off_c, 9, 54, 0
10, 82752, Note_off_c, 9, 42, 0
10, 82752, Note_on_c, 9, 38, 80
10, 82752, Note_on_c, 9, 69, 80
10, 82752, Note_on_c, 9, 54, 80
10, 82752, Note_on_c, 9, 46, 70
10, 82848, Note_off_c, 9, 38, 0
10, 82848, Note_off_c, 9, 69, 0
10, 82848, Note_off_c, 9, 54, 0
10, 82848, Note_off_c, 9, 46, 0
10, 82848, Note_on_c, 9, 38, 90
10, 82944, Note_off_c, 9, 38, 0
10, 82944, Note_on_c, 9, 69, 80
10, 82944, Note_on_c, 9, 54, 80
10, 82944, Note_on_c, 9, 36, 80
10, 82944, Note_on_c, 9, 42, 70
10, 83040, Note_off_c, 9, 69, 0
10, 83040, Note_off_c, 9, 54, 0
10, 83040, Note_off_c, 9, 36, 0
10, 83040, Note_off_c, 9, 42, 0
10, 83136, Note_on_c, 9, 69, 80
10, 83136, Note_on_c, 9, 54, 90
10, 83136, Note_on_c, 9, 46, 70
10, 83232, Note_off_c, 9, 69, 0
10, 83232, Note_off_c, 9, 54, 0
10, 83232, Note_off_c, 9, 46, 0
10, 83328, Note_on_c, 9, 39, 80
10, 83328, Note_on_c, 9, 69, 80
10, 83328, Note_on_c, 9, 54, 80
10, 83328, Note_on_c, 9, 36, 90
10, 83328, Note_on_c, 9, 42, 70
10, 83328, Note_on_c, 9, 38, 90
10, 83424, Note_off_c, 9, 39, 0
10, 83424, Note_off_c, 9, 69, 0
10, 83424, Note_off_c, 9, 54, 0
10, 83424, Note_off_c, 9, 36, 0
10, 83424, Note_off_c, 9, 42, 0
10, 83424, Note_off_c, 9, 38, 0
10, 83520, Note_on_c, 9, 69, 80
10, 83520, Note_on_c, 9, 54, 80
10, 83520, Note_on_c, 9, 46, 70
10, 83616, Note_off_c, 9, 69, 0
10, 83616, Note_off_c, 9, 54, 0
10, 83616, Note_off_c, 9, 46, 0
10, 83616, Note_on_c, 9, 54, 80
10, 83712, Note_off_c, 9, 54, 0
10, 83712, Note_on_c, 9, 69, 80
10, 83712, Note_on_c, 9, 54, 80
10, 83712, Note_on_c, 9, 36, 90
10, 83712, Note_on_c, 9, 42, 70
10, 83808, Note_off_c, 9, 69, 0
10, 83808, Note_off_c, 9, 54, 0
10, 83808, Note_off_c, 9, 36, 0
10, 83808, Note_off_c, 9, 42, 0
10, 83808, Note_on_c, 9, 54, 80
10, 83808, Note_on_c, 9, 42, 70
10, 83904, Note_off_c, 9, 54, 0
10, 83904, Note_off_c, 9, 42, 0
10, 83904, Note_on_c, 9, 69, 80
10, 83904, Note_on_c, 9, 54, 80
10, 83904, Note_on_c, 9, 46, 70
10, 84000, Note_off_c, 9, 69, 0
10, 84000, Note_off_c, 9, 54, 0
10, 84000, Note_off_c, 9, 46, 0
10, 84096, Note_on_c, 9, 39, 80
10, 84096, Note_on_c, 9, 42, 70
10, 84096, Note_on_c, 9, 69, 80
10, 84096, Note_on_c, 9, 54, 80
10, 84096, Note_on_c, 9, 36, 90
10, 84096, Note_on_c, 9, 38, 90
10, 84192, Note_off_c, 9, 39, 0
10, 84192, Note_off_c, 9, 42, 0
10, 84192, Note_off_c, 9, 69, 0
10, 84192, Note_off_c, 9, 54, 0
10, 84192, Note_off_c, 9, 36, 0
10, 84192, Note_off_c, 9, 38, 0
10, 84192, Note_on_c, 9, 54, 80
10, 84192, Note_on_c, 9, 42, 70
10, 84288, Note_off_c, 9, 54, 0
10, 84288, Note_off_c, 9, 42, 0
10, 84288, Note_on_c, 9, 69, 80
10, 84288, Note_on_c, 9, 54, 80
10, 84288, Note_on_c, 9, 46, 70
10, 84384, Note_off_c, 9, 69, 0
10, 84384, Note_off_c, 9, 54, 0
10, 84384, Note_off_c, 9, 46, 0
10, 84384, Note_on_c, 9, 38, 90
10, 84480, Note_off_c, 9, 38, 0
10, 84480, Note_on_c, 9, 69, 80
10, 84480, Note_on_c, 9, 54, 80
10, 84480, Note_on_c, 9, 36, 90
10, 84480, Note_on_c, 9, 42, 70
10, 84576, Note_off_c, 9, 69, 0
10, 84576, Note_off_c, 9, 54, 0
10, 84576, Note_off_c, 9, 36, 0
10, 84576, Note_off_c, 9, 42, 0
10, 84672, Note_on_c, 9, 69, 80
10, 84672, Note_on_c, 9, 54, 90
10, 84672, Note_on_c, 9, 46, 70
10, 84768, Note_off_c, 9, 69, 0
10, 84768, Note_off_c, 9, 54, 0
10, 84768, Note_off_c, 9, 46, 0
10, 84864, Note_on_c, 9, 39, 80
10, 84864, Note_on_c, 9, 69, 80
10, 84864, Note_on_c, 9, 54, 80
10, 84864, Note_on_c, 9, 36, 90
10, 84864, Note_on_c, 9, 42, 70
10, 84864, Note_on_c, 9, 38, 90
10, 84960, Note_off_c, 9, 39, 0
10, 84960, Note_off_c, 9, 69, 0
10, 84960, Note_off_c, 9, 54, 0
10, 84960, Note_off_c, 9, 36, 0
10, 84960, Note_off_c, 9, 42, 0
10, 84960, Note_off_c, 9, 38, 0
10, 85056, Note_on_c, 9, 69, 80
10, 85056, Note_on_c, 9, 54, 80
10, 85056, Note_on_c, 9, 46, 70
10, 85152, Note_off_c, 9, 69, 0
10, 85152, Note_off_c, 9, 54, 0
10, 85152, Note_off_c, 9, 46, 0
10, 85152, Note_on_c, 9, 54, 80
10, 85248, Note_off_c, 9, 54, 0
10, 85248, Note_on_c, 9, 69, 80
10, 85248, Note_on_c, 9, 54, 80
10, 85248, Note_on_c, 9, 36, 90
10, 85248, Note_on_c, 9, 42, 70
10, 85344, Note_off_c, 9, 69, 0
10, 85344, Note_off_c, 9, 54, 0
10, 85344, Note_off_c, 9, 36, 0
10, 85344, Note_off_c, 9, 42, 0
10, 85344, Note_on_c, 9, 54, 80
10, 85344, Note_on_c, 9, 42, 70
10, 85440, Note_off_c, 9, 54, 0
10, 85440, Note_off_c, 9, 42, 0
10, 85440, Note_on_c, 9, 69, 80
10, 85440, Note_on_c, 9, 54, 80
10, 85440, Note_on_c, 9, 46, 70
10, 85536, Note_off_c, 9, 69, 0
10, 85536, Note_off_c, 9, 54, 0
10, 85536, Note_off_c, 9, 46, 0
10, 85632, Note_on_c, 9, 39, 80
10, 85632, Note_on_c, 9, 42, 70
10, 85632, Note_on_c, 9, 69, 80
10, 85632, Note_on_c, 9, 54, 80
10, 85632, Note_on_c, 9, 36, 90
10, 85632, Note_on_c, 9, 38, 90
10, 85728, Note_off_c, 9, 39, 0
10, 85728, Note_off_c, 9, 42, 0
10, 85728, Note_off_c, 9, 69, 0
10, 85728, Note_off_c, 9, 54, 0
10, 85728, Note_off_c, 9, 36, 0
10, 85728, Note_off_c, 9, 38, 0
10, 85728, Note_on_c, 9, 54, 80
10, 85728, Note_on_c, 9, 42, 70
10, 85824, Note_off_c, 9, 54, 0
10, 85824, Note_off_c, 9, 42, 0
10, 85824, Note_on_c, 9, 38, 80
10, 85824, Note_on_c, 9, 69, 80
10, 85824, Note_on_c, 9, 54, 80
10, 85824, Note_on_c, 9, 46, 70
10, 85920, Note_off_c, 9, 38, 0
10, 85920, Note_off_c, 9, 69, 0
10, 85920, Note_off_c, 9, 54, 0
10, 85920, Note_off_c, 9, 46, 0
10, 85920, Note_on_c, 9, 38, 90
10, 86016, Note_off_c, 9, 38, 0
10, 86016, Note_on_c, 9, 69, 80
10, 86016, Note_on_c, 9, 54, 80
10, 86016, Note_on_c, 9, 36, 80
10, 86016, Note_on_c, 9, 42, 70
10, 86112, Note_off_c, 9, 69, 0
10, 86112, Note_off_c, 9, 54, 0
10, 86112, Note_off_c, 9, 36, 0
10, 86112, Note_off_c, 9, 42, 0
10, 86208, Note_on_c, 9, 69, 80
10, 86208, Note_on_c, 9, 54, 90
10, 86208, Note_on_c, 9, 46, 70
10, 86304, Note_off_c, 9, 69, 0
10, 86304, Note_off_c, 9, 54, 0
10, 86304, Note_off_c, 9, 46, 0
10, 86400, Note_on_c, 9, 39, 80
10, 86400, Note_on_c, 9, 69, 80
10, 86400, Note_on_c, 9, 54, 80
10, 86400, Note_on_c, 9, 36, 90
10, 86400, Note_on_c, 9, 42, 70
10, 86400, Note_on_c, 9, 38, 90
10, 86496, Note_off_c, 9, 39, 0
10, 86496, Note_off_c, 9, 69, 0
10, 86496, Note_off_c, 9, 54, 0
10, 86496, Note_off_c, 9, 36, 0
10, 86496, Note_off_c, 9, 42, 0
10, 86496, Note_off_c, 9, 38, 0
10, 86592, Note_on_c, 9, 69, 80
10, 86592, Note_on_c, 9, 54, 80
10, 86592, Note_on_c, 9, 46, 70
10, 86688, Note_off_c, 9, 69, 0
10, 86688, Note_off_c, 9, 54, 0
10, 86688, Note_off_c, 9, 46, 0
10, 86688, Note_on_c, 9, 54, 80
10, 86784, Note_off_c, 9, 54, 0
10, 86784, Note_on_c, 9, 69, 80
10, 86784, Note_on_c, 9, 54, 80
10, 86784, Note_on_c, 9, 36, 90
10, 86784, Note_on_c, 9, 42, 70
10, 86880, Note_off_c, 9, 69, 0
10, 86880, Note_off_c, 9, 54, 0
10, 86880, Note_off_c, 9, 36, 0
10, 86880, Note_off_c, 9, 42, 0
10, 86880, Note_on_c, 9, 54, 80
10, 86880, Note_on_c, 9, 42, 70
10, 86976, Note_off_c, 9, 54, 0
10, 86976, Note_off_c, 9, 42, 0
10, 86976, Note_on_c, 9, 69, 80
10, 86976, Note_on_c, 9, 54, 80
10, 86976, Note_on_c, 9, 46, 70
10, 87072, Note_off_c, 9, 69, 0
10, 87072, Note_off_c, 9, 54, 0
10, 87072, Note_off_c, 9, 46, 0
10, 87168, Note_on_c, 9, 39, 80
10, 87168, Note_on_c, 9, 42, 70
10, 87168, Note_on_c, 9, 69, 80
10, 87168, Note_on_c, 9, 54, 80
10, 87168, Note_on_c, 9, 36, 90
10, 87168, Note_on_c, 9, 38, 90
10, 87264, Note_off_c, 9, 39, 0
10, 87264, Note_off_c, 9, 42, 0
10, 87264, Note_off_c, 9, 69, 0
10, 87264, Note_off_c, 9, 54, 0
10, 87264, Note_off_c, 9, 36, 0
10, 87264, Note_off_c, 9, 38, 0
10, 87264, Note_on_c, 9, 54, 80
10, 87264, Note_on_c, 9, 42, 70
10, 87360, Note_off_c, 9, 54, 0
10, 87360, Note_off_c, 9, 42, 0
10, 87360, Note_on_c, 9, 69, 80
10, 87360, Note_on_c, 9, 54, 80
10, 87360, Note_on_c, 9, 46, 70
10, 87456, Note_off_c, 9, 69, 0
10, 87456, Note_off_c, 9, 54, 0
10, 87456, Note_off_c, 9, 46, 0
10, 87456, Note_on_c, 9, 38, 90
10, 87552, Note_off_c, 9, 38, 0
10, 87552, Note_on_c, 9, 69, 80
10, 87552, Note_on_c, 9, 54, 80
10, 87552, Note_on_c, 9, 36, 90
10, 87552, Note_on_c, 9, 42, 70
10, 87648, Note_off_c, 9, 69, 0
10, 87648, Note_off_c, 9, 54, 0
10, 87648, Note_off_c, 9, 36, 0
10, 87648, Note_off_c, 9, 42, 0
10, 87744, Note_on_c, 9, 69, 80
10, 87744, Note_on_c, 9, 54, 90
10, 87744, Note_on_c, 9, 46, 70
10, 87840, Note_off_c, 9, 69, 0
10, 87840, Note_off_c, 9, 54, 0
10, 87840, Note_off_c, 9, 46, 0
10, 87936, Note_on_c, 9, 39, 80
10, 87936, Note_on_c, 9, 69, 80
10, 87936, Note_on_c, 9, 54, 80
10, 87936, Note_on_c, 9, 36, 90
10, 87936, Note_on_c, 9, 42, 70
10, 87936, Note_on_c, 9, 38, 90
10, 88032, Note_off_c, 9, 39, 0
10, 88032, Note_off_c, 9, 69, 0
10, 88032, Note_off_c, 9, 54, 0
10, 88032, Note_off_c, 9, 36, 0
10, 88032, Note_off_c, 9, 42, 0
10, 88032, Note_off_c, 9, 38, 0
10, 88128, Note_on_c, 9, 69, 80
10, 88128, Note_on_c, 9, 54, 80
10, 88128, Note_on_c, 9, 46, 70
10, 88224, Note_off_c, 9, 69, 0
10, 88224, Note_off_c, 9, 54, 0
10, 88224, Note_off_c, 9, 46, 0
10, 88224, Note_on_c, 9, 54, 80
10, 88320, Note_off_c, 9, 54, 0
10, 88320, Note_on_c, 9, 69, 80
10, 88320, Note_on_c, 9, 54, 80
10, 88320, Note_on_c, 9, 36, 90
10, 88320, Note_on_c, 9, 42, 70
10, 88416, Note_off_c, 9, 69, 0
10, 88416, Note_off_c, 9, 54, 0
10, 88416, Note_off_c, 9, 36, 0
10, 88416, Note_off_c, 9, 42, 0
10, 88416, Note_on_c, 9, 54, 80
10, 88416, Note_on_c, 9, 42, 70
10, 88512, Note_off_c, 9, 54, 0
10, 88512, Note_off_c, 9, 42, 0
10, 88512, Note_on_c, 9, 69, 80
10, 88512, Note_on_c, 9, 54, 80
10, 88512, Note_on_c, 9, 46, 70
10, 88608, Note_off_c, 9, 69, 0
10, 88608, Note_off_c, 9, 54, 0
10, 88608, Note_off_c, 9, 46, 0
10, 88704, Note_on_c, 9, 39, 80
10, 88704, Note_on_c, 9, 42, 70
10, 88704, Note_on_c, 9, 69, 80
10, 88704, Note_on_c, 9, 54, 80
10, 88704, Note_on_c, 9, 36, 90
10, 88704, Note_on_c, 9, 38, 90
10, 88800, Note_off_c, 9, 39, 0
10, 88800, Note_off_c, 9, 42, 0
10, 88800, Note_off_c, 9, 69, 0
10, 88800, Note_off_c, 9, 54, 0
10, 88800, Note_off_c, 9, 36, 0
10, 88800, Note_off_c, 9, 38, 0
10, 88800, Note_on_c, 9, 54, 80
10, 88800, Note_on_c, 9, 42, 70
10, 88896, Note_off_c, 9, 54, 0
10, 88896, Note_off_c, 9, 42, 0
10, 88896, Note_on_c, 9, 38, 80
10, 88896, Note_on_c, 9, 69, 80
10, 88896, Note_on_c, 9, 54, 80
10, 88896, Note_on_c, 9, 46, 70
10, 88992, Note_off_c, 9, 38, 0
10, 88992, Note_off_c, 9, 69, 0
10, 88992, Note_off_c, 9, 54, 0
10, 88992, Note_off_c, 9, 46, 0
10, 88992, Note_on_c, 9, 38, 90
10, 89088, Note_off_c, 9, 38, 0
10, 89088, Note_on_c, 9, 69, 80
10, 89088, Note_on_c, 9, 54, 80
10, 89088, Note_on_c, 9, 36, 80
10, 89088, Note_on_c, 9, 42, 70
10, 89184, Note_off_c, 9, 69, 0
10, 89184, Note_off_c, 9, 54, 0
10, 89184, Note_off_c, 9, 36, 0
10, 89184, Note_off_c, 9, 42, 0
10, 89280, Note_on_c, 9, 69, 80
10, 89280, Note_on_c, 9, 54, 90
10, 89280, Note_on_c, 9, 46, 70
10, 89376, Note_off_c, 9, 69, 0
10, 89376, Note_off_c, 9, 54, 0
10, 89376, Note_off_c, 9, 46, 0
10, 89472, Note_on_c, 9, 39, 80
10, 89472, Note_on_c, 9, 69, 80
10, 89472, Note_on_c, 9, 54, 80
10, 89472, Note_on_c, 9, 36, 90
10, 89472, Note_on_c, 9, 42, 70
10, 89472, Note_on_c, 9, 38, 90
10, 89568, Note_off_c, 9, 39, 0
10, 89568, Note_off_c, 9, 69, 0
10, 89568, Note_off_c, 9, 54, 0
10, 89568, Note_off_c, 9, 36, 0
10, 89568, Note_off_c, 9, 42, 0
10, 89568, Note_off_c, 9, 38, 0
10, 89664, Note_on_c, 9, 69, 80
10, 89664, Note_on_c, 9, 54, 80
10, 89664, Note_on_c, 9, 46, 70
10, 89760, Note_off_c, 9, 69, 0
10, 89760, Note_off_c, 9, 54, 0
10, 89760, Note_off_c, 9, 46, 0
10, 89760, Note_on_c, 9, 54, 80
10, 89856, Note_off_c, 9, 54, 0
10, 89856, Note_on_c, 9, 69, 80
10, 89856, Note_on_c, 9, 54, 80
10, 89856, Note_on_c, 9, 36, 90
10, 89856, Note_on_c, 9, 42, 70
10, 89952, Note_off_c, 9, 69, 0
10, 89952, Note_off_c, 9, 54, 0
10, 89952, Note_off_c, 9, 36, 0
10, 89952, Note_off_c, 9, 42, 0
10, 89952, Note_on_c, 9, 54, 80
10, 89952, Note_on_c, 9, 42, 70
10, 90048, Note_off_c, 9, 54, 0
10, 90048, Note_off_c, 9, 42, 0
10, 90048, Note_on_c, 9, 69, 80
10, 90048, Note_on_c, 9, 54, 80
10, 90048, Note_on_c, 9, 46, 70
10, 90144, Note_off_c, 9, 69, 0
10, 90144, Note_off_c, 9, 54, 0
10, 90144, Note_off_c, 9, 46, 0
10, 90240, Note_on_c, 9, 39, 80
10, 90240, Note_on_c, 9, 42, 70
10, 90240, Note_on_c, 9, 69, 80
10, 90240, Note_on_c, 9, 54, 80
10, 90240, Note_on_c, 9, 36, 90
10, 90240, Note_on_c, 9, 38, 90
10, 90336, Note_off_c, 9, 39, 0
10, 90336, Note_off_c, 9, 42, 0
10, 90336, Note_off_c, 9, 69, 0
10, 90336, Note_off_c, 9, 54, 0
10, 90336, Note_off_c, 9, 36, 0
10, 90336, Note_off_c, 9, 38, 0
10, 90336, Note_on_c, 9, 54, 80
10, 90336, Note_on_c, 9, 42, 70
10, 90432, Note_off_c, 9, 54, 0
10, 90432, Note_off_c, 9, 42, 0
10, 90432, Note_on_c, 9, 69, 80
10, 90432, Note_on_c, 9, 54, 80
10, 90432, Note_on_c, 9, 46, 70
10, 90528, Note_off_c, 9, 69, 0
10, 90528, Note_off_c, 9, 54, 0
10, 90528, Note_off_c, 9, 46, 0
10, 90528, Note_on_c, 9, 38, 90
10, 90624, Note_off_c, 9, 38, 0
10, 90624, Note_on_c, 9, 69, 80
10, 90624, Note_on_c, 9, 54, 80
10, 90624, Note_on_c, 9, 36, 90
10, 90624, Note_on_c, 9, 42, 70
10, 90720, Note_off_c, 9, 69, 0
10, 90720, Note_off_c, 9, 54, 0
10, 90720, Note_off_c, 9, 36, 0
10, 90720, Note_off_c, 9, 42, 0
10, 90816, Note_on_c, 9, 69, 80
10, 90816, Note_on_c, 9, 54, 90
10, 90816, Note_on_c, 9, 46, 70
10, 90912, Note_off_c, 9, 69, 0
10, 90912, Note_off_c, 9, 54, 0
10, 90912, Note_off_c, 9, 46, 0
10, 91008, Note_on_c, 9, 39, 80
10, 91008, Note_on_c, 9, 69, 80
10, 91008, Note_on_c, 9, 54, 80
10, 91008, Note_on_c, 9, 36, 90
10, 91008, Note_on_c, 9, 42, 70
10, 91008, Note_on_c, 9, 38, 90
10, 91104, Note_off_c, 9, 39, 0
10, 91104, Note_off_c, 9, 69, 0
10, 91104, Note_off_c, 9, 54, 0
10, 91104, Note_off_c, 9, 36, 0
10, 91104, Note_off_c, 9, 42, 0
10, 91104, Note_off_c, 9, 38, 0
10, 91200, Note_on_c, 9, 69, 80
10, 91200, Note_on_c, 9, 54, 80
10, 91200, Note_on_c, 9, 46, 70
10, 91296, Note_off_c, 9, 69, 0
10, 91296, Note_off_c, 9, 54, 0
10, 91296, Note_off_c, 9, 46, 0
10, 91296, Note_on_c, 9, 54, 80
10, 91392, Note_off_c, 9, 54, 0
10, 91392, Note_on_c, 9, 69, 80
10, 91392, Note_on_c, 9, 54, 80
10, 91392, Note_on_c, 9, 36, 90
10, 91392, Note_on_c, 9, 42, 70
10, 91488, Note_off_c, 9, 69, 0
10, 91488, Note_off_c, 9, 54, 0
10, 91488, Note_off_c, 9, 36, 0
10, 91488, Note_off_c, 9, 42, 0
10, 91488, Note_on_c, 9, 54, 80
10, 91488, Note_on_c, 9, 42, 70
10, 91584, Note_off_c, 9, 54, 0
10, 91584, Note_off_c, 9, 42, 0
10, 91584, Note_on_c, 9, 69, 80
10, 91584, Note_on_c, 9, 54, 80
10, 91584, Note_on_c, 9, 46, 70
10, 91680, Note_off_c, 9, 69, 0
10, 91680, Note_off_c, 9, 54, 0
10, 91680, Note_off_c, 9, 46, 0
10, 91776, Note_on_c, 9, 39, 80
10, 91776, Note_on_c, 9, 42, 70
10, 91776, Note_on_c, 9, 69, 80
10, 91776, Note_on_c, 9, 54, 80
10, 91776, Note_on_c, 9, 36, 90
10, 91776, Note_on_c, 9, 38, 90
10, 91872, Note_off_c, 9, 39, 0
10, 91872, Note_off_c, 9, 42, 0
10, 91872, Note_off_c, 9, 69, 0
10, 91872, Note_off_c, 9, 54, 0
10, 91872, Note_off_c, 9, 36, 0
10, 91872, Note_off_c, 9, 38, 0
10, 91872, Note_on_c, 9, 54, 80
10, 91872, Note_on_c, 9, 42, 70
10, 91968, Note_off_c, 9, 54, 0
10, 91968, Note_off_c, 9, 42, 0
10, 91968, Note_on_c, 9, 38, 80
10, 91968, Note_on_c, 9, 69, 80
10, 91968, Note_on_c, 9, 54, 80
10, 91968, Note_on_c, 9, 46, 70
10, 92064, Note_off_c, 9, 38, 0
10, 92064, Note_off_c, 9, 69, 0
10, 92064, Note_off_c, 9, 54, 0
10, 92064, Note_off_c, 9, 46, 0
10, 92064, Note_on_c, 9, 38, 90
10, 92160, Note_off_c, 9, 38, 0
10, 92160, Note_on_c, 9, 69, 80
10, 92160, Note_on_c, 9, 54, 80
10, 92160, Note_on_c, 9, 36, 80
10, 92160, Note_on_c, 9, 42, 70
10, 92256, Note_off_c, 9, 69, 0
10, 92256, Note_off_c, 9, 54, 0
10, 92256, Note_off_c, 9, 36, 0
10, 92256, Note_off_c, 9, 42, 0
10, 92352, Note_on_c, 9, 69, 80
10, 92352, Note_on_c, 9, 54, 90
10, 92352, Note_on_c, 9, 46, 70
10, 92448, Note_off_c, 9, 69, 0
10, 92448, Note_off_c, 9, 54, 0
10, 92448, Note_off_c, 9, 46, 0
10, 92544, Note_on_c, 9, 39, 80
10, 92544, Note_on_c, 9, 69, 80
10, 92544, Note_on_c, 9, 54, 80
10, 92544, Note_on_c, 9, 36, 90
10, 92544, Note_on_c, 9, 42, 70
10, 92544, Note_on_c, 9, 38, 90
10, 92640, Note_off_c, 9, 39, 0
10, 92640, Note_off_c, 9, 69, 0
10, 92640, Note_off_c, 9, 54, 0
10, 92640, Note_off_c, 9, 36, 0
10, 92640, Note_off_c, 9, 42, 0
10, 92640, Note_off_c, 9, 38, 0
10, 92736, Note_on_c, 9, 69, 80
10, 92736, Note_on_c, 9, 54, 80
10, 92736, Note_on_c, 9, 46, 70
10, 92832, Note_off_c, 9, 69, 0
10, 92832, Note_off_c, 9, 54, 0
10, 92832, Note_off_c, 9, 46, 0
10, 92832, Note_on_c, 9, 54, 80
10, 92928, Note_off_c, 9, 54, 0
10, 92928, Note_on_c, 9, 69, 80
10, 92928, Note_on_c, 9, 54, 80
10, 92928, Note_on_c, 9, 36, 90
10, 92928, Note_on_c, 9, 42, 70
10, 93024, Note_off_c, 9, 69, 0
10, 93024, Note_off_c, 9, 54, 0
10, 93024, Note_off_c, 9, 36, 0
10, 93024, Note_off_c, 9, 42, 0
10, 93024, Note_on_c, 9, 54, 80
10, 93024, Note_on_c, 9, 42, 70
10, 93120, Note_off_c, 9, 54, 0
10, 93120, Note_off_c, 9, 42, 0
10, 93120, Note_on_c, 9, 69, 80
10, 93120, Note_on_c, 9, 54, 80
10, 93120, Note_on_c, 9, 46, 70
10, 93216, Note_off_c, 9, 69, 0
10, 93216, Note_off_c, 9, 54, 0
10, 93216, Note_off_c, 9, 46, 0
10, 93312, Note_on_c, 9, 39, 80
10, 93312, Note_on_c, 9, 42, 70
10, 93312, Note_on_c, 9, 69, 80
10, 93312, Note_on_c, 9, 54, 80
10, 93312, Note_on_c, 9, 36, 90
10, 93312, Note_on_c, 9, 38, 90
10, 93408, Note_off_c, 9, 39, 0
10, 93408, Note_off_c, 9, 42, 0
10, 93408, Note_off_c, 9, 69, 0
10, 93408, Note_off_c, 9, 54, 0
10, 93408, Note_off_c, 9, 36, 0
10, 93408, Note_off_c, 9, 38, 0
10, 93408, Note_on_c, 9, 54, 80
10, 93408, Note_on_c, 9, 42, 70
10, 93504, Note_off_c, 9, 54, 0
10, 93504, Note_off_c, 9, 42, 0
10, 93504, Note_on_c, 9, 69, 80
10, 93504, Note_on_c, 9, 54, 80
10, 93504, Note_on_c, 9, 46, 70
10, 93600, Note_off_c, 9, 69, 0
10, 93600, Note_off_c, 9, 54, 0
10, 93600, Note_off_c, 9, 46, 0
10, 93600, Note_on_c, 9, 38, 90
10, 93696, Note_off_c, 9, 38, 0
10, 93696, Note_on_c, 9, 69, 80
10, 93696, Note_on_c, 9, 54, 80
10, 93696, Note_on_c, 9, 36, 90
10, 93696, Note_on_c, 9, 42, 70
10, 93792, Note_off_c, 9, 69, 0
10, 93792, Note_off_c, 9, 54, 0
10, 93792, Note_off_c, 9, 36, 0
10, 93792, Note_off_c, 9, 42, 0
10, 93888, Note_on_c, 9, 69, 80
10, 93888, Note_on_c, 9, 54, 90
10, 93888, Note_on_c, 9, 46, 70
10, 93984, Note_off_c, 9, 69, 0
10, 93984, Note_off_c, 9, 54, 0
10, 93984, Note_off_c, 9, 46, 0
10, 94080, Note_on_c, 9, 39, 80
10, 94080, Note_on_c, 9, 69, 80
10, 94080, Note_on_c, 9, 54, 80
10, 94080, Note_on_c, 9, 36, 90
10, 94080, Note_on_c, 9, 42, 70
10, 94080, Note_on_c, 9, 38, 90
10, 94176, Note_off_c, 9, 39, 0
10, 94176, Note_off_c, 9, 69, 0
10, 94176, Note_off_c, 9, 54, 0
10, 94176, Note_off_c, 9, 36, 0
10, 94176, Note_off_c, 9, 42, 0
10, 94176, Note_off_c, 9, 38, 0
10, 94272, Note_on_c, 9, 69, 80
10, 94272, Note_on_c, 9, 54, 80
10, 94272, Note_on_c, 9, 46, 70
10, 94368, Note_off_c, 9, 69, 0
10, 94368, Note_off_c, 9, 54, 0
10, 94368, Note_off_c, 9, 46, 0
10, 94368, Note_on_c, 9, 54, 80
10, 94464, Note_off_c, 9, 54, 0
10, 94464, Note_on_c, 9, 69, 80
10, 94464, Note_on_c, 9, 54, 80
10, 94464, Note_on_c, 9, 36, 90
10, 94464, Note_on_c, 9, 42, 70
10, 94560, Note_off_c, 9, 69, 0
10, 94560, Note_off_c, 9, 54, 0
10, 94560, Note_off_c, 9, 36, 0
10, 94560, Note_off_c, 9, 42, 0
10, 94560, Note_on_c, 9, 54, 80
10, 94560, Note_on_c, 9, 42, 70
10, 94656, Note_off_c, 9, 54, 0
10, 94656, Note_off_c, 9, 42, 0
10, 94656, Note_on_c, 9, 69, 80
10, 94656, Note_on_c, 9, 54, 80
10, 94656, Note_on_c, 9, 46, 70
10, 94752, Note_off_c, 9, 69, 0
10, 94752, Note_off_c, 9, 54, 0
10, 94752, Note_off_c, 9, 46, 0
10, 94848, Note_on_c, 9, 39, 80
10, 94848, Note_on_c, 9, 42, 70
10, 94848, Note_on_c, 9, 69, 80
10, 94848, Note_on_c, 9, 54, 80
10, 94848, Note_on_c, 9, 36, 90
10, 94848, Note_on_c, 9, 38, 90
10, 94944, Note_off_c, 9, 39, 0
10, 94944, Note_off_c, 9, 42, 0
10, 94944, Note_off_c, 9, 69, 0
10, 94944, Note_off_c, 9, 54, 0
10, 94944, Note_off_c, 9, 36, 0
10, 94944, Note_off_c, 9, 38, 0
10, 94944, Note_on_c, 9, 54, 80
10, 94944, Note_on_c, 9, 42, 70
10, 95040, Note_off_c, 9, 54, 0
10, 95040, Note_off_c, 9, 42, 0
10, 95040, Note_on_c, 9, 38, 80
10, 95040, Note_on_c, 9, 69, 80
10, 95040, Note_on_c, 9, 54, 80
10, 95040, Note_on_c, 9, 46, 70
10, 95136, Note_off_c, 9, 38, 0
10, 95136, Note_off_c, 9, 69, 0
10, 95136, Note_off_c, 9, 54, 0
10, 95136, Note_off_c, 9, 46, 0
10, 95136, Note_on_c, 9, 38, 90
10, 95232, Note_off_c, 9, 38, 0
10, 95232, Note_on_c, 9, 69, 80
10, 95232, Note_on_c, 9, 54, 80
10, 95232, Note_on_c, 9, 36, 80
10, 95232, Note_on_c, 9, 42, 70
10, 95328, Note_off_c, 9, 69, 0
10, 95328, Note_off_c, 9, 54, 0
10, 95328, Note_off_c, 9, 36, 0
10, 95328, Note_off_c, 9, 42, 0
10, 95424, Note_on_c, 9, 69, 80
10, 95424, Note_on_c, 9, 54, 90
10, 95424, Note_on_c, 9, 46, 70
10, 95520, Note_off_c, 9, 69, 0
10, 95520, Note_off_c, 9, 54, 0
10, 95520, Note_off_c, 9, 46, 0
10, 95616, Note_on_c, 9, 39, 80
10, 95616, Note_on_c, 9, 69, 80
10, 95616, Note_on_c, 9, 54, 80
10, 95616, Note_on_c, 9, 36, 90
10, 95616, Note_on_c, 9, 42, 70
10, 95616, Note_on_c, 9, 38, 90
10, 95712, Note_off_c, 9, 39, 0
10, 95712, Note_off_c, 9, 69, 0
10, 95712, Note_off_c, 9, 54, 0
10, 95712, Note_off_c, 9, 36, 0
10, 95712, Note_off_c, 9, 42, 0
10, 95712, Note_off_c, 9, 38, 0
10, 95808, Note_on_c, 9, 69, 80
10, 95808, Note_on_c, 9, 54, 80
10, 95808, Note_on_c, 9, 46, 70
10, 95904, Note_off_c, 9, 69, 0
10, 95904, Note_off_c, 9, 54, 0
10, 95904, Note_off_c, 9, 46, 0
10, 95904, Note_on_c, 9, 54, 80
10, 96000, Note_off_c, 9, 54, 0
10, 96000, Note_on_c, 9, 69, 80
10, 96000, Note_on_c, 9, 54, 80
10, 96000, Note_on_c, 9, 36, 90
10, 96000, Note_on_c, 9, 42, 70
10, 96096, Note_off_c, 9, 69, 0
10, 96096, Note_off_c, 9, 54, 0
10, 96096, Note_off_c, 9, 36, 0
10, 96096, Note_off_c, 9, 42, 0
10, 96096, Note_on_c, 9, 54, 80
10, 96096, Note_on_c, 9, 42, 70
10, 96192, Note_off_c, 9, 54, 0
10, 96192, Note_off_c, 9, 42, 0
10, 96192, Note_on_c, 9, 69, 80
10, 96192, Note_on_c, 9, 54, 80
10, 96192, Note_on_c, 9, 46, 70
10, 96288, Note_off_c, 9, 69, 0
10, 96288, Note_off_c, 9, 54, 0
10, 96288, Note_off_c, 9, 46, 0
10, 96384, Note_on_c, 9, 39, 80
10, 96384, Note_on_c, 9, 42, 70
10, 96384, Note_on_c, 9, 69, 80
10, 96384, Note_on_c, 9, 54, 80
10, 96384, Note_on_c, 9, 36, 90
10, 96384, Note_on_c, 9, 38, 90
10, 96480, Note_off_c, 9, 39, 0
10, 96480, Note_off_c, 9, 42, 0
10, 96480, Note_off_c, 9, 69, 0
10, 96480, Note_off_c, 9, 54, 0
10, 96480, Note_off_c, 9, 36, 0
10, 96480, Note_off_c, 9, 38, 0
10, 96480, Note_on_c, 9, 54, 80
10, 96480, Note_on_c, 9, 42, 70
10, 96576, Note_off_c, 9, 54, 0
10, 96576, Note_off_c, 9, 42, 0
10, 96576, Note_on_c, 9, 69, 80
10, 96576, Note_on_c, 9, 54, 80
10, 96576, Note_on_c, 9, 46, 70
10, 96672, Note_off_c, 9, 69, 0
10, 96672, Note_off_c, 9, 54, 0
10, 96672, Note_off_c, 9, 46, 0
10, 96672, Note_on_c, 9, 38, 90
10, 96768, Note_off_c, 9, 38, 0
10, 96768, Note_on_c, 9, 69, 80
10, 96768, Note_on_c, 9, 54, 80
10, 96768, Note_on_c, 9, 36, 90
10, 96768, Note_on_c, 9, 42, 70
10, 96864, Note_off_c, 9, 69, 0
10, 96864, Note_off_c, 9, 54, 0
10, 96864, Note_off_c, 9, 36, 0
10, 96864, Note_off_c, 9, 42, 0
10, 96960, Note_on_c, 9, 69, 80
10, 96960, Note_on_c, 9, 54, 90
10, 96960, Note_on_c, 9, 46, 70
10, 97056, Note_off_c, 9, 69, 0
10, 97056, Note_off_c, 9, 54, 0
10, 97056, Note_off_c, 9, 46, 0
10, 97152, Note_on_c, 9, 39, 80
10, 97152, Note_on_c, 9, 69, 80
10, 97152, Note_on_c, 9, 54, 80
10, 97152, Note_on_c, 9, 36, 90
10, 97152, Note_on_c, 9, 42, 70
10, 97152, Note_on_c, 9, 38, 90
10, 97248, Note_off_c, 9, 39, 0
10, 97248, Note_off_c, 9, 69, 0
10, 97248, Note_off_c, 9, 54, 0
10, 97248, Note_off_c, 9, 36, 0
10, 97248, Note_off_c, 9, 42, 0
10, 97248, Note_off_c, 9, 38, 0
10, 97344, Note_on_c, 9, 69, 80
10, 97344, Note_on_c, 9, 54, 80
10, 97344, Note_on_c, 9, 46, 70
10, 97440, Note_off_c, 9, 69, 0
10, 97440, Note_off_c, 9, 54, 0
10, 97440, Note_off_c, 9, 46, 0
10, 97440, Note_on_c, 9, 54, 80
10, 97536, Note_off_c, 9, 54, 0
10, 97536, Note_on_c, 9, 69, 80
10, 97536, Note_on_c, 9, 54, 80
10, 97536, Note_on_c, 9, 36, 90
10, 97536, Note_on_c, 9, 42, 70
10, 97632, Note_off_c, 9, 69, 0
10, 97632, Note_off_c, 9, 54, 0
10, 97632, Note_off_c, 9, 36, 0
10, 97632, Note_off_c, 9, 42, 0
10, 97632, Note_on_c, 9, 54, 80
10, 97632, Note_on_c, 9, 42, 70
10, 97728, Note_off_c, 9, 54, 0
10, 97728, Note_off_c, 9, 42, 0
10, 97728, Note_on_c, 9, 69, 80
10, 97728, Note_on_c, 9, 54, 80
10, 97728, Note_on_c, 9, 46, 70
10, 97824, Note_off_c, 9, 69, 0
10, 97824, Note_off_c, 9, 54, 0
10, 97824, Note_off_c, 9, 46, 0
10, 97920, Note_on_c, 9, 39, 80
10, 97920, Note_on_c, 9, 42, 70
10, 97920, Note_on_c, 9, 69, 80
10, 97920, Note_on_c, 9, 54, 80
10, 97920, Note_on_c, 9, 36, 90
10, 97920, Note_on_c, 9, 38, 90
10, 98016, Note_off_c, 9, 39, 0
10, 98016, Note_off_c, 9, 42, 0
10, 98016, Note_off_c, 9, 69, 0
10, 98016, Note_off_c, 9, 54, 0
10, 98016, Note_off_c, 9, 36, 0
10, 98016, Note_off_c, 9, 38, 0
10, 98016, Note_on_c, 9, 54, 80
10, 98016, Note_on_c, 9, 42, 70
10, 98112, Note_off_c, 9, 54, 0
10, 98112, Note_off_c, 9, 42, 0
10, 98112, Note_on_c, 9, 38, 80
10, 98112, Note_on_c, 9, 69, 80
10, 98112, Note_on_c, 9, 54, 80
10, 98112, Note_on_c, 9, 46, 70
10, 98208, Note_off_c, 9, 38, 0
10, 98208, Note_off_c, 9, 69, 0
10, 98208, Note_off_c, 9, 54, 0
10, 98208, Note_off_c, 9, 46, 0
10, 98208, Note_on_c, 9, 38, 90
10, 98304, Note_off_c, 9, 38, 0
10, 98304, Note_on_c, 9, 69, 80
10, 98304, Note_on_c, 9, 54, 80
10, 98304, Note_on_c, 9, 36, 80
10, 98304, Note_on_c, 9, 42, 70
10, 98400, Note_off_c, 9, 69, 0
10, 98400, Note_off_c, 9, 54, 0
10, 98400, Note_off_c, 9, 36, 0
10, 98400, Note_off_c, 9, 42, 0
10, 98496, Note_on_c, 9, 69, 80
10, 98496, Note_on_c, 9, 54, 90
10, 98496, Note_on_c, 9, 46, 70
10, 98592, Note_off_c, 9, 69, 0
10, 98592, Note_off_c, 9, 54, 0
10, 98592, Note_off_c, 9, 46, 0
10, 98688, Note_on_c, 9, 39, 80
10, 98688, Note_on_c, 9, 69, 80
10, 98688, Note_on_c, 9, 54, 80
10, 98688, Note_on_c, 9, 36, 90
10, 98688, Note_on_c, 9, 42, 70
10, 98688, Note_on_c, 9, 38, 90
10, 98784, Note_off_c, 9, 39, 0
10, 98784, Note_off_c, 9, 69, 0
10, 98784, Note_off_c, 9, 54, 0
10, 98784, Note_off_c, 9, 36, 0
10, 98784, Note_off_c, 9, 42, 0
10, 98784, Note_off_c, 9, 38, 0
10, 98880, Note_on_c, 9, 69, 80
10, 98880, Note_on_c, 9, 54, 80
10, 98880, Note_on_c, 9, 46, 70
10, 98976, Note_off_c, 9, 69, 0
10, 98976, Note_off_c, 9, 54, 0
10, 98976, Note_off_c, 9, 46, 0
10, 98976, Note_on_c, 9, 54, 80
10, 99072, Note_off_c, 9, 54, 0
10, 99072, Note_on_c, 9, 69, 80
10, 99072, Note_on_c, 9, 54, 80
10, 99072, Note_on_c, 9, 36, 90
10, 99072, Note_on_c, 9, 42, 70
10, 99168, Note_off_c, 9, 69, 0
10, 99168, Note_off_c, 9, 54, 0
10, 99168, Note_off_c, 9, 36, 0
10, 99168, Note_off_c, 9, 42, 0
10, 99168, Note_on_c, 9, 54, 80
10, 99168, Note_on_c, 9, 42, 70
10, 99264, Note_off_c, 9, 54, 0
10, 99264, Note_off_c, 9, 42, 0
10, 99264, Note_on_c, 9, 69, 80
10, 99264, Note_on_c, 9, 54, 80
10, 99264, Note_on_c, 9, 46, 70
10, 99360, Note_off_c, 9, 69, 0
10, 99360, Note_off_c, 9, 54, 0
10, 99360, Note_off_c, 9, 46, 0
10, 99456, Note_on_c, 9, 39, 80
10, 99456, Note_on_c, 9, 42, 70
10, 99456, Note_on_c, 9, 69, 80
10, 99456, Note_on_c, 9, 54, 80
10, 99456, Note_on_c, 9, 36, 90
10, 99456, Note_on_c, 9, 38, 90
10, 99552, Note_off_c, 9, 39, 0
10, 99552, Note_off_c, 9, 42, 0
10, 99552, Note_off_c, 9, 69, 0
10, 99552, Note_off_c, 9, 54, 0
10, 99552, Note_off_c, 9, 36, 0
10, 99552, Note_off_c, 9, 38, 0
10, 99552, Note_on_c, 9, 54, 80
10, 99552, Note_on_c, 9, 42, 70
10, 99648, Note_off_c, 9, 54, 0
10, 99648, Note_off_c, 9, 42, 0
10, 99648, Note_on_c, 9, 69, 80
10, 99648, Note_on_c, 9, 54, 80
10, 99648, Note_on_c, 9, 46, 70
10, 99744, Note_off_c, 9, 69, 0
10, 99744, Note_off_c, 9, 54, 0
10, 99744, Note_off_c, 9, 46, 0
10, 99744, Note_on_c, 9, 38, 90
10, 99840, Note_off_c, 9, 38, 0
10, 99840, Note_on_c, 9, 69, 80
10, 99840, Note_on_c, 9, 54, 80
10, 99840, Note_on_c, 9, 36, 90
10, 99840, Note_on_c, 9, 42, 70
10, 99936, Note_off_c, 9, 69, 0
10, 99936, Note_off_c, 9, 54, 0
10, 99936, Note_off_c, 9, 36, 0
10, 99936, Note_off_c, 9, 42, 0
10, 100032, Note_on_c, 9, 69, 80
10, 100032, Note_on_c, 9, 54, 90
10, 100032, Note_on_c, 9, 46, 70
10, 100128, Note_off_c, 9, 69, 0
10, 100128, Note_off_c, 9, 54, 0
10, 100128, Note_off_c, 9, 46, 0
10, 100224, Note_on_c, 9, 39, 80
10, 100224, Note_on_c, 9, 69, 80
10, 100224, Note_on_c, 9, 54, 80
10, 100224, Note_on_c, 9, 36, 90
10, 100224, Note_on_c, 9, 42, 70
10, 100224, Note_on_c, 9, 38, 90
10, 100320, Note_off_c, 9, 39, 0
10, 100320, Note_off_c, 9, 69, 0
10, 100320, Note_off_c, 9, 54, 0
10, 100320, Note_off_c, 9, 36, 0
10, 100320, Note_off_c, 9, 42, 0
10, 100320, Note_off_c, 9, 38, 0
10, 100416, Note_on_c, 9, 69, 80
10, 100416, Note_on_c, 9, 54, 80
10, 100416, Note_on_c, 9, 46, 70
10, 100512, Note_off_c, 9, 69, 0
10, 100512, Note_off_c, 9, 54, 0
10, 100512, Note_off_c, 9, 46, 0
10, 100512, Note_on_c, 9, 54, 80
10, 100608, Note_off_c, 9, 54, 0
10, 100608, Note_on_c, 9, 69, 80
10, 100608, Note_on_c, 9, 54, 80
10, 100608, Note_on_c, 9, 36, 90
10, 100608, Note_on_c, 9, 42, 70
10, 100704, Note_off_c, 9, 69, 0
10, 100704, Note_off_c, 9, 54, 0
10, 100704, Note_off_c, 9, 36, 0
10, 100704, Note_off_c, 9, 42, 0
10, 100704, Note_on_c, 9, 54, 80
10, 100704, Note_on_c, 9, 42, 70
10, 100800, Note_off_c, 9, 54, 0
10, 100800, Note_off_c, 9, 42, 0
10, 100800, Note_on_c, 9, 69, 80
10, 100800, Note_on_c, 9, 54, 80
10, 100800, Note_on_c, 9, 46, 70
10, 100896, Note_off_c, 9, 69, 0
10, 100896, Note_off_c, 9, 54, 0
10, 100896, Note_off_c, 9, 46, 0
10, 100992, Note_on_c, 9, 39, 80
10, 100992, Note_on_c, 9, 42, 70
10, 100992, Note_on_c, 9, 69, 80
10, 100992, Note_on_c, 9, 54, 80
10, 100992, Note_on_c, 9, 36, 90
10, 100992, Note_on_c, 9, 38, 90
10, 101088, Note_off_c, 9, 39, 0
10, 101088, Note_off_c, 9, 42, 0
10, 101088, Note_off_c, 9, 69, 0
10, 101088, Note_off_c, 9, 54, 0
10, 101088, Note_off_c, 9, 36, 0
10, 101088, Note_off_c, 9, 38, 0
10, 101088, Note_on_c, 9, 54, 80
10, 101088, Note_on_c, 9, 42, 70
10, 101184, Note_off_c, 9, 54, 0
10, 101184, Note_off_c, 9, 42, 0
10, 101184, Note_on_c, 9, 38, 80
10, 101184, Note_on_c, 9, 69, 80
10, 101184, Note_on_c, 9, 54, 80
10, 101184, Note_on_c, 9, 46, 70
10, 101280, Note_off_c, 9, 38, 0
10, 101280, Note_off_c, 9, 69, 0
10, 101280, Note_off_c, 9, 54, 0
10, 101280, Note_off_c, 9, 46, 0
10, 101280, Note_on_c, 9, 38, 90
10, 101376, Note_off_c, 9, 38, 0
10, 101376, Note_on_c, 9, 69, 80
10, 101376, Note_on_c, 9, 54, 80
10, 101376, Note_on_c, 9, 36, 80
10, 101376, Note_on_c, 9, 42, 70
10, 101472, Note_off_c, 9, 69, 0
10, 101472, Note_off_c, 9, 54, 0
10, 101472, Note_off_c, 9, 36, 0
10, 101472, Note_off_c, 9, 42, 0
10, 101568, Note_on_c, 9, 69, 80
10, 101568, Note_on_c, 9, 54, 90
10, 101568, Note_on_c, 9, 46, 70
10, 101664, Note_off_c, 9, 69, 0
10, 101664, Note_off_c, 9, 54, 0
10, 101664, Note_off_c, 9, 46, 0
10, 101760, Note_on_c, 9, 39, 80
10, 101760, Note_on_c, 9, 69, 80
10, 101760, Note_on_c, 9, 54, 80
10, 101760, Note_on_c, 9, 36, 90
10, 101760, Note_on_c, 9, 42, 70
10, 101760, Note_on_c, 9, 38, 90
10, 101856, Note_off_c, 9, 39, 0
10, 101856, Note_off_c, 9, 69, 0
10, 101856, Note_off_c, 9, 54, 0
10, 101856, Note_off_c, 9, 36, 0
10, 101856, Note_off_c, 9, 42, 0
10, 101856, Note_off_c, 9, 38, 0
10, 101952, Note_on_c, 9, 69, 80
10, 101952, Note_on_c, 9, 54, 80
10, 101952, Note_on_c, 9, 46, 70
10, 102048, Note_off_c, 9, 69, 0
10, 102048, Note_off_c, 9, 54, 0
10, 102048, Note_off_c, 9, 46, 0
10, 102048, Note_on_c, 9, 54, 80
10, 102144, Note_off_c, 9, 54, 0
10, 102144, Note_on_c, 9, 69, 80
10, 102144, Note_on_c, 9, 54, 80
10, 102144, Note_on_c, 9, 36, 90
10, 102144, Note_on_c, 9, 42, 70
10, 102240, Note_off_c, 9, 69, 0
10, 102240, Note_off_c, 9, 54, 0
10, 102240, Note_off_c, 9, 36, 0
10, 102240, Note_off_c, 9, 42, 0
10, 102240, Note_on_c, 9, 54, 80
10, 102240, Note_on_c, 9, 42, 70
10, 102336, Note_off_c, 9, 54, 0
10, 102336, Note_off_c, 9, 42, 0
10, 102336, Note_on_c, 9, 69, 80
10, 102336, Note_on_c, 9, 54, 80
10, 102336, Note_on_c, 9, 46, 70
10, 102432, Note_off_c, 9, 69, 0
10, 102432, Note_off_c, 9, 54, 0
10, 102432, Note_off_c, 9, 46, 0
10, 102528, Note_on_c, 9, 39, 80
10, 102528, Note_on_c, 9, 42, 70
10, 102528, Note_on_c, 9, 69, 80
10, 102528, Note_on_c, 9, 54, 80
10, 102528, Note_on_c, 9, 36, 90
10, 102528, Note_on_c, 9, 38, 90
10, 102624, Note_off_c, 9, 39, 0
10, 102624, Note_off_c, 9, 42, 0
10, 102624, Note_off_c, 9, 69, 0
10, 102624, Note_off_c, 9, 54, 0
10, 102624, Note_off_c, 9, 36, 0
10, 102624, Note_off_c, 9, 38, 0
10, 102624, Note_on_c, 9, 54, 80
10, 102624, Note_on_c, 9, 42, 70
10, 102720, Note_off_c, 9, 54, 0
10, 102720, Note_off_c, 9, 42, 0
10, 102720, Note_on_c, 9, 69, 80
10, 102720, Note_on_c, 9, 54, 80
10, 102720, Note_on_c, 9, 46, 70
10, 102816, Note_off_c, 9, 69, 0
10, 102816, Note_off_c, 9, 54, 0
10, 102816, Note_off_c, 9, 46, 0
10, 102816, Note_on_c, 9, 38, 90
10, 102912, Note_off_c, 9, 38, 0
10, 102912, Note_on_c, 9, 69, 80
10, 102912, Note_on_c, 9, 54, 80
10, 102912, Note_on_c, 9, 36, 90
10, 102912, Note_on_c, 9, 42, 70
10, 103008, Note_off_c, 9, 69, 0
10, 103008, Note_off_c, 9, 54, 0
10, 103008, Note_off_c, 9, 36, 0
10, 103008, Note_off_c, 9, 42, 0
10, 103104, Note_on_c, 9, 69, 80
10, 103104, Note_on_c, 9, 54, 90
10, 103104, Note_on_c, 9, 46, 70
10, 103200, Note_off_c, 9, 69, 0
10, 103200, Note_off_c, 9, 54, 0
10, 103200, Note_off_c, 9, 46, 0
10, 103296, Note_on_c, 9, 39, 80
10, 103296, Note_on_c, 9, 69, 80
10, 103296, Note_on_c, 9, 54, 80
10, 103296, Note_on_c, 9, 36, 90
10, 103296, Note_on_c, 9, 42, 70
10, 103296, Note_on_c, 9, 38, 90
10, 103392, Note_off_c, 9, 39, 0
10, 103392, Note_off_c, 9, 69, 0
10, 103392, Note_off_c, 9, 54, 0
10, 103392, Note_off_c, 9, 36, 0
10, 103392, Note_off_c, 9, 42, 0
10, 103392, Note_off_c, 9, 38, 0
10, 103488, Note_on_c, 9, 69, 80
10, 103488, Note_on_c, 9, 54, 80
10, 103488, Note_on_c, 9, 46, 70
10, 103584, Note_off_c, 9, 69, 0
10, 103584, Note_off_c, 9, 54, 0
10, 103584, Note_off_c, 9, 46, 0
10, 103584, Note_on_c, 9, 54, 80
10, 103680, Note_off_c, 9, 54, 0
10, 103680, Note_on_c, 9, 69, 80
10, 103680, Note_on_c, 9, 54, 80
10, 103680, Note_on_c, 9, 36, 90
10, 103680, Note_on_c, 9, 42, 70
10, 103776, Note_off_c, 9, 69, 0
10, 103776, Note_off_c, 9, 54, 0
10, 103776, Note_off_c, 9, 36, 0
10, 103776, Note_off_c, 9, 42, 0
10, 103776, Note_on_c, 9, 54, 80
10, 103776, Note_on_c, 9, 42, 70
10, 103872, Note_off_c, 9, 54, 0
10, 103872, Note_off_c, 9, 42, 0
10, 103872, Note_on_c, 9, 69, 80
10, 103872, Note_on_c, 9, 54, 80
10, 103872, Note_on_c, 9, 46, 70
10, 103968, Note_off_c, 9, 69, 0
10, 103968, Note_off_c, 9, 54, 0
10, 103968, Note_off_c, 9, 46, 0
10, 104064, Note_on_c, 9, 39, 80
10, 104064, Note_on_c, 9, 42, 70
10, 104064, Note_on_c, 9, 69, 80
10, 104064, Note_on_c, 9, 54, 80
10, 104064, Note_on_c, 9, 36, 90
10, 104064, Note_on_c, 9, 38, 90
10, 104160, Note_off_c, 9, 39, 0
10, 104160, Note_off_c, 9, 42, 0
10, 104160, Note_off_c, 9, 69, 0
10, 104160, Note_off_c, 9, 54, 0
10, 104160, Note_off_c, 9, 36, 0
10, 104160, Note_off_c, 9, 38, 0
10, 104160, Note_on_c, 9, 54, 80
10, 104160, Note_on_c, 9, 42, 70
10, 104256, Note_off_c, 9, 54, 0
10, 104256, Note_off_c, 9, 42, 0
10, 104256, Note_on_c, 9, 38, 80
10, 104256, Note_on_c, 9, 69, 80
10, 104256, Note_on_c, 9, 54, 80
10, 104256, Note_on_c, 9, 46, 70
10, 104352, Note_off_c, 9, 38, 0
10, 104352, Note_off_c, 9, 69, 0
10, 104352, Note_off_c, 9, 54, 0
10, 104352, Note_off_c, 9, 46, 0
10, 104352, Note_on_c, 9, 38, 90
10, 104448, Note_off_c, 9, 38, 0
10, 104448, Note_on_c, 9, 69, 80
10, 104448, Note_on_c, 9, 54, 80
10, 104448, Note_on_c, 9, 36, 80
10, 104448, Note_on_c, 9, 42, 70
10, 104544, Note_off_c, 9, 69, 0
10, 104544, Note_off_c, 9, 54, 0
10, 104544, Note_off_c, 9, 36, 0
10, 104544, Note_off_c, 9, 42, 0
10, 104640, Note_on_c, 9, 69, 80
10, 104640, Note_on_c, 9, 54, 90
10, 104640, Note_on_c, 9, 46, 70
10, 104736, Note_off_c, 9, 69, 0
10, 104736, Note_off_c, 9, 54, 0
10, 104736, Note_off_c, 9, 46, 0
10, 104832, Note_on_c, 9, 39, 80
10, 104832, Note_on_c, 9, 69, 80
10, 104832, Note_on_c, 9, 54, 80
10, 104832, Note_on_c, 9, 36, 90
10, 104832, Note_on_c, 9, 42, 70
10, 104832, Note_on_c, 9, 38, 90
10, 104928, Note_off_c, 9, 39, 0
10, 104928, Note_off_c, 9, 69, 0
10, 104928, Note_off_c, 9, 54, 0
10, 104928, Note_off_c, 9, 36, 0
10, 104928, Note_off_c, 9, 42, 0
10, 104928, Note_off_c, 9, 38, 0
10, 105024, Note_on_c, 9, 69, 80
10, 105024, Note_on_c, 9, 54, 80
10, 105024, Note_on_c, 9, 46, 70
10, 105120, Note_off_c, 9, 69, 0
10, 105120, Note_off_c, 9, 54, 0
10, 105120, Note_off_c, 9, 46, 0
10, 105120, Note_on_c, 9, 54, 80
10, 105216, Note_off_c, 9, 54, 0
10, 105216, Note_on_c, 9, 69, 80
10, 105216, Note_on_c, 9, 54, 80
10, 105216, Note_on_c, 9, 36, 90
10, 105216, Note_on_c, 9, 42, 70
10, 105312, Note_off_c, 9, 69, 0
10, 105312, Note_off_c, 9, 54, 0
10, 105312, Note_off_c, 9, 36, 0
10, 105312, Note_off_c, 9, 42, 0
10, 105312, Note_on_c, 9, 54, 80
10, 105312, Note_on_c, 9, 42, 70
10, 105408, Note_off_c, 9, 54, 0
10, 105408, Note_off_c, 9, 42, 0
10, 105408, Note_on_c, 9, 69, 80
10, 105408, Note_on_c, 9, 54, 80
10, 105408, Note_on_c, 9, 46, 70
10, 105504, Note_off_c, 9, 69, 0
10, 105504, Note_off_c, 9, 54, 0
10, 105504, Note_off_c, 9, 46, 0
10, 105600, Note_on_c, 9, 39, 80
10, 105600, Note_on_c, 9, 42, 70
10, 105600, Note_on_c, 9, 69, 80
10, 105600, Note_on_c, 9, 54, 80
10, 105600, Note_on_c, 9, 36, 90
10, 105600, Note_on_c, 9, 38, 90
10, 105696, Note_off_c, 9, 39, 0
10, 105696, Note_off_c, 9, 42, 0
10, 105696, Note_off_c, 9, 69, 0
10, 105696, Note_off_c, 9, 54, 0
10, 105696, Note_off_c, 9, 36, 0
10, 105696, Note_off_c, 9, 38, 0
10, 105696, Note_on_c, 9, 54, 80
10, 105696, Note_on_c, 9, 42, 70
10, 105792, Note_off_c, 9, 54, 0
10, 105792, Note_off_c, 9, 42, 0
10, 105792, Note_on_c, 9, 69, 80
10, 105792, Note_on_c, 9, 54, 80
10, 105792, Note_on_c, 9, 46, 70
10, 105888, Note_off_c, 9, 69, 0
10, 105888, Note_off_c, 9, 54, 0
10, 105888, Note_off_c, 9, 46, 0
10, 105888, Note_on_c, 9, 38, 90
10, 105984, Note_off_c, 9, 38, 0
10, 105984, Note_on_c, 9, 69, 80
10, 105984, Note_on_c, 9, 54, 80
10, 105984, Note_on_c, 9, 36, 90
10, 105984, Note_on_c, 9, 42, 70
10, 106080, Note_off_c, 9, 69, 0
10, 106080, Note_off_c, 9, 54, 0
10, 106080, Note_off_c, 9, 36, 0
10, 106080, Note_off_c, 9, 42, 0
10, 106176, Note_on_c, 9, 69, 80
10, 106176, Note_on_c, 9, 54, 90
10, 106176, Note_on_c, 9, 46, 70
10, 106272, Note_off_c, 9, 69, 0
10, 106272, Note_off_c, 9, 54, 0
10, 106272, Note_off_c, 9, 46, 0
10, 106368, Note_on_c, 9, 39, 80
10, 106368, Note_on_c, 9, 69, 80
10, 106368, Note_on_c, 9, 54, 80
10, 106368, Note_on_c, 9, 36, 90
10, 106368, Note_on_c, 9, 42, 70
10, 106368, Note_on_c, 9, 38, 90
10, 106464, Note_off_c, 9, 39, 0
10, 106464, Note_off_c, 9, 69, 0
10, 106464, Note_off_c, 9, 54, 0
10, 106464, Note_off_c, 9, 36, 0
10, 106464, Note_off_c, 9, 42, 0
10, 106464, Note_off_c, 9, 38, 0
10, 106560, Note_on_c, 9, 69, 80
10, 106560, Note_on_c, 9, 54, 80
10, 106560, Note_on_c, 9, 46, 70
10, 106656, Note_off_c, 9, 69, 0
10, 106656, Note_off_c, 9, 54, 0
10, 106656, Note_off_c, 9, 46, 0
10, 106656, Note_on_c, 9, 54, 80
10, 106752, Note_off_c, 9, 54, 0
10, 106752, Note_on_c, 9, 69, 80
10, 106752, Note_on_c, 9, 54, 80
10, 106752, Note_on_c, 9, 36, 90
10, 106752, Note_on_c, 9, 42, 70
10, 106848, Note_off_c, 9, 69, 0
10, 106848, Note_off_c, 9, 54, 0
10, 106848, Note_off_c, 9, 36, 0
10, 106848, Note_off_c, 9, 42, 0
10, 106848, Note_on_c, 9, 54, 80
10, 106848, Note_on_c, 9, 42, 70
10, 106944, Note_off_c, 9, 54, 0
10, 106944, Note_off_c, 9, 42, 0
10, 106944, Note_on_c, 9, 69, 80
10, 106944, Note_on_c, 9, 54, 80
10, 106944, Note_on_c, 9, 46, 70
10, 107040, Note_off_c, 9, 69, 0
10, 107040, Note_off_c, 9, 54, 0
10, 107040, Note_off_c, 9, 46, 0
10, 107136, Note_on_c, 9, 39, 80
10, 107136, Note_on_c, 9, 42, 70
10, 107136, Note_on_c, 9, 69, 80
10, 107136, Note_on_c, 9, 54, 80
10, 107136, Note_on_c, 9, 36, 90
10, 107136, Note_on_c, 9, 38, 90
10, 107232, Note_off_c, 9, 39, 0
10, 107232, Note_off_c, 9, 42, 0
10, 107232, Note_off_c, 9, 69, 0
10, 107232, Note_off_c, 9, 54, 0
10, 107232, Note_off_c, 9, 36, 0
10, 107232, Note_off_c, 9, 38, 0
10, 107232, Note_on_c, 9, 54, 80
10, 107232, Note_on_c, 9, 42, 70
10, 107328, Note_off_c, 9, 54, 0
10, 107328, Note_off_c, 9, 42, 0
10, 107328, Note_on_c, 9, 38, 80
10, 107328, Note_on_c, 9, 69, 80
10, 107328, Note_on_c, 9, 54, 80
10, 107328, Note_on_c, 9, 46, 70
10, 107424, Note_off_c, 9, 38, 0
10, 107424, Note_off_c, 9, 69, 0
10, 107424, Note_off_c, 9, 54, 0
10, 107424, Note_off_c, 9, 46, 0
10, 107424, Note_on_c, 9, 38, 90
10, 107520, Note_off_c, 9, 38, 0
10, 107520, Note_on_c, 9, 54, 80
10, 107520, Note_on_c, 9, 36, 90
10, 107520, Note_on_c, 9, 38, 90
10, 107616, Note_off_c, 9, 54, 0
10, 107616, Note_off_c, 9, 36, 0
10, 107616, Note_off_c, 9, 38, 0
10, 107616, Note_on_c, 9, 38, 90
10, 107712, Note_off_c, 9, 38, 0
10, 107712, Note_on_c, 9, 54, 80
10, 107712, Note_on_c, 9, 38, 90
10, 107808, Note_off_c, 9, 54, 0
10, 107808, Note_off_c, 9, 38, 0
10, 107808, Note_on_c, 9, 38, 90
10, 107904, Note_off_c, 9, 38, 0
10, 107904, Note_on_c, 9, 54, 80
10, 107904, Note_on_c, 9, 36, 90
10, 107904, Note_on_c, 9, 38, 90
10, 108000, Note_off_c, 9, 54, 0
10, 108000, Note_off_c, 9, 36, 0
10, 108000, Note_off_c, 9, 38, 0
10, 108096, Note_on_c, 9, 54, 80
10, 108096, Note_on_c, 9, 38, 90
10, 108192, Note_off_c, 9, 54, 0
10, 108192, Note_off_c, 9, 38, 0
10, 108192, Note_on_c, 9, 54, 80
10, 108192, Note_on_c, 9, 38, 90
10, 108288, Note_off_c, 9, 54, 0
10, 108288, Note_off_c, 9, 38, 0
10, 108288, Note_on_c, 9, 54, 80
10, 108288, Note_on_c, 9, 36, 90
10, 108384, Note_off_c, 9, 54, 0
10, 108384, Note_off_c, 9, 36, 0
10, 108384, Note_on_c, 9, 38, 90
10, 108480, Note_off_c, 9, 38, 0
10, 108480, Note_on_c, 9, 54, 80
10, 108480, Note_on_c, 9, 38, 90
10, 108576, Note_off_c, 9, 54, 0
10, 108576, Note_off_c, 9, 38, 0
10, 108576, Note_on_c, 9, 38, 90
10, 108672, Note_off_c, 9, 38, 0
10, 108672, Note_on_c, 9, 54, 80
10, 108672, Note_on_c, 9, 36, 90
10, 108672, Note_on_c, 9, 38, 90
10, 108768, Note_off_c, 9, 54, 0
10, 108768, Note_off_c, 9, 36, 0
10, 108768, Note_off_c, 9, 38, 0
10, 108768, Note_on_c, 9, 54, 80
10, 108768, Note_on_c, 9, 38, 90
10, 108864, Note_off_c, 9, 54, 0
10, 108864, Note_off_c, 9, 38, 0
10, 108864, Note_on_c, 9, 54, 80
10, 108864, Note_on_c, 9, 38, 90
10, 108960, Note_off_c, 9, 54, 0
10, 108960, Note_off_c, 9, 38, 0
10, 108960, Note_on_c, 9, 38, 90
10, 109056, Note_off_c, 9, 38, 0
10, 109056, Note_on_c, 9, 47, 90
10, 109056, Note_on_c, 9, 54, 80
10, 109056, Note_on_c, 9, 36, 90
10, 109056, Note_on_c, 9, 38, 90
10, 109152, Note_off_c, 9, 47, 0
10, 109152, Note_off_c, 9, 54, 0
10, 109152, Note_off_c, 9, 36, 0
10, 109152, Note_off_c, 9, 38, 0
10, 109248, Note_on_c, 9, 54, 80
10, 109344, Note_off_c, 9, 54, 0
10, 109440, Note_on_c, 9, 54, 80
10, 109440, Note_on_c, 9, 38, 90
10, 109536, Note_off_c, 9, 54, 0
10, 109536, Note_off_c, 9, 38, 0
10, 109632, Note_on_c, 9, 54, 80
10, 109728, Note_off_c, 9, 54, 0
10, 109728, Note_on_c, 9, 54, 80
10, 109824, Note_off_c, 9, 54, 0
10, 109824, Note_on_c, 9, 54, 80
10, 109824, Note_on_c, 9, 38, 90
10, 109920, Note_off_c, 9, 54, 0
10, 109920, Note_off_c, 9, 38, 0
10, 109920, Note_on_c, 9, 47, 90
10, 110016, Note_off_c, 9, 47, 0
10, 110016, Note_on_c, 9, 54, 80
10, 110016, Note_on_c, 9, 47, 90
10, 110112, Note_off_c, 9, 54, 0
10, 110112, Note_off_c, 9, 47, 0
10, 110112, Note_on_c, 9, 38, 90
10, 110208, Note_off_c, 9, 38, 0
10, 110208, Note_on_c, 9, 54, 80
10, 110208, Note_on_c, 9, 43, 90
10, 110208, Note_on_c, 9, 39, 80
10, 110304, Note_off_c, 9, 54, 0
10, 110304, Note_off_c, 9, 43, 0
10, 110304, Note_off_c, 9, 39, 0
10, 110304, Note_on_c, 9, 54, 80
10, 110400, Note_off_c, 9, 54, 0
10, 110400, Note_on_c, 9, 54, 80
10, 110400, Note_on_c, 9, 43, 90
10, 110496, Note_off_c, 9, 54, 0
10, 110496, Note_off_c, 9, 43, 0
10, 110592, Note_on_c, 9, 49, 100
10, 110592, Note_on_c, 9, 69, 80
10, 110592, Note_on_c, 9, 54, 80
10, 110592, Note_on_c, 9, 36, 80
10, 110592, Note_on_c, 9, 42, 70
10, 110688, Note_off_c, 9, 69, 0
10, 110688, Note_off_c, 9, 54, 0
10, 110688, Note_off_c, 9, 36, 0
10, 110688, Note_off_c, 9, 42, 0
10, 110784, Note_on_c, 9, 69, 80
10, 110784, Note_on_c, 9, 54, 90
10, 110784, Note_on_c, 9, 46, 70
10, 110880, Note_off_c, 9, 69, 0
10, 110880, Note_off_c, 9, 54, 0
10, 110880, Note_off_c, 9, 46, 0
10, 110972, Note_off_c, 9, 49, 0
10, 110976, Note_on_c, 9, 39, 80
10, 110976, Note_on_c, 9, 69, 80
10, 110976, Note_on_c, 9, 54, 80
10, 110976, Note_on_c, 9, 36, 90
10, 110976, Note_on_c, 9, 42, 70
10, 110976, Note_on_c, 9, 38, 90
10, 111072, Note_off_c, 9, 39, 0
10, 111072, Note_off_c, 9, 69, 0
10, 111072, Note_off_c, 9, 54, 0
10, 111072, Note_off_c, 9, 36, 0
10, 111072, Note_off_c, 9, 42, 0
10, 111072, Note_off_c, 9, 38, 0
10, 111168, Note_on_c, 9, 69, 80
10, 111168, Note_on_c, 9, 54, 80
10, 111168, Note_on_c, 9, 46, 70
10, 111264, Note_off_c, 9, 69, 0
10, 111264, Note_off_c, 9, 54, 0
10, 111264, Note_off_c, 9, 46, 0
10, 111264, Note_on_c, 9, 54, 80
10, 111360, Note_off_c, 9, 54, 0
10, 111360, Note_on_c, 9, 69, 80
10, 111360, Note_on_c, 9, 54, 80
10, 111360, Note_on_c, 9, 36, 90
10, 111360, Note_on_c, 9, 42, 70
10, 111456, Note_off_c, 9, 69, 0
10, 111456, Note_off_c, 9, 54, 0
10, 111456, Note_off_c, 9, 36, 0
10, 111456, Note_off_c, 9, 42, 0
10, 111456, Note_on_c, 9, 54, 80
10, 111456, Note_on_c, 9, 42, 70
10, 111552, Note_off_c, 9, 54, 0
10, 111552, Note_off_c, 9, 42, 0
10, 111552, Note_on_c, 9, 69, 80
10, 111552, Note_on_c, 9, 54, 80
10, 111552, Note_on_c, 9, 46, 70
10, 111648, Note_off_c, 9, 69, 0
10, 111648, Note_off_c, 9, 54, 0
10, 111648, Note_off_c, 9, 46, 0
10, 111744, Note_on_c, 9, 39, 80
10, 111744, Note_on_c, 9, 42, 70
10, 111744, Note_on_c, 9, 69, 80
10, 111744, Note_on_c, 9, 54, 80
10, 111744, Note_on_c, 9, 36, 90
10, 111744, Note_on_c, 9, 38, 90
10, 111840, Note_off_c, 9, 39, 0
10, 111840, Note_off_c, 9, 42, 0
10, 111840, Note_off_c, 9, 69, 0
10, 111840, Note_off_c, 9, 54, 0
10, 111840, Note_off_c, 9, 36, 0
10, 111840, Note_off_c, 9, 38, 0
10, 111840, Note_on_c, 9, 54, 80
10, 111840, Note_on_c, 9, 42, 70
10, 111936, Note_off_c, 9, 54, 0
10, 111936, Note_off_c, 9, 42, 0
10, 111936, Note_on_c, 9, 69, 80
10, 111936, Note_on_c, 9, 54, 80
10, 111936, Note_on_c, 9, 46, 70
10, 112032, Note_off_c, 9, 69, 0
10, 112032, Note_off_c, 9, 54, 0
10, 112032, Note_off_c, 9, 46, 0
10, 112032, Note_on_c, 9, 38, 90
10, 112128, Note_off_c, 9, 38, 0
10, 112128, Note_on_c, 9, 69, 80
10, 112128, Note_on_c, 9, 54, 80
10, 112128, Note_on_c, 9, 36, 90
10, 112128, Note_on_c, 9, 42, 70
10, 112224, Note_off_c, 9, 69, 0
10, 112224, Note_off_c, 9, 54, 0
10, 112224, Note_off_c, 9, 36, 0
10, 112224, Note_off_c, 9, 42, 0
10, 112320, Note_on_c, 9, 69, 80
10, 112320, Note_on_c, 9, 54, 90
10, 112320, Note_on_c, 9, 46, 70
10, 112416, Note_off_c, 9, 69, 0
10, 112416, Note_off_c, 9, 54, 0
10, 112416, Note_off_c, 9, 46, 0
10, 112512, Note_on_c, 9, 39, 80
10, 112512, Note_on_c, 9, 69, 80
10, 112512, Note_on_c, 9, 54, 80
10, 112512, Note_on_c, 9, 36, 90
10, 112512, Note_on_c, 9, 42, 70
10, 112512, Note_on_c, 9, 38, 90
10, 112608, Note_off_c, 9, 39, 0
10, 112608, Note_off_c, 9, 69, 0
10, 112608, Note_off_c, 9, 54, 0
10, 112608, Note_off_c, 9, 36, 0
10, 112608, Note_off_c, 9, 42, 0
10, 112608, Note_off_c, 9, 38, 0
10, 112704, Note_on_c, 9, 69, 80
10, 112704, Note_on_c, 9, 54, 80
10, 112704, Note_on_c, 9, 46, 70
10, 112800, Note_off_c, 9, 69, 0
10, 112800, Note_off_c, 9, 54, 0
10, 112800, Note_off_c, 9, 46, 0
10, 112800, Note_on_c, 9, 54, 80
10, 112896, Note_off_c, 9, 54, 0
10, 112896, Note_on_c, 9, 69, 80
10, 112896, Note_on_c, 9, 54, 80
10, 112896, Note_on_c, 9, 36, 90
10, 112896, Note_on_c, 9, 42, 70
10, 112992, Note_off_c, 9, 69, 0
10, 112992, Note_off_c, 9, 54, 0
10, 112992, Note_off_c, 9, 36, 0
10, 112992, Note_off_c, 9, 42, 0
10, 112992, Note_on_c, 9, 54, 80
10, 112992, Note_on_c, 9, 42, 70
10, 113088, Note_off_c, 9, 54, 0
10, 113088, Note_off_c, 9, 42, 0
10, 113088, Note_on_c, 9, 69, 80
10, 113088, Note_on_c, 9, 54, 80
10, 113088, Note_on_c, 9, 46, 70
10, 113184, Note_off_c, 9, 69, 0
10, 113184, Note_off_c, 9, 54, 0
10, 113184, Note_off_c, 9, 46, 0
10, 113280, Note_on_c, 9, 39, 80
10, 113280, Note_on_c, 9, 42, 70
10, 113280, Note_on_c, 9, 69, 80
10, 113280, Note_on_c, 9, 54, 80
10, 113280, Note_on_c, 9, 36, 90
10, 113280, Note_on_c, 9, 38, 90
10, 113376, Note_off_c, 9, 39, 0
10, 113376, Note_off_c, 9, 42, 0
10, 113376, Note_off_c, 9, 69, 0
10, 113376, Note_off_c, 9, 54, 0
10, 113376, Note_off_c, 9, 36, 0
10, 113376, Note_off_c, 9, 38, 0
10, 113376, Note_on_c, 9, 54, 80
10, 113376, Note_on_c, 9, 42, 70
10, 113472, Note_off_c, 9, 54, 0
10, 113472, Note_off_c, 9, 42, 0
10, 113472, Note_on_c, 9, 38, 80
10, 113472, Note_on_c, 9, 69, 80
10, 113472, Note_on_c, 9, 54, 80
10, 113472, Note_on_c, 9, 46, 70
10, 113568, Note_off_c, 9, 38, 0
10, 113568, Note_off_c, 9, 69, 0
10, 113568, Note_off_c, 9, 54, 0
10, 113568, Note_off_c, 9, 46, 0
10, 113568, Note_on_c, 9, 38, 90
10, 113664, Note_off_c, 9, 38, 0
10, 113664, Note_on_c, 9, 69, 80
10, 113664, Note_on_c, 9, 54, 80
10, 113664, Note_on_c, 9, 36, 80
10, 113664, Note_on_c, 9, 42, 70
10, 113760, Note_off_c, 9, 69, 0
10, 113760, Note_off_c, 9, 54, 0
10, 113760, Note_off_c, 9, 36, 0
10, 113760, Note_off_c, 9, 42, 0
10, 113856, Note_on_c, 9, 69, 80
10, 113856, Note_on_c, 9, 54, 90
10, 113856, Note_on_c, 9, 46, 70
10, 113952, Note_off_c, 9, 69, 0
10, 113952, Note_off_c, 9, 54, 0
10, 113952, Note_off_c, 9, 46, 0
10, 114048, Note_on_c, 9, 39, 80
10, 114048, Note_on_c, 9, 69, 80
10, 114048, Note_on_c, 9, 54, 80
10, 114048, Note_on_c, 9, 36, 90
10, 114048, Note_on_c, 9, 42, 70
10, 114048, Note_on_c, 9, 38, 90
10, 114144, Note_off_c, 9, 39, 0
10, 114144, Note_off_c, 9, 69, 0
10, 114144, Note_off_c, 9, 54, 0
10, 114144, Note_off_c, 9, 36, 0
10, 114144, Note_off_c, 9, 42, 0
10, 114144, Note_off_c, 9, 38, 0
10, 114240, Note_on_c, 9, 69, 80
10, 114240, Note_on_c, 9, 54, 80
10, 114240, Note_on_c, 9, 46, 70
10, 114336, Note_off_c, 9, 69, 0
10, 114336, Note_off_c, 9, 54, 0
10, 114336, Note_off_c, 9, 46, 0
10, 114336, Note_on_c, 9, 54, 80
10, 114432, Note_off_c, 9, 54, 0
10, 114432, Note_on_c, 9, 69, 80
10, 114432, Note_on_c, 9, 54, 80
10, 114432, Note_on_c, 9, 36, 90
10, 114432, Note_on_c, 9, 42, 70
10, 114528, Note_off_c, 9, 69, 0
10, 114528, Note_off_c, 9, 54, 0
10, 114528, Note_off_c, 9, 36, 0
10, 114528, Note_off_c, 9, 42, 0
10, 114528, Note_on_c, 9, 54, 80
10, 114528, Note_on_c, 9, 42, 70
10, 114624, Note_off_c, 9, 54, 0
10, 114624, Note_off_c, 9, 42, 0
10, 114624, Note_on_c, 9, 69, 80
10, 114624, Note_on_c, 9, 54, 80
10, 114624, Note_on_c, 9, 46, 70
10, 114720, Note_off_c, 9, 69, 0
10, 114720, Note_off_c, 9, 54, 0
10, 114720, Note_off_c, 9, 46, 0
10, 114816, Note_on_c, 9, 39, 80
10, 114816, Note_on_c, 9, 42, 70
10, 114816, Note_on_c, 9, 69, 80
10, 114816, Note_on_c, 9, 54, 80
10, 114816, Note_on_c, 9, 36, 90
10, 114816, Note_on_c, 9, 38, 90
10, 114912, Note_off_c, 9, 39, 0
10, 114912, Note_off_c, 9, 42, 0
10, 114912, Note_off_c, 9, 69, 0
10, 114912, Note_off_c, 9, 54, 0
10, 114912, Note_off_c, 9, 36, 0
10, 114912, Note_off_c, 9, 38, 0
10, 114912, Note_on_c, 9, 54, 80
10, 114912, Note_on_c, 9, 42, 70
10, 115008, Note_off_c, 9, 54, 0
10, 115008, Note_off_c, 9, 42, 0
10, 115008, Note_on_c, 9, 69, 80
10, 115008, Note_on_c, 9, 54, 80
10, 115008, Note_on_c, 9, 46, 70
10, 115104, Note_off_c, 9, 69, 0
10, 115104, Note_off_c, 9, 54, 0
10, 115104, Note_off_c, 9, 46, 0
10, 115104, Note_on_c, 9, 38, 90
10, 115200, Note_off_c, 9, 38, 0
10, 115200, Note_on_c, 9, 69, 80
10, 115200, Note_on_c, 9, 54, 80
10, 115200, Note_on_c, 9, 36, 90
10, 115200, Note_on_c, 9, 42, 70
10, 115296, Note_off_c, 9, 69, 0
10, 115296, Note_off_c, 9, 54, 0
10, 115296, Note_off_c, 9, 36, 0
10, 115296, Note_off_c, 9, 42, 0
10, 115392, Note_on_c, 9, 69, 80
10, 115392, Note_on_c, 9, 54, 90
10, 115392, Note_on_c, 9, 46, 70
10, 115488, Note_off_c, 9, 69, 0
10, 115488, Note_off_c, 9, 54, 0
10, 115488, Note_off_c, 9, 46, 0
10, 115584, Note_on_c, 9, 39, 80
10, 115584, Note_on_c, 9, 69, 80
10, 115584, Note_on_c, 9, 54, 80
10, 115584, Note_on_c, 9, 36, 90
10, 115584, Note_on_c, 9, 42, 70
10, 115584, Note_on_c, 9, 38, 90
10, 115680, Note_off_c, 9, 39, 0
10, 115680, Note_off_c, 9, 69, 0
10, 115680, Note_off_c, 9, 54, 0
10, 115680, Note_off_c, 9, 36, 0
10, 115680, Note_off_c, 9, 42, 0
10, 115680, Note_off_c, 9, 38, 0
10, 115776, Note_on_c, 9, 69, 80
10, 115776, Note_on_c, 9, 54, 80
10, 115776, Note_on_c, 9, 46, 70
10, 115872, Note_off_c, 9, 69, 0
10, 115872, Note_off_c, 9, 54, 0
10, 115872, Note_off_c, 9, 46, 0
10, 115872, Note_on_c, 9, 54, 80
10, 115968, Note_off_c, 9, 54, 0
10, 115968, Note_on_c, 9, 69, 80
10, 115968, Note_on_c, 9, 54, 80
10, 115968, Note_on_c, 9, 36, 90
10, 115968, Note_on_c, 9, 42, 70
10, 116064, Note_off_c, 9, 69, 0
10, 116064, Note_off_c, 9, 54, 0
10, 116064, Note_off_c, 9, 36, 0
10, 116064, Note_off_c, 9, 42, 0
10, 116064, Note_on_c, 9, 54, 80
10, 116064, Note_on_c, 9, 42, 70
10, 116160, Note_off_c, 9, 54, 0
10, 116160, Note_off_c, 9, 42, 0
10, 116160, Note_on_c, 9, 69, 80
10, 116160, Note_on_c, 9, 54, 80
10, 116160, Note_on_c, 9, 46, 70
10, 116256, Note_off_c, 9, 69, 0
10, 116256, Note_off_c, 9, 54, 0
10, 116256, Note_off_c, 9, 46, 0
10, 116352, Note_on_c, 9, 39, 80
10, 116352, Note_on_c, 9, 42, 70
10, 116352, Note_on_c, 9, 69, 80
10, 116352, Note_on_c, 9, 54, 80
10, 116352, Note_on_c, 9, 36, 90
10, 116352, Note_on_c, 9, 38, 90
10, 116448, Note_off_c, 9, 39, 0
10, 116448, Note_off_c, 9, 42, 0
10, 116448, Note_off_c, 9, 69, 0
10, 116448, Note_off_c, 9, 54, 0
10, 116448, Note_off_c, 9, 36, 0
10, 116448, Note_off_c, 9, 38, 0
10, 116448, Note_on_c, 9, 54, 80
10, 116448, Note_on_c, 9, 42, 70
10, 116544, Note_off_c, 9, 54, 0
10, 116544, Note_off_c, 9, 42, 0
10, 116544, Note_on_c, 9, 38, 80
10, 116544, Note_on_c, 9, 69, 80
10, 116544, Note_on_c, 9, 54, 80
10, 116544, Note_on_c, 9, 46, 70
10, 116640, Note_off_c, 9, 38, 0
10, 116640, Note_off_c, 9, 69, 0
10, 116640, Note_off_c, 9, 54, 0
10, 116640, Note_off_c, 9, 46, 0
10, 116640, Note_on_c, 9, 38, 90
10, 116736, Note_off_c, 9, 38, 0
10, 116736, Note_on_c, 9, 69, 80
10, 116736, Note_on_c, 9, 54, 80
10, 116736, Note_on_c, 9, 36, 80
10, 116736, Note_on_c, 9, 42, 70
10, 116832, Note_off_c, 9, 69, 0
10, 116832, Note_off_c, 9, 54, 0
10, 116832, Note_off_c, 9, 36, 0
10, 116832, Note_off_c, 9, 42, 0
10, 116928, Note_on_c, 9, 69, 80
10, 116928, Note_on_c, 9, 54, 90
10, 116928, Note_on_c, 9, 46, 70
10, 117024, Note_off_c, 9, 69, 0
10, 117024, Note_off_c, 9, 54, 0
10, 117024, Note_off_c, 9, 46, 0
10, 117120, Note_on_c, 9, 39, 80
10, 117120, Note_on_c, 9, 69, 80
10, 117120, Note_on_c, 9, 54, 80
10, 117120, Note_on_c, 9, 36, 90
10, 117120, Note_on_c, 9, 42, 70
10, 117120, Note_on_c, 9, 38, 90
10, 117216, Note_off_c, 9, 39, 0
10, 117216, Note_off_c, 9, 69, 0
10, 117216, Note_off_c, 9, 54, 0
10, 117216, Note_off_c, 9, 36, 0
10, 117216, Note_off_c, 9, 42, 0
10, 117216, Note_off_c, 9, 38, 0
10, 117312, Note_on_c, 9, 69, 80
10, 117312, Note_on_c, 9, 54, 80
10, 117312, Note_on_c, 9, 46, 70
10, 117408, Note_off_c, 9, 69, 0
10, 117408, Note_off_c, 9, 54, 0
10, 117408, Note_off_c, 9, 46, 0
10, 117408, Note_on_c, 9, 54, 80
10, 117504, Note_off_c, 9, 54, 0
10, 117504, Note_on_c, 9, 69, 80
10, 117504, Note_on_c, 9, 54, 80
10, 117504, Note_on_c, 9, 36, 90
10, 117504, Note_on_c, 9, 42, 70
10, 117600, Note_off_c, 9, 69, 0
10, 117600, Note_off_c, 9, 54, 0
10, 117600, Note_off_c, 9, 36, 0
10, 117600, Note_off_c, 9, 42, 0
10, 117600, Note_on_c, 9, 54, 80
10, 117600, Note_on_c, 9, 42, 70
10, 117696, Note_off_c, 9, 54, 0
10, 117696, Note_off_c, 9, 42, 0
10, 117696, Note_on_c, 9, 69, 80
10, 117696, Note_on_c, 9, 54, 80
10, 117696, Note_on_c, 9, 46, 70
10, 117792, Note_off_c, 9, 69, 0
10, 117792, Note_off_c, 9, 54, 0
10, 117792, Note_off_c, 9, 46, 0
10, 117888, Note_on_c, 9, 39, 80
10, 117888, Note_on_c, 9, 42, 70
10, 117888, Note_on_c, 9, 69, 80
10, 117888, Note_on_c, 9, 54, 80
10, 117888, Note_on_c, 9, 36, 90
10, 117888, Note_on_c, 9, 38, 90
10, 117984, Note_off_c, 9, 39, 0
10, 117984, Note_off_c, 9, 42, 0
10, 117984, Note_off_c, 9, 69, 0
10, 117984, Note_off_c, 9, 54, 0
10, 117984, Note_off_c, 9, 36, 0
10, 117984, Note_off_c, 9, 38, 0
10, 117984, Note_on_c, 9, 54, 80
10, 117984, Note_on_c, 9, 42, 70
10, 118080, Note_off_c, 9, 54, 0
10, 118080, Note_off_c, 9, 42, 0
10, 118080, Note_on_c, 9, 69, 80
10, 118080, Note_on_c, 9, 54, 80
10, 118080, Note_on_c, 9, 46, 70
10, 118176, Note_off_c, 9, 69, 0
10, 118176, Note_off_c, 9, 54, 0
10, 118176, Note_off_c, 9, 46, 0
10, 118176, Note_on_c, 9, 38, 90
10, 118272, Note_off_c, 9, 38, 0
10, 118272, Note_on_c, 9, 69, 80
10, 118272, Note_on_c, 9, 54, 80
10, 118272, Note_on_c, 9, 36, 90
10, 118272, Note_on_c, 9, 42, 70
10, 118368, Note_off_c, 9, 69, 0
10, 118368, Note_off_c, 9, 54, 0
10, 118368, Note_off_c, 9, 36, 0
10, 118368, Note_off_c, 9, 42, 0
10, 118464, Note_on_c, 9, 69, 80
10, 118464, Note_on_c, 9, 54, 90
10, 118464, Note_on_c, 9, 46, 70
10, 118560, Note_off_c, 9, 69, 0
10, 118560, Note_off_c, 9, 54, 0
10, 118560, Note_off_c, 9, 46, 0
10, 118656, Note_on_c, 9, 39, 80
10, 118656, Note_on_c, 9, 69, 80
10, 118656, Note_on_c, 9, 54, 80
10, 118656, Note_on_c, 9, 36, 90
10, 118656, Note_on_c, 9, 42, 70
10, 118656, Note_on_c, 9, 38, 90
10, 118752, Note_off_c, 9, 39, 0
10, 118752, Note_off_c, 9, 69, 0
10, 118752, Note_off_c, 9, 54, 0
10, 118752, Note_off_c, 9, 36, 0
10, 118752, Note_off_c, 9, 42, 0
10, 118752, Note_off_c, 9, 38, 0
10, 118848, Note_on_c, 9, 69, 80
10, 118848, Note_on_c, 9, 54, 80
10, 118848, Note_on_c, 9, 46, 70
10, 118944, Note_off_c, 9, 69, 0
10, 118944, Note_off_c, 9, 54, 0
10, 118944, Note_off_c, 9, 46, 0
10, 118944, Note_on_c, 9, 54, 80
10, 119040, Note_off_c, 9, 54, 0
10, 119040, Note_on_c, 9, 69, 80
10, 119040, Note_on_c, 9, 54, 80
10, 119040, Note_on_c, 9, 36, 90
10, 119040, Note_on_c, 9, 42, 70
10, 119136, Note_off_c, 9, 69, 0
10, 119136, Note_off_c, 9, 54, 0
10, 119136, Note_off_c, 9, 36, 0
10, 119136, Note_off_c, 9, 42, 0
10, 119136, Note_on_c, 9, 54, 80
10, 119136, Note_on_c, 9, 42, 70
10, 119232, Note_off_c, 9, 54, 0
10, 119232, Note_off_c, 9, 42, 0
10, 119232, Note_on_c, 9, 69, 80
10, 119232, Note_on_c, 9, 54, 80
10, 119232, Note_on_c, 9, 46, 70
10, 119328, Note_off_c, 9, 69, 0
10, 119328, Note_off_c, 9, 54, 0
10, 119328, Note_off_c, 9, 46, 0
10, 119424, Note_on_c, 9, 39, 80
10, 119424, Note_on_c, 9, 42, 70
10, 119424, Note_on_c, 9, 69, 80
10, 119424, Note_on_c, 9, 54, 80
10, 119424, Note_on_c, 9, 36, 90
10, 119424, Note_on_c, 9, 38, 90
10, 119520, Note_off_c, 9, 39, 0
10, 119520, Note_off_c, 9, 42, 0
10, 119520, Note_off_c, 9, 69, 0
10, 119520, Note_off_c, 9, 54, 0
10, 119520, Note_off_c, 9, 36, 0
10, 119520, Note_off_c, 9, 38, 0
10, 119520, Note_on_c, 9, 54, 80
10, 119520, Note_on_c, 9, 42, 70
10, 119616, Note_off_c, 9, 54, 0
10, 119616, Note_off_c, 9, 42, 0
10, 119616, Note_on_c, 9, 38, 80
10, 119616, Note_on_c, 9, 69, 80
10, 119616, Note_on_c, 9, 54, 80
10, 119616, Note_on_c, 9, 46, 70
10, 119712, Note_off_c, 9, 38, 0
10, 119712, Note_off_c, 9, 69, 0
10, 119712, Note_off_c, 9, 54, 0
10, 119712, Note_off_c, 9, 46, 0
10, 119712, Note_on_c, 9, 38, 90
10, 119808, Note_off_c, 9, 38, 0
10, 119808, Note_on_c, 9, 69, 80
10, 119808, Note_on_c, 9, 54, 80
10, 119808, Note_on_c, 9, 36, 80
10, 119808, Note_on_c, 9, 42, 70
10, 119904, Note_off_c, 9, 69, 0
10, 119904, Note_off_c, 9, 54, 0
10, 119904, Note_off_c, 9, 36, 0
10, 119904, Note_off_c, 9, 42, 0
10, 120000, Note_on_c, 9, 69, 80
10, 120000, Note_on_c, 9, 54, 90
10, 120000, Note_on_c, 9, 46, 70
10, 120096, Note_off_c, 9, 69, 0
10, 120096, Note_off_c, 9, 54, 0
10, 120096, Note_off_c, 9, 46, 0
10, 120192, Note_on_c, 9, 39, 80
10, 120192, Note_on_c, 9, 69, 80
10, 120192, Note_on_c, 9, 54, 80
10, 120192, Note_on_c, 9, 36, 90
10, 120192, Note_on_c, 9, 42, 70
10, 120192, Note_on_c, 9, 38, 90
10, 120288, Note_off_c, 9, 39, 0
10, 120288, Note_off_c, 9, 69, 0
10, 120288, Note_off_c, 9, 54, 0
10, 120288, Note_off_c, 9, 36, 0
10, 120288, Note_off_c, 9, 42, 0
10, 120288, Note_off_c, 9, 38, 0
10, 120384, Note_on_c, 9, 69, 80
10, 120384, Note_on_c, 9, 54, 80
10, 120384, Note_on_c, 9, 46, 70
10, 120480, Note_off_c, 9, 69, 0
10, 120480, Note_off_c, 9, 54, 0
10, 120480, Note_off_c, 9, 46, 0
10, 120480, Note_on_c, 9, 54, 80
10, 120576, Note_off_c, 9, 54, 0
10, 120576, Note_on_c, 9, 69, 80
10, 120576, Note_on_c, 9, 54, 80
10, 120576, Note_on_c, 9, 36, 90
10, 120576, Note_on_c, 9, 42, 70
10, 120672, Note_off_c, 9, 69, 0
10, 120672, Note_off_c, 9, 54, 0
10, 120672, Note_off_c, 9, 36, 0
10, 120672, Note_off_c, 9, 42, 0
10, 120672, Note_on_c, 9, 54, 80
10, 120672, Note_on_c, 9, 42, 70
10, 120768, Note_off_c, 9, 54, 0
10, 120768, Note_off_c, 9, 42, 0
10, 120768, Note_on_c, 9, 69, 80
10, 120768, Note_on_c, 9, 54, 80
10, 120768, Note_on_c, 9, 46, 70
10, 120864, Note_off_c, 9, 69, 0
10, 120864, Note_off_c, 9, 54, 0
10, 120864, Note_off_c, 9, 46, 0
10, 120960, Note_on_c, 9, 39, 80
10, 120960, Note_on_c, 9, 42, 70
10, 120960, Note_on_c, 9, 69, 80
10, 120960, Note_on_c, 9, 54, 80
10, 120960, Note_on_c, 9, 36, 90
10, 120960, Note_on_c, 9, 38, 90
10, 121056, Note_off_c, 9, 39, 0
10, 121056, Note_off_c, 9, 42, 0
10, 121056, Note_off_c, 9, 69, 0
10, 121056, Note_off_c, 9, 54, 0
10, 121056, Note_off_c, 9, 36, 0
10, 121056, Note_off_c, 9, 38, 0
10, 121056, Note_on_c, 9, 54, 80
10, 121056, Note_on_c, 9, 42, 70
10, 121152, Note_off_c, 9, 54, 0
10, 121152, Note_off_c, 9, 42, 0
10, 121152, Note_on_c, 9, 69, 80
10, 121152, Note_on_c, 9, 54, 80
10, 121152, Note_on_c, 9, 46, 70
10, 121248, Note_off_c, 9, 69, 0
10, 121248, Note_off_c, 9, 54, 0
10, 121248, Note_off_c, 9, 46, 0
10, 121248, Note_on_c, 9, 38, 90
10, 121344, Note_off_c, 9, 38, 0
10, 121344, Note_on_c, 9, 69, 80
10, 121344, Note_on_c, 9, 54, 80
10, 121344, Note_on_c, 9, 36, 90
10, 121344, Note_on_c, 9, 42, 70
10, 121440, Note_off_c, 9, 69, 0
10, 121440, Note_off_c, 9, 54, 0
10, 121440, Note_off_c, 9, 36, 0
10, 121440, Note_off_c, 9, 42, 0
10, 121536, Note_on_c, 9, 69, 80
10, 121536, Note_on_c, 9, 54, 90
10, 121536, Note_on_c, 9, 46, 70
10, 121632, Note_off_c, 9, 69, 0
10, 121632, Note_off_c, 9, 54, 0
10, 121632, Note_off_c, 9, 46, 0
10, 121728, Note_on_c, 9, 48, 100
10, 121728, Note_on_c, 9, 39, 80
10, 121728, Note_on_c, 9, 69, 80
10, 121728, Note_on_c, 9, 54, 80
10, 121728, Note_on_c, 9, 36, 90
10, 121728, Note_on_c, 9, 42, 70
10, 121728, Note_on_c, 9, 38, 90
10, 121820, Note_off_c, 9, 48, 0
10, 121824, Note_off_c, 9, 39, 0
10, 121824, Note_off_c, 9, 69, 0
10, 121824, Note_off_c, 9, 54, 0
10, 121824, Note_off_c, 9, 36, 0
10, 121824, Note_off_c, 9, 42, 0
10, 121824, Note_off_c, 9, 38, 0
10, 121920, Note_on_c, 9, 45, 100
10, 121920, Note_on_c, 9, 69, 80
10, 121920, Note_on_c, 9, 54, 80
10, 121920, Note_on_c, 9, 46, 70
10, 122012, Note_off_c, 9, 45, 0
10, 122016, Note_off_c, 9, 69, 0
10, 122016, Note_off_c, 9, 54, 0
10, 122016, Note_off_c, 9, 46, 0
10, 122016, Note_on_c, 9, 45, 100
10, 122016, Note_on_c, 9, 54, 80
10, 122108, Note_off_c, 9, 45, 0
10, 122112, Note_off_c, 9, 54, 0
10, 122112, Note_on_c, 9, 69, 80
10, 122112, Note_on_c, 9, 54, 80
10, 122112, Note_on_c, 9, 36, 90
10, 122112, Note_on_c, 9, 42, 70
10, 122208, Note_off_c, 9, 69, 0
10, 122208, Note_off_c, 9, 54, 0
10, 122208, Note_off_c, 9, 36, 0
10, 122208, Note_off_c, 9, 42, 0
10, 122208, Note_on_c, 9, 54, 80
10, 122208, Note_on_c, 9, 42, 70
10, 122304, Note_off_c, 9, 54, 0
10, 122304, Note_off_c, 9, 42, 0
10, 122304, Note_on_c, 9, 69, 80
10, 122304, Note_on_c, 9, 54, 80
10, 122304, Note_on_c, 9, 46, 70
10, 122400, Note_off_c, 9, 69, 0
10, 122400, Note_off_c, 9, 54, 0
10, 122400, Note_off_c, 9, 46, 0
10, 122400, Note_on_c, 9, 43, 100
10, 122492, Note_off_c, 9, 43, 0
10, 122496, Note_on_c, 9, 43, 100
10, 122496, Note_on_c, 9, 39, 80
10, 122496, Note_on_c, 9, 42, 70
10, 122496, Note_on_c, 9, 69, 80
10, 122496, Note_on_c, 9, 54, 80
10, 122496, Note_on_c, 9, 36, 90
10, 122496, Note_on_c, 9, 38, 90
10, 122588, Note_off_c, 9, 43, 0
10, 122592, Note_off_c, 9, 39, 0
10, 122592, Note_off_c, 9, 42, 0
10, 122592, Note_off_c, 9, 69, 0
10, 122592, Note_off_c, 9, 54, 0
10, 122592, Note_off_c, 9, 36, 0
10, 122592, Note_off_c, 9, 38, 0
10, 122592, Note_on_c, 9, 54, 80
10, 122592, Note_on_c, 9, 42, 70
10, 122688, Note_off_c, 9, 54, 0
10, 122688, Note_off_c, 9, 42, 0
10, 122688, Note_on_c, 9, 38, 80
10, 122688, Note_on_c, 9, 69, 80
10, 122688, Note_on_c, 9, 54, 80
10, 122688, Note_on_c, 9, 46, 70
10, 122784, Note_off_c, 9, 38, 0
10, 122784, Note_off_c, 9, 69, 0
10, 122784, Note_off_c, 9, 54, 0
10, 122784, Note_off_c, 9, 46, 0
10, 122784, Note_on_c, 9, 38, 90
10, 122880, Note_off_c, 9, 38, 0
10, 122880, Note_on_c, 9, 49, 100
10, 122880, Note_on_c, 9, 69, 80
10, 122880, Note_on_c, 9, 54, 80
10, 122880, Note_on_c, 9, 36, 80
10, 122880, Note_on_c, 9, 42, 70
10, 122976, Note_off_c, 9, 69, 0
10, 122976, Note_off_c, 9, 54, 0
10, 122976, Note_off_c, 9, 36, 0
10, 122976, Note_off_c, 9, 42, 0
10, 123072, Note_on_c, 9, 69, 80
10, 123072, Note_on_c, 9, 54, 90
10, 123072, Note_on_c, 9, 46, 70
10, 123168, Note_off_c, 9, 69, 0
10, 123168, Note_off_c, 9, 54, 0
10, 123168, Note_off_c, 9, 46, 0
10, 123260, Note_off_c, 9, 49, 0
10, 123264, Note_on_c, 9, 39, 80
10, 123264, Note_on_c, 9, 69, 80
10, 123264, Note_on_c, 9, 54, 80
10, 123264, Note_on_c, 9, 36, 90
10, 123264, Note_on_c, 9, 42, 70
10, 123264, Note_on_c, 9, 38, 90
10, 123360, Note_off_c, 9, 39, 0
10, 123360, Note_off_c, 9, 69, 0
10, 123360, Note_off_c, 9, 54, 0
10, 123360, Note_off_c, 9, 36, 0
10, 123360, Note_off_c, 9, 42, 0
10, 123360, Note_off_c, 9, 38, 0
10, 123456, Note_on_c, 9, 69, 80
10, 123456, Note_on_c, 9, 54, 80
10, 123456, Note_on_c, 9, 46, 70
10, 123552, Note_off_c, 9, 69, 0
10, 123552, Note_off_c, 9, 54, 0
10, 123552, Note_off_c, 9, 46, 0
10, 123552, Note_on_c, 9, 54, 80
10, 123648, Note_off_c, 9, 54, 0
10, 123648, Note_on_c, 9, 69, 80
10, 123648, Note_on_c, 9, 54, 80
10, 123648, Note_on_c, 9, 36, 90
10, 123648, Note_on_c, 9, 42, 70
10, 123744, Note_off_c, 9, 69, 0
10, 123744, Note_off_c, 9, 54, 0
10, 123744, Note_off_c, 9, 36, 0
10, 123744, Note_off_c, 9, 42, 0
10, 123744, Note_on_c, 9, 54, 80
10, 123744, Note_on_c, 9, 42, 70
10, 123840, Note_off_c, 9, 54, 0
10, 123840, Note_off_c, 9, 42, 0
10, 123840, Note_on_c, 9, 69, 80
10, 123840, Note_on_c, 9, 54, 80
10, 123840, Note_on_c, 9, 46, 70
10, 123936, Note_off_c, 9, 69, 0
10, 123936, Note_off_c, 9, 54, 0
10, 123936, Note_off_c, 9, 46, 0
10, 124032, Note_on_c, 9, 39, 80
10, 124032, Note_on_c, 9, 42, 70
10, 124032, Note_on_c, 9, 69, 80
10, 124032, Note_on_c, 9, 54, 80
10, 124032, Note_on_c, 9, 36, 90
10, 124032, Note_on_c, 9, 38, 90
10, 124128, Note_off_c, 9, 39, 0
10, 124128, Note_off_c, 9, 42, 0
10, 124128, Note_off_c, 9, 69, 0
10, 124128, Note_off_c, 9, 54, 0
10, 124128, Note_off_c, 9, 36, 0
10, 124128, Note_off_c, 9, 38, 0
10, 124128, Note_on_c, 9, 54, 80
10, 124128, Note_on_c, 9, 42, 70
10, 124224, Note_off_c, 9, 54, 0
10, 124224, Note_off_c, 9, 42, 0
10, 124224, Note_on_c, 9, 69, 80
10, 124224, Note_on_c, 9, 54, 80
10, 124224, Note_on_c, 9, 46, 70
10, 124320, Note_off_c, 9, 69, 0
10, 124320, Note_off_c, 9, 54, 0
10, 124320, Note_off_c, 9, 46, 0
10, 124320, Note_on_c, 9, 38, 90
10, 124416, Note_off_c, 9, 38, 0
10, 124416, Note_on_c, 9, 69, 80
10, 124416, Note_on_c, 9, 54, 80
10, 124416, Note_on_c, 9, 36, 90
10, 124416, Note_on_c, 9, 42, 70
10, 124512, Note_off_c, 9, 69, 0
10, 124512, Note_off_c, 9, 54, 0
10, 124512, Note_off_c, 9, 36, 0
10, 124512, Note_off_c, 9, 42, 0
10, 124608, Note_on_c, 9, 69, 80
10, 124608, Note_on_c, 9, 54, 90
10, 124608, Note_on_c, 9, 46, 70
10, 124704, Note_off_c, 9, 69, 0
10, 124704, Note_off_c, 9, 54, 0
10, 124704, Note_off_c, 9, 46, 0
10, 124800, Note_on_c, 9, 39, 80
10, 124800, Note_on_c, 9, 69, 80
10, 124800, Note_on_c, 9, 54, 80
10, 124800, Note_on_c, 9, 36, 90
10, 124800, Note_on_c, 9, 42, 70
10, 124800, Note_on_c, 9, 38, 90
10, 124896, Note_off_c, 9, 39, 0
10, 124896, Note_off_c, 9, 69, 0
10, 124896, Note_off_c, 9, 54, 0
10, 124896, Note_off_c, 9, 36, 0
10, 124896, Note_off_c, 9, 42, 0
10, 124896, Note_off_c, 9, 38, 0
10, 124992, Note_on_c, 9, 69, 80
10, 124992, Note_on_c, 9, 54, 80
10, 124992, Note_on_c, 9, 46, 70
10, 125088, Note_off_c, 9, 69, 0
10, 125088, Note_off_c, 9, 54, 0
10, 125088, Note_off_c, 9, 46, 0
10, 125088, Note_on_c, 9, 54, 80
10, 125184, Note_off_c, 9, 54, 0
10, 125184, Note_on_c, 9, 69, 80
10, 125184, Note_on_c, 9, 54, 80
10, 125184, Note_on_c, 9, 36, 90
10, 125184, Note_on_c, 9, 42, 70
10, 125280, Note_off_c, 9, 69, 0
10, 125280, Note_off_c, 9, 54, 0
10, 125280, Note_off_c, 9, 36, 0
10, 125280, Note_off_c, 9, 42, 0
10, 125280, Note_on_c, 9, 54, 80
10, 125280, Note_on_c, 9, 42, 70
10, 125376, Note_off_c, 9, 54, 0
10, 125376, Note_off_c, 9, 42, 0
10, 125376, Note_on_c, 9, 69, 80
10, 125376, Note_on_c, 9, 54, 80
10, 125376, Note_on_c, 9, 46, 70
10, 125472, Note_off_c, 9, 69, 0
10, 125472, Note_off_c, 9, 54, 0
10, 125472, Note_off_c, 9, 46, 0
10, 125568, Note_on_c, 9, 39, 80
10, 125568, Note_on_c, 9, 42, 70
10, 125568, Note_on_c, 9, 69, 80
10, 125568, Note_on_c, 9, 54, 80
10, 125568, Note_on_c, 9, 36, 90
10, 125568, Note_on_c, 9, 38, 90
10, 125664, Note_off_c, 9, 39, 0
10, 125664, Note_off_c, 9, 42, 0
10, 125664, Note_off_c, 9, 69, 0
10, 125664, Note_off_c, 9, 54, 0
10, 125664, Note_off_c, 9, 36, 0
10, 125664, Note_off_c, 9, 38, 0
10, 125664, Note_on_c, 9, 54, 80
10, 125664, Note_on_c, 9, 42, 70
10, 125760, Note_off_c, 9, 54, 0
10, 125760, Note_off_c, 9, 42, 0
10, 125760, Note_on_c, 9, 38, 80
10, 125760, Note_on_c, 9, 69, 80
10, 125760, Note_on_c, 9, 54, 80
10, 125760, Note_on_c, 9, 46, 70
10, 125856, Note_off_c, 9, 38, 0
10, 125856, Note_off_c, 9, 69, 0
10, 125856, Note_off_c, 9, 54, 0
10, 125856, Note_off_c, 9, 46, 0
10, 125856, Note_on_c, 9, 38, 90
10, 125952, Note_off_c, 9, 38, 0
10, 125952, Note_on_c, 9, 69, 80
10, 125952, Note_on_c, 9, 54, 80
10, 125952, Note_on_c, 9, 36, 80
10, 125952, Note_on_c, 9, 42, 70
10, 126048, Note_off_c, 9, 69, 0
10, 126048, Note_off_c, 9, 54, 0
10, 126048, Note_off_c, 9, 36, 0
10, 126048, Note_off_c, 9, 42, 0
10, 126144, Note_on_c, 9, 69, 80
10, 126144, Note_on_c, 9, 54, 90
10, 126144, Note_on_c, 9, 46, 70
10, 126240, Note_off_c, 9, 69, 0
10, 126240, Note_off_c, 9, 54, 0
10, 126240, Note_off_c, 9, 46, 0
10, 126336, Note_on_c, 9, 39, 80
10, 126336, Note_on_c, 9, 69, 80
10, 126336, Note_on_c, 9, 54, 80
10, 126336, Note_on_c, 9, 36, 90
10, 126336, Note_on_c, 9, 42, 70
10, 126336, Note_on_c, 9, 38, 90
10, 126432, Note_off_c, 9, 39, 0
10, 126432, Note_off_c, 9, 69, 0
10, 126432, Note_off_c, 9, 54, 0
10, 126432, Note_off_c, 9, 36, 0
10, 126432, Note_off_c, 9, 42, 0
10, 126432, Note_off_c, 9, 38, 0
10, 126528, Note_on_c, 9, 69, 80
10, 126528, Note_on_c, 9, 54, 80
10, 126528, Note_on_c, 9, 46, 70
10, 126624, Note_off_c, 9, 69, 0
10, 126624, Note_off_c, 9, 54, 0
10, 126624, Note_off_c, 9, 46, 0
10, 126624, Note_on_c, 9, 54, 80
10, 126720, Note_off_c, 9, 54, 0
10, 126720, Note_on_c, 9, 69, 80
10, 126720, Note_on_c, 9, 54, 80
10, 126720, Note_on_c, 9, 36, 90
10, 126720, Note_on_c, 9, 42, 70
10, 126816, Note_off_c, 9, 69, 0
10, 126816, Note_off_c, 9, 54, 0
10, 126816, Note_off_c, 9, 36, 0
10, 126816, Note_off_c, 9, 42, 0
10, 126816, Note_on_c, 9, 54, 80
10, 126816, Note_on_c, 9, 42, 70
10, 126912, Note_off_c, 9, 54, 0
10, 126912, Note_off_c, 9, 42, 0
10, 126912, Note_on_c, 9, 69, 80
10, 126912, Note_on_c, 9, 54, 80
10, 126912, Note_on_c, 9, 46, 70
10, 127008, Note_off_c, 9, 69, 0
10, 127008, Note_off_c, 9, 54, 0
10, 127008, Note_off_c, 9, 46, 0
10, 127104, Note_on_c, 9, 39, 80
10, 127104, Note_on_c, 9, 42, 70
10, 127104, Note_on_c, 9, 69, 80
10, 127104, Note_on_c, 9, 54, 80
10, 127104, Note_on_c, 9, 36, 90
10, 127104, Note_on_c, 9, 38, 90
10, 127200, Note_off_c, 9, 39, 0
10, 127200, Note_off_c, 9, 42, 0
10, 127200, Note_off_c, 9, 69, 0
10, 127200, Note_off_c, 9, 54, 0
10, 127200, Note_off_c, 9, 36, 0
10, 127200, Note_off_c, 9, 38, 0
10, 127200, Note_on_c, 9, 54, 80
10, 127200, Note_on_c, 9, 42, 70
10, 127296, Note_off_c, 9, 54, 0
10, 127296, Note_off_c, 9, 42, 0
10, 127296, Note_on_c, 9, 69, 80
10, 127296, Note_on_c, 9, 54, 80
10, 127296, Note_on_c, 9, 46, 70
10, 127392, Note_off_c, 9, 69, 0
10, 127392, Note_off_c, 9, 54, 0
10, 127392, Note_off_c, 9, 46, 0
10, 127392, Note_on_c, 9, 38, 90
10, 127488, Note_off_c, 9, 38, 0
10, 127488, Note_on_c, 9, 69, 80
10, 127488, Note_on_c, 9, 54, 80
10, 127488, Note_on_c, 9, 36, 90
10, 127488, Note_on_c, 9, 42, 70
10, 127584, Note_off_c, 9, 69, 0
10, 127584, Note_off_c, 9, 54, 0
10, 127584, Note_off_c, 9, 36, 0
10, 127584, Note_off_c, 9, 42, 0
10, 127680, Note_on_c, 9, 69, 80
10, 127680, Note_on_c, 9, 54, 90
10, 127680, Note_on_c, 9, 46, 70
10, 127776, Note_off_c, 9, 69, 0
10, 127776, Note_off_c, 9, 54, 0
10, 127776, Note_off_c, 9, 46, 0
10, 127872, Note_on_c, 9, 39, 80
10, 127872, Note_on_c, 9, 69, 80
10, 127872, Note_on_c, 9, 54, 80
10, 127872, Note_on_c, 9, 36, 90
10, 127872, Note_on_c, 9, 42, 70
10, 127872, Note_on_c, 9, 38, 90
10, 127968, Note_off_c, 9, 39, 0
10, 127968, Note_off_c, 9, 69, 0
10, 127968, Note_off_c, 9, 54, 0
10, 127968, Note_off_c, 9, 36, 0
10, 127968, Note_off_c, 9, 42, 0
10, 127968, Note_off_c, 9, 38, 0
10, 128064, Note_on_c, 9, 69, 80
10, 128064, Note_on_c, 9, 54, 80
10, 128064, Note_on_c, 9, 46, 70
10, 128160, Note_off_c, 9, 69, 0
10, 128160, Note_off_c, 9, 54, 0
10, 128160, Note_off_c, 9, 46, 0
10, 128160, Note_on_c, 9, 54, 80
10, 128256, Note_off_c, 9, 54, 0
10, 128256, Note_on_c, 9, 69, 80
10, 128256, Note_on_c, 9, 54, 80
10, 128256, Note_on_c, 9, 36, 90
10, 128256, Note_on_c, 9, 42, 70
10, 128352, Note_off_c, 9, 69, 0
10, 128352, Note_off_c, 9, 54, 0
10, 128352, Note_off_c, 9, 36, 0
10, 128352, Note_off_c, 9, 42, 0
10, 128352, Note_on_c, 9, 54, 80
10, 128352, Note_on_c, 9, 42, 70
10, 128448, Note_off_c, 9, 54, 0
10, 128448, Note_off_c, 9, 42, 0
10, 128448, Note_on_c, 9, 69, 80
10, 128448, Note_on_c, 9, 54, 80
10, 128448, Note_on_c, 9, 46, 70
10, 128544, Note_off_c, 9, 69, 0
10, 128544, Note_off_c, 9, 54, 0
10, 128544, Note_off_c, 9, 46, 0
10, 128640, Note_on_c, 9, 39, 80
10, 128640, Note_on_c, 9, 42, 70
10, 128640, Note_on_c, 9, 69, 80
10, 128640, Note_on_c, 9, 54, 80
10, 128640, Note_on_c, 9, 36, 90
10, 128640, Note_on_c, 9, 38, 90
10, 128736, Note_off_c, 9, 39, 0
10, 128736, Note_off_c, 9, 42, 0
10, 128736, Note_off_c, 9, 69, 0
10, 128736, Note_off_c, 9, 54, 0
10, 128736, Note_off_c, 9, 36, 0
10, 128736, Note_off_c, 9, 38, 0
10, 128736, Note_on_c, 9, 54, 80
10, 128736, Note_on_c, 9, 42, 70
10, 128832, Note_off_c, 9, 54, 0
10, 128832, Note_off_c, 9, 42, 0
10, 128832, Note_on_c, 9, 38, 80
10, 128832, Note_on_c, 9, 69, 80
10, 128832, Note_on_c, 9, 54, 80
10, 128832, Note_on_c, 9, 46, 70
10, 128928, Note_off_c, 9, 38, 0
10, 128928, Note_off_c, 9, 69, 0
10, 128928, Note_off_c, 9, 54, 0
10, 128928, Note_off_c, 9, 46, 0
10, 128928, Note_on_c, 9, 38, 90
10, 129024, Note_off_c, 9, 38, 0
10, 129024, Note_on_c, 9, 69, 80
10, 129024, Note_on_c, 9, 54, 80
10, 129024, Note_on_c, 9, 36, 80
10, 129024, Note_on_c, 9, 42, 70
10, 129120, Note_off_c, 9, 69, 0
10, 129120, Note_off_c, 9, 54, 0
10, 129120, Note_off_c, 9, 36, 0
10, 129120, Note_off_c, 9, 42, 0
10, 129216, Note_on_c, 9, 69, 80
10, 129216, Note_on_c, 9, 54, 90
10, 129216, Note_on_c, 9, 46, 70
10, 129312, Note_off_c, 9, 69, 0
10, 129312, Note_off_c, 9, 54, 0
10, 129312, Note_off_c, 9, 46, 0
10, 129408, Note_on_c, 9, 39, 80
10, 129408, Note_on_c, 9, 69, 80
10, 129408, Note_on_c, 9, 54, 80
10, 129408, Note_on_c, 9, 36, 90
10, 129408, Note_on_c, 9, 42, 70
10, 129408, Note_on_c, 9, 38, 90
10, 129504, Note_off_c, 9, 39, 0
10, 129504, Note_off_c, 9, 69, 0
10, 129504, Note_off_c, 9, 54, 0
10, 129504, Note_off_c, 9, 36, 0
10, 129504, Note_off_c, 9, 42, 0
10, 129504, Note_off_c, 9, 38, 0
10, 129600, Note_on_c, 9, 69, 80
10, 129600, Note_on_c, 9, 54, 80
10, 129600, Note_on_c, 9, 46, 70
10, 129696, Note_off_c, 9, 69, 0
10, 129696, Note_off_c, 9, 54, 0
10, 129696, Note_off_c, 9, 46, 0
10, 129696, Note_on_c, 9, 54, 80
10, 129792, Note_off_c, 9, 54, 0
10, 129792, Note_on_c, 9, 69, 80
10, 129792, Note_on_c, 9, 54, 80
10, 129792, Note_on_c, 9, 36, 90
10, 129792, Note_on_c, 9, 42, 70
10, 129888, Note_off_c, 9, 69, 0
10, 129888, Note_off_c, 9, 54, 0
10, 129888, Note_off_c, 9, 36, 0
10, 129888, Note_off_c, 9, 42, 0
10, 129888, Note_on_c, 9, 54, 80
10, 129888, Note_on_c, 9, 42, 70
10, 129984, Note_off_c, 9, 54, 0
10, 129984, Note_off_c, 9, 42, 0
10, 129984, Note_on_c, 9, 69, 80
10, 129984, Note_on_c, 9, 54, 80
10, 129984, Note_on_c, 9, 46, 70
10, 130080, Note_off_c, 9, 69, 0
10, 130080, Note_off_c, 9, 54, 0
10, 130080, Note_off_c, 9, 46, 0
10, 130176, Note_on_c, 9, 39, 80
10, 130176, Note_on_c, 9, 42, 70
10, 130176, Note_on_c, 9, 69, 80
10, 130176, Note_on_c, 9, 54, 80
10, 130176, Note_on_c, 9, 36, 90
10, 130176, Note_on_c, 9, 38, 90
10, 130272, Note_off_c, 9, 39, 0
10, 130272, Note_off_c, 9, 42, 0
10, 130272, Note_off_c, 9, 69, 0
10, 130272, Note_off_c, 9, 54, 0
10, 130272, Note_off_c, 9, 36, 0
10, 130272, Note_off_c, 9, 38, 0
10, 130272, Note_on_c, 9, 54, 80
10, 130272, Note_on_c, 9, 42, 70
10, 130368, Note_off_c, 9, 54, 0
10, 130368, Note_off_c, 9, 42, 0
10, 130368, Note_on_c, 9, 69, 80
10, 130368, Note_on_c, 9, 54, 80
10, 130368, Note_on_c, 9, 46, 70
10, 130464, Note_off_c, 9, 69, 0
10, 130464, Note_off_c, 9, 54, 0
10, 130464, Note_off_c, 9, 46, 0
10, 130464, Note_on_c, 9, 38, 90
10, 130560, Note_off_c, 9, 38, 0
10, 130560, Note_on_c, 9, 69, 80
10, 130560, Note_on_c, 9, 54, 80
10, 130560, Note_on_c, 9, 36, 90
10, 130560, Note_on_c, 9, 42, 70
10, 130656, Note_off_c, 9, 69, 0
10, 130656, Note_off_c, 9, 54, 0
10, 130656, Note_off_c, 9, 36, 0
10, 130656, Note_off_c, 9, 42, 0
10, 130752, Note_on_c, 9, 69, 80
10, 130752, Note_on_c, 9, 54, 90
10, 130752, Note_on_c, 9, 46, 70
10, 130848, Note_off_c, 9, 69, 0
10, 130848, Note_off_c, 9, 54, 0
10, 130848, Note_off_c, 9, 46, 0
10, 130944, Note_on_c, 9, 39, 80
10, 130944, Note_on_c, 9, 69, 80
10, 130944, Note_on_c, 9, 54, 80
10, 130944, Note_on_c, 9, 36, 90
10, 130944, Note_on_c, 9, 42, 70
10, 130944, Note_on_c, 9, 38, 90
10, 131040, Note_off_c, 9, 39, 0
10, 131040, Note_off_c, 9, 69, 0
10, 131040, Note_off_c, 9, 54, 0
10, 131040, Note_off_c, 9, 36, 0
10, 131040, Note_off_c, 9, 42, 0
10, 131040, Note_off_c, 9, 38, 0
10, 131136, Note_on_c, 9, 69, 80
10, 131136, Note_on_c, 9, 54, 80
10, 131136, Note_on_c, 9, 46, 70
10, 131232, Note_off_c, 9, 69, 0
10, 131232, Note_off_c, 9, 54, 0
10, 131232, Note_off_c, 9, 46, 0
10, 131232, Note_on_c, 9, 54, 80
10, 131328, Note_off_c, 9, 54, 0
10, 131328, Note_on_c, 9, 69, 80
10, 131328, Note_on_c, 9, 54, 80
10, 131328, Note_on_c, 9, 36, 90
10, 131328, Note_on_c, 9, 42, 70
10, 131424, Note_off_c, 9, 69, 0
10, 131424, Note_off_c, 9, 54, 0
10, 131424, Note_off_c, 9, 36, 0
10, 131424, Note_off_c, 9, 42, 0
10, 131424, Note_on_c, 9, 54, 80
10, 131424, Note_on_c, 9, 42, 70
10, 131520, Note_off_c, 9, 54, 0
10, 131520, Note_off_c, 9, 42, 0
10, 131520, Note_on_c, 9, 69, 80
10, 131520, Note_on_c, 9, 54, 80
10, 131520, Note_on_c, 9, 46, 70
10, 131616, Note_off_c, 9, 69, 0
10, 131616, Note_off_c, 9, 54, 0
10, 131616, Note_off_c, 9, 46, 0
10, 131712, Note_on_c, 9, 39, 80
10, 131712, Note_on_c, 9, 42, 70
10, 131712, Note_on_c, 9, 69, 80
10, 131712, Note_on_c, 9, 54, 80
10, 131712, Note_on_c, 9, 36, 90
10, 131712, Note_on_c, 9, 38, 90
10, 131808, Note_off_c, 9, 39, 0
10, 131808, Note_off_c, 9, 42, 0
10, 131808, Note_off_c, 9, 69, 0
10, 131808, Note_off_c, 9, 54, 0
10, 131808, Note_off_c, 9, 36, 0
10, 131808, Note_off_c, 9, 38, 0
10, 131808, Note_on_c, 9, 54, 80
10, 131808, Note_on_c, 9, 42, 70
10, 131904, Note_off_c, 9, 54, 0
10, 131904, Note_off_c, 9, 42, 0
10, 131904, Note_on_c, 9, 38, 80
10, 131904, Note_on_c, 9, 69, 80
10, 131904, Note_on_c, 9, 54, 80
10, 131904, Note_on_c, 9, 46, 70
10, 132000, Note_off_c, 9, 38, 0
10, 132000, Note_off_c, 9, 69, 0
10, 132000, Note_off_c, 9, 54, 0
10, 132000, Note_off_c, 9, 46, 0
10, 132000, Note_on_c, 9, 38, 90
10, 132096, Note_off_c, 9, 38, 0
10, 132096, Note_on_c, 9, 69, 80
10, 132096, Note_on_c, 9, 54, 80
10, 132096, Note_on_c, 9, 36, 80
10, 132096, Note_on_c, 9, 42, 70
10, 132192, Note_off_c, 9, 69, 0
10, 132192, Note_off_c, 9, 54, 0
10, 132192, Note_off_c, 9, 36, 0
10, 132192, Note_off_c, 9, 42, 0
10, 132288, Note_on_c, 9, 69, 80
10, 132288, Note_on_c, 9, 54, 90
10, 132288, Note_on_c, 9, 46, 70
10, 132384, Note_off_c, 9, 69, 0
10, 132384, Note_off_c, 9, 54, 0
10, 132384, Note_off_c, 9, 46, 0
10, 132480, Note_on_c, 9, 39, 80
10, 132480, Note_on_c, 9, 69, 80
10, 132480, Note_on_c, 9, 54, 80
10, 132480, Note_on_c, 9, 36, 90
10, 132480, Note_on_c, 9, 42, 70
10, 132480, Note_on_c, 9, 38, 90
10, 132576, Note_off_c, 9, 39, 0
10, 132576, Note_off_c, 9, 69, 0
10, 132576, Note_off_c, 9, 54, 0
10, 132576, Note_off_c, 9, 36, 0
10, 132576, Note_off_c, 9, 42, 0
10, 132576, Note_off_c, 9, 38, 0
10, 132672, Note_on_c, 9, 69, 80
10, 132672, Note_on_c, 9, 54, 80
10, 132672, Note_on_c, 9, 46, 70
10, 132768, Note_off_c, 9, 69, 0
10, 132768, Note_off_c, 9, 54, 0
10, 132768, Note_off_c, 9, 46, 0
10, 132768, Note_on_c, 9, 54, 80
10, 132864, Note_off_c, 9, 54, 0
10, 132864, Note_on_c, 9, 69, 80
10, 132864, Note_on_c, 9, 54, 80
10, 132864, Note_on_c, 9, 36, 90
10, 132864, Note_on_c, 9, 42, 70
10, 132960, Note_off_c, 9, 69, 0
10, 132960, Note_off_c, 9, 54, 0
10, 132960, Note_off_c, 9, 36, 0
10, 132960, Note_off_c, 9, 42, 0
10, 132960, Note_on_c, 9, 54, 80
10, 132960, Note_on_c, 9, 42, 70
10, 133056, Note_off_c, 9, 54, 0
10, 133056, Note_off_c, 9, 42, 0
10, 133056, Note_on_c, 9, 69, 80
10, 133056, Note_on_c, 9, 54, 80
10, 133056, Note_on_c, 9, 46, 70
10, 133152, Note_off_c, 9, 69, 0
10, 133152, Note_off_c, 9, 54, 0
10, 133152, Note_off_c, 9, 46, 0
10, 133248, Note_on_c, 9, 39, 80
10, 133248, Note_on_c, 9, 42, 70
10, 133248, Note_on_c, 9, 69, 80
10, 133248, Note_on_c, 9, 54, 80
10, 133248, Note_on_c, 9, 36, 90
10, 133248, Note_on_c, 9, 38, 90
10, 133344, Note_off_c, 9, 39, 0
10, 133344, Note_off_c, 9, 42, 0
10, 133344, Note_off_c, 9, 69, 0
10, 133344, Note_off_c, 9, 54, 0
10, 133344, Note_off_c, 9, 36, 0
10, 133344, Note_off_c, 9, 38, 0
10, 133344, Note_on_c, 9, 54, 80
10, 133344, Note_on_c, 9, 42, 70
10, 133440, Note_off_c, 9, 54, 0
10, 133440, Note_off_c, 9, 42, 0
10, 133440, Note_on_c, 9, 69, 80
10, 133440, Note_on_c, 9, 54, 80
10, 133440, Note_on_c, 9, 46, 70
10, 133536, Note_off_c, 9, 69, 0
10, 133536, Note_off_c, 9, 54, 0
10, 133536, Note_off_c, 9, 46, 0
10, 133536, Note_on_c, 9, 38, 90
10, 133632, Note_off_c, 9, 38, 0
10, 133632, Note_on_c, 9, 47, 90
10, 133632, Note_on_c, 9, 54, 80
10, 133632, Note_on_c, 9, 36, 90
10, 133632, Note_on_c, 9, 38, 90
10, 133728, Note_off_c, 9, 47, 0
10, 133728, Note_off_c, 9, 54, 0
10, 133728, Note_off_c, 9, 36, 0
10, 133728, Note_off_c, 9, 38, 0
10, 133824, Note_on_c, 9, 54, 80
10, 133920, Note_off_c, 9, 54, 0
10, 134016, Note_on_c, 9, 54, 80
10, 134016, Note_on_c, 9, 38, 90
10, 134112, Note_off_c, 9, 54, 0
10, 134112, Note_off_c, 9, 38, 0
10, 134208, Note_on_c, 9, 54, 80
10, 134304, Note_off_c, 9, 54, 0
10, 134304, Note_on_c, 9, 54, 80
10, 134400, Note_off_c, 9, 54, 0
10, 134400, Note_on_c, 9, 54, 80
10, 134400, Note_on_c, 9, 38, 90
10, 134496, Note_off_c, 9, 54, 0
10, 134496, Note_off_c, 9, 38, 0
10, 134496, Note_on_c, 9, 47, 90
10, 134592, Note_off_c, 9, 47, 0
10, 134592, Note_on_c, 9, 54, 80
10, 134592, Note_on_c, 9, 47, 90
10, 134688, Note_off_c, 9, 54, 0
10, 134688, Note_off_c, 9, 47, 0
10, 134688, Note_on_c, 9, 38, 90
10, 134784, Note_off_c, 9, 38, 0
10, 134784, Note_on_c, 9, 54, 80
10, 134784, Note_on_c, 9, 43, 90
10, 134784, Note_on_c, 9, 39, 80
10, 134880, Note_off_c, 9, 54, 0
10, 134880, Note_off_c, 9, 43, 0
10, 134880, Note_off_c, 9, 39, 0
10, 134880, Note_on_c, 9, 54, 80
10, 134976, Note_off_c, 9, 54, 0
10, 134976, Note_on_c, 9, 54, 80
10, 134976, Note_on_c, 9, 43, 90
10, 135072, Note_off_c, 9, 54, 0
10, 135072, Note_off_c, 9, 43, 0
10, 135168, Note_on_c, 9, 49, 100
10, 135168, Note_on_c, 9, 69, 80
10, 135168, Note_on_c, 9, 54, 80
10, 135168, Note_on_c, 9, 36, 80
10, 135168, Note_on_c, 9, 42, 70
10, 135168, Control_c, 9, 7, 90
10, 135260, Note_off_c, 9, 49, 0
10, 135264, Note_off_c, 9, 69, 0
10, 135264, Note_off_c, 9, 54, 0
10, 135264, Note_off_c, 9, 36, 0
10, 135264, Note_off_c, 9, 42, 0
10, 135284, Control_c, 9, 7, 89
10, 135360, Note_on_c, 9, 69, 80
10, 135360, Note_on_c, 9, 54, 90
10, 135360, Note_on_c, 9, 46, 70
10, 135404, Control_c, 9, 7, 88
10, 135456, Note_off_c, 9, 69, 0
10, 135456, Note_off_c, 9, 54, 0
10, 135456, Note_off_c, 9, 46, 0
10, 135520, Control_c, 9, 7, 87
10, 135552, Note_on_c, 9, 39, 80
10, 135552, Note_on_c, 9, 69, 80
10, 135552, Note_on_c, 9, 54, 80
10, 135552, Note_on_c, 9, 36, 90
10, 135552, Note_on_c, 9, 42, 70
10, 135552, Note_on_c, 9, 38, 90
10, 135644, Control_c, 9, 7, 86
10, 135648, Note_off_c, 9, 39, 0
10, 135648, Note_off_c, 9, 69, 0
10, 135648, Note_off_c, 9, 54, 0
10, 135648, Note_off_c, 9, 36, 0
10, 135648, Note_off_c, 9, 42, 0
10, 135648, Note_off_c, 9, 38, 0
10, 135744, Note_on_c, 9, 69, 80
10, 135744, Note_on_c, 9, 54, 80
10, 135744, Note_on_c, 9, 46, 70
10, 135760, Control_c, 9, 7, 85
10, 135840, Note_off_c, 9, 69, 0
10, 135840, Note_off_c, 9, 54, 0
10, 135840, Note_off_c, 9, 46, 0
10, 135840, Note_on_c, 9, 54, 80
10, 135880, Control_c, 9, 7, 84
10, 135936, Note_off_c, 9, 54, 0
10, 135936, Note_on_c, 9, 69, 80
10, 135936, Note_on_c, 9, 54, 80
10, 135936, Note_on_c, 9, 36, 90
10, 135936, Note_on_c, 9, 42, 70
10, 136000, Control_c, 9, 7, 83
10, 136032, Note_off_c, 9, 69, 0
10, 136032, Note_off_c, 9, 54, 0
10, 136032, Note_off_c, 9, 36, 0
10, 136032, Note_off_c, 9, 42, 0
10, 136032, Note_on_c, 9, 54, 80
10, 136032, Note_on_c, 9, 42, 70
10, 136120, Control_c, 9, 7, 82
10, 136128, Note_off_c, 9, 54, 0
10, 136128, Note_off_c, 9, 42, 0
10, 136128, Note_on_c, 9, 69, 80
10, 136128, Note_on_c, 9, 54, 80
10, 136128, Note_on_c, 9, 46, 70
10, 136224, Note_off_c, 9, 69, 0
10, 136224, Note_off_c, 9, 54, 0
10, 136224, Note_off_c, 9, 46, 0
10, 136240, Control_c, 9, 7, 81
10, 136320, Note_on_c, 9, 39, 80
10, 136320, Note_on_c, 9, 42, 70
10, 136320, Note_on_c, 9, 69, 80
10, 136320, Note_on_c, 9, 54, 80
10, 136320, Note_on_c, 9, 36, 90
10, 136320, Note_on_c, 9, 38, 90
10, 136360, Control_c, 9, 7, 80
10, 136416, Note_off_c, 9, 39, 0
10, 136416, Note_off_c, 9, 42, 0
10, 136416, Note_off_c, 9, 69, 0
10, 136416, Note_off_c, 9, 54, 0
10, 136416, Note_off_c, 9, 36, 0
10, 136416, Note_off_c, 9, 38, 0
10, 136416, Note_on_c, 9, 54, 80
10, 136416, Note_on_c, 9, 42, 70
10, 136480, Control_c, 9, 7, 79
10, 136512, Note_off_c, 9, 54, 0
10, 136512, Note_off_c, 9, 42, 0
10, 136512, Note_on_c, 9, 69, 80
10, 136512, Note_on_c, 9, 54, 80
10, 136512, Note_on_c, 9, 46, 70
10, 136596, Control_c, 9, 7, 78
10, 136608, Note_off_c, 9, 69, 0
10, 136608, Note_off_c, 9, 54, 0
10, 136608, Note_off_c, 9, 46, 0
10, 136608, Note_on_c, 9, 38, 90
10, 136704, Note_off_c, 9, 38, 0
10, 136704, Note_on_c, 9, 69, 80
10, 136704, Note_on_c, 9, 54, 80
10, 136704, Note_on_c, 9, 36, 90
10, 136704, Note_on_c, 9, 42, 70
10, 136720, Control_c, 9, 7, 77
10, 136800, Note_off_c, 9, 69, 0
10, 136800, Note_off_c, 9, 54, 0
10, 136800, Note_off_c, 9, 36, 0
10, 136800, Note_off_c, 9, 42, 0
10, 136836, Control_c, 9, 7, 76
10, 136896, Note_on_c, 9, 69, 80
10, 136896, Note_on_c, 9, 54, 90
10, 136896, Note_on_c, 9, 46, 70
10, 136956, Control_c, 9, 7, 75
10, 136992, Note_off_c, 9, 69, 0
10, 136992, Note_off_c, 9, 54, 0
10, 136992, Note_off_c, 9, 46, 0
10, 137076, Control_c, 9, 7, 74
10, 137088, Note_on_c, 9, 39, 80
10, 137088, Note_on_c, 9, 69, 80
10, 137088, Note_on_c, 9, 54, 80
10, 137088, Note_on_c, 9, 36, 90
10, 137088, Note_on_c, 9, 42, 70
10, 137088, Note_on_c, 9, 38, 90
10, 137184, Note_off_c, 9, 39, 0
10, 137184, Note_off_c, 9, 69, 0
10, 137184, Note_off_c, 9, 54, 0
10, 137184, Note_off_c, 9, 36, 0
10, 137184, Note_off_c, 9, 42, 0
10, 137184, Note_off_c, 9, 38, 0
10, 137196, Control_c, 9, 7, 73
10, 137280, Note_on_c, 9, 69, 80
10, 137280, Note_on_c, 9, 54, 80
10, 137280, Note_on_c, 9, 46, 70
10, 137312, Control_c, 9, 7, 72
10, 137376, Note_off_c, 9, 69, 0
10, 137376, Note_off_c, 9, 54, 0
10, 137376, Note_off_c, 9, 46, 0
10, 137376, Note_on_c, 9, 54, 80
10, 137436, Control_c, 9, 7, 71
10, 137472, Note_off_c, 9, 54, 0
10, 137472, Note_on_c, 9, 69, 80
10, 137472, Note_on_c, 9, 54, 80
10, 137472, Note_on_c, 9, 36, 90
10, 137472, Note_on_c, 9, 42, 70
10, 137552, Control_c, 9, 7, 70
10, 137568, Note_off_c, 9, 69, 0
10, 137568, Note_off_c, 9, 54, 0
10, 137568, Note_off_c, 9, 36, 0
10, 137568, Note_off_c, 9, 42, 0
10, 137568, Note_on_c, 9, 54, 80
10, 137568, Note_on_c, 9, 42, 70
10, 137664, Note_off_c, 9, 54, 0
10, 137664, Note_off_c, 9, 42, 0
10, 137664, Note_on_c, 9, 69, 80
10, 137664, Note_on_c, 9, 54, 80
10, 137664, Note_on_c, 9, 46, 70
10, 137672, Control_c, 9, 7, 69
10, 137760, Note_off_c, 9, 69, 0
10, 137760, Note_off_c, 9, 54, 0
10, 137760, Note_off_c, 9, 46, 0
10, 137792, Control_c, 9, 7, 68
10, 137856, Note_on_c, 9, 39, 80
10, 137856, Note_on_c, 9, 42, 70
10, 137856, Note_on_c, 9, 69, 80
10, 137856, Note_on_c, 9, 54, 80
10, 137856, Note_on_c, 9, 36, 90
10, 137856, Note_on_c, 9, 38, 90
10, 137912, Control_c, 9, 7, 67
10, 137952, Note_off_c, 9, 39, 0
10, 137952, Note_off_c, 9, 42, 0
10, 137952, Note_off_c, 9, 69, 0
10, 137952, Note_off_c, 9, 54, 0
10, 137952, Note_off_c, 9, 36, 0
10, 137952, Note_off_c, 9, 38, 0
10, 137952, Note_on_c, 9, 54, 80
10, 137952, Note_on_c, 9, 42, 70
10, 138032, Control_c, 9, 7, 66
10, 138048, Note_off_c, 9, 54, 0
10, 138048, Note_off_c, 9, 42, 0
10, 138048, Note_on_c, 9, 38, 80
10, 138048, Note_on_c, 9, 69, 80
10, 138048, Note_on_c, 9, 54, 80
10, 138048, Note_on_c, 9, 46, 70
10, 138144, Note_off_c, 9, 38, 0
10, 138144, Note_off_c, 9, 69, 0
10, 138144, Note_off_c, 9, 54, 0
10, 138144, Note_off_c, 9, 46, 0
10, 138144, Note_on_c, 9, 38, 90
10, 138152, Control_c, 9, 7, 65
10, 138240, Note_off_c, 9, 38, 0
10, 138240, Note_on_c, 9, 69, 80
10, 138240, Note_on_c, 9, 54, 80
10, 138240, Note_on_c, 9, 36, 80
10, 138240, Note_on_c, 9, 42, 70
10, 138272, Control_c, 9, 7, 64
10, 138336, Note_off_c, 9, 69, 0
10, 138336, Note_off_c, 9, 54, 0
10, 138336, Note_off_c, 9, 36, 0
10, 138336, Note_off_c, 9, 42, 0
10, 138388, Control_c, 9, 7, 63
10, 138432, Note_on_c, 9, 69, 80
10, 138432, Note_on_c, 9, 54, 90
10, 138432, Note_on_c, 9, 46, 70
10, 138512, Control_c, 9, 7, 62
10, 138528, Note_off_c, 9, 69, 0
10, 138528, Note_off_c, 9, 54, 0
10, 138528, Note_off_c, 9, 46, 0
10, 138624, Note_on_c, 9, 39, 80
10, 138624, Note_on_c, 9, 69, 80
10, 138624, Note_on_c, 9, 54, 80
10, 138624, Note_on_c, 9, 36, 90
10, 138624, Note_on_c, 9, 42, 70
10, 138624, Note_on_c, 9, 38, 90
10, 138628, Control_c, 9, 7, 61
10, 138720, Note_off_c, 9, 39, 0
10, 138720, Note_off_c, 9, 69, 0
10, 138720, Note_off_c, 9, 54, 0
10, 138720, Note_off_c, 9, 36, 0
10, 138720, Note_off_c, 9, 42, 0
10, 138720, Note_off_c, 9, 38, 0
10, 138748, Control_c, 9, 7, 60
10, 138816, Note_on_c, 9, 69, 80
10, 138816, Note_on_c, 9, 54, 80
10, 138816, Note_on_c, 9, 46, 70
10, 138864, Control_c, 9, 7, 59
10, 138912, Note_off_c, 9, 69, 0
10, 138912, Note_off_c, 9, 54, 0
10, 138912, Note_off_c, 9, 46, 0
10, 138912, Note_on_c, 9, 54, 80
10, 138988, Control_c, 9, 7, 58
10, 139008, Note_off_c, 9, 54, 0
10, 139008, Note_on_c, 9, 69, 80
10, 139008, Note_on_c, 9, 54, 80
10, 139008, Note_on_c, 9, 36, 90
10, 139008, Note_on_c, 9, 42, 70
10, 139104, Note_off_c, 9, 69, 0
10, 139104, Note_off_c, 9, 54, 0
10, 139104, Note_off_c, 9, 36, 0
10, 139104, Note_off_c, 9, 42, 0
10, 139104, Note_on_c, 9, 54, 80
10, 139104, Note_on_c, 9, 42, 70
10, 139104, Control_c, 9, 7, 57
10, 139200, Note_off_c, 9, 54, 0
10, 139200, Note_off_c, 9, 42, 0
10, 139200, Note_on_c, 9, 69, 80
10, 139200, Note_on_c, 9, 54, 80
10, 139200, Note_on_c, 9, 46, 70
10, 139224, Control_c, 9, 7, 56
10, 139296, Note_off_c, 9, 69, 0
10, 139296, Note_off_c, 9, 54, 0
10, 139296, Note_off_c, 9, 46, 0
10, 139344, Control_c, 9, 7, 55
10, 139392, Note_on_c, 9, 39, 80
10, 139392, Note_on_c, 9, 42, 70
10, 139392, Note_on_c, 9, 69, 80
10, 139392, Note_on_c, 9, 54, 80
10, 139392, Note_on_c, 9, 36, 90
10, 139392, Note_on_c, 9, 38, 90
10, 139464, Control_c, 9, 7, 54
10, 139488, Note_off_c, 9, 39, 0
10, 139488, Note_off_c, 9, 42, 0
10, 139488, Note_off_c, 9, 69, 0
10, 139488, Note_off_c, 9, 54, 0
10, 139488, Note_off_c, 9, 36, 0
10, 139488, Note_off_c, 9, 38, 0
10, 139488, Note_on_c, 9, 54, 80
10, 139488, Note_on_c, 9, 42, 70
10, 139584, Note_off_c, 9, 54, 0
10, 139584, Note_off_c, 9, 42, 0
10, 139584, Note_on_c, 9, 69, 80
10, 139584, Note_on_c, 9, 54, 80
10, 139584, Note_on_c, 9, 46, 70
10, 139584, Control_c, 9, 7, 53
10, 139680, Note_off_c, 9, 69, 0
10, 139680, Note_off_c, 9, 54, 0
10, 139680, Note_off_c, 9, 46, 0
10, 139680, Note_on_c, 9, 38, 90
10, 139704, Control_c, 9, 7, 52
10, 139776, Note_off_c, 9, 38, 0
10, 139776, Note_on_c, 9, 69, 80
10, 139776, Note_on_c, 9, 54, 80
10, 139776, Note_on_c, 9, 36, 90
10, 139776, Note_on_c, 9, 42, 70
10, 139824, Control_c, 9, 7, 51
10, 139872, Note_off_c, 9, 69, 0
10, 139872, Note_off_c, 9, 54, 0
10, 139872, Note_off_c, 9, 36, 0
10, 139872, Note_off_c, 9, 42, 0
10, 139940, Control_c, 9, 7, 50
10, 139968, Note_on_c, 9, 69, 80
10, 139968, Note_on_c, 9, 54, 90
10, 139968, Note_on_c, 9, 46, 70
10, 140064, Note_off_c, 9, 69, 0
10, 140064, Note_off_c, 9, 54, 0
10, 140064, Note_off_c, 9, 46, 0
10, 140064, Control_c, 9, 7, 49
10, 140160, Note_on_c, 9, 39, 80
10, 140160, Note_on_c, 9, 69, 80
10, 140160, Note_on_c, 9, 54, 80
10, 140160, Note_on_c, 9, 36, 90
10, 140160, Note_on_c, 9, 42, 70
10, 140160, Note_on_c, 9, 38, 90
10, 140180, Control_c, 9, 7, 48
10, 140256, Note_off_c, 9, 39, 0
10, 140256, Note_off_c, 9, 69, 0
10, 140256, Note_off_c, 9, 54, 0
10, 140256, Note_off_c, 9, 36, 0
10, 140256, Note_off_c, 9, 42, 0
10, 140256, Note_off_c, 9, 38, 0
10, 140300, Control_c, 9, 7, 47
10, 140352, Note_on_c, 9, 69, 80
10, 140352, Note_on_c, 9, 54, 80
10, 140352, Note_on_c, 9, 46, 70
10, 140420, Control_c, 9, 7, 46
10, 140448, Note_off_c, 9, 69, 0
10, 140448, Note_off_c, 9, 54, 0
10, 140448, Note_off_c, 9, 46, 0
10, 140448, Note_on_c, 9, 54, 80
10, 140540, Control_c, 9, 7, 45
10, 140544, Note_off_c, 9, 54, 0
10, 140544, Note_on_c, 9, 69, 80
10, 140544, Note_on_c, 9, 54, 80
10, 140544, Note_on_c, 9, 36, 90
10, 140544, Note_on_c, 9, 42, 70
10, 140640, Note_off_c, 9, 69, 0
10, 140640, Note_off_c, 9, 54, 0
10, 140640, Note_off_c, 9, 36, 0
10, 140640, Note_off_c, 9, 42, 0
10, 140640, Note_on_c, 9, 54, 80
10, 140640, Note_on_c, 9, 42, 70
10, 140656, Control_c, 9, 7, 44
10, 140736, Note_off_c, 9, 54, 0
10, 140736, Note_off_c, 9, 42, 0
10, 140736, Note_on_c, 9, 69, 80
10, 140736, Note_on_c, 9, 54, 80
10, 140736, Note_on_c, 9, 46, 70
10, 140780, Control_c, 9, 7, 43
10, 140832, Note_off_c, 9, 69, 0
10, 140832, Note_off_c, 9, 54, 0
10, 140832, Note_off_c, 9, 46, 0
10, 140896, Control_c, 9, 7, 42
10, 140928, Note_on_c, 9, 39, 80
10, 140928, Note_on_c, 9, 42, 70
10, 140928, Note_on_c, 9, 69, 80
10, 140928, Note_on_c, 9, 54, 80
10, 140928, Note_on_c, 9, 36, 90
10, 140928, Note_on_c, 9, 38, 90
10, 141016, Control_c, 9, 7, 41
10, 141024, Note_off_c, 9, 39, 0
10, 141024, Note_off_c, 9, 42, 0
10, 141024, Note_off_c, 9, 69, 0
10, 141024, Note_off_c, 9, 54, 0
10, 141024, Note_off_c, 9, 36, 0
10, 141024, Note_off_c, 9, 38, 0
10, 141024, Note_on_c, 9, 54, 80
10, 141024, Note_on_c, 9, 42, 70
10, 141120, Note_off_c, 9, 54, 0
10, 141120, Note_off_c, 9, 42, 0
10, 141120, Note_on_c, 9, 38, 80
10, 141120, Note_on_c, 9, 69, 80
10, 141120, Note_on_c, 9, 54, 80
10, 141120, Note_on_c, 9, 46, 70
10, 141136, Control_c, 9, 7, 40
10, 141216, Note_off_c, 9, 38, 0
10, 141216, Note_off_c, 9, 69, 0
10, 141216, Note_off_c, 9, 54, 0
10, 141216, Note_off_c, 9, 46, 0
10, 141216, Note_on_c, 9, 38, 90
10, 141256, Control_c, 9, 7, 39
10, 141312, Note_off_c, 9, 38, 0
10, 141312, Note_on_c, 9, 69, 80
10, 141312, Note_on_c, 9, 54, 80
10, 141312, Note_on_c, 9, 36, 80
10, 141312, Note_on_c, 9, 42, 70
10, 141376, Control_c, 9, 7, 38
10, 141408, Note_off_c, 9, 69, 0
10, 141408, Note_off_c, 9, 54, 0
10, 141408, Note_off_c, 9, 36, 0
10, 141408, Note_off_c, 9, 42, 0
10, 141496, Control_c, 9, 7, 37
10, 141504, Note_on_c, 9, 69, 80
10, 141504, Note_on_c, 9, 54, 90
10, 141504, Note_on_c, 9, 46, 70
10, 141600, Note_off_c, 9, 69, 0
10, 141600, Note_off_c, 9, 54, 0
10, 141600, Note_off_c, 9, 46, 0
10, 141616, Control_c, 9, 7, 36
10, 141696, Note_on_c, 9, 39, 80
10, 141696, Note_on_c, 9, 69, 80
10, 141696, Note_on_c, 9, 54, 80
10, 141696, Note_on_c, 9, 36, 90
10, 141696, Note_on_c, 9, 42, 70
10, 141696, Note_on_c, 9, 38, 90
10, 141732, Control_c, 9, 7, 35
10, 141792, Note_off_c, 9, 39, 0
10, 141792, Note_off_c, 9, 69, 0
10, 141792, Note_off_c, 9, 54, 0
10, 141792, Note_off_c, 9, 36, 0
10, 141792, Note_off_c, 9, 42, 0
10, 141792, Note_off_c, 9, 38, 0
10, 141856, Control_c, 9, 7, 34
10, 141888, Note_on_c, 9, 69, 80
10, 141888, Note_on_c, 9, 54, 80
10, 141888, Note_on_c, 9, 46, 70
10, 141972, Control_c, 9, 7, 33
10, 141984, Note_off_c, 9, 69, 0
10, 141984, Note_off_c, 9, 54, 0
10, 141984, Note_off_c, 9, 46, 0
10, 141984, Note_on_c, 9, 54, 80
10, 142080, Note_off_c, 9, 54, 0
10, 142080, Note_on_c, 9, 69, 80
10, 142080, Note_on_c, 9, 54, 80
10, 142080, Note_on_c, 9, 36, 90
10, 142080, Note_on_c, 9, 42, 70
10, 142092, Control_c, 9, 7, 32
10, 142176, Note_off_c, 9, 69, 0
10, 142176, Note_off_c, 9, 54, 0
10, 142176, Note_off_c, 9, 36, 0
10, 142176, Note_off_c, 9, 42, 0
10, 142176, Note_on_c, 9, 54, 80
10, 142176, Note_on_c, 9, 42, 70
10, 142212, Control_c, 9, 7, 31
10, 142272, Note_off_c, 9, 54, 0
10, 142272, Note_off_c, 9, 42, 0
10, 142272, Note_on_c, 9, 69, 80
10, 142272, Note_on_c, 9, 54, 80
10, 142272, Note_on_c, 9, 46, 70
10, 142332, Control_c, 9, 7, 30
10, 142368, Note_off_c, 9, 69, 0
10, 142368, Note_off_c, 9, 54, 0
10, 142368, Note_off_c, 9, 46, 0
10, 142448, Control_c, 9, 7, 29
10, 142464, Note_on_c, 9, 39, 80
10, 142464, Note_on_c, 9, 42, 70
10, 142464, Note_on_c, 9, 69, 80
10, 142464, Note_on_c, 9, 54, 80
10, 142464, Note_on_c, 9, 36, 90
10, 142464, Note_on_c, 9, 38, 90
10, 142560, Note_off_c, 9, 39, 0
10, 142560, Note_off_c, 9, 42, 0
10, 142560, Note_off_c, 9, 69, 0
10, 142560, Note_off_c, 9, 54, 0
10, 142560, Note_off_c, 9, 36, 0
10, 142560, Note_off_c, 9, 38, 0
10, 142560, Note_on_c, 9, 54, 80
10, 142560, Note_on_c, 9, 42, 70
10, 142568, Control_c, 9, 7, 28
10, 142656, Note_off_c, 9, 54, 0
10, 142656, Note_off_c, 9, 42, 0
10, 142656, Note_on_c, 9, 69, 80
10, 142656, Note_on_c, 9, 54, 80
10, 142656, Note_on_c, 9, 46, 70
10, 142688, Control_c, 9, 7, 27
10, 142752, Note_off_c, 9, 69, 0
10, 142752, Note_off_c, 9, 54, 0
10, 142752, Note_off_c, 9, 46, 0
10, 142752, Note_on_c, 9, 38, 90
10, 142808, Control_c, 9, 7, 26
10, 142848, Note_off_c, 9, 38, 0
10, 142848, Note_on_c, 9, 69, 80
10, 142848, Note_on_c, 9, 54, 80
10, 142848, Note_on_c, 9, 36, 90
10, 142848, Note_on_c, 9, 42, 70
10, 142928, Control_c, 9, 7, 25
10, 142944, Note_off_c, 9, 69, 0
10, 142944, Note_off_c, 9, 54, 0
10, 142944, Note_off_c, 9, 36, 0
10, 142944, Note_off_c, 9, 42, 0
10, 143040, Note_on_c, 9, 69, 80
10, 143040, Note_on_c, 9, 54, 90
10, 143040, Note_on_c, 9, 46, 70
10, 143048, Control_c, 9, 7, 24
10, 143136, Note_off_c, 9, 69, 0
10, 143136, Note_off_c, 9, 54, 0
10, 143136, Note_off_c, 9, 46, 0
10, 143168, Control_c, 9, 7, 23
10, 143232, Note_on_c, 9, 39, 80
10, 143232, Note_on_c, 9, 69, 80
10, 143232, Note_on_c, 9, 54, 80
10, 143232, Note_on_c, 9, 36, 90
10, 143232, Note_on_c, 9, 42, 70
10, 143232, Note_on_c, 9, 38, 90
10, 143284, Control_c, 9, 7, 22
10, 143328, Note_off_c, 9, 39, 0
10, 143328, Note_off_c, 9, 69, 0
10, 143328, Note_off_c, 9, 54, 0
10, 143328, Note_off_c, 9, 36, 0
10, 143328, Note_off_c, 9, 42, 0
10, 143328, Note_off_c, 9, 38, 0
10, 143408, Control_c, 9, 7, 21
10, 143424, Note_on_c, 9, 69, 80
10, 143424, Note_on_c, 9, 54, 80
10, 143424, Note_on_c, 9, 46, 70
10, 143520, Note_off_c, 9, 69, 0
10, 143520, Note_off_c, 9, 54, 0
10, 143520, Note_off_c, 9, 46, 0
10, 143520, Note_on_c, 9, 54, 80
10, 143524, Control_c, 9, 7, 20
10, 143616, Note_off_c, 9, 54, 0
10, 143616, Note_on_c, 9, 69, 80
10, 143616, Note_on_c, 9, 54, 80
10, 143616, Note_on_c, 9, 36, 90
10, 143616, Note_on_c, 9, 42, 70
10, 143644, Control_c, 9, 7, 19
10, 143712, Note_off_c, 9, 69, 0
10, 143712, Note_off_c, 9, 54, 0
10, 143712, Note_off_c, 9, 36, 0
10, 143712, Note_off_c, 9, 42, 0
10, 143712, Note_on_c, 9, 54, 80
10, 143712, Note_on_c, 9, 42, 70
10, 143764, Control_c, 9, 7, 18
10, 143808, Note_off_c, 9, 54, 0
10, 143808, Note_off_c, 9, 42, 0
10, 143808, Note_on_c, 9, 69, 80
10, 143808, Note_on_c, 9, 54, 80
10, 143808, Note_on_c, 9, 46, 70
10, 143884, Control_c, 9, 7, 17
10, 143904, Note_off_c, 9, 69, 0
10, 143904, Note_off_c, 9, 54, 0
10, 143904, Note_off_c, 9, 46, 0
10, 144000, Note_on_c, 9, 39, 80
10, 144000, Note_on_c, 9, 42, 70
10, 144000, Note_on_c, 9, 69, 80
10, 144000, Note_on_c, 9, 54, 80
10, 144000, Note_on_c, 9, 36, 90
10, 144000, Note_on_c, 9, 38, 90
10, 144000, Control_c, 9, 7, 16
10, 144096, Note_off_c, 9, 39, 0
10, 144096, Note_off_c, 9, 42, 0
10, 144096, Note_off_c, 9, 69, 0
10, 144096, Note_off_c, 9, 54, 0
10, 144096, Note_off_c, 9, 36, 0
10, 144096, Note_off_c, 9, 38, 0
10, 144096, Note_on_c, 9, 54, 80
10, 144096, Note_on_c, 9, 42, 70
10, 144124, Control_c, 9, 7, 15
10, 144192, Note_off_c, 9, 54, 0
10, 144192, Note_off_c, 9, 42, 0
10, 144192, Note_on_c, 9, 38, 80
10, 144192, Note_on_c, 9, 69, 80
10, 144192, Note_on_c, 9, 54, 80
10, 144192, Note_on_c, 9, 46, 70
10, 144240, Control_c, 9, 7, 14
10, 144288, Note_off_c, 9, 38, 0
10, 144288, Note_off_c, 9, 69, 0
10, 144288, Note_off_c, 9, 54, 0
10, 144288, Note_off_c, 9, 46, 0
10, 144288, Note_on_c, 9, 38, 90
10, 144360, Control_c, 9, 7, 13
10, 144384, Note_off_c, 9, 38, 0
10, 144384, Note_on_c, 9, 69, 80
10, 144384, Note_on_c, 9, 54, 80
10, 144384, Note_on_c, 9, 36, 80
10, 144384, Note_on_c, 9, 42, 70
10, 144480, Note_off_c, 9, 69, 0
10, 144480, Note_off_c, 9, 54, 0
10, 144480, Note_off_c, 9, 36, 0
10, 144480, Note_off_c, 9, 42, 0
10, 144480, Control_c, 9, 7, 12
10, 144576, Note_on_c, 9, 69, 80
10, 144576, Note_on_c, 9, 54, 90
10, 144576, Note_on_c, 9, 46, 70
10, 144600, Control_c, 9, 7, 11
10, 144672, Note_off_c, 9, 69, 0
10, 144672, Note_off_c, 9, 54, 0
10, 144672, Note_off_c, 9, 46, 0
10, 144720, Control_c, 9, 7, 10
10, 144768, Note_on_c, 9, 39, 80
10, 144768, Note_on_c, 9, 69, 80
10, 144768, Note_on_c, 9, 54, 80
10, 144768, Note_on_c, 9, 36, 90
10, 144768, Note_on_c, 9, 42, 70
10, 144768, Note_on_c, 9, 38, 90
10, 144840, Control_c, 9, 7, 9
10, 144864, Note_off_c, 9, 39, 0
10, 144864, Note_off_c, 9, 69, 0
10, 144864, Note_off_c, 9, 54, 0
10, 144864, Note_off_c, 9, 36, 0
10, 144864, Note_off_c, 9, 42, 0
10, 144864, Note_off_c, 9, 38, 0
10, 144960, Note_on_c, 9, 69, 80
10, 144960, Note_on_c, 9, 54, 80
10, 144960, Note_on_c, 9, 46, 70
10, 144960, Control_c, 9, 7, 8
10, 145056, Note_off_c, 9, 69, 0
10, 145056, Note_off_c, 9, 54, 0
10, 145056, Note_off_c, 9, 46, 0
10, 145056, Note_on_c, 9, 54, 80
10, 145076, Control_c, 9, 7, 7
10, 145152, Note_off_c, 9, 54, 0
10, 145152, Note_on_c, 9, 69, 80
10, 145152, Note_on_c, 9, 54, 80
10, 145152, Note_on_c, 9, 36, 90
10, 145152, Note_on_c, 9, 42, 70
10, 145200, Control_c, 9, 7, 6
10, 145248, Note_off_c, 9, 69, 0
10, 145248, Note_off_c, 9, 54, 0
10, 145248, Note_off_c, 9, 36, 0
10, 145248, Note_off_c, 9, 42, 0
10, 145248, Note_on_c, 9, 54, 80
10, 145248, Note_on_c, 9, 42, 70
10, 145316, Control_c, 9, 7, 5
10, 145344, Note_off_c, 9, 54, 0
10, 145344, Note_off_c, 9, 42, 0
10, 145344, Note_on_c, 9, 69, 80
10, 145344, Note_on_c, 9, 54, 80
10, 145344, Note_on_c, 9, 46, 70
10, 145436, Control_c, 9, 7, 4
10, 145440, Note_off_c, 9, 69, 0
10, 145440, Note_off_c, 9, 54, 0
10, 145440, Note_off_c, 9, 46, 0
10, 145536, Note_on_c, 9, 39, 80
10, 145536, Note_on_c, 9, 42, 70
10, 145536, Note_on_c, 9, 69, 80
10, 145536, Note_on_c, 9, 54, 80
10, 145536, Note_on_c, 9, 36, 90
10, 145536, Note_on_c, 9, 38, 90
10, 145556, Control_c, 9, 7, 3
10, 145632, Note_off_c, 9, 39, 0
10, 145632, Note_off_c, 9, 42, 0
10, 145632, Note_off_c, 9, 69, 0
10, 145632, Note_off_c, 9, 54, 0
10, 145632, Note_off_c, 9, 36, 0
10, 145632, Note_off_c, 9, 38, 0
10, 145632, Note_on_c, 9, 54, 80
10, 145632, Note_on_c, 9, 42, 70
10, 145676, Control_c, 9, 7, 2
10, 145728, Note_off_c, 9, 54, 0
10, 145728, Note_off_c, 9, 42, 0
10, 145728, Note_on_c, 9, 69, 80
10, 145728, Note_on_c, 9, 54, 80
10, 145728, Note_on_c, 9, 46, 70
10, 145792, Control_c, 9, 7, 1
10, 145824, Note_off_c, 9, 69, 0
10, 145824, Note_off_c, 9, 54, 0
10, 145824, Note_off_c, 9, 46, 0
10, 145824, Note_on_c, 9, 38, 90
10, 145916, Control_c, 9, 7, 0
10, 145920, Note_off_c, 9, 38, 0
10, 145920, End_track
0, 0, End_of_file
