0, 0, Header, 1, 8, 120
1, 0, Start_track
1, 0, MIDI_port, 0
1, 0, System_exclusive, 10, 65, 16, 66, 18, 64, 0, 127, 0, 65, 247
1, 0, MIDI_port, 0
1, 0, Time_signature, 4, 2, 24, 8
1, 0, Key_signature, -1, "major"
1, 0, Tempo, 375000
1, 960, Marker_t, "intro"
1, 2880, Marker_t, "A1"
1, 8640, Marker_t, "B1"
1, 14400, Marker_t, "A2"
1, 20160, Marker_t, "B2"
1, 25920, Marker_t, "solo"
1, 31680, Marker_t, "A3"
1, 37440, Marker_t, "B3"
1, 37440, End_track
2, 0, Start_track
2, 0, MIDI_port, 0
2, 0, Title_t, "text"
2, 0, Control_c, 0, 7, 0
2, 0, Control_c, 0, 7, 0
2, 0, Lyric_t, "BAMA "
2, 0, Note_on_c, 0, 77, 114
2, 29, Note_on_c, 0, 77, 0
2, 30, Lyric_t, "LAMA "
2, 30, Lyric_t, ""
2, 30, Lyric_t, "\015"
2, 30, Note_on_c, 0, 77, 114
2, 59, Note_on_c, 0, 77, 0
2, 60, Lyric_t, "BAMA "
2, 60, Note_on_c, 0, 77, 114
2, 89, Note_on_c, 0, 77, 0
2, 90, Lyric_t, "LOO "
2, 90, Lyric_t, ""
2, 90, Lyric_t, "\015"
2, 90, Note_on_c, 0, 77, 124
2, 90, Program_c, 0, 4
2, 119, Note_on_c, 0, 77, 0
2, 120, Lyric_t, "LITTLE "
2, 120, Note_on_c, 0, 77, 124
2, 149, Note_on_c, 0, 77, 0
2, 150, Lyric_t, "RICHARD "
2, 150, Lyric_t, ""
2, 150, Lyric_t, "\015"
2, 150, Note_on_c, 0, 77, 109
2, 179, Note_on_c, 0, 77, 0
2, 180, Lyric_t, "Written "
2, 180, Note_on_c, 0, 77, 120
2, 209, Note_on_c, 0, 77, 0
2, 210, Lyric_t, "by "
2, 210, Note_on_c, 0, 77, 120
2, 239, Note_on_c, 0, 77, 0
2, 240, Lyric_t, "Penniman "
2, 240, Lyric_t, ""
2, 240, Lyric_t, "\015"
2, 240, Note_on_c, 0, 77, 114
2, 269, Note_on_c, 0, 77, 0
2, 1800, Program_c, 0, 0
2, 2280, Lyric_t, "Got"
2, 2280, Note_on_c, 0, 74, 127
2, 2290, Note_on_c, 0, 74, 0
2, 2340, Lyric_t, "ta "
2, 2340, Note_on_c, 0, 74, 124
2, 2350, Note_on_c, 0, 74, 0
2, 2400, Lyric_t, "girl "
2, 2400, Lyric_t, ""
2, 2400, Lyric_t, "\015"
2, 2400, Note_on_c, 0, 74, 127
2, 2410, Note_on_c, 0, 74, 0
2, 2700, Lyric_t, "named "
2, 2700, Note_on_c, 0, 74, 127
2, 2710, Note_on_c, 0, 74, 0
2, 2760, Lyric_t, "Lu"
2, 2760, Note_on_c, 0, 74, 127
2, 2770, Note_on_c, 0, 74, 0
2, 2820, Lyric_t, "cin"
2, 2820, Note_on_c, 0, 74, 127
2, 2830, Note_on_c, 0, 74, 0
2, 2940, Lyric_t, "da "
2, 2940, Lyric_t, ""
2, 2940, Lyric_t, "\015"
2, 2940, Note_on_c, 0, 74, 124
2, 2950, Note_on_c, 0, 74, 0
2, 3300, Lyric_t, "we "
2, 3300, Note_on_c, 0, 74, 124
2, 3310, Note_on_c, 0, 74, 0
2, 3360, Lyric_t, "call "
2, 3360, Note_on_c, 0, 74, 127
2, 3370, Note_on_c, 0, 74, 0
2, 3420, Lyric_t, "her "
2, 3420, Lyric_t, ""
2, 3420, Lyric_t, "\015"
2, 3420, Note_on_c, 0, 74, 127
2, 3430, Note_on_c, 0, 74, 0
2, 3540, Lyric_t, "the "
2, 3540, Note_on_c, 0, 74, 124
2, 3550, Note_on_c, 0, 74, 0
2, 3600, Lyric_t, "great "
2, 3600, Note_on_c, 0, 74, 127
2, 3610, Note_on_c, 0, 74, 0
2, 3720, Lyric_t, "pre"
2, 3720, Note_on_c, 0, 74, 117
2, 3730, Note_on_c, 0, 74, 0
2, 3780, Lyric_t, "ten"
2, 3780, Note_on_c, 0, 74, 127
2, 3790, Note_on_c, 0, 74, 0
2, 3900, Lyric_t, "der "
2, 3900, Lyric_t, ""
2, 3900, Lyric_t, "\015"
2, 3900, Note_on_c, 0, 74, 127
2, 3910, Note_on_c, 0, 74, 0
2, 4260, Lyric_t, "Got"
2, 4260, Note_on_c, 0, 74, 127
2, 4270, Note_on_c, 0, 74, 0
2, 4290, Lyric_t, "ta "
2, 4290, Note_on_c, 0, 74, 127
2, 4300, Note_on_c, 0, 74, 0
2, 4320, Lyric_t, "girl "
2, 4320, Lyric_t, ""
2, 4320, Lyric_t, "\015"
2, 4320, Note_on_c, 0, 74, 127
2, 4330, Note_on_c, 0, 74, 0
2, 4620, Lyric_t, "named "
2, 4620, Note_on_c, 0, 74, 124
2, 4630, Note_on_c, 0, 74, 0
2, 4710, Lyric_t, "Lu"
2, 4710, Note_on_c, 0, 74, 127
2, 4720, Note_on_c, 0, 74, 0
2, 4800, Lyric_t, "cin"
2, 4800, Note_on_c, 0, 74, 127
2, 4810, Note_on_c, 0, 74, 0
2, 4890, Lyric_t, "da "
2, 4890, Lyric_t, ""
2, 4890, Lyric_t, "\015"
2, 4890, Note_on_c, 0, 74, 127
2, 4900, Note_on_c, 0, 74, 0
2, 5220, Lyric_t, "we "
2, 5220, Note_on_c, 0, 74, 127
2, 5230, Note_on_c, 0, 74, 0
2, 5280, Lyric_t, "call "
2, 5280, Note_on_c, 0, 74, 127
2, 5290, Note_on_c, 0, 74, 0
2, 5340, Lyric_t, "her "
2, 5340, Lyric_t, ""
2, 5340, Lyric_t, "\015"
2, 5340, Note_on_c, 0, 74, 117
2, 5350, Note_on_c, 0, 74, 0
2, 5400, Lyric_t, "the "
2, 5400, Note_on_c, 0, 74, 124
2, 5410, Note_on_c, 0, 74, 0
2, 5460, Lyric_t, "great "
2, 5460, Note_on_c, 0, 74, 127
2, 5470, Note_on_c, 0, 74, 0
2, 5640, Lyric_t, "pre"
2, 5640, Note_on_c, 0, 74, 108
2, 5650, Note_on_c, 0, 74, 0
2, 5700, Lyric_t, "ten"
2, 5700, Note_on_c, 0, 74, 127
2, 5710, Note_on_c, 0, 74, 0
2, 5820, Lyric_t, "der "
2, 5820, Lyric_t, ""
2, 5820, Lyric_t, "\015"
2, 5820, Note_on_c, 0, 74, 124
2, 5830, Note_on_c, 0, 74, 0
2, 6060, Lyric_t, "and "
2, 6060, Note_on_c, 0, 74, 127
2, 6070, Note_on_c, 0, 74, 0
2, 6120, Lyric_t, "when "
2, 6120, Note_on_c, 0, 74, 117
2, 6130, Note_on_c, 0, 74, 0
2, 6180, Lyric_t, "she "
2, 6180, Note_on_c, 0, 74, 127
2, 6190, Note_on_c, 0, 74, 0
2, 6240, Lyric_t, "talks "
2, 6240, Lyric_t, ""
2, 6240, Lyric_t, "\015"
2, 6240, Note_on_c, 0, 74, 127
2, 6250, Note_on_c, 0, 74, 0
2, 6720, Lyric_t, "she "
2, 6720, Note_on_c, 0, 74, 108
2, 6750, Note_on_c, 0, 74, 0
2, 6780, Lyric_t, "says "
2, 6780, Note_on_c, 0, 74, 117
2, 6790, Note_on_c, 0, 74, 0
2, 6840, Lyric_t, "Ba"
2, 6840, Note_on_c, 0, 74, 117
2, 6850, Note_on_c, 0, 74, 0
2, 6900, Lyric_t, "ma "
2, 6900, Note_on_c, 0, 74, 108
2, 6910, Note_on_c, 0, 74, 0
2, 6960, Lyric_t, "La"
2, 6960, Note_on_c, 0, 74, 117
2, 6970, Note_on_c, 0, 74, 0
2, 7020, Lyric_t, "ma "
2, 7020, Lyric_t, ""
2, 7020, Lyric_t, "\015"
2, 7020, Note_on_c, 0, 74, 99
2, 7030, Note_on_c, 0, 74, 0
2, 7080, Lyric_t, "Ba"
2, 7080, Note_on_c, 0, 74, 108
2, 7090, Note_on_c, 0, 74, 0
2, 7140, Lyric_t, "ma "
2, 7140, Note_on_c, 0, 74, 99
2, 7150, Note_on_c, 0, 74, 0
2, 7200, Lyric_t, "Loo "
2, 7200, Lyric_t, ""
2, 7200, Lyric_t, "\015"
2, 7200, Note_on_c, 0, 74, 124
2, 7210, Note_on_c, 0, 74, 0
2, 8040, Lyric_t, "Ba"
2, 8040, Note_on_c, 0, 74, 108
2, 8050, Note_on_c, 0, 74, 0
2, 8100, Lyric_t, "ma "
2, 8100, Note_on_c, 0, 74, 127
2, 8110, Note_on_c, 0, 74, 0
2, 8160, Lyric_t, "La"
2, 8160, Note_on_c, 0, 74, 127
2, 8170, Note_on_c, 0, 74, 0
2, 8220, Lyric_t, "ma "
2, 8220, Lyric_t, ""
2, 8220, Lyric_t, "\015"
2, 8220, Note_on_c, 0, 74, 127
2, 8230, Note_on_c, 0, 74, 0
2, 8520, Lyric_t, "Ba"
2, 8520, Note_on_c, 0, 74, 108
2, 8530, Note_on_c, 0, 74, 0
2, 8580, Lyric_t, "ma "
2, 8580, Note_on_c, 0, 74, 124
2, 8590, Note_on_c, 0, 74, 0
2, 8640, Lyric_t, "Loo "
2, 8640, Lyric_t, ""
2, 8640, Lyric_t, "\015"
2, 8640, Note_on_c, 0, 74, 117
2, 8650, Note_on_c, 0, 74, 0
2, 9000, Lyric_t, "Ba"
2, 9000, Note_on_c, 0, 74, 99
2, 9010, Note_on_c, 0, 74, 0
2, 9060, Lyric_t, "ma "
2, 9060, Note_on_c, 0, 74, 127
2, 9070, Note_on_c, 0, 74, 0
2, 9120, Lyric_t, "La"
2, 9120, Note_on_c, 0, 74, 124
2, 9130, Note_on_c, 0, 74, 0
2, 9180, Lyric_t, "ma "
2, 9180, Lyric_t, ""
2, 9180, Lyric_t, "\015"
2, 9180, Note_on_c, 0, 74, 127
2, 9190, Note_on_c, 0, 74, 0
2, 9480, Lyric_t, "Ba"
2, 9480, Note_on_c, 0, 74, 108
2, 9490, Note_on_c, 0, 74, 0
2, 9540, Lyric_t, "ma "
2, 9540, Note_on_c, 0, 74, 108
2, 9550, Note_on_c, 0, 74, 0
2, 9600, Lyric_t, "Loo "
2, 9600, Note_on_c, 0, 74, 108
2, 9610, Note_on_c, 0, 74, 0
2, 9780, Lyric_t, "wo! "
2, 9780, Lyric_t, ""
2, 9780, Lyric_t, "\015"
2, 9780, Note_on_c, 0, 74, 124
2, 9790, Note_on_c, 0, 74, 0
2, 9960, Lyric_t, "Ba"
2, 9960, Note_on_c, 0, 74, 127
2, 9970, Note_on_c, 0, 74, 0
2, 10020, Lyric_t, "ma "
2, 10020, Note_on_c, 0, 74, 99
2, 10030, Note_on_c, 0, 74, 0
2, 10080, Lyric_t, "La"
2, 10080, Note_on_c, 0, 74, 127
2, 10090, Note_on_c, 0, 74, 0
2, 10140, Lyric_t, "ma "
2, 10140, Lyric_t, ""
2, 10140, Lyric_t, "\015"
2, 10140, Note_on_c, 0, 74, 124
2, 10150, Note_on_c, 0, 74, 0
2, 10440, Lyric_t, "Ba"
2, 10440, Note_on_c, 0, 74, 127
2, 10450, Note_on_c, 0, 74, 0
2, 10500, Lyric_t, "ma "
2, 10500, Note_on_c, 0, 74, 117
2, 10510, Note_on_c, 0, 74, 0
2, 10560, Lyric_t, "Loo "
2, 10560, Lyric_t, ""
2, 10560, Lyric_t, "\015"
2, 10560, Note_on_c, 0, 74, 124
2, 10570, Note_on_c, 0, 74, 0
2, 10920, Lyric_t, "Ba"
2, 10920, Note_on_c, 0, 74, 108
2, 10930, Note_on_c, 0, 74, 0
2, 10980, Lyric_t, "ma "
2, 10980, Note_on_c, 0, 74, 90
2, 10990, Note_on_c, 0, 74, 0
2, 11040, Lyric_t, "La"
2, 11040, Note_on_c, 0, 74, 117
2, 11050, Note_on_c, 0, 74, 0
2, 11100, Lyric_t, "ma "
2, 11100, Lyric_t, ""
2, 11100, Lyric_t, "\015"
2, 11100, Note_on_c, 0, 74, 99
2, 11110, Note_on_c, 0, 74, 0
2, 11400, Lyric_t, "Ba"
2, 11400, Note_on_c, 0, 74, 117
2, 11410, Note_on_c, 0, 74, 0
2, 11460, Lyric_t, "ma "
2, 11460, Note_on_c, 0, 74, 108
2, 11470, Note_on_c, 0, 74, 0
2, 11520, Lyric_t, "Loo "
2, 11520, Lyric_t, ""
2, 11520, Lyric_t, "\015"
2, 11520, Note_on_c, 0, 74, 99
2, 11530, Note_on_c, 0, 74, 0
2, 11880, Lyric_t, "Now "
2, 11880, Note_on_c, 0, 74, 108
2, 11890, Note_on_c, 0, 74, 0
2, 11940, Lyric_t, "I "
2, 11940, Note_on_c, 0, 74, 90
2, 11950, Note_on_c, 0, 74, 0
2, 12000, Lyric_t, "dig "
2, 12000, Note_on_c, 0, 74, 124
2, 12010, Note_on_c, 0, 74, 0
2, 12060, Lyric_t, "her "
2, 12060, Note_on_c, 0, 74, 124
2, 12070, Note_on_c, 0, 74, 0
2, 12180, Lyric_t, "style "
2, 12180, Lyric_t, ""
2, 12180, Lyric_t, "\015"
2, 12180, Note_on_c, 0, 74, 124
2, 12190, Note_on_c, 0, 74, 0
2, 12330, Lyric_t, "she "
2, 12330, Note_on_c, 0, 74, 117
2, 12340, Note_on_c, 0, 74, 0
2, 12360, Lyric_t, "likes "
2, 12360, Lyric_t, ""
2, 12360, Lyric_t, "\015"
2, 12360, Note_on_c, 0, 74, 117
2, 12370, Note_on_c, 0, 74, 0
2, 12420, Lyric_t, "to "
2, 12420, Note_on_c, 0, 74, 117
2, 12430, Note_on_c, 0, 74, 0
2, 12480, Lyric_t, "drive "
2, 12480, Note_on_c, 0, 74, 127
2, 12490, Note_on_c, 0, 74, 0
2, 12600, Lyric_t, "me "
2, 12600, Note_on_c, 0, 74, 127
2, 12610, Note_on_c, 0, 74, 0
2, 12660, Lyric_t, "wild "
2, 12660, Lyric_t, ""
2, 12660, Lyric_t, "\015"
2, 12660, Note_on_c, 0, 74, 124
2, 12670, Note_on_c, 0, 74, 0
2, 12780, Lyric_t, "with "
2, 12780, Note_on_c, 0, 74, 127
2, 12790, Note_on_c, 0, 74, 0
2, 12840, Lyric_t, "Ba"
2, 12840, Note_on_c, 0, 74, 90
2, 12850, Note_on_c, 0, 74, 0
2, 12900, Lyric_t, "ma "
2, 12900, Note_on_c, 0, 74, 127
2, 12910, Note_on_c, 0, 74, 0
2, 12960, Lyric_t, "La"
2, 12960, Note_on_c, 0, 74, 117
2, 12970, Note_on_c, 0, 74, 0
2, 13020, Lyric_t, "ma "
2, 13020, Lyric_t, ""
2, 13020, Lyric_t, "\015"
2, 13020, Note_on_c, 0, 74, 124
2, 13030, Note_on_c, 0, 74, 0
2, 13320, Lyric_t, "Ba"
2, 13320, Note_on_c, 0, 74, 108
2, 13330, Note_on_c, 0, 74, 0
2, 13380, Lyric_t, "ma "
2, 13380, Note_on_c, 0, 74, 124
2, 13390, Note_on_c, 0, 74, 0
2, 13440, Lyric_t, "Loo "
2, 13440, Lyric_t, ""
2, 13440, Lyric_t, "\015"
2, 13440, Note_on_c, 0, 74, 127
2, 13450, Note_on_c, 0, 74, 0
2, 13860, Lyric_t, "I "
2, 13860, Note_on_c, 0, 74, 124
2, 13870, Note_on_c, 0, 74, 0
2, 13920, Lyric_t, "asked "
2, 13920, Note_on_c, 0, 74, 124
2, 13930, Note_on_c, 0, 74, 0
2, 13980, Lyric_t, "my "
2, 13980, Note_on_c, 0, 74, 124
2, 13990, Note_on_c, 0, 74, 0
2, 14100, Lyric_t, "ba"
2, 14100, Note_on_c, 0, 74, 127
2, 14110, Note_on_c, 0, 74, 0
2, 14220, Lyric_t, "by "
2, 14220, Lyric_t, ""
2, 14220, Lyric_t, "\015"
2, 14220, Note_on_c, 0, 74, 117
2, 14230, Note_on_c, 0, 74, 0
2, 14280, Lyric_t, "for "
2, 14280, Note_on_c, 0, 74, 124
2, 14290, Note_on_c, 0, 74, 0
2, 14340, Lyric_t, "a "
2, 14340, Note_on_c, 0, 74, 117
2, 14350, Note_on_c, 0, 74, 0
2, 14400, Lyric_t, "kiss "
2, 14400, Lyric_t, ""
2, 14400, Lyric_t, "\015"
2, 14400, Note_on_c, 0, 74, 108
2, 14410, Note_on_c, 0, 74, 0
2, 14820, Lyric_t, "she "
2, 14820, Note_on_c, 0, 74, 117
2, 14830, Note_on_c, 0, 74, 0
2, 14880, Lyric_t, "shook "
2, 14880, Note_on_c, 0, 74, 127
2, 14890, Note_on_c, 0, 74, 0
2, 14940, Lyric_t, "her "
2, 14940, Note_on_c, 0, 74, 127
2, 14950, Note_on_c, 0, 74, 0
2, 15060, Lyric_t, "head "
2, 15060, Lyric_t, ""
2, 15060, Lyric_t, "\015"
2, 15060, Note_on_c, 0, 74, 127
2, 15070, Note_on_c, 0, 74, 0
2, 15180, Lyric_t, "like "
2, 15180, Note_on_c, 0, 74, 124
2, 15190, Note_on_c, 0, 74, 0
2, 15300, Lyric_t, "this "
2, 15300, Note_on_c, 0, 74, 124
2, 15310, Note_on_c, 0, 74, 0
2, 15420, Lyric_t, "wo! "
2, 15420, Lyric_t, ""
2, 15420, Lyric_t, "\015"
2, 15420, Note_on_c, 0, 74, 127
2, 15430, Note_on_c, 0, 74, 0
2, 15780, Lyric_t, "I "
2, 15780, Note_on_c, 0, 74, 124
2, 15790, Note_on_c, 0, 74, 0
2, 15840, Lyric_t, "asked "
2, 15840, Note_on_c, 0, 74, 127
2, 15850, Note_on_c, 0, 74, 0
2, 15900, Lyric_t, "my "
2, 15900, Note_on_c, 0, 74, 127
2, 15910, Note_on_c, 0, 74, 0
2, 16020, Lyric_t, "baby "
2, 16020, Lyric_t, ""
2, 16020, Lyric_t, "\015"
2, 16020, Note_on_c, 0, 74, 127
2, 16030, Note_on_c, 0, 74, 0
2, 16170, Lyric_t, "for "
2, 16170, Note_on_c, 0, 74, 108
2, 16180, Note_on_c, 0, 74, 0
2, 16260, Lyric_t, "a "
2, 16260, Note_on_c, 0, 74, 124
2, 16270, Note_on_c, 0, 74, 0
2, 16320, Lyric_t, "kiss "
2, 16320, Lyric_t, ""
2, 16320, Lyric_t, "\015"
2, 16320, Note_on_c, 0, 74, 124
2, 16330, Note_on_c, 0, 74, 0
2, 16740, Lyric_t, "she "
2, 16740, Note_on_c, 0, 74, 117
2, 16750, Note_on_c, 0, 74, 0
2, 16800, Lyric_t, "shook "
2, 16800, Note_on_c, 0, 74, 124
2, 16810, Note_on_c, 0, 74, 0
2, 16860, Lyric_t, "her "
2, 16860, Note_on_c, 0, 74, 124
2, 16870, Note_on_c, 0, 74, 0
2, 17000, Lyric_t, "head "
2, 17000, Lyric_t, ""
2, 17000, Lyric_t, "\015"
2, 17000, Note_on_c, 0, 74, 124
2, 17010, Note_on_c, 0, 74, 0
2, 17200, Lyric_t, "like "
2, 17200, Note_on_c, 0, 74, 124
2, 17210, Note_on_c, 0, 74, 0
2, 17280, Lyric_t, "this "
2, 17280, Lyric_t, ""
2, 17280, Lyric_t, "\015"
2, 17280, Note_on_c, 0, 74, 124
2, 17290, Note_on_c, 0, 74, 0
2, 17580, Lyric_t, "She "
2, 17580, Note_on_c, 0, 74, 117
2, 17590, Note_on_c, 0, 74, 0
2, 17670, Lyric_t, "said "
2, 17670, Note_on_c, 0, 74, 124
2, 17680, Note_on_c, 0, 74, 0
2, 17760, Lyric_t, "wo! "
2, 17760, Note_on_c, 0, 74, 127
2, 17770, Note_on_c, 0, 74, 0
2, 18720, Lyric_t, "yeah! "
2, 18720, Lyric_t, ""
2, 18720, Lyric_t, "\015"
2, 18720, Note_on_c, 0, 74, 124
2, 18730, Note_on_c, 0, 74, 0
2, 19560, Lyric_t, "Ba"
2, 19560, Note_on_c, 0, 74, 127
2, 19570, Note_on_c, 0, 74, 0
2, 19620, Lyric_t, "ma "
2, 19620, Note_on_c, 0, 74, 127
2, 19630, Note_on_c, 0, 74, 0
2, 19680, Lyric_t, "La"
2, 19680, Note_on_c, 0, 74, 127
2, 19690, Note_on_c, 0, 74, 0
2, 19740, Lyric_t, "ma "
2, 19740, Lyric_t, ""
2, 19740, Lyric_t, "\015"
2, 19740, Note_on_c, 0, 74, 127
2, 19750, Note_on_c, 0, 74, 0
2, 20040, Lyric_t, "Ba"
2, 20040, Note_on_c, 0, 74, 108
2, 20050, Note_on_c, 0, 74, 0
2, 20100, Lyric_t, "ma "
2, 20100, Note_on_c, 0, 74, 124
2, 20110, Note_on_c, 0, 74, 0
2, 20160, Lyric_t, "Loo "
2, 20160, Lyric_t, ""
2, 20160, Lyric_t, "\015"
2, 20160, Note_on_c, 0, 74, 117
2, 20170, Note_on_c, 0, 74, 0
2, 20520, Lyric_t, "Ba"
2, 20520, Note_on_c, 0, 74, 99
2, 20530, Note_on_c, 0, 74, 0
2, 20580, Lyric_t, "ma "
2, 20580, Note_on_c, 0, 74, 127
2, 20590, Note_on_c, 0, 74, 0
2, 20640, Lyric_t, "La"
2, 20640, Note_on_c, 0, 74, 124
2, 20650, Note_on_c, 0, 74, 0
2, 20700, Lyric_t, "ma "
2, 20700, Lyric_t, ""
2, 20700, Lyric_t, "\015"
2, 20700, Note_on_c, 0, 74, 127
2, 20710, Note_on_c, 0, 74, 0
2, 21000, Lyric_t, "Ba"
2, 21000, Note_on_c, 0, 74, 108
2, 21010, Note_on_c, 0, 74, 0
2, 21060, Lyric_t, "ma "
2, 21060, Note_on_c, 0, 74, 108
2, 21070, Note_on_c, 0, 74, 0
2, 21120, Lyric_t, "Loo "
2, 21120, Note_on_c, 0, 74, 108
2, 21130, Note_on_c, 0, 74, 0
2, 21300, Lyric_t, "wo! "
2, 21300, Lyric_t, ""
2, 21300, Lyric_t, "\015"
2, 21300, Note_on_c, 0, 74, 124
2, 21310, Note_on_c, 0, 74, 0
2, 21480, Lyric_t, "Ba"
2, 21480, Note_on_c, 0, 74, 127
2, 21490, Note_on_c, 0, 74, 0
2, 21540, Lyric_t, "ma "
2, 21540, Note_on_c, 0, 74, 99
2, 21550, Note_on_c, 0, 74, 0
2, 21600, Lyric_t, "La"
2, 21600, Note_on_c, 0, 74, 127
2, 21610, Note_on_c, 0, 74, 0
2, 21660, Lyric_t, "ma "
2, 21660, Lyric_t, ""
2, 21660, Lyric_t, "\015"
2, 21660, Note_on_c, 0, 74, 124
2, 21670, Note_on_c, 0, 74, 0
2, 21960, Lyric_t, "Ba"
2, 21960, Note_on_c, 0, 74, 127
2, 21970, Note_on_c, 0, 74, 0
2, 22020, Lyric_t, "ma "
2, 22020, Note_on_c, 0, 74, 117
2, 22030, Note_on_c, 0, 74, 0
2, 22080, Lyric_t, "Loo "
2, 22080, Lyric_t, ""
2, 22080, Lyric_t, "\015"
2, 22080, Note_on_c, 0, 74, 124
2, 22090, Note_on_c, 0, 74, 0
2, 22440, Lyric_t, "Ba"
2, 22440, Note_on_c, 0, 74, 108
2, 22450, Note_on_c, 0, 74, 0
2, 22500, Lyric_t, "ma "
2, 22500, Note_on_c, 0, 74, 90
2, 22510, Note_on_c, 0, 74, 0
2, 22560, Lyric_t, "La"
2, 22560, Note_on_c, 0, 74, 117
2, 22570, Note_on_c, 0, 74, 0
2, 22620, Lyric_t, "ma "
2, 22620, Lyric_t, ""
2, 22620, Lyric_t, "\015"
2, 22620, Note_on_c, 0, 74, 99
2, 22630, Note_on_c, 0, 74, 0
2, 22920, Lyric_t, "Ba"
2, 22920, Note_on_c, 0, 74, 117
2, 22930, Note_on_c, 0, 74, 0
2, 22980, Lyric_t, "ma "
2, 22980, Note_on_c, 0, 74, 108
2, 22990, Note_on_c, 0, 74, 0
2, 23040, Lyric_t, "Loo "
2, 23040, Lyric_t, ""
2, 23040, Lyric_t, "\015"
2, 23040, Note_on_c, 0, 74, 99
2, 23050, Note_on_c, 0, 74, 0
2, 23400, Lyric_t, "Now "
2, 23400, Note_on_c, 0, 74, 108
2, 23410, Note_on_c, 0, 74, 0
2, 23460, Lyric_t, "I "
2, 23460, Note_on_c, 0, 74, 90
2, 23470, Note_on_c, 0, 74, 0
2, 23520, Lyric_t, "dig "
2, 23520, Note_on_c, 0, 74, 124
2, 23530, Note_on_c, 0, 74, 0
2, 23580, Lyric_t, "that "
2, 23580, Note_on_c, 0, 74, 124
2, 23590, Note_on_c, 0, 74, 0
2, 23700, Lyric_t, "style "
2, 23700, Lyric_t, ""
2, 23700, Lyric_t, "\015"
2, 23700, Note_on_c, 0, 74, 124
2, 23710, Note_on_c, 0, 74, 0
2, 23880, Lyric_t, "it's "
2, 23880, Note_on_c, 0, 74, 117
2, 23890, Note_on_c, 0, 74, 0
2, 23940, Lyric_t, "driv"
2, 23940, Note_on_c, 0, 74, 117
2, 23950, Note_on_c, 0, 74, 0
2, 24000, Lyric_t, "in' "
2, 24000, Note_on_c, 0, 74, 127
2, 24010, Note_on_c, 0, 74, 0
2, 24120, Lyric_t, "me "
2, 24120, Note_on_c, 0, 74, 127
2, 24130, Note_on_c, 0, 74, 0
2, 24180, Lyric_t, "wild "
2, 24180, Lyric_t, ""
2, 24180, Lyric_t, "\015"
2, 24180, Note_on_c, 0, 74, 124
2, 24190, Note_on_c, 0, 74, 0
2, 24300, Lyric_t, "with "
2, 24300, Note_on_c, 0, 74, 127
2, 24310, Note_on_c, 0, 74, 0
2, 24360, Lyric_t, "Ba"
2, 24360, Note_on_c, 0, 74, 90
2, 24370, Note_on_c, 0, 74, 0
2, 24420, Lyric_t, "ma "
2, 24420, Note_on_c, 0, 74, 127
2, 24430, Note_on_c, 0, 74, 0
2, 24480, Lyric_t, "La"
2, 24480, Note_on_c, 0, 74, 117
2, 24490, Note_on_c, 0, 74, 0
2, 24540, Lyric_t, "ma "
2, 24540, Lyric_t, ""
2, 24540, Lyric_t, "\015"
2, 24540, Note_on_c, 0, 74, 124
2, 24550, Note_on_c, 0, 74, 0
2, 24840, Lyric_t, "Ba"
2, 24840, Note_on_c, 0, 74, 108
2, 24850, Note_on_c, 0, 74, 0
2, 24900, Lyric_t, "ma "
2, 24900, Note_on_c, 0, 74, 124
2, 24910, Note_on_c, 0, 74, 0
2, 24960, Lyric_t, "Loo "
2, 24960, Note_on_c, 0, 74, 127
2, 24970, Note_on_c, 0, 74, 0
2, 25140, Lyric_t, "wo! "
2, 25140, Lyric_t, ""
2, 25140, Lyric_t, "\015"
2, 25140, Note_on_c, 0, 74, 127
2, 25140, Program_c, 0, 3
2, 25150, Note_on_c, 0, 74, 0
2, 30480, Program_c, 0, 0
2, 31020, Lyric_t, "I "
2, 31020, Note_on_c, 0, 74, 127
2, 31030, Note_on_c, 0, 74, 0
2, 31080, Lyric_t, "asked "
2, 31080, Note_on_c, 0, 74, 127
2, 31090, Note_on_c, 0, 74, 0
2, 31140, Lyric_t, "my "
2, 31140, Note_on_c, 0, 74, 127
2, 31150, Note_on_c, 0, 74, 0
2, 31260, Lyric_t, "ba"
2, 31260, Note_on_c, 0, 74, 127
2, 31270, Note_on_c, 0, 74, 0
2, 31380, Lyric_t, "by "
2, 31380, Lyric_t, ""
2, 31380, Lyric_t, "\015"
2, 31380, Note_on_c, 0, 74, 127
2, 31390, Note_on_c, 0, 74, 0
2, 31500, Lyric_t, "for "
2, 31500, Note_on_c, 0, 74, 127
2, 31510, Note_on_c, 0, 74, 0
2, 31620, Lyric_t, "a "
2, 31620, Note_on_c, 0, 74, 124
2, 31630, Note_on_c, 0, 74, 0
2, 31680, Lyric_t, "kiss "
2, 31680, Lyric_t, ""
2, 31680, Lyric_t, "\015"
2, 31680, Note_on_c, 0, 74, 124
2, 31690, Note_on_c, 0, 74, 0
2, 32100, Lyric_t, "she "
2, 32100, Note_on_c, 0, 74, 127
2, 32110, Note_on_c, 0, 74, 0
2, 32160, Lyric_t, "shook "
2, 32160, Note_on_c, 0, 74, 127
2, 32170, Note_on_c, 0, 74, 0
2, 32220, Lyric_t, "her "
2, 32220, Note_on_c, 0, 74, 127
2, 32230, Note_on_c, 0, 74, 0
2, 32340, Lyric_t, "head "
2, 32340, Lyric_t, ""
2, 32340, Lyric_t, "\015"
2, 32340, Note_on_c, 0, 74, 127
2, 32350, Note_on_c, 0, 74, 0
2, 32550, Lyric_t, "like "
2, 32550, Note_on_c, 0, 74, 117
2, 32560, Note_on_c, 0, 74, 0
2, 32640, Lyric_t, "this "
2, 32640, Note_on_c, 0, 74, 127
2, 32650, Note_on_c, 0, 74, 0
2, 32820, Lyric_t, "wo! "
2, 32820, Lyric_t, ""
2, 32820, Lyric_t, "\015"
2, 32820, Note_on_c, 0, 74, 127
2, 32830, Note_on_c, 0, 74, 0
2, 33060, Lyric_t, "I "
2, 33060, Note_on_c, 0, 74, 127
2, 33070, Note_on_c, 0, 74, 0
2, 33120, Lyric_t, "asked "
2, 33120, Note_on_c, 0, 74, 127
2, 33130, Note_on_c, 0, 74, 0
2, 33210, Lyric_t, "my "
2, 33210, Note_on_c, 0, 74, 127
2, 33220, Note_on_c, 0, 74, 0
2, 33300, Lyric_t, "baby "
2, 33300, Lyric_t, ""
2, 33300, Lyric_t, "\015"
2, 33300, Note_on_c, 0, 74, 127
2, 33310, Note_on_c, 0, 74, 0
2, 33450, Lyric_t, "for "
2, 33450, Note_on_c, 0, 74, 124
2, 33460, Note_on_c, 0, 74, 0
2, 33540, Lyric_t, "a "
2, 33540, Note_on_c, 0, 74, 117
2, 33550, Note_on_c, 0, 74, 0
2, 33600, Lyric_t, "kiss "
2, 33600, Lyric_t, ""
2, 33600, Lyric_t, "\015"
2, 33600, Note_on_c, 0, 74, 127
2, 33610, Note_on_c, 0, 74, 0
2, 34020, Lyric_t, "she "
2, 34020, Note_on_c, 0, 74, 117
2, 34030, Note_on_c, 0, 74, 0
2, 34080, Lyric_t, "shook "
2, 34080, Note_on_c, 0, 74, 117
2, 34090, Note_on_c, 0, 74, 0
2, 34160, Lyric_t, "her "
2, 34160, Note_on_c, 0, 74, 117
2, 34170, Note_on_c, 0, 74, 0
2, 34320, Lyric_t, "head "
2, 34320, Lyric_t, ""
2, 34320, Lyric_t, "\015"
2, 34320, Note_on_c, 0, 74, 117
2, 34330, Note_on_c, 0, 74, 0
2, 34480, Lyric_t, "like "
2, 34480, Note_on_c, 0, 74, 108
2, 34490, Note_on_c, 0, 74, 0
2, 34560, Lyric_t, "this "
2, 34560, Lyric_t, ""
2, 34560, Lyric_t, "\015"
2, 34560, Note_on_c, 0, 74, 117
2, 34570, Note_on_c, 0, 74, 0
2, 34869, Lyric_t, "She "
2, 34869, Note_on_c, 0, 74, 127
2, 34879, Note_on_c, 0, 74, 0
2, 34954, Lyric_t, "said "
2, 34954, Note_on_c, 0, 74, 124
2, 34964, Note_on_c, 0, 74, 0
2, 35040, Lyric_t, "wo! "
2, 35040, Note_on_c, 0, 74, 127
2, 35050, Note_on_c, 0, 74, 0
2, 36240, Lyric_t, "yeah! "
2, 36240, Lyric_t, ""
2, 36240, Lyric_t, "\015"
2, 36240, Note_on_c, 0, 70, 127
2, 36250, Note_on_c, 0, 70, 0
2, 36840, Lyric_t, "Ba"
2, 36840, Note_on_c, 0, 74, 124
2, 36850, Note_on_c, 0, 74, 0
2, 36900, Lyric_t, "ma "
2, 36900, Note_on_c, 0, 74, 124
2, 36910, Note_on_c, 0, 74, 0
2, 36960, Lyric_t, "La"
2, 36960, Note_on_c, 0, 74, 127
2, 36970, Note_on_c, 0, 74, 0
2, 37020, Lyric_t, "ma "
2, 37020, Lyric_t, ""
2, 37020, Lyric_t, "\015"
2, 37020, Note_on_c, 0, 74, 127
2, 37030, Note_on_c, 0, 74, 0
2, 37320, Lyric_t, "Ba"
2, 37320, Note_on_c, 0, 74, 108
2, 37330, Note_on_c, 0, 74, 0
2, 37380, Lyric_t, "ma "
2, 37380, Note_on_c, 0, 74, 124
2, 37390, Note_on_c, 0, 74, 0
2, 37440, Lyric_t, "Loo "
2, 37440, Lyric_t, ""
2, 37440, Lyric_t, "\015"
2, 37440, Note_on_c, 0, 74, 117
2, 37450, Note_on_c, 0, 74, 0
2, 37800, Lyric_t, "Ba"
2, 37800, Note_on_c, 0, 74, 99
2, 37810, Note_on_c, 0, 74, 0
2, 37860, Lyric_t, "ma "
2, 37860, Note_on_c, 0, 74, 127
2, 37870, Note_on_c, 0, 74, 0
2, 37920, Lyric_t, "La"
2, 37920, Note_on_c, 0, 74, 124
2, 37930, Note_on_c, 0, 74, 0
2, 37980, Lyric_t, "ma "
2, 37980, Lyric_t, ""
2, 37980, Lyric_t, "\015"
2, 37980, Note_on_c, 0, 74, 127
2, 37990, Note_on_c, 0, 74, 0
2, 38280, Lyric_t, "Ba"
2, 38280, Note_on_c, 0, 74, 108
2, 38290, Note_on_c, 0, 74, 0
2, 38340, Lyric_t, "ma "
2, 38340, Note_on_c, 0, 74, 108
2, 38350, Note_on_c, 0, 74, 0
2, 38400, Lyric_t, "Loo "
2, 38400, Note_on_c, 0, 74, 108
2, 38410, Note_on_c, 0, 74, 0
2, 38580, Lyric_t, "wo! "
2, 38580, Lyric_t, ""
2, 38580, Lyric_t, "\015"
2, 38580, Note_on_c, 0, 74, 124
2, 38590, Note_on_c, 0, 74, 0
2, 38760, Lyric_t, "Ba"
2, 38760, Note_on_c, 0, 74, 127
2, 38770, Note_on_c, 0, 74, 0
2, 38820, Lyric_t, "ma "
2, 38820, Note_on_c, 0, 74, 99
2, 38830, Note_on_c, 0, 74, 0
2, 38880, Lyric_t, "La"
2, 38880, Note_on_c, 0, 74, 127
2, 38890, Note_on_c, 0, 74, 0
2, 38940, Lyric_t, "ma "
2, 38940, Lyric_t, ""
2, 38940, Lyric_t, "\015"
2, 38940, Note_on_c, 0, 74, 124
2, 38950, Note_on_c, 0, 74, 0
2, 39240, Lyric_t, "Ba"
2, 39240, Note_on_c, 0, 74, 127
2, 39250, Note_on_c, 0, 74, 0
2, 39300, Lyric_t, "ma "
2, 39300, Note_on_c, 0, 74, 117
2, 39310, Note_on_c, 0, 74, 0
2, 39360, Lyric_t, "Loo "
2, 39360, Lyric_t, ""
2, 39360, Lyric_t, "\015"
2, 39360, Note_on_c, 0, 74, 124
2, 39370, Note_on_c, 0, 74, 0
2, 39720, Lyric_t, "Ba"
2, 39720, Note_on_c, 0, 74, 108
2, 39730, Note_on_c, 0, 74, 0
2, 39780, Lyric_t, "ma "
2, 39780, Note_on_c, 0, 74, 90
2, 39790, Note_on_c, 0, 74, 0
2, 39840, Lyric_t, "La"
2, 39840, Note_on_c, 0, 74, 117
2, 39850, Note_on_c, 0, 74, 0
2, 39900, Lyric_t, "ma "
2, 39900, Lyric_t, ""
2, 39900, Lyric_t, "\015"
2, 39900, Note_on_c, 0, 74, 99
2, 39910, Note_on_c, 0, 74, 0
2, 40200, Lyric_t, "Ba"
2, 40200, Note_on_c, 0, 74, 117
2, 40210, Note_on_c, 0, 74, 0
2, 40260, Lyric_t, "ma "
2, 40260, Note_on_c, 0, 74, 108
2, 40270, Note_on_c, 0, 74, 0
2, 40320, Lyric_t, "Loo "
2, 40320, Lyric_t, ""
2, 40320, Lyric_t, "\015"
2, 40320, Note_on_c, 0, 74, 99
2, 40330, Note_on_c, 0, 74, 0
2, 40680, Lyric_t, "Now "
2, 40680, Note_on_c, 0, 74, 124
2, 40690, Note_on_c, 0, 74, 0
2, 40740, Lyric_t, "I "
2, 40740, Note_on_c, 0, 74, 124
2, 40750, Note_on_c, 0, 74, 0
2, 40800, Lyric_t, "dig "
2, 40800, Note_on_c, 0, 74, 124
2, 40810, Note_on_c, 0, 74, 0
2, 40860, Lyric_t, "that "
2, 40860, Note_on_c, 0, 74, 127
2, 40870, Note_on_c, 0, 74, 0
2, 40980, Lyric_t, "style "
2, 40980, Lyric_t, ""
2, 40980, Lyric_t, "\015"
2, 40980, Note_on_c, 0, 74, 124
2, 40990, Note_on_c, 0, 74, 0
2, 41160, Lyric_t, "now "
2, 41160, Note_on_c, 0, 74, 124
2, 41170, Note_on_c, 0, 74, 0
2, 41220, Lyric_t, "I'm "
2, 41220, Note_on_c, 0, 74, 99
2, 41230, Note_on_c, 0, 74, 0
2, 41280, Lyric_t, "driv"
2, 41280, Note_on_c, 0, 74, 127
2, 41290, Note_on_c, 0, 74, 0
2, 41340, Lyric_t, "in' "
2, 41340, Lyric_t, ""
2, 41340, Lyric_t, "\015"
2, 41340, Note_on_c, 0, 74, 127
2, 41350, Note_on_c, 0, 74, 0
2, 41400, Lyric_t, "her "
2, 41400, Note_on_c, 0, 74, 127
2, 41410, Note_on_c, 0, 74, 0
2, 41460, Lyric_t, "wild "
2, 41460, Lyric_t, ""
2, 41460, Lyric_t, "\015"
2, 41460, Note_on_c, 0, 74, 127
2, 41470, Note_on_c, 0, 74, 0
2, 41580, Lyric_t, "with "
2, 41580, Note_on_c, 0, 74, 127
2, 41590, Note_on_c, 0, 74, 0
2, 41640, Lyric_t, "Ba"
2, 41640, Note_on_c, 0, 74, 127
2, 41650, Note_on_c, 0, 74, 0
2, 41700, Lyric_t, "ma "
2, 41700, Note_on_c, 0, 74, 124
2, 41710, Note_on_c, 0, 74, 0
2, 41760, Lyric_t, "La"
2, 41760, Note_on_c, 0, 74, 124
2, 41770, Note_on_c, 0, 74, 0
2, 41820, Lyric_t, "ma "
2, 41820, Lyric_t, ""
2, 41820, Lyric_t, "\015"
2, 41820, Note_on_c, 0, 74, 127
2, 41830, Note_on_c, 0, 74, 0
2, 42120, Lyric_t, "Ba"
2, 42120, Note_on_c, 0, 74, 127
2, 42130, Note_on_c, 0, 74, 0
2, 42180, Lyric_t, "ma "
2, 42180, Note_on_c, 0, 74, 127
2, 42190, Note_on_c, 0, 74, 0
2, 42240, Lyric_t, "Loo "
2, 42240, Lyric_t, ""
2, 42240, Lyric_t, "\015"
2, 42240, Lyric_t, ""
2, 42240, Lyric_t, "\015"
2, 42240, Note_on_c, 0, 74, 127
2, 42240, Program_c, 0, 3
2, 42250, Note_on_c, 0, 74, 0
2, 42250, End_track
3, 0, Start_track
3, 0, MIDI_port, 0
3, 0, Title_t, ">>BASS"
3, 0, Program_c, 1, 33
3, 0, Control_c, 1, 7, 100
3, 480, Note_on_c, 1, 36, 127
3, 599, Note_on_c, 1, 36, 0
3, 600, Note_on_c, 1, 40, 95
3, 693, Note_on_c, 1, 40, 0
3, 720, Note_on_c, 1, 43, 88
3, 831, Note_on_c, 1, 43, 0
3, 840, Note_on_c, 1, 45, 110
3, 960, Note_on_c, 1, 34, 119
3, 973, Note_on_c, 1, 45, 0
3, 1066, Note_on_c, 1, 34, 0
3, 1080, Note_on_c, 1, 38, 88
3, 1200, Note_on_c, 1, 41, 102
3, 1204, Note_on_c, 1, 38, 0
3, 1310, Note_on_c, 1, 41, 0
3, 1320, Note_on_c, 1, 43, 102
3, 1425, Note_on_c, 1, 43, 0
3, 1440, Note_on_c, 1, 29, 102
3, 1553, Note_on_c, 1, 29, 0
3, 1560, Note_on_c, 1, 33, 95
3, 1680, Note_on_c, 1, 36, 119
3, 1681, Note_on_c, 1, 33, 0
3, 1793, Note_on_c, 1, 36, 0
3, 1800, Note_on_c, 1, 38, 110
3, 1894, Note_on_c, 1, 38, 0
3, 1920, Note_on_c, 1, 29, 119
3, 1976, Note_on_c, 1, 29, 0
3, 2400, Note_on_c, 1, 29, 127
3, 2499, Note_on_c, 1, 29, 0
3, 2520, Note_on_c, 1, 33, 110
3, 2554, Note_on_c, 1, 33, 0
3, 2580, Note_on_c, 1, 33, 110
3, 2638, Note_on_c, 1, 33, 0
3, 2640, Note_on_c, 1, 36, 119
3, 2751, Note_on_c, 1, 36, 0
3, 2760, Note_on_c, 1, 38, 102
3, 2869, Note_on_c, 1, 38, 0
3, 2880, Note_on_c, 1, 29, 102
3, 2974, Note_on_c, 1, 29, 0
3, 3000, Note_on_c, 1, 33, 119
3, 3033, Note_on_c, 1, 33, 0
3, 3060, Note_on_c, 1, 33, 119
3, 3116, Note_on_c, 1, 33, 0
3, 3120, Note_on_c, 1, 36, 119
3, 3228, Note_on_c, 1, 36, 0
3, 3240, Note_on_c, 1, 38, 102
3, 3345, Note_on_c, 1, 38, 0
3, 3360, Note_on_c, 1, 29, 102
3, 3458, Note_on_c, 1, 29, 0
3, 3480, Note_on_c, 1, 33, 110
3, 3509, Note_on_c, 1, 33, 0
3, 3540, Note_on_c, 1, 33, 119
3, 3595, Note_on_c, 1, 33, 0
3, 3600, Note_on_c, 1, 36, 119
3, 3707, Note_on_c, 1, 36, 0
3, 3720, Note_on_c, 1, 38, 102
3, 3827, Note_on_c, 1, 38, 0
3, 3840, Note_on_c, 1, 29, 110
3, 3941, Note_on_c, 1, 29, 0
3, 3960, Note_on_c, 1, 33, 110
3, 3993, Note_on_c, 1, 33, 0
3, 4020, Note_on_c, 1, 33, 110
3, 4073, Note_on_c, 1, 33, 0
3, 4080, Note_on_c, 1, 36, 119
3, 4184, Note_on_c, 1, 36, 0
3, 4200, Note_on_c, 1, 38, 102
3, 4312, Note_on_c, 1, 38, 0
3, 4320, Note_on_c, 1, 34, 127
3, 4434, Note_on_c, 1, 34, 0
3, 4440, Note_on_c, 1, 38, 110
3, 4471, Note_on_c, 1, 38, 0
3, 4500, Note_on_c, 1, 38, 102
3, 4550, Note_on_c, 1, 38, 0
3, 4560, Note_on_c, 1, 41, 119
3, 4662, Note_on_c, 1, 41, 0
3, 4680, Note_on_c, 1, 43, 95
3, 4790, Note_on_c, 1, 43, 0
3, 4800, Note_on_c, 1, 34, 127
3, 4896, Note_on_c, 1, 34, 0
3, 4920, Note_on_c, 1, 38, 102
3, 4953, Note_on_c, 1, 38, 0
3, 4980, Note_on_c, 1, 38, 110
3, 5030, Note_on_c, 1, 38, 0
3, 5040, Note_on_c, 1, 41, 119
3, 5148, Note_on_c, 1, 41, 0
3, 5160, Note_on_c, 1, 43, 110
3, 5254, Note_on_c, 1, 43, 0
3, 5280, Note_on_c, 1, 29, 95
3, 5376, Note_on_c, 1, 29, 0
3, 5400, Note_on_c, 1, 33, 110
3, 5433, Note_on_c, 1, 33, 0
3, 5460, Note_on_c, 1, 33, 102
3, 5513, Note_on_c, 1, 33, 0
3, 5520, Note_on_c, 1, 36, 127
3, 5627, Note_on_c, 1, 36, 0
3, 5640, Note_on_c, 1, 38, 102
3, 5743, Note_on_c, 1, 38, 0
3, 5760, Note_on_c, 1, 29, 110
3, 5858, Note_on_c, 1, 29, 0
3, 5880, Note_on_c, 1, 33, 110
3, 5913, Note_on_c, 1, 33, 0
3, 5940, Note_on_c, 1, 33, 102
3, 5992, Note_on_c, 1, 33, 0
3, 6000, Note_on_c, 1, 36, 119
3, 6101, Note_on_c, 1, 36, 0
3, 6120, Note_on_c, 1, 38, 88
3, 6211, Note_on_c, 1, 38, 0
3, 6240, Note_on_c, 1, 36, 119
3, 6344, Note_on_c, 1, 36, 0
3, 6360, Note_on_c, 1, 40, 102
3, 6389, Note_on_c, 1, 40, 0
3, 6420, Note_on_c, 1, 40, 88
3, 6473, Note_on_c, 1, 40, 0
3, 6480, Note_on_c, 1, 43, 119
3, 6592, Note_on_c, 1, 43, 0
3, 6600, Note_on_c, 1, 45, 119
3, 6666, Note_on_c, 1, 45, 0
3, 6720, Note_on_c, 1, 34, 127
3, 6772, Note_on_c, 1, 34, 0
3, 7200, Note_on_c, 1, 29, 119
3, 7306, Note_on_c, 1, 29, 0
3, 7320, Note_on_c, 1, 33, 88
3, 7346, Note_on_c, 1, 33, 0
3, 7380, Note_on_c, 1, 33, 110
3, 7422, Note_on_c, 1, 33, 0
3, 7440, Note_on_c, 1, 36, 119
3, 7546, Note_on_c, 1, 36, 0
3, 7560, Note_on_c, 1, 38, 102
3, 7658, Note_on_c, 1, 38, 0
3, 7680, Note_on_c, 1, 29, 119
3, 7787, Note_on_c, 1, 29, 0
3, 7800, Note_on_c, 1, 33, 110
3, 7829, Note_on_c, 1, 33, 0
3, 7860, Note_on_c, 1, 33, 119
3, 7910, Note_on_c, 1, 33, 0
3, 7920, Note_on_c, 1, 36, 127
3, 8030, Note_on_c, 1, 36, 0
3, 8040, Note_on_c, 1, 38, 127
3, 8105, Note_on_c, 1, 38, 0
3, 8160, Note_on_c, 1, 29, 127
3, 8259, Note_on_c, 1, 29, 0
3, 8280, Note_on_c, 1, 33, 110
3, 8314, Note_on_c, 1, 33, 0
3, 8340, Note_on_c, 1, 33, 110
3, 8398, Note_on_c, 1, 33, 0
3, 8400, Note_on_c, 1, 36, 119
3, 8511, Note_on_c, 1, 36, 0
3, 8520, Note_on_c, 1, 38, 102
3, 8629, Note_on_c, 1, 38, 0
3, 8640, Note_on_c, 1, 29, 102
3, 8734, Note_on_c, 1, 29, 0
3, 8760, Note_on_c, 1, 33, 119
3, 8793, Note_on_c, 1, 33, 0
3, 8820, Note_on_c, 1, 33, 119
3, 8876, Note_on_c, 1, 33, 0
3, 8880, Note_on_c, 1, 36, 119
3, 8988, Note_on_c, 1, 36, 0
3, 9000, Note_on_c, 1, 38, 102
3, 9105, Note_on_c, 1, 38, 0
3, 9120, Note_on_c, 1, 29, 102
3, 9218, Note_on_c, 1, 29, 0
3, 9240, Note_on_c, 1, 33, 110
3, 9269, Note_on_c, 1, 33, 0
3, 9300, Note_on_c, 1, 33, 119
3, 9355, Note_on_c, 1, 33, 0
3, 9360, Note_on_c, 1, 36, 119
3, 9467, Note_on_c, 1, 36, 0
3, 9480, Note_on_c, 1, 38, 102
3, 9587, Note_on_c, 1, 38, 0
3, 9600, Note_on_c, 1, 29, 110
3, 9701, Note_on_c, 1, 29, 0
3, 9720, Note_on_c, 1, 33, 110
3, 9753, Note_on_c, 1, 33, 0
3, 9780, Note_on_c, 1, 33, 110
3, 9833, Note_on_c, 1, 33, 0
3, 9840, Note_on_c, 1, 36, 119
3, 9944, Note_on_c, 1, 36, 0
3, 9960, Note_on_c, 1, 38, 102
3, 10072, Note_on_c, 1, 38, 0
3, 10080, Note_on_c, 1, 34, 127
3, 10194, Note_on_c, 1, 34, 0
3, 10200, Note_on_c, 1, 38, 110
3, 10231, Note_on_c, 1, 38, 0
3, 10260, Note_on_c, 1, 38, 102
3, 10310, Note_on_c, 1, 38, 0
3, 10320, Note_on_c, 1, 41, 119
3, 10422, Note_on_c, 1, 41, 0
3, 10440, Note_on_c, 1, 43, 95
3, 10550, Note_on_c, 1, 43, 0
3, 10560, Note_on_c, 1, 34, 127
3, 10656, Note_on_c, 1, 34, 0
3, 10680, Note_on_c, 1, 38, 102
3, 10713, Note_on_c, 1, 38, 0
3, 10740, Note_on_c, 1, 38, 110
3, 10790, Note_on_c, 1, 38, 0
3, 10800, Note_on_c, 1, 41, 119
3, 10908, Note_on_c, 1, 41, 0
3, 10920, Note_on_c, 1, 43, 110
3, 11014, Note_on_c, 1, 43, 0
3, 11040, Note_on_c, 1, 29, 95
3, 11136, Note_on_c, 1, 29, 0
3, 11160, Note_on_c, 1, 33, 110
3, 11193, Note_on_c, 1, 33, 0
3, 11220, Note_on_c, 1, 33, 102
3, 11273, Note_on_c, 1, 33, 0
3, 11280, Note_on_c, 1, 36, 127
3, 11387, Note_on_c, 1, 36, 0
3, 11400, Note_on_c, 1, 38, 102
3, 11503, Note_on_c, 1, 38, 0
3, 11520, Note_on_c, 1, 29, 110
3, 11618, Note_on_c, 1, 29, 0
3, 11640, Note_on_c, 1, 33, 110
3, 11673, Note_on_c, 1, 33, 0
3, 11700, Note_on_c, 1, 33, 102
3, 11752, Note_on_c, 1, 33, 0
3, 11760, Note_on_c, 1, 36, 119
3, 11861, Note_on_c, 1, 36, 0
3, 11880, Note_on_c, 1, 38, 88
3, 11971, Note_on_c, 1, 38, 0
3, 12000, Note_on_c, 1, 36, 119
3, 12104, Note_on_c, 1, 36, 0
3, 12120, Note_on_c, 1, 40, 102
3, 12149, Note_on_c, 1, 40, 0
3, 12180, Note_on_c, 1, 40, 88
3, 12233, Note_on_c, 1, 40, 0
3, 12240, Note_on_c, 1, 43, 119
3, 12352, Note_on_c, 1, 43, 0
3, 12360, Note_on_c, 1, 45, 119
3, 12426, Note_on_c, 1, 45, 0
3, 12480, Note_on_c, 1, 34, 127
3, 12580, Note_on_c, 1, 34, 0
3, 12600, Note_on_c, 1, 38, 119
3, 12631, Note_on_c, 1, 38, 0
3, 12660, Note_on_c, 1, 38, 127
3, 12706, Note_on_c, 1, 38, 0
3, 12720, Note_on_c, 1, 41, 127
3, 12832, Note_on_c, 1, 41, 0
3, 12840, Note_on_c, 1, 43, 127
3, 12917, Note_on_c, 1, 43, 0
3, 12960, Note_on_c, 1, 29, 119
3, 13066, Note_on_c, 1, 29, 0
3, 13080, Note_on_c, 1, 33, 88
3, 13106, Note_on_c, 1, 33, 0
3, 13140, Note_on_c, 1, 33, 110
3, 13182, Note_on_c, 1, 33, 0
3, 13200, Note_on_c, 1, 36, 119
3, 13306, Note_on_c, 1, 36, 0
3, 13320, Note_on_c, 1, 38, 102
3, 13418, Note_on_c, 1, 38, 0
3, 13440, Note_on_c, 1, 29, 119
3, 13547, Note_on_c, 1, 29, 0
3, 13560, Note_on_c, 1, 33, 110
3, 13589, Note_on_c, 1, 33, 0
3, 13620, Note_on_c, 1, 33, 119
3, 13670, Note_on_c, 1, 33, 0
3, 13680, Note_on_c, 1, 36, 127
3, 13790, Note_on_c, 1, 36, 0
3, 13800, Note_on_c, 1, 38, 127
3, 13865, Note_on_c, 1, 38, 0
3, 13920, Note_on_c, 1, 29, 127
3, 14019, Note_on_c, 1, 29, 0
3, 14040, Note_on_c, 1, 33, 110
3, 14074, Note_on_c, 1, 33, 0
3, 14100, Note_on_c, 1, 33, 110
3, 14158, Note_on_c, 1, 33, 0
3, 14160, Note_on_c, 1, 36, 119
3, 14271, Note_on_c, 1, 36, 0
3, 14280, Note_on_c, 1, 38, 102
3, 14389, Note_on_c, 1, 38, 0
3, 14400, Note_on_c, 1, 29, 102
3, 14494, Note_on_c, 1, 29, 0
3, 14520, Note_on_c, 1, 33, 119
3, 14553, Note_on_c, 1, 33, 0
3, 14580, Note_on_c, 1, 33, 119
3, 14636, Note_on_c, 1, 33, 0
3, 14640, Note_on_c, 1, 36, 119
3, 14748, Note_on_c, 1, 36, 0
3, 14760, Note_on_c, 1, 38, 102
3, 14865, Note_on_c, 1, 38, 0
3, 14880, Note_on_c, 1, 29, 102
3, 14978, Note_on_c, 1, 29, 0
3, 15000, Note_on_c, 1, 33, 110
3, 15029, Note_on_c, 1, 33, 0
3, 15060, Note_on_c, 1, 33, 119
3, 15115, Note_on_c, 1, 33, 0
3, 15120, Note_on_c, 1, 36, 119
3, 15227, Note_on_c, 1, 36, 0
3, 15240, Note_on_c, 1, 38, 102
3, 15347, Note_on_c, 1, 38, 0
3, 15360, Note_on_c, 1, 29, 110
3, 15461, Note_on_c, 1, 29, 0
3, 15480, Note_on_c, 1, 33, 110
3, 15513, Note_on_c, 1, 33, 0
3, 15540, Note_on_c, 1, 33, 110
3, 15593, Note_on_c, 1, 33, 0
3, 15600, Note_on_c, 1, 36, 119
3, 15704, Note_on_c, 1, 36, 0
3, 15720, Note_on_c, 1, 38, 102
3, 15832, Note_on_c, 1, 38, 0
3, 15840, Note_on_c, 1, 34, 127
3, 15954, Note_on_c, 1, 34, 0
3, 15960, Note_on_c, 1, 38, 110
3, 15991, Note_on_c, 1, 38, 0
3, 16020, Note_on_c, 1, 38, 102
3, 16070, Note_on_c, 1, 38, 0
3, 16080, Note_on_c, 1, 41, 119
3, 16182, Note_on_c, 1, 41, 0
3, 16200, Note_on_c, 1, 43, 95
3, 16310, Note_on_c, 1, 43, 0
3, 16320, Note_on_c, 1, 34, 127
3, 16416, Note_on_c, 1, 34, 0
3, 16440, Note_on_c, 1, 38, 102
3, 16473, Note_on_c, 1, 38, 0
3, 16500, Note_on_c, 1, 38, 110
3, 16550, Note_on_c, 1, 38, 0
3, 16560, Note_on_c, 1, 41, 119
3, 16668, Note_on_c, 1, 41, 0
3, 16680, Note_on_c, 1, 43, 110
3, 16774, Note_on_c, 1, 43, 0
3, 16800, Note_on_c, 1, 29, 95
3, 16896, Note_on_c, 1, 29, 0
3, 16920, Note_on_c, 1, 33, 110
3, 16953, Note_on_c, 1, 33, 0
3, 16980, Note_on_c, 1, 33, 102
3, 17033, Note_on_c, 1, 33, 0
3, 17040, Note_on_c, 1, 36, 127
3, 17147, Note_on_c, 1, 36, 0
3, 17160, Note_on_c, 1, 38, 102
3, 17263, Note_on_c, 1, 38, 0
3, 17280, Note_on_c, 1, 29, 110
3, 17378, Note_on_c, 1, 29, 0
3, 17400, Note_on_c, 1, 33, 110
3, 17433, Note_on_c, 1, 33, 0
3, 17460, Note_on_c, 1, 33, 102
3, 17512, Note_on_c, 1, 33, 0
3, 17520, Note_on_c, 1, 36, 119
3, 17621, Note_on_c, 1, 36, 0
3, 17640, Note_on_c, 1, 38, 88
3, 17731, Note_on_c, 1, 38, 0
3, 17760, Note_on_c, 1, 36, 119
3, 17864, Note_on_c, 1, 36, 0
3, 17880, Note_on_c, 1, 40, 102
3, 17909, Note_on_c, 1, 40, 0
3, 17940, Note_on_c, 1, 40, 88
3, 17993, Note_on_c, 1, 40, 0
3, 18000, Note_on_c, 1, 43, 119
3, 18112, Note_on_c, 1, 43, 0
3, 18120, Note_on_c, 1, 45, 119
3, 18186, Note_on_c, 1, 45, 0
3, 18240, Note_on_c, 1, 34, 127
3, 18340, Note_on_c, 1, 34, 0
3, 18360, Note_on_c, 1, 38, 119
3, 18391, Note_on_c, 1, 38, 0
3, 18420, Note_on_c, 1, 38, 127
3, 18466, Note_on_c, 1, 38, 0
3, 18480, Note_on_c, 1, 41, 127
3, 18592, Note_on_c, 1, 41, 0
3, 18600, Note_on_c, 1, 43, 127
3, 18677, Note_on_c, 1, 43, 0
3, 18720, Note_on_c, 1, 29, 119
3, 18826, Note_on_c, 1, 29, 0
3, 18840, Note_on_c, 1, 33, 88
3, 18866, Note_on_c, 1, 33, 0
3, 18900, Note_on_c, 1, 33, 110
3, 18942, Note_on_c, 1, 33, 0
3, 18960, Note_on_c, 1, 36, 119
3, 19066, Note_on_c, 1, 36, 0
3, 19080, Note_on_c, 1, 38, 102
3, 19178, Note_on_c, 1, 38, 0
3, 19200, Note_on_c, 1, 29, 119
3, 19307, Note_on_c, 1, 29, 0
3, 19320, Note_on_c, 1, 33, 110
3, 19349, Note_on_c, 1, 33, 0
3, 19380, Note_on_c, 1, 33, 119
3, 19430, Note_on_c, 1, 33, 0
3, 19440, Note_on_c, 1, 36, 127
3, 19550, Note_on_c, 1, 36, 0
3, 19560, Note_on_c, 1, 38, 127
3, 19625, Note_on_c, 1, 38, 0
3, 19680, Note_on_c, 1, 29, 127
3, 19779, Note_on_c, 1, 29, 0
3, 19800, Note_on_c, 1, 33, 110
3, 19834, Note_on_c, 1, 33, 0
3, 19860, Note_on_c, 1, 33, 110
3, 19918, Note_on_c, 1, 33, 0
3, 19920, Note_on_c, 1, 36, 119
3, 20031, Note_on_c, 1, 36, 0
3, 20040, Note_on_c, 1, 38, 102
3, 20149, Note_on_c, 1, 38, 0
3, 20160, Note_on_c, 1, 29, 102
3, 20254, Note_on_c, 1, 29, 0
3, 20280, Note_on_c, 1, 33, 119
3, 20313, Note_on_c, 1, 33, 0
3, 20340, Note_on_c, 1, 33, 119
3, 20396, Note_on_c, 1, 33, 0
3, 20400, Note_on_c, 1, 36, 119
3, 20508, Note_on_c, 1, 36, 0
3, 20520, Note_on_c, 1, 38, 102
3, 20625, Note_on_c, 1, 38, 0
3, 20640, Note_on_c, 1, 29, 102
3, 20738, Note_on_c, 1, 29, 0
3, 20760, Note_on_c, 1, 33, 110
3, 20789, Note_on_c, 1, 33, 0
3, 20820, Note_on_c, 1, 33, 119
3, 20875, Note_on_c, 1, 33, 0
3, 20880, Note_on_c, 1, 36, 119
3, 20987, Note_on_c, 1, 36, 0
3, 21000, Note_on_c, 1, 38, 102
3, 21107, Note_on_c, 1, 38, 0
3, 21120, Note_on_c, 1, 29, 110
3, 21221, Note_on_c, 1, 29, 0
3, 21240, Note_on_c, 1, 33, 110
3, 21273, Note_on_c, 1, 33, 0
3, 21300, Note_on_c, 1, 33, 110
3, 21353, Note_on_c, 1, 33, 0
3, 21360, Note_on_c, 1, 36, 119
3, 21464, Note_on_c, 1, 36, 0
3, 21480, Note_on_c, 1, 38, 102
3, 21592, Note_on_c, 1, 38, 0
3, 21600, Note_on_c, 1, 34, 127
3, 21714, Note_on_c, 1, 34, 0
3, 21720, Note_on_c, 1, 38, 110
3, 21751, Note_on_c, 1, 38, 0
3, 21780, Note_on_c, 1, 38, 102
3, 21830, Note_on_c, 1, 38, 0
3, 21840, Note_on_c, 1, 41, 119
3, 21942, Note_on_c, 1, 41, 0
3, 21960, Note_on_c, 1, 43, 95
3, 22070, Note_on_c, 1, 43, 0
3, 22080, Note_on_c, 1, 34, 127
3, 22176, Note_on_c, 1, 34, 0
3, 22200, Note_on_c, 1, 38, 102
3, 22233, Note_on_c, 1, 38, 0
3, 22260, Note_on_c, 1, 38, 110
3, 22310, Note_on_c, 1, 38, 0
3, 22320, Note_on_c, 1, 41, 119
3, 22428, Note_on_c, 1, 41, 0
3, 22440, Note_on_c, 1, 43, 110
3, 22534, Note_on_c, 1, 43, 0
3, 22560, Note_on_c, 1, 29, 95
3, 22656, Note_on_c, 1, 29, 0
3, 22680, Note_on_c, 1, 33, 110
3, 22713, Note_on_c, 1, 33, 0
3, 22740, Note_on_c, 1, 33, 102
3, 22793, Note_on_c, 1, 33, 0
3, 22800, Note_on_c, 1, 36, 127
3, 22907, Note_on_c, 1, 36, 0
3, 22920, Note_on_c, 1, 38, 102
3, 23023, Note_on_c, 1, 38, 0
3, 23040, Note_on_c, 1, 29, 110
3, 23138, Note_on_c, 1, 29, 0
3, 23160, Note_on_c, 1, 33, 110
3, 23193, Note_on_c, 1, 33, 0
3, 23220, Note_on_c, 1, 33, 102
3, 23272, Note_on_c, 1, 33, 0
3, 23280, Note_on_c, 1, 36, 119
3, 23381, Note_on_c, 1, 36, 0
3, 23400, Note_on_c, 1, 38, 88
3, 23491, Note_on_c, 1, 38, 0
3, 23520, Note_on_c, 1, 36, 119
3, 23624, Note_on_c, 1, 36, 0
3, 23640, Note_on_c, 1, 40, 102
3, 23669, Note_on_c, 1, 40, 0
3, 23700, Note_on_c, 1, 40, 88
3, 23753, Note_on_c, 1, 40, 0
3, 23760, Note_on_c, 1, 43, 119
3, 23872, Note_on_c, 1, 43, 0
3, 23880, Note_on_c, 1, 45, 119
3, 23946, Note_on_c, 1, 45, 0
3, 24000, Note_on_c, 1, 34, 127
3, 24100, Note_on_c, 1, 34, 0
3, 24120, Note_on_c, 1, 38, 119
3, 24151, Note_on_c, 1, 38, 0
3, 24180, Note_on_c, 1, 38, 127
3, 24226, Note_on_c, 1, 38, 0
3, 24240, Note_on_c, 1, 41, 127
3, 24352, Note_on_c, 1, 41, 0
3, 24360, Note_on_c, 1, 43, 127
3, 24437, Note_on_c, 1, 43, 0
3, 24480, Note_on_c, 1, 29, 119
3, 24586, Note_on_c, 1, 29, 0
3, 24600, Note_on_c, 1, 33, 88
3, 24626, Note_on_c, 1, 33, 0
3, 24660, Note_on_c, 1, 33, 110
3, 24702, Note_on_c, 1, 33, 0
3, 24720, Note_on_c, 1, 36, 119
3, 24826, Note_on_c, 1, 36, 0
3, 24840, Note_on_c, 1, 38, 102
3, 24938, Note_on_c, 1, 38, 0
3, 24960, Note_on_c, 1, 29, 119
3, 25067, Note_on_c, 1, 29, 0
3, 25080, Note_on_c, 1, 33, 110
3, 25109, Note_on_c, 1, 33, 0
3, 25140, Note_on_c, 1, 33, 119
3, 25190, Note_on_c, 1, 33, 0
3, 25200, Note_on_c, 1, 36, 127
3, 25310, Note_on_c, 1, 36, 0
3, 25320, Note_on_c, 1, 38, 127
3, 25385, Note_on_c, 1, 38, 0
3, 25440, Note_on_c, 1, 29, 127
3, 25539, Note_on_c, 1, 29, 0
3, 25560, Note_on_c, 1, 33, 110
3, 25594, Note_on_c, 1, 33, 0
3, 25620, Note_on_c, 1, 33, 110
3, 25678, Note_on_c, 1, 33, 0
3, 25680, Note_on_c, 1, 36, 119
3, 25791, Note_on_c, 1, 36, 0
3, 25800, Note_on_c, 1, 38, 102
3, 25909, Note_on_c, 1, 38, 0
3, 25920, Note_on_c, 1, 29, 102
3, 26014, Note_on_c, 1, 29, 0
3, 26040, Note_on_c, 1, 33, 119
3, 26073, Note_on_c, 1, 33, 0
3, 26100, Note_on_c, 1, 33, 119
3, 26156, Note_on_c, 1, 33, 0
3, 26160, Note_on_c, 1, 36, 119
3, 26268, Note_on_c, 1, 36, 0
3, 26280, Note_on_c, 1, 38, 102
3, 26385, Note_on_c, 1, 38, 0
3, 26400, Note_on_c, 1, 29, 102
3, 26498, Note_on_c, 1, 29, 0
3, 26520, Note_on_c, 1, 33, 110
3, 26549, Note_on_c, 1, 33, 0
3, 26580, Note_on_c, 1, 33, 119
3, 26635, Note_on_c, 1, 33, 0
3, 26640, Note_on_c, 1, 36, 119
3, 26747, Note_on_c, 1, 36, 0
3, 26760, Note_on_c, 1, 38, 102
3, 26867, Note_on_c, 1, 38, 0
3, 26880, Note_on_c, 1, 29, 110
3, 26981, Note_on_c, 1, 29, 0
3, 27000, Note_on_c, 1, 33, 110
3, 27033, Note_on_c, 1, 33, 0
3, 27060, Note_on_c, 1, 33, 110
3, 27113, Note_on_c, 1, 33, 0
3, 27120, Note_on_c, 1, 36, 119
3, 27224, Note_on_c, 1, 36, 0
3, 27240, Note_on_c, 1, 38, 102
3, 27352, Note_on_c, 1, 38, 0
3, 27360, Note_on_c, 1, 34, 127
3, 27474, Note_on_c, 1, 34, 0
3, 27480, Note_on_c, 1, 38, 110
3, 27511, Note_on_c, 1, 38, 0
3, 27540, Note_on_c, 1, 38, 102
3, 27590, Note_on_c, 1, 38, 0
3, 27600, Note_on_c, 1, 41, 119
3, 27702, Note_on_c, 1, 41, 0
3, 27720, Note_on_c, 1, 43, 95
3, 27830, Note_on_c, 1, 43, 0
3, 27840, Note_on_c, 1, 34, 127
3, 27936, Note_on_c, 1, 34, 0
3, 27960, Note_on_c, 1, 38, 102
3, 27993, Note_on_c, 1, 38, 0
3, 28020, Note_on_c, 1, 38, 110
3, 28070, Note_on_c, 1, 38, 0
3, 28080, Note_on_c, 1, 41, 119
3, 28188, Note_on_c, 1, 41, 0
3, 28200, Note_on_c, 1, 43, 110
3, 28294, Note_on_c, 1, 43, 0
3, 28320, Note_on_c, 1, 29, 95
3, 28416, Note_on_c, 1, 29, 0
3, 28440, Note_on_c, 1, 33, 110
3, 28473, Note_on_c, 1, 33, 0
3, 28500, Note_on_c, 1, 33, 102
3, 28553, Note_on_c, 1, 33, 0
3, 28560, Note_on_c, 1, 36, 127
3, 28667, Note_on_c, 1, 36, 0
3, 28680, Note_on_c, 1, 38, 102
3, 28783, Note_on_c, 1, 38, 0
3, 28800, Note_on_c, 1, 29, 110
3, 28898, Note_on_c, 1, 29, 0
3, 28920, Note_on_c, 1, 33, 110
3, 28953, Note_on_c, 1, 33, 0
3, 28980, Note_on_c, 1, 33, 102
3, 29032, Note_on_c, 1, 33, 0
3, 29040, Note_on_c, 1, 36, 119
3, 29141, Note_on_c, 1, 36, 0
3, 29160, Note_on_c, 1, 38, 88
3, 29251, Note_on_c, 1, 38, 0
3, 29280, Note_on_c, 1, 36, 119
3, 29384, Note_on_c, 1, 36, 0
3, 29400, Note_on_c, 1, 40, 102
3, 29429, Note_on_c, 1, 40, 0
3, 29460, Note_on_c, 1, 40, 88
3, 29513, Note_on_c, 1, 40, 0
3, 29520, Note_on_c, 1, 43, 119
3, 29632, Note_on_c, 1, 43, 0
3, 29640, Note_on_c, 1, 45, 119
3, 29706, Note_on_c, 1, 45, 0
3, 29760, Note_on_c, 1, 34, 127
3, 29860, Note_on_c, 1, 34, 0
3, 29880, Note_on_c, 1, 38, 119
3, 29911, Note_on_c, 1, 38, 0
3, 29940, Note_on_c, 1, 38, 127
3, 29986, Note_on_c, 1, 38, 0
3, 30000, Note_on_c, 1, 41, 127
3, 30112, Note_on_c, 1, 41, 0
3, 30120, Note_on_c, 1, 43, 127
3, 30197, Note_on_c, 1, 43, 0
3, 30240, Note_on_c, 1, 29, 119
3, 30346, Note_on_c, 1, 29, 0
3, 30360, Note_on_c, 1, 33, 88
3, 30386, Note_on_c, 1, 33, 0
3, 30420, Note_on_c, 1, 33, 110
3, 30462, Note_on_c, 1, 33, 0
3, 30480, Note_on_c, 1, 36, 119
3, 30586, Note_on_c, 1, 36, 0
3, 30600, Note_on_c, 1, 38, 102
3, 30698, Note_on_c, 1, 38, 0
3, 30720, Note_on_c, 1, 29, 119
3, 30827, Note_on_c, 1, 29, 0
3, 30840, Note_on_c, 1, 33, 110
3, 30869, Note_on_c, 1, 33, 0
3, 30900, Note_on_c, 1, 33, 119
3, 30950, Note_on_c, 1, 33, 0
3, 30960, Note_on_c, 1, 36, 127
3, 31070, Note_on_c, 1, 36, 0
3, 31080, Note_on_c, 1, 38, 127
3, 31145, Note_on_c, 1, 38, 0
3, 31200, Note_on_c, 1, 29, 127
3, 31299, Note_on_c, 1, 29, 0
3, 31320, Note_on_c, 1, 33, 110
3, 31354, Note_on_c, 1, 33, 0
3, 31380, Note_on_c, 1, 33, 110
3, 31438, Note_on_c, 1, 33, 0
3, 31440, Note_on_c, 1, 36, 119
3, 31551, Note_on_c, 1, 36, 0
3, 31560, Note_on_c, 1, 38, 102
3, 31669, Note_on_c, 1, 38, 0
3, 31680, Note_on_c, 1, 29, 102
3, 31774, Note_on_c, 1, 29, 0
3, 31800, Note_on_c, 1, 33, 119
3, 31833, Note_on_c, 1, 33, 0
3, 31860, Note_on_c, 1, 33, 119
3, 31916, Note_on_c, 1, 33, 0
3, 31920, Note_on_c, 1, 36, 119
3, 32028, Note_on_c, 1, 36, 0
3, 32040, Note_on_c, 1, 38, 102
3, 32145, Note_on_c, 1, 38, 0
3, 32160, Note_on_c, 1, 29, 102
3, 32258, Note_on_c, 1, 29, 0
3, 32280, Note_on_c, 1, 33, 110
3, 32309, Note_on_c, 1, 33, 0
3, 32340, Note_on_c, 1, 33, 119
3, 32395, Note_on_c, 1, 33, 0
3, 32400, Note_on_c, 1, 36, 119
3, 32507, Note_on_c, 1, 36, 0
3, 32520, Note_on_c, 1, 38, 102
3, 32627, Note_on_c, 1, 38, 0
3, 32640, Note_on_c, 1, 29, 110
3, 32741, Note_on_c, 1, 29, 0
3, 32760, Note_on_c, 1, 33, 110
3, 32793, Note_on_c, 1, 33, 0
3, 32820, Note_on_c, 1, 33, 110
3, 32873, Note_on_c, 1, 33, 0
3, 32880, Note_on_c, 1, 36, 119
3, 32984, Note_on_c, 1, 36, 0
3, 33000, Note_on_c, 1, 38, 102
3, 33112, Note_on_c, 1, 38, 0
3, 33120, Note_on_c, 1, 34, 127
3, 33234, Note_on_c, 1, 34, 0
3, 33240, Note_on_c, 1, 38, 110
3, 33271, Note_on_c, 1, 38, 0
3, 33300, Note_on_c, 1, 38, 102
3, 33350, Note_on_c, 1, 38, 0
3, 33360, Note_on_c, 1, 41, 119
3, 33462, Note_on_c, 1, 41, 0
3, 33480, Note_on_c, 1, 43, 95
3, 33590, Note_on_c, 1, 43, 0
3, 33600, Note_on_c, 1, 34, 127
3, 33696, Note_on_c, 1, 34, 0
3, 33720, Note_on_c, 1, 38, 102
3, 33753, Note_on_c, 1, 38, 0
3, 33780, Note_on_c, 1, 38, 110
3, 33830, Note_on_c, 1, 38, 0
3, 33840, Note_on_c, 1, 41, 119
3, 33948, Note_on_c, 1, 41, 0
3, 33960, Note_on_c, 1, 43, 110
3, 34054, Note_on_c, 1, 43, 0
3, 34080, Note_on_c, 1, 29, 95
3, 34176, Note_on_c, 1, 29, 0
3, 34200, Note_on_c, 1, 33, 110
3, 34233, Note_on_c, 1, 33, 0
3, 34260, Note_on_c, 1, 33, 102
3, 34313, Note_on_c, 1, 33, 0
3, 34320, Note_on_c, 1, 36, 127
3, 34427, Note_on_c, 1, 36, 0
3, 34440, Note_on_c, 1, 38, 102
3, 34543, Note_on_c, 1, 38, 0
3, 34560, Note_on_c, 1, 29, 110
3, 34658, Note_on_c, 1, 29, 0
3, 34680, Note_on_c, 1, 33, 110
3, 34713, Note_on_c, 1, 33, 0
3, 34740, Note_on_c, 1, 33, 102
3, 34792, Note_on_c, 1, 33, 0
3, 34800, Note_on_c, 1, 36, 119
3, 34901, Note_on_c, 1, 36, 0
3, 34920, Note_on_c, 1, 38, 88
3, 35011, Note_on_c, 1, 38, 0
3, 35040, Note_on_c, 1, 36, 119
3, 35144, Note_on_c, 1, 36, 0
3, 35160, Note_on_c, 1, 40, 102
3, 35189, Note_on_c, 1, 40, 0
3, 35220, Note_on_c, 1, 40, 88
3, 35273, Note_on_c, 1, 40, 0
3, 35280, Note_on_c, 1, 43, 119
3, 35392, Note_on_c, 1, 43, 0
3, 35400, Note_on_c, 1, 45, 119
3, 35466, Note_on_c, 1, 45, 0
3, 35520, Note_on_c, 1, 34, 127
3, 35620, Note_on_c, 1, 34, 0
3, 35640, Note_on_c, 1, 38, 119
3, 35671, Note_on_c, 1, 38, 0
3, 35700, Note_on_c, 1, 38, 127
3, 35746, Note_on_c, 1, 38, 0
3, 35760, Note_on_c, 1, 41, 127
3, 35872, Note_on_c, 1, 41, 0
3, 35880, Note_on_c, 1, 43, 127
3, 35957, Note_on_c, 1, 43, 0
3, 36000, Note_on_c, 1, 29, 119
3, 36106, Note_on_c, 1, 29, 0
3, 36120, Note_on_c, 1, 33, 88
3, 36146, Note_on_c, 1, 33, 0
3, 36180, Note_on_c, 1, 33, 110
3, 36222, Note_on_c, 1, 33, 0
3, 36240, Note_on_c, 1, 36, 119
3, 36346, Note_on_c, 1, 36, 0
3, 36360, Note_on_c, 1, 38, 102
3, 36458, Note_on_c, 1, 38, 0
3, 36480, Note_on_c, 1, 29, 119
3, 36587, Note_on_c, 1, 29, 0
3, 36600, Note_on_c, 1, 33, 110
3, 36629, Note_on_c, 1, 33, 0
3, 36660, Note_on_c, 1, 33, 119
3, 36710, Note_on_c, 1, 33, 0
3, 36720, Note_on_c, 1, 36, 127
3, 36830, Note_on_c, 1, 36, 0
3, 36840, Note_on_c, 1, 38, 127
3, 36905, Note_on_c, 1, 38, 0
3, 36960, Note_on_c, 1, 29, 127
3, 37059, Note_on_c, 1, 29, 0
3, 37080, Note_on_c, 1, 33, 110
3, 37114, Note_on_c, 1, 33, 0
3, 37140, Note_on_c, 1, 33, 110
3, 37198, Note_on_c, 1, 33, 0
3, 37200, Note_on_c, 1, 36, 119
3, 37311, Note_on_c, 1, 36, 0
3, 37320, Note_on_c, 1, 38, 102
3, 37429, Note_on_c, 1, 38, 0
3, 37440, Note_on_c, 1, 29, 102
3, 37534, Note_on_c, 1, 29, 0
3, 37560, Note_on_c, 1, 33, 119
3, 37593, Note_on_c, 1, 33, 0
3, 37620, Note_on_c, 1, 33, 119
3, 37676, Note_on_c, 1, 33, 0
3, 37680, Note_on_c, 1, 36, 119
3, 37788, Note_on_c, 1, 36, 0
3, 37800, Note_on_c, 1, 38, 102
3, 37905, Note_on_c, 1, 38, 0
3, 37920, Note_on_c, 1, 29, 102
3, 38018, Note_on_c, 1, 29, 0
3, 38040, Note_on_c, 1, 33, 110
3, 38069, Note_on_c, 1, 33, 0
3, 38100, Note_on_c, 1, 33, 119
3, 38155, Note_on_c, 1, 33, 0
3, 38160, Note_on_c, 1, 36, 119
3, 38267, Note_on_c, 1, 36, 0
3, 38280, Note_on_c, 1, 38, 102
3, 38387, Note_on_c, 1, 38, 0
3, 38400, Note_on_c, 1, 29, 110
3, 38501, Note_on_c, 1, 29, 0
3, 38520, Note_on_c, 1, 33, 110
3, 38553, Note_on_c, 1, 33, 0
3, 38580, Note_on_c, 1, 33, 110
3, 38633, Note_on_c, 1, 33, 0
3, 38640, Note_on_c, 1, 36, 119
3, 38744, Note_on_c, 1, 36, 0
3, 38760, Note_on_c, 1, 38, 102
3, 38872, Note_on_c, 1, 38, 0
3, 38880, Note_on_c, 1, 34, 127
3, 38994, Note_on_c, 1, 34, 0
3, 39000, Note_on_c, 1, 38, 110
3, 39031, Note_on_c, 1, 38, 0
3, 39060, Note_on_c, 1, 38, 102
3, 39110, Note_on_c, 1, 38, 0
3, 39120, Note_on_c, 1, 41, 119
3, 39222, Note_on_c, 1, 41, 0
3, 39240, Note_on_c, 1, 43, 95
3, 39350, Note_on_c, 1, 43, 0
3, 39360, Note_on_c, 1, 34, 127
3, 39456, Note_on_c, 1, 34, 0
3, 39480, Note_on_c, 1, 38, 102
3, 39513, Note_on_c, 1, 38, 0
3, 39540, Note_on_c, 1, 38, 110
3, 39590, Note_on_c, 1, 38, 0
3, 39600, Note_on_c, 1, 41, 119
3, 39708, Note_on_c, 1, 41, 0
3, 39720, Note_on_c, 1, 43, 110
3, 39814, Note_on_c, 1, 43, 0
3, 39840, Note_on_c, 1, 29, 95
3, 39936, Note_on_c, 1, 29, 0
3, 39960, Note_on_c, 1, 33, 110
3, 39993, Note_on_c, 1, 33, 0
3, 40020, Note_on_c, 1, 33, 102
3, 40073, Note_on_c, 1, 33, 0
3, 40080, Note_on_c, 1, 36, 127
3, 40187, Note_on_c, 1, 36, 0
3, 40200, Note_on_c, 1, 38, 102
3, 40303, Note_on_c, 1, 38, 0
3, 40320, Note_on_c, 1, 29, 110
3, 40418, Note_on_c, 1, 29, 0
3, 40440, Note_on_c, 1, 33, 110
3, 40473, Note_on_c, 1, 33, 0
3, 40500, Note_on_c, 1, 33, 102
3, 40552, Note_on_c, 1, 33, 0
3, 40560, Note_on_c, 1, 36, 119
3, 40661, Note_on_c, 1, 36, 0
3, 40680, Note_on_c, 1, 38, 88
3, 40771, Note_on_c, 1, 38, 0
3, 40800, Note_on_c, 1, 36, 119
3, 40904, Note_on_c, 1, 36, 0
3, 40920, Note_on_c, 1, 40, 102
3, 40949, Note_on_c, 1, 40, 0
3, 40980, Note_on_c, 1, 40, 88
3, 41033, Note_on_c, 1, 40, 0
3, 41040, Note_on_c, 1, 43, 119
3, 41152, Note_on_c, 1, 43, 0
3, 41160, Note_on_c, 1, 45, 119
3, 41226, Note_on_c, 1, 45, 0
3, 41280, Note_on_c, 1, 34, 127
3, 41380, Note_on_c, 1, 34, 0
3, 41400, Note_on_c, 1, 38, 119
3, 41431, Note_on_c, 1, 38, 0
3, 41460, Note_on_c, 1, 38, 127
3, 41506, Note_on_c, 1, 38, 0
3, 41520, Note_on_c, 1, 41, 127
3, 41632, Note_on_c, 1, 41, 0
3, 41640, Note_on_c, 1, 43, 127
3, 41717, Note_on_c, 1, 43, 0
3, 41760, Note_on_c, 1, 29, 119
3, 41866, Note_on_c, 1, 29, 0
3, 41880, Note_on_c, 1, 33, 88
3, 41906, Note_on_c, 1, 33, 0
3, 41940, Note_on_c, 1, 33, 110
3, 41982, Note_on_c, 1, 33, 0
3, 42000, Note_on_c, 1, 36, 119
3, 42106, Note_on_c, 1, 36, 0
3, 42120, Note_on_c, 1, 38, 102
3, 42218, Note_on_c, 1, 38, 0
3, 42240, Note_on_c, 1, 29, 127
3, 42301, Note_on_c, 1, 29, 0
3, 42301, End_track
4, 0, Start_track
4, 0, MIDI_port, 0
4, 0, Title_t, ">>PIANO"
4, 0, Program_c, 2, 0
4, 0, Control_c, 2, 7, 90
4, 480, Note_on_c, 2, 48, 117
4, 480, Note_on_c, 2, 88, 117
4, 480, Note_on_c, 2, 84, 108
4, 480, Note_on_c, 2, 91, 108
4, 506, Note_on_c, 2, 84, 0
4, 507, Note_on_c, 2, 88, 0
4, 509, Note_on_c, 2, 91, 0
4, 540, Note_on_c, 2, 84, 39
4, 540, Note_on_c, 2, 88, 82
4, 540, Note_on_c, 2, 91, 32
4, 557, Note_on_c, 2, 91, 0
4, 558, Note_on_c, 2, 88, 0
4, 560, Note_on_c, 2, 84, 0
4, 586, Note_on_c, 2, 48, 0
4, 600, Note_on_c, 2, 52, 108
4, 600, Note_on_c, 2, 91, 108
4, 600, Note_on_c, 2, 84, 99
4, 600, Note_on_c, 2, 88, 108
4, 625, Note_on_c, 2, 88, 0
4, 625, Note_on_c, 2, 84, 0
4, 629, Note_on_c, 2, 91, 0
4, 660, Note_on_c, 2, 88, 82
4, 660, Note_on_c, 2, 84, 29
4, 660, Note_on_c, 2, 91, 24
4, 674, Note_on_c, 2, 91, 0
4, 674, Note_on_c, 2, 84, 0
4, 676, Note_on_c, 2, 88, 0
4, 710, Note_on_c, 2, 52, 0
4, 720, Note_on_c, 2, 88, 117
4, 720, Note_on_c, 2, 84, 99
4, 720, Note_on_c, 2, 91, 90
4, 720, Note_on_c, 2, 55, 108
4, 736, Note_on_c, 2, 91, 0
4, 741, Note_on_c, 2, 84, 0
4, 743, Note_on_c, 2, 88, 0
4, 780, Note_on_c, 2, 88, 82
4, 780, Note_on_c, 2, 84, 52
4, 780, Note_on_c, 2, 91, 29
4, 790, Note_on_c, 2, 91, 0
4, 794, Note_on_c, 2, 84, 0
4, 800, Note_on_c, 2, 88, 0
4, 840, Note_on_c, 2, 88, 117
4, 840, Note_on_c, 2, 84, 108
4, 840, Note_on_c, 2, 91, 108
4, 840, Note_on_c, 2, 57, 90
4, 844, Note_on_c, 2, 55, 0
4, 865, Note_on_c, 2, 84, 0
4, 868, Note_on_c, 2, 88, 0
4, 868, Note_on_c, 2, 91, 0
4, 900, Note_on_c, 2, 84, 61
4, 900, Note_on_c, 2, 91, 35
4, 900, Note_on_c, 2, 88, 39
4, 914, Note_on_c, 2, 88, 0
4, 915, Note_on_c, 2, 91, 0
4, 922, Note_on_c, 2, 84, 0
4, 936, Note_on_c, 2, 57, 0
4, 960, Note_on_c, 2, 46, 117
4, 960, Note_on_c, 2, 86, 108
4, 960, Note_on_c, 2, 89, 75
4, 960, Note_on_c, 2, 82, 82
4, 979, Note_on_c, 2, 82, 0
4, 981, Note_on_c, 2, 89, 0
4, 991, Note_on_c, 2, 86, 0
4, 1020, Note_on_c, 2, 82, 52
4, 1020, Note_on_c, 2, 89, 61
4, 1020, Note_on_c, 2, 86, 82
4, 1035, Note_on_c, 2, 82, 0
4, 1036, Note_on_c, 2, 89, 0
4, 1038, Note_on_c, 2, 86, 0
4, 1059, Note_on_c, 2, 46, 0
4, 1080, Note_on_c, 2, 82, 124
4, 1080, Note_on_c, 2, 89, 108
4, 1080, Note_on_c, 2, 86, 108
4, 1080, Note_on_c, 2, 50, 108
4, 1104, Note_on_c, 2, 89, 0
4, 1108, Note_on_c, 2, 82, 0
4, 1108, Note_on_c, 2, 86, 0
4, 1140, Note_on_c, 2, 82, 75
4, 1140, Note_on_c, 2, 86, 68
4, 1140, Note_on_c, 2, 89, 45
4, 1153, Note_on_c, 2, 82, 0
4, 1155, Note_on_c, 2, 89, 0
4, 1155, Note_on_c, 2, 86, 0
4, 1188, Note_on_c, 2, 50, 0
4, 1200, Note_on_c, 2, 82, 124
4, 1200, Note_on_c, 2, 86, 117
4, 1200, Note_on_c, 2, 89, 90
4, 1200, Note_on_c, 2, 53, 99
4, 1226, Note_on_c, 2, 89, 0
4, 1229, Note_on_c, 2, 82, 0
4, 1232, Note_on_c, 2, 86, 0
4, 1260, Note_on_c, 2, 86, 61
4, 1260, Note_on_c, 2, 82, 61
4, 1270, Note_on_c, 2, 82, 0
4, 1276, Note_on_c, 2, 86, 0
4, 1320, Note_on_c, 2, 89, 117
4, 1320, Note_on_c, 2, 82, 124
4, 1320, Note_on_c, 2, 86, 108
4, 1320, Note_on_c, 2, 55, 108
4, 1329, Note_on_c, 2, 53, 0
4, 1339, Note_on_c, 2, 82, 0
4, 1347, Note_on_c, 2, 89, 0
4, 1350, Note_on_c, 2, 86, 0
4, 1380, Note_on_c, 2, 86, 61
4, 1393, Note_on_c, 2, 86, 0
4, 1401, Note_on_c, 2, 55, 0
4, 1440, Note_on_c, 2, 41, 108
4, 1440, Note_on_c, 2, 81, 117
4, 1440, Note_on_c, 2, 84, 90
4, 1440, Note_on_c, 2, 89, 90
4, 1440, Note_on_c, 2, 88, 99
4, 1440, Note_on_c, 2, 83, 61
4, 1446, Note_on_c, 2, 83, 0
4, 1456, Note_on_c, 2, 88, 0
4, 1461, Note_on_c, 2, 84, 0
4, 1461, Note_on_c, 2, 81, 0
4, 1462, Note_on_c, 2, 89, 0
4, 1500, Note_on_c, 2, 84, 90
4, 1500, Note_on_c, 2, 89, 99
4, 1518, Note_on_c, 2, 89, 0
4, 1520, Note_on_c, 2, 84, 0
4, 1541, Note_on_c, 2, 41, 0
4, 1560, Note_on_c, 2, 45, 108
4, 1560, Note_on_c, 2, 89, 124
4, 1560, Note_on_c, 2, 84, 117
4, 1560, Note_on_c, 2, 81, 108
4, 1579, Note_on_c, 2, 81, 0
4, 1581, Note_on_c, 2, 84, 0
4, 1589, Note_on_c, 2, 89, 0
4, 1620, Note_on_c, 2, 89, 75
4, 1620, Note_on_c, 2, 84, 68
4, 1634, Note_on_c, 2, 84, 0
4, 1634, Note_on_c, 2, 89, 0
4, 1676, Note_on_c, 2, 45, 0
4, 1680, Note_on_c, 2, 48, 117
4, 1680, Note_on_c, 2, 89, 124
4, 1680, Note_on_c, 2, 84, 117
4, 1680, Note_on_c, 2, 81, 99
4, 1697, Note_on_c, 2, 81, 0
4, 1702, Note_on_c, 2, 84, 0
4, 1707, Note_on_c, 2, 89, 0
4, 1740, Note_on_c, 2, 84, 99
4, 1740, Note_on_c, 2, 89, 99
4, 1740, Note_on_c, 2, 81, 61
4, 1755, Note_on_c, 2, 81, 0
4, 1762, Note_on_c, 2, 84, 0
4, 1763, Note_on_c, 2, 89, 0
4, 1800, Note_on_c, 2, 84, 117
4, 1800, Note_on_c, 2, 81, 99
4, 1800, Note_on_c, 2, 89, 117
4, 1800, Note_on_c, 2, 50, 108
4, 1815, Note_on_c, 2, 48, 0
4, 1818, Note_on_c, 2, 81, 0
4, 1820, Note_on_c, 2, 84, 0
4, 1823, Note_on_c, 2, 89, 0
4, 1860, Note_on_c, 2, 89, 90
4, 1860, Note_on_c, 2, 84, 82
4, 1860, Note_on_c, 2, 81, 26
4, 1868, Note_on_c, 2, 81, 0
4, 1875, Note_on_c, 2, 84, 0
4, 1879, Note_on_c, 2, 89, 0
4, 1895, Note_on_c, 2, 50, 0
4, 1920, Note_on_c, 2, 41, 117
4, 1920, Note_on_c, 2, 81, 127
4, 1920, Note_on_c, 2, 84, 127
4, 1920, Note_on_c, 2, 89, 127
4, 1952, Note_on_c, 2, 81, 0
4, 1953, Note_on_c, 2, 84, 0
4, 1956, Note_on_c, 2, 89, 0
4, 1970, Note_on_c, 2, 41, 0
4, 2400, Note_on_c, 2, 41, 108
4, 2400, Note_on_c, 2, 77, 117
4, 2400, Note_on_c, 2, 81, 117
4, 2400, Note_on_c, 2, 84, 108
4, 2424, Note_on_c, 2, 81, 0
4, 2425, Note_on_c, 2, 77, 0
4, 2426, Note_on_c, 2, 84, 0
4, 2460, Note_on_c, 2, 81, 82
4, 2460, Note_on_c, 2, 77, 75
4, 2460, Note_on_c, 2, 84, 75
4, 2481, Note_on_c, 2, 77, 0
4, 2482, Note_on_c, 2, 84, 0
4, 2485, Note_on_c, 2, 81, 0
4, 2499, Note_on_c, 2, 41, 0
4, 2520, Note_on_c, 2, 81, 99
4, 2520, Note_on_c, 2, 45, 90
4, 2520, Note_on_c, 2, 84, 90
4, 2520, Note_on_c, 2, 77, 82
4, 2541, Note_on_c, 2, 77, 0
4, 2545, Note_on_c, 2, 81, 0
4, 2546, Note_on_c, 2, 84, 0
4, 2554, Note_on_c, 2, 45, 0
4, 2580, Note_on_c, 2, 45, 90
4, 2580, Note_on_c, 2, 81, 99
4, 2580, Note_on_c, 2, 84, 90
4, 2580, Note_on_c, 2, 77, 68
4, 2597, Note_on_c, 2, 77, 0
4, 2601, Note_on_c, 2, 81, 0
4, 2603, Note_on_c, 2, 84, 0
4, 2638, Note_on_c, 2, 45, 0
4, 2640, Note_on_c, 2, 48, 99
4, 2640, Note_on_c, 2, 81, 108
4, 2640, Note_on_c, 2, 84, 90
4, 2640, Note_on_c, 2, 77, 90
4, 2663, Note_on_c, 2, 77, 0
4, 2665, Note_on_c, 2, 84, 0
4, 2665, Note_on_c, 2, 81, 0
4, 2700, Note_on_c, 2, 84, 61
4, 2700, Note_on_c, 2, 81, 90
4, 2700, Note_on_c, 2, 77, 39
4, 2719, Note_on_c, 2, 77, 0
4, 2722, Note_on_c, 2, 81, 0
4, 2724, Note_on_c, 2, 84, 0
4, 2751, Note_on_c, 2, 48, 0
4, 2760, Note_on_c, 2, 50, 82
4, 2760, Note_on_c, 2, 84, 90
4, 2760, Note_on_c, 2, 81, 99
4, 2760, Note_on_c, 2, 77, 82
4, 2782, Note_on_c, 2, 77, 0
4, 2783, Note_on_c, 2, 81, 0
4, 2791, Note_on_c, 2, 84, 0
4, 2820, Note_on_c, 2, 84, 82
4, 2820, Note_on_c, 2, 81, 90
4, 2820, Note_on_c, 2, 77, 61
4, 2841, Note_on_c, 2, 77, 0
4, 2841, Note_on_c, 2, 81, 0
4, 2843, Note_on_c, 2, 84, 0
4, 2869, Note_on_c, 2, 50, 0
4, 2880, Note_on_c, 2, 41, 82
4, 2880, Note_on_c, 2, 84, 82
4, 2880, Note_on_c, 2, 81, 99
4, 2880, Note_on_c, 2, 77, 82
4, 2903, Note_on_c, 2, 81, 0
4, 2904, Note_on_c, 2, 77, 0
4, 2910, Note_on_c, 2, 84, 0
4, 2940, Note_on_c, 2, 84, 68
4, 2940, Note_on_c, 2, 81, 82
4, 2940, Note_on_c, 2, 77, 61
4, 2959, Note_on_c, 2, 77, 0
4, 2961, Note_on_c, 2, 81, 0
4, 2965, Note_on_c, 2, 84, 0
4, 2974, Note_on_c, 2, 41, 0
4, 3000, Note_on_c, 2, 45, 99
4, 3000, Note_on_c, 2, 84, 99
4, 3000, Note_on_c, 2, 81, 117
4, 3000, Note_on_c, 2, 77, 90
4, 3025, Note_on_c, 2, 77, 0
4, 3026, Note_on_c, 2, 81, 0
4, 3033, Note_on_c, 2, 45, 0
4, 3035, Note_on_c, 2, 84, 0
4, 3060, Note_on_c, 2, 45, 99
4, 3060, Note_on_c, 2, 84, 75
4, 3060, Note_on_c, 2, 81, 90
4, 3060, Note_on_c, 2, 77, 61
4, 3079, Note_on_c, 2, 81, 0
4, 3081, Note_on_c, 2, 77, 0
4, 3081, Note_on_c, 2, 84, 0
4, 3116, Note_on_c, 2, 45, 0
4, 3120, Note_on_c, 2, 48, 99
4, 3120, Note_on_c, 2, 77, 61
4, 3120, Note_on_c, 2, 81, 82
4, 3120, Note_on_c, 2, 84, 45
4, 3141, Note_on_c, 2, 81, 0
4, 3143, Note_on_c, 2, 84, 0
4, 3143, Note_on_c, 2, 77, 0
4, 3180, Note_on_c, 2, 84, 39
4, 3180, Note_on_c, 2, 81, 82
4, 3180, Note_on_c, 2, 77, 39
4, 3199, Note_on_c, 2, 77, 0
4, 3199, Note_on_c, 2, 81, 0
4, 3206, Note_on_c, 2, 84, 0
4, 3228, Note_on_c, 2, 48, 0
4, 3240, Note_on_c, 2, 50, 82
4, 3240, Note_on_c, 2, 84, 90
4, 3240, Note_on_c, 2, 81, 108
4, 3240, Note_on_c, 2, 77, 90
4, 3269, Note_on_c, 2, 81, 0
4, 3272, Note_on_c, 2, 77, 0
4, 3276, Note_on_c, 2, 84, 0
4, 3300, Note_on_c, 2, 77, 68
4, 3300, Note_on_c, 2, 81, 90
4, 3300, Note_on_c, 2, 84, 52
4, 3321, Note_on_c, 2, 81, 0
4, 3324, Note_on_c, 2, 84, 0
4, 3326, Note_on_c, 2, 77, 0
4, 3345, Note_on_c, 2, 50, 0
4, 3360, Note_on_c, 2, 41, 82
4, 3360, Note_on_c, 2, 84, 90
4, 3360, Note_on_c, 2, 81, 82
4, 3360, Note_on_c, 2, 77, 68
4, 3379, Note_on_c, 2, 81, 0
4, 3382, Note_on_c, 2, 77, 0
4, 3388, Note_on_c, 2, 84, 0
4, 3420, Note_on_c, 2, 84, 61
4, 3420, Note_on_c, 2, 81, 90
4, 3420, Note_on_c, 2, 77, 61
4, 3440, Note_on_c, 2, 77, 0
4, 3441, Note_on_c, 2, 81, 0
4, 3446, Note_on_c, 2, 84, 0
4, 3458, Note_on_c, 2, 41, 0
4, 3480, Note_on_c, 2, 45, 90
4, 3480, Note_on_c, 2, 84, 82
4, 3480, Note_on_c, 2, 77, 82
4, 3480, Note_on_c, 2, 81, 99
4, 3503, Note_on_c, 2, 81, 0
4, 3509, Note_on_c, 2, 45, 0
4, 3511, Note_on_c, 2, 77, 0
4, 3517, Note_on_c, 2, 84, 0
4, 3540, Note_on_c, 2, 45, 99
4, 3540, Note_on_c, 2, 84, 61
4, 3540, Note_on_c, 2, 81, 99
4, 3540, Note_on_c, 2, 77, 61
4, 3561, Note_on_c, 2, 81, 0
4, 3564, Note_on_c, 2, 77, 0
4, 3571, Note_on_c, 2, 84, 0
4, 3595, Note_on_c, 2, 45, 0
4, 3600, Note_on_c, 2, 48, 99
4, 3600, Note_on_c, 2, 84, 75
4, 3600, Note_on_c, 2, 77, 75
4, 3600, Note_on_c, 2, 81, 90
4, 3621, Note_on_c, 2, 81, 0
4, 3626, Note_on_c, 2, 77, 0
4, 3633, Note_on_c, 2, 84, 0
4, 3660, Note_on_c, 2, 84, 82
4, 3660, Note_on_c, 2, 81, 90
4, 3660, Note_on_c, 2, 77, 75
4, 3679, Note_on_c, 2, 81, 0
4, 3680, Note_on_c, 2, 77, 0
4, 3684, Note_on_c, 2, 84, 0
4, 3707, Note_on_c, 2, 48, 0
4, 3720, Note_on_c, 2, 50, 82
4, 3720, Note_on_c, 2, 77, 90
4, 3720, Note_on_c, 2, 84, 99
4, 3720, Note_on_c, 2, 81, 99
4, 3741, Note_on_c, 2, 81, 0
4, 3746, Note_on_c, 2, 77, 0
4, 3749, Note_on_c, 2, 84, 0
4, 3780, Note_on_c, 2, 77, 75
4, 3780, Note_on_c, 2, 84, 90
4, 3780, Note_on_c, 2, 81, 108
4, 3801, Note_on_c, 2, 81, 0
4, 3803, Note_on_c, 2, 77, 0
4, 3804, Note_on_c, 2, 84, 0
4, 3827, Note_on_c, 2, 50, 0
4, 3840, Note_on_c, 2, 41, 90
4, 3840, Note_on_c, 2, 84, 90
4, 3840, Note_on_c, 2, 81, 90
4, 3840, Note_on_c, 2, 77, 75
4, 3861, Note_on_c, 2, 81, 0
4, 3862, Note_on_c, 2, 77, 0
4, 3868, Note_on_c, 2, 84, 0
4, 3900, Note_on_c, 2, 77, 75
4, 3900, Note_on_c, 2, 84, 99
4, 3900, Note_on_c, 2, 81, 99
4, 3919, Note_on_c, 2, 81, 0
4, 3921, Note_on_c, 2, 77, 0
4, 3924, Note_on_c, 2, 84, 0
4, 3941, Note_on_c, 2, 41, 0
4, 3960, Note_on_c, 2, 45, 90
4, 3960, Note_on_c, 2, 84, 108
4, 3960, Note_on_c, 2, 77, 99
4, 3960, Note_on_c, 2, 81, 99
4, 3981, Note_on_c, 2, 81, 0
4, 3984, Note_on_c, 2, 77, 0
4, 3988, Note_on_c, 2, 84, 0
4, 3993, Note_on_c, 2, 45, 0
4, 4020, Note_on_c, 2, 45, 90
4, 4020, Note_on_c, 2, 84, 90
4, 4020, Note_on_c, 2, 81, 99
4, 4020, Note_on_c, 2, 77, 82
4, 4041, Note_on_c, 2, 81, 0
4, 4042, Note_on_c, 2, 77, 0
4, 4046, Note_on_c, 2, 84, 0
4, 4073, Note_on_c, 2, 45, 0
4, 4080, Note_on_c, 2, 48, 99
4, 4080, Note_on_c, 2, 84, 90
4, 4080, Note_on_c, 2, 81, 108
4, 4080, Note_on_c, 2, 77, 82
4, 4101, Note_on_c, 2, 77, 0
4, 4101, Note_on_c, 2, 81, 0
4, 4106, Note_on_c, 2, 84, 0
4, 4140, Note_on_c, 2, 81, 99
4, 4140, Note_on_c, 2, 77, 82
4, 4140, Note_on_c, 2, 84, 90
4, 4161, Note_on_c, 2, 77, 0
4, 4163, Note_on_c, 2, 81, 0
4, 4164, Note_on_c, 2, 84, 0
4, 4184, Note_on_c, 2, 48, 0
4, 4200, Note_on_c, 2, 50, 82
4, 4200, Note_on_c, 2, 84, 99
4, 4200, Note_on_c, 2, 81, 108
4, 4200, Note_on_c, 2, 77, 90
4, 4223, Note_on_c, 2, 77, 0
4, 4225, Note_on_c, 2, 81, 0
4, 4225, Note_on_c, 2, 84, 0
4, 4260, Note_on_c, 2, 84, 82
4, 4260, Note_on_c, 2, 77, 75
4, 4260, Note_on_c, 2, 81, 90
4, 4279, Note_on_c, 2, 81, 0
4, 4283, Note_on_c, 2, 84, 0
4, 4286, Note_on_c, 2, 77, 0
4, 4312, Note_on_c, 2, 50, 0
4, 4320, Note_on_c, 2, 46, 117
4, 4320, Note_on_c, 2, 86, 108
4, 4320, Note_on_c, 2, 80, 124
4, 4320, Note_on_c, 2, 77, 90
4, 4339, Note_on_c, 2, 77, 0
4, 4350, Note_on_c, 2, 80, 0
4, 4352, Note_on_c, 2, 86, 0
4, 4380, Note_on_c, 2, 86, 82
4, 4380, Note_on_c, 2, 80, 108
4, 4380, Note_on_c, 2, 77, 90
4, 4397, Note_on_c, 2, 77, 0
4, 4404, Note_on_c, 2, 80, 0
4, 4413, Note_on_c, 2, 86, 0
4, 4434, Note_on_c, 2, 46, 0
4, 4440, Note_on_c, 2, 86, 99
4, 4440, Note_on_c, 2, 50, 90
4, 4440, Note_on_c, 2, 80, 117
4, 4440, Note_on_c, 2, 77, 82
4, 4459, Note_on_c, 2, 77, 0
4, 4462, Note_on_c, 2, 80, 0
4, 4469, Note_on_c, 2, 86, 0
4, 4471, Note_on_c, 2, 50, 0
4, 4500, Note_on_c, 2, 86, 108
4, 4500, Note_on_c, 2, 50, 82
4, 4500, Note_on_c, 2, 80, 117
4, 4500, Note_on_c, 2, 77, 99
4, 4521, Note_on_c, 2, 77, 0
4, 4521, Note_on_c, 2, 80, 0
4, 4531, Note_on_c, 2, 86, 0
4, 4550, Note_on_c, 2, 50, 0
4, 4560, Note_on_c, 2, 53, 99
4, 4560, Note_on_c, 2, 86, 117
4, 4560, Note_on_c, 2, 80, 124
4, 4560, Note_on_c, 2, 77, 99
4, 4579, Note_on_c, 2, 77, 0
4, 4583, Note_on_c, 2, 80, 0
4, 4589, Note_on_c, 2, 86, 0
4, 4620, Note_on_c, 2, 86, 99
4, 4620, Note_on_c, 2, 80, 117
4, 4620, Note_on_c, 2, 77, 82
4, 4639, Note_on_c, 2, 77, 0
4, 4641, Note_on_c, 2, 80, 0
4, 4648, Note_on_c, 2, 86, 0
4, 4662, Note_on_c, 2, 53, 0
4, 4680, Note_on_c, 2, 55, 75
4, 4680, Note_on_c, 2, 86, 108
4, 4680, Note_on_c, 2, 80, 117
4, 4680, Note_on_c, 2, 77, 90
4, 4700, Note_on_c, 2, 77, 0
4, 4701, Note_on_c, 2, 80, 0
4, 4710, Note_on_c, 2, 86, 0
4, 4740, Note_on_c, 2, 86, 99
4, 4740, Note_on_c, 2, 80, 117
4, 4740, Note_on_c, 2, 77, 82
4, 4759, Note_on_c, 2, 77, 0
4, 4761, Note_on_c, 2, 80, 0
4, 4769, Note_on_c, 2, 86, 0
4, 4790, Note_on_c, 2, 55, 0
4, 4800, Note_on_c, 2, 46, 108
4, 4800, Note_on_c, 2, 86, 90
4, 4800, Note_on_c, 2, 80, 124
4, 4800, Note_on_c, 2, 77, 82
4, 4817, Note_on_c, 2, 77, 0
4, 4822, Note_on_c, 2, 80, 0
4, 4830, Note_on_c, 2, 86, 0
4, 4860, Note_on_c, 2, 86, 90
4, 4860, Note_on_c, 2, 80, 117
4, 4860, Note_on_c, 2, 77, 68
4, 4873, Note_on_c, 2, 77, 0
4, 4882, Note_on_c, 2, 80, 0
4, 4888, Note_on_c, 2, 86, 0
4, 4896, Note_on_c, 2, 46, 0
4, 4920, Note_on_c, 2, 50, 82
4, 4920, Note_on_c, 2, 86, 90
4, 4920, Note_on_c, 2, 80, 124
4, 4920, Note_on_c, 2, 77, 90
4, 4935, Note_on_c, 2, 77, 0
4, 4944, Note_on_c, 2, 80, 0
4, 4947, Note_on_c, 2, 86, 0
4, 4953, Note_on_c, 2, 50, 0
4, 4980, Note_on_c, 2, 50, 90
4, 4980, Note_on_c, 2, 86, 90
4, 4980, Note_on_c, 2, 80, 124
4, 4980, Note_on_c, 2, 77, 82
4, 4997, Note_on_c, 2, 77, 0
4, 5004, Note_on_c, 2, 80, 0
4, 5009, Note_on_c, 2, 86, 0
4, 5030, Note_on_c, 2, 50, 0
4, 5040, Note_on_c, 2, 53, 99
4, 5040, Note_on_c, 2, 86, 99
4, 5040, Note_on_c, 2, 80, 117
4, 5040, Note_on_c, 2, 77, 75
4, 5059, Note_on_c, 2, 77, 0
4, 5064, Note_on_c, 2, 80, 0
4, 5069, Note_on_c, 2, 86, 0
4, 5100, Note_on_c, 2, 80, 124
4, 5100, Note_on_c, 2, 86, 108
4, 5100, Note_on_c, 2, 77, 99
4, 5121, Note_on_c, 2, 77, 0
4, 5124, Note_on_c, 2, 80, 0
4, 5128, Note_on_c, 2, 86, 0
4, 5148, Note_on_c, 2, 53, 0
4, 5160, Note_on_c, 2, 55, 90
4, 5160, Note_on_c, 2, 86, 99
4, 5160, Note_on_c, 2, 80, 117
4, 5160, Note_on_c, 2, 77, 90
4, 5181, Note_on_c, 2, 77, 0
4, 5183, Note_on_c, 2, 80, 0
4, 5187, Note_on_c, 2, 86, 0
4, 5220, Note_on_c, 2, 86, 90
4, 5220, Note_on_c, 2, 80, 117
4, 5220, Note_on_c, 2, 77, 82
4, 5241, Note_on_c, 2, 77, 0
4, 5244, Note_on_c, 2, 80, 0
4, 5252, Note_on_c, 2, 86, 0
4, 5254, Note_on_c, 2, 55, 0
4, 5280, Note_on_c, 2, 41, 75
4, 5280, Note_on_c, 2, 77, 90
4, 5280, Note_on_c, 2, 84, 108
4, 5280, Note_on_c, 2, 81, 108
4, 5305, Note_on_c, 2, 81, 0
4, 5306, Note_on_c, 2, 77, 0
4, 5309, Note_on_c, 2, 84, 0
4, 5340, Note_on_c, 2, 84, 99
4, 5340, Note_on_c, 2, 77, 82
4, 5340, Note_on_c, 2, 81, 99
4, 5361, Note_on_c, 2, 81, 0
4, 5366, Note_on_c, 2, 77, 0
4, 5369, Note_on_c, 2, 84, 0
4, 5376, Note_on_c, 2, 41, 0
4, 5400, Note_on_c, 2, 45, 90
4, 5400, Note_on_c, 2, 84, 90
4, 5400, Note_on_c, 2, 81, 99
4, 5400, Note_on_c, 2, 77, 90
4, 5423, Note_on_c, 2, 77, 0
4, 5424, Note_on_c, 2, 81, 0
4, 5427, Note_on_c, 2, 84, 0
4, 5433, Note_on_c, 2, 45, 0
4, 5460, Note_on_c, 2, 45, 82
4, 5460, Note_on_c, 2, 84, 99
4, 5460, Note_on_c, 2, 81, 108
4, 5460, Note_on_c, 2, 77, 99
4, 5484, Note_on_c, 2, 77, 0
4, 5484, Note_on_c, 2, 81, 0
4, 5487, Note_on_c, 2, 84, 0
4, 5513, Note_on_c, 2, 45, 0
4, 5520, Note_on_c, 2, 48, 108
4, 5520, Note_on_c, 2, 84, 99
4, 5520, Note_on_c, 2, 77, 82
4, 5520, Note_on_c, 2, 81, 99
4, 5540, Note_on_c, 2, 77, 0
4, 5541, Note_on_c, 2, 81, 0
4, 5546, Note_on_c, 2, 84, 0
4, 5580, Note_on_c, 2, 84, 90
4, 5580, Note_on_c, 2, 81, 108
4, 5580, Note_on_c, 2, 77, 82
4, 5599, Note_on_c, 2, 77, 0
4, 5601, Note_on_c, 2, 81, 0
4, 5606, Note_on_c, 2, 84, 0
4, 5627, Note_on_c, 2, 48, 0
4, 5640, Note_on_c, 2, 50, 82
4, 5640, Note_on_c, 2, 77, 99
4, 5640, Note_on_c, 2, 81, 108
4, 5640, Note_on_c, 2, 84, 90
4, 5662, Note_on_c, 2, 84, 0
4, 5662, Note_on_c, 2, 77, 0
4, 5663, Note_on_c, 2, 81, 0
4, 5700, Note_on_c, 2, 81, 99
4, 5700, Note_on_c, 2, 84, 99
4, 5700, Note_on_c, 2, 77, 90
4, 5719, Note_on_c, 2, 77, 0
4, 5723, Note_on_c, 2, 81, 0
4, 5724, Note_on_c, 2, 84, 0
4, 5743, Note_on_c, 2, 50, 0
4, 5760, Note_on_c, 2, 41, 90
4, 5760, Note_on_c, 2, 77, 82
4, 5760, Note_on_c, 2, 81, 99
4, 5760, Note_on_c, 2, 84, 90
4, 5779, Note_on_c, 2, 77, 0
4, 5781, Note_on_c, 2, 81, 0
4, 5782, Note_on_c, 2, 84, 0
4, 5820, Note_on_c, 2, 77, 90
4, 5820, Note_on_c, 2, 81, 108
4, 5820, Note_on_c, 2, 84, 99
4, 5842, Note_on_c, 2, 84, 0
4, 5842, Note_on_c, 2, 81, 0
4, 5842, Note_on_c, 2, 77, 0
4, 5858, Note_on_c, 2, 41, 0
4, 5880, Note_on_c, 2, 45, 90
4, 5880, Note_on_c, 2, 77, 99
4, 5880, Note_on_c, 2, 84, 108
4, 5880, Note_on_c, 2, 81, 99
4, 5901, Note_on_c, 2, 81, 0
4, 5902, Note_on_c, 2, 77, 0
4, 5903, Note_on_c, 2, 84, 0
4, 5913, Note_on_c, 2, 45, 0
4, 5940, Note_on_c, 2, 45, 82
4, 5940, Note_on_c, 2, 84, 108
4, 5940, Note_on_c, 2, 77, 90
4, 5940, Note_on_c, 2, 81, 108
4, 5957, Note_on_c, 2, 77, 0
4, 5959, Note_on_c, 2, 81, 0
4, 5962, Note_on_c, 2, 84, 0
4, 5992, Note_on_c, 2, 45, 0
4, 6000, Note_on_c, 2, 48, 99
4, 6000, Note_on_c, 2, 77, 99
4, 6000, Note_on_c, 2, 81, 108
4, 6000, Note_on_c, 2, 84, 108
4, 6020, Note_on_c, 2, 77, 0
4, 6021, Note_on_c, 2, 81, 0
4, 6022, Note_on_c, 2, 84, 0
4, 6060, Note_on_c, 2, 81, 99
4, 6060, Note_on_c, 2, 84, 108
4, 6060, Note_on_c, 2, 77, 99
4, 6079, Note_on_c, 2, 77, 0
4, 6082, Note_on_c, 2, 84, 0
4, 6083, Note_on_c, 2, 81, 0
4, 6101, Note_on_c, 2, 48, 0
4, 6120, Note_on_c, 2, 50, 68
4, 6120, Note_on_c, 2, 84, 108
4, 6120, Note_on_c, 2, 81, 90
4, 6120, Note_on_c, 2, 77, 90
4, 6137, Note_on_c, 2, 77, 0
4, 6142, Note_on_c, 2, 81, 0
4, 6147, Note_on_c, 2, 84, 0
4, 6180, Note_on_c, 2, 84, 99
4, 6180, Note_on_c, 2, 81, 99
4, 6180, Note_on_c, 2, 77, 82
4, 6199, Note_on_c, 2, 77, 0
4, 6199, Note_on_c, 2, 81, 0
4, 6204, Note_on_c, 2, 84, 0
4, 6211, Note_on_c, 2, 50, 0
4, 6240, Note_on_c, 2, 48, 99
4, 6240, Note_on_c, 2, 79, 108
4, 6240, Note_on_c, 2, 82, 127
4, 6240, Note_on_c, 2, 88, 108
4, 6258, Note_on_c, 2, 82, 0
4, 6259, Note_on_c, 2, 79, 0
4, 6263, Note_on_c, 2, 88, 0
4, 6300, Note_on_c, 2, 88, 99
4, 6300, Note_on_c, 2, 82, 124
4, 6300, Note_on_c, 2, 79, 82
4, 6315, Note_on_c, 2, 79, 0
4, 6320, Note_on_c, 2, 82, 0
4, 6326, Note_on_c, 2, 88, 0
4, 6344, Note_on_c, 2, 48, 0
4, 6360, Note_on_c, 2, 52, 82
4, 6360, Note_on_c, 2, 82, 127
4, 6360, Note_on_c, 2, 88, 108
4, 6360, Note_on_c, 2, 79, 108
4, 6380, Note_on_c, 2, 79, 0
4, 6383, Note_on_c, 2, 88, 0
4, 6383, Note_on_c, 2, 82, 0
4, 6389, Note_on_c, 2, 52, 0
4, 6420, Note_on_c, 2, 52, 68
4, 6420, Note_on_c, 2, 82, 127
4, 6420, Note_on_c, 2, 79, 108
4, 6420, Note_on_c, 2, 88, 117
4, 6439, Note_on_c, 2, 79, 0
4, 6440, Note_on_c, 2, 88, 0
4, 6440, Note_on_c, 2, 82, 0
4, 6473, Note_on_c, 2, 52, 0
4, 6480, Note_on_c, 2, 55, 99
4, 6480, Note_on_c, 2, 82, 127
4, 6480, Note_on_c, 2, 88, 117
4, 6480, Note_on_c, 2, 79, 99
4, 6500, Note_on_c, 2, 82, 0
4, 6501, Note_on_c, 2, 79, 0
4, 6502, Note_on_c, 2, 88, 0
4, 6540, Note_on_c, 2, 82, 127
4, 6540, Note_on_c, 2, 88, 117
4, 6540, Note_on_c, 2, 79, 99
4, 6563, Note_on_c, 2, 79, 0
4, 6563, Note_on_c, 2, 88, 0
4, 6564, Note_on_c, 2, 82, 0
4, 6592, Note_on_c, 2, 55, 0
4, 6600, Note_on_c, 2, 88, 117
4, 6600, Note_on_c, 2, 79, 99
4, 6600, Note_on_c, 2, 57, 99
4, 6600, Note_on_c, 2, 82, 127
4, 6621, Note_on_c, 2, 79, 0
4, 6623, Note_on_c, 2, 82, 0
4, 6625, Note_on_c, 2, 88, 0
4, 6660, Note_on_c, 2, 88, 99
4, 6660, Note_on_c, 2, 82, 117
4, 6660, Note_on_c, 2, 79, 75
4, 6666, Note_on_c, 2, 57, 0
4, 6680, Note_on_c, 2, 79, 0
4, 6682, Note_on_c, 2, 82, 0
4, 6684, Note_on_c, 2, 88, 0
4, 6720, Note_on_c, 2, 46, 127
4, 6720, Note_on_c, 2, 80, 127
4, 6720, Note_on_c, 2, 86, 124
4, 6720, Note_on_c, 2, 77, 124
4, 6752, Note_on_c, 2, 77, 0
4, 6760, Note_on_c, 2, 80, 0
4, 6761, Note_on_c, 2, 86, 0
4, 6772, Note_on_c, 2, 46, 0
4, 7200, Note_on_c, 2, 84, 108
4, 7200, Note_on_c, 2, 81, 117
4, 7200, Note_on_c, 2, 41, 99
4, 7200, Note_on_c, 2, 77, 108
4, 7223, Note_on_c, 2, 77, 0
4, 7225, Note_on_c, 2, 81, 0
4, 7227, Note_on_c, 2, 84, 0
4, 7260, Note_on_c, 2, 84, 90
4, 7260, Note_on_c, 2, 77, 75
4, 7260, Note_on_c, 2, 81, 90
4, 7281, Note_on_c, 2, 81, 0
4, 7283, Note_on_c, 2, 77, 0
4, 7288, Note_on_c, 2, 84, 0
4, 7306, Note_on_c, 2, 41, 0
4, 7320, Note_on_c, 2, 45, 68
4, 7320, Note_on_c, 2, 77, 99
4, 7320, Note_on_c, 2, 81, 117
4, 7320, Note_on_c, 2, 84, 108
4, 7342, Note_on_c, 2, 84, 0
4, 7342, Note_on_c, 2, 81, 0
4, 7343, Note_on_c, 2, 77, 0
4, 7346, Note_on_c, 2, 45, 0
4, 7380, Note_on_c, 2, 45, 90
4, 7380, Note_on_c, 2, 81, 108
4, 7380, Note_on_c, 2, 77, 68
4, 7380, Note_on_c, 2, 84, 68
4, 7394, Note_on_c, 2, 84, 0
4, 7395, Note_on_c, 2, 77, 0
4, 7400, Note_on_c, 2, 81, 0
4, 7422, Note_on_c, 2, 45, 0
4, 7440, Note_on_c, 2, 48, 99
4, 7440, Note_on_c, 2, 81, 108
4, 7440, Note_on_c, 2, 77, 108
4, 7440, Note_on_c, 2, 84, 99
4, 7463, Note_on_c, 2, 81, 0
4, 7464, Note_on_c, 2, 77, 0
4, 7466, Note_on_c, 2, 84, 0
4, 7500, Note_on_c, 2, 84, 90
4, 7500, Note_on_c, 2, 81, 99
4, 7500, Note_on_c, 2, 77, 61
4, 7519, Note_on_c, 2, 77, 0
4, 7519, Note_on_c, 2, 81, 0
4, 7526, Note_on_c, 2, 84, 0
4, 7546, Note_on_c, 2, 48, 0
4, 7560, Note_on_c, 2, 50, 82
4, 7560, Note_on_c, 2, 84, 99
4, 7560, Note_on_c, 2, 81, 108
4, 7560, Note_on_c, 2, 77, 99
4, 7581, Note_on_c, 2, 81, 0
4, 7582, Note_on_c, 2, 77, 0
4, 7583, Note_on_c, 2, 84, 0
4, 7620, Note_on_c, 2, 84, 90
4, 7620, Note_on_c, 2, 81, 99
4, 7620, Note_on_c, 2, 77, 90
4, 7635, Note_on_c, 2, 77, 0
4, 7638, Note_on_c, 2, 81, 0
4, 7639, Note_on_c, 2, 84, 0
4, 7658, Note_on_c, 2, 50, 0
4, 7680, Note_on_c, 2, 41, 99
4, 7680, Note_on_c, 2, 84, 108
4, 7680, Note_on_c, 2, 81, 117
4, 7680, Note_on_c, 2, 77, 108
4, 7701, Note_on_c, 2, 77, 0
4, 7701, Note_on_c, 2, 81, 0
4, 7707, Note_on_c, 2, 84, 0
4, 7740, Note_on_c, 2, 77, 99
4, 7740, Note_on_c, 2, 81, 108
4, 7740, Note_on_c, 2, 84, 99
4, 7757, Note_on_c, 2, 84, 0
4, 7758, Note_on_c, 2, 81, 0
4, 7758, Note_on_c, 2, 77, 0
4, 7787, Note_on_c, 2, 41, 0
4, 7800, Note_on_c, 2, 45, 90
4, 7800, Note_on_c, 2, 77, 99
4, 7800, Note_on_c, 2, 81, 108
4, 7800, Note_on_c, 2, 84, 99
4, 7817, Note_on_c, 2, 84, 0
4, 7820, Note_on_c, 2, 81, 0
4, 7820, Note_on_c, 2, 77, 0
4, 7829, Note_on_c, 2, 45, 0
4, 7860, Note_on_c, 2, 45, 99
4, 7860, Note_on_c, 2, 81, 108
4, 7860, Note_on_c, 2, 84, 82
4, 7860, Note_on_c, 2, 77, 75
4, 7875, Note_on_c, 2, 77, 0
4, 7879, Note_on_c, 2, 84, 0
4, 7881, Note_on_c, 2, 81, 0
4, 7910, Note_on_c, 2, 45, 0
4, 7920, Note_on_c, 2, 48, 108
4, 7920, Note_on_c, 2, 77, 90
4, 7920, Note_on_c, 2, 84, 99
4, 7920, Note_on_c, 2, 81, 108
4, 7939, Note_on_c, 2, 77, 0
4, 7940, Note_on_c, 2, 81, 0
4, 7943, Note_on_c, 2, 84, 0
4, 7980, Note_on_c, 2, 84, 99
4, 7980, Note_on_c, 2, 77, 90
4, 7980, Note_on_c, 2, 81, 108
4, 7999, Note_on_c, 2, 77, 0
4, 8000, Note_on_c, 2, 81, 0
4, 8001, Note_on_c, 2, 84, 0
4, 8030, Note_on_c, 2, 48, 0
4, 8040, Note_on_c, 2, 84, 108
4, 8040, Note_on_c, 2, 50, 108
4, 8040, Note_on_c, 2, 81, 108
4, 8040, Note_on_c, 2, 77, 99
4, 8059, Note_on_c, 2, 77, 0
4, 8061, Note_on_c, 2, 81, 0
4, 8066, Note_on_c, 2, 84, 0
4, 8100, Note_on_c, 2, 84, 117
4, 8100, Note_on_c, 2, 81, 124
4, 8100, Note_on_c, 2, 77, 117
4, 8105, Note_on_c, 2, 50, 0
4, 8127, Note_on_c, 2, 77, 0
4, 8127, Note_on_c, 2, 81, 0
4, 8129, Note_on_c, 2, 84, 0
4, 8160, Note_on_c, 2, 41, 108
4, 8160, Note_on_c, 2, 77, 117
4, 8160, Note_on_c, 2, 81, 117
4, 8160, Note_on_c, 2, 84, 108
4, 8184, Note_on_c, 2, 81, 0
4, 8185, Note_on_c, 2, 77, 0
4, 8186, Note_on_c, 2, 84, 0
4, 8220, Note_on_c, 2, 81, 82
4, 8220, Note_on_c, 2, 77, 75
4, 8220, Note_on_c, 2, 84, 75
4, 8241, Note_on_c, 2, 77, 0
4, 8242, Note_on_c, 2, 84, 0
4, 8245, Note_on_c, 2, 81, 0
4, 8259, Note_on_c, 2, 41, 0
4, 8280, Note_on_c, 2, 81, 99
4, 8280, Note_on_c, 2, 45, 90
4, 8280, Note_on_c, 2, 84, 90
4, 8280, Note_on_c, 2, 77, 82
4, 8301, Note_on_c, 2, 77, 0
4, 8305, Note_on_c, 2, 81, 0
4, 8306, Note_on_c, 2, 84, 0
4, 8314, Note_on_c, 2, 45, 0
4, 8340, Note_on_c, 2, 45, 90
4, 8340, Note_on_c, 2, 81, 99
4, 8340, Note_on_c, 2, 84, 90
4, 8340, Note_on_c, 2, 77, 68
4, 8357, Note_on_c, 2, 77, 0
4, 8361, Note_on_c, 2, 81, 0
4, 8363, Note_on_c, 2, 84, 0
4, 8398, Note_on_c, 2, 45, 0
4, 8400, Note_on_c, 2, 48, 99
4, 8400, Note_on_c, 2, 81, 108
4, 8400, Note_on_c, 2, 84, 90
4, 8400, Note_on_c, 2, 77, 90
4, 8423, Note_on_c, 2, 77, 0
4, 8425, Note_on_c, 2, 84, 0
4, 8425, Note_on_c, 2, 81, 0
4, 8460, Note_on_c, 2, 84, 61
4, 8460, Note_on_c, 2, 81, 90
4, 8460, Note_on_c, 2, 77, 39
4, 8479, Note_on_c, 2, 77, 0
4, 8482, Note_on_c, 2, 81, 0
4, 8484, Note_on_c, 2, 84, 0
4, 8511, Note_on_c, 2, 48, 0
4, 8520, Note_on_c, 2, 50, 82
4, 8520, Note_on_c, 2, 84, 90
4, 8520, Note_on_c, 2, 81, 99
4, 8520, Note_on_c, 2, 77, 82
4, 8542, Note_on_c, 2, 77, 0
4, 8543, Note_on_c, 2, 81, 0
4, 8551, Note_on_c, 2, 84, 0
4, 8580, Note_on_c, 2, 84, 82
4, 8580, Note_on_c, 2, 81, 90
4, 8580, Note_on_c, 2, 77, 61
4, 8601, Note_on_c, 2, 77, 0
4, 8601, Note_on_c, 2, 81, 0
4, 8603, Note_on_c, 2, 84, 0
4, 8629, Note_on_c, 2, 50, 0
4, 8640, Note_on_c, 2, 41, 82
4, 8640, Note_on_c, 2, 84, 82
4, 8640, Note_on_c, 2, 81, 99
4, 8640, Note_on_c, 2, 77, 82
4, 8663, Note_on_c, 2, 81, 0
4, 8664, Note_on_c, 2, 77, 0
4, 8670, Note_on_c, 2, 84, 0
4, 8700, Note_on_c, 2, 84, 68
4, 8700, Note_on_c, 2, 81, 82
4, 8700, Note_on_c, 2, 77, 61
4, 8719, Note_on_c, 2, 77, 0
4, 8721, Note_on_c, 2, 81, 0
4, 8725, Note_on_c, 2, 84, 0
4, 8734, Note_on_c, 2, 41, 0
4, 8760, Note_on_c, 2, 45, 99
4, 8760, Note_on_c, 2, 84, 99
4, 8760, Note_on_c, 2, 81, 117
4, 8760, Note_on_c, 2, 77, 90
4, 8785, Note_on_c, 2, 77, 0
4, 8786, Note_on_c, 2, 81, 0
4, 8793, Note_on_c, 2, 45, 0
4, 8795, Note_on_c, 2, 84, 0
4, 8820, Note_on_c, 2, 45, 99
4, 8820, Note_on_c, 2, 84, 75
4, 8820, Note_on_c, 2, 81, 90
4, 8820, Note_on_c, 2, 77, 61
4, 8839, Note_on_c, 2, 81, 0
4, 8841, Note_on_c, 2, 77, 0
4, 8841, Note_on_c, 2, 84, 0
4, 8876, Note_on_c, 2, 45, 0
4, 8880, Note_on_c, 2, 48, 99
4, 8880, Note_on_c, 2, 77, 61
4, 8880, Note_on_c, 2, 81, 82
4, 8880, Note_on_c, 2, 84, 45
4, 8901, Note_on_c, 2, 81, 0
4, 8903, Note_on_c, 2, 84, 0
4, 8903, Note_on_c, 2, 77, 0
4, 8940, Note_on_c, 2, 84, 39
4, 8940, Note_on_c, 2, 81, 82
4, 8940, Note_on_c, 2, 77, 39
4, 8959, Note_on_c, 2, 77, 0
4, 8959, Note_on_c, 2, 81, 0
4, 8966, Note_on_c, 2, 84, 0
4, 8988, Note_on_c, 2, 48, 0
4, 9000, Note_on_c, 2, 50, 82
4, 9000, Note_on_c, 2, 84, 90
4, 9000, Note_on_c, 2, 81, 108
4, 9000, Note_on_c, 2, 77, 90
4, 9029, Note_on_c, 2, 81, 0
4, 9032, Note_on_c, 2, 77, 0
4, 9036, Note_on_c, 2, 84, 0
4, 9060, Note_on_c, 2, 77, 68
4, 9060, Note_on_c, 2, 81, 90
4, 9060, Note_on_c, 2, 84, 52
4, 9081, Note_on_c, 2, 81, 0
4, 9084, Note_on_c, 2, 84, 0
4, 9086, Note_on_c, 2, 77, 0
4, 9105, Note_on_c, 2, 50, 0
4, 9120, Note_on_c, 2, 41, 82
4, 9120, Note_on_c, 2, 84, 90
4, 9120, Note_on_c, 2, 81, 82
4, 9120, Note_on_c, 2, 77, 68
4, 9139, Note_on_c, 2, 81, 0
4, 9142, Note_on_c, 2, 77, 0
4, 9148, Note_on_c, 2, 84, 0
4, 9180, Note_on_c, 2, 84, 61
4, 9180, Note_on_c, 2, 81, 90
4, 9180, Note_on_c, 2, 77, 61
4, 9200, Note_on_c, 2, 77, 0
4, 9201, Note_on_c, 2, 81, 0
4, 9206, Note_on_c, 2, 84, 0
4, 9218, Note_on_c, 2, 41, 0
4, 9240, Note_on_c, 2, 45, 90
4, 9240, Note_on_c, 2, 84, 82
4, 9240, Note_on_c, 2, 77, 82
4, 9240, Note_on_c, 2, 81, 99
4, 9263, Note_on_c, 2, 81, 0
4, 9269, Note_on_c, 2, 45, 0
4, 9271, Note_on_c, 2, 77, 0
4, 9277, Note_on_c, 2, 84, 0
4, 9300, Note_on_c, 2, 45, 99
4, 9300, Note_on_c, 2, 84, 61
4, 9300, Note_on_c, 2, 81, 99
4, 9300, Note_on_c, 2, 77, 61
4, 9321, Note_on_c, 2, 81, 0
4, 9324, Note_on_c, 2, 77, 0
4, 9331, Note_on_c, 2, 84, 0
4, 9355, Note_on_c, 2, 45, 0
4, 9360, Note_on_c, 2, 48, 99
4, 9360, Note_on_c, 2, 84, 75
4, 9360, Note_on_c, 2, 77, 75
4, 9360, Note_on_c, 2, 81, 90
4, 9381, Note_on_c, 2, 81, 0
4, 9386, Note_on_c, 2, 77, 0
4, 9393, Note_on_c, 2, 84, 0
4, 9420, Note_on_c, 2, 84, 82
4, 9420, Note_on_c, 2, 81, 90
4, 9420, Note_on_c, 2, 77, 75
4, 9439, Note_on_c, 2, 81, 0
4, 9440, Note_on_c, 2, 77, 0
4, 9444, Note_on_c, 2, 84, 0
4, 9467, Note_on_c, 2, 48, 0
4, 9480, Note_on_c, 2, 50, 82
4, 9480, Note_on_c, 2, 77, 90
4, 9480, Note_on_c, 2, 84, 99
4, 9480, Note_on_c, 2, 81, 99
4, 9501, Note_on_c, 2, 81, 0
4, 9506, Note_on_c, 2, 77, 0
4, 9509, Note_on_c, 2, 84, 0
4, 9540, Note_on_c, 2, 77, 75
4, 9540, Note_on_c, 2, 84, 90
4, 9540, Note_on_c, 2, 81, 108
4, 9561, Note_on_c, 2, 81, 0
4, 9563, Note_on_c, 2, 77, 0
4, 9564, Note_on_c, 2, 84, 0
4, 9587, Note_on_c, 2, 50, 0
4, 9600, Note_on_c, 2, 41, 90
4, 9600, Note_on_c, 2, 84, 90
4, 9600, Note_on_c, 2, 81, 90
4, 9600, Note_on_c, 2, 77, 75
4, 9621, Note_on_c, 2, 81, 0
4, 9622, Note_on_c, 2, 77, 0
4, 9628, Note_on_c, 2, 84, 0
4, 9660, Note_on_c, 2, 77, 75
4, 9660, Note_on_c, 2, 84, 99
4, 9660, Note_on_c, 2, 81, 99
4, 9679, Note_on_c, 2, 81, 0
4, 9681, Note_on_c, 2, 77, 0
4, 9684, Note_on_c, 2, 84, 0
4, 9701, Note_on_c, 2, 41, 0
4, 9720, Note_on_c, 2, 45, 90
4, 9720, Note_on_c, 2, 84, 108
4, 9720, Note_on_c, 2, 77, 99
4, 9720, Note_on_c, 2, 81, 99
4, 9741, Note_on_c, 2, 81, 0
4, 9744, Note_on_c, 2, 77, 0
4, 9748, Note_on_c, 2, 84, 0
4, 9753, Note_on_c, 2, 45, 0
4, 9780, Note_on_c, 2, 45, 90
4, 9780, Note_on_c, 2, 84, 90
4, 9780, Note_on_c, 2, 81, 99
4, 9780, Note_on_c, 2, 77, 82
4, 9801, Note_on_c, 2, 81, 0
4, 9802, Note_on_c, 2, 77, 0
4, 9806, Note_on_c, 2, 84, 0
4, 9833, Note_on_c, 2, 45, 0
4, 9840, Note_on_c, 2, 48, 99
4, 9840, Note_on_c, 2, 84, 90
4, 9840, Note_on_c, 2, 81, 108
4, 9840, Note_on_c, 2, 77, 82
4, 9861, Note_on_c, 2, 77, 0
4, 9861, Note_on_c, 2, 81, 0
4, 9866, Note_on_c, 2, 84, 0
4, 9900, Note_on_c, 2, 81, 99
4, 9900, Note_on_c, 2, 77, 82
4, 9900, Note_on_c, 2, 84, 90
4, 9921, Note_on_c, 2, 77, 0
4, 9923, Note_on_c, 2, 81, 0
4, 9924, Note_on_c, 2, 84, 0
4, 9944, Note_on_c, 2, 48, 0
4, 9960, Note_on_c, 2, 50, 82
4, 9960, Note_on_c, 2, 84, 99
4, 9960, Note_on_c, 2, 81, 108
4, 9960, Note_on_c, 2, 77, 90
4, 9983, Note_on_c, 2, 77, 0
4, 9985, Note_on_c, 2, 81, 0
4, 9985, Note_on_c, 2, 84, 0
4, 10020, Note_on_c, 2, 84, 82
4, 10020, Note_on_c, 2, 77, 75
4, 10020, Note_on_c, 2, 81, 90
4, 10039, Note_on_c, 2, 81, 0
4, 10043, Note_on_c, 2, 84, 0
4, 10046, Note_on_c, 2, 77, 0
4, 10072, Note_on_c, 2, 50, 0
4, 10080, Note_on_c, 2, 46, 117
4, 10080, Note_on_c, 2, 86, 108
4, 10080, Note_on_c, 2, 80, 124
4, 10080, Note_on_c, 2, 77, 90
4, 10099, Note_on_c, 2, 77, 0
4, 10110, Note_on_c, 2, 80, 0
4, 10112, Note_on_c, 2, 86, 0
4, 10140, Note_on_c, 2, 86, 82
4, 10140, Note_on_c, 2, 80, 108
4, 10140, Note_on_c, 2, 77, 90
4, 10157, Note_on_c, 2, 77, 0
4, 10164, Note_on_c, 2, 80, 0
4, 10173, Note_on_c, 2, 86, 0
4, 10194, Note_on_c, 2, 46, 0
4, 10200, Note_on_c, 2, 86, 99
4, 10200, Note_on_c, 2, 50, 90
4, 10200, Note_on_c, 2, 80, 117
4, 10200, Note_on_c, 2, 77, 82
4, 10219, Note_on_c, 2, 77, 0
4, 10222, Note_on_c, 2, 80, 0
4, 10229, Note_on_c, 2, 86, 0
4, 10231, Note_on_c, 2, 50, 0
4, 10260, Note_on_c, 2, 86, 108
4, 10260, Note_on_c, 2, 50, 82
4, 10260, Note_on_c, 2, 80, 117
4, 10260, Note_on_c, 2, 77, 99
4, 10281, Note_on_c, 2, 77, 0
4, 10281, Note_on_c, 2, 80, 0
4, 10291, Note_on_c, 2, 86, 0
4, 10310, Note_on_c, 2, 50, 0
4, 10320, Note_on_c, 2, 53, 99
4, 10320, Note_on_c, 2, 86, 117
4, 10320, Note_on_c, 2, 80, 124
4, 10320, Note_on_c, 2, 77, 99
4, 10339, Note_on_c, 2, 77, 0
4, 10343, Note_on_c, 2, 80, 0
4, 10349, Note_on_c, 2, 86, 0
4, 10380, Note_on_c, 2, 86, 99
4, 10380, Note_on_c, 2, 80, 117
4, 10380, Note_on_c, 2, 77, 82
4, 10399, Note_on_c, 2, 77, 0
4, 10401, Note_on_c, 2, 80, 0
4, 10408, Note_on_c, 2, 86, 0
4, 10422, Note_on_c, 2, 53, 0
4, 10440, Note_on_c, 2, 55, 75
4, 10440, Note_on_c, 2, 86, 108
4, 10440, Note_on_c, 2, 80, 117
4, 10440, Note_on_c, 2, 77, 90
4, 10460, Note_on_c, 2, 77, 0
4, 10461, Note_on_c, 2, 80, 0
4, 10470, Note_on_c, 2, 86, 0
4, 10500, Note_on_c, 2, 86, 99
4, 10500, Note_on_c, 2, 80, 117
4, 10500, Note_on_c, 2, 77, 82
4, 10519, Note_on_c, 2, 77, 0
4, 10521, Note_on_c, 2, 80, 0
4, 10529, Note_on_c, 2, 86, 0
4, 10550, Note_on_c, 2, 55, 0
4, 10560, Note_on_c, 2, 46, 108
4, 10560, Note_on_c, 2, 86, 90
4, 10560, Note_on_c, 2, 80, 124
4, 10560, Note_on_c, 2, 77, 82
4, 10577, Note_on_c, 2, 77, 0
4, 10582, Note_on_c, 2, 80, 0
4, 10590, Note_on_c, 2, 86, 0
4, 10620, Note_on_c, 2, 86, 90
4, 10620, Note_on_c, 2, 80, 117
4, 10620, Note_on_c, 2, 77, 68
4, 10633, Note_on_c, 2, 77, 0
4, 10642, Note_on_c, 2, 80, 0
4, 10648, Note_on_c, 2, 86, 0
4, 10656, Note_on_c, 2, 46, 0
4, 10680, Note_on_c, 2, 50, 82
4, 10680, Note_on_c, 2, 86, 90
4, 10680, Note_on_c, 2, 80, 124
4, 10680, Note_on_c, 2, 77, 90
4, 10695, Note_on_c, 2, 77, 0
4, 10704, Note_on_c, 2, 80, 0
4, 10707, Note_on_c, 2, 86, 0
4, 10713, Note_on_c, 2, 50, 0
4, 10740, Note_on_c, 2, 50, 90
4, 10740, Note_on_c, 2, 86, 90
4, 10740, Note_on_c, 2, 80, 124
4, 10740, Note_on_c, 2, 77, 82
4, 10757, Note_on_c, 2, 77, 0
4, 10764, Note_on_c, 2, 80, 0
4, 10769, Note_on_c, 2, 86, 0
4, 10790, Note_on_c, 2, 50, 0
4, 10800, Note_on_c, 2, 53, 99
4, 10800, Note_on_c, 2, 86, 99
4, 10800, Note_on_c, 2, 80, 117
4, 10800, Note_on_c, 2, 77, 75
4, 10819, Note_on_c, 2, 77, 0
4, 10824, Note_on_c, 2, 80, 0
4, 10829, Note_on_c, 2, 86, 0
4, 10860, Note_on_c, 2, 80, 124
4, 10860, Note_on_c, 2, 86, 108
4, 10860, Note_on_c, 2, 77, 99
4, 10881, Note_on_c, 2, 77, 0
4, 10884, Note_on_c, 2, 80, 0
4, 10888, Note_on_c, 2, 86, 0
4, 10908, Note_on_c, 2, 53, 0
4, 10920, Note_on_c, 2, 55, 90
4, 10920, Note_on_c, 2, 86, 99
4, 10920, Note_on_c, 2, 80, 117
4, 10920, Note_on_c, 2, 77, 90
4, 10941, Note_on_c, 2, 77, 0
4, 10943, Note_on_c, 2, 80, 0
4, 10947, Note_on_c, 2, 86, 0
4, 10980, Note_on_c, 2, 86, 90
4, 10980, Note_on_c, 2, 80, 117
4, 10980, Note_on_c, 2, 77, 82
4, 11001, Note_on_c, 2, 77, 0
4, 11004, Note_on_c, 2, 80, 0
4, 11012, Note_on_c, 2, 86, 0
4, 11014, Note_on_c, 2, 55, 0
4, 11040, Note_on_c, 2, 41, 75
4, 11040, Note_on_c, 2, 77, 90
4, 11040, Note_on_c, 2, 84, 108
4, 11040, Note_on_c, 2, 81, 108
4, 11065, Note_on_c, 2, 81, 0
4, 11066, Note_on_c, 2, 77, 0
4, 11069, Note_on_c, 2, 84, 0
4, 11100, Note_on_c, 2, 84, 99
4, 11100, Note_on_c, 2, 77, 82
4, 11100, Note_on_c, 2, 81, 99
4, 11121, Note_on_c, 2, 81, 0
4, 11126, Note_on_c, 2, 77, 0
4, 11129, Note_on_c, 2, 84, 0
4, 11136, Note_on_c, 2, 41, 0
4, 11160, Note_on_c, 2, 45, 90
4, 11160, Note_on_c, 2, 84, 90
4, 11160, Note_on_c, 2, 81, 99
4, 11160, Note_on_c, 2, 77, 90
4, 11183, Note_on_c, 2, 77, 0
4, 11184, Note_on_c, 2, 81, 0
4, 11187, Note_on_c, 2, 84, 0
4, 11193, Note_on_c, 2, 45, 0
4, 11220, Note_on_c, 2, 45, 82
4, 11220, Note_on_c, 2, 84, 99
4, 11220, Note_on_c, 2, 81, 108
4, 11220, Note_on_c, 2, 77, 99
4, 11244, Note_on_c, 2, 77, 0
4, 11244, Note_on_c, 2, 81, 0
4, 11247, Note_on_c, 2, 84, 0
4, 11273, Note_on_c, 2, 45, 0
4, 11280, Note_on_c, 2, 48, 108
4, 11280, Note_on_c, 2, 84, 99
4, 11280, Note_on_c, 2, 77, 82
4, 11280, Note_on_c, 2, 81, 99
4, 11300, Note_on_c, 2, 77, 0
4, 11301, Note_on_c, 2, 81, 0
4, 11306, Note_on_c, 2, 84, 0
4, 11340, Note_on_c, 2, 84, 90
4, 11340, Note_on_c, 2, 81, 108
4, 11340, Note_on_c, 2, 77, 82
4, 11359, Note_on_c, 2, 77, 0
4, 11361, Note_on_c, 2, 81, 0
4, 11366, Note_on_c, 2, 84, 0
4, 11387, Note_on_c, 2, 48, 0
4, 11400, Note_on_c, 2, 50, 82
4, 11400, Note_on_c, 2, 77, 99
4, 11400, Note_on_c, 2, 81, 108
4, 11400, Note_on_c, 2, 84, 90
4, 11422, Note_on_c, 2, 84, 0
4, 11422, Note_on_c, 2, 77, 0
4, 11423, Note_on_c, 2, 81, 0
4, 11460, Note_on_c, 2, 81, 99
4, 11460, Note_on_c, 2, 84, 99
4, 11460, Note_on_c, 2, 77, 90
4, 11479, Note_on_c, 2, 77, 0
4, 11483, Note_on_c, 2, 81, 0
4, 11484, Note_on_c, 2, 84, 0
4, 11503, Note_on_c, 2, 50, 0
4, 11520, Note_on_c, 2, 41, 90
4, 11520, Note_on_c, 2, 77, 82
4, 11520, Note_on_c, 2, 81, 99
4, 11520, Note_on_c, 2, 84, 90
4, 11539, Note_on_c, 2, 77, 0
4, 11541, Note_on_c, 2, 81, 0
4, 11542, Note_on_c, 2, 84, 0
4, 11580, Note_on_c, 2, 77, 90
4, 11580, Note_on_c, 2, 81, 108
4, 11580, Note_on_c, 2, 84, 99
4, 11602, Note_on_c, 2, 84, 0
4, 11602, Note_on_c, 2, 81, 0
4, 11602, Note_on_c, 2, 77, 0
4, 11618, Note_on_c, 2, 41, 0
4, 11640, Note_on_c, 2, 45, 90
4, 11640, Note_on_c, 2, 77, 99
4, 11640, Note_on_c, 2, 84, 108
4, 11640, Note_on_c, 2, 81, 99
4, 11661, Note_on_c, 2, 81, 0
4, 11662, Note_on_c, 2, 77, 0
4, 11663, Note_on_c, 2, 84, 0
4, 11673, Note_on_c, 2, 45, 0
4, 11700, Note_on_c, 2, 45, 82
4, 11700, Note_on_c, 2, 84, 108
4, 11700, Note_on_c, 2, 77, 90
4, 11700, Note_on_c, 2, 81, 108
4, 11717, Note_on_c, 2, 77, 0
4, 11719, Note_on_c, 2, 81, 0
4, 11722, Note_on_c, 2, 84, 0
4, 11752, Note_on_c, 2, 45, 0
4, 11760, Note_on_c, 2, 48, 99
4, 11760, Note_on_c, 2, 77, 99
4, 11760, Note_on_c, 2, 81, 108
4, 11760, Note_on_c, 2, 84, 108
4, 11780, Note_on_c, 2, 77, 0
4, 11781, Note_on_c, 2, 81, 0
4, 11782, Note_on_c, 2, 84, 0
4, 11820, Note_on_c, 2, 81, 99
4, 11820, Note_on_c, 2, 84, 108
4, 11820, Note_on_c, 2, 77, 99
4, 11839, Note_on_c, 2, 77, 0
4, 11842, Note_on_c, 2, 84, 0
4, 11843, Note_on_c, 2, 81, 0
4, 11861, Note_on_c, 2, 48, 0
4, 11880, Note_on_c, 2, 50, 68
4, 11880, Note_on_c, 2, 84, 108
4, 11880, Note_on_c, 2, 81, 90
4, 11880, Note_on_c, 2, 77, 90
4, 11897, Note_on_c, 2, 77, 0
4, 11902, Note_on_c, 2, 81, 0
4, 11907, Note_on_c, 2, 84, 0
4, 11940, Note_on_c, 2, 84, 99
4, 11940, Note_on_c, 2, 81, 99
4, 11940, Note_on_c, 2, 77, 82
4, 11959, Note_on_c, 2, 77, 0
4, 11959, Note_on_c, 2, 81, 0
4, 11964, Note_on_c, 2, 84, 0
4, 11971, Note_on_c, 2, 50, 0
4, 12000, Note_on_c, 2, 48, 99
4, 12000, Note_on_c, 2, 79, 108
4, 12000, Note_on_c, 2, 82, 127
4, 12000, Note_on_c, 2, 88, 108
4, 12018, Note_on_c, 2, 82, 0
4, 12019, Note_on_c, 2, 79, 0
4, 12023, Note_on_c, 2, 88, 0
4, 12060, Note_on_c, 2, 88, 99
4, 12060, Note_on_c, 2, 82, 124
4, 12060, Note_on_c, 2, 79, 82
4, 12075, Note_on_c, 2, 79, 0
4, 12080, Note_on_c, 2, 82, 0
4, 12086, Note_on_c, 2, 88, 0
4, 12104, Note_on_c, 2, 48, 0
4, 12120, Note_on_c, 2, 52, 82
4, 12120, Note_on_c, 2, 82, 127
4, 12120, Note_on_c, 2, 88, 108
4, 12120, Note_on_c, 2, 79, 108
4, 12140, Note_on_c, 2, 79, 0
4, 12143, Note_on_c, 2, 88, 0
4, 12143, Note_on_c, 2, 82, 0
4, 12149, Note_on_c, 2, 52, 0
4, 12180, Note_on_c, 2, 52, 68
4, 12180, Note_on_c, 2, 82, 127
4, 12180, Note_on_c, 2, 79, 108
4, 12180, Note_on_c, 2, 88, 117
4, 12199, Note_on_c, 2, 79, 0
4, 12200, Note_on_c, 2, 88, 0
4, 12200, Note_on_c, 2, 82, 0
4, 12233, Note_on_c, 2, 52, 0
4, 12240, Note_on_c, 2, 55, 99
4, 12240, Note_on_c, 2, 82, 127
4, 12240, Note_on_c, 2, 88, 117
4, 12240, Note_on_c, 2, 79, 99
4, 12260, Note_on_c, 2, 82, 0
4, 12261, Note_on_c, 2, 79, 0
4, 12262, Note_on_c, 2, 88, 0
4, 12300, Note_on_c, 2, 82, 127
4, 12300, Note_on_c, 2, 88, 117
4, 12300, Note_on_c, 2, 79, 99
4, 12323, Note_on_c, 2, 79, 0
4, 12323, Note_on_c, 2, 88, 0
4, 12324, Note_on_c, 2, 82, 0
4, 12352, Note_on_c, 2, 55, 0
4, 12360, Note_on_c, 2, 88, 117
4, 12360, Note_on_c, 2, 79, 99
4, 12360, Note_on_c, 2, 57, 99
4, 12360, Note_on_c, 2, 82, 127
4, 12381, Note_on_c, 2, 79, 0
4, 12383, Note_on_c, 2, 82, 0
4, 12385, Note_on_c, 2, 88, 0
4, 12420, Note_on_c, 2, 88, 99
4, 12420, Note_on_c, 2, 82, 117
4, 12420, Note_on_c, 2, 79, 75
4, 12426, Note_on_c, 2, 57, 0
4, 12440, Note_on_c, 2, 79, 0
4, 12442, Note_on_c, 2, 82, 0
4, 12444, Note_on_c, 2, 88, 0
4, 12480, Note_on_c, 2, 46, 127
4, 12480, Note_on_c, 2, 80, 127
4, 12480, Note_on_c, 2, 86, 124
4, 12480, Note_on_c, 2, 77, 124
4, 12480, Note_on_c, 2, 80, 127
4, 12480, Note_on_c, 2, 77, 117
4, 12480, Note_on_c, 2, 86, 117
4, 12501, Note_on_c, 2, 77, 0
4, 12503, Note_on_c, 2, 80, 0
4, 12504, Note_on_c, 2, 86, 0
4, 12512, Note_on_c, 2, 77, 0
4, 12520, Note_on_c, 2, 80, 0
4, 12521, Note_on_c, 2, 86, 0
4, 12532, Note_on_c, 2, 46, 0
4, 12540, Note_on_c, 2, 86, 108
4, 12540, Note_on_c, 2, 80, 117
4, 12540, Note_on_c, 2, 77, 75
4, 12555, Note_on_c, 2, 77, 0
4, 12559, Note_on_c, 2, 80, 0
4, 12565, Note_on_c, 2, 86, 0
4, 12600, Note_on_c, 2, 80, 127
4, 12600, Note_on_c, 2, 77, 108
4, 12600, Note_on_c, 2, 86, 117
4, 12619, Note_on_c, 2, 77, 0
4, 12619, Note_on_c, 2, 80, 0
4, 12621, Note_on_c, 2, 86, 0
4, 12660, Note_on_c, 2, 86, 117
4, 12660, Note_on_c, 2, 80, 124
4, 12660, Note_on_c, 2, 77, 99
4, 12675, Note_on_c, 2, 77, 0
4, 12677, Note_on_c, 2, 80, 0
4, 12682, Note_on_c, 2, 86, 0
4, 12720, Note_on_c, 2, 86, 117
4, 12720, Note_on_c, 2, 80, 124
4, 12720, Note_on_c, 2, 77, 99
4, 12738, Note_on_c, 2, 77, 0
4, 12738, Note_on_c, 2, 80, 0
4, 12747, Note_on_c, 2, 86, 0
4, 12780, Note_on_c, 2, 86, 99
4, 12780, Note_on_c, 2, 80, 124
4, 12780, Note_on_c, 2, 77, 82
4, 12797, Note_on_c, 2, 77, 0
4, 12799, Note_on_c, 2, 80, 0
4, 12807, Note_on_c, 2, 86, 0
4, 12840, Note_on_c, 2, 86, 99
4, 12840, Note_on_c, 2, 80, 124
4, 12840, Note_on_c, 2, 77, 99
4, 12859, Note_on_c, 2, 77, 0
4, 12862, Note_on_c, 2, 80, 0
4, 12870, Note_on_c, 2, 86, 0
4, 12900, Note_on_c, 2, 86, 117
4, 12900, Note_on_c, 2, 80, 127
4, 12900, Note_on_c, 2, 77, 117
4, 12923, Note_on_c, 2, 77, 0
4, 12928, Note_on_c, 2, 80, 0
4, 12934, Note_on_c, 2, 86, 0
4, 12960, Note_on_c, 2, 84, 108
4, 12960, Note_on_c, 2, 81, 117
4, 12960, Note_on_c, 2, 41, 99
4, 12960, Note_on_c, 2, 77, 108
4, 12983, Note_on_c, 2, 77, 0
4, 12985, Note_on_c, 2, 81, 0
4, 12987, Note_on_c, 2, 84, 0
4, 13020, Note_on_c, 2, 84, 90
4, 13020, Note_on_c, 2, 77, 75
4, 13020, Note_on_c, 2, 81, 90
4, 13041, Note_on_c, 2, 81, 0
4, 13043, Note_on_c, 2, 77, 0
4, 13048, Note_on_c, 2, 84, 0
4, 13066, Note_on_c, 2, 41, 0
4, 13080, Note_on_c, 2, 45, 68
4, 13080, Note_on_c, 2, 77, 99
4, 13080, Note_on_c, 2, 81, 117
4, 13080, Note_on_c, 2, 84, 108
4, 13102, Note_on_c, 2, 84, 0
4, 13102, Note_on_c, 2, 81, 0
4, 13103, Note_on_c, 2, 77, 0
4, 13106, Note_on_c, 2, 45, 0
4, 13140, Note_on_c, 2, 45, 90
4, 13140, Note_on_c, 2, 81, 108
4, 13140, Note_on_c, 2, 77, 68
4, 13140, Note_on_c, 2, 84, 68
4, 13154, Note_on_c, 2, 84, 0
4, 13155, Note_on_c, 2, 77, 0
4, 13160, Note_on_c, 2, 81, 0
4, 13182, Note_on_c, 2, 45, 0
4, 13200, Note_on_c, 2, 48, 99
4, 13200, Note_on_c, 2, 81, 108
4, 13200, Note_on_c, 2, 77, 108
4, 13200, Note_on_c, 2, 84, 99
4, 13223, Note_on_c, 2, 81, 0
4, 13224, Note_on_c, 2, 77, 0
4, 13226, Note_on_c, 2, 84, 0
4, 13260, Note_on_c, 2, 84, 90
4, 13260, Note_on_c, 2, 81, 99
4, 13260, Note_on_c, 2, 77, 61
4, 13279, Note_on_c, 2, 77, 0
4, 13279, Note_on_c, 2, 81, 0
4, 13286, Note_on_c, 2, 84, 0
4, 13306, Note_on_c, 2, 48, 0
4, 13320, Note_on_c, 2, 50, 82
4, 13320, Note_on_c, 2, 84, 99
4, 13320, Note_on_c, 2, 81, 108
4, 13320, Note_on_c, 2, 77, 99
4, 13341, Note_on_c, 2, 81, 0
4, 13342, Note_on_c, 2, 77, 0
4, 13343, Note_on_c, 2, 84, 0
4, 13380, Note_on_c, 2, 84, 90
4, 13380, Note_on_c, 2, 81, 99
4, 13380, Note_on_c, 2, 77, 90
4, 13395, Note_on_c, 2, 77, 0
4, 13398, Note_on_c, 2, 81, 0
4, 13399, Note_on_c, 2, 84, 0
4, 13418, Note_on_c, 2, 50, 0
4, 13440, Note_on_c, 2, 41, 99
4, 13440, Note_on_c, 2, 84, 108
4, 13440, Note_on_c, 2, 81, 117
4, 13440, Note_on_c, 2, 77, 108
4, 13461, Note_on_c, 2, 77, 0
4, 13461, Note_on_c, 2, 81, 0
4, 13467, Note_on_c, 2, 84, 0
4, 13500, Note_on_c, 2, 77, 99
4, 13500, Note_on_c, 2, 81, 108
4, 13500, Note_on_c, 2, 84, 99
4, 13517, Note_on_c, 2, 84, 0
4, 13518, Note_on_c, 2, 81, 0
4, 13518, Note_on_c, 2, 77, 0
4, 13547, Note_on_c, 2, 41, 0
4, 13560, Note_on_c, 2, 45, 90
4, 13560, Note_on_c, 2, 77, 99
4, 13560, Note_on_c, 2, 81, 108
4, 13560, Note_on_c, 2, 84, 99
4, 13577, Note_on_c, 2, 84, 0
4, 13580, Note_on_c, 2, 81, 0
4, 13580, Note_on_c, 2, 77, 0
4, 13589, Note_on_c, 2, 45, 0
4, 13620, Note_on_c, 2, 45, 99
4, 13620, Note_on_c, 2, 81, 108
4, 13620, Note_on_c, 2, 84, 82
4, 13620, Note_on_c, 2, 77, 75
4, 13635, Note_on_c, 2, 77, 0
4, 13639, Note_on_c, 2, 84, 0
4, 13641, Note_on_c, 2, 81, 0
4, 13670, Note_on_c, 2, 45, 0
4, 13680, Note_on_c, 2, 48, 108
4, 13680, Note_on_c, 2, 77, 90
4, 13680, Note_on_c, 2, 84, 99
4, 13680, Note_on_c, 2, 81, 108
4, 13699, Note_on_c, 2, 77, 0
4, 13700, Note_on_c, 2, 81, 0
4, 13703, Note_on_c, 2, 84, 0
4, 13740, Note_on_c, 2, 84, 99
4, 13740, Note_on_c, 2, 77, 90
4, 13740, Note_on_c, 2, 81, 108
4, 13759, Note_on_c, 2, 77, 0
4, 13760, Note_on_c, 2, 81, 0
4, 13761, Note_on_c, 2, 84, 0
4, 13790, Note_on_c, 2, 48, 0
4, 13800, Note_on_c, 2, 84, 108
4, 13800, Note_on_c, 2, 50, 108
4, 13800, Note_on_c, 2, 81, 108
4, 13800, Note_on_c, 2, 77, 99
4, 13819, Note_on_c, 2, 77, 0
4, 13821, Note_on_c, 2, 81, 0
4, 13826, Note_on_c, 2, 84, 0
4, 13860, Note_on_c, 2, 84, 117
4, 13860, Note_on_c, 2, 81, 124
4, 13860, Note_on_c, 2, 77, 117
4, 13865, Note_on_c, 2, 50, 0
4, 13887, Note_on_c, 2, 77, 0
4, 13887, Note_on_c, 2, 81, 0
4, 13889, Note_on_c, 2, 84, 0
4, 13920, Note_on_c, 2, 41, 108
4, 13920, Note_on_c, 2, 77, 117
4, 13920, Note_on_c, 2, 81, 117
4, 13920, Note_on_c, 2, 84, 108
4, 13944, Note_on_c, 2, 81, 0
4, 13945, Note_on_c, 2, 77, 0
4, 13946, Note_on_c, 2, 84, 0
4, 13980, Note_on_c, 2, 81, 82
4, 13980, Note_on_c, 2, 77, 75
4, 13980, Note_on_c, 2, 84, 75
4, 14001, Note_on_c, 2, 77, 0
4, 14002, Note_on_c, 2, 84, 0
4, 14005, Note_on_c, 2, 81, 0
4, 14019, Note_on_c, 2, 41, 0
4, 14040, Note_on_c, 2, 81, 99
4, 14040, Note_on_c, 2, 45, 90
4, 14040, Note_on_c, 2, 84, 90
4, 14040, Note_on_c, 2, 77, 82
4, 14061, Note_on_c, 2, 77, 0
4, 14065, Note_on_c, 2, 81, 0
4, 14066, Note_on_c, 2, 84, 0
4, 14074, Note_on_c, 2, 45, 0
4, 14100, Note_on_c, 2, 45, 90
4, 14100, Note_on_c, 2, 81, 99
4, 14100, Note_on_c, 2, 84, 90
4, 14100, Note_on_c, 2, 77, 68
4, 14117, Note_on_c, 2, 77, 0
4, 14121, Note_on_c, 2, 81, 0
4, 14123, Note_on_c, 2, 84, 0
4, 14158, Note_on_c, 2, 45, 0
4, 14160, Note_on_c, 2, 48, 99
4, 14160, Note_on_c, 2, 81, 108
4, 14160, Note_on_c, 2, 84, 90
4, 14160, Note_on_c, 2, 77, 90
4, 14183, Note_on_c, 2, 77, 0
4, 14185, Note_on_c, 2, 84, 0
4, 14185, Note_on_c, 2, 81, 0
4, 14220, Note_on_c, 2, 84, 61
4, 14220, Note_on_c, 2, 81, 90
4, 14220, Note_on_c, 2, 77, 39
4, 14239, Note_on_c, 2, 77, 0
4, 14242, Note_on_c, 2, 81, 0
4, 14244, Note_on_c, 2, 84, 0
4, 14271, Note_on_c, 2, 48, 0
4, 14280, Note_on_c, 2, 50, 82
4, 14280, Note_on_c, 2, 84, 90
4, 14280, Note_on_c, 2, 81, 99
4, 14280, Note_on_c, 2, 77, 82
4, 14302, Note_on_c, 2, 77, 0
4, 14303, Note_on_c, 2, 81, 0
4, 14311, Note_on_c, 2, 84, 0
4, 14340, Note_on_c, 2, 84, 82
4, 14340, Note_on_c, 2, 81, 90
4, 14340, Note_on_c, 2, 77, 61
4, 14361, Note_on_c, 2, 77, 0
4, 14361, Note_on_c, 2, 81, 0
4, 14363, Note_on_c, 2, 84, 0
4, 14389, Note_on_c, 2, 50, 0
4, 14400, Note_on_c, 2, 41, 82
4, 14400, Note_on_c, 2, 84, 82
4, 14400, Note_on_c, 2, 81, 99
4, 14400, Note_on_c, 2, 77, 82
4, 14423, Note_on_c, 2, 81, 0
4, 14424, Note_on_c, 2, 77, 0
4, 14430, Note_on_c, 2, 84, 0
4, 14460, Note_on_c, 2, 84, 68
4, 14460, Note_on_c, 2, 81, 82
4, 14460, Note_on_c, 2, 77, 61
4, 14479, Note_on_c, 2, 77, 0
4, 14481, Note_on_c, 2, 81, 0
4, 14485, Note_on_c, 2, 84, 0
4, 14494, Note_on_c, 2, 41, 0
4, 14520, Note_on_c, 2, 45, 99
4, 14520, Note_on_c, 2, 84, 99
4, 14520, Note_on_c, 2, 81, 117
4, 14520, Note_on_c, 2, 77, 90
4, 14545, Note_on_c, 2, 77, 0
4, 14546, Note_on_c, 2, 81, 0
4, 14553, Note_on_c, 2, 45, 0
4, 14555, Note_on_c, 2, 84, 0
4, 14580, Note_on_c, 2, 45, 99
4, 14580, Note_on_c, 2, 84, 75
4, 14580, Note_on_c, 2, 81, 90
4, 14580, Note_on_c, 2, 77, 61
4, 14599, Note_on_c, 2, 81, 0
4, 14601, Note_on_c, 2, 77, 0
4, 14601, Note_on_c, 2, 84, 0
4, 14636, Note_on_c, 2, 45, 0
4, 14640, Note_on_c, 2, 48, 99
4, 14640, Note_on_c, 2, 77, 61
4, 14640, Note_on_c, 2, 81, 82
4, 14640, Note_on_c, 2, 84, 45
4, 14661, Note_on_c, 2, 81, 0
4, 14663, Note_on_c, 2, 84, 0
4, 14663, Note_on_c, 2, 77, 0
4, 14700, Note_on_c, 2, 84, 39
4, 14700, Note_on_c, 2, 81, 82
4, 14700, Note_on_c, 2, 77, 39
4, 14719, Note_on_c, 2, 77, 0
4, 14719, Note_on_c, 2, 81, 0
4, 14726, Note_on_c, 2, 84, 0
4, 14748, Note_on_c, 2, 48, 0
4, 14760, Note_on_c, 2, 50, 82
4, 14760, Note_on_c, 2, 84, 90
4, 14760, Note_on_c, 2, 81, 108
4, 14760, Note_on_c, 2, 77, 90
4, 14789, Note_on_c, 2, 81, 0
4, 14792, Note_on_c, 2, 77, 0
4, 14796, Note_on_c, 2, 84, 0
4, 14820, Note_on_c, 2, 77, 68
4, 14820, Note_on_c, 2, 81, 90
4, 14820, Note_on_c, 2, 84, 52
4, 14841, Note_on_c, 2, 81, 0
4, 14844, Note_on_c, 2, 84, 0
4, 14846, Note_on_c, 2, 77, 0
4, 14865, Note_on_c, 2, 50, 0
4, 14880, Note_on_c, 2, 41, 82
4, 14880, Note_on_c, 2, 84, 90
4, 14880, Note_on_c, 2, 81, 82
4, 14880, Note_on_c, 2, 77, 68
4, 14899, Note_on_c, 2, 81, 0
4, 14902, Note_on_c, 2, 77, 0
4, 14908, Note_on_c, 2, 84, 0
4, 14940, Note_on_c, 2, 84, 61
4, 14940, Note_on_c, 2, 81, 90
4, 14940, Note_on_c, 2, 77, 61
4, 14960, Note_on_c, 2, 77, 0
4, 14961, Note_on_c, 2, 81, 0
4, 14966, Note_on_c, 2, 84, 0
4, 14978, Note_on_c, 2, 41, 0
4, 15000, Note_on_c, 2, 45, 90
4, 15000, Note_on_c, 2, 84, 82
4, 15000, Note_on_c, 2, 77, 82
4, 15000, Note_on_c, 2, 81, 99
4, 15023, Note_on_c, 2, 81, 0
4, 15029, Note_on_c, 2, 45, 0
4, 15031, Note_on_c, 2, 77, 0
4, 15037, Note_on_c, 2, 84, 0
4, 15060, Note_on_c, 2, 45, 99
4, 15060, Note_on_c, 2, 84, 61
4, 15060, Note_on_c, 2, 81, 99
4, 15060, Note_on_c, 2, 77, 61
4, 15081, Note_on_c, 2, 81, 0
4, 15084, Note_on_c, 2, 77, 0
4, 15091, Note_on_c, 2, 84, 0
4, 15115, Note_on_c, 2, 45, 0
4, 15120, Note_on_c, 2, 48, 99
4, 15120, Note_on_c, 2, 84, 75
4, 15120, Note_on_c, 2, 77, 75
4, 15120, Note_on_c, 2, 81, 90
4, 15141, Note_on_c, 2, 81, 0
4, 15146, Note_on_c, 2, 77, 0
4, 15153, Note_on_c, 2, 84, 0
4, 15180, Note_on_c, 2, 84, 82
4, 15180, Note_on_c, 2, 81, 90
4, 15180, Note_on_c, 2, 77, 75
4, 15199, Note_on_c, 2, 81, 0
4, 15200, Note_on_c, 2, 77, 0
4, 15204, Note_on_c, 2, 84, 0
4, 15227, Note_on_c, 2, 48, 0
4, 15240, Note_on_c, 2, 50, 82
4, 15240, Note_on_c, 2, 77, 90
4, 15240, Note_on_c, 2, 84, 99
4, 15240, Note_on_c, 2, 81, 99
4, 15261, Note_on_c, 2, 81, 0
4, 15266, Note_on_c, 2, 77, 0
4, 15269, Note_on_c, 2, 84, 0
4, 15300, Note_on_c, 2, 77, 75
4, 15300, Note_on_c, 2, 84, 90
4, 15300, Note_on_c, 2, 81, 108
4, 15321, Note_on_c, 2, 81, 0
4, 15323, Note_on_c, 2, 77, 0
4, 15324, Note_on_c, 2, 84, 0
4, 15347, Note_on_c, 2, 50, 0
4, 15360, Note_on_c, 2, 41, 90
4, 15360, Note_on_c, 2, 84, 90
4, 15360, Note_on_c, 2, 81, 90
4, 15360, Note_on_c, 2, 77, 75
4, 15381, Note_on_c, 2, 81, 0
4, 15382, Note_on_c, 2, 77, 0
4, 15388, Note_on_c, 2, 84, 0
4, 15420, Note_on_c, 2, 77, 75
4, 15420, Note_on_c, 2, 84, 99
4, 15420, Note_on_c, 2, 81, 99
4, 15439, Note_on_c, 2, 81, 0
4, 15441, Note_on_c, 2, 77, 0
4, 15444, Note_on_c, 2, 84, 0
4, 15461, Note_on_c, 2, 41, 0
4, 15480, Note_on_c, 2, 45, 90
4, 15480, Note_on_c, 2, 84, 108
4, 15480, Note_on_c, 2, 77, 99
4, 15480, Note_on_c, 2, 81, 99
4, 15501, Note_on_c, 2, 81, 0
4, 15504, Note_on_c, 2, 77, 0
4, 15508, Note_on_c, 2, 84, 0
4, 15513, Note_on_c, 2, 45, 0
4, 15540, Note_on_c, 2, 45, 90
4, 15540, Note_on_c, 2, 84, 90
4, 15540, Note_on_c, 2, 81, 99
4, 15540, Note_on_c, 2, 77, 82
4, 15561, Note_on_c, 2, 81, 0
4, 15562, Note_on_c, 2, 77, 0
4, 15566, Note_on_c, 2, 84, 0
4, 15593, Note_on_c, 2, 45, 0
4, 15600, Note_on_c, 2, 48, 99
4, 15600, Note_on_c, 2, 84, 90
4, 15600, Note_on_c, 2, 81, 108
4, 15600, Note_on_c, 2, 77, 82
4, 15621, Note_on_c, 2, 77, 0
4, 15621, Note_on_c, 2, 81, 0
4, 15626, Note_on_c, 2, 84, 0
4, 15660, Note_on_c, 2, 81, 99
4, 15660, Note_on_c, 2, 77, 82
4, 15660, Note_on_c, 2, 84, 90
4, 15681, Note_on_c, 2, 77, 0
4, 15683, Note_on_c, 2, 81, 0
4, 15684, Note_on_c, 2, 84, 0
4, 15704, Note_on_c, 2, 48, 0
4, 15720, Note_on_c, 2, 50, 82
4, 15720, Note_on_c, 2, 84, 99
4, 15720, Note_on_c, 2, 81, 108
4, 15720, Note_on_c, 2, 77, 90
4, 15743, Note_on_c, 2, 77, 0
4, 15745, Note_on_c, 2, 81, 0
4, 15745, Note_on_c, 2, 84, 0
4, 15780, Note_on_c, 2, 84, 82
4, 15780, Note_on_c, 2, 77, 75
4, 15780, Note_on_c, 2, 81, 90
4, 15799, Note_on_c, 2, 81, 0
4, 15803, Note_on_c, 2, 84, 0
4, 15806, Note_on_c, 2, 77, 0
4, 15832, Note_on_c, 2, 50, 0
4, 15840, Note_on_c, 2, 46, 117
4, 15840, Note_on_c, 2, 86, 108
4, 15840, Note_on_c, 2, 80, 124
4, 15840, Note_on_c, 2, 77, 90
4, 15859, Note_on_c, 2, 77, 0
4, 15870, Note_on_c, 2, 80, 0
4, 15872, Note_on_c, 2, 86, 0
4, 15900, Note_on_c, 2, 86, 82
4, 15900, Note_on_c, 2, 80, 108
4, 15900, Note_on_c, 2, 77, 90
4, 15917, Note_on_c, 2, 77, 0
4, 15924, Note_on_c, 2, 80, 0
4, 15933, Note_on_c, 2, 86, 0
4, 15954, Note_on_c, 2, 46, 0
4, 15960, Note_on_c, 2, 86, 99
4, 15960, Note_on_c, 2, 50, 90
4, 15960, Note_on_c, 2, 80, 117
4, 15960, Note_on_c, 2, 77, 82
4, 15979, Note_on_c, 2, 77, 0
4, 15982, Note_on_c, 2, 80, 0
4, 15989, Note_on_c, 2, 86, 0
4, 15991, Note_on_c, 2, 50, 0
4, 16020, Note_on_c, 2, 86, 108
4, 16020, Note_on_c, 2, 50, 82
4, 16020, Note_on_c, 2, 80, 117
4, 16020, Note_on_c, 2, 77, 99
4, 16041, Note_on_c, 2, 77, 0
4, 16041, Note_on_c, 2, 80, 0
4, 16051, Note_on_c, 2, 86, 0
4, 16070, Note_on_c, 2, 50, 0
4, 16080, Note_on_c, 2, 53, 99
4, 16080, Note_on_c, 2, 86, 117
4, 16080, Note_on_c, 2, 80, 124
4, 16080, Note_on_c, 2, 77, 99
4, 16099, Note_on_c, 2, 77, 0
4, 16103, Note_on_c, 2, 80, 0
4, 16109, Note_on_c, 2, 86, 0
4, 16140, Note_on_c, 2, 86, 99
4, 16140, Note_on_c, 2, 80, 117
4, 16140, Note_on_c, 2, 77, 82
4, 16159, Note_on_c, 2, 77, 0
4, 16161, Note_on_c, 2, 80, 0
4, 16168, Note_on_c, 2, 86, 0
4, 16182, Note_on_c, 2, 53, 0
4, 16200, Note_on_c, 2, 55, 75
4, 16200, Note_on_c, 2, 86, 108
4, 16200, Note_on_c, 2, 80, 117
4, 16200, Note_on_c, 2, 77, 90
4, 16220, Note_on_c, 2, 77, 0
4, 16221, Note_on_c, 2, 80, 0
4, 16230, Note_on_c, 2, 86, 0
4, 16260, Note_on_c, 2, 86, 99
4, 16260, Note_on_c, 2, 80, 117
4, 16260, Note_on_c, 2, 77, 82
4, 16279, Note_on_c, 2, 77, 0
4, 16281, Note_on_c, 2, 80, 0
4, 16289, Note_on_c, 2, 86, 0
4, 16310, Note_on_c, 2, 55, 0
4, 16320, Note_on_c, 2, 46, 108
4, 16320, Note_on_c, 2, 86, 90
4, 16320, Note_on_c, 2, 80, 124
4, 16320, Note_on_c, 2, 77, 82
4, 16337, Note_on_c, 2, 77, 0
4, 16342, Note_on_c, 2, 80, 0
4, 16350, Note_on_c, 2, 86, 0
4, 16380, Note_on_c, 2, 86, 90
4, 16380, Note_on_c, 2, 80, 117
4, 16380, Note_on_c, 2, 77, 68
4, 16393, Note_on_c, 2, 77, 0
4, 16402, Note_on_c, 2, 80, 0
4, 16408, Note_on_c, 2, 86, 0
4, 16416, Note_on_c, 2, 46, 0
4, 16440, Note_on_c, 2, 50, 82
4, 16440, Note_on_c, 2, 86, 90
4, 16440, Note_on_c, 2, 80, 124
4, 16440, Note_on_c, 2, 77, 90
4, 16455, Note_on_c, 2, 77, 0
4, 16464, Note_on_c, 2, 80, 0
4, 16467, Note_on_c, 2, 86, 0
4, 16473, Note_on_c, 2, 50, 0
4, 16500, Note_on_c, 2, 50, 90
4, 16500, Note_on_c, 2, 86, 90
4, 16500, Note_on_c, 2, 80, 124
4, 16500, Note_on_c, 2, 77, 82
4, 16517, Note_on_c, 2, 77, 0
4, 16524, Note_on_c, 2, 80, 0
4, 16529, Note_on_c, 2, 86, 0
4, 16550, Note_on_c, 2, 50, 0
4, 16560, Note_on_c, 2, 53, 99
4, 16560, Note_on_c, 2, 86, 99
4, 16560, Note_on_c, 2, 80, 117
4, 16560, Note_on_c, 2, 77, 75
4, 16579, Note_on_c, 2, 77, 0
4, 16584, Note_on_c, 2, 80, 0
4, 16589, Note_on_c, 2, 86, 0
4, 16620, Note_on_c, 2, 80, 124
4, 16620, Note_on_c, 2, 86, 108
4, 16620, Note_on_c, 2, 77, 99
4, 16641, Note_on_c, 2, 77, 0
4, 16644, Note_on_c, 2, 80, 0
4, 16648, Note_on_c, 2, 86, 0
4, 16668, Note_on_c, 2, 53, 0
4, 16680, Note_on_c, 2, 55, 90
4, 16680, Note_on_c, 2, 86, 99
4, 16680, Note_on_c, 2, 80, 117
4, 16680, Note_on_c, 2, 77, 90
4, 16701, Note_on_c, 2, 77, 0
4, 16703, Note_on_c, 2, 80, 0
4, 16707, Note_on_c, 2, 86, 0
4, 16740, Note_on_c, 2, 86, 90
4, 16740, Note_on_c, 2, 80, 117
4, 16740, Note_on_c, 2, 77, 82
4, 16761, Note_on_c, 2, 77, 0
4, 16764, Note_on_c, 2, 80, 0
4, 16772, Note_on_c, 2, 86, 0
4, 16774, Note_on_c, 2, 55, 0
4, 16800, Note_on_c, 2, 41, 75
4, 16800, Note_on_c, 2, 77, 90
4, 16800, Note_on_c, 2, 84, 108
4, 16800, Note_on_c, 2, 81, 108
4, 16825, Note_on_c, 2, 81, 0
4, 16826, Note_on_c, 2, 77, 0
4, 16829, Note_on_c, 2, 84, 0
4, 16860, Note_on_c, 2, 84, 99
4, 16860, Note_on_c, 2, 77, 82
4, 16860, Note_on_c, 2, 81, 99
4, 16881, Note_on_c, 2, 81, 0
4, 16886, Note_on_c, 2, 77, 0
4, 16889, Note_on_c, 2, 84, 0
4, 16896, Note_on_c, 2, 41, 0
4, 16920, Note_on_c, 2, 45, 90
4, 16920, Note_on_c, 2, 84, 90
4, 16920, Note_on_c, 2, 81, 99
4, 16920, Note_on_c, 2, 77, 90
4, 16943, Note_on_c, 2, 77, 0
4, 16944, Note_on_c, 2, 81, 0
4, 16947, Note_on_c, 2, 84, 0
4, 16953, Note_on_c, 2, 45, 0
4, 16980, Note_on_c, 2, 45, 82
4, 16980, Note_on_c, 2, 84, 99
4, 16980, Note_on_c, 2, 81, 108
4, 16980, Note_on_c, 2, 77, 99
4, 17004, Note_on_c, 2, 77, 0
4, 17004, Note_on_c, 2, 81, 0
4, 17007, Note_on_c, 2, 84, 0
4, 17033, Note_on_c, 2, 45, 0
4, 17040, Note_on_c, 2, 48, 108
4, 17040, Note_on_c, 2, 84, 99
4, 17040, Note_on_c, 2, 77, 82
4, 17040, Note_on_c, 2, 81, 99
4, 17060, Note_on_c, 2, 77, 0
4, 17061, Note_on_c, 2, 81, 0
4, 17066, Note_on_c, 2, 84, 0
4, 17100, Note_on_c, 2, 84, 90
4, 17100, Note_on_c, 2, 81, 108
4, 17100, Note_on_c, 2, 77, 82
4, 17119, Note_on_c, 2, 77, 0
4, 17121, Note_on_c, 2, 81, 0
4, 17126, Note_on_c, 2, 84, 0
4, 17147, Note_on_c, 2, 48, 0
4, 17160, Note_on_c, 2, 50, 82
4, 17160, Note_on_c, 2, 77, 99
4, 17160, Note_on_c, 2, 81, 108
4, 17160, Note_on_c, 2, 84, 90
4, 17182, Note_on_c, 2, 84, 0
4, 17182, Note_on_c, 2, 77, 0
4, 17183, Note_on_c, 2, 81, 0
4, 17220, Note_on_c, 2, 81, 99
4, 17220, Note_on_c, 2, 84, 99
4, 17220, Note_on_c, 2, 77, 90
4, 17239, Note_on_c, 2, 77, 0
4, 17243, Note_on_c, 2, 81, 0
4, 17244, Note_on_c, 2, 84, 0
4, 17263, Note_on_c, 2, 50, 0
4, 17280, Note_on_c, 2, 41, 90
4, 17280, Note_on_c, 2, 77, 82
4, 17280, Note_on_c, 2, 81, 99
4, 17280, Note_on_c, 2, 84, 90
4, 17299, Note_on_c, 2, 77, 0
4, 17301, Note_on_c, 2, 81, 0
4, 17302, Note_on_c, 2, 84, 0
4, 17340, Note_on_c, 2, 77, 90
4, 17340, Note_on_c, 2, 81, 108
4, 17340, Note_on_c, 2, 84, 99
4, 17362, Note_on_c, 2, 84, 0
4, 17362, Note_on_c, 2, 81, 0
4, 17362, Note_on_c, 2, 77, 0
4, 17378, Note_on_c, 2, 41, 0
4, 17400, Note_on_c, 2, 45, 90
4, 17400, Note_on_c, 2, 77, 99
4, 17400, Note_on_c, 2, 84, 108
4, 17400, Note_on_c, 2, 81, 99
4, 17421, Note_on_c, 2, 81, 0
4, 17422, Note_on_c, 2, 77, 0
4, 17423, Note_on_c, 2, 84, 0
4, 17433, Note_on_c, 2, 45, 0
4, 17460, Note_on_c, 2, 45, 82
4, 17460, Note_on_c, 2, 84, 108
4, 17460, Note_on_c, 2, 77, 90
4, 17460, Note_on_c, 2, 81, 108
4, 17477, Note_on_c, 2, 77, 0
4, 17479, Note_on_c, 2, 81, 0
4, 17482, Note_on_c, 2, 84, 0
4, 17512, Note_on_c, 2, 45, 0
4, 17520, Note_on_c, 2, 48, 99
4, 17520, Note_on_c, 2, 77, 99
4, 17520, Note_on_c, 2, 81, 108
4, 17520, Note_on_c, 2, 84, 108
4, 17540, Note_on_c, 2, 77, 0
4, 17541, Note_on_c, 2, 81, 0
4, 17542, Note_on_c, 2, 84, 0
4, 17580, Note_on_c, 2, 81, 99
4, 17580, Note_on_c, 2, 84, 108
4, 17580, Note_on_c, 2, 77, 99
4, 17599, Note_on_c, 2, 77, 0
4, 17602, Note_on_c, 2, 84, 0
4, 17603, Note_on_c, 2, 81, 0
4, 17621, Note_on_c, 2, 48, 0
4, 17640, Note_on_c, 2, 50, 68
4, 17640, Note_on_c, 2, 84, 108
4, 17640, Note_on_c, 2, 81, 90
4, 17640, Note_on_c, 2, 77, 90
4, 17657, Note_on_c, 2, 77, 0
4, 17662, Note_on_c, 2, 81, 0
4, 17667, Note_on_c, 2, 84, 0
4, 17700, Note_on_c, 2, 84, 99
4, 17700, Note_on_c, 2, 81, 99
4, 17700, Note_on_c, 2, 77, 82
4, 17719, Note_on_c, 2, 77, 0
4, 17719, Note_on_c, 2, 81, 0
4, 17724, Note_on_c, 2, 84, 0
4, 17731, Note_on_c, 2, 50, 0
4, 17760, Note_on_c, 2, 48, 99
4, 17760, Note_on_c, 2, 79, 108
4, 17760, Note_on_c, 2, 82, 127
4, 17760, Note_on_c, 2, 88, 108
4, 17778, Note_on_c, 2, 82, 0
4, 17779, Note_on_c, 2, 79, 0
4, 17783, Note_on_c, 2, 88, 0
4, 17820, Note_on_c, 2, 88, 99
4, 17820, Note_on_c, 2, 82, 124
4, 17820, Note_on_c, 2, 79, 82
4, 17835, Note_on_c, 2, 79, 0
4, 17840, Note_on_c, 2, 82, 0
4, 17846, Note_on_c, 2, 88, 0
4, 17864, Note_on_c, 2, 48, 0
4, 17880, Note_on_c, 2, 52, 82
4, 17880, Note_on_c, 2, 82, 127
4, 17880, Note_on_c, 2, 88, 108
4, 17880, Note_on_c, 2, 79, 108
4, 17900, Note_on_c, 2, 79, 0
4, 17903, Note_on_c, 2, 88, 0
4, 17903, Note_on_c, 2, 82, 0
4, 17909, Note_on_c, 2, 52, 0
4, 17940, Note_on_c, 2, 52, 68
4, 17940, Note_on_c, 2, 82, 127
4, 17940, Note_on_c, 2, 79, 108
4, 17940, Note_on_c, 2, 88, 117
4, 17959, Note_on_c, 2, 79, 0
4, 17960, Note_on_c, 2, 88, 0
4, 17960, Note_on_c, 2, 82, 0
4, 17993, Note_on_c, 2, 52, 0
4, 18000, Note_on_c, 2, 55, 99
4, 18000, Note_on_c, 2, 82, 127
4, 18000, Note_on_c, 2, 88, 117
4, 18000, Note_on_c, 2, 79, 99
4, 18020, Note_on_c, 2, 82, 0
4, 18021, Note_on_c, 2, 79, 0
4, 18022, Note_on_c, 2, 88, 0
4, 18060, Note_on_c, 2, 82, 127
4, 18060, Note_on_c, 2, 88, 117
4, 18060, Note_on_c, 2, 79, 99
4, 18083, Note_on_c, 2, 79, 0
4, 18083, Note_on_c, 2, 88, 0
4, 18084, Note_on_c, 2, 82, 0
4, 18112, Note_on_c, 2, 55, 0
4, 18120, Note_on_c, 2, 88, 117
4, 18120, Note_on_c, 2, 79, 99
4, 18120, Note_on_c, 2, 57, 99
4, 18120, Note_on_c, 2, 82, 127
4, 18141, Note_on_c, 2, 79, 0
4, 18143, Note_on_c, 2, 82, 0
4, 18145, Note_on_c, 2, 88, 0
4, 18180, Note_on_c, 2, 88, 99
4, 18180, Note_on_c, 2, 82, 117
4, 18180, Note_on_c, 2, 79, 75
4, 18186, Note_on_c, 2, 57, 0
4, 18200, Note_on_c, 2, 79, 0
4, 18202, Note_on_c, 2, 82, 0
4, 18204, Note_on_c, 2, 88, 0
4, 18240, Note_on_c, 2, 46, 127
4, 18240, Note_on_c, 2, 80, 127
4, 18240, Note_on_c, 2, 86, 124
4, 18240, Note_on_c, 2, 77, 124
4, 18240, Note_on_c, 2, 80, 127
4, 18240, Note_on_c, 2, 77, 117
4, 18240, Note_on_c, 2, 86, 117
4, 18261, Note_on_c, 2, 77, 0
4, 18263, Note_on_c, 2, 80, 0
4, 18264, Note_on_c, 2, 86, 0
4, 18272, Note_on_c, 2, 77, 0
4, 18280, Note_on_c, 2, 80, 0
4, 18281, Note_on_c, 2, 86, 0
4, 18292, Note_on_c, 2, 46, 0
4, 18300, Note_on_c, 2, 86, 108
4, 18300, Note_on_c, 2, 80, 117
4, 18300, Note_on_c, 2, 77, 75
4, 18315, Note_on_c, 2, 77, 0
4, 18319, Note_on_c, 2, 80, 0
4, 18325, Note_on_c, 2, 86, 0
4, 18360, Note_on_c, 2, 80, 127
4, 18360, Note_on_c, 2, 77, 108
4, 18360, Note_on_c, 2, 86, 117
4, 18379, Note_on_c, 2, 77, 0
4, 18379, Note_on_c, 2, 80, 0
4, 18381, Note_on_c, 2, 86, 0
4, 18420, Note_on_c, 2, 86, 117
4, 18420, Note_on_c, 2, 80, 124
4, 18420, Note_on_c, 2, 77, 99
4, 18435, Note_on_c, 2, 77, 0
4, 18437, Note_on_c, 2, 80, 0
4, 18442, Note_on_c, 2, 86, 0
4, 18480, Note_on_c, 2, 86, 117
4, 18480, Note_on_c, 2, 80, 124
4, 18480, Note_on_c, 2, 77, 99
4, 18498, Note_on_c, 2, 77, 0
4, 18498, Note_on_c, 2, 80, 0
4, 18507, Note_on_c, 2, 86, 0
4, 18540, Note_on_c, 2, 86, 99
4, 18540, Note_on_c, 2, 80, 124
4, 18540, Note_on_c, 2, 77, 82
4, 18557, Note_on_c, 2, 77, 0
4, 18559, Note_on_c, 2, 80, 0
4, 18567, Note_on_c, 2, 86, 0
4, 18600, Note_on_c, 2, 86, 99
4, 18600, Note_on_c, 2, 80, 124
4, 18600, Note_on_c, 2, 77, 99
4, 18619, Note_on_c, 2, 77, 0
4, 18622, Note_on_c, 2, 80, 0
4, 18630, Note_on_c, 2, 86, 0
4, 18660, Note_on_c, 2, 86, 117
4, 18660, Note_on_c, 2, 80, 127
4, 18660, Note_on_c, 2, 77, 117
4, 18683, Note_on_c, 2, 77, 0
4, 18688, Note_on_c, 2, 80, 0
4, 18694, Note_on_c, 2, 86, 0
4, 18720, Note_on_c, 2, 84, 108
4, 18720, Note_on_c, 2, 81, 117
4, 18720, Note_on_c, 2, 41, 99
4, 18720, Note_on_c, 2, 77, 108
4, 18743, Note_on_c, 2, 77, 0
4, 18745, Note_on_c, 2, 81, 0
4, 18747, Note_on_c, 2, 84, 0
4, 18780, Note_on_c, 2, 84, 90
4, 18780, Note_on_c, 2, 77, 75
4, 18780, Note_on_c, 2, 81, 90
4, 18801, Note_on_c, 2, 81, 0
4, 18803, Note_on_c, 2, 77, 0
4, 18808, Note_on_c, 2, 84, 0
4, 18826, Note_on_c, 2, 41, 0
4, 18840, Note_on_c, 2, 45, 68
4, 18840, Note_on_c, 2, 77, 99
4, 18840, Note_on_c, 2, 81, 117
4, 18840, Note_on_c, 2, 84, 108
4, 18862, Note_on_c, 2, 84, 0
4, 18862, Note_on_c, 2, 81, 0
4, 18863, Note_on_c, 2, 77, 0
4, 18866, Note_on_c, 2, 45, 0
4, 18900, Note_on_c, 2, 45, 90
4, 18900, Note_on_c, 2, 81, 108
4, 18900, Note_on_c, 2, 77, 68
4, 18900, Note_on_c, 2, 84, 68
4, 18914, Note_on_c, 2, 84, 0
4, 18915, Note_on_c, 2, 77, 0
4, 18920, Note_on_c, 2, 81, 0
4, 18942, Note_on_c, 2, 45, 0
4, 18960, Note_on_c, 2, 48, 99
4, 18960, Note_on_c, 2, 81, 108
4, 18960, Note_on_c, 2, 77, 108
4, 18960, Note_on_c, 2, 84, 99
4, 18983, Note_on_c, 2, 81, 0
4, 18984, Note_on_c, 2, 77, 0
4, 18986, Note_on_c, 2, 84, 0
4, 19020, Note_on_c, 2, 84, 90
4, 19020, Note_on_c, 2, 81, 99
4, 19020, Note_on_c, 2, 77, 61
4, 19039, Note_on_c, 2, 77, 0
4, 19039, Note_on_c, 2, 81, 0
4, 19046, Note_on_c, 2, 84, 0
4, 19066, Note_on_c, 2, 48, 0
4, 19080, Note_on_c, 2, 50, 82
4, 19080, Note_on_c, 2, 84, 99
4, 19080, Note_on_c, 2, 81, 108
4, 19080, Note_on_c, 2, 77, 99
4, 19101, Note_on_c, 2, 81, 0
4, 19102, Note_on_c, 2, 77, 0
4, 19103, Note_on_c, 2, 84, 0
4, 19140, Note_on_c, 2, 84, 90
4, 19140, Note_on_c, 2, 81, 99
4, 19140, Note_on_c, 2, 77, 90
4, 19155, Note_on_c, 2, 77, 0
4, 19158, Note_on_c, 2, 81, 0
4, 19159, Note_on_c, 2, 84, 0
4, 19178, Note_on_c, 2, 50, 0
4, 19200, Note_on_c, 2, 41, 99
4, 19200, Note_on_c, 2, 84, 108
4, 19200, Note_on_c, 2, 81, 117
4, 19200, Note_on_c, 2, 77, 108
4, 19221, Note_on_c, 2, 77, 0
4, 19221, Note_on_c, 2, 81, 0
4, 19227, Note_on_c, 2, 84, 0
4, 19260, Note_on_c, 2, 77, 99
4, 19260, Note_on_c, 2, 81, 108
4, 19260, Note_on_c, 2, 84, 99
4, 19277, Note_on_c, 2, 84, 0
4, 19278, Note_on_c, 2, 81, 0
4, 19278, Note_on_c, 2, 77, 0
4, 19307, Note_on_c, 2, 41, 0
4, 19320, Note_on_c, 2, 45, 90
4, 19320, Note_on_c, 2, 77, 99
4, 19320, Note_on_c, 2, 81, 108
4, 19320, Note_on_c, 2, 84, 99
4, 19337, Note_on_c, 2, 84, 0
4, 19340, Note_on_c, 2, 81, 0
4, 19340, Note_on_c, 2, 77, 0
4, 19349, Note_on_c, 2, 45, 0
4, 19380, Note_on_c, 2, 45, 99
4, 19380, Note_on_c, 2, 81, 108
4, 19380, Note_on_c, 2, 84, 82
4, 19380, Note_on_c, 2, 77, 75
4, 19395, Note_on_c, 2, 77, 0
4, 19399, Note_on_c, 2, 84, 0
4, 19401, Note_on_c, 2, 81, 0
4, 19430, Note_on_c, 2, 45, 0
4, 19440, Note_on_c, 2, 48, 108
4, 19440, Note_on_c, 2, 77, 90
4, 19440, Note_on_c, 2, 84, 99
4, 19440, Note_on_c, 2, 81, 108
4, 19459, Note_on_c, 2, 77, 0
4, 19460, Note_on_c, 2, 81, 0
4, 19463, Note_on_c, 2, 84, 0
4, 19500, Note_on_c, 2, 84, 99
4, 19500, Note_on_c, 2, 77, 90
4, 19500, Note_on_c, 2, 81, 108
4, 19519, Note_on_c, 2, 77, 0
4, 19520, Note_on_c, 2, 81, 0
4, 19521, Note_on_c, 2, 84, 0
4, 19550, Note_on_c, 2, 48, 0
4, 19560, Note_on_c, 2, 84, 108
4, 19560, Note_on_c, 2, 50, 108
4, 19560, Note_on_c, 2, 81, 108
4, 19560, Note_on_c, 2, 77, 99
4, 19579, Note_on_c, 2, 77, 0
4, 19581, Note_on_c, 2, 81, 0
4, 19586, Note_on_c, 2, 84, 0
4, 19620, Note_on_c, 2, 84, 117
4, 19620, Note_on_c, 2, 81, 124
4, 19620, Note_on_c, 2, 77, 117
4, 19625, Note_on_c, 2, 50, 0
4, 19647, Note_on_c, 2, 77, 0
4, 19647, Note_on_c, 2, 81, 0
4, 19649, Note_on_c, 2, 84, 0
4, 19680, Note_on_c, 2, 41, 108
4, 19680, Note_on_c, 2, 77, 117
4, 19680, Note_on_c, 2, 81, 117
4, 19680, Note_on_c, 2, 84, 108
4, 19704, Note_on_c, 2, 81, 0
4, 19705, Note_on_c, 2, 77, 0
4, 19706, Note_on_c, 2, 84, 0
4, 19740, Note_on_c, 2, 81, 82
4, 19740, Note_on_c, 2, 77, 75
4, 19740, Note_on_c, 2, 84, 75
4, 19761, Note_on_c, 2, 77, 0
4, 19762, Note_on_c, 2, 84, 0
4, 19765, Note_on_c, 2, 81, 0
4, 19779, Note_on_c, 2, 41, 0
4, 19800, Note_on_c, 2, 81, 99
4, 19800, Note_on_c, 2, 45, 90
4, 19800, Note_on_c, 2, 84, 90
4, 19800, Note_on_c, 2, 77, 82
4, 19821, Note_on_c, 2, 77, 0
4, 19825, Note_on_c, 2, 81, 0
4, 19826, Note_on_c, 2, 84, 0
4, 19834, Note_on_c, 2, 45, 0
4, 19860, Note_on_c, 2, 45, 90
4, 19860, Note_on_c, 2, 81, 99
4, 19860, Note_on_c, 2, 84, 90
4, 19860, Note_on_c, 2, 77, 68
4, 19877, Note_on_c, 2, 77, 0
4, 19881, Note_on_c, 2, 81, 0
4, 19883, Note_on_c, 2, 84, 0
4, 19918, Note_on_c, 2, 45, 0
4, 19920, Note_on_c, 2, 48, 99
4, 19920, Note_on_c, 2, 81, 108
4, 19920, Note_on_c, 2, 84, 90
4, 19920, Note_on_c, 2, 77, 90
4, 19943, Note_on_c, 2, 77, 0
4, 19945, Note_on_c, 2, 84, 0
4, 19945, Note_on_c, 2, 81, 0
4, 19980, Note_on_c, 2, 84, 61
4, 19980, Note_on_c, 2, 81, 90
4, 19980, Note_on_c, 2, 77, 39
4, 19999, Note_on_c, 2, 77, 0
4, 20002, Note_on_c, 2, 81, 0
4, 20004, Note_on_c, 2, 84, 0
4, 20031, Note_on_c, 2, 48, 0
4, 20040, Note_on_c, 2, 50, 82
4, 20040, Note_on_c, 2, 84, 90
4, 20040, Note_on_c, 2, 81, 99
4, 20040, Note_on_c, 2, 77, 82
4, 20062, Note_on_c, 2, 77, 0
4, 20063, Note_on_c, 2, 81, 0
4, 20071, Note_on_c, 2, 84, 0
4, 20100, Note_on_c, 2, 84, 82
4, 20100, Note_on_c, 2, 81, 90
4, 20100, Note_on_c, 2, 77, 61
4, 20121, Note_on_c, 2, 77, 0
4, 20121, Note_on_c, 2, 81, 0
4, 20123, Note_on_c, 2, 84, 0
4, 20149, Note_on_c, 2, 50, 0
4, 20160, Note_on_c, 2, 41, 82
4, 20160, Note_on_c, 2, 84, 82
4, 20160, Note_on_c, 2, 81, 99
4, 20160, Note_on_c, 2, 77, 82
4, 20183, Note_on_c, 2, 81, 0
4, 20184, Note_on_c, 2, 77, 0
4, 20190, Note_on_c, 2, 84, 0
4, 20220, Note_on_c, 2, 84, 68
4, 20220, Note_on_c, 2, 81, 82
4, 20220, Note_on_c, 2, 77, 61
4, 20239, Note_on_c, 2, 77, 0
4, 20241, Note_on_c, 2, 81, 0
4, 20245, Note_on_c, 2, 84, 0
4, 20254, Note_on_c, 2, 41, 0
4, 20280, Note_on_c, 2, 45, 99
4, 20280, Note_on_c, 2, 84, 99
4, 20280, Note_on_c, 2, 81, 117
4, 20280, Note_on_c, 2, 77, 90
4, 20305, Note_on_c, 2, 77, 0
4, 20306, Note_on_c, 2, 81, 0
4, 20313, Note_on_c, 2, 45, 0
4, 20315, Note_on_c, 2, 84, 0
4, 20340, Note_on_c, 2, 45, 99
4, 20340, Note_on_c, 2, 84, 75
4, 20340, Note_on_c, 2, 81, 90
4, 20340, Note_on_c, 2, 77, 61
4, 20359, Note_on_c, 2, 81, 0
4, 20361, Note_on_c, 2, 77, 0
4, 20361, Note_on_c, 2, 84, 0
4, 20396, Note_on_c, 2, 45, 0
4, 20400, Note_on_c, 2, 48, 99
4, 20400, Note_on_c, 2, 77, 61
4, 20400, Note_on_c, 2, 81, 82
4, 20400, Note_on_c, 2, 84, 45
4, 20421, Note_on_c, 2, 81, 0
4, 20423, Note_on_c, 2, 84, 0
4, 20423, Note_on_c, 2, 77, 0
4, 20460, Note_on_c, 2, 84, 39
4, 20460, Note_on_c, 2, 81, 82
4, 20460, Note_on_c, 2, 77, 39
4, 20479, Note_on_c, 2, 77, 0
4, 20479, Note_on_c, 2, 81, 0
4, 20486, Note_on_c, 2, 84, 0
4, 20508, Note_on_c, 2, 48, 0
4, 20520, Note_on_c, 2, 50, 82
4, 20520, Note_on_c, 2, 84, 90
4, 20520, Note_on_c, 2, 81, 108
4, 20520, Note_on_c, 2, 77, 90
4, 20549, Note_on_c, 2, 81, 0
4, 20552, Note_on_c, 2, 77, 0
4, 20556, Note_on_c, 2, 84, 0
4, 20580, Note_on_c, 2, 77, 68
4, 20580, Note_on_c, 2, 81, 90
4, 20580, Note_on_c, 2, 84, 52
4, 20601, Note_on_c, 2, 81, 0
4, 20604, Note_on_c, 2, 84, 0
4, 20606, Note_on_c, 2, 77, 0
4, 20625, Note_on_c, 2, 50, 0
4, 20640, Note_on_c, 2, 41, 82
4, 20640, Note_on_c, 2, 84, 90
4, 20640, Note_on_c, 2, 81, 82
4, 20640, Note_on_c, 2, 77, 68
4, 20659, Note_on_c, 2, 81, 0
4, 20662, Note_on_c, 2, 77, 0
4, 20668, Note_on_c, 2, 84, 0
4, 20700, Note_on_c, 2, 84, 61
4, 20700, Note_on_c, 2, 81, 90
4, 20700, Note_on_c, 2, 77, 61
4, 20720, Note_on_c, 2, 77, 0
4, 20721, Note_on_c, 2, 81, 0
4, 20726, Note_on_c, 2, 84, 0
4, 20738, Note_on_c, 2, 41, 0
4, 20760, Note_on_c, 2, 45, 90
4, 20760, Note_on_c, 2, 84, 82
4, 20760, Note_on_c, 2, 77, 82
4, 20760, Note_on_c, 2, 81, 99
4, 20783, Note_on_c, 2, 81, 0
4, 20789, Note_on_c, 2, 45, 0
4, 20791, Note_on_c, 2, 77, 0
4, 20797, Note_on_c, 2, 84, 0
4, 20820, Note_on_c, 2, 45, 99
4, 20820, Note_on_c, 2, 84, 61
4, 20820, Note_on_c, 2, 81, 99
4, 20820, Note_on_c, 2, 77, 61
4, 20841, Note_on_c, 2, 81, 0
4, 20844, Note_on_c, 2, 77, 0
4, 20851, Note_on_c, 2, 84, 0
4, 20875, Note_on_c, 2, 45, 0
4, 20880, Note_on_c, 2, 48, 99
4, 20880, Note_on_c, 2, 84, 75
4, 20880, Note_on_c, 2, 77, 75
4, 20880, Note_on_c, 2, 81, 90
4, 20901, Note_on_c, 2, 81, 0
4, 20906, Note_on_c, 2, 77, 0
4, 20913, Note_on_c, 2, 84, 0
4, 20940, Note_on_c, 2, 84, 82
4, 20940, Note_on_c, 2, 81, 90
4, 20940, Note_on_c, 2, 77, 75
4, 20959, Note_on_c, 2, 81, 0
4, 20960, Note_on_c, 2, 77, 0
4, 20964, Note_on_c, 2, 84, 0
4, 20987, Note_on_c, 2, 48, 0
4, 21000, Note_on_c, 2, 50, 82
4, 21000, Note_on_c, 2, 77, 90
4, 21000, Note_on_c, 2, 84, 99
4, 21000, Note_on_c, 2, 81, 99
4, 21021, Note_on_c, 2, 81, 0
4, 21026, Note_on_c, 2, 77, 0
4, 21029, Note_on_c, 2, 84, 0
4, 21060, Note_on_c, 2, 77, 75
4, 21060, Note_on_c, 2, 84, 90
4, 21060, Note_on_c, 2, 81, 108
4, 21081, Note_on_c, 2, 81, 0
4, 21083, Note_on_c, 2, 77, 0
4, 21084, Note_on_c, 2, 84, 0
4, 21107, Note_on_c, 2, 50, 0
4, 21120, Note_on_c, 2, 41, 90
4, 21120, Note_on_c, 2, 84, 90
4, 21120, Note_on_c, 2, 81, 90
4, 21120, Note_on_c, 2, 77, 75
4, 21141, Note_on_c, 2, 81, 0
4, 21142, Note_on_c, 2, 77, 0
4, 21148, Note_on_c, 2, 84, 0
4, 21180, Note_on_c, 2, 77, 75
4, 21180, Note_on_c, 2, 84, 99
4, 21180, Note_on_c, 2, 81, 99
4, 21199, Note_on_c, 2, 81, 0
4, 21201, Note_on_c, 2, 77, 0
4, 21204, Note_on_c, 2, 84, 0
4, 21221, Note_on_c, 2, 41, 0
4, 21240, Note_on_c, 2, 45, 90
4, 21240, Note_on_c, 2, 84, 108
4, 21240, Note_on_c, 2, 77, 99
4, 21240, Note_on_c, 2, 81, 99
4, 21261, Note_on_c, 2, 81, 0
4, 21264, Note_on_c, 2, 77, 0
4, 21268, Note_on_c, 2, 84, 0
4, 21273, Note_on_c, 2, 45, 0
4, 21300, Note_on_c, 2, 45, 90
4, 21300, Note_on_c, 2, 84, 90
4, 21300, Note_on_c, 2, 81, 99
4, 21300, Note_on_c, 2, 77, 82
4, 21321, Note_on_c, 2, 81, 0
4, 21322, Note_on_c, 2, 77, 0
4, 21326, Note_on_c, 2, 84, 0
4, 21353, Note_on_c, 2, 45, 0
4, 21360, Note_on_c, 2, 48, 99
4, 21360, Note_on_c, 2, 84, 90
4, 21360, Note_on_c, 2, 81, 108
4, 21360, Note_on_c, 2, 77, 82
4, 21381, Note_on_c, 2, 77, 0
4, 21381, Note_on_c, 2, 81, 0
4, 21386, Note_on_c, 2, 84, 0
4, 21420, Note_on_c, 2, 81, 99
4, 21420, Note_on_c, 2, 77, 82
4, 21420, Note_on_c, 2, 84, 90
4, 21441, Note_on_c, 2, 77, 0
4, 21443, Note_on_c, 2, 81, 0
4, 21444, Note_on_c, 2, 84, 0
4, 21464, Note_on_c, 2, 48, 0
4, 21480, Note_on_c, 2, 50, 82
4, 21480, Note_on_c, 2, 84, 99
4, 21480, Note_on_c, 2, 81, 108
4, 21480, Note_on_c, 2, 77, 90
4, 21503, Note_on_c, 2, 77, 0
4, 21505, Note_on_c, 2, 81, 0
4, 21505, Note_on_c, 2, 84, 0
4, 21540, Note_on_c, 2, 84, 82
4, 21540, Note_on_c, 2, 77, 75
4, 21540, Note_on_c, 2, 81, 90
4, 21559, Note_on_c, 2, 81, 0
4, 21563, Note_on_c, 2, 84, 0
4, 21566, Note_on_c, 2, 77, 0
4, 21592, Note_on_c, 2, 50, 0
4, 21600, Note_on_c, 2, 46, 117
4, 21600, Note_on_c, 2, 86, 108
4, 21600, Note_on_c, 2, 80, 124
4, 21600, Note_on_c, 2, 77, 90
4, 21619, Note_on_c, 2, 77, 0
4, 21630, Note_on_c, 2, 80, 0
4, 21632, Note_on_c, 2, 86, 0
4, 21660, Note_on_c, 2, 86, 82
4, 21660, Note_on_c, 2, 80, 108
4, 21660, Note_on_c, 2, 77, 90
4, 21677, Note_on_c, 2, 77, 0
4, 21684, Note_on_c, 2, 80, 0
4, 21693, Note_on_c, 2, 86, 0
4, 21714, Note_on_c, 2, 46, 0
4, 21720, Note_on_c, 2, 86, 99
4, 21720, Note_on_c, 2, 50, 90
4, 21720, Note_on_c, 2, 80, 117
4, 21720, Note_on_c, 2, 77, 82
4, 21739, Note_on_c, 2, 77, 0
4, 21742, Note_on_c, 2, 80, 0
4, 21749, Note_on_c, 2, 86, 0
4, 21751, Note_on_c, 2, 50, 0
4, 21780, Note_on_c, 2, 86, 108
4, 21780, Note_on_c, 2, 50, 82
4, 21780, Note_on_c, 2, 80, 117
4, 21780, Note_on_c, 2, 77, 99
4, 21801, Note_on_c, 2, 77, 0
4, 21801, Note_on_c, 2, 80, 0
4, 21811, Note_on_c, 2, 86, 0
4, 21830, Note_on_c, 2, 50, 0
4, 21840, Note_on_c, 2, 53, 99
4, 21840, Note_on_c, 2, 86, 117
4, 21840, Note_on_c, 2, 80, 124
4, 21840, Note_on_c, 2, 77, 99
4, 21859, Note_on_c, 2, 77, 0
4, 21863, Note_on_c, 2, 80, 0
4, 21869, Note_on_c, 2, 86, 0
4, 21900, Note_on_c, 2, 86, 99
4, 21900, Note_on_c, 2, 80, 117
4, 21900, Note_on_c, 2, 77, 82
4, 21919, Note_on_c, 2, 77, 0
4, 21921, Note_on_c, 2, 80, 0
4, 21928, Note_on_c, 2, 86, 0
4, 21942, Note_on_c, 2, 53, 0
4, 21960, Note_on_c, 2, 55, 75
4, 21960, Note_on_c, 2, 86, 108
4, 21960, Note_on_c, 2, 80, 117
4, 21960, Note_on_c, 2, 77, 90
4, 21980, Note_on_c, 2, 77, 0
4, 21981, Note_on_c, 2, 80, 0
4, 21990, Note_on_c, 2, 86, 0
4, 22020, Note_on_c, 2, 86, 99
4, 22020, Note_on_c, 2, 80, 117
4, 22020, Note_on_c, 2, 77, 82
4, 22039, Note_on_c, 2, 77, 0
4, 22041, Note_on_c, 2, 80, 0
4, 22049, Note_on_c, 2, 86, 0
4, 22070, Note_on_c, 2, 55, 0
4, 22080, Note_on_c, 2, 46, 108
4, 22080, Note_on_c, 2, 86, 90
4, 22080, Note_on_c, 2, 80, 124
4, 22080, Note_on_c, 2, 77, 82
4, 22097, Note_on_c, 2, 77, 0
4, 22102, Note_on_c, 2, 80, 0
4, 22110, Note_on_c, 2, 86, 0
4, 22140, Note_on_c, 2, 86, 90
4, 22140, Note_on_c, 2, 80, 117
4, 22140, Note_on_c, 2, 77, 68
4, 22153, Note_on_c, 2, 77, 0
4, 22162, Note_on_c, 2, 80, 0
4, 22168, Note_on_c, 2, 86, 0
4, 22176, Note_on_c, 2, 46, 0
4, 22200, Note_on_c, 2, 50, 82
4, 22200, Note_on_c, 2, 86, 90
4, 22200, Note_on_c, 2, 80, 124
4, 22200, Note_on_c, 2, 77, 90
4, 22215, Note_on_c, 2, 77, 0
4, 22224, Note_on_c, 2, 80, 0
4, 22227, Note_on_c, 2, 86, 0
4, 22233, Note_on_c, 2, 50, 0
4, 22260, Note_on_c, 2, 50, 90
4, 22260, Note_on_c, 2, 86, 90
4, 22260, Note_on_c, 2, 80, 124
4, 22260, Note_on_c, 2, 77, 82
4, 22277, Note_on_c, 2, 77, 0
4, 22284, Note_on_c, 2, 80, 0
4, 22289, Note_on_c, 2, 86, 0
4, 22310, Note_on_c, 2, 50, 0
4, 22320, Note_on_c, 2, 53, 99
4, 22320, Note_on_c, 2, 86, 99
4, 22320, Note_on_c, 2, 80, 117
4, 22320, Note_on_c, 2, 77, 75
4, 22339, Note_on_c, 2, 77, 0
4, 22344, Note_on_c, 2, 80, 0
4, 22349, Note_on_c, 2, 86, 0
4, 22380, Note_on_c, 2, 80, 124
4, 22380, Note_on_c, 2, 86, 108
4, 22380, Note_on_c, 2, 77, 99
4, 22401, Note_on_c, 2, 77, 0
4, 22404, Note_on_c, 2, 80, 0
4, 22408, Note_on_c, 2, 86, 0
4, 22428, Note_on_c, 2, 53, 0
4, 22440, Note_on_c, 2, 55, 90
4, 22440, Note_on_c, 2, 86, 99
4, 22440, Note_on_c, 2, 80, 117
4, 22440, Note_on_c, 2, 77, 90
4, 22461, Note_on_c, 2, 77, 0
4, 22463, Note_on_c, 2, 80, 0
4, 22467, Note_on_c, 2, 86, 0
4, 22500, Note_on_c, 2, 86, 90
4, 22500, Note_on_c, 2, 80, 117
4, 22500, Note_on_c, 2, 77, 82
4, 22521, Note_on_c, 2, 77, 0
4, 22524, Note_on_c, 2, 80, 0
4, 22532, Note_on_c, 2, 86, 0
4, 22534, Note_on_c, 2, 55, 0
4, 22560, Note_on_c, 2, 41, 75
4, 22560, Note_on_c, 2, 77, 90
4, 22560, Note_on_c, 2, 84, 108
4, 22560, Note_on_c, 2, 81, 108
4, 22585, Note_on_c, 2, 81, 0
4, 22586, Note_on_c, 2, 77, 0
4, 22589, Note_on_c, 2, 84, 0
4, 22620, Note_on_c, 2, 84, 99
4, 22620, Note_on_c, 2, 77, 82
4, 22620, Note_on_c, 2, 81, 99
4, 22641, Note_on_c, 2, 81, 0
4, 22646, Note_on_c, 2, 77, 0
4, 22649, Note_on_c, 2, 84, 0
4, 22656, Note_on_c, 2, 41, 0
4, 22680, Note_on_c, 2, 45, 90
4, 22680, Note_on_c, 2, 84, 90
4, 22680, Note_on_c, 2, 81, 99
4, 22680, Note_on_c, 2, 77, 90
4, 22703, Note_on_c, 2, 77, 0
4, 22704, Note_on_c, 2, 81, 0
4, 22707, Note_on_c, 2, 84, 0
4, 22713, Note_on_c, 2, 45, 0
4, 22740, Note_on_c, 2, 45, 82
4, 22740, Note_on_c, 2, 84, 99
4, 22740, Note_on_c, 2, 81, 108
4, 22740, Note_on_c, 2, 77, 99
4, 22764, Note_on_c, 2, 77, 0
4, 22764, Note_on_c, 2, 81, 0
4, 22767, Note_on_c, 2, 84, 0
4, 22793, Note_on_c, 2, 45, 0
4, 22800, Note_on_c, 2, 48, 108
4, 22800, Note_on_c, 2, 84, 99
4, 22800, Note_on_c, 2, 77, 82
4, 22800, Note_on_c, 2, 81, 99
4, 22820, Note_on_c, 2, 77, 0
4, 22821, Note_on_c, 2, 81, 0
4, 22826, Note_on_c, 2, 84, 0
4, 22860, Note_on_c, 2, 84, 90
4, 22860, Note_on_c, 2, 81, 108
4, 22860, Note_on_c, 2, 77, 82
4, 22879, Note_on_c, 2, 77, 0
4, 22881, Note_on_c, 2, 81, 0
4, 22886, Note_on_c, 2, 84, 0
4, 22907, Note_on_c, 2, 48, 0
4, 22920, Note_on_c, 2, 50, 82
4, 22920, Note_on_c, 2, 77, 99
4, 22920, Note_on_c, 2, 81, 108
4, 22920, Note_on_c, 2, 84, 90
4, 22942, Note_on_c, 2, 84, 0
4, 22942, Note_on_c, 2, 77, 0
4, 22943, Note_on_c, 2, 81, 0
4, 22980, Note_on_c, 2, 81, 99
4, 22980, Note_on_c, 2, 84, 99
4, 22980, Note_on_c, 2, 77, 90
4, 22999, Note_on_c, 2, 77, 0
4, 23003, Note_on_c, 2, 81, 0
4, 23004, Note_on_c, 2, 84, 0
4, 23023, Note_on_c, 2, 50, 0
4, 23040, Note_on_c, 2, 41, 90
4, 23040, Note_on_c, 2, 77, 82
4, 23040, Note_on_c, 2, 81, 99
4, 23040, Note_on_c, 2, 84, 90
4, 23059, Note_on_c, 2, 77, 0
4, 23061, Note_on_c, 2, 81, 0
4, 23062, Note_on_c, 2, 84, 0
4, 23100, Note_on_c, 2, 77, 90
4, 23100, Note_on_c, 2, 81, 108
4, 23100, Note_on_c, 2, 84, 99
4, 23122, Note_on_c, 2, 84, 0
4, 23122, Note_on_c, 2, 81, 0
4, 23122, Note_on_c, 2, 77, 0
4, 23138, Note_on_c, 2, 41, 0
4, 23160, Note_on_c, 2, 45, 90
4, 23160, Note_on_c, 2, 77, 99
4, 23160, Note_on_c, 2, 84, 108
4, 23160, Note_on_c, 2, 81, 99
4, 23181, Note_on_c, 2, 81, 0
4, 23182, Note_on_c, 2, 77, 0
4, 23183, Note_on_c, 2, 84, 0
4, 23193, Note_on_c, 2, 45, 0
4, 23220, Note_on_c, 2, 45, 82
4, 23220, Note_on_c, 2, 84, 108
4, 23220, Note_on_c, 2, 77, 90
4, 23220, Note_on_c, 2, 81, 108
4, 23237, Note_on_c, 2, 77, 0
4, 23239, Note_on_c, 2, 81, 0
4, 23242, Note_on_c, 2, 84, 0
4, 23272, Note_on_c, 2, 45, 0
4, 23280, Note_on_c, 2, 48, 99
4, 23280, Note_on_c, 2, 77, 99
4, 23280, Note_on_c, 2, 81, 108
4, 23280, Note_on_c, 2, 84, 108
4, 23300, Note_on_c, 2, 77, 0
4, 23301, Note_on_c, 2, 81, 0
4, 23302, Note_on_c, 2, 84, 0
4, 23340, Note_on_c, 2, 81, 99
4, 23340, Note_on_c, 2, 84, 108
4, 23340, Note_on_c, 2, 77, 99
4, 23359, Note_on_c, 2, 77, 0
4, 23362, Note_on_c, 2, 84, 0
4, 23363, Note_on_c, 2, 81, 0
4, 23381, Note_on_c, 2, 48, 0
4, 23400, Note_on_c, 2, 50, 68
4, 23400, Note_on_c, 2, 84, 108
4, 23400, Note_on_c, 2, 81, 90
4, 23400, Note_on_c, 2, 77, 90
4, 23417, Note_on_c, 2, 77, 0
4, 23422, Note_on_c, 2, 81, 0
4, 23427, Note_on_c, 2, 84, 0
4, 23460, Note_on_c, 2, 84, 99
4, 23460, Note_on_c, 2, 81, 99
4, 23460, Note_on_c, 2, 77, 82
4, 23479, Note_on_c, 2, 77, 0
4, 23479, Note_on_c, 2, 81, 0
4, 23484, Note_on_c, 2, 84, 0
4, 23491, Note_on_c, 2, 50, 0
4, 23520, Note_on_c, 2, 48, 99
4, 23520, Note_on_c, 2, 79, 108
4, 23520, Note_on_c, 2, 82, 127
4, 23520, Note_on_c, 2, 88, 108
4, 23538, Note_on_c, 2, 82, 0
4, 23539, Note_on_c, 2, 79, 0
4, 23543, Note_on_c, 2, 88, 0
4, 23580, Note_on_c, 2, 88, 99
4, 23580, Note_on_c, 2, 82, 124
4, 23580, Note_on_c, 2, 79, 82
4, 23595, Note_on_c, 2, 79, 0
4, 23600, Note_on_c, 2, 82, 0
4, 23606, Note_on_c, 2, 88, 0
4, 23624, Note_on_c, 2, 48, 0
4, 23640, Note_on_c, 2, 52, 82
4, 23640, Note_on_c, 2, 82, 127
4, 23640, Note_on_c, 2, 88, 108
4, 23640, Note_on_c, 2, 79, 108
4, 23660, Note_on_c, 2, 79, 0
4, 23663, Note_on_c, 2, 88, 0
4, 23663, Note_on_c, 2, 82, 0
4, 23669, Note_on_c, 2, 52, 0
4, 23700, Note_on_c, 2, 52, 68
4, 23700, Note_on_c, 2, 82, 127
4, 23700, Note_on_c, 2, 79, 108
4, 23700, Note_on_c, 2, 88, 117
4, 23719, Note_on_c, 2, 79, 0
4, 23720, Note_on_c, 2, 88, 0
4, 23720, Note_on_c, 2, 82, 0
4, 23753, Note_on_c, 2, 52, 0
4, 23760, Note_on_c, 2, 55, 99
4, 23760, Note_on_c, 2, 82, 127
4, 23760, Note_on_c, 2, 88, 117
4, 23760, Note_on_c, 2, 79, 99
4, 23780, Note_on_c, 2, 82, 0
4, 23781, Note_on_c, 2, 79, 0
4, 23782, Note_on_c, 2, 88, 0
4, 23820, Note_on_c, 2, 82, 127
4, 23820, Note_on_c, 2, 88, 117
4, 23820, Note_on_c, 2, 79, 99
4, 23843, Note_on_c, 2, 79, 0
4, 23843, Note_on_c, 2, 88, 0
4, 23844, Note_on_c, 2, 82, 0
4, 23872, Note_on_c, 2, 55, 0
4, 23880, Note_on_c, 2, 88, 117
4, 23880, Note_on_c, 2, 79, 99
4, 23880, Note_on_c, 2, 57, 99
4, 23880, Note_on_c, 2, 82, 127
4, 23901, Note_on_c, 2, 79, 0
4, 23903, Note_on_c, 2, 82, 0
4, 23905, Note_on_c, 2, 88, 0
4, 23940, Note_on_c, 2, 88, 99
4, 23940, Note_on_c, 2, 82, 117
4, 23940, Note_on_c, 2, 79, 75
4, 23946, Note_on_c, 2, 57, 0
4, 23960, Note_on_c, 2, 79, 0
4, 23962, Note_on_c, 2, 82, 0
4, 23964, Note_on_c, 2, 88, 0
4, 24000, Note_on_c, 2, 46, 127
4, 24000, Note_on_c, 2, 80, 127
4, 24000, Note_on_c, 2, 86, 124
4, 24000, Note_on_c, 2, 77, 124
4, 24000, Note_on_c, 2, 80, 127
4, 24000, Note_on_c, 2, 77, 117
4, 24000, Note_on_c, 2, 86, 117
4, 24021, Note_on_c, 2, 77, 0
4, 24023, Note_on_c, 2, 80, 0
4, 24024, Note_on_c, 2, 86, 0
4, 24032, Note_on_c, 2, 77, 0
4, 24040, Note_on_c, 2, 80, 0
4, 24041, Note_on_c, 2, 86, 0
4, 24052, Note_on_c, 2, 46, 0
4, 24060, Note_on_c, 2, 86, 108
4, 24060, Note_on_c, 2, 80, 117
4, 24060, Note_on_c, 2, 77, 75
4, 24075, Note_on_c, 2, 77, 0
4, 24079, Note_on_c, 2, 80, 0
4, 24085, Note_on_c, 2, 86, 0
4, 24120, Note_on_c, 2, 80, 127
4, 24120, Note_on_c, 2, 77, 108
4, 24120, Note_on_c, 2, 86, 117
4, 24139, Note_on_c, 2, 77, 0
4, 24139, Note_on_c, 2, 80, 0
4, 24141, Note_on_c, 2, 86, 0
4, 24180, Note_on_c, 2, 86, 117
4, 24180, Note_on_c, 2, 80, 124
4, 24180, Note_on_c, 2, 77, 99
4, 24195, Note_on_c, 2, 77, 0
4, 24197, Note_on_c, 2, 80, 0
4, 24202, Note_on_c, 2, 86, 0
4, 24240, Note_on_c, 2, 86, 117
4, 24240, Note_on_c, 2, 80, 124
4, 24240, Note_on_c, 2, 77, 99
4, 24258, Note_on_c, 2, 77, 0
4, 24258, Note_on_c, 2, 80, 0
4, 24267, Note_on_c, 2, 86, 0
4, 24300, Note_on_c, 2, 86, 99
4, 24300, Note_on_c, 2, 80, 124
4, 24300, Note_on_c, 2, 77, 82
4, 24317, Note_on_c, 2, 77, 0
4, 24319, Note_on_c, 2, 80, 0
4, 24327, Note_on_c, 2, 86, 0
4, 24360, Note_on_c, 2, 86, 99
4, 24360, Note_on_c, 2, 80, 124
4, 24360, Note_on_c, 2, 77, 99
4, 24379, Note_on_c, 2, 77, 0
4, 24382, Note_on_c, 2, 80, 0
4, 24390, Note_on_c, 2, 86, 0
4, 24420, Note_on_c, 2, 86, 117
4, 24420, Note_on_c, 2, 80, 127
4, 24420, Note_on_c, 2, 77, 117
4, 24443, Note_on_c, 2, 77, 0
4, 24448, Note_on_c, 2, 80, 0
4, 24454, Note_on_c, 2, 86, 0
4, 24480, Note_on_c, 2, 84, 108
4, 24480, Note_on_c, 2, 81, 117
4, 24480, Note_on_c, 2, 41, 99
4, 24480, Note_on_c, 2, 77, 108
4, 24503, Note_on_c, 2, 77, 0
4, 24505, Note_on_c, 2, 81, 0
4, 24507, Note_on_c, 2, 84, 0
4, 24540, Note_on_c, 2, 84, 90
4, 24540, Note_on_c, 2, 77, 75
4, 24540, Note_on_c, 2, 81, 90
4, 24561, Note_on_c, 2, 81, 0
4, 24563, Note_on_c, 2, 77, 0
4, 24568, Note_on_c, 2, 84, 0
4, 24586, Note_on_c, 2, 41, 0
4, 24600, Note_on_c, 2, 45, 68
4, 24600, Note_on_c, 2, 77, 99
4, 24600, Note_on_c, 2, 81, 117
4, 24600, Note_on_c, 2, 84, 108
4, 24622, Note_on_c, 2, 84, 0
4, 24622, Note_on_c, 2, 81, 0
4, 24623, Note_on_c, 2, 77, 0
4, 24626, Note_on_c, 2, 45, 0
4, 24660, Note_on_c, 2, 45, 90
4, 24660, Note_on_c, 2, 81, 108
4, 24660, Note_on_c, 2, 77, 68
4, 24660, Note_on_c, 2, 84, 68
4, 24674, Note_on_c, 2, 84, 0
4, 24675, Note_on_c, 2, 77, 0
4, 24680, Note_on_c, 2, 81, 0
4, 24702, Note_on_c, 2, 45, 0
4, 24720, Note_on_c, 2, 48, 99
4, 24720, Note_on_c, 2, 81, 108
4, 24720, Note_on_c, 2, 77, 108
4, 24720, Note_on_c, 2, 84, 99
4, 24743, Note_on_c, 2, 81, 0
4, 24744, Note_on_c, 2, 77, 0
4, 24746, Note_on_c, 2, 84, 0
4, 24780, Note_on_c, 2, 84, 90
4, 24780, Note_on_c, 2, 81, 99
4, 24780, Note_on_c, 2, 77, 61
4, 24799, Note_on_c, 2, 77, 0
4, 24799, Note_on_c, 2, 81, 0
4, 24806, Note_on_c, 2, 84, 0
4, 24826, Note_on_c, 2, 48, 0
4, 24840, Note_on_c, 2, 50, 82
4, 24840, Note_on_c, 2, 84, 99
4, 24840, Note_on_c, 2, 81, 108
4, 24840, Note_on_c, 2, 77, 99
4, 24861, Note_on_c, 2, 81, 0
4, 24862, Note_on_c, 2, 77, 0
4, 24863, Note_on_c, 2, 84, 0
4, 24900, Note_on_c, 2, 84, 90
4, 24900, Note_on_c, 2, 81, 99
4, 24900, Note_on_c, 2, 77, 90
4, 24915, Note_on_c, 2, 77, 0
4, 24918, Note_on_c, 2, 81, 0
4, 24919, Note_on_c, 2, 84, 0
4, 24938, Note_on_c, 2, 50, 0
4, 24960, Note_on_c, 2, 41, 99
4, 24960, Note_on_c, 2, 84, 108
4, 24960, Note_on_c, 2, 81, 117
4, 24960, Note_on_c, 2, 77, 108
4, 24981, Note_on_c, 2, 77, 0
4, 24981, Note_on_c, 2, 81, 0
4, 24987, Note_on_c, 2, 84, 0
4, 25020, Note_on_c, 2, 77, 99
4, 25020, Note_on_c, 2, 81, 108
4, 25020, Note_on_c, 2, 84, 99
4, 25037, Note_on_c, 2, 84, 0
4, 25038, Note_on_c, 2, 81, 0
4, 25038, Note_on_c, 2, 77, 0
4, 25067, Note_on_c, 2, 41, 0
4, 25080, Note_on_c, 2, 45, 90
4, 25080, Note_on_c, 2, 77, 99
4, 25080, Note_on_c, 2, 81, 108
4, 25080, Note_on_c, 2, 84, 99
4, 25097, Note_on_c, 2, 84, 0
4, 25100, Note_on_c, 2, 81, 0
4, 25100, Note_on_c, 2, 77, 0
4, 25109, Note_on_c, 2, 45, 0
4, 25140, Note_on_c, 2, 45, 99
4, 25140, Note_on_c, 2, 81, 108
4, 25140, Note_on_c, 2, 84, 82
4, 25140, Note_on_c, 2, 77, 75
4, 25155, Note_on_c, 2, 77, 0
4, 25159, Note_on_c, 2, 84, 0
4, 25161, Note_on_c, 2, 81, 0
4, 25190, Note_on_c, 2, 45, 0
4, 25200, Note_on_c, 2, 48, 108
4, 25200, Note_on_c, 2, 77, 90
4, 25200, Note_on_c, 2, 84, 99
4, 25200, Note_on_c, 2, 81, 108
4, 25219, Note_on_c, 2, 77, 0
4, 25220, Note_on_c, 2, 81, 0
4, 25223, Note_on_c, 2, 84, 0
4, 25260, Note_on_c, 2, 84, 99
4, 25260, Note_on_c, 2, 77, 90
4, 25260, Note_on_c, 2, 81, 108
4, 25279, Note_on_c, 2, 77, 0
4, 25280, Note_on_c, 2, 81, 0
4, 25281, Note_on_c, 2, 84, 0
4, 25310, Note_on_c, 2, 48, 0
4, 25320, Note_on_c, 2, 84, 108
4, 25320, Note_on_c, 2, 50, 108
4, 25320, Note_on_c, 2, 81, 108
4, 25320, Note_on_c, 2, 77, 99
4, 25339, Note_on_c, 2, 77, 0
4, 25341, Note_on_c, 2, 81, 0
4, 25346, Note_on_c, 2, 84, 0
4, 25380, Note_on_c, 2, 84, 117
4, 25380, Note_on_c, 2, 81, 124
4, 25380, Note_on_c, 2, 77, 117
4, 25385, Note_on_c, 2, 50, 0
4, 25407, Note_on_c, 2, 77, 0
4, 25407, Note_on_c, 2, 81, 0
4, 25409, Note_on_c, 2, 84, 0
4, 25440, Note_on_c, 2, 41, 108
4, 25440, Note_on_c, 2, 77, 117
4, 25440, Note_on_c, 2, 81, 117
4, 25440, Note_on_c, 2, 84, 108
4, 25464, Note_on_c, 2, 81, 0
4, 25465, Note_on_c, 2, 77, 0
4, 25466, Note_on_c, 2, 84, 0
4, 25500, Note_on_c, 2, 81, 82
4, 25500, Note_on_c, 2, 77, 75
4, 25500, Note_on_c, 2, 84, 75
4, 25521, Note_on_c, 2, 77, 0
4, 25522, Note_on_c, 2, 84, 0
4, 25525, Note_on_c, 2, 81, 0
4, 25539, Note_on_c, 2, 41, 0
4, 25560, Note_on_c, 2, 81, 99
4, 25560, Note_on_c, 2, 45, 90
4, 25560, Note_on_c, 2, 84, 90
4, 25560, Note_on_c, 2, 77, 82
4, 25581, Note_on_c, 2, 77, 0
4, 25585, Note_on_c, 2, 81, 0
4, 25586, Note_on_c, 2, 84, 0
4, 25594, Note_on_c, 2, 45, 0
4, 25620, Note_on_c, 2, 45, 90
4, 25620, Note_on_c, 2, 81, 99
4, 25620, Note_on_c, 2, 84, 90
4, 25620, Note_on_c, 2, 77, 68
4, 25637, Note_on_c, 2, 77, 0
4, 25641, Note_on_c, 2, 81, 0
4, 25643, Note_on_c, 2, 84, 0
4, 25678, Note_on_c, 2, 45, 0
4, 25680, Note_on_c, 2, 48, 99
4, 25680, Note_on_c, 2, 81, 108
4, 25680, Note_on_c, 2, 84, 90
4, 25680, Note_on_c, 2, 77, 90
4, 25703, Note_on_c, 2, 77, 0
4, 25705, Note_on_c, 2, 84, 0
4, 25705, Note_on_c, 2, 81, 0
4, 25740, Note_on_c, 2, 84, 61
4, 25740, Note_on_c, 2, 81, 90
4, 25740, Note_on_c, 2, 77, 39
4, 25759, Note_on_c, 2, 77, 0
4, 25762, Note_on_c, 2, 81, 0
4, 25764, Note_on_c, 2, 84, 0
4, 25791, Note_on_c, 2, 48, 0
4, 25800, Note_on_c, 2, 50, 82
4, 25800, Note_on_c, 2, 84, 90
4, 25800, Note_on_c, 2, 81, 99
4, 25800, Note_on_c, 2, 77, 82
4, 25822, Note_on_c, 2, 77, 0
4, 25823, Note_on_c, 2, 81, 0
4, 25831, Note_on_c, 2, 84, 0
4, 25860, Note_on_c, 2, 84, 82
4, 25860, Note_on_c, 2, 81, 90
4, 25860, Note_on_c, 2, 77, 61
4, 25881, Note_on_c, 2, 77, 0
4, 25881, Note_on_c, 2, 81, 0
4, 25883, Note_on_c, 2, 84, 0
4, 25909, Note_on_c, 2, 50, 0
4, 25920, Note_on_c, 2, 41, 82
4, 25920, Note_on_c, 2, 84, 82
4, 25920, Note_on_c, 2, 81, 99
4, 25920, Note_on_c, 2, 77, 82
4, 25943, Note_on_c, 2, 81, 0
4, 25944, Note_on_c, 2, 77, 0
4, 25950, Note_on_c, 2, 84, 0
4, 25980, Note_on_c, 2, 84, 68
4, 25980, Note_on_c, 2, 81, 82
4, 25980, Note_on_c, 2, 77, 61
4, 25999, Note_on_c, 2, 77, 0
4, 26001, Note_on_c, 2, 81, 0
4, 26005, Note_on_c, 2, 84, 0
4, 26014, Note_on_c, 2, 41, 0
4, 26040, Note_on_c, 2, 45, 99
4, 26040, Note_on_c, 2, 84, 99
4, 26040, Note_on_c, 2, 81, 117
4, 26040, Note_on_c, 2, 77, 90
4, 26065, Note_on_c, 2, 77, 0
4, 26066, Note_on_c, 2, 81, 0
4, 26073, Note_on_c, 2, 45, 0
4, 26075, Note_on_c, 2, 84, 0
4, 26100, Note_on_c, 2, 45, 99
4, 26100, Note_on_c, 2, 84, 75
4, 26100, Note_on_c, 2, 81, 90
4, 26100, Note_on_c, 2, 77, 61
4, 26119, Note_on_c, 2, 81, 0
4, 26121, Note_on_c, 2, 77, 0
4, 26121, Note_on_c, 2, 84, 0
4, 26156, Note_on_c, 2, 45, 0
4, 26160, Note_on_c, 2, 48, 99
4, 26160, Note_on_c, 2, 77, 61
4, 26160, Note_on_c, 2, 81, 82
4, 26160, Note_on_c, 2, 84, 45
4, 26181, Note_on_c, 2, 81, 0
4, 26183, Note_on_c, 2, 84, 0
4, 26183, Note_on_c, 2, 77, 0
4, 26220, Note_on_c, 2, 84, 39
4, 26220, Note_on_c, 2, 81, 82
4, 26220, Note_on_c, 2, 77, 39
4, 26239, Note_on_c, 2, 77, 0
4, 26239, Note_on_c, 2, 81, 0
4, 26246, Note_on_c, 2, 84, 0
4, 26268, Note_on_c, 2, 48, 0
4, 26280, Note_on_c, 2, 50, 82
4, 26280, Note_on_c, 2, 84, 90
4, 26280, Note_on_c, 2, 81, 108
4, 26280, Note_on_c, 2, 77, 90
4, 26309, Note_on_c, 2, 81, 0
4, 26312, Note_on_c, 2, 77, 0
4, 26316, Note_on_c, 2, 84, 0
4, 26340, Note_on_c, 2, 77, 68
4, 26340, Note_on_c, 2, 81, 90
4, 26340, Note_on_c, 2, 84, 52
4, 26361, Note_on_c, 2, 81, 0
4, 26364, Note_on_c, 2, 84, 0
4, 26366, Note_on_c, 2, 77, 0
4, 26385, Note_on_c, 2, 50, 0
4, 26400, Note_on_c, 2, 41, 82
4, 26400, Note_on_c, 2, 84, 90
4, 26400, Note_on_c, 2, 81, 82
4, 26400, Note_on_c, 2, 77, 68
4, 26419, Note_on_c, 2, 81, 0
4, 26422, Note_on_c, 2, 77, 0
4, 26428, Note_on_c, 2, 84, 0
4, 26460, Note_on_c, 2, 84, 61
4, 26460, Note_on_c, 2, 81, 90
4, 26460, Note_on_c, 2, 77, 61
4, 26480, Note_on_c, 2, 77, 0
4, 26481, Note_on_c, 2, 81, 0
4, 26486, Note_on_c, 2, 84, 0
4, 26498, Note_on_c, 2, 41, 0
4, 26520, Note_on_c, 2, 45, 90
4, 26520, Note_on_c, 2, 84, 82
4, 26520, Note_on_c, 2, 77, 82
4, 26520, Note_on_c, 2, 81, 99
4, 26543, Note_on_c, 2, 81, 0
4, 26549, Note_on_c, 2, 45, 0
4, 26551, Note_on_c, 2, 77, 0
4, 26557, Note_on_c, 2, 84, 0
4, 26580, Note_on_c, 2, 45, 99
4, 26580, Note_on_c, 2, 84, 61
4, 26580, Note_on_c, 2, 81, 99
4, 26580, Note_on_c, 2, 77, 61
4, 26601, Note_on_c, 2, 81, 0
4, 26604, Note_on_c, 2, 77, 0
4, 26611, Note_on_c, 2, 84, 0
4, 26635, Note_on_c, 2, 45, 0
4, 26640, Note_on_c, 2, 48, 99
4, 26640, Note_on_c, 2, 84, 75
4, 26640, Note_on_c, 2, 77, 75
4, 26640, Note_on_c, 2, 81, 90
4, 26661, Note_on_c, 2, 81, 0
4, 26666, Note_on_c, 2, 77, 0
4, 26673, Note_on_c, 2, 84, 0
4, 26700, Note_on_c, 2, 84, 82
4, 26700, Note_on_c, 2, 81, 90
4, 26700, Note_on_c, 2, 77, 75
4, 26719, Note_on_c, 2, 81, 0
4, 26720, Note_on_c, 2, 77, 0
4, 26724, Note_on_c, 2, 84, 0
4, 26747, Note_on_c, 2, 48, 0
4, 26760, Note_on_c, 2, 50, 82
4, 26760, Note_on_c, 2, 77, 90
4, 26760, Note_on_c, 2, 84, 99
4, 26760, Note_on_c, 2, 81, 99
4, 26781, Note_on_c, 2, 81, 0
4, 26786, Note_on_c, 2, 77, 0
4, 26789, Note_on_c, 2, 84, 0
4, 26820, Note_on_c, 2, 77, 75
4, 26820, Note_on_c, 2, 84, 90
4, 26820, Note_on_c, 2, 81, 108
4, 26841, Note_on_c, 2, 81, 0
4, 26843, Note_on_c, 2, 77, 0
4, 26844, Note_on_c, 2, 84, 0
4, 26867, Note_on_c, 2, 50, 0
4, 26880, Note_on_c, 2, 41, 90
4, 26880, Note_on_c, 2, 84, 90
4, 26880, Note_on_c, 2, 81, 90
4, 26880, Note_on_c, 2, 77, 75
4, 26901, Note_on_c, 2, 81, 0
4, 26902, Note_on_c, 2, 77, 0
4, 26908, Note_on_c, 2, 84, 0
4, 26940, Note_on_c, 2, 77, 75
4, 26940, Note_on_c, 2, 84, 99
4, 26940, Note_on_c, 2, 81, 99
4, 26959, Note_on_c, 2, 81, 0
4, 26961, Note_on_c, 2, 77, 0
4, 26964, Note_on_c, 2, 84, 0
4, 26981, Note_on_c, 2, 41, 0
4, 27000, Note_on_c, 2, 45, 90
4, 27000, Note_on_c, 2, 84, 108
4, 27000, Note_on_c, 2, 77, 99
4, 27000, Note_on_c, 2, 81, 99
4, 27021, Note_on_c, 2, 81, 0
4, 27024, Note_on_c, 2, 77, 0
4, 27028, Note_on_c, 2, 84, 0
4, 27033, Note_on_c, 2, 45, 0
4, 27060, Note_on_c, 2, 45, 90
4, 27060, Note_on_c, 2, 84, 90
4, 27060, Note_on_c, 2, 81, 99
4, 27060, Note_on_c, 2, 77, 82
4, 27081, Note_on_c, 2, 81, 0
4, 27082, Note_on_c, 2, 77, 0
4, 27086, Note_on_c, 2, 84, 0
4, 27113, Note_on_c, 2, 45, 0
4, 27120, Note_on_c, 2, 48, 99
4, 27120, Note_on_c, 2, 84, 90
4, 27120, Note_on_c, 2, 81, 108
4, 27120, Note_on_c, 2, 77, 82
4, 27141, Note_on_c, 2, 77, 0
4, 27141, Note_on_c, 2, 81, 0
4, 27146, Note_on_c, 2, 84, 0
4, 27180, Note_on_c, 2, 81, 99
4, 27180, Note_on_c, 2, 77, 82
4, 27180, Note_on_c, 2, 84, 90
4, 27201, Note_on_c, 2, 77, 0
4, 27203, Note_on_c, 2, 81, 0
4, 27204, Note_on_c, 2, 84, 0
4, 27224, Note_on_c, 2, 48, 0
4, 27240, Note_on_c, 2, 50, 82
4, 27240, Note_on_c, 2, 84, 99
4, 27240, Note_on_c, 2, 81, 108
4, 27240, Note_on_c, 2, 77, 90
4, 27263, Note_on_c, 2, 77, 0
4, 27265, Note_on_c, 2, 81, 0
4, 27265, Note_on_c, 2, 84, 0
4, 27300, Note_on_c, 2, 84, 82
4, 27300, Note_on_c, 2, 77, 75
4, 27300, Note_on_c, 2, 81, 90
4, 27319, Note_on_c, 2, 81, 0
4, 27323, Note_on_c, 2, 84, 0
4, 27326, Note_on_c, 2, 77, 0
4, 27352, Note_on_c, 2, 50, 0
4, 27360, Note_on_c, 2, 46, 117
4, 27360, Note_on_c, 2, 86, 108
4, 27360, Note_on_c, 2, 80, 124
4, 27360, Note_on_c, 2, 77, 90
4, 27379, Note_on_c, 2, 77, 0
4, 27390, Note_on_c, 2, 80, 0
4, 27392, Note_on_c, 2, 86, 0
4, 27420, Note_on_c, 2, 86, 82
4, 27420, Note_on_c, 2, 80, 108
4, 27420, Note_on_c, 2, 77, 90
4, 27437, Note_on_c, 2, 77, 0
4, 27444, Note_on_c, 2, 80, 0
4, 27453, Note_on_c, 2, 86, 0
4, 27474, Note_on_c, 2, 46, 0
4, 27480, Note_on_c, 2, 86, 99
4, 27480, Note_on_c, 2, 50, 90
4, 27480, Note_on_c, 2, 80, 117
4, 27480, Note_on_c, 2, 77, 82
4, 27499, Note_on_c, 2, 77, 0
4, 27502, Note_on_c, 2, 80, 0
4, 27509, Note_on_c, 2, 86, 0
4, 27511, Note_on_c, 2, 50, 0
4, 27540, Note_on_c, 2, 86, 108
4, 27540, Note_on_c, 2, 50, 82
4, 27540, Note_on_c, 2, 80, 117
4, 27540, Note_on_c, 2, 77, 99
4, 27561, Note_on_c, 2, 77, 0
4, 27561, Note_on_c, 2, 80, 0
4, 27571, Note_on_c, 2, 86, 0
4, 27590, Note_on_c, 2, 50, 0
4, 27600, Note_on_c, 2, 53, 99
4, 27600, Note_on_c, 2, 86, 117
4, 27600, Note_on_c, 2, 80, 124
4, 27600, Note_on_c, 2, 77, 99
4, 27619, Note_on_c, 2, 77, 0
4, 27623, Note_on_c, 2, 80, 0
4, 27629, Note_on_c, 2, 86, 0
4, 27660, Note_on_c, 2, 86, 99
4, 27660, Note_on_c, 2, 80, 117
4, 27660, Note_on_c, 2, 77, 82
4, 27679, Note_on_c, 2, 77, 0
4, 27681, Note_on_c, 2, 80, 0
4, 27688, Note_on_c, 2, 86, 0
4, 27702, Note_on_c, 2, 53, 0
4, 27720, Note_on_c, 2, 55, 75
4, 27720, Note_on_c, 2, 86, 108
4, 27720, Note_on_c, 2, 80, 117
4, 27720, Note_on_c, 2, 77, 90
4, 27740, Note_on_c, 2, 77, 0
4, 27741, Note_on_c, 2, 80, 0
4, 27750, Note_on_c, 2, 86, 0
4, 27780, Note_on_c, 2, 86, 99
4, 27780, Note_on_c, 2, 80, 117
4, 27780, Note_on_c, 2, 77, 82
4, 27799, Note_on_c, 2, 77, 0
4, 27801, Note_on_c, 2, 80, 0
4, 27809, Note_on_c, 2, 86, 0
4, 27830, Note_on_c, 2, 55, 0
4, 27840, Note_on_c, 2, 46, 108
4, 27840, Note_on_c, 2, 86, 90
4, 27840, Note_on_c, 2, 80, 124
4, 27840, Note_on_c, 2, 77, 82
4, 27857, Note_on_c, 2, 77, 0
4, 27862, Note_on_c, 2, 80, 0
4, 27870, Note_on_c, 2, 86, 0
4, 27900, Note_on_c, 2, 86, 90
4, 27900, Note_on_c, 2, 80, 117
4, 27900, Note_on_c, 2, 77, 68
4, 27913, Note_on_c, 2, 77, 0
4, 27922, Note_on_c, 2, 80, 0
4, 27928, Note_on_c, 2, 86, 0
4, 27936, Note_on_c, 2, 46, 0
4, 27960, Note_on_c, 2, 50, 82
4, 27960, Note_on_c, 2, 86, 90
4, 27960, Note_on_c, 2, 80, 124
4, 27960, Note_on_c, 2, 77, 90
4, 27975, Note_on_c, 2, 77, 0
4, 27984, Note_on_c, 2, 80, 0
4, 27987, Note_on_c, 2, 86, 0
4, 27993, Note_on_c, 2, 50, 0
4, 28020, Note_on_c, 2, 50, 90
4, 28020, Note_on_c, 2, 86, 90
4, 28020, Note_on_c, 2, 80, 124
4, 28020, Note_on_c, 2, 77, 82
4, 28037, Note_on_c, 2, 77, 0
4, 28044, Note_on_c, 2, 80, 0
4, 28049, Note_on_c, 2, 86, 0
4, 28070, Note_on_c, 2, 50, 0
4, 28080, Note_on_c, 2, 53, 99
4, 28080, Note_on_c, 2, 86, 99
4, 28080, Note_on_c, 2, 80, 117
4, 28080, Note_on_c, 2, 77, 75
4, 28099, Note_on_c, 2, 77, 0
4, 28104, Note_on_c, 2, 80, 0
4, 28109, Note_on_c, 2, 86, 0
4, 28140, Note_on_c, 2, 80, 124
4, 28140, Note_on_c, 2, 86, 108
4, 28140, Note_on_c, 2, 77, 99
4, 28161, Note_on_c, 2, 77, 0
4, 28164, Note_on_c, 2, 80, 0
4, 28168, Note_on_c, 2, 86, 0
4, 28188, Note_on_c, 2, 53, 0
4, 28200, Note_on_c, 2, 55, 90
4, 28200, Note_on_c, 2, 86, 99
4, 28200, Note_on_c, 2, 80, 117
4, 28200, Note_on_c, 2, 77, 90
4, 28221, Note_on_c, 2, 77, 0
4, 28223, Note_on_c, 2, 80, 0
4, 28227, Note_on_c, 2, 86, 0
4, 28260, Note_on_c, 2, 86, 90
4, 28260, Note_on_c, 2, 80, 117
4, 28260, Note_on_c, 2, 77, 82
4, 28281, Note_on_c, 2, 77, 0
4, 28284, Note_on_c, 2, 80, 0
4, 28292, Note_on_c, 2, 86, 0
4, 28294, Note_on_c, 2, 55, 0
4, 28320, Note_on_c, 2, 41, 75
4, 28320, Note_on_c, 2, 77, 90
4, 28320, Note_on_c, 2, 84, 108
4, 28320, Note_on_c, 2, 81, 108
4, 28345, Note_on_c, 2, 81, 0
4, 28346, Note_on_c, 2, 77, 0
4, 28349, Note_on_c, 2, 84, 0
4, 28380, Note_on_c, 2, 84, 99
4, 28380, Note_on_c, 2, 77, 82
4, 28380, Note_on_c, 2, 81, 99
4, 28401, Note_on_c, 2, 81, 0
4, 28406, Note_on_c, 2, 77, 0
4, 28409, Note_on_c, 2, 84, 0
4, 28416, Note_on_c, 2, 41, 0
4, 28440, Note_on_c, 2, 45, 90
4, 28440, Note_on_c, 2, 84, 90
4, 28440, Note_on_c, 2, 81, 99
4, 28440, Note_on_c, 2, 77, 90
4, 28463, Note_on_c, 2, 77, 0
4, 28464, Note_on_c, 2, 81, 0
4, 28467, Note_on_c, 2, 84, 0
4, 28473, Note_on_c, 2, 45, 0
4, 28500, Note_on_c, 2, 45, 82
4, 28500, Note_on_c, 2, 84, 99
4, 28500, Note_on_c, 2, 81, 108
4, 28500, Note_on_c, 2, 77, 99
4, 28524, Note_on_c, 2, 77, 0
4, 28524, Note_on_c, 2, 81, 0
4, 28527, Note_on_c, 2, 84, 0
4, 28553, Note_on_c, 2, 45, 0
4, 28560, Note_on_c, 2, 48, 108
4, 28560, Note_on_c, 2, 84, 99
4, 28560, Note_on_c, 2, 77, 82
4, 28560, Note_on_c, 2, 81, 99
4, 28580, Note_on_c, 2, 77, 0
4, 28581, Note_on_c, 2, 81, 0
4, 28586, Note_on_c, 2, 84, 0
4, 28620, Note_on_c, 2, 84, 90
4, 28620, Note_on_c, 2, 81, 108
4, 28620, Note_on_c, 2, 77, 82
4, 28639, Note_on_c, 2, 77, 0
4, 28641, Note_on_c, 2, 81, 0
4, 28646, Note_on_c, 2, 84, 0
4, 28667, Note_on_c, 2, 48, 0
4, 28680, Note_on_c, 2, 50, 82
4, 28680, Note_on_c, 2, 77, 99
4, 28680, Note_on_c, 2, 81, 108
4, 28680, Note_on_c, 2, 84, 90
4, 28702, Note_on_c, 2, 84, 0
4, 28702, Note_on_c, 2, 77, 0
4, 28703, Note_on_c, 2, 81, 0
4, 28740, Note_on_c, 2, 81, 99
4, 28740, Note_on_c, 2, 84, 99
4, 28740, Note_on_c, 2, 77, 90
4, 28759, Note_on_c, 2, 77, 0
4, 28763, Note_on_c, 2, 81, 0
4, 28764, Note_on_c, 2, 84, 0
4, 28783, Note_on_c, 2, 50, 0
4, 28800, Note_on_c, 2, 41, 90
4, 28800, Note_on_c, 2, 77, 82
4, 28800, Note_on_c, 2, 81, 99
4, 28800, Note_on_c, 2, 84, 90
4, 28819, Note_on_c, 2, 77, 0
4, 28821, Note_on_c, 2, 81, 0
4, 28822, Note_on_c, 2, 84, 0
4, 28860, Note_on_c, 2, 77, 90
4, 28860, Note_on_c, 2, 81, 108
4, 28860, Note_on_c, 2, 84, 99
4, 28882, Note_on_c, 2, 84, 0
4, 28882, Note_on_c, 2, 81, 0
4, 28882, Note_on_c, 2, 77, 0
4, 28898, Note_on_c, 2, 41, 0
4, 28920, Note_on_c, 2, 45, 90
4, 28920, Note_on_c, 2, 77, 99
4, 28920, Note_on_c, 2, 84, 108
4, 28920, Note_on_c, 2, 81, 99
4, 28941, Note_on_c, 2, 81, 0
4, 28942, Note_on_c, 2, 77, 0
4, 28943, Note_on_c, 2, 84, 0
4, 28953, Note_on_c, 2, 45, 0
4, 28980, Note_on_c, 2, 45, 82
4, 28980, Note_on_c, 2, 84, 108
4, 28980, Note_on_c, 2, 77, 90
4, 28980, Note_on_c, 2, 81, 108
4, 28997, Note_on_c, 2, 77, 0
4, 28999, Note_on_c, 2, 81, 0
4, 29002, Note_on_c, 2, 84, 0
4, 29032, Note_on_c, 2, 45, 0
4, 29040, Note_on_c, 2, 48, 99
4, 29040, Note_on_c, 2, 77, 99
4, 29040, Note_on_c, 2, 81, 108
4, 29040, Note_on_c, 2, 84, 108
4, 29060, Note_on_c, 2, 77, 0
4, 29061, Note_on_c, 2, 81, 0
4, 29062, Note_on_c, 2, 84, 0
4, 29100, Note_on_c, 2, 81, 99
4, 29100, Note_on_c, 2, 84, 108
4, 29100, Note_on_c, 2, 77, 99
4, 29119, Note_on_c, 2, 77, 0
4, 29122, Note_on_c, 2, 84, 0
4, 29123, Note_on_c, 2, 81, 0
4, 29141, Note_on_c, 2, 48, 0
4, 29160, Note_on_c, 2, 50, 68
4, 29160, Note_on_c, 2, 84, 108
4, 29160, Note_on_c, 2, 81, 90
4, 29160, Note_on_c, 2, 77, 90
4, 29177, Note_on_c, 2, 77, 0
4, 29182, Note_on_c, 2, 81, 0
4, 29187, Note_on_c, 2, 84, 0
4, 29220, Note_on_c, 2, 84, 99
4, 29220, Note_on_c, 2, 81, 99
4, 29220, Note_on_c, 2, 77, 82
4, 29239, Note_on_c, 2, 77, 0
4, 29239, Note_on_c, 2, 81, 0
4, 29244, Note_on_c, 2, 84, 0
4, 29251, Note_on_c, 2, 50, 0
4, 29280, Note_on_c, 2, 48, 99
4, 29280, Note_on_c, 2, 79, 108
4, 29280, Note_on_c, 2, 82, 127
4, 29280, Note_on_c, 2, 88, 108
4, 29298, Note_on_c, 2, 82, 0
4, 29299, Note_on_c, 2, 79, 0
4, 29303, Note_on_c, 2, 88, 0
4, 29340, Note_on_c, 2, 88, 99
4, 29340, Note_on_c, 2, 82, 124
4, 29340, Note_on_c, 2, 79, 82
4, 29355, Note_on_c, 2, 79, 0
4, 29360, Note_on_c, 2, 82, 0
4, 29366, Note_on_c, 2, 88, 0
4, 29384, Note_on_c, 2, 48, 0
4, 29400, Note_on_c, 2, 52, 82
4, 29400, Note_on_c, 2, 82, 127
4, 29400, Note_on_c, 2, 88, 108
4, 29400, Note_on_c, 2, 79, 108
4, 29420, Note_on_c, 2, 79, 0
4, 29423, Note_on_c, 2, 88, 0
4, 29423, Note_on_c, 2, 82, 0
4, 29429, Note_on_c, 2, 52, 0
4, 29460, Note_on_c, 2, 52, 68
4, 29460, Note_on_c, 2, 82, 127
4, 29460, Note_on_c, 2, 79, 108
4, 29460, Note_on_c, 2, 88, 117
4, 29479, Note_on_c, 2, 79, 0
4, 29480, Note_on_c, 2, 88, 0
4, 29480, Note_on_c, 2, 82, 0
4, 29513, Note_on_c, 2, 52, 0
4, 29520, Note_on_c, 2, 55, 99
4, 29520, Note_on_c, 2, 82, 127
4, 29520, Note_on_c, 2, 88, 117
4, 29520, Note_on_c, 2, 79, 99
4, 29540, Note_on_c, 2, 82, 0
4, 29541, Note_on_c, 2, 79, 0
4, 29542, Note_on_c, 2, 88, 0
4, 29580, Note_on_c, 2, 82, 127
4, 29580, Note_on_c, 2, 88, 117
4, 29580, Note_on_c, 2, 79, 99
4, 29603, Note_on_c, 2, 79, 0
4, 29603, Note_on_c, 2, 88, 0
4, 29604, Note_on_c, 2, 82, 0
4, 29632, Note_on_c, 2, 55, 0
4, 29640, Note_on_c, 2, 88, 117
4, 29640, Note_on_c, 2, 79, 99
4, 29640, Note_on_c, 2, 57, 99
4, 29640, Note_on_c, 2, 82, 127
4, 29661, Note_on_c, 2, 79, 0
4, 29663, Note_on_c, 2, 82, 0
4, 29665, Note_on_c, 2, 88, 0
4, 29700, Note_on_c, 2, 88, 99
4, 29700, Note_on_c, 2, 82, 117
4, 29700, Note_on_c, 2, 79, 75
4, 29706, Note_on_c, 2, 57, 0
4, 29720, Note_on_c, 2, 79, 0
4, 29722, Note_on_c, 2, 82, 0
4, 29724, Note_on_c, 2, 88, 0
4, 29760, Note_on_c, 2, 46, 127
4, 29760, Note_on_c, 2, 80, 127
4, 29760, Note_on_c, 2, 86, 124
4, 29760, Note_on_c, 2, 77, 124
4, 29760, Note_on_c, 2, 80, 127
4, 29760, Note_on_c, 2, 77, 117
4, 29760, Note_on_c, 2, 86, 117
4, 29781, Note_on_c, 2, 77, 0
4, 29783, Note_on_c, 2, 80, 0
4, 29784, Note_on_c, 2, 86, 0
4, 29792, Note_on_c, 2, 77, 0
4, 29800, Note_on_c, 2, 80, 0
4, 29801, Note_on_c, 2, 86, 0
4, 29812, Note_on_c, 2, 46, 0
4, 29820, Note_on_c, 2, 86, 108
4, 29820, Note_on_c, 2, 80, 117
4, 29820, Note_on_c, 2, 77, 75
4, 29835, Note_on_c, 2, 77, 0
4, 29839, Note_on_c, 2, 80, 0
4, 29845, Note_on_c, 2, 86, 0
4, 29880, Note_on_c, 2, 80, 127
4, 29880, Note_on_c, 2, 77, 108
4, 29880, Note_on_c, 2, 86, 117
4, 29899, Note_on_c, 2, 77, 0
4, 29899, Note_on_c, 2, 80, 0
4, 29901, Note_on_c, 2, 86, 0
4, 29940, Note_on_c, 2, 86, 117
4, 29940, Note_on_c, 2, 80, 124
4, 29940, Note_on_c, 2, 77, 99
4, 29955, Note_on_c, 2, 77, 0
4, 29957, Note_on_c, 2, 80, 0
4, 29962, Note_on_c, 2, 86, 0
4, 30000, Note_on_c, 2, 86, 117
4, 30000, Note_on_c, 2, 80, 124
4, 30000, Note_on_c, 2, 77, 99
4, 30018, Note_on_c, 2, 77, 0
4, 30018, Note_on_c, 2, 80, 0
4, 30027, Note_on_c, 2, 86, 0
4, 30060, Note_on_c, 2, 86, 99
4, 30060, Note_on_c, 2, 80, 124
4, 30060, Note_on_c, 2, 77, 82
4, 30077, Note_on_c, 2, 77, 0
4, 30079, Note_on_c, 2, 80, 0
4, 30087, Note_on_c, 2, 86, 0
4, 30120, Note_on_c, 2, 86, 99
4, 30120, Note_on_c, 2, 80, 124
4, 30120, Note_on_c, 2, 77, 99
4, 30139, Note_on_c, 2, 77, 0
4, 30142, Note_on_c, 2, 80, 0
4, 30150, Note_on_c, 2, 86, 0
4, 30180, Note_on_c, 2, 86, 117
4, 30180, Note_on_c, 2, 80, 127
4, 30180, Note_on_c, 2, 77, 117
4, 30203, Note_on_c, 2, 77, 0
4, 30208, Note_on_c, 2, 80, 0
4, 30214, Note_on_c, 2, 86, 0
4, 30240, Note_on_c, 2, 84, 108
4, 30240, Note_on_c, 2, 81, 117
4, 30240, Note_on_c, 2, 41, 99
4, 30240, Note_on_c, 2, 77, 108
4, 30263, Note_on_c, 2, 77, 0
4, 30265, Note_on_c, 2, 81, 0
4, 30267, Note_on_c, 2, 84, 0
4, 30300, Note_on_c, 2, 84, 90
4, 30300, Note_on_c, 2, 77, 75
4, 30300, Note_on_c, 2, 81, 90
4, 30321, Note_on_c, 2, 81, 0
4, 30323, Note_on_c, 2, 77, 0
4, 30328, Note_on_c, 2, 84, 0
4, 30346, Note_on_c, 2, 41, 0
4, 30360, Note_on_c, 2, 45, 68
4, 30360, Note_on_c, 2, 77, 99
4, 30360, Note_on_c, 2, 81, 117
4, 30360, Note_on_c, 2, 84, 108
4, 30382, Note_on_c, 2, 84, 0
4, 30382, Note_on_c, 2, 81, 0
4, 30383, Note_on_c, 2, 77, 0
4, 30386, Note_on_c, 2, 45, 0
4, 30420, Note_on_c, 2, 45, 90
4, 30420, Note_on_c, 2, 81, 108
4, 30420, Note_on_c, 2, 77, 68
4, 30420, Note_on_c, 2, 84, 68
4, 30434, Note_on_c, 2, 84, 0
4, 30435, Note_on_c, 2, 77, 0
4, 30440, Note_on_c, 2, 81, 0
4, 30462, Note_on_c, 2, 45, 0
4, 30480, Note_on_c, 2, 48, 99
4, 30480, Note_on_c, 2, 81, 108
4, 30480, Note_on_c, 2, 77, 108
4, 30480, Note_on_c, 2, 84, 99
4, 30503, Note_on_c, 2, 81, 0
4, 30504, Note_on_c, 2, 77, 0
4, 30506, Note_on_c, 2, 84, 0
4, 30540, Note_on_c, 2, 84, 90
4, 30540, Note_on_c, 2, 81, 99
4, 30540, Note_on_c, 2, 77, 61
4, 30559, Note_on_c, 2, 77, 0
4, 30559, Note_on_c, 2, 81, 0
4, 30566, Note_on_c, 2, 84, 0
4, 30586, Note_on_c, 2, 48, 0
4, 30600, Note_on_c, 2, 50, 82
4, 30600, Note_on_c, 2, 84, 99
4, 30600, Note_on_c, 2, 81, 108
4, 30600, Note_on_c, 2, 77, 99
4, 30621, Note_on_c, 2, 81, 0
4, 30622, Note_on_c, 2, 77, 0
4, 30623, Note_on_c, 2, 84, 0
4, 30660, Note_on_c, 2, 84, 90
4, 30660, Note_on_c, 2, 81, 99
4, 30660, Note_on_c, 2, 77, 90
4, 30675, Note_on_c, 2, 77, 0
4, 30678, Note_on_c, 2, 81, 0
4, 30679, Note_on_c, 2, 84, 0
4, 30698, Note_on_c, 2, 50, 0
4, 30720, Note_on_c, 2, 41, 99
4, 30720, Note_on_c, 2, 84, 108
4, 30720, Note_on_c, 2, 81, 117
4, 30720, Note_on_c, 2, 77, 108
4, 30741, Note_on_c, 2, 77, 0
4, 30741, Note_on_c, 2, 81, 0
4, 30747, Note_on_c, 2, 84, 0
4, 30780, Note_on_c, 2, 77, 99
4, 30780, Note_on_c, 2, 81, 108
4, 30780, Note_on_c, 2, 84, 99
4, 30797, Note_on_c, 2, 84, 0
4, 30798, Note_on_c, 2, 81, 0
4, 30798, Note_on_c, 2, 77, 0
4, 30827, Note_on_c, 2, 41, 0
4, 30840, Note_on_c, 2, 45, 90
4, 30840, Note_on_c, 2, 77, 99
4, 30840, Note_on_c, 2, 81, 108
4, 30840, Note_on_c, 2, 84, 99
4, 30857, Note_on_c, 2, 84, 0
4, 30860, Note_on_c, 2, 81, 0
4, 30860, Note_on_c, 2, 77, 0
4, 30869, Note_on_c, 2, 45, 0
4, 30900, Note_on_c, 2, 45, 99
4, 30900, Note_on_c, 2, 81, 108
4, 30900, Note_on_c, 2, 84, 82
4, 30900, Note_on_c, 2, 77, 75
4, 30915, Note_on_c, 2, 77, 0
4, 30919, Note_on_c, 2, 84, 0
4, 30921, Note_on_c, 2, 81, 0
4, 30950, Note_on_c, 2, 45, 0
4, 30960, Note_on_c, 2, 48, 108
4, 30960, Note_on_c, 2, 77, 90
4, 30960, Note_on_c, 2, 84, 99
4, 30960, Note_on_c, 2, 81, 108
4, 30979, Note_on_c, 2, 77, 0
4, 30980, Note_on_c, 2, 81, 0
4, 30983, Note_on_c, 2, 84, 0
4, 31020, Note_on_c, 2, 84, 99
4, 31020, Note_on_c, 2, 77, 90
4, 31020, Note_on_c, 2, 81, 108
4, 31039, Note_on_c, 2, 77, 0
4, 31040, Note_on_c, 2, 81, 0
4, 31041, Note_on_c, 2, 84, 0
4, 31070, Note_on_c, 2, 48, 0
4, 31080, Note_on_c, 2, 84, 108
4, 31080, Note_on_c, 2, 50, 108
4, 31080, Note_on_c, 2, 81, 108
4, 31080, Note_on_c, 2, 77, 99
4, 31099, Note_on_c, 2, 77, 0
4, 31101, Note_on_c, 2, 81, 0
4, 31106, Note_on_c, 2, 84, 0
4, 31140, Note_on_c, 2, 84, 117
4, 31140, Note_on_c, 2, 81, 124
4, 31140, Note_on_c, 2, 77, 117
4, 31145, Note_on_c, 2, 50, 0
4, 31167, Note_on_c, 2, 77, 0
4, 31167, Note_on_c, 2, 81, 0
4, 31169, Note_on_c, 2, 84, 0
4, 31200, Note_on_c, 2, 41, 108
4, 31200, Note_on_c, 2, 77, 117
4, 31200, Note_on_c, 2, 81, 117
4, 31200, Note_on_c, 2, 84, 108
4, 31224, Note_on_c, 2, 81, 0
4, 31225, Note_on_c, 2, 77, 0
4, 31226, Note_on_c, 2, 84, 0
4, 31260, Note_on_c, 2, 81, 82
4, 31260, Note_on_c, 2, 77, 75
4, 31260, Note_on_c, 2, 84, 75
4, 31281, Note_on_c, 2, 77, 0
4, 31282, Note_on_c, 2, 84, 0
4, 31285, Note_on_c, 2, 81, 0
4, 31299, Note_on_c, 2, 41, 0
4, 31320, Note_on_c, 2, 81, 99
4, 31320, Note_on_c, 2, 45, 90
4, 31320, Note_on_c, 2, 84, 90
4, 31320, Note_on_c, 2, 77, 82
4, 31341, Note_on_c, 2, 77, 0
4, 31345, Note_on_c, 2, 81, 0
4, 31346, Note_on_c, 2, 84, 0
4, 31354, Note_on_c, 2, 45, 0
4, 31380, Note_on_c, 2, 45, 90
4, 31380, Note_on_c, 2, 81, 99
4, 31380, Note_on_c, 2, 84, 90
4, 31380, Note_on_c, 2, 77, 68
4, 31397, Note_on_c, 2, 77, 0
4, 31401, Note_on_c, 2, 81, 0
4, 31403, Note_on_c, 2, 84, 0
4, 31438, Note_on_c, 2, 45, 0
4, 31440, Note_on_c, 2, 48, 99
4, 31440, Note_on_c, 2, 81, 108
4, 31440, Note_on_c, 2, 84, 90
4, 31440, Note_on_c, 2, 77, 90
4, 31463, Note_on_c, 2, 77, 0
4, 31465, Note_on_c, 2, 84, 0
4, 31465, Note_on_c, 2, 81, 0
4, 31500, Note_on_c, 2, 84, 61
4, 31500, Note_on_c, 2, 81, 90
4, 31500, Note_on_c, 2, 77, 39
4, 31519, Note_on_c, 2, 77, 0
4, 31522, Note_on_c, 2, 81, 0
4, 31524, Note_on_c, 2, 84, 0
4, 31551, Note_on_c, 2, 48, 0
4, 31560, Note_on_c, 2, 50, 82
4, 31560, Note_on_c, 2, 84, 90
4, 31560, Note_on_c, 2, 81, 99
4, 31560, Note_on_c, 2, 77, 82
4, 31582, Note_on_c, 2, 77, 0
4, 31583, Note_on_c, 2, 81, 0
4, 31591, Note_on_c, 2, 84, 0
4, 31620, Note_on_c, 2, 84, 82
4, 31620, Note_on_c, 2, 81, 90
4, 31620, Note_on_c, 2, 77, 61
4, 31641, Note_on_c, 2, 77, 0
4, 31641, Note_on_c, 2, 81, 0
4, 31643, Note_on_c, 2, 84, 0
4, 31669, Note_on_c, 2, 50, 0
4, 31680, Note_on_c, 2, 41, 82
4, 31680, Note_on_c, 2, 84, 82
4, 31680, Note_on_c, 2, 81, 99
4, 31680, Note_on_c, 2, 77, 82
4, 31703, Note_on_c, 2, 81, 0
4, 31704, Note_on_c, 2, 77, 0
4, 31710, Note_on_c, 2, 84, 0
4, 31740, Note_on_c, 2, 84, 68
4, 31740, Note_on_c, 2, 81, 82
4, 31740, Note_on_c, 2, 77, 61
4, 31759, Note_on_c, 2, 77, 0
4, 31761, Note_on_c, 2, 81, 0
4, 31765, Note_on_c, 2, 84, 0
4, 31774, Note_on_c, 2, 41, 0
4, 31800, Note_on_c, 2, 45, 99
4, 31800, Note_on_c, 2, 84, 99
4, 31800, Note_on_c, 2, 81, 117
4, 31800, Note_on_c, 2, 77, 90
4, 31825, Note_on_c, 2, 77, 0
4, 31826, Note_on_c, 2, 81, 0
4, 31833, Note_on_c, 2, 45, 0
4, 31835, Note_on_c, 2, 84, 0
4, 31860, Note_on_c, 2, 45, 99
4, 31860, Note_on_c, 2, 84, 75
4, 31860, Note_on_c, 2, 81, 90
4, 31860, Note_on_c, 2, 77, 61
4, 31879, Note_on_c, 2, 81, 0
4, 31881, Note_on_c, 2, 77, 0
4, 31881, Note_on_c, 2, 84, 0
4, 31916, Note_on_c, 2, 45, 0
4, 31920, Note_on_c, 2, 48, 99
4, 31920, Note_on_c, 2, 77, 61
4, 31920, Note_on_c, 2, 81, 82
4, 31920, Note_on_c, 2, 84, 45
4, 31941, Note_on_c, 2, 81, 0
4, 31943, Note_on_c, 2, 84, 0
4, 31943, Note_on_c, 2, 77, 0
4, 31980, Note_on_c, 2, 84, 39
4, 31980, Note_on_c, 2, 81, 82
4, 31980, Note_on_c, 2, 77, 39
4, 31999, Note_on_c, 2, 77, 0
4, 31999, Note_on_c, 2, 81, 0
4, 32006, Note_on_c, 2, 84, 0
4, 32028, Note_on_c, 2, 48, 0
4, 32040, Note_on_c, 2, 50, 82
4, 32040, Note_on_c, 2, 84, 90
4, 32040, Note_on_c, 2, 81, 108
4, 32040, Note_on_c, 2, 77, 90
4, 32069, Note_on_c, 2, 81, 0
4, 32072, Note_on_c, 2, 77, 0
4, 32076, Note_on_c, 2, 84, 0
4, 32100, Note_on_c, 2, 77, 68
4, 32100, Note_on_c, 2, 81, 90
4, 32100, Note_on_c, 2, 84, 52
4, 32121, Note_on_c, 2, 81, 0
4, 32124, Note_on_c, 2, 84, 0
4, 32126, Note_on_c, 2, 77, 0
4, 32145, Note_on_c, 2, 50, 0
4, 32160, Note_on_c, 2, 41, 82
4, 32160, Note_on_c, 2, 84, 90
4, 32160, Note_on_c, 2, 81, 82
4, 32160, Note_on_c, 2, 77, 68
4, 32179, Note_on_c, 2, 81, 0
4, 32182, Note_on_c, 2, 77, 0
4, 32188, Note_on_c, 2, 84, 0
4, 32220, Note_on_c, 2, 84, 61
4, 32220, Note_on_c, 2, 81, 90
4, 32220, Note_on_c, 2, 77, 61
4, 32240, Note_on_c, 2, 77, 0
4, 32241, Note_on_c, 2, 81, 0
4, 32246, Note_on_c, 2, 84, 0
4, 32258, Note_on_c, 2, 41, 0
4, 32280, Note_on_c, 2, 45, 90
4, 32280, Note_on_c, 2, 84, 82
4, 32280, Note_on_c, 2, 77, 82
4, 32280, Note_on_c, 2, 81, 99
4, 32303, Note_on_c, 2, 81, 0
4, 32309, Note_on_c, 2, 45, 0
4, 32311, Note_on_c, 2, 77, 0
4, 32317, Note_on_c, 2, 84, 0
4, 32340, Note_on_c, 2, 45, 99
4, 32340, Note_on_c, 2, 84, 61
4, 32340, Note_on_c, 2, 81, 99
4, 32340, Note_on_c, 2, 77, 61
4, 32361, Note_on_c, 2, 81, 0
4, 32364, Note_on_c, 2, 77, 0
4, 32371, Note_on_c, 2, 84, 0
4, 32395, Note_on_c, 2, 45, 0
4, 32400, Note_on_c, 2, 48, 99
4, 32400, Note_on_c, 2, 84, 75
4, 32400, Note_on_c, 2, 77, 75
4, 32400, Note_on_c, 2, 81, 90
4, 32421, Note_on_c, 2, 81, 0
4, 32426, Note_on_c, 2, 77, 0
4, 32433, Note_on_c, 2, 84, 0
4, 32460, Note_on_c, 2, 84, 82
4, 32460, Note_on_c, 2, 81, 90
4, 32460, Note_on_c, 2, 77, 75
4, 32479, Note_on_c, 2, 81, 0
4, 32480, Note_on_c, 2, 77, 0
4, 32484, Note_on_c, 2, 84, 0
4, 32507, Note_on_c, 2, 48, 0
4, 32520, Note_on_c, 2, 50, 82
4, 32520, Note_on_c, 2, 77, 90
4, 32520, Note_on_c, 2, 84, 99
4, 32520, Note_on_c, 2, 81, 99
4, 32541, Note_on_c, 2, 81, 0
4, 32546, Note_on_c, 2, 77, 0
4, 32549, Note_on_c, 2, 84, 0
4, 32580, Note_on_c, 2, 77, 75
4, 32580, Note_on_c, 2, 84, 90
4, 32580, Note_on_c, 2, 81, 108
4, 32601, Note_on_c, 2, 81, 0
4, 32603, Note_on_c, 2, 77, 0
4, 32604, Note_on_c, 2, 84, 0
4, 32627, Note_on_c, 2, 50, 0
4, 32640, Note_on_c, 2, 41, 90
4, 32640, Note_on_c, 2, 84, 90
4, 32640, Note_on_c, 2, 81, 90
4, 32640, Note_on_c, 2, 77, 75
4, 32661, Note_on_c, 2, 81, 0
4, 32662, Note_on_c, 2, 77, 0
4, 32668, Note_on_c, 2, 84, 0
4, 32700, Note_on_c, 2, 77, 75
4, 32700, Note_on_c, 2, 84, 99
4, 32700, Note_on_c, 2, 81, 99
4, 32719, Note_on_c, 2, 81, 0
4, 32721, Note_on_c, 2, 77, 0
4, 32724, Note_on_c, 2, 84, 0
4, 32741, Note_on_c, 2, 41, 0
4, 32760, Note_on_c, 2, 45, 90
4, 32760, Note_on_c, 2, 84, 108
4, 32760, Note_on_c, 2, 77, 99
4, 32760, Note_on_c, 2, 81, 99
4, 32781, Note_on_c, 2, 81, 0
4, 32784, Note_on_c, 2, 77, 0
4, 32788, Note_on_c, 2, 84, 0
4, 32793, Note_on_c, 2, 45, 0
4, 32820, Note_on_c, 2, 45, 90
4, 32820, Note_on_c, 2, 84, 90
4, 32820, Note_on_c, 2, 81, 99
4, 32820, Note_on_c, 2, 77, 82
4, 32841, Note_on_c, 2, 81, 0
4, 32842, Note_on_c, 2, 77, 0
4, 32846, Note_on_c, 2, 84, 0
4, 32873, Note_on_c, 2, 45, 0
4, 32880, Note_on_c, 2, 48, 99
4, 32880, Note_on_c, 2, 84, 90
4, 32880, Note_on_c, 2, 81, 108
4, 32880, Note_on_c, 2, 77, 82
4, 32901, Note_on_c, 2, 77, 0
4, 32901, Note_on_c, 2, 81, 0
4, 32906, Note_on_c, 2, 84, 0
4, 32940, Note_on_c, 2, 81, 99
4, 32940, Note_on_c, 2, 77, 82
4, 32940, Note_on_c, 2, 84, 90
4, 32961, Note_on_c, 2, 77, 0
4, 32963, Note_on_c, 2, 81, 0
4, 32964, Note_on_c, 2, 84, 0
4, 32984, Note_on_c, 2, 48, 0
4, 33000, Note_on_c, 2, 50, 82
4, 33000, Note_on_c, 2, 84, 99
4, 33000, Note_on_c, 2, 81, 108
4, 33000, Note_on_c, 2, 77, 90
4, 33023, Note_on_c, 2, 77, 0
4, 33025, Note_on_c, 2, 81, 0
4, 33025, Note_on_c, 2, 84, 0
4, 33060, Note_on_c, 2, 84, 82
4, 33060, Note_on_c, 2, 77, 75
4, 33060, Note_on_c, 2, 81, 90
4, 33079, Note_on_c, 2, 81, 0
4, 33083, Note_on_c, 2, 84, 0
4, 33086, Note_on_c, 2, 77, 0
4, 33112, Note_on_c, 2, 50, 0
4, 33120, Note_on_c, 2, 46, 117
4, 33120, Note_on_c, 2, 86, 108
4, 33120, Note_on_c, 2, 80, 124
4, 33120, Note_on_c, 2, 77, 90
4, 33139, Note_on_c, 2, 77, 0
4, 33150, Note_on_c, 2, 80, 0
4, 33152, Note_on_c, 2, 86, 0
4, 33180, Note_on_c, 2, 86, 82
4, 33180, Note_on_c, 2, 80, 108
4, 33180, Note_on_c, 2, 77, 90
4, 33197, Note_on_c, 2, 77, 0
4, 33204, Note_on_c, 2, 80, 0
4, 33213, Note_on_c, 2, 86, 0
4, 33234, Note_on_c, 2, 46, 0
4, 33240, Note_on_c, 2, 86, 99
4, 33240, Note_on_c, 2, 50, 90
4, 33240, Note_on_c, 2, 80, 117
4, 33240, Note_on_c, 2, 77, 82
4, 33259, Note_on_c, 2, 77, 0
4, 33262, Note_on_c, 2, 80, 0
4, 33269, Note_on_c, 2, 86, 0
4, 33271, Note_on_c, 2, 50, 0
4, 33300, Note_on_c, 2, 86, 108
4, 33300, Note_on_c, 2, 50, 82
4, 33300, Note_on_c, 2, 80, 117
4, 33300, Note_on_c, 2, 77, 99
4, 33321, Note_on_c, 2, 77, 0
4, 33321, Note_on_c, 2, 80, 0
4, 33331, Note_on_c, 2, 86, 0
4, 33350, Note_on_c, 2, 50, 0
4, 33360, Note_on_c, 2, 53, 99
4, 33360, Note_on_c, 2, 86, 117
4, 33360, Note_on_c, 2, 80, 124
4, 33360, Note_on_c, 2, 77, 99
4, 33379, Note_on_c, 2, 77, 0
4, 33383, Note_on_c, 2, 80, 0
4, 33389, Note_on_c, 2, 86, 0
4, 33420, Note_on_c, 2, 86, 99
4, 33420, Note_on_c, 2, 80, 117
4, 33420, Note_on_c, 2, 77, 82
4, 33439, Note_on_c, 2, 77, 0
4, 33441, Note_on_c, 2, 80, 0
4, 33448, Note_on_c, 2, 86, 0
4, 33462, Note_on_c, 2, 53, 0
4, 33480, Note_on_c, 2, 55, 75
4, 33480, Note_on_c, 2, 86, 108
4, 33480, Note_on_c, 2, 80, 117
4, 33480, Note_on_c, 2, 77, 90
4, 33500, Note_on_c, 2, 77, 0
4, 33501, Note_on_c, 2, 80, 0
4, 33510, Note_on_c, 2, 86, 0
4, 33540, Note_on_c, 2, 86, 99
4, 33540, Note_on_c, 2, 80, 117
4, 33540, Note_on_c, 2, 77, 82
4, 33559, Note_on_c, 2, 77, 0
4, 33561, Note_on_c, 2, 80, 0
4, 33569, Note_on_c, 2, 86, 0
4, 33590, Note_on_c, 2, 55, 0
4, 33600, Note_on_c, 2, 46, 108
4, 33600, Note_on_c, 2, 86, 90
4, 33600, Note_on_c, 2, 80, 124
4, 33600, Note_on_c, 2, 77, 82
4, 33617, Note_on_c, 2, 77, 0
4, 33622, Note_on_c, 2, 80, 0
4, 33630, Note_on_c, 2, 86, 0
4, 33660, Note_on_c, 2, 86, 90
4, 33660, Note_on_c, 2, 80, 117
4, 33660, Note_on_c, 2, 77, 68
4, 33673, Note_on_c, 2, 77, 0
4, 33682, Note_on_c, 2, 80, 0
4, 33688, Note_on_c, 2, 86, 0
4, 33696, Note_on_c, 2, 46, 0
4, 33720, Note_on_c, 2, 50, 82
4, 33720, Note_on_c, 2, 86, 90
4, 33720, Note_on_c, 2, 80, 124
4, 33720, Note_on_c, 2, 77, 90
4, 33735, Note_on_c, 2, 77, 0
4, 33744, Note_on_c, 2, 80, 0
4, 33747, Note_on_c, 2, 86, 0
4, 33753, Note_on_c, 2, 50, 0
4, 33780, Note_on_c, 2, 50, 90
4, 33780, Note_on_c, 2, 86, 90
4, 33780, Note_on_c, 2, 80, 124
4, 33780, Note_on_c, 2, 77, 82
4, 33797, Note_on_c, 2, 77, 0
4, 33804, Note_on_c, 2, 80, 0
4, 33809, Note_on_c, 2, 86, 0
4, 33830, Note_on_c, 2, 50, 0
4, 33840, Note_on_c, 2, 53, 99
4, 33840, Note_on_c, 2, 86, 99
4, 33840, Note_on_c, 2, 80, 117
4, 33840, Note_on_c, 2, 77, 75
4, 33859, Note_on_c, 2, 77, 0
4, 33864, Note_on_c, 2, 80, 0
4, 33869, Note_on_c, 2, 86, 0
4, 33900, Note_on_c, 2, 80, 124
4, 33900, Note_on_c, 2, 86, 108
4, 33900, Note_on_c, 2, 77, 99
4, 33921, Note_on_c, 2, 77, 0
4, 33924, Note_on_c, 2, 80, 0
4, 33928, Note_on_c, 2, 86, 0
4, 33948, Note_on_c, 2, 53, 0
4, 33960, Note_on_c, 2, 55, 90
4, 33960, Note_on_c, 2, 86, 99
4, 33960, Note_on_c, 2, 80, 117
4, 33960, Note_on_c, 2, 77, 90
4, 33981, Note_on_c, 2, 77, 0
4, 33983, Note_on_c, 2, 80, 0
4, 33987, Note_on_c, 2, 86, 0
4, 34020, Note_on_c, 2, 86, 90
4, 34020, Note_on_c, 2, 80, 117
4, 34020, Note_on_c, 2, 77, 82
4, 34041, Note_on_c, 2, 77, 0
4, 34044, Note_on_c, 2, 80, 0
4, 34052, Note_on_c, 2, 86, 0
4, 34054, Note_on_c, 2, 55, 0
4, 34080, Note_on_c, 2, 41, 75
4, 34080, Note_on_c, 2, 77, 90
4, 34080, Note_on_c, 2, 84, 108
4, 34080, Note_on_c, 2, 81, 108
4, 34105, Note_on_c, 2, 81, 0
4, 34106, Note_on_c, 2, 77, 0
4, 34109, Note_on_c, 2, 84, 0
4, 34140, Note_on_c, 2, 84, 99
4, 34140, Note_on_c, 2, 77, 82
4, 34140, Note_on_c, 2, 81, 99
4, 34161, Note_on_c, 2, 81, 0
4, 34166, Note_on_c, 2, 77, 0
4, 34169, Note_on_c, 2, 84, 0
4, 34176, Note_on_c, 2, 41, 0
4, 34200, Note_on_c, 2, 45, 90
4, 34200, Note_on_c, 2, 84, 90
4, 34200, Note_on_c, 2, 81, 99
4, 34200, Note_on_c, 2, 77, 90
4, 34223, Note_on_c, 2, 77, 0
4, 34224, Note_on_c, 2, 81, 0
4, 34227, Note_on_c, 2, 84, 0
4, 34233, Note_on_c, 2, 45, 0
4, 34260, Note_on_c, 2, 45, 82
4, 34260, Note_on_c, 2, 84, 99
4, 34260, Note_on_c, 2, 81, 108
4, 34260, Note_on_c, 2, 77, 99
4, 34284, Note_on_c, 2, 77, 0
4, 34284, Note_on_c, 2, 81, 0
4, 34287, Note_on_c, 2, 84, 0
4, 34313, Note_on_c, 2, 45, 0
4, 34320, Note_on_c, 2, 48, 108
4, 34320, Note_on_c, 2, 84, 99
4, 34320, Note_on_c, 2, 77, 82
4, 34320, Note_on_c, 2, 81, 99
4, 34340, Note_on_c, 2, 77, 0
4, 34341, Note_on_c, 2, 81, 0
4, 34346, Note_on_c, 2, 84, 0
4, 34380, Note_on_c, 2, 84, 90
4, 34380, Note_on_c, 2, 81, 108
4, 34380, Note_on_c, 2, 77, 82
4, 34399, Note_on_c, 2, 77, 0
4, 34401, Note_on_c, 2, 81, 0
4, 34406, Note_on_c, 2, 84, 0
4, 34427, Note_on_c, 2, 48, 0
4, 34440, Note_on_c, 2, 50, 82
4, 34440, Note_on_c, 2, 77, 99
4, 34440, Note_on_c, 2, 81, 108
4, 34440, Note_on_c, 2, 84, 90
4, 34462, Note_on_c, 2, 84, 0
4, 34462, Note_on_c, 2, 77, 0
4, 34463, Note_on_c, 2, 81, 0
4, 34500, Note_on_c, 2, 81, 99
4, 34500, Note_on_c, 2, 84, 99
4, 34500, Note_on_c, 2, 77, 90
4, 34519, Note_on_c, 2, 77, 0
4, 34523, Note_on_c, 2, 81, 0
4, 34524, Note_on_c, 2, 84, 0
4, 34543, Note_on_c, 2, 50, 0
4, 34560, Note_on_c, 2, 41, 90
4, 34560, Note_on_c, 2, 77, 82
4, 34560, Note_on_c, 2, 81, 99
4, 34560, Note_on_c, 2, 84, 90
4, 34579, Note_on_c, 2, 77, 0
4, 34581, Note_on_c, 2, 81, 0
4, 34582, Note_on_c, 2, 84, 0
4, 34620, Note_on_c, 2, 77, 90
4, 34620, Note_on_c, 2, 81, 108
4, 34620, Note_on_c, 2, 84, 99
4, 34642, Note_on_c, 2, 84, 0
4, 34642, Note_on_c, 2, 81, 0
4, 34642, Note_on_c, 2, 77, 0
4, 34658, Note_on_c, 2, 41, 0
4, 34680, Note_on_c, 2, 45, 90
4, 34680, Note_on_c, 2, 77, 99
4, 34680, Note_on_c, 2, 84, 108
4, 34680, Note_on_c, 2, 81, 99
4, 34701, Note_on_c, 2, 81, 0
4, 34702, Note_on_c, 2, 77, 0
4, 34703, Note_on_c, 2, 84, 0
4, 34713, Note_on_c, 2, 45, 0
4, 34740, Note_on_c, 2, 45, 82
4, 34740, Note_on_c, 2, 84, 108
4, 34740, Note_on_c, 2, 77, 90
4, 34740, Note_on_c, 2, 81, 108
4, 34757, Note_on_c, 2, 77, 0
4, 34759, Note_on_c, 2, 81, 0
4, 34762, Note_on_c, 2, 84, 0
4, 34792, Note_on_c, 2, 45, 0
4, 34800, Note_on_c, 2, 48, 99
4, 34800, Note_on_c, 2, 77, 99
4, 34800, Note_on_c, 2, 81, 108
4, 34800, Note_on_c, 2, 84, 108
4, 34820, Note_on_c, 2, 77, 0
4, 34821, Note_on_c, 2, 81, 0
4, 34822, Note_on_c, 2, 84, 0
4, 34860, Note_on_c, 2, 81, 99
4, 34860, Note_on_c, 2, 84, 108
4, 34860, Note_on_c, 2, 77, 99
4, 34879, Note_on_c, 2, 77, 0
4, 34882, Note_on_c, 2, 84, 0
4, 34883, Note_on_c, 2, 81, 0
4, 34901, Note_on_c, 2, 48, 0
4, 34920, Note_on_c, 2, 50, 68
4, 34920, Note_on_c, 2, 84, 108
4, 34920, Note_on_c, 2, 81, 90
4, 34920, Note_on_c, 2, 77, 90
4, 34937, Note_on_c, 2, 77, 0
4, 34942, Note_on_c, 2, 81, 0
4, 34947, Note_on_c, 2, 84, 0
4, 34980, Note_on_c, 2, 84, 99
4, 34980, Note_on_c, 2, 81, 99
4, 34980, Note_on_c, 2, 77, 82
4, 34999, Note_on_c, 2, 77, 0
4, 34999, Note_on_c, 2, 81, 0
4, 35004, Note_on_c, 2, 84, 0
4, 35011, Note_on_c, 2, 50, 0
4, 35040, Note_on_c, 2, 48, 99
4, 35040, Note_on_c, 2, 79, 108
4, 35040, Note_on_c, 2, 82, 127
4, 35040, Note_on_c, 2, 88, 108
4, 35058, Note_on_c, 2, 82, 0
4, 35059, Note_on_c, 2, 79, 0
4, 35063, Note_on_c, 2, 88, 0
4, 35100, Note_on_c, 2, 88, 99
4, 35100, Note_on_c, 2, 82, 124
4, 35100, Note_on_c, 2, 79, 82
4, 35115, Note_on_c, 2, 79, 0
4, 35120, Note_on_c, 2, 82, 0
4, 35126, Note_on_c, 2, 88, 0
4, 35144, Note_on_c, 2, 48, 0
4, 35160, Note_on_c, 2, 52, 82
4, 35160, Note_on_c, 2, 82, 127
4, 35160, Note_on_c, 2, 88, 108
4, 35160, Note_on_c, 2, 79, 108
4, 35180, Note_on_c, 2, 79, 0
4, 35183, Note_on_c, 2, 88, 0
4, 35183, Note_on_c, 2, 82, 0
4, 35189, Note_on_c, 2, 52, 0
4, 35220, Note_on_c, 2, 52, 68
4, 35220, Note_on_c, 2, 82, 127
4, 35220, Note_on_c, 2, 79, 108
4, 35220, Note_on_c, 2, 88, 117
4, 35239, Note_on_c, 2, 79, 0
4, 35240, Note_on_c, 2, 88, 0
4, 35240, Note_on_c, 2, 82, 0
4, 35273, Note_on_c, 2, 52, 0
4, 35280, Note_on_c, 2, 55, 99
4, 35280, Note_on_c, 2, 82, 127
4, 35280, Note_on_c, 2, 88, 117
4, 35280, Note_on_c, 2, 79, 99
4, 35300, Note_on_c, 2, 82, 0
4, 35301, Note_on_c, 2, 79, 0
4, 35302, Note_on_c, 2, 88, 0
4, 35340, Note_on_c, 2, 82, 127
4, 35340, Note_on_c, 2, 88, 117
4, 35340, Note_on_c, 2, 79, 99
4, 35363, Note_on_c, 2, 79, 0
4, 35363, Note_on_c, 2, 88, 0
4, 35364, Note_on_c, 2, 82, 0
4, 35392, Note_on_c, 2, 55, 0
4, 35400, Note_on_c, 2, 88, 117
4, 35400, Note_on_c, 2, 79, 99
4, 35400, Note_on_c, 2, 57, 99
4, 35400, Note_on_c, 2, 82, 127
4, 35421, Note_on_c, 2, 79, 0
4, 35423, Note_on_c, 2, 82, 0
4, 35425, Note_on_c, 2, 88, 0
4, 35460, Note_on_c, 2, 88, 99
4, 35460, Note_on_c, 2, 82, 117
4, 35460, Note_on_c, 2, 79, 75
4, 35466, Note_on_c, 2, 57, 0
4, 35480, Note_on_c, 2, 79, 0
4, 35482, Note_on_c, 2, 82, 0
4, 35484, Note_on_c, 2, 88, 0
4, 35520, Note_on_c, 2, 46, 127
4, 35520, Note_on_c, 2, 80, 127
4, 35520, Note_on_c, 2, 86, 124
4, 35520, Note_on_c, 2, 77, 124
4, 35520, Note_on_c, 2, 80, 127
4, 35520, Note_on_c, 2, 77, 117
4, 35520, Note_on_c, 2, 86, 117
4, 35541, Note_on_c, 2, 77, 0
4, 35543, Note_on_c, 2, 80, 0
4, 35544, Note_on_c, 2, 86, 0
4, 35552, Note_on_c, 2, 77, 0
4, 35560, Note_on_c, 2, 80, 0
4, 35561, Note_on_c, 2, 86, 0
4, 35572, Note_on_c, 2, 46, 0
4, 35580, Note_on_c, 2, 86, 108
4, 35580, Note_on_c, 2, 80, 117
4, 35580, Note_on_c, 2, 77, 75
4, 35595, Note_on_c, 2, 77, 0
4, 35599, Note_on_c, 2, 80, 0
4, 35605, Note_on_c, 2, 86, 0
4, 35640, Note_on_c, 2, 80, 127
4, 35640, Note_on_c, 2, 77, 108
4, 35640, Note_on_c, 2, 86, 117
4, 35659, Note_on_c, 2, 77, 0
4, 35659, Note_on_c, 2, 80, 0
4, 35661, Note_on_c, 2, 86, 0
4, 35700, Note_on_c, 2, 86, 117
4, 35700, Note_on_c, 2, 80, 124
4, 35700, Note_on_c, 2, 77, 99
4, 35715, Note_on_c, 2, 77, 0
4, 35717, Note_on_c, 2, 80, 0
4, 35722, Note_on_c, 2, 86, 0
4, 35760, Note_on_c, 2, 86, 117
4, 35760, Note_on_c, 2, 80, 124
4, 35760, Note_on_c, 2, 77, 99
4, 35778, Note_on_c, 2, 77, 0
4, 35778, Note_on_c, 2, 80, 0
4, 35787, Note_on_c, 2, 86, 0
4, 35820, Note_on_c, 2, 86, 99
4, 35820, Note_on_c, 2, 80, 124
4, 35820, Note_on_c, 2, 77, 82
4, 35837, Note_on_c, 2, 77, 0
4, 35839, Note_on_c, 2, 80, 0
4, 35847, Note_on_c, 2, 86, 0
4, 35880, Note_on_c, 2, 86, 99
4, 35880, Note_on_c, 2, 80, 124
4, 35880, Note_on_c, 2, 77, 99
4, 35899, Note_on_c, 2, 77, 0
4, 35902, Note_on_c, 2, 80, 0
4, 35910, Note_on_c, 2, 86, 0
4, 35940, Note_on_c, 2, 86, 117
4, 35940, Note_on_c, 2, 80, 127
4, 35940, Note_on_c, 2, 77, 117
4, 35963, Note_on_c, 2, 77, 0
4, 35968, Note_on_c, 2, 80, 0
4, 35974, Note_on_c, 2, 86, 0
4, 36000, Note_on_c, 2, 84, 108
4, 36000, Note_on_c, 2, 81, 117
4, 36000, Note_on_c, 2, 41, 99
4, 36000, Note_on_c, 2, 77, 108
4, 36023, Note_on_c, 2, 77, 0
4, 36025, Note_on_c, 2, 81, 0
4, 36027, Note_on_c, 2, 84, 0
4, 36060, Note_on_c, 2, 84, 90
4, 36060, Note_on_c, 2, 77, 75
4, 36060, Note_on_c, 2, 81, 90
4, 36081, Note_on_c, 2, 81, 0
4, 36083, Note_on_c, 2, 77, 0
4, 36088, Note_on_c, 2, 84, 0
4, 36106, Note_on_c, 2, 41, 0
4, 36120, Note_on_c, 2, 45, 68
4, 36120, Note_on_c, 2, 77, 99
4, 36120, Note_on_c, 2, 81, 117
4, 36120, Note_on_c, 2, 84, 108
4, 36142, Note_on_c, 2, 84, 0
4, 36142, Note_on_c, 2, 81, 0
4, 36143, Note_on_c, 2, 77, 0
4, 36146, Note_on_c, 2, 45, 0
4, 36180, Note_on_c, 2, 45, 90
4, 36180, Note_on_c, 2, 81, 108
4, 36180, Note_on_c, 2, 77, 68
4, 36180, Note_on_c, 2, 84, 68
4, 36194, Note_on_c, 2, 84, 0
4, 36195, Note_on_c, 2, 77, 0
4, 36200, Note_on_c, 2, 81, 0
4, 36222, Note_on_c, 2, 45, 0
4, 36240, Note_on_c, 2, 48, 99
4, 36240, Note_on_c, 2, 81, 108
4, 36240, Note_on_c, 2, 77, 108
4, 36240, Note_on_c, 2, 84, 99
4, 36263, Note_on_c, 2, 81, 0
4, 36264, Note_on_c, 2, 77, 0
4, 36266, Note_on_c, 2, 84, 0
4, 36300, Note_on_c, 2, 84, 90
4, 36300, Note_on_c, 2, 81, 99
4, 36300, Note_on_c, 2, 77, 61
4, 36319, Note_on_c, 2, 77, 0
4, 36319, Note_on_c, 2, 81, 0
4, 36326, Note_on_c, 2, 84, 0
4, 36346, Note_on_c, 2, 48, 0
4, 36360, Note_on_c, 2, 50, 82
4, 36360, Note_on_c, 2, 84, 99
4, 36360, Note_on_c, 2, 81, 108
4, 36360, Note_on_c, 2, 77, 99
4, 36381, Note_on_c, 2, 81, 0
4, 36382, Note_on_c, 2, 77, 0
4, 36383, Note_on_c, 2, 84, 0
4, 36420, Note_on_c, 2, 84, 90
4, 36420, Note_on_c, 2, 81, 99
4, 36420, Note_on_c, 2, 77, 90
4, 36435, Note_on_c, 2, 77, 0
4, 36438, Note_on_c, 2, 81, 0
4, 36439, Note_on_c, 2, 84, 0
4, 36458, Note_on_c, 2, 50, 0
4, 36480, Note_on_c, 2, 41, 99
4, 36480, Note_on_c, 2, 84, 108
4, 36480, Note_on_c, 2, 81, 117
4, 36480, Note_on_c, 2, 77, 108
4, 36501, Note_on_c, 2, 77, 0
4, 36501, Note_on_c, 2, 81, 0
4, 36507, Note_on_c, 2, 84, 0
4, 36540, Note_on_c, 2, 77, 99
4, 36540, Note_on_c, 2, 81, 108
4, 36540, Note_on_c, 2, 84, 99
4, 36557, Note_on_c, 2, 84, 0
4, 36558, Note_on_c, 2, 81, 0
4, 36558, Note_on_c, 2, 77, 0
4, 36587, Note_on_c, 2, 41, 0
4, 36600, Note_on_c, 2, 45, 90
4, 36600, Note_on_c, 2, 77, 99
4, 36600, Note_on_c, 2, 81, 108
4, 36600, Note_on_c, 2, 84, 99
4, 36617, Note_on_c, 2, 84, 0
4, 36620, Note_on_c, 2, 81, 0
4, 36620, Note_on_c, 2, 77, 0
4, 36629, Note_on_c, 2, 45, 0
4, 36660, Note_on_c, 2, 45, 99
4, 36660, Note_on_c, 2, 81, 108
4, 36660, Note_on_c, 2, 84, 82
4, 36660, Note_on_c, 2, 77, 75
4, 36675, Note_on_c, 2, 77, 0
4, 36679, Note_on_c, 2, 84, 0
4, 36681, Note_on_c, 2, 81, 0
4, 36710, Note_on_c, 2, 45, 0
4, 36720, Note_on_c, 2, 48, 108
4, 36720, Note_on_c, 2, 77, 90
4, 36720, Note_on_c, 2, 84, 99
4, 36720, Note_on_c, 2, 81, 108
4, 36739, Note_on_c, 2, 77, 0
4, 36740, Note_on_c, 2, 81, 0
4, 36743, Note_on_c, 2, 84, 0
4, 36780, Note_on_c, 2, 84, 99
4, 36780, Note_on_c, 2, 77, 90
4, 36780, Note_on_c, 2, 81, 108
4, 36799, Note_on_c, 2, 77, 0
4, 36800, Note_on_c, 2, 81, 0
4, 36801, Note_on_c, 2, 84, 0
4, 36830, Note_on_c, 2, 48, 0
4, 36840, Note_on_c, 2, 84, 108
4, 36840, Note_on_c, 2, 50, 108
4, 36840, Note_on_c, 2, 81, 108
4, 36840, Note_on_c, 2, 77, 99
4, 36859, Note_on_c, 2, 77, 0
4, 36861, Note_on_c, 2, 81, 0
4, 36866, Note_on_c, 2, 84, 0
4, 36900, Note_on_c, 2, 84, 117
4, 36900, Note_on_c, 2, 81, 124
4, 36900, Note_on_c, 2, 77, 117
4, 36905, Note_on_c, 2, 50, 0
4, 36927, Note_on_c, 2, 77, 0
4, 36927, Note_on_c, 2, 81, 0
4, 36929, Note_on_c, 2, 84, 0
4, 36960, Note_on_c, 2, 41, 108
4, 36960, Note_on_c, 2, 77, 117
4, 36960, Note_on_c, 2, 81, 117
4, 36960, Note_on_c, 2, 84, 108
4, 36984, Note_on_c, 2, 81, 0
4, 36985, Note_on_c, 2, 77, 0
4, 36986, Note_on_c, 2, 84, 0
4, 37020, Note_on_c, 2, 81, 82
4, 37020, Note_on_c, 2, 77, 75
4, 37020, Note_on_c, 2, 84, 75
4, 37041, Note_on_c, 2, 77, 0
4, 37042, Note_on_c, 2, 84, 0
4, 37045, Note_on_c, 2, 81, 0
4, 37059, Note_on_c, 2, 41, 0
4, 37080, Note_on_c, 2, 81, 99
4, 37080, Note_on_c, 2, 45, 90
4, 37080, Note_on_c, 2, 84, 90
4, 37080, Note_on_c, 2, 77, 82
4, 37101, Note_on_c, 2, 77, 0
4, 37105, Note_on_c, 2, 81, 0
4, 37106, Note_on_c, 2, 84, 0
4, 37114, Note_on_c, 2, 45, 0
4, 37140, Note_on_c, 2, 45, 90
4, 37140, Note_on_c, 2, 81, 99
4, 37140, Note_on_c, 2, 84, 90
4, 37140, Note_on_c, 2, 77, 68
4, 37157, Note_on_c, 2, 77, 0
4, 37161, Note_on_c, 2, 81, 0
4, 37163, Note_on_c, 2, 84, 0
4, 37198, Note_on_c, 2, 45, 0
4, 37200, Note_on_c, 2, 48, 99
4, 37200, Note_on_c, 2, 81, 108
4, 37200, Note_on_c, 2, 84, 90
4, 37200, Note_on_c, 2, 77, 90
4, 37223, Note_on_c, 2, 77, 0
4, 37225, Note_on_c, 2, 84, 0
4, 37225, Note_on_c, 2, 81, 0
4, 37260, Note_on_c, 2, 84, 61
4, 37260, Note_on_c, 2, 81, 90
4, 37260, Note_on_c, 2, 77, 39
4, 37279, Note_on_c, 2, 77, 0
4, 37282, Note_on_c, 2, 81, 0
4, 37284, Note_on_c, 2, 84, 0
4, 37311, Note_on_c, 2, 48, 0
4, 37320, Note_on_c, 2, 50, 82
4, 37320, Note_on_c, 2, 84, 90
4, 37320, Note_on_c, 2, 81, 99
4, 37320, Note_on_c, 2, 77, 82
4, 37342, Note_on_c, 2, 77, 0
4, 37343, Note_on_c, 2, 81, 0
4, 37351, Note_on_c, 2, 84, 0
4, 37380, Note_on_c, 2, 84, 82
4, 37380, Note_on_c, 2, 81, 90
4, 37380, Note_on_c, 2, 77, 61
4, 37401, Note_on_c, 2, 77, 0
4, 37401, Note_on_c, 2, 81, 0
4, 37403, Note_on_c, 2, 84, 0
4, 37429, Note_on_c, 2, 50, 0
4, 37440, Note_on_c, 2, 41, 82
4, 37440, Note_on_c, 2, 84, 82
4, 37440, Note_on_c, 2, 81, 99
4, 37440, Note_on_c, 2, 77, 82
4, 37463, Note_on_c, 2, 81, 0
4, 37464, Note_on_c, 2, 77, 0
4, 37470, Note_on_c, 2, 84, 0
4, 37500, Note_on_c, 2, 84, 68
4, 37500, Note_on_c, 2, 81, 82
4, 37500, Note_on_c, 2, 77, 61
4, 37519, Note_on_c, 2, 77, 0
4, 37521, Note_on_c, 2, 81, 0
4, 37525, Note_on_c, 2, 84, 0
4, 37534, Note_on_c, 2, 41, 0
4, 37560, Note_on_c, 2, 45, 99
4, 37560, Note_on_c, 2, 84, 99
4, 37560, Note_on_c, 2, 81, 117
4, 37560, Note_on_c, 2, 77, 90
4, 37585, Note_on_c, 2, 77, 0
4, 37586, Note_on_c, 2, 81, 0
4, 37593, Note_on_c, 2, 45, 0
4, 37595, Note_on_c, 2, 84, 0
4, 37620, Note_on_c, 2, 45, 99
4, 37620, Note_on_c, 2, 84, 75
4, 37620, Note_on_c, 2, 81, 90
4, 37620, Note_on_c, 2, 77, 61
4, 37639, Note_on_c, 2, 81, 0
4, 37641, Note_on_c, 2, 77, 0
4, 37641, Note_on_c, 2, 84, 0
4, 37676, Note_on_c, 2, 45, 0
4, 37680, Note_on_c, 2, 48, 99
4, 37680, Note_on_c, 2, 77, 61
4, 37680, Note_on_c, 2, 81, 82
4, 37680, Note_on_c, 2, 84, 45
4, 37701, Note_on_c, 2, 81, 0
4, 37703, Note_on_c, 2, 84, 0
4, 37703, Note_on_c, 2, 77, 0
4, 37740, Note_on_c, 2, 84, 39
4, 37740, Note_on_c, 2, 81, 82
4, 37740, Note_on_c, 2, 77, 39
4, 37759, Note_on_c, 2, 77, 0
4, 37759, Note_on_c, 2, 81, 0
4, 37766, Note_on_c, 2, 84, 0
4, 37788, Note_on_c, 2, 48, 0
4, 37800, Note_on_c, 2, 50, 82
4, 37800, Note_on_c, 2, 84, 90
4, 37800, Note_on_c, 2, 81, 108
4, 37800, Note_on_c, 2, 77, 90
4, 37829, Note_on_c, 2, 81, 0
4, 37832, Note_on_c, 2, 77, 0
4, 37836, Note_on_c, 2, 84, 0
4, 37860, Note_on_c, 2, 77, 68
4, 37860, Note_on_c, 2, 81, 90
4, 37860, Note_on_c, 2, 84, 52
4, 37881, Note_on_c, 2, 81, 0
4, 37884, Note_on_c, 2, 84, 0
4, 37886, Note_on_c, 2, 77, 0
4, 37905, Note_on_c, 2, 50, 0
4, 37920, Note_on_c, 2, 41, 82
4, 37920, Note_on_c, 2, 84, 90
4, 37920, Note_on_c, 2, 81, 82
4, 37920, Note_on_c, 2, 77, 68
4, 37939, Note_on_c, 2, 81, 0
4, 37942, Note_on_c, 2, 77, 0
4, 37948, Note_on_c, 2, 84, 0
4, 37980, Note_on_c, 2, 84, 61
4, 37980, Note_on_c, 2, 81, 90
4, 37980, Note_on_c, 2, 77, 61
4, 38000, Note_on_c, 2, 77, 0
4, 38001, Note_on_c, 2, 81, 0
4, 38006, Note_on_c, 2, 84, 0
4, 38018, Note_on_c, 2, 41, 0
4, 38040, Note_on_c, 2, 45, 90
4, 38040, Note_on_c, 2, 84, 82
4, 38040, Note_on_c, 2, 77, 82
4, 38040, Note_on_c, 2, 81, 99
4, 38063, Note_on_c, 2, 81, 0
4, 38069, Note_on_c, 2, 45, 0
4, 38071, Note_on_c, 2, 77, 0
4, 38077, Note_on_c, 2, 84, 0
4, 38100, Note_on_c, 2, 45, 99
4, 38100, Note_on_c, 2, 84, 61
4, 38100, Note_on_c, 2, 81, 99
4, 38100, Note_on_c, 2, 77, 61
4, 38121, Note_on_c, 2, 81, 0
4, 38124, Note_on_c, 2, 77, 0
4, 38131, Note_on_c, 2, 84, 0
4, 38155, Note_on_c, 2, 45, 0
4, 38160, Note_on_c, 2, 48, 99
4, 38160, Note_on_c, 2, 84, 75
4, 38160, Note_on_c, 2, 77, 75
4, 38160, Note_on_c, 2, 81, 90
4, 38181, Note_on_c, 2, 81, 0
4, 38186, Note_on_c, 2, 77, 0
4, 38193, Note_on_c, 2, 84, 0
4, 38220, Note_on_c, 2, 84, 82
4, 38220, Note_on_c, 2, 81, 90
4, 38220, Note_on_c, 2, 77, 75
4, 38239, Note_on_c, 2, 81, 0
4, 38240, Note_on_c, 2, 77, 0
4, 38244, Note_on_c, 2, 84, 0
4, 38267, Note_on_c, 2, 48, 0
4, 38280, Note_on_c, 2, 50, 82
4, 38280, Note_on_c, 2, 77, 90
4, 38280, Note_on_c, 2, 84, 99
4, 38280, Note_on_c, 2, 81, 99
4, 38301, Note_on_c, 2, 81, 0
4, 38306, Note_on_c, 2, 77, 0
4, 38309, Note_on_c, 2, 84, 0
4, 38340, Note_on_c, 2, 77, 75
4, 38340, Note_on_c, 2, 84, 90
4, 38340, Note_on_c, 2, 81, 108
4, 38361, Note_on_c, 2, 81, 0
4, 38363, Note_on_c, 2, 77, 0
4, 38364, Note_on_c, 2, 84, 0
4, 38387, Note_on_c, 2, 50, 0
4, 38400, Note_on_c, 2, 41, 90
4, 38400, Note_on_c, 2, 84, 90
4, 38400, Note_on_c, 2, 81, 90
4, 38400, Note_on_c, 2, 77, 75
4, 38421, Note_on_c, 2, 81, 0
4, 38422, Note_on_c, 2, 77, 0
4, 38428, Note_on_c, 2, 84, 0
4, 38460, Note_on_c, 2, 77, 75
4, 38460, Note_on_c, 2, 84, 99
4, 38460, Note_on_c, 2, 81, 99
4, 38479, Note_on_c, 2, 81, 0
4, 38481, Note_on_c, 2, 77, 0
4, 38484, Note_on_c, 2, 84, 0
4, 38501, Note_on_c, 2, 41, 0
4, 38520, Note_on_c, 2, 45, 90
4, 38520, Note_on_c, 2, 84, 108
4, 38520, Note_on_c, 2, 77, 99
4, 38520, Note_on_c, 2, 81, 99
4, 38541, Note_on_c, 2, 81, 0
4, 38544, Note_on_c, 2, 77, 0
4, 38548, Note_on_c, 2, 84, 0
4, 38553, Note_on_c, 2, 45, 0
4, 38580, Note_on_c, 2, 45, 90
4, 38580, Note_on_c, 2, 84, 90
4, 38580, Note_on_c, 2, 81, 99
4, 38580, Note_on_c, 2, 77, 82
4, 38601, Note_on_c, 2, 81, 0
4, 38602, Note_on_c, 2, 77, 0
4, 38606, Note_on_c, 2, 84, 0
4, 38633, Note_on_c, 2, 45, 0
4, 38640, Note_on_c, 2, 48, 99
4, 38640, Note_on_c, 2, 84, 90
4, 38640, Note_on_c, 2, 81, 108
4, 38640, Note_on_c, 2, 77, 82
4, 38661, Note_on_c, 2, 77, 0
4, 38661, Note_on_c, 2, 81, 0
4, 38666, Note_on_c, 2, 84, 0
4, 38700, Note_on_c, 2, 81, 99
4, 38700, Note_on_c, 2, 77, 82
4, 38700, Note_on_c, 2, 84, 90
4, 38721, Note_on_c, 2, 77, 0
4, 38723, Note_on_c, 2, 81, 0
4, 38724, Note_on_c, 2, 84, 0
4, 38744, Note_on_c, 2, 48, 0
4, 38760, Note_on_c, 2, 50, 82
4, 38760, Note_on_c, 2, 84, 99
4, 38760, Note_on_c, 2, 81, 108
4, 38760, Note_on_c, 2, 77, 90
4, 38783, Note_on_c, 2, 77, 0
4, 38785, Note_on_c, 2, 81, 0
4, 38785, Note_on_c, 2, 84, 0
4, 38820, Note_on_c, 2, 84, 82
4, 38820, Note_on_c, 2, 77, 75
4, 38820, Note_on_c, 2, 81, 90
4, 38839, Note_on_c, 2, 81, 0
4, 38843, Note_on_c, 2, 84, 0
4, 38846, Note_on_c, 2, 77, 0
4, 38872, Note_on_c, 2, 50, 0
4, 38880, Note_on_c, 2, 46, 117
4, 38880, Note_on_c, 2, 86, 108
4, 38880, Note_on_c, 2, 80, 124
4, 38880, Note_on_c, 2, 77, 90
4, 38899, Note_on_c, 2, 77, 0
4, 38910, Note_on_c, 2, 80, 0
4, 38912, Note_on_c, 2, 86, 0
4, 38940, Note_on_c, 2, 86, 82
4, 38940, Note_on_c, 2, 80, 108
4, 38940, Note_on_c, 2, 77, 90
4, 38957, Note_on_c, 2, 77, 0
4, 38964, Note_on_c, 2, 80, 0
4, 38973, Note_on_c, 2, 86, 0
4, 38994, Note_on_c, 2, 46, 0
4, 39000, Note_on_c, 2, 86, 99
4, 39000, Note_on_c, 2, 50, 90
4, 39000, Note_on_c, 2, 80, 117
4, 39000, Note_on_c, 2, 77, 82
4, 39019, Note_on_c, 2, 77, 0
4, 39022, Note_on_c, 2, 80, 0
4, 39029, Note_on_c, 2, 86, 0
4, 39031, Note_on_c, 2, 50, 0
4, 39060, Note_on_c, 2, 86, 108
4, 39060, Note_on_c, 2, 50, 82
4, 39060, Note_on_c, 2, 80, 117
4, 39060, Note_on_c, 2, 77, 99
4, 39081, Note_on_c, 2, 77, 0
4, 39081, Note_on_c, 2, 80, 0
4, 39091, Note_on_c, 2, 86, 0
4, 39110, Note_on_c, 2, 50, 0
4, 39120, Note_on_c, 2, 53, 99
4, 39120, Note_on_c, 2, 86, 117
4, 39120, Note_on_c, 2, 80, 124
4, 39120, Note_on_c, 2, 77, 99
4, 39139, Note_on_c, 2, 77, 0
4, 39143, Note_on_c, 2, 80, 0
4, 39149, Note_on_c, 2, 86, 0
4, 39180, Note_on_c, 2, 86, 99
4, 39180, Note_on_c, 2, 80, 117
4, 39180, Note_on_c, 2, 77, 82
4, 39199, Note_on_c, 2, 77, 0
4, 39201, Note_on_c, 2, 80, 0
4, 39208, Note_on_c, 2, 86, 0
4, 39222, Note_on_c, 2, 53, 0
4, 39240, Note_on_c, 2, 55, 75
4, 39240, Note_on_c, 2, 86, 108
4, 39240, Note_on_c, 2, 80, 117
4, 39240, Note_on_c, 2, 77, 90
4, 39260, Note_on_c, 2, 77, 0
4, 39261, Note_on_c, 2, 80, 0
4, 39270, Note_on_c, 2, 86, 0
4, 39300, Note_on_c, 2, 86, 99
4, 39300, Note_on_c, 2, 80, 117
4, 39300, Note_on_c, 2, 77, 82
4, 39319, Note_on_c, 2, 77, 0
4, 39321, Note_on_c, 2, 80, 0
4, 39329, Note_on_c, 2, 86, 0
4, 39350, Note_on_c, 2, 55, 0
4, 39360, Note_on_c, 2, 46, 108
4, 39360, Note_on_c, 2, 86, 90
4, 39360, Note_on_c, 2, 80, 124
4, 39360, Note_on_c, 2, 77, 82
4, 39377, Note_on_c, 2, 77, 0
4, 39382, Note_on_c, 2, 80, 0
4, 39390, Note_on_c, 2, 86, 0
4, 39420, Note_on_c, 2, 86, 90
4, 39420, Note_on_c, 2, 80, 117
4, 39420, Note_on_c, 2, 77, 68
4, 39433, Note_on_c, 2, 77, 0
4, 39442, Note_on_c, 2, 80, 0
4, 39448, Note_on_c, 2, 86, 0
4, 39456, Note_on_c, 2, 46, 0
4, 39480, Note_on_c, 2, 50, 82
4, 39480, Note_on_c, 2, 86, 90
4, 39480, Note_on_c, 2, 80, 124
4, 39480, Note_on_c, 2, 77, 90
4, 39495, Note_on_c, 2, 77, 0
4, 39504, Note_on_c, 2, 80, 0
4, 39507, Note_on_c, 2, 86, 0
4, 39513, Note_on_c, 2, 50, 0
4, 39540, Note_on_c, 2, 50, 90
4, 39540, Note_on_c, 2, 86, 90
4, 39540, Note_on_c, 2, 80, 124
4, 39540, Note_on_c, 2, 77, 82
4, 39557, Note_on_c, 2, 77, 0
4, 39564, Note_on_c, 2, 80, 0
4, 39569, Note_on_c, 2, 86, 0
4, 39590, Note_on_c, 2, 50, 0
4, 39600, Note_on_c, 2, 53, 99
4, 39600, Note_on_c, 2, 86, 99
4, 39600, Note_on_c, 2, 80, 117
4, 39600, Note_on_c, 2, 77, 75
4, 39619, Note_on_c, 2, 77, 0
4, 39624, Note_on_c, 2, 80, 0
4, 39629, Note_on_c, 2, 86, 0
4, 39660, Note_on_c, 2, 80, 124
4, 39660, Note_on_c, 2, 86, 108
4, 39660, Note_on_c, 2, 77, 99
4, 39681, Note_on_c, 2, 77, 0
4, 39684, Note_on_c, 2, 80, 0
4, 39688, Note_on_c, 2, 86, 0
4, 39708, Note_on_c, 2, 53, 0
4, 39720, Note_on_c, 2, 55, 90
4, 39720, Note_on_c, 2, 86, 99
4, 39720, Note_on_c, 2, 80, 117
4, 39720, Note_on_c, 2, 77, 90
4, 39741, Note_on_c, 2, 77, 0
4, 39743, Note_on_c, 2, 80, 0
4, 39747, Note_on_c, 2, 86, 0
4, 39780, Note_on_c, 2, 86, 90
4, 39780, Note_on_c, 2, 80, 117
4, 39780, Note_on_c, 2, 77, 82
4, 39801, Note_on_c, 2, 77, 0
4, 39804, Note_on_c, 2, 80, 0
4, 39812, Note_on_c, 2, 86, 0
4, 39814, Note_on_c, 2, 55, 0
4, 39840, Note_on_c, 2, 41, 75
4, 39840, Note_on_c, 2, 77, 90
4, 39840, Note_on_c, 2, 84, 108
4, 39840, Note_on_c, 2, 81, 108
4, 39865, Note_on_c, 2, 81, 0
4, 39866, Note_on_c, 2, 77, 0
4, 39869, Note_on_c, 2, 84, 0
4, 39900, Note_on_c, 2, 84, 99
4, 39900, Note_on_c, 2, 77, 82
4, 39900, Note_on_c, 2, 81, 99
4, 39921, Note_on_c, 2, 81, 0
4, 39926, Note_on_c, 2, 77, 0
4, 39929, Note_on_c, 2, 84, 0
4, 39936, Note_on_c, 2, 41, 0
4, 39960, Note_on_c, 2, 45, 90
4, 39960, Note_on_c, 2, 84, 90
4, 39960, Note_on_c, 2, 81, 99
4, 39960, Note_on_c, 2, 77, 90
4, 39983, Note_on_c, 2, 77, 0
4, 39984, Note_on_c, 2, 81, 0
4, 39987, Note_on_c, 2, 84, 0
4, 39993, Note_on_c, 2, 45, 0
4, 40020, Note_on_c, 2, 45, 82
4, 40020, Note_on_c, 2, 84, 99
4, 40020, Note_on_c, 2, 81, 108
4, 40020, Note_on_c, 2, 77, 99
4, 40044, Note_on_c, 2, 77, 0
4, 40044, Note_on_c, 2, 81, 0
4, 40047, Note_on_c, 2, 84, 0
4, 40073, Note_on_c, 2, 45, 0
4, 40080, Note_on_c, 2, 48, 108
4, 40080, Note_on_c, 2, 84, 99
4, 40080, Note_on_c, 2, 77, 82
4, 40080, Note_on_c, 2, 81, 99
4, 40100, Note_on_c, 2, 77, 0
4, 40101, Note_on_c, 2, 81, 0
4, 40106, Note_on_c, 2, 84, 0
4, 40140, Note_on_c, 2, 84, 90
4, 40140, Note_on_c, 2, 81, 108
4, 40140, Note_on_c, 2, 77, 82
4, 40159, Note_on_c, 2, 77, 0
4, 40161, Note_on_c, 2, 81, 0
4, 40166, Note_on_c, 2, 84, 0
4, 40187, Note_on_c, 2, 48, 0
4, 40200, Note_on_c, 2, 50, 82
4, 40200, Note_on_c, 2, 77, 99
4, 40200, Note_on_c, 2, 81, 108
4, 40200, Note_on_c, 2, 84, 90
4, 40222, Note_on_c, 2, 84, 0
4, 40222, Note_on_c, 2, 77, 0
4, 40223, Note_on_c, 2, 81, 0
4, 40260, Note_on_c, 2, 81, 99
4, 40260, Note_on_c, 2, 84, 99
4, 40260, Note_on_c, 2, 77, 90
4, 40279, Note_on_c, 2, 77, 0
4, 40283, Note_on_c, 2, 81, 0
4, 40284, Note_on_c, 2, 84, 0
4, 40303, Note_on_c, 2, 50, 0
4, 40320, Note_on_c, 2, 41, 90
4, 40320, Note_on_c, 2, 77, 82
4, 40320, Note_on_c, 2, 81, 99
4, 40320, Note_on_c, 2, 84, 90
4, 40339, Note_on_c, 2, 77, 0
4, 40341, Note_on_c, 2, 81, 0
4, 40342, Note_on_c, 2, 84, 0
4, 40380, Note_on_c, 2, 77, 90
4, 40380, Note_on_c, 2, 81, 108
4, 40380, Note_on_c, 2, 84, 99
4, 40402, Note_on_c, 2, 84, 0
4, 40402, Note_on_c, 2, 81, 0
4, 40402, Note_on_c, 2, 77, 0
4, 40418, Note_on_c, 2, 41, 0
4, 40440, Note_on_c, 2, 45, 90
4, 40440, Note_on_c, 2, 77, 99
4, 40440, Note_on_c, 2, 84, 108
4, 40440, Note_on_c, 2, 81, 99
4, 40461, Note_on_c, 2, 81, 0
4, 40462, Note_on_c, 2, 77, 0
4, 40463, Note_on_c, 2, 84, 0
4, 40473, Note_on_c, 2, 45, 0
4, 40500, Note_on_c, 2, 45, 82
4, 40500, Note_on_c, 2, 84, 108
4, 40500, Note_on_c, 2, 77, 90
4, 40500, Note_on_c, 2, 81, 108
4, 40517, Note_on_c, 2, 77, 0
4, 40519, Note_on_c, 2, 81, 0
4, 40522, Note_on_c, 2, 84, 0
4, 40552, Note_on_c, 2, 45, 0
4, 40560, Note_on_c, 2, 48, 99
4, 40560, Note_on_c, 2, 77, 99
4, 40560, Note_on_c, 2, 81, 108
4, 40560, Note_on_c, 2, 84, 108
4, 40580, Note_on_c, 2, 77, 0
4, 40581, Note_on_c, 2, 81, 0
4, 40582, Note_on_c, 2, 84, 0
4, 40620, Note_on_c, 2, 81, 99
4, 40620, Note_on_c, 2, 84, 108
4, 40620, Note_on_c, 2, 77, 99
4, 40639, Note_on_c, 2, 77, 0
4, 40642, Note_on_c, 2, 84, 0
4, 40643, Note_on_c, 2, 81, 0
4, 40661, Note_on_c, 2, 48, 0
4, 40680, Note_on_c, 2, 50, 68
4, 40680, Note_on_c, 2, 84, 108
4, 40680, Note_on_c, 2, 81, 90
4, 40680, Note_on_c, 2, 77, 90
4, 40697, Note_on_c, 2, 77, 0
4, 40702, Note_on_c, 2, 81, 0
4, 40707, Note_on_c, 2, 84, 0
4, 40740, Note_on_c, 2, 84, 99
4, 40740, Note_on_c, 2, 81, 99
4, 40740, Note_on_c, 2, 77, 82
4, 40759, Note_on_c, 2, 77, 0
4, 40759, Note_on_c, 2, 81, 0
4, 40764, Note_on_c, 2, 84, 0
4, 40771, Note_on_c, 2, 50, 0
4, 40800, Note_on_c, 2, 48, 99
4, 40800, Note_on_c, 2, 79, 108
4, 40800, Note_on_c, 2, 82, 127
4, 40800, Note_on_c, 2, 88, 108
4, 40818, Note_on_c, 2, 82, 0
4, 40819, Note_on_c, 2, 79, 0
4, 40823, Note_on_c, 2, 88, 0
4, 40860, Note_on_c, 2, 88, 99
4, 40860, Note_on_c, 2, 82, 124
4, 40860, Note_on_c, 2, 79, 82
4, 40875, Note_on_c, 2, 79, 0
4, 40880, Note_on_c, 2, 82, 0
4, 40886, Note_on_c, 2, 88, 0
4, 40904, Note_on_c, 2, 48, 0
4, 40920, Note_on_c, 2, 52, 82
4, 40920, Note_on_c, 2, 82, 127
4, 40920, Note_on_c, 2, 88, 108
4, 40920, Note_on_c, 2, 79, 108
4, 40940, Note_on_c, 2, 79, 0
4, 40943, Note_on_c, 2, 88, 0
4, 40943, Note_on_c, 2, 82, 0
4, 40949, Note_on_c, 2, 52, 0
4, 40980, Note_on_c, 2, 52, 68
4, 40980, Note_on_c, 2, 82, 127
4, 40980, Note_on_c, 2, 79, 108
4, 40980, Note_on_c, 2, 88, 117
4, 40999, Note_on_c, 2, 79, 0
4, 41000, Note_on_c, 2, 88, 0
4, 41000, Note_on_c, 2, 82, 0
4, 41033, Note_on_c, 2, 52, 0
4, 41040, Note_on_c, 2, 55, 99
4, 41040, Note_on_c, 2, 82, 127
4, 41040, Note_on_c, 2, 88, 117
4, 41040, Note_on_c, 2, 79, 99
4, 41060, Note_on_c, 2, 82, 0
4, 41061, Note_on_c, 2, 79, 0
4, 41062, Note_on_c, 2, 88, 0
4, 41100, Note_on_c, 2, 82, 127
4, 41100, Note_on_c, 2, 88, 117
4, 41100, Note_on_c, 2, 79, 99
4, 41123, Note_on_c, 2, 79, 0
4, 41123, Note_on_c, 2, 88, 0
4, 41124, Note_on_c, 2, 82, 0
4, 41152, Note_on_c, 2, 55, 0
4, 41160, Note_on_c, 2, 88, 117
4, 41160, Note_on_c, 2, 79, 99
4, 41160, Note_on_c, 2, 57, 99
4, 41160, Note_on_c, 2, 82, 127
4, 41181, Note_on_c, 2, 79, 0
4, 41183, Note_on_c, 2, 82, 0
4, 41185, Note_on_c, 2, 88, 0
4, 41220, Note_on_c, 2, 88, 99
4, 41220, Note_on_c, 2, 82, 117
4, 41220, Note_on_c, 2, 79, 75
4, 41226, Note_on_c, 2, 57, 0
4, 41240, Note_on_c, 2, 79, 0
4, 41242, Note_on_c, 2, 82, 0
4, 41244, Note_on_c, 2, 88, 0
4, 41280, Note_on_c, 2, 46, 127
4, 41280, Note_on_c, 2, 80, 127
4, 41280, Note_on_c, 2, 86, 124
4, 41280, Note_on_c, 2, 77, 124
4, 41280, Note_on_c, 2, 80, 127
4, 41280, Note_on_c, 2, 77, 117
4, 41280, Note_on_c, 2, 86, 117
4, 41301, Note_on_c, 2, 77, 0
4, 41303, Note_on_c, 2, 80, 0
4, 41304, Note_on_c, 2, 86, 0
4, 41312, Note_on_c, 2, 77, 0
4, 41320, Note_on_c, 2, 80, 0
4, 41321, Note_on_c, 2, 86, 0
4, 41332, Note_on_c, 2, 46, 0
4, 41340, Note_on_c, 2, 86, 108
4, 41340, Note_on_c, 2, 80, 117
4, 41340, Note_on_c, 2, 77, 75
4, 41355, Note_on_c, 2, 77, 0
4, 41359, Note_on_c, 2, 80, 0
4, 41365, Note_on_c, 2, 86, 0
4, 41400, Note_on_c, 2, 80, 127
4, 41400, Note_on_c, 2, 77, 108
4, 41400, Note_on_c, 2, 86, 117
4, 41419, Note_on_c, 2, 77, 0
4, 41419, Note_on_c, 2, 80, 0
4, 41421, Note_on_c, 2, 86, 0
4, 41460, Note_on_c, 2, 86, 117
4, 41460, Note_on_c, 2, 80, 124
4, 41460, Note_on_c, 2, 77, 99
4, 41475, Note_on_c, 2, 77, 0
4, 41477, Note_on_c, 2, 80, 0
4, 41482, Note_on_c, 2, 86, 0
4, 41520, Note_on_c, 2, 86, 117
4, 41520, Note_on_c, 2, 80, 124
4, 41520, Note_on_c, 2, 77, 99
4, 41538, Note_on_c, 2, 77, 0
4, 41538, Note_on_c, 2, 80, 0
4, 41547, Note_on_c, 2, 86, 0
4, 41580, Note_on_c, 2, 86, 99
4, 41580, Note_on_c, 2, 80, 124
4, 41580, Note_on_c, 2, 77, 82
4, 41597, Note_on_c, 2, 77, 0
4, 41599, Note_on_c, 2, 80, 0
4, 41607, Note_on_c, 2, 86, 0
4, 41640, Note_on_c, 2, 86, 99
4, 41640, Note_on_c, 2, 80, 124
4, 41640, Note_on_c, 2, 77, 99
4, 41659, Note_on_c, 2, 77, 0
4, 41662, Note_on_c, 2, 80, 0
4, 41670, Note_on_c, 2, 86, 0
4, 41700, Note_on_c, 2, 86, 117
4, 41700, Note_on_c, 2, 80, 127
4, 41700, Note_on_c, 2, 77, 117
4, 41723, Note_on_c, 2, 77, 0
4, 41728, Note_on_c, 2, 80, 0
4, 41734, Note_on_c, 2, 86, 0
4, 41760, Note_on_c, 2, 84, 108
4, 41760, Note_on_c, 2, 81, 117
4, 41760, Note_on_c, 2, 41, 99
4, 41760, Note_on_c, 2, 77, 108
4, 41783, Note_on_c, 2, 77, 0
4, 41785, Note_on_c, 2, 81, 0
4, 41787, Note_on_c, 2, 84, 0
4, 41820, Note_on_c, 2, 84, 90
4, 41820, Note_on_c, 2, 77, 75
4, 41820, Note_on_c, 2, 81, 90
4, 41841, Note_on_c, 2, 81, 0
4, 41843, Note_on_c, 2, 77, 0
4, 41848, Note_on_c, 2, 84, 0
4, 41866, Note_on_c, 2, 41, 0
4, 41880, Note_on_c, 2, 45, 68
4, 41880, Note_on_c, 2, 77, 99
4, 41880, Note_on_c, 2, 81, 117
4, 41880, Note_on_c, 2, 84, 108
4, 41902, Note_on_c, 2, 84, 0
4, 41902, Note_on_c, 2, 81, 0
4, 41903, Note_on_c, 2, 77, 0
4, 41906, Note_on_c, 2, 45, 0
4, 41940, Note_on_c, 2, 45, 90
4, 41940, Note_on_c, 2, 81, 108
4, 41940, Note_on_c, 2, 77, 68
4, 41940, Note_on_c, 2, 84, 68
4, 41954, Note_on_c, 2, 84, 0
4, 41955, Note_on_c, 2, 77, 0
4, 41960, Note_on_c, 2, 81, 0
4, 41982, Note_on_c, 2, 45, 0
4, 42000, Note_on_c, 2, 48, 99
4, 42000, Note_on_c, 2, 81, 108
4, 42000, Note_on_c, 2, 77, 108
4, 42000, Note_on_c, 2, 84, 99
4, 42023, Note_on_c, 2, 81, 0
4, 42024, Note_on_c, 2, 77, 0
4, 42026, Note_on_c, 2, 84, 0
4, 42060, Note_on_c, 2, 84, 90
4, 42060, Note_on_c, 2, 81, 99
4, 42060, Note_on_c, 2, 77, 61
4, 42079, Note_on_c, 2, 77, 0
4, 42079, Note_on_c, 2, 81, 0
4, 42086, Note_on_c, 2, 84, 0
4, 42106, Note_on_c, 2, 48, 0
4, 42120, Note_on_c, 2, 50, 82
4, 42120, Note_on_c, 2, 84, 99
4, 42120, Note_on_c, 2, 81, 108
4, 42120, Note_on_c, 2, 77, 99
4, 42141, Note_on_c, 2, 81, 0
4, 42142, Note_on_c, 2, 77, 0
4, 42143, Note_on_c, 2, 84, 0
4, 42180, Note_on_c, 2, 84, 90
4, 42180, Note_on_c, 2, 81, 99
4, 42180, Note_on_c, 2, 77, 90
4, 42195, Note_on_c, 2, 77, 0
4, 42198, Note_on_c, 2, 81, 0
4, 42199, Note_on_c, 2, 84, 0
4, 42218, Note_on_c, 2, 50, 0
4, 42240, Note_on_c, 2, 65, 124
4, 42240, Note_on_c, 2, 77, 127
4, 42240, Note_on_c, 2, 84, 127
4, 42240, Note_on_c, 2, 53, 127
4, 42240, Note_on_c, 2, 81, 127
4, 42289, Note_on_c, 2, 77, 0
4, 42293, Note_on_c, 2, 84, 0
4, 42295, Note_on_c, 2, 65, 0
4, 42298, Note_on_c, 2, 81, 0
4, 42298, Note_on_c, 2, 53, 0
4, 42298, End_track
5, 0, Start_track
5, 0, MIDI_port, 0
5, 0, Title_t, ">>MELODY"
5, 0, Program_c, 3, 22
5, 0, Control_c, 3, 7, 100
5, 2280, Note_on_c, 3, 68, 127
5, 2296, Note_on_c, 3, 68, 0
5, 2340, Note_on_c, 3, 68, 124
5, 2356, Note_on_c, 3, 68, 0
5, 2400, Note_on_c, 3, 68, 127
5, 2540, Note_on_c, 3, 68, 0
5, 2700, Note_on_c, 3, 65, 127
5, 2716, Note_on_c, 3, 65, 0
5, 2760, Note_on_c, 3, 65, 127
5, 2775, Note_on_c, 3, 65, 0
5, 2820, Note_on_c, 3, 65, 127
5, 2908, Note_on_c, 3, 65, 0
5, 2940, Note_on_c, 3, 65, 124
5, 2959, Note_on_c, 3, 65, 0
5, 3300, Note_on_c, 3, 68, 124
5, 3325, Note_on_c, 3, 68, 0
5, 3360, Note_on_c, 3, 68, 127
5, 3384, Note_on_c, 3, 68, 0
5, 3420, Note_on_c, 3, 68, 127
5, 3498, Note_on_c, 3, 68, 0
5, 3540, Note_on_c, 3, 68, 124
5, 3558, Note_on_c, 3, 68, 0
5, 3600, Note_on_c, 3, 68, 127
5, 3688, Note_on_c, 3, 68, 0
5, 3720, Note_on_c, 3, 65, 117
5, 3744, Note_on_c, 3, 65, 0
5, 3780, Note_on_c, 3, 65, 127
5, 3848, Note_on_c, 3, 65, 0
5, 3900, Note_on_c, 3, 65, 127
5, 4013, Note_on_c, 3, 65, 0
5, 4020, Note_on_c, 3, 77, 127
5, 4136, Note_on_c, 3, 77, 0
5, 4260, Note_on_c, 3, 70, 127
5, 4274, Note_on_c, 3, 70, 0
5, 4290, Note_on_c, 3, 70, 127
5, 4307, Note_on_c, 3, 70, 0
5, 4320, Note_on_c, 3, 70, 127
5, 4440, Note_on_c, 3, 68, 99
5, 4454, Note_on_c, 3, 70, 0
5, 4493, Note_on_c, 3, 68, 0
5, 4500, Note_on_c, 3, 65, 117
5, 4543, Note_on_c, 3, 65, 0
5, 4620, Note_on_c, 3, 65, 124
5, 4641, Note_on_c, 3, 65, 0
5, 4710, Note_on_c, 3, 65, 127
5, 4732, Note_on_c, 3, 65, 0
5, 4800, Note_on_c, 3, 65, 127
5, 4829, Note_on_c, 3, 65, 0
5, 4890, Note_on_c, 3, 65, 127
5, 4935, Note_on_c, 3, 65, 0
5, 5220, Note_on_c, 3, 68, 127
5, 5254, Note_on_c, 3, 68, 0
5, 5280, Note_on_c, 3, 68, 127
5, 5312, Note_on_c, 3, 68, 0
5, 5340, Note_on_c, 3, 68, 117
5, 5368, Note_on_c, 3, 68, 0
5, 5400, Note_on_c, 3, 68, 124
5, 5428, Note_on_c, 3, 68, 0
5, 5460, Note_on_c, 3, 68, 127
5, 5570, Note_on_c, 3, 68, 0
5, 5580, Note_on_c, 3, 65, 108
5, 5608, Note_on_c, 3, 65, 0
5, 5640, Note_on_c, 3, 65, 108
5, 5660, Note_on_c, 3, 65, 0
5, 5700, Note_on_c, 3, 65, 127
5, 5792, Note_on_c, 3, 65, 0
5, 5820, Note_on_c, 3, 65, 124
5, 5849, Note_on_c, 3, 65, 0
5, 6060, Note_on_c, 3, 67, 127
5, 6087, Note_on_c, 3, 67, 0
5, 6120, Note_on_c, 3, 67, 117
5, 6145, Note_on_c, 3, 67, 0
5, 6180, Note_on_c, 3, 67, 127
5, 6211, Note_on_c, 3, 67, 0
5, 6240, Note_on_c, 3, 67, 127
5, 6302, Note_on_c, 3, 67, 0
5, 6720, Note_on_c, 3, 65, 108
5, 6750, Note_on_c, 3, 65, 0
5, 6780, Note_on_c, 3, 65, 117
5, 6800, Note_on_c, 3, 65, 0
5, 6840, Note_on_c, 3, 65, 117
5, 6900, Note_on_c, 3, 63, 108
5, 6901, Note_on_c, 3, 65, 0
5, 6917, Note_on_c, 3, 63, 0
5, 6960, Note_on_c, 3, 65, 117
5, 7012, Note_on_c, 3, 65, 0
5, 7020, Note_on_c, 3, 63, 99
5, 7043, Note_on_c, 3, 63, 0
5, 7080, Note_on_c, 3, 65, 108
5, 7140, Note_on_c, 3, 63, 99
5, 7142, Note_on_c, 3, 65, 0
5, 7181, Note_on_c, 3, 63, 0
5, 7200, Note_on_c, 3, 65, 124
5, 7269, Note_on_c, 3, 65, 0
5, 7980, Note_on_c, 3, 63, 124
5, 8007, Note_on_c, 3, 63, 0
5, 8040, Note_on_c, 3, 68, 108
5, 8066, Note_on_c, 3, 68, 0
5, 8100, Note_on_c, 3, 68, 127
5, 8128, Note_on_c, 3, 68, 0
5, 8160, Note_on_c, 3, 68, 127
5, 8185, Note_on_c, 3, 68, 0
5, 8220, Note_on_c, 3, 68, 127
5, 8247, Note_on_c, 3, 68, 0
5, 8520, Note_on_c, 3, 65, 108
5, 8561, Note_on_c, 3, 65, 0
5, 8580, Note_on_c, 3, 63, 124
5, 8632, Note_on_c, 3, 63, 0
5, 8640, Note_on_c, 3, 65, 117
5, 8707, Note_on_c, 3, 65, 0
5, 9000, Note_on_c, 3, 63, 99
5, 9032, Note_on_c, 3, 63, 0
5, 9060, Note_on_c, 3, 68, 127
5, 9082, Note_on_c, 3, 68, 0
5, 9120, Note_on_c, 3, 68, 124
5, 9139, Note_on_c, 3, 68, 0
5, 9180, Note_on_c, 3, 68, 127
5, 9207, Note_on_c, 3, 68, 0
5, 9480, Note_on_c, 3, 65, 108
5, 9540, Note_on_c, 3, 63, 108
5, 9549, Note_on_c, 3, 65, 0
5, 9583, Note_on_c, 3, 63, 0
5, 9600, Note_on_c, 3, 65, 108
5, 9639, Note_on_c, 3, 65, 0
5, 9780, Note_on_c, 3, 77, 124
5, 9942, Note_on_c, 3, 77, 0
5, 9960, Note_on_c, 3, 70, 127
5, 10020, Note_on_c, 3, 70, 0
5, 10020, Note_on_c, 3, 68, 99
5, 10057, Note_on_c, 3, 68, 0
5, 10080, Note_on_c, 3, 70, 127
5, 10140, Note_on_c, 3, 68, 124
5, 10149, Note_on_c, 3, 70, 0
5, 10186, Note_on_c, 3, 68, 0
5, 10440, Note_on_c, 3, 65, 127
5, 10500, Note_on_c, 3, 63, 117
5, 10515, Note_on_c, 3, 65, 0
5, 10549, Note_on_c, 3, 63, 0
5, 10560, Note_on_c, 3, 65, 124
5, 10636, Note_on_c, 3, 65, 0
5, 10860, Note_on_c, 3, 63, 124
5, 10892, Note_on_c, 3, 63, 0
5, 10920, Note_on_c, 3, 68, 108
5, 10980, Note_on_c, 3, 68, 0
5, 10980, Note_on_c, 3, 65, 90
5, 11014, Note_on_c, 3, 65, 0
5, 11040, Note_on_c, 3, 68, 117
5, 11100, Note_on_c, 3, 65, 99
5, 11101, Note_on_c, 3, 68, 0
5, 11129, Note_on_c, 3, 65, 0
5, 11340, Note_on_c, 3, 63, 117
5, 11366, Note_on_c, 3, 63, 0
5, 11400, Note_on_c, 3, 65, 117
5, 11460, Note_on_c, 3, 63, 108
5, 11466, Note_on_c, 3, 65, 0
5, 11494, Note_on_c, 3, 63, 0
5, 11520, Note_on_c, 3, 65, 99
5, 11588, Note_on_c, 3, 65, 0
5, 11880, Note_on_c, 3, 60, 108
5, 11905, Note_on_c, 3, 60, 0
5, 11940, Note_on_c, 3, 60, 90
5, 11968, Note_on_c, 3, 60, 0
5, 12000, Note_on_c, 3, 63, 124
5, 12030, Note_on_c, 3, 63, 0
5, 12060, Note_on_c, 3, 63, 124
5, 12170, Note_on_c, 3, 63, 0
5, 12180, Note_on_c, 3, 60, 124
5, 12266, Note_on_c, 3, 60, 0
5, 12360, Note_on_c, 3, 60, 117
5, 12390, Note_on_c, 3, 60, 0
5, 12420, Note_on_c, 3, 60, 117
5, 12459, Note_on_c, 3, 60, 0
5, 12480, Note_on_c, 3, 70, 127
5, 12568, Note_on_c, 3, 70, 0
5, 12600, Note_on_c, 3, 70, 127
5, 12660, Note_on_c, 3, 68, 124
5, 12668, Note_on_c, 3, 70, 0
5, 12742, Note_on_c, 3, 68, 0
5, 12780, Note_on_c, 3, 68, 127
5, 12830, Note_on_c, 3, 68, 0
5, 12840, Note_on_c, 3, 65, 90
5, 12881, Note_on_c, 3, 65, 0
5, 12900, Note_on_c, 3, 63, 127
5, 12955, Note_on_c, 3, 63, 0
5, 12960, Note_on_c, 3, 65, 117
5, 12992, Note_on_c, 3, 65, 0
5, 13020, Note_on_c, 3, 65, 124
5, 13063, Note_on_c, 3, 65, 0
5, 13260, Note_on_c, 3, 63, 124
5, 13316, Note_on_c, 3, 63, 0
5, 13320, Note_on_c, 3, 65, 108
5, 13380, Note_on_c, 3, 63, 124
5, 13385, Note_on_c, 3, 65, 0
5, 13435, Note_on_c, 3, 63, 0
5, 13440, Note_on_c, 3, 65, 127
5, 13498, Note_on_c, 3, 65, 0
5, 13860, Note_on_c, 3, 65, 124
5, 13914, Note_on_c, 3, 65, 0
5, 13920, Note_on_c, 3, 68, 124
5, 13950, Note_on_c, 3, 68, 0
5, 13980, Note_on_c, 3, 68, 124
5, 14036, Note_on_c, 3, 68, 0
5, 14100, Note_on_c, 3, 68, 127
5, 14184, Note_on_c, 3, 68, 0
5, 14220, Note_on_c, 3, 65, 117
5, 14254, Note_on_c, 3, 65, 0
5, 14280, Note_on_c, 3, 65, 124
5, 14332, Note_on_c, 3, 65, 0
5, 14340, Note_on_c, 3, 63, 117
5, 14388, Note_on_c, 3, 63, 0
5, 14400, Note_on_c, 3, 65, 108
5, 14460, Note_on_c, 3, 68, 127
5, 14468, Note_on_c, 3, 65, 0
5, 14486, Note_on_c, 3, 68, 0
5, 14820, Note_on_c, 3, 65, 117
5, 14852, Note_on_c, 3, 65, 0
5, 14880, Note_on_c, 3, 68, 127
5, 14912, Note_on_c, 3, 68, 0
5, 14940, Note_on_c, 3, 68, 127
5, 14989, Note_on_c, 3, 68, 0
5, 15060, Note_on_c, 3, 68, 127
5, 15130, Note_on_c, 3, 68, 0
5, 15180, Note_on_c, 3, 65, 124
5, 15217, Note_on_c, 3, 65, 0
5, 15300, Note_on_c, 3, 65, 124
5, 15380, Note_on_c, 3, 65, 0
5, 15420, Note_on_c, 3, 77, 127
5, 15609, Note_on_c, 3, 77, 0
5, 15780, Note_on_c, 3, 68, 124
5, 15804, Note_on_c, 3, 68, 0
5, 15840, Note_on_c, 3, 70, 127
5, 15867, Note_on_c, 3, 70, 0
5, 15900, Note_on_c, 3, 70, 127
5, 15969, Note_on_c, 3, 70, 0
5, 16020, Note_on_c, 3, 70, 127
5, 16037, Note_on_c, 3, 70, 0
5, 16050, Note_on_c, 3, 70, 127
5, 16080, Note_on_c, 3, 68, 124
5, 16091, Note_on_c, 3, 70, 0
5, 16153, Note_on_c, 3, 68, 0
5, 16170, Note_on_c, 3, 65, 108
5, 16235, Note_on_c, 3, 65, 0
5, 16260, Note_on_c, 3, 63, 124
5, 16310, Note_on_c, 3, 63, 0
5, 16320, Note_on_c, 3, 65, 124
5, 16380, Note_on_c, 3, 68, 127
5, 16389, Note_on_c, 3, 65, 0
5, 16430, Note_on_c, 3, 68, 0
5, 16740, Note_on_c, 3, 68, 117
5, 16754, Note_on_c, 3, 68, 0
5, 16800, Note_on_c, 3, 68, 124
5, 16818, Note_on_c, 3, 68, 0
5, 16860, Note_on_c, 3, 68, 124
5, 16917, Note_on_c, 3, 68, 0
5, 16960, Note_on_c, 3, 68, 124
5, 16973, Note_on_c, 3, 68, 0
5, 17000, Note_on_c, 3, 68, 124
5, 17014, Note_on_c, 3, 68, 0
5, 17040, Note_on_c, 3, 68, 124
5, 17097, Note_on_c, 3, 68, 0
5, 17120, Note_on_c, 3, 65, 99
5, 17172, Note_on_c, 3, 65, 0
5, 17200, Note_on_c, 3, 63, 124
5, 17241, Note_on_c, 3, 63, 0
5, 17280, Note_on_c, 3, 65, 124
5, 17336, Note_on_c, 3, 65, 0
5, 17580, Note_on_c, 3, 67, 117
5, 17649, Note_on_c, 3, 67, 0
5, 17670, Note_on_c, 3, 67, 124
5, 17724, Note_on_c, 3, 67, 0
5, 17760, Note_on_c, 3, 79, 127
5, 18712, Note_on_c, 3, 79, 0
5, 18720, Note_on_c, 3, 80, 124
5, 18824, Note_on_c, 3, 80, 0
5, 19500, Note_on_c, 3, 68, 127
5, 19525, Note_on_c, 3, 68, 0
5, 19560, Note_on_c, 3, 68, 127
5, 19590, Note_on_c, 3, 68, 0
5, 19620, Note_on_c, 3, 68, 127
5, 19645, Note_on_c, 3, 68, 0
5, 19680, Note_on_c, 3, 68, 127
5, 19705, Note_on_c, 3, 68, 0
5, 19740, Note_on_c, 3, 68, 127
5, 19767, Note_on_c, 3, 68, 0
5, 20040, Note_on_c, 3, 65, 108
5, 20081, Note_on_c, 3, 65, 0
5, 20100, Note_on_c, 3, 63, 124
5, 20152, Note_on_c, 3, 63, 0
5, 20160, Note_on_c, 3, 65, 117
5, 20227, Note_on_c, 3, 65, 0
5, 20520, Note_on_c, 3, 63, 99
5, 20552, Note_on_c, 3, 63, 0
5, 20580, Note_on_c, 3, 68, 127
5, 20602, Note_on_c, 3, 68, 0
5, 20640, Note_on_c, 3, 68, 124
5, 20659, Note_on_c, 3, 68, 0
5, 20700, Note_on_c, 3, 68, 127
5, 20727, Note_on_c, 3, 68, 0
5, 21000, Note_on_c, 3, 65, 108
5, 21060, Note_on_c, 3, 63, 108
5, 21069, Note_on_c, 3, 65, 0
5, 21103, Note_on_c, 3, 63, 0
5, 21120, Note_on_c, 3, 65, 108
5, 21159, Note_on_c, 3, 65, 0
5, 21300, Note_on_c, 3, 77, 124
5, 21462, Note_on_c, 3, 77, 0
5, 21480, Note_on_c, 3, 70, 127
5, 21540, Note_on_c, 3, 70, 0
5, 21540, Note_on_c, 3, 68, 99
5, 21577, Note_on_c, 3, 68, 0
5, 21600, Note_on_c, 3, 70, 127
5, 21660, Note_on_c, 3, 68, 124
5, 21669, Note_on_c, 3, 70, 0
5, 21706, Note_on_c, 3, 68, 0
5, 21960, Note_on_c, 3, 65, 127
5, 22020, Note_on_c, 3, 63, 117
5, 22035, Note_on_c, 3, 65, 0
5, 22069, Note_on_c, 3, 63, 0
5, 22080, Note_on_c, 3, 65, 124
5, 22156, Note_on_c, 3, 65, 0
5, 22380, Note_on_c, 3, 63, 124
5, 22412, Note_on_c, 3, 63, 0
5, 22440, Note_on_c, 3, 68, 108
5, 22500, Note_on_c, 3, 68, 0
5, 22500, Note_on_c, 3, 65, 90
5, 22534, Note_on_c, 3, 65, 0
5, 22560, Note_on_c, 3, 68, 117
5, 22620, Note_on_c, 3, 65, 99
5, 22621, Note_on_c, 3, 68, 0
5, 22649, Note_on_c, 3, 65, 0
5, 22860, Note_on_c, 3, 63, 117
5, 22886, Note_on_c, 3, 63, 0
5, 22920, Note_on_c, 3, 65, 117
5, 22980, Note_on_c, 3, 63, 108
5, 22986, Note_on_c, 3, 65, 0
5, 23014, Note_on_c, 3, 63, 0
5, 23040, Note_on_c, 3, 65, 99
5, 23108, Note_on_c, 3, 65, 0
5, 23400, Note_on_c, 3, 60, 108
5, 23425, Note_on_c, 3, 60, 0
5, 23460, Note_on_c, 3, 60, 90
5, 23488, Note_on_c, 3, 60, 0
5, 23520, Note_on_c, 3, 63, 124
5, 23550, Note_on_c, 3, 63, 0
5, 23580, Note_on_c, 3, 63, 124
5, 23690, Note_on_c, 3, 63, 0
5, 23700, Note_on_c, 3, 60, 124
5, 23786, Note_on_c, 3, 60, 0
5, 23880, Note_on_c, 3, 60, 117
5, 23910, Note_on_c, 3, 60, 0
5, 23940, Note_on_c, 3, 60, 117
5, 23979, Note_on_c, 3, 60, 0
5, 24000, Note_on_c, 3, 70, 127
5, 24088, Note_on_c, 3, 70, 0
5, 24120, Note_on_c, 3, 70, 127
5, 24180, Note_on_c, 3, 68, 124
5, 24188, Note_on_c, 3, 70, 0
5, 24262, Note_on_c, 3, 68, 0
5, 24300, Note_on_c, 3, 68, 127
5, 24350, Note_on_c, 3, 68, 0
5, 24360, Note_on_c, 3, 65, 90
5, 24401, Note_on_c, 3, 65, 0
5, 24420, Note_on_c, 3, 63, 127
5, 24475, Note_on_c, 3, 63, 0
5, 24480, Note_on_c, 3, 65, 117
5, 24512, Note_on_c, 3, 65, 0
5, 24540, Note_on_c, 3, 65, 124
5, 24583, Note_on_c, 3, 65, 0
5, 24780, Note_on_c, 3, 63, 124
5, 24836, Note_on_c, 3, 63, 0
5, 24840, Note_on_c, 3, 65, 108
5, 24900, Note_on_c, 3, 63, 124
5, 24905, Note_on_c, 3, 65, 0
5, 24955, Note_on_c, 3, 63, 0
5, 24960, Note_on_c, 3, 65, 127
5, 25018, Note_on_c, 3, 65, 0
5, 25140, Note_on_c, 3, 77, 127
5, 25433, Note_on_c, 3, 77, 0
5, 31020, Note_on_c, 3, 68, 127
5, 31055, Note_on_c, 3, 68, 0
5, 31080, Note_on_c, 3, 68, 127
5, 31114, Note_on_c, 3, 68, 0
5, 31140, Note_on_c, 3, 68, 127
5, 31215, Note_on_c, 3, 68, 0
5, 31260, Note_on_c, 3, 68, 127
5, 31325, Note_on_c, 3, 68, 0
5, 31380, Note_on_c, 3, 68, 127
5, 31450, Note_on_c, 3, 68, 0
5, 31500, Note_on_c, 3, 68, 127
5, 31557, Note_on_c, 3, 68, 0
5, 31560, Note_on_c, 3, 65, 117
5, 31618, Note_on_c, 3, 65, 0
5, 31620, Note_on_c, 3, 63, 124
5, 31669, Note_on_c, 3, 63, 0
5, 31680, Note_on_c, 3, 65, 124
5, 31745, Note_on_c, 3, 65, 0
5, 32100, Note_on_c, 3, 68, 127
5, 32132, Note_on_c, 3, 68, 0
5, 32160, Note_on_c, 3, 68, 127
5, 32197, Note_on_c, 3, 68, 0
5, 32220, Note_on_c, 3, 68, 127
5, 32299, Note_on_c, 3, 68, 0
5, 32340, Note_on_c, 3, 68, 127
5, 32420, Note_on_c, 3, 68, 0
5, 32460, Note_on_c, 3, 65, 124
5, 32511, Note_on_c, 3, 65, 0
5, 32550, Note_on_c, 3, 65, 117
5, 32583, Note_on_c, 3, 65, 0
5, 32640, Note_on_c, 3, 65, 127
5, 32691, Note_on_c, 3, 65, 0
5, 32820, Note_on_c, 3, 77, 127
5, 32961, Note_on_c, 3, 77, 0
5, 33060, Note_on_c, 3, 70, 127
5, 33091, Note_on_c, 3, 70, 0
5, 33120, Note_on_c, 3, 70, 127
5, 33169, Note_on_c, 3, 70, 0
5, 33210, Note_on_c, 3, 70, 127
5, 33270, Note_on_c, 3, 70, 0
5, 33300, Note_on_c, 3, 70, 127
5, 33314, Note_on_c, 3, 70, 0
5, 33330, Note_on_c, 3, 70, 127
5, 33360, Note_on_c, 3, 68, 124
5, 33381, Note_on_c, 3, 70, 0
5, 33420, Note_on_c, 3, 68, 0
5, 33450, Note_on_c, 3, 65, 124
5, 33502, Note_on_c, 3, 65, 0
5, 33540, Note_on_c, 3, 65, 117
5, 33576, Note_on_c, 3, 65, 0
5, 33600, Note_on_c, 3, 65, 127
5, 33673, Note_on_c, 3, 65, 0
5, 34020, Note_on_c, 3, 68, 117
5, 34042, Note_on_c, 3, 68, 0
5, 34080, Note_on_c, 3, 68, 117
5, 34105, Note_on_c, 3, 68, 0
5, 34160, Note_on_c, 3, 68, 117
5, 34188, Note_on_c, 3, 68, 0
5, 34240, Note_on_c, 3, 68, 117
5, 34253, Note_on_c, 3, 68, 0
5, 34280, Note_on_c, 3, 68, 117
5, 34293, Note_on_c, 3, 68, 0
5, 34320, Note_on_c, 3, 68, 124
5, 34384, Note_on_c, 3, 68, 0
5, 34400, Note_on_c, 3, 65, 108
5, 34434, Note_on_c, 3, 65, 0
5, 34480, Note_on_c, 3, 65, 108
5, 34510, Note_on_c, 3, 65, 0
5, 34560, Note_on_c, 3, 68, 117
5, 34597, Note_on_c, 3, 68, 0
5, 34600, Note_on_c, 3, 67, 90
5, 34620, Note_on_c, 3, 65, 90
5, 34632, Note_on_c, 3, 67, 0
5, 34656, Note_on_c, 3, 65, 0
5, 34869, Note_on_c, 3, 67, 127
5, 34897, Note_on_c, 3, 67, 0
5, 34954, Note_on_c, 3, 67, 124
5, 34978, Note_on_c, 3, 67, 0
5, 35040, Note_on_c, 3, 79, 127
5, 35696, Note_on_c, 3, 79, 0
5, 35760, Note_on_c, 3, 79, 127
5, 35820, Note_on_c, 3, 77, 99
5, 35826, Note_on_c, 3, 79, 0
5, 35850, Note_on_c, 3, 77, 0
5, 35880, Note_on_c, 3, 79, 124
5, 35940, Note_on_c, 3, 77, 90
5, 35946, Note_on_c, 3, 79, 0
5, 35967, Note_on_c, 3, 77, 0
5, 36000, Note_on_c, 3, 80, 127
5, 36229, Note_on_c, 3, 80, 0
5, 36240, Note_on_c, 3, 77, 127
5, 36302, Note_on_c, 3, 77, 0
5, 36780, Note_on_c, 3, 65, 124
5, 36827, Note_on_c, 3, 65, 0
5, 36840, Note_on_c, 3, 68, 124
5, 36874, Note_on_c, 3, 68, 0
5, 36900, Note_on_c, 3, 68, 124
5, 36936, Note_on_c, 3, 68, 0
5, 36960, Note_on_c, 3, 68, 127
5, 37002, Note_on_c, 3, 68, 0
5, 37020, Note_on_c, 3, 68, 127
5, 37064, Note_on_c, 3, 68, 0
5, 37320, Note_on_c, 3, 65, 108
5, 37361, Note_on_c, 3, 65, 0
5, 37380, Note_on_c, 3, 63, 124
5, 37432, Note_on_c, 3, 63, 0
5, 37440, Note_on_c, 3, 65, 117
5, 37507, Note_on_c, 3, 65, 0
5, 37800, Note_on_c, 3, 63, 99
5, 37832, Note_on_c, 3, 63, 0
5, 37860, Note_on_c, 3, 68, 127
5, 37882, Note_on_c, 3, 68, 0
5, 37920, Note_on_c, 3, 68, 124
5, 37939, Note_on_c, 3, 68, 0
5, 37980, Note_on_c, 3, 68, 127
5, 38007, Note_on_c, 3, 68, 0
5, 38280, Note_on_c, 3, 65, 108
5, 38340, Note_on_c, 3, 63, 108
5, 38349, Note_on_c, 3, 65, 0
5, 38383, Note_on_c, 3, 63, 0
5, 38400, Note_on_c, 3, 65, 108
5, 38439, Note_on_c, 3, 65, 0
5, 38580, Note_on_c, 3, 77, 124
5, 38742, Note_on_c, 3, 77, 0
5, 38760, Note_on_c, 3, 70, 127
5, 38820, Note_on_c, 3, 70, 0
5, 38820, Note_on_c, 3, 68, 99
5, 38857, Note_on_c, 3, 68, 0
5, 38880, Note_on_c, 3, 70, 127
5, 38940, Note_on_c, 3, 68, 124
5, 38949, Note_on_c, 3, 70, 0
5, 38986, Note_on_c, 3, 68, 0
5, 39240, Note_on_c, 3, 65, 127
5, 39300, Note_on_c, 3, 63, 117
5, 39315, Note_on_c, 3, 65, 0
5, 39349, Note_on_c, 3, 63, 0
5, 39360, Note_on_c, 3, 65, 124
5, 39436, Note_on_c, 3, 65, 0
5, 39660, Note_on_c, 3, 63, 124
5, 39692, Note_on_c, 3, 63, 0
5, 39720, Note_on_c, 3, 68, 108
5, 39780, Note_on_c, 3, 68, 0
5, 39780, Note_on_c, 3, 65, 90
5, 39814, Note_on_c, 3, 65, 0
5, 39840, Note_on_c, 3, 68, 117
5, 39900, Note_on_c, 3, 65, 99
5, 39901, Note_on_c, 3, 68, 0
5, 39929, Note_on_c, 3, 65, 0
5, 40140, Note_on_c, 3, 63, 117
5, 40166, Note_on_c, 3, 63, 0
5, 40200, Note_on_c, 3, 65, 117
5, 40260, Note_on_c, 3, 63, 108
5, 40266, Note_on_c, 3, 65, 0
5, 40294, Note_on_c, 3, 63, 0
5, 40320, Note_on_c, 3, 65, 99
5, 40388, Note_on_c, 3, 65, 0
5, 40680, Note_on_c, 3, 60, 124
5, 40700, Note_on_c, 3, 60, 0
5, 40740, Note_on_c, 3, 60, 124
5, 40767, Note_on_c, 3, 60, 0
5, 40800, Note_on_c, 3, 63, 124
5, 40826, Note_on_c, 3, 63, 0
5, 40860, Note_on_c, 3, 63, 127
5, 40951, Note_on_c, 3, 63, 0
5, 40980, Note_on_c, 3, 60, 124
5, 41090, Note_on_c, 3, 60, 0
5, 41160, Note_on_c, 3, 60, 124
5, 41183, Note_on_c, 3, 60, 0
5, 41220, Note_on_c, 3, 60, 99
5, 41241, Note_on_c, 3, 60, 0
5, 41280, Note_on_c, 3, 70, 127
5, 41302, Note_on_c, 3, 70, 0
5, 41340, Note_on_c, 3, 70, 127
5, 41367, Note_on_c, 3, 70, 0
5, 41400, Note_on_c, 3, 70, 127
5, 41437, Note_on_c, 3, 70, 0
5, 41460, Note_on_c, 3, 68, 127
5, 41529, Note_on_c, 3, 68, 0
5, 41580, Note_on_c, 3, 65, 127
5, 41599, Note_on_c, 3, 65, 0
5, 41640, Note_on_c, 3, 65, 127
5, 41695, Note_on_c, 3, 65, 0
5, 41700, Note_on_c, 3, 63, 124
5, 41740, Note_on_c, 3, 63, 0
5, 41760, Note_on_c, 3, 65, 124
5, 41794, Note_on_c, 3, 65, 0
5, 41820, Note_on_c, 3, 65, 127
5, 41854, Note_on_c, 3, 65, 0
5, 42060, Note_on_c, 3, 63, 127
5, 42106, Note_on_c, 3, 63, 0
5, 42120, Note_on_c, 3, 65, 127
5, 42146, Note_on_c, 3, 65, 0
5, 42180, Note_on_c, 3, 63, 127
5, 42221, Note_on_c, 3, 63, 0
5, 42240, Note_on_c, 3, 65, 127
5, 42301, Note_on_c, 3, 65, 0
5, 42301, End_track
6, 0, Start_track
6, 0, MIDI_port, 0
6, 0, Title_t, ">>GTR 1"
6, 0, Program_c, 4, 25
6, 0, Control_c, 4, 7, 75
6, 1, Control_c, 4, 93, 64
6, 600, Note_on_c, 4, 70, 127
6, 600, Note_on_c, 4, 64, 117
6, 600, Note_on_c, 4, 67, 117
6, 651, Note_on_c, 4, 64, 0
6, 651, Note_on_c, 4, 70, 0
6, 652, Note_on_c, 4, 67, 0
6, 660, Note_on_c, 4, 64, 82
6, 660, Note_on_c, 4, 70, 124
6, 660, Note_on_c, 4, 67, 117
6, 691, Note_on_c, 4, 64, 0
6, 696, Note_on_c, 4, 67, 0
6, 697, Note_on_c, 4, 70, 0
6, 720, Note_on_c, 4, 67, 99
6, 720, Note_on_c, 4, 70, 127
6, 720, Note_on_c, 4, 64, 99
6, 754, Note_on_c, 4, 64, 0
6, 761, Note_on_c, 4, 70, 0
6, 762, Note_on_c, 4, 67, 0
6, 780, Note_on_c, 4, 67, 124
6, 780, Note_on_c, 4, 64, 117
6, 780, Note_on_c, 4, 70, 127
6, 850, Note_on_c, 4, 64, 0
6, 854, Note_on_c, 4, 70, 0
6, 855, Note_on_c, 4, 67, 0
6, 1080, Note_on_c, 4, 70, 127
6, 1080, Note_on_c, 4, 62, 124
6, 1080, Note_on_c, 4, 65, 117
6, 1117, Note_on_c, 4, 62, 0
6, 1126, Note_on_c, 4, 65, 0
6, 1128, Note_on_c, 4, 70, 0
6, 1140, Note_on_c, 4, 65, 90
6, 1140, Note_on_c, 4, 70, 124
6, 1140, Note_on_c, 4, 62, 90
6, 1169, Note_on_c, 4, 62, 0
6, 1175, Note_on_c, 4, 70, 0
6, 1178, Note_on_c, 4, 65, 0
6, 1200, Note_on_c, 4, 65, 99
6, 1200, Note_on_c, 4, 70, 127
6, 1200, Note_on_c, 4, 62, 108
6, 1229, Note_on_c, 4, 62, 0
6, 1238, Note_on_c, 4, 65, 0
6, 1239, Note_on_c, 4, 70, 0
6, 1260, Note_on_c, 4, 70, 127
6, 1260, Note_on_c, 4, 65, 117
6, 1260, Note_on_c, 4, 62, 117
6, 1296, Note_on_c, 4, 62, 0
6, 1305, Note_on_c, 4, 65, 0
6, 1312, Note_on_c, 4, 70, 0
6, 1560, Note_on_c, 4, 60, 124
6, 1560, Note_on_c, 4, 65, 124
6, 1560, Note_on_c, 4, 69, 117
6, 1601, Note_on_c, 4, 69, 0
6, 1601, Note_on_c, 4, 65, 0
6, 1603, Note_on_c, 4, 60, 0
6, 1620, Note_on_c, 4, 60, 52
6, 1620, Note_on_c, 4, 65, 108
6, 1620, Note_on_c, 4, 69, 68
6, 1657, Note_on_c, 4, 60, 0
6, 1658, Note_on_c, 4, 65, 0
6, 1660, Note_on_c, 4, 69, 0
6, 1680, Note_on_c, 4, 69, 99
6, 1680, Note_on_c, 4, 65, 117
6, 1680, Note_on_c, 4, 60, 108
6, 1712, Note_on_c, 4, 60, 0
6, 1715, Note_on_c, 4, 65, 0
6, 1722, Note_on_c, 4, 69, 0
6, 1740, Note_on_c, 4, 65, 124
6, 1740, Note_on_c, 4, 69, 124
6, 1740, Note_on_c, 4, 60, 124
6, 1812, Note_on_c, 4, 69, 0
6, 1813, Note_on_c, 4, 60, 0
6, 1817, Note_on_c, 4, 65, 0
6, 1920, Note_on_c, 4, 69, 124
6, 1920, Note_on_c, 4, 60, 127
6, 1920, Note_on_c, 4, 41, 124
6, 1920, Note_on_c, 4, 65, 127
6, 1920, Note_on_c, 4, 53, 117
6, 1958, Note_on_c, 4, 53, 0
6, 1963, Note_on_c, 4, 60, 0
6, 1967, Note_on_c, 4, 65, 0
6, 1968, Note_on_c, 4, 41, 0
6, 1970, Note_on_c, 4, 69, 0
6, 2520, Note_on_c, 4, 69, 124
6, 2520, Note_on_c, 4, 72, 117
6, 2520, Note_on_c, 4, 65, 124
6, 2562, Note_on_c, 4, 69, 0
6, 2580, Note_on_c, 4, 69, 35
6, 2608, Note_on_c, 4, 65, 0
6, 2612, Note_on_c, 4, 72, 0
6, 2615, Note_on_c, 4, 69, 0
6, 2640, Note_on_c, 4, 65, 75
6, 2640, Note_on_c, 4, 69, 99
6, 2640, Note_on_c, 4, 72, 82
6, 2673, Note_on_c, 4, 65, 0
6, 2674, Note_on_c, 4, 72, 0
6, 2674, Note_on_c, 4, 69, 0
6, 2700, Note_on_c, 4, 65, 75
6, 2700, Note_on_c, 4, 69, 108
6, 2700, Note_on_c, 4, 72, 82
6, 2735, Note_on_c, 4, 65, 0
6, 2736, Note_on_c, 4, 72, 0
6, 2737, Note_on_c, 4, 69, 0
6, 2760, Note_on_c, 4, 65, 117
6, 2760, Note_on_c, 4, 69, 124
6, 2760, Note_on_c, 4, 72, 117
6, 2788, Note_on_c, 4, 65, 0
6, 2794, Note_on_c, 4, 69, 0
6, 2797, Note_on_c, 4, 72, 0
6, 3000, Note_on_c, 4, 69, 124
6, 3000, Note_on_c, 4, 65, 124
6, 3000, Note_on_c, 4, 72, 117
6, 3037, Note_on_c, 4, 72, 0
6, 3041, Note_on_c, 4, 69, 0
6, 3060, Note_on_c, 4, 69, 90
6, 3060, Note_on_c, 4, 72, 45
6, 3088, Note_on_c, 4, 65, 0
6, 3097, Note_on_c, 4, 72, 0
6, 3098, Note_on_c, 4, 69, 0
6, 3120, Note_on_c, 4, 69, 99
6, 3120, Note_on_c, 4, 72, 82
6, 3120, Note_on_c, 4, 65, 82
6, 3155, Note_on_c, 4, 65, 0
6, 3155, Note_on_c, 4, 72, 0
6, 3157, Note_on_c, 4, 69, 0
6, 3180, Note_on_c, 4, 65, 90
6, 3180, Note_on_c, 4, 72, 82
6, 3180, Note_on_c, 4, 69, 108
6, 3209, Note_on_c, 4, 65, 0
6, 3212, Note_on_c, 4, 69, 0
6, 3215, Note_on_c, 4, 72, 0
6, 3240, Note_on_c, 4, 65, 117
6, 3240, Note_on_c, 4, 72, 117
6, 3240, Note_on_c, 4, 69, 124
6, 3274, Note_on_c, 4, 65, 0
6, 3278, Note_on_c, 4, 69, 0
6, 3281, Note_on_c, 4, 72, 0
6, 3480, Note_on_c, 4, 72, 124
6, 3480, Note_on_c, 4, 65, 117
6, 3480, Note_on_c, 4, 69, 124
6, 3522, Note_on_c, 4, 69, 0
6, 3526, Note_on_c, 4, 65, 0
6, 3528, Note_on_c, 4, 72, 0
6, 3540, Note_on_c, 4, 65, 61
6, 3540, Note_on_c, 4, 69, 99
6, 3540, Note_on_c, 4, 72, 82
6, 3563, Note_on_c, 4, 72, 0
6, 3570, Note_on_c, 4, 65, 0
6, 3573, Note_on_c, 4, 69, 0
6, 3600, Note_on_c, 4, 65, 90
6, 3600, Note_on_c, 4, 69, 99
6, 3600, Note_on_c, 4, 72, 75
6, 3629, Note_on_c, 4, 65, 0
6, 3630, Note_on_c, 4, 72, 0
6, 3632, Note_on_c, 4, 69, 0
6, 3660, Note_on_c, 4, 72, 99
6, 3660, Note_on_c, 4, 69, 108
6, 3660, Note_on_c, 4, 65, 99
6, 3691, Note_on_c, 4, 65, 0
6, 3694, Note_on_c, 4, 69, 0
6, 3696, Note_on_c, 4, 72, 0
6, 3720, Note_on_c, 4, 65, 108
6, 3720, Note_on_c, 4, 72, 108
6, 3720, Note_on_c, 4, 69, 117
6, 3753, Note_on_c, 4, 65, 0
6, 3761, Note_on_c, 4, 69, 0
6, 3766, Note_on_c, 4, 72, 0
6, 3960, Note_on_c, 4, 72, 124
6, 3960, Note_on_c, 4, 69, 124
6, 3960, Note_on_c, 4, 65, 124
6, 3999, Note_on_c, 4, 69, 0
6, 4008, Note_on_c, 4, 72, 0
6, 4020, Note_on_c, 4, 72, 52
6, 4020, Note_on_c, 4, 69, 90
6, 4048, Note_on_c, 4, 65, 0
6, 4050, Note_on_c, 4, 69, 0
6, 4053, Note_on_c, 4, 72, 0
6, 4080, Note_on_c, 4, 72, 99
6, 4080, Note_on_c, 4, 65, 99
6, 4080, Note_on_c, 4, 69, 108
6, 4110, Note_on_c, 4, 69, 0
6, 4113, Note_on_c, 4, 65, 0
6, 4116, Note_on_c, 4, 72, 0
6, 4140, Note_on_c, 4, 72, 90
6, 4140, Note_on_c, 4, 69, 117
6, 4140, Note_on_c, 4, 65, 90
6, 4167, Note_on_c, 4, 65, 0
6, 4172, Note_on_c, 4, 69, 0
6, 4174, Note_on_c, 4, 72, 0
6, 4200, Note_on_c, 4, 72, 117
6, 4200, Note_on_c, 4, 69, 117
6, 4200, Note_on_c, 4, 65, 108
6, 4235, Note_on_c, 4, 65, 0
6, 4242, Note_on_c, 4, 69, 0
6, 4245, Note_on_c, 4, 72, 0
6, 4440, Note_on_c, 4, 68, 124
6, 4440, Note_on_c, 4, 65, 117
6, 4440, Note_on_c, 4, 74, 124
6, 4474, Note_on_c, 4, 65, 0
6, 4477, Note_on_c, 4, 68, 0
6, 4500, Note_on_c, 4, 65, 45
6, 4500, Note_on_c, 4, 68, 90
6, 4530, Note_on_c, 4, 65, 0
6, 4531, Note_on_c, 4, 68, 0
6, 4534, Note_on_c, 4, 74, 0
6, 4560, Note_on_c, 4, 68, 124
6, 4560, Note_on_c, 4, 74, 99
6, 4560, Note_on_c, 4, 65, 99
6, 4591, Note_on_c, 4, 65, 0
6, 4595, Note_on_c, 4, 68, 0
6, 4601, Note_on_c, 4, 74, 0
6, 4620, Note_on_c, 4, 74, 108
6, 4620, Note_on_c, 4, 68, 117
6, 4620, Note_on_c, 4, 65, 82
6, 4647, Note_on_c, 4, 65, 0
6, 4650, Note_on_c, 4, 68, 0
6, 4658, Note_on_c, 4, 74, 0
6, 4680, Note_on_c, 4, 74, 117
6, 4680, Note_on_c, 4, 68, 127
6, 4680, Note_on_c, 4, 65, 108
6, 4711, Note_on_c, 4, 65, 0
6, 4716, Note_on_c, 4, 68, 0
6, 4723, Note_on_c, 4, 74, 0
6, 4920, Note_on_c, 4, 74, 117
6, 4920, Note_on_c, 4, 68, 127
6, 4920, Note_on_c, 4, 65, 124
6, 4955, Note_on_c, 4, 65, 0
6, 4960, Note_on_c, 4, 68, 0
6, 4969, Note_on_c, 4, 74, 0
6, 4980, Note_on_c, 4, 68, 90
6, 4980, Note_on_c, 4, 74, 39
6, 4980, Note_on_c, 4, 65, 39
6, 5010, Note_on_c, 4, 65, 0
6, 5016, Note_on_c, 4, 68, 0
6, 5017, Note_on_c, 4, 74, 0
6, 5040, Note_on_c, 4, 74, 99
6, 5040, Note_on_c, 4, 68, 124
6, 5040, Note_on_c, 4, 65, 99
6, 5066, Note_on_c, 4, 65, 0
6, 5072, Note_on_c, 4, 68, 0
6, 5077, Note_on_c, 4, 74, 0
6, 5100, Note_on_c, 4, 74, 108
6, 5100, Note_on_c, 4, 68, 124
6, 5100, Note_on_c, 4, 65, 90
6, 5131, Note_on_c, 4, 65, 0
6, 5136, Note_on_c, 4, 68, 0
6, 5141, Note_on_c, 4, 74, 0
6, 5160, Note_on_c, 4, 74, 117
6, 5160, Note_on_c, 4, 68, 127
6, 5160, Note_on_c, 4, 65, 117
6, 5194, Note_on_c, 4, 65, 0
6, 5205, Note_on_c, 4, 68, 0
6, 5212, Note_on_c, 4, 74, 0
6, 5400, Note_on_c, 4, 69, 117
6, 5400, Note_on_c, 4, 65, 117
6, 5400, Note_on_c, 4, 72, 117
6, 5434, Note_on_c, 4, 65, 0
6, 5437, Note_on_c, 4, 69, 0
6, 5442, Note_on_c, 4, 72, 0
6, 5460, Note_on_c, 4, 69, 99
6, 5460, Note_on_c, 4, 72, 90
6, 5460, Note_on_c, 4, 65, 75
6, 5485, Note_on_c, 4, 65, 0
6, 5495, Note_on_c, 4, 69, 0
6, 5497, Note_on_c, 4, 72, 0
6, 5520, Note_on_c, 4, 69, 90
6, 5520, Note_on_c, 4, 72, 99
6, 5520, Note_on_c, 4, 65, 99
6, 5551, Note_on_c, 4, 65, 0
6, 5556, Note_on_c, 4, 69, 0
6, 5559, Note_on_c, 4, 72, 0
6, 5580, Note_on_c, 4, 69, 90
6, 5580, Note_on_c, 4, 72, 108
6, 5580, Note_on_c, 4, 65, 99
6, 5610, Note_on_c, 4, 65, 0
6, 5616, Note_on_c, 4, 69, 0
6, 5619, Note_on_c, 4, 72, 0
6, 5640, Note_on_c, 4, 72, 99
6, 5640, Note_on_c, 4, 69, 108
6, 5640, Note_on_c, 4, 65, 117
6, 5676, Note_on_c, 4, 65, 0
6, 5685, Note_on_c, 4, 69, 0
6, 5693, Note_on_c, 4, 72, 0
6, 5880, Note_on_c, 4, 69, 117
6, 5880, Note_on_c, 4, 65, 124
6, 5880, Note_on_c, 4, 72, 117
6, 5917, Note_on_c, 4, 65, 0
6, 5921, Note_on_c, 4, 72, 0
6, 5924, Note_on_c, 4, 69, 0
6, 5940, Note_on_c, 4, 69, 108
6, 5940, Note_on_c, 4, 72, 99
6, 5940, Note_on_c, 4, 65, 99
6, 5969, Note_on_c, 4, 65, 0
6, 5976, Note_on_c, 4, 69, 0
6, 5977, Note_on_c, 4, 72, 0
6, 6000, Note_on_c, 4, 69, 82
6, 6000, Note_on_c, 4, 72, 99
6, 6000, Note_on_c, 4, 65, 108
6, 6031, Note_on_c, 4, 65, 0
6, 6037, Note_on_c, 4, 69, 0
6, 6039, Note_on_c, 4, 72, 0
6, 6060, Note_on_c, 4, 69, 99
6, 6060, Note_on_c, 4, 72, 90
6, 6060, Note_on_c, 4, 65, 99
6, 6091, Note_on_c, 4, 65, 0
6, 6095, Note_on_c, 4, 72, 0
6, 6096, Note_on_c, 4, 69, 0
6, 6120, Note_on_c, 4, 69, 99
6, 6120, Note_on_c, 4, 72, 99
6, 6120, Note_on_c, 4, 65, 108
6, 6158, Note_on_c, 4, 65, 0
6, 6168, Note_on_c, 4, 69, 0
6, 6172, Note_on_c, 4, 72, 0
6, 6360, Note_on_c, 4, 76, 108
6, 6360, Note_on_c, 4, 70, 127
6, 6360, Note_on_c, 4, 67, 108
6, 6388, Note_on_c, 4, 67, 0
6, 6397, Note_on_c, 4, 70, 0
6, 6403, Note_on_c, 4, 76, 0
6, 6420, Note_on_c, 4, 76, 82
6, 6420, Note_on_c, 4, 70, 108
6, 6420, Note_on_c, 4, 67, 75
6, 6447, Note_on_c, 4, 67, 0
6, 6452, Note_on_c, 4, 70, 0
6, 6454, Note_on_c, 4, 76, 0
6, 6480, Note_on_c, 4, 70, 127
6, 6480, Note_on_c, 4, 67, 117
6, 6480, Note_on_c, 4, 76, 108
6, 6508, Note_on_c, 4, 67, 0
6, 6510, Note_on_c, 4, 70, 0
6, 6514, Note_on_c, 4, 76, 0
6, 6540, Note_on_c, 4, 76, 99
6, 6540, Note_on_c, 4, 70, 124
6, 6540, Note_on_c, 4, 67, 90
6, 6569, Note_on_c, 4, 67, 0
6, 6572, Note_on_c, 4, 70, 0
6, 6577, Note_on_c, 4, 76, 0
6, 6600, Note_on_c, 4, 76, 117
6, 6600, Note_on_c, 4, 70, 127
6, 6600, Note_on_c, 4, 67, 117
6, 6636, Note_on_c, 4, 67, 0
6, 6645, Note_on_c, 4, 70, 0
6, 6645, Note_on_c, 4, 76, 0
6, 6720, Note_on_c, 4, 74, 108
6, 6720, Note_on_c, 4, 68, 127
6, 6720, Note_on_c, 4, 65, 117
6, 6768, Note_on_c, 4, 65, 0
6, 6781, Note_on_c, 4, 68, 0
6, 6782, Note_on_c, 4, 74, 0
6, 7320, Note_on_c, 4, 65, 117
6, 7320, Note_on_c, 4, 72, 117
6, 7320, Note_on_c, 4, 69, 124
6, 7349, Note_on_c, 4, 65, 0
6, 7350, Note_on_c, 4, 69, 0
6, 7357, Note_on_c, 4, 72, 0
6, 7380, Note_on_c, 4, 69, 99
6, 7380, Note_on_c, 4, 72, 108
6, 7380, Note_on_c, 4, 65, 75
6, 7412, Note_on_c, 4, 65, 0
6, 7418, Note_on_c, 4, 69, 0
6, 7421, Note_on_c, 4, 72, 0
6, 7440, Note_on_c, 4, 69, 75
6, 7440, Note_on_c, 4, 72, 99
6, 7440, Note_on_c, 4, 65, 75
6, 7472, Note_on_c, 4, 65, 0
6, 7479, Note_on_c, 4, 72, 0
6, 7479, Note_on_c, 4, 69, 0
6, 7500, Note_on_c, 4, 69, 99
6, 7500, Note_on_c, 4, 72, 117
6, 7500, Note_on_c, 4, 65, 90
6, 7527, Note_on_c, 4, 65, 0
6, 7532, Note_on_c, 4, 69, 0
6, 7535, Note_on_c, 4, 72, 0
6, 7560, Note_on_c, 4, 72, 108
6, 7560, Note_on_c, 4, 69, 99
6, 7560, Note_on_c, 4, 65, 117
6, 7594, Note_on_c, 4, 65, 0
6, 7603, Note_on_c, 4, 69, 0
6, 7607, Note_on_c, 4, 72, 0
6, 7800, Note_on_c, 4, 69, 108
6, 7800, Note_on_c, 4, 65, 117
6, 7800, Note_on_c, 4, 72, 108
6, 7831, Note_on_c, 4, 65, 0
6, 7839, Note_on_c, 4, 69, 0
6, 7843, Note_on_c, 4, 72, 0
6, 7860, Note_on_c, 4, 72, 90
6, 7860, Note_on_c, 4, 69, 82
6, 7860, Note_on_c, 4, 65, 99
6, 7889, Note_on_c, 4, 65, 0
6, 7897, Note_on_c, 4, 69, 0
6, 7904, Note_on_c, 4, 72, 0
6, 7920, Note_on_c, 4, 72, 90
6, 7920, Note_on_c, 4, 69, 82
6, 7920, Note_on_c, 4, 65, 90
6, 7949, Note_on_c, 4, 65, 0
6, 7957, Note_on_c, 4, 69, 0
6, 7964, Note_on_c, 4, 72, 0
6, 7980, Note_on_c, 4, 72, 99
6, 7980, Note_on_c, 4, 69, 82
6, 7980, Note_on_c, 4, 65, 99
6, 8007, Note_on_c, 4, 65, 0
6, 8015, Note_on_c, 4, 69, 0
6, 8019, Note_on_c, 4, 72, 0
6, 8040, Note_on_c, 4, 72, 117
6, 8040, Note_on_c, 4, 69, 124
6, 8040, Note_on_c, 4, 65, 117
6, 8075, Note_on_c, 4, 65, 0
6, 8084, Note_on_c, 4, 69, 0
6, 8086, Note_on_c, 4, 72, 0
6, 8280, Note_on_c, 4, 69, 124
6, 8280, Note_on_c, 4, 72, 117
6, 8280, Note_on_c, 4, 65, 124
6, 8322, Note_on_c, 4, 69, 0
6, 8340, Note_on_c, 4, 69, 35
6, 8368, Note_on_c, 4, 65, 0
6, 8372, Note_on_c, 4, 72, 0
6, 8375, Note_on_c, 4, 69, 0
6, 8400, Note_on_c, 4, 65, 75
6, 8400, Note_on_c, 4, 69, 99
6, 8400, Note_on_c, 4, 72, 82
6, 8433, Note_on_c, 4, 65, 0
6, 8434, Note_on_c, 4, 72, 0
6, 8434, Note_on_c, 4, 69, 0
6, 8460, Note_on_c, 4, 65, 75
6, 8460, Note_on_c, 4, 69, 108
6, 8460, Note_on_c, 4, 72, 82
6, 8495, Note_on_c, 4, 65, 0
6, 8496, Note_on_c, 4, 72, 0
6, 8497, Note_on_c, 4, 69, 0
6, 8520, Note_on_c, 4, 65, 117
6, 8520, Note_on_c, 4, 69, 124
6, 8520, Note_on_c, 4, 72, 117
6, 8548, Note_on_c, 4, 65, 0
6, 8554, Note_on_c, 4, 69, 0
6, 8557, Note_on_c, 4, 72, 0
6, 8760, Note_on_c, 4, 69, 124
6, 8760, Note_on_c, 4, 65, 124
6, 8760, Note_on_c, 4, 72, 117
6, 8797, Note_on_c, 4, 72, 0
6, 8801, Note_on_c, 4, 69, 0
6, 8820, Note_on_c, 4, 69, 90
6, 8820, Note_on_c, 4, 72, 45
6, 8848, Note_on_c, 4, 65, 0
6, 8857, Note_on_c, 4, 72, 0
6, 8858, Note_on_c, 4, 69, 0
6, 8880, Note_on_c, 4, 69, 99
6, 8880, Note_on_c, 4, 72, 82
6, 8880, Note_on_c, 4, 65, 82
6, 8915, Note_on_c, 4, 65, 0
6, 8915, Note_on_c, 4, 72, 0
6, 8917, Note_on_c, 4, 69, 0
6, 8940, Note_on_c, 4, 65, 90
6, 8940, Note_on_c, 4, 72, 82
6, 8940, Note_on_c, 4, 69, 108
6, 8969, Note_on_c, 4, 65, 0
6, 8972, Note_on_c, 4, 69, 0
6, 8975, Note_on_c, 4, 72, 0
6, 9000, Note_on_c, 4, 65, 117
6, 9000, Note_on_c, 4, 72, 117
6, 9000, Note_on_c, 4, 69, 124
6, 9034, Note_on_c, 4, 65, 0
6, 9038, Note_on_c, 4, 69, 0
6, 9041, Note_on_c, 4, 72, 0
6, 9240, Note_on_c, 4, 72, 124
6, 9240, Note_on_c, 4, 65, 117
6, 9240, Note_on_c, 4, 69, 124
6, 9282, Note_on_c, 4, 69, 0
6, 9286, Note_on_c, 4, 65, 0
6, 9288, Note_on_c, 4, 72, 0
6, 9300, Note_on_c, 4, 65, 61
6, 9300, Note_on_c, 4, 69, 99
6, 9300, Note_on_c, 4, 72, 82
6, 9323, Note_on_c, 4, 72, 0
6, 9330, Note_on_c, 4, 65, 0
6, 9333, Note_on_c, 4, 69, 0
6, 9360, Note_on_c, 4, 65, 90
6, 9360, Note_on_c, 4, 69, 99
6, 9360, Note_on_c, 4, 72, 75
6, 9389, Note_on_c, 4, 65, 0
6, 9390, Note_on_c, 4, 72, 0
6, 9392, Note_on_c, 4, 69, 0
6, 9420, Note_on_c, 4, 72, 99
6, 9420, Note_on_c, 4, 69, 108
6, 9420, Note_on_c, 4, 65, 99
6, 9451, Note_on_c, 4, 65, 0
6, 9454, Note_on_c, 4, 69, 0
6, 9456, Note_on_c, 4, 72, 0
6, 9480, Note_on_c, 4, 65, 108
6, 9480, Note_on_c, 4, 72, 108
6, 9480, Note_on_c, 4, 69, 117
6, 9513, Note_on_c, 4, 65, 0
6, 9521, Note_on_c, 4, 69, 0
6, 9526, Note_on_c, 4, 72, 0
6, 9720, Note_on_c, 4, 72, 124
6, 9720, Note_on_c, 4, 69, 124
6, 9720, Note_on_c, 4, 65, 124
6, 9759, Note_on_c, 4, 69, 0
6, 9768, Note_on_c, 4, 72, 0
6, 9780, Note_on_c, 4, 72, 52
6, 9780, Note_on_c, 4, 69, 90
6, 9808, Note_on_c, 4, 65, 0
6, 9810, Note_on_c, 4, 69, 0
6, 9813, Note_on_c, 4, 72, 0
6, 9840, Note_on_c, 4, 72, 99
6, 9840, Note_on_c, 4, 65, 99
6, 9840, Note_on_c, 4, 69, 108
6, 9870, Note_on_c, 4, 69, 0
6, 9873, Note_on_c, 4, 65, 0
6, 9876, Note_on_c, 4, 72, 0
6, 9900, Note_on_c, 4, 72, 90
6, 9900, Note_on_c, 4, 69, 117
6, 9900, Note_on_c, 4, 65, 90
6, 9927, Note_on_c, 4, 65, 0
6, 9932, Note_on_c, 4, 69, 0
6, 9934, Note_on_c, 4, 72, 0
6, 9960, Note_on_c, 4, 72, 117
6, 9960, Note_on_c, 4, 69, 117
6, 9960, Note_on_c, 4, 65, 108
6, 9995, Note_on_c, 4, 65, 0
6, 10002, Note_on_c, 4, 69, 0
6, 10005, Note_on_c, 4, 72, 0
6, 10200, Note_on_c, 4, 68, 124
6, 10200, Note_on_c, 4, 65, 117
6, 10200, Note_on_c, 4, 74, 124
6, 10234, Note_on_c, 4, 65, 0
6, 10237, Note_on_c, 4, 68, 0
6, 10260, Note_on_c, 4, 65, 45
6, 10260, Note_on_c, 4, 68, 90
6, 10290, Note_on_c, 4, 65, 0
6, 10291, Note_on_c, 4, 68, 0
6, 10294, Note_on_c, 4, 74, 0
6, 10320, Note_on_c, 4, 68, 124
6, 10320, Note_on_c, 4, 74, 99
6, 10320, Note_on_c, 4, 65, 99
6, 10351, Note_on_c, 4, 65, 0
6, 10355, Note_on_c, 4, 68, 0
6, 10361, Note_on_c, 4, 74, 0
6, 10380, Note_on_c, 4, 74, 108
6, 10380, Note_on_c, 4, 68, 117
6, 10380, Note_on_c, 4, 65, 82
6, 10407, Note_on_c, 4, 65, 0
6, 10410, Note_on_c, 4, 68, 0
6, 10418, Note_on_c, 4, 74, 0
6, 10440, Note_on_c, 4, 74, 117
6, 10440, Note_on_c, 4, 68, 127
6, 10440, Note_on_c, 4, 65, 108
6, 10471, Note_on_c, 4, 65, 0
6, 10476, Note_on_c, 4, 68, 0
6, 10483, Note_on_c, 4, 74, 0
6, 10680, Note_on_c, 4, 74, 117
6, 10680, Note_on_c, 4, 68, 127
6, 10680, Note_on_c, 4, 65, 124
6, 10715, Note_on_c, 4, 65, 0
6, 10720, Note_on_c, 4, 68, 0
6, 10729, Note_on_c, 4, 74, 0
6, 10740, Note_on_c, 4, 68, 90
6, 10740, Note_on_c, 4, 74, 39
6, 10740, Note_on_c, 4, 65, 39
6, 10770, Note_on_c, 4, 65, 0
6, 10776, Note_on_c, 4, 68, 0
6, 10777, Note_on_c, 4, 74, 0
6, 10800, Note_on_c, 4, 74, 99
6, 10800, Note_on_c, 4, 68, 124
6, 10800, Note_on_c, 4, 65, 99
6, 10826, Note_on_c, 4, 65, 0
6, 10832, Note_on_c, 4, 68, 0
6, 10837, Note_on_c, 4, 74, 0
6, 10860, Note_on_c, 4, 74, 108
6, 10860, Note_on_c, 4, 68, 124
6, 10860, Note_on_c, 4, 65, 90
6, 10891, Note_on_c, 4, 65, 0
6, 10896, Note_on_c, 4, 68, 0
6, 10901, Note_on_c, 4, 74, 0
6, 10920, Note_on_c, 4, 74, 117
6, 10920, Note_on_c, 4, 68, 127
6, 10920, Note_on_c, 4, 65, 117
6, 10954, Note_on_c, 4, 65, 0
6, 10965, Note_on_c, 4, 68, 0
6, 10972, Note_on_c, 4, 74, 0
6, 11160, Note_on_c, 4, 69, 117
6, 11160, Note_on_c, 4, 65, 117
6, 11160, Note_on_c, 4, 72, 117
6, 11194, Note_on_c, 4, 65, 0
6, 11197, Note_on_c, 4, 69, 0
6, 11202, Note_on_c, 4, 72, 0
6, 11220, Note_on_c, 4, 69, 99
6, 11220, Note_on_c, 4, 72, 90
6, 11220, Note_on_c, 4, 65, 75
6, 11245, Note_on_c, 4, 65, 0
6, 11255, Note_on_c, 4, 69, 0
6, 11257, Note_on_c, 4, 72, 0
6, 11280, Note_on_c, 4, 69, 90
6, 11280, Note_on_c, 4, 72, 99
6, 11280, Note_on_c, 4, 65, 99
6, 11311, Note_on_c, 4, 65, 0
6, 11316, Note_on_c, 4, 69, 0
6, 11319, Note_on_c, 4, 72, 0
6, 11340, Note_on_c, 4, 69, 90
6, 11340, Note_on_c, 4, 72, 108
6, 11340, Note_on_c, 4, 65, 99
6, 11370, Note_on_c, 4, 65, 0
6, 11376, Note_on_c, 4, 69, 0
6, 11379, Note_on_c, 4, 72, 0
6, 11400, Note_on_c, 4, 72, 99
6, 11400, Note_on_c, 4, 69, 108
6, 11400, Note_on_c, 4, 65, 117
6, 11436, Note_on_c, 4, 65, 0
6, 11445, Note_on_c, 4, 69, 0
6, 11453, Note_on_c, 4, 72, 0
6, 11640, Note_on_c, 4, 69, 117
6, 11640, Note_on_c, 4, 65, 124
6, 11640, Note_on_c, 4, 72, 117
6, 11677, Note_on_c, 4, 65, 0
6, 11681, Note_on_c, 4, 72, 0
6, 11684, Note_on_c, 4, 69, 0
6, 11700, Note_on_c, 4, 69, 108
6, 11700, Note_on_c, 4, 72, 99
6, 11700, Note_on_c, 4, 65, 99
6, 11729, Note_on_c, 4, 65, 0
6, 11736, Note_on_c, 4, 69, 0
6, 11737, Note_on_c, 4, 72, 0
6, 11760, Note_on_c, 4, 69, 82
6, 11760, Note_on_c, 4, 72, 99
6, 11760, Note_on_c, 4, 65, 108
6, 11791, Note_on_c, 4, 65, 0
6, 11797, Note_on_c, 4, 69, 0
6, 11799, Note_on_c, 4, 72, 0
6, 11820, Note_on_c, 4, 69, 99
6, 11820, Note_on_c, 4, 72, 90
6, 11820, Note_on_c, 4, 65, 99
6, 11851, Note_on_c, 4, 65, 0
6, 11855, Note_on_c, 4, 72, 0
6, 11856, Note_on_c, 4, 69, 0
6, 11880, Note_on_c, 4, 69, 99
6, 11880, Note_on_c, 4, 72, 99
6, 11880, Note_on_c, 4, 65, 108
6, 11918, Note_on_c, 4, 65, 0
6, 11928, Note_on_c, 4, 69, 0
6, 11932, Note_on_c, 4, 72, 0
6, 12120, Note_on_c, 4, 76, 108
6, 12120, Note_on_c, 4, 70, 127
6, 12120, Note_on_c, 4, 67, 108
6, 12148, Note_on_c, 4, 67, 0
6, 12157, Note_on_c, 4, 70, 0
6, 12163, Note_on_c, 4, 76, 0
6, 12180, Note_on_c, 4, 76, 82
6, 12180, Note_on_c, 4, 70, 108
6, 12180, Note_on_c, 4, 67, 75
6, 12207, Note_on_c, 4, 67, 0
6, 12212, Note_on_c, 4, 70, 0
6, 12214, Note_on_c, 4, 76, 0
6, 12240, Note_on_c, 4, 70, 127
6, 12240, Note_on_c, 4, 67, 117
6, 12240, Note_on_c, 4, 76, 108
6, 12268, Note_on_c, 4, 67, 0
6, 12270, Note_on_c, 4, 70, 0
6, 12274, Note_on_c, 4, 76, 0
6, 12300, Note_on_c, 4, 76, 99
6, 12300, Note_on_c, 4, 70, 124
6, 12300, Note_on_c, 4, 67, 90
6, 12329, Note_on_c, 4, 67, 0
6, 12332, Note_on_c, 4, 70, 0
6, 12337, Note_on_c, 4, 76, 0
6, 12360, Note_on_c, 4, 76, 117
6, 12360, Note_on_c, 4, 70, 127
6, 12360, Note_on_c, 4, 67, 117
6, 12396, Note_on_c, 4, 67, 0
6, 12405, Note_on_c, 4, 70, 0
6, 12405, Note_on_c, 4, 76, 0
6, 12600, Note_on_c, 4, 65, 117
6, 12600, Note_on_c, 4, 68, 127
6, 12600, Note_on_c, 4, 74, 124
6, 12627, Note_on_c, 4, 68, 0
6, 12627, Note_on_c, 4, 65, 0
6, 12637, Note_on_c, 4, 74, 0
6, 12660, Note_on_c, 4, 74, 99
6, 12660, Note_on_c, 4, 68, 124
6, 12660, Note_on_c, 4, 65, 82
6, 12685, Note_on_c, 4, 65, 0
6, 12687, Note_on_c, 4, 68, 0
6, 12692, Note_on_c, 4, 74, 0
6, 12720, Note_on_c, 4, 74, 99
6, 12720, Note_on_c, 4, 68, 124
6, 12720, Note_on_c, 4, 65, 99
6, 12746, Note_on_c, 4, 65, 0
6, 12750, Note_on_c, 4, 68, 0
6, 12755, Note_on_c, 4, 74, 0
6, 12780, Note_on_c, 4, 74, 99
6, 12780, Note_on_c, 4, 68, 117
6, 12780, Note_on_c, 4, 65, 82
6, 12805, Note_on_c, 4, 65, 0
6, 12806, Note_on_c, 4, 68, 0
6, 12810, Note_on_c, 4, 74, 0
6, 12840, Note_on_c, 4, 74, 117
6, 12840, Note_on_c, 4, 68, 127
6, 12840, Note_on_c, 4, 65, 124
6, 12872, Note_on_c, 4, 65, 0
6, 12883, Note_on_c, 4, 68, 0
6, 12883, Note_on_c, 4, 74, 0
6, 13080, Note_on_c, 4, 65, 117
6, 13080, Note_on_c, 4, 72, 117
6, 13080, Note_on_c, 4, 69, 124
6, 13109, Note_on_c, 4, 65, 0
6, 13110, Note_on_c, 4, 69, 0
6, 13117, Note_on_c, 4, 72, 0
6, 13140, Note_on_c, 4, 69, 99
6, 13140, Note_on_c, 4, 72, 108
6, 13140, Note_on_c, 4, 65, 75
6, 13172, Note_on_c, 4, 65, 0
6, 13178, Note_on_c, 4, 69, 0
6, 13181, Note_on_c, 4, 72, 0
6, 13200, Note_on_c, 4, 69, 75
6, 13200, Note_on_c, 4, 72, 99
6, 13200, Note_on_c, 4, 65, 75
6, 13232, Note_on_c, 4, 65, 0
6, 13239, Note_on_c, 4, 72, 0
6, 13239, Note_on_c, 4, 69, 0
6, 13260, Note_on_c, 4, 69, 99
6, 13260, Note_on_c, 4, 72, 117
6, 13260, Note_on_c, 4, 65, 90
6, 13287, Note_on_c, 4, 65, 0
6, 13292, Note_on_c, 4, 69, 0
6, 13295, Note_on_c, 4, 72, 0
6, 13320, Note_on_c, 4, 72, 108
6, 13320, Note_on_c, 4, 69, 99
6, 13320, Note_on_c, 4, 65, 117
6, 13354, Note_on_c, 4, 65, 0
6, 13363, Note_on_c, 4, 69, 0
6, 13367, Note_on_c, 4, 72, 0
6, 13560, Note_on_c, 4, 69, 108
6, 13560, Note_on_c, 4, 65, 117
6, 13560, Note_on_c, 4, 72, 108
6, 13591, Note_on_c, 4, 65, 0
6, 13599, Note_on_c, 4, 69, 0
6, 13603, Note_on_c, 4, 72, 0
6, 13620, Note_on_c, 4, 72, 90
6, 13620, Note_on_c, 4, 69, 82
6, 13620, Note_on_c, 4, 65, 99
6, 13649, Note_on_c, 4, 65, 0
6, 13657, Note_on_c, 4, 69, 0
6, 13664, Note_on_c, 4, 72, 0
6, 13680, Note_on_c, 4, 72, 90
6, 13680, Note_on_c, 4, 69, 82
6, 13680, Note_on_c, 4, 65, 90
6, 13709, Note_on_c, 4, 65, 0
6, 13717, Note_on_c, 4, 69, 0
6, 13724, Note_on_c, 4, 72, 0
6, 13740, Note_on_c, 4, 72, 99
6, 13740, Note_on_c, 4, 69, 82
6, 13740, Note_on_c, 4, 65, 99
6, 13767, Note_on_c, 4, 65, 0
6, 13775, Note_on_c, 4, 69, 0
6, 13779, Note_on_c, 4, 72, 0
6, 13800, Note_on_c, 4, 72, 117
6, 13800, Note_on_c, 4, 69, 124
6, 13800, Note_on_c, 4, 65, 117
6, 13835, Note_on_c, 4, 65, 0
6, 13844, Note_on_c, 4, 69, 0
6, 13846, Note_on_c, 4, 72, 0
6, 14040, Note_on_c, 4, 69, 124
6, 14040, Note_on_c, 4, 72, 117
6, 14040, Note_on_c, 4, 65, 124
6, 14082, Note_on_c, 4, 69, 0
6, 14100, Note_on_c, 4, 69, 35
6, 14128, Note_on_c, 4, 65, 0
6, 14132, Note_on_c, 4, 72, 0
6, 14135, Note_on_c, 4, 69, 0
6, 14160, Note_on_c, 4, 65, 75
6, 14160, Note_on_c, 4, 69, 99
6, 14160, Note_on_c, 4, 72, 82
6, 14193, Note_on_c, 4, 65, 0
6, 14194, Note_on_c, 4, 72, 0
6, 14194, Note_on_c, 4, 69, 0
6, 14220, Note_on_c, 4, 65, 75
6, 14220, Note_on_c, 4, 69, 108
6, 14220, Note_on_c, 4, 72, 82
6, 14255, Note_on_c, 4, 65, 0
6, 14256, Note_on_c, 4, 72, 0
6, 14257, Note_on_c, 4, 69, 0
6, 14280, Note_on_c, 4, 65, 117
6, 14280, Note_on_c, 4, 69, 124
6, 14280, Note_on_c, 4, 72, 117
6, 14308, Note_on_c, 4, 65, 0
6, 14314, Note_on_c, 4, 69, 0
6, 14317, Note_on_c, 4, 72, 0
6, 14520, Note_on_c, 4, 69, 124
6, 14520, Note_on_c, 4, 65, 124
6, 14520, Note_on_c, 4, 72, 117
6, 14557, Note_on_c, 4, 72, 0
6, 14561, Note_on_c, 4, 69, 0
6, 14580, Note_on_c, 4, 69, 90
6, 14580, Note_on_c, 4, 72, 45
6, 14608, Note_on_c, 4, 65, 0
6, 14617, Note_on_c, 4, 72, 0
6, 14618, Note_on_c, 4, 69, 0
6, 14640, Note_on_c, 4, 69, 99
6, 14640, Note_on_c, 4, 72, 82
6, 14640, Note_on_c, 4, 65, 82
6, 14675, Note_on_c, 4, 65, 0
6, 14675, Note_on_c, 4, 72, 0
6, 14677, Note_on_c, 4, 69, 0
6, 14700, Note_on_c, 4, 65, 90
6, 14700, Note_on_c, 4, 72, 82
6, 14700, Note_on_c, 4, 69, 108
6, 14729, Note_on_c, 4, 65, 0
6, 14732, Note_on_c, 4, 69, 0
6, 14735, Note_on_c, 4, 72, 0
6, 14760, Note_on_c, 4, 65, 117
6, 14760, Note_on_c, 4, 72, 117
6, 14760, Note_on_c, 4, 69, 124
6, 14794, Note_on_c, 4, 65, 0
6, 14798, Note_on_c, 4, 69, 0
6, 14801, Note_on_c, 4, 72, 0
6, 15000, Note_on_c, 4, 72, 124
6, 15000, Note_on_c, 4, 65, 117
6, 15000, Note_on_c, 4, 69, 124
6, 15042, Note_on_c, 4, 69, 0
6, 15046, Note_on_c, 4, 65, 0
6, 15048, Note_on_c, 4, 72, 0
6, 15060, Note_on_c, 4, 65, 61
6, 15060, Note_on_c, 4, 69, 99
6, 15060, Note_on_c, 4, 72, 82
6, 15083, Note_on_c, 4, 72, 0
6, 15090, Note_on_c, 4, 65, 0
6, 15093, Note_on_c, 4, 69, 0
6, 15120, Note_on_c, 4, 65, 90
6, 15120, Note_on_c, 4, 69, 99
6, 15120, Note_on_c, 4, 72, 75
6, 15149, Note_on_c, 4, 65, 0
6, 15150, Note_on_c, 4, 72, 0
6, 15152, Note_on_c, 4, 69, 0
6, 15180, Note_on_c, 4, 72, 99
6, 15180, Note_on_c, 4, 69, 108
6, 15180, Note_on_c, 4, 65, 99
6, 15211, Note_on_c, 4, 65, 0
6, 15214, Note_on_c, 4, 69, 0
6, 15216, Note_on_c, 4, 72, 0
6, 15240, Note_on_c, 4, 65, 108
6, 15240, Note_on_c, 4, 72, 108
6, 15240, Note_on_c, 4, 69, 117
6, 15273, Note_on_c, 4, 65, 0
6, 15281, Note_on_c, 4, 69, 0
6, 15286, Note_on_c, 4, 72, 0
6, 15480, Note_on_c, 4, 72, 124
6, 15480, Note_on_c, 4, 69, 124
6, 15480, Note_on_c, 4, 65, 124
6, 15519, Note_on_c, 4, 69, 0
6, 15528, Note_on_c, 4, 72, 0
6, 15540, Note_on_c, 4, 72, 52
6, 15540, Note_on_c, 4, 69, 90
6, 15568, Note_on_c, 4, 65, 0
6, 15570, Note_on_c, 4, 69, 0
6, 15573, Note_on_c, 4, 72, 0
6, 15600, Note_on_c, 4, 72, 99
6, 15600, Note_on_c, 4, 65, 99
6, 15600, Note_on_c, 4, 69, 108
6, 15630, Note_on_c, 4, 69, 0
6, 15633, Note_on_c, 4, 65, 0
6, 15636, Note_on_c, 4, 72, 0
6, 15660, Note_on_c, 4, 72, 90
6, 15660, Note_on_c, 4, 69, 117
6, 15660, Note_on_c, 4, 65, 90
6, 15687, Note_on_c, 4, 65, 0
6, 15692, Note_on_c, 4, 69, 0
6, 15694, Note_on_c, 4, 72, 0
6, 15720, Note_on_c, 4, 72, 117
6, 15720, Note_on_c, 4, 69, 117
6, 15720, Note_on_c, 4, 65, 108
6, 15755, Note_on_c, 4, 65, 0
6, 15762, Note_on_c, 4, 69, 0
6, 15765, Note_on_c, 4, 72, 0
6, 15960, Note_on_c, 4, 68, 124
6, 15960, Note_on_c, 4, 65, 117
6, 15960, Note_on_c, 4, 74, 124
6, 15994, Note_on_c, 4, 65, 0
6, 15997, Note_on_c, 4, 68, 0
6, 16020, Note_on_c, 4, 65, 45
6, 16020, Note_on_c, 4, 68, 90
6, 16050, Note_on_c, 4, 65, 0
6, 16051, Note_on_c, 4, 68, 0
6, 16054, Note_on_c, 4, 74, 0
6, 16080, Note_on_c, 4, 68, 124
6, 16080, Note_on_c, 4, 74, 99
6, 16080, Note_on_c, 4, 65, 99
6, 16111, Note_on_c, 4, 65, 0
6, 16115, Note_on_c, 4, 68, 0
6, 16121, Note_on_c, 4, 74, 0
6, 16140, Note_on_c, 4, 74, 108
6, 16140, Note_on_c, 4, 68, 117
6, 16140, Note_on_c, 4, 65, 82
6, 16167, Note_on_c, 4, 65, 0
6, 16170, Note_on_c, 4, 68, 0
6, 16178, Note_on_c, 4, 74, 0
6, 16200, Note_on_c, 4, 74, 117
6, 16200, Note_on_c, 4, 68, 127
6, 16200, Note_on_c, 4, 65, 108
6, 16231, Note_on_c, 4, 65, 0
6, 16236, Note_on_c, 4, 68, 0
6, 16243, Note_on_c, 4, 74, 0
6, 16440, Note_on_c, 4, 74, 117
6, 16440, Note_on_c, 4, 68, 127
6, 16440, Note_on_c, 4, 65, 124
6, 16475, Note_on_c, 4, 65, 0
6, 16480, Note_on_c, 4, 68, 0
6, 16489, Note_on_c, 4, 74, 0
6, 16500, Note_on_c, 4, 68, 90
6, 16500, Note_on_c, 4, 74, 39
6, 16500, Note_on_c, 4, 65, 39
6, 16530, Note_on_c, 4, 65, 0
6, 16536, Note_on_c, 4, 68, 0
6, 16537, Note_on_c, 4, 74, 0
6, 16560, Note_on_c, 4, 74, 99
6, 16560, Note_on_c, 4, 68, 124
6, 16560, Note_on_c, 4, 65, 99
6, 16586, Note_on_c, 4, 65, 0
6, 16592, Note_on_c, 4, 68, 0
6, 16597, Note_on_c, 4, 74, 0
6, 16620, Note_on_c, 4, 74, 108
6, 16620, Note_on_c, 4, 68, 124
6, 16620, Note_on_c, 4, 65, 90
6, 16651, Note_on_c, 4, 65, 0
6, 16656, Note_on_c, 4, 68, 0
6, 16661, Note_on_c, 4, 74, 0
6, 16680, Note_on_c, 4, 74, 117
6, 16680, Note_on_c, 4, 68, 127
6, 16680, Note_on_c, 4, 65, 117
6, 16714, Note_on_c, 4, 65, 0
6, 16725, Note_on_c, 4, 68, 0
6, 16732, Note_on_c, 4, 74, 0
6, 16920, Note_on_c, 4, 69, 117
6, 16920, Note_on_c, 4, 65, 117
6, 16920, Note_on_c, 4, 72, 117
6, 16954, Note_on_c, 4, 65, 0
6, 16957, Note_on_c, 4, 69, 0
6, 16962, Note_on_c, 4, 72, 0
6, 16980, Note_on_c, 4, 69, 99
6, 16980, Note_on_c, 4, 72, 90
6, 16980, Note_on_c, 4, 65, 75
6, 17005, Note_on_c, 4, 65, 0
6, 17015, Note_on_c, 4, 69, 0
6, 17017, Note_on_c, 4, 72, 0
6, 17040, Note_on_c, 4, 69, 90
6, 17040, Note_on_c, 4, 72, 99
6, 17040, Note_on_c, 4, 65, 99
6, 17071, Note_on_c, 4, 65, 0
6, 17076, Note_on_c, 4, 69, 0
6, 17079, Note_on_c, 4, 72, 0
6, 17100, Note_on_c, 4, 69, 90
6, 17100, Note_on_c, 4, 72, 108
6, 17100, Note_on_c, 4, 65, 99
6, 17130, Note_on_c, 4, 65, 0
6, 17136, Note_on_c, 4, 69, 0
6, 17139, Note_on_c, 4, 72, 0
6, 17160, Note_on_c, 4, 72, 99
6, 17160, Note_on_c, 4, 69, 108
6, 17160, Note_on_c, 4, 65, 117
6, 17196, Note_on_c, 4, 65, 0
6, 17205, Note_on_c, 4, 69, 0
6, 17213, Note_on_c, 4, 72, 0
6, 17400, Note_on_c, 4, 69, 117
6, 17400, Note_on_c, 4, 65, 124
6, 17400, Note_on_c, 4, 72, 117
6, 17437, Note_on_c, 4, 65, 0
6, 17441, Note_on_c, 4, 72, 0
6, 17444, Note_on_c, 4, 69, 0
6, 17460, Note_on_c, 4, 69, 108
6, 17460, Note_on_c, 4, 72, 99
6, 17460, Note_on_c, 4, 65, 99
6, 17489, Note_on_c, 4, 65, 0
6, 17496, Note_on_c, 4, 69, 0
6, 17497, Note_on_c, 4, 72, 0
6, 17520, Note_on_c, 4, 69, 82
6, 17520, Note_on_c, 4, 72, 99
6, 17520, Note_on_c, 4, 65, 108
6, 17551, Note_on_c, 4, 65, 0
6, 17557, Note_on_c, 4, 69, 0
6, 17559, Note_on_c, 4, 72, 0
6, 17580, Note_on_c, 4, 69, 99
6, 17580, Note_on_c, 4, 72, 90
6, 17580, Note_on_c, 4, 65, 99
6, 17611, Note_on_c, 4, 65, 0
6, 17615, Note_on_c, 4, 72, 0
6, 17616, Note_on_c, 4, 69, 0
6, 17640, Note_on_c, 4, 69, 99
6, 17640, Note_on_c, 4, 72, 99
6, 17640, Note_on_c, 4, 65, 108
6, 17678, Note_on_c, 4, 65, 0
6, 17688, Note_on_c, 4, 69, 0
6, 17692, Note_on_c, 4, 72, 0
6, 17880, Note_on_c, 4, 76, 108
6, 17880, Note_on_c, 4, 70, 127
6, 17880, Note_on_c, 4, 67, 108
6, 17908, Note_on_c, 4, 67, 0
6, 17917, Note_on_c, 4, 70, 0
6, 17923, Note_on_c, 4, 76, 0
6, 17940, Note_on_c, 4, 76, 82
6, 17940, Note_on_c, 4, 70, 108
6, 17940, Note_on_c, 4, 67, 75
6, 17967, Note_on_c, 4, 67, 0
6, 17972, Note_on_c, 4, 70, 0
6, 17974, Note_on_c, 4, 76, 0
6, 18000, Note_on_c, 4, 70, 127
6, 18000, Note_on_c, 4, 67, 117
6, 18000, Note_on_c, 4, 76, 108
6, 18028, Note_on_c, 4, 67, 0
6, 18030, Note_on_c, 4, 70, 0
6, 18034, Note_on_c, 4, 76, 0
6, 18060, Note_on_c, 4, 76, 99
6, 18060, Note_on_c, 4, 70, 124
6, 18060, Note_on_c, 4, 67, 90
6, 18089, Note_on_c, 4, 67, 0
6, 18092, Note_on_c, 4, 70, 0
6, 18097, Note_on_c, 4, 76, 0
6, 18120, Note_on_c, 4, 76, 117
6, 18120, Note_on_c, 4, 70, 127
6, 18120, Note_on_c, 4, 67, 117
6, 18156, Note_on_c, 4, 67, 0
6, 18165, Note_on_c, 4, 70, 0
6, 18165, Note_on_c, 4, 76, 0
6, 18360, Note_on_c, 4, 65, 117
6, 18360, Note_on_c, 4, 68, 127
6, 18360, Note_on_c, 4, 74, 124
6, 18387, Note_on_c, 4, 68, 0
6, 18387, Note_on_c, 4, 65, 0
6, 18397, Note_on_c, 4, 74, 0
6, 18420, Note_on_c, 4, 74, 99
6, 18420, Note_on_c, 4, 68, 124
6, 18420, Note_on_c, 4, 65, 82
6, 18445, Note_on_c, 4, 65, 0
6, 18447, Note_on_c, 4, 68, 0
6, 18452, Note_on_c, 4, 74, 0
6, 18480, Note_on_c, 4, 74, 99
6, 18480, Note_on_c, 4, 68, 124
6, 18480, Note_on_c, 4, 65, 99
6, 18506, Note_on_c, 4, 65, 0
6, 18510, Note_on_c, 4, 68, 0
6, 18515, Note_on_c, 4, 74, 0
6, 18540, Note_on_c, 4, 74, 99
6, 18540, Note_on_c, 4, 68, 117
6, 18540, Note_on_c, 4, 65, 82
6, 18565, Note_on_c, 4, 65, 0
6, 18566, Note_on_c, 4, 68, 0
6, 18570, Note_on_c, 4, 74, 0
6, 18600, Note_on_c, 4, 74, 117
6, 18600, Note_on_c, 4, 68, 127
6, 18600, Note_on_c, 4, 65, 124
6, 18632, Note_on_c, 4, 65, 0
6, 18643, Note_on_c, 4, 68, 0
6, 18643, Note_on_c, 4, 74, 0
6, 18840, Note_on_c, 4, 65, 117
6, 18840, Note_on_c, 4, 72, 117
6, 18840, Note_on_c, 4, 69, 124
6, 18869, Note_on_c, 4, 65, 0
6, 18870, Note_on_c, 4, 69, 0
6, 18877, Note_on_c, 4, 72, 0
6, 18900, Note_on_c, 4, 69, 99
6, 18900, Note_on_c, 4, 72, 108
6, 18900, Note_on_c, 4, 65, 75
6, 18932, Note_on_c, 4, 65, 0
6, 18938, Note_on_c, 4, 69, 0
6, 18941, Note_on_c, 4, 72, 0
6, 18960, Note_on_c, 4, 69, 75
6, 18960, Note_on_c, 4, 72, 99
6, 18960, Note_on_c, 4, 65, 75
6, 18992, Note_on_c, 4, 65, 0
6, 18999, Note_on_c, 4, 72, 0
6, 18999, Note_on_c, 4, 69, 0
6, 19020, Note_on_c, 4, 69, 99
6, 19020, Note_on_c, 4, 72, 117
6, 19020, Note_on_c, 4, 65, 90
6, 19047, Note_on_c, 4, 65, 0
6, 19052, Note_on_c, 4, 69, 0
6, 19055, Note_on_c, 4, 72, 0
6, 19080, Note_on_c, 4, 72, 108
6, 19080, Note_on_c, 4, 69, 99
6, 19080, Note_on_c, 4, 65, 117
6, 19114, Note_on_c, 4, 65, 0
6, 19123, Note_on_c, 4, 69, 0
6, 19127, Note_on_c, 4, 72, 0
6, 19320, Note_on_c, 4, 69, 108
6, 19320, Note_on_c, 4, 65, 117
6, 19320, Note_on_c, 4, 72, 108
6, 19351, Note_on_c, 4, 65, 0
6, 19359, Note_on_c, 4, 69, 0
6, 19363, Note_on_c, 4, 72, 0
6, 19380, Note_on_c, 4, 72, 90
6, 19380, Note_on_c, 4, 69, 82
6, 19380, Note_on_c, 4, 65, 99
6, 19409, Note_on_c, 4, 65, 0
6, 19417, Note_on_c, 4, 69, 0
6, 19424, Note_on_c, 4, 72, 0
6, 19440, Note_on_c, 4, 72, 90
6, 19440, Note_on_c, 4, 69, 82
6, 19440, Note_on_c, 4, 65, 90
6, 19469, Note_on_c, 4, 65, 0
6, 19477, Note_on_c, 4, 69, 0
6, 19484, Note_on_c, 4, 72, 0
6, 19500, Note_on_c, 4, 72, 99
6, 19500, Note_on_c, 4, 69, 82
6, 19500, Note_on_c, 4, 65, 99
6, 19527, Note_on_c, 4, 65, 0
6, 19535, Note_on_c, 4, 69, 0
6, 19539, Note_on_c, 4, 72, 0
6, 19560, Note_on_c, 4, 72, 117
6, 19560, Note_on_c, 4, 69, 124
6, 19560, Note_on_c, 4, 65, 117
6, 19595, Note_on_c, 4, 65, 0
6, 19604, Note_on_c, 4, 69, 0
6, 19606, Note_on_c, 4, 72, 0
6, 19800, Note_on_c, 4, 69, 124
6, 19800, Note_on_c, 4, 72, 117
6, 19800, Note_on_c, 4, 65, 124
6, 19842, Note_on_c, 4, 69, 0
6, 19860, Note_on_c, 4, 69, 35
6, 19888, Note_on_c, 4, 65, 0
6, 19892, Note_on_c, 4, 72, 0
6, 19895, Note_on_c, 4, 69, 0
6, 19920, Note_on_c, 4, 65, 75
6, 19920, Note_on_c, 4, 69, 99
6, 19920, Note_on_c, 4, 72, 82
6, 19953, Note_on_c, 4, 65, 0
6, 19954, Note_on_c, 4, 72, 0
6, 19954, Note_on_c, 4, 69, 0
6, 19980, Note_on_c, 4, 65, 75
6, 19980, Note_on_c, 4, 69, 108
6, 19980, Note_on_c, 4, 72, 82
6, 20015, Note_on_c, 4, 65, 0
6, 20016, Note_on_c, 4, 72, 0
6, 20017, Note_on_c, 4, 69, 0
6, 20040, Note_on_c, 4, 65, 117
6, 20040, Note_on_c, 4, 69, 124
6, 20040, Note_on_c, 4, 72, 117
6, 20068, Note_on_c, 4, 65, 0
6, 20074, Note_on_c, 4, 69, 0
6, 20077, Note_on_c, 4, 72, 0
6, 20280, Note_on_c, 4, 69, 124
6, 20280, Note_on_c, 4, 65, 124
6, 20280, Note_on_c, 4, 72, 117
6, 20317, Note_on_c, 4, 72, 0
6, 20321, Note_on_c, 4, 69, 0
6, 20340, Note_on_c, 4, 69, 90
6, 20340, Note_on_c, 4, 72, 45
6, 20368, Note_on_c, 4, 65, 0
6, 20377, Note_on_c, 4, 72, 0
6, 20378, Note_on_c, 4, 69, 0
6, 20400, Note_on_c, 4, 69, 99
6, 20400, Note_on_c, 4, 72, 82
6, 20400, Note_on_c, 4, 65, 82
6, 20435, Note_on_c, 4, 65, 0
6, 20435, Note_on_c, 4, 72, 0
6, 20437, Note_on_c, 4, 69, 0
6, 20460, Note_on_c, 4, 65, 90
6, 20460, Note_on_c, 4, 72, 82
6, 20460, Note_on_c, 4, 69, 108
6, 20489, Note_on_c, 4, 65, 0
6, 20492, Note_on_c, 4, 69, 0
6, 20495, Note_on_c, 4, 72, 0
6, 20520, Note_on_c, 4, 65, 117
6, 20520, Note_on_c, 4, 72, 117
6, 20520, Note_on_c, 4, 69, 124
6, 20554, Note_on_c, 4, 65, 0
6, 20558, Note_on_c, 4, 69, 0
6, 20561, Note_on_c, 4, 72, 0
6, 20760, Note_on_c, 4, 72, 124
6, 20760, Note_on_c, 4, 65, 117
6, 20760, Note_on_c, 4, 69, 124
6, 20802, Note_on_c, 4, 69, 0
6, 20806, Note_on_c, 4, 65, 0
6, 20808, Note_on_c, 4, 72, 0
6, 20820, Note_on_c, 4, 65, 61
6, 20820, Note_on_c, 4, 69, 99
6, 20820, Note_on_c, 4, 72, 82
6, 20843, Note_on_c, 4, 72, 0
6, 20850, Note_on_c, 4, 65, 0
6, 20853, Note_on_c, 4, 69, 0
6, 20880, Note_on_c, 4, 65, 90
6, 20880, Note_on_c, 4, 69, 99
6, 20880, Note_on_c, 4, 72, 75
6, 20909, Note_on_c, 4, 65, 0
6, 20910, Note_on_c, 4, 72, 0
6, 20912, Note_on_c, 4, 69, 0
6, 20940, Note_on_c, 4, 72, 99
6, 20940, Note_on_c, 4, 69, 108
6, 20940, Note_on_c, 4, 65, 99
6, 20971, Note_on_c, 4, 65, 0
6, 20974, Note_on_c, 4, 69, 0
6, 20976, Note_on_c, 4, 72, 0
6, 21000, Note_on_c, 4, 65, 108
6, 21000, Note_on_c, 4, 72, 108
6, 21000, Note_on_c, 4, 69, 117
6, 21033, Note_on_c, 4, 65, 0
6, 21041, Note_on_c, 4, 69, 0
6, 21046, Note_on_c, 4, 72, 0
6, 21240, Note_on_c, 4, 72, 124
6, 21240, Note_on_c, 4, 69, 124
6, 21240, Note_on_c, 4, 65, 124
6, 21279, Note_on_c, 4, 69, 0
6, 21288, Note_on_c, 4, 72, 0
6, 21300, Note_on_c, 4, 72, 52
6, 21300, Note_on_c, 4, 69, 90
6, 21328, Note_on_c, 4, 65, 0
6, 21330, Note_on_c, 4, 69, 0
6, 21333, Note_on_c, 4, 72, 0
6, 21360, Note_on_c, 4, 72, 99
6, 21360, Note_on_c, 4, 65, 99
6, 21360, Note_on_c, 4, 69, 108
6, 21390, Note_on_c, 4, 69, 0
6, 21393, Note_on_c, 4, 65, 0
6, 21396, Note_on_c, 4, 72, 0
6, 21420, Note_on_c, 4, 72, 90
6, 21420, Note_on_c, 4, 69, 117
6, 21420, Note_on_c, 4, 65, 90
6, 21447, Note_on_c, 4, 65, 0
6, 21452, Note_on_c, 4, 69, 0
6, 21454, Note_on_c, 4, 72, 0
6, 21480, Note_on_c, 4, 72, 117
6, 21480, Note_on_c, 4, 69, 117
6, 21480, Note_on_c, 4, 65, 108
6, 21515, Note_on_c, 4, 65, 0
6, 21522, Note_on_c, 4, 69, 0
6, 21525, Note_on_c, 4, 72, 0
6, 21720, Note_on_c, 4, 68, 124
6, 21720, Note_on_c, 4, 65, 117
6, 21720, Note_on_c, 4, 74, 124
6, 21754, Note_on_c, 4, 65, 0
6, 21757, Note_on_c, 4, 68, 0
6, 21780, Note_on_c, 4, 65, 45
6, 21780, Note_on_c, 4, 68, 90
6, 21810, Note_on_c, 4, 65, 0
6, 21811, Note_on_c, 4, 68, 0
6, 21814, Note_on_c, 4, 74, 0
6, 21840, Note_on_c, 4, 68, 124
6, 21840, Note_on_c, 4, 74, 99
6, 21840, Note_on_c, 4, 65, 99
6, 21871, Note_on_c, 4, 65, 0
6, 21875, Note_on_c, 4, 68, 0
6, 21881, Note_on_c, 4, 74, 0
6, 21900, Note_on_c, 4, 74, 108
6, 21900, Note_on_c, 4, 68, 117
6, 21900, Note_on_c, 4, 65, 82
6, 21927, Note_on_c, 4, 65, 0
6, 21930, Note_on_c, 4, 68, 0
6, 21938, Note_on_c, 4, 74, 0
6, 21960, Note_on_c, 4, 74, 117
6, 21960, Note_on_c, 4, 68, 127
6, 21960, Note_on_c, 4, 65, 108
6, 21991, Note_on_c, 4, 65, 0
6, 21996, Note_on_c, 4, 68, 0
6, 22003, Note_on_c, 4, 74, 0
6, 22200, Note_on_c, 4, 74, 117
6, 22200, Note_on_c, 4, 68, 127
6, 22200, Note_on_c, 4, 65, 124
6, 22235, Note_on_c, 4, 65, 0
6, 22240, Note_on_c, 4, 68, 0
6, 22249, Note_on_c, 4, 74, 0
6, 22260, Note_on_c, 4, 68, 90
6, 22260, Note_on_c, 4, 74, 39
6, 22260, Note_on_c, 4, 65, 39
6, 22290, Note_on_c, 4, 65, 0
6, 22296, Note_on_c, 4, 68, 0
6, 22297, Note_on_c, 4, 74, 0
6, 22320, Note_on_c, 4, 74, 99
6, 22320, Note_on_c, 4, 68, 124
6, 22320, Note_on_c, 4, 65, 99
6, 22346, Note_on_c, 4, 65, 0
6, 22352, Note_on_c, 4, 68, 0
6, 22357, Note_on_c, 4, 74, 0
6, 22380, Note_on_c, 4, 74, 108
6, 22380, Note_on_c, 4, 68, 124
6, 22380, Note_on_c, 4, 65, 90
6, 22411, Note_on_c, 4, 65, 0
6, 22416, Note_on_c, 4, 68, 0
6, 22421, Note_on_c, 4, 74, 0
6, 22440, Note_on_c, 4, 74, 117
6, 22440, Note_on_c, 4, 68, 127
6, 22440, Note_on_c, 4, 65, 117
6, 22474, Note_on_c, 4, 65, 0
6, 22485, Note_on_c, 4, 68, 0
6, 22492, Note_on_c, 4, 74, 0
6, 22680, Note_on_c, 4, 69, 117
6, 22680, Note_on_c, 4, 65, 117
6, 22680, Note_on_c, 4, 72, 117
6, 22714, Note_on_c, 4, 65, 0
6, 22717, Note_on_c, 4, 69, 0
6, 22722, Note_on_c, 4, 72, 0
6, 22740, Note_on_c, 4, 69, 99
6, 22740, Note_on_c, 4, 72, 90
6, 22740, Note_on_c, 4, 65, 75
6, 22765, Note_on_c, 4, 65, 0
6, 22775, Note_on_c, 4, 69, 0
6, 22777, Note_on_c, 4, 72, 0
6, 22800, Note_on_c, 4, 69, 90
6, 22800, Note_on_c, 4, 72, 99
6, 22800, Note_on_c, 4, 65, 99
6, 22831, Note_on_c, 4, 65, 0
6, 22836, Note_on_c, 4, 69, 0
6, 22839, Note_on_c, 4, 72, 0
6, 22860, Note_on_c, 4, 69, 90
6, 22860, Note_on_c, 4, 72, 108
6, 22860, Note_on_c, 4, 65, 99
6, 22890, Note_on_c, 4, 65, 0
6, 22896, Note_on_c, 4, 69, 0
6, 22899, Note_on_c, 4, 72, 0
6, 22920, Note_on_c, 4, 72, 99
6, 22920, Note_on_c, 4, 69, 108
6, 22920, Note_on_c, 4, 65, 117
6, 22956, Note_on_c, 4, 65, 0
6, 22965, Note_on_c, 4, 69, 0
6, 22973, Note_on_c, 4, 72, 0
6, 23160, Note_on_c, 4, 69, 117
6, 23160, Note_on_c, 4, 65, 124
6, 23160, Note_on_c, 4, 72, 117
6, 23197, Note_on_c, 4, 65, 0
6, 23201, Note_on_c, 4, 72, 0
6, 23204, Note_on_c, 4, 69, 0
6, 23220, Note_on_c, 4, 69, 108
6, 23220, Note_on_c, 4, 72, 99
6, 23220, Note_on_c, 4, 65, 99
6, 23249, Note_on_c, 4, 65, 0
6, 23256, Note_on_c, 4, 69, 0
6, 23257, Note_on_c, 4, 72, 0
6, 23280, Note_on_c, 4, 69, 82
6, 23280, Note_on_c, 4, 72, 99
6, 23280, Note_on_c, 4, 65, 108
6, 23311, Note_on_c, 4, 65, 0
6, 23317, Note_on_c, 4, 69, 0
6, 23319, Note_on_c, 4, 72, 0
6, 23340, Note_on_c, 4, 69, 99
6, 23340, Note_on_c, 4, 72, 90
6, 23340, Note_on_c, 4, 65, 99
6, 23371, Note_on_c, 4, 65, 0
6, 23375, Note_on_c, 4, 72, 0
6, 23376, Note_on_c, 4, 69, 0
6, 23400, Note_on_c, 4, 69, 99
6, 23400, Note_on_c, 4, 72, 99
6, 23400, Note_on_c, 4, 65, 108
6, 23438, Note_on_c, 4, 65, 0
6, 23448, Note_on_c, 4, 69, 0
6, 23452, Note_on_c, 4, 72, 0
6, 23640, Note_on_c, 4, 76, 108
6, 23640, Note_on_c, 4, 70, 127
6, 23640, Note_on_c, 4, 67, 108
6, 23668, Note_on_c, 4, 67, 0
6, 23677, Note_on_c, 4, 70, 0
6, 23683, Note_on_c, 4, 76, 0
6, 23700, Note_on_c, 4, 76, 82
6, 23700, Note_on_c, 4, 70, 108
6, 23700, Note_on_c, 4, 67, 75
6, 23727, Note_on_c, 4, 67, 0
6, 23732, Note_on_c, 4, 70, 0
6, 23734, Note_on_c, 4, 76, 0
6, 23760, Note_on_c, 4, 70, 127
6, 23760, Note_on_c, 4, 67, 117
6, 23760, Note_on_c, 4, 76, 108
6, 23788, Note_on_c, 4, 67, 0
6, 23790, Note_on_c, 4, 70, 0
6, 23794, Note_on_c, 4, 76, 0
6, 23820, Note_on_c, 4, 76, 99
6, 23820, Note_on_c, 4, 70, 124
6, 23820, Note_on_c, 4, 67, 90
6, 23849, Note_on_c, 4, 67, 0
6, 23852, Note_on_c, 4, 70, 0
6, 23857, Note_on_c, 4, 76, 0
6, 23880, Note_on_c, 4, 76, 117
6, 23880, Note_on_c, 4, 70, 127
6, 23880, Note_on_c, 4, 67, 117
6, 23916, Note_on_c, 4, 67, 0
6, 23925, Note_on_c, 4, 70, 0
6, 23925, Note_on_c, 4, 76, 0
6, 24120, Note_on_c, 4, 65, 117
6, 24120, Note_on_c, 4, 68, 127
6, 24120, Note_on_c, 4, 74, 124
6, 24147, Note_on_c, 4, 68, 0
6, 24147, Note_on_c, 4, 65, 0
6, 24157, Note_on_c, 4, 74, 0
6, 24180, Note_on_c, 4, 74, 99
6, 24180, Note_on_c, 4, 68, 124
6, 24180, Note_on_c, 4, 65, 82
6, 24205, Note_on_c, 4, 65, 0
6, 24207, Note_on_c, 4, 68, 0
6, 24212, Note_on_c, 4, 74, 0
6, 24240, Note_on_c, 4, 74, 99
6, 24240, Note_on_c, 4, 68, 124
6, 24240, Note_on_c, 4, 65, 99
6, 24266, Note_on_c, 4, 65, 0
6, 24270, Note_on_c, 4, 68, 0
6, 24275, Note_on_c, 4, 74, 0
6, 24300, Note_on_c, 4, 74, 99
6, 24300, Note_on_c, 4, 68, 117
6, 24300, Note_on_c, 4, 65, 82
6, 24325, Note_on_c, 4, 65, 0
6, 24326, Note_on_c, 4, 68, 0
6, 24330, Note_on_c, 4, 74, 0
6, 24360, Note_on_c, 4, 74, 117
6, 24360, Note_on_c, 4, 68, 127
6, 24360, Note_on_c, 4, 65, 124
6, 24392, Note_on_c, 4, 65, 0
6, 24403, Note_on_c, 4, 68, 0
6, 24403, Note_on_c, 4, 74, 0
6, 24600, Note_on_c, 4, 65, 117
6, 24600, Note_on_c, 4, 72, 117
6, 24600, Note_on_c, 4, 69, 124
6, 24629, Note_on_c, 4, 65, 0
6, 24630, Note_on_c, 4, 69, 0
6, 24637, Note_on_c, 4, 72, 0
6, 24660, Note_on_c, 4, 69, 99
6, 24660, Note_on_c, 4, 72, 108
6, 24660, Note_on_c, 4, 65, 75
6, 24692, Note_on_c, 4, 65, 0
6, 24698, Note_on_c, 4, 69, 0
6, 24701, Note_on_c, 4, 72, 0
6, 24720, Note_on_c, 4, 69, 75
6, 24720, Note_on_c, 4, 72, 99
6, 24720, Note_on_c, 4, 65, 75
6, 24752, Note_on_c, 4, 65, 0
6, 24759, Note_on_c, 4, 72, 0
6, 24759, Note_on_c, 4, 69, 0
6, 24780, Note_on_c, 4, 69, 99
6, 24780, Note_on_c, 4, 72, 117
6, 24780, Note_on_c, 4, 65, 90
6, 24807, Note_on_c, 4, 65, 0
6, 24812, Note_on_c, 4, 69, 0
6, 24815, Note_on_c, 4, 72, 0
6, 24840, Note_on_c, 4, 72, 108
6, 24840, Note_on_c, 4, 69, 99
6, 24840, Note_on_c, 4, 65, 117
6, 24874, Note_on_c, 4, 65, 0
6, 24883, Note_on_c, 4, 69, 0
6, 24887, Note_on_c, 4, 72, 0
6, 25080, Note_on_c, 4, 69, 108
6, 25080, Note_on_c, 4, 65, 117
6, 25080, Note_on_c, 4, 72, 108
6, 25111, Note_on_c, 4, 65, 0
6, 25119, Note_on_c, 4, 69, 0
6, 25123, Note_on_c, 4, 72, 0
6, 25140, Note_on_c, 4, 72, 90
6, 25140, Note_on_c, 4, 69, 82
6, 25140, Note_on_c, 4, 65, 99
6, 25169, Note_on_c, 4, 65, 0
6, 25177, Note_on_c, 4, 69, 0
6, 25184, Note_on_c, 4, 72, 0
6, 25200, Note_on_c, 4, 72, 90
6, 25200, Note_on_c, 4, 69, 82
6, 25200, Note_on_c, 4, 65, 90
6, 25229, Note_on_c, 4, 65, 0
6, 25237, Note_on_c, 4, 69, 0
6, 25244, Note_on_c, 4, 72, 0
6, 25260, Note_on_c, 4, 72, 99
6, 25260, Note_on_c, 4, 69, 82
6, 25260, Note_on_c, 4, 65, 99
6, 25287, Note_on_c, 4, 65, 0
6, 25295, Note_on_c, 4, 69, 0
6, 25299, Note_on_c, 4, 72, 0
6, 25320, Note_on_c, 4, 72, 117
6, 25320, Note_on_c, 4, 69, 124
6, 25320, Note_on_c, 4, 65, 117
6, 25355, Note_on_c, 4, 65, 0
6, 25364, Note_on_c, 4, 69, 0
6, 25366, Note_on_c, 4, 72, 0
6, 25560, Note_on_c, 4, 69, 124
6, 25560, Note_on_c, 4, 72, 117
6, 25560, Note_on_c, 4, 65, 124
6, 25602, Note_on_c, 4, 69, 0
6, 25620, Note_on_c, 4, 69, 35
6, 25648, Note_on_c, 4, 65, 0
6, 25652, Note_on_c, 4, 72, 0
6, 25655, Note_on_c, 4, 69, 0
6, 25680, Note_on_c, 4, 65, 75
6, 25680, Note_on_c, 4, 69, 99
6, 25680, Note_on_c, 4, 72, 82
6, 25713, Note_on_c, 4, 65, 0
6, 25714, Note_on_c, 4, 72, 0
6, 25714, Note_on_c, 4, 69, 0
6, 25740, Note_on_c, 4, 65, 75
6, 25740, Note_on_c, 4, 69, 108
6, 25740, Note_on_c, 4, 72, 82
6, 25775, Note_on_c, 4, 65, 0
6, 25776, Note_on_c, 4, 72, 0
6, 25777, Note_on_c, 4, 69, 0
6, 25800, Note_on_c, 4, 65, 117
6, 25800, Note_on_c, 4, 69, 124
6, 25800, Note_on_c, 4, 72, 117
6, 25828, Note_on_c, 4, 65, 0
6, 25834, Note_on_c, 4, 69, 0
6, 25837, Note_on_c, 4, 72, 0
6, 26040, Note_on_c, 4, 69, 124
6, 26040, Note_on_c, 4, 65, 124
6, 26040, Note_on_c, 4, 72, 117
6, 26077, Note_on_c, 4, 72, 0
6, 26081, Note_on_c, 4, 69, 0
6, 26100, Note_on_c, 4, 69, 90
6, 26100, Note_on_c, 4, 72, 45
6, 26128, Note_on_c, 4, 65, 0
6, 26137, Note_on_c, 4, 72, 0
6, 26138, Note_on_c, 4, 69, 0
6, 26160, Note_on_c, 4, 69, 99
6, 26160, Note_on_c, 4, 72, 82
6, 26160, Note_on_c, 4, 65, 82
6, 26195, Note_on_c, 4, 65, 0
6, 26195, Note_on_c, 4, 72, 0
6, 26197, Note_on_c, 4, 69, 0
6, 26220, Note_on_c, 4, 65, 90
6, 26220, Note_on_c, 4, 72, 82
6, 26220, Note_on_c, 4, 69, 108
6, 26249, Note_on_c, 4, 65, 0
6, 26252, Note_on_c, 4, 69, 0
6, 26255, Note_on_c, 4, 72, 0
6, 26280, Note_on_c, 4, 65, 117
6, 26280, Note_on_c, 4, 72, 117
6, 26280, Note_on_c, 4, 69, 124
6, 26314, Note_on_c, 4, 65, 0
6, 26318, Note_on_c, 4, 69, 0
6, 26321, Note_on_c, 4, 72, 0
6, 26520, Note_on_c, 4, 72, 124
6, 26520, Note_on_c, 4, 65, 117
6, 26520, Note_on_c, 4, 69, 124
6, 26562, Note_on_c, 4, 69, 0
6, 26566, Note_on_c, 4, 65, 0
6, 26568, Note_on_c, 4, 72, 0
6, 26580, Note_on_c, 4, 65, 61
6, 26580, Note_on_c, 4, 69, 99
6, 26580, Note_on_c, 4, 72, 82
6, 26603, Note_on_c, 4, 72, 0
6, 26610, Note_on_c, 4, 65, 0
6, 26613, Note_on_c, 4, 69, 0
6, 26640, Note_on_c, 4, 65, 90
6, 26640, Note_on_c, 4, 69, 99
6, 26640, Note_on_c, 4, 72, 75
6, 26669, Note_on_c, 4, 65, 0
6, 26670, Note_on_c, 4, 72, 0
6, 26672, Note_on_c, 4, 69, 0
6, 26700, Note_on_c, 4, 72, 99
6, 26700, Note_on_c, 4, 69, 108
6, 26700, Note_on_c, 4, 65, 99
6, 26731, Note_on_c, 4, 65, 0
6, 26734, Note_on_c, 4, 69, 0
6, 26736, Note_on_c, 4, 72, 0
6, 26760, Note_on_c, 4, 65, 108
6, 26760, Note_on_c, 4, 72, 108
6, 26760, Note_on_c, 4, 69, 117
6, 26793, Note_on_c, 4, 65, 0
6, 26801, Note_on_c, 4, 69, 0
6, 26806, Note_on_c, 4, 72, 0
6, 27000, Note_on_c, 4, 72, 124
6, 27000, Note_on_c, 4, 69, 124
6, 27000, Note_on_c, 4, 65, 124
6, 27039, Note_on_c, 4, 69, 0
6, 27048, Note_on_c, 4, 72, 0
6, 27060, Note_on_c, 4, 72, 52
6, 27060, Note_on_c, 4, 69, 90
6, 27088, Note_on_c, 4, 65, 0
6, 27090, Note_on_c, 4, 69, 0
6, 27093, Note_on_c, 4, 72, 0
6, 27120, Note_on_c, 4, 72, 99
6, 27120, Note_on_c, 4, 65, 99
6, 27120, Note_on_c, 4, 69, 108
6, 27150, Note_on_c, 4, 69, 0
6, 27153, Note_on_c, 4, 65, 0
6, 27156, Note_on_c, 4, 72, 0
6, 27180, Note_on_c, 4, 72, 90
6, 27180, Note_on_c, 4, 69, 117
6, 27180, Note_on_c, 4, 65, 90
6, 27207, Note_on_c, 4, 65, 0
6, 27212, Note_on_c, 4, 69, 0
6, 27214, Note_on_c, 4, 72, 0
6, 27240, Note_on_c, 4, 72, 117
6, 27240, Note_on_c, 4, 69, 117
6, 27240, Note_on_c, 4, 65, 108
6, 27275, Note_on_c, 4, 65, 0
6, 27282, Note_on_c, 4, 69, 0
6, 27285, Note_on_c, 4, 72, 0
6, 27480, Note_on_c, 4, 68, 124
6, 27480, Note_on_c, 4, 65, 117
6, 27480, Note_on_c, 4, 74, 124
6, 27514, Note_on_c, 4, 65, 0
6, 27517, Note_on_c, 4, 68, 0
6, 27540, Note_on_c, 4, 65, 45
6, 27540, Note_on_c, 4, 68, 90
6, 27570, Note_on_c, 4, 65, 0
6, 27571, Note_on_c, 4, 68, 0
6, 27574, Note_on_c, 4, 74, 0
6, 27600, Note_on_c, 4, 68, 124
6, 27600, Note_on_c, 4, 74, 99
6, 27600, Note_on_c, 4, 65, 99
6, 27631, Note_on_c, 4, 65, 0
6, 27635, Note_on_c, 4, 68, 0
6, 27641, Note_on_c, 4, 74, 0
6, 27660, Note_on_c, 4, 74, 108
6, 27660, Note_on_c, 4, 68, 117
6, 27660, Note_on_c, 4, 65, 82
6, 27687, Note_on_c, 4, 65, 0
6, 27690, Note_on_c, 4, 68, 0
6, 27698, Note_on_c, 4, 74, 0
6, 27720, Note_on_c, 4, 74, 117
6, 27720, Note_on_c, 4, 68, 127
6, 27720, Note_on_c, 4, 65, 108
6, 27751, Note_on_c, 4, 65, 0
6, 27756, Note_on_c, 4, 68, 0
6, 27763, Note_on_c, 4, 74, 0
6, 27960, Note_on_c, 4, 74, 117
6, 27960, Note_on_c, 4, 68, 127
6, 27960, Note_on_c, 4, 65, 124
6, 27995, Note_on_c, 4, 65, 0
6, 28000, Note_on_c, 4, 68, 0
6, 28009, Note_on_c, 4, 74, 0
6, 28020, Note_on_c, 4, 68, 90
6, 28020, Note_on_c, 4, 74, 39
6, 28020, Note_on_c, 4, 65, 39
6, 28050, Note_on_c, 4, 65, 0
6, 28056, Note_on_c, 4, 68, 0
6, 28057, Note_on_c, 4, 74, 0
6, 28080, Note_on_c, 4, 74, 99
6, 28080, Note_on_c, 4, 68, 124
6, 28080, Note_on_c, 4, 65, 99
6, 28106, Note_on_c, 4, 65, 0
6, 28112, Note_on_c, 4, 68, 0
6, 28117, Note_on_c, 4, 74, 0
6, 28140, Note_on_c, 4, 74, 108
6, 28140, Note_on_c, 4, 68, 124
6, 28140, Note_on_c, 4, 65, 90
6, 28171, Note_on_c, 4, 65, 0
6, 28176, Note_on_c, 4, 68, 0
6, 28181, Note_on_c, 4, 74, 0
6, 28200, Note_on_c, 4, 74, 117
6, 28200, Note_on_c, 4, 68, 127
6, 28200, Note_on_c, 4, 65, 117
6, 28234, Note_on_c, 4, 65, 0
6, 28245, Note_on_c, 4, 68, 0
6, 28252, Note_on_c, 4, 74, 0
6, 28440, Note_on_c, 4, 69, 117
6, 28440, Note_on_c, 4, 65, 117
6, 28440, Note_on_c, 4, 72, 117
6, 28474, Note_on_c, 4, 65, 0
6, 28477, Note_on_c, 4, 69, 0
6, 28482, Note_on_c, 4, 72, 0
6, 28500, Note_on_c, 4, 69, 99
6, 28500, Note_on_c, 4, 72, 90
6, 28500, Note_on_c, 4, 65, 75
6, 28525, Note_on_c, 4, 65, 0
6, 28535, Note_on_c, 4, 69, 0
6, 28537, Note_on_c, 4, 72, 0
6, 28560, Note_on_c, 4, 69, 90
6, 28560, Note_on_c, 4, 72, 99
6, 28560, Note_on_c, 4, 65, 99
6, 28591, Note_on_c, 4, 65, 0
6, 28596, Note_on_c, 4, 69, 0
6, 28599, Note_on_c, 4, 72, 0
6, 28620, Note_on_c, 4, 69, 90
6, 28620, Note_on_c, 4, 72, 108
6, 28620, Note_on_c, 4, 65, 99
6, 28650, Note_on_c, 4, 65, 0
6, 28656, Note_on_c, 4, 69, 0
6, 28659, Note_on_c, 4, 72, 0
6, 28680, Note_on_c, 4, 72, 99
6, 28680, Note_on_c, 4, 69, 108
6, 28680, Note_on_c, 4, 65, 117
6, 28716, Note_on_c, 4, 65, 0
6, 28725, Note_on_c, 4, 69, 0
6, 28733, Note_on_c, 4, 72, 0
6, 28920, Note_on_c, 4, 69, 117
6, 28920, Note_on_c, 4, 65, 124
6, 28920, Note_on_c, 4, 72, 117
6, 28957, Note_on_c, 4, 65, 0
6, 28961, Note_on_c, 4, 72, 0
6, 28964, Note_on_c, 4, 69, 0
6, 28980, Note_on_c, 4, 69, 108
6, 28980, Note_on_c, 4, 72, 99
6, 28980, Note_on_c, 4, 65, 99
6, 29009, Note_on_c, 4, 65, 0
6, 29016, Note_on_c, 4, 69, 0
6, 29017, Note_on_c, 4, 72, 0
6, 29040, Note_on_c, 4, 69, 82
6, 29040, Note_on_c, 4, 72, 99
6, 29040, Note_on_c, 4, 65, 108
6, 29071, Note_on_c, 4, 65, 0
6, 29077, Note_on_c, 4, 69, 0
6, 29079, Note_on_c, 4, 72, 0
6, 29100, Note_on_c, 4, 69, 99
6, 29100, Note_on_c, 4, 72, 90
6, 29100, Note_on_c, 4, 65, 99
6, 29131, Note_on_c, 4, 65, 0
6, 29135, Note_on_c, 4, 72, 0
6, 29136, Note_on_c, 4, 69, 0
6, 29160, Note_on_c, 4, 69, 99
6, 29160, Note_on_c, 4, 72, 99
6, 29160, Note_on_c, 4, 65, 108
6, 29198, Note_on_c, 4, 65, 0
6, 29208, Note_on_c, 4, 69, 0
6, 29212, Note_on_c, 4, 72, 0
6, 29400, Note_on_c, 4, 76, 108
6, 29400, Note_on_c, 4, 70, 127
6, 29400, Note_on_c, 4, 67, 108
6, 29428, Note_on_c, 4, 67, 0
6, 29437, Note_on_c, 4, 70, 0
6, 29443, Note_on_c, 4, 76, 0
6, 29460, Note_on_c, 4, 76, 82
6, 29460, Note_on_c, 4, 70, 108
6, 29460, Note_on_c, 4, 67, 75
6, 29487, Note_on_c, 4, 67, 0
6, 29492, Note_on_c, 4, 70, 0
6, 29494, Note_on_c, 4, 76, 0
6, 29520, Note_on_c, 4, 70, 127
6, 29520, Note_on_c, 4, 67, 117
6, 29520, Note_on_c, 4, 76, 108
6, 29548, Note_on_c, 4, 67, 0
6, 29550, Note_on_c, 4, 70, 0
6, 29554, Note_on_c, 4, 76, 0
6, 29580, Note_on_c, 4, 76, 99
6, 29580, Note_on_c, 4, 70, 124
6, 29580, Note_on_c, 4, 67, 90
6, 29609, Note_on_c, 4, 67, 0
6, 29612, Note_on_c, 4, 70, 0
6, 29617, Note_on_c, 4, 76, 0
6, 29640, Note_on_c, 4, 76, 117
6, 29640, Note_on_c, 4, 70, 127
6, 29640, Note_on_c, 4, 67, 117
6, 29676, Note_on_c, 4, 67, 0
6, 29685, Note_on_c, 4, 70, 0
6, 29685, Note_on_c, 4, 76, 0
6, 29880, Note_on_c, 4, 65, 117
6, 29880, Note_on_c, 4, 68, 127
6, 29880, Note_on_c, 4, 74, 124
6, 29907, Note_on_c, 4, 68, 0
6, 29907, Note_on_c, 4, 65, 0
6, 29917, Note_on_c, 4, 74, 0
6, 29940, Note_on_c, 4, 74, 99
6, 29940, Note_on_c, 4, 68, 124
6, 29940, Note_on_c, 4, 65, 82
6, 29965, Note_on_c, 4, 65, 0
6, 29967, Note_on_c, 4, 68, 0
6, 29972, Note_on_c, 4, 74, 0
6, 30000, Note_on_c, 4, 74, 99
6, 30000, Note_on_c, 4, 68, 124
6, 30000, Note_on_c, 4, 65, 99
6, 30026, Note_on_c, 4, 65, 0
6, 30030, Note_on_c, 4, 68, 0
6, 30035, Note_on_c, 4, 74, 0
6, 30060, Note_on_c, 4, 74, 99
6, 30060, Note_on_c, 4, 68, 117
6, 30060, Note_on_c, 4, 65, 82
6, 30085, Note_on_c, 4, 65, 0
6, 30086, Note_on_c, 4, 68, 0
6, 30090, Note_on_c, 4, 74, 0
6, 30120, Note_on_c, 4, 74, 117
6, 30120, Note_on_c, 4, 68, 127
6, 30120, Note_on_c, 4, 65, 124
6, 30152, Note_on_c, 4, 65, 0
6, 30163, Note_on_c, 4, 68, 0
6, 30163, Note_on_c, 4, 74, 0
6, 30360, Note_on_c, 4, 65, 117
6, 30360, Note_on_c, 4, 72, 117
6, 30360, Note_on_c, 4, 69, 124
6, 30389, Note_on_c, 4, 65, 0
6, 30390, Note_on_c, 4, 69, 0
6, 30397, Note_on_c, 4, 72, 0
6, 30420, Note_on_c, 4, 69, 99
6, 30420, Note_on_c, 4, 72, 108
6, 30420, Note_on_c, 4, 65, 75
6, 30452, Note_on_c, 4, 65, 0
6, 30458, Note_on_c, 4, 69, 0
6, 30461, Note_on_c, 4, 72, 0
6, 30480, Note_on_c, 4, 69, 75
6, 30480, Note_on_c, 4, 72, 99
6, 30480, Note_on_c, 4, 65, 75
6, 30512, Note_on_c, 4, 65, 0
6, 30519, Note_on_c, 4, 72, 0
6, 30519, Note_on_c, 4, 69, 0
6, 30540, Note_on_c, 4, 69, 99
6, 30540, Note_on_c, 4, 72, 117
6, 30540, Note_on_c, 4, 65, 90
6, 30567, Note_on_c, 4, 65, 0
6, 30572, Note_on_c, 4, 69, 0
6, 30575, Note_on_c, 4, 72, 0
6, 30600, Note_on_c, 4, 72, 108
6, 30600, Note_on_c, 4, 69, 99
6, 30600, Note_on_c, 4, 65, 117
6, 30634, Note_on_c, 4, 65, 0
6, 30643, Note_on_c, 4, 69, 0
6, 30647, Note_on_c, 4, 72, 0
6, 30840, Note_on_c, 4, 69, 108
6, 30840, Note_on_c, 4, 65, 117
6, 30840, Note_on_c, 4, 72, 108
6, 30871, Note_on_c, 4, 65, 0
6, 30879, Note_on_c, 4, 69, 0
6, 30883, Note_on_c, 4, 72, 0
6, 30900, Note_on_c, 4, 72, 90
6, 30900, Note_on_c, 4, 69, 82
6, 30900, Note_on_c, 4, 65, 99
6, 30929, Note_on_c, 4, 65, 0
6, 30937, Note_on_c, 4, 69, 0
6, 30944, Note_on_c, 4, 72, 0
6, 30960, Note_on_c, 4, 72, 90
6, 30960, Note_on_c, 4, 69, 82
6, 30960, Note_on_c, 4, 65, 90
6, 30989, Note_on_c, 4, 65, 0
6, 30997, Note_on_c, 4, 69, 0
6, 31004, Note_on_c, 4, 72, 0
6, 31020, Note_on_c, 4, 72, 99
6, 31020, Note_on_c, 4, 69, 82
6, 31020, Note_on_c, 4, 65, 99
6, 31047, Note_on_c, 4, 65, 0
6, 31055, Note_on_c, 4, 69, 0
6, 31059, Note_on_c, 4, 72, 0
6, 31080, Note_on_c, 4, 72, 117
6, 31080, Note_on_c, 4, 69, 124
6, 31080, Note_on_c, 4, 65, 117
6, 31115, Note_on_c, 4, 65, 0
6, 31124, Note_on_c, 4, 69, 0
6, 31126, Note_on_c, 4, 72, 0
6, 31320, Note_on_c, 4, 69, 124
6, 31320, Note_on_c, 4, 72, 117
6, 31320, Note_on_c, 4, 65, 124
6, 31362, Note_on_c, 4, 69, 0
6, 31380, Note_on_c, 4, 69, 35
6, 31408, Note_on_c, 4, 65, 0
6, 31412, Note_on_c, 4, 72, 0
6, 31415, Note_on_c, 4, 69, 0
6, 31440, Note_on_c, 4, 65, 75
6, 31440, Note_on_c, 4, 69, 99
6, 31440, Note_on_c, 4, 72, 82
6, 31473, Note_on_c, 4, 65, 0
6, 31474, Note_on_c, 4, 72, 0
6, 31474, Note_on_c, 4, 69, 0
6, 31500, Note_on_c, 4, 65, 75
6, 31500, Note_on_c, 4, 69, 108
6, 31500, Note_on_c, 4, 72, 82
6, 31535, Note_on_c, 4, 65, 0
6, 31536, Note_on_c, 4, 72, 0
6, 31537, Note_on_c, 4, 69, 0
6, 31560, Note_on_c, 4, 65, 117
6, 31560, Note_on_c, 4, 69, 124
6, 31560, Note_on_c, 4, 72, 117
6, 31588, Note_on_c, 4, 65, 0
6, 31594, Note_on_c, 4, 69, 0
6, 31597, Note_on_c, 4, 72, 0
6, 31800, Note_on_c, 4, 69, 124
6, 31800, Note_on_c, 4, 65, 124
6, 31800, Note_on_c, 4, 72, 117
6, 31837, Note_on_c, 4, 72, 0
6, 31841, Note_on_c, 4, 69, 0
6, 31860, Note_on_c, 4, 69, 90
6, 31860, Note_on_c, 4, 72, 45
6, 31888, Note_on_c, 4, 65, 0
6, 31897, Note_on_c, 4, 72, 0
6, 31898, Note_on_c, 4, 69, 0
6, 31920, Note_on_c, 4, 69, 99
6, 31920, Note_on_c, 4, 72, 82
6, 31920, Note_on_c, 4, 65, 82
6, 31955, Note_on_c, 4, 65, 0
6, 31955, Note_on_c, 4, 72, 0
6, 31957, Note_on_c, 4, 69, 0
6, 31980, Note_on_c, 4, 65, 90
6, 31980, Note_on_c, 4, 72, 82
6, 31980, Note_on_c, 4, 69, 108
6, 32009, Note_on_c, 4, 65, 0
6, 32012, Note_on_c, 4, 69, 0
6, 32015, Note_on_c, 4, 72, 0
6, 32040, Note_on_c, 4, 65, 117
6, 32040, Note_on_c, 4, 72, 117
6, 32040, Note_on_c, 4, 69, 124
6, 32074, Note_on_c, 4, 65, 0
6, 32078, Note_on_c, 4, 69, 0
6, 32081, Note_on_c, 4, 72, 0
6, 32280, Note_on_c, 4, 72, 124
6, 32280, Note_on_c, 4, 65, 117
6, 32280, Note_on_c, 4, 69, 124
6, 32322, Note_on_c, 4, 69, 0
6, 32326, Note_on_c, 4, 65, 0
6, 32328, Note_on_c, 4, 72, 0
6, 32340, Note_on_c, 4, 65, 61
6, 32340, Note_on_c, 4, 69, 99
6, 32340, Note_on_c, 4, 72, 82
6, 32363, Note_on_c, 4, 72, 0
6, 32370, Note_on_c, 4, 65, 0
6, 32373, Note_on_c, 4, 69, 0
6, 32400, Note_on_c, 4, 65, 90
6, 32400, Note_on_c, 4, 69, 99
6, 32400, Note_on_c, 4, 72, 75
6, 32429, Note_on_c, 4, 65, 0
6, 32430, Note_on_c, 4, 72, 0
6, 32432, Note_on_c, 4, 69, 0
6, 32460, Note_on_c, 4, 72, 99
6, 32460, Note_on_c, 4, 69, 108
6, 32460, Note_on_c, 4, 65, 99
6, 32491, Note_on_c, 4, 65, 0
6, 32494, Note_on_c, 4, 69, 0
6, 32496, Note_on_c, 4, 72, 0
6, 32520, Note_on_c, 4, 65, 108
6, 32520, Note_on_c, 4, 72, 108
6, 32520, Note_on_c, 4, 69, 117
6, 32553, Note_on_c, 4, 65, 0
6, 32561, Note_on_c, 4, 69, 0
6, 32566, Note_on_c, 4, 72, 0
6, 32760, Note_on_c, 4, 72, 124
6, 32760, Note_on_c, 4, 69, 124
6, 32760, Note_on_c, 4, 65, 124
6, 32799, Note_on_c, 4, 69, 0
6, 32808, Note_on_c, 4, 72, 0
6, 32820, Note_on_c, 4, 72, 52
6, 32820, Note_on_c, 4, 69, 90
6, 32848, Note_on_c, 4, 65, 0
6, 32850, Note_on_c, 4, 69, 0
6, 32853, Note_on_c, 4, 72, 0
6, 32880, Note_on_c, 4, 72, 99
6, 32880, Note_on_c, 4, 65, 99
6, 32880, Note_on_c, 4, 69, 108
6, 32910, Note_on_c, 4, 69, 0
6, 32913, Note_on_c, 4, 65, 0
6, 32916, Note_on_c, 4, 72, 0
6, 32940, Note_on_c, 4, 72, 90
6, 32940, Note_on_c, 4, 69, 117
6, 32940, Note_on_c, 4, 65, 90
6, 32967, Note_on_c, 4, 65, 0
6, 32972, Note_on_c, 4, 69, 0
6, 32974, Note_on_c, 4, 72, 0
6, 33000, Note_on_c, 4, 72, 117
6, 33000, Note_on_c, 4, 69, 117
6, 33000, Note_on_c, 4, 65, 108
6, 33035, Note_on_c, 4, 65, 0
6, 33042, Note_on_c, 4, 69, 0
6, 33045, Note_on_c, 4, 72, 0
6, 33240, Note_on_c, 4, 68, 124
6, 33240, Note_on_c, 4, 65, 117
6, 33240, Note_on_c, 4, 74, 124
6, 33274, Note_on_c, 4, 65, 0
6, 33277, Note_on_c, 4, 68, 0
6, 33300, Note_on_c, 4, 65, 45
6, 33300, Note_on_c, 4, 68, 90
6, 33330, Note_on_c, 4, 65, 0
6, 33331, Note_on_c, 4, 68, 0
6, 33334, Note_on_c, 4, 74, 0
6, 33360, Note_on_c, 4, 68, 124
6, 33360, Note_on_c, 4, 74, 99
6, 33360, Note_on_c, 4, 65, 99
6, 33391, Note_on_c, 4, 65, 0
6, 33395, Note_on_c, 4, 68, 0
6, 33401, Note_on_c, 4, 74, 0
6, 33420, Note_on_c, 4, 74, 108
6, 33420, Note_on_c, 4, 68, 117
6, 33420, Note_on_c, 4, 65, 82
6, 33447, Note_on_c, 4, 65, 0
6, 33450, Note_on_c, 4, 68, 0
6, 33458, Note_on_c, 4, 74, 0
6, 33480, Note_on_c, 4, 74, 117
6, 33480, Note_on_c, 4, 68, 127
6, 33480, Note_on_c, 4, 65, 108
6, 33511, Note_on_c, 4, 65, 0
6, 33516, Note_on_c, 4, 68, 0
6, 33523, Note_on_c, 4, 74, 0
6, 33720, Note_on_c, 4, 74, 117
6, 33720, Note_on_c, 4, 68, 127
6, 33720, Note_on_c, 4, 65, 124
6, 33755, Note_on_c, 4, 65, 0
6, 33760, Note_on_c, 4, 68, 0
6, 33769, Note_on_c, 4, 74, 0
6, 33780, Note_on_c, 4, 68, 90
6, 33780, Note_on_c, 4, 74, 39
6, 33780, Note_on_c, 4, 65, 39
6, 33810, Note_on_c, 4, 65, 0
6, 33816, Note_on_c, 4, 68, 0
6, 33817, Note_on_c, 4, 74, 0
6, 33840, Note_on_c, 4, 74, 99
6, 33840, Note_on_c, 4, 68, 124
6, 33840, Note_on_c, 4, 65, 99
6, 33866, Note_on_c, 4, 65, 0
6, 33872, Note_on_c, 4, 68, 0
6, 33877, Note_on_c, 4, 74, 0
6, 33900, Note_on_c, 4, 74, 108
6, 33900, Note_on_c, 4, 68, 124
6, 33900, Note_on_c, 4, 65, 90
6, 33931, Note_on_c, 4, 65, 0
6, 33936, Note_on_c, 4, 68, 0
6, 33941, Note_on_c, 4, 74, 0
6, 33960, Note_on_c, 4, 74, 117
6, 33960, Note_on_c, 4, 68, 127
6, 33960, Note_on_c, 4, 65, 117
6, 33994, Note_on_c, 4, 65, 0
6, 34005, Note_on_c, 4, 68, 0
6, 34012, Note_on_c, 4, 74, 0
6, 34200, Note_on_c, 4, 69, 117
6, 34200, Note_on_c, 4, 65, 117
6, 34200, Note_on_c, 4, 72, 117
6, 34234, Note_on_c, 4, 65, 0
6, 34237, Note_on_c, 4, 69, 0
6, 34242, Note_on_c, 4, 72, 0
6, 34260, Note_on_c, 4, 69, 99
6, 34260, Note_on_c, 4, 72, 90
6, 34260, Note_on_c, 4, 65, 75
6, 34285, Note_on_c, 4, 65, 0
6, 34295, Note_on_c, 4, 69, 0
6, 34297, Note_on_c, 4, 72, 0
6, 34320, Note_on_c, 4, 69, 90
6, 34320, Note_on_c, 4, 72, 99
6, 34320, Note_on_c, 4, 65, 99
6, 34351, Note_on_c, 4, 65, 0
6, 34356, Note_on_c, 4, 69, 0
6, 34359, Note_on_c, 4, 72, 0
6, 34380, Note_on_c, 4, 69, 90
6, 34380, Note_on_c, 4, 72, 108
6, 34380, Note_on_c, 4, 65, 99
6, 34410, Note_on_c, 4, 65, 0
6, 34416, Note_on_c, 4, 69, 0
6, 34419, Note_on_c, 4, 72, 0
6, 34440, Note_on_c, 4, 72, 99
6, 34440, Note_on_c, 4, 69, 108
6, 34440, Note_on_c, 4, 65, 117
6, 34476, Note_on_c, 4, 65, 0
6, 34485, Note_on_c, 4, 69, 0
6, 34493, Note_on_c, 4, 72, 0
6, 34680, Note_on_c, 4, 69, 117
6, 34680, Note_on_c, 4, 65, 124
6, 34680, Note_on_c, 4, 72, 117
6, 34717, Note_on_c, 4, 65, 0
6, 34721, Note_on_c, 4, 72, 0
6, 34724, Note_on_c, 4, 69, 0
6, 34740, Note_on_c, 4, 69, 108
6, 34740, Note_on_c, 4, 72, 99
6, 34740, Note_on_c, 4, 65, 99
6, 34769, Note_on_c, 4, 65, 0
6, 34776, Note_on_c, 4, 69, 0
6, 34777, Note_on_c, 4, 72, 0
6, 34800, Note_on_c, 4, 69, 82
6, 34800, Note_on_c, 4, 72, 99
6, 34800, Note_on_c, 4, 65, 108
6, 34831, Note_on_c, 4, 65, 0
6, 34837, Note_on_c, 4, 69, 0
6, 34839, Note_on_c, 4, 72, 0
6, 34860, Note_on_c, 4, 69, 99
6, 34860, Note_on_c, 4, 72, 90
6, 34860, Note_on_c, 4, 65, 99
6, 34891, Note_on_c, 4, 65, 0
6, 34895, Note_on_c, 4, 72, 0
6, 34896, Note_on_c, 4, 69, 0
6, 34920, Note_on_c, 4, 69, 99
6, 34920, Note_on_c, 4, 72, 99
6, 34920, Note_on_c, 4, 65, 108
6, 34958, Note_on_c, 4, 65, 0
6, 34968, Note_on_c, 4, 69, 0
6, 34972, Note_on_c, 4, 72, 0
6, 35160, Note_on_c, 4, 76, 108
6, 35160, Note_on_c, 4, 70, 127
6, 35160, Note_on_c, 4, 67, 108
6, 35188, Note_on_c, 4, 67, 0
6, 35197, Note_on_c, 4, 70, 0
6, 35203, Note_on_c, 4, 76, 0
6, 35220, Note_on_c, 4, 76, 82
6, 35220, Note_on_c, 4, 70, 108
6, 35220, Note_on_c, 4, 67, 75
6, 35247, Note_on_c, 4, 67, 0
6, 35252, Note_on_c, 4, 70, 0
6, 35254, Note_on_c, 4, 76, 0
6, 35280, Note_on_c, 4, 70, 127
6, 35280, Note_on_c, 4, 67, 117
6, 35280, Note_on_c, 4, 76, 108
6, 35308, Note_on_c, 4, 67, 0
6, 35310, Note_on_c, 4, 70, 0
6, 35314, Note_on_c, 4, 76, 0
6, 35340, Note_on_c, 4, 76, 99
6, 35340, Note_on_c, 4, 70, 124
6, 35340, Note_on_c, 4, 67, 90
6, 35369, Note_on_c, 4, 67, 0
6, 35372, Note_on_c, 4, 70, 0
6, 35377, Note_on_c, 4, 76, 0
6, 35400, Note_on_c, 4, 76, 117
6, 35400, Note_on_c, 4, 70, 127
6, 35400, Note_on_c, 4, 67, 117
6, 35436, Note_on_c, 4, 67, 0
6, 35445, Note_on_c, 4, 70, 0
6, 35445, Note_on_c, 4, 76, 0
6, 35640, Note_on_c, 4, 65, 117
6, 35640, Note_on_c, 4, 68, 127
6, 35640, Note_on_c, 4, 74, 124
6, 35667, Note_on_c, 4, 68, 0
6, 35667, Note_on_c, 4, 65, 0
6, 35677, Note_on_c, 4, 74, 0
6, 35700, Note_on_c, 4, 74, 99
6, 35700, Note_on_c, 4, 68, 124
6, 35700, Note_on_c, 4, 65, 82
6, 35725, Note_on_c, 4, 65, 0
6, 35727, Note_on_c, 4, 68, 0
6, 35732, Note_on_c, 4, 74, 0
6, 35760, Note_on_c, 4, 74, 99
6, 35760, Note_on_c, 4, 68, 124
6, 35760, Note_on_c, 4, 65, 99
6, 35786, Note_on_c, 4, 65, 0
6, 35790, Note_on_c, 4, 68, 0
6, 35795, Note_on_c, 4, 74, 0
6, 35820, Note_on_c, 4, 74, 99
6, 35820, Note_on_c, 4, 68, 117
6, 35820, Note_on_c, 4, 65, 82
6, 35845, Note_on_c, 4, 65, 0
6, 35846, Note_on_c, 4, 68, 0
6, 35850, Note_on_c, 4, 74, 0
6, 35880, Note_on_c, 4, 74, 117
6, 35880, Note_on_c, 4, 68, 127
6, 35880, Note_on_c, 4, 65, 124
6, 35912, Note_on_c, 4, 65, 0
6, 35923, Note_on_c, 4, 68, 0
6, 35923, Note_on_c, 4, 74, 0
6, 36120, Note_on_c, 4, 65, 117
6, 36120, Note_on_c, 4, 72, 117
6, 36120, Note_on_c, 4, 69, 124
6, 36149, Note_on_c, 4, 65, 0
6, 36150, Note_on_c, 4, 69, 0
6, 36157, Note_on_c, 4, 72, 0
6, 36180, Note_on_c, 4, 69, 99
6, 36180, Note_on_c, 4, 72, 108
6, 36180, Note_on_c, 4, 65, 75
6, 36212, Note_on_c, 4, 65, 0
6, 36218, Note_on_c, 4, 69, 0
6, 36221, Note_on_c, 4, 72, 0
6, 36240, Note_on_c, 4, 69, 75
6, 36240, Note_on_c, 4, 72, 99
6, 36240, Note_on_c, 4, 65, 75
6, 36272, Note_on_c, 4, 65, 0
6, 36279, Note_on_c, 4, 72, 0
6, 36279, Note_on_c, 4, 69, 0
6, 36300, Note_on_c, 4, 69, 99
6, 36300, Note_on_c, 4, 72, 117
6, 36300, Note_on_c, 4, 65, 90
6, 36327, Note_on_c, 4, 65, 0
6, 36332, Note_on_c, 4, 69, 0
6, 36335, Note_on_c, 4, 72, 0
6, 36360, Note_on_c, 4, 72, 108
6, 36360, Note_on_c, 4, 69, 99
6, 36360, Note_on_c, 4, 65, 117
6, 36394, Note_on_c, 4, 65, 0
6, 36403, Note_on_c, 4, 69, 0
6, 36407, Note_on_c, 4, 72, 0
6, 36600, Note_on_c, 4, 69, 108
6, 36600, Note_on_c, 4, 65, 117
6, 36600, Note_on_c, 4, 72, 108
6, 36631, Note_on_c, 4, 65, 0
6, 36639, Note_on_c, 4, 69, 0
6, 36643, Note_on_c, 4, 72, 0
6, 36660, Note_on_c, 4, 72, 90
6, 36660, Note_on_c, 4, 69, 82
6, 36660, Note_on_c, 4, 65, 99
6, 36689, Note_on_c, 4, 65, 0
6, 36697, Note_on_c, 4, 69, 0
6, 36704, Note_on_c, 4, 72, 0
6, 36720, Note_on_c, 4, 72, 90
6, 36720, Note_on_c, 4, 69, 82
6, 36720, Note_on_c, 4, 65, 90
6, 36749, Note_on_c, 4, 65, 0
6, 36757, Note_on_c, 4, 69, 0
6, 36764, Note_on_c, 4, 72, 0
6, 36780, Note_on_c, 4, 72, 99
6, 36780, Note_on_c, 4, 69, 82
6, 36780, Note_on_c, 4, 65, 99
6, 36807, Note_on_c, 4, 65, 0
6, 36815, Note_on_c, 4, 69, 0
6, 36819, Note_on_c, 4, 72, 0
6, 36840, Note_on_c, 4, 72, 117
6, 36840, Note_on_c, 4, 69, 124
6, 36840, Note_on_c, 4, 65, 117
6, 36875, Note_on_c, 4, 65, 0
6, 36884, Note_on_c, 4, 69, 0
6, 36886, Note_on_c, 4, 72, 0
6, 37080, Note_on_c, 4, 69, 124
6, 37080, Note_on_c, 4, 72, 117
6, 37080, Note_on_c, 4, 65, 124
6, 37122, Note_on_c, 4, 69, 0
6, 37140, Note_on_c, 4, 69, 35
6, 37168, Note_on_c, 4, 65, 0
6, 37172, Note_on_c, 4, 72, 0
6, 37175, Note_on_c, 4, 69, 0
6, 37200, Note_on_c, 4, 65, 75
6, 37200, Note_on_c, 4, 69, 99
6, 37200, Note_on_c, 4, 72, 82
6, 37233, Note_on_c, 4, 65, 0
6, 37234, Note_on_c, 4, 72, 0
6, 37234, Note_on_c, 4, 69, 0
6, 37260, Note_on_c, 4, 65, 75
6, 37260, Note_on_c, 4, 69, 108
6, 37260, Note_on_c, 4, 72, 82
6, 37295, Note_on_c, 4, 65, 0
6, 37296, Note_on_c, 4, 72, 0
6, 37297, Note_on_c, 4, 69, 0
6, 37320, Note_on_c, 4, 65, 117
6, 37320, Note_on_c, 4, 69, 124
6, 37320, Note_on_c, 4, 72, 117
6, 37348, Note_on_c, 4, 65, 0
6, 37354, Note_on_c, 4, 69, 0
6, 37357, Note_on_c, 4, 72, 0
6, 37560, Note_on_c, 4, 69, 124
6, 37560, Note_on_c, 4, 65, 124
6, 37560, Note_on_c, 4, 72, 117
6, 37597, Note_on_c, 4, 72, 0
6, 37601, Note_on_c, 4, 69, 0
6, 37620, Note_on_c, 4, 69, 90
6, 37620, Note_on_c, 4, 72, 45
6, 37648, Note_on_c, 4, 65, 0
6, 37657, Note_on_c, 4, 72, 0
6, 37658, Note_on_c, 4, 69, 0
6, 37680, Note_on_c, 4, 69, 99
6, 37680, Note_on_c, 4, 72, 82
6, 37680, Note_on_c, 4, 65, 82
6, 37715, Note_on_c, 4, 65, 0
6, 37715, Note_on_c, 4, 72, 0
6, 37717, Note_on_c, 4, 69, 0
6, 37740, Note_on_c, 4, 65, 90
6, 37740, Note_on_c, 4, 72, 82
6, 37740, Note_on_c, 4, 69, 108
6, 37769, Note_on_c, 4, 65, 0
6, 37772, Note_on_c, 4, 69, 0
6, 37775, Note_on_c, 4, 72, 0
6, 37800, Note_on_c, 4, 65, 117
6, 37800, Note_on_c, 4, 72, 117
6, 37800, Note_on_c, 4, 69, 124
6, 37834, Note_on_c, 4, 65, 0
6, 37838, Note_on_c, 4, 69, 0
6, 37841, Note_on_c, 4, 72, 0
6, 38040, Note_on_c, 4, 72, 124
6, 38040, Note_on_c, 4, 65, 117
6, 38040, Note_on_c, 4, 69, 124
6, 38082, Note_on_c, 4, 69, 0
6, 38086, Note_on_c, 4, 65, 0
6, 38088, Note_on_c, 4, 72, 0
6, 38100, Note_on_c, 4, 65, 61
6, 38100, Note_on_c, 4, 69, 99
6, 38100, Note_on_c, 4, 72, 82
6, 38123, Note_on_c, 4, 72, 0
6, 38130, Note_on_c, 4, 65, 0
6, 38133, Note_on_c, 4, 69, 0
6, 38160, Note_on_c, 4, 65, 90
6, 38160, Note_on_c, 4, 69, 99
6, 38160, Note_on_c, 4, 72, 75
6, 38189, Note_on_c, 4, 65, 0
6, 38190, Note_on_c, 4, 72, 0
6, 38192, Note_on_c, 4, 69, 0
6, 38220, Note_on_c, 4, 72, 99
6, 38220, Note_on_c, 4, 69, 108
6, 38220, Note_on_c, 4, 65, 99
6, 38251, Note_on_c, 4, 65, 0
6, 38254, Note_on_c, 4, 69, 0
6, 38256, Note_on_c, 4, 72, 0
6, 38280, Note_on_c, 4, 65, 108
6, 38280, Note_on_c, 4, 72, 108
6, 38280, Note_on_c, 4, 69, 117
6, 38313, Note_on_c, 4, 65, 0
6, 38321, Note_on_c, 4, 69, 0
6, 38326, Note_on_c, 4, 72, 0
6, 38520, Note_on_c, 4, 72, 124
6, 38520, Note_on_c, 4, 69, 124
6, 38520, Note_on_c, 4, 65, 124
6, 38559, Note_on_c, 4, 69, 0
6, 38568, Note_on_c, 4, 72, 0
6, 38580, Note_on_c, 4, 72, 52
6, 38580, Note_on_c, 4, 69, 90
6, 38608, Note_on_c, 4, 65, 0
6, 38610, Note_on_c, 4, 69, 0
6, 38613, Note_on_c, 4, 72, 0
6, 38640, Note_on_c, 4, 72, 99
6, 38640, Note_on_c, 4, 65, 99
6, 38640, Note_on_c, 4, 69, 108
6, 38670, Note_on_c, 4, 69, 0
6, 38673, Note_on_c, 4, 65, 0
6, 38676, Note_on_c, 4, 72, 0
6, 38700, Note_on_c, 4, 72, 90
6, 38700, Note_on_c, 4, 69, 117
6, 38700, Note_on_c, 4, 65, 90
6, 38727, Note_on_c, 4, 65, 0
6, 38732, Note_on_c, 4, 69, 0
6, 38734, Note_on_c, 4, 72, 0
6, 38760, Note_on_c, 4, 72, 117
6, 38760, Note_on_c, 4, 69, 117
6, 38760, Note_on_c, 4, 65, 108
6, 38795, Note_on_c, 4, 65, 0
6, 38802, Note_on_c, 4, 69, 0
6, 38805, Note_on_c, 4, 72, 0
6, 39000, Note_on_c, 4, 68, 124
6, 39000, Note_on_c, 4, 65, 117
6, 39000, Note_on_c, 4, 74, 124
6, 39034, Note_on_c, 4, 65, 0
6, 39037, Note_on_c, 4, 68, 0
6, 39060, Note_on_c, 4, 65, 45
6, 39060, Note_on_c, 4, 68, 90
6, 39090, Note_on_c, 4, 65, 0
6, 39091, Note_on_c, 4, 68, 0
6, 39094, Note_on_c, 4, 74, 0
6, 39120, Note_on_c, 4, 68, 124
6, 39120, Note_on_c, 4, 74, 99
6, 39120, Note_on_c, 4, 65, 99
6, 39151, Note_on_c, 4, 65, 0
6, 39155, Note_on_c, 4, 68, 0
6, 39161, Note_on_c, 4, 74, 0
6, 39180, Note_on_c, 4, 74, 108
6, 39180, Note_on_c, 4, 68, 117
6, 39180, Note_on_c, 4, 65, 82
6, 39207, Note_on_c, 4, 65, 0
6, 39210, Note_on_c, 4, 68, 0
6, 39218, Note_on_c, 4, 74, 0
6, 39240, Note_on_c, 4, 74, 117
6, 39240, Note_on_c, 4, 68, 127
6, 39240, Note_on_c, 4, 65, 108
6, 39271, Note_on_c, 4, 65, 0
6, 39276, Note_on_c, 4, 68, 0
6, 39283, Note_on_c, 4, 74, 0
6, 39480, Note_on_c, 4, 74, 117
6, 39480, Note_on_c, 4, 68, 127
6, 39480, Note_on_c, 4, 65, 124
6, 39515, Note_on_c, 4, 65, 0
6, 39520, Note_on_c, 4, 68, 0
6, 39529, Note_on_c, 4, 74, 0
6, 39540, Note_on_c, 4, 68, 90
6, 39540, Note_on_c, 4, 74, 39
6, 39540, Note_on_c, 4, 65, 39
6, 39570, Note_on_c, 4, 65, 0
6, 39576, Note_on_c, 4, 68, 0
6, 39577, Note_on_c, 4, 74, 0
6, 39600, Note_on_c, 4, 74, 99
6, 39600, Note_on_c, 4, 68, 124
6, 39600, Note_on_c, 4, 65, 99
6, 39626, Note_on_c, 4, 65, 0
6, 39632, Note_on_c, 4, 68, 0
6, 39637, Note_on_c, 4, 74, 0
6, 39660, Note_on_c, 4, 74, 108
6, 39660, Note_on_c, 4, 68, 124
6, 39660, Note_on_c, 4, 65, 90
6, 39691, Note_on_c, 4, 65, 0
6, 39696, Note_on_c, 4, 68, 0
6, 39701, Note_on_c, 4, 74, 0
6, 39720, Note_on_c, 4, 74, 117
6, 39720, Note_on_c, 4, 68, 127
6, 39720, Note_on_c, 4, 65, 117
6, 39754, Note_on_c, 4, 65, 0
6, 39765, Note_on_c, 4, 68, 0
6, 39772, Note_on_c, 4, 74, 0
6, 39960, Note_on_c, 4, 69, 117
6, 39960, Note_on_c, 4, 65, 117
6, 39960, Note_on_c, 4, 72, 117
6, 39994, Note_on_c, 4, 65, 0
6, 39997, Note_on_c, 4, 69, 0
6, 40002, Note_on_c, 4, 72, 0
6, 40020, Note_on_c, 4, 69, 99
6, 40020, Note_on_c, 4, 72, 90
6, 40020, Note_on_c, 4, 65, 75
6, 40045, Note_on_c, 4, 65, 0
6, 40055, Note_on_c, 4, 69, 0
6, 40057, Note_on_c, 4, 72, 0
6, 40080, Note_on_c, 4, 69, 90
6, 40080, Note_on_c, 4, 72, 99
6, 40080, Note_on_c, 4, 65, 99
6, 40111, Note_on_c, 4, 65, 0
6, 40116, Note_on_c, 4, 69, 0
6, 40119, Note_on_c, 4, 72, 0
6, 40140, Note_on_c, 4, 69, 90
6, 40140, Note_on_c, 4, 72, 108
6, 40140, Note_on_c, 4, 65, 99
6, 40170, Note_on_c, 4, 65, 0
6, 40176, Note_on_c, 4, 69, 0
6, 40179, Note_on_c, 4, 72, 0
6, 40200, Note_on_c, 4, 72, 99
6, 40200, Note_on_c, 4, 69, 108
6, 40200, Note_on_c, 4, 65, 117
6, 40236, Note_on_c, 4, 65, 0
6, 40245, Note_on_c, 4, 69, 0
6, 40253, Note_on_c, 4, 72, 0
6, 40440, Note_on_c, 4, 69, 117
6, 40440, Note_on_c, 4, 65, 124
6, 40440, Note_on_c, 4, 72, 117
6, 40477, Note_on_c, 4, 65, 0
6, 40481, Note_on_c, 4, 72, 0
6, 40484, Note_on_c, 4, 69, 0
6, 40500, Note_on_c, 4, 69, 108
6, 40500, Note_on_c, 4, 72, 99
6, 40500, Note_on_c, 4, 65, 99
6, 40529, Note_on_c, 4, 65, 0
6, 40536, Note_on_c, 4, 69, 0
6, 40537, Note_on_c, 4, 72, 0
6, 40560, Note_on_c, 4, 69, 82
6, 40560, Note_on_c, 4, 72, 99
6, 40560, Note_on_c, 4, 65, 108
6, 40591, Note_on_c, 4, 65, 0
6, 40597, Note_on_c, 4, 69, 0
6, 40599, Note_on_c, 4, 72, 0
6, 40620, Note_on_c, 4, 69, 99
6, 40620, Note_on_c, 4, 72, 90
6, 40620, Note_on_c, 4, 65, 99
6, 40651, Note_on_c, 4, 65, 0
6, 40655, Note_on_c, 4, 72, 0
6, 40656, Note_on_c, 4, 69, 0
6, 40680, Note_on_c, 4, 69, 99
6, 40680, Note_on_c, 4, 72, 99
6, 40680, Note_on_c, 4, 65, 108
6, 40718, Note_on_c, 4, 65, 0
6, 40728, Note_on_c, 4, 69, 0
6, 40732, Note_on_c, 4, 72, 0
6, 40920, Note_on_c, 4, 76, 108
6, 40920, Note_on_c, 4, 70, 127
6, 40920, Note_on_c, 4, 67, 108
6, 40948, Note_on_c, 4, 67, 0
6, 40957, Note_on_c, 4, 70, 0
6, 40963, Note_on_c, 4, 76, 0
6, 40980, Note_on_c, 4, 76, 82
6, 40980, Note_on_c, 4, 70, 108
6, 40980, Note_on_c, 4, 67, 75
6, 41007, Note_on_c, 4, 67, 0
6, 41012, Note_on_c, 4, 70, 0
6, 41014, Note_on_c, 4, 76, 0
6, 41040, Note_on_c, 4, 70, 127
6, 41040, Note_on_c, 4, 67, 117
6, 41040, Note_on_c, 4, 76, 108
6, 41068, Note_on_c, 4, 67, 0
6, 41070, Note_on_c, 4, 70, 0
6, 41074, Note_on_c, 4, 76, 0
6, 41100, Note_on_c, 4, 76, 99
6, 41100, Note_on_c, 4, 70, 124
6, 41100, Note_on_c, 4, 67, 90
6, 41129, Note_on_c, 4, 67, 0
6, 41132, Note_on_c, 4, 70, 0
6, 41137, Note_on_c, 4, 76, 0
6, 41160, Note_on_c, 4, 76, 117
6, 41160, Note_on_c, 4, 70, 127
6, 41160, Note_on_c, 4, 67, 117
6, 41196, Note_on_c, 4, 67, 0
6, 41205, Note_on_c, 4, 70, 0
6, 41205, Note_on_c, 4, 76, 0
6, 41400, Note_on_c, 4, 65, 117
6, 41400, Note_on_c, 4, 68, 127
6, 41400, Note_on_c, 4, 74, 124
6, 41427, Note_on_c, 4, 68, 0
6, 41427, Note_on_c, 4, 65, 0
6, 41437, Note_on_c, 4, 74, 0
6, 41460, Note_on_c, 4, 74, 99
6, 41460, Note_on_c, 4, 68, 124
6, 41460, Note_on_c, 4, 65, 82
6, 41485, Note_on_c, 4, 65, 0
6, 41487, Note_on_c, 4, 68, 0
6, 41492, Note_on_c, 4, 74, 0
6, 41520, Note_on_c, 4, 74, 99
6, 41520, Note_on_c, 4, 68, 124
6, 41520, Note_on_c, 4, 65, 99
6, 41546, Note_on_c, 4, 65, 0
6, 41550, Note_on_c, 4, 68, 0
6, 41555, Note_on_c, 4, 74, 0
6, 41580, Note_on_c, 4, 74, 99
6, 41580, Note_on_c, 4, 68, 117
6, 41580, Note_on_c, 4, 65, 82
6, 41605, Note_on_c, 4, 65, 0
6, 41606, Note_on_c, 4, 68, 0
6, 41610, Note_on_c, 4, 74, 0
6, 41640, Note_on_c, 4, 74, 117
6, 41640, Note_on_c, 4, 68, 127
6, 41640, Note_on_c, 4, 65, 124
6, 41672, Note_on_c, 4, 65, 0
6, 41683, Note_on_c, 4, 68, 0
6, 41683, Note_on_c, 4, 74, 0
6, 41880, Note_on_c, 4, 65, 117
6, 41880, Note_on_c, 4, 72, 117
6, 41880, Note_on_c, 4, 69, 124
6, 41909, Note_on_c, 4, 65, 0
6, 41910, Note_on_c, 4, 69, 0
6, 41917, Note_on_c, 4, 72, 0
6, 41940, Note_on_c, 4, 69, 99
6, 41940, Note_on_c, 4, 72, 108
6, 41940, Note_on_c, 4, 65, 75
6, 41972, Note_on_c, 4, 65, 0
6, 41978, Note_on_c, 4, 69, 0
6, 41981, Note_on_c, 4, 72, 0
6, 42000, Note_on_c, 4, 69, 75
6, 42000, Note_on_c, 4, 72, 99
6, 42000, Note_on_c, 4, 65, 75
6, 42032, Note_on_c, 4, 65, 0
6, 42039, Note_on_c, 4, 72, 0
6, 42039, Note_on_c, 4, 69, 0
6, 42060, Note_on_c, 4, 69, 99
6, 42060, Note_on_c, 4, 72, 117
6, 42060, Note_on_c, 4, 65, 90
6, 42087, Note_on_c, 4, 65, 0
6, 42092, Note_on_c, 4, 69, 0
6, 42095, Note_on_c, 4, 72, 0
6, 42120, Note_on_c, 4, 72, 108
6, 42120, Note_on_c, 4, 69, 99
6, 42120, Note_on_c, 4, 65, 117
6, 42154, Note_on_c, 4, 65, 0
6, 42163, Note_on_c, 4, 69, 0
6, 42167, Note_on_c, 4, 72, 0
6, 42240, Note_on_c, 4, 60, 124
6, 42240, Note_on_c, 4, 53, 124
6, 42240, Note_on_c, 4, 65, 127
6, 42240, Note_on_c, 4, 72, 124
6, 42240, Note_on_c, 4, 69, 124
6, 42286, Note_on_c, 4, 65, 0
6, 42288, Note_on_c, 4, 72, 0
6, 42289, Note_on_c, 4, 69, 0
6, 42292, Note_on_c, 4, 53, 0
6, 42292, Note_on_c, 4, 60, 0
6, 42292, End_track
7, 0, Start_track
7, 0, MIDI_port, 0
7, 0, Title_t, "solo guit"
7, 0, Program_c, 5, 30
7, 0, Control_c, 5, 7, 80
7, 1, Control_c, 5, 93, 85
7, 486, Note_on_c, 5, 77, 101
7, 546, Note_on_c, 5, 75, 102
7, 549, Note_on_c, 5, 77, 0
7, 553, Pitch_bend_c, 5, 8192
7, 558, Pitch_bend_c, 5, 9088
7, 563, Pitch_bend_c, 5, 10624
7, 568, Pitch_bend_c, 5, 12032
7, 573, Pitch_bend_c, 5, 13184
7, 577, Pitch_bend_c, 5, 13952
7, 583, Pitch_bend_c, 5, 14336
7, 588, Pitch_bend_c, 5, 14848
7, 593, Pitch_bend_c, 5, 14976
7, 598, Pitch_bend_c, 5, 15232
7, 608, Pitch_bend_c, 5, 15488
7, 635, Pitch_bend_c, 5, 15104
7, 641, Pitch_bend_c, 5, 14336
7, 645, Pitch_bend_c, 5, 13184
7, 650, Pitch_bend_c, 5, 11648
7, 654, Pitch_bend_c, 5, 9984
7, 656, Note_on_c, 5, 75, 0
7, 660, Note_on_c, 5, 77, 109
7, 662, Pitch_bend_c, 5, 8448
7, 704, Pitch_bend_c, 5, 8192
7, 713, Note_on_c, 5, 75, 109
7, 716, Pitch_bend_c, 5, 8832
7, 719, Pitch_bend_c, 5, 9856
7, 722, Pitch_bend_c, 5, 10752
7, 724, Note_on_c, 5, 77, 0
7, 728, Pitch_bend_c, 5, 11776
7, 732, Pitch_bend_c, 5, 12672
7, 736, Pitch_bend_c, 5, 13440
7, 741, Pitch_bend_c, 5, 14208
7, 746, Pitch_bend_c, 5, 15232
7, 751, Pitch_bend_c, 5, 15744
7, 756, Pitch_bend_c, 5, 16000
7, 805, Pitch_bend_c, 5, 15744
7, 809, Pitch_bend_c, 5, 15232
7, 814, Pitch_bend_c, 5, 14208
7, 819, Pitch_bend_c, 5, 12928
7, 824, Pitch_bend_c, 5, 11392
7, 829, Pitch_bend_c, 5, 9856
7, 830, Note_on_c, 5, 75, 0
7, 833, Pitch_bend_c, 5, 8704
7, 838, Pitch_bend_c, 5, 8192
7, 841, Note_on_c, 5, 77, 109
7, 871, Pitch_bend_c, 5, 8192
7, 877, Pitch_bend_c, 5, 8576
7, 882, Pitch_bend_c, 5, 9088
7, 886, Pitch_bend_c, 5, 9984
7, 891, Pitch_bend_c, 5, 11136
7, 896, Pitch_bend_c, 5, 12288
7, 901, Pitch_bend_c, 5, 13568
7, 905, Note_on_c, 5, 77, 0
7, 905, Note_on_c, 5, 75, 106
7, 907, Pitch_bend_c, 5, 14720
7, 910, Pitch_bend_c, 5, 15744
7, 914, Pitch_bend_c, 5, 16000
7, 968, Pitch_bend_c, 5, 15872
7, 971, Pitch_bend_c, 5, 15360
7, 976, Pitch_bend_c, 5, 14336
7, 981, Pitch_bend_c, 5, 13184
7, 986, Pitch_bend_c, 5, 11392
7, 991, Pitch_bend_c, 5, 9728
7, 996, Pitch_bend_c, 5, 8320
7, 1001, Pitch_bend_c, 5, 8192
7, 1008, Note_on_c, 5, 75, 0
7, 1013, Note_on_c, 5, 77, 102
7, 1077, Note_on_c, 5, 75, 102
7, 1095, Note_on_c, 5, 77, 0
7, 1129, Note_on_c, 5, 75, 0
7, 1141, Note_on_c, 5, 72, 98
7, 1202, Note_on_c, 5, 70, 94
7, 1203, Note_on_c, 5, 72, 0
7, 1269, Note_on_c, 5, 68, 91
7, 1283, Note_on_c, 5, 70, 0
7, 1324, Note_on_c, 5, 68, 0
7, 1326, Note_on_c, 5, 65, 94
7, 1379, Note_on_c, 5, 65, 0
7, 1381, Note_on_c, 5, 68, 97
7, 1442, Note_on_c, 5, 68, 0
7, 1448, Note_on_c, 5, 65, 98
7, 1496, Note_on_c, 5, 65, 0
7, 1501, Note_on_c, 5, 63, 108
7, 1557, Note_on_c, 5, 63, 0
7, 1562, Note_on_c, 5, 60, 90
7, 1618, Note_on_c, 5, 58, 117
7, 1622, Note_on_c, 5, 60, 0
7, 1693, Note_on_c, 5, 56, 105
7, 1715, Note_on_c, 5, 58, 0
7, 1755, Note_on_c, 5, 53, 99
7, 1758, Note_on_c, 5, 56, 0
7, 1802, Note_on_c, 5, 53, 0
7, 1806, Note_on_c, 5, 56, 97
7, 1861, Note_on_c, 5, 55, 96
7, 1873, Note_on_c, 5, 56, 0
7, 1927, Note_on_c, 5, 55, 0
7, 1929, Note_on_c, 5, 53, 94
7, 1978, Note_on_c, 5, 53, 0
7, 25444, Note_on_c, 5, 82, 127
7, 25450, Pitch_bend_c, 5, 9216
7, 25455, Pitch_bend_c, 5, 10624
7, 25460, Pitch_bend_c, 5, 11904
7, 25465, Pitch_bend_c, 5, 13056
7, 25469, Pitch_bend_c, 5, 14208
7, 25474, Pitch_bend_c, 5, 15488
7, 25479, Pitch_bend_c, 5, 16000
7, 25503, Pitch_bend_c, 5, 16128
7, 25575, Pitch_bend_c, 5, 16000
7, 25590, Pitch_bend_c, 5, 15744
7, 25595, Pitch_bend_c, 5, 15488
7, 25600, Pitch_bend_c, 5, 14976
7, 25604, Pitch_bend_c, 5, 14336
7, 25607, Note_on_c, 5, 82, 0
7, 25610, Pitch_bend_c, 5, 13824
7, 25614, Pitch_bend_c, 5, 13184
7, 25618, Pitch_bend_c, 5, 12800
7, 25623, Pitch_bend_c, 5, 12416
7, 25631, Note_on_c, 5, 82, 127
7, 25634, Pitch_bend_c, 5, 12160
7, 25642, Pitch_bend_c, 5, 12544
7, 25647, Pitch_bend_c, 5, 13312
7, 25652, Pitch_bend_c, 5, 14208
7, 25657, Pitch_bend_c, 5, 15104
7, 25662, Pitch_bend_c, 5, 15744
7, 25666, Pitch_bend_c, 5, 16000
7, 25690, Pitch_bend_c, 5, 16128
7, 25767, Pitch_bend_c, 5, 15872
7, 25772, Pitch_bend_c, 5, 15616
7, 25776, Pitch_bend_c, 5, 14848
7, 25780, Note_on_c, 5, 82, 0
7, 25783, Pitch_bend_c, 5, 13824
7, 25787, Pitch_bend_c, 5, 12928
7, 25792, Pitch_bend_c, 5, 12160
7, 25797, Pitch_bend_c, 5, 11392
7, 25801, Pitch_bend_c, 5, 11008
7, 25806, Pitch_bend_c, 5, 10624
7, 25808, Note_on_c, 5, 82, 127
7, 25811, Pitch_bend_c, 5, 10368
7, 25816, Pitch_bend_c, 5, 10112
7, 25831, Pitch_bend_c, 5, 10496
7, 25836, Pitch_bend_c, 5, 11136
7, 25840, Pitch_bend_c, 5, 12032
7, 25845, Pitch_bend_c, 5, 13312
7, 25850, Pitch_bend_c, 5, 14208
7, 25855, Pitch_bend_c, 5, 14720
7, 25860, Pitch_bend_c, 5, 14976
7, 25863, Pitch_bend_c, 5, 15360
7, 25870, Pitch_bend_c, 5, 15488
7, 25878, Pitch_bend_c, 5, 15744
7, 25888, Pitch_bend_c, 5, 16000
7, 25951, Pitch_bend_c, 5, 15360
7, 25956, Pitch_bend_c, 5, 13312
7, 25959, Pitch_bend_c, 5, 11520
7, 25964, Note_on_c, 5, 82, 0
7, 25967, Pitch_bend_c, 5, 9856
7, 25970, Pitch_bend_c, 5, 8704
7, 25974, Pitch_bend_c, 5, 8192
7, 25991, Note_on_c, 5, 82, 127
7, 25994, Pitch_bend_c, 5, 8576
7, 25998, Pitch_bend_c, 5, 9472
7, 26003, Pitch_bend_c, 5, 10880
7, 26008, Pitch_bend_c, 5, 12416
7, 26013, Pitch_bend_c, 5, 13952
7, 26017, Pitch_bend_c, 5, 15488
7, 26022, Pitch_bend_c, 5, 16000
7, 26037, Pitch_bend_c, 5, 16128
7, 26139, Note_on_c, 5, 82, 0
7, 26171, Note_on_c, 5, 82, 127
7, 26222, Note_on_c, 5, 82, 0
7, 26253, Note_on_c, 5, 82, 127
7, 26273, Pitch_bend_c, 5, 16000
7, 26291, Note_on_c, 5, 82, 0
7, 26325, Note_on_c, 5, 82, 127
7, 26360, Note_on_c, 5, 82, 0
7, 26364, Pitch_bend_c, 5, 15744
7, 26388, Pitch_bend_c, 5, 15616
7, 26398, Note_on_c, 5, 82, 127
7, 26442, Note_on_c, 5, 82, 0
7, 26450, Pitch_bend_c, 5, 15360
7, 26461, Pitch_bend_c, 5, 15232
7, 26470, Pitch_bend_c, 5, 14976
7, 26477, Note_on_c, 5, 82, 127
7, 26521, Note_on_c, 5, 82, 0
7, 26527, Pitch_bend_c, 5, 14720
7, 26537, Pitch_bend_c, 5, 14464
7, 26546, Pitch_bend_c, 5, 14208
7, 26556, Pitch_bend_c, 5, 13952
7, 26559, Note_on_c, 5, 82, 127
7, 26585, Pitch_bend_c, 5, 13696
7, 26599, Note_on_c, 5, 82, 0
7, 26609, Pitch_bend_c, 5, 13568
7, 26619, Pitch_bend_c, 5, 13312
7, 26628, Pitch_bend_c, 5, 13056
7, 26641, Note_on_c, 5, 82, 127
7, 26647, Pitch_bend_c, 5, 12800
7, 26686, Note_on_c, 5, 82, 0
7, 26696, Pitch_bend_c, 5, 12416
7, 26701, Pitch_bend_c, 5, 12288
7, 26706, Pitch_bend_c, 5, 12032
7, 26715, Pitch_bend_c, 5, 11648
7, 26724, Pitch_bend_c, 5, 11392
7, 26726, Note_on_c, 5, 82, 127
7, 26767, Note_on_c, 5, 82, 0
7, 26778, Pitch_bend_c, 5, 11008
7, 26783, Pitch_bend_c, 5, 10752
7, 26792, Pitch_bend_c, 5, 10496
7, 26797, Pitch_bend_c, 5, 10240
7, 26802, Pitch_bend_c, 5, 10112
7, 26808, Note_on_c, 5, 82, 127
7, 26825, Pitch_bend_c, 5, 9728
7, 26830, Pitch_bend_c, 5, 9344
7, 26835, Pitch_bend_c, 5, 8960
7, 26839, Pitch_bend_c, 5, 8832
7, 26844, Pitch_bend_c, 5, 8576
7, 26849, Pitch_bend_c, 5, 8320
7, 26850, Note_on_c, 5, 82, 0
7, 26855, Pitch_bend_c, 5, 8192
7, 26886, Note_on_c, 5, 80, 127
7, 26918, Control_c, 5, 1, 14
7, 26923, Control_c, 5, 1, 27
7, 26926, Control_c, 5, 1, 41
7, 26931, Control_c, 5, 1, 55
7, 26936, Control_c, 5, 1, 70
7, 26941, Control_c, 5, 1, 83
7, 26946, Control_c, 5, 1, 92
7, 26951, Control_c, 5, 1, 98
7, 26955, Control_c, 5, 1, 101
7, 26960, Control_c, 5, 1, 105
7, 26965, Control_c, 5, 1, 107
7, 26970, Control_c, 5, 1, 110
7, 26975, Control_c, 5, 1, 113
7, 26979, Control_c, 5, 1, 115
7, 26984, Control_c, 5, 1, 117
7, 27048, Control_c, 5, 1, 114
7, 27061, Control_c, 5, 1, 112
7, 27076, Control_c, 5, 1, 109
7, 27081, Control_c, 5, 1, 106
7, 27086, Control_c, 5, 1, 100
7, 27091, Control_c, 5, 1, 91
7, 27096, Control_c, 5, 1, 79
7, 27101, Control_c, 5, 1, 60
7, 27106, Control_c, 5, 1, 34
7, 27109, Note_on_c, 5, 80, 0
7, 27112, Control_c, 5, 1, 4
7, 27115, Control_c, 5, 1, 0
7, 27116, Note_on_c, 5, 77, 99
7, 27177, Note_on_c, 5, 77, 0
7, 27181, Note_on_c, 5, 80, 117
7, 27234, Note_on_c, 5, 80, 0
7, 27236, Note_on_c, 5, 77, 90
7, 27278, Note_on_c, 5, 77, 0
7, 27300, Note_on_c, 5, 80, 127
7, 27556, Note_on_c, 5, 75, 127
7, 27564, Pitch_bend_c, 5, 8192
7, 27569, Pitch_bend_c, 5, 9088
7, 27574, Pitch_bend_c, 5, 11008
7, 27578, Pitch_bend_c, 5, 12672
7, 27583, Pitch_bend_c, 5, 14208
7, 27585, Note_on_c, 5, 80, 0
7, 27588, Pitch_bend_c, 5, 15616
7, 27593, Pitch_bend_c, 5, 16000
7, 27603, Pitch_bend_c, 5, 16256
7, 27712, Pitch_bend_c, 5, 15872
7, 27717, Pitch_bend_c, 5, 15232
7, 27722, Pitch_bend_c, 5, 13568
7, 27727, Pitch_bend_c, 5, 11776
7, 27732, Pitch_bend_c, 5, 9984
7, 27736, Pitch_bend_c, 5, 8960
7, 27746, Pitch_bend_c, 5, 10624
7, 27751, Pitch_bend_c, 5, 13056
7, 27756, Pitch_bend_c, 5, 15488
7, 27760, Pitch_bend_c, 5, 16000
7, 27765, Pitch_bend_c, 5, 16256
7, 27805, Pitch_bend_c, 5, 16000
7, 27813, Pitch_bend_c, 5, 15616
7, 27818, Pitch_bend_c, 5, 14336
7, 27822, Pitch_bend_c, 5, 12672
7, 27827, Pitch_bend_c, 5, 11264
7, 27832, Pitch_bend_c, 5, 10240
7, 27837, Pitch_bend_c, 5, 9984
7, 27842, Pitch_bend_c, 5, 10752
7, 27847, Pitch_bend_c, 5, 12416
7, 27852, Pitch_bend_c, 5, 14976
7, 27857, Pitch_bend_c, 5, 16128
7, 27900, Pitch_bend_c, 5, 15872
7, 27905, Pitch_bend_c, 5, 14976
7, 27910, Pitch_bend_c, 5, 12928
7, 27915, Pitch_bend_c, 5, 10880
7, 27920, Pitch_bend_c, 5, 8832
7, 27925, Pitch_bend_c, 5, 8192
7, 27955, Note_on_c, 5, 75, 0
7, 27959, Note_on_c, 5, 72, 108
7, 28024, Note_on_c, 5, 72, 0
7, 28028, Note_on_c, 5, 75, 124
7, 28086, Note_on_c, 5, 75, 0
7, 28093, Note_on_c, 5, 72, 99
7, 28144, Note_on_c, 5, 70, 124
7, 28146, Note_on_c, 5, 72, 0
7, 28213, Note_on_c, 5, 68, 124
7, 28225, Note_on_c, 5, 70, 0
7, 28266, Note_on_c, 5, 68, 0
7, 28272, Note_on_c, 5, 65, 108
7, 28315, Note_on_c, 5, 65, 0
7, 28328, Note_on_c, 5, 68, 127
7, 28333, Control_c, 5, 1, 15
7, 28338, Control_c, 5, 1, 38
7, 28343, Control_c, 5, 1, 61
7, 28348, Control_c, 5, 1, 80
7, 28353, Control_c, 5, 1, 93
7, 28357, Control_c, 5, 1, 101
7, 28363, Control_c, 5, 1, 107
7, 28368, Control_c, 5, 1, 112
7, 28373, Control_c, 5, 1, 116
7, 28376, Control_c, 5, 1, 118
7, 28395, Control_c, 5, 1, 116
7, 28405, Control_c, 5, 1, 114
7, 28416, Control_c, 5, 1, 111
7, 28420, Control_c, 5, 1, 107
7, 28425, Control_c, 5, 1, 101
7, 28430, Control_c, 5, 1, 93
7, 28435, Control_c, 5, 1, 81
7, 28438, Control_c, 5, 1, 62
7, 28443, Control_c, 5, 1, 36
7, 28449, Control_c, 5, 1, 4
7, 28453, Control_c, 5, 1, 0
7, 28454, Note_on_c, 5, 68, 0
7, 28457, Note_on_c, 5, 65, 124
7, 28521, Control_c, 5, 1, 3
7, 28526, Control_c, 5, 1, 10
7, 28531, Control_c, 5, 1, 16
7, 28536, Control_c, 5, 1, 21
7, 28541, Control_c, 5, 1, 26
7, 28546, Control_c, 5, 1, 33
7, 28550, Control_c, 5, 1, 44
7, 28556, Control_c, 5, 1, 56
7, 28560, Control_c, 5, 1, 66
7, 28565, Control_c, 5, 1, 74
7, 28569, Control_c, 5, 1, 78
7, 28570, Control_c, 5, 1, 78
7, 28571, Note_on_c, 5, 63, 124
7, 28575, Control_c, 5, 1, 82
7, 28576, Note_on_c, 5, 65, 0
7, 28583, Control_c, 5, 1, 79
7, 28588, Control_c, 5, 1, 70
7, 28593, Control_c, 5, 1, 60
7, 28598, Control_c, 5, 1, 50
7, 28603, Control_c, 5, 1, 39
7, 28608, Control_c, 5, 1, 23
7, 28612, Control_c, 5, 1, 9
7, 28617, Control_c, 5, 1, 3
7, 28620, Note_on_c, 5, 65, 124
7, 28623, Note_on_c, 5, 63, 0
7, 28672, Note_on_c, 5, 65, 0
7, 28680, Note_on_c, 5, 65, 117
7, 28789, Note_on_c, 5, 65, 0
7, 28806, Note_on_c, 5, 68, 127
7, 28864, Note_on_c, 5, 68, 0
7, 28876, Note_on_c, 5, 65, 75
7, 28878, Note_on_c, 5, 67, 68
7, 28903, Note_on_c, 5, 67, 0
7, 28925, Note_on_c, 5, 63, 117
7, 28930, Note_on_c, 5, 65, 0
7, 28981, Note_on_c, 5, 63, 0
7, 28986, Note_on_c, 5, 60, 117
7, 28995, Control_c, 5, 1, 8
7, 29000, Control_c, 5, 1, 29
7, 29004, Control_c, 5, 1, 51
7, 29010, Control_c, 5, 1, 68
7, 29015, Control_c, 5, 1, 82
7, 29020, Control_c, 5, 1, 93
7, 29023, Control_c, 5, 1, 101
7, 29028, Control_c, 5, 1, 107
7, 29033, Control_c, 5, 1, 111
7, 29052, Control_c, 5, 1, 105
7, 29058, Control_c, 5, 1, 99
7, 29063, Control_c, 5, 1, 91
7, 29068, Control_c, 5, 1, 82
7, 29071, Control_c, 5, 1, 69
7, 29076, Control_c, 5, 1, 55
7, 29081, Control_c, 5, 1, 38
7, 29086, Control_c, 5, 1, 17
7, 29091, Control_c, 5, 1, 3
7, 29103, Note_on_c, 5, 63, 108
7, 29107, Note_on_c, 5, 60, 0
7, 29145, Note_on_c, 5, 63, 0
7, 29159, Note_on_c, 5, 65, 108
7, 29208, Note_on_c, 5, 65, 0
7, 29220, Note_on_c, 5, 68, 124
7, 29273, Note_on_c, 5, 68, 0
7, 29282, Note_on_c, 5, 70, 124
7, 29343, Note_on_c, 5, 68, 124
7, 29347, Note_on_c, 5, 70, 0
7, 29355, Pitch_bend_c, 5, 8704
7, 29360, Pitch_bend_c, 5, 9984
7, 29365, Pitch_bend_c, 5, 12032
7, 29370, Pitch_bend_c, 5, 14336
7, 29375, Pitch_bend_c, 5, 15744
7, 29380, Pitch_bend_c, 5, 16000
7, 29437, Pitch_bend_c, 5, 15872
7, 29441, Pitch_bend_c, 5, 15360
7, 29447, Pitch_bend_c, 5, 13696
7, 29451, Pitch_bend_c, 5, 11648
7, 29456, Pitch_bend_c, 5, 8832
7, 29458, Note_on_c, 5, 68, 0
7, 29459, Note_on_c, 5, 70, 124
7, 29461, Pitch_bend_c, 5, 8192
7, 29513, Pitch_bend_c, 5, 8704
7, 29518, Pitch_bend_c, 5, 10368
7, 29522, Note_on_c, 5, 68, 117
7, 29527, Pitch_bend_c, 5, 15232
7, 29529, Note_on_c, 5, 70, 0
7, 29532, Pitch_bend_c, 5, 16000
7, 29586, Pitch_bend_c, 5, 15744
7, 29591, Pitch_bend_c, 5, 15104
7, 29594, Pitch_bend_c, 5, 13824
7, 29599, Pitch_bend_c, 5, 12416
7, 29604, Pitch_bend_c, 5, 10368
7, 29609, Pitch_bend_c, 5, 8448
7, 29614, Pitch_bend_c, 5, 8192
7, 29634, Note_on_c, 5, 70, 117
7, 29642, Note_on_c, 5, 68, 0
7, 29687, Note_on_c, 5, 70, 0
7, 29702, Note_on_c, 5, 72, 99
7, 29749, Note_on_c, 5, 72, 0
7, 29760, Note_on_c, 5, 75, 124
7, 29788, Note_on_c, 5, 75, 0
7, 29790, Note_on_c, 5, 72, 112
7, 29814, Note_on_c, 5, 72, 0
7, 29820, Note_on_c, 5, 77, 112
7, 29850, Note_on_c, 5, 72, 112
7, 29853, Note_on_c, 5, 77, 0
7, 29880, Note_on_c, 5, 75, 112
7, 29883, Note_on_c, 5, 72, 0
7, 29904, Note_on_c, 5, 75, 0
7, 29910, Note_on_c, 5, 72, 113
7, 29934, Note_on_c, 5, 72, 0
7, 29940, Note_on_c, 5, 77, 113
7, 29970, Note_on_c, 5, 72, 113
7, 29971, Note_on_c, 5, 77, 0
7, 30000, Note_on_c, 5, 75, 114
7, 30001, Note_on_c, 5, 72, 0
7, 30022, Note_on_c, 5, 75, 0
7, 30030, Note_on_c, 5, 72, 114
7, 30045, Note_on_c, 5, 72, 0
7, 30060, Note_on_c, 5, 77, 114
7, 30087, Note_on_c, 5, 77, 0
7, 30090, Note_on_c, 5, 72, 114
7, 30119, Note_on_c, 5, 72, 0
7, 30120, Note_on_c, 5, 75, 115
7, 30145, Note_on_c, 5, 75, 0
7, 30150, Note_on_c, 5, 72, 115
7, 30176, Note_on_c, 5, 72, 0
7, 30180, Note_on_c, 5, 77, 115
7, 30210, Note_on_c, 5, 72, 116
7, 30214, Note_on_c, 5, 77, 0
7, 30240, Note_on_c, 5, 75, 116
7, 30241, Note_on_c, 5, 72, 0
7, 30262, Note_on_c, 5, 75, 0
7, 30270, Note_on_c, 5, 72, 116
7, 30294, Note_on_c, 5, 72, 0
7, 30300, Note_on_c, 5, 77, 116
7, 30330, Note_on_c, 5, 72, 117
7, 30333, Note_on_c, 5, 77, 0
7, 30359, Note_on_c, 5, 72, 0
7, 30360, Note_on_c, 5, 75, 117
7, 30380, Note_on_c, 5, 75, 0
7, 30390, Note_on_c, 5, 72, 117
7, 30410, Note_on_c, 5, 72, 0
7, 30420, Note_on_c, 5, 77, 118
7, 30450, Note_on_c, 5, 72, 118
7, 30452, Note_on_c, 5, 77, 0
7, 30479, Note_on_c, 5, 72, 0
7, 30480, Note_on_c, 5, 75, 118
7, 30505, Note_on_c, 5, 75, 0
7, 30510, Note_on_c, 5, 72, 119
7, 30534, Note_on_c, 5, 72, 0
7, 30540, Note_on_c, 5, 77, 119
7, 30570, Note_on_c, 5, 75, 119
7, 30580, Pitch_bend_c, 5, 9600
7, 30585, Pitch_bend_c, 5, 10752
7, 30590, Pitch_bend_c, 5, 11520
7, 30592, Note_on_c, 5, 77, 0
7, 30595, Pitch_bend_c, 5, 12416
7, 30599, Pitch_bend_c, 5, 13440
7, 30605, Pitch_bend_c, 5, 14592
7, 30610, Pitch_bend_c, 5, 15616
7, 30615, Pitch_bend_c, 5, 16000
7, 30625, Pitch_bend_c, 5, 16128
7, 30696, Pitch_bend_c, 5, 15872
7, 30701, Pitch_bend_c, 5, 15360
7, 30706, Pitch_bend_c, 5, 14336
7, 30711, Pitch_bend_c, 5, 13312
7, 30716, Pitch_bend_c, 5, 12416
7, 30721, Pitch_bend_c, 5, 11648
7, 30726, Pitch_bend_c, 5, 11264
7, 30734, Pitch_bend_c, 5, 11648
7, 30739, Pitch_bend_c, 5, 12544
7, 30744, Pitch_bend_c, 5, 13824
7, 30749, Pitch_bend_c, 5, 15360
7, 30754, Pitch_bend_c, 5, 16000
7, 30764, Pitch_bend_c, 5, 16256
7, 30807, Pitch_bend_c, 5, 15744
7, 30812, Pitch_bend_c, 5, 15104
7, 30817, Pitch_bend_c, 5, 13952
7, 30822, Pitch_bend_c, 5, 12800
7, 30825, Pitch_bend_c, 5, 11648
7, 30830, Pitch_bend_c, 5, 10752
7, 30835, Pitch_bend_c, 5, 9984
7, 30845, Pitch_bend_c, 5, 10240
7, 30850, Pitch_bend_c, 5, 11648
7, 30855, Pitch_bend_c, 5, 13440
7, 30859, Pitch_bend_c, 5, 15488
7, 30865, Pitch_bend_c, 5, 16000
7, 30874, Pitch_bend_c, 5, 16128
7, 30902, Pitch_bend_c, 5, 15744
7, 30907, Pitch_bend_c, 5, 15104
7, 30912, Pitch_bend_c, 5, 13952
7, 30917, Pitch_bend_c, 5, 12800
7, 30922, Pitch_bend_c, 5, 11520
7, 30926, Pitch_bend_c, 5, 10368
7, 30931, Pitch_bend_c, 5, 9472
7, 30936, Pitch_bend_c, 5, 8960
7, 30947, Pitch_bend_c, 5, 9600
7, 30951, Pitch_bend_c, 5, 11392
7, 30956, Pitch_bend_c, 5, 13696
7, 30961, Pitch_bend_c, 5, 15872
7, 30966, Pitch_bend_c, 5, 16128
7, 31008, Pitch_bend_c, 5, 16000
7, 31018, Pitch_bend_c, 5, 15488
7, 31023, Pitch_bend_c, 5, 14208
7, 31028, Pitch_bend_c, 5, 12800
7, 31032, Pitch_bend_c, 5, 11264
7, 31037, Pitch_bend_c, 5, 9856
7, 31042, Pitch_bend_c, 5, 8704
7, 31047, Pitch_bend_c, 5, 8192
7, 31071, Note_on_c, 5, 75, 0
7, 31071, End_track
8, 0, Start_track
8, 0, MIDI_port, 0
8, 0, Title_t, ">>DRUMS 1"
8, 0, Program_c, 9, 0
8, 0, Control_c, 9, 7, 100
8, 480, Note_on_c, 9, 36, 127
8, 480, Note_on_c, 9, 42, 127
8, 503, Note_on_c, 9, 42, 0
8, 532, Note_on_c, 9, 36, 0
8, 540, Note_on_c, 9, 42, 127
8, 562, Note_on_c, 9, 42, 0
8, 600, Note_on_c, 9, 38, 127
8, 600, Note_on_c, 9, 42, 127
8, 622, Note_on_c, 9, 42, 0
8, 641, Note_on_c, 9, 38, 0
8, 660, Note_on_c, 9, 42, 127
8, 678, Note_on_c, 9, 42, 0
8, 720, Note_on_c, 9, 36, 127
8, 720, Note_on_c, 9, 42, 127
8, 740, Note_on_c, 9, 42, 0
8, 754, Note_on_c, 9, 36, 0
8, 780, Note_on_c, 9, 42, 127
8, 798, Note_on_c, 9, 42, 0
8, 840, Note_on_c, 9, 38, 127
8, 840, Note_on_c, 9, 42, 127
8, 865, Note_on_c, 9, 42, 0
8, 881, Note_on_c, 9, 38, 0
8, 900, Note_on_c, 9, 42, 127
8, 925, Note_on_c, 9, 42, 0
8, 960, Note_on_c, 9, 36, 127
8, 960, Note_on_c, 9, 42, 127
8, 987, Note_on_c, 9, 42, 0
8, 997, Note_on_c, 9, 36, 0
8, 1020, Note_on_c, 9, 42, 127
8, 1043, Note_on_c, 9, 42, 0
8, 1080, Note_on_c, 9, 38, 127
8, 1080, Note_on_c, 9, 42, 127
8, 1103, Note_on_c, 9, 42, 0
8, 1119, Note_on_c, 9, 38, 0
8, 1140, Note_on_c, 9, 42, 127
8, 1163, Note_on_c, 9, 42, 0
8, 1200, Note_on_c, 9, 36, 127
8, 1200, Note_on_c, 9, 42, 127
8, 1222, Note_on_c, 9, 42, 0
8, 1236, Note_on_c, 9, 36, 0
8, 1260, Note_on_c, 9, 42, 127
8, 1283, Note_on_c, 9, 42, 0
8, 1320, Note_on_c, 9, 38, 127
8, 1320, Note_on_c, 9, 42, 127
8, 1343, Note_on_c, 9, 42, 0
8, 1352, Note_on_c, 9, 38, 0
8, 1380, Note_on_c, 9, 42, 127
8, 1402, Note_on_c, 9, 42, 0
8, 1440, Note_on_c, 9, 36, 127
8, 1440, Note_on_c, 9, 42, 127
8, 1462, Note_on_c, 9, 42, 0
8, 1471, Note_on_c, 9, 36, 0
8, 1500, Note_on_c, 9, 42, 127
8, 1520, Note_on_c, 9, 42, 0
8, 1560, Note_on_c, 9, 38, 127
8, 1560, Note_on_c, 9, 42, 127
8, 1583, Note_on_c, 9, 42, 0
8, 1589, Note_on_c, 9, 38, 0
8, 1620, Note_on_c, 9, 42, 127
8, 1641, Note_on_c, 9, 42, 0
8, 1680, Note_on_c, 9, 36, 127
8, 1680, Note_on_c, 9, 42, 127
8, 1703, Note_on_c, 9, 42, 0
8, 1712, Note_on_c, 9, 36, 0
8, 1740, Note_on_c, 9, 42, 127
8, 1763, Note_on_c, 9, 42, 0
8, 1800, Note_on_c, 9, 38, 127
8, 1800, Note_on_c, 9, 42, 127
8, 1821, Note_on_c, 9, 42, 0
8, 1834, Note_on_c, 9, 38, 0
8, 1860, Note_on_c, 9, 42, 127
8, 1883, Note_on_c, 9, 42, 0
8, 1920, Note_on_c, 9, 38, 127
8, 1920, Note_on_c, 9, 36, 127
8, 1920, Note_on_c, 9, 49, 127
8, 1920, Note_on_c, 9, 42, 127
8, 1950, Note_on_c, 9, 36, 0
8, 1952, Note_on_c, 9, 38, 0
8, 1953, Note_on_c, 9, 42, 0
8, 1955, Note_on_c, 9, 49, 0
8, 2400, Note_on_c, 9, 36, 127
8, 2400, Note_on_c, 9, 51, 127
8, 2420, Note_on_c, 9, 51, 0
8, 2452, Note_on_c, 9, 36, 0
8, 2460, Note_on_c, 9, 51, 120
8, 2478, Note_on_c, 9, 51, 0
8, 2520, Note_on_c, 9, 38, 120
8, 2520, Note_on_c, 9, 51, 127
8, 2543, Note_on_c, 9, 51, 0
8, 2558, Note_on_c, 9, 38, 0
8, 2580, Note_on_c, 9, 51, 127
8, 2600, Note_on_c, 9, 51, 0
8, 2640, Note_on_c, 9, 36, 120
8, 2640, Note_on_c, 9, 51, 127
8, 2663, Note_on_c, 9, 51, 0
8, 2679, Note_on_c, 9, 36, 0
8, 2700, Note_on_c, 9, 51, 127
8, 2722, Note_on_c, 9, 51, 0
8, 2760, Note_on_c, 9, 38, 127
8, 2760, Note_on_c, 9, 51, 127
8, 2788, Note_on_c, 9, 51, 0
8, 2794, Note_on_c, 9, 38, 0
8, 2820, Note_on_c, 9, 51, 127
8, 2842, Note_on_c, 9, 51, 0
8, 2880, Note_on_c, 9, 36, 127
8, 2880, Note_on_c, 9, 51, 127
8, 2902, Note_on_c, 9, 51, 0
8, 2912, Note_on_c, 9, 36, 0
8, 2940, Note_on_c, 9, 51, 127
8, 2963, Note_on_c, 9, 51, 0
8, 3000, Note_on_c, 9, 38, 127
8, 3000, Note_on_c, 9, 51, 127
8, 3023, Note_on_c, 9, 51, 0
8, 3034, Note_on_c, 9, 38, 0
8, 3060, Note_on_c, 9, 51, 127
8, 3081, Note_on_c, 9, 51, 0
8, 3120, Note_on_c, 9, 36, 120
8, 3120, Note_on_c, 9, 51, 127
8, 3145, Note_on_c, 9, 51, 0
8, 3152, Note_on_c, 9, 36, 0
8, 3180, Note_on_c, 9, 51, 127
8, 3201, Note_on_c, 9, 51, 0
8, 3240, Note_on_c, 9, 38, 127
8, 3240, Note_on_c, 9, 51, 127
8, 3265, Note_on_c, 9, 51, 0
8, 3269, Note_on_c, 9, 38, 0
8, 3300, Note_on_c, 9, 51, 127
8, 3320, Note_on_c, 9, 51, 0
8, 3360, Note_on_c, 9, 36, 112
8, 3360, Note_on_c, 9, 51, 127
8, 3383, Note_on_c, 9, 51, 0
8, 3389, Note_on_c, 9, 36, 0
8, 3420, Note_on_c, 9, 51, 127
8, 3442, Note_on_c, 9, 51, 0
8, 3480, Note_on_c, 9, 38, 127
8, 3480, Note_on_c, 9, 51, 127
8, 3503, Note_on_c, 9, 51, 0
8, 3509, Note_on_c, 9, 38, 0
8, 3540, Note_on_c, 9, 51, 127
8, 3560, Note_on_c, 9, 51, 0
8, 3600, Note_on_c, 9, 36, 112
8, 3600, Note_on_c, 9, 51, 127
8, 3623, Note_on_c, 9, 51, 0
8, 3634, Note_on_c, 9, 36, 0
8, 3660, Note_on_c, 9, 51, 127
8, 3680, Note_on_c, 9, 51, 0
8, 3720, Note_on_c, 9, 38, 127
8, 3720, Note_on_c, 9, 51, 127
8, 3743, Note_on_c, 9, 51, 0
8, 3745, Note_on_c, 9, 38, 0
8, 3780, Note_on_c, 9, 51, 127
8, 3800, Note_on_c, 9, 51, 0
8, 3840, Note_on_c, 9, 36, 127
8, 3840, Note_on_c, 9, 51, 127
8, 3863, Note_on_c, 9, 51, 0
8, 3869, Note_on_c, 9, 36, 0
8, 3900, Note_on_c, 9, 51, 127
8, 3923, Note_on_c, 9, 51, 0
8, 3960, Note_on_c, 9, 38, 120
8, 3960, Note_on_c, 9, 51, 127
8, 3983, Note_on_c, 9, 51, 0
8, 3989, Note_on_c, 9, 38, 0
8, 4020, Note_on_c, 9, 51, 127
8, 4042, Note_on_c, 9, 51, 0
8, 4080, Note_on_c, 9, 36, 120
8, 4080, Note_on_c, 9, 51, 127
8, 4102, Note_on_c, 9, 51, 0
8, 4114, Note_on_c, 9, 36, 0
8, 4140, Note_on_c, 9, 51, 127
8, 4163, Note_on_c, 9, 51, 0
8, 4200, Note_on_c, 9, 38, 120
8, 4200, Note_on_c, 9, 51, 127
8, 4222, Note_on_c, 9, 51, 0
8, 4227, Note_on_c, 9, 38, 0
8, 4260, Note_on_c, 9, 51, 127
8, 4278, Note_on_c, 9, 51, 0
8, 4320, Note_on_c, 9, 36, 127
8, 4320, Note_on_c, 9, 51, 127
8, 4342, Note_on_c, 9, 51, 0
8, 4351, Note_on_c, 9, 36, 0
8, 4380, Note_on_c, 9, 51, 127
8, 4398, Note_on_c, 9, 51, 0
8, 4440, Note_on_c, 9, 38, 120
8, 4440, Note_on_c, 9, 51, 127
8, 4460, Note_on_c, 9, 51, 0
8, 4470, Note_on_c, 9, 38, 0
8, 4500, Note_on_c, 9, 51, 127
8, 4518, Note_on_c, 9, 51, 0
8, 4560, Note_on_c, 9, 36, 127
8, 4560, Note_on_c, 9, 51, 127
8, 4581, Note_on_c, 9, 51, 0
8, 4589, Note_on_c, 9, 36, 0
8, 4620, Note_on_c, 9, 51, 127
8, 4638, Note_on_c, 9, 51, 0
8, 4680, Note_on_c, 9, 38, 127
8, 4680, Note_on_c, 9, 51, 127
8, 4702, Note_on_c, 9, 51, 0
8, 4710, Note_on_c, 9, 38, 0
8, 4740, Note_on_c, 9, 51, 127
8, 4760, Note_on_c, 9, 51, 0
8, 4800, Note_on_c, 9, 36, 112
8, 4800, Note_on_c, 9, 51, 127
8, 4823, Note_on_c, 9, 51, 0
8, 4829, Note_on_c, 9, 36, 0
8, 4860, Note_on_c, 9, 51, 127
8, 4882, Note_on_c, 9, 51, 0
8, 4920, Note_on_c, 9, 38, 127
8, 4920, Note_on_c, 9, 51, 127
8, 4943, Note_on_c, 9, 51, 0
8, 4949, Note_on_c, 9, 38, 0
8, 4980, Note_on_c, 9, 51, 127
8, 5000, Note_on_c, 9, 51, 0
8, 5040, Note_on_c, 9, 36, 127
8, 5040, Note_on_c, 9, 51, 127
8, 5060, Note_on_c, 9, 51, 0
8, 5071, Note_on_c, 9, 36, 0
8, 5100, Note_on_c, 9, 51, 127
8, 5120, Note_on_c, 9, 51, 0
8, 5160, Note_on_c, 9, 38, 127
8, 5160, Note_on_c, 9, 51, 127
8, 5183, Note_on_c, 9, 51, 0
8, 5189, Note_on_c, 9, 38, 0
8, 5220, Note_on_c, 9, 51, 127
8, 5241, Note_on_c, 9, 51, 0
8, 5280, Note_on_c, 9, 36, 127
8, 5280, Note_on_c, 9, 51, 127
8, 5303, Note_on_c, 9, 51, 0
8, 5307, Note_on_c, 9, 36, 0
8, 5340, Note_on_c, 9, 51, 127
8, 5363, Note_on_c, 9, 51, 0
8, 5400, Note_on_c, 9, 38, 120
8, 5400, Note_on_c, 9, 51, 127
8, 5421, Note_on_c, 9, 51, 0
8, 5427, Note_on_c, 9, 38, 0
8, 5460, Note_on_c, 9, 51, 127
8, 5480, Note_on_c, 9, 51, 0
8, 5520, Note_on_c, 9, 36, 120
8, 5520, Note_on_c, 9, 51, 127
8, 5542, Note_on_c, 9, 51, 0
8, 5547, Note_on_c, 9, 36, 0
8, 5580, Note_on_c, 9, 51, 127
8, 5600, Note_on_c, 9, 51, 0
8, 5640, Note_on_c, 9, 38, 120
8, 5640, Note_on_c, 9, 51, 127
8, 5661, Note_on_c, 9, 51, 0
8, 5667, Note_on_c, 9, 38, 0
8, 5700, Note_on_c, 9, 51, 127
8, 5720, Note_on_c, 9, 51, 0
8, 5760, Note_on_c, 9, 36, 120
8, 5760, Note_on_c, 9, 51, 127
8, 5780, Note_on_c, 9, 51, 0
8, 5787, Note_on_c, 9, 36, 0
8, 5820, Note_on_c, 9, 51, 127
8, 5840, Note_on_c, 9, 51, 0
8, 5880, Note_on_c, 9, 38, 127
8, 5880, Note_on_c, 9, 51, 127
8, 5902, Note_on_c, 9, 51, 0
8, 5907, Note_on_c, 9, 38, 0
8, 5940, Note_on_c, 9, 51, 127
8, 5961, Note_on_c, 9, 51, 0
8, 6000, Note_on_c, 9, 36, 127
8, 6000, Note_on_c, 9, 51, 127
8, 6020, Note_on_c, 9, 51, 0
8, 6029, Note_on_c, 9, 36, 0
8, 6060, Note_on_c, 9, 51, 127
8, 6078, Note_on_c, 9, 51, 0
8, 6120, Note_on_c, 9, 38, 127
8, 6120, Note_on_c, 9, 51, 127
8, 6143, Note_on_c, 9, 51, 0
8, 6149, Note_on_c, 9, 38, 0
8, 6180, Note_on_c, 9, 51, 127
8, 6198, Note_on_c, 9, 51, 0
8, 6240, Note_on_c, 9, 36, 127
8, 6240, Note_on_c, 9, 51, 127
8, 6263, Note_on_c, 9, 51, 0
8, 6269, Note_on_c, 9, 36, 0
8, 6300, Note_on_c, 9, 51, 127
8, 6318, Note_on_c, 9, 51, 0
8, 6360, Note_on_c, 9, 38, 127
8, 6360, Note_on_c, 9, 51, 127
8, 6380, Note_on_c, 9, 51, 0
8, 6390, Note_on_c, 9, 38, 0
8, 6420, Note_on_c, 9, 51, 127
8, 6440, Note_on_c, 9, 51, 0
8, 6480, Note_on_c, 9, 36, 127
8, 6480, Note_on_c, 9, 51, 127
8, 6500, Note_on_c, 9, 51, 0
8, 6510, Note_on_c, 9, 36, 0
8, 6540, Note_on_c, 9, 51, 127
8, 6560, Note_on_c, 9, 51, 0
8, 6600, Note_on_c, 9, 38, 127
8, 6600, Note_on_c, 9, 51, 127
8, 6620, Note_on_c, 9, 51, 0
8, 6630, Note_on_c, 9, 38, 0
8, 6660, Note_on_c, 9, 51, 127
8, 6670, Note_on_c, 9, 50, 94
8, 6682, Note_on_c, 9, 51, 0
8, 6692, Note_on_c, 9, 48, 101
8, 6710, Note_on_c, 9, 47, 106
8, 6716, Note_on_c, 9, 48, 0
8, 6717, Note_on_c, 9, 45, 108
8, 6720, Note_on_c, 9, 38, 127
8, 6720, Note_on_c, 9, 36, 127
8, 6720, Note_on_c, 9, 51, 127
8, 6722, Note_on_c, 9, 50, 0
8, 6730, Note_on_c, 9, 47, 0
8, 6735, Note_on_c, 9, 43, 113
8, 6740, Note_on_c, 9, 51, 0
8, 6746, Note_on_c, 9, 45, 0
8, 6747, Note_on_c, 9, 38, 0
8, 6750, Note_on_c, 9, 36, 0
8, 6757, Note_on_c, 9, 43, 0
8, 7200, Note_on_c, 9, 36, 127
8, 7200, Note_on_c, 9, 51, 127
8, 7223, Note_on_c, 9, 51, 0
8, 7232, Note_on_c, 9, 36, 0
8, 7260, Note_on_c, 9, 51, 127
8, 7280, Note_on_c, 9, 51, 0
8, 7320, Note_on_c, 9, 38, 127
8, 7320, Note_on_c, 9, 51, 127
8, 7340, Note_on_c, 9, 51, 0
8, 7345, Note_on_c, 9, 38, 0
8, 7380, Note_on_c, 9, 51, 127
8, 7398, Note_on_c, 9, 51, 0
8, 7440, Note_on_c, 9, 36, 127
8, 7440, Note_on_c, 9, 51, 127
8, 7460, Note_on_c, 9, 51, 0
8, 7463, Note_on_c, 9, 36, 0
8, 7500, Note_on_c, 9, 51, 127
8, 7518, Note_on_c, 9, 51, 0
8, 7560, Note_on_c, 9, 38, 127
8, 7560, Note_on_c, 9, 51, 127
8, 7582, Note_on_c, 9, 51, 0
8, 7585, Note_on_c, 9, 38, 0
8, 7620, Note_on_c, 9, 51, 127
8, 7640, Note_on_c, 9, 51, 0
8, 7680, Note_on_c, 9, 36, 127
8, 7680, Note_on_c, 9, 51, 127
8, 7701, Note_on_c, 9, 51, 0
8, 7705, Note_on_c, 9, 36, 0
8, 7740, Note_on_c, 9, 51, 127
8, 7760, Note_on_c, 9, 51, 0
8, 7800, Note_on_c, 9, 38, 127
8, 7800, Note_on_c, 9, 51, 127
8, 7820, Note_on_c, 9, 51, 0
8, 7824, Note_on_c, 9, 38, 0
8, 7860, Note_on_c, 9, 51, 127
8, 7878, Note_on_c, 9, 51, 0
8, 7920, Note_on_c, 9, 36, 127
8, 7920, Note_on_c, 9, 51, 127
8, 7940, Note_on_c, 9, 51, 0
8, 7944, Note_on_c, 9, 36, 0
8, 7980, Note_on_c, 9, 51, 127
8, 8000, Note_on_c, 9, 51, 0
8, 8040, Note_on_c, 9, 38, 127
8, 8040, Note_on_c, 9, 51, 127
8, 8065, Note_on_c, 9, 51, 0
8, 8072, Note_on_c, 9, 38, 0
8, 8160, Note_on_c, 9, 36, 127
8, 8160, Note_on_c, 9, 51, 127
8, 8180, Note_on_c, 9, 51, 0
8, 8212, Note_on_c, 9, 36, 0
8, 8220, Note_on_c, 9, 51, 120
8, 8238, Note_on_c, 9, 51, 0
8, 8280, Note_on_c, 9, 38, 120
8, 8280, Note_on_c, 9, 51, 127
8, 8303, Note_on_c, 9, 51, 0
8, 8318, Note_on_c, 9, 38, 0
8, 8340, Note_on_c, 9, 51, 127
8, 8360, Note_on_c, 9, 51, 0
8, 8400, Note_on_c, 9, 36, 120
8, 8400, Note_on_c, 9, 51, 127
8, 8423, Note_on_c, 9, 51, 0
8, 8439, Note_on_c, 9, 36, 0
8, 8460, Note_on_c, 9, 51, 127
8, 8482, Note_on_c, 9, 51, 0
8, 8520, Note_on_c, 9, 38, 127
8, 8520, Note_on_c, 9, 51, 127
8, 8548, Note_on_c, 9, 51, 0
8, 8554, Note_on_c, 9, 38, 0
8, 8580, Note_on_c, 9, 51, 127
8, 8602, Note_on_c, 9, 51, 0
8, 8640, Note_on_c, 9, 36, 127
8, 8640, Note_on_c, 9, 51, 127
8, 8662, Note_on_c, 9, 51, 0
8, 8672, Note_on_c, 9, 36, 0
8, 8700, Note_on_c, 9, 51, 127
8, 8723, Note_on_c, 9, 51, 0
8, 8760, Note_on_c, 9, 38, 127
8, 8760, Note_on_c, 9, 51, 127
8, 8783, Note_on_c, 9, 51, 0
8, 8794, Note_on_c, 9, 38, 0
8, 8820, Note_on_c, 9, 51, 127
8, 8841, Note_on_c, 9, 51, 0
8, 8880, Note_on_c, 9, 36, 120
8, 8880, Note_on_c, 9, 51, 127
8, 8905, Note_on_c, 9, 51, 0
8, 8912, Note_on_c, 9, 36, 0
8, 8940, Note_on_c, 9, 51, 127
8, 8961, Note_on_c, 9, 51, 0
8, 9000, Note_on_c, 9, 38, 127
8, 9000, Note_on_c, 9, 51, 127
8, 9025, Note_on_c, 9, 51, 0
8, 9029, Note_on_c, 9, 38, 0
8, 9060, Note_on_c, 9, 51, 127
8, 9080, Note_on_c, 9, 51, 0
8, 9120, Note_on_c, 9, 36, 112
8, 9120, Note_on_c, 9, 51, 127
8, 9143, Note_on_c, 9, 51, 0
8, 9149, Note_on_c, 9, 36, 0
8, 9180, Note_on_c, 9, 51, 127
8, 9202, Note_on_c, 9, 51, 0
8, 9240, Note_on_c, 9, 38, 127
8, 9240, Note_on_c, 9, 51, 127
8, 9263, Note_on_c, 9, 51, 0
8, 9269, Note_on_c, 9, 38, 0
8, 9300, Note_on_c, 9, 51, 127
8, 9320, Note_on_c, 9, 51, 0
8, 9360, Note_on_c, 9, 36, 112
8, 9360, Note_on_c, 9, 51, 127
8, 9383, Note_on_c, 9, 51, 0
8, 9394, Note_on_c, 9, 36, 0
8, 9420, Note_on_c, 9, 51, 127
8, 9440, Note_on_c, 9, 51, 0
8, 9480, Note_on_c, 9, 38, 127
8, 9480, Note_on_c, 9, 51, 127
8, 9503, Note_on_c, 9, 51, 0
8, 9505, Note_on_c, 9, 38, 0
8, 9540, Note_on_c, 9, 51, 127
8, 9560, Note_on_c, 9, 51, 0
8, 9600, Note_on_c, 9, 36, 127
8, 9600, Note_on_c, 9, 51, 127
8, 9623, Note_on_c, 9, 51, 0
8, 9629, Note_on_c, 9, 36, 0
8, 9660, Note_on_c, 9, 51, 127
8, 9683, Note_on_c, 9, 51, 0
8, 9720, Note_on_c, 9, 38, 120
8, 9720, Note_on_c, 9, 51, 127
8, 9743, Note_on_c, 9, 51, 0
8, 9749, Note_on_c, 9, 38, 0
8, 9780, Note_on_c, 9, 51, 127
8, 9802, Note_on_c, 9, 51, 0
8, 9840, Note_on_c, 9, 36, 120
8, 9840, Note_on_c, 9, 51, 127
8, 9862, Note_on_c, 9, 51, 0
8, 9874, Note_on_c, 9, 36, 0
8, 9900, Note_on_c, 9, 51, 127
8, 9923, Note_on_c, 9, 51, 0
8, 9960, Note_on_c, 9, 38, 120
8, 9960, Note_on_c, 9, 51, 127
8, 9982, Note_on_c, 9, 51, 0
8, 9987, Note_on_c, 9, 38, 0
8, 10020, Note_on_c, 9, 51, 127
8, 10038, Note_on_c, 9, 51, 0
8, 10080, Note_on_c, 9, 36, 127
8, 10080, Note_on_c, 9, 51, 127
8, 10102, Note_on_c, 9, 51, 0
8, 10111, Note_on_c, 9, 36, 0
8, 10140, Note_on_c, 9, 51, 127
8, 10158, Note_on_c, 9, 51, 0
8, 10200, Note_on_c, 9, 38, 120
8, 10200, Note_on_c, 9, 51, 127
8, 10220, Note_on_c, 9, 51, 0
8, 10230, Note_on_c, 9, 38, 0
8, 10260, Note_on_c, 9, 51, 127
8, 10278, Note_on_c, 9, 51, 0
8, 10320, Note_on_c, 9, 36, 127
8, 10320, Note_on_c, 9, 51, 127
8, 10341, Note_on_c, 9, 51, 0
8, 10349, Note_on_c, 9, 36, 0
8, 10380, Note_on_c, 9, 51, 127
8, 10398, Note_on_c, 9, 51, 0
8, 10440, Note_on_c, 9, 38, 127
8, 10440, Note_on_c, 9, 51, 127
8, 10462, Note_on_c, 9, 51, 0
8, 10470, Note_on_c, 9, 38, 0
8, 10500, Note_on_c, 9, 51, 127
8, 10520, Note_on_c, 9, 51, 0
8, 10560, Note_on_c, 9, 36, 112
8, 10560, Note_on_c, 9, 51, 127
8, 10583, Note_on_c, 9, 51, 0
8, 10589, Note_on_c, 9, 36, 0
8, 10620, Note_on_c, 9, 51, 127
8, 10642, Note_on_c, 9, 51, 0
8, 10680, Note_on_c, 9, 38, 127
8, 10680, Note_on_c, 9, 51, 127
8, 10703, Note_on_c, 9, 51, 0
8, 10709, Note_on_c, 9, 38, 0
8, 10740, Note_on_c, 9, 51, 127
8, 10760, Note_on_c, 9, 51, 0
8, 10800, Note_on_c, 9, 36, 127
8, 10800, Note_on_c, 9, 51, 127
8, 10820, Note_on_c, 9, 51, 0
8, 10831, Note_on_c, 9, 36, 0
8, 10860, Note_on_c, 9, 51, 127
8, 10880, Note_on_c, 9, 51, 0
8, 10920, Note_on_c, 9, 38, 127
8, 10920, Note_on_c, 9, 51, 127
8, 10943, Note_on_c, 9, 51, 0
8, 10949, Note_on_c, 9, 38, 0
8, 10980, Note_on_c, 9, 51, 127
8, 11001, Note_on_c, 9, 51, 0
8, 11040, Note_on_c, 9, 36, 127
8, 11040, Note_on_c, 9, 51, 127
8, 11063, Note_on_c, 9, 51, 0
8, 11067, Note_on_c, 9, 36, 0
8, 11100, Note_on_c, 9, 51, 127
8, 11123, Note_on_c, 9, 51, 0
8, 11160, Note_on_c, 9, 38, 120
8, 11160, Note_on_c, 9, 51, 127
8, 11181, Note_on_c, 9, 51, 0
8, 11187, Note_on_c, 9, 38, 0
8, 11220, Note_on_c, 9, 51, 127
8, 11240, Note_on_c, 9, 51, 0
8, 11280, Note_on_c, 9, 36, 120
8, 11280, Note_on_c, 9, 51, 127
8, 11302, Note_on_c, 9, 51, 0
8, 11307, Note_on_c, 9, 36, 0
8, 11340, Note_on_c, 9, 51, 127
8, 11360, Note_on_c, 9, 51, 0
8, 11400, Note_on_c, 9, 38, 120
8, 11400, Note_on_c, 9, 51, 127
8, 11421, Note_on_c, 9, 51, 0
8, 11427, Note_on_c, 9, 38, 0
8, 11460, Note_on_c, 9, 51, 127
8, 11480, Note_on_c, 9, 51, 0
8, 11520, Note_on_c, 9, 36, 120
8, 11520, Note_on_c, 9, 51, 127
8, 11540, Note_on_c, 9, 51, 0
8, 11547, Note_on_c, 9, 36, 0
8, 11580, Note_on_c, 9, 51, 127
8, 11600, Note_on_c, 9, 51, 0
8, 11640, Note_on_c, 9, 38, 127
8, 11640, Note_on_c, 9, 51, 127
8, 11662, Note_on_c, 9, 51, 0
8, 11667, Note_on_c, 9, 38, 0
8, 11700, Note_on_c, 9, 51, 127
8, 11721, Note_on_c, 9, 51, 0
8, 11760, Note_on_c, 9, 36, 127
8, 11760, Note_on_c, 9, 51, 127
8, 11780, Note_on_c, 9, 51, 0
8, 11789, Note_on_c, 9, 36, 0
8, 11820, Note_on_c, 9, 51, 127
8, 11838, Note_on_c, 9, 51, 0
8, 11880, Note_on_c, 9, 38, 127
8, 11880, Note_on_c, 9, 51, 127
8, 11903, Note_on_c, 9, 51, 0
8, 11909, Note_on_c, 9, 38, 0
8, 11940, Note_on_c, 9, 51, 127
8, 11958, Note_on_c, 9, 51, 0
8, 12000, Note_on_c, 9, 36, 127
8, 12000, Note_on_c, 9, 51, 127
8, 12023, Note_on_c, 9, 51, 0
8, 12029, Note_on_c, 9, 36, 0
8, 12060, Note_on_c, 9, 51, 127
8, 12078, Note_on_c, 9, 51, 0
8, 12120, Note_on_c, 9, 38, 127
8, 12120, Note_on_c, 9, 51, 127
8, 12140, Note_on_c, 9, 51, 0
8, 12150, Note_on_c, 9, 38, 0
8, 12180, Note_on_c, 9, 51, 127
8, 12200, Note_on_c, 9, 51, 0
8, 12240, Note_on_c, 9, 36, 127
8, 12240, Note_on_c, 9, 51, 127
8, 12260, Note_on_c, 9, 51, 0
8, 12270, Note_on_c, 9, 36, 0
8, 12300, Note_on_c, 9, 51, 127
8, 12320, Note_on_c, 9, 51, 0
8, 12360, Note_on_c, 9, 38, 127
8, 12360, Note_on_c, 9, 51, 127
8, 12380, Note_on_c, 9, 51, 0
8, 12390, Note_on_c, 9, 38, 0
8, 12420, Note_on_c, 9, 51, 127
8, 12442, Note_on_c, 9, 51, 0
8, 12480, Note_on_c, 9, 36, 127
8, 12480, Note_on_c, 9, 51, 127
8, 12503, Note_on_c, 9, 51, 0
8, 12507, Note_on_c, 9, 36, 0
8, 12540, Note_on_c, 9, 51, 127
8, 12563, Note_on_c, 9, 51, 0
8, 12600, Note_on_c, 9, 38, 120
8, 12600, Note_on_c, 9, 51, 127
8, 12621, Note_on_c, 9, 51, 0
8, 12627, Note_on_c, 9, 38, 0
8, 12660, Note_on_c, 9, 51, 127
8, 12680, Note_on_c, 9, 51, 0
8, 12720, Note_on_c, 9, 36, 120
8, 12720, Note_on_c, 9, 51, 127
8, 12742, Note_on_c, 9, 51, 0
8, 12747, Note_on_c, 9, 36, 0
8, 12780, Note_on_c, 9, 51, 127
8, 12800, Note_on_c, 9, 51, 0
8, 12840, Note_on_c, 9, 38, 120
8, 12840, Note_on_c, 9, 51, 127
8, 12861, Note_on_c, 9, 51, 0
8, 12867, Note_on_c, 9, 38, 0
8, 12900, Note_on_c, 9, 51, 127
8, 12920, Note_on_c, 9, 51, 0
8, 12960, Note_on_c, 9, 36, 120
8, 12960, Note_on_c, 9, 51, 127
8, 12980, Note_on_c, 9, 51, 0
8, 12987, Note_on_c, 9, 36, 0
8, 13020, Note_on_c, 9, 51, 127
8, 13040, Note_on_c, 9, 51, 0
8, 13080, Note_on_c, 9, 38, 127
8, 13080, Note_on_c, 9, 51, 127
8, 13100, Note_on_c, 9, 51, 0
8, 13105, Note_on_c, 9, 38, 0
8, 13140, Note_on_c, 9, 51, 127
8, 13158, Note_on_c, 9, 51, 0
8, 13200, Note_on_c, 9, 36, 127
8, 13200, Note_on_c, 9, 51, 127
8, 13220, Note_on_c, 9, 51, 0
8, 13223, Note_on_c, 9, 36, 0
8, 13260, Note_on_c, 9, 51, 127
8, 13278, Note_on_c, 9, 51, 0
8, 13320, Note_on_c, 9, 38, 127
8, 13320, Note_on_c, 9, 51, 127
8, 13342, Note_on_c, 9, 51, 0
8, 13345, Note_on_c, 9, 38, 0
8, 13380, Note_on_c, 9, 51, 127
8, 13400, Note_on_c, 9, 51, 0
8, 13440, Note_on_c, 9, 36, 127
8, 13440, Note_on_c, 9, 51, 127
8, 13461, Note_on_c, 9, 51, 0
8, 13465, Note_on_c, 9, 36, 0
8, 13500, Note_on_c, 9, 51, 127
8, 13520, Note_on_c, 9, 51, 0
8, 13560, Note_on_c, 9, 38, 127
8, 13560, Note_on_c, 9, 51, 127
8, 13580, Note_on_c, 9, 51, 0
8, 13584, Note_on_c, 9, 38, 0
8, 13620, Note_on_c, 9, 51, 127
8, 13638, Note_on_c, 9, 51, 0
8, 13680, Note_on_c, 9, 36, 127
8, 13680, Note_on_c, 9, 51, 127
8, 13700, Note_on_c, 9, 51, 0
8, 13704, Note_on_c, 9, 36, 0
8, 13740, Note_on_c, 9, 51, 127
8, 13760, Note_on_c, 9, 51, 0
8, 13800, Note_on_c, 9, 38, 127
8, 13800, Note_on_c, 9, 51, 127
8, 13825, Note_on_c, 9, 51, 0
8, 13832, Note_on_c, 9, 38, 0
8, 13862, Note_on_c, 9, 51, 127
8, 13876, Note_on_c, 9, 51, 0
8, 13920, Note_on_c, 9, 49, 127
8, 13920, Note_on_c, 9, 36, 127
8, 13935, Note_on_c, 9, 49, 0
8, 13972, Note_on_c, 9, 36, 0
8, 13980, Note_on_c, 9, 51, 120
8, 13998, Note_on_c, 9, 51, 0
8, 14040, Note_on_c, 9, 38, 120
8, 14040, Note_on_c, 9, 51, 127
8, 14063, Note_on_c, 9, 51, 0
8, 14078, Note_on_c, 9, 38, 0
8, 14100, Note_on_c, 9, 51, 127
8, 14120, Note_on_c, 9, 51, 0
8, 14160, Note_on_c, 9, 36, 120
8, 14160, Note_on_c, 9, 51, 127
8, 14183, Note_on_c, 9, 51, 0
8, 14199, Note_on_c, 9, 36, 0
8, 14220, Note_on_c, 9, 51, 127
8, 14242, Note_on_c, 9, 51, 0
8, 14280, Note_on_c, 9, 38, 127
8, 14280, Note_on_c, 9, 51, 127
8, 14308, Note_on_c, 9, 51, 0
8, 14314, Note_on_c, 9, 38, 0
8, 14340, Note_on_c, 9, 51, 127
8, 14362, Note_on_c, 9, 51, 0
8, 14400, Note_on_c, 9, 36, 127
8, 14400, Note_on_c, 9, 51, 127
8, 14422, Note_on_c, 9, 51, 0
8, 14432, Note_on_c, 9, 36, 0
8, 14460, Note_on_c, 9, 51, 127
8, 14483, Note_on_c, 9, 51, 0
8, 14520, Note_on_c, 9, 38, 127
8, 14520, Note_on_c, 9, 51, 127
8, 14543, Note_on_c, 9, 51, 0
8, 14554, Note_on_c, 9, 38, 0
8, 14580, Note_on_c, 9, 51, 127
8, 14601, Note_on_c, 9, 51, 0
8, 14640, Note_on_c, 9, 36, 120
8, 14640, Note_on_c, 9, 51, 127
8, 14665, Note_on_c, 9, 51, 0
8, 14672, Note_on_c, 9, 36, 0
8, 14700, Note_on_c, 9, 51, 127
8, 14721, Note_on_c, 9, 51, 0
8, 14760, Note_on_c, 9, 38, 127
8, 14760, Note_on_c, 9, 51, 127
8, 14785, Note_on_c, 9, 51, 0
8, 14789, Note_on_c, 9, 38, 0
8, 14820, Note_on_c, 9, 51, 127
8, 14840, Note_on_c, 9, 51, 0
8, 14880, Note_on_c, 9, 36, 112
8, 14880, Note_on_c, 9, 51, 127
8, 14903, Note_on_c, 9, 51, 0
8, 14909, Note_on_c, 9, 36, 0
8, 14940, Note_on_c, 9, 51, 127
8, 14962, Note_on_c, 9, 51, 0
8, 15000, Note_on_c, 9, 38, 127
8, 15000, Note_on_c, 9, 51, 127
8, 15023, Note_on_c, 9, 51, 0
8, 15029, Note_on_c, 9, 38, 0
8, 15060, Note_on_c, 9, 51, 127
8, 15080, Note_on_c, 9, 51, 0
8, 15120, Note_on_c, 9, 36, 112
8, 15120, Note_on_c, 9, 51, 127
8, 15143, Note_on_c, 9, 51, 0
8, 15154, Note_on_c, 9, 36, 0
8, 15180, Note_on_c, 9, 51, 127
8, 15200, Note_on_c, 9, 51, 0
8, 15240, Note_on_c, 9, 38, 127
8, 15240, Note_on_c, 9, 51, 127
8, 15263, Note_on_c, 9, 51, 0
8, 15265, Note_on_c, 9, 38, 0
8, 15300, Note_on_c, 9, 51, 127
8, 15320, Note_on_c, 9, 51, 0
8, 15360, Note_on_c, 9, 36, 127
8, 15360, Note_on_c, 9, 51, 127
8, 15383, Note_on_c, 9, 51, 0
8, 15389, Note_on_c, 9, 36, 0
8, 15420, Note_on_c, 9, 51, 127
8, 15443, Note_on_c, 9, 51, 0
8, 15480, Note_on_c, 9, 38, 120
8, 15480, Note_on_c, 9, 51, 127
8, 15503, Note_on_c, 9, 51, 0
8, 15509, Note_on_c, 9, 38, 0
8, 15540, Note_on_c, 9, 51, 127
8, 15562, Note_on_c, 9, 51, 0
8, 15600, Note_on_c, 9, 36, 120
8, 15600, Note_on_c, 9, 51, 127
8, 15622, Note_on_c, 9, 51, 0
8, 15634, Note_on_c, 9, 36, 0
8, 15660, Note_on_c, 9, 51, 127
8, 15683, Note_on_c, 9, 51, 0
8, 15720, Note_on_c, 9, 38, 120
8, 15720, Note_on_c, 9, 51, 127
8, 15742, Note_on_c, 9, 51, 0
8, 15747, Note_on_c, 9, 38, 0
8, 15780, Note_on_c, 9, 51, 127
8, 15798, Note_on_c, 9, 51, 0
8, 15840, Note_on_c, 9, 36, 127
8, 15840, Note_on_c, 9, 51, 127
8, 15862, Note_on_c, 9, 51, 0
8, 15871, Note_on_c, 9, 36, 0
8, 15900, Note_on_c, 9, 51, 127
8, 15918, Note_on_c, 9, 51, 0
8, 15960, Note_on_c, 9, 38, 120
8, 15960, Note_on_c, 9, 51, 127
8, 15980, Note_on_c, 9, 51, 0
8, 15990, Note_on_c, 9, 38, 0
8, 16020, Note_on_c, 9, 51, 127
8, 16038, Note_on_c, 9, 51, 0
8, 16080, Note_on_c, 9, 36, 127
8, 16080, Note_on_c, 9, 51, 127
8, 16101, Note_on_c, 9, 51, 0
8, 16109, Note_on_c, 9, 36, 0
8, 16140, Note_on_c, 9, 51, 127
8, 16158, Note_on_c, 9, 51, 0
8, 16200, Note_on_c, 9, 38, 127
8, 16200, Note_on_c, 9, 51, 127
8, 16222, Note_on_c, 9, 51, 0
8, 16230, Note_on_c, 9, 38, 0
8, 16260, Note_on_c, 9, 51, 127
8, 16280, Note_on_c, 9, 51, 0
8, 16320, Note_on_c, 9, 36, 112
8, 16320, Note_on_c, 9, 51, 127
8, 16343, Note_on_c, 9, 51, 0
8, 16349, Note_on_c, 9, 36, 0
8, 16380, Note_on_c, 9, 51, 127
8, 16402, Note_on_c, 9, 51, 0
8, 16440, Note_on_c, 9, 38, 127
8, 16440, Note_on_c, 9, 51, 127
8, 16463, Note_on_c, 9, 51, 0
8, 16469, Note_on_c, 9, 38, 0
8, 16500, Note_on_c, 9, 51, 127
8, 16520, Note_on_c, 9, 51, 0
8, 16560, Note_on_c, 9, 36, 127
8, 16560, Note_on_c, 9, 51, 127
8, 16580, Note_on_c, 9, 51, 0
8, 16591, Note_on_c, 9, 36, 0
8, 16620, Note_on_c, 9, 51, 127
8, 16640, Note_on_c, 9, 51, 0
8, 16680, Note_on_c, 9, 38, 127
8, 16680, Note_on_c, 9, 51, 127
8, 16703, Note_on_c, 9, 51, 0
8, 16709, Note_on_c, 9, 38, 0
8, 16740, Note_on_c, 9, 51, 127
8, 16761, Note_on_c, 9, 51, 0
8, 16800, Note_on_c, 9, 36, 127
8, 16800, Note_on_c, 9, 51, 127
8, 16823, Note_on_c, 9, 51, 0
8, 16827, Note_on_c, 9, 36, 0
8, 16860, Note_on_c, 9, 51, 127
8, 16883, Note_on_c, 9, 51, 0
8, 16920, Note_on_c, 9, 38, 120
8, 16920, Note_on_c, 9, 51, 127
8, 16941, Note_on_c, 9, 51, 0
8, 16947, Note_on_c, 9, 38, 0
8, 16980, Note_on_c, 9, 51, 127
8, 17000, Note_on_c, 9, 51, 0
8, 17040, Note_on_c, 9, 36, 120
8, 17040, Note_on_c, 9, 51, 127
8, 17062, Note_on_c, 9, 51, 0
8, 17067, Note_on_c, 9, 36, 0
8, 17100, Note_on_c, 9, 51, 127
8, 17120, Note_on_c, 9, 51, 0
8, 17160, Note_on_c, 9, 38, 120
8, 17160, Note_on_c, 9, 51, 127
8, 17181, Note_on_c, 9, 51, 0
8, 17187, Note_on_c, 9, 38, 0
8, 17220, Note_on_c, 9, 51, 127
8, 17240, Note_on_c, 9, 51, 0
8, 17280, Note_on_c, 9, 36, 120
8, 17280, Note_on_c, 9, 51, 127
8, 17300, Note_on_c, 9, 51, 0
8, 17307, Note_on_c, 9, 36, 0
8, 17340, Note_on_c, 9, 51, 127
8, 17360, Note_on_c, 9, 51, 0
8, 17400, Note_on_c, 9, 38, 127
8, 17400, Note_on_c, 9, 51, 127
8, 17422, Note_on_c, 9, 51, 0
8, 17427, Note_on_c, 9, 38, 0
8, 17460, Note_on_c, 9, 51, 127
8, 17481, Note_on_c, 9, 51, 0
8, 17520, Note_on_c, 9, 36, 127
8, 17520, Note_on_c, 9, 51, 127
8, 17540, Note_on_c, 9, 51, 0
8, 17549, Note_on_c, 9, 36, 0
8, 17580, Note_on_c, 9, 51, 127
8, 17598, Note_on_c, 9, 51, 0
8, 17640, Note_on_c, 9, 38, 127
8, 17640, Note_on_c, 9, 51, 127
8, 17663, Note_on_c, 9, 51, 0
8, 17669, Note_on_c, 9, 38, 0
8, 17700, Note_on_c, 9, 51, 127
8, 17718, Note_on_c, 9, 51, 0
8, 17760, Note_on_c, 9, 36, 127
8, 17760, Note_on_c, 9, 51, 127
8, 17783, Note_on_c, 9, 51, 0
8, 17789, Note_on_c, 9, 36, 0
8, 17820, Note_on_c, 9, 51, 127
8, 17838, Note_on_c, 9, 51, 0
8, 17880, Note_on_c, 9, 38, 127
8, 17880, Note_on_c, 9, 51, 127
8, 17900, Note_on_c, 9, 51, 0
8, 17910, Note_on_c, 9, 38, 0
8, 17940, Note_on_c, 9, 51, 127
8, 17960, Note_on_c, 9, 51, 0
8, 18000, Note_on_c, 9, 36, 127
8, 18000, Note_on_c, 9, 51, 127
8, 18020, Note_on_c, 9, 51, 0
8, 18030, Note_on_c, 9, 36, 0
8, 18060, Note_on_c, 9, 51, 127
8, 18080, Note_on_c, 9, 51, 0
8, 18120, Note_on_c, 9, 38, 127
8, 18120, Note_on_c, 9, 51, 127
8, 18140, Note_on_c, 9, 51, 0
8, 18150, Note_on_c, 9, 38, 0
8, 18180, Note_on_c, 9, 51, 127
8, 18202, Note_on_c, 9, 51, 0
8, 18240, Note_on_c, 9, 36, 127
8, 18240, Note_on_c, 9, 51, 127
8, 18263, Note_on_c, 9, 51, 0
8, 18267, Note_on_c, 9, 36, 0
8, 18300, Note_on_c, 9, 51, 127
8, 18323, Note_on_c, 9, 51, 0
8, 18360, Note_on_c, 9, 38, 120
8, 18360, Note_on_c, 9, 51, 127
8, 18381, Note_on_c, 9, 51, 0
8, 18387, Note_on_c, 9, 38, 0
8, 18420, Note_on_c, 9, 51, 127
8, 18440, Note_on_c, 9, 51, 0
8, 18480, Note_on_c, 9, 36, 120
8, 18480, Note_on_c, 9, 51, 127
8, 18502, Note_on_c, 9, 51, 0
8, 18507, Note_on_c, 9, 36, 0
8, 18540, Note_on_c, 9, 51, 127
8, 18560, Note_on_c, 9, 51, 0
8, 18600, Note_on_c, 9, 38, 120
8, 18600, Note_on_c, 9, 51, 127
8, 18621, Note_on_c, 9, 51, 0
8, 18627, Note_on_c, 9, 38, 0
8, 18660, Note_on_c, 9, 51, 127
8, 18680, Note_on_c, 9, 51, 0
8, 18720, Note_on_c, 9, 36, 120
8, 18720, Note_on_c, 9, 51, 127
8, 18740, Note_on_c, 9, 51, 0
8, 18747, Note_on_c, 9, 36, 0
8, 18780, Note_on_c, 9, 51, 127
8, 18800, Note_on_c, 9, 51, 0
8, 18840, Note_on_c, 9, 38, 127
8, 18840, Note_on_c, 9, 51, 127
8, 18860, Note_on_c, 9, 51, 0
8, 18865, Note_on_c, 9, 38, 0
8, 18900, Note_on_c, 9, 51, 127
8, 18918, Note_on_c, 9, 51, 0
8, 18960, Note_on_c, 9, 36, 127
8, 18960, Note_on_c, 9, 51, 127
8, 18980, Note_on_c, 9, 51, 0
8, 18983, Note_on_c, 9, 36, 0
8, 19020, Note_on_c, 9, 51, 127
8, 19038, Note_on_c, 9, 51, 0
8, 19080, Note_on_c, 9, 38, 127
8, 19080, Note_on_c, 9, 51, 127
8, 19102, Note_on_c, 9, 51, 0
8, 19105, Note_on_c, 9, 38, 0
8, 19140, Note_on_c, 9, 51, 127
8, 19160, Note_on_c, 9, 51, 0
8, 19200, Note_on_c, 9, 36, 127
8, 19200, Note_on_c, 9, 51, 127
8, 19221, Note_on_c, 9, 51, 0
8, 19225, Note_on_c, 9, 36, 0
8, 19260, Note_on_c, 9, 51, 127
8, 19280, Note_on_c, 9, 51, 0
8, 19320, Note_on_c, 9, 38, 127
8, 19320, Note_on_c, 9, 51, 127
8, 19340, Note_on_c, 9, 51, 0
8, 19344, Note_on_c, 9, 38, 0
8, 19380, Note_on_c, 9, 51, 127
8, 19398, Note_on_c, 9, 51, 0
8, 19440, Note_on_c, 9, 36, 127
8, 19440, Note_on_c, 9, 51, 127
8, 19460, Note_on_c, 9, 51, 0
8, 19464, Note_on_c, 9, 36, 0
8, 19500, Note_on_c, 9, 51, 127
8, 19520, Note_on_c, 9, 51, 0
8, 19560, Note_on_c, 9, 38, 127
8, 19560, Note_on_c, 9, 51, 127
8, 19585, Note_on_c, 9, 51, 0
8, 19592, Note_on_c, 9, 38, 0
8, 19680, Note_on_c, 9, 36, 127
8, 19680, Note_on_c, 9, 51, 127
8, 19700, Note_on_c, 9, 51, 0
8, 19732, Note_on_c, 9, 36, 0
8, 19740, Note_on_c, 9, 51, 120
8, 19758, Note_on_c, 9, 51, 0
8, 19800, Note_on_c, 9, 38, 120
8, 19800, Note_on_c, 9, 51, 127
8, 19823, Note_on_c, 9, 51, 0
8, 19838, Note_on_c, 9, 38, 0
8, 19860, Note_on_c, 9, 51, 127
8, 19880, Note_on_c, 9, 51, 0
8, 19920, Note_on_c, 9, 36, 120
8, 19920, Note_on_c, 9, 51, 127
8, 19943, Note_on_c, 9, 51, 0
8, 19959, Note_on_c, 9, 36, 0
8, 19980, Note_on_c, 9, 51, 127
8, 20002, Note_on_c, 9, 51, 0
8, 20040, Note_on_c, 9, 38, 127
8, 20040, Note_on_c, 9, 51, 127
8, 20068, Note_on_c, 9, 51, 0
8, 20074, Note_on_c, 9, 38, 0
8, 20100, Note_on_c, 9, 51, 127
8, 20122, Note_on_c, 9, 51, 0
8, 20160, Note_on_c, 9, 36, 127
8, 20160, Note_on_c, 9, 51, 127
8, 20182, Note_on_c, 9, 51, 0
8, 20192, Note_on_c, 9, 36, 0
8, 20220, Note_on_c, 9, 51, 127
8, 20243, Note_on_c, 9, 51, 0
8, 20280, Note_on_c, 9, 38, 127
8, 20280, Note_on_c, 9, 51, 127
8, 20303, Note_on_c, 9, 51, 0
8, 20314, Note_on_c, 9, 38, 0
8, 20340, Note_on_c, 9, 51, 127
8, 20361, Note_on_c, 9, 51, 0
8, 20400, Note_on_c, 9, 36, 120
8, 20400, Note_on_c, 9, 51, 127
8, 20425, Note_on_c, 9, 51, 0
8, 20432, Note_on_c, 9, 36, 0
8, 20460, Note_on_c, 9, 51, 127
8, 20481, Note_on_c, 9, 51, 0
8, 20520, Note_on_c, 9, 38, 127
8, 20520, Note_on_c, 9, 51, 127
8, 20545, Note_on_c, 9, 51, 0
8, 20549, Note_on_c, 9, 38, 0
8, 20580, Note_on_c, 9, 51, 127
8, 20600, Note_on_c, 9, 51, 0
8, 20640, Note_on_c, 9, 36, 112
8, 20640, Note_on_c, 9, 51, 127
8, 20663, Note_on_c, 9, 51, 0
8, 20669, Note_on_c, 9, 36, 0
8, 20700, Note_on_c, 9, 51, 127
8, 20722, Note_on_c, 9, 51, 0
8, 20760, Note_on_c, 9, 38, 127
8, 20760, Note_on_c, 9, 51, 127
8, 20783, Note_on_c, 9, 51, 0
8, 20789, Note_on_c, 9, 38, 0
8, 20820, Note_on_c, 9, 51, 127
8, 20840, Note_on_c, 9, 51, 0
8, 20880, Note_on_c, 9, 36, 112
8, 20880, Note_on_c, 9, 51, 127
8, 20903, Note_on_c, 9, 51, 0
8, 20914, Note_on_c, 9, 36, 0
8, 20940, Note_on_c, 9, 51, 127
8, 20960, Note_on_c, 9, 51, 0
8, 21000, Note_on_c, 9, 38, 127
8, 21000, Note_on_c, 9, 51, 127
8, 21023, Note_on_c, 9, 51, 0
8, 21025, Note_on_c, 9, 38, 0
8, 21060, Note_on_c, 9, 51, 127
8, 21080, Note_on_c, 9, 51, 0
8, 21120, Note_on_c, 9, 36, 127
8, 21120, Note_on_c, 9, 51, 127
8, 21143, Note_on_c, 9, 51, 0
8, 21149, Note_on_c, 9, 36, 0
8, 21180, Note_on_c, 9, 51, 127
8, 21203, Note_on_c, 9, 51, 0
8, 21240, Note_on_c, 9, 38, 120
8, 21240, Note_on_c, 9, 51, 127
8, 21263, Note_on_c, 9, 51, 0
8, 21269, Note_on_c, 9, 38, 0
8, 21300, Note_on_c, 9, 51, 127
8, 21322, Note_on_c, 9, 51, 0
8, 21360, Note_on_c, 9, 36, 120
8, 21360, Note_on_c, 9, 51, 127
8, 21382, Note_on_c, 9, 51, 0
8, 21394, Note_on_c, 9, 36, 0
8, 21420, Note_on_c, 9, 51, 127
8, 21443, Note_on_c, 9, 51, 0
8, 21480, Note_on_c, 9, 38, 120
8, 21480, Note_on_c, 9, 51, 127
8, 21502, Note_on_c, 9, 51, 0
8, 21507, Note_on_c, 9, 38, 0
8, 21540, Note_on_c, 9, 51, 127
8, 21558, Note_on_c, 9, 51, 0
8, 21600, Note_on_c, 9, 36, 127
8, 21600, Note_on_c, 9, 51, 127
8, 21622, Note_on_c, 9, 51, 0
8, 21631, Note_on_c, 9, 36, 0
8, 21660, Note_on_c, 9, 51, 127
8, 21678, Note_on_c, 9, 51, 0
8, 21720, Note_on_c, 9, 38, 120
8, 21720, Note_on_c, 9, 51, 127
8, 21740, Note_on_c, 9, 51, 0
8, 21750, Note_on_c, 9, 38, 0
8, 21780, Note_on_c, 9, 51, 127
8, 21798, Note_on_c, 9, 51, 0
8, 21840, Note_on_c, 9, 36, 127
8, 21840, Note_on_c, 9, 51, 127
8, 21861, Note_on_c, 9, 51, 0
8, 21869, Note_on_c, 9, 36, 0
8, 21900, Note_on_c, 9, 51, 127
8, 21918, Note_on_c, 9, 51, 0
8, 21960, Note_on_c, 9, 38, 127
8, 21960, Note_on_c, 9, 51, 127
8, 21982, Note_on_c, 9, 51, 0
8, 21990, Note_on_c, 9, 38, 0
8, 22020, Note_on_c, 9, 51, 127
8, 22040, Note_on_c, 9, 51, 0
8, 22080, Note_on_c, 9, 36, 112
8, 22080, Note_on_c, 9, 51, 127
8, 22103, Note_on_c, 9, 51, 0
8, 22109, Note_on_c, 9, 36, 0
8, 22140, Note_on_c, 9, 51, 127
8, 22162, Note_on_c, 9, 51, 0
8, 22200, Note_on_c, 9, 38, 127
8, 22200, Note_on_c, 9, 51, 127
8, 22223, Note_on_c, 9, 51, 0
8, 22229, Note_on_c, 9, 38, 0
8, 22260, Note_on_c, 9, 51, 127
8, 22280, Note_on_c, 9, 51, 0
8, 22320, Note_on_c, 9, 36, 127
8, 22320, Note_on_c, 9, 51, 127
8, 22340, Note_on_c, 9, 51, 0
8, 22351, Note_on_c, 9, 36, 0
8, 22380, Note_on_c, 9, 51, 127
8, 22400, Note_on_c, 9, 51, 0
8, 22440, Note_on_c, 9, 38, 127
8, 22440, Note_on_c, 9, 51, 127
8, 22463, Note_on_c, 9, 51, 0
8, 22469, Note_on_c, 9, 38, 0
8, 22500, Note_on_c, 9, 51, 127
8, 22521, Note_on_c, 9, 51, 0
8, 22560, Note_on_c, 9, 36, 127
8, 22560, Note_on_c, 9, 51, 127
8, 22583, Note_on_c, 9, 51, 0
8, 22587, Note_on_c, 9, 36, 0
8, 22620, Note_on_c, 9, 51, 127
8, 22643, Note_on_c, 9, 51, 0
8, 22680, Note_on_c, 9, 38, 120
8, 22680, Note_on_c, 9, 51, 127
8, 22701, Note_on_c, 9, 51, 0
8, 22707, Note_on_c, 9, 38, 0
8, 22740, Note_on_c, 9, 51, 127
8, 22760, Note_on_c, 9, 51, 0
8, 22800, Note_on_c, 9, 36, 120
8, 22800, Note_on_c, 9, 51, 127
8, 22822, Note_on_c, 9, 51, 0
8, 22827, Note_on_c, 9, 36, 0
8, 22860, Note_on_c, 9, 51, 127
8, 22880, Note_on_c, 9, 51, 0
8, 22920, Note_on_c, 9, 38, 120
8, 22920, Note_on_c, 9, 51, 127
8, 22941, Note_on_c, 9, 51, 0
8, 22947, Note_on_c, 9, 38, 0
8, 22980, Note_on_c, 9, 51, 127
8, 23000, Note_on_c, 9, 51, 0
8, 23040, Note_on_c, 9, 36, 120
8, 23040, Note_on_c, 9, 51, 127
8, 23060, Note_on_c, 9, 51, 0
8, 23067, Note_on_c, 9, 36, 0
8, 23100, Note_on_c, 9, 51, 127
8, 23120, Note_on_c, 9, 51, 0
8, 23160, Note_on_c, 9, 38, 127
8, 23160, Note_on_c, 9, 51, 127
8, 23182, Note_on_c, 9, 51, 0
8, 23187, Note_on_c, 9, 38, 0
8, 23220, Note_on_c, 9, 51, 127
8, 23241, Note_on_c, 9, 51, 0
8, 23280, Note_on_c, 9, 36, 127
8, 23280, Note_on_c, 9, 51, 127
8, 23300, Note_on_c, 9, 51, 0
8, 23309, Note_on_c, 9, 36, 0
8, 23340, Note_on_c, 9, 51, 127
8, 23358, Note_on_c, 9, 51, 0
8, 23400, Note_on_c, 9, 38, 127
8, 23400, Note_on_c, 9, 51, 127
8, 23423, Note_on_c, 9, 51, 0
8, 23429, Note_on_c, 9, 38, 0
8, 23460, Note_on_c, 9, 51, 127
8, 23478, Note_on_c, 9, 51, 0
8, 23520, Note_on_c, 9, 36, 127
8, 23520, Note_on_c, 9, 51, 127
8, 23543, Note_on_c, 9, 51, 0
8, 23549, Note_on_c, 9, 36, 0
8, 23580, Note_on_c, 9, 51, 127
8, 23598, Note_on_c, 9, 51, 0
8, 23640, Note_on_c, 9, 38, 127
8, 23640, Note_on_c, 9, 51, 127
8, 23660, Note_on_c, 9, 51, 0
8, 23670, Note_on_c, 9, 38, 0
8, 23700, Note_on_c, 9, 51, 127
8, 23720, Note_on_c, 9, 51, 0
8, 23760, Note_on_c, 9, 36, 127
8, 23760, Note_on_c, 9, 51, 127
8, 23780, Note_on_c, 9, 51, 0
8, 23790, Note_on_c, 9, 36, 0
8, 23820, Note_on_c, 9, 51, 127
8, 23840, Note_on_c, 9, 51, 0
8, 23880, Note_on_c, 9, 38, 127
8, 23880, Note_on_c, 9, 51, 127
8, 23900, Note_on_c, 9, 51, 0
8, 23910, Note_on_c, 9, 38, 0
8, 23940, Note_on_c, 9, 51, 127
8, 23962, Note_on_c, 9, 51, 0
8, 24000, Note_on_c, 9, 36, 127
8, 24000, Note_on_c, 9, 51, 127
8, 24023, Note_on_c, 9, 51, 0
8, 24027, Note_on_c, 9, 36, 0
8, 24060, Note_on_c, 9, 51, 127
8, 24083, Note_on_c, 9, 51, 0
8, 24120, Note_on_c, 9, 38, 120
8, 24120, Note_on_c, 9, 51, 127
8, 24141, Note_on_c, 9, 51, 0
8, 24147, Note_on_c, 9, 38, 0
8, 24180, Note_on_c, 9, 51, 127
8, 24200, Note_on_c, 9, 51, 0
8, 24240, Note_on_c, 9, 36, 120
8, 24240, Note_on_c, 9, 51, 127
8, 24262, Note_on_c, 9, 51, 0
8, 24267, Note_on_c, 9, 36, 0
8, 24300, Note_on_c, 9, 51, 127
8, 24320, Note_on_c, 9, 51, 0
8, 24360, Note_on_c, 9, 38, 120
8, 24360, Note_on_c, 9, 51, 127
8, 24381, Note_on_c, 9, 51, 0
8, 24387, Note_on_c, 9, 38, 0
8, 24420, Note_on_c, 9, 51, 127
8, 24440, Note_on_c, 9, 51, 0
8, 24480, Note_on_c, 9, 36, 120
8, 24480, Note_on_c, 9, 51, 127
8, 24500, Note_on_c, 9, 51, 0
8, 24507, Note_on_c, 9, 36, 0
8, 24540, Note_on_c, 9, 51, 127
8, 24560, Note_on_c, 9, 51, 0
8, 24600, Note_on_c, 9, 38, 127
8, 24600, Note_on_c, 9, 51, 127
8, 24620, Note_on_c, 9, 51, 0
8, 24625, Note_on_c, 9, 38, 0
8, 24660, Note_on_c, 9, 51, 127
8, 24678, Note_on_c, 9, 51, 0
8, 24720, Note_on_c, 9, 36, 127
8, 24720, Note_on_c, 9, 51, 127
8, 24740, Note_on_c, 9, 51, 0
8, 24743, Note_on_c, 9, 36, 0
8, 24780, Note_on_c, 9, 51, 127
8, 24798, Note_on_c, 9, 51, 0
8, 24840, Note_on_c, 9, 38, 127
8, 24840, Note_on_c, 9, 51, 127
8, 24862, Note_on_c, 9, 51, 0
8, 24865, Note_on_c, 9, 38, 0
8, 24900, Note_on_c, 9, 51, 127
8, 24920, Note_on_c, 9, 51, 0
8, 24960, Note_on_c, 9, 36, 127
8, 24960, Note_on_c, 9, 51, 127
8, 24981, Note_on_c, 9, 51, 0
8, 24985, Note_on_c, 9, 36, 0
8, 25020, Note_on_c, 9, 51, 127
8, 25040, Note_on_c, 9, 51, 0
8, 25080, Note_on_c, 9, 38, 127
8, 25080, Note_on_c, 9, 51, 127
8, 25100, Note_on_c, 9, 51, 0
8, 25104, Note_on_c, 9, 38, 0
8, 25140, Note_on_c, 9, 51, 127
8, 25158, Note_on_c, 9, 51, 0
8, 25200, Note_on_c, 9, 36, 127
8, 25200, Note_on_c, 9, 51, 127
8, 25220, Note_on_c, 9, 51, 0
8, 25224, Note_on_c, 9, 36, 0
8, 25260, Note_on_c, 9, 51, 127
8, 25280, Note_on_c, 9, 51, 0
8, 25320, Note_on_c, 9, 38, 127
8, 25320, Note_on_c, 9, 51, 127
8, 25345, Note_on_c, 9, 51, 0
8, 25352, Note_on_c, 9, 38, 0
8, 25378, Note_on_c, 9, 51, 127
8, 25392, Note_on_c, 9, 51, 0
8, 25440, Note_on_c, 9, 49, 127
8, 25440, Note_on_c, 9, 36, 127
8, 25460, Note_on_c, 9, 49, 0
8, 25492, Note_on_c, 9, 36, 0
8, 25500, Note_on_c, 9, 51, 120
8, 25518, Note_on_c, 9, 51, 0
8, 25560, Note_on_c, 9, 38, 120
8, 25560, Note_on_c, 9, 51, 127
8, 25583, Note_on_c, 9, 51, 0
8, 25598, Note_on_c, 9, 38, 0
8, 25620, Note_on_c, 9, 51, 127
8, 25640, Note_on_c, 9, 51, 0
8, 25680, Note_on_c, 9, 36, 120
8, 25680, Note_on_c, 9, 51, 127
8, 25703, Note_on_c, 9, 51, 0
8, 25719, Note_on_c, 9, 36, 0
8, 25740, Note_on_c, 9, 51, 127
8, 25762, Note_on_c, 9, 51, 0
8, 25800, Note_on_c, 9, 38, 127
8, 25800, Note_on_c, 9, 51, 127
8, 25828, Note_on_c, 9, 51, 0
8, 25834, Note_on_c, 9, 38, 0
8, 25860, Note_on_c, 9, 51, 127
8, 25882, Note_on_c, 9, 51, 0
8, 25920, Note_on_c, 9, 36, 127
8, 25920, Note_on_c, 9, 51, 127
8, 25942, Note_on_c, 9, 51, 0
8, 25952, Note_on_c, 9, 36, 0
8, 25980, Note_on_c, 9, 51, 127
8, 26003, Note_on_c, 9, 51, 0
8, 26040, Note_on_c, 9, 38, 127
8, 26040, Note_on_c, 9, 51, 127
8, 26063, Note_on_c, 9, 51, 0
8, 26074, Note_on_c, 9, 38, 0
8, 26100, Note_on_c, 9, 51, 127
8, 26121, Note_on_c, 9, 51, 0
8, 26160, Note_on_c, 9, 36, 120
8, 26160, Note_on_c, 9, 51, 127
8, 26185, Note_on_c, 9, 51, 0
8, 26192, Note_on_c, 9, 36, 0
8, 26220, Note_on_c, 9, 51, 127
8, 26241, Note_on_c, 9, 51, 0
8, 26280, Note_on_c, 9, 38, 127
8, 26280, Note_on_c, 9, 51, 127
8, 26305, Note_on_c, 9, 51, 0
8, 26309, Note_on_c, 9, 38, 0
8, 26340, Note_on_c, 9, 51, 127
8, 26360, Note_on_c, 9, 51, 0
8, 26400, Note_on_c, 9, 36, 112
8, 26400, Note_on_c, 9, 51, 127
8, 26423, Note_on_c, 9, 51, 0
8, 26429, Note_on_c, 9, 36, 0
8, 26460, Note_on_c, 9, 51, 127
8, 26482, Note_on_c, 9, 51, 0
8, 26520, Note_on_c, 9, 38, 127
8, 26520, Note_on_c, 9, 51, 127
8, 26543, Note_on_c, 9, 51, 0
8, 26549, Note_on_c, 9, 38, 0
8, 26580, Note_on_c, 9, 51, 127
8, 26600, Note_on_c, 9, 51, 0
8, 26640, Note_on_c, 9, 36, 112
8, 26640, Note_on_c, 9, 51, 127
8, 26663, Note_on_c, 9, 51, 0
8, 26674, Note_on_c, 9, 36, 0
8, 26700, Note_on_c, 9, 51, 127
8, 26720, Note_on_c, 9, 51, 0
8, 26760, Note_on_c, 9, 38, 127
8, 26760, Note_on_c, 9, 51, 127
8, 26783, Note_on_c, 9, 51, 0
8, 26785, Note_on_c, 9, 38, 0
8, 26820, Note_on_c, 9, 51, 127
8, 26840, Note_on_c, 9, 51, 0
8, 26880, Note_on_c, 9, 36, 127
8, 26880, Note_on_c, 9, 51, 127
8, 26903, Note_on_c, 9, 51, 0
8, 26909, Note_on_c, 9, 36, 0
8, 26940, Note_on_c, 9, 51, 127
8, 26963, Note_on_c, 9, 51, 0
8, 27000, Note_on_c, 9, 38, 120
8, 27000, Note_on_c, 9, 51, 127
8, 27023, Note_on_c, 9, 51, 0
8, 27029, Note_on_c, 9, 38, 0
8, 27060, Note_on_c, 9, 51, 127
8, 27082, Note_on_c, 9, 51, 0
8, 27120, Note_on_c, 9, 36, 120
8, 27120, Note_on_c, 9, 51, 127
8, 27142, Note_on_c, 9, 51, 0
8, 27154, Note_on_c, 9, 36, 0
8, 27180, Note_on_c, 9, 51, 127
8, 27203, Note_on_c, 9, 51, 0
8, 27240, Note_on_c, 9, 38, 120
8, 27240, Note_on_c, 9, 51, 127
8, 27262, Note_on_c, 9, 51, 0
8, 27267, Note_on_c, 9, 38, 0
8, 27300, Note_on_c, 9, 51, 127
8, 27318, Note_on_c, 9, 51, 0
8, 27360, Note_on_c, 9, 36, 127
8, 27360, Note_on_c, 9, 51, 127
8, 27382, Note_on_c, 9, 51, 0
8, 27391, Note_on_c, 9, 36, 0
8, 27420, Note_on_c, 9, 51, 127
8, 27438, Note_on_c, 9, 51, 0
8, 27480, Note_on_c, 9, 38, 120
8, 27480, Note_on_c, 9, 51, 127
8, 27500, Note_on_c, 9, 51, 0
8, 27510, Note_on_c, 9, 38, 0
8, 27540, Note_on_c, 9, 51, 127
8, 27558, Note_on_c, 9, 51, 0
8, 27600, Note_on_c, 9, 36, 127
8, 27600, Note_on_c, 9, 51, 127
8, 27621, Note_on_c, 9, 51, 0
8, 27629, Note_on_c, 9, 36, 0
8, 27660, Note_on_c, 9, 51, 127
8, 27678, Note_on_c, 9, 51, 0
8, 27720, Note_on_c, 9, 38, 127
8, 27720, Note_on_c, 9, 51, 127
8, 27742, Note_on_c, 9, 51, 0
8, 27750, Note_on_c, 9, 38, 0
8, 27780, Note_on_c, 9, 51, 127
8, 27800, Note_on_c, 9, 51, 0
8, 27840, Note_on_c, 9, 36, 112
8, 27840, Note_on_c, 9, 51, 127
8, 27863, Note_on_c, 9, 51, 0
8, 27869, Note_on_c, 9, 36, 0
8, 27900, Note_on_c, 9, 51, 127
8, 27922, Note_on_c, 9, 51, 0
8, 27960, Note_on_c, 9, 38, 127
8, 27960, Note_on_c, 9, 51, 127
8, 27983, Note_on_c, 9, 51, 0
8, 27989, Note_on_c, 9, 38, 0
8, 28020, Note_on_c, 9, 51, 127
8, 28040, Note_on_c, 9, 51, 0
8, 28080, Note_on_c, 9, 36, 127
8, 28080, Note_on_c, 9, 51, 127
8, 28100, Note_on_c, 9, 51, 0
8, 28111, Note_on_c, 9, 36, 0
8, 28140, Note_on_c, 9, 51, 127
8, 28160, Note_on_c, 9, 51, 0
8, 28200, Note_on_c, 9, 38, 127
8, 28200, Note_on_c, 9, 51, 127
8, 28223, Note_on_c, 9, 51, 0
8, 28229, Note_on_c, 9, 38, 0
8, 28260, Note_on_c, 9, 51, 127
8, 28281, Note_on_c, 9, 51, 0
8, 28320, Note_on_c, 9, 36, 127
8, 28320, Note_on_c, 9, 51, 127
8, 28343, Note_on_c, 9, 51, 0
8, 28347, Note_on_c, 9, 36, 0
8, 28380, Note_on_c, 9, 51, 127
8, 28403, Note_on_c, 9, 51, 0
8, 28440, Note_on_c, 9, 38, 120
8, 28440, Note_on_c, 9, 51, 127
8, 28461, Note_on_c, 9, 51, 0
8, 28467, Note_on_c, 9, 38, 0
8, 28500, Note_on_c, 9, 51, 127
8, 28520, Note_on_c, 9, 51, 0
8, 28560, Note_on_c, 9, 36, 120
8, 28560, Note_on_c, 9, 51, 127
8, 28582, Note_on_c, 9, 51, 0
8, 28587, Note_on_c, 9, 36, 0
8, 28620, Note_on_c, 9, 51, 127
8, 28640, Note_on_c, 9, 51, 0
8, 28680, Note_on_c, 9, 38, 120
8, 28680, Note_on_c, 9, 51, 127
8, 28701, Note_on_c, 9, 51, 0
8, 28707, Note_on_c, 9, 38, 0
8, 28740, Note_on_c, 9, 51, 127
8, 28760, Note_on_c, 9, 51, 0
8, 28800, Note_on_c, 9, 36, 120
8, 28800, Note_on_c, 9, 51, 127
8, 28820, Note_on_c, 9, 51, 0
8, 28827, Note_on_c, 9, 36, 0
8, 28860, Note_on_c, 9, 51, 127
8, 28880, Note_on_c, 9, 51, 0
8, 28920, Note_on_c, 9, 38, 127
8, 28920, Note_on_c, 9, 51, 127
8, 28942, Note_on_c, 9, 51, 0
8, 28947, Note_on_c, 9, 38, 0
8, 28980, Note_on_c, 9, 51, 127
8, 29001, Note_on_c, 9, 51, 0
8, 29040, Note_on_c, 9, 36, 127
8, 29040, Note_on_c, 9, 51, 127
8, 29060, Note_on_c, 9, 51, 0
8, 29069, Note_on_c, 9, 36, 0
8, 29100, Note_on_c, 9, 51, 127
8, 29118, Note_on_c, 9, 51, 0
8, 29160, Note_on_c, 9, 38, 127
8, 29160, Note_on_c, 9, 51, 127
8, 29183, Note_on_c, 9, 51, 0
8, 29189, Note_on_c, 9, 38, 0
8, 29220, Note_on_c, 9, 51, 127
8, 29238, Note_on_c, 9, 51, 0
8, 29280, Note_on_c, 9, 36, 127
8, 29280, Note_on_c, 9, 51, 127
8, 29303, Note_on_c, 9, 51, 0
8, 29309, Note_on_c, 9, 36, 0
8, 29340, Note_on_c, 9, 51, 127
8, 29358, Note_on_c, 9, 51, 0
8, 29400, Note_on_c, 9, 38, 127
8, 29400, Note_on_c, 9, 51, 127
8, 29420, Note_on_c, 9, 51, 0
8, 29430, Note_on_c, 9, 38, 0
8, 29460, Note_on_c, 9, 51, 127
8, 29480, Note_on_c, 9, 51, 0
8, 29520, Note_on_c, 9, 36, 127
8, 29520, Note_on_c, 9, 51, 127
8, 29540, Note_on_c, 9, 51, 0
8, 29550, Note_on_c, 9, 36, 0
8, 29580, Note_on_c, 9, 51, 127
8, 29600, Note_on_c, 9, 51, 0
8, 29640, Note_on_c, 9, 38, 127
8, 29640, Note_on_c, 9, 51, 127
8, 29660, Note_on_c, 9, 51, 0
8, 29670, Note_on_c, 9, 38, 0
8, 29700, Note_on_c, 9, 51, 127
8, 29722, Note_on_c, 9, 51, 0
8, 29760, Note_on_c, 9, 36, 127
8, 29760, Note_on_c, 9, 51, 127
8, 29783, Note_on_c, 9, 51, 0
8, 29787, Note_on_c, 9, 36, 0
8, 29820, Note_on_c, 9, 51, 127
8, 29843, Note_on_c, 9, 51, 0
8, 29880, Note_on_c, 9, 38, 120
8, 29880, Note_on_c, 9, 51, 127
8, 29901, Note_on_c, 9, 51, 0
8, 29907, Note_on_c, 9, 38, 0
8, 29940, Note_on_c, 9, 51, 127
8, 29960, Note_on_c, 9, 51, 0
8, 30000, Note_on_c, 9, 36, 120
8, 30000, Note_on_c, 9, 51, 127
8, 30022, Note_on_c, 9, 51, 0
8, 30027, Note_on_c, 9, 36, 0
8, 30060, Note_on_c, 9, 51, 127
8, 30080, Note_on_c, 9, 51, 0
8, 30120, Note_on_c, 9, 38, 120
8, 30120, Note_on_c, 9, 51, 127
8, 30141, Note_on_c, 9, 51, 0
8, 30147, Note_on_c, 9, 38, 0
8, 30180, Note_on_c, 9, 51, 127
8, 30200, Note_on_c, 9, 51, 0
8, 30240, Note_on_c, 9, 36, 120
8, 30240, Note_on_c, 9, 51, 127
8, 30260, Note_on_c, 9, 51, 0
8, 30267, Note_on_c, 9, 36, 0
8, 30300, Note_on_c, 9, 51, 127
8, 30320, Note_on_c, 9, 51, 0
8, 30360, Note_on_c, 9, 38, 127
8, 30360, Note_on_c, 9, 51, 127
8, 30380, Note_on_c, 9, 51, 0
8, 30385, Note_on_c, 9, 38, 0
8, 30420, Note_on_c, 9, 51, 127
8, 30438, Note_on_c, 9, 51, 0
8, 30480, Note_on_c, 9, 36, 127
8, 30480, Note_on_c, 9, 51, 127
8, 30500, Note_on_c, 9, 51, 0
8, 30503, Note_on_c, 9, 36, 0
8, 30540, Note_on_c, 9, 51, 127
8, 30558, Note_on_c, 9, 51, 0
8, 30600, Note_on_c, 9, 38, 127
8, 30600, Note_on_c, 9, 51, 127
8, 30622, Note_on_c, 9, 51, 0
8, 30625, Note_on_c, 9, 38, 0
8, 30660, Note_on_c, 9, 51, 127
8, 30680, Note_on_c, 9, 51, 0
8, 30720, Note_on_c, 9, 36, 127
8, 30720, Note_on_c, 9, 51, 127
8, 30741, Note_on_c, 9, 51, 0
8, 30745, Note_on_c, 9, 36, 0
8, 30780, Note_on_c, 9, 51, 127
8, 30800, Note_on_c, 9, 51, 0
8, 30840, Note_on_c, 9, 38, 127
8, 30840, Note_on_c, 9, 51, 127
8, 30860, Note_on_c, 9, 51, 0
8, 30864, Note_on_c, 9, 38, 0
8, 30900, Note_on_c, 9, 51, 127
8, 30918, Note_on_c, 9, 51, 0
8, 30960, Note_on_c, 9, 36, 127
8, 30960, Note_on_c, 9, 51, 127
8, 30980, Note_on_c, 9, 51, 0
8, 30984, Note_on_c, 9, 36, 0
8, 31020, Note_on_c, 9, 51, 127
8, 31040, Note_on_c, 9, 51, 0
8, 31080, Note_on_c, 9, 38, 127
8, 31080, Note_on_c, 9, 51, 127
8, 31105, Note_on_c, 9, 51, 0
8, 31112, Note_on_c, 9, 38, 0
8, 31143, Note_on_c, 9, 51, 127
8, 31157, Note_on_c, 9, 51, 0
8, 31200, Note_on_c, 9, 49, 127
8, 31200, Note_on_c, 9, 36, 127
8, 31220, Note_on_c, 9, 49, 0
8, 31252, Note_on_c, 9, 36, 0
8, 31260, Note_on_c, 9, 51, 120
8, 31278, Note_on_c, 9, 51, 0
8, 31320, Note_on_c, 9, 38, 120
8, 31320, Note_on_c, 9, 51, 127
8, 31343, Note_on_c, 9, 51, 0
8, 31358, Note_on_c, 9, 38, 0
8, 31380, Note_on_c, 9, 51, 127
8, 31400, Note_on_c, 9, 51, 0
8, 31440, Note_on_c, 9, 36, 120
8, 31440, Note_on_c, 9, 51, 127
8, 31463, Note_on_c, 9, 51, 0
8, 31479, Note_on_c, 9, 36, 0
8, 31500, Note_on_c, 9, 51, 127
8, 31522, Note_on_c, 9, 51, 0
8, 31560, Note_on_c, 9, 38, 127
8, 31560, Note_on_c, 9, 51, 127
8, 31588, Note_on_c, 9, 51, 0
8, 31594, Note_on_c, 9, 38, 0
8, 31620, Note_on_c, 9, 51, 127
8, 31642, Note_on_c, 9, 51, 0
8, 31680, Note_on_c, 9, 36, 127
8, 31680, Note_on_c, 9, 51, 127
8, 31702, Note_on_c, 9, 51, 0
8, 31712, Note_on_c, 9, 36, 0
8, 31740, Note_on_c, 9, 51, 127
8, 31763, Note_on_c, 9, 51, 0
8, 31800, Note_on_c, 9, 38, 127
8, 31800, Note_on_c, 9, 51, 127
8, 31823, Note_on_c, 9, 51, 0
8, 31834, Note_on_c, 9, 38, 0
8, 31860, Note_on_c, 9, 51, 127
8, 31881, Note_on_c, 9, 51, 0
8, 31920, Note_on_c, 9, 36, 120
8, 31920, Note_on_c, 9, 51, 127
8, 31945, Note_on_c, 9, 51, 0
8, 31952, Note_on_c, 9, 36, 0
8, 31980, Note_on_c, 9, 51, 127
8, 32001, Note_on_c, 9, 51, 0
8, 32040, Note_on_c, 9, 38, 127
8, 32040, Note_on_c, 9, 51, 127
8, 32065, Note_on_c, 9, 51, 0
8, 32069, Note_on_c, 9, 38, 0
8, 32100, Note_on_c, 9, 51, 127
8, 32120, Note_on_c, 9, 51, 0
8, 32160, Note_on_c, 9, 36, 112
8, 32160, Note_on_c, 9, 51, 127
8, 32183, Note_on_c, 9, 51, 0
8, 32189, Note_on_c, 9, 36, 0
8, 32220, Note_on_c, 9, 51, 127
8, 32242, Note_on_c, 9, 51, 0
8, 32280, Note_on_c, 9, 38, 127
8, 32280, Note_on_c, 9, 51, 127
8, 32303, Note_on_c, 9, 51, 0
8, 32309, Note_on_c, 9, 38, 0
8, 32340, Note_on_c, 9, 51, 127
8, 32360, Note_on_c, 9, 51, 0
8, 32400, Note_on_c, 9, 36, 112
8, 32400, Note_on_c, 9, 51, 127
8, 32423, Note_on_c, 9, 51, 0
8, 32434, Note_on_c, 9, 36, 0
8, 32460, Note_on_c, 9, 51, 127
8, 32480, Note_on_c, 9, 51, 0
8, 32520, Note_on_c, 9, 38, 127
8, 32520, Note_on_c, 9, 51, 127
8, 32543, Note_on_c, 9, 51, 0
8, 32545, Note_on_c, 9, 38, 0
8, 32580, Note_on_c, 9, 51, 127
8, 32600, Note_on_c, 9, 51, 0
8, 32640, Note_on_c, 9, 36, 127
8, 32640, Note_on_c, 9, 51, 127
8, 32663, Note_on_c, 9, 51, 0
8, 32669, Note_on_c, 9, 36, 0
8, 32700, Note_on_c, 9, 51, 127
8, 32723, Note_on_c, 9, 51, 0
8, 32760, Note_on_c, 9, 38, 120
8, 32760, Note_on_c, 9, 51, 127
8, 32783, Note_on_c, 9, 51, 0
8, 32789, Note_on_c, 9, 38, 0
8, 32820, Note_on_c, 9, 51, 127
8, 32842, Note_on_c, 9, 51, 0
8, 32880, Note_on_c, 9, 36, 120
8, 32880, Note_on_c, 9, 51, 127
8, 32902, Note_on_c, 9, 51, 0
8, 32914, Note_on_c, 9, 36, 0
8, 32940, Note_on_c, 9, 51, 127
8, 32963, Note_on_c, 9, 51, 0
8, 33000, Note_on_c, 9, 38, 120
8, 33000, Note_on_c, 9, 51, 127
8, 33022, Note_on_c, 9, 51, 0
8, 33027, Note_on_c, 9, 38, 0
8, 33060, Note_on_c, 9, 51, 127
8, 33078, Note_on_c, 9, 51, 0
8, 33120, Note_on_c, 9, 36, 127
8, 33120, Note_on_c, 9, 51, 127
8, 33142, Note_on_c, 9, 51, 0
8, 33151, Note_on_c, 9, 36, 0
8, 33180, Note_on_c, 9, 51, 127
8, 33198, Note_on_c, 9, 51, 0
8, 33240, Note_on_c, 9, 38, 120
8, 33240, Note_on_c, 9, 51, 127
8, 33260, Note_on_c, 9, 51, 0
8, 33270, Note_on_c, 9, 38, 0
8, 33300, Note_on_c, 9, 51, 127
8, 33318, Note_on_c, 9, 51, 0
8, 33360, Note_on_c, 9, 36, 127
8, 33360, Note_on_c, 9, 51, 127
8, 33381, Note_on_c, 9, 51, 0
8, 33389, Note_on_c, 9, 36, 0
8, 33420, Note_on_c, 9, 51, 127
8, 33438, Note_on_c, 9, 51, 0
8, 33480, Note_on_c, 9, 38, 127
8, 33480, Note_on_c, 9, 51, 127
8, 33502, Note_on_c, 9, 51, 0
8, 33510, Note_on_c, 9, 38, 0
8, 33540, Note_on_c, 9, 51, 127
8, 33560, Note_on_c, 9, 51, 0
8, 33600, Note_on_c, 9, 36, 112
8, 33600, Note_on_c, 9, 51, 127
8, 33623, Note_on_c, 9, 51, 0
8, 33629, Note_on_c, 9, 36, 0
8, 33660, Note_on_c, 9, 51, 127
8, 33682, Note_on_c, 9, 51, 0
8, 33720, Note_on_c, 9, 38, 127
8, 33720, Note_on_c, 9, 51, 127
8, 33743, Note_on_c, 9, 51, 0
8, 33749, Note_on_c, 9, 38, 0
8, 33780, Note_on_c, 9, 51, 127
8, 33800, Note_on_c, 9, 51, 0
8, 33840, Note_on_c, 9, 36, 127
8, 33840, Note_on_c, 9, 51, 127
8, 33860, Note_on_c, 9, 51, 0
8, 33871, Note_on_c, 9, 36, 0
8, 33900, Note_on_c, 9, 51, 127
8, 33920, Note_on_c, 9, 51, 0
8, 33960, Note_on_c, 9, 38, 127
8, 33960, Note_on_c, 9, 51, 127
8, 33983, Note_on_c, 9, 51, 0
8, 33989, Note_on_c, 9, 38, 0
8, 34020, Note_on_c, 9, 51, 127
8, 34041, Note_on_c, 9, 51, 0
8, 34080, Note_on_c, 9, 36, 127
8, 34080, Note_on_c, 9, 51, 127
8, 34103, Note_on_c, 9, 51, 0
8, 34107, Note_on_c, 9, 36, 0
8, 34140, Note_on_c, 9, 51, 127
8, 34163, Note_on_c, 9, 51, 0
8, 34200, Note_on_c, 9, 38, 120
8, 34200, Note_on_c, 9, 51, 127
8, 34221, Note_on_c, 9, 51, 0
8, 34227, Note_on_c, 9, 38, 0
8, 34260, Note_on_c, 9, 51, 127
8, 34280, Note_on_c, 9, 51, 0
8, 34320, Note_on_c, 9, 36, 120
8, 34320, Note_on_c, 9, 51, 127
8, 34342, Note_on_c, 9, 51, 0
8, 34347, Note_on_c, 9, 36, 0
8, 34380, Note_on_c, 9, 51, 127
8, 34400, Note_on_c, 9, 51, 0
8, 34440, Note_on_c, 9, 38, 120
8, 34440, Note_on_c, 9, 51, 127
8, 34461, Note_on_c, 9, 51, 0
8, 34467, Note_on_c, 9, 38, 0
8, 34500, Note_on_c, 9, 51, 127
8, 34520, Note_on_c, 9, 51, 0
8, 34560, Note_on_c, 9, 36, 120
8, 34560, Note_on_c, 9, 51, 127
8, 34580, Note_on_c, 9, 51, 0
8, 34587, Note_on_c, 9, 36, 0
8, 34620, Note_on_c, 9, 51, 127
8, 34640, Note_on_c, 9, 51, 0
8, 34680, Note_on_c, 9, 38, 127
8, 34680, Note_on_c, 9, 51, 127
8, 34702, Note_on_c, 9, 51, 0
8, 34707, Note_on_c, 9, 38, 0
8, 34740, Note_on_c, 9, 51, 127
8, 34761, Note_on_c, 9, 51, 0
8, 34800, Note_on_c, 9, 36, 127
8, 34800, Note_on_c, 9, 51, 127
8, 34820, Note_on_c, 9, 51, 0
8, 34829, Note_on_c, 9, 36, 0
8, 34860, Note_on_c, 9, 51, 127
8, 34878, Note_on_c, 9, 51, 0
8, 34920, Note_on_c, 9, 38, 127
8, 34920, Note_on_c, 9, 51, 127
8, 34943, Note_on_c, 9, 51, 0
8, 34949, Note_on_c, 9, 38, 0
8, 34980, Note_on_c, 9, 51, 127
8, 34998, Note_on_c, 9, 51, 0
8, 35040, Note_on_c, 9, 36, 127
8, 35040, Note_on_c, 9, 51, 127
8, 35063, Note_on_c, 9, 51, 0
8, 35069, Note_on_c, 9, 36, 0
8, 35100, Note_on_c, 9, 51, 127
8, 35118, Note_on_c, 9, 51, 0
8, 35160, Note_on_c, 9, 38, 127
8, 35160, Note_on_c, 9, 51, 127
8, 35180, Note_on_c, 9, 51, 0
8, 35190, Note_on_c, 9, 38, 0
8, 35220, Note_on_c, 9, 51, 127
8, 35240, Note_on_c, 9, 51, 0
8, 35280, Note_on_c, 9, 36, 127
8, 35280, Note_on_c, 9, 51, 127
8, 35300, Note_on_c, 9, 51, 0
8, 35310, Note_on_c, 9, 36, 0
8, 35340, Note_on_c, 9, 51, 127
8, 35360, Note_on_c, 9, 51, 0
8, 35400, Note_on_c, 9, 38, 127
8, 35400, Note_on_c, 9, 51, 127
8, 35420, Note_on_c, 9, 51, 0
8, 35430, Note_on_c, 9, 38, 0
8, 35460, Note_on_c, 9, 51, 127
8, 35482, Note_on_c, 9, 51, 0
8, 35520, Note_on_c, 9, 36, 127
8, 35520, Note_on_c, 9, 51, 127
8, 35543, Note_on_c, 9, 51, 0
8, 35547, Note_on_c, 9, 36, 0
8, 35580, Note_on_c, 9, 51, 127
8, 35603, Note_on_c, 9, 51, 0
8, 35640, Note_on_c, 9, 38, 120
8, 35640, Note_on_c, 9, 51, 127
8, 35661, Note_on_c, 9, 51, 0
8, 35667, Note_on_c, 9, 38, 0
8, 35700, Note_on_c, 9, 51, 127
8, 35720, Note_on_c, 9, 51, 0
8, 35760, Note_on_c, 9, 36, 120
8, 35760, Note_on_c, 9, 51, 127
8, 35782, Note_on_c, 9, 51, 0
8, 35787, Note_on_c, 9, 36, 0
8, 35820, Note_on_c, 9, 51, 127
8, 35840, Note_on_c, 9, 51, 0
8, 35880, Note_on_c, 9, 38, 120
8, 35880, Note_on_c, 9, 51, 127
8, 35901, Note_on_c, 9, 51, 0
8, 35907, Note_on_c, 9, 38, 0
8, 35940, Note_on_c, 9, 51, 127
8, 35960, Note_on_c, 9, 51, 0
8, 36000, Note_on_c, 9, 36, 120
8, 36000, Note_on_c, 9, 51, 127
8, 36020, Note_on_c, 9, 51, 0
8, 36027, Note_on_c, 9, 36, 0
8, 36060, Note_on_c, 9, 51, 127
8, 36080, Note_on_c, 9, 51, 0
8, 36120, Note_on_c, 9, 38, 127
8, 36120, Note_on_c, 9, 51, 127
8, 36140, Note_on_c, 9, 51, 0
8, 36145, Note_on_c, 9, 38, 0
8, 36180, Note_on_c, 9, 51, 127
8, 36198, Note_on_c, 9, 51, 0
8, 36240, Note_on_c, 9, 36, 127
8, 36240, Note_on_c, 9, 51, 127
8, 36260, Note_on_c, 9, 51, 0
8, 36263, Note_on_c, 9, 36, 0
8, 36300, Note_on_c, 9, 51, 127
8, 36318, Note_on_c, 9, 51, 0
8, 36360, Note_on_c, 9, 38, 127
8, 36360, Note_on_c, 9, 51, 127
8, 36382, Note_on_c, 9, 51, 0
8, 36385, Note_on_c, 9, 38, 0
8, 36420, Note_on_c, 9, 51, 127
8, 36440, Note_on_c, 9, 51, 0
8, 36480, Note_on_c, 9, 36, 127
8, 36480, Note_on_c, 9, 51, 127
8, 36501, Note_on_c, 9, 51, 0
8, 36505, Note_on_c, 9, 36, 0
8, 36540, Note_on_c, 9, 51, 127
8, 36560, Note_on_c, 9, 51, 0
8, 36600, Note_on_c, 9, 38, 127
8, 36600, Note_on_c, 9, 51, 127
8, 36620, Note_on_c, 9, 51, 0
8, 36624, Note_on_c, 9, 38, 0
8, 36660, Note_on_c, 9, 51, 127
8, 36678, Note_on_c, 9, 51, 0
8, 36720, Note_on_c, 9, 36, 127
8, 36720, Note_on_c, 9, 51, 127
8, 36740, Note_on_c, 9, 51, 0
8, 36744, Note_on_c, 9, 36, 0
8, 36780, Note_on_c, 9, 51, 127
8, 36800, Note_on_c, 9, 51, 0
8, 36840, Note_on_c, 9, 38, 127
8, 36840, Note_on_c, 9, 51, 127
8, 36865, Note_on_c, 9, 51, 0
8, 36872, Note_on_c, 9, 38, 0
8, 36900, Note_on_c, 9, 51, 127
8, 36914, Note_on_c, 9, 51, 0
8, 36960, Note_on_c, 9, 36, 127
8, 36960, Note_on_c, 9, 51, 127
8, 36980, Note_on_c, 9, 51, 0
8, 37012, Note_on_c, 9, 36, 0
8, 37020, Note_on_c, 9, 51, 120
8, 37038, Note_on_c, 9, 51, 0
8, 37080, Note_on_c, 9, 38, 120
8, 37080, Note_on_c, 9, 51, 127
8, 37103, Note_on_c, 9, 51, 0
8, 37118, Note_on_c, 9, 38, 0
8, 37140, Note_on_c, 9, 51, 127
8, 37160, Note_on_c, 9, 51, 0
8, 37200, Note_on_c, 9, 36, 120
8, 37200, Note_on_c, 9, 51, 127
8, 37223, Note_on_c, 9, 51, 0
8, 37239, Note_on_c, 9, 36, 0
8, 37260, Note_on_c, 9, 51, 127
8, 37282, Note_on_c, 9, 51, 0
8, 37320, Note_on_c, 9, 38, 127
8, 37320, Note_on_c, 9, 51, 127
8, 37348, Note_on_c, 9, 51, 0
8, 37354, Note_on_c, 9, 38, 0
8, 37380, Note_on_c, 9, 51, 127
8, 37402, Note_on_c, 9, 51, 0
8, 37440, Note_on_c, 9, 36, 127
8, 37440, Note_on_c, 9, 51, 127
8, 37462, Note_on_c, 9, 51, 0
8, 37472, Note_on_c, 9, 36, 0
8, 37500, Note_on_c, 9, 51, 127
8, 37523, Note_on_c, 9, 51, 0
8, 37560, Note_on_c, 9, 38, 127
8, 37560, Note_on_c, 9, 51, 127
8, 37583, Note_on_c, 9, 51, 0
8, 37594, Note_on_c, 9, 38, 0
8, 37620, Note_on_c, 9, 51, 127
8, 37641, Note_on_c, 9, 51, 0
8, 37680, Note_on_c, 9, 36, 120
8, 37680, Note_on_c, 9, 51, 127
8, 37705, Note_on_c, 9, 51, 0
8, 37712, Note_on_c, 9, 36, 0
8, 37740, Note_on_c, 9, 51, 127
8, 37761, Note_on_c, 9, 51, 0
8, 37800, Note_on_c, 9, 38, 127
8, 37800, Note_on_c, 9, 51, 127
8, 37825, Note_on_c, 9, 51, 0
8, 37829, Note_on_c, 9, 38, 0
8, 37860, Note_on_c, 9, 51, 127
8, 37880, Note_on_c, 9, 51, 0
8, 37920, Note_on_c, 9, 36, 112
8, 37920, Note_on_c, 9, 51, 127
8, 37943, Note_on_c, 9, 51, 0
8, 37949, Note_on_c, 9, 36, 0
8, 37980, Note_on_c, 9, 51, 127
8, 38002, Note_on_c, 9, 51, 0
8, 38040, Note_on_c, 9, 38, 127
8, 38040, Note_on_c, 9, 51, 127
8, 38063, Note_on_c, 9, 51, 0
8, 38069, Note_on_c, 9, 38, 0
8, 38100, Note_on_c, 9, 51, 127
8, 38120, Note_on_c, 9, 51, 0
8, 38160, Note_on_c, 9, 36, 112
8, 38160, Note_on_c, 9, 51, 127
8, 38183, Note_on_c, 9, 51, 0
8, 38194, Note_on_c, 9, 36, 0
8, 38220, Note_on_c, 9, 51, 127
8, 38240, Note_on_c, 9, 51, 0
8, 38280, Note_on_c, 9, 38, 127
8, 38280, Note_on_c, 9, 51, 127
8, 38303, Note_on_c, 9, 51, 0
8, 38305, Note_on_c, 9, 38, 0
8, 38340, Note_on_c, 9, 51, 127
8, 38360, Note_on_c, 9, 51, 0
8, 38400, Note_on_c, 9, 36, 127
8, 38400, Note_on_c, 9, 51, 127
8, 38423, Note_on_c, 9, 51, 0
8, 38429, Note_on_c, 9, 36, 0
8, 38460, Note_on_c, 9, 51, 127
8, 38483, Note_on_c, 9, 51, 0
8, 38520, Note_on_c, 9, 38, 120
8, 38520, Note_on_c, 9, 51, 127
8, 38543, Note_on_c, 9, 51, 0
8, 38549, Note_on_c, 9, 38, 0
8, 38580, Note_on_c, 9, 51, 127
8, 38602, Note_on_c, 9, 51, 0
8, 38640, Note_on_c, 9, 36, 120
8, 38640, Note_on_c, 9, 51, 127
8, 38662, Note_on_c, 9, 51, 0
8, 38674, Note_on_c, 9, 36, 0
8, 38700, Note_on_c, 9, 51, 127
8, 38723, Note_on_c, 9, 51, 0
8, 38760, Note_on_c, 9, 38, 120
8, 38760, Note_on_c, 9, 51, 127
8, 38782, Note_on_c, 9, 51, 0
8, 38787, Note_on_c, 9, 38, 0
8, 38820, Note_on_c, 9, 51, 127
8, 38838, Note_on_c, 9, 51, 0
8, 38880, Note_on_c, 9, 36, 127
8, 38880, Note_on_c, 9, 51, 127
8, 38902, Note_on_c, 9, 51, 0
8, 38911, Note_on_c, 9, 36, 0
8, 38940, Note_on_c, 9, 51, 127
8, 38958, Note_on_c, 9, 51, 0
8, 39000, Note_on_c, 9, 38, 120
8, 39000, Note_on_c, 9, 51, 127
8, 39020, Note_on_c, 9, 51, 0
8, 39030, Note_on_c, 9, 38, 0
8, 39060, Note_on_c, 9, 51, 127
8, 39078, Note_on_c, 9, 51, 0
8, 39120, Note_on_c, 9, 36, 127
8, 39120, Note_on_c, 9, 51, 127
8, 39141, Note_on_c, 9, 51, 0
8, 39149, Note_on_c, 9, 36, 0
8, 39180, Note_on_c, 9, 51, 127
8, 39198, Note_on_c, 9, 51, 0
8, 39240, Note_on_c, 9, 38, 127
8, 39240, Note_on_c, 9, 51, 127
8, 39262, Note_on_c, 9, 51, 0
8, 39270, Note_on_c, 9, 38, 0
8, 39300, Note_on_c, 9, 51, 127
8, 39320, Note_on_c, 9, 51, 0
8, 39360, Note_on_c, 9, 36, 112
8, 39360, Note_on_c, 9, 51, 127
8, 39383, Note_on_c, 9, 51, 0
8, 39389, Note_on_c, 9, 36, 0
8, 39420, Note_on_c, 9, 51, 127
8, 39442, Note_on_c, 9, 51, 0
8, 39480, Note_on_c, 9, 38, 127
8, 39480, Note_on_c, 9, 51, 127
8, 39503, Note_on_c, 9, 51, 0
8, 39509, Note_on_c, 9, 38, 0
8, 39540, Note_on_c, 9, 51, 127
8, 39560, Note_on_c, 9, 51, 0
8, 39600, Note_on_c, 9, 36, 127
8, 39600, Note_on_c, 9, 51, 127
8, 39620, Note_on_c, 9, 51, 0
8, 39631, Note_on_c, 9, 36, 0
8, 39660, Note_on_c, 9, 51, 127
8, 39680, Note_on_c, 9, 51, 0
8, 39720, Note_on_c, 9, 38, 127
8, 39720, Note_on_c, 9, 51, 127
8, 39743, Note_on_c, 9, 51, 0
8, 39749, Note_on_c, 9, 38, 0
8, 39780, Note_on_c, 9, 51, 127
8, 39801, Note_on_c, 9, 51, 0
8, 39840, Note_on_c, 9, 36, 127
8, 39840, Note_on_c, 9, 51, 127
8, 39863, Note_on_c, 9, 51, 0
8, 39867, Note_on_c, 9, 36, 0
8, 39900, Note_on_c, 9, 51, 127
8, 39923, Note_on_c, 9, 51, 0
8, 39960, Note_on_c, 9, 38, 120
8, 39960, Note_on_c, 9, 51, 127
8, 39981, Note_on_c, 9, 51, 0
8, 39987, Note_on_c, 9, 38, 0
8, 40020, Note_on_c, 9, 51, 127
8, 40040, Note_on_c, 9, 51, 0
8, 40080, Note_on_c, 9, 36, 120
8, 40080, Note_on_c, 9, 51, 127
8, 40102, Note_on_c, 9, 51, 0
8, 40107, Note_on_c, 9, 36, 0
8, 40140, Note_on_c, 9, 51, 127
8, 40160, Note_on_c, 9, 51, 0
8, 40200, Note_on_c, 9, 38, 120
8, 40200, Note_on_c, 9, 51, 127
8, 40221, Note_on_c, 9, 51, 0
8, 40227, Note_on_c, 9, 38, 0
8, 40260, Note_on_c, 9, 51, 127
8, 40280, Note_on_c, 9, 51, 0
8, 40320, Note_on_c, 9, 36, 120
8, 40320, Note_on_c, 9, 51, 127
8, 40340, Note_on_c, 9, 51, 0
8, 40347, Note_on_c, 9, 36, 0
8, 40380, Note_on_c, 9, 51, 127
8, 40400, Note_on_c, 9, 51, 0
8, 40440, Note_on_c, 9, 38, 127
8, 40440, Note_on_c, 9, 51, 127
8, 40462, Note_on_c, 9, 51, 0
8, 40467, Note_on_c, 9, 38, 0
8, 40500, Note_on_c, 9, 51, 127
8, 40521, Note_on_c, 9, 51, 0
8, 40560, Note_on_c, 9, 36, 127
8, 40560, Note_on_c, 9, 51, 127
8, 40580, Note_on_c, 9, 51, 0
8, 40589, Note_on_c, 9, 36, 0
8, 40620, Note_on_c, 9, 51, 127
8, 40638, Note_on_c, 9, 51, 0
8, 40680, Note_on_c, 9, 38, 127
8, 40680, Note_on_c, 9, 51, 127
8, 40703, Note_on_c, 9, 51, 0
8, 40709, Note_on_c, 9, 38, 0
8, 40740, Note_on_c, 9, 51, 127
8, 40758, Note_on_c, 9, 51, 0
8, 40800, Note_on_c, 9, 36, 127
8, 40800, Note_on_c, 9, 51, 127
8, 40823, Note_on_c, 9, 51, 0
8, 40829, Note_on_c, 9, 36, 0
8, 40860, Note_on_c, 9, 51, 127
8, 40878, Note_on_c, 9, 51, 0
8, 40920, Note_on_c, 9, 38, 127
8, 40920, Note_on_c, 9, 51, 127
8, 40940, Note_on_c, 9, 51, 0
8, 40950, Note_on_c, 9, 38, 0
8, 40980, Note_on_c, 9, 51, 127
8, 41000, Note_on_c, 9, 51, 0
8, 41040, Note_on_c, 9, 36, 127
8, 41040, Note_on_c, 9, 51, 127
8, 41060, Note_on_c, 9, 51, 0
8, 41070, Note_on_c, 9, 36, 0
8, 41100, Note_on_c, 9, 51, 127
8, 41120, Note_on_c, 9, 51, 0
8, 41160, Note_on_c, 9, 38, 127
8, 41160, Note_on_c, 9, 51, 127
8, 41180, Note_on_c, 9, 51, 0
8, 41190, Note_on_c, 9, 38, 0
8, 41220, Note_on_c, 9, 51, 127
8, 41242, Note_on_c, 9, 51, 0
8, 41280, Note_on_c, 9, 36, 127
8, 41280, Note_on_c, 9, 51, 127
8, 41303, Note_on_c, 9, 51, 0
8, 41307, Note_on_c, 9, 36, 0
8, 41340, Note_on_c, 9, 51, 127
8, 41363, Note_on_c, 9, 51, 0
8, 41400, Note_on_c, 9, 38, 120
8, 41400, Note_on_c, 9, 51, 127
8, 41421, Note_on_c, 9, 51, 0
8, 41427, Note_on_c, 9, 38, 0
8, 41460, Note_on_c, 9, 51, 127
8, 41480, Note_on_c, 9, 51, 0
8, 41520, Note_on_c, 9, 36, 120
8, 41520, Note_on_c, 9, 51, 127
8, 41542, Note_on_c, 9, 51, 0
8, 41547, Note_on_c, 9, 36, 0
8, 41580, Note_on_c, 9, 51, 127
8, 41600, Note_on_c, 9, 51, 0
8, 41640, Note_on_c, 9, 38, 120
8, 41640, Note_on_c, 9, 51, 127
8, 41661, Note_on_c, 9, 51, 0
8, 41667, Note_on_c, 9, 38, 0
8, 41700, Note_on_c, 9, 51, 127
8, 41720, Note_on_c, 9, 51, 0
8, 41760, Note_on_c, 9, 36, 120
8, 41760, Note_on_c, 9, 51, 127
8, 41780, Note_on_c, 9, 51, 0
8, 41787, Note_on_c, 9, 36, 0
8, 41820, Note_on_c, 9, 51, 127
8, 41840, Note_on_c, 9, 51, 0
8, 41880, Note_on_c, 9, 38, 127
8, 41880, Note_on_c, 9, 51, 127
8, 41900, Note_on_c, 9, 51, 0
8, 41905, Note_on_c, 9, 38, 0
8, 41940, Note_on_c, 9, 51, 127
8, 41958, Note_on_c, 9, 51, 0
8, 42000, Note_on_c, 9, 36, 127
8, 42000, Note_on_c, 9, 51, 127
8, 42020, Note_on_c, 9, 51, 0
8, 42023, Note_on_c, 9, 36, 0
8, 42060, Note_on_c, 9, 51, 127
8, 42078, Note_on_c, 9, 51, 0
8, 42120, Note_on_c, 9, 38, 127
8, 42120, Note_on_c, 9, 51, 127
8, 42142, Note_on_c, 9, 51, 0
8, 42145, Note_on_c, 9, 38, 0
8, 42180, Note_on_c, 9, 51, 127
8, 42200, Note_on_c, 9, 51, 0
8, 42240, Note_on_c, 9, 38, 127
8, 42240, Note_on_c, 9, 36, 127
8, 42240, Note_on_c, 9, 49, 127
8, 42289, Note_on_c, 9, 49, 0
8, 42290, Note_on_c, 9, 36, 0
8, 42291, Note_on_c, 9, 38, 0
8, 42291, MIDI_port, 0
8, 42960, System_exclusive, 10, 65, 16, 66, 18, 64, 0, 127, 0, 65, 247
8, 42960, MIDI_port, 0
8, 42960, End_track
0, 0, End_of_file
