0, 0, Header, 1, 26, 120
1, 0, Start_track
1, 0, Time_signature, 4, 2, 24, 8
1, 0, Key_signature, 0, "major"
1, 0, Tempo, 555556
1, 0, Marker_t, "COPYRIGHT 1999 THE MIDIsTATION"
1, 0, End_track
2, 0, Start_track
2, 0, MIDI_port, 0
2, 0, Program_c, 0, 34
2, 0, Control_c, 0, 7, 115
2, 0, Control_c, 0, 10, 64
2, 480, Note_on_c, 0, 31, 100
2, 530, Note_on_c, 0, 31, 0
2, 540, Note_on_c, 0, 43, 100
2, 590, Note_on_c, 0, 43, 0
2, 600, Note_on_c, 0, 41, 100
2, 650, Note_on_c, 0, 41, 0
2, 660, Note_on_c, 0, 38, 100
2, 780, Note_on_c, 0, 38, 0
2, 780, Note_on_c, 0, 36, 100
2, 900, Note_on_c, 0, 36, 0
2, 900, Note_on_c, 0, 32, 100
2, 960, Note_on_c, 0, 32, 0
2, 960, Note_on_c, 0, 31, 100
2, 1010, Note_on_c, 0, 31, 0
2, 1020, Note_on_c, 0, 43, 100
2, 1070, Note_on_c, 0, 43, 0
2, 1080, Note_on_c, 0, 41, 100
2, 1130, Note_on_c, 0, 41, 0
2, 1140, Note_on_c, 0, 38, 100
2, 1260, Note_on_c, 0, 38, 0
2, 1260, Note_on_c, 0, 36, 100
2, 1380, Note_on_c, 0, 36, 0
2, 1380, Note_on_c, 0, 32, 100
2, 1440, Note_on_c, 0, 32, 0
2, 1440, Note_on_c, 0, 31, 100
2, 1490, Note_on_c, 0, 31, 0
2, 1500, Note_on_c, 0, 43, 100
2, 1550, Note_on_c, 0, 43, 0
2, 1560, Note_on_c, 0, 41, 100
2, 1610, Note_on_c, 0, 41, 0
2, 1620, Note_on_c, 0, 38, 100
2, 1740, Note_on_c, 0, 38, 0
2, 1740, Note_on_c, 0, 36, 100
2, 1860, Note_on_c, 0, 36, 0
2, 1860, Note_on_c, 0, 32, 100
2, 1920, Note_on_c, 0, 32, 0
2, 1920, Note_on_c, 0, 31, 100
2, 1970, Note_on_c, 0, 31, 0
2, 1980, Note_on_c, 0, 43, 100
2, 2030, Note_on_c, 0, 43, 0
2, 2040, Note_on_c, 0, 41, 100
2, 2090, Note_on_c, 0, 41, 0
2, 2100, Note_on_c, 0, 38, 100
2, 2220, Note_on_c, 0, 38, 0
2, 2220, Note_on_c, 0, 36, 100
2, 2340, Note_on_c, 0, 36, 0
2, 2340, Note_on_c, 0, 32, 100
2, 2400, Note_on_c, 0, 32, 0
2, 2400, Note_on_c, 0, 43, 100
2, 2450, Note_on_c, 0, 43, 0
2, 2460, Note_on_c, 0, 42, 100
2, 2510, Note_on_c, 0, 42, 0
2, 2520, Note_on_c, 0, 40, 100
2, 2580, Note_on_c, 0, 40, 0
2, 2580, Note_on_c, 0, 38, 100
2, 2700, Note_on_c, 0, 38, 0
2, 2700, Note_on_c, 0, 35, 100
2, 2760, Note_on_c, 0, 35, 0
2, 2760, Note_on_c, 0, 31, 100
2, 2820, Note_on_c, 0, 31, 0
2, 2820, Note_on_c, 0, 43, 100
2, 2940, Note_on_c, 0, 43, 0
2, 2940, Note_on_c, 0, 42, 100
2, 3060, Note_on_c, 0, 42, 0
2, 3060, Note_on_c, 0, 38, 100
2, 3180, Note_on_c, 0, 38, 0
2, 3180, Note_on_c, 0, 35, 100
2, 3240, Note_on_c, 0, 35, 0
2, 3240, Note_on_c, 0, 31, 100
2, 3300, Note_on_c, 0, 31, 0
2, 3300, Note_on_c, 0, 38, 100
2, 3325, Note_on_c, 0, 38, 0
2, 3330, Note_on_c, 0, 40, 100
2, 3355, Note_on_c, 0, 40, 0
2, 3360, Note_on_c, 0, 42, 100
2, 3410, Note_on_c, 0, 42, 0
2, 3420, Note_on_c, 0, 40, 100
2, 3470, Note_on_c, 0, 40, 0
2, 3480, Note_on_c, 0, 38, 100
2, 3540, Note_on_c, 0, 38, 0
2, 3540, Note_on_c, 0, 38, 100
2, 3660, Note_on_c, 0, 38, 0
2, 3660, Note_on_c, 0, 33, 100
2, 3720, Note_on_c, 0, 33, 0
2, 3720, Note_on_c, 0, 30, 100
2, 3780, Note_on_c, 0, 30, 0
2, 3780, Note_on_c, 0, 42, 100
2, 3900, Note_on_c, 0, 42, 0
2, 3900, Note_on_c, 0, 40, 100
2, 4020, Note_on_c, 0, 40, 0
2, 4020, Note_on_c, 0, 38, 100
2, 4140, Note_on_c, 0, 38, 0
2, 4140, Note_on_c, 0, 33, 100
2, 4200, Note_on_c, 0, 33, 0
2, 4200, Note_on_c, 0, 30, 100
2, 4320, Note_on_c, 0, 30, 0
2, 4320, Note_on_c, 0, 35, 100
2, 4380, Note_on_c, 0, 35, 0
2, 4380, Note_on_c, 0, 33, 100
2, 4440, Note_on_c, 0, 33, 0
2, 4440, Note_on_c, 0, 31, 100
2, 4500, Note_on_c, 0, 31, 0
2, 4500, Note_on_c, 0, 31, 100
2, 4620, Note_on_c, 0, 31, 0
2, 4620, Note_on_c, 0, 28, 100
2, 4680, Note_on_c, 0, 28, 0
2, 4680, Note_on_c, 0, 31, 100
2, 4740, Note_on_c, 0, 31, 0
2, 4740, Note_on_c, 0, 35, 100
2, 4860, Note_on_c, 0, 35, 0
2, 4860, Note_on_c, 0, 33, 100
2, 4980, Note_on_c, 0, 33, 0
2, 4980, Note_on_c, 0, 31, 100
2, 5100, Note_on_c, 0, 31, 0
2, 5100, Note_on_c, 0, 28, 100
2, 5160, Note_on_c, 0, 28, 0
2, 5160, Note_on_c, 0, 31, 100
2, 5220, Note_on_c, 0, 31, 0
2, 5220, Note_on_c, 0, 33, 100
2, 5280, Note_on_c, 0, 33, 0
2, 5280, Note_on_c, 0, 35, 100
2, 5360, Note_on_c, 0, 35, 0
2, 5400, Note_on_c, 0, 35, 100
2, 5520, Note_on_c, 0, 35, 0
2, 5580, Note_on_c, 0, 35, 100
2, 5640, Note_on_c, 0, 35, 0
2, 5640, Note_on_c, 0, 35, 100
2, 5700, Note_on_c, 0, 35, 0
2, 5700, Note_on_c, 0, 36, 100
2, 5820, Note_on_c, 0, 36, 0
2, 5820, Note_on_c, 0, 35, 100
2, 5940, Note_on_c, 0, 35, 0
2, 5940, Note_on_c, 0, 33, 100
2, 6060, Note_on_c, 0, 33, 0
2, 6060, Note_on_c, 0, 31, 100
2, 6120, Note_on_c, 0, 31, 0
2, 6120, Note_on_c, 0, 33, 100
2, 6180, Note_on_c, 0, 33, 0
2, 6180, Note_on_c, 0, 34, 100
2, 6240, Note_on_c, 0, 34, 0
2, 6240, Note_on_c, 0, 35, 100
2, 6320, Note_on_c, 0, 35, 0
2, 6360, Note_on_c, 0, 35, 100
2, 6480, Note_on_c, 0, 35, 0
2, 6540, Note_on_c, 0, 36, 100
2, 6600, Note_on_c, 0, 36, 0
2, 6600, Note_on_c, 0, 37, 100
2, 6660, Note_on_c, 0, 37, 0
2, 6660, Note_on_c, 0, 38, 100
2, 6780, Note_on_c, 0, 38, 0
2, 6780, Note_on_c, 0, 38, 100
2, 6900, Note_on_c, 0, 38, 0
2, 6900, Note_on_c, 0, 38, 100
2, 7020, Note_on_c, 0, 38, 0
2, 7020, Note_on_c, 0, 38, 100
2, 7070, Note_on_c, 0, 38, 0
2, 7080, Note_on_c, 0, 38, 100
2, 7140, Note_on_c, 0, 38, 0
2, 7140, Note_on_c, 0, 40, 100
2, 7165, Note_on_c, 0, 40, 0
2, 7170, Note_on_c, 0, 42, 100
2, 7195, Note_on_c, 0, 42, 0
2, 7200, Note_on_c, 0, 43, 100
2, 7250, Note_on_c, 0, 43, 0
2, 7260, Note_on_c, 0, 42, 100
2, 7310, Note_on_c, 0, 42, 0
2, 7320, Note_on_c, 0, 40, 100
2, 7380, Note_on_c, 0, 40, 0
2, 7380, Note_on_c, 0, 38, 100
2, 7500, Note_on_c, 0, 38, 0
2, 7500, Note_on_c, 0, 35, 100
2, 7560, Note_on_c, 0, 35, 0
2, 7560, Note_on_c, 0, 31, 100
2, 7620, Note_on_c, 0, 31, 0
2, 7620, Note_on_c, 0, 43, 100
2, 7740, Note_on_c, 0, 43, 0
2, 7740, Note_on_c, 0, 42, 100
2, 7860, Note_on_c, 0, 42, 0
2, 7860, Note_on_c, 0, 38, 100
2, 7980, Note_on_c, 0, 38, 0
2, 7980, Note_on_c, 0, 35, 100
2, 8040, Note_on_c, 0, 35, 0
2, 8040, Note_on_c, 0, 31, 100
2, 8100, Note_on_c, 0, 31, 0
2, 8100, Note_on_c, 0, 38, 100
2, 8125, Note_on_c, 0, 38, 0
2, 8130, Note_on_c, 0, 40, 100
2, 8155, Note_on_c, 0, 40, 0
2, 8160, Note_on_c, 0, 42, 100
2, 8210, Note_on_c, 0, 42, 0
2, 8220, Note_on_c, 0, 40, 100
2, 8270, Note_on_c, 0, 40, 0
2, 8280, Note_on_c, 0, 38, 100
2, 8340, Note_on_c, 0, 38, 0
2, 8340, Note_on_c, 0, 38, 100
2, 8460, Note_on_c, 0, 38, 0
2, 8460, Note_on_c, 0, 33, 100
2, 8520, Note_on_c, 0, 33, 0
2, 8520, Note_on_c, 0, 30, 100
2, 8580, Note_on_c, 0, 30, 0
2, 8580, Note_on_c, 0, 42, 100
2, 8700, Note_on_c, 0, 42, 0
2, 8700, Note_on_c, 0, 40, 100
2, 8820, Note_on_c, 0, 40, 0
2, 8820, Note_on_c, 0, 38, 100
2, 8940, Note_on_c, 0, 38, 0
2, 8940, Note_on_c, 0, 33, 100
2, 9000, Note_on_c, 0, 33, 0
2, 9000, Note_on_c, 0, 30, 100
2, 9120, Note_on_c, 0, 30, 0
2, 9120, Note_on_c, 0, 35, 100
2, 9180, Note_on_c, 0, 35, 0
2, 9180, Note_on_c, 0, 33, 100
2, 9240, Note_on_c, 0, 33, 0
2, 9240, Note_on_c, 0, 31, 100
2, 9300, Note_on_c, 0, 31, 0
2, 9300, Note_on_c, 0, 31, 100
2, 9420, Note_on_c, 0, 31, 0
2, 9420, Note_on_c, 0, 28, 100
2, 9480, Note_on_c, 0, 28, 0
2, 9480, Note_on_c, 0, 31, 100
2, 9540, Note_on_c, 0, 31, 0
2, 9540, Note_on_c, 0, 35, 100
2, 9660, Note_on_c, 0, 35, 0
2, 9660, Note_on_c, 0, 33, 100
2, 9780, Note_on_c, 0, 33, 0
2, 9780, Note_on_c, 0, 31, 100
2, 9900, Note_on_c, 0, 31, 0
2, 9900, Note_on_c, 0, 28, 100
2, 9960, Note_on_c, 0, 28, 0
2, 9960, Note_on_c, 0, 31, 100
2, 10020, Note_on_c, 0, 31, 0
2, 10020, Note_on_c, 0, 33, 100
2, 10080, Note_on_c, 0, 33, 0
2, 10080, Note_on_c, 0, 35, 100
2, 10160, Note_on_c, 0, 35, 0
2, 10200, Note_on_c, 0, 35, 100
2, 10320, Note_on_c, 0, 35, 0
2, 10380, Note_on_c, 0, 35, 100
2, 10440, Note_on_c, 0, 35, 0
2, 10440, Note_on_c, 0, 35, 100
2, 10500, Note_on_c, 0, 35, 0
2, 10500, Note_on_c, 0, 36, 100
2, 10620, Note_on_c, 0, 36, 0
2, 10620, Note_on_c, 0, 35, 100
2, 10740, Note_on_c, 0, 35, 0
2, 10740, Note_on_c, 0, 33, 100
2, 10860, Note_on_c, 0, 33, 0
2, 10860, Note_on_c, 0, 31, 100
2, 10920, Note_on_c, 0, 31, 0
2, 10920, Note_on_c, 0, 33, 100
2, 10980, Note_on_c, 0, 33, 0
2, 10980, Note_on_c, 0, 34, 100
2, 11040, Note_on_c, 0, 34, 0
2, 11040, Note_on_c, 0, 35, 100
2, 11120, Note_on_c, 0, 35, 0
2, 11160, Note_on_c, 0, 35, 100
2, 11280, Note_on_c, 0, 35, 0
2, 11340, Note_on_c, 0, 36, 100
2, 11400, Note_on_c, 0, 36, 0
2, 11400, Note_on_c, 0, 37, 100
2, 11460, Note_on_c, 0, 37, 0
2, 11460, Note_on_c, 0, 38, 100
2, 11580, Note_on_c, 0, 38, 0
2, 11580, Note_on_c, 0, 38, 100
2, 11700, Note_on_c, 0, 38, 0
2, 11700, Note_on_c, 0, 38, 100
2, 11820, Note_on_c, 0, 38, 0
2, 11820, Note_on_c, 0, 38, 100
2, 11870, Note_on_c, 0, 38, 0
2, 11880, Note_on_c, 0, 38, 100
2, 11940, Note_on_c, 0, 38, 0
2, 11940, Note_on_c, 0, 40, 100
2, 11965, Note_on_c, 0, 40, 0
2, 11970, Note_on_c, 0, 42, 100
2, 11995, Note_on_c, 0, 42, 0
2, 12000, Note_on_c, 0, 43, 100
2, 12050, Note_on_c, 0, 43, 0
2, 12060, Note_on_c, 0, 42, 100
2, 12110, Note_on_c, 0, 42, 0
2, 12120, Note_on_c, 0, 40, 100
2, 12180, Note_on_c, 0, 40, 0
2, 12180, Note_on_c, 0, 38, 100
2, 12300, Note_on_c, 0, 38, 0
2, 12300, Note_on_c, 0, 35, 100
2, 12360, Note_on_c, 0, 35, 0
2, 12360, Note_on_c, 0, 31, 100
2, 12420, Note_on_c, 0, 31, 0
2, 12420, Note_on_c, 0, 43, 100
2, 12540, Note_on_c, 0, 43, 0
2, 12540, Note_on_c, 0, 42, 100
2, 12660, Note_on_c, 0, 42, 0
2, 12660, Note_on_c, 0, 38, 100
2, 12780, Note_on_c, 0, 38, 0
2, 12780, Note_on_c, 0, 35, 100
2, 12840, Note_on_c, 0, 35, 0
2, 12840, Note_on_c, 0, 31, 100
2, 12900, Note_on_c, 0, 31, 0
2, 12900, Note_on_c, 0, 38, 100
2, 12925, Note_on_c, 0, 38, 0
2, 12930, Note_on_c, 0, 40, 100
2, 12955, Note_on_c, 0, 40, 0
2, 12960, Note_on_c, 0, 42, 100
2, 13010, Note_on_c, 0, 42, 0
2, 13020, Note_on_c, 0, 40, 100
2, 13070, Note_on_c, 0, 40, 0
2, 13080, Note_on_c, 0, 38, 100
2, 13140, Note_on_c, 0, 38, 0
2, 13140, Note_on_c, 0, 38, 100
2, 13260, Note_on_c, 0, 38, 0
2, 13260, Note_on_c, 0, 33, 100
2, 13320, Note_on_c, 0, 33, 0
2, 13320, Note_on_c, 0, 30, 100
2, 13380, Note_on_c, 0, 30, 0
2, 13380, Note_on_c, 0, 42, 100
2, 13500, Note_on_c, 0, 42, 0
2, 13500, Note_on_c, 0, 40, 100
2, 13620, Note_on_c, 0, 40, 0
2, 13620, Note_on_c, 0, 38, 100
2, 13740, Note_on_c, 0, 38, 0
2, 13740, Note_on_c, 0, 33, 100
2, 13800, Note_on_c, 0, 33, 0
2, 13800, Note_on_c, 0, 30, 100
2, 13920, Note_on_c, 0, 30, 0
2, 13920, Note_on_c, 0, 35, 100
2, 13980, Note_on_c, 0, 35, 0
2, 13980, Note_on_c, 0, 33, 100
2, 14040, Note_on_c, 0, 33, 0
2, 14040, Note_on_c, 0, 31, 100
2, 14100, Note_on_c, 0, 31, 0
2, 14100, Note_on_c, 0, 31, 100
2, 14220, Note_on_c, 0, 31, 0
2, 14220, Note_on_c, 0, 28, 100
2, 14280, Note_on_c, 0, 28, 0
2, 14280, Note_on_c, 0, 31, 100
2, 14340, Note_on_c, 0, 31, 0
2, 14340, Note_on_c, 0, 35, 100
2, 14460, Note_on_c, 0, 35, 0
2, 14460, Note_on_c, 0, 33, 100
2, 14580, Note_on_c, 0, 33, 0
2, 14580, Note_on_c, 0, 31, 100
2, 14700, Note_on_c, 0, 31, 0
2, 14700, Note_on_c, 0, 28, 100
2, 14760, Note_on_c, 0, 28, 0
2, 14760, Note_on_c, 0, 31, 100
2, 14820, Note_on_c, 0, 31, 0
2, 14820, Note_on_c, 0, 33, 100
2, 14880, Note_on_c, 0, 33, 0
2, 14880, Note_on_c, 0, 35, 100
2, 14960, Note_on_c, 0, 35, 0
2, 15000, Note_on_c, 0, 35, 100
2, 15120, Note_on_c, 0, 35, 0
2, 15180, Note_on_c, 0, 35, 100
2, 15240, Note_on_c, 0, 35, 0
2, 15240, Note_on_c, 0, 35, 100
2, 15300, Note_on_c, 0, 35, 0
2, 15300, Note_on_c, 0, 36, 100
2, 15420, Note_on_c, 0, 36, 0
2, 15420, Note_on_c, 0, 35, 100
2, 15540, Note_on_c, 0, 35, 0
2, 15540, Note_on_c, 0, 33, 100
2, 15660, Note_on_c, 0, 33, 0
2, 15660, Note_on_c, 0, 31, 100
2, 15720, Note_on_c, 0, 31, 0
2, 15720, Note_on_c, 0, 33, 100
2, 15780, Note_on_c, 0, 33, 0
2, 15780, Note_on_c, 0, 34, 100
2, 15840, Note_on_c, 0, 34, 0
2, 15840, Note_on_c, 0, 35, 100
2, 15920, Note_on_c, 0, 35, 0
2, 15960, Note_on_c, 0, 35, 100
2, 16080, Note_on_c, 0, 35, 0
2, 16140, Note_on_c, 0, 36, 100
2, 16200, Note_on_c, 0, 36, 0
2, 16200, Note_on_c, 0, 37, 100
2, 16260, Note_on_c, 0, 37, 0
2, 16260, Note_on_c, 0, 38, 100
2, 16380, Note_on_c, 0, 38, 0
2, 16380, Note_on_c, 0, 38, 100
2, 16500, Note_on_c, 0, 38, 0
2, 16500, Note_on_c, 0, 38, 100
2, 16620, Note_on_c, 0, 38, 0
2, 16620, Note_on_c, 0, 38, 100
2, 16670, Note_on_c, 0, 38, 0
2, 16680, Note_on_c, 0, 38, 100
2, 16740, Note_on_c, 0, 38, 0
2, 16740, Note_on_c, 0, 40, 100
2, 16765, Note_on_c, 0, 40, 0
2, 16770, Note_on_c, 0, 42, 100
2, 16795, Note_on_c, 0, 42, 0
2, 16800, Note_on_c, 0, 43, 100
2, 16850, Note_on_c, 0, 43, 0
2, 16860, Note_on_c, 0, 42, 100
2, 16910, Note_on_c, 0, 42, 0
2, 16920, Note_on_c, 0, 40, 100
2, 16980, Note_on_c, 0, 40, 0
2, 16980, Note_on_c, 0, 38, 100
2, 17100, Note_on_c, 0, 38, 0
2, 17100, Note_on_c, 0, 35, 100
2, 17160, Note_on_c, 0, 35, 0
2, 17160, Note_on_c, 0, 31, 100
2, 17220, Note_on_c, 0, 31, 0
2, 17220, Note_on_c, 0, 43, 100
2, 17340, Note_on_c, 0, 43, 0
2, 17340, Note_on_c, 0, 42, 100
2, 17460, Note_on_c, 0, 42, 0
2, 17460, Note_on_c, 0, 38, 100
2, 17580, Note_on_c, 0, 38, 0
2, 17580, Note_on_c, 0, 35, 100
2, 17640, Note_on_c, 0, 35, 0
2, 17640, Note_on_c, 0, 31, 100
2, 17700, Note_on_c, 0, 31, 0
2, 17700, Note_on_c, 0, 38, 100
2, 17725, Note_on_c, 0, 38, 0
2, 17730, Note_on_c, 0, 40, 100
2, 17755, Note_on_c, 0, 40, 0
2, 17760, Note_on_c, 0, 42, 100
2, 17810, Note_on_c, 0, 42, 0
2, 17820, Note_on_c, 0, 40, 100
2, 17870, Note_on_c, 0, 40, 0
2, 17880, Note_on_c, 0, 38, 100
2, 17940, Note_on_c, 0, 38, 0
2, 17940, Note_on_c, 0, 38, 100
2, 18060, Note_on_c, 0, 38, 0
2, 18060, Note_on_c, 0, 33, 100
2, 18120, Note_on_c, 0, 33, 0
2, 18120, Note_on_c, 0, 30, 100
2, 18180, Note_on_c, 0, 30, 0
2, 18180, Note_on_c, 0, 42, 100
2, 18300, Note_on_c, 0, 42, 0
2, 18300, Note_on_c, 0, 40, 100
2, 18420, Note_on_c, 0, 40, 0
2, 18420, Note_on_c, 0, 38, 100
2, 18540, Note_on_c, 0, 38, 0
2, 18540, Note_on_c, 0, 33, 100
2, 18600, Note_on_c, 0, 33, 0
2, 18600, Note_on_c, 0, 30, 100
2, 18720, Note_on_c, 0, 30, 0
2, 18720, Note_on_c, 0, 35, 100
2, 18780, Note_on_c, 0, 35, 0
2, 18780, Note_on_c, 0, 33, 100
2, 18840, Note_on_c, 0, 33, 0
2, 18840, Note_on_c, 0, 31, 100
2, 18900, Note_on_c, 0, 31, 0
2, 18900, Note_on_c, 0, 31, 100
2, 19020, Note_on_c, 0, 31, 0
2, 19020, Note_on_c, 0, 28, 100
2, 19080, Note_on_c, 0, 28, 0
2, 19080, Note_on_c, 0, 31, 100
2, 19140, Note_on_c, 0, 31, 0
2, 19140, Note_on_c, 0, 35, 100
2, 19260, Note_on_c, 0, 35, 0
2, 19260, Note_on_c, 0, 33, 100
2, 19380, Note_on_c, 0, 33, 0
2, 19380, Note_on_c, 0, 31, 100
2, 19500, Note_on_c, 0, 31, 0
2, 19500, Note_on_c, 0, 28, 100
2, 19560, Note_on_c, 0, 28, 0
2, 19560, Note_on_c, 0, 31, 100
2, 19620, Note_on_c, 0, 31, 0
2, 19620, Note_on_c, 0, 33, 100
2, 19680, Note_on_c, 0, 33, 0
2, 19680, Note_on_c, 0, 35, 100
2, 19760, Note_on_c, 0, 35, 0
2, 19800, Note_on_c, 0, 35, 100
2, 19920, Note_on_c, 0, 35, 0
2, 19980, Note_on_c, 0, 35, 100
2, 20040, Note_on_c, 0, 35, 0
2, 20040, Note_on_c, 0, 35, 100
2, 20100, Note_on_c, 0, 35, 0
2, 20100, Note_on_c, 0, 36, 100
2, 20220, Note_on_c, 0, 36, 0
2, 20220, Note_on_c, 0, 35, 100
2, 20340, Note_on_c, 0, 35, 0
2, 20340, Note_on_c, 0, 33, 100
2, 20460, Note_on_c, 0, 33, 0
2, 20460, Note_on_c, 0, 31, 100
2, 20520, Note_on_c, 0, 31, 0
2, 20520, Note_on_c, 0, 33, 100
2, 20580, Note_on_c, 0, 33, 0
2, 20580, Note_on_c, 0, 34, 100
2, 20640, Note_on_c, 0, 34, 0
2, 20640, Note_on_c, 0, 35, 100
2, 20720, Note_on_c, 0, 35, 0
2, 20760, Note_on_c, 0, 35, 100
2, 20880, Note_on_c, 0, 35, 0
2, 20940, Note_on_c, 0, 36, 100
2, 21000, Note_on_c, 0, 36, 0
2, 21000, Note_on_c, 0, 37, 100
2, 21060, Note_on_c, 0, 37, 0
2, 21060, Note_on_c, 0, 38, 100
2, 21180, Note_on_c, 0, 38, 0
2, 21180, Note_on_c, 0, 38, 100
2, 21300, Note_on_c, 0, 38, 0
2, 21300, Note_on_c, 0, 38, 100
2, 21420, Note_on_c, 0, 38, 0
2, 21420, Note_on_c, 0, 38, 100
2, 21470, Note_on_c, 0, 38, 0
2, 21480, Note_on_c, 0, 38, 100
2, 21540, Note_on_c, 0, 38, 0
2, 21540, Note_on_c, 0, 40, 100
2, 21565, Note_on_c, 0, 40, 0
2, 21570, Note_on_c, 0, 42, 100
2, 21595, Note_on_c, 0, 42, 0
2, 21600, Note_on_c, 0, 43, 100
2, 21650, Note_on_c, 0, 43, 0
2, 21660, Note_on_c, 0, 42, 100
2, 21710, Note_on_c, 0, 42, 0
2, 21720, Note_on_c, 0, 40, 100
2, 21780, Note_on_c, 0, 40, 0
2, 21780, Note_on_c, 0, 38, 100
2, 21900, Note_on_c, 0, 38, 0
2, 21900, Note_on_c, 0, 35, 100
2, 21960, Note_on_c, 0, 35, 0
2, 21960, Note_on_c, 0, 31, 100
2, 22020, Note_on_c, 0, 31, 0
2, 22020, Note_on_c, 0, 43, 100
2, 22140, Note_on_c, 0, 43, 0
2, 22140, Note_on_c, 0, 42, 100
2, 22260, Note_on_c, 0, 42, 0
2, 22260, Note_on_c, 0, 38, 100
2, 22380, Note_on_c, 0, 38, 0
2, 22380, Note_on_c, 0, 35, 100
2, 22440, Note_on_c, 0, 35, 0
2, 22440, Note_on_c, 0, 31, 100
2, 22500, Note_on_c, 0, 31, 0
2, 22500, Note_on_c, 0, 38, 100
2, 22525, Note_on_c, 0, 38, 0
2, 22530, Note_on_c, 0, 40, 100
2, 22555, Note_on_c, 0, 40, 0
2, 22560, Note_on_c, 0, 42, 100
2, 22610, Note_on_c, 0, 42, 0
2, 22620, Note_on_c, 0, 40, 100
2, 22670, Note_on_c, 0, 40, 0
2, 22680, Note_on_c, 0, 38, 100
2, 22740, Note_on_c, 0, 38, 0
2, 22740, Note_on_c, 0, 38, 100
2, 22860, Note_on_c, 0, 38, 0
2, 22860, Note_on_c, 0, 33, 100
2, 22920, Note_on_c, 0, 33, 0
2, 22920, Note_on_c, 0, 30, 100
2, 22980, Note_on_c, 0, 30, 0
2, 22980, Note_on_c, 0, 42, 100
2, 23100, Note_on_c, 0, 42, 0
2, 23100, Note_on_c, 0, 40, 100
2, 23220, Note_on_c, 0, 40, 0
2, 23220, Note_on_c, 0, 38, 100
2, 23340, Note_on_c, 0, 38, 0
2, 23340, Note_on_c, 0, 33, 100
2, 23400, Note_on_c, 0, 33, 0
2, 23400, Note_on_c, 0, 30, 100
2, 23520, Note_on_c, 0, 30, 0
2, 23520, Note_on_c, 0, 35, 100
2, 23580, Note_on_c, 0, 35, 0
2, 23580, Note_on_c, 0, 33, 100
2, 23640, Note_on_c, 0, 33, 0
2, 23640, Note_on_c, 0, 31, 100
2, 23700, Note_on_c, 0, 31, 0
2, 23700, Note_on_c, 0, 31, 100
2, 23820, Note_on_c, 0, 31, 0
2, 23820, Note_on_c, 0, 28, 100
2, 23880, Note_on_c, 0, 28, 0
2, 23880, Note_on_c, 0, 31, 100
2, 23940, Note_on_c, 0, 31, 0
2, 23940, Note_on_c, 0, 35, 100
2, 24060, Note_on_c, 0, 35, 0
2, 24060, Note_on_c, 0, 33, 100
2, 24180, Note_on_c, 0, 33, 0
2, 24180, Note_on_c, 0, 31, 100
2, 24300, Note_on_c, 0, 31, 0
2, 24300, Note_on_c, 0, 28, 100
2, 24360, Note_on_c, 0, 28, 0
2, 24360, Note_on_c, 0, 31, 100
2, 24420, Note_on_c, 0, 31, 0
2, 24420, Note_on_c, 0, 33, 100
2, 24480, Note_on_c, 0, 33, 0
2, 24480, Note_on_c, 0, 31, 100
2, 24530, Note_on_c, 0, 31, 0
2, 24540, Note_on_c, 0, 43, 100
2, 24590, Note_on_c, 0, 43, 0
2, 24600, Note_on_c, 0, 41, 100
2, 24650, Note_on_c, 0, 41, 0
2, 24660, Note_on_c, 0, 38, 100
2, 24780, Note_on_c, 0, 38, 0
2, 24780, Note_on_c, 0, 36, 100
2, 24900, Note_on_c, 0, 36, 0
2, 24900, Note_on_c, 0, 32, 100
2, 24960, Note_on_c, 0, 32, 0
2, 24960, Note_on_c, 0, 31, 100
2, 25010, Note_on_c, 0, 31, 0
2, 25020, Note_on_c, 0, 43, 100
2, 25070, Note_on_c, 0, 43, 0
2, 25080, Note_on_c, 0, 41, 100
2, 25130, Note_on_c, 0, 41, 0
2, 25140, Note_on_c, 0, 38, 100
2, 25260, Note_on_c, 0, 38, 0
2, 25260, Note_on_c, 0, 36, 100
2, 25380, Note_on_c, 0, 36, 0
2, 25380, Note_on_c, 0, 32, 100
2, 25440, Note_on_c, 0, 32, 0
2, 25440, Note_on_c, 0, 31, 100
2, 25490, Note_on_c, 0, 31, 0
2, 25500, Note_on_c, 0, 43, 100
2, 25550, Note_on_c, 0, 43, 0
2, 25560, Note_on_c, 0, 41, 100
2, 25610, Note_on_c, 0, 41, 0
2, 25620, Note_on_c, 0, 38, 100
2, 25740, Note_on_c, 0, 38, 0
2, 25740, Note_on_c, 0, 36, 100
2, 25860, Note_on_c, 0, 36, 0
2, 25860, Note_on_c, 0, 32, 100
2, 25920, Note_on_c, 0, 32, 0
2, 25920, Note_on_c, 0, 31, 100
2, 25970, Note_on_c, 0, 31, 0
2, 25980, Note_on_c, 0, 43, 100
2, 26030, Note_on_c, 0, 43, 0
2, 26040, Note_on_c, 0, 41, 100
2, 26090, Note_on_c, 0, 41, 0
2, 26100, Note_on_c, 0, 38, 100
2, 26220, Note_on_c, 0, 38, 0
2, 26220, Note_on_c, 0, 36, 100
2, 26340, Note_on_c, 0, 36, 0
2, 26340, Note_on_c, 0, 32, 100
2, 26400, Note_on_c, 0, 32, 0
2, 26400, Note_on_c, 0, 43, 100
2, 26450, Note_on_c, 0, 43, 0
2, 26460, Note_on_c, 0, 42, 100
2, 26510, Note_on_c, 0, 42, 0
2, 26520, Note_on_c, 0, 40, 100
2, 26580, Note_on_c, 0, 40, 0
2, 26580, Note_on_c, 0, 38, 100
2, 26700, Note_on_c, 0, 38, 0
2, 26700, Note_on_c, 0, 35, 100
2, 26760, Note_on_c, 0, 35, 0
2, 26760, Note_on_c, 0, 31, 100
2, 26820, Note_on_c, 0, 31, 0
2, 26820, Note_on_c, 0, 43, 100
2, 26940, Note_on_c, 0, 43, 0
2, 26940, Note_on_c, 0, 42, 100
2, 27060, Note_on_c, 0, 42, 0
2, 27060, Note_on_c, 0, 38, 100
2, 27180, Note_on_c, 0, 38, 0
2, 27180, Note_on_c, 0, 35, 100
2, 27240, Note_on_c, 0, 35, 0
2, 27240, Note_on_c, 0, 31, 100
2, 27300, Note_on_c, 0, 31, 0
2, 27300, Note_on_c, 0, 38, 100
2, 27325, Note_on_c, 0, 38, 0
2, 27330, Note_on_c, 0, 40, 100
2, 27355, Note_on_c, 0, 40, 0
2, 27360, Note_on_c, 0, 42, 100
2, 27410, Note_on_c, 0, 42, 0
2, 27420, Note_on_c, 0, 40, 100
2, 27470, Note_on_c, 0, 40, 0
2, 27480, Note_on_c, 0, 38, 100
2, 27540, Note_on_c, 0, 38, 0
2, 27540, Note_on_c, 0, 38, 100
2, 27660, Note_on_c, 0, 38, 0
2, 27660, Note_on_c, 0, 33, 100
2, 27720, Note_on_c, 0, 33, 0
2, 27720, Note_on_c, 0, 30, 100
2, 27780, Note_on_c, 0, 30, 0
2, 27780, Note_on_c, 0, 42, 100
2, 27900, Note_on_c, 0, 42, 0
2, 27900, Note_on_c, 0, 40, 100
2, 28020, Note_on_c, 0, 40, 0
2, 28020, Note_on_c, 0, 38, 100
2, 28140, Note_on_c, 0, 38, 0
2, 28140, Note_on_c, 0, 33, 100
2, 28200, Note_on_c, 0, 33, 0
2, 28200, Note_on_c, 0, 30, 100
2, 28320, Note_on_c, 0, 30, 0
2, 28320, Note_on_c, 0, 35, 100
2, 28380, Note_on_c, 0, 35, 0
2, 28380, Note_on_c, 0, 33, 100
2, 28440, Note_on_c, 0, 33, 0
2, 28440, Note_on_c, 0, 31, 100
2, 28500, Note_on_c, 0, 31, 0
2, 28500, Note_on_c, 0, 31, 100
2, 28620, Note_on_c, 0, 31, 0
2, 28620, Note_on_c, 0, 28, 100
2, 28680, Note_on_c, 0, 28, 0
2, 28680, Note_on_c, 0, 31, 100
2, 28740, Note_on_c, 0, 31, 0
2, 28740, Note_on_c, 0, 35, 100
2, 28860, Note_on_c, 0, 35, 0
2, 28860, Note_on_c, 0, 33, 100
2, 28980, Note_on_c, 0, 33, 0
2, 28980, Note_on_c, 0, 31, 100
2, 29100, Note_on_c, 0, 31, 0
2, 29100, Note_on_c, 0, 28, 100
2, 29160, Note_on_c, 0, 28, 0
2, 29160, Note_on_c, 0, 31, 100
2, 29220, Note_on_c, 0, 31, 0
2, 29220, Note_on_c, 0, 33, 100
2, 29280, Note_on_c, 0, 33, 0
2, 29280, Note_on_c, 0, 35, 100
2, 29360, Note_on_c, 0, 35, 0
2, 29400, Note_on_c, 0, 35, 100
2, 29520, Note_on_c, 0, 35, 0
2, 29580, Note_on_c, 0, 35, 100
2, 29640, Note_on_c, 0, 35, 0
2, 29640, Note_on_c, 0, 35, 100
2, 29700, Note_on_c, 0, 35, 0
2, 29700, Note_on_c, 0, 36, 100
2, 29820, Note_on_c, 0, 36, 0
2, 29820, Note_on_c, 0, 35, 100
2, 29940, Note_on_c, 0, 35, 0
2, 29940, Note_on_c, 0, 33, 100
2, 30060, Note_on_c, 0, 33, 0
2, 30060, Note_on_c, 0, 31, 100
2, 30120, Note_on_c, 0, 31, 0
2, 30120, Note_on_c, 0, 33, 100
2, 30180, Note_on_c, 0, 33, 0
2, 30180, Note_on_c, 0, 34, 100
2, 30240, Note_on_c, 0, 34, 0
2, 30240, Note_on_c, 0, 35, 100
2, 30320, Note_on_c, 0, 35, 0
2, 30360, Note_on_c, 0, 35, 100
2, 30480, Note_on_c, 0, 35, 0
2, 30540, Note_on_c, 0, 36, 100
2, 30600, Note_on_c, 0, 36, 0
2, 30600, Note_on_c, 0, 37, 100
2, 30660, Note_on_c, 0, 37, 0
2, 30660, Note_on_c, 0, 38, 100
2, 30780, Note_on_c, 0, 38, 0
2, 30780, Note_on_c, 0, 38, 100
2, 30900, Note_on_c, 0, 38, 0
2, 30900, Note_on_c, 0, 38, 100
2, 31020, Note_on_c, 0, 38, 0
2, 31020, Note_on_c, 0, 38, 100
2, 31070, Note_on_c, 0, 38, 0
2, 31080, Note_on_c, 0, 38, 100
2, 31140, Note_on_c, 0, 38, 0
2, 31140, Note_on_c, 0, 40, 100
2, 31165, Note_on_c, 0, 40, 0
2, 31170, Note_on_c, 0, 42, 100
2, 31195, Note_on_c, 0, 42, 0
2, 31200, Note_on_c, 0, 43, 100
2, 31250, Note_on_c, 0, 43, 0
2, 31260, Note_on_c, 0, 42, 100
2, 31310, Note_on_c, 0, 42, 0
2, 31320, Note_on_c, 0, 40, 100
2, 31380, Note_on_c, 0, 40, 0
2, 31380, Note_on_c, 0, 38, 100
2, 31500, Note_on_c, 0, 38, 0
2, 31500, Note_on_c, 0, 35, 100
2, 31560, Note_on_c, 0, 35, 0
2, 31560, Note_on_c, 0, 31, 100
2, 31620, Note_on_c, 0, 31, 0
2, 31620, Note_on_c, 0, 43, 100
2, 31740, Note_on_c, 0, 43, 0
2, 31740, Note_on_c, 0, 42, 100
2, 31860, Note_on_c, 0, 42, 0
2, 31860, Note_on_c, 0, 38, 100
2, 31980, Note_on_c, 0, 38, 0
2, 31980, Note_on_c, 0, 35, 100
2, 32040, Note_on_c, 0, 35, 0
2, 32040, Note_on_c, 0, 31, 100
2, 32100, Note_on_c, 0, 31, 0
2, 32100, Note_on_c, 0, 38, 100
2, 32125, Note_on_c, 0, 38, 0
2, 32130, Note_on_c, 0, 40, 100
2, 32155, Note_on_c, 0, 40, 0
2, 32160, Note_on_c, 0, 42, 100
2, 32210, Note_on_c, 0, 42, 0
2, 32220, Note_on_c, 0, 40, 100
2, 32270, Note_on_c, 0, 40, 0
2, 32280, Note_on_c, 0, 38, 100
2, 32340, Note_on_c, 0, 38, 0
2, 32340, Note_on_c, 0, 38, 100
2, 32460, Note_on_c, 0, 38, 0
2, 32460, Note_on_c, 0, 33, 100
2, 32520, Note_on_c, 0, 33, 0
2, 32520, Note_on_c, 0, 30, 100
2, 32580, Note_on_c, 0, 30, 0
2, 32580, Note_on_c, 0, 42, 100
2, 32700, Note_on_c, 0, 42, 0
2, 32700, Note_on_c, 0, 40, 100
2, 32820, Note_on_c, 0, 40, 0
2, 32820, Note_on_c, 0, 38, 100
2, 32940, Note_on_c, 0, 38, 0
2, 32940, Note_on_c, 0, 33, 100
2, 33000, Note_on_c, 0, 33, 0
2, 33000, Note_on_c, 0, 30, 100
2, 33120, Note_on_c, 0, 30, 0
2, 33120, Note_on_c, 0, 35, 100
2, 33180, Note_on_c, 0, 35, 0
2, 33180, Note_on_c, 0, 33, 100
2, 33240, Note_on_c, 0, 33, 0
2, 33240, Note_on_c, 0, 31, 100
2, 33300, Note_on_c, 0, 31, 0
2, 33300, Note_on_c, 0, 31, 100
2, 33420, Note_on_c, 0, 31, 0
2, 33420, Note_on_c, 0, 28, 100
2, 33480, Note_on_c, 0, 28, 0
2, 33480, Note_on_c, 0, 31, 100
2, 33540, Note_on_c, 0, 31, 0
2, 33540, Note_on_c, 0, 35, 100
2, 33660, Note_on_c, 0, 35, 0
2, 33660, Note_on_c, 0, 33, 100
2, 33780, Note_on_c, 0, 33, 0
2, 33780, Note_on_c, 0, 31, 100
2, 33900, Note_on_c, 0, 31, 0
2, 33900, Note_on_c, 0, 28, 100
2, 33960, Note_on_c, 0, 28, 0
2, 33960, Note_on_c, 0, 31, 100
2, 34020, Note_on_c, 0, 31, 0
2, 34020, Note_on_c, 0, 33, 100
2, 34080, Note_on_c, 0, 33, 0
2, 34080, Note_on_c, 0, 35, 100
2, 34160, Note_on_c, 0, 35, 0
2, 34200, Note_on_c, 0, 35, 100
2, 34320, Note_on_c, 0, 35, 0
2, 34380, Note_on_c, 0, 35, 100
2, 34440, Note_on_c, 0, 35, 0
2, 34440, Note_on_c, 0, 35, 100
2, 34500, Note_on_c, 0, 35, 0
2, 34500, Note_on_c, 0, 36, 100
2, 34620, Note_on_c, 0, 36, 0
2, 34620, Note_on_c, 0, 35, 100
2, 34740, Note_on_c, 0, 35, 0
2, 34740, Note_on_c, 0, 33, 100
2, 34860, Note_on_c, 0, 33, 0
2, 34860, Note_on_c, 0, 31, 100
2, 34920, Note_on_c, 0, 31, 0
2, 34920, Note_on_c, 0, 33, 100
2, 34980, Note_on_c, 0, 33, 0
2, 34980, Note_on_c, 0, 34, 100
2, 35040, Note_on_c, 0, 34, 0
2, 35040, Note_on_c, 0, 35, 100
2, 35120, Note_on_c, 0, 35, 0
2, 35160, Note_on_c, 0, 35, 100
2, 35280, Note_on_c, 0, 35, 0
2, 35340, Note_on_c, 0, 36, 100
2, 35400, Note_on_c, 0, 36, 0
2, 35400, Note_on_c, 0, 37, 100
2, 35460, Note_on_c, 0, 37, 0
2, 35460, Note_on_c, 0, 38, 100
2, 35580, Note_on_c, 0, 38, 0
2, 35580, Note_on_c, 0, 38, 97
2, 35700, Note_on_c, 0, 38, 0
2, 35700, Note_on_c, 0, 38, 91
2, 35820, Note_on_c, 0, 38, 0
2, 35820, Note_on_c, 0, 38, 85
2, 35870, Note_on_c, 0, 38, 0
2, 35880, Note_on_c, 0, 38, 82
2, 35940, Note_on_c, 0, 38, 0
2, 35940, Note_on_c, 0, 40, 79
2, 35965, Note_on_c, 0, 40, 0
2, 35970, Note_on_c, 0, 42, 77
2, 35995, Note_on_c, 0, 42, 0
2, 36000, Note_on_c, 0, 43, 75
2, 36050, Note_on_c, 0, 43, 0
2, 36060, Note_on_c, 0, 42, 72
2, 36110, Note_on_c, 0, 42, 0
2, 36120, Note_on_c, 0, 40, 69
2, 36180, Note_on_c, 0, 40, 0
2, 36180, Note_on_c, 0, 38, 66
2, 36300, Note_on_c, 0, 38, 0
2, 36300, Note_on_c, 0, 35, 60
2, 36360, Note_on_c, 0, 35, 0
2, 36360, Note_on_c, 0, 31, 57
2, 36420, Note_on_c, 0, 31, 0
2, 36420, Note_on_c, 0, 43, 54
2, 36540, Note_on_c, 0, 43, 0
2, 36540, Note_on_c, 0, 42, 47
2, 36660, Note_on_c, 0, 42, 0
2, 36660, Note_on_c, 0, 38, 41
2, 36780, Note_on_c, 0, 38, 0
2, 36780, Note_on_c, 0, 35, 35
2, 36840, Note_on_c, 0, 35, 0
2, 36840, Note_on_c, 0, 31, 32
2, 36900, Note_on_c, 0, 31, 0
2, 36900, Note_on_c, 0, 38, 29
2, 36925, Note_on_c, 0, 38, 0
2, 36930, Note_on_c, 0, 40, 27
2, 36955, Note_on_c, 0, 40, 0
2, 36960, Note_on_c, 0, 42, 25
2, 37010, Note_on_c, 0, 42, 0
2, 37020, Note_on_c, 0, 40, 22
2, 37070, Note_on_c, 0, 40, 0
2, 37080, Note_on_c, 0, 38, 19
2, 37140, Note_on_c, 0, 38, 0
2, 37140, Note_on_c, 0, 38, 16
2, 37260, Note_on_c, 0, 38, 0
2, 37260, Note_on_c, 0, 33, 10
2, 37320, Note_on_c, 0, 33, 0
2, 37320, Note_on_c, 0, 30, 7
2, 37380, Note_on_c, 0, 30, 0
2, 37380, Note_on_c, 0, 42, 4
2, 37500, Note_on_c, 0, 42, 0
2, 37500, End_track
3, 0, Start_track
3, 0, MIDI_port, 0
3, 0, Program_c, 1, 84
3, 0, Control_c, 1, 7, 100
3, 0, Control_c, 1, 10, 127
3, 1440, Note_on_c, 1, 43, 127
3, 1490, Note_on_c, 1, 43, 0
3, 1500, Note_on_c, 1, 55, 127
3, 1550, Note_on_c, 1, 55, 0
3, 1560, Note_on_c, 1, 53, 127
3, 1610, Note_on_c, 1, 53, 0
3, 1620, Note_on_c, 1, 50, 127
3, 1740, Note_on_c, 1, 50, 0
3, 1740, Note_on_c, 1, 48, 127
3, 1860, Note_on_c, 1, 48, 0
3, 1860, Note_on_c, 1, 44, 127
3, 1920, Note_on_c, 1, 44, 0
3, 1920, Note_on_c, 1, 43, 127
3, 1970, Note_on_c, 1, 43, 0
3, 1980, Note_on_c, 1, 55, 127
3, 2030, Note_on_c, 1, 55, 0
3, 2040, Note_on_c, 1, 53, 127
3, 2090, Note_on_c, 1, 53, 0
3, 2100, Note_on_c, 1, 50, 127
3, 2220, Note_on_c, 1, 50, 0
3, 2220, Note_on_c, 1, 48, 127
3, 2340, Note_on_c, 1, 48, 0
3, 2340, Note_on_c, 1, 44, 127
3, 2400, Note_on_c, 1, 44, 0
3, 2400, Note_on_c, 1, 59, 127
3, 2450, Note_on_c, 1, 59, 0
3, 2460, Note_on_c, 1, 57, 127
3, 2510, Note_on_c, 1, 57, 0
3, 2520, Note_on_c, 1, 55, 127
3, 2580, Note_on_c, 1, 55, 0
3, 2580, Note_on_c, 1, 55, 127
3, 2700, Note_on_c, 1, 55, 0
3, 2880, Note_on_c, 1, 59, 127
3, 2930, Note_on_c, 1, 59, 0
3, 2940, Note_on_c, 1, 57, 127
3, 2990, Note_on_c, 1, 57, 0
3, 3000, Note_on_c, 1, 55, 127
3, 3060, Note_on_c, 1, 55, 0
3, 3060, Note_on_c, 1, 55, 127
3, 3180, Note_on_c, 1, 55, 0
3, 7200, Note_on_c, 1, 59, 127
3, 7250, Note_on_c, 1, 59, 0
3, 7260, Note_on_c, 1, 57, 127
3, 7310, Note_on_c, 1, 57, 0
3, 7320, Note_on_c, 1, 55, 127
3, 7370, Note_on_c, 1, 55, 0
3, 7380, Note_on_c, 1, 55, 127
3, 7500, Note_on_c, 1, 55, 0
3, 7680, Note_on_c, 1, 59, 127
3, 7730, Note_on_c, 1, 59, 0
3, 7740, Note_on_c, 1, 57, 127
3, 7790, Note_on_c, 1, 57, 0
3, 7800, Note_on_c, 1, 55, 127
3, 7850, Note_on_c, 1, 55, 0
3, 7860, Note_on_c, 1, 55, 127
3, 7980, Note_on_c, 1, 55, 0
3, 12000, Note_on_c, 1, 59, 127
3, 12050, Note_on_c, 1, 59, 0
3, 12060, Note_on_c, 1, 57, 127
3, 12110, Note_on_c, 1, 57, 0
3, 12120, Note_on_c, 1, 55, 127
3, 12170, Note_on_c, 1, 55, 0
3, 12180, Note_on_c, 1, 55, 127
3, 12300, Note_on_c, 1, 55, 0
3, 12480, Note_on_c, 1, 59, 127
3, 12530, Note_on_c, 1, 59, 0
3, 12540, Note_on_c, 1, 57, 127
3, 12590, Note_on_c, 1, 57, 0
3, 12600, Note_on_c, 1, 55, 127
3, 12660, Note_on_c, 1, 55, 0
3, 12660, Note_on_c, 1, 55, 127
3, 12780, Note_on_c, 1, 55, 0
3, 16800, Note_on_c, 1, 59, 127
3, 16850, Note_on_c, 1, 59, 0
3, 16860, Note_on_c, 1, 57, 127
3, 16910, Note_on_c, 1, 57, 0
3, 16920, Note_on_c, 1, 55, 127
3, 16980, Note_on_c, 1, 55, 0
3, 16980, Note_on_c, 1, 55, 127
3, 17100, Note_on_c, 1, 55, 0
3, 17280, Note_on_c, 1, 59, 127
3, 17330, Note_on_c, 1, 59, 0
3, 17340, Note_on_c, 1, 57, 127
3, 17390, Note_on_c, 1, 57, 0
3, 17400, Note_on_c, 1, 55, 127
3, 17460, Note_on_c, 1, 55, 0
3, 17460, Note_on_c, 1, 55, 127
3, 17580, Note_on_c, 1, 55, 0
3, 21600, Note_on_c, 1, 57, 127
3, 21630, Pitch_bend_c, 1, 16383
3, 21650, Note_on_c, 1, 57, 0
3, 21660, Pitch_bend_c, 1, 8192
3, 21660, Note_on_c, 1, 57, 127
3, 21710, Note_on_c, 1, 57, 0
3, 21720, Note_on_c, 1, 55, 127
3, 21780, Note_on_c, 1, 55, 0
3, 21780, Note_on_c, 1, 55, 127
3, 21900, Note_on_c, 1, 55, 0
3, 22020, Note_on_c, 1, 59, 127
3, 22140, Note_on_c, 1, 59, 0
3, 22140, Note_on_c, 1, 57, 127
3, 22190, Note_on_c, 1, 57, 0
3, 22200, Note_on_c, 1, 55, 127
3, 22260, Note_on_c, 1, 55, 0
3, 22260, Note_on_c, 1, 55, 127
3, 22380, Note_on_c, 1, 55, 0
3, 22440, Note_on_c, 1, 55, 127
3, 22490, Note_on_c, 1, 55, 0
3, 22500, Note_on_c, 1, 55, 127
3, 22550, Note_on_c, 1, 55, 0
3, 22560, Note_on_c, 1, 57, 127
3, 22610, Note_on_c, 1, 57, 0
3, 22620, Note_on_c, 1, 55, 127
3, 22670, Note_on_c, 1, 55, 0
3, 22680, Note_on_c, 1, 54, 127
3, 22740, Note_on_c, 1, 54, 0
3, 22740, Note_on_c, 1, 54, 127
3, 22860, Note_on_c, 1, 54, 0
3, 23040, Note_on_c, 1, 57, 127
3, 23100, Note_on_c, 1, 57, 0
3, 23100, Note_on_c, 1, 55, 127
3, 23150, Note_on_c, 1, 55, 0
3, 23160, Note_on_c, 1, 54, 127
3, 23220, Note_on_c, 1, 54, 0
3, 23220, Note_on_c, 1, 54, 127
3, 23340, Note_on_c, 1, 54, 0
3, 23400, Note_on_c, 1, 50, 127
3, 23460, Note_on_c, 1, 50, 0
3, 23460, Note_on_c, 1, 50, 127
3, 23520, Note_on_c, 1, 50, 0
3, 23520, Note_on_c, 1, 52, 127
3, 23580, Note_on_c, 1, 52, 0
3, 23580, Note_on_c, 1, 55, 127
3, 23640, Note_on_c, 1, 55, 0
3, 23640, Note_on_c, 1, 55, 127
3, 23700, Note_on_c, 1, 55, 0
3, 23700, Note_on_c, 1, 55, 127
3, 23820, Note_on_c, 1, 55, 0
3, 23880, Note_on_c, 1, 55, 127
3, 23940, Note_on_c, 1, 55, 0
3, 23940, Note_on_c, 1, 55, 127
3, 24000, Note_on_c, 1, 55, 0
3, 24000, Note_on_c, 1, 55, 127
3, 24060, Note_on_c, 1, 55, 0
3, 24060, Note_on_c, 1, 57, 127
3, 24120, Note_on_c, 1, 57, 0
3, 24120, Note_on_c, 1, 59, 127
3, 24180, Note_on_c, 1, 59, 0
3, 24180, Note_on_c, 1, 50, 127
3, 24300, Note_on_c, 1, 50, 0
3, 24360, Note_on_c, 1, 50, 127
3, 24420, Note_on_c, 1, 50, 0
3, 24420, Note_on_c, 1, 50, 127
3, 24480, Note_on_c, 1, 50, 0
3, 24480, Note_on_c, 1, 50, 127
3, 24600, Note_on_c, 1, 50, 0
3, 25440, Note_on_c, 1, 43, 127
3, 25490, Note_on_c, 1, 43, 0
3, 25500, Note_on_c, 1, 55, 127
3, 25550, Note_on_c, 1, 55, 0
3, 25560, Note_on_c, 1, 53, 127
3, 25610, Note_on_c, 1, 53, 0
3, 25620, Note_on_c, 1, 50, 127
3, 25740, Note_on_c, 1, 50, 0
3, 25740, Note_on_c, 1, 48, 127
3, 25860, Note_on_c, 1, 48, 0
3, 25860, Note_on_c, 1, 44, 127
3, 25920, Note_on_c, 1, 44, 0
3, 25920, Note_on_c, 1, 43, 127
3, 25970, Note_on_c, 1, 43, 0
3, 25980, Note_on_c, 1, 55, 127
3, 26030, Note_on_c, 1, 55, 0
3, 26040, Note_on_c, 1, 53, 127
3, 26090, Note_on_c, 1, 53, 0
3, 26100, Note_on_c, 1, 50, 127
3, 26220, Note_on_c, 1, 50, 0
3, 26220, Note_on_c, 1, 48, 127
3, 26340, Note_on_c, 1, 48, 0
3, 26340, Note_on_c, 1, 44, 127
3, 26400, Note_on_c, 1, 44, 0
3, 26400, Note_on_c, 1, 57, 127
3, 26430, Pitch_bend_c, 1, 16383
3, 26450, Note_on_c, 1, 57, 0
3, 26460, Pitch_bend_c, 1, 8192
3, 26460, Note_on_c, 1, 57, 127
3, 26510, Note_on_c, 1, 57, 0
3, 26520, Note_on_c, 1, 55, 127
3, 26580, Note_on_c, 1, 55, 0
3, 26580, Note_on_c, 1, 55, 127
3, 26700, Note_on_c, 1, 55, 0
3, 26820, Note_on_c, 1, 59, 127
3, 26940, Note_on_c, 1, 59, 0
3, 26940, Note_on_c, 1, 57, 127
3, 26990, Note_on_c, 1, 57, 0
3, 27000, Note_on_c, 1, 55, 127
3, 27060, Note_on_c, 1, 55, 0
3, 27060, Note_on_c, 1, 55, 127
3, 27180, Note_on_c, 1, 55, 0
3, 27240, Note_on_c, 1, 55, 127
3, 27290, Note_on_c, 1, 55, 0
3, 27300, Note_on_c, 1, 55, 127
3, 27350, Note_on_c, 1, 55, 0
3, 27360, Note_on_c, 1, 57, 127
3, 27410, Note_on_c, 1, 57, 0
3, 27420, Note_on_c, 1, 55, 127
3, 27470, Note_on_c, 1, 55, 0
3, 27480, Note_on_c, 1, 54, 127
3, 27540, Note_on_c, 1, 54, 0
3, 27540, Note_on_c, 1, 54, 127
3, 27660, Note_on_c, 1, 54, 0
3, 27840, Note_on_c, 1, 57, 127
3, 27900, Note_on_c, 1, 57, 0
3, 27900, Note_on_c, 1, 55, 127
3, 27950, Note_on_c, 1, 55, 0
3, 27960, Note_on_c, 1, 54, 127
3, 28020, Note_on_c, 1, 54, 0
3, 28020, Note_on_c, 1, 54, 127
3, 28140, Note_on_c, 1, 54, 0
3, 28200, Note_on_c, 1, 50, 127
3, 28260, Note_on_c, 1, 50, 0
3, 28260, Note_on_c, 1, 50, 127
3, 28320, Note_on_c, 1, 50, 0
3, 28320, Note_on_c, 1, 52, 127
3, 28380, Note_on_c, 1, 52, 0
3, 28380, Note_on_c, 1, 55, 127
3, 28440, Note_on_c, 1, 55, 0
3, 28440, Note_on_c, 1, 55, 127
3, 28500, Note_on_c, 1, 55, 0
3, 28500, Note_on_c, 1, 55, 127
3, 28620, Note_on_c, 1, 55, 0
3, 28680, Note_on_c, 1, 55, 127
3, 28740, Note_on_c, 1, 55, 0
3, 28740, Note_on_c, 1, 55, 127
3, 28800, Note_on_c, 1, 55, 0
3, 28800, Note_on_c, 1, 55, 127
3, 28860, Note_on_c, 1, 55, 0
3, 28860, Note_on_c, 1, 57, 127
3, 28920, Note_on_c, 1, 57, 0
3, 28920, Note_on_c, 1, 59, 127
3, 28980, Note_on_c, 1, 59, 0
3, 28980, Note_on_c, 1, 50, 127
3, 29100, Note_on_c, 1, 50, 0
3, 29160, Note_on_c, 1, 50, 127
3, 29220, Note_on_c, 1, 50, 0
3, 29220, Note_on_c, 1, 50, 127
3, 29280, Note_on_c, 1, 50, 0
3, 29280, Note_on_c, 1, 50, 127
3, 29340, Note_on_c, 1, 50, 0
3, 29340, Note_on_c, 1, 50, 127
3, 29400, Note_on_c, 1, 50, 0
3, 29400, Note_on_c, 1, 50, 127
3, 29460, Note_on_c, 1, 50, 0
3, 29460, Note_on_c, 1, 50, 127
3, 29580, Note_on_c, 1, 50, 0
3, 29640, Note_on_c, 1, 50, 127
3, 29700, Note_on_c, 1, 50, 0
3, 29700, Note_on_c, 1, 50, 127
3, 29760, Note_on_c, 1, 50, 0
3, 29760, Note_on_c, 1, 52, 127
3, 29820, Note_on_c, 1, 52, 0
3, 29820, Note_on_c, 1, 55, 127
3, 29940, Note_on_c, 1, 55, 0
3, 29940, Note_on_c, 1, 55, 127
3, 30060, Note_on_c, 1, 55, 0
3, 30060, Note_on_c, 1, 57, 127
3, 30120, Note_on_c, 1, 57, 0
3, 30120, Note_on_c, 1, 55, 127
3, 30180, Note_on_c, 1, 55, 0
3, 30180, Note_on_c, 1, 52, 127
3, 30240, Note_on_c, 1, 52, 0
3, 30240, Note_on_c, 1, 50, 127
3, 30300, Note_on_c, 1, 50, 0
3, 30300, Note_on_c, 1, 59, 127
3, 30360, Note_on_c, 1, 59, 0
3, 30360, Note_on_c, 1, 59, 127
3, 30420, Note_on_c, 1, 59, 0
3, 30600, Note_on_c, 1, 50, 127
3, 30660, Note_on_c, 1, 50, 0
3, 30660, Note_on_c, 1, 50, 127
3, 30720, Note_on_c, 1, 50, 0
3, 30720, Note_on_c, 1, 52, 127
3, 30780, Note_on_c, 1, 52, 0
3, 30780, Note_on_c, 1, 55, 127
3, 30900, Note_on_c, 1, 55, 0
3, 30900, Note_on_c, 1, 55, 127
3, 31020, Note_on_c, 1, 55, 0
3, 31020, Note_on_c, 1, 57, 127
3, 31080, Note_on_c, 1, 57, 0
3, 31080, Note_on_c, 1, 55, 127
3, 31140, Note_on_c, 1, 55, 0
3, 31140, Note_on_c, 1, 52, 127
3, 31200, Note_on_c, 1, 52, 0
3, 31200, Note_on_c, 1, 57, 127
3, 31230, Pitch_bend_c, 1, 16383
3, 31250, Note_on_c, 1, 57, 0
3, 31260, Pitch_bend_c, 1, 8192
3, 31260, Note_on_c, 1, 57, 127
3, 31310, Note_on_c, 1, 57, 0
3, 31320, Note_on_c, 1, 55, 127
3, 31380, Note_on_c, 1, 55, 0
3, 31380, Note_on_c, 1, 55, 127
3, 31500, Note_on_c, 1, 55, 0
3, 31620, Note_on_c, 1, 59, 127
3, 31740, Note_on_c, 1, 59, 0
3, 31740, Note_on_c, 1, 57, 127
3, 31790, Note_on_c, 1, 57, 0
3, 31800, Note_on_c, 1, 55, 127
3, 31860, Note_on_c, 1, 55, 0
3, 31860, Note_on_c, 1, 55, 127
3, 31980, Note_on_c, 1, 55, 0
3, 32040, Note_on_c, 1, 55, 127
3, 32090, Note_on_c, 1, 55, 0
3, 32100, Note_on_c, 1, 55, 127
3, 32150, Note_on_c, 1, 55, 0
3, 32160, Note_on_c, 1, 57, 127
3, 32210, Note_on_c, 1, 57, 0
3, 32220, Note_on_c, 1, 55, 127
3, 32270, Note_on_c, 1, 55, 0
3, 32280, Note_on_c, 1, 54, 127
3, 32340, Note_on_c, 1, 54, 0
3, 32340, Note_on_c, 1, 54, 127
3, 32460, Note_on_c, 1, 54, 0
3, 32640, Note_on_c, 1, 57, 127
3, 32700, Note_on_c, 1, 57, 0
3, 32700, Note_on_c, 1, 55, 127
3, 32750, Note_on_c, 1, 55, 0
3, 32760, Note_on_c, 1, 54, 127
3, 32820, Note_on_c, 1, 54, 0
3, 32820, Note_on_c, 1, 54, 127
3, 32940, Note_on_c, 1, 54, 0
3, 33000, Note_on_c, 1, 50, 127
3, 33060, Note_on_c, 1, 50, 0
3, 33060, Note_on_c, 1, 50, 127
3, 33120, Note_on_c, 1, 50, 0
3, 33120, Note_on_c, 1, 52, 127
3, 33180, Note_on_c, 1, 52, 0
3, 33180, Note_on_c, 1, 55, 127
3, 33240, Note_on_c, 1, 55, 0
3, 33240, Note_on_c, 1, 55, 127
3, 33300, Note_on_c, 1, 55, 0
3, 33300, Note_on_c, 1, 55, 127
3, 33420, Note_on_c, 1, 55, 0
3, 33480, Note_on_c, 1, 55, 127
3, 33540, Note_on_c, 1, 55, 0
3, 33540, Note_on_c, 1, 55, 127
3, 33600, Note_on_c, 1, 55, 0
3, 33600, Note_on_c, 1, 55, 127
3, 33660, Note_on_c, 1, 55, 0
3, 33660, Note_on_c, 1, 57, 127
3, 33720, Note_on_c, 1, 57, 0
3, 33720, Note_on_c, 1, 59, 127
3, 33780, Note_on_c, 1, 59, 0
3, 33780, Note_on_c, 1, 50, 127
3, 33900, Note_on_c, 1, 50, 0
3, 33960, Note_on_c, 1, 50, 127
3, 34020, Note_on_c, 1, 50, 0
3, 34020, Note_on_c, 1, 50, 127
3, 34080, Note_on_c, 1, 50, 0
3, 34080, Note_on_c, 1, 50, 127
3, 34140, Note_on_c, 1, 50, 0
3, 34140, Note_on_c, 1, 50, 127
3, 34200, Note_on_c, 1, 50, 0
3, 34200, Note_on_c, 1, 50, 127
3, 34260, Note_on_c, 1, 50, 0
3, 34260, Note_on_c, 1, 50, 127
3, 34380, Note_on_c, 1, 50, 0
3, 34440, Note_on_c, 1, 50, 127
3, 34500, Note_on_c, 1, 50, 0
3, 34500, Note_on_c, 1, 50, 127
3, 34560, Note_on_c, 1, 50, 0
3, 34560, Note_on_c, 1, 52, 127
3, 34620, Note_on_c, 1, 52, 0
3, 34620, Note_on_c, 1, 55, 127
3, 34740, Note_on_c, 1, 55, 0
3, 34740, Note_on_c, 1, 55, 127
3, 34860, Note_on_c, 1, 55, 0
3, 34860, Note_on_c, 1, 57, 127
3, 34920, Note_on_c, 1, 57, 0
3, 34920, Note_on_c, 1, 55, 127
3, 34980, Note_on_c, 1, 55, 0
3, 34980, Note_on_c, 1, 52, 127
3, 35040, Note_on_c, 1, 52, 0
3, 35040, Note_on_c, 1, 50, 127
3, 35100, Note_on_c, 1, 50, 0
3, 35100, Note_on_c, 1, 59, 127
3, 35160, Note_on_c, 1, 59, 0
3, 35160, Note_on_c, 1, 59, 127
3, 35220, Note_on_c, 1, 59, 0
3, 35400, Note_on_c, 1, 50, 127
3, 35460, Note_on_c, 1, 50, 0
3, 35460, Note_on_c, 1, 50, 127
3, 35520, Note_on_c, 1, 50, 0
3, 35520, Note_on_c, 1, 52, 127
3, 35580, Note_on_c, 1, 52, 0
3, 35580, Note_on_c, 1, 55, 123
3, 35700, Note_on_c, 1, 55, 0
3, 35700, Note_on_c, 1, 55, 115
3, 35820, Note_on_c, 1, 55, 0
3, 35820, Note_on_c, 1, 57, 107
3, 35880, Note_on_c, 1, 57, 0
3, 35880, Note_on_c, 1, 55, 104
3, 35940, Note_on_c, 1, 55, 0
3, 35940, Note_on_c, 1, 52, 100
3, 36000, Note_on_c, 1, 52, 0
3, 36000, Note_on_c, 1, 57, 95
3, 36030, Pitch_bend_c, 1, 16383
3, 36050, Note_on_c, 1, 57, 0
3, 36060, Pitch_bend_c, 1, 8192
3, 36060, Note_on_c, 1, 57, 91
3, 36110, Note_on_c, 1, 57, 0
3, 36120, Note_on_c, 1, 55, 87
3, 36180, Note_on_c, 1, 55, 0
3, 36180, Note_on_c, 1, 55, 83
3, 36300, Note_on_c, 1, 55, 0
3, 36420, Note_on_c, 1, 59, 68
3, 36540, Note_on_c, 1, 59, 0
3, 36540, Note_on_c, 1, 57, 59
3, 36590, Note_on_c, 1, 57, 0
3, 36600, Note_on_c, 1, 55, 55
3, 36660, Note_on_c, 1, 55, 0
3, 36660, Note_on_c, 1, 55, 52
3, 36780, Note_on_c, 1, 55, 0
3, 36840, Note_on_c, 1, 55, 40
3, 36890, Note_on_c, 1, 55, 0
3, 36900, Note_on_c, 1, 55, 36
3, 36950, Note_on_c, 1, 55, 0
3, 36960, Note_on_c, 1, 57, 31
3, 37010, Note_on_c, 1, 57, 0
3, 37020, Note_on_c, 1, 55, 27
3, 37070, Note_on_c, 1, 55, 0
3, 37080, Note_on_c, 1, 54, 24
3, 37140, Note_on_c, 1, 54, 0
3, 37140, Note_on_c, 1, 54, 20
3, 37260, Note_on_c, 1, 54, 0
3, 37260, End_track
4, 0, Start_track
4, 0, MIDI_port, 0
4, 0, Program_c, 10, 84
4, 0, Control_c, 10, 7, 100
4, 0, Control_c, 10, 10, 0
4, 1440, Note_on_c, 10, 43, 127
4, 1490, Note_on_c, 10, 43, 0
4, 1500, Note_on_c, 10, 55, 127
4, 1550, Note_on_c, 10, 55, 0
4, 1560, Note_on_c, 10, 53, 127
4, 1610, Note_on_c, 10, 53, 0
4, 1620, Note_on_c, 10, 50, 127
4, 1740, Note_on_c, 10, 50, 0
4, 1740, Note_on_c, 10, 48, 127
4, 1860, Note_on_c, 10, 48, 0
4, 1860, Note_on_c, 10, 44, 127
4, 1920, Note_on_c, 10, 44, 0
4, 1920, Note_on_c, 10, 43, 127
4, 1970, Note_on_c, 10, 43, 0
4, 1980, Note_on_c, 10, 55, 127
4, 2030, Note_on_c, 10, 55, 0
4, 2040, Note_on_c, 10, 53, 127
4, 2090, Note_on_c, 10, 53, 0
4, 2100, Note_on_c, 10, 50, 127
4, 2220, Note_on_c, 10, 50, 0
4, 2220, Note_on_c, 10, 48, 127
4, 2340, Note_on_c, 10, 48, 0
4, 2340, Note_on_c, 10, 44, 127
4, 2400, Note_on_c, 10, 44, 0
4, 2400, Note_on_c, 10, 59, 127
4, 2450, Note_on_c, 10, 59, 0
4, 2460, Note_on_c, 10, 57, 127
4, 2510, Note_on_c, 10, 57, 0
4, 2520, Note_on_c, 10, 55, 127
4, 2580, Note_on_c, 10, 55, 0
4, 2580, Note_on_c, 10, 55, 127
4, 2700, Note_on_c, 10, 55, 0
4, 2880, Note_on_c, 10, 59, 127
4, 2930, Note_on_c, 10, 59, 0
4, 2940, Note_on_c, 10, 57, 127
4, 2990, Note_on_c, 10, 57, 0
4, 3000, Note_on_c, 10, 55, 127
4, 3060, Note_on_c, 10, 55, 0
4, 3060, Note_on_c, 10, 55, 127
4, 3180, Note_on_c, 10, 55, 0
4, 7200, Note_on_c, 10, 59, 127
4, 7250, Note_on_c, 10, 59, 0
4, 7260, Note_on_c, 10, 57, 127
4, 7310, Note_on_c, 10, 57, 0
4, 7320, Note_on_c, 10, 55, 127
4, 7370, Note_on_c, 10, 55, 0
4, 7380, Note_on_c, 10, 55, 127
4, 7500, Note_on_c, 10, 55, 0
4, 7680, Note_on_c, 10, 59, 127
4, 7730, Note_on_c, 10, 59, 0
4, 7740, Note_on_c, 10, 57, 127
4, 7790, Note_on_c, 10, 57, 0
4, 7800, Note_on_c, 10, 55, 127
4, 7850, Note_on_c, 10, 55, 0
4, 7860, Note_on_c, 10, 55, 127
4, 7980, Note_on_c, 10, 55, 0
4, 12000, Note_on_c, 10, 59, 127
4, 12050, Note_on_c, 10, 59, 0
4, 12060, Note_on_c, 10, 57, 127
4, 12110, Note_on_c, 10, 57, 0
4, 12120, Note_on_c, 10, 55, 127
4, 12170, Note_on_c, 10, 55, 0
4, 12180, Note_on_c, 10, 55, 127
4, 12300, Note_on_c, 10, 55, 0
4, 12480, Note_on_c, 10, 59, 127
4, 12530, Note_on_c, 10, 59, 0
4, 12540, Note_on_c, 10, 57, 127
4, 12590, Note_on_c, 10, 57, 0
4, 12600, Note_on_c, 10, 55, 127
4, 12660, Note_on_c, 10, 55, 0
4, 12660, Note_on_c, 10, 55, 127
4, 12780, Note_on_c, 10, 55, 0
4, 16800, Note_on_c, 10, 59, 127
4, 16850, Note_on_c, 10, 59, 0
4, 16860, Note_on_c, 10, 57, 127
4, 16910, Note_on_c, 10, 57, 0
4, 16920, Note_on_c, 10, 55, 127
4, 16980, Note_on_c, 10, 55, 0
4, 16980, Note_on_c, 10, 55, 127
4, 17100, Note_on_c, 10, 55, 0
4, 17280, Note_on_c, 10, 59, 127
4, 17330, Note_on_c, 10, 59, 0
4, 17340, Note_on_c, 10, 57, 127
4, 17390, Note_on_c, 10, 57, 0
4, 17400, Note_on_c, 10, 55, 127
4, 17460, Note_on_c, 10, 55, 0
4, 17460, Note_on_c, 10, 55, 127
4, 17580, Note_on_c, 10, 55, 0
4, 21602, Note_on_c, 10, 57, 127
4, 21632, Pitch_bend_c, 10, 16383
4, 21652, Note_on_c, 10, 57, 0
4, 21662, Pitch_bend_c, 10, 8192
4, 21662, Note_on_c, 10, 57, 127
4, 21712, Note_on_c, 10, 57, 0
4, 21722, Note_on_c, 10, 55, 127
4, 21782, Note_on_c, 10, 55, 0
4, 21782, Note_on_c, 10, 55, 127
4, 21902, Note_on_c, 10, 55, 0
4, 22022, Note_on_c, 10, 59, 127
4, 22142, Note_on_c, 10, 59, 0
4, 22142, Note_on_c, 10, 57, 127
4, 22192, Note_on_c, 10, 57, 0
4, 22202, Note_on_c, 10, 55, 127
4, 22262, Note_on_c, 10, 55, 0
4, 22262, Note_on_c, 10, 55, 127
4, 22382, Note_on_c, 10, 55, 0
4, 22442, Note_on_c, 10, 55, 127
4, 22492, Note_on_c, 10, 55, 0
4, 22502, Note_on_c, 10, 55, 127
4, 22552, Note_on_c, 10, 55, 0
4, 22562, Note_on_c, 10, 57, 127
4, 22612, Note_on_c, 10, 57, 0
4, 22622, Note_on_c, 10, 55, 127
4, 22672, Note_on_c, 10, 55, 0
4, 22682, Note_on_c, 10, 54, 127
4, 22742, Note_on_c, 10, 54, 0
4, 22742, Note_on_c, 10, 54, 127
4, 22862, Note_on_c, 10, 54, 0
4, 23042, Note_on_c, 10, 57, 127
4, 23102, Note_on_c, 10, 57, 0
4, 23102, Note_on_c, 10, 55, 127
4, 23152, Note_on_c, 10, 55, 0
4, 23162, Note_on_c, 10, 54, 127
4, 23222, Note_on_c, 10, 54, 0
4, 23222, Note_on_c, 10, 54, 127
4, 23342, Note_on_c, 10, 54, 0
4, 23402, Note_on_c, 10, 50, 127
4, 23462, Note_on_c, 10, 50, 0
4, 23462, Note_on_c, 10, 50, 127
4, 23522, Note_on_c, 10, 50, 0
4, 23522, Note_on_c, 10, 52, 127
4, 23582, Note_on_c, 10, 52, 0
4, 23582, Note_on_c, 10, 55, 127
4, 23642, Note_on_c, 10, 55, 0
4, 23642, Note_on_c, 10, 55, 127
4, 23702, Note_on_c, 10, 55, 0
4, 23702, Note_on_c, 10, 55, 127
4, 23822, Note_on_c, 10, 55, 0
4, 23882, Note_on_c, 10, 55, 127
4, 23942, Note_on_c, 10, 55, 0
4, 23942, Note_on_c, 10, 55, 127
4, 24002, Note_on_c, 10, 55, 0
4, 24002, Note_on_c, 10, 55, 127
4, 24062, Note_on_c, 10, 55, 0
4, 24062, Note_on_c, 10, 57, 127
4, 24122, Note_on_c, 10, 57, 0
4, 24122, Note_on_c, 10, 59, 127
4, 24182, Note_on_c, 10, 59, 0
4, 24182, Note_on_c, 10, 50, 127
4, 24302, Note_on_c, 10, 50, 0
4, 24362, Note_on_c, 10, 50, 127
4, 24422, Note_on_c, 10, 50, 0
4, 24422, Note_on_c, 10, 50, 127
4, 24482, Note_on_c, 10, 50, 0
4, 24482, Note_on_c, 10, 50, 127
4, 24602, Note_on_c, 10, 50, 0
4, 25440, Note_on_c, 10, 43, 127
4, 25490, Note_on_c, 10, 43, 0
4, 25500, Note_on_c, 10, 55, 127
4, 25550, Note_on_c, 10, 55, 0
4, 25560, Note_on_c, 10, 53, 127
4, 25610, Note_on_c, 10, 53, 0
4, 25620, Note_on_c, 10, 50, 127
4, 25740, Note_on_c, 10, 50, 0
4, 25740, Note_on_c, 10, 48, 127
4, 25860, Note_on_c, 10, 48, 0
4, 25860, Note_on_c, 10, 44, 127
4, 25920, Note_on_c, 10, 44, 0
4, 25920, Note_on_c, 10, 43, 127
4, 25970, Note_on_c, 10, 43, 0
4, 25980, Note_on_c, 10, 55, 127
4, 26030, Note_on_c, 10, 55, 0
4, 26040, Note_on_c, 10, 53, 127
4, 26090, Note_on_c, 10, 53, 0
4, 26100, Note_on_c, 10, 50, 127
4, 26220, Note_on_c, 10, 50, 0
4, 26220, Note_on_c, 10, 48, 127
4, 26340, Note_on_c, 10, 48, 0
4, 26340, Note_on_c, 10, 44, 127
4, 26400, Note_on_c, 10, 44, 0
4, 26400, End_track
5, 0, Start_track
5, 0, MIDI_port, 0
5, 0, Program_c, 2, 105
5, 0, Control_c, 2, 7, 70
5, 0, Control_c, 2, 10, 94
5, 1440, Note_on_c, 2, 62, 100
5, 1440, Note_on_c, 2, 59, 100
5, 1440, Note_on_c, 2, 67, 100
5, 1475, Note_on_c, 2, 67, 0
5, 1475, Note_on_c, 2, 59, 0
5, 1475, Note_on_c, 2, 62, 0
5, 1530, Note_on_c, 2, 62, 100
5, 1530, Note_on_c, 2, 59, 100
5, 1530, Note_on_c, 2, 67, 100
5, 1560, Note_on_c, 2, 67, 0
5, 1560, Note_on_c, 2, 59, 0
5, 1560, Note_on_c, 2, 62, 0
5, 1560, Note_on_c, 2, 59, 100
5, 1560, Note_on_c, 2, 62, 100
5, 1560, Note_on_c, 2, 67, 100
5, 1595, Note_on_c, 2, 67, 0
5, 1595, Note_on_c, 2, 62, 0
5, 1595, Note_on_c, 2, 59, 0
5, 1680, Note_on_c, 2, 62, 100
5, 1680, Note_on_c, 2, 59, 100
5, 1680, Note_on_c, 2, 67, 100
5, 1715, Note_on_c, 2, 67, 0
5, 1715, Note_on_c, 2, 59, 0
5, 1715, Note_on_c, 2, 62, 0
5, 1770, Note_on_c, 2, 62, 100
5, 1770, Note_on_c, 2, 59, 100
5, 1770, Note_on_c, 2, 67, 100
5, 1800, Note_on_c, 2, 67, 0
5, 1800, Note_on_c, 2, 59, 0
5, 1800, Note_on_c, 2, 62, 0
5, 1800, Note_on_c, 2, 59, 100
5, 1800, Note_on_c, 2, 62, 100
5, 1800, Note_on_c, 2, 67, 100
5, 1835, Note_on_c, 2, 67, 0
5, 1835, Note_on_c, 2, 62, 0
5, 1835, Note_on_c, 2, 59, 0
5, 1920, Note_on_c, 2, 62, 100
5, 1920, Note_on_c, 2, 59, 100
5, 1920, Note_on_c, 2, 67, 100
5, 1955, Note_on_c, 2, 67, 0
5, 1955, Note_on_c, 2, 59, 0
5, 1955, Note_on_c, 2, 62, 0
5, 1980, Note_on_c, 2, 67, 100
5, 1980, Note_on_c, 2, 59, 100
5, 1980, Note_on_c, 2, 62, 100
5, 2010, Note_on_c, 2, 62, 0
5, 2010, Note_on_c, 2, 59, 0
5, 2010, Note_on_c, 2, 67, 0
5, 2040, Note_on_c, 2, 59, 100
5, 2040, Note_on_c, 2, 62, 100
5, 2040, Note_on_c, 2, 67, 100
5, 2075, Note_on_c, 2, 67, 0
5, 2075, Note_on_c, 2, 62, 0
5, 2075, Note_on_c, 2, 59, 0
5, 2160, Note_on_c, 2, 62, 100
5, 2160, Note_on_c, 2, 59, 100
5, 2160, Note_on_c, 2, 67, 100
5, 2195, Note_on_c, 2, 67, 0
5, 2195, Note_on_c, 2, 59, 0
5, 2195, Note_on_c, 2, 62, 0
5, 2250, Note_on_c, 2, 62, 100
5, 2250, Note_on_c, 2, 59, 100
5, 2250, Note_on_c, 2, 67, 100
5, 2280, Note_on_c, 2, 67, 0
5, 2280, Note_on_c, 2, 59, 0
5, 2280, Note_on_c, 2, 62, 0
5, 2280, Note_on_c, 2, 59, 100
5, 2280, Note_on_c, 2, 62, 100
5, 2280, Note_on_c, 2, 67, 100
5, 2315, Note_on_c, 2, 67, 0
5, 2315, Note_on_c, 2, 62, 0
5, 2315, Note_on_c, 2, 59, 0
5, 25440, Note_on_c, 2, 62, 100
5, 25440, Note_on_c, 2, 59, 100
5, 25440, Note_on_c, 2, 67, 100
5, 25475, Note_on_c, 2, 67, 0
5, 25475, Note_on_c, 2, 59, 0
5, 25475, Note_on_c, 2, 62, 0
5, 25530, Note_on_c, 2, 62, 100
5, 25530, Note_on_c, 2, 59, 100
5, 25530, Note_on_c, 2, 67, 100
5, 25560, Note_on_c, 2, 67, 0
5, 25560, Note_on_c, 2, 59, 0
5, 25560, Note_on_c, 2, 62, 0
5, 25560, Note_on_c, 2, 59, 100
5, 25560, Note_on_c, 2, 62, 100
5, 25560, Note_on_c, 2, 67, 100
5, 25595, Note_on_c, 2, 67, 0
5, 25595, Note_on_c, 2, 62, 0
5, 25595, Note_on_c, 2, 59, 0
5, 25680, Note_on_c, 2, 62, 100
5, 25680, Note_on_c, 2, 59, 100
5, 25680, Note_on_c, 2, 67, 100
5, 25715, Note_on_c, 2, 67, 0
5, 25715, Note_on_c, 2, 59, 0
5, 25715, Note_on_c, 2, 62, 0
5, 25770, Note_on_c, 2, 62, 100
5, 25770, Note_on_c, 2, 59, 100
5, 25770, Note_on_c, 2, 67, 100
5, 25800, Note_on_c, 2, 67, 0
5, 25800, Note_on_c, 2, 59, 0
5, 25800, Note_on_c, 2, 62, 0
5, 25800, Note_on_c, 2, 59, 100
5, 25800, Note_on_c, 2, 62, 100
5, 25800, Note_on_c, 2, 67, 100
5, 25835, Note_on_c, 2, 67, 0
5, 25835, Note_on_c, 2, 62, 0
5, 25835, Note_on_c, 2, 59, 0
5, 25920, Note_on_c, 2, 62, 100
5, 25920, Note_on_c, 2, 59, 100
5, 25920, Note_on_c, 2, 67, 100
5, 25955, Note_on_c, 2, 67, 0
5, 25955, Note_on_c, 2, 59, 0
5, 25955, Note_on_c, 2, 62, 0
5, 25980, Note_on_c, 2, 67, 100
5, 25980, Note_on_c, 2, 59, 100
5, 25980, Note_on_c, 2, 62, 100
5, 26010, Note_on_c, 2, 62, 0
5, 26010, Note_on_c, 2, 59, 0
5, 26010, Note_on_c, 2, 67, 0
5, 26040, Note_on_c, 2, 59, 100
5, 26040, Note_on_c, 2, 62, 100
5, 26040, Note_on_c, 2, 67, 100
5, 26075, Note_on_c, 2, 67, 0
5, 26075, Note_on_c, 2, 62, 0
5, 26075, Note_on_c, 2, 59, 0
5, 26160, Note_on_c, 2, 62, 100
5, 26160, Note_on_c, 2, 59, 100
5, 26160, Note_on_c, 2, 67, 100
5, 26195, Note_on_c, 2, 67, 0
5, 26195, Note_on_c, 2, 59, 0
5, 26195, Note_on_c, 2, 62, 0
5, 26250, Note_on_c, 2, 62, 100
5, 26250, Note_on_c, 2, 59, 100
5, 26250, Note_on_c, 2, 67, 100
5, 26280, Note_on_c, 2, 67, 0
5, 26280, Note_on_c, 2, 59, 0
5, 26280, Note_on_c, 2, 62, 0
5, 26280, Note_on_c, 2, 59, 100
5, 26280, Note_on_c, 2, 62, 100
5, 26280, Note_on_c, 2, 67, 100
5, 26315, Note_on_c, 2, 67, 0
5, 26315, Note_on_c, 2, 62, 0
5, 26315, Note_on_c, 2, 59, 0
5, 26315, End_track
6, 0, Start_track
6, 0, MIDI_port, 0
6, 0, Program_c, 4, 27
6, 0, Control_c, 4, 7, 70
6, 0, Control_c, 4, 10, 0
6, 2400, Note_on_c, 4, 62, 100
6, 2400, Note_on_c, 4, 59, 100
6, 2400, Note_on_c, 4, 67, 100
6, 2435, Note_on_c, 4, 67, 0
6, 2435, Note_on_c, 4, 59, 0
6, 2435, Note_on_c, 4, 62, 0
6, 2460, Note_on_c, 4, 62, 100
6, 2460, Note_on_c, 4, 67, 100
6, 2460, Note_on_c, 4, 59, 100
6, 2490, Note_on_c, 4, 59, 0
6, 2490, Note_on_c, 4, 67, 0
6, 2490, Note_on_c, 4, 62, 0
6, 2490, Note_on_c, 4, 62, 100
6, 2490, Note_on_c, 4, 59, 100
6, 2490, Note_on_c, 4, 67, 100
6, 2520, Note_on_c, 4, 67, 0
6, 2520, Note_on_c, 4, 59, 0
6, 2520, Note_on_c, 4, 62, 0
6, 2520, Note_on_c, 4, 59, 100
6, 2520, Note_on_c, 4, 62, 100
6, 2520, Note_on_c, 4, 67, 100
6, 2555, Note_on_c, 4, 67, 0
6, 2555, Note_on_c, 4, 62, 0
6, 2555, Note_on_c, 4, 59, 0
6, 2580, Note_on_c, 4, 62, 100
6, 2580, Note_on_c, 4, 67, 100
6, 2580, Note_on_c, 4, 59, 100
6, 2610, Note_on_c, 4, 59, 0
6, 2610, Note_on_c, 4, 67, 0
6, 2610, Note_on_c, 4, 62, 0
6, 2610, Note_on_c, 4, 62, 100
6, 2610, Note_on_c, 4, 59, 100
6, 2610, Note_on_c, 4, 67, 100
6, 2640, Note_on_c, 4, 67, 0
6, 2640, Note_on_c, 4, 59, 0
6, 2640, Note_on_c, 4, 62, 0
6, 2640, Note_on_c, 4, 62, 100
6, 2640, Note_on_c, 4, 59, 100
6, 2640, Note_on_c, 4, 67, 100
6, 2675, Note_on_c, 4, 67, 0
6, 2675, Note_on_c, 4, 59, 0
6, 2675, Note_on_c, 4, 62, 0
6, 2700, Note_on_c, 4, 62, 100
6, 2700, Note_on_c, 4, 67, 100
6, 2700, Note_on_c, 4, 59, 100
6, 2730, Note_on_c, 4, 59, 0
6, 2730, Note_on_c, 4, 67, 0
6, 2730, Note_on_c, 4, 62, 0
6, 2730, Note_on_c, 4, 62, 100
6, 2730, Note_on_c, 4, 59, 100
6, 2730, Note_on_c, 4, 67, 100
6, 2760, Note_on_c, 4, 67, 0
6, 2760, Note_on_c, 4, 59, 0
6, 2760, Note_on_c, 4, 62, 0
6, 2760, Note_on_c, 4, 59, 100
6, 2760, Note_on_c, 4, 62, 100
6, 2760, Note_on_c, 4, 67, 100
6, 2795, Note_on_c, 4, 67, 0
6, 2795, Note_on_c, 4, 62, 0
6, 2795, Note_on_c, 4, 59, 0
6, 2820, Note_on_c, 4, 62, 100
6, 2820, Note_on_c, 4, 67, 100
6, 2820, Note_on_c, 4, 59, 100
6, 2850, Note_on_c, 4, 59, 0
6, 2850, Note_on_c, 4, 67, 0
6, 2850, Note_on_c, 4, 62, 0
6, 2850, Note_on_c, 4, 62, 100
6, 2850, Note_on_c, 4, 59, 100
6, 2850, Note_on_c, 4, 67, 100
6, 2880, Note_on_c, 4, 67, 0
6, 2880, Note_on_c, 4, 59, 0
6, 2880, Note_on_c, 4, 62, 0
6, 2880, Note_on_c, 4, 62, 100
6, 2880, Note_on_c, 4, 59, 100
6, 2880, Note_on_c, 4, 67, 100
6, 2915, Note_on_c, 4, 67, 0
6, 2915, Note_on_c, 4, 59, 0
6, 2915, Note_on_c, 4, 62, 0
6, 2940, Note_on_c, 4, 62, 100
6, 2940, Note_on_c, 4, 67, 100
6, 2940, Note_on_c, 4, 59, 100
6, 2970, Note_on_c, 4, 59, 0
6, 2970, Note_on_c, 4, 67, 0
6, 2970, Note_on_c, 4, 62, 0
6, 2970, Note_on_c, 4, 62, 100
6, 2970, Note_on_c, 4, 59, 100
6, 2970, Note_on_c, 4, 67, 100
6, 3000, Note_on_c, 4, 67, 0
6, 3000, Note_on_c, 4, 59, 0
6, 3000, Note_on_c, 4, 62, 0
6, 3000, Note_on_c, 4, 59, 100
6, 3000, Note_on_c, 4, 62, 100
6, 3000, Note_on_c, 4, 67, 100
6, 3035, Note_on_c, 4, 67, 0
6, 3035, Note_on_c, 4, 62, 0
6, 3035, Note_on_c, 4, 59, 0
6, 3060, Note_on_c, 4, 62, 100
6, 3060, Note_on_c, 4, 67, 100
6, 3060, Note_on_c, 4, 59, 100
6, 3090, Note_on_c, 4, 59, 0
6, 3090, Note_on_c, 4, 67, 0
6, 3090, Note_on_c, 4, 62, 0
6, 3090, Note_on_c, 4, 62, 100
6, 3090, Note_on_c, 4, 59, 100
6, 3090, Note_on_c, 4, 67, 100
6, 3120, Note_on_c, 4, 67, 0
6, 3120, Note_on_c, 4, 59, 0
6, 3120, Note_on_c, 4, 62, 0
6, 3120, Note_on_c, 4, 62, 100
6, 3120, Note_on_c, 4, 59, 100
6, 3120, Note_on_c, 4, 67, 100
6, 3155, Note_on_c, 4, 67, 0
6, 3155, Note_on_c, 4, 59, 0
6, 3155, Note_on_c, 4, 62, 0
6, 3180, Note_on_c, 4, 62, 100
6, 3180, Note_on_c, 4, 67, 100
6, 3180, Note_on_c, 4, 59, 100
6, 3210, Note_on_c, 4, 59, 0
6, 3210, Note_on_c, 4, 67, 0
6, 3210, Note_on_c, 4, 62, 0
6, 3210, Note_on_c, 4, 62, 100
6, 3210, Note_on_c, 4, 59, 100
6, 3210, Note_on_c, 4, 67, 100
6, 3240, Note_on_c, 4, 67, 0
6, 3240, Note_on_c, 4, 59, 0
6, 3240, Note_on_c, 4, 62, 0
6, 3240, Note_on_c, 4, 59, 100
6, 3240, Note_on_c, 4, 62, 100
6, 3240, Note_on_c, 4, 67, 100
6, 3275, Note_on_c, 4, 67, 0
6, 3275, Note_on_c, 4, 62, 0
6, 3275, Note_on_c, 4, 59, 0
6, 3300, Note_on_c, 4, 62, 100
6, 3300, Note_on_c, 4, 67, 100
6, 3300, Note_on_c, 4, 59, 100
6, 3330, Note_on_c, 4, 59, 0
6, 3330, Note_on_c, 4, 67, 0
6, 3330, Note_on_c, 4, 62, 0
6, 3330, Note_on_c, 4, 62, 100
6, 3330, Note_on_c, 4, 59, 100
6, 3330, Note_on_c, 4, 67, 100
6, 3360, Note_on_c, 4, 67, 0
6, 3360, Note_on_c, 4, 59, 0
6, 3360, Note_on_c, 4, 62, 0
6, 3360, Note_on_c, 4, 62, 100
6, 3360, Note_on_c, 4, 57, 100
6, 3360, Note_on_c, 4, 66, 100
6, 3395, Note_on_c, 4, 66, 0
6, 3395, Note_on_c, 4, 57, 0
6, 3395, Note_on_c, 4, 62, 0
6, 3420, Note_on_c, 4, 62, 100
6, 3420, Note_on_c, 4, 66, 100
6, 3420, Note_on_c, 4, 57, 100
6, 3450, Note_on_c, 4, 57, 0
6, 3450, Note_on_c, 4, 66, 0
6, 3450, Note_on_c, 4, 62, 0
6, 3450, Note_on_c, 4, 62, 100
6, 3450, Note_on_c, 4, 57, 100
6, 3450, Note_on_c, 4, 66, 100
6, 3480, Note_on_c, 4, 66, 0
6, 3480, Note_on_c, 4, 57, 0
6, 3480, Note_on_c, 4, 62, 0
6, 3480, Note_on_c, 4, 57, 100
6, 3480, Note_on_c, 4, 62, 100
6, 3480, Note_on_c, 4, 66, 100
6, 3515, Note_on_c, 4, 66, 0
6, 3515, Note_on_c, 4, 62, 0
6, 3515, Note_on_c, 4, 57, 0
6, 3540, Note_on_c, 4, 62, 100
6, 3540, Note_on_c, 4, 66, 100
6, 3540, Note_on_c, 4, 57, 100
6, 3570, Note_on_c, 4, 57, 0
6, 3570, Note_on_c, 4, 66, 0
6, 3570, Note_on_c, 4, 62, 0
6, 3570, Note_on_c, 4, 62, 100
6, 3570, Note_on_c, 4, 57, 100
6, 3570, Note_on_c, 4, 66, 100
6, 3600, Note_on_c, 4, 66, 0
6, 3600, Note_on_c, 4, 57, 0
6, 3600, Note_on_c, 4, 62, 0
6, 3600, Note_on_c, 4, 62, 100
6, 3600, Note_on_c, 4, 57, 100
6, 3600, Note_on_c, 4, 66, 100
6, 3635, Note_on_c, 4, 66, 0
6, 3635, Note_on_c, 4, 57, 0
6, 3635, Note_on_c, 4, 62, 0
6, 3660, Note_on_c, 4, 62, 100
6, 3660, Note_on_c, 4, 66, 100
6, 3660, Note_on_c, 4, 57, 100
6, 3690, Note_on_c, 4, 57, 0
6, 3690, Note_on_c, 4, 66, 0
6, 3690, Note_on_c, 4, 62, 0
6, 3690, Note_on_c, 4, 62, 100
6, 3690, Note_on_c, 4, 57, 100
6, 3690, Note_on_c, 4, 66, 100
6, 3720, Note_on_c, 4, 66, 0
6, 3720, Note_on_c, 4, 57, 0
6, 3720, Note_on_c, 4, 62, 0
6, 3720, Note_on_c, 4, 57, 100
6, 3720, Note_on_c, 4, 62, 100
6, 3720, Note_on_c, 4, 66, 100
6, 3755, Note_on_c, 4, 66, 0
6, 3755, Note_on_c, 4, 62, 0
6, 3755, Note_on_c, 4, 57, 0
6, 3780, Note_on_c, 4, 62, 100
6, 3780, Note_on_c, 4, 66, 100
6, 3780, Note_on_c, 4, 57, 100
6, 3810, Note_on_c, 4, 57, 0
6, 3810, Note_on_c, 4, 66, 0
6, 3810, Note_on_c, 4, 62, 0
6, 3810, Note_on_c, 4, 62, 100
6, 3810, Note_on_c, 4, 57, 100
6, 3810, Note_on_c, 4, 66, 100
6, 3840, Note_on_c, 4, 66, 0
6, 3840, Note_on_c, 4, 57, 0
6, 3840, Note_on_c, 4, 62, 0
6, 3840, Note_on_c, 4, 62, 100
6, 3840, Note_on_c, 4, 57, 100
6, 3840, Note_on_c, 4, 66, 100
6, 3875, Note_on_c, 4, 66, 0
6, 3875, Note_on_c, 4, 57, 0
6, 3875, Note_on_c, 4, 62, 0
6, 3900, Note_on_c, 4, 62, 100
6, 3900, Note_on_c, 4, 66, 100
6, 3900, Note_on_c, 4, 57, 100
6, 3930, Note_on_c, 4, 57, 0
6, 3930, Note_on_c, 4, 66, 0
6, 3930, Note_on_c, 4, 62, 0
6, 3930, Note_on_c, 4, 62, 100
6, 3930, Note_on_c, 4, 57, 100
6, 3930, Note_on_c, 4, 66, 100
6, 3960, Note_on_c, 4, 66, 0
6, 3960, Note_on_c, 4, 57, 0
6, 3960, Note_on_c, 4, 62, 0
6, 3960, Note_on_c, 4, 57, 100
6, 3960, Note_on_c, 4, 62, 100
6, 3960, Note_on_c, 4, 66, 100
6, 3995, Note_on_c, 4, 66, 0
6, 3995, Note_on_c, 4, 62, 0
6, 3995, Note_on_c, 4, 57, 0
6, 4020, Note_on_c, 4, 62, 100
6, 4020, Note_on_c, 4, 66, 100
6, 4020, Note_on_c, 4, 57, 100
6, 4050, Note_on_c, 4, 57, 0
6, 4050, Note_on_c, 4, 66, 0
6, 4050, Note_on_c, 4, 62, 0
6, 4050, Note_on_c, 4, 62, 100
6, 4050, Note_on_c, 4, 57, 100
6, 4050, Note_on_c, 4, 66, 100
6, 4080, Note_on_c, 4, 66, 0
6, 4080, Note_on_c, 4, 57, 0
6, 4080, Note_on_c, 4, 62, 0
6, 4080, Note_on_c, 4, 62, 100
6, 4080, Note_on_c, 4, 57, 100
6, 4080, Note_on_c, 4, 66, 100
6, 4115, Note_on_c, 4, 66, 0
6, 4115, Note_on_c, 4, 57, 0
6, 4115, Note_on_c, 4, 62, 0
6, 4140, Note_on_c, 4, 62, 100
6, 4140, Note_on_c, 4, 66, 100
6, 4140, Note_on_c, 4, 57, 100
6, 4170, Note_on_c, 4, 57, 0
6, 4170, Note_on_c, 4, 66, 0
6, 4170, Note_on_c, 4, 62, 0
6, 4170, Note_on_c, 4, 62, 100
6, 4170, Note_on_c, 4, 57, 100
6, 4170, Note_on_c, 4, 66, 100
6, 4200, Note_on_c, 4, 66, 0
6, 4200, Note_on_c, 4, 57, 0
6, 4200, Note_on_c, 4, 62, 0
6, 4200, Note_on_c, 4, 57, 100
6, 4200, Note_on_c, 4, 62, 100
6, 4200, Note_on_c, 4, 66, 100
6, 4235, Note_on_c, 4, 66, 0
6, 4235, Note_on_c, 4, 62, 0
6, 4235, Note_on_c, 4, 57, 0
6, 4260, Note_on_c, 4, 62, 100
6, 4260, Note_on_c, 4, 66, 100
6, 4260, Note_on_c, 4, 57, 100
6, 4290, Note_on_c, 4, 57, 0
6, 4290, Note_on_c, 4, 66, 0
6, 4290, Note_on_c, 4, 62, 0
6, 4290, Note_on_c, 4, 62, 100
6, 4290, Note_on_c, 4, 57, 100
6, 4290, Note_on_c, 4, 66, 100
6, 4320, Note_on_c, 4, 66, 0
6, 4320, Note_on_c, 4, 57, 0
6, 4320, Note_on_c, 4, 62, 0
6, 4320, Note_on_c, 4, 60, 100
6, 4320, Note_on_c, 4, 55, 100
6, 4320, Note_on_c, 4, 64, 100
6, 4355, Note_on_c, 4, 64, 0
6, 4355, Note_on_c, 4, 55, 0
6, 4355, Note_on_c, 4, 60, 0
6, 4380, Note_on_c, 4, 60, 100
6, 4380, Note_on_c, 4, 64, 100
6, 4380, Note_on_c, 4, 55, 100
6, 4410, Note_on_c, 4, 55, 0
6, 4410, Note_on_c, 4, 64, 0
6, 4410, Note_on_c, 4, 60, 0
6, 4410, Note_on_c, 4, 60, 100
6, 4410, Note_on_c, 4, 55, 100
6, 4410, Note_on_c, 4, 64, 100
6, 4440, Note_on_c, 4, 64, 0
6, 4440, Note_on_c, 4, 55, 0
6, 4440, Note_on_c, 4, 60, 0
6, 4440, Note_on_c, 4, 55, 100
6, 4440, Note_on_c, 4, 60, 100
6, 4440, Note_on_c, 4, 64, 100
6, 4475, Note_on_c, 4, 64, 0
6, 4475, Note_on_c, 4, 60, 0
6, 4475, Note_on_c, 4, 55, 0
6, 4500, Note_on_c, 4, 60, 100
6, 4500, Note_on_c, 4, 64, 100
6, 4500, Note_on_c, 4, 55, 100
6, 4530, Note_on_c, 4, 55, 0
6, 4530, Note_on_c, 4, 64, 0
6, 4530, Note_on_c, 4, 60, 0
6, 4530, Note_on_c, 4, 60, 100
6, 4530, Note_on_c, 4, 55, 100
6, 4530, Note_on_c, 4, 64, 100
6, 4560, Note_on_c, 4, 64, 0
6, 4560, Note_on_c, 4, 55, 0
6, 4560, Note_on_c, 4, 60, 0
6, 4560, Note_on_c, 4, 60, 100
6, 4560, Note_on_c, 4, 55, 100
6, 4560, Note_on_c, 4, 64, 100
6, 4595, Note_on_c, 4, 64, 0
6, 4595, Note_on_c, 4, 55, 0
6, 4595, Note_on_c, 4, 60, 0
6, 4620, Note_on_c, 4, 60, 100
6, 4620, Note_on_c, 4, 64, 100
6, 4620, Note_on_c, 4, 55, 100
6, 4650, Note_on_c, 4, 55, 0
6, 4650, Note_on_c, 4, 64, 0
6, 4650, Note_on_c, 4, 60, 0
6, 4650, Note_on_c, 4, 60, 100
6, 4650, Note_on_c, 4, 55, 100
6, 4650, Note_on_c, 4, 64, 100
6, 4680, Note_on_c, 4, 64, 0
6, 4680, Note_on_c, 4, 55, 0
6, 4680, Note_on_c, 4, 60, 0
6, 4680, Note_on_c, 4, 55, 100
6, 4680, Note_on_c, 4, 60, 100
6, 4680, Note_on_c, 4, 64, 100
6, 4715, Note_on_c, 4, 64, 0
6, 4715, Note_on_c, 4, 60, 0
6, 4715, Note_on_c, 4, 55, 0
6, 4740, Note_on_c, 4, 60, 100
6, 4740, Note_on_c, 4, 64, 100
6, 4740, Note_on_c, 4, 55, 100
6, 4770, Note_on_c, 4, 55, 0
6, 4770, Note_on_c, 4, 64, 0
6, 4770, Note_on_c, 4, 60, 0
6, 4770, Note_on_c, 4, 60, 100
6, 4770, Note_on_c, 4, 55, 100
6, 4770, Note_on_c, 4, 64, 100
6, 4800, Note_on_c, 4, 64, 0
6, 4800, Note_on_c, 4, 55, 0
6, 4800, Note_on_c, 4, 60, 0
6, 4800, Note_on_c, 4, 60, 100
6, 4800, Note_on_c, 4, 55, 100
6, 4800, Note_on_c, 4, 64, 100
6, 4835, Note_on_c, 4, 64, 0
6, 4835, Note_on_c, 4, 55, 0
6, 4835, Note_on_c, 4, 60, 0
6, 4860, Note_on_c, 4, 60, 100
6, 4860, Note_on_c, 4, 64, 100
6, 4860, Note_on_c, 4, 55, 100
6, 4890, Note_on_c, 4, 55, 0
6, 4890, Note_on_c, 4, 64, 0
6, 4890, Note_on_c, 4, 60, 0
6, 4890, Note_on_c, 4, 60, 100
6, 4890, Note_on_c, 4, 55, 100
6, 4890, Note_on_c, 4, 64, 100
6, 4920, Note_on_c, 4, 64, 0
6, 4920, Note_on_c, 4, 55, 0
6, 4920, Note_on_c, 4, 60, 0
6, 4920, Note_on_c, 4, 55, 100
6, 4920, Note_on_c, 4, 60, 100
6, 4920, Note_on_c, 4, 64, 100
6, 4955, Note_on_c, 4, 64, 0
6, 4955, Note_on_c, 4, 60, 0
6, 4955, Note_on_c, 4, 55, 0
6, 4980, Note_on_c, 4, 60, 100
6, 4980, Note_on_c, 4, 64, 100
6, 4980, Note_on_c, 4, 55, 100
6, 5010, Note_on_c, 4, 55, 0
6, 5010, Note_on_c, 4, 64, 0
6, 5010, Note_on_c, 4, 60, 0
6, 5010, Note_on_c, 4, 60, 100
6, 5010, Note_on_c, 4, 55, 100
6, 5010, Note_on_c, 4, 64, 100
6, 5040, Note_on_c, 4, 64, 0
6, 5040, Note_on_c, 4, 55, 0
6, 5040, Note_on_c, 4, 60, 0
6, 5040, Note_on_c, 4, 60, 100
6, 5040, Note_on_c, 4, 55, 100
6, 5040, Note_on_c, 4, 64, 100
6, 5075, Note_on_c, 4, 64, 0
6, 5075, Note_on_c, 4, 55, 0
6, 5075, Note_on_c, 4, 60, 0
6, 5100, Note_on_c, 4, 60, 100
6, 5100, Note_on_c, 4, 64, 100
6, 5100, Note_on_c, 4, 55, 100
6, 5130, Note_on_c, 4, 55, 0
6, 5130, Note_on_c, 4, 64, 0
6, 5130, Note_on_c, 4, 60, 0
6, 5130, Note_on_c, 4, 60, 100
6, 5130, Note_on_c, 4, 55, 100
6, 5130, Note_on_c, 4, 64, 100
6, 5160, Note_on_c, 4, 64, 0
6, 5160, Note_on_c, 4, 55, 0
6, 5160, Note_on_c, 4, 60, 0
6, 5160, Note_on_c, 4, 55, 100
6, 5160, Note_on_c, 4, 60, 100
6, 5160, Note_on_c, 4, 64, 100
6, 5195, Note_on_c, 4, 64, 0
6, 5195, Note_on_c, 4, 60, 0
6, 5195, Note_on_c, 4, 55, 0
6, 5220, Note_on_c, 4, 60, 100
6, 5220, Note_on_c, 4, 64, 100
6, 5220, Note_on_c, 4, 55, 100
6, 5250, Note_on_c, 4, 55, 0
6, 5250, Note_on_c, 4, 64, 0
6, 5250, Note_on_c, 4, 60, 0
6, 5250, Note_on_c, 4, 60, 100
6, 5250, Note_on_c, 4, 55, 100
6, 5250, Note_on_c, 4, 64, 100
6, 5280, Note_on_c, 4, 64, 0
6, 5280, Note_on_c, 4, 55, 0
6, 5280, Note_on_c, 4, 60, 0
6, 5280, Note_on_c, 4, 62, 100
6, 5280, Note_on_c, 4, 59, 100
6, 5280, Note_on_c, 4, 67, 100
6, 5315, Note_on_c, 4, 67, 0
6, 5315, Note_on_c, 4, 59, 0
6, 5315, Note_on_c, 4, 62, 0
6, 5340, Note_on_c, 4, 62, 100
6, 5340, Note_on_c, 4, 67, 100
6, 5340, Note_on_c, 4, 59, 100
6, 5370, Note_on_c, 4, 59, 0
6, 5370, Note_on_c, 4, 67, 0
6, 5370, Note_on_c, 4, 62, 0
6, 5370, Note_on_c, 4, 62, 100
6, 5370, Note_on_c, 4, 59, 100
6, 5370, Note_on_c, 4, 67, 100
6, 5400, Note_on_c, 4, 67, 0
6, 5400, Note_on_c, 4, 59, 0
6, 5400, Note_on_c, 4, 62, 0
6, 5400, Note_on_c, 4, 59, 100
6, 5400, Note_on_c, 4, 62, 100
6, 5400, Note_on_c, 4, 67, 100
6, 5435, Note_on_c, 4, 67, 0
6, 5435, Note_on_c, 4, 62, 0
6, 5435, Note_on_c, 4, 59, 0
6, 5460, Note_on_c, 4, 62, 100
6, 5460, Note_on_c, 4, 67, 100
6, 5460, Note_on_c, 4, 59, 100
6, 5490, Note_on_c, 4, 59, 0
6, 5490, Note_on_c, 4, 67, 0
6, 5490, Note_on_c, 4, 62, 0
6, 5490, Note_on_c, 4, 62, 100
6, 5490, Note_on_c, 4, 59, 100
6, 5490, Note_on_c, 4, 67, 100
6, 5520, Note_on_c, 4, 67, 0
6, 5520, Note_on_c, 4, 59, 0
6, 5520, Note_on_c, 4, 62, 0
6, 5520, Note_on_c, 4, 62, 100
6, 5520, Note_on_c, 4, 59, 100
6, 5520, Note_on_c, 4, 67, 100
6, 5555, Note_on_c, 4, 67, 0
6, 5555, Note_on_c, 4, 59, 0
6, 5555, Note_on_c, 4, 62, 0
6, 5580, Note_on_c, 4, 62, 100
6, 5580, Note_on_c, 4, 67, 100
6, 5580, Note_on_c, 4, 59, 100
6, 5610, Note_on_c, 4, 59, 0
6, 5610, Note_on_c, 4, 67, 0
6, 5610, Note_on_c, 4, 62, 0
6, 5610, Note_on_c, 4, 62, 100
6, 5610, Note_on_c, 4, 59, 100
6, 5610, Note_on_c, 4, 67, 100
6, 5640, Note_on_c, 4, 67, 0
6, 5640, Note_on_c, 4, 59, 0
6, 5640, Note_on_c, 4, 62, 0
6, 5640, Note_on_c, 4, 59, 100
6, 5640, Note_on_c, 4, 62, 100
6, 5640, Note_on_c, 4, 67, 100
6, 5675, Note_on_c, 4, 67, 0
6, 5675, Note_on_c, 4, 62, 0
6, 5675, Note_on_c, 4, 59, 0
6, 5700, Note_on_c, 4, 64, 100
6, 5700, Note_on_c, 4, 67, 100
6, 5700, Note_on_c, 4, 60, 100
6, 5730, Note_on_c, 4, 60, 0
6, 5730, Note_on_c, 4, 67, 0
6, 5730, Note_on_c, 4, 64, 0
6, 5730, Note_on_c, 4, 64, 100
6, 5730, Note_on_c, 4, 60, 100
6, 5730, Note_on_c, 4, 67, 100
6, 5760, Note_on_c, 4, 67, 0
6, 5760, Note_on_c, 4, 60, 0
6, 5760, Note_on_c, 4, 64, 0
6, 5760, Note_on_c, 4, 64, 100
6, 5760, Note_on_c, 4, 60, 100
6, 5760, Note_on_c, 4, 67, 100
6, 5795, Note_on_c, 4, 67, 0
6, 5795, Note_on_c, 4, 60, 0
6, 5795, Note_on_c, 4, 64, 0
6, 5820, Note_on_c, 4, 62, 100
6, 5820, Note_on_c, 4, 67, 100
6, 5820, Note_on_c, 4, 59, 100
6, 5850, Note_on_c, 4, 59, 0
6, 5850, Note_on_c, 4, 67, 0
6, 5850, Note_on_c, 4, 62, 0
6, 5850, Note_on_c, 4, 62, 100
6, 5850, Note_on_c, 4, 59, 100
6, 5850, Note_on_c, 4, 67, 100
6, 5880, Note_on_c, 4, 67, 0
6, 5880, Note_on_c, 4, 59, 0
6, 5880, Note_on_c, 4, 62, 0
6, 5880, Note_on_c, 4, 59, 100
6, 5880, Note_on_c, 4, 62, 100
6, 5880, Note_on_c, 4, 67, 100
6, 5915, Note_on_c, 4, 67, 0
6, 5915, Note_on_c, 4, 62, 0
6, 5915, Note_on_c, 4, 59, 0
6, 5940, Note_on_c, 4, 64, 100
6, 5940, Note_on_c, 4, 67, 100
6, 5940, Note_on_c, 4, 60, 100
6, 5970, Note_on_c, 4, 60, 0
6, 5970, Note_on_c, 4, 67, 0
6, 5970, Note_on_c, 4, 64, 0
6, 5970, Note_on_c, 4, 64, 100
6, 5970, Note_on_c, 4, 60, 100
6, 5970, Note_on_c, 4, 67, 100
6, 6000, Note_on_c, 4, 67, 0
6, 6000, Note_on_c, 4, 60, 0
6, 6000, Note_on_c, 4, 64, 0
6, 6000, Note_on_c, 4, 64, 100
6, 6000, Note_on_c, 4, 60, 100
6, 6000, Note_on_c, 4, 67, 100
6, 6035, Note_on_c, 4, 67, 0
6, 6035, Note_on_c, 4, 60, 0
6, 6035, Note_on_c, 4, 64, 0
6, 6060, Note_on_c, 4, 64, 100
6, 6060, Note_on_c, 4, 67, 100
6, 6060, Note_on_c, 4, 60, 100
6, 6090, Note_on_c, 4, 60, 0
6, 6090, Note_on_c, 4, 67, 0
6, 6090, Note_on_c, 4, 64, 0
6, 6090, Note_on_c, 4, 64, 100
6, 6090, Note_on_c, 4, 60, 100
6, 6090, Note_on_c, 4, 67, 100
6, 6120, Note_on_c, 4, 67, 0
6, 6120, Note_on_c, 4, 60, 0
6, 6120, Note_on_c, 4, 64, 0
6, 6120, Note_on_c, 4, 60, 100
6, 6120, Note_on_c, 4, 64, 100
6, 6120, Note_on_c, 4, 67, 100
6, 6155, Note_on_c, 4, 67, 0
6, 6155, Note_on_c, 4, 64, 0
6, 6155, Note_on_c, 4, 60, 0
6, 6180, Note_on_c, 4, 64, 100
6, 6180, Note_on_c, 4, 67, 100
6, 6180, Note_on_c, 4, 60, 100
6, 6210, Note_on_c, 4, 60, 0
6, 6210, Note_on_c, 4, 67, 0
6, 6210, Note_on_c, 4, 64, 0
6, 6210, Note_on_c, 4, 64, 100
6, 6210, Note_on_c, 4, 60, 100
6, 6210, Note_on_c, 4, 67, 100
6, 6240, Note_on_c, 4, 67, 0
6, 6240, Note_on_c, 4, 60, 0
6, 6240, Note_on_c, 4, 64, 0
6, 6240, Note_on_c, 4, 62, 100
6, 6240, Note_on_c, 4, 59, 100
6, 6240, Note_on_c, 4, 67, 100
6, 6275, Note_on_c, 4, 67, 0
6, 6275, Note_on_c, 4, 59, 0
6, 6275, Note_on_c, 4, 62, 0
6, 6300, Note_on_c, 4, 62, 100
6, 6300, Note_on_c, 4, 67, 100
6, 6300, Note_on_c, 4, 59, 100
6, 6330, Note_on_c, 4, 59, 0
6, 6330, Note_on_c, 4, 67, 0
6, 6330, Note_on_c, 4, 62, 0
6, 6330, Note_on_c, 4, 62, 100
6, 6330, Note_on_c, 4, 59, 100
6, 6330, Note_on_c, 4, 67, 100
6, 6360, Note_on_c, 4, 67, 0
6, 6360, Note_on_c, 4, 59, 0
6, 6360, Note_on_c, 4, 62, 0
6, 6360, Note_on_c, 4, 59, 100
6, 6360, Note_on_c, 4, 62, 100
6, 6360, Note_on_c, 4, 67, 100
6, 6395, Note_on_c, 4, 67, 0
6, 6395, Note_on_c, 4, 62, 0
6, 6395, Note_on_c, 4, 59, 0
6, 6420, Note_on_c, 4, 62, 100
6, 6420, Note_on_c, 4, 67, 100
6, 6420, Note_on_c, 4, 59, 100
6, 6450, Note_on_c, 4, 59, 0
6, 6450, Note_on_c, 4, 67, 0
6, 6450, Note_on_c, 4, 62, 0
6, 6450, Note_on_c, 4, 62, 100
6, 6450, Note_on_c, 4, 59, 100
6, 6450, Note_on_c, 4, 67, 100
6, 6480, Note_on_c, 4, 67, 0
6, 6480, Note_on_c, 4, 59, 0
6, 6480, Note_on_c, 4, 62, 0
6, 6480, Note_on_c, 4, 62, 100
6, 6480, Note_on_c, 4, 59, 100
6, 6480, Note_on_c, 4, 67, 100
6, 6515, Note_on_c, 4, 67, 0
6, 6515, Note_on_c, 4, 59, 0
6, 6515, Note_on_c, 4, 62, 0
6, 6540, Note_on_c, 4, 62, 100
6, 6540, Note_on_c, 4, 67, 100
6, 6540, Note_on_c, 4, 59, 100
6, 6570, Note_on_c, 4, 59, 0
6, 6570, Note_on_c, 4, 67, 0
6, 6570, Note_on_c, 4, 62, 0
6, 6570, Note_on_c, 4, 62, 100
6, 6570, Note_on_c, 4, 59, 100
6, 6570, Note_on_c, 4, 67, 100
6, 6600, Note_on_c, 4, 67, 0
6, 6600, Note_on_c, 4, 59, 0
6, 6600, Note_on_c, 4, 62, 0
6, 6600, Note_on_c, 4, 59, 100
6, 6600, Note_on_c, 4, 62, 100
6, 6600, Note_on_c, 4, 67, 100
6, 6635, Note_on_c, 4, 67, 0
6, 6635, Note_on_c, 4, 62, 0
6, 6635, Note_on_c, 4, 59, 0
6, 6660, Note_on_c, 4, 64, 100
6, 6660, Note_on_c, 4, 67, 100
6, 6660, Note_on_c, 4, 60, 100
6, 6690, Note_on_c, 4, 60, 0
6, 6690, Note_on_c, 4, 67, 0
6, 6690, Note_on_c, 4, 64, 0
6, 6690, Note_on_c, 4, 64, 100
6, 6690, Note_on_c, 4, 60, 100
6, 6690, Note_on_c, 4, 67, 100
6, 6720, Note_on_c, 4, 67, 0
6, 6720, Note_on_c, 4, 60, 0
6, 6720, Note_on_c, 4, 64, 0
6, 6720, Note_on_c, 4, 64, 100
6, 6720, Note_on_c, 4, 60, 100
6, 6720, Note_on_c, 4, 67, 100
6, 6755, Note_on_c, 4, 67, 0
6, 6755, Note_on_c, 4, 60, 0
6, 6755, Note_on_c, 4, 64, 0
6, 6780, Note_on_c, 4, 64, 100
6, 6780, Note_on_c, 4, 67, 100
6, 6780, Note_on_c, 4, 60, 100
6, 6810, Note_on_c, 4, 60, 0
6, 6810, Note_on_c, 4, 67, 0
6, 6810, Note_on_c, 4, 64, 0
6, 6810, Note_on_c, 4, 64, 100
6, 6810, Note_on_c, 4, 60, 100
6, 6810, Note_on_c, 4, 67, 100
6, 6840, Note_on_c, 4, 67, 0
6, 6840, Note_on_c, 4, 60, 0
6, 6840, Note_on_c, 4, 64, 0
6, 6840, Note_on_c, 4, 60, 100
6, 6840, Note_on_c, 4, 64, 100
6, 6840, Note_on_c, 4, 67, 100
6, 6875, Note_on_c, 4, 67, 0
6, 6875, Note_on_c, 4, 64, 0
6, 6875, Note_on_c, 4, 60, 0
6, 6900, Note_on_c, 4, 64, 100
6, 6900, Note_on_c, 4, 67, 100
6, 6900, Note_on_c, 4, 60, 100
6, 6930, Note_on_c, 4, 60, 0
6, 6930, Note_on_c, 4, 67, 0
6, 6930, Note_on_c, 4, 64, 0
6, 6930, Note_on_c, 4, 64, 100
6, 6930, Note_on_c, 4, 60, 100
6, 6930, Note_on_c, 4, 67, 100
6, 6960, Note_on_c, 4, 67, 0
6, 6960, Note_on_c, 4, 60, 0
6, 6960, Note_on_c, 4, 64, 0
6, 6960, Note_on_c, 4, 64, 100
6, 6960, Note_on_c, 4, 60, 100
6, 6960, Note_on_c, 4, 67, 100
6, 6995, Note_on_c, 4, 67, 0
6, 6995, Note_on_c, 4, 60, 0
6, 6995, Note_on_c, 4, 64, 0
6, 7020, Note_on_c, 4, 64, 100
6, 7020, Note_on_c, 4, 67, 100
6, 7020, Note_on_c, 4, 60, 100
6, 7050, Note_on_c, 4, 60, 0
6, 7050, Note_on_c, 4, 67, 0
6, 7050, Note_on_c, 4, 64, 0
6, 7050, Note_on_c, 4, 64, 100
6, 7050, Note_on_c, 4, 60, 100
6, 7050, Note_on_c, 4, 67, 100
6, 7080, Note_on_c, 4, 67, 0
6, 7080, Note_on_c, 4, 60, 0
6, 7080, Note_on_c, 4, 64, 0
6, 7080, Note_on_c, 4, 60, 100
6, 7080, Note_on_c, 4, 64, 100
6, 7080, Note_on_c, 4, 67, 100
6, 7115, Note_on_c, 4, 67, 0
6, 7115, Note_on_c, 4, 64, 0
6, 7115, Note_on_c, 4, 60, 0
6, 7140, Note_on_c, 4, 64, 100
6, 7140, Note_on_c, 4, 67, 100
6, 7140, Note_on_c, 4, 60, 100
6, 7170, Note_on_c, 4, 60, 0
6, 7170, Note_on_c, 4, 67, 0
6, 7170, Note_on_c, 4, 64, 0
6, 7170, Note_on_c, 4, 64, 100
6, 7170, Note_on_c, 4, 60, 100
6, 7170, Note_on_c, 4, 67, 100
6, 7200, Note_on_c, 4, 67, 0
6, 7200, Note_on_c, 4, 60, 0
6, 7200, Note_on_c, 4, 64, 0
6, 7200, Note_on_c, 4, 62, 100
6, 7200, Note_on_c, 4, 59, 100
6, 7200, Note_on_c, 4, 67, 100
6, 7235, Note_on_c, 4, 67, 0
6, 7235, Note_on_c, 4, 59, 0
6, 7235, Note_on_c, 4, 62, 0
6, 7260, Note_on_c, 4, 62, 100
6, 7260, Note_on_c, 4, 67, 100
6, 7260, Note_on_c, 4, 59, 100
6, 7290, Note_on_c, 4, 59, 0
6, 7290, Note_on_c, 4, 67, 0
6, 7290, Note_on_c, 4, 62, 0
6, 7290, Note_on_c, 4, 62, 100
6, 7290, Note_on_c, 4, 59, 100
6, 7290, Note_on_c, 4, 67, 100
6, 7320, Note_on_c, 4, 67, 0
6, 7320, Note_on_c, 4, 59, 0
6, 7320, Note_on_c, 4, 62, 0
6, 7320, Note_on_c, 4, 59, 100
6, 7320, Note_on_c, 4, 62, 100
6, 7320, Note_on_c, 4, 67, 100
6, 7355, Note_on_c, 4, 67, 0
6, 7355, Note_on_c, 4, 62, 0
6, 7355, Note_on_c, 4, 59, 0
6, 7380, Note_on_c, 4, 62, 100
6, 7380, Note_on_c, 4, 67, 100
6, 7380, Note_on_c, 4, 59, 100
6, 7410, Note_on_c, 4, 59, 0
6, 7410, Note_on_c, 4, 67, 0
6, 7410, Note_on_c, 4, 62, 0
6, 7410, Note_on_c, 4, 62, 100
6, 7410, Note_on_c, 4, 59, 100
6, 7410, Note_on_c, 4, 67, 100
6, 7440, Note_on_c, 4, 67, 0
6, 7440, Note_on_c, 4, 59, 0
6, 7440, Note_on_c, 4, 62, 0
6, 7440, Note_on_c, 4, 62, 100
6, 7440, Note_on_c, 4, 59, 100
6, 7440, Note_on_c, 4, 67, 100
6, 7475, Note_on_c, 4, 67, 0
6, 7475, Note_on_c, 4, 59, 0
6, 7475, Note_on_c, 4, 62, 0
6, 7500, Note_on_c, 4, 62, 100
6, 7500, Note_on_c, 4, 67, 100
6, 7500, Note_on_c, 4, 59, 100
6, 7530, Note_on_c, 4, 59, 0
6, 7530, Note_on_c, 4, 67, 0
6, 7530, Note_on_c, 4, 62, 0
6, 7530, Note_on_c, 4, 62, 100
6, 7530, Note_on_c, 4, 59, 100
6, 7530, Note_on_c, 4, 67, 100
6, 7560, Note_on_c, 4, 67, 0
6, 7560, Note_on_c, 4, 59, 0
6, 7560, Note_on_c, 4, 62, 0
6, 7560, Note_on_c, 4, 59, 100
6, 7560, Note_on_c, 4, 62, 100
6, 7560, Note_on_c, 4, 67, 100
6, 7595, Note_on_c, 4, 67, 0
6, 7595, Note_on_c, 4, 62, 0
6, 7595, Note_on_c, 4, 59, 0
6, 7620, Note_on_c, 4, 62, 100
6, 7620, Note_on_c, 4, 67, 100
6, 7620, Note_on_c, 4, 59, 100
6, 7650, Note_on_c, 4, 59, 0
6, 7650, Note_on_c, 4, 67, 0
6, 7650, Note_on_c, 4, 62, 0
6, 7650, Note_on_c, 4, 62, 100
6, 7650, Note_on_c, 4, 59, 100
6, 7650, Note_on_c, 4, 67, 100
6, 7680, Note_on_c, 4, 67, 0
6, 7680, Note_on_c, 4, 59, 0
6, 7680, Note_on_c, 4, 62, 0
6, 7680, Note_on_c, 4, 62, 100
6, 7680, Note_on_c, 4, 59, 100
6, 7680, Note_on_c, 4, 67, 100
6, 7715, Note_on_c, 4, 67, 0
6, 7715, Note_on_c, 4, 59, 0
6, 7715, Note_on_c, 4, 62, 0
6, 7740, Note_on_c, 4, 62, 100
6, 7740, Note_on_c, 4, 67, 100
6, 7740, Note_on_c, 4, 59, 100
6, 7770, Note_on_c, 4, 59, 0
6, 7770, Note_on_c, 4, 67, 0
6, 7770, Note_on_c, 4, 62, 0
6, 7770, Note_on_c, 4, 62, 100
6, 7770, Note_on_c, 4, 59, 100
6, 7770, Note_on_c, 4, 67, 100
6, 7800, Note_on_c, 4, 67, 0
6, 7800, Note_on_c, 4, 59, 0
6, 7800, Note_on_c, 4, 62, 0
6, 7800, Note_on_c, 4, 59, 100
6, 7800, Note_on_c, 4, 62, 100
6, 7800, Note_on_c, 4, 67, 100
6, 7835, Note_on_c, 4, 67, 0
6, 7835, Note_on_c, 4, 62, 0
6, 7835, Note_on_c, 4, 59, 0
6, 7860, Note_on_c, 4, 62, 100
6, 7860, Note_on_c, 4, 67, 100
6, 7860, Note_on_c, 4, 59, 100
6, 7890, Note_on_c, 4, 59, 0
6, 7890, Note_on_c, 4, 67, 0
6, 7890, Note_on_c, 4, 62, 0
6, 7890, Note_on_c, 4, 62, 100
6, 7890, Note_on_c, 4, 59, 100
6, 7890, Note_on_c, 4, 67, 100
6, 7920, Note_on_c, 4, 67, 0
6, 7920, Note_on_c, 4, 59, 0
6, 7920, Note_on_c, 4, 62, 0
6, 7920, Note_on_c, 4, 62, 100
6, 7920, Note_on_c, 4, 59, 100
6, 7920, Note_on_c, 4, 67, 100
6, 7955, Note_on_c, 4, 67, 0
6, 7955, Note_on_c, 4, 59, 0
6, 7955, Note_on_c, 4, 62, 0
6, 7980, Note_on_c, 4, 62, 100
6, 7980, Note_on_c, 4, 67, 100
6, 7980, Note_on_c, 4, 59, 100
6, 8010, Note_on_c, 4, 59, 0
6, 8010, Note_on_c, 4, 67, 0
6, 8010, Note_on_c, 4, 62, 0
6, 8010, Note_on_c, 4, 62, 100
6, 8010, Note_on_c, 4, 59, 100
6, 8010, Note_on_c, 4, 67, 100
6, 8040, Note_on_c, 4, 67, 0
6, 8040, Note_on_c, 4, 59, 0
6, 8040, Note_on_c, 4, 62, 0
6, 8040, Note_on_c, 4, 59, 100
6, 8040, Note_on_c, 4, 62, 100
6, 8040, Note_on_c, 4, 67, 100
6, 8075, Note_on_c, 4, 67, 0
6, 8075, Note_on_c, 4, 62, 0
6, 8075, Note_on_c, 4, 59, 0
6, 8100, Note_on_c, 4, 62, 100
6, 8100, Note_on_c, 4, 67, 100
6, 8100, Note_on_c, 4, 59, 100
6, 8130, Note_on_c, 4, 59, 0
6, 8130, Note_on_c, 4, 67, 0
6, 8130, Note_on_c, 4, 62, 0
6, 8130, Note_on_c, 4, 62, 100
6, 8130, Note_on_c, 4, 59, 100
6, 8130, Note_on_c, 4, 67, 100
6, 8160, Note_on_c, 4, 67, 0
6, 8160, Note_on_c, 4, 59, 0
6, 8160, Note_on_c, 4, 62, 0
6, 8160, Note_on_c, 4, 62, 100
6, 8160, Note_on_c, 4, 57, 100
6, 8160, Note_on_c, 4, 66, 100
6, 8195, Note_on_c, 4, 66, 0
6, 8195, Note_on_c, 4, 57, 0
6, 8195, Note_on_c, 4, 62, 0
6, 8220, Note_on_c, 4, 62, 100
6, 8220, Note_on_c, 4, 66, 100
6, 8220, Note_on_c, 4, 57, 100
6, 8250, Note_on_c, 4, 57, 0
6, 8250, Note_on_c, 4, 66, 0
6, 8250, Note_on_c, 4, 62, 0
6, 8250, Note_on_c, 4, 62, 100
6, 8250, Note_on_c, 4, 57, 100
6, 8250, Note_on_c, 4, 66, 100
6, 8280, Note_on_c, 4, 66, 0
6, 8280, Note_on_c, 4, 57, 0
6, 8280, Note_on_c, 4, 62, 0
6, 8280, Note_on_c, 4, 57, 100
6, 8280, Note_on_c, 4, 62, 100
6, 8280, Note_on_c, 4, 66, 100
6, 8315, Note_on_c, 4, 66, 0
6, 8315, Note_on_c, 4, 62, 0
6, 8315, Note_on_c, 4, 57, 0
6, 8340, Note_on_c, 4, 62, 100
6, 8340, Note_on_c, 4, 66, 100
6, 8340, Note_on_c, 4, 57, 100
6, 8370, Note_on_c, 4, 57, 0
6, 8370, Note_on_c, 4, 66, 0
6, 8370, Note_on_c, 4, 62, 0
6, 8370, Note_on_c, 4, 62, 100
6, 8370, Note_on_c, 4, 57, 100
6, 8370, Note_on_c, 4, 66, 100
6, 8400, Note_on_c, 4, 66, 0
6, 8400, Note_on_c, 4, 57, 0
6, 8400, Note_on_c, 4, 62, 0
6, 8400, Note_on_c, 4, 62, 100
6, 8400, Note_on_c, 4, 57, 100
6, 8400, Note_on_c, 4, 66, 100
6, 8435, Note_on_c, 4, 66, 0
6, 8435, Note_on_c, 4, 57, 0
6, 8435, Note_on_c, 4, 62, 0
6, 8460, Note_on_c, 4, 62, 100
6, 8460, Note_on_c, 4, 66, 100
6, 8460, Note_on_c, 4, 57, 100
6, 8490, Note_on_c, 4, 57, 0
6, 8490, Note_on_c, 4, 66, 0
6, 8490, Note_on_c, 4, 62, 0
6, 8490, Note_on_c, 4, 62, 100
6, 8490, Note_on_c, 4, 57, 100
6, 8490, Note_on_c, 4, 66, 100
6, 8520, Note_on_c, 4, 66, 0
6, 8520, Note_on_c, 4, 57, 0
6, 8520, Note_on_c, 4, 62, 0
6, 8520, Note_on_c, 4, 57, 100
6, 8520, Note_on_c, 4, 62, 100
6, 8520, Note_on_c, 4, 66, 100
6, 8555, Note_on_c, 4, 66, 0
6, 8555, Note_on_c, 4, 62, 0
6, 8555, Note_on_c, 4, 57, 0
6, 8580, Note_on_c, 4, 62, 100
6, 8580, Note_on_c, 4, 66, 100
6, 8580, Note_on_c, 4, 57, 100
6, 8610, Note_on_c, 4, 57, 0
6, 8610, Note_on_c, 4, 66, 0
6, 8610, Note_on_c, 4, 62, 0
6, 8610, Note_on_c, 4, 62, 100
6, 8610, Note_on_c, 4, 57, 100
6, 8610, Note_on_c, 4, 66, 100
6, 8640, Note_on_c, 4, 66, 0
6, 8640, Note_on_c, 4, 57, 0
6, 8640, Note_on_c, 4, 62, 0
6, 8640, Note_on_c, 4, 62, 100
6, 8640, Note_on_c, 4, 57, 100
6, 8640, Note_on_c, 4, 66, 100
6, 8675, Note_on_c, 4, 66, 0
6, 8675, Note_on_c, 4, 57, 0
6, 8675, Note_on_c, 4, 62, 0
6, 8700, Note_on_c, 4, 62, 100
6, 8700, Note_on_c, 4, 66, 100
6, 8700, Note_on_c, 4, 57, 100
6, 8730, Note_on_c, 4, 57, 0
6, 8730, Note_on_c, 4, 66, 0
6, 8730, Note_on_c, 4, 62, 0
6, 8730, Note_on_c, 4, 62, 100
6, 8730, Note_on_c, 4, 57, 100
6, 8730, Note_on_c, 4, 66, 100
6, 8760, Note_on_c, 4, 66, 0
6, 8760, Note_on_c, 4, 57, 0
6, 8760, Note_on_c, 4, 62, 0
6, 8760, Note_on_c, 4, 57, 100
6, 8760, Note_on_c, 4, 62, 100
6, 8760, Note_on_c, 4, 66, 100
6, 8795, Note_on_c, 4, 66, 0
6, 8795, Note_on_c, 4, 62, 0
6, 8795, Note_on_c, 4, 57, 0
6, 8820, Note_on_c, 4, 62, 100
6, 8820, Note_on_c, 4, 66, 100
6, 8820, Note_on_c, 4, 57, 100
6, 8850, Note_on_c, 4, 57, 0
6, 8850, Note_on_c, 4, 66, 0
6, 8850, Note_on_c, 4, 62, 0
6, 8850, Note_on_c, 4, 62, 100
6, 8850, Note_on_c, 4, 57, 100
6, 8850, Note_on_c, 4, 66, 100
6, 8880, Note_on_c, 4, 66, 0
6, 8880, Note_on_c, 4, 57, 0
6, 8880, Note_on_c, 4, 62, 0
6, 8880, Note_on_c, 4, 62, 100
6, 8880, Note_on_c, 4, 57, 100
6, 8880, Note_on_c, 4, 66, 100
6, 8915, Note_on_c, 4, 66, 0
6, 8915, Note_on_c, 4, 57, 0
6, 8915, Note_on_c, 4, 62, 0
6, 8940, Note_on_c, 4, 62, 100
6, 8940, Note_on_c, 4, 66, 100
6, 8940, Note_on_c, 4, 57, 100
6, 8970, Note_on_c, 4, 57, 0
6, 8970, Note_on_c, 4, 66, 0
6, 8970, Note_on_c, 4, 62, 0
6, 8970, Note_on_c, 4, 62, 100
6, 8970, Note_on_c, 4, 57, 100
6, 8970, Note_on_c, 4, 66, 100
6, 9000, Note_on_c, 4, 66, 0
6, 9000, Note_on_c, 4, 57, 0
6, 9000, Note_on_c, 4, 62, 0
6, 9000, Note_on_c, 4, 57, 100
6, 9000, Note_on_c, 4, 62, 100
6, 9000, Note_on_c, 4, 66, 100
6, 9035, Note_on_c, 4, 66, 0
6, 9035, Note_on_c, 4, 62, 0
6, 9035, Note_on_c, 4, 57, 0
6, 9060, Note_on_c, 4, 62, 100
6, 9060, Note_on_c, 4, 66, 100
6, 9060, Note_on_c, 4, 57, 100
6, 9090, Note_on_c, 4, 57, 0
6, 9090, Note_on_c, 4, 66, 0
6, 9090, Note_on_c, 4, 62, 0
6, 9090, Note_on_c, 4, 62, 100
6, 9090, Note_on_c, 4, 57, 100
6, 9090, Note_on_c, 4, 66, 100
6, 9120, Note_on_c, 4, 66, 0
6, 9120, Note_on_c, 4, 57, 0
6, 9120, Note_on_c, 4, 62, 0
6, 9120, Note_on_c, 4, 60, 100
6, 9120, Note_on_c, 4, 55, 100
6, 9120, Note_on_c, 4, 64, 100
6, 9155, Note_on_c, 4, 64, 0
6, 9155, Note_on_c, 4, 55, 0
6, 9155, Note_on_c, 4, 60, 0
6, 9180, Note_on_c, 4, 60, 100
6, 9180, Note_on_c, 4, 64, 100
6, 9180, Note_on_c, 4, 55, 100
6, 9210, Note_on_c, 4, 55, 0
6, 9210, Note_on_c, 4, 64, 0
6, 9210, Note_on_c, 4, 60, 0
6, 9210, Note_on_c, 4, 60, 100
6, 9210, Note_on_c, 4, 55, 100
6, 9210, Note_on_c, 4, 64, 100
6, 9240, Note_on_c, 4, 64, 0
6, 9240, Note_on_c, 4, 55, 0
6, 9240, Note_on_c, 4, 60, 0
6, 9240, Note_on_c, 4, 55, 100
6, 9240, Note_on_c, 4, 60, 100
6, 9240, Note_on_c, 4, 64, 100
6, 9275, Note_on_c, 4, 64, 0
6, 9275, Note_on_c, 4, 60, 0
6, 9275, Note_on_c, 4, 55, 0
6, 9300, Note_on_c, 4, 60, 100
6, 9300, Note_on_c, 4, 64, 100
6, 9300, Note_on_c, 4, 55, 100
6, 9330, Note_on_c, 4, 55, 0
6, 9330, Note_on_c, 4, 64, 0
6, 9330, Note_on_c, 4, 60, 0
6, 9330, Note_on_c, 4, 60, 100
6, 9330, Note_on_c, 4, 55, 100
6, 9330, Note_on_c, 4, 64, 100
6, 9360, Note_on_c, 4, 64, 0
6, 9360, Note_on_c, 4, 55, 0
6, 9360, Note_on_c, 4, 60, 0
6, 9360, Note_on_c, 4, 60, 100
6, 9360, Note_on_c, 4, 55, 100
6, 9360, Note_on_c, 4, 64, 100
6, 9395, Note_on_c, 4, 64, 0
6, 9395, Note_on_c, 4, 55, 0
6, 9395, Note_on_c, 4, 60, 0
6, 9420, Note_on_c, 4, 60, 100
6, 9420, Note_on_c, 4, 64, 100
6, 9420, Note_on_c, 4, 55, 100
6, 9450, Note_on_c, 4, 55, 0
6, 9450, Note_on_c, 4, 64, 0
6, 9450, Note_on_c, 4, 60, 0
6, 9450, Note_on_c, 4, 60, 100
6, 9450, Note_on_c, 4, 55, 100
6, 9450, Note_on_c, 4, 64, 100
6, 9480, Note_on_c, 4, 64, 0
6, 9480, Note_on_c, 4, 55, 0
6, 9480, Note_on_c, 4, 60, 0
6, 9480, Note_on_c, 4, 55, 100
6, 9480, Note_on_c, 4, 60, 100
6, 9480, Note_on_c, 4, 64, 100
6, 9515, Note_on_c, 4, 64, 0
6, 9515, Note_on_c, 4, 60, 0
6, 9515, Note_on_c, 4, 55, 0
6, 9540, Note_on_c, 4, 60, 100
6, 9540, Note_on_c, 4, 64, 100
6, 9540, Note_on_c, 4, 55, 100
6, 9570, Note_on_c, 4, 55, 0
6, 9570, Note_on_c, 4, 64, 0
6, 9570, Note_on_c, 4, 60, 0
6, 9570, Note_on_c, 4, 60, 100
6, 9570, Note_on_c, 4, 55, 100
6, 9570, Note_on_c, 4, 64, 100
6, 9600, Note_on_c, 4, 64, 0
6, 9600, Note_on_c, 4, 55, 0
6, 9600, Note_on_c, 4, 60, 0
6, 9600, Note_on_c, 4, 60, 100
6, 9600, Note_on_c, 4, 55, 100
6, 9600, Note_on_c, 4, 64, 100
6, 9635, Note_on_c, 4, 64, 0
6, 9635, Note_on_c, 4, 55, 0
6, 9635, Note_on_c, 4, 60, 0
6, 9660, Note_on_c, 4, 60, 100
6, 9660, Note_on_c, 4, 64, 100
6, 9660, Note_on_c, 4, 55, 100
6, 9690, Note_on_c, 4, 55, 0
6, 9690, Note_on_c, 4, 64, 0
6, 9690, Note_on_c, 4, 60, 0
6, 9690, Note_on_c, 4, 60, 100
6, 9690, Note_on_c, 4, 55, 100
6, 9690, Note_on_c, 4, 64, 100
6, 9720, Note_on_c, 4, 64, 0
6, 9720, Note_on_c, 4, 55, 0
6, 9720, Note_on_c, 4, 60, 0
6, 9720, Note_on_c, 4, 55, 100
6, 9720, Note_on_c, 4, 60, 100
6, 9720, Note_on_c, 4, 64, 100
6, 9755, Note_on_c, 4, 64, 0
6, 9755, Note_on_c, 4, 60, 0
6, 9755, Note_on_c, 4, 55, 0
6, 9780, Note_on_c, 4, 60, 100
6, 9780, Note_on_c, 4, 64, 100
6, 9780, Note_on_c, 4, 55, 100
6, 9810, Note_on_c, 4, 55, 0
6, 9810, Note_on_c, 4, 64, 0
6, 9810, Note_on_c, 4, 60, 0
6, 9810, Note_on_c, 4, 60, 100
6, 9810, Note_on_c, 4, 55, 100
6, 9810, Note_on_c, 4, 64, 100
6, 9840, Note_on_c, 4, 64, 0
6, 9840, Note_on_c, 4, 55, 0
6, 9840, Note_on_c, 4, 60, 0
6, 9840, Note_on_c, 4, 60, 100
6, 9840, Note_on_c, 4, 55, 100
6, 9840, Note_on_c, 4, 64, 100
6, 9875, Note_on_c, 4, 64, 0
6, 9875, Note_on_c, 4, 55, 0
6, 9875, Note_on_c, 4, 60, 0
6, 9900, Note_on_c, 4, 60, 100
6, 9900, Note_on_c, 4, 64, 100
6, 9900, Note_on_c, 4, 55, 100
6, 9930, Note_on_c, 4, 55, 0
6, 9930, Note_on_c, 4, 64, 0
6, 9930, Note_on_c, 4, 60, 0
6, 9930, Note_on_c, 4, 60, 100
6, 9930, Note_on_c, 4, 55, 100
6, 9930, Note_on_c, 4, 64, 100
6, 9960, Note_on_c, 4, 64, 0
6, 9960, Note_on_c, 4, 55, 0
6, 9960, Note_on_c, 4, 60, 0
6, 9960, Note_on_c, 4, 55, 100
6, 9960, Note_on_c, 4, 60, 100
6, 9960, Note_on_c, 4, 64, 100
6, 9995, Note_on_c, 4, 64, 0
6, 9995, Note_on_c, 4, 60, 0
6, 9995, Note_on_c, 4, 55, 0
6, 10020, Note_on_c, 4, 60, 100
6, 10020, Note_on_c, 4, 64, 100
6, 10020, Note_on_c, 4, 55, 100
6, 10050, Note_on_c, 4, 55, 0
6, 10050, Note_on_c, 4, 64, 0
6, 10050, Note_on_c, 4, 60, 0
6, 10050, Note_on_c, 4, 60, 100
6, 10050, Note_on_c, 4, 55, 100
6, 10050, Note_on_c, 4, 64, 100
6, 10080, Note_on_c, 4, 64, 0
6, 10080, Note_on_c, 4, 55, 0
6, 10080, Note_on_c, 4, 60, 0
6, 10080, Note_on_c, 4, 62, 100
6, 10080, Note_on_c, 4, 59, 100
6, 10080, Note_on_c, 4, 67, 100
6, 10115, Note_on_c, 4, 67, 0
6, 10115, Note_on_c, 4, 59, 0
6, 10115, Note_on_c, 4, 62, 0
6, 10140, Note_on_c, 4, 62, 100
6, 10140, Note_on_c, 4, 67, 100
6, 10140, Note_on_c, 4, 59, 100
6, 10170, Note_on_c, 4, 59, 0
6, 10170, Note_on_c, 4, 67, 0
6, 10170, Note_on_c, 4, 62, 0
6, 10170, Note_on_c, 4, 62, 100
6, 10170, Note_on_c, 4, 59, 100
6, 10170, Note_on_c, 4, 67, 100
6, 10200, Note_on_c, 4, 67, 0
6, 10200, Note_on_c, 4, 59, 0
6, 10200, Note_on_c, 4, 62, 0
6, 10200, Note_on_c, 4, 59, 100
6, 10200, Note_on_c, 4, 62, 100
6, 10200, Note_on_c, 4, 67, 100
6, 10235, Note_on_c, 4, 67, 0
6, 10235, Note_on_c, 4, 62, 0
6, 10235, Note_on_c, 4, 59, 0
6, 10260, Note_on_c, 4, 62, 100
6, 10260, Note_on_c, 4, 67, 100
6, 10260, Note_on_c, 4, 59, 100
6, 10290, Note_on_c, 4, 59, 0
6, 10290, Note_on_c, 4, 67, 0
6, 10290, Note_on_c, 4, 62, 0
6, 10290, Note_on_c, 4, 62, 100
6, 10290, Note_on_c, 4, 59, 100
6, 10290, Note_on_c, 4, 67, 100
6, 10320, Note_on_c, 4, 67, 0
6, 10320, Note_on_c, 4, 59, 0
6, 10320, Note_on_c, 4, 62, 0
6, 10320, Note_on_c, 4, 62, 100
6, 10320, Note_on_c, 4, 59, 100
6, 10320, Note_on_c, 4, 67, 100
6, 10355, Note_on_c, 4, 67, 0
6, 10355, Note_on_c, 4, 59, 0
6, 10355, Note_on_c, 4, 62, 0
6, 10380, Note_on_c, 4, 62, 100
6, 10380, Note_on_c, 4, 67, 100
6, 10380, Note_on_c, 4, 59, 100
6, 10410, Note_on_c, 4, 59, 0
6, 10410, Note_on_c, 4, 67, 0
6, 10410, Note_on_c, 4, 62, 0
6, 10410, Note_on_c, 4, 62, 100
6, 10410, Note_on_c, 4, 59, 100
6, 10410, Note_on_c, 4, 67, 100
6, 10440, Note_on_c, 4, 67, 0
6, 10440, Note_on_c, 4, 59, 0
6, 10440, Note_on_c, 4, 62, 0
6, 10440, Note_on_c, 4, 59, 100
6, 10440, Note_on_c, 4, 62, 100
6, 10440, Note_on_c, 4, 67, 100
6, 10475, Note_on_c, 4, 67, 0
6, 10475, Note_on_c, 4, 62, 0
6, 10475, Note_on_c, 4, 59, 0
6, 10500, Note_on_c, 4, 64, 100
6, 10500, Note_on_c, 4, 67, 100
6, 10500, Note_on_c, 4, 60, 100
6, 10530, Note_on_c, 4, 60, 0
6, 10530, Note_on_c, 4, 67, 0
6, 10530, Note_on_c, 4, 64, 0
6, 10530, Note_on_c, 4, 64, 100
6, 10530, Note_on_c, 4, 60, 100
6, 10530, Note_on_c, 4, 67, 100
6, 10560, Note_on_c, 4, 67, 0
6, 10560, Note_on_c, 4, 60, 0
6, 10560, Note_on_c, 4, 64, 0
6, 10560, Note_on_c, 4, 64, 100
6, 10560, Note_on_c, 4, 60, 100
6, 10560, Note_on_c, 4, 67, 100
6, 10595, Note_on_c, 4, 67, 0
6, 10595, Note_on_c, 4, 60, 0
6, 10595, Note_on_c, 4, 64, 0
6, 10620, Note_on_c, 4, 62, 100
6, 10620, Note_on_c, 4, 67, 100
6, 10620, Note_on_c, 4, 59, 100
6, 10650, Note_on_c, 4, 59, 0
6, 10650, Note_on_c, 4, 67, 0
6, 10650, Note_on_c, 4, 62, 0
6, 10650, Note_on_c, 4, 62, 100
6, 10650, Note_on_c, 4, 59, 100
6, 10650, Note_on_c, 4, 67, 100
6, 10680, Note_on_c, 4, 67, 0
6, 10680, Note_on_c, 4, 59, 0
6, 10680, Note_on_c, 4, 62, 0
6, 10680, Note_on_c, 4, 59, 100
6, 10680, Note_on_c, 4, 62, 100
6, 10680, Note_on_c, 4, 67, 100
6, 10715, Note_on_c, 4, 67, 0
6, 10715, Note_on_c, 4, 62, 0
6, 10715, Note_on_c, 4, 59, 0
6, 10740, Note_on_c, 4, 64, 100
6, 10740, Note_on_c, 4, 67, 100
6, 10740, Note_on_c, 4, 60, 100
6, 10770, Note_on_c, 4, 60, 0
6, 10770, Note_on_c, 4, 67, 0
6, 10770, Note_on_c, 4, 64, 0
6, 10770, Note_on_c, 4, 64, 100
6, 10770, Note_on_c, 4, 60, 100
6, 10770, Note_on_c, 4, 67, 100
6, 10800, Note_on_c, 4, 67, 0
6, 10800, Note_on_c, 4, 60, 0
6, 10800, Note_on_c, 4, 64, 0
6, 10800, Note_on_c, 4, 64, 100
6, 10800, Note_on_c, 4, 60, 100
6, 10800, Note_on_c, 4, 67, 100
6, 10835, Note_on_c, 4, 67, 0
6, 10835, Note_on_c, 4, 60, 0
6, 10835, Note_on_c, 4, 64, 0
6, 10860, Note_on_c, 4, 64, 100
6, 10860, Note_on_c, 4, 67, 100
6, 10860, Note_on_c, 4, 60, 100
6, 10890, Note_on_c, 4, 60, 0
6, 10890, Note_on_c, 4, 67, 0
6, 10890, Note_on_c, 4, 64, 0
6, 10890, Note_on_c, 4, 64, 100
6, 10890, Note_on_c, 4, 60, 100
6, 10890, Note_on_c, 4, 67, 100
6, 10920, Note_on_c, 4, 67, 0
6, 10920, Note_on_c, 4, 60, 0
6, 10920, Note_on_c, 4, 64, 0
6, 10920, Note_on_c, 4, 60, 100
6, 10920, Note_on_c, 4, 64, 100
6, 10920, Note_on_c, 4, 67, 100
6, 10955, Note_on_c, 4, 67, 0
6, 10955, Note_on_c, 4, 64, 0
6, 10955, Note_on_c, 4, 60, 0
6, 10980, Note_on_c, 4, 64, 100
6, 10980, Note_on_c, 4, 67, 100
6, 10980, Note_on_c, 4, 60, 100
6, 11010, Note_on_c, 4, 60, 0
6, 11010, Note_on_c, 4, 67, 0
6, 11010, Note_on_c, 4, 64, 0
6, 11010, Note_on_c, 4, 64, 100
6, 11010, Note_on_c, 4, 60, 100
6, 11010, Note_on_c, 4, 67, 100
6, 11040, Note_on_c, 4, 67, 0
6, 11040, Note_on_c, 4, 60, 0
6, 11040, Note_on_c, 4, 64, 0
6, 11040, Note_on_c, 4, 62, 100
6, 11040, Note_on_c, 4, 59, 100
6, 11040, Note_on_c, 4, 67, 100
6, 11075, Note_on_c, 4, 67, 0
6, 11075, Note_on_c, 4, 59, 0
6, 11075, Note_on_c, 4, 62, 0
6, 11100, Note_on_c, 4, 62, 100
6, 11100, Note_on_c, 4, 67, 100
6, 11100, Note_on_c, 4, 59, 100
6, 11130, Note_on_c, 4, 59, 0
6, 11130, Note_on_c, 4, 67, 0
6, 11130, Note_on_c, 4, 62, 0
6, 11130, Note_on_c, 4, 62, 100
6, 11130, Note_on_c, 4, 59, 100
6, 11130, Note_on_c, 4, 67, 100
6, 11160, Note_on_c, 4, 67, 0
6, 11160, Note_on_c, 4, 59, 0
6, 11160, Note_on_c, 4, 62, 0
6, 11160, Note_on_c, 4, 59, 100
6, 11160, Note_on_c, 4, 62, 100
6, 11160, Note_on_c, 4, 67, 100
6, 11195, Note_on_c, 4, 67, 0
6, 11195, Note_on_c, 4, 62, 0
6, 11195, Note_on_c, 4, 59, 0
6, 11220, Note_on_c, 4, 62, 100
6, 11220, Note_on_c, 4, 67, 100
6, 11220, Note_on_c, 4, 59, 100
6, 11250, Note_on_c, 4, 59, 0
6, 11250, Note_on_c, 4, 67, 0
6, 11250, Note_on_c, 4, 62, 0
6, 11250, Note_on_c, 4, 62, 100
6, 11250, Note_on_c, 4, 59, 100
6, 11250, Note_on_c, 4, 67, 100
6, 11280, Note_on_c, 4, 67, 0
6, 11280, Note_on_c, 4, 59, 0
6, 11280, Note_on_c, 4, 62, 0
6, 11280, Note_on_c, 4, 62, 100
6, 11280, Note_on_c, 4, 59, 100
6, 11280, Note_on_c, 4, 67, 100
6, 11315, Note_on_c, 4, 67, 0
6, 11315, Note_on_c, 4, 59, 0
6, 11315, Note_on_c, 4, 62, 0
6, 11340, Note_on_c, 4, 62, 100
6, 11340, Note_on_c, 4, 67, 100
6, 11340, Note_on_c, 4, 59, 100
6, 11370, Note_on_c, 4, 59, 0
6, 11370, Note_on_c, 4, 67, 0
6, 11370, Note_on_c, 4, 62, 0
6, 11370, Note_on_c, 4, 62, 100
6, 11370, Note_on_c, 4, 59, 100
6, 11370, Note_on_c, 4, 67, 100
6, 11400, Note_on_c, 4, 67, 0
6, 11400, Note_on_c, 4, 59, 0
6, 11400, Note_on_c, 4, 62, 0
6, 11400, Note_on_c, 4, 59, 100
6, 11400, Note_on_c, 4, 62, 100
6, 11400, Note_on_c, 4, 67, 100
6, 11435, Note_on_c, 4, 67, 0
6, 11435, Note_on_c, 4, 62, 0
6, 11435, Note_on_c, 4, 59, 0
6, 11460, Note_on_c, 4, 64, 100
6, 11460, Note_on_c, 4, 67, 100
6, 11460, Note_on_c, 4, 60, 100
6, 11490, Note_on_c, 4, 60, 0
6, 11490, Note_on_c, 4, 67, 0
6, 11490, Note_on_c, 4, 64, 0
6, 11490, Note_on_c, 4, 64, 100
6, 11490, Note_on_c, 4, 60, 100
6, 11490, Note_on_c, 4, 67, 100
6, 11520, Note_on_c, 4, 67, 0
6, 11520, Note_on_c, 4, 60, 0
6, 11520, Note_on_c, 4, 64, 0
6, 11520, Note_on_c, 4, 64, 100
6, 11520, Note_on_c, 4, 60, 100
6, 11520, Note_on_c, 4, 67, 100
6, 11555, Note_on_c, 4, 67, 0
6, 11555, Note_on_c, 4, 60, 0
6, 11555, Note_on_c, 4, 64, 0
6, 11580, Note_on_c, 4, 64, 100
6, 11580, Note_on_c, 4, 67, 100
6, 11580, Note_on_c, 4, 60, 100
6, 11610, Note_on_c, 4, 60, 0
6, 11610, Note_on_c, 4, 67, 0
6, 11610, Note_on_c, 4, 64, 0
6, 11610, Note_on_c, 4, 64, 100
6, 11610, Note_on_c, 4, 60, 100
6, 11610, Note_on_c, 4, 67, 100
6, 11640, Note_on_c, 4, 67, 0
6, 11640, Note_on_c, 4, 60, 0
6, 11640, Note_on_c, 4, 64, 0
6, 11640, Note_on_c, 4, 60, 100
6, 11640, Note_on_c, 4, 64, 100
6, 11640, Note_on_c, 4, 67, 100
6, 11675, Note_on_c, 4, 67, 0
6, 11675, Note_on_c, 4, 64, 0
6, 11675, Note_on_c, 4, 60, 0
6, 11700, Note_on_c, 4, 64, 100
6, 11700, Note_on_c, 4, 67, 100
6, 11700, Note_on_c, 4, 60, 100
6, 11730, Note_on_c, 4, 60, 0
6, 11730, Note_on_c, 4, 67, 0
6, 11730, Note_on_c, 4, 64, 0
6, 11730, Note_on_c, 4, 64, 100
6, 11730, Note_on_c, 4, 60, 100
6, 11730, Note_on_c, 4, 67, 100
6, 11760, Note_on_c, 4, 67, 0
6, 11760, Note_on_c, 4, 60, 0
6, 11760, Note_on_c, 4, 64, 0
6, 11760, Note_on_c, 4, 64, 100
6, 11760, Note_on_c, 4, 60, 100
6, 11760, Note_on_c, 4, 67, 100
6, 11795, Note_on_c, 4, 67, 0
6, 11795, Note_on_c, 4, 60, 0
6, 11795, Note_on_c, 4, 64, 0
6, 11820, Note_on_c, 4, 64, 100
6, 11820, Note_on_c, 4, 67, 100
6, 11820, Note_on_c, 4, 60, 100
6, 11850, Note_on_c, 4, 60, 0
6, 11850, Note_on_c, 4, 67, 0
6, 11850, Note_on_c, 4, 64, 0
6, 11850, Note_on_c, 4, 64, 100
6, 11850, Note_on_c, 4, 60, 100
6, 11850, Note_on_c, 4, 67, 100
6, 11880, Note_on_c, 4, 67, 0
6, 11880, Note_on_c, 4, 60, 0
6, 11880, Note_on_c, 4, 64, 0
6, 11880, Note_on_c, 4, 60, 100
6, 11880, Note_on_c, 4, 64, 100
6, 11880, Note_on_c, 4, 67, 100
6, 11915, Note_on_c, 4, 67, 0
6, 11915, Note_on_c, 4, 64, 0
6, 11915, Note_on_c, 4, 60, 0
6, 11940, Note_on_c, 4, 64, 100
6, 11940, Note_on_c, 4, 67, 100
6, 11940, Note_on_c, 4, 60, 100
6, 11970, Note_on_c, 4, 60, 0
6, 11970, Note_on_c, 4, 67, 0
6, 11970, Note_on_c, 4, 64, 0
6, 11970, Note_on_c, 4, 64, 100
6, 11970, Note_on_c, 4, 60, 100
6, 11970, Note_on_c, 4, 67, 100
6, 12000, Note_on_c, 4, 67, 0
6, 12000, Note_on_c, 4, 60, 0
6, 12000, Note_on_c, 4, 64, 0
6, 12000, Note_on_c, 4, 62, 100
6, 12000, Note_on_c, 4, 59, 100
6, 12000, Note_on_c, 4, 67, 100
6, 12035, Note_on_c, 4, 67, 0
6, 12035, Note_on_c, 4, 59, 0
6, 12035, Note_on_c, 4, 62, 0
6, 12060, Note_on_c, 4, 62, 100
6, 12060, Note_on_c, 4, 67, 100
6, 12060, Note_on_c, 4, 59, 100
6, 12090, Note_on_c, 4, 59, 0
6, 12090, Note_on_c, 4, 67, 0
6, 12090, Note_on_c, 4, 62, 0
6, 12090, Note_on_c, 4, 62, 100
6, 12090, Note_on_c, 4, 59, 100
6, 12090, Note_on_c, 4, 67, 100
6, 12120, Note_on_c, 4, 67, 0
6, 12120, Note_on_c, 4, 59, 0
6, 12120, Note_on_c, 4, 62, 0
6, 12120, Note_on_c, 4, 59, 100
6, 12120, Note_on_c, 4, 62, 100
6, 12120, Note_on_c, 4, 67, 100
6, 12155, Note_on_c, 4, 67, 0
6, 12155, Note_on_c, 4, 62, 0
6, 12155, Note_on_c, 4, 59, 0
6, 12180, Note_on_c, 4, 62, 100
6, 12180, Note_on_c, 4, 67, 100
6, 12180, Note_on_c, 4, 59, 100
6, 12210, Note_on_c, 4, 59, 0
6, 12210, Note_on_c, 4, 67, 0
6, 12210, Note_on_c, 4, 62, 0
6, 12210, Note_on_c, 4, 62, 100
6, 12210, Note_on_c, 4, 59, 100
6, 12210, Note_on_c, 4, 67, 100
6, 12240, Note_on_c, 4, 67, 0
6, 12240, Note_on_c, 4, 59, 0
6, 12240, Note_on_c, 4, 62, 0
6, 12240, Note_on_c, 4, 62, 100
6, 12240, Note_on_c, 4, 59, 100
6, 12240, Note_on_c, 4, 67, 100
6, 12275, Note_on_c, 4, 67, 0
6, 12275, Note_on_c, 4, 59, 0
6, 12275, Note_on_c, 4, 62, 0
6, 12300, Note_on_c, 4, 62, 100
6, 12300, Note_on_c, 4, 67, 100
6, 12300, Note_on_c, 4, 59, 100
6, 12330, Note_on_c, 4, 59, 0
6, 12330, Note_on_c, 4, 67, 0
6, 12330, Note_on_c, 4, 62, 0
6, 12330, Note_on_c, 4, 62, 100
6, 12330, Note_on_c, 4, 59, 100
6, 12330, Note_on_c, 4, 67, 100
6, 12360, Note_on_c, 4, 67, 0
6, 12360, Note_on_c, 4, 59, 0
6, 12360, Note_on_c, 4, 62, 0
6, 12360, Note_on_c, 4, 59, 100
6, 12360, Note_on_c, 4, 62, 100
6, 12360, Note_on_c, 4, 67, 100
6, 12395, Note_on_c, 4, 67, 0
6, 12395, Note_on_c, 4, 62, 0
6, 12395, Note_on_c, 4, 59, 0
6, 12420, Note_on_c, 4, 62, 100
6, 12420, Note_on_c, 4, 67, 100
6, 12420, Note_on_c, 4, 59, 100
6, 12450, Note_on_c, 4, 59, 0
6, 12450, Note_on_c, 4, 67, 0
6, 12450, Note_on_c, 4, 62, 0
6, 12450, Note_on_c, 4, 62, 100
6, 12450, Note_on_c, 4, 59, 100
6, 12450, Note_on_c, 4, 67, 100
6, 12480, Note_on_c, 4, 67, 0
6, 12480, Note_on_c, 4, 59, 0
6, 12480, Note_on_c, 4, 62, 0
6, 12480, Note_on_c, 4, 62, 100
6, 12480, Note_on_c, 4, 59, 100
6, 12480, Note_on_c, 4, 67, 100
6, 12515, Note_on_c, 4, 67, 0
6, 12515, Note_on_c, 4, 59, 0
6, 12515, Note_on_c, 4, 62, 0
6, 12540, Note_on_c, 4, 62, 100
6, 12540, Note_on_c, 4, 67, 100
6, 12540, Note_on_c, 4, 59, 100
6, 12570, Note_on_c, 4, 59, 0
6, 12570, Note_on_c, 4, 67, 0
6, 12570, Note_on_c, 4, 62, 0
6, 12570, Note_on_c, 4, 62, 100
6, 12570, Note_on_c, 4, 59, 100
6, 12570, Note_on_c, 4, 67, 100
6, 12600, Note_on_c, 4, 67, 0
6, 12600, Note_on_c, 4, 59, 0
6, 12600, Note_on_c, 4, 62, 0
6, 12600, Note_on_c, 4, 59, 100
6, 12600, Note_on_c, 4, 62, 100
6, 12600, Note_on_c, 4, 67, 100
6, 12635, Note_on_c, 4, 67, 0
6, 12635, Note_on_c, 4, 62, 0
6, 12635, Note_on_c, 4, 59, 0
6, 12660, Note_on_c, 4, 62, 100
6, 12660, Note_on_c, 4, 67, 100
6, 12660, Note_on_c, 4, 59, 100
6, 12690, Note_on_c, 4, 59, 0
6, 12690, Note_on_c, 4, 67, 0
6, 12690, Note_on_c, 4, 62, 0
6, 12690, Note_on_c, 4, 62, 100
6, 12690, Note_on_c, 4, 59, 100
6, 12690, Note_on_c, 4, 67, 100
6, 12720, Note_on_c, 4, 67, 0
6, 12720, Note_on_c, 4, 59, 0
6, 12720, Note_on_c, 4, 62, 0
6, 12720, Note_on_c, 4, 62, 100
6, 12720, Note_on_c, 4, 59, 100
6, 12720, Note_on_c, 4, 67, 100
6, 12755, Note_on_c, 4, 67, 0
6, 12755, Note_on_c, 4, 59, 0
6, 12755, Note_on_c, 4, 62, 0
6, 12780, Note_on_c, 4, 62, 100
6, 12780, Note_on_c, 4, 67, 100
6, 12780, Note_on_c, 4, 59, 100
6, 12810, Note_on_c, 4, 59, 0
6, 12810, Note_on_c, 4, 67, 0
6, 12810, Note_on_c, 4, 62, 0
6, 12810, Note_on_c, 4, 62, 100
6, 12810, Note_on_c, 4, 59, 100
6, 12810, Note_on_c, 4, 67, 100
6, 12840, Note_on_c, 4, 67, 0
6, 12840, Note_on_c, 4, 59, 0
6, 12840, Note_on_c, 4, 62, 0
6, 12840, Note_on_c, 4, 59, 100
6, 12840, Note_on_c, 4, 62, 100
6, 12840, Note_on_c, 4, 67, 100
6, 12875, Note_on_c, 4, 67, 0
6, 12875, Note_on_c, 4, 62, 0
6, 12875, Note_on_c, 4, 59, 0
6, 12900, Note_on_c, 4, 62, 100
6, 12900, Note_on_c, 4, 67, 100
6, 12900, Note_on_c, 4, 59, 100
6, 12930, Note_on_c, 4, 59, 0
6, 12930, Note_on_c, 4, 67, 0
6, 12930, Note_on_c, 4, 62, 0
6, 12930, Note_on_c, 4, 62, 100
6, 12930, Note_on_c, 4, 59, 100
6, 12930, Note_on_c, 4, 67, 100
6, 12960, Note_on_c, 4, 67, 0
6, 12960, Note_on_c, 4, 59, 0
6, 12960, Note_on_c, 4, 62, 0
6, 12960, Note_on_c, 4, 62, 100
6, 12960, Note_on_c, 4, 57, 100
6, 12960, Note_on_c, 4, 66, 100
6, 12995, Note_on_c, 4, 66, 0
6, 12995, Note_on_c, 4, 57, 0
6, 12995, Note_on_c, 4, 62, 0
6, 13020, Note_on_c, 4, 62, 100
6, 13020, Note_on_c, 4, 66, 100
6, 13020, Note_on_c, 4, 57, 100
6, 13050, Note_on_c, 4, 57, 0
6, 13050, Note_on_c, 4, 66, 0
6, 13050, Note_on_c, 4, 62, 0
6, 13050, Note_on_c, 4, 62, 100
6, 13050, Note_on_c, 4, 57, 100
6, 13050, Note_on_c, 4, 66, 100
6, 13080, Note_on_c, 4, 66, 0
6, 13080, Note_on_c, 4, 57, 0
6, 13080, Note_on_c, 4, 62, 0
6, 13080, Note_on_c, 4, 57, 100
6, 13080, Note_on_c, 4, 62, 100
6, 13080, Note_on_c, 4, 66, 100
6, 13115, Note_on_c, 4, 66, 0
6, 13115, Note_on_c, 4, 62, 0
6, 13115, Note_on_c, 4, 57, 0
6, 13140, Note_on_c, 4, 62, 100
6, 13140, Note_on_c, 4, 66, 100
6, 13140, Note_on_c, 4, 57, 100
6, 13170, Note_on_c, 4, 57, 0
6, 13170, Note_on_c, 4, 66, 0
6, 13170, Note_on_c, 4, 62, 0
6, 13170, Note_on_c, 4, 62, 100
6, 13170, Note_on_c, 4, 57, 100
6, 13170, Note_on_c, 4, 66, 100
6, 13200, Note_on_c, 4, 66, 0
6, 13200, Note_on_c, 4, 57, 0
6, 13200, Note_on_c, 4, 62, 0
6, 13200, Note_on_c, 4, 62, 100
6, 13200, Note_on_c, 4, 57, 100
6, 13200, Note_on_c, 4, 66, 100
6, 13235, Note_on_c, 4, 66, 0
6, 13235, Note_on_c, 4, 57, 0
6, 13235, Note_on_c, 4, 62, 0
6, 13260, Note_on_c, 4, 62, 100
6, 13260, Note_on_c, 4, 66, 100
6, 13260, Note_on_c, 4, 57, 100
6, 13290, Note_on_c, 4, 57, 0
6, 13290, Note_on_c, 4, 66, 0
6, 13290, Note_on_c, 4, 62, 0
6, 13290, Note_on_c, 4, 62, 100
6, 13290, Note_on_c, 4, 57, 100
6, 13290, Note_on_c, 4, 66, 100
6, 13320, Note_on_c, 4, 66, 0
6, 13320, Note_on_c, 4, 57, 0
6, 13320, Note_on_c, 4, 62, 0
6, 13320, Note_on_c, 4, 57, 100
6, 13320, Note_on_c, 4, 62, 100
6, 13320, Note_on_c, 4, 66, 100
6, 13355, Note_on_c, 4, 66, 0
6, 13355, Note_on_c, 4, 62, 0
6, 13355, Note_on_c, 4, 57, 0
6, 13380, Note_on_c, 4, 62, 100
6, 13380, Note_on_c, 4, 66, 100
6, 13380, Note_on_c, 4, 57, 100
6, 13410, Note_on_c, 4, 57, 0
6, 13410, Note_on_c, 4, 66, 0
6, 13410, Note_on_c, 4, 62, 0
6, 13410, Note_on_c, 4, 62, 100
6, 13410, Note_on_c, 4, 57, 100
6, 13410, Note_on_c, 4, 66, 100
6, 13440, Note_on_c, 4, 66, 0
6, 13440, Note_on_c, 4, 57, 0
6, 13440, Note_on_c, 4, 62, 0
6, 13440, Note_on_c, 4, 62, 100
6, 13440, Note_on_c, 4, 57, 100
6, 13440, Note_on_c, 4, 66, 100
6, 13475, Note_on_c, 4, 66, 0
6, 13475, Note_on_c, 4, 57, 0
6, 13475, Note_on_c, 4, 62, 0
6, 13500, Note_on_c, 4, 62, 100
6, 13500, Note_on_c, 4, 66, 100
6, 13500, Note_on_c, 4, 57, 100
6, 13530, Note_on_c, 4, 57, 0
6, 13530, Note_on_c, 4, 66, 0
6, 13530, Note_on_c, 4, 62, 0
6, 13530, Note_on_c, 4, 62, 100
6, 13530, Note_on_c, 4, 57, 100
6, 13530, Note_on_c, 4, 66, 100
6, 13560, Note_on_c, 4, 66, 0
6, 13560, Note_on_c, 4, 57, 0
6, 13560, Note_on_c, 4, 62, 0
6, 13560, Note_on_c, 4, 57, 100
6, 13560, Note_on_c, 4, 62, 100
6, 13560, Note_on_c, 4, 66, 100
6, 13595, Note_on_c, 4, 66, 0
6, 13595, Note_on_c, 4, 62, 0
6, 13595, Note_on_c, 4, 57, 0
6, 13620, Note_on_c, 4, 62, 100
6, 13620, Note_on_c, 4, 66, 100
6, 13620, Note_on_c, 4, 57, 100
6, 13650, Note_on_c, 4, 57, 0
6, 13650, Note_on_c, 4, 66, 0
6, 13650, Note_on_c, 4, 62, 0
6, 13650, Note_on_c, 4, 62, 100
6, 13650, Note_on_c, 4, 57, 100
6, 13650, Note_on_c, 4, 66, 100
6, 13680, Note_on_c, 4, 66, 0
6, 13680, Note_on_c, 4, 57, 0
6, 13680, Note_on_c, 4, 62, 0
6, 13680, Note_on_c, 4, 62, 100
6, 13680, Note_on_c, 4, 57, 100
6, 13680, Note_on_c, 4, 66, 100
6, 13715, Note_on_c, 4, 66, 0
6, 13715, Note_on_c, 4, 57, 0
6, 13715, Note_on_c, 4, 62, 0
6, 13740, Note_on_c, 4, 62, 100
6, 13740, Note_on_c, 4, 66, 100
6, 13740, Note_on_c, 4, 57, 100
6, 13770, Note_on_c, 4, 57, 0
6, 13770, Note_on_c, 4, 66, 0
6, 13770, Note_on_c, 4, 62, 0
6, 13770, Note_on_c, 4, 62, 100
6, 13770, Note_on_c, 4, 57, 100
6, 13770, Note_on_c, 4, 66, 100
6, 13800, Note_on_c, 4, 66, 0
6, 13800, Note_on_c, 4, 57, 0
6, 13800, Note_on_c, 4, 62, 0
6, 13800, Note_on_c, 4, 57, 100
6, 13800, Note_on_c, 4, 62, 100
6, 13800, Note_on_c, 4, 66, 100
6, 13835, Note_on_c, 4, 66, 0
6, 13835, Note_on_c, 4, 62, 0
6, 13835, Note_on_c, 4, 57, 0
6, 13860, Note_on_c, 4, 62, 100
6, 13860, Note_on_c, 4, 66, 100
6, 13860, Note_on_c, 4, 57, 100
6, 13890, Note_on_c, 4, 57, 0
6, 13890, Note_on_c, 4, 66, 0
6, 13890, Note_on_c, 4, 62, 0
6, 13890, Note_on_c, 4, 62, 100
6, 13890, Note_on_c, 4, 57, 100
6, 13890, Note_on_c, 4, 66, 100
6, 13920, Note_on_c, 4, 66, 0
6, 13920, Note_on_c, 4, 57, 0
6, 13920, Note_on_c, 4, 62, 0
6, 13920, Note_on_c, 4, 60, 100
6, 13920, Note_on_c, 4, 55, 100
6, 13920, Note_on_c, 4, 64, 100
6, 13955, Note_on_c, 4, 64, 0
6, 13955, Note_on_c, 4, 55, 0
6, 13955, Note_on_c, 4, 60, 0
6, 13980, Note_on_c, 4, 60, 100
6, 13980, Note_on_c, 4, 64, 100
6, 13980, Note_on_c, 4, 55, 100
6, 14010, Note_on_c, 4, 55, 0
6, 14010, Note_on_c, 4, 64, 0
6, 14010, Note_on_c, 4, 60, 0
6, 14010, Note_on_c, 4, 60, 100
6, 14010, Note_on_c, 4, 55, 100
6, 14010, Note_on_c, 4, 64, 100
6, 14040, Note_on_c, 4, 64, 0
6, 14040, Note_on_c, 4, 55, 0
6, 14040, Note_on_c, 4, 60, 0
6, 14040, Note_on_c, 4, 55, 100
6, 14040, Note_on_c, 4, 60, 100
6, 14040, Note_on_c, 4, 64, 100
6, 14075, Note_on_c, 4, 64, 0
6, 14075, Note_on_c, 4, 60, 0
6, 14075, Note_on_c, 4, 55, 0
6, 14100, Note_on_c, 4, 60, 100
6, 14100, Note_on_c, 4, 64, 100
6, 14100, Note_on_c, 4, 55, 100
6, 14130, Note_on_c, 4, 55, 0
6, 14130, Note_on_c, 4, 64, 0
6, 14130, Note_on_c, 4, 60, 0
6, 14130, Note_on_c, 4, 60, 100
6, 14130, Note_on_c, 4, 55, 100
6, 14130, Note_on_c, 4, 64, 100
6, 14160, Note_on_c, 4, 64, 0
6, 14160, Note_on_c, 4, 55, 0
6, 14160, Note_on_c, 4, 60, 0
6, 14160, Note_on_c, 4, 60, 100
6, 14160, Note_on_c, 4, 55, 100
6, 14160, Note_on_c, 4, 64, 100
6, 14195, Note_on_c, 4, 64, 0
6, 14195, Note_on_c, 4, 55, 0
6, 14195, Note_on_c, 4, 60, 0
6, 14220, Note_on_c, 4, 60, 100
6, 14220, Note_on_c, 4, 64, 100
6, 14220, Note_on_c, 4, 55, 100
6, 14250, Note_on_c, 4, 55, 0
6, 14250, Note_on_c, 4, 64, 0
6, 14250, Note_on_c, 4, 60, 0
6, 14250, Note_on_c, 4, 60, 100
6, 14250, Note_on_c, 4, 55, 100
6, 14250, Note_on_c, 4, 64, 100
6, 14280, Note_on_c, 4, 64, 0
6, 14280, Note_on_c, 4, 55, 0
6, 14280, Note_on_c, 4, 60, 0
6, 14280, Note_on_c, 4, 55, 100
6, 14280, Note_on_c, 4, 60, 100
6, 14280, Note_on_c, 4, 64, 100
6, 14315, Note_on_c, 4, 64, 0
6, 14315, Note_on_c, 4, 60, 0
6, 14315, Note_on_c, 4, 55, 0
6, 14340, Note_on_c, 4, 60, 100
6, 14340, Note_on_c, 4, 64, 100
6, 14340, Note_on_c, 4, 55, 100
6, 14370, Note_on_c, 4, 55, 0
6, 14370, Note_on_c, 4, 64, 0
6, 14370, Note_on_c, 4, 60, 0
6, 14370, Note_on_c, 4, 60, 100
6, 14370, Note_on_c, 4, 55, 100
6, 14370, Note_on_c, 4, 64, 100
6, 14400, Note_on_c, 4, 64, 0
6, 14400, Note_on_c, 4, 55, 0
6, 14400, Note_on_c, 4, 60, 0
6, 14400, Note_on_c, 4, 60, 100
6, 14400, Note_on_c, 4, 55, 100
6, 14400, Note_on_c, 4, 64, 100
6, 14435, Note_on_c, 4, 64, 0
6, 14435, Note_on_c, 4, 55, 0
6, 14435, Note_on_c, 4, 60, 0
6, 14460, Note_on_c, 4, 60, 100
6, 14460, Note_on_c, 4, 64, 100
6, 14460, Note_on_c, 4, 55, 100
6, 14490, Note_on_c, 4, 55, 0
6, 14490, Note_on_c, 4, 64, 0
6, 14490, Note_on_c, 4, 60, 0
6, 14490, Note_on_c, 4, 60, 100
6, 14490, Note_on_c, 4, 55, 100
6, 14490, Note_on_c, 4, 64, 100
6, 14520, Note_on_c, 4, 64, 0
6, 14520, Note_on_c, 4, 55, 0
6, 14520, Note_on_c, 4, 60, 0
6, 14520, Note_on_c, 4, 55, 100
6, 14520, Note_on_c, 4, 60, 100
6, 14520, Note_on_c, 4, 64, 100
6, 14555, Note_on_c, 4, 64, 0
6, 14555, Note_on_c, 4, 60, 0
6, 14555, Note_on_c, 4, 55, 0
6, 14580, Note_on_c, 4, 60, 100
6, 14580, Note_on_c, 4, 64, 100
6, 14580, Note_on_c, 4, 55, 100
6, 14610, Note_on_c, 4, 55, 0
6, 14610, Note_on_c, 4, 64, 0
6, 14610, Note_on_c, 4, 60, 0
6, 14610, Note_on_c, 4, 60, 100
6, 14610, Note_on_c, 4, 55, 100
6, 14610, Note_on_c, 4, 64, 100
6, 14640, Note_on_c, 4, 64, 0
6, 14640, Note_on_c, 4, 55, 0
6, 14640, Note_on_c, 4, 60, 0
6, 14640, Note_on_c, 4, 60, 100
6, 14640, Note_on_c, 4, 55, 100
6, 14640, Note_on_c, 4, 64, 100
6, 14675, Note_on_c, 4, 64, 0
6, 14675, Note_on_c, 4, 55, 0
6, 14675, Note_on_c, 4, 60, 0
6, 14700, Note_on_c, 4, 60, 100
6, 14700, Note_on_c, 4, 64, 100
6, 14700, Note_on_c, 4, 55, 100
6, 14730, Note_on_c, 4, 55, 0
6, 14730, Note_on_c, 4, 64, 0
6, 14730, Note_on_c, 4, 60, 0
6, 14730, Note_on_c, 4, 60, 100
6, 14730, Note_on_c, 4, 55, 100
6, 14730, Note_on_c, 4, 64, 100
6, 14760, Note_on_c, 4, 64, 0
6, 14760, Note_on_c, 4, 55, 0
6, 14760, Note_on_c, 4, 60, 0
6, 14760, Note_on_c, 4, 55, 100
6, 14760, Note_on_c, 4, 60, 100
6, 14760, Note_on_c, 4, 64, 100
6, 14795, Note_on_c, 4, 64, 0
6, 14795, Note_on_c, 4, 60, 0
6, 14795, Note_on_c, 4, 55, 0
6, 14820, Note_on_c, 4, 60, 100
6, 14820, Note_on_c, 4, 64, 100
6, 14820, Note_on_c, 4, 55, 100
6, 14850, Note_on_c, 4, 55, 0
6, 14850, Note_on_c, 4, 64, 0
6, 14850, Note_on_c, 4, 60, 0
6, 14850, Note_on_c, 4, 60, 100
6, 14850, Note_on_c, 4, 55, 100
6, 14850, Note_on_c, 4, 64, 100
6, 14880, Note_on_c, 4, 64, 0
6, 14880, Note_on_c, 4, 55, 0
6, 14880, Note_on_c, 4, 60, 0
6, 14880, Note_on_c, 4, 62, 100
6, 14880, Note_on_c, 4, 59, 100
6, 14880, Note_on_c, 4, 67, 100
6, 14915, Note_on_c, 4, 67, 0
6, 14915, Note_on_c, 4, 59, 0
6, 14915, Note_on_c, 4, 62, 0
6, 14940, Note_on_c, 4, 62, 100
6, 14940, Note_on_c, 4, 67, 100
6, 14940, Note_on_c, 4, 59, 100
6, 14970, Note_on_c, 4, 59, 0
6, 14970, Note_on_c, 4, 67, 0
6, 14970, Note_on_c, 4, 62, 0
6, 14970, Note_on_c, 4, 62, 100
6, 14970, Note_on_c, 4, 59, 100
6, 14970, Note_on_c, 4, 67, 100
6, 15000, Note_on_c, 4, 67, 0
6, 15000, Note_on_c, 4, 59, 0
6, 15000, Note_on_c, 4, 62, 0
6, 15000, Note_on_c, 4, 59, 100
6, 15000, Note_on_c, 4, 62, 100
6, 15000, Note_on_c, 4, 67, 100
6, 15035, Note_on_c, 4, 67, 0
6, 15035, Note_on_c, 4, 62, 0
6, 15035, Note_on_c, 4, 59, 0
6, 15060, Note_on_c, 4, 62, 100
6, 15060, Note_on_c, 4, 67, 100
6, 15060, Note_on_c, 4, 59, 100
6, 15090, Note_on_c, 4, 59, 0
6, 15090, Note_on_c, 4, 67, 0
6, 15090, Note_on_c, 4, 62, 0
6, 15090, Note_on_c, 4, 62, 100
6, 15090, Note_on_c, 4, 59, 100
6, 15090, Note_on_c, 4, 67, 100
6, 15120, Note_on_c, 4, 67, 0
6, 15120, Note_on_c, 4, 59, 0
6, 15120, Note_on_c, 4, 62, 0
6, 15120, Note_on_c, 4, 62, 100
6, 15120, Note_on_c, 4, 59, 100
6, 15120, Note_on_c, 4, 67, 100
6, 15155, Note_on_c, 4, 67, 0
6, 15155, Note_on_c, 4, 59, 0
6, 15155, Note_on_c, 4, 62, 0
6, 15180, Note_on_c, 4, 62, 100
6, 15180, Note_on_c, 4, 67, 100
6, 15180, Note_on_c, 4, 59, 100
6, 15210, Note_on_c, 4, 59, 0
6, 15210, Note_on_c, 4, 67, 0
6, 15210, Note_on_c, 4, 62, 0
6, 15210, Note_on_c, 4, 62, 100
6, 15210, Note_on_c, 4, 59, 100
6, 15210, Note_on_c, 4, 67, 100
6, 15240, Note_on_c, 4, 67, 0
6, 15240, Note_on_c, 4, 59, 0
6, 15240, Note_on_c, 4, 62, 0
6, 15240, Note_on_c, 4, 59, 100
6, 15240, Note_on_c, 4, 62, 100
6, 15240, Note_on_c, 4, 67, 100
6, 15275, Note_on_c, 4, 67, 0
6, 15275, Note_on_c, 4, 62, 0
6, 15275, Note_on_c, 4, 59, 0
6, 15300, Note_on_c, 4, 64, 100
6, 15300, Note_on_c, 4, 67, 100
6, 15300, Note_on_c, 4, 60, 100
6, 15330, Note_on_c, 4, 60, 0
6, 15330, Note_on_c, 4, 67, 0
6, 15330, Note_on_c, 4, 64, 0
6, 15330, Note_on_c, 4, 64, 100
6, 15330, Note_on_c, 4, 60, 100
6, 15330, Note_on_c, 4, 67, 100
6, 15360, Note_on_c, 4, 67, 0
6, 15360, Note_on_c, 4, 60, 0
6, 15360, Note_on_c, 4, 64, 0
6, 15360, Note_on_c, 4, 64, 100
6, 15360, Note_on_c, 4, 60, 100
6, 15360, Note_on_c, 4, 67, 100
6, 15395, Note_on_c, 4, 67, 0
6, 15395, Note_on_c, 4, 60, 0
6, 15395, Note_on_c, 4, 64, 0
6, 15420, Note_on_c, 4, 62, 100
6, 15420, Note_on_c, 4, 67, 100
6, 15420, Note_on_c, 4, 59, 100
6, 15450, Note_on_c, 4, 59, 0
6, 15450, Note_on_c, 4, 67, 0
6, 15450, Note_on_c, 4, 62, 0
6, 15450, Note_on_c, 4, 62, 100
6, 15450, Note_on_c, 4, 59, 100
6, 15450, Note_on_c, 4, 67, 100
6, 15480, Note_on_c, 4, 67, 0
6, 15480, Note_on_c, 4, 59, 0
6, 15480, Note_on_c, 4, 62, 0
6, 15480, Note_on_c, 4, 59, 100
6, 15480, Note_on_c, 4, 62, 100
6, 15480, Note_on_c, 4, 67, 100
6, 15515, Note_on_c, 4, 67, 0
6, 15515, Note_on_c, 4, 62, 0
6, 15515, Note_on_c, 4, 59, 0
6, 15540, Note_on_c, 4, 64, 100
6, 15540, Note_on_c, 4, 67, 100
6, 15540, Note_on_c, 4, 60, 100
6, 15570, Note_on_c, 4, 60, 0
6, 15570, Note_on_c, 4, 67, 0
6, 15570, Note_on_c, 4, 64, 0
6, 15570, Note_on_c, 4, 64, 100
6, 15570, Note_on_c, 4, 60, 100
6, 15570, Note_on_c, 4, 67, 100
6, 15600, Note_on_c, 4, 67, 0
6, 15600, Note_on_c, 4, 60, 0
6, 15600, Note_on_c, 4, 64, 0
6, 15600, Note_on_c, 4, 64, 100
6, 15600, Note_on_c, 4, 60, 100
6, 15600, Note_on_c, 4, 67, 100
6, 15635, Note_on_c, 4, 67, 0
6, 15635, Note_on_c, 4, 60, 0
6, 15635, Note_on_c, 4, 64, 0
6, 15660, Note_on_c, 4, 64, 100
6, 15660, Note_on_c, 4, 67, 100
6, 15660, Note_on_c, 4, 60, 100
6, 15690, Note_on_c, 4, 60, 0
6, 15690, Note_on_c, 4, 67, 0
6, 15690, Note_on_c, 4, 64, 0
6, 15690, Note_on_c, 4, 64, 100
6, 15690, Note_on_c, 4, 60, 100
6, 15690, Note_on_c, 4, 67, 100
6, 15720, Note_on_c, 4, 67, 0
6, 15720, Note_on_c, 4, 60, 0
6, 15720, Note_on_c, 4, 64, 0
6, 15720, Note_on_c, 4, 60, 100
6, 15720, Note_on_c, 4, 64, 100
6, 15720, Note_on_c, 4, 67, 100
6, 15755, Note_on_c, 4, 67, 0
6, 15755, Note_on_c, 4, 64, 0
6, 15755, Note_on_c, 4, 60, 0
6, 15780, Note_on_c, 4, 64, 100
6, 15780, Note_on_c, 4, 67, 100
6, 15780, Note_on_c, 4, 60, 100
6, 15810, Note_on_c, 4, 60, 0
6, 15810, Note_on_c, 4, 67, 0
6, 15810, Note_on_c, 4, 64, 0
6, 15810, Note_on_c, 4, 64, 100
6, 15810, Note_on_c, 4, 60, 100
6, 15810, Note_on_c, 4, 67, 100
6, 15840, Note_on_c, 4, 67, 0
6, 15840, Note_on_c, 4, 60, 0
6, 15840, Note_on_c, 4, 64, 0
6, 15840, Note_on_c, 4, 62, 100
6, 15840, Note_on_c, 4, 59, 100
6, 15840, Note_on_c, 4, 67, 100
6, 15875, Note_on_c, 4, 67, 0
6, 15875, Note_on_c, 4, 59, 0
6, 15875, Note_on_c, 4, 62, 0
6, 15900, Note_on_c, 4, 62, 100
6, 15900, Note_on_c, 4, 67, 100
6, 15900, Note_on_c, 4, 59, 100
6, 15930, Note_on_c, 4, 59, 0
6, 15930, Note_on_c, 4, 67, 0
6, 15930, Note_on_c, 4, 62, 0
6, 15930, Note_on_c, 4, 62, 100
6, 15930, Note_on_c, 4, 59, 100
6, 15930, Note_on_c, 4, 67, 100
6, 15960, Note_on_c, 4, 67, 0
6, 15960, Note_on_c, 4, 59, 0
6, 15960, Note_on_c, 4, 62, 0
6, 15960, Note_on_c, 4, 59, 100
6, 15960, Note_on_c, 4, 62, 100
6, 15960, Note_on_c, 4, 67, 100
6, 15995, Note_on_c, 4, 67, 0
6, 15995, Note_on_c, 4, 62, 0
6, 15995, Note_on_c, 4, 59, 0
6, 16020, Note_on_c, 4, 62, 100
6, 16020, Note_on_c, 4, 67, 100
6, 16020, Note_on_c, 4, 59, 100
6, 16050, Note_on_c, 4, 59, 0
6, 16050, Note_on_c, 4, 67, 0
6, 16050, Note_on_c, 4, 62, 0
6, 16050, Note_on_c, 4, 62, 100
6, 16050, Note_on_c, 4, 59, 100
6, 16050, Note_on_c, 4, 67, 100
6, 16080, Note_on_c, 4, 67, 0
6, 16080, Note_on_c, 4, 59, 0
6, 16080, Note_on_c, 4, 62, 0
6, 16080, Note_on_c, 4, 62, 100
6, 16080, Note_on_c, 4, 59, 100
6, 16080, Note_on_c, 4, 67, 100
6, 16115, Note_on_c, 4, 67, 0
6, 16115, Note_on_c, 4, 59, 0
6, 16115, Note_on_c, 4, 62, 0
6, 16140, Note_on_c, 4, 62, 100
6, 16140, Note_on_c, 4, 67, 100
6, 16140, Note_on_c, 4, 59, 100
6, 16170, Note_on_c, 4, 59, 0
6, 16170, Note_on_c, 4, 67, 0
6, 16170, Note_on_c, 4, 62, 0
6, 16170, Note_on_c, 4, 62, 100
6, 16170, Note_on_c, 4, 59, 100
6, 16170, Note_on_c, 4, 67, 100
6, 16200, Note_on_c, 4, 67, 0
6, 16200, Note_on_c, 4, 59, 0
6, 16200, Note_on_c, 4, 62, 0
6, 16200, Note_on_c, 4, 59, 100
6, 16200, Note_on_c, 4, 62, 100
6, 16200, Note_on_c, 4, 67, 100
6, 16235, Note_on_c, 4, 67, 0
6, 16235, Note_on_c, 4, 62, 0
6, 16235, Note_on_c, 4, 59, 0
6, 16260, Note_on_c, 4, 64, 100
6, 16260, Note_on_c, 4, 67, 100
6, 16260, Note_on_c, 4, 60, 100
6, 16290, Note_on_c, 4, 60, 0
6, 16290, Note_on_c, 4, 67, 0
6, 16290, Note_on_c, 4, 64, 0
6, 16290, Note_on_c, 4, 64, 100
6, 16290, Note_on_c, 4, 60, 100
6, 16290, Note_on_c, 4, 67, 100
6, 16320, Note_on_c, 4, 67, 0
6, 16320, Note_on_c, 4, 60, 0
6, 16320, Note_on_c, 4, 64, 0
6, 16320, Note_on_c, 4, 64, 100
6, 16320, Note_on_c, 4, 60, 100
6, 16320, Note_on_c, 4, 67, 100
6, 16355, Note_on_c, 4, 67, 0
6, 16355, Note_on_c, 4, 60, 0
6, 16355, Note_on_c, 4, 64, 0
6, 16380, Note_on_c, 4, 64, 100
6, 16380, Note_on_c, 4, 67, 100
6, 16380, Note_on_c, 4, 60, 100
6, 16410, Note_on_c, 4, 60, 0
6, 16410, Note_on_c, 4, 67, 0
6, 16410, Note_on_c, 4, 64, 0
6, 16410, Note_on_c, 4, 64, 100
6, 16410, Note_on_c, 4, 60, 100
6, 16410, Note_on_c, 4, 67, 100
6, 16440, Note_on_c, 4, 67, 0
6, 16440, Note_on_c, 4, 60, 0
6, 16440, Note_on_c, 4, 64, 0
6, 16440, Note_on_c, 4, 60, 100
6, 16440, Note_on_c, 4, 64, 100
6, 16440, Note_on_c, 4, 67, 100
6, 16475, Note_on_c, 4, 67, 0
6, 16475, Note_on_c, 4, 64, 0
6, 16475, Note_on_c, 4, 60, 0
6, 16500, Note_on_c, 4, 64, 100
6, 16500, Note_on_c, 4, 67, 100
6, 16500, Note_on_c, 4, 60, 100
6, 16530, Note_on_c, 4, 60, 0
6, 16530, Note_on_c, 4, 67, 0
6, 16530, Note_on_c, 4, 64, 0
6, 16530, Note_on_c, 4, 64, 100
6, 16530, Note_on_c, 4, 60, 100
6, 16530, Note_on_c, 4, 67, 100
6, 16560, Note_on_c, 4, 67, 0
6, 16560, Note_on_c, 4, 60, 0
6, 16560, Note_on_c, 4, 64, 0
6, 16560, Note_on_c, 4, 64, 100
6, 16560, Note_on_c, 4, 60, 100
6, 16560, Note_on_c, 4, 67, 100
6, 16595, Note_on_c, 4, 67, 0
6, 16595, Note_on_c, 4, 60, 0
6, 16595, Note_on_c, 4, 64, 0
6, 16620, Note_on_c, 4, 64, 100
6, 16620, Note_on_c, 4, 67, 100
6, 16620, Note_on_c, 4, 60, 100
6, 16650, Note_on_c, 4, 60, 0
6, 16650, Note_on_c, 4, 67, 0
6, 16650, Note_on_c, 4, 64, 0
6, 16650, Note_on_c, 4, 64, 100
6, 16650, Note_on_c, 4, 60, 100
6, 16650, Note_on_c, 4, 67, 100
6, 16680, Note_on_c, 4, 67, 0
6, 16680, Note_on_c, 4, 60, 0
6, 16680, Note_on_c, 4, 64, 0
6, 16680, Note_on_c, 4, 60, 100
6, 16680, Note_on_c, 4, 64, 100
6, 16680, Note_on_c, 4, 67, 100
6, 16715, Note_on_c, 4, 67, 0
6, 16715, Note_on_c, 4, 64, 0
6, 16715, Note_on_c, 4, 60, 0
6, 16740, Note_on_c, 4, 64, 100
6, 16740, Note_on_c, 4, 67, 100
6, 16740, Note_on_c, 4, 60, 100
6, 16770, Note_on_c, 4, 60, 0
6, 16770, Note_on_c, 4, 67, 0
6, 16770, Note_on_c, 4, 64, 0
6, 16770, Note_on_c, 4, 64, 100
6, 16770, Note_on_c, 4, 60, 100
6, 16770, Note_on_c, 4, 67, 100
6, 16800, Note_on_c, 4, 67, 0
6, 16800, Note_on_c, 4, 60, 0
6, 16800, Note_on_c, 4, 64, 0
6, 16800, Note_on_c, 4, 62, 100
6, 16800, Note_on_c, 4, 59, 100
6, 16800, Note_on_c, 4, 67, 100
6, 16835, Note_on_c, 4, 67, 0
6, 16835, Note_on_c, 4, 59, 0
6, 16835, Note_on_c, 4, 62, 0
6, 16860, Note_on_c, 4, 62, 100
6, 16860, Note_on_c, 4, 67, 100
6, 16860, Note_on_c, 4, 59, 100
6, 16890, Note_on_c, 4, 59, 0
6, 16890, Note_on_c, 4, 67, 0
6, 16890, Note_on_c, 4, 62, 0
6, 16890, Note_on_c, 4, 62, 100
6, 16890, Note_on_c, 4, 59, 100
6, 16890, Note_on_c, 4, 67, 100
6, 16920, Note_on_c, 4, 67, 0
6, 16920, Note_on_c, 4, 59, 0
6, 16920, Note_on_c, 4, 62, 0
6, 16920, Note_on_c, 4, 59, 100
6, 16920, Note_on_c, 4, 62, 100
6, 16920, Note_on_c, 4, 67, 100
6, 16955, Note_on_c, 4, 67, 0
6, 16955, Note_on_c, 4, 62, 0
6, 16955, Note_on_c, 4, 59, 0
6, 16980, Note_on_c, 4, 62, 100
6, 16980, Note_on_c, 4, 67, 100
6, 16980, Note_on_c, 4, 59, 100
6, 17010, Note_on_c, 4, 59, 0
6, 17010, Note_on_c, 4, 67, 0
6, 17010, Note_on_c, 4, 62, 0
6, 17010, Note_on_c, 4, 62, 100
6, 17010, Note_on_c, 4, 59, 100
6, 17010, Note_on_c, 4, 67, 100
6, 17040, Note_on_c, 4, 67, 0
6, 17040, Note_on_c, 4, 59, 0
6, 17040, Note_on_c, 4, 62, 0
6, 17040, Note_on_c, 4, 62, 100
6, 17040, Note_on_c, 4, 59, 100
6, 17040, Note_on_c, 4, 67, 100
6, 17075, Note_on_c, 4, 67, 0
6, 17075, Note_on_c, 4, 59, 0
6, 17075, Note_on_c, 4, 62, 0
6, 17100, Note_on_c, 4, 62, 100
6, 17100, Note_on_c, 4, 67, 100
6, 17100, Note_on_c, 4, 59, 100
6, 17130, Note_on_c, 4, 59, 0
6, 17130, Note_on_c, 4, 67, 0
6, 17130, Note_on_c, 4, 62, 0
6, 17130, Note_on_c, 4, 62, 100
6, 17130, Note_on_c, 4, 59, 100
6, 17130, Note_on_c, 4, 67, 100
6, 17160, Note_on_c, 4, 67, 0
6, 17160, Note_on_c, 4, 59, 0
6, 17160, Note_on_c, 4, 62, 0
6, 17160, Note_on_c, 4, 59, 100
6, 17160, Note_on_c, 4, 62, 100
6, 17160, Note_on_c, 4, 67, 100
6, 17195, Note_on_c, 4, 67, 0
6, 17195, Note_on_c, 4, 62, 0
6, 17195, Note_on_c, 4, 59, 0
6, 17220, Note_on_c, 4, 62, 100
6, 17220, Note_on_c, 4, 67, 100
6, 17220, Note_on_c, 4, 59, 100
6, 17250, Note_on_c, 4, 59, 0
6, 17250, Note_on_c, 4, 67, 0
6, 17250, Note_on_c, 4, 62, 0
6, 17250, Note_on_c, 4, 62, 100
6, 17250, Note_on_c, 4, 59, 100
6, 17250, Note_on_c, 4, 67, 100
6, 17280, Note_on_c, 4, 67, 0
6, 17280, Note_on_c, 4, 59, 0
6, 17280, Note_on_c, 4, 62, 0
6, 17280, Note_on_c, 4, 62, 100
6, 17280, Note_on_c, 4, 59, 100
6, 17280, Note_on_c, 4, 67, 100
6, 17315, Note_on_c, 4, 67, 0
6, 17315, Note_on_c, 4, 59, 0
6, 17315, Note_on_c, 4, 62, 0
6, 17340, Note_on_c, 4, 62, 100
6, 17340, Note_on_c, 4, 67, 100
6, 17340, Note_on_c, 4, 59, 100
6, 17370, Note_on_c, 4, 59, 0
6, 17370, Note_on_c, 4, 67, 0
6, 17370, Note_on_c, 4, 62, 0
6, 17370, Note_on_c, 4, 62, 100
6, 17370, Note_on_c, 4, 59, 100
6, 17370, Note_on_c, 4, 67, 100
6, 17400, Note_on_c, 4, 67, 0
6, 17400, Note_on_c, 4, 59, 0
6, 17400, Note_on_c, 4, 62, 0
6, 17400, Note_on_c, 4, 59, 100
6, 17400, Note_on_c, 4, 62, 100
6, 17400, Note_on_c, 4, 67, 100
6, 17435, Note_on_c, 4, 67, 0
6, 17435, Note_on_c, 4, 62, 0
6, 17435, Note_on_c, 4, 59, 0
6, 17460, Note_on_c, 4, 62, 100
6, 17460, Note_on_c, 4, 67, 100
6, 17460, Note_on_c, 4, 59, 100
6, 17490, Note_on_c, 4, 59, 0
6, 17490, Note_on_c, 4, 67, 0
6, 17490, Note_on_c, 4, 62, 0
6, 17490, Note_on_c, 4, 62, 100
6, 17490, Note_on_c, 4, 59, 100
6, 17490, Note_on_c, 4, 67, 100
6, 17520, Note_on_c, 4, 67, 0
6, 17520, Note_on_c, 4, 59, 0
6, 17520, Note_on_c, 4, 62, 0
6, 17520, Note_on_c, 4, 62, 100
6, 17520, Note_on_c, 4, 59, 100
6, 17520, Note_on_c, 4, 67, 100
6, 17555, Note_on_c, 4, 67, 0
6, 17555, Note_on_c, 4, 59, 0
6, 17555, Note_on_c, 4, 62, 0
6, 17580, Note_on_c, 4, 62, 100
6, 17580, Note_on_c, 4, 67, 100
6, 17580, Note_on_c, 4, 59, 100
6, 17610, Note_on_c, 4, 59, 0
6, 17610, Note_on_c, 4, 67, 0
6, 17610, Note_on_c, 4, 62, 0
6, 17610, Note_on_c, 4, 62, 100
6, 17610, Note_on_c, 4, 59, 100
6, 17610, Note_on_c, 4, 67, 100
6, 17640, Note_on_c, 4, 67, 0
6, 17640, Note_on_c, 4, 59, 0
6, 17640, Note_on_c, 4, 62, 0
6, 17640, Note_on_c, 4, 59, 100
6, 17640, Note_on_c, 4, 62, 100
6, 17640, Note_on_c, 4, 67, 100
6, 17675, Note_on_c, 4, 67, 0
6, 17675, Note_on_c, 4, 62, 0
6, 17675, Note_on_c, 4, 59, 0
6, 17700, Note_on_c, 4, 62, 100
6, 17700, Note_on_c, 4, 67, 100
6, 17700, Note_on_c, 4, 59, 100
6, 17730, Note_on_c, 4, 59, 0
6, 17730, Note_on_c, 4, 67, 0
6, 17730, Note_on_c, 4, 62, 0
6, 17730, Note_on_c, 4, 62, 100
6, 17730, Note_on_c, 4, 59, 100
6, 17730, Note_on_c, 4, 67, 100
6, 17760, Note_on_c, 4, 67, 0
6, 17760, Note_on_c, 4, 59, 0
6, 17760, Note_on_c, 4, 62, 0
6, 17760, Note_on_c, 4, 62, 100
6, 17760, Note_on_c, 4, 57, 100
6, 17760, Note_on_c, 4, 66, 100
6, 17795, Note_on_c, 4, 66, 0
6, 17795, Note_on_c, 4, 57, 0
6, 17795, Note_on_c, 4, 62, 0
6, 17820, Note_on_c, 4, 62, 100
6, 17820, Note_on_c, 4, 66, 100
6, 17820, Note_on_c, 4, 57, 100
6, 17850, Note_on_c, 4, 57, 0
6, 17850, Note_on_c, 4, 66, 0
6, 17850, Note_on_c, 4, 62, 0
6, 17850, Note_on_c, 4, 62, 100
6, 17850, Note_on_c, 4, 57, 100
6, 17850, Note_on_c, 4, 66, 100
6, 17880, Note_on_c, 4, 66, 0
6, 17880, Note_on_c, 4, 57, 0
6, 17880, Note_on_c, 4, 62, 0
6, 17880, Note_on_c, 4, 57, 100
6, 17880, Note_on_c, 4, 62, 100
6, 17880, Note_on_c, 4, 66, 100
6, 17915, Note_on_c, 4, 66, 0
6, 17915, Note_on_c, 4, 62, 0
6, 17915, Note_on_c, 4, 57, 0
6, 17940, Note_on_c, 4, 62, 100
6, 17940, Note_on_c, 4, 66, 100
6, 17940, Note_on_c, 4, 57, 100
6, 17970, Note_on_c, 4, 57, 0
6, 17970, Note_on_c, 4, 66, 0
6, 17970, Note_on_c, 4, 62, 0
6, 17970, Note_on_c, 4, 62, 100
6, 17970, Note_on_c, 4, 57, 100
6, 17970, Note_on_c, 4, 66, 100
6, 18000, Note_on_c, 4, 66, 0
6, 18000, Note_on_c, 4, 57, 0
6, 18000, Note_on_c, 4, 62, 0
6, 18000, Note_on_c, 4, 62, 100
6, 18000, Note_on_c, 4, 57, 100
6, 18000, Note_on_c, 4, 66, 100
6, 18035, Note_on_c, 4, 66, 0
6, 18035, Note_on_c, 4, 57, 0
6, 18035, Note_on_c, 4, 62, 0
6, 18060, Note_on_c, 4, 62, 100
6, 18060, Note_on_c, 4, 66, 100
6, 18060, Note_on_c, 4, 57, 100
6, 18090, Note_on_c, 4, 57, 0
6, 18090, Note_on_c, 4, 66, 0
6, 18090, Note_on_c, 4, 62, 0
6, 18090, Note_on_c, 4, 62, 100
6, 18090, Note_on_c, 4, 57, 100
6, 18090, Note_on_c, 4, 66, 100
6, 18120, Note_on_c, 4, 66, 0
6, 18120, Note_on_c, 4, 57, 0
6, 18120, Note_on_c, 4, 62, 0
6, 18120, Note_on_c, 4, 57, 100
6, 18120, Note_on_c, 4, 62, 100
6, 18120, Note_on_c, 4, 66, 100
6, 18155, Note_on_c, 4, 66, 0
6, 18155, Note_on_c, 4, 62, 0
6, 18155, Note_on_c, 4, 57, 0
6, 18180, Note_on_c, 4, 62, 100
6, 18180, Note_on_c, 4, 66, 100
6, 18180, Note_on_c, 4, 57, 100
6, 18210, Note_on_c, 4, 57, 0
6, 18210, Note_on_c, 4, 66, 0
6, 18210, Note_on_c, 4, 62, 0
6, 18210, Note_on_c, 4, 62, 100
6, 18210, Note_on_c, 4, 57, 100
6, 18210, Note_on_c, 4, 66, 100
6, 18240, Note_on_c, 4, 66, 0
6, 18240, Note_on_c, 4, 57, 0
6, 18240, Note_on_c, 4, 62, 0
6, 18240, Note_on_c, 4, 62, 100
6, 18240, Note_on_c, 4, 57, 100
6, 18240, Note_on_c, 4, 66, 100
6, 18275, Note_on_c, 4, 66, 0
6, 18275, Note_on_c, 4, 57, 0
6, 18275, Note_on_c, 4, 62, 0
6, 18300, Note_on_c, 4, 62, 100
6, 18300, Note_on_c, 4, 66, 100
6, 18300, Note_on_c, 4, 57, 100
6, 18330, Note_on_c, 4, 57, 0
6, 18330, Note_on_c, 4, 66, 0
6, 18330, Note_on_c, 4, 62, 0
6, 18330, Note_on_c, 4, 62, 100
6, 18330, Note_on_c, 4, 57, 100
6, 18330, Note_on_c, 4, 66, 100
6, 18360, Note_on_c, 4, 66, 0
6, 18360, Note_on_c, 4, 57, 0
6, 18360, Note_on_c, 4, 62, 0
6, 18360, Note_on_c, 4, 57, 100
6, 18360, Note_on_c, 4, 62, 100
6, 18360, Note_on_c, 4, 66, 100
6, 18395, Note_on_c, 4, 66, 0
6, 18395, Note_on_c, 4, 62, 0
6, 18395, Note_on_c, 4, 57, 0
6, 18420, Note_on_c, 4, 62, 100
6, 18420, Note_on_c, 4, 66, 100
6, 18420, Note_on_c, 4, 57, 100
6, 18450, Note_on_c, 4, 57, 0
6, 18450, Note_on_c, 4, 66, 0
6, 18450, Note_on_c, 4, 62, 0
6, 18450, Note_on_c, 4, 62, 100
6, 18450, Note_on_c, 4, 57, 100
6, 18450, Note_on_c, 4, 66, 100
6, 18480, Note_on_c, 4, 66, 0
6, 18480, Note_on_c, 4, 57, 0
6, 18480, Note_on_c, 4, 62, 0
6, 18480, Note_on_c, 4, 62, 100
6, 18480, Note_on_c, 4, 57, 100
6, 18480, Note_on_c, 4, 66, 100
6, 18515, Note_on_c, 4, 66, 0
6, 18515, Note_on_c, 4, 57, 0
6, 18515, Note_on_c, 4, 62, 0
6, 18540, Note_on_c, 4, 62, 100
6, 18540, Note_on_c, 4, 66, 100
6, 18540, Note_on_c, 4, 57, 100
6, 18570, Note_on_c, 4, 57, 0
6, 18570, Note_on_c, 4, 66, 0
6, 18570, Note_on_c, 4, 62, 0
6, 18570, Note_on_c, 4, 62, 100
6, 18570, Note_on_c, 4, 57, 100
6, 18570, Note_on_c, 4, 66, 100
6, 18600, Note_on_c, 4, 66, 0
6, 18600, Note_on_c, 4, 57, 0
6, 18600, Note_on_c, 4, 62, 0
6, 18600, Note_on_c, 4, 57, 100
6, 18600, Note_on_c, 4, 62, 100
6, 18600, Note_on_c, 4, 66, 100
6, 18635, Note_on_c, 4, 66, 0
6, 18635, Note_on_c, 4, 62, 0
6, 18635, Note_on_c, 4, 57, 0
6, 18660, Note_on_c, 4, 62, 100
6, 18660, Note_on_c, 4, 66, 100
6, 18660, Note_on_c, 4, 57, 100
6, 18690, Note_on_c, 4, 57, 0
6, 18690, Note_on_c, 4, 66, 0
6, 18690, Note_on_c, 4, 62, 0
6, 18690, Note_on_c, 4, 62, 100
6, 18690, Note_on_c, 4, 57, 100
6, 18690, Note_on_c, 4, 66, 100
6, 18720, Note_on_c, 4, 66, 0
6, 18720, Note_on_c, 4, 57, 0
6, 18720, Note_on_c, 4, 62, 0
6, 18720, Note_on_c, 4, 60, 100
6, 18720, Note_on_c, 4, 55, 100
6, 18720, Note_on_c, 4, 64, 100
6, 18755, Note_on_c, 4, 64, 0
6, 18755, Note_on_c, 4, 55, 0
6, 18755, Note_on_c, 4, 60, 0
6, 18780, Note_on_c, 4, 60, 100
6, 18780, Note_on_c, 4, 64, 100
6, 18780, Note_on_c, 4, 55, 100
6, 18810, Note_on_c, 4, 55, 0
6, 18810, Note_on_c, 4, 64, 0
6, 18810, Note_on_c, 4, 60, 0
6, 18810, Note_on_c, 4, 60, 100
6, 18810, Note_on_c, 4, 55, 100
6, 18810, Note_on_c, 4, 64, 100
6, 18840, Note_on_c, 4, 64, 0
6, 18840, Note_on_c, 4, 55, 0
6, 18840, Note_on_c, 4, 60, 0
6, 18840, Note_on_c, 4, 55, 100
6, 18840, Note_on_c, 4, 60, 100
6, 18840, Note_on_c, 4, 64, 100
6, 18875, Note_on_c, 4, 64, 0
6, 18875, Note_on_c, 4, 60, 0
6, 18875, Note_on_c, 4, 55, 0
6, 18900, Note_on_c, 4, 60, 100
6, 18900, Note_on_c, 4, 64, 100
6, 18900, Note_on_c, 4, 55, 100
6, 18930, Note_on_c, 4, 55, 0
6, 18930, Note_on_c, 4, 64, 0
6, 18930, Note_on_c, 4, 60, 0
6, 18930, Note_on_c, 4, 60, 100
6, 18930, Note_on_c, 4, 55, 100
6, 18930, Note_on_c, 4, 64, 100
6, 18960, Note_on_c, 4, 64, 0
6, 18960, Note_on_c, 4, 55, 0
6, 18960, Note_on_c, 4, 60, 0
6, 18960, Note_on_c, 4, 60, 100
6, 18960, Note_on_c, 4, 55, 100
6, 18960, Note_on_c, 4, 64, 100
6, 18995, Note_on_c, 4, 64, 0
6, 18995, Note_on_c, 4, 55, 0
6, 18995, Note_on_c, 4, 60, 0
6, 19020, Note_on_c, 4, 60, 100
6, 19020, Note_on_c, 4, 64, 100
6, 19020, Note_on_c, 4, 55, 100
6, 19050, Note_on_c, 4, 55, 0
6, 19050, Note_on_c, 4, 64, 0
6, 19050, Note_on_c, 4, 60, 0
6, 19050, Note_on_c, 4, 60, 100
6, 19050, Note_on_c, 4, 55, 100
6, 19050, Note_on_c, 4, 64, 100
6, 19080, Note_on_c, 4, 64, 0
6, 19080, Note_on_c, 4, 55, 0
6, 19080, Note_on_c, 4, 60, 0
6, 19080, Note_on_c, 4, 55, 100
6, 19080, Note_on_c, 4, 60, 100
6, 19080, Note_on_c, 4, 64, 100
6, 19115, Note_on_c, 4, 64, 0
6, 19115, Note_on_c, 4, 60, 0
6, 19115, Note_on_c, 4, 55, 0
6, 19140, Note_on_c, 4, 60, 100
6, 19140, Note_on_c, 4, 64, 100
6, 19140, Note_on_c, 4, 55, 100
6, 19170, Note_on_c, 4, 55, 0
6, 19170, Note_on_c, 4, 64, 0
6, 19170, Note_on_c, 4, 60, 0
6, 19170, Note_on_c, 4, 60, 100
6, 19170, Note_on_c, 4, 55, 100
6, 19170, Note_on_c, 4, 64, 100
6, 19200, Note_on_c, 4, 64, 0
6, 19200, Note_on_c, 4, 55, 0
6, 19200, Note_on_c, 4, 60, 0
6, 19200, Note_on_c, 4, 60, 100
6, 19200, Note_on_c, 4, 55, 100
6, 19200, Note_on_c, 4, 64, 100
6, 19235, Note_on_c, 4, 64, 0
6, 19235, Note_on_c, 4, 55, 0
6, 19235, Note_on_c, 4, 60, 0
6, 19260, Note_on_c, 4, 60, 100
6, 19260, Note_on_c, 4, 64, 100
6, 19260, Note_on_c, 4, 55, 100
6, 19290, Note_on_c, 4, 55, 0
6, 19290, Note_on_c, 4, 64, 0
6, 19290, Note_on_c, 4, 60, 0
6, 19290, Note_on_c, 4, 60, 100
6, 19290, Note_on_c, 4, 55, 100
6, 19290, Note_on_c, 4, 64, 100
6, 19320, Note_on_c, 4, 64, 0
6, 19320, Note_on_c, 4, 55, 0
6, 19320, Note_on_c, 4, 60, 0
6, 19320, Note_on_c, 4, 55, 100
6, 19320, Note_on_c, 4, 60, 100
6, 19320, Note_on_c, 4, 64, 100
6, 19355, Note_on_c, 4, 64, 0
6, 19355, Note_on_c, 4, 60, 0
6, 19355, Note_on_c, 4, 55, 0
6, 19380, Note_on_c, 4, 60, 100
6, 19380, Note_on_c, 4, 64, 100
6, 19380, Note_on_c, 4, 55, 100
6, 19410, Note_on_c, 4, 55, 0
6, 19410, Note_on_c, 4, 64, 0
6, 19410, Note_on_c, 4, 60, 0
6, 19410, Note_on_c, 4, 60, 100
6, 19410, Note_on_c, 4, 55, 100
6, 19410, Note_on_c, 4, 64, 100
6, 19440, Note_on_c, 4, 64, 0
6, 19440, Note_on_c, 4, 55, 0
6, 19440, Note_on_c, 4, 60, 0
6, 19440, Note_on_c, 4, 60, 100
6, 19440, Note_on_c, 4, 55, 100
6, 19440, Note_on_c, 4, 64, 100
6, 19475, Note_on_c, 4, 64, 0
6, 19475, Note_on_c, 4, 55, 0
6, 19475, Note_on_c, 4, 60, 0
6, 19500, Note_on_c, 4, 60, 100
6, 19500, Note_on_c, 4, 64, 100
6, 19500, Note_on_c, 4, 55, 100
6, 19530, Note_on_c, 4, 55, 0
6, 19530, Note_on_c, 4, 64, 0
6, 19530, Note_on_c, 4, 60, 0
6, 19530, Note_on_c, 4, 60, 100
6, 19530, Note_on_c, 4, 55, 100
6, 19530, Note_on_c, 4, 64, 100
6, 19560, Note_on_c, 4, 64, 0
6, 19560, Note_on_c, 4, 55, 0
6, 19560, Note_on_c, 4, 60, 0
6, 19560, Note_on_c, 4, 55, 100
6, 19560, Note_on_c, 4, 60, 100
6, 19560, Note_on_c, 4, 64, 100
6, 19595, Note_on_c, 4, 64, 0
6, 19595, Note_on_c, 4, 60, 0
6, 19595, Note_on_c, 4, 55, 0
6, 19620, Note_on_c, 4, 60, 100
6, 19620, Note_on_c, 4, 64, 100
6, 19620, Note_on_c, 4, 55, 100
6, 19650, Note_on_c, 4, 55, 0
6, 19650, Note_on_c, 4, 64, 0
6, 19650, Note_on_c, 4, 60, 0
6, 19650, Note_on_c, 4, 60, 100
6, 19650, Note_on_c, 4, 55, 100
6, 19650, Note_on_c, 4, 64, 100
6, 19680, Note_on_c, 4, 64, 0
6, 19680, Note_on_c, 4, 55, 0
6, 19680, Note_on_c, 4, 60, 0
6, 19680, Note_on_c, 4, 62, 100
6, 19680, Note_on_c, 4, 59, 100
6, 19680, Note_on_c, 4, 67, 100
6, 19715, Note_on_c, 4, 67, 0
6, 19715, Note_on_c, 4, 59, 0
6, 19715, Note_on_c, 4, 62, 0
6, 19740, Note_on_c, 4, 62, 100
6, 19740, Note_on_c, 4, 67, 100
6, 19740, Note_on_c, 4, 59, 100
6, 19770, Note_on_c, 4, 59, 0
6, 19770, Note_on_c, 4, 67, 0
6, 19770, Note_on_c, 4, 62, 0
6, 19770, Note_on_c, 4, 62, 100
6, 19770, Note_on_c, 4, 59, 100
6, 19770, Note_on_c, 4, 67, 100
6, 19800, Note_on_c, 4, 67, 0
6, 19800, Note_on_c, 4, 59, 0
6, 19800, Note_on_c, 4, 62, 0
6, 19800, Note_on_c, 4, 59, 100
6, 19800, Note_on_c, 4, 62, 100
6, 19800, Note_on_c, 4, 67, 100
6, 19835, Note_on_c, 4, 67, 0
6, 19835, Note_on_c, 4, 62, 0
6, 19835, Note_on_c, 4, 59, 0
6, 19860, Note_on_c, 4, 62, 100
6, 19860, Note_on_c, 4, 67, 100
6, 19860, Note_on_c, 4, 59, 100
6, 19890, Note_on_c, 4, 59, 0
6, 19890, Note_on_c, 4, 67, 0
6, 19890, Note_on_c, 4, 62, 0
6, 19890, Note_on_c, 4, 62, 100
6, 19890, Note_on_c, 4, 59, 100
6, 19890, Note_on_c, 4, 67, 100
6, 19920, Note_on_c, 4, 67, 0
6, 19920, Note_on_c, 4, 59, 0
6, 19920, Note_on_c, 4, 62, 0
6, 19920, Note_on_c, 4, 62, 100
6, 19920, Note_on_c, 4, 59, 100
6, 19920, Note_on_c, 4, 67, 100
6, 19955, Note_on_c, 4, 67, 0
6, 19955, Note_on_c, 4, 59, 0
6, 19955, Note_on_c, 4, 62, 0
6, 19980, Note_on_c, 4, 62, 100
6, 19980, Note_on_c, 4, 67, 100
6, 19980, Note_on_c, 4, 59, 100
6, 20010, Note_on_c, 4, 59, 0
6, 20010, Note_on_c, 4, 67, 0
6, 20010, Note_on_c, 4, 62, 0
6, 20010, Note_on_c, 4, 62, 100
6, 20010, Note_on_c, 4, 59, 100
6, 20010, Note_on_c, 4, 67, 100
6, 20040, Note_on_c, 4, 67, 0
6, 20040, Note_on_c, 4, 59, 0
6, 20040, Note_on_c, 4, 62, 0
6, 20040, Note_on_c, 4, 59, 100
6, 20040, Note_on_c, 4, 62, 100
6, 20040, Note_on_c, 4, 67, 100
6, 20075, Note_on_c, 4, 67, 0
6, 20075, Note_on_c, 4, 62, 0
6, 20075, Note_on_c, 4, 59, 0
6, 20100, Note_on_c, 4, 64, 100
6, 20100, Note_on_c, 4, 67, 100
6, 20100, Note_on_c, 4, 60, 100
6, 20130, Note_on_c, 4, 60, 0
6, 20130, Note_on_c, 4, 67, 0
6, 20130, Note_on_c, 4, 64, 0
6, 20130, Note_on_c, 4, 64, 100
6, 20130, Note_on_c, 4, 60, 100
6, 20130, Note_on_c, 4, 67, 100
6, 20160, Note_on_c, 4, 67, 0
6, 20160, Note_on_c, 4, 60, 0
6, 20160, Note_on_c, 4, 64, 0
6, 20160, Note_on_c, 4, 64, 100
6, 20160, Note_on_c, 4, 60, 100
6, 20160, Note_on_c, 4, 67, 100
6, 20195, Note_on_c, 4, 67, 0
6, 20195, Note_on_c, 4, 60, 0
6, 20195, Note_on_c, 4, 64, 0
6, 20220, Note_on_c, 4, 62, 100
6, 20220, Note_on_c, 4, 67, 100
6, 20220, Note_on_c, 4, 59, 100
6, 20250, Note_on_c, 4, 59, 0
6, 20250, Note_on_c, 4, 67, 0
6, 20250, Note_on_c, 4, 62, 0
6, 20250, Note_on_c, 4, 62, 100
6, 20250, Note_on_c, 4, 59, 100
6, 20250, Note_on_c, 4, 67, 100
6, 20280, Note_on_c, 4, 67, 0
6, 20280, Note_on_c, 4, 59, 0
6, 20280, Note_on_c, 4, 62, 0
6, 20280, Note_on_c, 4, 59, 100
6, 20280, Note_on_c, 4, 62, 100
6, 20280, Note_on_c, 4, 67, 100
6, 20315, Note_on_c, 4, 67, 0
6, 20315, Note_on_c, 4, 62, 0
6, 20315, Note_on_c, 4, 59, 0
6, 20340, Note_on_c, 4, 64, 100
6, 20340, Note_on_c, 4, 67, 100
6, 20340, Note_on_c, 4, 60, 100
6, 20370, Note_on_c, 4, 60, 0
6, 20370, Note_on_c, 4, 67, 0
6, 20370, Note_on_c, 4, 64, 0
6, 20370, Note_on_c, 4, 64, 100
6, 20370, Note_on_c, 4, 60, 100
6, 20370, Note_on_c, 4, 67, 100
6, 20400, Note_on_c, 4, 67, 0
6, 20400, Note_on_c, 4, 60, 0
6, 20400, Note_on_c, 4, 64, 0
6, 20400, Note_on_c, 4, 64, 100
6, 20400, Note_on_c, 4, 60, 100
6, 20400, Note_on_c, 4, 67, 100
6, 20435, Note_on_c, 4, 67, 0
6, 20435, Note_on_c, 4, 60, 0
6, 20435, Note_on_c, 4, 64, 0
6, 20460, Note_on_c, 4, 64, 100
6, 20460, Note_on_c, 4, 67, 100
6, 20460, Note_on_c, 4, 60, 100
6, 20490, Note_on_c, 4, 60, 0
6, 20490, Note_on_c, 4, 67, 0
6, 20490, Note_on_c, 4, 64, 0
6, 20490, Note_on_c, 4, 64, 100
6, 20490, Note_on_c, 4, 60, 100
6, 20490, Note_on_c, 4, 67, 100
6, 20520, Note_on_c, 4, 67, 0
6, 20520, Note_on_c, 4, 60, 0
6, 20520, Note_on_c, 4, 64, 0
6, 20520, Note_on_c, 4, 60, 100
6, 20520, Note_on_c, 4, 64, 100
6, 20520, Note_on_c, 4, 67, 100
6, 20555, Note_on_c, 4, 67, 0
6, 20555, Note_on_c, 4, 64, 0
6, 20555, Note_on_c, 4, 60, 0
6, 20580, Note_on_c, 4, 64, 100
6, 20580, Note_on_c, 4, 67, 100
6, 20580, Note_on_c, 4, 60, 100
6, 20610, Note_on_c, 4, 60, 0
6, 20610, Note_on_c, 4, 67, 0
6, 20610, Note_on_c, 4, 64, 0
6, 20610, Note_on_c, 4, 64, 100
6, 20610, Note_on_c, 4, 60, 100
6, 20610, Note_on_c, 4, 67, 100
6, 20640, Note_on_c, 4, 67, 0
6, 20640, Note_on_c, 4, 60, 0
6, 20640, Note_on_c, 4, 64, 0
6, 20640, Note_on_c, 4, 62, 100
6, 20640, Note_on_c, 4, 59, 100
6, 20640, Note_on_c, 4, 67, 100
6, 20675, Note_on_c, 4, 67, 0
6, 20675, Note_on_c, 4, 59, 0
6, 20675, Note_on_c, 4, 62, 0
6, 20700, Note_on_c, 4, 62, 100
6, 20700, Note_on_c, 4, 67, 100
6, 20700, Note_on_c, 4, 59, 100
6, 20730, Note_on_c, 4, 59, 0
6, 20730, Note_on_c, 4, 67, 0
6, 20730, Note_on_c, 4, 62, 0
6, 20730, Note_on_c, 4, 62, 100
6, 20730, Note_on_c, 4, 59, 100
6, 20730, Note_on_c, 4, 67, 100
6, 20760, Note_on_c, 4, 67, 0
6, 20760, Note_on_c, 4, 59, 0
6, 20760, Note_on_c, 4, 62, 0
6, 20760, Note_on_c, 4, 59, 100
6, 20760, Note_on_c, 4, 62, 100
6, 20760, Note_on_c, 4, 67, 100
6, 20795, Note_on_c, 4, 67, 0
6, 20795, Note_on_c, 4, 62, 0
6, 20795, Note_on_c, 4, 59, 0
6, 20820, Note_on_c, 4, 62, 100
6, 20820, Note_on_c, 4, 67, 100
6, 20820, Note_on_c, 4, 59, 100
6, 20850, Note_on_c, 4, 59, 0
6, 20850, Note_on_c, 4, 67, 0
6, 20850, Note_on_c, 4, 62, 0
6, 20850, Note_on_c, 4, 62, 100
6, 20850, Note_on_c, 4, 59, 100
6, 20850, Note_on_c, 4, 67, 100
6, 20880, Note_on_c, 4, 67, 0
6, 20880, Note_on_c, 4, 59, 0
6, 20880, Note_on_c, 4, 62, 0
6, 20880, Note_on_c, 4, 62, 100
6, 20880, Note_on_c, 4, 59, 100
6, 20880, Note_on_c, 4, 67, 100
6, 20915, Note_on_c, 4, 67, 0
6, 20915, Note_on_c, 4, 59, 0
6, 20915, Note_on_c, 4, 62, 0
6, 20940, Note_on_c, 4, 62, 100
6, 20940, Note_on_c, 4, 67, 100
6, 20940, Note_on_c, 4, 59, 100
6, 20970, Note_on_c, 4, 59, 0
6, 20970, Note_on_c, 4, 67, 0
6, 20970, Note_on_c, 4, 62, 0
6, 20970, Note_on_c, 4, 62, 100
6, 20970, Note_on_c, 4, 59, 100
6, 20970, Note_on_c, 4, 67, 100
6, 21000, Note_on_c, 4, 67, 0
6, 21000, Note_on_c, 4, 59, 0
6, 21000, Note_on_c, 4, 62, 0
6, 21000, Note_on_c, 4, 59, 100
6, 21000, Note_on_c, 4, 62, 100
6, 21000, Note_on_c, 4, 67, 100
6, 21035, Note_on_c, 4, 67, 0
6, 21035, Note_on_c, 4, 62, 0
6, 21035, Note_on_c, 4, 59, 0
6, 21060, Note_on_c, 4, 64, 100
6, 21060, Note_on_c, 4, 67, 100
6, 21060, Note_on_c, 4, 60, 100
6, 21090, Note_on_c, 4, 60, 0
6, 21090, Note_on_c, 4, 67, 0
6, 21090, Note_on_c, 4, 64, 0
6, 21090, Note_on_c, 4, 64, 100
6, 21090, Note_on_c, 4, 60, 100
6, 21090, Note_on_c, 4, 67, 100
6, 21120, Note_on_c, 4, 67, 0
6, 21120, Note_on_c, 4, 60, 0
6, 21120, Note_on_c, 4, 64, 0
6, 21120, Note_on_c, 4, 64, 100
6, 21120, Note_on_c, 4, 60, 100
6, 21120, Note_on_c, 4, 67, 100
6, 21155, Note_on_c, 4, 67, 0
6, 21155, Note_on_c, 4, 60, 0
6, 21155, Note_on_c, 4, 64, 0
6, 21180, Note_on_c, 4, 64, 100
6, 21180, Note_on_c, 4, 67, 100
6, 21180, Note_on_c, 4, 60, 100
6, 21210, Note_on_c, 4, 60, 0
6, 21210, Note_on_c, 4, 67, 0
6, 21210, Note_on_c, 4, 64, 0
6, 21210, Note_on_c, 4, 64, 100
6, 21210, Note_on_c, 4, 60, 100
6, 21210, Note_on_c, 4, 67, 100
6, 21240, Note_on_c, 4, 67, 0
6, 21240, Note_on_c, 4, 60, 0
6, 21240, Note_on_c, 4, 64, 0
6, 21240, Note_on_c, 4, 60, 100
6, 21240, Note_on_c, 4, 64, 100
6, 21240, Note_on_c, 4, 67, 100
6, 21275, Note_on_c, 4, 67, 0
6, 21275, Note_on_c, 4, 64, 0
6, 21275, Note_on_c, 4, 60, 0
6, 21300, Note_on_c, 4, 64, 100
6, 21300, Note_on_c, 4, 67, 100
6, 21300, Note_on_c, 4, 60, 100
6, 21330, Note_on_c, 4, 60, 0
6, 21330, Note_on_c, 4, 67, 0
6, 21330, Note_on_c, 4, 64, 0
6, 21330, Note_on_c, 4, 64, 100
6, 21330, Note_on_c, 4, 60, 100
6, 21330, Note_on_c, 4, 67, 100
6, 21360, Note_on_c, 4, 67, 0
6, 21360, Note_on_c, 4, 60, 0
6, 21360, Note_on_c, 4, 64, 0
6, 21360, Note_on_c, 4, 64, 100
6, 21360, Note_on_c, 4, 60, 100
6, 21360, Note_on_c, 4, 67, 100
6, 21395, Note_on_c, 4, 67, 0
6, 21395, Note_on_c, 4, 60, 0
6, 21395, Note_on_c, 4, 64, 0
6, 21420, Note_on_c, 4, 64, 100
6, 21420, Note_on_c, 4, 67, 100
6, 21420, Note_on_c, 4, 60, 100
6, 21450, Note_on_c, 4, 60, 0
6, 21450, Note_on_c, 4, 67, 0
6, 21450, Note_on_c, 4, 64, 0
6, 21450, Note_on_c, 4, 64, 100
6, 21450, Note_on_c, 4, 60, 100
6, 21450, Note_on_c, 4, 67, 100
6, 21480, Note_on_c, 4, 67, 0
6, 21480, Note_on_c, 4, 60, 0
6, 21480, Note_on_c, 4, 64, 0
6, 21480, Note_on_c, 4, 60, 100
6, 21480, Note_on_c, 4, 64, 100
6, 21480, Note_on_c, 4, 67, 100
6, 21515, Note_on_c, 4, 67, 0
6, 21515, Note_on_c, 4, 64, 0
6, 21515, Note_on_c, 4, 60, 0
6, 21540, Note_on_c, 4, 64, 100
6, 21540, Note_on_c, 4, 67, 100
6, 21540, Note_on_c, 4, 60, 100
6, 21570, Note_on_c, 4, 60, 0
6, 21570, Note_on_c, 4, 67, 0
6, 21570, Note_on_c, 4, 64, 0
6, 21570, Note_on_c, 4, 64, 100
6, 21570, Note_on_c, 4, 60, 100
6, 21570, Note_on_c, 4, 67, 100
6, 21600, Note_on_c, 4, 67, 0
6, 21600, Note_on_c, 4, 60, 0
6, 21600, Note_on_c, 4, 64, 0
6, 21600, Note_on_c, 4, 62, 100
6, 21600, Note_on_c, 4, 59, 100
6, 21600, Note_on_c, 4, 67, 100
6, 21635, Note_on_c, 4, 67, 0
6, 21635, Note_on_c, 4, 59, 0
6, 21635, Note_on_c, 4, 62, 0
6, 21660, Note_on_c, 4, 62, 100
6, 21660, Note_on_c, 4, 67, 100
6, 21660, Note_on_c, 4, 59, 100
6, 21690, Note_on_c, 4, 59, 0
6, 21690, Note_on_c, 4, 67, 0
6, 21690, Note_on_c, 4, 62, 0
6, 21690, Note_on_c, 4, 62, 100
6, 21690, Note_on_c, 4, 59, 100
6, 21690, Note_on_c, 4, 67, 100
6, 21720, Note_on_c, 4, 67, 0
6, 21720, Note_on_c, 4, 59, 0
6, 21720, Note_on_c, 4, 62, 0
6, 21720, Note_on_c, 4, 59, 100
6, 21720, Note_on_c, 4, 62, 100
6, 21720, Note_on_c, 4, 67, 100
6, 21755, Note_on_c, 4, 67, 0
6, 21755, Note_on_c, 4, 62, 0
6, 21755, Note_on_c, 4, 59, 0
6, 21780, Note_on_c, 4, 62, 100
6, 21780, Note_on_c, 4, 67, 100
6, 21780, Note_on_c, 4, 59, 100
6, 21810, Note_on_c, 4, 59, 0
6, 21810, Note_on_c, 4, 67, 0
6, 21810, Note_on_c, 4, 62, 0
6, 21810, Note_on_c, 4, 62, 100
6, 21810, Note_on_c, 4, 59, 100
6, 21810, Note_on_c, 4, 67, 100
6, 21840, Note_on_c, 4, 67, 0
6, 21840, Note_on_c, 4, 59, 0
6, 21840, Note_on_c, 4, 62, 0
6, 21840, Note_on_c, 4, 62, 100
6, 21840, Note_on_c, 4, 59, 100
6, 21840, Note_on_c, 4, 67, 100
6, 21875, Note_on_c, 4, 67, 0
6, 21875, Note_on_c, 4, 59, 0
6, 21875, Note_on_c, 4, 62, 0
6, 21900, Note_on_c, 4, 62, 100
6, 21900, Note_on_c, 4, 67, 100
6, 21900, Note_on_c, 4, 59, 100
6, 21930, Note_on_c, 4, 59, 0
6, 21930, Note_on_c, 4, 67, 0
6, 21930, Note_on_c, 4, 62, 0
6, 21930, Note_on_c, 4, 62, 100
6, 21930, Note_on_c, 4, 59, 100
6, 21930, Note_on_c, 4, 67, 100
6, 21960, Note_on_c, 4, 67, 0
6, 21960, Note_on_c, 4, 59, 0
6, 21960, Note_on_c, 4, 62, 0
6, 21960, Note_on_c, 4, 59, 100
6, 21960, Note_on_c, 4, 62, 100
6, 21960, Note_on_c, 4, 67, 100
6, 21995, Note_on_c, 4, 67, 0
6, 21995, Note_on_c, 4, 62, 0
6, 21995, Note_on_c, 4, 59, 0
6, 22020, Note_on_c, 4, 62, 100
6, 22020, Note_on_c, 4, 67, 100
6, 22020, Note_on_c, 4, 59, 100
6, 22050, Note_on_c, 4, 59, 0
6, 22050, Note_on_c, 4, 67, 0
6, 22050, Note_on_c, 4, 62, 0
6, 22050, Note_on_c, 4, 62, 100
6, 22050, Note_on_c, 4, 59, 100
6, 22050, Note_on_c, 4, 67, 100
6, 22080, Note_on_c, 4, 67, 0
6, 22080, Note_on_c, 4, 59, 0
6, 22080, Note_on_c, 4, 62, 0
6, 22080, Note_on_c, 4, 62, 100
6, 22080, Note_on_c, 4, 59, 100
6, 22080, Note_on_c, 4, 67, 100
6, 22115, Note_on_c, 4, 67, 0
6, 22115, Note_on_c, 4, 59, 0
6, 22115, Note_on_c, 4, 62, 0
6, 22140, Note_on_c, 4, 62, 100
6, 22140, Note_on_c, 4, 67, 100
6, 22140, Note_on_c, 4, 59, 100
6, 22170, Note_on_c, 4, 59, 0
6, 22170, Note_on_c, 4, 67, 0
6, 22170, Note_on_c, 4, 62, 0
6, 22170, Note_on_c, 4, 62, 100
6, 22170, Note_on_c, 4, 59, 100
6, 22170, Note_on_c, 4, 67, 100
6, 22200, Note_on_c, 4, 67, 0
6, 22200, Note_on_c, 4, 59, 0
6, 22200, Note_on_c, 4, 62, 0
6, 22200, Note_on_c, 4, 59, 100
6, 22200, Note_on_c, 4, 62, 100
6, 22200, Note_on_c, 4, 67, 100
6, 22235, Note_on_c, 4, 67, 0
6, 22235, Note_on_c, 4, 62, 0
6, 22235, Note_on_c, 4, 59, 0
6, 22260, Note_on_c, 4, 62, 100
6, 22260, Note_on_c, 4, 67, 100
6, 22260, Note_on_c, 4, 59, 100
6, 22290, Note_on_c, 4, 59, 0
6, 22290, Note_on_c, 4, 67, 0
6, 22290, Note_on_c, 4, 62, 0
6, 22290, Note_on_c, 4, 62, 100
6, 22290, Note_on_c, 4, 59, 100
6, 22290, Note_on_c, 4, 67, 100
6, 22320, Note_on_c, 4, 67, 0
6, 22320, Note_on_c, 4, 59, 0
6, 22320, Note_on_c, 4, 62, 0
6, 22320, Note_on_c, 4, 62, 100
6, 22320, Note_on_c, 4, 59, 100
6, 22320, Note_on_c, 4, 67, 100
6, 22355, Note_on_c, 4, 67, 0
6, 22355, Note_on_c, 4, 59, 0
6, 22355, Note_on_c, 4, 62, 0
6, 22380, Note_on_c, 4, 62, 100
6, 22380, Note_on_c, 4, 67, 100
6, 22380, Note_on_c, 4, 59, 100
6, 22410, Note_on_c, 4, 59, 0
6, 22410, Note_on_c, 4, 67, 0
6, 22410, Note_on_c, 4, 62, 0
6, 22410, Note_on_c, 4, 62, 100
6, 22410, Note_on_c, 4, 59, 100
6, 22410, Note_on_c, 4, 67, 100
6, 22440, Note_on_c, 4, 67, 0
6, 22440, Note_on_c, 4, 59, 0
6, 22440, Note_on_c, 4, 62, 0
6, 22440, Note_on_c, 4, 59, 100
6, 22440, Note_on_c, 4, 62, 100
6, 22440, Note_on_c, 4, 67, 100
6, 22475, Note_on_c, 4, 67, 0
6, 22475, Note_on_c, 4, 62, 0
6, 22475, Note_on_c, 4, 59, 0
6, 22500, Note_on_c, 4, 62, 100
6, 22500, Note_on_c, 4, 67, 100
6, 22500, Note_on_c, 4, 59, 100
6, 22530, Note_on_c, 4, 59, 0
6, 22530, Note_on_c, 4, 67, 0
6, 22530, Note_on_c, 4, 62, 0
6, 22530, Note_on_c, 4, 62, 100
6, 22530, Note_on_c, 4, 59, 100
6, 22530, Note_on_c, 4, 67, 100
6, 22560, Note_on_c, 4, 67, 0
6, 22560, Note_on_c, 4, 59, 0
6, 22560, Note_on_c, 4, 62, 0
6, 22560, Note_on_c, 4, 62, 100
6, 22560, Note_on_c, 4, 57, 100
6, 22560, Note_on_c, 4, 66, 100
6, 22595, Note_on_c, 4, 66, 0
6, 22595, Note_on_c, 4, 57, 0
6, 22595, Note_on_c, 4, 62, 0
6, 22620, Note_on_c, 4, 62, 100
6, 22620, Note_on_c, 4, 66, 100
6, 22620, Note_on_c, 4, 57, 100
6, 22650, Note_on_c, 4, 57, 0
6, 22650, Note_on_c, 4, 66, 0
6, 22650, Note_on_c, 4, 62, 0
6, 22650, Note_on_c, 4, 62, 100
6, 22650, Note_on_c, 4, 57, 100
6, 22650, Note_on_c, 4, 66, 100
6, 22680, Note_on_c, 4, 66, 0
6, 22680, Note_on_c, 4, 57, 0
6, 22680, Note_on_c, 4, 62, 0
6, 22680, Note_on_c, 4, 57, 100
6, 22680, Note_on_c, 4, 62, 100
6, 22680, Note_on_c, 4, 66, 100
6, 22715, Note_on_c, 4, 66, 0
6, 22715, Note_on_c, 4, 62, 0
6, 22715, Note_on_c, 4, 57, 0
6, 22740, Note_on_c, 4, 62, 100
6, 22740, Note_on_c, 4, 66, 100
6, 22740, Note_on_c, 4, 57, 100
6, 22770, Note_on_c, 4, 57, 0
6, 22770, Note_on_c, 4, 66, 0
6, 22770, Note_on_c, 4, 62, 0
6, 22770, Note_on_c, 4, 62, 100
6, 22770, Note_on_c, 4, 57, 100
6, 22770, Note_on_c, 4, 66, 100
6, 22800, Note_on_c, 4, 66, 0
6, 22800, Note_on_c, 4, 57, 0
6, 22800, Note_on_c, 4, 62, 0
6, 22800, Note_on_c, 4, 62, 100
6, 22800, Note_on_c, 4, 57, 100
6, 22800, Note_on_c, 4, 66, 100
6, 22835, Note_on_c, 4, 66, 0
6, 22835, Note_on_c, 4, 57, 0
6, 22835, Note_on_c, 4, 62, 0
6, 22860, Note_on_c, 4, 62, 100
6, 22860, Note_on_c, 4, 66, 100
6, 22860, Note_on_c, 4, 57, 100
6, 22890, Note_on_c, 4, 57, 0
6, 22890, Note_on_c, 4, 66, 0
6, 22890, Note_on_c, 4, 62, 0
6, 22890, Note_on_c, 4, 62, 100
6, 22890, Note_on_c, 4, 57, 100
6, 22890, Note_on_c, 4, 66, 100
6, 22920, Note_on_c, 4, 66, 0
6, 22920, Note_on_c, 4, 57, 0
6, 22920, Note_on_c, 4, 62, 0
6, 22920, Note_on_c, 4, 57, 100
6, 22920, Note_on_c, 4, 62, 100
6, 22920, Note_on_c, 4, 66, 100
6, 22955, Note_on_c, 4, 66, 0
6, 22955, Note_on_c, 4, 62, 0
6, 22955, Note_on_c, 4, 57, 0
6, 22980, Note_on_c, 4, 62, 100
6, 22980, Note_on_c, 4, 66, 100
6, 22980, Note_on_c, 4, 57, 100
6, 23010, Note_on_c, 4, 57, 0
6, 23010, Note_on_c, 4, 66, 0
6, 23010, Note_on_c, 4, 62, 0
6, 23010, Note_on_c, 4, 62, 100
6, 23010, Note_on_c, 4, 57, 100
6, 23010, Note_on_c, 4, 66, 100
6, 23040, Note_on_c, 4, 66, 0
6, 23040, Note_on_c, 4, 57, 0
6, 23040, Note_on_c, 4, 62, 0
6, 23040, Note_on_c, 4, 62, 100
6, 23040, Note_on_c, 4, 57, 100
6, 23040, Note_on_c, 4, 66, 100
6, 23075, Note_on_c, 4, 66, 0
6, 23075, Note_on_c, 4, 57, 0
6, 23075, Note_on_c, 4, 62, 0
6, 23100, Note_on_c, 4, 62, 100
6, 23100, Note_on_c, 4, 66, 100
6, 23100, Note_on_c, 4, 57, 100
6, 23130, Note_on_c, 4, 57, 0
6, 23130, Note_on_c, 4, 66, 0
6, 23130, Note_on_c, 4, 62, 0
6, 23130, Note_on_c, 4, 62, 100
6, 23130, Note_on_c, 4, 57, 100
6, 23130, Note_on_c, 4, 66, 100
6, 23160, Note_on_c, 4, 66, 0
6, 23160, Note_on_c, 4, 57, 0
6, 23160, Note_on_c, 4, 62, 0
6, 23160, Note_on_c, 4, 57, 100
6, 23160, Note_on_c, 4, 62, 100
6, 23160, Note_on_c, 4, 66, 100
6, 23195, Note_on_c, 4, 66, 0
6, 23195, Note_on_c, 4, 62, 0
6, 23195, Note_on_c, 4, 57, 0
6, 23220, Note_on_c, 4, 62, 100
6, 23220, Note_on_c, 4, 66, 100
6, 23220, Note_on_c, 4, 57, 100
6, 23250, Note_on_c, 4, 57, 0
6, 23250, Note_on_c, 4, 66, 0
6, 23250, Note_on_c, 4, 62, 0
6, 23250, Note_on_c, 4, 62, 100
6, 23250, Note_on_c, 4, 57, 100
6, 23250, Note_on_c, 4, 66, 100
6, 23280, Note_on_c, 4, 66, 0
6, 23280, Note_on_c, 4, 57, 0
6, 23280, Note_on_c, 4, 62, 0
6, 23280, Note_on_c, 4, 62, 100
6, 23280, Note_on_c, 4, 57, 100
6, 23280, Note_on_c, 4, 66, 100
6, 23315, Note_on_c, 4, 66, 0
6, 23315, Note_on_c, 4, 57, 0
6, 23315, Note_on_c, 4, 62, 0
6, 23340, Note_on_c, 4, 62, 100
6, 23340, Note_on_c, 4, 66, 100
6, 23340, Note_on_c, 4, 57, 100
6, 23370, Note_on_c, 4, 57, 0
6, 23370, Note_on_c, 4, 66, 0
6, 23370, Note_on_c, 4, 62, 0
6, 23370, Note_on_c, 4, 62, 100
6, 23370, Note_on_c, 4, 57, 100
6, 23370, Note_on_c, 4, 66, 100
6, 23400, Note_on_c, 4, 66, 0
6, 23400, Note_on_c, 4, 57, 0
6, 23400, Note_on_c, 4, 62, 0
6, 23400, Note_on_c, 4, 57, 100
6, 23400, Note_on_c, 4, 62, 100
6, 23400, Note_on_c, 4, 66, 100
6, 23435, Note_on_c, 4, 66, 0
6, 23435, Note_on_c, 4, 62, 0
6, 23435, Note_on_c, 4, 57, 0
6, 23460, Note_on_c, 4, 62, 100
6, 23460, Note_on_c, 4, 66, 100
6, 23460, Note_on_c, 4, 57, 100
6, 23490, Note_on_c, 4, 57, 0
6, 23490, Note_on_c, 4, 66, 0
6, 23490, Note_on_c, 4, 62, 0
6, 23490, Note_on_c, 4, 62, 100
6, 23490, Note_on_c, 4, 57, 100
6, 23490, Note_on_c, 4, 66, 100
6, 23520, Note_on_c, 4, 66, 0
6, 23520, Note_on_c, 4, 57, 0
6, 23520, Note_on_c, 4, 62, 0
6, 23520, Note_on_c, 4, 60, 100
6, 23520, Note_on_c, 4, 55, 100
6, 23520, Note_on_c, 4, 64, 100
6, 23555, Note_on_c, 4, 64, 0
6, 23555, Note_on_c, 4, 55, 0
6, 23555, Note_on_c, 4, 60, 0
6, 23580, Note_on_c, 4, 60, 100
6, 23580, Note_on_c, 4, 64, 100
6, 23580, Note_on_c, 4, 55, 100
6, 23610, Note_on_c, 4, 55, 0
6, 23610, Note_on_c, 4, 64, 0
6, 23610, Note_on_c, 4, 60, 0
6, 23610, Note_on_c, 4, 60, 100
6, 23610, Note_on_c, 4, 55, 100
6, 23610, Note_on_c, 4, 64, 100
6, 23640, Note_on_c, 4, 64, 0
6, 23640, Note_on_c, 4, 55, 0
6, 23640, Note_on_c, 4, 60, 0
6, 23640, Note_on_c, 4, 55, 100
6, 23640, Note_on_c, 4, 60, 100
6, 23640, Note_on_c, 4, 64, 100
6, 23675, Note_on_c, 4, 64, 0
6, 23675, Note_on_c, 4, 60, 0
6, 23675, Note_on_c, 4, 55, 0
6, 23700, Note_on_c, 4, 60, 100
6, 23700, Note_on_c, 4, 64, 100
6, 23700, Note_on_c, 4, 55, 100
6, 23730, Note_on_c, 4, 55, 0
6, 23730, Note_on_c, 4, 64, 0
6, 23730, Note_on_c, 4, 60, 0
6, 23730, Note_on_c, 4, 60, 100
6, 23730, Note_on_c, 4, 55, 100
6, 23730, Note_on_c, 4, 64, 100
6, 23760, Note_on_c, 4, 64, 0
6, 23760, Note_on_c, 4, 55, 0
6, 23760, Note_on_c, 4, 60, 0
6, 23760, Note_on_c, 4, 60, 100
6, 23760, Note_on_c, 4, 55, 100
6, 23760, Note_on_c, 4, 64, 100
6, 23795, Note_on_c, 4, 64, 0
6, 23795, Note_on_c, 4, 55, 0
6, 23795, Note_on_c, 4, 60, 0
6, 23820, Note_on_c, 4, 60, 100
6, 23820, Note_on_c, 4, 64, 100
6, 23820, Note_on_c, 4, 55, 100
6, 23850, Note_on_c, 4, 55, 0
6, 23850, Note_on_c, 4, 64, 0
6, 23850, Note_on_c, 4, 60, 0
6, 23850, Note_on_c, 4, 60, 100
6, 23850, Note_on_c, 4, 55, 100
6, 23850, Note_on_c, 4, 64, 100
6, 23880, Note_on_c, 4, 64, 0
6, 23880, Note_on_c, 4, 55, 0
6, 23880, Note_on_c, 4, 60, 0
6, 23880, Note_on_c, 4, 55, 100
6, 23880, Note_on_c, 4, 60, 100
6, 23880, Note_on_c, 4, 64, 100
6, 23915, Note_on_c, 4, 64, 0
6, 23915, Note_on_c, 4, 60, 0
6, 23915, Note_on_c, 4, 55, 0
6, 23940, Note_on_c, 4, 60, 100
6, 23940, Note_on_c, 4, 64, 100
6, 23940, Note_on_c, 4, 55, 100
6, 23970, Note_on_c, 4, 55, 0
6, 23970, Note_on_c, 4, 64, 0
6, 23970, Note_on_c, 4, 60, 0
6, 23970, Note_on_c, 4, 60, 100
6, 23970, Note_on_c, 4, 55, 100
6, 23970, Note_on_c, 4, 64, 100
6, 24000, Note_on_c, 4, 64, 0
6, 24000, Note_on_c, 4, 55, 0
6, 24000, Note_on_c, 4, 60, 0
6, 24000, Note_on_c, 4, 60, 100
6, 24000, Note_on_c, 4, 55, 100
6, 24000, Note_on_c, 4, 64, 100
6, 24035, Note_on_c, 4, 64, 0
6, 24035, Note_on_c, 4, 55, 0
6, 24035, Note_on_c, 4, 60, 0
6, 24060, Note_on_c, 4, 60, 100
6, 24060, Note_on_c, 4, 64, 100
6, 24060, Note_on_c, 4, 55, 100
6, 24090, Note_on_c, 4, 55, 0
6, 24090, Note_on_c, 4, 64, 0
6, 24090, Note_on_c, 4, 60, 0
6, 24090, Note_on_c, 4, 60, 100
6, 24090, Note_on_c, 4, 55, 100
6, 24090, Note_on_c, 4, 64, 100
6, 24120, Note_on_c, 4, 64, 0
6, 24120, Note_on_c, 4, 55, 0
6, 24120, Note_on_c, 4, 60, 0
6, 24120, Note_on_c, 4, 55, 100
6, 24120, Note_on_c, 4, 60, 100
6, 24120, Note_on_c, 4, 64, 100
6, 24155, Note_on_c, 4, 64, 0
6, 24155, Note_on_c, 4, 60, 0
6, 24155, Note_on_c, 4, 55, 0
6, 24180, Note_on_c, 4, 60, 100
6, 24180, Note_on_c, 4, 64, 100
6, 24180, Note_on_c, 4, 55, 100
6, 24210, Note_on_c, 4, 55, 0
6, 24210, Note_on_c, 4, 64, 0
6, 24210, Note_on_c, 4, 60, 0
6, 24210, Note_on_c, 4, 60, 100
6, 24210, Note_on_c, 4, 55, 100
6, 24210, Note_on_c, 4, 64, 100
6, 24240, Note_on_c, 4, 64, 0
6, 24240, Note_on_c, 4, 55, 0
6, 24240, Note_on_c, 4, 60, 0
6, 24240, Note_on_c, 4, 60, 100
6, 24240, Note_on_c, 4, 55, 100
6, 24240, Note_on_c, 4, 64, 100
6, 24275, Note_on_c, 4, 64, 0
6, 24275, Note_on_c, 4, 55, 0
6, 24275, Note_on_c, 4, 60, 0
6, 24300, Note_on_c, 4, 60, 100
6, 24300, Note_on_c, 4, 64, 100
6, 24300, Note_on_c, 4, 55, 100
6, 24330, Note_on_c, 4, 55, 0
6, 24330, Note_on_c, 4, 64, 0
6, 24330, Note_on_c, 4, 60, 0
6, 24330, Note_on_c, 4, 60, 100
6, 24330, Note_on_c, 4, 55, 100
6, 24330, Note_on_c, 4, 64, 100
6, 24360, Note_on_c, 4, 64, 0
6, 24360, Note_on_c, 4, 55, 0
6, 24360, Note_on_c, 4, 60, 0
6, 24360, Note_on_c, 4, 55, 100
6, 24360, Note_on_c, 4, 60, 100
6, 24360, Note_on_c, 4, 64, 100
6, 24395, Note_on_c, 4, 64, 0
6, 24395, Note_on_c, 4, 60, 0
6, 24395, Note_on_c, 4, 55, 0
6, 24420, Note_on_c, 4, 60, 100
6, 24420, Note_on_c, 4, 64, 100
6, 24420, Note_on_c, 4, 55, 100
6, 24450, Note_on_c, 4, 55, 0
6, 24450, Note_on_c, 4, 64, 0
6, 24450, Note_on_c, 4, 60, 0
6, 24450, Note_on_c, 4, 60, 100
6, 24450, Note_on_c, 4, 55, 100
6, 24450, Note_on_c, 4, 64, 100
6, 24480, Note_on_c, 4, 64, 0
6, 24480, Note_on_c, 4, 55, 0
6, 24480, Note_on_c, 4, 60, 0
6, 26400, Note_on_c, 4, 62, 100
6, 26400, Note_on_c, 4, 59, 100
6, 26400, Note_on_c, 4, 67, 100
6, 26435, Note_on_c, 4, 67, 0
6, 26435, Note_on_c, 4, 59, 0
6, 26435, Note_on_c, 4, 62, 0
6, 26460, Note_on_c, 4, 62, 100
6, 26460, Note_on_c, 4, 67, 100
6, 26460, Note_on_c, 4, 59, 100
6, 26490, Note_on_c, 4, 59, 0
6, 26490, Note_on_c, 4, 67, 0
6, 26490, Note_on_c, 4, 62, 0
6, 26490, Note_on_c, 4, 62, 100
6, 26490, Note_on_c, 4, 59, 100
6, 26490, Note_on_c, 4, 67, 100
6, 26520, Note_on_c, 4, 67, 0
6, 26520, Note_on_c, 4, 59, 0
6, 26520, Note_on_c, 4, 62, 0
6, 26520, Note_on_c, 4, 59, 100
6, 26520, Note_on_c, 4, 62, 100
6, 26520, Note_on_c, 4, 67, 100
6, 26555, Note_on_c, 4, 67, 0
6, 26555, Note_on_c, 4, 62, 0
6, 26555, Note_on_c, 4, 59, 0
6, 26580, Note_on_c, 4, 62, 100
6, 26580, Note_on_c, 4, 67, 100
6, 26580, Note_on_c, 4, 59, 100
6, 26610, Note_on_c, 4, 59, 0
6, 26610, Note_on_c, 4, 67, 0
6, 26610, Note_on_c, 4, 62, 0
6, 26610, Note_on_c, 4, 62, 100
6, 26610, Note_on_c, 4, 59, 100
6, 26610, Note_on_c, 4, 67, 100
6, 26640, Note_on_c, 4, 67, 0
6, 26640, Note_on_c, 4, 59, 0
6, 26640, Note_on_c, 4, 62, 0
6, 26640, Note_on_c, 4, 62, 100
6, 26640, Note_on_c, 4, 59, 100
6, 26640, Note_on_c, 4, 67, 100
6, 26675, Note_on_c, 4, 67, 0
6, 26675, Note_on_c, 4, 59, 0
6, 26675, Note_on_c, 4, 62, 0
6, 26700, Note_on_c, 4, 62, 100
6, 26700, Note_on_c, 4, 67, 100
6, 26700, Note_on_c, 4, 59, 100
6, 26730, Note_on_c, 4, 59, 0
6, 26730, Note_on_c, 4, 67, 0
6, 26730, Note_on_c, 4, 62, 0
6, 26730, Note_on_c, 4, 62, 100
6, 26730, Note_on_c, 4, 59, 100
6, 26730, Note_on_c, 4, 67, 100
6, 26760, Note_on_c, 4, 67, 0
6, 26760, Note_on_c, 4, 59, 0
6, 26760, Note_on_c, 4, 62, 0
6, 26760, Note_on_c, 4, 59, 100
6, 26760, Note_on_c, 4, 62, 100
6, 26760, Note_on_c, 4, 67, 100
6, 26795, Note_on_c, 4, 67, 0
6, 26795, Note_on_c, 4, 62, 0
6, 26795, Note_on_c, 4, 59, 0
6, 26820, Note_on_c, 4, 62, 100
6, 26820, Note_on_c, 4, 67, 100
6, 26820, Note_on_c, 4, 59, 100
6, 26850, Note_on_c, 4, 59, 0
6, 26850, Note_on_c, 4, 67, 0
6, 26850, Note_on_c, 4, 62, 0
6, 26850, Note_on_c, 4, 62, 100
6, 26850, Note_on_c, 4, 59, 100
6, 26850, Note_on_c, 4, 67, 100
6, 26880, Note_on_c, 4, 67, 0
6, 26880, Note_on_c, 4, 59, 0
6, 26880, Note_on_c, 4, 62, 0
6, 26880, Note_on_c, 4, 62, 100
6, 26880, Note_on_c, 4, 59, 100
6, 26880, Note_on_c, 4, 67, 100
6, 26915, Note_on_c, 4, 67, 0
6, 26915, Note_on_c, 4, 59, 0
6, 26915, Note_on_c, 4, 62, 0
6, 26940, Note_on_c, 4, 62, 100
6, 26940, Note_on_c, 4, 67, 100
6, 26940, Note_on_c, 4, 59, 100
6, 26970, Note_on_c, 4, 59, 0
6, 26970, Note_on_c, 4, 67, 0
6, 26970, Note_on_c, 4, 62, 0
6, 26970, Note_on_c, 4, 62, 100
6, 26970, Note_on_c, 4, 59, 100
6, 26970, Note_on_c, 4, 67, 100
6, 27000, Note_on_c, 4, 67, 0
6, 27000, Note_on_c, 4, 59, 0
6, 27000, Note_on_c, 4, 62, 0
6, 27000, Note_on_c, 4, 59, 100
6, 27000, Note_on_c, 4, 62, 100
6, 27000, Note_on_c, 4, 67, 100
6, 27035, Note_on_c, 4, 67, 0
6, 27035, Note_on_c, 4, 62, 0
6, 27035, Note_on_c, 4, 59, 0
6, 27060, Note_on_c, 4, 62, 100
6, 27060, Note_on_c, 4, 67, 100
6, 27060, Note_on_c, 4, 59, 100
6, 27090, Note_on_c, 4, 59, 0
6, 27090, Note_on_c, 4, 67, 0
6, 27090, Note_on_c, 4, 62, 0
6, 27090, Note_on_c, 4, 62, 100
6, 27090, Note_on_c, 4, 59, 100
6, 27090, Note_on_c, 4, 67, 100
6, 27120, Note_on_c, 4, 67, 0
6, 27120, Note_on_c, 4, 59, 0
6, 27120, Note_on_c, 4, 62, 0
6, 27120, Note_on_c, 4, 62, 100
6, 27120, Note_on_c, 4, 59, 100
6, 27120, Note_on_c, 4, 67, 100
6, 27155, Note_on_c, 4, 67, 0
6, 27155, Note_on_c, 4, 59, 0
6, 27155, Note_on_c, 4, 62, 0
6, 27180, Note_on_c, 4, 62, 100
6, 27180, Note_on_c, 4, 67, 100
6, 27180, Note_on_c, 4, 59, 100
6, 27210, Note_on_c, 4, 59, 0
6, 27210, Note_on_c, 4, 67, 0
6, 27210, Note_on_c, 4, 62, 0
6, 27210, Note_on_c, 4, 62, 100
6, 27210, Note_on_c, 4, 59, 100
6, 27210, Note_on_c, 4, 67, 100
6, 27240, Note_on_c, 4, 67, 0
6, 27240, Note_on_c, 4, 59, 0
6, 27240, Note_on_c, 4, 62, 0
6, 27240, Note_on_c, 4, 59, 100
6, 27240, Note_on_c, 4, 62, 100
6, 27240, Note_on_c, 4, 67, 100
6, 27275, Note_on_c, 4, 67, 0
6, 27275, Note_on_c, 4, 62, 0
6, 27275, Note_on_c, 4, 59, 0
6, 27300, Note_on_c, 4, 62, 100
6, 27300, Note_on_c, 4, 67, 100
6, 27300, Note_on_c, 4, 59, 100
6, 27330, Note_on_c, 4, 59, 0
6, 27330, Note_on_c, 4, 67, 0
6, 27330, Note_on_c, 4, 62, 0
6, 27330, Note_on_c, 4, 62, 100
6, 27330, Note_on_c, 4, 59, 100
6, 27330, Note_on_c, 4, 67, 100
6, 27360, Note_on_c, 4, 67, 0
6, 27360, Note_on_c, 4, 59, 0
6, 27360, Note_on_c, 4, 62, 0
6, 27360, Note_on_c, 4, 62, 100
6, 27360, Note_on_c, 4, 57, 100
6, 27360, Note_on_c, 4, 66, 100
6, 27395, Note_on_c, 4, 66, 0
6, 27395, Note_on_c, 4, 57, 0
6, 27395, Note_on_c, 4, 62, 0
6, 27420, Note_on_c, 4, 62, 100
6, 27420, Note_on_c, 4, 66, 100
6, 27420, Note_on_c, 4, 57, 100
6, 27450, Note_on_c, 4, 57, 0
6, 27450, Note_on_c, 4, 66, 0
6, 27450, Note_on_c, 4, 62, 0
6, 27450, Note_on_c, 4, 62, 100
6, 27450, Note_on_c, 4, 57, 100
6, 27450, Note_on_c, 4, 66, 100
6, 27480, Note_on_c, 4, 66, 0
6, 27480, Note_on_c, 4, 57, 0
6, 27480, Note_on_c, 4, 62, 0
6, 27480, Note_on_c, 4, 57, 100
6, 27480, Note_on_c, 4, 62, 100
6, 27480, Note_on_c, 4, 66, 100
6, 27515, Note_on_c, 4, 66, 0
6, 27515, Note_on_c, 4, 62, 0
6, 27515, Note_on_c, 4, 57, 0
6, 27540, Note_on_c, 4, 62, 100
6, 27540, Note_on_c, 4, 66, 100
6, 27540, Note_on_c, 4, 57, 100
6, 27570, Note_on_c, 4, 57, 0
6, 27570, Note_on_c, 4, 66, 0
6, 27570, Note_on_c, 4, 62, 0
6, 27570, Note_on_c, 4, 62, 100
6, 27570, Note_on_c, 4, 57, 100
6, 27570, Note_on_c, 4, 66, 100
6, 27600, Note_on_c, 4, 66, 0
6, 27600, Note_on_c, 4, 57, 0
6, 27600, Note_on_c, 4, 62, 0
6, 27600, Note_on_c, 4, 62, 100
6, 27600, Note_on_c, 4, 57, 100
6, 27600, Note_on_c, 4, 66, 100
6, 27635, Note_on_c, 4, 66, 0
6, 27635, Note_on_c, 4, 57, 0
6, 27635, Note_on_c, 4, 62, 0
6, 27660, Note_on_c, 4, 62, 100
6, 27660, Note_on_c, 4, 66, 100
6, 27660, Note_on_c, 4, 57, 100
6, 27690, Note_on_c, 4, 57, 0
6, 27690, Note_on_c, 4, 66, 0
6, 27690, Note_on_c, 4, 62, 0
6, 27690, Note_on_c, 4, 62, 100
6, 27690, Note_on_c, 4, 57, 100
6, 27690, Note_on_c, 4, 66, 100
6, 27720, Note_on_c, 4, 66, 0
6, 27720, Note_on_c, 4, 57, 0
6, 27720, Note_on_c, 4, 62, 0
6, 27720, Note_on_c, 4, 57, 100
6, 27720, Note_on_c, 4, 62, 100
6, 27720, Note_on_c, 4, 66, 100
6, 27755, Note_on_c, 4, 66, 0
6, 27755, Note_on_c, 4, 62, 0
6, 27755, Note_on_c, 4, 57, 0
6, 27780, Note_on_c, 4, 62, 100
6, 27780, Note_on_c, 4, 66, 100
6, 27780, Note_on_c, 4, 57, 100
6, 27810, Note_on_c, 4, 57, 0
6, 27810, Note_on_c, 4, 66, 0
6, 27810, Note_on_c, 4, 62, 0
6, 27810, Note_on_c, 4, 62, 100
6, 27810, Note_on_c, 4, 57, 100
6, 27810, Note_on_c, 4, 66, 100
6, 27840, Note_on_c, 4, 66, 0
6, 27840, Note_on_c, 4, 57, 0
6, 27840, Note_on_c, 4, 62, 0
6, 27840, Note_on_c, 4, 62, 100
6, 27840, Note_on_c, 4, 57, 100
6, 27840, Note_on_c, 4, 66, 100
6, 27875, Note_on_c, 4, 66, 0
6, 27875, Note_on_c, 4, 57, 0
6, 27875, Note_on_c, 4, 62, 0
6, 27900, Note_on_c, 4, 62, 100
6, 27900, Note_on_c, 4, 66, 100
6, 27900, Note_on_c, 4, 57, 100
6, 27930, Note_on_c, 4, 57, 0
6, 27930, Note_on_c, 4, 66, 0
6, 27930, Note_on_c, 4, 62, 0
6, 27930, Note_on_c, 4, 62, 100
6, 27930, Note_on_c, 4, 57, 100
6, 27930, Note_on_c, 4, 66, 100
6, 27960, Note_on_c, 4, 66, 0
6, 27960, Note_on_c, 4, 57, 0
6, 27960, Note_on_c, 4, 62, 0
6, 27960, Note_on_c, 4, 57, 100
6, 27960, Note_on_c, 4, 62, 100
6, 27960, Note_on_c, 4, 66, 100
6, 27995, Note_on_c, 4, 66, 0
6, 27995, Note_on_c, 4, 62, 0
6, 27995, Note_on_c, 4, 57, 0
6, 28020, Note_on_c, 4, 62, 100
6, 28020, Note_on_c, 4, 66, 100
6, 28020, Note_on_c, 4, 57, 100
6, 28050, Note_on_c, 4, 57, 0
6, 28050, Note_on_c, 4, 66, 0
6, 28050, Note_on_c, 4, 62, 0
6, 28050, Note_on_c, 4, 62, 100
6, 28050, Note_on_c, 4, 57, 100
6, 28050, Note_on_c, 4, 66, 100
6, 28080, Note_on_c, 4, 66, 0
6, 28080, Note_on_c, 4, 57, 0
6, 28080, Note_on_c, 4, 62, 0
6, 28080, Note_on_c, 4, 62, 100
6, 28080, Note_on_c, 4, 57, 100
6, 28080, Note_on_c, 4, 66, 100
6, 28115, Note_on_c, 4, 66, 0
6, 28115, Note_on_c, 4, 57, 0
6, 28115, Note_on_c, 4, 62, 0
6, 28140, Note_on_c, 4, 62, 100
6, 28140, Note_on_c, 4, 66, 100
6, 28140, Note_on_c, 4, 57, 100
6, 28170, Note_on_c, 4, 57, 0
6, 28170, Note_on_c, 4, 66, 0
6, 28170, Note_on_c, 4, 62, 0
6, 28170, Note_on_c, 4, 62, 100
6, 28170, Note_on_c, 4, 57, 100
6, 28170, Note_on_c, 4, 66, 100
6, 28200, Note_on_c, 4, 66, 0
6, 28200, Note_on_c, 4, 57, 0
6, 28200, Note_on_c, 4, 62, 0
6, 28200, Note_on_c, 4, 57, 100
6, 28200, Note_on_c, 4, 62, 100
6, 28200, Note_on_c, 4, 66, 100
6, 28235, Note_on_c, 4, 66, 0
6, 28235, Note_on_c, 4, 62, 0
6, 28235, Note_on_c, 4, 57, 0
6, 28260, Note_on_c, 4, 62, 100
6, 28260, Note_on_c, 4, 66, 100
6, 28260, Note_on_c, 4, 57, 100
6, 28290, Note_on_c, 4, 57, 0
6, 28290, Note_on_c, 4, 66, 0
6, 28290, Note_on_c, 4, 62, 0
6, 28290, Note_on_c, 4, 62, 100
6, 28290, Note_on_c, 4, 57, 100
6, 28290, Note_on_c, 4, 66, 100
6, 28320, Note_on_c, 4, 66, 0
6, 28320, Note_on_c, 4, 57, 0
6, 28320, Note_on_c, 4, 62, 0
6, 28320, Note_on_c, 4, 60, 100
6, 28320, Note_on_c, 4, 55, 100
6, 28320, Note_on_c, 4, 64, 100
6, 28355, Note_on_c, 4, 64, 0
6, 28355, Note_on_c, 4, 55, 0
6, 28355, Note_on_c, 4, 60, 0
6, 28380, Note_on_c, 4, 60, 100
6, 28380, Note_on_c, 4, 64, 100
6, 28380, Note_on_c, 4, 55, 100
6, 28410, Note_on_c, 4, 55, 0
6, 28410, Note_on_c, 4, 64, 0
6, 28410, Note_on_c, 4, 60, 0
6, 28410, Note_on_c, 4, 60, 100
6, 28410, Note_on_c, 4, 55, 100
6, 28410, Note_on_c, 4, 64, 100
6, 28440, Note_on_c, 4, 64, 0
6, 28440, Note_on_c, 4, 55, 0
6, 28440, Note_on_c, 4, 60, 0
6, 28440, Note_on_c, 4, 55, 100
6, 28440, Note_on_c, 4, 60, 100
6, 28440, Note_on_c, 4, 64, 100
6, 28475, Note_on_c, 4, 64, 0
6, 28475, Note_on_c, 4, 60, 0
6, 28475, Note_on_c, 4, 55, 0
6, 28500, Note_on_c, 4, 60, 100
6, 28500, Note_on_c, 4, 64, 100
6, 28500, Note_on_c, 4, 55, 100
6, 28530, Note_on_c, 4, 55, 0
6, 28530, Note_on_c, 4, 64, 0
6, 28530, Note_on_c, 4, 60, 0
6, 28530, Note_on_c, 4, 60, 100
6, 28530, Note_on_c, 4, 55, 100
6, 28530, Note_on_c, 4, 64, 100
6, 28560, Note_on_c, 4, 64, 0
6, 28560, Note_on_c, 4, 55, 0
6, 28560, Note_on_c, 4, 60, 0
6, 28560, Note_on_c, 4, 60, 100
6, 28560, Note_on_c, 4, 55, 100
6, 28560, Note_on_c, 4, 64, 100
6, 28595, Note_on_c, 4, 64, 0
6, 28595, Note_on_c, 4, 55, 0
6, 28595, Note_on_c, 4, 60, 0
6, 28620, Note_on_c, 4, 60, 100
6, 28620, Note_on_c, 4, 64, 100
6, 28620, Note_on_c, 4, 55, 100
6, 28650, Note_on_c, 4, 55, 0
6, 28650, Note_on_c, 4, 64, 0
6, 28650, Note_on_c, 4, 60, 0
6, 28650, Note_on_c, 4, 60, 100
6, 28650, Note_on_c, 4, 55, 100
6, 28650, Note_on_c, 4, 64, 100
6, 28680, Note_on_c, 4, 64, 0
6, 28680, Note_on_c, 4, 55, 0
6, 28680, Note_on_c, 4, 60, 0
6, 28680, Note_on_c, 4, 55, 100
6, 28680, Note_on_c, 4, 60, 100
6, 28680, Note_on_c, 4, 64, 100
6, 28715, Note_on_c, 4, 64, 0
6, 28715, Note_on_c, 4, 60, 0
6, 28715, Note_on_c, 4, 55, 0
6, 28740, Note_on_c, 4, 60, 100
6, 28740, Note_on_c, 4, 64, 100
6, 28740, Note_on_c, 4, 55, 100
6, 28770, Note_on_c, 4, 55, 0
6, 28770, Note_on_c, 4, 64, 0
6, 28770, Note_on_c, 4, 60, 0
6, 28770, Note_on_c, 4, 60, 100
6, 28770, Note_on_c, 4, 55, 100
6, 28770, Note_on_c, 4, 64, 100
6, 28800, Note_on_c, 4, 64, 0
6, 28800, Note_on_c, 4, 55, 0
6, 28800, Note_on_c, 4, 60, 0
6, 28800, Note_on_c, 4, 60, 100
6, 28800, Note_on_c, 4, 55, 100
6, 28800, Note_on_c, 4, 64, 100
6, 28835, Note_on_c, 4, 64, 0
6, 28835, Note_on_c, 4, 55, 0
6, 28835, Note_on_c, 4, 60, 0
6, 28860, Note_on_c, 4, 60, 100
6, 28860, Note_on_c, 4, 64, 100
6, 28860, Note_on_c, 4, 55, 100
6, 28890, Note_on_c, 4, 55, 0
6, 28890, Note_on_c, 4, 64, 0
6, 28890, Note_on_c, 4, 60, 0
6, 28890, Note_on_c, 4, 60, 100
6, 28890, Note_on_c, 4, 55, 100
6, 28890, Note_on_c, 4, 64, 100
6, 28920, Note_on_c, 4, 64, 0
6, 28920, Note_on_c, 4, 55, 0
6, 28920, Note_on_c, 4, 60, 0
6, 28920, Note_on_c, 4, 55, 100
6, 28920, Note_on_c, 4, 60, 100
6, 28920, Note_on_c, 4, 64, 100
6, 28955, Note_on_c, 4, 64, 0
6, 28955, Note_on_c, 4, 60, 0
6, 28955, Note_on_c, 4, 55, 0
6, 28980, Note_on_c, 4, 60, 100
6, 28980, Note_on_c, 4, 64, 100
6, 28980, Note_on_c, 4, 55, 100
6, 29010, Note_on_c, 4, 55, 0
6, 29010, Note_on_c, 4, 64, 0
6, 29010, Note_on_c, 4, 60, 0
6, 29010, Note_on_c, 4, 60, 100
6, 29010, Note_on_c, 4, 55, 100
6, 29010, Note_on_c, 4, 64, 100
6, 29040, Note_on_c, 4, 64, 0
6, 29040, Note_on_c, 4, 55, 0
6, 29040, Note_on_c, 4, 60, 0
6, 29040, Note_on_c, 4, 60, 100
6, 29040, Note_on_c, 4, 55, 100
6, 29040, Note_on_c, 4, 64, 100
6, 29075, Note_on_c, 4, 64, 0
6, 29075, Note_on_c, 4, 55, 0
6, 29075, Note_on_c, 4, 60, 0
6, 29100, Note_on_c, 4, 60, 100
6, 29100, Note_on_c, 4, 64, 100
6, 29100, Note_on_c, 4, 55, 100
6, 29130, Note_on_c, 4, 55, 0
6, 29130, Note_on_c, 4, 64, 0
6, 29130, Note_on_c, 4, 60, 0
6, 29130, Note_on_c, 4, 60, 100
6, 29130, Note_on_c, 4, 55, 100
6, 29130, Note_on_c, 4, 64, 100
6, 29160, Note_on_c, 4, 64, 0
6, 29160, Note_on_c, 4, 55, 0
6, 29160, Note_on_c, 4, 60, 0
6, 29160, Note_on_c, 4, 55, 100
6, 29160, Note_on_c, 4, 60, 100
6, 29160, Note_on_c, 4, 64, 100
6, 29195, Note_on_c, 4, 64, 0
6, 29195, Note_on_c, 4, 60, 0
6, 29195, Note_on_c, 4, 55, 0
6, 29220, Note_on_c, 4, 60, 100
6, 29220, Note_on_c, 4, 64, 100
6, 29220, Note_on_c, 4, 55, 100
6, 29250, Note_on_c, 4, 55, 0
6, 29250, Note_on_c, 4, 64, 0
6, 29250, Note_on_c, 4, 60, 0
6, 29250, Note_on_c, 4, 60, 100
6, 29250, Note_on_c, 4, 55, 100
6, 29250, Note_on_c, 4, 64, 100
6, 29280, Note_on_c, 4, 64, 0
6, 29280, Note_on_c, 4, 55, 0
6, 29280, Note_on_c, 4, 60, 0
6, 29280, Note_on_c, 4, 62, 100
6, 29280, Note_on_c, 4, 59, 100
6, 29280, Note_on_c, 4, 67, 100
6, 29315, Note_on_c, 4, 67, 0
6, 29315, Note_on_c, 4, 59, 0
6, 29315, Note_on_c, 4, 62, 0
6, 29340, Note_on_c, 4, 62, 100
6, 29340, Note_on_c, 4, 67, 100
6, 29340, Note_on_c, 4, 59, 100
6, 29370, Note_on_c, 4, 59, 0
6, 29370, Note_on_c, 4, 67, 0
6, 29370, Note_on_c, 4, 62, 0
6, 29370, Note_on_c, 4, 62, 100
6, 29370, Note_on_c, 4, 59, 100
6, 29370, Note_on_c, 4, 67, 100
6, 29400, Note_on_c, 4, 67, 0
6, 29400, Note_on_c, 4, 59, 0
6, 29400, Note_on_c, 4, 62, 0
6, 29400, Note_on_c, 4, 59, 100
6, 29400, Note_on_c, 4, 62, 100
6, 29400, Note_on_c, 4, 67, 100
6, 29435, Note_on_c, 4, 67, 0
6, 29435, Note_on_c, 4, 62, 0
6, 29435, Note_on_c, 4, 59, 0
6, 29460, Note_on_c, 4, 62, 100
6, 29460, Note_on_c, 4, 67, 100
6, 29460, Note_on_c, 4, 59, 100
6, 29490, Note_on_c, 4, 59, 0
6, 29490, Note_on_c, 4, 67, 0
6, 29490, Note_on_c, 4, 62, 0
6, 29490, Note_on_c, 4, 62, 100
6, 29490, Note_on_c, 4, 59, 100
6, 29490, Note_on_c, 4, 67, 100
6, 29520, Note_on_c, 4, 67, 0
6, 29520, Note_on_c, 4, 59, 0
6, 29520, Note_on_c, 4, 62, 0
6, 29520, Note_on_c, 4, 62, 100
6, 29520, Note_on_c, 4, 59, 100
6, 29520, Note_on_c, 4, 67, 100
6, 29555, Note_on_c, 4, 67, 0
6, 29555, Note_on_c, 4, 59, 0
6, 29555, Note_on_c, 4, 62, 0
6, 29580, Note_on_c, 4, 62, 100
6, 29580, Note_on_c, 4, 67, 100
6, 29580, Note_on_c, 4, 59, 100
6, 29610, Note_on_c, 4, 59, 0
6, 29610, Note_on_c, 4, 67, 0
6, 29610, Note_on_c, 4, 62, 0
6, 29610, Note_on_c, 4, 62, 100
6, 29610, Note_on_c, 4, 59, 100
6, 29610, Note_on_c, 4, 67, 100
6, 29640, Note_on_c, 4, 67, 0
6, 29640, Note_on_c, 4, 59, 0
6, 29640, Note_on_c, 4, 62, 0
6, 29640, Note_on_c, 4, 59, 100
6, 29640, Note_on_c, 4, 62, 100
6, 29640, Note_on_c, 4, 67, 100
6, 29675, Note_on_c, 4, 67, 0
6, 29675, Note_on_c, 4, 62, 0
6, 29675, Note_on_c, 4, 59, 0
6, 29700, Note_on_c, 4, 64, 100
6, 29700, Note_on_c, 4, 67, 100
6, 29700, Note_on_c, 4, 60, 100
6, 29730, Note_on_c, 4, 60, 0
6, 29730, Note_on_c, 4, 67, 0
6, 29730, Note_on_c, 4, 64, 0
6, 29730, Note_on_c, 4, 64, 100
6, 29730, Note_on_c, 4, 60, 100
6, 29730, Note_on_c, 4, 67, 100
6, 29760, Note_on_c, 4, 67, 0
6, 29760, Note_on_c, 4, 60, 0
6, 29760, Note_on_c, 4, 64, 0
6, 29760, Note_on_c, 4, 64, 100
6, 29760, Note_on_c, 4, 60, 100
6, 29760, Note_on_c, 4, 67, 100
6, 29795, Note_on_c, 4, 67, 0
6, 29795, Note_on_c, 4, 60, 0
6, 29795, Note_on_c, 4, 64, 0
6, 29820, Note_on_c, 4, 62, 100
6, 29820, Note_on_c, 4, 67, 100
6, 29820, Note_on_c, 4, 59, 100
6, 29850, Note_on_c, 4, 59, 0
6, 29850, Note_on_c, 4, 67, 0
6, 29850, Note_on_c, 4, 62, 0
6, 29850, Note_on_c, 4, 62, 100
6, 29850, Note_on_c, 4, 59, 100
6, 29850, Note_on_c, 4, 67, 100
6, 29880, Note_on_c, 4, 67, 0
6, 29880, Note_on_c, 4, 59, 0
6, 29880, Note_on_c, 4, 62, 0
6, 29880, Note_on_c, 4, 59, 100
6, 29880, Note_on_c, 4, 62, 100
6, 29880, Note_on_c, 4, 67, 100
6, 29915, Note_on_c, 4, 67, 0
6, 29915, Note_on_c, 4, 62, 0
6, 29915, Note_on_c, 4, 59, 0
6, 29940, Note_on_c, 4, 64, 100
6, 29940, Note_on_c, 4, 67, 100
6, 29940, Note_on_c, 4, 60, 100
6, 29970, Note_on_c, 4, 60, 0
6, 29970, Note_on_c, 4, 67, 0
6, 29970, Note_on_c, 4, 64, 0
6, 29970, Note_on_c, 4, 64, 100
6, 29970, Note_on_c, 4, 60, 100
6, 29970, Note_on_c, 4, 67, 100
6, 30000, Note_on_c, 4, 67, 0
6, 30000, Note_on_c, 4, 60, 0
6, 30000, Note_on_c, 4, 64, 0
6, 30000, Note_on_c, 4, 64, 100
6, 30000, Note_on_c, 4, 60, 100
6, 30000, Note_on_c, 4, 67, 100
6, 30035, Note_on_c, 4, 67, 0
6, 30035, Note_on_c, 4, 60, 0
6, 30035, Note_on_c, 4, 64, 0
6, 30060, Note_on_c, 4, 64, 100
6, 30060, Note_on_c, 4, 67, 100
6, 30060, Note_on_c, 4, 60, 100
6, 30090, Note_on_c, 4, 60, 0
6, 30090, Note_on_c, 4, 67, 0
6, 30090, Note_on_c, 4, 64, 0
6, 30090, Note_on_c, 4, 64, 100
6, 30090, Note_on_c, 4, 60, 100
6, 30090, Note_on_c, 4, 67, 100
6, 30120, Note_on_c, 4, 67, 0
6, 30120, Note_on_c, 4, 60, 0
6, 30120, Note_on_c, 4, 64, 0
6, 30120, Note_on_c, 4, 60, 100
6, 30120, Note_on_c, 4, 64, 100
6, 30120, Note_on_c, 4, 67, 100
6, 30155, Note_on_c, 4, 67, 0
6, 30155, Note_on_c, 4, 64, 0
6, 30155, Note_on_c, 4, 60, 0
6, 30180, Note_on_c, 4, 64, 100
6, 30180, Note_on_c, 4, 67, 100
6, 30180, Note_on_c, 4, 60, 100
6, 30210, Note_on_c, 4, 60, 0
6, 30210, Note_on_c, 4, 67, 0
6, 30210, Note_on_c, 4, 64, 0
6, 30210, Note_on_c, 4, 64, 100
6, 30210, Note_on_c, 4, 60, 100
6, 30210, Note_on_c, 4, 67, 100
6, 30240, Note_on_c, 4, 67, 0
6, 30240, Note_on_c, 4, 60, 0
6, 30240, Note_on_c, 4, 64, 0
6, 30240, Note_on_c, 4, 62, 100
6, 30240, Note_on_c, 4, 59, 100
6, 30240, Note_on_c, 4, 67, 100
6, 30275, Note_on_c, 4, 67, 0
6, 30275, Note_on_c, 4, 59, 0
6, 30275, Note_on_c, 4, 62, 0
6, 30300, Note_on_c, 4, 62, 100
6, 30300, Note_on_c, 4, 67, 100
6, 30300, Note_on_c, 4, 59, 100
6, 30330, Note_on_c, 4, 59, 0
6, 30330, Note_on_c, 4, 67, 0
6, 30330, Note_on_c, 4, 62, 0
6, 30330, Note_on_c, 4, 62, 100
6, 30330, Note_on_c, 4, 59, 100
6, 30330, Note_on_c, 4, 67, 100
6, 30360, Note_on_c, 4, 67, 0
6, 30360, Note_on_c, 4, 59, 0
6, 30360, Note_on_c, 4, 62, 0
6, 30360, Note_on_c, 4, 59, 100
6, 30360, Note_on_c, 4, 62, 100
6, 30360, Note_on_c, 4, 67, 100
6, 30395, Note_on_c, 4, 67, 0
6, 30395, Note_on_c, 4, 62, 0
6, 30395, Note_on_c, 4, 59, 0
6, 30420, Note_on_c, 4, 62, 100
6, 30420, Note_on_c, 4, 67, 100
6, 30420, Note_on_c, 4, 59, 100
6, 30450, Note_on_c, 4, 59, 0
6, 30450, Note_on_c, 4, 67, 0
6, 30450, Note_on_c, 4, 62, 0
6, 30450, Note_on_c, 4, 62, 100
6, 30450, Note_on_c, 4, 59, 100
6, 30450, Note_on_c, 4, 67, 100
6, 30480, Note_on_c, 4, 67, 0
6, 30480, Note_on_c, 4, 59, 0
6, 30480, Note_on_c, 4, 62, 0
6, 30480, Note_on_c, 4, 62, 100
6, 30480, Note_on_c, 4, 59, 100
6, 30480, Note_on_c, 4, 67, 100
6, 30515, Note_on_c, 4, 67, 0
6, 30515, Note_on_c, 4, 59, 0
6, 30515, Note_on_c, 4, 62, 0
6, 30540, Note_on_c, 4, 62, 100
6, 30540, Note_on_c, 4, 67, 100
6, 30540, Note_on_c, 4, 59, 100
6, 30570, Note_on_c, 4, 59, 0
6, 30570, Note_on_c, 4, 67, 0
6, 30570, Note_on_c, 4, 62, 0
6, 30570, Note_on_c, 4, 62, 100
6, 30570, Note_on_c, 4, 59, 100
6, 30570, Note_on_c, 4, 67, 100
6, 30600, Note_on_c, 4, 67, 0
6, 30600, Note_on_c, 4, 59, 0
6, 30600, Note_on_c, 4, 62, 0
6, 30600, Note_on_c, 4, 59, 100
6, 30600, Note_on_c, 4, 62, 100
6, 30600, Note_on_c, 4, 67, 100
6, 30635, Note_on_c, 4, 67, 0
6, 30635, Note_on_c, 4, 62, 0
6, 30635, Note_on_c, 4, 59, 0
6, 30660, Note_on_c, 4, 64, 100
6, 30660, Note_on_c, 4, 67, 100
6, 30660, Note_on_c, 4, 60, 100
6, 30690, Note_on_c, 4, 60, 0
6, 30690, Note_on_c, 4, 67, 0
6, 30690, Note_on_c, 4, 64, 0
6, 30690, Note_on_c, 4, 64, 100
6, 30690, Note_on_c, 4, 60, 100
6, 30690, Note_on_c, 4, 67, 100
6, 30720, Note_on_c, 4, 67, 0
6, 30720, Note_on_c, 4, 60, 0
6, 30720, Note_on_c, 4, 64, 0
6, 30720, Note_on_c, 4, 64, 100
6, 30720, Note_on_c, 4, 60, 100
6, 30720, Note_on_c, 4, 67, 100
6, 30755, Note_on_c, 4, 67, 0
6, 30755, Note_on_c, 4, 60, 0
6, 30755, Note_on_c, 4, 64, 0
6, 30780, Note_on_c, 4, 64, 100
6, 30780, Note_on_c, 4, 67, 100
6, 30780, Note_on_c, 4, 60, 100
6, 30810, Note_on_c, 4, 60, 0
6, 30810, Note_on_c, 4, 67, 0
6, 30810, Note_on_c, 4, 64, 0
6, 30810, Note_on_c, 4, 64, 100
6, 30810, Note_on_c, 4, 60, 100
6, 30810, Note_on_c, 4, 67, 100
6, 30840, Note_on_c, 4, 67, 0
6, 30840, Note_on_c, 4, 60, 0
6, 30840, Note_on_c, 4, 64, 0
6, 30840, Note_on_c, 4, 60, 100
6, 30840, Note_on_c, 4, 64, 100
6, 30840, Note_on_c, 4, 67, 100
6, 30875, Note_on_c, 4, 67, 0
6, 30875, Note_on_c, 4, 64, 0
6, 30875, Note_on_c, 4, 60, 0
6, 30900, Note_on_c, 4, 64, 100
6, 30900, Note_on_c, 4, 67, 100
6, 30900, Note_on_c, 4, 60, 100
6, 30930, Note_on_c, 4, 60, 0
6, 30930, Note_on_c, 4, 67, 0
6, 30930, Note_on_c, 4, 64, 0
6, 30930, Note_on_c, 4, 64, 100
6, 30930, Note_on_c, 4, 60, 100
6, 30930, Note_on_c, 4, 67, 100
6, 30960, Note_on_c, 4, 67, 0
6, 30960, Note_on_c, 4, 60, 0
6, 30960, Note_on_c, 4, 64, 0
6, 30960, Note_on_c, 4, 64, 100
6, 30960, Note_on_c, 4, 60, 100
6, 30960, Note_on_c, 4, 67, 100
6, 30995, Note_on_c, 4, 67, 0
6, 30995, Note_on_c, 4, 60, 0
6, 30995, Note_on_c, 4, 64, 0
6, 31020, Note_on_c, 4, 64, 100
6, 31020, Note_on_c, 4, 67, 100
6, 31020, Note_on_c, 4, 60, 100
6, 31050, Note_on_c, 4, 60, 0
6, 31050, Note_on_c, 4, 67, 0
6, 31050, Note_on_c, 4, 64, 0
6, 31050, Note_on_c, 4, 64, 100
6, 31050, Note_on_c, 4, 60, 100
6, 31050, Note_on_c, 4, 67, 100
6, 31080, Note_on_c, 4, 67, 0
6, 31080, Note_on_c, 4, 60, 0
6, 31080, Note_on_c, 4, 64, 0
6, 31080, Note_on_c, 4, 60, 100
6, 31080, Note_on_c, 4, 64, 100
6, 31080, Note_on_c, 4, 67, 100
6, 31115, Note_on_c, 4, 67, 0
6, 31115, Note_on_c, 4, 64, 0
6, 31115, Note_on_c, 4, 60, 0
6, 31140, Note_on_c, 4, 64, 100
6, 31140, Note_on_c, 4, 67, 100
6, 31140, Note_on_c, 4, 60, 100
6, 31170, Note_on_c, 4, 60, 0
6, 31170, Note_on_c, 4, 67, 0
6, 31170, Note_on_c, 4, 64, 0
6, 31170, Note_on_c, 4, 64, 100
6, 31170, Note_on_c, 4, 60, 100
6, 31170, Note_on_c, 4, 67, 100
6, 31200, Note_on_c, 4, 67, 0
6, 31200, Note_on_c, 4, 60, 0
6, 31200, Note_on_c, 4, 64, 0
6, 31200, Note_on_c, 4, 62, 100
6, 31200, Note_on_c, 4, 59, 100
6, 31200, Note_on_c, 4, 67, 100
6, 31235, Note_on_c, 4, 67, 0
6, 31235, Note_on_c, 4, 59, 0
6, 31235, Note_on_c, 4, 62, 0
6, 31260, Note_on_c, 4, 62, 100
6, 31260, Note_on_c, 4, 67, 100
6, 31260, Note_on_c, 4, 59, 100
6, 31290, Note_on_c, 4, 59, 0
6, 31290, Note_on_c, 4, 67, 0
6, 31290, Note_on_c, 4, 62, 0
6, 31290, Note_on_c, 4, 62, 100
6, 31290, Note_on_c, 4, 59, 100
6, 31290, Note_on_c, 4, 67, 100
6, 31320, Note_on_c, 4, 67, 0
6, 31320, Note_on_c, 4, 59, 0
6, 31320, Note_on_c, 4, 62, 0
6, 31320, Note_on_c, 4, 59, 100
6, 31320, Note_on_c, 4, 62, 100
6, 31320, Note_on_c, 4, 67, 100
6, 31355, Note_on_c, 4, 67, 0
6, 31355, Note_on_c, 4, 62, 0
6, 31355, Note_on_c, 4, 59, 0
6, 31380, Note_on_c, 4, 62, 100
6, 31380, Note_on_c, 4, 67, 100
6, 31380, Note_on_c, 4, 59, 100
6, 31410, Note_on_c, 4, 59, 0
6, 31410, Note_on_c, 4, 67, 0
6, 31410, Note_on_c, 4, 62, 0
6, 31410, Note_on_c, 4, 62, 100
6, 31410, Note_on_c, 4, 59, 100
6, 31410, Note_on_c, 4, 67, 100
6, 31440, Note_on_c, 4, 67, 0
6, 31440, Note_on_c, 4, 59, 0
6, 31440, Note_on_c, 4, 62, 0
6, 31440, Note_on_c, 4, 62, 100
6, 31440, Note_on_c, 4, 59, 100
6, 31440, Note_on_c, 4, 67, 100
6, 31475, Note_on_c, 4, 67, 0
6, 31475, Note_on_c, 4, 59, 0
6, 31475, Note_on_c, 4, 62, 0
6, 31500, Note_on_c, 4, 62, 100
6, 31500, Note_on_c, 4, 67, 100
6, 31500, Note_on_c, 4, 59, 100
6, 31530, Note_on_c, 4, 59, 0
6, 31530, Note_on_c, 4, 67, 0
6, 31530, Note_on_c, 4, 62, 0
6, 31530, Note_on_c, 4, 62, 100
6, 31530, Note_on_c, 4, 59, 100
6, 31530, Note_on_c, 4, 67, 100
6, 31560, Note_on_c, 4, 67, 0
6, 31560, Note_on_c, 4, 59, 0
6, 31560, Note_on_c, 4, 62, 0
6, 31560, Note_on_c, 4, 59, 100
6, 31560, Note_on_c, 4, 62, 100
6, 31560, Note_on_c, 4, 67, 100
6, 31595, Note_on_c, 4, 67, 0
6, 31595, Note_on_c, 4, 62, 0
6, 31595, Note_on_c, 4, 59, 0
6, 31620, Note_on_c, 4, 62, 100
6, 31620, Note_on_c, 4, 67, 100
6, 31620, Note_on_c, 4, 59, 100
6, 31650, Note_on_c, 4, 59, 0
6, 31650, Note_on_c, 4, 67, 0
6, 31650, Note_on_c, 4, 62, 0
6, 31650, Note_on_c, 4, 62, 100
6, 31650, Note_on_c, 4, 59, 100
6, 31650, Note_on_c, 4, 67, 100
6, 31680, Note_on_c, 4, 67, 0
6, 31680, Note_on_c, 4, 59, 0
6, 31680, Note_on_c, 4, 62, 0
6, 31680, Note_on_c, 4, 62, 100
6, 31680, Note_on_c, 4, 59, 100
6, 31680, Note_on_c, 4, 67, 100
6, 31715, Note_on_c, 4, 67, 0
6, 31715, Note_on_c, 4, 59, 0
6, 31715, Note_on_c, 4, 62, 0
6, 31740, Note_on_c, 4, 62, 100
6, 31740, Note_on_c, 4, 67, 100
6, 31740, Note_on_c, 4, 59, 100
6, 31770, Note_on_c, 4, 59, 0
6, 31770, Note_on_c, 4, 67, 0
6, 31770, Note_on_c, 4, 62, 0
6, 31770, Note_on_c, 4, 62, 100
6, 31770, Note_on_c, 4, 59, 100
6, 31770, Note_on_c, 4, 67, 100
6, 31800, Note_on_c, 4, 67, 0
6, 31800, Note_on_c, 4, 59, 0
6, 31800, Note_on_c, 4, 62, 0
6, 31800, Note_on_c, 4, 59, 100
6, 31800, Note_on_c, 4, 62, 100
6, 31800, Note_on_c, 4, 67, 100
6, 31835, Note_on_c, 4, 67, 0
6, 31835, Note_on_c, 4, 62, 0
6, 31835, Note_on_c, 4, 59, 0
6, 31860, Note_on_c, 4, 62, 100
6, 31860, Note_on_c, 4, 67, 100
6, 31860, Note_on_c, 4, 59, 100
6, 31890, Note_on_c, 4, 59, 0
6, 31890, Note_on_c, 4, 67, 0
6, 31890, Note_on_c, 4, 62, 0
6, 31890, Note_on_c, 4, 62, 100
6, 31890, Note_on_c, 4, 59, 100
6, 31890, Note_on_c, 4, 67, 100
6, 31920, Note_on_c, 4, 67, 0
6, 31920, Note_on_c, 4, 59, 0
6, 31920, Note_on_c, 4, 62, 0
6, 31920, Note_on_c, 4, 62, 100
6, 31920, Note_on_c, 4, 59, 100
6, 31920, Note_on_c, 4, 67, 100
6, 31955, Note_on_c, 4, 67, 0
6, 31955, Note_on_c, 4, 59, 0
6, 31955, Note_on_c, 4, 62, 0
6, 31980, Note_on_c, 4, 62, 100
6, 31980, Note_on_c, 4, 67, 100
6, 31980, Note_on_c, 4, 59, 100
6, 32010, Note_on_c, 4, 59, 0
6, 32010, Note_on_c, 4, 67, 0
6, 32010, Note_on_c, 4, 62, 0
6, 32010, Note_on_c, 4, 62, 100
6, 32010, Note_on_c, 4, 59, 100
6, 32010, Note_on_c, 4, 67, 100
6, 32040, Note_on_c, 4, 67, 0
6, 32040, Note_on_c, 4, 59, 0
6, 32040, Note_on_c, 4, 62, 0
6, 32040, Note_on_c, 4, 59, 100
6, 32040, Note_on_c, 4, 62, 100
6, 32040, Note_on_c, 4, 67, 100
6, 32075, Note_on_c, 4, 67, 0
6, 32075, Note_on_c, 4, 62, 0
6, 32075, Note_on_c, 4, 59, 0
6, 32100, Note_on_c, 4, 62, 100
6, 32100, Note_on_c, 4, 67, 100
6, 32100, Note_on_c, 4, 59, 100
6, 32130, Note_on_c, 4, 59, 0
6, 32130, Note_on_c, 4, 67, 0
6, 32130, Note_on_c, 4, 62, 0
6, 32130, Note_on_c, 4, 62, 100
6, 32130, Note_on_c, 4, 59, 100
6, 32130, Note_on_c, 4, 67, 100
6, 32160, Note_on_c, 4, 67, 0
6, 32160, Note_on_c, 4, 59, 0
6, 32160, Note_on_c, 4, 62, 0
6, 32160, Note_on_c, 4, 62, 100
6, 32160, Note_on_c, 4, 57, 100
6, 32160, Note_on_c, 4, 66, 100
6, 32195, Note_on_c, 4, 66, 0
6, 32195, Note_on_c, 4, 57, 0
6, 32195, Note_on_c, 4, 62, 0
6, 32220, Note_on_c, 4, 62, 100
6, 32220, Note_on_c, 4, 66, 100
6, 32220, Note_on_c, 4, 57, 100
6, 32250, Note_on_c, 4, 57, 0
6, 32250, Note_on_c, 4, 66, 0
6, 32250, Note_on_c, 4, 62, 0
6, 32250, Note_on_c, 4, 62, 100
6, 32250, Note_on_c, 4, 57, 100
6, 32250, Note_on_c, 4, 66, 100
6, 32280, Note_on_c, 4, 66, 0
6, 32280, Note_on_c, 4, 57, 0
6, 32280, Note_on_c, 4, 62, 0
6, 32280, Note_on_c, 4, 57, 100
6, 32280, Note_on_c, 4, 62, 100
6, 32280, Note_on_c, 4, 66, 100
6, 32315, Note_on_c, 4, 66, 0
6, 32315, Note_on_c, 4, 62, 0
6, 32315, Note_on_c, 4, 57, 0
6, 32340, Note_on_c, 4, 62, 100
6, 32340, Note_on_c, 4, 66, 100
6, 32340, Note_on_c, 4, 57, 100
6, 32370, Note_on_c, 4, 57, 0
6, 32370, Note_on_c, 4, 66, 0
6, 32370, Note_on_c, 4, 62, 0
6, 32370, Note_on_c, 4, 62, 100
6, 32370, Note_on_c, 4, 57, 100
6, 32370, Note_on_c, 4, 66, 100
6, 32400, Note_on_c, 4, 66, 0
6, 32400, Note_on_c, 4, 57, 0
6, 32400, Note_on_c, 4, 62, 0
6, 32400, Note_on_c, 4, 62, 100
6, 32400, Note_on_c, 4, 57, 100
6, 32400, Note_on_c, 4, 66, 100
6, 32435, Note_on_c, 4, 66, 0
6, 32435, Note_on_c, 4, 57, 0
6, 32435, Note_on_c, 4, 62, 0
6, 32460, Note_on_c, 4, 62, 100
6, 32460, Note_on_c, 4, 66, 100
6, 32460, Note_on_c, 4, 57, 100
6, 32490, Note_on_c, 4, 57, 0
6, 32490, Note_on_c, 4, 66, 0
6, 32490, Note_on_c, 4, 62, 0
6, 32490, Note_on_c, 4, 62, 100
6, 32490, Note_on_c, 4, 57, 100
6, 32490, Note_on_c, 4, 66, 100
6, 32520, Note_on_c, 4, 66, 0
6, 32520, Note_on_c, 4, 57, 0
6, 32520, Note_on_c, 4, 62, 0
6, 32520, Note_on_c, 4, 57, 100
6, 32520, Note_on_c, 4, 62, 100
6, 32520, Note_on_c, 4, 66, 100
6, 32555, Note_on_c, 4, 66, 0
6, 32555, Note_on_c, 4, 62, 0
6, 32555, Note_on_c, 4, 57, 0
6, 32580, Note_on_c, 4, 62, 100
6, 32580, Note_on_c, 4, 66, 100
6, 32580, Note_on_c, 4, 57, 100
6, 32610, Note_on_c, 4, 57, 0
6, 32610, Note_on_c, 4, 66, 0
6, 32610, Note_on_c, 4, 62, 0
6, 32610, Note_on_c, 4, 62, 100
6, 32610, Note_on_c, 4, 57, 100
6, 32610, Note_on_c, 4, 66, 100
6, 32640, Note_on_c, 4, 66, 0
6, 32640, Note_on_c, 4, 57, 0
6, 32640, Note_on_c, 4, 62, 0
6, 32640, Note_on_c, 4, 62, 100
6, 32640, Note_on_c, 4, 57, 100
6, 32640, Note_on_c, 4, 66, 100
6, 32675, Note_on_c, 4, 66, 0
6, 32675, Note_on_c, 4, 57, 0
6, 32675, Note_on_c, 4, 62, 0
6, 32700, Note_on_c, 4, 62, 100
6, 32700, Note_on_c, 4, 66, 100
6, 32700, Note_on_c, 4, 57, 100
6, 32730, Note_on_c, 4, 57, 0
6, 32730, Note_on_c, 4, 66, 0
6, 32730, Note_on_c, 4, 62, 0
6, 32730, Note_on_c, 4, 62, 100
6, 32730, Note_on_c, 4, 57, 100
6, 32730, Note_on_c, 4, 66, 100
6, 32760, Note_on_c, 4, 66, 0
6, 32760, Note_on_c, 4, 57, 0
6, 32760, Note_on_c, 4, 62, 0
6, 32760, Note_on_c, 4, 57, 100
6, 32760, Note_on_c, 4, 62, 100
6, 32760, Note_on_c, 4, 66, 100
6, 32795, Note_on_c, 4, 66, 0
6, 32795, Note_on_c, 4, 62, 0
6, 32795, Note_on_c, 4, 57, 0
6, 32820, Note_on_c, 4, 62, 100
6, 32820, Note_on_c, 4, 66, 100
6, 32820, Note_on_c, 4, 57, 100
6, 32850, Note_on_c, 4, 57, 0
6, 32850, Note_on_c, 4, 66, 0
6, 32850, Note_on_c, 4, 62, 0
6, 32850, Note_on_c, 4, 62, 100
6, 32850, Note_on_c, 4, 57, 100
6, 32850, Note_on_c, 4, 66, 100
6, 32880, Note_on_c, 4, 66, 0
6, 32880, Note_on_c, 4, 57, 0
6, 32880, Note_on_c, 4, 62, 0
6, 32880, Note_on_c, 4, 62, 100
6, 32880, Note_on_c, 4, 57, 100
6, 32880, Note_on_c, 4, 66, 100
6, 32915, Note_on_c, 4, 66, 0
6, 32915, Note_on_c, 4, 57, 0
6, 32915, Note_on_c, 4, 62, 0
6, 32940, Note_on_c, 4, 62, 100
6, 32940, Note_on_c, 4, 66, 100
6, 32940, Note_on_c, 4, 57, 100
6, 32970, Note_on_c, 4, 57, 0
6, 32970, Note_on_c, 4, 66, 0
6, 32970, Note_on_c, 4, 62, 0
6, 32970, Note_on_c, 4, 62, 100
6, 32970, Note_on_c, 4, 57, 100
6, 32970, Note_on_c, 4, 66, 100
6, 33000, Note_on_c, 4, 66, 0
6, 33000, Note_on_c, 4, 57, 0
6, 33000, Note_on_c, 4, 62, 0
6, 33000, Note_on_c, 4, 57, 100
6, 33000, Note_on_c, 4, 62, 100
6, 33000, Note_on_c, 4, 66, 100
6, 33035, Note_on_c, 4, 66, 0
6, 33035, Note_on_c, 4, 62, 0
6, 33035, Note_on_c, 4, 57, 0
6, 33060, Note_on_c, 4, 62, 100
6, 33060, Note_on_c, 4, 66, 100
6, 33060, Note_on_c, 4, 57, 100
6, 33090, Note_on_c, 4, 57, 0
6, 33090, Note_on_c, 4, 66, 0
6, 33090, Note_on_c, 4, 62, 0
6, 33090, Note_on_c, 4, 62, 100
6, 33090, Note_on_c, 4, 57, 100
6, 33090, Note_on_c, 4, 66, 100
6, 33120, Note_on_c, 4, 66, 0
6, 33120, Note_on_c, 4, 57, 0
6, 33120, Note_on_c, 4, 62, 0
6, 33120, Note_on_c, 4, 60, 100
6, 33120, Note_on_c, 4, 55, 100
6, 33120, Note_on_c, 4, 64, 100
6, 33155, Note_on_c, 4, 64, 0
6, 33155, Note_on_c, 4, 55, 0
6, 33155, Note_on_c, 4, 60, 0
6, 33180, Note_on_c, 4, 60, 100
6, 33180, Note_on_c, 4, 64, 100
6, 33180, Note_on_c, 4, 55, 100
6, 33210, Note_on_c, 4, 55, 0
6, 33210, Note_on_c, 4, 64, 0
6, 33210, Note_on_c, 4, 60, 0
6, 33210, Note_on_c, 4, 60, 100
6, 33210, Note_on_c, 4, 55, 100
6, 33210, Note_on_c, 4, 64, 100
6, 33240, Note_on_c, 4, 64, 0
6, 33240, Note_on_c, 4, 55, 0
6, 33240, Note_on_c, 4, 60, 0
6, 33240, Note_on_c, 4, 55, 100
6, 33240, Note_on_c, 4, 60, 100
6, 33240, Note_on_c, 4, 64, 100
6, 33275, Note_on_c, 4, 64, 0
6, 33275, Note_on_c, 4, 60, 0
6, 33275, Note_on_c, 4, 55, 0
6, 33300, Note_on_c, 4, 60, 100
6, 33300, Note_on_c, 4, 64, 100
6, 33300, Note_on_c, 4, 55, 100
6, 33330, Note_on_c, 4, 55, 0
6, 33330, Note_on_c, 4, 64, 0
6, 33330, Note_on_c, 4, 60, 0
6, 33330, Note_on_c, 4, 60, 100
6, 33330, Note_on_c, 4, 55, 100
6, 33330, Note_on_c, 4, 64, 100
6, 33360, Note_on_c, 4, 64, 0
6, 33360, Note_on_c, 4, 55, 0
6, 33360, Note_on_c, 4, 60, 0
6, 33360, Note_on_c, 4, 60, 100
6, 33360, Note_on_c, 4, 55, 100
6, 33360, Note_on_c, 4, 64, 100
6, 33395, Note_on_c, 4, 64, 0
6, 33395, Note_on_c, 4, 55, 0
6, 33395, Note_on_c, 4, 60, 0
6, 33420, Note_on_c, 4, 60, 100
6, 33420, Note_on_c, 4, 64, 100
6, 33420, Note_on_c, 4, 55, 100
6, 33450, Note_on_c, 4, 55, 0
6, 33450, Note_on_c, 4, 64, 0
6, 33450, Note_on_c, 4, 60, 0
6, 33450, Note_on_c, 4, 60, 100
6, 33450, Note_on_c, 4, 55, 100
6, 33450, Note_on_c, 4, 64, 100
6, 33480, Note_on_c, 4, 64, 0
6, 33480, Note_on_c, 4, 55, 0
6, 33480, Note_on_c, 4, 60, 0
6, 33480, Note_on_c, 4, 55, 100
6, 33480, Note_on_c, 4, 60, 100
6, 33480, Note_on_c, 4, 64, 100
6, 33515, Note_on_c, 4, 64, 0
6, 33515, Note_on_c, 4, 60, 0
6, 33515, Note_on_c, 4, 55, 0
6, 33540, Note_on_c, 4, 60, 100
6, 33540, Note_on_c, 4, 64, 100
6, 33540, Note_on_c, 4, 55, 100
6, 33570, Note_on_c, 4, 55, 0
6, 33570, Note_on_c, 4, 64, 0
6, 33570, Note_on_c, 4, 60, 0
6, 33570, Note_on_c, 4, 60, 100
6, 33570, Note_on_c, 4, 55, 100
6, 33570, Note_on_c, 4, 64, 100
6, 33600, Note_on_c, 4, 64, 0
6, 33600, Note_on_c, 4, 55, 0
6, 33600, Note_on_c, 4, 60, 0
6, 33600, Note_on_c, 4, 60, 100
6, 33600, Note_on_c, 4, 55, 100
6, 33600, Note_on_c, 4, 64, 100
6, 33635, Note_on_c, 4, 64, 0
6, 33635, Note_on_c, 4, 55, 0
6, 33635, Note_on_c, 4, 60, 0
6, 33660, Note_on_c, 4, 60, 100
6, 33660, Note_on_c, 4, 64, 100
6, 33660, Note_on_c, 4, 55, 100
6, 33690, Note_on_c, 4, 55, 0
6, 33690, Note_on_c, 4, 64, 0
6, 33690, Note_on_c, 4, 60, 0
6, 33690, Note_on_c, 4, 60, 100
6, 33690, Note_on_c, 4, 55, 100
6, 33690, Note_on_c, 4, 64, 100
6, 33720, Note_on_c, 4, 64, 0
6, 33720, Note_on_c, 4, 55, 0
6, 33720, Note_on_c, 4, 60, 0
6, 33720, Note_on_c, 4, 55, 100
6, 33720, Note_on_c, 4, 60, 100
6, 33720, Note_on_c, 4, 64, 100
6, 33755, Note_on_c, 4, 64, 0
6, 33755, Note_on_c, 4, 60, 0
6, 33755, Note_on_c, 4, 55, 0
6, 33780, Note_on_c, 4, 60, 100
6, 33780, Note_on_c, 4, 64, 100
6, 33780, Note_on_c, 4, 55, 100
6, 33810, Note_on_c, 4, 55, 0
6, 33810, Note_on_c, 4, 64, 0
6, 33810, Note_on_c, 4, 60, 0
6, 33810, Note_on_c, 4, 60, 100
6, 33810, Note_on_c, 4, 55, 100
6, 33810, Note_on_c, 4, 64, 100
6, 33840, Note_on_c, 4, 64, 0
6, 33840, Note_on_c, 4, 55, 0
6, 33840, Note_on_c, 4, 60, 0
6, 33840, Note_on_c, 4, 60, 100
6, 33840, Note_on_c, 4, 55, 100
6, 33840, Note_on_c, 4, 64, 100
6, 33875, Note_on_c, 4, 64, 0
6, 33875, Note_on_c, 4, 55, 0
6, 33875, Note_on_c, 4, 60, 0
6, 33900, Note_on_c, 4, 60, 100
6, 33900, Note_on_c, 4, 64, 100
6, 33900, Note_on_c, 4, 55, 100
6, 33930, Note_on_c, 4, 55, 0
6, 33930, Note_on_c, 4, 64, 0
6, 33930, Note_on_c, 4, 60, 0
6, 33930, Note_on_c, 4, 60, 100
6, 33930, Note_on_c, 4, 55, 100
6, 33930, Note_on_c, 4, 64, 100
6, 33960, Note_on_c, 4, 64, 0
6, 33960, Note_on_c, 4, 55, 0
6, 33960, Note_on_c, 4, 60, 0
6, 33960, Note_on_c, 4, 55, 100
6, 33960, Note_on_c, 4, 60, 100
6, 33960, Note_on_c, 4, 64, 100
6, 33995, Note_on_c, 4, 64, 0
6, 33995, Note_on_c, 4, 60, 0
6, 33995, Note_on_c, 4, 55, 0
6, 34020, Note_on_c, 4, 60, 100
6, 34020, Note_on_c, 4, 64, 100
6, 34020, Note_on_c, 4, 55, 100
6, 34050, Note_on_c, 4, 55, 0
6, 34050, Note_on_c, 4, 64, 0
6, 34050, Note_on_c, 4, 60, 0
6, 34050, Note_on_c, 4, 60, 100
6, 34050, Note_on_c, 4, 55, 100
6, 34050, Note_on_c, 4, 64, 100
6, 34080, Note_on_c, 4, 64, 0
6, 34080, Note_on_c, 4, 55, 0
6, 34080, Note_on_c, 4, 60, 0
6, 34080, Note_on_c, 4, 62, 100
6, 34080, Note_on_c, 4, 59, 100
6, 34080, Note_on_c, 4, 67, 100
6, 34115, Note_on_c, 4, 67, 0
6, 34115, Note_on_c, 4, 59, 0
6, 34115, Note_on_c, 4, 62, 0
6, 34140, Note_on_c, 4, 62, 100
6, 34140, Note_on_c, 4, 67, 100
6, 34140, Note_on_c, 4, 59, 100
6, 34170, Note_on_c, 4, 59, 0
6, 34170, Note_on_c, 4, 67, 0
6, 34170, Note_on_c, 4, 62, 0
6, 34170, Note_on_c, 4, 62, 100
6, 34170, Note_on_c, 4, 59, 100
6, 34170, Note_on_c, 4, 67, 100
6, 34200, Note_on_c, 4, 67, 0
6, 34200, Note_on_c, 4, 59, 0
6, 34200, Note_on_c, 4, 62, 0
6, 34200, Note_on_c, 4, 59, 100
6, 34200, Note_on_c, 4, 62, 100
6, 34200, Note_on_c, 4, 67, 100
6, 34235, Note_on_c, 4, 67, 0
6, 34235, Note_on_c, 4, 62, 0
6, 34235, Note_on_c, 4, 59, 0
6, 34260, Note_on_c, 4, 62, 100
6, 34260, Note_on_c, 4, 67, 100
6, 34260, Note_on_c, 4, 59, 100
6, 34290, Note_on_c, 4, 59, 0
6, 34290, Note_on_c, 4, 67, 0
6, 34290, Note_on_c, 4, 62, 0
6, 34290, Note_on_c, 4, 62, 100
6, 34290, Note_on_c, 4, 59, 100
6, 34290, Note_on_c, 4, 67, 100
6, 34320, Note_on_c, 4, 67, 0
6, 34320, Note_on_c, 4, 59, 0
6, 34320, Note_on_c, 4, 62, 0
6, 34320, Note_on_c, 4, 62, 100
6, 34320, Note_on_c, 4, 59, 100
6, 34320, Note_on_c, 4, 67, 100
6, 34355, Note_on_c, 4, 67, 0
6, 34355, Note_on_c, 4, 59, 0
6, 34355, Note_on_c, 4, 62, 0
6, 34380, Note_on_c, 4, 62, 100
6, 34380, Note_on_c, 4, 67, 100
6, 34380, Note_on_c, 4, 59, 100
6, 34410, Note_on_c, 4, 59, 0
6, 34410, Note_on_c, 4, 67, 0
6, 34410, Note_on_c, 4, 62, 0
6, 34410, Note_on_c, 4, 62, 100
6, 34410, Note_on_c, 4, 59, 100
6, 34410, Note_on_c, 4, 67, 100
6, 34440, Note_on_c, 4, 67, 0
6, 34440, Note_on_c, 4, 59, 0
6, 34440, Note_on_c, 4, 62, 0
6, 34440, Note_on_c, 4, 59, 100
6, 34440, Note_on_c, 4, 62, 100
6, 34440, Note_on_c, 4, 67, 100
6, 34475, Note_on_c, 4, 67, 0
6, 34475, Note_on_c, 4, 62, 0
6, 34475, Note_on_c, 4, 59, 0
6, 34500, Note_on_c, 4, 64, 100
6, 34500, Note_on_c, 4, 67, 100
6, 34500, Note_on_c, 4, 60, 100
6, 34530, Note_on_c, 4, 60, 0
6, 34530, Note_on_c, 4, 67, 0
6, 34530, Note_on_c, 4, 64, 0
6, 34530, Note_on_c, 4, 64, 100
6, 34530, Note_on_c, 4, 60, 100
6, 34530, Note_on_c, 4, 67, 100
6, 34560, Note_on_c, 4, 67, 0
6, 34560, Note_on_c, 4, 60, 0
6, 34560, Note_on_c, 4, 64, 0
6, 34560, Note_on_c, 4, 64, 100
6, 34560, Note_on_c, 4, 60, 100
6, 34560, Note_on_c, 4, 67, 100
6, 34595, Note_on_c, 4, 67, 0
6, 34595, Note_on_c, 4, 60, 0
6, 34595, Note_on_c, 4, 64, 0
6, 34620, Note_on_c, 4, 62, 100
6, 34620, Note_on_c, 4, 67, 100
6, 34620, Note_on_c, 4, 59, 100
6, 34650, Note_on_c, 4, 59, 0
6, 34650, Note_on_c, 4, 67, 0
6, 34650, Note_on_c, 4, 62, 0
6, 34650, Note_on_c, 4, 62, 100
6, 34650, Note_on_c, 4, 59, 100
6, 34650, Note_on_c, 4, 67, 100
6, 34680, Note_on_c, 4, 67, 0
6, 34680, Note_on_c, 4, 59, 0
6, 34680, Note_on_c, 4, 62, 0
6, 34680, Note_on_c, 4, 59, 100
6, 34680, Note_on_c, 4, 62, 100
6, 34680, Note_on_c, 4, 67, 100
6, 34715, Note_on_c, 4, 67, 0
6, 34715, Note_on_c, 4, 62, 0
6, 34715, Note_on_c, 4, 59, 0
6, 34740, Note_on_c, 4, 64, 100
6, 34740, Note_on_c, 4, 67, 100
6, 34740, Note_on_c, 4, 60, 100
6, 34770, Note_on_c, 4, 60, 0
6, 34770, Note_on_c, 4, 67, 0
6, 34770, Note_on_c, 4, 64, 0
6, 34770, Note_on_c, 4, 64, 100
6, 34770, Note_on_c, 4, 60, 100
6, 34770, Note_on_c, 4, 67, 100
6, 34800, Note_on_c, 4, 67, 0
6, 34800, Note_on_c, 4, 60, 0
6, 34800, Note_on_c, 4, 64, 0
6, 34800, Note_on_c, 4, 64, 100
6, 34800, Note_on_c, 4, 60, 100
6, 34800, Note_on_c, 4, 67, 100
6, 34835, Note_on_c, 4, 67, 0
6, 34835, Note_on_c, 4, 60, 0
6, 34835, Note_on_c, 4, 64, 0
6, 34860, Note_on_c, 4, 64, 100
6, 34860, Note_on_c, 4, 67, 100
6, 34860, Note_on_c, 4, 60, 100
6, 34890, Note_on_c, 4, 60, 0
6, 34890, Note_on_c, 4, 67, 0
6, 34890, Note_on_c, 4, 64, 0
6, 34890, Note_on_c, 4, 64, 100
6, 34890, Note_on_c, 4, 60, 100
6, 34890, Note_on_c, 4, 67, 100
6, 34920, Note_on_c, 4, 67, 0
6, 34920, Note_on_c, 4, 60, 0
6, 34920, Note_on_c, 4, 64, 0
6, 34920, Note_on_c, 4, 60, 100
6, 34920, Note_on_c, 4, 64, 100
6, 34920, Note_on_c, 4, 67, 100
6, 34955, Note_on_c, 4, 67, 0
6, 34955, Note_on_c, 4, 64, 0
6, 34955, Note_on_c, 4, 60, 0
6, 34980, Note_on_c, 4, 64, 100
6, 34980, Note_on_c, 4, 67, 100
6, 34980, Note_on_c, 4, 60, 100
6, 35010, Note_on_c, 4, 60, 0
6, 35010, Note_on_c, 4, 67, 0
6, 35010, Note_on_c, 4, 64, 0
6, 35010, Note_on_c, 4, 64, 100
6, 35010, Note_on_c, 4, 60, 100
6, 35010, Note_on_c, 4, 67, 100
6, 35040, Note_on_c, 4, 67, 0
6, 35040, Note_on_c, 4, 60, 0
6, 35040, Note_on_c, 4, 64, 0
6, 35040, Note_on_c, 4, 62, 100
6, 35040, Note_on_c, 4, 59, 100
6, 35040, Note_on_c, 4, 67, 100
6, 35075, Note_on_c, 4, 67, 0
6, 35075, Note_on_c, 4, 59, 0
6, 35075, Note_on_c, 4, 62, 0
6, 35100, Note_on_c, 4, 62, 100
6, 35100, Note_on_c, 4, 67, 100
6, 35100, Note_on_c, 4, 59, 100
6, 35130, Note_on_c, 4, 59, 0
6, 35130, Note_on_c, 4, 67, 0
6, 35130, Note_on_c, 4, 62, 0
6, 35130, Note_on_c, 4, 62, 100
6, 35130, Note_on_c, 4, 59, 100
6, 35130, Note_on_c, 4, 67, 100
6, 35160, Note_on_c, 4, 67, 0
6, 35160, Note_on_c, 4, 59, 0
6, 35160, Note_on_c, 4, 62, 0
6, 35160, Note_on_c, 4, 59, 100
6, 35160, Note_on_c, 4, 62, 100
6, 35160, Note_on_c, 4, 67, 100
6, 35195, Note_on_c, 4, 67, 0
6, 35195, Note_on_c, 4, 62, 0
6, 35195, Note_on_c, 4, 59, 0
6, 35220, Note_on_c, 4, 62, 100
6, 35220, Note_on_c, 4, 67, 100
6, 35220, Note_on_c, 4, 59, 100
6, 35250, Note_on_c, 4, 59, 0
6, 35250, Note_on_c, 4, 67, 0
6, 35250, Note_on_c, 4, 62, 0
6, 35250, Note_on_c, 4, 62, 100
6, 35250, Note_on_c, 4, 59, 100
6, 35250, Note_on_c, 4, 67, 100
6, 35280, Note_on_c, 4, 67, 0
6, 35280, Note_on_c, 4, 59, 0
6, 35280, Note_on_c, 4, 62, 0
6, 35280, Note_on_c, 4, 62, 100
6, 35280, Note_on_c, 4, 59, 100
6, 35280, Note_on_c, 4, 67, 100
6, 35315, Note_on_c, 4, 67, 0
6, 35315, Note_on_c, 4, 59, 0
6, 35315, Note_on_c, 4, 62, 0
6, 35340, Note_on_c, 4, 62, 100
6, 35340, Note_on_c, 4, 67, 100
6, 35340, Note_on_c, 4, 59, 100
6, 35370, Note_on_c, 4, 59, 0
6, 35370, Note_on_c, 4, 67, 0
6, 35370, Note_on_c, 4, 62, 0
6, 35370, Note_on_c, 4, 62, 100
6, 35370, Note_on_c, 4, 59, 100
6, 35370, Note_on_c, 4, 67, 100
6, 35400, Note_on_c, 4, 67, 0
6, 35400, Note_on_c, 4, 59, 0
6, 35400, Note_on_c, 4, 62, 0
6, 35400, Note_on_c, 4, 59, 100
6, 35400, Note_on_c, 4, 62, 100
6, 35400, Note_on_c, 4, 67, 100
6, 35435, Note_on_c, 4, 67, 0
6, 35435, Note_on_c, 4, 62, 0
6, 35435, Note_on_c, 4, 59, 0
6, 35460, Note_on_c, 4, 64, 100
6, 35460, Note_on_c, 4, 67, 100
6, 35460, Note_on_c, 4, 60, 100
6, 35490, Note_on_c, 4, 60, 0
6, 35490, Note_on_c, 4, 67, 0
6, 35490, Note_on_c, 4, 64, 0
6, 35490, Note_on_c, 4, 64, 100
6, 35490, Note_on_c, 4, 60, 100
6, 35490, Note_on_c, 4, 67, 100
6, 35520, Note_on_c, 4, 67, 0
6, 35520, Note_on_c, 4, 60, 0
6, 35520, Note_on_c, 4, 64, 0
6, 35520, Note_on_c, 4, 64, 100
6, 35520, Note_on_c, 4, 60, 100
6, 35520, Note_on_c, 4, 67, 100
6, 35555, Note_on_c, 4, 67, 0
6, 35555, Note_on_c, 4, 60, 0
6, 35555, Note_on_c, 4, 64, 0
6, 35580, Note_on_c, 4, 64, 97
6, 35580, Note_on_c, 4, 67, 97
6, 35580, Note_on_c, 4, 60, 97
6, 35610, Note_on_c, 4, 60, 0
6, 35610, Note_on_c, 4, 67, 0
6, 35610, Note_on_c, 4, 64, 0
6, 35610, Note_on_c, 4, 64, 96
6, 35610, Note_on_c, 4, 60, 96
6, 35610, Note_on_c, 4, 67, 96
6, 35640, Note_on_c, 4, 67, 0
6, 35640, Note_on_c, 4, 60, 0
6, 35640, Note_on_c, 4, 64, 0
6, 35640, Note_on_c, 4, 60, 94
6, 35640, Note_on_c, 4, 64, 94
6, 35640, Note_on_c, 4, 67, 94
6, 35675, Note_on_c, 4, 67, 0
6, 35675, Note_on_c, 4, 64, 0
6, 35675, Note_on_c, 4, 60, 0
6, 35700, Note_on_c, 4, 64, 91
6, 35700, Note_on_c, 4, 67, 91
6, 35700, Note_on_c, 4, 60, 91
6, 35730, Note_on_c, 4, 60, 0
6, 35730, Note_on_c, 4, 67, 0
6, 35730, Note_on_c, 4, 64, 0
6, 35730, Note_on_c, 4, 64, 90
6, 35730, Note_on_c, 4, 60, 90
6, 35730, Note_on_c, 4, 67, 90
6, 35760, Note_on_c, 4, 67, 0
6, 35760, Note_on_c, 4, 60, 0
6, 35760, Note_on_c, 4, 64, 0
6, 35760, Note_on_c, 4, 64, 88
6, 35760, Note_on_c, 4, 60, 88
6, 35760, Note_on_c, 4, 67, 88
6, 35795, Note_on_c, 4, 67, 0
6, 35795, Note_on_c, 4, 60, 0
6, 35795, Note_on_c, 4, 64, 0
6, 35820, Note_on_c, 4, 64, 85
6, 35820, Note_on_c, 4, 67, 85
6, 35820, Note_on_c, 4, 60, 85
6, 35850, Note_on_c, 4, 60, 0
6, 35850, Note_on_c, 4, 67, 0
6, 35850, Note_on_c, 4, 64, 0
6, 35850, Note_on_c, 4, 64, 83
6, 35850, Note_on_c, 4, 60, 83
6, 35850, Note_on_c, 4, 67, 83
6, 35880, Note_on_c, 4, 67, 0
6, 35880, Note_on_c, 4, 60, 0
6, 35880, Note_on_c, 4, 64, 0
6, 35880, Note_on_c, 4, 60, 82
6, 35880, Note_on_c, 4, 64, 82
6, 35880, Note_on_c, 4, 67, 82
6, 35915, Note_on_c, 4, 67, 0
6, 35915, Note_on_c, 4, 64, 0
6, 35915, Note_on_c, 4, 60, 0
6, 35940, Note_on_c, 4, 64, 79
6, 35940, Note_on_c, 4, 67, 79
6, 35940, Note_on_c, 4, 60, 79
6, 35970, Note_on_c, 4, 60, 0
6, 35970, Note_on_c, 4, 67, 0
6, 35970, Note_on_c, 4, 64, 0
6, 35970, Note_on_c, 4, 64, 77
6, 35970, Note_on_c, 4, 60, 77
6, 35970, Note_on_c, 4, 67, 77
6, 36000, Note_on_c, 4, 67, 0
6, 36000, Note_on_c, 4, 60, 0
6, 36000, Note_on_c, 4, 64, 0
6, 36000, Note_on_c, 4, 62, 75
6, 36000, Note_on_c, 4, 59, 75
6, 36000, Note_on_c, 4, 67, 75
6, 36035, Note_on_c, 4, 67, 0
6, 36035, Note_on_c, 4, 59, 0
6, 36035, Note_on_c, 4, 62, 0
6, 36060, Note_on_c, 4, 62, 72
6, 36060, Note_on_c, 4, 67, 72
6, 36060, Note_on_c, 4, 59, 72
6, 36090, Note_on_c, 4, 59, 0
6, 36090, Note_on_c, 4, 67, 0
6, 36090, Note_on_c, 4, 62, 0
6, 36090, Note_on_c, 4, 62, 71
6, 36090, Note_on_c, 4, 59, 71
6, 36090, Note_on_c, 4, 67, 71
6, 36120, Note_on_c, 4, 67, 0
6, 36120, Note_on_c, 4, 59, 0
6, 36120, Note_on_c, 4, 62, 0
6, 36120, Note_on_c, 4, 59, 69
6, 36120, Note_on_c, 4, 62, 69
6, 36120, Note_on_c, 4, 67, 69
6, 36155, Note_on_c, 4, 67, 0
6, 36155, Note_on_c, 4, 62, 0
6, 36155, Note_on_c, 4, 59, 0
6, 36180, Note_on_c, 4, 62, 66
6, 36180, Note_on_c, 4, 67, 66
6, 36180, Note_on_c, 4, 59, 66
6, 36210, Note_on_c, 4, 59, 0
6, 36210, Note_on_c, 4, 67, 0
6, 36210, Note_on_c, 4, 62, 0
6, 36210, Note_on_c, 4, 62, 65
6, 36210, Note_on_c, 4, 59, 65
6, 36210, Note_on_c, 4, 67, 65
6, 36240, Note_on_c, 4, 67, 0
6, 36240, Note_on_c, 4, 59, 0
6, 36240, Note_on_c, 4, 62, 0
6, 36240, Note_on_c, 4, 62, 63
6, 36240, Note_on_c, 4, 59, 63
6, 36240, Note_on_c, 4, 67, 63
6, 36275, Note_on_c, 4, 67, 0
6, 36275, Note_on_c, 4, 59, 0
6, 36275, Note_on_c, 4, 62, 0
6, 36300, Note_on_c, 4, 62, 60
6, 36300, Note_on_c, 4, 67, 60
6, 36300, Note_on_c, 4, 59, 60
6, 36330, Note_on_c, 4, 59, 0
6, 36330, Note_on_c, 4, 67, 0
6, 36330, Note_on_c, 4, 62, 0
6, 36330, Note_on_c, 4, 62, 58
6, 36330, Note_on_c, 4, 59, 58
6, 36330, Note_on_c, 4, 67, 58
6, 36360, Note_on_c, 4, 67, 0
6, 36360, Note_on_c, 4, 59, 0
6, 36360, Note_on_c, 4, 62, 0
6, 36360, Note_on_c, 4, 59, 57
6, 36360, Note_on_c, 4, 62, 57
6, 36360, Note_on_c, 4, 67, 57
6, 36395, Note_on_c, 4, 67, 0
6, 36395, Note_on_c, 4, 62, 0
6, 36395, Note_on_c, 4, 59, 0
6, 36420, Note_on_c, 4, 62, 54
6, 36420, Note_on_c, 4, 67, 54
6, 36420, Note_on_c, 4, 59, 54
6, 36450, Note_on_c, 4, 59, 0
6, 36450, Note_on_c, 4, 67, 0
6, 36450, Note_on_c, 4, 62, 0
6, 36450, Note_on_c, 4, 62, 52
6, 36450, Note_on_c, 4, 59, 52
6, 36450, Note_on_c, 4, 67, 52
6, 36480, Note_on_c, 4, 67, 0
6, 36480, Note_on_c, 4, 59, 0
6, 36480, Note_on_c, 4, 62, 0
6, 36480, Note_on_c, 4, 62, 50
6, 36480, Note_on_c, 4, 59, 50
6, 36480, Note_on_c, 4, 67, 50
6, 36515, Note_on_c, 4, 67, 0
6, 36515, Note_on_c, 4, 59, 0
6, 36515, Note_on_c, 4, 62, 0
6, 36540, Note_on_c, 4, 62, 47
6, 36540, Note_on_c, 4, 67, 47
6, 36540, Note_on_c, 4, 59, 47
6, 36570, Note_on_c, 4, 59, 0
6, 36570, Note_on_c, 4, 67, 0
6, 36570, Note_on_c, 4, 62, 0
6, 36570, Note_on_c, 4, 62, 46
6, 36570, Note_on_c, 4, 59, 46
6, 36570, Note_on_c, 4, 67, 46
6, 36600, Note_on_c, 4, 67, 0
6, 36600, Note_on_c, 4, 59, 0
6, 36600, Note_on_c, 4, 62, 0
6, 36600, Note_on_c, 4, 59, 44
6, 36600, Note_on_c, 4, 62, 44
6, 36600, Note_on_c, 4, 67, 44
6, 36635, Note_on_c, 4, 67, 0
6, 36635, Note_on_c, 4, 62, 0
6, 36635, Note_on_c, 4, 59, 0
6, 36660, Note_on_c, 4, 62, 41
6, 36660, Note_on_c, 4, 67, 41
6, 36660, Note_on_c, 4, 59, 41
6, 36690, Note_on_c, 4, 59, 0
6, 36690, Note_on_c, 4, 67, 0
6, 36690, Note_on_c, 4, 62, 0
6, 36690, Note_on_c, 4, 62, 40
6, 36690, Note_on_c, 4, 59, 40
6, 36690, Note_on_c, 4, 67, 40
6, 36720, Note_on_c, 4, 67, 0
6, 36720, Note_on_c, 4, 59, 0
6, 36720, Note_on_c, 4, 62, 0
6, 36720, Note_on_c, 4, 62, 38
6, 36720, Note_on_c, 4, 59, 38
6, 36720, Note_on_c, 4, 67, 38
6, 36755, Note_on_c, 4, 67, 0
6, 36755, Note_on_c, 4, 59, 0
6, 36755, Note_on_c, 4, 62, 0
6, 36780, Note_on_c, 4, 62, 35
6, 36780, Note_on_c, 4, 67, 35
6, 36780, Note_on_c, 4, 59, 35
6, 36810, Note_on_c, 4, 59, 0
6, 36810, Note_on_c, 4, 67, 0
6, 36810, Note_on_c, 4, 62, 0
6, 36810, Note_on_c, 4, 62, 33
6, 36810, Note_on_c, 4, 59, 33
6, 36810, Note_on_c, 4, 67, 33
6, 36840, Note_on_c, 4, 67, 0
6, 36840, Note_on_c, 4, 59, 0
6, 36840, Note_on_c, 4, 62, 0
6, 36840, Note_on_c, 4, 59, 32
6, 36840, Note_on_c, 4, 62, 32
6, 36840, Note_on_c, 4, 67, 32
6, 36875, Note_on_c, 4, 67, 0
6, 36875, Note_on_c, 4, 62, 0
6, 36875, Note_on_c, 4, 59, 0
6, 36900, Note_on_c, 4, 62, 29
6, 36900, Note_on_c, 4, 67, 29
6, 36900, Note_on_c, 4, 59, 29
6, 36930, Note_on_c, 4, 59, 0
6, 36930, Note_on_c, 4, 67, 0
6, 36930, Note_on_c, 4, 62, 0
6, 36930, Note_on_c, 4, 62, 27
6, 36930, Note_on_c, 4, 59, 27
6, 36930, Note_on_c, 4, 67, 27
6, 36960, Note_on_c, 4, 67, 0
6, 36960, Note_on_c, 4, 59, 0
6, 36960, Note_on_c, 4, 62, 0
6, 36960, Note_on_c, 4, 62, 25
6, 36960, Note_on_c, 4, 57, 25
6, 36960, Note_on_c, 4, 66, 25
6, 36995, Note_on_c, 4, 66, 0
6, 36995, Note_on_c, 4, 57, 0
6, 36995, Note_on_c, 4, 62, 0
6, 37020, Note_on_c, 4, 62, 22
6, 37020, Note_on_c, 4, 66, 22
6, 37020, Note_on_c, 4, 57, 22
6, 37050, Note_on_c, 4, 57, 0
6, 37050, Note_on_c, 4, 66, 0
6, 37050, Note_on_c, 4, 62, 0
6, 37050, Note_on_c, 4, 62, 21
6, 37050, Note_on_c, 4, 57, 21
6, 37050, Note_on_c, 4, 66, 21
6, 37080, Note_on_c, 4, 66, 0
6, 37080, Note_on_c, 4, 57, 0
6, 37080, Note_on_c, 4, 62, 0
6, 37080, Note_on_c, 4, 57, 19
6, 37080, Note_on_c, 4, 62, 19
6, 37080, Note_on_c, 4, 66, 19
6, 37115, Note_on_c, 4, 66, 0
6, 37115, Note_on_c, 4, 62, 0
6, 37115, Note_on_c, 4, 57, 0
6, 37140, Note_on_c, 4, 62, 16
6, 37140, Note_on_c, 4, 66, 16
6, 37140, Note_on_c, 4, 57, 16
6, 37170, Note_on_c, 4, 57, 0
6, 37170, Note_on_c, 4, 66, 0
6, 37170, Note_on_c, 4, 62, 0
6, 37170, Note_on_c, 4, 62, 15
6, 37170, Note_on_c, 4, 57, 15
6, 37170, Note_on_c, 4, 66, 15
6, 37200, Note_on_c, 4, 66, 0
6, 37200, Note_on_c, 4, 57, 0
6, 37200, Note_on_c, 4, 62, 0
6, 37200, Note_on_c, 4, 62, 13
6, 37200, Note_on_c, 4, 57, 13
6, 37200, Note_on_c, 4, 66, 13
6, 37235, Note_on_c, 4, 66, 0
6, 37235, Note_on_c, 4, 57, 0
6, 37235, Note_on_c, 4, 62, 0
6, 37260, Note_on_c, 4, 62, 10
6, 37260, Note_on_c, 4, 66, 10
6, 37260, Note_on_c, 4, 57, 10
6, 37290, Note_on_c, 4, 57, 0
6, 37290, Note_on_c, 4, 66, 0
6, 37290, Note_on_c, 4, 62, 0
6, 37290, Note_on_c, 4, 62, 8
6, 37290, Note_on_c, 4, 57, 8
6, 37290, Note_on_c, 4, 66, 8
6, 37320, Note_on_c, 4, 66, 0
6, 37320, Note_on_c, 4, 57, 0
6, 37320, Note_on_c, 4, 62, 0
6, 37320, Note_on_c, 4, 57, 7
6, 37320, Note_on_c, 4, 62, 7
6, 37320, Note_on_c, 4, 66, 7
6, 37355, Note_on_c, 4, 66, 0
6, 37355, Note_on_c, 4, 62, 0
6, 37355, Note_on_c, 4, 57, 0
6, 37380, Note_on_c, 4, 62, 4
6, 37380, Note_on_c, 4, 66, 4
6, 37380, Note_on_c, 4, 57, 4
6, 37410, Note_on_c, 4, 57, 0
6, 37410, Note_on_c, 4, 66, 0
6, 37410, Note_on_c, 4, 62, 0
6, 37410, Note_on_c, 4, 62, 2
6, 37410, Note_on_c, 4, 57, 2
6, 37410, Note_on_c, 4, 66, 2
6, 37440, Note_on_c, 4, 66, 0
6, 37440, Note_on_c, 4, 57, 0
6, 37440, Note_on_c, 4, 62, 0
6, 37440, End_track
7, 0, Start_track
7, 0, MIDI_port, 0
7, 0, Program_c, 3, 48
7, 0, Control_c, 3, 7, 80
7, 0, Control_c, 3, 10, 127
7, 2400, Note_on_c, 3, 79, 100
7, 2450, Note_on_c, 3, 79, 0
7, 2520, Note_on_c, 3, 79, 100
7, 2700, Note_on_c, 3, 79, 0
7, 2700, Note_on_c, 3, 74, 100
7, 2760, Note_on_c, 3, 74, 0
7, 2760, Note_on_c, 3, 74, 100
7, 2820, Note_on_c, 3, 74, 0
7, 2820, Note_on_c, 3, 79, 100
7, 2870, Note_on_c, 3, 79, 0
7, 2940, Note_on_c, 3, 79, 100
7, 2990, Note_on_c, 3, 79, 0
7, 3060, Note_on_c, 3, 79, 100
7, 3110, Note_on_c, 3, 79, 0
7, 3180, Note_on_c, 3, 78, 100
7, 3230, Note_on_c, 3, 78, 0
7, 3240, Note_on_c, 3, 74, 100
7, 3300, Note_on_c, 3, 74, 0
7, 3300, Note_on_c, 3, 74, 100
7, 3400, Note_on_c, 3, 74, 0
7, 3480, Note_on_c, 3, 74, 100
7, 3600, Note_on_c, 3, 74, 0
7, 3660, Note_on_c, 3, 74, 100
7, 3710, Note_on_c, 3, 74, 0
7, 3720, Note_on_c, 3, 74, 100
7, 3770, Note_on_c, 3, 74, 0
7, 3780, Note_on_c, 3, 78, 100
7, 3900, Note_on_c, 3, 78, 0
7, 3900, Note_on_c, 3, 76, 100
7, 4020, Note_on_c, 3, 76, 0
7, 4020, Note_on_c, 3, 74, 100
7, 4140, Note_on_c, 3, 74, 0
7, 4140, Note_on_c, 3, 76, 100
7, 4190, Note_on_c, 3, 76, 0
7, 4200, Note_on_c, 3, 78, 100
7, 4320, Note_on_c, 3, 78, 0
7, 4320, Note_on_c, 3, 76, 100
7, 4440, Note_on_c, 3, 76, 0
7, 4440, Note_on_c, 3, 76, 100
7, 4560, Note_on_c, 3, 76, 0
7, 4620, Note_on_c, 3, 76, 100
7, 4670, Note_on_c, 3, 76, 0
7, 4680, Note_on_c, 3, 79, 100
7, 4730, Note_on_c, 3, 79, 0
7, 4740, Note_on_c, 3, 83, 100
7, 4800, Note_on_c, 3, 83, 0
7, 4860, Note_on_c, 3, 81, 100
7, 4980, Note_on_c, 3, 81, 0
7, 4980, Note_on_c, 3, 79, 100
7, 5100, Note_on_c, 3, 79, 0
7, 5100, Note_on_c, 3, 81, 100
7, 5150, Note_on_c, 3, 81, 0
7, 5160, Note_on_c, 3, 79, 100
7, 5280, Note_on_c, 3, 79, 0
7, 5280, Note_on_c, 3, 83, 100
7, 5330, Note_on_c, 3, 83, 0
7, 5400, Note_on_c, 3, 83, 100
7, 5580, Note_on_c, 3, 83, 0
7, 5580, Note_on_c, 3, 83, 100
7, 5630, Note_on_c, 3, 83, 0
7, 5640, Note_on_c, 3, 83, 100
7, 5690, Note_on_c, 3, 83, 0
7, 5700, Note_on_c, 3, 81, 100
7, 5820, Note_on_c, 3, 81, 0
7, 5820, Note_on_c, 3, 79, 100
7, 5940, Note_on_c, 3, 79, 0
7, 5940, Note_on_c, 3, 79, 100
7, 6060, Note_on_c, 3, 79, 0
7, 6060, Note_on_c, 3, 81, 100
7, 6110, Note_on_c, 3, 81, 0
7, 6120, Note_on_c, 3, 79, 100
7, 6240, Note_on_c, 3, 79, 0
7, 6240, Note_on_c, 3, 83, 100
7, 6290, Note_on_c, 3, 83, 0
7, 6360, Note_on_c, 3, 83, 100
7, 6540, Note_on_c, 3, 83, 0
7, 6540, Note_on_c, 3, 83, 100
7, 6590, Note_on_c, 3, 83, 0
7, 6600, Note_on_c, 3, 83, 100
7, 6650, Note_on_c, 3, 83, 0
7, 6660, Note_on_c, 3, 81, 100
7, 6780, Note_on_c, 3, 81, 0
7, 6780, Note_on_c, 3, 79, 100
7, 6900, Note_on_c, 3, 79, 0
7, 6900, Note_on_c, 3, 79, 100
7, 7020, Note_on_c, 3, 79, 0
7, 7020, Note_on_c, 3, 81, 100
7, 7070, Note_on_c, 3, 81, 0
7, 7080, Note_on_c, 3, 79, 100
7, 7200, Note_on_c, 3, 79, 0
7, 7200, Note_on_c, 3, 79, 100
7, 7250, Note_on_c, 3, 79, 0
7, 7320, Note_on_c, 3, 79, 100
7, 7500, Note_on_c, 3, 79, 0
7, 7500, Note_on_c, 3, 74, 100
7, 7560, Note_on_c, 3, 74, 0
7, 7560, Note_on_c, 3, 74, 100
7, 7620, Note_on_c, 3, 74, 0
7, 7620, Note_on_c, 3, 79, 100
7, 7670, Note_on_c, 3, 79, 0
7, 7740, Note_on_c, 3, 79, 100
7, 7790, Note_on_c, 3, 79, 0
7, 7860, Note_on_c, 3, 79, 100
7, 7910, Note_on_c, 3, 79, 0
7, 7980, Note_on_c, 3, 78, 100
7, 8030, Note_on_c, 3, 78, 0
7, 8040, Note_on_c, 3, 74, 100
7, 8100, Note_on_c, 3, 74, 0
7, 8100, Note_on_c, 3, 74, 100
7, 8200, Note_on_c, 3, 74, 0
7, 8280, Note_on_c, 3, 74, 100
7, 8400, Note_on_c, 3, 74, 0
7, 8460, Note_on_c, 3, 74, 100
7, 8510, Note_on_c, 3, 74, 0
7, 8520, Note_on_c, 3, 74, 100
7, 8570, Note_on_c, 3, 74, 0
7, 8580, Note_on_c, 3, 78, 100
7, 8700, Note_on_c, 3, 78, 0
7, 8700, Note_on_c, 3, 76, 100
7, 8820, Note_on_c, 3, 76, 0
7, 8820, Note_on_c, 3, 74, 100
7, 8940, Note_on_c, 3, 74, 0
7, 8940, Note_on_c, 3, 76, 100
7, 8990, Note_on_c, 3, 76, 0
7, 9000, Note_on_c, 3, 78, 100
7, 9120, Note_on_c, 3, 78, 0
7, 9120, Note_on_c, 3, 76, 100
7, 9240, Note_on_c, 3, 76, 0
7, 9240, Note_on_c, 3, 76, 100
7, 9360, Note_on_c, 3, 76, 0
7, 9420, Note_on_c, 3, 76, 100
7, 9470, Note_on_c, 3, 76, 0
7, 9480, Note_on_c, 3, 79, 100
7, 9530, Note_on_c, 3, 79, 0
7, 9540, Note_on_c, 3, 83, 100
7, 9600, Note_on_c, 3, 83, 0
7, 9660, Note_on_c, 3, 81, 100
7, 9780, Note_on_c, 3, 81, 0
7, 9780, Note_on_c, 3, 79, 100
7, 9900, Note_on_c, 3, 79, 0
7, 9900, Note_on_c, 3, 81, 100
7, 9950, Note_on_c, 3, 81, 0
7, 9960, Note_on_c, 3, 79, 100
7, 10080, Note_on_c, 3, 79, 0
7, 10080, Note_on_c, 3, 83, 100
7, 10130, Note_on_c, 3, 83, 0
7, 10200, Note_on_c, 3, 83, 100
7, 10380, Note_on_c, 3, 83, 0
7, 10380, Note_on_c, 3, 83, 100
7, 10430, Note_on_c, 3, 83, 0
7, 10440, Note_on_c, 3, 83, 100
7, 10490, Note_on_c, 3, 83, 0
7, 10500, Note_on_c, 3, 81, 100
7, 10620, Note_on_c, 3, 81, 0
7, 10620, Note_on_c, 3, 79, 100
7, 10740, Note_on_c, 3, 79, 0
7, 10740, Note_on_c, 3, 79, 100
7, 10860, Note_on_c, 3, 79, 0
7, 10860, Note_on_c, 3, 81, 100
7, 10910, Note_on_c, 3, 81, 0
7, 10920, Note_on_c, 3, 79, 100
7, 11040, Note_on_c, 3, 79, 0
7, 11040, Note_on_c, 3, 83, 100
7, 11090, Note_on_c, 3, 83, 0
7, 11160, Note_on_c, 3, 83, 100
7, 11340, Note_on_c, 3, 83, 0
7, 11340, Note_on_c, 3, 83, 100
7, 11390, Note_on_c, 3, 83, 0
7, 11400, Note_on_c, 3, 83, 100
7, 11450, Note_on_c, 3, 83, 0
7, 11460, Note_on_c, 3, 81, 100
7, 11580, Note_on_c, 3, 81, 0
7, 11580, Note_on_c, 3, 79, 100
7, 11700, Note_on_c, 3, 79, 0
7, 11700, Note_on_c, 3, 79, 100
7, 11820, Note_on_c, 3, 79, 0
7, 11820, Note_on_c, 3, 81, 100
7, 11870, Note_on_c, 3, 81, 0
7, 11880, Note_on_c, 3, 79, 100
7, 12000, Note_on_c, 3, 79, 0
7, 12000, Note_on_c, 3, 86, 100
7, 12050, Note_on_c, 3, 86, 0
7, 12120, Note_on_c, 3, 86, 100
7, 12300, Note_on_c, 3, 86, 0
7, 12300, Note_on_c, 3, 86, 100
7, 12360, Note_on_c, 3, 86, 0
7, 12360, Note_on_c, 3, 86, 100
7, 12420, Note_on_c, 3, 86, 0
7, 12420, Note_on_c, 3, 91, 100
7, 12470, Note_on_c, 3, 91, 0
7, 12540, Note_on_c, 3, 90, 100
7, 12590, Note_on_c, 3, 90, 0
7, 12660, Note_on_c, 3, 91, 100
7, 12710, Note_on_c, 3, 91, 0
7, 12780, Note_on_c, 3, 90, 100
7, 12830, Note_on_c, 3, 90, 0
7, 12840, Note_on_c, 3, 86, 100
7, 12900, Note_on_c, 3, 86, 0
7, 12900, Note_on_c, 3, 83, 100
7, 12960, Note_on_c, 3, 83, 0
7, 12960, Note_on_c, 3, 74, 100
7, 12960, Note_on_c, 3, 86, 100
7, 13060, Note_on_c, 3, 86, 0
7, 13060, Note_on_c, 3, 74, 0
7, 13080, Note_on_c, 3, 86, 100
7, 13200, Note_on_c, 3, 86, 0
7, 13260, Note_on_c, 3, 86, 100
7, 13310, Note_on_c, 3, 86, 0
7, 13320, Note_on_c, 3, 86, 100
7, 13370, Note_on_c, 3, 86, 0
7, 13380, Note_on_c, 3, 90, 100
7, 13500, Note_on_c, 3, 90, 0
7, 13500, Note_on_c, 3, 88, 100
7, 13620, Note_on_c, 3, 88, 0
7, 13620, Note_on_c, 3, 86, 100
7, 13740, Note_on_c, 3, 86, 0
7, 13740, Note_on_c, 3, 88, 100
7, 13790, Note_on_c, 3, 88, 0
7, 13800, Note_on_c, 3, 90, 100
7, 13920, Note_on_c, 3, 90, 0
7, 13920, Note_on_c, 3, 88, 100
7, 14040, Note_on_c, 3, 88, 0
7, 14040, Note_on_c, 3, 88, 100
7, 14160, Note_on_c, 3, 88, 0
7, 14220, Note_on_c, 3, 88, 100
7, 14270, Note_on_c, 3, 88, 0
7, 14280, Note_on_c, 3, 91, 100
7, 14330, Note_on_c, 3, 91, 0
7, 14340, Note_on_c, 3, 95, 100
7, 14400, Note_on_c, 3, 95, 0
7, 14460, Note_on_c, 3, 93, 100
7, 14580, Note_on_c, 3, 93, 0
7, 14580, Note_on_c, 3, 91, 100
7, 14700, Note_on_c, 3, 91, 0
7, 14700, Note_on_c, 3, 93, 100
7, 14750, Note_on_c, 3, 93, 0
7, 14760, Note_on_c, 3, 91, 100
7, 14880, Note_on_c, 3, 91, 0
7, 14880, Note_on_c, 3, 95, 100
7, 14930, Note_on_c, 3, 95, 0
7, 15000, Note_on_c, 3, 95, 100
7, 15180, Note_on_c, 3, 95, 0
7, 15180, Note_on_c, 3, 95, 100
7, 15230, Note_on_c, 3, 95, 0
7, 15240, Note_on_c, 3, 95, 100
7, 15290, Note_on_c, 3, 95, 0
7, 15300, Note_on_c, 3, 93, 100
7, 15420, Note_on_c, 3, 93, 0
7, 15420, Note_on_c, 3, 91, 100
7, 15540, Note_on_c, 3, 91, 0
7, 15540, Note_on_c, 3, 91, 100
7, 15660, Note_on_c, 3, 91, 0
7, 15660, Note_on_c, 3, 93, 100
7, 15710, Note_on_c, 3, 93, 0
7, 15720, Note_on_c, 3, 91, 100
7, 15840, Note_on_c, 3, 91, 0
7, 15840, Note_on_c, 3, 95, 100
7, 15890, Note_on_c, 3, 95, 0
7, 15960, Note_on_c, 3, 95, 100
7, 16140, Note_on_c, 3, 95, 0
7, 16140, Note_on_c, 3, 95, 100
7, 16190, Note_on_c, 3, 95, 0
7, 16200, Note_on_c, 3, 95, 100
7, 16250, Note_on_c, 3, 95, 0
7, 16260, Note_on_c, 3, 93, 100
7, 16380, Note_on_c, 3, 93, 0
7, 16380, Note_on_c, 3, 91, 100
7, 16500, Note_on_c, 3, 91, 0
7, 16500, Note_on_c, 3, 91, 100
7, 16620, Note_on_c, 3, 91, 0
7, 16620, Note_on_c, 3, 93, 100
7, 16670, Note_on_c, 3, 93, 0
7, 16680, Note_on_c, 3, 91, 100
7, 16800, Note_on_c, 3, 91, 0
7, 16800, Note_on_c, 3, 86, 100
7, 16850, Note_on_c, 3, 86, 0
7, 16920, Note_on_c, 3, 86, 100
7, 17100, Note_on_c, 3, 86, 0
7, 17100, Note_on_c, 3, 86, 100
7, 17160, Note_on_c, 3, 86, 0
7, 17160, Note_on_c, 3, 86, 100
7, 17220, Note_on_c, 3, 86, 0
7, 17220, Note_on_c, 3, 91, 100
7, 17270, Note_on_c, 3, 91, 0
7, 17340, Note_on_c, 3, 90, 100
7, 17390, Note_on_c, 3, 90, 0
7, 17460, Note_on_c, 3, 91, 100
7, 17510, Note_on_c, 3, 91, 0
7, 17580, Note_on_c, 3, 90, 100
7, 17630, Note_on_c, 3, 90, 0
7, 17640, Note_on_c, 3, 86, 100
7, 17700, Note_on_c, 3, 86, 0
7, 17700, Note_on_c, 3, 83, 100
7, 17760, Note_on_c, 3, 83, 0
7, 17760, Note_on_c, 3, 74, 100
7, 17760, Note_on_c, 3, 86, 100
7, 17860, Note_on_c, 3, 86, 0
7, 17860, Note_on_c, 3, 74, 0
7, 17880, Note_on_c, 3, 86, 100
7, 18000, Note_on_c, 3, 86, 0
7, 18060, Note_on_c, 3, 86, 100
7, 18110, Note_on_c, 3, 86, 0
7, 18120, Note_on_c, 3, 86, 100
7, 18170, Note_on_c, 3, 86, 0
7, 18180, Note_on_c, 3, 90, 100
7, 18300, Note_on_c, 3, 90, 0
7, 18300, Note_on_c, 3, 88, 100
7, 18420, Note_on_c, 3, 88, 0
7, 18420, Note_on_c, 3, 86, 100
7, 18540, Note_on_c, 3, 86, 0
7, 18540, Note_on_c, 3, 88, 100
7, 18590, Note_on_c, 3, 88, 0
7, 18600, Note_on_c, 3, 90, 100
7, 18720, Note_on_c, 3, 90, 0
7, 18720, Note_on_c, 3, 88, 100
7, 18840, Note_on_c, 3, 88, 0
7, 18840, Note_on_c, 3, 88, 100
7, 18960, Note_on_c, 3, 88, 0
7, 19020, Note_on_c, 3, 88, 100
7, 19070, Note_on_c, 3, 88, 0
7, 19080, Note_on_c, 3, 91, 100
7, 19130, Note_on_c, 3, 91, 0
7, 19140, Note_on_c, 3, 95, 100
7, 19200, Note_on_c, 3, 95, 0
7, 19260, Note_on_c, 3, 93, 100
7, 19380, Note_on_c, 3, 93, 0
7, 19380, Note_on_c, 3, 91, 100
7, 19500, Note_on_c, 3, 91, 0
7, 19500, Note_on_c, 3, 93, 100
7, 19550, Note_on_c, 3, 93, 0
7, 19560, Note_on_c, 3, 91, 100
7, 19680, Note_on_c, 3, 91, 0
7, 19680, Note_on_c, 3, 95, 100
7, 19730, Note_on_c, 3, 95, 0
7, 19800, Note_on_c, 3, 95, 100
7, 19980, Note_on_c, 3, 95, 0
7, 19980, Note_on_c, 3, 95, 100
7, 20030, Note_on_c, 3, 95, 0
7, 20040, Note_on_c, 3, 95, 100
7, 20090, Note_on_c, 3, 95, 0
7, 20100, Note_on_c, 3, 93, 100
7, 20220, Note_on_c, 3, 93, 0
7, 20220, Note_on_c, 3, 91, 100
7, 20340, Note_on_c, 3, 91, 0
7, 20340, Note_on_c, 3, 91, 100
7, 20460, Note_on_c, 3, 91, 0
7, 20460, Note_on_c, 3, 93, 100
7, 20510, Note_on_c, 3, 93, 0
7, 20520, Note_on_c, 3, 91, 100
7, 20640, Note_on_c, 3, 91, 0
7, 20640, Note_on_c, 3, 95, 100
7, 20690, Note_on_c, 3, 95, 0
7, 20760, Note_on_c, 3, 95, 100
7, 20940, Note_on_c, 3, 95, 0
7, 20940, Note_on_c, 3, 95, 100
7, 20990, Note_on_c, 3, 95, 0
7, 21000, Note_on_c, 3, 95, 100
7, 21050, Note_on_c, 3, 95, 0
7, 21060, Note_on_c, 3, 93, 100
7, 21180, Note_on_c, 3, 93, 0
7, 21180, Note_on_c, 3, 91, 100
7, 21300, Note_on_c, 3, 91, 0
7, 21300, Note_on_c, 3, 91, 100
7, 21420, Note_on_c, 3, 91, 0
7, 21420, Note_on_c, 3, 93, 100
7, 21470, Note_on_c, 3, 93, 0
7, 21480, Note_on_c, 3, 91, 100
7, 21600, Note_on_c, 3, 91, 0
7, 21600, Note_on_c, 3, 86, 100
7, 21650, Note_on_c, 3, 86, 0
7, 21720, Note_on_c, 3, 86, 100
7, 21900, Note_on_c, 3, 86, 0
7, 21900, Note_on_c, 3, 86, 100
7, 21960, Note_on_c, 3, 86, 0
7, 21960, Note_on_c, 3, 86, 100
7, 22020, Note_on_c, 3, 86, 0
7, 22020, Note_on_c, 3, 91, 100
7, 22070, Note_on_c, 3, 91, 0
7, 22140, Note_on_c, 3, 90, 100
7, 22190, Note_on_c, 3, 90, 0
7, 22260, Note_on_c, 3, 91, 100
7, 22310, Note_on_c, 3, 91, 0
7, 22380, Note_on_c, 3, 90, 100
7, 22430, Note_on_c, 3, 90, 0
7, 22440, Note_on_c, 3, 86, 100
7, 22500, Note_on_c, 3, 86, 0
7, 22500, Note_on_c, 3, 83, 100
7, 22560, Note_on_c, 3, 83, 0
7, 22560, Note_on_c, 3, 74, 100
7, 22560, Note_on_c, 3, 86, 100
7, 22660, Note_on_c, 3, 86, 0
7, 22660, Note_on_c, 3, 74, 0
7, 22680, Note_on_c, 3, 86, 100
7, 22800, Note_on_c, 3, 86, 0
7, 22860, Note_on_c, 3, 86, 100
7, 22910, Note_on_c, 3, 86, 0
7, 22920, Note_on_c, 3, 86, 100
7, 22970, Note_on_c, 3, 86, 0
7, 22980, Note_on_c, 3, 90, 100
7, 23100, Note_on_c, 3, 90, 0
7, 23100, Note_on_c, 3, 88, 100
7, 23220, Note_on_c, 3, 88, 0
7, 23220, Note_on_c, 3, 86, 100
7, 23340, Note_on_c, 3, 86, 0
7, 23340, Note_on_c, 3, 88, 100
7, 23390, Note_on_c, 3, 88, 0
7, 23400, Note_on_c, 3, 90, 100
7, 23520, Note_on_c, 3, 90, 0
7, 23520, Note_on_c, 3, 88, 100
7, 23640, Note_on_c, 3, 88, 0
7, 23640, Note_on_c, 3, 88, 100
7, 23760, Note_on_c, 3, 88, 0
7, 23820, Note_on_c, 3, 88, 100
7, 23870, Note_on_c, 3, 88, 0
7, 23880, Note_on_c, 3, 91, 100
7, 23930, Note_on_c, 3, 91, 0
7, 23940, Note_on_c, 3, 95, 100
7, 24000, Note_on_c, 3, 95, 0
7, 24060, Note_on_c, 3, 93, 100
7, 24180, Note_on_c, 3, 93, 0
7, 24180, Note_on_c, 3, 91, 100
7, 24300, Note_on_c, 3, 91, 0
7, 24300, Note_on_c, 3, 93, 100
7, 24350, Note_on_c, 3, 93, 0
7, 24360, Note_on_c, 3, 91, 100
7, 24480, Note_on_c, 3, 91, 0
7, 26400, Note_on_c, 3, 79, 100
7, 26450, Note_on_c, 3, 79, 0
7, 26520, Note_on_c, 3, 79, 100
7, 26700, Note_on_c, 3, 79, 0
7, 26700, Note_on_c, 3, 74, 100
7, 26760, Note_on_c, 3, 74, 0
7, 26760, Note_on_c, 3, 74, 100
7, 26820, Note_on_c, 3, 74, 0
7, 26820, Note_on_c, 3, 79, 100
7, 26870, Note_on_c, 3, 79, 0
7, 26940, Note_on_c, 3, 79, 100
7, 26990, Note_on_c, 3, 79, 0
7, 27060, Note_on_c, 3, 79, 100
7, 27110, Note_on_c, 3, 79, 0
7, 27180, Note_on_c, 3, 78, 100
7, 27230, Note_on_c, 3, 78, 0
7, 27240, Note_on_c, 3, 74, 100
7, 27300, Note_on_c, 3, 74, 0
7, 27300, Note_on_c, 3, 74, 100
7, 27400, Note_on_c, 3, 74, 0
7, 27480, Note_on_c, 3, 74, 100
7, 27600, Note_on_c, 3, 74, 0
7, 27660, Note_on_c, 3, 74, 100
7, 27710, Note_on_c, 3, 74, 0
7, 27720, Note_on_c, 3, 74, 100
7, 27770, Note_on_c, 3, 74, 0
7, 27780, Note_on_c, 3, 78, 100
7, 27900, Note_on_c, 3, 78, 0
7, 27900, Note_on_c, 3, 76, 100
7, 28020, Note_on_c, 3, 76, 0
7, 28020, Note_on_c, 3, 74, 100
7, 28140, Note_on_c, 3, 74, 0
7, 28140, Note_on_c, 3, 76, 100
7, 28190, Note_on_c, 3, 76, 0
7, 28200, Note_on_c, 3, 78, 100
7, 28320, Note_on_c, 3, 78, 0
7, 28320, Note_on_c, 3, 76, 100
7, 28440, Note_on_c, 3, 76, 0
7, 28440, Note_on_c, 3, 76, 100
7, 28560, Note_on_c, 3, 76, 0
7, 28620, Note_on_c, 3, 76, 100
7, 28670, Note_on_c, 3, 76, 0
7, 28680, Note_on_c, 3, 79, 100
7, 28730, Note_on_c, 3, 79, 0
7, 28740, Note_on_c, 3, 83, 100
7, 28800, Note_on_c, 3, 83, 0
7, 28860, Note_on_c, 3, 81, 100
7, 28980, Note_on_c, 3, 81, 0
7, 28980, Note_on_c, 3, 79, 100
7, 29100, Note_on_c, 3, 79, 0
7, 29100, Note_on_c, 3, 81, 100
7, 29150, Note_on_c, 3, 81, 0
7, 29160, Note_on_c, 3, 79, 100
7, 29280, Note_on_c, 3, 79, 0
7, 29280, Note_on_c, 3, 83, 100
7, 29330, Note_on_c, 3, 83, 0
7, 29400, Note_on_c, 3, 83, 100
7, 29580, Note_on_c, 3, 83, 0
7, 29580, Note_on_c, 3, 83, 100
7, 29630, Note_on_c, 3, 83, 0
7, 29640, Note_on_c, 3, 83, 100
7, 29690, Note_on_c, 3, 83, 0
7, 29700, Note_on_c, 3, 81, 100
7, 29820, Note_on_c, 3, 81, 0
7, 29820, Note_on_c, 3, 79, 100
7, 29940, Note_on_c, 3, 79, 0
7, 29940, Note_on_c, 3, 79, 100
7, 30060, Note_on_c, 3, 79, 0
7, 30060, Note_on_c, 3, 81, 100
7, 30110, Note_on_c, 3, 81, 0
7, 30120, Note_on_c, 3, 79, 100
7, 30240, Note_on_c, 3, 79, 0
7, 30240, Note_on_c, 3, 83, 100
7, 30290, Note_on_c, 3, 83, 0
7, 30360, Note_on_c, 3, 83, 100
7, 30540, Note_on_c, 3, 83, 0
7, 30540, Note_on_c, 3, 83, 100
7, 30590, Note_on_c, 3, 83, 0
7, 30600, Note_on_c, 3, 83, 100
7, 30650, Note_on_c, 3, 83, 0
7, 30660, Note_on_c, 3, 81, 100
7, 30780, Note_on_c, 3, 81, 0
7, 30780, Note_on_c, 3, 79, 100
7, 30900, Note_on_c, 3, 79, 0
7, 30900, Note_on_c, 3, 79, 100
7, 31020, Note_on_c, 3, 79, 0
7, 31020, Note_on_c, 3, 81, 100
7, 31070, Note_on_c, 3, 81, 0
7, 31080, Note_on_c, 3, 79, 100
7, 31200, Note_on_c, 3, 79, 0
7, 31200, Note_on_c, 3, 79, 100
7, 31250, Note_on_c, 3, 79, 0
7, 31320, Note_on_c, 3, 79, 100
7, 31500, Note_on_c, 3, 79, 0
7, 31500, Note_on_c, 3, 74, 100
7, 31560, Note_on_c, 3, 74, 0
7, 31560, Note_on_c, 3, 74, 100
7, 31620, Note_on_c, 3, 74, 0
7, 31620, Note_on_c, 3, 79, 100
7, 31670, Note_on_c, 3, 79, 0
7, 31740, Note_on_c, 3, 79, 100
7, 31790, Note_on_c, 3, 79, 0
7, 31860, Note_on_c, 3, 79, 100
7, 31910, Note_on_c, 3, 79, 0
7, 31980, Note_on_c, 3, 78, 100
7, 32030, Note_on_c, 3, 78, 0
7, 32040, Note_on_c, 3, 74, 100
7, 32100, Note_on_c, 3, 74, 0
7, 32100, Note_on_c, 3, 74, 100
7, 32200, Note_on_c, 3, 74, 0
7, 32280, Note_on_c, 3, 74, 100
7, 32400, Note_on_c, 3, 74, 0
7, 32460, Note_on_c, 3, 74, 100
7, 32510, Note_on_c, 3, 74, 0
7, 32520, Note_on_c, 3, 74, 100
7, 32570, Note_on_c, 3, 74, 0
7, 32580, Note_on_c, 3, 78, 100
7, 32700, Note_on_c, 3, 78, 0
7, 32700, Note_on_c, 3, 76, 100
7, 32820, Note_on_c, 3, 76, 0
7, 32820, Note_on_c, 3, 74, 100
7, 32940, Note_on_c, 3, 74, 0
7, 32940, Note_on_c, 3, 76, 100
7, 32990, Note_on_c, 3, 76, 0
7, 33000, Note_on_c, 3, 78, 100
7, 33120, Note_on_c, 3, 78, 0
7, 33120, Note_on_c, 3, 76, 100
7, 33240, Note_on_c, 3, 76, 0
7, 33240, Note_on_c, 3, 76, 100
7, 33360, Note_on_c, 3, 76, 0
7, 33420, Note_on_c, 3, 76, 100
7, 33470, Note_on_c, 3, 76, 0
7, 33480, Note_on_c, 3, 79, 100
7, 33530, Note_on_c, 3, 79, 0
7, 33540, Note_on_c, 3, 83, 100
7, 33600, Note_on_c, 3, 83, 0
7, 33660, Note_on_c, 3, 81, 100
7, 33780, Note_on_c, 3, 81, 0
7, 33780, Note_on_c, 3, 79, 100
7, 33900, Note_on_c, 3, 79, 0
7, 33900, Note_on_c, 3, 81, 100
7, 33950, Note_on_c, 3, 81, 0
7, 33960, Note_on_c, 3, 79, 100
7, 34080, Note_on_c, 3, 79, 0
7, 34080, Note_on_c, 3, 83, 100
7, 34130, Note_on_c, 3, 83, 0
7, 34200, Note_on_c, 3, 83, 100
7, 34380, Note_on_c, 3, 83, 0
7, 34380, Note_on_c, 3, 83, 100
7, 34430, Note_on_c, 3, 83, 0
7, 34440, Note_on_c, 3, 83, 100
7, 34490, Note_on_c, 3, 83, 0
7, 34500, Note_on_c, 3, 81, 100
7, 34620, Note_on_c, 3, 81, 0
7, 34620, Note_on_c, 3, 79, 100
7, 34740, Note_on_c, 3, 79, 0
7, 34740, Note_on_c, 3, 79, 100
7, 34860, Note_on_c, 3, 79, 0
7, 34860, Note_on_c, 3, 81, 100
7, 34910, Note_on_c, 3, 81, 0
7, 34920, Note_on_c, 3, 79, 100
7, 35040, Note_on_c, 3, 79, 0
7, 35040, Note_on_c, 3, 83, 100
7, 35090, Note_on_c, 3, 83, 0
7, 35160, Note_on_c, 3, 83, 100
7, 35340, Note_on_c, 3, 83, 0
7, 35340, Note_on_c, 3, 83, 100
7, 35390, Note_on_c, 3, 83, 0
7, 35400, Note_on_c, 3, 83, 100
7, 35450, Note_on_c, 3, 83, 0
7, 35460, Note_on_c, 3, 81, 100
7, 35580, Note_on_c, 3, 81, 0
7, 35580, Note_on_c, 3, 79, 97
7, 35700, Note_on_c, 3, 79, 0
7, 35700, Note_on_c, 3, 79, 91
7, 35820, Note_on_c, 3, 79, 0
7, 35820, Note_on_c, 3, 81, 85
7, 35870, Note_on_c, 3, 81, 0
7, 35880, Note_on_c, 3, 79, 82
7, 36000, Note_on_c, 3, 79, 0
7, 36000, Note_on_c, 3, 79, 75
7, 36050, Note_on_c, 3, 79, 0
7, 36120, Note_on_c, 3, 79, 69
7, 36300, Note_on_c, 3, 79, 0
7, 36300, Note_on_c, 3, 74, 60
7, 36360, Note_on_c, 3, 74, 0
7, 36360, Note_on_c, 3, 74, 57
7, 36420, Note_on_c, 3, 74, 0
7, 36420, Note_on_c, 3, 79, 54
7, 36470, Note_on_c, 3, 79, 0
7, 36540, Note_on_c, 3, 79, 47
7, 36590, Note_on_c, 3, 79, 0
7, 36660, Note_on_c, 3, 79, 41
7, 36710, Note_on_c, 3, 79, 0
7, 36780, Note_on_c, 3, 78, 35
7, 36830, Note_on_c, 3, 78, 0
7, 36840, Note_on_c, 3, 74, 32
7, 36900, Note_on_c, 3, 74, 0
7, 36900, Note_on_c, 3, 74, 29
7, 37000, Note_on_c, 3, 74, 0
7, 37080, Note_on_c, 3, 74, 19
7, 37200, Note_on_c, 3, 74, 0
7, 37260, Note_on_c, 3, 74, 10
7, 37310, Note_on_c, 3, 74, 0
7, 37320, Note_on_c, 3, 74, 7
7, 37370, Note_on_c, 3, 74, 0
7, 37380, Note_on_c, 3, 78, 4
7, 37500, Note_on_c, 3, 78, 0
7, 37500, End_track
8, 0, Start_track
8, 0, MIDI_port, 0
8, 0, Program_c, 5, 48
8, 0, Control_c, 5, 7, 80
8, 0, Control_c, 5, 10, 0
8, 2400, Note_on_c, 5, 67, 100
8, 2450, Note_on_c, 5, 67, 0
8, 2520, Note_on_c, 5, 67, 100
8, 2700, Note_on_c, 5, 67, 0
8, 2700, Note_on_c, 5, 62, 100
8, 2760, Note_on_c, 5, 62, 0
8, 2760, Note_on_c, 5, 62, 100
8, 2820, Note_on_c, 5, 62, 0
8, 2820, Note_on_c, 5, 67, 100
8, 2870, Note_on_c, 5, 67, 0
8, 2940, Note_on_c, 5, 67, 100
8, 2990, Note_on_c, 5, 67, 0
8, 3060, Note_on_c, 5, 67, 100
8, 3110, Note_on_c, 5, 67, 0
8, 3180, Note_on_c, 5, 66, 100
8, 3230, Note_on_c, 5, 66, 0
8, 3240, Note_on_c, 5, 62, 100
8, 3300, Note_on_c, 5, 62, 0
8, 3300, Note_on_c, 5, 62, 100
8, 3400, Note_on_c, 5, 62, 0
8, 3480, Note_on_c, 5, 62, 100
8, 3600, Note_on_c, 5, 62, 0
8, 3660, Note_on_c, 5, 62, 100
8, 3710, Note_on_c, 5, 62, 0
8, 3720, Note_on_c, 5, 62, 100
8, 3770, Note_on_c, 5, 62, 0
8, 3780, Note_on_c, 5, 66, 100
8, 3900, Note_on_c, 5, 66, 0
8, 3900, Note_on_c, 5, 64, 100
8, 4020, Note_on_c, 5, 64, 0
8, 4020, Note_on_c, 5, 62, 100
8, 4140, Note_on_c, 5, 62, 0
8, 4140, Note_on_c, 5, 64, 100
8, 4190, Note_on_c, 5, 64, 0
8, 4200, Note_on_c, 5, 66, 100
8, 4320, Note_on_c, 5, 66, 0
8, 4320, Note_on_c, 5, 67, 100
8, 4440, Note_on_c, 5, 67, 0
8, 4440, Note_on_c, 5, 67, 100
8, 4560, Note_on_c, 5, 67, 0
8, 4620, Note_on_c, 5, 64, 100
8, 4670, Note_on_c, 5, 64, 0
8, 4680, Note_on_c, 5, 67, 100
8, 4730, Note_on_c, 5, 67, 0
8, 4740, Note_on_c, 5, 71, 100
8, 4800, Note_on_c, 5, 71, 0
8, 4860, Note_on_c, 5, 69, 100
8, 4980, Note_on_c, 5, 69, 0
8, 4980, Note_on_c, 5, 72, 100
8, 5100, Note_on_c, 5, 72, 0
8, 5100, Note_on_c, 5, 69, 100
8, 5150, Note_on_c, 5, 69, 0
8, 5160, Note_on_c, 5, 67, 100
8, 5280, Note_on_c, 5, 67, 0
8, 5280, Note_on_c, 5, 67, 100
8, 5330, Note_on_c, 5, 67, 0
8, 5400, Note_on_c, 5, 67, 100
8, 5580, Note_on_c, 5, 67, 0
8, 5580, Note_on_c, 5, 67, 100
8, 5630, Note_on_c, 5, 67, 0
8, 5640, Note_on_c, 5, 67, 100
8, 5690, Note_on_c, 5, 67, 0
8, 5700, Note_on_c, 5, 69, 100
8, 5820, Note_on_c, 5, 69, 0
8, 5820, Note_on_c, 5, 67, 100
8, 5940, Note_on_c, 5, 67, 0
8, 5940, Note_on_c, 5, 67, 100
8, 6060, Note_on_c, 5, 67, 0
8, 6060, Note_on_c, 5, 69, 100
8, 6110, Note_on_c, 5, 69, 0
8, 6120, Note_on_c, 5, 67, 100
8, 6240, Note_on_c, 5, 67, 0
8, 6240, Note_on_c, 5, 67, 100
8, 6290, Note_on_c, 5, 67, 0
8, 6360, Note_on_c, 5, 67, 100
8, 6540, Note_on_c, 5, 67, 0
8, 6540, Note_on_c, 5, 71, 100
8, 6590, Note_on_c, 5, 71, 0
8, 6600, Note_on_c, 5, 71, 100
8, 6650, Note_on_c, 5, 71, 0
8, 6660, Note_on_c, 5, 62, 100
8, 6780, Note_on_c, 5, 62, 0
8, 6780, Note_on_c, 5, 64, 100
8, 6900, Note_on_c, 5, 64, 0
8, 6900, Note_on_c, 5, 62, 100
8, 7020, Note_on_c, 5, 62, 0
8, 7020, Note_on_c, 5, 64, 100
8, 7070, Note_on_c, 5, 64, 0
8, 7080, Note_on_c, 5, 62, 100
8, 7200, Note_on_c, 5, 62, 0
8, 7200, Note_on_c, 5, 67, 100
8, 7250, Note_on_c, 5, 67, 0
8, 7320, Note_on_c, 5, 67, 100
8, 7500, Note_on_c, 5, 67, 0
8, 7500, Note_on_c, 5, 62, 100
8, 7560, Note_on_c, 5, 62, 0
8, 7560, Note_on_c, 5, 62, 100
8, 7620, Note_on_c, 5, 62, 0
8, 7620, Note_on_c, 5, 67, 100
8, 7670, Note_on_c, 5, 67, 0
8, 7740, Note_on_c, 5, 67, 100
8, 7790, Note_on_c, 5, 67, 0
8, 7860, Note_on_c, 5, 67, 100
8, 7910, Note_on_c, 5, 67, 0
8, 7980, Note_on_c, 5, 66, 100
8, 8030, Note_on_c, 5, 66, 0
8, 8040, Note_on_c, 5, 62, 100
8, 8100, Note_on_c, 5, 62, 0
8, 8100, Note_on_c, 5, 62, 100
8, 8200, Note_on_c, 5, 62, 0
8, 8280, Note_on_c, 5, 62, 100
8, 8400, Note_on_c, 5, 62, 0
8, 8460, Note_on_c, 5, 62, 100
8, 8510, Note_on_c, 5, 62, 0
8, 8520, Note_on_c, 5, 62, 100
8, 8570, Note_on_c, 5, 62, 0
8, 8580, Note_on_c, 5, 66, 100
8, 8700, Note_on_c, 5, 66, 0
8, 8700, Note_on_c, 5, 64, 100
8, 8820, Note_on_c, 5, 64, 0
8, 8820, Note_on_c, 5, 62, 100
8, 8940, Note_on_c, 5, 62, 0
8, 8940, Note_on_c, 5, 64, 100
8, 8990, Note_on_c, 5, 64, 0
8, 9000, Note_on_c, 5, 66, 100
8, 9120, Note_on_c, 5, 66, 0
8, 9120, Note_on_c, 5, 64, 100
8, 9240, Note_on_c, 5, 64, 0
8, 9240, Note_on_c, 5, 64, 100
8, 9360, Note_on_c, 5, 64, 0
8, 9420, Note_on_c, 5, 64, 100
8, 9470, Note_on_c, 5, 64, 0
8, 9480, Note_on_c, 5, 67, 100
8, 9530, Note_on_c, 5, 67, 0
8, 9540, Note_on_c, 5, 71, 100
8, 9600, Note_on_c, 5, 71, 0
8, 9660, Note_on_c, 5, 69, 100
8, 9780, Note_on_c, 5, 69, 0
8, 9780, Note_on_c, 5, 67, 100
8, 9900, Note_on_c, 5, 67, 0
8, 9900, Note_on_c, 5, 69, 100
8, 9950, Note_on_c, 5, 69, 0
8, 9960, Note_on_c, 5, 67, 100
8, 10080, Note_on_c, 5, 67, 0
8, 10080, Note_on_c, 5, 67, 100
8, 10130, Note_on_c, 5, 67, 0
8, 10200, Note_on_c, 5, 67, 100
8, 10380, Note_on_c, 5, 67, 0
8, 10380, Note_on_c, 5, 67, 100
8, 10430, Note_on_c, 5, 67, 0
8, 10440, Note_on_c, 5, 67, 100
8, 10490, Note_on_c, 5, 67, 0
8, 10500, Note_on_c, 5, 69, 100
8, 10620, Note_on_c, 5, 69, 0
8, 10620, Note_on_c, 5, 67, 100
8, 10740, Note_on_c, 5, 67, 0
8, 10740, Note_on_c, 5, 67, 100
8, 10860, Note_on_c, 5, 67, 0
8, 10860, Note_on_c, 5, 69, 100
8, 10910, Note_on_c, 5, 69, 0
8, 10920, Note_on_c, 5, 67, 100
8, 11040, Note_on_c, 5, 67, 0
8, 11040, Note_on_c, 5, 67, 100
8, 11090, Note_on_c, 5, 67, 0
8, 11160, Note_on_c, 5, 67, 100
8, 11340, Note_on_c, 5, 67, 0
8, 11340, Note_on_c, 5, 71, 100
8, 11390, Note_on_c, 5, 71, 0
8, 11400, Note_on_c, 5, 71, 100
8, 11450, Note_on_c, 5, 71, 0
8, 11460, Note_on_c, 5, 62, 100
8, 11580, Note_on_c, 5, 62, 0
8, 11580, Note_on_c, 5, 64, 100
8, 11700, Note_on_c, 5, 64, 0
8, 11700, Note_on_c, 5, 62, 100
8, 11820, Note_on_c, 5, 62, 0
8, 11820, Note_on_c, 5, 64, 100
8, 11870, Note_on_c, 5, 64, 0
8, 11880, Note_on_c, 5, 62, 100
8, 12000, Note_on_c, 5, 62, 0
8, 12000, Note_on_c, 5, 74, 100
8, 12050, Note_on_c, 5, 74, 0
8, 12120, Note_on_c, 5, 74, 100
8, 12300, Note_on_c, 5, 74, 0
8, 12300, Note_on_c, 5, 74, 100
8, 12360, Note_on_c, 5, 74, 0
8, 12360, Note_on_c, 5, 74, 100
8, 12420, Note_on_c, 5, 74, 0
8, 12420, Note_on_c, 5, 79, 100
8, 12470, Note_on_c, 5, 79, 0
8, 12540, Note_on_c, 5, 78, 100
8, 12590, Note_on_c, 5, 78, 0
8, 12660, Note_on_c, 5, 79, 100
8, 12710, Note_on_c, 5, 79, 0
8, 12780, Note_on_c, 5, 78, 100
8, 12830, Note_on_c, 5, 78, 0
8, 12840, Note_on_c, 5, 74, 100
8, 12900, Note_on_c, 5, 74, 0
8, 12900, Note_on_c, 5, 71, 100
8, 12960, Note_on_c, 5, 71, 0
8, 13080, Note_on_c, 5, 74, 100
8, 13200, Note_on_c, 5, 74, 0
8, 13260, Note_on_c, 5, 74, 100
8, 13310, Note_on_c, 5, 74, 0
8, 13320, Note_on_c, 5, 74, 100
8, 13370, Note_on_c, 5, 74, 0
8, 13380, Note_on_c, 5, 78, 100
8, 13500, Note_on_c, 5, 78, 0
8, 13500, Note_on_c, 5, 76, 100
8, 13620, Note_on_c, 5, 76, 0
8, 13620, Note_on_c, 5, 74, 100
8, 13740, Note_on_c, 5, 74, 0
8, 13740, Note_on_c, 5, 76, 100
8, 13790, Note_on_c, 5, 76, 0
8, 13800, Note_on_c, 5, 78, 100
8, 13920, Note_on_c, 5, 78, 0
8, 13920, Note_on_c, 5, 76, 100
8, 14040, Note_on_c, 5, 76, 0
8, 14040, Note_on_c, 5, 76, 100
8, 14160, Note_on_c, 5, 76, 0
8, 14220, Note_on_c, 5, 76, 100
8, 14270, Note_on_c, 5, 76, 0
8, 14280, Note_on_c, 5, 79, 100
8, 14330, Note_on_c, 5, 79, 0
8, 14340, Note_on_c, 5, 83, 100
8, 14400, Note_on_c, 5, 83, 0
8, 14460, Note_on_c, 5, 81, 100
8, 14580, Note_on_c, 5, 81, 0
8, 14580, Note_on_c, 5, 79, 100
8, 14700, Note_on_c, 5, 79, 0
8, 14700, Note_on_c, 5, 81, 100
8, 14750, Note_on_c, 5, 81, 0
8, 14760, Note_on_c, 5, 79, 100
8, 14880, Note_on_c, 5, 79, 0
8, 14880, Note_on_c, 5, 83, 100
8, 14930, Note_on_c, 5, 83, 0
8, 15000, Note_on_c, 5, 83, 100
8, 15180, Note_on_c, 5, 83, 0
8, 15180, Note_on_c, 5, 83, 100
8, 15230, Note_on_c, 5, 83, 0
8, 15240, Note_on_c, 5, 83, 100
8, 15290, Note_on_c, 5, 83, 0
8, 15300, Note_on_c, 5, 81, 100
8, 15420, Note_on_c, 5, 81, 0
8, 15420, Note_on_c, 5, 79, 100
8, 15540, Note_on_c, 5, 79, 0
8, 15540, Note_on_c, 5, 79, 100
8, 15660, Note_on_c, 5, 79, 0
8, 15660, Note_on_c, 5, 81, 100
8, 15710, Note_on_c, 5, 81, 0
8, 15720, Note_on_c, 5, 79, 100
8, 15840, Note_on_c, 5, 79, 0
8, 15840, Note_on_c, 5, 83, 100
8, 15890, Note_on_c, 5, 83, 0
8, 15960, Note_on_c, 5, 83, 100
8, 16140, Note_on_c, 5, 83, 0
8, 16140, Note_on_c, 5, 83, 100
8, 16190, Note_on_c, 5, 83, 0
8, 16200, Note_on_c, 5, 83, 100
8, 16250, Note_on_c, 5, 83, 0
8, 16260, Note_on_c, 5, 81, 100
8, 16380, Note_on_c, 5, 81, 0
8, 16380, Note_on_c, 5, 79, 100
8, 16500, Note_on_c, 5, 79, 0
8, 16500, Note_on_c, 5, 79, 100
8, 16620, Note_on_c, 5, 79, 0
8, 16620, Note_on_c, 5, 81, 100
8, 16670, Note_on_c, 5, 81, 0
8, 16680, Note_on_c, 5, 79, 100
8, 16800, Note_on_c, 5, 79, 0
8, 16800, Note_on_c, 5, 74, 100
8, 16850, Note_on_c, 5, 74, 0
8, 16920, Note_on_c, 5, 74, 100
8, 17100, Note_on_c, 5, 74, 0
8, 17100, Note_on_c, 5, 74, 100
8, 17160, Note_on_c, 5, 74, 0
8, 17160, Note_on_c, 5, 74, 100
8, 17220, Note_on_c, 5, 74, 0
8, 17220, Note_on_c, 5, 79, 100
8, 17270, Note_on_c, 5, 79, 0
8, 17340, Note_on_c, 5, 78, 100
8, 17390, Note_on_c, 5, 78, 0
8, 17460, Note_on_c, 5, 79, 100
8, 17510, Note_on_c, 5, 79, 0
8, 17580, Note_on_c, 5, 78, 100
8, 17630, Note_on_c, 5, 78, 0
8, 17640, Note_on_c, 5, 74, 100
8, 17700, Note_on_c, 5, 74, 0
8, 17700, Note_on_c, 5, 71, 100
8, 17760, Note_on_c, 5, 71, 0
8, 17880, Note_on_c, 5, 74, 100
8, 18000, Note_on_c, 5, 74, 0
8, 18060, Note_on_c, 5, 74, 100
8, 18110, Note_on_c, 5, 74, 0
8, 18120, Note_on_c, 5, 74, 100
8, 18170, Note_on_c, 5, 74, 0
8, 18180, Note_on_c, 5, 78, 100
8, 18300, Note_on_c, 5, 78, 0
8, 18300, Note_on_c, 5, 76, 100
8, 18420, Note_on_c, 5, 76, 0
8, 18420, Note_on_c, 5, 74, 100
8, 18540, Note_on_c, 5, 74, 0
8, 18540, Note_on_c, 5, 76, 100
8, 18590, Note_on_c, 5, 76, 0
8, 18600, Note_on_c, 5, 78, 100
8, 18720, Note_on_c, 5, 78, 0
8, 18720, Note_on_c, 5, 76, 100
8, 18840, Note_on_c, 5, 76, 0
8, 18840, Note_on_c, 5, 76, 100
8, 18960, Note_on_c, 5, 76, 0
8, 19020, Note_on_c, 5, 76, 100
8, 19070, Note_on_c, 5, 76, 0
8, 19080, Note_on_c, 5, 79, 100
8, 19130, Note_on_c, 5, 79, 0
8, 19140, Note_on_c, 5, 83, 100
8, 19200, Note_on_c, 5, 83, 0
8, 19260, Note_on_c, 5, 81, 100
8, 19380, Note_on_c, 5, 81, 0
8, 19380, Note_on_c, 5, 79, 100
8, 19500, Note_on_c, 5, 79, 0
8, 19500, Note_on_c, 5, 81, 100
8, 19550, Note_on_c, 5, 81, 0
8, 19560, Note_on_c, 5, 79, 100
8, 19680, Note_on_c, 5, 79, 0
8, 19680, Note_on_c, 5, 83, 100
8, 19730, Note_on_c, 5, 83, 0
8, 19800, Note_on_c, 5, 83, 100
8, 19980, Note_on_c, 5, 83, 0
8, 19980, Note_on_c, 5, 83, 100
8, 20030, Note_on_c, 5, 83, 0
8, 20040, Note_on_c, 5, 83, 100
8, 20090, Note_on_c, 5, 83, 0
8, 20100, Note_on_c, 5, 81, 100
8, 20220, Note_on_c, 5, 81, 0
8, 20220, Note_on_c, 5, 79, 100
8, 20340, Note_on_c, 5, 79, 0
8, 20340, Note_on_c, 5, 79, 100
8, 20460, Note_on_c, 5, 79, 0
8, 20460, Note_on_c, 5, 81, 100
8, 20510, Note_on_c, 5, 81, 0
8, 20520, Note_on_c, 5, 79, 100
8, 20640, Note_on_c, 5, 79, 0
8, 20640, Note_on_c, 5, 83, 100
8, 20690, Note_on_c, 5, 83, 0
8, 20760, Note_on_c, 5, 83, 100
8, 20940, Note_on_c, 5, 83, 0
8, 20940, Note_on_c, 5, 83, 100
8, 20990, Note_on_c, 5, 83, 0
8, 21000, Note_on_c, 5, 83, 100
8, 21050, Note_on_c, 5, 83, 0
8, 21060, Note_on_c, 5, 81, 100
8, 21180, Note_on_c, 5, 81, 0
8, 21180, Note_on_c, 5, 79, 100
8, 21300, Note_on_c, 5, 79, 0
8, 21300, Note_on_c, 5, 79, 100
8, 21420, Note_on_c, 5, 79, 0
8, 21420, Note_on_c, 5, 81, 100
8, 21470, Note_on_c, 5, 81, 0
8, 21480, Note_on_c, 5, 79, 100
8, 21600, Note_on_c, 5, 79, 0
8, 21600, Note_on_c, 5, 74, 100
8, 21650, Note_on_c, 5, 74, 0
8, 21720, Note_on_c, 5, 74, 100
8, 21900, Note_on_c, 5, 74, 0
8, 21900, Note_on_c, 5, 74, 100
8, 21960, Note_on_c, 5, 74, 0
8, 21960, Note_on_c, 5, 74, 100
8, 22020, Note_on_c, 5, 74, 0
8, 22020, Note_on_c, 5, 79, 100
8, 22070, Note_on_c, 5, 79, 0
8, 22140, Note_on_c, 5, 78, 100
8, 22190, Note_on_c, 5, 78, 0
8, 22260, Note_on_c, 5, 79, 100
8, 22310, Note_on_c, 5, 79, 0
8, 22380, Note_on_c, 5, 78, 100
8, 22430, Note_on_c, 5, 78, 0
8, 22440, Note_on_c, 5, 74, 100
8, 22500, Note_on_c, 5, 74, 0
8, 22500, Note_on_c, 5, 71, 100
8, 22560, Note_on_c, 5, 71, 0
8, 22680, Note_on_c, 5, 74, 100
8, 22800, Note_on_c, 5, 74, 0
8, 22860, Note_on_c, 5, 74, 100
8, 22910, Note_on_c, 5, 74, 0
8, 22920, Note_on_c, 5, 74, 100
8, 22970, Note_on_c, 5, 74, 0
8, 22980, Note_on_c, 5, 78, 100
8, 23100, Note_on_c, 5, 78, 0
8, 23100, Note_on_c, 5, 76, 100
8, 23220, Note_on_c, 5, 76, 0
8, 23220, Note_on_c, 5, 74, 100
8, 23340, Note_on_c, 5, 74, 0
8, 23340, Note_on_c, 5, 76, 100
8, 23390, Note_on_c, 5, 76, 0
8, 23400, Note_on_c, 5, 78, 100
8, 23520, Note_on_c, 5, 78, 0
8, 23520, Note_on_c, 5, 76, 100
8, 23640, Note_on_c, 5, 76, 0
8, 23640, Note_on_c, 5, 76, 100
8, 23760, Note_on_c, 5, 76, 0
8, 23820, Note_on_c, 5, 76, 100
8, 23870, Note_on_c, 5, 76, 0
8, 23880, Note_on_c, 5, 79, 100
8, 23930, Note_on_c, 5, 79, 0
8, 23940, Note_on_c, 5, 83, 100
8, 24000, Note_on_c, 5, 83, 0
8, 24060, Note_on_c, 5, 81, 100
8, 24180, Note_on_c, 5, 81, 0
8, 24180, Note_on_c, 5, 79, 100
8, 24300, Note_on_c, 5, 79, 0
8, 24300, Note_on_c, 5, 81, 100
8, 24350, Note_on_c, 5, 81, 0
8, 24360, Note_on_c, 5, 79, 100
8, 24480, Note_on_c, 5, 79, 0
8, 26400, Note_on_c, 5, 67, 100
8, 26450, Note_on_c, 5, 67, 0
8, 26520, Note_on_c, 5, 67, 100
8, 26700, Note_on_c, 5, 67, 0
8, 26700, Note_on_c, 5, 62, 100
8, 26760, Note_on_c, 5, 62, 0
8, 26760, Note_on_c, 5, 62, 100
8, 26820, Note_on_c, 5, 62, 0
8, 26820, Note_on_c, 5, 67, 100
8, 26870, Note_on_c, 5, 67, 0
8, 26940, Note_on_c, 5, 67, 100
8, 26990, Note_on_c, 5, 67, 0
8, 27060, Note_on_c, 5, 67, 100
8, 27110, Note_on_c, 5, 67, 0
8, 27180, Note_on_c, 5, 66, 100
8, 27230, Note_on_c, 5, 66, 0
8, 27240, Note_on_c, 5, 62, 100
8, 27300, Note_on_c, 5, 62, 0
8, 27300, Note_on_c, 5, 62, 100
8, 27400, Note_on_c, 5, 62, 0
8, 27480, Note_on_c, 5, 62, 100
8, 27600, Note_on_c, 5, 62, 0
8, 27660, Note_on_c, 5, 62, 100
8, 27710, Note_on_c, 5, 62, 0
8, 27720, Note_on_c, 5, 62, 100
8, 27770, Note_on_c, 5, 62, 0
8, 27780, Note_on_c, 5, 66, 100
8, 27900, Note_on_c, 5, 66, 0
8, 27900, Note_on_c, 5, 64, 100
8, 28020, Note_on_c, 5, 64, 0
8, 28020, Note_on_c, 5, 62, 100
8, 28140, Note_on_c, 5, 62, 0
8, 28140, Note_on_c, 5, 64, 100
8, 28190, Note_on_c, 5, 64, 0
8, 28200, Note_on_c, 5, 66, 100
8, 28320, Note_on_c, 5, 66, 0
8, 28320, Note_on_c, 5, 64, 100
8, 28440, Note_on_c, 5, 64, 0
8, 28440, Note_on_c, 5, 64, 100
8, 28560, Note_on_c, 5, 64, 0
8, 28620, Note_on_c, 5, 64, 100
8, 28670, Note_on_c, 5, 64, 0
8, 28680, Note_on_c, 5, 67, 100
8, 28730, Note_on_c, 5, 67, 0
8, 28740, Note_on_c, 5, 71, 100
8, 28800, Note_on_c, 5, 71, 0
8, 28860, Note_on_c, 5, 69, 100
8, 28980, Note_on_c, 5, 69, 0
8, 28980, Note_on_c, 5, 67, 100
8, 29100, Note_on_c, 5, 67, 0
8, 29100, Note_on_c, 5, 69, 100
8, 29150, Note_on_c, 5, 69, 0
8, 29160, Note_on_c, 5, 67, 100
8, 29280, Note_on_c, 5, 67, 0
8, 29280, Note_on_c, 5, 67, 100
8, 29330, Note_on_c, 5, 67, 0
8, 29400, Note_on_c, 5, 67, 100
8, 29580, Note_on_c, 5, 67, 0
8, 29580, Note_on_c, 5, 67, 100
8, 29630, Note_on_c, 5, 67, 0
8, 29640, Note_on_c, 5, 67, 100
8, 29690, Note_on_c, 5, 67, 0
8, 29700, Note_on_c, 5, 69, 100
8, 29820, Note_on_c, 5, 69, 0
8, 29820, Note_on_c, 5, 67, 100
8, 29940, Note_on_c, 5, 67, 0
8, 29940, Note_on_c, 5, 67, 100
8, 30060, Note_on_c, 5, 67, 0
8, 30060, Note_on_c, 5, 69, 100
8, 30110, Note_on_c, 5, 69, 0
8, 30120, Note_on_c, 5, 67, 100
8, 30240, Note_on_c, 5, 67, 0
8, 30240, Note_on_c, 5, 67, 100
8, 30290, Note_on_c, 5, 67, 0
8, 30360, Note_on_c, 5, 67, 100
8, 30540, Note_on_c, 5, 67, 0
8, 30540, Note_on_c, 5, 71, 100
8, 30590, Note_on_c, 5, 71, 0
8, 30600, Note_on_c, 5, 71, 100
8, 30650, Note_on_c, 5, 71, 0
8, 30660, Note_on_c, 5, 62, 100
8, 30780, Note_on_c, 5, 62, 0
8, 30780, Note_on_c, 5, 64, 100
8, 30900, Note_on_c, 5, 64, 0
8, 30900, Note_on_c, 5, 62, 100
8, 31020, Note_on_c, 5, 62, 0
8, 31020, Note_on_c, 5, 64, 100
8, 31070, Note_on_c, 5, 64, 0
8, 31080, Note_on_c, 5, 62, 100
8, 31200, Note_on_c, 5, 62, 0
8, 31200, Note_on_c, 5, 67, 100
8, 31250, Note_on_c, 5, 67, 0
8, 31320, Note_on_c, 5, 67, 100
8, 31500, Note_on_c, 5, 67, 0
8, 31500, Note_on_c, 5, 62, 100
8, 31560, Note_on_c, 5, 62, 0
8, 31560, Note_on_c, 5, 62, 100
8, 31620, Note_on_c, 5, 62, 0
8, 31620, Note_on_c, 5, 67, 100
8, 31670, Note_on_c, 5, 67, 0
8, 31740, Note_on_c, 5, 67, 100
8, 31790, Note_on_c, 5, 67, 0
8, 31860, Note_on_c, 5, 67, 100
8, 31910, Note_on_c, 5, 67, 0
8, 31980, Note_on_c, 5, 66, 100
8, 32030, Note_on_c, 5, 66, 0
8, 32040, Note_on_c, 5, 62, 100
8, 32100, Note_on_c, 5, 62, 0
8, 32100, Note_on_c, 5, 62, 100
8, 32200, Note_on_c, 5, 62, 0
8, 32280, Note_on_c, 5, 62, 100
8, 32400, Note_on_c, 5, 62, 0
8, 32460, Note_on_c, 5, 62, 100
8, 32510, Note_on_c, 5, 62, 0
8, 32520, Note_on_c, 5, 62, 100
8, 32570, Note_on_c, 5, 62, 0
8, 32580, Note_on_c, 5, 66, 100
8, 32700, Note_on_c, 5, 66, 0
8, 32700, Note_on_c, 5, 64, 100
8, 32820, Note_on_c, 5, 64, 0
8, 32820, Note_on_c, 5, 62, 100
8, 32940, Note_on_c, 5, 62, 0
8, 32940, Note_on_c, 5, 64, 100
8, 32990, Note_on_c, 5, 64, 0
8, 33000, Note_on_c, 5, 66, 100
8, 33120, Note_on_c, 5, 66, 0
8, 33120, Note_on_c, 5, 64, 100
8, 33240, Note_on_c, 5, 64, 0
8, 33240, Note_on_c, 5, 64, 100
8, 33360, Note_on_c, 5, 64, 0
8, 33420, Note_on_c, 5, 64, 100
8, 33470, Note_on_c, 5, 64, 0
8, 33480, Note_on_c, 5, 67, 100
8, 33530, Note_on_c, 5, 67, 0
8, 33540, Note_on_c, 5, 71, 100
8, 33600, Note_on_c, 5, 71, 0
8, 33660, Note_on_c, 5, 69, 100
8, 33780, Note_on_c, 5, 69, 0
8, 33780, Note_on_c, 5, 67, 100
8, 33900, Note_on_c, 5, 67, 0
8, 33900, Note_on_c, 5, 69, 100
8, 33950, Note_on_c, 5, 69, 0
8, 33960, Note_on_c, 5, 67, 100
8, 34080, Note_on_c, 5, 67, 0
8, 34080, Note_on_c, 5, 67, 100
8, 34130, Note_on_c, 5, 67, 0
8, 34200, Note_on_c, 5, 67, 100
8, 34380, Note_on_c, 5, 67, 0
8, 34380, Note_on_c, 5, 67, 100
8, 34430, Note_on_c, 5, 67, 0
8, 34440, Note_on_c, 5, 67, 100
8, 34490, Note_on_c, 5, 67, 0
8, 34500, Note_on_c, 5, 69, 100
8, 34620, Note_on_c, 5, 69, 0
8, 34620, Note_on_c, 5, 67, 100
8, 34740, Note_on_c, 5, 67, 0
8, 34740, Note_on_c, 5, 67, 100
8, 34860, Note_on_c, 5, 67, 0
8, 34860, Note_on_c, 5, 69, 100
8, 34910, Note_on_c, 5, 69, 0
8, 34920, Note_on_c, 5, 67, 100
8, 35040, Note_on_c, 5, 67, 0
8, 35040, Note_on_c, 5, 67, 100
8, 35090, Note_on_c, 5, 67, 0
8, 35160, Note_on_c, 5, 67, 100
8, 35340, Note_on_c, 5, 67, 0
8, 35340, Note_on_c, 5, 71, 100
8, 35390, Note_on_c, 5, 71, 0
8, 35400, Note_on_c, 5, 71, 100
8, 35450, Note_on_c, 5, 71, 0
8, 35460, Note_on_c, 5, 62, 100
8, 35580, Note_on_c, 5, 62, 0
8, 35580, Note_on_c, 5, 64, 97
8, 35700, Note_on_c, 5, 64, 0
8, 35700, Note_on_c, 5, 62, 91
8, 35820, Note_on_c, 5, 62, 0
8, 35820, Note_on_c, 5, 64, 85
8, 35870, Note_on_c, 5, 64, 0
8, 35880, Note_on_c, 5, 62, 82
8, 36000, Note_on_c, 5, 62, 0
8, 36000, Note_on_c, 5, 67, 75
8, 36050, Note_on_c, 5, 67, 0
8, 36120, Note_on_c, 5, 67, 69
8, 36300, Note_on_c, 5, 67, 0
8, 36300, Note_on_c, 5, 62, 60
8, 36360, Note_on_c, 5, 62, 0
8, 36360, Note_on_c, 5, 62, 57
8, 36420, Note_on_c, 5, 62, 0
8, 36420, Note_on_c, 5, 67, 54
8, 36470, Note_on_c, 5, 67, 0
8, 36540, Note_on_c, 5, 67, 47
8, 36590, Note_on_c, 5, 67, 0
8, 36660, Note_on_c, 5, 67, 41
8, 36710, Note_on_c, 5, 67, 0
8, 36780, Note_on_c, 5, 66, 35
8, 36830, Note_on_c, 5, 66, 0
8, 36840, Note_on_c, 5, 62, 32
8, 36900, Note_on_c, 5, 62, 0
8, 36900, Note_on_c, 5, 62, 29
8, 37000, Note_on_c, 5, 62, 0
8, 37080, Note_on_c, 5, 62, 19
8, 37200, Note_on_c, 5, 62, 0
8, 37260, Note_on_c, 5, 62, 10
8, 37310, Note_on_c, 5, 62, 0
8, 37320, Note_on_c, 5, 62, 7
8, 37370, Note_on_c, 5, 62, 0
8, 37380, Note_on_c, 5, 66, 4
8, 37500, Note_on_c, 5, 66, 0
8, 37500, End_track
9, 0, Start_track
9, 0, MIDI_port, 0
9, 0, Program_c, 6, 52
9, 0, Control_c, 6, 7, 90
9, 0, Control_c, 6, 10, 0
9, 2400, Note_on_c, 6, 62, 100
9, 2520, Note_on_c, 6, 62, 0
9, 2520, Note_on_c, 6, 64, 100
9, 2580, Note_on_c, 6, 64, 0
9, 2580, Note_on_c, 6, 62, 100
9, 2640, Note_on_c, 6, 62, 0
9, 2640, Note_on_c, 6, 67, 100
9, 2760, Note_on_c, 6, 67, 0
9, 2760, Note_on_c, 6, 69, 100
9, 2820, Note_on_c, 6, 69, 0
9, 2820, Note_on_c, 6, 71, 100
9, 2940, Note_on_c, 6, 71, 0
9, 3060, Note_on_c, 6, 71, 100
9, 3240, Note_on_c, 6, 71, 0
9, 3360, Note_on_c, 6, 69, 100
9, 3420, Note_on_c, 6, 69, 0
9, 3420, Note_on_c, 6, 67, 100
9, 3480, Note_on_c, 6, 67, 0
9, 3480, Note_on_c, 6, 66, 100
9, 3540, Note_on_c, 6, 66, 0
9, 3540, Note_on_c, 6, 66, 100
9, 3660, Note_on_c, 6, 66, 0
9, 3660, Note_on_c, 6, 67, 100
9, 3780, Note_on_c, 6, 67, 0
9, 3780, Note_on_c, 6, 69, 100
9, 3900, Note_on_c, 6, 69, 0
9, 4020, Note_on_c, 6, 69, 100
9, 4200, Note_on_c, 6, 69, 0
9, 4320, Note_on_c, 6, 64, 100
9, 4440, Note_on_c, 6, 64, 0
9, 4440, Note_on_c, 6, 67, 100
9, 4500, Note_on_c, 6, 67, 0
9, 4500, Note_on_c, 6, 64, 100
9, 4560, Note_on_c, 6, 64, 0
9, 4560, Note_on_c, 6, 67, 100
9, 4680, Note_on_c, 6, 67, 0
9, 4680, Note_on_c, 6, 69, 100
9, 4740, Note_on_c, 6, 69, 0
9, 4740, Note_on_c, 6, 71, 100
9, 4860, Note_on_c, 6, 71, 0
9, 5280, Note_on_c, 6, 71, 100
9, 5340, Note_on_c, 6, 71, 0
9, 5340, Note_on_c, 6, 71, 100
9, 5400, Note_on_c, 6, 71, 0
9, 5400, Note_on_c, 6, 71, 100
9, 5520, Note_on_c, 6, 71, 0
9, 5700, Note_on_c, 6, 64, 100
9, 5820, Note_on_c, 6, 64, 0
9, 5820, Note_on_c, 6, 62, 100
9, 5940, Note_on_c, 6, 62, 0
9, 5940, Note_on_c, 6, 64, 100
9, 6060, Note_on_c, 6, 64, 0
9, 6240, Note_on_c, 6, 71, 100
9, 6360, Note_on_c, 6, 71, 0
9, 6360, Note_on_c, 6, 71, 100
9, 6480, Note_on_c, 6, 71, 0
9, 6660, Note_on_c, 6, 64, 100
9, 6780, Note_on_c, 6, 64, 0
9, 6780, Note_on_c, 6, 62, 100
9, 6900, Note_on_c, 6, 62, 0
9, 6900, Note_on_c, 6, 67, 100
9, 7020, Note_on_c, 6, 67, 0
9, 7200, Note_on_c, 6, 62, 100
9, 7320, Note_on_c, 6, 62, 0
9, 7320, Note_on_c, 6, 64, 100
9, 7380, Note_on_c, 6, 64, 0
9, 7380, Note_on_c, 6, 62, 100
9, 7440, Note_on_c, 6, 62, 0
9, 7440, Note_on_c, 6, 67, 100
9, 7560, Note_on_c, 6, 67, 0
9, 7560, Note_on_c, 6, 69, 100
9, 7620, Note_on_c, 6, 69, 0
9, 7620, Note_on_c, 6, 71, 100
9, 7740, Note_on_c, 6, 71, 0
9, 7860, Note_on_c, 6, 71, 100
9, 8040, Note_on_c, 6, 71, 0
9, 8160, Note_on_c, 6, 69, 100
9, 8220, Note_on_c, 6, 69, 0
9, 8220, Note_on_c, 6, 67, 100
9, 8280, Note_on_c, 6, 67, 0
9, 8280, Note_on_c, 6, 66, 100
9, 8340, Note_on_c, 6, 66, 0
9, 8340, Note_on_c, 6, 66, 100
9, 8460, Note_on_c, 6, 66, 0
9, 8460, Note_on_c, 6, 67, 100
9, 8580, Note_on_c, 6, 67, 0
9, 8580, Note_on_c, 6, 69, 100
9, 8700, Note_on_c, 6, 69, 0
9, 8820, Note_on_c, 6, 69, 100
9, 9000, Note_on_c, 6, 69, 0
9, 9120, Note_on_c, 6, 64, 100
9, 9240, Note_on_c, 6, 64, 0
9, 9240, Note_on_c, 6, 67, 100
9, 9300, Note_on_c, 6, 67, 0
9, 9300, Note_on_c, 6, 64, 100
9, 9360, Note_on_c, 6, 64, 0
9, 9360, Note_on_c, 6, 67, 100
9, 9480, Note_on_c, 6, 67, 0
9, 9480, Note_on_c, 6, 69, 100
9, 9540, Note_on_c, 6, 69, 0
9, 9540, Note_on_c, 6, 71, 100
9, 9660, Note_on_c, 6, 71, 0
9, 10080, Note_on_c, 6, 71, 100
9, 10140, Note_on_c, 6, 71, 0
9, 10140, Note_on_c, 6, 71, 100
9, 10200, Note_on_c, 6, 71, 0
9, 10200, Note_on_c, 6, 71, 100
9, 10320, Note_on_c, 6, 71, 0
9, 10500, Note_on_c, 6, 64, 100
9, 10620, Note_on_c, 6, 64, 0
9, 10620, Note_on_c, 6, 62, 100
9, 10740, Note_on_c, 6, 62, 0
9, 10740, Note_on_c, 6, 64, 100
9, 10860, Note_on_c, 6, 64, 0
9, 11040, Note_on_c, 6, 71, 100
9, 11160, Note_on_c, 6, 71, 0
9, 11160, Note_on_c, 6, 71, 100
9, 11280, Note_on_c, 6, 71, 0
9, 11460, Note_on_c, 6, 64, 100
9, 11580, Note_on_c, 6, 64, 0
9, 11580, Note_on_c, 6, 62, 100
9, 11700, Note_on_c, 6, 62, 0
9, 11700, Note_on_c, 6, 67, 100
9, 11820, Note_on_c, 6, 67, 0
9, 12000, Note_on_c, 6, 62, 100
9, 12120, Note_on_c, 6, 62, 0
9, 12120, Note_on_c, 6, 64, 100
9, 12180, Note_on_c, 6, 64, 0
9, 12180, Note_on_c, 6, 62, 100
9, 12240, Note_on_c, 6, 62, 0
9, 12240, Note_on_c, 6, 67, 100
9, 12360, Note_on_c, 6, 67, 0
9, 12360, Note_on_c, 6, 69, 100
9, 12420, Note_on_c, 6, 69, 0
9, 12420, Note_on_c, 6, 71, 100
9, 12540, Note_on_c, 6, 71, 0
9, 12660, Note_on_c, 6, 71, 100
9, 12840, Note_on_c, 6, 71, 0
9, 12960, Note_on_c, 6, 69, 100
9, 13020, Note_on_c, 6, 69, 0
9, 13020, Note_on_c, 6, 67, 100
9, 13080, Note_on_c, 6, 67, 0
9, 13080, Note_on_c, 6, 66, 100
9, 13140, Note_on_c, 6, 66, 0
9, 13140, Note_on_c, 6, 66, 100
9, 13260, Note_on_c, 6, 66, 0
9, 13260, Note_on_c, 6, 67, 100
9, 13380, Note_on_c, 6, 67, 0
9, 13380, Note_on_c, 6, 69, 100
9, 13500, Note_on_c, 6, 69, 0
9, 13620, Note_on_c, 6, 69, 100
9, 13800, Note_on_c, 6, 69, 0
9, 13920, Note_on_c, 6, 64, 100
9, 14040, Note_on_c, 6, 64, 0
9, 14040, Note_on_c, 6, 67, 100
9, 14100, Note_on_c, 6, 67, 0
9, 14100, Note_on_c, 6, 64, 100
9, 14160, Note_on_c, 6, 64, 0
9, 14160, Note_on_c, 6, 67, 100
9, 14280, Note_on_c, 6, 67, 0
9, 14280, Note_on_c, 6, 69, 100
9, 14340, Note_on_c, 6, 69, 0
9, 14340, Note_on_c, 6, 71, 100
9, 14460, Note_on_c, 6, 71, 0
9, 14880, Note_on_c, 6, 71, 100
9, 14940, Note_on_c, 6, 71, 0
9, 14940, Note_on_c, 6, 71, 100
9, 15000, Note_on_c, 6, 71, 0
9, 15000, Note_on_c, 6, 71, 100
9, 15120, Note_on_c, 6, 71, 0
9, 15300, Note_on_c, 6, 64, 100
9, 15420, Note_on_c, 6, 64, 0
9, 15420, Note_on_c, 6, 62, 100
9, 15540, Note_on_c, 6, 62, 0
9, 15540, Note_on_c, 6, 64, 100
9, 15660, Note_on_c, 6, 64, 0
9, 15840, Note_on_c, 6, 71, 100
9, 15960, Note_on_c, 6, 71, 0
9, 15960, Note_on_c, 6, 71, 100
9, 16080, Note_on_c, 6, 71, 0
9, 16260, Note_on_c, 6, 64, 100
9, 16380, Note_on_c, 6, 64, 0
9, 16380, Note_on_c, 6, 62, 100
9, 16500, Note_on_c, 6, 62, 0
9, 16500, Note_on_c, 6, 67, 100
9, 16620, Note_on_c, 6, 67, 0
9, 16800, Note_on_c, 6, 62, 100
9, 16920, Note_on_c, 6, 62, 0
9, 16920, Note_on_c, 6, 64, 100
9, 16980, Note_on_c, 6, 64, 0
9, 16980, Note_on_c, 6, 62, 100
9, 17040, Note_on_c, 6, 62, 0
9, 17040, Note_on_c, 6, 67, 100
9, 17160, Note_on_c, 6, 67, 0
9, 17160, Note_on_c, 6, 69, 100
9, 17220, Note_on_c, 6, 69, 0
9, 17220, Note_on_c, 6, 71, 100
9, 17340, Note_on_c, 6, 71, 0
9, 17460, Note_on_c, 6, 71, 100
9, 17640, Note_on_c, 6, 71, 0
9, 17760, Note_on_c, 6, 69, 100
9, 17820, Note_on_c, 6, 69, 0
9, 17820, Note_on_c, 6, 67, 100
9, 17880, Note_on_c, 6, 67, 0
9, 17880, Note_on_c, 6, 66, 100
9, 17940, Note_on_c, 6, 66, 0
9, 17940, Note_on_c, 6, 66, 100
9, 18060, Note_on_c, 6, 66, 0
9, 18060, Note_on_c, 6, 67, 100
9, 18180, Note_on_c, 6, 67, 0
9, 18180, Note_on_c, 6, 69, 100
9, 18300, Note_on_c, 6, 69, 0
9, 18420, Note_on_c, 6, 69, 100
9, 18600, Note_on_c, 6, 69, 0
9, 18720, Note_on_c, 6, 64, 100
9, 18840, Note_on_c, 6, 64, 0
9, 18840, Note_on_c, 6, 67, 100
9, 18900, Note_on_c, 6, 67, 0
9, 18900, Note_on_c, 6, 64, 100
9, 18960, Note_on_c, 6, 64, 0
9, 18960, Note_on_c, 6, 67, 100
9, 19080, Note_on_c, 6, 67, 0
9, 19080, Note_on_c, 6, 69, 100
9, 19140, Note_on_c, 6, 69, 0
9, 19140, Note_on_c, 6, 71, 100
9, 19260, Note_on_c, 6, 71, 0
9, 19680, Note_on_c, 6, 71, 100
9, 19740, Note_on_c, 6, 71, 0
9, 19740, Note_on_c, 6, 71, 100
9, 19800, Note_on_c, 6, 71, 0
9, 19800, Note_on_c, 6, 71, 100
9, 19920, Note_on_c, 6, 71, 0
9, 20100, Note_on_c, 6, 64, 100
9, 20220, Note_on_c, 6, 64, 0
9, 20220, Note_on_c, 6, 62, 100
9, 20340, Note_on_c, 6, 62, 0
9, 20340, Note_on_c, 6, 64, 100
9, 20460, Note_on_c, 6, 64, 0
9, 20640, Note_on_c, 6, 71, 100
9, 20760, Note_on_c, 6, 71, 0
9, 20760, Note_on_c, 6, 71, 100
9, 20880, Note_on_c, 6, 71, 0
9, 21060, Note_on_c, 6, 64, 100
9, 21180, Note_on_c, 6, 64, 0
9, 21180, Note_on_c, 6, 62, 100
9, 21300, Note_on_c, 6, 62, 0
9, 21300, Note_on_c, 6, 67, 100
9, 21420, Note_on_c, 6, 67, 0
9, 26400, Note_on_c, 6, 62, 100
9, 26520, Note_on_c, 6, 62, 0
9, 26520, Note_on_c, 6, 64, 100
9, 26580, Note_on_c, 6, 64, 0
9, 26580, Note_on_c, 6, 62, 100
9, 26640, Note_on_c, 6, 62, 0
9, 26640, Note_on_c, 6, 67, 100
9, 26760, Note_on_c, 6, 67, 0
9, 26760, Note_on_c, 6, 69, 100
9, 26820, Note_on_c, 6, 69, 0
9, 26820, Note_on_c, 6, 71, 100
9, 26940, Note_on_c, 6, 71, 0
9, 27060, Note_on_c, 6, 71, 100
9, 27240, Note_on_c, 6, 71, 0
9, 27360, Note_on_c, 6, 69, 100
9, 27420, Note_on_c, 6, 69, 0
9, 27420, Note_on_c, 6, 67, 100
9, 27480, Note_on_c, 6, 67, 0
9, 27480, Note_on_c, 6, 66, 100
9, 27540, Note_on_c, 6, 66, 0
9, 27540, Note_on_c, 6, 66, 100
9, 27660, Note_on_c, 6, 66, 0
9, 27660, Note_on_c, 6, 67, 100
9, 27780, Note_on_c, 6, 67, 0
9, 27780, Note_on_c, 6, 69, 100
9, 27900, Note_on_c, 6, 69, 0
9, 28020, Note_on_c, 6, 69, 100
9, 28200, Note_on_c, 6, 69, 0
9, 28320, Note_on_c, 6, 64, 100
9, 28440, Note_on_c, 6, 64, 0
9, 28440, Note_on_c, 6, 67, 100
9, 28500, Note_on_c, 6, 67, 0
9, 28500, Note_on_c, 6, 64, 100
9, 28560, Note_on_c, 6, 64, 0
9, 28560, Note_on_c, 6, 67, 100
9, 28680, Note_on_c, 6, 67, 0
9, 28680, Note_on_c, 6, 69, 100
9, 28740, Note_on_c, 6, 69, 0
9, 28740, Note_on_c, 6, 71, 100
9, 28860, Note_on_c, 6, 71, 0
9, 29280, Note_on_c, 6, 71, 100
9, 29340, Note_on_c, 6, 71, 0
9, 29340, Note_on_c, 6, 71, 100
9, 29400, Note_on_c, 6, 71, 0
9, 29400, Note_on_c, 6, 71, 100
9, 29520, Note_on_c, 6, 71, 0
9, 29700, Note_on_c, 6, 64, 100
9, 29820, Note_on_c, 6, 64, 0
9, 29820, Note_on_c, 6, 62, 100
9, 29940, Note_on_c, 6, 62, 0
9, 29940, Note_on_c, 6, 64, 100
9, 30060, Note_on_c, 6, 64, 0
9, 30240, Note_on_c, 6, 71, 100
9, 30360, Note_on_c, 6, 71, 0
9, 30360, Note_on_c, 6, 71, 100
9, 30480, Note_on_c, 6, 71, 0
9, 30660, Note_on_c, 6, 64, 100
9, 30780, Note_on_c, 6, 64, 0
9, 30780, Note_on_c, 6, 62, 100
9, 30900, Note_on_c, 6, 62, 0
9, 30900, Note_on_c, 6, 67, 100
9, 31020, Note_on_c, 6, 67, 0
9, 31200, Note_on_c, 6, 62, 100
9, 31320, Note_on_c, 6, 62, 0
9, 31320, Note_on_c, 6, 64, 100
9, 31380, Note_on_c, 6, 64, 0
9, 31380, Note_on_c, 6, 62, 100
9, 31440, Note_on_c, 6, 62, 0
9, 31440, Note_on_c, 6, 67, 100
9, 31560, Note_on_c, 6, 67, 0
9, 31560, Note_on_c, 6, 69, 100
9, 31620, Note_on_c, 6, 69, 0
9, 31620, Note_on_c, 6, 71, 100
9, 31740, Note_on_c, 6, 71, 0
9, 31860, Note_on_c, 6, 71, 100
9, 32040, Note_on_c, 6, 71, 0
9, 32160, Note_on_c, 6, 69, 100
9, 32220, Note_on_c, 6, 69, 0
9, 32220, Note_on_c, 6, 67, 100
9, 32280, Note_on_c, 6, 67, 0
9, 32280, Note_on_c, 6, 66, 100
9, 32340, Note_on_c, 6, 66, 0
9, 32340, Note_on_c, 6, 66, 100
9, 32460, Note_on_c, 6, 66, 0
9, 32460, Note_on_c, 6, 67, 100
9, 32580, Note_on_c, 6, 67, 0
9, 32580, Note_on_c, 6, 69, 100
9, 32700, Note_on_c, 6, 69, 0
9, 32820, Note_on_c, 6, 69, 100
9, 33000, Note_on_c, 6, 69, 0
9, 33120, Note_on_c, 6, 64, 100
9, 33240, Note_on_c, 6, 64, 0
9, 33240, Note_on_c, 6, 67, 100
9, 33300, Note_on_c, 6, 67, 0
9, 33300, Note_on_c, 6, 64, 100
9, 33360, Note_on_c, 6, 64, 0
9, 33360, Note_on_c, 6, 67, 100
9, 33480, Note_on_c, 6, 67, 0
9, 33480, Note_on_c, 6, 69, 100
9, 33540, Note_on_c, 6, 69, 0
9, 33540, Note_on_c, 6, 71, 100
9, 33660, Note_on_c, 6, 71, 0
9, 34080, Note_on_c, 6, 71, 100
9, 34140, Note_on_c, 6, 71, 0
9, 34140, Note_on_c, 6, 71, 100
9, 34200, Note_on_c, 6, 71, 0
9, 34200, Note_on_c, 6, 71, 100
9, 34320, Note_on_c, 6, 71, 0
9, 34500, Note_on_c, 6, 64, 100
9, 34620, Note_on_c, 6, 64, 0
9, 34620, Note_on_c, 6, 62, 100
9, 34740, Note_on_c, 6, 62, 0
9, 34740, Note_on_c, 6, 64, 100
9, 34860, Note_on_c, 6, 64, 0
9, 35040, Note_on_c, 6, 71, 100
9, 35160, Note_on_c, 6, 71, 0
9, 35160, Note_on_c, 6, 71, 100
9, 35280, Note_on_c, 6, 71, 0
9, 35460, Note_on_c, 6, 64, 100
9, 35580, Note_on_c, 6, 64, 0
9, 35580, Note_on_c, 6, 62, 97
9, 35700, Note_on_c, 6, 62, 0
9, 35700, Note_on_c, 6, 67, 91
9, 35820, Note_on_c, 6, 67, 0
9, 36000, Note_on_c, 6, 62, 75
9, 36120, Note_on_c, 6, 62, 0
9, 36120, Note_on_c, 6, 64, 69
9, 36180, Note_on_c, 6, 64, 0
9, 36180, Note_on_c, 6, 62, 66
9, 36240, Note_on_c, 6, 62, 0
9, 36240, Note_on_c, 6, 67, 63
9, 36360, Note_on_c, 6, 67, 0
9, 36360, Note_on_c, 6, 69, 57
9, 36420, Note_on_c, 6, 69, 0
9, 36420, Note_on_c, 6, 71, 54
9, 36540, Note_on_c, 6, 71, 0
9, 36660, Note_on_c, 6, 71, 41
9, 36840, Note_on_c, 6, 71, 0
9, 36960, Note_on_c, 6, 69, 25
9, 37020, Note_on_c, 6, 69, 0
9, 37020, Note_on_c, 6, 67, 22
9, 37080, Note_on_c, 6, 67, 0
9, 37080, Note_on_c, 6, 66, 19
9, 37140, Note_on_c, 6, 66, 0
9, 37140, Note_on_c, 6, 66, 16
9, 37260, Note_on_c, 6, 66, 0
9, 37260, Note_on_c, 6, 67, 10
9, 37380, Note_on_c, 6, 67, 0
9, 37380, Note_on_c, 6, 69, 4
9, 37500, Note_on_c, 6, 69, 0
9, 37500, End_track
10, 0, Start_track
10, 0, MIDI_port, 0
10, 0, Program_c, 7, 52
10, 0, Control_c, 7, 7, 90
10, 0, Control_c, 7, 10, 127
10, 2402, Note_on_c, 7, 62, 100
10, 2522, Note_on_c, 7, 62, 0
10, 2522, Note_on_c, 7, 64, 100
10, 2582, Note_on_c, 7, 64, 0
10, 2582, Note_on_c, 7, 62, 100
10, 2642, Note_on_c, 7, 62, 0
10, 2642, Note_on_c, 7, 67, 100
10, 2762, Note_on_c, 7, 67, 0
10, 2762, Note_on_c, 7, 69, 100
10, 2822, Note_on_c, 7, 69, 0
10, 2822, Note_on_c, 7, 71, 100
10, 2942, Note_on_c, 7, 71, 0
10, 3062, Note_on_c, 7, 74, 100
10, 3242, Note_on_c, 7, 74, 0
10, 3362, Note_on_c, 7, 69, 100
10, 3422, Note_on_c, 7, 69, 0
10, 3422, Note_on_c, 7, 67, 100
10, 3482, Note_on_c, 7, 67, 0
10, 3482, Note_on_c, 7, 66, 100
10, 3542, Note_on_c, 7, 66, 0
10, 3542, Note_on_c, 7, 66, 100
10, 3662, Note_on_c, 7, 66, 0
10, 3662, Note_on_c, 7, 67, 100
10, 3782, Note_on_c, 7, 67, 0
10, 3782, Note_on_c, 7, 69, 100
10, 3902, Note_on_c, 7, 69, 0
10, 4022, Note_on_c, 7, 74, 100
10, 4202, Note_on_c, 7, 74, 0
10, 4322, Note_on_c, 7, 64, 100
10, 4442, Note_on_c, 7, 64, 0
10, 4442, Note_on_c, 7, 67, 100
10, 4502, Note_on_c, 7, 67, 0
10, 4502, Note_on_c, 7, 64, 100
10, 4562, Note_on_c, 7, 64, 0
10, 4562, Note_on_c, 7, 67, 100
10, 4682, Note_on_c, 7, 67, 0
10, 4682, Note_on_c, 7, 69, 100
10, 4742, Note_on_c, 7, 69, 0
10, 4742, Note_on_c, 7, 71, 100
10, 4862, Note_on_c, 7, 71, 0
10, 5282, Note_on_c, 7, 67, 100
10, 5342, Note_on_c, 7, 67, 0
10, 5342, Note_on_c, 7, 67, 100
10, 5402, Note_on_c, 7, 67, 0
10, 5402, Note_on_c, 7, 67, 100
10, 5522, Note_on_c, 7, 67, 0
10, 5702, Note_on_c, 7, 67, 100
10, 5822, Note_on_c, 7, 67, 0
10, 5822, Note_on_c, 7, 67, 100
10, 5942, Note_on_c, 7, 67, 0
10, 5942, Note_on_c, 7, 67, 100
10, 6062, Note_on_c, 7, 67, 0
10, 6242, Note_on_c, 7, 67, 100
10, 6362, Note_on_c, 7, 67, 0
10, 6362, Note_on_c, 7, 67, 100
10, 6482, Note_on_c, 7, 67, 0
10, 6662, Note_on_c, 7, 67, 100
10, 6782, Note_on_c, 7, 67, 0
10, 6782, Note_on_c, 7, 67, 100
10, 6902, Note_on_c, 7, 67, 0
10, 6902, Note_on_c, 7, 67, 100
10, 7022, Note_on_c, 7, 67, 0
10, 7202, Note_on_c, 7, 62, 100
10, 7322, Note_on_c, 7, 62, 0
10, 7322, Note_on_c, 7, 64, 100
10, 7382, Note_on_c, 7, 64, 0
10, 7382, Note_on_c, 7, 62, 100
10, 7442, Note_on_c, 7, 62, 0
10, 7442, Note_on_c, 7, 67, 100
10, 7562, Note_on_c, 7, 67, 0
10, 7562, Note_on_c, 7, 69, 100
10, 7622, Note_on_c, 7, 69, 0
10, 7622, Note_on_c, 7, 71, 100
10, 7742, Note_on_c, 7, 71, 0
10, 7862, Note_on_c, 7, 74, 100
10, 8042, Note_on_c, 7, 74, 0
10, 8162, Note_on_c, 7, 69, 100
10, 8222, Note_on_c, 7, 69, 0
10, 8222, Note_on_c, 7, 67, 100
10, 8282, Note_on_c, 7, 67, 0
10, 8282, Note_on_c, 7, 66, 100
10, 8342, Note_on_c, 7, 66, 0
10, 8342, Note_on_c, 7, 66, 100
10, 8462, Note_on_c, 7, 66, 0
10, 8462, Note_on_c, 7, 67, 100
10, 8582, Note_on_c, 7, 67, 0
10, 8582, Note_on_c, 7, 69, 100
10, 8702, Note_on_c, 7, 69, 0
10, 8822, Note_on_c, 7, 74, 100
10, 9002, Note_on_c, 7, 74, 0
10, 9122, Note_on_c, 7, 64, 100
10, 9242, Note_on_c, 7, 64, 0
10, 9242, Note_on_c, 7, 67, 100
10, 9302, Note_on_c, 7, 67, 0
10, 9302, Note_on_c, 7, 64, 100
10, 9362, Note_on_c, 7, 64, 0
10, 9362, Note_on_c, 7, 67, 100
10, 9482, Note_on_c, 7, 67, 0
10, 9482, Note_on_c, 7, 69, 100
10, 9542, Note_on_c, 7, 69, 0
10, 9542, Note_on_c, 7, 71, 100
10, 9662, Note_on_c, 7, 71, 0
10, 10082, Note_on_c, 7, 67, 100
10, 10142, Note_on_c, 7, 67, 0
10, 10142, Note_on_c, 7, 67, 100
10, 10202, Note_on_c, 7, 67, 0
10, 10202, Note_on_c, 7, 67, 100
10, 10322, Note_on_c, 7, 67, 0
10, 10502, Note_on_c, 7, 67, 100
10, 10622, Note_on_c, 7, 67, 0
10, 10622, Note_on_c, 7, 67, 100
10, 10742, Note_on_c, 7, 67, 0
10, 10742, Note_on_c, 7, 67, 100
10, 10862, Note_on_c, 7, 67, 0
10, 11042, Note_on_c, 7, 67, 100
10, 11162, Note_on_c, 7, 67, 0
10, 11162, Note_on_c, 7, 67, 100
10, 11282, Note_on_c, 7, 67, 0
10, 11462, Note_on_c, 7, 67, 100
10, 11582, Note_on_c, 7, 67, 0
10, 11582, Note_on_c, 7, 67, 100
10, 11702, Note_on_c, 7, 67, 0
10, 11702, Note_on_c, 7, 67, 100
10, 11822, Note_on_c, 7, 67, 0
10, 12002, Note_on_c, 7, 62, 100
10, 12122, Note_on_c, 7, 62, 0
10, 12122, Note_on_c, 7, 64, 100
10, 12182, Note_on_c, 7, 64, 0
10, 12182, Note_on_c, 7, 62, 100
10, 12242, Note_on_c, 7, 62, 0
10, 12242, Note_on_c, 7, 67, 100
10, 12362, Note_on_c, 7, 67, 0
10, 12362, Note_on_c, 7, 69, 100
10, 12422, Note_on_c, 7, 69, 0
10, 12422, Note_on_c, 7, 71, 100
10, 12542, Note_on_c, 7, 71, 0
10, 12662, Note_on_c, 7, 74, 100
10, 12842, Note_on_c, 7, 74, 0
10, 12962, Note_on_c, 7, 69, 100
10, 13022, Note_on_c, 7, 69, 0
10, 13022, Note_on_c, 7, 67, 100
10, 13082, Note_on_c, 7, 67, 0
10, 13082, Note_on_c, 7, 66, 100
10, 13142, Note_on_c, 7, 66, 0
10, 13142, Note_on_c, 7, 66, 100
10, 13262, Note_on_c, 7, 66, 0
10, 13262, Note_on_c, 7, 67, 100
10, 13382, Note_on_c, 7, 67, 0
10, 13382, Note_on_c, 7, 69, 100
10, 13502, Note_on_c, 7, 69, 0
10, 13622, Note_on_c, 7, 74, 100
10, 13802, Note_on_c, 7, 74, 0
10, 13922, Note_on_c, 7, 64, 100
10, 14042, Note_on_c, 7, 64, 0
10, 14042, Note_on_c, 7, 67, 100
10, 14102, Note_on_c, 7, 67, 0
10, 14102, Note_on_c, 7, 64, 100
10, 14162, Note_on_c, 7, 64, 0
10, 14162, Note_on_c, 7, 67, 100
10, 14282, Note_on_c, 7, 67, 0
10, 14282, Note_on_c, 7, 69, 100
10, 14342, Note_on_c, 7, 69, 0
10, 14342, Note_on_c, 7, 71, 100
10, 14462, Note_on_c, 7, 71, 0
10, 14882, Note_on_c, 7, 67, 100
10, 14942, Note_on_c, 7, 67, 0
10, 14942, Note_on_c, 7, 67, 100
10, 15002, Note_on_c, 7, 67, 0
10, 15002, Note_on_c, 7, 67, 100
10, 15122, Note_on_c, 7, 67, 0
10, 15302, Note_on_c, 7, 67, 100
10, 15422, Note_on_c, 7, 67, 0
10, 15422, Note_on_c, 7, 67, 100
10, 15542, Note_on_c, 7, 67, 0
10, 15542, Note_on_c, 7, 67, 100
10, 15662, Note_on_c, 7, 67, 0
10, 15842, Note_on_c, 7, 67, 100
10, 15962, Note_on_c, 7, 67, 0
10, 15962, Note_on_c, 7, 67, 100
10, 16082, Note_on_c, 7, 67, 0
10, 16262, Note_on_c, 7, 67, 100
10, 16382, Note_on_c, 7, 67, 0
10, 16382, Note_on_c, 7, 67, 100
10, 16502, Note_on_c, 7, 67, 0
10, 16502, Note_on_c, 7, 67, 100
10, 16622, Note_on_c, 7, 67, 0
10, 16802, Note_on_c, 7, 62, 100
10, 16922, Note_on_c, 7, 62, 0
10, 16922, Note_on_c, 7, 64, 100
10, 16982, Note_on_c, 7, 64, 0
10, 16982, Note_on_c, 7, 62, 100
10, 17042, Note_on_c, 7, 62, 0
10, 17042, Note_on_c, 7, 67, 100
10, 17162, Note_on_c, 7, 67, 0
10, 17162, Note_on_c, 7, 69, 100
10, 17222, Note_on_c, 7, 69, 0
10, 17222, Note_on_c, 7, 71, 100
10, 17342, Note_on_c, 7, 71, 0
10, 17462, Note_on_c, 7, 74, 100
10, 17642, Note_on_c, 7, 74, 0
10, 17762, Note_on_c, 7, 69, 100
10, 17822, Note_on_c, 7, 69, 0
10, 17822, Note_on_c, 7, 67, 100
10, 17882, Note_on_c, 7, 67, 0
10, 17882, Note_on_c, 7, 66, 100
10, 17942, Note_on_c, 7, 66, 0
10, 17942, Note_on_c, 7, 66, 100
10, 18062, Note_on_c, 7, 66, 0
10, 18062, Note_on_c, 7, 67, 100
10, 18182, Note_on_c, 7, 67, 0
10, 18182, Note_on_c, 7, 69, 100
10, 18302, Note_on_c, 7, 69, 0
10, 18422, Note_on_c, 7, 74, 100
10, 18602, Note_on_c, 7, 74, 0
10, 18722, Note_on_c, 7, 64, 100
10, 18842, Note_on_c, 7, 64, 0
10, 18842, Note_on_c, 7, 67, 100
10, 18902, Note_on_c, 7, 67, 0
10, 18902, Note_on_c, 7, 64, 100
10, 18962, Note_on_c, 7, 64, 0
10, 18962, Note_on_c, 7, 67, 100
10, 19082, Note_on_c, 7, 67, 0
10, 19082, Note_on_c, 7, 69, 100
10, 19142, Note_on_c, 7, 69, 0
10, 19142, Note_on_c, 7, 71, 100
10, 19262, Note_on_c, 7, 71, 0
10, 19682, Note_on_c, 7, 67, 100
10, 19742, Note_on_c, 7, 67, 0
10, 19742, Note_on_c, 7, 67, 100
10, 19802, Note_on_c, 7, 67, 0
10, 19802, Note_on_c, 7, 67, 100
10, 19922, Note_on_c, 7, 67, 0
10, 20102, Note_on_c, 7, 67, 100
10, 20222, Note_on_c, 7, 67, 0
10, 20222, Note_on_c, 7, 67, 100
10, 20342, Note_on_c, 7, 67, 0
10, 20342, Note_on_c, 7, 67, 100
10, 20462, Note_on_c, 7, 67, 0
10, 20642, Note_on_c, 7, 67, 100
10, 20762, Note_on_c, 7, 67, 0
10, 20762, Note_on_c, 7, 67, 100
10, 20882, Note_on_c, 7, 67, 0
10, 21062, Note_on_c, 7, 67, 100
10, 21182, Note_on_c, 7, 67, 0
10, 21182, Note_on_c, 7, 67, 100
10, 21302, Note_on_c, 7, 67, 0
10, 21302, Note_on_c, 7, 67, 100
10, 21422, Note_on_c, 7, 67, 0
10, 26402, Note_on_c, 7, 62, 100
10, 26522, Note_on_c, 7, 62, 0
10, 26522, Note_on_c, 7, 64, 100
10, 26582, Note_on_c, 7, 64, 0
10, 26582, Note_on_c, 7, 62, 100
10, 26642, Note_on_c, 7, 62, 0
10, 26642, Note_on_c, 7, 67, 100
10, 26762, Note_on_c, 7, 67, 0
10, 26762, Note_on_c, 7, 69, 100
10, 26822, Note_on_c, 7, 69, 0
10, 26822, Note_on_c, 7, 71, 100
10, 26942, Note_on_c, 7, 71, 0
10, 27062, Note_on_c, 7, 74, 100
10, 27242, Note_on_c, 7, 74, 0
10, 27362, Note_on_c, 7, 69, 100
10, 27422, Note_on_c, 7, 69, 0
10, 27422, Note_on_c, 7, 67, 100
10, 27482, Note_on_c, 7, 67, 0
10, 27482, Note_on_c, 7, 66, 100
10, 27542, Note_on_c, 7, 66, 0
10, 27542, Note_on_c, 7, 66, 100
10, 27662, Note_on_c, 7, 66, 0
10, 27662, Note_on_c, 7, 67, 100
10, 27782, Note_on_c, 7, 67, 0
10, 27782, Note_on_c, 7, 69, 100
10, 27902, Note_on_c, 7, 69, 0
10, 28022, Note_on_c, 7, 74, 100
10, 28202, Note_on_c, 7, 74, 0
10, 28322, Note_on_c, 7, 64, 100
10, 28442, Note_on_c, 7, 64, 0
10, 28442, Note_on_c, 7, 67, 100
10, 28502, Note_on_c, 7, 67, 0
10, 28502, Note_on_c, 7, 64, 100
10, 28562, Note_on_c, 7, 64, 0
10, 28562, Note_on_c, 7, 67, 100
10, 28682, Note_on_c, 7, 67, 0
10, 28682, Note_on_c, 7, 69, 100
10, 28742, Note_on_c, 7, 69, 0
10, 28742, Note_on_c, 7, 71, 100
10, 28862, Note_on_c, 7, 71, 0
10, 29282, Note_on_c, 7, 67, 100
10, 29342, Note_on_c, 7, 67, 0
10, 29342, Note_on_c, 7, 67, 100
10, 29402, Note_on_c, 7, 67, 0
10, 29402, Note_on_c, 7, 67, 100
10, 29522, Note_on_c, 7, 67, 0
10, 29702, Note_on_c, 7, 67, 100
10, 29822, Note_on_c, 7, 67, 0
10, 29822, Note_on_c, 7, 67, 100
10, 29942, Note_on_c, 7, 67, 0
10, 29942, Note_on_c, 7, 67, 100
10, 30062, Note_on_c, 7, 67, 0
10, 30242, Note_on_c, 7, 67, 100
10, 30362, Note_on_c, 7, 67, 0
10, 30362, Note_on_c, 7, 67, 100
10, 30482, Note_on_c, 7, 67, 0
10, 30662, Note_on_c, 7, 67, 100
10, 30782, Note_on_c, 7, 67, 0
10, 30782, Note_on_c, 7, 67, 100
10, 30902, Note_on_c, 7, 67, 0
10, 30902, Note_on_c, 7, 67, 100
10, 31022, Note_on_c, 7, 67, 0
10, 31202, Note_on_c, 7, 62, 100
10, 31322, Note_on_c, 7, 62, 0
10, 31322, Note_on_c, 7, 64, 100
10, 31382, Note_on_c, 7, 64, 0
10, 31382, Note_on_c, 7, 62, 100
10, 31442, Note_on_c, 7, 62, 0
10, 31442, Note_on_c, 7, 67, 100
10, 31562, Note_on_c, 7, 67, 0
10, 31562, Note_on_c, 7, 69, 100
10, 31622, Note_on_c, 7, 69, 0
10, 31622, Note_on_c, 7, 71, 100
10, 31742, Note_on_c, 7, 71, 0
10, 31862, Note_on_c, 7, 74, 100
10, 32042, Note_on_c, 7, 74, 0
10, 32162, Note_on_c, 7, 69, 100
10, 32222, Note_on_c, 7, 69, 0
10, 32222, Note_on_c, 7, 67, 100
10, 32282, Note_on_c, 7, 67, 0
10, 32282, Note_on_c, 7, 66, 100
10, 32342, Note_on_c, 7, 66, 0
10, 32342, Note_on_c, 7, 66, 100
10, 32462, Note_on_c, 7, 66, 0
10, 32462, Note_on_c, 7, 67, 100
10, 32582, Note_on_c, 7, 67, 0
10, 32582, Note_on_c, 7, 69, 100
10, 32702, Note_on_c, 7, 69, 0
10, 32822, Note_on_c, 7, 74, 100
10, 33002, Note_on_c, 7, 74, 0
10, 33122, Note_on_c, 7, 64, 100
10, 33242, Note_on_c, 7, 64, 0
10, 33242, Note_on_c, 7, 67, 100
10, 33302, Note_on_c, 7, 67, 0
10, 33302, Note_on_c, 7, 64, 100
10, 33362, Note_on_c, 7, 64, 0
10, 33362, Note_on_c, 7, 67, 100
10, 33482, Note_on_c, 7, 67, 0
10, 33482, Note_on_c, 7, 69, 100
10, 33542, Note_on_c, 7, 69, 0
10, 33542, Note_on_c, 7, 71, 100
10, 33662, Note_on_c, 7, 71, 0
10, 34082, Note_on_c, 7, 67, 100
10, 34142, Note_on_c, 7, 67, 0
10, 34142, Note_on_c, 7, 67, 100
10, 34202, Note_on_c, 7, 67, 0
10, 34202, Note_on_c, 7, 67, 100
10, 34322, Note_on_c, 7, 67, 0
10, 34502, Note_on_c, 7, 67, 100
10, 34622, Note_on_c, 7, 67, 0
10, 34622, Note_on_c, 7, 67, 100
10, 34742, Note_on_c, 7, 67, 0
10, 34742, Note_on_c, 7, 67, 100
10, 34862, Note_on_c, 7, 67, 0
10, 35042, Note_on_c, 7, 67, 100
10, 35162, Note_on_c, 7, 67, 0
10, 35162, Note_on_c, 7, 67, 100
10, 35282, Note_on_c, 7, 67, 0
10, 35462, Note_on_c, 7, 67, 100
10, 35582, Note_on_c, 7, 67, 0
10, 35582, Note_on_c, 7, 67, 97
10, 35702, Note_on_c, 7, 67, 0
10, 35702, Note_on_c, 7, 67, 91
10, 35822, Note_on_c, 7, 67, 0
10, 36002, Note_on_c, 7, 62, 75
10, 36122, Note_on_c, 7, 62, 0
10, 36122, Note_on_c, 7, 64, 69
10, 36182, Note_on_c, 7, 64, 0
10, 36182, Note_on_c, 7, 62, 66
10, 36242, Note_on_c, 7, 62, 0
10, 36242, Note_on_c, 7, 67, 63
10, 36362, Note_on_c, 7, 67, 0
10, 36362, Note_on_c, 7, 69, 57
10, 36422, Note_on_c, 7, 69, 0
10, 36422, Note_on_c, 7, 71, 53
10, 36542, Note_on_c, 7, 71, 0
10, 36662, Note_on_c, 7, 74, 41
10, 36842, Note_on_c, 7, 74, 0
10, 36962, Note_on_c, 7, 69, 25
10, 37022, Note_on_c, 7, 69, 0
10, 37022, Note_on_c, 7, 67, 22
10, 37082, Note_on_c, 7, 67, 0
10, 37082, Note_on_c, 7, 66, 19
10, 37142, Note_on_c, 7, 66, 0
10, 37142, Note_on_c, 7, 66, 16
10, 37262, Note_on_c, 7, 66, 0
10, 37262, Note_on_c, 7, 67, 10
10, 37382, Note_on_c, 7, 67, 0
10, 37382, Note_on_c, 7, 69, 3
10, 37502, Note_on_c, 7, 69, 0
10, 37502, End_track
11, 0, Start_track
11, 0, MIDI_port, 0
11, 0, Program_c, 8, 66
11, 0, Control_c, 8, 7, 110
11, 0, Control_c, 8, 10, 64
11, 2160, Note_on_c, 8, 71, 127
11, 2220, Note_on_c, 8, 71, 0
11, 2220, Note_on_c, 8, 69, 127
11, 2280, Note_on_c, 8, 69, 0
11, 2280, Note_on_c, 8, 67, 127
11, 2340, Note_on_c, 8, 67, 0
11, 2340, Note_on_c, 8, 67, 127
11, 2460, Note_on_c, 8, 67, 0
11, 2460, Note_on_c, 8, 64, 127
11, 2520, Note_on_c, 8, 64, 0
11, 2520, Note_on_c, 8, 62, 127
11, 2700, Note_on_c, 8, 62, 0
11, 2820, Note_on_c, 8, 67, 127
11, 2940, Note_on_c, 8, 67, 0
11, 2940, Note_on_c, 8, 66, 127
11, 3060, Note_on_c, 8, 66, 0
11, 3060, Note_on_c, 8, 67, 127
11, 3180, Note_on_c, 8, 67, 0
11, 3180, Note_on_c, 8, 66, 127
11, 3240, Note_on_c, 8, 66, 0
11, 3240, Note_on_c, 8, 62, 127
11, 3300, Note_on_c, 8, 62, 0
11, 3300, Note_on_c, 8, 64, 127
11, 3420, Note_on_c, 8, 64, 0
11, 3420, Note_on_c, 8, 66, 127
11, 3480, Note_on_c, 8, 66, 0
11, 3480, Note_on_c, 8, 62, 127
11, 3600, Note_on_c, 8, 62, 0
11, 3780, Note_on_c, 8, 66, 127
11, 3900, Note_on_c, 8, 66, 0
11, 3900, Note_on_c, 8, 64, 127
11, 4020, Note_on_c, 8, 64, 0
11, 4020, Note_on_c, 8, 62, 127
11, 4140, Note_on_c, 8, 62, 0
11, 4140, Note_on_c, 8, 64, 127
11, 4200, Note_on_c, 8, 64, 0
11, 4200, Note_on_c, 8, 66, 127
11, 4260, Note_on_c, 8, 66, 0
11, 4260, Note_on_c, 8, 69, 127
11, 4380, Note_on_c, 8, 69, 0
11, 4380, Note_on_c, 8, 71, 127
11, 4440, Note_on_c, 8, 71, 0
11, 4440, Note_on_c, 8, 67, 127
11, 4560, Note_on_c, 8, 67, 0
11, 4620, Note_on_c, 8, 64, 127
11, 4680, Note_on_c, 8, 64, 0
11, 4680, Note_on_c, 8, 67, 127
11, 4740, Note_on_c, 8, 67, 0
11, 4740, Note_on_c, 8, 71, 127
11, 4860, Note_on_c, 8, 71, 0
11, 4860, Note_on_c, 8, 69, 127
11, 4980, Note_on_c, 8, 69, 0
11, 4980, Note_on_c, 8, 71, 127
11, 5010, Note_on_c, 8, 71, 0
11, 5010, Note_on_c, 8, 69, 127
11, 5040, Note_on_c, 8, 69, 0
11, 5040, Note_on_c, 8, 67, 127
11, 5160, Note_on_c, 8, 67, 0
11, 5160, Note_on_c, 8, 67, 127
11, 5215, Note_on_c, 8, 67, 0
11, 5220, Note_on_c, 8, 67, 127
11, 5280, Note_on_c, 8, 67, 0
11, 5280, Note_on_c, 8, 74, 127
11, 5340, Note_on_c, 8, 74, 0
11, 5340, Note_on_c, 8, 74, 127
11, 5400, Note_on_c, 8, 74, 0
11, 5400, Note_on_c, 8, 71, 127
11, 5520, Note_on_c, 8, 71, 0
11, 5580, Note_on_c, 8, 67, 127
11, 5640, Note_on_c, 8, 67, 0
11, 5640, Note_on_c, 8, 67, 127
11, 5700, Note_on_c, 8, 67, 0
11, 5700, Note_on_c, 8, 72, 127
11, 5820, Note_on_c, 8, 72, 0
11, 5820, Note_on_c, 8, 71, 127
11, 5940, Note_on_c, 8, 71, 0
11, 5940, Note_on_c, 8, 69, 127
11, 6000, Note_on_c, 8, 69, 0
11, 6000, Note_on_c, 8, 67, 127
11, 6120, Note_on_c, 8, 67, 0
11, 6180, Note_on_c, 8, 67, 127
11, 6240, Note_on_c, 8, 67, 0
11, 6240, Note_on_c, 8, 74, 127
11, 6360, Note_on_c, 8, 74, 0
11, 6360, Note_on_c, 8, 71, 127
11, 6480, Note_on_c, 8, 71, 0
11, 6540, Note_on_c, 8, 67, 127
11, 6600, Note_on_c, 8, 67, 0
11, 6660, Note_on_c, 8, 72, 127
11, 6780, Note_on_c, 8, 72, 0
11, 6780, Note_on_c, 8, 71, 127
11, 6900, Note_on_c, 8, 71, 0
11, 6900, Note_on_c, 8, 69, 127
11, 6960, Note_on_c, 8, 69, 0
11, 6960, Note_on_c, 8, 67, 127
11, 7080, Note_on_c, 8, 67, 0
11, 7140, Note_on_c, 8, 62, 127
11, 7195, Note_on_c, 8, 62, 0
11, 7200, Note_on_c, 8, 62, 127
11, 7260, Note_on_c, 8, 62, 0
11, 7320, Note_on_c, 8, 62, 127
11, 7440, Note_on_c, 8, 62, 0
11, 7500, Note_on_c, 8, 62, 127
11, 7555, Note_on_c, 8, 62, 0
11, 7560, Note_on_c, 8, 62, 127
11, 7620, Note_on_c, 8, 62, 0
11, 7620, Note_on_c, 8, 67, 127
11, 7740, Note_on_c, 8, 67, 0
11, 7740, Note_on_c, 8, 66, 127
11, 7800, Note_on_c, 8, 66, 0
11, 7800, Note_on_c, 8, 66, 127
11, 7860, Note_on_c, 8, 66, 0
11, 7860, Note_on_c, 8, 62, 127
11, 7920, Note_on_c, 8, 67, 127
11, 7980, Note_on_c, 8, 67, 0
11, 7980, Note_on_c, 8, 62, 0
11, 7980, Note_on_c, 8, 66, 127
11, 8040, Note_on_c, 8, 66, 0
11, 8040, Note_on_c, 8, 64, 127
11, 8100, Note_on_c, 8, 64, 0
11, 8100, Note_on_c, 8, 62, 127
11, 8160, Note_on_c, 8, 62, 0
11, 8160, Note_on_c, 8, 64, 127
11, 8220, Note_on_c, 8, 64, 0
11, 8220, Note_on_c, 8, 62, 127
11, 8280, Note_on_c, 8, 62, 0
11, 8280, Note_on_c, 8, 66, 127
11, 8310, Note_on_c, 8, 66, 0
11, 8310, Note_on_c, 8, 64, 127
11, 8340, Note_on_c, 8, 64, 0
11, 8340, Note_on_c, 8, 62, 127
11, 8440, Note_on_c, 8, 62, 0
11, 8520, Note_on_c, 8, 62, 127
11, 8580, Note_on_c, 8, 62, 0
11, 8580, Note_on_c, 8, 66, 127
11, 8700, Note_on_c, 8, 66, 0
11, 8700, Note_on_c, 8, 64, 127
11, 8760, Note_on_c, 8, 64, 0
11, 8760, Note_on_c, 8, 64, 127
11, 8820, Note_on_c, 8, 64, 0
11, 8820, Note_on_c, 8, 62, 127
11, 8940, Note_on_c, 8, 62, 0
11, 8940, Note_on_c, 8, 64, 127
11, 9000, Note_on_c, 8, 64, 0
11, 9000, Note_on_c, 8, 66, 127
11, 9060, Note_on_c, 8, 66, 0
11, 9120, Note_on_c, 8, 71, 127
11, 9240, Note_on_c, 8, 71, 0
11, 9240, Note_on_c, 8, 69, 127
11, 9300, Note_on_c, 8, 69, 0
11, 9300, Note_on_c, 8, 67, 127
11, 9420, Note_on_c, 8, 67, 0
11, 9420, Note_on_c, 8, 64, 127
11, 9480, Note_on_c, 8, 64, 0
11, 9480, Note_on_c, 8, 67, 127
11, 9540, Note_on_c, 8, 67, 0
11, 9540, Note_on_c, 8, 71, 127
11, 9660, Note_on_c, 8, 71, 0
11, 9660, Note_on_c, 8, 69, 127
11, 9780, Note_on_c, 8, 69, 0
11, 9780, Note_on_c, 8, 71, 127
11, 9810, Note_on_c, 8, 71, 0
11, 9810, Note_on_c, 8, 69, 127
11, 9840, Note_on_c, 8, 69, 0
11, 9840, Note_on_c, 8, 67, 127
11, 9960, Note_on_c, 8, 67, 0
11, 10020, Note_on_c, 8, 67, 127
11, 10080, Note_on_c, 8, 67, 0
11, 10080, Note_on_c, 8, 71, 127
11, 10140, Note_on_c, 8, 71, 0
11, 10200, Note_on_c, 8, 71, 127
11, 10320, Note_on_c, 8, 71, 0
11, 10380, Note_on_c, 8, 67, 127
11, 10440, Note_on_c, 8, 67, 0
11, 10440, Note_on_c, 8, 67, 127
11, 10500, Note_on_c, 8, 67, 0
11, 10500, Note_on_c, 8, 72, 127
11, 10620, Note_on_c, 8, 72, 0
11, 10620, Note_on_c, 8, 71, 127
11, 10740, Note_on_c, 8, 71, 0
11, 10740, Note_on_c, 8, 69, 127
11, 10800, Note_on_c, 8, 69, 0
11, 10800, Note_on_c, 8, 67, 127
11, 10920, Note_on_c, 8, 67, 0
11, 11040, Note_on_c, 8, 71, 127
11, 11100, Note_on_c, 8, 71, 0
11, 11160, Note_on_c, 8, 71, 127
11, 11280, Note_on_c, 8, 71, 0
11, 11340, Note_on_c, 8, 67, 127
11, 11400, Note_on_c, 8, 67, 0
11, 11460, Note_on_c, 8, 72, 127
11, 11580, Note_on_c, 8, 72, 0
11, 11580, Note_on_c, 8, 71, 127
11, 11700, Note_on_c, 8, 71, 0
11, 11700, Note_on_c, 8, 69, 127
11, 11760, Note_on_c, 8, 69, 0
11, 11760, Note_on_c, 8, 67, 127
11, 11880, Note_on_c, 8, 67, 0
11, 12000, Note_on_c, 8, 71, 127
11, 12060, Note_on_c, 8, 71, 0
11, 12120, Note_on_c, 8, 71, 127
11, 12240, Note_on_c, 8, 71, 0
11, 12300, Note_on_c, 8, 62, 127
11, 12355, Note_on_c, 8, 62, 0
11, 12360, Note_on_c, 8, 62, 127
11, 12420, Note_on_c, 8, 62, 0
11, 12420, Note_on_c, 8, 67, 127
11, 12540, Note_on_c, 8, 67, 0
11, 12540, Note_on_c, 8, 66, 127
11, 12660, Note_on_c, 8, 66, 0
11, 12660, Note_on_c, 8, 67, 127
11, 12780, Note_on_c, 8, 67, 0
11, 12780, Note_on_c, 8, 66, 127
11, 12840, Note_on_c, 8, 66, 0
11, 12840, Note_on_c, 8, 64, 127
11, 12900, Note_on_c, 8, 64, 0
11, 12900, Note_on_c, 8, 62, 127
11, 12960, Note_on_c, 8, 62, 0
11, 12960, Note_on_c, 8, 64, 127
11, 13020, Note_on_c, 8, 64, 0
11, 13020, Note_on_c, 8, 66, 127
11, 13080, Note_on_c, 8, 66, 0
11, 13080, Note_on_c, 8, 62, 127
11, 13200, Note_on_c, 8, 62, 0
11, 13320, Note_on_c, 8, 62, 127
11, 13380, Note_on_c, 8, 62, 0
11, 13380, Note_on_c, 8, 66, 127
11, 13500, Note_on_c, 8, 66, 0
11, 13500, Note_on_c, 8, 64, 127
11, 13620, Note_on_c, 8, 64, 0
11, 13620, Note_on_c, 8, 62, 127
11, 13740, Note_on_c, 8, 62, 0
11, 13740, Note_on_c, 8, 64, 127
11, 13800, Note_on_c, 8, 64, 0
11, 13800, Note_on_c, 8, 66, 127
11, 13860, Note_on_c, 8, 66, 0
11, 13860, Note_on_c, 8, 69, 127
11, 13980, Note_on_c, 8, 69, 0
11, 13980, Note_on_c, 8, 71, 127
11, 14040, Note_on_c, 8, 71, 0
11, 14040, Note_on_c, 8, 67, 127
11, 14160, Note_on_c, 8, 67, 0
11, 14220, Note_on_c, 8, 64, 127
11, 14280, Note_on_c, 8, 64, 0
11, 14280, Note_on_c, 8, 67, 127
11, 14340, Note_on_c, 8, 67, 0
11, 14340, Note_on_c, 8, 71, 127
11, 14460, Note_on_c, 8, 71, 0
11, 14460, Note_on_c, 8, 69, 127
11, 14580, Note_on_c, 8, 69, 0
11, 14580, Note_on_c, 8, 71, 127
11, 14610, Note_on_c, 8, 71, 0
11, 14610, Note_on_c, 8, 69, 127
11, 14640, Note_on_c, 8, 69, 0
11, 14640, Note_on_c, 8, 67, 127
11, 14760, Note_on_c, 8, 67, 0
11, 14820, Note_on_c, 8, 67, 127
11, 14880, Note_on_c, 8, 67, 0
11, 14880, Note_on_c, 8, 74, 127
11, 15000, Note_on_c, 8, 74, 0
11, 15000, Note_on_c, 8, 71, 127
11, 15120, Note_on_c, 8, 71, 0
11, 15180, Note_on_c, 8, 67, 127
11, 15240, Note_on_c, 8, 67, 0
11, 15240, Note_on_c, 8, 67, 127
11, 15300, Note_on_c, 8, 67, 0
11, 15300, Note_on_c, 8, 72, 127
11, 15420, Note_on_c, 8, 72, 0
11, 15420, Note_on_c, 8, 71, 127
11, 15540, Note_on_c, 8, 71, 0
11, 15540, Note_on_c, 8, 69, 127
11, 15600, Note_on_c, 8, 69, 0
11, 15600, Note_on_c, 8, 67, 127
11, 15720, Note_on_c, 8, 67, 0
11, 15780, Note_on_c, 8, 67, 127
11, 15840, Note_on_c, 8, 67, 0
11, 15840, Note_on_c, 8, 74, 127
11, 15960, Note_on_c, 8, 74, 0
11, 15960, Note_on_c, 8, 71, 127
11, 16080, Note_on_c, 8, 71, 0
11, 16140, Note_on_c, 8, 67, 127
11, 16200, Note_on_c, 8, 67, 0
11, 16200, Note_on_c, 8, 67, 127
11, 16260, Note_on_c, 8, 67, 0
11, 16260, Note_on_c, 8, 72, 127
11, 16380, Note_on_c, 8, 72, 0
11, 16380, Note_on_c, 8, 71, 127
11, 16500, Note_on_c, 8, 71, 0
11, 16500, Note_on_c, 8, 69, 127
11, 16560, Note_on_c, 8, 69, 0
11, 16560, Note_on_c, 8, 67, 127
11, 16680, Note_on_c, 8, 67, 0
11, 16800, Note_on_c, 8, 71, 127
11, 16860, Note_on_c, 8, 71, 0
11, 16860, Note_on_c, 8, 69, 127
11, 16920, Note_on_c, 8, 69, 0
11, 16920, Note_on_c, 8, 67, 127
11, 16980, Note_on_c, 8, 67, 0
11, 16980, Note_on_c, 8, 67, 127
11, 17100, Note_on_c, 8, 67, 0
11, 17100, Note_on_c, 8, 64, 127
11, 17160, Note_on_c, 8, 64, 0
11, 17160, Note_on_c, 8, 62, 127
11, 17220, Note_on_c, 8, 62, 0
11, 17220, Note_on_c, 8, 67, 127
11, 17340, Note_on_c, 8, 67, 0
11, 17340, Note_on_c, 8, 66, 127
11, 17400, Note_on_c, 8, 66, 0
11, 17460, Note_on_c, 8, 67, 127
11, 17580, Note_on_c, 8, 67, 0
11, 17580, Note_on_c, 8, 66, 127
11, 17640, Note_on_c, 8, 66, 0
11, 17640, Note_on_c, 8, 62, 127
11, 17700, Note_on_c, 8, 62, 0
11, 17700, Note_on_c, 8, 64, 127
11, 17820, Note_on_c, 8, 64, 0
11, 17820, Note_on_c, 8, 66, 127
11, 17880, Note_on_c, 8, 66, 0
11, 17880, Note_on_c, 8, 62, 127
11, 18000, Note_on_c, 8, 62, 0
11, 18180, Note_on_c, 8, 66, 127
11, 18300, Note_on_c, 8, 66, 0
11, 18300, Note_on_c, 8, 64, 127
11, 18360, Note_on_c, 8, 64, 0
11, 18420, Note_on_c, 8, 62, 127
11, 18540, Note_on_c, 8, 62, 0
11, 18540, Note_on_c, 8, 64, 127
11, 18600, Note_on_c, 8, 64, 0
11, 18600, Note_on_c, 8, 66, 127
11, 18660, Note_on_c, 8, 66, 0
11, 18660, Note_on_c, 8, 69, 127
11, 18780, Note_on_c, 8, 69, 0
11, 18780, Note_on_c, 8, 71, 127
11, 18840, Note_on_c, 8, 71, 0
11, 18840, Note_on_c, 8, 67, 127
11, 18960, Note_on_c, 8, 67, 0
11, 19020, Note_on_c, 8, 64, 127
11, 19080, Note_on_c, 8, 64, 0
11, 19080, Note_on_c, 8, 67, 127
11, 19140, Note_on_c, 8, 67, 0
11, 19140, Note_on_c, 8, 71, 127
11, 19260, Note_on_c, 8, 71, 0
11, 19260, Note_on_c, 8, 69, 127
11, 19380, Note_on_c, 8, 69, 0
11, 19380, Note_on_c, 8, 71, 127
11, 19410, Note_on_c, 8, 71, 0
11, 19410, Note_on_c, 8, 69, 127
11, 19440, Note_on_c, 8, 69, 0
11, 19440, Note_on_c, 8, 67, 127
11, 19560, Note_on_c, 8, 67, 0
11, 19560, Note_on_c, 8, 67, 127
11, 19620, Note_on_c, 8, 67, 0
11, 19620, Note_on_c, 8, 67, 127
11, 19680, Note_on_c, 8, 67, 0
11, 19680, Note_on_c, 8, 74, 127
11, 19800, Note_on_c, 8, 74, 0
11, 19800, Note_on_c, 8, 71, 127
11, 19920, Note_on_c, 8, 71, 0
11, 19980, Note_on_c, 8, 67, 127
11, 20040, Note_on_c, 8, 67, 0
11, 20040, Note_on_c, 8, 67, 127
11, 20100, Note_on_c, 8, 67, 0
11, 20100, Note_on_c, 8, 72, 127
11, 20220, Note_on_c, 8, 72, 0
11, 20220, Note_on_c, 8, 71, 127
11, 20340, Note_on_c, 8, 71, 0
11, 20340, Note_on_c, 8, 69, 127
11, 20400, Note_on_c, 8, 69, 0
11, 20400, Note_on_c, 8, 67, 127
11, 20520, Note_on_c, 8, 67, 0
11, 20580, Note_on_c, 8, 67, 127
11, 20640, Note_on_c, 8, 67, 0
11, 20640, Note_on_c, 8, 74, 127
11, 20760, Note_on_c, 8, 74, 0
11, 20760, Note_on_c, 8, 71, 127
11, 20880, Note_on_c, 8, 71, 0
11, 20940, Note_on_c, 8, 67, 127
11, 21000, Note_on_c, 8, 67, 0
11, 21060, Note_on_c, 8, 74, 127
11, 21180, Note_on_c, 8, 74, 0
11, 21180, Note_on_c, 8, 76, 127
11, 21300, Note_on_c, 8, 76, 0
11, 21300, Note_on_c, 8, 71, 127
11, 21330, Note_on_c, 8, 71, 0
11, 21330, Note_on_c, 8, 69, 127
11, 21360, Note_on_c, 8, 69, 0
11, 21360, Note_on_c, 8, 67, 127
11, 21480, Note_on_c, 8, 67, 0
11, 24900, Note_on_c, 8, 67, 127
11, 26100, Note_on_c, 8, 67, 0
11, 26160, Note_on_c, 8, 71, 127
11, 26220, Note_on_c, 8, 71, 0
11, 26220, Note_on_c, 8, 71, 127
11, 26280, Note_on_c, 8, 71, 0
11, 26280, Note_on_c, 8, 69, 127
11, 26340, Note_on_c, 8, 69, 0
11, 26340, Note_on_c, 8, 67, 127
11, 26400, Note_on_c, 8, 71, 127
11, 26460, Note_on_c, 8, 67, 0
11, 26520, Note_on_c, 8, 71, 0
11, 26520, Note_on_c, 8, 71, 127
11, 26640, Note_on_c, 8, 71, 0
11, 26700, Note_on_c, 8, 62, 127
11, 26760, Note_on_c, 8, 62, 0
11, 26760, Note_on_c, 8, 62, 127
11, 26820, Note_on_c, 8, 62, 0
11, 26820, Note_on_c, 8, 67, 127
11, 26940, Note_on_c, 8, 67, 0
11, 26940, Note_on_c, 8, 66, 127
11, 27060, Note_on_c, 8, 66, 0
11, 27060, Note_on_c, 8, 67, 127
11, 27180, Note_on_c, 8, 67, 0
11, 27180, Note_on_c, 8, 66, 127
11, 27240, Note_on_c, 8, 66, 0
11, 27240, Note_on_c, 8, 62, 127
11, 27300, Note_on_c, 8, 62, 0
11, 27300, Note_on_c, 8, 64, 127
11, 27420, Note_on_c, 8, 64, 0
11, 27420, Note_on_c, 8, 66, 127
11, 27480, Note_on_c, 8, 66, 0
11, 27480, Note_on_c, 8, 62, 127
11, 27600, Note_on_c, 8, 62, 0
11, 27780, Note_on_c, 8, 66, 127
11, 27900, Note_on_c, 8, 66, 0
11, 27900, Note_on_c, 8, 64, 127
11, 28020, Note_on_c, 8, 64, 0
11, 28020, Note_on_c, 8, 62, 127
11, 28140, Note_on_c, 8, 62, 0
11, 28140, Note_on_c, 8, 64, 127
11, 28200, Note_on_c, 8, 64, 0
11, 28200, Note_on_c, 8, 66, 127
11, 28260, Note_on_c, 8, 66, 0
11, 28260, Note_on_c, 8, 69, 127
11, 28380, Note_on_c, 8, 69, 0
11, 28380, Note_on_c, 8, 71, 127
11, 28440, Note_on_c, 8, 71, 0
11, 28440, Note_on_c, 8, 67, 127
11, 28560, Note_on_c, 8, 67, 0
11, 28620, Note_on_c, 8, 64, 127
11, 28680, Note_on_c, 8, 64, 0
11, 28680, Note_on_c, 8, 67, 127
11, 28740, Note_on_c, 8, 67, 0
11, 28740, Note_on_c, 8, 71, 127
11, 28860, Note_on_c, 8, 71, 0
11, 28860, Note_on_c, 8, 69, 127
11, 28980, Note_on_c, 8, 69, 0
11, 28980, Note_on_c, 8, 71, 127
11, 29010, Note_on_c, 8, 71, 0
11, 29010, Note_on_c, 8, 69, 127
11, 29040, Note_on_c, 8, 69, 0
11, 29040, Note_on_c, 8, 67, 127
11, 29160, Note_on_c, 8, 67, 0
11, 29160, Note_on_c, 8, 67, 127
11, 29215, Note_on_c, 8, 67, 0
11, 29220, Note_on_c, 8, 67, 127
11, 29280, Note_on_c, 8, 67, 0
11, 29280, Note_on_c, 8, 74, 127
11, 29340, Note_on_c, 8, 74, 0
11, 29340, Note_on_c, 8, 74, 127
11, 29400, Note_on_c, 8, 74, 0
11, 29400, Note_on_c, 8, 71, 127
11, 29520, Note_on_c, 8, 71, 0
11, 29580, Note_on_c, 8, 67, 127
11, 29640, Note_on_c, 8, 67, 0
11, 29640, Note_on_c, 8, 67, 127
11, 29700, Note_on_c, 8, 67, 0
11, 29700, Note_on_c, 8, 72, 127
11, 29820, Note_on_c, 8, 72, 0
11, 29820, Note_on_c, 8, 71, 127
11, 29940, Note_on_c, 8, 71, 0
11, 29940, Note_on_c, 8, 69, 127
11, 30000, Note_on_c, 8, 69, 0
11, 30000, Note_on_c, 8, 67, 127
11, 30120, Note_on_c, 8, 67, 0
11, 30180, Note_on_c, 8, 67, 127
11, 30240, Note_on_c, 8, 67, 0
11, 30240, Note_on_c, 8, 74, 127
11, 30360, Note_on_c, 8, 74, 0
11, 30360, Note_on_c, 8, 71, 127
11, 30480, Note_on_c, 8, 71, 0
11, 30540, Note_on_c, 8, 67, 127
11, 30600, Note_on_c, 8, 67, 0
11, 30660, Note_on_c, 8, 72, 127
11, 30780, Note_on_c, 8, 72, 0
11, 30780, Note_on_c, 8, 71, 127
11, 30900, Note_on_c, 8, 71, 0
11, 30900, Note_on_c, 8, 69, 127
11, 30960, Note_on_c, 8, 69, 0
11, 30960, Note_on_c, 8, 67, 127
11, 31080, Note_on_c, 8, 67, 0
11, 31200, Note_on_c, 8, 71, 127
11, 31260, Note_on_c, 8, 71, 0
11, 31260, Note_on_c, 8, 69, 127
11, 31320, Note_on_c, 8, 69, 0
11, 31320, Note_on_c, 8, 67, 127
11, 31380, Note_on_c, 8, 67, 0
11, 31380, Note_on_c, 8, 71, 127
11, 31500, Note_on_c, 8, 71, 0
11, 31620, Note_on_c, 8, 67, 127
11, 31740, Note_on_c, 8, 67, 0
11, 31740, Note_on_c, 8, 66, 127
11, 31860, Note_on_c, 8, 66, 0
11, 31860, Note_on_c, 8, 67, 127
11, 31980, Note_on_c, 8, 67, 0
11, 31980, Note_on_c, 8, 66, 127
11, 32040, Note_on_c, 8, 66, 0
11, 32040, Note_on_c, 8, 67, 127
11, 32100, Note_on_c, 8, 67, 0
11, 32100, Note_on_c, 8, 69, 127
11, 32220, Note_on_c, 8, 69, 0
11, 32220, Note_on_c, 8, 69, 127
11, 32280, Note_on_c, 8, 69, 0
11, 32280, Note_on_c, 8, 66, 127
11, 32400, Note_on_c, 8, 66, 0
11, 32580, Note_on_c, 8, 66, 127
11, 32700, Note_on_c, 8, 66, 0
11, 32700, Note_on_c, 8, 64, 127
11, 32820, Note_on_c, 8, 64, 0
11, 32820, Note_on_c, 8, 62, 127
11, 32940, Note_on_c, 8, 62, 0
11, 32940, Note_on_c, 8, 64, 127
11, 33000, Note_on_c, 8, 64, 0
11, 33000, Note_on_c, 8, 66, 127
11, 33060, Note_on_c, 8, 66, 0
11, 33060, Note_on_c, 8, 69, 127
11, 33180, Note_on_c, 8, 69, 0
11, 33180, Note_on_c, 8, 71, 127
11, 33240, Note_on_c, 8, 71, 0
11, 33240, Note_on_c, 8, 67, 127
11, 33360, Note_on_c, 8, 67, 0
11, 33420, Note_on_c, 8, 64, 127
11, 33480, Note_on_c, 8, 64, 0
11, 33480, Note_on_c, 8, 67, 127
11, 33540, Note_on_c, 8, 67, 0
11, 33540, Note_on_c, 8, 71, 127
11, 33660, Note_on_c, 8, 71, 0
11, 33660, Note_on_c, 8, 69, 127
11, 33780, Note_on_c, 8, 69, 0
11, 33780, Note_on_c, 8, 71, 127
11, 33810, Note_on_c, 8, 71, 0
11, 33810, Note_on_c, 8, 69, 127
11, 33840, Note_on_c, 8, 69, 0
11, 33840, Note_on_c, 8, 67, 127
11, 33960, Note_on_c, 8, 67, 0
11, 33960, Note_on_c, 8, 67, 127
11, 34015, Note_on_c, 8, 67, 0
11, 34020, Note_on_c, 8, 67, 127
11, 34080, Note_on_c, 8, 67, 0
11, 34080, Note_on_c, 8, 74, 127
11, 34200, Note_on_c, 8, 74, 0
11, 34200, Note_on_c, 8, 71, 127
11, 34320, Note_on_c, 8, 71, 0
11, 34380, Note_on_c, 8, 67, 127
11, 34440, Note_on_c, 8, 67, 0
11, 34440, Note_on_c, 8, 67, 127
11, 34500, Note_on_c, 8, 67, 0
11, 34500, Note_on_c, 8, 72, 127
11, 34620, Note_on_c, 8, 72, 0
11, 34620, Note_on_c, 8, 71, 127
11, 34740, Note_on_c, 8, 71, 0
11, 34740, Note_on_c, 8, 69, 127
11, 34800, Note_on_c, 8, 69, 0
11, 34800, Note_on_c, 8, 67, 127
11, 34920, Note_on_c, 8, 67, 0
11, 34980, Note_on_c, 8, 67, 127
11, 35040, Note_on_c, 8, 67, 0
11, 35040, Note_on_c, 8, 74, 127
11, 35160, Note_on_c, 8, 74, 0
11, 35160, Note_on_c, 8, 71, 127
11, 35280, Note_on_c, 8, 71, 0
11, 35340, Note_on_c, 8, 67, 127
11, 35400, Note_on_c, 8, 67, 0
11, 35460, Note_on_c, 8, 72, 127
11, 35580, Note_on_c, 8, 72, 0
11, 35580, Note_on_c, 8, 71, 123
11, 35700, Note_on_c, 8, 71, 0
11, 35700, Note_on_c, 8, 69, 115
11, 35760, Note_on_c, 8, 69, 0
11, 35760, Note_on_c, 8, 67, 111
11, 35880, Note_on_c, 8, 67, 0
11, 35940, Note_on_c, 8, 62, 100
11, 35995, Note_on_c, 8, 62, 0
11, 36000, Note_on_c, 8, 71, 95
11, 36060, Note_on_c, 8, 71, 0
11, 36060, Note_on_c, 8, 69, 91
11, 36120, Note_on_c, 8, 69, 0
11, 36120, Note_on_c, 8, 67, 87
11, 36180, Note_on_c, 8, 67, 0
11, 36180, Note_on_c, 8, 71, 83
11, 36300, Note_on_c, 8, 71, 0
11, 36420, Note_on_c, 8, 67, 68
11, 36540, Note_on_c, 8, 67, 0
11, 36540, Note_on_c, 8, 66, 59
11, 36660, Note_on_c, 8, 66, 0
11, 36660, Note_on_c, 8, 67, 52
11, 36780, Note_on_c, 8, 67, 0
11, 36780, Note_on_c, 8, 66, 44
11, 36840, Note_on_c, 8, 66, 0
11, 36840, Note_on_c, 8, 67, 40
11, 36900, Note_on_c, 8, 67, 0
11, 36900, Note_on_c, 8, 69, 36
11, 37020, Note_on_c, 8, 69, 0
11, 37020, Note_on_c, 8, 69, 27
11, 37080, Note_on_c, 8, 69, 0
11, 37080, Note_on_c, 8, 66, 24
11, 37200, Note_on_c, 8, 66, 0
11, 37380, Note_on_c, 8, 66, 5
11, 37500, Note_on_c, 8, 66, 0
11, 37500, End_track
12, 0, Start_track
12, 0, MIDI_port, 0
12, 0, Control_c, 9, 7, 125
12, 0, Control_c, 9, 10, 64
12, 420, Note_on_c, 9, 40, 125
12, 450, Note_on_c, 9, 40, 125
12, 480, Note_on_c, 9, 42, 125
12, 480, Note_on_c, 9, 40, 125
12, 540, Note_on_c, 9, 40, 0
12, 570, Note_on_c, 9, 40, 0
12, 600, Note_on_c, 9, 42, 0
12, 600, Note_on_c, 9, 40, 0
12, 600, Note_on_c, 9, 42, 125
12, 600, Note_on_c, 9, 40, 125
12, 720, Note_on_c, 9, 40, 0
12, 720, Note_on_c, 9, 42, 0
12, 720, Note_on_c, 9, 42, 125
12, 720, Note_on_c, 9, 40, 125
12, 840, Note_on_c, 9, 40, 0
12, 840, Note_on_c, 9, 42, 0
12, 840, Note_on_c, 9, 42, 125
12, 840, Note_on_c, 9, 40, 125
12, 960, Note_on_c, 9, 40, 0
12, 960, Note_on_c, 9, 42, 0
12, 960, Note_on_c, 9, 42, 125
12, 960, Note_on_c, 9, 40, 125
12, 1080, Note_on_c, 9, 40, 0
12, 1080, Note_on_c, 9, 42, 0
12, 1080, Note_on_c, 9, 42, 125
12, 1080, Note_on_c, 9, 40, 125
12, 1200, Note_on_c, 9, 40, 0
12, 1200, Note_on_c, 9, 42, 0
12, 1200, Note_on_c, 9, 42, 125
12, 1200, Note_on_c, 9, 40, 125
12, 1320, Note_on_c, 9, 40, 0
12, 1320, Note_on_c, 9, 42, 0
12, 1320, Note_on_c, 9, 42, 125
12, 1320, Note_on_c, 9, 40, 125
12, 1440, Note_on_c, 9, 40, 0
12, 1440, Note_on_c, 9, 42, 0
12, 1440, Note_on_c, 9, 42, 125
12, 1440, Note_on_c, 9, 40, 125
12, 1560, Note_on_c, 9, 40, 0
12, 1560, Note_on_c, 9, 42, 0
12, 1560, Note_on_c, 9, 42, 125
12, 1560, Note_on_c, 9, 40, 125
12, 1680, Note_on_c, 9, 40, 0
12, 1680, Note_on_c, 9, 42, 0
12, 1680, Note_on_c, 9, 42, 125
12, 1680, Note_on_c, 9, 40, 125
12, 1800, Note_on_c, 9, 40, 0
12, 1800, Note_on_c, 9, 42, 0
12, 1800, Note_on_c, 9, 42, 125
12, 1800, Note_on_c, 9, 40, 125
12, 1920, Note_on_c, 9, 40, 0
12, 1920, Note_on_c, 9, 42, 0
12, 1920, Note_on_c, 9, 42, 125
12, 1920, Note_on_c, 9, 40, 125
12, 2040, Note_on_c, 9, 40, 0
12, 2040, Note_on_c, 9, 42, 0
12, 2040, Note_on_c, 9, 46, 125
12, 2040, Note_on_c, 9, 40, 125
12, 2160, Note_on_c, 9, 40, 0
12, 2160, Note_on_c, 9, 46, 0
12, 2160, Note_on_c, 9, 42, 125
12, 2160, Note_on_c, 9, 40, 125
12, 2190, Note_on_c, 9, 40, 125
12, 2250, Note_on_c, 9, 40, 125
12, 2280, Note_on_c, 9, 40, 0
12, 2280, Note_on_c, 9, 42, 0
12, 2280, Note_on_c, 9, 42, 125
12, 2280, Note_on_c, 9, 40, 125
12, 2310, Note_on_c, 9, 40, 0
12, 2340, Note_on_c, 9, 40, 125
12, 2370, Note_on_c, 9, 40, 0
12, 2400, Note_on_c, 9, 42, 0
12, 2400, Note_on_c, 9, 40, 0
12, 2400, Note_on_c, 9, 42, 125
12, 2400, Note_on_c, 9, 40, 125
12, 2460, Note_on_c, 9, 40, 0
12, 2520, Note_on_c, 9, 42, 0
12, 2520, Note_on_c, 9, 40, 0
12, 2520, Note_on_c, 9, 42, 125
12, 2520, Note_on_c, 9, 40, 125
12, 2640, Note_on_c, 9, 40, 0
12, 2640, Note_on_c, 9, 42, 0
12, 2640, Note_on_c, 9, 42, 125
12, 2640, Note_on_c, 9, 40, 125
12, 2760, Note_on_c, 9, 40, 0
12, 2760, Note_on_c, 9, 42, 0
12, 2760, Note_on_c, 9, 42, 125
12, 2760, Note_on_c, 9, 40, 125
12, 2880, Note_on_c, 9, 40, 0
12, 2880, Note_on_c, 9, 42, 0
12, 2880, Note_on_c, 9, 42, 125
12, 2880, Note_on_c, 9, 40, 125
12, 3000, Note_on_c, 9, 40, 0
12, 3000, Note_on_c, 9, 42, 0
12, 3000, Note_on_c, 9, 42, 125
12, 3000, Note_on_c, 9, 40, 125
12, 3120, Note_on_c, 9, 40, 0
12, 3120, Note_on_c, 9, 42, 0
12, 3120, Note_on_c, 9, 42, 125
12, 3120, Note_on_c, 9, 40, 125
12, 3240, Note_on_c, 9, 40, 0
12, 3240, Note_on_c, 9, 42, 0
12, 3240, Note_on_c, 9, 42, 125
12, 3240, Note_on_c, 9, 40, 125
12, 3360, Note_on_c, 9, 40, 0
12, 3360, Note_on_c, 9, 42, 0
12, 3360, Note_on_c, 9, 42, 125
12, 3360, Note_on_c, 9, 40, 125
12, 3480, Note_on_c, 9, 40, 0
12, 3480, Note_on_c, 9, 42, 0
12, 3480, Note_on_c, 9, 42, 125
12, 3480, Note_on_c, 9, 40, 125
12, 3600, Note_on_c, 9, 40, 0
12, 3600, Note_on_c, 9, 42, 0
12, 3600, Note_on_c, 9, 42, 125
12, 3600, Note_on_c, 9, 40, 125
12, 3720, Note_on_c, 9, 40, 0
12, 3720, Note_on_c, 9, 42, 0
12, 3720, Note_on_c, 9, 42, 125
12, 3720, Note_on_c, 9, 40, 125
12, 3840, Note_on_c, 9, 40, 0
12, 3840, Note_on_c, 9, 42, 0
12, 3840, Note_on_c, 9, 42, 125
12, 3840, Note_on_c, 9, 40, 125
12, 3960, Note_on_c, 9, 40, 0
12, 3960, Note_on_c, 9, 42, 0
12, 3960, Note_on_c, 9, 42, 125
12, 3960, Note_on_c, 9, 40, 125
12, 4080, Note_on_c, 9, 40, 0
12, 4080, Note_on_c, 9, 42, 0
12, 4080, Note_on_c, 9, 42, 125
12, 4080, Note_on_c, 9, 40, 125
12, 4200, Note_on_c, 9, 40, 0
12, 4200, Note_on_c, 9, 42, 0
12, 4200, Note_on_c, 9, 42, 125
12, 4200, Note_on_c, 9, 40, 125
12, 4320, Note_on_c, 9, 40, 0
12, 4320, Note_on_c, 9, 42, 0
12, 4320, Note_on_c, 9, 42, 125
12, 4320, Note_on_c, 9, 40, 125
12, 4440, Note_on_c, 9, 40, 0
12, 4440, Note_on_c, 9, 42, 0
12, 4440, Note_on_c, 9, 42, 125
12, 4440, Note_on_c, 9, 40, 125
12, 4560, Note_on_c, 9, 40, 0
12, 4560, Note_on_c, 9, 42, 0
12, 4560, Note_on_c, 9, 42, 125
12, 4560, Note_on_c, 9, 40, 125
12, 4680, Note_on_c, 9, 40, 0
12, 4680, Note_on_c, 9, 42, 0
12, 4680, Note_on_c, 9, 42, 125
12, 4680, Note_on_c, 9, 40, 125
12, 4800, Note_on_c, 9, 40, 0
12, 4800, Note_on_c, 9, 42, 0
12, 4800, Note_on_c, 9, 42, 125
12, 4800, Note_on_c, 9, 40, 125
12, 4920, Note_on_c, 9, 40, 0
12, 4920, Note_on_c, 9, 42, 0
12, 4920, Note_on_c, 9, 42, 125
12, 4920, Note_on_c, 9, 40, 125
12, 5040, Note_on_c, 9, 40, 0
12, 5040, Note_on_c, 9, 42, 0
12, 5040, Note_on_c, 9, 42, 125
12, 5040, Note_on_c, 9, 40, 125
12, 5160, Note_on_c, 9, 40, 0
12, 5160, Note_on_c, 9, 42, 0
12, 5160, Note_on_c, 9, 42, 125
12, 5160, Note_on_c, 9, 40, 125
12, 5280, Note_on_c, 9, 40, 0
12, 5280, Note_on_c, 9, 42, 0
12, 5280, Note_on_c, 9, 42, 125
12, 5280, Note_on_c, 9, 40, 125
12, 5400, Note_on_c, 9, 40, 0
12, 5400, Note_on_c, 9, 42, 0
12, 5400, Note_on_c, 9, 42, 125
12, 5400, Note_on_c, 9, 40, 125
12, 5520, Note_on_c, 9, 40, 0
12, 5520, Note_on_c, 9, 42, 0
12, 5520, Note_on_c, 9, 42, 125
12, 5520, Note_on_c, 9, 40, 125
12, 5640, Note_on_c, 9, 40, 0
12, 5640, Note_on_c, 9, 42, 0
12, 5640, Note_on_c, 9, 42, 125
12, 5640, Note_on_c, 9, 40, 125
12, 5760, Note_on_c, 9, 40, 0
12, 5760, Note_on_c, 9, 42, 0
12, 5760, Note_on_c, 9, 42, 125
12, 5760, Note_on_c, 9, 40, 125
12, 5880, Note_on_c, 9, 40, 0
12, 5880, Note_on_c, 9, 42, 0
12, 5880, Note_on_c, 9, 42, 125
12, 5880, Note_on_c, 9, 40, 125
12, 6000, Note_on_c, 9, 40, 0
12, 6000, Note_on_c, 9, 42, 0
12, 6000, Note_on_c, 9, 42, 125
12, 6000, Note_on_c, 9, 40, 125
12, 6120, Note_on_c, 9, 40, 0
12, 6120, Note_on_c, 9, 42, 0
12, 6120, Note_on_c, 9, 42, 125
12, 6120, Note_on_c, 9, 40, 125
12, 6240, Note_on_c, 9, 40, 0
12, 6240, Note_on_c, 9, 42, 0
12, 6240, Note_on_c, 9, 42, 125
12, 6240, Note_on_c, 9, 40, 125
12, 6360, Note_on_c, 9, 40, 0
12, 6360, Note_on_c, 9, 42, 0
12, 6360, Note_on_c, 9, 42, 125
12, 6360, Note_on_c, 9, 40, 125
12, 6480, Note_on_c, 9, 40, 0
12, 6480, Note_on_c, 9, 42, 0
12, 6480, Note_on_c, 9, 42, 125
12, 6480, Note_on_c, 9, 40, 125
12, 6600, Note_on_c, 9, 40, 0
12, 6600, Note_on_c, 9, 42, 0
12, 6600, Note_on_c, 9, 42, 125
12, 6600, Note_on_c, 9, 40, 125
12, 6720, Note_on_c, 9, 40, 0
12, 6720, Note_on_c, 9, 42, 0
12, 6720, Note_on_c, 9, 42, 125
12, 6720, Note_on_c, 9, 40, 125
12, 6840, Note_on_c, 9, 40, 0
12, 6840, Note_on_c, 9, 42, 0
12, 6840, Note_on_c, 9, 42, 125
12, 6840, Note_on_c, 9, 40, 125
12, 6930, Note_on_c, 9, 40, 125
12, 6960, Note_on_c, 9, 40, 0
12, 6960, Note_on_c, 9, 42, 0
12, 6960, Note_on_c, 9, 40, 125
12, 6990, Note_on_c, 9, 40, 125
12, 7020, Note_on_c, 9, 40, 125
12, 7050, Note_on_c, 9, 40, 0
12, 7050, Note_on_c, 9, 40, 125
12, 7080, Note_on_c, 9, 40, 0
12, 7080, Note_on_c, 9, 40, 125
12, 7110, Note_on_c, 9, 40, 0
12, 7110, Note_on_c, 9, 40, 125
12, 7140, Note_on_c, 9, 40, 0
12, 7140, Note_on_c, 9, 40, 125
12, 7170, Note_on_c, 9, 40, 0
12, 7170, Note_on_c, 9, 40, 125
12, 7200, Note_on_c, 9, 40, 0
12, 7200, Note_on_c, 9, 42, 125
12, 7200, Note_on_c, 9, 40, 125
12, 7230, Note_on_c, 9, 40, 0
12, 7260, Note_on_c, 9, 40, 0
12, 7290, Note_on_c, 9, 40, 0
12, 7320, Note_on_c, 9, 40, 0
12, 7320, Note_on_c, 9, 42, 0
12, 7320, Note_on_c, 9, 42, 125
12, 7320, Note_on_c, 9, 40, 125
12, 7440, Note_on_c, 9, 40, 0
12, 7440, Note_on_c, 9, 42, 0
12, 7440, Note_on_c, 9, 42, 125
12, 7440, Note_on_c, 9, 40, 125
12, 7560, Note_on_c, 9, 40, 0
12, 7560, Note_on_c, 9, 42, 0
12, 7560, Note_on_c, 9, 42, 125
12, 7560, Note_on_c, 9, 40, 125
12, 7680, Note_on_c, 9, 40, 0
12, 7680, Note_on_c, 9, 42, 0
12, 7680, Note_on_c, 9, 42, 125
12, 7680, Note_on_c, 9, 40, 125
12, 7800, Note_on_c, 9, 40, 0
12, 7800, Note_on_c, 9, 42, 0
12, 7800, Note_on_c, 9, 42, 125
12, 7800, Note_on_c, 9, 40, 125
12, 7920, Note_on_c, 9, 40, 0
12, 7920, Note_on_c, 9, 42, 0
12, 7920, Note_on_c, 9, 42, 125
12, 7920, Note_on_c, 9, 40, 125
12, 8040, Note_on_c, 9, 40, 0
12, 8040, Note_on_c, 9, 42, 0
12, 8040, Note_on_c, 9, 42, 125
12, 8040, Note_on_c, 9, 40, 125
12, 8160, Note_on_c, 9, 40, 0
12, 8160, Note_on_c, 9, 42, 0
12, 8160, Note_on_c, 9, 42, 125
12, 8160, Note_on_c, 9, 40, 125
12, 8280, Note_on_c, 9, 40, 0
12, 8280, Note_on_c, 9, 42, 0
12, 8280, Note_on_c, 9, 42, 125
12, 8280, Note_on_c, 9, 40, 125
12, 8400, Note_on_c, 9, 40, 0
12, 8400, Note_on_c, 9, 42, 0
12, 8400, Note_on_c, 9, 42, 125
12, 8400, Note_on_c, 9, 40, 125
12, 8520, Note_on_c, 9, 40, 0
12, 8520, Note_on_c, 9, 42, 0
12, 8520, Note_on_c, 9, 42, 125
12, 8520, Note_on_c, 9, 40, 125
12, 8640, Note_on_c, 9, 40, 0
12, 8640, Note_on_c, 9, 42, 0
12, 8640, Note_on_c, 9, 42, 125
12, 8640, Note_on_c, 9, 40, 125
12, 8760, Note_on_c, 9, 40, 0
12, 8760, Note_on_c, 9, 42, 0
12, 8760, Note_on_c, 9, 42, 125
12, 8760, Note_on_c, 9, 40, 125
12, 8880, Note_on_c, 9, 40, 0
12, 8880, Note_on_c, 9, 42, 0
12, 8880, Note_on_c, 9, 42, 125
12, 8880, Note_on_c, 9, 40, 125
12, 9000, Note_on_c, 9, 40, 0
12, 9000, Note_on_c, 9, 42, 0
12, 9000, Note_on_c, 9, 42, 125
12, 9000, Note_on_c, 9, 40, 125
12, 9120, Note_on_c, 9, 40, 0
12, 9120, Note_on_c, 9, 42, 0
12, 9120, Note_on_c, 9, 42, 125
12, 9120, Note_on_c, 9, 40, 125
12, 9240, Note_on_c, 9, 40, 0
12, 9240, Note_on_c, 9, 42, 0
12, 9240, Note_on_c, 9, 42, 125
12, 9240, Note_on_c, 9, 40, 125
12, 9360, Note_on_c, 9, 40, 0
12, 9360, Note_on_c, 9, 42, 0
12, 9360, Note_on_c, 9, 42, 125
12, 9360, Note_on_c, 9, 40, 125
12, 9480, Note_on_c, 9, 40, 0
12, 9480, Note_on_c, 9, 42, 0
12, 9480, Note_on_c, 9, 42, 125
12, 9480, Note_on_c, 9, 40, 125
12, 9600, Note_on_c, 9, 40, 0
12, 9600, Note_on_c, 9, 42, 0
12, 9600, Note_on_c, 9, 42, 125
12, 9600, Note_on_c, 9, 40, 125
12, 9720, Note_on_c, 9, 40, 0
12, 9720, Note_on_c, 9, 42, 0
12, 9720, Note_on_c, 9, 42, 125
12, 9720, Note_on_c, 9, 40, 125
12, 9840, Note_on_c, 9, 40, 0
12, 9840, Note_on_c, 9, 42, 0
12, 9840, Note_on_c, 9, 42, 125
12, 9840, Note_on_c, 9, 40, 125
12, 9960, Note_on_c, 9, 40, 0
12, 9960, Note_on_c, 9, 42, 0
12, 9960, Note_on_c, 9, 42, 125
12, 9960, Note_on_c, 9, 40, 125
12, 10080, Note_on_c, 9, 40, 0
12, 10080, Note_on_c, 9, 42, 0
12, 10080, Note_on_c, 9, 42, 125
12, 10080, Note_on_c, 9, 40, 125
12, 10200, Note_on_c, 9, 40, 0
12, 10200, Note_on_c, 9, 42, 0
12, 10200, Note_on_c, 9, 42, 125
12, 10200, Note_on_c, 9, 40, 125
12, 10320, Note_on_c, 9, 40, 0
12, 10320, Note_on_c, 9, 42, 0
12, 10320, Note_on_c, 9, 42, 125
12, 10320, Note_on_c, 9, 40, 125
12, 10440, Note_on_c, 9, 40, 0
12, 10440, Note_on_c, 9, 42, 0
12, 10440, Note_on_c, 9, 42, 125
12, 10440, Note_on_c, 9, 40, 125
12, 10560, Note_on_c, 9, 40, 0
12, 10560, Note_on_c, 9, 42, 0
12, 10560, Note_on_c, 9, 42, 125
12, 10560, Note_on_c, 9, 40, 125
12, 10680, Note_on_c, 9, 40, 0
12, 10680, Note_on_c, 9, 42, 0
12, 10680, Note_on_c, 9, 42, 125
12, 10680, Note_on_c, 9, 40, 125
12, 10800, Note_on_c, 9, 40, 0
12, 10800, Note_on_c, 9, 42, 0
12, 10800, Note_on_c, 9, 42, 125
12, 10800, Note_on_c, 9, 40, 125
12, 10920, Note_on_c, 9, 40, 0
12, 10920, Note_on_c, 9, 42, 0
12, 10920, Note_on_c, 9, 42, 125
12, 10920, Note_on_c, 9, 40, 125
12, 11040, Note_on_c, 9, 40, 0
12, 11040, Note_on_c, 9, 42, 0
12, 11040, Note_on_c, 9, 42, 125
12, 11040, Note_on_c, 9, 40, 125
12, 11160, Note_on_c, 9, 40, 0
12, 11160, Note_on_c, 9, 42, 0
12, 11160, Note_on_c, 9, 42, 125
12, 11160, Note_on_c, 9, 40, 125
12, 11280, Note_on_c, 9, 40, 0
12, 11280, Note_on_c, 9, 42, 0
12, 11280, Note_on_c, 9, 42, 125
12, 11280, Note_on_c, 9, 40, 125
12, 11400, Note_on_c, 9, 40, 0
12, 11400, Note_on_c, 9, 42, 0
12, 11400, Note_on_c, 9, 42, 125
12, 11400, Note_on_c, 9, 40, 125
12, 11520, Note_on_c, 9, 40, 0
12, 11520, Note_on_c, 9, 42, 0
12, 11520, Note_on_c, 9, 42, 125
12, 11520, Note_on_c, 9, 40, 125
12, 11640, Note_on_c, 9, 40, 0
12, 11640, Note_on_c, 9, 42, 0
12, 11640, Note_on_c, 9, 42, 125
12, 11640, Note_on_c, 9, 40, 125
12, 11730, Note_on_c, 9, 40, 125
12, 11760, Note_on_c, 9, 40, 0
12, 11760, Note_on_c, 9, 42, 0
12, 11760, Note_on_c, 9, 40, 125
12, 11790, Note_on_c, 9, 40, 125
12, 11820, Note_on_c, 9, 40, 125
12, 11850, Note_on_c, 9, 40, 0
12, 11850, Note_on_c, 9, 40, 125
12, 11880, Note_on_c, 9, 40, 0
12, 11880, Note_on_c, 9, 40, 125
12, 11910, Note_on_c, 9, 40, 0
12, 11910, Note_on_c, 9, 40, 125
12, 11940, Note_on_c, 9, 40, 0
12, 11940, Note_on_c, 9, 40, 125
12, 11970, Note_on_c, 9, 40, 0
12, 11970, Note_on_c, 9, 40, 125
12, 12000, Note_on_c, 9, 40, 0
12, 12000, Note_on_c, 9, 42, 125
12, 12000, Note_on_c, 9, 40, 125
12, 12030, Note_on_c, 9, 40, 0
12, 12060, Note_on_c, 9, 40, 0
12, 12090, Note_on_c, 9, 40, 0
12, 12120, Note_on_c, 9, 40, 0
12, 12120, Note_on_c, 9, 42, 0
12, 12120, Note_on_c, 9, 42, 125
12, 12120, Note_on_c, 9, 40, 125
12, 12240, Note_on_c, 9, 40, 0
12, 12240, Note_on_c, 9, 42, 0
12, 12240, Note_on_c, 9, 42, 125
12, 12240, Note_on_c, 9, 40, 125
12, 12360, Note_on_c, 9, 40, 0
12, 12360, Note_on_c, 9, 42, 0
12, 12360, Note_on_c, 9, 42, 125
12, 12360, Note_on_c, 9, 40, 125
12, 12480, Note_on_c, 9, 40, 0
12, 12480, Note_on_c, 9, 42, 0
12, 12480, Note_on_c, 9, 42, 125
12, 12480, Note_on_c, 9, 40, 125
12, 12600, Note_on_c, 9, 40, 0
12, 12600, Note_on_c, 9, 42, 0
12, 12600, Note_on_c, 9, 42, 125
12, 12600, Note_on_c, 9, 40, 125
12, 12720, Note_on_c, 9, 40, 0
12, 12720, Note_on_c, 9, 42, 0
12, 12720, Note_on_c, 9, 42, 125
12, 12720, Note_on_c, 9, 40, 125
12, 12840, Note_on_c, 9, 40, 0
12, 12840, Note_on_c, 9, 42, 0
12, 12840, Note_on_c, 9, 42, 125
12, 12840, Note_on_c, 9, 40, 125
12, 12960, Note_on_c, 9, 40, 0
12, 12960, Note_on_c, 9, 42, 0
12, 12960, Note_on_c, 9, 42, 125
12, 12960, Note_on_c, 9, 40, 125
12, 13080, Note_on_c, 9, 40, 0
12, 13080, Note_on_c, 9, 42, 0
12, 13080, Note_on_c, 9, 42, 125
12, 13080, Note_on_c, 9, 40, 125
12, 13200, Note_on_c, 9, 40, 0
12, 13200, Note_on_c, 9, 42, 0
12, 13200, Note_on_c, 9, 42, 125
12, 13200, Note_on_c, 9, 40, 125
12, 13320, Note_on_c, 9, 40, 0
12, 13320, Note_on_c, 9, 42, 0
12, 13320, Note_on_c, 9, 42, 125
12, 13320, Note_on_c, 9, 40, 125
12, 13440, Note_on_c, 9, 40, 0
12, 13440, Note_on_c, 9, 42, 0
12, 13440, Note_on_c, 9, 42, 125
12, 13440, Note_on_c, 9, 40, 125
12, 13560, Note_on_c, 9, 40, 0
12, 13560, Note_on_c, 9, 42, 0
12, 13560, Note_on_c, 9, 42, 125
12, 13560, Note_on_c, 9, 40, 125
12, 13680, Note_on_c, 9, 40, 0
12, 13680, Note_on_c, 9, 42, 0
12, 13680, Note_on_c, 9, 42, 125
12, 13680, Note_on_c, 9, 40, 125
12, 13800, Note_on_c, 9, 40, 0
12, 13800, Note_on_c, 9, 42, 0
12, 13800, Note_on_c, 9, 42, 125
12, 13800, Note_on_c, 9, 40, 125
12, 13920, Note_on_c, 9, 40, 0
12, 13920, Note_on_c, 9, 42, 0
12, 13920, Note_on_c, 9, 42, 125
12, 13920, Note_on_c, 9, 40, 125
12, 14040, Note_on_c, 9, 40, 0
12, 14040, Note_on_c, 9, 42, 0
12, 14040, Note_on_c, 9, 42, 125
12, 14040, Note_on_c, 9, 40, 125
12, 14160, Note_on_c, 9, 40, 0
12, 14160, Note_on_c, 9, 42, 0
12, 14160, Note_on_c, 9, 42, 125
12, 14160, Note_on_c, 9, 40, 125
12, 14280, Note_on_c, 9, 40, 0
12, 14280, Note_on_c, 9, 42, 0
12, 14280, Note_on_c, 9, 42, 125
12, 14280, Note_on_c, 9, 40, 125
12, 14400, Note_on_c, 9, 40, 0
12, 14400, Note_on_c, 9, 42, 0
12, 14400, Note_on_c, 9, 42, 125
12, 14400, Note_on_c, 9, 40, 125
12, 14520, Note_on_c, 9, 40, 0
12, 14520, Note_on_c, 9, 42, 0
12, 14520, Note_on_c, 9, 42, 125
12, 14520, Note_on_c, 9, 40, 125
12, 14640, Note_on_c, 9, 40, 0
12, 14640, Note_on_c, 9, 42, 0
12, 14640, Note_on_c, 9, 42, 125
12, 14640, Note_on_c, 9, 40, 125
12, 14760, Note_on_c, 9, 40, 0
12, 14760, Note_on_c, 9, 42, 0
12, 14760, Note_on_c, 9, 42, 125
12, 14760, Note_on_c, 9, 40, 125
12, 14880, Note_on_c, 9, 40, 0
12, 14880, Note_on_c, 9, 42, 0
12, 14880, Note_on_c, 9, 42, 125
12, 14880, Note_on_c, 9, 40, 125
12, 15000, Note_on_c, 9, 40, 0
12, 15000, Note_on_c, 9, 42, 0
12, 15000, Note_on_c, 9, 42, 125
12, 15000, Note_on_c, 9, 40, 125
12, 15120, Note_on_c, 9, 40, 0
12, 15120, Note_on_c, 9, 42, 0
12, 15120, Note_on_c, 9, 42, 125
12, 15120, Note_on_c, 9, 40, 125
12, 15240, Note_on_c, 9, 40, 0
12, 15240, Note_on_c, 9, 42, 0
12, 15240, Note_on_c, 9, 42, 125
12, 15240, Note_on_c, 9, 40, 125
12, 15360, Note_on_c, 9, 40, 0
12, 15360, Note_on_c, 9, 42, 0
12, 15360, Note_on_c, 9, 42, 125
12, 15360, Note_on_c, 9, 40, 125
12, 15480, Note_on_c, 9, 40, 0
12, 15480, Note_on_c, 9, 42, 0
12, 15480, Note_on_c, 9, 42, 125
12, 15480, Note_on_c, 9, 40, 125
12, 15600, Note_on_c, 9, 40, 0
12, 15600, Note_on_c, 9, 42, 0
12, 15600, Note_on_c, 9, 42, 125
12, 15600, Note_on_c, 9, 40, 125
12, 15720, Note_on_c, 9, 40, 0
12, 15720, Note_on_c, 9, 42, 0
12, 15720, Note_on_c, 9, 42, 125
12, 15720, Note_on_c, 9, 40, 125
12, 15840, Note_on_c, 9, 40, 0
12, 15840, Note_on_c, 9, 42, 0
12, 15840, Note_on_c, 9, 42, 125
12, 15840, Note_on_c, 9, 40, 125
12, 15960, Note_on_c, 9, 40, 0
12, 15960, Note_on_c, 9, 42, 0
12, 15960, Note_on_c, 9, 42, 125
12, 15960, Note_on_c, 9, 40, 125
12, 16080, Note_on_c, 9, 40, 0
12, 16080, Note_on_c, 9, 42, 0
12, 16080, Note_on_c, 9, 42, 125
12, 16080, Note_on_c, 9, 40, 125
12, 16200, Note_on_c, 9, 40, 0
12, 16200, Note_on_c, 9, 42, 0
12, 16200, Note_on_c, 9, 42, 125
12, 16200, Note_on_c, 9, 40, 125
12, 16320, Note_on_c, 9, 40, 0
12, 16320, Note_on_c, 9, 42, 0
12, 16320, Note_on_c, 9, 42, 125
12, 16320, Note_on_c, 9, 40, 125
12, 16440, Note_on_c, 9, 40, 0
12, 16440, Note_on_c, 9, 42, 0
12, 16440, Note_on_c, 9, 42, 125
12, 16440, Note_on_c, 9, 40, 125
12, 16530, Note_on_c, 9, 40, 125
12, 16560, Note_on_c, 9, 40, 0
12, 16560, Note_on_c, 9, 42, 0
12, 16560, Note_on_c, 9, 40, 125
12, 16590, Note_on_c, 9, 40, 125
12, 16620, Note_on_c, 9, 40, 125
12, 16650, Note_on_c, 9, 40, 0
12, 16650, Note_on_c, 9, 40, 125
12, 16680, Note_on_c, 9, 40, 0
12, 16680, Note_on_c, 9, 40, 125
12, 16710, Note_on_c, 9, 40, 0
12, 16710, Note_on_c, 9, 40, 125
12, 16740, Note_on_c, 9, 40, 0
12, 16740, Note_on_c, 9, 40, 125
12, 16770, Note_on_c, 9, 40, 0
12, 16770, Note_on_c, 9, 40, 125
12, 16800, Note_on_c, 9, 40, 0
12, 16800, Note_on_c, 9, 42, 125
12, 16800, Note_on_c, 9, 40, 125
12, 16830, Note_on_c, 9, 40, 0
12, 16860, Note_on_c, 9, 40, 0
12, 16890, Note_on_c, 9, 40, 0
12, 16920, Note_on_c, 9, 40, 0
12, 16920, Note_on_c, 9, 42, 0
12, 16920, Note_on_c, 9, 42, 125
12, 16920, Note_on_c, 9, 40, 125
12, 17040, Note_on_c, 9, 40, 0
12, 17040, Note_on_c, 9, 42, 0
12, 17040, Note_on_c, 9, 42, 125
12, 17040, Note_on_c, 9, 40, 125
12, 17160, Note_on_c, 9, 40, 0
12, 17160, Note_on_c, 9, 42, 0
12, 17160, Note_on_c, 9, 42, 125
12, 17160, Note_on_c, 9, 40, 125
12, 17280, Note_on_c, 9, 40, 0
12, 17280, Note_on_c, 9, 42, 0
12, 17280, Note_on_c, 9, 42, 125
12, 17280, Note_on_c, 9, 40, 125
12, 17400, Note_on_c, 9, 40, 0
12, 17400, Note_on_c, 9, 42, 0
12, 17400, Note_on_c, 9, 42, 125
12, 17400, Note_on_c, 9, 40, 125
12, 17520, Note_on_c, 9, 40, 0
12, 17520, Note_on_c, 9, 42, 0
12, 17520, Note_on_c, 9, 42, 125
12, 17520, Note_on_c, 9, 40, 125
12, 17640, Note_on_c, 9, 40, 0
12, 17640, Note_on_c, 9, 42, 0
12, 17640, Note_on_c, 9, 42, 125
12, 17640, Note_on_c, 9, 40, 125
12, 17760, Note_on_c, 9, 40, 0
12, 17760, Note_on_c, 9, 42, 0
12, 17760, Note_on_c, 9, 42, 125
12, 17760, Note_on_c, 9, 40, 125
12, 17880, Note_on_c, 9, 40, 0
12, 17880, Note_on_c, 9, 42, 0
12, 17880, Note_on_c, 9, 42, 125
12, 17880, Note_on_c, 9, 40, 125
12, 18000, Note_on_c, 9, 40, 0
12, 18000, Note_on_c, 9, 42, 0
12, 18000, Note_on_c, 9, 42, 125
12, 18000, Note_on_c, 9, 40, 125
12, 18120, Note_on_c, 9, 40, 0
12, 18120, Note_on_c, 9, 42, 0
12, 18120, Note_on_c, 9, 42, 125
12, 18120, Note_on_c, 9, 40, 125
12, 18240, Note_on_c, 9, 40, 0
12, 18240, Note_on_c, 9, 42, 0
12, 18240, Note_on_c, 9, 42, 125
12, 18240, Note_on_c, 9, 40, 125
12, 18360, Note_on_c, 9, 40, 0
12, 18360, Note_on_c, 9, 42, 0
12, 18360, Note_on_c, 9, 42, 125
12, 18360, Note_on_c, 9, 40, 125
12, 18480, Note_on_c, 9, 40, 0
12, 18480, Note_on_c, 9, 42, 0
12, 18480, Note_on_c, 9, 42, 125
12, 18480, Note_on_c, 9, 40, 125
12, 18600, Note_on_c, 9, 40, 0
12, 18600, Note_on_c, 9, 42, 0
12, 18600, Note_on_c, 9, 42, 125
12, 18600, Note_on_c, 9, 40, 125
12, 18720, Note_on_c, 9, 40, 0
12, 18720, Note_on_c, 9, 42, 0
12, 18720, Note_on_c, 9, 42, 125
12, 18720, Note_on_c, 9, 40, 125
12, 18840, Note_on_c, 9, 40, 0
12, 18840, Note_on_c, 9, 42, 0
12, 18840, Note_on_c, 9, 42, 125
12, 18840, Note_on_c, 9, 40, 125
12, 18960, Note_on_c, 9, 40, 0
12, 18960, Note_on_c, 9, 42, 0
12, 18960, Note_on_c, 9, 42, 125
12, 18960, Note_on_c, 9, 40, 125
12, 19080, Note_on_c, 9, 40, 0
12, 19080, Note_on_c, 9, 42, 0
12, 19080, Note_on_c, 9, 42, 125
12, 19080, Note_on_c, 9, 40, 125
12, 19200, Note_on_c, 9, 40, 0
12, 19200, Note_on_c, 9, 42, 0
12, 19200, Note_on_c, 9, 42, 125
12, 19200, Note_on_c, 9, 40, 125
12, 19320, Note_on_c, 9, 40, 0
12, 19320, Note_on_c, 9, 42, 0
12, 19320, Note_on_c, 9, 42, 125
12, 19320, Note_on_c, 9, 40, 125
12, 19440, Note_on_c, 9, 40, 0
12, 19440, Note_on_c, 9, 42, 0
12, 19440, Note_on_c, 9, 42, 125
12, 19440, Note_on_c, 9, 40, 125
12, 19560, Note_on_c, 9, 40, 0
12, 19560, Note_on_c, 9, 42, 0
12, 19560, Note_on_c, 9, 42, 125
12, 19560, Note_on_c, 9, 40, 125
12, 19680, Note_on_c, 9, 40, 0
12, 19680, Note_on_c, 9, 42, 0
12, 19680, Note_on_c, 9, 42, 125
12, 19680, Note_on_c, 9, 40, 125
12, 19800, Note_on_c, 9, 40, 0
12, 19800, Note_on_c, 9, 42, 0
12, 19800, Note_on_c, 9, 42, 125
12, 19800, Note_on_c, 9, 40, 125
12, 19920, Note_on_c, 9, 40, 0
12, 19920, Note_on_c, 9, 42, 0
12, 19920, Note_on_c, 9, 42, 125
12, 19920, Note_on_c, 9, 40, 125
12, 20040, Note_on_c, 9, 40, 0
12, 20040, Note_on_c, 9, 42, 0
12, 20040, Note_on_c, 9, 42, 125
12, 20040, Note_on_c, 9, 40, 125
12, 20160, Note_on_c, 9, 40, 0
12, 20160, Note_on_c, 9, 42, 0
12, 20160, Note_on_c, 9, 42, 125
12, 20160, Note_on_c, 9, 40, 125
12, 20280, Note_on_c, 9, 40, 0
12, 20280, Note_on_c, 9, 42, 0
12, 20280, Note_on_c, 9, 42, 125
12, 20280, Note_on_c, 9, 40, 125
12, 20400, Note_on_c, 9, 40, 0
12, 20400, Note_on_c, 9, 42, 0
12, 20400, Note_on_c, 9, 42, 125
12, 20400, Note_on_c, 9, 40, 125
12, 20520, Note_on_c, 9, 40, 0
12, 20520, Note_on_c, 9, 42, 0
12, 20520, Note_on_c, 9, 42, 125
12, 20520, Note_on_c, 9, 40, 125
12, 20640, Note_on_c, 9, 40, 0
12, 20640, Note_on_c, 9, 42, 0
12, 20640, Note_on_c, 9, 42, 125
12, 20640, Note_on_c, 9, 40, 125
12, 20760, Note_on_c, 9, 40, 0
12, 20760, Note_on_c, 9, 42, 0
12, 20760, Note_on_c, 9, 42, 125
12, 20760, Note_on_c, 9, 40, 125
12, 20880, Note_on_c, 9, 40, 0
12, 20880, Note_on_c, 9, 42, 0
12, 20880, Note_on_c, 9, 42, 125
12, 20880, Note_on_c, 9, 40, 125
12, 21000, Note_on_c, 9, 40, 0
12, 21000, Note_on_c, 9, 42, 0
12, 21000, Note_on_c, 9, 42, 125
12, 21000, Note_on_c, 9, 40, 125
12, 21120, Note_on_c, 9, 40, 0
12, 21120, Note_on_c, 9, 42, 0
12, 21120, Note_on_c, 9, 42, 125
12, 21120, Note_on_c, 9, 40, 125
12, 21240, Note_on_c, 9, 40, 0
12, 21240, Note_on_c, 9, 42, 0
12, 21240, Note_on_c, 9, 42, 125
12, 21240, Note_on_c, 9, 40, 125
12, 21330, Note_on_c, 9, 40, 125
12, 21360, Note_on_c, 9, 40, 0
12, 21360, Note_on_c, 9, 42, 0
12, 21360, Note_on_c, 9, 40, 125
12, 21390, Note_on_c, 9, 40, 125
12, 21420, Note_on_c, 9, 40, 125
12, 21450, Note_on_c, 9, 40, 0
12, 21450, Note_on_c, 9, 40, 125
12, 21480, Note_on_c, 9, 40, 0
12, 21480, Note_on_c, 9, 40, 125
12, 21510, Note_on_c, 9, 40, 0
12, 21510, Note_on_c, 9, 40, 125
12, 21540, Note_on_c, 9, 40, 0
12, 21540, Note_on_c, 9, 40, 125
12, 21570, Note_on_c, 9, 40, 0
12, 21570, Note_on_c, 9, 40, 125
12, 21600, Note_on_c, 9, 40, 0
12, 21600, Note_on_c, 9, 42, 125
12, 21600, Note_on_c, 9, 40, 125
12, 21630, Note_on_c, 9, 40, 0
12, 21660, Note_on_c, 9, 40, 0
12, 21690, Note_on_c, 9, 40, 0
12, 21720, Note_on_c, 9, 40, 0
12, 21720, Note_on_c, 9, 42, 0
12, 21720, Note_on_c, 9, 42, 125
12, 21720, Note_on_c, 9, 40, 125
12, 21840, Note_on_c, 9, 40, 0
12, 21840, Note_on_c, 9, 42, 0
12, 21840, Note_on_c, 9, 42, 125
12, 21840, Note_on_c, 9, 40, 125
12, 21960, Note_on_c, 9, 40, 0
12, 21960, Note_on_c, 9, 42, 0
12, 21960, Note_on_c, 9, 42, 125
12, 21960, Note_on_c, 9, 40, 125
12, 22080, Note_on_c, 9, 40, 0
12, 22080, Note_on_c, 9, 42, 0
12, 22080, Note_on_c, 9, 42, 125
12, 22080, Note_on_c, 9, 40, 125
12, 22200, Note_on_c, 9, 40, 0
12, 22200, Note_on_c, 9, 42, 0
12, 22200, Note_on_c, 9, 42, 125
12, 22200, Note_on_c, 9, 40, 125
12, 22320, Note_on_c, 9, 40, 0
12, 22320, Note_on_c, 9, 42, 0
12, 22320, Note_on_c, 9, 42, 125
12, 22320, Note_on_c, 9, 40, 125
12, 22440, Note_on_c, 9, 40, 0
12, 22440, Note_on_c, 9, 42, 0
12, 22440, Note_on_c, 9, 42, 125
12, 22440, Note_on_c, 9, 40, 125
12, 22560, Note_on_c, 9, 40, 0
12, 22560, Note_on_c, 9, 42, 0
12, 22560, Note_on_c, 9, 42, 125
12, 22560, Note_on_c, 9, 40, 125
12, 22680, Note_on_c, 9, 40, 0
12, 22680, Note_on_c, 9, 42, 0
12, 22680, Note_on_c, 9, 42, 125
12, 22680, Note_on_c, 9, 40, 125
12, 22800, Note_on_c, 9, 40, 0
12, 22800, Note_on_c, 9, 42, 0
12, 22800, Note_on_c, 9, 42, 125
12, 22800, Note_on_c, 9, 40, 125
12, 22920, Note_on_c, 9, 40, 0
12, 22920, Note_on_c, 9, 42, 0
12, 22920, Note_on_c, 9, 42, 125
12, 22920, Note_on_c, 9, 40, 125
12, 23040, Note_on_c, 9, 40, 0
12, 23040, Note_on_c, 9, 42, 0
12, 23040, Note_on_c, 9, 42, 125
12, 23040, Note_on_c, 9, 40, 125
12, 23160, Note_on_c, 9, 40, 0
12, 23160, Note_on_c, 9, 42, 0
12, 23160, Note_on_c, 9, 42, 125
12, 23160, Note_on_c, 9, 40, 125
12, 23280, Note_on_c, 9, 40, 0
12, 23280, Note_on_c, 9, 42, 0
12, 23280, Note_on_c, 9, 42, 125
12, 23280, Note_on_c, 9, 40, 125
12, 23400, Note_on_c, 9, 40, 0
12, 23400, Note_on_c, 9, 42, 0
12, 23400, Note_on_c, 9, 42, 125
12, 23400, Note_on_c, 9, 40, 125
12, 23520, Note_on_c, 9, 40, 0
12, 23520, Note_on_c, 9, 42, 0
12, 23520, Note_on_c, 9, 42, 125
12, 23520, Note_on_c, 9, 40, 125
12, 23640, Note_on_c, 9, 40, 0
12, 23640, Note_on_c, 9, 42, 0
12, 23640, Note_on_c, 9, 42, 125
12, 23640, Note_on_c, 9, 40, 125
12, 23760, Note_on_c, 9, 40, 0
12, 23760, Note_on_c, 9, 42, 0
12, 23760, Note_on_c, 9, 42, 125
12, 23760, Note_on_c, 9, 40, 125
12, 23880, Note_on_c, 9, 40, 0
12, 23880, Note_on_c, 9, 42, 0
12, 23880, Note_on_c, 9, 42, 125
12, 23880, Note_on_c, 9, 40, 125
12, 24000, Note_on_c, 9, 40, 0
12, 24000, Note_on_c, 9, 42, 0
12, 24000, Note_on_c, 9, 42, 125
12, 24000, Note_on_c, 9, 40, 125
12, 24120, Note_on_c, 9, 40, 0
12, 24120, Note_on_c, 9, 42, 0
12, 24120, Note_on_c, 9, 42, 125
12, 24120, Note_on_c, 9, 40, 125
12, 24240, Note_on_c, 9, 40, 0
12, 24240, Note_on_c, 9, 42, 0
12, 24240, Note_on_c, 9, 42, 125
12, 24240, Note_on_c, 9, 40, 125
12, 24360, Note_on_c, 9, 40, 0
12, 24360, Note_on_c, 9, 42, 0
12, 24360, Note_on_c, 9, 42, 125
12, 24360, Note_on_c, 9, 40, 125
12, 24480, Note_on_c, 9, 40, 0
12, 24480, Note_on_c, 9, 42, 0
12, 24480, Note_on_c, 9, 42, 125
12, 24480, Note_on_c, 9, 40, 125
12, 24600, Note_on_c, 9, 40, 0
12, 24600, Note_on_c, 9, 42, 0
12, 24600, Note_on_c, 9, 42, 125
12, 24600, Note_on_c, 9, 40, 125
12, 24720, Note_on_c, 9, 40, 0
12, 24720, Note_on_c, 9, 42, 0
12, 24720, Note_on_c, 9, 42, 125
12, 24720, Note_on_c, 9, 40, 125
12, 24840, Note_on_c, 9, 40, 0
12, 24840, Note_on_c, 9, 42, 0
12, 24840, Note_on_c, 9, 42, 125
12, 24840, Note_on_c, 9, 40, 125
12, 24960, Note_on_c, 9, 40, 0
12, 24960, Note_on_c, 9, 42, 0
12, 24960, Note_on_c, 9, 42, 125
12, 24960, Note_on_c, 9, 40, 125
12, 25080, Note_on_c, 9, 40, 0
12, 25080, Note_on_c, 9, 42, 0
12, 25080, Note_on_c, 9, 42, 125
12, 25080, Note_on_c, 9, 40, 125
12, 25200, Note_on_c, 9, 40, 0
12, 25200, Note_on_c, 9, 42, 0
12, 25200, Note_on_c, 9, 42, 125
12, 25200, Note_on_c, 9, 40, 125
12, 25320, Note_on_c, 9, 40, 0
12, 25320, Note_on_c, 9, 42, 0
12, 25320, Note_on_c, 9, 42, 125
12, 25320, Note_on_c, 9, 40, 125
12, 25440, Note_on_c, 9, 40, 0
12, 25440, Note_on_c, 9, 42, 0
12, 25440, Note_on_c, 9, 42, 125
12, 25440, Note_on_c, 9, 40, 125
12, 25560, Note_on_c, 9, 40, 0
12, 25560, Note_on_c, 9, 42, 0
12, 25560, Note_on_c, 9, 42, 125
12, 25560, Note_on_c, 9, 40, 125
12, 25680, Note_on_c, 9, 40, 0
12, 25680, Note_on_c, 9, 42, 0
12, 25680, Note_on_c, 9, 42, 125
12, 25680, Note_on_c, 9, 40, 125
12, 25800, Note_on_c, 9, 40, 0
12, 25800, Note_on_c, 9, 42, 0
12, 25800, Note_on_c, 9, 42, 125
12, 25800, Note_on_c, 9, 40, 125
12, 25920, Note_on_c, 9, 40, 0
12, 25920, Note_on_c, 9, 42, 0
12, 25920, Note_on_c, 9, 42, 125
12, 25920, Note_on_c, 9, 40, 125
12, 26040, Note_on_c, 9, 40, 0
12, 26040, Note_on_c, 9, 42, 0
12, 26040, Note_on_c, 9, 46, 125
12, 26040, Note_on_c, 9, 40, 125
12, 26160, Note_on_c, 9, 40, 0
12, 26160, Note_on_c, 9, 46, 0
12, 26160, Note_on_c, 9, 42, 125
12, 26160, Note_on_c, 9, 40, 125
12, 26190, Note_on_c, 9, 40, 125
12, 26250, Note_on_c, 9, 40, 125
12, 26280, Note_on_c, 9, 40, 0
12, 26280, Note_on_c, 9, 42, 0
12, 26280, Note_on_c, 9, 42, 125
12, 26280, Note_on_c, 9, 40, 125
12, 26310, Note_on_c, 9, 40, 0
12, 26340, Note_on_c, 9, 40, 125
12, 26370, Note_on_c, 9, 40, 0
12, 26400, Note_on_c, 9, 42, 0
12, 26400, Note_on_c, 9, 40, 0
12, 26400, Note_on_c, 9, 42, 125
12, 26400, Note_on_c, 9, 40, 125
12, 26460, Note_on_c, 9, 40, 0
12, 26520, Note_on_c, 9, 42, 0
12, 26520, Note_on_c, 9, 40, 0
12, 26520, Note_on_c, 9, 42, 125
12, 26520, Note_on_c, 9, 40, 125
12, 26640, Note_on_c, 9, 40, 0
12, 26640, Note_on_c, 9, 42, 0
12, 26640, Note_on_c, 9, 42, 125
12, 26640, Note_on_c, 9, 40, 125
12, 26760, Note_on_c, 9, 40, 0
12, 26760, Note_on_c, 9, 42, 0
12, 26760, Note_on_c, 9, 42, 125
12, 26760, Note_on_c, 9, 40, 125
12, 26880, Note_on_c, 9, 40, 0
12, 26880, Note_on_c, 9, 42, 0
12, 26880, Note_on_c, 9, 42, 125
12, 26880, Note_on_c, 9, 40, 125
12, 27000, Note_on_c, 9, 40, 0
12, 27000, Note_on_c, 9, 42, 0
12, 27000, Note_on_c, 9, 42, 125
12, 27000, Note_on_c, 9, 40, 125
12, 27120, Note_on_c, 9, 40, 0
12, 27120, Note_on_c, 9, 42, 0
12, 27120, Note_on_c, 9, 42, 125
12, 27120, Note_on_c, 9, 40, 125
12, 27240, Note_on_c, 9, 40, 0
12, 27240, Note_on_c, 9, 42, 0
12, 27240, Note_on_c, 9, 42, 125
12, 27240, Note_on_c, 9, 40, 125
12, 27360, Note_on_c, 9, 40, 0
12, 27360, Note_on_c, 9, 42, 0
12, 27360, Note_on_c, 9, 42, 125
12, 27360, Note_on_c, 9, 40, 125
12, 27480, Note_on_c, 9, 40, 0
12, 27480, Note_on_c, 9, 42, 0
12, 27480, Note_on_c, 9, 42, 125
12, 27480, Note_on_c, 9, 40, 125
12, 27600, Note_on_c, 9, 40, 0
12, 27600, Note_on_c, 9, 42, 0
12, 27600, Note_on_c, 9, 42, 125
12, 27600, Note_on_c, 9, 40, 125
12, 27720, Note_on_c, 9, 40, 0
12, 27720, Note_on_c, 9, 42, 0
12, 27720, Note_on_c, 9, 42, 125
12, 27720, Note_on_c, 9, 40, 125
12, 27840, Note_on_c, 9, 40, 0
12, 27840, Note_on_c, 9, 42, 0
12, 27840, Note_on_c, 9, 42, 125
12, 27840, Note_on_c, 9, 40, 125
12, 27960, Note_on_c, 9, 40, 0
12, 27960, Note_on_c, 9, 42, 0
12, 27960, Note_on_c, 9, 42, 125
12, 27960, Note_on_c, 9, 40, 125
12, 28080, Note_on_c, 9, 40, 0
12, 28080, Note_on_c, 9, 42, 0
12, 28080, Note_on_c, 9, 42, 125
12, 28080, Note_on_c, 9, 40, 125
12, 28200, Note_on_c, 9, 40, 0
12, 28200, Note_on_c, 9, 42, 0
12, 28200, Note_on_c, 9, 42, 125
12, 28200, Note_on_c, 9, 40, 125
12, 28320, Note_on_c, 9, 40, 0
12, 28320, Note_on_c, 9, 42, 0
12, 28320, Note_on_c, 9, 42, 125
12, 28320, Note_on_c, 9, 40, 125
12, 28440, Note_on_c, 9, 40, 0
12, 28440, Note_on_c, 9, 42, 0
12, 28440, Note_on_c, 9, 42, 125
12, 28440, Note_on_c, 9, 40, 125
12, 28560, Note_on_c, 9, 40, 0
12, 28560, Note_on_c, 9, 42, 0
12, 28560, Note_on_c, 9, 42, 125
12, 28560, Note_on_c, 9, 40, 125
12, 28680, Note_on_c, 9, 40, 0
12, 28680, Note_on_c, 9, 42, 0
12, 28680, Note_on_c, 9, 42, 125
12, 28680, Note_on_c, 9, 40, 125
12, 28800, Note_on_c, 9, 40, 0
12, 28800, Note_on_c, 9, 42, 0
12, 28800, Note_on_c, 9, 42, 125
12, 28800, Note_on_c, 9, 40, 125
12, 28920, Note_on_c, 9, 40, 0
12, 28920, Note_on_c, 9, 42, 0
12, 28920, Note_on_c, 9, 42, 125
12, 28920, Note_on_c, 9, 40, 125
12, 29040, Note_on_c, 9, 40, 0
12, 29040, Note_on_c, 9, 42, 0
12, 29040, Note_on_c, 9, 42, 125
12, 29040, Note_on_c, 9, 40, 125
12, 29160, Note_on_c, 9, 40, 0
12, 29160, Note_on_c, 9, 42, 0
12, 29160, Note_on_c, 9, 42, 125
12, 29160, Note_on_c, 9, 40, 125
12, 29280, Note_on_c, 9, 40, 0
12, 29280, Note_on_c, 9, 42, 0
12, 29280, Note_on_c, 9, 42, 125
12, 29280, Note_on_c, 9, 40, 125
12, 29400, Note_on_c, 9, 40, 0
12, 29400, Note_on_c, 9, 42, 0
12, 29400, Note_on_c, 9, 42, 125
12, 29400, Note_on_c, 9, 40, 125
12, 29520, Note_on_c, 9, 40, 0
12, 29520, Note_on_c, 9, 42, 0
12, 29520, Note_on_c, 9, 42, 125
12, 29520, Note_on_c, 9, 40, 125
12, 29640, Note_on_c, 9, 40, 0
12, 29640, Note_on_c, 9, 42, 0
12, 29640, Note_on_c, 9, 42, 125
12, 29640, Note_on_c, 9, 40, 125
12, 29760, Note_on_c, 9, 40, 0
12, 29760, Note_on_c, 9, 42, 0
12, 29760, Note_on_c, 9, 42, 125
12, 29760, Note_on_c, 9, 40, 125
12, 29880, Note_on_c, 9, 40, 0
12, 29880, Note_on_c, 9, 42, 0
12, 29880, Note_on_c, 9, 42, 125
12, 29880, Note_on_c, 9, 40, 125
12, 30000, Note_on_c, 9, 40, 0
12, 30000, Note_on_c, 9, 42, 0
12, 30000, Note_on_c, 9, 42, 125
12, 30000, Note_on_c, 9, 40, 125
12, 30120, Note_on_c, 9, 40, 0
12, 30120, Note_on_c, 9, 42, 0
12, 30120, Note_on_c, 9, 42, 125
12, 30120, Note_on_c, 9, 40, 125
12, 30240, Note_on_c, 9, 40, 0
12, 30240, Note_on_c, 9, 42, 0
12, 30240, Note_on_c, 9, 42, 125
12, 30240, Note_on_c, 9, 40, 125
12, 30360, Note_on_c, 9, 40, 0
12, 30360, Note_on_c, 9, 42, 0
12, 30360, Note_on_c, 9, 42, 125
12, 30360, Note_on_c, 9, 40, 125
12, 30480, Note_on_c, 9, 40, 0
12, 30480, Note_on_c, 9, 42, 0
12, 30480, Note_on_c, 9, 42, 125
12, 30480, Note_on_c, 9, 40, 125
12, 30600, Note_on_c, 9, 40, 0
12, 30600, Note_on_c, 9, 42, 0
12, 30600, Note_on_c, 9, 42, 125
12, 30600, Note_on_c, 9, 40, 125
12, 30720, Note_on_c, 9, 40, 0
12, 30720, Note_on_c, 9, 42, 0
12, 30720, Note_on_c, 9, 42, 125
12, 30720, Note_on_c, 9, 40, 125
12, 30840, Note_on_c, 9, 40, 0
12, 30840, Note_on_c, 9, 42, 0
12, 30840, Note_on_c, 9, 42, 125
12, 30840, Note_on_c, 9, 40, 125
12, 30930, Note_on_c, 9, 40, 125
12, 30960, Note_on_c, 9, 40, 0
12, 30960, Note_on_c, 9, 42, 0
12, 30960, Note_on_c, 9, 40, 125
12, 30990, Note_on_c, 9, 40, 125
12, 31020, Note_on_c, 9, 40, 125
12, 31050, Note_on_c, 9, 40, 0
12, 31050, Note_on_c, 9, 40, 125
12, 31080, Note_on_c, 9, 40, 0
12, 31080, Note_on_c, 9, 40, 125
12, 31110, Note_on_c, 9, 40, 0
12, 31110, Note_on_c, 9, 40, 125
12, 31140, Note_on_c, 9, 40, 0
12, 31140, Note_on_c, 9, 40, 125
12, 31170, Note_on_c, 9, 40, 0
12, 31170, Note_on_c, 9, 40, 125
12, 31200, Note_on_c, 9, 40, 0
12, 31200, Note_on_c, 9, 42, 125
12, 31200, Note_on_c, 9, 40, 125
12, 31230, Note_on_c, 9, 40, 0
12, 31260, Note_on_c, 9, 40, 0
12, 31290, Note_on_c, 9, 40, 0
12, 31320, Note_on_c, 9, 40, 0
12, 31320, Note_on_c, 9, 42, 0
12, 31320, Note_on_c, 9, 42, 125
12, 31320, Note_on_c, 9, 40, 125
12, 31440, Note_on_c, 9, 40, 0
12, 31440, Note_on_c, 9, 42, 0
12, 31440, Note_on_c, 9, 42, 125
12, 31440, Note_on_c, 9, 40, 125
12, 31560, Note_on_c, 9, 40, 0
12, 31560, Note_on_c, 9, 42, 0
12, 31560, Note_on_c, 9, 42, 125
12, 31560, Note_on_c, 9, 40, 125
12, 31680, Note_on_c, 9, 40, 0
12, 31680, Note_on_c, 9, 42, 0
12, 31680, Note_on_c, 9, 42, 125
12, 31680, Note_on_c, 9, 40, 125
12, 31800, Note_on_c, 9, 40, 0
12, 31800, Note_on_c, 9, 42, 0
12, 31800, Note_on_c, 9, 42, 125
12, 31800, Note_on_c, 9, 40, 125
12, 31920, Note_on_c, 9, 40, 0
12, 31920, Note_on_c, 9, 42, 0
12, 31920, Note_on_c, 9, 42, 125
12, 31920, Note_on_c, 9, 40, 125
12, 32040, Note_on_c, 9, 40, 0
12, 32040, Note_on_c, 9, 42, 0
12, 32040, Note_on_c, 9, 42, 125
12, 32040, Note_on_c, 9, 40, 125
12, 32160, Note_on_c, 9, 40, 0
12, 32160, Note_on_c, 9, 42, 0
12, 32160, Note_on_c, 9, 42, 125
12, 32160, Note_on_c, 9, 40, 125
12, 32280, Note_on_c, 9, 40, 0
12, 32280, Note_on_c, 9, 42, 0
12, 32280, Note_on_c, 9, 42, 125
12, 32280, Note_on_c, 9, 40, 125
12, 32400, Note_on_c, 9, 40, 0
12, 32400, Note_on_c, 9, 42, 0
12, 32400, Note_on_c, 9, 42, 125
12, 32400, Note_on_c, 9, 40, 125
12, 32520, Note_on_c, 9, 40, 0
12, 32520, Note_on_c, 9, 42, 0
12, 32520, Note_on_c, 9, 42, 125
12, 32520, Note_on_c, 9, 40, 125
12, 32640, Note_on_c, 9, 40, 0
12, 32640, Note_on_c, 9, 42, 0
12, 32640, Note_on_c, 9, 42, 125
12, 32640, Note_on_c, 9, 40, 125
12, 32760, Note_on_c, 9, 40, 0
12, 32760, Note_on_c, 9, 42, 0
12, 32760, Note_on_c, 9, 42, 125
12, 32760, Note_on_c, 9, 40, 125
12, 32880, Note_on_c, 9, 40, 0
12, 32880, Note_on_c, 9, 42, 0
12, 32880, Note_on_c, 9, 42, 125
12, 32880, Note_on_c, 9, 40, 125
12, 33000, Note_on_c, 9, 40, 0
12, 33000, Note_on_c, 9, 42, 0
12, 33000, Note_on_c, 9, 42, 125
12, 33000, Note_on_c, 9, 40, 125
12, 33120, Note_on_c, 9, 40, 0
12, 33120, Note_on_c, 9, 42, 0
12, 33120, Note_on_c, 9, 42, 125
12, 33120, Note_on_c, 9, 40, 125
12, 33240, Note_on_c, 9, 40, 0
12, 33240, Note_on_c, 9, 42, 0
12, 33240, Note_on_c, 9, 42, 125
12, 33240, Note_on_c, 9, 40, 125
12, 33360, Note_on_c, 9, 40, 0
12, 33360, Note_on_c, 9, 42, 0
12, 33360, Note_on_c, 9, 42, 125
12, 33360, Note_on_c, 9, 40, 125
12, 33480, Note_on_c, 9, 40, 0
12, 33480, Note_on_c, 9, 42, 0
12, 33480, Note_on_c, 9, 42, 125
12, 33480, Note_on_c, 9, 40, 125
12, 33600, Note_on_c, 9, 40, 0
12, 33600, Note_on_c, 9, 42, 0
12, 33600, Note_on_c, 9, 42, 125
12, 33600, Note_on_c, 9, 40, 125
12, 33720, Note_on_c, 9, 40, 0
12, 33720, Note_on_c, 9, 42, 0
12, 33720, Note_on_c, 9, 42, 125
12, 33720, Note_on_c, 9, 40, 125
12, 33840, Note_on_c, 9, 40, 0
12, 33840, Note_on_c, 9, 42, 0
12, 33840, Note_on_c, 9, 42, 125
12, 33840, Note_on_c, 9, 40, 125
12, 33960, Note_on_c, 9, 40, 0
12, 33960, Note_on_c, 9, 42, 0
12, 33960, Note_on_c, 9, 42, 125
12, 33960, Note_on_c, 9, 40, 125
12, 34080, Note_on_c, 9, 40, 0
12, 34080, Note_on_c, 9, 42, 0
12, 34080, Note_on_c, 9, 42, 125
12, 34080, Note_on_c, 9, 40, 125
12, 34200, Note_on_c, 9, 40, 0
12, 34200, Note_on_c, 9, 42, 0
12, 34200, Note_on_c, 9, 42, 125
12, 34200, Note_on_c, 9, 40, 125
12, 34320, Note_on_c, 9, 40, 0
12, 34320, Note_on_c, 9, 42, 0
12, 34320, Note_on_c, 9, 42, 125
12, 34320, Note_on_c, 9, 40, 125
12, 34440, Note_on_c, 9, 40, 0
12, 34440, Note_on_c, 9, 42, 0
12, 34440, Note_on_c, 9, 42, 125
12, 34440, Note_on_c, 9, 40, 125
12, 34560, Note_on_c, 9, 40, 0
12, 34560, Note_on_c, 9, 42, 0
12, 34560, Note_on_c, 9, 42, 125
12, 34560, Note_on_c, 9, 40, 125
12, 34680, Note_on_c, 9, 40, 0
12, 34680, Note_on_c, 9, 42, 0
12, 34680, Note_on_c, 9, 42, 125
12, 34680, Note_on_c, 9, 40, 125
12, 34800, Note_on_c, 9, 40, 0
12, 34800, Note_on_c, 9, 42, 0
12, 34800, Note_on_c, 9, 42, 125
12, 34800, Note_on_c, 9, 40, 125
12, 34920, Note_on_c, 9, 40, 0
12, 34920, Note_on_c, 9, 42, 0
12, 34920, Note_on_c, 9, 42, 125
12, 34920, Note_on_c, 9, 40, 125
12, 35040, Note_on_c, 9, 40, 0
12, 35040, Note_on_c, 9, 42, 0
12, 35040, Note_on_c, 9, 42, 125
12, 35040, Note_on_c, 9, 40, 125
12, 35160, Note_on_c, 9, 40, 0
12, 35160, Note_on_c, 9, 42, 0
12, 35160, Note_on_c, 9, 42, 125
12, 35160, Note_on_c, 9, 40, 125
12, 35280, Note_on_c, 9, 40, 0
12, 35280, Note_on_c, 9, 42, 0
12, 35280, Note_on_c, 9, 42, 125
12, 35280, Note_on_c, 9, 40, 125
12, 35400, Note_on_c, 9, 40, 0
12, 35400, Note_on_c, 9, 42, 0
12, 35400, Note_on_c, 9, 42, 125
12, 35400, Note_on_c, 9, 40, 125
12, 35520, Note_on_c, 9, 40, 0
12, 35520, Note_on_c, 9, 42, 0
12, 35520, Note_on_c, 9, 42, 125
12, 35520, Note_on_c, 9, 40, 125
12, 35640, Note_on_c, 9, 40, 0
12, 35640, Note_on_c, 9, 42, 0
12, 35640, Note_on_c, 9, 42, 117
12, 35640, Note_on_c, 9, 40, 117
12, 35730, Note_on_c, 9, 40, 112
12, 35760, Note_on_c, 9, 40, 0
12, 35760, Note_on_c, 9, 42, 0
12, 35760, Note_on_c, 9, 40, 110
12, 35790, Note_on_c, 9, 40, 107
12, 35820, Note_on_c, 9, 40, 106
12, 35850, Note_on_c, 9, 40, 0
12, 35850, Note_on_c, 9, 40, 103
12, 35880, Note_on_c, 9, 40, 0
12, 35880, Note_on_c, 9, 40, 102
12, 35910, Note_on_c, 9, 40, 0
12, 35910, Note_on_c, 9, 40, 100
12, 35940, Note_on_c, 9, 40, 0
12, 35940, Note_on_c, 9, 40, 98
12, 35970, Note_on_c, 9, 40, 0
12, 35970, Note_on_c, 9, 40, 96
12, 36000, Note_on_c, 9, 40, 0
12, 36000, Note_on_c, 9, 42, 93
12, 36000, Note_on_c, 9, 40, 93
12, 36030, Note_on_c, 9, 40, 0
12, 36060, Note_on_c, 9, 40, 0
12, 36090, Note_on_c, 9, 40, 0
12, 36120, Note_on_c, 9, 40, 0
12, 36120, Note_on_c, 9, 42, 0
12, 36120, Note_on_c, 9, 42, 86
12, 36120, Note_on_c, 9, 40, 86
12, 36240, Note_on_c, 9, 40, 0
12, 36240, Note_on_c, 9, 42, 0
12, 36240, Note_on_c, 9, 42, 78
12, 36240, Note_on_c, 9, 40, 78
12, 36360, Note_on_c, 9, 40, 0
12, 36360, Note_on_c, 9, 42, 0
12, 36360, Note_on_c, 9, 42, 71
12, 36360, Note_on_c, 9, 40, 71
12, 36480, Note_on_c, 9, 40, 0
12, 36480, Note_on_c, 9, 42, 0
12, 36480, Note_on_c, 9, 42, 62
12, 36480, Note_on_c, 9, 40, 62
12, 36600, Note_on_c, 9, 40, 0
12, 36600, Note_on_c, 9, 42, 0
12, 36600, Note_on_c, 9, 42, 55
12, 36600, Note_on_c, 9, 40, 55
12, 36720, Note_on_c, 9, 40, 0
12, 36720, Note_on_c, 9, 42, 0
12, 36720, Note_on_c, 9, 42, 47
12, 36720, Note_on_c, 9, 40, 47
12, 36840, Note_on_c, 9, 40, 0
12, 36840, Note_on_c, 9, 42, 0
12, 36840, Note_on_c, 9, 42, 40
12, 36840, Note_on_c, 9, 40, 40
12, 36960, Note_on_c, 9, 40, 0
12, 36960, Note_on_c, 9, 42, 0
12, 36960, Note_on_c, 9, 42, 31
12, 36960, Note_on_c, 9, 40, 31
12, 37080, Note_on_c, 9, 40, 0
12, 37080, Note_on_c, 9, 42, 0
12, 37080, Note_on_c, 9, 42, 23
12, 37080, Note_on_c, 9, 40, 23
12, 37200, Note_on_c, 9, 40, 0
12, 37200, Note_on_c, 9, 42, 0
12, 37200, Note_on_c, 9, 42, 16
12, 37200, Note_on_c, 9, 40, 16
12, 37320, Note_on_c, 9, 40, 0
12, 37320, Note_on_c, 9, 42, 0
12, 37320, Note_on_c, 9, 42, 8
12, 37320, Note_on_c, 9, 40, 8
12, 37440, Note_on_c, 9, 40, 0
12, 37440, Note_on_c, 9, 42, 0
12, 37440, End_track
13, 0, Start_track
13, 0, MIDI_port, 0
13, 0, Control_c, 9, 7, 125
13, 0, Control_c, 9, 10, 64
13, 480, Note_on_c, 9, 54, 125
13, 540, Note_on_c, 9, 54, 125
13, 600, Note_on_c, 9, 54, 0
13, 600, Note_on_c, 9, 54, 125
13, 660, Note_on_c, 9, 54, 0
13, 660, Note_on_c, 9, 54, 125
13, 720, Note_on_c, 9, 54, 0
13, 720, Note_on_c, 9, 54, 125
13, 780, Note_on_c, 9, 54, 0
13, 780, Note_on_c, 9, 54, 125
13, 840, Note_on_c, 9, 54, 0
13, 840, Note_on_c, 9, 54, 125
13, 900, Note_on_c, 9, 54, 0
13, 900, Note_on_c, 9, 54, 125
13, 960, Note_on_c, 9, 54, 0
13, 960, Note_on_c, 9, 54, 125
13, 1020, Note_on_c, 9, 54, 0
13, 1020, Note_on_c, 9, 54, 125
13, 1080, Note_on_c, 9, 54, 0
13, 1080, Note_on_c, 9, 54, 125
13, 1140, Note_on_c, 9, 54, 0
13, 1140, Note_on_c, 9, 54, 125
13, 1200, Note_on_c, 9, 54, 0
13, 1200, Note_on_c, 9, 54, 125
13, 1260, Note_on_c, 9, 54, 0
13, 1260, Note_on_c, 9, 54, 125
13, 1320, Note_on_c, 9, 54, 0
13, 1320, Note_on_c, 9, 54, 125
13, 1380, Note_on_c, 9, 54, 0
13, 1380, Note_on_c, 9, 54, 125
13, 1440, Note_on_c, 9, 54, 0
13, 1440, Note_on_c, 9, 54, 125
13, 1500, Note_on_c, 9, 54, 0
13, 1500, Note_on_c, 9, 54, 125
13, 1560, Note_on_c, 9, 54, 0
13, 1560, Note_on_c, 9, 54, 125
13, 1620, Note_on_c, 9, 54, 0
13, 1620, Note_on_c, 9, 54, 125
13, 1680, Note_on_c, 9, 54, 0
13, 1680, Note_on_c, 9, 54, 125
13, 1740, Note_on_c, 9, 54, 0
13, 1740, Note_on_c, 9, 54, 125
13, 1800, Note_on_c, 9, 54, 0
13, 1800, Note_on_c, 9, 54, 125
13, 1860, Note_on_c, 9, 54, 0
13, 1860, Note_on_c, 9, 54, 125
13, 1920, Note_on_c, 9, 54, 0
13, 1920, Note_on_c, 9, 54, 125
13, 1980, Note_on_c, 9, 54, 0
13, 1980, Note_on_c, 9, 54, 125
13, 2040, Note_on_c, 9, 54, 0
13, 2040, Note_on_c, 9, 54, 125
13, 2100, Note_on_c, 9, 54, 0
13, 2100, Note_on_c, 9, 54, 125
13, 2160, Note_on_c, 9, 54, 0
13, 2160, Note_on_c, 9, 54, 125
13, 2220, Note_on_c, 9, 54, 0
13, 2220, Note_on_c, 9, 54, 125
13, 2280, Note_on_c, 9, 54, 0
13, 2280, Note_on_c, 9, 54, 125
13, 2340, Note_on_c, 9, 54, 0
13, 2340, Note_on_c, 9, 54, 125
13, 2400, Note_on_c, 9, 54, 0
13, 2400, Note_on_c, 9, 54, 125
13, 2460, Note_on_c, 9, 54, 0
13, 2460, Note_on_c, 9, 54, 125
13, 2520, Note_on_c, 9, 54, 0
13, 2520, Note_on_c, 9, 54, 125
13, 2580, Note_on_c, 9, 54, 0
13, 2580, Note_on_c, 9, 54, 125
13, 2640, Note_on_c, 9, 54, 0
13, 2640, Note_on_c, 9, 54, 125
13, 2700, Note_on_c, 9, 54, 0
13, 2700, Note_on_c, 9, 54, 125
13, 2760, Note_on_c, 9, 54, 0
13, 2760, Note_on_c, 9, 54, 125
13, 2820, Note_on_c, 9, 54, 0
13, 2820, Note_on_c, 9, 54, 125
13, 2880, Note_on_c, 9, 54, 0
13, 2880, Note_on_c, 9, 54, 125
13, 2940, Note_on_c, 9, 54, 0
13, 2940, Note_on_c, 9, 54, 125
13, 3000, Note_on_c, 9, 54, 0
13, 3000, Note_on_c, 9, 54, 125
13, 3060, Note_on_c, 9, 54, 0
13, 3060, Note_on_c, 9, 54, 125
13, 3120, Note_on_c, 9, 54, 0
13, 3120, Note_on_c, 9, 54, 125
13, 3180, Note_on_c, 9, 54, 0
13, 3180, Note_on_c, 9, 54, 125
13, 3240, Note_on_c, 9, 54, 0
13, 3240, Note_on_c, 9, 54, 125
13, 3300, Note_on_c, 9, 54, 0
13, 3300, Note_on_c, 9, 54, 125
13, 3360, Note_on_c, 9, 54, 0
13, 3360, Note_on_c, 9, 54, 125
13, 3420, Note_on_c, 9, 54, 0
13, 3420, Note_on_c, 9, 54, 125
13, 3480, Note_on_c, 9, 54, 0
13, 3480, Note_on_c, 9, 54, 125
13, 3540, Note_on_c, 9, 54, 0
13, 3540, Note_on_c, 9, 54, 125
13, 3600, Note_on_c, 9, 54, 0
13, 3600, Note_on_c, 9, 54, 125
13, 3660, Note_on_c, 9, 54, 0
13, 3660, Note_on_c, 9, 54, 125
13, 3720, Note_on_c, 9, 54, 0
13, 3720, Note_on_c, 9, 54, 125
13, 3780, Note_on_c, 9, 54, 0
13, 3780, Note_on_c, 9, 54, 125
13, 3840, Note_on_c, 9, 54, 0
13, 3840, Note_on_c, 9, 54, 125
13, 3900, Note_on_c, 9, 54, 0
13, 3900, Note_on_c, 9, 54, 125
13, 3960, Note_on_c, 9, 54, 0
13, 3960, Note_on_c, 9, 54, 125
13, 4020, Note_on_c, 9, 54, 0
13, 4020, Note_on_c, 9, 54, 125
13, 4080, Note_on_c, 9, 54, 0
13, 4080, Note_on_c, 9, 54, 125
13, 4140, Note_on_c, 9, 54, 0
13, 4140, Note_on_c, 9, 54, 125
13, 4200, Note_on_c, 9, 54, 0
13, 4200, Note_on_c, 9, 54, 125
13, 4260, Note_on_c, 9, 54, 0
13, 4260, Note_on_c, 9, 54, 125
13, 4320, Note_on_c, 9, 54, 0
13, 4320, Note_on_c, 9, 54, 125
13, 4380, Note_on_c, 9, 54, 0
13, 4380, Note_on_c, 9, 54, 125
13, 4440, Note_on_c, 9, 54, 0
13, 4440, Note_on_c, 9, 54, 125
13, 4500, Note_on_c, 9, 54, 0
13, 4500, Note_on_c, 9, 54, 125
13, 4560, Note_on_c, 9, 54, 0
13, 4560, Note_on_c, 9, 54, 125
13, 4620, Note_on_c, 9, 54, 0
13, 4620, Note_on_c, 9, 54, 125
13, 4680, Note_on_c, 9, 54, 0
13, 4680, Note_on_c, 9, 54, 125
13, 4740, Note_on_c, 9, 54, 0
13, 4740, Note_on_c, 9, 54, 125
13, 4800, Note_on_c, 9, 54, 0
13, 4800, Note_on_c, 9, 54, 125
13, 4860, Note_on_c, 9, 54, 0
13, 4860, Note_on_c, 9, 54, 125
13, 4920, Note_on_c, 9, 54, 0
13, 4920, Note_on_c, 9, 54, 125
13, 4980, Note_on_c, 9, 54, 0
13, 4980, Note_on_c, 9, 54, 125
13, 5040, Note_on_c, 9, 54, 0
13, 5040, Note_on_c, 9, 54, 125
13, 5100, Note_on_c, 9, 54, 0
13, 5100, Note_on_c, 9, 54, 125
13, 5160, Note_on_c, 9, 54, 0
13, 5160, Note_on_c, 9, 54, 125
13, 5220, Note_on_c, 9, 54, 0
13, 5220, Note_on_c, 9, 54, 125
13, 5280, Note_on_c, 9, 54, 0
13, 5280, Note_on_c, 9, 54, 125
13, 5340, Note_on_c, 9, 54, 0
13, 5340, Note_on_c, 9, 54, 125
13, 5400, Note_on_c, 9, 54, 0
13, 5400, Note_on_c, 9, 54, 125
13, 5460, Note_on_c, 9, 54, 0
13, 5460, Note_on_c, 9, 54, 125
13, 5520, Note_on_c, 9, 54, 0
13, 5520, Note_on_c, 9, 54, 125
13, 5580, Note_on_c, 9, 54, 0
13, 5580, Note_on_c, 9, 54, 125
13, 5640, Note_on_c, 9, 54, 0
13, 5640, Note_on_c, 9, 54, 125
13, 5700, Note_on_c, 9, 54, 0
13, 5700, Note_on_c, 9, 54, 125
13, 5760, Note_on_c, 9, 54, 0
13, 5760, Note_on_c, 9, 54, 125
13, 5820, Note_on_c, 9, 54, 0
13, 5820, Note_on_c, 9, 54, 125
13, 5880, Note_on_c, 9, 54, 0
13, 5880, Note_on_c, 9, 54, 125
13, 5940, Note_on_c, 9, 54, 0
13, 5940, Note_on_c, 9, 54, 125
13, 6000, Note_on_c, 9, 54, 0
13, 6000, Note_on_c, 9, 54, 125
13, 6060, Note_on_c, 9, 54, 0
13, 6060, Note_on_c, 9, 54, 125
13, 6120, Note_on_c, 9, 54, 0
13, 6120, Note_on_c, 9, 54, 125
13, 6180, Note_on_c, 9, 54, 0
13, 6180, Note_on_c, 9, 54, 125
13, 6240, Note_on_c, 9, 54, 0
13, 6240, Note_on_c, 9, 54, 125
13, 6300, Note_on_c, 9, 54, 0
13, 6300, Note_on_c, 9, 54, 125
13, 6360, Note_on_c, 9, 54, 0
13, 6360, Note_on_c, 9, 54, 125
13, 6420, Note_on_c, 9, 54, 0
13, 6420, Note_on_c, 9, 54, 125
13, 6480, Note_on_c, 9, 54, 0
13, 6480, Note_on_c, 9, 54, 125
13, 6540, Note_on_c, 9, 54, 0
13, 6540, Note_on_c, 9, 54, 125
13, 6600, Note_on_c, 9, 54, 0
13, 6600, Note_on_c, 9, 54, 125
13, 6660, Note_on_c, 9, 54, 0
13, 6660, Note_on_c, 9, 54, 125
13, 6720, Note_on_c, 9, 54, 0
13, 6720, Note_on_c, 9, 54, 125
13, 6780, Note_on_c, 9, 54, 0
13, 6780, Note_on_c, 9, 54, 125
13, 6840, Note_on_c, 9, 54, 0
13, 6840, Note_on_c, 9, 54, 125
13, 6900, Note_on_c, 9, 54, 0
13, 6900, Note_on_c, 9, 54, 125
13, 6960, Note_on_c, 9, 54, 0
13, 6960, Note_on_c, 9, 54, 125
13, 7020, Note_on_c, 9, 54, 0
13, 7020, Note_on_c, 9, 54, 125
13, 7080, Note_on_c, 9, 54, 0
13, 7080, Note_on_c, 9, 54, 125
13, 7140, Note_on_c, 9, 54, 0
13, 7140, Note_on_c, 9, 54, 125
13, 7200, Note_on_c, 9, 54, 0
13, 7200, Note_on_c, 9, 54, 125
13, 7260, Note_on_c, 9, 54, 0
13, 7260, Note_on_c, 9, 54, 125
13, 7320, Note_on_c, 9, 54, 0
13, 7320, Note_on_c, 9, 54, 125
13, 7380, Note_on_c, 9, 54, 0
13, 7380, Note_on_c, 9, 54, 125
13, 7440, Note_on_c, 9, 54, 0
13, 7440, Note_on_c, 9, 54, 125
13, 7500, Note_on_c, 9, 54, 0
13, 7500, Note_on_c, 9, 54, 125
13, 7560, Note_on_c, 9, 54, 0
13, 7560, Note_on_c, 9, 54, 125
13, 7620, Note_on_c, 9, 54, 0
13, 7620, Note_on_c, 9, 54, 125
13, 7680, Note_on_c, 9, 54, 0
13, 7680, Note_on_c, 9, 54, 125
13, 7740, Note_on_c, 9, 54, 0
13, 7740, Note_on_c, 9, 54, 125
13, 7800, Note_on_c, 9, 54, 0
13, 7800, Note_on_c, 9, 54, 125
13, 7860, Note_on_c, 9, 54, 0
13, 7860, Note_on_c, 9, 54, 125
13, 7920, Note_on_c, 9, 54, 0
13, 7920, Note_on_c, 9, 54, 125
13, 7980, Note_on_c, 9, 54, 0
13, 7980, Note_on_c, 9, 54, 125
13, 8040, Note_on_c, 9, 54, 0
13, 8040, Note_on_c, 9, 54, 125
13, 8100, Note_on_c, 9, 54, 0
13, 8100, Note_on_c, 9, 54, 125
13, 8160, Note_on_c, 9, 54, 0
13, 8160, Note_on_c, 9, 54, 125
13, 8220, Note_on_c, 9, 54, 0
13, 8220, Note_on_c, 9, 54, 125
13, 8280, Note_on_c, 9, 54, 0
13, 8280, Note_on_c, 9, 54, 125
13, 8340, Note_on_c, 9, 54, 0
13, 8340, Note_on_c, 9, 54, 125
13, 8400, Note_on_c, 9, 54, 0
13, 8400, Note_on_c, 9, 54, 125
13, 8460, Note_on_c, 9, 54, 0
13, 8460, Note_on_c, 9, 54, 125
13, 8520, Note_on_c, 9, 54, 0
13, 8520, Note_on_c, 9, 54, 125
13, 8580, Note_on_c, 9, 54, 0
13, 8580, Note_on_c, 9, 54, 125
13, 8640, Note_on_c, 9, 54, 0
13, 8640, Note_on_c, 9, 54, 125
13, 8700, Note_on_c, 9, 54, 0
13, 8700, Note_on_c, 9, 54, 125
13, 8760, Note_on_c, 9, 54, 0
13, 8760, Note_on_c, 9, 54, 125
13, 8820, Note_on_c, 9, 54, 0
13, 8820, Note_on_c, 9, 54, 125
13, 8880, Note_on_c, 9, 54, 0
13, 8880, Note_on_c, 9, 54, 125
13, 8940, Note_on_c, 9, 54, 0
13, 8940, Note_on_c, 9, 54, 125
13, 9000, Note_on_c, 9, 54, 0
13, 9000, Note_on_c, 9, 54, 125
13, 9060, Note_on_c, 9, 54, 0
13, 9060, Note_on_c, 9, 54, 125
13, 9120, Note_on_c, 9, 54, 0
13, 9120, Note_on_c, 9, 54, 125
13, 9180, Note_on_c, 9, 54, 0
13, 9180, Note_on_c, 9, 54, 125
13, 9240, Note_on_c, 9, 54, 0
13, 9240, Note_on_c, 9, 54, 125
13, 9300, Note_on_c, 9, 54, 0
13, 9300, Note_on_c, 9, 54, 125
13, 9360, Note_on_c, 9, 54, 0
13, 9360, Note_on_c, 9, 54, 125
13, 9420, Note_on_c, 9, 54, 0
13, 9420, Note_on_c, 9, 54, 125
13, 9480, Note_on_c, 9, 54, 0
13, 9480, Note_on_c, 9, 54, 125
13, 9540, Note_on_c, 9, 54, 0
13, 9540, Note_on_c, 9, 54, 125
13, 9600, Note_on_c, 9, 54, 0
13, 9600, Note_on_c, 9, 54, 125
13, 9660, Note_on_c, 9, 54, 0
13, 9660, Note_on_c, 9, 54, 125
13, 9720, Note_on_c, 9, 54, 0
13, 9720, Note_on_c, 9, 54, 125
13, 9780, Note_on_c, 9, 54, 0
13, 9780, Note_on_c, 9, 54, 125
13, 9840, Note_on_c, 9, 54, 0
13, 9840, Note_on_c, 9, 54, 125
13, 9900, Note_on_c, 9, 54, 0
13, 9900, Note_on_c, 9, 54, 125
13, 9960, Note_on_c, 9, 54, 0
13, 9960, Note_on_c, 9, 54, 125
13, 10020, Note_on_c, 9, 54, 0
13, 10020, Note_on_c, 9, 54, 125
13, 10080, Note_on_c, 9, 54, 0
13, 10080, Note_on_c, 9, 54, 125
13, 10140, Note_on_c, 9, 54, 0
13, 10140, Note_on_c, 9, 54, 125
13, 10200, Note_on_c, 9, 54, 0
13, 10200, Note_on_c, 9, 54, 125
13, 10260, Note_on_c, 9, 54, 0
13, 10260, Note_on_c, 9, 54, 125
13, 10320, Note_on_c, 9, 54, 0
13, 10320, Note_on_c, 9, 54, 125
13, 10380, Note_on_c, 9, 54, 0
13, 10380, Note_on_c, 9, 54, 125
13, 10440, Note_on_c, 9, 54, 0
13, 10440, Note_on_c, 9, 54, 125
13, 10500, Note_on_c, 9, 54, 0
13, 10500, Note_on_c, 9, 54, 125
13, 10560, Note_on_c, 9, 54, 0
13, 10560, Note_on_c, 9, 54, 125
13, 10620, Note_on_c, 9, 54, 0
13, 10620, Note_on_c, 9, 54, 125
13, 10680, Note_on_c, 9, 54, 0
13, 10680, Note_on_c, 9, 54, 125
13, 10740, Note_on_c, 9, 54, 0
13, 10740, Note_on_c, 9, 54, 125
13, 10800, Note_on_c, 9, 54, 0
13, 10800, Note_on_c, 9, 54, 125
13, 10860, Note_on_c, 9, 54, 0
13, 10860, Note_on_c, 9, 54, 125
13, 10920, Note_on_c, 9, 54, 0
13, 10920, Note_on_c, 9, 54, 125
13, 10980, Note_on_c, 9, 54, 0
13, 10980, Note_on_c, 9, 54, 125
13, 11040, Note_on_c, 9, 54, 0
13, 11040, Note_on_c, 9, 54, 125
13, 11100, Note_on_c, 9, 54, 0
13, 11100, Note_on_c, 9, 54, 125
13, 11160, Note_on_c, 9, 54, 0
13, 11160, Note_on_c, 9, 54, 125
13, 11220, Note_on_c, 9, 54, 0
13, 11220, Note_on_c, 9, 54, 125
13, 11280, Note_on_c, 9, 54, 0
13, 11280, Note_on_c, 9, 54, 125
13, 11340, Note_on_c, 9, 54, 0
13, 11340, Note_on_c, 9, 54, 125
13, 11400, Note_on_c, 9, 54, 0
13, 11400, Note_on_c, 9, 54, 125
13, 11460, Note_on_c, 9, 54, 0
13, 11460, Note_on_c, 9, 54, 125
13, 11520, Note_on_c, 9, 54, 0
13, 11520, Note_on_c, 9, 54, 125
13, 11580, Note_on_c, 9, 54, 0
13, 11580, Note_on_c, 9, 54, 125
13, 11640, Note_on_c, 9, 54, 0
13, 11640, Note_on_c, 9, 54, 125
13, 11700, Note_on_c, 9, 54, 0
13, 11700, Note_on_c, 9, 54, 125
13, 11760, Note_on_c, 9, 54, 0
13, 11760, Note_on_c, 9, 54, 125
13, 11820, Note_on_c, 9, 54, 0
13, 11820, Note_on_c, 9, 54, 125
13, 11880, Note_on_c, 9, 54, 0
13, 11880, Note_on_c, 9, 54, 125
13, 11940, Note_on_c, 9, 54, 0
13, 11940, Note_on_c, 9, 54, 125
13, 12000, Note_on_c, 9, 54, 0
13, 12000, Note_on_c, 9, 54, 125
13, 12060, Note_on_c, 9, 54, 0
13, 12060, Note_on_c, 9, 54, 125
13, 12120, Note_on_c, 9, 54, 0
13, 12120, Note_on_c, 9, 54, 125
13, 12180, Note_on_c, 9, 54, 0
13, 12180, Note_on_c, 9, 54, 125
13, 12240, Note_on_c, 9, 54, 0
13, 12240, Note_on_c, 9, 54, 125
13, 12300, Note_on_c, 9, 54, 0
13, 12300, Note_on_c, 9, 54, 125
13, 12360, Note_on_c, 9, 54, 0
13, 12360, Note_on_c, 9, 54, 125
13, 12420, Note_on_c, 9, 54, 0
13, 12420, Note_on_c, 9, 54, 125
13, 12480, Note_on_c, 9, 54, 0
13, 12480, Note_on_c, 9, 54, 125
13, 12540, Note_on_c, 9, 54, 0
13, 12540, Note_on_c, 9, 54, 125
13, 12600, Note_on_c, 9, 54, 0
13, 12600, Note_on_c, 9, 54, 125
13, 12660, Note_on_c, 9, 54, 0
13, 12660, Note_on_c, 9, 54, 125
13, 12720, Note_on_c, 9, 54, 0
13, 12720, Note_on_c, 9, 54, 125
13, 12780, Note_on_c, 9, 54, 0
13, 12780, Note_on_c, 9, 54, 125
13, 12840, Note_on_c, 9, 54, 0
13, 12840, Note_on_c, 9, 54, 125
13, 12900, Note_on_c, 9, 54, 0
13, 12900, Note_on_c, 9, 54, 125
13, 12960, Note_on_c, 9, 54, 0
13, 12960, Note_on_c, 9, 54, 125
13, 13020, Note_on_c, 9, 54, 0
13, 13020, Note_on_c, 9, 54, 125
13, 13080, Note_on_c, 9, 54, 0
13, 13080, Note_on_c, 9, 54, 125
13, 13140, Note_on_c, 9, 54, 0
13, 13140, Note_on_c, 9, 54, 125
13, 13200, Note_on_c, 9, 54, 0
13, 13200, Note_on_c, 9, 54, 125
13, 13260, Note_on_c, 9, 54, 0
13, 13260, Note_on_c, 9, 54, 125
13, 13320, Note_on_c, 9, 54, 0
13, 13320, Note_on_c, 9, 54, 125
13, 13380, Note_on_c, 9, 54, 0
13, 13380, Note_on_c, 9, 54, 125
13, 13440, Note_on_c, 9, 54, 0
13, 13440, Note_on_c, 9, 54, 125
13, 13500, Note_on_c, 9, 54, 0
13, 13500, Note_on_c, 9, 54, 125
13, 13560, Note_on_c, 9, 54, 0
13, 13560, Note_on_c, 9, 54, 125
13, 13620, Note_on_c, 9, 54, 0
13, 13620, Note_on_c, 9, 54, 125
13, 13680, Note_on_c, 9, 54, 0
13, 13680, Note_on_c, 9, 54, 125
13, 13740, Note_on_c, 9, 54, 0
13, 13740, Note_on_c, 9, 54, 125
13, 13800, Note_on_c, 9, 54, 0
13, 13800, Note_on_c, 9, 54, 125
13, 13860, Note_on_c, 9, 54, 0
13, 13860, Note_on_c, 9, 54, 125
13, 13920, Note_on_c, 9, 54, 0
13, 13920, Note_on_c, 9, 54, 125
13, 13980, Note_on_c, 9, 54, 0
13, 13980, Note_on_c, 9, 54, 125
13, 14040, Note_on_c, 9, 54, 0
13, 14040, Note_on_c, 9, 54, 125
13, 14100, Note_on_c, 9, 54, 0
13, 14100, Note_on_c, 9, 54, 125
13, 14160, Note_on_c, 9, 54, 0
13, 14160, Note_on_c, 9, 54, 125
13, 14220, Note_on_c, 9, 54, 0
13, 14220, Note_on_c, 9, 54, 125
13, 14280, Note_on_c, 9, 54, 0
13, 14280, Note_on_c, 9, 54, 125
13, 14340, Note_on_c, 9, 54, 0
13, 14340, Note_on_c, 9, 54, 125
13, 14400, Note_on_c, 9, 54, 0
13, 14400, Note_on_c, 9, 54, 125
13, 14460, Note_on_c, 9, 54, 0
13, 14460, Note_on_c, 9, 54, 125
13, 14520, Note_on_c, 9, 54, 0
13, 14520, Note_on_c, 9, 54, 125
13, 14580, Note_on_c, 9, 54, 0
13, 14580, Note_on_c, 9, 54, 125
13, 14640, Note_on_c, 9, 54, 0
13, 14640, Note_on_c, 9, 54, 125
13, 14700, Note_on_c, 9, 54, 0
13, 14700, Note_on_c, 9, 54, 125
13, 14760, Note_on_c, 9, 54, 0
13, 14760, Note_on_c, 9, 54, 125
13, 14820, Note_on_c, 9, 54, 0
13, 14820, Note_on_c, 9, 54, 125
13, 14880, Note_on_c, 9, 54, 0
13, 14880, Note_on_c, 9, 54, 125
13, 14940, Note_on_c, 9, 54, 0
13, 14940, Note_on_c, 9, 54, 125
13, 15000, Note_on_c, 9, 54, 0
13, 15000, Note_on_c, 9, 54, 125
13, 15060, Note_on_c, 9, 54, 0
13, 15060, Note_on_c, 9, 54, 125
13, 15120, Note_on_c, 9, 54, 0
13, 15120, Note_on_c, 9, 54, 125
13, 15180, Note_on_c, 9, 54, 0
13, 15180, Note_on_c, 9, 54, 125
13, 15240, Note_on_c, 9, 54, 0
13, 15240, Note_on_c, 9, 54, 125
13, 15300, Note_on_c, 9, 54, 0
13, 15300, Note_on_c, 9, 54, 125
13, 15360, Note_on_c, 9, 54, 0
13, 15360, Note_on_c, 9, 54, 125
13, 15420, Note_on_c, 9, 54, 0
13, 15420, Note_on_c, 9, 54, 125
13, 15480, Note_on_c, 9, 54, 0
13, 15480, Note_on_c, 9, 54, 125
13, 15540, Note_on_c, 9, 54, 0
13, 15540, Note_on_c, 9, 54, 125
13, 15600, Note_on_c, 9, 54, 0
13, 15600, Note_on_c, 9, 54, 125
13, 15660, Note_on_c, 9, 54, 0
13, 15660, Note_on_c, 9, 54, 125
13, 15720, Note_on_c, 9, 54, 0
13, 15720, Note_on_c, 9, 54, 125
13, 15780, Note_on_c, 9, 54, 0
13, 15780, Note_on_c, 9, 54, 125
13, 15840, Note_on_c, 9, 54, 0
13, 15840, Note_on_c, 9, 54, 125
13, 15900, Note_on_c, 9, 54, 0
13, 15900, Note_on_c, 9, 54, 125
13, 15960, Note_on_c, 9, 54, 0
13, 15960, Note_on_c, 9, 54, 125
13, 16020, Note_on_c, 9, 54, 0
13, 16020, Note_on_c, 9, 54, 125
13, 16080, Note_on_c, 9, 54, 0
13, 16080, Note_on_c, 9, 54, 125
13, 16140, Note_on_c, 9, 54, 0
13, 16140, Note_on_c, 9, 54, 125
13, 16200, Note_on_c, 9, 54, 0
13, 16200, Note_on_c, 9, 54, 125
13, 16260, Note_on_c, 9, 54, 0
13, 16260, Note_on_c, 9, 54, 125
13, 16320, Note_on_c, 9, 54, 0
13, 16320, Note_on_c, 9, 54, 125
13, 16380, Note_on_c, 9, 54, 0
13, 16380, Note_on_c, 9, 54, 125
13, 16440, Note_on_c, 9, 54, 0
13, 16440, Note_on_c, 9, 54, 125
13, 16500, Note_on_c, 9, 54, 0
13, 16500, Note_on_c, 9, 54, 125
13, 16560, Note_on_c, 9, 54, 0
13, 16560, Note_on_c, 9, 54, 125
13, 16620, Note_on_c, 9, 54, 0
13, 16620, Note_on_c, 9, 54, 125
13, 16680, Note_on_c, 9, 54, 0
13, 16680, Note_on_c, 9, 54, 125
13, 16740, Note_on_c, 9, 54, 0
13, 16740, Note_on_c, 9, 54, 125
13, 16800, Note_on_c, 9, 54, 0
13, 16800, Note_on_c, 9, 54, 125
13, 16860, Note_on_c, 9, 54, 0
13, 16860, Note_on_c, 9, 54, 125
13, 16920, Note_on_c, 9, 54, 0
13, 16920, Note_on_c, 9, 54, 125
13, 16980, Note_on_c, 9, 54, 0
13, 16980, Note_on_c, 9, 54, 125
13, 17040, Note_on_c, 9, 54, 0
13, 17040, Note_on_c, 9, 54, 125
13, 17100, Note_on_c, 9, 54, 0
13, 17100, Note_on_c, 9, 54, 125
13, 17160, Note_on_c, 9, 54, 0
13, 17160, Note_on_c, 9, 54, 125
13, 17220, Note_on_c, 9, 54, 0
13, 17220, Note_on_c, 9, 54, 125
13, 17280, Note_on_c, 9, 54, 0
13, 17280, Note_on_c, 9, 54, 125
13, 17340, Note_on_c, 9, 54, 0
13, 17340, Note_on_c, 9, 54, 125
13, 17400, Note_on_c, 9, 54, 0
13, 17400, Note_on_c, 9, 54, 125
13, 17460, Note_on_c, 9, 54, 0
13, 17460, Note_on_c, 9, 54, 125
13, 17520, Note_on_c, 9, 54, 0
13, 17520, Note_on_c, 9, 54, 125
13, 17580, Note_on_c, 9, 54, 0
13, 17580, Note_on_c, 9, 54, 125
13, 17640, Note_on_c, 9, 54, 0
13, 17640, Note_on_c, 9, 54, 125
13, 17700, Note_on_c, 9, 54, 0
13, 17700, Note_on_c, 9, 54, 125
13, 17760, Note_on_c, 9, 54, 0
13, 17760, Note_on_c, 9, 54, 125
13, 17820, Note_on_c, 9, 54, 0
13, 17820, Note_on_c, 9, 54, 125
13, 17880, Note_on_c, 9, 54, 0
13, 17880, Note_on_c, 9, 54, 125
13, 17940, Note_on_c, 9, 54, 0
13, 17940, Note_on_c, 9, 54, 125
13, 18000, Note_on_c, 9, 54, 0
13, 18000, Note_on_c, 9, 54, 125
13, 18060, Note_on_c, 9, 54, 0
13, 18060, Note_on_c, 9, 54, 125
13, 18120, Note_on_c, 9, 54, 0
13, 18120, Note_on_c, 9, 54, 125
13, 18180, Note_on_c, 9, 54, 0
13, 18180, Note_on_c, 9, 54, 125
13, 18240, Note_on_c, 9, 54, 0
13, 18240, Note_on_c, 9, 54, 125
13, 18300, Note_on_c, 9, 54, 0
13, 18300, Note_on_c, 9, 54, 125
13, 18360, Note_on_c, 9, 54, 0
13, 18360, Note_on_c, 9, 54, 125
13, 18420, Note_on_c, 9, 54, 0
13, 18420, Note_on_c, 9, 54, 125
13, 18480, Note_on_c, 9, 54, 0
13, 18480, Note_on_c, 9, 54, 125
13, 18540, Note_on_c, 9, 54, 0
13, 18540, Note_on_c, 9, 54, 125
13, 18600, Note_on_c, 9, 54, 0
13, 18600, Note_on_c, 9, 54, 125
13, 18660, Note_on_c, 9, 54, 0
13, 18660, Note_on_c, 9, 54, 125
13, 18720, Note_on_c, 9, 54, 0
13, 18720, Note_on_c, 9, 54, 125
13, 18780, Note_on_c, 9, 54, 0
13, 18780, Note_on_c, 9, 54, 125
13, 18840, Note_on_c, 9, 54, 0
13, 18840, Note_on_c, 9, 54, 125
13, 18900, Note_on_c, 9, 54, 0
13, 18900, Note_on_c, 9, 54, 125
13, 18960, Note_on_c, 9, 54, 0
13, 18960, Note_on_c, 9, 54, 125
13, 19020, Note_on_c, 9, 54, 0
13, 19020, Note_on_c, 9, 54, 125
13, 19080, Note_on_c, 9, 54, 0
13, 19080, Note_on_c, 9, 54, 125
13, 19140, Note_on_c, 9, 54, 0
13, 19140, Note_on_c, 9, 54, 125
13, 19200, Note_on_c, 9, 54, 0
13, 19200, Note_on_c, 9, 54, 125
13, 19260, Note_on_c, 9, 54, 0
13, 19260, Note_on_c, 9, 54, 125
13, 19320, Note_on_c, 9, 54, 0
13, 19320, Note_on_c, 9, 54, 125
13, 19380, Note_on_c, 9, 54, 0
13, 19380, Note_on_c, 9, 54, 125
13, 19440, Note_on_c, 9, 54, 0
13, 19440, Note_on_c, 9, 54, 125
13, 19500, Note_on_c, 9, 54, 0
13, 19500, Note_on_c, 9, 54, 125
13, 19560, Note_on_c, 9, 54, 0
13, 19560, Note_on_c, 9, 54, 125
13, 19620, Note_on_c, 9, 54, 0
13, 19620, Note_on_c, 9, 54, 125
13, 19680, Note_on_c, 9, 54, 0
13, 19680, Note_on_c, 9, 54, 125
13, 19740, Note_on_c, 9, 54, 0
13, 19740, Note_on_c, 9, 54, 125
13, 19800, Note_on_c, 9, 54, 0
13, 19800, Note_on_c, 9, 54, 125
13, 19860, Note_on_c, 9, 54, 0
13, 19860, Note_on_c, 9, 54, 125
13, 19920, Note_on_c, 9, 54, 0
13, 19920, Note_on_c, 9, 54, 125
13, 19980, Note_on_c, 9, 54, 0
13, 19980, Note_on_c, 9, 54, 125
13, 20040, Note_on_c, 9, 54, 0
13, 20040, Note_on_c, 9, 54, 125
13, 20100, Note_on_c, 9, 54, 0
13, 20100, Note_on_c, 9, 54, 125
13, 20160, Note_on_c, 9, 54, 0
13, 20160, Note_on_c, 9, 54, 125
13, 20220, Note_on_c, 9, 54, 0
13, 20220, Note_on_c, 9, 54, 125
13, 20280, Note_on_c, 9, 54, 0
13, 20280, Note_on_c, 9, 54, 125
13, 20340, Note_on_c, 9, 54, 0
13, 20340, Note_on_c, 9, 54, 125
13, 20400, Note_on_c, 9, 54, 0
13, 20400, Note_on_c, 9, 54, 125
13, 20460, Note_on_c, 9, 54, 0
13, 20460, Note_on_c, 9, 54, 125
13, 20520, Note_on_c, 9, 54, 0
13, 20520, Note_on_c, 9, 54, 125
13, 20580, Note_on_c, 9, 54, 0
13, 20580, Note_on_c, 9, 54, 125
13, 20640, Note_on_c, 9, 54, 0
13, 20640, Note_on_c, 9, 54, 125
13, 20700, Note_on_c, 9, 54, 0
13, 20700, Note_on_c, 9, 54, 125
13, 20760, Note_on_c, 9, 54, 0
13, 20760, Note_on_c, 9, 54, 125
13, 20820, Note_on_c, 9, 54, 0
13, 20820, Note_on_c, 9, 54, 125
13, 20880, Note_on_c, 9, 54, 0
13, 20880, Note_on_c, 9, 54, 125
13, 20940, Note_on_c, 9, 54, 0
13, 20940, Note_on_c, 9, 54, 125
13, 21000, Note_on_c, 9, 54, 0
13, 21000, Note_on_c, 9, 54, 125
13, 21060, Note_on_c, 9, 54, 0
13, 21060, Note_on_c, 9, 54, 125
13, 21120, Note_on_c, 9, 54, 0
13, 21120, Note_on_c, 9, 54, 125
13, 21180, Note_on_c, 9, 54, 0
13, 21180, Note_on_c, 9, 54, 125
13, 21240, Note_on_c, 9, 54, 0
13, 21240, Note_on_c, 9, 54, 125
13, 21300, Note_on_c, 9, 54, 0
13, 21300, Note_on_c, 9, 54, 125
13, 21360, Note_on_c, 9, 54, 0
13, 21360, Note_on_c, 9, 54, 125
13, 21420, Note_on_c, 9, 54, 0
13, 21420, Note_on_c, 9, 54, 125
13, 21480, Note_on_c, 9, 54, 0
13, 21480, Note_on_c, 9, 54, 125
13, 21540, Note_on_c, 9, 54, 0
13, 21540, Note_on_c, 9, 54, 125
13, 21600, Note_on_c, 9, 54, 0
13, 21600, Note_on_c, 9, 54, 125
13, 21660, Note_on_c, 9, 54, 0
13, 21660, Note_on_c, 9, 54, 125
13, 21720, Note_on_c, 9, 54, 0
13, 21720, Note_on_c, 9, 54, 125
13, 21780, Note_on_c, 9, 54, 0
13, 21780, Note_on_c, 9, 54, 125
13, 21840, Note_on_c, 9, 54, 0
13, 21840, Note_on_c, 9, 54, 125
13, 21900, Note_on_c, 9, 54, 0
13, 21900, Note_on_c, 9, 54, 125
13, 21960, Note_on_c, 9, 54, 0
13, 21960, Note_on_c, 9, 54, 125
13, 22020, Note_on_c, 9, 54, 0
13, 22020, Note_on_c, 9, 54, 125
13, 22080, Note_on_c, 9, 54, 0
13, 22080, Note_on_c, 9, 54, 125
13, 22140, Note_on_c, 9, 54, 0
13, 22140, Note_on_c, 9, 54, 125
13, 22200, Note_on_c, 9, 54, 0
13, 22200, Note_on_c, 9, 54, 125
13, 22260, Note_on_c, 9, 54, 0
13, 22260, Note_on_c, 9, 54, 125
13, 22320, Note_on_c, 9, 54, 0
13, 22320, Note_on_c, 9, 54, 125
13, 22380, Note_on_c, 9, 54, 0
13, 22380, Note_on_c, 9, 54, 125
13, 22440, Note_on_c, 9, 54, 0
13, 22440, Note_on_c, 9, 54, 125
13, 22500, Note_on_c, 9, 54, 0
13, 22500, Note_on_c, 9, 54, 125
13, 22560, Note_on_c, 9, 54, 0
13, 22560, Note_on_c, 9, 54, 125
13, 22620, Note_on_c, 9, 54, 0
13, 22620, Note_on_c, 9, 54, 125
13, 22680, Note_on_c, 9, 54, 0
13, 22680, Note_on_c, 9, 54, 125
13, 22740, Note_on_c, 9, 54, 0
13, 22740, Note_on_c, 9, 54, 125
13, 22800, Note_on_c, 9, 54, 0
13, 22800, Note_on_c, 9, 54, 125
13, 22860, Note_on_c, 9, 54, 0
13, 22860, Note_on_c, 9, 54, 125
13, 22920, Note_on_c, 9, 54, 0
13, 22920, Note_on_c, 9, 54, 125
13, 22980, Note_on_c, 9, 54, 0
13, 22980, Note_on_c, 9, 54, 125
13, 23040, Note_on_c, 9, 54, 0
13, 23040, Note_on_c, 9, 54, 125
13, 23100, Note_on_c, 9, 54, 0
13, 23100, Note_on_c, 9, 54, 125
13, 23160, Note_on_c, 9, 54, 0
13, 23160, Note_on_c, 9, 54, 125
13, 23220, Note_on_c, 9, 54, 0
13, 23220, Note_on_c, 9, 54, 125
13, 23280, Note_on_c, 9, 54, 0
13, 23280, Note_on_c, 9, 54, 125
13, 23340, Note_on_c, 9, 54, 0
13, 23340, Note_on_c, 9, 54, 125
13, 23400, Note_on_c, 9, 54, 0
13, 23400, Note_on_c, 9, 54, 125
13, 23460, Note_on_c, 9, 54, 0
13, 23460, Note_on_c, 9, 54, 125
13, 23520, Note_on_c, 9, 54, 0
13, 23520, Note_on_c, 9, 54, 125
13, 23580, Note_on_c, 9, 54, 0
13, 23580, Note_on_c, 9, 54, 125
13, 23640, Note_on_c, 9, 54, 0
13, 23640, Note_on_c, 9, 54, 125
13, 23700, Note_on_c, 9, 54, 0
13, 23700, Note_on_c, 9, 54, 125
13, 23760, Note_on_c, 9, 54, 0
13, 23760, Note_on_c, 9, 54, 125
13, 23820, Note_on_c, 9, 54, 0
13, 23820, Note_on_c, 9, 54, 125
13, 23880, Note_on_c, 9, 54, 0
13, 23880, Note_on_c, 9, 54, 125
13, 23940, Note_on_c, 9, 54, 0
13, 23940, Note_on_c, 9, 54, 125
13, 24000, Note_on_c, 9, 54, 0
13, 24000, Note_on_c, 9, 54, 125
13, 24060, Note_on_c, 9, 54, 0
13, 24060, Note_on_c, 9, 54, 125
13, 24120, Note_on_c, 9, 54, 0
13, 24120, Note_on_c, 9, 54, 125
13, 24180, Note_on_c, 9, 54, 0
13, 24180, Note_on_c, 9, 54, 125
13, 24240, Note_on_c, 9, 54, 0
13, 24240, Note_on_c, 9, 54, 125
13, 24300, Note_on_c, 9, 54, 0
13, 24300, Note_on_c, 9, 54, 125
13, 24360, Note_on_c, 9, 54, 0
13, 24360, Note_on_c, 9, 54, 125
13, 24420, Note_on_c, 9, 54, 0
13, 24420, Note_on_c, 9, 54, 125
13, 24480, Note_on_c, 9, 54, 0
13, 24480, Note_on_c, 9, 54, 125
13, 24540, Note_on_c, 9, 54, 0
13, 24540, Note_on_c, 9, 54, 125
13, 24600, Note_on_c, 9, 54, 0
13, 24600, Note_on_c, 9, 54, 125
13, 24660, Note_on_c, 9, 54, 0
13, 24660, Note_on_c, 9, 54, 125
13, 24720, Note_on_c, 9, 54, 0
13, 24720, Note_on_c, 9, 54, 125
13, 24780, Note_on_c, 9, 54, 0
13, 24780, Note_on_c, 9, 54, 125
13, 24840, Note_on_c, 9, 54, 0
13, 24840, Note_on_c, 9, 54, 125
13, 24900, Note_on_c, 9, 54, 0
13, 24900, Note_on_c, 9, 54, 125
13, 24960, Note_on_c, 9, 54, 0
13, 24960, Note_on_c, 9, 54, 125
13, 25020, Note_on_c, 9, 54, 0
13, 25020, Note_on_c, 9, 54, 125
13, 25080, Note_on_c, 9, 54, 0
13, 25080, Note_on_c, 9, 54, 125
13, 25140, Note_on_c, 9, 54, 0
13, 25140, Note_on_c, 9, 54, 125
13, 25200, Note_on_c, 9, 54, 0
13, 25200, Note_on_c, 9, 54, 125
13, 25260, Note_on_c, 9, 54, 0
13, 25260, Note_on_c, 9, 54, 125
13, 25320, Note_on_c, 9, 54, 0
13, 25320, Note_on_c, 9, 54, 125
13, 25380, Note_on_c, 9, 54, 0
13, 25380, Note_on_c, 9, 54, 125
13, 25440, Note_on_c, 9, 54, 0
13, 25440, Note_on_c, 9, 54, 125
13, 25500, Note_on_c, 9, 54, 0
13, 25500, Note_on_c, 9, 54, 125
13, 25560, Note_on_c, 9, 54, 0
13, 25560, Note_on_c, 9, 54, 125
13, 25620, Note_on_c, 9, 54, 0
13, 25620, Note_on_c, 9, 54, 125
13, 25680, Note_on_c, 9, 54, 0
13, 25680, Note_on_c, 9, 54, 125
13, 25740, Note_on_c, 9, 54, 0
13, 25740, Note_on_c, 9, 54, 125
13, 25800, Note_on_c, 9, 54, 0
13, 25800, Note_on_c, 9, 54, 125
13, 25860, Note_on_c, 9, 54, 0
13, 25860, Note_on_c, 9, 54, 125
13, 25920, Note_on_c, 9, 54, 0
13, 25920, Note_on_c, 9, 54, 125
13, 25980, Note_on_c, 9, 54, 0
13, 25980, Note_on_c, 9, 54, 125
13, 26040, Note_on_c, 9, 54, 0
13, 26040, Note_on_c, 9, 54, 125
13, 26100, Note_on_c, 9, 54, 0
13, 26100, Note_on_c, 9, 54, 125
13, 26160, Note_on_c, 9, 54, 0
13, 26160, Note_on_c, 9, 54, 125
13, 26220, Note_on_c, 9, 54, 0
13, 26220, Note_on_c, 9, 54, 125
13, 26280, Note_on_c, 9, 54, 0
13, 26280, Note_on_c, 9, 54, 125
13, 26340, Note_on_c, 9, 54, 0
13, 26340, Note_on_c, 9, 54, 125
13, 26400, Note_on_c, 9, 54, 0
13, 26400, Note_on_c, 9, 54, 125
13, 26460, Note_on_c, 9, 54, 0
13, 26460, Note_on_c, 9, 54, 125
13, 26520, Note_on_c, 9, 54, 0
13, 26520, Note_on_c, 9, 54, 125
13, 26580, Note_on_c, 9, 54, 0
13, 26580, Note_on_c, 9, 54, 125
13, 26640, Note_on_c, 9, 54, 0
13, 26640, Note_on_c, 9, 54, 125
13, 26700, Note_on_c, 9, 54, 0
13, 26700, Note_on_c, 9, 54, 125
13, 26760, Note_on_c, 9, 54, 0
13, 26760, Note_on_c, 9, 54, 125
13, 26820, Note_on_c, 9, 54, 0
13, 26820, Note_on_c, 9, 54, 125
13, 26880, Note_on_c, 9, 54, 0
13, 26880, Note_on_c, 9, 54, 125
13, 26940, Note_on_c, 9, 54, 0
13, 26940, Note_on_c, 9, 54, 125
13, 27000, Note_on_c, 9, 54, 0
13, 27000, Note_on_c, 9, 54, 125
13, 27060, Note_on_c, 9, 54, 0
13, 27060, Note_on_c, 9, 54, 125
13, 27120, Note_on_c, 9, 54, 0
13, 27120, Note_on_c, 9, 54, 125
13, 27180, Note_on_c, 9, 54, 0
13, 27180, Note_on_c, 9, 54, 125
13, 27240, Note_on_c, 9, 54, 0
13, 27240, Note_on_c, 9, 54, 125
13, 27300, Note_on_c, 9, 54, 0
13, 27300, Note_on_c, 9, 54, 125
13, 27360, Note_on_c, 9, 54, 0
13, 27360, Note_on_c, 9, 54, 125
13, 27420, Note_on_c, 9, 54, 0
13, 27420, Note_on_c, 9, 54, 125
13, 27480, Note_on_c, 9, 54, 0
13, 27480, Note_on_c, 9, 54, 125
13, 27540, Note_on_c, 9, 54, 0
13, 27540, Note_on_c, 9, 54, 125
13, 27600, Note_on_c, 9, 54, 0
13, 27600, Note_on_c, 9, 54, 125
13, 27660, Note_on_c, 9, 54, 0
13, 27660, Note_on_c, 9, 54, 125
13, 27720, Note_on_c, 9, 54, 0
13, 27720, Note_on_c, 9, 54, 125
13, 27780, Note_on_c, 9, 54, 0
13, 27780, Note_on_c, 9, 54, 125
13, 27840, Note_on_c, 9, 54, 0
13, 27840, Note_on_c, 9, 54, 125
13, 27900, Note_on_c, 9, 54, 0
13, 27900, Note_on_c, 9, 54, 125
13, 27960, Note_on_c, 9, 54, 0
13, 27960, Note_on_c, 9, 54, 125
13, 28020, Note_on_c, 9, 54, 0
13, 28020, Note_on_c, 9, 54, 125
13, 28080, Note_on_c, 9, 54, 0
13, 28080, Note_on_c, 9, 54, 125
13, 28140, Note_on_c, 9, 54, 0
13, 28140, Note_on_c, 9, 54, 125
13, 28200, Note_on_c, 9, 54, 0
13, 28200, Note_on_c, 9, 54, 125
13, 28260, Note_on_c, 9, 54, 0
13, 28260, Note_on_c, 9, 54, 125
13, 28320, Note_on_c, 9, 54, 0
13, 28320, Note_on_c, 9, 54, 125
13, 28380, Note_on_c, 9, 54, 0
13, 28380, Note_on_c, 9, 54, 125
13, 28440, Note_on_c, 9, 54, 0
13, 28440, Note_on_c, 9, 54, 125
13, 28500, Note_on_c, 9, 54, 0
13, 28500, Note_on_c, 9, 54, 125
13, 28560, Note_on_c, 9, 54, 0
13, 28560, Note_on_c, 9, 54, 125
13, 28620, Note_on_c, 9, 54, 0
13, 28620, Note_on_c, 9, 54, 125
13, 28680, Note_on_c, 9, 54, 0
13, 28680, Note_on_c, 9, 54, 125
13, 28740, Note_on_c, 9, 54, 0
13, 28740, Note_on_c, 9, 54, 125
13, 28800, Note_on_c, 9, 54, 0
13, 28800, Note_on_c, 9, 54, 125
13, 28860, Note_on_c, 9, 54, 0
13, 28860, Note_on_c, 9, 54, 125
13, 28920, Note_on_c, 9, 54, 0
13, 28920, Note_on_c, 9, 54, 125
13, 28980, Note_on_c, 9, 54, 0
13, 28980, Note_on_c, 9, 54, 125
13, 29040, Note_on_c, 9, 54, 0
13, 29040, Note_on_c, 9, 54, 125
13, 29100, Note_on_c, 9, 54, 0
13, 29100, Note_on_c, 9, 54, 125
13, 29160, Note_on_c, 9, 54, 0
13, 29160, Note_on_c, 9, 54, 125
13, 29220, Note_on_c, 9, 54, 0
13, 29220, Note_on_c, 9, 54, 125
13, 29280, Note_on_c, 9, 54, 0
13, 29280, Note_on_c, 9, 54, 125
13, 29340, Note_on_c, 9, 54, 0
13, 29340, Note_on_c, 9, 54, 125
13, 29400, Note_on_c, 9, 54, 0
13, 29400, Note_on_c, 9, 54, 125
13, 29460, Note_on_c, 9, 54, 0
13, 29460, Note_on_c, 9, 54, 125
13, 29520, Note_on_c, 9, 54, 0
13, 29520, Note_on_c, 9, 54, 125
13, 29580, Note_on_c, 9, 54, 0
13, 29580, Note_on_c, 9, 54, 125
13, 29640, Note_on_c, 9, 54, 0
13, 29640, Note_on_c, 9, 54, 125
13, 29700, Note_on_c, 9, 54, 0
13, 29700, Note_on_c, 9, 54, 125
13, 29760, Note_on_c, 9, 54, 0
13, 29760, Note_on_c, 9, 54, 125
13, 29820, Note_on_c, 9, 54, 0
13, 29820, Note_on_c, 9, 54, 125
13, 29880, Note_on_c, 9, 54, 0
13, 29880, Note_on_c, 9, 54, 125
13, 29940, Note_on_c, 9, 54, 0
13, 29940, Note_on_c, 9, 54, 125
13, 30000, Note_on_c, 9, 54, 0
13, 30000, Note_on_c, 9, 54, 125
13, 30060, Note_on_c, 9, 54, 0
13, 30060, Note_on_c, 9, 54, 125
13, 30120, Note_on_c, 9, 54, 0
13, 30120, Note_on_c, 9, 54, 125
13, 30180, Note_on_c, 9, 54, 0
13, 30180, Note_on_c, 9, 54, 125
13, 30240, Note_on_c, 9, 54, 0
13, 30240, Note_on_c, 9, 54, 125
13, 30300, Note_on_c, 9, 54, 0
13, 30300, Note_on_c, 9, 54, 125
13, 30360, Note_on_c, 9, 54, 0
13, 30360, Note_on_c, 9, 54, 125
13, 30420, Note_on_c, 9, 54, 0
13, 30420, Note_on_c, 9, 54, 125
13, 30480, Note_on_c, 9, 54, 0
13, 30480, Note_on_c, 9, 54, 125
13, 30540, Note_on_c, 9, 54, 0
13, 30540, Note_on_c, 9, 54, 125
13, 30600, Note_on_c, 9, 54, 0
13, 30600, Note_on_c, 9, 54, 125
13, 30660, Note_on_c, 9, 54, 0
13, 30660, Note_on_c, 9, 54, 125
13, 30720, Note_on_c, 9, 54, 0
13, 30720, Note_on_c, 9, 54, 125
13, 30780, Note_on_c, 9, 54, 0
13, 30780, Note_on_c, 9, 54, 125
13, 30840, Note_on_c, 9, 54, 0
13, 30840, Note_on_c, 9, 54, 125
13, 30900, Note_on_c, 9, 54, 0
13, 30900, Note_on_c, 9, 54, 125
13, 30960, Note_on_c, 9, 54, 0
13, 30960, Note_on_c, 9, 54, 125
13, 31020, Note_on_c, 9, 54, 0
13, 31020, Note_on_c, 9, 54, 125
13, 31080, Note_on_c, 9, 54, 0
13, 31080, Note_on_c, 9, 54, 125
13, 31140, Note_on_c, 9, 54, 0
13, 31140, Note_on_c, 9, 54, 125
13, 31200, Note_on_c, 9, 54, 0
13, 31200, Note_on_c, 9, 54, 125
13, 31260, Note_on_c, 9, 54, 0
13, 31260, Note_on_c, 9, 54, 125
13, 31320, Note_on_c, 9, 54, 0
13, 31320, Note_on_c, 9, 54, 125
13, 31380, Note_on_c, 9, 54, 0
13, 31380, Note_on_c, 9, 54, 125
13, 31440, Note_on_c, 9, 54, 0
13, 31440, Note_on_c, 9, 54, 125
13, 31500, Note_on_c, 9, 54, 0
13, 31500, Note_on_c, 9, 54, 125
13, 31560, Note_on_c, 9, 54, 0
13, 31560, Note_on_c, 9, 54, 125
13, 31620, Note_on_c, 9, 54, 0
13, 31620, Note_on_c, 9, 54, 125
13, 31680, Note_on_c, 9, 54, 0
13, 31680, Note_on_c, 9, 54, 125
13, 31740, Note_on_c, 9, 54, 0
13, 31740, Note_on_c, 9, 54, 125
13, 31800, Note_on_c, 9, 54, 0
13, 31800, Note_on_c, 9, 54, 125
13, 31860, Note_on_c, 9, 54, 0
13, 31860, Note_on_c, 9, 54, 125
13, 31920, Note_on_c, 9, 54, 0
13, 31920, Note_on_c, 9, 54, 125
13, 31980, Note_on_c, 9, 54, 0
13, 31980, Note_on_c, 9, 54, 125
13, 32040, Note_on_c, 9, 54, 0
13, 32040, Note_on_c, 9, 54, 125
13, 32100, Note_on_c, 9, 54, 0
13, 32100, Note_on_c, 9, 54, 125
13, 32160, Note_on_c, 9, 54, 0
13, 32160, Note_on_c, 9, 54, 125
13, 32220, Note_on_c, 9, 54, 0
13, 32220, Note_on_c, 9, 54, 125
13, 32280, Note_on_c, 9, 54, 0
13, 32280, Note_on_c, 9, 54, 125
13, 32340, Note_on_c, 9, 54, 0
13, 32340, Note_on_c, 9, 54, 125
13, 32400, Note_on_c, 9, 54, 0
13, 32400, Note_on_c, 9, 54, 125
13, 32460, Note_on_c, 9, 54, 0
13, 32460, Note_on_c, 9, 54, 125
13, 32520, Note_on_c, 9, 54, 0
13, 32520, Note_on_c, 9, 54, 125
13, 32580, Note_on_c, 9, 54, 0
13, 32580, Note_on_c, 9, 54, 125
13, 32640, Note_on_c, 9, 54, 0
13, 32640, Note_on_c, 9, 54, 125
13, 32700, Note_on_c, 9, 54, 0
13, 32700, Note_on_c, 9, 54, 125
13, 32760, Note_on_c, 9, 54, 0
13, 32760, Note_on_c, 9, 54, 125
13, 32820, Note_on_c, 9, 54, 0
13, 32820, Note_on_c, 9, 54, 125
13, 32880, Note_on_c, 9, 54, 0
13, 32880, Note_on_c, 9, 54, 125
13, 32940, Note_on_c, 9, 54, 0
13, 32940, Note_on_c, 9, 54, 125
13, 33000, Note_on_c, 9, 54, 0
13, 33000, Note_on_c, 9, 54, 125
13, 33060, Note_on_c, 9, 54, 0
13, 33060, Note_on_c, 9, 54, 125
13, 33120, Note_on_c, 9, 54, 0
13, 33120, Note_on_c, 9, 54, 125
13, 33180, Note_on_c, 9, 54, 0
13, 33180, Note_on_c, 9, 54, 125
13, 33240, Note_on_c, 9, 54, 0
13, 33240, Note_on_c, 9, 54, 125
13, 33300, Note_on_c, 9, 54, 0
13, 33300, Note_on_c, 9, 54, 125
13, 33360, Note_on_c, 9, 54, 0
13, 33360, Note_on_c, 9, 54, 125
13, 33420, Note_on_c, 9, 54, 0
13, 33420, Note_on_c, 9, 54, 125
13, 33480, Note_on_c, 9, 54, 0
13, 33480, Note_on_c, 9, 54, 125
13, 33540, Note_on_c, 9, 54, 0
13, 33540, Note_on_c, 9, 54, 125
13, 33600, Note_on_c, 9, 54, 0
13, 33600, Note_on_c, 9, 54, 125
13, 33660, Note_on_c, 9, 54, 0
13, 33660, Note_on_c, 9, 54, 125
13, 33720, Note_on_c, 9, 54, 0
13, 33720, Note_on_c, 9, 54, 125
13, 33780, Note_on_c, 9, 54, 0
13, 33780, Note_on_c, 9, 54, 125
13, 33840, Note_on_c, 9, 54, 0
13, 33840, Note_on_c, 9, 54, 125
13, 33900, Note_on_c, 9, 54, 0
13, 33900, Note_on_c, 9, 54, 125
13, 33960, Note_on_c, 9, 54, 0
13, 33960, Note_on_c, 9, 54, 125
13, 34020, Note_on_c, 9, 54, 0
13, 34020, Note_on_c, 9, 54, 125
13, 34080, Note_on_c, 9, 54, 0
13, 34080, Note_on_c, 9, 54, 125
13, 34140, Note_on_c, 9, 54, 0
13, 34140, Note_on_c, 9, 54, 125
13, 34200, Note_on_c, 9, 54, 0
13, 34200, Note_on_c, 9, 54, 125
13, 34260, Note_on_c, 9, 54, 0
13, 34260, Note_on_c, 9, 54, 125
13, 34320, Note_on_c, 9, 54, 0
13, 34320, Note_on_c, 9, 54, 125
13, 34380, Note_on_c, 9, 54, 0
13, 34380, Note_on_c, 9, 54, 125
13, 34440, Note_on_c, 9, 54, 0
13, 34440, Note_on_c, 9, 54, 125
13, 34500, Note_on_c, 9, 54, 0
13, 34500, Note_on_c, 9, 54, 125
13, 34560, Note_on_c, 9, 54, 0
13, 34560, Note_on_c, 9, 54, 125
13, 34620, Note_on_c, 9, 54, 0
13, 34620, Note_on_c, 9, 54, 125
13, 34680, Note_on_c, 9, 54, 0
13, 34680, Note_on_c, 9, 54, 125
13, 34740, Note_on_c, 9, 54, 0
13, 34740, Note_on_c, 9, 54, 125
13, 34800, Note_on_c, 9, 54, 0
13, 34800, Note_on_c, 9, 54, 125
13, 34860, Note_on_c, 9, 54, 0
13, 34860, Note_on_c, 9, 54, 125
13, 34920, Note_on_c, 9, 54, 0
13, 34920, Note_on_c, 9, 54, 125
13, 34980, Note_on_c, 9, 54, 0
13, 34980, Note_on_c, 9, 54, 125
13, 35040, Note_on_c, 9, 54, 0
13, 35040, Note_on_c, 9, 54, 125
13, 35100, Note_on_c, 9, 54, 0
13, 35100, Note_on_c, 9, 54, 125
13, 35160, Note_on_c, 9, 54, 0
13, 35160, Note_on_c, 9, 54, 125
13, 35220, Note_on_c, 9, 54, 0
13, 35220, Note_on_c, 9, 54, 125
13, 35280, Note_on_c, 9, 54, 0
13, 35280, Note_on_c, 9, 54, 125
13, 35340, Note_on_c, 9, 54, 0
13, 35340, Note_on_c, 9, 54, 125
13, 35400, Note_on_c, 9, 54, 0
13, 35400, Note_on_c, 9, 54, 125
13, 35460, Note_on_c, 9, 54, 0
13, 35460, Note_on_c, 9, 54, 125
13, 35520, Note_on_c, 9, 54, 0
13, 35520, Note_on_c, 9, 54, 125
13, 35580, Note_on_c, 9, 54, 0
13, 35580, Note_on_c, 9, 54, 121
13, 35640, Note_on_c, 9, 54, 0
13, 35640, Note_on_c, 9, 54, 117
13, 35700, Note_on_c, 9, 54, 0
13, 35700, Note_on_c, 9, 54, 113
13, 35760, Note_on_c, 9, 54, 0
13, 35760, Note_on_c, 9, 54, 110
13, 35820, Note_on_c, 9, 54, 0
13, 35820, Note_on_c, 9, 54, 106
13, 35880, Note_on_c, 9, 54, 0
13, 35880, Note_on_c, 9, 54, 102
13, 35940, Note_on_c, 9, 54, 0
13, 35940, Note_on_c, 9, 54, 98
13, 36000, Note_on_c, 9, 54, 0
13, 36000, Note_on_c, 9, 54, 93
13, 36060, Note_on_c, 9, 54, 0
13, 36060, Note_on_c, 9, 54, 90
13, 36120, Note_on_c, 9, 54, 0
13, 36120, Note_on_c, 9, 54, 86
13, 36180, Note_on_c, 9, 54, 0
13, 36180, Note_on_c, 9, 54, 82
13, 36240, Note_on_c, 9, 54, 0
13, 36240, Note_on_c, 9, 54, 78
13, 36300, Note_on_c, 9, 54, 0
13, 36300, Note_on_c, 9, 54, 75
13, 36360, Note_on_c, 9, 54, 0
13, 36360, Note_on_c, 9, 54, 71
13, 36420, Note_on_c, 9, 54, 0
13, 36420, Note_on_c, 9, 54, 67
13, 36480, Note_on_c, 9, 54, 0
13, 36480, Note_on_c, 9, 54, 62
13, 36540, Note_on_c, 9, 54, 0
13, 36540, Note_on_c, 9, 54, 58
13, 36600, Note_on_c, 9, 54, 0
13, 36600, Note_on_c, 9, 54, 55
13, 36660, Note_on_c, 9, 54, 0
13, 36660, Note_on_c, 9, 54, 51
13, 36720, Note_on_c, 9, 54, 0
13, 36720, Note_on_c, 9, 54, 47
13, 36780, Note_on_c, 9, 54, 0
13, 36780, Note_on_c, 9, 54, 43
13, 36840, Note_on_c, 9, 54, 0
13, 36840, Note_on_c, 9, 54, 40
13, 36900, Note_on_c, 9, 54, 0
13, 36900, Note_on_c, 9, 54, 36
13, 36960, Note_on_c, 9, 54, 0
13, 36960, Note_on_c, 9, 54, 31
13, 37020, Note_on_c, 9, 54, 0
13, 37020, Note_on_c, 9, 54, 27
13, 37080, Note_on_c, 9, 54, 0
13, 37080, Note_on_c, 9, 54, 23
13, 37140, Note_on_c, 9, 54, 0
13, 37140, Note_on_c, 9, 54, 20
13, 37200, Note_on_c, 9, 54, 0
13, 37200, Note_on_c, 9, 54, 16
13, 37260, Note_on_c, 9, 54, 0
13, 37260, Note_on_c, 9, 54, 12
13, 37320, Note_on_c, 9, 54, 0
13, 37320, Note_on_c, 9, 54, 8
13, 37380, Note_on_c, 9, 54, 0
13, 37380, Note_on_c, 9, 54, 5
13, 37440, Note_on_c, 9, 54, 0
13, 37500, Note_on_c, 9, 54, 0
13, 37500, End_track
14, 0, Start_track
14, 0, MIDI_port, 0
14, 0, Control_c, 9, 7, 125
14, 0, Control_c, 9, 10, 64
14, 2400, Note_on_c, 9, 36, 125
14, 2520, Note_on_c, 9, 36, 0
14, 2520, Note_on_c, 9, 36, 125
14, 2640, Note_on_c, 9, 36, 0
14, 2640, Note_on_c, 9, 36, 125
14, 2760, Note_on_c, 9, 36, 0
14, 2760, Note_on_c, 9, 36, 125
14, 2880, Note_on_c, 9, 36, 0
14, 2880, Note_on_c, 9, 36, 125
14, 3000, Note_on_c, 9, 36, 0
14, 3000, Note_on_c, 9, 36, 125
14, 3120, Note_on_c, 9, 36, 0
14, 3120, Note_on_c, 9, 36, 125
14, 3240, Note_on_c, 9, 36, 0
14, 3240, Note_on_c, 9, 36, 125
14, 3360, Note_on_c, 9, 36, 0
14, 3360, Note_on_c, 9, 36, 125
14, 3480, Note_on_c, 9, 36, 0
14, 3480, Note_on_c, 9, 36, 125
14, 3600, Note_on_c, 9, 36, 0
14, 3600, Note_on_c, 9, 36, 125
14, 3720, Note_on_c, 9, 36, 0
14, 3720, Note_on_c, 9, 36, 125
14, 3840, Note_on_c, 9, 36, 0
14, 3840, Note_on_c, 9, 36, 125
14, 3960, Note_on_c, 9, 36, 0
14, 3960, Note_on_c, 9, 36, 125
14, 4080, Note_on_c, 9, 36, 0
14, 4080, Note_on_c, 9, 36, 125
14, 4200, Note_on_c, 9, 36, 0
14, 4200, Note_on_c, 9, 36, 125
14, 4320, Note_on_c, 9, 36, 0
14, 4320, Note_on_c, 9, 36, 125
14, 4440, Note_on_c, 9, 36, 0
14, 4440, Note_on_c, 9, 36, 125
14, 4560, Note_on_c, 9, 36, 0
14, 4560, Note_on_c, 9, 36, 125
14, 4680, Note_on_c, 9, 36, 0
14, 4680, Note_on_c, 9, 36, 125
14, 4800, Note_on_c, 9, 36, 0
14, 4800, Note_on_c, 9, 36, 125
14, 4920, Note_on_c, 9, 36, 0
14, 4920, Note_on_c, 9, 36, 125
14, 5040, Note_on_c, 9, 36, 0
14, 5040, Note_on_c, 9, 36, 125
14, 5160, Note_on_c, 9, 36, 0
14, 5160, Note_on_c, 9, 36, 125
14, 5280, Note_on_c, 9, 36, 0
14, 5280, Note_on_c, 9, 36, 125
14, 5400, Note_on_c, 9, 36, 0
14, 5400, Note_on_c, 9, 36, 125
14, 5520, Note_on_c, 9, 36, 0
14, 5520, Note_on_c, 9, 36, 125
14, 5640, Note_on_c, 9, 36, 0
14, 5640, Note_on_c, 9, 36, 125
14, 5760, Note_on_c, 9, 36, 0
14, 5760, Note_on_c, 9, 36, 125
14, 5880, Note_on_c, 9, 36, 0
14, 5880, Note_on_c, 9, 36, 125
14, 6000, Note_on_c, 9, 36, 0
14, 6000, Note_on_c, 9, 36, 125
14, 6120, Note_on_c, 9, 36, 0
14, 6120, Note_on_c, 9, 36, 125
14, 6240, Note_on_c, 9, 36, 0
14, 6240, Note_on_c, 9, 36, 125
14, 6360, Note_on_c, 9, 36, 0
14, 6360, Note_on_c, 9, 36, 125
14, 6480, Note_on_c, 9, 36, 0
14, 6480, Note_on_c, 9, 36, 125
14, 6600, Note_on_c, 9, 36, 0
14, 6600, Note_on_c, 9, 36, 125
14, 6720, Note_on_c, 9, 36, 0
14, 6720, Note_on_c, 9, 36, 125
14, 6840, Note_on_c, 9, 36, 0
14, 6840, Note_on_c, 9, 36, 125
14, 6960, Note_on_c, 9, 36, 0
14, 6960, Note_on_c, 9, 36, 125
14, 7080, Note_on_c, 9, 36, 0
14, 7080, Note_on_c, 9, 36, 125
14, 7200, Note_on_c, 9, 36, 0
14, 7200, Note_on_c, 9, 36, 125
14, 7320, Note_on_c, 9, 36, 0
14, 7320, Note_on_c, 9, 36, 125
14, 7440, Note_on_c, 9, 36, 0
14, 7440, Note_on_c, 9, 36, 125
14, 7560, Note_on_c, 9, 36, 0
14, 7560, Note_on_c, 9, 36, 125
14, 7680, Note_on_c, 9, 36, 0
14, 7680, Note_on_c, 9, 36, 125
14, 7800, Note_on_c, 9, 36, 0
14, 7800, Note_on_c, 9, 36, 125
14, 7920, Note_on_c, 9, 36, 0
14, 7920, Note_on_c, 9, 36, 125
14, 8040, Note_on_c, 9, 36, 0
14, 8040, Note_on_c, 9, 36, 125
14, 8160, Note_on_c, 9, 36, 0
14, 8160, Note_on_c, 9, 36, 125
14, 8280, Note_on_c, 9, 36, 0
14, 8280, Note_on_c, 9, 36, 125
14, 8400, Note_on_c, 9, 36, 0
14, 8400, Note_on_c, 9, 36, 125
14, 8520, Note_on_c, 9, 36, 0
14, 8520, Note_on_c, 9, 36, 125
14, 8640, Note_on_c, 9, 36, 0
14, 8640, Note_on_c, 9, 36, 125
14, 8760, Note_on_c, 9, 36, 0
14, 8760, Note_on_c, 9, 36, 125
14, 8880, Note_on_c, 9, 36, 0
14, 8880, Note_on_c, 9, 36, 125
14, 9000, Note_on_c, 9, 36, 0
14, 9000, Note_on_c, 9, 36, 125
14, 9120, Note_on_c, 9, 36, 0
14, 9120, Note_on_c, 9, 36, 125
14, 9240, Note_on_c, 9, 36, 0
14, 9240, Note_on_c, 9, 36, 125
14, 9360, Note_on_c, 9, 36, 0
14, 9360, Note_on_c, 9, 36, 125
14, 9480, Note_on_c, 9, 36, 0
14, 9480, Note_on_c, 9, 36, 125
14, 9600, Note_on_c, 9, 36, 0
14, 9600, Note_on_c, 9, 36, 125
14, 9720, Note_on_c, 9, 36, 0
14, 9720, Note_on_c, 9, 36, 125
14, 9840, Note_on_c, 9, 36, 0
14, 9840, Note_on_c, 9, 36, 125
14, 9960, Note_on_c, 9, 36, 0
14, 9960, Note_on_c, 9, 36, 125
14, 10080, Note_on_c, 9, 36, 0
14, 10080, Note_on_c, 9, 36, 125
14, 10200, Note_on_c, 9, 36, 0
14, 10200, Note_on_c, 9, 36, 125
14, 10320, Note_on_c, 9, 36, 0
14, 10320, Note_on_c, 9, 36, 125
14, 10440, Note_on_c, 9, 36, 0
14, 10440, Note_on_c, 9, 36, 125
14, 10560, Note_on_c, 9, 36, 0
14, 10560, Note_on_c, 9, 36, 125
14, 10680, Note_on_c, 9, 36, 0
14, 10680, Note_on_c, 9, 36, 125
14, 10800, Note_on_c, 9, 36, 0
14, 10800, Note_on_c, 9, 36, 125
14, 10920, Note_on_c, 9, 36, 0
14, 10920, Note_on_c, 9, 36, 125
14, 11040, Note_on_c, 9, 36, 0
14, 11040, Note_on_c, 9, 36, 125
14, 11160, Note_on_c, 9, 36, 0
14, 11160, Note_on_c, 9, 36, 125
14, 11280, Note_on_c, 9, 36, 0
14, 11280, Note_on_c, 9, 36, 125
14, 11400, Note_on_c, 9, 36, 0
14, 11400, Note_on_c, 9, 36, 125
14, 11520, Note_on_c, 9, 36, 0
14, 11520, Note_on_c, 9, 36, 125
14, 11640, Note_on_c, 9, 36, 0
14, 11640, Note_on_c, 9, 36, 125
14, 11760, Note_on_c, 9, 36, 0
14, 11760, Note_on_c, 9, 36, 125
14, 11880, Note_on_c, 9, 36, 0
14, 11880, Note_on_c, 9, 36, 125
14, 12000, Note_on_c, 9, 36, 0
14, 12000, Note_on_c, 9, 36, 125
14, 12120, Note_on_c, 9, 36, 0
14, 12120, Note_on_c, 9, 36, 125
14, 12240, Note_on_c, 9, 36, 0
14, 12240, Note_on_c, 9, 36, 125
14, 12360, Note_on_c, 9, 36, 0
14, 12360, Note_on_c, 9, 36, 125
14, 12480, Note_on_c, 9, 36, 0
14, 12480, Note_on_c, 9, 36, 125
14, 12600, Note_on_c, 9, 36, 0
14, 12600, Note_on_c, 9, 36, 125
14, 12720, Note_on_c, 9, 36, 0
14, 12720, Note_on_c, 9, 36, 125
14, 12840, Note_on_c, 9, 36, 0
14, 12840, Note_on_c, 9, 36, 125
14, 12960, Note_on_c, 9, 36, 0
14, 12960, Note_on_c, 9, 36, 125
14, 13080, Note_on_c, 9, 36, 0
14, 13080, Note_on_c, 9, 36, 125
14, 13200, Note_on_c, 9, 36, 0
14, 13200, Note_on_c, 9, 36, 125
14, 13320, Note_on_c, 9, 36, 0
14, 13320, Note_on_c, 9, 36, 125
14, 13440, Note_on_c, 9, 36, 0
14, 13440, Note_on_c, 9, 36, 125
14, 13560, Note_on_c, 9, 36, 0
14, 13560, Note_on_c, 9, 36, 125
14, 13680, Note_on_c, 9, 36, 0
14, 13680, Note_on_c, 9, 36, 125
14, 13800, Note_on_c, 9, 36, 0
14, 13800, Note_on_c, 9, 36, 125
14, 13920, Note_on_c, 9, 36, 0
14, 13920, Note_on_c, 9, 36, 125
14, 14040, Note_on_c, 9, 36, 0
14, 14040, Note_on_c, 9, 36, 125
14, 14160, Note_on_c, 9, 36, 0
14, 14160, Note_on_c, 9, 36, 125
14, 14280, Note_on_c, 9, 36, 0
14, 14280, Note_on_c, 9, 36, 125
14, 14400, Note_on_c, 9, 36, 0
14, 14400, Note_on_c, 9, 36, 125
14, 14520, Note_on_c, 9, 36, 0
14, 14520, Note_on_c, 9, 36, 125
14, 14640, Note_on_c, 9, 36, 0
14, 14640, Note_on_c, 9, 36, 125
14, 14760, Note_on_c, 9, 36, 0
14, 14760, Note_on_c, 9, 36, 125
14, 14880, Note_on_c, 9, 36, 0
14, 14880, Note_on_c, 9, 36, 125
14, 15000, Note_on_c, 9, 36, 0
14, 15000, Note_on_c, 9, 36, 125
14, 15120, Note_on_c, 9, 36, 0
14, 15120, Note_on_c, 9, 36, 125
14, 15240, Note_on_c, 9, 36, 0
14, 15240, Note_on_c, 9, 36, 125
14, 15360, Note_on_c, 9, 36, 0
14, 15360, Note_on_c, 9, 36, 125
14, 15480, Note_on_c, 9, 36, 0
14, 15480, Note_on_c, 9, 36, 125
14, 15600, Note_on_c, 9, 36, 0
14, 15600, Note_on_c, 9, 36, 125
14, 15720, Note_on_c, 9, 36, 0
14, 15720, Note_on_c, 9, 36, 125
14, 15840, Note_on_c, 9, 36, 0
14, 15840, Note_on_c, 9, 36, 125
14, 15960, Note_on_c, 9, 36, 0
14, 15960, Note_on_c, 9, 36, 125
14, 16080, Note_on_c, 9, 36, 0
14, 16080, Note_on_c, 9, 36, 125
14, 16200, Note_on_c, 9, 36, 0
14, 16200, Note_on_c, 9, 36, 125
14, 16320, Note_on_c, 9, 36, 0
14, 16320, Note_on_c, 9, 36, 125
14, 16440, Note_on_c, 9, 36, 0
14, 16440, Note_on_c, 9, 36, 125
14, 16560, Note_on_c, 9, 36, 0
14, 16560, Note_on_c, 9, 36, 125
14, 16680, Note_on_c, 9, 36, 0
14, 16680, Note_on_c, 9, 36, 125
14, 16800, Note_on_c, 9, 36, 0
14, 16800, Note_on_c, 9, 36, 125
14, 16920, Note_on_c, 9, 36, 0
14, 16920, Note_on_c, 9, 36, 125
14, 17040, Note_on_c, 9, 36, 0
14, 17040, Note_on_c, 9, 36, 125
14, 17160, Note_on_c, 9, 36, 0
14, 17160, Note_on_c, 9, 36, 125
14, 17280, Note_on_c, 9, 36, 0
14, 17280, Note_on_c, 9, 36, 125
14, 17400, Note_on_c, 9, 36, 0
14, 17400, Note_on_c, 9, 36, 125
14, 17520, Note_on_c, 9, 36, 0
14, 17520, Note_on_c, 9, 36, 125
14, 17640, Note_on_c, 9, 36, 0
14, 17640, Note_on_c, 9, 36, 125
14, 17760, Note_on_c, 9, 36, 0
14, 17760, Note_on_c, 9, 36, 125
14, 17880, Note_on_c, 9, 36, 0
14, 17880, Note_on_c, 9, 36, 125
14, 18000, Note_on_c, 9, 36, 0
14, 18000, Note_on_c, 9, 36, 125
14, 18120, Note_on_c, 9, 36, 0
14, 18120, Note_on_c, 9, 36, 125
14, 18240, Note_on_c, 9, 36, 0
14, 18240, Note_on_c, 9, 36, 125
14, 18360, Note_on_c, 9, 36, 0
14, 18360, Note_on_c, 9, 36, 125
14, 18480, Note_on_c, 9, 36, 0
14, 18480, Note_on_c, 9, 36, 125
14, 18600, Note_on_c, 9, 36, 0
14, 18600, Note_on_c, 9, 36, 125
14, 18720, Note_on_c, 9, 36, 0
14, 18720, Note_on_c, 9, 36, 125
14, 18840, Note_on_c, 9, 36, 0
14, 18840, Note_on_c, 9, 36, 125
14, 18960, Note_on_c, 9, 36, 0
14, 18960, Note_on_c, 9, 36, 125
14, 19080, Note_on_c, 9, 36, 0
14, 19080, Note_on_c, 9, 36, 125
14, 19200, Note_on_c, 9, 36, 0
14, 19200, Note_on_c, 9, 36, 125
14, 19320, Note_on_c, 9, 36, 0
14, 19320, Note_on_c, 9, 36, 125
14, 19440, Note_on_c, 9, 36, 0
14, 19440, Note_on_c, 9, 36, 125
14, 19560, Note_on_c, 9, 36, 0
14, 19560, Note_on_c, 9, 36, 125
14, 19680, Note_on_c, 9, 36, 0
14, 19680, Note_on_c, 9, 36, 125
14, 19800, Note_on_c, 9, 36, 0
14, 19800, Note_on_c, 9, 36, 125
14, 19920, Note_on_c, 9, 36, 0
14, 19920, Note_on_c, 9, 36, 125
14, 20040, Note_on_c, 9, 36, 0
14, 20040, Note_on_c, 9, 36, 125
14, 20160, Note_on_c, 9, 36, 0
14, 20160, Note_on_c, 9, 36, 125
14, 20280, Note_on_c, 9, 36, 0
14, 20280, Note_on_c, 9, 36, 125
14, 20400, Note_on_c, 9, 36, 0
14, 20400, Note_on_c, 9, 36, 125
14, 20520, Note_on_c, 9, 36, 0
14, 20520, Note_on_c, 9, 36, 125
14, 20640, Note_on_c, 9, 36, 0
14, 20640, Note_on_c, 9, 36, 125
14, 20760, Note_on_c, 9, 36, 0
14, 20760, Note_on_c, 9, 36, 125
14, 20880, Note_on_c, 9, 36, 0
14, 20880, Note_on_c, 9, 36, 125
14, 21000, Note_on_c, 9, 36, 0
14, 21000, Note_on_c, 9, 36, 125
14, 21120, Note_on_c, 9, 36, 0
14, 21120, Note_on_c, 9, 36, 125
14, 21240, Note_on_c, 9, 36, 0
14, 21240, Note_on_c, 9, 36, 125
14, 21360, Note_on_c, 9, 36, 0
14, 21360, Note_on_c, 9, 36, 125
14, 21480, Note_on_c, 9, 36, 0
14, 21480, Note_on_c, 9, 36, 125
14, 21600, Note_on_c, 9, 36, 0
14, 21600, Note_on_c, 9, 36, 125
14, 21720, Note_on_c, 9, 36, 0
14, 21720, Note_on_c, 9, 36, 125
14, 21840, Note_on_c, 9, 36, 0
14, 21840, Note_on_c, 9, 36, 125
14, 21960, Note_on_c, 9, 36, 0
14, 21960, Note_on_c, 9, 36, 125
14, 22080, Note_on_c, 9, 36, 0
14, 22080, Note_on_c, 9, 36, 125
14, 22200, Note_on_c, 9, 36, 0
14, 22200, Note_on_c, 9, 36, 125
14, 22320, Note_on_c, 9, 36, 0
14, 22320, Note_on_c, 9, 36, 125
14, 22440, Note_on_c, 9, 36, 0
14, 22440, Note_on_c, 9, 36, 125
14, 22560, Note_on_c, 9, 36, 0
14, 22560, Note_on_c, 9, 36, 125
14, 22680, Note_on_c, 9, 36, 0
14, 22680, Note_on_c, 9, 36, 125
14, 22800, Note_on_c, 9, 36, 0
14, 22800, Note_on_c, 9, 36, 125
14, 22920, Note_on_c, 9, 36, 0
14, 22920, Note_on_c, 9, 36, 125
14, 23040, Note_on_c, 9, 36, 0
14, 23040, Note_on_c, 9, 36, 125
14, 23160, Note_on_c, 9, 36, 0
14, 23160, Note_on_c, 9, 36, 125
14, 23280, Note_on_c, 9, 36, 0
14, 23280, Note_on_c, 9, 36, 125
14, 23400, Note_on_c, 9, 36, 0
14, 23400, Note_on_c, 9, 36, 125
14, 23520, Note_on_c, 9, 36, 0
14, 23520, Note_on_c, 9, 36, 125
14, 23640, Note_on_c, 9, 36, 0
14, 23640, Note_on_c, 9, 36, 125
14, 23760, Note_on_c, 9, 36, 0
14, 23760, Note_on_c, 9, 36, 125
14, 23880, Note_on_c, 9, 36, 0
14, 23880, Note_on_c, 9, 36, 125
14, 24000, Note_on_c, 9, 36, 0
14, 24000, Note_on_c, 9, 36, 125
14, 24120, Note_on_c, 9, 36, 0
14, 24120, Note_on_c, 9, 36, 125
14, 24240, Note_on_c, 9, 36, 0
14, 24240, Note_on_c, 9, 36, 125
14, 24360, Note_on_c, 9, 36, 0
14, 24360, Note_on_c, 9, 36, 125
14, 24480, Note_on_c, 9, 36, 0
14, 26400, Note_on_c, 9, 36, 125
14, 26520, Note_on_c, 9, 36, 0
14, 26520, Note_on_c, 9, 36, 125
14, 26640, Note_on_c, 9, 36, 0
14, 26640, Note_on_c, 9, 36, 125
14, 26760, Note_on_c, 9, 36, 0
14, 26760, Note_on_c, 9, 36, 125
14, 26880, Note_on_c, 9, 36, 0
14, 26880, Note_on_c, 9, 36, 125
14, 27000, Note_on_c, 9, 36, 0
14, 27000, Note_on_c, 9, 36, 125
14, 27120, Note_on_c, 9, 36, 0
14, 27120, Note_on_c, 9, 36, 125
14, 27240, Note_on_c, 9, 36, 0
14, 27240, Note_on_c, 9, 36, 125
14, 27360, Note_on_c, 9, 36, 0
14, 27360, Note_on_c, 9, 36, 125
14, 27480, Note_on_c, 9, 36, 0
14, 27480, Note_on_c, 9, 36, 125
14, 27600, Note_on_c, 9, 36, 0
14, 27600, Note_on_c, 9, 36, 125
14, 27720, Note_on_c, 9, 36, 0
14, 27720, Note_on_c, 9, 36, 125
14, 27840, Note_on_c, 9, 36, 0
14, 27840, Note_on_c, 9, 36, 125
14, 27960, Note_on_c, 9, 36, 0
14, 27960, Note_on_c, 9, 36, 125
14, 28080, Note_on_c, 9, 36, 0
14, 28080, Note_on_c, 9, 36, 125
14, 28200, Note_on_c, 9, 36, 0
14, 28200, Note_on_c, 9, 36, 125
14, 28320, Note_on_c, 9, 36, 0
14, 28320, Note_on_c, 9, 36, 125
14, 28440, Note_on_c, 9, 36, 0
14, 28440, Note_on_c, 9, 36, 125
14, 28560, Note_on_c, 9, 36, 0
14, 28560, Note_on_c, 9, 36, 125
14, 28680, Note_on_c, 9, 36, 0
14, 28680, Note_on_c, 9, 36, 125
14, 28800, Note_on_c, 9, 36, 0
14, 28800, Note_on_c, 9, 36, 125
14, 28920, Note_on_c, 9, 36, 0
14, 28920, Note_on_c, 9, 36, 125
14, 29040, Note_on_c, 9, 36, 0
14, 29040, Note_on_c, 9, 36, 125
14, 29160, Note_on_c, 9, 36, 0
14, 29160, Note_on_c, 9, 36, 125
14, 29280, Note_on_c, 9, 36, 0
14, 29280, Note_on_c, 9, 36, 125
14, 29400, Note_on_c, 9, 36, 0
14, 29400, Note_on_c, 9, 36, 125
14, 29520, Note_on_c, 9, 36, 0
14, 29520, Note_on_c, 9, 36, 125
14, 29640, Note_on_c, 9, 36, 0
14, 29640, Note_on_c, 9, 36, 125
14, 29760, Note_on_c, 9, 36, 0
14, 29760, Note_on_c, 9, 36, 125
14, 29880, Note_on_c, 9, 36, 0
14, 29880, Note_on_c, 9, 36, 125
14, 30000, Note_on_c, 9, 36, 0
14, 30000, Note_on_c, 9, 36, 125
14, 30120, Note_on_c, 9, 36, 0
14, 30120, Note_on_c, 9, 36, 125
14, 30240, Note_on_c, 9, 36, 0
14, 30240, Note_on_c, 9, 36, 125
14, 30360, Note_on_c, 9, 36, 0
14, 30360, Note_on_c, 9, 36, 125
14, 30480, Note_on_c, 9, 36, 0
14, 30480, Note_on_c, 9, 36, 125
14, 30600, Note_on_c, 9, 36, 0
14, 30600, Note_on_c, 9, 36, 125
14, 30720, Note_on_c, 9, 36, 0
14, 30720, Note_on_c, 9, 36, 125
14, 30840, Note_on_c, 9, 36, 0
14, 30840, Note_on_c, 9, 36, 125
14, 30960, Note_on_c, 9, 36, 0
14, 30960, Note_on_c, 9, 36, 125
14, 31080, Note_on_c, 9, 36, 0
14, 31080, Note_on_c, 9, 36, 125
14, 31200, Note_on_c, 9, 36, 0
14, 31200, Note_on_c, 9, 36, 125
14, 31320, Note_on_c, 9, 36, 0
14, 31320, Note_on_c, 9, 36, 125
14, 31440, Note_on_c, 9, 36, 0
14, 31440, Note_on_c, 9, 36, 125
14, 31560, Note_on_c, 9, 36, 0
14, 31560, Note_on_c, 9, 36, 125
14, 31680, Note_on_c, 9, 36, 0
14, 31680, Note_on_c, 9, 36, 125
14, 31800, Note_on_c, 9, 36, 0
14, 31800, Note_on_c, 9, 36, 125
14, 31920, Note_on_c, 9, 36, 0
14, 31920, Note_on_c, 9, 36, 125
14, 32040, Note_on_c, 9, 36, 0
14, 32040, Note_on_c, 9, 36, 125
14, 32160, Note_on_c, 9, 36, 0
14, 32160, Note_on_c, 9, 36, 125
14, 32280, Note_on_c, 9, 36, 0
14, 32280, Note_on_c, 9, 36, 125
14, 32400, Note_on_c, 9, 36, 0
14, 32400, Note_on_c, 9, 36, 125
14, 32520, Note_on_c, 9, 36, 0
14, 32520, Note_on_c, 9, 36, 125
14, 32640, Note_on_c, 9, 36, 0
14, 32640, Note_on_c, 9, 36, 125
14, 32760, Note_on_c, 9, 36, 0
14, 32760, Note_on_c, 9, 36, 125
14, 32880, Note_on_c, 9, 36, 0
14, 32880, Note_on_c, 9, 36, 125
14, 33000, Note_on_c, 9, 36, 0
14, 33000, Note_on_c, 9, 36, 125
14, 33120, Note_on_c, 9, 36, 0
14, 33120, Note_on_c, 9, 36, 125
14, 33240, Note_on_c, 9, 36, 0
14, 33240, Note_on_c, 9, 36, 125
14, 33360, Note_on_c, 9, 36, 0
14, 33360, Note_on_c, 9, 36, 125
14, 33480, Note_on_c, 9, 36, 0
14, 33480, Note_on_c, 9, 36, 125
14, 33600, Note_on_c, 9, 36, 0
14, 33600, Note_on_c, 9, 36, 125
14, 33720, Note_on_c, 9, 36, 0
14, 33720, Note_on_c, 9, 36, 125
14, 33840, Note_on_c, 9, 36, 0
14, 33840, Note_on_c, 9, 36, 125
14, 33960, Note_on_c, 9, 36, 0
14, 33960, Note_on_c, 9, 36, 125
14, 34080, Note_on_c, 9, 36, 0
14, 34080, Note_on_c, 9, 36, 125
14, 34200, Note_on_c, 9, 36, 0
14, 34200, Note_on_c, 9, 36, 125
14, 34320, Note_on_c, 9, 36, 0
14, 34320, Note_on_c, 9, 36, 125
14, 34440, Note_on_c, 9, 36, 0
14, 34440, Note_on_c, 9, 36, 125
14, 34560, Note_on_c, 9, 36, 0
14, 34560, Note_on_c, 9, 36, 125
14, 34680, Note_on_c, 9, 36, 0
14, 34680, Note_on_c, 9, 36, 125
14, 34800, Note_on_c, 9, 36, 0
14, 34800, Note_on_c, 9, 36, 125
14, 34920, Note_on_c, 9, 36, 0
14, 34920, Note_on_c, 9, 36, 125
14, 35040, Note_on_c, 9, 36, 0
14, 35040, Note_on_c, 9, 36, 125
14, 35160, Note_on_c, 9, 36, 0
14, 35160, Note_on_c, 9, 36, 125
14, 35280, Note_on_c, 9, 36, 0
14, 35280, Note_on_c, 9, 36, 125
14, 35400, Note_on_c, 9, 36, 0
14, 35400, Note_on_c, 9, 36, 125
14, 35520, Note_on_c, 9, 36, 0
14, 35520, Note_on_c, 9, 36, 125
14, 35640, Note_on_c, 9, 36, 0
14, 35640, Note_on_c, 9, 36, 117
14, 35760, Note_on_c, 9, 36, 0
14, 35760, Note_on_c, 9, 36, 110
14, 35880, Note_on_c, 9, 36, 0
14, 35880, Note_on_c, 9, 36, 102
14, 36000, Note_on_c, 9, 36, 0
14, 36000, Note_on_c, 9, 36, 93
14, 36120, Note_on_c, 9, 36, 0
14, 36120, Note_on_c, 9, 36, 86
14, 36240, Note_on_c, 9, 36, 0
14, 36240, Note_on_c, 9, 36, 78
14, 36360, Note_on_c, 9, 36, 0
14, 36360, Note_on_c, 9, 36, 71
14, 36480, Note_on_c, 9, 36, 0
14, 36480, Note_on_c, 9, 36, 62
14, 36600, Note_on_c, 9, 36, 0
14, 36600, Note_on_c, 9, 36, 55
14, 36720, Note_on_c, 9, 36, 0
14, 36720, Note_on_c, 9, 36, 47
14, 36840, Note_on_c, 9, 36, 0
14, 36840, Note_on_c, 9, 36, 40
14, 36960, Note_on_c, 9, 36, 0
14, 36960, Note_on_c, 9, 36, 31
14, 37080, Note_on_c, 9, 36, 0
14, 37080, Note_on_c, 9, 36, 23
14, 37200, Note_on_c, 9, 36, 0
14, 37200, Note_on_c, 9, 36, 16
14, 37320, Note_on_c, 9, 36, 0
14, 37320, Note_on_c, 9, 36, 8
14, 37440, Note_on_c, 9, 36, 0
14, 37440, End_track
15, 0, Start_track
15, 0, MIDI_port, 0
15, 0, Program_c, 11, 56
15, 0, Control_c, 11, 7, 100
15, 0, Control_c, 11, 10, 127
15, 22080, Control_c, 11, 7, 50
15, 22080, Note_on_c, 11, 74, 100
15, 22089, Control_c, 11, 7, 51
15, 22099, Control_c, 11, 7, 52
15, 22108, Control_c, 11, 7, 53
15, 22118, Control_c, 11, 7, 54
15, 22127, Control_c, 11, 7, 55
15, 22137, Control_c, 11, 7, 56
15, 22147, Control_c, 11, 7, 57
15, 22156, Control_c, 11, 7, 58
15, 22166, Control_c, 11, 7, 59
15, 22175, Control_c, 11, 7, 60
15, 22185, Control_c, 11, 7, 61
15, 22194, Control_c, 11, 7, 62
15, 22204, Control_c, 11, 7, 63
15, 22214, Control_c, 11, 7, 64
15, 22223, Control_c, 11, 7, 65
15, 22233, Control_c, 11, 7, 66
15, 22242, Control_c, 11, 7, 67
15, 22252, Control_c, 11, 7, 68
15, 22262, Control_c, 11, 7, 69
15, 22271, Control_c, 11, 7, 70
15, 22281, Control_c, 11, 7, 71
15, 22290, Control_c, 11, 7, 72
15, 22300, Control_c, 11, 7, 73
15, 22309, Control_c, 11, 7, 74
15, 22319, Control_c, 11, 7, 75
15, 22329, Control_c, 11, 7, 76
15, 22338, Control_c, 11, 7, 77
15, 22348, Control_c, 11, 7, 78
15, 22357, Control_c, 11, 7, 79
15, 22367, Control_c, 11, 7, 80
15, 22376, Control_c, 11, 7, 81
15, 22386, Control_c, 11, 7, 82
15, 22396, Control_c, 11, 7, 83
15, 22405, Control_c, 11, 7, 84
15, 22415, Control_c, 11, 7, 85
15, 22424, Control_c, 11, 7, 86
15, 22434, Control_c, 11, 7, 87
15, 22444, Control_c, 11, 7, 88
15, 22453, Control_c, 11, 7, 89
15, 22463, Control_c, 11, 7, 90
15, 22472, Control_c, 11, 7, 91
15, 22482, Control_c, 11, 7, 92
15, 22491, Control_c, 11, 7, 93
15, 22501, Control_c, 11, 7, 94
15, 22511, Control_c, 11, 7, 95
15, 22520, Control_c, 11, 7, 96
15, 22530, Control_c, 11, 7, 97
15, 22539, Control_c, 11, 7, 98
15, 22549, Control_c, 11, 7, 99
15, 22559, Control_c, 11, 7, 100
15, 22560, Note_on_c, 11, 74, 0
15, 22560, Note_on_c, 11, 74, 100
15, 22600, Note_on_c, 11, 74, 0
15, 22680, Note_on_c, 11, 74, 100
15, 22920, Note_on_c, 11, 74, 0
15, 23040, Control_c, 11, 7, 50
15, 23040, Note_on_c, 11, 74, 100
15, 23049, Control_c, 11, 7, 51
15, 23059, Control_c, 11, 7, 52
15, 23068, Control_c, 11, 7, 53
15, 23078, Control_c, 11, 7, 54
15, 23087, Control_c, 11, 7, 55
15, 23097, Control_c, 11, 7, 56
15, 23107, Control_c, 11, 7, 57
15, 23116, Control_c, 11, 7, 58
15, 23126, Control_c, 11, 7, 59
15, 23135, Control_c, 11, 7, 60
15, 23145, Control_c, 11, 7, 61
15, 23154, Control_c, 11, 7, 62
15, 23164, Control_c, 11, 7, 63
15, 23174, Control_c, 11, 7, 64
15, 23183, Control_c, 11, 7, 65
15, 23193, Control_c, 11, 7, 66
15, 23202, Control_c, 11, 7, 67
15, 23212, Control_c, 11, 7, 68
15, 23222, Control_c, 11, 7, 69
15, 23231, Control_c, 11, 7, 70
15, 23241, Control_c, 11, 7, 71
15, 23250, Control_c, 11, 7, 72
15, 23260, Control_c, 11, 7, 73
15, 23269, Control_c, 11, 7, 74
15, 23279, Control_c, 11, 7, 75
15, 23289, Control_c, 11, 7, 76
15, 23298, Control_c, 11, 7, 77
15, 23308, Control_c, 11, 7, 78
15, 23317, Control_c, 11, 7, 79
15, 23327, Control_c, 11, 7, 80
15, 23336, Control_c, 11, 7, 81
15, 23346, Control_c, 11, 7, 82
15, 23356, Control_c, 11, 7, 83
15, 23365, Control_c, 11, 7, 84
15, 23375, Control_c, 11, 7, 85
15, 23384, Control_c, 11, 7, 86
15, 23394, Control_c, 11, 7, 87
15, 23404, Control_c, 11, 7, 88
15, 23413, Control_c, 11, 7, 89
15, 23423, Control_c, 11, 7, 90
15, 23432, Control_c, 11, 7, 91
15, 23442, Control_c, 11, 7, 92
15, 23451, Control_c, 11, 7, 93
15, 23461, Control_c, 11, 7, 94
15, 23471, Control_c, 11, 7, 95
15, 23480, Control_c, 11, 7, 96
15, 23490, Control_c, 11, 7, 97
15, 23499, Control_c, 11, 7, 98
15, 23509, Control_c, 11, 7, 99
15, 23519, Control_c, 11, 7, 100
15, 23520, Note_on_c, 11, 74, 0
15, 35520, Control_c, 11, 7, 50
15, 35520, Note_on_c, 11, 62, 100
15, 35529, Control_c, 11, 7, 51
15, 35539, Control_c, 11, 7, 52
15, 35548, Control_c, 11, 7, 53
15, 35558, Control_c, 11, 7, 54
15, 35567, Control_c, 11, 7, 55
15, 35577, Control_c, 11, 7, 56
15, 35587, Control_c, 11, 7, 57
15, 35596, Control_c, 11, 7, 58
15, 35606, Control_c, 11, 7, 59
15, 35615, Control_c, 11, 7, 60
15, 35625, Control_c, 11, 7, 61
15, 35634, Control_c, 11, 7, 62
15, 35644, Control_c, 11, 7, 63
15, 35654, Control_c, 11, 7, 64
15, 35663, Control_c, 11, 7, 65
15, 35673, Control_c, 11, 7, 66
15, 35682, Control_c, 11, 7, 67
15, 35692, Control_c, 11, 7, 68
15, 35702, Control_c, 11, 7, 69
15, 35711, Control_c, 11, 7, 70
15, 35721, Control_c, 11, 7, 71
15, 35730, Control_c, 11, 7, 72
15, 35740, Control_c, 11, 7, 73
15, 35749, Control_c, 11, 7, 74
15, 35759, Control_c, 11, 7, 75
15, 35769, Control_c, 11, 7, 76
15, 35778, Control_c, 11, 7, 77
15, 35788, Control_c, 11, 7, 78
15, 35797, Control_c, 11, 7, 79
15, 35807, Control_c, 11, 7, 80
15, 35816, Control_c, 11, 7, 81
15, 35826, Control_c, 11, 7, 82
15, 35836, Control_c, 11, 7, 83
15, 35845, Control_c, 11, 7, 84
15, 35855, Control_c, 11, 7, 85
15, 35864, Control_c, 11, 7, 86
15, 35874, Control_c, 11, 7, 87
15, 35884, Control_c, 11, 7, 88
15, 35893, Control_c, 11, 7, 89
15, 35903, Control_c, 11, 7, 90
15, 35912, Control_c, 11, 7, 91
15, 35922, Control_c, 11, 7, 92
15, 35931, Control_c, 11, 7, 93
15, 35941, Control_c, 11, 7, 94
15, 35951, Control_c, 11, 7, 95
15, 35960, Control_c, 11, 7, 96
15, 35970, Control_c, 11, 7, 97
15, 35979, Control_c, 11, 7, 98
15, 35989, Control_c, 11, 7, 99
15, 35999, Control_c, 11, 7, 100
15, 36000, Note_on_c, 11, 62, 0
15, 36000, End_track
16, 0, Start_track
16, 0, MIDI_port, 0
16, 0, Program_c, 12, 57
16, 0, Control_c, 12, 7, 100
16, 0, Control_c, 12, 10, 0
16, 22080, Control_c, 12, 7, 50
16, 22080, Note_on_c, 12, 50, 100
16, 22089, Control_c, 12, 7, 51
16, 22099, Control_c, 12, 7, 52
16, 22108, Control_c, 12, 7, 53
16, 22118, Control_c, 12, 7, 54
16, 22127, Control_c, 12, 7, 55
16, 22137, Control_c, 12, 7, 56
16, 22147, Control_c, 12, 7, 57
16, 22156, Control_c, 12, 7, 58
16, 22166, Control_c, 12, 7, 59
16, 22175, Control_c, 12, 7, 60
16, 22185, Control_c, 12, 7, 61
16, 22194, Control_c, 12, 7, 62
16, 22204, Control_c, 12, 7, 63
16, 22214, Control_c, 12, 7, 64
16, 22223, Control_c, 12, 7, 65
16, 22233, Control_c, 12, 7, 66
16, 22242, Control_c, 12, 7, 67
16, 22252, Control_c, 12, 7, 68
16, 22262, Control_c, 12, 7, 69
16, 22271, Control_c, 12, 7, 70
16, 22281, Control_c, 12, 7, 71
16, 22290, Control_c, 12, 7, 72
16, 22300, Control_c, 12, 7, 73
16, 22309, Control_c, 12, 7, 74
16, 22319, Control_c, 12, 7, 75
16, 22329, Control_c, 12, 7, 76
16, 22338, Control_c, 12, 7, 77
16, 22348, Control_c, 12, 7, 78
16, 22357, Control_c, 12, 7, 79
16, 22367, Control_c, 12, 7, 80
16, 22376, Control_c, 12, 7, 81
16, 22386, Control_c, 12, 7, 82
16, 22396, Control_c, 12, 7, 83
16, 22405, Control_c, 12, 7, 84
16, 22415, Control_c, 12, 7, 85
16, 22424, Control_c, 12, 7, 86
16, 22434, Control_c, 12, 7, 87
16, 22444, Control_c, 12, 7, 88
16, 22453, Control_c, 12, 7, 89
16, 22463, Control_c, 12, 7, 90
16, 22472, Control_c, 12, 7, 91
16, 22482, Control_c, 12, 7, 92
16, 22491, Control_c, 12, 7, 93
16, 22501, Control_c, 12, 7, 94
16, 22511, Control_c, 12, 7, 95
16, 22520, Control_c, 12, 7, 96
16, 22530, Control_c, 12, 7, 97
16, 22539, Control_c, 12, 7, 98
16, 22549, Control_c, 12, 7, 99
16, 22559, Control_c, 12, 7, 100
16, 22560, Note_on_c, 12, 50, 0
16, 22560, Note_on_c, 12, 50, 100
16, 22600, Note_on_c, 12, 50, 0
16, 22680, Note_on_c, 12, 50, 100
16, 22920, Note_on_c, 12, 50, 0
16, 23040, Control_c, 12, 7, 50
16, 23040, Note_on_c, 12, 50, 100
16, 23049, Control_c, 12, 7, 51
16, 23059, Control_c, 12, 7, 52
16, 23068, Control_c, 12, 7, 53
16, 23078, Control_c, 12, 7, 54
16, 23087, Control_c, 12, 7, 55
16, 23097, Control_c, 12, 7, 56
16, 23107, Control_c, 12, 7, 57
16, 23116, Control_c, 12, 7, 58
16, 23126, Control_c, 12, 7, 59
16, 23135, Control_c, 12, 7, 60
16, 23145, Control_c, 12, 7, 61
16, 23154, Control_c, 12, 7, 62
16, 23164, Control_c, 12, 7, 63
16, 23174, Control_c, 12, 7, 64
16, 23183, Control_c, 12, 7, 65
16, 23193, Control_c, 12, 7, 66
16, 23202, Control_c, 12, 7, 67
16, 23212, Control_c, 12, 7, 68
16, 23222, Control_c, 12, 7, 69
16, 23231, Control_c, 12, 7, 70
16, 23241, Control_c, 12, 7, 71
16, 23250, Control_c, 12, 7, 72
16, 23260, Control_c, 12, 7, 73
16, 23269, Control_c, 12, 7, 74
16, 23279, Control_c, 12, 7, 75
16, 23289, Control_c, 12, 7, 76
16, 23298, Control_c, 12, 7, 77
16, 23308, Control_c, 12, 7, 78
16, 23317, Control_c, 12, 7, 79
16, 23327, Control_c, 12, 7, 80
16, 23336, Control_c, 12, 7, 81
16, 23346, Control_c, 12, 7, 82
16, 23356, Control_c, 12, 7, 83
16, 23365, Control_c, 12, 7, 84
16, 23375, Control_c, 12, 7, 85
16, 23384, Control_c, 12, 7, 86
16, 23394, Control_c, 12, 7, 87
16, 23404, Control_c, 12, 7, 88
16, 23413, Control_c, 12, 7, 89
16, 23423, Control_c, 12, 7, 90
16, 23432, Control_c, 12, 7, 91
16, 23442, Control_c, 12, 7, 92
16, 23451, Control_c, 12, 7, 93
16, 23461, Control_c, 12, 7, 94
16, 23471, Control_c, 12, 7, 95
16, 23480, Control_c, 12, 7, 96
16, 23490, Control_c, 12, 7, 97
16, 23499, Control_c, 12, 7, 98
16, 23509, Control_c, 12, 7, 99
16, 23519, Control_c, 12, 7, 100
16, 23520, Note_on_c, 12, 50, 0
16, 35520, Control_c, 12, 7, 50
16, 35520, Note_on_c, 12, 50, 100
16, 35529, Control_c, 12, 7, 51
16, 35539, Control_c, 12, 7, 52
16, 35548, Control_c, 12, 7, 53
16, 35558, Control_c, 12, 7, 54
16, 35567, Control_c, 12, 7, 55
16, 35577, Control_c, 12, 7, 56
16, 35587, Control_c, 12, 7, 57
16, 35596, Control_c, 12, 7, 58
16, 35606, Control_c, 12, 7, 59
16, 35615, Control_c, 12, 7, 60
16, 35625, Control_c, 12, 7, 61
16, 35634, Control_c, 12, 7, 62
16, 35644, Control_c, 12, 7, 63
16, 35654, Control_c, 12, 7, 64
16, 35663, Control_c, 12, 7, 65
16, 35673, Control_c, 12, 7, 66
16, 35682, Control_c, 12, 7, 67
16, 35692, Control_c, 12, 7, 68
16, 35702, Control_c, 12, 7, 69
16, 35711, Control_c, 12, 7, 70
16, 35721, Control_c, 12, 7, 71
16, 35730, Control_c, 12, 7, 72
16, 35740, Control_c, 12, 7, 73
16, 35749, Control_c, 12, 7, 74
16, 35759, Control_c, 12, 7, 75
16, 35769, Control_c, 12, 7, 76
16, 35778, Control_c, 12, 7, 77
16, 35788, Control_c, 12, 7, 78
16, 35797, Control_c, 12, 7, 79
16, 35807, Control_c, 12, 7, 80
16, 35816, Control_c, 12, 7, 81
16, 35826, Control_c, 12, 7, 82
16, 35836, Control_c, 12, 7, 83
16, 35845, Control_c, 12, 7, 84
16, 35855, Control_c, 12, 7, 85
16, 35864, Control_c, 12, 7, 86
16, 35874, Control_c, 12, 7, 87
16, 35884, Control_c, 12, 7, 88
16, 35893, Control_c, 12, 7, 89
16, 35903, Control_c, 12, 7, 90
16, 35912, Control_c, 12, 7, 91
16, 35922, Control_c, 12, 7, 92
16, 35931, Control_c, 12, 7, 93
16, 35941, Control_c, 12, 7, 94
16, 35951, Control_c, 12, 7, 95
16, 35960, Control_c, 12, 7, 96
16, 35970, Control_c, 12, 7, 97
16, 35979, Control_c, 12, 7, 98
16, 35989, Control_c, 12, 7, 99
16, 35999, Control_c, 12, 7, 100
16, 36000, Note_on_c, 12, 50, 0
16, 36000, End_track
17, 0, Start_track
17, 0, MIDI_port, 0
17, 0, Program_c, 13, 28
17, 0, Control_c, 13, 7, 70
17, 0, Control_c, 13, 10, 0
17, 24480, Note_on_c, 13, 43, 100
17, 24530, Note_on_c, 13, 43, 0
17, 24540, Note_on_c, 13, 55, 100
17, 24590, Note_on_c, 13, 55, 0
17, 24600, Note_on_c, 13, 53, 100
17, 24650, Note_on_c, 13, 53, 0
17, 24660, Note_on_c, 13, 50, 100
17, 24780, Note_on_c, 13, 50, 0
17, 24780, Note_on_c, 13, 48, 100
17, 24900, Note_on_c, 13, 48, 0
17, 24900, Note_on_c, 13, 44, 100
17, 24960, Note_on_c, 13, 44, 0
17, 24960, Note_on_c, 13, 43, 100
17, 25010, Note_on_c, 13, 43, 0
17, 25020, Note_on_c, 13, 55, 100
17, 25070, Note_on_c, 13, 55, 0
17, 25080, Note_on_c, 13, 53, 100
17, 25130, Note_on_c, 13, 53, 0
17, 25140, Note_on_c, 13, 50, 100
17, 25260, Note_on_c, 13, 50, 0
17, 25260, Note_on_c, 13, 48, 100
17, 25380, Note_on_c, 13, 48, 0
17, 25380, Note_on_c, 13, 44, 100
17, 25440, Note_on_c, 13, 44, 0
17, 25440, Note_on_c, 13, 43, 100
17, 25490, Note_on_c, 13, 43, 0
17, 25500, Note_on_c, 13, 55, 100
17, 25550, Note_on_c, 13, 55, 0
17, 25560, Note_on_c, 13, 53, 100
17, 25610, Note_on_c, 13, 53, 0
17, 25620, Note_on_c, 13, 50, 100
17, 25740, Note_on_c, 13, 50, 0
17, 25740, Note_on_c, 13, 48, 100
17, 25860, Note_on_c, 13, 48, 0
17, 25860, Note_on_c, 13, 44, 100
17, 25920, Note_on_c, 13, 44, 0
17, 25920, Note_on_c, 13, 43, 100
17, 25970, Note_on_c, 13, 43, 0
17, 25980, Note_on_c, 13, 55, 100
17, 26030, Note_on_c, 13, 55, 0
17, 26040, Note_on_c, 13, 53, 100
17, 26090, Note_on_c, 13, 53, 0
17, 26100, Note_on_c, 13, 50, 100
17, 26220, Note_on_c, 13, 50, 0
17, 26220, Note_on_c, 13, 48, 100
17, 26340, Note_on_c, 13, 48, 0
17, 26340, Note_on_c, 13, 44, 100
17, 26400, Note_on_c, 13, 44, 0
17, 26400, End_track
18, 0, Start_track
18, 0, MIDI_port, 0
18, 0, Title_t, "BAND OF GOLD"
18, 0, End_track
19, 0, Start_track
19, 0, MIDI_port, 0
19, 0, Title_t, "FREDA PAYNE"
19, 0, End_track
20, 0, Start_track
20, 0, MIDI_port, 0
20, 0, Title_t, "Seq (c) 1999 VJ Miele"
20, 0, End_track
21, 0, Start_track
21, 0, MIDI_port, 0
21, 0, Title_t, "the MidiStation"
21, 0, End_track
22, 0, Start_track
22, 0, MIDI_port, 0
22, 0, Title_t, "home of the best & worst of midi"
22, 0, End_track
23, 0, Start_track
23, 0, MIDI_port, 0
23, 0, Title_t, "http://pages.prodigy.net/flash100/index.htm"
23, 0, End_track
24, 0, Start_track
24, 0, MIDI_port, 0
24, 0, Title_t, "flash100@prodigy.net"
24, 0, End_track
25, 0, Start_track
25, 0, MIDI_port, 0
25, 0, Title_t, "Distributed freely provided"
25, 0, End_track
26, 0, Start_track
26, 0, MIDI_port, 0
26, 0, Title_t, "no alterations are made."
26, 0, End_track
0, 0, End_of_file
