0, 0, Header, 1, 6, 960
1, 0, Start_track
1, 0, Control_c, 0, 101, 0
1, 0, Control_c, 0, 100, 0
1, 0, Control_c, 0, 6, 12
1, 0, Control_c, 0, 38, 0
1, 0, Control_c, 1, 101, 0
1, 0, Control_c, 1, 100, 0
1, 0, Control_c, 1, 6, 12
1, 0, Control_c, 1, 38, 0
1, 0, Control_c, 2, 101, 0
1, 0, Control_c, 2, 100, 0
1, 0, Control_c, 2, 6, 12
1, 0, Control_c, 2, 38, 0
1, 0, Control_c, 3, 101, 0
1, 0, Control_c, 3, 100, 0
1, 0, Control_c, 3, 6, 12
1, 0, Control_c, 3, 38, 0
1, 0, Control_c, 4, 101, 0
1, 0, Control_c, 4, 100, 0
1, 0, Control_c, 4, 6, 12
1, 0, Control_c, 4, 38, 0
1, 0, Control_c, 5, 101, 0
1, 0, Control_c, 5, 100, 0
1, 0, Control_c, 5, 6, 12
1, 0, Control_c, 5, 38, 0
1, 0, Control_c, 6, 101, 0
1, 0, Control_c, 6, 100, 0
1, 0, Control_c, 6, 6, 12
1, 0, Control_c, 6, 38, 0
1, 0, Control_c, 7, 101, 0
1, 0, Control_c, 7, 100, 0
1, 0, Control_c, 7, 6, 12
1, 0, Control_c, 7, 38, 0
1, 0, Control_c, 8, 101, 0
1, 0, Control_c, 8, 100, 0
1, 0, Control_c, 8, 6, 12
1, 0, Control_c, 8, 38, 0
1, 0, Control_c, 9, 101, 0
1, 0, Control_c, 9, 100, 0
1, 0, Control_c, 9, 6, 12
1, 0, Control_c, 9, 38, 0
1, 0, Control_c, 10, 101, 0
1, 0, Control_c, 10, 100, 0
1, 0, Control_c, 10, 6, 12
1, 0, Control_c, 10, 38, 0
1, 0, Control_c, 11, 101, 0
1, 0, Control_c, 11, 100, 0
1, 0, Control_c, 11, 6, 12
1, 0, Control_c, 11, 38, 0
1, 0, Control_c, 12, 101, 0
1, 0, Control_c, 12, 100, 0
1, 0, Control_c, 12, 6, 12
1, 0, Control_c, 12, 38, 0
1, 0, Control_c, 13, 101, 0
1, 0, Control_c, 13, 100, 0
1, 0, Control_c, 13, 6, 12
1, 0, Control_c, 13, 38, 0
1, 0, Control_c, 14, 101, 0
1, 0, Control_c, 14, 100, 0
1, 0, Control_c, 14, 6, 12
1, 0, Control_c, 14, 38, 0
1, 0, Control_c, 15, 101, 0
1, 0, Control_c, 15, 100, 0
1, 0, Control_c, 15, 6, 12
1, 0, Control_c, 15, 38, 0
1, 0, Time_signature, 3, 2, 24, 8
1, 0, Tempo, 582524
1, 2880, Time_signature, 4, 2, 24, 8
1, 133440, Tempo, 594059
1, 164160, Tempo, 582524
1, 194880, Time_signature, 3, 2, 24, 8
1, 194880, Tempo, 588235
1, 197760, Time_signature, 4, 2, 24, 8
1, 205440, Time_signature, 5, 2, 24, 8
1, 210240, Time_signature, 3, 2, 24, 8
1, 213120, Time_signature, 7, 3, 12, 8
1, 216480, Time_signature, 3, 2, 24, 8
1, 219360, Time_signature, 5, 2, 24, 8
1, 224160, Time_signature, 3, 2, 24, 8
1, 227040, Time_signature, 7, 3, 12, 8
1, 230400, Time_signature, 3, 2, 24, 8
1, 233280, Time_signature, 5, 2, 24, 8
1, 238080, Time_signature, 3, 2, 24, 8
1, 240960, Time_signature, 7, 3, 12, 8
1, 244320, Time_signature, 3, 2, 24, 8
1, 247200, Time_signature, 5, 2, 24, 8
1, 252000, Time_signature, 3, 2, 24, 8
1, 254880, Time_signature, 7, 3, 12, 8
1, 258240, Time_signature, 3, 2, 24, 8
1, 261120, Time_signature, 5, 2, 24, 8
1, 265920, Time_signature, 3, 2, 24, 8
1, 268800, Time_signature, 7, 3, 12, 8
1, 272160, Time_signature, 3, 2, 24, 8
1, 275040, Time_signature, 5, 2, 24, 8
1, 279840, Time_signature, 3, 2, 24, 8
1, 282720, Time_signature, 7, 3, 12, 8
1, 286080, Time_signature, 3, 2, 24, 8
1, 288960, Time_signature, 5, 2, 24, 8
1, 293760, Time_signature, 3, 2, 24, 8
1, 296640, Time_signature, 7, 3, 12, 8
1, 300000, Time_signature, 3, 2, 24, 8
1, 302880, Time_signature, 5, 2, 24, 8
1, 307680, Time_signature, 3, 2, 24, 8
1, 310560, Time_signature, 7, 3, 12, 8
1, 313920, Time_signature, 3, 2, 24, 8
1, 316800, Time_signature, 5, 2, 24, 8
1, 321600, Time_signature, 3, 2, 24, 8
1, 324480, Time_signature, 7, 3, 12, 8
1, 327840, Time_signature, 3, 2, 24, 8
1, 330720, Time_signature, 5, 2, 24, 8
1, 335520, Time_signature, 3, 2, 24, 8
1, 338400, Time_signature, 7, 3, 12, 8
1, 341760, Time_signature, 3, 2, 24, 8
1, 344640, Time_signature, 5, 2, 24, 8
1, 349440, Time_signature, 3, 2, 24, 8
1, 352320, Time_signature, 7, 3, 12, 8
1, 355680, Time_signature, 3, 2, 24, 8
1, 358560, Time_signature, 5, 2, 24, 8
1, 363360, Time_signature, 3, 2, 24, 8
1, 366240, Time_signature, 7, 3, 12, 8
1, 369600, Time_signature, 3, 2, 24, 8
1, 372480, Time_signature, 5, 2, 24, 8
1, 377280, Time_signature, 3, 2, 24, 8
1, 380160, Time_signature, 7, 3, 12, 8
1, 383520, Time_signature, 3, 2, 24, 8
1, 386400, Time_signature, 5, 2, 24, 8
1, 391200, Time_signature, 3, 2, 24, 8
1, 394080, Time_signature, 7, 3, 12, 8
1, 397440, Time_signature, 3, 2, 24, 8
1, 400320, Time_signature, 5, 2, 24, 8
1, 405120, Time_signature, 3, 2, 24, 8
1, 408000, Time_signature, 7, 3, 12, 8
1, 411360, Time_signature, 3, 2, 24, 8
1, 414240, Time_signature, 5, 2, 24, 8
1, 419040, Time_signature, 4, 2, 24, 8
1, 488160, Tempo, 582524
1, 488160, End_track
2, 0, Start_track
2, 0, Pitch_bend_c, 2, 8192
2, 0, Control_c, 2, 7, 127
2, 0, Control_c, 2, 10, 63
2, 0, Control_c, 2, 93, 0
2, 0, Control_c, 2, 91, 0
2, 0, Control_c, 2, 95, 0
2, 0, Control_c, 2, 92, 0
2, 0, Control_c, 2, 11, 127
2, 0, Program_c, 2, 29
2, 0, Control_c, 3, 7, 127
2, 0, Control_c, 3, 10, 63
2, 0, Control_c, 3, 93, 0
2, 0, Control_c, 3, 91, 0
2, 0, Control_c, 3, 95, 0
2, 0, Control_c, 3, 92, 0
2, 0, Control_c, 3, 11, 127
2, 0, Program_c, 3, 29
2, 2400, Note_on_c, 2, 50, 95
2, 2400, Note_on_c, 2, 45, 95
2, 2400, Note_on_c, 2, 40, 95
2, 2451, Note_off_c, 2, 50, 95
2, 2451, Note_off_c, 2, 45, 95
2, 2451, Note_off_c, 2, 40, 95
2, 2640, Note_on_c, 2, 41, 95
2, 2743, Note_off_c, 2, 41, 95
2, 2880, Note_on_c, 2, 46, 95
2, 3120, Note_off_c, 2, 46, 95
2, 3120, Note_on_c, 2, 46, 95
2, 3223, Note_off_c, 2, 46, 95
2, 3360, Note_on_c, 2, 47, 95
2, 3600, Note_off_c, 2, 47, 95
2, 3600, Note_on_c, 2, 48, 95
2, 3840, Note_off_c, 2, 48, 95
2, 4080, Note_on_c, 2, 43, 95
2, 4320, Note_off_c, 2, 43, 95
2, 4320, Note_on_c, 2, 43, 95
2, 4423, Note_off_c, 2, 43, 95
2, 4560, Note_on_c, 2, 43, 95
2, 4663, Note_off_c, 2, 43, 95
2, 4800, Note_on_c, 2, 46, 95
2, 4903, Note_off_c, 2, 46, 95
2, 5040, Note_on_c, 2, 46, 95
2, 5143, Note_off_c, 2, 46, 95
2, 5280, Note_on_c, 2, 48, 95
2, 5383, Note_off_c, 2, 48, 95
2, 5520, Note_on_c, 2, 48, 95
2, 5623, Note_off_c, 2, 48, 95
2, 5760, Note_on_c, 2, 51, 95
2, 6000, Note_off_c, 2, 51, 95
2, 6000, Note_on_c, 3, 49, 95
2, 6160, Pitch_bend_c, 3, 8192
2, 6320, Pitch_bend_c, 3, 8320
2, 6480, Pitch_bend_c, 3, 8192
2, 6640, Pitch_bend_c, 3, 8320
2, 6720, Pitch_bend_c, 3, 8192
2, 6720, Pitch_bend_c, 3, 8320
2, 6720, Pitch_bend_c, 3, 8192
2, 6720, Note_off_c, 3, 49, 95
2, 6720, Note_on_c, 2, 46, 95
2, 6960, Note_off_c, 2, 46, 95
2, 6960, Note_on_c, 2, 46, 95
2, 7200, Note_off_c, 2, 46, 95
2, 7200, Note_on_c, 2, 47, 95
2, 7440, Note_off_c, 2, 47, 95
2, 7440, Note_on_c, 2, 48, 95
2, 7680, Note_off_c, 2, 48, 95
2, 7920, Note_on_c, 2, 40, 95
2, 8640, Note_off_c, 2, 40, 95
2, 8640, Note_on_c, 2, 41, 95
2, 8880, Note_off_c, 2, 41, 95
2, 8880, Note_on_c, 2, 41, 95
2, 9120, Note_off_c, 2, 41, 95
2, 9120, Note_on_c, 2, 41, 95
2, 9360, Note_off_c, 2, 41, 95
2, 9360, Note_on_c, 2, 42, 95
2, 9840, Note_off_c, 2, 42, 95
2, 9840, Note_on_c, 3, 43, 95
2, 10000, Pitch_bend_c, 3, 8192
2, 10160, Pitch_bend_c, 3, 8320
2, 10320, Pitch_bend_c, 3, 8192
2, 10480, Pitch_bend_c, 3, 8320
2, 10560, Pitch_bend_c, 3, 8192
2, 10560, Pitch_bend_c, 3, 8320
2, 10560, Pitch_bend_c, 3, 8192
2, 10560, Note_off_c, 3, 43, 95
2, 10560, Note_on_c, 2, 46, 95
2, 10800, Note_off_c, 2, 46, 95
2, 10800, Note_on_c, 2, 46, 95
2, 11040, Note_off_c, 2, 46, 95
2, 11040, Note_on_c, 2, 47, 95
2, 11280, Note_off_c, 2, 47, 95
2, 11280, Note_on_c, 2, 48, 95
2, 11520, Note_off_c, 2, 48, 95
2, 11760, Note_on_c, 2, 43, 95
2, 12000, Note_off_c, 2, 43, 95
2, 12480, Note_on_c, 2, 46, 95
2, 12583, Note_off_c, 2, 46, 95
2, 12640, Note_on_c, 2, 47, 95
2, 12743, Note_off_c, 2, 47, 95
2, 12800, Note_on_c, 2, 48, 95
2, 12903, Note_off_c, 2, 48, 95
2, 12960, Note_on_c, 2, 51, 95
2, 13063, Note_off_c, 2, 51, 95
2, 13120, Note_on_c, 2, 48, 95
2, 13223, Note_off_c, 2, 48, 95
2, 13280, Note_on_c, 2, 46, 95
2, 13383, Note_off_c, 2, 46, 95
2, 13440, Note_on_c, 2, 53, 95
2, 13680, Note_off_c, 2, 53, 95
2, 13680, Note_on_c, 3, 51, 95
2, 13840, Pitch_bend_c, 3, 8192
2, 14000, Pitch_bend_c, 3, 8320
2, 14160, Pitch_bend_c, 3, 8192
2, 14280, Note_on_c, 3, 54, 95
2, 14320, Pitch_bend_c, 3, 8320
2, 14400, Pitch_bend_c, 3, 8192
2, 14400, Pitch_bend_c, 3, 8320
2, 14400, Pitch_bend_c, 3, 8192
2, 14400, Note_off_c, 3, 51, 95
2, 14400, Note_off_c, 3, 54, 95
2, 14400, Note_on_c, 3, 55, 95
2, 14560, Pitch_bend_c, 3, 8192
2, 14720, Pitch_bend_c, 3, 8320
2, 14880, Pitch_bend_c, 3, 8192
2, 14880, Pitch_bend_c, 3, 8320
2, 14880, Pitch_bend_c, 3, 8192
2, 14880, Note_off_c, 3, 55, 95
2, 14880, Note_on_c, 2, 58, 95
2, 15060, Note_on_c, 3, 55, 95
2, 15120, Note_off_c, 2, 58, 95
2, 15120, Note_off_c, 3, 55, 95
2, 15120, Note_on_c, 3, 54, 95
2, 15240, Pitch_bend_c, 3, 8064
2, 15360, Pitch_bend_c, 3, 7936
2, 15480, Pitch_bend_c, 3, 7680
2, 15600, Pitch_bend_c, 3, 7552
2, 15600, Pitch_bend_c, 3, 8192
2, 15600, Note_off_c, 3, 54, 95
2, 15600, Note_on_c, 2, 53, 95
2, 15840, Note_off_c, 2, 53, 95
2, 15840, Note_on_c, 2, 51, 95
2, 16080, Note_off_c, 2, 51, 95
2, 16080, Note_on_c, 2, 46, 95
2, 16260, Note_on_c, 3, 46, 95
2, 16320, Note_off_c, 2, 46, 95
2, 16320, Note_off_c, 3, 46, 95
2, 16320, Note_on_c, 3, 48, 95
2, 16560, Note_off_c, 3, 48, 95
2, 16560, Note_on_c, 2, 47, 95
2, 16800, Note_off_c, 2, 47, 95
2, 16800, Note_on_c, 2, 46, 95
2, 17040, Note_off_c, 2, 46, 95
2, 17040, Note_on_c, 2, 45, 95
2, 17280, Note_off_c, 2, 45, 95
2, 17280, Note_on_c, 2, 43, 95
2, 17520, Note_off_c, 2, 43, 95
2, 17520, Note_on_c, 2, 42, 95
2, 17760, Note_off_c, 2, 42, 95
2, 17760, Note_on_c, 2, 41, 95
2, 18000, Note_off_c, 2, 41, 95
2, 18000, Note_on_c, 2, 40, 95
2, 18240, Note_off_c, 2, 40, 95
2, 18240, Note_on_c, 2, 55, 95
2, 18240, Note_on_c, 2, 48, 95
2, 18480, Note_off_c, 2, 55, 95
2, 18480, Note_off_c, 2, 48, 95
2, 18480, Note_on_c, 2, 43, 95
2, 18583, Note_off_c, 2, 43, 95
2, 18720, Note_on_c, 2, 55, 95
2, 18720, Note_on_c, 2, 48, 95
2, 18960, Note_off_c, 2, 55, 95
2, 18960, Note_off_c, 2, 48, 95
2, 18960, Note_on_c, 2, 63, 95
2, 18960, Note_on_c, 2, 58, 95
2, 18960, Note_on_c, 2, 51, 95
2, 19680, Note_off_c, 2, 63, 95
2, 19680, Note_off_c, 2, 58, 95
2, 19680, Note_off_c, 2, 51, 95
2, 19680, Note_on_c, 2, 63, 95
2, 19680, Note_on_c, 2, 58, 95
2, 19680, Note_on_c, 2, 51, 95
2, 19920, Note_off_c, 2, 63, 95
2, 19920, Note_off_c, 2, 58, 95
2, 19920, Note_off_c, 2, 51, 95
2, 19920, Note_on_c, 2, 63, 95
2, 19920, Note_on_c, 2, 58, 95
2, 19920, Note_on_c, 2, 51, 95
2, 20160, Note_off_c, 2, 63, 95
2, 20160, Note_off_c, 2, 58, 95
2, 20160, Note_off_c, 2, 51, 95
2, 20160, Note_on_c, 2, 63, 95
2, 20160, Note_on_c, 2, 58, 95
2, 20160, Note_on_c, 2, 51, 95
2, 20400, Note_off_c, 2, 63, 95
2, 20400, Note_off_c, 2, 58, 95
2, 20400, Note_off_c, 2, 51, 95
2, 20400, Note_on_c, 2, 63, 95
2, 20400, Note_on_c, 2, 58, 95
2, 20400, Note_on_c, 2, 51, 95
2, 20640, Note_off_c, 2, 63, 95
2, 20640, Note_off_c, 2, 58, 95
2, 20640, Note_off_c, 2, 51, 95
2, 20640, Note_on_c, 2, 63, 95
2, 20640, Note_on_c, 2, 58, 95
2, 20640, Note_on_c, 2, 51, 95
2, 20691, Note_off_c, 2, 63, 95
2, 20691, Note_off_c, 2, 58, 95
2, 20691, Note_off_c, 2, 51, 95
2, 20880, Note_on_c, 2, 63, 95
2, 20880, Note_on_c, 2, 58, 95
2, 20880, Note_on_c, 2, 51, 95
2, 21120, Note_off_c, 2, 63, 95
2, 21120, Note_off_c, 2, 58, 95
2, 21120, Note_off_c, 2, 51, 95
2, 21120, Note_on_c, 2, 63, 95
2, 21120, Note_on_c, 2, 58, 95
2, 21120, Note_on_c, 2, 51, 95
2, 21360, Note_off_c, 2, 63, 95
2, 21360, Note_off_c, 2, 58, 95
2, 21360, Note_off_c, 2, 51, 95
2, 21360, Note_on_c, 2, 65, 95
2, 21360, Note_on_c, 2, 60, 95
2, 21360, Note_on_c, 2, 53, 95
2, 22080, Note_off_c, 2, 65, 95
2, 22080, Note_off_c, 2, 60, 95
2, 22080, Note_off_c, 2, 53, 95
2, 22080, Note_on_c, 2, 55, 95
2, 22080, Note_on_c, 2, 48, 95
2, 22320, Note_off_c, 2, 55, 95
2, 22320, Note_off_c, 2, 48, 95
2, 22320, Note_on_c, 2, 43, 95
2, 22423, Note_off_c, 2, 43, 95
2, 22560, Note_on_c, 2, 55, 95
2, 22560, Note_on_c, 2, 48, 95
2, 22800, Note_off_c, 2, 55, 95
2, 22800, Note_off_c, 2, 48, 95
2, 22800, Note_on_c, 2, 63, 95
2, 22800, Note_on_c, 2, 58, 95
2, 22800, Note_on_c, 2, 51, 95
2, 24240, Note_off_c, 2, 63, 95
2, 24240, Note_off_c, 2, 58, 95
2, 24240, Note_off_c, 2, 51, 95
2, 24240, Note_on_c, 2, 63, 47
2, 24240, Note_on_c, 2, 60, 95
2, 24960, Note_off_c, 2, 63, 47
2, 24960, Note_off_c, 2, 60, 95
2, 25200, Note_on_c, 2, 65, 47
2, 25200, Note_on_c, 2, 59, 95
2, 25680, Note_off_c, 2, 65, 47
2, 25680, Note_off_c, 2, 59, 95
2, 25920, Note_on_c, 2, 55, 95
2, 25920, Note_on_c, 2, 48, 95
2, 26160, Note_off_c, 2, 55, 95
2, 26160, Note_off_c, 2, 48, 95
2, 26160, Note_on_c, 2, 43, 95
2, 26263, Note_off_c, 2, 43, 95
2, 26400, Note_on_c, 2, 55, 95
2, 26400, Note_on_c, 2, 48, 95
2, 26640, Note_off_c, 2, 55, 95
2, 26640, Note_off_c, 2, 48, 95
2, 26640, Note_on_c, 2, 63, 95
2, 26640, Note_on_c, 2, 58, 95
2, 26640, Note_on_c, 2, 51, 95
2, 27360, Note_off_c, 2, 63, 95
2, 27360, Note_off_c, 2, 58, 95
2, 27360, Note_off_c, 2, 51, 95
2, 27360, Note_on_c, 2, 63, 95
2, 27360, Note_on_c, 2, 58, 95
2, 27360, Note_on_c, 2, 51, 95
2, 27600, Note_off_c, 2, 63, 95
2, 27600, Note_off_c, 2, 58, 95
2, 27600, Note_off_c, 2, 51, 95
2, 27600, Note_on_c, 2, 63, 95
2, 27600, Note_on_c, 2, 58, 95
2, 27600, Note_on_c, 2, 51, 95
2, 27840, Note_off_c, 2, 63, 95
2, 27840, Note_off_c, 2, 58, 95
2, 27840, Note_off_c, 2, 51, 95
2, 27840, Note_on_c, 2, 63, 95
2, 27840, Note_on_c, 2, 58, 95
2, 27840, Note_on_c, 2, 51, 95
2, 28080, Note_off_c, 2, 63, 95
2, 28080, Note_off_c, 2, 58, 95
2, 28080, Note_off_c, 2, 51, 95
2, 28080, Note_on_c, 2, 63, 95
2, 28080, Note_on_c, 2, 58, 95
2, 28080, Note_on_c, 2, 51, 95
2, 28320, Note_off_c, 2, 63, 95
2, 28320, Note_off_c, 2, 58, 95
2, 28320, Note_off_c, 2, 51, 95
2, 28320, Note_on_c, 2, 63, 95
2, 28320, Note_on_c, 2, 58, 95
2, 28320, Note_on_c, 2, 51, 95
2, 28371, Note_off_c, 2, 63, 95
2, 28371, Note_off_c, 2, 58, 95
2, 28371, Note_off_c, 2, 51, 95
2, 28560, Note_on_c, 2, 63, 95
2, 28560, Note_on_c, 2, 58, 95
2, 28560, Note_on_c, 2, 51, 95
2, 28611, Note_off_c, 2, 63, 95
2, 28611, Note_off_c, 2, 58, 95
2, 28611, Note_off_c, 2, 51, 95
2, 28800, Note_on_c, 2, 63, 95
2, 28800, Note_on_c, 2, 58, 95
2, 28800, Note_on_c, 2, 51, 95
2, 29040, Note_off_c, 2, 63, 95
2, 29040, Note_off_c, 2, 58, 95
2, 29040, Note_off_c, 2, 51, 95
2, 29040, Note_on_c, 2, 65, 95
2, 29040, Note_on_c, 2, 60, 95
2, 29040, Note_on_c, 2, 53, 95
2, 29760, Note_off_c, 2, 65, 95
2, 29760, Note_off_c, 2, 60, 95
2, 29760, Note_off_c, 2, 53, 95
2, 29760, Note_on_c, 2, 55, 95
2, 29760, Note_on_c, 2, 48, 95
2, 30000, Note_off_c, 2, 55, 95
2, 30000, Note_off_c, 2, 48, 95
2, 30000, Note_on_c, 2, 43, 95
2, 30103, Note_off_c, 2, 43, 95
2, 30240, Note_on_c, 2, 55, 95
2, 30240, Note_on_c, 2, 48, 95
2, 30480, Note_off_c, 2, 55, 95
2, 30480, Note_off_c, 2, 48, 95
2, 30480, Note_on_c, 2, 63, 95
2, 30480, Note_on_c, 2, 58, 95
2, 30480, Note_on_c, 2, 51, 95
2, 31200, Note_off_c, 2, 63, 95
2, 31200, Note_off_c, 2, 58, 95
2, 31200, Note_off_c, 2, 51, 95
2, 31200, Note_on_c, 2, 60, 95
2, 31440, Note_off_c, 2, 60, 95
2, 31440, Note_on_c, 2, 58, 95
2, 31620, Note_on_c, 3, 58, 95
2, 31680, Note_off_c, 2, 58, 95
2, 31680, Note_off_c, 3, 58, 95
2, 31680, Note_on_c, 3, 60, 95
2, 31920, Note_off_c, 3, 60, 95
2, 31920, Note_on_c, 2, 58, 95
2, 32160, Note_off_c, 2, 58, 95
2, 32160, Note_on_c, 2, 55, 95
2, 32400, Note_off_c, 2, 55, 95
2, 32400, Note_on_c, 2, 54, 95
2, 32640, Note_off_c, 2, 54, 95
2, 32640, Note_on_c, 2, 53, 95
2, 32800, Note_off_c, 2, 53, 95
2, 32800, Note_on_c, 2, 54, 70
2, 32960, Note_off_c, 2, 54, 70
2, 32960, Note_on_c, 2, 53, 70
2, 33120, Note_off_c, 2, 53, 70
2, 33120, Note_on_c, 2, 51, 95
2, 33360, Note_off_c, 2, 51, 95
2, 33360, Note_on_c, 2, 48, 95
2, 33600, Note_off_c, 2, 48, 95
2, 33600, Note_on_c, 2, 46, 95
2, 33840, Note_off_c, 2, 46, 95
2, 33840, Note_on_c, 2, 48, 95
2, 34080, Note_off_c, 2, 48, 95
2, 34080, Note_on_c, 2, 48, 95
2, 34320, Note_off_c, 2, 48, 95
2, 34320, Note_on_c, 2, 48, 95
2, 34560, Note_off_c, 2, 48, 95
2, 34560, Note_on_c, 2, 48, 47
2, 34663, Note_off_c, 2, 48, 47
2, 34800, Note_on_c, 2, 48, 47
2, 34903, Note_off_c, 2, 48, 47
2, 35040, Note_on_c, 2, 48, 95
2, 35280, Note_off_c, 2, 48, 95
2, 35280, Note_on_c, 2, 48, 95
2, 35520, Note_off_c, 2, 48, 95
2, 35520, Note_on_c, 2, 46, 95
2, 35760, Note_off_c, 2, 46, 95
2, 35760, Note_on_c, 2, 48, 95
2, 36000, Note_off_c, 2, 48, 95
2, 36000, Note_on_c, 2, 48, 95
2, 36240, Note_off_c, 2, 48, 95
2, 36240, Note_on_c, 2, 48, 95
2, 36480, Note_off_c, 2, 48, 95
2, 36480, Note_on_c, 2, 51, 95
2, 36720, Note_off_c, 2, 51, 95
2, 36720, Note_on_c, 3, 48, 95
2, 36880, Pitch_bend_c, 3, 8192
2, 37040, Pitch_bend_c, 3, 8320
2, 37200, Pitch_bend_c, 3, 8192
2, 37360, Pitch_bend_c, 3, 8320
2, 37440, Pitch_bend_c, 3, 8192
2, 37440, Pitch_bend_c, 3, 8320
2, 37440, Pitch_bend_c, 3, 8192
2, 37440, Note_off_c, 3, 48, 95
2, 37440, Note_on_c, 2, 46, 95
2, 37680, Note_off_c, 2, 46, 95
2, 37680, Note_on_c, 2, 48, 95
2, 37920, Note_off_c, 2, 48, 95
2, 37920, Note_on_c, 2, 48, 95
2, 38160, Note_off_c, 2, 48, 95
2, 38160, Note_on_c, 2, 48, 95
2, 38400, Note_off_c, 2, 48, 95
2, 38400, Note_on_c, 2, 48, 47
2, 38503, Note_off_c, 2, 48, 47
2, 38640, Note_on_c, 2, 48, 47
2, 38743, Note_off_c, 2, 48, 47
2, 38880, Note_on_c, 2, 48, 95
2, 39120, Note_off_c, 2, 48, 95
2, 39120, Note_on_c, 2, 48, 95
2, 39360, Note_off_c, 2, 48, 95
2, 39360, Note_on_c, 2, 40, 95
2, 39600, Note_off_c, 2, 40, 95
2, 39600, Note_on_c, 2, 40, 95
2, 39840, Note_off_c, 2, 40, 95
2, 39840, Note_on_c, 2, 41, 95
2, 40080, Note_off_c, 2, 41, 95
2, 40080, Note_on_c, 2, 41, 95
2, 40320, Note_off_c, 2, 41, 95
2, 40320, Note_on_c, 2, 42, 95
2, 40560, Note_off_c, 2, 42, 95
2, 40560, Note_on_c, 2, 42, 95
2, 40800, Note_off_c, 2, 42, 95
2, 40800, Note_on_c, 2, 43, 95
2, 41040, Note_off_c, 2, 43, 95
2, 41040, Note_on_c, 2, 43, 95
2, 41280, Note_off_c, 2, 43, 95
2, 41280, Note_on_c, 2, 46, 95
2, 41520, Note_off_c, 2, 46, 95
2, 41520, Note_on_c, 2, 48, 95
2, 41760, Note_off_c, 2, 48, 95
2, 41760, Note_on_c, 2, 48, 95
2, 42000, Note_off_c, 2, 48, 95
2, 42000, Note_on_c, 2, 48, 95
2, 42240, Note_off_c, 2, 48, 95
2, 42240, Note_on_c, 2, 48, 47
2, 42343, Note_off_c, 2, 48, 47
2, 42480, Note_on_c, 2, 48, 47
2, 42583, Note_off_c, 2, 48, 47
2, 42720, Note_on_c, 2, 48, 95
2, 42960, Note_off_c, 2, 48, 95
2, 42960, Note_on_c, 2, 48, 95
2, 43200, Note_off_c, 2, 48, 95
2, 43200, Note_on_c, 2, 46, 95
2, 43440, Note_off_c, 2, 46, 95
2, 43440, Note_on_c, 2, 48, 95
2, 43680, Note_off_c, 2, 48, 95
2, 43680, Note_on_c, 2, 48, 95
2, 43920, Note_off_c, 2, 48, 95
2, 43920, Note_on_c, 2, 48, 95
2, 44160, Note_off_c, 2, 48, 95
2, 44160, Note_on_c, 2, 51, 95
2, 44400, Note_off_c, 2, 51, 95
2, 44400, Note_on_c, 3, 48, 95
2, 44560, Pitch_bend_c, 3, 8192
2, 44720, Pitch_bend_c, 3, 8320
2, 44880, Pitch_bend_c, 3, 8192
2, 45040, Pitch_bend_c, 3, 8320
2, 45120, Pitch_bend_c, 3, 8192
2, 45120, Pitch_bend_c, 3, 8320
2, 45120, Pitch_bend_c, 3, 8192
2, 45120, Note_off_c, 3, 48, 95
2, 45120, Note_on_c, 2, 46, 95
2, 45360, Note_off_c, 2, 46, 95
2, 45360, Note_on_c, 2, 48, 95
2, 45600, Note_off_c, 2, 48, 95
2, 45600, Note_on_c, 2, 48, 95
2, 45840, Note_off_c, 2, 48, 95
2, 45840, Note_on_c, 2, 48, 95
2, 46080, Note_off_c, 2, 48, 95
2, 46080, Note_on_c, 2, 48, 47
2, 46183, Note_off_c, 2, 48, 47
2, 46320, Note_on_c, 2, 48, 47
2, 46423, Note_off_c, 2, 48, 47
2, 46560, Note_on_c, 2, 48, 95
2, 46800, Note_off_c, 2, 48, 95
2, 46800, Note_on_c, 2, 48, 95
2, 47040, Note_off_c, 2, 48, 95
2, 47040, Note_on_c, 2, 40, 95
2, 47280, Note_off_c, 2, 40, 95
2, 47280, Note_on_c, 2, 40, 95
2, 47520, Note_off_c, 2, 40, 95
2, 47520, Note_on_c, 2, 41, 95
2, 47760, Note_off_c, 2, 41, 95
2, 47760, Note_on_c, 2, 41, 95
2, 48000, Note_off_c, 2, 41, 95
2, 48000, Note_on_c, 2, 42, 95
2, 48240, Note_off_c, 2, 42, 95
2, 48240, Note_on_c, 2, 42, 95
2, 48480, Note_off_c, 2, 42, 95
2, 48480, Note_on_c, 2, 43, 95
2, 48720, Note_off_c, 2, 43, 95
2, 48720, Note_on_c, 2, 43, 95
2, 48960, Note_off_c, 2, 43, 95
2, 48960, Note_on_c, 2, 46, 95
2, 49200, Note_off_c, 2, 46, 95
2, 49200, Note_on_c, 2, 48, 95
2, 49440, Note_off_c, 2, 48, 95
2, 49920, Pitch_bend_c, 3, 8192
2, 49920, Note_on_c, 3, 69, 95
2, 50064, Pitch_bend_c, 3, 8320
2, 50208, Pitch_bend_c, 3, 8448
2, 50352, Pitch_bend_c, 3, 8576
2, 50496, Pitch_bend_c, 3, 8704
2, 50640, Pitch_bend_c, 3, 8832
2, 50640, Pitch_bend_c, 3, 8832
2, 51360, Pitch_bend_c, 3, 8832
2, 51360, Pitch_bend_c, 3, 8192
2, 51360, Note_off_c, 3, 69, 95
2, 51840, Pitch_bend_c, 3, 8192
2, 51840, Note_on_c, 3, 69, 95
2, 51864, Pitch_bend_c, 3, 8320
2, 51888, Pitch_bend_c, 3, 8448
2, 51912, Pitch_bend_c, 3, 8576
2, 51936, Pitch_bend_c, 3, 8704
2, 51960, Pitch_bend_c, 3, 8832
2, 51960, Pitch_bend_c, 3, 8832
2, 52080, Pitch_bend_c, 3, 8832
2, 52104, Pitch_bend_c, 3, 8704
2, 52128, Pitch_bend_c, 3, 8576
2, 52152, Pitch_bend_c, 3, 8448
2, 52176, Pitch_bend_c, 3, 8320
2, 52200, Pitch_bend_c, 3, 8192
2, 52200, Pitch_bend_c, 3, 8192
2, 52320, Pitch_bend_c, 3, 8192
2, 52320, Pitch_bend_c, 3, 8192
2, 52320, Note_off_c, 3, 69, 95
2, 52320, Note_on_c, 2, 67, 95
2, 52560, Note_off_c, 2, 67, 95
2, 52560, Note_on_c, 2, 65, 95
2, 52800, Note_off_c, 2, 65, 95
2, 52800, Note_on_c, 2, 67, 95
2, 53040, Note_off_c, 2, 67, 95
2, 53040, Note_on_c, 3, 63, 95
2, 53200, Pitch_bend_c, 3, 8192
2, 53360, Pitch_bend_c, 3, 8320
2, 53520, Pitch_bend_c, 3, 8192
2, 53680, Pitch_bend_c, 3, 8320
2, 53760, Pitch_bend_c, 3, 8192
2, 53760, Pitch_bend_c, 3, 8320
2, 53760, Pitch_bend_c, 3, 8192
2, 53760, Note_off_c, 3, 63, 95
2, 53760, Pitch_bend_c, 3, 8192
2, 53760, Note_on_c, 3, 65, 95
2, 53784, Pitch_bend_c, 3, 8320
2, 53808, Pitch_bend_c, 3, 8448
2, 53832, Pitch_bend_c, 3, 8576
2, 53856, Pitch_bend_c, 3, 8704
2, 53880, Pitch_bend_c, 3, 8832
2, 53880, Pitch_bend_c, 3, 8832
2, 54000, Pitch_bend_c, 3, 8832
2, 54024, Pitch_bend_c, 3, 8704
2, 54048, Pitch_bend_c, 3, 8576
2, 54072, Pitch_bend_c, 3, 8448
2, 54096, Pitch_bend_c, 3, 8320
2, 54120, Pitch_bend_c, 3, 8192
2, 54120, Pitch_bend_c, 3, 8192
2, 54240, Pitch_bend_c, 3, 8192
2, 54240, Pitch_bend_c, 3, 8192
2, 54240, Note_off_c, 3, 65, 95
2, 54240, Note_on_c, 2, 63, 95
2, 54480, Note_off_c, 2, 63, 95
2, 54480, Note_on_c, 2, 60, 95
2, 54720, Note_off_c, 2, 60, 95
2, 54720, Note_on_c, 2, 65, 95
2, 54960, Note_off_c, 2, 65, 95
2, 54960, Pitch_bend_c, 3, 8192
2, 54960, Note_on_c, 3, 63, 95
2, 55036, Pitch_bend_c, 3, 8320
2, 55112, Pitch_bend_c, 3, 8448
2, 55188, Pitch_bend_c, 3, 8576
2, 55264, Pitch_bend_c, 3, 8704
2, 55340, Pitch_bend_c, 3, 8832
2, 55416, Pitch_bend_c, 3, 8960
2, 55492, Pitch_bend_c, 3, 9088
2, 55568, Pitch_bend_c, 3, 9216
2, 55644, Pitch_bend_c, 3, 9344
2, 55720, Pitch_bend_c, 3, 9472
2, 55796, Pitch_bend_c, 3, 9600
2, 55800, Pitch_bend_c, 3, 9600
2, 56640, Pitch_bend_c, 3, 9600
2, 56640, Pitch_bend_c, 3, 8192
2, 56640, Note_off_c, 3, 63, 95
2, 57600, Note_on_c, 2, 74, 95
2, 57840, Note_off_c, 2, 74, 95
2, 57840, Note_on_c, 2, 75, 95
2, 57960, Note_off_c, 2, 75, 95
2, 57960, Note_on_c, 2, 74, 70
2, 58080, Note_off_c, 2, 74, 70
2, 58080, Note_on_c, 2, 72, 95
2, 58320, Note_off_c, 2, 72, 95
2, 58320, Note_on_c, 2, 70, 95
2, 58560, Note_off_c, 2, 70, 95
2, 58560, Note_on_c, 2, 69, 95
2, 58800, Note_off_c, 2, 69, 95
2, 58800, Note_on_c, 2, 67, 95
2, 59040, Note_off_c, 2, 67, 95
2, 59040, Note_on_c, 2, 65, 95
2, 59280, Note_off_c, 2, 65, 95
2, 59280, Pitch_bend_c, 3, 8192
2, 59280, Note_on_c, 3, 63, 95
2, 59328, Pitch_bend_c, 3, 8320
2, 59376, Pitch_bend_c, 3, 8448
2, 59424, Pitch_bend_c, 3, 8576
2, 59472, Pitch_bend_c, 3, 8704
2, 59520, Pitch_bend_c, 3, 8832
2, 59520, Pitch_bend_c, 3, 8832
2, 59760, Pitch_bend_c, 3, 8832
2, 59760, Pitch_bend_c, 3, 8192
2, 59760, Note_off_c, 3, 63, 95
2, 59760, Note_on_c, 2, 72, 95
2, 60000, Note_off_c, 2, 72, 95
2, 60000, Note_on_c, 2, 70, 95
2, 60240, Note_off_c, 2, 70, 95
2, 60240, Note_on_c, 2, 67, 95
2, 60480, Note_off_c, 2, 67, 95
2, 60480, Note_on_c, 2, 66, 95
2, 60640, Note_off_c, 2, 66, 95
2, 60640, Note_on_c, 2, 65, 95
2, 60800, Note_off_c, 2, 65, 95
2, 60800, Note_on_c, 2, 63, 95
2, 60960, Note_off_c, 2, 63, 95
2, 60960, Note_on_c, 2, 65, 95
2, 61200, Note_off_c, 2, 65, 95
2, 61200, Note_on_c, 2, 60, 95
2, 61440, Note_off_c, 2, 60, 95
2, 61440, Pitch_bend_c, 3, 8192
2, 61440, Note_on_c, 3, 63, 95
2, 61560, Pitch_bend_c, 3, 8320
2, 61680, Pitch_bend_c, 3, 8448
2, 61680, Pitch_bend_c, 3, 8448
2, 61920, Pitch_bend_c, 3, 8448
2, 61920, Pitch_bend_c, 3, 8192
2, 61920, Note_off_c, 3, 63, 95
2, 61920, Note_on_c, 2, 65, 95
2, 62160, Note_off_c, 2, 65, 95
2, 62160, Note_on_c, 2, 60, 95
2, 62400, Note_off_c, 2, 60, 95
2, 62400, Note_on_c, 2, 58, 95
2, 62640, Note_off_c, 2, 58, 95
2, 62640, Note_on_c, 2, 59, 95
2, 62880, Note_off_c, 2, 59, 95
2, 62880, Note_on_c, 2, 60, 95
2, 63120, Note_off_c, 2, 60, 95
2, 63120, Note_on_c, 2, 65, 95
2, 63360, Note_off_c, 2, 65, 95
2, 63360, Note_on_c, 2, 63, 95
2, 63840, Note_off_c, 2, 63, 95
2, 63840, Note_on_c, 3, 63, 47
2, 64260, Note_on_c, 3, 78, 95
2, 64320, Note_off_c, 3, 63, 47
2, 64320, Note_off_c, 3, 78, 95
2, 64320, Note_on_c, 3, 79, 95
2, 64560, Note_off_c, 3, 79, 95
2, 64560, Note_on_c, 2, 79, 95
2, 64800, Note_off_c, 2, 79, 95
2, 64800, Note_on_c, 2, 84, 95
2, 65040, Note_off_c, 2, 84, 95
2, 65040, Pitch_bend_c, 3, 8192
2, 65040, Note_on_c, 3, 77, 95
2, 65088, Pitch_bend_c, 3, 8320
2, 65136, Pitch_bend_c, 3, 8448
2, 65184, Pitch_bend_c, 3, 8576
2, 65232, Pitch_bend_c, 3, 8704
2, 65280, Pitch_bend_c, 3, 8832
2, 65280, Pitch_bend_c, 3, 8832
2, 65520, Pitch_bend_c, 3, 8832
2, 65520, Pitch_bend_c, 3, 8192
2, 65520, Note_off_c, 3, 77, 95
2, 65520, Note_on_c, 2, 75, 95
2, 65760, Note_off_c, 2, 75, 95
2, 65760, Note_on_c, 2, 77, 95
2, 66000, Note_off_c, 2, 77, 95
2, 66000, Note_on_c, 2, 72, 95
2, 66720, Note_off_c, 2, 72, 95
2, 66720, Note_on_c, 2, 67, 95
2, 66960, Note_off_c, 2, 67, 95
2, 66960, Note_on_c, 2, 70, 95
2, 67200, Note_off_c, 2, 70, 95
2, 67200, Note_on_c, 2, 74, 95
2, 67360, Note_off_c, 2, 74, 95
2, 67360, Note_on_c, 2, 72, 95
2, 67520, Note_off_c, 2, 72, 95
2, 67520, Note_on_c, 2, 70, 95
2, 67680, Note_off_c, 2, 70, 95
2, 67680, Note_on_c, 2, 74, 95
2, 67840, Note_off_c, 2, 74, 95
2, 67840, Note_on_c, 2, 70, 95
2, 68160, Note_off_c, 2, 70, 95
2, 68160, Note_on_c, 3, 72, 95
2, 68280, Pitch_bend_c, 3, 8192
2, 68400, Pitch_bend_c, 3, 8192
2, 68520, Pitch_bend_c, 3, 8192
2, 68640, Pitch_bend_c, 3, 8192
2, 68640, Pitch_bend_c, 3, 8192
2, 68640, Note_off_c, 3, 72, 95
2, 68640, Note_on_c, 2, 72, 95
2, 68880, Note_off_c, 2, 72, 95
2, 68880, Note_on_c, 2, 70, 95
2, 69120, Note_off_c, 2, 70, 95
2, 69120, Note_on_c, 2, 67, 95
2, 69360, Note_off_c, 2, 67, 95
2, 69360, Note_on_c, 2, 65, 95
2, 69600, Note_off_c, 2, 65, 95
2, 69600, Note_on_c, 2, 67, 95
2, 69840, Note_off_c, 2, 67, 95
2, 69840, Note_on_c, 2, 63, 95
2, 70080, Note_off_c, 2, 63, 95
2, 70080, Note_on_c, 3, 60, 95
2, 70240, Pitch_bend_c, 3, 8192
2, 70400, Pitch_bend_c, 3, 8320
2, 70560, Pitch_bend_c, 3, 8192
2, 70720, Pitch_bend_c, 3, 8320
2, 70880, Pitch_bend_c, 3, 8192
2, 71040, Pitch_bend_c, 3, 8320
2, 71200, Pitch_bend_c, 3, 8192
2, 71360, Pitch_bend_c, 3, 8320
2, 71520, Pitch_bend_c, 3, 8192
2, 71680, Pitch_bend_c, 3, 8320
2, 71840, Pitch_bend_c, 3, 8192
2, 72000, Pitch_bend_c, 3, 8320
2, 72000, Pitch_bend_c, 3, 8192
2, 72000, Note_off_c, 3, 60, 95
2, 72000, Pitch_bend_c, 3, 8192
2, 72000, Note_on_c, 3, 74, 95
2, 72030, Pitch_bend_c, 3, 8320
2, 72060, Pitch_bend_c, 3, 8448
2, 72090, Pitch_bend_c, 3, 8576
2, 72120, Pitch_bend_c, 3, 8704
2, 72150, Pitch_bend_c, 3, 8832
2, 72180, Pitch_bend_c, 3, 8960
2, 72210, Pitch_bend_c, 3, 9088
2, 72240, Pitch_bend_c, 3, 9216
2, 72240, Pitch_bend_c, 3, 9216
2, 72480, Pitch_bend_c, 3, 9216
2, 72480, Pitch_bend_c, 3, 8192
2, 72480, Note_off_c, 3, 74, 95
2, 72480, Note_on_c, 2, 76, 95
2, 72720, Note_off_c, 2, 76, 95
2, 72720, Note_on_c, 3, 72, 95
2, 72880, Pitch_bend_c, 3, 8192
2, 73040, Pitch_bend_c, 3, 8320
2, 73200, Pitch_bend_c, 3, 8192
2, 73360, Pitch_bend_c, 3, 8320
2, 73440, Pitch_bend_c, 3, 8192
2, 73440, Pitch_bend_c, 3, 8320
2, 73440, Pitch_bend_c, 3, 8192
2, 73440, Note_off_c, 3, 72, 95
2, 73440, Pitch_bend_c, 3, 8192
2, 73440, Note_on_c, 3, 70, 95
2, 73461, Pitch_bend_c, 3, 8320
2, 73482, Pitch_bend_c, 3, 8448
2, 73503, Pitch_bend_c, 3, 8576
2, 73524, Pitch_bend_c, 3, 8704
2, 73545, Pitch_bend_c, 3, 8832
2, 73566, Pitch_bend_c, 3, 8960
2, 73587, Pitch_bend_c, 3, 9088
2, 73608, Pitch_bend_c, 3, 9216
2, 73629, Pitch_bend_c, 3, 9344
2, 73650, Pitch_bend_c, 3, 9472
2, 73671, Pitch_bend_c, 3, 9600
2, 73680, Pitch_bend_c, 3, 9600
2, 73920, Pitch_bend_c, 3, 9600
2, 73920, Pitch_bend_c, 3, 8192
2, 73920, Note_off_c, 3, 70, 95
2, 73920, Note_on_c, 2, 72, 95
2, 74160, Note_off_c, 2, 72, 95
2, 74160, Note_on_c, 3, 67, 95
2, 74320, Pitch_bend_c, 3, 8192
2, 74480, Pitch_bend_c, 3, 8320
2, 74640, Pitch_bend_c, 3, 8192
2, 74800, Pitch_bend_c, 3, 8320
2, 74880, Pitch_bend_c, 3, 8192
2, 74880, Pitch_bend_c, 3, 8320
2, 74880, Pitch_bend_c, 3, 8192
2, 74880, Note_off_c, 3, 67, 95
2, 74880, Pitch_bend_c, 3, 8192
2, 74880, Note_on_c, 3, 66, 95
2, 74910, Pitch_bend_c, 3, 8320
2, 74940, Pitch_bend_c, 3, 8448
2, 74970, Pitch_bend_c, 3, 8576
2, 75000, Pitch_bend_c, 3, 8704
2, 75030, Pitch_bend_c, 3, 8832
2, 75060, Pitch_bend_c, 3, 8960
2, 75090, Pitch_bend_c, 3, 9088
2, 75120, Pitch_bend_c, 3, 9216
2, 75120, Pitch_bend_c, 3, 9216
2, 75360, Pitch_bend_c, 3, 9216
2, 75360, Pitch_bend_c, 3, 8192
2, 75360, Note_off_c, 3, 66, 95
2, 75360, Note_on_c, 2, 67, 95
2, 75600, Note_off_c, 2, 67, 95
2, 75600, Note_on_c, 3, 63, 95
2, 75760, Pitch_bend_c, 3, 8192
2, 75920, Pitch_bend_c, 3, 8320
2, 76080, Pitch_bend_c, 3, 8192
2, 76240, Pitch_bend_c, 3, 8320
2, 76320, Pitch_bend_c, 3, 8192
2, 76320, Pitch_bend_c, 3, 8320
2, 76320, Pitch_bend_c, 3, 8192
2, 76320, Note_off_c, 3, 63, 95
2, 76320, Note_on_c, 2, 60, 95
2, 76800, Note_off_c, 2, 60, 95
2, 76800, Note_on_c, 2, 67, 95
2, 76800, Note_on_c, 2, 63, 95
2, 77040, Note_off_c, 2, 67, 95
2, 77040, Note_off_c, 2, 63, 95
2, 77040, Note_on_c, 3, 60, 95
2, 77200, Pitch_bend_c, 3, 8192
2, 77360, Pitch_bend_c, 3, 8320
2, 77520, Pitch_bend_c, 3, 8192
2, 77680, Pitch_bend_c, 3, 8320
2, 77760, Pitch_bend_c, 3, 8192
2, 77760, Pitch_bend_c, 3, 8320
2, 77760, Pitch_bend_c, 3, 8192
2, 77760, Note_off_c, 3, 60, 95
2, 77760, Note_on_c, 2, 55, 47
2, 78240, Note_off_c, 2, 55, 47
2, 78240, Note_on_c, 2, 64, 47
2, 78240, Note_on_c, 2, 60, 47
2, 78480, Note_off_c, 2, 64, 47
2, 78480, Note_off_c, 2, 60, 47
2, 78480, Note_on_c, 3, 51, 47
2, 78640, Pitch_bend_c, 3, 8192
2, 78800, Pitch_bend_c, 3, 8320
2, 78960, Pitch_bend_c, 3, 8192
2, 79120, Pitch_bend_c, 3, 8320
2, 79280, Pitch_bend_c, 3, 8192
2, 79440, Pitch_bend_c, 3, 8320
2, 79600, Pitch_bend_c, 3, 8192
2, 79680, Pitch_bend_c, 3, 8320
2, 79680, Pitch_bend_c, 3, 8192
2, 79680, Note_off_c, 3, 51, 47
2, 79680, Pitch_bend_c, 3, 8192
2, 79680, Note_on_c, 3, 88, 95
2, 79728, Pitch_bend_c, 3, 8320
2, 79776, Pitch_bend_c, 3, 8448
2, 79824, Pitch_bend_c, 3, 8576
2, 79872, Pitch_bend_c, 3, 8704
2, 79920, Pitch_bend_c, 3, 8832
2, 79920, Pitch_bend_c, 3, 8832
2, 80160, Pitch_bend_c, 3, 8832
2, 80160, Pitch_bend_c, 3, 8192
2, 80160, Note_off_c, 3, 88, 95
2, 80160, Note_on_c, 3, 86, 95
2, 80320, Pitch_bend_c, 3, 8192
2, 80400, Pitch_bend_c, 3, 8320
2, 80400, Pitch_bend_c, 3, 8192
2, 80400, Note_off_c, 3, 86, 95
2, 80400, Note_on_c, 3, 84, 95
2, 80560, Pitch_bend_c, 3, 8192
2, 80640, Pitch_bend_c, 3, 8320
2, 80640, Pitch_bend_c, 3, 8192
2, 80640, Note_off_c, 3, 84, 95
2, 80640, Note_on_c, 3, 83, 95
2, 80800, Pitch_bend_c, 3, 8192
2, 80880, Pitch_bend_c, 3, 8320
2, 80880, Pitch_bend_c, 3, 8192
2, 80880, Note_off_c, 3, 83, 95
2, 80880, Note_on_c, 3, 81, 95
2, 81040, Pitch_bend_c, 3, 8192
2, 81200, Pitch_bend_c, 3, 8320
2, 81360, Pitch_bend_c, 3, 8192
2, 81360, Pitch_bend_c, 3, 8320
2, 81360, Pitch_bend_c, 3, 8192
2, 81360, Note_off_c, 3, 81, 95
2, 81360, Note_on_c, 3, 79, 95
2, 81480, Pitch_bend_c, 3, 7168
2, 81600, Pitch_bend_c, 3, 6144
2, 81600, Pitch_bend_c, 3, 8192
2, 81600, Note_off_c, 3, 79, 95
2, 81600, Pitch_bend_c, 3, 8192
2, 81600, Note_on_c, 3, 76, 95
2, 81720, Pitch_bend_c, 3, 8320
2, 81840, Pitch_bend_c, 3, 8448
2, 81840, Pitch_bend_c, 3, 8448
2, 82080, Pitch_bend_c, 3, 8448
2, 82080, Pitch_bend_c, 3, 8192
2, 82080, Note_off_c, 3, 76, 95
2, 82080, Note_on_c, 3, 74, 95
2, 82240, Pitch_bend_c, 3, 8192
2, 82320, Pitch_bend_c, 3, 8320
2, 82320, Pitch_bend_c, 3, 8192
2, 82320, Note_off_c, 3, 74, 95
2, 82320, Note_on_c, 3, 72, 95
2, 82480, Pitch_bend_c, 3, 8192
2, 82560, Pitch_bend_c, 3, 8320
2, 82560, Pitch_bend_c, 3, 8192
2, 82560, Note_off_c, 3, 72, 95
2, 82560, Note_on_c, 3, 71, 95
2, 82720, Pitch_bend_c, 3, 8192
2, 82800, Pitch_bend_c, 3, 8320
2, 82800, Pitch_bend_c, 3, 8192
2, 82800, Note_off_c, 3, 71, 95
2, 82800, Note_on_c, 3, 69, 95
2, 82960, Pitch_bend_c, 3, 8192
2, 83120, Pitch_bend_c, 3, 8320
2, 83280, Pitch_bend_c, 3, 8192
2, 83280, Pitch_bend_c, 3, 8320
2, 83280, Pitch_bend_c, 3, 8192
2, 83280, Note_off_c, 3, 69, 95
2, 83280, Note_on_c, 3, 67, 95
2, 83400, Pitch_bend_c, 3, 7168
2, 83520, Pitch_bend_c, 3, 6144
2, 83520, Pitch_bend_c, 3, 8192
2, 83520, Note_off_c, 3, 67, 95
2, 83520, Pitch_bend_c, 3, 8192
2, 83520, Note_on_c, 3, 64, 95
2, 83640, Pitch_bend_c, 3, 8320
2, 83760, Pitch_bend_c, 3, 8448
2, 83760, Pitch_bend_c, 3, 8448
2, 84000, Pitch_bend_c, 3, 8448
2, 84000, Pitch_bend_c, 3, 8192
2, 84000, Note_off_c, 3, 64, 95
2, 84000, Note_on_c, 3, 62, 95
2, 84160, Pitch_bend_c, 3, 8192
2, 84240, Pitch_bend_c, 3, 8320
2, 84240, Pitch_bend_c, 3, 8192
2, 84240, Note_off_c, 3, 62, 95
2, 84240, Note_on_c, 3, 60, 95
2, 84400, Pitch_bend_c, 3, 8192
2, 84480, Pitch_bend_c, 3, 8320
2, 84480, Pitch_bend_c, 3, 8192
2, 84480, Note_off_c, 3, 60, 95
2, 84480, Note_on_c, 3, 59, 95
2, 84640, Pitch_bend_c, 3, 8192
2, 84720, Pitch_bend_c, 3, 8320
2, 84720, Pitch_bend_c, 3, 8192
2, 84720, Note_off_c, 3, 59, 95
2, 84720, Note_on_c, 3, 57, 95
2, 84880, Pitch_bend_c, 3, 8192
2, 85040, Pitch_bend_c, 3, 8320
2, 85200, Pitch_bend_c, 3, 8192
2, 85360, Pitch_bend_c, 3, 8320
2, 85440, Pitch_bend_c, 3, 8192
2, 85440, Pitch_bend_c, 3, 8320
2, 85440, Pitch_bend_c, 3, 8192
2, 85440, Note_off_c, 3, 57, 95
2, 85440, Note_on_c, 2, 55, 95
2, 85600, Note_off_c, 2, 55, 95
2, 85600, Note_on_c, 2, 57, 95
2, 85760, Note_off_c, 2, 57, 95
2, 85760, Note_on_c, 2, 59, 95
2, 85920, Note_off_c, 2, 59, 95
2, 85920, Note_on_c, 2, 60, 95
2, 86080, Note_off_c, 2, 60, 95
2, 86080, Note_on_c, 2, 61, 95
2, 86240, Note_off_c, 2, 61, 95
2, 86240, Note_on_c, 2, 62, 95
2, 86400, Note_off_c, 2, 62, 95
2, 86400, Note_on_c, 2, 60, 95
2, 86560, Note_off_c, 2, 60, 95
2, 86560, Note_on_c, 2, 61, 95
2, 86720, Note_off_c, 2, 61, 95
2, 86720, Note_on_c, 2, 62, 95
2, 86880, Note_off_c, 2, 62, 95
2, 86880, Note_on_c, 2, 65, 95
2, 87040, Note_off_c, 2, 65, 95
2, 87040, Note_on_c, 2, 66, 95
2, 87200, Note_off_c, 2, 66, 95
2, 87200, Note_on_c, 2, 67, 95
2, 87360, Note_off_c, 2, 67, 95
2, 87360, Note_on_c, 2, 61, 95
2, 87520, Note_off_c, 2, 61, 95
2, 87520, Note_on_c, 2, 63, 95
2, 87680, Note_off_c, 2, 63, 95
2, 87680, Note_on_c, 2, 65, 95
2, 87840, Note_off_c, 2, 65, 95
2, 87840, Note_on_c, 2, 71, 95
2, 88000, Note_off_c, 2, 71, 95
2, 88000, Note_on_c, 2, 65, 95
2, 88160, Note_off_c, 2, 65, 95
2, 88160, Note_on_c, 2, 63, 95
2, 88320, Note_off_c, 2, 63, 95
2, 88320, Note_on_c, 2, 61, 95
2, 88480, Note_off_c, 2, 61, 95
2, 88480, Note_on_c, 2, 63, 95
2, 88640, Note_off_c, 2, 63, 95
2, 88640, Note_on_c, 2, 65, 95
2, 88800, Note_off_c, 2, 65, 95
2, 88800, Note_on_c, 2, 71, 95
2, 88960, Note_off_c, 2, 71, 95
2, 88960, Note_on_c, 2, 73, 95
2, 89120, Note_off_c, 2, 73, 95
2, 89120, Note_on_c, 2, 75, 95
2, 89280, Note_off_c, 2, 75, 95
2, 89280, Note_on_c, 2, 73, 95
2, 89440, Note_off_c, 2, 73, 95
2, 89440, Note_on_c, 2, 71, 95
2, 89600, Note_off_c, 2, 71, 95
2, 89600, Note_on_c, 2, 69, 95
2, 89760, Note_off_c, 2, 69, 95
2, 89760, Note_on_c, 2, 73, 95
2, 89920, Note_off_c, 2, 73, 95
2, 89920, Note_on_c, 2, 65, 95
2, 90080, Note_off_c, 2, 65, 95
2, 90080, Note_on_c, 2, 63, 95
2, 90240, Note_off_c, 2, 63, 95
2, 90240, Note_on_c, 2, 61, 95
2, 90400, Note_off_c, 2, 61, 95
2, 90400, Note_on_c, 2, 63, 95
2, 90560, Note_off_c, 2, 63, 95
2, 90560, Note_on_c, 2, 65, 95
2, 90720, Note_off_c, 2, 65, 95
2, 90720, Note_on_c, 2, 71, 95
2, 90880, Note_off_c, 2, 71, 95
2, 90880, Note_on_c, 2, 73, 95
2, 91040, Note_off_c, 2, 73, 95
2, 91040, Note_on_c, 2, 75, 95
2, 91200, Note_off_c, 2, 75, 95
2, 91200, Note_on_c, 2, 73, 95
2, 91440, Note_off_c, 2, 73, 95
2, 91440, Note_on_c, 3, 63, 95
2, 91560, Pitch_bend_c, 3, 7552
2, 91680, Pitch_bend_c, 3, 6784
2, 91680, Pitch_bend_c, 3, 8192
2, 91680, Note_off_c, 3, 63, 95
2, 91680, Note_on_c, 2, 61, 95
2, 91920, Note_off_c, 2, 61, 95
2, 91920, Note_on_c, 3, 71, 95
2, 92040, Pitch_bend_c, 3, 8832
2, 92160, Pitch_bend_c, 3, 9600
2, 92160, Pitch_bend_c, 3, 8192
2, 92160, Note_off_c, 3, 71, 95
2, 92160, Note_on_c, 2, 73, 95
2, 92400, Note_off_c, 2, 73, 95
2, 92400, Note_on_c, 3, 61, 95
2, 92520, Pitch_bend_c, 3, 6784
2, 92640, Pitch_bend_c, 3, 5376
2, 92640, Pitch_bend_c, 3, 8192
2, 92640, Note_off_c, 3, 61, 95
2, 92640, Note_on_c, 2, 57, 95
2, 92880, Note_off_c, 2, 57, 95
2, 92880, Note_on_c, 3, 69, 95
2, 93000, Pitch_bend_c, 3, 8832
2, 93120, Pitch_bend_c, 3, 9600
2, 93120, Pitch_bend_c, 3, 8192
2, 93120, Note_off_c, 3, 69, 95
2, 93120, Note_on_c, 2, 71, 95
2, 93360, Note_off_c, 2, 71, 95
2, 93360, Note_on_c, 3, 59, 95
2, 93480, Pitch_bend_c, 3, 6784
2, 93600, Pitch_bend_c, 3, 5376
2, 93600, Pitch_bend_c, 3, 8192
2, 93600, Note_off_c, 3, 59, 95
2, 93600, Note_on_c, 2, 55, 95
2, 93840, Note_off_c, 2, 55, 95
2, 93840, Note_on_c, 2, 69, 95
2, 94080, Note_off_c, 2, 69, 95
2, 94080, Note_on_c, 3, 67, 95
2, 94240, Pitch_bend_c, 3, 8192
2, 94400, Pitch_bend_c, 3, 8320
2, 94560, Pitch_bend_c, 3, 8192
2, 94720, Pitch_bend_c, 3, 8320
2, 94880, Pitch_bend_c, 3, 8192
2, 95040, Pitch_bend_c, 3, 8320
2, 95040, Pitch_bend_c, 3, 8192
2, 95040, Note_off_c, 3, 67, 95
2, 95040, Pitch_bend_c, 3, 8192
2, 95040, Note_on_c, 3, 81, 95
2, 95136, Pitch_bend_c, 3, 8320
2, 95232, Pitch_bend_c, 3, 8448
2, 95328, Pitch_bend_c, 3, 8576
2, 95424, Pitch_bend_c, 3, 8704
2, 95520, Pitch_bend_c, 3, 8832
2, 95520, Pitch_bend_c, 3, 8832
2, 96000, Pitch_bend_c, 3, 8832
2, 96000, Pitch_bend_c, 3, 8192
2, 96000, Note_off_c, 3, 81, 95
2, 96000, Pitch_bend_c, 3, 8192
2, 96000, Note_on_c, 3, 81, 95
2, 96192, Pitch_bend_c, 3, 8320
2, 96384, Pitch_bend_c, 3, 8448
2, 96576, Pitch_bend_c, 3, 8576
2, 96768, Pitch_bend_c, 3, 8704
2, 96960, Pitch_bend_c, 3, 8832
2, 96960, Pitch_bend_c, 3, 8832
2, 97920, Pitch_bend_c, 3, 8832
2, 97920, Pitch_bend_c, 3, 8192
2, 97920, Note_off_c, 3, 81, 95
2, 97920, Pitch_bend_c, 3, 8192
2, 97920, Note_on_c, 3, 81, 95
2, 97944, Pitch_bend_c, 3, 8320
2, 97968, Pitch_bend_c, 3, 8448
2, 97992, Pitch_bend_c, 3, 8576
2, 98016, Pitch_bend_c, 3, 8704
2, 98040, Pitch_bend_c, 3, 8832
2, 98040, Pitch_bend_c, 3, 8832
2, 98160, Pitch_bend_c, 3, 8832
2, 98184, Pitch_bend_c, 3, 8704
2, 98208, Pitch_bend_c, 3, 8576
2, 98232, Pitch_bend_c, 3, 8448
2, 98256, Pitch_bend_c, 3, 8320
2, 98280, Pitch_bend_c, 3, 8192
2, 98280, Pitch_bend_c, 3, 8192
2, 98400, Pitch_bend_c, 3, 8192
2, 98400, Pitch_bend_c, 3, 8192
2, 98400, Note_off_c, 3, 81, 95
2, 98400, Note_on_c, 2, 79, 95
2, 98640, Note_off_c, 2, 79, 95
2, 98640, Note_on_c, 2, 77, 95
2, 98880, Note_off_c, 2, 77, 95
2, 98880, Note_on_c, 2, 79, 95
2, 99120, Note_off_c, 2, 79, 95
2, 99120, Note_on_c, 2, 75, 95
2, 99840, Note_off_c, 2, 75, 95
2, 99840, Pitch_bend_c, 3, 8192
2, 99840, Note_on_c, 3, 78, 95
2, 99876, Pitch_bend_c, 3, 8320
2, 99912, Pitch_bend_c, 3, 8448
2, 99948, Pitch_bend_c, 3, 8576
2, 99984, Pitch_bend_c, 3, 8704
2, 100020, Pitch_bend_c, 3, 8832
2, 100020, Pitch_bend_c, 3, 8832
2, 100200, Pitch_bend_c, 3, 8832
2, 100200, Pitch_bend_c, 3, 8192
2, 100200, Note_off_c, 3, 78, 95
2, 100200, Note_on_c, 2, 79, 95
2, 100320, Note_off_c, 2, 79, 95
2, 100320, Note_on_c, 2, 77, 95
2, 100440, Note_off_c, 2, 77, 95
2, 100440, Note_on_c, 2, 75, 95
2, 100560, Note_off_c, 2, 75, 95
2, 100560, Note_on_c, 2, 72, 95
2, 100800, Note_off_c, 2, 72, 95
2, 100800, Note_on_c, 2, 77, 95
2, 101040, Note_off_c, 2, 77, 95
2, 101040, Pitch_bend_c, 3, 8192
2, 101040, Note_on_c, 3, 75, 95
2, 101072, Pitch_bend_c, 3, 8320
2, 101104, Pitch_bend_c, 3, 8448
2, 101136, Pitch_bend_c, 3, 8576
2, 101168, Pitch_bend_c, 3, 8704
2, 101200, Pitch_bend_c, 3, 8832
2, 101232, Pitch_bend_c, 3, 8960
2, 101264, Pitch_bend_c, 3, 9088
2, 101296, Pitch_bend_c, 3, 9216
2, 101328, Pitch_bend_c, 3, 9344
2, 101360, Pitch_bend_c, 3, 9472
2, 101392, Pitch_bend_c, 3, 9600
2, 101400, Pitch_bend_c, 3, 9600
2, 101760, Pitch_bend_c, 3, 9600
2, 101760, Pitch_bend_c, 3, 8192
2, 101760, Note_off_c, 3, 75, 95
2, 101760, Pitch_bend_c, 3, 8192
2, 101760, Note_on_c, 3, 75, 95
2, 101803, Pitch_bend_c, 3, 8320
2, 101846, Pitch_bend_c, 3, 8448
2, 101889, Pitch_bend_c, 3, 8576
2, 101932, Pitch_bend_c, 3, 8704
2, 101975, Pitch_bend_c, 3, 8832
2, 102018, Pitch_bend_c, 3, 8960
2, 102061, Pitch_bend_c, 3, 9088
2, 102104, Pitch_bend_c, 3, 9216
2, 102147, Pitch_bend_c, 3, 9344
2, 102190, Pitch_bend_c, 3, 9472
2, 102233, Pitch_bend_c, 3, 9600
2, 102240, Pitch_bend_c, 3, 9600
2, 102720, Pitch_bend_c, 3, 9600
2, 102720, Pitch_bend_c, 3, 8192
2, 102720, Note_off_c, 3, 75, 95
2, 103440, Note_on_c, 2, 74, 95
2, 103680, Note_off_c, 2, 74, 95
2, 103680, Note_on_c, 2, 75, 95
2, 103920, Note_off_c, 2, 75, 95
2, 103920, Note_on_c, 2, 77, 95
2, 104160, Note_off_c, 2, 77, 95
2, 104160, Note_on_c, 2, 79, 95
2, 104400, Note_off_c, 2, 79, 95
2, 104400, Note_on_c, 2, 82, 95
2, 104640, Note_off_c, 2, 82, 95
2, 104640, Pitch_bend_c, 3, 8192
2, 104640, Note_on_c, 3, 82, 95
2, 104661, Pitch_bend_c, 3, 8320
2, 104682, Pitch_bend_c, 3, 8448
2, 104703, Pitch_bend_c, 3, 8576
2, 104724, Pitch_bend_c, 3, 8704
2, 104745, Pitch_bend_c, 3, 8832
2, 104766, Pitch_bend_c, 3, 8960
2, 104787, Pitch_bend_c, 3, 9088
2, 104808, Pitch_bend_c, 3, 9216
2, 104829, Pitch_bend_c, 3, 9344
2, 104850, Pitch_bend_c, 3, 9472
2, 104871, Pitch_bend_c, 3, 9600
2, 104880, Pitch_bend_c, 3, 9600
2, 105120, Pitch_bend_c, 3, 9600
2, 105120, Pitch_bend_c, 3, 8192
2, 105120, Note_off_c, 3, 82, 95
2, 105120, Note_on_c, 2, 84, 95
2, 105280, Note_off_c, 2, 84, 95
2, 105280, Note_on_c, 2, 82, 95
2, 105440, Note_off_c, 2, 82, 95
2, 105440, Note_on_c, 2, 79, 95
2, 105600, Note_off_c, 2, 79, 95
2, 105600, Pitch_bend_c, 3, 8192
2, 105600, Note_on_c, 3, 85, 95
2, 105610, Pitch_bend_c, 3, 8320
2, 105620, Pitch_bend_c, 3, 8448
2, 105630, Pitch_bend_c, 3, 8576
2, 105640, Pitch_bend_c, 3, 8704
2, 105650, Pitch_bend_c, 3, 8832
2, 105660, Pitch_bend_c, 3, 8960
2, 105670, Pitch_bend_c, 3, 9088
2, 105680, Pitch_bend_c, 3, 9216
2, 105690, Pitch_bend_c, 3, 9344
2, 105700, Pitch_bend_c, 3, 9472
2, 105710, Pitch_bend_c, 3, 9600
2, 105720, Pitch_bend_c, 3, 9600
2, 105840, Pitch_bend_c, 3, 9600
2, 105880, Pitch_bend_c, 3, 9472
2, 105920, Pitch_bend_c, 3, 9344
2, 105960, Pitch_bend_c, 3, 9216
2, 106000, Pitch_bend_c, 3, 9088
2, 106040, Pitch_bend_c, 3, 8960
2, 106080, Pitch_bend_c, 3, 8832
2, 106080, Pitch_bend_c, 3, 8832
2, 106080, Pitch_bend_c, 3, 8192
2, 106080, Note_off_c, 3, 85, 95
2, 107280, Note_on_c, 2, 79, 95
2, 107520, Note_off_c, 2, 79, 95
2, 107520, Note_on_c, 2, 82, 95
2, 107760, Note_off_c, 2, 82, 95
2, 107760, Note_on_c, 2, 79, 95
2, 108000, Note_off_c, 2, 79, 95
2, 108000, Note_on_c, 2, 77, 95
2, 108240, Note_off_c, 2, 77, 95
2, 108240, Note_on_c, 2, 75, 95
2, 108480, Note_off_c, 2, 75, 95
2, 108480, Note_on_c, 2, 77, 95
2, 108660, Note_on_c, 3, 76, 95
2, 108720, Note_off_c, 2, 77, 95
2, 108720, Note_off_c, 3, 76, 95
2, 108720, Pitch_bend_c, 3, 8192
2, 108720, Note_on_c, 3, 77, 95
2, 108780, Pitch_bend_c, 3, 8320
2, 108840, Pitch_bend_c, 3, 8448
2, 108840, Pitch_bend_c, 3, 8448
2, 108960, Pitch_bend_c, 3, 8448
2, 108960, Pitch_bend_c, 3, 8192
2, 108960, Note_off_c, 3, 77, 95
2, 108960, Note_on_c, 3, 72, 95
2, 109120, Pitch_bend_c, 3, 8192
2, 109280, Pitch_bend_c, 3, 8320
2, 109440, Pitch_bend_c, 3, 8192
2, 109440, Pitch_bend_c, 3, 8320
2, 109440, Pitch_bend_c, 3, 8192
2, 109440, Note_off_c, 3, 72, 95
2, 110160, Note_on_c, 2, 76, 95
2, 110400, Note_off_c, 2, 76, 95
2, 110400, Note_on_c, 2, 77, 95
2, 110520, Note_off_c, 2, 77, 95
2, 110520, Note_on_c, 2, 79, 95
2, 110640, Note_off_c, 2, 79, 95
2, 110640, Note_on_c, 2, 77, 95
2, 110760, Note_off_c, 2, 77, 95
2, 110760, Note_on_c, 2, 76, 95
2, 110880, Note_off_c, 2, 76, 95
2, 110880, Note_on_c, 2, 77, 95
2, 111000, Note_off_c, 2, 77, 95
2, 111000, Note_on_c, 2, 79, 95
2, 111120, Note_off_c, 2, 79, 95
2, 111120, Note_on_c, 2, 77, 95
2, 111240, Note_off_c, 2, 77, 95
2, 111240, Note_on_c, 2, 76, 95
2, 111360, Note_off_c, 2, 76, 95
2, 111360, Note_on_c, 2, 74, 95
2, 111480, Note_off_c, 2, 74, 95
2, 111480, Note_on_c, 2, 72, 95
2, 111600, Note_off_c, 2, 72, 95
2, 111600, Note_on_c, 2, 71, 95
2, 111720, Note_off_c, 2, 71, 95
2, 111720, Note_on_c, 2, 69, 95
2, 111840, Note_off_c, 2, 69, 95
2, 111840, Note_on_c, 2, 71, 95
2, 111960, Note_off_c, 2, 71, 95
2, 111960, Note_on_c, 2, 72, 95
2, 112080, Note_off_c, 2, 72, 95
2, 112080, Note_on_c, 2, 71, 95
2, 112200, Note_off_c, 2, 71, 95
2, 112200, Note_on_c, 2, 69, 95
2, 112320, Note_off_c, 2, 69, 95
2, 112320, Note_on_c, 2, 69, 95
2, 112440, Note_off_c, 2, 69, 95
2, 112440, Note_on_c, 2, 67, 95
2, 112560, Note_off_c, 2, 67, 95
2, 112560, Note_on_c, 2, 65, 95
2, 112680, Note_off_c, 2, 65, 95
2, 112680, Note_on_c, 2, 64, 95
2, 112800, Note_off_c, 2, 64, 95
2, 112800, Note_on_c, 2, 65, 95
2, 112920, Note_off_c, 2, 65, 95
2, 112920, Note_on_c, 2, 67, 95
2, 113040, Note_off_c, 2, 67, 95
2, 113040, Note_on_c, 2, 65, 95
2, 113160, Note_off_c, 2, 65, 95
2, 113160, Note_on_c, 2, 64, 95
2, 113280, Note_off_c, 2, 64, 95
2, 113280, Note_on_c, 2, 62, 95
2, 113400, Note_off_c, 2, 62, 95
2, 113400, Note_on_c, 2, 60, 95
2, 113520, Note_off_c, 2, 60, 95
2, 113520, Note_on_c, 2, 59, 95
2, 113640, Note_off_c, 2, 59, 95
2, 113640, Note_on_c, 2, 57, 95
2, 113760, Note_off_c, 2, 57, 95
2, 113760, Note_on_c, 2, 59, 95
2, 113880, Note_off_c, 2, 59, 95
2, 113880, Note_on_c, 2, 60, 95
2, 114000, Note_off_c, 2, 60, 95
2, 114000, Note_on_c, 2, 59, 95
2, 114120, Note_off_c, 2, 59, 95
2, 114120, Note_on_c, 2, 57, 95
2, 114240, Note_off_c, 2, 57, 95
2, 114240, Note_on_c, 2, 55, 95
2, 114360, Note_off_c, 2, 55, 95
2, 114360, Note_on_c, 2, 53, 95
2, 114480, Note_off_c, 2, 53, 95
2, 114480, Note_on_c, 2, 52, 95
2, 114600, Note_off_c, 2, 52, 95
2, 114600, Note_on_c, 2, 50, 95
2, 114720, Note_off_c, 2, 50, 95
2, 114720, Note_on_c, 2, 52, 95
2, 114840, Note_off_c, 2, 52, 95
2, 114840, Note_on_c, 2, 53, 95
2, 114960, Note_off_c, 2, 53, 95
2, 114960, Note_on_c, 2, 52, 95
2, 115080, Note_off_c, 2, 52, 95
2, 115080, Note_on_c, 2, 50, 95
2, 115200, Note_off_c, 2, 50, 95
2, 115200, Note_on_c, 2, 48, 95
2, 115320, Note_off_c, 2, 48, 95
2, 115320, Note_on_c, 2, 47, 95
2, 115440, Note_off_c, 2, 47, 95
2, 115440, Note_on_c, 2, 46, 95
2, 115560, Note_off_c, 2, 46, 95
2, 115560, Note_on_c, 2, 45, 95
2, 115680, Note_off_c, 2, 45, 95
2, 115680, Note_on_c, 2, 46, 95
2, 115800, Note_off_c, 2, 46, 95
2, 115800, Note_on_c, 2, 48, 95
2, 115920, Note_off_c, 2, 48, 95
2, 115920, Note_on_c, 2, 46, 95
2, 116040, Note_off_c, 2, 46, 95
2, 116040, Note_on_c, 2, 45, 95
2, 116160, Note_off_c, 2, 45, 95
2, 116160, Note_on_c, 2, 46, 95
2, 116280, Note_off_c, 2, 46, 95
2, 116280, Note_on_c, 2, 47, 95
2, 116400, Note_off_c, 2, 47, 95
2, 116400, Note_on_c, 2, 48, 95
2, 116520, Note_off_c, 2, 48, 95
2, 116520, Note_on_c, 2, 49, 95
2, 116640, Note_off_c, 2, 49, 95
2, 116640, Note_on_c, 2, 51, 95
2, 116760, Note_off_c, 2, 51, 95
2, 116760, Note_on_c, 2, 52, 95
2, 116880, Note_off_c, 2, 52, 95
2, 116880, Note_on_c, 2, 53, 95
2, 117000, Note_off_c, 2, 53, 95
2, 117000, Note_on_c, 2, 54, 95
2, 117120, Note_off_c, 2, 54, 95
2, 117120, Note_on_c, 2, 57, 95
2, 117240, Note_off_c, 2, 57, 95
2, 117240, Note_on_c, 2, 58, 95
2, 117360, Note_off_c, 2, 58, 95
2, 117360, Note_on_c, 2, 59, 95
2, 117480, Note_off_c, 2, 59, 95
2, 117480, Note_on_c, 2, 60, 95
2, 117600, Note_off_c, 2, 60, 95
2, 117600, Note_on_c, 2, 62, 95
2, 117720, Note_off_c, 2, 62, 95
2, 117720, Note_on_c, 2, 63, 95
2, 117840, Note_off_c, 2, 63, 95
2, 117840, Note_on_c, 2, 64, 95
2, 117960, Note_off_c, 2, 64, 95
2, 117960, Note_on_c, 2, 65, 95
2, 118080, Note_off_c, 2, 65, 95
2, 118080, Note_on_c, 2, 64, 95
2, 118320, Note_off_c, 2, 64, 95
2, 118320, Note_on_c, 2, 59, 95
2, 118560, Note_off_c, 2, 59, 95
2, 118560, Note_on_c, 2, 64, 95
2, 118800, Note_off_c, 2, 64, 95
2, 118800, Note_on_c, 2, 65, 95
2, 119040, Note_off_c, 2, 65, 95
2, 119040, Note_on_c, 2, 59, 95
2, 119280, Note_off_c, 2, 59, 95
2, 119280, Note_on_c, 2, 64, 95
2, 119520, Note_off_c, 2, 64, 95
2, 119520, Note_on_c, 2, 66, 95
2, 119760, Note_off_c, 2, 66, 95
2, 119760, Note_on_c, 2, 68, 95
2, 120000, Note_off_c, 2, 68, 95
2, 120000, Note_on_c, 2, 70, 95
2, 120240, Note_off_c, 2, 70, 95
2, 120240, Note_on_c, 2, 64, 95
2, 120480, Note_off_c, 2, 64, 95
2, 120480, Note_on_c, 2, 66, 95
2, 120720, Note_off_c, 2, 66, 95
2, 120720, Note_on_c, 2, 71, 95
2, 120960, Note_off_c, 2, 71, 95
2, 120960, Note_on_c, 2, 73, 95
2, 121200, Note_off_c, 2, 73, 95
2, 121200, Note_on_c, 2, 71, 95
2, 121680, Note_off_c, 2, 71, 95
2, 121680, Note_on_c, 2, 71, 95
2, 121920, Note_off_c, 2, 71, 95
2, 121920, Note_on_c, 2, 75, 95
2, 122160, Note_off_c, 2, 75, 95
2, 122160, Note_on_c, 2, 71, 95
2, 122400, Note_off_c, 2, 71, 95
2, 122400, Note_on_c, 3, 75, 95
2, 122520, Pitch_bend_c, 3, 7552
2, 122640, Pitch_bend_c, 3, 6784
2, 122640, Pitch_bend_c, 3, 8192
2, 122640, Note_off_c, 3, 75, 95
2, 122640, Note_on_c, 2, 73, 95
2, 122880, Note_off_c, 2, 73, 95
2, 122880, Note_on_c, 2, 69, 95
2, 123120, Note_off_c, 2, 69, 95
2, 123120, Note_on_c, 3, 73, 95
2, 123240, Pitch_bend_c, 3, 7552
2, 123360, Pitch_bend_c, 3, 6784
2, 123360, Pitch_bend_c, 3, 8192
2, 123360, Note_off_c, 3, 73, 95
2, 123360, Note_on_c, 2, 71, 95
2, 123600, Note_off_c, 2, 71, 95
2, 123600, Note_on_c, 2, 67, 95
2, 123840, Note_off_c, 2, 67, 95
2, 123840, Note_on_c, 3, 71, 95
2, 123960, Pitch_bend_c, 3, 7552
2, 124080, Pitch_bend_c, 3, 6784
2, 124080, Pitch_bend_c, 3, 8192
2, 124080, Note_off_c, 3, 71, 95
2, 124080, Note_on_c, 2, 69, 95
2, 124320, Note_off_c, 2, 69, 95
2, 124320, Note_on_c, 2, 65, 95
2, 124560, Note_off_c, 2, 65, 95
2, 124560, Note_on_c, 3, 69, 95
2, 124680, Pitch_bend_c, 3, 7552
2, 124800, Pitch_bend_c, 3, 6784
2, 124800, Pitch_bend_c, 3, 8192
2, 124800, Note_off_c, 3, 69, 95
2, 124800, Note_on_c, 2, 67, 95
2, 125040, Note_off_c, 2, 67, 95
2, 125040, Note_on_c, 2, 63, 95
2, 125760, Note_off_c, 2, 63, 95
2, 125760, Note_on_c, 2, 46, 95
2, 126000, Note_off_c, 2, 46, 95
2, 126000, Note_on_c, 2, 48, 95
2, 126240, Note_off_c, 2, 48, 95
2, 126240, Note_on_c, 2, 48, 95
2, 126480, Note_off_c, 2, 48, 95
2, 126480, Note_on_c, 2, 48, 95
2, 126720, Note_off_c, 2, 48, 95
2, 126960, Note_on_c, 2, 48, 95
2, 127200, Note_off_c, 2, 48, 95
2, 127200, Note_on_c, 2, 48, 95
2, 127440, Note_off_c, 2, 48, 95
2, 127440, Note_on_c, 2, 48, 95
2, 127680, Note_off_c, 2, 48, 95
2, 127680, Note_on_c, 2, 46, 95
2, 127920, Note_off_c, 2, 46, 95
2, 127920, Note_on_c, 2, 48, 95
2, 128160, Note_off_c, 2, 48, 95
2, 128160, Note_on_c, 2, 48, 95
2, 128400, Note_off_c, 2, 48, 95
2, 128400, Note_on_c, 2, 48, 95
2, 128640, Note_off_c, 2, 48, 95
2, 128640, Note_on_c, 2, 51, 95
2, 128880, Note_off_c, 2, 51, 95
2, 128880, Note_on_c, 3, 48, 95
2, 129040, Pitch_bend_c, 3, 8192
2, 129200, Pitch_bend_c, 3, 8320
2, 129360, Pitch_bend_c, 3, 8192
2, 129520, Pitch_bend_c, 3, 8320
2, 129600, Pitch_bend_c, 3, 8192
2, 129600, Pitch_bend_c, 3, 8320
2, 129600, Pitch_bend_c, 3, 8192
2, 129600, Note_off_c, 3, 48, 95
2, 129600, Note_on_c, 2, 46, 95
2, 129840, Note_off_c, 2, 46, 95
2, 129840, Note_on_c, 2, 48, 95
2, 130080, Note_off_c, 2, 48, 95
2, 130080, Note_on_c, 2, 48, 95
2, 130320, Note_off_c, 2, 48, 95
2, 130320, Note_on_c, 2, 48, 95
2, 130560, Note_off_c, 2, 48, 95
2, 130800, Note_on_c, 2, 48, 95
2, 131040, Note_off_c, 2, 48, 95
2, 131040, Note_on_c, 2, 48, 95
2, 131280, Note_off_c, 2, 48, 95
2, 131280, Note_on_c, 2, 48, 95
2, 131520, Note_off_c, 2, 48, 95
2, 131520, Note_on_c, 2, 40, 95
2, 131760, Note_off_c, 2, 40, 95
2, 131760, Note_on_c, 2, 40, 95
2, 132000, Note_off_c, 2, 40, 95
2, 132000, Note_on_c, 2, 41, 95
2, 132240, Note_off_c, 2, 41, 95
2, 132240, Note_on_c, 2, 41, 95
2, 132480, Note_off_c, 2, 41, 95
2, 132480, Note_on_c, 2, 42, 95
2, 132720, Note_off_c, 2, 42, 95
2, 132720, Note_on_c, 2, 42, 95
2, 132960, Note_off_c, 2, 42, 95
2, 132960, Note_on_c, 2, 43, 95
2, 133200, Note_off_c, 2, 43, 95
2, 133200, Note_on_c, 2, 43, 95
2, 133440, Note_off_c, 2, 43, 95
2, 133440, Note_on_c, 2, 44, 95
2, 135120, Note_off_c, 2, 44, 95
2, 135360, Note_on_c, 3, 68, 95
2, 135480, Pitch_bend_c, 3, 8192
2, 135600, Pitch_bend_c, 3, 8064
2, 135720, Pitch_bend_c, 3, 7936
2, 135840, Pitch_bend_c, 3, 7808
2, 135960, Pitch_bend_c, 3, 7680
2, 136080, Pitch_bend_c, 3, 7552
2, 136080, Pitch_bend_c, 3, 8192
2, 136080, Note_off_c, 3, 68, 95
2, 136080, Note_on_c, 2, 67, 95
2, 136560, Note_off_c, 2, 67, 95
2, 136560, Note_on_c, 2, 68, 95
2, 136680, Note_off_c, 2, 68, 95
2, 136680, Note_on_c, 2, 67, 70
2, 136800, Note_off_c, 2, 67, 70
2, 136800, Note_on_c, 2, 65, 70
2, 137280, Note_off_c, 2, 65, 70
2, 137280, Note_on_c, 2, 63, 95
2, 138000, Note_off_c, 2, 63, 95
2, 138000, Note_on_c, 2, 65, 95
2, 138600, Note_on_c, 3, 65, 95
2, 138720, Note_off_c, 2, 65, 95
2, 138720, Note_off_c, 3, 65, 95
2, 138720, Note_on_c, 3, 67, 95
2, 139200, Note_off_c, 3, 67, 95
2, 139200, Note_on_c, 3, 65, 95
2, 139360, Pitch_bend_c, 3, 8192
2, 139520, Pitch_bend_c, 3, 8320
2, 139680, Pitch_bend_c, 3, 8192
2, 139840, Pitch_bend_c, 3, 8320
2, 140000, Pitch_bend_c, 3, 8192
2, 140160, Pitch_bend_c, 3, 8320
2, 140320, Pitch_bend_c, 3, 8192
2, 140480, Pitch_bend_c, 3, 8320
2, 140640, Pitch_bend_c, 3, 8192
2, 140800, Pitch_bend_c, 3, 8320
2, 140960, Pitch_bend_c, 3, 8192
2, 141120, Pitch_bend_c, 3, 8320
2, 141280, Pitch_bend_c, 3, 8192
2, 141440, Pitch_bend_c, 3, 8320
2, 141600, Pitch_bend_c, 3, 8192
2, 141760, Pitch_bend_c, 3, 8320
2, 141920, Pitch_bend_c, 3, 8192
2, 142080, Pitch_bend_c, 3, 8320
2, 142240, Pitch_bend_c, 3, 8192
2, 142400, Pitch_bend_c, 3, 8320
2, 142560, Pitch_bend_c, 3, 8192
2, 142720, Pitch_bend_c, 3, 8320
2, 142880, Pitch_bend_c, 3, 8192
2, 142980, Note_on_c, 3, 67, 95
2, 143040, Pitch_bend_c, 3, 8320
2, 143040, Pitch_bend_c, 3, 8192
2, 143040, Note_off_c, 3, 65, 95
2, 143040, Note_off_c, 3, 67, 95
2, 143040, Note_on_c, 3, 68, 95
2, 143760, Note_off_c, 3, 68, 95
2, 143760, Note_on_c, 2, 55, 95
2, 144480, Note_off_c, 2, 55, 95
2, 144480, Note_on_c, 2, 65, 95
2, 144720, Note_off_c, 2, 65, 95
2, 144720, Note_on_c, 2, 63, 95
2, 144960, Note_off_c, 2, 63, 95
2, 144960, Pitch_bend_c, 3, 8192
2, 144960, Note_on_c, 3, 68, 95
2, 145025, Pitch_bend_c, 3, 8320
2, 145090, Pitch_bend_c, 3, 8448
2, 145155, Pitch_bend_c, 3, 8576
2, 145220, Pitch_bend_c, 3, 8704
2, 145285, Pitch_bend_c, 3, 8832
2, 145350, Pitch_bend_c, 3, 8960
2, 145415, Pitch_bend_c, 3, 9088
2, 145480, Pitch_bend_c, 3, 9216
2, 145545, Pitch_bend_c, 3, 9344
2, 145610, Pitch_bend_c, 3, 9472
2, 145675, Pitch_bend_c, 3, 9600
2, 145680, Pitch_bend_c, 3, 9600
2, 146400, Pitch_bend_c, 3, 9600
2, 146400, Pitch_bend_c, 3, 8192
2, 146400, Note_off_c, 3, 68, 95
2, 146400, Note_on_c, 2, 68, 95
2, 146640, Note_off_c, 2, 68, 95
2, 146640, Note_on_c, 2, 67, 95
2, 146880, Note_off_c, 2, 67, 95
2, 146880, Pitch_bend_c, 3, 8192
2, 146880, Note_on_c, 3, 65, 95
2, 146920, Pitch_bend_c, 3, 8192
2, 146940, Pitch_bend_c, 3, 8320
2, 146960, Pitch_bend_c, 3, 8448
2, 146960, Pitch_bend_c, 3, 8448
2, 146960, Pitch_bend_c, 3, 8576
2, 146960, Pitch_bend_c, 3, 8704
2, 146960, Pitch_bend_c, 3, 8832
2, 146960, Pitch_bend_c, 3, 8960
2, 146960, Pitch_bend_c, 3, 9088
2, 146960, Pitch_bend_c, 3, 9216
2, 146960, Pitch_bend_c, 3, 9344
2, 146960, Pitch_bend_c, 3, 9472
2, 146960, Pitch_bend_c, 3, 9600
2, 146960, Pitch_bend_c, 3, 9600
2, 147000, Pitch_bend_c, 3, 9600
2, 147013, Pitch_bend_c, 3, 9472
2, 147026, Pitch_bend_c, 3, 9344
2, 147039, Pitch_bend_c, 3, 9216
2, 147040, Pitch_bend_c, 3, 9216
2, 147042, Pitch_bend_c, 3, 9088
2, 147044, Pitch_bend_c, 3, 8960
2, 147046, Pitch_bend_c, 3, 8832
2, 147048, Pitch_bend_c, 3, 8704
2, 147050, Pitch_bend_c, 3, 8576
2, 147052, Pitch_bend_c, 3, 8448
2, 147054, Pitch_bend_c, 3, 8320
2, 147056, Pitch_bend_c, 3, 8192
2, 147060, Pitch_bend_c, 3, 8192
2, 147120, Pitch_bend_c, 3, 8192
2, 147120, Pitch_bend_c, 3, 8192
2, 147120, Note_off_c, 3, 65, 95
2, 147600, Note_on_c, 2, 63, 95
2, 147840, Note_off_c, 2, 63, 95
2, 147840, Note_on_c, 3, 65, 95
2, 148000, Pitch_bend_c, 3, 8192
2, 148160, Pitch_bend_c, 3, 8320
2, 148320, Pitch_bend_c, 3, 8192
2, 148480, Pitch_bend_c, 3, 8320
2, 148640, Pitch_bend_c, 3, 8192
2, 148800, Pitch_bend_c, 3, 8320
2, 148960, Pitch_bend_c, 3, 8192
2, 149120, Pitch_bend_c, 3, 8320
2, 149280, Pitch_bend_c, 3, 8192
2, 149280, Pitch_bend_c, 3, 8320
2, 149280, Pitch_bend_c, 3, 8192
2, 149280, Note_off_c, 3, 65, 95
2, 149280, Note_on_c, 2, 68, 47
2, 149440, Note_off_c, 2, 68, 47
2, 149440, Note_on_c, 2, 73, 95
2, 149600, Note_off_c, 2, 73, 95
2, 149600, Note_on_c, 2, 77, 95
2, 149760, Note_off_c, 2, 77, 95
2, 149760, Note_on_c, 2, 80, 95
2, 150000, Note_off_c, 2, 80, 95
2, 150000, Note_on_c, 2, 77, 95
2, 150240, Note_off_c, 2, 77, 95
2, 150240, Note_on_c, 2, 73, 95
2, 150400, Note_off_c, 2, 73, 95
2, 150400, Note_on_c, 2, 68, 95
2, 150560, Note_off_c, 2, 68, 95
2, 150560, Note_on_c, 2, 65, 95
2, 150720, Note_off_c, 2, 65, 95
2, 150720, Note_on_c, 3, 80, 95
2, 150880, Pitch_bend_c, 3, 8192
2, 151040, Pitch_bend_c, 3, 8320
2, 151200, Pitch_bend_c, 3, 8192
2, 151360, Pitch_bend_c, 3, 8320
2, 151520, Pitch_bend_c, 3, 8192
2, 151680, Pitch_bend_c, 3, 8320
2, 151840, Pitch_bend_c, 3, 8192
2, 152000, Pitch_bend_c, 3, 8320
2, 152160, Pitch_bend_c, 3, 8192
2, 152160, Pitch_bend_c, 3, 8320
2, 152160, Pitch_bend_c, 3, 8192
2, 152160, Note_off_c, 3, 80, 95
2, 152160, Note_on_c, 2, 79, 95
2, 152400, Note_off_c, 2, 79, 95
2, 152400, Note_on_c, 2, 77, 95
2, 152640, Note_off_c, 2, 77, 95
2, 152640, Note_on_c, 3, 75, 95
2, 152800, Pitch_bend_c, 3, 8192
2, 152960, Pitch_bend_c, 3, 8320
2, 153120, Pitch_bend_c, 3, 8192
2, 153280, Pitch_bend_c, 3, 8320
2, 153440, Pitch_bend_c, 3, 8192
2, 153600, Pitch_bend_c, 3, 8320
2, 153760, Pitch_bend_c, 3, 8192
2, 153920, Pitch_bend_c, 3, 8320
2, 154080, Pitch_bend_c, 3, 8192
2, 154080, Pitch_bend_c, 3, 8320
2, 154080, Pitch_bend_c, 3, 8192
2, 154080, Note_off_c, 3, 75, 95
2, 154080, Note_on_c, 2, 77, 95
2, 154320, Note_off_c, 2, 77, 95
2, 154320, Note_on_c, 2, 79, 95
2, 154560, Note_off_c, 2, 79, 95
2, 154560, Note_on_c, 3, 77, 95
2, 154720, Pitch_bend_c, 3, 8192
2, 154880, Pitch_bend_c, 3, 8320
2, 155040, Pitch_bend_c, 3, 8192
2, 155200, Pitch_bend_c, 3, 8320
2, 155360, Pitch_bend_c, 3, 8192
2, 155520, Pitch_bend_c, 3, 8320
2, 155680, Pitch_bend_c, 3, 8192
2, 155840, Pitch_bend_c, 3, 8320
2, 156000, Pitch_bend_c, 3, 8192
2, 156000, Pitch_bend_c, 3, 8320
2, 156000, Pitch_bend_c, 3, 8192
2, 156000, Note_off_c, 3, 77, 95
2, 156000, Note_on_c, 2, 75, 95
2, 156240, Note_off_c, 2, 75, 95
2, 156480, Note_on_c, 2, 74, 95
2, 156600, Note_off_c, 2, 74, 95
2, 156600, Note_on_c, 2, 75, 95
2, 156720, Note_off_c, 2, 75, 95
2, 156720, Note_on_c, 2, 74, 95
2, 156840, Note_off_c, 2, 74, 95
2, 156840, Note_on_c, 2, 75, 95
2, 156960, Note_off_c, 2, 75, 95
2, 156960, Note_on_c, 2, 74, 95
2, 157080, Note_off_c, 2, 74, 95
2, 157080, Note_on_c, 2, 75, 95
2, 157200, Note_off_c, 2, 75, 95
2, 157200, Note_on_c, 2, 74, 95
2, 157320, Note_off_c, 2, 74, 95
2, 157320, Note_on_c, 2, 75, 95
2, 157440, Note_off_c, 2, 75, 95
2, 157440, Note_on_c, 2, 74, 95
2, 157560, Note_off_c, 2, 74, 95
2, 157560, Note_on_c, 2, 75, 95
2, 157680, Note_off_c, 2, 75, 95
2, 157680, Note_on_c, 2, 74, 95
2, 157800, Note_off_c, 2, 74, 95
2, 157800, Note_on_c, 2, 75, 95
2, 157920, Note_off_c, 2, 75, 95
2, 157920, Note_on_c, 2, 74, 95
2, 158040, Note_off_c, 2, 74, 95
2, 158040, Note_on_c, 2, 75, 95
2, 158159, Note_off_c, 2, 75, 95
2, 158160, Note_on_c, 2, 74, 95
2, 158320, Note_off_c, 2, 74, 95
2, 158320, Note_on_c, 2, 79, 95
2, 158480, Note_off_c, 2, 79, 95
2, 158480, Note_on_c, 2, 80, 95
2, 158640, Note_off_c, 2, 80, 95
2, 158640, Note_on_c, 2, 77, 95
2, 158800, Note_off_c, 2, 77, 95
2, 158800, Note_on_c, 2, 79, 95
2, 158960, Note_off_c, 2, 79, 95
2, 158960, Note_on_c, 2, 75, 95
2, 159120, Note_off_c, 2, 75, 95
2, 159120, Note_on_c, 2, 77, 95
2, 159280, Note_off_c, 2, 77, 95
2, 159280, Note_on_c, 2, 74, 95
2, 159440, Note_off_c, 2, 74, 95
2, 159440, Note_on_c, 2, 75, 95
2, 159600, Note_off_c, 2, 75, 95
2, 159600, Note_on_c, 2, 72, 95
2, 159760, Note_off_c, 2, 72, 95
2, 159760, Note_on_c, 2, 74, 95
2, 159920, Note_off_c, 2, 74, 95
2, 159920, Note_on_c, 2, 72, 95
2, 160080, Note_off_c, 2, 72, 95
2, 160080, Note_on_c, 2, 70, 95
2, 160240, Note_off_c, 2, 70, 95
2, 160240, Note_on_c, 2, 67, 95
2, 160400, Note_off_c, 2, 67, 95
2, 160400, Note_on_c, 2, 68, 95
2, 160560, Note_off_c, 2, 68, 95
2, 160560, Note_on_c, 2, 65, 95
2, 160720, Note_off_c, 2, 65, 95
2, 160720, Note_on_c, 2, 67, 95
2, 160880, Note_off_c, 2, 67, 95
2, 160880, Note_on_c, 2, 65, 95
2, 161040, Note_off_c, 2, 65, 95
2, 161040, Note_on_c, 2, 63, 95
2, 161200, Note_off_c, 2, 63, 95
2, 161200, Note_on_c, 2, 62, 95
2, 161360, Note_off_c, 2, 62, 95
2, 161360, Note_on_c, 2, 63, 95
2, 161520, Note_off_c, 2, 63, 95
2, 161520, Note_on_c, 2, 60, 95
2, 161680, Note_off_c, 2, 60, 95
2, 161680, Note_on_c, 2, 62, 95
2, 161840, Note_off_c, 2, 62, 95
2, 161840, Note_on_c, 2, 62, 95
2, 162000, Note_off_c, 2, 62, 95
2, 162000, Note_on_c, 2, 60, 95
2, 162160, Note_off_c, 2, 60, 95
2, 162160, Pitch_bend_c, 3, 8192
2, 162160, Note_on_c, 3, 58, 95
2, 163040, Pitch_bend_c, 3, 8192
2, 163333, Pitch_bend_c, 3, 8192
2, 163386, Pitch_bend_c, 3, 8064
2, 163439, Pitch_bend_c, 3, 7936
2, 163492, Pitch_bend_c, 3, 7808
2, 163545, Pitch_bend_c, 3, 7680
2, 163598, Pitch_bend_c, 3, 7552
2, 163651, Pitch_bend_c, 3, 7424
2, 163704, Pitch_bend_c, 3, 7296
2, 163757, Pitch_bend_c, 3, 7168
2, 163810, Pitch_bend_c, 3, 7040
2, 163863, Pitch_bend_c, 3, 6912
2, 163916, Pitch_bend_c, 3, 6784
2, 163920, Pitch_bend_c, 3, 6784
2, 163920, Pitch_bend_c, 3, 8192
2, 163920, Note_off_c, 3, 58, 95
2, 163920, Note_on_c, 2, 41, 95
2, 164160, Note_off_c, 2, 41, 95
2, 164160, Note_on_c, 2, 46, 95
2, 164400, Note_off_c, 2, 46, 95
2, 164400, Note_on_c, 2, 46, 95
2, 164503, Note_off_c, 2, 46, 95
2, 164640, Note_on_c, 2, 47, 95
2, 164880, Note_off_c, 2, 47, 95
2, 164880, Note_on_c, 2, 48, 95
2, 165120, Note_off_c, 2, 48, 95
2, 165360, Note_on_c, 2, 43, 95
2, 165600, Note_off_c, 2, 43, 95
2, 165600, Note_on_c, 2, 45, 127
2, 165600, Note_on_c, 2, 43, 127
2, 165651, Note_off_c, 2, 45, 127
2, 165651, Note_off_c, 2, 43, 127
2, 165840, Note_on_c, 2, 45, 127
2, 165840, Note_on_c, 2, 43, 127
2, 165891, Note_off_c, 2, 45, 127
2, 165891, Note_off_c, 2, 43, 127
2, 166080, Note_on_c, 2, 46, 95
2, 166183, Note_off_c, 2, 46, 95
2, 166320, Note_on_c, 2, 46, 95
2, 166423, Note_off_c, 2, 46, 95
2, 166560, Note_on_c, 2, 48, 95
2, 166663, Note_off_c, 2, 48, 95
2, 166800, Note_on_c, 2, 48, 95
2, 166903, Note_off_c, 2, 48, 95
2, 167040, Note_on_c, 2, 51, 95
2, 167280, Note_off_c, 2, 51, 95
2, 167280, Note_on_c, 3, 49, 95
2, 167440, Pitch_bend_c, 3, 8192
2, 167600, Pitch_bend_c, 3, 8320
2, 167760, Pitch_bend_c, 3, 8192
2, 167920, Pitch_bend_c, 3, 8320
2, 168000, Pitch_bend_c, 3, 8192
2, 168000, Pitch_bend_c, 3, 8320
2, 168000, Pitch_bend_c, 3, 8192
2, 168000, Note_off_c, 3, 49, 95
2, 168000, Note_on_c, 2, 46, 95
2, 168240, Note_off_c, 2, 46, 95
2, 168240, Note_on_c, 2, 46, 95
2, 168480, Note_off_c, 2, 46, 95
2, 168480, Note_on_c, 2, 47, 95
2, 168720, Note_off_c, 2, 47, 95
2, 168720, Note_on_c, 2, 48, 95
2, 168960, Note_off_c, 2, 48, 95
2, 169200, Note_on_c, 2, 40, 95
2, 169920, Note_off_c, 2, 40, 95
2, 169920, Note_on_c, 2, 41, 95
2, 170160, Note_off_c, 2, 41, 95
2, 170160, Note_on_c, 2, 41, 95
2, 170400, Note_off_c, 2, 41, 95
2, 170400, Note_on_c, 2, 41, 95
2, 170640, Note_off_c, 2, 41, 95
2, 170640, Note_on_c, 2, 42, 95
2, 171120, Note_off_c, 2, 42, 95
2, 171120, Note_on_c, 3, 50, 31
2, 171120, Note_on_c, 3, 62, 95
2, 171280, Pitch_bend_c, 3, 8192
2, 171440, Pitch_bend_c, 3, 8320
2, 171600, Pitch_bend_c, 3, 8192
2, 171760, Pitch_bend_c, 3, 8320
2, 171840, Pitch_bend_c, 3, 8192
2, 171840, Pitch_bend_c, 3, 8320
2, 171840, Pitch_bend_c, 3, 8192
2, 171840, Note_off_c, 3, 50, 31
2, 171840, Note_off_c, 3, 62, 95
2, 171840, Note_on_c, 2, 46, 95
2, 172080, Note_off_c, 2, 46, 95
2, 172080, Note_on_c, 2, 46, 95
2, 172320, Note_off_c, 2, 46, 95
2, 172320, Note_on_c, 2, 47, 95
2, 172560, Note_off_c, 2, 47, 95
2, 172560, Note_on_c, 2, 48, 95
2, 172800, Note_off_c, 2, 48, 95
2, 173040, Note_on_c, 2, 43, 95
2, 173280, Note_off_c, 2, 43, 95
2, 173760, Note_on_c, 2, 46, 95
2, 173863, Note_off_c, 2, 46, 95
2, 173920, Note_on_c, 2, 47, 95
2, 174023, Note_off_c, 2, 47, 95
2, 174080, Note_on_c, 2, 48, 95
2, 174183, Note_off_c, 2, 48, 95
2, 174240, Note_on_c, 2, 51, 95
2, 174343, Note_off_c, 2, 51, 95
2, 174400, Note_on_c, 2, 48, 95
2, 174503, Note_off_c, 2, 48, 95
2, 174560, Note_on_c, 2, 46, 95
2, 174663, Note_off_c, 2, 46, 95
2, 174720, Note_on_c, 2, 53, 95
2, 174960, Note_off_c, 2, 53, 95
2, 174960, Note_on_c, 3, 51, 95
2, 175120, Pitch_bend_c, 3, 8192
2, 175280, Pitch_bend_c, 3, 8320
2, 175440, Pitch_bend_c, 3, 8192
2, 175560, Note_on_c, 3, 54, 95
2, 175600, Pitch_bend_c, 3, 8320
2, 175680, Pitch_bend_c, 3, 8192
2, 175680, Pitch_bend_c, 3, 8320
2, 175680, Pitch_bend_c, 3, 8192
2, 175680, Note_off_c, 3, 51, 95
2, 175680, Note_off_c, 3, 54, 95
2, 175680, Note_on_c, 3, 55, 95
2, 175840, Pitch_bend_c, 3, 8192
2, 176000, Pitch_bend_c, 3, 8320
2, 176160, Pitch_bend_c, 3, 8192
2, 176160, Pitch_bend_c, 3, 8320
2, 176160, Pitch_bend_c, 3, 8192
2, 176160, Note_off_c, 3, 55, 95
2, 176160, Note_on_c, 2, 58, 95
2, 176340, Note_on_c, 3, 55, 95
2, 176400, Note_off_c, 2, 58, 95
2, 176400, Note_off_c, 3, 55, 95
2, 176400, Note_on_c, 3, 54, 95
2, 176520, Pitch_bend_c, 3, 8064
2, 176640, Pitch_bend_c, 3, 7936
2, 176760, Pitch_bend_c, 3, 7680
2, 176880, Pitch_bend_c, 3, 7552
2, 176880, Pitch_bend_c, 3, 8192
2, 176880, Note_off_c, 3, 54, 95
2, 176880, Note_on_c, 2, 53, 95
2, 177120, Note_off_c, 2, 53, 95
2, 177120, Note_on_c, 2, 51, 95
2, 177360, Note_off_c, 2, 51, 95
2, 177360, Note_on_c, 2, 46, 95
2, 177540, Note_on_c, 3, 46, 95
2, 177600, Note_off_c, 2, 46, 95
2, 177600, Note_off_c, 3, 46, 95
2, 177600, Note_on_c, 3, 48, 95
2, 177840, Note_off_c, 3, 48, 95
2, 177840, Note_on_c, 2, 47, 95
2, 178080, Note_off_c, 2, 47, 95
2, 178080, Note_on_c, 2, 46, 95
2, 178320, Note_off_c, 2, 46, 95
2, 178320, Note_on_c, 2, 45, 95
2, 178560, Note_off_c, 2, 45, 95
2, 178560, Note_on_c, 2, 43, 95
2, 178800, Note_off_c, 2, 43, 95
2, 178800, Note_on_c, 2, 42, 95
2, 179040, Note_off_c, 2, 42, 95
2, 179040, Note_on_c, 2, 41, 95
2, 179280, Note_off_c, 2, 41, 95
2, 179280, Note_on_c, 2, 40, 95
2, 179520, Note_off_c, 2, 40, 95
2, 179520, Note_on_c, 2, 55, 95
2, 179520, Note_on_c, 2, 48, 95
2, 179760, Note_off_c, 2, 55, 95
2, 179760, Note_off_c, 2, 48, 95
2, 179760, Note_on_c, 2, 43, 95
2, 179863, Note_off_c, 2, 43, 95
2, 180000, Note_on_c, 2, 55, 95
2, 180000, Note_on_c, 2, 48, 95
2, 180240, Note_off_c, 2, 55, 95
2, 180240, Note_off_c, 2, 48, 95
2, 180240, Note_on_c, 2, 63, 95
2, 180240, Note_on_c, 2, 58, 95
2, 180240, Note_on_c, 2, 51, 95
2, 180960, Note_off_c, 2, 63, 95
2, 180960, Note_off_c, 2, 58, 95
2, 180960, Note_off_c, 2, 51, 95
2, 180960, Note_on_c, 2, 63, 95
2, 180960, Note_on_c, 2, 58, 95
2, 180960, Note_on_c, 2, 51, 95
2, 181200, Note_off_c, 2, 63, 95
2, 181200, Note_off_c, 2, 58, 95
2, 181200, Note_off_c, 2, 51, 95
2, 181200, Note_on_c, 2, 63, 95
2, 181200, Note_on_c, 2, 58, 95
2, 181200, Note_on_c, 2, 51, 95
2, 181440, Note_off_c, 2, 63, 95
2, 181440, Note_off_c, 2, 58, 95
2, 181440, Note_off_c, 2, 51, 95
2, 181440, Note_on_c, 2, 63, 95
2, 181440, Note_on_c, 2, 58, 95
2, 181440, Note_on_c, 2, 51, 95
2, 181491, Note_off_c, 2, 63, 95
2, 181491, Note_off_c, 2, 58, 95
2, 181491, Note_off_c, 2, 51, 95
2, 181680, Note_on_c, 2, 63, 95
2, 181680, Note_on_c, 2, 58, 95
2, 181680, Note_on_c, 2, 51, 95
2, 181920, Note_off_c, 2, 63, 95
2, 181920, Note_off_c, 2, 58, 95
2, 181920, Note_off_c, 2, 51, 95
2, 181920, Note_on_c, 2, 63, 95
2, 181920, Note_on_c, 2, 58, 95
2, 181920, Note_on_c, 2, 51, 95
2, 181971, Note_off_c, 2, 63, 95
2, 181971, Note_off_c, 2, 58, 95
2, 181971, Note_off_c, 2, 51, 95
2, 182160, Note_on_c, 2, 63, 95
2, 182160, Note_on_c, 2, 58, 95
2, 182160, Note_on_c, 2, 51, 95
2, 182400, Note_off_c, 2, 63, 95
2, 182400, Note_off_c, 2, 58, 95
2, 182400, Note_off_c, 2, 51, 95
2, 182400, Note_on_c, 2, 63, 95
2, 182400, Note_on_c, 2, 58, 95
2, 182400, Note_on_c, 2, 51, 95
2, 182640, Note_off_c, 2, 63, 95
2, 182640, Note_off_c, 2, 58, 95
2, 182640, Note_off_c, 2, 51, 95
2, 182640, Note_on_c, 2, 65, 95
2, 182640, Note_on_c, 2, 60, 95
2, 182640, Note_on_c, 2, 53, 95
2, 183360, Note_off_c, 2, 65, 95
2, 183360, Note_off_c, 2, 60, 95
2, 183360, Note_off_c, 2, 53, 95
2, 183360, Note_on_c, 2, 55, 95
2, 183360, Note_on_c, 2, 48, 95
2, 183600, Note_off_c, 2, 55, 95
2, 183600, Note_off_c, 2, 48, 95
2, 183600, Note_on_c, 2, 43, 95
2, 183703, Note_off_c, 2, 43, 95
2, 183840, Note_on_c, 2, 55, 95
2, 183840, Note_on_c, 2, 48, 95
2, 184080, Note_off_c, 2, 55, 95
2, 184080, Note_off_c, 2, 48, 95
2, 184080, Note_on_c, 2, 63, 95
2, 184080, Note_on_c, 2, 58, 95
2, 184080, Note_on_c, 2, 51, 95
2, 185520, Note_off_c, 2, 63, 95
2, 185520, Note_off_c, 2, 58, 95
2, 185520, Note_off_c, 2, 51, 95
2, 185520, Note_on_c, 2, 63, 47
2, 185520, Note_on_c, 2, 60, 95
2, 186240, Note_off_c, 2, 63, 47
2, 186240, Note_off_c, 2, 60, 95
2, 186480, Note_on_c, 2, 65, 47
2, 186480, Note_on_c, 2, 59, 95
2, 186960, Note_off_c, 2, 65, 47
2, 186960, Note_off_c, 2, 59, 95
2, 187200, Note_on_c, 2, 55, 95
2, 187200, Note_on_c, 2, 48, 95
2, 187440, Note_off_c, 2, 55, 95
2, 187440, Note_off_c, 2, 48, 95
2, 187440, Note_on_c, 2, 43, 95
2, 187543, Note_off_c, 2, 43, 95
2, 187680, Note_on_c, 2, 55, 95
2, 187680, Note_on_c, 2, 48, 95
2, 187920, Note_off_c, 2, 55, 95
2, 187920, Note_off_c, 2, 48, 95
2, 187920, Note_on_c, 2, 63, 95
2, 187920, Note_on_c, 2, 58, 95
2, 187920, Note_on_c, 2, 51, 95
2, 188640, Note_off_c, 2, 63, 95
2, 188640, Note_off_c, 2, 58, 95
2, 188640, Note_off_c, 2, 51, 95
2, 188640, Note_on_c, 2, 63, 95
2, 188640, Note_on_c, 2, 58, 95
2, 188640, Note_on_c, 2, 51, 95
2, 188880, Note_off_c, 2, 63, 95
2, 188880, Note_off_c, 2, 58, 95
2, 188880, Note_off_c, 2, 51, 95
2, 188880, Note_on_c, 2, 63, 95
2, 188880, Note_on_c, 2, 58, 95
2, 188880, Note_on_c, 2, 51, 95
2, 189120, Note_off_c, 2, 63, 95
2, 189120, Note_off_c, 2, 58, 95
2, 189120, Note_off_c, 2, 51, 95
2, 189120, Note_on_c, 2, 63, 95
2, 189120, Note_on_c, 2, 58, 95
2, 189120, Note_on_c, 2, 51, 95
2, 189171, Note_off_c, 2, 63, 95
2, 189171, Note_off_c, 2, 58, 95
2, 189171, Note_off_c, 2, 51, 95
2, 189360, Note_on_c, 2, 63, 95
2, 189360, Note_on_c, 2, 58, 95
2, 189360, Note_on_c, 2, 51, 95
2, 189600, Note_off_c, 2, 63, 95
2, 189600, Note_off_c, 2, 58, 95
2, 189600, Note_off_c, 2, 51, 95
2, 189600, Note_on_c, 2, 63, 95
2, 189600, Note_on_c, 2, 58, 95
2, 189600, Note_on_c, 2, 51, 95
2, 189651, Note_off_c, 2, 63, 95
2, 189651, Note_off_c, 2, 58, 95
2, 189651, Note_off_c, 2, 51, 95
2, 189840, Note_on_c, 2, 63, 95
2, 189840, Note_on_c, 2, 58, 95
2, 189840, Note_on_c, 2, 51, 95
2, 189891, Note_off_c, 2, 63, 95
2, 189891, Note_off_c, 2, 58, 95
2, 189891, Note_off_c, 2, 51, 95
2, 190080, Note_on_c, 2, 63, 95
2, 190080, Note_on_c, 2, 58, 95
2, 190080, Note_on_c, 2, 51, 95
2, 190320, Note_off_c, 2, 63, 95
2, 190320, Note_off_c, 2, 58, 95
2, 190320, Note_off_c, 2, 51, 95
2, 190320, Note_on_c, 2, 65, 95
2, 190320, Note_on_c, 2, 60, 95
2, 190320, Note_on_c, 2, 53, 95
2, 191040, Note_off_c, 2, 65, 95
2, 191040, Note_off_c, 2, 60, 95
2, 191040, Note_off_c, 2, 53, 95
2, 191040, Note_on_c, 2, 55, 95
2, 191040, Note_on_c, 2, 48, 95
2, 191280, Note_off_c, 2, 55, 95
2, 191280, Note_off_c, 2, 48, 95
2, 191280, Note_on_c, 2, 43, 95
2, 191383, Note_off_c, 2, 43, 95
2, 191520, Note_on_c, 2, 55, 95
2, 191520, Note_on_c, 2, 48, 95
2, 191760, Note_off_c, 2, 55, 95
2, 191760, Note_off_c, 2, 48, 95
2, 191760, Note_on_c, 2, 63, 95
2, 191760, Note_on_c, 2, 58, 95
2, 191760, Note_on_c, 2, 51, 95
2, 192480, Note_off_c, 2, 63, 95
2, 192480, Note_off_c, 2, 58, 95
2, 192480, Note_off_c, 2, 51, 95
2, 192480, Note_on_c, 2, 60, 95
2, 192720, Note_off_c, 2, 60, 95
2, 192720, Note_on_c, 2, 58, 95
2, 192900, Note_on_c, 3, 58, 95
2, 192960, Note_off_c, 2, 58, 95
2, 192960, Note_off_c, 3, 58, 95
2, 192960, Note_on_c, 3, 60, 95
2, 193200, Note_off_c, 3, 60, 95
2, 193200, Note_on_c, 2, 58, 95
2, 193440, Note_off_c, 2, 58, 95
2, 193440, Note_on_c, 2, 55, 95
2, 193680, Note_off_c, 2, 55, 95
2, 193680, Note_on_c, 2, 54, 95
2, 193920, Note_off_c, 2, 54, 95
2, 193920, Note_on_c, 2, 53, 95
2, 194080, Note_off_c, 2, 53, 95
2, 194080, Note_on_c, 2, 54, 70
2, 194240, Note_off_c, 2, 54, 70
2, 194240, Note_on_c, 2, 53, 70
2, 194400, Note_off_c, 2, 53, 70
2, 194400, Note_on_c, 2, 51, 95
2, 194640, Note_off_c, 2, 51, 95
2, 194640, Note_on_c, 2, 48, 95
2, 194880, Note_off_c, 2, 48, 95
2, 194880, Note_on_c, 2, 46, 95
2, 195120, Note_off_c, 2, 46, 95
2, 195120, Note_on_c, 3, 48, 95
2, 195600, Note_off_c, 3, 48, 95
2, 197760, Note_on_c, 2, 46, 95
2, 198000, Note_off_c, 2, 46, 95
2, 198000, Note_on_c, 2, 48, 95
2, 198240, Note_off_c, 2, 48, 95
2, 198720, Note_on_c, 2, 44, 95
2, 198960, Note_off_c, 2, 44, 95
2, 198960, Note_on_c, 2, 46, 95
2, 199200, Note_off_c, 2, 46, 95
2, 201600, Note_on_c, 2, 44, 95
2, 201840, Note_off_c, 2, 44, 95
2, 201840, Note_on_c, 2, 46, 95
2, 202080, Note_off_c, 2, 46, 95
2, 202560, Note_on_c, 2, 42, 95
2, 202800, Note_off_c, 2, 42, 95
2, 202800, Note_on_c, 2, 44, 95
2, 203040, Note_off_c, 2, 44, 95
2, 205440, Note_on_c, 2, 42, 95
2, 205680, Note_off_c, 2, 42, 95
2, 205680, Note_on_c, 2, 44, 95
2, 205920, Note_off_c, 2, 44, 95
2, 206400, Note_on_c, 2, 40, 95
2, 206640, Note_off_c, 2, 40, 95
2, 206640, Note_on_c, 2, 42, 95
2, 206880, Note_off_c, 2, 42, 95
2, 207120, Note_on_c, 2, 40, 95
2, 207360, Note_off_c, 2, 40, 95
2, 207360, Note_on_c, 2, 42, 95
2, 207600, Note_off_c, 2, 42, 95
2, 207600, Note_on_c, 2, 44, 95
2, 207840, Note_off_c, 2, 44, 95
2, 207840, Note_on_c, 2, 46, 95
2, 208080, Note_off_c, 2, 46, 95
2, 208080, Note_on_c, 3, 48, 95
2, 208240, Pitch_bend_c, 3, 8192
2, 208400, Pitch_bend_c, 3, 8320
2, 208560, Pitch_bend_c, 3, 8192
2, 208560, Pitch_bend_c, 3, 8320
2, 208560, Pitch_bend_c, 3, 8192
2, 208560, Note_off_c, 3, 48, 95
2, 208560, Note_on_c, 2, 46, 95
2, 208800, Note_off_c, 2, 46, 95
2, 208800, Note_on_c, 2, 44, 95
2, 209040, Note_off_c, 2, 44, 95
2, 209040, Note_on_c, 2, 42, 95
2, 209280, Note_off_c, 2, 42, 95
2, 209280, Note_on_c, 2, 40, 95
2, 210000, Note_off_c, 2, 40, 95
2, 210000, Note_on_c, 2, 40, 95
2, 210240, Note_off_c, 2, 40, 95
2, 210240, Note_on_c, 2, 42, 95
2, 210480, Note_off_c, 2, 42, 95
2, 210480, Note_on_c, 2, 44, 95
2, 210720, Note_off_c, 2, 44, 95
2, 213120, Note_on_c, 2, 42, 95
2, 213360, Note_off_c, 2, 42, 95
2, 213360, Note_on_c, 2, 44, 95
2, 213600, Note_off_c, 2, 44, 95
2, 214080, Note_on_c, 2, 40, 95
2, 214320, Note_off_c, 2, 40, 95
2, 214320, Note_on_c, 2, 42, 95
2, 214560, Note_off_c, 2, 42, 95
2, 215040, Note_on_c, 3, 52, 95
2, 215160, Pitch_bend_c, 3, 7936
2, 215280, Pitch_bend_c, 3, 7552
2, 215280, Pitch_bend_c, 3, 8192
2, 215280, Note_off_c, 3, 52, 95
2, 215280, Note_on_c, 2, 51, 95
2, 215520, Note_off_c, 2, 51, 95
2, 215520, Note_on_c, 2, 49, 95
2, 215760, Note_off_c, 2, 49, 95
2, 215760, Note_on_c, 3, 55, 31
2, 215760, Note_on_c, 3, 67, 95
2, 215920, Pitch_bend_c, 3, 8192
2, 216000, Pitch_bend_c, 3, 8320
2, 216000, Pitch_bend_c, 3, 8192
2, 216000, Note_off_c, 3, 55, 31
2, 216000, Note_off_c, 3, 67, 95
2, 216480, Note_on_c, 2, 42, 95
2, 216720, Note_off_c, 2, 42, 95
2, 216720, Note_on_c, 2, 44, 95
2, 216960, Note_off_c, 2, 44, 95
2, 219360, Note_on_c, 2, 42, 95
2, 219600, Note_off_c, 2, 42, 95
2, 219600, Note_on_c, 2, 44, 95
2, 219840, Note_off_c, 2, 44, 95
2, 220320, Note_on_c, 2, 40, 95
2, 220560, Note_off_c, 2, 40, 95
2, 220560, Note_on_c, 2, 42, 95
2, 220800, Note_off_c, 2, 42, 95
2, 221040, Note_on_c, 2, 40, 95
2, 221280, Note_off_c, 2, 40, 95
2, 221280, Note_on_c, 2, 42, 95
2, 221520, Note_off_c, 2, 42, 95
2, 221520, Note_on_c, 2, 44, 95
2, 221760, Note_off_c, 2, 44, 95
2, 221760, Note_on_c, 2, 46, 95
2, 222000, Note_off_c, 2, 46, 95
2, 222000, Note_on_c, 3, 48, 95
2, 222160, Pitch_bend_c, 3, 8192
2, 222320, Pitch_bend_c, 3, 8320
2, 222480, Pitch_bend_c, 3, 8192
2, 222480, Pitch_bend_c, 3, 8320
2, 222480, Pitch_bend_c, 3, 8192
2, 222480, Note_off_c, 3, 48, 95
2, 222480, Note_on_c, 2, 46, 95
2, 222720, Note_off_c, 2, 46, 95
2, 222720, Note_on_c, 2, 44, 95
2, 222960, Note_off_c, 2, 44, 95
2, 222960, Note_on_c, 2, 42, 95
2, 223200, Note_off_c, 2, 42, 95
2, 223200, Note_on_c, 2, 40, 95
2, 223920, Note_off_c, 2, 40, 95
2, 223920, Note_on_c, 2, 40, 95
2, 224160, Note_off_c, 2, 40, 95
2, 224160, Note_on_c, 2, 42, 95
2, 224400, Note_off_c, 2, 42, 95
2, 224400, Note_on_c, 2, 44, 95
2, 224640, Note_off_c, 2, 44, 95
2, 227040, Note_on_c, 2, 42, 95
2, 227280, Note_off_c, 2, 42, 95
2, 227280, Note_on_c, 2, 44, 95
2, 227520, Note_off_c, 2, 44, 95
2, 228000, Note_on_c, 2, 40, 95
2, 228240, Note_off_c, 2, 40, 95
2, 228240, Note_on_c, 2, 42, 95
2, 228480, Note_off_c, 2, 42, 95
2, 228960, Note_on_c, 2, 52, 95
2, 229200, Note_off_c, 2, 52, 95
2, 229200, Note_on_c, 2, 51, 95
2, 229440, Note_off_c, 2, 51, 95
2, 229440, Note_on_c, 2, 49, 95
2, 229680, Note_off_c, 2, 49, 95
2, 229680, Note_on_c, 3, 48, 95
2, 229840, Pitch_bend_c, 3, 8192
2, 230000, Pitch_bend_c, 3, 8320
2, 230160, Pitch_bend_c, 3, 8192
2, 230320, Pitch_bend_c, 3, 8320
2, 230400, Pitch_bend_c, 3, 8192
2, 230400, Pitch_bend_c, 3, 8320
2, 230400, Pitch_bend_c, 3, 8192
2, 230400, Note_off_c, 3, 48, 95
2, 230400, Note_on_c, 2, 42, 95
2, 230640, Note_off_c, 2, 42, 95
2, 230640, Note_on_c, 2, 44, 95
2, 230880, Note_off_c, 2, 44, 95
2, 233280, Note_on_c, 2, 42, 95
2, 233520, Note_off_c, 2, 42, 95
2, 233520, Note_on_c, 2, 44, 95
2, 233760, Note_off_c, 2, 44, 95
2, 234240, Note_on_c, 2, 40, 95
2, 234480, Note_off_c, 2, 40, 95
2, 234480, Note_on_c, 2, 42, 95
2, 234720, Note_off_c, 2, 42, 95
2, 234960, Note_on_c, 2, 40, 95
2, 235200, Note_off_c, 2, 40, 95
2, 235200, Note_on_c, 2, 42, 95
2, 235440, Note_off_c, 2, 42, 95
2, 235440, Note_on_c, 2, 44, 95
2, 235680, Note_off_c, 2, 44, 95
2, 235680, Note_on_c, 2, 46, 95
2, 235920, Note_off_c, 2, 46, 95
2, 235920, Note_on_c, 3, 48, 95
2, 236080, Pitch_bend_c, 3, 8192
2, 236240, Pitch_bend_c, 3, 8320
2, 236400, Pitch_bend_c, 3, 8192
2, 236400, Pitch_bend_c, 3, 8320
2, 236400, Pitch_bend_c, 3, 8192
2, 236400, Note_off_c, 3, 48, 95
2, 236400, Note_on_c, 2, 46, 95
2, 236640, Note_off_c, 2, 46, 95
2, 236640, Note_on_c, 2, 44, 95
2, 236880, Note_off_c, 2, 44, 95
2, 236880, Note_on_c, 2, 42, 95
2, 237120, Note_off_c, 2, 42, 95
2, 237120, Note_on_c, 2, 40, 95
2, 237600, Note_off_c, 2, 40, 95
2, 237840, Note_on_c, 2, 52, 47
2, 238080, Note_off_c, 2, 52, 47
2, 238080, Note_on_c, 2, 42, 95
2, 238320, Note_off_c, 2, 42, 95
2, 238320, Note_on_c, 2, 44, 95
2, 238560, Note_off_c, 2, 44, 95
2, 240960, Note_on_c, 2, 42, 95
2, 241200, Note_off_c, 2, 42, 95
2, 241200, Note_on_c, 2, 44, 95
2, 241440, Note_off_c, 2, 44, 95
2, 241920, Note_on_c, 2, 40, 95
2, 242160, Note_off_c, 2, 40, 95
2, 242160, Note_on_c, 2, 42, 95
2, 242400, Note_off_c, 2, 42, 95
2, 242880, Note_on_c, 2, 52, 95
2, 243120, Note_off_c, 2, 52, 95
2, 243120, Note_on_c, 2, 51, 95
2, 243360, Note_off_c, 2, 51, 95
2, 243360, Note_on_c, 2, 49, 95
2, 243600, Note_off_c, 2, 49, 95
2, 243600, Note_on_c, 3, 48, 95
2, 243760, Pitch_bend_c, 3, 8192
2, 243920, Pitch_bend_c, 3, 8320
2, 244080, Pitch_bend_c, 3, 8192
2, 244240, Pitch_bend_c, 3, 8320
2, 244320, Pitch_bend_c, 3, 8192
2, 244320, Pitch_bend_c, 3, 8320
2, 244320, Pitch_bend_c, 3, 8192
2, 244320, Note_off_c, 3, 48, 95
2, 245280, Note_on_c, 2, 56, 79
2, 245400, Note_off_c, 2, 56, 79
2, 245400, Note_on_c, 2, 56, 79
2, 245520, Note_off_c, 2, 56, 79
2, 245520, Note_on_c, 2, 56, 79
2, 245640, Note_off_c, 2, 56, 79
2, 245640, Note_on_c, 2, 56, 79
2, 245760, Note_off_c, 2, 56, 79
2, 245760, Note_on_c, 2, 56, 79
2, 245880, Note_off_c, 2, 56, 79
2, 245880, Note_on_c, 2, 56, 79
2, 246000, Note_off_c, 2, 56, 79
2, 246000, Note_on_c, 2, 56, 79
2, 246120, Note_off_c, 2, 56, 79
2, 246120, Note_on_c, 2, 56, 79
2, 246239, Note_off_c, 2, 56, 79
2, 247440, Note_on_c, 2, 56, 47
2, 247680, Note_off_c, 2, 56, 47
2, 247920, Note_on_c, 2, 56, 79
2, 248160, Note_off_c, 2, 56, 79
2, 248400, Note_on_c, 2, 56, 79
2, 248640, Note_off_c, 2, 56, 79
2, 248880, Note_on_c, 3, 56, 79
2, 249000, Pitch_bend_c, 3, 7552
2, 249120, Pitch_bend_c, 3, 6784
2, 249120, Pitch_bend_c, 3, 8192
2, 249120, Note_off_c, 3, 56, 79
2, 249120, Note_on_c, 2, 54, 95
2, 249600, Note_off_c, 2, 54, 95
2, 249600, Note_on_c, 2, 54, 95
2, 249840, Note_off_c, 2, 54, 95
2, 249840, Note_on_c, 3, 54, 95
2, 249960, Pitch_bend_c, 3, 9600
2, 250080, Pitch_bend_c, 3, 11008
2, 250080, Pitch_bend_c, 3, 8192
2, 250080, Note_off_c, 3, 54, 95
2, 250080, Note_on_c, 2, 58, 95
2, 250560, Note_off_c, 2, 58, 95
2, 250560, Note_on_c, 2, 58, 95
2, 250800, Note_off_c, 2, 58, 95
2, 250800, Note_on_c, 2, 58, 95
2, 251040, Note_off_c, 2, 58, 95
2, 251040, Note_on_c, 2, 52, 95
2, 252000, Note_off_c, 2, 52, 95
2, 252000, Note_on_c, 3, 54, 95
2, 252120, Pitch_bend_c, 3, 8192
2, 252240, Pitch_bend_c, 3, 8192
2, 252360, Pitch_bend_c, 3, 8192
2, 252480, Pitch_bend_c, 3, 8192
2, 252600, Pitch_bend_c, 3, 8192
2, 252720, Pitch_bend_c, 3, 8192
2, 252840, Pitch_bend_c, 3, 8192
2, 252960, Pitch_bend_c, 3, 8192
2, 252960, Pitch_bend_c, 3, 8192
2, 253920, Note_off_c, 3, 54, 95
2, 254880, Note_on_c, 3, 48, 95
2, 255600, Note_off_c, 3, 48, 95
2, 256560, Pitch_bend_c, 3, 8192
2, 256560, Note_on_c, 3, 49, 95
2, 256600, Pitch_bend_c, 3, 8192
2, 256601, Pitch_bend_c, 3, 8320
2, 256602, Pitch_bend_c, 3, 8448
2, 256603, Pitch_bend_c, 3, 8576
2, 256604, Pitch_bend_c, 3, 8704
2, 256605, Pitch_bend_c, 3, 8832
2, 256606, Pitch_bend_c, 3, 8960
2, 256607, Pitch_bend_c, 3, 9088
2, 256608, Pitch_bend_c, 3, 9216
2, 256609, Pitch_bend_c, 3, 9344
2, 256610, Pitch_bend_c, 3, 9472
2, 256611, Pitch_bend_c, 3, 9600
2, 256620, Pitch_bend_c, 3, 9600
2, 256680, Pitch_bend_c, 3, 9600
2, 256800, Pitch_bend_c, 3, 9600
2, 256800, Pitch_bend_c, 3, 8192
2, 256800, Note_off_c, 3, 49, 95
2, 259200, Note_on_c, 3, 48, 95
2, 259680, Note_off_c, 3, 48, 95
2, 259920, Pitch_bend_c, 3, 8192
2, 259920, Note_on_c, 3, 60, 95
2, 260120, Pitch_bend_c, 3, 8192
2, 260140, Pitch_bend_c, 3, 8320
2, 260160, Pitch_bend_c, 3, 8448
2, 260180, Pitch_bend_c, 3, 8576
2, 260200, Pitch_bend_c, 3, 8704
2, 260220, Pitch_bend_c, 3, 8832
2, 260220, Pitch_bend_c, 3, 8832
2, 260520, Pitch_bend_c, 3, 8832
2, 260580, Pitch_bend_c, 3, 8704
2, 260640, Pitch_bend_c, 3, 8576
2, 260700, Pitch_bend_c, 3, 8448
2, 260760, Pitch_bend_c, 3, 8320
2, 260820, Pitch_bend_c, 3, 8192
2, 260820, Pitch_bend_c, 3, 8192
2, 261120, Pitch_bend_c, 3, 8192
2, 261120, Pitch_bend_c, 3, 8192
2, 261120, Note_off_c, 3, 60, 95
2, 261120, Note_on_c, 2, 58, 95
2, 262080, Note_off_c, 2, 58, 95
2, 262800, Note_on_c, 2, 52, 95
2, 262902, Note_off_c, 2, 52, 95
2, 263040, Note_on_c, 2, 56, 95
2, 263142, Note_off_c, 2, 56, 95
2, 263280, Note_on_c, 2, 58, 95
2, 263382, Note_off_c, 2, 58, 95
2, 263520, Pitch_bend_c, 3, 8192
2, 263520, Note_on_c, 3, 59, 95
2, 263560, Pitch_bend_c, 3, 8320
2, 263600, Pitch_bend_c, 3, 8448
2, 263640, Pitch_bend_c, 3, 8576
2, 263680, Pitch_bend_c, 3, 8704
2, 263720, Pitch_bend_c, 3, 8832
2, 263720, Pitch_bend_c, 3, 8832
2, 263920, Pitch_bend_c, 3, 8832
2, 263960, Pitch_bend_c, 3, 8704
2, 264000, Pitch_bend_c, 3, 8576
2, 264040, Pitch_bend_c, 3, 8448
2, 264080, Pitch_bend_c, 3, 8320
2, 264120, Pitch_bend_c, 3, 8192
2, 264120, Pitch_bend_c, 3, 8192
2, 264140, Pitch_bend_c, 3, 8320
2, 264160, Pitch_bend_c, 3, 8448
2, 264180, Pitch_bend_c, 3, 8576
2, 264200, Pitch_bend_c, 3, 8704
2, 264220, Pitch_bend_c, 3, 8832
2, 264220, Pitch_bend_c, 3, 8832
2, 264520, Pitch_bend_c, 3, 8832
2, 264720, Pitch_bend_c, 3, 8832
2, 264720, Pitch_bend_c, 3, 8192
2, 264720, Note_off_c, 3, 59, 95
2, 264720, Note_on_c, 2, 58, 95
2, 264960, Note_off_c, 2, 58, 95
2, 264960, Note_on_c, 2, 56, 95
2, 265440, Note_off_c, 2, 56, 95
2, 265440, Note_on_c, 2, 52, 95
2, 265800, Note_off_c, 2, 52, 95
2, 265800, Note_on_c, 2, 58, 95
2, 265920, Note_off_c, 2, 58, 95
2, 266040, Note_on_c, 3, 56, 95
2, 266200, Pitch_bend_c, 3, 8192
2, 266360, Pitch_bend_c, 3, 8320
2, 266520, Pitch_bend_c, 3, 8192
2, 266680, Pitch_bend_c, 3, 8320
2, 266760, Pitch_bend_c, 3, 8192
2, 266760, Pitch_bend_c, 3, 8320
2, 266760, Pitch_bend_c, 3, 8192
2, 266760, Note_off_c, 3, 56, 95
2, 266760, Note_on_c, 2, 56, 95
2, 266840, Note_off_c, 2, 56, 95
2, 266840, Note_on_c, 2, 58, 70
2, 266920, Note_off_c, 2, 58, 70
2, 266920, Note_on_c, 2, 60, 70
2, 267000, Note_off_c, 2, 60, 70
2, 267000, Note_on_c, 2, 61, 95
2, 267080, Note_off_c, 2, 61, 95
2, 267080, Note_on_c, 2, 63, 70
2, 267160, Note_off_c, 2, 63, 70
2, 267160, Note_on_c, 2, 64, 70
2, 267240, Note_off_c, 2, 64, 70
2, 267240, Note_on_c, 3, 66, 95
2, 267400, Pitch_bend_c, 3, 8192
2, 267560, Pitch_bend_c, 3, 8320
2, 267720, Pitch_bend_c, 3, 8192
2, 267880, Pitch_bend_c, 3, 8320
2, 268040, Pitch_bend_c, 3, 8192
2, 268200, Pitch_bend_c, 3, 8320
2, 268200, Pitch_bend_c, 3, 8192
2, 268200, Note_off_c, 3, 66, 95
2, 269280, Note_on_c, 2, 64, 95
2, 269400, Note_off_c, 2, 64, 95
2, 269400, Note_on_c, 2, 63, 95
2, 269520, Note_off_c, 2, 63, 95
2, 269520, Note_on_c, 2, 61, 95
2, 270480, Note_off_c, 2, 61, 95
2, 270480, Pitch_bend_c, 3, 8192
2, 270480, Note_on_c, 3, 59, 47
2, 270490, Pitch_bend_c, 3, 8064
2, 270500, Pitch_bend_c, 3, 7936
2, 270510, Pitch_bend_c, 3, 7808
2, 270520, Pitch_bend_c, 3, 7680
2, 270530, Pitch_bend_c, 3, 7552
2, 270540, Pitch_bend_c, 3, 7424
2, 270550, Pitch_bend_c, 3, 7296
2, 270560, Pitch_bend_c, 3, 7168
2, 270570, Pitch_bend_c, 3, 7040
2, 270580, Pitch_bend_c, 3, 6912
2, 270590, Pitch_bend_c, 3, 6784
2, 270600, Pitch_bend_c, 3, 6784
2, 270610, Pitch_bend_c, 3, 6912
2, 270620, Pitch_bend_c, 3, 7040
2, 270630, Pitch_bend_c, 3, 7168
2, 270640, Pitch_bend_c, 3, 7296
2, 270650, Pitch_bend_c, 3, 7424
2, 270660, Pitch_bend_c, 3, 7552
2, 270670, Pitch_bend_c, 3, 7680
2, 270680, Pitch_bend_c, 3, 7808
2, 270690, Pitch_bend_c, 3, 7936
2, 270700, Pitch_bend_c, 3, 8064
2, 270710, Pitch_bend_c, 3, 8192
2, 270720, Pitch_bend_c, 3, 8192
2, 270720, Pitch_bend_c, 3, 8192
2, 270720, Note_off_c, 3, 59, 47
2, 270720, Pitch_bend_c, 3, 8192
2, 270720, Note_on_c, 3, 64, 47
2, 270960, Pitch_bend_c, 3, 8192
2, 271360, Pitch_bend_c, 3, 8192
2, 271376, Pitch_bend_c, 3, 8064
2, 271392, Pitch_bend_c, 3, 7936
2, 271408, Pitch_bend_c, 3, 7808
2, 271424, Pitch_bend_c, 3, 7680
2, 271440, Pitch_bend_c, 3, 7552
2, 271440, Pitch_bend_c, 3, 7552
2, 271600, Pitch_bend_c, 3, 7552
2, 271616, Pitch_bend_c, 3, 7680
2, 271632, Pitch_bend_c, 3, 7808
2, 271648, Pitch_bend_c, 3, 7936
2, 271664, Pitch_bend_c, 3, 8064
2, 271680, Pitch_bend_c, 3, 8192
2, 271680, Pitch_bend_c, 3, 8192
2, 271680, Pitch_bend_c, 3, 8192
2, 271680, Note_off_c, 3, 64, 47
2, 272640, Note_on_c, 3, 40, 95
2, 272760, Pitch_bend_c, 3, 11264
2, 272880, Pitch_bend_c, 3, 14464
2, 272880, Pitch_bend_c, 3, 8192
2, 272880, Note_off_c, 3, 40, 95
2, 272880, Note_on_c, 2, 49, 95
2, 273240, Note_off_c, 2, 49, 95
2, 273240, Note_on_c, 2, 48, 95
2, 273600, Note_off_c, 2, 48, 95
2, 273600, Note_on_c, 2, 56, 95
2, 273960, Note_off_c, 2, 56, 95
2, 273960, Note_on_c, 2, 54, 95
2, 274320, Note_off_c, 2, 54, 95
2, 274320, Note_on_c, 2, 61, 95
2, 274680, Note_off_c, 2, 61, 95
2, 274680, Note_on_c, 2, 60, 95
2, 275040, Note_off_c, 2, 60, 95
2, 275040, Note_on_c, 2, 68, 95
2, 275400, Note_off_c, 2, 68, 95
2, 275400, Note_on_c, 2, 66, 95
2, 275760, Note_off_c, 2, 66, 95
2, 275760, Note_on_c, 2, 73, 95
2, 276120, Note_off_c, 2, 73, 95
2, 276120, Note_on_c, 3, 72, 95
2, 276280, Pitch_bend_c, 3, 8192
2, 276440, Pitch_bend_c, 3, 8320
2, 276600, Pitch_bend_c, 3, 8192
2, 276760, Pitch_bend_c, 3, 8320
2, 276920, Pitch_bend_c, 3, 8192
2, 277080, Pitch_bend_c, 3, 8320
2, 277240, Pitch_bend_c, 3, 8192
2, 277400, Pitch_bend_c, 3, 8320
2, 277560, Pitch_bend_c, 3, 8192
2, 277720, Pitch_bend_c, 3, 8320
2, 277880, Pitch_bend_c, 3, 8192
2, 278040, Pitch_bend_c, 3, 8320
2, 278040, Pitch_bend_c, 3, 8192
2, 278040, Note_off_c, 3, 72, 95
2, 278040, Note_on_c, 2, 68, 95
2, 278400, Note_off_c, 2, 68, 95
2, 278400, Note_on_c, 2, 72, 111
2, 278760, Note_off_c, 2, 72, 111
2, 278760, Note_on_c, 2, 73, 111
2, 279120, Note_off_c, 2, 73, 111
2, 279120, Note_on_c, 2, 75, 111
2, 279480, Note_off_c, 2, 75, 111
2, 279480, Pitch_bend_c, 3, 8192
2, 279480, Note_on_c, 3, 75, 111
2, 279564, Pitch_bend_c, 3, 8320
2, 279648, Pitch_bend_c, 3, 8448
2, 279732, Pitch_bend_c, 3, 8576
2, 279816, Pitch_bend_c, 3, 8704
2, 279900, Pitch_bend_c, 3, 8832
2, 279900, Pitch_bend_c, 3, 8832
2, 280110, Pitch_bend_c, 3, 8832
2, 280740, Pitch_bend_c, 3, 8832
2, 281370, Pitch_bend_c, 3, 8832
2, 281496, Pitch_bend_c, 3, 8704
2, 281622, Pitch_bend_c, 3, 8576
2, 281748, Pitch_bend_c, 3, 8448
2, 281874, Pitch_bend_c, 3, 8320
2, 282000, Pitch_bend_c, 3, 8192
2, 282000, Pitch_bend_c, 3, 8192
2, 282000, Pitch_bend_c, 3, 8192
2, 282000, Note_off_c, 3, 75, 111
2, 282000, Note_on_c, 2, 73, 95
2, 282240, Note_off_c, 2, 73, 95
2, 282240, Note_on_c, 2, 76, 95
2, 282360, Note_off_c, 2, 76, 95
2, 282360, Note_on_c, 2, 75, 95
2, 282480, Note_off_c, 2, 75, 95
2, 282480, Note_on_c, 2, 76, 95
2, 282600, Note_off_c, 2, 76, 95
2, 282600, Note_on_c, 2, 73, 95
2, 282720, Note_off_c, 2, 73, 95
2, 282720, Note_on_c, 2, 76, 95
2, 282840, Note_off_c, 2, 76, 95
2, 282840, Note_on_c, 2, 75, 95
2, 282960, Note_off_c, 2, 75, 95
2, 282960, Note_on_c, 2, 76, 95
2, 283080, Note_off_c, 2, 76, 95
2, 283080, Note_on_c, 2, 73, 95
2, 283200, Note_off_c, 2, 73, 95
2, 283200, Note_on_c, 2, 76, 95
2, 283320, Note_off_c, 2, 76, 95
2, 283320, Note_on_c, 2, 75, 95
2, 283440, Note_off_c, 2, 75, 95
2, 283440, Note_on_c, 2, 76, 95
2, 283560, Note_off_c, 2, 76, 95
2, 283560, Note_on_c, 2, 73, 95
2, 283680, Note_off_c, 2, 73, 95
2, 283680, Note_on_c, 2, 76, 95
2, 283800, Note_off_c, 2, 76, 95
2, 283800, Note_on_c, 2, 75, 95
2, 283920, Note_off_c, 2, 75, 95
2, 283920, Note_on_c, 2, 76, 95
2, 284040, Note_off_c, 2, 76, 95
2, 284040, Note_on_c, 2, 73, 95
2, 284160, Note_off_c, 2, 73, 95
2, 284160, Note_on_c, 2, 76, 95
2, 284280, Note_off_c, 2, 76, 95
2, 284280, Note_on_c, 2, 72, 95
2, 284400, Note_off_c, 2, 72, 95
2, 284400, Note_on_c, 2, 76, 95
2, 284520, Note_off_c, 2, 76, 95
2, 284520, Note_on_c, 2, 75, 95
2, 284640, Note_off_c, 2, 75, 95
2, 284640, Note_on_c, 2, 76, 95
2, 284760, Note_off_c, 2, 76, 95
2, 284760, Note_on_c, 2, 73, 95
2, 284880, Note_off_c, 2, 73, 95
2, 284880, Note_on_c, 2, 76, 95
2, 285000, Note_off_c, 2, 76, 95
2, 285000, Note_on_c, 2, 72, 95
2, 285120, Note_off_c, 2, 72, 95
2, 285120, Note_on_c, 2, 76, 95
2, 285240, Note_off_c, 2, 76, 95
2, 285240, Note_on_c, 2, 70, 95
2, 285360, Note_off_c, 2, 70, 95
2, 285360, Note_on_c, 2, 76, 95
2, 285480, Note_off_c, 2, 76, 95
2, 285480, Note_on_c, 2, 73, 95
2, 285600, Note_off_c, 2, 73, 95
2, 285600, Note_on_c, 2, 76, 95
2, 285720, Note_off_c, 2, 76, 95
2, 285720, Note_on_c, 2, 72, 95
2, 285840, Note_off_c, 2, 72, 95
2, 285840, Note_on_c, 2, 76, 95
2, 285960, Note_off_c, 2, 76, 95
2, 285960, Note_on_c, 2, 70, 95
2, 286080, Note_off_c, 2, 70, 95
2, 286080, Note_on_c, 2, 68, 95
2, 286200, Note_off_c, 2, 68, 95
2, 286200, Note_on_c, 2, 70, 95
2, 286320, Note_off_c, 2, 70, 95
2, 286320, Note_on_c, 2, 64, 95
2, 287760, Note_off_c, 2, 64, 95
2, 287880, Note_on_c, 2, 72, 95
2, 288000, Note_off_c, 2, 72, 95
2, 288000, Note_on_c, 2, 68, 95
2, 288120, Note_off_c, 2, 68, 95
2, 288120, Note_on_c, 2, 63, 95
2, 288240, Note_off_c, 2, 63, 95
2, 288240, Note_on_c, 2, 68, 95
2, 288360, Note_off_c, 2, 68, 95
2, 288360, Note_on_c, 2, 72, 95
2, 288480, Note_off_c, 2, 72, 95
2, 288480, Note_on_c, 2, 80, 95
2, 288600, Note_off_c, 2, 80, 95
2, 288600, Note_on_c, 2, 75, 95
2, 288720, Note_off_c, 2, 75, 95
2, 288720, Note_on_c, 2, 71, 95
2, 288840, Note_off_c, 2, 71, 95
2, 288840, Note_on_c, 2, 67, 95
2, 288960, Note_off_c, 2, 67, 95
2, 288960, Pitch_bend_c, 3, 8192
2, 288960, Note_on_c, 3, 72, 95
2, 289152, Pitch_bend_c, 3, 8320
2, 289344, Pitch_bend_c, 3, 8448
2, 289536, Pitch_bend_c, 3, 8576
2, 289728, Pitch_bend_c, 3, 8704
2, 289920, Pitch_bend_c, 3, 8832
2, 289920, Pitch_bend_c, 3, 8832
2, 290820, Note_on_c, 3, 68, 95
2, 290880, Pitch_bend_c, 3, 8832
2, 290880, Pitch_bend_c, 3, 8192
2, 290880, Note_off_c, 3, 72, 95
2, 290880, Note_off_c, 3, 68, 95
2, 290880, Note_on_c, 3, 70, 95
2, 291000, Pitch_bend_c, 3, 6784
2, 291000, Pitch_bend_c, 3, 8192
2, 291000, Note_off_c, 3, 70, 95
2, 291000, Note_on_c, 2, 68, 95
2, 291420, Note_on_c, 3, 68, 95
2, 291480, Note_off_c, 2, 68, 95
2, 291480, Note_off_c, 3, 68, 95
2, 291480, Note_on_c, 3, 70, 95
2, 291600, Pitch_bend_c, 3, 5376
2, 291600, Pitch_bend_c, 3, 8192
2, 291600, Note_off_c, 3, 70, 95
2, 291600, Note_on_c, 2, 66, 95
2, 292020, Note_on_c, 3, 68, 95
2, 292080, Note_off_c, 2, 66, 95
2, 292080, Note_off_c, 3, 68, 95
2, 292080, Note_on_c, 3, 66, 95
2, 292200, Pitch_bend_c, 3, 6784
2, 292200, Pitch_bend_c, 3, 8192
2, 292200, Note_off_c, 3, 66, 95
2, 292200, Note_on_c, 2, 64, 95
2, 292680, Note_off_c, 2, 64, 95
2, 292680, Note_on_c, 2, 64, 95
2, 292920, Note_off_c, 2, 64, 95
2, 293760, Note_on_c, 2, 66, 95
2, 294000, Note_off_c, 2, 66, 95
2, 294240, Note_on_c, 2, 62, 95
2, 294720, Note_off_c, 2, 62, 95
2, 294720, Note_on_c, 2, 62, 95
2, 294960, Note_off_c, 2, 62, 95
2, 294960, Note_on_c, 2, 62, 95
2, 295200, Note_off_c, 2, 62, 95
2, 295200, Note_on_c, 2, 62, 95
2, 295440, Note_off_c, 2, 62, 95
2, 295440, Note_on_c, 2, 62, 95
2, 295680, Note_off_c, 2, 62, 95
2, 295680, Note_on_c, 2, 63, 95
2, 295920, Note_off_c, 2, 63, 95
2, 295920, Note_on_c, 2, 63, 95
2, 296160, Note_off_c, 2, 63, 95
2, 296160, Note_on_c, 2, 63, 95
2, 296400, Note_off_c, 2, 63, 95
2, 296400, Note_on_c, 2, 63, 95
2, 296880, Note_off_c, 2, 63, 95
2, 296880, Note_on_c, 2, 63, 95
2, 297120, Note_off_c, 2, 63, 95
2, 297120, Note_on_c, 2, 63, 95
2, 297360, Note_off_c, 2, 63, 95
2, 297600, Note_on_c, 2, 60, 95
2, 297840, Note_off_c, 2, 60, 95
2, 298080, Note_on_c, 2, 61, 95
2, 298320, Note_off_c, 2, 61, 95
2, 298320, Note_on_c, 2, 58, 95
2, 298560, Note_off_c, 2, 58, 95
2, 298560, Note_on_c, 2, 60, 95
2, 298800, Note_off_c, 2, 60, 95
2, 298800, Note_on_c, 2, 56, 95
2, 299040, Note_off_c, 2, 56, 95
2, 299040, Note_on_c, 2, 58, 95
2, 301440, Note_off_c, 2, 58, 95
2, 301440, Note_on_c, 3, 56, 95
2, 301560, Pitch_bend_c, 3, 8192
2, 301680, Pitch_bend_c, 3, 8192
2, 301680, Pitch_bend_c, 3, 8192
2, 301920, Note_off_c, 3, 56, 95
2, 301920, Note_on_c, 2, 56, 95
2, 302160, Note_off_c, 2, 56, 95
2, 302160, Note_on_c, 2, 56, 95
2, 302400, Note_off_c, 2, 56, 95
2, 302400, Note_on_c, 2, 56, 95
2, 302640, Note_off_c, 2, 56, 95
2, 302640, Note_on_c, 2, 56, 95
2, 302880, Note_off_c, 2, 56, 95
2, 302880, Note_on_c, 2, 58, 95
2, 303120, Note_off_c, 2, 58, 95
2, 303120, Note_on_c, 2, 58, 95
2, 303360, Note_off_c, 2, 58, 95
2, 303360, Note_on_c, 2, 58, 95
2, 303840, Note_off_c, 2, 58, 95
2, 303840, Note_on_c, 2, 46, 95
2, 304080, Note_off_c, 2, 46, 95
2, 304080, Note_on_c, 2, 46, 95
2, 304320, Note_off_c, 2, 46, 95
2, 304320, Note_on_c, 2, 46, 95
2, 304560, Note_off_c, 2, 46, 95
2, 304560, Note_on_c, 2, 49, 95
2, 304800, Note_off_c, 2, 49, 95
2, 304800, Note_on_c, 2, 48, 95
2, 305040, Note_off_c, 2, 48, 95
2, 305040, Note_on_c, 2, 51, 95
2, 305280, Note_off_c, 2, 51, 95
2, 305280, Note_on_c, 2, 49, 95
2, 305520, Note_off_c, 2, 49, 95
2, 305520, Note_on_c, 2, 52, 95
2, 305760, Note_off_c, 2, 52, 95
2, 305760, Note_on_c, 2, 51, 95
2, 306000, Note_off_c, 2, 51, 95
2, 306000, Note_on_c, 3, 54, 95
2, 306160, Pitch_bend_c, 3, 8192
2, 306320, Pitch_bend_c, 3, 8320
2, 306480, Pitch_bend_c, 3, 8192
2, 306480, Pitch_bend_c, 3, 8320
2, 306480, Pitch_bend_c, 3, 8192
2, 306480, Note_off_c, 3, 54, 95
2, 307440, Note_on_c, 2, 55, 95
2, 307440, Note_on_c, 2, 50, 95
2, 307440, Note_on_c, 2, 45, 95
2, 307491, Note_off_c, 2, 55, 95
2, 307491, Note_off_c, 2, 50, 95
2, 307491, Note_off_c, 2, 45, 95
2, 307560, Pitch_bend_c, 3, 8192
2, 307560, Note_on_c, 3, 73, 95
2, 307609, Pitch_bend_c, 3, 8320
2, 307658, Pitch_bend_c, 3, 8448
2, 307707, Pitch_bend_c, 3, 8576
2, 307756, Pitch_bend_c, 3, 8704
2, 307805, Pitch_bend_c, 3, 8832
2, 307854, Pitch_bend_c, 3, 8960
2, 307903, Pitch_bend_c, 3, 9088
2, 307952, Pitch_bend_c, 3, 9216
2, 308001, Pitch_bend_c, 3, 9344
2, 308050, Pitch_bend_c, 3, 9472
2, 308099, Pitch_bend_c, 3, 9600
2, 308100, Pitch_bend_c, 3, 9600
2, 308640, Pitch_bend_c, 3, 9600
2, 308640, Pitch_bend_c, 3, 8192
2, 308640, Note_off_c, 3, 73, 95
2, 308640, Pitch_bend_c, 3, 9600
2, 308640, Note_on_c, 3, 73, 95
2, 308800, Pitch_bend_c, 3, 9600
2, 308814, Pitch_bend_c, 3, 9472
2, 308828, Pitch_bend_c, 3, 9344
2, 308842, Pitch_bend_c, 3, 9216
2, 308856, Pitch_bend_c, 3, 9088
2, 308870, Pitch_bend_c, 3, 8960
2, 308884, Pitch_bend_c, 3, 8832
2, 308898, Pitch_bend_c, 3, 8704
2, 308912, Pitch_bend_c, 3, 8576
2, 308926, Pitch_bend_c, 3, 8448
2, 308940, Pitch_bend_c, 3, 8320
2, 308954, Pitch_bend_c, 3, 8192
2, 308960, Pitch_bend_c, 3, 8192
2, 309120, Pitch_bend_c, 3, 8192
2, 309120, Pitch_bend_c, 3, 8192
2, 309120, Note_off_c, 3, 73, 95
2, 309120, Note_on_c, 2, 72, 95
2, 309360, Note_off_c, 2, 72, 95
2, 309360, Note_on_c, 2, 70, 95
2, 309600, Note_off_c, 2, 70, 95
2, 309600, Note_on_c, 2, 68, 95
2, 309840, Note_off_c, 2, 68, 95
2, 309840, Note_on_c, 2, 73, 95
2, 310080, Note_off_c, 2, 73, 95
2, 310080, Note_on_c, 2, 72, 95
2, 310320, Note_off_c, 2, 72, 95
2, 310320, Pitch_bend_c, 3, 8192
2, 310320, Note_on_c, 3, 68, 95
2, 310347, Pitch_bend_c, 3, 8320
2, 310374, Pitch_bend_c, 3, 8448
2, 310401, Pitch_bend_c, 3, 8576
2, 310428, Pitch_bend_c, 3, 8704
2, 310455, Pitch_bend_c, 3, 8832
2, 310482, Pitch_bend_c, 3, 8960
2, 310509, Pitch_bend_c, 3, 9088
2, 310536, Pitch_bend_c, 3, 9216
2, 310563, Pitch_bend_c, 3, 9344
2, 310590, Pitch_bend_c, 3, 9472
2, 310617, Pitch_bend_c, 3, 9600
2, 310620, Pitch_bend_c, 3, 9600
2, 310920, Pitch_bend_c, 3, 9600
2, 311320, Pitch_bend_c, 3, 9600
2, 311338, Pitch_bend_c, 3, 9472
2, 311356, Pitch_bend_c, 3, 9344
2, 311374, Pitch_bend_c, 3, 9216
2, 311392, Pitch_bend_c, 3, 9088
2, 311410, Pitch_bend_c, 3, 8960
2, 311428, Pitch_bend_c, 3, 8832
2, 311446, Pitch_bend_c, 3, 8704
2, 311464, Pitch_bend_c, 3, 8576
2, 311482, Pitch_bend_c, 3, 8448
2, 311500, Pitch_bend_c, 3, 8320
2, 311518, Pitch_bend_c, 3, 8192
2, 311520, Pitch_bend_c, 3, 8192
2, 311520, Pitch_bend_c, 3, 8192
2, 311520, Note_off_c, 3, 68, 95
2, 311520, Note_on_c, 2, 68, 95
2, 311760, Note_off_c, 2, 68, 95
2, 311760, Pitch_bend_c, 3, 8192
2, 311760, Note_on_c, 3, 72, 95
2, 311775, Pitch_bend_c, 3, 8320
2, 311790, Pitch_bend_c, 3, 8448
2, 311805, Pitch_bend_c, 3, 8576
2, 311820, Pitch_bend_c, 3, 8704
2, 311835, Pitch_bend_c, 3, 8832
2, 311850, Pitch_bend_c, 3, 8960
2, 311865, Pitch_bend_c, 3, 9088
2, 311880, Pitch_bend_c, 3, 9216
2, 311880, Pitch_bend_c, 3, 9216
2, 312000, Pitch_bend_c, 3, 9216
2, 312015, Pitch_bend_c, 3, 9088
2, 312030, Pitch_bend_c, 3, 8960
2, 312045, Pitch_bend_c, 3, 8832
2, 312060, Pitch_bend_c, 3, 8704
2, 312075, Pitch_bend_c, 3, 8576
2, 312090, Pitch_bend_c, 3, 8448
2, 312105, Pitch_bend_c, 3, 8320
2, 312120, Pitch_bend_c, 3, 8192
2, 312120, Pitch_bend_c, 3, 8192
2, 312240, Pitch_bend_c, 3, 8192
2, 312240, Pitch_bend_c, 3, 8192
2, 312240, Note_off_c, 3, 72, 95
2, 312240, Note_on_c, 2, 70, 95
2, 312360, Note_off_c, 2, 70, 95
2, 312360, Note_on_c, 2, 68, 95
2, 312480, Note_off_c, 2, 68, 95
2, 312480, Pitch_bend_c, 3, 8192
2, 312480, Note_on_c, 3, 72, 95
2, 312504, Pitch_bend_c, 3, 8320
2, 312528, Pitch_bend_c, 3, 8448
2, 312552, Pitch_bend_c, 3, 8576
2, 312576, Pitch_bend_c, 3, 8704
2, 312600, Pitch_bend_c, 3, 8832
2, 312600, Pitch_bend_c, 3, 8832
2, 312720, Pitch_bend_c, 3, 8832
2, 312744, Pitch_bend_c, 3, 8704
2, 312768, Pitch_bend_c, 3, 8576
2, 312792, Pitch_bend_c, 3, 8448
2, 312816, Pitch_bend_c, 3, 8320
2, 312840, Pitch_bend_c, 3, 8192
2, 312840, Pitch_bend_c, 3, 8192
2, 312960, Pitch_bend_c, 3, 8192
2, 312960, Pitch_bend_c, 3, 8192
2, 312960, Note_off_c, 3, 72, 95
2, 312960, Note_on_c, 2, 70, 95
2, 313080, Note_off_c, 2, 70, 95
2, 313080, Note_on_c, 2, 68, 95
2, 313200, Note_off_c, 2, 68, 95
2, 313200, Pitch_bend_c, 3, 8192
2, 313200, Note_on_c, 3, 72, 95
2, 313224, Pitch_bend_c, 3, 8320
2, 313248, Pitch_bend_c, 3, 8448
2, 313272, Pitch_bend_c, 3, 8576
2, 313296, Pitch_bend_c, 3, 8704
2, 313320, Pitch_bend_c, 3, 8832
2, 313320, Pitch_bend_c, 3, 8832
2, 313440, Pitch_bend_c, 3, 8832
2, 313464, Pitch_bend_c, 3, 8704
2, 313488, Pitch_bend_c, 3, 8576
2, 313512, Pitch_bend_c, 3, 8448
2, 313536, Pitch_bend_c, 3, 8320
2, 313560, Pitch_bend_c, 3, 8192
2, 313560, Pitch_bend_c, 3, 8192
2, 313680, Pitch_bend_c, 3, 8192
2, 313680, Pitch_bend_c, 3, 8192
2, 313680, Note_off_c, 3, 72, 95
2, 313680, Note_on_c, 2, 70, 95
2, 313800, Note_off_c, 2, 70, 95
2, 313800, Note_on_c, 2, 68, 95
2, 313920, Note_off_c, 2, 68, 95
2, 313920, Pitch_bend_c, 3, 8192
2, 313920, Note_on_c, 3, 73, 95
2, 314007, Pitch_bend_c, 3, 8320
2, 314094, Pitch_bend_c, 3, 8448
2, 314181, Pitch_bend_c, 3, 8576
2, 314268, Pitch_bend_c, 3, 8704
2, 314355, Pitch_bend_c, 3, 8832
2, 314442, Pitch_bend_c, 3, 8960
2, 314529, Pitch_bend_c, 3, 9088
2, 314616, Pitch_bend_c, 3, 9216
2, 314703, Pitch_bend_c, 3, 9344
2, 314790, Pitch_bend_c, 3, 9472
2, 314877, Pitch_bend_c, 3, 9600
2, 314880, Pitch_bend_c, 3, 9600
2, 315840, Pitch_bend_c, 3, 9600
2, 315840, Pitch_bend_c, 3, 8192
2, 315840, Note_off_c, 3, 73, 95
2, 315840, Note_on_c, 2, 64, 95
2, 316160, Note_off_c, 2, 64, 95
2, 316160, Note_on_c, 2, 75, 95
2, 316480, Note_off_c, 2, 75, 95
2, 316480, Note_on_c, 2, 76, 95
2, 316800, Note_off_c, 2, 76, 95
2, 316800, Note_on_c, 2, 78, 95
2, 317120, Note_off_c, 2, 78, 95
2, 317120, Note_on_c, 2, 76, 95
2, 317440, Note_off_c, 2, 76, 95
2, 317440, Note_on_c, 2, 78, 95
2, 317760, Note_off_c, 2, 78, 95
2, 317760, Note_on_c, 2, 80, 95
2, 318080, Note_off_c, 2, 80, 95
2, 318080, Note_on_c, 2, 78, 95
2, 318400, Note_off_c, 2, 78, 95
2, 318400, Pitch_bend_c, 3, 8192
2, 318400, Note_on_c, 3, 80, 95
2, 318421, Pitch_bend_c, 3, 8320
2, 318442, Pitch_bend_c, 3, 8448
2, 318463, Pitch_bend_c, 3, 8576
2, 318484, Pitch_bend_c, 3, 8704
2, 318505, Pitch_bend_c, 3, 8832
2, 318526, Pitch_bend_c, 3, 8960
2, 318547, Pitch_bend_c, 3, 9088
2, 318568, Pitch_bend_c, 3, 9216
2, 318589, Pitch_bend_c, 3, 9344
2, 318610, Pitch_bend_c, 3, 9472
2, 318631, Pitch_bend_c, 3, 9600
2, 318640, Pitch_bend_c, 3, 9600
2, 318880, Pitch_bend_c, 3, 9600
2, 318880, Pitch_bend_c, 3, 8192
2, 318880, Note_off_c, 3, 80, 95
2, 318880, Pitch_bend_c, 3, 9600
2, 318880, Note_on_c, 3, 80, 95
2, 319000, Pitch_bend_c, 3, 9600
2, 319000, Pitch_bend_c, 3, 8192
2, 319000, Note_off_c, 3, 80, 95
2, 319000, Pitch_bend_c, 3, 9600
2, 319000, Note_on_c, 3, 80, 95
2, 319120, Pitch_bend_c, 3, 9600
2, 319120, Pitch_bend_c, 3, 8192
2, 319120, Note_off_c, 3, 80, 95
2, 319120, Pitch_bend_c, 3, 8192
2, 319120, Note_on_c, 3, 82, 95
2, 319141, Pitch_bend_c, 3, 8320
2, 319162, Pitch_bend_c, 3, 8448
2, 319183, Pitch_bend_c, 3, 8576
2, 319204, Pitch_bend_c, 3, 8704
2, 319225, Pitch_bend_c, 3, 8832
2, 319246, Pitch_bend_c, 3, 8960
2, 319267, Pitch_bend_c, 3, 9088
2, 319288, Pitch_bend_c, 3, 9216
2, 319309, Pitch_bend_c, 3, 9344
2, 319330, Pitch_bend_c, 3, 9472
2, 319351, Pitch_bend_c, 3, 9600
2, 319360, Pitch_bend_c, 3, 9600
2, 319600, Pitch_bend_c, 3, 9600
2, 319600, Pitch_bend_c, 3, 8192
2, 319600, Note_off_c, 3, 82, 95
2, 319600, Pitch_bend_c, 3, 9600
2, 319600, Note_on_c, 3, 82, 95
2, 319720, Pitch_bend_c, 3, 9600
2, 319720, Pitch_bend_c, 3, 8192
2, 319720, Note_off_c, 3, 82, 95
2, 319720, Pitch_bend_c, 3, 9600
2, 319720, Note_on_c, 3, 82, 95
2, 320680, Pitch_bend_c, 3, 9600
2, 320680, Pitch_bend_c, 3, 8192
2, 320680, Note_off_c, 3, 82, 95
2, 321600, Pitch_bend_c, 3, 8192
2, 321600, Note_on_c, 3, 85, 95
2, 321632, Pitch_bend_c, 3, 8320
2, 321664, Pitch_bend_c, 3, 8448
2, 321696, Pitch_bend_c, 3, 8576
2, 321728, Pitch_bend_c, 3, 8704
2, 321760, Pitch_bend_c, 3, 8832
2, 321792, Pitch_bend_c, 3, 8960
2, 321824, Pitch_bend_c, 3, 9088
2, 321856, Pitch_bend_c, 3, 9216
2, 321888, Pitch_bend_c, 3, 9344
2, 321920, Pitch_bend_c, 3, 9472
2, 321952, Pitch_bend_c, 3, 9600
2, 321960, Pitch_bend_c, 3, 9600
2, 322320, Pitch_bend_c, 3, 9600
2, 322320, Pitch_bend_c, 3, 8192
2, 322320, Note_off_c, 3, 85, 95
2, 322320, Pitch_bend_c, 3, 8192
2, 322320, Note_on_c, 3, 83, 95
2, 322341, Pitch_bend_c, 3, 8320
2, 322362, Pitch_bend_c, 3, 8448
2, 322383, Pitch_bend_c, 3, 8576
2, 322404, Pitch_bend_c, 3, 8704
2, 322425, Pitch_bend_c, 3, 8832
2, 322446, Pitch_bend_c, 3, 8960
2, 322467, Pitch_bend_c, 3, 9088
2, 322488, Pitch_bend_c, 3, 9216
2, 322509, Pitch_bend_c, 3, 9344
2, 322530, Pitch_bend_c, 3, 9472
2, 322551, Pitch_bend_c, 3, 9600
2, 322560, Pitch_bend_c, 3, 9600
2, 322800, Pitch_bend_c, 3, 9600
2, 322800, Pitch_bend_c, 3, 8192
2, 322800, Note_off_c, 3, 83, 95
2, 322800, Note_on_c, 2, 84, 95
2, 323040, Note_off_c, 2, 84, 95
2, 323040, Note_on_c, 2, 80, 95
2, 323280, Note_off_c, 2, 80, 95
2, 323280, Note_on_c, 2, 75, 95
2, 323520, Note_off_c, 2, 75, 95
2, 323520, Note_on_c, 2, 80, 95
2, 323760, Note_off_c, 2, 80, 95
2, 323760, Note_on_c, 3, 75, 95
2, 323880, Pitch_bend_c, 3, 7552
2, 324000, Pitch_bend_c, 3, 6784
2, 324000, Pitch_bend_c, 3, 8192
2, 324000, Note_off_c, 3, 75, 95
2, 324000, Note_on_c, 2, 73, 95
2, 324240, Note_off_c, 2, 73, 95
2, 324240, Note_on_c, 2, 68, 95
2, 324480, Note_off_c, 2, 68, 95
2, 324480, Note_on_c, 2, 64, 95
2, 324720, Note_off_c, 2, 64, 95
2, 324720, Note_on_c, 2, 63, 95
2, 324960, Note_off_c, 2, 63, 95
2, 324960, Note_on_c, 2, 61, 95
2, 325200, Note_off_c, 2, 61, 95
2, 325200, Note_on_c, 2, 60, 95
2, 325440, Note_off_c, 2, 60, 95
2, 325440, Note_on_c, 2, 58, 95
2, 325680, Note_off_c, 2, 58, 95
2, 325680, Pitch_bend_c, 3, 8192
2, 325680, Note_on_c, 3, 56, 95
2, 325694, Pitch_bend_c, 3, 8320
2, 325708, Pitch_bend_c, 3, 8448
2, 325722, Pitch_bend_c, 3, 8576
2, 325736, Pitch_bend_c, 3, 8704
2, 325750, Pitch_bend_c, 3, 8832
2, 325764, Pitch_bend_c, 3, 8960
2, 325778, Pitch_bend_c, 3, 9088
2, 325792, Pitch_bend_c, 3, 9216
2, 325806, Pitch_bend_c, 3, 9344
2, 325820, Pitch_bend_c, 3, 9472
2, 325834, Pitch_bend_c, 3, 9600
2, 325840, Pitch_bend_c, 3, 9600
2, 325920, Pitch_bend_c, 3, 9600
2, 326000, Pitch_bend_c, 3, 9600
2, 326014, Pitch_bend_c, 3, 9472
2, 326028, Pitch_bend_c, 3, 9344
2, 326042, Pitch_bend_c, 3, 9216
2, 326056, Pitch_bend_c, 3, 9088
2, 326070, Pitch_bend_c, 3, 8960
2, 326084, Pitch_bend_c, 3, 8832
2, 326098, Pitch_bend_c, 3, 8704
2, 326112, Pitch_bend_c, 3, 8576
2, 326126, Pitch_bend_c, 3, 8448
2, 326140, Pitch_bend_c, 3, 8320
2, 326154, Pitch_bend_c, 3, 8192
2, 326160, Pitch_bend_c, 3, 8192
2, 326160, Pitch_bend_c, 3, 8192
2, 326160, Note_off_c, 3, 56, 95
2, 326160, Note_on_c, 3, 56, 95
2, 326320, Pitch_bend_c, 3, 8192
2, 326480, Pitch_bend_c, 3, 8320
2, 326640, Pitch_bend_c, 3, 8192
2, 326800, Pitch_bend_c, 3, 8320
2, 326960, Pitch_bend_c, 3, 8192
2, 327120, Pitch_bend_c, 3, 8320
2, 327280, Pitch_bend_c, 3, 8192
2, 327440, Pitch_bend_c, 3, 8320
2, 327600, Pitch_bend_c, 3, 8192
2, 327760, Pitch_bend_c, 3, 8320
2, 327920, Pitch_bend_c, 3, 8192
2, 328080, Pitch_bend_c, 3, 8320
2, 328080, Pitch_bend_c, 3, 8192
2, 328080, Note_off_c, 3, 56, 95
2, 328080, Note_on_c, 2, 54, 95
2, 328200, Note_off_c, 2, 54, 95
2, 328200, Note_on_c, 2, 54, 95
2, 328320, Note_off_c, 2, 54, 95
2, 328320, Note_on_c, 2, 54, 95
2, 328440, Note_off_c, 2, 54, 95
2, 328440, Note_on_c, 2, 54, 95
2, 328559, Note_off_c, 2, 54, 95
2, 328560, Note_on_c, 2, 56, 95
2, 328680, Note_off_c, 2, 56, 95
2, 328680, Note_on_c, 2, 56, 95
2, 328800, Note_off_c, 2, 56, 95
2, 328800, Note_on_c, 2, 56, 95
2, 328920, Note_off_c, 2, 56, 95
2, 328920, Note_on_c, 2, 56, 95
2, 329039, Note_off_c, 2, 56, 95
2, 329040, Note_on_c, 2, 60, 95
2, 329160, Note_off_c, 2, 60, 95
2, 329160, Note_on_c, 2, 60, 95
2, 329280, Note_off_c, 2, 60, 95
2, 329280, Note_on_c, 2, 60, 95
2, 329400, Note_off_c, 2, 60, 95
2, 329400, Note_on_c, 2, 60, 95
2, 329519, Note_off_c, 2, 60, 95
2, 329520, Note_on_c, 2, 61, 95
2, 329640, Note_off_c, 2, 61, 95
2, 329640, Note_on_c, 2, 61, 95
2, 329760, Note_off_c, 2, 61, 95
2, 329760, Note_on_c, 2, 61, 95
2, 329880, Note_off_c, 2, 61, 95
2, 329880, Note_on_c, 2, 61, 95
2, 329999, Note_off_c, 2, 61, 95
2, 330000, Note_on_c, 2, 63, 95
2, 330120, Note_off_c, 2, 63, 95
2, 330120, Note_on_c, 2, 63, 95
2, 330240, Note_off_c, 2, 63, 95
2, 330240, Note_on_c, 2, 63, 95
2, 330360, Note_off_c, 2, 63, 95
2, 330360, Note_on_c, 2, 63, 95
2, 330479, Note_off_c, 2, 63, 95
2, 330480, Note_on_c, 2, 64, 95
2, 330600, Note_off_c, 2, 64, 95
2, 330600, Note_on_c, 2, 64, 95
2, 330720, Note_off_c, 2, 64, 95
2, 330720, Note_on_c, 2, 64, 95
2, 330840, Note_off_c, 2, 64, 95
2, 330840, Note_on_c, 2, 64, 95
2, 330959, Note_off_c, 2, 64, 95
2, 330960, Note_on_c, 2, 68, 95
2, 331080, Note_off_c, 2, 68, 95
2, 331080, Note_on_c, 2, 68, 95
2, 331200, Note_off_c, 2, 68, 95
2, 331200, Note_on_c, 2, 68, 95
2, 331320, Note_off_c, 2, 68, 95
2, 331320, Note_on_c, 2, 68, 95
2, 331439, Note_off_c, 2, 68, 95
2, 331440, Note_on_c, 2, 70, 95
2, 331560, Note_off_c, 2, 70, 95
2, 331560, Note_on_c, 2, 70, 95
2, 331680, Note_off_c, 2, 70, 95
2, 331680, Note_on_c, 2, 70, 95
2, 331800, Note_off_c, 2, 70, 95
2, 331800, Note_on_c, 2, 70, 95
2, 331919, Note_off_c, 2, 70, 95
2, 331920, Note_on_c, 2, 72, 95
2, 332040, Note_off_c, 2, 72, 95
2, 332040, Note_on_c, 2, 72, 95
2, 332160, Note_off_c, 2, 72, 95
2, 332160, Note_on_c, 2, 72, 95
2, 332280, Note_off_c, 2, 72, 95
2, 332280, Note_on_c, 2, 72, 95
2, 332399, Note_off_c, 2, 72, 95
2, 332400, Pitch_bend_c, 3, 8192
2, 332400, Note_on_c, 3, 78, 95
2, 332432, Pitch_bend_c, 3, 8320
2, 332464, Pitch_bend_c, 3, 8448
2, 332496, Pitch_bend_c, 3, 8576
2, 332528, Pitch_bend_c, 3, 8704
2, 332560, Pitch_bend_c, 3, 8832
2, 332592, Pitch_bend_c, 3, 8960
2, 332624, Pitch_bend_c, 3, 9088
2, 332656, Pitch_bend_c, 3, 9216
2, 332688, Pitch_bend_c, 3, 9344
2, 332720, Pitch_bend_c, 3, 9472
2, 332752, Pitch_bend_c, 3, 9600
2, 332760, Pitch_bend_c, 3, 9600
2, 333120, Pitch_bend_c, 3, 9600
2, 333360, Pitch_bend_c, 3, 9600
2, 333392, Pitch_bend_c, 3, 9472
2, 333424, Pitch_bend_c, 3, 9344
2, 333456, Pitch_bend_c, 3, 9216
2, 333488, Pitch_bend_c, 3, 9088
2, 333520, Pitch_bend_c, 3, 8960
2, 333552, Pitch_bend_c, 3, 8832
2, 333584, Pitch_bend_c, 3, 8704
2, 333616, Pitch_bend_c, 3, 8576
2, 333648, Pitch_bend_c, 3, 8448
2, 333680, Pitch_bend_c, 3, 8320
2, 333712, Pitch_bend_c, 3, 8192
2, 333720, Pitch_bend_c, 3, 8192
2, 333840, Pitch_bend_c, 3, 8192
2, 333840, Pitch_bend_c, 3, 8192
2, 333840, Note_off_c, 3, 78, 95
2, 335760, Note_on_c, 2, 76, 95
2, 336000, Note_off_c, 2, 76, 95
2, 336000, Note_on_c, 2, 76, 95
2, 336080, Note_off_c, 2, 76, 95
2, 336080, Note_on_c, 2, 78, 95
2, 336160, Note_off_c, 2, 78, 95
2, 336160, Note_on_c, 2, 76, 70
2, 336240, Note_off_c, 2, 76, 70
2, 336240, Note_on_c, 2, 75, 95
2, 336480, Note_off_c, 2, 75, 95
2, 336480, Note_on_c, 2, 75, 95
2, 336720, Note_off_c, 2, 75, 95
2, 336720, Note_on_c, 2, 75, 95
2, 336800, Note_off_c, 2, 75, 95
2, 336800, Note_on_c, 2, 76, 95
2, 336880, Note_off_c, 2, 76, 95
2, 336880, Note_on_c, 2, 75, 70
2, 336960, Note_off_c, 2, 75, 70
2, 336960, Note_on_c, 2, 73, 95
2, 337200, Note_off_c, 2, 73, 95
2, 337200, Note_on_c, 2, 73, 95
2, 337440, Note_off_c, 2, 73, 95
2, 337440, Note_on_c, 2, 73, 95
2, 337520, Note_off_c, 2, 73, 95
2, 337520, Note_on_c, 2, 75, 95
2, 337600, Note_off_c, 2, 75, 95
2, 337600, Note_on_c, 2, 73, 70
2, 337680, Note_off_c, 2, 73, 70
2, 337680, Note_on_c, 2, 72, 95
2, 337920, Note_off_c, 2, 72, 95
2, 337920, Note_on_c, 2, 72, 95
2, 338160, Note_off_c, 2, 72, 95
2, 338160, Note_on_c, 2, 72, 95
2, 338240, Note_off_c, 2, 72, 95
2, 338240, Note_on_c, 2, 73, 95
2, 338320, Note_off_c, 2, 73, 95
2, 338320, Note_on_c, 2, 72, 70
2, 338400, Note_off_c, 2, 72, 70
2, 338400, Note_on_c, 2, 70, 95
2, 338640, Note_off_c, 2, 70, 95
2, 338640, Note_on_c, 2, 70, 95
2, 338880, Note_off_c, 2, 70, 95
2, 338880, Note_on_c, 2, 70, 95
2, 338960, Note_off_c, 2, 70, 95
2, 338960, Note_on_c, 2, 72, 95
2, 339040, Note_off_c, 2, 72, 95
2, 339040, Note_on_c, 2, 70, 70
2, 339120, Note_off_c, 2, 70, 70
2, 339120, Note_on_c, 2, 68, 95
2, 339360, Note_off_c, 2, 68, 95
2, 339360, Note_on_c, 2, 68, 95
2, 339600, Note_off_c, 2, 68, 95
2, 339600, Note_on_c, 2, 68, 95
2, 339680, Note_off_c, 2, 68, 95
2, 339680, Note_on_c, 2, 70, 95
2, 339760, Note_off_c, 2, 70, 95
2, 339760, Note_on_c, 2, 68, 70
2, 339840, Note_off_c, 2, 68, 70
2, 339840, Note_on_c, 2, 66, 95
2, 340080, Note_off_c, 2, 66, 95
2, 340080, Note_on_c, 2, 66, 95
2, 340320, Note_off_c, 2, 66, 95
2, 340320, Note_on_c, 2, 66, 95
2, 340400, Note_off_c, 2, 66, 95
2, 340400, Note_on_c, 2, 68, 95
2, 340480, Note_off_c, 2, 68, 95
2, 340480, Note_on_c, 2, 66, 70
2, 340560, Note_off_c, 2, 66, 70
2, 340560, Note_on_c, 2, 64, 95
2, 340800, Note_off_c, 2, 64, 95
2, 340800, Note_on_c, 2, 64, 95
2, 341040, Note_off_c, 2, 64, 95
2, 341040, Note_on_c, 2, 64, 95
2, 341120, Note_off_c, 2, 64, 95
2, 341120, Note_on_c, 2, 66, 95
2, 341200, Note_off_c, 2, 66, 95
2, 341200, Note_on_c, 2, 64, 70
2, 341280, Note_off_c, 2, 64, 70
2, 341280, Note_on_c, 2, 63, 95
2, 341520, Note_off_c, 2, 63, 95
2, 341520, Note_on_c, 2, 63, 95
2, 341640, Note_off_c, 2, 63, 95
2, 341640, Note_on_c, 2, 64, 95
2, 341760, Note_off_c, 2, 64, 95
2, 341760, Note_on_c, 2, 63, 95
2, 341880, Note_off_c, 2, 63, 95
2, 341880, Note_on_c, 2, 61, 95
2, 342000, Note_off_c, 2, 61, 95
2, 342000, Note_on_c, 2, 63, 95
2, 342480, Note_off_c, 2, 63, 95
2, 342480, Pitch_bend_c, 3, 8192
2, 342480, Note_on_c, 3, 61, 95
2, 342512, Pitch_bend_c, 3, 8320
2, 342544, Pitch_bend_c, 3, 8448
2, 342576, Pitch_bend_c, 3, 8576
2, 342608, Pitch_bend_c, 3, 8704
2, 342640, Pitch_bend_c, 3, 8832
2, 342672, Pitch_bend_c, 3, 8960
2, 342704, Pitch_bend_c, 3, 9088
2, 342736, Pitch_bend_c, 3, 9216
2, 342768, Pitch_bend_c, 3, 9344
2, 342800, Pitch_bend_c, 3, 9472
2, 342832, Pitch_bend_c, 3, 9600
2, 342840, Pitch_bend_c, 3, 9600
2, 343200, Pitch_bend_c, 3, 9600
2, 343440, Pitch_bend_c, 3, 9600
2, 343461, Pitch_bend_c, 3, 9472
2, 343482, Pitch_bend_c, 3, 9344
2, 343503, Pitch_bend_c, 3, 9216
2, 343524, Pitch_bend_c, 3, 9088
2, 343545, Pitch_bend_c, 3, 8960
2, 343566, Pitch_bend_c, 3, 8832
2, 343587, Pitch_bend_c, 3, 8704
2, 343608, Pitch_bend_c, 3, 8576
2, 343629, Pitch_bend_c, 3, 8448
2, 343650, Pitch_bend_c, 3, 8320
2, 343671, Pitch_bend_c, 3, 8192
2, 343680, Pitch_bend_c, 3, 8192
2, 343920, Pitch_bend_c, 3, 8192
2, 343920, Pitch_bend_c, 3, 8192
2, 343920, Note_off_c, 3, 61, 95
2, 343920, Pitch_bend_c, 3, 8192
2, 343920, Note_on_c, 3, 60, 95
2, 343944, Pitch_bend_c, 3, 8320
2, 343968, Pitch_bend_c, 3, 8448
2, 343992, Pitch_bend_c, 3, 8576
2, 344016, Pitch_bend_c, 3, 8704
2, 344040, Pitch_bend_c, 3, 8832
2, 344040, Pitch_bend_c, 3, 8832
2, 344160, Pitch_bend_c, 3, 8832
2, 344184, Pitch_bend_c, 3, 8704
2, 344208, Pitch_bend_c, 3, 8576
2, 344232, Pitch_bend_c, 3, 8448
2, 344256, Pitch_bend_c, 3, 8320
2, 344280, Pitch_bend_c, 3, 8192
2, 344280, Pitch_bend_c, 3, 8192
2, 344400, Pitch_bend_c, 3, 8192
2, 344400, Pitch_bend_c, 3, 8192
2, 344400, Note_off_c, 3, 60, 95
2, 344400, Note_on_c, 2, 56, 95
2, 344640, Note_off_c, 2, 56, 95
2, 344640, Note_on_c, 2, 54, 95
2, 344880, Note_off_c, 2, 54, 95
2, 344880, Pitch_bend_c, 3, 8192
2, 344880, Note_on_c, 3, 60, 95
2, 344904, Pitch_bend_c, 3, 8320
2, 344928, Pitch_bend_c, 3, 8448
2, 344952, Pitch_bend_c, 3, 8576
2, 344976, Pitch_bend_c, 3, 8704
2, 345000, Pitch_bend_c, 3, 8832
2, 345000, Pitch_bend_c, 3, 8832
2, 345120, Pitch_bend_c, 3, 8832
2, 345144, Pitch_bend_c, 3, 8704
2, 345168, Pitch_bend_c, 3, 8576
2, 345192, Pitch_bend_c, 3, 8448
2, 345216, Pitch_bend_c, 3, 8320
2, 345240, Pitch_bend_c, 3, 8192
2, 345240, Pitch_bend_c, 3, 8192
2, 345360, Pitch_bend_c, 3, 8192
2, 345360, Pitch_bend_c, 3, 8192
2, 345360, Note_off_c, 3, 60, 95
2, 345360, Note_on_c, 2, 56, 95
2, 345600, Note_off_c, 2, 56, 95
2, 345600, Note_on_c, 2, 54, 95
2, 345840, Note_off_c, 2, 54, 95
2, 345840, Pitch_bend_c, 3, 8192
2, 345840, Note_on_c, 3, 60, 95
2, 345864, Pitch_bend_c, 3, 8320
2, 345888, Pitch_bend_c, 3, 8448
2, 345912, Pitch_bend_c, 3, 8576
2, 345936, Pitch_bend_c, 3, 8704
2, 345960, Pitch_bend_c, 3, 8832
2, 345960, Pitch_bend_c, 3, 8832
2, 346080, Pitch_bend_c, 3, 8832
2, 346104, Pitch_bend_c, 3, 8704
2, 346128, Pitch_bend_c, 3, 8576
2, 346152, Pitch_bend_c, 3, 8448
2, 346176, Pitch_bend_c, 3, 8320
2, 346200, Pitch_bend_c, 3, 8192
2, 346200, Pitch_bend_c, 3, 8192
2, 346320, Pitch_bend_c, 3, 8192
2, 346320, Pitch_bend_c, 3, 8192
2, 346320, Note_off_c, 3, 60, 95
2, 346320, Note_on_c, 2, 56, 95
2, 346560, Note_off_c, 2, 56, 95
2, 346560, Note_on_c, 2, 54, 95
2, 346800, Note_off_c, 2, 54, 95
2, 346800, Note_on_c, 2, 56, 95
2, 347040, Note_off_c, 2, 56, 95
2, 347040, Note_on_c, 2, 58, 95
2, 347280, Note_off_c, 2, 58, 95
2, 347280, Note_on_c, 2, 56, 95
2, 347520, Note_off_c, 2, 56, 95
2, 347520, Note_on_c, 2, 54, 95
2, 347760, Note_off_c, 2, 54, 95
2, 347760, Note_on_c, 2, 56, 95
2, 348000, Note_off_c, 2, 56, 95
2, 348000, Note_on_c, 2, 54, 95
2, 348240, Note_off_c, 2, 54, 95
2, 348240, Note_on_c, 2, 56, 95
2, 349440, Note_off_c, 2, 56, 95
2, 349440, Note_on_c, 3, 54, 95
2, 349560, Pitch_bend_c, 3, 8832
2, 349680, Pitch_bend_c, 3, 9600
2, 349680, Pitch_bend_c, 3, 8192
2, 349680, Note_off_c, 3, 54, 95
2, 349680, Note_on_c, 2, 56, 95
2, 349920, Note_off_c, 2, 56, 95
2, 349920, Note_on_c, 2, 68, 95
2, 350160, Note_off_c, 2, 68, 95
2, 350160, Note_on_c, 3, 56, 95
2, 350280, Pitch_bend_c, 3, 8832
2, 350400, Pitch_bend_c, 3, 9600
2, 350400, Pitch_bend_c, 3, 8192
2, 350400, Note_off_c, 3, 56, 95
2, 350400, Note_on_c, 2, 58, 95
2, 350640, Note_off_c, 2, 58, 95
2, 350640, Note_on_c, 2, 70, 95
2, 350880, Note_off_c, 2, 70, 95
2, 350880, Note_on_c, 3, 58, 95
2, 351000, Pitch_bend_c, 3, 8832
2, 351120, Pitch_bend_c, 3, 9600
2, 351120, Pitch_bend_c, 3, 8192
2, 351120, Note_off_c, 3, 58, 95
2, 351120, Note_on_c, 2, 60, 95
2, 351360, Note_off_c, 2, 60, 95
2, 351360, Note_on_c, 2, 72, 95
2, 351600, Note_off_c, 2, 72, 95
2, 351600, Note_on_c, 3, 60, 95
2, 351720, Pitch_bend_c, 3, 6144
2, 351840, Pitch_bend_c, 3, 3968
2, 351840, Pitch_bend_c, 3, 8192
2, 351840, Note_off_c, 3, 60, 95
2, 351840, Note_on_c, 2, 54, 95
2, 352080, Note_off_c, 2, 54, 95
2, 352080, Note_on_c, 2, 66, 95
2, 352320, Note_off_c, 2, 66, 95
2, 352320, Note_on_c, 3, 54, 95
2, 352440, Pitch_bend_c, 3, 8832
2, 352560, Pitch_bend_c, 3, 9600
2, 352560, Pitch_bend_c, 3, 8192
2, 352560, Note_off_c, 3, 54, 95
2, 352560, Note_on_c, 2, 56, 95
2, 352800, Note_off_c, 2, 56, 95
2, 352800, Note_on_c, 2, 68, 95
2, 353040, Note_off_c, 2, 68, 95
2, 353040, Note_on_c, 3, 56, 95
2, 353200, Pitch_bend_c, 3, 8192
2, 353360, Pitch_bend_c, 3, 8320
2, 353520, Pitch_bend_c, 3, 8192
2, 353520, Pitch_bend_c, 3, 8320
2, 353520, Pitch_bend_c, 3, 8192
2, 353520, Note_off_c, 3, 56, 95
2, 353520, Note_on_c, 2, 64, 95
2, 353760, Note_off_c, 2, 64, 95
2, 353760, Note_on_c, 3, 56, 95
2, 353880, Pitch_bend_c, 3, 6784
2, 354000, Pitch_bend_c, 3, 5376
2, 354000, Pitch_bend_c, 3, 8192
2, 354000, Note_off_c, 3, 56, 95
2, 354000, Note_on_c, 2, 52, 95
2, 354240, Note_off_c, 2, 52, 95
2, 354240, Note_on_c, 2, 64, 95
2, 354480, Note_off_c, 2, 64, 95
2, 354480, Note_on_c, 2, 63, 95
2, 354720, Note_off_c, 2, 63, 95
2, 354720, Note_on_c, 2, 61, 95
2, 354960, Note_off_c, 2, 61, 95
2, 354960, Pitch_bend_c, 3, 8192
2, 354960, Note_on_c, 3, 63, 95
2, 354980, Pitch_bend_c, 3, 8192
2, 354984, Pitch_bend_c, 3, 8320
2, 354988, Pitch_bend_c, 3, 8448
2, 354992, Pitch_bend_c, 3, 8576
2, 354996, Pitch_bend_c, 3, 8704
2, 355000, Pitch_bend_c, 3, 8832
2, 355000, Pitch_bend_c, 3, 8832
2, 355020, Pitch_bend_c, 3, 8832
2, 355040, Pitch_bend_c, 3, 8832
2, 355040, Pitch_bend_c, 3, 8704
2, 355040, Pitch_bend_c, 3, 8576
2, 355040, Pitch_bend_c, 3, 8448
2, 355040, Pitch_bend_c, 3, 8320
2, 355040, Pitch_bend_c, 3, 8192
2, 355040, Pitch_bend_c, 3, 8192
2, 355060, Pitch_bend_c, 3, 8192
2, 355060, Pitch_bend_c, 3, 8192
2, 355100, Pitch_bend_c, 3, 8192
2, 355140, Pitch_bend_c, 3, 8192
2, 355200, Pitch_bend_c, 3, 8192
2, 355200, Pitch_bend_c, 3, 8192
2, 355200, Note_off_c, 3, 63, 95
2, 356640, Note_on_c, 2, 63, 95
2, 356760, Note_off_c, 2, 63, 95
2, 356880, Note_on_c, 2, 64, 95
2, 357000, Note_off_c, 2, 64, 95
2, 357120, Note_on_c, 2, 63, 95
2, 357240, Note_off_c, 2, 63, 95
2, 357360, Note_on_c, 2, 61, 95
2, 357480, Note_off_c, 2, 61, 95
2, 357600, Note_on_c, 2, 63, 95
2, 357720, Note_off_c, 2, 63, 95
2, 357840, Note_on_c, 2, 64, 95
2, 358080, Note_off_c, 2, 64, 95
2, 358080, Note_on_c, 2, 63, 95
2, 358320, Note_off_c, 2, 63, 95
2, 358320, Note_on_c, 2, 61, 95
2, 358560, Note_off_c, 2, 61, 95
2, 358560, Note_on_c, 2, 63, 95
2, 358800, Note_off_c, 2, 63, 95
2, 358800, Note_on_c, 2, 64, 95
2, 359040, Note_off_c, 2, 64, 95
2, 359040, Note_on_c, 2, 63, 95
2, 359280, Note_off_c, 2, 63, 95
2, 359280, Note_on_c, 2, 61, 95
2, 359520, Note_off_c, 2, 61, 95
2, 359520, Note_on_c, 2, 63, 95
2, 359760, Note_off_c, 2, 63, 95
2, 359760, Note_on_c, 2, 64, 95
2, 360000, Note_off_c, 2, 64, 95
2, 360000, Note_on_c, 2, 63, 95
2, 360240, Note_off_c, 2, 63, 95
2, 360240, Note_on_c, 2, 61, 95
2, 360480, Note_off_c, 2, 61, 95
2, 360480, Note_on_c, 2, 63, 95
2, 360600, Note_off_c, 2, 63, 95
2, 360600, Note_on_c, 2, 64, 95
2, 360720, Note_off_c, 2, 64, 95
2, 360720, Note_on_c, 2, 63, 95
2, 360840, Note_off_c, 2, 63, 95
2, 360840, Note_on_c, 2, 61, 95
2, 360960, Note_off_c, 2, 61, 95
2, 360960, Note_on_c, 2, 63, 95
2, 361080, Note_off_c, 2, 63, 95
2, 361080, Note_on_c, 2, 64, 95
2, 361200, Note_off_c, 2, 64, 95
2, 361200, Note_on_c, 2, 63, 95
2, 361320, Note_off_c, 2, 63, 95
2, 361320, Note_on_c, 2, 61, 95
2, 361440, Note_off_c, 2, 61, 95
2, 361440, Note_on_c, 2, 64, 95
2, 361560, Note_off_c, 2, 64, 95
2, 361560, Note_on_c, 2, 66, 95
2, 361680, Note_off_c, 2, 66, 95
2, 361680, Note_on_c, 2, 64, 95
2, 361800, Note_off_c, 2, 64, 95
2, 361800, Note_on_c, 2, 63, 95
2, 361920, Note_off_c, 2, 63, 95
2, 361920, Note_on_c, 2, 64, 95
2, 362040, Note_off_c, 2, 64, 95
2, 362040, Note_on_c, 2, 66, 95
2, 362160, Note_off_c, 2, 66, 95
2, 362160, Note_on_c, 2, 64, 95
2, 362280, Note_off_c, 2, 64, 95
2, 362280, Note_on_c, 2, 63, 95
2, 362400, Note_off_c, 2, 63, 95
2, 362400, Note_on_c, 2, 64, 95
2, 362520, Note_off_c, 2, 64, 95
2, 362520, Note_on_c, 2, 66, 95
2, 362640, Note_off_c, 2, 66, 95
2, 362640, Note_on_c, 2, 64, 95
2, 362760, Note_off_c, 2, 64, 95
2, 362760, Note_on_c, 2, 63, 95
2, 362880, Note_off_c, 2, 63, 95
2, 362880, Note_on_c, 2, 64, 95
2, 363000, Note_off_c, 2, 64, 95
2, 363000, Note_on_c, 2, 66, 95
2, 363120, Note_off_c, 2, 66, 95
2, 363120, Note_on_c, 2, 64, 95
2, 363240, Note_off_c, 2, 64, 95
2, 363240, Note_on_c, 2, 63, 95
2, 363360, Note_off_c, 2, 63, 95
2, 363360, Note_on_c, 2, 66, 95
2, 363480, Note_off_c, 2, 66, 95
2, 363480, Note_on_c, 2, 68, 95
2, 363600, Note_off_c, 2, 68, 95
2, 363600, Note_on_c, 2, 66, 95
2, 363720, Note_off_c, 2, 66, 95
2, 363720, Note_on_c, 2, 64, 95
2, 363840, Note_off_c, 2, 64, 95
2, 363840, Note_on_c, 2, 66, 95
2, 363960, Note_off_c, 2, 66, 95
2, 363960, Note_on_c, 2, 68, 95
2, 364080, Note_off_c, 2, 68, 95
2, 364080, Note_on_c, 2, 66, 95
2, 364200, Note_off_c, 2, 66, 95
2, 364200, Note_on_c, 2, 64, 95
2, 364320, Note_off_c, 2, 64, 95
2, 364320, Note_on_c, 2, 66, 95
2, 364440, Note_off_c, 2, 66, 95
2, 364440, Note_on_c, 2, 68, 95
2, 364560, Note_off_c, 2, 68, 95
2, 364560, Note_on_c, 2, 66, 95
2, 364680, Note_off_c, 2, 66, 95
2, 364680, Note_on_c, 2, 64, 95
2, 364800, Note_off_c, 2, 64, 95
2, 364800, Note_on_c, 2, 66, 95
2, 364920, Note_off_c, 2, 66, 95
2, 364920, Note_on_c, 2, 68, 95
2, 365040, Note_off_c, 2, 68, 95
2, 365040, Note_on_c, 2, 66, 95
2, 365160, Note_off_c, 2, 66, 95
2, 365160, Note_on_c, 2, 64, 95
2, 365280, Note_off_c, 2, 64, 95
2, 365280, Note_on_c, 2, 68, 95
2, 365400, Note_off_c, 2, 68, 95
2, 365400, Note_on_c, 2, 70, 95
2, 365520, Note_off_c, 2, 70, 95
2, 365520, Note_on_c, 2, 68, 95
2, 365640, Note_off_c, 2, 68, 95
2, 365640, Note_on_c, 2, 66, 95
2, 365760, Note_off_c, 2, 66, 95
2, 365760, Note_on_c, 2, 68, 95
2, 365880, Note_off_c, 2, 68, 95
2, 365880, Note_on_c, 2, 70, 95
2, 366000, Note_off_c, 2, 70, 95
2, 366000, Note_on_c, 2, 68, 95
2, 366120, Note_off_c, 2, 68, 95
2, 366120, Note_on_c, 2, 66, 95
2, 366240, Note_off_c, 2, 66, 95
2, 366240, Note_on_c, 2, 68, 95
2, 366360, Note_off_c, 2, 68, 95
2, 366360, Note_on_c, 2, 70, 95
2, 366480, Note_off_c, 2, 70, 95
2, 366480, Note_on_c, 2, 68, 95
2, 366600, Note_off_c, 2, 68, 95
2, 366600, Note_on_c, 2, 66, 95
2, 366720, Note_off_c, 2, 66, 95
2, 366720, Note_on_c, 2, 68, 95
2, 366840, Note_off_c, 2, 68, 95
2, 366840, Note_on_c, 2, 70, 95
2, 366960, Note_off_c, 2, 70, 95
2, 366960, Note_on_c, 2, 68, 95
2, 367080, Note_off_c, 2, 68, 95
2, 367080, Note_on_c, 2, 66, 95
2, 367200, Note_off_c, 2, 66, 95
2, 367200, Note_on_c, 2, 70, 95
2, 367320, Note_off_c, 2, 70, 95
2, 367320, Note_on_c, 2, 72, 95
2, 367440, Note_off_c, 2, 72, 95
2, 367440, Note_on_c, 2, 70, 95
2, 367560, Note_off_c, 2, 70, 95
2, 367560, Note_on_c, 2, 68, 95
2, 367680, Note_off_c, 2, 68, 95
2, 367680, Note_on_c, 2, 70, 95
2, 367800, Note_off_c, 2, 70, 95
2, 367800, Note_on_c, 2, 72, 95
2, 367920, Note_off_c, 2, 72, 95
2, 367920, Note_on_c, 2, 70, 95
2, 368040, Note_off_c, 2, 70, 95
2, 368040, Note_on_c, 2, 68, 95
2, 368160, Note_off_c, 2, 68, 95
2, 368160, Note_on_c, 2, 70, 95
2, 368280, Note_off_c, 2, 70, 95
2, 368280, Note_on_c, 2, 72, 95
2, 368400, Note_off_c, 2, 72, 95
2, 368400, Note_on_c, 2, 70, 95
2, 368520, Note_off_c, 2, 70, 95
2, 368520, Note_on_c, 2, 68, 95
2, 368640, Note_off_c, 2, 68, 95
2, 368640, Note_on_c, 2, 70, 95
2, 368760, Note_off_c, 2, 70, 95
2, 368760, Note_on_c, 2, 72, 95
2, 368880, Note_off_c, 2, 72, 95
2, 368880, Note_on_c, 2, 70, 95
2, 369000, Note_off_c, 2, 70, 95
2, 369000, Note_on_c, 2, 68, 95
2, 369120, Note_off_c, 2, 68, 95
2, 369120, Note_on_c, 2, 73, 95
2, 369240, Note_off_c, 2, 73, 95
2, 369240, Note_on_c, 2, 75, 95
2, 369360, Note_off_c, 2, 75, 95
2, 369360, Note_on_c, 2, 73, 95
2, 369480, Note_off_c, 2, 73, 95
2, 369480, Note_on_c, 2, 72, 95
2, 369600, Note_off_c, 2, 72, 95
2, 369600, Note_on_c, 2, 73, 95
2, 369720, Note_off_c, 2, 73, 95
2, 369720, Note_on_c, 2, 75, 95
2, 369840, Note_off_c, 2, 75, 95
2, 369840, Note_on_c, 2, 73, 95
2, 369960, Note_off_c, 2, 73, 95
2, 369960, Note_on_c, 2, 72, 95
2, 370080, Note_off_c, 2, 72, 95
2, 370080, Note_on_c, 2, 73, 95
2, 370200, Note_off_c, 2, 73, 95
2, 370200, Note_on_c, 2, 75, 95
2, 370320, Note_off_c, 2, 75, 95
2, 370320, Note_on_c, 2, 73, 95
2, 370440, Note_off_c, 2, 73, 95
2, 370440, Note_on_c, 2, 72, 95
2, 370560, Note_off_c, 2, 72, 95
2, 370560, Note_on_c, 2, 73, 95
2, 370680, Note_off_c, 2, 73, 95
2, 370680, Note_on_c, 2, 75, 95
2, 370800, Note_off_c, 2, 75, 95
2, 370800, Note_on_c, 2, 73, 95
2, 370920, Note_off_c, 2, 73, 95
2, 370920, Note_on_c, 2, 72, 95
2, 371040, Note_off_c, 2, 72, 95
2, 371040, Note_on_c, 2, 73, 95
2, 371160, Note_off_c, 2, 73, 95
2, 371160, Note_on_c, 2, 72, 95
2, 371280, Note_off_c, 2, 72, 95
2, 371280, Note_on_c, 2, 70, 95
2, 371400, Note_off_c, 2, 70, 95
2, 371400, Note_on_c, 2, 72, 95
2, 371520, Note_off_c, 2, 72, 95
2, 371520, Note_on_c, 2, 73, 95
2, 371640, Note_off_c, 2, 73, 95
2, 371640, Note_on_c, 2, 72, 95
2, 371760, Note_off_c, 2, 72, 95
2, 371760, Note_on_c, 2, 70, 95
2, 371880, Note_off_c, 2, 70, 95
2, 371880, Note_on_c, 2, 72, 95
2, 372000, Note_off_c, 2, 72, 95
2, 372000, Note_on_c, 2, 73, 95
2, 372120, Note_off_c, 2, 73, 95
2, 372120, Note_on_c, 2, 75, 95
2, 372240, Note_off_c, 2, 75, 95
2, 372240, Note_on_c, 2, 73, 95
2, 372360, Note_off_c, 2, 73, 95
2, 372360, Note_on_c, 2, 72, 95
2, 372480, Note_off_c, 2, 72, 95
2, 372480, Note_on_c, 2, 73, 95
2, 372600, Note_off_c, 2, 73, 95
2, 372600, Note_on_c, 2, 72, 95
2, 372720, Note_off_c, 2, 72, 95
2, 372720, Note_on_c, 2, 72, 95
2, 372840, Note_off_c, 2, 72, 95
2, 372840, Note_on_c, 2, 75, 95
2, 372960, Note_off_c, 2, 75, 95
2, 372960, Note_on_c, 2, 73, 95
2, 373080, Note_off_c, 2, 73, 95
2, 373080, Note_on_c, 2, 72, 95
2, 373200, Note_off_c, 2, 72, 95
2, 373200, Note_on_c, 2, 73, 95
2, 373320, Note_off_c, 2, 73, 95
2, 373320, Note_on_c, 2, 72, 95
2, 373440, Note_off_c, 2, 72, 95
2, 373440, Note_on_c, 2, 72, 95
2, 373560, Note_off_c, 2, 72, 95
2, 373560, Note_on_c, 2, 75, 95
2, 373680, Note_off_c, 2, 75, 95
2, 373680, Note_on_c, 2, 73, 95
2, 373800, Note_off_c, 2, 73, 95
2, 373800, Note_on_c, 2, 72, 95
2, 373920, Note_off_c, 2, 72, 95
2, 373920, Note_on_c, 2, 73, 95
2, 374040, Note_off_c, 2, 73, 95
2, 374040, Note_on_c, 2, 72, 95
2, 374160, Note_off_c, 2, 72, 95
2, 374160, Note_on_c, 2, 72, 95
2, 374280, Note_off_c, 2, 72, 95
2, 374280, Note_on_c, 2, 75, 95
2, 374400, Note_off_c, 2, 75, 95
2, 374400, Note_on_c, 2, 73, 95
2, 374520, Note_off_c, 2, 73, 95
2, 374520, Note_on_c, 2, 72, 95
2, 374640, Note_off_c, 2, 72, 95
2, 374640, Note_on_c, 2, 73, 95
2, 374760, Note_off_c, 2, 73, 95
2, 374760, Note_on_c, 2, 72, 95
2, 374880, Note_off_c, 2, 72, 95
2, 374880, Note_on_c, 2, 72, 95
2, 375000, Note_off_c, 2, 72, 95
2, 375000, Note_on_c, 2, 75, 95
2, 375120, Note_off_c, 2, 75, 95
2, 375120, Note_on_c, 2, 73, 95
2, 375240, Note_off_c, 2, 73, 95
2, 375240, Note_on_c, 2, 72, 95
2, 375360, Note_off_c, 2, 72, 95
2, 375360, Note_on_c, 2, 73, 95
2, 375480, Note_off_c, 2, 73, 95
2, 375480, Note_on_c, 2, 73, 95
2, 375600, Note_off_c, 2, 73, 95
2, 375600, Note_on_c, 2, 72, 95
2, 375720, Note_off_c, 2, 72, 95
2, 375720, Note_on_c, 2, 75, 95
2, 375840, Note_off_c, 2, 75, 95
2, 375840, Note_on_c, 2, 73, 95
2, 375960, Note_off_c, 2, 73, 95
2, 375960, Note_on_c, 2, 76, 95
2, 376080, Note_off_c, 2, 76, 95
2, 376080, Note_on_c, 2, 78, 95
2, 376200, Note_off_c, 2, 78, 95
2, 376200, Note_on_c, 2, 76, 95
2, 376320, Note_off_c, 2, 76, 95
2, 376320, Note_on_c, 2, 76, 95
2, 376440, Note_off_c, 2, 76, 95
2, 376440, Note_on_c, 2, 75, 95
2, 376560, Note_off_c, 2, 75, 95
2, 376560, Note_on_c, 2, 76, 95
2, 376680, Note_off_c, 2, 76, 95
2, 376680, Note_on_c, 2, 76, 95
2, 376800, Note_off_c, 2, 76, 95
2, 376800, Note_on_c, 2, 76, 95
2, 376920, Note_off_c, 2, 76, 95
2, 376920, Note_on_c, 2, 76, 95
2, 377040, Note_off_c, 2, 76, 95
2, 377040, Note_on_c, 2, 76, 95
2, 377160, Note_off_c, 2, 76, 95
2, 377160, Note_on_c, 2, 76, 95
2, 377280, Note_off_c, 2, 76, 95
2, 377280, Pitch_bend_c, 3, 8192
2, 377280, Note_on_c, 3, 78, 95
2, 377301, Pitch_bend_c, 3, 8320
2, 377322, Pitch_bend_c, 3, 8448
2, 377343, Pitch_bend_c, 3, 8576
2, 377364, Pitch_bend_c, 3, 8704
2, 377385, Pitch_bend_c, 3, 8832
2, 377406, Pitch_bend_c, 3, 8960
2, 377427, Pitch_bend_c, 3, 9088
2, 377448, Pitch_bend_c, 3, 9216
2, 377469, Pitch_bend_c, 3, 9344
2, 377490, Pitch_bend_c, 3, 9472
2, 377511, Pitch_bend_c, 3, 9600
2, 377520, Pitch_bend_c, 3, 9600
2, 377760, Pitch_bend_c, 3, 9600
2, 378240, Pitch_bend_c, 3, 9600
2, 378240, Pitch_bend_c, 3, 8192
2, 378240, Note_off_c, 3, 78, 95
2, 378240, Note_on_c, 2, 78, 95
2, 378480, Note_off_c, 2, 78, 95
2, 378480, Note_on_c, 2, 80, 95
2, 378720, Note_off_c, 2, 80, 95
2, 378720, Note_on_c, 2, 82, 95
2, 378960, Note_off_c, 2, 82, 95
2, 378960, Note_on_c, 3, 84, 95
2, 379120, Pitch_bend_c, 3, 8192
2, 379280, Pitch_bend_c, 3, 8320
2, 379440, Pitch_bend_c, 3, 8192
2, 379600, Pitch_bend_c, 3, 8320
2, 379760, Pitch_bend_c, 3, 8192
2, 379920, Pitch_bend_c, 3, 8320
2, 379920, Pitch_bend_c, 3, 8192
2, 379920, Note_off_c, 3, 84, 95
2, 379920, Pitch_bend_c, 3, 8192
2, 379920, Note_on_c, 3, 78, 95
2, 379974, Pitch_bend_c, 3, 8320
2, 380028, Pitch_bend_c, 3, 8448
2, 380082, Pitch_bend_c, 3, 8576
2, 380136, Pitch_bend_c, 3, 8704
2, 380190, Pitch_bend_c, 3, 8832
2, 380244, Pitch_bend_c, 3, 8960
2, 380298, Pitch_bend_c, 3, 9088
2, 380352, Pitch_bend_c, 3, 9216
2, 380406, Pitch_bend_c, 3, 9344
2, 380460, Pitch_bend_c, 3, 9472
2, 380514, Pitch_bend_c, 3, 9600
2, 380520, Pitch_bend_c, 3, 9600
2, 381120, Pitch_bend_c, 3, 9600
2, 381120, Pitch_bend_c, 3, 8192
2, 381120, Note_off_c, 3, 78, 95
2, 381120, Note_on_c, 2, 82, 95
2, 381360, Note_off_c, 2, 82, 95
2, 381360, Note_on_c, 2, 84, 95
2, 381600, Note_off_c, 2, 84, 95
2, 381600, Note_on_c, 2, 85, 95
2, 381840, Note_off_c, 2, 85, 95
2, 381840, Pitch_bend_c, 3, 8192
2, 381840, Note_on_c, 3, 86, 95
2, 381984, Pitch_bend_c, 3, 8320
2, 382128, Pitch_bend_c, 3, 8448
2, 382272, Pitch_bend_c, 3, 8576
2, 382416, Pitch_bend_c, 3, 8704
2, 382560, Pitch_bend_c, 3, 8832
2, 382560, Pitch_bend_c, 3, 8832
2, 383280, Pitch_bend_c, 3, 8832
2, 383280, Pitch_bend_c, 3, 8192
2, 383280, Note_off_c, 3, 86, 95
2, 383280, Note_on_c, 3, 56, 95
2, 383520, Note_off_c, 3, 56, 95
2, 383520, Note_on_c, 2, 42, 95
2, 383760, Note_off_c, 2, 42, 95
2, 383760, Note_on_c, 2, 44, 95
2, 384000, Note_off_c, 2, 44, 95
2, 385920, Note_on_c, 2, 45, 95
2, 385920, Note_on_c, 2, 40, 95
2, 385971, Note_off_c, 2, 45, 95
2, 385971, Note_off_c, 2, 40, 95
2, 386160, Note_on_c, 2, 45, 95
2, 386160, Note_on_c, 2, 40, 95
2, 386211, Note_off_c, 2, 45, 95
2, 386211, Note_off_c, 2, 40, 95
2, 386400, Note_on_c, 2, 42, 95
2, 386640, Note_off_c, 2, 42, 95
2, 386640, Note_on_c, 2, 44, 95
2, 386880, Note_off_c, 2, 44, 95
2, 387360, Note_on_c, 2, 40, 95
2, 387600, Note_off_c, 2, 40, 95
2, 387600, Note_on_c, 2, 42, 95
2, 387840, Note_off_c, 2, 42, 95
2, 388080, Note_on_c, 2, 40, 95
2, 388320, Note_off_c, 2, 40, 95
2, 388320, Note_on_c, 2, 42, 95
2, 388560, Note_off_c, 2, 42, 95
2, 388560, Note_on_c, 2, 44, 95
2, 388800, Note_off_c, 2, 44, 95
2, 388800, Note_on_c, 2, 46, 95
2, 389040, Note_off_c, 2, 46, 95
2, 389040, Note_on_c, 3, 48, 95
2, 389200, Pitch_bend_c, 3, 8192
2, 389360, Pitch_bend_c, 3, 8320
2, 389520, Pitch_bend_c, 3, 8192
2, 389520, Pitch_bend_c, 3, 8320
2, 389520, Pitch_bend_c, 3, 8192
2, 389520, Note_off_c, 3, 48, 95
2, 389520, Note_on_c, 2, 46, 95
2, 389760, Note_off_c, 2, 46, 95
2, 389760, Note_on_c, 2, 44, 95
2, 390000, Note_off_c, 2, 44, 95
2, 390000, Note_on_c, 2, 42, 95
2, 390240, Note_off_c, 2, 42, 95
2, 390240, Note_on_c, 2, 40, 95
2, 390960, Note_off_c, 2, 40, 95
2, 390960, Note_on_c, 2, 40, 95
2, 391200, Note_off_c, 2, 40, 95
2, 391200, Note_on_c, 2, 42, 95
2, 391440, Note_off_c, 2, 42, 95
2, 391440, Note_on_c, 2, 44, 95
2, 391680, Note_off_c, 2, 44, 95
2, 394080, Note_on_c, 2, 42, 95
2, 394320, Note_off_c, 2, 42, 95
2, 394320, Note_on_c, 2, 44, 95
2, 394560, Note_off_c, 2, 44, 95
2, 395040, Note_on_c, 2, 40, 95
2, 395280, Note_off_c, 2, 40, 95
2, 395280, Note_on_c, 2, 42, 95
2, 395520, Note_off_c, 2, 42, 95
2, 396000, Note_on_c, 2, 52, 95
2, 396240, Note_off_c, 2, 52, 95
2, 396240, Note_on_c, 2, 51, 95
2, 396480, Note_off_c, 2, 51, 95
2, 396480, Note_on_c, 2, 49, 95
2, 396720, Note_off_c, 2, 49, 95
2, 396720, Note_on_c, 3, 48, 95
2, 396880, Pitch_bend_c, 3, 8192
2, 397040, Pitch_bend_c, 3, 8320
2, 397200, Pitch_bend_c, 3, 8192
2, 397360, Pitch_bend_c, 3, 8320
2, 397440, Pitch_bend_c, 3, 8192
2, 397440, Pitch_bend_c, 3, 8320
2, 397440, Pitch_bend_c, 3, 8192
2, 397440, Note_off_c, 3, 48, 95
2, 397440, Note_on_c, 2, 42, 95
2, 397680, Note_off_c, 2, 42, 95
2, 397680, Note_on_c, 2, 44, 95
2, 397920, Note_off_c, 2, 44, 95
2, 400320, Note_on_c, 2, 42, 95
2, 400560, Note_off_c, 2, 42, 95
2, 400560, Note_on_c, 2, 44, 95
2, 400800, Note_off_c, 2, 44, 95
2, 401280, Note_on_c, 2, 40, 95
2, 401520, Note_off_c, 2, 40, 95
2, 401520, Note_on_c, 2, 42, 95
2, 401760, Note_off_c, 2, 42, 95
2, 402000, Note_on_c, 2, 40, 95
2, 402240, Note_off_c, 2, 40, 95
2, 402240, Note_on_c, 2, 42, 95
2, 402480, Note_off_c, 2, 42, 95
2, 402480, Note_on_c, 2, 44, 95
2, 402720, Note_off_c, 2, 44, 95
2, 402720, Note_on_c, 2, 46, 95
2, 402960, Note_off_c, 2, 46, 95
2, 402960, Pitch_bend_c, 3, 8192
2, 402960, Note_on_c, 3, 48, 95
2, 403080, Pitch_bend_c, 3, 8320
2, 403200, Pitch_bend_c, 3, 8448
2, 403200, Pitch_bend_c, 3, 8448
2, 403440, Pitch_bend_c, 3, 8448
2, 403440, Pitch_bend_c, 3, 8192
2, 403440, Note_off_c, 3, 48, 95
2, 403440, Note_on_c, 2, 46, 95
2, 403680, Note_off_c, 2, 46, 95
2, 403680, Note_on_c, 2, 44, 95
2, 403920, Note_off_c, 2, 44, 95
2, 403920, Note_on_c, 2, 42, 95
2, 404160, Note_off_c, 2, 42, 95
2, 404160, Note_on_c, 2, 40, 95
2, 404880, Note_off_c, 2, 40, 95
2, 405120, Note_on_c, 2, 42, 95
2, 405360, Note_off_c, 2, 42, 95
2, 405360, Note_on_c, 2, 44, 95
2, 405600, Note_off_c, 2, 44, 95
2, 408000, Note_on_c, 2, 42, 95
2, 408240, Note_off_c, 2, 42, 95
2, 408240, Note_on_c, 2, 44, 95
2, 408480, Note_off_c, 2, 44, 95
2, 408960, Note_on_c, 2, 40, 95
2, 409200, Note_off_c, 2, 40, 95
2, 409200, Note_on_c, 2, 42, 95
2, 409440, Note_off_c, 2, 42, 95
2, 409920, Note_on_c, 2, 52, 95
2, 410160, Note_off_c, 2, 52, 95
2, 410160, Note_on_c, 2, 51, 95
2, 410400, Note_off_c, 2, 51, 95
2, 410400, Note_on_c, 2, 49, 95
2, 410640, Note_off_c, 2, 49, 95
2, 410640, Note_on_c, 3, 48, 95
2, 410800, Pitch_bend_c, 3, 8192
2, 410960, Pitch_bend_c, 3, 8320
2, 411120, Pitch_bend_c, 3, 8192
2, 411280, Pitch_bend_c, 3, 8320
2, 411360, Pitch_bend_c, 3, 8192
2, 411360, Pitch_bend_c, 3, 8320
2, 411360, Pitch_bend_c, 3, 8192
2, 411360, Note_off_c, 3, 48, 95
2, 411360, Note_on_c, 2, 42, 95
2, 411600, Note_off_c, 2, 42, 95
2, 411600, Note_on_c, 2, 44, 95
2, 411840, Note_off_c, 2, 44, 95
2, 413760, Note_on_c, 2, 40, 95
2, 414000, Note_off_c, 2, 40, 95
2, 414000, Note_on_c, 2, 40, 95
2, 414240, Note_off_c, 2, 40, 95
2, 414240, Note_on_c, 2, 42, 95
2, 414480, Note_off_c, 2, 42, 95
2, 414480, Note_on_c, 2, 44, 95
2, 414720, Note_off_c, 2, 44, 95
2, 414960, Note_on_c, 2, 40, 95
2, 415011, Note_off_c, 2, 40, 95
2, 415200, Note_on_c, 2, 44, 95
2, 415440, Note_off_c, 2, 44, 95
2, 415440, Note_on_c, 2, 46, 95
2, 415680, Note_off_c, 2, 46, 95
2, 417600, Note_on_c, 2, 40, 95
2, 417651, Note_off_c, 2, 40, 95
2, 417840, Note_on_c, 2, 40, 95
2, 418080, Note_off_c, 2, 40, 95
2, 418080, Note_on_c, 2, 44, 95
2, 418320, Note_off_c, 2, 44, 95
2, 418320, Note_on_c, 2, 46, 95
2, 418560, Note_off_c, 2, 46, 95
2, 419040, Pitch_bend_c, 3, 8192
2, 419040, Note_on_c, 3, 70, 95
2, 419083, Pitch_bend_c, 3, 8320
2, 419126, Pitch_bend_c, 3, 8448
2, 419169, Pitch_bend_c, 3, 8576
2, 419212, Pitch_bend_c, 3, 8704
2, 419255, Pitch_bend_c, 3, 8832
2, 419298, Pitch_bend_c, 3, 8960
2, 419341, Pitch_bend_c, 3, 9088
2, 419384, Pitch_bend_c, 3, 9216
2, 419427, Pitch_bend_c, 3, 9344
2, 419470, Pitch_bend_c, 3, 9472
2, 419513, Pitch_bend_c, 3, 9600
2, 419520, Pitch_bend_c, 3, 9600
2, 420000, Pitch_bend_c, 3, 9600
2, 420000, Pitch_bend_c, 3, 8192
2, 420000, Note_off_c, 3, 70, 95
2, 420000, Pitch_bend_c, 3, 8192
2, 420000, Note_on_c, 3, 70, 95
2, 420065, Pitch_bend_c, 3, 8320
2, 420130, Pitch_bend_c, 3, 8448
2, 420195, Pitch_bend_c, 3, 8576
2, 420260, Pitch_bend_c, 3, 8704
2, 420325, Pitch_bend_c, 3, 8832
2, 420390, Pitch_bend_c, 3, 8960
2, 420455, Pitch_bend_c, 3, 9088
2, 420520, Pitch_bend_c, 3, 9216
2, 420585, Pitch_bend_c, 3, 9344
2, 420650, Pitch_bend_c, 3, 9472
2, 420715, Pitch_bend_c, 3, 9600
2, 420720, Pitch_bend_c, 3, 9600
2, 421440, Pitch_bend_c, 3, 9600
2, 421440, Pitch_bend_c, 3, 8192
2, 421440, Note_off_c, 3, 70, 95
2, 421440, Note_on_c, 2, 72, 95
2, 421600, Note_off_c, 2, 72, 95
2, 421600, Note_on_c, 2, 70, 95
2, 421760, Note_off_c, 2, 70, 95
2, 421760, Note_on_c, 2, 67, 95
2, 421920, Note_off_c, 2, 67, 95
2, 421920, Pitch_bend_c, 3, 8192
2, 421920, Note_on_c, 3, 70, 95
2, 421941, Pitch_bend_c, 3, 8320
2, 421962, Pitch_bend_c, 3, 8448
2, 421983, Pitch_bend_c, 3, 8576
2, 422004, Pitch_bend_c, 3, 8704
2, 422025, Pitch_bend_c, 3, 8832
2, 422046, Pitch_bend_c, 3, 8960
2, 422067, Pitch_bend_c, 3, 9088
2, 422088, Pitch_bend_c, 3, 9216
2, 422109, Pitch_bend_c, 3, 9344
2, 422130, Pitch_bend_c, 3, 9472
2, 422151, Pitch_bend_c, 3, 9600
2, 422160, Pitch_bend_c, 3, 9600
2, 422400, Pitch_bend_c, 3, 9600
2, 422400, Pitch_bend_c, 3, 8192
2, 422400, Note_off_c, 3, 70, 95
2, 422400, Note_on_c, 2, 72, 95
2, 422560, Note_off_c, 2, 72, 95
2, 422560, Note_on_c, 2, 70, 95
2, 422720, Note_off_c, 2, 70, 95
2, 422720, Note_on_c, 2, 67, 95
2, 422880, Note_off_c, 2, 67, 95
2, 422880, Note_on_c, 2, 75, 95
2, 423040, Note_off_c, 2, 75, 95
2, 423040, Note_on_c, 2, 76, 95
2, 423200, Note_off_c, 2, 76, 95
2, 423200, Note_on_c, 2, 75, 95
2, 423360, Note_off_c, 2, 75, 95
2, 423360, Note_on_c, 2, 72, 95
2, 423520, Note_off_c, 2, 72, 95
2, 423520, Note_on_c, 2, 70, 95
2, 423680, Note_off_c, 2, 70, 95
2, 423680, Note_on_c, 2, 67, 95
2, 423840, Note_off_c, 2, 67, 95
2, 423840, Note_on_c, 2, 74, 95
2, 424000, Note_off_c, 2, 74, 95
2, 424000, Note_on_c, 2, 75, 95
2, 424160, Note_off_c, 2, 75, 95
2, 424160, Note_on_c, 2, 74, 95
2, 424320, Note_off_c, 2, 74, 95
2, 424320, Note_on_c, 2, 72, 95
2, 424480, Note_off_c, 2, 72, 95
2, 424480, Note_on_c, 2, 70, 95
2, 424640, Note_off_c, 2, 70, 95
2, 424640, Note_on_c, 2, 67, 95
2, 424800, Note_off_c, 2, 67, 95
2, 424800, Note_on_c, 2, 69, 95
2, 424960, Note_off_c, 2, 69, 95
2, 424960, Note_on_c, 2, 70, 95
2, 425120, Note_off_c, 2, 70, 95
2, 425120, Note_on_c, 2, 69, 95
2, 425280, Note_off_c, 2, 69, 95
2, 425280, Note_on_c, 2, 67, 95
2, 425440, Note_off_c, 2, 67, 95
2, 425440, Note_on_c, 2, 65, 95
2, 425600, Note_off_c, 2, 65, 95
2, 425600, Note_on_c, 2, 63, 95
2, 425760, Note_off_c, 2, 63, 95
2, 425760, Note_on_c, 2, 69, 95
2, 425920, Note_off_c, 2, 69, 95
2, 425920, Note_on_c, 2, 70, 95
2, 426080, Note_off_c, 2, 70, 95
2, 426080, Note_on_c, 2, 69, 95
2, 426240, Note_off_c, 2, 69, 95
2, 426240, Note_on_c, 2, 67, 95
2, 426400, Note_off_c, 2, 67, 95
2, 426400, Note_on_c, 2, 65, 95
2, 426560, Note_off_c, 2, 65, 95
2, 426560, Note_on_c, 2, 63, 95
2, 426720, Note_off_c, 2, 63, 95
2, 426720, Note_on_c, 2, 65, 95
2, 426880, Note_off_c, 2, 65, 95
2, 426880, Note_on_c, 2, 66, 95
2, 427040, Note_off_c, 2, 66, 95
2, 427040, Note_on_c, 2, 65, 95
2, 427200, Note_off_c, 2, 65, 95
2, 427200, Note_on_c, 2, 63, 95
2, 427360, Note_off_c, 2, 63, 95
2, 427360, Note_on_c, 2, 60, 95
2, 427520, Note_off_c, 2, 60, 95
2, 427520, Note_on_c, 2, 58, 95
2, 427680, Note_off_c, 2, 58, 95
2, 427680, Note_on_c, 2, 65, 95
2, 427840, Note_off_c, 2, 65, 95
2, 427840, Note_on_c, 2, 66, 95
2, 428000, Note_off_c, 2, 66, 95
2, 428000, Note_on_c, 2, 65, 95
2, 428160, Note_off_c, 2, 65, 95
2, 428160, Note_on_c, 2, 63, 95
2, 428320, Note_off_c, 2, 63, 95
2, 428320, Note_on_c, 2, 60, 95
2, 428480, Note_off_c, 2, 60, 95
2, 428480, Note_on_c, 2, 58, 95
2, 428640, Note_off_c, 2, 58, 95
2, 428640, Note_on_c, 2, 66, 95
2, 428800, Note_off_c, 2, 66, 95
2, 428800, Note_on_c, 2, 63, 95
2, 428960, Note_off_c, 2, 63, 95
2, 428960, Note_on_c, 2, 65, 95
2, 429120, Note_off_c, 2, 65, 95
2, 429120, Note_on_c, 2, 63, 95
2, 429280, Note_off_c, 2, 63, 95
2, 429280, Note_on_c, 2, 60, 95
2, 429440, Note_off_c, 2, 60, 95
2, 429440, Note_on_c, 2, 58, 95
2, 429600, Note_off_c, 2, 58, 95
2, 429600, Note_on_c, 2, 66, 95
2, 429760, Note_off_c, 2, 66, 95
2, 429760, Note_on_c, 2, 63, 95
2, 429920, Note_off_c, 2, 63, 95
2, 429920, Note_on_c, 2, 65, 95
2, 430080, Note_off_c, 2, 65, 95
2, 430080, Note_on_c, 2, 63, 95
2, 430240, Note_off_c, 2, 63, 95
2, 430240, Note_on_c, 2, 60, 95
2, 430400, Note_off_c, 2, 60, 95
2, 430400, Note_on_c, 2, 58, 95
2, 430560, Note_off_c, 2, 58, 95
2, 430560, Note_on_c, 2, 66, 95
2, 430800, Note_off_c, 2, 66, 95
2, 430800, Pitch_bend_c, 3, 8192
2, 430800, Note_on_c, 3, 64, 95
2, 430824, Pitch_bend_c, 3, 8320
2, 430848, Pitch_bend_c, 3, 8448
2, 430872, Pitch_bend_c, 3, 8576
2, 430896, Pitch_bend_c, 3, 8704
2, 430920, Pitch_bend_c, 3, 8832
2, 430920, Pitch_bend_c, 3, 8832
2, 431040, Pitch_bend_c, 3, 8832
2, 431040, Pitch_bend_c, 3, 8192
2, 431040, Note_off_c, 3, 64, 95
2, 431040, Note_on_c, 2, 63, 95
2, 431280, Note_off_c, 2, 63, 95
2, 431280, Note_on_c, 2, 60, 95
2, 431520, Note_off_c, 2, 60, 95
2, 431520, Note_on_c, 2, 58, 95
2, 431760, Note_off_c, 2, 58, 95
2, 431760, Note_on_c, 2, 55, 95
2, 432000, Note_off_c, 2, 55, 95
2, 432000, Note_on_c, 2, 53, 95
2, 432240, Note_off_c, 2, 53, 95
2, 432240, Note_on_c, 2, 51, 95
2, 432480, Note_off_c, 2, 51, 95
2, 432480, Note_on_c, 2, 48, 95
2, 433920, Note_off_c, 2, 48, 95
2, 433920, Note_on_c, 3, 64, 95
2, 434040, Pitch_bend_c, 3, 9600
2, 434160, Pitch_bend_c, 3, 11008
2, 434280, Pitch_bend_c, 3, 12416
2, 434400, Pitch_bend_c, 3, 13824
2, 434400, Pitch_bend_c, 3, 8192
2, 434400, Note_off_c, 3, 64, 95
2, 434400, Note_on_c, 2, 72, 95
2, 434520, Note_off_c, 2, 72, 95
2, 434520, Note_on_c, 2, 69, 70
2, 434640, Note_off_c, 2, 69, 70
2, 434640, Note_on_c, 2, 67, 70
2, 434760, Note_off_c, 2, 67, 70
2, 434760, Note_on_c, 2, 69, 70
2, 434880, Note_off_c, 2, 69, 70
2, 434880, Note_on_c, 2, 72, 95
2, 435000, Note_off_c, 2, 72, 95
2, 435000, Note_on_c, 2, 69, 70
2, 435120, Note_off_c, 2, 69, 70
2, 435120, Note_on_c, 2, 72, 70
2, 435240, Note_off_c, 2, 72, 70
2, 435240, Note_on_c, 2, 69, 70
2, 435360, Note_off_c, 2, 69, 70
2, 435360, Note_on_c, 2, 67, 70
2, 435480, Note_off_c, 2, 67, 70
2, 435480, Note_on_c, 2, 69, 70
2, 435600, Note_off_c, 2, 69, 70
2, 435600, Note_on_c, 2, 72, 95
2, 435720, Note_off_c, 2, 72, 95
2, 435720, Note_on_c, 2, 69, 70
2, 435840, Note_off_c, 2, 69, 70
2, 435840, Note_on_c, 2, 72, 70
2, 435960, Note_off_c, 2, 72, 70
2, 435960, Note_on_c, 2, 69, 70
2, 436080, Note_off_c, 2, 69, 70
2, 436080, Note_on_c, 2, 67, 70
2, 436200, Note_off_c, 2, 67, 70
2, 436200, Note_on_c, 2, 69, 70
2, 436320, Note_off_c, 2, 69, 70
2, 436320, Note_on_c, 2, 74, 95
2, 436440, Note_off_c, 2, 74, 95
2, 436440, Note_on_c, 2, 69, 70
2, 436560, Note_off_c, 2, 69, 70
2, 436560, Note_on_c, 2, 67, 70
2, 436680, Note_off_c, 2, 67, 70
2, 436680, Note_on_c, 2, 69, 70
2, 436800, Note_off_c, 2, 69, 70
2, 436800, Note_on_c, 2, 72, 95
2, 436920, Note_off_c, 2, 72, 95
2, 436920, Note_on_c, 2, 69, 70
2, 437040, Note_off_c, 2, 69, 70
2, 437040, Note_on_c, 2, 67, 70
2, 437160, Note_off_c, 2, 67, 70
2, 437160, Note_on_c, 2, 69, 70
2, 437280, Note_off_c, 2, 69, 70
2, 437280, Note_on_c, 2, 74, 95
2, 437400, Note_off_c, 2, 74, 95
2, 437400, Note_on_c, 2, 69, 70
2, 437520, Note_off_c, 2, 69, 70
2, 437520, Note_on_c, 2, 67, 70
2, 437640, Note_off_c, 2, 67, 70
2, 437640, Note_on_c, 2, 69, 70
2, 437760, Note_off_c, 2, 69, 70
2, 437760, Note_on_c, 2, 72, 95
2, 437880, Note_off_c, 2, 72, 95
2, 437880, Note_on_c, 2, 69, 70
2, 438000, Note_off_c, 2, 69, 70
2, 438000, Note_on_c, 2, 67, 70
2, 438120, Note_off_c, 2, 67, 70
2, 438120, Note_on_c, 3, 69, 70
2, 438240, Pitch_bend_c, 3, 13824
2, 438240, Pitch_bend_c, 3, 8192
2, 438240, Note_off_c, 3, 69, 70
2, 438240, Note_on_c, 2, 77, 95
2, 438360, Note_off_c, 2, 77, 95
2, 438360, Note_on_c, 2, 74, 70
2, 438480, Note_off_c, 2, 74, 70
2, 438480, Note_on_c, 2, 72, 70
2, 438600, Note_off_c, 2, 72, 70
2, 438600, Note_on_c, 2, 74, 70
2, 438720, Note_off_c, 2, 74, 70
2, 438720, Note_on_c, 2, 77, 95
2, 438840, Note_off_c, 2, 77, 95
2, 438840, Note_on_c, 2, 74, 70
2, 438960, Note_off_c, 2, 74, 70
2, 438960, Note_on_c, 2, 77, 95
2, 439080, Note_off_c, 2, 77, 95
2, 439080, Note_on_c, 2, 74, 70
2, 439200, Note_off_c, 2, 74, 70
2, 439200, Note_on_c, 2, 72, 70
2, 439320, Note_off_c, 2, 72, 70
2, 439320, Note_on_c, 2, 74, 70
2, 439440, Note_off_c, 2, 74, 70
2, 439440, Note_on_c, 2, 77, 95
2, 439560, Note_off_c, 2, 77, 95
2, 439560, Note_on_c, 2, 74, 70
2, 439680, Note_off_c, 2, 74, 70
2, 439680, Note_on_c, 2, 77, 95
2, 439800, Note_off_c, 2, 77, 95
2, 439800, Note_on_c, 2, 74, 70
2, 439920, Note_off_c, 2, 74, 70
2, 439920, Note_on_c, 2, 72, 70
2, 440040, Note_off_c, 2, 72, 70
2, 440040, Note_on_c, 2, 74, 70
2, 440160, Note_off_c, 2, 74, 70
2, 440160, Note_on_c, 2, 79, 95
2, 440280, Note_off_c, 2, 79, 95
2, 440280, Note_on_c, 2, 74, 70
2, 440400, Note_off_c, 2, 74, 70
2, 440400, Note_on_c, 2, 72, 70
2, 440520, Note_off_c, 2, 72, 70
2, 440520, Note_on_c, 2, 74, 70
2, 440640, Note_off_c, 2, 74, 70
2, 440640, Note_on_c, 2, 77, 95
2, 440760, Note_off_c, 2, 77, 95
2, 440760, Note_on_c, 2, 74, 70
2, 440880, Note_off_c, 2, 74, 70
2, 440880, Note_on_c, 2, 72, 70
2, 441000, Note_off_c, 2, 72, 70
2, 441000, Note_on_c, 2, 74, 70
2, 441120, Note_off_c, 2, 74, 70
2, 441120, Note_on_c, 2, 79, 95
2, 441240, Note_off_c, 2, 79, 95
2, 441240, Note_on_c, 2, 74, 70
2, 441360, Note_off_c, 2, 74, 70
2, 441360, Note_on_c, 2, 72, 70
2, 441480, Note_off_c, 2, 72, 70
2, 441480, Note_on_c, 2, 74, 70
2, 441600, Note_off_c, 2, 74, 70
2, 441600, Note_on_c, 2, 77, 95
2, 441720, Note_off_c, 2, 77, 95
2, 441720, Note_on_c, 2, 74, 70
2, 441840, Note_off_c, 2, 74, 70
2, 441840, Note_on_c, 2, 72, 70
2, 441960, Note_off_c, 2, 72, 70
2, 441960, Note_on_c, 3, 60, 95
2, 442080, Pitch_bend_c, 3, 8832
2, 442080, Pitch_bend_c, 3, 8192
2, 442080, Note_off_c, 3, 60, 95
2, 442080, Note_on_c, 2, 61, 95
2, 442320, Note_off_c, 2, 61, 95
2, 442320, Note_on_c, 2, 65, 95
2, 442560, Note_off_c, 2, 65, 95
2, 442560, Note_on_c, 2, 67, 95
2, 442800, Note_off_c, 2, 67, 95
2, 442800, Note_on_c, 2, 61, 95
2, 443040, Note_off_c, 2, 61, 95
2, 443040, Note_on_c, 2, 65, 95
2, 443280, Note_off_c, 2, 65, 95
2, 443280, Note_on_c, 2, 67, 95
2, 443520, Note_off_c, 2, 67, 95
2, 443520, Note_on_c, 2, 71, 95
2, 443760, Note_off_c, 2, 71, 95
2, 443760, Note_on_c, 2, 65, 95
2, 444000, Note_off_c, 2, 65, 95
2, 444000, Note_on_c, 2, 67, 95
2, 444240, Note_off_c, 2, 67, 95
2, 444240, Note_on_c, 2, 71, 95
2, 444480, Note_off_c, 2, 71, 95
2, 444480, Note_on_c, 2, 73, 95
2, 444720, Note_off_c, 2, 73, 95
2, 444720, Pitch_bend_c, 3, 8192
2, 444720, Note_on_c, 3, 76, 95
2, 444795, Pitch_bend_c, 3, 8320
2, 444870, Pitch_bend_c, 3, 8448
2, 444945, Pitch_bend_c, 3, 8576
2, 445020, Pitch_bend_c, 3, 8704
2, 445095, Pitch_bend_c, 3, 8832
2, 445170, Pitch_bend_c, 3, 8960
2, 445245, Pitch_bend_c, 3, 9088
2, 445320, Pitch_bend_c, 3, 9216
2, 445320, Pitch_bend_c, 3, 9216
2, 445920, Pitch_bend_c, 3, 9216
2, 445920, Pitch_bend_c, 3, 8192
2, 445920, Note_off_c, 3, 76, 95
2, 445920, Note_on_c, 2, 82, 95
2, 446080, Note_off_c, 2, 82, 95
2, 446080, Note_on_c, 2, 81, 95
2, 446240, Note_off_c, 2, 81, 95
2, 446240, Note_on_c, 2, 80, 95
2, 446400, Note_off_c, 2, 80, 95
2, 446400, Note_on_c, 2, 79, 95
2, 446560, Note_off_c, 2, 79, 95
2, 446560, Note_on_c, 2, 78, 95
2, 446720, Note_off_c, 2, 78, 95
2, 446720, Note_on_c, 2, 77, 95
2, 446880, Note_off_c, 2, 77, 95
2, 446880, Note_on_c, 2, 75, 95
2, 447040, Note_off_c, 2, 75, 95
2, 447040, Note_on_c, 2, 74, 95
2, 447200, Note_off_c, 2, 74, 95
2, 447200, Note_on_c, 2, 74, 95
2, 447360, Note_off_c, 2, 74, 95
2, 447360, Note_on_c, 2, 73, 95
2, 447520, Note_off_c, 2, 73, 95
2, 447520, Note_on_c, 2, 72, 95
2, 447680, Note_off_c, 2, 72, 95
2, 447680, Note_on_c, 2, 71, 95
2, 447840, Note_off_c, 2, 71, 95
2, 447840, Note_on_c, 2, 67, 95
2, 448000, Note_off_c, 2, 67, 95
2, 448000, Note_on_c, 2, 66, 95
2, 448160, Note_off_c, 2, 66, 95
2, 448160, Note_on_c, 2, 65, 95
2, 448320, Note_off_c, 2, 65, 95
2, 448320, Note_on_c, 2, 64, 95
2, 448480, Note_off_c, 2, 64, 95
2, 448480, Note_on_c, 2, 63, 95
2, 448640, Note_off_c, 2, 63, 95
2, 448640, Note_on_c, 2, 62, 95
2, 448800, Note_off_c, 2, 62, 95
2, 448800, Note_on_c, 2, 61, 95
2, 448960, Note_off_c, 2, 61, 95
2, 448960, Note_on_c, 2, 60, 95
2, 449120, Note_off_c, 2, 60, 95
2, 449120, Note_on_c, 2, 59, 95
2, 449280, Note_off_c, 2, 59, 95
2, 449280, Note_on_c, 2, 58, 95
2, 449440, Note_off_c, 2, 58, 95
2, 449440, Note_on_c, 2, 57, 95
2, 449600, Note_off_c, 2, 57, 95
2, 449600, Note_on_c, 2, 55, 95
2, 449760, Note_off_c, 2, 55, 95
2, 449760, Note_on_c, 2, 58, 95
2, 450000, Note_off_c, 2, 58, 95
2, 450000, Note_on_c, 2, 60, 95
2, 450240, Note_off_c, 2, 60, 95
2, 450240, Note_on_c, 2, 60, 95
2, 450480, Note_off_c, 2, 60, 95
2, 450480, Note_on_c, 2, 60, 95
2, 450720, Note_off_c, 2, 60, 95
2, 450960, Note_on_c, 2, 60, 95
2, 451200, Note_off_c, 2, 60, 95
2, 451440, Note_on_c, 2, 60, 95
2, 451680, Note_off_c, 2, 60, 95
2, 451680, Note_on_c, 2, 58, 95
2, 451920, Note_off_c, 2, 58, 95
2, 451920, Note_on_c, 2, 60, 95
2, 452160, Note_off_c, 2, 60, 95
2, 452160, Note_on_c, 2, 60, 95
2, 452400, Note_off_c, 2, 60, 95
2, 452400, Note_on_c, 2, 60, 95
2, 452640, Note_off_c, 2, 60, 95
2, 452640, Note_on_c, 2, 63, 95
2, 452880, Note_off_c, 2, 63, 95
2, 452880, Note_on_c, 3, 60, 95
2, 453040, Pitch_bend_c, 3, 8192
2, 453200, Pitch_bend_c, 3, 8320
2, 453360, Pitch_bend_c, 3, 8192
2, 453520, Pitch_bend_c, 3, 8320
2, 453600, Pitch_bend_c, 3, 8192
2, 453600, Pitch_bend_c, 3, 8320
2, 453600, Pitch_bend_c, 3, 8192
2, 453600, Note_off_c, 3, 60, 95
2, 453600, Pitch_bend_c, 3, 8192
2, 453600, Note_on_c, 3, 66, 95
2, 453648, Pitch_bend_c, 3, 8320
2, 453696, Pitch_bend_c, 3, 8448
2, 453744, Pitch_bend_c, 3, 8576
2, 453792, Pitch_bend_c, 3, 8704
2, 453840, Pitch_bend_c, 3, 8832
2, 453840, Pitch_bend_c, 3, 8832
2, 454080, Pitch_bend_c, 3, 8832
2, 454080, Pitch_bend_c, 3, 8192
2, 454080, Note_off_c, 3, 66, 95
2, 454080, Pitch_bend_c, 3, 8832
2, 454080, Note_on_c, 3, 66, 95
2, 454320, Note_on_c, 2, 70, 95
2, 454560, Pitch_bend_c, 3, 8832
2, 454560, Pitch_bend_c, 3, 8192
2, 454560, Note_off_c, 3, 66, 95
2, 454560, Pitch_bend_c, 3, 8832
2, 454560, Note_on_c, 3, 66, 95
2, 454800, Note_off_c, 2, 70, 95
2, 454800, Pitch_bend_c, 3, 8832
2, 454800, Pitch_bend_c, 3, 8192
2, 454800, Note_off_c, 3, 66, 95
2, 454800, Pitch_bend_c, 3, 8832
2, 454800, Note_on_c, 3, 66, 95
2, 455040, Note_on_c, 2, 70, 95
2, 455280, Pitch_bend_c, 3, 8832
2, 455280, Pitch_bend_c, 3, 8192
2, 455280, Note_off_c, 3, 66, 95
2, 455280, Pitch_bend_c, 3, 8832
2, 455280, Note_on_c, 3, 66, 95
2, 455520, Note_off_c, 2, 70, 95
2, 455520, Pitch_bend_c, 3, 8832
2, 455520, Pitch_bend_c, 3, 8192
2, 455520, Note_off_c, 3, 66, 95
2, 455520, Pitch_bend_c, 3, 8832
2, 455520, Note_on_c, 3, 66, 95
2, 455760, Note_on_c, 2, 70, 95
2, 456000, Pitch_bend_c, 3, 8832
2, 456000, Pitch_bend_c, 3, 8192
2, 456000, Note_off_c, 3, 66, 95
2, 456000, Pitch_bend_c, 3, 8832
2, 456000, Note_on_c, 3, 66, 95
2, 456240, Note_off_c, 2, 70, 95
2, 456240, Pitch_bend_c, 3, 8832
2, 456240, Pitch_bend_c, 3, 8192
2, 456240, Note_off_c, 3, 66, 95
2, 456240, Pitch_bend_c, 3, 8832
2, 456240, Note_on_c, 3, 66, 95
2, 456480, Pitch_bend_c, 3, 8832
2, 456480, Pitch_bend_c, 3, 8192
2, 456480, Note_off_c, 3, 66, 95
2, 456480, Pitch_bend_c, 3, 8192
2, 456480, Note_on_c, 3, 66, 95
2, 456540, Pitch_bend_c, 3, 8320
2, 456600, Pitch_bend_c, 3, 8448
2, 456660, Pitch_bend_c, 3, 8576
2, 456720, Pitch_bend_c, 3, 8704
2, 456780, Pitch_bend_c, 3, 8832
2, 456780, Pitch_bend_c, 3, 8832
2, 457080, Pitch_bend_c, 3, 8832
2, 457380, Pitch_bend_c, 3, 8832
2, 457420, Pitch_bend_c, 3, 8704
2, 457460, Pitch_bend_c, 3, 8576
2, 457500, Pitch_bend_c, 3, 8448
2, 457540, Pitch_bend_c, 3, 8320
2, 457580, Pitch_bend_c, 3, 8192
2, 457580, Pitch_bend_c, 3, 8192
2, 457680, Pitch_bend_c, 3, 8192
2, 457680, Pitch_bend_c, 3, 8192
2, 457680, Note_off_c, 3, 66, 95
2, 457680, Note_on_c, 2, 65, 95
2, 457800, Note_off_c, 2, 65, 95
2, 457800, Note_on_c, 2, 63, 70
2, 457920, Note_off_c, 2, 63, 70
2, 457920, Note_on_c, 2, 65, 70
2, 458880, Note_off_c, 2, 65, 70
2, 458880, Note_on_c, 2, 63, 95
2, 459360, Note_off_c, 2, 63, 95
2, 459360, Note_on_c, 2, 68, 95
2, 460080, Note_off_c, 2, 68, 95
2, 460080, Note_on_c, 2, 67, 95
2, 460560, Note_off_c, 2, 67, 95
2, 460560, Note_on_c, 2, 68, 95
2, 460680, Note_off_c, 2, 68, 95
2, 460680, Note_on_c, 2, 67, 70
2, 460800, Note_off_c, 2, 67, 70
2, 460800, Note_on_c, 2, 65, 70
2, 461280, Note_off_c, 2, 65, 70
2, 461280, Note_on_c, 2, 63, 95
2, 461940, Note_on_c, 3, 63, 95
2, 462000, Note_off_c, 2, 63, 95
2, 462000, Note_off_c, 3, 63, 95
2, 462000, Note_on_c, 3, 62, 95
2, 462720, Note_off_c, 3, 62, 95
2, 462720, Note_on_c, 2, 58, 95
2, 463200, Note_off_c, 2, 58, 95
2, 463200, Note_on_c, 3, 53, 95
2, 463360, Pitch_bend_c, 3, 8192
2, 463520, Pitch_bend_c, 3, 8320
2, 463680, Pitch_bend_c, 3, 8192
2, 463840, Pitch_bend_c, 3, 8320
2, 464000, Pitch_bend_c, 3, 8192
2, 464160, Pitch_bend_c, 3, 8320
2, 464320, Pitch_bend_c, 3, 8192
2, 464480, Pitch_bend_c, 3, 8320
2, 464640, Pitch_bend_c, 3, 8192
2, 464800, Pitch_bend_c, 3, 8320
2, 464960, Pitch_bend_c, 3, 8192
2, 465120, Pitch_bend_c, 3, 8320
2, 465280, Pitch_bend_c, 3, 8192
2, 465440, Pitch_bend_c, 3, 8320
2, 465600, Pitch_bend_c, 3, 8192
2, 465760, Pitch_bend_c, 3, 8320
2, 465920, Pitch_bend_c, 3, 8192
2, 466080, Pitch_bend_c, 3, 8320
2, 466240, Pitch_bend_c, 3, 8192
2, 466400, Pitch_bend_c, 3, 8320
2, 466560, Pitch_bend_c, 3, 8192
2, 466560, Pitch_bend_c, 3, 8320
2, 466560, Pitch_bend_c, 3, 8192
2, 466560, Note_off_c, 3, 53, 95
2, 466560, Note_on_c, 2, 63, 95
2, 466662, Note_off_c, 2, 63, 95
2, 466720, Note_on_c, 2, 65, 95
2, 466822, Note_off_c, 2, 65, 95
2, 466880, Note_on_c, 2, 67, 95
2, 466982, Note_off_c, 2, 67, 95
2, 467040, Note_on_c, 3, 68, 95
2, 467200, Pitch_bend_c, 3, 8192
2, 467360, Pitch_bend_c, 3, 8320
2, 467520, Pitch_bend_c, 3, 8192
2, 467680, Pitch_bend_c, 3, 8320
2, 467760, Pitch_bend_c, 3, 8192
2, 467760, Pitch_bend_c, 3, 8320
2, 467760, Pitch_bend_c, 3, 8192
2, 467760, Note_off_c, 3, 68, 95
2, 467760, Note_on_c, 3, 67, 95
2, 467920, Pitch_bend_c, 3, 8192
2, 468080, Pitch_bend_c, 3, 8320
2, 468240, Pitch_bend_c, 3, 8192
2, 468400, Pitch_bend_c, 3, 8320
2, 468480, Pitch_bend_c, 3, 8192
2, 468480, Pitch_bend_c, 3, 8320
2, 468480, Pitch_bend_c, 3, 8192
2, 468480, Note_off_c, 3, 67, 95
2, 468480, Note_on_c, 2, 65, 95
2, 468720, Note_off_c, 2, 65, 95
2, 468720, Note_on_c, 2, 63, 95
2, 468960, Note_off_c, 2, 63, 95
2, 468960, Note_on_c, 2, 70, 95
2, 469120, Note_off_c, 2, 70, 95
2, 469120, Note_on_c, 2, 67, 95
2, 469280, Note_off_c, 2, 67, 95
2, 469280, Note_on_c, 2, 68, 95
2, 469440, Note_off_c, 2, 68, 95
2, 469440, Note_on_c, 2, 67, 95
2, 469600, Note_off_c, 2, 67, 95
2, 469600, Note_on_c, 2, 65, 95
2, 469760, Note_off_c, 2, 65, 95
2, 469760, Note_on_c, 2, 63, 95
2, 469920, Note_off_c, 2, 63, 95
2, 469920, Note_on_c, 2, 75, 95
2, 470080, Note_off_c, 2, 75, 95
2, 470080, Note_on_c, 2, 72, 95
2, 470240, Note_off_c, 2, 72, 95
2, 470240, Note_on_c, 2, 74, 95
2, 470400, Note_off_c, 2, 74, 95
2, 470400, Note_on_c, 2, 72, 95
2, 470560, Note_off_c, 2, 72, 95
2, 470560, Note_on_c, 2, 70, 95
2, 470720, Note_off_c, 2, 70, 95
2, 470720, Note_on_c, 2, 67, 95
2, 470880, Note_off_c, 2, 67, 95
2, 470880, Note_on_c, 2, 77, 95
2, 471040, Note_off_c, 2, 77, 95
2, 471040, Note_on_c, 2, 74, 95
2, 471200, Note_off_c, 2, 74, 95
2, 471200, Note_on_c, 2, 75, 95
2, 471360, Note_off_c, 2, 75, 95
2, 471360, Note_on_c, 2, 74, 95
2, 471520, Note_off_c, 2, 74, 95
2, 471520, Note_on_c, 2, 72, 95
2, 471680, Note_off_c, 2, 72, 95
2, 471680, Note_on_c, 2, 70, 95
2, 471840, Note_off_c, 2, 70, 95
2, 471840, Note_on_c, 2, 79, 95
2, 472000, Note_off_c, 2, 79, 95
2, 472000, Note_on_c, 2, 75, 95
2, 472160, Note_off_c, 2, 75, 95
2, 472160, Note_on_c, 2, 77, 95
2, 472320, Note_off_c, 2, 77, 95
2, 472320, Note_on_c, 2, 75, 95
2, 472480, Note_off_c, 2, 75, 95
2, 472480, Note_on_c, 2, 74, 95
2, 472640, Note_off_c, 2, 74, 95
2, 472640, Note_on_c, 2, 70, 95
2, 472800, Note_off_c, 2, 70, 95
2, 472800, Note_on_c, 3, 80, 95
2, 472960, Pitch_bend_c, 3, 8192
2, 473120, Pitch_bend_c, 3, 8320
2, 473280, Pitch_bend_c, 3, 8192
2, 473440, Pitch_bend_c, 3, 8320
2, 473600, Pitch_bend_c, 3, 8192
2, 473760, Pitch_bend_c, 3, 8320
2, 473920, Pitch_bend_c, 3, 8192
2, 474080, Pitch_bend_c, 3, 8320
2, 474240, Pitch_bend_c, 3, 8192
2, 474400, Pitch_bend_c, 3, 8320
2, 474560, Pitch_bend_c, 3, 8192
2, 474720, Pitch_bend_c, 3, 8320
2, 474720, Pitch_bend_c, 3, 8192
2, 474720, Note_off_c, 3, 80, 95
2, 474720, Pitch_bend_c, 3, 8192
2, 474720, Note_on_c, 3, 82, 47
2, 474720, Note_on_c, 3, 82, 31
2, 474720, Note_on_c, 3, 94, 95
2, 474752, Pitch_bend_c, 3, 8320
2, 474784, Pitch_bend_c, 3, 8448
2, 474816, Pitch_bend_c, 3, 8576
2, 474848, Pitch_bend_c, 3, 8704
2, 474880, Pitch_bend_c, 3, 8832
2, 474912, Pitch_bend_c, 3, 8960
2, 474944, Pitch_bend_c, 3, 9088
2, 474976, Pitch_bend_c, 3, 9216
2, 475008, Pitch_bend_c, 3, 9344
2, 475040, Pitch_bend_c, 3, 9472
2, 475072, Pitch_bend_c, 3, 9600
2, 475080, Pitch_bend_c, 3, 9600
2, 475440, Pitch_bend_c, 3, 9600
2, 475800, Pitch_bend_c, 3, 9600
2, 475800, Pitch_bend_c, 3, 9600
2, 475821, Pitch_bend_c, 3, 9472
2, 475842, Pitch_bend_c, 3, 9344
2, 475863, Pitch_bend_c, 3, 9216
2, 475884, Pitch_bend_c, 3, 9088
2, 475905, Pitch_bend_c, 3, 8960
2, 475926, Pitch_bend_c, 3, 8832
2, 475947, Pitch_bend_c, 3, 8704
2, 475968, Pitch_bend_c, 3, 8576
2, 475989, Pitch_bend_c, 3, 8448
2, 476010, Pitch_bend_c, 3, 8320
2, 476031, Pitch_bend_c, 3, 8192
2, 476040, Pitch_bend_c, 3, 8192
2, 476160, Pitch_bend_c, 3, 8192
2, 476160, Pitch_bend_c, 3, 8192
2, 476160, Note_off_c, 3, 82, 47
2, 476160, Note_off_c, 3, 82, 31
2, 476160, Note_off_c, 3, 94, 95
2, 476160, Note_on_c, 2, 80, 95
2, 476400, Note_off_c, 2, 80, 95
2, 476400, Note_on_c, 2, 79, 95
2, 476640, Note_off_c, 2, 79, 95
2, 476640, Note_on_c, 2, 80, 95
2, 476880, Note_off_c, 2, 80, 95
2, 476880, Note_on_c, 2, 79, 95
2, 477120, Note_off_c, 2, 79, 95
2, 477120, Note_on_c, 2, 75, 95
2, 477360, Note_off_c, 2, 75, 95
2, 477360, Note_on_c, 2, 70, 95
2, 477600, Note_off_c, 2, 70, 95
2, 477600, Note_on_c, 2, 77, 95
2, 477840, Note_off_c, 2, 77, 95
2, 477840, Note_on_c, 2, 70, 95
2, 478080, Note_off_c, 2, 70, 95
2, 478080, Pitch_bend_c, 3, 8192
2, 478080, Note_on_c, 3, 75, 95
2, 478101, Pitch_bend_c, 3, 8320
2, 478122, Pitch_bend_c, 3, 8448
2, 478143, Pitch_bend_c, 3, 8576
2, 478164, Pitch_bend_c, 3, 8704
2, 478185, Pitch_bend_c, 3, 8832
2, 478206, Pitch_bend_c, 3, 8960
2, 478227, Pitch_bend_c, 3, 9088
2, 478248, Pitch_bend_c, 3, 9216
2, 478269, Pitch_bend_c, 3, 9344
2, 478290, Pitch_bend_c, 3, 9472
2, 478311, Pitch_bend_c, 3, 9600
2, 478320, Pitch_bend_c, 3, 9600
2, 478560, Pitch_bend_c, 3, 9600
2, 478560, Pitch_bend_c, 3, 8192
2, 478560, Note_off_c, 3, 75, 95
2, 478560, Note_on_c, 2, 75, 95
2, 479520, Note_off_c, 2, 75, 95
2, 480000, Note_on_c, 2, 75, 95
2, 480240, Note_off_c, 2, 75, 95
2, 480480, Note_on_c, 2, 74, 95
2, 480600, Note_off_c, 2, 74, 95
2, 480600, Note_on_c, 2, 75, 95
2, 480720, Note_off_c, 2, 75, 95
2, 480720, Note_on_c, 2, 74, 95
2, 480840, Note_off_c, 2, 74, 95
2, 480840, Note_on_c, 2, 72, 95
2, 480960, Note_off_c, 2, 72, 95
2, 480960, Note_on_c, 2, 74, 95
2, 481080, Note_off_c, 2, 74, 95
2, 481080, Note_on_c, 2, 75, 95
2, 481200, Note_off_c, 2, 75, 95
2, 481200, Note_on_c, 2, 74, 95
2, 481320, Note_off_c, 2, 74, 95
2, 481320, Note_on_c, 2, 72, 95
2, 481440, Note_off_c, 2, 72, 95
2, 481440, Note_on_c, 2, 72, 95
2, 481560, Note_off_c, 2, 72, 95
2, 481560, Note_on_c, 2, 74, 95
2, 481680, Note_off_c, 2, 74, 95
2, 481680, Note_on_c, 2, 72, 95
2, 481800, Note_off_c, 2, 72, 95
2, 481800, Note_on_c, 2, 70, 95
2, 481920, Note_off_c, 2, 70, 95
2, 481920, Note_on_c, 2, 72, 95
2, 482040, Note_off_c, 2, 72, 95
2, 482040, Note_on_c, 2, 74, 95
2, 482160, Note_off_c, 2, 74, 95
2, 482160, Note_on_c, 2, 72, 95
2, 482280, Note_off_c, 2, 72, 95
2, 482280, Note_on_c, 2, 70, 95
2, 482400, Note_off_c, 2, 70, 95
2, 482400, Note_on_c, 2, 70, 95
2, 482520, Note_off_c, 2, 70, 95
2, 482520, Note_on_c, 2, 72, 95
2, 482640, Note_off_c, 2, 72, 95
2, 482640, Note_on_c, 2, 70, 95
2, 482760, Note_off_c, 2, 70, 95
2, 482760, Note_on_c, 2, 68, 95
2, 482880, Note_off_c, 2, 68, 95
2, 482880, Note_on_c, 2, 70, 95
2, 483000, Note_off_c, 2, 70, 95
2, 483000, Note_on_c, 2, 72, 95
2, 483120, Note_off_c, 2, 72, 95
2, 483120, Note_on_c, 2, 70, 95
2, 483240, Note_off_c, 2, 70, 95
2, 483240, Note_on_c, 2, 68, 95
2, 483360, Note_off_c, 2, 68, 95
2, 483360, Note_on_c, 2, 68, 95
2, 483480, Note_off_c, 2, 68, 95
2, 483480, Note_on_c, 2, 70, 95
2, 483600, Note_off_c, 2, 70, 95
2, 483600, Note_on_c, 2, 68, 95
2, 483720, Note_off_c, 2, 68, 95
2, 483720, Note_on_c, 2, 67, 95
2, 483840, Note_off_c, 2, 67, 95
2, 483840, Note_on_c, 2, 68, 95
2, 483960, Note_off_c, 2, 68, 95
2, 483960, Note_on_c, 2, 70, 95
2, 484080, Note_off_c, 2, 70, 95
2, 484080, Note_on_c, 2, 68, 95
2, 484200, Note_off_c, 2, 68, 95
2, 484200, Note_on_c, 2, 67, 95
2, 484320, Note_off_c, 2, 67, 95
2, 484320, Note_on_c, 2, 67, 95
2, 484440, Note_off_c, 2, 67, 95
2, 484440, Note_on_c, 2, 68, 95
2, 484560, Note_off_c, 2, 68, 95
2, 484560, Note_on_c, 2, 67, 95
2, 484680, Note_off_c, 2, 67, 95
2, 484680, Note_on_c, 2, 65, 95
2, 484800, Note_off_c, 2, 65, 95
2, 484800, Note_on_c, 2, 67, 95
2, 484920, Note_off_c, 2, 67, 95
2, 484920, Note_on_c, 2, 68, 95
2, 485040, Note_off_c, 2, 68, 95
2, 485040, Note_on_c, 2, 67, 95
2, 485160, Note_off_c, 2, 67, 95
2, 485160, Note_on_c, 2, 65, 95
2, 485280, Note_off_c, 2, 65, 95
2, 485280, Note_on_c, 2, 65, 95
2, 485400, Note_off_c, 2, 65, 95
2, 485400, Note_on_c, 2, 67, 95
2, 485520, Note_off_c, 2, 67, 95
2, 485520, Note_on_c, 2, 65, 95
2, 485640, Note_off_c, 2, 65, 95
2, 485640, Note_on_c, 2, 63, 95
2, 485760, Note_off_c, 2, 63, 95
2, 485760, Note_on_c, 2, 65, 95
2, 485880, Note_off_c, 2, 65, 95
2, 485880, Note_on_c, 2, 67, 95
2, 486000, Note_off_c, 2, 67, 95
2, 486000, Note_on_c, 2, 65, 95
2, 486120, Note_off_c, 2, 65, 95
2, 486120, Note_on_c, 2, 63, 95
2, 486240, Note_off_c, 2, 63, 95
2, 486240, Note_on_c, 2, 63, 95
2, 486360, Note_off_c, 2, 63, 95
2, 486360, Note_on_c, 2, 65, 95
2, 486480, Note_off_c, 2, 65, 95
2, 486480, Note_on_c, 2, 63, 95
2, 486600, Note_off_c, 2, 63, 95
2, 486600, Note_on_c, 2, 62, 95
2, 486720, Note_off_c, 2, 62, 95
2, 486720, Note_on_c, 2, 63, 95
2, 486840, Note_off_c, 2, 63, 95
2, 486840, Note_on_c, 2, 65, 95
2, 486960, Note_off_c, 2, 65, 95
2, 486960, Note_on_c, 2, 63, 95
2, 487080, Note_off_c, 2, 63, 95
2, 487080, Note_on_c, 2, 62, 95
2, 487200, Note_off_c, 2, 62, 95
2, 487200, Note_on_c, 2, 62, 95
2, 487320, Note_off_c, 2, 62, 95
2, 487320, Note_on_c, 2, 63, 95
2, 487440, Note_off_c, 2, 63, 95
2, 487440, Note_on_c, 2, 62, 95
2, 487560, Note_off_c, 2, 62, 95
2, 487560, Note_on_c, 2, 60, 95
2, 487680, Note_off_c, 2, 60, 95
2, 487680, Note_on_c, 2, 62, 95
2, 487800, Note_off_c, 2, 62, 95
2, 487800, Note_on_c, 2, 63, 95
2, 487920, Note_off_c, 2, 63, 95
2, 487920, Note_on_c, 3, 51, 95
2, 488040, Pitch_bend_c, 3, 4736
2, 488040, Pitch_bend_c, 3, 8192
2, 488040, Note_off_c, 3, 51, 95
2, 488040, Note_on_c, 2, 46, 95
2, 488160, Note_off_c, 2, 46, 95
2, 488160, Note_on_c, 2, 46, 95
2, 488400, Note_off_c, 2, 46, 95
2, 488400, Note_on_c, 2, 46, 95
2, 488503, Note_off_c, 2, 46, 95
2, 488640, Note_on_c, 2, 47, 95
2, 488880, Note_off_c, 2, 47, 95
2, 488880, Note_on_c, 2, 48, 95
2, 489120, Note_off_c, 2, 48, 95
2, 489360, Note_on_c, 2, 43, 95
2, 489600, Note_off_c, 2, 43, 95
2, 489600, Note_on_c, 2, 45, 127
2, 489600, Note_on_c, 2, 43, 127
2, 489651, Note_off_c, 2, 45, 127
2, 489651, Note_off_c, 2, 43, 127
2, 489840, Note_on_c, 2, 45, 127
2, 489840, Note_on_c, 2, 43, 127
2, 489891, Note_off_c, 2, 45, 127
2, 489891, Note_off_c, 2, 43, 127
2, 490080, Note_on_c, 2, 46, 95
2, 490183, Note_off_c, 2, 46, 95
2, 490320, Note_on_c, 2, 46, 95
2, 490423, Note_off_c, 2, 46, 95
2, 490560, Note_on_c, 2, 48, 95
2, 490663, Note_off_c, 2, 48, 95
2, 490800, Note_on_c, 2, 48, 95
2, 490903, Note_off_c, 2, 48, 95
2, 491040, Note_on_c, 2, 51, 95
2, 491280, Note_off_c, 2, 51, 95
2, 491280, Note_on_c, 3, 49, 95
2, 491440, Pitch_bend_c, 3, 8192
2, 491600, Pitch_bend_c, 3, 8320
2, 491760, Pitch_bend_c, 3, 8192
2, 491920, Pitch_bend_c, 3, 8320
2, 492000, Pitch_bend_c, 3, 8192
2, 492000, Pitch_bend_c, 3, 8320
2, 492000, Pitch_bend_c, 3, 8192
2, 492000, Note_off_c, 3, 49, 95
2, 492000, Note_on_c, 2, 46, 95
2, 492240, Note_off_c, 2, 46, 95
2, 492240, Note_on_c, 2, 46, 95
2, 492480, Note_off_c, 2, 46, 95
2, 492480, Note_on_c, 2, 47, 95
2, 492720, Note_off_c, 2, 47, 95
2, 492720, Note_on_c, 2, 48, 95
2, 492960, Note_off_c, 2, 48, 95
2, 493200, Note_on_c, 2, 40, 95
2, 493920, Note_off_c, 2, 40, 95
2, 493920, Note_on_c, 2, 41, 95
2, 494160, Note_off_c, 2, 41, 95
2, 494160, Note_on_c, 2, 41, 95
2, 494400, Note_off_c, 2, 41, 95
2, 494400, Note_on_c, 2, 41, 95
2, 494640, Note_off_c, 2, 41, 95
2, 494640, Note_on_c, 2, 42, 95
2, 495120, Note_off_c, 2, 42, 95
2, 495120, Note_on_c, 3, 50, 31
2, 495120, Note_on_c, 3, 62, 95
2, 495280, Pitch_bend_c, 3, 8192
2, 495440, Pitch_bend_c, 3, 8320
2, 495600, Pitch_bend_c, 3, 8192
2, 495760, Pitch_bend_c, 3, 8320
2, 495840, Pitch_bend_c, 3, 8192
2, 495840, Pitch_bend_c, 3, 8320
2, 495840, Pitch_bend_c, 3, 8192
2, 495840, Note_off_c, 3, 50, 31
2, 495840, Note_off_c, 3, 62, 95
2, 495840, Note_on_c, 2, 46, 95
2, 496080, Note_off_c, 2, 46, 95
2, 496080, Note_on_c, 2, 46, 95
2, 496320, Note_off_c, 2, 46, 95
2, 496320, Note_on_c, 2, 47, 95
2, 496560, Note_off_c, 2, 47, 95
2, 496560, Note_on_c, 2, 48, 95
2, 496800, Note_off_c, 2, 48, 95
2, 497040, Note_on_c, 2, 43, 95
2, 497280, Note_off_c, 2, 43, 95
2, 497760, Note_on_c, 2, 46, 95
2, 497863, Note_off_c, 2, 46, 95
2, 497920, Note_on_c, 2, 47, 95
2, 498023, Note_off_c, 2, 47, 95
2, 498080, Note_on_c, 2, 48, 95
2, 498183, Note_off_c, 2, 48, 95
2, 498240, Note_on_c, 2, 51, 95
2, 498343, Note_off_c, 2, 51, 95
2, 498400, Note_on_c, 2, 48, 95
2, 498503, Note_off_c, 2, 48, 95
2, 498560, Note_on_c, 2, 46, 95
2, 498663, Note_off_c, 2, 46, 95
2, 498720, Note_on_c, 2, 53, 95
2, 498960, Note_off_c, 2, 53, 95
2, 498960, Note_on_c, 3, 51, 95
2, 499120, Pitch_bend_c, 3, 8192
2, 499280, Pitch_bend_c, 3, 8320
2, 499440, Pitch_bend_c, 3, 8192
2, 499560, Note_on_c, 3, 54, 95
2, 499600, Pitch_bend_c, 3, 8320
2, 499680, Pitch_bend_c, 3, 8192
2, 499680, Pitch_bend_c, 3, 8320
2, 499680, Pitch_bend_c, 3, 8192
2, 499680, Note_off_c, 3, 51, 95
2, 499680, Note_off_c, 3, 54, 95
2, 499680, Note_on_c, 3, 55, 95
2, 499840, Pitch_bend_c, 3, 8192
2, 500000, Pitch_bend_c, 3, 8320
2, 500160, Pitch_bend_c, 3, 8192
2, 500160, Pitch_bend_c, 3, 8320
2, 500160, Pitch_bend_c, 3, 8192
2, 500160, Note_off_c, 3, 55, 95
2, 500160, Note_on_c, 2, 58, 95
2, 500340, Note_on_c, 3, 55, 95
2, 500400, Note_off_c, 2, 58, 95
2, 500400, Note_off_c, 3, 55, 95
2, 500400, Note_on_c, 3, 54, 95
2, 500520, Pitch_bend_c, 3, 8064
2, 500640, Pitch_bend_c, 3, 7936
2, 500760, Pitch_bend_c, 3, 7680
2, 500880, Pitch_bend_c, 3, 7552
2, 500880, Pitch_bend_c, 3, 8192
2, 500880, Note_off_c, 3, 54, 95
2, 500880, Note_on_c, 2, 53, 95
2, 501120, Note_off_c, 2, 53, 95
2, 501120, Note_on_c, 2, 51, 95
2, 501360, Note_off_c, 2, 51, 95
2, 501360, Note_on_c, 2, 46, 95
2, 501540, Note_on_c, 3, 46, 95
2, 501600, Note_off_c, 2, 46, 95
2, 501600, Note_off_c, 3, 46, 95
2, 501600, Note_on_c, 3, 48, 95
2, 501840, Note_off_c, 3, 48, 95
2, 501840, Note_on_c, 2, 47, 95
2, 502080, Note_off_c, 2, 47, 95
2, 502080, Note_on_c, 2, 46, 95
2, 502320, Note_off_c, 2, 46, 95
2, 502320, Note_on_c, 2, 45, 95
2, 502560, Note_off_c, 2, 45, 95
2, 502560, Note_on_c, 2, 43, 95
2, 502800, Note_off_c, 2, 43, 95
2, 502800, Note_on_c, 2, 42, 95
2, 503040, Note_off_c, 2, 42, 95
2, 503040, Note_on_c, 2, 41, 95
2, 503280, Note_off_c, 2, 41, 95
2, 503280, Note_on_c, 2, 40, 95
2, 503520, Note_off_c, 2, 40, 95
2, 503520, Note_on_c, 2, 48, 95
2, 503760, Note_off_c, 2, 48, 95
2, 503760, Note_on_c, 2, 43, 47
2, 504000, Note_off_c, 2, 43, 47
2, 504000, Note_on_c, 2, 48, 95
2, 504240, Note_off_c, 2, 48, 95
2, 504240, Pitch_bend_c, 3, 8192
2, 504240, Note_on_c, 3, 65, 95
2, 504294, Pitch_bend_c, 3, 8320
2, 504348, Pitch_bend_c, 3, 8448
2, 504402, Pitch_bend_c, 3, 8576
2, 504456, Pitch_bend_c, 3, 8704
2, 504510, Pitch_bend_c, 3, 8832
2, 504564, Pitch_bend_c, 3, 8960
2, 504618, Pitch_bend_c, 3, 9088
2, 504672, Pitch_bend_c, 3, 9216
2, 504726, Pitch_bend_c, 3, 9344
2, 504780, Pitch_bend_c, 3, 9472
2, 504834, Pitch_bend_c, 3, 9600
2, 504840, Pitch_bend_c, 3, 9600
2, 504960, Note_on_c, 2, 72, 95
2, 505200, Note_off_c, 2, 72, 95
2, 505200, Note_on_c, 2, 72, 95
2, 505440, Pitch_bend_c, 3, 9600
2, 505440, Pitch_bend_c, 3, 8192
2, 505440, Note_off_c, 3, 65, 95
2, 505440, Note_off_c, 2, 72, 95
2, 505440, Pitch_bend_c, 3, 8192
2, 505440, Note_on_c, 3, 65, 95
2, 505472, Pitch_bend_c, 3, 8320
2, 505504, Pitch_bend_c, 3, 8448
2, 505536, Pitch_bend_c, 3, 8576
2, 505568, Pitch_bend_c, 3, 8704
2, 505600, Pitch_bend_c, 3, 8832
2, 505632, Pitch_bend_c, 3, 8960
2, 505664, Pitch_bend_c, 3, 9088
2, 505680, Note_on_c, 2, 72, 95
2, 505696, Pitch_bend_c, 3, 9216
2, 505728, Pitch_bend_c, 3, 9344
2, 505760, Pitch_bend_c, 3, 9472
2, 505792, Pitch_bend_c, 3, 9600
2, 505800, Pitch_bend_c, 3, 9600
2, 505920, Note_off_c, 2, 72, 95
2, 505920, Note_on_c, 2, 72, 95
2, 506160, Pitch_bend_c, 3, 9600
2, 506160, Pitch_bend_c, 3, 8192
2, 506160, Note_off_c, 3, 65, 95
2, 506160, Note_off_c, 2, 72, 95
2, 506160, Pitch_bend_c, 3, 8192
2, 506160, Note_on_c, 3, 65, 95
2, 506192, Pitch_bend_c, 3, 8320
2, 506224, Pitch_bend_c, 3, 8448
2, 506256, Pitch_bend_c, 3, 8576
2, 506288, Pitch_bend_c, 3, 8704
2, 506320, Pitch_bend_c, 3, 8832
2, 506352, Pitch_bend_c, 3, 8960
2, 506384, Pitch_bend_c, 3, 9088
2, 506400, Note_on_c, 2, 72, 95
2, 506416, Pitch_bend_c, 3, 9216
2, 506448, Pitch_bend_c, 3, 9344
2, 506480, Pitch_bend_c, 3, 9472
2, 506512, Pitch_bend_c, 3, 9600
2, 506520, Pitch_bend_c, 3, 9600
2, 506640, Note_off_c, 2, 72, 95
2, 506640, Note_on_c, 2, 72, 95
2, 506880, Pitch_bend_c, 3, 9600
2, 506880, Pitch_bend_c, 3, 8192
2, 506880, Note_off_c, 3, 65, 95
2, 506880, Note_off_c, 2, 72, 95
2, 506880, Pitch_bend_c, 3, 8192
2, 506880, Note_on_c, 3, 65, 95
2, 506912, Pitch_bend_c, 3, 8320
2, 506944, Pitch_bend_c, 3, 8448
2, 506976, Pitch_bend_c, 3, 8576
2, 507008, Pitch_bend_c, 3, 8704
2, 507040, Pitch_bend_c, 3, 8832
2, 507072, Pitch_bend_c, 3, 8960
2, 507104, Pitch_bend_c, 3, 9088
2, 507120, Note_on_c, 2, 72, 95
2, 507136, Pitch_bend_c, 3, 9216
2, 507168, Pitch_bend_c, 3, 9344
2, 507200, Pitch_bend_c, 3, 9472
2, 507232, Pitch_bend_c, 3, 9600
2, 507240, Pitch_bend_c, 3, 9600
2, 507360, Note_off_c, 2, 72, 95
2, 507360, Note_on_c, 2, 72, 95
2, 507600, Pitch_bend_c, 3, 9600
2, 507600, Pitch_bend_c, 3, 8192
2, 507600, Note_off_c, 3, 65, 95
2, 507600, Note_off_c, 2, 72, 95
2, 507600, Pitch_bend_c, 3, 8192
2, 507600, Note_on_c, 3, 65, 95
2, 507632, Pitch_bend_c, 3, 8320
2, 507664, Pitch_bend_c, 3, 8448
2, 507696, Pitch_bend_c, 3, 8576
2, 507728, Pitch_bend_c, 3, 8704
2, 507760, Pitch_bend_c, 3, 8832
2, 507792, Pitch_bend_c, 3, 8960
2, 507824, Pitch_bend_c, 3, 9088
2, 507840, Note_on_c, 2, 72, 95
2, 507856, Pitch_bend_c, 3, 9216
2, 507888, Pitch_bend_c, 3, 9344
2, 507920, Pitch_bend_c, 3, 9472
2, 507952, Pitch_bend_c, 3, 9600
2, 507960, Pitch_bend_c, 3, 9600
2, 508080, Note_off_c, 2, 72, 95
2, 508080, Note_on_c, 2, 72, 95
2, 508320, Pitch_bend_c, 3, 9600
2, 508320, Pitch_bend_c, 3, 8192
2, 508320, Note_off_c, 3, 65, 95
2, 508320, Note_off_c, 2, 72, 95
2, 508320, Pitch_bend_c, 3, 8192
2, 508320, Note_on_c, 3, 65, 95
2, 508352, Pitch_bend_c, 3, 8320
2, 508384, Pitch_bend_c, 3, 8448
2, 508416, Pitch_bend_c, 3, 8576
2, 508448, Pitch_bend_c, 3, 8704
2, 508480, Pitch_bend_c, 3, 8832
2, 508512, Pitch_bend_c, 3, 8960
2, 508544, Pitch_bend_c, 3, 9088
2, 508560, Note_on_c, 2, 72, 95
2, 508576, Pitch_bend_c, 3, 9216
2, 508608, Pitch_bend_c, 3, 9344
2, 508640, Pitch_bend_c, 3, 9472
2, 508672, Pitch_bend_c, 3, 9600
2, 508680, Pitch_bend_c, 3, 9600
2, 508800, Note_off_c, 2, 72, 95
2, 508800, Note_on_c, 2, 72, 95
2, 509040, Pitch_bend_c, 3, 9600
2, 509040, Pitch_bend_c, 3, 8192
2, 509040, Note_off_c, 3, 65, 95
2, 509040, Note_off_c, 2, 72, 95
2, 509040, Pitch_bend_c, 3, 8192
2, 509040, Note_on_c, 3, 65, 95
2, 509072, Pitch_bend_c, 3, 8320
2, 509104, Pitch_bend_c, 3, 8448
2, 509136, Pitch_bend_c, 3, 8576
2, 509168, Pitch_bend_c, 3, 8704
2, 509200, Pitch_bend_c, 3, 8832
2, 509232, Pitch_bend_c, 3, 8960
2, 509264, Pitch_bend_c, 3, 9088
2, 509280, Note_on_c, 2, 72, 95
2, 509296, Pitch_bend_c, 3, 9216
2, 509328, Pitch_bend_c, 3, 9344
2, 509360, Pitch_bend_c, 3, 9472
2, 509392, Pitch_bend_c, 3, 9600
2, 509400, Pitch_bend_c, 3, 9600
2, 509520, Note_off_c, 2, 72, 95
2, 509520, Note_on_c, 2, 72, 95
2, 509760, Pitch_bend_c, 3, 9600
2, 509760, Pitch_bend_c, 3, 8192
2, 509760, Note_off_c, 3, 65, 95
2, 509760, Note_off_c, 2, 72, 95
2, 509760, Note_on_c, 2, 65, 95
2, 510480, Note_off_c, 2, 65, 95
2, 510480, Note_on_c, 2, 70, 95
2, 510480, Note_on_c, 2, 66, 95
2, 510960, Note_off_c, 2, 70, 95
2, 510960, Note_off_c, 2, 66, 95
2, 511200, Note_on_c, 3, 67, 47
2, 511320, Pitch_bend_c, 3, 6784
2, 511440, Pitch_bend_c, 3, 5376
2, 511560, Pitch_bend_c, 3, 3968
2, 511680, Pitch_bend_c, 3, 2560
2, 511680, Pitch_bend_c, 3, 8192
2, 511680, Note_off_c, 3, 67, 47
2, 511680, Note_on_c, 2, 59, 95
2, 511680, Note_on_c, 2, 55, 95
2, 511680, Note_on_c, 2, 50, 95
2, 511731, Note_off_c, 2, 59, 95
2, 511731, Note_off_c, 2, 55, 95
2, 511731, Note_off_c, 2, 50, 95
2, 511920, Pitch_bend_c, 3, 8192
2, 511920, Note_on_c, 3, 63, 95
2, 511952, Pitch_bend_c, 3, 8320
2, 511984, Pitch_bend_c, 3, 8448
2, 512016, Pitch_bend_c, 3, 8576
2, 512048, Pitch_bend_c, 3, 8704
2, 512080, Pitch_bend_c, 3, 8832
2, 512112, Pitch_bend_c, 3, 8960
2, 512144, Pitch_bend_c, 3, 9088
2, 512176, Pitch_bend_c, 3, 9216
2, 512208, Pitch_bend_c, 3, 9344
2, 512240, Pitch_bend_c, 3, 9472
2, 512272, Pitch_bend_c, 3, 9600
2, 512280, Pitch_bend_c, 3, 9600
2, 512640, Pitch_bend_c, 3, 9600
2, 512640, Pitch_bend_c, 3, 8192
2, 512640, Note_off_c, 3, 63, 95
2, 512640, Note_on_c, 2, 72, 95
2, 512880, Note_off_c, 2, 72, 95
2, 512880, Note_on_c, 2, 67, 95
2, 513120, Note_off_c, 2, 67, 95
2, 513120, Pitch_bend_c, 3, 8192
2, 513120, Note_on_c, 3, 70, 95
2, 513163, Pitch_bend_c, 3, 8320
2, 513206, Pitch_bend_c, 3, 8448
2, 513249, Pitch_bend_c, 3, 8576
2, 513292, Pitch_bend_c, 3, 8704
2, 513335, Pitch_bend_c, 3, 8832
2, 513378, Pitch_bend_c, 3, 8960
2, 513421, Pitch_bend_c, 3, 9088
2, 513464, Pitch_bend_c, 3, 9216
2, 513507, Pitch_bend_c, 3, 9344
2, 513550, Pitch_bend_c, 3, 9472
2, 513593, Pitch_bend_c, 3, 9600
2, 513600, Pitch_bend_c, 3, 9600
2, 514080, Pitch_bend_c, 3, 9600
2, 514080, Pitch_bend_c, 3, 8192
2, 514080, Note_off_c, 3, 70, 95
2, 514080, Note_on_c, 3, 70, 95
2, 514200, Pitch_bend_c, 3, 7168
2, 514320, Pitch_bend_c, 3, 6144
2, 514320, Pitch_bend_c, 3, 8192
2, 514320, Note_off_c, 3, 70, 95
2, 514320, Note_on_c, 2, 67, 95
2, 514560, Note_off_c, 2, 67, 95
2, 514560, Note_on_c, 2, 65, 95
2, 514800, Note_off_c, 2, 65, 95
2, 514800, Note_on_c, 2, 63, 95
2, 515040, Note_off_c, 2, 63, 95
2, 515040, Note_on_c, 2, 65, 95
2, 515280, Note_off_c, 2, 65, 95
2, 515280, Note_on_c, 2, 60, 95
2, 515520, Note_off_c, 2, 60, 95
2, 515520, Note_on_c, 2, 63, 95
2, 515760, Note_off_c, 2, 63, 95
2, 515760, Note_on_c, 2, 65, 70
2, 516000, Note_off_c, 2, 65, 70
2, 516000, Note_on_c, 3, 63, 95
2, 516160, Pitch_bend_c, 3, 8192
2, 516320, Pitch_bend_c, 3, 8320
2, 516480, Pitch_bend_c, 3, 8192
2, 516640, Pitch_bend_c, 3, 8320
2, 516800, Pitch_bend_c, 3, 8192
2, 516960, Pitch_bend_c, 3, 8320
2, 516960, Pitch_bend_c, 3, 8192
2, 516960, Note_off_c, 3, 63, 95
2, 516960, Note_on_c, 3, 60, 95
2, 517080, Pitch_bend_c, 3, 7552
2, 517200, Pitch_bend_c, 3, 6784
2, 517200, Pitch_bend_c, 3, 8192
2, 517200, Note_off_c, 3, 60, 95
2, 517200, Note_on_c, 2, 58, 95
2, 517440, Note_off_c, 2, 58, 95
2, 517440, Note_on_c, 2, 55, 95
2, 517680, Note_off_c, 2, 55, 95
2, 517680, Note_on_c, 2, 54, 95
2, 517920, Note_off_c, 2, 54, 95
2, 517920, Note_on_c, 2, 53, 95
2, 518040, Note_off_c, 2, 53, 95
2, 518040, Note_on_c, 2, 54, 70
2, 518160, Note_off_c, 2, 54, 70
2, 518160, Note_on_c, 2, 53, 70
2, 518400, Note_off_c, 2, 53, 70
2, 518400, Note_on_c, 2, 51, 95
2, 518640, Note_off_c, 2, 51, 95
2, 518640, Note_on_c, 2, 48, 95
2, 518880, Note_off_c, 2, 48, 95
2, 518880, Note_on_c, 2, 46, 95
2, 519120, Note_off_c, 2, 46, 95
2, 519120, Note_on_c, 3, 48, 95
2, 520080, Note_off_c, 3, 48, 95
2, 520080, End_track
3, 0, Start_track
3, 0, Pitch_bend_c, 4, 8192
3, 0, Control_c, 4, 7, 95
3, 0, Control_c, 4, 10, 63
3, 0, Control_c, 4, 93, 0
3, 0, Control_c, 4, 91, 0
3, 0, Control_c, 4, 95, 0
3, 0, Control_c, 4, 92, 0
3, 0, Control_c, 4, 11, 127
3, 0, Program_c, 4, 29
3, 0, Control_c, 5, 7, 95
3, 0, Control_c, 5, 10, 63
3, 0, Control_c, 5, 93, 0
3, 0, Control_c, 5, 91, 0
3, 0, Control_c, 5, 95, 0
3, 0, Control_c, 5, 92, 0
3, 0, Control_c, 5, 11, 127
3, 0, Program_c, 5, 29
3, 195600, Note_on_c, 4, 46, 47
3, 195840, Note_off_c, 4, 46, 47
3, 195840, Note_on_c, 5, 48, 47
3, 195960, Pitch_bend_c, 5, 7936
3, 196080, Pitch_bend_c, 5, 7552
3, 196200, Pitch_bend_c, 5, 7168
3, 196320, Pitch_bend_c, 5, 6784
3, 196320, Pitch_bend_c, 5, 8192
3, 196320, Note_off_c, 5, 48, 47
3, 196320, Note_on_c, 4, 46, 31
3, 196560, Note_off_c, 4, 46, 31
3, 196560, Note_on_c, 5, 48, 31
3, 196680, Pitch_bend_c, 5, 7936
3, 196800, Pitch_bend_c, 5, 7552
3, 196920, Pitch_bend_c, 5, 7168
3, 197040, Pitch_bend_c, 5, 6784
3, 197040, Pitch_bend_c, 5, 8192
3, 197040, Note_off_c, 5, 48, 31
3, 197040, Note_on_c, 4, 46, 15
3, 197280, Note_off_c, 4, 46, 15
3, 197280, Note_on_c, 5, 48, 15
3, 197760, Note_off_c, 5, 48, 15
3, 198480, Note_on_c, 4, 46, 47
3, 198960, Note_off_c, 4, 46, 47
3, 198960, Note_on_c, 4, 48, 47
3, 199200, Note_off_c, 4, 48, 47
3, 199440, Note_on_c, 4, 44, 47
3, 199680, Note_off_c, 4, 44, 47
3, 199680, Note_on_c, 4, 46, 47
3, 199920, Note_off_c, 4, 46, 47
3, 200160, Note_on_c, 4, 44, 31
3, 200400, Note_off_c, 4, 44, 31
3, 200400, Note_on_c, 4, 46, 31
3, 200640, Note_off_c, 4, 46, 31
3, 200880, Note_on_c, 4, 44, 15
3, 201120, Note_off_c, 4, 44, 15
3, 201120, Note_on_c, 4, 46, 15
3, 201360, Note_off_c, 4, 46, 15
3, 202320, Note_on_c, 4, 44, 47
3, 202800, Note_off_c, 4, 44, 47
3, 202800, Note_on_c, 4, 46, 47
3, 203040, Note_off_c, 4, 46, 47
3, 203280, Note_on_c, 4, 42, 47
3, 203520, Note_off_c, 4, 42, 47
3, 203520, Note_on_c, 4, 44, 47
3, 203760, Note_off_c, 4, 44, 47
3, 204000, Note_on_c, 4, 42, 31
3, 204240, Note_off_c, 4, 42, 31
3, 204240, Note_on_c, 4, 44, 31
3, 204480, Note_off_c, 4, 44, 31
3, 204720, Note_on_c, 4, 42, 15
3, 204960, Note_off_c, 4, 42, 15
3, 204960, Note_on_c, 4, 44, 15
3, 205200, Note_off_c, 4, 44, 15
3, 206160, Note_on_c, 4, 42, 47
3, 206640, Note_off_c, 4, 42, 47
3, 206640, Note_on_c, 4, 44, 47
3, 206880, Note_off_c, 4, 44, 47
3, 207120, Note_on_c, 4, 40, 47
3, 207360, Note_off_c, 4, 40, 47
3, 207360, Note_on_c, 4, 42, 47
3, 207600, Note_off_c, 4, 42, 47
3, 210960, Note_on_c, 4, 42, 47
3, 211200, Note_off_c, 4, 42, 47
3, 211200, Note_on_c, 4, 44, 47
3, 211440, Note_off_c, 4, 44, 47
3, 211680, Note_on_c, 4, 42, 31
3, 211920, Note_off_c, 4, 42, 31
3, 211920, Note_on_c, 4, 44, 31
3, 212160, Note_off_c, 4, 44, 31
3, 212400, Note_on_c, 4, 42, 15
3, 212640, Note_off_c, 4, 42, 15
3, 212640, Note_on_c, 4, 44, 15
3, 212880, Note_off_c, 4, 44, 15
3, 213840, Note_on_c, 4, 42, 47
3, 214320, Note_off_c, 4, 42, 47
3, 214320, Note_on_c, 4, 44, 47
3, 214560, Note_off_c, 4, 44, 47
3, 214800, Note_on_c, 4, 40, 47
3, 215040, Note_off_c, 4, 40, 47
3, 215040, Note_on_c, 4, 42, 47
3, 215280, Note_off_c, 4, 42, 47
3, 217200, Note_on_c, 4, 42, 47
3, 217440, Note_off_c, 4, 42, 47
3, 217440, Note_on_c, 4, 44, 47
3, 217680, Note_off_c, 4, 44, 47
3, 217920, Note_on_c, 4, 42, 31
3, 218160, Note_off_c, 4, 42, 31
3, 218160, Note_on_c, 4, 44, 31
3, 218400, Note_off_c, 4, 44, 31
3, 218640, Note_on_c, 4, 42, 15
3, 218880, Note_off_c, 4, 42, 15
3, 218880, Note_on_c, 4, 44, 15
3, 219120, Note_off_c, 4, 44, 15
3, 220080, Note_on_c, 4, 42, 47
3, 220560, Note_off_c, 4, 42, 47
3, 220560, Note_on_c, 4, 44, 47
3, 220800, Note_off_c, 4, 44, 47
3, 221040, Note_on_c, 4, 40, 47
3, 221280, Note_off_c, 4, 40, 47
3, 221280, Note_on_c, 4, 42, 47
3, 221520, Note_off_c, 4, 42, 47
3, 224880, Note_on_c, 4, 42, 47
3, 225120, Note_off_c, 4, 42, 47
3, 225120, Note_on_c, 4, 44, 47
3, 225360, Note_off_c, 4, 44, 47
3, 225600, Note_on_c, 4, 42, 31
3, 225840, Note_off_c, 4, 42, 31
3, 225840, Note_on_c, 4, 44, 31
3, 226080, Note_off_c, 4, 44, 31
3, 226320, Note_on_c, 4, 42, 15
3, 226560, Note_off_c, 4, 42, 15
3, 226560, Note_on_c, 4, 44, 15
3, 226800, Note_off_c, 4, 44, 15
3, 227760, Note_on_c, 4, 42, 47
3, 228240, Note_off_c, 4, 42, 47
3, 228240, Note_on_c, 4, 44, 47
3, 228480, Note_off_c, 4, 44, 47
3, 228720, Note_on_c, 4, 40, 47
3, 228960, Note_off_c, 4, 40, 47
3, 228960, Note_on_c, 4, 42, 47
3, 229200, Note_off_c, 4, 42, 47
3, 231120, Note_on_c, 4, 42, 47
3, 231360, Note_off_c, 4, 42, 47
3, 231360, Note_on_c, 4, 44, 47
3, 231600, Note_off_c, 4, 44, 47
3, 231840, Note_on_c, 4, 42, 31
3, 232080, Note_off_c, 4, 42, 31
3, 232080, Note_on_c, 4, 44, 31
3, 232320, Note_off_c, 4, 44, 31
3, 232560, Note_on_c, 4, 42, 15
3, 232800, Note_off_c, 4, 42, 15
3, 232800, Note_on_c, 4, 44, 15
3, 233040, Note_off_c, 4, 44, 15
3, 234000, Note_on_c, 4, 42, 47
3, 234480, Note_off_c, 4, 42, 47
3, 234480, Note_on_c, 4, 44, 47
3, 234720, Note_off_c, 4, 44, 47
3, 234960, Note_on_c, 4, 40, 47
3, 235200, Note_off_c, 4, 40, 47
3, 235200, Note_on_c, 4, 42, 47
3, 235440, Note_off_c, 4, 42, 47
3, 238800, Note_on_c, 4, 42, 47
3, 239040, Note_off_c, 4, 42, 47
3, 239040, Note_on_c, 4, 44, 47
3, 239280, Note_off_c, 4, 44, 47
3, 239520, Note_on_c, 4, 42, 31
3, 239760, Note_off_c, 4, 42, 31
3, 239760, Note_on_c, 4, 44, 31
3, 240000, Note_off_c, 4, 44, 31
3, 240240, Note_on_c, 4, 42, 15
3, 240480, Note_off_c, 4, 42, 15
3, 240480, Note_on_c, 4, 44, 15
3, 240720, Note_off_c, 4, 44, 15
3, 241680, Note_on_c, 4, 42, 47
3, 242160, Note_off_c, 4, 42, 47
3, 242160, Note_on_c, 4, 44, 47
3, 242400, Note_off_c, 4, 44, 47
3, 242640, Note_on_c, 4, 40, 47
3, 242880, Note_off_c, 4, 40, 47
3, 242880, Note_on_c, 4, 42, 47
3, 243120, Note_off_c, 4, 42, 47
3, 244080, Note_on_c, 4, 49, 47
3, 244320, Note_off_c, 4, 49, 47
3, 244320, Note_on_c, 4, 48, 47
3, 244920, Note_off_c, 4, 48, 47
3, 244920, Note_on_c, 4, 49, 31
3, 245160, Note_off_c, 4, 49, 31
3, 245160, Note_on_c, 4, 48, 31
3, 245400, Note_off_c, 4, 48, 31
3, 384240, Note_on_c, 4, 42, 47
3, 384480, Note_off_c, 4, 42, 47
3, 384480, Note_on_c, 4, 44, 47
3, 384720, Note_off_c, 4, 44, 47
3, 384960, Note_on_c, 4, 42, 31
3, 385200, Note_off_c, 4, 42, 31
3, 385200, Note_on_c, 4, 44, 31
3, 385440, Note_off_c, 4, 44, 31
3, 385680, Note_on_c, 4, 42, 15
3, 385920, Note_off_c, 4, 42, 15
3, 385920, Note_on_c, 4, 44, 15
3, 386160, Note_off_c, 4, 44, 15
3, 387120, Note_on_c, 4, 42, 47
3, 387600, Note_off_c, 4, 42, 47
3, 387600, Note_on_c, 4, 44, 47
3, 387840, Note_off_c, 4, 44, 47
3, 388080, Note_on_c, 4, 40, 47
3, 388320, Note_off_c, 4, 40, 47
3, 388320, Note_on_c, 4, 42, 47
3, 388560, Note_off_c, 4, 42, 47
3, 391920, Note_on_c, 4, 42, 47
3, 392160, Note_off_c, 4, 42, 47
3, 392160, Note_on_c, 4, 44, 47
3, 392400, Note_off_c, 4, 44, 47
3, 392640, Note_on_c, 4, 42, 31
3, 392880, Note_off_c, 4, 42, 31
3, 392880, Note_on_c, 4, 44, 31
3, 393120, Note_off_c, 4, 44, 31
3, 393360, Note_on_c, 4, 42, 15
3, 393600, Note_off_c, 4, 42, 15
3, 393600, Note_on_c, 4, 44, 15
3, 393840, Note_off_c, 4, 44, 15
3, 394800, Note_on_c, 4, 42, 47
3, 395280, Note_off_c, 4, 42, 47
3, 395280, Note_on_c, 4, 44, 47
3, 395520, Note_off_c, 4, 44, 47
3, 395760, Note_on_c, 4, 40, 47
3, 396000, Note_off_c, 4, 40, 47
3, 396000, Note_on_c, 4, 42, 47
3, 396240, Note_off_c, 4, 42, 47
3, 398160, Note_on_c, 4, 42, 47
3, 398400, Note_off_c, 4, 42, 47
3, 398400, Note_on_c, 4, 44, 47
3, 398640, Note_off_c, 4, 44, 47
3, 398880, Note_on_c, 4, 42, 31
3, 399120, Note_off_c, 4, 42, 31
3, 399120, Note_on_c, 4, 44, 31
3, 399360, Note_off_c, 4, 44, 31
3, 399600, Note_on_c, 4, 42, 15
3, 399840, Note_off_c, 4, 42, 15
3, 399840, Note_on_c, 4, 44, 15
3, 400080, Note_off_c, 4, 44, 15
3, 401040, Note_on_c, 4, 42, 47
3, 401520, Note_off_c, 4, 42, 47
3, 401520, Note_on_c, 4, 44, 47
3, 401760, Note_off_c, 4, 44, 47
3, 402000, Note_on_c, 4, 40, 47
3, 402240, Note_off_c, 4, 40, 47
3, 402240, Note_on_c, 4, 42, 47
3, 402480, Note_off_c, 4, 42, 47
3, 405840, Note_on_c, 4, 42, 47
3, 406080, Note_off_c, 4, 42, 47
3, 406080, Note_on_c, 4, 44, 47
3, 406320, Note_off_c, 4, 44, 47
3, 406560, Note_on_c, 4, 42, 31
3, 406800, Note_off_c, 4, 42, 31
3, 406800, Note_on_c, 4, 44, 31
3, 407040, Note_off_c, 4, 44, 31
3, 407280, Note_on_c, 4, 42, 15
3, 407520, Note_off_c, 4, 42, 15
3, 407520, Note_on_c, 4, 44, 15
3, 407760, Note_off_c, 4, 44, 15
3, 408720, Note_on_c, 4, 42, 47
3, 409200, Note_off_c, 4, 42, 47
3, 409200, Note_on_c, 4, 44, 47
3, 409440, Note_off_c, 4, 44, 47
3, 409680, Note_on_c, 4, 40, 47
3, 409920, Note_off_c, 4, 40, 47
3, 409920, Note_on_c, 4, 42, 47
3, 410160, Note_off_c, 4, 42, 47
3, 412080, Note_on_c, 4, 42, 47
3, 412320, Note_off_c, 4, 42, 47
3, 412320, Note_on_c, 4, 44, 47
3, 412560, Note_off_c, 4, 44, 47
3, 412800, Note_on_c, 4, 42, 31
3, 413040, Note_off_c, 4, 42, 31
3, 413040, Note_on_c, 4, 44, 31
3, 413280, Note_off_c, 4, 44, 31
3, 413520, Note_on_c, 4, 42, 15
3, 413760, Note_off_c, 4, 42, 15
3, 413760, Note_on_c, 4, 44, 15
3, 414000, Note_off_c, 4, 44, 15
3, 414000, End_track
4, 0, Start_track
4, 0, Pitch_bend_c, 6, 8192
4, 0, Control_c, 6, 7, 71
4, 0, Control_c, 6, 10, 63
4, 0, Control_c, 6, 93, 0
4, 0, Control_c, 6, 91, 0
4, 0, Control_c, 6, 95, 0
4, 0, Control_c, 6, 92, 0
4, 0, Control_c, 6, 11, 127
4, 0, Program_c, 6, 95
4, 0, Control_c, 7, 7, 71
4, 0, Control_c, 7, 10, 63
4, 0, Control_c, 7, 93, 0
4, 0, Control_c, 7, 91, 0
4, 0, Control_c, 7, 95, 0
4, 0, Control_c, 7, 92, 0
4, 0, Control_c, 7, 11, 127
4, 0, Program_c, 7, 95
4, 133440, Note_on_c, 6, 75, 95
4, 133440, Note_on_c, 6, 63, 95
4, 133440, Note_on_c, 6, 56, 95
4, 133440, Note_on_c, 6, 51, 95
4, 137280, Note_off_c, 6, 75, 95
4, 137280, Note_off_c, 6, 63, 95
4, 137280, Note_off_c, 6, 56, 95
4, 137280, Note_off_c, 6, 51, 95
4, 137280, Note_on_c, 6, 77, 95
4, 137280, Note_on_c, 6, 65, 95
4, 137280, Note_on_c, 6, 58, 95
4, 141120, Note_off_c, 6, 77, 95
4, 141120, Note_off_c, 6, 65, 95
4, 141120, Note_off_c, 6, 58, 95
4, 141120, Note_on_c, 6, 75, 95
4, 141120, Note_on_c, 6, 68, 95
4, 141120, Note_on_c, 6, 56, 95
4, 141120, Note_on_c, 6, 51, 95
4, 144960, Note_off_c, 6, 75, 95
4, 144960, Note_off_c, 6, 68, 95
4, 144960, Note_off_c, 6, 56, 95
4, 144960, Note_off_c, 6, 51, 95
4, 144960, Note_on_c, 6, 82, 95
4, 144960, Note_on_c, 6, 70, 95
4, 144960, Note_on_c, 6, 58, 95
4, 148800, Note_off_c, 6, 82, 95
4, 148800, Note_off_c, 6, 70, 95
4, 148800, Note_off_c, 6, 58, 95
4, 148800, Note_on_c, 6, 80, 95
4, 148800, Note_on_c, 6, 68, 95
4, 148800, Note_on_c, 6, 56, 95
4, 152640, Note_off_c, 6, 80, 95
4, 152640, Note_off_c, 6, 68, 95
4, 152640, Note_off_c, 6, 56, 95
4, 152640, Note_on_c, 6, 80, 95
4, 152640, Note_on_c, 6, 68, 95
4, 152640, Note_on_c, 6, 56, 95
4, 156480, Note_off_c, 6, 80, 95
4, 156480, Note_off_c, 6, 68, 95
4, 156480, Note_off_c, 6, 56, 95
4, 156480, Note_on_c, 6, 82, 95
4, 156480, Note_on_c, 6, 70, 95
4, 156480, Note_on_c, 6, 65, 95
4, 164160, Note_off_c, 6, 82, 95
4, 164160, Note_off_c, 6, 70, 95
4, 164160, Note_off_c, 6, 65, 95
4, 217440, Note_on_c, 6, 80, 95
4, 217440, Note_on_c, 6, 68, 95
4, 217440, Note_on_c, 6, 63, 95
4, 217680, Note_off_c, 6, 80, 95
4, 217680, Note_off_c, 6, 68, 95
4, 217680, Note_off_c, 6, 63, 95
4, 217680, Note_on_c, 6, 80, 95
4, 217680, Note_on_c, 6, 68, 95
4, 217680, Note_on_c, 6, 63, 95
4, 217920, Note_off_c, 6, 80, 95
4, 217920, Note_off_c, 6, 68, 95
4, 217920, Note_off_c, 6, 63, 95
4, 217920, Note_on_c, 6, 80, 95
4, 217920, Note_on_c, 6, 68, 95
4, 217920, Note_on_c, 6, 63, 95
4, 218160, Note_off_c, 6, 80, 95
4, 218160, Note_off_c, 6, 68, 95
4, 218160, Note_off_c, 6, 63, 95
4, 218160, Note_on_c, 6, 80, 95
4, 218160, Note_on_c, 6, 68, 95
4, 218160, Note_on_c, 6, 63, 95
4, 218400, Note_off_c, 6, 80, 95
4, 218400, Note_off_c, 6, 68, 95
4, 218400, Note_off_c, 6, 63, 95
4, 218400, Note_on_c, 6, 80, 95
4, 218400, Note_on_c, 6, 68, 95
4, 218400, Note_on_c, 6, 63, 95
4, 218640, Note_off_c, 6, 80, 95
4, 218640, Note_off_c, 6, 68, 95
4, 218640, Note_off_c, 6, 63, 95
4, 218640, Note_on_c, 6, 80, 95
4, 218640, Note_on_c, 6, 68, 95
4, 218640, Note_on_c, 6, 63, 95
4, 218880, Note_off_c, 6, 80, 95
4, 218880, Note_off_c, 6, 68, 95
4, 218880, Note_off_c, 6, 63, 95
4, 218880, Note_on_c, 6, 80, 95
4, 218880, Note_on_c, 6, 68, 95
4, 218880, Note_on_c, 6, 63, 95
4, 219120, Note_off_c, 6, 80, 95
4, 219120, Note_off_c, 6, 68, 95
4, 219120, Note_off_c, 6, 63, 95
4, 219120, Note_on_c, 6, 80, 95
4, 219120, Note_on_c, 6, 68, 95
4, 219120, Note_on_c, 6, 63, 95
4, 219360, Note_off_c, 6, 80, 95
4, 219360, Note_off_c, 6, 68, 95
4, 219360, Note_off_c, 6, 63, 95
4, 219360, Note_on_c, 6, 80, 95
4, 219360, Note_on_c, 6, 68, 95
4, 219360, Note_on_c, 6, 63, 95
4, 219600, Note_off_c, 6, 80, 95
4, 219600, Note_off_c, 6, 68, 95
4, 219600, Note_off_c, 6, 63, 95
4, 219600, Note_on_c, 6, 80, 95
4, 219600, Note_on_c, 6, 68, 95
4, 219600, Note_on_c, 6, 63, 95
4, 219840, Note_off_c, 6, 80, 95
4, 219840, Note_off_c, 6, 68, 95
4, 219840, Note_off_c, 6, 63, 95
4, 219840, Note_on_c, 6, 80, 95
4, 219840, Note_on_c, 6, 68, 95
4, 219840, Note_on_c, 6, 63, 95
4, 220080, Note_off_c, 6, 80, 95
4, 220080, Note_off_c, 6, 68, 95
4, 220080, Note_off_c, 6, 63, 95
4, 220080, Note_on_c, 6, 80, 95
4, 220080, Note_on_c, 6, 68, 95
4, 220080, Note_on_c, 6, 63, 95
4, 220320, Note_off_c, 6, 80, 95
4, 220320, Note_off_c, 6, 68, 95
4, 220320, Note_off_c, 6, 63, 95
4, 220320, Note_on_c, 6, 80, 95
4, 220320, Note_on_c, 6, 68, 95
4, 220320, Note_on_c, 6, 63, 95
4, 220560, Note_off_c, 6, 80, 95
4, 220560, Note_off_c, 6, 68, 95
4, 220560, Note_off_c, 6, 63, 95
4, 220560, Note_on_c, 6, 80, 95
4, 220560, Note_on_c, 6, 68, 95
4, 220560, Note_on_c, 6, 63, 95
4, 220800, Note_off_c, 6, 80, 95
4, 220800, Note_off_c, 6, 68, 95
4, 220800, Note_off_c, 6, 63, 95
4, 220800, Note_on_c, 6, 80, 95
4, 220800, Note_on_c, 6, 68, 95
4, 220800, Note_on_c, 6, 63, 95
4, 221040, Note_off_c, 6, 80, 95
4, 221040, Note_off_c, 6, 68, 95
4, 221040, Note_off_c, 6, 63, 95
4, 221040, Note_on_c, 6, 80, 95
4, 221040, Note_on_c, 6, 68, 95
4, 221040, Note_on_c, 6, 63, 95
4, 221280, Note_off_c, 6, 80, 95
4, 221280, Note_off_c, 6, 68, 95
4, 221280, Note_off_c, 6, 63, 95
4, 221280, Note_on_c, 6, 80, 95
4, 221280, Note_on_c, 6, 68, 95
4, 221280, Note_on_c, 6, 63, 95
4, 221520, Note_off_c, 6, 80, 95
4, 221520, Note_off_c, 6, 68, 95
4, 221520, Note_off_c, 6, 63, 95
4, 221520, Note_on_c, 6, 80, 95
4, 221520, Note_on_c, 6, 68, 95
4, 221520, Note_on_c, 6, 63, 95
4, 221760, Note_off_c, 6, 80, 95
4, 221760, Note_off_c, 6, 68, 95
4, 221760, Note_off_c, 6, 63, 95
4, 221760, Note_on_c, 6, 80, 95
4, 221760, Note_on_c, 6, 68, 95
4, 221760, Note_on_c, 6, 63, 95
4, 222000, Note_off_c, 6, 80, 95
4, 222000, Note_off_c, 6, 68, 95
4, 222000, Note_off_c, 6, 63, 95
4, 222000, Note_on_c, 6, 80, 95
4, 222000, Note_on_c, 6, 68, 95
4, 222000, Note_on_c, 6, 63, 95
4, 222240, Note_off_c, 6, 80, 95
4, 222240, Note_off_c, 6, 68, 95
4, 222240, Note_off_c, 6, 63, 95
4, 222240, Note_on_c, 6, 80, 95
4, 222240, Note_on_c, 6, 68, 95
4, 222240, Note_on_c, 6, 63, 95
4, 222480, Note_off_c, 6, 80, 95
4, 222480, Note_off_c, 6, 68, 95
4, 222480, Note_off_c, 6, 63, 95
4, 222480, Note_on_c, 6, 80, 95
4, 222480, Note_on_c, 6, 68, 95
4, 222480, Note_on_c, 6, 63, 95
4, 222720, Note_off_c, 6, 80, 95
4, 222720, Note_off_c, 6, 68, 95
4, 222720, Note_off_c, 6, 63, 95
4, 222720, Note_on_c, 6, 80, 95
4, 222720, Note_on_c, 6, 68, 95
4, 222720, Note_on_c, 6, 63, 95
4, 222960, Note_off_c, 6, 80, 95
4, 222960, Note_off_c, 6, 68, 95
4, 222960, Note_off_c, 6, 63, 95
4, 222960, Note_on_c, 6, 80, 95
4, 222960, Note_on_c, 6, 68, 95
4, 222960, Note_on_c, 6, 63, 95
4, 223200, Note_off_c, 6, 80, 95
4, 223200, Note_off_c, 6, 68, 95
4, 223200, Note_off_c, 6, 63, 95
4, 223200, Note_on_c, 6, 80, 95
4, 223200, Note_on_c, 6, 68, 95
4, 223200, Note_on_c, 6, 63, 95
4, 223440, Note_off_c, 6, 80, 95
4, 223440, Note_off_c, 6, 68, 95
4, 223440, Note_off_c, 6, 63, 95
4, 223440, Note_on_c, 6, 80, 95
4, 223440, Note_on_c, 6, 68, 95
4, 223440, Note_on_c, 6, 63, 95
4, 223680, Note_off_c, 6, 80, 95
4, 223680, Note_off_c, 6, 68, 95
4, 223680, Note_off_c, 6, 63, 95
4, 223680, Note_on_c, 6, 80, 95
4, 223680, Note_on_c, 6, 68, 95
4, 223680, Note_on_c, 6, 63, 95
4, 223920, Note_off_c, 6, 80, 95
4, 223920, Note_off_c, 6, 68, 95
4, 223920, Note_off_c, 6, 63, 95
4, 223920, Note_on_c, 6, 80, 95
4, 223920, Note_on_c, 6, 68, 95
4, 223920, Note_on_c, 6, 63, 95
4, 224160, Note_off_c, 6, 80, 95
4, 224160, Note_off_c, 6, 68, 95
4, 224160, Note_off_c, 6, 63, 95
4, 225120, Note_on_c, 6, 78, 95
4, 225120, Note_on_c, 6, 66, 95
4, 225120, Note_on_c, 6, 61, 95
4, 225360, Note_off_c, 6, 78, 95
4, 225360, Note_off_c, 6, 66, 95
4, 225360, Note_off_c, 6, 61, 95
4, 225360, Note_on_c, 6, 78, 95
4, 225360, Note_on_c, 6, 66, 95
4, 225360, Note_on_c, 6, 61, 95
4, 225600, Note_off_c, 6, 78, 95
4, 225600, Note_off_c, 6, 66, 95
4, 225600, Note_off_c, 6, 61, 95
4, 225600, Note_on_c, 6, 78, 95
4, 225600, Note_on_c, 6, 66, 95
4, 225600, Note_on_c, 6, 61, 95
4, 225840, Note_off_c, 6, 78, 95
4, 225840, Note_off_c, 6, 66, 95
4, 225840, Note_off_c, 6, 61, 95
4, 225840, Note_on_c, 6, 78, 95
4, 225840, Note_on_c, 6, 66, 95
4, 225840, Note_on_c, 6, 61, 95
4, 226080, Note_off_c, 6, 78, 95
4, 226080, Note_off_c, 6, 66, 95
4, 226080, Note_off_c, 6, 61, 95
4, 226080, Note_on_c, 6, 78, 95
4, 226080, Note_on_c, 6, 66, 95
4, 226080, Note_on_c, 6, 61, 95
4, 226320, Note_off_c, 6, 78, 95
4, 226320, Note_off_c, 6, 66, 95
4, 226320, Note_off_c, 6, 61, 95
4, 226320, Note_on_c, 6, 78, 95
4, 226320, Note_on_c, 6, 66, 95
4, 226320, Note_on_c, 6, 61, 95
4, 226560, Note_off_c, 6, 78, 95
4, 226560, Note_off_c, 6, 66, 95
4, 226560, Note_off_c, 6, 61, 95
4, 226560, Note_on_c, 6, 78, 95
4, 226560, Note_on_c, 6, 66, 95
4, 226560, Note_on_c, 6, 61, 95
4, 226800, Note_off_c, 6, 78, 95
4, 226800, Note_off_c, 6, 66, 95
4, 226800, Note_off_c, 6, 61, 95
4, 226800, Note_on_c, 6, 78, 95
4, 226800, Note_on_c, 6, 66, 95
4, 226800, Note_on_c, 6, 61, 95
4, 227040, Note_off_c, 6, 78, 95
4, 227040, Note_off_c, 6, 66, 95
4, 227040, Note_off_c, 6, 61, 95
4, 227040, Note_on_c, 6, 78, 95
4, 227040, Note_on_c, 6, 66, 95
4, 227040, Note_on_c, 6, 61, 95
4, 227280, Note_off_c, 6, 78, 95
4, 227280, Note_off_c, 6, 66, 95
4, 227280, Note_off_c, 6, 61, 95
4, 227280, Note_on_c, 6, 78, 95
4, 227280, Note_on_c, 6, 66, 95
4, 227280, Note_on_c, 6, 61, 95
4, 227520, Note_off_c, 6, 78, 95
4, 227520, Note_off_c, 6, 66, 95
4, 227520, Note_off_c, 6, 61, 95
4, 227520, Note_on_c, 6, 78, 95
4, 227520, Note_on_c, 6, 66, 95
4, 227520, Note_on_c, 6, 61, 95
4, 227760, Note_off_c, 6, 78, 95
4, 227760, Note_off_c, 6, 66, 95
4, 227760, Note_off_c, 6, 61, 95
4, 227760, Note_on_c, 6, 78, 95
4, 227760, Note_on_c, 6, 66, 95
4, 227760, Note_on_c, 6, 61, 95
4, 228000, Note_off_c, 6, 78, 95
4, 228000, Note_off_c, 6, 66, 95
4, 228000, Note_off_c, 6, 61, 95
4, 228000, Note_on_c, 6, 78, 95
4, 228000, Note_on_c, 6, 66, 95
4, 228000, Note_on_c, 6, 61, 95
4, 228240, Note_off_c, 6, 78, 95
4, 228240, Note_off_c, 6, 66, 95
4, 228240, Note_off_c, 6, 61, 95
4, 228240, Note_on_c, 6, 78, 95
4, 228240, Note_on_c, 6, 66, 95
4, 228240, Note_on_c, 6, 61, 95
4, 228480, Note_off_c, 6, 78, 95
4, 228480, Note_off_c, 6, 66, 95
4, 228480, Note_off_c, 6, 61, 95
4, 228480, Note_on_c, 6, 78, 95
4, 228480, Note_on_c, 6, 66, 95
4, 228480, Note_on_c, 6, 61, 95
4, 228720, Note_off_c, 6, 78, 95
4, 228720, Note_off_c, 6, 66, 95
4, 228720, Note_off_c, 6, 61, 95
4, 228720, Note_on_c, 6, 78, 95
4, 228720, Note_on_c, 6, 66, 95
4, 228720, Note_on_c, 6, 61, 95
4, 228960, Note_off_c, 6, 78, 95
4, 228960, Note_off_c, 6, 66, 95
4, 228960, Note_off_c, 6, 61, 95
4, 228960, Note_on_c, 6, 78, 95
4, 228960, Note_on_c, 6, 66, 95
4, 228960, Note_on_c, 6, 61, 95
4, 229200, Note_off_c, 6, 78, 95
4, 229200, Note_off_c, 6, 66, 95
4, 229200, Note_off_c, 6, 61, 95
4, 229200, Note_on_c, 6, 78, 95
4, 229200, Note_on_c, 6, 66, 95
4, 229200, Note_on_c, 6, 61, 95
4, 229440, Note_off_c, 6, 78, 95
4, 229440, Note_off_c, 6, 66, 95
4, 229440, Note_off_c, 6, 61, 95
4, 229440, Note_on_c, 6, 78, 95
4, 229440, Note_on_c, 6, 66, 95
4, 229440, Note_on_c, 6, 61, 95
4, 229680, Note_off_c, 6, 78, 95
4, 229680, Note_off_c, 6, 66, 95
4, 229680, Note_off_c, 6, 61, 95
4, 229680, Note_on_c, 6, 78, 95
4, 229680, Note_on_c, 6, 66, 95
4, 229680, Note_on_c, 6, 61, 95
4, 229920, Note_off_c, 6, 78, 95
4, 229920, Note_off_c, 6, 66, 95
4, 229920, Note_off_c, 6, 61, 95
4, 229920, Note_on_c, 6, 78, 95
4, 229920, Note_on_c, 6, 66, 95
4, 229920, Note_on_c, 6, 61, 95
4, 230160, Note_off_c, 6, 78, 95
4, 230160, Note_off_c, 6, 66, 95
4, 230160, Note_off_c, 6, 61, 95
4, 230160, Note_on_c, 6, 78, 95
4, 230160, Note_on_c, 6, 66, 95
4, 230160, Note_on_c, 6, 61, 95
4, 230400, Note_off_c, 6, 78, 95
4, 230400, Note_off_c, 6, 66, 95
4, 230400, Note_off_c, 6, 61, 95
4, 231360, Note_on_c, 6, 76, 95
4, 231360, Note_on_c, 6, 64, 95
4, 231360, Note_on_c, 6, 59, 95
4, 231600, Note_off_c, 6, 76, 95
4, 231600, Note_off_c, 6, 64, 95
4, 231600, Note_off_c, 6, 59, 95
4, 231600, Note_on_c, 6, 76, 95
4, 231600, Note_on_c, 6, 64, 95
4, 231600, Note_on_c, 6, 59, 95
4, 231840, Note_off_c, 6, 76, 95
4, 231840, Note_off_c, 6, 64, 95
4, 231840, Note_off_c, 6, 59, 95
4, 231840, Note_on_c, 6, 76, 95
4, 231840, Note_on_c, 6, 64, 95
4, 231840, Note_on_c, 6, 59, 95
4, 232080, Note_off_c, 6, 76, 95
4, 232080, Note_off_c, 6, 64, 95
4, 232080, Note_off_c, 6, 59, 95
4, 232080, Note_on_c, 6, 76, 95
4, 232080, Note_on_c, 6, 64, 95
4, 232080, Note_on_c, 6, 59, 95
4, 232320, Note_off_c, 6, 76, 95
4, 232320, Note_off_c, 6, 64, 95
4, 232320, Note_off_c, 6, 59, 95
4, 232320, Note_on_c, 6, 76, 95
4, 232320, Note_on_c, 6, 64, 95
4, 232320, Note_on_c, 6, 59, 95
4, 232560, Note_off_c, 6, 76, 95
4, 232560, Note_off_c, 6, 64, 95
4, 232560, Note_off_c, 6, 59, 95
4, 232560, Note_on_c, 6, 76, 95
4, 232560, Note_on_c, 6, 64, 95
4, 232560, Note_on_c, 6, 59, 95
4, 232800, Note_off_c, 6, 76, 95
4, 232800, Note_off_c, 6, 64, 95
4, 232800, Note_off_c, 6, 59, 95
4, 232800, Note_on_c, 6, 76, 95
4, 232800, Note_on_c, 6, 64, 95
4, 232800, Note_on_c, 6, 59, 95
4, 233040, Note_off_c, 6, 76, 95
4, 233040, Note_off_c, 6, 64, 95
4, 233040, Note_off_c, 6, 59, 95
4, 233040, Note_on_c, 6, 76, 95
4, 233040, Note_on_c, 6, 64, 95
4, 233040, Note_on_c, 6, 59, 95
4, 233280, Note_off_c, 6, 76, 95
4, 233280, Note_off_c, 6, 64, 95
4, 233280, Note_off_c, 6, 59, 95
4, 233280, Note_on_c, 6, 76, 95
4, 233280, Note_on_c, 6, 64, 95
4, 233280, Note_on_c, 6, 59, 95
4, 233520, Note_off_c, 6, 76, 95
4, 233520, Note_off_c, 6, 64, 95
4, 233520, Note_off_c, 6, 59, 95
4, 233520, Note_on_c, 6, 76, 95
4, 233520, Note_on_c, 6, 64, 95
4, 233520, Note_on_c, 6, 59, 95
4, 233760, Note_off_c, 6, 76, 95
4, 233760, Note_off_c, 6, 64, 95
4, 233760, Note_off_c, 6, 59, 95
4, 233760, Note_on_c, 6, 76, 95
4, 233760, Note_on_c, 6, 64, 95
4, 233760, Note_on_c, 6, 59, 95
4, 234000, Note_off_c, 6, 76, 95
4, 234000, Note_off_c, 6, 64, 95
4, 234000, Note_off_c, 6, 59, 95
4, 234000, Note_on_c, 6, 76, 95
4, 234000, Note_on_c, 6, 64, 95
4, 234000, Note_on_c, 6, 59, 95
4, 234240, Note_off_c, 6, 76, 95
4, 234240, Note_off_c, 6, 64, 95
4, 234240, Note_off_c, 6, 59, 95
4, 234240, Note_on_c, 6, 76, 95
4, 234240, Note_on_c, 6, 64, 95
4, 234240, Note_on_c, 6, 59, 95
4, 234480, Note_off_c, 6, 76, 95
4, 234480, Note_off_c, 6, 64, 95
4, 234480, Note_off_c, 6, 59, 95
4, 234480, Note_on_c, 6, 76, 95
4, 234480, Note_on_c, 6, 64, 95
4, 234480, Note_on_c, 6, 59, 95
4, 234720, Note_off_c, 6, 76, 95
4, 234720, Note_off_c, 6, 64, 95
4, 234720, Note_off_c, 6, 59, 95
4, 234720, Note_on_c, 6, 76, 95
4, 234720, Note_on_c, 6, 64, 95
4, 234720, Note_on_c, 6, 59, 95
4, 234960, Note_off_c, 6, 76, 95
4, 234960, Note_off_c, 6, 64, 95
4, 234960, Note_off_c, 6, 59, 95
4, 234960, Note_on_c, 6, 76, 95
4, 234960, Note_on_c, 6, 64, 95
4, 234960, Note_on_c, 6, 59, 95
4, 235200, Note_off_c, 6, 76, 95
4, 235200, Note_off_c, 6, 64, 95
4, 235200, Note_off_c, 6, 59, 95
4, 235200, Note_on_c, 6, 76, 95
4, 235200, Note_on_c, 6, 64, 95
4, 235200, Note_on_c, 6, 59, 95
4, 235440, Note_off_c, 6, 76, 95
4, 235440, Note_off_c, 6, 64, 95
4, 235440, Note_off_c, 6, 59, 95
4, 235440, Note_on_c, 6, 76, 95
4, 235440, Note_on_c, 6, 64, 95
4, 235440, Note_on_c, 6, 59, 95
4, 235680, Note_off_c, 6, 76, 95
4, 235680, Note_off_c, 6, 64, 95
4, 235680, Note_off_c, 6, 59, 95
4, 235680, Note_on_c, 6, 76, 95
4, 235680, Note_on_c, 6, 64, 95
4, 235680, Note_on_c, 6, 59, 95
4, 235920, Note_off_c, 6, 76, 95
4, 235920, Note_off_c, 6, 64, 95
4, 235920, Note_off_c, 6, 59, 95
4, 235920, Note_on_c, 6, 76, 95
4, 235920, Note_on_c, 6, 64, 95
4, 235920, Note_on_c, 6, 59, 95
4, 236160, Note_off_c, 6, 76, 95
4, 236160, Note_off_c, 6, 64, 95
4, 236160, Note_off_c, 6, 59, 95
4, 236160, Note_on_c, 6, 76, 95
4, 236160, Note_on_c, 6, 64, 95
4, 236160, Note_on_c, 6, 59, 95
4, 236400, Note_off_c, 6, 76, 95
4, 236400, Note_off_c, 6, 64, 95
4, 236400, Note_off_c, 6, 59, 95
4, 236400, Note_on_c, 6, 76, 95
4, 236400, Note_on_c, 6, 64, 95
4, 236400, Note_on_c, 6, 59, 95
4, 236640, Note_off_c, 6, 76, 95
4, 236640, Note_off_c, 6, 64, 95
4, 236640, Note_off_c, 6, 59, 95
4, 236640, Note_on_c, 6, 76, 95
4, 236640, Note_on_c, 6, 64, 95
4, 236640, Note_on_c, 6, 59, 95
4, 236880, Note_off_c, 6, 76, 95
4, 236880, Note_off_c, 6, 64, 95
4, 236880, Note_off_c, 6, 59, 95
4, 236880, Note_on_c, 6, 76, 95
4, 236880, Note_on_c, 6, 64, 95
4, 236880, Note_on_c, 6, 59, 95
4, 237120, Note_off_c, 6, 76, 95
4, 237120, Note_off_c, 6, 64, 95
4, 237120, Note_off_c, 6, 59, 95
4, 237120, Note_on_c, 6, 76, 95
4, 237120, Note_on_c, 6, 64, 95
4, 237120, Note_on_c, 6, 59, 95
4, 237360, Note_off_c, 6, 76, 95
4, 237360, Note_off_c, 6, 64, 95
4, 237360, Note_off_c, 6, 59, 95
4, 237360, Note_on_c, 6, 76, 95
4, 237360, Note_on_c, 6, 64, 95
4, 237360, Note_on_c, 6, 59, 95
4, 237600, Note_off_c, 6, 76, 95
4, 237600, Note_off_c, 6, 64, 95
4, 237600, Note_off_c, 6, 59, 95
4, 237600, Note_on_c, 6, 76, 95
4, 237600, Note_on_c, 6, 64, 95
4, 237600, Note_on_c, 6, 59, 95
4, 237840, Note_off_c, 6, 76, 95
4, 237840, Note_off_c, 6, 64, 95
4, 237840, Note_off_c, 6, 59, 95
4, 237840, Note_on_c, 6, 76, 95
4, 237840, Note_on_c, 6, 64, 95
4, 237840, Note_on_c, 6, 59, 95
4, 238080, Note_off_c, 6, 76, 95
4, 238080, Note_off_c, 6, 64, 95
4, 238080, Note_off_c, 6, 59, 95
4, 239040, Note_on_c, 6, 78, 95
4, 239040, Note_on_c, 6, 66, 95
4, 239040, Note_on_c, 6, 61, 95
4, 239280, Note_off_c, 6, 78, 95
4, 239280, Note_off_c, 6, 66, 95
4, 239280, Note_off_c, 6, 61, 95
4, 239280, Note_on_c, 6, 78, 95
4, 239280, Note_on_c, 6, 66, 95
4, 239280, Note_on_c, 6, 61, 95
4, 239520, Note_off_c, 6, 78, 95
4, 239520, Note_off_c, 6, 66, 95
4, 239520, Note_off_c, 6, 61, 95
4, 239520, Note_on_c, 6, 78, 95
4, 239520, Note_on_c, 6, 66, 95
4, 239520, Note_on_c, 6, 61, 95
4, 239760, Note_off_c, 6, 78, 95
4, 239760, Note_off_c, 6, 66, 95
4, 239760, Note_off_c, 6, 61, 95
4, 239760, Note_on_c, 6, 78, 95
4, 239760, Note_on_c, 6, 66, 95
4, 239760, Note_on_c, 6, 61, 95
4, 240000, Note_off_c, 6, 78, 95
4, 240000, Note_off_c, 6, 66, 95
4, 240000, Note_off_c, 6, 61, 95
4, 240000, Note_on_c, 6, 78, 95
4, 240000, Note_on_c, 6, 66, 95
4, 240000, Note_on_c, 6, 61, 95
4, 240240, Note_off_c, 6, 78, 95
4, 240240, Note_off_c, 6, 66, 95
4, 240240, Note_off_c, 6, 61, 95
4, 240240, Note_on_c, 6, 78, 95
4, 240240, Note_on_c, 6, 66, 95
4, 240240, Note_on_c, 6, 61, 95
4, 240480, Note_off_c, 6, 78, 95
4, 240480, Note_off_c, 6, 66, 95
4, 240480, Note_off_c, 6, 61, 95
4, 240480, Note_on_c, 6, 78, 95
4, 240480, Note_on_c, 6, 66, 95
4, 240480, Note_on_c, 6, 61, 95
4, 240720, Note_off_c, 6, 78, 95
4, 240720, Note_off_c, 6, 66, 95
4, 240720, Note_off_c, 6, 61, 95
4, 240720, Note_on_c, 6, 78, 95
4, 240720, Note_on_c, 6, 66, 95
4, 240720, Note_on_c, 6, 61, 95
4, 240960, Note_off_c, 6, 78, 95
4, 240960, Note_off_c, 6, 66, 95
4, 240960, Note_off_c, 6, 61, 95
4, 240960, Note_on_c, 6, 78, 95
4, 240960, Note_on_c, 6, 66, 95
4, 240960, Note_on_c, 6, 61, 95
4, 241200, Note_off_c, 6, 78, 95
4, 241200, Note_off_c, 6, 66, 95
4, 241200, Note_off_c, 6, 61, 95
4, 241200, Note_on_c, 6, 78, 95
4, 241200, Note_on_c, 6, 66, 95
4, 241200, Note_on_c, 6, 61, 95
4, 241440, Note_off_c, 6, 78, 95
4, 241440, Note_off_c, 6, 66, 95
4, 241440, Note_off_c, 6, 61, 95
4, 241440, Note_on_c, 6, 78, 95
4, 241440, Note_on_c, 6, 66, 95
4, 241440, Note_on_c, 6, 61, 95
4, 241680, Note_off_c, 6, 78, 95
4, 241680, Note_off_c, 6, 66, 95
4, 241680, Note_off_c, 6, 61, 95
4, 241680, Note_on_c, 6, 78, 95
4, 241680, Note_on_c, 6, 66, 95
4, 241680, Note_on_c, 6, 61, 95
4, 241920, Note_off_c, 6, 78, 95
4, 241920, Note_off_c, 6, 66, 95
4, 241920, Note_off_c, 6, 61, 95
4, 241920, Note_on_c, 6, 78, 95
4, 241920, Note_on_c, 6, 66, 95
4, 241920, Note_on_c, 6, 61, 95
4, 242160, Note_off_c, 6, 78, 95
4, 242160, Note_off_c, 6, 66, 95
4, 242160, Note_off_c, 6, 61, 95
4, 242160, Note_on_c, 6, 78, 95
4, 242160, Note_on_c, 6, 66, 95
4, 242160, Note_on_c, 6, 61, 95
4, 242400, Note_off_c, 6, 78, 95
4, 242400, Note_off_c, 6, 66, 95
4, 242400, Note_off_c, 6, 61, 95
4, 242400, Note_on_c, 6, 78, 95
4, 242400, Note_on_c, 6, 66, 95
4, 242400, Note_on_c, 6, 61, 95
4, 242640, Note_off_c, 6, 78, 95
4, 242640, Note_off_c, 6, 66, 95
4, 242640, Note_off_c, 6, 61, 95
4, 242640, Note_on_c, 6, 78, 95
4, 242640, Note_on_c, 6, 66, 95
4, 242640, Note_on_c, 6, 61, 95
4, 242880, Note_off_c, 6, 78, 95
4, 242880, Note_off_c, 6, 66, 95
4, 242880, Note_off_c, 6, 61, 95
4, 242880, Note_on_c, 6, 78, 95
4, 242880, Note_on_c, 6, 66, 95
4, 242880, Note_on_c, 6, 61, 95
4, 243120, Note_off_c, 6, 78, 95
4, 243120, Note_off_c, 6, 66, 95
4, 243120, Note_off_c, 6, 61, 95
4, 243120, Note_on_c, 6, 78, 95
4, 243120, Note_on_c, 6, 66, 95
4, 243120, Note_on_c, 6, 61, 95
4, 243360, Note_off_c, 6, 78, 95
4, 243360, Note_off_c, 6, 66, 95
4, 243360, Note_off_c, 6, 61, 95
4, 243360, Note_on_c, 6, 78, 95
4, 243360, Note_on_c, 6, 66, 95
4, 243360, Note_on_c, 6, 61, 95
4, 243600, Note_off_c, 6, 78, 95
4, 243600, Note_off_c, 6, 66, 95
4, 243600, Note_off_c, 6, 61, 95
4, 243600, Note_on_c, 6, 78, 95
4, 243600, Note_on_c, 6, 66, 95
4, 243600, Note_on_c, 6, 61, 95
4, 243840, Note_off_c, 6, 78, 95
4, 243840, Note_off_c, 6, 66, 95
4, 243840, Note_off_c, 6, 61, 95
4, 243840, Note_on_c, 6, 78, 95
4, 243840, Note_on_c, 6, 66, 95
4, 243840, Note_on_c, 6, 61, 95
4, 244080, Note_off_c, 6, 78, 95
4, 244080, Note_off_c, 6, 66, 95
4, 244080, Note_off_c, 6, 61, 95
4, 244080, Note_on_c, 6, 78, 95
4, 244080, Note_on_c, 6, 66, 95
4, 244080, Note_on_c, 6, 61, 95
4, 244320, Note_off_c, 6, 78, 95
4, 244320, Note_off_c, 6, 66, 95
4, 244320, Note_off_c, 6, 61, 95
4, 244320, Note_on_c, 6, 75, 95
4, 244320, Note_on_c, 6, 63, 95
4, 244320, Note_on_c, 6, 51, 95
4, 244560, Note_off_c, 6, 75, 95
4, 244560, Note_off_c, 6, 63, 95
4, 244560, Note_off_c, 6, 51, 95
4, 244560, Note_on_c, 6, 75, 95
4, 244560, Note_on_c, 6, 63, 95
4, 244560, Note_on_c, 6, 51, 95
4, 244800, Note_off_c, 6, 75, 95
4, 244800, Note_off_c, 6, 63, 95
4, 244800, Note_off_c, 6, 51, 95
4, 244800, Note_on_c, 6, 75, 95
4, 244800, Note_on_c, 6, 63, 95
4, 244800, Note_on_c, 6, 51, 95
4, 245040, Note_off_c, 6, 75, 95
4, 245040, Note_off_c, 6, 63, 95
4, 245040, Note_off_c, 6, 51, 95
4, 245040, Note_on_c, 6, 75, 95
4, 245040, Note_on_c, 6, 63, 95
4, 245040, Note_on_c, 6, 51, 95
4, 245280, Note_off_c, 6, 75, 95
4, 245280, Note_off_c, 6, 63, 95
4, 245280, Note_off_c, 6, 51, 95
4, 245280, Note_on_c, 6, 75, 95
4, 245280, Note_on_c, 6, 63, 95
4, 245280, Note_on_c, 6, 51, 95
4, 245520, Note_off_c, 6, 75, 95
4, 245520, Note_off_c, 6, 63, 95
4, 245520, Note_off_c, 6, 51, 95
4, 245520, Note_on_c, 6, 75, 95
4, 245520, Note_on_c, 6, 63, 95
4, 245520, Note_on_c, 6, 51, 95
4, 245760, Note_off_c, 6, 75, 95
4, 245760, Note_off_c, 6, 63, 95
4, 245760, Note_off_c, 6, 51, 95
4, 245760, Note_on_c, 6, 75, 95
4, 245760, Note_on_c, 6, 63, 95
4, 245760, Note_on_c, 6, 51, 95
4, 246000, Note_off_c, 6, 75, 95
4, 246000, Note_off_c, 6, 63, 95
4, 246000, Note_off_c, 6, 51, 95
4, 246000, Note_on_c, 6, 75, 95
4, 246000, Note_on_c, 6, 63, 95
4, 246000, Note_on_c, 6, 51, 95
4, 246240, Note_off_c, 6, 75, 95
4, 246240, Note_off_c, 6, 63, 95
4, 246240, Note_off_c, 6, 51, 95
4, 246240, Note_on_c, 6, 75, 95
4, 246240, Note_on_c, 6, 63, 95
4, 246240, Note_on_c, 6, 51, 95
4, 246480, Note_off_c, 6, 75, 95
4, 246480, Note_off_c, 6, 63, 95
4, 246480, Note_off_c, 6, 51, 95
4, 246480, Note_on_c, 6, 75, 95
4, 246480, Note_on_c, 6, 63, 95
4, 246480, Note_on_c, 6, 51, 95
4, 246720, Note_off_c, 6, 75, 95
4, 246720, Note_off_c, 6, 63, 95
4, 246720, Note_off_c, 6, 51, 95
4, 246720, Note_on_c, 6, 75, 95
4, 246720, Note_on_c, 6, 63, 95
4, 246720, Note_on_c, 6, 51, 95
4, 246960, Note_off_c, 6, 75, 95
4, 246960, Note_off_c, 6, 63, 95
4, 246960, Note_off_c, 6, 51, 95
4, 246960, Note_on_c, 6, 75, 95
4, 246960, Note_on_c, 6, 63, 95
4, 246960, Note_on_c, 6, 51, 95
4, 247200, Note_off_c, 6, 75, 95
4, 247200, Note_off_c, 6, 63, 95
4, 247200, Note_off_c, 6, 51, 95
4, 247200, Note_on_c, 6, 75, 95
4, 247200, Note_on_c, 6, 63, 95
4, 247200, Note_on_c, 6, 51, 95
4, 247440, Note_off_c, 6, 75, 95
4, 247440, Note_off_c, 6, 63, 95
4, 247440, Note_off_c, 6, 51, 95
4, 247440, Note_on_c, 6, 75, 95
4, 247440, Note_on_c, 6, 63, 95
4, 247440, Note_on_c, 6, 51, 95
4, 247680, Note_off_c, 6, 75, 95
4, 247680, Note_off_c, 6, 63, 95
4, 247680, Note_off_c, 6, 51, 95
4, 247680, Note_on_c, 6, 75, 95
4, 247680, Note_on_c, 6, 63, 95
4, 247680, Note_on_c, 6, 51, 95
4, 247920, Note_off_c, 6, 75, 95
4, 247920, Note_off_c, 6, 63, 95
4, 247920, Note_off_c, 6, 51, 95
4, 247920, Note_on_c, 6, 75, 95
4, 247920, Note_on_c, 6, 63, 95
4, 247920, Note_on_c, 6, 51, 95
4, 248160, Note_off_c, 6, 75, 95
4, 248160, Note_off_c, 6, 63, 95
4, 248160, Note_off_c, 6, 51, 95
4, 248160, Note_on_c, 6, 75, 95
4, 248160, Note_on_c, 6, 63, 95
4, 248160, Note_on_c, 6, 51, 95
4, 248400, Note_off_c, 6, 75, 95
4, 248400, Note_off_c, 6, 63, 95
4, 248400, Note_off_c, 6, 51, 95
4, 248400, Note_on_c, 6, 75, 95
4, 248400, Note_on_c, 6, 63, 95
4, 248400, Note_on_c, 6, 51, 95
4, 248640, Note_off_c, 6, 75, 95
4, 248640, Note_off_c, 6, 63, 95
4, 248640, Note_off_c, 6, 51, 95
4, 248640, Note_on_c, 6, 75, 95
4, 248640, Note_on_c, 6, 63, 95
4, 248640, Note_on_c, 6, 51, 95
4, 248880, Note_off_c, 6, 75, 95
4, 248880, Note_off_c, 6, 63, 95
4, 248880, Note_off_c, 6, 51, 95
4, 248880, Note_on_c, 6, 75, 95
4, 248880, Note_on_c, 6, 63, 95
4, 248880, Note_on_c, 6, 51, 95
4, 249120, Note_off_c, 6, 75, 95
4, 249120, Note_off_c, 6, 63, 95
4, 249120, Note_off_c, 6, 51, 95
4, 249120, Note_on_c, 6, 75, 95
4, 249120, Note_on_c, 6, 63, 95
4, 249120, Note_on_c, 6, 51, 95
4, 249360, Note_off_c, 6, 75, 95
4, 249360, Note_off_c, 6, 63, 95
4, 249360, Note_off_c, 6, 51, 95
4, 249360, Note_on_c, 6, 75, 95
4, 249360, Note_on_c, 6, 63, 95
4, 249360, Note_on_c, 6, 51, 95
4, 249600, Note_off_c, 6, 75, 95
4, 249600, Note_off_c, 6, 63, 95
4, 249600, Note_off_c, 6, 51, 95
4, 249600, Note_on_c, 6, 75, 95
4, 249600, Note_on_c, 6, 63, 95
4, 249600, Note_on_c, 6, 51, 95
4, 249840, Note_off_c, 6, 75, 95
4, 249840, Note_off_c, 6, 63, 95
4, 249840, Note_off_c, 6, 51, 95
4, 249840, Note_on_c, 6, 75, 95
4, 249840, Note_on_c, 6, 63, 95
4, 249840, Note_on_c, 6, 51, 95
4, 250080, Note_off_c, 6, 75, 95
4, 250080, Note_off_c, 6, 63, 95
4, 250080, Note_off_c, 6, 51, 95
4, 250080, Note_on_c, 6, 75, 95
4, 250080, Note_on_c, 6, 63, 95
4, 250080, Note_on_c, 6, 51, 95
4, 250320, Note_off_c, 6, 75, 95
4, 250320, Note_off_c, 6, 63, 95
4, 250320, Note_off_c, 6, 51, 95
4, 250320, Note_on_c, 6, 75, 95
4, 250320, Note_on_c, 6, 63, 95
4, 250320, Note_on_c, 6, 51, 95
4, 250560, Note_off_c, 6, 75, 95
4, 250560, Note_off_c, 6, 63, 95
4, 250560, Note_off_c, 6, 51, 95
4, 250560, Note_on_c, 6, 75, 95
4, 250560, Note_on_c, 6, 63, 95
4, 250560, Note_on_c, 6, 51, 95
4, 250800, Note_off_c, 6, 75, 95
4, 250800, Note_off_c, 6, 63, 95
4, 250800, Note_off_c, 6, 51, 95
4, 250800, Note_on_c, 6, 75, 95
4, 250800, Note_on_c, 6, 63, 95
4, 250800, Note_on_c, 6, 51, 95
4, 251040, Note_off_c, 6, 75, 95
4, 251040, Note_off_c, 6, 63, 95
4, 251040, Note_off_c, 6, 51, 95
4, 251040, Note_on_c, 6, 75, 95
4, 251040, Note_on_c, 6, 63, 95
4, 251040, Note_on_c, 6, 51, 95
4, 251280, Note_off_c, 6, 75, 95
4, 251280, Note_off_c, 6, 63, 95
4, 251280, Note_off_c, 6, 51, 95
4, 251280, Note_on_c, 6, 75, 95
4, 251280, Note_on_c, 6, 63, 95
4, 251280, Note_on_c, 6, 51, 95
4, 251520, Note_off_c, 6, 75, 95
4, 251520, Note_off_c, 6, 63, 95
4, 251520, Note_off_c, 6, 51, 95
4, 251520, Note_on_c, 6, 75, 95
4, 251520, Note_on_c, 6, 63, 95
4, 251520, Note_on_c, 6, 51, 95
4, 251760, Note_off_c, 6, 75, 95
4, 251760, Note_off_c, 6, 63, 95
4, 251760, Note_off_c, 6, 51, 95
4, 251760, Note_on_c, 6, 75, 95
4, 251760, Note_on_c, 6, 63, 95
4, 251760, Note_on_c, 6, 51, 95
4, 252000, Note_off_c, 6, 75, 95
4, 252000, Note_off_c, 6, 63, 95
4, 252000, Note_off_c, 6, 51, 95
4, 252000, Note_on_c, 6, 78, 95
4, 252000, Note_on_c, 6, 66, 95
4, 252000, Note_on_c, 6, 61, 95
4, 252240, Note_off_c, 6, 78, 95
4, 252240, Note_off_c, 6, 66, 95
4, 252240, Note_off_c, 6, 61, 95
4, 252240, Note_on_c, 6, 78, 95
4, 252240, Note_on_c, 6, 66, 95
4, 252240, Note_on_c, 6, 61, 95
4, 252480, Note_off_c, 6, 78, 95
4, 252480, Note_off_c, 6, 66, 95
4, 252480, Note_off_c, 6, 61, 95
4, 252480, Note_on_c, 6, 78, 95
4, 252480, Note_on_c, 6, 66, 95
4, 252480, Note_on_c, 6, 61, 95
4, 252720, Note_off_c, 6, 78, 95
4, 252720, Note_off_c, 6, 66, 95
4, 252720, Note_off_c, 6, 61, 95
4, 252720, Note_on_c, 6, 78, 95
4, 252720, Note_on_c, 6, 66, 95
4, 252720, Note_on_c, 6, 61, 95
4, 252960, Note_off_c, 6, 78, 95
4, 252960, Note_off_c, 6, 66, 95
4, 252960, Note_off_c, 6, 61, 95
4, 252960, Note_on_c, 6, 78, 95
4, 252960, Note_on_c, 6, 66, 95
4, 252960, Note_on_c, 6, 61, 95
4, 253200, Note_off_c, 6, 78, 95
4, 253200, Note_off_c, 6, 66, 95
4, 253200, Note_off_c, 6, 61, 95
4, 253200, Note_on_c, 6, 78, 95
4, 253200, Note_on_c, 6, 66, 95
4, 253200, Note_on_c, 6, 61, 95
4, 253440, Note_off_c, 6, 78, 95
4, 253440, Note_off_c, 6, 66, 95
4, 253440, Note_off_c, 6, 61, 95
4, 253440, Note_on_c, 6, 78, 95
4, 253440, Note_on_c, 6, 66, 95
4, 253440, Note_on_c, 6, 61, 95
4, 253680, Note_off_c, 6, 78, 95
4, 253680, Note_off_c, 6, 66, 95
4, 253680, Note_off_c, 6, 61, 95
4, 253680, Note_on_c, 6, 78, 95
4, 253680, Note_on_c, 6, 66, 95
4, 253680, Note_on_c, 6, 61, 95
4, 253920, Note_off_c, 6, 78, 95
4, 253920, Note_off_c, 6, 66, 95
4, 253920, Note_off_c, 6, 61, 95
4, 253920, Note_on_c, 6, 78, 95
4, 253920, Note_on_c, 6, 66, 95
4, 253920, Note_on_c, 6, 61, 95
4, 254160, Note_off_c, 6, 78, 95
4, 254160, Note_off_c, 6, 66, 95
4, 254160, Note_off_c, 6, 61, 95
4, 254160, Note_on_c, 6, 78, 95
4, 254160, Note_on_c, 6, 66, 95
4, 254160, Note_on_c, 6, 61, 95
4, 254400, Note_off_c, 6, 78, 95
4, 254400, Note_off_c, 6, 66, 95
4, 254400, Note_off_c, 6, 61, 95
4, 254400, Note_on_c, 6, 78, 95
4, 254400, Note_on_c, 6, 66, 95
4, 254400, Note_on_c, 6, 61, 95
4, 254640, Note_off_c, 6, 78, 95
4, 254640, Note_off_c, 6, 66, 95
4, 254640, Note_off_c, 6, 61, 95
4, 254640, Note_on_c, 6, 78, 95
4, 254640, Note_on_c, 6, 66, 95
4, 254640, Note_on_c, 6, 61, 95
4, 254880, Note_off_c, 6, 78, 95
4, 254880, Note_off_c, 6, 66, 95
4, 254880, Note_off_c, 6, 61, 95
4, 254880, Note_on_c, 6, 78, 95
4, 254880, Note_on_c, 6, 66, 95
4, 254880, Note_on_c, 6, 61, 95
4, 255120, Note_off_c, 6, 78, 95
4, 255120, Note_off_c, 6, 66, 95
4, 255120, Note_off_c, 6, 61, 95
4, 255120, Note_on_c, 6, 78, 95
4, 255120, Note_on_c, 6, 66, 95
4, 255120, Note_on_c, 6, 61, 95
4, 255360, Note_off_c, 6, 78, 95
4, 255360, Note_off_c, 6, 66, 95
4, 255360, Note_off_c, 6, 61, 95
4, 255360, Note_on_c, 6, 78, 95
4, 255360, Note_on_c, 6, 66, 95
4, 255360, Note_on_c, 6, 61, 95
4, 255600, Note_off_c, 6, 78, 95
4, 255600, Note_off_c, 6, 66, 95
4, 255600, Note_off_c, 6, 61, 95
4, 255600, Note_on_c, 6, 78, 95
4, 255600, Note_on_c, 6, 66, 95
4, 255600, Note_on_c, 6, 61, 95
4, 255840, Note_off_c, 6, 78, 95
4, 255840, Note_off_c, 6, 66, 95
4, 255840, Note_off_c, 6, 61, 95
4, 255840, Note_on_c, 6, 78, 95
4, 255840, Note_on_c, 6, 66, 95
4, 255840, Note_on_c, 6, 61, 95
4, 256080, Note_off_c, 6, 78, 95
4, 256080, Note_off_c, 6, 66, 95
4, 256080, Note_off_c, 6, 61, 95
4, 256080, Note_on_c, 6, 78, 95
4, 256080, Note_on_c, 6, 66, 95
4, 256080, Note_on_c, 6, 61, 95
4, 256320, Note_off_c, 6, 78, 95
4, 256320, Note_off_c, 6, 66, 95
4, 256320, Note_off_c, 6, 61, 95
4, 256320, Note_on_c, 6, 78, 95
4, 256320, Note_on_c, 6, 66, 95
4, 256320, Note_on_c, 6, 61, 95
4, 256560, Note_off_c, 6, 78, 95
4, 256560, Note_off_c, 6, 66, 95
4, 256560, Note_off_c, 6, 61, 95
4, 256560, Note_on_c, 6, 78, 95
4, 256560, Note_on_c, 6, 66, 95
4, 256560, Note_on_c, 6, 61, 95
4, 256800, Note_off_c, 6, 78, 95
4, 256800, Note_off_c, 6, 66, 95
4, 256800, Note_off_c, 6, 61, 95
4, 256800, Note_on_c, 6, 78, 95
4, 256800, Note_on_c, 6, 66, 95
4, 256800, Note_on_c, 6, 61, 95
4, 257040, Note_off_c, 6, 78, 95
4, 257040, Note_off_c, 6, 66, 95
4, 257040, Note_off_c, 6, 61, 95
4, 257040, Note_on_c, 6, 78, 95
4, 257040, Note_on_c, 6, 66, 95
4, 257040, Note_on_c, 6, 61, 95
4, 257280, Note_off_c, 6, 78, 95
4, 257280, Note_off_c, 6, 66, 95
4, 257280, Note_off_c, 6, 61, 95
4, 257280, Note_on_c, 6, 78, 95
4, 257280, Note_on_c, 6, 66, 95
4, 257280, Note_on_c, 6, 61, 95
4, 257520, Note_off_c, 6, 78, 95
4, 257520, Note_off_c, 6, 66, 95
4, 257520, Note_off_c, 6, 61, 95
4, 257520, Note_on_c, 6, 78, 95
4, 257520, Note_on_c, 6, 66, 95
4, 257520, Note_on_c, 6, 61, 95
4, 257760, Note_off_c, 6, 78, 95
4, 257760, Note_off_c, 6, 66, 95
4, 257760, Note_off_c, 6, 61, 95
4, 257760, Note_on_c, 6, 78, 95
4, 257760, Note_on_c, 6, 66, 95
4, 257760, Note_on_c, 6, 61, 95
4, 258000, Note_off_c, 6, 78, 95
4, 258000, Note_off_c, 6, 66, 95
4, 258000, Note_off_c, 6, 61, 95
4, 258000, Note_on_c, 6, 78, 95
4, 258000, Note_on_c, 6, 66, 95
4, 258000, Note_on_c, 6, 61, 95
4, 258240, Note_off_c, 6, 78, 95
4, 258240, Note_off_c, 6, 66, 95
4, 258240, Note_off_c, 6, 61, 95
4, 258240, Note_on_c, 6, 76, 95
4, 258240, Note_on_c, 6, 64, 95
4, 258240, Note_on_c, 6, 59, 95
4, 258480, Note_off_c, 6, 76, 95
4, 258480, Note_off_c, 6, 64, 95
4, 258480, Note_off_c, 6, 59, 95
4, 258480, Note_on_c, 6, 76, 95
4, 258480, Note_on_c, 6, 64, 95
4, 258480, Note_on_c, 6, 59, 95
4, 258720, Note_off_c, 6, 76, 95
4, 258720, Note_off_c, 6, 64, 95
4, 258720, Note_off_c, 6, 59, 95
4, 258720, Note_on_c, 6, 76, 95
4, 258720, Note_on_c, 6, 64, 95
4, 258720, Note_on_c, 6, 59, 95
4, 258960, Note_off_c, 6, 76, 95
4, 258960, Note_off_c, 6, 64, 95
4, 258960, Note_off_c, 6, 59, 95
4, 258960, Note_on_c, 6, 76, 95
4, 258960, Note_on_c, 6, 64, 95
4, 258960, Note_on_c, 6, 59, 95
4, 259200, Note_off_c, 6, 76, 95
4, 259200, Note_off_c, 6, 64, 95
4, 259200, Note_off_c, 6, 59, 95
4, 259200, Note_on_c, 6, 76, 95
4, 259200, Note_on_c, 6, 64, 95
4, 259200, Note_on_c, 6, 59, 95
4, 259440, Note_off_c, 6, 76, 95
4, 259440, Note_off_c, 6, 64, 95
4, 259440, Note_off_c, 6, 59, 95
4, 259440, Note_on_c, 6, 76, 95
4, 259440, Note_on_c, 6, 64, 95
4, 259440, Note_on_c, 6, 59, 95
4, 259680, Note_off_c, 6, 76, 95
4, 259680, Note_off_c, 6, 64, 95
4, 259680, Note_off_c, 6, 59, 95
4, 259680, Note_on_c, 6, 76, 95
4, 259680, Note_on_c, 6, 64, 95
4, 259680, Note_on_c, 6, 59, 95
4, 259920, Note_off_c, 6, 76, 95
4, 259920, Note_off_c, 6, 64, 95
4, 259920, Note_off_c, 6, 59, 95
4, 259920, Note_on_c, 6, 76, 95
4, 259920, Note_on_c, 6, 64, 95
4, 259920, Note_on_c, 6, 59, 95
4, 260160, Note_off_c, 6, 76, 95
4, 260160, Note_off_c, 6, 64, 95
4, 260160, Note_off_c, 6, 59, 95
4, 260160, Note_on_c, 6, 76, 95
4, 260160, Note_on_c, 6, 64, 95
4, 260160, Note_on_c, 6, 59, 95
4, 260400, Note_off_c, 6, 76, 95
4, 260400, Note_off_c, 6, 64, 95
4, 260400, Note_off_c, 6, 59, 95
4, 260400, Note_on_c, 6, 76, 95
4, 260400, Note_on_c, 6, 64, 95
4, 260400, Note_on_c, 6, 59, 95
4, 260640, Note_off_c, 6, 76, 95
4, 260640, Note_off_c, 6, 64, 95
4, 260640, Note_off_c, 6, 59, 95
4, 260640, Note_on_c, 6, 76, 95
4, 260640, Note_on_c, 6, 64, 95
4, 260640, Note_on_c, 6, 59, 95
4, 260880, Note_off_c, 6, 76, 95
4, 260880, Note_off_c, 6, 64, 95
4, 260880, Note_off_c, 6, 59, 95
4, 260880, Note_on_c, 6, 76, 95
4, 260880, Note_on_c, 6, 64, 95
4, 260880, Note_on_c, 6, 59, 95
4, 261120, Note_off_c, 6, 76, 95
4, 261120, Note_off_c, 6, 64, 95
4, 261120, Note_off_c, 6, 59, 95
4, 261120, Note_on_c, 6, 76, 95
4, 261120, Note_on_c, 6, 64, 95
4, 261120, Note_on_c, 6, 59, 95
4, 261360, Note_off_c, 6, 76, 95
4, 261360, Note_off_c, 6, 64, 95
4, 261360, Note_off_c, 6, 59, 95
4, 261360, Note_on_c, 6, 76, 95
4, 261360, Note_on_c, 6, 64, 95
4, 261360, Note_on_c, 6, 59, 95
4, 261600, Note_off_c, 6, 76, 95
4, 261600, Note_off_c, 6, 64, 95
4, 261600, Note_off_c, 6, 59, 95
4, 261600, Note_on_c, 6, 76, 95
4, 261600, Note_on_c, 6, 64, 95
4, 261600, Note_on_c, 6, 59, 95
4, 261840, Note_off_c, 6, 76, 95
4, 261840, Note_off_c, 6, 64, 95
4, 261840, Note_off_c, 6, 59, 95
4, 261840, Note_on_c, 6, 76, 95
4, 261840, Note_on_c, 6, 64, 95
4, 261840, Note_on_c, 6, 59, 95
4, 262080, Note_off_c, 6, 76, 95
4, 262080, Note_off_c, 6, 64, 95
4, 262080, Note_off_c, 6, 59, 95
4, 262080, Note_on_c, 6, 76, 95
4, 262080, Note_on_c, 6, 64, 95
4, 262080, Note_on_c, 6, 59, 95
4, 262320, Note_off_c, 6, 76, 95
4, 262320, Note_off_c, 6, 64, 95
4, 262320, Note_off_c, 6, 59, 95
4, 262320, Note_on_c, 6, 76, 95
4, 262320, Note_on_c, 6, 64, 95
4, 262320, Note_on_c, 6, 59, 95
4, 262560, Note_off_c, 6, 76, 95
4, 262560, Note_off_c, 6, 64, 95
4, 262560, Note_off_c, 6, 59, 95
4, 262560, Note_on_c, 6, 76, 95
4, 262560, Note_on_c, 6, 64, 95
4, 262560, Note_on_c, 6, 59, 95
4, 262800, Note_off_c, 6, 76, 95
4, 262800, Note_off_c, 6, 64, 95
4, 262800, Note_off_c, 6, 59, 95
4, 262800, Note_on_c, 6, 76, 95
4, 262800, Note_on_c, 6, 64, 95
4, 262800, Note_on_c, 6, 59, 95
4, 263040, Note_off_c, 6, 76, 95
4, 263040, Note_off_c, 6, 64, 95
4, 263040, Note_off_c, 6, 59, 95
4, 263040, Note_on_c, 6, 76, 95
4, 263040, Note_on_c, 6, 64, 95
4, 263040, Note_on_c, 6, 59, 95
4, 263280, Note_off_c, 6, 76, 95
4, 263280, Note_off_c, 6, 64, 95
4, 263280, Note_off_c, 6, 59, 95
4, 263280, Note_on_c, 6, 76, 95
4, 263280, Note_on_c, 6, 64, 95
4, 263280, Note_on_c, 6, 59, 95
4, 263520, Note_off_c, 6, 76, 95
4, 263520, Note_off_c, 6, 64, 95
4, 263520, Note_off_c, 6, 59, 95
4, 263520, Note_on_c, 6, 76, 95
4, 263520, Note_on_c, 6, 64, 95
4, 263520, Note_on_c, 6, 59, 95
4, 263760, Note_off_c, 6, 76, 95
4, 263760, Note_off_c, 6, 64, 95
4, 263760, Note_off_c, 6, 59, 95
4, 263760, Note_on_c, 6, 76, 95
4, 263760, Note_on_c, 6, 64, 95
4, 263760, Note_on_c, 6, 59, 95
4, 264000, Note_off_c, 6, 76, 95
4, 264000, Note_off_c, 6, 64, 95
4, 264000, Note_off_c, 6, 59, 95
4, 264000, Note_on_c, 6, 76, 95
4, 264000, Note_on_c, 6, 64, 95
4, 264000, Note_on_c, 6, 59, 95
4, 264240, Note_off_c, 6, 76, 95
4, 264240, Note_off_c, 6, 64, 95
4, 264240, Note_off_c, 6, 59, 95
4, 264240, Note_on_c, 6, 76, 95
4, 264240, Note_on_c, 6, 64, 95
4, 264240, Note_on_c, 6, 59, 95
4, 264480, Note_off_c, 6, 76, 95
4, 264480, Note_off_c, 6, 64, 95
4, 264480, Note_off_c, 6, 59, 95
4, 264480, Note_on_c, 6, 76, 95
4, 264480, Note_on_c, 6, 64, 95
4, 264480, Note_on_c, 6, 59, 95
4, 264720, Note_off_c, 6, 76, 95
4, 264720, Note_off_c, 6, 64, 95
4, 264720, Note_off_c, 6, 59, 95
4, 264720, Note_on_c, 6, 76, 95
4, 264720, Note_on_c, 6, 64, 95
4, 264720, Note_on_c, 6, 59, 95
4, 264960, Note_off_c, 6, 76, 95
4, 264960, Note_off_c, 6, 64, 95
4, 264960, Note_off_c, 6, 59, 95
4, 264960, Note_on_c, 6, 76, 95
4, 264960, Note_on_c, 6, 64, 95
4, 264960, Note_on_c, 6, 59, 95
4, 265200, Note_off_c, 6, 76, 95
4, 265200, Note_off_c, 6, 64, 95
4, 265200, Note_off_c, 6, 59, 95
4, 265200, Note_on_c, 6, 76, 95
4, 265200, Note_on_c, 6, 64, 95
4, 265200, Note_on_c, 6, 59, 95
4, 265440, Note_off_c, 6, 76, 95
4, 265440, Note_off_c, 6, 64, 95
4, 265440, Note_off_c, 6, 59, 95
4, 265440, Note_on_c, 6, 76, 95
4, 265440, Note_on_c, 6, 64, 95
4, 265440, Note_on_c, 6, 59, 95
4, 265680, Note_off_c, 6, 76, 95
4, 265680, Note_off_c, 6, 64, 95
4, 265680, Note_off_c, 6, 59, 95
4, 265680, Note_on_c, 6, 76, 95
4, 265680, Note_on_c, 6, 64, 95
4, 265680, Note_on_c, 6, 59, 95
4, 265920, Note_off_c, 6, 76, 95
4, 265920, Note_off_c, 6, 64, 95
4, 265920, Note_off_c, 6, 59, 95
4, 265920, Note_on_c, 6, 78, 95
4, 265920, Note_on_c, 6, 66, 95
4, 265920, Note_on_c, 6, 61, 95
4, 266160, Note_off_c, 6, 78, 95
4, 266160, Note_off_c, 6, 66, 95
4, 266160, Note_off_c, 6, 61, 95
4, 266160, Note_on_c, 6, 78, 95
4, 266160, Note_on_c, 6, 66, 95
4, 266160, Note_on_c, 6, 61, 95
4, 266400, Note_off_c, 6, 78, 95
4, 266400, Note_off_c, 6, 66, 95
4, 266400, Note_off_c, 6, 61, 95
4, 266400, Note_on_c, 6, 78, 95
4, 266400, Note_on_c, 6, 66, 95
4, 266400, Note_on_c, 6, 61, 95
4, 266640, Note_off_c, 6, 78, 95
4, 266640, Note_off_c, 6, 66, 95
4, 266640, Note_off_c, 6, 61, 95
4, 266640, Note_on_c, 6, 78, 95
4, 266640, Note_on_c, 6, 66, 95
4, 266640, Note_on_c, 6, 61, 95
4, 266880, Note_off_c, 6, 78, 95
4, 266880, Note_off_c, 6, 66, 95
4, 266880, Note_off_c, 6, 61, 95
4, 266880, Note_on_c, 6, 78, 95
4, 266880, Note_on_c, 6, 66, 95
4, 266880, Note_on_c, 6, 61, 95
4, 267120, Note_off_c, 6, 78, 95
4, 267120, Note_off_c, 6, 66, 95
4, 267120, Note_off_c, 6, 61, 95
4, 267120, Note_on_c, 6, 78, 95
4, 267120, Note_on_c, 6, 66, 95
4, 267120, Note_on_c, 6, 61, 95
4, 267360, Note_off_c, 6, 78, 95
4, 267360, Note_off_c, 6, 66, 95
4, 267360, Note_off_c, 6, 61, 95
4, 267360, Note_on_c, 6, 78, 95
4, 267360, Note_on_c, 6, 66, 95
4, 267360, Note_on_c, 6, 61, 95
4, 267600, Note_off_c, 6, 78, 95
4, 267600, Note_off_c, 6, 66, 95
4, 267600, Note_off_c, 6, 61, 95
4, 267600, Note_on_c, 6, 78, 95
4, 267600, Note_on_c, 6, 66, 95
4, 267600, Note_on_c, 6, 61, 95
4, 267840, Note_off_c, 6, 78, 95
4, 267840, Note_off_c, 6, 66, 95
4, 267840, Note_off_c, 6, 61, 95
4, 267840, Note_on_c, 6, 78, 95
4, 267840, Note_on_c, 6, 66, 95
4, 267840, Note_on_c, 6, 61, 95
4, 268080, Note_off_c, 6, 78, 95
4, 268080, Note_off_c, 6, 66, 95
4, 268080, Note_off_c, 6, 61, 95
4, 268080, Note_on_c, 6, 78, 95
4, 268080, Note_on_c, 6, 66, 95
4, 268080, Note_on_c, 6, 61, 95
4, 268320, Note_off_c, 6, 78, 95
4, 268320, Note_off_c, 6, 66, 95
4, 268320, Note_off_c, 6, 61, 95
4, 268320, Note_on_c, 6, 78, 95
4, 268320, Note_on_c, 6, 66, 95
4, 268320, Note_on_c, 6, 61, 95
4, 268560, Note_off_c, 6, 78, 95
4, 268560, Note_off_c, 6, 66, 95
4, 268560, Note_off_c, 6, 61, 95
4, 268560, Note_on_c, 6, 78, 95
4, 268560, Note_on_c, 6, 66, 95
4, 268560, Note_on_c, 6, 61, 95
4, 268800, Note_off_c, 6, 78, 95
4, 268800, Note_off_c, 6, 66, 95
4, 268800, Note_off_c, 6, 61, 95
4, 268800, Note_on_c, 6, 78, 95
4, 268800, Note_on_c, 6, 66, 95
4, 268800, Note_on_c, 6, 61, 95
4, 269040, Note_off_c, 6, 78, 95
4, 269040, Note_off_c, 6, 66, 95
4, 269040, Note_off_c, 6, 61, 95
4, 269040, Note_on_c, 6, 78, 95
4, 269040, Note_on_c, 6, 66, 95
4, 269040, Note_on_c, 6, 61, 95
4, 269280, Note_off_c, 6, 78, 95
4, 269280, Note_off_c, 6, 66, 95
4, 269280, Note_off_c, 6, 61, 95
4, 269280, Note_on_c, 6, 78, 95
4, 269280, Note_on_c, 6, 66, 95
4, 269280, Note_on_c, 6, 61, 95
4, 269520, Note_off_c, 6, 78, 95
4, 269520, Note_off_c, 6, 66, 95
4, 269520, Note_off_c, 6, 61, 95
4, 269520, Note_on_c, 6, 78, 95
4, 269520, Note_on_c, 6, 66, 95
4, 269520, Note_on_c, 6, 61, 95
4, 269760, Note_off_c, 6, 78, 95
4, 269760, Note_off_c, 6, 66, 95
4, 269760, Note_off_c, 6, 61, 95
4, 269760, Note_on_c, 6, 78, 95
4, 269760, Note_on_c, 6, 66, 95
4, 269760, Note_on_c, 6, 61, 95
4, 270000, Note_off_c, 6, 78, 95
4, 270000, Note_off_c, 6, 66, 95
4, 270000, Note_off_c, 6, 61, 95
4, 270000, Note_on_c, 6, 78, 95
4, 270000, Note_on_c, 6, 66, 95
4, 270000, Note_on_c, 6, 61, 95
4, 270240, Note_off_c, 6, 78, 95
4, 270240, Note_off_c, 6, 66, 95
4, 270240, Note_off_c, 6, 61, 95
4, 270240, Note_on_c, 6, 78, 95
4, 270240, Note_on_c, 6, 66, 95
4, 270240, Note_on_c, 6, 61, 95
4, 270480, Note_off_c, 6, 78, 95
4, 270480, Note_off_c, 6, 66, 95
4, 270480, Note_off_c, 6, 61, 95
4, 270480, Note_on_c, 6, 78, 95
4, 270480, Note_on_c, 6, 66, 95
4, 270480, Note_on_c, 6, 61, 95
4, 270720, Note_off_c, 6, 78, 95
4, 270720, Note_off_c, 6, 66, 95
4, 270720, Note_off_c, 6, 61, 95
4, 270720, Note_on_c, 6, 78, 95
4, 270720, Note_on_c, 6, 66, 95
4, 270720, Note_on_c, 6, 61, 95
4, 270960, Note_off_c, 6, 78, 95
4, 270960, Note_off_c, 6, 66, 95
4, 270960, Note_off_c, 6, 61, 95
4, 270960, Note_on_c, 6, 78, 95
4, 270960, Note_on_c, 6, 66, 95
4, 270960, Note_on_c, 6, 61, 95
4, 271200, Note_off_c, 6, 78, 95
4, 271200, Note_off_c, 6, 66, 95
4, 271200, Note_off_c, 6, 61, 95
4, 271200, Note_on_c, 6, 78, 95
4, 271200, Note_on_c, 6, 66, 95
4, 271200, Note_on_c, 6, 61, 95
4, 271440, Note_off_c, 6, 78, 95
4, 271440, Note_off_c, 6, 66, 95
4, 271440, Note_off_c, 6, 61, 95
4, 271440, Note_on_c, 6, 78, 95
4, 271440, Note_on_c, 6, 66, 95
4, 271440, Note_on_c, 6, 61, 95
4, 271680, Note_off_c, 6, 78, 95
4, 271680, Note_off_c, 6, 66, 95
4, 271680, Note_off_c, 6, 61, 95
4, 271680, Note_on_c, 6, 78, 95
4, 271680, Note_on_c, 6, 66, 95
4, 271680, Note_on_c, 6, 61, 95
4, 271920, Note_off_c, 6, 78, 95
4, 271920, Note_off_c, 6, 66, 95
4, 271920, Note_off_c, 6, 61, 95
4, 271920, Note_on_c, 6, 78, 95
4, 271920, Note_on_c, 6, 66, 95
4, 271920, Note_on_c, 6, 61, 95
4, 272160, Note_off_c, 6, 78, 95
4, 272160, Note_off_c, 6, 66, 95
4, 272160, Note_off_c, 6, 61, 95
4, 272160, Note_on_c, 6, 80, 95
4, 272160, Note_on_c, 6, 68, 95
4, 272160, Note_on_c, 6, 63, 95
4, 272400, Note_off_c, 6, 80, 95
4, 272400, Note_off_c, 6, 68, 95
4, 272400, Note_off_c, 6, 63, 95
4, 272400, Note_on_c, 6, 80, 95
4, 272400, Note_on_c, 6, 68, 95
4, 272400, Note_on_c, 6, 63, 95
4, 272640, Note_off_c, 6, 80, 95
4, 272640, Note_off_c, 6, 68, 95
4, 272640, Note_off_c, 6, 63, 95
4, 272640, Note_on_c, 6, 80, 95
4, 272640, Note_on_c, 6, 68, 95
4, 272640, Note_on_c, 6, 63, 95
4, 272880, Note_off_c, 6, 80, 95
4, 272880, Note_off_c, 6, 68, 95
4, 272880, Note_off_c, 6, 63, 95
4, 272880, Note_on_c, 6, 80, 95
4, 272880, Note_on_c, 6, 68, 95
4, 272880, Note_on_c, 6, 63, 95
4, 273120, Note_off_c, 6, 80, 95
4, 273120, Note_off_c, 6, 68, 95
4, 273120, Note_off_c, 6, 63, 95
4, 273120, Note_on_c, 6, 80, 95
4, 273120, Note_on_c, 6, 68, 95
4, 273120, Note_on_c, 6, 63, 95
4, 273360, Note_off_c, 6, 80, 95
4, 273360, Note_off_c, 6, 68, 95
4, 273360, Note_off_c, 6, 63, 95
4, 273360, Note_on_c, 6, 80, 95
4, 273360, Note_on_c, 6, 68, 95
4, 273360, Note_on_c, 6, 63, 95
4, 273600, Note_off_c, 6, 80, 95
4, 273600, Note_off_c, 6, 68, 95
4, 273600, Note_off_c, 6, 63, 95
4, 273600, Note_on_c, 6, 80, 95
4, 273600, Note_on_c, 6, 68, 95
4, 273600, Note_on_c, 6, 63, 95
4, 273840, Note_off_c, 6, 80, 95
4, 273840, Note_off_c, 6, 68, 95
4, 273840, Note_off_c, 6, 63, 95
4, 273840, Note_on_c, 6, 80, 95
4, 273840, Note_on_c, 6, 68, 95
4, 273840, Note_on_c, 6, 63, 95
4, 274080, Note_off_c, 6, 80, 95
4, 274080, Note_off_c, 6, 68, 95
4, 274080, Note_off_c, 6, 63, 95
4, 274080, Note_on_c, 6, 80, 95
4, 274080, Note_on_c, 6, 68, 95
4, 274080, Note_on_c, 6, 63, 95
4, 274320, Note_off_c, 6, 80, 95
4, 274320, Note_off_c, 6, 68, 95
4, 274320, Note_off_c, 6, 63, 95
4, 274320, Note_on_c, 6, 80, 95
4, 274320, Note_on_c, 6, 68, 95
4, 274320, Note_on_c, 6, 63, 95
4, 274560, Note_off_c, 6, 80, 95
4, 274560, Note_off_c, 6, 68, 95
4, 274560, Note_off_c, 6, 63, 95
4, 274560, Note_on_c, 6, 80, 95
4, 274560, Note_on_c, 6, 68, 95
4, 274560, Note_on_c, 6, 63, 95
4, 274800, Note_off_c, 6, 80, 95
4, 274800, Note_off_c, 6, 68, 95
4, 274800, Note_off_c, 6, 63, 95
4, 274800, Note_on_c, 6, 80, 95
4, 274800, Note_on_c, 6, 68, 95
4, 274800, Note_on_c, 6, 63, 95
4, 275040, Note_off_c, 6, 80, 95
4, 275040, Note_off_c, 6, 68, 95
4, 275040, Note_off_c, 6, 63, 95
4, 275040, Note_on_c, 6, 80, 95
4, 275040, Note_on_c, 6, 68, 95
4, 275040, Note_on_c, 6, 63, 95
4, 275280, Note_off_c, 6, 80, 95
4, 275280, Note_off_c, 6, 68, 95
4, 275280, Note_off_c, 6, 63, 95
4, 275280, Note_on_c, 6, 80, 95
4, 275280, Note_on_c, 6, 68, 95
4, 275280, Note_on_c, 6, 63, 95
4, 275520, Note_off_c, 6, 80, 95
4, 275520, Note_off_c, 6, 68, 95
4, 275520, Note_off_c, 6, 63, 95
4, 275520, Note_on_c, 6, 80, 95
4, 275520, Note_on_c, 6, 68, 95
4, 275520, Note_on_c, 6, 63, 95
4, 275760, Note_off_c, 6, 80, 95
4, 275760, Note_off_c, 6, 68, 95
4, 275760, Note_off_c, 6, 63, 95
4, 275760, Note_on_c, 6, 80, 95
4, 275760, Note_on_c, 6, 68, 95
4, 275760, Note_on_c, 6, 63, 95
4, 276000, Note_off_c, 6, 80, 95
4, 276000, Note_off_c, 6, 68, 95
4, 276000, Note_off_c, 6, 63, 95
4, 276000, Note_on_c, 6, 80, 95
4, 276000, Note_on_c, 6, 68, 95
4, 276000, Note_on_c, 6, 63, 95
4, 276240, Note_off_c, 6, 80, 95
4, 276240, Note_off_c, 6, 68, 95
4, 276240, Note_off_c, 6, 63, 95
4, 276240, Note_on_c, 6, 80, 95
4, 276240, Note_on_c, 6, 68, 95
4, 276240, Note_on_c, 6, 63, 95
4, 276480, Note_off_c, 6, 80, 95
4, 276480, Note_off_c, 6, 68, 95
4, 276480, Note_off_c, 6, 63, 95
4, 276480, Note_on_c, 6, 80, 95
4, 276480, Note_on_c, 6, 68, 95
4, 276480, Note_on_c, 6, 63, 95
4, 276720, Note_off_c, 6, 80, 95
4, 276720, Note_off_c, 6, 68, 95
4, 276720, Note_off_c, 6, 63, 95
4, 276720, Note_on_c, 6, 80, 95
4, 276720, Note_on_c, 6, 68, 95
4, 276720, Note_on_c, 6, 63, 95
4, 276960, Note_off_c, 6, 80, 95
4, 276960, Note_off_c, 6, 68, 95
4, 276960, Note_off_c, 6, 63, 95
4, 276960, Note_on_c, 6, 80, 95
4, 276960, Note_on_c, 6, 68, 95
4, 276960, Note_on_c, 6, 63, 95
4, 277200, Note_off_c, 6, 80, 95
4, 277200, Note_off_c, 6, 68, 95
4, 277200, Note_off_c, 6, 63, 95
4, 277200, Note_on_c, 6, 80, 95
4, 277200, Note_on_c, 6, 68, 95
4, 277200, Note_on_c, 6, 63, 95
4, 277440, Note_off_c, 6, 80, 95
4, 277440, Note_off_c, 6, 68, 95
4, 277440, Note_off_c, 6, 63, 95
4, 277440, Note_on_c, 6, 80, 95
4, 277440, Note_on_c, 6, 68, 95
4, 277440, Note_on_c, 6, 63, 95
4, 277680, Note_off_c, 6, 80, 95
4, 277680, Note_off_c, 6, 68, 95
4, 277680, Note_off_c, 6, 63, 95
4, 277680, Note_on_c, 6, 80, 95
4, 277680, Note_on_c, 6, 68, 95
4, 277680, Note_on_c, 6, 63, 95
4, 277920, Note_off_c, 6, 80, 95
4, 277920, Note_off_c, 6, 68, 95
4, 277920, Note_off_c, 6, 63, 95
4, 277920, Note_on_c, 6, 80, 95
4, 277920, Note_on_c, 6, 68, 95
4, 277920, Note_on_c, 6, 63, 95
4, 278160, Note_off_c, 6, 80, 95
4, 278160, Note_off_c, 6, 68, 95
4, 278160, Note_off_c, 6, 63, 95
4, 278160, Note_on_c, 6, 80, 95
4, 278160, Note_on_c, 6, 68, 95
4, 278160, Note_on_c, 6, 63, 95
4, 278400, Note_off_c, 6, 80, 95
4, 278400, Note_off_c, 6, 68, 95
4, 278400, Note_off_c, 6, 63, 95
4, 278400, Note_on_c, 6, 80, 95
4, 278400, Note_on_c, 6, 68, 95
4, 278400, Note_on_c, 6, 63, 95
4, 278640, Note_off_c, 6, 80, 95
4, 278640, Note_off_c, 6, 68, 95
4, 278640, Note_off_c, 6, 63, 95
4, 278640, Note_on_c, 6, 80, 95
4, 278640, Note_on_c, 6, 68, 95
4, 278640, Note_on_c, 6, 63, 95
4, 278880, Note_off_c, 6, 80, 95
4, 278880, Note_off_c, 6, 68, 95
4, 278880, Note_off_c, 6, 63, 95
4, 278880, Note_on_c, 6, 80, 95
4, 278880, Note_on_c, 6, 68, 95
4, 278880, Note_on_c, 6, 63, 95
4, 279120, Note_off_c, 6, 80, 95
4, 279120, Note_off_c, 6, 68, 95
4, 279120, Note_off_c, 6, 63, 95
4, 279120, Note_on_c, 6, 80, 95
4, 279120, Note_on_c, 6, 68, 95
4, 279120, Note_on_c, 6, 63, 95
4, 279360, Note_off_c, 6, 80, 95
4, 279360, Note_off_c, 6, 68, 95
4, 279360, Note_off_c, 6, 63, 95
4, 279360, Note_on_c, 6, 80, 95
4, 279360, Note_on_c, 6, 68, 95
4, 279360, Note_on_c, 6, 63, 95
4, 279600, Note_off_c, 6, 80, 95
4, 279600, Note_off_c, 6, 68, 95
4, 279600, Note_off_c, 6, 63, 95
4, 279600, Note_on_c, 6, 80, 95
4, 279600, Note_on_c, 6, 68, 95
4, 279600, Note_on_c, 6, 63, 95
4, 279840, Note_off_c, 6, 80, 95
4, 279840, Note_off_c, 6, 68, 95
4, 279840, Note_off_c, 6, 63, 95
4, 279840, Note_on_c, 6, 78, 95
4, 279840, Note_on_c, 6, 66, 95
4, 279840, Note_on_c, 6, 61, 95
4, 280080, Note_off_c, 6, 78, 95
4, 280080, Note_off_c, 6, 66, 95
4, 280080, Note_off_c, 6, 61, 95
4, 280080, Note_on_c, 6, 78, 95
4, 280080, Note_on_c, 6, 66, 95
4, 280080, Note_on_c, 6, 61, 95
4, 280320, Note_off_c, 6, 78, 95
4, 280320, Note_off_c, 6, 66, 95
4, 280320, Note_off_c, 6, 61, 95
4, 280320, Note_on_c, 6, 78, 95
4, 280320, Note_on_c, 6, 66, 95
4, 280320, Note_on_c, 6, 61, 95
4, 280560, Note_off_c, 6, 78, 95
4, 280560, Note_off_c, 6, 66, 95
4, 280560, Note_off_c, 6, 61, 95
4, 280560, Note_on_c, 6, 78, 95
4, 280560, Note_on_c, 6, 66, 95
4, 280560, Note_on_c, 6, 61, 95
4, 280800, Note_off_c, 6, 78, 95
4, 280800, Note_off_c, 6, 66, 95
4, 280800, Note_off_c, 6, 61, 95
4, 280800, Note_on_c, 6, 78, 95
4, 280800, Note_on_c, 6, 66, 95
4, 280800, Note_on_c, 6, 61, 95
4, 281040, Note_off_c, 6, 78, 95
4, 281040, Note_off_c, 6, 66, 95
4, 281040, Note_off_c, 6, 61, 95
4, 281040, Note_on_c, 6, 78, 95
4, 281040, Note_on_c, 6, 66, 95
4, 281040, Note_on_c, 6, 61, 95
4, 281280, Note_off_c, 6, 78, 95
4, 281280, Note_off_c, 6, 66, 95
4, 281280, Note_off_c, 6, 61, 95
4, 281280, Note_on_c, 6, 78, 95
4, 281280, Note_on_c, 6, 66, 95
4, 281280, Note_on_c, 6, 61, 95
4, 281520, Note_off_c, 6, 78, 95
4, 281520, Note_off_c, 6, 66, 95
4, 281520, Note_off_c, 6, 61, 95
4, 281520, Note_on_c, 6, 78, 95
4, 281520, Note_on_c, 6, 66, 95
4, 281520, Note_on_c, 6, 61, 95
4, 281760, Note_off_c, 6, 78, 95
4, 281760, Note_off_c, 6, 66, 95
4, 281760, Note_off_c, 6, 61, 95
4, 281760, Note_on_c, 6, 78, 95
4, 281760, Note_on_c, 6, 66, 95
4, 281760, Note_on_c, 6, 61, 95
4, 282000, Note_off_c, 6, 78, 95
4, 282000, Note_off_c, 6, 66, 95
4, 282000, Note_off_c, 6, 61, 95
4, 282000, Note_on_c, 6, 78, 95
4, 282000, Note_on_c, 6, 66, 95
4, 282000, Note_on_c, 6, 61, 95
4, 282240, Note_off_c, 6, 78, 95
4, 282240, Note_off_c, 6, 66, 95
4, 282240, Note_off_c, 6, 61, 95
4, 282240, Note_on_c, 6, 78, 95
4, 282240, Note_on_c, 6, 66, 95
4, 282240, Note_on_c, 6, 61, 95
4, 282480, Note_off_c, 6, 78, 95
4, 282480, Note_off_c, 6, 66, 95
4, 282480, Note_off_c, 6, 61, 95
4, 282480, Note_on_c, 6, 78, 95
4, 282480, Note_on_c, 6, 66, 95
4, 282480, Note_on_c, 6, 61, 95
4, 282720, Note_off_c, 6, 78, 95
4, 282720, Note_off_c, 6, 66, 95
4, 282720, Note_off_c, 6, 61, 95
4, 282720, Note_on_c, 6, 78, 95
4, 282720, Note_on_c, 6, 66, 95
4, 282720, Note_on_c, 6, 61, 95
4, 282960, Note_off_c, 6, 78, 95
4, 282960, Note_off_c, 6, 66, 95
4, 282960, Note_off_c, 6, 61, 95
4, 282960, Note_on_c, 6, 78, 95
4, 282960, Note_on_c, 6, 66, 95
4, 282960, Note_on_c, 6, 61, 95
4, 283200, Note_off_c, 6, 78, 95
4, 283200, Note_off_c, 6, 66, 95
4, 283200, Note_off_c, 6, 61, 95
4, 283200, Note_on_c, 6, 78, 95
4, 283200, Note_on_c, 6, 66, 95
4, 283200, Note_on_c, 6, 61, 95
4, 283440, Note_off_c, 6, 78, 95
4, 283440, Note_off_c, 6, 66, 95
4, 283440, Note_off_c, 6, 61, 95
4, 283440, Note_on_c, 6, 78, 95
4, 283440, Note_on_c, 6, 66, 95
4, 283440, Note_on_c, 6, 61, 95
4, 283680, Note_off_c, 6, 78, 95
4, 283680, Note_off_c, 6, 66, 95
4, 283680, Note_off_c, 6, 61, 95
4, 283680, Note_on_c, 6, 78, 95
4, 283680, Note_on_c, 6, 66, 95
4, 283680, Note_on_c, 6, 61, 95
4, 283920, Note_off_c, 6, 78, 95
4, 283920, Note_off_c, 6, 66, 95
4, 283920, Note_off_c, 6, 61, 95
4, 283920, Note_on_c, 6, 78, 95
4, 283920, Note_on_c, 6, 66, 95
4, 283920, Note_on_c, 6, 61, 95
4, 284160, Note_off_c, 6, 78, 95
4, 284160, Note_off_c, 6, 66, 95
4, 284160, Note_off_c, 6, 61, 95
4, 284160, Note_on_c, 6, 78, 95
4, 284160, Note_on_c, 6, 66, 95
4, 284160, Note_on_c, 6, 61, 95
4, 284400, Note_off_c, 6, 78, 95
4, 284400, Note_off_c, 6, 66, 95
4, 284400, Note_off_c, 6, 61, 95
4, 284400, Note_on_c, 6, 78, 95
4, 284400, Note_on_c, 6, 66, 95
4, 284400, Note_on_c, 6, 61, 95
4, 284640, Note_off_c, 6, 78, 95
4, 284640, Note_off_c, 6, 66, 95
4, 284640, Note_off_c, 6, 61, 95
4, 284640, Note_on_c, 6, 78, 95
4, 284640, Note_on_c, 6, 66, 95
4, 284640, Note_on_c, 6, 61, 95
4, 284880, Note_off_c, 6, 78, 95
4, 284880, Note_off_c, 6, 66, 95
4, 284880, Note_off_c, 6, 61, 95
4, 284880, Note_on_c, 6, 78, 95
4, 284880, Note_on_c, 6, 66, 95
4, 284880, Note_on_c, 6, 61, 95
4, 285120, Note_off_c, 6, 78, 95
4, 285120, Note_off_c, 6, 66, 95
4, 285120, Note_off_c, 6, 61, 95
4, 285120, Note_on_c, 6, 78, 95
4, 285120, Note_on_c, 6, 66, 95
4, 285120, Note_on_c, 6, 61, 95
4, 285360, Note_off_c, 6, 78, 95
4, 285360, Note_off_c, 6, 66, 95
4, 285360, Note_off_c, 6, 61, 95
4, 285360, Note_on_c, 6, 78, 95
4, 285360, Note_on_c, 6, 66, 95
4, 285360, Note_on_c, 6, 61, 95
4, 285600, Note_off_c, 6, 78, 95
4, 285600, Note_off_c, 6, 66, 95
4, 285600, Note_off_c, 6, 61, 95
4, 285600, Note_on_c, 6, 78, 95
4, 285600, Note_on_c, 6, 66, 95
4, 285600, Note_on_c, 6, 61, 95
4, 285840, Note_off_c, 6, 78, 95
4, 285840, Note_off_c, 6, 66, 95
4, 285840, Note_off_c, 6, 61, 95
4, 285840, Note_on_c, 6, 78, 95
4, 285840, Note_on_c, 6, 66, 95
4, 285840, Note_on_c, 6, 61, 95
4, 286080, Note_off_c, 6, 78, 95
4, 286080, Note_off_c, 6, 66, 95
4, 286080, Note_off_c, 6, 61, 95
4, 286080, Note_on_c, 6, 76, 95
4, 286080, Note_on_c, 6, 64, 95
4, 286080, Note_on_c, 6, 59, 95
4, 286320, Note_off_c, 6, 76, 95
4, 286320, Note_off_c, 6, 64, 95
4, 286320, Note_off_c, 6, 59, 95
4, 286320, Note_on_c, 6, 76, 95
4, 286320, Note_on_c, 6, 64, 95
4, 286320, Note_on_c, 6, 59, 95
4, 286560, Note_off_c, 6, 76, 95
4, 286560, Note_off_c, 6, 64, 95
4, 286560, Note_off_c, 6, 59, 95
4, 286560, Note_on_c, 6, 76, 95
4, 286560, Note_on_c, 6, 64, 95
4, 286560, Note_on_c, 6, 59, 95
4, 286800, Note_off_c, 6, 76, 95
4, 286800, Note_off_c, 6, 64, 95
4, 286800, Note_off_c, 6, 59, 95
4, 286800, Note_on_c, 6, 76, 95
4, 286800, Note_on_c, 6, 64, 95
4, 286800, Note_on_c, 6, 59, 95
4, 287040, Note_off_c, 6, 76, 95
4, 287040, Note_off_c, 6, 64, 95
4, 287040, Note_off_c, 6, 59, 95
4, 287040, Note_on_c, 6, 76, 95
4, 287040, Note_on_c, 6, 64, 95
4, 287040, Note_on_c, 6, 59, 95
4, 287280, Note_off_c, 6, 76, 95
4, 287280, Note_off_c, 6, 64, 95
4, 287280, Note_off_c, 6, 59, 95
4, 287280, Note_on_c, 6, 76, 95
4, 287280, Note_on_c, 6, 64, 95
4, 287280, Note_on_c, 6, 59, 95
4, 287520, Note_off_c, 6, 76, 95
4, 287520, Note_off_c, 6, 64, 95
4, 287520, Note_off_c, 6, 59, 95
4, 287520, Note_on_c, 6, 76, 95
4, 287520, Note_on_c, 6, 64, 95
4, 287520, Note_on_c, 6, 59, 95
4, 287760, Note_off_c, 6, 76, 95
4, 287760, Note_off_c, 6, 64, 95
4, 287760, Note_off_c, 6, 59, 95
4, 287760, Note_on_c, 6, 76, 95
4, 287760, Note_on_c, 6, 64, 95
4, 287760, Note_on_c, 6, 59, 95
4, 288000, Note_off_c, 6, 76, 95
4, 288000, Note_off_c, 6, 64, 95
4, 288000, Note_off_c, 6, 59, 95
4, 288000, Note_on_c, 6, 76, 95
4, 288000, Note_on_c, 6, 64, 95
4, 288000, Note_on_c, 6, 59, 95
4, 288240, Note_off_c, 6, 76, 95
4, 288240, Note_off_c, 6, 64, 95
4, 288240, Note_off_c, 6, 59, 95
4, 288240, Note_on_c, 6, 76, 95
4, 288240, Note_on_c, 6, 64, 95
4, 288240, Note_on_c, 6, 59, 95
4, 288480, Note_off_c, 6, 76, 95
4, 288480, Note_off_c, 6, 64, 95
4, 288480, Note_off_c, 6, 59, 95
4, 288480, Note_on_c, 6, 76, 95
4, 288480, Note_on_c, 6, 64, 95
4, 288480, Note_on_c, 6, 59, 95
4, 288720, Note_off_c, 6, 76, 95
4, 288720, Note_off_c, 6, 64, 95
4, 288720, Note_off_c, 6, 59, 95
4, 288720, Note_on_c, 6, 76, 95
4, 288720, Note_on_c, 6, 64, 95
4, 288720, Note_on_c, 6, 59, 95
4, 288960, Note_off_c, 6, 76, 95
4, 288960, Note_off_c, 6, 64, 95
4, 288960, Note_off_c, 6, 59, 95
4, 288960, Note_on_c, 6, 76, 95
4, 288960, Note_on_c, 6, 64, 95
4, 288960, Note_on_c, 6, 59, 95
4, 289200, Note_off_c, 6, 76, 95
4, 289200, Note_off_c, 6, 64, 95
4, 289200, Note_off_c, 6, 59, 95
4, 289200, Note_on_c, 6, 76, 95
4, 289200, Note_on_c, 6, 64, 95
4, 289200, Note_on_c, 6, 59, 95
4, 289440, Note_off_c, 6, 76, 95
4, 289440, Note_off_c, 6, 64, 95
4, 289440, Note_off_c, 6, 59, 95
4, 289440, Note_on_c, 6, 76, 95
4, 289440, Note_on_c, 6, 64, 95
4, 289440, Note_on_c, 6, 59, 95
4, 289680, Note_off_c, 6, 76, 95
4, 289680, Note_off_c, 6, 64, 95
4, 289680, Note_off_c, 6, 59, 95
4, 289680, Note_on_c, 6, 76, 95
4, 289680, Note_on_c, 6, 64, 95
4, 289680, Note_on_c, 6, 59, 95
4, 289920, Note_off_c, 6, 76, 95
4, 289920, Note_off_c, 6, 64, 95
4, 289920, Note_off_c, 6, 59, 95
4, 289920, Note_on_c, 6, 76, 95
4, 289920, Note_on_c, 6, 64, 95
4, 289920, Note_on_c, 6, 59, 95
4, 290160, Note_off_c, 6, 76, 95
4, 290160, Note_off_c, 6, 64, 95
4, 290160, Note_off_c, 6, 59, 95
4, 290160, Note_on_c, 6, 76, 95
4, 290160, Note_on_c, 6, 64, 95
4, 290160, Note_on_c, 6, 59, 95
4, 290400, Note_off_c, 6, 76, 95
4, 290400, Note_off_c, 6, 64, 95
4, 290400, Note_off_c, 6, 59, 95
4, 290400, Note_on_c, 6, 76, 95
4, 290400, Note_on_c, 6, 64, 95
4, 290400, Note_on_c, 6, 59, 95
4, 290640, Note_off_c, 6, 76, 95
4, 290640, Note_off_c, 6, 64, 95
4, 290640, Note_off_c, 6, 59, 95
4, 290640, Note_on_c, 6, 76, 95
4, 290640, Note_on_c, 6, 64, 95
4, 290640, Note_on_c, 6, 59, 95
4, 290880, Note_off_c, 6, 76, 95
4, 290880, Note_off_c, 6, 64, 95
4, 290880, Note_off_c, 6, 59, 95
4, 290880, Note_on_c, 6, 76, 95
4, 290880, Note_on_c, 6, 64, 95
4, 290880, Note_on_c, 6, 59, 95
4, 291120, Note_off_c, 6, 76, 95
4, 291120, Note_off_c, 6, 64, 95
4, 291120, Note_off_c, 6, 59, 95
4, 291120, Note_on_c, 6, 76, 95
4, 291120, Note_on_c, 6, 64, 95
4, 291120, Note_on_c, 6, 59, 95
4, 291360, Note_off_c, 6, 76, 95
4, 291360, Note_off_c, 6, 64, 95
4, 291360, Note_off_c, 6, 59, 95
4, 291360, Note_on_c, 6, 76, 95
4, 291360, Note_on_c, 6, 64, 95
4, 291360, Note_on_c, 6, 59, 95
4, 291600, Note_off_c, 6, 76, 95
4, 291600, Note_off_c, 6, 64, 95
4, 291600, Note_off_c, 6, 59, 95
4, 291600, Note_on_c, 6, 76, 95
4, 291600, Note_on_c, 6, 64, 95
4, 291600, Note_on_c, 6, 59, 95
4, 291840, Note_off_c, 6, 76, 95
4, 291840, Note_off_c, 6, 64, 95
4, 291840, Note_off_c, 6, 59, 95
4, 291840, Note_on_c, 6, 76, 95
4, 291840, Note_on_c, 6, 64, 95
4, 291840, Note_on_c, 6, 59, 95
4, 292080, Note_off_c, 6, 76, 95
4, 292080, Note_off_c, 6, 64, 95
4, 292080, Note_off_c, 6, 59, 95
4, 292080, Note_on_c, 6, 76, 95
4, 292080, Note_on_c, 6, 64, 95
4, 292080, Note_on_c, 6, 59, 95
4, 292320, Note_off_c, 6, 76, 95
4, 292320, Note_off_c, 6, 64, 95
4, 292320, Note_off_c, 6, 59, 95
4, 292320, Note_on_c, 6, 76, 95
4, 292320, Note_on_c, 6, 64, 95
4, 292320, Note_on_c, 6, 59, 95
4, 292560, Note_off_c, 6, 76, 95
4, 292560, Note_off_c, 6, 64, 95
4, 292560, Note_off_c, 6, 59, 95
4, 292560, Note_on_c, 6, 76, 95
4, 292560, Note_on_c, 6, 64, 95
4, 292560, Note_on_c, 6, 59, 95
4, 292800, Note_off_c, 6, 76, 95
4, 292800, Note_off_c, 6, 64, 95
4, 292800, Note_off_c, 6, 59, 95
4, 292800, Note_on_c, 6, 76, 95
4, 292800, Note_on_c, 6, 64, 95
4, 292800, Note_on_c, 6, 59, 95
4, 293040, Note_off_c, 6, 76, 95
4, 293040, Note_off_c, 6, 64, 95
4, 293040, Note_off_c, 6, 59, 95
4, 293040, Note_on_c, 6, 76, 95
4, 293040, Note_on_c, 6, 64, 95
4, 293040, Note_on_c, 6, 59, 95
4, 293280, Note_off_c, 6, 76, 95
4, 293280, Note_off_c, 6, 64, 95
4, 293280, Note_off_c, 6, 59, 95
4, 293280, Note_on_c, 6, 76, 95
4, 293280, Note_on_c, 6, 64, 95
4, 293280, Note_on_c, 6, 59, 95
4, 293520, Note_off_c, 6, 76, 95
4, 293520, Note_off_c, 6, 64, 95
4, 293520, Note_off_c, 6, 59, 95
4, 293520, Note_on_c, 6, 76, 95
4, 293520, Note_on_c, 6, 64, 95
4, 293520, Note_on_c, 6, 59, 95
4, 293760, Note_off_c, 6, 76, 95
4, 293760, Note_off_c, 6, 64, 95
4, 293760, Note_off_c, 6, 59, 95
4, 293760, Note_on_c, 6, 78, 95
4, 293760, Note_on_c, 6, 66, 95
4, 293760, Note_on_c, 6, 61, 95
4, 294000, Note_off_c, 6, 78, 95
4, 294000, Note_off_c, 6, 66, 95
4, 294000, Note_off_c, 6, 61, 95
4, 294000, Note_on_c, 6, 78, 95
4, 294000, Note_on_c, 6, 66, 95
4, 294000, Note_on_c, 6, 61, 95
4, 294240, Note_off_c, 6, 78, 95
4, 294240, Note_off_c, 6, 66, 95
4, 294240, Note_off_c, 6, 61, 95
4, 294240, Note_on_c, 6, 78, 95
4, 294240, Note_on_c, 6, 66, 95
4, 294240, Note_on_c, 6, 61, 95
4, 294480, Note_off_c, 6, 78, 95
4, 294480, Note_off_c, 6, 66, 95
4, 294480, Note_off_c, 6, 61, 95
4, 294480, Note_on_c, 6, 78, 95
4, 294480, Note_on_c, 6, 66, 95
4, 294480, Note_on_c, 6, 61, 95
4, 294720, Note_off_c, 6, 78, 95
4, 294720, Note_off_c, 6, 66, 95
4, 294720, Note_off_c, 6, 61, 95
4, 294720, Note_on_c, 6, 78, 95
4, 294720, Note_on_c, 6, 66, 95
4, 294720, Note_on_c, 6, 61, 95
4, 294960, Note_off_c, 6, 78, 95
4, 294960, Note_off_c, 6, 66, 95
4, 294960, Note_off_c, 6, 61, 95
4, 294960, Note_on_c, 6, 78, 95
4, 294960, Note_on_c, 6, 66, 95
4, 294960, Note_on_c, 6, 61, 95
4, 295200, Note_off_c, 6, 78, 95
4, 295200, Note_off_c, 6, 66, 95
4, 295200, Note_off_c, 6, 61, 95
4, 295200, Note_on_c, 6, 78, 95
4, 295200, Note_on_c, 6, 66, 95
4, 295200, Note_on_c, 6, 61, 95
4, 295440, Note_off_c, 6, 78, 95
4, 295440, Note_off_c, 6, 66, 95
4, 295440, Note_off_c, 6, 61, 95
4, 295440, Note_on_c, 6, 78, 95
4, 295440, Note_on_c, 6, 66, 95
4, 295440, Note_on_c, 6, 61, 95
4, 295680, Note_off_c, 6, 78, 95
4, 295680, Note_off_c, 6, 66, 95
4, 295680, Note_off_c, 6, 61, 95
4, 295680, Note_on_c, 6, 78, 95
4, 295680, Note_on_c, 6, 66, 95
4, 295680, Note_on_c, 6, 61, 95
4, 295920, Note_off_c, 6, 78, 95
4, 295920, Note_off_c, 6, 66, 95
4, 295920, Note_off_c, 6, 61, 95
4, 295920, Note_on_c, 6, 78, 95
4, 295920, Note_on_c, 6, 66, 95
4, 295920, Note_on_c, 6, 61, 95
4, 296160, Note_off_c, 6, 78, 95
4, 296160, Note_off_c, 6, 66, 95
4, 296160, Note_off_c, 6, 61, 95
4, 296160, Note_on_c, 6, 78, 95
4, 296160, Note_on_c, 6, 66, 95
4, 296160, Note_on_c, 6, 61, 95
4, 296400, Note_off_c, 6, 78, 95
4, 296400, Note_off_c, 6, 66, 95
4, 296400, Note_off_c, 6, 61, 95
4, 296400, Note_on_c, 6, 78, 95
4, 296400, Note_on_c, 6, 66, 95
4, 296400, Note_on_c, 6, 61, 95
4, 296640, Note_off_c, 6, 78, 95
4, 296640, Note_off_c, 6, 66, 95
4, 296640, Note_off_c, 6, 61, 95
4, 296640, Note_on_c, 6, 78, 95
4, 296640, Note_on_c, 6, 66, 95
4, 296640, Note_on_c, 6, 61, 95
4, 296880, Note_off_c, 6, 78, 95
4, 296880, Note_off_c, 6, 66, 95
4, 296880, Note_off_c, 6, 61, 95
4, 296880, Note_on_c, 6, 78, 95
4, 296880, Note_on_c, 6, 66, 95
4, 296880, Note_on_c, 6, 61, 95
4, 297120, Note_off_c, 6, 78, 95
4, 297120, Note_off_c, 6, 66, 95
4, 297120, Note_off_c, 6, 61, 95
4, 297120, Note_on_c, 6, 78, 95
4, 297120, Note_on_c, 6, 66, 95
4, 297120, Note_on_c, 6, 61, 95
4, 297360, Note_off_c, 6, 78, 95
4, 297360, Note_off_c, 6, 66, 95
4, 297360, Note_off_c, 6, 61, 95
4, 297360, Note_on_c, 6, 78, 95
4, 297360, Note_on_c, 6, 66, 95
4, 297360, Note_on_c, 6, 61, 95
4, 297600, Note_off_c, 6, 78, 95
4, 297600, Note_off_c, 6, 66, 95
4, 297600, Note_off_c, 6, 61, 95
4, 297600, Note_on_c, 6, 78, 95
4, 297600, Note_on_c, 6, 66, 95
4, 297600, Note_on_c, 6, 61, 95
4, 297840, Note_off_c, 6, 78, 95
4, 297840, Note_off_c, 6, 66, 95
4, 297840, Note_off_c, 6, 61, 95
4, 297840, Note_on_c, 6, 78, 95
4, 297840, Note_on_c, 6, 66, 95
4, 297840, Note_on_c, 6, 61, 95
4, 298080, Note_off_c, 6, 78, 95
4, 298080, Note_off_c, 6, 66, 95
4, 298080, Note_off_c, 6, 61, 95
4, 298080, Note_on_c, 6, 78, 95
4, 298080, Note_on_c, 6, 66, 95
4, 298080, Note_on_c, 6, 61, 95
4, 298320, Note_off_c, 6, 78, 95
4, 298320, Note_off_c, 6, 66, 95
4, 298320, Note_off_c, 6, 61, 95
4, 298320, Note_on_c, 6, 78, 95
4, 298320, Note_on_c, 6, 66, 95
4, 298320, Note_on_c, 6, 61, 95
4, 298560, Note_off_c, 6, 78, 95
4, 298560, Note_off_c, 6, 66, 95
4, 298560, Note_off_c, 6, 61, 95
4, 298560, Note_on_c, 6, 78, 95
4, 298560, Note_on_c, 6, 66, 95
4, 298560, Note_on_c, 6, 61, 95
4, 298800, Note_off_c, 6, 78, 95
4, 298800, Note_off_c, 6, 66, 95
4, 298800, Note_off_c, 6, 61, 95
4, 298800, Note_on_c, 6, 78, 95
4, 298800, Note_on_c, 6, 66, 95
4, 298800, Note_on_c, 6, 61, 95
4, 299040, Note_off_c, 6, 78, 95
4, 299040, Note_off_c, 6, 66, 95
4, 299040, Note_off_c, 6, 61, 95
4, 299040, Note_on_c, 6, 78, 95
4, 299040, Note_on_c, 6, 66, 95
4, 299040, Note_on_c, 6, 61, 95
4, 299280, Note_off_c, 6, 78, 95
4, 299280, Note_off_c, 6, 66, 95
4, 299280, Note_off_c, 6, 61, 95
4, 299280, Note_on_c, 6, 78, 95
4, 299280, Note_on_c, 6, 66, 95
4, 299280, Note_on_c, 6, 61, 95
4, 299520, Note_off_c, 6, 78, 95
4, 299520, Note_off_c, 6, 66, 95
4, 299520, Note_off_c, 6, 61, 95
4, 299520, Note_on_c, 6, 78, 95
4, 299520, Note_on_c, 6, 66, 95
4, 299520, Note_on_c, 6, 61, 95
4, 299760, Note_off_c, 6, 78, 95
4, 299760, Note_off_c, 6, 66, 95
4, 299760, Note_off_c, 6, 61, 95
4, 299760, Note_on_c, 6, 78, 95
4, 299760, Note_on_c, 6, 66, 95
4, 299760, Note_on_c, 6, 61, 95
4, 300000, Note_off_c, 6, 78, 95
4, 300000, Note_off_c, 6, 66, 95
4, 300000, Note_off_c, 6, 61, 95
4, 300000, Note_on_c, 6, 80, 95
4, 300000, Note_on_c, 6, 68, 95
4, 300000, Note_on_c, 6, 63, 95
4, 300240, Note_off_c, 6, 80, 95
4, 300240, Note_off_c, 6, 68, 95
4, 300240, Note_off_c, 6, 63, 95
4, 300240, Note_on_c, 6, 80, 95
4, 300240, Note_on_c, 6, 68, 95
4, 300240, Note_on_c, 6, 63, 95
4, 300480, Note_off_c, 6, 80, 95
4, 300480, Note_off_c, 6, 68, 95
4, 300480, Note_off_c, 6, 63, 95
4, 300480, Note_on_c, 6, 80, 95
4, 300480, Note_on_c, 6, 68, 95
4, 300480, Note_on_c, 6, 63, 95
4, 300720, Note_off_c, 6, 80, 95
4, 300720, Note_off_c, 6, 68, 95
4, 300720, Note_off_c, 6, 63, 95
4, 300720, Note_on_c, 6, 80, 95
4, 300720, Note_on_c, 6, 68, 95
4, 300720, Note_on_c, 6, 63, 95
4, 300960, Note_off_c, 6, 80, 95
4, 300960, Note_off_c, 6, 68, 95
4, 300960, Note_off_c, 6, 63, 95
4, 300960, Note_on_c, 6, 80, 95
4, 300960, Note_on_c, 6, 68, 95
4, 300960, Note_on_c, 6, 63, 95
4, 301200, Note_off_c, 6, 80, 95
4, 301200, Note_off_c, 6, 68, 95
4, 301200, Note_off_c, 6, 63, 95
4, 301200, Note_on_c, 6, 80, 95
4, 301200, Note_on_c, 6, 68, 95
4, 301200, Note_on_c, 6, 63, 95
4, 301440, Note_off_c, 6, 80, 95
4, 301440, Note_off_c, 6, 68, 95
4, 301440, Note_off_c, 6, 63, 95
4, 301440, Note_on_c, 6, 80, 95
4, 301440, Note_on_c, 6, 68, 95
4, 301440, Note_on_c, 6, 63, 95
4, 301680, Note_off_c, 6, 80, 95
4, 301680, Note_off_c, 6, 68, 95
4, 301680, Note_off_c, 6, 63, 95
4, 301680, Note_on_c, 6, 80, 95
4, 301680, Note_on_c, 6, 68, 95
4, 301680, Note_on_c, 6, 63, 95
4, 301920, Note_off_c, 6, 80, 95
4, 301920, Note_off_c, 6, 68, 95
4, 301920, Note_off_c, 6, 63, 95
4, 301920, Note_on_c, 6, 80, 95
4, 301920, Note_on_c, 6, 68, 95
4, 301920, Note_on_c, 6, 63, 95
4, 302160, Note_off_c, 6, 80, 95
4, 302160, Note_off_c, 6, 68, 95
4, 302160, Note_off_c, 6, 63, 95
4, 302160, Note_on_c, 6, 80, 95
4, 302160, Note_on_c, 6, 68, 95
4, 302160, Note_on_c, 6, 63, 95
4, 302400, Note_off_c, 6, 80, 95
4, 302400, Note_off_c, 6, 68, 95
4, 302400, Note_off_c, 6, 63, 95
4, 302400, Note_on_c, 6, 80, 95
4, 302400, Note_on_c, 6, 68, 95
4, 302400, Note_on_c, 6, 63, 95
4, 302640, Note_off_c, 6, 80, 95
4, 302640, Note_off_c, 6, 68, 95
4, 302640, Note_off_c, 6, 63, 95
4, 302640, Note_on_c, 6, 80, 95
4, 302640, Note_on_c, 6, 68, 95
4, 302640, Note_on_c, 6, 63, 95
4, 302880, Note_off_c, 6, 80, 95
4, 302880, Note_off_c, 6, 68, 95
4, 302880, Note_off_c, 6, 63, 95
4, 302880, Note_on_c, 6, 80, 95
4, 302880, Note_on_c, 6, 68, 95
4, 302880, Note_on_c, 6, 63, 95
4, 303120, Note_off_c, 6, 80, 95
4, 303120, Note_off_c, 6, 68, 95
4, 303120, Note_off_c, 6, 63, 95
4, 303120, Note_on_c, 6, 80, 95
4, 303120, Note_on_c, 6, 68, 95
4, 303120, Note_on_c, 6, 63, 95
4, 303360, Note_off_c, 6, 80, 95
4, 303360, Note_off_c, 6, 68, 95
4, 303360, Note_off_c, 6, 63, 95
4, 303360, Note_on_c, 6, 80, 95
4, 303360, Note_on_c, 6, 68, 95
4, 303360, Note_on_c, 6, 63, 95
4, 303600, Note_off_c, 6, 80, 95
4, 303600, Note_off_c, 6, 68, 95
4, 303600, Note_off_c, 6, 63, 95
4, 303600, Note_on_c, 6, 80, 95
4, 303600, Note_on_c, 6, 68, 95
4, 303600, Note_on_c, 6, 63, 95
4, 303840, Note_off_c, 6, 80, 95
4, 303840, Note_off_c, 6, 68, 95
4, 303840, Note_off_c, 6, 63, 95
4, 303840, Note_on_c, 6, 80, 95
4, 303840, Note_on_c, 6, 68, 95
4, 303840, Note_on_c, 6, 63, 95
4, 304080, Note_off_c, 6, 80, 95
4, 304080, Note_off_c, 6, 68, 95
4, 304080, Note_off_c, 6, 63, 95
4, 304080, Note_on_c, 6, 80, 95
4, 304080, Note_on_c, 6, 68, 95
4, 304080, Note_on_c, 6, 63, 95
4, 304320, Note_off_c, 6, 80, 95
4, 304320, Note_off_c, 6, 68, 95
4, 304320, Note_off_c, 6, 63, 95
4, 304320, Note_on_c, 6, 80, 95
4, 304320, Note_on_c, 6, 68, 95
4, 304320, Note_on_c, 6, 63, 95
4, 304560, Note_off_c, 6, 80, 95
4, 304560, Note_off_c, 6, 68, 95
4, 304560, Note_off_c, 6, 63, 95
4, 304560, Note_on_c, 6, 80, 95
4, 304560, Note_on_c, 6, 68, 95
4, 304560, Note_on_c, 6, 63, 95
4, 304800, Note_off_c, 6, 80, 95
4, 304800, Note_off_c, 6, 68, 95
4, 304800, Note_off_c, 6, 63, 95
4, 304800, Note_on_c, 6, 80, 95
4, 304800, Note_on_c, 6, 68, 95
4, 304800, Note_on_c, 6, 63, 95
4, 305040, Note_off_c, 6, 80, 95
4, 305040, Note_off_c, 6, 68, 95
4, 305040, Note_off_c, 6, 63, 95
4, 305040, Note_on_c, 6, 80, 95
4, 305040, Note_on_c, 6, 68, 95
4, 305040, Note_on_c, 6, 63, 95
4, 305280, Note_off_c, 6, 80, 95
4, 305280, Note_off_c, 6, 68, 95
4, 305280, Note_off_c, 6, 63, 95
4, 305280, Note_on_c, 6, 80, 95
4, 305280, Note_on_c, 6, 68, 95
4, 305280, Note_on_c, 6, 63, 95
4, 305520, Note_off_c, 6, 80, 95
4, 305520, Note_off_c, 6, 68, 95
4, 305520, Note_off_c, 6, 63, 95
4, 305520, Note_on_c, 6, 80, 95
4, 305520, Note_on_c, 6, 68, 95
4, 305520, Note_on_c, 6, 63, 95
4, 305760, Note_off_c, 6, 80, 95
4, 305760, Note_off_c, 6, 68, 95
4, 305760, Note_off_c, 6, 63, 95
4, 305760, Note_on_c, 6, 80, 95
4, 305760, Note_on_c, 6, 68, 95
4, 305760, Note_on_c, 6, 63, 95
4, 306000, Note_off_c, 6, 80, 95
4, 306000, Note_off_c, 6, 68, 95
4, 306000, Note_off_c, 6, 63, 95
4, 306000, Note_on_c, 6, 80, 95
4, 306000, Note_on_c, 6, 68, 95
4, 306000, Note_on_c, 6, 63, 95
4, 306240, Note_off_c, 6, 80, 95
4, 306240, Note_off_c, 6, 68, 95
4, 306240, Note_off_c, 6, 63, 95
4, 306240, Note_on_c, 6, 80, 95
4, 306240, Note_on_c, 6, 68, 95
4, 306240, Note_on_c, 6, 63, 95
4, 306480, Note_off_c, 6, 80, 95
4, 306480, Note_off_c, 6, 68, 95
4, 306480, Note_off_c, 6, 63, 95
4, 306480, Note_on_c, 6, 80, 95
4, 306480, Note_on_c, 6, 68, 95
4, 306480, Note_on_c, 6, 63, 95
4, 306720, Note_off_c, 6, 80, 95
4, 306720, Note_off_c, 6, 68, 95
4, 306720, Note_off_c, 6, 63, 95
4, 306720, Note_on_c, 6, 80, 95
4, 306720, Note_on_c, 6, 68, 95
4, 306720, Note_on_c, 6, 63, 95
4, 306960, Note_off_c, 6, 80, 95
4, 306960, Note_off_c, 6, 68, 95
4, 306960, Note_off_c, 6, 63, 95
4, 306960, Note_on_c, 6, 80, 95
4, 306960, Note_on_c, 6, 68, 95
4, 306960, Note_on_c, 6, 63, 95
4, 307200, Note_off_c, 6, 80, 95
4, 307200, Note_off_c, 6, 68, 95
4, 307200, Note_off_c, 6, 63, 95
4, 307200, Note_on_c, 6, 80, 95
4, 307200, Note_on_c, 6, 68, 95
4, 307200, Note_on_c, 6, 63, 95
4, 307440, Note_off_c, 6, 80, 95
4, 307440, Note_off_c, 6, 68, 95
4, 307440, Note_off_c, 6, 63, 95
4, 307440, Note_on_c, 6, 80, 95
4, 307440, Note_on_c, 6, 68, 95
4, 307440, Note_on_c, 6, 63, 95
4, 307680, Note_off_c, 6, 80, 95
4, 307680, Note_off_c, 6, 68, 95
4, 307680, Note_off_c, 6, 63, 95
4, 307680, Note_on_c, 6, 78, 95
4, 307680, Note_on_c, 6, 66, 95
4, 307680, Note_on_c, 6, 61, 95
4, 307920, Note_off_c, 6, 78, 95
4, 307920, Note_off_c, 6, 66, 95
4, 307920, Note_off_c, 6, 61, 95
4, 307920, Note_on_c, 6, 78, 95
4, 307920, Note_on_c, 6, 66, 95
4, 307920, Note_on_c, 6, 61, 95
4, 308160, Note_off_c, 6, 78, 95
4, 308160, Note_off_c, 6, 66, 95
4, 308160, Note_off_c, 6, 61, 95
4, 308160, Note_on_c, 6, 78, 95
4, 308160, Note_on_c, 6, 66, 95
4, 308160, Note_on_c, 6, 61, 95
4, 308400, Note_off_c, 6, 78, 95
4, 308400, Note_off_c, 6, 66, 95
4, 308400, Note_off_c, 6, 61, 95
4, 308400, Note_on_c, 6, 78, 95
4, 308400, Note_on_c, 6, 66, 95
4, 308400, Note_on_c, 6, 61, 95
4, 308640, Note_off_c, 6, 78, 95
4, 308640, Note_off_c, 6, 66, 95
4, 308640, Note_off_c, 6, 61, 95
4, 308640, Note_on_c, 6, 78, 95
4, 308640, Note_on_c, 6, 66, 95
4, 308640, Note_on_c, 6, 61, 95
4, 308880, Note_off_c, 6, 78, 95
4, 308880, Note_off_c, 6, 66, 95
4, 308880, Note_off_c, 6, 61, 95
4, 308880, Note_on_c, 6, 78, 95
4, 308880, Note_on_c, 6, 66, 95
4, 308880, Note_on_c, 6, 61, 95
4, 309120, Note_off_c, 6, 78, 95
4, 309120, Note_off_c, 6, 66, 95
4, 309120, Note_off_c, 6, 61, 95
4, 309120, Note_on_c, 6, 78, 95
4, 309120, Note_on_c, 6, 66, 95
4, 309120, Note_on_c, 6, 61, 95
4, 309360, Note_off_c, 6, 78, 95
4, 309360, Note_off_c, 6, 66, 95
4, 309360, Note_off_c, 6, 61, 95
4, 309360, Note_on_c, 6, 78, 95
4, 309360, Note_on_c, 6, 66, 95
4, 309360, Note_on_c, 6, 61, 95
4, 309600, Note_off_c, 6, 78, 95
4, 309600, Note_off_c, 6, 66, 95
4, 309600, Note_off_c, 6, 61, 95
4, 309600, Note_on_c, 6, 78, 95
4, 309600, Note_on_c, 6, 66, 95
4, 309600, Note_on_c, 6, 61, 95
4, 309840, Note_off_c, 6, 78, 95
4, 309840, Note_off_c, 6, 66, 95
4, 309840, Note_off_c, 6, 61, 95
4, 309840, Note_on_c, 6, 78, 95
4, 309840, Note_on_c, 6, 66, 95
4, 309840, Note_on_c, 6, 61, 95
4, 310080, Note_off_c, 6, 78, 95
4, 310080, Note_off_c, 6, 66, 95
4, 310080, Note_off_c, 6, 61, 95
4, 310080, Note_on_c, 6, 78, 95
4, 310080, Note_on_c, 6, 66, 95
4, 310080, Note_on_c, 6, 61, 95
4, 310320, Note_off_c, 6, 78, 95
4, 310320, Note_off_c, 6, 66, 95
4, 310320, Note_off_c, 6, 61, 95
4, 310320, Note_on_c, 6, 78, 95
4, 310320, Note_on_c, 6, 66, 95
4, 310320, Note_on_c, 6, 61, 95
4, 310560, Note_off_c, 6, 78, 95
4, 310560, Note_off_c, 6, 66, 95
4, 310560, Note_off_c, 6, 61, 95
4, 310560, Note_on_c, 6, 78, 95
4, 310560, Note_on_c, 6, 66, 95
4, 310560, Note_on_c, 6, 61, 95
4, 310800, Note_off_c, 6, 78, 95
4, 310800, Note_off_c, 6, 66, 95
4, 310800, Note_off_c, 6, 61, 95
4, 310800, Note_on_c, 6, 78, 95
4, 310800, Note_on_c, 6, 66, 95
4, 310800, Note_on_c, 6, 61, 95
4, 311040, Note_off_c, 6, 78, 95
4, 311040, Note_off_c, 6, 66, 95
4, 311040, Note_off_c, 6, 61, 95
4, 311040, Note_on_c, 6, 78, 95
4, 311040, Note_on_c, 6, 66, 95
4, 311040, Note_on_c, 6, 61, 95
4, 311280, Note_off_c, 6, 78, 95
4, 311280, Note_off_c, 6, 66, 95
4, 311280, Note_off_c, 6, 61, 95
4, 311280, Note_on_c, 6, 78, 95
4, 311280, Note_on_c, 6, 66, 95
4, 311280, Note_on_c, 6, 61, 95
4, 311520, Note_off_c, 6, 78, 95
4, 311520, Note_off_c, 6, 66, 95
4, 311520, Note_off_c, 6, 61, 95
4, 311520, Note_on_c, 6, 78, 95
4, 311520, Note_on_c, 6, 66, 95
4, 311520, Note_on_c, 6, 61, 95
4, 311760, Note_off_c, 6, 78, 95
4, 311760, Note_off_c, 6, 66, 95
4, 311760, Note_off_c, 6, 61, 95
4, 311760, Note_on_c, 6, 78, 95
4, 311760, Note_on_c, 6, 66, 95
4, 311760, Note_on_c, 6, 61, 95
4, 312000, Note_off_c, 6, 78, 95
4, 312000, Note_off_c, 6, 66, 95
4, 312000, Note_off_c, 6, 61, 95
4, 312000, Note_on_c, 6, 78, 95
4, 312000, Note_on_c, 6, 66, 95
4, 312000, Note_on_c, 6, 61, 95
4, 312240, Note_off_c, 6, 78, 95
4, 312240, Note_off_c, 6, 66, 95
4, 312240, Note_off_c, 6, 61, 95
4, 312240, Note_on_c, 6, 78, 95
4, 312240, Note_on_c, 6, 66, 95
4, 312240, Note_on_c, 6, 61, 95
4, 312480, Note_off_c, 6, 78, 95
4, 312480, Note_off_c, 6, 66, 95
4, 312480, Note_off_c, 6, 61, 95
4, 312480, Note_on_c, 6, 78, 95
4, 312480, Note_on_c, 6, 66, 95
4, 312480, Note_on_c, 6, 61, 95
4, 312720, Note_off_c, 6, 78, 95
4, 312720, Note_off_c, 6, 66, 95
4, 312720, Note_off_c, 6, 61, 95
4, 312720, Note_on_c, 6, 78, 95
4, 312720, Note_on_c, 6, 66, 95
4, 312720, Note_on_c, 6, 61, 95
4, 312960, Note_off_c, 6, 78, 95
4, 312960, Note_off_c, 6, 66, 95
4, 312960, Note_off_c, 6, 61, 95
4, 312960, Note_on_c, 6, 78, 95
4, 312960, Note_on_c, 6, 66, 95
4, 312960, Note_on_c, 6, 61, 95
4, 313200, Note_off_c, 6, 78, 95
4, 313200, Note_off_c, 6, 66, 95
4, 313200, Note_off_c, 6, 61, 95
4, 313200, Note_on_c, 6, 78, 95
4, 313200, Note_on_c, 6, 66, 95
4, 313200, Note_on_c, 6, 61, 95
4, 313440, Note_off_c, 6, 78, 95
4, 313440, Note_off_c, 6, 66, 95
4, 313440, Note_off_c, 6, 61, 95
4, 313440, Note_on_c, 6, 78, 95
4, 313440, Note_on_c, 6, 66, 95
4, 313440, Note_on_c, 6, 61, 95
4, 313680, Note_off_c, 6, 78, 95
4, 313680, Note_off_c, 6, 66, 95
4, 313680, Note_off_c, 6, 61, 95
4, 313680, Note_on_c, 6, 78, 95
4, 313680, Note_on_c, 6, 66, 95
4, 313680, Note_on_c, 6, 61, 95
4, 313920, Note_off_c, 6, 78, 95
4, 313920, Note_off_c, 6, 66, 95
4, 313920, Note_off_c, 6, 61, 95
4, 313920, Note_on_c, 6, 76, 95
4, 313920, Note_on_c, 6, 64, 95
4, 313920, Note_on_c, 6, 59, 95
4, 314160, Note_off_c, 6, 76, 95
4, 314160, Note_off_c, 6, 64, 95
4, 314160, Note_off_c, 6, 59, 95
4, 314160, Note_on_c, 6, 76, 95
4, 314160, Note_on_c, 6, 64, 95
4, 314160, Note_on_c, 6, 59, 95
4, 314400, Note_off_c, 6, 76, 95
4, 314400, Note_off_c, 6, 64, 95
4, 314400, Note_off_c, 6, 59, 95
4, 314400, Note_on_c, 6, 76, 95
4, 314400, Note_on_c, 6, 64, 95
4, 314400, Note_on_c, 6, 59, 95
4, 314640, Note_off_c, 6, 76, 95
4, 314640, Note_off_c, 6, 64, 95
4, 314640, Note_off_c, 6, 59, 95
4, 314640, Note_on_c, 6, 76, 95
4, 314640, Note_on_c, 6, 64, 95
4, 314640, Note_on_c, 6, 59, 95
4, 314880, Note_off_c, 6, 76, 95
4, 314880, Note_off_c, 6, 64, 95
4, 314880, Note_off_c, 6, 59, 95
4, 314880, Note_on_c, 6, 76, 95
4, 314880, Note_on_c, 6, 64, 95
4, 314880, Note_on_c, 6, 59, 95
4, 315120, Note_off_c, 6, 76, 95
4, 315120, Note_off_c, 6, 64, 95
4, 315120, Note_off_c, 6, 59, 95
4, 315120, Note_on_c, 6, 76, 95
4, 315120, Note_on_c, 6, 64, 95
4, 315120, Note_on_c, 6, 59, 95
4, 315360, Note_off_c, 6, 76, 95
4, 315360, Note_off_c, 6, 64, 95
4, 315360, Note_off_c, 6, 59, 95
4, 315360, Note_on_c, 6, 76, 95
4, 315360, Note_on_c, 6, 64, 95
4, 315360, Note_on_c, 6, 59, 95
4, 315600, Note_off_c, 6, 76, 95
4, 315600, Note_off_c, 6, 64, 95
4, 315600, Note_off_c, 6, 59, 95
4, 315600, Note_on_c, 6, 76, 95
4, 315600, Note_on_c, 6, 64, 95
4, 315600, Note_on_c, 6, 59, 95
4, 315840, Note_off_c, 6, 76, 95
4, 315840, Note_off_c, 6, 64, 95
4, 315840, Note_off_c, 6, 59, 95
4, 315840, Note_on_c, 6, 76, 95
4, 315840, Note_on_c, 6, 64, 95
4, 315840, Note_on_c, 6, 59, 95
4, 316080, Note_off_c, 6, 76, 95
4, 316080, Note_off_c, 6, 64, 95
4, 316080, Note_off_c, 6, 59, 95
4, 316080, Note_on_c, 6, 76, 95
4, 316080, Note_on_c, 6, 64, 95
4, 316080, Note_on_c, 6, 59, 95
4, 316320, Note_off_c, 6, 76, 95
4, 316320, Note_off_c, 6, 64, 95
4, 316320, Note_off_c, 6, 59, 95
4, 316320, Note_on_c, 6, 76, 95
4, 316320, Note_on_c, 6, 64, 95
4, 316320, Note_on_c, 6, 59, 95
4, 316560, Note_off_c, 6, 76, 95
4, 316560, Note_off_c, 6, 64, 95
4, 316560, Note_off_c, 6, 59, 95
4, 316560, Note_on_c, 6, 76, 95
4, 316560, Note_on_c, 6, 64, 95
4, 316560, Note_on_c, 6, 59, 95
4, 316800, Note_off_c, 6, 76, 95
4, 316800, Note_off_c, 6, 64, 95
4, 316800, Note_off_c, 6, 59, 95
4, 316800, Note_on_c, 6, 76, 95
4, 316800, Note_on_c, 6, 64, 95
4, 316800, Note_on_c, 6, 59, 95
4, 317040, Note_off_c, 6, 76, 95
4, 317040, Note_off_c, 6, 64, 95
4, 317040, Note_off_c, 6, 59, 95
4, 317040, Note_on_c, 6, 76, 95
4, 317040, Note_on_c, 6, 64, 95
4, 317040, Note_on_c, 6, 59, 95
4, 317280, Note_off_c, 6, 76, 95
4, 317280, Note_off_c, 6, 64, 95
4, 317280, Note_off_c, 6, 59, 95
4, 317280, Note_on_c, 6, 76, 95
4, 317280, Note_on_c, 6, 64, 95
4, 317280, Note_on_c, 6, 59, 95
4, 317520, Note_off_c, 6, 76, 95
4, 317520, Note_off_c, 6, 64, 95
4, 317520, Note_off_c, 6, 59, 95
4, 317520, Note_on_c, 6, 76, 95
4, 317520, Note_on_c, 6, 64, 95
4, 317520, Note_on_c, 6, 59, 95
4, 317760, Note_off_c, 6, 76, 95
4, 317760, Note_off_c, 6, 64, 95
4, 317760, Note_off_c, 6, 59, 95
4, 317760, Note_on_c, 6, 76, 95
4, 317760, Note_on_c, 6, 64, 95
4, 317760, Note_on_c, 6, 59, 95
4, 318000, Note_off_c, 6, 76, 95
4, 318000, Note_off_c, 6, 64, 95
4, 318000, Note_off_c, 6, 59, 95
4, 318000, Note_on_c, 6, 76, 95
4, 318000, Note_on_c, 6, 64, 95
4, 318000, Note_on_c, 6, 59, 95
4, 318240, Note_off_c, 6, 76, 95
4, 318240, Note_off_c, 6, 64, 95
4, 318240, Note_off_c, 6, 59, 95
4, 318240, Note_on_c, 6, 76, 95
4, 318240, Note_on_c, 6, 64, 95
4, 318240, Note_on_c, 6, 59, 95
4, 318480, Note_off_c, 6, 76, 95
4, 318480, Note_off_c, 6, 64, 95
4, 318480, Note_off_c, 6, 59, 95
4, 318480, Note_on_c, 6, 76, 95
4, 318480, Note_on_c, 6, 64, 95
4, 318480, Note_on_c, 6, 59, 95
4, 318720, Note_off_c, 6, 76, 95
4, 318720, Note_off_c, 6, 64, 95
4, 318720, Note_off_c, 6, 59, 95
4, 318720, Note_on_c, 6, 76, 95
4, 318720, Note_on_c, 6, 64, 95
4, 318720, Note_on_c, 6, 59, 95
4, 318960, Note_off_c, 6, 76, 95
4, 318960, Note_off_c, 6, 64, 95
4, 318960, Note_off_c, 6, 59, 95
4, 318960, Note_on_c, 6, 76, 95
4, 318960, Note_on_c, 6, 64, 95
4, 318960, Note_on_c, 6, 59, 95
4, 319200, Note_off_c, 6, 76, 95
4, 319200, Note_off_c, 6, 64, 95
4, 319200, Note_off_c, 6, 59, 95
4, 319200, Note_on_c, 6, 76, 95
4, 319200, Note_on_c, 6, 64, 95
4, 319200, Note_on_c, 6, 59, 95
4, 319440, Note_off_c, 6, 76, 95
4, 319440, Note_off_c, 6, 64, 95
4, 319440, Note_off_c, 6, 59, 95
4, 319440, Note_on_c, 6, 76, 95
4, 319440, Note_on_c, 6, 64, 95
4, 319440, Note_on_c, 6, 59, 95
4, 319680, Note_off_c, 6, 76, 95
4, 319680, Note_off_c, 6, 64, 95
4, 319680, Note_off_c, 6, 59, 95
4, 319680, Note_on_c, 6, 76, 95
4, 319680, Note_on_c, 6, 64, 95
4, 319680, Note_on_c, 6, 59, 95
4, 319920, Note_off_c, 6, 76, 95
4, 319920, Note_off_c, 6, 64, 95
4, 319920, Note_off_c, 6, 59, 95
4, 319920, Note_on_c, 6, 76, 95
4, 319920, Note_on_c, 6, 64, 95
4, 319920, Note_on_c, 6, 59, 95
4, 320160, Note_off_c, 6, 76, 95
4, 320160, Note_off_c, 6, 64, 95
4, 320160, Note_off_c, 6, 59, 95
4, 320160, Note_on_c, 6, 76, 95
4, 320160, Note_on_c, 6, 64, 95
4, 320160, Note_on_c, 6, 59, 95
4, 320400, Note_off_c, 6, 76, 95
4, 320400, Note_off_c, 6, 64, 95
4, 320400, Note_off_c, 6, 59, 95
4, 320400, Note_on_c, 6, 76, 95
4, 320400, Note_on_c, 6, 64, 95
4, 320400, Note_on_c, 6, 59, 95
4, 320640, Note_off_c, 6, 76, 95
4, 320640, Note_off_c, 6, 64, 95
4, 320640, Note_off_c, 6, 59, 95
4, 320640, Note_on_c, 6, 76, 95
4, 320640, Note_on_c, 6, 64, 95
4, 320640, Note_on_c, 6, 59, 95
4, 320880, Note_off_c, 6, 76, 95
4, 320880, Note_off_c, 6, 64, 95
4, 320880, Note_off_c, 6, 59, 95
4, 320880, Note_on_c, 6, 76, 95
4, 320880, Note_on_c, 6, 64, 95
4, 320880, Note_on_c, 6, 59, 95
4, 321120, Note_off_c, 6, 76, 95
4, 321120, Note_off_c, 6, 64, 95
4, 321120, Note_off_c, 6, 59, 95
4, 321120, Note_on_c, 6, 76, 95
4, 321120, Note_on_c, 6, 64, 95
4, 321120, Note_on_c, 6, 59, 95
4, 321360, Note_off_c, 6, 76, 95
4, 321360, Note_off_c, 6, 64, 95
4, 321360, Note_off_c, 6, 59, 95
4, 321360, Note_on_c, 6, 76, 95
4, 321360, Note_on_c, 6, 64, 95
4, 321360, Note_on_c, 6, 59, 95
4, 321600, Note_off_c, 6, 76, 95
4, 321600, Note_off_c, 6, 64, 95
4, 321600, Note_off_c, 6, 59, 95
4, 321600, Note_on_c, 6, 78, 95
4, 321600, Note_on_c, 6, 66, 95
4, 321600, Note_on_c, 6, 61, 95
4, 321840, Note_off_c, 6, 78, 95
4, 321840, Note_off_c, 6, 66, 95
4, 321840, Note_off_c, 6, 61, 95
4, 321840, Note_on_c, 6, 78, 95
4, 321840, Note_on_c, 6, 66, 95
4, 321840, Note_on_c, 6, 61, 95
4, 322080, Note_off_c, 6, 78, 95
4, 322080, Note_off_c, 6, 66, 95
4, 322080, Note_off_c, 6, 61, 95
4, 322080, Note_on_c, 6, 78, 95
4, 322080, Note_on_c, 6, 66, 95
4, 322080, Note_on_c, 6, 61, 95
4, 322320, Note_off_c, 6, 78, 95
4, 322320, Note_off_c, 6, 66, 95
4, 322320, Note_off_c, 6, 61, 95
4, 322320, Note_on_c, 6, 78, 95
4, 322320, Note_on_c, 6, 66, 95
4, 322320, Note_on_c, 6, 61, 95
4, 322560, Note_off_c, 6, 78, 95
4, 322560, Note_off_c, 6, 66, 95
4, 322560, Note_off_c, 6, 61, 95
4, 322560, Note_on_c, 6, 78, 95
4, 322560, Note_on_c, 6, 66, 95
4, 322560, Note_on_c, 6, 61, 95
4, 322800, Note_off_c, 6, 78, 95
4, 322800, Note_off_c, 6, 66, 95
4, 322800, Note_off_c, 6, 61, 95
4, 322800, Note_on_c, 6, 78, 95
4, 322800, Note_on_c, 6, 66, 95
4, 322800, Note_on_c, 6, 61, 95
4, 323040, Note_off_c, 6, 78, 95
4, 323040, Note_off_c, 6, 66, 95
4, 323040, Note_off_c, 6, 61, 95
4, 323040, Note_on_c, 6, 78, 95
4, 323040, Note_on_c, 6, 66, 95
4, 323040, Note_on_c, 6, 61, 95
4, 323280, Note_off_c, 6, 78, 95
4, 323280, Note_off_c, 6, 66, 95
4, 323280, Note_off_c, 6, 61, 95
4, 323280, Note_on_c, 6, 78, 95
4, 323280, Note_on_c, 6, 66, 95
4, 323280, Note_on_c, 6, 61, 95
4, 323520, Note_off_c, 6, 78, 95
4, 323520, Note_off_c, 6, 66, 95
4, 323520, Note_off_c, 6, 61, 95
4, 323520, Note_on_c, 6, 78, 95
4, 323520, Note_on_c, 6, 66, 95
4, 323520, Note_on_c, 6, 61, 95
4, 323760, Note_off_c, 6, 78, 95
4, 323760, Note_off_c, 6, 66, 95
4, 323760, Note_off_c, 6, 61, 95
4, 323760, Note_on_c, 6, 78, 95
4, 323760, Note_on_c, 6, 66, 95
4, 323760, Note_on_c, 6, 61, 95
4, 324000, Note_off_c, 6, 78, 95
4, 324000, Note_off_c, 6, 66, 95
4, 324000, Note_off_c, 6, 61, 95
4, 324000, Note_on_c, 6, 78, 95
4, 324000, Note_on_c, 6, 66, 95
4, 324000, Note_on_c, 6, 61, 95
4, 324240, Note_off_c, 6, 78, 95
4, 324240, Note_off_c, 6, 66, 95
4, 324240, Note_off_c, 6, 61, 95
4, 324240, Note_on_c, 6, 78, 95
4, 324240, Note_on_c, 6, 66, 95
4, 324240, Note_on_c, 6, 61, 95
4, 324480, Note_off_c, 6, 78, 95
4, 324480, Note_off_c, 6, 66, 95
4, 324480, Note_off_c, 6, 61, 95
4, 324480, Note_on_c, 6, 78, 95
4, 324480, Note_on_c, 6, 66, 95
4, 324480, Note_on_c, 6, 61, 95
4, 324720, Note_off_c, 6, 78, 95
4, 324720, Note_off_c, 6, 66, 95
4, 324720, Note_off_c, 6, 61, 95
4, 324720, Note_on_c, 6, 78, 95
4, 324720, Note_on_c, 6, 66, 95
4, 324720, Note_on_c, 6, 61, 95
4, 324960, Note_off_c, 6, 78, 95
4, 324960, Note_off_c, 6, 66, 95
4, 324960, Note_off_c, 6, 61, 95
4, 324960, Note_on_c, 6, 78, 95
4, 324960, Note_on_c, 6, 66, 95
4, 324960, Note_on_c, 6, 61, 95
4, 325200, Note_off_c, 6, 78, 95
4, 325200, Note_off_c, 6, 66, 95
4, 325200, Note_off_c, 6, 61, 95
4, 325200, Note_on_c, 6, 78, 95
4, 325200, Note_on_c, 6, 66, 95
4, 325200, Note_on_c, 6, 61, 95
4, 325440, Note_off_c, 6, 78, 95
4, 325440, Note_off_c, 6, 66, 95
4, 325440, Note_off_c, 6, 61, 95
4, 325440, Note_on_c, 6, 78, 95
4, 325440, Note_on_c, 6, 66, 95
4, 325440, Note_on_c, 6, 61, 95
4, 325680, Note_off_c, 6, 78, 95
4, 325680, Note_off_c, 6, 66, 95
4, 325680, Note_off_c, 6, 61, 95
4, 325680, Note_on_c, 6, 78, 95
4, 325680, Note_on_c, 6, 66, 95
4, 325680, Note_on_c, 6, 61, 95
4, 325920, Note_off_c, 6, 78, 95
4, 325920, Note_off_c, 6, 66, 95
4, 325920, Note_off_c, 6, 61, 95
4, 325920, Note_on_c, 6, 78, 95
4, 325920, Note_on_c, 6, 66, 95
4, 325920, Note_on_c, 6, 61, 95
4, 326160, Note_off_c, 6, 78, 95
4, 326160, Note_off_c, 6, 66, 95
4, 326160, Note_off_c, 6, 61, 95
4, 326160, Note_on_c, 6, 78, 95
4, 326160, Note_on_c, 6, 66, 95
4, 326160, Note_on_c, 6, 61, 95
4, 326400, Note_off_c, 6, 78, 95
4, 326400, Note_off_c, 6, 66, 95
4, 326400, Note_off_c, 6, 61, 95
4, 326400, Note_on_c, 6, 78, 95
4, 326400, Note_on_c, 6, 66, 95
4, 326400, Note_on_c, 6, 61, 95
4, 326640, Note_off_c, 6, 78, 95
4, 326640, Note_off_c, 6, 66, 95
4, 326640, Note_off_c, 6, 61, 95
4, 326640, Note_on_c, 6, 78, 95
4, 326640, Note_on_c, 6, 66, 95
4, 326640, Note_on_c, 6, 61, 95
4, 326880, Note_off_c, 6, 78, 95
4, 326880, Note_off_c, 6, 66, 95
4, 326880, Note_off_c, 6, 61, 95
4, 326880, Note_on_c, 6, 78, 95
4, 326880, Note_on_c, 6, 66, 95
4, 326880, Note_on_c, 6, 61, 95
4, 327120, Note_off_c, 6, 78, 95
4, 327120, Note_off_c, 6, 66, 95
4, 327120, Note_off_c, 6, 61, 95
4, 327120, Note_on_c, 6, 78, 95
4, 327120, Note_on_c, 6, 66, 95
4, 327120, Note_on_c, 6, 61, 95
4, 327360, Note_off_c, 6, 78, 95
4, 327360, Note_off_c, 6, 66, 95
4, 327360, Note_off_c, 6, 61, 95
4, 327360, Note_on_c, 6, 78, 95
4, 327360, Note_on_c, 6, 66, 95
4, 327360, Note_on_c, 6, 61, 95
4, 327600, Note_off_c, 6, 78, 95
4, 327600, Note_off_c, 6, 66, 95
4, 327600, Note_off_c, 6, 61, 95
4, 327600, Note_on_c, 6, 78, 95
4, 327600, Note_on_c, 6, 66, 95
4, 327600, Note_on_c, 6, 61, 95
4, 327840, Note_off_c, 6, 78, 95
4, 327840, Note_off_c, 6, 66, 95
4, 327840, Note_off_c, 6, 61, 95
4, 327840, Note_on_c, 6, 80, 95
4, 327840, Note_on_c, 6, 68, 95
4, 327840, Note_on_c, 6, 63, 95
4, 328080, Note_off_c, 6, 80, 95
4, 328080, Note_off_c, 6, 68, 95
4, 328080, Note_off_c, 6, 63, 95
4, 328080, Note_on_c, 6, 80, 95
4, 328080, Note_on_c, 6, 68, 95
4, 328080, Note_on_c, 6, 63, 95
4, 328320, Note_off_c, 6, 80, 95
4, 328320, Note_off_c, 6, 68, 95
4, 328320, Note_off_c, 6, 63, 95
4, 328320, Note_on_c, 6, 80, 95
4, 328320, Note_on_c, 6, 68, 95
4, 328320, Note_on_c, 6, 63, 95
4, 328560, Note_off_c, 6, 80, 95
4, 328560, Note_off_c, 6, 68, 95
4, 328560, Note_off_c, 6, 63, 95
4, 328560, Note_on_c, 6, 80, 95
4, 328560, Note_on_c, 6, 68, 95
4, 328560, Note_on_c, 6, 63, 95
4, 328800, Note_off_c, 6, 80, 95
4, 328800, Note_off_c, 6, 68, 95
4, 328800, Note_off_c, 6, 63, 95
4, 328800, Note_on_c, 6, 80, 95
4, 328800, Note_on_c, 6, 68, 95
4, 328800, Note_on_c, 6, 63, 95
4, 329040, Note_off_c, 6, 80, 95
4, 329040, Note_off_c, 6, 68, 95
4, 329040, Note_off_c, 6, 63, 95
4, 329040, Note_on_c, 6, 80, 95
4, 329040, Note_on_c, 6, 68, 95
4, 329040, Note_on_c, 6, 63, 95
4, 329280, Note_off_c, 6, 80, 95
4, 329280, Note_off_c, 6, 68, 95
4, 329280, Note_off_c, 6, 63, 95
4, 329280, Note_on_c, 6, 80, 95
4, 329280, Note_on_c, 6, 68, 95
4, 329280, Note_on_c, 6, 63, 95
4, 329520, Note_off_c, 6, 80, 95
4, 329520, Note_off_c, 6, 68, 95
4, 329520, Note_off_c, 6, 63, 95
4, 329520, Note_on_c, 6, 80, 95
4, 329520, Note_on_c, 6, 68, 95
4, 329520, Note_on_c, 6, 63, 95
4, 329760, Note_off_c, 6, 80, 95
4, 329760, Note_off_c, 6, 68, 95
4, 329760, Note_off_c, 6, 63, 95
4, 329760, Note_on_c, 6, 80, 95
4, 329760, Note_on_c, 6, 68, 95
4, 329760, Note_on_c, 6, 63, 95
4, 330000, Note_off_c, 6, 80, 95
4, 330000, Note_off_c, 6, 68, 95
4, 330000, Note_off_c, 6, 63, 95
4, 330000, Note_on_c, 6, 80, 95
4, 330000, Note_on_c, 6, 68, 95
4, 330000, Note_on_c, 6, 63, 95
4, 330240, Note_off_c, 6, 80, 95
4, 330240, Note_off_c, 6, 68, 95
4, 330240, Note_off_c, 6, 63, 95
4, 330240, Note_on_c, 6, 80, 95
4, 330240, Note_on_c, 6, 68, 95
4, 330240, Note_on_c, 6, 63, 95
4, 330480, Note_off_c, 6, 80, 95
4, 330480, Note_off_c, 6, 68, 95
4, 330480, Note_off_c, 6, 63, 95
4, 330480, Note_on_c, 6, 80, 95
4, 330480, Note_on_c, 6, 68, 95
4, 330480, Note_on_c, 6, 63, 95
4, 330720, Note_off_c, 6, 80, 95
4, 330720, Note_off_c, 6, 68, 95
4, 330720, Note_off_c, 6, 63, 95
4, 330720, Note_on_c, 6, 80, 95
4, 330720, Note_on_c, 6, 68, 95
4, 330720, Note_on_c, 6, 63, 95
4, 330960, Note_off_c, 6, 80, 95
4, 330960, Note_off_c, 6, 68, 95
4, 330960, Note_off_c, 6, 63, 95
4, 330960, Note_on_c, 6, 80, 95
4, 330960, Note_on_c, 6, 68, 95
4, 330960, Note_on_c, 6, 63, 95
4, 331200, Note_off_c, 6, 80, 95
4, 331200, Note_off_c, 6, 68, 95
4, 331200, Note_off_c, 6, 63, 95
4, 331200, Note_on_c, 6, 80, 95
4, 331200, Note_on_c, 6, 68, 95
4, 331200, Note_on_c, 6, 63, 95
4, 331440, Note_off_c, 6, 80, 95
4, 331440, Note_off_c, 6, 68, 95
4, 331440, Note_off_c, 6, 63, 95
4, 331440, Note_on_c, 6, 80, 95
4, 331440, Note_on_c, 6, 68, 95
4, 331440, Note_on_c, 6, 63, 95
4, 331680, Note_off_c, 6, 80, 95
4, 331680, Note_off_c, 6, 68, 95
4, 331680, Note_off_c, 6, 63, 95
4, 331680, Note_on_c, 6, 80, 95
4, 331680, Note_on_c, 6, 68, 95
4, 331680, Note_on_c, 6, 63, 95
4, 331920, Note_off_c, 6, 80, 95
4, 331920, Note_off_c, 6, 68, 95
4, 331920, Note_off_c, 6, 63, 95
4, 331920, Note_on_c, 6, 80, 95
4, 331920, Note_on_c, 6, 68, 95
4, 331920, Note_on_c, 6, 63, 95
4, 332160, Note_off_c, 6, 80, 95
4, 332160, Note_off_c, 6, 68, 95
4, 332160, Note_off_c, 6, 63, 95
4, 332160, Note_on_c, 6, 80, 95
4, 332160, Note_on_c, 6, 68, 95
4, 332160, Note_on_c, 6, 63, 95
4, 332400, Note_off_c, 6, 80, 95
4, 332400, Note_off_c, 6, 68, 95
4, 332400, Note_off_c, 6, 63, 95
4, 332400, Note_on_c, 6, 80, 95
4, 332400, Note_on_c, 6, 68, 95
4, 332400, Note_on_c, 6, 63, 95
4, 332640, Note_off_c, 6, 80, 95
4, 332640, Note_off_c, 6, 68, 95
4, 332640, Note_off_c, 6, 63, 95
4, 332640, Note_on_c, 6, 80, 95
4, 332640, Note_on_c, 6, 68, 95
4, 332640, Note_on_c, 6, 63, 95
4, 332880, Note_off_c, 6, 80, 95
4, 332880, Note_off_c, 6, 68, 95
4, 332880, Note_off_c, 6, 63, 95
4, 332880, Note_on_c, 6, 80, 95
4, 332880, Note_on_c, 6, 68, 95
4, 332880, Note_on_c, 6, 63, 95
4, 333120, Note_off_c, 6, 80, 95
4, 333120, Note_off_c, 6, 68, 95
4, 333120, Note_off_c, 6, 63, 95
4, 333120, Note_on_c, 6, 80, 95
4, 333120, Note_on_c, 6, 68, 95
4, 333120, Note_on_c, 6, 63, 95
4, 333360, Note_off_c, 6, 80, 95
4, 333360, Note_off_c, 6, 68, 95
4, 333360, Note_off_c, 6, 63, 95
4, 333360, Note_on_c, 6, 80, 95
4, 333360, Note_on_c, 6, 68, 95
4, 333360, Note_on_c, 6, 63, 95
4, 333600, Note_off_c, 6, 80, 95
4, 333600, Note_off_c, 6, 68, 95
4, 333600, Note_off_c, 6, 63, 95
4, 333600, Note_on_c, 6, 80, 95
4, 333600, Note_on_c, 6, 68, 95
4, 333600, Note_on_c, 6, 63, 95
4, 333840, Note_off_c, 6, 80, 95
4, 333840, Note_off_c, 6, 68, 95
4, 333840, Note_off_c, 6, 63, 95
4, 333840, Note_on_c, 6, 80, 95
4, 333840, Note_on_c, 6, 68, 95
4, 333840, Note_on_c, 6, 63, 95
4, 334080, Note_off_c, 6, 80, 95
4, 334080, Note_off_c, 6, 68, 95
4, 334080, Note_off_c, 6, 63, 95
4, 334080, Note_on_c, 6, 80, 95
4, 334080, Note_on_c, 6, 68, 95
4, 334080, Note_on_c, 6, 63, 95
4, 334320, Note_off_c, 6, 80, 95
4, 334320, Note_off_c, 6, 68, 95
4, 334320, Note_off_c, 6, 63, 95
4, 334320, Note_on_c, 6, 80, 95
4, 334320, Note_on_c, 6, 68, 95
4, 334320, Note_on_c, 6, 63, 95
4, 334560, Note_off_c, 6, 80, 95
4, 334560, Note_off_c, 6, 68, 95
4, 334560, Note_off_c, 6, 63, 95
4, 334560, Note_on_c, 6, 80, 95
4, 334560, Note_on_c, 6, 68, 95
4, 334560, Note_on_c, 6, 63, 95
4, 334800, Note_off_c, 6, 80, 95
4, 334800, Note_off_c, 6, 68, 95
4, 334800, Note_off_c, 6, 63, 95
4, 334800, Note_on_c, 6, 80, 95
4, 334800, Note_on_c, 6, 68, 95
4, 334800, Note_on_c, 6, 63, 95
4, 335040, Note_off_c, 6, 80, 95
4, 335040, Note_off_c, 6, 68, 95
4, 335040, Note_off_c, 6, 63, 95
4, 335040, Note_on_c, 6, 80, 95
4, 335040, Note_on_c, 6, 68, 95
4, 335040, Note_on_c, 6, 63, 95
4, 335280, Note_off_c, 6, 80, 95
4, 335280, Note_off_c, 6, 68, 95
4, 335280, Note_off_c, 6, 63, 95
4, 335280, Note_on_c, 6, 80, 95
4, 335280, Note_on_c, 6, 68, 95
4, 335280, Note_on_c, 6, 63, 95
4, 335520, Note_off_c, 6, 80, 95
4, 335520, Note_off_c, 6, 68, 95
4, 335520, Note_off_c, 6, 63, 95
4, 335520, Note_on_c, 6, 78, 95
4, 335520, Note_on_c, 6, 66, 95
4, 335520, Note_on_c, 6, 61, 95
4, 335760, Note_off_c, 6, 78, 95
4, 335760, Note_off_c, 6, 66, 95
4, 335760, Note_off_c, 6, 61, 95
4, 335760, Note_on_c, 6, 78, 95
4, 335760, Note_on_c, 6, 66, 95
4, 335760, Note_on_c, 6, 61, 95
4, 336000, Note_off_c, 6, 78, 95
4, 336000, Note_off_c, 6, 66, 95
4, 336000, Note_off_c, 6, 61, 95
4, 336000, Note_on_c, 6, 78, 95
4, 336000, Note_on_c, 6, 66, 95
4, 336000, Note_on_c, 6, 61, 95
4, 336240, Note_off_c, 6, 78, 95
4, 336240, Note_off_c, 6, 66, 95
4, 336240, Note_off_c, 6, 61, 95
4, 336240, Note_on_c, 6, 78, 95
4, 336240, Note_on_c, 6, 66, 95
4, 336240, Note_on_c, 6, 61, 95
4, 336480, Note_off_c, 6, 78, 95
4, 336480, Note_off_c, 6, 66, 95
4, 336480, Note_off_c, 6, 61, 95
4, 336480, Note_on_c, 6, 78, 95
4, 336480, Note_on_c, 6, 66, 95
4, 336480, Note_on_c, 6, 61, 95
4, 336720, Note_off_c, 6, 78, 95
4, 336720, Note_off_c, 6, 66, 95
4, 336720, Note_off_c, 6, 61, 95
4, 336720, Note_on_c, 6, 78, 95
4, 336720, Note_on_c, 6, 66, 95
4, 336720, Note_on_c, 6, 61, 95
4, 336960, Note_off_c, 6, 78, 95
4, 336960, Note_off_c, 6, 66, 95
4, 336960, Note_off_c, 6, 61, 95
4, 336960, Note_on_c, 6, 78, 95
4, 336960, Note_on_c, 6, 66, 95
4, 336960, Note_on_c, 6, 61, 95
4, 337200, Note_off_c, 6, 78, 95
4, 337200, Note_off_c, 6, 66, 95
4, 337200, Note_off_c, 6, 61, 95
4, 337200, Note_on_c, 6, 78, 95
4, 337200, Note_on_c, 6, 66, 95
4, 337200, Note_on_c, 6, 61, 95
4, 337440, Note_off_c, 6, 78, 95
4, 337440, Note_off_c, 6, 66, 95
4, 337440, Note_off_c, 6, 61, 95
4, 337440, Note_on_c, 6, 78, 95
4, 337440, Note_on_c, 6, 66, 95
4, 337440, Note_on_c, 6, 61, 95
4, 337680, Note_off_c, 6, 78, 95
4, 337680, Note_off_c, 6, 66, 95
4, 337680, Note_off_c, 6, 61, 95
4, 337680, Note_on_c, 6, 78, 95
4, 337680, Note_on_c, 6, 66, 95
4, 337680, Note_on_c, 6, 61, 95
4, 337920, Note_off_c, 6, 78, 95
4, 337920, Note_off_c, 6, 66, 95
4, 337920, Note_off_c, 6, 61, 95
4, 337920, Note_on_c, 6, 78, 95
4, 337920, Note_on_c, 6, 66, 95
4, 337920, Note_on_c, 6, 61, 95
4, 338160, Note_off_c, 6, 78, 95
4, 338160, Note_off_c, 6, 66, 95
4, 338160, Note_off_c, 6, 61, 95
4, 338160, Note_on_c, 6, 78, 95
4, 338160, Note_on_c, 6, 66, 95
4, 338160, Note_on_c, 6, 61, 95
4, 338400, Note_off_c, 6, 78, 95
4, 338400, Note_off_c, 6, 66, 95
4, 338400, Note_off_c, 6, 61, 95
4, 338400, Note_on_c, 6, 78, 95
4, 338400, Note_on_c, 6, 66, 95
4, 338400, Note_on_c, 6, 61, 95
4, 338640, Note_off_c, 6, 78, 95
4, 338640, Note_off_c, 6, 66, 95
4, 338640, Note_off_c, 6, 61, 95
4, 338640, Note_on_c, 6, 78, 95
4, 338640, Note_on_c, 6, 66, 95
4, 338640, Note_on_c, 6, 61, 95
4, 338880, Note_off_c, 6, 78, 95
4, 338880, Note_off_c, 6, 66, 95
4, 338880, Note_off_c, 6, 61, 95
4, 338880, Note_on_c, 6, 78, 95
4, 338880, Note_on_c, 6, 66, 95
4, 338880, Note_on_c, 6, 61, 95
4, 339120, Note_off_c, 6, 78, 95
4, 339120, Note_off_c, 6, 66, 95
4, 339120, Note_off_c, 6, 61, 95
4, 339120, Note_on_c, 6, 78, 95
4, 339120, Note_on_c, 6, 66, 95
4, 339120, Note_on_c, 6, 61, 95
4, 339360, Note_off_c, 6, 78, 95
4, 339360, Note_off_c, 6, 66, 95
4, 339360, Note_off_c, 6, 61, 95
4, 339360, Note_on_c, 6, 78, 95
4, 339360, Note_on_c, 6, 66, 95
4, 339360, Note_on_c, 6, 61, 95
4, 339600, Note_off_c, 6, 78, 95
4, 339600, Note_off_c, 6, 66, 95
4, 339600, Note_off_c, 6, 61, 95
4, 339600, Note_on_c, 6, 78, 95
4, 339600, Note_on_c, 6, 66, 95
4, 339600, Note_on_c, 6, 61, 95
4, 339840, Note_off_c, 6, 78, 95
4, 339840, Note_off_c, 6, 66, 95
4, 339840, Note_off_c, 6, 61, 95
4, 339840, Note_on_c, 6, 78, 95
4, 339840, Note_on_c, 6, 66, 95
4, 339840, Note_on_c, 6, 61, 95
4, 340080, Note_off_c, 6, 78, 95
4, 340080, Note_off_c, 6, 66, 95
4, 340080, Note_off_c, 6, 61, 95
4, 340080, Note_on_c, 6, 78, 95
4, 340080, Note_on_c, 6, 66, 95
4, 340080, Note_on_c, 6, 61, 95
4, 340320, Note_off_c, 6, 78, 95
4, 340320, Note_off_c, 6, 66, 95
4, 340320, Note_off_c, 6, 61, 95
4, 340320, Note_on_c, 6, 78, 95
4, 340320, Note_on_c, 6, 66, 95
4, 340320, Note_on_c, 6, 61, 95
4, 340560, Note_off_c, 6, 78, 95
4, 340560, Note_off_c, 6, 66, 95
4, 340560, Note_off_c, 6, 61, 95
4, 340560, Note_on_c, 6, 78, 95
4, 340560, Note_on_c, 6, 66, 95
4, 340560, Note_on_c, 6, 61, 95
4, 340800, Note_off_c, 6, 78, 95
4, 340800, Note_off_c, 6, 66, 95
4, 340800, Note_off_c, 6, 61, 95
4, 340800, Note_on_c, 6, 78, 95
4, 340800, Note_on_c, 6, 66, 95
4, 340800, Note_on_c, 6, 61, 95
4, 341040, Note_off_c, 6, 78, 95
4, 341040, Note_off_c, 6, 66, 95
4, 341040, Note_off_c, 6, 61, 95
4, 341040, Note_on_c, 6, 78, 95
4, 341040, Note_on_c, 6, 66, 95
4, 341040, Note_on_c, 6, 61, 95
4, 341280, Note_off_c, 6, 78, 95
4, 341280, Note_off_c, 6, 66, 95
4, 341280, Note_off_c, 6, 61, 95
4, 341280, Note_on_c, 6, 78, 95
4, 341280, Note_on_c, 6, 66, 95
4, 341280, Note_on_c, 6, 61, 95
4, 341520, Note_off_c, 6, 78, 95
4, 341520, Note_off_c, 6, 66, 95
4, 341520, Note_off_c, 6, 61, 95
4, 341520, Note_on_c, 6, 78, 95
4, 341520, Note_on_c, 6, 66, 95
4, 341520, Note_on_c, 6, 61, 95
4, 341760, Note_off_c, 6, 78, 95
4, 341760, Note_off_c, 6, 66, 95
4, 341760, Note_off_c, 6, 61, 95
4, 341760, Note_on_c, 6, 76, 95
4, 341760, Note_on_c, 6, 64, 95
4, 341760, Note_on_c, 6, 59, 95
4, 342000, Note_off_c, 6, 76, 95
4, 342000, Note_off_c, 6, 64, 95
4, 342000, Note_off_c, 6, 59, 95
4, 342000, Note_on_c, 6, 76, 95
4, 342000, Note_on_c, 6, 64, 95
4, 342000, Note_on_c, 6, 59, 95
4, 342240, Note_off_c, 6, 76, 95
4, 342240, Note_off_c, 6, 64, 95
4, 342240, Note_off_c, 6, 59, 95
4, 342240, Note_on_c, 6, 76, 95
4, 342240, Note_on_c, 6, 64, 95
4, 342240, Note_on_c, 6, 59, 95
4, 342480, Note_off_c, 6, 76, 95
4, 342480, Note_off_c, 6, 64, 95
4, 342480, Note_off_c, 6, 59, 95
4, 342480, Note_on_c, 6, 76, 95
4, 342480, Note_on_c, 6, 64, 95
4, 342480, Note_on_c, 6, 59, 95
4, 342720, Note_off_c, 6, 76, 95
4, 342720, Note_off_c, 6, 64, 95
4, 342720, Note_off_c, 6, 59, 95
4, 342720, Note_on_c, 6, 76, 95
4, 342720, Note_on_c, 6, 64, 95
4, 342720, Note_on_c, 6, 59, 95
4, 342960, Note_off_c, 6, 76, 95
4, 342960, Note_off_c, 6, 64, 95
4, 342960, Note_off_c, 6, 59, 95
4, 342960, Note_on_c, 6, 76, 95
4, 342960, Note_on_c, 6, 64, 95
4, 342960, Note_on_c, 6, 59, 95
4, 343200, Note_off_c, 6, 76, 95
4, 343200, Note_off_c, 6, 64, 95
4, 343200, Note_off_c, 6, 59, 95
4, 343200, Note_on_c, 6, 76, 95
4, 343200, Note_on_c, 6, 64, 95
4, 343200, Note_on_c, 6, 59, 95
4, 343440, Note_off_c, 6, 76, 95
4, 343440, Note_off_c, 6, 64, 95
4, 343440, Note_off_c, 6, 59, 95
4, 343440, Note_on_c, 6, 76, 95
4, 343440, Note_on_c, 6, 64, 95
4, 343440, Note_on_c, 6, 59, 95
4, 343680, Note_off_c, 6, 76, 95
4, 343680, Note_off_c, 6, 64, 95
4, 343680, Note_off_c, 6, 59, 95
4, 343680, Note_on_c, 6, 76, 95
4, 343680, Note_on_c, 6, 64, 95
4, 343680, Note_on_c, 6, 59, 95
4, 343920, Note_off_c, 6, 76, 95
4, 343920, Note_off_c, 6, 64, 95
4, 343920, Note_off_c, 6, 59, 95
4, 343920, Note_on_c, 6, 76, 95
4, 343920, Note_on_c, 6, 64, 95
4, 343920, Note_on_c, 6, 59, 95
4, 344160, Note_off_c, 6, 76, 95
4, 344160, Note_off_c, 6, 64, 95
4, 344160, Note_off_c, 6, 59, 95
4, 344160, Note_on_c, 6, 76, 95
4, 344160, Note_on_c, 6, 64, 95
4, 344160, Note_on_c, 6, 59, 95
4, 344400, Note_off_c, 6, 76, 95
4, 344400, Note_off_c, 6, 64, 95
4, 344400, Note_off_c, 6, 59, 95
4, 344400, Note_on_c, 6, 76, 95
4, 344400, Note_on_c, 6, 64, 95
4, 344400, Note_on_c, 6, 59, 95
4, 344640, Note_off_c, 6, 76, 95
4, 344640, Note_off_c, 6, 64, 95
4, 344640, Note_off_c, 6, 59, 95
4, 344640, Note_on_c, 6, 76, 95
4, 344640, Note_on_c, 6, 64, 95
4, 344640, Note_on_c, 6, 59, 95
4, 344880, Note_off_c, 6, 76, 95
4, 344880, Note_off_c, 6, 64, 95
4, 344880, Note_off_c, 6, 59, 95
4, 344880, Note_on_c, 6, 76, 95
4, 344880, Note_on_c, 6, 64, 95
4, 344880, Note_on_c, 6, 59, 95
4, 345120, Note_off_c, 6, 76, 95
4, 345120, Note_off_c, 6, 64, 95
4, 345120, Note_off_c, 6, 59, 95
4, 345120, Note_on_c, 6, 76, 95
4, 345120, Note_on_c, 6, 64, 95
4, 345120, Note_on_c, 6, 59, 95
4, 345360, Note_off_c, 6, 76, 95
4, 345360, Note_off_c, 6, 64, 95
4, 345360, Note_off_c, 6, 59, 95
4, 345360, Note_on_c, 6, 76, 95
4, 345360, Note_on_c, 6, 64, 95
4, 345360, Note_on_c, 6, 59, 95
4, 345600, Note_off_c, 6, 76, 95
4, 345600, Note_off_c, 6, 64, 95
4, 345600, Note_off_c, 6, 59, 95
4, 345600, Note_on_c, 6, 76, 95
4, 345600, Note_on_c, 6, 64, 95
4, 345600, Note_on_c, 6, 59, 95
4, 345840, Note_off_c, 6, 76, 95
4, 345840, Note_off_c, 6, 64, 95
4, 345840, Note_off_c, 6, 59, 95
4, 345840, Note_on_c, 6, 76, 95
4, 345840, Note_on_c, 6, 64, 95
4, 345840, Note_on_c, 6, 59, 95
4, 346080, Note_off_c, 6, 76, 95
4, 346080, Note_off_c, 6, 64, 95
4, 346080, Note_off_c, 6, 59, 95
4, 346080, Note_on_c, 6, 76, 95
4, 346080, Note_on_c, 6, 64, 95
4, 346080, Note_on_c, 6, 59, 95
4, 346320, Note_off_c, 6, 76, 95
4, 346320, Note_off_c, 6, 64, 95
4, 346320, Note_off_c, 6, 59, 95
4, 346320, Note_on_c, 6, 76, 95
4, 346320, Note_on_c, 6, 64, 95
4, 346320, Note_on_c, 6, 59, 95
4, 346560, Note_off_c, 6, 76, 95
4, 346560, Note_off_c, 6, 64, 95
4, 346560, Note_off_c, 6, 59, 95
4, 346560, Note_on_c, 6, 76, 95
4, 346560, Note_on_c, 6, 64, 95
4, 346560, Note_on_c, 6, 59, 95
4, 346800, Note_off_c, 6, 76, 95
4, 346800, Note_off_c, 6, 64, 95
4, 346800, Note_off_c, 6, 59, 95
4, 346800, Note_on_c, 6, 76, 95
4, 346800, Note_on_c, 6, 64, 95
4, 346800, Note_on_c, 6, 59, 95
4, 347040, Note_off_c, 6, 76, 95
4, 347040, Note_off_c, 6, 64, 95
4, 347040, Note_off_c, 6, 59, 95
4, 347040, Note_on_c, 6, 76, 95
4, 347040, Note_on_c, 6, 64, 95
4, 347040, Note_on_c, 6, 59, 95
4, 347280, Note_off_c, 6, 76, 95
4, 347280, Note_off_c, 6, 64, 95
4, 347280, Note_off_c, 6, 59, 95
4, 347280, Note_on_c, 6, 76, 95
4, 347280, Note_on_c, 6, 64, 95
4, 347280, Note_on_c, 6, 59, 95
4, 347520, Note_off_c, 6, 76, 95
4, 347520, Note_off_c, 6, 64, 95
4, 347520, Note_off_c, 6, 59, 95
4, 347520, Note_on_c, 6, 76, 95
4, 347520, Note_on_c, 6, 64, 95
4, 347520, Note_on_c, 6, 59, 95
4, 347760, Note_off_c, 6, 76, 95
4, 347760, Note_off_c, 6, 64, 95
4, 347760, Note_off_c, 6, 59, 95
4, 347760, Note_on_c, 6, 76, 95
4, 347760, Note_on_c, 6, 64, 95
4, 347760, Note_on_c, 6, 59, 95
4, 348000, Note_off_c, 6, 76, 95
4, 348000, Note_off_c, 6, 64, 95
4, 348000, Note_off_c, 6, 59, 95
4, 348000, Note_on_c, 6, 76, 95
4, 348000, Note_on_c, 6, 64, 95
4, 348000, Note_on_c, 6, 59, 95
4, 348240, Note_off_c, 6, 76, 95
4, 348240, Note_off_c, 6, 64, 95
4, 348240, Note_off_c, 6, 59, 95
4, 348240, Note_on_c, 6, 76, 95
4, 348240, Note_on_c, 6, 64, 95
4, 348240, Note_on_c, 6, 59, 95
4, 348480, Note_off_c, 6, 76, 95
4, 348480, Note_off_c, 6, 64, 95
4, 348480, Note_off_c, 6, 59, 95
4, 348480, Note_on_c, 6, 76, 95
4, 348480, Note_on_c, 6, 64, 95
4, 348480, Note_on_c, 6, 59, 95
4, 348720, Note_off_c, 6, 76, 95
4, 348720, Note_off_c, 6, 64, 95
4, 348720, Note_off_c, 6, 59, 95
4, 348720, Note_on_c, 6, 76, 95
4, 348720, Note_on_c, 6, 64, 95
4, 348720, Note_on_c, 6, 59, 95
4, 348960, Note_off_c, 6, 76, 95
4, 348960, Note_off_c, 6, 64, 95
4, 348960, Note_off_c, 6, 59, 95
4, 348960, Note_on_c, 6, 76, 95
4, 348960, Note_on_c, 6, 64, 95
4, 348960, Note_on_c, 6, 59, 95
4, 349200, Note_off_c, 6, 76, 95
4, 349200, Note_off_c, 6, 64, 95
4, 349200, Note_off_c, 6, 59, 95
4, 349200, Note_on_c, 6, 76, 95
4, 349200, Note_on_c, 6, 64, 95
4, 349200, Note_on_c, 6, 59, 95
4, 349440, Note_off_c, 6, 76, 95
4, 349440, Note_off_c, 6, 64, 95
4, 349440, Note_off_c, 6, 59, 95
4, 349440, Note_on_c, 6, 78, 95
4, 349440, Note_on_c, 6, 66, 95
4, 349440, Note_on_c, 6, 61, 95
4, 349680, Note_off_c, 6, 78, 95
4, 349680, Note_off_c, 6, 66, 95
4, 349680, Note_off_c, 6, 61, 95
4, 349680, Note_on_c, 6, 78, 95
4, 349680, Note_on_c, 6, 66, 95
4, 349680, Note_on_c, 6, 61, 95
4, 349920, Note_off_c, 6, 78, 95
4, 349920, Note_off_c, 6, 66, 95
4, 349920, Note_off_c, 6, 61, 95
4, 349920, Note_on_c, 6, 78, 95
4, 349920, Note_on_c, 6, 66, 95
4, 349920, Note_on_c, 6, 61, 95
4, 350160, Note_off_c, 6, 78, 95
4, 350160, Note_off_c, 6, 66, 95
4, 350160, Note_off_c, 6, 61, 95
4, 350160, Note_on_c, 6, 78, 95
4, 350160, Note_on_c, 6, 66, 95
4, 350160, Note_on_c, 6, 61, 95
4, 350400, Note_off_c, 6, 78, 95
4, 350400, Note_off_c, 6, 66, 95
4, 350400, Note_off_c, 6, 61, 95
4, 350400, Note_on_c, 6, 78, 95
4, 350400, Note_on_c, 6, 66, 95
4, 350400, Note_on_c, 6, 61, 95
4, 350640, Note_off_c, 6, 78, 95
4, 350640, Note_off_c, 6, 66, 95
4, 350640, Note_off_c, 6, 61, 95
4, 350640, Note_on_c, 6, 78, 95
4, 350640, Note_on_c, 6, 66, 95
4, 350640, Note_on_c, 6, 61, 95
4, 350880, Note_off_c, 6, 78, 95
4, 350880, Note_off_c, 6, 66, 95
4, 350880, Note_off_c, 6, 61, 95
4, 350880, Note_on_c, 6, 78, 95
4, 350880, Note_on_c, 6, 66, 95
4, 350880, Note_on_c, 6, 61, 95
4, 351120, Note_off_c, 6, 78, 95
4, 351120, Note_off_c, 6, 66, 95
4, 351120, Note_off_c, 6, 61, 95
4, 351120, Note_on_c, 6, 78, 95
4, 351120, Note_on_c, 6, 66, 95
4, 351120, Note_on_c, 6, 61, 95
4, 351360, Note_off_c, 6, 78, 95
4, 351360, Note_off_c, 6, 66, 95
4, 351360, Note_off_c, 6, 61, 95
4, 351360, Note_on_c, 6, 78, 95
4, 351360, Note_on_c, 6, 66, 95
4, 351360, Note_on_c, 6, 61, 95
4, 351600, Note_off_c, 6, 78, 95
4, 351600, Note_off_c, 6, 66, 95
4, 351600, Note_off_c, 6, 61, 95
4, 351600, Note_on_c, 6, 78, 95
4, 351600, Note_on_c, 6, 66, 95
4, 351600, Note_on_c, 6, 61, 95
4, 351840, Note_off_c, 6, 78, 95
4, 351840, Note_off_c, 6, 66, 95
4, 351840, Note_off_c, 6, 61, 95
4, 351840, Note_on_c, 6, 78, 95
4, 351840, Note_on_c, 6, 66, 95
4, 351840, Note_on_c, 6, 61, 95
4, 352080, Note_off_c, 6, 78, 95
4, 352080, Note_off_c, 6, 66, 95
4, 352080, Note_off_c, 6, 61, 95
4, 352080, Note_on_c, 6, 78, 95
4, 352080, Note_on_c, 6, 66, 95
4, 352080, Note_on_c, 6, 61, 95
4, 352320, Note_off_c, 6, 78, 95
4, 352320, Note_off_c, 6, 66, 95
4, 352320, Note_off_c, 6, 61, 95
4, 352320, Note_on_c, 6, 78, 95
4, 352320, Note_on_c, 6, 66, 95
4, 352320, Note_on_c, 6, 61, 95
4, 352560, Note_off_c, 6, 78, 95
4, 352560, Note_off_c, 6, 66, 95
4, 352560, Note_off_c, 6, 61, 95
4, 352560, Note_on_c, 6, 78, 95
4, 352560, Note_on_c, 6, 66, 95
4, 352560, Note_on_c, 6, 61, 95
4, 352800, Note_off_c, 6, 78, 95
4, 352800, Note_off_c, 6, 66, 95
4, 352800, Note_off_c, 6, 61, 95
4, 352800, Note_on_c, 6, 78, 95
4, 352800, Note_on_c, 6, 66, 95
4, 352800, Note_on_c, 6, 61, 95
4, 353040, Note_off_c, 6, 78, 95
4, 353040, Note_off_c, 6, 66, 95
4, 353040, Note_off_c, 6, 61, 95
4, 353040, Note_on_c, 6, 78, 95
4, 353040, Note_on_c, 6, 66, 95
4, 353040, Note_on_c, 6, 61, 95
4, 353280, Note_off_c, 6, 78, 95
4, 353280, Note_off_c, 6, 66, 95
4, 353280, Note_off_c, 6, 61, 95
4, 353280, Note_on_c, 6, 78, 95
4, 353280, Note_on_c, 6, 66, 95
4, 353280, Note_on_c, 6, 61, 95
4, 353520, Note_off_c, 6, 78, 95
4, 353520, Note_off_c, 6, 66, 95
4, 353520, Note_off_c, 6, 61, 95
4, 353520, Note_on_c, 6, 78, 95
4, 353520, Note_on_c, 6, 66, 95
4, 353520, Note_on_c, 6, 61, 95
4, 353760, Note_off_c, 6, 78, 95
4, 353760, Note_off_c, 6, 66, 95
4, 353760, Note_off_c, 6, 61, 95
4, 353760, Note_on_c, 6, 78, 95
4, 353760, Note_on_c, 6, 66, 95
4, 353760, Note_on_c, 6, 61, 95
4, 354000, Note_off_c, 6, 78, 95
4, 354000, Note_off_c, 6, 66, 95
4, 354000, Note_off_c, 6, 61, 95
4, 354000, Note_on_c, 6, 78, 95
4, 354000, Note_on_c, 6, 66, 95
4, 354000, Note_on_c, 6, 61, 95
4, 354240, Note_off_c, 6, 78, 95
4, 354240, Note_off_c, 6, 66, 95
4, 354240, Note_off_c, 6, 61, 95
4, 354240, Note_on_c, 6, 78, 95
4, 354240, Note_on_c, 6, 66, 95
4, 354240, Note_on_c, 6, 61, 95
4, 354480, Note_off_c, 6, 78, 95
4, 354480, Note_off_c, 6, 66, 95
4, 354480, Note_off_c, 6, 61, 95
4, 354480, Note_on_c, 6, 78, 95
4, 354480, Note_on_c, 6, 66, 95
4, 354480, Note_on_c, 6, 61, 95
4, 354720, Note_off_c, 6, 78, 95
4, 354720, Note_off_c, 6, 66, 95
4, 354720, Note_off_c, 6, 61, 95
4, 354720, Note_on_c, 6, 78, 95
4, 354720, Note_on_c, 6, 66, 95
4, 354720, Note_on_c, 6, 61, 95
4, 354960, Note_off_c, 6, 78, 95
4, 354960, Note_off_c, 6, 66, 95
4, 354960, Note_off_c, 6, 61, 95
4, 354960, Note_on_c, 6, 78, 95
4, 354960, Note_on_c, 6, 66, 95
4, 354960, Note_on_c, 6, 61, 95
4, 355200, Note_off_c, 6, 78, 95
4, 355200, Note_off_c, 6, 66, 95
4, 355200, Note_off_c, 6, 61, 95
4, 355200, Note_on_c, 6, 78, 95
4, 355200, Note_on_c, 6, 66, 95
4, 355200, Note_on_c, 6, 61, 95
4, 355440, Note_off_c, 6, 78, 95
4, 355440, Note_off_c, 6, 66, 95
4, 355440, Note_off_c, 6, 61, 95
4, 355440, Note_on_c, 6, 78, 95
4, 355440, Note_on_c, 6, 66, 95
4, 355440, Note_on_c, 6, 61, 95
4, 355680, Note_off_c, 6, 78, 95
4, 355680, Note_off_c, 6, 66, 95
4, 355680, Note_off_c, 6, 61, 95
4, 355680, Note_on_c, 6, 80, 95
4, 355680, Note_on_c, 6, 68, 95
4, 355680, Note_on_c, 6, 63, 95
4, 355920, Note_off_c, 6, 80, 95
4, 355920, Note_off_c, 6, 68, 95
4, 355920, Note_off_c, 6, 63, 95
4, 355920, Note_on_c, 6, 80, 95
4, 355920, Note_on_c, 6, 68, 95
4, 355920, Note_on_c, 6, 63, 95
4, 356160, Note_off_c, 6, 80, 95
4, 356160, Note_off_c, 6, 68, 95
4, 356160, Note_off_c, 6, 63, 95
4, 356160, Note_on_c, 6, 80, 95
4, 356160, Note_on_c, 6, 68, 95
4, 356160, Note_on_c, 6, 63, 95
4, 356400, Note_off_c, 6, 80, 95
4, 356400, Note_off_c, 6, 68, 95
4, 356400, Note_off_c, 6, 63, 95
4, 356400, Note_on_c, 6, 80, 95
4, 356400, Note_on_c, 6, 68, 95
4, 356400, Note_on_c, 6, 63, 95
4, 356640, Note_off_c, 6, 80, 95
4, 356640, Note_off_c, 6, 68, 95
4, 356640, Note_off_c, 6, 63, 95
4, 356640, Note_on_c, 6, 80, 95
4, 356640, Note_on_c, 6, 68, 95
4, 356640, Note_on_c, 6, 63, 95
4, 356880, Note_off_c, 6, 80, 95
4, 356880, Note_off_c, 6, 68, 95
4, 356880, Note_off_c, 6, 63, 95
4, 356880, Note_on_c, 6, 80, 95
4, 356880, Note_on_c, 6, 68, 95
4, 356880, Note_on_c, 6, 63, 95
4, 357120, Note_off_c, 6, 80, 95
4, 357120, Note_off_c, 6, 68, 95
4, 357120, Note_off_c, 6, 63, 95
4, 357120, Note_on_c, 6, 80, 95
4, 357120, Note_on_c, 6, 68, 95
4, 357120, Note_on_c, 6, 63, 95
4, 357360, Note_off_c, 6, 80, 95
4, 357360, Note_off_c, 6, 68, 95
4, 357360, Note_off_c, 6, 63, 95
4, 357360, Note_on_c, 6, 80, 95
4, 357360, Note_on_c, 6, 68, 95
4, 357360, Note_on_c, 6, 63, 95
4, 357600, Note_off_c, 6, 80, 95
4, 357600, Note_off_c, 6, 68, 95
4, 357600, Note_off_c, 6, 63, 95
4, 357600, Note_on_c, 6, 80, 95
4, 357600, Note_on_c, 6, 68, 95
4, 357600, Note_on_c, 6, 63, 95
4, 357840, Note_off_c, 6, 80, 95
4, 357840, Note_off_c, 6, 68, 95
4, 357840, Note_off_c, 6, 63, 95
4, 357840, Note_on_c, 6, 80, 95
4, 357840, Note_on_c, 6, 68, 95
4, 357840, Note_on_c, 6, 63, 95
4, 358080, Note_off_c, 6, 80, 95
4, 358080, Note_off_c, 6, 68, 95
4, 358080, Note_off_c, 6, 63, 95
4, 358080, Note_on_c, 6, 80, 95
4, 358080, Note_on_c, 6, 68, 95
4, 358080, Note_on_c, 6, 63, 95
4, 358320, Note_off_c, 6, 80, 95
4, 358320, Note_off_c, 6, 68, 95
4, 358320, Note_off_c, 6, 63, 95
4, 358320, Note_on_c, 6, 80, 95
4, 358320, Note_on_c, 6, 68, 95
4, 358320, Note_on_c, 6, 63, 95
4, 358560, Note_off_c, 6, 80, 95
4, 358560, Note_off_c, 6, 68, 95
4, 358560, Note_off_c, 6, 63, 95
4, 358560, Note_on_c, 6, 80, 95
4, 358560, Note_on_c, 6, 68, 95
4, 358560, Note_on_c, 6, 63, 95
4, 358800, Note_off_c, 6, 80, 95
4, 358800, Note_off_c, 6, 68, 95
4, 358800, Note_off_c, 6, 63, 95
4, 358800, Note_on_c, 6, 80, 95
4, 358800, Note_on_c, 6, 68, 95
4, 358800, Note_on_c, 6, 63, 95
4, 359040, Note_off_c, 6, 80, 95
4, 359040, Note_off_c, 6, 68, 95
4, 359040, Note_off_c, 6, 63, 95
4, 359040, Note_on_c, 6, 80, 95
4, 359040, Note_on_c, 6, 68, 95
4, 359040, Note_on_c, 6, 63, 95
4, 359280, Note_off_c, 6, 80, 95
4, 359280, Note_off_c, 6, 68, 95
4, 359280, Note_off_c, 6, 63, 95
4, 359280, Note_on_c, 6, 80, 95
4, 359280, Note_on_c, 6, 68, 95
4, 359280, Note_on_c, 6, 63, 95
4, 359520, Note_off_c, 6, 80, 95
4, 359520, Note_off_c, 6, 68, 95
4, 359520, Note_off_c, 6, 63, 95
4, 359520, Note_on_c, 6, 80, 95
4, 359520, Note_on_c, 6, 68, 95
4, 359520, Note_on_c, 6, 63, 95
4, 359760, Note_off_c, 6, 80, 95
4, 359760, Note_off_c, 6, 68, 95
4, 359760, Note_off_c, 6, 63, 95
4, 359760, Note_on_c, 6, 80, 95
4, 359760, Note_on_c, 6, 68, 95
4, 359760, Note_on_c, 6, 63, 95
4, 360000, Note_off_c, 6, 80, 95
4, 360000, Note_off_c, 6, 68, 95
4, 360000, Note_off_c, 6, 63, 95
4, 360000, Note_on_c, 6, 80, 95
4, 360000, Note_on_c, 6, 68, 95
4, 360000, Note_on_c, 6, 63, 95
4, 360240, Note_off_c, 6, 80, 95
4, 360240, Note_off_c, 6, 68, 95
4, 360240, Note_off_c, 6, 63, 95
4, 360240, Note_on_c, 6, 80, 95
4, 360240, Note_on_c, 6, 68, 95
4, 360240, Note_on_c, 6, 63, 95
4, 360480, Note_off_c, 6, 80, 95
4, 360480, Note_off_c, 6, 68, 95
4, 360480, Note_off_c, 6, 63, 95
4, 360480, Note_on_c, 6, 80, 95
4, 360480, Note_on_c, 6, 68, 95
4, 360480, Note_on_c, 6, 63, 95
4, 360720, Note_off_c, 6, 80, 95
4, 360720, Note_off_c, 6, 68, 95
4, 360720, Note_off_c, 6, 63, 95
4, 360720, Note_on_c, 6, 80, 95
4, 360720, Note_on_c, 6, 68, 95
4, 360720, Note_on_c, 6, 63, 95
4, 360960, Note_off_c, 6, 80, 95
4, 360960, Note_off_c, 6, 68, 95
4, 360960, Note_off_c, 6, 63, 95
4, 360960, Note_on_c, 6, 80, 95
4, 360960, Note_on_c, 6, 68, 95
4, 360960, Note_on_c, 6, 63, 95
4, 361200, Note_off_c, 6, 80, 95
4, 361200, Note_off_c, 6, 68, 95
4, 361200, Note_off_c, 6, 63, 95
4, 361200, Note_on_c, 6, 80, 95
4, 361200, Note_on_c, 6, 68, 95
4, 361200, Note_on_c, 6, 63, 95
4, 361440, Note_off_c, 6, 80, 95
4, 361440, Note_off_c, 6, 68, 95
4, 361440, Note_off_c, 6, 63, 95
4, 361440, Note_on_c, 6, 80, 95
4, 361440, Note_on_c, 6, 68, 95
4, 361440, Note_on_c, 6, 63, 95
4, 361680, Note_off_c, 6, 80, 95
4, 361680, Note_off_c, 6, 68, 95
4, 361680, Note_off_c, 6, 63, 95
4, 361680, Note_on_c, 6, 80, 95
4, 361680, Note_on_c, 6, 68, 95
4, 361680, Note_on_c, 6, 63, 95
4, 361920, Note_off_c, 6, 80, 95
4, 361920, Note_off_c, 6, 68, 95
4, 361920, Note_off_c, 6, 63, 95
4, 361920, Note_on_c, 6, 80, 95
4, 361920, Note_on_c, 6, 68, 95
4, 361920, Note_on_c, 6, 63, 95
4, 362160, Note_off_c, 6, 80, 95
4, 362160, Note_off_c, 6, 68, 95
4, 362160, Note_off_c, 6, 63, 95
4, 362160, Note_on_c, 6, 80, 95
4, 362160, Note_on_c, 6, 68, 95
4, 362160, Note_on_c, 6, 63, 95
4, 362400, Note_off_c, 6, 80, 95
4, 362400, Note_off_c, 6, 68, 95
4, 362400, Note_off_c, 6, 63, 95
4, 362400, Note_on_c, 6, 80, 95
4, 362400, Note_on_c, 6, 68, 95
4, 362400, Note_on_c, 6, 63, 95
4, 362640, Note_off_c, 6, 80, 95
4, 362640, Note_off_c, 6, 68, 95
4, 362640, Note_off_c, 6, 63, 95
4, 362640, Note_on_c, 6, 80, 95
4, 362640, Note_on_c, 6, 68, 95
4, 362640, Note_on_c, 6, 63, 95
4, 362880, Note_off_c, 6, 80, 95
4, 362880, Note_off_c, 6, 68, 95
4, 362880, Note_off_c, 6, 63, 95
4, 362880, Note_on_c, 6, 80, 95
4, 362880, Note_on_c, 6, 68, 95
4, 362880, Note_on_c, 6, 63, 95
4, 363120, Note_off_c, 6, 80, 95
4, 363120, Note_off_c, 6, 68, 95
4, 363120, Note_off_c, 6, 63, 95
4, 363120, Note_on_c, 6, 80, 95
4, 363120, Note_on_c, 6, 68, 95
4, 363120, Note_on_c, 6, 63, 95
4, 363360, Note_off_c, 6, 80, 95
4, 363360, Note_off_c, 6, 68, 95
4, 363360, Note_off_c, 6, 63, 95
4, 363360, Note_on_c, 6, 78, 95
4, 363360, Note_on_c, 6, 66, 95
4, 363360, Note_on_c, 6, 61, 95
4, 363600, Note_off_c, 6, 78, 95
4, 363600, Note_off_c, 6, 66, 95
4, 363600, Note_off_c, 6, 61, 95
4, 363600, Note_on_c, 6, 78, 95
4, 363600, Note_on_c, 6, 66, 95
4, 363600, Note_on_c, 6, 61, 95
4, 363840, Note_off_c, 6, 78, 95
4, 363840, Note_off_c, 6, 66, 95
4, 363840, Note_off_c, 6, 61, 95
4, 363840, Note_on_c, 6, 78, 95
4, 363840, Note_on_c, 6, 66, 95
4, 363840, Note_on_c, 6, 61, 95
4, 364080, Note_off_c, 6, 78, 95
4, 364080, Note_off_c, 6, 66, 95
4, 364080, Note_off_c, 6, 61, 95
4, 364080, Note_on_c, 6, 78, 95
4, 364080, Note_on_c, 6, 66, 95
4, 364080, Note_on_c, 6, 61, 95
4, 364320, Note_off_c, 6, 78, 95
4, 364320, Note_off_c, 6, 66, 95
4, 364320, Note_off_c, 6, 61, 95
4, 364320, Note_on_c, 6, 78, 95
4, 364320, Note_on_c, 6, 66, 95
4, 364320, Note_on_c, 6, 61, 95
4, 364560, Note_off_c, 6, 78, 95
4, 364560, Note_off_c, 6, 66, 95
4, 364560, Note_off_c, 6, 61, 95
4, 364560, Note_on_c, 6, 78, 95
4, 364560, Note_on_c, 6, 66, 95
4, 364560, Note_on_c, 6, 61, 95
4, 364800, Note_off_c, 6, 78, 95
4, 364800, Note_off_c, 6, 66, 95
4, 364800, Note_off_c, 6, 61, 95
4, 364800, Note_on_c, 6, 78, 95
4, 364800, Note_on_c, 6, 66, 95
4, 364800, Note_on_c, 6, 61, 95
4, 365040, Note_off_c, 6, 78, 95
4, 365040, Note_off_c, 6, 66, 95
4, 365040, Note_off_c, 6, 61, 95
4, 365040, Note_on_c, 6, 78, 95
4, 365040, Note_on_c, 6, 66, 95
4, 365040, Note_on_c, 6, 61, 95
4, 365280, Note_off_c, 6, 78, 95
4, 365280, Note_off_c, 6, 66, 95
4, 365280, Note_off_c, 6, 61, 95
4, 365280, Note_on_c, 6, 78, 95
4, 365280, Note_on_c, 6, 66, 95
4, 365280, Note_on_c, 6, 61, 95
4, 365520, Note_off_c, 6, 78, 95
4, 365520, Note_off_c, 6, 66, 95
4, 365520, Note_off_c, 6, 61, 95
4, 365520, Note_on_c, 6, 78, 95
4, 365520, Note_on_c, 6, 66, 95
4, 365520, Note_on_c, 6, 61, 95
4, 365760, Note_off_c, 6, 78, 95
4, 365760, Note_off_c, 6, 66, 95
4, 365760, Note_off_c, 6, 61, 95
4, 365760, Note_on_c, 6, 78, 95
4, 365760, Note_on_c, 6, 66, 95
4, 365760, Note_on_c, 6, 61, 95
4, 366000, Note_off_c, 6, 78, 95
4, 366000, Note_off_c, 6, 66, 95
4, 366000, Note_off_c, 6, 61, 95
4, 366000, Note_on_c, 6, 78, 95
4, 366000, Note_on_c, 6, 66, 95
4, 366000, Note_on_c, 6, 61, 95
4, 366240, Note_off_c, 6, 78, 95
4, 366240, Note_off_c, 6, 66, 95
4, 366240, Note_off_c, 6, 61, 95
4, 366240, Note_on_c, 6, 78, 95
4, 366240, Note_on_c, 6, 66, 95
4, 366240, Note_on_c, 6, 61, 95
4, 366480, Note_off_c, 6, 78, 95
4, 366480, Note_off_c, 6, 66, 95
4, 366480, Note_off_c, 6, 61, 95
4, 366480, Note_on_c, 6, 78, 95
4, 366480, Note_on_c, 6, 66, 95
4, 366480, Note_on_c, 6, 61, 95
4, 366720, Note_off_c, 6, 78, 95
4, 366720, Note_off_c, 6, 66, 95
4, 366720, Note_off_c, 6, 61, 95
4, 366720, Note_on_c, 6, 78, 95
4, 366720, Note_on_c, 6, 66, 95
4, 366720, Note_on_c, 6, 61, 95
4, 366960, Note_off_c, 6, 78, 95
4, 366960, Note_off_c, 6, 66, 95
4, 366960, Note_off_c, 6, 61, 95
4, 366960, Note_on_c, 6, 78, 95
4, 366960, Note_on_c, 6, 66, 95
4, 366960, Note_on_c, 6, 61, 95
4, 367200, Note_off_c, 6, 78, 95
4, 367200, Note_off_c, 6, 66, 95
4, 367200, Note_off_c, 6, 61, 95
4, 367200, Note_on_c, 6, 78, 95
4, 367200, Note_on_c, 6, 66, 95
4, 367200, Note_on_c, 6, 61, 95
4, 367440, Note_off_c, 6, 78, 95
4, 367440, Note_off_c, 6, 66, 95
4, 367440, Note_off_c, 6, 61, 95
4, 367440, Note_on_c, 6, 78, 95
4, 367440, Note_on_c, 6, 66, 95
4, 367440, Note_on_c, 6, 61, 95
4, 367680, Note_off_c, 6, 78, 95
4, 367680, Note_off_c, 6, 66, 95
4, 367680, Note_off_c, 6, 61, 95
4, 367680, Note_on_c, 6, 78, 95
4, 367680, Note_on_c, 6, 66, 95
4, 367680, Note_on_c, 6, 61, 95
4, 367920, Note_off_c, 6, 78, 95
4, 367920, Note_off_c, 6, 66, 95
4, 367920, Note_off_c, 6, 61, 95
4, 367920, Note_on_c, 6, 78, 95
4, 367920, Note_on_c, 6, 66, 95
4, 367920, Note_on_c, 6, 61, 95
4, 368160, Note_off_c, 6, 78, 95
4, 368160, Note_off_c, 6, 66, 95
4, 368160, Note_off_c, 6, 61, 95
4, 368160, Note_on_c, 6, 78, 95
4, 368160, Note_on_c, 6, 66, 95
4, 368160, Note_on_c, 6, 61, 95
4, 368400, Note_off_c, 6, 78, 95
4, 368400, Note_off_c, 6, 66, 95
4, 368400, Note_off_c, 6, 61, 95
4, 368400, Note_on_c, 6, 78, 95
4, 368400, Note_on_c, 6, 66, 95
4, 368400, Note_on_c, 6, 61, 95
4, 368640, Note_off_c, 6, 78, 95
4, 368640, Note_off_c, 6, 66, 95
4, 368640, Note_off_c, 6, 61, 95
4, 368640, Note_on_c, 6, 78, 95
4, 368640, Note_on_c, 6, 66, 95
4, 368640, Note_on_c, 6, 61, 95
4, 368880, Note_off_c, 6, 78, 95
4, 368880, Note_off_c, 6, 66, 95
4, 368880, Note_off_c, 6, 61, 95
4, 368880, Note_on_c, 6, 78, 95
4, 368880, Note_on_c, 6, 66, 95
4, 368880, Note_on_c, 6, 61, 95
4, 369120, Note_off_c, 6, 78, 95
4, 369120, Note_off_c, 6, 66, 95
4, 369120, Note_off_c, 6, 61, 95
4, 369120, Note_on_c, 6, 78, 95
4, 369120, Note_on_c, 6, 66, 95
4, 369120, Note_on_c, 6, 61, 95
4, 369360, Note_off_c, 6, 78, 95
4, 369360, Note_off_c, 6, 66, 95
4, 369360, Note_off_c, 6, 61, 95
4, 369360, Note_on_c, 6, 78, 95
4, 369360, Note_on_c, 6, 66, 95
4, 369360, Note_on_c, 6, 61, 95
4, 369600, Note_off_c, 6, 78, 95
4, 369600, Note_off_c, 6, 66, 95
4, 369600, Note_off_c, 6, 61, 95
4, 369600, Note_on_c, 6, 76, 95
4, 369600, Note_on_c, 6, 64, 95
4, 369600, Note_on_c, 6, 59, 95
4, 369840, Note_off_c, 6, 76, 95
4, 369840, Note_off_c, 6, 64, 95
4, 369840, Note_off_c, 6, 59, 95
4, 369840, Note_on_c, 6, 76, 95
4, 369840, Note_on_c, 6, 64, 95
4, 369840, Note_on_c, 6, 59, 95
4, 370080, Note_off_c, 6, 76, 95
4, 370080, Note_off_c, 6, 64, 95
4, 370080, Note_off_c, 6, 59, 95
4, 370080, Note_on_c, 6, 76, 95
4, 370080, Note_on_c, 6, 64, 95
4, 370080, Note_on_c, 6, 59, 95
4, 370320, Note_off_c, 6, 76, 95
4, 370320, Note_off_c, 6, 64, 95
4, 370320, Note_off_c, 6, 59, 95
4, 370320, Note_on_c, 6, 76, 95
4, 370320, Note_on_c, 6, 64, 95
4, 370320, Note_on_c, 6, 59, 95
4, 370560, Note_off_c, 6, 76, 95
4, 370560, Note_off_c, 6, 64, 95
4, 370560, Note_off_c, 6, 59, 95
4, 370560, Note_on_c, 6, 76, 95
4, 370560, Note_on_c, 6, 64, 95
4, 370560, Note_on_c, 6, 59, 95
4, 370800, Note_off_c, 6, 76, 95
4, 370800, Note_off_c, 6, 64, 95
4, 370800, Note_off_c, 6, 59, 95
4, 370800, Note_on_c, 6, 76, 95
4, 370800, Note_on_c, 6, 64, 95
4, 370800, Note_on_c, 6, 59, 95
4, 371040, Note_off_c, 6, 76, 95
4, 371040, Note_off_c, 6, 64, 95
4, 371040, Note_off_c, 6, 59, 95
4, 371040, Note_on_c, 6, 76, 95
4, 371040, Note_on_c, 6, 64, 95
4, 371040, Note_on_c, 6, 59, 95
4, 371280, Note_off_c, 6, 76, 95
4, 371280, Note_off_c, 6, 64, 95
4, 371280, Note_off_c, 6, 59, 95
4, 371280, Note_on_c, 6, 76, 95
4, 371280, Note_on_c, 6, 64, 95
4, 371280, Note_on_c, 6, 59, 95
4, 371520, Note_off_c, 6, 76, 95
4, 371520, Note_off_c, 6, 64, 95
4, 371520, Note_off_c, 6, 59, 95
4, 371520, Note_on_c, 6, 76, 95
4, 371520, Note_on_c, 6, 64, 95
4, 371520, Note_on_c, 6, 59, 95
4, 371760, Note_off_c, 6, 76, 95
4, 371760, Note_off_c, 6, 64, 95
4, 371760, Note_off_c, 6, 59, 95
4, 371760, Note_on_c, 6, 76, 95
4, 371760, Note_on_c, 6, 64, 95
4, 371760, Note_on_c, 6, 59, 95
4, 372000, Note_off_c, 6, 76, 95
4, 372000, Note_off_c, 6, 64, 95
4, 372000, Note_off_c, 6, 59, 95
4, 372000, Note_on_c, 6, 76, 95
4, 372000, Note_on_c, 6, 64, 95
4, 372000, Note_on_c, 6, 59, 95
4, 372240, Note_off_c, 6, 76, 95
4, 372240, Note_off_c, 6, 64, 95
4, 372240, Note_off_c, 6, 59, 95
4, 372240, Note_on_c, 6, 76, 95
4, 372240, Note_on_c, 6, 64, 95
4, 372240, Note_on_c, 6, 59, 95
4, 372480, Note_off_c, 6, 76, 95
4, 372480, Note_off_c, 6, 64, 95
4, 372480, Note_off_c, 6, 59, 95
4, 372480, Note_on_c, 6, 76, 95
4, 372480, Note_on_c, 6, 64, 95
4, 372480, Note_on_c, 6, 59, 95
4, 372720, Note_off_c, 6, 76, 95
4, 372720, Note_off_c, 6, 64, 95
4, 372720, Note_off_c, 6, 59, 95
4, 372720, Note_on_c, 6, 76, 95
4, 372720, Note_on_c, 6, 64, 95
4, 372720, Note_on_c, 6, 59, 95
4, 372960, Note_off_c, 6, 76, 95
4, 372960, Note_off_c, 6, 64, 95
4, 372960, Note_off_c, 6, 59, 95
4, 372960, Note_on_c, 6, 76, 95
4, 372960, Note_on_c, 6, 64, 95
4, 372960, Note_on_c, 6, 59, 95
4, 373200, Note_off_c, 6, 76, 95
4, 373200, Note_off_c, 6, 64, 95
4, 373200, Note_off_c, 6, 59, 95
4, 373200, Note_on_c, 6, 76, 95
4, 373200, Note_on_c, 6, 64, 95
4, 373200, Note_on_c, 6, 59, 95
4, 373440, Note_off_c, 6, 76, 95
4, 373440, Note_off_c, 6, 64, 95
4, 373440, Note_off_c, 6, 59, 95
4, 373440, Note_on_c, 6, 76, 95
4, 373440, Note_on_c, 6, 64, 95
4, 373440, Note_on_c, 6, 59, 95
4, 373680, Note_off_c, 6, 76, 95
4, 373680, Note_off_c, 6, 64, 95
4, 373680, Note_off_c, 6, 59, 95
4, 373680, Note_on_c, 6, 76, 95
4, 373680, Note_on_c, 6, 64, 95
4, 373680, Note_on_c, 6, 59, 95
4, 373920, Note_off_c, 6, 76, 95
4, 373920, Note_off_c, 6, 64, 95
4, 373920, Note_off_c, 6, 59, 95
4, 373920, Note_on_c, 6, 76, 95
4, 373920, Note_on_c, 6, 64, 95
4, 373920, Note_on_c, 6, 59, 95
4, 374160, Note_off_c, 6, 76, 95
4, 374160, Note_off_c, 6, 64, 95
4, 374160, Note_off_c, 6, 59, 95
4, 374160, Note_on_c, 6, 76, 95
4, 374160, Note_on_c, 6, 64, 95
4, 374160, Note_on_c, 6, 59, 95
4, 374400, Note_off_c, 6, 76, 95
4, 374400, Note_off_c, 6, 64, 95
4, 374400, Note_off_c, 6, 59, 95
4, 374400, Note_on_c, 6, 76, 95
4, 374400, Note_on_c, 6, 64, 95
4, 374400, Note_on_c, 6, 59, 95
4, 374640, Note_off_c, 6, 76, 95
4, 374640, Note_off_c, 6, 64, 95
4, 374640, Note_off_c, 6, 59, 95
4, 374640, Note_on_c, 6, 76, 95
4, 374640, Note_on_c, 6, 64, 95
4, 374640, Note_on_c, 6, 59, 95
4, 374880, Note_off_c, 6, 76, 95
4, 374880, Note_off_c, 6, 64, 95
4, 374880, Note_off_c, 6, 59, 95
4, 374880, Note_on_c, 6, 76, 95
4, 374880, Note_on_c, 6, 64, 95
4, 374880, Note_on_c, 6, 59, 95
4, 375120, Note_off_c, 6, 76, 95
4, 375120, Note_off_c, 6, 64, 95
4, 375120, Note_off_c, 6, 59, 95
4, 375120, Note_on_c, 6, 76, 95
4, 375120, Note_on_c, 6, 64, 95
4, 375120, Note_on_c, 6, 59, 95
4, 375360, Note_off_c, 6, 76, 95
4, 375360, Note_off_c, 6, 64, 95
4, 375360, Note_off_c, 6, 59, 95
4, 375360, Note_on_c, 6, 76, 95
4, 375360, Note_on_c, 6, 64, 95
4, 375360, Note_on_c, 6, 59, 95
4, 375600, Note_off_c, 6, 76, 95
4, 375600, Note_off_c, 6, 64, 95
4, 375600, Note_off_c, 6, 59, 95
4, 375600, Note_on_c, 6, 76, 95
4, 375600, Note_on_c, 6, 64, 95
4, 375600, Note_on_c, 6, 59, 95
4, 375840, Note_off_c, 6, 76, 95
4, 375840, Note_off_c, 6, 64, 95
4, 375840, Note_off_c, 6, 59, 95
4, 375840, Note_on_c, 6, 76, 95
4, 375840, Note_on_c, 6, 64, 95
4, 375840, Note_on_c, 6, 59, 95
4, 376080, Note_off_c, 6, 76, 95
4, 376080, Note_off_c, 6, 64, 95
4, 376080, Note_off_c, 6, 59, 95
4, 376080, Note_on_c, 6, 76, 95
4, 376080, Note_on_c, 6, 64, 95
4, 376080, Note_on_c, 6, 59, 95
4, 376320, Note_off_c, 6, 76, 95
4, 376320, Note_off_c, 6, 64, 95
4, 376320, Note_off_c, 6, 59, 95
4, 376320, Note_on_c, 6, 76, 95
4, 376320, Note_on_c, 6, 64, 95
4, 376320, Note_on_c, 6, 59, 95
4, 376560, Note_off_c, 6, 76, 95
4, 376560, Note_off_c, 6, 64, 95
4, 376560, Note_off_c, 6, 59, 95
4, 376560, Note_on_c, 6, 76, 95
4, 376560, Note_on_c, 6, 64, 95
4, 376560, Note_on_c, 6, 59, 95
4, 376800, Note_off_c, 6, 76, 95
4, 376800, Note_off_c, 6, 64, 95
4, 376800, Note_off_c, 6, 59, 95
4, 376800, Note_on_c, 6, 76, 95
4, 376800, Note_on_c, 6, 64, 95
4, 376800, Note_on_c, 6, 59, 95
4, 377040, Note_off_c, 6, 76, 95
4, 377040, Note_off_c, 6, 64, 95
4, 377040, Note_off_c, 6, 59, 95
4, 377040, Note_on_c, 6, 76, 95
4, 377040, Note_on_c, 6, 64, 95
4, 377040, Note_on_c, 6, 59, 95
4, 377280, Note_off_c, 6, 76, 95
4, 377280, Note_off_c, 6, 64, 95
4, 377280, Note_off_c, 6, 59, 95
4, 377280, Note_on_c, 6, 78, 95
4, 377280, Note_on_c, 6, 66, 95
4, 377280, Note_on_c, 6, 61, 95
4, 377520, Note_off_c, 6, 78, 95
4, 377520, Note_off_c, 6, 66, 95
4, 377520, Note_off_c, 6, 61, 95
4, 377520, Note_on_c, 6, 78, 95
4, 377520, Note_on_c, 6, 66, 95
4, 377520, Note_on_c, 6, 61, 95
4, 377760, Note_off_c, 6, 78, 95
4, 377760, Note_off_c, 6, 66, 95
4, 377760, Note_off_c, 6, 61, 95
4, 377760, Note_on_c, 6, 78, 95
4, 377760, Note_on_c, 6, 66, 95
4, 377760, Note_on_c, 6, 61, 95
4, 378000, Note_off_c, 6, 78, 95
4, 378000, Note_off_c, 6, 66, 95
4, 378000, Note_off_c, 6, 61, 95
4, 378000, Note_on_c, 6, 78, 95
4, 378000, Note_on_c, 6, 66, 95
4, 378000, Note_on_c, 6, 61, 95
4, 378240, Note_off_c, 6, 78, 95
4, 378240, Note_off_c, 6, 66, 95
4, 378240, Note_off_c, 6, 61, 95
4, 378240, Note_on_c, 6, 78, 95
4, 378240, Note_on_c, 6, 66, 95
4, 378240, Note_on_c, 6, 61, 95
4, 378480, Note_off_c, 6, 78, 95
4, 378480, Note_off_c, 6, 66, 95
4, 378480, Note_off_c, 6, 61, 95
4, 378480, Note_on_c, 6, 78, 95
4, 378480, Note_on_c, 6, 66, 95
4, 378480, Note_on_c, 6, 61, 95
4, 378720, Note_off_c, 6, 78, 95
4, 378720, Note_off_c, 6, 66, 95
4, 378720, Note_off_c, 6, 61, 95
4, 378720, Note_on_c, 6, 78, 95
4, 378720, Note_on_c, 6, 66, 95
4, 378720, Note_on_c, 6, 61, 95
4, 378960, Note_off_c, 6, 78, 95
4, 378960, Note_off_c, 6, 66, 95
4, 378960, Note_off_c, 6, 61, 95
4, 378960, Note_on_c, 6, 78, 95
4, 378960, Note_on_c, 6, 66, 95
4, 378960, Note_on_c, 6, 61, 95
4, 379200, Note_off_c, 6, 78, 95
4, 379200, Note_off_c, 6, 66, 95
4, 379200, Note_off_c, 6, 61, 95
4, 379200, Note_on_c, 6, 78, 95
4, 379200, Note_on_c, 6, 66, 95
4, 379200, Note_on_c, 6, 61, 95
4, 379440, Note_off_c, 6, 78, 95
4, 379440, Note_off_c, 6, 66, 95
4, 379440, Note_off_c, 6, 61, 95
4, 379440, Note_on_c, 6, 78, 95
4, 379440, Note_on_c, 6, 66, 95
4, 379440, Note_on_c, 6, 61, 95
4, 379680, Note_off_c, 6, 78, 95
4, 379680, Note_off_c, 6, 66, 95
4, 379680, Note_off_c, 6, 61, 95
4, 379680, Note_on_c, 6, 78, 95
4, 379680, Note_on_c, 6, 66, 95
4, 379680, Note_on_c, 6, 61, 95
4, 379920, Note_off_c, 6, 78, 95
4, 379920, Note_off_c, 6, 66, 95
4, 379920, Note_off_c, 6, 61, 95
4, 379920, Note_on_c, 6, 78, 95
4, 379920, Note_on_c, 6, 66, 95
4, 379920, Note_on_c, 6, 61, 95
4, 380160, Note_off_c, 6, 78, 95
4, 380160, Note_off_c, 6, 66, 95
4, 380160, Note_off_c, 6, 61, 95
4, 380160, Note_on_c, 6, 78, 95
4, 380160, Note_on_c, 6, 66, 95
4, 380160, Note_on_c, 6, 61, 95
4, 380400, Note_off_c, 6, 78, 95
4, 380400, Note_off_c, 6, 66, 95
4, 380400, Note_off_c, 6, 61, 95
4, 380400, Note_on_c, 6, 78, 95
4, 380400, Note_on_c, 6, 66, 95
4, 380400, Note_on_c, 6, 61, 95
4, 380640, Note_off_c, 6, 78, 95
4, 380640, Note_off_c, 6, 66, 95
4, 380640, Note_off_c, 6, 61, 95
4, 380640, Note_on_c, 6, 78, 95
4, 380640, Note_on_c, 6, 66, 95
4, 380640, Note_on_c, 6, 61, 95
4, 380880, Note_off_c, 6, 78, 95
4, 380880, Note_off_c, 6, 66, 95
4, 380880, Note_off_c, 6, 61, 95
4, 380880, Note_on_c, 6, 78, 95
4, 380880, Note_on_c, 6, 66, 95
4, 380880, Note_on_c, 6, 61, 95
4, 381120, Note_off_c, 6, 78, 95
4, 381120, Note_off_c, 6, 66, 95
4, 381120, Note_off_c, 6, 61, 95
4, 381120, Note_on_c, 6, 78, 95
4, 381120, Note_on_c, 6, 66, 95
4, 381120, Note_on_c, 6, 61, 95
4, 381360, Note_off_c, 6, 78, 95
4, 381360, Note_off_c, 6, 66, 95
4, 381360, Note_off_c, 6, 61, 95
4, 381360, Note_on_c, 6, 78, 95
4, 381360, Note_on_c, 6, 66, 95
4, 381360, Note_on_c, 6, 61, 95
4, 381600, Note_off_c, 6, 78, 95
4, 381600, Note_off_c, 6, 66, 95
4, 381600, Note_off_c, 6, 61, 95
4, 381600, Note_on_c, 6, 78, 95
4, 381600, Note_on_c, 6, 66, 95
4, 381600, Note_on_c, 6, 61, 95
4, 381840, Note_off_c, 6, 78, 95
4, 381840, Note_off_c, 6, 66, 95
4, 381840, Note_off_c, 6, 61, 95
4, 381840, Note_on_c, 6, 78, 95
4, 381840, Note_on_c, 6, 66, 95
4, 381840, Note_on_c, 6, 61, 95
4, 382080, Note_off_c, 6, 78, 95
4, 382080, Note_off_c, 6, 66, 95
4, 382080, Note_off_c, 6, 61, 95
4, 382080, Note_on_c, 6, 78, 95
4, 382080, Note_on_c, 6, 66, 95
4, 382080, Note_on_c, 6, 61, 95
4, 382320, Note_off_c, 6, 78, 95
4, 382320, Note_off_c, 6, 66, 95
4, 382320, Note_off_c, 6, 61, 95
4, 382320, Note_on_c, 6, 78, 95
4, 382320, Note_on_c, 6, 66, 95
4, 382320, Note_on_c, 6, 61, 95
4, 382560, Note_off_c, 6, 78, 95
4, 382560, Note_off_c, 6, 66, 95
4, 382560, Note_off_c, 6, 61, 95
4, 382560, Note_on_c, 6, 78, 95
4, 382560, Note_on_c, 6, 66, 95
4, 382560, Note_on_c, 6, 61, 95
4, 382800, Note_off_c, 6, 78, 95
4, 382800, Note_off_c, 6, 66, 95
4, 382800, Note_off_c, 6, 61, 95
4, 382800, Note_on_c, 6, 78, 95
4, 382800, Note_on_c, 6, 66, 95
4, 382800, Note_on_c, 6, 61, 95
4, 383040, Note_off_c, 6, 78, 95
4, 383040, Note_off_c, 6, 66, 95
4, 383040, Note_off_c, 6, 61, 95
4, 383040, Note_on_c, 6, 78, 95
4, 383040, Note_on_c, 6, 66, 95
4, 383040, Note_on_c, 6, 61, 95
4, 383280, Note_off_c, 6, 78, 95
4, 383280, Note_off_c, 6, 66, 95
4, 383280, Note_off_c, 6, 61, 95
4, 383280, Note_on_c, 6, 78, 95
4, 383280, Note_on_c, 6, 66, 95
4, 383280, Note_on_c, 6, 61, 95
4, 383520, Note_off_c, 6, 78, 95
4, 383520, Note_off_c, 6, 66, 95
4, 383520, Note_off_c, 6, 61, 95
4, 383520, Note_on_c, 6, 80, 95
4, 383520, Note_on_c, 6, 68, 95
4, 383520, Note_on_c, 6, 63, 95
4, 383760, Note_off_c, 6, 80, 95
4, 383760, Note_off_c, 6, 68, 95
4, 383760, Note_off_c, 6, 63, 95
4, 383760, Note_on_c, 6, 80, 95
4, 383760, Note_on_c, 6, 68, 95
4, 383760, Note_on_c, 6, 63, 95
4, 384000, Note_off_c, 6, 80, 95
4, 384000, Note_off_c, 6, 68, 95
4, 384000, Note_off_c, 6, 63, 95
4, 384000, Note_on_c, 6, 80, 95
4, 384000, Note_on_c, 6, 68, 95
4, 384000, Note_on_c, 6, 63, 95
4, 384240, Note_off_c, 6, 80, 95
4, 384240, Note_off_c, 6, 68, 95
4, 384240, Note_off_c, 6, 63, 95
4, 384240, Note_on_c, 6, 80, 95
4, 384240, Note_on_c, 6, 68, 95
4, 384240, Note_on_c, 6, 63, 95
4, 384480, Note_off_c, 6, 80, 95
4, 384480, Note_off_c, 6, 68, 95
4, 384480, Note_off_c, 6, 63, 95
4, 384480, Note_on_c, 6, 80, 95
4, 384480, Note_on_c, 6, 68, 95
4, 384480, Note_on_c, 6, 63, 95
4, 384720, Note_off_c, 6, 80, 95
4, 384720, Note_off_c, 6, 68, 95
4, 384720, Note_off_c, 6, 63, 95
4, 384720, Note_on_c, 6, 80, 95
4, 384720, Note_on_c, 6, 68, 95
4, 384720, Note_on_c, 6, 63, 95
4, 384960, Note_off_c, 6, 80, 95
4, 384960, Note_off_c, 6, 68, 95
4, 384960, Note_off_c, 6, 63, 95
4, 384960, Note_on_c, 6, 80, 95
4, 384960, Note_on_c, 6, 68, 95
4, 384960, Note_on_c, 6, 63, 95
4, 385200, Note_off_c, 6, 80, 95
4, 385200, Note_off_c, 6, 68, 95
4, 385200, Note_off_c, 6, 63, 95
4, 385200, Note_on_c, 6, 80, 95
4, 385200, Note_on_c, 6, 68, 95
4, 385200, Note_on_c, 6, 63, 95
4, 385440, Note_off_c, 6, 80, 95
4, 385440, Note_off_c, 6, 68, 95
4, 385440, Note_off_c, 6, 63, 95
4, 385440, Note_on_c, 6, 80, 95
4, 385440, Note_on_c, 6, 68, 95
4, 385440, Note_on_c, 6, 63, 95
4, 385680, Note_off_c, 6, 80, 95
4, 385680, Note_off_c, 6, 68, 95
4, 385680, Note_off_c, 6, 63, 95
4, 385680, Note_on_c, 6, 80, 95
4, 385680, Note_on_c, 6, 68, 95
4, 385680, Note_on_c, 6, 63, 95
4, 385920, Note_off_c, 6, 80, 95
4, 385920, Note_off_c, 6, 68, 95
4, 385920, Note_off_c, 6, 63, 95
4, 385920, Note_on_c, 6, 80, 95
4, 385920, Note_on_c, 6, 68, 95
4, 385920, Note_on_c, 6, 63, 95
4, 386160, Note_off_c, 6, 80, 95
4, 386160, Note_off_c, 6, 68, 95
4, 386160, Note_off_c, 6, 63, 95
4, 386160, Note_on_c, 6, 80, 95
4, 386160, Note_on_c, 6, 68, 95
4, 386160, Note_on_c, 6, 63, 95
4, 386400, Note_off_c, 6, 80, 95
4, 386400, Note_off_c, 6, 68, 95
4, 386400, Note_off_c, 6, 63, 95
4, 386400, Note_on_c, 6, 80, 95
4, 386400, Note_on_c, 6, 68, 95
4, 386400, Note_on_c, 6, 63, 95
4, 386640, Note_off_c, 6, 80, 95
4, 386640, Note_off_c, 6, 68, 95
4, 386640, Note_off_c, 6, 63, 95
4, 386640, Note_on_c, 6, 80, 95
4, 386640, Note_on_c, 6, 68, 95
4, 386640, Note_on_c, 6, 63, 95
4, 386880, Note_off_c, 6, 80, 95
4, 386880, Note_off_c, 6, 68, 95
4, 386880, Note_off_c, 6, 63, 95
4, 386880, Note_on_c, 6, 80, 95
4, 386880, Note_on_c, 6, 68, 95
4, 386880, Note_on_c, 6, 63, 95
4, 387120, Note_off_c, 6, 80, 95
4, 387120, Note_off_c, 6, 68, 95
4, 387120, Note_off_c, 6, 63, 95
4, 387120, Note_on_c, 6, 80, 95
4, 387120, Note_on_c, 6, 68, 95
4, 387120, Note_on_c, 6, 63, 95
4, 387360, Note_off_c, 6, 80, 95
4, 387360, Note_off_c, 6, 68, 95
4, 387360, Note_off_c, 6, 63, 95
4, 387360, Note_on_c, 6, 80, 95
4, 387360, Note_on_c, 6, 68, 95
4, 387360, Note_on_c, 6, 63, 95
4, 387600, Note_off_c, 6, 80, 95
4, 387600, Note_off_c, 6, 68, 95
4, 387600, Note_off_c, 6, 63, 95
4, 387600, Note_on_c, 6, 80, 95
4, 387600, Note_on_c, 6, 68, 95
4, 387600, Note_on_c, 6, 63, 95
4, 387840, Note_off_c, 6, 80, 95
4, 387840, Note_off_c, 6, 68, 95
4, 387840, Note_off_c, 6, 63, 95
4, 387840, Note_on_c, 6, 80, 95
4, 387840, Note_on_c, 6, 68, 95
4, 387840, Note_on_c, 6, 63, 95
4, 388080, Note_off_c, 6, 80, 95
4, 388080, Note_off_c, 6, 68, 95
4, 388080, Note_off_c, 6, 63, 95
4, 388080, Note_on_c, 6, 80, 95
4, 388080, Note_on_c, 6, 68, 95
4, 388080, Note_on_c, 6, 63, 95
4, 388320, Note_off_c, 6, 80, 95
4, 388320, Note_off_c, 6, 68, 95
4, 388320, Note_off_c, 6, 63, 95
4, 388320, Note_on_c, 6, 80, 95
4, 388320, Note_on_c, 6, 68, 95
4, 388320, Note_on_c, 6, 63, 95
4, 388560, Note_off_c, 6, 80, 95
4, 388560, Note_off_c, 6, 68, 95
4, 388560, Note_off_c, 6, 63, 95
4, 388560, Note_on_c, 6, 80, 95
4, 388560, Note_on_c, 6, 68, 95
4, 388560, Note_on_c, 6, 63, 95
4, 388800, Note_off_c, 6, 80, 95
4, 388800, Note_off_c, 6, 68, 95
4, 388800, Note_off_c, 6, 63, 95
4, 388800, Note_on_c, 6, 80, 95
4, 388800, Note_on_c, 6, 68, 95
4, 388800, Note_on_c, 6, 63, 95
4, 389040, Note_off_c, 6, 80, 95
4, 389040, Note_off_c, 6, 68, 95
4, 389040, Note_off_c, 6, 63, 95
4, 389040, Note_on_c, 6, 80, 95
4, 389040, Note_on_c, 6, 68, 95
4, 389040, Note_on_c, 6, 63, 95
4, 389280, Note_off_c, 6, 80, 95
4, 389280, Note_off_c, 6, 68, 95
4, 389280, Note_off_c, 6, 63, 95
4, 389280, Note_on_c, 6, 80, 95
4, 389280, Note_on_c, 6, 68, 95
4, 389280, Note_on_c, 6, 63, 95
4, 389520, Note_off_c, 6, 80, 95
4, 389520, Note_off_c, 6, 68, 95
4, 389520, Note_off_c, 6, 63, 95
4, 389520, Note_on_c, 6, 80, 95
4, 389520, Note_on_c, 6, 68, 95
4, 389520, Note_on_c, 6, 63, 95
4, 389760, Note_off_c, 6, 80, 95
4, 389760, Note_off_c, 6, 68, 95
4, 389760, Note_off_c, 6, 63, 95
4, 389760, Note_on_c, 6, 80, 95
4, 389760, Note_on_c, 6, 68, 95
4, 389760, Note_on_c, 6, 63, 95
4, 390000, Note_off_c, 6, 80, 95
4, 390000, Note_off_c, 6, 68, 95
4, 390000, Note_off_c, 6, 63, 95
4, 390000, Note_on_c, 6, 80, 95
4, 390000, Note_on_c, 6, 68, 95
4, 390000, Note_on_c, 6, 63, 95
4, 390240, Note_off_c, 6, 80, 95
4, 390240, Note_off_c, 6, 68, 95
4, 390240, Note_off_c, 6, 63, 95
4, 390240, Note_on_c, 6, 80, 95
4, 390240, Note_on_c, 6, 68, 95
4, 390240, Note_on_c, 6, 63, 95
4, 390480, Note_off_c, 6, 80, 95
4, 390480, Note_off_c, 6, 68, 95
4, 390480, Note_off_c, 6, 63, 95
4, 390480, Note_on_c, 6, 80, 95
4, 390480, Note_on_c, 6, 68, 95
4, 390480, Note_on_c, 6, 63, 95
4, 390720, Note_off_c, 6, 80, 95
4, 390720, Note_off_c, 6, 68, 95
4, 390720, Note_off_c, 6, 63, 95
4, 390720, Note_on_c, 6, 80, 95
4, 390720, Note_on_c, 6, 68, 95
4, 390720, Note_on_c, 6, 63, 95
4, 390960, Note_off_c, 6, 80, 95
4, 390960, Note_off_c, 6, 68, 95
4, 390960, Note_off_c, 6, 63, 95
4, 390960, Note_on_c, 6, 80, 95
4, 390960, Note_on_c, 6, 68, 95
4, 390960, Note_on_c, 6, 63, 95
4, 391200, Note_off_c, 6, 80, 95
4, 391200, Note_off_c, 6, 68, 95
4, 391200, Note_off_c, 6, 63, 95
4, 391200, Note_on_c, 6, 78, 95
4, 391200, Note_on_c, 6, 66, 95
4, 391200, Note_on_c, 6, 61, 95
4, 391440, Note_off_c, 6, 78, 95
4, 391440, Note_off_c, 6, 66, 95
4, 391440, Note_off_c, 6, 61, 95
4, 391440, Note_on_c, 6, 78, 95
4, 391440, Note_on_c, 6, 66, 95
4, 391440, Note_on_c, 6, 61, 95
4, 391680, Note_off_c, 6, 78, 95
4, 391680, Note_off_c, 6, 66, 95
4, 391680, Note_off_c, 6, 61, 95
4, 391680, Note_on_c, 6, 78, 95
4, 391680, Note_on_c, 6, 66, 95
4, 391680, Note_on_c, 6, 61, 95
4, 391920, Note_off_c, 6, 78, 95
4, 391920, Note_off_c, 6, 66, 95
4, 391920, Note_off_c, 6, 61, 95
4, 391920, Note_on_c, 6, 78, 95
4, 391920, Note_on_c, 6, 66, 95
4, 391920, Note_on_c, 6, 61, 95
4, 392160, Note_off_c, 6, 78, 95
4, 392160, Note_off_c, 6, 66, 95
4, 392160, Note_off_c, 6, 61, 95
4, 392160, Note_on_c, 6, 78, 95
4, 392160, Note_on_c, 6, 66, 95
4, 392160, Note_on_c, 6, 61, 95
4, 392400, Note_off_c, 6, 78, 95
4, 392400, Note_off_c, 6, 66, 95
4, 392400, Note_off_c, 6, 61, 95
4, 392400, Note_on_c, 6, 78, 95
4, 392400, Note_on_c, 6, 66, 95
4, 392400, Note_on_c, 6, 61, 95
4, 392640, Note_off_c, 6, 78, 95
4, 392640, Note_off_c, 6, 66, 95
4, 392640, Note_off_c, 6, 61, 95
4, 392640, Note_on_c, 6, 78, 95
4, 392640, Note_on_c, 6, 66, 95
4, 392640, Note_on_c, 6, 61, 95
4, 392880, Note_off_c, 6, 78, 95
4, 392880, Note_off_c, 6, 66, 95
4, 392880, Note_off_c, 6, 61, 95
4, 392880, Note_on_c, 6, 78, 95
4, 392880, Note_on_c, 6, 66, 95
4, 392880, Note_on_c, 6, 61, 95
4, 393120, Note_off_c, 6, 78, 95
4, 393120, Note_off_c, 6, 66, 95
4, 393120, Note_off_c, 6, 61, 95
4, 393120, Note_on_c, 6, 78, 95
4, 393120, Note_on_c, 6, 66, 95
4, 393120, Note_on_c, 6, 61, 95
4, 393360, Note_off_c, 6, 78, 95
4, 393360, Note_off_c, 6, 66, 95
4, 393360, Note_off_c, 6, 61, 95
4, 393360, Note_on_c, 6, 78, 95
4, 393360, Note_on_c, 6, 66, 95
4, 393360, Note_on_c, 6, 61, 95
4, 393600, Note_off_c, 6, 78, 95
4, 393600, Note_off_c, 6, 66, 95
4, 393600, Note_off_c, 6, 61, 95
4, 393600, Note_on_c, 6, 78, 95
4, 393600, Note_on_c, 6, 66, 95
4, 393600, Note_on_c, 6, 61, 95
4, 393840, Note_off_c, 6, 78, 95
4, 393840, Note_off_c, 6, 66, 95
4, 393840, Note_off_c, 6, 61, 95
4, 393840, Note_on_c, 6, 78, 95
4, 393840, Note_on_c, 6, 66, 95
4, 393840, Note_on_c, 6, 61, 95
4, 394080, Note_off_c, 6, 78, 95
4, 394080, Note_off_c, 6, 66, 95
4, 394080, Note_off_c, 6, 61, 95
4, 394080, Note_on_c, 6, 78, 95
4, 394080, Note_on_c, 6, 66, 95
4, 394080, Note_on_c, 6, 61, 95
4, 394320, Note_off_c, 6, 78, 95
4, 394320, Note_off_c, 6, 66, 95
4, 394320, Note_off_c, 6, 61, 95
4, 394320, Note_on_c, 6, 78, 95
4, 394320, Note_on_c, 6, 66, 95
4, 394320, Note_on_c, 6, 61, 95
4, 394560, Note_off_c, 6, 78, 95
4, 394560, Note_off_c, 6, 66, 95
4, 394560, Note_off_c, 6, 61, 95
4, 394560, Note_on_c, 6, 78, 95
4, 394560, Note_on_c, 6, 66, 95
4, 394560, Note_on_c, 6, 61, 95
4, 394800, Note_off_c, 6, 78, 95
4, 394800, Note_off_c, 6, 66, 95
4, 394800, Note_off_c, 6, 61, 95
4, 394800, Note_on_c, 6, 78, 95
4, 394800, Note_on_c, 6, 66, 95
4, 394800, Note_on_c, 6, 61, 95
4, 395040, Note_off_c, 6, 78, 95
4, 395040, Note_off_c, 6, 66, 95
4, 395040, Note_off_c, 6, 61, 95
4, 395040, Note_on_c, 6, 78, 95
4, 395040, Note_on_c, 6, 66, 95
4, 395040, Note_on_c, 6, 61, 95
4, 395280, Note_off_c, 6, 78, 95
4, 395280, Note_off_c, 6, 66, 95
4, 395280, Note_off_c, 6, 61, 95
4, 395280, Note_on_c, 6, 78, 95
4, 395280, Note_on_c, 6, 66, 95
4, 395280, Note_on_c, 6, 61, 95
4, 395520, Note_off_c, 6, 78, 95
4, 395520, Note_off_c, 6, 66, 95
4, 395520, Note_off_c, 6, 61, 95
4, 395520, Note_on_c, 6, 78, 95
4, 395520, Note_on_c, 6, 66, 95
4, 395520, Note_on_c, 6, 61, 95
4, 395760, Note_off_c, 6, 78, 95
4, 395760, Note_off_c, 6, 66, 95
4, 395760, Note_off_c, 6, 61, 95
4, 395760, Note_on_c, 6, 78, 95
4, 395760, Note_on_c, 6, 66, 95
4, 395760, Note_on_c, 6, 61, 95
4, 396000, Note_off_c, 6, 78, 95
4, 396000, Note_off_c, 6, 66, 95
4, 396000, Note_off_c, 6, 61, 95
4, 396000, Note_on_c, 6, 78, 95
4, 396000, Note_on_c, 6, 66, 95
4, 396000, Note_on_c, 6, 61, 95
4, 396240, Note_off_c, 6, 78, 95
4, 396240, Note_off_c, 6, 66, 95
4, 396240, Note_off_c, 6, 61, 95
4, 396240, Note_on_c, 6, 78, 95
4, 396240, Note_on_c, 6, 66, 95
4, 396240, Note_on_c, 6, 61, 95
4, 396480, Note_off_c, 6, 78, 95
4, 396480, Note_off_c, 6, 66, 95
4, 396480, Note_off_c, 6, 61, 95
4, 396480, Note_on_c, 6, 78, 95
4, 396480, Note_on_c, 6, 66, 95
4, 396480, Note_on_c, 6, 61, 95
4, 396720, Note_off_c, 6, 78, 95
4, 396720, Note_off_c, 6, 66, 95
4, 396720, Note_off_c, 6, 61, 95
4, 396720, Note_on_c, 6, 78, 95
4, 396720, Note_on_c, 6, 66, 95
4, 396720, Note_on_c, 6, 61, 95
4, 396960, Note_off_c, 6, 78, 95
4, 396960, Note_off_c, 6, 66, 95
4, 396960, Note_off_c, 6, 61, 95
4, 396960, Note_on_c, 6, 78, 95
4, 396960, Note_on_c, 6, 66, 95
4, 396960, Note_on_c, 6, 61, 95
4, 397200, Note_off_c, 6, 78, 95
4, 397200, Note_off_c, 6, 66, 95
4, 397200, Note_off_c, 6, 61, 95
4, 397200, Note_on_c, 6, 78, 95
4, 397200, Note_on_c, 6, 66, 95
4, 397200, Note_on_c, 6, 61, 95
4, 397440, Note_off_c, 6, 78, 95
4, 397440, Note_off_c, 6, 66, 95
4, 397440, Note_off_c, 6, 61, 95
4, 397440, Note_on_c, 6, 76, 95
4, 397440, Note_on_c, 6, 64, 95
4, 397440, Note_on_c, 6, 59, 95
4, 397680, Note_off_c, 6, 76, 95
4, 397680, Note_off_c, 6, 64, 95
4, 397680, Note_off_c, 6, 59, 95
4, 397680, Note_on_c, 6, 76, 95
4, 397680, Note_on_c, 6, 64, 95
4, 397680, Note_on_c, 6, 59, 95
4, 397920, Note_off_c, 6, 76, 95
4, 397920, Note_off_c, 6, 64, 95
4, 397920, Note_off_c, 6, 59, 95
4, 397920, Note_on_c, 6, 76, 95
4, 397920, Note_on_c, 6, 64, 95
4, 397920, Note_on_c, 6, 59, 95
4, 398160, Note_off_c, 6, 76, 95
4, 398160, Note_off_c, 6, 64, 95
4, 398160, Note_off_c, 6, 59, 95
4, 398160, Note_on_c, 6, 76, 95
4, 398160, Note_on_c, 6, 64, 95
4, 398160, Note_on_c, 6, 59, 95
4, 398400, Note_off_c, 6, 76, 95
4, 398400, Note_off_c, 6, 64, 95
4, 398400, Note_off_c, 6, 59, 95
4, 398400, Note_on_c, 6, 76, 95
4, 398400, Note_on_c, 6, 64, 95
4, 398400, Note_on_c, 6, 59, 95
4, 398640, Note_off_c, 6, 76, 95
4, 398640, Note_off_c, 6, 64, 95
4, 398640, Note_off_c, 6, 59, 95
4, 398640, Note_on_c, 6, 76, 95
4, 398640, Note_on_c, 6, 64, 95
4, 398640, Note_on_c, 6, 59, 95
4, 398880, Note_off_c, 6, 76, 95
4, 398880, Note_off_c, 6, 64, 95
4, 398880, Note_off_c, 6, 59, 95
4, 398880, Note_on_c, 6, 76, 95
4, 398880, Note_on_c, 6, 64, 95
4, 398880, Note_on_c, 6, 59, 95
4, 399120, Note_off_c, 6, 76, 95
4, 399120, Note_off_c, 6, 64, 95
4, 399120, Note_off_c, 6, 59, 95
4, 399120, Note_on_c, 6, 76, 95
4, 399120, Note_on_c, 6, 64, 95
4, 399120, Note_on_c, 6, 59, 95
4, 399360, Note_off_c, 6, 76, 95
4, 399360, Note_off_c, 6, 64, 95
4, 399360, Note_off_c, 6, 59, 95
4, 399360, Note_on_c, 6, 76, 95
4, 399360, Note_on_c, 6, 64, 95
4, 399360, Note_on_c, 6, 59, 95
4, 399600, Note_off_c, 6, 76, 95
4, 399600, Note_off_c, 6, 64, 95
4, 399600, Note_off_c, 6, 59, 95
4, 399600, Note_on_c, 6, 76, 95
4, 399600, Note_on_c, 6, 64, 95
4, 399600, Note_on_c, 6, 59, 95
4, 399840, Note_off_c, 6, 76, 95
4, 399840, Note_off_c, 6, 64, 95
4, 399840, Note_off_c, 6, 59, 95
4, 399840, Note_on_c, 6, 76, 95
4, 399840, Note_on_c, 6, 64, 95
4, 399840, Note_on_c, 6, 59, 95
4, 400080, Note_off_c, 6, 76, 95
4, 400080, Note_off_c, 6, 64, 95
4, 400080, Note_off_c, 6, 59, 95
4, 400080, Note_on_c, 6, 76, 95
4, 400080, Note_on_c, 6, 64, 95
4, 400080, Note_on_c, 6, 59, 95
4, 400320, Note_off_c, 6, 76, 95
4, 400320, Note_off_c, 6, 64, 95
4, 400320, Note_off_c, 6, 59, 95
4, 400320, Note_on_c, 6, 76, 95
4, 400320, Note_on_c, 6, 64, 95
4, 400320, Note_on_c, 6, 59, 95
4, 400560, Note_off_c, 6, 76, 95
4, 400560, Note_off_c, 6, 64, 95
4, 400560, Note_off_c, 6, 59, 95
4, 400560, Note_on_c, 6, 76, 95
4, 400560, Note_on_c, 6, 64, 95
4, 400560, Note_on_c, 6, 59, 95
4, 400800, Note_off_c, 6, 76, 95
4, 400800, Note_off_c, 6, 64, 95
4, 400800, Note_off_c, 6, 59, 95
4, 400800, Note_on_c, 6, 76, 95
4, 400800, Note_on_c, 6, 64, 95
4, 400800, Note_on_c, 6, 59, 95
4, 401040, Note_off_c, 6, 76, 95
4, 401040, Note_off_c, 6, 64, 95
4, 401040, Note_off_c, 6, 59, 95
4, 401040, Note_on_c, 6, 76, 95
4, 401040, Note_on_c, 6, 64, 95
4, 401040, Note_on_c, 6, 59, 95
4, 401280, Note_off_c, 6, 76, 95
4, 401280, Note_off_c, 6, 64, 95
4, 401280, Note_off_c, 6, 59, 95
4, 401280, Note_on_c, 6, 76, 95
4, 401280, Note_on_c, 6, 64, 95
4, 401280, Note_on_c, 6, 59, 95
4, 401520, Note_off_c, 6, 76, 95
4, 401520, Note_off_c, 6, 64, 95
4, 401520, Note_off_c, 6, 59, 95
4, 401520, Note_on_c, 6, 76, 95
4, 401520, Note_on_c, 6, 64, 95
4, 401520, Note_on_c, 6, 59, 95
4, 401760, Note_off_c, 6, 76, 95
4, 401760, Note_off_c, 6, 64, 95
4, 401760, Note_off_c, 6, 59, 95
4, 401760, Note_on_c, 6, 76, 95
4, 401760, Note_on_c, 6, 64, 95
4, 401760, Note_on_c, 6, 59, 95
4, 402000, Note_off_c, 6, 76, 95
4, 402000, Note_off_c, 6, 64, 95
4, 402000, Note_off_c, 6, 59, 95
4, 402000, Note_on_c, 6, 76, 95
4, 402000, Note_on_c, 6, 64, 95
4, 402000, Note_on_c, 6, 59, 95
4, 402240, Note_off_c, 6, 76, 95
4, 402240, Note_off_c, 6, 64, 95
4, 402240, Note_off_c, 6, 59, 95
4, 402240, Note_on_c, 6, 76, 95
4, 402240, Note_on_c, 6, 64, 95
4, 402240, Note_on_c, 6, 59, 95
4, 402480, Note_off_c, 6, 76, 95
4, 402480, Note_off_c, 6, 64, 95
4, 402480, Note_off_c, 6, 59, 95
4, 402480, Note_on_c, 6, 76, 95
4, 402480, Note_on_c, 6, 64, 95
4, 402480, Note_on_c, 6, 59, 95
4, 402720, Note_off_c, 6, 76, 95
4, 402720, Note_off_c, 6, 64, 95
4, 402720, Note_off_c, 6, 59, 95
4, 402720, Note_on_c, 6, 76, 95
4, 402720, Note_on_c, 6, 64, 95
4, 402720, Note_on_c, 6, 59, 95
4, 402960, Note_off_c, 6, 76, 95
4, 402960, Note_off_c, 6, 64, 95
4, 402960, Note_off_c, 6, 59, 95
4, 402960, Note_on_c, 6, 76, 95
4, 402960, Note_on_c, 6, 64, 95
4, 402960, Note_on_c, 6, 59, 95
4, 403200, Note_off_c, 6, 76, 95
4, 403200, Note_off_c, 6, 64, 95
4, 403200, Note_off_c, 6, 59, 95
4, 403200, Note_on_c, 6, 76, 95
4, 403200, Note_on_c, 6, 64, 95
4, 403200, Note_on_c, 6, 59, 95
4, 403440, Note_off_c, 6, 76, 95
4, 403440, Note_off_c, 6, 64, 95
4, 403440, Note_off_c, 6, 59, 95
4, 403440, Note_on_c, 6, 76, 95
4, 403440, Note_on_c, 6, 64, 95
4, 403440, Note_on_c, 6, 59, 95
4, 403680, Note_off_c, 6, 76, 95
4, 403680, Note_off_c, 6, 64, 95
4, 403680, Note_off_c, 6, 59, 95
4, 403680, Note_on_c, 6, 76, 95
4, 403680, Note_on_c, 6, 64, 95
4, 403680, Note_on_c, 6, 59, 95
4, 403920, Note_off_c, 6, 76, 95
4, 403920, Note_off_c, 6, 64, 95
4, 403920, Note_off_c, 6, 59, 95
4, 403920, Note_on_c, 6, 76, 95
4, 403920, Note_on_c, 6, 64, 95
4, 403920, Note_on_c, 6, 59, 95
4, 404160, Note_off_c, 6, 76, 95
4, 404160, Note_off_c, 6, 64, 95
4, 404160, Note_off_c, 6, 59, 95
4, 404160, Note_on_c, 6, 76, 95
4, 404160, Note_on_c, 6, 64, 95
4, 404160, Note_on_c, 6, 59, 95
4, 404400, Note_off_c, 6, 76, 95
4, 404400, Note_off_c, 6, 64, 95
4, 404400, Note_off_c, 6, 59, 95
4, 404400, Note_on_c, 6, 76, 95
4, 404400, Note_on_c, 6, 64, 95
4, 404400, Note_on_c, 6, 59, 95
4, 404640, Note_off_c, 6, 76, 95
4, 404640, Note_off_c, 6, 64, 95
4, 404640, Note_off_c, 6, 59, 95
4, 404640, Note_on_c, 6, 76, 95
4, 404640, Note_on_c, 6, 64, 95
4, 404640, Note_on_c, 6, 59, 95
4, 404880, Note_off_c, 6, 76, 95
4, 404880, Note_off_c, 6, 64, 95
4, 404880, Note_off_c, 6, 59, 95
4, 404880, Note_on_c, 6, 76, 95
4, 404880, Note_on_c, 6, 64, 95
4, 404880, Note_on_c, 6, 59, 95
4, 405120, Note_off_c, 6, 76, 95
4, 405120, Note_off_c, 6, 64, 95
4, 405120, Note_off_c, 6, 59, 95
4, 405120, Note_on_c, 6, 78, 95
4, 405120, Note_on_c, 6, 66, 95
4, 405120, Note_on_c, 6, 61, 95
4, 405360, Note_off_c, 6, 78, 95
4, 405360, Note_off_c, 6, 66, 95
4, 405360, Note_off_c, 6, 61, 95
4, 405360, Note_on_c, 6, 78, 95
4, 405360, Note_on_c, 6, 66, 95
4, 405360, Note_on_c, 6, 61, 95
4, 405600, Note_off_c, 6, 78, 95
4, 405600, Note_off_c, 6, 66, 95
4, 405600, Note_off_c, 6, 61, 95
4, 405600, Note_on_c, 6, 78, 95
4, 405600, Note_on_c, 6, 66, 95
4, 405600, Note_on_c, 6, 61, 95
4, 405840, Note_off_c, 6, 78, 95
4, 405840, Note_off_c, 6, 66, 95
4, 405840, Note_off_c, 6, 61, 95
4, 405840, Note_on_c, 6, 78, 95
4, 405840, Note_on_c, 6, 66, 95
4, 405840, Note_on_c, 6, 61, 95
4, 406080, Note_off_c, 6, 78, 95
4, 406080, Note_off_c, 6, 66, 95
4, 406080, Note_off_c, 6, 61, 95
4, 406080, Note_on_c, 6, 78, 95
4, 406080, Note_on_c, 6, 66, 95
4, 406080, Note_on_c, 6, 61, 95
4, 406320, Note_off_c, 6, 78, 95
4, 406320, Note_off_c, 6, 66, 95
4, 406320, Note_off_c, 6, 61, 95
4, 406320, Note_on_c, 6, 78, 95
4, 406320, Note_on_c, 6, 66, 95
4, 406320, Note_on_c, 6, 61, 95
4, 406560, Note_off_c, 6, 78, 95
4, 406560, Note_off_c, 6, 66, 95
4, 406560, Note_off_c, 6, 61, 95
4, 406560, Note_on_c, 6, 78, 95
4, 406560, Note_on_c, 6, 66, 95
4, 406560, Note_on_c, 6, 61, 95
4, 406800, Note_off_c, 6, 78, 95
4, 406800, Note_off_c, 6, 66, 95
4, 406800, Note_off_c, 6, 61, 95
4, 406800, Note_on_c, 6, 78, 95
4, 406800, Note_on_c, 6, 66, 95
4, 406800, Note_on_c, 6, 61, 95
4, 407040, Note_off_c, 6, 78, 95
4, 407040, Note_off_c, 6, 66, 95
4, 407040, Note_off_c, 6, 61, 95
4, 407040, Note_on_c, 6, 78, 95
4, 407040, Note_on_c, 6, 66, 95
4, 407040, Note_on_c, 6, 61, 95
4, 407280, Note_off_c, 6, 78, 95
4, 407280, Note_off_c, 6, 66, 95
4, 407280, Note_off_c, 6, 61, 95
4, 407280, Note_on_c, 6, 78, 95
4, 407280, Note_on_c, 6, 66, 95
4, 407280, Note_on_c, 6, 61, 95
4, 407520, Note_off_c, 6, 78, 95
4, 407520, Note_off_c, 6, 66, 95
4, 407520, Note_off_c, 6, 61, 95
4, 407520, Note_on_c, 6, 78, 95
4, 407520, Note_on_c, 6, 66, 95
4, 407520, Note_on_c, 6, 61, 95
4, 407760, Note_off_c, 6, 78, 95
4, 407760, Note_off_c, 6, 66, 95
4, 407760, Note_off_c, 6, 61, 95
4, 407760, Note_on_c, 6, 78, 95
4, 407760, Note_on_c, 6, 66, 95
4, 407760, Note_on_c, 6, 61, 95
4, 408000, Note_off_c, 6, 78, 95
4, 408000, Note_off_c, 6, 66, 95
4, 408000, Note_off_c, 6, 61, 95
4, 408000, Note_on_c, 6, 78, 95
4, 408000, Note_on_c, 6, 66, 95
4, 408000, Note_on_c, 6, 61, 95
4, 408240, Note_off_c, 6, 78, 95
4, 408240, Note_off_c, 6, 66, 95
4, 408240, Note_off_c, 6, 61, 95
4, 408240, Note_on_c, 6, 78, 95
4, 408240, Note_on_c, 6, 66, 95
4, 408240, Note_on_c, 6, 61, 95
4, 408480, Note_off_c, 6, 78, 95
4, 408480, Note_off_c, 6, 66, 95
4, 408480, Note_off_c, 6, 61, 95
4, 408480, Note_on_c, 6, 78, 95
4, 408480, Note_on_c, 6, 66, 95
4, 408480, Note_on_c, 6, 61, 95
4, 408720, Note_off_c, 6, 78, 95
4, 408720, Note_off_c, 6, 66, 95
4, 408720, Note_off_c, 6, 61, 95
4, 408720, Note_on_c, 6, 78, 95
4, 408720, Note_on_c, 6, 66, 95
4, 408720, Note_on_c, 6, 61, 95
4, 408960, Note_off_c, 6, 78, 95
4, 408960, Note_off_c, 6, 66, 95
4, 408960, Note_off_c, 6, 61, 95
4, 408960, Note_on_c, 6, 78, 95
4, 408960, Note_on_c, 6, 66, 95
4, 408960, Note_on_c, 6, 61, 95
4, 409200, Note_off_c, 6, 78, 95
4, 409200, Note_off_c, 6, 66, 95
4, 409200, Note_off_c, 6, 61, 95
4, 409200, Note_on_c, 6, 78, 95
4, 409200, Note_on_c, 6, 66, 95
4, 409200, Note_on_c, 6, 61, 95
4, 409440, Note_off_c, 6, 78, 95
4, 409440, Note_off_c, 6, 66, 95
4, 409440, Note_off_c, 6, 61, 95
4, 409440, Note_on_c, 6, 78, 95
4, 409440, Note_on_c, 6, 66, 95
4, 409440, Note_on_c, 6, 61, 95
4, 409680, Note_off_c, 6, 78, 95
4, 409680, Note_off_c, 6, 66, 95
4, 409680, Note_off_c, 6, 61, 95
4, 409680, Note_on_c, 6, 78, 95
4, 409680, Note_on_c, 6, 66, 95
4, 409680, Note_on_c, 6, 61, 95
4, 409920, Note_off_c, 6, 78, 95
4, 409920, Note_off_c, 6, 66, 95
4, 409920, Note_off_c, 6, 61, 95
4, 409920, Note_on_c, 6, 78, 95
4, 409920, Note_on_c, 6, 66, 95
4, 409920, Note_on_c, 6, 61, 95
4, 410160, Note_off_c, 6, 78, 95
4, 410160, Note_off_c, 6, 66, 95
4, 410160, Note_off_c, 6, 61, 95
4, 410160, Note_on_c, 6, 78, 95
4, 410160, Note_on_c, 6, 66, 95
4, 410160, Note_on_c, 6, 61, 95
4, 410400, Note_off_c, 6, 78, 95
4, 410400, Note_off_c, 6, 66, 95
4, 410400, Note_off_c, 6, 61, 95
4, 410400, Note_on_c, 6, 78, 95
4, 410400, Note_on_c, 6, 66, 95
4, 410400, Note_on_c, 6, 61, 95
4, 410640, Note_off_c, 6, 78, 95
4, 410640, Note_off_c, 6, 66, 95
4, 410640, Note_off_c, 6, 61, 95
4, 410640, Note_on_c, 6, 78, 95
4, 410640, Note_on_c, 6, 66, 95
4, 410640, Note_on_c, 6, 61, 95
4, 410880, Note_off_c, 6, 78, 95
4, 410880, Note_off_c, 6, 66, 95
4, 410880, Note_off_c, 6, 61, 95
4, 410880, Note_on_c, 6, 78, 95
4, 410880, Note_on_c, 6, 66, 95
4, 410880, Note_on_c, 6, 61, 95
4, 411120, Note_off_c, 6, 78, 95
4, 411120, Note_off_c, 6, 66, 95
4, 411120, Note_off_c, 6, 61, 95
4, 411120, Note_on_c, 6, 78, 95
4, 411120, Note_on_c, 6, 66, 95
4, 411120, Note_on_c, 6, 61, 95
4, 411360, Note_off_c, 6, 78, 95
4, 411360, Note_off_c, 6, 66, 95
4, 411360, Note_off_c, 6, 61, 95
4, 411360, Note_on_c, 6, 80, 95
4, 411360, Note_on_c, 6, 68, 95
4, 411360, Note_on_c, 6, 63, 95
4, 411600, Note_off_c, 6, 80, 95
4, 411600, Note_off_c, 6, 68, 95
4, 411600, Note_off_c, 6, 63, 95
4, 411600, Note_on_c, 6, 80, 95
4, 411600, Note_on_c, 6, 68, 95
4, 411600, Note_on_c, 6, 63, 95
4, 411840, Note_off_c, 6, 80, 95
4, 411840, Note_off_c, 6, 68, 95
4, 411840, Note_off_c, 6, 63, 95
4, 411840, Note_on_c, 6, 80, 95
4, 411840, Note_on_c, 6, 68, 95
4, 411840, Note_on_c, 6, 63, 95
4, 412080, Note_off_c, 6, 80, 95
4, 412080, Note_off_c, 6, 68, 95
4, 412080, Note_off_c, 6, 63, 95
4, 412080, Note_on_c, 6, 80, 95
4, 412080, Note_on_c, 6, 68, 95
4, 412080, Note_on_c, 6, 63, 95
4, 412320, Note_off_c, 6, 80, 95
4, 412320, Note_off_c, 6, 68, 95
4, 412320, Note_off_c, 6, 63, 95
4, 412320, Note_on_c, 6, 80, 95
4, 412320, Note_on_c, 6, 68, 95
4, 412320, Note_on_c, 6, 63, 95
4, 412560, Note_off_c, 6, 80, 95
4, 412560, Note_off_c, 6, 68, 95
4, 412560, Note_off_c, 6, 63, 95
4, 412560, Note_on_c, 6, 80, 95
4, 412560, Note_on_c, 6, 68, 95
4, 412560, Note_on_c, 6, 63, 95
4, 412800, Note_off_c, 6, 80, 95
4, 412800, Note_off_c, 6, 68, 95
4, 412800, Note_off_c, 6, 63, 95
4, 412800, Note_on_c, 6, 80, 95
4, 412800, Note_on_c, 6, 68, 95
4, 412800, Note_on_c, 6, 63, 95
4, 413040, Note_off_c, 6, 80, 95
4, 413040, Note_off_c, 6, 68, 95
4, 413040, Note_off_c, 6, 63, 95
4, 413040, Note_on_c, 6, 80, 95
4, 413040, Note_on_c, 6, 68, 95
4, 413040, Note_on_c, 6, 63, 95
4, 413280, Note_off_c, 6, 80, 95
4, 413280, Note_off_c, 6, 68, 95
4, 413280, Note_off_c, 6, 63, 95
4, 413280, Note_on_c, 6, 80, 95
4, 413280, Note_on_c, 6, 68, 95
4, 413280, Note_on_c, 6, 63, 95
4, 413520, Note_off_c, 6, 80, 95
4, 413520, Note_off_c, 6, 68, 95
4, 413520, Note_off_c, 6, 63, 95
4, 413520, Note_on_c, 6, 80, 95
4, 413520, Note_on_c, 6, 68, 95
4, 413520, Note_on_c, 6, 63, 95
4, 413760, Note_off_c, 6, 80, 95
4, 413760, Note_off_c, 6, 68, 95
4, 413760, Note_off_c, 6, 63, 95
4, 413760, Note_on_c, 6, 80, 95
4, 413760, Note_on_c, 6, 68, 95
4, 413760, Note_on_c, 6, 63, 95
4, 414000, Note_off_c, 6, 80, 95
4, 414000, Note_off_c, 6, 68, 95
4, 414000, Note_off_c, 6, 63, 95
4, 414000, Note_on_c, 6, 80, 95
4, 414000, Note_on_c, 6, 68, 95
4, 414000, Note_on_c, 6, 63, 95
4, 414240, Note_off_c, 6, 80, 95
4, 414240, Note_off_c, 6, 68, 95
4, 414240, Note_off_c, 6, 63, 95
4, 414240, Note_on_c, 6, 80, 95
4, 414240, Note_on_c, 6, 68, 95
4, 414240, Note_on_c, 6, 63, 95
4, 414480, Note_off_c, 6, 80, 95
4, 414480, Note_off_c, 6, 68, 95
4, 414480, Note_off_c, 6, 63, 95
4, 414480, Note_on_c, 6, 80, 95
4, 414480, Note_on_c, 6, 68, 95
4, 414480, Note_on_c, 6, 63, 95
4, 414720, Note_off_c, 6, 80, 95
4, 414720, Note_off_c, 6, 68, 95
4, 414720, Note_off_c, 6, 63, 95
4, 414720, Note_on_c, 6, 80, 95
4, 414720, Note_on_c, 6, 68, 95
4, 414720, Note_on_c, 6, 63, 95
4, 414960, Note_off_c, 6, 80, 95
4, 414960, Note_off_c, 6, 68, 95
4, 414960, Note_off_c, 6, 63, 95
4, 414960, Note_on_c, 6, 80, 95
4, 414960, Note_on_c, 6, 68, 95
4, 414960, Note_on_c, 6, 63, 95
4, 415200, Note_off_c, 6, 80, 95
4, 415200, Note_off_c, 6, 68, 95
4, 415200, Note_off_c, 6, 63, 95
4, 415200, Note_on_c, 6, 82, 95
4, 415200, Note_on_c, 6, 70, 95
4, 415200, Note_on_c, 6, 63, 95
4, 415440, Note_off_c, 6, 82, 95
4, 415440, Note_off_c, 6, 70, 95
4, 415440, Note_off_c, 6, 63, 95
4, 415440, Note_on_c, 6, 82, 95
4, 415440, Note_on_c, 6, 70, 95
4, 415440, Note_on_c, 6, 63, 95
4, 415680, Note_off_c, 6, 82, 95
4, 415680, Note_off_c, 6, 70, 95
4, 415680, Note_off_c, 6, 63, 95
4, 415680, Note_on_c, 6, 82, 95
4, 415680, Note_on_c, 6, 70, 95
4, 415680, Note_on_c, 6, 63, 95
4, 415920, Note_off_c, 6, 82, 95
4, 415920, Note_off_c, 6, 70, 95
4, 415920, Note_off_c, 6, 63, 95
4, 415920, Note_on_c, 6, 82, 95
4, 415920, Note_on_c, 6, 70, 95
4, 415920, Note_on_c, 6, 63, 95
4, 416160, Note_off_c, 6, 82, 95
4, 416160, Note_off_c, 6, 70, 95
4, 416160, Note_off_c, 6, 63, 95
4, 416160, Note_on_c, 6, 82, 95
4, 416160, Note_on_c, 6, 70, 95
4, 416160, Note_on_c, 6, 63, 95
4, 416400, Note_off_c, 6, 82, 95
4, 416400, Note_off_c, 6, 70, 95
4, 416400, Note_off_c, 6, 63, 95
4, 416400, Note_on_c, 6, 82, 95
4, 416400, Note_on_c, 6, 70, 95
4, 416400, Note_on_c, 6, 63, 95
4, 416640, Note_off_c, 6, 82, 95
4, 416640, Note_off_c, 6, 70, 95
4, 416640, Note_off_c, 6, 63, 95
4, 416640, Note_on_c, 6, 82, 95
4, 416640, Note_on_c, 6, 70, 95
4, 416640, Note_on_c, 6, 63, 95
4, 416880, Note_off_c, 6, 82, 95
4, 416880, Note_off_c, 6, 70, 95
4, 416880, Note_off_c, 6, 63, 95
4, 416880, Note_on_c, 6, 82, 95
4, 416880, Note_on_c, 6, 70, 95
4, 416880, Note_on_c, 6, 63, 95
4, 417120, Note_off_c, 6, 82, 95
4, 417120, Note_off_c, 6, 70, 95
4, 417120, Note_off_c, 6, 63, 95
4, 417120, Note_on_c, 6, 82, 95
4, 417120, Note_on_c, 6, 70, 95
4, 417120, Note_on_c, 6, 63, 95
4, 417360, Note_off_c, 6, 82, 95
4, 417360, Note_off_c, 6, 70, 95
4, 417360, Note_off_c, 6, 63, 95
4, 417360, Note_on_c, 6, 82, 95
4, 417360, Note_on_c, 6, 70, 95
4, 417360, Note_on_c, 6, 63, 95
4, 417600, Note_off_c, 6, 82, 95
4, 417600, Note_off_c, 6, 70, 95
4, 417600, Note_off_c, 6, 63, 95
4, 417600, Note_on_c, 6, 82, 95
4, 417600, Note_on_c, 6, 70, 95
4, 417600, Note_on_c, 6, 63, 95
4, 417840, Note_off_c, 6, 82, 95
4, 417840, Note_off_c, 6, 70, 95
4, 417840, Note_off_c, 6, 63, 95
4, 417840, Note_on_c, 6, 82, 95
4, 417840, Note_on_c, 6, 70, 95
4, 417840, Note_on_c, 6, 63, 95
4, 418080, Note_off_c, 6, 82, 95
4, 418080, Note_off_c, 6, 70, 95
4, 418080, Note_off_c, 6, 63, 95
4, 418080, Note_on_c, 6, 82, 95
4, 418080, Note_on_c, 6, 70, 95
4, 418080, Note_on_c, 6, 63, 95
4, 418320, Note_off_c, 6, 82, 95
4, 418320, Note_off_c, 6, 70, 95
4, 418320, Note_off_c, 6, 63, 95
4, 418320, Note_on_c, 6, 82, 95
4, 418320, Note_on_c, 6, 70, 95
4, 418320, Note_on_c, 6, 63, 95
4, 418560, Note_off_c, 6, 82, 95
4, 418560, Note_off_c, 6, 70, 95
4, 418560, Note_off_c, 6, 63, 95
4, 418560, Note_on_c, 6, 82, 95
4, 418560, Note_on_c, 6, 70, 95
4, 418560, Note_on_c, 6, 63, 95
4, 418800, Note_off_c, 6, 82, 95
4, 418800, Note_off_c, 6, 70, 95
4, 418800, Note_off_c, 6, 63, 95
4, 418800, Note_on_c, 6, 82, 95
4, 418800, Note_on_c, 6, 70, 95
4, 418800, Note_on_c, 6, 63, 95
4, 419040, Note_off_c, 6, 82, 95
4, 419040, Note_off_c, 6, 70, 95
4, 419040, Note_off_c, 6, 63, 95
4, 457440, Note_on_c, 6, 75, 95
4, 457440, Note_on_c, 6, 63, 95
4, 457440, Note_on_c, 6, 56, 95
4, 457440, Note_on_c, 6, 51, 95
4, 461280, Note_off_c, 6, 75, 95
4, 461280, Note_off_c, 6, 63, 95
4, 461280, Note_off_c, 6, 56, 95
4, 461280, Note_off_c, 6, 51, 95
4, 461280, Note_on_c, 6, 77, 95
4, 461280, Note_on_c, 6, 65, 95
4, 461280, Note_on_c, 6, 58, 95
4, 465120, Note_off_c, 6, 77, 95
4, 465120, Note_off_c, 6, 65, 95
4, 465120, Note_off_c, 6, 58, 95
4, 465120, Note_on_c, 6, 75, 95
4, 465120, Note_on_c, 6, 68, 95
4, 465120, Note_on_c, 6, 56, 95
4, 465120, Note_on_c, 6, 51, 95
4, 468960, Note_off_c, 6, 75, 95
4, 468960, Note_off_c, 6, 68, 95
4, 468960, Note_off_c, 6, 56, 95
4, 468960, Note_off_c, 6, 51, 95
4, 468960, Note_on_c, 6, 82, 95
4, 468960, Note_on_c, 6, 70, 95
4, 468960, Note_on_c, 6, 58, 95
4, 472800, Note_off_c, 6, 82, 95
4, 472800, Note_off_c, 6, 70, 95
4, 472800, Note_off_c, 6, 58, 95
4, 472800, Note_on_c, 6, 80, 95
4, 472800, Note_on_c, 6, 68, 95
4, 472800, Note_on_c, 6, 56, 95
4, 476640, Note_off_c, 6, 80, 95
4, 476640, Note_off_c, 6, 68, 95
4, 476640, Note_off_c, 6, 56, 95
4, 476640, Note_on_c, 6, 80, 95
4, 476640, Note_on_c, 6, 68, 95
4, 476640, Note_on_c, 6, 56, 95
4, 480480, Note_off_c, 6, 80, 95
4, 480480, Note_off_c, 6, 68, 95
4, 480480, Note_off_c, 6, 56, 95
4, 480480, Note_on_c, 6, 82, 95
4, 480480, Note_on_c, 6, 70, 95
4, 480480, Note_on_c, 6, 65, 95
4, 488160, Note_off_c, 6, 82, 95
4, 488160, Note_off_c, 6, 70, 95
4, 488160, Note_off_c, 6, 65, 95
4, 488160, End_track
5, 0, Start_track
5, 0, Pitch_bend_c, 0, 8192
5, 0, Control_c, 0, 7, 111
5, 0, Control_c, 0, 10, 63
5, 0, Control_c, 0, 93, 0
5, 0, Control_c, 0, 91, 0
5, 0, Control_c, 0, 95, 0
5, 0, Control_c, 0, 92, 0
5, 0, Control_c, 0, 11, 127
5, 0, Program_c, 0, 33
5, 0, Control_c, 1, 7, 111
5, 0, Control_c, 1, 10, 63
5, 0, Control_c, 1, 93, 0
5, 0, Control_c, 1, 91, 0
5, 0, Control_c, 1, 95, 0
5, 0, Control_c, 1, 92, 0
5, 0, Control_c, 1, 11, 127
5, 0, Program_c, 1, 33
5, 18240, Note_on_c, 0, 36, 95
5, 18480, Note_off_c, 0, 36, 95
5, 18480, Note_on_c, 0, 36, 95
5, 18720, Note_off_c, 0, 36, 95
5, 18720, Note_on_c, 0, 36, 95
5, 18960, Note_off_c, 0, 36, 95
5, 18960, Note_on_c, 0, 36, 95
5, 19680, Note_off_c, 0, 36, 95
5, 19680, Note_on_c, 0, 36, 95
5, 19920, Note_off_c, 0, 36, 95
5, 19920, Note_on_c, 0, 36, 95
5, 20160, Note_off_c, 0, 36, 95
5, 20160, Note_on_c, 0, 36, 95
5, 20400, Note_off_c, 0, 36, 95
5, 20400, Note_on_c, 0, 28, 95
5, 20451, Note_off_c, 0, 28, 95
5, 20640, Note_on_c, 0, 28, 95
5, 20691, Note_off_c, 0, 28, 95
5, 20880, Note_on_c, 0, 36, 95
5, 21120, Note_off_c, 0, 36, 95
5, 21120, Note_on_c, 0, 36, 95
5, 21360, Note_off_c, 0, 36, 95
5, 21360, Note_on_c, 0, 36, 95
5, 21600, Note_off_c, 0, 36, 95
5, 21840, Note_on_c, 0, 28, 95
5, 21891, Note_off_c, 0, 28, 95
5, 22080, Note_on_c, 0, 36, 95
5, 22320, Note_off_c, 0, 36, 95
5, 22320, Note_on_c, 0, 36, 95
5, 22560, Note_off_c, 0, 36, 95
5, 22560, Note_on_c, 0, 36, 95
5, 22800, Note_off_c, 0, 36, 95
5, 22800, Note_on_c, 0, 36, 95
5, 23520, Note_off_c, 0, 36, 95
5, 24240, Note_on_c, 0, 36, 95
5, 25200, Note_off_c, 0, 36, 95
5, 25200, Note_on_c, 0, 31, 95
5, 25440, Note_off_c, 0, 31, 95
5, 25920, Note_on_c, 0, 36, 95
5, 26160, Note_off_c, 0, 36, 95
5, 26160, Note_on_c, 0, 36, 95
5, 26400, Note_off_c, 0, 36, 95
5, 26400, Note_on_c, 0, 36, 95
5, 26640, Note_off_c, 0, 36, 95
5, 26640, Note_on_c, 0, 36, 95
5, 27360, Note_off_c, 0, 36, 95
5, 27360, Note_on_c, 0, 36, 95
5, 27600, Note_off_c, 0, 36, 95
5, 27600, Note_on_c, 0, 36, 95
5, 27840, Note_off_c, 0, 36, 95
5, 27840, Note_on_c, 0, 36, 95
5, 28080, Note_off_c, 0, 36, 95
5, 28080, Note_on_c, 0, 36, 95
5, 28320, Note_off_c, 0, 36, 95
5, 28320, Note_on_c, 0, 28, 95
5, 28371, Note_off_c, 0, 28, 95
5, 28560, Note_on_c, 0, 28, 95
5, 28611, Note_off_c, 0, 28, 95
5, 28800, Note_on_c, 0, 36, 95
5, 29040, Note_off_c, 0, 36, 95
5, 29040, Note_on_c, 0, 36, 95
5, 29280, Note_off_c, 0, 36, 95
5, 29280, Note_on_c, 0, 28, 95
5, 29331, Note_off_c, 0, 28, 95
5, 29520, Note_on_c, 0, 28, 95
5, 29571, Note_off_c, 0, 28, 95
5, 29760, Note_on_c, 0, 36, 95
5, 30000, Note_off_c, 0, 36, 95
5, 30000, Note_on_c, 0, 36, 95
5, 30240, Note_off_c, 0, 36, 95
5, 30240, Note_on_c, 0, 36, 95
5, 30480, Note_off_c, 0, 36, 95
5, 30480, Note_on_c, 0, 36, 95
5, 31200, Note_off_c, 0, 36, 95
5, 31200, Note_on_c, 0, 48, 95
5, 31440, Note_off_c, 0, 48, 95
5, 31440, Note_on_c, 0, 46, 95
5, 31680, Note_off_c, 0, 46, 95
5, 31680, Note_on_c, 0, 48, 95
5, 31920, Note_off_c, 0, 48, 95
5, 31920, Note_on_c, 0, 46, 95
5, 32160, Note_off_c, 0, 46, 95
5, 32160, Note_on_c, 0, 43, 95
5, 32400, Note_off_c, 0, 43, 95
5, 32400, Note_on_c, 0, 42, 95
5, 32640, Note_off_c, 0, 42, 95
5, 32640, Note_on_c, 0, 41, 95
5, 32800, Note_off_c, 0, 41, 95
5, 32800, Note_on_c, 0, 42, 95
5, 32960, Note_off_c, 0, 42, 95
5, 32960, Note_on_c, 0, 41, 95
5, 33120, Note_off_c, 0, 41, 95
5, 33120, Note_on_c, 0, 39, 95
5, 33360, Note_off_c, 0, 39, 95
5, 33360, Note_on_c, 0, 36, 95
5, 33600, Note_off_c, 0, 36, 95
5, 33600, Note_on_c, 0, 34, 95
5, 33840, Note_off_c, 0, 34, 95
5, 33840, Note_on_c, 0, 36, 95
5, 34080, Note_off_c, 0, 36, 95
5, 34080, Note_on_c, 0, 36, 95
5, 34320, Note_off_c, 0, 36, 95
5, 34320, Note_on_c, 0, 36, 95
5, 34560, Note_off_c, 0, 36, 95
5, 34560, Note_on_c, 0, 36, 31
5, 34800, Note_off_c, 0, 36, 31
5, 34800, Note_on_c, 0, 36, 31
5, 35040, Note_off_c, 0, 36, 31
5, 35040, Note_on_c, 0, 36, 95
5, 35280, Note_off_c, 0, 36, 95
5, 35280, Note_on_c, 0, 36, 95
5, 35520, Note_off_c, 0, 36, 95
5, 35520, Note_on_c, 0, 34, 95
5, 35760, Note_off_c, 0, 34, 95
5, 35760, Note_on_c, 0, 36, 95
5, 36000, Note_off_c, 0, 36, 95
5, 36000, Note_on_c, 0, 36, 95
5, 36240, Note_off_c, 0, 36, 95
5, 36240, Note_on_c, 0, 36, 95
5, 36480, Note_off_c, 0, 36, 95
5, 36480, Note_on_c, 0, 39, 95
5, 36720, Note_off_c, 0, 39, 95
5, 36720, Note_on_c, 0, 36, 95
5, 37440, Note_off_c, 0, 36, 95
5, 37440, Note_on_c, 0, 34, 95
5, 37680, Note_off_c, 0, 34, 95
5, 37680, Note_on_c, 0, 36, 95
5, 37920, Note_off_c, 0, 36, 95
5, 37920, Note_on_c, 0, 36, 95
5, 38160, Note_off_c, 0, 36, 95
5, 38160, Note_on_c, 0, 36, 95
5, 38400, Note_off_c, 0, 36, 95
5, 38400, Note_on_c, 0, 36, 47
5, 38640, Note_off_c, 0, 36, 47
5, 38640, Note_on_c, 0, 36, 47
5, 38880, Note_off_c, 0, 36, 47
5, 38880, Note_on_c, 0, 36, 95
5, 39120, Note_off_c, 0, 36, 95
5, 39120, Note_on_c, 0, 36, 95
5, 39360, Note_off_c, 0, 36, 95
5, 39360, Note_on_c, 0, 28, 95
5, 39600, Note_off_c, 0, 28, 95
5, 39600, Note_on_c, 0, 28, 95
5, 39840, Note_off_c, 0, 28, 95
5, 39840, Note_on_c, 0, 29, 95
5, 40080, Note_off_c, 0, 29, 95
5, 40080, Note_on_c, 0, 29, 95
5, 40320, Note_off_c, 0, 29, 95
5, 40320, Note_on_c, 0, 30, 95
5, 40560, Note_off_c, 0, 30, 95
5, 40560, Note_on_c, 0, 30, 95
5, 40800, Note_off_c, 0, 30, 95
5, 40800, Note_on_c, 0, 31, 95
5, 41040, Note_off_c, 0, 31, 95
5, 41040, Note_on_c, 0, 31, 95
5, 41280, Note_off_c, 0, 31, 95
5, 41280, Note_on_c, 0, 34, 95
5, 41520, Note_off_c, 0, 34, 95
5, 41520, Note_on_c, 0, 36, 95
5, 41760, Note_off_c, 0, 36, 95
5, 41760, Note_on_c, 0, 36, 95
5, 42000, Note_off_c, 0, 36, 95
5, 42000, Note_on_c, 0, 36, 95
5, 42240, Note_off_c, 0, 36, 95
5, 42240, Note_on_c, 0, 36, 31
5, 42480, Note_off_c, 0, 36, 31
5, 42480, Note_on_c, 0, 36, 31
5, 42720, Note_off_c, 0, 36, 31
5, 42720, Note_on_c, 0, 36, 95
5, 42960, Note_off_c, 0, 36, 95
5, 42960, Note_on_c, 0, 36, 95
5, 43200, Note_off_c, 0, 36, 95
5, 43200, Note_on_c, 0, 34, 95
5, 43440, Note_off_c, 0, 34, 95
5, 43440, Note_on_c, 0, 36, 95
5, 43680, Note_off_c, 0, 36, 95
5, 43680, Note_on_c, 0, 36, 95
5, 43920, Note_off_c, 0, 36, 95
5, 43920, Note_on_c, 0, 36, 95
5, 44160, Note_off_c, 0, 36, 95
5, 44160, Note_on_c, 0, 39, 95
5, 44400, Note_off_c, 0, 39, 95
5, 44400, Note_on_c, 0, 36, 95
5, 45120, Note_off_c, 0, 36, 95
5, 45120, Note_on_c, 0, 34, 95
5, 45360, Note_off_c, 0, 34, 95
5, 45360, Note_on_c, 0, 36, 95
5, 45600, Note_off_c, 0, 36, 95
5, 45600, Note_on_c, 0, 36, 95
5, 45840, Note_off_c, 0, 36, 95
5, 45840, Note_on_c, 0, 36, 95
5, 46080, Note_off_c, 0, 36, 95
5, 46080, Note_on_c, 0, 36, 47
5, 46320, Note_off_c, 0, 36, 47
5, 46320, Note_on_c, 0, 36, 47
5, 46560, Note_off_c, 0, 36, 47
5, 46560, Note_on_c, 0, 36, 95
5, 46800, Note_off_c, 0, 36, 95
5, 46800, Note_on_c, 0, 36, 95
5, 47040, Note_off_c, 0, 36, 95
5, 47040, Note_on_c, 0, 28, 95
5, 47280, Note_off_c, 0, 28, 95
5, 47280, Note_on_c, 0, 28, 95
5, 47520, Note_off_c, 0, 28, 95
5, 47520, Note_on_c, 0, 29, 95
5, 47760, Note_off_c, 0, 29, 95
5, 47760, Note_on_c, 0, 29, 95
5, 48000, Note_off_c, 0, 29, 95
5, 48000, Note_on_c, 0, 30, 95
5, 48240, Note_off_c, 0, 30, 95
5, 48240, Note_on_c, 0, 30, 95
5, 48480, Note_off_c, 0, 30, 95
5, 48480, Note_on_c, 0, 31, 95
5, 48720, Note_off_c, 0, 31, 95
5, 48720, Note_on_c, 0, 31, 95
5, 48960, Note_off_c, 0, 31, 95
5, 48960, Note_on_c, 0, 34, 95
5, 49200, Note_off_c, 0, 34, 95
5, 49200, Note_on_c, 0, 36, 95
5, 49440, Note_off_c, 0, 36, 95
5, 49440, Note_on_c, 0, 36, 95
5, 49680, Note_off_c, 0, 36, 95
5, 49680, Note_on_c, 0, 36, 95
5, 49920, Note_off_c, 0, 36, 95
5, 49920, Note_on_c, 0, 36, 31
5, 50160, Note_off_c, 0, 36, 31
5, 50160, Note_on_c, 0, 36, 31
5, 50400, Note_off_c, 0, 36, 31
5, 50400, Note_on_c, 0, 36, 95
5, 50640, Note_off_c, 0, 36, 95
5, 50640, Note_on_c, 0, 36, 95
5, 50880, Note_off_c, 0, 36, 95
5, 50880, Note_on_c, 0, 34, 95
5, 51120, Note_off_c, 0, 34, 95
5, 51120, Note_on_c, 0, 36, 95
5, 51360, Note_off_c, 0, 36, 95
5, 51360, Note_on_c, 0, 36, 95
5, 51600, Note_off_c, 0, 36, 95
5, 51600, Note_on_c, 0, 36, 95
5, 51840, Note_off_c, 0, 36, 95
5, 51840, Note_on_c, 0, 39, 95
5, 52080, Note_off_c, 0, 39, 95
5, 52080, Note_on_c, 0, 36, 95
5, 52800, Note_off_c, 0, 36, 95
5, 52800, Note_on_c, 0, 34, 95
5, 53040, Note_off_c, 0, 34, 95
5, 53040, Note_on_c, 0, 36, 95
5, 53280, Note_off_c, 0, 36, 95
5, 53280, Note_on_c, 0, 36, 95
5, 53520, Note_off_c, 0, 36, 95
5, 53520, Note_on_c, 0, 36, 95
5, 53760, Note_off_c, 0, 36, 95
5, 53760, Note_on_c, 0, 36, 47
5, 54000, Note_off_c, 0, 36, 47
5, 54000, Note_on_c, 0, 36, 47
5, 54240, Note_off_c, 0, 36, 47
5, 54240, Note_on_c, 0, 36, 95
5, 54480, Note_off_c, 0, 36, 95
5, 54480, Note_on_c, 0, 36, 95
5, 54720, Note_off_c, 0, 36, 95
5, 54720, Note_on_c, 0, 28, 95
5, 54960, Note_off_c, 0, 28, 95
5, 54960, Note_on_c, 0, 28, 95
5, 55200, Note_off_c, 0, 28, 95
5, 55200, Note_on_c, 0, 29, 95
5, 55440, Note_off_c, 0, 29, 95
5, 55440, Note_on_c, 0, 29, 95
5, 55680, Note_off_c, 0, 29, 95
5, 55680, Note_on_c, 0, 30, 95
5, 55920, Note_off_c, 0, 30, 95
5, 55920, Note_on_c, 0, 30, 95
5, 56160, Note_off_c, 0, 30, 95
5, 56160, Note_on_c, 0, 31, 95
5, 56400, Note_off_c, 0, 31, 95
5, 56400, Note_on_c, 0, 31, 95
5, 56640, Note_off_c, 0, 31, 95
5, 56640, Note_on_c, 0, 34, 95
5, 56880, Note_off_c, 0, 34, 95
5, 56880, Note_on_c, 0, 36, 95
5, 57120, Note_off_c, 0, 36, 95
5, 57120, Note_on_c, 0, 36, 95
5, 57360, Note_off_c, 0, 36, 95
5, 57360, Note_on_c, 0, 36, 95
5, 57600, Note_off_c, 0, 36, 95
5, 57600, Note_on_c, 0, 36, 31
5, 57840, Note_off_c, 0, 36, 31
5, 57840, Note_on_c, 0, 36, 31
5, 58080, Note_off_c, 0, 36, 31
5, 58080, Note_on_c, 0, 36, 95
5, 58320, Note_off_c, 0, 36, 95
5, 58320, Note_on_c, 0, 36, 95
5, 58560, Note_off_c, 0, 36, 95
5, 58560, Note_on_c, 0, 34, 95
5, 58800, Note_off_c, 0, 34, 95
5, 58800, Note_on_c, 0, 36, 95
5, 59040, Note_off_c, 0, 36, 95
5, 59040, Note_on_c, 0, 36, 95
5, 59280, Note_off_c, 0, 36, 95
5, 59280, Note_on_c, 0, 36, 95
5, 59520, Note_off_c, 0, 36, 95
5, 59520, Note_on_c, 0, 39, 95
5, 59760, Note_off_c, 0, 39, 95
5, 59760, Note_on_c, 0, 36, 95
5, 60480, Note_off_c, 0, 36, 95
5, 60480, Note_on_c, 0, 34, 95
5, 60720, Note_off_c, 0, 34, 95
5, 60720, Note_on_c, 0, 36, 95
5, 60960, Note_off_c, 0, 36, 95
5, 60960, Note_on_c, 0, 36, 95
5, 61200, Note_off_c, 0, 36, 95
5, 61200, Note_on_c, 0, 36, 95
5, 61440, Note_off_c, 0, 36, 95
5, 61440, Note_on_c, 0, 36, 47
5, 61680, Note_off_c, 0, 36, 47
5, 61680, Note_on_c, 0, 36, 47
5, 61920, Note_off_c, 0, 36, 47
5, 61920, Note_on_c, 0, 36, 95
5, 62160, Note_off_c, 0, 36, 95
5, 62160, Note_on_c, 0, 36, 95
5, 62400, Note_off_c, 0, 36, 95
5, 62400, Note_on_c, 0, 28, 95
5, 62640, Note_off_c, 0, 28, 95
5, 62640, Note_on_c, 0, 28, 95
5, 62880, Note_off_c, 0, 28, 95
5, 62880, Note_on_c, 0, 29, 95
5, 63120, Note_off_c, 0, 29, 95
5, 63120, Note_on_c, 0, 29, 95
5, 63360, Note_off_c, 0, 29, 95
5, 63360, Note_on_c, 0, 30, 95
5, 63600, Note_off_c, 0, 30, 95
5, 63600, Note_on_c, 0, 30, 95
5, 63840, Note_off_c, 0, 30, 95
5, 63840, Note_on_c, 0, 31, 95
5, 64080, Note_off_c, 0, 31, 95
5, 64080, Note_on_c, 0, 31, 95
5, 64320, Note_off_c, 0, 31, 95
5, 64320, Note_on_c, 0, 34, 95
5, 64560, Note_off_c, 0, 34, 95
5, 64560, Note_on_c, 0, 36, 95
5, 64800, Note_off_c, 0, 36, 95
5, 64800, Note_on_c, 0, 36, 95
5, 65040, Note_off_c, 0, 36, 95
5, 65040, Note_on_c, 0, 36, 95
5, 65280, Note_off_c, 0, 36, 95
5, 65280, Note_on_c, 0, 36, 31
5, 65520, Note_off_c, 0, 36, 31
5, 65520, Note_on_c, 0, 36, 31
5, 65760, Note_off_c, 0, 36, 31
5, 65760, Note_on_c, 0, 36, 95
5, 66000, Note_off_c, 0, 36, 95
5, 66000, Note_on_c, 0, 36, 95
5, 66240, Note_off_c, 0, 36, 95
5, 66240, Note_on_c, 0, 34, 95
5, 66480, Note_off_c, 0, 34, 95
5, 66480, Note_on_c, 0, 36, 95
5, 66720, Note_off_c, 0, 36, 95
5, 66720, Note_on_c, 0, 36, 95
5, 66960, Note_off_c, 0, 36, 95
5, 66960, Note_on_c, 0, 36, 95
5, 67200, Note_off_c, 0, 36, 95
5, 67200, Note_on_c, 0, 39, 95
5, 67440, Note_off_c, 0, 39, 95
5, 67440, Note_on_c, 0, 36, 95
5, 68160, Note_off_c, 0, 36, 95
5, 68160, Note_on_c, 0, 34, 95
5, 68400, Note_off_c, 0, 34, 95
5, 68400, Note_on_c, 0, 36, 95
5, 68640, Note_off_c, 0, 36, 95
5, 68640, Note_on_c, 0, 36, 95
5, 68880, Note_off_c, 0, 36, 95
5, 68880, Note_on_c, 0, 36, 95
5, 69120, Note_off_c, 0, 36, 95
5, 69120, Note_on_c, 0, 36, 47
5, 69360, Note_off_c, 0, 36, 47
5, 69360, Note_on_c, 0, 36, 47
5, 69600, Note_off_c, 0, 36, 47
5, 69600, Note_on_c, 0, 36, 95
5, 69840, Note_off_c, 0, 36, 95
5, 69840, Note_on_c, 0, 36, 95
5, 70080, Note_off_c, 0, 36, 95
5, 70080, Note_on_c, 0, 28, 95
5, 70320, Note_off_c, 0, 28, 95
5, 70320, Note_on_c, 0, 28, 95
5, 70560, Note_off_c, 0, 28, 95
5, 70560, Note_on_c, 0, 29, 95
5, 70800, Note_off_c, 0, 29, 95
5, 70800, Note_on_c, 0, 29, 95
5, 71040, Note_off_c, 0, 29, 95
5, 71040, Note_on_c, 0, 30, 95
5, 71280, Note_off_c, 0, 30, 95
5, 71280, Note_on_c, 0, 30, 95
5, 71520, Note_off_c, 0, 30, 95
5, 71520, Note_on_c, 0, 31, 95
5, 71760, Note_off_c, 0, 31, 95
5, 71760, Note_on_c, 0, 31, 95
5, 72000, Note_off_c, 0, 31, 95
5, 72000, Note_on_c, 0, 34, 95
5, 72240, Note_off_c, 0, 34, 95
5, 72240, Note_on_c, 0, 36, 95
5, 72480, Note_off_c, 0, 36, 95
5, 72480, Note_on_c, 0, 36, 95
5, 72720, Note_off_c, 0, 36, 95
5, 72720, Note_on_c, 0, 36, 95
5, 72960, Note_off_c, 0, 36, 95
5, 72960, Note_on_c, 0, 36, 31
5, 73200, Note_off_c, 0, 36, 31
5, 73200, Note_on_c, 0, 36, 31
5, 73440, Note_off_c, 0, 36, 31
5, 73440, Note_on_c, 0, 36, 95
5, 73680, Note_off_c, 0, 36, 95
5, 73680, Note_on_c, 0, 36, 95
5, 73920, Note_off_c, 0, 36, 95
5, 73920, Note_on_c, 0, 34, 95
5, 74160, Note_off_c, 0, 34, 95
5, 74160, Note_on_c, 0, 36, 95
5, 74400, Note_off_c, 0, 36, 95
5, 74400, Note_on_c, 0, 36, 95
5, 74640, Note_off_c, 0, 36, 95
5, 74640, Note_on_c, 0, 36, 95
5, 74880, Note_off_c, 0, 36, 95
5, 74880, Note_on_c, 0, 39, 95
5, 75120, Note_off_c, 0, 39, 95
5, 75120, Note_on_c, 0, 36, 95
5, 75840, Note_off_c, 0, 36, 95
5, 75840, Note_on_c, 0, 34, 95
5, 76080, Note_off_c, 0, 34, 95
5, 76080, Note_on_c, 0, 36, 95
5, 76320, Note_off_c, 0, 36, 95
5, 76320, Note_on_c, 0, 36, 95
5, 76560, Note_off_c, 0, 36, 95
5, 76560, Note_on_c, 0, 36, 95
5, 76800, Note_off_c, 0, 36, 95
5, 76800, Note_on_c, 0, 36, 47
5, 77040, Note_off_c, 0, 36, 47
5, 77040, Note_on_c, 0, 36, 47
5, 77280, Note_off_c, 0, 36, 47
5, 77280, Note_on_c, 0, 36, 95
5, 77520, Note_off_c, 0, 36, 95
5, 77520, Note_on_c, 0, 36, 95
5, 77760, Note_off_c, 0, 36, 95
5, 77760, Note_on_c, 0, 28, 95
5, 78000, Note_off_c, 0, 28, 95
5, 78000, Note_on_c, 0, 28, 95
5, 78240, Note_off_c, 0, 28, 95
5, 78240, Note_on_c, 0, 29, 95
5, 78480, Note_off_c, 0, 29, 95
5, 78480, Note_on_c, 0, 29, 95
5, 78720, Note_off_c, 0, 29, 95
5, 78720, Note_on_c, 0, 30, 95
5, 78960, Note_off_c, 0, 30, 95
5, 78960, Note_on_c, 0, 30, 95
5, 79200, Note_off_c, 0, 30, 95
5, 79200, Note_on_c, 0, 31, 95
5, 79440, Note_off_c, 0, 31, 95
5, 79440, Note_on_c, 0, 31, 95
5, 79680, Note_off_c, 0, 31, 95
5, 79680, Note_on_c, 0, 36, 95
5, 79920, Note_off_c, 0, 36, 95
5, 79920, Note_on_c, 0, 38, 70
5, 80400, Note_off_c, 0, 38, 70
5, 80400, Note_on_c, 0, 38, 95
5, 80640, Note_off_c, 0, 38, 95
5, 80640, Note_on_c, 0, 41, 95
5, 80880, Note_off_c, 0, 41, 95
5, 80880, Note_on_c, 0, 38, 95
5, 81360, Note_off_c, 0, 38, 95
5, 81360, Note_on_c, 0, 38, 95
5, 81600, Note_off_c, 0, 38, 95
5, 81600, Note_on_c, 0, 36, 95
5, 81840, Note_off_c, 0, 36, 95
5, 81840, Note_on_c, 0, 38, 70
5, 82320, Note_off_c, 0, 38, 70
5, 82320, Note_on_c, 0, 38, 95
5, 82560, Note_off_c, 0, 38, 95
5, 82560, Note_on_c, 0, 41, 95
5, 82800, Note_off_c, 0, 41, 95
5, 82800, Note_on_c, 0, 38, 95
5, 83280, Note_off_c, 0, 38, 95
5, 83280, Note_on_c, 0, 38, 95
5, 83520, Note_off_c, 0, 38, 95
5, 83520, Note_on_c, 0, 36, 95
5, 83760, Note_off_c, 0, 36, 95
5, 83760, Note_on_c, 0, 38, 70
5, 84240, Note_off_c, 0, 38, 70
5, 84240, Note_on_c, 0, 38, 95
5, 84480, Note_off_c, 0, 38, 95
5, 84480, Note_on_c, 0, 41, 95
5, 84720, Note_off_c, 0, 41, 95
5, 84720, Note_on_c, 0, 38, 95
5, 85200, Note_off_c, 0, 38, 95
5, 85200, Note_on_c, 0, 38, 95
5, 85440, Note_off_c, 0, 38, 95
5, 85440, Note_on_c, 0, 36, 95
5, 85680, Note_off_c, 0, 36, 95
5, 85680, Note_on_c, 0, 38, 70
5, 86160, Note_off_c, 0, 38, 70
5, 86160, Note_on_c, 0, 38, 95
5, 86400, Note_off_c, 0, 38, 95
5, 86400, Note_on_c, 0, 41, 95
5, 86640, Note_off_c, 0, 41, 95
5, 86640, Note_on_c, 0, 38, 95
5, 87120, Note_off_c, 0, 38, 95
5, 87120, Note_on_c, 0, 38, 95
5, 87360, Note_off_c, 0, 38, 95
5, 87360, Note_on_c, 0, 37, 95
5, 88080, Note_off_c, 0, 37, 95
5, 88080, Note_on_c, 0, 37, 95
5, 88320, Note_off_c, 0, 37, 95
5, 88800, Note_on_c, 0, 37, 95
5, 89520, Note_off_c, 0, 37, 95
5, 89520, Note_on_c, 0, 37, 95
5, 89760, Note_off_c, 0, 37, 95
5, 90240, Note_on_c, 0, 37, 95
5, 90720, Note_off_c, 0, 37, 95
5, 90720, Note_on_c, 0, 37, 95
5, 91200, Note_off_c, 0, 37, 95
5, 91200, Note_on_c, 0, 33, 95
5, 91920, Note_off_c, 0, 33, 95
5, 91920, Note_on_c, 0, 33, 95
5, 92160, Note_off_c, 0, 33, 95
5, 92640, Note_on_c, 0, 33, 95
5, 93360, Note_off_c, 0, 33, 95
5, 93360, Note_on_c, 0, 33, 95
5, 93600, Note_off_c, 0, 33, 95
5, 94080, Note_on_c, 0, 33, 95
5, 94560, Note_off_c, 0, 33, 95
5, 94560, Note_on_c, 0, 33, 95
5, 95040, Note_off_c, 0, 33, 95
5, 95040, Note_on_c, 0, 34, 95
5, 95280, Note_off_c, 0, 34, 95
5, 95280, Note_on_c, 0, 36, 95
5, 95520, Note_off_c, 0, 36, 95
5, 95520, Note_on_c, 0, 36, 95
5, 95760, Note_off_c, 0, 36, 95
5, 95760, Note_on_c, 0, 36, 95
5, 96000, Note_off_c, 0, 36, 95
5, 96000, Note_on_c, 0, 36, 31
5, 96240, Note_off_c, 0, 36, 31
5, 96240, Note_on_c, 0, 36, 31
5, 96480, Note_off_c, 0, 36, 31
5, 96480, Note_on_c, 0, 36, 95
5, 96720, Note_off_c, 0, 36, 95
5, 96720, Note_on_c, 0, 36, 95
5, 96960, Note_off_c, 0, 36, 95
5, 96960, Note_on_c, 0, 34, 95
5, 97200, Note_off_c, 0, 34, 95
5, 97200, Note_on_c, 0, 36, 95
5, 97440, Note_off_c, 0, 36, 95
5, 97440, Note_on_c, 0, 36, 95
5, 97680, Note_off_c, 0, 36, 95
5, 97680, Note_on_c, 0, 36, 95
5, 97920, Note_off_c, 0, 36, 95
5, 97920, Note_on_c, 0, 39, 95
5, 98160, Note_off_c, 0, 39, 95
5, 98160, Note_on_c, 0, 36, 95
5, 98880, Note_off_c, 0, 36, 95
5, 98880, Note_on_c, 0, 34, 95
5, 99120, Note_off_c, 0, 34, 95
5, 99120, Note_on_c, 0, 36, 95
5, 99360, Note_off_c, 0, 36, 95
5, 99360, Note_on_c, 0, 36, 95
5, 99600, Note_off_c, 0, 36, 95
5, 99600, Note_on_c, 0, 36, 95
5, 99840, Note_off_c, 0, 36, 95
5, 99840, Note_on_c, 0, 36, 47
5, 100080, Note_off_c, 0, 36, 47
5, 100080, Note_on_c, 0, 36, 47
5, 100320, Note_off_c, 0, 36, 47
5, 100320, Note_on_c, 0, 36, 95
5, 100560, Note_off_c, 0, 36, 95
5, 100560, Note_on_c, 0, 36, 95
5, 100800, Note_off_c, 0, 36, 95
5, 100800, Note_on_c, 0, 28, 95
5, 101040, Note_off_c, 0, 28, 95
5, 101040, Note_on_c, 0, 28, 95
5, 101280, Note_off_c, 0, 28, 95
5, 101280, Note_on_c, 0, 29, 95
5, 101520, Note_off_c, 0, 29, 95
5, 101520, Note_on_c, 0, 29, 95
5, 101760, Note_off_c, 0, 29, 95
5, 101760, Note_on_c, 0, 30, 95
5, 102000, Note_off_c, 0, 30, 95
5, 102000, Note_on_c, 0, 30, 95
5, 102240, Note_off_c, 0, 30, 95
5, 102240, Note_on_c, 0, 31, 95
5, 102480, Note_off_c, 0, 31, 95
5, 102480, Note_on_c, 0, 31, 95
5, 102720, Note_off_c, 0, 31, 95
5, 102720, Note_on_c, 0, 34, 95
5, 102960, Note_off_c, 0, 34, 95
5, 102960, Note_on_c, 0, 36, 95
5, 103200, Note_off_c, 0, 36, 95
5, 103200, Note_on_c, 0, 36, 95
5, 103440, Note_off_c, 0, 36, 95
5, 103440, Note_on_c, 0, 36, 95
5, 103680, Note_off_c, 0, 36, 95
5, 103680, Note_on_c, 0, 36, 31
5, 103920, Note_off_c, 0, 36, 31
5, 103920, Note_on_c, 0, 36, 31
5, 104160, Note_off_c, 0, 36, 31
5, 104160, Note_on_c, 0, 36, 95
5, 104400, Note_off_c, 0, 36, 95
5, 104400, Note_on_c, 0, 36, 95
5, 104640, Note_off_c, 0, 36, 95
5, 104640, Note_on_c, 0, 34, 95
5, 104880, Note_off_c, 0, 34, 95
5, 104880, Note_on_c, 0, 36, 95
5, 105120, Note_off_c, 0, 36, 95
5, 105120, Note_on_c, 0, 36, 95
5, 105360, Note_off_c, 0, 36, 95
5, 105360, Note_on_c, 0, 36, 95
5, 105600, Note_off_c, 0, 36, 95
5, 105600, Note_on_c, 0, 39, 95
5, 105840, Note_off_c, 0, 39, 95
5, 105840, Note_on_c, 0, 36, 95
5, 106560, Note_off_c, 0, 36, 95
5, 106560, Note_on_c, 0, 34, 95
5, 106800, Note_off_c, 0, 34, 95
5, 106800, Note_on_c, 0, 36, 95
5, 107040, Note_off_c, 0, 36, 95
5, 107040, Note_on_c, 0, 36, 95
5, 107280, Note_off_c, 0, 36, 95
5, 107280, Note_on_c, 0, 36, 95
5, 107520, Note_off_c, 0, 36, 95
5, 107520, Note_on_c, 0, 36, 47
5, 107760, Note_off_c, 0, 36, 47
5, 107760, Note_on_c, 0, 36, 47
5, 108000, Note_off_c, 0, 36, 47
5, 108000, Note_on_c, 0, 36, 95
5, 108240, Note_off_c, 0, 36, 95
5, 108240, Note_on_c, 0, 36, 95
5, 108480, Note_off_c, 0, 36, 95
5, 108480, Note_on_c, 0, 28, 95
5, 108720, Note_off_c, 0, 28, 95
5, 108720, Note_on_c, 0, 28, 95
5, 108960, Note_off_c, 0, 28, 95
5, 108960, Note_on_c, 0, 29, 95
5, 109200, Note_off_c, 0, 29, 95
5, 109200, Note_on_c, 0, 29, 95
5, 109440, Note_off_c, 0, 29, 95
5, 109440, Note_on_c, 0, 30, 95
5, 109680, Note_off_c, 0, 30, 95
5, 109680, Note_on_c, 0, 30, 95
5, 109920, Note_off_c, 0, 30, 95
5, 109920, Note_on_c, 0, 31, 95
5, 110160, Note_off_c, 0, 31, 95
5, 110160, Note_on_c, 0, 31, 95
5, 110400, Note_off_c, 0, 31, 95
5, 110400, Note_on_c, 0, 36, 95
5, 110640, Note_off_c, 0, 36, 95
5, 110640, Note_on_c, 0, 38, 95
5, 110880, Note_off_c, 0, 38, 95
5, 110880, Note_on_c, 0, 38, 95
5, 111120, Note_off_c, 0, 38, 95
5, 111120, Note_on_c, 0, 38, 95
5, 111360, Note_off_c, 0, 38, 95
5, 111360, Note_on_c, 0, 38, 31
5, 111600, Note_off_c, 0, 38, 31
5, 111600, Note_on_c, 0, 38, 31
5, 111840, Note_off_c, 0, 38, 31
5, 111840, Note_on_c, 0, 38, 95
5, 112080, Note_off_c, 0, 38, 95
5, 112080, Note_on_c, 0, 38, 95
5, 112320, Note_off_c, 0, 38, 95
5, 112320, Note_on_c, 0, 36, 95
5, 112560, Note_off_c, 0, 36, 95
5, 112560, Note_on_c, 0, 38, 95
5, 112800, Note_off_c, 0, 38, 95
5, 112800, Note_on_c, 0, 38, 95
5, 113040, Note_off_c, 0, 38, 95
5, 113040, Note_on_c, 0, 38, 95
5, 113280, Note_off_c, 0, 38, 95
5, 113280, Note_on_c, 0, 41, 95
5, 113520, Note_off_c, 0, 41, 95
5, 113520, Note_on_c, 0, 38, 95
5, 114240, Note_off_c, 0, 38, 95
5, 114240, Note_on_c, 0, 36, 95
5, 114480, Note_off_c, 0, 36, 95
5, 114480, Note_on_c, 0, 38, 95
5, 114720, Note_off_c, 0, 38, 95
5, 114720, Note_on_c, 0, 38, 95
5, 114960, Note_off_c, 0, 38, 95
5, 114960, Note_on_c, 0, 38, 95
5, 115200, Note_off_c, 0, 38, 95
5, 115200, Note_on_c, 0, 38, 31
5, 115440, Note_off_c, 0, 38, 31
5, 115440, Note_on_c, 0, 38, 31
5, 115680, Note_off_c, 0, 38, 31
5, 115680, Note_on_c, 0, 38, 95
5, 115920, Note_off_c, 0, 38, 95
5, 115920, Note_on_c, 0, 38, 95
5, 116160, Note_off_c, 0, 38, 95
5, 116160, Note_on_c, 0, 36, 95
5, 116400, Note_off_c, 0, 36, 95
5, 116400, Note_on_c, 0, 38, 95
5, 116640, Note_off_c, 0, 38, 95
5, 116640, Note_on_c, 0, 38, 95
5, 116880, Note_off_c, 0, 38, 95
5, 116880, Note_on_c, 0, 38, 95
5, 117120, Note_off_c, 0, 38, 95
5, 117120, Note_on_c, 0, 41, 95
5, 117360, Note_off_c, 0, 41, 95
5, 117360, Note_on_c, 0, 38, 95
5, 118080, Note_off_c, 0, 38, 95
5, 118080, Note_on_c, 0, 37, 95
5, 118800, Note_off_c, 0, 37, 95
5, 118800, Note_on_c, 0, 37, 95
5, 119040, Note_off_c, 0, 37, 95
5, 119520, Note_on_c, 0, 37, 95
5, 120240, Note_off_c, 0, 37, 95
5, 120240, Note_on_c, 0, 37, 95
5, 120480, Note_off_c, 0, 37, 95
5, 120960, Note_on_c, 0, 37, 95
5, 121440, Note_off_c, 0, 37, 95
5, 121440, Note_on_c, 0, 37, 95
5, 121920, Note_off_c, 0, 37, 95
5, 121920, Note_on_c, 0, 33, 95
5, 122640, Note_off_c, 0, 33, 95
5, 122640, Note_on_c, 0, 33, 95
5, 122880, Note_off_c, 0, 33, 95
5, 123360, Note_on_c, 0, 33, 95
5, 124080, Note_off_c, 0, 33, 95
5, 124080, Note_on_c, 0, 33, 95
5, 124320, Note_off_c, 0, 33, 95
5, 124800, Note_on_c, 0, 33, 95
5, 125280, Note_off_c, 0, 33, 95
5, 125280, Note_on_c, 0, 33, 95
5, 125520, Note_off_c, 0, 33, 95
5, 125520, Note_on_c, 0, 33, 95
5, 125760, Note_off_c, 0, 33, 95
5, 125760, Note_on_c, 0, 34, 95
5, 126000, Note_off_c, 0, 34, 95
5, 126000, Note_on_c, 0, 36, 95
5, 126240, Note_off_c, 0, 36, 95
5, 126240, Note_on_c, 0, 36, 95
5, 126480, Note_off_c, 0, 36, 95
5, 126480, Note_on_c, 0, 36, 95
5, 126720, Note_off_c, 0, 36, 95
5, 126720, Note_on_c, 0, 36, 31
5, 126960, Note_off_c, 0, 36, 31
5, 126960, Note_on_c, 0, 36, 31
5, 127200, Note_off_c, 0, 36, 31
5, 127200, Note_on_c, 0, 36, 95
5, 127440, Note_off_c, 0, 36, 95
5, 127440, Note_on_c, 0, 36, 95
5, 127680, Note_off_c, 0, 36, 95
5, 127680, Note_on_c, 0, 34, 95
5, 127920, Note_off_c, 0, 34, 95
5, 127920, Note_on_c, 0, 36, 95
5, 128160, Note_off_c, 0, 36, 95
5, 128160, Note_on_c, 0, 36, 95
5, 128400, Note_off_c, 0, 36, 95
5, 128400, Note_on_c, 0, 36, 95
5, 128640, Note_off_c, 0, 36, 95
5, 128640, Note_on_c, 0, 39, 95
5, 128880, Note_off_c, 0, 39, 95
5, 128880, Note_on_c, 0, 36, 95
5, 129600, Note_off_c, 0, 36, 95
5, 129600, Note_on_c, 0, 34, 95
5, 129840, Note_off_c, 0, 34, 95
5, 129840, Note_on_c, 0, 36, 95
5, 130080, Note_off_c, 0, 36, 95
5, 130080, Note_on_c, 0, 36, 95
5, 130320, Note_off_c, 0, 36, 95
5, 130320, Note_on_c, 0, 36, 95
5, 130560, Note_off_c, 0, 36, 95
5, 130560, Note_on_c, 0, 36, 47
5, 130800, Note_off_c, 0, 36, 47
5, 130800, Note_on_c, 0, 36, 47
5, 131040, Note_off_c, 0, 36, 47
5, 131040, Note_on_c, 0, 36, 95
5, 131280, Note_off_c, 0, 36, 95
5, 131280, Note_on_c, 0, 36, 95
5, 131520, Note_off_c, 0, 36, 95
5, 131520, Note_on_c, 0, 28, 95
5, 131760, Note_off_c, 0, 28, 95
5, 131760, Note_on_c, 0, 28, 95
5, 132000, Note_off_c, 0, 28, 95
5, 132000, Note_on_c, 0, 29, 95
5, 132240, Note_off_c, 0, 29, 95
5, 132240, Note_on_c, 0, 29, 95
5, 132480, Note_off_c, 0, 29, 95
5, 132480, Note_on_c, 0, 30, 95
5, 132720, Note_off_c, 0, 30, 95
5, 132720, Note_on_c, 0, 30, 95
5, 132960, Note_off_c, 0, 30, 95
5, 132960, Note_on_c, 0, 31, 95
5, 133200, Note_off_c, 0, 31, 95
5, 133200, Note_on_c, 0, 31, 95
5, 133440, Note_off_c, 0, 31, 95
5, 133440, Note_on_c, 0, 32, 95
5, 135360, Note_off_c, 0, 32, 95
5, 135360, Note_on_c, 0, 32, 95
5, 137280, Note_off_c, 0, 32, 95
5, 137280, Note_on_c, 0, 34, 95
5, 139200, Note_off_c, 0, 34, 95
5, 139200, Note_on_c, 0, 34, 95
5, 141120, Note_off_c, 0, 34, 95
5, 141120, Note_on_c, 0, 34, 95
5, 141600, Note_off_c, 0, 34, 95
5, 141600, Note_on_c, 0, 36, 95
5, 142080, Note_off_c, 0, 36, 95
5, 142080, Note_on_c, 0, 34, 95
5, 142560, Note_off_c, 0, 34, 95
5, 142560, Note_on_c, 0, 36, 95
5, 143040, Note_off_c, 0, 36, 95
5, 143040, Note_on_c, 0, 36, 95
5, 144960, Note_off_c, 0, 36, 95
5, 144960, Note_on_c, 1, 36, 95
5, 145080, Pitch_bend_c, 1, 8448
5, 145200, Pitch_bend_c, 1, 8832
5, 145320, Pitch_bend_c, 1, 9216
5, 145440, Pitch_bend_c, 1, 9600
5, 145440, Pitch_bend_c, 1, 8192
5, 145440, Note_off_c, 1, 36, 95
5, 145440, Note_on_c, 0, 38, 95
5, 146880, Note_off_c, 0, 38, 95
5, 146880, Note_on_c, 0, 38, 95
5, 148800, Note_off_c, 0, 38, 95
5, 148800, Note_on_c, 0, 37, 95
5, 149280, Note_off_c, 0, 37, 95
5, 149280, Note_on_c, 0, 37, 95
5, 149760, Note_off_c, 0, 37, 95
5, 149760, Note_on_c, 0, 37, 95
5, 150240, Note_off_c, 0, 37, 95
5, 150240, Note_on_c, 0, 37, 95
5, 150720, Note_off_c, 0, 37, 95
5, 150720, Note_on_c, 0, 37, 95
5, 151200, Note_off_c, 0, 37, 95
5, 151200, Note_on_c, 0, 37, 95
5, 151680, Note_off_c, 0, 37, 95
5, 151680, Note_on_c, 0, 37, 95
5, 152160, Note_off_c, 0, 37, 95
5, 152160, Note_on_c, 0, 37, 95
5, 152640, Note_off_c, 0, 37, 95
5, 152640, Note_on_c, 0, 36, 95
5, 153120, Note_off_c, 0, 36, 95
5, 153120, Note_on_c, 0, 36, 95
5, 153600, Note_off_c, 0, 36, 95
5, 153600, Note_on_c, 0, 36, 95
5, 154080, Note_off_c, 0, 36, 95
5, 154080, Note_on_c, 0, 36, 95
5, 154560, Note_off_c, 0, 36, 95
5, 154560, Note_on_c, 0, 36, 95
5, 155040, Note_off_c, 0, 36, 95
5, 155040, Note_on_c, 0, 36, 95
5, 155520, Note_off_c, 0, 36, 95
5, 155520, Note_on_c, 0, 36, 95
5, 156000, Note_off_c, 0, 36, 95
5, 156000, Note_on_c, 0, 36, 95
5, 156480, Note_off_c, 0, 36, 95
5, 156480, Note_on_c, 0, 34, 95
5, 156960, Note_off_c, 0, 34, 95
5, 156960, Note_on_c, 0, 34, 95
5, 157440, Note_off_c, 0, 34, 95
5, 157440, Note_on_c, 0, 34, 95
5, 157920, Note_off_c, 0, 34, 95
5, 157920, Note_on_c, 0, 34, 95
5, 158400, Note_off_c, 0, 34, 95
5, 158400, Note_on_c, 0, 34, 95
5, 158880, Note_off_c, 0, 34, 95
5, 158880, Note_on_c, 0, 34, 95
5, 159360, Note_off_c, 0, 34, 95
5, 159360, Note_on_c, 0, 34, 95
5, 159840, Note_off_c, 0, 34, 95
5, 159840, Note_on_c, 0, 34, 95
5, 160320, Note_off_c, 0, 34, 95
5, 160320, Note_on_c, 0, 34, 95
5, 160800, Note_off_c, 0, 34, 95
5, 160800, Note_on_c, 0, 34, 95
5, 161280, Note_off_c, 0, 34, 95
5, 161280, Note_on_c, 0, 34, 95
5, 161760, Note_off_c, 0, 34, 95
5, 161760, Note_on_c, 0, 34, 95
5, 162240, Note_off_c, 0, 34, 95
5, 162240, Note_on_c, 0, 34, 95
5, 162720, Note_off_c, 0, 34, 95
5, 162720, Note_on_c, 0, 34, 95
5, 163200, Note_off_c, 0, 34, 95
5, 163200, Note_on_c, 0, 34, 95
5, 163680, Note_off_c, 0, 34, 95
5, 163680, Note_on_c, 0, 34, 95
5, 164160, Note_off_c, 0, 34, 95
5, 164160, Note_on_c, 0, 34, 95
5, 164400, Note_off_c, 0, 34, 95
5, 164400, Note_on_c, 0, 34, 95
5, 164640, Note_off_c, 0, 34, 95
5, 164640, Note_on_c, 0, 35, 95
5, 164880, Note_off_c, 0, 35, 95
5, 164880, Note_on_c, 0, 36, 95
5, 165120, Note_off_c, 0, 36, 95
5, 165360, Note_on_c, 0, 31, 95
5, 165600, Note_off_c, 0, 31, 95
5, 165600, Note_on_c, 0, 28, 95
5, 165651, Note_off_c, 0, 28, 95
5, 165840, Note_on_c, 0, 28, 95
5, 165891, Note_off_c, 0, 28, 95
5, 166080, Note_on_c, 0, 34, 95
5, 166320, Note_off_c, 0, 34, 95
5, 166320, Note_on_c, 0, 34, 95
5, 166560, Note_off_c, 0, 34, 95
5, 166560, Note_on_c, 0, 36, 95
5, 166800, Note_off_c, 0, 36, 95
5, 166800, Note_on_c, 0, 36, 95
5, 167040, Note_off_c, 0, 36, 95
5, 167040, Note_on_c, 0, 39, 95
5, 167280, Note_off_c, 0, 39, 95
5, 167280, Note_on_c, 0, 37, 95
5, 168000, Note_off_c, 0, 37, 95
5, 168000, Note_on_c, 0, 34, 95
5, 168240, Note_off_c, 0, 34, 95
5, 168240, Note_on_c, 0, 34, 95
5, 168480, Note_off_c, 0, 34, 95
5, 168480, Note_on_c, 0, 35, 95
5, 168720, Note_off_c, 0, 35, 95
5, 168720, Note_on_c, 0, 36, 95
5, 168960, Note_off_c, 0, 36, 95
5, 169200, Note_on_c, 0, 28, 95
5, 169920, Note_off_c, 0, 28, 95
5, 169920, Note_on_c, 0, 29, 95
5, 170160, Note_off_c, 0, 29, 95
5, 170160, Note_on_c, 0, 29, 95
5, 170400, Note_off_c, 0, 29, 95
5, 170400, Note_on_c, 0, 29, 95
5, 170640, Note_off_c, 0, 29, 95
5, 170640, Note_on_c, 0, 30, 95
5, 171120, Note_off_c, 0, 30, 95
5, 171120, Note_on_c, 0, 31, 95
5, 171840, Note_off_c, 0, 31, 95
5, 171840, Note_on_c, 0, 34, 95
5, 172080, Note_off_c, 0, 34, 95
5, 172080, Note_on_c, 0, 34, 95
5, 172320, Note_off_c, 0, 34, 95
5, 172320, Note_on_c, 0, 35, 95
5, 172560, Note_off_c, 0, 35, 95
5, 172560, Note_on_c, 0, 36, 95
5, 172800, Note_off_c, 0, 36, 95
5, 173040, Note_on_c, 0, 31, 95
5, 173280, Note_off_c, 0, 31, 95
5, 173280, Note_on_c, 0, 28, 95
5, 173331, Note_off_c, 0, 28, 95
5, 173520, Note_on_c, 0, 28, 95
5, 173571, Note_off_c, 0, 28, 95
5, 173760, Note_on_c, 0, 34, 95
5, 173920, Note_off_c, 0, 34, 95
5, 173920, Note_on_c, 0, 35, 95
5, 174080, Note_off_c, 0, 35, 95
5, 174080, Note_on_c, 0, 36, 95
5, 174240, Note_off_c, 0, 36, 95
5, 174240, Note_on_c, 0, 39, 95
5, 174400, Note_off_c, 0, 39, 95
5, 174400, Note_on_c, 0, 36, 95
5, 174560, Note_off_c, 0, 36, 95
5, 174560, Note_on_c, 0, 34, 95
5, 174720, Note_off_c, 0, 34, 95
5, 174720, Note_on_c, 0, 41, 95
5, 174960, Note_off_c, 0, 41, 95
5, 174960, Note_on_c, 0, 39, 95
5, 175620, Note_on_c, 1, 42, 95
5, 175680, Note_off_c, 0, 39, 95
5, 175680, Note_off_c, 1, 42, 95
5, 175680, Note_on_c, 1, 43, 95
5, 176160, Note_off_c, 1, 43, 95
5, 176160, Note_on_c, 0, 46, 95
5, 176340, Note_on_c, 1, 43, 95
5, 176400, Note_off_c, 0, 46, 95
5, 176400, Note_off_c, 1, 43, 95
5, 176400, Note_on_c, 1, 42, 95
5, 176520, Pitch_bend_c, 1, 8064
5, 176640, Pitch_bend_c, 1, 7936
5, 176760, Pitch_bend_c, 1, 7680
5, 176880, Pitch_bend_c, 1, 7552
5, 176880, Pitch_bend_c, 1, 8192
5, 176880, Note_off_c, 1, 42, 95
5, 176880, Note_on_c, 0, 41, 95
5, 177120, Note_off_c, 0, 41, 95
5, 177120, Note_on_c, 0, 39, 95
5, 177360, Note_off_c, 0, 39, 95
5, 177360, Note_on_c, 0, 34, 95
5, 177540, Note_on_c, 1, 34, 95
5, 177600, Note_off_c, 0, 34, 95
5, 177600, Note_off_c, 1, 34, 95
5, 177600, Note_on_c, 1, 36, 95
5, 177840, Note_off_c, 1, 36, 95
5, 177840, Note_on_c, 0, 35, 95
5, 178080, Note_off_c, 0, 35, 95
5, 178080, Note_on_c, 0, 34, 95
5, 178320, Note_off_c, 0, 34, 95
5, 178320, Note_on_c, 0, 33, 95
5, 178560, Note_off_c, 0, 33, 95
5, 178560, Note_on_c, 0, 31, 95
5, 178800, Note_off_c, 0, 31, 95
5, 178800, Note_on_c, 0, 30, 95
5, 179040, Note_off_c, 0, 30, 95
5, 179040, Note_on_c, 0, 29, 95
5, 179280, Note_off_c, 0, 29, 95
5, 179280, Note_on_c, 0, 28, 95
5, 179520, Note_off_c, 0, 28, 95
5, 179520, Note_on_c, 0, 36, 95
5, 179760, Note_off_c, 0, 36, 95
5, 179760, Note_on_c, 0, 36, 95
5, 180000, Note_off_c, 0, 36, 95
5, 180000, Note_on_c, 0, 36, 95
5, 180240, Note_off_c, 0, 36, 95
5, 180240, Note_on_c, 0, 36, 95
5, 180960, Note_off_c, 0, 36, 95
5, 180960, Note_on_c, 0, 36, 95
5, 181200, Note_off_c, 0, 36, 95
5, 181200, Note_on_c, 0, 36, 95
5, 181440, Note_off_c, 0, 36, 95
5, 181440, Note_on_c, 0, 28, 95
5, 181491, Note_off_c, 0, 28, 95
5, 181680, Note_on_c, 0, 36, 95
5, 181920, Note_off_c, 0, 36, 95
5, 181920, Note_on_c, 0, 28, 95
5, 181971, Note_off_c, 0, 28, 95
5, 182160, Note_on_c, 0, 36, 95
5, 182400, Note_off_c, 0, 36, 95
5, 182400, Note_on_c, 0, 36, 95
5, 182640, Note_off_c, 0, 36, 95
5, 182640, Note_on_c, 0, 36, 95
5, 182880, Note_off_c, 0, 36, 95
5, 182880, Note_on_c, 0, 28, 95
5, 182931, Note_off_c, 0, 28, 95
5, 183120, Note_on_c, 0, 28, 95
5, 183171, Note_off_c, 0, 28, 95
5, 183360, Note_on_c, 0, 36, 95
5, 183600, Note_off_c, 0, 36, 95
5, 183600, Note_on_c, 0, 36, 95
5, 183840, Note_off_c, 0, 36, 95
5, 183840, Note_on_c, 0, 36, 95
5, 184080, Note_off_c, 0, 36, 95
5, 184080, Note_on_c, 0, 36, 95
5, 184800, Note_off_c, 0, 36, 95
5, 185520, Note_on_c, 0, 36, 95
5, 186480, Note_off_c, 0, 36, 95
5, 186480, Note_on_c, 0, 31, 95
5, 186720, Note_off_c, 0, 31, 95
5, 187200, Note_on_c, 0, 36, 95
5, 187440, Note_off_c, 0, 36, 95
5, 187440, Note_on_c, 0, 36, 95
5, 187680, Note_off_c, 0, 36, 95
5, 187680, Note_on_c, 0, 36, 95
5, 187920, Note_off_c, 0, 36, 95
5, 187920, Note_on_c, 0, 36, 95
5, 188640, Note_off_c, 0, 36, 95
5, 188640, Note_on_c, 0, 36, 95
5, 188880, Note_off_c, 0, 36, 95
5, 188880, Note_on_c, 0, 36, 95
5, 189120, Note_off_c, 0, 36, 95
5, 189120, Note_on_c, 0, 28, 95
5, 189171, Note_off_c, 0, 28, 95
5, 189360, Note_on_c, 0, 36, 95
5, 189600, Note_off_c, 0, 36, 95
5, 189600, Note_on_c, 0, 28, 95
5, 189651, Note_off_c, 0, 28, 95
5, 189840, Note_on_c, 0, 28, 95
5, 189891, Note_off_c, 0, 28, 95
5, 190080, Note_on_c, 0, 36, 95
5, 190320, Note_off_c, 0, 36, 95
5, 190320, Note_on_c, 0, 36, 95
5, 190560, Note_off_c, 0, 36, 95
5, 190560, Note_on_c, 0, 28, 95
5, 190611, Note_off_c, 0, 28, 95
5, 190800, Note_on_c, 0, 28, 95
5, 190851, Note_off_c, 0, 28, 95
5, 191040, Note_on_c, 0, 36, 95
5, 191280, Note_off_c, 0, 36, 95
5, 191280, Note_on_c, 0, 36, 95
5, 191520, Note_off_c, 0, 36, 95
5, 191520, Note_on_c, 0, 36, 95
5, 191760, Note_off_c, 0, 36, 95
5, 191760, Note_on_c, 0, 36, 95
5, 192480, Note_off_c, 0, 36, 95
5, 192480, Note_on_c, 0, 48, 95
5, 192720, Note_off_c, 0, 48, 95
5, 192720, Note_on_c, 0, 46, 95
5, 192960, Note_off_c, 0, 46, 95
5, 192960, Note_on_c, 0, 48, 95
5, 193200, Note_off_c, 0, 48, 95
5, 193200, Note_on_c, 0, 46, 95
5, 193440, Note_off_c, 0, 46, 95
5, 193440, Note_on_c, 0, 43, 95
5, 193680, Note_off_c, 0, 43, 95
5, 193680, Note_on_c, 0, 42, 95
5, 193920, Note_off_c, 0, 42, 95
5, 193920, Note_on_c, 0, 41, 95
5, 194080, Note_off_c, 0, 41, 95
5, 194080, Note_on_c, 0, 42, 95
5, 194240, Note_off_c, 0, 42, 95
5, 194240, Note_on_c, 0, 41, 95
5, 194400, Note_off_c, 0, 41, 95
5, 194400, Note_on_c, 0, 39, 95
5, 194640, Note_off_c, 0, 39, 95
5, 194640, Note_on_c, 0, 36, 95
5, 194880, Note_off_c, 0, 36, 95
5, 194880, Note_on_c, 0, 34, 95
5, 195120, Note_off_c, 0, 34, 95
5, 195120, Note_on_c, 1, 36, 95
5, 195600, Note_off_c, 1, 36, 95
5, 197760, Note_on_c, 0, 34, 95
5, 198000, Note_off_c, 0, 34, 95
5, 198000, Note_on_c, 0, 36, 95
5, 198240, Note_off_c, 0, 36, 95
5, 198720, Note_on_c, 0, 32, 95
5, 198960, Note_off_c, 0, 32, 95
5, 198960, Note_on_c, 0, 34, 95
5, 199200, Note_off_c, 0, 34, 95
5, 201600, Note_on_c, 0, 32, 95
5, 201840, Note_off_c, 0, 32, 95
5, 201840, Note_on_c, 0, 34, 95
5, 202080, Note_off_c, 0, 34, 95
5, 202560, Note_on_c, 0, 30, 95
5, 202800, Note_off_c, 0, 30, 95
5, 202800, Note_on_c, 0, 32, 95
5, 203040, Note_off_c, 0, 32, 95
5, 205440, Note_on_c, 0, 30, 95
5, 205680, Note_off_c, 0, 30, 95
5, 205680, Note_on_c, 0, 32, 95
5, 205920, Note_off_c, 0, 32, 95
5, 206400, Note_on_c, 0, 28, 95
5, 206640, Note_off_c, 0, 28, 95
5, 206640, Note_on_c, 0, 30, 95
5, 206880, Note_off_c, 0, 30, 95
5, 207120, Note_on_c, 0, 28, 95
5, 207360, Note_off_c, 0, 28, 95
5, 207360, Note_on_c, 0, 30, 95
5, 207600, Note_off_c, 0, 30, 95
5, 207600, Note_on_c, 0, 32, 95
5, 207840, Note_off_c, 0, 32, 95
5, 207840, Note_on_c, 0, 34, 95
5, 208080, Note_off_c, 0, 34, 95
5, 208080, Note_on_c, 0, 36, 95
5, 208560, Note_off_c, 0, 36, 95
5, 208560, Note_on_c, 0, 34, 95
5, 208800, Note_off_c, 0, 34, 95
5, 208800, Note_on_c, 0, 32, 95
5, 209040, Note_off_c, 0, 32, 95
5, 209040, Note_on_c, 0, 30, 95
5, 209280, Note_off_c, 0, 30, 95
5, 209280, Note_on_c, 0, 28, 95
5, 210000, Note_off_c, 0, 28, 95
5, 210000, Note_on_c, 0, 28, 95
5, 210240, Note_off_c, 0, 28, 95
5, 210240, Note_on_c, 0, 30, 95
5, 210480, Note_off_c, 0, 30, 95
5, 210480, Note_on_c, 0, 32, 95
5, 210720, Note_off_c, 0, 32, 95
5, 213120, Note_on_c, 0, 30, 95
5, 213360, Note_off_c, 0, 30, 95
5, 213360, Note_on_c, 0, 32, 95
5, 213600, Note_off_c, 0, 32, 95
5, 214080, Note_on_c, 0, 28, 95
5, 214320, Note_off_c, 0, 28, 95
5, 214320, Note_on_c, 0, 30, 95
5, 214560, Note_off_c, 0, 30, 95
5, 215040, Note_on_c, 0, 40, 95
5, 215280, Note_off_c, 0, 40, 95
5, 215280, Note_on_c, 0, 39, 95
5, 215520, Note_off_c, 0, 39, 95
5, 215520, Note_on_c, 0, 37, 95
5, 215760, Note_off_c, 0, 37, 95
5, 215760, Note_on_c, 0, 36, 95
5, 216480, Note_off_c, 0, 36, 95
5, 216480, Note_on_c, 0, 30, 95
5, 216720, Note_off_c, 0, 30, 95
5, 216720, Note_on_c, 0, 32, 95
5, 216960, Note_off_c, 0, 32, 95
5, 219360, Note_on_c, 0, 30, 95
5, 219600, Note_off_c, 0, 30, 95
5, 219600, Note_on_c, 0, 32, 95
5, 219840, Note_off_c, 0, 32, 95
5, 220320, Note_on_c, 0, 28, 95
5, 220560, Note_off_c, 0, 28, 95
5, 220560, Note_on_c, 0, 30, 95
5, 220800, Note_off_c, 0, 30, 95
5, 221040, Note_on_c, 0, 28, 95
5, 221280, Note_off_c, 0, 28, 95
5, 221280, Note_on_c, 0, 30, 95
5, 221520, Note_off_c, 0, 30, 95
5, 221520, Note_on_c, 0, 32, 95
5, 221760, Note_off_c, 0, 32, 95
5, 221760, Note_on_c, 0, 34, 95
5, 222000, Note_off_c, 0, 34, 95
5, 222000, Note_on_c, 0, 36, 95
5, 222480, Note_off_c, 0, 36, 95
5, 222480, Note_on_c, 0, 34, 95
5, 222720, Note_off_c, 0, 34, 95
5, 222720, Note_on_c, 0, 32, 95
5, 222960, Note_off_c, 0, 32, 95
5, 222960, Note_on_c, 0, 30, 95
5, 223200, Note_off_c, 0, 30, 95
5, 223200, Note_on_c, 0, 28, 95
5, 223920, Note_off_c, 0, 28, 95
5, 223920, Note_on_c, 0, 28, 95
5, 224160, Note_off_c, 0, 28, 95
5, 224160, Note_on_c, 0, 30, 95
5, 224400, Note_off_c, 0, 30, 95
5, 224400, Note_on_c, 0, 32, 95
5, 224640, Note_off_c, 0, 32, 95
5, 227040, Note_on_c, 0, 30, 95
5, 227280, Note_off_c, 0, 30, 95
5, 227280, Note_on_c, 0, 32, 95
5, 227520, Note_off_c, 0, 32, 95
5, 228000, Note_on_c, 0, 28, 95
5, 228240, Note_off_c, 0, 28, 95
5, 228240, Note_on_c, 0, 30, 95
5, 228480, Note_off_c, 0, 30, 95
5, 228960, Note_on_c, 0, 40, 95
5, 229200, Note_off_c, 0, 40, 95
5, 229200, Note_on_c, 0, 39, 95
5, 229440, Note_off_c, 0, 39, 95
5, 229440, Note_on_c, 0, 37, 95
5, 229680, Note_off_c, 0, 37, 95
5, 229680, Note_on_c, 0, 36, 95
5, 230400, Note_off_c, 0, 36, 95
5, 230400, Note_on_c, 0, 30, 95
5, 230640, Note_off_c, 0, 30, 95
5, 230640, Note_on_c, 0, 32, 95
5, 230880, Note_off_c, 0, 32, 95
5, 233280, Note_on_c, 0, 30, 95
5, 233520, Note_off_c, 0, 30, 95
5, 233520, Note_on_c, 0, 32, 95
5, 233760, Note_off_c, 0, 32, 95
5, 234240, Note_on_c, 0, 28, 95
5, 234480, Note_off_c, 0, 28, 95
5, 234480, Note_on_c, 0, 30, 95
5, 234720, Note_off_c, 0, 30, 95
5, 234960, Note_on_c, 0, 28, 95
5, 235200, Note_off_c, 0, 28, 95
5, 235200, Note_on_c, 0, 30, 95
5, 235440, Note_off_c, 0, 30, 95
5, 235440, Note_on_c, 0, 32, 95
5, 235680, Note_off_c, 0, 32, 95
5, 235680, Note_on_c, 0, 34, 95
5, 235920, Note_off_c, 0, 34, 95
5, 235920, Note_on_c, 0, 36, 95
5, 236400, Note_off_c, 0, 36, 95
5, 236400, Note_on_c, 0, 34, 95
5, 236640, Note_off_c, 0, 34, 95
5, 236640, Note_on_c, 0, 32, 95
5, 236880, Note_off_c, 0, 32, 95
5, 236880, Note_on_c, 0, 30, 95
5, 237120, Note_off_c, 0, 30, 95
5, 237120, Note_on_c, 0, 28, 95
5, 237840, Note_off_c, 0, 28, 95
5, 237840, Note_on_c, 0, 28, 95
5, 238080, Note_off_c, 0, 28, 95
5, 238080, Note_on_c, 0, 30, 95
5, 238320, Note_off_c, 0, 30, 95
5, 238320, Note_on_c, 0, 32, 95
5, 238560, Note_off_c, 0, 32, 95
5, 240960, Note_on_c, 0, 30, 95
5, 241200, Note_off_c, 0, 30, 95
5, 241200, Note_on_c, 0, 32, 95
5, 241440, Note_off_c, 0, 32, 95
5, 241920, Note_on_c, 0, 28, 95
5, 242160, Note_off_c, 0, 28, 95
5, 242160, Note_on_c, 0, 30, 95
5, 242400, Note_off_c, 0, 30, 95
5, 242880, Note_on_c, 0, 40, 95
5, 243120, Note_off_c, 0, 40, 95
5, 243120, Note_on_c, 0, 39, 95
5, 243360, Note_off_c, 0, 39, 95
5, 243360, Note_on_c, 0, 37, 95
5, 243600, Note_off_c, 0, 37, 95
5, 243600, Note_on_c, 0, 36, 95
5, 244320, Note_off_c, 0, 36, 95
5, 244320, Note_on_c, 0, 30, 95
5, 244560, Note_off_c, 0, 30, 95
5, 244560, Note_on_c, 0, 32, 95
5, 244800, Note_off_c, 0, 32, 95
5, 247200, Note_on_c, 0, 30, 95
5, 247440, Note_off_c, 0, 30, 95
5, 247440, Note_on_c, 0, 32, 95
5, 247680, Note_off_c, 0, 32, 95
5, 248160, Note_on_c, 0, 28, 95
5, 248400, Note_off_c, 0, 28, 95
5, 248400, Note_on_c, 0, 30, 95
5, 248640, Note_off_c, 0, 30, 95
5, 248880, Note_on_c, 0, 28, 95
5, 249120, Note_off_c, 0, 28, 95
5, 249120, Note_on_c, 0, 30, 95
5, 249360, Note_off_c, 0, 30, 95
5, 249360, Note_on_c, 0, 32, 95
5, 249600, Note_off_c, 0, 32, 95
5, 249600, Note_on_c, 0, 34, 95
5, 249840, Note_off_c, 0, 34, 95
5, 249840, Note_on_c, 0, 36, 95
5, 250320, Note_off_c, 0, 36, 95
5, 250320, Note_on_c, 0, 34, 95
5, 250560, Note_off_c, 0, 34, 95
5, 250560, Note_on_c, 0, 32, 95
5, 250800, Note_off_c, 0, 32, 95
5, 250800, Note_on_c, 0, 30, 95
5, 251040, Note_off_c, 0, 30, 95
5, 251040, Note_on_c, 0, 28, 95
5, 251760, Note_off_c, 0, 28, 95
5, 251760, Note_on_c, 0, 28, 95
5, 252000, Note_off_c, 0, 28, 95
5, 252000, Note_on_c, 0, 30, 95
5, 252240, Note_off_c, 0, 30, 95
5, 252240, Note_on_c, 0, 32, 95
5, 252480, Note_off_c, 0, 32, 95
5, 254880, Note_on_c, 0, 30, 95
5, 255120, Note_off_c, 0, 30, 95
5, 255120, Note_on_c, 0, 32, 95
5, 255360, Note_off_c, 0, 32, 95
5, 255840, Note_on_c, 0, 28, 95
5, 256080, Note_off_c, 0, 28, 95
5, 256080, Note_on_c, 0, 30, 95
5, 256320, Note_off_c, 0, 30, 95
5, 256800, Note_on_c, 0, 40, 95
5, 257040, Note_off_c, 0, 40, 95
5, 257040, Note_on_c, 0, 39, 95
5, 257280, Note_off_c, 0, 39, 95
5, 257280, Note_on_c, 0, 37, 95
5, 257520, Note_off_c, 0, 37, 95
5, 257520, Note_on_c, 0, 36, 95
5, 258240, Note_off_c, 0, 36, 95
5, 258240, Note_on_c, 0, 30, 95
5, 258480, Note_off_c, 0, 30, 95
5, 258480, Note_on_c, 0, 32, 95
5, 258720, Note_off_c, 0, 32, 95
5, 261120, Note_on_c, 0, 30, 95
5, 261360, Note_off_c, 0, 30, 95
5, 261360, Note_on_c, 0, 32, 95
5, 261600, Note_off_c, 0, 32, 95
5, 262080, Note_on_c, 0, 28, 95
5, 262320, Note_off_c, 0, 28, 95
5, 262320, Note_on_c, 0, 30, 95
5, 262560, Note_off_c, 0, 30, 95
5, 262800, Note_on_c, 0, 28, 95
5, 263040, Note_off_c, 0, 28, 95
5, 263040, Note_on_c, 0, 30, 95
5, 263280, Note_off_c, 0, 30, 95
5, 263280, Note_on_c, 0, 32, 95
5, 263520, Note_off_c, 0, 32, 95
5, 263520, Note_on_c, 0, 34, 95
5, 263760, Note_off_c, 0, 34, 95
5, 263760, Note_on_c, 0, 36, 95
5, 264240, Note_off_c, 0, 36, 95
5, 264240, Note_on_c, 0, 34, 95
5, 264480, Note_off_c, 0, 34, 95
5, 264480, Note_on_c, 0, 32, 95
5, 264720, Note_off_c, 0, 32, 95
5, 264720, Note_on_c, 0, 30, 95
5, 264960, Note_off_c, 0, 30, 95
5, 264960, Note_on_c, 0, 28, 95
5, 265680, Note_off_c, 0, 28, 95
5, 265680, Note_on_c, 0, 28, 95
5, 265920, Note_off_c, 0, 28, 95
5, 265920, Note_on_c, 0, 30, 95
5, 266160, Note_off_c, 0, 30, 95
5, 266160, Note_on_c, 0, 32, 95
5, 266400, Note_off_c, 0, 32, 95
5, 268800, Note_on_c, 0, 30, 95
5, 269040, Note_off_c, 0, 30, 95
5, 269040, Note_on_c, 0, 32, 95
5, 269280, Note_off_c, 0, 32, 95
5, 269760, Note_on_c, 0, 28, 95
5, 270000, Note_off_c, 0, 28, 95
5, 270000, Note_on_c, 0, 30, 95
5, 270240, Note_off_c, 0, 30, 95
5, 270720, Note_on_c, 0, 40, 95
5, 270960, Note_off_c, 0, 40, 95
5, 270960, Note_on_c, 0, 39, 95
5, 271200, Note_off_c, 0, 39, 95
5, 271200, Note_on_c, 0, 37, 95
5, 271440, Note_off_c, 0, 37, 95
5, 271440, Note_on_c, 0, 36, 95
5, 272160, Note_off_c, 0, 36, 95
5, 272160, Note_on_c, 0, 30, 95
5, 272400, Note_off_c, 0, 30, 95
5, 272400, Note_on_c, 0, 32, 95
5, 272640, Note_off_c, 0, 32, 95
5, 275040, Note_on_c, 0, 30, 95
5, 275280, Note_off_c, 0, 30, 95
5, 275280, Note_on_c, 0, 32, 95
5, 275520, Note_off_c, 0, 32, 95
5, 276000, Note_on_c, 0, 28, 95
5, 276240, Note_off_c, 0, 28, 95
5, 276240, Note_on_c, 0, 30, 95
5, 276480, Note_off_c, 0, 30, 95
5, 276720, Note_on_c, 0, 28, 95
5, 276960, Note_off_c, 0, 28, 95
5, 276960, Note_on_c, 0, 30, 95
5, 277200, Note_off_c, 0, 30, 95
5, 277200, Note_on_c, 0, 32, 95
5, 277440, Note_off_c, 0, 32, 95
5, 277440, Note_on_c, 0, 34, 95
5, 277680, Note_off_c, 0, 34, 95
5, 277680, Note_on_c, 0, 36, 95
5, 278160, Note_off_c, 0, 36, 95
5, 278160, Note_on_c, 0, 34, 95
5, 278400, Note_off_c, 0, 34, 95
5, 278400, Note_on_c, 0, 32, 95
5, 278640, Note_off_c, 0, 32, 95
5, 278640, Note_on_c, 0, 30, 95
5, 278880, Note_off_c, 0, 30, 95
5, 278880, Note_on_c, 0, 28, 95
5, 279600, Note_off_c, 0, 28, 95
5, 279600, Note_on_c, 0, 28, 95
5, 279840, Note_off_c, 0, 28, 95
5, 279840, Note_on_c, 0, 30, 95
5, 280080, Note_off_c, 0, 30, 95
5, 280080, Note_on_c, 0, 32, 95
5, 280320, Note_off_c, 0, 32, 95
5, 282720, Note_on_c, 0, 30, 95
5, 282960, Note_off_c, 0, 30, 95
5, 282960, Note_on_c, 0, 32, 95
5, 283200, Note_off_c, 0, 32, 95
5, 283680, Note_on_c, 0, 28, 95
5, 283920, Note_off_c, 0, 28, 95
5, 283920, Note_on_c, 0, 30, 95
5, 284160, Note_off_c, 0, 30, 95
5, 284640, Note_on_c, 0, 40, 95
5, 284880, Note_off_c, 0, 40, 95
5, 284880, Note_on_c, 0, 39, 95
5, 285120, Note_off_c, 0, 39, 95
5, 285120, Note_on_c, 0, 37, 95
5, 285360, Note_off_c, 0, 37, 95
5, 285360, Note_on_c, 0, 36, 95
5, 286080, Note_off_c, 0, 36, 95
5, 286080, Note_on_c, 0, 30, 95
5, 286320, Note_off_c, 0, 30, 95
5, 286320, Note_on_c, 0, 32, 95
5, 286560, Note_off_c, 0, 32, 95
5, 288960, Note_on_c, 0, 30, 95
5, 289200, Note_off_c, 0, 30, 95
5, 289200, Note_on_c, 0, 32, 95
5, 289440, Note_off_c, 0, 32, 95
5, 289920, Note_on_c, 0, 28, 95
5, 290160, Note_off_c, 0, 28, 95
5, 290160, Note_on_c, 0, 30, 95
5, 290400, Note_off_c, 0, 30, 95
5, 290640, Note_on_c, 0, 28, 95
5, 290880, Note_off_c, 0, 28, 95
5, 290880, Note_on_c, 0, 30, 95
5, 291120, Note_off_c, 0, 30, 95
5, 291120, Note_on_c, 0, 32, 95
5, 291360, Note_off_c, 0, 32, 95
5, 291360, Note_on_c, 0, 34, 95
5, 291600, Note_off_c, 0, 34, 95
5, 291600, Note_on_c, 0, 36, 95
5, 292080, Note_off_c, 0, 36, 95
5, 292080, Note_on_c, 0, 34, 95
5, 292320, Note_off_c, 0, 34, 95
5, 292320, Note_on_c, 0, 32, 95
5, 292560, Note_off_c, 0, 32, 95
5, 292560, Note_on_c, 0, 30, 95
5, 292800, Note_off_c, 0, 30, 95
5, 292800, Note_on_c, 0, 28, 95
5, 293520, Note_off_c, 0, 28, 95
5, 293520, Note_on_c, 0, 28, 95
5, 293760, Note_off_c, 0, 28, 95
5, 293760, Note_on_c, 0, 30, 95
5, 294000, Note_off_c, 0, 30, 95
5, 294000, Note_on_c, 0, 32, 95
5, 294240, Note_off_c, 0, 32, 95
5, 296640, Note_on_c, 0, 30, 95
5, 296880, Note_off_c, 0, 30, 95
5, 296880, Note_on_c, 0, 32, 95
5, 297120, Note_off_c, 0, 32, 95
5, 297600, Note_on_c, 0, 28, 95
5, 297840, Note_off_c, 0, 28, 95
5, 297840, Note_on_c, 0, 30, 95
5, 298080, Note_off_c, 0, 30, 95
5, 298560, Note_on_c, 0, 40, 95
5, 298800, Note_off_c, 0, 40, 95
5, 298800, Note_on_c, 0, 39, 95
5, 299040, Note_off_c, 0, 39, 95
5, 299040, Note_on_c, 0, 37, 95
5, 299280, Note_off_c, 0, 37, 95
5, 299280, Note_on_c, 0, 36, 95
5, 300000, Note_off_c, 0, 36, 95
5, 300000, Note_on_c, 0, 30, 95
5, 300240, Note_off_c, 0, 30, 95
5, 300240, Note_on_c, 0, 32, 95
5, 300480, Note_off_c, 0, 32, 95
5, 302880, Note_on_c, 0, 30, 95
5, 303120, Note_off_c, 0, 30, 95
5, 303120, Note_on_c, 0, 32, 95
5, 303360, Note_off_c, 0, 32, 95
5, 303840, Note_on_c, 0, 28, 95
5, 304080, Note_off_c, 0, 28, 95
5, 304080, Note_on_c, 0, 30, 95
5, 304320, Note_off_c, 0, 30, 95
5, 304560, Note_on_c, 0, 28, 95
5, 304800, Note_off_c, 0, 28, 95
5, 304800, Note_on_c, 0, 30, 95
5, 305040, Note_off_c, 0, 30, 95
5, 305040, Note_on_c, 0, 32, 95
5, 305280, Note_off_c, 0, 32, 95
5, 305280, Note_on_c, 0, 34, 95
5, 305520, Note_off_c, 0, 34, 95
5, 305520, Note_on_c, 0, 36, 95
5, 306000, Note_off_c, 0, 36, 95
5, 306000, Note_on_c, 0, 34, 95
5, 306240, Note_off_c, 0, 34, 95
5, 306240, Note_on_c, 0, 32, 95
5, 306480, Note_off_c, 0, 32, 95
5, 306480, Note_on_c, 0, 30, 95
5, 306720, Note_off_c, 0, 30, 95
5, 306720, Note_on_c, 0, 28, 95
5, 307440, Note_off_c, 0, 28, 95
5, 307440, Note_on_c, 0, 28, 95
5, 307680, Note_off_c, 0, 28, 95
5, 307680, Note_on_c, 0, 30, 95
5, 307920, Note_off_c, 0, 30, 95
5, 307920, Note_on_c, 0, 32, 95
5, 308160, Note_off_c, 0, 32, 95
5, 310560, Note_on_c, 0, 30, 95
5, 310800, Note_off_c, 0, 30, 95
5, 310800, Note_on_c, 0, 32, 95
5, 311040, Note_off_c, 0, 32, 95
5, 311520, Note_on_c, 0, 28, 95
5, 311760, Note_off_c, 0, 28, 95
5, 311760, Note_on_c, 0, 30, 95
5, 312000, Note_off_c, 0, 30, 95
5, 312480, Note_on_c, 0, 40, 95
5, 312720, Note_off_c, 0, 40, 95
5, 312720, Note_on_c, 0, 39, 95
5, 312960, Note_off_c, 0, 39, 95
5, 312960, Note_on_c, 0, 37, 95
5, 313200, Note_off_c, 0, 37, 95
5, 313200, Note_on_c, 0, 36, 95
5, 313920, Note_off_c, 0, 36, 95
5, 313920, Note_on_c, 0, 30, 95
5, 314160, Note_off_c, 0, 30, 95
5, 314160, Note_on_c, 0, 32, 95
5, 314400, Note_off_c, 0, 32, 95
5, 316800, Note_on_c, 0, 30, 95
5, 317040, Note_off_c, 0, 30, 95
5, 317040, Note_on_c, 0, 32, 95
5, 317280, Note_off_c, 0, 32, 95
5, 317760, Note_on_c, 0, 28, 95
5, 318000, Note_off_c, 0, 28, 95
5, 318000, Note_on_c, 0, 30, 95
5, 318240, Note_off_c, 0, 30, 95
5, 318480, Note_on_c, 0, 28, 95
5, 318720, Note_off_c, 0, 28, 95
5, 318720, Note_on_c, 0, 30, 95
5, 318960, Note_off_c, 0, 30, 95
5, 318960, Note_on_c, 0, 32, 95
5, 319200, Note_off_c, 0, 32, 95
5, 319200, Note_on_c, 0, 34, 95
5, 319440, Note_off_c, 0, 34, 95
5, 319440, Note_on_c, 0, 36, 95
5, 319920, Note_off_c, 0, 36, 95
5, 319920, Note_on_c, 0, 34, 95
5, 320160, Note_off_c, 0, 34, 95
5, 320160, Note_on_c, 0, 32, 95
5, 320400, Note_off_c, 0, 32, 95
5, 320400, Note_on_c, 0, 30, 95
5, 320640, Note_off_c, 0, 30, 95
5, 320640, Note_on_c, 0, 28, 95
5, 321360, Note_off_c, 0, 28, 95
5, 321360, Note_on_c, 0, 28, 95
5, 321600, Note_off_c, 0, 28, 95
5, 321600, Note_on_c, 0, 30, 95
5, 321840, Note_off_c, 0, 30, 95
5, 321840, Note_on_c, 0, 32, 95
5, 322080, Note_off_c, 0, 32, 95
5, 324480, Note_on_c, 0, 30, 95
5, 324720, Note_off_c, 0, 30, 95
5, 324720, Note_on_c, 0, 32, 95
5, 324960, Note_off_c, 0, 32, 95
5, 325440, Note_on_c, 0, 28, 95
5, 325680, Note_off_c, 0, 28, 95
5, 325680, Note_on_c, 0, 30, 95
5, 325920, Note_off_c, 0, 30, 95
5, 326400, Note_on_c, 0, 40, 95
5, 326640, Note_off_c, 0, 40, 95
5, 326640, Note_on_c, 0, 39, 95
5, 326880, Note_off_c, 0, 39, 95
5, 326880, Note_on_c, 0, 37, 95
5, 327120, Note_off_c, 0, 37, 95
5, 327120, Note_on_c, 0, 36, 95
5, 327840, Note_off_c, 0, 36, 95
5, 327840, Note_on_c, 0, 30, 95
5, 328080, Note_off_c, 0, 30, 95
5, 328080, Note_on_c, 0, 32, 95
5, 328320, Note_off_c, 0, 32, 95
5, 330720, Note_on_c, 0, 30, 95
5, 330960, Note_off_c, 0, 30, 95
5, 330960, Note_on_c, 0, 32, 95
5, 331200, Note_off_c, 0, 32, 95
5, 331680, Note_on_c, 0, 28, 95
5, 331920, Note_off_c, 0, 28, 95
5, 331920, Note_on_c, 0, 30, 95
5, 332160, Note_off_c, 0, 30, 95
5, 332400, Note_on_c, 0, 28, 95
5, 332640, Note_off_c, 0, 28, 95
5, 332640, Note_on_c, 0, 30, 95
5, 332880, Note_off_c, 0, 30, 95
5, 332880, Note_on_c, 0, 32, 95
5, 333120, Note_off_c, 0, 32, 95
5, 333120, Note_on_c, 0, 34, 95
5, 333360, Note_off_c, 0, 34, 95
5, 333360, Note_on_c, 0, 36, 95
5, 333840, Note_off_c, 0, 36, 95
5, 333840, Note_on_c, 0, 34, 95
5, 334080, Note_off_c, 0, 34, 95
5, 334080, Note_on_c, 0, 32, 95
5, 334320, Note_off_c, 0, 32, 95
5, 334320, Note_on_c, 0, 30, 95
5, 334560, Note_off_c, 0, 30, 95
5, 334560, Note_on_c, 0, 28, 95
5, 335280, Note_off_c, 0, 28, 95
5, 335280, Note_on_c, 0, 28, 95
5, 335520, Note_off_c, 0, 28, 95
5, 335520, Note_on_c, 0, 30, 95
5, 335760, Note_off_c, 0, 30, 95
5, 335760, Note_on_c, 0, 32, 95
5, 336000, Note_off_c, 0, 32, 95
5, 338400, Note_on_c, 0, 30, 95
5, 338640, Note_off_c, 0, 30, 95
5, 338640, Note_on_c, 0, 32, 95
5, 338880, Note_off_c, 0, 32, 95
5, 339360, Note_on_c, 0, 28, 95
5, 339600, Note_off_c, 0, 28, 95
5, 339600, Note_on_c, 0, 30, 95
5, 339840, Note_off_c, 0, 30, 95
5, 340320, Note_on_c, 0, 40, 95
5, 340560, Note_off_c, 0, 40, 95
5, 340560, Note_on_c, 0, 39, 95
5, 340800, Note_off_c, 0, 39, 95
5, 340800, Note_on_c, 0, 37, 95
5, 341040, Note_off_c, 0, 37, 95
5, 341040, Note_on_c, 0, 36, 95
5, 341760, Note_off_c, 0, 36, 95
5, 341760, Note_on_c, 0, 30, 95
5, 342000, Note_off_c, 0, 30, 95
5, 342000, Note_on_c, 0, 32, 95
5, 342240, Note_off_c, 0, 32, 95
5, 344640, Note_on_c, 0, 30, 95
5, 344880, Note_off_c, 0, 30, 95
5, 344880, Note_on_c, 0, 32, 95
5, 345120, Note_off_c, 0, 32, 95
5, 345600, Note_on_c, 0, 28, 95
5, 345840, Note_off_c, 0, 28, 95
5, 345840, Note_on_c, 0, 30, 95
5, 346080, Note_off_c, 0, 30, 95
5, 346320, Note_on_c, 0, 28, 95
5, 346560, Note_off_c, 0, 28, 95
5, 346560, Note_on_c, 0, 30, 95
5, 346800, Note_off_c, 0, 30, 95
5, 346800, Note_on_c, 0, 32, 95
5, 347040, Note_off_c, 0, 32, 95
5, 347040, Note_on_c, 0, 34, 95
5, 347280, Note_off_c, 0, 34, 95
5, 347280, Note_on_c, 0, 36, 95
5, 347760, Note_off_c, 0, 36, 95
5, 347760, Note_on_c, 0, 34, 95
5, 348000, Note_off_c, 0, 34, 95
5, 348000, Note_on_c, 0, 32, 95
5, 348240, Note_off_c, 0, 32, 95
5, 348240, Note_on_c, 0, 30, 95
5, 348480, Note_off_c, 0, 30, 95
5, 348480, Note_on_c, 0, 28, 95
5, 349200, Note_off_c, 0, 28, 95
5, 349200, Note_on_c, 0, 28, 95
5, 349440, Note_off_c, 0, 28, 95
5, 349440, Note_on_c, 0, 30, 95
5, 349680, Note_off_c, 0, 30, 95
5, 349680, Note_on_c, 0, 32, 95
5, 349920, Note_off_c, 0, 32, 95
5, 352320, Note_on_c, 0, 30, 95
5, 352560, Note_off_c, 0, 30, 95
5, 352560, Note_on_c, 0, 32, 95
5, 352800, Note_off_c, 0, 32, 95
5, 353280, Note_on_c, 0, 28, 95
5, 353520, Note_off_c, 0, 28, 95
5, 353520, Note_on_c, 0, 30, 95
5, 353760, Note_off_c, 0, 30, 95
5, 354240, Note_on_c, 0, 40, 95
5, 354480, Note_off_c, 0, 40, 95
5, 354480, Note_on_c, 0, 39, 95
5, 354720, Note_off_c, 0, 39, 95
5, 354720, Note_on_c, 0, 37, 95
5, 354960, Note_off_c, 0, 37, 95
5, 354960, Note_on_c, 0, 36, 95
5, 355680, Note_off_c, 0, 36, 95
5, 355680, Note_on_c, 0, 30, 95
5, 355920, Note_off_c, 0, 30, 95
5, 355920, Note_on_c, 0, 32, 95
5, 356160, Note_off_c, 0, 32, 95
5, 358560, Note_on_c, 0, 30, 95
5, 358800, Note_off_c, 0, 30, 95
5, 358800, Note_on_c, 0, 32, 95
5, 359040, Note_off_c, 0, 32, 95
5, 359520, Note_on_c, 0, 28, 95
5, 359760, Note_off_c, 0, 28, 95
5, 359760, Note_on_c, 0, 30, 95
5, 360000, Note_off_c, 0, 30, 95
5, 360240, Note_on_c, 0, 28, 95
5, 360480, Note_off_c, 0, 28, 95
5, 360480, Note_on_c, 0, 30, 95
5, 360720, Note_off_c, 0, 30, 95
5, 360720, Note_on_c, 0, 32, 95
5, 360960, Note_off_c, 0, 32, 95
5, 360960, Note_on_c, 0, 34, 95
5, 361200, Note_off_c, 0, 34, 95
5, 361200, Note_on_c, 0, 36, 95
5, 361680, Note_off_c, 0, 36, 95
5, 361680, Note_on_c, 0, 34, 95
5, 361920, Note_off_c, 0, 34, 95
5, 361920, Note_on_c, 0, 32, 95
5, 362160, Note_off_c, 0, 32, 95
5, 362160, Note_on_c, 0, 30, 95
5, 362400, Note_off_c, 0, 30, 95
5, 362400, Note_on_c, 0, 28, 95
5, 363120, Note_off_c, 0, 28, 95
5, 363120, Note_on_c, 0, 28, 95
5, 363360, Note_off_c, 0, 28, 95
5, 363360, Note_on_c, 0, 30, 95
5, 363600, Note_off_c, 0, 30, 95
5, 363600, Note_on_c, 0, 32, 95
5, 363840, Note_off_c, 0, 32, 95
5, 366240, Note_on_c, 0, 30, 95
5, 366480, Note_off_c, 0, 30, 95
5, 366480, Note_on_c, 0, 32, 95
5, 366720, Note_off_c, 0, 32, 95
5, 367200, Note_on_c, 0, 28, 95
5, 367440, Note_off_c, 0, 28, 95
5, 367440, Note_on_c, 0, 30, 95
5, 367680, Note_off_c, 0, 30, 95
5, 368160, Note_on_c, 0, 40, 95
5, 368400, Note_off_c, 0, 40, 95
5, 368400, Note_on_c, 0, 39, 95
5, 368640, Note_off_c, 0, 39, 95
5, 368640, Note_on_c, 0, 37, 95
5, 368880, Note_off_c, 0, 37, 95
5, 368880, Note_on_c, 0, 36, 95
5, 369600, Note_off_c, 0, 36, 95
5, 369600, Note_on_c, 0, 30, 95
5, 369840, Note_off_c, 0, 30, 95
5, 369840, Note_on_c, 0, 32, 95
5, 370080, Note_off_c, 0, 32, 95
5, 372480, Note_on_c, 0, 30, 95
5, 372720, Note_off_c, 0, 30, 95
5, 372720, Note_on_c, 0, 32, 95
5, 372960, Note_off_c, 0, 32, 95
5, 373440, Note_on_c, 0, 28, 95
5, 373680, Note_off_c, 0, 28, 95
5, 373680, Note_on_c, 0, 30, 95
5, 373920, Note_off_c, 0, 30, 95
5, 374160, Note_on_c, 0, 28, 95
5, 374400, Note_off_c, 0, 28, 95
5, 374400, Note_on_c, 0, 30, 95
5, 374640, Note_off_c, 0, 30, 95
5, 374640, Note_on_c, 0, 32, 95
5, 374880, Note_off_c, 0, 32, 95
5, 374880, Note_on_c, 0, 34, 95
5, 375120, Note_off_c, 0, 34, 95
5, 375120, Note_on_c, 0, 36, 95
5, 375600, Note_off_c, 0, 36, 95
5, 375600, Note_on_c, 0, 34, 95
5, 375840, Note_off_c, 0, 34, 95
5, 375840, Note_on_c, 0, 32, 95
5, 376080, Note_off_c, 0, 32, 95
5, 376080, Note_on_c, 0, 30, 95
5, 376320, Note_off_c, 0, 30, 95
5, 376320, Note_on_c, 0, 28, 95
5, 377040, Note_off_c, 0, 28, 95
5, 377040, Note_on_c, 0, 28, 95
5, 377280, Note_off_c, 0, 28, 95
5, 377280, Note_on_c, 0, 30, 95
5, 377520, Note_off_c, 0, 30, 95
5, 377520, Note_on_c, 0, 32, 95
5, 377760, Note_off_c, 0, 32, 95
5, 380160, Note_on_c, 0, 30, 95
5, 380400, Note_off_c, 0, 30, 95
5, 380400, Note_on_c, 0, 32, 95
5, 380640, Note_off_c, 0, 32, 95
5, 381120, Note_on_c, 0, 28, 95
5, 381360, Note_off_c, 0, 28, 95
5, 381360, Note_on_c, 0, 30, 95
5, 381600, Note_off_c, 0, 30, 95
5, 382080, Note_on_c, 0, 40, 95
5, 382320, Note_off_c, 0, 40, 95
5, 382320, Note_on_c, 0, 39, 95
5, 382560, Note_off_c, 0, 39, 95
5, 382560, Note_on_c, 0, 37, 95
5, 382800, Note_off_c, 0, 37, 95
5, 382800, Note_on_c, 0, 36, 95
5, 383520, Note_off_c, 0, 36, 95
5, 383520, Note_on_c, 0, 30, 95
5, 383760, Note_off_c, 0, 30, 95
5, 383760, Note_on_c, 0, 32, 95
5, 384000, Note_off_c, 0, 32, 95
5, 386400, Note_on_c, 0, 30, 95
5, 386640, Note_off_c, 0, 30, 95
5, 386640, Note_on_c, 0, 32, 95
5, 386880, Note_off_c, 0, 32, 95
5, 387360, Note_on_c, 0, 28, 95
5, 387600, Note_off_c, 0, 28, 95
5, 387600, Note_on_c, 0, 30, 95
5, 387840, Note_off_c, 0, 30, 95
5, 388080, Note_on_c, 0, 28, 95
5, 388320, Note_off_c, 0, 28, 95
5, 388320, Note_on_c, 0, 30, 95
5, 388560, Note_off_c, 0, 30, 95
5, 388560, Note_on_c, 0, 32, 95
5, 388800, Note_off_c, 0, 32, 95
5, 388800, Note_on_c, 0, 34, 95
5, 389040, Note_off_c, 0, 34, 95
5, 389040, Note_on_c, 0, 36, 95
5, 389520, Note_off_c, 0, 36, 95
5, 389520, Note_on_c, 0, 34, 95
5, 389760, Note_off_c, 0, 34, 95
5, 389760, Note_on_c, 0, 32, 95
5, 390000, Note_off_c, 0, 32, 95
5, 390000, Note_on_c, 0, 30, 95
5, 390240, Note_off_c, 0, 30, 95
5, 390240, Note_on_c, 0, 28, 95
5, 390960, Note_off_c, 0, 28, 95
5, 390960, Note_on_c, 0, 28, 95
5, 391200, Note_off_c, 0, 28, 95
5, 391200, Note_on_c, 0, 30, 95
5, 391440, Note_off_c, 0, 30, 95
5, 391440, Note_on_c, 0, 32, 95
5, 391680, Note_off_c, 0, 32, 95
5, 394080, Note_on_c, 0, 30, 95
5, 394320, Note_off_c, 0, 30, 95
5, 394320, Note_on_c, 0, 32, 95
5, 394560, Note_off_c, 0, 32, 95
5, 395040, Note_on_c, 0, 28, 95
5, 395280, Note_off_c, 0, 28, 95
5, 395280, Note_on_c, 0, 30, 95
5, 395520, Note_off_c, 0, 30, 95
5, 396000, Note_on_c, 0, 40, 95
5, 396240, Note_off_c, 0, 40, 95
5, 396240, Note_on_c, 0, 39, 95
5, 396480, Note_off_c, 0, 39, 95
5, 396480, Note_on_c, 0, 37, 95
5, 396720, Note_off_c, 0, 37, 95
5, 396720, Note_on_c, 0, 36, 95
5, 397440, Note_off_c, 0, 36, 95
5, 397440, Note_on_c, 0, 30, 95
5, 397680, Note_off_c, 0, 30, 95
5, 397680, Note_on_c, 0, 32, 95
5, 397920, Note_off_c, 0, 32, 95
5, 400320, Note_on_c, 0, 30, 95
5, 400560, Note_off_c, 0, 30, 95
5, 400560, Note_on_c, 0, 32, 95
5, 400800, Note_off_c, 0, 32, 95
5, 401280, Note_on_c, 0, 28, 95
5, 401520, Note_off_c, 0, 28, 95
5, 401520, Note_on_c, 0, 30, 95
5, 401760, Note_off_c, 0, 30, 95
5, 402000, Note_on_c, 0, 28, 95
5, 402240, Note_off_c, 0, 28, 95
5, 402240, Note_on_c, 0, 30, 95
5, 402480, Note_off_c, 0, 30, 95
5, 402480, Note_on_c, 0, 32, 95
5, 402720, Note_off_c, 0, 32, 95
5, 402720, Note_on_c, 0, 34, 95
5, 402960, Note_off_c, 0, 34, 95
5, 402960, Note_on_c, 0, 36, 95
5, 403440, Note_off_c, 0, 36, 95
5, 403440, Note_on_c, 0, 34, 95
5, 403680, Note_off_c, 0, 34, 95
5, 403680, Note_on_c, 0, 32, 95
5, 403920, Note_off_c, 0, 32, 95
5, 403920, Note_on_c, 0, 30, 95
5, 404160, Note_off_c, 0, 30, 95
5, 404160, Note_on_c, 0, 28, 95
5, 404880, Note_off_c, 0, 28, 95
5, 404880, Note_on_c, 0, 28, 95
5, 405120, Note_off_c, 0, 28, 95
5, 405120, Note_on_c, 0, 30, 95
5, 405360, Note_off_c, 0, 30, 95
5, 405360, Note_on_c, 0, 32, 95
5, 405600, Note_off_c, 0, 32, 95
5, 408000, Note_on_c, 0, 30, 95
5, 408240, Note_off_c, 0, 30, 95
5, 408240, Note_on_c, 0, 32, 95
5, 408480, Note_off_c, 0, 32, 95
5, 408960, Note_on_c, 0, 28, 95
5, 409200, Note_off_c, 0, 28, 95
5, 409200, Note_on_c, 0, 30, 95
5, 409440, Note_off_c, 0, 30, 95
5, 409920, Note_on_c, 0, 40, 95
5, 410160, Note_off_c, 0, 40, 95
5, 410160, Note_on_c, 0, 39, 95
5, 410400, Note_off_c, 0, 39, 95
5, 410400, Note_on_c, 0, 37, 95
5, 410640, Note_off_c, 0, 37, 95
5, 410640, Note_on_c, 0, 36, 95
5, 411360, Note_off_c, 0, 36, 95
5, 411360, Note_on_c, 0, 30, 95
5, 411600, Note_off_c, 0, 30, 95
5, 411600, Note_on_c, 0, 32, 95
5, 411840, Note_off_c, 0, 32, 95
5, 413760, Note_on_c, 0, 28, 95
5, 414000, Note_off_c, 0, 28, 95
5, 414000, Note_on_c, 0, 28, 95
5, 414240, Note_off_c, 0, 28, 95
5, 414240, Note_on_c, 0, 30, 95
5, 414480, Note_off_c, 0, 30, 95
5, 414480, Note_on_c, 0, 32, 95
5, 414720, Note_off_c, 0, 32, 95
5, 415200, Note_on_c, 0, 32, 95
5, 415440, Note_off_c, 0, 32, 95
5, 415440, Note_on_c, 0, 34, 95
5, 415680, Note_off_c, 0, 34, 95
5, 417600, Note_on_c, 0, 28, 95
5, 417840, Note_off_c, 0, 28, 95
5, 417840, Note_on_c, 0, 28, 95
5, 418080, Note_off_c, 0, 28, 95
5, 418080, Note_on_c, 0, 32, 95
5, 418320, Note_off_c, 0, 32, 95
5, 418320, Note_on_c, 0, 34, 95
5, 418560, Note_off_c, 0, 34, 95
5, 419040, Note_on_c, 0, 34, 95
5, 419280, Note_off_c, 0, 34, 95
5, 419280, Note_on_c, 0, 36, 95
5, 419520, Note_off_c, 0, 36, 95
5, 419520, Note_on_c, 0, 36, 95
5, 419760, Note_off_c, 0, 36, 95
5, 419760, Note_on_c, 0, 36, 95
5, 420000, Note_off_c, 0, 36, 95
5, 420000, Note_on_c, 0, 36, 31
5, 420240, Note_off_c, 0, 36, 31
5, 420240, Note_on_c, 0, 36, 31
5, 420480, Note_off_c, 0, 36, 31
5, 420480, Note_on_c, 0, 36, 95
5, 420720, Note_off_c, 0, 36, 95
5, 420720, Note_on_c, 0, 36, 95
5, 420960, Note_off_c, 0, 36, 95
5, 420960, Note_on_c, 0, 34, 95
5, 421200, Note_off_c, 0, 34, 95
5, 421200, Note_on_c, 0, 36, 95
5, 421440, Note_off_c, 0, 36, 95
5, 421440, Note_on_c, 0, 36, 95
5, 421680, Note_off_c, 0, 36, 95
5, 421680, Note_on_c, 0, 36, 95
5, 421920, Note_off_c, 0, 36, 95
5, 421920, Note_on_c, 0, 39, 95
5, 422160, Note_off_c, 0, 39, 95
5, 422160, Note_on_c, 0, 36, 95
5, 422880, Note_off_c, 0, 36, 95
5, 422880, Note_on_c, 0, 34, 95
5, 423120, Note_off_c, 0, 34, 95
5, 423120, Note_on_c, 0, 36, 95
5, 423360, Note_off_c, 0, 36, 95
5, 423360, Note_on_c, 0, 36, 95
5, 423600, Note_off_c, 0, 36, 95
5, 423600, Note_on_c, 0, 36, 95
5, 423840, Note_off_c, 0, 36, 95
5, 423840, Note_on_c, 0, 36, 47
5, 424080, Note_off_c, 0, 36, 47
5, 424080, Note_on_c, 0, 36, 47
5, 424320, Note_off_c, 0, 36, 47
5, 424320, Note_on_c, 0, 36, 95
5, 424560, Note_off_c, 0, 36, 95
5, 424560, Note_on_c, 0, 36, 95
5, 424800, Note_off_c, 0, 36, 95
5, 424800, Note_on_c, 0, 28, 95
5, 425040, Note_off_c, 0, 28, 95
5, 425040, Note_on_c, 0, 28, 95
5, 425280, Note_off_c, 0, 28, 95
5, 425280, Note_on_c, 0, 29, 95
5, 425520, Note_off_c, 0, 29, 95
5, 425520, Note_on_c, 0, 29, 95
5, 425760, Note_off_c, 0, 29, 95
5, 425760, Note_on_c, 0, 30, 95
5, 426000, Note_off_c, 0, 30, 95
5, 426000, Note_on_c, 0, 30, 95
5, 426240, Note_off_c, 0, 30, 95
5, 426240, Note_on_c, 0, 31, 95
5, 426480, Note_off_c, 0, 31, 95
5, 426480, Note_on_c, 0, 31, 95
5, 426720, Note_off_c, 0, 31, 95
5, 426720, Note_on_c, 0, 34, 95
5, 426960, Note_off_c, 0, 34, 95
5, 426960, Note_on_c, 0, 36, 95
5, 427200, Note_off_c, 0, 36, 95
5, 427200, Note_on_c, 0, 36, 95
5, 427440, Note_off_c, 0, 36, 95
5, 427440, Note_on_c, 0, 36, 95
5, 427680, Note_off_c, 0, 36, 95
5, 427680, Note_on_c, 0, 36, 31
5, 427920, Note_off_c, 0, 36, 31
5, 427920, Note_on_c, 0, 36, 31
5, 428160, Note_off_c, 0, 36, 31
5, 428160, Note_on_c, 0, 36, 95
5, 428400, Note_off_c, 0, 36, 95
5, 428400, Note_on_c, 0, 36, 95
5, 428640, Note_off_c, 0, 36, 95
5, 428640, Note_on_c, 0, 34, 95
5, 428880, Note_off_c, 0, 34, 95
5, 428880, Note_on_c, 0, 36, 95
5, 429120, Note_off_c, 0, 36, 95
5, 429120, Note_on_c, 0, 36, 95
5, 429360, Note_off_c, 0, 36, 95
5, 429360, Note_on_c, 0, 36, 95
5, 429600, Note_off_c, 0, 36, 95
5, 429600, Note_on_c, 0, 39, 95
5, 429840, Note_off_c, 0, 39, 95
5, 429840, Note_on_c, 0, 36, 95
5, 430560, Note_off_c, 0, 36, 95
5, 430560, Note_on_c, 0, 34, 95
5, 430800, Note_off_c, 0, 34, 95
5, 430800, Note_on_c, 0, 36, 95
5, 431040, Note_off_c, 0, 36, 95
5, 431040, Note_on_c, 0, 36, 95
5, 431280, Note_off_c, 0, 36, 95
5, 431280, Note_on_c, 0, 36, 95
5, 431520, Note_off_c, 0, 36, 95
5, 431520, Note_on_c, 0, 36, 47
5, 431760, Note_off_c, 0, 36, 47
5, 431760, Note_on_c, 0, 36, 47
5, 432000, Note_off_c, 0, 36, 47
5, 432000, Note_on_c, 0, 36, 95
5, 432240, Note_off_c, 0, 36, 95
5, 432240, Note_on_c, 0, 36, 95
5, 432480, Note_off_c, 0, 36, 95
5, 432480, Note_on_c, 0, 28, 95
5, 432720, Note_off_c, 0, 28, 95
5, 432720, Note_on_c, 0, 28, 95
5, 432960, Note_off_c, 0, 28, 95
5, 432960, Note_on_c, 0, 29, 95
5, 433200, Note_off_c, 0, 29, 95
5, 433200, Note_on_c, 0, 29, 95
5, 433440, Note_off_c, 0, 29, 95
5, 433440, Note_on_c, 0, 30, 95
5, 433680, Note_off_c, 0, 30, 95
5, 433680, Note_on_c, 0, 30, 95
5, 433920, Note_off_c, 0, 30, 95
5, 433920, Note_on_c, 0, 31, 95
5, 434160, Note_off_c, 0, 31, 95
5, 434160, Note_on_c, 0, 31, 95
5, 434400, Note_off_c, 0, 31, 95
5, 434400, Note_on_c, 0, 36, 95
5, 434640, Note_off_c, 0, 36, 95
5, 434640, Note_on_c, 0, 38, 95
5, 434880, Note_off_c, 0, 38, 95
5, 434880, Note_on_c, 0, 38, 95
5, 435120, Note_off_c, 0, 38, 95
5, 435120, Note_on_c, 0, 38, 95
5, 435360, Note_off_c, 0, 38, 95
5, 435360, Note_on_c, 0, 38, 95
5, 435600, Note_off_c, 0, 38, 95
5, 435600, Note_on_c, 0, 38, 95
5, 435840, Note_off_c, 0, 38, 95
5, 435840, Note_on_c, 0, 38, 95
5, 436080, Note_off_c, 0, 38, 95
5, 436080, Note_on_c, 0, 38, 95
5, 436320, Note_off_c, 0, 38, 95
5, 436320, Note_on_c, 0, 36, 95
5, 436560, Note_off_c, 0, 36, 95
5, 436560, Note_on_c, 0, 38, 95
5, 436800, Note_off_c, 0, 38, 95
5, 436800, Note_on_c, 0, 38, 95
5, 437040, Note_off_c, 0, 38, 95
5, 437040, Note_on_c, 0, 38, 95
5, 437280, Note_off_c, 0, 38, 95
5, 437280, Note_on_c, 0, 41, 95
5, 437520, Note_off_c, 0, 41, 95
5, 437520, Note_on_c, 0, 38, 95
5, 438240, Note_off_c, 0, 38, 95
5, 438240, Note_on_c, 0, 36, 95
5, 438480, Note_off_c, 0, 36, 95
5, 438480, Note_on_c, 0, 38, 95
5, 438720, Note_off_c, 0, 38, 95
5, 438720, Note_on_c, 0, 38, 95
5, 438960, Note_off_c, 0, 38, 95
5, 438960, Note_on_c, 0, 38, 95
5, 439200, Note_off_c, 0, 38, 95
5, 439200, Note_on_c, 0, 38, 95
5, 439440, Note_off_c, 0, 38, 95
5, 439440, Note_on_c, 0, 38, 95
5, 439680, Note_off_c, 0, 38, 95
5, 439680, Note_on_c, 0, 38, 95
5, 439920, Note_off_c, 0, 38, 95
5, 439920, Note_on_c, 0, 38, 95
5, 440160, Note_off_c, 0, 38, 95
5, 440160, Note_on_c, 0, 36, 95
5, 440400, Note_off_c, 0, 36, 95
5, 440400, Note_on_c, 0, 38, 95
5, 440640, Note_off_c, 0, 38, 95
5, 440640, Note_on_c, 0, 38, 95
5, 440880, Note_off_c, 0, 38, 95
5, 440880, Note_on_c, 0, 38, 95
5, 441120, Note_off_c, 0, 38, 95
5, 441120, Note_on_c, 0, 41, 95
5, 441360, Note_off_c, 0, 41, 95
5, 441360, Note_on_c, 0, 38, 95
5, 442080, Note_off_c, 0, 38, 95
5, 442080, Note_on_c, 0, 37, 95
5, 442800, Note_off_c, 0, 37, 95
5, 442800, Note_on_c, 0, 37, 95
5, 443040, Note_off_c, 0, 37, 95
5, 443520, Note_on_c, 0, 37, 95
5, 444240, Note_off_c, 0, 37, 95
5, 444240, Note_on_c, 0, 37, 95
5, 444480, Note_off_c, 0, 37, 95
5, 444960, Note_on_c, 0, 37, 95
5, 445440, Note_off_c, 0, 37, 95
5, 445440, Note_on_c, 0, 37, 95
5, 445920, Note_off_c, 0, 37, 95
5, 445920, Note_on_c, 0, 33, 95
5, 446640, Note_off_c, 0, 33, 95
5, 446640, Note_on_c, 0, 33, 95
5, 446880, Note_off_c, 0, 33, 95
5, 447360, Note_on_c, 0, 33, 95
5, 448080, Note_off_c, 0, 33, 95
5, 448080, Note_on_c, 0, 33, 95
5, 448320, Note_off_c, 0, 33, 95
5, 448800, Note_on_c, 0, 33, 95
5, 449280, Note_off_c, 0, 33, 95
5, 449280, Note_on_c, 0, 33, 95
5, 449520, Note_off_c, 0, 33, 95
5, 449520, Note_on_c, 0, 33, 95
5, 449760, Note_off_c, 0, 33, 95
5, 449760, Note_on_c, 0, 34, 95
5, 450000, Note_off_c, 0, 34, 95
5, 450000, Note_on_c, 0, 36, 95
5, 450240, Note_off_c, 0, 36, 95
5, 450240, Note_on_c, 0, 36, 95
5, 450480, Note_off_c, 0, 36, 95
5, 450480, Note_on_c, 0, 36, 95
5, 450720, Note_off_c, 0, 36, 95
5, 450720, Note_on_c, 0, 36, 31
5, 450960, Note_off_c, 0, 36, 31
5, 450960, Note_on_c, 0, 36, 31
5, 451200, Note_off_c, 0, 36, 31
5, 451200, Note_on_c, 0, 36, 95
5, 451440, Note_off_c, 0, 36, 95
5, 451440, Note_on_c, 0, 36, 95
5, 451680, Note_off_c, 0, 36, 95
5, 451680, Note_on_c, 0, 34, 95
5, 451920, Note_off_c, 0, 34, 95
5, 451920, Note_on_c, 0, 36, 95
5, 452160, Note_off_c, 0, 36, 95
5, 452160, Note_on_c, 0, 36, 95
5, 452400, Note_off_c, 0, 36, 95
5, 452400, Note_on_c, 0, 36, 95
5, 452640, Note_off_c, 0, 36, 95
5, 452640, Note_on_c, 0, 39, 95
5, 452880, Note_off_c, 0, 39, 95
5, 452880, Note_on_c, 0, 36, 95
5, 453600, Note_off_c, 0, 36, 95
5, 453600, Note_on_c, 0, 34, 95
5, 453840, Note_off_c, 0, 34, 95
5, 453840, Note_on_c, 0, 36, 95
5, 454080, Note_off_c, 0, 36, 95
5, 454080, Note_on_c, 0, 36, 95
5, 454320, Note_off_c, 0, 36, 95
5, 454320, Note_on_c, 0, 36, 95
5, 454560, Note_off_c, 0, 36, 95
5, 454560, Note_on_c, 0, 36, 47
5, 454800, Note_off_c, 0, 36, 47
5, 454800, Note_on_c, 0, 36, 47
5, 455040, Note_off_c, 0, 36, 47
5, 455040, Note_on_c, 0, 36, 95
5, 455280, Note_off_c, 0, 36, 95
5, 455280, Note_on_c, 0, 36, 95
5, 455520, Note_off_c, 0, 36, 95
5, 455520, Note_on_c, 0, 28, 95
5, 455760, Note_off_c, 0, 28, 95
5, 455760, Note_on_c, 0, 28, 95
5, 456000, Note_off_c, 0, 28, 95
5, 456000, Note_on_c, 0, 29, 95
5, 456240, Note_off_c, 0, 29, 95
5, 456240, Note_on_c, 0, 29, 95
5, 456480, Note_off_c, 0, 29, 95
5, 456480, Note_on_c, 0, 30, 95
5, 456720, Note_off_c, 0, 30, 95
5, 456720, Note_on_c, 0, 30, 95
5, 456960, Note_off_c, 0, 30, 95
5, 456960, Note_on_c, 0, 31, 95
5, 457200, Note_off_c, 0, 31, 95
5, 457200, Note_on_c, 0, 31, 95
5, 457440, Note_off_c, 0, 31, 95
5, 457440, Note_on_c, 0, 32, 95
5, 459360, Note_off_c, 0, 32, 95
5, 459360, Note_on_c, 0, 32, 95
5, 461280, Note_off_c, 0, 32, 95
5, 461280, Note_on_c, 0, 34, 95
5, 463200, Note_off_c, 0, 34, 95
5, 463200, Note_on_c, 0, 34, 95
5, 465120, Note_off_c, 0, 34, 95
5, 465120, Note_on_c, 0, 34, 95
5, 465600, Note_off_c, 0, 34, 95
5, 465600, Note_on_c, 0, 36, 95
5, 466080, Note_off_c, 0, 36, 95
5, 466080, Note_on_c, 0, 34, 95
5, 466560, Note_off_c, 0, 34, 95
5, 466560, Note_on_c, 0, 36, 95
5, 467040, Note_off_c, 0, 36, 95
5, 467040, Note_on_c, 0, 36, 95
5, 468960, Note_off_c, 0, 36, 95
5, 468960, Note_on_c, 1, 36, 95
5, 469080, Pitch_bend_c, 1, 8448
5, 469200, Pitch_bend_c, 1, 8832
5, 469320, Pitch_bend_c, 1, 9216
5, 469440, Pitch_bend_c, 1, 9600
5, 469440, Pitch_bend_c, 1, 8192
5, 469440, Note_off_c, 1, 36, 95
5, 469440, Note_on_c, 0, 38, 95
5, 470880, Note_off_c, 0, 38, 95
5, 470880, Note_on_c, 0, 38, 95
5, 472800, Note_off_c, 0, 38, 95
5, 472800, Note_on_c, 0, 37, 95
5, 473280, Note_off_c, 0, 37, 95
5, 473280, Note_on_c, 0, 37, 95
5, 473760, Note_off_c, 0, 37, 95
5, 473760, Note_on_c, 0, 37, 95
5, 474240, Note_off_c, 0, 37, 95
5, 474240, Note_on_c, 0, 37, 95
5, 474720, Note_off_c, 0, 37, 95
5, 474720, Note_on_c, 0, 37, 95
5, 475200, Note_off_c, 0, 37, 95
5, 475200, Note_on_c, 0, 37, 95
5, 475680, Note_off_c, 0, 37, 95
5, 475680, Note_on_c, 0, 37, 95
5, 476160, Note_off_c, 0, 37, 95
5, 476160, Note_on_c, 0, 37, 95
5, 476640, Note_off_c, 0, 37, 95
5, 476640, Note_on_c, 0, 36, 95
5, 477120, Note_off_c, 0, 36, 95
5, 477120, Note_on_c, 0, 36, 95
5, 477600, Note_off_c, 0, 36, 95
5, 477600, Note_on_c, 0, 36, 95
5, 478080, Note_off_c, 0, 36, 95
5, 478080, Note_on_c, 0, 36, 95
5, 478560, Note_off_c, 0, 36, 95
5, 478560, Note_on_c, 0, 36, 95
5, 479040, Note_off_c, 0, 36, 95
5, 479040, Note_on_c, 0, 36, 95
5, 479520, Note_off_c, 0, 36, 95
5, 479520, Note_on_c, 0, 36, 95
5, 480000, Note_off_c, 0, 36, 95
5, 480000, Note_on_c, 0, 36, 95
5, 480480, Note_off_c, 0, 36, 95
5, 480480, Note_on_c, 0, 34, 95
5, 480960, Note_off_c, 0, 34, 95
5, 480960, Note_on_c, 0, 34, 95
5, 481440, Note_off_c, 0, 34, 95
5, 481440, Note_on_c, 0, 34, 95
5, 481920, Note_off_c, 0, 34, 95
5, 481920, Note_on_c, 0, 34, 95
5, 482400, Note_off_c, 0, 34, 95
5, 482400, Note_on_c, 0, 34, 95
5, 482880, Note_off_c, 0, 34, 95
5, 482880, Note_on_c, 0, 34, 95
5, 483360, Note_off_c, 0, 34, 95
5, 483360, Note_on_c, 0, 34, 95
5, 483840, Note_off_c, 0, 34, 95
5, 483840, Note_on_c, 0, 34, 95
5, 484320, Note_off_c, 0, 34, 95
5, 484320, Note_on_c, 0, 34, 95
5, 484800, Note_off_c, 0, 34, 95
5, 484800, Note_on_c, 0, 34, 95
5, 485280, Note_off_c, 0, 34, 95
5, 485280, Note_on_c, 0, 34, 95
5, 485760, Note_off_c, 0, 34, 95
5, 485760, Note_on_c, 0, 34, 95
5, 486240, Note_off_c, 0, 34, 95
5, 486240, Note_on_c, 0, 34, 95
5, 486720, Note_off_c, 0, 34, 95
5, 486720, Note_on_c, 0, 34, 95
5, 487200, Note_off_c, 0, 34, 95
5, 487200, Note_on_c, 0, 34, 95
5, 487680, Note_off_c, 0, 34, 95
5, 487680, Note_on_c, 0, 34, 95
5, 488160, Note_off_c, 0, 34, 95
5, 488160, Note_on_c, 0, 34, 95
5, 488400, Note_off_c, 0, 34, 95
5, 488400, Note_on_c, 0, 34, 95
5, 488640, Note_off_c, 0, 34, 95
5, 488640, Note_on_c, 0, 35, 95
5, 488880, Note_off_c, 0, 35, 95
5, 488880, Note_on_c, 0, 36, 95
5, 489120, Note_off_c, 0, 36, 95
5, 489360, Note_on_c, 0, 31, 95
5, 489600, Note_off_c, 0, 31, 95
5, 489600, Note_on_c, 0, 28, 95
5, 489651, Note_off_c, 0, 28, 95
5, 489840, Note_on_c, 0, 28, 95
5, 489891, Note_off_c, 0, 28, 95
5, 490080, Note_on_c, 0, 34, 95
5, 490320, Note_off_c, 0, 34, 95
5, 490320, Note_on_c, 0, 34, 95
5, 490560, Note_off_c, 0, 34, 95
5, 490560, Note_on_c, 0, 36, 95
5, 490800, Note_off_c, 0, 36, 95
5, 490800, Note_on_c, 0, 36, 95
5, 491040, Note_off_c, 0, 36, 95
5, 491040, Note_on_c, 0, 39, 95
5, 491280, Note_off_c, 0, 39, 95
5, 491280, Note_on_c, 0, 37, 95
5, 492000, Note_off_c, 0, 37, 95
5, 492000, Note_on_c, 0, 34, 95
5, 492240, Note_off_c, 0, 34, 95
5, 492240, Note_on_c, 0, 34, 95
5, 492480, Note_off_c, 0, 34, 95
5, 492480, Note_on_c, 0, 35, 95
5, 492720, Note_off_c, 0, 35, 95
5, 492720, Note_on_c, 0, 36, 95
5, 492960, Note_off_c, 0, 36, 95
5, 493200, Note_on_c, 0, 28, 95
5, 493920, Note_off_c, 0, 28, 95
5, 493920, Note_on_c, 0, 29, 95
5, 494160, Note_off_c, 0, 29, 95
5, 494160, Note_on_c, 0, 29, 95
5, 494400, Note_off_c, 0, 29, 95
5, 494400, Note_on_c, 0, 29, 95
5, 494640, Note_off_c, 0, 29, 95
5, 494640, Note_on_c, 0, 30, 95
5, 495120, Note_off_c, 0, 30, 95
5, 495120, Note_on_c, 0, 31, 95
5, 495840, Note_off_c, 0, 31, 95
5, 495840, Note_on_c, 0, 34, 95
5, 496080, Note_off_c, 0, 34, 95
5, 496080, Note_on_c, 0, 34, 95
5, 496320, Note_off_c, 0, 34, 95
5, 496320, Note_on_c, 0, 35, 95
5, 496560, Note_off_c, 0, 35, 95
5, 496560, Note_on_c, 0, 36, 95
5, 496800, Note_off_c, 0, 36, 95
5, 497040, Note_on_c, 0, 31, 95
5, 497280, Note_off_c, 0, 31, 95
5, 497280, Note_on_c, 0, 28, 95
5, 497331, Note_off_c, 0, 28, 95
5, 497520, Note_on_c, 0, 28, 95
5, 497571, Note_off_c, 0, 28, 95
5, 497760, Note_on_c, 0, 34, 95
5, 497920, Note_off_c, 0, 34, 95
5, 497920, Note_on_c, 0, 35, 95
5, 498080, Note_off_c, 0, 35, 95
5, 498080, Note_on_c, 0, 36, 95
5, 498240, Note_off_c, 0, 36, 95
5, 498240, Note_on_c, 0, 39, 95
5, 498400, Note_off_c, 0, 39, 95
5, 498400, Note_on_c, 0, 36, 95
5, 498560, Note_off_c, 0, 36, 95
5, 498560, Note_on_c, 0, 34, 95
5, 498720, Note_off_c, 0, 34, 95
5, 498720, Note_on_c, 0, 41, 95
5, 498960, Note_off_c, 0, 41, 95
5, 498960, Note_on_c, 0, 39, 95
5, 499620, Note_on_c, 1, 42, 95
5, 499680, Note_off_c, 0, 39, 95
5, 499680, Note_off_c, 1, 42, 95
5, 499680, Note_on_c, 1, 43, 95
5, 500160, Note_off_c, 1, 43, 95
5, 500160, Note_on_c, 0, 46, 95
5, 500340, Note_on_c, 1, 43, 95
5, 500400, Note_off_c, 0, 46, 95
5, 500400, Note_off_c, 1, 43, 95
5, 500400, Note_on_c, 1, 42, 95
5, 500520, Pitch_bend_c, 1, 8064
5, 500640, Pitch_bend_c, 1, 7936
5, 500760, Pitch_bend_c, 1, 7680
5, 500880, Pitch_bend_c, 1, 7552
5, 500880, Pitch_bend_c, 1, 8192
5, 500880, Note_off_c, 1, 42, 95
5, 500880, Note_on_c, 0, 41, 95
5, 501120, Note_off_c, 0, 41, 95
5, 501120, Note_on_c, 0, 39, 95
5, 501360, Note_off_c, 0, 39, 95
5, 501360, Note_on_c, 0, 34, 95
5, 501540, Note_on_c, 1, 34, 95
5, 501600, Note_off_c, 0, 34, 95
5, 501600, Note_off_c, 1, 34, 95
5, 501600, Note_on_c, 1, 36, 95
5, 501840, Note_off_c, 1, 36, 95
5, 501840, Note_on_c, 0, 35, 95
5, 502080, Note_off_c, 0, 35, 95
5, 502080, Note_on_c, 0, 34, 95
5, 502320, Note_off_c, 0, 34, 95
5, 502320, Note_on_c, 0, 33, 95
5, 502560, Note_off_c, 0, 33, 95
5, 502560, Note_on_c, 0, 31, 95
5, 502800, Note_off_c, 0, 31, 95
5, 502800, Note_on_c, 0, 30, 95
5, 503040, Note_off_c, 0, 30, 95
5, 503040, Note_on_c, 0, 29, 95
5, 503280, Note_off_c, 0, 29, 95
5, 503280, Note_on_c, 0, 28, 95
5, 503520, Note_off_c, 0, 28, 95
5, 503520, Note_on_c, 0, 36, 95
5, 503760, Note_off_c, 0, 36, 95
5, 503760, Note_on_c, 0, 36, 95
5, 504000, Note_off_c, 0, 36, 95
5, 504000, Note_on_c, 0, 36, 95
5, 504240, Note_off_c, 0, 36, 95
5, 504240, Note_on_c, 0, 36, 95
5, 504960, Note_off_c, 0, 36, 95
5, 504960, Note_on_c, 0, 36, 95
5, 505200, Note_off_c, 0, 36, 95
5, 505200, Note_on_c, 0, 36, 95
5, 505440, Note_off_c, 0, 36, 95
5, 505440, Note_on_c, 0, 28, 95
5, 505491, Note_off_c, 0, 28, 95
5, 505680, Note_on_c, 0, 36, 95
5, 505920, Note_off_c, 0, 36, 95
5, 505920, Note_on_c, 0, 28, 95
5, 505971, Note_off_c, 0, 28, 95
5, 506160, Note_on_c, 0, 36, 95
5, 506400, Note_off_c, 0, 36, 95
5, 506400, Note_on_c, 0, 36, 95
5, 506640, Note_off_c, 0, 36, 95
5, 506640, Note_on_c, 0, 36, 95
5, 506880, Note_off_c, 0, 36, 95
5, 506880, Note_on_c, 0, 28, 95
5, 506931, Note_off_c, 0, 28, 95
5, 507120, Note_on_c, 0, 28, 95
5, 507171, Note_off_c, 0, 28, 95
5, 507360, Note_on_c, 0, 36, 95
5, 507600, Note_off_c, 0, 36, 95
5, 507600, Note_on_c, 0, 36, 95
5, 507840, Note_off_c, 0, 36, 95
5, 507840, Note_on_c, 0, 36, 95
5, 508080, Note_off_c, 0, 36, 95
5, 508080, Note_on_c, 0, 36, 95
5, 508800, Note_off_c, 0, 36, 95
5, 509520, Note_on_c, 0, 36, 95
5, 510480, Note_off_c, 0, 36, 95
5, 510480, Note_on_c, 0, 31, 95
5, 510720, Note_off_c, 0, 31, 95
5, 511200, Note_on_c, 0, 36, 95
5, 511440, Note_off_c, 0, 36, 95
5, 511440, Note_on_c, 0, 36, 95
5, 511680, Note_off_c, 0, 36, 95
5, 511680, Note_on_c, 0, 36, 95
5, 511920, Note_off_c, 0, 36, 95
5, 511920, Note_on_c, 0, 36, 95
5, 512640, Note_off_c, 0, 36, 95
5, 512640, Note_on_c, 0, 36, 95
5, 512880, Note_off_c, 0, 36, 95
5, 512880, Note_on_c, 0, 36, 95
5, 513120, Note_off_c, 0, 36, 95
5, 513120, Note_on_c, 0, 28, 95
5, 513171, Note_off_c, 0, 28, 95
5, 513360, Note_on_c, 0, 36, 95
5, 513600, Note_off_c, 0, 36, 95
5, 513600, Note_on_c, 0, 28, 95
5, 513651, Note_off_c, 0, 28, 95
5, 513840, Note_on_c, 0, 28, 95
5, 513891, Note_off_c, 0, 28, 95
5, 514080, Note_on_c, 0, 36, 95
5, 514320, Note_off_c, 0, 36, 95
5, 514320, Note_on_c, 0, 36, 95
5, 514560, Note_off_c, 0, 36, 95
5, 514560, Note_on_c, 0, 28, 95
5, 514611, Note_off_c, 0, 28, 95
5, 514800, Note_on_c, 0, 28, 95
5, 514851, Note_off_c, 0, 28, 95
5, 515040, Note_on_c, 0, 36, 95
5, 515280, Note_off_c, 0, 36, 95
5, 515280, Note_on_c, 0, 36, 95
5, 515520, Note_off_c, 0, 36, 95
5, 515520, Note_on_c, 0, 36, 95
5, 515760, Note_off_c, 0, 36, 95
5, 515760, Note_on_c, 0, 36, 95
5, 516480, Note_off_c, 0, 36, 95
5, 516960, Note_on_c, 0, 48, 95
5, 517200, Note_off_c, 0, 48, 95
5, 517200, Note_on_c, 0, 46, 95
5, 517440, Note_off_c, 0, 46, 95
5, 517440, Note_on_c, 0, 43, 95
5, 517680, Note_off_c, 0, 43, 95
5, 517680, Note_on_c, 0, 42, 95
5, 517920, Note_off_c, 0, 42, 95
5, 517920, Note_on_c, 0, 41, 95
5, 518080, Note_off_c, 0, 41, 95
5, 518080, Note_on_c, 0, 42, 95
5, 518240, Note_off_c, 0, 42, 95
5, 518240, Note_on_c, 0, 41, 95
5, 518400, Note_off_c, 0, 41, 95
5, 518400, Note_on_c, 0, 39, 95
5, 518640, Note_off_c, 0, 39, 95
5, 518640, Note_on_c, 0, 36, 95
5, 518880, Note_off_c, 0, 36, 95
5, 518880, Note_on_c, 0, 34, 95
5, 519120, Note_off_c, 0, 34, 95
5, 519120, Note_on_c, 1, 36, 95
5, 519280, Pitch_bend_c, 1, 8192
5, 519440, Pitch_bend_c, 1, 8320
5, 519600, Pitch_bend_c, 1, 8192
5, 519760, Pitch_bend_c, 1, 8320
5, 519920, Pitch_bend_c, 1, 8192
5, 520080, Pitch_bend_c, 1, 8320
5, 520080, Pitch_bend_c, 1, 8192
5, 520080, Note_off_c, 1, 36, 95
5, 520080, End_track
6, 0, Start_track
6, 0, Pitch_bend_c, 9, 8192
6, 0, Control_c, 9, 7, 95
6, 0, Control_c, 9, 10, 63
6, 0, Control_c, 9, 93, 0
6, 0, Control_c, 9, 91, 0
6, 0, Control_c, 9, 95, 0
6, 0, Control_c, 9, 92, 0
6, 0, Control_c, 9, 11, 127
6, 0, Program_c, 9, 0
6, 0, Note_on_c, 9, 46, 95
6, 960, Note_off_c, 9, 46, 95
6, 960, Note_on_c, 9, 46, 95
6, 1920, Note_off_c, 9, 46, 95
6, 1920, Note_on_c, 9, 46, 95
6, 2880, Note_off_c, 9, 46, 95
6, 3840, Note_on_c, 9, 46, 15
6, 4800, Note_off_c, 9, 46, 15
6, 5760, Note_on_c, 9, 46, 15
6, 6720, Note_off_c, 9, 46, 15
6, 7680, Note_on_c, 9, 46, 15
6, 8640, Note_off_c, 9, 46, 15
6, 9600, Note_on_c, 9, 46, 15
6, 10560, Note_off_c, 9, 46, 15
6, 11520, Note_on_c, 9, 46, 15
6, 12480, Note_off_c, 9, 46, 15
6, 13440, Note_on_c, 9, 46, 15
6, 14400, Note_off_c, 9, 46, 15
6, 15360, Note_on_c, 9, 46, 15
6, 16320, Note_off_c, 9, 46, 15
6, 17040, Note_on_c, 9, 45, 95
6, 17120, Note_off_c, 9, 45, 95
6, 17120, Note_on_c, 9, 45, 95
6, 17200, Note_off_c, 9, 45, 95
6, 17200, Note_on_c, 9, 45, 95
6, 17280, Note_off_c, 9, 45, 95
6, 17280, Note_on_c, 9, 57, 95
6, 17280, Note_on_c, 9, 40, 95
6, 17280, Note_on_c, 9, 36, 95
6, 18240, Note_off_c, 9, 57, 95
6, 18240, Note_off_c, 9, 40, 95
6, 18240, Note_off_c, 9, 36, 95
6, 18240, Note_on_c, 9, 52, 95
6, 18240, Note_on_c, 9, 38, 95
6, 18480, Note_off_c, 9, 52, 95
6, 18480, Note_off_c, 9, 38, 95
6, 18720, Note_on_c, 9, 36, 95
6, 18960, Note_off_c, 9, 36, 95
6, 18960, Note_on_c, 9, 38, 95
6, 19200, Note_off_c, 9, 38, 95
6, 19680, Note_on_c, 9, 38, 95
6, 19920, Note_off_c, 9, 38, 95
6, 20160, Note_on_c, 9, 36, 95
6, 20400, Note_off_c, 9, 36, 95
6, 20400, Note_on_c, 9, 40, 95
6, 20640, Note_off_c, 9, 40, 95
6, 20640, Note_on_c, 9, 36, 95
6, 20880, Note_off_c, 9, 36, 95
6, 20880, Note_on_c, 9, 38, 95
6, 21120, Note_off_c, 9, 38, 95
6, 21120, Note_on_c, 9, 38, 95
6, 21360, Note_off_c, 9, 38, 95
6, 21360, Note_on_c, 9, 40, 95
6, 21600, Note_off_c, 9, 40, 95
6, 21600, Note_on_c, 9, 40, 95
6, 21840, Note_off_c, 9, 40, 95
6, 21840, Note_on_c, 9, 40, 95
6, 22080, Note_off_c, 9, 40, 95
6, 22080, Note_on_c, 9, 42, 95
6, 22080, Note_on_c, 9, 38, 95
6, 22320, Note_off_c, 9, 42, 95
6, 22320, Note_off_c, 9, 38, 95
6, 22560, Note_on_c, 9, 36, 95
6, 22800, Note_off_c, 9, 36, 95
6, 22800, Note_on_c, 9, 40, 95
6, 23040, Note_off_c, 9, 40, 95
6, 23520, Note_on_c, 9, 38, 95
6, 23760, Note_off_c, 9, 38, 95
6, 23760, Note_on_c, 9, 38, 95
6, 24000, Note_off_c, 9, 38, 95
6, 24000, Note_on_c, 9, 36, 95
6, 24240, Note_off_c, 9, 36, 95
6, 24240, Note_on_c, 9, 45, 95
6, 24480, Note_off_c, 9, 45, 95
6, 24480, Note_on_c, 9, 36, 95
6, 24720, Note_off_c, 9, 36, 95
6, 24720, Note_on_c, 9, 38, 95
6, 24960, Note_off_c, 9, 38, 95
6, 24960, Note_on_c, 9, 38, 95
6, 25200, Note_off_c, 9, 38, 95
6, 25200, Note_on_c, 9, 45, 95
6, 25440, Note_off_c, 9, 45, 95
6, 25440, Note_on_c, 9, 45, 95
6, 25680, Note_off_c, 9, 45, 95
6, 25680, Note_on_c, 9, 45, 95
6, 25920, Note_off_c, 9, 45, 95
6, 25920, Note_on_c, 9, 52, 95
6, 25920, Note_on_c, 9, 38, 95
6, 26160, Note_off_c, 9, 52, 95
6, 26160, Note_off_c, 9, 38, 95
6, 26400, Note_on_c, 9, 36, 95
6, 26640, Note_off_c, 9, 36, 95
6, 26640, Note_on_c, 9, 38, 95
6, 26880, Note_off_c, 9, 38, 95
6, 27360, Note_on_c, 9, 38, 95
6, 27600, Note_off_c, 9, 38, 95
6, 27840, Note_on_c, 9, 36, 95
6, 28080, Note_off_c, 9, 36, 95
6, 28080, Note_on_c, 9, 40, 95
6, 28320, Note_off_c, 9, 40, 95
6, 28320, Note_on_c, 9, 36, 95
6, 28560, Note_off_c, 9, 36, 95
6, 28560, Note_on_c, 9, 38, 95
6, 28800, Note_off_c, 9, 38, 95
6, 28800, Note_on_c, 9, 38, 95
6, 29040, Note_off_c, 9, 38, 95
6, 29040, Note_on_c, 9, 40, 95
6, 29280, Note_off_c, 9, 40, 95
6, 29280, Note_on_c, 9, 40, 95
6, 29520, Note_off_c, 9, 40, 95
6, 29520, Note_on_c, 9, 40, 95
6, 29760, Note_off_c, 9, 40, 95
6, 29760, Note_on_c, 9, 42, 95
6, 29760, Note_on_c, 9, 38, 95
6, 30000, Note_off_c, 9, 42, 95
6, 30000, Note_off_c, 9, 38, 95
6, 30240, Note_on_c, 9, 36, 95
6, 30480, Note_off_c, 9, 36, 95
6, 30480, Note_on_c, 9, 40, 95
6, 30720, Note_off_c, 9, 40, 95
6, 31200, Note_on_c, 9, 38, 95
6, 31440, Note_off_c, 9, 38, 95
6, 31440, Note_on_c, 9, 38, 95
6, 31680, Note_off_c, 9, 38, 95
6, 31680, Note_on_c, 9, 36, 95
6, 31920, Note_off_c, 9, 36, 95
6, 31920, Note_on_c, 9, 45, 95
6, 32160, Note_off_c, 9, 45, 95
6, 32160, Note_on_c, 9, 36, 95
6, 32400, Note_off_c, 9, 36, 95
6, 32400, Note_on_c, 9, 38, 95
6, 32640, Note_off_c, 9, 38, 95
6, 32640, Note_on_c, 9, 38, 95
6, 32880, Note_off_c, 9, 38, 95
6, 32880, Note_on_c, 9, 45, 95
6, 33120, Note_off_c, 9, 45, 95
6, 33120, Note_on_c, 9, 45, 95
6, 33360, Note_off_c, 9, 45, 95
6, 33360, Note_on_c, 9, 45, 95
6, 33600, Note_off_c, 9, 45, 95
6, 33600, Note_on_c, 9, 52, 95
6, 33600, Note_on_c, 9, 38, 95
6, 33840, Note_off_c, 9, 52, 95
6, 33840, Note_off_c, 9, 38, 95
6, 33840, Note_on_c, 9, 36, 95
6, 34080, Note_off_c, 9, 36, 95
6, 34080, Note_on_c, 9, 36, 95
6, 34320, Note_off_c, 9, 36, 95
6, 34320, Note_on_c, 9, 38, 95
6, 34560, Note_off_c, 9, 38, 95
6, 34560, Note_on_c, 9, 36, 95
6, 35040, Note_off_c, 9, 36, 95
6, 35040, Note_on_c, 9, 38, 95
6, 35280, Note_off_c, 9, 38, 95
6, 35520, Note_on_c, 9, 36, 95
6, 35760, Note_off_c, 9, 36, 95
6, 35760, Note_on_c, 9, 40, 95
6, 36000, Note_off_c, 9, 40, 95
6, 36000, Note_on_c, 9, 36, 95
6, 36240, Note_off_c, 9, 36, 95
6, 36240, Note_on_c, 9, 38, 95
6, 36480, Note_off_c, 9, 38, 95
6, 36480, Note_on_c, 9, 38, 95
6, 36720, Note_off_c, 9, 38, 95
6, 36720, Note_on_c, 9, 36, 95
6, 36960, Note_off_c, 9, 36, 95
6, 36960, Note_on_c, 9, 36, 95
6, 37200, Note_off_c, 9, 36, 95
6, 37200, Note_on_c, 9, 40, 95
6, 37440, Note_off_c, 9, 40, 95
6, 37440, Note_on_c, 9, 42, 95
6, 37440, Note_on_c, 9, 38, 95
6, 37680, Note_off_c, 9, 42, 95
6, 37680, Note_off_c, 9, 38, 95
6, 37920, Note_on_c, 9, 36, 95
6, 38160, Note_off_c, 9, 36, 95
6, 38160, Note_on_c, 9, 40, 95
6, 38400, Note_off_c, 9, 40, 95
6, 38880, Note_on_c, 9, 38, 95
6, 39120, Note_off_c, 9, 38, 95
6, 39120, Note_on_c, 9, 38, 95
6, 39360, Note_off_c, 9, 38, 95
6, 39360, Note_on_c, 9, 36, 95
6, 39600, Note_off_c, 9, 36, 95
6, 39600, Note_on_c, 9, 40, 95
6, 39840, Note_off_c, 9, 40, 95
6, 39840, Note_on_c, 9, 36, 95
6, 40080, Note_off_c, 9, 36, 95
6, 40080, Note_on_c, 9, 36, 95
6, 40320, Note_off_c, 9, 36, 95
6, 40320, Note_on_c, 9, 40, 95
6, 40560, Note_off_c, 9, 40, 95
6, 40560, Note_on_c, 9, 36, 95
6, 40800, Note_off_c, 9, 36, 95
6, 40800, Note_on_c, 9, 40, 95
6, 41040, Note_off_c, 9, 40, 95
6, 41040, Note_on_c, 9, 40, 95
6, 41280, Note_off_c, 9, 40, 95
6, 41280, Note_on_c, 9, 52, 95
6, 41280, Note_on_c, 9, 38, 95
6, 41520, Note_off_c, 9, 52, 95
6, 41520, Note_off_c, 9, 38, 95
6, 41520, Note_on_c, 9, 36, 95
6, 41760, Note_off_c, 9, 36, 95
6, 41760, Note_on_c, 9, 36, 95
6, 42000, Note_off_c, 9, 36, 95
6, 42000, Note_on_c, 9, 38, 95
6, 42240, Note_off_c, 9, 38, 95
6, 42240, Note_on_c, 9, 36, 95
6, 42720, Note_off_c, 9, 36, 95
6, 42720, Note_on_c, 9, 38, 95
6, 42960, Note_off_c, 9, 38, 95
6, 43200, Note_on_c, 9, 36, 95
6, 43440, Note_off_c, 9, 36, 95
6, 43440, Note_on_c, 9, 40, 95
6, 43680, Note_off_c, 9, 40, 95
6, 43680, Note_on_c, 9, 36, 95
6, 43920, Note_off_c, 9, 36, 95
6, 43920, Note_on_c, 9, 38, 95
6, 44160, Note_off_c, 9, 38, 95
6, 44160, Note_on_c, 9, 38, 95
6, 44400, Note_off_c, 9, 38, 95
6, 44400, Note_on_c, 9, 36, 95
6, 44640, Note_off_c, 9, 36, 95
6, 44640, Note_on_c, 9, 36, 95
6, 44880, Note_off_c, 9, 36, 95
6, 44880, Note_on_c, 9, 40, 95
6, 45120, Note_off_c, 9, 40, 95
6, 45120, Note_on_c, 9, 42, 95
6, 45120, Note_on_c, 9, 38, 95
6, 45360, Note_off_c, 9, 42, 95
6, 45360, Note_off_c, 9, 38, 95
6, 45600, Note_on_c, 9, 36, 95
6, 45840, Note_off_c, 9, 36, 95
6, 45840, Note_on_c, 9, 40, 95
6, 46080, Note_off_c, 9, 40, 95
6, 46560, Note_on_c, 9, 38, 95
6, 46800, Note_off_c, 9, 38, 95
6, 46800, Note_on_c, 9, 38, 95
6, 47040, Note_off_c, 9, 38, 95
6, 47040, Note_on_c, 9, 36, 95
6, 47280, Note_off_c, 9, 36, 95
6, 47280, Note_on_c, 9, 40, 95
6, 47520, Note_off_c, 9, 40, 95
6, 47520, Note_on_c, 9, 36, 95
6, 47760, Note_off_c, 9, 36, 95
6, 47760, Note_on_c, 9, 36, 95
6, 48000, Note_off_c, 9, 36, 95
6, 48000, Note_on_c, 9, 40, 95
6, 48240, Note_off_c, 9, 40, 95
6, 48240, Note_on_c, 9, 36, 95
6, 48480, Note_off_c, 9, 36, 95
6, 48480, Note_on_c, 9, 40, 95
6, 48720, Note_off_c, 9, 40, 95
6, 48720, Note_on_c, 9, 40, 95
6, 48960, Note_off_c, 9, 40, 95
6, 48960, Note_on_c, 9, 52, 95
6, 48960, Note_on_c, 9, 38, 95
6, 49200, Note_off_c, 9, 52, 95
6, 49200, Note_off_c, 9, 38, 95
6, 49200, Note_on_c, 9, 36, 95
6, 49440, Note_off_c, 9, 36, 95
6, 49440, Note_on_c, 9, 36, 95
6, 49680, Note_off_c, 9, 36, 95
6, 49680, Note_on_c, 9, 38, 95
6, 49920, Note_off_c, 9, 38, 95
6, 49920, Note_on_c, 9, 36, 95
6, 50400, Note_off_c, 9, 36, 95
6, 50400, Note_on_c, 9, 38, 95
6, 50640, Note_off_c, 9, 38, 95
6, 50880, Note_on_c, 9, 36, 95
6, 51120, Note_off_c, 9, 36, 95
6, 51120, Note_on_c, 9, 40, 95
6, 51360, Note_off_c, 9, 40, 95
6, 51360, Note_on_c, 9, 36, 95
6, 51600, Note_off_c, 9, 36, 95
6, 51600, Note_on_c, 9, 38, 95
6, 51840, Note_off_c, 9, 38, 95
6, 51840, Note_on_c, 9, 38, 95
6, 52080, Note_off_c, 9, 38, 95
6, 52080, Note_on_c, 9, 36, 95
6, 52320, Note_off_c, 9, 36, 95
6, 52320, Note_on_c, 9, 36, 95
6, 52560, Note_off_c, 9, 36, 95
6, 52560, Note_on_c, 9, 40, 95
6, 52800, Note_off_c, 9, 40, 95
6, 52800, Note_on_c, 9, 42, 95
6, 52800, Note_on_c, 9, 38, 95
6, 53040, Note_off_c, 9, 42, 95
6, 53040, Note_off_c, 9, 38, 95
6, 53280, Note_on_c, 9, 36, 95
6, 53520, Note_off_c, 9, 36, 95
6, 53520, Note_on_c, 9, 40, 95
6, 53760, Note_off_c, 9, 40, 95
6, 54240, Note_on_c, 9, 38, 95
6, 54480, Note_off_c, 9, 38, 95
6, 54480, Note_on_c, 9, 38, 95
6, 54720, Note_off_c, 9, 38, 95
6, 54720, Note_on_c, 9, 36, 95
6, 54960, Note_off_c, 9, 36, 95
6, 54960, Note_on_c, 9, 40, 95
6, 55200, Note_off_c, 9, 40, 95
6, 55200, Note_on_c, 9, 36, 95
6, 55440, Note_off_c, 9, 36, 95
6, 55440, Note_on_c, 9, 36, 95
6, 55680, Note_off_c, 9, 36, 95
6, 55680, Note_on_c, 9, 40, 95
6, 55920, Note_off_c, 9, 40, 95
6, 55920, Note_on_c, 9, 36, 95
6, 56160, Note_off_c, 9, 36, 95
6, 56160, Note_on_c, 9, 40, 95
6, 56400, Note_off_c, 9, 40, 95
6, 56400, Note_on_c, 9, 40, 95
6, 56640, Note_off_c, 9, 40, 95
6, 56640, Note_on_c, 9, 52, 95
6, 56640, Note_on_c, 9, 38, 95
6, 56880, Note_off_c, 9, 52, 95
6, 56880, Note_off_c, 9, 38, 95
6, 56880, Note_on_c, 9, 36, 95
6, 57120, Note_off_c, 9, 36, 95
6, 57120, Note_on_c, 9, 36, 95
6, 57360, Note_off_c, 9, 36, 95
6, 57360, Note_on_c, 9, 38, 95
6, 57600, Note_off_c, 9, 38, 95
6, 57600, Note_on_c, 9, 36, 95
6, 58080, Note_off_c, 9, 36, 95
6, 58080, Note_on_c, 9, 38, 95
6, 58320, Note_off_c, 9, 38, 95
6, 58560, Note_on_c, 9, 36, 95
6, 58800, Note_off_c, 9, 36, 95
6, 58800, Note_on_c, 9, 40, 95
6, 59040, Note_off_c, 9, 40, 95
6, 59040, Note_on_c, 9, 36, 95
6, 59280, Note_off_c, 9, 36, 95
6, 59280, Note_on_c, 9, 38, 95
6, 59520, Note_off_c, 9, 38, 95
6, 59520, Note_on_c, 9, 38, 95
6, 59760, Note_off_c, 9, 38, 95
6, 59760, Note_on_c, 9, 36, 95
6, 60000, Note_off_c, 9, 36, 95
6, 60000, Note_on_c, 9, 36, 95
6, 60240, Note_off_c, 9, 36, 95
6, 60240, Note_on_c, 9, 40, 95
6, 60480, Note_off_c, 9, 40, 95
6, 60480, Note_on_c, 9, 52, 95
6, 60480, Note_on_c, 9, 38, 95
6, 60720, Note_off_c, 9, 52, 95
6, 60720, Note_off_c, 9, 38, 95
6, 60960, Note_on_c, 9, 36, 95
6, 61200, Note_off_c, 9, 36, 95
6, 61200, Note_on_c, 9, 40, 95
6, 61440, Note_off_c, 9, 40, 95
6, 61920, Note_on_c, 9, 38, 95
6, 62160, Note_off_c, 9, 38, 95
6, 62160, Note_on_c, 9, 38, 95
6, 62400, Note_off_c, 9, 38, 95
6, 62400, Note_on_c, 9, 36, 95
6, 62640, Note_off_c, 9, 36, 95
6, 62640, Note_on_c, 9, 40, 95
6, 62880, Note_off_c, 9, 40, 95
6, 62880, Note_on_c, 9, 36, 95
6, 63120, Note_off_c, 9, 36, 95
6, 63120, Note_on_c, 9, 36, 95
6, 63360, Note_off_c, 9, 36, 95
6, 63360, Note_on_c, 9, 40, 95
6, 63600, Note_off_c, 9, 40, 95
6, 63600, Note_on_c, 9, 36, 95
6, 63840, Note_off_c, 9, 36, 95
6, 63840, Note_on_c, 9, 40, 95
6, 64080, Note_off_c, 9, 40, 95
6, 64080, Note_on_c, 9, 40, 95
6, 64320, Note_off_c, 9, 40, 95
6, 64320, Note_on_c, 9, 42, 95
6, 64320, Note_on_c, 9, 38, 95
6, 64560, Note_off_c, 9, 42, 95
6, 64560, Note_off_c, 9, 38, 95
6, 64560, Note_on_c, 9, 36, 95
6, 64800, Note_off_c, 9, 36, 95
6, 64800, Note_on_c, 9, 36, 95
6, 65040, Note_off_c, 9, 36, 95
6, 65040, Note_on_c, 9, 38, 95
6, 65280, Note_off_c, 9, 38, 95
6, 65280, Note_on_c, 9, 36, 95
6, 65760, Note_off_c, 9, 36, 95
6, 65760, Note_on_c, 9, 38, 95
6, 66000, Note_off_c, 9, 38, 95
6, 66240, Note_on_c, 9, 36, 95
6, 66480, Note_off_c, 9, 36, 95
6, 66480, Note_on_c, 9, 40, 95
6, 66720, Note_off_c, 9, 40, 95
6, 66720, Note_on_c, 9, 36, 95
6, 66960, Note_off_c, 9, 36, 95
6, 66960, Note_on_c, 9, 38, 95
6, 67200, Note_off_c, 9, 38, 95
6, 67200, Note_on_c, 9, 38, 95
6, 67440, Note_off_c, 9, 38, 95
6, 67440, Note_on_c, 9, 36, 95
6, 67680, Note_off_c, 9, 36, 95
6, 67680, Note_on_c, 9, 36, 95
6, 67920, Note_off_c, 9, 36, 95
6, 67920, Note_on_c, 9, 40, 95
6, 68160, Note_off_c, 9, 40, 95
6, 68160, Note_on_c, 9, 52, 95
6, 68160, Note_on_c, 9, 38, 95
6, 68400, Note_off_c, 9, 52, 95
6, 68400, Note_off_c, 9, 38, 95
6, 68640, Note_on_c, 9, 36, 95
6, 68880, Note_off_c, 9, 36, 95
6, 68880, Note_on_c, 9, 40, 95
6, 69120, Note_off_c, 9, 40, 95
6, 69600, Note_on_c, 9, 38, 95
6, 69840, Note_off_c, 9, 38, 95
6, 69840, Note_on_c, 9, 38, 95
6, 70080, Note_off_c, 9, 38, 95
6, 70080, Note_on_c, 9, 36, 95
6, 70320, Note_off_c, 9, 36, 95
6, 70320, Note_on_c, 9, 40, 95
6, 70560, Note_off_c, 9, 40, 95
6, 70560, Note_on_c, 9, 36, 95
6, 70800, Note_off_c, 9, 36, 95
6, 70800, Note_on_c, 9, 36, 95
6, 71040, Note_off_c, 9, 36, 95
6, 71040, Note_on_c, 9, 40, 95
6, 71280, Note_off_c, 9, 40, 95
6, 71280, Note_on_c, 9, 36, 95
6, 71520, Note_off_c, 9, 36, 95
6, 71520, Note_on_c, 9, 40, 95
6, 71760, Note_off_c, 9, 40, 95
6, 71760, Note_on_c, 9, 40, 95
6, 72000, Note_off_c, 9, 40, 95
6, 72000, Note_on_c, 9, 52, 95
6, 72000, Note_on_c, 9, 38, 95
6, 72240, Note_off_c, 9, 52, 95
6, 72240, Note_off_c, 9, 38, 95
6, 72240, Note_on_c, 9, 36, 95
6, 72480, Note_off_c, 9, 36, 95
6, 72480, Note_on_c, 9, 36, 95
6, 72720, Note_off_c, 9, 36, 95
6, 72720, Note_on_c, 9, 38, 95
6, 72960, Note_off_c, 9, 38, 95
6, 72960, Note_on_c, 9, 36, 95
6, 73440, Note_off_c, 9, 36, 95
6, 73440, Note_on_c, 9, 38, 95
6, 73680, Note_off_c, 9, 38, 95
6, 73920, Note_on_c, 9, 36, 95
6, 74160, Note_off_c, 9, 36, 95
6, 74160, Note_on_c, 9, 40, 95
6, 74400, Note_off_c, 9, 40, 95
6, 74400, Note_on_c, 9, 36, 95
6, 74640, Note_off_c, 9, 36, 95
6, 74640, Note_on_c, 9, 38, 95
6, 74880, Note_off_c, 9, 38, 95
6, 74880, Note_on_c, 9, 38, 95
6, 75120, Note_off_c, 9, 38, 95
6, 75120, Note_on_c, 9, 36, 95
6, 75360, Note_off_c, 9, 36, 95
6, 75360, Note_on_c, 9, 36, 95
6, 75600, Note_off_c, 9, 36, 95
6, 75600, Note_on_c, 9, 40, 95
6, 75840, Note_off_c, 9, 40, 95
6, 75840, Note_on_c, 9, 42, 95
6, 75840, Note_on_c, 9, 38, 95
6, 76080, Note_off_c, 9, 42, 95
6, 76080, Note_off_c, 9, 38, 95
6, 76320, Note_on_c, 9, 36, 95
6, 76560, Note_off_c, 9, 36, 95
6, 76560, Note_on_c, 9, 40, 95
6, 76800, Note_off_c, 9, 40, 95
6, 77280, Note_on_c, 9, 38, 95
6, 77520, Note_off_c, 9, 38, 95
6, 77520, Note_on_c, 9, 38, 95
6, 77760, Note_off_c, 9, 38, 95
6, 77760, Note_on_c, 9, 36, 95
6, 78000, Note_off_c, 9, 36, 95
6, 78000, Note_on_c, 9, 40, 95
6, 78240, Note_off_c, 9, 40, 95
6, 78240, Note_on_c, 9, 36, 95
6, 78480, Note_off_c, 9, 36, 95
6, 78480, Note_on_c, 9, 36, 95
6, 78720, Note_off_c, 9, 36, 95
6, 78720, Note_on_c, 9, 40, 95
6, 78960, Note_off_c, 9, 40, 95
6, 78960, Note_on_c, 9, 36, 95
6, 79200, Note_off_c, 9, 36, 95
6, 79200, Note_on_c, 9, 40, 95
6, 79440, Note_off_c, 9, 40, 95
6, 79440, Note_on_c, 9, 40, 95
6, 79680, Note_off_c, 9, 40, 95
6, 79680, Note_on_c, 9, 36, 95
6, 79920, Note_off_c, 9, 36, 95
6, 80160, Note_on_c, 9, 36, 95
6, 80400, Note_off_c, 9, 36, 95
6, 80400, Note_on_c, 9, 36, 95
6, 80640, Note_off_c, 9, 36, 95
6, 80640, Note_on_c, 9, 40, 95
6, 80880, Note_off_c, 9, 40, 95
6, 80880, Note_on_c, 9, 45, 95
6, 81120, Note_off_c, 9, 45, 95
6, 81360, Note_on_c, 9, 36, 95
6, 81600, Note_off_c, 9, 36, 95
6, 81600, Note_on_c, 9, 36, 95
6, 81840, Note_off_c, 9, 36, 95
6, 82080, Note_on_c, 9, 36, 95
6, 82320, Note_off_c, 9, 36, 95
6, 82320, Note_on_c, 9, 36, 95
6, 82560, Note_off_c, 9, 36, 95
6, 82560, Note_on_c, 9, 40, 95
6, 82800, Note_off_c, 9, 40, 95
6, 82800, Note_on_c, 9, 45, 95
6, 83040, Note_off_c, 9, 45, 95
6, 83280, Note_on_c, 9, 36, 95
6, 83520, Note_off_c, 9, 36, 95
6, 83520, Note_on_c, 9, 36, 95
6, 83760, Note_off_c, 9, 36, 95
6, 84000, Note_on_c, 9, 36, 95
6, 84240, Note_off_c, 9, 36, 95
6, 84240, Note_on_c, 9, 36, 95
6, 84480, Note_off_c, 9, 36, 95
6, 84480, Note_on_c, 9, 40, 95
6, 84720, Note_off_c, 9, 40, 95
6, 84720, Note_on_c, 9, 45, 95
6, 84960, Note_off_c, 9, 45, 95
6, 84960, Note_on_c, 9, 36, 95
6, 85200, Note_off_c, 9, 36, 95
6, 85440, Note_on_c, 9, 36, 95
6, 85680, Note_off_c, 9, 36, 95
6, 85680, Note_on_c, 9, 36, 95
6, 85920, Note_off_c, 9, 36, 95
6, 85920, Note_on_c, 9, 38, 95
6, 86160, Note_off_c, 9, 38, 95
6, 86160, Note_on_c, 9, 36, 95
6, 86400, Note_off_c, 9, 36, 95
6, 86400, Note_on_c, 9, 38, 95
6, 86640, Note_off_c, 9, 38, 95
6, 86880, Note_on_c, 9, 38, 95
6, 87120, Note_off_c, 9, 38, 95
6, 87120, Note_on_c, 9, 38, 95
6, 87360, Note_off_c, 9, 38, 95
6, 87360, Note_on_c, 9, 38, 95
6, 87840, Note_off_c, 9, 38, 95
6, 88080, Note_on_c, 9, 40, 95
6, 88560, Note_off_c, 9, 40, 95
6, 88800, Note_on_c, 9, 38, 95
6, 89280, Note_off_c, 9, 38, 95
6, 89520, Note_on_c, 9, 40, 95
6, 90000, Note_off_c, 9, 40, 95
6, 90240, Note_on_c, 9, 38, 95
6, 90720, Note_off_c, 9, 38, 95
6, 90720, Note_on_c, 9, 40, 95
6, 90960, Note_off_c, 9, 40, 95
6, 90960, Note_on_c, 9, 40, 95
6, 91200, Note_off_c, 9, 40, 95
6, 91200, Note_on_c, 9, 38, 95
6, 91920, Note_off_c, 9, 38, 95
6, 91920, Note_on_c, 9, 40, 95
6, 92640, Note_off_c, 9, 40, 95
6, 92640, Note_on_c, 9, 38, 95
6, 93360, Note_off_c, 9, 38, 95
6, 93360, Note_on_c, 9, 40, 95
6, 94080, Note_off_c, 9, 40, 95
6, 94080, Note_on_c, 9, 40, 95
6, 94240, Note_off_c, 9, 40, 95
6, 94240, Note_on_c, 9, 40, 95
6, 94400, Note_off_c, 9, 40, 95
6, 94400, Note_on_c, 9, 40, 95
6, 94560, Note_off_c, 9, 40, 95
6, 94560, Note_on_c, 9, 38, 95
6, 94720, Note_off_c, 9, 38, 95
6, 94720, Note_on_c, 9, 38, 95
6, 94880, Note_off_c, 9, 38, 95
6, 94880, Note_on_c, 9, 38, 95
6, 95040, Note_off_c, 9, 38, 95
6, 95040, Note_on_c, 9, 40, 95
6, 95280, Note_off_c, 9, 40, 95
6, 95280, Note_on_c, 9, 36, 47
6, 95520, Note_off_c, 9, 36, 47
6, 95520, Note_on_c, 9, 36, 95
6, 95760, Note_off_c, 9, 36, 95
6, 95760, Note_on_c, 9, 36, 95
6, 96000, Note_off_c, 9, 36, 95
6, 96000, Note_on_c, 9, 40, 95
6, 96240, Note_off_c, 9, 40, 95
6, 96240, Note_on_c, 9, 36, 47
6, 96480, Note_off_c, 9, 36, 47
6, 96480, Note_on_c, 9, 36, 95
6, 96720, Note_off_c, 9, 36, 95
6, 96720, Note_on_c, 9, 36, 95
6, 96960, Note_off_c, 9, 36, 95
6, 96960, Note_on_c, 9, 40, 95
6, 97200, Note_off_c, 9, 40, 95
6, 97200, Note_on_c, 9, 36, 47
6, 97440, Note_off_c, 9, 36, 47
6, 97440, Note_on_c, 9, 36, 95
6, 97680, Note_off_c, 9, 36, 95
6, 97680, Note_on_c, 9, 36, 95
6, 97920, Note_off_c, 9, 36, 95
6, 97920, Note_on_c, 9, 40, 95
6, 98160, Note_off_c, 9, 40, 95
6, 98160, Note_on_c, 9, 36, 47
6, 98400, Note_off_c, 9, 36, 47
6, 98400, Note_on_c, 9, 36, 95
6, 98640, Note_off_c, 9, 36, 95
6, 98640, Note_on_c, 9, 36, 95
6, 98880, Note_off_c, 9, 36, 95
6, 98880, Note_on_c, 9, 40, 95
6, 99120, Note_off_c, 9, 40, 95
6, 99120, Note_on_c, 9, 36, 47
6, 99360, Note_off_c, 9, 36, 47
6, 99360, Note_on_c, 9, 36, 95
6, 99600, Note_off_c, 9, 36, 95
6, 99600, Note_on_c, 9, 36, 95
6, 99840, Note_off_c, 9, 36, 95
6, 99840, Note_on_c, 9, 40, 95
6, 100080, Note_off_c, 9, 40, 95
6, 100080, Note_on_c, 9, 36, 47
6, 100320, Note_off_c, 9, 36, 47
6, 100320, Note_on_c, 9, 36, 95
6, 100560, Note_off_c, 9, 36, 95
6, 100560, Note_on_c, 9, 36, 95
6, 100800, Note_off_c, 9, 36, 95
6, 100800, Note_on_c, 9, 40, 95
6, 101040, Note_off_c, 9, 40, 95
6, 101040, Note_on_c, 9, 36, 47
6, 101280, Note_off_c, 9, 36, 47
6, 101280, Note_on_c, 9, 36, 95
6, 101520, Note_off_c, 9, 36, 95
6, 101520, Note_on_c, 9, 36, 95
6, 101760, Note_off_c, 9, 36, 95
6, 101760, Note_on_c, 9, 40, 95
6, 102000, Note_off_c, 9, 40, 95
6, 102000, Note_on_c, 9, 36, 47
6, 102240, Note_off_c, 9, 36, 47
6, 102240, Note_on_c, 9, 36, 95
6, 102480, Note_off_c, 9, 36, 95
6, 102480, Note_on_c, 9, 36, 95
6, 102720, Note_off_c, 9, 36, 95
6, 102720, Note_on_c, 9, 40, 95
6, 102960, Note_off_c, 9, 40, 95
6, 102960, Note_on_c, 9, 36, 47
6, 103200, Note_off_c, 9, 36, 47
6, 103200, Note_on_c, 9, 36, 95
6, 103440, Note_off_c, 9, 36, 95
6, 103440, Note_on_c, 9, 36, 95
6, 103680, Note_off_c, 9, 36, 95
6, 103680, Note_on_c, 9, 40, 95
6, 103920, Note_off_c, 9, 40, 95
6, 103920, Note_on_c, 9, 36, 47
6, 104160, Note_off_c, 9, 36, 47
6, 104160, Note_on_c, 9, 36, 95
6, 104400, Note_off_c, 9, 36, 95
6, 104400, Note_on_c, 9, 36, 95
6, 104640, Note_off_c, 9, 36, 95
6, 104640, Note_on_c, 9, 40, 95
6, 104880, Note_off_c, 9, 40, 95
6, 104880, Note_on_c, 9, 36, 47
6, 105120, Note_off_c, 9, 36, 47
6, 105120, Note_on_c, 9, 36, 95
6, 105360, Note_off_c, 9, 36, 95
6, 105360, Note_on_c, 9, 36, 95
6, 105600, Note_off_c, 9, 36, 95
6, 105600, Note_on_c, 9, 40, 95
6, 105840, Note_off_c, 9, 40, 95
6, 105840, Note_on_c, 9, 36, 47
6, 106080, Note_off_c, 9, 36, 47
6, 106080, Note_on_c, 9, 36, 95
6, 106320, Note_off_c, 9, 36, 95
6, 106320, Note_on_c, 9, 36, 95
6, 106560, Note_off_c, 9, 36, 95
6, 106560, Note_on_c, 9, 40, 95
6, 106800, Note_off_c, 9, 40, 95
6, 106800, Note_on_c, 9, 36, 47
6, 107040, Note_off_c, 9, 36, 47
6, 107040, Note_on_c, 9, 36, 95
6, 107280, Note_off_c, 9, 36, 95
6, 107280, Note_on_c, 9, 36, 95
6, 107520, Note_off_c, 9, 36, 95
6, 107520, Note_on_c, 9, 40, 95
6, 107760, Note_off_c, 9, 40, 95
6, 107760, Note_on_c, 9, 36, 47
6, 108000, Note_off_c, 9, 36, 47
6, 108000, Note_on_c, 9, 36, 95
6, 108240, Note_off_c, 9, 36, 95
6, 108240, Note_on_c, 9, 36, 95
6, 108480, Note_off_c, 9, 36, 95
6, 108480, Note_on_c, 9, 40, 95
6, 108720, Note_off_c, 9, 40, 95
6, 108720, Note_on_c, 9, 36, 47
6, 108960, Note_off_c, 9, 36, 47
6, 108960, Note_on_c, 9, 36, 95
6, 109200, Note_off_c, 9, 36, 95
6, 109200, Note_on_c, 9, 36, 95
6, 109440, Note_off_c, 9, 36, 95
6, 109440, Note_on_c, 9, 40, 95
6, 109680, Note_off_c, 9, 40, 95
6, 109680, Note_on_c, 9, 36, 47
6, 109920, Note_off_c, 9, 36, 47
6, 109920, Note_on_c, 9, 36, 95
6, 110160, Note_off_c, 9, 36, 95
6, 110160, Note_on_c, 9, 36, 95
6, 110400, Note_off_c, 9, 36, 95
6, 110400, Note_on_c, 9, 40, 95
6, 110640, Note_off_c, 9, 40, 95
6, 110640, Note_on_c, 9, 36, 95
6, 110880, Note_off_c, 9, 36, 95
6, 110880, Note_on_c, 9, 36, 95
6, 111120, Note_off_c, 9, 36, 95
6, 111120, Note_on_c, 9, 36, 95
6, 111360, Note_off_c, 9, 36, 95
6, 111360, Note_on_c, 9, 40, 95
6, 111600, Note_off_c, 9, 40, 95
6, 111600, Note_on_c, 9, 36, 95
6, 111840, Note_off_c, 9, 36, 95
6, 111840, Note_on_c, 9, 36, 95
6, 112080, Note_off_c, 9, 36, 95
6, 112080, Note_on_c, 9, 36, 95
6, 112320, Note_off_c, 9, 36, 95
6, 112320, Note_on_c, 9, 40, 95
6, 112560, Note_off_c, 9, 40, 95
6, 112560, Note_on_c, 9, 36, 95
6, 112800, Note_off_c, 9, 36, 95
6, 112800, Note_on_c, 9, 36, 95
6, 113040, Note_off_c, 9, 36, 95
6, 113040, Note_on_c, 9, 36, 95
6, 113280, Note_off_c, 9, 36, 95
6, 113280, Note_on_c, 9, 40, 95
6, 113520, Note_off_c, 9, 40, 95
6, 113520, Note_on_c, 9, 36, 95
6, 113760, Note_off_c, 9, 36, 95
6, 113760, Note_on_c, 9, 36, 95
6, 114000, Note_off_c, 9, 36, 95
6, 114000, Note_on_c, 9, 36, 95
6, 114240, Note_off_c, 9, 36, 95
6, 114240, Note_on_c, 9, 40, 95
6, 114480, Note_off_c, 9, 40, 95
6, 114480, Note_on_c, 9, 36, 95
6, 114720, Note_off_c, 9, 36, 95
6, 114720, Note_on_c, 9, 36, 95
6, 114960, Note_off_c, 9, 36, 95
6, 114960, Note_on_c, 9, 36, 95
6, 115200, Note_off_c, 9, 36, 95
6, 115200, Note_on_c, 9, 40, 95
6, 115440, Note_off_c, 9, 40, 95
6, 115440, Note_on_c, 9, 36, 95
6, 115680, Note_off_c, 9, 36, 95
6, 115680, Note_on_c, 9, 36, 95
6, 115920, Note_off_c, 9, 36, 95
6, 115920, Note_on_c, 9, 36, 95
6, 116160, Note_off_c, 9, 36, 95
6, 116160, Note_on_c, 9, 40, 95
6, 116400, Note_off_c, 9, 40, 95
6, 116400, Note_on_c, 9, 36, 95
6, 116640, Note_off_c, 9, 36, 95
6, 116640, Note_on_c, 9, 36, 95
6, 116880, Note_off_c, 9, 36, 95
6, 116880, Note_on_c, 9, 36, 95
6, 117120, Note_off_c, 9, 36, 95
6, 117120, Note_on_c, 9, 40, 95
6, 117360, Note_off_c, 9, 40, 95
6, 117360, Note_on_c, 9, 36, 95
6, 117600, Note_off_c, 9, 36, 95
6, 117600, Note_on_c, 9, 36, 95
6, 117840, Note_off_c, 9, 36, 95
6, 117840, Note_on_c, 9, 36, 95
6, 118080, Note_off_c, 9, 36, 95
6, 118080, Note_on_c, 9, 38, 95
6, 118560, Note_off_c, 9, 38, 95
6, 118560, Note_on_c, 9, 42, 95
6, 118560, Note_on_c, 9, 40, 95
6, 118800, Note_off_c, 9, 42, 95
6, 118800, Note_off_c, 9, 40, 95
6, 118800, Note_on_c, 9, 40, 95
6, 119280, Note_off_c, 9, 40, 95
6, 119520, Note_on_c, 9, 38, 95
6, 120000, Note_off_c, 9, 38, 95
6, 120000, Note_on_c, 9, 42, 95
6, 120000, Note_on_c, 9, 40, 95
6, 120240, Note_off_c, 9, 42, 95
6, 120240, Note_off_c, 9, 40, 95
6, 120240, Note_on_c, 9, 40, 95
6, 120720, Note_off_c, 9, 40, 95
6, 120960, Note_on_c, 9, 38, 95
6, 121440, Note_off_c, 9, 38, 95
6, 121440, Note_on_c, 9, 42, 95
6, 121440, Note_on_c, 9, 40, 95
6, 121680, Note_off_c, 9, 42, 95
6, 121680, Note_off_c, 9, 40, 95
6, 121680, Note_on_c, 9, 40, 95
6, 121920, Note_off_c, 9, 40, 95
6, 121920, Note_on_c, 9, 40, 95
6, 122400, Note_off_c, 9, 40, 95
6, 122400, Note_on_c, 9, 42, 95
6, 122400, Note_on_c, 9, 38, 95
6, 122640, Note_off_c, 9, 42, 95
6, 122640, Note_off_c, 9, 38, 95
6, 122640, Note_on_c, 9, 40, 95
6, 123120, Note_off_c, 9, 40, 95
6, 123120, Note_on_c, 9, 42, 95
6, 123120, Note_on_c, 9, 38, 95
6, 123360, Note_off_c, 9, 42, 95
6, 123360, Note_off_c, 9, 38, 95
6, 123360, Note_on_c, 9, 40, 95
6, 123840, Note_off_c, 9, 40, 95
6, 123840, Note_on_c, 9, 42, 95
6, 123840, Note_on_c, 9, 38, 95
6, 124080, Note_off_c, 9, 42, 95
6, 124080, Note_off_c, 9, 38, 95
6, 124080, Note_on_c, 9, 40, 95
6, 124560, Note_off_c, 9, 40, 95
6, 124560, Note_on_c, 9, 42, 95
6, 124560, Note_on_c, 9, 38, 95
6, 124800, Note_off_c, 9, 42, 95
6, 124800, Note_off_c, 9, 38, 95
6, 124800, Note_on_c, 9, 40, 95
6, 125040, Note_off_c, 9, 40, 95
6, 125280, Note_on_c, 9, 40, 95
6, 125520, Note_off_c, 9, 40, 95
6, 125520, Note_on_c, 9, 40, 95
6, 125760, Note_off_c, 9, 40, 95
6, 125760, Note_on_c, 9, 59, 95
6, 125760, Note_on_c, 9, 46, 95
6, 126240, Note_off_c, 9, 59, 95
6, 126240, Note_off_c, 9, 46, 95
6, 126240, Note_on_c, 9, 59, 95
6, 126240, Note_on_c, 9, 46, 95
6, 126720, Note_off_c, 9, 59, 95
6, 126720, Note_off_c, 9, 46, 95
6, 126720, Note_on_c, 9, 49, 95
6, 126720, Note_on_c, 9, 40, 95
6, 126720, Note_on_c, 9, 36, 95
6, 127200, Note_off_c, 9, 49, 95
6, 127200, Note_off_c, 9, 40, 95
6, 127200, Note_off_c, 9, 36, 95
6, 127200, Note_on_c, 9, 59, 95
6, 127200, Note_on_c, 9, 46, 95
6, 127680, Note_off_c, 9, 59, 95
6, 127680, Note_off_c, 9, 46, 95
6, 127680, Note_on_c, 9, 59, 95
6, 127680, Note_on_c, 9, 46, 95
6, 128160, Note_off_c, 9, 59, 95
6, 128160, Note_off_c, 9, 46, 95
6, 128160, Note_on_c, 9, 59, 95
6, 128160, Note_on_c, 9, 46, 95
6, 128640, Note_off_c, 9, 59, 95
6, 128640, Note_off_c, 9, 46, 95
6, 128640, Note_on_c, 9, 49, 95
6, 128640, Note_on_c, 9, 40, 95
6, 128640, Note_on_c, 9, 36, 95
6, 129120, Note_off_c, 9, 49, 95
6, 129120, Note_off_c, 9, 40, 95
6, 129120, Note_off_c, 9, 36, 95
6, 129120, Note_on_c, 9, 46, 95
6, 129600, Note_off_c, 9, 46, 95
6, 129600, Note_on_c, 9, 59, 95
6, 129600, Note_on_c, 9, 46, 95
6, 130080, Note_off_c, 9, 59, 95
6, 130080, Note_off_c, 9, 46, 95
6, 130080, Note_on_c, 9, 59, 95
6, 130080, Note_on_c, 9, 46, 95
6, 130560, Note_off_c, 9, 59, 95
6, 130560, Note_off_c, 9, 46, 95
6, 130560, Note_on_c, 9, 49, 95
6, 130560, Note_on_c, 9, 40, 95
6, 130560, Note_on_c, 9, 36, 95
6, 131040, Note_off_c, 9, 49, 95
6, 131040, Note_off_c, 9, 40, 95
6, 131040, Note_off_c, 9, 36, 95
6, 131040, Note_on_c, 9, 59, 95
6, 131040, Note_on_c, 9, 46, 95
6, 131520, Note_off_c, 9, 59, 95
6, 131520, Note_off_c, 9, 46, 95
6, 131520, Note_on_c, 9, 40, 95
6, 131760, Note_off_c, 9, 40, 95
6, 131760, Note_on_c, 9, 38, 95
6, 131920, Note_off_c, 9, 38, 95
6, 131920, Note_on_c, 9, 38, 95
6, 132080, Note_off_c, 9, 38, 95
6, 132080, Note_on_c, 9, 38, 95
6, 132240, Note_off_c, 9, 38, 95
6, 132240, Note_on_c, 9, 38, 95
6, 132480, Note_off_c, 9, 38, 95
6, 132480, Note_on_c, 9, 45, 95
6, 132640, Note_off_c, 9, 45, 95
6, 132640, Note_on_c, 9, 45, 95
6, 132800, Note_off_c, 9, 45, 95
6, 132800, Note_on_c, 9, 45, 95
6, 132960, Note_off_c, 9, 45, 95
6, 132960, Note_on_c, 9, 43, 95
6, 133120, Note_off_c, 9, 43, 95
6, 133120, Note_on_c, 9, 43, 95
6, 133280, Note_off_c, 9, 43, 95
6, 133280, Note_on_c, 9, 43, 95
6, 133440, Note_off_c, 9, 43, 95
6, 133440, Note_on_c, 9, 49, 95
6, 134400, Note_off_c, 9, 49, 95
6, 134400, Note_on_c, 9, 42, 95
6, 134400, Note_on_c, 9, 36, 95
6, 134880, Note_off_c, 9, 42, 95
6, 134880, Note_off_c, 9, 36, 95
6, 134880, Note_on_c, 9, 42, 95
6, 134880, Note_on_c, 9, 36, 95
6, 135360, Note_off_c, 9, 42, 95
6, 135360, Note_off_c, 9, 36, 95
6, 135360, Note_on_c, 9, 42, 95
6, 135360, Note_on_c, 9, 40, 95
6, 136320, Note_off_c, 9, 42, 95
6, 136320, Note_off_c, 9, 40, 95
6, 136320, Note_on_c, 9, 42, 95
6, 136800, Note_off_c, 9, 42, 95
6, 136800, Note_on_c, 9, 42, 95
6, 136800, Note_on_c, 9, 40, 95
6, 137040, Note_off_c, 9, 42, 95
6, 137040, Note_off_c, 9, 40, 95
6, 137040, Note_on_c, 9, 42, 95
6, 137040, Note_on_c, 9, 43, 95
6, 137280, Note_off_c, 9, 42, 95
6, 137280, Note_off_c, 9, 43, 95
6, 137280, Note_on_c, 9, 42, 95
6, 137280, Note_on_c, 9, 36, 95
6, 137760, Note_off_c, 9, 42, 95
6, 137760, Note_off_c, 9, 36, 95
6, 137760, Note_on_c, 9, 42, 95
6, 138240, Note_off_c, 9, 42, 95
6, 138240, Note_on_c, 9, 42, 95
6, 138720, Note_off_c, 9, 42, 95
6, 138720, Note_on_c, 9, 42, 95
6, 139200, Note_off_c, 9, 42, 95
6, 139200, Note_on_c, 9, 42, 95
6, 139200, Note_on_c, 9, 40, 95
6, 140160, Note_off_c, 9, 42, 95
6, 140160, Note_off_c, 9, 40, 95
6, 140160, Note_on_c, 9, 42, 95
6, 140640, Note_off_c, 9, 42, 95
6, 140640, Note_on_c, 9, 42, 95
6, 140640, Note_on_c, 9, 40, 95
6, 140880, Note_off_c, 9, 42, 95
6, 140880, Note_off_c, 9, 40, 95
6, 140880, Note_on_c, 9, 42, 95
6, 140880, Note_on_c, 9, 43, 95
6, 141120, Note_off_c, 9, 42, 95
6, 141120, Note_off_c, 9, 43, 95
6, 141120, Note_on_c, 9, 46, 95
6, 141120, Note_on_c, 9, 42, 95
6, 141120, Note_on_c, 9, 36, 95
6, 142080, Note_off_c, 9, 46, 95
6, 142080, Note_off_c, 9, 42, 95
6, 142080, Note_off_c, 9, 36, 95
6, 142080, Note_on_c, 9, 42, 95
6, 142080, Note_on_c, 9, 36, 95
6, 142560, Note_off_c, 9, 42, 95
6, 142560, Note_off_c, 9, 36, 95
6, 142560, Note_on_c, 9, 42, 95
6, 142560, Note_on_c, 9, 36, 95
6, 143040, Note_off_c, 9, 42, 95
6, 143040, Note_off_c, 9, 36, 95
6, 143040, Note_on_c, 9, 42, 95
6, 143040, Note_on_c, 9, 40, 95
6, 144000, Note_off_c, 9, 42, 95
6, 144000, Note_off_c, 9, 40, 95
6, 144000, Note_on_c, 9, 42, 95
6, 144480, Note_off_c, 9, 42, 95
6, 144480, Note_on_c, 9, 42, 95
6, 144480, Note_on_c, 9, 40, 95
6, 144720, Note_off_c, 9, 42, 95
6, 144720, Note_off_c, 9, 40, 95
6, 144720, Note_on_c, 9, 42, 95
6, 144720, Note_on_c, 9, 43, 95
6, 144960, Note_off_c, 9, 42, 95
6, 144960, Note_off_c, 9, 43, 95
6, 144960, Note_on_c, 9, 42, 95
6, 144960, Note_on_c, 9, 40, 95
6, 144960, Note_on_c, 9, 36, 95
6, 145440, Note_off_c, 9, 42, 95
6, 145440, Note_off_c, 9, 40, 95
6, 145440, Note_off_c, 9, 36, 95
6, 145440, Note_on_c, 9, 42, 95
6, 145440, Note_on_c, 9, 40, 95
6, 145440, Note_on_c, 9, 36, 95
6, 145920, Note_off_c, 9, 42, 95
6, 145920, Note_off_c, 9, 40, 95
6, 145920, Note_off_c, 9, 36, 95
6, 146400, Note_on_c, 9, 47, 95
6, 146400, Note_on_c, 9, 45, 95
6, 146400, Note_on_c, 9, 36, 95
6, 146880, Note_off_c, 9, 47, 95
6, 146880, Note_off_c, 9, 45, 95
6, 146880, Note_off_c, 9, 36, 95
6, 146880, Note_on_c, 9, 42, 95
6, 146880, Note_on_c, 9, 40, 95
6, 146880, Note_on_c, 9, 36, 95
6, 147360, Note_off_c, 9, 42, 95
6, 147360, Note_off_c, 9, 40, 95
6, 147360, Note_off_c, 9, 36, 95
6, 147600, Note_on_c, 9, 42, 95
6, 147600, Note_on_c, 9, 40, 95
6, 147600, Note_on_c, 9, 36, 95
6, 147840, Note_off_c, 9, 42, 95
6, 147840, Note_off_c, 9, 40, 95
6, 147840, Note_off_c, 9, 36, 95
6, 147840, Note_on_c, 9, 42, 95
6, 147840, Note_on_c, 9, 40, 95
6, 148320, Note_off_c, 9, 42, 95
6, 148320, Note_off_c, 9, 40, 95
6, 148320, Note_on_c, 9, 42, 95
6, 148320, Note_on_c, 9, 40, 95
6, 148320, Note_on_c, 9, 36, 95
6, 148560, Note_off_c, 9, 42, 95
6, 148560, Note_off_c, 9, 40, 95
6, 148560, Note_off_c, 9, 36, 95
6, 148560, Note_on_c, 9, 42, 95
6, 148560, Note_on_c, 9, 40, 95
6, 148560, Note_on_c, 9, 36, 95
6, 148800, Note_off_c, 9, 42, 95
6, 148800, Note_off_c, 9, 40, 95
6, 148800, Note_off_c, 9, 36, 95
6, 148800, Note_on_c, 9, 42, 95
6, 148800, Note_on_c, 9, 36, 95
6, 149280, Note_off_c, 9, 42, 95
6, 149280, Note_off_c, 9, 36, 95
6, 149280, Note_on_c, 9, 42, 95
6, 149280, Note_on_c, 9, 36, 95
6, 149760, Note_off_c, 9, 42, 95
6, 149760, Note_off_c, 9, 36, 95
6, 149760, Note_on_c, 9, 46, 95
6, 149760, Note_on_c, 9, 40, 95
6, 150240, Note_off_c, 9, 46, 95
6, 150240, Note_off_c, 9, 40, 95
6, 150240, Note_on_c, 9, 36, 95
6, 150480, Note_off_c, 9, 36, 95
6, 150480, Note_on_c, 9, 36, 95
6, 150720, Note_off_c, 9, 36, 95
6, 150720, Note_on_c, 9, 42, 95
6, 150720, Note_on_c, 9, 36, 95
6, 151200, Note_off_c, 9, 42, 95
6, 151200, Note_off_c, 9, 36, 95
6, 151200, Note_on_c, 9, 42, 95
6, 151200, Note_on_c, 9, 36, 95
6, 151680, Note_off_c, 9, 42, 95
6, 151680, Note_off_c, 9, 36, 95
6, 151680, Note_on_c, 9, 46, 95
6, 151680, Note_on_c, 9, 40, 95
6, 152160, Note_off_c, 9, 46, 95
6, 152160, Note_off_c, 9, 40, 95
6, 152160, Note_on_c, 9, 36, 95
6, 152640, Note_off_c, 9, 36, 95
6, 152640, Note_on_c, 9, 36, 95
6, 153120, Note_off_c, 9, 36, 95
6, 153120, Note_on_c, 9, 36, 95
6, 153600, Note_off_c, 9, 36, 95
6, 153600, Note_on_c, 9, 46, 95
6, 153600, Note_on_c, 9, 40, 95
6, 154080, Note_off_c, 9, 46, 95
6, 154080, Note_off_c, 9, 40, 95
6, 154080, Note_on_c, 9, 36, 95
6, 154320, Note_off_c, 9, 36, 95
6, 154320, Note_on_c, 9, 36, 95
6, 154560, Note_off_c, 9, 36, 95
6, 154560, Note_on_c, 9, 36, 95
6, 155040, Note_off_c, 9, 36, 95
6, 155040, Note_on_c, 9, 36, 95
6, 155520, Note_off_c, 9, 36, 95
6, 155520, Note_on_c, 9, 46, 95
6, 155520, Note_on_c, 9, 40, 95
6, 156000, Note_off_c, 9, 46, 95
6, 156000, Note_off_c, 9, 40, 95
6, 156000, Note_on_c, 9, 36, 95
6, 156480, Note_off_c, 9, 36, 95
6, 156480, Note_on_c, 9, 40, 31
6, 156960, Note_off_c, 9, 40, 31
6, 156960, Note_on_c, 9, 40, 31
6, 157440, Note_off_c, 9, 40, 31
6, 157440, Note_on_c, 9, 40, 47
6, 157920, Note_off_c, 9, 40, 47
6, 157920, Note_on_c, 9, 40, 47
6, 158400, Note_off_c, 9, 40, 47
6, 158400, Note_on_c, 9, 40, 47
6, 158880, Note_off_c, 9, 40, 47
6, 158880, Note_on_c, 9, 40, 47
6, 159360, Note_off_c, 9, 40, 47
6, 159360, Note_on_c, 9, 40, 79
6, 159840, Note_off_c, 9, 40, 79
6, 159840, Note_on_c, 9, 40, 79
6, 160320, Note_off_c, 9, 40, 79
6, 160320, Note_on_c, 9, 40, 95
6, 160800, Note_off_c, 9, 40, 95
6, 160800, Note_on_c, 9, 40, 95
6, 161280, Note_off_c, 9, 40, 95
6, 161280, Note_on_c, 9, 40, 111
6, 161760, Note_off_c, 9, 40, 111
6, 161760, Note_on_c, 9, 40, 111
6, 162240, Note_off_c, 9, 40, 111
6, 162240, Note_on_c, 9, 40, 111
6, 162480, Note_off_c, 9, 40, 111
6, 162480, Note_on_c, 9, 40, 95
6, 162640, Note_off_c, 9, 40, 95
6, 162640, Note_on_c, 9, 40, 95
6, 162800, Note_off_c, 9, 40, 95
6, 162800, Note_on_c, 9, 40, 95
6, 162960, Note_off_c, 9, 40, 95
6, 162960, Note_on_c, 9, 40, 95
6, 163200, Note_off_c, 9, 40, 95
6, 163200, Note_on_c, 9, 48, 95
6, 163440, Note_off_c, 9, 48, 95
6, 163440, Note_on_c, 9, 48, 95
6, 163680, Note_off_c, 9, 48, 95
6, 163680, Note_on_c, 9, 45, 95
6, 163920, Note_off_c, 9, 45, 95
6, 163920, Note_on_c, 9, 45, 95
6, 164160, Note_off_c, 9, 45, 95
6, 164160, Note_on_c, 9, 52, 95
6, 164160, Note_on_c, 9, 38, 95
6, 164400, Note_off_c, 9, 52, 95
6, 164400, Note_off_c, 9, 38, 95
6, 164640, Note_on_c, 9, 36, 95
6, 164880, Note_off_c, 9, 36, 95
6, 164880, Note_on_c, 9, 38, 95
6, 165120, Note_off_c, 9, 38, 95
6, 165600, Note_on_c, 9, 38, 95
6, 165840, Note_off_c, 9, 38, 95
6, 166080, Note_on_c, 9, 36, 95
6, 166320, Note_off_c, 9, 36, 95
6, 166320, Note_on_c, 9, 40, 95
6, 166560, Note_off_c, 9, 40, 95
6, 166560, Note_on_c, 9, 36, 95
6, 166800, Note_off_c, 9, 36, 95
6, 166800, Note_on_c, 9, 38, 95
6, 167040, Note_off_c, 9, 38, 95
6, 167040, Note_on_c, 9, 38, 95
6, 167280, Note_off_c, 9, 38, 95
6, 167280, Note_on_c, 9, 40, 95
6, 167520, Note_off_c, 9, 40, 95
6, 167520, Note_on_c, 9, 40, 95
6, 167760, Note_off_c, 9, 40, 95
6, 167760, Note_on_c, 9, 40, 95
6, 168000, Note_off_c, 9, 40, 95
6, 168000, Note_on_c, 9, 42, 95
6, 168000, Note_on_c, 9, 38, 95
6, 168240, Note_off_c, 9, 42, 95
6, 168240, Note_off_c, 9, 38, 95
6, 168480, Note_on_c, 9, 36, 95
6, 168720, Note_off_c, 9, 36, 95
6, 168720, Note_on_c, 9, 40, 95
6, 168960, Note_off_c, 9, 40, 95
6, 169440, Note_on_c, 9, 38, 95
6, 169680, Note_off_c, 9, 38, 95
6, 169680, Note_on_c, 9, 38, 95
6, 169920, Note_off_c, 9, 38, 95
6, 169920, Note_on_c, 9, 36, 95
6, 170160, Note_off_c, 9, 36, 95
6, 170160, Note_on_c, 9, 45, 95
6, 170400, Note_off_c, 9, 45, 95
6, 170400, Note_on_c, 9, 36, 95
6, 170640, Note_off_c, 9, 36, 95
6, 170640, Note_on_c, 9, 38, 95
6, 170880, Note_off_c, 9, 38, 95
6, 170880, Note_on_c, 9, 38, 95
6, 171120, Note_off_c, 9, 38, 95
6, 171120, Note_on_c, 9, 45, 95
6, 171360, Note_off_c, 9, 45, 95
6, 171360, Note_on_c, 9, 45, 95
6, 171600, Note_off_c, 9, 45, 95
6, 171600, Note_on_c, 9, 45, 95
6, 171840, Note_off_c, 9, 45, 95
6, 171840, Note_on_c, 9, 52, 95
6, 171840, Note_on_c, 9, 38, 95
6, 172080, Note_off_c, 9, 52, 95
6, 172080, Note_off_c, 9, 38, 95
6, 172320, Note_on_c, 9, 36, 95
6, 172560, Note_off_c, 9, 36, 95
6, 172560, Note_on_c, 9, 38, 95
6, 172800, Note_off_c, 9, 38, 95
6, 173280, Note_on_c, 9, 38, 95
6, 173520, Note_off_c, 9, 38, 95
6, 173760, Note_on_c, 9, 36, 95
6, 174000, Note_off_c, 9, 36, 95
6, 174000, Note_on_c, 9, 40, 95
6, 174240, Note_off_c, 9, 40, 95
6, 174240, Note_on_c, 9, 36, 95
6, 174480, Note_off_c, 9, 36, 95
6, 174480, Note_on_c, 9, 38, 95
6, 174720, Note_off_c, 9, 38, 95
6, 174720, Note_on_c, 9, 38, 95
6, 174960, Note_off_c, 9, 38, 95
6, 174960, Note_on_c, 9, 40, 95
6, 175200, Note_off_c, 9, 40, 95
6, 175200, Note_on_c, 9, 40, 95
6, 175440, Note_off_c, 9, 40, 95
6, 175440, Note_on_c, 9, 40, 95
6, 175680, Note_off_c, 9, 40, 95
6, 175680, Note_on_c, 9, 42, 95
6, 175680, Note_on_c, 9, 38, 95
6, 175920, Note_off_c, 9, 42, 95
6, 175920, Note_off_c, 9, 38, 95
6, 176160, Note_on_c, 9, 36, 95
6, 176400, Note_off_c, 9, 36, 95
6, 176400, Note_on_c, 9, 40, 95
6, 176640, Note_off_c, 9, 40, 95
6, 177120, Note_on_c, 9, 38, 95
6, 177360, Note_off_c, 9, 38, 95
6, 177360, Note_on_c, 9, 38, 95
6, 177600, Note_off_c, 9, 38, 95
6, 177600, Note_on_c, 9, 36, 95
6, 177840, Note_off_c, 9, 36, 95
6, 177840, Note_on_c, 9, 45, 95
6, 178080, Note_off_c, 9, 45, 95
6, 178080, Note_on_c, 9, 36, 95
6, 178320, Note_off_c, 9, 36, 95
6, 178320, Note_on_c, 9, 38, 95
6, 178560, Note_off_c, 9, 38, 95
6, 178560, Note_on_c, 9, 38, 95
6, 178800, Note_off_c, 9, 38, 95
6, 178800, Note_on_c, 9, 45, 95
6, 179040, Note_off_c, 9, 45, 95
6, 179040, Note_on_c, 9, 45, 95
6, 179280, Note_off_c, 9, 45, 95
6, 179280, Note_on_c, 9, 45, 95
6, 179520, Note_off_c, 9, 45, 95
6, 179520, Note_on_c, 9, 52, 95
6, 179520, Note_on_c, 9, 38, 95
6, 179760, Note_off_c, 9, 52, 95
6, 179760, Note_off_c, 9, 38, 95
6, 180000, Note_on_c, 9, 36, 95
6, 180240, Note_off_c, 9, 36, 95
6, 180240, Note_on_c, 9, 38, 95
6, 180480, Note_off_c, 9, 38, 95
6, 180960, Note_on_c, 9, 38, 95
6, 181200, Note_off_c, 9, 38, 95
6, 181440, Note_on_c, 9, 36, 95
6, 181680, Note_off_c, 9, 36, 95
6, 181680, Note_on_c, 9, 40, 95
6, 181920, Note_off_c, 9, 40, 95
6, 181920, Note_on_c, 9, 36, 95
6, 182160, Note_off_c, 9, 36, 95
6, 182160, Note_on_c, 9, 38, 95
6, 182400, Note_off_c, 9, 38, 95
6, 182400, Note_on_c, 9, 38, 95
6, 182640, Note_off_c, 9, 38, 95
6, 182640, Note_on_c, 9, 40, 95
6, 182880, Note_off_c, 9, 40, 95
6, 182880, Note_on_c, 9, 40, 95
6, 183120, Note_off_c, 9, 40, 95
6, 183120, Note_on_c, 9, 40, 95
6, 183360, Note_off_c, 9, 40, 95
6, 183360, Note_on_c, 9, 42, 95
6, 183360, Note_on_c, 9, 38, 95
6, 183600, Note_off_c, 9, 42, 95
6, 183600, Note_off_c, 9, 38, 95
6, 183840, Note_on_c, 9, 36, 95
6, 184080, Note_off_c, 9, 36, 95
6, 184080, Note_on_c, 9, 40, 95
6, 184320, Note_off_c, 9, 40, 95
6, 184800, Note_on_c, 9, 38, 95
6, 185040, Note_off_c, 9, 38, 95
6, 185280, Note_on_c, 9, 36, 95
6, 185520, Note_off_c, 9, 36, 95
6, 185520, Note_on_c, 9, 45, 95
6, 185760, Note_off_c, 9, 45, 95
6, 185760, Note_on_c, 9, 36, 95
6, 186000, Note_off_c, 9, 36, 95
6, 186000, Note_on_c, 9, 38, 95
6, 186240, Note_off_c, 9, 38, 95
6, 186240, Note_on_c, 9, 38, 95
6, 186480, Note_off_c, 9, 38, 95
6, 186480, Note_on_c, 9, 45, 95
6, 186720, Note_off_c, 9, 45, 95
6, 186720, Note_on_c, 9, 45, 95
6, 186960, Note_off_c, 9, 45, 95
6, 186960, Note_on_c, 9, 45, 95
6, 187200, Note_off_c, 9, 45, 95
6, 187200, Note_on_c, 9, 52, 95
6, 187200, Note_on_c, 9, 38, 95
6, 187440, Note_off_c, 9, 52, 95
6, 187440, Note_off_c, 9, 38, 95
6, 187680, Note_on_c, 9, 36, 95
6, 187920, Note_off_c, 9, 36, 95
6, 187920, Note_on_c, 9, 38, 95
6, 188160, Note_off_c, 9, 38, 95
6, 188640, Note_on_c, 9, 38, 95
6, 188880, Note_off_c, 9, 38, 95
6, 189120, Note_on_c, 9, 36, 95
6, 189360, Note_off_c, 9, 36, 95
6, 189360, Note_on_c, 9, 40, 95
6, 189600, Note_off_c, 9, 40, 95
6, 189600, Note_on_c, 9, 36, 95
6, 189840, Note_off_c, 9, 36, 95
6, 189840, Note_on_c, 9, 38, 95
6, 190080, Note_off_c, 9, 38, 95
6, 190080, Note_on_c, 9, 38, 95
6, 190320, Note_off_c, 9, 38, 95
6, 190320, Note_on_c, 9, 40, 95
6, 190560, Note_off_c, 9, 40, 95
6, 190560, Note_on_c, 9, 40, 95
6, 190800, Note_off_c, 9, 40, 95
6, 190800, Note_on_c, 9, 40, 95
6, 191040, Note_off_c, 9, 40, 95
6, 191040, Note_on_c, 9, 42, 95
6, 191040, Note_on_c, 9, 38, 95
6, 191280, Note_off_c, 9, 42, 95
6, 191280, Note_off_c, 9, 38, 95
6, 191520, Note_on_c, 9, 36, 95
6, 191760, Note_off_c, 9, 36, 95
6, 191760, Note_on_c, 9, 40, 95
6, 192000, Note_off_c, 9, 40, 95
6, 192480, Note_on_c, 9, 38, 95
6, 192720, Note_off_c, 9, 38, 95
6, 192720, Note_on_c, 9, 38, 95
6, 192960, Note_off_c, 9, 38, 95
6, 192960, Note_on_c, 9, 36, 95
6, 193200, Note_off_c, 9, 36, 95
6, 193200, Note_on_c, 9, 45, 95
6, 193440, Note_off_c, 9, 45, 95
6, 193440, Note_on_c, 9, 36, 95
6, 193680, Note_off_c, 9, 36, 95
6, 193680, Note_on_c, 9, 38, 95
6, 193920, Note_off_c, 9, 38, 95
6, 193920, Note_on_c, 9, 38, 95
6, 194160, Note_off_c, 9, 38, 95
6, 194160, Note_on_c, 9, 45, 95
6, 194400, Note_off_c, 9, 45, 95
6, 194400, Note_on_c, 9, 45, 95
6, 194640, Note_off_c, 9, 45, 95
6, 194640, Note_on_c, 9, 45, 95
6, 194880, Note_off_c, 9, 45, 95
6, 194880, Note_on_c, 9, 52, 95
6, 194880, Note_on_c, 9, 38, 95
6, 194880, Note_on_c, 9, 36, 95
6, 195120, Note_off_c, 9, 52, 95
6, 195120, Note_off_c, 9, 38, 95
6, 195120, Note_off_c, 9, 36, 95
6, 195120, Note_on_c, 9, 52, 95
6, 195120, Note_on_c, 9, 38, 95
6, 195120, Note_on_c, 9, 36, 95
6, 195360, Note_off_c, 9, 52, 95
6, 195360, Note_off_c, 9, 38, 95
6, 195360, Note_off_c, 9, 36, 95
6, 196320, Note_on_c, 9, 56, 95
6, 196320, Note_on_c, 9, 33, 95
6, 196320, Note_on_c, 9, 36, 95
6, 196560, Note_off_c, 9, 56, 95
6, 196560, Note_off_c, 9, 33, 95
6, 196560, Note_off_c, 9, 36, 95
6, 196560, Note_on_c, 9, 56, 95
6, 196560, Note_on_c, 9, 33, 95
6, 196560, Note_on_c, 9, 36, 95
6, 196800, Note_off_c, 9, 56, 95
6, 196800, Note_off_c, 9, 33, 95
6, 196800, Note_off_c, 9, 36, 95
6, 197040, Note_on_c, 9, 56, 95
6, 197040, Note_on_c, 9, 33, 95
6, 197040, Note_on_c, 9, 36, 95
6, 197160, Note_off_c, 9, 56, 95
6, 197160, Note_off_c, 9, 33, 95
6, 197160, Note_off_c, 9, 36, 95
6, 197160, Note_on_c, 9, 56, 95
6, 197160, Note_on_c, 9, 33, 95
6, 197160, Note_on_c, 9, 36, 95
6, 197280, Note_off_c, 9, 56, 95
6, 197280, Note_off_c, 9, 33, 95
6, 197280, Note_off_c, 9, 36, 95
6, 197280, Note_on_c, 9, 56, 95
6, 197280, Note_on_c, 9, 33, 95
6, 197280, Note_on_c, 9, 36, 95
6, 197520, Note_off_c, 9, 56, 95
6, 197520, Note_off_c, 9, 33, 95
6, 197520, Note_off_c, 9, 36, 95
6, 197520, Note_on_c, 9, 56, 95
6, 197520, Note_on_c, 9, 33, 95
6, 197520, Note_on_c, 9, 36, 95
6, 197760, Note_off_c, 9, 56, 95
6, 197760, Note_off_c, 9, 33, 95
6, 197760, Note_off_c, 9, 36, 95
6, 197760, Note_on_c, 9, 52, 95
6, 197760, Note_on_c, 9, 38, 95
6, 197760, Note_on_c, 9, 36, 95
6, 198000, Note_off_c, 9, 52, 95
6, 198000, Note_off_c, 9, 38, 95
6, 198000, Note_off_c, 9, 36, 95
6, 198000, Note_on_c, 9, 52, 95
6, 198000, Note_on_c, 9, 38, 95
6, 198000, Note_on_c, 9, 36, 95
6, 198240, Note_off_c, 9, 52, 95
6, 198240, Note_off_c, 9, 38, 95
6, 198240, Note_off_c, 9, 36, 95
6, 198720, Note_on_c, 9, 52, 95
6, 198720, Note_on_c, 9, 38, 95
6, 198720, Note_on_c, 9, 36, 95
6, 198960, Note_off_c, 9, 52, 95
6, 198960, Note_off_c, 9, 38, 95
6, 198960, Note_off_c, 9, 36, 95
6, 198960, Note_on_c, 9, 52, 95
6, 198960, Note_on_c, 9, 38, 95
6, 198960, Note_on_c, 9, 36, 95
6, 199200, Note_off_c, 9, 52, 95
6, 199200, Note_off_c, 9, 38, 95
6, 199200, Note_off_c, 9, 36, 95
6, 199680, Note_on_c, 9, 63, 95
6, 199680, Note_on_c, 9, 33, 95
6, 199680, Note_on_c, 9, 36, 95
6, 200040, Note_off_c, 9, 63, 95
6, 200040, Note_off_c, 9, 33, 95
6, 200040, Note_off_c, 9, 36, 95
6, 200040, Note_on_c, 9, 63, 95
6, 200040, Note_on_c, 9, 33, 95
6, 200040, Note_on_c, 9, 36, 95
6, 200400, Note_off_c, 9, 63, 95
6, 200400, Note_off_c, 9, 33, 95
6, 200400, Note_off_c, 9, 36, 95
6, 200400, Note_on_c, 9, 63, 95
6, 200400, Note_on_c, 9, 33, 95
6, 200400, Note_on_c, 9, 36, 95
6, 200640, Note_off_c, 9, 63, 95
6, 200640, Note_off_c, 9, 33, 95
6, 200640, Note_off_c, 9, 36, 95
6, 200640, Note_on_c, 9, 63, 95
6, 200640, Note_on_c, 9, 33, 95
6, 200640, Note_on_c, 9, 36, 95
6, 200760, Note_off_c, 9, 63, 95
6, 200760, Note_off_c, 9, 33, 95
6, 200760, Note_off_c, 9, 36, 95
6, 200760, Note_on_c, 9, 63, 95
6, 200760, Note_on_c, 9, 33, 95
6, 200760, Note_on_c, 9, 36, 95
6, 200880, Note_off_c, 9, 63, 95
6, 200880, Note_off_c, 9, 33, 95
6, 200880, Note_off_c, 9, 36, 95
6, 200880, Note_on_c, 9, 63, 95
6, 200880, Note_on_c, 9, 33, 95
6, 200880, Note_on_c, 9, 36, 95
6, 201000, Note_off_c, 9, 63, 95
6, 201000, Note_off_c, 9, 33, 95
6, 201000, Note_off_c, 9, 36, 95
6, 201000, Note_on_c, 9, 63, 95
6, 201000, Note_on_c, 9, 33, 95
6, 201000, Note_on_c, 9, 36, 95
6, 201120, Note_off_c, 9, 63, 95
6, 201120, Note_off_c, 9, 33, 95
6, 201120, Note_off_c, 9, 36, 95
6, 201120, Note_on_c, 9, 63, 95
6, 201120, Note_on_c, 9, 33, 95
6, 201120, Note_on_c, 9, 36, 95
6, 201360, Note_off_c, 9, 63, 95
6, 201360, Note_off_c, 9, 33, 95
6, 201360, Note_off_c, 9, 36, 95
6, 201360, Note_on_c, 9, 63, 95
6, 201360, Note_on_c, 9, 33, 95
6, 201360, Note_on_c, 9, 36, 95
6, 201440, Note_off_c, 9, 63, 95
6, 201440, Note_off_c, 9, 33, 95
6, 201440, Note_off_c, 9, 36, 95
6, 201440, Note_on_c, 9, 63, 95
6, 201440, Note_on_c, 9, 33, 95
6, 201440, Note_on_c, 9, 36, 95
6, 201520, Note_off_c, 9, 63, 95
6, 201520, Note_off_c, 9, 33, 95
6, 201520, Note_off_c, 9, 36, 95
6, 201520, Note_on_c, 9, 63, 95
6, 201520, Note_on_c, 9, 33, 95
6, 201520, Note_on_c, 9, 36, 95
6, 201600, Note_off_c, 9, 63, 95
6, 201600, Note_off_c, 9, 33, 95
6, 201600, Note_off_c, 9, 36, 95
6, 201600, Note_on_c, 9, 52, 95
6, 201600, Note_on_c, 9, 38, 95
6, 201600, Note_on_c, 9, 36, 95
6, 201840, Note_off_c, 9, 52, 95
6, 201840, Note_off_c, 9, 38, 95
6, 201840, Note_off_c, 9, 36, 95
6, 201840, Note_on_c, 9, 52, 95
6, 201840, Note_on_c, 9, 38, 95
6, 201840, Note_on_c, 9, 36, 95
6, 202080, Note_off_c, 9, 52, 95
6, 202080, Note_off_c, 9, 38, 95
6, 202080, Note_off_c, 9, 36, 95
6, 202560, Note_on_c, 9, 52, 95
6, 202560, Note_on_c, 9, 38, 95
6, 202560, Note_on_c, 9, 36, 95
6, 202800, Note_off_c, 9, 52, 95
6, 202800, Note_off_c, 9, 38, 95
6, 202800, Note_off_c, 9, 36, 95
6, 202800, Note_on_c, 9, 52, 95
6, 202800, Note_on_c, 9, 38, 95
6, 202800, Note_on_c, 9, 36, 95
6, 203040, Note_off_c, 9, 52, 95
6, 203040, Note_off_c, 9, 38, 95
6, 203040, Note_off_c, 9, 36, 95
6, 203520, Note_on_c, 9, 50, 95
6, 203520, Note_on_c, 9, 40, 95
6, 203520, Note_on_c, 9, 36, 95
6, 203640, Note_off_c, 9, 50, 95
6, 203640, Note_off_c, 9, 40, 95
6, 203640, Note_off_c, 9, 36, 95
6, 203640, Note_on_c, 9, 50, 95
6, 203640, Note_on_c, 9, 40, 95
6, 203640, Note_on_c, 9, 36, 95
6, 203760, Note_off_c, 9, 50, 95
6, 203760, Note_off_c, 9, 40, 95
6, 203760, Note_off_c, 9, 36, 95
6, 203760, Note_on_c, 9, 50, 95
6, 203760, Note_on_c, 9, 40, 95
6, 203760, Note_on_c, 9, 36, 95
6, 203880, Note_off_c, 9, 50, 95
6, 203880, Note_off_c, 9, 40, 95
6, 203880, Note_off_c, 9, 36, 95
6, 203880, Note_on_c, 9, 50, 95
6, 203880, Note_on_c, 9, 40, 95
6, 203880, Note_on_c, 9, 36, 95
6, 204000, Note_off_c, 9, 50, 95
6, 204000, Note_off_c, 9, 40, 95
6, 204000, Note_off_c, 9, 36, 95
6, 204000, Note_on_c, 9, 50, 95
6, 204000, Note_on_c, 9, 40, 95
6, 204000, Note_on_c, 9, 36, 95
6, 204120, Note_off_c, 9, 50, 95
6, 204120, Note_off_c, 9, 40, 95
6, 204120, Note_off_c, 9, 36, 95
6, 204120, Note_on_c, 9, 50, 95
6, 204120, Note_on_c, 9, 40, 95
6, 204120, Note_on_c, 9, 36, 95
6, 204240, Note_off_c, 9, 50, 95
6, 204240, Note_off_c, 9, 40, 95
6, 204240, Note_off_c, 9, 36, 95
6, 204240, Note_on_c, 9, 46, 95
6, 204240, Note_on_c, 9, 60, 95
6, 204360, Note_off_c, 9, 46, 95
6, 204360, Note_off_c, 9, 60, 95
6, 204360, Note_on_c, 9, 46, 95
6, 204360, Note_on_c, 9, 60, 95
6, 204480, Note_off_c, 9, 46, 95
6, 204480, Note_off_c, 9, 60, 95
6, 204480, Note_on_c, 9, 46, 95
6, 204480, Note_on_c, 9, 60, 95
6, 204600, Note_off_c, 9, 46, 95
6, 204600, Note_off_c, 9, 60, 95
6, 204600, Note_on_c, 9, 46, 95
6, 204600, Note_on_c, 9, 60, 95
6, 204720, Note_off_c, 9, 46, 95
6, 204720, Note_off_c, 9, 60, 95
6, 204720, Note_on_c, 9, 46, 95
6, 204720, Note_on_c, 9, 60, 95
6, 204840, Note_off_c, 9, 46, 95
6, 204840, Note_off_c, 9, 60, 95
6, 204840, Note_on_c, 9, 46, 95
6, 204840, Note_on_c, 9, 60, 95
6, 204960, Note_off_c, 9, 46, 95
6, 204960, Note_off_c, 9, 60, 95
6, 204960, Note_on_c, 9, 50, 95
6, 204960, Note_on_c, 9, 40, 95
6, 204960, Note_on_c, 9, 36, 95
6, 205200, Note_off_c, 9, 50, 95
6, 205200, Note_off_c, 9, 40, 95
6, 205200, Note_off_c, 9, 36, 95
6, 205200, Note_on_c, 9, 50, 95
6, 205200, Note_on_c, 9, 40, 95
6, 205200, Note_on_c, 9, 36, 95
6, 205440, Note_off_c, 9, 50, 95
6, 205440, Note_off_c, 9, 40, 95
6, 205440, Note_off_c, 9, 36, 95
6, 205440, Note_on_c, 9, 50, 95
6, 205440, Note_on_c, 9, 40, 95
6, 205440, Note_on_c, 9, 36, 95
6, 205680, Note_off_c, 9, 50, 95
6, 205680, Note_off_c, 9, 40, 95
6, 205680, Note_off_c, 9, 36, 95
6, 205680, Note_on_c, 9, 50, 95
6, 205680, Note_on_c, 9, 40, 95
6, 205680, Note_on_c, 9, 36, 95
6, 205920, Note_off_c, 9, 50, 95
6, 205920, Note_off_c, 9, 40, 95
6, 205920, Note_off_c, 9, 36, 95
6, 205920, Note_on_c, 9, 40, 95
6, 205920, Note_on_c, 9, 36, 95
6, 206160, Note_off_c, 9, 40, 95
6, 206160, Note_off_c, 9, 36, 95
6, 206160, Note_on_c, 9, 40, 95
6, 206160, Note_on_c, 9, 36, 95
6, 206400, Note_off_c, 9, 40, 95
6, 206400, Note_off_c, 9, 36, 95
6, 206400, Note_on_c, 9, 50, 95
6, 206400, Note_on_c, 9, 40, 95
6, 206400, Note_on_c, 9, 36, 95
6, 206640, Note_off_c, 9, 50, 95
6, 206640, Note_off_c, 9, 40, 95
6, 206640, Note_off_c, 9, 36, 95
6, 206640, Note_on_c, 9, 50, 95
6, 206640, Note_on_c, 9, 40, 95
6, 206640, Note_on_c, 9, 36, 95
6, 206880, Note_off_c, 9, 50, 95
6, 206880, Note_off_c, 9, 40, 95
6, 206880, Note_off_c, 9, 36, 95
6, 207360, Note_on_c, 9, 40, 95
6, 207360, Note_on_c, 9, 36, 95
6, 207600, Note_off_c, 9, 40, 95
6, 207600, Note_off_c, 9, 36, 95
6, 207600, Note_on_c, 9, 40, 95
6, 207600, Note_on_c, 9, 36, 95
6, 207840, Note_off_c, 9, 40, 95
6, 207840, Note_off_c, 9, 36, 95
6, 207840, Note_on_c, 9, 40, 95
6, 207840, Note_on_c, 9, 36, 95
6, 208080, Note_off_c, 9, 40, 95
6, 208080, Note_off_c, 9, 36, 95
6, 208080, Note_on_c, 9, 40, 95
6, 208080, Note_on_c, 9, 36, 95
6, 208320, Note_off_c, 9, 40, 95
6, 208320, Note_off_c, 9, 36, 95
6, 208560, Note_on_c, 9, 40, 95
6, 208560, Note_on_c, 9, 36, 95
6, 208800, Note_off_c, 9, 40, 95
6, 208800, Note_off_c, 9, 36, 95
6, 208800, Note_on_c, 9, 40, 95
6, 208800, Note_on_c, 9, 36, 95
6, 209040, Note_off_c, 9, 40, 95
6, 209040, Note_off_c, 9, 36, 95
6, 209040, Note_on_c, 9, 40, 95
6, 209040, Note_on_c, 9, 36, 95
6, 209280, Note_off_c, 9, 40, 95
6, 209280, Note_off_c, 9, 36, 95
6, 209280, Note_on_c, 9, 40, 95
6, 209280, Note_on_c, 9, 36, 95
6, 209520, Note_off_c, 9, 40, 95
6, 209520, Note_off_c, 9, 36, 95
6, 209760, Note_on_c, 9, 40, 95
6, 209760, Note_on_c, 9, 36, 95
6, 210000, Note_off_c, 9, 40, 95
6, 210000, Note_off_c, 9, 36, 95
6, 210000, Note_on_c, 9, 40, 95
6, 210000, Note_on_c, 9, 36, 95
6, 210240, Note_off_c, 9, 40, 95
6, 210240, Note_off_c, 9, 36, 95
6, 210240, Note_on_c, 9, 54, 95
6, 210240, Note_on_c, 9, 38, 95
6, 210240, Note_on_c, 9, 36, 95
6, 210480, Note_off_c, 9, 54, 95
6, 210480, Note_off_c, 9, 38, 95
6, 210480, Note_off_c, 9, 36, 95
6, 210480, Note_on_c, 9, 54, 95
6, 210480, Note_on_c, 9, 38, 95
6, 210480, Note_on_c, 9, 36, 95
6, 210720, Note_off_c, 9, 54, 95
6, 210720, Note_off_c, 9, 38, 95
6, 210720, Note_off_c, 9, 36, 95
6, 210960, Note_on_c, 9, 36, 95
6, 211080, Note_off_c, 9, 36, 95
6, 211080, Note_on_c, 9, 36, 95
6, 211200, Note_off_c, 9, 36, 95
6, 211200, Note_on_c, 9, 54, 95
6, 211200, Note_on_c, 9, 38, 95
6, 211200, Note_on_c, 9, 36, 95
6, 211680, Note_off_c, 9, 54, 95
6, 211680, Note_off_c, 9, 38, 95
6, 211680, Note_off_c, 9, 36, 95
6, 211680, Note_on_c, 9, 54, 95
6, 211680, Note_on_c, 9, 38, 95
6, 211680, Note_on_c, 9, 36, 95
6, 212160, Note_off_c, 9, 54, 95
6, 212160, Note_off_c, 9, 38, 95
6, 212160, Note_off_c, 9, 36, 95
6, 212400, Note_on_c, 9, 38, 95
6, 212400, Note_on_c, 9, 36, 95
6, 212640, Note_off_c, 9, 38, 95
6, 212640, Note_off_c, 9, 36, 95
6, 212640, Note_on_c, 9, 38, 95
6, 212640, Note_on_c, 9, 36, 95
6, 212880, Note_off_c, 9, 38, 95
6, 212880, Note_off_c, 9, 36, 95
6, 212880, Note_on_c, 9, 38, 95
6, 212880, Note_on_c, 9, 36, 95
6, 213120, Note_off_c, 9, 38, 95
6, 213120, Note_off_c, 9, 36, 95
6, 213120, Note_on_c, 9, 54, 95
6, 213120, Note_on_c, 9, 38, 95
6, 213120, Note_on_c, 9, 36, 95
6, 213360, Note_off_c, 9, 54, 95
6, 213360, Note_off_c, 9, 38, 95
6, 213360, Note_off_c, 9, 36, 95
6, 213360, Note_on_c, 9, 54, 95
6, 213360, Note_on_c, 9, 38, 95
6, 213360, Note_on_c, 9, 36, 95
6, 213600, Note_off_c, 9, 54, 95
6, 213600, Note_off_c, 9, 38, 95
6, 213600, Note_off_c, 9, 36, 95
6, 213840, Note_on_c, 9, 36, 95
6, 213960, Note_off_c, 9, 36, 95
6, 213960, Note_on_c, 9, 36, 95
6, 214080, Note_off_c, 9, 36, 95
6, 214080, Note_on_c, 9, 44, 95
6, 214080, Note_on_c, 9, 43, 95
6, 214080, Note_on_c, 9, 36, 95
6, 214320, Note_off_c, 9, 44, 95
6, 214320, Note_off_c, 9, 43, 95
6, 214320, Note_off_c, 9, 36, 95
6, 214320, Note_on_c, 9, 44, 95
6, 214320, Note_on_c, 9, 43, 95
6, 214320, Note_on_c, 9, 36, 95
6, 214560, Note_off_c, 9, 44, 95
6, 214560, Note_off_c, 9, 43, 95
6, 214560, Note_off_c, 9, 36, 95
6, 215040, Note_on_c, 9, 38, 95
6, 215040, Note_on_c, 9, 36, 95
6, 215280, Note_off_c, 9, 38, 95
6, 215280, Note_off_c, 9, 36, 95
6, 215280, Note_on_c, 9, 38, 95
6, 215280, Note_on_c, 9, 36, 95
6, 215520, Note_off_c, 9, 38, 95
6, 215520, Note_off_c, 9, 36, 95
6, 215520, Note_on_c, 9, 38, 95
6, 215520, Note_on_c, 9, 36, 95
6, 215760, Note_off_c, 9, 38, 95
6, 215760, Note_off_c, 9, 36, 95
6, 215760, Note_on_c, 9, 38, 95
6, 215760, Note_on_c, 9, 36, 95
6, 216000, Note_off_c, 9, 38, 95
6, 216000, Note_off_c, 9, 36, 95
6, 216480, Note_on_c, 9, 54, 95
6, 216480, Note_on_c, 9, 38, 95
6, 216480, Note_on_c, 9, 36, 95
6, 216720, Note_off_c, 9, 54, 95
6, 216720, Note_off_c, 9, 38, 95
6, 216720, Note_off_c, 9, 36, 95
6, 216720, Note_on_c, 9, 54, 95
6, 216720, Note_on_c, 9, 38, 95
6, 216720, Note_on_c, 9, 36, 95
6, 216960, Note_off_c, 9, 54, 95
6, 216960, Note_off_c, 9, 38, 95
6, 216960, Note_off_c, 9, 36, 95
6, 217440, Note_on_c, 9, 54, 47
6, 217680, Note_off_c, 9, 54, 47
6, 217680, Note_on_c, 9, 54, 47
6, 217920, Note_off_c, 9, 54, 47
6, 217920, Note_on_c, 9, 54, 47
6, 218160, Note_off_c, 9, 54, 47
6, 218160, Note_on_c, 9, 54, 47
6, 218400, Note_off_c, 9, 54, 47
6, 218400, Note_on_c, 9, 54, 47
6, 218640, Note_off_c, 9, 54, 47
6, 218640, Note_on_c, 9, 54, 47
6, 218880, Note_off_c, 9, 54, 47
6, 218880, Note_on_c, 9, 54, 47
6, 219120, Note_off_c, 9, 54, 47
6, 219120, Note_on_c, 9, 54, 47
6, 219360, Note_off_c, 9, 54, 47
6, 219360, Note_on_c, 9, 54, 95
6, 219360, Note_on_c, 9, 38, 95
6, 219360, Note_on_c, 9, 36, 95
6, 219600, Note_off_c, 9, 54, 95
6, 219600, Note_off_c, 9, 38, 95
6, 219600, Note_off_c, 9, 36, 95
6, 219600, Note_on_c, 9, 54, 95
6, 219600, Note_on_c, 9, 38, 95
6, 219600, Note_on_c, 9, 36, 95
6, 219840, Note_off_c, 9, 54, 95
6, 219840, Note_off_c, 9, 38, 95
6, 219840, Note_off_c, 9, 36, 95
6, 220320, Note_on_c, 9, 54, 95
6, 220320, Note_on_c, 9, 38, 95
6, 220320, Note_on_c, 9, 36, 95
6, 220560, Note_off_c, 9, 54, 95
6, 220560, Note_off_c, 9, 38, 95
6, 220560, Note_off_c, 9, 36, 95
6, 220560, Note_on_c, 9, 54, 95
6, 220560, Note_on_c, 9, 38, 95
6, 220560, Note_on_c, 9, 36, 95
6, 220800, Note_off_c, 9, 54, 95
6, 220800, Note_off_c, 9, 38, 95
6, 220800, Note_off_c, 9, 36, 95
6, 221280, Note_on_c, 9, 54, 95
6, 221280, Note_on_c, 9, 40, 95
6, 221280, Note_on_c, 9, 36, 95
6, 221520, Note_off_c, 9, 54, 95
6, 221520, Note_off_c, 9, 40, 95
6, 221520, Note_off_c, 9, 36, 95
6, 221520, Note_on_c, 9, 54, 95
6, 221520, Note_on_c, 9, 40, 95
6, 221520, Note_on_c, 9, 36, 95
6, 221760, Note_off_c, 9, 54, 95
6, 221760, Note_off_c, 9, 40, 95
6, 221760, Note_off_c, 9, 36, 95
6, 221760, Note_on_c, 9, 54, 95
6, 221760, Note_on_c, 9, 40, 95
6, 221760, Note_on_c, 9, 36, 95
6, 222000, Note_off_c, 9, 54, 95
6, 222000, Note_off_c, 9, 40, 95
6, 222000, Note_off_c, 9, 36, 95
6, 222000, Note_on_c, 9, 54, 95
6, 222000, Note_on_c, 9, 40, 95
6, 222000, Note_on_c, 9, 36, 95
6, 222240, Note_off_c, 9, 54, 95
6, 222240, Note_off_c, 9, 40, 95
6, 222240, Note_off_c, 9, 36, 95
6, 222480, Note_on_c, 9, 54, 95
6, 222480, Note_on_c, 9, 40, 95
6, 222480, Note_on_c, 9, 36, 95
6, 222720, Note_off_c, 9, 54, 95
6, 222720, Note_off_c, 9, 40, 95
6, 222720, Note_off_c, 9, 36, 95
6, 222720, Note_on_c, 9, 54, 95
6, 222720, Note_on_c, 9, 40, 95
6, 222720, Note_on_c, 9, 36, 95
6, 222960, Note_off_c, 9, 54, 95
6, 222960, Note_off_c, 9, 40, 95
6, 222960, Note_off_c, 9, 36, 95
6, 222960, Note_on_c, 9, 54, 95
6, 222960, Note_on_c, 9, 40, 95
6, 222960, Note_on_c, 9, 36, 95
6, 223200, Note_off_c, 9, 54, 95
6, 223200, Note_off_c, 9, 40, 95
6, 223200, Note_off_c, 9, 36, 95
6, 223200, Note_on_c, 9, 54, 95
6, 223200, Note_on_c, 9, 40, 95
6, 223200, Note_on_c, 9, 36, 95
6, 223440, Note_off_c, 9, 54, 95
6, 223440, Note_off_c, 9, 40, 95
6, 223440, Note_off_c, 9, 36, 95
6, 224160, Note_on_c, 9, 54, 95
6, 224160, Note_on_c, 9, 38, 95
6, 224160, Note_on_c, 9, 36, 95
6, 224400, Note_off_c, 9, 54, 95
6, 224400, Note_off_c, 9, 38, 95
6, 224400, Note_off_c, 9, 36, 95
6, 224400, Note_on_c, 9, 54, 95
6, 224400, Note_on_c, 9, 38, 95
6, 224400, Note_on_c, 9, 36, 95
6, 224640, Note_off_c, 9, 54, 95
6, 224640, Note_off_c, 9, 38, 95
6, 224640, Note_off_c, 9, 36, 95
6, 225120, Note_on_c, 9, 54, 47
6, 225360, Note_off_c, 9, 54, 47
6, 225360, Note_on_c, 9, 54, 47
6, 225600, Note_off_c, 9, 54, 47
6, 225600, Note_on_c, 9, 54, 47
6, 225840, Note_off_c, 9, 54, 47
6, 225840, Note_on_c, 9, 54, 47
6, 226080, Note_off_c, 9, 54, 47
6, 226080, Note_on_c, 9, 54, 47
6, 226320, Note_off_c, 9, 54, 47
6, 226320, Note_on_c, 9, 54, 47
6, 226560, Note_off_c, 9, 54, 47
6, 226560, Note_on_c, 9, 54, 47
6, 226800, Note_off_c, 9, 54, 47
6, 226800, Note_on_c, 9, 54, 47
6, 227040, Note_off_c, 9, 54, 47
6, 227040, Note_on_c, 9, 54, 95
6, 227040, Note_on_c, 9, 38, 95
6, 227040, Note_on_c, 9, 36, 95
6, 227280, Note_off_c, 9, 54, 95
6, 227280, Note_off_c, 9, 38, 95
6, 227280, Note_off_c, 9, 36, 95
6, 227280, Note_on_c, 9, 54, 95
6, 227280, Note_on_c, 9, 38, 95
6, 227280, Note_on_c, 9, 36, 95
6, 227520, Note_off_c, 9, 54, 95
6, 227520, Note_off_c, 9, 38, 95
6, 227520, Note_off_c, 9, 36, 95
6, 228000, Note_on_c, 9, 54, 95
6, 228000, Note_on_c, 9, 38, 95
6, 228000, Note_on_c, 9, 36, 95
6, 228240, Note_off_c, 9, 54, 95
6, 228240, Note_off_c, 9, 38, 95
6, 228240, Note_off_c, 9, 36, 95
6, 228240, Note_on_c, 9, 54, 95
6, 228240, Note_on_c, 9, 38, 95
6, 228240, Note_on_c, 9, 36, 95
6, 228480, Note_off_c, 9, 54, 95
6, 228480, Note_off_c, 9, 38, 95
6, 228480, Note_off_c, 9, 36, 95
6, 228960, Note_on_c, 9, 54, 95
6, 228960, Note_on_c, 9, 40, 95
6, 228960, Note_on_c, 9, 36, 95
6, 229200, Note_off_c, 9, 54, 95
6, 229200, Note_off_c, 9, 40, 95
6, 229200, Note_off_c, 9, 36, 95
6, 229200, Note_on_c, 9, 54, 95
6, 229200, Note_on_c, 9, 40, 95
6, 229200, Note_on_c, 9, 36, 95
6, 229440, Note_off_c, 9, 54, 95
6, 229440, Note_off_c, 9, 40, 95
6, 229440, Note_off_c, 9, 36, 95
6, 229440, Note_on_c, 9, 54, 95
6, 229440, Note_on_c, 9, 40, 95
6, 229440, Note_on_c, 9, 36, 95
6, 229680, Note_off_c, 9, 54, 95
6, 229680, Note_off_c, 9, 40, 95
6, 229680, Note_off_c, 9, 36, 95
6, 229680, Note_on_c, 9, 54, 95
6, 229680, Note_on_c, 9, 40, 95
6, 229680, Note_on_c, 9, 36, 95
6, 229920, Note_off_c, 9, 54, 95
6, 229920, Note_off_c, 9, 40, 95
6, 229920, Note_off_c, 9, 36, 95
6, 230400, Note_on_c, 9, 54, 95
6, 230400, Note_on_c, 9, 38, 95
6, 230400, Note_on_c, 9, 36, 95
6, 230640, Note_off_c, 9, 54, 95
6, 230640, Note_off_c, 9, 38, 95
6, 230640, Note_off_c, 9, 36, 95
6, 230640, Note_on_c, 9, 54, 95
6, 230640, Note_on_c, 9, 38, 95
6, 230640, Note_on_c, 9, 36, 95
6, 230880, Note_off_c, 9, 54, 95
6, 230880, Note_off_c, 9, 38, 95
6, 230880, Note_off_c, 9, 36, 95
6, 231360, Note_on_c, 9, 54, 47
6, 231600, Note_off_c, 9, 54, 47
6, 231600, Note_on_c, 9, 54, 47
6, 231840, Note_off_c, 9, 54, 47
6, 231840, Note_on_c, 9, 54, 47
6, 232080, Note_off_c, 9, 54, 47
6, 232080, Note_on_c, 9, 54, 47
6, 232320, Note_off_c, 9, 54, 47
6, 232320, Note_on_c, 9, 54, 47
6, 232560, Note_off_c, 9, 54, 47
6, 232560, Note_on_c, 9, 54, 47
6, 232800, Note_off_c, 9, 54, 47
6, 232800, Note_on_c, 9, 54, 47
6, 233040, Note_off_c, 9, 54, 47
6, 233040, Note_on_c, 9, 54, 47
6, 233280, Note_off_c, 9, 54, 47
6, 233280, Note_on_c, 9, 54, 95
6, 233280, Note_on_c, 9, 38, 95
6, 233280, Note_on_c, 9, 36, 95
6, 233520, Note_off_c, 9, 54, 95
6, 233520, Note_off_c, 9, 38, 95
6, 233520, Note_off_c, 9, 36, 95
6, 233520, Note_on_c, 9, 54, 95
6, 233520, Note_on_c, 9, 38, 95
6, 233520, Note_on_c, 9, 36, 95
6, 233760, Note_off_c, 9, 54, 95
6, 233760, Note_off_c, 9, 38, 95
6, 233760, Note_off_c, 9, 36, 95
6, 234240, Note_on_c, 9, 54, 95
6, 234240, Note_on_c, 9, 38, 95
6, 234240, Note_on_c, 9, 36, 95
6, 234480, Note_off_c, 9, 54, 95
6, 234480, Note_off_c, 9, 38, 95
6, 234480, Note_off_c, 9, 36, 95
6, 234480, Note_on_c, 9, 54, 95
6, 234480, Note_on_c, 9, 38, 95
6, 234480, Note_on_c, 9, 36, 95
6, 234720, Note_off_c, 9, 54, 95
6, 234720, Note_off_c, 9, 38, 95
6, 234720, Note_off_c, 9, 36, 95
6, 235200, Note_on_c, 9, 54, 95
6, 235200, Note_on_c, 9, 40, 95
6, 235200, Note_on_c, 9, 36, 95
6, 235440, Note_off_c, 9, 54, 95
6, 235440, Note_off_c, 9, 40, 95
6, 235440, Note_off_c, 9, 36, 95
6, 235440, Note_on_c, 9, 54, 95
6, 235440, Note_on_c, 9, 40, 95
6, 235440, Note_on_c, 9, 36, 95
6, 235680, Note_off_c, 9, 54, 95
6, 235680, Note_off_c, 9, 40, 95
6, 235680, Note_off_c, 9, 36, 95
6, 235680, Note_on_c, 9, 54, 95
6, 235680, Note_on_c, 9, 40, 95
6, 235680, Note_on_c, 9, 36, 95
6, 235920, Note_off_c, 9, 54, 95
6, 235920, Note_off_c, 9, 40, 95
6, 235920, Note_off_c, 9, 36, 95
6, 235920, Note_on_c, 9, 54, 95
6, 235920, Note_on_c, 9, 40, 95
6, 235920, Note_on_c, 9, 36, 95
6, 236160, Note_off_c, 9, 54, 95
6, 236160, Note_off_c, 9, 40, 95
6, 236160, Note_off_c, 9, 36, 95
6, 236400, Note_on_c, 9, 54, 95
6, 236400, Note_on_c, 9, 40, 95
6, 236400, Note_on_c, 9, 36, 95
6, 236640, Note_off_c, 9, 54, 95
6, 236640, Note_off_c, 9, 40, 95
6, 236640, Note_off_c, 9, 36, 95
6, 236640, Note_on_c, 9, 54, 95
6, 236640, Note_on_c, 9, 40, 95
6, 236640, Note_on_c, 9, 36, 95
6, 236880, Note_off_c, 9, 54, 95
6, 236880, Note_off_c, 9, 40, 95
6, 236880, Note_off_c, 9, 36, 95
6, 236880, Note_on_c, 9, 54, 95
6, 236880, Note_on_c, 9, 40, 95
6, 236880, Note_on_c, 9, 36, 95
6, 237120, Note_off_c, 9, 54, 95
6, 237120, Note_off_c, 9, 40, 95
6, 237120, Note_off_c, 9, 36, 95
6, 237120, Note_on_c, 9, 54, 95
6, 237120, Note_on_c, 9, 40, 95
6, 237120, Note_on_c, 9, 36, 95
6, 237360, Note_off_c, 9, 54, 95
6, 237360, Note_off_c, 9, 40, 95
6, 237360, Note_off_c, 9, 36, 95
6, 238080, Note_on_c, 9, 54, 95
6, 238080, Note_on_c, 9, 38, 95
6, 238080, Note_on_c, 9, 36, 95
6, 238320, Note_off_c, 9, 54, 95
6, 238320, Note_off_c, 9, 38, 95
6, 238320, Note_off_c, 9, 36, 95
6, 238320, Note_on_c, 9, 54, 95
6, 238320, Note_on_c, 9, 38, 95
6, 238320, Note_on_c, 9, 36, 95
6, 238560, Note_off_c, 9, 54, 95
6, 238560, Note_off_c, 9, 38, 95
6, 238560, Note_off_c, 9, 36, 95
6, 239040, Note_on_c, 9, 54, 47
6, 239280, Note_off_c, 9, 54, 47
6, 239280, Note_on_c, 9, 54, 47
6, 239520, Note_off_c, 9, 54, 47
6, 239520, Note_on_c, 9, 54, 47
6, 239760, Note_off_c, 9, 54, 47
6, 239760, Note_on_c, 9, 54, 47
6, 240000, Note_off_c, 9, 54, 47
6, 240000, Note_on_c, 9, 54, 47
6, 240240, Note_off_c, 9, 54, 47
6, 240240, Note_on_c, 9, 54, 47
6, 240480, Note_off_c, 9, 54, 47
6, 240480, Note_on_c, 9, 54, 47
6, 240720, Note_off_c, 9, 54, 47
6, 240720, Note_on_c, 9, 54, 47
6, 240960, Note_off_c, 9, 54, 47
6, 240960, Note_on_c, 9, 54, 95
6, 240960, Note_on_c, 9, 38, 95
6, 240960, Note_on_c, 9, 36, 95
6, 241200, Note_off_c, 9, 54, 95
6, 241200, Note_off_c, 9, 38, 95
6, 241200, Note_off_c, 9, 36, 95
6, 241200, Note_on_c, 9, 54, 95
6, 241200, Note_on_c, 9, 38, 95
6, 241200, Note_on_c, 9, 36, 95
6, 241440, Note_off_c, 9, 54, 95
6, 241440, Note_off_c, 9, 38, 95
6, 241440, Note_off_c, 9, 36, 95
6, 241920, Note_on_c, 9, 54, 95
6, 241920, Note_on_c, 9, 38, 95
6, 241920, Note_on_c, 9, 36, 95
6, 242160, Note_off_c, 9, 54, 95
6, 242160, Note_off_c, 9, 38, 95
6, 242160, Note_off_c, 9, 36, 95
6, 242160, Note_on_c, 9, 54, 95
6, 242160, Note_on_c, 9, 38, 95
6, 242160, Note_on_c, 9, 36, 95
6, 242400, Note_off_c, 9, 54, 95
6, 242400, Note_off_c, 9, 38, 95
6, 242400, Note_off_c, 9, 36, 95
6, 242880, Note_on_c, 9, 54, 95
6, 242880, Note_on_c, 9, 40, 95
6, 242880, Note_on_c, 9, 36, 95
6, 243120, Note_off_c, 9, 54, 95
6, 243120, Note_off_c, 9, 40, 95
6, 243120, Note_off_c, 9, 36, 95
6, 243120, Note_on_c, 9, 54, 95
6, 243120, Note_on_c, 9, 40, 95
6, 243120, Note_on_c, 9, 36, 95
6, 243360, Note_off_c, 9, 54, 95
6, 243360, Note_off_c, 9, 40, 95
6, 243360, Note_off_c, 9, 36, 95
6, 243360, Note_on_c, 9, 54, 95
6, 243360, Note_on_c, 9, 40, 95
6, 243360, Note_on_c, 9, 36, 95
6, 243600, Note_off_c, 9, 54, 95
6, 243600, Note_off_c, 9, 40, 95
6, 243600, Note_off_c, 9, 36, 95
6, 243600, Note_on_c, 9, 54, 95
6, 243600, Note_on_c, 9, 40, 95
6, 243600, Note_on_c, 9, 36, 95
6, 243840, Note_off_c, 9, 54, 95
6, 243840, Note_off_c, 9, 40, 95
6, 243840, Note_off_c, 9, 36, 95
6, 244320, Note_on_c, 9, 54, 95
6, 244320, Note_on_c, 9, 38, 95
6, 244320, Note_on_c, 9, 36, 95
6, 244560, Note_off_c, 9, 54, 95
6, 244560, Note_off_c, 9, 38, 95
6, 244560, Note_off_c, 9, 36, 95
6, 244560, Note_on_c, 9, 54, 95
6, 244560, Note_on_c, 9, 38, 95
6, 244560, Note_on_c, 9, 36, 95
6, 244800, Note_off_c, 9, 54, 95
6, 244800, Note_off_c, 9, 38, 95
6, 244800, Note_off_c, 9, 36, 95
6, 245280, Note_on_c, 9, 54, 47
6, 245520, Note_off_c, 9, 54, 47
6, 245520, Note_on_c, 9, 54, 47
6, 245760, Note_off_c, 9, 54, 47
6, 245760, Note_on_c, 9, 54, 47
6, 246000, Note_off_c, 9, 54, 47
6, 246000, Note_on_c, 9, 54, 47
6, 246240, Note_off_c, 9, 54, 47
6, 246240, Note_on_c, 9, 54, 47
6, 246480, Note_off_c, 9, 54, 47
6, 246480, Note_on_c, 9, 54, 47
6, 246720, Note_off_c, 9, 54, 47
6, 246720, Note_on_c, 9, 54, 47
6, 246960, Note_off_c, 9, 54, 47
6, 246960, Note_on_c, 9, 54, 47
6, 247200, Note_off_c, 9, 54, 47
6, 247200, Note_on_c, 9, 54, 95
6, 247200, Note_on_c, 9, 38, 95
6, 247200, Note_on_c, 9, 36, 95
6, 247440, Note_off_c, 9, 54, 95
6, 247440, Note_off_c, 9, 38, 95
6, 247440, Note_off_c, 9, 36, 95
6, 247440, Note_on_c, 9, 54, 95
6, 247440, Note_on_c, 9, 38, 95
6, 247440, Note_on_c, 9, 36, 95
6, 247680, Note_off_c, 9, 54, 95
6, 247680, Note_off_c, 9, 38, 95
6, 247680, Note_off_c, 9, 36, 95
6, 248160, Note_on_c, 9, 54, 95
6, 248160, Note_on_c, 9, 38, 95
6, 248160, Note_on_c, 9, 36, 95
6, 248400, Note_off_c, 9, 54, 95
6, 248400, Note_off_c, 9, 38, 95
6, 248400, Note_off_c, 9, 36, 95
6, 248400, Note_on_c, 9, 54, 95
6, 248400, Note_on_c, 9, 38, 95
6, 248400, Note_on_c, 9, 36, 95
6, 248640, Note_off_c, 9, 54, 95
6, 248640, Note_off_c, 9, 38, 95
6, 248640, Note_off_c, 9, 36, 95
6, 249120, Note_on_c, 9, 40, 63
6, 249360, Note_off_c, 9, 40, 63
6, 249360, Note_on_c, 9, 40, 63
6, 249600, Note_off_c, 9, 40, 63
6, 249600, Note_on_c, 9, 40, 63
6, 249840, Note_off_c, 9, 40, 63
6, 249840, Note_on_c, 9, 54, 79
6, 249840, Note_on_c, 9, 40, 63
6, 250080, Note_off_c, 9, 54, 79
6, 250080, Note_off_c, 9, 40, 63
6, 250320, Note_on_c, 9, 40, 63
6, 250560, Note_off_c, 9, 40, 63
6, 250560, Note_on_c, 9, 40, 63
6, 250800, Note_off_c, 9, 40, 63
6, 250800, Note_on_c, 9, 40, 63
6, 251040, Note_off_c, 9, 40, 63
6, 251040, Note_on_c, 9, 54, 79
6, 251040, Note_on_c, 9, 40, 63
6, 251280, Note_off_c, 9, 54, 79
6, 251280, Note_off_c, 9, 40, 63
6, 252000, Note_on_c, 9, 54, 95
6, 252000, Note_on_c, 9, 38, 95
6, 252000, Note_on_c, 9, 36, 95
6, 252240, Note_off_c, 9, 54, 95
6, 252240, Note_off_c, 9, 38, 95
6, 252240, Note_off_c, 9, 36, 95
6, 252240, Note_on_c, 9, 54, 95
6, 252240, Note_on_c, 9, 38, 95
6, 252240, Note_on_c, 9, 36, 95
6, 252480, Note_off_c, 9, 54, 95
6, 252480, Note_off_c, 9, 38, 95
6, 252480, Note_off_c, 9, 36, 95
6, 252480, Note_on_c, 9, 54, 31
6, 252720, Note_off_c, 9, 54, 31
6, 252720, Note_on_c, 9, 54, 31
6, 252960, Note_off_c, 9, 54, 31
6, 252960, Note_on_c, 9, 54, 47
6, 253200, Note_off_c, 9, 54, 47
6, 253200, Note_on_c, 9, 54, 47
6, 253440, Note_off_c, 9, 54, 47
6, 253440, Note_on_c, 9, 54, 47
6, 253680, Note_off_c, 9, 54, 47
6, 253680, Note_on_c, 9, 54, 47
6, 253920, Note_off_c, 9, 54, 47
6, 253920, Note_on_c, 9, 54, 47
6, 254160, Note_off_c, 9, 54, 47
6, 254160, Note_on_c, 9, 54, 47
6, 254400, Note_off_c, 9, 54, 47
6, 254400, Note_on_c, 9, 54, 47
6, 254640, Note_off_c, 9, 54, 47
6, 254640, Note_on_c, 9, 54, 47
6, 254880, Note_off_c, 9, 54, 47
6, 254880, Note_on_c, 9, 54, 95
6, 254880, Note_on_c, 9, 38, 95
6, 254880, Note_on_c, 9, 36, 95
6, 255120, Note_off_c, 9, 54, 95
6, 255120, Note_off_c, 9, 38, 95
6, 255120, Note_off_c, 9, 36, 95
6, 255120, Note_on_c, 9, 54, 95
6, 255120, Note_on_c, 9, 38, 95
6, 255120, Note_on_c, 9, 36, 95
6, 255360, Note_off_c, 9, 54, 95
6, 255360, Note_off_c, 9, 38, 95
6, 255360, Note_off_c, 9, 36, 95
6, 255840, Note_on_c, 9, 54, 95
6, 255840, Note_on_c, 9, 38, 95
6, 255840, Note_on_c, 9, 36, 95
6, 256080, Note_off_c, 9, 54, 95
6, 256080, Note_off_c, 9, 38, 95
6, 256080, Note_off_c, 9, 36, 95
6, 256080, Note_on_c, 9, 54, 95
6, 256080, Note_on_c, 9, 38, 95
6, 256080, Note_on_c, 9, 36, 95
6, 256320, Note_off_c, 9, 54, 95
6, 256320, Note_off_c, 9, 38, 95
6, 256320, Note_off_c, 9, 36, 95
6, 256800, Note_on_c, 9, 54, 47
6, 256800, Note_on_c, 9, 40, 47
6, 256800, Note_on_c, 9, 36, 95
6, 257040, Note_off_c, 9, 54, 47
6, 257040, Note_off_c, 9, 40, 47
6, 257040, Note_off_c, 9, 36, 95
6, 257040, Note_on_c, 9, 54, 47
6, 257040, Note_on_c, 9, 40, 47
6, 257040, Note_on_c, 9, 36, 95
6, 257280, Note_off_c, 9, 54, 47
6, 257280, Note_off_c, 9, 40, 47
6, 257280, Note_off_c, 9, 36, 95
6, 257280, Note_on_c, 9, 54, 47
6, 257280, Note_on_c, 9, 40, 47
6, 257280, Note_on_c, 9, 36, 95
6, 257520, Note_off_c, 9, 54, 47
6, 257520, Note_off_c, 9, 40, 47
6, 257520, Note_off_c, 9, 36, 95
6, 257520, Note_on_c, 9, 54, 47
6, 257520, Note_on_c, 9, 40, 47
6, 257520, Note_on_c, 9, 36, 95
6, 257760, Note_off_c, 9, 54, 47
6, 257760, Note_off_c, 9, 40, 47
6, 257760, Note_off_c, 9, 36, 95
6, 258240, Note_on_c, 9, 54, 95
6, 258240, Note_on_c, 9, 38, 95
6, 258240, Note_on_c, 9, 36, 95
6, 258480, Note_off_c, 9, 54, 95
6, 258480, Note_off_c, 9, 38, 95
6, 258480, Note_off_c, 9, 36, 95
6, 258480, Note_on_c, 9, 54, 95
6, 258480, Note_on_c, 9, 38, 95
6, 258480, Note_on_c, 9, 36, 95
6, 258720, Note_off_c, 9, 54, 95
6, 258720, Note_off_c, 9, 38, 95
6, 258720, Note_off_c, 9, 36, 95
6, 258720, Note_on_c, 9, 54, 31
6, 258960, Note_off_c, 9, 54, 31
6, 258960, Note_on_c, 9, 54, 31
6, 259200, Note_off_c, 9, 54, 31
6, 259200, Note_on_c, 9, 54, 47
6, 259440, Note_off_c, 9, 54, 47
6, 259440, Note_on_c, 9, 54, 47
6, 259680, Note_off_c, 9, 54, 47
6, 259680, Note_on_c, 9, 54, 47
6, 259920, Note_off_c, 9, 54, 47
6, 259920, Note_on_c, 9, 54, 47
6, 260160, Note_off_c, 9, 54, 47
6, 260160, Note_on_c, 9, 54, 47
6, 260400, Note_off_c, 9, 54, 47
6, 260400, Note_on_c, 9, 54, 47
6, 260640, Note_off_c, 9, 54, 47
6, 260640, Note_on_c, 9, 54, 47
6, 260880, Note_off_c, 9, 54, 47
6, 260880, Note_on_c, 9, 54, 47
6, 261120, Note_off_c, 9, 54, 47
6, 261120, Note_on_c, 9, 54, 95
6, 261120, Note_on_c, 9, 38, 95
6, 261120, Note_on_c, 9, 36, 95
6, 261360, Note_off_c, 9, 54, 95
6, 261360, Note_off_c, 9, 38, 95
6, 261360, Note_off_c, 9, 36, 95
6, 261360, Note_on_c, 9, 54, 95
6, 261360, Note_on_c, 9, 38, 95
6, 261360, Note_on_c, 9, 36, 95
6, 261600, Note_off_c, 9, 54, 95
6, 261600, Note_off_c, 9, 38, 95
6, 261600, Note_off_c, 9, 36, 95
6, 262080, Note_on_c, 9, 54, 95
6, 262080, Note_on_c, 9, 38, 95
6, 262080, Note_on_c, 9, 36, 95
6, 262320, Note_off_c, 9, 54, 95
6, 262320, Note_off_c, 9, 38, 95
6, 262320, Note_off_c, 9, 36, 95
6, 262320, Note_on_c, 9, 54, 95
6, 262320, Note_on_c, 9, 38, 95
6, 262320, Note_on_c, 9, 36, 95
6, 262560, Note_off_c, 9, 54, 95
6, 262560, Note_off_c, 9, 38, 95
6, 262560, Note_off_c, 9, 36, 95
6, 263040, Note_on_c, 9, 40, 63
6, 263280, Note_off_c, 9, 40, 63
6, 263280, Note_on_c, 9, 40, 63
6, 263520, Note_off_c, 9, 40, 63
6, 263520, Note_on_c, 9, 40, 63
6, 263760, Note_off_c, 9, 40, 63
6, 263760, Note_on_c, 9, 54, 79
6, 263760, Note_on_c, 9, 40, 63
6, 264000, Note_off_c, 9, 54, 79
6, 264000, Note_off_c, 9, 40, 63
6, 264240, Note_on_c, 9, 40, 63
6, 264480, Note_off_c, 9, 40, 63
6, 264480, Note_on_c, 9, 40, 63
6, 264720, Note_off_c, 9, 40, 63
6, 264720, Note_on_c, 9, 40, 63
6, 264960, Note_off_c, 9, 40, 63
6, 264960, Note_on_c, 9, 54, 79
6, 264960, Note_on_c, 9, 40, 63
6, 265200, Note_off_c, 9, 54, 79
6, 265200, Note_off_c, 9, 40, 63
6, 265920, Note_on_c, 9, 54, 95
6, 265920, Note_on_c, 9, 38, 95
6, 265920, Note_on_c, 9, 36, 95
6, 266160, Note_off_c, 9, 54, 95
6, 266160, Note_off_c, 9, 38, 95
6, 266160, Note_off_c, 9, 36, 95
6, 266160, Note_on_c, 9, 54, 95
6, 266160, Note_on_c, 9, 38, 95
6, 266160, Note_on_c, 9, 36, 95
6, 266400, Note_off_c, 9, 54, 95
6, 266400, Note_off_c, 9, 38, 95
6, 266400, Note_off_c, 9, 36, 95
6, 266400, Note_on_c, 9, 54, 31
6, 266640, Note_off_c, 9, 54, 31
6, 266640, Note_on_c, 9, 54, 31
6, 266880, Note_off_c, 9, 54, 31
6, 266880, Note_on_c, 9, 54, 47
6, 267120, Note_off_c, 9, 54, 47
6, 267120, Note_on_c, 9, 54, 47
6, 267360, Note_off_c, 9, 54, 47
6, 267360, Note_on_c, 9, 54, 47
6, 267600, Note_off_c, 9, 54, 47
6, 267600, Note_on_c, 9, 54, 47
6, 267840, Note_off_c, 9, 54, 47
6, 267840, Note_on_c, 9, 54, 47
6, 268080, Note_off_c, 9, 54, 47
6, 268080, Note_on_c, 9, 54, 47
6, 268320, Note_off_c, 9, 54, 47
6, 268320, Note_on_c, 9, 54, 47
6, 268560, Note_off_c, 9, 54, 47
6, 268560, Note_on_c, 9, 54, 47
6, 268800, Note_off_c, 9, 54, 47
6, 268800, Note_on_c, 9, 54, 95
6, 268800, Note_on_c, 9, 38, 95
6, 268800, Note_on_c, 9, 36, 95
6, 269040, Note_off_c, 9, 54, 95
6, 269040, Note_off_c, 9, 38, 95
6, 269040, Note_off_c, 9, 36, 95
6, 269040, Note_on_c, 9, 54, 95
6, 269040, Note_on_c, 9, 38, 95
6, 269040, Note_on_c, 9, 36, 95
6, 269280, Note_off_c, 9, 54, 95
6, 269280, Note_off_c, 9, 38, 95
6, 269280, Note_off_c, 9, 36, 95
6, 269760, Note_on_c, 9, 54, 95
6, 269760, Note_on_c, 9, 38, 95
6, 269760, Note_on_c, 9, 36, 95
6, 270000, Note_off_c, 9, 54, 95
6, 270000, Note_off_c, 9, 38, 95
6, 270000, Note_off_c, 9, 36, 95
6, 270000, Note_on_c, 9, 54, 95
6, 270000, Note_on_c, 9, 38, 95
6, 270000, Note_on_c, 9, 36, 95
6, 270240, Note_off_c, 9, 54, 95
6, 270240, Note_off_c, 9, 38, 95
6, 270240, Note_off_c, 9, 36, 95
6, 270720, Note_on_c, 9, 54, 47
6, 270720, Note_on_c, 9, 40, 47
6, 270720, Note_on_c, 9, 36, 95
6, 270960, Note_off_c, 9, 54, 47
6, 270960, Note_off_c, 9, 40, 47
6, 270960, Note_off_c, 9, 36, 95
6, 270960, Note_on_c, 9, 54, 47
6, 270960, Note_on_c, 9, 40, 47
6, 270960, Note_on_c, 9, 36, 95
6, 271200, Note_off_c, 9, 54, 47
6, 271200, Note_off_c, 9, 40, 47
6, 271200, Note_off_c, 9, 36, 95
6, 271200, Note_on_c, 9, 54, 47
6, 271200, Note_on_c, 9, 40, 47
6, 271200, Note_on_c, 9, 36, 95
6, 271440, Note_off_c, 9, 54, 47
6, 271440, Note_off_c, 9, 40, 47
6, 271440, Note_off_c, 9, 36, 95
6, 271440, Note_on_c, 9, 54, 47
6, 271440, Note_on_c, 9, 40, 47
6, 271440, Note_on_c, 9, 36, 95
6, 271680, Note_off_c, 9, 54, 47
6, 271680, Note_off_c, 9, 40, 47
6, 271680, Note_off_c, 9, 36, 95
6, 272160, Note_on_c, 9, 54, 95
6, 272160, Note_on_c, 9, 38, 95
6, 272160, Note_on_c, 9, 36, 95
6, 272400, Note_off_c, 9, 54, 95
6, 272400, Note_off_c, 9, 38, 95
6, 272400, Note_off_c, 9, 36, 95
6, 272400, Note_on_c, 9, 54, 95
6, 272400, Note_on_c, 9, 38, 95
6, 272400, Note_on_c, 9, 36, 95
6, 272640, Note_off_c, 9, 54, 95
6, 272640, Note_off_c, 9, 38, 95
6, 272640, Note_off_c, 9, 36, 95
6, 272640, Note_on_c, 9, 54, 31
6, 272880, Note_off_c, 9, 54, 31
6, 272880, Note_on_c, 9, 54, 31
6, 273120, Note_off_c, 9, 54, 31
6, 273120, Note_on_c, 9, 54, 47
6, 273360, Note_off_c, 9, 54, 47
6, 273360, Note_on_c, 9, 54, 47
6, 273600, Note_off_c, 9, 54, 47
6, 273600, Note_on_c, 9, 54, 47
6, 273840, Note_off_c, 9, 54, 47
6, 273840, Note_on_c, 9, 54, 47
6, 274080, Note_off_c, 9, 54, 47
6, 274080, Note_on_c, 9, 54, 47
6, 274320, Note_off_c, 9, 54, 47
6, 274320, Note_on_c, 9, 54, 47
6, 274560, Note_off_c, 9, 54, 47
6, 274560, Note_on_c, 9, 54, 47
6, 274800, Note_off_c, 9, 54, 47
6, 274800, Note_on_c, 9, 54, 47
6, 275040, Note_off_c, 9, 54, 47
6, 275040, Note_on_c, 9, 54, 95
6, 275040, Note_on_c, 9, 38, 95
6, 275040, Note_on_c, 9, 36, 95
6, 275280, Note_off_c, 9, 54, 95
6, 275280, Note_off_c, 9, 38, 95
6, 275280, Note_off_c, 9, 36, 95
6, 275280, Note_on_c, 9, 54, 95
6, 275280, Note_on_c, 9, 38, 95
6, 275280, Note_on_c, 9, 36, 95
6, 275520, Note_off_c, 9, 54, 95
6, 275520, Note_off_c, 9, 38, 95
6, 275520, Note_off_c, 9, 36, 95
6, 276000, Note_on_c, 9, 54, 95
6, 276000, Note_on_c, 9, 38, 95
6, 276000, Note_on_c, 9, 36, 95
6, 276240, Note_off_c, 9, 54, 95
6, 276240, Note_off_c, 9, 38, 95
6, 276240, Note_off_c, 9, 36, 95
6, 276240, Note_on_c, 9, 54, 95
6, 276240, Note_on_c, 9, 38, 95
6, 276240, Note_on_c, 9, 36, 95
6, 276480, Note_off_c, 9, 54, 95
6, 276480, Note_off_c, 9, 38, 95
6, 276480, Note_off_c, 9, 36, 95
6, 276960, Note_on_c, 9, 40, 63
6, 277200, Note_off_c, 9, 40, 63
6, 277200, Note_on_c, 9, 40, 63
6, 277440, Note_off_c, 9, 40, 63
6, 277440, Note_on_c, 9, 40, 63
6, 277680, Note_off_c, 9, 40, 63
6, 277680, Note_on_c, 9, 54, 79
6, 277680, Note_on_c, 9, 40, 63
6, 277920, Note_off_c, 9, 54, 79
6, 277920, Note_off_c, 9, 40, 63
6, 278160, Note_on_c, 9, 40, 63
6, 278400, Note_off_c, 9, 40, 63
6, 278400, Note_on_c, 9, 40, 63
6, 278640, Note_off_c, 9, 40, 63
6, 278640, Note_on_c, 9, 40, 63
6, 278880, Note_off_c, 9, 40, 63
6, 278880, Note_on_c, 9, 54, 79
6, 278880, Note_on_c, 9, 40, 63
6, 279120, Note_off_c, 9, 54, 79
6, 279120, Note_off_c, 9, 40, 63
6, 279840, Note_on_c, 9, 54, 95
6, 279840, Note_on_c, 9, 38, 95
6, 279840, Note_on_c, 9, 36, 95
6, 280080, Note_off_c, 9, 54, 95
6, 280080, Note_off_c, 9, 38, 95
6, 280080, Note_off_c, 9, 36, 95
6, 280080, Note_on_c, 9, 54, 95
6, 280080, Note_on_c, 9, 38, 95
6, 280080, Note_on_c, 9, 36, 95
6, 280320, Note_off_c, 9, 54, 95
6, 280320, Note_off_c, 9, 38, 95
6, 280320, Note_off_c, 9, 36, 95
6, 280320, Note_on_c, 9, 54, 31
6, 280560, Note_off_c, 9, 54, 31
6, 280560, Note_on_c, 9, 54, 31
6, 280800, Note_off_c, 9, 54, 31
6, 280800, Note_on_c, 9, 54, 47
6, 281040, Note_off_c, 9, 54, 47
6, 281040, Note_on_c, 9, 54, 47
6, 281280, Note_off_c, 9, 54, 47
6, 281280, Note_on_c, 9, 54, 47
6, 281520, Note_off_c, 9, 54, 47
6, 281520, Note_on_c, 9, 54, 47
6, 281760, Note_off_c, 9, 54, 47
6, 281760, Note_on_c, 9, 54, 47
6, 282000, Note_off_c, 9, 54, 47
6, 282000, Note_on_c, 9, 54, 47
6, 282240, Note_off_c, 9, 54, 47
6, 282240, Note_on_c, 9, 54, 47
6, 282480, Note_off_c, 9, 54, 47
6, 282480, Note_on_c, 9, 54, 47
6, 282720, Note_off_c, 9, 54, 47
6, 282720, Note_on_c, 9, 54, 95
6, 282720, Note_on_c, 9, 38, 95
6, 282720, Note_on_c, 9, 36, 95
6, 282960, Note_off_c, 9, 54, 95
6, 282960, Note_off_c, 9, 38, 95
6, 282960, Note_off_c, 9, 36, 95
6, 282960, Note_on_c, 9, 54, 95
6, 282960, Note_on_c, 9, 38, 95
6, 282960, Note_on_c, 9, 36, 95
6, 283200, Note_off_c, 9, 54, 95
6, 283200, Note_off_c, 9, 38, 95
6, 283200, Note_off_c, 9, 36, 95
6, 283680, Note_on_c, 9, 54, 95
6, 283680, Note_on_c, 9, 38, 95
6, 283680, Note_on_c, 9, 36, 95
6, 283920, Note_off_c, 9, 54, 95
6, 283920, Note_off_c, 9, 38, 95
6, 283920, Note_off_c, 9, 36, 95
6, 283920, Note_on_c, 9, 54, 95
6, 283920, Note_on_c, 9, 38, 95
6, 283920, Note_on_c, 9, 36, 95
6, 284160, Note_off_c, 9, 54, 95
6, 284160, Note_off_c, 9, 38, 95
6, 284160, Note_off_c, 9, 36, 95
6, 284640, Note_on_c, 9, 54, 47
6, 284640, Note_on_c, 9, 40, 47
6, 284640, Note_on_c, 9, 36, 95
6, 284880, Note_off_c, 9, 54, 47
6, 284880, Note_off_c, 9, 40, 47
6, 284880, Note_off_c, 9, 36, 95
6, 284880, Note_on_c, 9, 54, 47
6, 284880, Note_on_c, 9, 40, 47
6, 284880, Note_on_c, 9, 36, 95
6, 285120, Note_off_c, 9, 54, 47
6, 285120, Note_off_c, 9, 40, 47
6, 285120, Note_off_c, 9, 36, 95
6, 285120, Note_on_c, 9, 54, 47
6, 285120, Note_on_c, 9, 40, 47
6, 285120, Note_on_c, 9, 36, 95
6, 285360, Note_off_c, 9, 54, 47
6, 285360, Note_off_c, 9, 40, 47
6, 285360, Note_off_c, 9, 36, 95
6, 285360, Note_on_c, 9, 54, 47
6, 285360, Note_on_c, 9, 40, 47
6, 285360, Note_on_c, 9, 36, 95
6, 285600, Note_off_c, 9, 54, 47
6, 285600, Note_off_c, 9, 40, 47
6, 285600, Note_off_c, 9, 36, 95
6, 286080, Note_on_c, 9, 54, 95
6, 286080, Note_on_c, 9, 38, 95
6, 286080, Note_on_c, 9, 36, 95
6, 286320, Note_off_c, 9, 54, 95
6, 286320, Note_off_c, 9, 38, 95
6, 286320, Note_off_c, 9, 36, 95
6, 286320, Note_on_c, 9, 54, 95
6, 286320, Note_on_c, 9, 38, 95
6, 286320, Note_on_c, 9, 36, 95
6, 286560, Note_off_c, 9, 54, 95
6, 286560, Note_off_c, 9, 38, 95
6, 286560, Note_off_c, 9, 36, 95
6, 286560, Note_on_c, 9, 54, 31
6, 286800, Note_off_c, 9, 54, 31
6, 286800, Note_on_c, 9, 54, 31
6, 287040, Note_off_c, 9, 54, 31
6, 287040, Note_on_c, 9, 54, 47
6, 287280, Note_off_c, 9, 54, 47
6, 287280, Note_on_c, 9, 54, 47
6, 287520, Note_off_c, 9, 54, 47
6, 287520, Note_on_c, 9, 54, 47
6, 287760, Note_off_c, 9, 54, 47
6, 287760, Note_on_c, 9, 54, 47
6, 288000, Note_off_c, 9, 54, 47
6, 288000, Note_on_c, 9, 54, 47
6, 288240, Note_off_c, 9, 54, 47
6, 288240, Note_on_c, 9, 54, 47
6, 288480, Note_off_c, 9, 54, 47
6, 288480, Note_on_c, 9, 54, 47
6, 288720, Note_off_c, 9, 54, 47
6, 288720, Note_on_c, 9, 54, 47
6, 288960, Note_off_c, 9, 54, 47
6, 288960, Note_on_c, 9, 54, 95
6, 288960, Note_on_c, 9, 38, 95
6, 288960, Note_on_c, 9, 36, 95
6, 289200, Note_off_c, 9, 54, 95
6, 289200, Note_off_c, 9, 38, 95
6, 289200, Note_off_c, 9, 36, 95
6, 289200, Note_on_c, 9, 54, 95
6, 289200, Note_on_c, 9, 38, 95
6, 289200, Note_on_c, 9, 36, 95
6, 289440, Note_off_c, 9, 54, 95
6, 289440, Note_off_c, 9, 38, 95
6, 289440, Note_off_c, 9, 36, 95
6, 289920, Note_on_c, 9, 54, 95
6, 289920, Note_on_c, 9, 38, 95
6, 289920, Note_on_c, 9, 36, 95
6, 290160, Note_off_c, 9, 54, 95
6, 290160, Note_off_c, 9, 38, 95
6, 290160, Note_off_c, 9, 36, 95
6, 290160, Note_on_c, 9, 54, 95
6, 290160, Note_on_c, 9, 38, 95
6, 290160, Note_on_c, 9, 36, 95
6, 290400, Note_off_c, 9, 54, 95
6, 290400, Note_off_c, 9, 38, 95
6, 290400, Note_off_c, 9, 36, 95
6, 290880, Note_on_c, 9, 40, 63
6, 291120, Note_off_c, 9, 40, 63
6, 291120, Note_on_c, 9, 40, 63
6, 291360, Note_off_c, 9, 40, 63
6, 291360, Note_on_c, 9, 40, 63
6, 291600, Note_off_c, 9, 40, 63
6, 291600, Note_on_c, 9, 54, 79
6, 291600, Note_on_c, 9, 40, 63
6, 291840, Note_off_c, 9, 54, 79
6, 291840, Note_off_c, 9, 40, 63
6, 292080, Note_on_c, 9, 40, 63
6, 292320, Note_off_c, 9, 40, 63
6, 292320, Note_on_c, 9, 40, 63
6, 292560, Note_off_c, 9, 40, 63
6, 292560, Note_on_c, 9, 40, 63
6, 292800, Note_off_c, 9, 40, 63
6, 292800, Note_on_c, 9, 54, 79
6, 292800, Note_on_c, 9, 40, 63
6, 293040, Note_off_c, 9, 54, 79
6, 293040, Note_off_c, 9, 40, 63
6, 293760, Note_on_c, 9, 54, 95
6, 293760, Note_on_c, 9, 38, 95
6, 293760, Note_on_c, 9, 36, 95
6, 294000, Note_off_c, 9, 54, 95
6, 294000, Note_off_c, 9, 38, 95
6, 294000, Note_off_c, 9, 36, 95
6, 294000, Note_on_c, 9, 54, 95
6, 294000, Note_on_c, 9, 38, 95
6, 294000, Note_on_c, 9, 36, 95
6, 294240, Note_off_c, 9, 54, 95
6, 294240, Note_off_c, 9, 38, 95
6, 294240, Note_off_c, 9, 36, 95
6, 294240, Note_on_c, 9, 54, 31
6, 294480, Note_off_c, 9, 54, 31
6, 294480, Note_on_c, 9, 54, 31
6, 294720, Note_off_c, 9, 54, 31
6, 294720, Note_on_c, 9, 54, 47
6, 294960, Note_off_c, 9, 54, 47
6, 294960, Note_on_c, 9, 54, 47
6, 295200, Note_off_c, 9, 54, 47
6, 295200, Note_on_c, 9, 54, 47
6, 295440, Note_off_c, 9, 54, 47
6, 295440, Note_on_c, 9, 54, 47
6, 295680, Note_off_c, 9, 54, 47
6, 295680, Note_on_c, 9, 54, 47
6, 295920, Note_off_c, 9, 54, 47
6, 295920, Note_on_c, 9, 54, 47
6, 296160, Note_off_c, 9, 54, 47
6, 296160, Note_on_c, 9, 54, 47
6, 296400, Note_off_c, 9, 54, 47
6, 296400, Note_on_c, 9, 54, 47
6, 296640, Note_off_c, 9, 54, 47
6, 296640, Note_on_c, 9, 54, 95
6, 296640, Note_on_c, 9, 38, 95
6, 296640, Note_on_c, 9, 36, 95
6, 296880, Note_off_c, 9, 54, 95
6, 296880, Note_off_c, 9, 38, 95
6, 296880, Note_off_c, 9, 36, 95
6, 296880, Note_on_c, 9, 54, 95
6, 296880, Note_on_c, 9, 38, 95
6, 296880, Note_on_c, 9, 36, 95
6, 297120, Note_off_c, 9, 54, 95
6, 297120, Note_off_c, 9, 38, 95
6, 297120, Note_off_c, 9, 36, 95
6, 297600, Note_on_c, 9, 54, 95
6, 297600, Note_on_c, 9, 38, 95
6, 297600, Note_on_c, 9, 36, 95
6, 297840, Note_off_c, 9, 54, 95
6, 297840, Note_off_c, 9, 38, 95
6, 297840, Note_off_c, 9, 36, 95
6, 297840, Note_on_c, 9, 54, 95
6, 297840, Note_on_c, 9, 38, 95
6, 297840, Note_on_c, 9, 36, 95
6, 298080, Note_off_c, 9, 54, 95
6, 298080, Note_off_c, 9, 38, 95
6, 298080, Note_off_c, 9, 36, 95
6, 298560, Note_on_c, 9, 54, 47
6, 298560, Note_on_c, 9, 40, 47
6, 298560, Note_on_c, 9, 36, 95
6, 298800, Note_off_c, 9, 54, 47
6, 298800, Note_off_c, 9, 40, 47
6, 298800, Note_off_c, 9, 36, 95
6, 298800, Note_on_c, 9, 54, 47
6, 298800, Note_on_c, 9, 40, 47
6, 298800, Note_on_c, 9, 36, 95
6, 299040, Note_off_c, 9, 54, 47
6, 299040, Note_off_c, 9, 40, 47
6, 299040, Note_off_c, 9, 36, 95
6, 299040, Note_on_c, 9, 54, 47
6, 299040, Note_on_c, 9, 40, 47
6, 299040, Note_on_c, 9, 36, 95
6, 299280, Note_off_c, 9, 54, 47
6, 299280, Note_off_c, 9, 40, 47
6, 299280, Note_off_c, 9, 36, 95
6, 299280, Note_on_c, 9, 54, 47
6, 299280, Note_on_c, 9, 40, 47
6, 299280, Note_on_c, 9, 36, 95
6, 299520, Note_off_c, 9, 54, 47
6, 299520, Note_off_c, 9, 40, 47
6, 299520, Note_off_c, 9, 36, 95
6, 300000, Note_on_c, 9, 54, 95
6, 300000, Note_on_c, 9, 38, 95
6, 300000, Note_on_c, 9, 36, 95
6, 300240, Note_off_c, 9, 54, 95
6, 300240, Note_off_c, 9, 38, 95
6, 300240, Note_off_c, 9, 36, 95
6, 300240, Note_on_c, 9, 54, 95
6, 300240, Note_on_c, 9, 38, 95
6, 300240, Note_on_c, 9, 36, 95
6, 300480, Note_off_c, 9, 54, 95
6, 300480, Note_off_c, 9, 38, 95
6, 300480, Note_off_c, 9, 36, 95
6, 300480, Note_on_c, 9, 54, 31
6, 300720, Note_off_c, 9, 54, 31
6, 300720, Note_on_c, 9, 54, 31
6, 300960, Note_off_c, 9, 54, 31
6, 300960, Note_on_c, 9, 54, 47
6, 301200, Note_off_c, 9, 54, 47
6, 301200, Note_on_c, 9, 54, 47
6, 301440, Note_off_c, 9, 54, 47
6, 301440, Note_on_c, 9, 54, 47
6, 301680, Note_off_c, 9, 54, 47
6, 301680, Note_on_c, 9, 54, 47
6, 301920, Note_off_c, 9, 54, 47
6, 301920, Note_on_c, 9, 54, 47
6, 302160, Note_off_c, 9, 54, 47
6, 302160, Note_on_c, 9, 54, 47
6, 302400, Note_off_c, 9, 54, 47
6, 302400, Note_on_c, 9, 54, 47
6, 302640, Note_off_c, 9, 54, 47
6, 302640, Note_on_c, 9, 54, 47
6, 302880, Note_off_c, 9, 54, 47
6, 302880, Note_on_c, 9, 54, 95
6, 302880, Note_on_c, 9, 38, 95
6, 302880, Note_on_c, 9, 36, 95
6, 303120, Note_off_c, 9, 54, 95
6, 303120, Note_off_c, 9, 38, 95
6, 303120, Note_off_c, 9, 36, 95
6, 303120, Note_on_c, 9, 54, 95
6, 303120, Note_on_c, 9, 38, 95
6, 303120, Note_on_c, 9, 36, 95
6, 303360, Note_off_c, 9, 54, 95
6, 303360, Note_off_c, 9, 38, 95
6, 303360, Note_off_c, 9, 36, 95
6, 303840, Note_on_c, 9, 54, 95
6, 303840, Note_on_c, 9, 38, 95
6, 303840, Note_on_c, 9, 36, 95
6, 304080, Note_off_c, 9, 54, 95
6, 304080, Note_off_c, 9, 38, 95
6, 304080, Note_off_c, 9, 36, 95
6, 304080, Note_on_c, 9, 54, 95
6, 304080, Note_on_c, 9, 38, 95
6, 304080, Note_on_c, 9, 36, 95
6, 304320, Note_off_c, 9, 54, 95
6, 304320, Note_off_c, 9, 38, 95
6, 304320, Note_off_c, 9, 36, 95
6, 304800, Note_on_c, 9, 40, 63
6, 305040, Note_off_c, 9, 40, 63
6, 305040, Note_on_c, 9, 40, 63
6, 305280, Note_off_c, 9, 40, 63
6, 305280, Note_on_c, 9, 40, 63
6, 305520, Note_off_c, 9, 40, 63
6, 305520, Note_on_c, 9, 54, 79
6, 305520, Note_on_c, 9, 40, 63
6, 305760, Note_off_c, 9, 54, 79
6, 305760, Note_off_c, 9, 40, 63
6, 306000, Note_on_c, 9, 40, 63
6, 306240, Note_off_c, 9, 40, 63
6, 306240, Note_on_c, 9, 40, 63
6, 306480, Note_off_c, 9, 40, 63
6, 306480, Note_on_c, 9, 40, 63
6, 306720, Note_off_c, 9, 40, 63
6, 306720, Note_on_c, 9, 54, 79
6, 306720, Note_on_c, 9, 40, 63
6, 306960, Note_off_c, 9, 54, 79
6, 306960, Note_off_c, 9, 40, 63
6, 307680, Note_on_c, 9, 54, 95
6, 307680, Note_on_c, 9, 38, 95
6, 307680, Note_on_c, 9, 36, 95
6, 307920, Note_off_c, 9, 54, 95
6, 307920, Note_off_c, 9, 38, 95
6, 307920, Note_off_c, 9, 36, 95
6, 307920, Note_on_c, 9, 54, 95
6, 307920, Note_on_c, 9, 38, 95
6, 307920, Note_on_c, 9, 36, 95
6, 308160, Note_off_c, 9, 54, 95
6, 308160, Note_off_c, 9, 38, 95
6, 308160, Note_off_c, 9, 36, 95
6, 308160, Note_on_c, 9, 54, 31
6, 308400, Note_off_c, 9, 54, 31
6, 308400, Note_on_c, 9, 54, 31
6, 308640, Note_off_c, 9, 54, 31
6, 308640, Note_on_c, 9, 54, 47
6, 308880, Note_off_c, 9, 54, 47
6, 308880, Note_on_c, 9, 54, 47
6, 309120, Note_off_c, 9, 54, 47
6, 309120, Note_on_c, 9, 54, 47
6, 309360, Note_off_c, 9, 54, 47
6, 309360, Note_on_c, 9, 54, 47
6, 309600, Note_off_c, 9, 54, 47
6, 309600, Note_on_c, 9, 54, 47
6, 309840, Note_off_c, 9, 54, 47
6, 309840, Note_on_c, 9, 54, 47
6, 310080, Note_off_c, 9, 54, 47
6, 310080, Note_on_c, 9, 54, 47
6, 310320, Note_off_c, 9, 54, 47
6, 310320, Note_on_c, 9, 54, 47
6, 310560, Note_off_c, 9, 54, 47
6, 310560, Note_on_c, 9, 54, 95
6, 310560, Note_on_c, 9, 38, 95
6, 310560, Note_on_c, 9, 36, 95
6, 310800, Note_off_c, 9, 54, 95
6, 310800, Note_off_c, 9, 38, 95
6, 310800, Note_off_c, 9, 36, 95
6, 310800, Note_on_c, 9, 54, 95
6, 310800, Note_on_c, 9, 38, 95
6, 310800, Note_on_c, 9, 36, 95
6, 311040, Note_off_c, 9, 54, 95
6, 311040, Note_off_c, 9, 38, 95
6, 311040, Note_off_c, 9, 36, 95
6, 311520, Note_on_c, 9, 54, 95
6, 311520, Note_on_c, 9, 38, 95
6, 311520, Note_on_c, 9, 36, 95
6, 311760, Note_off_c, 9, 54, 95
6, 311760, Note_off_c, 9, 38, 95
6, 311760, Note_off_c, 9, 36, 95
6, 311760, Note_on_c, 9, 54, 95
6, 311760, Note_on_c, 9, 38, 95
6, 311760, Note_on_c, 9, 36, 95
6, 312000, Note_off_c, 9, 54, 95
6, 312000, Note_off_c, 9, 38, 95
6, 312000, Note_off_c, 9, 36, 95
6, 312480, Note_on_c, 9, 54, 47
6, 312480, Note_on_c, 9, 40, 47
6, 312480, Note_on_c, 9, 36, 95
6, 312720, Note_off_c, 9, 54, 47
6, 312720, Note_off_c, 9, 40, 47
6, 312720, Note_off_c, 9, 36, 95
6, 312720, Note_on_c, 9, 54, 47
6, 312720, Note_on_c, 9, 40, 47
6, 312720, Note_on_c, 9, 36, 95
6, 312960, Note_off_c, 9, 54, 47
6, 312960, Note_off_c, 9, 40, 47
6, 312960, Note_off_c, 9, 36, 95
6, 312960, Note_on_c, 9, 54, 47
6, 312960, Note_on_c, 9, 40, 47
6, 312960, Note_on_c, 9, 36, 95
6, 313200, Note_off_c, 9, 54, 47
6, 313200, Note_off_c, 9, 40, 47
6, 313200, Note_off_c, 9, 36, 95
6, 313200, Note_on_c, 9, 54, 47
6, 313200, Note_on_c, 9, 40, 47
6, 313200, Note_on_c, 9, 36, 95
6, 313440, Note_off_c, 9, 54, 47
6, 313440, Note_off_c, 9, 40, 47
6, 313440, Note_off_c, 9, 36, 95
6, 313920, Note_on_c, 9, 54, 95
6, 313920, Note_on_c, 9, 38, 95
6, 313920, Note_on_c, 9, 36, 95
6, 314160, Note_off_c, 9, 54, 95
6, 314160, Note_off_c, 9, 38, 95
6, 314160, Note_off_c, 9, 36, 95
6, 314160, Note_on_c, 9, 54, 95
6, 314160, Note_on_c, 9, 38, 95
6, 314160, Note_on_c, 9, 36, 95
6, 314400, Note_off_c, 9, 54, 95
6, 314400, Note_off_c, 9, 38, 95
6, 314400, Note_off_c, 9, 36, 95
6, 314400, Note_on_c, 9, 54, 31
6, 314640, Note_off_c, 9, 54, 31
6, 314640, Note_on_c, 9, 54, 31
6, 314880, Note_off_c, 9, 54, 31
6, 314880, Note_on_c, 9, 54, 47
6, 315120, Note_off_c, 9, 54, 47
6, 315120, Note_on_c, 9, 54, 47
6, 315360, Note_off_c, 9, 54, 47
6, 315360, Note_on_c, 9, 54, 47
6, 315600, Note_off_c, 9, 54, 47
6, 315600, Note_on_c, 9, 54, 47
6, 315840, Note_off_c, 9, 54, 47
6, 315840, Note_on_c, 9, 54, 47
6, 316080, Note_off_c, 9, 54, 47
6, 316080, Note_on_c, 9, 54, 47
6, 316320, Note_off_c, 9, 54, 47
6, 316320, Note_on_c, 9, 54, 47
6, 316560, Note_off_c, 9, 54, 47
6, 316560, Note_on_c, 9, 54, 47
6, 316800, Note_off_c, 9, 54, 47
6, 316800, Note_on_c, 9, 54, 95
6, 316800, Note_on_c, 9, 38, 95
6, 316800, Note_on_c, 9, 36, 95
6, 317040, Note_off_c, 9, 54, 95
6, 317040, Note_off_c, 9, 38, 95
6, 317040, Note_off_c, 9, 36, 95
6, 317040, Note_on_c, 9, 54, 95
6, 317040, Note_on_c, 9, 38, 95
6, 317040, Note_on_c, 9, 36, 95
6, 317280, Note_off_c, 9, 54, 95
6, 317280, Note_off_c, 9, 38, 95
6, 317280, Note_off_c, 9, 36, 95
6, 317760, Note_on_c, 9, 54, 95
6, 317760, Note_on_c, 9, 38, 95
6, 317760, Note_on_c, 9, 36, 95
6, 318000, Note_off_c, 9, 54, 95
6, 318000, Note_off_c, 9, 38, 95
6, 318000, Note_off_c, 9, 36, 95
6, 318000, Note_on_c, 9, 54, 95
6, 318000, Note_on_c, 9, 38, 95
6, 318000, Note_on_c, 9, 36, 95
6, 318240, Note_off_c, 9, 54, 95
6, 318240, Note_off_c, 9, 38, 95
6, 318240, Note_off_c, 9, 36, 95
6, 318720, Note_on_c, 9, 40, 63
6, 318960, Note_off_c, 9, 40, 63
6, 318960, Note_on_c, 9, 40, 63
6, 319200, Note_off_c, 9, 40, 63
6, 319200, Note_on_c, 9, 40, 63
6, 319440, Note_off_c, 9, 40, 63
6, 319440, Note_on_c, 9, 54, 79
6, 319440, Note_on_c, 9, 40, 63
6, 319680, Note_off_c, 9, 54, 79
6, 319680, Note_off_c, 9, 40, 63
6, 319920, Note_on_c, 9, 40, 63
6, 320160, Note_off_c, 9, 40, 63
6, 320160, Note_on_c, 9, 40, 63
6, 320400, Note_off_c, 9, 40, 63
6, 320400, Note_on_c, 9, 40, 63
6, 320640, Note_off_c, 9, 40, 63
6, 320640, Note_on_c, 9, 54, 79
6, 320640, Note_on_c, 9, 40, 63
6, 320880, Note_off_c, 9, 54, 79
6, 320880, Note_off_c, 9, 40, 63
6, 321600, Note_on_c, 9, 54, 95
6, 321600, Note_on_c, 9, 38, 95
6, 321600, Note_on_c, 9, 36, 95
6, 321840, Note_off_c, 9, 54, 95
6, 321840, Note_off_c, 9, 38, 95
6, 321840, Note_off_c, 9, 36, 95
6, 321840, Note_on_c, 9, 54, 95
6, 321840, Note_on_c, 9, 38, 95
6, 321840, Note_on_c, 9, 36, 95
6, 322080, Note_off_c, 9, 54, 95
6, 322080, Note_off_c, 9, 38, 95
6, 322080, Note_off_c, 9, 36, 95
6, 322080, Note_on_c, 9, 54, 31
6, 322320, Note_off_c, 9, 54, 31
6, 322320, Note_on_c, 9, 54, 31
6, 322560, Note_off_c, 9, 54, 31
6, 322560, Note_on_c, 9, 54, 47
6, 322800, Note_off_c, 9, 54, 47
6, 322800, Note_on_c, 9, 54, 47
6, 323040, Note_off_c, 9, 54, 47
6, 323040, Note_on_c, 9, 54, 47
6, 323280, Note_off_c, 9, 54, 47
6, 323280, Note_on_c, 9, 54, 47
6, 323520, Note_off_c, 9, 54, 47
6, 323520, Note_on_c, 9, 54, 47
6, 323760, Note_off_c, 9, 54, 47
6, 323760, Note_on_c, 9, 54, 47
6, 324000, Note_off_c, 9, 54, 47
6, 324000, Note_on_c, 9, 54, 47
6, 324240, Note_off_c, 9, 54, 47
6, 324240, Note_on_c, 9, 54, 47
6, 324480, Note_off_c, 9, 54, 47
6, 324480, Note_on_c, 9, 54, 95
6, 324480, Note_on_c, 9, 38, 95
6, 324480, Note_on_c, 9, 36, 95
6, 324720, Note_off_c, 9, 54, 95
6, 324720, Note_off_c, 9, 38, 95
6, 324720, Note_off_c, 9, 36, 95
6, 324720, Note_on_c, 9, 54, 95
6, 324720, Note_on_c, 9, 38, 95
6, 324720, Note_on_c, 9, 36, 95
6, 324960, Note_off_c, 9, 54, 95
6, 324960, Note_off_c, 9, 38, 95
6, 324960, Note_off_c, 9, 36, 95
6, 325440, Note_on_c, 9, 54, 95
6, 325440, Note_on_c, 9, 38, 95
6, 325440, Note_on_c, 9, 36, 95
6, 325680, Note_off_c, 9, 54, 95
6, 325680, Note_off_c, 9, 38, 95
6, 325680, Note_off_c, 9, 36, 95
6, 325680, Note_on_c, 9, 54, 95
6, 325680, Note_on_c, 9, 38, 95
6, 325680, Note_on_c, 9, 36, 95
6, 325920, Note_off_c, 9, 54, 95
6, 325920, Note_off_c, 9, 38, 95
6, 325920, Note_off_c, 9, 36, 95
6, 326400, Note_on_c, 9, 54, 47
6, 326400, Note_on_c, 9, 40, 47
6, 326400, Note_on_c, 9, 36, 95
6, 326640, Note_off_c, 9, 54, 47
6, 326640, Note_off_c, 9, 40, 47
6, 326640, Note_off_c, 9, 36, 95
6, 326640, Note_on_c, 9, 54, 47
6, 326640, Note_on_c, 9, 40, 47
6, 326640, Note_on_c, 9, 36, 95
6, 326880, Note_off_c, 9, 54, 47
6, 326880, Note_off_c, 9, 40, 47
6, 326880, Note_off_c, 9, 36, 95
6, 326880, Note_on_c, 9, 54, 47
6, 326880, Note_on_c, 9, 40, 47
6, 326880, Note_on_c, 9, 36, 95
6, 327120, Note_off_c, 9, 54, 47
6, 327120, Note_off_c, 9, 40, 47
6, 327120, Note_off_c, 9, 36, 95
6, 327120, Note_on_c, 9, 54, 47
6, 327120, Note_on_c, 9, 40, 47
6, 327120, Note_on_c, 9, 36, 95
6, 327360, Note_off_c, 9, 54, 47
6, 327360, Note_off_c, 9, 40, 47
6, 327360, Note_off_c, 9, 36, 95
6, 327840, Note_on_c, 9, 54, 95
6, 327840, Note_on_c, 9, 38, 95
6, 327840, Note_on_c, 9, 36, 95
6, 328080, Note_off_c, 9, 54, 95
6, 328080, Note_off_c, 9, 38, 95
6, 328080, Note_off_c, 9, 36, 95
6, 328080, Note_on_c, 9, 54, 95
6, 328080, Note_on_c, 9, 38, 95
6, 328080, Note_on_c, 9, 36, 95
6, 328320, Note_off_c, 9, 54, 95
6, 328320, Note_off_c, 9, 38, 95
6, 328320, Note_off_c, 9, 36, 95
6, 328320, Note_on_c, 9, 54, 31
6, 328560, Note_off_c, 9, 54, 31
6, 328560, Note_on_c, 9, 54, 31
6, 328800, Note_off_c, 9, 54, 31
6, 328800, Note_on_c, 9, 54, 47
6, 329040, Note_off_c, 9, 54, 47
6, 329040, Note_on_c, 9, 54, 47
6, 329280, Note_off_c, 9, 54, 47
6, 329280, Note_on_c, 9, 54, 47
6, 329520, Note_off_c, 9, 54, 47
6, 329520, Note_on_c, 9, 54, 47
6, 329760, Note_off_c, 9, 54, 47
6, 329760, Note_on_c, 9, 54, 47
6, 330000, Note_off_c, 9, 54, 47
6, 330000, Note_on_c, 9, 54, 47
6, 330240, Note_off_c, 9, 54, 47
6, 330240, Note_on_c, 9, 54, 47
6, 330480, Note_off_c, 9, 54, 47
6, 330480, Note_on_c, 9, 54, 47
6, 330720, Note_off_c, 9, 54, 47
6, 330720, Note_on_c, 9, 54, 95
6, 330720, Note_on_c, 9, 38, 95
6, 330720, Note_on_c, 9, 36, 95
6, 330960, Note_off_c, 9, 54, 95
6, 330960, Note_off_c, 9, 38, 95
6, 330960, Note_off_c, 9, 36, 95
6, 330960, Note_on_c, 9, 54, 95
6, 330960, Note_on_c, 9, 38, 95
6, 330960, Note_on_c, 9, 36, 95
6, 331200, Note_off_c, 9, 54, 95
6, 331200, Note_off_c, 9, 38, 95
6, 331200, Note_off_c, 9, 36, 95
6, 331680, Note_on_c, 9, 54, 95
6, 331680, Note_on_c, 9, 38, 95
6, 331680, Note_on_c, 9, 36, 95
6, 331920, Note_off_c, 9, 54, 95
6, 331920, Note_off_c, 9, 38, 95
6, 331920, Note_off_c, 9, 36, 95
6, 331920, Note_on_c, 9, 54, 95
6, 331920, Note_on_c, 9, 38, 95
6, 331920, Note_on_c, 9, 36, 95
6, 332160, Note_off_c, 9, 54, 95
6, 332160, Note_off_c, 9, 38, 95
6, 332160, Note_off_c, 9, 36, 95
6, 332640, Note_on_c, 9, 40, 63
6, 332880, Note_off_c, 9, 40, 63
6, 332880, Note_on_c, 9, 40, 63
6, 333120, Note_off_c, 9, 40, 63
6, 333120, Note_on_c, 9, 40, 63
6, 333360, Note_off_c, 9, 40, 63
6, 333360, Note_on_c, 9, 54, 79
6, 333360, Note_on_c, 9, 40, 63
6, 333600, Note_off_c, 9, 54, 79
6, 333600, Note_off_c, 9, 40, 63
6, 333840, Note_on_c, 9, 40, 63
6, 334080, Note_off_c, 9, 40, 63
6, 334080, Note_on_c, 9, 40, 63
6, 334320, Note_off_c, 9, 40, 63
6, 334320, Note_on_c, 9, 40, 63
6, 334560, Note_off_c, 9, 40, 63
6, 334560, Note_on_c, 9, 54, 79
6, 334560, Note_on_c, 9, 40, 63
6, 334800, Note_off_c, 9, 54, 79
6, 334800, Note_off_c, 9, 40, 63
6, 335520, Note_on_c, 9, 54, 95
6, 335520, Note_on_c, 9, 38, 95
6, 335520, Note_on_c, 9, 36, 95
6, 335760, Note_off_c, 9, 54, 95
6, 335760, Note_off_c, 9, 38, 95
6, 335760, Note_off_c, 9, 36, 95
6, 335760, Note_on_c, 9, 54, 95
6, 335760, Note_on_c, 9, 38, 95
6, 335760, Note_on_c, 9, 36, 95
6, 336000, Note_off_c, 9, 54, 95
6, 336000, Note_off_c, 9, 38, 95
6, 336000, Note_off_c, 9, 36, 95
6, 336000, Note_on_c, 9, 54, 31
6, 336240, Note_off_c, 9, 54, 31
6, 336240, Note_on_c, 9, 54, 31
6, 336480, Note_off_c, 9, 54, 31
6, 336480, Note_on_c, 9, 54, 47
6, 336480, Note_on_c, 9, 40, 95
6, 336720, Note_off_c, 9, 54, 47
6, 336720, Note_off_c, 9, 40, 95
6, 336720, Note_on_c, 9, 54, 47
6, 336960, Note_off_c, 9, 54, 47
6, 336960, Note_on_c, 9, 54, 47
6, 337200, Note_off_c, 9, 54, 47
6, 337200, Note_on_c, 9, 54, 47
6, 337440, Note_off_c, 9, 54, 47
6, 337440, Note_on_c, 9, 54, 47
6, 337680, Note_off_c, 9, 54, 47
6, 337680, Note_on_c, 9, 54, 47
6, 337920, Note_off_c, 9, 54, 47
6, 337920, Note_on_c, 9, 54, 47
6, 338160, Note_off_c, 9, 54, 47
6, 338160, Note_on_c, 9, 54, 47
6, 338400, Note_off_c, 9, 54, 47
6, 338400, Note_on_c, 9, 54, 95
6, 338400, Note_on_c, 9, 38, 95
6, 338400, Note_on_c, 9, 36, 95
6, 338640, Note_off_c, 9, 54, 95
6, 338640, Note_off_c, 9, 38, 95
6, 338640, Note_off_c, 9, 36, 95
6, 338640, Note_on_c, 9, 54, 95
6, 338640, Note_on_c, 9, 38, 95
6, 338640, Note_on_c, 9, 36, 95
6, 338880, Note_off_c, 9, 54, 95
6, 338880, Note_off_c, 9, 38, 95
6, 338880, Note_off_c, 9, 36, 95
6, 339360, Note_on_c, 9, 54, 95
6, 339360, Note_on_c, 9, 38, 95
6, 339360, Note_on_c, 9, 36, 95
6, 339600, Note_off_c, 9, 54, 95
6, 339600, Note_off_c, 9, 38, 95
6, 339600, Note_off_c, 9, 36, 95
6, 339600, Note_on_c, 9, 54, 95
6, 339600, Note_on_c, 9, 38, 95
6, 339600, Note_on_c, 9, 36, 95
6, 339840, Note_off_c, 9, 54, 95
6, 339840, Note_off_c, 9, 38, 95
6, 339840, Note_off_c, 9, 36, 95
6, 340320, Note_on_c, 9, 54, 47
6, 340320, Note_on_c, 9, 40, 47
6, 340320, Note_on_c, 9, 36, 95
6, 340560, Note_off_c, 9, 54, 47
6, 340560, Note_off_c, 9, 40, 47
6, 340560, Note_off_c, 9, 36, 95
6, 340560, Note_on_c, 9, 54, 47
6, 340560, Note_on_c, 9, 40, 47
6, 340560, Note_on_c, 9, 36, 95
6, 340800, Note_off_c, 9, 54, 47
6, 340800, Note_off_c, 9, 40, 47
6, 340800, Note_off_c, 9, 36, 95
6, 340800, Note_on_c, 9, 54, 47
6, 340800, Note_on_c, 9, 40, 47
6, 340800, Note_on_c, 9, 36, 95
6, 341040, Note_off_c, 9, 54, 47
6, 341040, Note_off_c, 9, 40, 47
6, 341040, Note_off_c, 9, 36, 95
6, 341040, Note_on_c, 9, 54, 47
6, 341040, Note_on_c, 9, 40, 47
6, 341040, Note_on_c, 9, 36, 95
6, 341280, Note_off_c, 9, 54, 47
6, 341280, Note_off_c, 9, 40, 47
6, 341280, Note_off_c, 9, 36, 95
6, 341760, Note_on_c, 9, 54, 95
6, 341760, Note_on_c, 9, 38, 95
6, 341760, Note_on_c, 9, 36, 95
6, 342000, Note_off_c, 9, 54, 95
6, 342000, Note_off_c, 9, 38, 95
6, 342000, Note_off_c, 9, 36, 95
6, 342000, Note_on_c, 9, 54, 95
6, 342000, Note_on_c, 9, 38, 95
6, 342000, Note_on_c, 9, 36, 95
6, 342240, Note_off_c, 9, 54, 95
6, 342240, Note_off_c, 9, 38, 95
6, 342240, Note_off_c, 9, 36, 95
6, 342240, Note_on_c, 9, 54, 31
6, 342480, Note_off_c, 9, 54, 31
6, 342480, Note_on_c, 9, 54, 31
6, 342720, Note_off_c, 9, 54, 31
6, 342720, Note_on_c, 9, 54, 47
6, 342720, Note_on_c, 9, 40, 95
6, 342960, Note_off_c, 9, 54, 47
6, 342960, Note_off_c, 9, 40, 95
6, 342960, Note_on_c, 9, 54, 47
6, 343200, Note_off_c, 9, 54, 47
6, 343200, Note_on_c, 9, 54, 47
6, 343200, Note_on_c, 9, 38, 95
6, 343440, Note_off_c, 9, 54, 47
6, 343440, Note_off_c, 9, 38, 95
6, 343440, Note_on_c, 9, 54, 47
6, 343440, Note_on_c, 9, 40, 95
6, 343680, Note_off_c, 9, 54, 47
6, 343680, Note_off_c, 9, 40, 95
6, 343680, Note_on_c, 9, 54, 47
6, 343920, Note_off_c, 9, 54, 47
6, 343920, Note_on_c, 9, 54, 47
6, 344160, Note_off_c, 9, 54, 47
6, 344160, Note_on_c, 9, 54, 47
6, 344400, Note_off_c, 9, 54, 47
6, 344400, Note_on_c, 9, 54, 47
6, 344640, Note_off_c, 9, 54, 47
6, 344640, Note_on_c, 9, 54, 95
6, 344640, Note_on_c, 9, 38, 95
6, 344640, Note_on_c, 9, 36, 95
6, 344880, Note_off_c, 9, 54, 95
6, 344880, Note_off_c, 9, 38, 95
6, 344880, Note_off_c, 9, 36, 95
6, 344880, Note_on_c, 9, 54, 95
6, 344880, Note_on_c, 9, 38, 95
6, 344880, Note_on_c, 9, 36, 95
6, 345120, Note_off_c, 9, 54, 95
6, 345120, Note_off_c, 9, 38, 95
6, 345120, Note_off_c, 9, 36, 95
6, 345600, Note_on_c, 9, 54, 95
6, 345600, Note_on_c, 9, 38, 95
6, 345600, Note_on_c, 9, 36, 95
6, 345840, Note_off_c, 9, 54, 95
6, 345840, Note_off_c, 9, 38, 95
6, 345840, Note_off_c, 9, 36, 95
6, 345840, Note_on_c, 9, 54, 95
6, 345840, Note_on_c, 9, 38, 95
6, 345840, Note_on_c, 9, 36, 95
6, 346080, Note_off_c, 9, 54, 95
6, 346080, Note_off_c, 9, 38, 95
6, 346080, Note_off_c, 9, 36, 95
6, 346560, Note_on_c, 9, 40, 63
6, 346800, Note_off_c, 9, 40, 63
6, 346800, Note_on_c, 9, 40, 63
6, 347040, Note_off_c, 9, 40, 63
6, 347040, Note_on_c, 9, 40, 63
6, 347280, Note_off_c, 9, 40, 63
6, 347280, Note_on_c, 9, 54, 79
6, 347280, Note_on_c, 9, 40, 63
6, 347520, Note_off_c, 9, 54, 79
6, 347520, Note_off_c, 9, 40, 63
6, 347760, Note_on_c, 9, 40, 63
6, 348000, Note_off_c, 9, 40, 63
6, 348000, Note_on_c, 9, 40, 63
6, 348240, Note_off_c, 9, 40, 63
6, 348240, Note_on_c, 9, 40, 63
6, 348480, Note_off_c, 9, 40, 63
6, 348480, Note_on_c, 9, 54, 79
6, 348480, Note_on_c, 9, 40, 63
6, 348720, Note_off_c, 9, 54, 79
6, 348720, Note_off_c, 9, 40, 63
6, 349440, Note_on_c, 9, 54, 95
6, 349440, Note_on_c, 9, 38, 95
6, 349440, Note_on_c, 9, 36, 95
6, 349680, Note_off_c, 9, 54, 95
6, 349680, Note_off_c, 9, 38, 95
6, 349680, Note_off_c, 9, 36, 95
6, 349680, Note_on_c, 9, 54, 95
6, 349680, Note_on_c, 9, 38, 95
6, 349680, Note_on_c, 9, 36, 95
6, 349920, Note_off_c, 9, 54, 95
6, 349920, Note_off_c, 9, 38, 95
6, 349920, Note_off_c, 9, 36, 95
6, 349920, Note_on_c, 9, 54, 31
6, 350160, Note_off_c, 9, 54, 31
6, 350160, Note_on_c, 9, 54, 31
6, 350160, Note_on_c, 9, 36, 95
6, 350400, Note_off_c, 9, 54, 31
6, 350400, Note_off_c, 9, 36, 95
6, 350400, Note_on_c, 9, 54, 47
6, 350400, Note_on_c, 9, 40, 95
6, 350640, Note_off_c, 9, 54, 47
6, 350640, Note_off_c, 9, 40, 95
6, 350640, Note_on_c, 9, 54, 47
6, 350640, Note_on_c, 9, 36, 95
6, 350880, Note_off_c, 9, 54, 47
6, 350880, Note_off_c, 9, 36, 95
6, 350880, Note_on_c, 9, 54, 47
6, 350880, Note_on_c, 9, 35, 95
6, 351120, Note_off_c, 9, 54, 47
6, 351120, Note_off_c, 9, 35, 95
6, 351120, Note_on_c, 9, 54, 47
6, 351120, Note_on_c, 9, 40, 95
6, 351360, Note_off_c, 9, 54, 47
6, 351360, Note_off_c, 9, 40, 95
6, 351360, Note_on_c, 9, 54, 47
6, 351600, Note_off_c, 9, 54, 47
6, 351600, Note_on_c, 9, 54, 47
6, 351840, Note_off_c, 9, 54, 47
6, 351840, Note_on_c, 9, 54, 47
6, 352080, Note_off_c, 9, 54, 47
6, 352080, Note_on_c, 9, 54, 47
6, 352320, Note_off_c, 9, 54, 47
6, 352320, Note_on_c, 9, 54, 95
6, 352320, Note_on_c, 9, 38, 95
6, 352320, Note_on_c, 9, 36, 95
6, 352560, Note_off_c, 9, 54, 95
6, 352560, Note_off_c, 9, 38, 95
6, 352560, Note_off_c, 9, 36, 95
6, 352560, Note_on_c, 9, 54, 95
6, 352560, Note_on_c, 9, 38, 95
6, 352560, Note_on_c, 9, 36, 95
6, 352800, Note_off_c, 9, 54, 95
6, 352800, Note_off_c, 9, 38, 95
6, 352800, Note_off_c, 9, 36, 95
6, 353280, Note_on_c, 9, 54, 95
6, 353280, Note_on_c, 9, 38, 95
6, 353280, Note_on_c, 9, 36, 95
6, 353520, Note_off_c, 9, 54, 95
6, 353520, Note_off_c, 9, 38, 95
6, 353520, Note_off_c, 9, 36, 95
6, 353520, Note_on_c, 9, 54, 95
6, 353520, Note_on_c, 9, 38, 95
6, 353520, Note_on_c, 9, 36, 95
6, 353760, Note_off_c, 9, 54, 95
6, 353760, Note_off_c, 9, 38, 95
6, 353760, Note_off_c, 9, 36, 95
6, 354240, Note_on_c, 9, 54, 47
6, 354240, Note_on_c, 9, 40, 47
6, 354240, Note_on_c, 9, 36, 95
6, 354480, Note_off_c, 9, 54, 47
6, 354480, Note_off_c, 9, 40, 47
6, 354480, Note_off_c, 9, 36, 95
6, 354480, Note_on_c, 9, 54, 47
6, 354480, Note_on_c, 9, 40, 47
6, 354480, Note_on_c, 9, 36, 95
6, 354720, Note_off_c, 9, 54, 47
6, 354720, Note_off_c, 9, 40, 47
6, 354720, Note_off_c, 9, 36, 95
6, 354720, Note_on_c, 9, 54, 47
6, 354720, Note_on_c, 9, 40, 47
6, 354720, Note_on_c, 9, 36, 95
6, 354960, Note_off_c, 9, 54, 47
6, 354960, Note_off_c, 9, 40, 47
6, 354960, Note_off_c, 9, 36, 95
6, 354960, Note_on_c, 9, 54, 47
6, 354960, Note_on_c, 9, 40, 47
6, 354960, Note_on_c, 9, 36, 95
6, 355200, Note_off_c, 9, 54, 47
6, 355200, Note_off_c, 9, 40, 47
6, 355200, Note_off_c, 9, 36, 95
6, 355680, Note_on_c, 9, 54, 95
6, 355680, Note_on_c, 9, 38, 95
6, 355680, Note_on_c, 9, 36, 95
6, 355920, Note_off_c, 9, 54, 95
6, 355920, Note_off_c, 9, 38, 95
6, 355920, Note_off_c, 9, 36, 95
6, 355920, Note_on_c, 9, 54, 95
6, 355920, Note_on_c, 9, 38, 95
6, 355920, Note_on_c, 9, 36, 95
6, 356160, Note_off_c, 9, 54, 95
6, 356160, Note_off_c, 9, 38, 95
6, 356160, Note_off_c, 9, 36, 95
6, 356160, Note_on_c, 9, 54, 31
6, 356400, Note_off_c, 9, 54, 31
6, 356400, Note_on_c, 9, 54, 31
6, 356640, Note_off_c, 9, 54, 31
6, 356640, Note_on_c, 9, 54, 47
6, 356640, Note_on_c, 9, 40, 95
6, 356880, Note_off_c, 9, 54, 47
6, 356880, Note_off_c, 9, 40, 95
6, 356880, Note_on_c, 9, 54, 47
6, 357120, Note_off_c, 9, 54, 47
6, 357120, Note_on_c, 9, 54, 47
6, 357360, Note_off_c, 9, 54, 47
6, 357360, Note_on_c, 9, 54, 47
6, 357600, Note_off_c, 9, 54, 47
6, 357600, Note_on_c, 9, 54, 47
6, 357840, Note_off_c, 9, 54, 47
6, 357840, Note_on_c, 9, 54, 47
6, 358080, Note_off_c, 9, 54, 47
6, 358080, Note_on_c, 9, 54, 47
6, 358320, Note_off_c, 9, 54, 47
6, 358320, Note_on_c, 9, 54, 47
6, 358560, Note_off_c, 9, 54, 47
6, 358560, Note_on_c, 9, 54, 95
6, 358560, Note_on_c, 9, 38, 95
6, 358560, Note_on_c, 9, 36, 95
6, 358800, Note_off_c, 9, 54, 95
6, 358800, Note_off_c, 9, 38, 95
6, 358800, Note_off_c, 9, 36, 95
6, 358800, Note_on_c, 9, 54, 95
6, 358800, Note_on_c, 9, 38, 95
6, 358800, Note_on_c, 9, 36, 95
6, 359040, Note_off_c, 9, 54, 95
6, 359040, Note_off_c, 9, 38, 95
6, 359040, Note_off_c, 9, 36, 95
6, 359520, Note_on_c, 9, 54, 95
6, 359520, Note_on_c, 9, 38, 95
6, 359520, Note_on_c, 9, 36, 95
6, 359760, Note_off_c, 9, 54, 95
6, 359760, Note_off_c, 9, 38, 95
6, 359760, Note_off_c, 9, 36, 95
6, 359760, Note_on_c, 9, 54, 95
6, 359760, Note_on_c, 9, 38, 95
6, 359760, Note_on_c, 9, 36, 95
6, 360000, Note_off_c, 9, 54, 95
6, 360000, Note_off_c, 9, 38, 95
6, 360000, Note_off_c, 9, 36, 95
6, 360480, Note_on_c, 9, 40, 63
6, 360720, Note_off_c, 9, 40, 63
6, 360720, Note_on_c, 9, 40, 63
6, 360960, Note_off_c, 9, 40, 63
6, 360960, Note_on_c, 9, 40, 63
6, 361200, Note_off_c, 9, 40, 63
6, 361200, Note_on_c, 9, 54, 79
6, 361200, Note_on_c, 9, 40, 63
6, 361440, Note_off_c, 9, 54, 79
6, 361440, Note_off_c, 9, 40, 63
6, 361680, Note_on_c, 9, 40, 63
6, 361920, Note_off_c, 9, 40, 63
6, 361920, Note_on_c, 9, 40, 63
6, 362160, Note_off_c, 9, 40, 63
6, 362160, Note_on_c, 9, 40, 63
6, 362400, Note_off_c, 9, 40, 63
6, 362400, Note_on_c, 9, 54, 79
6, 362400, Note_on_c, 9, 40, 63
6, 362640, Note_off_c, 9, 54, 79
6, 362640, Note_off_c, 9, 40, 63
6, 363360, Note_on_c, 9, 54, 95
6, 363360, Note_on_c, 9, 38, 95
6, 363360, Note_on_c, 9, 36, 95
6, 363600, Note_off_c, 9, 54, 95
6, 363600, Note_off_c, 9, 38, 95
6, 363600, Note_off_c, 9, 36, 95
6, 363600, Note_on_c, 9, 54, 95
6, 363600, Note_on_c, 9, 38, 95
6, 363600, Note_on_c, 9, 36, 95
6, 363840, Note_off_c, 9, 54, 95
6, 363840, Note_off_c, 9, 38, 95
6, 363840, Note_off_c, 9, 36, 95
6, 363840, Note_on_c, 9, 54, 31
6, 364080, Note_off_c, 9, 54, 31
6, 364080, Note_on_c, 9, 54, 31
6, 364320, Note_off_c, 9, 54, 31
6, 364320, Note_on_c, 9, 54, 47
6, 364320, Note_on_c, 9, 40, 95
6, 364560, Note_off_c, 9, 54, 47
6, 364560, Note_off_c, 9, 40, 95
6, 364560, Note_on_c, 9, 54, 47
6, 364800, Note_off_c, 9, 54, 47
6, 364800, Note_on_c, 9, 54, 47
6, 365040, Note_off_c, 9, 54, 47
6, 365040, Note_on_c, 9, 54, 47
6, 365280, Note_off_c, 9, 54, 47
6, 365280, Note_on_c, 9, 54, 47
6, 365520, Note_off_c, 9, 54, 47
6, 365520, Note_on_c, 9, 54, 47
6, 365760, Note_off_c, 9, 54, 47
6, 365760, Note_on_c, 9, 54, 47
6, 366000, Note_off_c, 9, 54, 47
6, 366000, Note_on_c, 9, 54, 47
6, 366240, Note_off_c, 9, 54, 47
6, 366240, Note_on_c, 9, 54, 95
6, 366240, Note_on_c, 9, 38, 95
6, 366240, Note_on_c, 9, 36, 95
6, 366480, Note_off_c, 9, 54, 95
6, 366480, Note_off_c, 9, 38, 95
6, 366480, Note_off_c, 9, 36, 95
6, 366480, Note_on_c, 9, 54, 95
6, 366480, Note_on_c, 9, 38, 95
6, 366480, Note_on_c, 9, 36, 95
6, 366720, Note_off_c, 9, 54, 95
6, 366720, Note_off_c, 9, 38, 95
6, 366720, Note_off_c, 9, 36, 95
6, 367200, Note_on_c, 9, 54, 95
6, 367200, Note_on_c, 9, 38, 95
6, 367200, Note_on_c, 9, 36, 95
6, 367440, Note_off_c, 9, 54, 95
6, 367440, Note_off_c, 9, 38, 95
6, 367440, Note_off_c, 9, 36, 95
6, 367440, Note_on_c, 9, 54, 95
6, 367440, Note_on_c, 9, 38, 95
6, 367440, Note_on_c, 9, 36, 95
6, 367680, Note_off_c, 9, 54, 95
6, 367680, Note_off_c, 9, 38, 95
6, 367680, Note_off_c, 9, 36, 95
6, 368160, Note_on_c, 9, 54, 47
6, 368160, Note_on_c, 9, 40, 47
6, 368160, Note_on_c, 9, 36, 95
6, 368400, Note_off_c, 9, 54, 47
6, 368400, Note_off_c, 9, 40, 47
6, 368400, Note_off_c, 9, 36, 95
6, 368400, Note_on_c, 9, 54, 47
6, 368400, Note_on_c, 9, 40, 47
6, 368400, Note_on_c, 9, 36, 95
6, 368640, Note_off_c, 9, 54, 47
6, 368640, Note_off_c, 9, 40, 47
6, 368640, Note_off_c, 9, 36, 95
6, 368640, Note_on_c, 9, 54, 47
6, 368640, Note_on_c, 9, 40, 47
6, 368640, Note_on_c, 9, 36, 95
6, 368880, Note_off_c, 9, 54, 47
6, 368880, Note_off_c, 9, 40, 47
6, 368880, Note_off_c, 9, 36, 95
6, 368880, Note_on_c, 9, 54, 47
6, 368880, Note_on_c, 9, 40, 47
6, 368880, Note_on_c, 9, 36, 95
6, 369120, Note_off_c, 9, 54, 47
6, 369120, Note_off_c, 9, 40, 47
6, 369120, Note_off_c, 9, 36, 95
6, 369600, Note_on_c, 9, 54, 95
6, 369600, Note_on_c, 9, 38, 95
6, 369600, Note_on_c, 9, 36, 95
6, 369840, Note_off_c, 9, 54, 95
6, 369840, Note_off_c, 9, 38, 95
6, 369840, Note_off_c, 9, 36, 95
6, 369840, Note_on_c, 9, 54, 95
6, 369840, Note_on_c, 9, 38, 95
6, 369840, Note_on_c, 9, 36, 95
6, 370080, Note_off_c, 9, 54, 95
6, 370080, Note_off_c, 9, 38, 95
6, 370080, Note_off_c, 9, 36, 95
6, 370080, Note_on_c, 9, 54, 31
6, 370320, Note_off_c, 9, 54, 31
6, 370320, Note_on_c, 9, 54, 31
6, 370560, Note_off_c, 9, 54, 31
6, 370560, Note_on_c, 9, 54, 47
6, 370560, Note_on_c, 9, 40, 95
6, 370800, Note_off_c, 9, 54, 47
6, 370800, Note_off_c, 9, 40, 95
6, 370800, Note_on_c, 9, 54, 47
6, 371040, Note_off_c, 9, 54, 47
6, 371040, Note_on_c, 9, 54, 47
6, 371040, Note_on_c, 9, 36, 95
6, 371280, Note_off_c, 9, 54, 47
6, 371280, Note_off_c, 9, 36, 95
6, 371280, Note_on_c, 9, 54, 47
6, 371280, Note_on_c, 9, 40, 95
6, 371520, Note_off_c, 9, 54, 47
6, 371520, Note_off_c, 9, 40, 95
6, 371520, Note_on_c, 9, 54, 47
6, 371760, Note_off_c, 9, 54, 47
6, 371760, Note_on_c, 9, 54, 47
6, 372000, Note_off_c, 9, 54, 47
6, 372000, Note_on_c, 9, 54, 47
6, 372240, Note_off_c, 9, 54, 47
6, 372240, Note_on_c, 9, 54, 47
6, 372480, Note_off_c, 9, 54, 47
6, 372480, Note_on_c, 9, 54, 95
6, 372480, Note_on_c, 9, 38, 95
6, 372480, Note_on_c, 9, 36, 95
6, 372720, Note_off_c, 9, 54, 95
6, 372720, Note_off_c, 9, 38, 95
6, 372720, Note_off_c, 9, 36, 95
6, 372720, Note_on_c, 9, 54, 95
6, 372720, Note_on_c, 9, 38, 95
6, 372720, Note_on_c, 9, 36, 95
6, 372960, Note_off_c, 9, 54, 95
6, 372960, Note_off_c, 9, 38, 95
6, 372960, Note_off_c, 9, 36, 95
6, 373440, Note_on_c, 9, 54, 95
6, 373440, Note_on_c, 9, 38, 95
6, 373440, Note_on_c, 9, 36, 95
6, 373680, Note_off_c, 9, 54, 95
6, 373680, Note_off_c, 9, 38, 95
6, 373680, Note_off_c, 9, 36, 95
6, 373680, Note_on_c, 9, 54, 95
6, 373680, Note_on_c, 9, 38, 95
6, 373680, Note_on_c, 9, 36, 95
6, 373920, Note_off_c, 9, 54, 95
6, 373920, Note_off_c, 9, 38, 95
6, 373920, Note_off_c, 9, 36, 95
6, 374400, Note_on_c, 9, 40, 63
6, 374640, Note_off_c, 9, 40, 63
6, 374640, Note_on_c, 9, 40, 63
6, 374880, Note_off_c, 9, 40, 63
6, 374880, Note_on_c, 9, 40, 63
6, 375120, Note_off_c, 9, 40, 63
6, 375120, Note_on_c, 9, 54, 79
6, 375120, Note_on_c, 9, 40, 63
6, 375360, Note_off_c, 9, 54, 79
6, 375360, Note_off_c, 9, 40, 63
6, 375600, Note_on_c, 9, 40, 63
6, 375840, Note_off_c, 9, 40, 63
6, 375840, Note_on_c, 9, 40, 63
6, 376080, Note_off_c, 9, 40, 63
6, 376080, Note_on_c, 9, 40, 63
6, 376320, Note_off_c, 9, 40, 63
6, 376320, Note_on_c, 9, 54, 79
6, 376320, Note_on_c, 9, 40, 63
6, 376560, Note_off_c, 9, 54, 79
6, 376560, Note_off_c, 9, 40, 63
6, 377280, Note_on_c, 9, 54, 95
6, 377280, Note_on_c, 9, 38, 95
6, 377280, Note_on_c, 9, 36, 95
6, 377520, Note_off_c, 9, 54, 95
6, 377520, Note_off_c, 9, 38, 95
6, 377520, Note_off_c, 9, 36, 95
6, 377520, Note_on_c, 9, 54, 95
6, 377520, Note_on_c, 9, 38, 95
6, 377520, Note_on_c, 9, 36, 95
6, 377760, Note_off_c, 9, 54, 95
6, 377760, Note_off_c, 9, 38, 95
6, 377760, Note_off_c, 9, 36, 95
6, 377760, Note_on_c, 9, 54, 31
6, 378000, Note_off_c, 9, 54, 31
6, 378000, Note_on_c, 9, 54, 31
6, 378000, Note_on_c, 9, 36, 95
6, 378240, Note_off_c, 9, 54, 31
6, 378240, Note_off_c, 9, 36, 95
6, 378240, Note_on_c, 9, 54, 47
6, 378240, Note_on_c, 9, 40, 95
6, 378480, Note_off_c, 9, 54, 47
6, 378480, Note_off_c, 9, 40, 95
6, 378480, Note_on_c, 9, 54, 47
6, 378480, Note_on_c, 9, 36, 95
6, 378720, Note_off_c, 9, 54, 47
6, 378720, Note_off_c, 9, 36, 95
6, 378720, Note_on_c, 9, 54, 47
6, 378720, Note_on_c, 9, 35, 95
6, 378960, Note_off_c, 9, 54, 47
6, 378960, Note_off_c, 9, 35, 95
6, 378960, Note_on_c, 9, 54, 47
6, 378960, Note_on_c, 9, 40, 95
6, 379200, Note_off_c, 9, 54, 47
6, 379200, Note_off_c, 9, 40, 95
6, 379200, Note_on_c, 9, 54, 47
6, 379440, Note_off_c, 9, 54, 47
6, 379440, Note_on_c, 9, 54, 47
6, 379680, Note_off_c, 9, 54, 47
6, 379680, Note_on_c, 9, 54, 47
6, 379680, Note_on_c, 9, 40, 95
6, 379920, Note_off_c, 9, 54, 47
6, 379920, Note_off_c, 9, 40, 95
6, 379920, Note_on_c, 9, 54, 47
6, 379920, Note_on_c, 9, 40, 95
6, 380160, Note_off_c, 9, 54, 47
6, 380160, Note_off_c, 9, 40, 95
6, 380160, Note_on_c, 9, 54, 95
6, 380160, Note_on_c, 9, 38, 95
6, 380160, Note_on_c, 9, 36, 95
6, 380400, Note_off_c, 9, 54, 95
6, 380400, Note_off_c, 9, 38, 95
6, 380400, Note_off_c, 9, 36, 95
6, 380400, Note_on_c, 9, 54, 95
6, 380400, Note_on_c, 9, 38, 95
6, 380400, Note_on_c, 9, 36, 95
6, 380640, Note_off_c, 9, 54, 95
6, 380640, Note_off_c, 9, 38, 95
6, 380640, Note_off_c, 9, 36, 95
6, 381120, Note_on_c, 9, 54, 95
6, 381120, Note_on_c, 9, 38, 95
6, 381120, Note_on_c, 9, 36, 95
6, 381360, Note_off_c, 9, 54, 95
6, 381360, Note_off_c, 9, 38, 95
6, 381360, Note_off_c, 9, 36, 95
6, 381360, Note_on_c, 9, 54, 95
6, 381360, Note_on_c, 9, 38, 95
6, 381360, Note_on_c, 9, 36, 95
6, 381600, Note_off_c, 9, 54, 95
6, 381600, Note_off_c, 9, 38, 95
6, 381600, Note_off_c, 9, 36, 95
6, 382080, Note_on_c, 9, 54, 47
6, 382080, Note_on_c, 9, 40, 47
6, 382080, Note_on_c, 9, 36, 95
6, 382320, Note_off_c, 9, 54, 47
6, 382320, Note_off_c, 9, 40, 47
6, 382320, Note_off_c, 9, 36, 95
6, 382320, Note_on_c, 9, 54, 47
6, 382320, Note_on_c, 9, 40, 47
6, 382320, Note_on_c, 9, 36, 95
6, 382560, Note_off_c, 9, 54, 47
6, 382560, Note_off_c, 9, 40, 47
6, 382560, Note_off_c, 9, 36, 95
6, 382560, Note_on_c, 9, 54, 47
6, 382560, Note_on_c, 9, 40, 47
6, 382560, Note_on_c, 9, 36, 95
6, 382800, Note_off_c, 9, 54, 47
6, 382800, Note_off_c, 9, 40, 47
6, 382800, Note_off_c, 9, 36, 95
6, 382800, Note_on_c, 9, 54, 47
6, 382800, Note_on_c, 9, 40, 47
6, 382800, Note_on_c, 9, 36, 95
6, 383040, Note_off_c, 9, 54, 47
6, 383040, Note_off_c, 9, 40, 47
6, 383040, Note_off_c, 9, 36, 95
6, 383520, Note_on_c, 9, 54, 95
6, 383520, Note_on_c, 9, 38, 95
6, 383520, Note_on_c, 9, 36, 95
6, 383760, Note_off_c, 9, 54, 95
6, 383760, Note_off_c, 9, 38, 95
6, 383760, Note_off_c, 9, 36, 95
6, 383760, Note_on_c, 9, 54, 95
6, 383760, Note_on_c, 9, 38, 95
6, 383760, Note_on_c, 9, 36, 95
6, 384000, Note_off_c, 9, 54, 95
6, 384000, Note_off_c, 9, 38, 95
6, 384000, Note_off_c, 9, 36, 95
6, 384000, Note_on_c, 9, 36, 95
6, 384240, Note_off_c, 9, 36, 95
6, 384240, Note_on_c, 9, 36, 95
6, 384480, Note_off_c, 9, 36, 95
6, 384480, Note_on_c, 9, 40, 63
6, 384720, Note_off_c, 9, 40, 63
6, 384720, Note_on_c, 9, 40, 63
6, 384960, Note_off_c, 9, 40, 63
6, 384960, Note_on_c, 9, 40, 63
6, 385200, Note_off_c, 9, 40, 63
6, 385200, Note_on_c, 9, 40, 79
6, 385440, Note_off_c, 9, 40, 79
6, 385440, Note_on_c, 9, 40, 79
6, 385680, Note_off_c, 9, 40, 79
6, 385680, Note_on_c, 9, 40, 79
6, 385920, Note_off_c, 9, 40, 79
6, 385920, Note_on_c, 9, 40, 95
6, 386160, Note_off_c, 9, 40, 95
6, 386160, Note_on_c, 9, 40, 95
6, 386400, Note_off_c, 9, 40, 95
6, 386400, Note_on_c, 9, 54, 95
6, 386400, Note_on_c, 9, 38, 95
6, 386400, Note_on_c, 9, 36, 95
6, 386640, Note_off_c, 9, 54, 95
6, 386640, Note_off_c, 9, 38, 95
6, 386640, Note_off_c, 9, 36, 95
6, 386640, Note_on_c, 9, 54, 95
6, 386640, Note_on_c, 9, 38, 95
6, 386640, Note_on_c, 9, 36, 95
6, 386880, Note_off_c, 9, 54, 95
6, 386880, Note_off_c, 9, 38, 95
6, 386880, Note_off_c, 9, 36, 95
6, 387360, Note_on_c, 9, 54, 95
6, 387360, Note_on_c, 9, 38, 95
6, 387360, Note_on_c, 9, 36, 95
6, 387600, Note_off_c, 9, 54, 95
6, 387600, Note_off_c, 9, 38, 95
6, 387600, Note_off_c, 9, 36, 95
6, 387600, Note_on_c, 9, 54, 95
6, 387600, Note_on_c, 9, 38, 95
6, 387600, Note_on_c, 9, 36, 95
6, 387840, Note_off_c, 9, 54, 95
6, 387840, Note_off_c, 9, 38, 95
6, 387840, Note_off_c, 9, 36, 95
6, 388080, Note_on_c, 9, 40, 95
6, 388320, Note_off_c, 9, 40, 95
6, 388320, Note_on_c, 9, 40, 95
6, 388560, Note_off_c, 9, 40, 95
6, 388560, Note_on_c, 9, 40, 95
6, 388800, Note_off_c, 9, 40, 95
6, 388800, Note_on_c, 9, 40, 95
6, 389040, Note_off_c, 9, 40, 95
6, 389040, Note_on_c, 9, 40, 95
6, 389040, Note_on_c, 9, 38, 95
6, 389280, Note_off_c, 9, 40, 95
6, 389280, Note_off_c, 9, 38, 95
6, 389520, Note_on_c, 9, 40, 95
6, 389760, Note_off_c, 9, 40, 95
6, 389760, Note_on_c, 9, 40, 95
6, 390000, Note_off_c, 9, 40, 95
6, 390000, Note_on_c, 9, 40, 95
6, 390240, Note_off_c, 9, 40, 95
6, 390240, Note_on_c, 9, 40, 95
6, 390240, Note_on_c, 9, 38, 95
6, 390480, Note_off_c, 9, 40, 95
6, 390480, Note_off_c, 9, 38, 95
6, 391200, Note_on_c, 9, 54, 95
6, 391200, Note_on_c, 9, 38, 95
6, 391200, Note_on_c, 9, 36, 95
6, 391440, Note_off_c, 9, 54, 95
6, 391440, Note_off_c, 9, 38, 95
6, 391440, Note_off_c, 9, 36, 95
6, 391440, Note_on_c, 9, 54, 95
6, 391440, Note_on_c, 9, 38, 95
6, 391440, Note_on_c, 9, 36, 95
6, 391680, Note_off_c, 9, 54, 95
6, 391680, Note_off_c, 9, 38, 95
6, 391680, Note_off_c, 9, 36, 95
6, 391920, Note_on_c, 9, 36, 95
6, 392160, Note_off_c, 9, 36, 95
6, 392160, Note_on_c, 9, 38, 95
6, 392280, Note_off_c, 9, 38, 95
6, 392280, Note_on_c, 9, 38, 95
6, 392400, Note_off_c, 9, 38, 95
6, 392400, Note_on_c, 9, 36, 95
6, 392520, Note_off_c, 9, 36, 95
6, 392520, Note_on_c, 9, 36, 95
6, 392640, Note_off_c, 9, 36, 95
6, 392640, Note_on_c, 9, 38, 95
6, 392760, Note_off_c, 9, 38, 95
6, 392760, Note_on_c, 9, 38, 95
6, 392880, Note_off_c, 9, 38, 95
6, 392880, Note_on_c, 9, 36, 95
6, 393000, Note_off_c, 9, 36, 95
6, 393000, Note_on_c, 9, 36, 95
6, 393120, Note_off_c, 9, 36, 95
6, 393120, Note_on_c, 9, 38, 95
6, 393240, Note_off_c, 9, 38, 95
6, 393240, Note_on_c, 9, 38, 95
6, 393360, Note_off_c, 9, 38, 95
6, 393360, Note_on_c, 9, 36, 95
6, 393480, Note_off_c, 9, 36, 95
6, 393480, Note_on_c, 9, 36, 95
6, 393600, Note_off_c, 9, 36, 95
6, 393600, Note_on_c, 9, 38, 95
6, 393720, Note_off_c, 9, 38, 95
6, 393720, Note_on_c, 9, 38, 95
6, 393840, Note_off_c, 9, 38, 95
6, 393840, Note_on_c, 9, 36, 95
6, 393960, Note_off_c, 9, 36, 95
6, 393960, Note_on_c, 9, 36, 95
6, 394080, Note_off_c, 9, 36, 95
6, 394080, Note_on_c, 9, 54, 95
6, 394080, Note_on_c, 9, 38, 95
6, 394080, Note_on_c, 9, 36, 95
6, 394320, Note_off_c, 9, 54, 95
6, 394320, Note_off_c, 9, 38, 95
6, 394320, Note_off_c, 9, 36, 95
6, 394320, Note_on_c, 9, 54, 95
6, 394320, Note_on_c, 9, 38, 95
6, 394320, Note_on_c, 9, 36, 95
6, 394560, Note_off_c, 9, 54, 95
6, 394560, Note_off_c, 9, 38, 95
6, 394560, Note_off_c, 9, 36, 95
6, 395040, Note_on_c, 9, 54, 95
6, 395040, Note_on_c, 9, 38, 95
6, 395040, Note_on_c, 9, 36, 95
6, 395280, Note_off_c, 9, 54, 95
6, 395280, Note_off_c, 9, 38, 95
6, 395280, Note_off_c, 9, 36, 95
6, 395280, Note_on_c, 9, 54, 95
6, 395280, Note_on_c, 9, 38, 95
6, 395280, Note_on_c, 9, 36, 95
6, 395520, Note_off_c, 9, 54, 95
6, 395520, Note_off_c, 9, 38, 95
6, 395520, Note_off_c, 9, 36, 95
6, 396000, Note_on_c, 9, 40, 95
6, 396000, Note_on_c, 9, 36, 95
6, 396240, Note_off_c, 9, 40, 95
6, 396240, Note_off_c, 9, 36, 95
6, 396240, Note_on_c, 9, 40, 95
6, 396240, Note_on_c, 9, 36, 95
6, 396480, Note_off_c, 9, 40, 95
6, 396480, Note_off_c, 9, 36, 95
6, 396480, Note_on_c, 9, 40, 95
6, 396480, Note_on_c, 9, 36, 95
6, 396720, Note_off_c, 9, 40, 95
6, 396720, Note_off_c, 9, 36, 95
6, 396720, Note_on_c, 9, 40, 95
6, 396720, Note_on_c, 9, 36, 95
6, 396960, Note_off_c, 9, 40, 95
6, 396960, Note_off_c, 9, 36, 95
6, 397440, Note_on_c, 9, 54, 95
6, 397440, Note_on_c, 9, 38, 95
6, 397440, Note_on_c, 9, 36, 95
6, 397680, Note_off_c, 9, 54, 95
6, 397680, Note_off_c, 9, 38, 95
6, 397680, Note_off_c, 9, 36, 95
6, 397680, Note_on_c, 9, 54, 95
6, 397680, Note_on_c, 9, 38, 95
6, 397680, Note_on_c, 9, 36, 95
6, 397920, Note_off_c, 9, 54, 95
6, 397920, Note_off_c, 9, 38, 95
6, 397920, Note_off_c, 9, 36, 95
6, 398400, Note_on_c, 9, 38, 95
6, 398560, Note_off_c, 9, 38, 95
6, 398560, Note_on_c, 9, 36, 95
6, 398720, Note_off_c, 9, 36, 95
6, 398720, Note_on_c, 9, 36, 95
6, 398880, Note_off_c, 9, 36, 95
6, 398880, Note_on_c, 9, 38, 95
6, 399040, Note_off_c, 9, 38, 95
6, 399040, Note_on_c, 9, 38, 95
6, 399200, Note_off_c, 9, 38, 95
6, 399200, Note_on_c, 9, 36, 95
6, 399360, Note_off_c, 9, 36, 95
6, 399360, Note_on_c, 9, 38, 95
6, 399520, Note_off_c, 9, 38, 95
6, 399520, Note_on_c, 9, 36, 95
6, 399680, Note_off_c, 9, 36, 95
6, 399680, Note_on_c, 9, 36, 95
6, 399840, Note_off_c, 9, 36, 95
6, 399840, Note_on_c, 9, 38, 95
6, 400000, Note_off_c, 9, 38, 95
6, 400000, Note_on_c, 9, 36, 95
6, 400160, Note_off_c, 9, 36, 95
6, 400160, Note_on_c, 9, 38, 95
6, 400320, Note_off_c, 9, 38, 95
6, 400320, Note_on_c, 9, 54, 95
6, 400320, Note_on_c, 9, 38, 95
6, 400320, Note_on_c, 9, 36, 95
6, 400560, Note_off_c, 9, 54, 95
6, 400560, Note_off_c, 9, 38, 95
6, 400560, Note_off_c, 9, 36, 95
6, 400560, Note_on_c, 9, 54, 95
6, 400560, Note_on_c, 9, 38, 95
6, 400560, Note_on_c, 9, 36, 95
6, 400800, Note_off_c, 9, 54, 95
6, 400800, Note_off_c, 9, 38, 95
6, 400800, Note_off_c, 9, 36, 95
6, 401280, Note_on_c, 9, 54, 95
6, 401280, Note_on_c, 9, 38, 95
6, 401280, Note_on_c, 9, 36, 95
6, 401520, Note_off_c, 9, 54, 95
6, 401520, Note_off_c, 9, 38, 95
6, 401520, Note_off_c, 9, 36, 95
6, 401520, Note_on_c, 9, 54, 95
6, 401520, Note_on_c, 9, 38, 95
6, 401520, Note_on_c, 9, 36, 95
6, 401760, Note_off_c, 9, 54, 95
6, 401760, Note_off_c, 9, 38, 95
6, 401760, Note_off_c, 9, 36, 95
6, 402240, Note_on_c, 9, 40, 95
6, 402480, Note_off_c, 9, 40, 95
6, 402480, Note_on_c, 9, 40, 95
6, 402720, Note_off_c, 9, 40, 95
6, 402720, Note_on_c, 9, 40, 95
6, 402960, Note_off_c, 9, 40, 95
6, 402960, Note_on_c, 9, 40, 95
6, 402960, Note_on_c, 9, 38, 95
6, 403200, Note_off_c, 9, 40, 95
6, 403200, Note_off_c, 9, 38, 95
6, 403440, Note_on_c, 9, 40, 95
6, 403680, Note_off_c, 9, 40, 95
6, 403680, Note_on_c, 9, 40, 95
6, 403920, Note_off_c, 9, 40, 95
6, 403920, Note_on_c, 9, 40, 95
6, 404160, Note_off_c, 9, 40, 95
6, 404160, Note_on_c, 9, 40, 95
6, 404160, Note_on_c, 9, 38, 95
6, 404400, Note_off_c, 9, 40, 95
6, 404400, Note_off_c, 9, 38, 95
6, 405120, Note_on_c, 9, 54, 95
6, 405120, Note_on_c, 9, 38, 95
6, 405120, Note_on_c, 9, 36, 95
6, 405360, Note_off_c, 9, 54, 95
6, 405360, Note_off_c, 9, 38, 95
6, 405360, Note_off_c, 9, 36, 95
6, 405360, Note_on_c, 9, 54, 95
6, 405360, Note_on_c, 9, 38, 95
6, 405360, Note_on_c, 9, 36, 95
6, 405600, Note_off_c, 9, 54, 95
6, 405600, Note_off_c, 9, 38, 95
6, 405600, Note_off_c, 9, 36, 95
6, 406080, Note_on_c, 9, 40, 95
6, 406320, Note_off_c, 9, 40, 95
6, 406320, Note_on_c, 9, 36, 95
6, 406640, Note_off_c, 9, 36, 95
6, 406640, Note_on_c, 9, 36, 95
6, 406960, Note_off_c, 9, 36, 95
6, 406960, Note_on_c, 9, 36, 95
6, 407280, Note_off_c, 9, 36, 95
6, 407280, Note_on_c, 9, 40, 95
6, 407640, Note_off_c, 9, 40, 95
6, 407640, Note_on_c, 9, 40, 95
6, 408000, Note_off_c, 9, 40, 95
6, 408000, Note_on_c, 9, 54, 95
6, 408000, Note_on_c, 9, 38, 95
6, 408000, Note_on_c, 9, 36, 95
6, 408240, Note_off_c, 9, 54, 95
6, 408240, Note_off_c, 9, 38, 95
6, 408240, Note_off_c, 9, 36, 95
6, 408240, Note_on_c, 9, 54, 95
6, 408240, Note_on_c, 9, 38, 95
6, 408240, Note_on_c, 9, 36, 95
6, 408480, Note_off_c, 9, 54, 95
6, 408480, Note_off_c, 9, 38, 95
6, 408480, Note_off_c, 9, 36, 95
6, 408960, Note_on_c, 9, 54, 95
6, 408960, Note_on_c, 9, 38, 95
6, 408960, Note_on_c, 9, 36, 95
6, 409200, Note_off_c, 9, 54, 95
6, 409200, Note_off_c, 9, 38, 95
6, 409200, Note_off_c, 9, 36, 95
6, 409200, Note_on_c, 9, 54, 95
6, 409200, Note_on_c, 9, 38, 95
6, 409200, Note_on_c, 9, 36, 95
6, 409440, Note_off_c, 9, 54, 95
6, 409440, Note_off_c, 9, 38, 95
6, 409440, Note_off_c, 9, 36, 95
6, 409440, Note_on_c, 9, 40, 79
6, 409440, Note_on_c, 9, 36, 79
6, 409560, Note_off_c, 9, 40, 79
6, 409560, Note_off_c, 9, 36, 79
6, 409560, Note_on_c, 9, 40, 79
6, 409560, Note_on_c, 9, 36, 79
6, 409680, Note_off_c, 9, 40, 79
6, 409680, Note_off_c, 9, 36, 79
6, 409680, Note_on_c, 9, 40, 79
6, 409680, Note_on_c, 9, 36, 79
6, 409800, Note_off_c, 9, 40, 79
6, 409800, Note_off_c, 9, 36, 79
6, 409800, Note_on_c, 9, 40, 95
6, 409920, Note_off_c, 9, 40, 95
6, 409920, Note_on_c, 9, 40, 95
6, 410160, Note_off_c, 9, 40, 95
6, 410160, Note_on_c, 9, 40, 95
6, 410400, Note_off_c, 9, 40, 95
6, 410400, Note_on_c, 9, 40, 95
6, 410640, Note_off_c, 9, 40, 95
6, 410640, Note_on_c, 9, 40, 95
6, 411360, Note_off_c, 9, 40, 95
6, 411360, Note_on_c, 9, 54, 95
6, 411360, Note_on_c, 9, 38, 95
6, 411360, Note_on_c, 9, 36, 95
6, 411600, Note_off_c, 9, 54, 95
6, 411600, Note_off_c, 9, 38, 95
6, 411600, Note_off_c, 9, 36, 95
6, 411600, Note_on_c, 9, 54, 95
6, 411600, Note_on_c, 9, 38, 95
6, 411600, Note_on_c, 9, 36, 95
6, 411840, Note_off_c, 9, 54, 95
6, 411840, Note_off_c, 9, 38, 95
6, 411840, Note_off_c, 9, 36, 95
6, 411840, Note_on_c, 9, 36, 95
6, 412080, Note_off_c, 9, 36, 95
6, 412080, Note_on_c, 9, 36, 95
6, 412320, Note_off_c, 9, 36, 95
6, 412320, Note_on_c, 9, 54, 95
6, 412320, Note_on_c, 9, 40, 95
6, 412560, Note_off_c, 9, 54, 95
6, 412560, Note_off_c, 9, 40, 95
6, 412560, Note_on_c, 9, 36, 95
6, 412800, Note_off_c, 9, 36, 95
6, 412800, Note_on_c, 9, 36, 95
6, 413040, Note_off_c, 9, 36, 95
6, 413040, Note_on_c, 9, 36, 95
6, 413280, Note_off_c, 9, 36, 95
6, 413280, Note_on_c, 9, 54, 95
6, 413280, Note_on_c, 9, 40, 95
6, 413520, Note_off_c, 9, 54, 95
6, 413520, Note_off_c, 9, 40, 95
6, 413520, Note_on_c, 9, 36, 95
6, 413760, Note_off_c, 9, 36, 95
6, 413760, Note_on_c, 9, 36, 95
6, 414000, Note_off_c, 9, 36, 95
6, 414000, Note_on_c, 9, 36, 95
6, 414240, Note_off_c, 9, 36, 95
6, 414240, Note_on_c, 9, 54, 95
6, 414240, Note_on_c, 9, 40, 95
6, 414480, Note_off_c, 9, 54, 95
6, 414480, Note_off_c, 9, 40, 95
6, 414480, Note_on_c, 9, 54, 95
6, 414480, Note_on_c, 9, 40, 95
6, 414480, Note_on_c, 9, 36, 95
6, 414720, Note_off_c, 9, 54, 95
6, 414720, Note_off_c, 9, 40, 95
6, 414720, Note_off_c, 9, 36, 95
6, 414720, Note_on_c, 9, 36, 95
6, 414960, Note_off_c, 9, 36, 95
6, 414960, Note_on_c, 9, 36, 95
6, 415200, Note_off_c, 9, 36, 95
6, 415200, Note_on_c, 9, 54, 95
6, 415200, Note_on_c, 9, 40, 95
6, 415440, Note_off_c, 9, 54, 95
6, 415440, Note_off_c, 9, 40, 95
6, 415440, Note_on_c, 9, 54, 95
6, 415440, Note_on_c, 9, 40, 95
6, 415440, Note_on_c, 9, 36, 95
6, 415680, Note_off_c, 9, 54, 95
6, 415680, Note_off_c, 9, 40, 95
6, 415680, Note_off_c, 9, 36, 95
6, 415680, Note_on_c, 9, 36, 95
6, 415920, Note_off_c, 9, 36, 95
6, 415920, Note_on_c, 9, 36, 95
6, 416160, Note_off_c, 9, 36, 95
6, 416160, Note_on_c, 9, 54, 95
6, 416160, Note_on_c, 9, 40, 95
6, 416400, Note_off_c, 9, 54, 95
6, 416400, Note_off_c, 9, 40, 95
6, 416400, Note_on_c, 9, 36, 95
6, 416640, Note_off_c, 9, 36, 95
6, 416640, Note_on_c, 9, 36, 95
6, 416880, Note_off_c, 9, 36, 95
6, 416880, Note_on_c, 9, 36, 95
6, 417120, Note_off_c, 9, 36, 95
6, 417120, Note_on_c, 9, 54, 95
6, 417120, Note_on_c, 9, 40, 95
6, 417360, Note_off_c, 9, 54, 95
6, 417360, Note_off_c, 9, 40, 95
6, 417360, Note_on_c, 9, 36, 95
6, 417600, Note_off_c, 9, 36, 95
6, 417600, Note_on_c, 9, 36, 95
6, 417840, Note_off_c, 9, 36, 95
6, 417840, Note_on_c, 9, 36, 95
6, 418080, Note_off_c, 9, 36, 95
6, 418080, Note_on_c, 9, 54, 95
6, 418080, Note_on_c, 9, 40, 95
6, 418320, Note_off_c, 9, 54, 95
6, 418320, Note_off_c, 9, 40, 95
6, 418320, Note_on_c, 9, 54, 95
6, 418320, Note_on_c, 9, 40, 95
6, 418320, Note_on_c, 9, 36, 95
6, 418560, Note_off_c, 9, 54, 95
6, 418560, Note_off_c, 9, 40, 95
6, 418560, Note_off_c, 9, 36, 95
6, 418560, Note_on_c, 9, 40, 95
6, 418640, Note_off_c, 9, 40, 95
6, 418640, Note_on_c, 9, 40, 95
6, 418720, Note_off_c, 9, 40, 95
6, 418720, Note_on_c, 9, 40, 95
6, 418800, Note_off_c, 9, 40, 95
6, 418800, Note_on_c, 9, 40, 95
6, 418880, Note_off_c, 9, 40, 95
6, 418880, Note_on_c, 9, 40, 95
6, 418960, Note_off_c, 9, 40, 95
6, 418960, Note_on_c, 9, 40, 95
6, 419040, Note_off_c, 9, 40, 95
6, 419040, Note_on_c, 9, 40, 95
6, 419040, Note_on_c, 9, 38, 95
6, 419280, Note_off_c, 9, 40, 95
6, 419280, Note_off_c, 9, 38, 95
6, 419280, Note_on_c, 9, 36, 95
6, 419520, Note_off_c, 9, 36, 95
6, 419520, Note_on_c, 9, 36, 95
6, 419760, Note_off_c, 9, 36, 95
6, 419760, Note_on_c, 9, 36, 95
6, 420000, Note_off_c, 9, 36, 95
6, 420000, Note_on_c, 9, 40, 95
6, 420000, Note_on_c, 9, 38, 95
6, 420240, Note_off_c, 9, 40, 95
6, 420240, Note_off_c, 9, 38, 95
6, 420240, Note_on_c, 9, 36, 95
6, 420480, Note_off_c, 9, 36, 95
6, 420480, Note_on_c, 9, 36, 95
6, 420720, Note_off_c, 9, 36, 95
6, 420720, Note_on_c, 9, 36, 95
6, 420960, Note_off_c, 9, 36, 95
6, 420960, Note_on_c, 9, 40, 95
6, 420960, Note_on_c, 9, 38, 95
6, 421200, Note_off_c, 9, 40, 95
6, 421200, Note_off_c, 9, 38, 95
6, 421200, Note_on_c, 9, 36, 95
6, 421440, Note_off_c, 9, 36, 95
6, 421440, Note_on_c, 9, 36, 95
6, 421680, Note_off_c, 9, 36, 95
6, 421680, Note_on_c, 9, 36, 95
6, 421920, Note_off_c, 9, 36, 95
6, 421920, Note_on_c, 9, 40, 95
6, 421920, Note_on_c, 9, 38, 95
6, 422160, Note_off_c, 9, 40, 95
6, 422160, Note_off_c, 9, 38, 95
6, 422160, Note_on_c, 9, 36, 95
6, 422400, Note_off_c, 9, 36, 95
6, 422400, Note_on_c, 9, 36, 95
6, 422640, Note_off_c, 9, 36, 95
6, 422640, Note_on_c, 9, 36, 95
6, 422880, Note_off_c, 9, 36, 95
6, 422880, Note_on_c, 9, 40, 95
6, 422880, Note_on_c, 9, 38, 95
6, 423120, Note_off_c, 9, 40, 95
6, 423120, Note_off_c, 9, 38, 95
6, 423120, Note_on_c, 9, 36, 95
6, 423360, Note_off_c, 9, 36, 95
6, 423360, Note_on_c, 9, 36, 95
6, 423600, Note_off_c, 9, 36, 95
6, 423600, Note_on_c, 9, 36, 95
6, 423840, Note_off_c, 9, 36, 95
6, 423840, Note_on_c, 9, 40, 95
6, 423840, Note_on_c, 9, 38, 95
6, 424080, Note_off_c, 9, 40, 95
6, 424080, Note_off_c, 9, 38, 95
6, 424080, Note_on_c, 9, 36, 95
6, 424320, Note_off_c, 9, 36, 95
6, 424320, Note_on_c, 9, 36, 95
6, 424560, Note_off_c, 9, 36, 95
6, 424560, Note_on_c, 9, 36, 95
6, 424800, Note_off_c, 9, 36, 95
6, 424800, Note_on_c, 9, 40, 95
6, 424800, Note_on_c, 9, 38, 95
6, 425040, Note_off_c, 9, 40, 95
6, 425040, Note_off_c, 9, 38, 95
6, 425040, Note_on_c, 9, 36, 95
6, 425280, Note_off_c, 9, 36, 95
6, 425280, Note_on_c, 9, 36, 95
6, 425520, Note_off_c, 9, 36, 95
6, 425520, Note_on_c, 9, 36, 95
6, 425760, Note_off_c, 9, 36, 95
6, 425760, Note_on_c, 9, 40, 95
6, 425760, Note_on_c, 9, 38, 95
6, 426000, Note_off_c, 9, 40, 95
6, 426000, Note_off_c, 9, 38, 95
6, 426000, Note_on_c, 9, 36, 95
6, 426240, Note_off_c, 9, 36, 95
6, 426240, Note_on_c, 9, 36, 95
6, 426480, Note_off_c, 9, 36, 95
6, 426480, Note_on_c, 9, 36, 95
6, 426720, Note_off_c, 9, 36, 95
6, 426720, Note_on_c, 9, 40, 95
6, 426720, Note_on_c, 9, 38, 95
6, 426960, Note_off_c, 9, 40, 95
6, 426960, Note_off_c, 9, 38, 95
6, 426960, Note_on_c, 9, 36, 95
6, 427200, Note_off_c, 9, 36, 95
6, 427200, Note_on_c, 9, 36, 95
6, 427440, Note_off_c, 9, 36, 95
6, 427440, Note_on_c, 9, 36, 95
6, 427680, Note_off_c, 9, 36, 95
6, 427680, Note_on_c, 9, 40, 95
6, 427680, Note_on_c, 9, 38, 95
6, 427920, Note_off_c, 9, 40, 95
6, 427920, Note_off_c, 9, 38, 95
6, 427920, Note_on_c, 9, 36, 95
6, 428160, Note_off_c, 9, 36, 95
6, 428160, Note_on_c, 9, 36, 95
6, 428400, Note_off_c, 9, 36, 95
6, 428400, Note_on_c, 9, 36, 95
6, 428640, Note_off_c, 9, 36, 95
6, 428640, Note_on_c, 9, 40, 95
6, 428640, Note_on_c, 9, 38, 95
6, 428880, Note_off_c, 9, 40, 95
6, 428880, Note_off_c, 9, 38, 95
6, 428880, Note_on_c, 9, 36, 95
6, 429120, Note_off_c, 9, 36, 95
6, 429120, Note_on_c, 9, 36, 95
6, 429360, Note_off_c, 9, 36, 95
6, 429360, Note_on_c, 9, 36, 95
6, 429600, Note_off_c, 9, 36, 95
6, 429600, Note_on_c, 9, 40, 95
6, 429600, Note_on_c, 9, 38, 95
6, 429840, Note_off_c, 9, 40, 95
6, 429840, Note_off_c, 9, 38, 95
6, 429840, Note_on_c, 9, 36, 95
6, 430080, Note_off_c, 9, 36, 95
6, 430080, Note_on_c, 9, 36, 95
6, 430320, Note_off_c, 9, 36, 95
6, 430320, Note_on_c, 9, 36, 95
6, 430560, Note_off_c, 9, 36, 95
6, 430560, Note_on_c, 9, 40, 95
6, 430560, Note_on_c, 9, 38, 95
6, 430800, Note_off_c, 9, 40, 95
6, 430800, Note_off_c, 9, 38, 95
6, 430800, Note_on_c, 9, 36, 95
6, 431040, Note_off_c, 9, 36, 95
6, 431040, Note_on_c, 9, 36, 95
6, 431280, Note_off_c, 9, 36, 95
6, 431280, Note_on_c, 9, 36, 95
6, 431520, Note_off_c, 9, 36, 95
6, 431520, Note_on_c, 9, 40, 95
6, 431520, Note_on_c, 9, 38, 95
6, 431760, Note_off_c, 9, 40, 95
6, 431760, Note_off_c, 9, 38, 95
6, 431760, Note_on_c, 9, 36, 95
6, 432000, Note_off_c, 9, 36, 95
6, 432000, Note_on_c, 9, 36, 95
6, 432240, Note_off_c, 9, 36, 95
6, 432240, Note_on_c, 9, 36, 95
6, 432480, Note_off_c, 9, 36, 95
6, 432480, Note_on_c, 9, 40, 95
6, 432480, Note_on_c, 9, 38, 95
6, 432720, Note_off_c, 9, 40, 95
6, 432720, Note_off_c, 9, 38, 95
6, 432720, Note_on_c, 9, 36, 95
6, 432960, Note_off_c, 9, 36, 95
6, 432960, Note_on_c, 9, 36, 95
6, 433200, Note_off_c, 9, 36, 95
6, 433200, Note_on_c, 9, 36, 95
6, 433440, Note_off_c, 9, 36, 95
6, 433440, Note_on_c, 9, 40, 95
6, 433440, Note_on_c, 9, 38, 95
6, 433680, Note_off_c, 9, 40, 95
6, 433680, Note_off_c, 9, 38, 95
6, 433680, Note_on_c, 9, 36, 95
6, 433920, Note_off_c, 9, 36, 95
6, 433920, Note_on_c, 9, 36, 95
6, 434160, Note_off_c, 9, 36, 95
6, 434160, Note_on_c, 9, 36, 95
6, 434400, Note_off_c, 9, 36, 95
6, 434400, Note_on_c, 9, 40, 95
6, 434400, Note_on_c, 9, 38, 95
6, 434640, Note_off_c, 9, 40, 95
6, 434640, Note_off_c, 9, 38, 95
6, 434640, Note_on_c, 9, 36, 95
6, 434880, Note_off_c, 9, 36, 95
6, 434880, Note_on_c, 9, 36, 95
6, 435120, Note_off_c, 9, 36, 95
6, 435120, Note_on_c, 9, 36, 95
6, 435360, Note_off_c, 9, 36, 95
6, 435360, Note_on_c, 9, 40, 95
6, 435360, Note_on_c, 9, 38, 95
6, 435600, Note_off_c, 9, 40, 95
6, 435600, Note_off_c, 9, 38, 95
6, 435600, Note_on_c, 9, 36, 95
6, 435840, Note_off_c, 9, 36, 95
6, 435840, Note_on_c, 9, 36, 95
6, 436080, Note_off_c, 9, 36, 95
6, 436080, Note_on_c, 9, 36, 95
6, 436320, Note_off_c, 9, 36, 95
6, 436320, Note_on_c, 9, 40, 95
6, 436320, Note_on_c, 9, 38, 95
6, 436560, Note_off_c, 9, 40, 95
6, 436560, Note_off_c, 9, 38, 95
6, 436560, Note_on_c, 9, 36, 95
6, 436800, Note_off_c, 9, 36, 95
6, 436800, Note_on_c, 9, 36, 95
6, 437040, Note_off_c, 9, 36, 95
6, 437040, Note_on_c, 9, 36, 95
6, 437280, Note_off_c, 9, 36, 95
6, 437280, Note_on_c, 9, 40, 95
6, 437280, Note_on_c, 9, 38, 95
6, 437520, Note_off_c, 9, 40, 95
6, 437520, Note_off_c, 9, 38, 95
6, 437520, Note_on_c, 9, 36, 95
6, 437760, Note_off_c, 9, 36, 95
6, 437760, Note_on_c, 9, 36, 95
6, 438000, Note_off_c, 9, 36, 95
6, 438000, Note_on_c, 9, 36, 95
6, 438240, Note_off_c, 9, 36, 95
6, 438240, Note_on_c, 9, 40, 95
6, 438240, Note_on_c, 9, 38, 95
6, 438480, Note_off_c, 9, 40, 95
6, 438480, Note_off_c, 9, 38, 95
6, 438480, Note_on_c, 9, 36, 95
6, 438720, Note_off_c, 9, 36, 95
6, 438720, Note_on_c, 9, 36, 95
6, 438960, Note_off_c, 9, 36, 95
6, 438960, Note_on_c, 9, 36, 95
6, 439200, Note_off_c, 9, 36, 95
6, 439200, Note_on_c, 9, 40, 95
6, 439200, Note_on_c, 9, 38, 95
6, 439440, Note_off_c, 9, 40, 95
6, 439440, Note_off_c, 9, 38, 95
6, 439440, Note_on_c, 9, 36, 95
6, 439680, Note_off_c, 9, 36, 95
6, 439680, Note_on_c, 9, 36, 95
6, 439920, Note_off_c, 9, 36, 95
6, 439920, Note_on_c, 9, 36, 95
6, 440160, Note_off_c, 9, 36, 95
6, 440160, Note_on_c, 9, 40, 95
6, 440160, Note_on_c, 9, 38, 95
6, 440400, Note_off_c, 9, 40, 95
6, 440400, Note_off_c, 9, 38, 95
6, 440400, Note_on_c, 9, 36, 95
6, 440640, Note_off_c, 9, 36, 95
6, 440640, Note_on_c, 9, 36, 95
6, 440880, Note_off_c, 9, 36, 95
6, 440880, Note_on_c, 9, 36, 95
6, 441120, Note_off_c, 9, 36, 95
6, 441120, Note_on_c, 9, 40, 95
6, 441120, Note_on_c, 9, 38, 95
6, 441360, Note_off_c, 9, 40, 95
6, 441360, Note_off_c, 9, 38, 95
6, 441360, Note_on_c, 9, 36, 95
6, 441600, Note_off_c, 9, 36, 95
6, 441600, Note_on_c, 9, 36, 95
6, 441840, Note_off_c, 9, 36, 95
6, 441840, Note_on_c, 9, 36, 95
6, 442080, Note_off_c, 9, 36, 95
6, 442080, Note_on_c, 9, 38, 95
6, 442560, Note_off_c, 9, 38, 95
6, 442560, Note_on_c, 9, 42, 95
6, 442560, Note_on_c, 9, 40, 95
6, 442800, Note_off_c, 9, 42, 95
6, 442800, Note_off_c, 9, 40, 95
6, 442800, Note_on_c, 9, 40, 95
6, 443280, Note_off_c, 9, 40, 95
6, 443520, Note_on_c, 9, 38, 95
6, 444000, Note_off_c, 9, 38, 95
6, 444000, Note_on_c, 9, 42, 95
6, 444000, Note_on_c, 9, 40, 95
6, 444240, Note_off_c, 9, 42, 95
6, 444240, Note_off_c, 9, 40, 95
6, 444240, Note_on_c, 9, 40, 95
6, 444720, Note_off_c, 9, 40, 95
6, 444960, Note_on_c, 9, 38, 95
6, 445440, Note_off_c, 9, 38, 95
6, 445440, Note_on_c, 9, 42, 95
6, 445440, Note_on_c, 9, 40, 95
6, 445680, Note_off_c, 9, 42, 95
6, 445680, Note_off_c, 9, 40, 95
6, 445680, Note_on_c, 9, 40, 95
6, 445920, Note_off_c, 9, 40, 95
6, 445920, Note_on_c, 9, 40, 95
6, 446400, Note_off_c, 9, 40, 95
6, 446400, Note_on_c, 9, 42, 95
6, 446400, Note_on_c, 9, 38, 95
6, 446640, Note_off_c, 9, 42, 95
6, 446640, Note_off_c, 9, 38, 95
6, 446640, Note_on_c, 9, 40, 95
6, 447120, Note_off_c, 9, 40, 95
6, 447120, Note_on_c, 9, 42, 95
6, 447120, Note_on_c, 9, 38, 95
6, 447360, Note_off_c, 9, 42, 95
6, 447360, Note_off_c, 9, 38, 95
6, 447360, Note_on_c, 9, 40, 95
6, 447840, Note_off_c, 9, 40, 95
6, 447840, Note_on_c, 9, 42, 95
6, 447840, Note_on_c, 9, 38, 95
6, 448080, Note_off_c, 9, 42, 95
6, 448080, Note_off_c, 9, 38, 95
6, 448080, Note_on_c, 9, 40, 95
6, 448560, Note_off_c, 9, 40, 95
6, 448560, Note_on_c, 9, 42, 95
6, 448560, Note_on_c, 9, 38, 95
6, 448800, Note_off_c, 9, 42, 95
6, 448800, Note_off_c, 9, 38, 95
6, 448800, Note_on_c, 9, 40, 95
6, 449040, Note_off_c, 9, 40, 95
6, 449280, Note_on_c, 9, 40, 95
6, 449440, Note_off_c, 9, 40, 95
6, 449440, Note_on_c, 9, 40, 95
6, 449600, Note_off_c, 9, 40, 95
6, 449600, Note_on_c, 9, 40, 95
6, 449760, Note_off_c, 9, 40, 95
6, 449760, Note_on_c, 9, 36, 95
6, 450240, Note_off_c, 9, 36, 95
6, 450240, Note_on_c, 9, 36, 95
6, 450480, Note_off_c, 9, 36, 95
6, 450480, Note_on_c, 9, 36, 95
6, 450720, Note_off_c, 9, 36, 95
6, 450720, Note_on_c, 9, 40, 95
6, 450720, Note_on_c, 9, 48, 95
6, 451200, Note_off_c, 9, 40, 95
6, 451200, Note_off_c, 9, 48, 95
6, 451200, Note_on_c, 9, 36, 95
6, 451680, Note_off_c, 9, 36, 95
6, 451680, Note_on_c, 9, 36, 95
6, 452160, Note_off_c, 9, 36, 95
6, 452160, Note_on_c, 9, 36, 95
6, 452400, Note_off_c, 9, 36, 95
6, 452400, Note_on_c, 9, 36, 95
6, 452640, Note_off_c, 9, 36, 95
6, 452640, Note_on_c, 9, 40, 95
6, 452640, Note_on_c, 9, 48, 95
6, 453120, Note_off_c, 9, 40, 95
6, 453120, Note_off_c, 9, 48, 95
6, 453120, Note_on_c, 9, 36, 95
6, 453600, Note_off_c, 9, 36, 95
6, 453600, Note_on_c, 9, 36, 95
6, 454080, Note_off_c, 9, 36, 95
6, 454080, Note_on_c, 9, 36, 95
6, 454320, Note_off_c, 9, 36, 95
6, 454320, Note_on_c, 9, 36, 95
6, 454560, Note_off_c, 9, 36, 95
6, 454560, Note_on_c, 9, 40, 95
6, 454560, Note_on_c, 9, 48, 95
6, 455040, Note_off_c, 9, 40, 95
6, 455040, Note_off_c, 9, 48, 95
6, 455040, Note_on_c, 9, 36, 95
6, 455280, Note_off_c, 9, 36, 95
6, 455280, Note_on_c, 9, 36, 95
6, 455760, Note_off_c, 9, 36, 95
6, 455760, Note_on_c, 9, 40, 95
6, 455920, Note_off_c, 9, 40, 95
6, 455920, Note_on_c, 9, 40, 95
6, 456080, Note_off_c, 9, 40, 95
6, 456080, Note_on_c, 9, 40, 95
6, 456240, Note_off_c, 9, 40, 95
6, 456240, Note_on_c, 9, 40, 95
6, 456480, Note_off_c, 9, 40, 95
6, 456480, Note_on_c, 9, 40, 95
6, 456720, Note_off_c, 9, 40, 95
6, 456720, Note_on_c, 9, 45, 95
6, 456720, Note_on_c, 9, 36, 95
6, 456960, Note_off_c, 9, 45, 95
6, 456960, Note_off_c, 9, 36, 95
6, 456960, Note_on_c, 9, 45, 95
6, 456960, Note_on_c, 9, 36, 95
6, 457200, Note_off_c, 9, 45, 95
6, 457200, Note_off_c, 9, 36, 95
6, 457200, Note_on_c, 9, 45, 95
6, 457200, Note_on_c, 9, 36, 95
6, 457440, Note_off_c, 9, 45, 95
6, 457440, Note_off_c, 9, 36, 95
6, 457440, Note_on_c, 9, 49, 95
6, 457440, Note_on_c, 9, 40, 95
6, 457440, Note_on_c, 9, 36, 95
6, 458400, Note_off_c, 9, 49, 95
6, 458400, Note_off_c, 9, 40, 95
6, 458400, Note_off_c, 9, 36, 95
6, 458400, Note_on_c, 9, 42, 95
6, 458400, Note_on_c, 9, 36, 95
6, 458880, Note_off_c, 9, 42, 95
6, 458880, Note_off_c, 9, 36, 95
6, 458880, Note_on_c, 9, 42, 95
6, 458880, Note_on_c, 9, 36, 95
6, 459360, Note_off_c, 9, 42, 95
6, 459360, Note_off_c, 9, 36, 95
6, 459360, Note_on_c, 9, 42, 95
6, 459360, Note_on_c, 9, 40, 95
6, 460320, Note_off_c, 9, 42, 95
6, 460320, Note_off_c, 9, 40, 95
6, 460320, Note_on_c, 9, 42, 95
6, 460800, Note_off_c, 9, 42, 95
6, 460800, Note_on_c, 9, 42, 95
6, 460800, Note_on_c, 9, 40, 95
6, 461040, Note_off_c, 9, 42, 95
6, 461040, Note_off_c, 9, 40, 95
6, 461040, Note_on_c, 9, 42, 95
6, 461040, Note_on_c, 9, 43, 95
6, 461280, Note_off_c, 9, 42, 95
6, 461280, Note_off_c, 9, 43, 95
6, 461280, Note_on_c, 9, 42, 95
6, 461280, Note_on_c, 9, 36, 95
6, 461760, Note_off_c, 9, 42, 95
6, 461760, Note_off_c, 9, 36, 95
6, 461760, Note_on_c, 9, 42, 95
6, 462240, Note_off_c, 9, 42, 95
6, 462240, Note_on_c, 9, 42, 95
6, 462720, Note_off_c, 9, 42, 95
6, 462720, Note_on_c, 9, 42, 95
6, 463200, Note_off_c, 9, 42, 95
6, 463200, Note_on_c, 9, 42, 95
6, 463200, Note_on_c, 9, 40, 95
6, 464160, Note_off_c, 9, 42, 95
6, 464160, Note_off_c, 9, 40, 95
6, 464160, Note_on_c, 9, 42, 95
6, 464640, Note_off_c, 9, 42, 95
6, 464640, Note_on_c, 9, 42, 95
6, 464640, Note_on_c, 9, 40, 95
6, 464880, Note_off_c, 9, 42, 95
6, 464880, Note_off_c, 9, 40, 95
6, 464880, Note_on_c, 9, 42, 95
6, 464880, Note_on_c, 9, 43, 95
6, 465120, Note_off_c, 9, 42, 95
6, 465120, Note_off_c, 9, 43, 95
6, 465120, Note_on_c, 9, 46, 95
6, 465120, Note_on_c, 9, 42, 95
6, 465120, Note_on_c, 9, 36, 95
6, 466080, Note_off_c, 9, 46, 95
6, 466080, Note_off_c, 9, 42, 95
6, 466080, Note_off_c, 9, 36, 95
6, 466080, Note_on_c, 9, 42, 95
6, 466080, Note_on_c, 9, 36, 95
6, 466560, Note_off_c, 9, 42, 95
6, 466560, Note_off_c, 9, 36, 95
6, 466560, Note_on_c, 9, 42, 95
6, 466560, Note_on_c, 9, 36, 95
6, 467040, Note_off_c, 9, 42, 95
6, 467040, Note_off_c, 9, 36, 95
6, 467040, Note_on_c, 9, 42, 95
6, 467040, Note_on_c, 9, 40, 95
6, 468000, Note_off_c, 9, 42, 95
6, 468000, Note_off_c, 9, 40, 95
6, 468000, Note_on_c, 9, 42, 95
6, 468480, Note_off_c, 9, 42, 95
6, 468480, Note_on_c, 9, 42, 95
6, 468480, Note_on_c, 9, 40, 95
6, 468720, Note_off_c, 9, 42, 95
6, 468720, Note_off_c, 9, 40, 95
6, 468720, Note_on_c, 9, 42, 95
6, 468720, Note_on_c, 9, 43, 95
6, 468960, Note_off_c, 9, 42, 95
6, 468960, Note_off_c, 9, 43, 95
6, 468960, Note_on_c, 9, 42, 95
6, 468960, Note_on_c, 9, 40, 95
6, 468960, Note_on_c, 9, 36, 95
6, 469440, Note_off_c, 9, 42, 95
6, 469440, Note_off_c, 9, 40, 95
6, 469440, Note_off_c, 9, 36, 95
6, 469440, Note_on_c, 9, 42, 95
6, 469440, Note_on_c, 9, 40, 95
6, 469440, Note_on_c, 9, 36, 95
6, 469920, Note_off_c, 9, 42, 95
6, 469920, Note_off_c, 9, 40, 95
6, 469920, Note_off_c, 9, 36, 95
6, 470400, Note_on_c, 9, 47, 95
6, 470400, Note_on_c, 9, 45, 95
6, 470400, Note_on_c, 9, 36, 95
6, 470880, Note_off_c, 9, 47, 95
6, 470880, Note_off_c, 9, 45, 95
6, 470880, Note_off_c, 9, 36, 95
6, 470880, Note_on_c, 9, 42, 95
6, 470880, Note_on_c, 9, 40, 95
6, 470880, Note_on_c, 9, 36, 95
6, 471360, Note_off_c, 9, 42, 95
6, 471360, Note_off_c, 9, 40, 95
6, 471360, Note_off_c, 9, 36, 95
6, 471600, Note_on_c, 9, 42, 95
6, 471600, Note_on_c, 9, 40, 95
6, 471600, Note_on_c, 9, 36, 95
6, 471840, Note_off_c, 9, 42, 95
6, 471840, Note_off_c, 9, 40, 95
6, 471840, Note_off_c, 9, 36, 95
6, 471840, Note_on_c, 9, 42, 95
6, 471840, Note_on_c, 9, 40, 95
6, 472320, Note_off_c, 9, 42, 95
6, 472320, Note_off_c, 9, 40, 95
6, 472320, Note_on_c, 9, 42, 95
6, 472320, Note_on_c, 9, 40, 95
6, 472320, Note_on_c, 9, 36, 95
6, 472560, Note_off_c, 9, 42, 95
6, 472560, Note_off_c, 9, 40, 95
6, 472560, Note_off_c, 9, 36, 95
6, 472560, Note_on_c, 9, 42, 95
6, 472560, Note_on_c, 9, 40, 95
6, 472560, Note_on_c, 9, 36, 95
6, 472800, Note_off_c, 9, 42, 95
6, 472800, Note_off_c, 9, 40, 95
6, 472800, Note_off_c, 9, 36, 95
6, 472800, Note_on_c, 9, 42, 95
6, 472800, Note_on_c, 9, 36, 95
6, 473280, Note_off_c, 9, 42, 95
6, 473280, Note_off_c, 9, 36, 95
6, 473280, Note_on_c, 9, 42, 95
6, 473280, Note_on_c, 9, 36, 95
6, 473760, Note_off_c, 9, 42, 95
6, 473760, Note_off_c, 9, 36, 95
6, 473760, Note_on_c, 9, 46, 95
6, 473760, Note_on_c, 9, 40, 95
6, 474240, Note_off_c, 9, 46, 95
6, 474240, Note_off_c, 9, 40, 95
6, 474240, Note_on_c, 9, 36, 95
6, 474480, Note_off_c, 9, 36, 95
6, 474480, Note_on_c, 9, 36, 95
6, 474720, Note_off_c, 9, 36, 95
6, 474720, Note_on_c, 9, 42, 95
6, 474720, Note_on_c, 9, 36, 95
6, 475200, Note_off_c, 9, 42, 95
6, 475200, Note_off_c, 9, 36, 95
6, 475200, Note_on_c, 9, 42, 95
6, 475200, Note_on_c, 9, 36, 95
6, 475680, Note_off_c, 9, 42, 95
6, 475680, Note_off_c, 9, 36, 95
6, 475680, Note_on_c, 9, 46, 95
6, 475680, Note_on_c, 9, 40, 95
6, 476160, Note_off_c, 9, 46, 95
6, 476160, Note_off_c, 9, 40, 95
6, 476160, Note_on_c, 9, 36, 95
6, 476640, Note_off_c, 9, 36, 95
6, 476640, Note_on_c, 9, 36, 95
6, 477120, Note_off_c, 9, 36, 95
6, 477120, Note_on_c, 9, 36, 95
6, 477600, Note_off_c, 9, 36, 95
6, 477600, Note_on_c, 9, 46, 95
6, 477600, Note_on_c, 9, 40, 95
6, 478080, Note_off_c, 9, 46, 95
6, 478080, Note_off_c, 9, 40, 95
6, 478080, Note_on_c, 9, 36, 95
6, 478320, Note_off_c, 9, 36, 95
6, 478320, Note_on_c, 9, 36, 95
6, 478560, Note_off_c, 9, 36, 95
6, 478560, Note_on_c, 9, 36, 95
6, 479040, Note_off_c, 9, 36, 95
6, 479040, Note_on_c, 9, 36, 95
6, 479520, Note_off_c, 9, 36, 95
6, 479520, Note_on_c, 9, 46, 95
6, 479520, Note_on_c, 9, 40, 95
6, 480000, Note_off_c, 9, 46, 95
6, 480000, Note_off_c, 9, 40, 95
6, 480000, Note_on_c, 9, 36, 95
6, 480480, Note_off_c, 9, 36, 95
6, 480480, Note_on_c, 9, 40, 31
6, 480960, Note_off_c, 9, 40, 31
6, 480960, Note_on_c, 9, 40, 31
6, 481440, Note_off_c, 9, 40, 31
6, 481440, Note_on_c, 9, 40, 47
6, 481920, Note_off_c, 9, 40, 47
6, 481920, Note_on_c, 9, 40, 47
6, 482400, Note_off_c, 9, 40, 47
6, 482400, Note_on_c, 9, 40, 47
6, 482880, Note_off_c, 9, 40, 47
6, 482880, Note_on_c, 9, 40, 47
6, 483360, Note_off_c, 9, 40, 47
6, 483360, Note_on_c, 9, 40, 79
6, 483840, Note_off_c, 9, 40, 79
6, 483840, Note_on_c, 9, 40, 79
6, 484320, Note_off_c, 9, 40, 79
6, 484320, Note_on_c, 9, 40, 95
6, 484800, Note_off_c, 9, 40, 95
6, 484800, Note_on_c, 9, 40, 95
6, 485280, Note_off_c, 9, 40, 95
6, 485280, Note_on_c, 9, 40, 111
6, 485760, Note_off_c, 9, 40, 111
6, 485760, Note_on_c, 9, 40, 111
6, 486240, Note_off_c, 9, 40, 111
6, 486240, Note_on_c, 9, 40, 111
6, 486480, Note_off_c, 9, 40, 111
6, 486480, Note_on_c, 9, 40, 95
6, 486640, Note_off_c, 9, 40, 95
6, 486640, Note_on_c, 9, 40, 95
6, 486800, Note_off_c, 9, 40, 95
6, 486800, Note_on_c, 9, 40, 95
6, 486960, Note_off_c, 9, 40, 95
6, 486960, Note_on_c, 9, 40, 95
6, 487200, Note_off_c, 9, 40, 95
6, 487200, Note_on_c, 9, 48, 95
6, 487440, Note_off_c, 9, 48, 95
6, 487440, Note_on_c, 9, 48, 95
6, 487680, Note_off_c, 9, 48, 95
6, 487680, Note_on_c, 9, 45, 95
6, 487920, Note_off_c, 9, 45, 95
6, 487920, Note_on_c, 9, 45, 95
6, 488160, Note_off_c, 9, 45, 95
6, 488160, Note_on_c, 9, 52, 95
6, 488160, Note_on_c, 9, 38, 95
6, 488400, Note_off_c, 9, 52, 95
6, 488400, Note_off_c, 9, 38, 95
6, 488640, Note_on_c, 9, 36, 95
6, 488880, Note_off_c, 9, 36, 95
6, 488880, Note_on_c, 9, 38, 95
6, 489120, Note_off_c, 9, 38, 95
6, 489600, Note_on_c, 9, 38, 95
6, 489840, Note_off_c, 9, 38, 95
6, 490080, Note_on_c, 9, 36, 95
6, 490320, Note_off_c, 9, 36, 95
6, 490320, Note_on_c, 9, 40, 95
6, 490560, Note_off_c, 9, 40, 95
6, 490560, Note_on_c, 9, 36, 95
6, 490800, Note_off_c, 9, 36, 95
6, 490800, Note_on_c, 9, 38, 95
6, 491040, Note_off_c, 9, 38, 95
6, 491040, Note_on_c, 9, 38, 95
6, 491280, Note_off_c, 9, 38, 95
6, 491280, Note_on_c, 9, 40, 95
6, 491520, Note_off_c, 9, 40, 95
6, 491520, Note_on_c, 9, 40, 95
6, 491760, Note_off_c, 9, 40, 95
6, 491760, Note_on_c, 9, 40, 95
6, 492000, Note_off_c, 9, 40, 95
6, 492000, Note_on_c, 9, 42, 95
6, 492000, Note_on_c, 9, 38, 95
6, 492240, Note_off_c, 9, 42, 95
6, 492240, Note_off_c, 9, 38, 95
6, 492480, Note_on_c, 9, 36, 95
6, 492720, Note_off_c, 9, 36, 95
6, 492720, Note_on_c, 9, 40, 95
6, 492960, Note_off_c, 9, 40, 95
6, 493440, Note_on_c, 9, 38, 95
6, 493680, Note_off_c, 9, 38, 95
6, 493680, Note_on_c, 9, 38, 95
6, 493920, Note_off_c, 9, 38, 95
6, 493920, Note_on_c, 9, 36, 95
6, 494160, Note_off_c, 9, 36, 95
6, 494160, Note_on_c, 9, 45, 95
6, 494400, Note_off_c, 9, 45, 95
6, 494400, Note_on_c, 9, 36, 95
6, 494640, Note_off_c, 9, 36, 95
6, 494640, Note_on_c, 9, 38, 95
6, 494880, Note_off_c, 9, 38, 95
6, 494880, Note_on_c, 9, 38, 95
6, 495120, Note_off_c, 9, 38, 95
6, 495120, Note_on_c, 9, 45, 95
6, 495360, Note_off_c, 9, 45, 95
6, 495360, Note_on_c, 9, 45, 95
6, 495600, Note_off_c, 9, 45, 95
6, 495600, Note_on_c, 9, 45, 95
6, 495840, Note_off_c, 9, 45, 95
6, 495840, Note_on_c, 9, 52, 95
6, 495840, Note_on_c, 9, 38, 95
6, 496080, Note_off_c, 9, 52, 95
6, 496080, Note_off_c, 9, 38, 95
6, 496320, Note_on_c, 9, 36, 95
6, 496560, Note_off_c, 9, 36, 95
6, 496560, Note_on_c, 9, 38, 95
6, 496800, Note_off_c, 9, 38, 95
6, 497280, Note_on_c, 9, 38, 95
6, 497520, Note_off_c, 9, 38, 95
6, 497760, Note_on_c, 9, 36, 95
6, 498000, Note_off_c, 9, 36, 95
6, 498000, Note_on_c, 9, 40, 95
6, 498240, Note_off_c, 9, 40, 95
6, 498240, Note_on_c, 9, 36, 95
6, 498480, Note_off_c, 9, 36, 95
6, 498480, Note_on_c, 9, 38, 95
6, 498720, Note_off_c, 9, 38, 95
6, 498720, Note_on_c, 9, 38, 95
6, 498960, Note_off_c, 9, 38, 95
6, 498960, Note_on_c, 9, 40, 95
6, 499200, Note_off_c, 9, 40, 95
6, 499200, Note_on_c, 9, 40, 95
6, 499440, Note_off_c, 9, 40, 95
6, 499440, Note_on_c, 9, 40, 95
6, 499680, Note_off_c, 9, 40, 95
6, 499680, Note_on_c, 9, 52, 95
6, 499680, Note_on_c, 9, 38, 95
6, 499920, Note_off_c, 9, 52, 95
6, 499920, Note_off_c, 9, 38, 95
6, 500160, Note_on_c, 9, 36, 95
6, 500400, Note_off_c, 9, 36, 95
6, 500400, Note_on_c, 9, 40, 95
6, 500640, Note_off_c, 9, 40, 95
6, 501120, Note_on_c, 9, 38, 95
6, 501360, Note_off_c, 9, 38, 95
6, 501360, Note_on_c, 9, 38, 95
6, 501600, Note_off_c, 9, 38, 95
6, 501600, Note_on_c, 9, 36, 95
6, 501840, Note_off_c, 9, 36, 95
6, 501840, Note_on_c, 9, 45, 95
6, 502080, Note_off_c, 9, 45, 95
6, 502080, Note_on_c, 9, 36, 95
6, 502320, Note_off_c, 9, 36, 95
6, 502320, Note_on_c, 9, 38, 95
6, 502560, Note_off_c, 9, 38, 95
6, 502560, Note_on_c, 9, 38, 95
6, 502800, Note_off_c, 9, 38, 95
6, 502800, Note_on_c, 9, 45, 95
6, 503040, Note_off_c, 9, 45, 95
6, 503040, Note_on_c, 9, 45, 95
6, 503280, Note_off_c, 9, 45, 95
6, 503280, Note_on_c, 9, 45, 95
6, 503520, Note_off_c, 9, 45, 95
6, 503520, Note_on_c, 9, 52, 95
6, 503520, Note_on_c, 9, 38, 95
6, 503760, Note_off_c, 9, 52, 95
6, 503760, Note_off_c, 9, 38, 95
6, 504000, Note_on_c, 9, 36, 95
6, 504240, Note_off_c, 9, 36, 95
6, 504240, Note_on_c, 9, 38, 95
6, 504480, Note_off_c, 9, 38, 95
6, 504960, Note_on_c, 9, 38, 95
6, 505200, Note_off_c, 9, 38, 95
6, 505440, Note_on_c, 9, 36, 95
6, 505680, Note_off_c, 9, 36, 95
6, 505680, Note_on_c, 9, 40, 95
6, 505920, Note_off_c, 9, 40, 95
6, 505920, Note_on_c, 9, 36, 95
6, 506160, Note_off_c, 9, 36, 95
6, 506160, Note_on_c, 9, 38, 95
6, 506400, Note_off_c, 9, 38, 95
6, 506400, Note_on_c, 9, 38, 95
6, 506640, Note_off_c, 9, 38, 95
6, 506640, Note_on_c, 9, 40, 95
6, 506880, Note_off_c, 9, 40, 95
6, 506880, Note_on_c, 9, 40, 95
6, 507120, Note_off_c, 9, 40, 95
6, 507120, Note_on_c, 9, 40, 95
6, 507360, Note_off_c, 9, 40, 95
6, 507360, Note_on_c, 9, 42, 95
6, 507360, Note_on_c, 9, 38, 95
6, 507600, Note_off_c, 9, 42, 95
6, 507600, Note_off_c, 9, 38, 95
6, 507840, Note_on_c, 9, 36, 95
6, 508080, Note_off_c, 9, 36, 95
6, 508080, Note_on_c, 9, 40, 95
6, 508320, Note_off_c, 9, 40, 95
6, 508800, Note_on_c, 9, 38, 95
6, 509040, Note_off_c, 9, 38, 95
6, 509280, Note_on_c, 9, 36, 95
6, 509520, Note_off_c, 9, 36, 95
6, 509520, Note_on_c, 9, 45, 95
6, 509760, Note_off_c, 9, 45, 95
6, 509760, Note_on_c, 9, 36, 95
6, 510000, Note_off_c, 9, 36, 95
6, 510000, Note_on_c, 9, 38, 95
6, 510240, Note_off_c, 9, 38, 95
6, 510240, Note_on_c, 9, 38, 95
6, 510480, Note_off_c, 9, 38, 95
6, 510480, Note_on_c, 9, 45, 95
6, 510720, Note_off_c, 9, 45, 95
6, 510720, Note_on_c, 9, 45, 95
6, 510960, Note_off_c, 9, 45, 95
6, 510960, Note_on_c, 9, 45, 95
6, 511200, Note_off_c, 9, 45, 95
6, 511200, Note_on_c, 9, 52, 95
6, 511200, Note_on_c, 9, 38, 95
6, 511440, Note_off_c, 9, 52, 95
6, 511440, Note_off_c, 9, 38, 95
6, 511680, Note_on_c, 9, 36, 95
6, 511920, Note_off_c, 9, 36, 95
6, 511920, Note_on_c, 9, 38, 95
6, 512160, Note_off_c, 9, 38, 95
6, 512640, Note_on_c, 9, 38, 95
6, 512880, Note_off_c, 9, 38, 95
6, 513120, Note_on_c, 9, 36, 95
6, 513360, Note_off_c, 9, 36, 95
6, 513360, Note_on_c, 9, 40, 95
6, 513600, Note_off_c, 9, 40, 95
6, 513600, Note_on_c, 9, 36, 95
6, 513840, Note_off_c, 9, 36, 95
6, 513840, Note_on_c, 9, 38, 95
6, 514080, Note_off_c, 9, 38, 95
6, 514080, Note_on_c, 9, 38, 95
6, 514320, Note_off_c, 9, 38, 95
6, 514320, Note_on_c, 9, 40, 95
6, 514560, Note_off_c, 9, 40, 95
6, 514560, Note_on_c, 9, 40, 95
6, 514800, Note_off_c, 9, 40, 95
6, 514800, Note_on_c, 9, 40, 95
6, 515040, Note_off_c, 9, 40, 95
6, 515040, Note_on_c, 9, 42, 95
6, 515040, Note_on_c, 9, 38, 95
6, 515280, Note_off_c, 9, 42, 95
6, 515280, Note_off_c, 9, 38, 95
6, 515520, Note_on_c, 9, 36, 95
6, 515760, Note_off_c, 9, 36, 95
6, 515760, Note_on_c, 9, 40, 95
6, 516240, Note_off_c, 9, 40, 95
6, 516240, Note_on_c, 9, 36, 95
6, 516480, Note_off_c, 9, 36, 95
6, 516480, Note_on_c, 9, 40, 95
6, 516720, Note_off_c, 9, 40, 95
6, 516720, Note_on_c, 9, 40, 95
6, 516960, Note_off_c, 9, 40, 95
6, 516960, Note_on_c, 9, 36, 95
6, 517200, Note_off_c, 9, 36, 95
6, 517200, Note_on_c, 9, 38, 95
6, 517440, Note_off_c, 9, 38, 95
6, 517440, Note_on_c, 9, 36, 95
6, 517680, Note_off_c, 9, 36, 95
6, 517680, Note_on_c, 9, 36, 95
6, 517920, Note_off_c, 9, 36, 95
6, 517920, Note_on_c, 9, 38, 95
6, 518160, Note_off_c, 9, 38, 95
6, 518160, Note_on_c, 9, 45, 95
6, 518400, Note_off_c, 9, 45, 95
6, 518400, Note_on_c, 9, 45, 95
6, 518640, Note_off_c, 9, 45, 95
6, 518640, Note_on_c, 9, 45, 95
6, 518880, Note_off_c, 9, 45, 95
6, 518880, Note_on_c, 9, 52, 95
6, 518880, Note_on_c, 9, 38, 95
6, 518880, Note_on_c, 9, 36, 95
6, 519120, Note_off_c, 9, 52, 95
6, 519120, Note_off_c, 9, 38, 95
6, 519120, Note_off_c, 9, 36, 95
6, 519120, Note_on_c, 9, 52, 95
6, 519120, Note_on_c, 9, 38, 95
6, 519120, Note_on_c, 9, 36, 95
6, 521040, Note_off_c, 9, 52, 95
6, 521040, Note_off_c, 9, 38, 95
6, 521040, Note_off_c, 9, 36, 95
6, 521040, End_track
0, 0, End_of_file
