0, 0, Header, 0, 1, 96
1, 0, Start_track
1, 0, Title_t, "BEAUTY IS ONLY SKIN DEEP        ;Edward Holland / Norman Whitfield"
1, 0, Copyright_t, "(C) 1994 Tune 1000 Corporation  ;1965, 1966 Jobete Music Co., Inc."
1, 0, Time_signature, 4, 2, 24, 8
1, 0, Tempo, 508475
1, 0, Key_signature, 0, "major"
1, 0, System_exclusive, 5, 126, 127, 9, 1, 247
1, 0, Text_t, "Back Vocal"
1, 0, Lyric_t, "ALL rights reserved. Not for broadcast or "
1, 0, Lyric_t, "\015"
1, 0, Lyric_t, "transmission of any kind. "
1, 0, Lyric_t, "\015"
1, 0, Lyric_t, "DO NOT DUPLICATE. NOT FOR RENTAL. "
1, 0, Lyric_t, "\015"
1, 98, Program_c, 0, 0
1, 99, Control_c, 0, 7, 90
1, 99, Control_c, 0, 10, 46
1, 99, Control_c, 0, 11, 127
1, 100, Control_c, 0, 91, 60
1, 100, Control_c, 0, 93, 0
1, 103, Program_c, 1, 35
1, 104, Control_c, 1, 7, 105
1, 104, Control_c, 1, 10, 64
1, 104, Control_c, 1, 11, 127
1, 105, Control_c, 1, 91, 20
1, 105, Control_c, 1, 93, 25
1, 108, Program_c, 2, 27
1, 109, Control_c, 2, 7, 70
1, 109, Control_c, 2, 10, 80
1, 109, Control_c, 2, 11, 127
1, 110, Control_c, 2, 91, 65
1, 110, Control_c, 2, 93, 30
1, 113, Program_c, 3, 21
1, 114, Control_c, 3, 7, 100
1, 114, Control_c, 3, 10, 64
1, 114, Control_c, 3, 11, 127
1, 115, Control_c, 3, 91, 60
1, 115, Control_c, 3, 93, 10
1, 118, Program_c, 4, 82
1, 119, Control_c, 4, 7, 75
1, 119, Control_c, 4, 10, 64
1, 119, Control_c, 4, 11, 127
1, 120, Control_c, 4, 91, 60
1, 120, Control_c, 4, 93, 10
1, 123, Program_c, 5, 82
1, 124, Control_c, 5, 7, 75
1, 124, Control_c, 5, 10, 32
1, 124, Control_c, 5, 11, 127
1, 125, Control_c, 5, 91, 60
1, 125, Control_c, 5, 93, 0
1, 128, Program_c, 6, 9
1, 129, Control_c, 6, 7, 105
1, 129, Control_c, 6, 10, 83
1, 129, Control_c, 6, 11, 127
1, 130, Control_c, 6, 91, 60
1, 130, Control_c, 6, 93, 0
1, 133, Program_c, 7, 56
1, 134, Control_c, 7, 7, 105
1, 134, Control_c, 7, 10, 40
1, 134, Control_c, 7, 11, 127
1, 135, Control_c, 7, 91, 60
1, 135, Control_c, 7, 93, 10
1, 138, Program_c, 8, 65
1, 139, Control_c, 8, 7, 90
1, 139, Control_c, 8, 10, 41
1, 139, Control_c, 8, 11, 127
1, 140, Control_c, 8, 91, 60
1, 140, Control_c, 8, 93, 20
1, 144, Control_c, 9, 7, 105
1, 144, Control_c, 9, 11, 127
1, 145, Control_c, 9, 91, 57
1, 145, Control_c, 9, 93, 0
1, 384, Time_signature, 4, 2, 24, 8
1, 384, Note_on_c, 9, 40, 100
1, 384, Note_on_c, 1, 31, 93
1, 384, Note_on_c, 7, 81, 120
1, 384, Note_on_c, 7, 72, 117
1, 385, Note_off_c, 9, 40, 64
1, 385, Control_c, 9, 1, 0
1, 385, Pitch_bend_c, 9, 8192
1, 385, Control_c, 1, 1, 0
1, 385, Pitch_bend_c, 1, 8192
1, 385, Control_c, 7, 1, 0
1, 385, Pitch_bend_c, 7, 8192
1, 395, Note_on_c, 9, 40, 92
1, 396, Note_off_c, 9, 40, 64
1, 406, Note_on_c, 9, 40, 41
1, 407, Note_off_c, 9, 40, 64
1, 416, Note_on_c, 9, 40, 42
1, 417, Note_off_c, 9, 40, 64
1, 425, Note_off_c, 1, 31, 64
1, 427, Note_on_c, 9, 40, 42
1, 428, Note_off_c, 9, 40, 64
1, 437, Note_on_c, 9, 40, 41
1, 438, Note_off_c, 9, 40, 64
1, 445, Note_on_c, 1, 31, 86
1, 448, Note_on_c, 9, 40, 41
1, 449, Note_off_c, 9, 40, 64
1, 457, Note_on_c, 9, 40, 41
1, 458, Note_off_c, 9, 40, 64
1, 467, Note_on_c, 9, 40, 43
1, 467, Note_off_c, 1, 31, 64
1, 468, Note_off_c, 9, 40, 64
1, 476, Note_on_c, 9, 40, 46
1, 477, Note_off_c, 9, 40, 64
1, 478, Note_on_c, 1, 31, 93
1, 486, Note_on_c, 9, 40, 50
1, 487, Note_off_c, 9, 40, 64
1, 497, Note_on_c, 9, 40, 54
1, 498, Note_off_c, 9, 40, 64
1, 508, Note_on_c, 9, 40, 58
1, 509, Note_off_c, 9, 40, 64
1, 519, Note_on_c, 9, 40, 60
1, 520, Note_off_c, 9, 40, 64
1, 526, Note_off_c, 1, 31, 64
1, 529, Note_on_c, 9, 40, 62
1, 530, Note_off_c, 9, 40, 64
1, 540, Note_on_c, 9, 40, 63
1, 541, Note_off_c, 9, 40, 64
1, 542, Note_on_c, 1, 31, 84
1, 550, Note_on_c, 9, 40, 64
1, 551, Note_off_c, 9, 40, 64
1, 560, Note_on_c, 9, 40, 66
1, 560, Note_off_c, 1, 31, 64
1, 561, Note_off_c, 9, 40, 64
1, 569, Note_on_c, 9, 40, 67
1, 570, Note_off_c, 9, 40, 64
1, 572, Note_on_c, 1, 31, 87
1, 579, Note_on_c, 9, 40, 74
1, 580, Note_off_c, 9, 40, 64
1, 588, Note_on_c, 9, 40, 79
1, 589, Note_off_c, 9, 40, 64
1, 600, Note_on_c, 9, 40, 84
1, 601, Note_off_c, 9, 40, 64
1, 611, Note_on_c, 9, 40, 88
1, 612, Note_off_c, 9, 40, 64
1, 618, Note_off_c, 1, 31, 64
1, 621, Note_on_c, 9, 40, 90
1, 622, Note_off_c, 9, 40, 64
1, 632, Note_on_c, 9, 40, 91
1, 633, Note_off_c, 9, 40, 64
1, 638, Note_on_c, 1, 31, 90
1, 642, Note_on_c, 9, 40, 91
1, 643, Note_off_c, 9, 40, 64
1, 652, Note_on_c, 9, 40, 92
1, 653, Note_off_c, 9, 40, 64
1, 658, Note_off_c, 1, 31, 64
1, 662, Note_on_c, 9, 40, 91
1, 663, Note_off_c, 9, 40, 64
1, 670, Note_on_c, 1, 31, 95
1, 672, Note_on_c, 9, 40, 90
1, 673, Note_off_c, 9, 40, 64
1, 681, Note_on_c, 9, 40, 87
1, 682, Note_off_c, 9, 40, 64
1, 691, Note_on_c, 9, 40, 86
1, 692, Note_off_c, 9, 40, 64
1, 702, Note_on_c, 9, 40, 84
1, 703, Note_off_c, 9, 40, 64
1, 713, Note_on_c, 9, 40, 81
1, 714, Note_off_c, 9, 40, 64
1, 722, Note_off_c, 1, 31, 64
1, 724, Note_on_c, 9, 40, 76
1, 725, Note_off_c, 9, 40, 64
1, 732, Note_on_c, 9, 40, 67
1, 733, Note_off_c, 9, 40, 64
1, 734, Note_on_c, 1, 31, 83
1, 744, Note_on_c, 9, 40, 57
1, 745, Note_off_c, 9, 40, 64
1, 755, Note_on_c, 9, 40, 49
1, 756, Note_off_c, 9, 40, 64
1, 757, Note_off_c, 7, 81, 64
1, 758, Note_off_c, 7, 72, 64
1, 764, Note_on_c, 9, 40, 116
1, 765, Note_off_c, 9, 40, 64
1, 766, Note_on_c, 1, 36, 106
1, 770, Note_off_c, 1, 31, 64
1, 771, Note_on_c, 6, 84, 92
1, 772, Control_c, 6, 1, 0
1, 772, Pitch_bend_c, 6, 8192
1, 863, Note_on_c, 9, 62, 109
1, 864, Note_off_c, 9, 62, 64
1, 864, Control_c, 9, 1, 0
1, 864, Pitch_bend_c, 9, 8192
1, 882, Note_off_c, 6, 84, 64
1, 925, Note_on_c, 6, 84, 95
1, 927, Note_on_c, 9, 64, 45
1, 928, Note_off_c, 9, 64, 64
1, 949, Note_off_c, 6, 84, 64
1, 959, Note_on_c, 9, 64, 45
1, 960, Note_on_c, 6, 91, 80
1, 960, Note_off_c, 9, 64, 64
1, 994, Note_off_c, 6, 91, 64
1, 1023, Note_on_c, 9, 64, 42
1, 1024, Note_off_c, 9, 64, 64
1, 1026, Note_on_c, 6, 96, 85
1, 1055, Note_on_c, 9, 63, 110
1, 1056, Note_off_c, 9, 63, 64
1, 1101, Note_off_c, 6, 96, 64
1, 1118, Note_on_c, 6, 93, 86
1, 1118, Note_on_c, 9, 63, 101
1, 1119, Note_off_c, 9, 63, 64
1, 1214, Note_on_c, 9, 64, 49
1, 1215, Note_off_c, 9, 64, 64
1, 1218, Note_off_c, 6, 93, 64
1, 1248, Note_on_c, 9, 62, 106
1, 1249, Note_off_c, 9, 62, 64
1, 1309, Note_on_c, 9, 64, 49
1, 1310, Note_off_c, 9, 64, 64
1, 1342, Note_on_c, 6, 91, 93
1, 1342, Note_on_c, 9, 64, 52
1, 1343, Note_off_c, 9, 64, 64
1, 1397, Note_off_c, 6, 91, 64
1, 1404, Note_on_c, 6, 89, 83
1, 1405, Note_on_c, 9, 64, 54
1, 1406, Note_off_c, 9, 64, 64
1, 1436, Note_off_c, 6, 89, 64
1, 1438, Note_on_c, 6, 88, 87
1, 1439, Note_on_c, 9, 63, 103
1, 1440, Note_off_c, 9, 63, 64
1, 1487, Note_off_c, 1, 36, 64
1, 1500, Note_off_c, 6, 88, 64
1, 1500, Note_on_c, 6, 86, 71
1, 1500, Note_on_c, 9, 63, 97
1, 1501, Note_off_c, 9, 63, 64
1, 1508, Note_on_c, 1, 31, 94
1, 1533, Note_off_c, 6, 86, 64
1, 1534, Note_on_c, 6, 84, 99
1, 1537, Note_on_c, 9, 64, 49
1, 1538, Note_off_c, 9, 64, 64
1, 1539, Note_on_c, 1, 36, 101
1, 1540, Note_off_c, 1, 31, 64
1, 1598, Note_on_c, 9, 64, 53
1, 1599, Note_off_c, 9, 64, 64
1, 1632, Note_on_c, 9, 62, 110
1, 1633, Note_off_c, 9, 62, 64
1, 1639, Note_off_c, 6, 84, 64
1, 1694, Note_on_c, 6, 84, 92
1, 1694, Note_on_c, 9, 64, 48
1, 1695, Note_off_c, 9, 64, 64
1, 1719, Note_off_c, 6, 84, 64
1, 1727, Note_on_c, 9, 64, 50
1, 1728, Note_off_c, 9, 64, 64
1, 1730, Note_on_c, 6, 91, 77
1, 1756, Note_off_c, 6, 91, 64
1, 1790, Note_on_c, 9, 64, 51
1, 1791, Note_off_c, 9, 64, 64
1, 1793, Note_on_c, 6, 96, 85
1, 1823, Note_on_c, 9, 63, 97
1, 1824, Note_off_c, 9, 63, 64
1, 1845, Note_off_c, 6, 96, 64
1, 1884, Note_on_c, 9, 63, 96
1, 1885, Note_off_c, 9, 63, 64
1, 1886, Note_on_c, 6, 93, 92
1, 1979, Note_off_c, 6, 93, 64
1, 1983, Note_on_c, 9, 64, 49
1, 1984, Note_off_c, 9, 64, 64
1, 1986, Lyric_t, "\012"
1, 2017, Note_on_c, 9, 62, 90
1, 2018, Note_off_c, 9, 62, 64
1, 2044, Note_off_c, 1, 36, 64
1, 2078, Note_on_c, 1, 36, 112
1, 2078, Note_on_c, 9, 64, 51
1, 2079, Note_off_c, 9, 64, 64
1, 2110, Note_on_c, 7, 84, 117
1, 2112, Note_on_c, 1, 29, 84
1, 2113, Note_on_c, 6, 89, 87
1, 2113, Note_on_c, 8, 57, 91
1, 2113, Note_on_c, 8, 65, 91
1, 2113, Note_on_c, 8, 53, 90
1, 2114, Control_c, 8, 1, 0
1, 2114, Pitch_bend_c, 8, 8192
1, 2114, Note_on_c, 9, 64, 52
1, 2115, Note_off_c, 9, 64, 64
1, 2120, Note_off_c, 1, 36, 64
1, 2152, Note_off_c, 8, 65, 64
1, 2154, Note_off_c, 8, 53, 64
1, 2155, Note_off_c, 8, 57, 64
1, 2159, Note_off_c, 7, 84, 64
1, 2162, Note_off_c, 6, 89, 64
1, 2175, Note_on_c, 9, 64, 53
1, 2176, Note_off_c, 9, 64, 64
1, 2181, Note_off_c, 1, 29, 64
1, 2205, Note_on_c, 8, 53, 80
1, 2205, Note_on_c, 8, 65, 92
1, 2205, Note_on_c, 8, 57, 83
1, 2206, Note_on_c, 7, 84, 117
1, 2209, Note_on_c, 1, 29, 101
1, 2209, Note_on_c, 6, 89, 93
1, 2212, Note_on_c, 9, 63, 105
1, 2213, Note_off_c, 9, 63, 64
1, 2249, Note_off_c, 8, 53, 64
1, 2251, Note_off_c, 8, 57, 64
1, 2251, Note_off_c, 8, 65, 64
1, 2254, Note_off_c, 7, 84, 64
1, 2260, Note_off_c, 6, 89, 64
1, 2273, Note_on_c, 9, 63, 95
1, 2274, Note_off_c, 9, 63, 64
1, 2275, Note_off_c, 1, 29, 64
1, 2304, Note_on_c, 1, 36, 124
1, 2304, Note_on_c, 7, 84, 114
1, 2305, Note_on_c, 8, 55, 95
1, 2306, Note_on_c, 6, 88, 78
1, 2306, Note_on_c, 8, 64, 95
1, 2306, Note_on_c, 8, 60, 95
1, 2363, Lyric_t, "So "
1, 2363, Note_on_c, 3, 64, 117
1, 2364, Control_c, 3, 1, 0
1, 2364, Pitch_bend_c, 3, 8192
1, 2398, Note_on_c, 2, 64, 120
1, 2398, Note_on_c, 2, 67, 120
1, 2399, Control_c, 2, 1, 0
1, 2399, Pitch_bend_c, 2, 8192
1, 2399, Note_on_c, 2, 72, 120
1, 2399, Note_on_c, 9, 62, 109
1, 2400, Note_off_c, 9, 62, 64
1, 2403, Note_off_c, 6, 88, 64
1, 2417, Note_off_c, 1, 36, 64
1, 2426, Lyric_t, "in "
1, 2426, Note_on_c, 3, 67, 106
1, 2433, Note_off_c, 3, 64, 64
1, 2433, Note_off_c, 2, 67, 64
1, 2434, Note_off_c, 2, 72, 64
1, 2436, Note_off_c, 2, 64, 64
1, 2461, Note_on_c, 6, 88, 92
1, 2463, Note_on_c, 1, 36, 124
1, 2463, Note_on_c, 9, 64, 45
1, 2464, Note_off_c, 9, 64, 64
1, 2484, Note_off_c, 3, 67, 64
1, 2488, Note_off_c, 7, 84, 64
1, 2491, Lyric_t, "love, "
1, 2491, Note_on_c, 3, 67, 109
1, 2492, Note_off_c, 8, 60, 64
1, 2492, Note_off_c, 8, 55, 64
1, 2494, Note_off_c, 8, 64, 64
1, 2495, Note_on_c, 6, 91, 81
1, 2495, Note_on_c, 9, 64, 45
1, 2496, Note_off_c, 9, 64, 64
1, 2497, Note_off_c, 1, 36, 64
1, 2497, Note_on_c, 1, 28, 114
1, 2497, Note_off_c, 6, 88, 64
1, 2553, Note_off_c, 1, 28, 64
1, 2555, Note_on_c, 3, 64, 103
1, 2556, Note_off_c, 6, 91, 64
1, 2557, Note_on_c, 1, 31, 102
1, 2558, Note_on_c, 6, 96, 86
1, 2559, Note_on_c, 9, 64, 42
1, 2560, Note_off_c, 9, 64, 64
1, 2561, Note_off_c, 3, 67, 64
1, 2588, Note_on_c, 2, 64, 120
1, 2588, Note_on_c, 2, 67, 120
1, 2589, Note_on_c, 2, 72, 120
1, 2591, Note_on_c, 9, 63, 110
1, 2592, Note_off_c, 9, 63, 64
1, 2597, Note_off_c, 3, 64, 64
1, 2603, Note_off_c, 1, 31, 64
1, 2618, Note_off_c, 2, 72, 64
1, 2619, Note_off_c, 2, 67, 64
1, 2625, Note_off_c, 2, 64, 64
1, 2633, Note_off_c, 6, 96, 64
1, 2652, Note_on_c, 6, 93, 93
1, 2653, Note_on_c, 1, 29, 104
1, 2654, Note_on_c, 9, 63, 101
1, 2655, Note_off_c, 9, 63, 64
1, 2657, Lyric_t, "sad "
1, 2657, Note_on_c, 3, 65, 111
1, 2690, Note_off_c, 3, 65, 64
1, 2691, Note_on_c, 3, 64, 102
1, 2748, Lyric_t, "as "
1, 2748, Note_on_c, 3, 62, 109
1, 2750, Note_on_c, 9, 64, 49
1, 2751, Note_off_c, 3, 64, 64
1, 2751, Note_off_c, 9, 64, 64
1, 2769, Note_off_c, 6, 93, 64
1, 2782, Note_on_c, 2, 60, 120
1, 2782, Note_on_c, 2, 65, 120
1, 2783, Note_on_c, 2, 69, 120
1, 2784, Note_on_c, 9, 62, 106
1, 2785, Note_off_c, 9, 62, 64
1, 2795, Note_off_c, 1, 29, 64
1, 2808, Note_off_c, 2, 69, 64
1, 2809, Note_off_c, 2, 60, 64
1, 2817, Note_off_c, 2, 65, 64
1, 2820, Note_off_c, 3, 62, 64
1, 2823, Lyric_t, "could "
1, 2823, Note_on_c, 3, 60, 103
1, 2845, Note_on_c, 9, 64, 49
1, 2846, Note_off_c, 9, 64, 64
1, 2847, Note_on_c, 1, 33, 126
1, 2877, Note_on_c, 6, 91, 101
1, 2878, Note_on_c, 9, 64, 52
1, 2879, Note_off_c, 9, 64, 64
1, 2880, Note_off_c, 3, 60, 64
1, 2880, Note_on_c, 1, 31, 106
1, 2881, Lyric_t, "be "
1, 2881, Lyric_t, "\015"
1, 2881, Note_on_c, 3, 60, 104
1, 2884, Note_off_c, 1, 33, 64
1, 2926, Note_off_c, 1, 31, 64
1, 2938, Note_off_c, 3, 60, 64
1, 2938, Note_on_c, 3, 62, 100
1, 2941, Note_on_c, 6, 89, 85
1, 2941, Note_on_c, 9, 64, 54
1, 2942, Note_off_c, 9, 64, 64
1, 2945, Note_on_c, 1, 33, 106
1, 2950, Note_off_c, 6, 91, 64
1, 2973, Note_on_c, 2, 60, 120
1, 2973, Note_on_c, 2, 69, 120
1, 2973, Note_on_c, 2, 65, 120
1, 2975, Note_on_c, 9, 63, 103
1, 2976, Note_off_c, 3, 62, 64
1, 2976, Note_off_c, 9, 63, 64
1, 2977, Note_on_c, 1, 36, 118
1, 2977, Note_on_c, 6, 88, 80
1, 2979, Note_off_c, 1, 33, 64
1, 2990, Note_off_c, 6, 89, 64
1, 3002, Note_off_c, 2, 69, 64
1, 3002, Note_off_c, 2, 60, 64
1, 3007, Note_off_c, 2, 65, 64
1, 3030, Note_off_c, 1, 36, 64
1, 3036, Note_on_c, 9, 63, 97
1, 3037, Note_off_c, 9, 63, 64
1, 3038, Note_on_c, 6, 86, 75
1, 3043, Note_off_c, 6, 88, 64
1, 3072, Note_on_c, 6, 84, 84
1, 3073, Note_on_c, 1, 36, 118
1, 3073, Note_on_c, 9, 64, 49
1, 3074, Note_off_c, 6, 86, 64
1, 3074, Note_off_c, 9, 64, 64
1, 3132, Lyric_t, "'cause "
1, 3132, Note_on_c, 3, 55, 113
1, 3134, Note_on_c, 9, 64, 53
1, 3135, Note_off_c, 9, 64, 64
1, 3165, Note_on_c, 2, 64, 120
1, 3165, Note_on_c, 2, 67, 120
1, 3166, Note_on_c, 2, 72, 120
1, 3168, Note_on_c, 9, 62, 110
1, 3169, Note_off_c, 9, 62, 64
1, 3177, Note_off_c, 1, 36, 64
1, 3180, Lyric_t, "a "
1, 3180, Note_on_c, 3, 57, 108
1, 3184, Note_off_c, 3, 55, 64
1, 3184, Note_off_c, 6, 84, 64
1, 3198, Note_off_c, 2, 67, 64
1, 3200, Note_off_c, 2, 72, 64
1, 3206, Note_off_c, 2, 64, 64
1, 3219, Lyric_t, "pret"
1, 3219, Note_on_c, 3, 60, 103
1, 3220, Note_off_c, 3, 57, 64
1, 3229, Note_on_c, 6, 84, 88
1, 3230, Note_on_c, 9, 64, 48
1, 3231, Note_on_c, 1, 36, 120
1, 3231, Note_off_c, 9, 64, 64
1, 3246, Lyric_t, "ty "
1, 3246, Note_on_c, 3, 62, 103
1, 3256, Note_off_c, 3, 60, 64
1, 3262, Note_off_c, 6, 84, 64
1, 3263, Note_off_c, 1, 36, 64
1, 3263, Note_on_c, 9, 64, 50
1, 3264, Note_on_c, 6, 91, 85
1, 3264, Note_off_c, 9, 64, 64
1, 3265, Note_on_c, 1, 28, 122
1, 3283, Lyric_t, "face "
1, 3283, Note_on_c, 3, 64, 108
1, 3289, Note_off_c, 3, 62, 64
1, 3309, Note_off_c, 1, 28, 64
1, 3322, Note_off_c, 6, 91, 64
1, 3326, Note_on_c, 6, 96, 83
1, 3326, Note_on_c, 9, 64, 51
1, 3327, Note_off_c, 9, 64, 64
1, 3328, Note_on_c, 1, 28, 106
1, 3338, Note_off_c, 3, 64, 64
1, 3358, Note_on_c, 2, 67, 120
1, 3358, Note_on_c, 2, 64, 120
1, 3358, Note_on_c, 2, 72, 120
1, 3359, Note_on_c, 9, 63, 97
1, 3360, Note_off_c, 9, 63, 64
1, 3381, Note_off_c, 1, 28, 64
1, 3388, Note_off_c, 6, 96, 64
1, 3394, Note_off_c, 2, 72, 64
1, 3395, Note_off_c, 2, 67, 64
1, 3396, Lyric_t, "got "
1, 3396, Note_on_c, 3, 64, 111
1, 3396, Note_off_c, 2, 64, 64
1, 3420, Note_on_c, 6, 93, 87
1, 3420, Note_on_c, 9, 63, 96
1, 3421, Note_on_c, 1, 29, 112
1, 3421, Note_off_c, 9, 63, 64
1, 3448, Lyric_t, "the "
1, 3448, Note_on_c, 3, 62, 103
1, 3456, Note_off_c, 3, 64, 64
1, 3498, Lyric_t, "best "
1, 3498, Note_on_c, 3, 64, 108
1, 3512, Note_off_c, 3, 62, 64
1, 3519, Note_on_c, 9, 64, 49
1, 3520, Note_off_c, 9, 64, 64
1, 3550, Note_on_c, 2, 60, 120
1, 3550, Note_on_c, 2, 65, 120
1, 3551, Note_off_c, 3, 64, 64
1, 3551, Note_on_c, 2, 69, 120
1, 3553, Note_on_c, 9, 62, 90
1, 3554, Note_off_c, 9, 62, 64
1, 3558, Note_off_c, 6, 93, 64
1, 3574, Lyric_t, "of "
1, 3574, Note_on_c, 3, 60, 104
1, 3577, Note_off_c, 1, 29, 64
1, 3581, Note_off_c, 2, 60, 64
1, 3585, Note_off_c, 2, 69, 64
1, 3587, Note_off_c, 2, 65, 64
1, 3614, Note_on_c, 1, 33, 118
1, 3614, Note_on_c, 9, 64, 51
1, 3615, Note_off_c, 9, 64, 64
1, 3637, Lyric_t, "me. "
1, 3637, Lyric_t, "\015"
1, 3637, Note_on_c, 3, 57, 98
1, 3644, Note_off_c, 3, 60, 64
1, 3647, Note_on_c, 6, 91, 87
1, 3649, Note_on_c, 1, 31, 97
1, 3650, Note_on_c, 9, 64, 52
1, 3651, Note_off_c, 9, 64, 64
1, 3654, Note_off_c, 1, 33, 64
1, 3681, Note_on_c, 3, 55, 99
1, 3682, Note_off_c, 3, 57, 64
1, 3697, Note_off_c, 1, 31, 64
1, 3703, Note_off_c, 6, 91, 64
1, 3708, Note_on_c, 6, 89, 78
1, 3710, Note_on_c, 1, 33, 104
1, 3711, Note_on_c, 9, 64, 53
1, 3712, Note_off_c, 9, 64, 64
1, 3720, Note_off_c, 3, 55, 64
1, 3736, Lyric_t, "\012"
1, 3739, Note_off_c, 1, 33, 64
1, 3742, Note_on_c, 1, 36, 118
1, 3742, Note_on_c, 2, 60, 120
1, 3742, Note_on_c, 2, 65, 120
1, 3743, Note_on_c, 2, 69, 120
1, 3744, Note_on_c, 6, 88, 77
1, 3748, Note_on_c, 9, 63, 105
1, 3749, Note_off_c, 6, 89, 64
1, 3749, Note_off_c, 9, 63, 64
1, 3769, Note_off_c, 2, 60, 64
1, 3771, Note_off_c, 2, 69, 64
1, 3779, Note_off_c, 2, 65, 64
1, 3796, Note_off_c, 1, 36, 64
1, 3803, Note_off_c, 6, 88, 64
1, 3804, Note_on_c, 1, 33, 87
1, 3806, Note_on_c, 6, 86, 72
1, 3809, Note_on_c, 9, 63, 95
1, 3810, Note_off_c, 9, 63, 64
1, 3834, Note_off_c, 1, 33, 64
1, 3837, Note_on_c, 1, 36, 120
1, 3838, Note_on_c, 6, 84, 83
1, 3840, Note_off_c, 6, 86, 64
1, 3933, Lyric_t, "Sud"
1, 3933, Note_on_c, 3, 64, 115
1, 3933, Note_on_c, 2, 64, 120
1, 3933, Note_on_c, 2, 72, 120
1, 3934, Note_on_c, 2, 67, 120
1, 3935, Note_on_c, 9, 62, 109
1, 3936, Note_off_c, 9, 62, 64
1, 3950, Note_off_c, 6, 84, 64
1, 3961, Note_off_c, 2, 67, 64
1, 3963, Lyric_t, "den"
1, 3963, Note_on_c, 3, 67, 110
1, 3963, Note_off_c, 2, 72, 64
1, 3966, Note_off_c, 1, 36, 64
1, 3969, Note_off_c, 3, 64, 64
1, 3970, Note_off_c, 2, 64, 64
1, 3992, Note_off_c, 3, 67, 64
1, 3997, Note_on_c, 6, 84, 98
1, 3998, Note_on_c, 1, 36, 120
1, 3999, Lyric_t, "ly "
1, 3999, Note_on_c, 3, 67, 111
1, 3999, Note_on_c, 9, 64, 45
1, 4000, Note_off_c, 9, 64, 64
1, 4027, Note_on_c, 3, 69, 101
1, 4030, Note_off_c, 1, 36, 64
1, 4031, Note_on_c, 6, 91, 84
1, 4031, Note_on_c, 9, 64, 45
1, 4032, Note_on_c, 1, 28, 100
1, 4032, Note_off_c, 6, 84, 64
1, 4032, Note_off_c, 9, 64, 64
1, 4036, Note_off_c, 3, 67, 64
1, 4082, Note_off_c, 3, 69, 64
1, 4084, Note_off_c, 6, 91, 64
1, 4086, Note_off_c, 1, 28, 64
1, 4094, Note_on_c, 1, 31, 97
1, 4094, Note_on_c, 6, 96, 85
1, 4095, Note_on_c, 9, 64, 42
1, 4096, Note_off_c, 9, 64, 64
1, 4125, Note_on_c, 2, 72, 120
1, 4125, Note_on_c, 2, 64, 120
1, 4125, Note_on_c, 2, 67, 120
1, 4127, Note_on_c, 9, 63, 110
1, 4128, Note_off_c, 9, 63, 64
1, 4138, Note_off_c, 1, 31, 64
1, 4161, Note_off_c, 2, 67, 64
1, 4162, Note_off_c, 2, 72, 64
1, 4162, Note_off_c, 6, 96, 64
1, 4164, Note_off_c, 2, 64, 64
1, 4187, Lyric_t, "you "
1, 4187, Note_on_c, 3, 64, 109
1, 4187, Note_on_c, 6, 93, 87
1, 4190, Note_on_c, 9, 63, 101
1, 4191, Note_on_c, 1, 29, 105
1, 4191, Note_off_c, 9, 63, 64
1, 4204, Note_off_c, 3, 64, 64
1, 4224, Lyric_t, "came "
1, 4224, Note_on_c, 3, 65, 106
1, 4286, Note_on_c, 9, 64, 49
1, 4287, Note_off_c, 9, 64, 64
1, 4290, Lyric_t, "in"
1, 4290, Note_on_c, 3, 64, 107
1, 4298, Note_off_c, 3, 65, 64
1, 4320, Note_on_c, 9, 62, 106
1, 4321, Note_on_c, 2, 60, 120
1, 4321, Note_on_c, 2, 65, 120
1, 4321, Note_off_c, 9, 62, 64
1, 4322, Note_on_c, 2, 69, 120
1, 4327, Note_off_c, 1, 29, 64
1, 4349, Note_off_c, 3, 64, 64
1, 4352, Note_off_c, 6, 93, 64
1, 4354, Note_off_c, 2, 60, 64
1, 4356, Note_off_c, 2, 69, 64
1, 4358, Lyric_t, "to "
1, 4358, Note_on_c, 3, 62, 106
1, 4361, Note_off_c, 2, 65, 64
1, 4377, Lyric_t, "my "
1, 4377, Note_on_c, 3, 60, 103
1, 4378, Note_off_c, 3, 62, 64
1, 4381, Note_on_c, 9, 64, 49
1, 4382, Note_off_c, 9, 64, 64
1, 4384, Note_on_c, 1, 33, 124
1, 4401, Note_off_c, 3, 60, 64
1, 4413, Lyric_t, "life "
1, 4413, Lyric_t, "\015"
1, 4413, Note_on_c, 3, 60, 105
1, 4414, Note_on_c, 9, 64, 52
1, 4415, Note_on_c, 6, 91, 77
1, 4415, Note_off_c, 9, 64, 64
1, 4418, Note_on_c, 1, 31, 94
1, 4422, Note_off_c, 1, 33, 64
1, 4435, Note_on_c, 3, 62, 101
1, 4442, Note_off_c, 3, 60, 64
1, 4477, Note_on_c, 9, 64, 54
1, 4478, Note_off_c, 6, 91, 64
1, 4478, Note_off_c, 9, 64, 64
1, 4480, Note_on_c, 1, 33, 90
1, 4481, Note_on_c, 6, 89, 69
1, 4482, Note_off_c, 1, 31, 64
1, 4505, Note_off_c, 3, 62, 64
1, 4510, Note_off_c, 1, 33, 64
1, 4511, Note_on_c, 9, 63, 103
1, 4512, Note_off_c, 9, 63, 64
1, 4513, Note_on_c, 1, 36, 122
1, 4513, Note_on_c, 2, 69, 120
1, 4513, Note_on_c, 2, 60, 120
1, 4513, Note_on_c, 2, 65, 120
1, 4514, Note_on_c, 6, 88, 75
1, 4523, Note_off_c, 6, 89, 64
1, 4538, Note_off_c, 2, 60, 64
1, 4541, Note_off_c, 2, 69, 64
1, 4551, Note_off_c, 2, 65, 64
1, 4567, Note_off_c, 1, 36, 64
1, 4572, Note_on_c, 9, 63, 97
1, 4573, Note_off_c, 6, 88, 64
1, 4573, Note_off_c, 9, 63, 64
1, 4575, Note_on_c, 6, 86, 71
1, 4607, Note_off_c, 6, 86, 64
1, 4607, Note_on_c, 6, 84, 84
1, 4609, Note_on_c, 9, 64, 49
1, 4610, Note_on_c, 1, 36, 114
1, 4610, Note_off_c, 9, 64, 64
1, 4669, Lyric_t, "and "
1, 4669, Note_on_c, 3, 55, 115
1, 4670, Note_on_c, 9, 64, 53
1, 4671, Note_off_c, 9, 64, 64
1, 4702, Note_on_c, 2, 72, 120
1, 4702, Note_on_c, 2, 64, 120
1, 4703, Note_on_c, 2, 67, 120
1, 4704, Note_on_c, 9, 62, 110
1, 4705, Note_off_c, 9, 62, 64
1, 4714, Note_off_c, 6, 84, 64
1, 4727, Lyric_t, "gave "
1, 4727, Note_on_c, 3, 57, 104
1, 4730, Note_off_c, 1, 36, 64
1, 4732, Note_off_c, 3, 55, 64
1, 4732, Note_off_c, 2, 67, 64
1, 4734, Note_off_c, 2, 72, 64
1, 4737, Note_off_c, 2, 64, 64
1, 4766, Note_on_c, 1, 36, 120
1, 4766, Note_on_c, 6, 84, 97
1, 4766, Note_on_c, 9, 64, 48
1, 4767, Note_off_c, 9, 64, 64
1, 4790, Lyric_t, "it "
1, 4790, Note_on_c, 3, 60, 103
1, 4792, Note_off_c, 3, 57, 64
1, 4798, Note_off_c, 6, 84, 64
1, 4799, Note_on_c, 9, 64, 50
1, 4800, Note_on_c, 1, 28, 106
1, 4800, Note_off_c, 9, 64, 64
1, 4802, Note_on_c, 6, 91, 81
1, 4810, Note_off_c, 1, 36, 64
1, 4823, Note_off_c, 3, 60, 64
1, 4853, Note_off_c, 1, 28, 64
1, 4856, Note_off_c, 6, 91, 64
1, 4860, Note_on_c, 1, 31, 108
1, 4862, Note_on_c, 9, 64, 51
1, 4863, Note_off_c, 9, 64, 64
1, 4864, Note_on_c, 6, 96, 82
1, 4865, Lyric_t, "mean"
1, 4865, Note_on_c, 3, 65, 104
1, 4895, Note_on_c, 2, 64, 120
1, 4895, Note_on_c, 2, 72, 120
1, 4895, Note_on_c, 9, 63, 97
1, 4896, Note_on_c, 2, 67, 120
1, 4896, Note_off_c, 9, 63, 64
1, 4906, Note_off_c, 1, 31, 64
1, 4925, Lyric_t, "ing "
1, 4925, Note_on_c, 3, 64, 106
1, 4926, Note_off_c, 6, 96, 64
1, 4928, Note_off_c, 3, 65, 64
1, 4928, Note_off_c, 2, 67, 64
1, 4930, Note_off_c, 2, 72, 64
1, 4932, Note_off_c, 2, 64, 64
1, 4956, Note_on_c, 1, 29, 116
1, 4956, Note_on_c, 6, 93, 93
1, 4956, Note_on_c, 9, 63, 96
1, 4957, Note_off_c, 9, 63, 64
1, 4980, Lyric_t, "and "
1, 4980, Note_on_c, 3, 62, 110
1, 4984, Note_off_c, 3, 64, 64
1, 4992, Note_on_c, 9, 38, 72
1, 4992, Note_on_c, 9, 35, 101
1, 4993, Note_off_c, 9, 35, 64
1, 4993, Note_off_c, 9, 38, 64
1, 5019, Note_off_c, 3, 62, 64
1, 5025, Note_on_c, 9, 38, 73
1, 5026, Note_off_c, 9, 38, 64
1, 5055, Lyric_t, "pure "
1, 5055, Note_on_c, 3, 64, 107
1, 5055, Note_on_c, 9, 64, 49
1, 5056, Note_off_c, 9, 64, 64
1, 5059, Note_on_c, 9, 38, 79
1, 5060, Note_off_c, 9, 38, 64
1, 5087, Note_on_c, 9, 35, 102
1, 5087, Note_on_c, 2, 60, 120
1, 5087, Note_on_c, 2, 65, 120
1, 5088, Note_off_c, 9, 35, 64
1, 5088, Note_on_c, 9, 38, 93
1, 5088, Note_on_c, 2, 69, 120
1, 5089, Note_off_c, 9, 38, 64
1, 5089, Note_on_c, 9, 62, 90
1, 5090, Note_on_c, 0, 57, 76
1, 5090, Note_on_c, 0, 65, 76
1, 5090, Note_on_c, 0, 60, 78
1, 5090, Note_off_c, 9, 62, 64
1, 5091, Control_c, 0, 1, 0
1, 5091, Pitch_bend_c, 0, 8192
1, 5092, Note_on_c, 0, 41, 79
1, 5106, Note_off_c, 1, 29, 64
1, 5112, Note_off_c, 2, 60, 64
1, 5114, Note_off_c, 2, 69, 64
1, 5120, Note_off_c, 2, 65, 64
1, 5123, Note_on_c, 9, 38, 94
1, 5124, Note_off_c, 9, 38, 64
1, 5124, Note_off_c, 6, 93, 64
1, 5143, Lyric_t, "de"
1, 5143, Note_on_c, 3, 60, 108
1, 5144, Note_off_c, 3, 64, 64
1, 5147, Note_on_c, 1, 29, 102
1, 5150, Note_on_c, 9, 64, 51
1, 5151, Note_off_c, 9, 64, 64
1, 5154, Note_on_c, 9, 38, 102
1, 5155, Note_off_c, 9, 38, 64
1, 5168, Note_off_c, 1, 29, 64
1, 5168, Note_off_c, 0, 41, 64
1, 5170, Note_off_c, 0, 60, 64
1, 5172, Note_off_c, 0, 65, 64
1, 5172, Note_off_c, 0, 57, 64
1, 5181, Note_on_c, 1, 29, 114
1, 5181, Note_on_c, 6, 89, 88
1, 5182, Lyric_t, "light. "
1, 5182, Lyric_t, "\015"
1, 5182, Note_on_c, 3, 57, 101
1, 5184, Note_on_c, 9, 35, 103
1, 5185, Note_off_c, 9, 35, 64
1, 5186, Note_on_c, 9, 38, 108
1, 5186, Note_on_c, 0, 65, 86
1, 5186, Note_on_c, 0, 57, 86
1, 5186, Note_on_c, 0, 60, 97
1, 5186, Note_on_c, 0, 41, 92
1, 5186, Note_on_c, 9, 64, 52
1, 5187, Note_off_c, 9, 38, 64
1, 5187, Note_off_c, 9, 64, 64
1, 5196, Note_off_c, 3, 60, 64
1, 5218, Note_on_c, 9, 38, 120
1, 5219, Note_off_c, 9, 38, 64
1, 5239, Note_on_c, 3, 55, 102
1, 5242, Note_off_c, 6, 89, 64
1, 5244, Note_off_c, 3, 57, 64
1, 5247, Lyric_t, "\012"
1, 5247, Note_on_c, 9, 64, 53
1, 5248, Note_off_c, 9, 64, 64
1, 5250, Note_on_c, 9, 38, 116
1, 5251, Note_off_c, 9, 38, 64
1, 5264, Note_off_c, 0, 60, 64
1, 5265, Note_off_c, 0, 57, 64
1, 5266, Note_off_c, 0, 41, 64
1, 5267, Note_off_c, 0, 65, 64
1, 5271, Note_off_c, 1, 29, 64
1, 5278, Note_on_c, 2, 60, 120
1, 5279, Note_on_c, 2, 65, 120
1, 5279, Note_on_c, 2, 69, 120
1, 5280, Note_on_c, 1, 29, 122
1, 5281, Note_on_c, 0, 60, 112
1, 5281, Note_on_c, 0, 65, 103
1, 5281, Note_on_c, 0, 57, 103
1, 5281, Note_on_c, 6, 89, 90
1, 5282, Note_on_c, 9, 38, 127
1, 5282, Note_on_c, 9, 35, 109
1, 5282, Note_on_c, 0, 41, 103
1, 5283, Note_off_c, 9, 35, 64
1, 5283, Note_off_c, 9, 38, 64
1, 5284, Note_on_c, 9, 63, 105
1, 5285, Note_off_c, 9, 63, 64
1, 5288, Note_off_c, 3, 55, 64
1, 5312, Note_on_c, 9, 38, 126
1, 5312, Note_off_c, 2, 69, 64
1, 5312, Note_off_c, 2, 60, 64
1, 5313, Note_off_c, 9, 38, 64
1, 5319, Note_off_c, 2, 65, 64
1, 5342, Note_off_c, 0, 41, 64
1, 5344, Note_off_c, 1, 29, 64
1, 5344, Note_off_c, 6, 89, 64
1, 5345, Note_on_c, 9, 38, 127
1, 5345, Note_off_c, 0, 57, 64
1, 5345, Note_on_c, 9, 63, 95
1, 5346, Note_off_c, 9, 38, 64
1, 5346, Note_on_c, 1, 29, 122
1, 5346, Note_off_c, 0, 60, 64
1, 5346, Note_off_c, 9, 63, 64
1, 5347, Note_off_c, 0, 65, 64
1, 5376, Note_on_c, 5, 64, 80
1, 5376, Note_on_c, 5, 67, 81
1, 5376, Note_on_c, 9, 35, 106
1, 5376, Note_on_c, 0, 36, 100
1, 5376, Note_on_c, 0, 64, 106
1, 5376, Note_on_c, 0, 67, 104
1, 5376, Note_on_c, 0, 60, 103
1, 5376, Note_on_c, 8, 48, 71
1, 5377, Lyric_t, "Now, "
1, 5377, Note_on_c, 3, 64, 112
1, 5377, Control_c, 5, 1, 0
1, 5377, Pitch_bend_c, 5, 8192
1, 5377, Note_off_c, 9, 35, 64
1, 5377, Note_on_c, 9, 42, 67
1, 5377, Note_on_c, 8, 64, 73
1, 5378, Note_off_c, 9, 42, 64
1, 5378, Note_on_c, 1, 36, 112
1, 5378, Note_on_c, 6, 88, 81
1, 5378, Note_on_c, 8, 55, 70
1, 5384, Note_off_c, 1, 29, 64
1, 5434, Note_off_c, 3, 64, 64
1, 5440, Lyric_t, "good "
1, 5440, Note_on_c, 3, 62, 108
1, 5441, Note_on_c, 9, 42, 56
1, 5442, Note_off_c, 9, 42, 64
1, 5455, Note_off_c, 0, 60, 64
1, 5470, Note_on_c, 9, 38, 108
1, 5471, Note_off_c, 9, 38, 64
1, 5471, Note_on_c, 9, 62, 109
1, 5472, Note_on_c, 9, 42, 71
1, 5472, Note_on_c, 0, 60, 70
1, 5472, Note_off_c, 9, 62, 64
1, 5473, Note_off_c, 9, 42, 64
1, 5473, Note_on_c, 2, 64, 120
1, 5474, Note_on_c, 3, 60, 108
1, 5474, Note_on_c, 2, 67, 120
1, 5474, Note_on_c, 2, 72, 120
1, 5479, Note_off_c, 3, 62, 64
1, 5487, Note_off_c, 1, 36, 64
1, 5491, Note_off_c, 0, 67, 64
1, 5491, Note_off_c, 0, 64, 64
1, 5493, Note_off_c, 0, 60, 64
1, 5500, Note_off_c, 8, 55, 64
1, 5500, Note_off_c, 8, 48, 64
1, 5503, Note_off_c, 8, 64, 64
1, 5508, Note_off_c, 2, 67, 64
1, 5510, Note_off_c, 2, 72, 64
1, 5513, Note_off_c, 2, 64, 64
1, 5519, Note_off_c, 0, 36, 64
1, 5526, Note_off_c, 6, 88, 64
1, 5533, Note_on_c, 0, 69, 101
1, 5533, Note_on_c, 0, 62, 106
1, 5533, Note_on_c, 0, 65, 103
1, 5534, Note_on_c, 1, 36, 108
1, 5534, Note_on_c, 0, 38, 90
1, 5535, Note_on_c, 9, 42, 58
1, 5535, Note_on_c, 9, 35, 101
1, 5535, Note_on_c, 8, 65, 72
1, 5535, Note_on_c, 8, 50, 66
1, 5535, Note_on_c, 8, 57, 65
1, 5535, Note_on_c, 9, 64, 45
1, 5536, Note_off_c, 5, 67, 64
1, 5536, Note_off_c, 5, 64, 64
1, 5536, Note_on_c, 5, 65, 76
1, 5536, Note_on_c, 5, 69, 80
1, 5536, Note_off_c, 9, 35, 64
1, 5536, Note_off_c, 9, 42, 64
1, 5536, Note_off_c, 9, 64, 64
1, 5541, Lyric_t, "looks "
1, 5541, Note_on_c, 3, 62, 110
1, 5548, Note_off_c, 3, 60, 64
1, 5567, Note_on_c, 9, 42, 70
1, 5567, Note_on_c, 9, 35, 103
1, 5567, Note_on_c, 9, 64, 45
1, 5568, Note_off_c, 9, 35, 64
1, 5568, Note_off_c, 9, 42, 64
1, 5568, Note_off_c, 9, 64, 64
1, 5570, Note_on_c, 1, 38, 102
1, 5572, Note_off_c, 1, 36, 64
1, 5582, Note_off_c, 3, 62, 64
1, 5625, Lyric_t, "I've "
1, 5625, Note_on_c, 3, 57, 111
1, 5631, Note_on_c, 9, 42, 60
1, 5631, Note_on_c, 9, 64, 42
1, 5632, Note_off_c, 9, 42, 64
1, 5632, Note_off_c, 9, 64, 64
1, 5633, Note_on_c, 0, 72, 96
1, 5650, Note_off_c, 0, 69, 64
1, 5651, Note_off_c, 0, 62, 64
1, 5653, Note_off_c, 0, 38, 64
1, 5653, Note_off_c, 0, 65, 64
1, 5655, Note_off_c, 0, 72, 64
1, 5661, Note_on_c, 9, 38, 112
1, 5662, Note_off_c, 9, 38, 64
1, 5662, Note_on_c, 9, 42, 65
1, 5662, Note_on_c, 2, 60, 120
1, 5662, Note_on_c, 2, 65, 120
1, 5663, Note_off_c, 9, 42, 64
1, 5663, Note_on_c, 0, 38, 96
1, 5663, Note_on_c, 2, 69, 120
1, 5663, Note_on_c, 9, 63, 110
1, 5664, Note_off_c, 5, 69, 64
1, 5664, Note_off_c, 5, 65, 64
1, 5664, Note_on_c, 0, 69, 106
1, 5664, Note_on_c, 0, 65, 108
1, 5664, Note_off_c, 9, 63, 64
1, 5665, Note_on_c, 0, 62, 106
1, 5687, Note_off_c, 1, 38, 64
1, 5689, Note_off_c, 2, 60, 64
1, 5689, Note_off_c, 8, 65, 64
1, 5690, Note_off_c, 8, 50, 64
1, 5692, Note_off_c, 8, 57, 64
1, 5695, Note_off_c, 2, 69, 64
1, 5697, Note_off_c, 2, 65, 64
1, 5698, Note_off_c, 3, 57, 64
1, 5699, Lyric_t, "learned "
1, 5699, Note_on_c, 3, 60, 106
1, 5711, Note_off_c, 0, 62, 64
1, 5715, Note_off_c, 0, 65, 64
1, 5716, Note_off_c, 0, 69, 64
1, 5718, Note_off_c, 0, 38, 64
1, 5726, Note_on_c, 9, 35, 101
1, 5726, Note_on_c, 1, 36, 98
1, 5726, Note_on_c, 9, 63, 101
1, 5727, Note_off_c, 9, 35, 64
1, 5727, Note_on_c, 9, 42, 55
1, 5727, Note_on_c, 0, 43, 94
1, 5727, Note_off_c, 9, 63, 64
1, 5728, Note_off_c, 9, 42, 64
1, 5742, Note_off_c, 3, 60, 64
1, 5754, Note_off_c, 1, 36, 64
1, 5758, Note_on_c, 9, 42, 57
1, 5758, Note_on_c, 9, 35, 103
1, 5758, Note_on_c, 1, 36, 106
1, 5759, Note_off_c, 9, 35, 64
1, 5759, Note_off_c, 9, 42, 64
1, 5759, Note_on_c, 8, 64, 61
1, 5760, Note_on_c, 8, 55, 67
1, 5760, Note_on_c, 8, 48, 61
1, 5761, Note_on_c, 0, 64, 90
1, 5761, Note_on_c, 0, 67, 91
1, 5761, Note_on_c, 0, 60, 96
1, 5761, Note_on_c, 0, 36, 90
1, 5764, Note_off_c, 0, 43, 64
1, 5816, Lyric_t, "to "
1, 5816, Note_on_c, 3, 57, 108
1, 5822, Note_on_c, 9, 64, 49
1, 5823, Note_off_c, 9, 64, 64
1, 5824, Note_on_c, 9, 42, 53
1, 5825, Note_off_c, 9, 42, 64
1, 5852, Note_off_c, 0, 64, 64
1, 5852, Note_off_c, 0, 67, 64
1, 5853, Note_on_c, 9, 38, 110
1, 5854, Note_off_c, 3, 57, 64
1, 5854, Note_off_c, 9, 38, 64
1, 5854, Note_off_c, 1, 36, 64
1, 5854, Note_on_c, 0, 72, 97
1, 5854, Note_on_c, 0, 67, 74
1, 5854, Note_on_c, 0, 64, 89
1, 5854, Note_on_c, 2, 64, 120
1, 5855, Note_on_c, 9, 42, 62
1, 5855, Note_on_c, 2, 67, 120
1, 5856, Note_on_c, 5, 76, 81
1, 5856, Note_off_c, 9, 42, 64
1, 5856, Note_on_c, 2, 72, 120
1, 5856, Note_on_c, 9, 62, 106
1, 5857, Note_on_c, 0, 48, 90
1, 5857, Note_off_c, 9, 62, 64
1, 5859, Lyric_t, "do "
1, 5859, Note_on_c, 3, 64, 113
1, 5863, Note_off_c, 0, 60, 64
1, 5863, Note_off_c, 0, 36, 64
1, 5880, Note_off_c, 8, 48, 64
1, 5883, Note_off_c, 8, 55, 64
1, 5884, Note_off_c, 8, 64, 64
1, 5886, Note_off_c, 0, 67, 64
1, 5891, Note_off_c, 0, 48, 64
1, 5893, Note_off_c, 0, 64, 64
1, 5895, Note_off_c, 2, 67, 64
1, 5896, Note_off_c, 2, 72, 64
1, 5897, Note_off_c, 2, 64, 64
1, 5901, Note_off_c, 0, 72, 64
1, 5914, Lyric_t, "with"
1, 5914, Note_on_c, 3, 62, 106
1, 5915, Note_on_c, 0, 38, 110
1, 5917, Note_on_c, 9, 35, 100
1, 5917, Note_on_c, 8, 65, 60
1, 5917, Note_on_c, 9, 64, 49
1, 5918, Note_off_c, 9, 35, 64
1, 5918, Note_on_c, 1, 38, 104
1, 5918, Note_on_c, 8, 57, 54
1, 5918, Note_on_c, 8, 50, 67
1, 5918, Note_off_c, 9, 64, 64
1, 5919, Note_off_c, 3, 64, 64
1, 5919, Note_on_c, 9, 42, 59
1, 5920, Note_off_c, 9, 42, 64
1, 5938, Note_off_c, 1, 38, 64
1, 5949, Note_on_c, 1, 38, 100
1, 5949, Note_on_c, 0, 62, 116
1, 5949, Note_on_c, 0, 57, 106
1, 5949, Note_on_c, 0, 53, 104
1, 5950, Note_on_c, 9, 35, 104
1, 5950, Note_on_c, 9, 64, 52
1, 5951, Note_off_c, 9, 35, 64
1, 5951, Note_on_c, 9, 42, 63
1, 5951, Note_off_c, 9, 64, 64
1, 5952, Note_off_c, 5, 76, 64
1, 5952, Note_on_c, 5, 74, 80
1, 5952, Note_off_c, 9, 42, 64
1, 5962, Note_off_c, 3, 62, 64
1, 5966, Lyric_t, "out, "
1, 5966, Lyric_t, "\015"
1, 5966, Note_on_c, 3, 62, 111
1, 5992, Note_off_c, 0, 38, 64
1, 6012, Note_off_c, 3, 62, 64
1, 6013, Note_on_c, 9, 42, 51
1, 6013, Note_on_c, 9, 64, 54
1, 6014, Note_off_c, 9, 42, 64
1, 6014, Note_off_c, 0, 62, 64
1, 6014, Note_on_c, 0, 60, 89
1, 6014, Note_off_c, 9, 64, 64
1, 6016, Note_off_c, 5, 74, 64
1, 6016, Note_on_c, 5, 72, 77
1, 6028, Note_off_c, 0, 57, 64
1, 6029, Note_off_c, 0, 53, 64
1, 6032, Note_off_c, 0, 60, 64
1, 6044, Note_on_c, 9, 38, 108
1, 6044, Note_on_c, 9, 42, 49
1, 6045, Note_off_c, 9, 42, 64
1, 6045, Note_off_c, 9, 38, 64
1, 6046, Note_on_c, 2, 60, 120
1, 6046, Note_on_c, 2, 65, 120
1, 6047, Note_off_c, 5, 72, 64
1, 6047, Note_on_c, 2, 69, 120
1, 6047, Note_on_c, 9, 63, 103
1, 6048, Note_off_c, 9, 63, 64
1, 6054, Note_off_c, 8, 65, 64
1, 6059, Note_off_c, 1, 38, 64
1, 6061, Note_off_c, 8, 50, 64
1, 6061, Note_off_c, 8, 57, 64
1, 6076, Note_off_c, 2, 60, 64
1, 6084, Note_off_c, 2, 65, 64
1, 6090, Note_off_c, 2, 69, 64
1, 6096, Lyric_t, "'cause "
1, 6096, Note_on_c, 3, 57, 109
1, 6108, Note_on_c, 9, 63, 97
1, 6109, Note_on_c, 9, 42, 59
1, 6109, Note_on_c, 0, 43, 123
1, 6109, Note_off_c, 9, 63, 64
1, 6110, Note_off_c, 9, 42, 64
1, 6110, Note_on_c, 9, 35, 101
1, 6110, Note_on_c, 1, 36, 105
1, 6111, Note_off_c, 9, 35, 64
1, 6132, Note_off_c, 1, 36, 64
1, 6138, Note_off_c, 3, 57, 64
1, 6140, Note_on_c, 9, 42, 62
1, 6140, Note_on_c, 8, 48, 70
1, 6141, Note_off_c, 9, 42, 64
1, 6141, Note_on_c, 0, 36, 101
1, 6141, Note_on_c, 8, 64, 81
1, 6141, Note_on_c, 8, 55, 78
1, 6142, Note_on_c, 1, 36, 92
1, 6142, Note_on_c, 0, 67, 87
1, 6142, Note_on_c, 0, 64, 89
1, 6142, Note_on_c, 7, 72, 78
1, 6143, Note_on_c, 9, 35, 103
1, 6144, Note_on_c, 5, 67, 74
1, 6144, Note_on_c, 5, 64, 84
1, 6144, Note_off_c, 9, 35, 64
1, 6144, Note_on_c, 0, 72, 100
1, 6145, Note_on_c, 9, 64, 49
1, 6146, Note_off_c, 0, 43, 64
1, 6146, Note_off_c, 9, 64, 64
1, 6193, Lyric_t, "now "
1, 6193, Note_on_c, 3, 64, 115
1, 6205, Note_on_c, 9, 42, 55
1, 6206, Note_off_c, 9, 42, 64
1, 6206, Note_on_c, 9, 64, 53
1, 6207, Note_off_c, 9, 64, 64
1, 6227, Note_off_c, 0, 64, 64
1, 6236, Note_on_c, 9, 38, 112
1, 6237, Note_off_c, 9, 38, 64
1, 6237, Note_on_c, 9, 42, 60
1, 6237, Note_on_c, 0, 64, 40
1, 6238, Note_off_c, 9, 42, 64
1, 6238, Note_on_c, 2, 64, 120
1, 6238, Note_on_c, 2, 67, 120
1, 6239, Note_on_c, 2, 72, 120
1, 6240, Note_on_c, 9, 62, 110
1, 6241, Note_off_c, 9, 62, 64
1, 6254, Note_off_c, 1, 36, 64
1, 6255, Note_off_c, 0, 67, 64
1, 6260, Note_off_c, 8, 64, 64
1, 6261, Note_off_c, 8, 55, 64
1, 6262, Note_off_c, 3, 64, 64
1, 6264, Lyric_t, "I "
1, 6264, Note_on_c, 3, 62, 111
1, 6264, Note_off_c, 0, 64, 64
1, 6267, Note_off_c, 0, 72, 64
1, 6268, Note_off_c, 8, 48, 64
1, 6269, Note_off_c, 7, 72, 64
1, 6271, Note_off_c, 2, 67, 64
1, 6273, Note_off_c, 2, 72, 64
1, 6278, Note_off_c, 2, 64, 64
1, 6295, Note_off_c, 0, 36, 64
1, 6299, Note_on_c, 8, 65, 66
1, 6299, Note_on_c, 8, 57, 61
1, 6300, Note_on_c, 7, 74, 94
1, 6300, Note_on_c, 8, 50, 68
1, 6301, Note_on_c, 9, 35, 102
1, 6301, Note_on_c, 1, 38, 97
1, 6301, Note_on_c, 0, 38, 93
1, 6301, Note_on_c, 0, 65, 94
1, 6302, Note_off_c, 9, 35, 64
1, 6302, Note_on_c, 0, 69, 106
1, 6302, Note_on_c, 0, 74, 116
1, 6302, Note_on_c, 9, 64, 48
1, 6303, Note_on_c, 9, 42, 57
1, 6303, Note_off_c, 9, 64, 64
1, 6304, Note_off_c, 5, 64, 64
1, 6304, Note_off_c, 5, 67, 64
1, 6304, Note_on_c, 5, 69, 80
1, 6304, Note_on_c, 5, 65, 76
1, 6304, Note_off_c, 9, 42, 64
1, 6321, Note_off_c, 1, 38, 64
1, 6322, Note_off_c, 3, 62, 64
1, 6325, Lyric_t, "know "
1, 6325, Note_on_c, 3, 62, 106
1, 6333, Note_on_c, 1, 38, 108
1, 6334, Note_on_c, 9, 42, 61
1, 6334, Note_on_c, 9, 35, 102
1, 6335, Note_off_c, 9, 35, 64
1, 6335, Note_off_c, 9, 42, 64
1, 6335, Note_on_c, 9, 64, 50
1, 6336, Note_off_c, 9, 64, 64
1, 6392, Lyric_t, "it's "
1, 6392, Note_on_c, 3, 57, 104
1, 6394, Note_off_c, 3, 62, 64
1, 6398, Note_on_c, 9, 64, 51
1, 6399, Note_on_c, 9, 42, 54
1, 6399, Note_off_c, 9, 64, 64
1, 6400, Note_off_c, 9, 42, 64
1, 6428, Note_on_c, 9, 38, 110
1, 6429, Note_off_c, 9, 38, 64
1, 6431, Note_on_c, 9, 42, 61
1, 6431, Note_on_c, 2, 65, 120
1, 6431, Note_on_c, 2, 69, 120
1, 6431, Note_on_c, 9, 63, 97
1, 6432, Note_off_c, 5, 65, 64
1, 6432, Note_off_c, 5, 69, 64
1, 6432, Note_off_c, 9, 42, 64
1, 6432, Note_on_c, 2, 74, 120
1, 6432, Note_off_c, 9, 63, 64
1, 6436, Note_off_c, 3, 57, 64
1, 6449, Note_off_c, 0, 65, 64
1, 6449, Note_off_c, 8, 65, 64
1, 6450, Note_off_c, 1, 38, 64
1, 6454, Note_off_c, 0, 69, 64
1, 6455, Note_off_c, 8, 57, 64
1, 6456, Note_off_c, 2, 65, 64
1, 6458, Note_off_c, 8, 50, 64
1, 6466, Note_off_c, 2, 74, 64
1, 6467, Note_off_c, 0, 74, 64
1, 6467, Note_off_c, 2, 69, 64
1, 6469, Note_off_c, 7, 74, 64
1, 6485, Lyric_t, "love "
1, 6485, Note_on_c, 3, 67, 114
1, 6486, Note_off_c, 0, 38, 64
1, 6492, Note_on_c, 1, 40, 104
1, 6492, Note_on_c, 8, 67, 78
1, 6492, Note_on_c, 9, 63, 96
1, 6493, Note_on_c, 9, 42, 54
1, 6493, Note_on_c, 0, 40, 98
1, 6493, Note_on_c, 0, 71, 116
1, 6493, Note_on_c, 7, 76, 97
1, 6493, Note_on_c, 8, 59, 72
1, 6493, Note_off_c, 9, 63, 64
1, 6494, Note_off_c, 9, 42, 64
1, 6494, Note_on_c, 9, 35, 100
1, 6494, Note_on_c, 0, 67, 98
1, 6494, Note_on_c, 0, 76, 110
1, 6494, Note_on_c, 8, 52, 66
1, 6495, Note_off_c, 9, 35, 64
1, 6514, Note_off_c, 1, 40, 64
1, 6524, Note_on_c, 9, 42, 49
1, 6524, Note_on_c, 1, 40, 111
1, 6525, Note_off_c, 9, 42, 64
1, 6526, Note_on_c, 9, 35, 102
1, 6527, Note_off_c, 9, 35, 64
1, 6583, Note_off_c, 3, 67, 64
1, 6585, Lyric_t, "that "
1, 6585, Note_on_c, 3, 64, 106
1, 6589, Note_on_c, 9, 42, 56
1, 6590, Note_off_c, 9, 42, 64
1, 6591, Note_on_c, 9, 64, 49
1, 6592, Note_off_c, 9, 64, 64
1, 6603, Note_off_c, 3, 64, 64
1, 6616, Lyric_t, "real"
1, 6616, Note_on_c, 3, 64, 113
1, 6621, Note_on_c, 9, 38, 108
1, 6621, Note_on_c, 2, 67, 120
1, 6622, Note_off_c, 9, 38, 64
1, 6622, Note_on_c, 9, 42, 53
1, 6622, Note_on_c, 2, 71, 120
1, 6622, Note_on_c, 2, 76, 120
1, 6623, Note_off_c, 9, 42, 64
1, 6624, Note_on_c, 5, 76, 87
1, 6625, Note_off_c, 1, 40, 64
1, 6625, Note_on_c, 9, 62, 90
1, 6626, Note_off_c, 9, 62, 64
1, 6630, Note_off_c, 0, 67, 64
1, 6639, Note_off_c, 0, 71, 64
1, 6646, Note_off_c, 8, 52, 64
1, 6648, Note_off_c, 2, 67, 64
1, 6648, Note_off_c, 8, 67, 64
1, 6650, Lyric_t, "ly "
1, 6650, Note_on_c, 3, 60, 106
1, 6651, Note_off_c, 3, 64, 64
1, 6651, Note_off_c, 8, 59, 64
1, 6652, Note_off_c, 0, 76, 64
1, 6662, Note_off_c, 2, 71, 64
1, 6667, Note_off_c, 2, 76, 64
1, 6679, Note_off_c, 7, 76, 64
1, 6680, Note_off_c, 0, 40, 64
1, 6684, Lyric_t, "counts. "
1, 6684, Lyric_t, "\015"
1, 6684, Note_on_c, 3, 62, 111
1, 6684, Note_on_c, 9, 35, 101
1, 6684, Note_on_c, 0, 41, 110
1, 6684, Note_on_c, 7, 77, 108
1, 6684, Note_on_c, 8, 69, 72
1, 6684, Note_on_c, 8, 60, 90
1, 6684, Note_on_c, 8, 53, 83
1, 6685, Note_off_c, 9, 35, 64
1, 6685, Note_on_c, 1, 41, 116
1, 6685, Note_on_c, 0, 77, 116
1, 6685, Note_on_c, 0, 72, 118
1, 6685, Note_on_c, 0, 69, 110
1, 6686, Note_off_c, 3, 60, 64
1, 6686, Note_on_c, 9, 42, 57
1, 6686, Note_on_c, 9, 64, 51
1, 6687, Note_off_c, 9, 42, 64
1, 6687, Note_off_c, 9, 64, 64
1, 6688, Note_off_c, 5, 76, 64
1, 6688, Note_on_c, 5, 74, 91
1, 6713, Note_off_c, 1, 41, 64
1, 6714, Lyric_t, "\012"
1, 6716, Note_on_c, 9, 35, 102
1, 6717, Note_off_c, 9, 35, 64
1, 6717, Note_on_c, 1, 41, 112
1, 6718, Note_on_c, 9, 42, 59
1, 6719, Note_off_c, 9, 42, 64
1, 6720, Note_off_c, 0, 69, 64
1, 6722, Note_on_c, 9, 64, 52
1, 6723, Note_off_c, 9, 64, 64
1, 6724, Note_off_c, 0, 72, 64
1, 6728, Note_off_c, 0, 77, 64
1, 6731, Note_off_c, 0, 41, 64
1, 6732, Note_off_c, 7, 77, 64
1, 6738, Note_off_c, 8, 60, 64
1, 6742, Note_off_c, 8, 69, 64
1, 6744, Note_off_c, 3, 62, 64
1, 6744, Note_off_c, 8, 53, 64
1, 6766, Note_off_c, 1, 41, 64
1, 6772, Lyric_t, "'Cause "
1, 6772, Note_on_c, 3, 57, 90
1, 6780, Note_on_c, 0, 77, 108
1, 6780, Note_on_c, 0, 72, 112
1, 6780, Note_on_c, 0, 69, 98
1, 6781, Note_on_c, 9, 42, 57
1, 6781, Note_on_c, 7, 77, 114
1, 6782, Note_off_c, 9, 42, 64
1, 6782, Note_on_c, 1, 41, 93
1, 6782, Note_on_c, 0, 41, 110
1, 6782, Note_on_c, 8, 69, 92
1, 6782, Note_on_c, 8, 60, 98
1, 6782, Note_on_c, 8, 53, 95
1, 6783, Note_on_c, 9, 64, 53
1, 6784, Note_off_c, 5, 74, 64
1, 6784, Note_on_c, 5, 72, 70
1, 6784, Note_off_c, 9, 64, 64
1, 6807, Note_off_c, 3, 57, 64
1, 6812, Note_on_c, 9, 38, 112
1, 6813, Note_off_c, 9, 38, 64
1, 6813, Note_on_c, 9, 42, 56
1, 6813, Note_on_c, 2, 69, 120
1, 6814, Lyric_t, "I "
1, 6814, Note_on_c, 3, 65, 115
1, 6814, Note_off_c, 9, 42, 64
1, 6814, Note_on_c, 2, 72, 120
1, 6814, Note_on_c, 2, 77, 120
1, 6815, Note_off_c, 5, 72, 64
1, 6816, Note_on_c, 5, 69, 78
1, 6816, Note_off_c, 1, 41, 64
1, 6817, Note_on_c, 1, 41, 106
1, 6820, Note_on_c, 9, 63, 105
1, 6821, Note_off_c, 9, 63, 64
1, 6825, Note_off_c, 0, 69, 64
1, 6825, Note_off_c, 8, 53, 64
1, 6829, Note_off_c, 8, 60, 64
1, 6830, Note_off_c, 0, 41, 64
1, 6830, Note_off_c, 0, 72, 64
1, 6832, Note_off_c, 0, 77, 64
1, 6833, Note_off_c, 8, 69, 64
1, 6838, Note_off_c, 7, 77, 64
1, 6853, Note_off_c, 2, 69, 64
1, 6856, Note_off_c, 2, 72, 64
1, 6859, Note_off_c, 2, 77, 64
1, 6866, Note_off_c, 3, 65, 64
1, 6870, Note_off_c, 1, 41, 64
1, 6876, Lyric_t, "know "
1, 6876, Note_on_c, 3, 64, 105
1, 6876, Note_on_c, 1, 31, 94
1, 6877, Note_on_c, 9, 42, 52
1, 6878, Note_off_c, 9, 42, 64
1, 6878, Note_on_c, 9, 35, 101
1, 6879, Note_off_c, 9, 35, 64
1, 6880, Note_off_c, 5, 69, 64
1, 6881, Note_on_c, 9, 63, 95
1, 6882, Note_off_c, 9, 63, 64
1, 6899, Note_off_c, 3, 64, 64
1, 6910, Note_on_c, 9, 42, 63
1, 6910, Note_on_c, 9, 35, 105
1, 6910, Note_on_c, 7, 76, 105
1, 6910, Note_on_c, 8, 64, 104
1, 6910, Note_on_c, 8, 60, 95
1, 6911, Note_off_c, 9, 35, 64
1, 6911, Note_off_c, 9, 42, 64
1, 6911, Note_on_c, 1, 36, 118
1, 6911, Note_on_c, 0, 67, 87
1, 6911, Note_on_c, 0, 72, 104
1, 6911, Note_on_c, 0, 76, 103
1, 6911, Note_on_c, 0, 36, 93
1, 6911, Note_on_c, 8, 55, 83
1, 6912, Lyric_t, "beau"
1, 6912, Note_on_c, 3, 64, 115
1, 6912, Note_on_c, 4, 60, 75
1, 6912, Note_on_c, 4, 64, 71
1, 6912, Note_on_c, 4, 67, 64
1, 6913, Control_c, 4, 1, 0
1, 6913, Pitch_bend_c, 4, 8192
1, 6924, Note_off_c, 1, 31, 64
1, 6953, Note_off_c, 0, 67, 64
1, 6953, Note_off_c, 8, 55, 64
1, 6954, Note_off_c, 0, 76, 64
1, 6955, Note_off_c, 0, 72, 64
1, 6962, Note_off_c, 8, 60, 64
1, 6967, Note_off_c, 8, 64, 64
1, 6969, Note_off_c, 7, 76, 64
1, 6970, Note_off_c, 3, 64, 64
1, 6972, Note_on_c, 8, 55, 81
1, 6973, Lyric_t, "ty's "
1, 6973, Note_on_c, 3, 64, 111
1, 6973, Note_on_c, 8, 60, 86
1, 6974, Note_on_c, 9, 42, 57
1, 6974, Note_on_c, 8, 64, 80
1, 6975, Note_off_c, 4, 67, 64
1, 6975, Note_off_c, 4, 64, 64
1, 6975, Note_off_c, 4, 60, 64
1, 6975, Note_off_c, 9, 42, 64
1, 6975, Note_on_c, 0, 67, 101
1, 6975, Note_on_c, 0, 76, 110
1, 6975, Note_on_c, 0, 72, 118
1, 6976, Note_on_c, 4, 60, 72
1, 6976, Note_on_c, 4, 64, 63
1, 6976, Note_on_c, 4, 67, 56
1, 6977, Note_on_c, 7, 76, 90
1, 6996, Note_off_c, 8, 60, 64
1, 6996, Note_off_c, 8, 55, 64
1, 6998, Note_off_c, 0, 72, 64
1, 6999, Note_off_c, 0, 76, 64
1, 7001, Note_off_c, 0, 67, 64
1, 7001, Note_off_c, 8, 64, 64
1, 7002, Note_off_c, 7, 76, 64
1, 7004, Note_off_c, 0, 36, 64
1, 7004, Note_on_c, 8, 64, 90
1, 7004, Note_on_c, 8, 60, 95
1, 7005, Note_on_c, 8, 55, 100
1, 7006, Note_off_c, 3, 64, 64
1, 7006, Note_on_c, 9, 38, 110
1, 7006, Note_on_c, 9, 42, 56
1, 7006, Note_on_c, 2, 64, 120
1, 7006, Note_on_c, 2, 67, 120
1, 7007, Note_off_c, 4, 67, 64
1, 7007, Note_off_c, 4, 64, 64
1, 7007, Note_off_c, 4, 60, 64
1, 7007, Note_off_c, 9, 42, 64
1, 7007, Note_off_c, 9, 38, 64
1, 7007, Note_on_c, 2, 72, 120
1, 7007, Note_on_c, 7, 76, 96
1, 7007, Note_on_c, 9, 62, 109
1, 7008, Lyric_t, "on"
1, 7008, Note_on_c, 3, 64, 115
1, 7008, Note_on_c, 4, 60, 80
1, 7008, Note_on_c, 4, 64, 60
1, 7008, Note_on_c, 4, 67, 52
1, 7008, Note_off_c, 9, 62, 64
1, 7021, Note_off_c, 1, 36, 64
1, 7041, Note_off_c, 2, 67, 64
1, 7043, Note_off_c, 2, 72, 64
1, 7048, Note_off_c, 2, 64, 64
1, 7049, Note_off_c, 8, 60, 64
1, 7049, Note_off_c, 8, 64, 64
1, 7051, Note_off_c, 8, 55, 64
1, 7052, Note_off_c, 7, 76, 64
1, 7062, Note_off_c, 3, 64, 64
1, 7068, Lyric_t, "ly "
1, 7068, Note_on_c, 3, 60, 99
1, 7070, Note_on_c, 9, 42, 55
1, 7070, Note_on_c, 9, 35, 102
1, 7070, Note_on_c, 0, 40, 108
1, 7071, Note_off_c, 4, 67, 64
1, 7071, Note_off_c, 4, 64, 64
1, 7071, Note_off_c, 4, 60, 64
1, 7071, Note_off_c, 9, 35, 64
1, 7071, Note_off_c, 9, 42, 64
1, 7071, Note_on_c, 9, 64, 45
1, 7072, Note_on_c, 4, 60, 74
1, 7072, Note_on_c, 4, 64, 57
1, 7072, Note_on_c, 4, 67, 50
1, 7072, Note_on_c, 1, 28, 112
1, 7072, Note_off_c, 9, 64, 64
1, 7089, Note_off_c, 3, 60, 64
1, 7101, Note_on_c, 7, 74, 97
1, 7102, Lyric_t, "skin "
1, 7102, Note_on_c, 3, 62, 118
1, 7102, Note_on_c, 9, 42, 58
1, 7102, Note_on_c, 8, 62, 95
1, 7102, Note_on_c, 8, 57, 85
1, 7103, Note_off_c, 4, 67, 64
1, 7103, Note_off_c, 4, 64, 64
1, 7103, Note_off_c, 4, 60, 64
1, 7103, Note_off_c, 9, 42, 64
1, 7103, Note_on_c, 9, 35, 103
1, 7103, Note_on_c, 9, 64, 45
1, 7104, Note_on_c, 4, 57, 71
1, 7104, Note_on_c, 4, 62, 80
1, 7104, Note_on_c, 4, 65, 72
1, 7104, Note_off_c, 9, 35, 64
1, 7104, Note_on_c, 1, 29, 102
1, 7104, Note_on_c, 8, 53, 92
1, 7104, Note_off_c, 9, 64, 64
1, 7105, Note_on_c, 0, 74, 112
1, 7105, Note_on_c, 0, 69, 104
1, 7106, Note_off_c, 1, 28, 64
1, 7106, Note_on_c, 0, 65, 98
1, 7106, Note_on_c, 0, 41, 108
1, 7110, Note_off_c, 0, 40, 64
1, 7157, Note_off_c, 0, 74, 64
1, 7157, Note_off_c, 8, 57, 64
1, 7160, Note_off_c, 8, 53, 64
1, 7164, Note_off_c, 7, 74, 64
1, 7164, Note_on_c, 8, 53, 94
1, 7165, Lyric_t, "deep, "
1, 7165, Lyric_t, "\015"
1, 7165, Note_on_c, 3, 60, 109
1, 7165, Note_on_c, 7, 72, 85
1, 7166, Note_off_c, 3, 62, 64
1, 7166, Note_on_c, 8, 60, 102
1, 7166, Note_on_c, 8, 57, 96
1, 7167, Note_off_c, 4, 65, 64
1, 7167, Note_off_c, 4, 57, 64
1, 7167, Note_on_c, 0, 72, 92
1, 7167, Note_on_c, 9, 64, 42
1, 7168, Note_off_c, 4, 62, 64
1, 7168, Note_on_c, 4, 57, 56
1, 7168, Note_on_c, 4, 60, 77
1, 7168, Note_on_c, 4, 65, 56
1, 7168, Note_off_c, 9, 64, 64
1, 7169, Note_on_c, 9, 42, 55
1, 7170, Note_off_c, 9, 42, 64
1, 7170, Note_off_c, 0, 41, 64
1, 7170, Note_off_c, 8, 62, 64
1, 7184, Note_off_c, 7, 72, 64
1, 7190, Note_off_c, 0, 69, 64
1, 7190, Note_off_c, 8, 53, 64
1, 7191, Note_off_c, 0, 65, 64
1, 7193, Note_off_c, 8, 60, 64
1, 7194, Note_off_c, 3, 60, 64
1, 7194, Note_off_c, 0, 72, 64
1, 7198, Note_on_c, 2, 60, 120
1, 7198, Note_off_c, 8, 57, 64
1, 7199, Note_off_c, 4, 65, 64
1, 7199, Note_off_c, 4, 60, 64
1, 7199, Note_off_c, 4, 57, 64
1, 7199, Note_on_c, 9, 38, 106
1, 7199, Note_on_c, 2, 65, 120
1, 7199, Note_on_c, 9, 63, 110
1, 7200, Note_off_c, 9, 38, 64
1, 7200, Note_off_c, 9, 63, 64
1, 7201, Note_on_c, 9, 42, 59
1, 7201, Note_on_c, 2, 69, 120
1, 7202, Note_off_c, 9, 42, 64
1, 7202, Note_off_c, 1, 29, 64
1, 7240, Note_off_c, 2, 69, 64
1, 7245, Note_off_c, 2, 65, 64
1, 7246, Note_off_c, 2, 60, 64
1, 7262, Note_on_c, 9, 42, 59
1, 7262, Note_on_c, 9, 35, 102
1, 7262, Note_on_c, 1, 29, 120
1, 7262, Note_on_c, 9, 63, 101
1, 7263, Note_off_c, 9, 35, 64
1, 7263, Note_off_c, 9, 42, 64
1, 7263, Note_off_c, 9, 63, 64
1, 7289, Lyric_t, "yeah, "
1, 7289, Note_on_c, 3, 55, 117
1, 7294, Note_on_c, 9, 35, 105
1, 7294, Note_on_c, 0, 43, 96
1, 7295, Note_off_c, 9, 35, 64
1, 7295, Note_on_c, 9, 42, 63
1, 7295, Note_on_c, 1, 31, 108
1, 7295, Note_on_c, 7, 79, 120
1, 7296, Note_on_c, 4, 55, 72
1, 7296, Note_on_c, 4, 62, 61
1, 7296, Note_on_c, 4, 59, 56
1, 7296, Note_off_c, 9, 42, 64
1, 7296, Note_on_c, 0, 62, 104
1, 7296, Note_on_c, 8, 67, 106
1, 7296, Note_on_c, 8, 59, 110
1, 7297, Note_on_c, 0, 59, 103
1, 7297, Note_on_c, 0, 67, 112
1, 7299, Note_off_c, 1, 29, 64
1, 7323, Note_off_c, 7, 79, 64
1, 7335, Note_off_c, 8, 59, 64
1, 7338, Note_off_c, 8, 67, 64
1, 7340, Note_off_c, 1, 31, 64
1, 7347, Note_off_c, 3, 55, 64
1, 7347, Note_off_c, 0, 67, 64
1, 7348, Note_off_c, 0, 59, 64
1, 7349, Note_off_c, 0, 62, 64
1, 7351, Lyric_t, "yeah, "
1, 7351, Note_on_c, 3, 57, 109
1, 7357, Note_off_c, 0, 43, 64
1, 7358, Note_on_c, 9, 42, 54
1, 7358, Note_on_c, 1, 33, 116
1, 7358, Note_on_c, 9, 64, 49
1, 7359, Note_off_c, 9, 42, 64
1, 7359, Note_on_c, 7, 81, 112
1, 7359, Note_off_c, 9, 64, 64
1, 7360, Note_off_c, 4, 59, 64
1, 7360, Note_off_c, 4, 62, 64
1, 7360, Note_off_c, 4, 55, 64
1, 7360, Note_on_c, 4, 57, 66
1, 7360, Note_on_c, 4, 60, 74
1, 7360, Note_on_c, 4, 65, 66
1, 7360, Note_on_c, 0, 45, 92
1, 7361, Note_on_c, 0, 65, 110
1, 7361, Note_on_c, 0, 60, 101
1, 7361, Note_on_c, 0, 69, 100
1, 7361, Note_on_c, 8, 60, 98
1, 7361, Note_on_c, 8, 69, 114
1, 7390, Note_off_c, 0, 60, 64
1, 7390, Note_on_c, 2, 62, 120
1, 7391, Note_on_c, 9, 38, 108
1, 7391, Note_on_c, 9, 42, 63
1, 7391, Note_on_c, 2, 67, 120
1, 7391, Note_on_c, 2, 71, 120
1, 7392, Note_off_c, 9, 42, 64
1, 7392, Note_off_c, 9, 38, 64
1, 7392, Note_on_c, 9, 62, 106
1, 7393, Note_off_c, 9, 62, 64
1, 7394, Note_off_c, 8, 60, 64
1, 7397, Note_off_c, 0, 65, 64
1, 7397, Note_off_c, 7, 81, 64
1, 7398, Note_off_c, 0, 69, 64
1, 7398, Note_off_c, 8, 69, 64
1, 7399, Note_off_c, 1, 33, 64
1, 7410, Note_off_c, 3, 57, 64
1, 7414, Note_off_c, 0, 45, 64
1, 7424, Note_off_c, 2, 62, 64
1, 7430, Note_off_c, 2, 71, 64
1, 7433, Note_off_c, 2, 67, 64
1, 7450, Lyric_t, "yeah, "
1, 7450, Lyric_t, "\015"
1, 7450, Note_on_c, 3, 60, 113
1, 7452, Note_on_c, 7, 84, 118
1, 7453, Note_on_c, 1, 36, 122
1, 7453, Note_on_c, 0, 72, 112
1, 7453, Note_on_c, 8, 72, 120
1, 7453, Note_on_c, 8, 64, 110
1, 7453, Note_on_c, 9, 64, 49
1, 7454, Note_on_c, 9, 42, 57
1, 7454, Note_on_c, 0, 64, 108
1, 7454, Note_on_c, 0, 67, 108
1, 7454, Note_on_c, 0, 48, 104
1, 7454, Note_off_c, 9, 64, 64
1, 7455, Note_off_c, 4, 60, 64
1, 7455, Note_off_c, 9, 42, 64
1, 7455, Note_on_c, 9, 35, 103
1, 7456, Note_off_c, 4, 65, 64
1, 7456, Note_off_c, 4, 57, 64
1, 7456, Note_on_c, 4, 60, 70
1, 7456, Note_on_c, 4, 67, 63
1, 7456, Note_on_c, 4, 64, 71
1, 7456, Note_off_c, 9, 35, 64
1, 7486, Note_on_c, 9, 42, 55
1, 7486, Note_on_c, 1, 28, 116
1, 7486, Note_on_c, 9, 64, 52
1, 7487, Note_off_c, 9, 42, 64
1, 7487, Note_off_c, 9, 64, 64
1, 7488, Note_on_c, 9, 35, 103
1, 7489, Note_off_c, 9, 35, 64
1, 7491, Note_off_c, 8, 64, 64
1, 7492, Note_off_c, 8, 72, 64
1, 7494, Note_off_c, 7, 84, 64
1, 7499, Note_off_c, 1, 36, 64
1, 7517, Note_on_c, 1, 31, 102
1, 7519, Note_off_c, 1, 28, 64
1, 7530, Note_off_c, 3, 60, 64
1, 7549, Note_on_c, 9, 42, 53
1, 7549, Note_on_c, 9, 64, 54
1, 7550, Note_off_c, 9, 42, 64
1, 7550, Note_on_c, 1, 33, 100
1, 7550, Note_off_c, 9, 64, 64
1, 7552, Note_off_c, 4, 64, 64
1, 7552, Note_off_c, 4, 67, 64
1, 7552, Note_off_c, 4, 60, 64
1, 7557, Note_off_c, 1, 31, 64
1, 7573, Note_off_c, 0, 67, 64
1, 7573, Note_off_c, 0, 72, 64
1, 7573, Note_off_c, 0, 64, 64
1, 7574, Note_off_c, 0, 48, 64
1, 7581, Note_on_c, 9, 42, 57
1, 7582, Note_off_c, 9, 42, 64
1, 7582, Note_on_c, 2, 64, 120
1, 7582, Note_on_c, 2, 67, 120
1, 7583, Note_on_c, 9, 38, 106
1, 7583, Note_on_c, 1, 31, 111
1, 7583, Note_on_c, 2, 72, 120
1, 7583, Note_on_c, 9, 63, 103
1, 7584, Note_off_c, 9, 38, 64
1, 7584, Note_off_c, 9, 63, 64
1, 7590, Note_off_c, 1, 33, 64
1, 7615, Note_off_c, 2, 67, 64
1, 7620, Note_off_c, 2, 72, 64
1, 7624, Note_off_c, 2, 64, 64
1, 7627, Note_off_c, 1, 31, 64
1, 7644, Note_on_c, 9, 63, 97
1, 7645, Note_off_c, 9, 63, 64
1, 7647, Note_on_c, 9, 42, 51
1, 7648, Note_off_c, 9, 42, 64
1, 7648, Note_on_c, 9, 35, 101
1, 7648, Note_on_c, 1, 31, 99
1, 7649, Note_off_c, 9, 35, 64
1, 7679, Note_on_c, 9, 42, 61
1, 7679, Note_on_c, 0, 48, 90
1, 7679, Note_on_c, 0, 67, 93
1, 7680, Note_on_c, 4, 55, 63
1, 7680, Note_on_c, 4, 60, 66
1, 7680, Note_on_c, 4, 64, 72
1, 7680, Note_off_c, 9, 42, 64
1, 7680, Note_on_c, 9, 35, 105
1, 7680, Note_on_c, 1, 36, 106
1, 7680, Note_on_c, 0, 60, 93
1, 7681, Lyric_t, "beau"
1, 7681, Note_on_c, 3, 64, 115
1, 7681, Note_off_c, 9, 35, 64
1, 7681, Note_on_c, 0, 64, 96
1, 7681, Note_on_c, 9, 64, 49
1, 7682, Note_off_c, 9, 64, 64
1, 7690, Note_off_c, 1, 31, 64
1, 7720, Note_off_c, 0, 60, 64
1, 7723, Note_off_c, 0, 67, 64
1, 7725, Note_off_c, 0, 64, 64
1, 7740, Lyric_t, "ty's "
1, 7740, Note_on_c, 3, 67, 110
1, 7741, Note_on_c, 0, 67, 83
1, 7742, Note_on_c, 0, 60, 86
1, 7742, Note_on_c, 0, 64, 96
1, 7742, Note_on_c, 9, 64, 53
1, 7743, Note_off_c, 4, 64, 64
1, 7743, Note_off_c, 4, 60, 64
1, 7743, Note_on_c, 9, 42, 60
1, 7743, Note_off_c, 9, 64, 64
1, 7744, Note_off_c, 4, 55, 64
1, 7744, Note_on_c, 4, 64, 51
1, 7744, Note_on_c, 4, 60, 49
1, 7744, Note_on_c, 4, 67, 63
1, 7744, Note_off_c, 9, 42, 64
1, 7745, Note_off_c, 3, 64, 64
1, 7761, Note_off_c, 0, 60, 64
1, 7762, Note_off_c, 0, 64, 64
1, 7762, Note_off_c, 0, 67, 64
1, 7768, Note_off_c, 3, 67, 64
1, 7774, Note_on_c, 2, 64, 120
1, 7775, Lyric_t, "on"
1, 7775, Note_on_c, 3, 67, 107
1, 7775, Note_off_c, 4, 67, 64
1, 7775, Note_off_c, 4, 60, 64
1, 7775, Note_off_c, 4, 64, 64
1, 7775, Note_on_c, 9, 42, 62
1, 7775, Note_on_c, 2, 67, 120
1, 7776, Note_on_c, 4, 60, 61
1, 7776, Note_on_c, 4, 67, 67
1, 7776, Note_on_c, 4, 64, 80
1, 7776, Note_off_c, 9, 42, 64
1, 7776, Note_on_c, 2, 72, 120
1, 7776, Note_on_c, 9, 62, 110
1, 7777, Note_on_c, 9, 38, 106
1, 7777, Note_off_c, 9, 62, 64
1, 7778, Note_off_c, 9, 38, 64
1, 7780, Note_off_c, 0, 48, 64
1, 7790, Note_off_c, 1, 36, 64
1, 7811, Note_off_c, 2, 67, 64
1, 7816, Note_off_c, 2, 72, 64
1, 7818, Note_off_c, 2, 64, 64
1, 7820, Note_off_c, 3, 67, 64
1, 7836, Note_on_c, 1, 36, 112
1, 7837, Lyric_t, "ly "
1, 7837, Note_on_c, 3, 67, 111
1, 7838, Note_on_c, 9, 42, 54
1, 7838, Note_on_c, 9, 35, 102
1, 7838, Note_on_c, 9, 64, 48
1, 7839, Note_off_c, 4, 64, 64
1, 7839, Note_off_c, 4, 67, 64
1, 7839, Note_off_c, 4, 60, 64
1, 7839, Note_off_c, 9, 35, 64
1, 7839, Note_off_c, 9, 42, 64
1, 7839, Note_off_c, 9, 64, 64
1, 7840, Note_on_c, 4, 67, 57
1, 7840, Note_on_c, 4, 60, 56
1, 7840, Note_on_c, 4, 64, 63
1, 7870, Note_on_c, 9, 42, 61
1, 7870, Note_on_c, 9, 35, 103
1, 7870, Note_on_c, 1, 29, 97
1, 7871, Note_off_c, 4, 64, 64
1, 7871, Note_off_c, 4, 60, 64
1, 7871, Note_off_c, 4, 67, 64
1, 7871, Note_off_c, 9, 35, 64
1, 7871, Note_off_c, 9, 42, 64
1, 7871, Note_on_c, 0, 41, 97
1, 7871, Note_on_c, 9, 64, 50
1, 7872, Note_on_c, 4, 60, 68
1, 7872, Note_on_c, 4, 65, 67
1, 7872, Note_on_c, 4, 69, 78
1, 7872, Note_off_c, 9, 64, 64
1, 7873, Lyric_t, "skin "
1, 7873, Note_on_c, 3, 69, 114
1, 7873, Note_on_c, 0, 65, 98
1, 7873, Note_on_c, 0, 57, 98
1, 7873, Note_on_c, 0, 60, 103
1, 7874, Note_off_c, 1, 36, 64
1, 7879, Note_off_c, 3, 67, 64
1, 7934, Note_on_c, 9, 42, 52
1, 7934, Note_on_c, 9, 64, 51
1, 7935, Lyric_t, "deep, "
1, 7935, Note_off_c, 3, 69, 64
1, 7935, Note_on_c, 3, 72, 117
1, 7935, Note_off_c, 4, 69, 64
1, 7935, Note_off_c, 4, 65, 64
1, 7935, Note_off_c, 9, 42, 64
1, 7935, Note_on_c, 0, 67, 89
1, 7935, Note_off_c, 9, 64, 64
1, 7936, Note_off_c, 4, 60, 64
1, 7936, Note_on_c, 4, 69, 68
1, 7936, Note_on_c, 4, 65, 57
1, 7936, Note_on_c, 4, 72, 77
1, 7943, Note_off_c, 0, 65, 64
1, 7960, Note_off_c, 0, 57, 64
1, 7962, Note_off_c, 0, 67, 64
1, 7966, Note_on_c, 9, 38, 109
1, 7966, Note_on_c, 9, 42, 54
1, 7966, Note_off_c, 1, 29, 64
1, 7967, Note_off_c, 4, 72, 64
1, 7967, Note_off_c, 4, 65, 64
1, 7967, Note_off_c, 4, 69, 64
1, 7967, Note_off_c, 9, 42, 64
1, 7967, Note_off_c, 9, 38, 64
1, 7967, Note_on_c, 9, 63, 97
1, 7968, Note_on_c, 0, 57, 72
1, 7968, Note_off_c, 9, 63, 64
1, 7969, Note_on_c, 0, 65, 94
1, 7969, Note_on_c, 2, 60, 120
1, 7969, Note_on_c, 2, 65, 120
1, 7970, Note_on_c, 2, 69, 120
1, 7974, Note_off_c, 3, 72, 64
1, 7993, Note_off_c, 0, 60, 64
1, 7994, Note_off_c, 0, 57, 64
1, 7995, Note_off_c, 0, 41, 64
1, 7995, Note_off_c, 0, 65, 64
1, 8001, Note_off_c, 2, 60, 64
1, 8005, Note_off_c, 2, 69, 64
1, 8009, Note_off_c, 2, 65, 64
1, 8028, Note_on_c, 9, 63, 96
1, 8029, Note_off_c, 9, 63, 64
1, 8030, Note_on_c, 9, 42, 52
1, 8030, Note_on_c, 9, 35, 102
1, 8031, Note_off_c, 9, 35, 64
1, 8031, Note_off_c, 9, 42, 64
1, 8059, Lyric_t, "oh "
1, 8059, Note_on_c, 3, 67, 115
1, 8061, Note_on_c, 8, 59, 95
1, 8062, Note_on_c, 9, 42, 57
1, 8062, Note_on_c, 9, 35, 105
1, 8062, Note_on_c, 8, 67, 95
1, 8063, Note_off_c, 9, 35, 64
1, 8063, Note_off_c, 9, 42, 64
1, 8063, Note_on_c, 0, 59, 94
1, 8063, Note_on_c, 0, 67, 91
1, 8063, Note_on_c, 0, 43, 85
1, 8064, Note_on_c, 4, 67, 67
1, 8064, Note_on_c, 4, 64, 72
1, 8064, Note_on_c, 1, 31, 101
1, 8064, Note_on_c, 0, 62, 100
1, 8065, Note_on_c, 7, 79, 114
1, 8097, Note_off_c, 8, 67, 64
1, 8098, Note_off_c, 8, 59, 64
1, 8099, Note_off_c, 7, 79, 64
1, 8108, Note_off_c, 1, 31, 64
1, 8108, Note_off_c, 0, 59, 64
1, 8110, Note_off_c, 0, 62, 64
1, 8111, Note_off_c, 0, 67, 64
1, 8117, Note_off_c, 3, 67, 64
1, 8117, Note_on_c, 3, 69, 106
1, 8125, Note_on_c, 1, 33, 118
1, 8126, Note_on_c, 9, 42, 55
1, 8126, Note_off_c, 0, 43, 64
1, 8126, Note_on_c, 0, 45, 87
1, 8126, Note_on_c, 8, 67, 97
1, 8127, Note_off_c, 9, 42, 64
1, 8127, Note_on_c, 0, 67, 89
1, 8127, Note_on_c, 8, 59, 97
1, 8127, Note_on_c, 9, 64, 49
1, 8128, Note_off_c, 4, 64, 64
1, 8128, Note_off_c, 4, 67, 64
1, 8128, Note_on_c, 4, 69, 60
1, 8128, Note_on_c, 4, 65, 64
1, 8128, Note_on_c, 0, 59, 97
1, 8128, Note_on_c, 0, 62, 101
1, 8128, Note_off_c, 9, 64, 64
1, 8129, Note_on_c, 7, 79, 114
1, 8148, Note_off_c, 0, 67, 64
1, 8150, Note_off_c, 0, 62, 64
1, 8154, Note_off_c, 0, 59, 64
1, 8158, Note_on_c, 2, 60, 120
1, 8159, Note_on_c, 9, 38, 109
1, 8159, Note_on_c, 9, 42, 59
1, 8159, Note_on_c, 2, 65, 120
1, 8160, Note_off_c, 9, 42, 64
1, 8160, Note_off_c, 9, 38, 64
1, 8160, Note_on_c, 2, 69, 120
1, 8161, Note_on_c, 9, 62, 90
1, 8162, Note_off_c, 0, 45, 64
1, 8162, Note_off_c, 7, 79, 64
1, 8162, Note_off_c, 9, 62, 64
1, 8166, Note_off_c, 8, 67, 64
1, 8168, Note_off_c, 8, 59, 64
1, 8169, Note_off_c, 1, 33, 64
1, 8192, Note_off_c, 4, 65, 64
1, 8192, Note_off_c, 4, 69, 64
1, 8192, Note_on_c, 4, 64, 50
1, 8192, Note_on_c, 4, 67, 52
1, 8193, Note_off_c, 2, 60, 64
1, 8195, Note_off_c, 2, 69, 64
1, 8200, Note_off_c, 2, 65, 64
1, 8202, Lyric_t, "yeah. "
1, 8202, Lyric_t, "\015"
1, 8202, Note_on_c, 3, 67, 102
1, 8211, Note_off_c, 3, 69, 64
1, 8219, Note_on_c, 7, 84, 114
1, 8221, Note_on_c, 8, 64, 114
1, 8221, Note_on_c, 8, 72, 127
1, 8222, Note_on_c, 9, 42, 54
1, 8222, Note_on_c, 9, 35, 102
1, 8222, Note_on_c, 1, 36, 127
1, 8222, Note_on_c, 0, 60, 104
1, 8222, Note_on_c, 0, 55, 98
1, 8222, Note_on_c, 0, 64, 106
1, 8222, Note_on_c, 0, 48, 93
1, 8222, Note_on_c, 9, 64, 51
1, 8223, Note_on_c, 3, 65, 103
1, 8223, Note_off_c, 4, 67, 64
1, 8223, Note_off_c, 4, 64, 64
1, 8223, Note_off_c, 9, 35, 64
1, 8223, Note_off_c, 9, 42, 64
1, 8223, Note_off_c, 9, 64, 64
1, 8224, Note_on_c, 4, 65, 55
1, 8224, Note_on_c, 4, 62, 63
1, 8233, Note_off_c, 3, 67, 64
1, 8243, Lyric_t, "\012"
1, 8246, Note_on_c, 3, 64, 104
1, 8254, Note_on_c, 9, 35, 103
1, 8255, Note_off_c, 3, 65, 64
1, 8255, Note_off_c, 4, 62, 64
1, 8255, Note_off_c, 4, 65, 64
1, 8255, Note_off_c, 9, 35, 64
1, 8256, Note_on_c, 4, 64, 60
1, 8256, Note_on_c, 4, 60, 63
1, 8256, Note_on_c, 9, 42, 61
1, 8257, Note_off_c, 9, 42, 64
1, 8258, Note_on_c, 9, 64, 52
1, 8259, Note_off_c, 9, 64, 64
1, 8260, Note_off_c, 8, 72, 64
1, 8264, Note_off_c, 8, 64, 64
1, 8266, Note_off_c, 7, 84, 64
1, 8300, Note_off_c, 3, 64, 64
1, 8319, Note_on_c, 9, 42, 52
1, 8319, Note_on_c, 9, 64, 53
1, 8320, Note_off_c, 9, 42, 64
1, 8320, Note_off_c, 9, 64, 64
1, 8322, Note_off_c, 4, 60, 64
1, 8322, Note_off_c, 4, 64, 64
1, 8323, Lyric_t, "Now "
1, 8323, Note_on_c, 3, 67, 117
1, 8346, Note_off_c, 0, 55, 64
1, 8346, Note_off_c, 0, 60, 64
1, 8349, Note_off_c, 0, 64, 64
1, 8350, Note_on_c, 9, 40, 127
1, 8350, Note_on_c, 7, 79, 114
1, 8351, Note_off_c, 9, 40, 64
1, 8351, Note_on_c, 8, 67, 87
1, 8352, Note_off_c, 0, 48, 64
1, 8352, Note_on_c, 2, 64, 120
1, 8353, Note_on_c, 2, 67, 120
1, 8353, Note_on_c, 2, 72, 120
1, 8353, Note_on_c, 8, 55, 85
1, 8356, Note_on_c, 9, 63, 105
1, 8357, Note_off_c, 9, 63, 64
1, 8358, Note_off_c, 1, 36, 64
1, 8366, Note_off_c, 8, 67, 64
1, 8368, Note_off_c, 7, 79, 64
1, 8370, Note_off_c, 8, 55, 64
1, 8383, Lyric_t, "you "
1, 8383, Note_on_c, 3, 69, 111
1, 8383, Note_on_c, 1, 33, 99
1, 8386, Note_off_c, 2, 72, 64
1, 8388, Note_off_c, 2, 67, 64
1, 8388, Note_off_c, 2, 64, 64
1, 8390, Note_on_c, 9, 64, 74
1, 8391, Note_off_c, 9, 64, 64
1, 8395, Note_off_c, 3, 67, 64
1, 8403, Note_off_c, 1, 33, 64
1, 8414, Note_on_c, 1, 31, 98
1, 8415, Note_on_c, 9, 64, 85
1, 8416, Note_off_c, 9, 64, 64
1, 8442, Lyric_t, "speak "
1, 8442, Note_on_c, 3, 72, 117
1, 8443, Note_on_c, 8, 64, 64
1, 8443, Note_on_c, 8, 60, 87
1, 8446, Note_off_c, 3, 69, 64
1, 8447, Note_on_c, 1, 36, 109
1, 8448, Note_off_c, 1, 31, 64
1, 8448, Note_on_c, 9, 64, 79
1, 8449, Note_on_c, 7, 84, 104
1, 8449, Note_off_c, 9, 64, 64
1, 8499, Note_off_c, 3, 72, 64
1, 8510, Note_on_c, 9, 64, 70
1, 8511, Note_off_c, 9, 64, 64
1, 8542, Note_on_c, 2, 64, 120
1, 8543, Note_on_c, 2, 67, 120
1, 8543, Note_on_c, 2, 72, 120
1, 8543, Note_on_c, 9, 62, 120
1, 8544, Note_off_c, 9, 62, 64
1, 8557, Note_off_c, 1, 36, 64
1, 8575, Note_off_c, 2, 67, 64
1, 8577, Note_off_c, 2, 72, 64
1, 8581, Lyric_t, "your "
1, 8581, Note_on_c, 3, 64, 106
1, 8584, Note_off_c, 2, 64, 64
1, 8605, Note_on_c, 1, 36, 126
1, 8605, Note_on_c, 6, 84, 92
1, 8608, Note_on_c, 9, 64, 48
1, 8609, Note_off_c, 9, 64, 64
1, 8639, Note_on_c, 1, 28, 109
1, 8639, Note_on_c, 6, 91, 76
1, 8640, Note_off_c, 6, 84, 64
1, 8640, Note_on_c, 9, 64, 48
1, 8641, Note_off_c, 9, 64, 64
1, 8643, Note_off_c, 3, 64, 64
1, 8643, Note_off_c, 1, 36, 64
1, 8646, Lyric_t, "words "
1, 8646, Note_on_c, 3, 60, 106
1, 8680, Note_off_c, 1, 28, 64
1, 8695, Note_off_c, 6, 91, 64
1, 8700, Note_on_c, 1, 31, 106
1, 8702, Note_on_c, 6, 96, 78
1, 8704, Note_on_c, 5, 55, 49
1, 8704, Note_on_c, 5, 67, 64
1, 8704, Note_on_c, 9, 64, 70
1, 8705, Note_off_c, 9, 64, 64
1, 8712, Note_off_c, 8, 64, 64
1, 8723, Note_off_c, 7, 84, 64
1, 8724, Note_off_c, 8, 60, 64
1, 8727, Note_off_c, 3, 60, 64
1, 8734, Note_on_c, 2, 64, 120
1, 8735, Note_off_c, 5, 67, 64
1, 8735, Note_off_c, 5, 55, 64
1, 8735, Note_on_c, 2, 67, 120
1, 8736, Note_on_c, 5, 60, 63
1, 8736, Note_on_c, 5, 72, 73
1, 8736, Note_on_c, 2, 72, 120
1, 8738, Note_on_c, 9, 63, 66
1, 8739, Note_off_c, 9, 63, 64
1, 8742, Note_off_c, 1, 31, 64
1, 8757, Note_off_c, 6, 96, 64
1, 8764, Note_off_c, 2, 67, 64
1, 8766, Note_off_c, 2, 72, 64
1, 8769, Note_off_c, 2, 64, 64
1, 8795, Note_on_c, 6, 93, 86
1, 8796, Note_on_c, 1, 29, 114
1, 8798, Lyric_t, "warm "
1, 8798, Note_on_c, 3, 62, 110
1, 8799, Note_on_c, 9, 63, 107
1, 8800, Note_off_c, 5, 72, 64
1, 8800, Note_off_c, 5, 60, 64
1, 8800, Note_on_c, 5, 57, 70
1, 8800, Note_on_c, 5, 69, 70
1, 8800, Note_off_c, 9, 63, 64
1, 8888, Lyric_t, "and "
1, 8888, Note_on_c, 3, 64, 101
1, 8893, Note_off_c, 3, 62, 64
1, 8894, Note_on_c, 9, 63, 85
1, 8895, Note_off_c, 9, 63, 64
1, 8926, Note_on_c, 9, 62, 105
1, 8927, Note_off_c, 9, 62, 64
1, 8928, Note_on_c, 2, 69, 120
1, 8929, Note_on_c, 2, 60, 120
1, 8929, Note_on_c, 2, 65, 120
1, 8930, Note_off_c, 3, 64, 64
1, 8933, Note_off_c, 1, 29, 64
1, 8950, Note_off_c, 6, 93, 64
1, 8951, Note_off_c, 2, 60, 64
1, 8957, Note_off_c, 2, 69, 64
1, 8959, Lyric_t, "sin"
1, 8959, Note_on_c, 3, 60, 104
1, 8961, Note_off_c, 2, 65, 64
1, 8988, Note_on_c, 1, 33, 111
1, 8989, Note_on_c, 9, 63, 49
1, 8990, Note_off_c, 9, 63, 64
1, 8992, Note_off_c, 3, 60, 64
1, 9021, Note_on_c, 1, 31, 112
1, 9021, Note_on_c, 6, 91, 97
1, 9022, Note_on_c, 9, 62, 100
1, 9023, Note_off_c, 9, 62, 64
1, 9024, Note_off_c, 5, 69, 64
1, 9024, Note_off_c, 5, 57, 64
1, 9024, Note_on_c, 5, 55, 62
1, 9024, Note_on_c, 5, 67, 54
1, 9025, Lyric_t, "cere "
1, 9025, Lyric_t, "\015"
1, 9025, Note_on_c, 3, 57, 97
1, 9028, Note_off_c, 1, 33, 64
1, 9078, Note_on_c, 3, 55, 97
1, 9084, Note_off_c, 3, 57, 64
1, 9086, Note_on_c, 6, 89, 79
1, 9088, Note_off_c, 6, 91, 64
1, 9088, Note_on_c, 9, 64, 47
1, 9089, Note_off_c, 9, 64, 64
1, 9093, Note_off_c, 1, 31, 64
1, 9118, Note_on_c, 1, 35, 127
1, 9118, Note_on_c, 9, 62, 107
1, 9119, Note_on_c, 2, 60, 120
1, 9119, Note_on_c, 2, 65, 120
1, 9119, Note_on_c, 6, 88, 72
1, 9119, Note_off_c, 9, 62, 64
1, 9120, Note_off_c, 5, 67, 64
1, 9120, Note_off_c, 5, 55, 64
1, 9121, Note_on_c, 2, 69, 120
1, 9127, Note_off_c, 3, 55, 64
1, 9132, Note_off_c, 6, 89, 64
1, 9147, Note_off_c, 2, 60, 64
1, 9153, Note_off_c, 2, 69, 64
1, 9153, Note_off_c, 2, 65, 64
1, 9180, Note_on_c, 9, 63, 95
1, 9181, Note_on_c, 6, 86, 67
1, 9181, Note_off_c, 9, 63, 64
1, 9182, Note_off_c, 1, 35, 64
1, 9184, Note_off_c, 6, 88, 64
1, 9195, Note_on_c, 9, 63, 101
1, 9196, Note_off_c, 9, 63, 64
1, 9214, Note_on_c, 9, 63, 108
1, 9215, Note_on_c, 6, 84, 75
1, 9215, Note_off_c, 9, 63, 64
1, 9217, Note_on_c, 1, 36, 111
1, 9219, Note_off_c, 6, 86, 64
1, 9270, Lyric_t, "and "
1, 9270, Note_on_c, 3, 55, 108
1, 9280, Note_on_c, 9, 64, 44
1, 9281, Note_off_c, 9, 64, 64
1, 9309, Note_on_c, 2, 64, 120
1, 9310, Note_on_c, 2, 67, 120
1, 9310, Note_on_c, 2, 72, 120
1, 9314, Note_on_c, 9, 62, 112
1, 9315, Note_off_c, 9, 62, 64
1, 9316, Note_off_c, 6, 84, 64
1, 9318, Lyric_t, "let "
1, 9318, Note_off_c, 3, 55, 64
1, 9318, Note_on_c, 3, 57, 103
1, 9331, Note_off_c, 2, 67, 64
1, 9333, Note_off_c, 1, 36, 64
1, 9339, Note_off_c, 2, 72, 64
1, 9340, Note_off_c, 2, 64, 64
1, 9372, Lyric_t, "me "
1, 9372, Note_on_c, 3, 60, 98
1, 9374, Note_on_c, 1, 36, 124
1, 9374, Note_on_c, 6, 84, 86
1, 9376, Note_on_c, 9, 64, 44
1, 9377, Note_off_c, 9, 64, 64
1, 9378, Note_off_c, 3, 57, 64
1, 9402, Note_off_c, 1, 36, 64
1, 9405, Note_off_c, 6, 84, 64
1, 9407, Note_on_c, 1, 28, 100
1, 9408, Note_on_c, 6, 91, 79
1, 9424, Lyric_t, "know "
1, 9424, Note_off_c, 3, 60, 64
1, 9424, Note_on_c, 3, 62, 100
1, 9453, Note_off_c, 1, 28, 64
1, 9466, Note_off_c, 6, 91, 64
1, 9468, Note_on_c, 1, 31, 105
1, 9470, Note_on_c, 6, 96, 79
1, 9471, Note_on_c, 9, 63, 117
1, 9472, Note_on_c, 5, 60, 73
1, 9472, Note_on_c, 5, 64, 74
1, 9472, Note_on_c, 5, 67, 77
1, 9472, Note_off_c, 9, 63, 64
1, 9484, Lyric_t, "that "
1, 9484, Note_on_c, 3, 57, 101
1, 9486, Note_off_c, 3, 62, 64
1, 9503, Note_off_c, 5, 67, 64
1, 9503, Note_off_c, 5, 64, 64
1, 9503, Note_off_c, 5, 60, 64
1, 9503, Note_on_c, 2, 64, 120
1, 9504, Note_on_c, 5, 67, 59
1, 9504, Note_on_c, 5, 72, 81
1, 9504, Note_on_c, 5, 64, 84
1, 9504, Note_on_c, 2, 67, 120
1, 9504, Note_on_c, 9, 64, 44
1, 9505, Note_on_c, 2, 72, 120
1, 9505, Note_off_c, 9, 64, 64
1, 9516, Note_off_c, 1, 31, 64
1, 9520, Note_off_c, 6, 96, 64
1, 9523, Note_off_c, 2, 67, 64
1, 9526, Note_off_c, 3, 57, 64
1, 9526, Note_off_c, 2, 72, 64
1, 9529, Note_off_c, 2, 64, 64
1, 9563, Note_on_c, 6, 93, 87
1, 9564, Lyric_t, "your "
1, 9564, Note_on_c, 3, 60, 103
1, 9566, Note_on_c, 1, 29, 120
1, 9567, Note_on_c, 9, 63, 114
1, 9568, Note_off_c, 5, 64, 64
1, 9568, Note_off_c, 5, 72, 64
1, 9568, Note_off_c, 5, 67, 64
1, 9568, Note_on_c, 5, 69, 66
1, 9568, Note_on_c, 5, 65, 68
1, 9568, Note_on_c, 5, 60, 66
1, 9568, Note_off_c, 9, 63, 64
1, 9617, Note_off_c, 3, 60, 64
1, 9618, Lyric_t, "love "
1, 9618, Note_on_c, 3, 62, 101
1, 9662, Note_on_c, 9, 63, 85
1, 9663, Note_off_c, 9, 63, 64
1, 9675, Note_off_c, 3, 62, 64
1, 9676, Lyric_t, "is "
1, 9676, Note_on_c, 3, 64, 102
1, 9690, Note_off_c, 1, 29, 64
1, 9694, Note_on_c, 9, 62, 104
1, 9695, Note_off_c, 9, 62, 64
1, 9698, Note_on_c, 2, 60, 120
1, 9698, Note_on_c, 2, 65, 120
1, 9699, Note_on_c, 2, 69, 120
1, 9717, Note_off_c, 2, 60, 64
1, 9723, Note_off_c, 3, 64, 64
1, 9727, Note_off_c, 2, 65, 64
1, 9728, Note_off_c, 2, 69, 64
1, 9738, Lyric_t, "here. "
1, 9738, Lyric_t, "\015"
1, 9738, Note_on_c, 3, 62, 98
1, 9742, Note_off_c, 6, 93, 64
1, 9756, Note_on_c, 1, 33, 127
1, 9758, Note_on_c, 3, 60, 99
1, 9760, Note_on_c, 9, 64, 44
1, 9761, Note_off_c, 9, 64, 64
1, 9769, Note_off_c, 3, 62, 64
1, 9781, Note_off_c, 1, 33, 64
1, 9788, Note_on_c, 6, 91, 84
1, 9789, Note_on_c, 3, 57, 90
1, 9790, Note_on_c, 1, 31, 102
1, 9792, Note_off_c, 5, 60, 64
1, 9792, Note_off_c, 5, 65, 64
1, 9792, Note_off_c, 5, 69, 64
1, 9792, Note_on_c, 5, 67, 62
1, 9792, Note_on_c, 5, 59, 59
1, 9792, Note_on_c, 5, 62, 61
1, 9792, Note_on_c, 9, 64, 44
1, 9793, Note_off_c, 9, 64, 64
1, 9794, Note_off_c, 3, 60, 64
1, 9835, Note_off_c, 1, 31, 64
1, 9839, Lyric_t, "\012"
1, 9849, Note_off_c, 6, 91, 64
1, 9850, Note_on_c, 6, 89, 73
1, 9852, Note_on_c, 1, 33, 93
1, 9853, Note_on_c, 9, 63, 74
1, 9854, Note_off_c, 9, 63, 64
1, 9859, Note_off_c, 3, 57, 64
1, 9872, Note_off_c, 1, 33, 64
1, 9885, Note_on_c, 6, 88, 75
1, 9886, Note_on_c, 1, 35, 116
1, 9886, Note_on_c, 2, 60, 120
1, 9886, Note_on_c, 2, 65, 120
1, 9886, Note_on_c, 9, 62, 112
1, 9887, Note_on_c, 2, 69, 120
1, 9887, Note_off_c, 9, 62, 64
1, 9888, Note_off_c, 5, 62, 64
1, 9888, Note_off_c, 5, 59, 64
1, 9888, Note_off_c, 5, 67, 64
1, 9898, Note_off_c, 6, 89, 64
1, 9914, Note_off_c, 2, 60, 64
1, 9918, Note_off_c, 2, 69, 64
1, 9922, Note_off_c, 2, 65, 64
1, 9931, Note_off_c, 1, 35, 64
1, 9948, Note_off_c, 6, 88, 64
1, 9948, Note_on_c, 6, 86, 62
1, 9948, Note_on_c, 9, 63, 85
1, 9949, Note_on_c, 1, 33, 89
1, 9949, Note_off_c, 9, 63, 64
1, 9968, Note_on_c, 9, 63, 109
1, 9969, Note_off_c, 9, 63, 64
1, 9974, Note_off_c, 1, 33, 64
1, 9981, Note_off_c, 6, 86, 64
1, 9982, Note_on_c, 6, 84, 71
1, 9983, Note_on_c, 9, 63, 99
1, 9984, Note_on_c, 1, 36, 122
1, 9984, Note_off_c, 9, 63, 64
1, 10041, Lyric_t, "A "
1, 10041, Note_on_c, 3, 60, 119
1, 10048, Note_on_c, 9, 64, 44
1, 10049, Note_off_c, 9, 64, 64
1, 10072, Note_off_c, 3, 60, 64
1, 10078, Note_on_c, 2, 64, 120
1, 10079, Note_on_c, 2, 72, 120
1, 10079, Note_on_c, 2, 67, 120
1, 10081, Note_on_c, 9, 62, 108
1, 10082, Note_off_c, 9, 62, 64
1, 10089, Lyric_t, "pret"
1, 10089, Note_on_c, 3, 64, 100
1, 10097, Note_off_c, 6, 84, 64
1, 10103, Note_off_c, 2, 67, 64
1, 10109, Note_off_c, 2, 72, 64
1, 10112, Note_off_c, 2, 64, 64
1, 10124, Note_off_c, 1, 36, 64
1, 10130, Lyric_t, "ty "
1, 10130, Note_on_c, 3, 67, 104
1, 10138, Note_off_c, 3, 64, 64
1, 10142, Note_on_c, 1, 36, 126
1, 10142, Note_on_c, 6, 84, 88
1, 10144, Note_on_c, 9, 64, 44
1, 10145, Note_off_c, 9, 64, 64
1, 10166, Note_off_c, 1, 36, 64
1, 10173, Note_off_c, 6, 84, 64
1, 10174, Note_off_c, 3, 67, 64
1, 10176, Note_on_c, 9, 64, 44
1, 10177, Note_on_c, 6, 91, 80
1, 10177, Note_off_c, 9, 64, 64
1, 10178, Lyric_t, "face "
1, 10178, Note_on_c, 3, 67, 108
1, 10178, Note_on_c, 1, 28, 124
1, 10219, Note_off_c, 1, 28, 64
1, 10238, Note_on_c, 1, 31, 105
1, 10238, Note_on_c, 9, 63, 109
1, 10239, Note_on_c, 6, 96, 84
1, 10239, Note_off_c, 9, 63, 64
1, 10240, Note_on_c, 5, 55, 77
1, 10240, Note_on_c, 5, 67, 66
1, 10240, Note_off_c, 6, 91, 64
1, 10241, Note_off_c, 3, 67, 64
1, 10271, Note_off_c, 5, 67, 64
1, 10271, Note_off_c, 5, 55, 64
1, 10271, Note_on_c, 2, 64, 120
1, 10272, Note_on_c, 5, 60, 68
1, 10272, Note_on_c, 5, 72, 64
1, 10272, Note_on_c, 2, 67, 120
1, 10273, Note_on_c, 2, 72, 120
1, 10294, Note_off_c, 1, 31, 64
1, 10298, Note_off_c, 2, 67, 64
1, 10301, Note_off_c, 2, 72, 64
1, 10303, Note_off_c, 2, 64, 64
1, 10323, Note_off_c, 6, 96, 64
1, 10327, Lyric_t, "you "
1, 10327, Note_on_c, 3, 64, 106
1, 10333, Note_on_c, 1, 29, 112
1, 10334, Note_on_c, 6, 93, 91
1, 10334, Note_on_c, 9, 64, 83
1, 10335, Note_off_c, 9, 64, 64
1, 10336, Note_off_c, 5, 72, 64
1, 10336, Note_off_c, 5, 60, 64
1, 10336, Note_on_c, 5, 57, 66
1, 10336, Note_on_c, 5, 69, 66
1, 10368, Note_on_c, 9, 64, 44
1, 10369, Note_off_c, 9, 64, 64
1, 10378, Note_off_c, 3, 64, 64
1, 10382, Lyric_t, "may "
1, 10382, Note_on_c, 3, 64, 98
1, 10431, Note_on_c, 9, 64, 56
1, 10432, Note_off_c, 9, 64, 64
1, 10442, Note_off_c, 3, 64, 64
1, 10445, Lyric_t, "not "
1, 10445, Note_on_c, 3, 64, 103
1, 10462, Note_on_c, 2, 60, 120
1, 10462, Note_on_c, 2, 65, 120
1, 10462, Note_on_c, 2, 69, 120
1, 10463, Note_on_c, 9, 62, 114
1, 10464, Note_off_c, 9, 62, 64
1, 10479, Note_off_c, 1, 29, 64
1, 10490, Note_off_c, 2, 60, 64
1, 10492, Note_off_c, 6, 93, 64
1, 10494, Note_off_c, 3, 64, 64
1, 10500, Note_off_c, 2, 69, 64
1, 10502, Note_off_c, 2, 65, 64
1, 10508, Lyric_t, "pos"
1, 10508, Note_on_c, 3, 62, 108
1, 10526, Note_on_c, 1, 33, 116
1, 10528, Note_on_c, 9, 64, 44
1, 10529, Note_off_c, 9, 64, 64
1, 10556, Note_on_c, 6, 91, 80
1, 10557, Note_on_c, 9, 62, 112
1, 10558, Note_off_c, 9, 62, 64
1, 10560, Note_off_c, 5, 69, 64
1, 10560, Note_off_c, 5, 57, 64
1, 10560, Note_on_c, 5, 67, 62
1, 10560, Note_on_c, 5, 55, 66
1, 10560, Note_off_c, 1, 33, 64
1, 10561, Note_on_c, 1, 31, 98
1, 10564, Lyric_t, "sess, "
1, 10564, Lyric_t, "\015"
1, 10564, Note_on_c, 3, 60, 104
1, 10566, Note_off_c, 3, 62, 64
1, 10596, Note_on_c, 3, 57, 99
1, 10598, Note_off_c, 3, 60, 64
1, 10605, Note_off_c, 1, 31, 64
1, 10621, Note_on_c, 6, 89, 77
1, 10622, Note_on_c, 1, 33, 87
1, 10622, Note_off_c, 6, 91, 64
1, 10622, Note_on_c, 9, 64, 72
1, 10623, Note_off_c, 9, 64, 64
1, 10631, Note_off_c, 3, 57, 64
1, 10642, Note_off_c, 1, 33, 64
1, 10652, Note_on_c, 2, 60, 120
1, 10654, Note_on_c, 2, 65, 120
1, 10654, Note_on_c, 2, 69, 120
1, 10654, Note_on_c, 9, 62, 101
1, 10655, Note_on_c, 1, 35, 118
1, 10655, Note_on_c, 6, 88, 75
1, 10655, Note_off_c, 9, 62, 64
1, 10656, Note_off_c, 5, 55, 64
1, 10656, Note_off_c, 5, 67, 64
1, 10666, Note_off_c, 6, 89, 64
1, 10685, Note_off_c, 2, 60, 64
1, 10687, Note_off_c, 2, 69, 64
1, 10694, Note_off_c, 2, 65, 64
1, 10699, Note_off_c, 1, 35, 64
1, 10714, Note_on_c, 9, 63, 92
1, 10715, Note_off_c, 9, 63, 64
1, 10718, Note_on_c, 6, 86, 72
1, 10719, Note_on_c, 1, 33, 104
1, 10719, Note_off_c, 6, 88, 64
1, 10727, Note_on_c, 9, 63, 109
1, 10728, Note_off_c, 9, 63, 64
1, 10746, Note_on_c, 9, 63, 114
1, 10747, Note_off_c, 1, 33, 64
1, 10747, Note_off_c, 9, 63, 64
1, 10752, Note_off_c, 6, 86, 64
1, 10753, Note_on_c, 1, 36, 112
1, 10753, Note_on_c, 6, 84, 75
1, 10793, Lyric_t, "but "
1, 10793, Note_on_c, 3, 55, 112
1, 10816, Note_on_c, 9, 64, 44
1, 10817, Note_off_c, 9, 64, 64
1, 10844, Lyric_t, "what "
1, 10844, Note_on_c, 3, 57, 103
1, 10845, Note_on_c, 2, 64, 120
1, 10846, Note_on_c, 2, 67, 120
1, 10846, Note_on_c, 2, 72, 120
1, 10846, Note_on_c, 9, 62, 114
1, 10847, Note_off_c, 9, 62, 64
1, 10850, Note_off_c, 6, 84, 64
1, 10856, Note_off_c, 3, 55, 64
1, 10873, Note_off_c, 1, 36, 64
1, 10875, Note_off_c, 2, 72, 64
1, 10877, Note_off_c, 2, 67, 64
1, 10881, Lyric_t, "I "
1, 10881, Note_on_c, 3, 60, 101
1, 10883, Note_off_c, 2, 64, 64
1, 10889, Note_off_c, 3, 57, 64
1, 10910, Note_on_c, 1, 36, 124
1, 10911, Note_on_c, 6, 84, 93
1, 10912, Note_on_c, 9, 64, 44
1, 10913, Note_off_c, 9, 64, 64
1, 10927, Lyric_t, "like "
1, 10927, Note_on_c, 3, 62, 106
1, 10928, Note_off_c, 3, 60, 64
1, 10943, Note_off_c, 6, 84, 64
1, 10944, Note_off_c, 1, 36, 64
1, 10944, Note_on_c, 9, 64, 44
1, 10945, Note_on_c, 1, 28, 105
1, 10945, Note_off_c, 9, 64, 64
1, 10946, Note_on_c, 6, 91, 86
1, 10969, Note_off_c, 3, 62, 64
1, 10973, Lyric_t, "a"
1, 10973, Note_on_c, 3, 57, 96
1, 10994, Note_off_c, 1, 28, 64
1, 11004, Note_off_c, 6, 91, 64
1, 11006, Note_on_c, 9, 63, 114
1, 11007, Note_off_c, 9, 63, 64
1, 11008, Lyric_t, "bout "
1, 11008, Note_on_c, 3, 60, 100
1, 11008, Note_on_c, 5, 60, 75
1, 11008, Note_on_c, 5, 67, 65
1, 11008, Note_on_c, 5, 64, 66
1, 11008, Note_on_c, 1, 31, 100
1, 11009, Note_on_c, 6, 96, 87
1, 11016, Note_off_c, 3, 57, 64
1, 11038, Note_on_c, 2, 64, 120
1, 11039, Note_off_c, 5, 64, 64
1, 11039, Note_off_c, 5, 67, 64
1, 11039, Note_off_c, 5, 60, 64
1, 11039, Note_on_c, 2, 67, 120
1, 11039, Note_on_c, 2, 72, 120
1, 11040, Note_on_c, 5, 67, 67
1, 11040, Note_on_c, 5, 72, 91
1, 11040, Note_on_c, 5, 64, 79
1, 11046, Note_off_c, 3, 60, 64
1, 11052, Note_off_c, 1, 31, 64
1, 11062, Lyric_t, "you "
1, 11062, Note_on_c, 3, 57, 96
1, 11066, Note_off_c, 2, 72, 64
1, 11068, Note_off_c, 2, 67, 64
1, 11073, Note_off_c, 2, 64, 64
1, 11090, Note_off_c, 6, 96, 64
1, 11100, Note_on_c, 6, 93, 90
1, 11102, Note_on_c, 1, 29, 108
1, 11102, Note_on_c, 9, 64, 90
1, 11103, Note_off_c, 9, 64, 64
1, 11104, Note_off_c, 5, 64, 64
1, 11104, Note_off_c, 5, 72, 64
1, 11104, Note_off_c, 5, 67, 64
1, 11104, Note_on_c, 5, 69, 65
1, 11104, Note_on_c, 5, 65, 60
1, 11104, Note_on_c, 5, 60, 75
1, 11112, Lyric_t, "is "
1, 11112, Note_on_c, 3, 60, 101
1, 11128, Note_off_c, 3, 57, 64
1, 11136, Note_on_c, 9, 35, 102
1, 11137, Note_off_c, 9, 35, 64
1, 11139, Note_on_c, 9, 38, 63
1, 11140, Note_off_c, 9, 38, 64
1, 11164, Lyric_t, "your "
1, 11164, Note_on_c, 3, 57, 97
1, 11168, Note_off_c, 3, 60, 64
1, 11172, Note_on_c, 9, 38, 68
1, 11173, Note_off_c, 9, 38, 64
1, 11200, Note_on_c, 9, 64, 44
1, 11201, Note_on_c, 9, 38, 69
1, 11201, Note_off_c, 9, 64, 64
1, 11202, Note_off_c, 9, 38, 64
1, 11208, Lyric_t, "ten"
1, 11208, Note_on_c, 3, 64, 102
1, 11218, Note_off_c, 3, 57, 64
1, 11230, Note_on_c, 9, 35, 105
1, 11230, Note_on_c, 9, 62, 83
1, 11231, Note_off_c, 9, 35, 64
1, 11231, Note_off_c, 9, 62, 64
1, 11233, Note_on_c, 9, 38, 86
1, 11233, Note_on_c, 2, 60, 120
1, 11233, Note_on_c, 2, 65, 120
1, 11233, Note_on_c, 2, 69, 120
1, 11234, Note_off_c, 9, 38, 64
1, 11239, Note_off_c, 6, 93, 64
1, 11244, Note_off_c, 1, 29, 64
1, 11256, Note_off_c, 2, 60, 64
1, 11257, Note_off_c, 2, 69, 64
1, 11265, Note_on_c, 9, 38, 91
1, 11266, Lyric_t, "der"
1, 11266, Note_on_c, 3, 60, 104
1, 11266, Note_off_c, 9, 38, 64
1, 11266, Note_off_c, 2, 65, 64
1, 11272, Note_off_c, 3, 64, 64
1, 11293, Note_on_c, 1, 28, 116
1, 11295, Note_on_c, 9, 38, 88
1, 11296, Note_off_c, 9, 38, 64
1, 11296, Note_on_c, 9, 64, 44
1, 11297, Note_off_c, 9, 64, 64
1, 11319, Lyric_t, "ness. "
1, 11319, Lyric_t, "\015"
1, 11319, Note_on_c, 3, 57, 95
1, 11325, Note_on_c, 9, 35, 107
1, 11326, Note_off_c, 3, 60, 64
1, 11326, Note_off_c, 9, 35, 64
1, 11326, Note_on_c, 1, 29, 108
1, 11326, Note_on_c, 6, 89, 90
1, 11328, Note_off_c, 5, 60, 64
1, 11328, Note_off_c, 5, 65, 64
1, 11328, Note_off_c, 5, 69, 64
1, 11328, Note_on_c, 9, 38, 108
1, 11329, Note_off_c, 9, 38, 64
1, 11331, Note_on_c, 9, 63, 117
1, 11332, Note_off_c, 9, 63, 64
1, 11334, Note_off_c, 1, 28, 64
1, 11359, Note_on_c, 9, 38, 103
1, 11360, Note_off_c, 9, 38, 64
1, 11377, Note_off_c, 3, 57, 64
1, 11386, Note_off_c, 6, 89, 64
1, 11391, Note_on_c, 9, 38, 127
1, 11392, Note_off_c, 9, 38, 64
1, 11396, Note_off_c, 1, 29, 64
1, 11405, Lyric_t, "\012"
1, 11422, Note_on_c, 2, 60, 120
1, 11423, Note_on_c, 2, 65, 120
1, 11423, Note_on_c, 2, 69, 120
1, 11423, Note_on_c, 9, 63, 109
1, 11424, Note_on_c, 9, 38, 120
1, 11424, Note_on_c, 1, 29, 108
1, 11424, Note_off_c, 9, 63, 64
1, 11425, Note_off_c, 9, 38, 64
1, 11425, Note_on_c, 9, 35, 111
1, 11425, Note_on_c, 6, 89, 88
1, 11426, Note_off_c, 9, 35, 64
1, 11445, Note_off_c, 2, 60, 64
1, 11446, Note_off_c, 2, 69, 64
1, 11453, Note_off_c, 2, 65, 64
1, 11454, Note_on_c, 9, 38, 127
1, 11455, Note_off_c, 9, 38, 64
1, 11474, Note_off_c, 6, 89, 64
1, 11484, Note_on_c, 9, 38, 127
1, 11485, Note_off_c, 9, 38, 64
1, 11485, Note_off_c, 1, 29, 64
1, 11488, Note_on_c, 9, 64, 44
1, 11489, Note_off_c, 9, 64, 64
1, 11516, Note_on_c, 0, 48, 86
1, 11517, Note_on_c, 9, 42, 82
1, 11517, Note_on_c, 9, 35, 112
1, 11517, Note_on_c, 0, 67, 94
1, 11517, Note_on_c, 0, 64, 91
1, 11518, Note_off_c, 9, 35, 64
1, 11518, Note_off_c, 9, 42, 64
1, 11518, Note_on_c, 0, 72, 104
1, 11520, Note_on_c, 5, 64, 80
1, 11520, Note_on_c, 5, 67, 81
1, 11520, Note_on_c, 1, 36, 126
1, 11520, Note_on_c, 6, 88, 44
1, 11520, Note_on_c, 8, 48, 71
1, 11521, Note_on_c, 8, 64, 73
1, 11522, Note_on_c, 8, 55, 70
1, 11575, Lyric_t, "A "
1, 11575, Note_on_c, 3, 55, 109
1, 11583, Note_on_c, 9, 42, 71
1, 11584, Note_off_c, 9, 42, 64
1, 11589, Note_off_c, 6, 88, 64
1, 11600, Note_off_c, 3, 55, 64
1, 11611, Lyric_t, "pret"
1, 11611, Note_on_c, 3, 64, 113
1, 11614, Note_on_c, 9, 38, 127
1, 11614, Note_on_c, 9, 42, 81
1, 11614, Note_on_c, 2, 64, 120
1, 11614, Note_on_c, 2, 67, 120
1, 11615, Note_off_c, 9, 42, 64
1, 11615, Note_off_c, 9, 38, 64
1, 11616, Note_on_c, 2, 72, 120
1, 11634, Note_off_c, 0, 64, 64
1, 11636, Note_off_c, 0, 67, 64
1, 11637, Note_off_c, 1, 36, 64
1, 11643, Note_off_c, 0, 72, 64
1, 11644, Note_off_c, 8, 55, 64
1, 11644, Note_off_c, 8, 48, 64
1, 11645, Note_off_c, 2, 67, 64
1, 11647, Note_off_c, 8, 64, 64
1, 11648, Note_off_c, 2, 72, 64
1, 11652, Note_off_c, 0, 48, 64
1, 11653, Note_off_c, 2, 64, 64
1, 11673, Lyric_t, "ty "
1, 11673, Note_off_c, 3, 64, 64
1, 11673, Note_on_c, 3, 60, 104
1, 11678, Note_on_c, 9, 42, 71
1, 11678, Note_on_c, 9, 35, 100
1, 11678, Note_on_c, 1, 38, 108
1, 11678, Note_on_c, 0, 50, 92
1, 11678, Note_on_c, 0, 69, 100
1, 11679, Note_off_c, 9, 35, 64
1, 11679, Note_off_c, 9, 42, 64
1, 11679, Note_on_c, 0, 65, 89
1, 11679, Note_on_c, 0, 74, 101
1, 11679, Note_on_c, 8, 50, 66
1, 11679, Note_on_c, 8, 65, 72
1, 11679, Note_on_c, 8, 57, 65
1, 11680, Note_off_c, 5, 67, 64
1, 11680, Note_off_c, 5, 64, 64
1, 11680, Note_on_c, 5, 65, 76
1, 11680, Note_on_c, 5, 69, 80
1, 11703, Note_off_c, 1, 38, 64
1, 11709, Note_on_c, 9, 35, 104
1, 11710, Lyric_t, "face "
1, 11710, Note_on_c, 3, 62, 111
1, 11710, Note_off_c, 9, 35, 64
1, 11710, Note_on_c, 9, 42, 77
1, 11711, Note_off_c, 9, 42, 64
1, 11712, Note_on_c, 1, 38, 109
1, 11720, Note_off_c, 3, 60, 64
1, 11767, Note_off_c, 3, 62, 64
1, 11775, Note_on_c, 9, 42, 70
1, 11776, Note_off_c, 9, 42, 64
1, 11803, Lyric_t, "may "
1, 11803, Note_on_c, 3, 57, 109
1, 11806, Note_on_c, 9, 38, 126
1, 11806, Note_on_c, 2, 60, 120
1, 11806, Note_on_c, 2, 65, 120
1, 11806, Note_on_c, 2, 69, 120
1, 11807, Note_off_c, 9, 38, 64
1, 11807, Note_on_c, 9, 42, 75
1, 11808, Note_off_c, 5, 69, 64
1, 11808, Note_off_c, 5, 65, 64
1, 11808, Note_off_c, 9, 42, 64
1, 11825, Note_off_c, 1, 38, 64
1, 11833, Note_off_c, 0, 74, 64
1, 11833, Note_off_c, 0, 50, 64
1, 11833, Note_off_c, 8, 65, 64
1, 11834, Note_off_c, 0, 65, 64
1, 11834, Note_off_c, 8, 50, 64
1, 11835, Note_off_c, 0, 69, 64
1, 11836, Note_off_c, 2, 60, 64
1, 11836, Note_off_c, 8, 57, 64
1, 11840, Note_off_c, 2, 69, 64
1, 11845, Note_off_c, 2, 65, 64
1, 11867, Lyric_t, "be "
1, 11867, Note_on_c, 3, 55, 106
1, 11868, Note_on_c, 1, 36, 104
1, 11870, Note_off_c, 3, 57, 64
1, 11870, Note_on_c, 9, 42, 61
1, 11871, Note_off_c, 9, 42, 64
1, 11890, Note_off_c, 1, 36, 64
1, 11895, Note_off_c, 3, 55, 64
1, 11901, Note_on_c, 1, 36, 109
1, 11902, Note_on_c, 9, 42, 73
1, 11903, Note_off_c, 9, 42, 64
1, 11903, Note_on_c, 9, 35, 99
1, 11903, Note_on_c, 8, 64, 61
1, 11904, Note_off_c, 9, 35, 64
1, 11904, Note_on_c, 8, 48, 61
1, 11904, Note_on_c, 8, 55, 67
1, 11906, Note_on_c, 0, 48, 91
1, 11906, Note_on_c, 0, 67, 91
1, 11906, Note_on_c, 0, 64, 86
1, 11906, Note_on_c, 0, 72, 100
1, 11957, Lyric_t, "some "
1, 11957, Note_on_c, 3, 64, 109
1, 11967, Note_on_c, 9, 42, 68
1, 11968, Note_off_c, 9, 42, 64
1, 11998, Note_on_c, 9, 38, 120
1, 11998, Note_on_c, 9, 42, 69
1, 11998, Note_on_c, 2, 64, 120
1, 11999, Note_off_c, 9, 42, 64
1, 11999, Note_off_c, 9, 38, 64
1, 11999, Note_on_c, 2, 67, 120
1, 12000, Note_on_c, 5, 76, 81
1, 12000, Note_on_c, 2, 72, 120
1, 12009, Note_off_c, 0, 64, 64
1, 12013, Note_off_c, 3, 64, 64
1, 12014, Note_off_c, 0, 67, 64
1, 12023, Note_off_c, 1, 36, 64
1, 12024, Note_off_c, 8, 48, 64
1, 12027, Note_off_c, 8, 55, 64
1, 12028, Note_off_c, 8, 64, 64
1, 12031, Lyric_t, "guys "
1, 12031, Note_on_c, 3, 64, 111
1, 12035, Note_off_c, 0, 72, 64
1, 12037, Note_off_c, 2, 64, 64
1, 12040, Note_off_c, 2, 72, 64
1, 12040, Note_off_c, 2, 67, 64
1, 12048, Note_off_c, 0, 48, 64
1, 12061, Note_on_c, 8, 65, 60
1, 12062, Note_on_c, 9, 42, 57
1, 12062, Note_on_c, 1, 38, 104
1, 12062, Note_on_c, 8, 50, 67
1, 12062, Note_on_c, 8, 57, 54
1, 12063, Note_off_c, 9, 42, 64
1, 12063, Note_on_c, 9, 35, 99
1, 12063, Note_on_c, 0, 69, 94
1, 12063, Note_on_c, 0, 74, 97
1, 12063, Note_on_c, 0, 65, 86
1, 12064, Note_off_c, 9, 35, 64
1, 12064, Note_on_c, 0, 50, 91
1, 12079, Note_off_c, 3, 64, 64
1, 12083, Note_off_c, 1, 38, 64
1, 12093, Note_on_c, 1, 38, 102
1, 12094, Lyric_t, "taste, "
1, 12094, Lyric_t, "\015"
1, 12094, Note_on_c, 3, 62, 108
1, 12094, Note_on_c, 9, 42, 75
1, 12094, Note_on_c, 9, 35, 104
1, 12095, Note_off_c, 9, 35, 64
1, 12095, Note_off_c, 9, 42, 64
1, 12096, Note_off_c, 5, 76, 64
1, 12096, Note_on_c, 5, 74, 80
1, 12121, Note_on_c, 3, 60, 107
1, 12125, Note_off_c, 3, 62, 64
1, 12152, Note_on_c, 3, 57, 100
1, 12154, Note_off_c, 3, 60, 64
1, 12158, Note_on_c, 9, 42, 63
1, 12159, Note_off_c, 9, 42, 64
1, 12160, Note_off_c, 5, 74, 64
1, 12160, Note_on_c, 5, 72, 77
1, 12186, Note_off_c, 3, 57, 64
1, 12188, Note_on_c, 9, 38, 124
1, 12189, Note_off_c, 9, 38, 64
1, 12191, Note_off_c, 5, 72, 64
1, 12191, Note_on_c, 9, 42, 73
1, 12191, Note_on_c, 2, 60, 120
1, 12191, Note_on_c, 2, 65, 120
1, 12191, Note_on_c, 2, 69, 120
1, 12192, Note_off_c, 9, 42, 64
1, 12198, Note_off_c, 8, 65, 64
1, 12201, Note_off_c, 1, 38, 64
1, 12205, Note_off_c, 8, 57, 64
1, 12205, Note_off_c, 8, 50, 64
1, 12218, Note_off_c, 2, 60, 64
1, 12226, Note_off_c, 2, 69, 64
1, 12227, Note_off_c, 2, 65, 64
1, 12234, Note_off_c, 0, 69, 64
1, 12239, Note_off_c, 0, 74, 64
1, 12245, Note_off_c, 0, 65, 64
1, 12248, Lyric_t, "but "
1, 12248, Note_on_c, 3, 55, 106
1, 12251, Note_off_c, 0, 50, 64
1, 12253, Note_on_c, 1, 36, 106
1, 12254, Note_on_c, 9, 42, 68
1, 12255, Note_off_c, 9, 42, 64
1, 12275, Note_off_c, 1, 36, 64
1, 12282, Lyric_t, "I'll "
1, 12282, Note_on_c, 3, 64, 106
1, 12284, Note_on_c, 0, 48, 81
1, 12284, Note_on_c, 8, 48, 70
1, 12285, Note_on_c, 9, 35, 106
1, 12285, Note_on_c, 0, 64, 86
1, 12285, Note_on_c, 0, 67, 85
1, 12285, Note_on_c, 8, 64, 81
1, 12285, Note_on_c, 8, 55, 78
1, 12286, Note_off_c, 9, 35, 64
1, 12286, Note_on_c, 9, 42, 68
1, 12286, Note_on_c, 1, 36, 114
1, 12286, Note_on_c, 0, 72, 89
1, 12286, Note_on_c, 7, 72, 78
1, 12287, Note_off_c, 9, 42, 64
1, 12288, Note_on_c, 5, 67, 74
1, 12288, Note_on_c, 5, 64, 84
1, 12293, Note_off_c, 3, 55, 64
1, 12333, Note_off_c, 3, 64, 64
1, 12349, Lyric_t, "take "
1, 12349, Note_on_c, 3, 64, 111
1, 12353, Note_on_c, 9, 42, 69
1, 12354, Note_off_c, 9, 42, 64
1, 12382, Note_on_c, 9, 38, 115
1, 12382, Note_on_c, 2, 64, 120
1, 12383, Note_off_c, 9, 38, 64
1, 12383, Note_on_c, 2, 67, 120
1, 12383, Note_on_c, 2, 72, 120
1, 12384, Note_on_c, 9, 42, 61
1, 12385, Note_off_c, 9, 42, 64
1, 12388, Note_off_c, 0, 64, 64
1, 12389, Note_off_c, 0, 67, 64
1, 12394, Note_off_c, 1, 36, 64
1, 12396, Note_off_c, 0, 72, 64
1, 12401, Note_off_c, 3, 64, 64
1, 12404, Note_off_c, 8, 64, 64
1, 12405, Note_off_c, 8, 55, 64
1, 12412, Note_off_c, 8, 48, 64
1, 12413, Note_off_c, 0, 48, 64
1, 12413, Note_off_c, 7, 72, 64
1, 12414, Note_off_c, 2, 67, 64
1, 12416, Note_off_c, 2, 72, 64
1, 12421, Note_off_c, 2, 64, 64
1, 12424, Lyric_t, "lov"
1, 12424, Note_on_c, 3, 62, 105
1, 12443, Note_on_c, 8, 65, 66
1, 12443, Note_on_c, 8, 57, 61
1, 12444, Note_on_c, 0, 50, 91
1, 12444, Note_on_c, 7, 74, 94
1, 12444, Note_on_c, 8, 50, 68
1, 12445, Note_on_c, 1, 38, 92
1, 12445, Note_on_c, 0, 69, 90
1, 12446, Note_on_c, 9, 35, 103
1, 12446, Note_on_c, 0, 65, 80
1, 12446, Note_on_c, 0, 74, 94
1, 12447, Note_off_c, 9, 35, 64
1, 12447, Note_on_c, 9, 42, 68
1, 12448, Note_off_c, 5, 64, 64
1, 12448, Note_off_c, 5, 67, 64
1, 12448, Note_on_c, 5, 69, 80
1, 12448, Note_on_c, 5, 65, 76
1, 12448, Note_off_c, 9, 42, 64
1, 12450, Note_on_c, 3, 60, 102
1, 12458, Note_off_c, 3, 62, 64
1, 12469, Note_off_c, 1, 38, 64
1, 12478, Note_on_c, 1, 38, 112
1, 12479, Note_on_c, 9, 35, 106
1, 12480, Note_off_c, 9, 35, 64
1, 12481, Note_on_c, 3, 57, 103
1, 12481, Note_on_c, 9, 42, 71
1, 12482, Note_off_c, 3, 60, 64
1, 12482, Note_off_c, 9, 42, 64
1, 12530, Note_off_c, 3, 57, 64
1, 12537, Lyric_t, "in' "
1, 12537, Note_on_c, 3, 57, 100
1, 12543, Note_on_c, 9, 42, 61
1, 12544, Note_off_c, 9, 42, 64
1, 12575, Note_on_c, 9, 42, 71
1, 12576, Note_off_c, 5, 65, 64
1, 12576, Note_off_c, 5, 69, 64
1, 12576, Note_off_c, 9, 42, 64
1, 12576, Note_on_c, 9, 38, 126
1, 12577, Note_off_c, 9, 38, 64
1, 12578, Note_on_c, 2, 60, 120
1, 12578, Note_on_c, 2, 65, 120
1, 12578, Note_on_c, 2, 69, 120
1, 12584, Note_off_c, 3, 57, 64
1, 12586, Note_off_c, 1, 38, 64
1, 12593, Note_off_c, 8, 65, 64
1, 12597, Note_off_c, 0, 65, 64
1, 12599, Note_off_c, 8, 57, 64
1, 12601, Note_off_c, 2, 60, 64
1, 12602, Note_off_c, 8, 50, 64
1, 12603, Note_off_c, 0, 69, 64
1, 12607, Note_off_c, 0, 74, 64
1, 12607, Note_off_c, 2, 69, 64
1, 12612, Note_off_c, 2, 65, 64
1, 12613, Note_off_c, 7, 74, 64
1, 12619, Note_off_c, 0, 50, 64
1, 12636, Note_on_c, 8, 67, 78
1, 12637, Note_on_c, 7, 76, 97
1, 12637, Note_on_c, 8, 59, 72
1, 12638, Note_on_c, 9, 42, 64
1, 12638, Note_on_c, 9, 35, 100
1, 12638, Note_on_c, 0, 71, 106
1, 12638, Note_on_c, 8, 52, 66
1, 12639, Note_off_c, 9, 35, 64
1, 12639, Note_off_c, 9, 42, 64
1, 12639, Note_on_c, 1, 40, 100
1, 12639, Note_on_c, 0, 76, 96
1, 12639, Note_on_c, 0, 67, 94
1, 12639, Note_on_c, 0, 52, 86
1, 12661, Note_off_c, 1, 40, 64
1, 12670, Lyric_t, "in "
1, 12670, Note_on_c, 3, 67, 113
1, 12670, Note_on_c, 9, 42, 63
1, 12671, Note_off_c, 9, 42, 64
1, 12671, Note_on_c, 9, 35, 102
1, 12672, Note_off_c, 9, 35, 64
1, 12672, Note_on_c, 1, 40, 112
1, 12732, Lyric_t, "its "
1, 12732, Note_off_c, 3, 67, 64
1, 12732, Note_on_c, 3, 64, 108
1, 12737, Note_on_c, 9, 42, 68
1, 12738, Note_off_c, 9, 42, 64
1, 12766, Note_on_c, 9, 38, 120
1, 12767, Note_off_c, 9, 38, 64
1, 12767, Note_on_c, 2, 62, 120
1, 12767, Note_on_c, 2, 67, 120
1, 12768, Note_on_c, 5, 76, 87
1, 12768, Note_on_c, 9, 42, 60
1, 12769, Note_off_c, 9, 42, 64
1, 12769, Note_on_c, 2, 71, 120
1, 12773, Note_off_c, 1, 40, 64
1, 12781, Note_off_c, 3, 64, 64
1, 12785, Note_off_c, 0, 67, 64
1, 12790, Note_off_c, 8, 52, 64
1, 12792, Note_off_c, 2, 62, 64
1, 12792, Note_off_c, 8, 67, 64
1, 12794, Note_off_c, 0, 71, 64
1, 12795, Note_off_c, 8, 59, 64
1, 12797, Note_off_c, 0, 76, 64
1, 12803, Note_off_c, 2, 67, 64
1, 12811, Note_off_c, 2, 71, 64
1, 12817, Note_off_c, 0, 52, 64
1, 12823, Lyric_t, "place, "
1, 12823, Lyric_t, "\015"
1, 12823, Note_on_c, 3, 62, 107
1, 12823, Note_off_c, 7, 76, 64
1, 12828, Note_on_c, 7, 77, 108
1, 12828, Note_on_c, 8, 69, 72
1, 12828, Note_on_c, 8, 60, 90
1, 12828, Note_on_c, 8, 53, 83
1, 12829, Note_on_c, 1, 41, 120
1, 12829, Note_on_c, 0, 53, 93
1, 12830, Note_on_c, 0, 72, 106
1, 12830, Note_on_c, 0, 77, 101
1, 12830, Note_on_c, 0, 69, 94
1, 12832, Note_off_c, 5, 76, 64
1, 12832, Note_on_c, 5, 74, 91
1, 12833, Note_on_c, 9, 42, 77
1, 12833, Note_on_c, 9, 35, 100
1, 12834, Note_off_c, 9, 35, 64
1, 12834, Note_off_c, 9, 42, 64
1, 12856, Lyric_t, "\012"
1, 12864, Note_on_c, 9, 42, 68
1, 12864, Note_on_c, 9, 35, 105
1, 12865, Note_off_c, 9, 35, 64
1, 12865, Note_off_c, 9, 42, 64
1, 12876, Note_off_c, 7, 77, 64
1, 12881, Note_off_c, 0, 69, 64
1, 12882, Note_off_c, 0, 72, 64
1, 12882, Note_off_c, 8, 60, 64
1, 12884, Note_off_c, 0, 77, 64
1, 12886, Note_off_c, 8, 69, 64
1, 12887, Note_off_c, 0, 53, 64
1, 12888, Note_off_c, 8, 53, 64
1, 12891, Note_off_c, 3, 62, 64
1, 12893, Note_off_c, 1, 41, 64
1, 12921, Lyric_t, "'cause "
1, 12921, Note_on_c, 3, 57, 114
1, 12925, Note_on_c, 7, 77, 114
1, 12926, Note_on_c, 0, 72, 106
1, 12926, Note_on_c, 0, 77, 100
1, 12926, Note_on_c, 0, 69, 96
1, 12926, Note_on_c, 8, 69, 92
1, 12926, Note_on_c, 8, 53, 95
1, 12926, Note_on_c, 8, 60, 98
1, 12927, Note_on_c, 9, 42, 63
1, 12927, Note_on_c, 0, 53, 103
1, 12928, Note_off_c, 5, 74, 64
1, 12928, Note_on_c, 5, 72, 70
1, 12928, Note_off_c, 9, 42, 64
1, 12928, Note_on_c, 1, 41, 102
1, 12958, Note_on_c, 2, 65, 120
1, 12958, Note_on_c, 2, 69, 120
1, 12959, Note_off_c, 5, 72, 64
1, 12959, Note_on_c, 2, 72, 120
1, 12960, Note_on_c, 5, 69, 78
1, 12960, Note_on_c, 9, 42, 72
1, 12961, Note_off_c, 9, 42, 64
1, 12961, Note_on_c, 9, 38, 124
1, 12962, Lyric_t, "I "
1, 12962, Note_on_c, 3, 64, 106
1, 12962, Note_off_c, 9, 38, 64
1, 12966, Note_off_c, 3, 57, 64
1, 12969, Note_off_c, 8, 53, 64
1, 12973, Note_off_c, 8, 60, 64
1, 12977, Note_off_c, 8, 69, 64
1, 12982, Note_off_c, 7, 77, 64
1, 12990, Note_off_c, 1, 41, 64
1, 12995, Note_off_c, 0, 69, 64
1, 12995, Note_off_c, 0, 72, 64
1, 12995, Note_off_c, 2, 65, 64
1, 12996, Note_off_c, 0, 53, 64
1, 12997, Note_off_c, 0, 77, 64
1, 12999, Note_off_c, 2, 72, 64
1, 12999, Note_off_c, 2, 69, 64
1, 13004, Note_off_c, 3, 64, 64
1, 13010, Lyric_t, "know "
1, 13010, Note_on_c, 3, 62, 106
1, 13023, Note_on_c, 9, 42, 64
1, 13024, Note_off_c, 5, 69, 64
1, 13024, Note_off_c, 9, 42, 64
1, 13024, Note_on_c, 1, 38, 109
1, 13033, Note_on_c, 3, 60, 103
1, 13034, Note_off_c, 3, 62, 64
1, 13052, Note_off_c, 1, 38, 64
1, 13054, Note_on_c, 1, 36, 102
1, 13054, Note_on_c, 7, 76, 105
1, 13054, Note_on_c, 8, 64, 104
1, 13054, Note_on_c, 8, 60, 95
1, 13055, Note_on_c, 9, 42, 71
1, 13055, Note_on_c, 9, 35, 106
1, 13055, Note_on_c, 0, 48, 79
1, 13055, Note_on_c, 0, 55, 93
1, 13055, Note_on_c, 8, 55, 83
1, 13056, Note_on_c, 4, 67, 64
1, 13056, Note_on_c, 4, 60, 75
1, 13056, Note_on_c, 4, 64, 71
1, 13056, Note_off_c, 9, 35, 64
1, 13056, Note_off_c, 9, 42, 64
1, 13056, Note_on_c, 0, 60, 96
1, 13056, Note_on_c, 0, 64, 96
1, 13057, Note_off_c, 3, 60, 64
1, 13058, Lyric_t, "beau"
1, 13058, Note_on_c, 3, 64, 109
1, 13104, Note_off_c, 3, 64, 64
1, 13106, Note_off_c, 8, 60, 64
1, 13111, Note_off_c, 8, 64, 64
1, 13113, Lyric_t, "ty's "
1, 13113, Note_on_c, 3, 64, 105
1, 13113, Note_off_c, 7, 76, 64
1, 13114, Note_off_c, 8, 55, 64
1, 13116, Note_on_c, 8, 55, 81
1, 13117, Note_on_c, 8, 60, 86
1, 13118, Note_on_c, 8, 64, 80
1, 13119, Note_off_c, 4, 64, 64
1, 13119, Note_off_c, 4, 60, 64
1, 13119, Note_off_c, 4, 67, 64
1, 13119, Note_on_c, 9, 42, 60
1, 13120, Note_on_c, 4, 67, 56
1, 13120, Note_on_c, 4, 64, 63
1, 13120, Note_on_c, 4, 60, 72
1, 13120, Note_off_c, 9, 42, 64
1, 13121, Note_on_c, 7, 76, 90
1, 13140, Note_off_c, 3, 64, 64
1, 13140, Note_off_c, 8, 60, 64
1, 13140, Note_off_c, 8, 55, 64
1, 13145, Lyric_t, "on"
1, 13145, Note_on_c, 3, 64, 111
1, 13145, Note_off_c, 8, 64, 64
1, 13146, Note_off_c, 7, 76, 64
1, 13148, Note_on_c, 8, 64, 90
1, 13148, Note_on_c, 8, 60, 95
1, 13149, Note_on_c, 8, 55, 100
1, 13151, Note_off_c, 4, 60, 64
1, 13151, Note_off_c, 4, 64, 64
1, 13151, Note_off_c, 4, 67, 64
1, 13151, Note_on_c, 9, 38, 112
1, 13151, Note_on_c, 2, 64, 120
1, 13151, Note_on_c, 2, 67, 120
1, 13151, Note_on_c, 7, 76, 96
1, 13152, Note_on_c, 4, 67, 52
1, 13152, Note_on_c, 4, 64, 60
1, 13152, Note_on_c, 4, 60, 80
1, 13152, Note_off_c, 9, 38, 64
1, 13152, Note_on_c, 9, 42, 70
1, 13152, Note_on_c, 2, 72, 120
1, 13153, Note_off_c, 9, 42, 64
1, 13174, Note_off_c, 1, 36, 64
1, 13187, Note_off_c, 0, 64, 64
1, 13188, Note_off_c, 0, 48, 64
1, 13188, Note_off_c, 0, 55, 64
1, 13188, Note_off_c, 2, 72, 64
1, 13190, Note_off_c, 2, 67, 64
1, 13191, Note_off_c, 0, 60, 64
1, 13193, Note_off_c, 2, 64, 64
1, 13193, Note_off_c, 8, 60, 64
1, 13193, Note_off_c, 8, 64, 64
1, 13195, Note_off_c, 8, 55, 64
1, 13196, Note_off_c, 7, 76, 64
1, 13209, Lyric_t, "ly "
1, 13209, Note_on_c, 3, 60, 99
1, 13210, Note_off_c, 3, 64, 64
1, 13213, Note_on_c, 1, 36, 106
1, 13214, Note_on_c, 9, 42, 63
1, 13214, Note_on_c, 0, 55, 70
1, 13215, Note_off_c, 4, 60, 64
1, 13215, Note_off_c, 4, 64, 64
1, 13215, Note_off_c, 4, 67, 64
1, 13215, Note_off_c, 9, 42, 64
1, 13215, Note_on_c, 0, 60, 64
1, 13215, Note_on_c, 0, 48, 93
1, 13216, Note_on_c, 4, 67, 50
1, 13216, Note_on_c, 4, 64, 57
1, 13216, Note_on_c, 4, 60, 74
1, 13217, Note_on_c, 9, 35, 100
1, 13218, Note_off_c, 9, 35, 64
1, 13221, Note_off_c, 0, 55, 64
1, 13222, Note_off_c, 0, 60, 64
1, 13226, Note_off_c, 1, 36, 64
1, 13242, Lyric_t, "skin "
1, 13242, Note_on_c, 3, 62, 108
1, 13245, Note_on_c, 7, 74, 97
1, 13246, Note_on_c, 1, 29, 111
1, 13246, Note_off_c, 0, 48, 64
1, 13246, Note_on_c, 8, 62, 95
1, 13246, Note_on_c, 8, 57, 85
1, 13247, Note_off_c, 4, 60, 64
1, 13247, Note_off_c, 4, 64, 64
1, 13247, Note_off_c, 4, 67, 64
1, 13248, Note_on_c, 4, 65, 72
1, 13248, Note_on_c, 4, 62, 80
1, 13248, Note_on_c, 4, 57, 71
1, 13248, Note_on_c, 9, 42, 72
1, 13248, Note_on_c, 8, 53, 92
1, 13249, Note_off_c, 9, 42, 64
1, 13249, Note_on_c, 9, 35, 104
1, 13250, Note_off_c, 9, 35, 64
1, 13250, Note_on_c, 0, 41, 96
1, 13251, Note_off_c, 3, 60, 64
1, 13252, Note_on_c, 0, 62, 96
1, 13252, Note_on_c, 0, 53, 93
1, 13252, Note_on_c, 0, 57, 94
1, 13301, Note_off_c, 8, 57, 64
1, 13304, Note_off_c, 8, 53, 64
1, 13305, Note_off_c, 0, 62, 64
1, 13308, Note_off_c, 7, 74, 64
1, 13308, Note_on_c, 8, 53, 94
1, 13309, Note_on_c, 7, 72, 85
1, 13310, Note_off_c, 3, 62, 64
1, 13310, Note_on_c, 9, 42, 67
1, 13310, Note_on_c, 0, 60, 90
1, 13310, Note_on_c, 8, 60, 102
1, 13310, Note_on_c, 8, 57, 96
1, 13311, Lyric_t, "deep, "
1, 13311, Lyric_t, "\015"
1, 13311, Note_on_c, 3, 60, 111
1, 13311, Note_off_c, 4, 57, 64
1, 13311, Note_off_c, 4, 65, 64
1, 13311, Note_off_c, 9, 42, 64
1, 13312, Note_off_c, 4, 62, 64
1, 13312, Note_on_c, 4, 65, 56
1, 13312, Note_on_c, 4, 57, 56
1, 13312, Note_on_c, 4, 60, 77
1, 13314, Note_off_c, 8, 62, 64
1, 13317, Note_off_c, 0, 57, 64
1, 13318, Note_off_c, 0, 53, 64
1, 13323, Note_off_c, 0, 60, 64
1, 13328, Note_off_c, 7, 72, 64
1, 13332, Note_off_c, 0, 41, 64
1, 13334, Note_off_c, 8, 53, 64
1, 13337, Note_off_c, 8, 60, 64
1, 13342, Note_on_c, 2, 60, 120
1, 13342, Note_on_c, 2, 65, 120
1, 13342, Note_off_c, 8, 57, 64
1, 13343, Note_off_c, 4, 60, 64
1, 13343, Note_off_c, 4, 57, 64
1, 13343, Note_off_c, 4, 65, 64
1, 13343, Note_on_c, 9, 42, 69
1, 13343, Note_off_c, 1, 29, 64
1, 13343, Note_on_c, 2, 69, 120
1, 13344, Note_off_c, 9, 42, 64
1, 13344, Note_on_c, 9, 38, 118
1, 13345, Note_off_c, 9, 38, 64
1, 13357, Note_off_c, 3, 60, 64
1, 13381, Note_off_c, 2, 60, 64
1, 13384, Note_off_c, 2, 69, 64
1, 13388, Note_off_c, 2, 65, 64
1, 13405, Note_on_c, 1, 33, 116
1, 13407, Note_on_c, 9, 42, 63
1, 13408, Note_off_c, 9, 42, 64
1, 13410, Note_on_c, 9, 35, 95
1, 13411, Note_off_c, 9, 35, 64
1, 13438, Lyric_t, "yeah, "
1, 13438, Note_on_c, 3, 55, 116
1, 13438, Note_on_c, 1, 31, 87
1, 13439, Note_on_c, 0, 43, 86
1, 13439, Note_on_c, 7, 79, 120
1, 13440, Note_on_c, 4, 55, 72
1, 13440, Note_on_c, 4, 62, 61
1, 13440, Note_on_c, 4, 59, 56
1, 13440, Note_on_c, 9, 42, 68
1, 13440, Note_on_c, 8, 67, 106
1, 13440, Note_on_c, 8, 59, 110
1, 13441, Note_off_c, 9, 42, 64
1, 13441, Note_on_c, 9, 35, 104
1, 13441, Note_on_c, 0, 62, 100
1, 13441, Note_on_c, 0, 67, 104
1, 13441, Note_on_c, 0, 59, 104
1, 13442, Note_off_c, 9, 35, 64
1, 13445, Note_off_c, 1, 33, 64
1, 13467, Note_off_c, 7, 79, 64
1, 13479, Note_off_c, 8, 59, 64
1, 13482, Note_off_c, 8, 67, 64
1, 13485, Note_off_c, 0, 67, 64
1, 13485, Note_off_c, 0, 62, 64
1, 13486, Note_off_c, 0, 59, 64
1, 13495, Note_off_c, 1, 31, 64
1, 13498, Lyric_t, "yeah, "
1, 13498, Note_on_c, 3, 57, 107
1, 13498, Note_off_c, 0, 43, 64
1, 13502, Note_on_c, 1, 33, 114
1, 13503, Note_on_c, 9, 42, 60
1, 13503, Note_on_c, 0, 69, 101
1, 13503, Note_on_c, 0, 45, 87
1, 13503, Note_on_c, 0, 60, 106
1, 13503, Note_on_c, 0, 65, 96
1, 13503, Note_on_c, 7, 81, 112
1, 13504, Note_off_c, 3, 55, 64
1, 13504, Note_off_c, 4, 59, 64
1, 13504, Note_off_c, 4, 62, 64
1, 13504, Note_off_c, 4, 55, 64
1, 13504, Note_on_c, 4, 57, 66
1, 13504, Note_on_c, 4, 60, 74
1, 13504, Note_on_c, 4, 65, 66
1, 13504, Note_off_c, 9, 42, 64
1, 13505, Note_on_c, 8, 60, 98
1, 13505, Note_on_c, 8, 69, 114
1, 13525, Note_off_c, 0, 65, 64
1, 13528, Note_off_c, 0, 60, 64
1, 13530, Note_off_c, 0, 69, 64
1, 13534, Note_off_c, 1, 33, 64
1, 13535, Note_on_c, 9, 42, 73
1, 13536, Note_off_c, 9, 42, 64
1, 13536, Note_on_c, 2, 60, 120
1, 13537, Note_on_c, 9, 38, 118
1, 13537, Note_on_c, 2, 65, 120
1, 13537, Note_on_c, 2, 69, 120
1, 13538, Note_off_c, 9, 38, 64
1, 13538, Note_off_c, 8, 60, 64
1, 13541, Note_off_c, 7, 81, 64
1, 13542, Note_off_c, 8, 69, 64
1, 13545, Note_off_c, 0, 45, 64
1, 13563, Note_off_c, 2, 60, 64
1, 13568, Note_off_c, 2, 69, 64
1, 13571, Note_off_c, 2, 65, 64
1, 13594, Lyric_t, "yeah, "
1, 13594, Lyric_t, "\015"
1, 13594, Note_on_c, 3, 60, 116
1, 13595, Note_on_c, 0, 48, 87
1, 13596, Note_off_c, 3, 57, 64
1, 13596, Note_on_c, 0, 55, 97
1, 13596, Note_on_c, 0, 64, 100
1, 13596, Note_on_c, 0, 60, 103
1, 13596, Note_on_c, 7, 84, 118
1, 13597, Note_on_c, 1, 36, 105
1, 13597, Note_on_c, 8, 72, 120
1, 13597, Note_on_c, 8, 64, 110
1, 13598, Note_on_c, 9, 42, 61
1, 13599, Note_off_c, 4, 60, 64
1, 13599, Note_off_c, 9, 42, 64
1, 13600, Note_off_c, 4, 65, 64
1, 13600, Note_off_c, 4, 57, 64
1, 13600, Note_on_c, 4, 60, 70
1, 13600, Note_on_c, 4, 67, 63
1, 13600, Note_on_c, 4, 64, 71
1, 13615, Note_off_c, 1, 36, 64
1, 13628, Note_on_c, 1, 36, 118
1, 13630, Note_on_c, 9, 42, 66
1, 13631, Note_off_c, 9, 42, 64
1, 13632, Note_on_c, 9, 35, 105
1, 13633, Note_off_c, 9, 35, 64
1, 13635, Note_off_c, 8, 64, 64
1, 13636, Note_off_c, 8, 72, 64
1, 13638, Note_off_c, 7, 84, 64
1, 13644, Note_off_c, 3, 60, 64
1, 13670, Lyric_t, "\012"
1, 13688, Note_off_c, 1, 36, 64
1, 13692, Note_on_c, 1, 31, 82
1, 13694, Note_on_c, 9, 42, 61
1, 13695, Note_off_c, 9, 42, 64
1, 13696, Note_off_c, 4, 64, 64
1, 13696, Note_off_c, 4, 67, 64
1, 13696, Note_off_c, 4, 60, 64
1, 13721, Note_off_c, 1, 31, 64
1, 13726, Note_on_c, 9, 38, 118
1, 13726, Note_on_c, 9, 42, 68
1, 13726, Note_on_c, 1, 33, 91
1, 13727, Note_off_c, 9, 42, 64
1, 13727, Note_off_c, 9, 38, 64
1, 13727, Note_on_c, 2, 64, 120
1, 13728, Note_on_c, 2, 72, 120
1, 13729, Note_on_c, 2, 67, 120
1, 13738, Note_off_c, 0, 60, 64
1, 13738, Note_off_c, 0, 55, 64
1, 13741, Note_off_c, 0, 64, 64
1, 13744, Note_off_c, 0, 48, 64
1, 13758, Note_off_c, 2, 67, 64
1, 13759, Note_off_c, 2, 72, 64
1, 13764, Note_off_c, 2, 64, 64
1, 13788, Note_off_c, 1, 33, 64
1, 13789, Note_on_c, 1, 36, 112
1, 13790, Note_on_c, 9, 42, 68
1, 13791, Note_off_c, 9, 42, 64
1, 13821, Note_on_c, 9, 35, 104
1, 13822, Lyric_t, "beau"
1, 13822, Note_on_c, 3, 64, 117
1, 13822, Note_off_c, 9, 35, 64
1, 13822, Note_on_c, 9, 42, 68
1, 13822, Note_off_c, 1, 36, 64
1, 13822, Note_on_c, 0, 60, 98
1, 13822, Note_on_c, 0, 64, 97
1, 13822, Note_on_c, 0, 55, 94
1, 13822, Note_on_c, 0, 48, 86
1, 13823, Note_off_c, 9, 42, 64
1, 13824, Note_on_c, 4, 55, 63
1, 13824, Note_on_c, 4, 60, 66
1, 13824, Note_on_c, 4, 64, 72
1, 13824, Note_on_c, 1, 36, 111
1, 13880, Lyric_t, "ty's "
1, 13880, Note_on_c, 3, 67, 110
1, 13885, Note_on_c, 9, 42, 62
1, 13886, Note_off_c, 9, 42, 64
1, 13887, Note_off_c, 4, 64, 64
1, 13887, Note_off_c, 4, 60, 64
1, 13888, Note_off_c, 3, 64, 64
1, 13888, Note_off_c, 4, 55, 64
1, 13888, Note_on_c, 4, 64, 51
1, 13888, Note_on_c, 4, 60, 49
1, 13888, Note_on_c, 4, 67, 63
1, 13909, Note_off_c, 3, 67, 64
1, 13915, Lyric_t, "on"
1, 13915, Note_on_c, 3, 67, 101
1, 13917, Note_on_c, 9, 38, 113
1, 13918, Note_off_c, 9, 38, 64
1, 13918, Note_on_c, 9, 42, 61
1, 13918, Note_on_c, 2, 64, 120
1, 13919, Note_off_c, 4, 67, 64
1, 13919, Note_off_c, 4, 60, 64
1, 13919, Note_off_c, 4, 64, 64
1, 13919, Note_off_c, 9, 42, 64
1, 13919, Note_on_c, 2, 67, 120
1, 13920, Note_on_c, 4, 60, 61
1, 13920, Note_on_c, 4, 67, 67
1, 13920, Note_on_c, 4, 64, 80
1, 13920, Note_on_c, 2, 72, 120
1, 13940, Note_off_c, 1, 36, 64
1, 13957, Note_off_c, 0, 55, 64
1, 13957, Note_off_c, 0, 60, 64
1, 13957, Note_off_c, 0, 64, 64
1, 13957, Note_off_c, 2, 67, 64
1, 13958, Note_off_c, 0, 48, 64
1, 13960, Note_off_c, 2, 72, 64
1, 13963, Note_off_c, 3, 67, 64
1, 13963, Note_off_c, 2, 64, 64
1, 13977, Lyric_t, "ly "
1, 13977, Note_on_c, 3, 67, 108
1, 13980, Note_on_c, 0, 55, 75
1, 13980, Note_on_c, 0, 60, 74
1, 13981, Note_on_c, 9, 42, 68
1, 13981, Note_on_c, 0, 48, 71
1, 13982, Note_off_c, 9, 42, 64
1, 13982, Note_on_c, 1, 36, 116
1, 13983, Note_off_c, 4, 64, 64
1, 13983, Note_off_c, 4, 67, 64
1, 13983, Note_off_c, 4, 60, 64
1, 13984, Note_on_c, 4, 67, 57
1, 13984, Note_on_c, 4, 60, 56
1, 13984, Note_on_c, 4, 64, 63
1, 13988, Note_off_c, 0, 60, 64
1, 13991, Note_off_c, 0, 55, 64
1, 13992, Note_off_c, 0, 48, 64
1, 14010, Note_off_c, 1, 36, 64
1, 14012, Lyric_t, "skin "
1, 14012, Note_on_c, 3, 69, 111
1, 14013, Note_on_c, 9, 35, 103
1, 14014, Note_off_c, 9, 35, 64
1, 14014, Note_on_c, 9, 42, 65
1, 14014, Note_on_c, 1, 29, 100
1, 14014, Note_on_c, 0, 41, 79
1, 14014, Note_on_c, 0, 62, 101
1, 14014, Note_on_c, 0, 53, 101
1, 14014, Note_on_c, 0, 57, 101
1, 14015, Note_off_c, 4, 64, 64
1, 14015, Note_off_c, 4, 60, 64
1, 14015, Note_off_c, 4, 67, 64
1, 14015, Note_off_c, 9, 42, 64
1, 14016, Note_on_c, 4, 60, 68
1, 14016, Note_on_c, 4, 65, 67
1, 14016, Note_on_c, 4, 69, 78
1, 14022, Note_off_c, 3, 67, 64
1, 14070, Lyric_t, "deep, "
1, 14070, Lyric_t, "\015"
1, 14070, Note_on_c, 3, 72, 111
1, 14074, Note_off_c, 0, 62, 64
1, 14075, Note_on_c, 0, 60, 89
1, 14076, Note_off_c, 3, 69, 64
1, 14077, Note_on_c, 9, 42, 61
1, 14078, Note_off_c, 9, 42, 64
1, 14079, Note_off_c, 4, 69, 64
1, 14079, Note_off_c, 4, 65, 64
1, 14080, Note_off_c, 4, 60, 64
1, 14080, Note_on_c, 4, 69, 68
1, 14080, Note_on_c, 4, 65, 57
1, 14080, Note_on_c, 4, 72, 77
1, 14082, Note_off_c, 0, 57, 64
1, 14084, Note_off_c, 0, 53, 64
1, 14088, Note_off_c, 0, 60, 64
1, 14104, Note_off_c, 0, 41, 64
1, 14110, Note_on_c, 9, 38, 106
1, 14110, Note_on_c, 9, 42, 70
1, 14110, Note_on_c, 2, 60, 120
1, 14111, Note_off_c, 4, 72, 64
1, 14111, Note_off_c, 4, 65, 64
1, 14111, Note_off_c, 4, 69, 64
1, 14111, Note_off_c, 9, 42, 64
1, 14111, Note_off_c, 9, 38, 64
1, 14112, Note_on_c, 2, 65, 120
1, 14112, Note_on_c, 2, 69, 120
1, 14114, Note_off_c, 1, 29, 64
1, 14119, Note_off_c, 3, 72, 64
1, 14140, Note_off_c, 2, 60, 64
1, 14146, Note_off_c, 2, 69, 64
1, 14148, Note_off_c, 2, 65, 64
1, 14173, Note_on_c, 9, 42, 63
1, 14174, Note_off_c, 9, 42, 64
1, 14175, Note_on_c, 9, 35, 98
1, 14176, Note_off_c, 9, 35, 64
1, 14201, Lyric_t, "oh "
1, 14201, Note_on_c, 3, 67, 111
1, 14205, Note_on_c, 0, 43, 96
1, 14205, Note_on_c, 0, 59, 96
1, 14205, Note_on_c, 0, 62, 94
1, 14205, Note_on_c, 0, 67, 92
1, 14205, Note_on_c, 8, 59, 95
1, 14206, Note_on_c, 9, 42, 62
1, 14206, Note_on_c, 9, 35, 104
1, 14206, Note_on_c, 8, 67, 95
1, 14207, Note_off_c, 9, 35, 64
1, 14207, Note_off_c, 9, 42, 64
1, 14208, Note_on_c, 4, 67, 67
1, 14208, Note_on_c, 4, 64, 72
1, 14208, Note_on_c, 1, 31, 111
1, 14209, Note_on_c, 7, 79, 114
1, 14241, Note_off_c, 8, 67, 64
1, 14242, Note_off_c, 8, 59, 64
1, 14243, Note_off_c, 7, 79, 64
1, 14249, Note_off_c, 0, 67, 64
1, 14251, Note_off_c, 0, 62, 64
1, 14252, Note_off_c, 0, 59, 64
1, 14253, Note_off_c, 0, 43, 64
1, 14265, Note_off_c, 1, 31, 64
1, 14266, Note_on_c, 3, 69, 106
1, 14269, Note_on_c, 9, 42, 66
1, 14270, Note_off_c, 9, 42, 64
1, 14270, Note_on_c, 0, 59, 92
1, 14270, Note_on_c, 0, 62, 97
1, 14270, Note_on_c, 0, 67, 90
1, 14270, Note_on_c, 8, 67, 97
1, 14271, Note_on_c, 0, 43, 101
1, 14271, Note_on_c, 8, 59, 97
1, 14272, Note_off_c, 4, 64, 64
1, 14272, Note_off_c, 4, 67, 64
1, 14272, Note_on_c, 4, 69, 60
1, 14272, Note_on_c, 4, 65, 64
1, 14273, Note_off_c, 3, 67, 64
1, 14273, Note_on_c, 7, 79, 114
1, 14274, Note_on_c, 1, 31, 108
1, 14295, Note_off_c, 0, 67, 64
1, 14298, Note_off_c, 0, 62, 64
1, 14301, Note_off_c, 0, 59, 64
1, 14302, Note_on_c, 9, 38, 120
1, 14302, Note_on_c, 9, 42, 72
1, 14303, Note_off_c, 9, 42, 64
1, 14303, Note_off_c, 9, 38, 64
1, 14303, Note_on_c, 2, 60, 120
1, 14303, Note_on_c, 2, 65, 120
1, 14304, Note_on_c, 2, 69, 120
1, 14306, Note_off_c, 7, 79, 64
1, 14308, Note_off_c, 0, 43, 64
1, 14310, Note_off_c, 8, 67, 64
1, 14312, Note_off_c, 8, 59, 64
1, 14323, Note_off_c, 1, 31, 64
1, 14330, Note_off_c, 2, 60, 64
1, 14336, Note_off_c, 4, 65, 64
1, 14336, Note_off_c, 4, 69, 64
1, 14336, Note_on_c, 4, 64, 50
1, 14336, Note_on_c, 4, 67, 52
1, 14336, Note_off_c, 2, 69, 64
1, 14340, Note_off_c, 2, 65, 64
1, 14342, Note_off_c, 3, 69, 64
1, 14355, Lyric_t, "yeah, "
1, 14355, Note_on_c, 3, 67, 103
1, 14363, Note_on_c, 7, 84, 114
1, 14365, Note_on_c, 0, 64, 98
1, 14365, Note_on_c, 0, 60, 97
1, 14365, Note_on_c, 0, 55, 103
1, 14365, Note_on_c, 8, 64, 114
1, 14365, Note_on_c, 8, 72, 127
1, 14366, Note_on_c, 9, 42, 64
1, 14366, Note_on_c, 0, 48, 89
1, 14367, Note_off_c, 4, 67, 64
1, 14367, Note_off_c, 4, 64, 64
1, 14367, Note_off_c, 9, 42, 64
1, 14367, Note_on_c, 1, 36, 114
1, 14368, Note_on_c, 4, 65, 55
1, 14368, Note_on_c, 4, 62, 63
1, 14372, Note_on_c, 3, 65, 102
1, 14383, Note_off_c, 3, 67, 64
1, 14399, Note_on_c, 3, 64, 101
1, 14399, Note_off_c, 4, 62, 64
1, 14399, Note_off_c, 4, 65, 64
1, 14399, Note_on_c, 9, 42, 66
1, 14399, Note_on_c, 9, 35, 106
1, 14400, Note_on_c, 4, 64, 60
1, 14400, Note_on_c, 4, 60, 63
1, 14400, Note_off_c, 9, 35, 64
1, 14400, Note_off_c, 9, 42, 64
1, 14404, Note_off_c, 8, 72, 64
1, 14405, Note_off_c, 3, 65, 64
1, 14408, Note_off_c, 8, 64, 64
1, 14410, Note_off_c, 7, 84, 64
1, 14450, Note_off_c, 3, 64, 64
1, 14451, Note_off_c, 1, 36, 64
1, 14458, Lyric_t, "oh, "
1, 14458, Note_on_c, 3, 64, 115
1, 14460, Note_on_c, 7, 69, 66
1, 14462, Note_on_c, 7, 81, 106
1, 14465, Note_on_c, 9, 42, 66
1, 14466, Note_off_c, 9, 42, 64
1, 14477, Note_off_c, 7, 69, 64
1, 14479, Note_off_c, 7, 81, 64
1, 14493, Note_on_c, 7, 84, 102
1, 14493, Note_on_c, 7, 72, 73
1, 14494, Note_on_c, 9, 38, 110
1, 14494, Note_on_c, 2, 64, 120
1, 14495, Note_off_c, 9, 38, 64
1, 14495, Note_on_c, 2, 67, 120
1, 14496, Note_off_c, 4, 60, 64
1, 14496, Note_off_c, 4, 64, 64
1, 14496, Note_on_c, 2, 72, 120
1, 14497, Note_on_c, 9, 42, 63
1, 14498, Note_off_c, 9, 42, 64
1, 14502, Note_off_c, 0, 60, 64
1, 14504, Note_off_c, 0, 64, 64
1, 14504, Note_off_c, 0, 55, 64
1, 14506, Note_off_c, 7, 72, 64
1, 14506, Note_off_c, 7, 84, 64
1, 14508, Note_off_c, 0, 48, 64
1, 14523, Note_on_c, 7, 84, 90
1, 14524, Note_on_c, 7, 72, 73
1, 14530, Note_off_c, 2, 72, 64
1, 14530, Note_off_c, 2, 67, 64
1, 14534, Note_off_c, 2, 64, 64
1, 14541, Note_off_c, 7, 72, 64
1, 14541, Note_off_c, 7, 84, 64
1, 14554, Note_on_c, 7, 81, 98
1, 14556, Note_off_c, 3, 64, 64
1, 14556, Note_on_c, 7, 69, 67
1, 14558, Lyric_t, "babe, "
1, 14558, Lyric_t, "\015"
1, 14558, Note_on_c, 3, 64, 115
1, 14560, Note_on_c, 9, 42, 68
1, 14561, Note_off_c, 9, 42, 64
1, 14573, Note_off_c, 7, 69, 64
1, 14573, Note_off_c, 7, 81, 64
1, 14586, Note_on_c, 7, 72, 84
1, 14587, Note_on_c, 7, 84, 110
1, 14589, Note_on_c, 9, 35, 110
1, 14590, Note_off_c, 9, 35, 64
1, 14592, Note_off_c, 3, 64, 64
1, 14592, Note_on_c, 9, 42, 71
1, 14593, Note_off_c, 9, 42, 64
1, 14601, Note_off_c, 7, 84, 64
1, 14601, Note_off_c, 7, 72, 64
1, 14618, Note_on_c, 7, 84, 95
1, 14619, Note_on_c, 7, 72, 87
1, 14635, Note_off_c, 7, 84, 64
1, 14637, Note_off_c, 7, 72, 64
1, 14649, Note_on_c, 7, 81, 95
1, 14650, Note_on_c, 7, 69, 72
1, 14655, Note_on_c, 9, 42, 60
1, 14656, Note_off_c, 9, 42, 64
1, 14668, Note_off_c, 7, 69, 64
1, 14668, Note_off_c, 7, 81, 64
1, 14682, Note_on_c, 7, 84, 108
1, 14683, Note_on_c, 7, 72, 86
1, 14686, Note_on_c, 9, 38, 109
1, 14687, Note_off_c, 9, 38, 64
1, 14688, Note_on_c, 9, 42, 69
1, 14689, Note_off_c, 9, 42, 64
1, 14698, Note_off_c, 7, 72, 64
1, 14698, Note_off_c, 7, 84, 64
1, 14714, Note_on_c, 7, 84, 91
1, 14715, Note_on_c, 7, 72, 83
1, 14732, Note_off_c, 7, 72, 64
1, 14733, Note_off_c, 7, 84, 64
1, 14745, Note_on_c, 7, 81, 95
1, 14746, Note_on_c, 7, 69, 71
1, 14751, Note_on_c, 9, 42, 63
1, 14752, Note_off_c, 9, 42, 64
1, 14764, Note_off_c, 7, 69, 64
1, 14767, Note_off_c, 7, 81, 64
1, 14778, Note_on_c, 7, 72, 88
1, 14779, Note_on_c, 7, 84, 120
1, 14782, Note_on_c, 9, 35, 107
1, 14783, Note_off_c, 9, 35, 64
1, 14785, Note_on_c, 9, 42, 71
1, 14786, Note_off_c, 9, 42, 64
1, 14797, Note_off_c, 7, 72, 64
1, 14801, Note_off_c, 7, 84, 64
1, 14840, Lyric_t, "oh "
1, 14840, Note_on_c, 3, 62, 106
1, 14846, Note_on_c, 9, 42, 60
1, 14847, Note_off_c, 9, 42, 64
1, 14879, Note_on_c, 9, 38, 112
1, 14880, Note_off_c, 9, 38, 64
1, 14880, Note_on_c, 9, 42, 71
1, 14881, Note_off_c, 9, 42, 64
1, 14935, Lyric_t, "yeah, "
1, 14935, Note_off_c, 3, 62, 64
1, 14935, Note_on_c, 3, 60, 101
1, 14945, Note_on_c, 9, 42, 60
1, 14946, Note_off_c, 9, 42, 64
1, 14968, Note_off_c, 3, 60, 64
1, 14973, Note_on_c, 0, 41, 92
1, 14974, Note_on_c, 0, 65, 90
1, 14974, Note_on_c, 0, 57, 92
1, 14974, Note_on_c, 0, 60, 97
1, 14975, Note_on_c, 9, 42, 70
1, 14975, Note_on_c, 9, 35, 110
1, 14976, Note_on_c, 4, 69, 50
1, 14976, Note_on_c, 4, 65, 53
1, 14976, Note_on_c, 4, 60, 60
1, 14976, Note_off_c, 9, 35, 64
1, 14976, Note_off_c, 9, 42, 64
1, 14976, Note_on_c, 1, 29, 111
1, 14976, Note_on_c, 2, 60, 120
1, 14977, Note_on_c, 2, 65, 120
1, 14978, Note_on_c, 2, 69, 120
1, 14981, Lyric_t, "oh "
1, 14981, Note_on_c, 3, 69, 106
1, 15022, Note_off_c, 0, 57, 64
1, 15022, Note_off_c, 0, 65, 64
1, 15024, Note_off_c, 0, 60, 64
1, 15025, Note_off_c, 0, 41, 64
1, 15029, Note_off_c, 1, 29, 64
1, 15036, Note_on_c, 0, 41, 86
1, 15037, Note_off_c, 2, 65, 64
1, 15038, Note_on_c, 0, 65, 94
1, 15038, Note_on_c, 0, 60, 100
1, 15038, Note_on_c, 0, 57, 93
1, 15039, Note_on_c, 9, 42, 66
1, 15040, Note_off_c, 9, 42, 64
1, 15040, Note_on_c, 2, 65, 120
1, 15041, Note_on_c, 1, 29, 106
1, 15071, Note_on_c, 9, 38, 118
1, 15072, Note_off_c, 9, 38, 64
1, 15072, Note_on_c, 9, 42, 70
1, 15073, Note_off_c, 9, 42, 64
1, 15082, Note_off_c, 0, 41, 64
1, 15084, Note_off_c, 0, 65, 64
1, 15086, Note_off_c, 0, 60, 64
1, 15086, Note_off_c, 0, 57, 64
1, 15091, Note_off_c, 1, 29, 64
1, 15097, Note_off_c, 2, 60, 64
1, 15100, Note_off_c, 2, 69, 64
1, 15101, Note_on_c, 0, 41, 110
1, 15101, Note_on_c, 0, 65, 93
1, 15101, Note_on_c, 0, 60, 103
1, 15101, Note_on_c, 0, 57, 97
1, 15101, Note_on_c, 2, 60, 120
1, 15103, Note_on_c, 2, 72, 120
1, 15105, Note_on_c, 1, 29, 104
1, 15130, Note_off_c, 3, 69, 64
1, 15131, Lyric_t, "yeah, "
1, 15131, Note_on_c, 3, 67, 104
1, 15135, Note_off_c, 4, 60, 64
1, 15136, Note_off_c, 4, 65, 64
1, 15136, Note_off_c, 4, 69, 64
1, 15136, Note_on_c, 4, 64, 44
1, 15136, Note_on_c, 4, 67, 46
1, 15136, Note_on_c, 4, 60, 50
1, 15136, Note_on_c, 9, 42, 66
1, 15137, Note_off_c, 9, 42, 64
1, 15146, Note_off_c, 0, 57, 64
1, 15148, Note_off_c, 0, 60, 64
1, 15148, Note_off_c, 0, 65, 64
1, 15158, Note_off_c, 0, 41, 64
1, 15159, Note_off_c, 2, 60, 64
1, 15161, Note_off_c, 1, 29, 64
1, 15163, Note_off_c, 2, 72, 64
1, 15164, Note_off_c, 2, 65, 64
1, 15165, Note_on_c, 2, 60, 120
1, 15166, Note_on_c, 1, 36, 112
1, 15166, Note_on_c, 0, 48, 96
1, 15166, Note_on_c, 0, 55, 106
1, 15166, Note_on_c, 0, 60, 103
1, 15166, Note_on_c, 2, 64, 120
1, 15166, Note_on_c, 2, 67, 120
1, 15167, Note_on_c, 0, 64, 98
1, 15168, Note_on_c, 9, 35, 109
1, 15169, Note_off_c, 9, 35, 64
1, 15169, Note_on_c, 9, 42, 68
1, 15170, Note_off_c, 9, 42, 64
1, 15230, Note_on_c, 7, 69, 80
1, 15231, Note_on_c, 9, 42, 66
1, 15232, Note_off_c, 9, 42, 64
1, 15234, Note_on_c, 7, 81, 88
1, 15246, Note_off_c, 7, 69, 64
1, 15248, Note_off_c, 7, 81, 64
1, 15262, Note_on_c, 9, 38, 120
1, 15262, Note_on_c, 7, 72, 86
1, 15263, Note_off_c, 9, 38, 64
1, 15263, Note_on_c, 9, 42, 74
1, 15264, Note_off_c, 9, 42, 64
1, 15264, Note_on_c, 7, 84, 94
1, 15276, Note_off_c, 7, 72, 64
1, 15278, Note_off_c, 7, 84, 64
1, 15294, Note_on_c, 7, 84, 91
1, 15294, Note_on_c, 7, 72, 80
1, 15310, Note_off_c, 7, 72, 64
1, 15310, Note_off_c, 7, 84, 64
1, 15323, Note_on_c, 7, 69, 66
1, 15325, Note_on_c, 7, 81, 94
1, 15326, Note_on_c, 9, 42, 66
1, 15327, Note_off_c, 9, 42, 64
1, 15343, Note_off_c, 7, 69, 64
1, 15345, Note_off_c, 7, 81, 64
1, 15354, Note_on_c, 7, 72, 87
1, 15356, Note_on_c, 7, 84, 110
1, 15359, Note_on_c, 9, 42, 67
1, 15359, Note_on_c, 9, 35, 108
1, 15360, Note_off_c, 3, 67, 64
1, 15360, Note_off_c, 4, 60, 64
1, 15360, Note_off_c, 4, 67, 64
1, 15360, Note_off_c, 4, 64, 64
1, 15360, Note_off_c, 9, 35, 64
1, 15360, Note_off_c, 9, 42, 64
1, 15371, Note_off_c, 7, 72, 64
1, 15372, Note_off_c, 7, 84, 64
1, 15386, Note_on_c, 7, 72, 81
1, 15388, Note_on_c, 7, 84, 95
1, 15404, Note_off_c, 7, 72, 64
1, 15405, Note_off_c, 7, 84, 64
1, 15418, Note_on_c, 7, 69, 79
1, 15418, Note_on_c, 7, 81, 102
1, 15422, Note_on_c, 9, 42, 59
1, 15423, Note_off_c, 9, 42, 64
1, 15436, Note_off_c, 7, 69, 64
1, 15440, Note_off_c, 7, 81, 64
1, 15450, Note_on_c, 7, 72, 90
1, 15452, Note_on_c, 7, 84, 120
1, 15454, Note_on_c, 9, 38, 112
1, 15455, Note_off_c, 9, 38, 64
1, 15455, Note_on_c, 9, 42, 69
1, 15456, Note_off_c, 9, 42, 64
1, 15467, Note_off_c, 7, 84, 64
1, 15467, Note_off_c, 7, 72, 64
1, 15482, Note_on_c, 7, 72, 83
1, 15482, Note_on_c, 7, 84, 98
1, 15501, Note_off_c, 7, 84, 64
1, 15502, Note_off_c, 7, 72, 64
1, 15514, Note_on_c, 7, 69, 86
1, 15515, Note_on_c, 7, 81, 110
1, 15519, Note_on_c, 9, 42, 58
1, 15520, Note_off_c, 9, 42, 64
1, 15535, Note_off_c, 7, 69, 64
1, 15541, Note_off_c, 7, 81, 64
1, 15547, Note_on_c, 7, 72, 90
1, 15549, Note_on_c, 7, 84, 117
1, 15550, Note_on_c, 9, 42, 66
1, 15550, Note_on_c, 9, 35, 108
1, 15551, Note_off_c, 9, 35, 64
1, 15551, Note_off_c, 9, 42, 64
1, 15566, Note_off_c, 7, 72, 64
1, 15569, Note_off_c, 7, 84, 64
1, 15613, Note_on_c, 9, 42, 59
1, 15614, Note_off_c, 9, 42, 64
1, 15644, Note_on_c, 9, 38, 108
1, 15645, Note_off_c, 9, 38, 64
1, 15646, Note_on_c, 9, 42, 68
1, 15647, Note_off_c, 9, 42, 64
1, 15649, Note_off_c, 0, 55, 64
1, 15658, Note_off_c, 0, 64, 64
1, 15660, Note_off_c, 0, 60, 64
1, 15671, Note_off_c, 0, 48, 64
1, 15689, Note_off_c, 2, 60, 64
1, 15691, Note_off_c, 2, 67, 64
1, 15692, Note_off_c, 2, 64, 64
1, 15710, Note_on_c, 9, 42, 61
1, 15711, Note_off_c, 9, 42, 64
1, 15736, Note_off_c, 1, 36, 64
1, 15738, Lyric_t, "oh "
1, 15738, Note_on_c, 3, 69, 109
1, 15740, Note_on_c, 0, 65, 96
1, 15740, Note_on_c, 0, 60, 106
1, 15740, Note_on_c, 0, 41, 97
1, 15740, Note_on_c, 0, 57, 104
1, 15740, Note_on_c, 2, 60, 120
1, 15740, Note_on_c, 2, 69, 120
1, 15740, Note_on_c, 2, 65, 120
1, 15741, Note_on_c, 9, 35, 108
1, 15742, Note_off_c, 9, 35, 64
1, 15742, Note_on_c, 9, 42, 68
1, 15742, Note_on_c, 1, 29, 126
1, 15743, Note_off_c, 9, 42, 64
1, 15744, Note_on_c, 4, 65, 51
1, 15744, Note_on_c, 4, 60, 60
1, 15744, Note_on_c, 4, 69, 50
1, 15789, Note_off_c, 0, 41, 64
1, 15792, Note_off_c, 0, 65, 64
1, 15792, Note_off_c, 0, 60, 64
1, 15792, Note_off_c, 0, 57, 64
1, 15794, Note_off_c, 1, 29, 64
1, 15804, Note_on_c, 0, 41, 93
1, 15804, Note_on_c, 0, 65, 93
1, 15804, Note_on_c, 0, 57, 93
1, 15804, Note_on_c, 0, 60, 101
1, 15804, Note_off_c, 2, 65, 64
1, 15805, Note_on_c, 9, 42, 64
1, 15805, Note_off_c, 2, 69, 64
1, 15805, Note_on_c, 2, 65, 120
1, 15806, Note_off_c, 9, 42, 64
1, 15806, Note_on_c, 1, 29, 104
1, 15806, Note_on_c, 2, 69, 120
1, 15836, Note_on_c, 9, 38, 110
1, 15837, Note_off_c, 9, 38, 64
1, 15837, Note_on_c, 9, 42, 71
1, 15838, Note_off_c, 9, 42, 64
1, 15852, Note_off_c, 1, 29, 64
1, 15856, Note_off_c, 0, 60, 64
1, 15856, Note_off_c, 0, 41, 64
1, 15858, Note_off_c, 0, 57, 64
1, 15858, Note_off_c, 0, 65, 64
1, 15865, Note_off_c, 2, 69, 64
1, 15868, Note_on_c, 0, 41, 96
1, 15868, Note_on_c, 0, 57, 98
1, 15868, Note_on_c, 0, 65, 103
1, 15868, Note_on_c, 0, 60, 114
1, 15870, Note_on_c, 1, 29, 111
1, 15870, Note_on_c, 2, 72, 120
1, 15895, Note_off_c, 3, 69, 64
1, 15899, Lyric_t, "yeah. "
1, 15899, Lyric_t, "\015"
1, 15899, Note_on_c, 3, 67, 106
1, 15901, Note_on_c, 9, 42, 68
1, 15902, Note_off_c, 9, 42, 64
1, 15903, Note_off_c, 4, 60, 64
1, 15904, Note_off_c, 4, 69, 64
1, 15904, Note_off_c, 4, 65, 64
1, 15904, Note_on_c, 4, 64, 50
1, 15904, Note_on_c, 4, 67, 52
1, 15904, Note_on_c, 4, 60, 51
1, 15914, Note_off_c, 0, 57, 64
1, 15916, Note_off_c, 0, 60, 64
1, 15920, Note_off_c, 0, 65, 64
1, 15920, Note_off_c, 2, 65, 64
1, 15924, Note_off_c, 0, 41, 64
1, 15926, Note_off_c, 1, 29, 64
1, 15931, Note_on_c, 0, 48, 98
1, 15931, Note_off_c, 2, 72, 64
1, 15932, Note_on_c, 9, 35, 109
1, 15932, Note_on_c, 0, 64, 100
1, 15932, Note_on_c, 0, 60, 108
1, 15932, Note_on_c, 0, 55, 112
1, 15932, Note_off_c, 2, 60, 64
1, 15933, Note_off_c, 9, 35, 64
1, 15933, Note_on_c, 2, 60, 120
1, 15934, Note_on_c, 9, 42, 66
1, 15934, Note_on_c, 2, 64, 120
1, 15935, Note_off_c, 9, 42, 64
1, 15935, Note_on_c, 2, 67, 120
1, 15936, Note_on_c, 1, 36, 101
1, 15996, Note_on_c, 7, 69, 66
1, 15997, Note_on_c, 7, 81, 87
1, 16000, Note_on_c, 9, 42, 66
1, 16001, Note_off_c, 9, 42, 64
1, 16012, Note_off_c, 7, 81, 64
1, 16013, Note_off_c, 7, 69, 64
1, 16029, Note_on_c, 9, 38, 108
1, 16029, Note_on_c, 7, 84, 88
1, 16029, Note_on_c, 7, 72, 71
1, 16030, Note_off_c, 9, 38, 64
1, 16032, Note_on_c, 9, 42, 68
1, 16033, Note_off_c, 9, 42, 64
1, 16041, Note_off_c, 7, 72, 64
1, 16042, Note_off_c, 7, 84, 64
1, 16059, Note_on_c, 7, 84, 83
1, 16060, Note_on_c, 7, 72, 66
1, 16074, Note_off_c, 7, 84, 64
1, 16078, Note_off_c, 7, 72, 64
1, 16090, Note_on_c, 7, 81, 90
1, 16092, Note_on_c, 7, 69, 73
1, 16094, Note_on_c, 9, 42, 61
1, 16095, Note_off_c, 9, 42, 64
1, 16109, Note_off_c, 7, 81, 64
1, 16110, Note_off_c, 7, 69, 64
1, 16122, Note_on_c, 7, 84, 91
1, 16124, Note_off_c, 3, 67, 64
1, 16125, Note_on_c, 9, 35, 107
1, 16125, Note_on_c, 7, 72, 83
1, 16126, Note_off_c, 9, 35, 64
1, 16127, Note_on_c, 9, 42, 69
1, 16128, Note_off_c, 4, 60, 64
1, 16128, Note_off_c, 4, 67, 64
1, 16128, Note_off_c, 4, 64, 64
1, 16128, Note_off_c, 9, 42, 64
1, 16132, Lyric_t, "\012"
1, 16136, Note_off_c, 7, 84, 64
1, 16139, Note_off_c, 7, 72, 64
1, 16154, Note_on_c, 7, 84, 88
1, 16157, Note_on_c, 7, 72, 85
1, 16172, Note_off_c, 7, 84, 64
1, 16175, Note_off_c, 7, 72, 64
1, 16185, Note_on_c, 7, 81, 80
1, 16187, Note_on_c, 7, 69, 72
1, 16192, Note_on_c, 9, 42, 64
1, 16193, Note_off_c, 9, 42, 64
1, 16203, Note_off_c, 7, 81, 64
1, 16206, Note_off_c, 7, 69, 64
1, 16220, Note_on_c, 7, 72, 80
1, 16222, Note_on_c, 9, 38, 109
1, 16222, Note_on_c, 7, 84, 90
1, 16223, Note_off_c, 9, 38, 64
1, 16224, Note_on_c, 9, 42, 68
1, 16225, Note_off_c, 9, 42, 64
1, 16236, Note_off_c, 7, 72, 64
1, 16241, Note_off_c, 7, 84, 64
1, 16253, Note_on_c, 7, 72, 83
1, 16253, Note_on_c, 7, 84, 83
1, 16271, Note_off_c, 7, 84, 64
1, 16272, Note_off_c, 7, 72, 64
1, 16284, Note_on_c, 7, 81, 100
1, 16284, Note_on_c, 7, 69, 95
1, 16286, Note_on_c, 9, 42, 63
1, 16287, Note_off_c, 9, 42, 64
1, 16301, Note_off_c, 7, 69, 64
1, 16304, Note_off_c, 7, 81, 64
1, 16318, Note_on_c, 9, 42, 71
1, 16319, Note_off_c, 9, 42, 64
1, 16320, Note_on_c, 9, 35, 106
1, 16321, Note_off_c, 9, 35, 64
1, 16383, Note_on_c, 9, 42, 65
1, 16384, Note_off_c, 9, 42, 64
1, 16388, Note_off_c, 0, 64, 64
1, 16390, Note_off_c, 0, 60, 64
1, 16391, Note_off_c, 0, 55, 64
1, 16406, Note_off_c, 0, 48, 64
1, 16413, Note_off_c, 2, 67, 64
1, 16415, Note_on_c, 9, 38, 110
1, 16415, Note_on_c, 9, 42, 71
1, 16415, Note_off_c, 2, 60, 64
1, 16416, Note_off_c, 9, 42, 64
1, 16416, Note_off_c, 9, 38, 64
1, 16416, Note_off_c, 2, 64, 64
1, 16476, Note_on_c, 0, 43, 94
1, 16479, Note_on_c, 9, 42, 61
1, 16480, Note_off_c, 9, 42, 64
1, 16506, Note_off_c, 1, 36, 64
1, 16509, Lyric_t, "Beau"
1, 16509, Note_on_c, 3, 64, 109
1, 16510, Note_on_c, 0, 64, 106
1, 16510, Note_on_c, 0, 55, 103
1, 16511, Note_on_c, 9, 42, 68
1, 16511, Note_on_c, 9, 35, 109
1, 16511, Note_on_c, 0, 60, 96
1, 16511, Note_on_c, 0, 48, 93
1, 16512, Note_on_c, 4, 67, 64
1, 16512, Note_on_c, 4, 60, 75
1, 16512, Note_on_c, 4, 64, 71
1, 16512, Note_off_c, 9, 35, 64
1, 16512, Note_off_c, 9, 42, 64
1, 16512, Note_on_c, 1, 36, 106
1, 16524, Note_off_c, 0, 43, 64
1, 16566, Note_off_c, 3, 64, 64
1, 16572, Lyric_t, "ty's "
1, 16572, Note_on_c, 3, 64, 107
1, 16575, Note_off_c, 4, 64, 64
1, 16575, Note_off_c, 4, 60, 64
1, 16575, Note_off_c, 4, 67, 64
1, 16576, Note_on_c, 4, 67, 56
1, 16576, Note_on_c, 4, 64, 63
1, 16576, Note_on_c, 4, 60, 72
1, 16576, Note_on_c, 9, 42, 67
1, 16576, Note_on_c, 9, 64, 45
1, 16577, Note_off_c, 9, 42, 64
1, 16577, Note_off_c, 9, 64, 64
1, 16600, Note_off_c, 3, 64, 64
1, 16601, Lyric_t, "on"
1, 16601, Note_on_c, 3, 64, 100
1, 16606, Note_on_c, 9, 38, 108
1, 16606, Note_on_c, 2, 64, 120
1, 16606, Note_on_c, 2, 67, 120
1, 16606, Note_on_c, 8, 55, 78
1, 16606, Note_on_c, 8, 64, 86
1, 16606, Note_on_c, 8, 60, 83
1, 16607, Note_off_c, 4, 60, 64
1, 16607, Note_off_c, 4, 64, 64
1, 16607, Note_off_c, 4, 67, 64
1, 16607, Note_off_c, 9, 38, 64
1, 16607, Note_on_c, 2, 72, 120
1, 16607, Note_on_c, 7, 76, 97
1, 16607, Note_on_c, 9, 62, 109
1, 16608, Note_on_c, 4, 67, 52
1, 16608, Note_on_c, 4, 64, 60
1, 16608, Note_on_c, 4, 60, 80
1, 16608, Note_off_c, 9, 62, 64
1, 16610, Note_on_c, 9, 42, 71
1, 16611, Note_off_c, 9, 42, 64
1, 16620, Note_off_c, 0, 48, 64
1, 16640, Note_off_c, 2, 72, 64
1, 16642, Note_off_c, 2, 67, 64
1, 16646, Note_off_c, 2, 64, 64
1, 16648, Note_off_c, 7, 76, 64
1, 16654, Note_off_c, 8, 60, 64
1, 16661, Note_off_c, 1, 36, 64
1, 16663, Note_on_c, 0, 48, 104
1, 16666, Note_off_c, 8, 64, 64
1, 16667, Note_off_c, 0, 55, 64
1, 16668, Note_off_c, 0, 64, 64
1, 16669, Note_off_c, 0, 60, 64
1, 16669, Note_on_c, 7, 72, 100
1, 16669, Note_on_c, 8, 60, 68
1, 16670, Note_off_c, 3, 64, 64
1, 16671, Lyric_t, "ly "
1, 16671, Note_on_c, 3, 60, 102
1, 16671, Note_off_c, 4, 60, 64
1, 16671, Note_off_c, 4, 64, 64
1, 16671, Note_off_c, 4, 67, 64
1, 16671, Note_on_c, 9, 64, 45
1, 16672, Note_on_c, 4, 67, 50
1, 16672, Note_on_c, 4, 64, 57
1, 16672, Note_on_c, 4, 60, 74
1, 16672, Note_on_c, 1, 29, 101
1, 16672, Note_off_c, 9, 64, 64
1, 16673, Note_on_c, 9, 42, 66
1, 16674, Note_off_c, 9, 42, 64
1, 16677, Note_off_c, 8, 55, 64
1, 16681, Note_off_c, 8, 60, 64
1, 16700, Note_on_c, 0, 41, 97
1, 16701, Note_on_c, 0, 62, 104
1, 16701, Note_on_c, 0, 57, 103
1, 16701, Note_on_c, 0, 53, 101
1, 16702, Note_off_c, 0, 48, 64
1, 16703, Note_off_c, 4, 60, 64
1, 16703, Note_off_c, 4, 64, 64
1, 16703, Note_off_c, 4, 67, 64
1, 16703, Note_on_c, 8, 62, 70
1, 16703, Note_on_c, 9, 64, 45
1, 16704, Note_on_c, 4, 65, 72
1, 16704, Note_on_c, 4, 62, 80
1, 16704, Note_on_c, 4, 57, 71
1, 16704, Note_on_c, 9, 35, 102
1, 16704, Note_on_c, 7, 74, 98
1, 16704, Note_on_c, 8, 53, 69
1, 16704, Note_on_c, 8, 57, 72
1, 16704, Note_off_c, 9, 64, 64
1, 16705, Note_off_c, 3, 60, 64
1, 16705, Note_off_c, 9, 35, 64
1, 16706, Lyric_t, "skin "
1, 16706, Note_on_c, 3, 62, 112
1, 16706, Note_on_c, 9, 42, 67
1, 16706, Note_off_c, 7, 72, 64
1, 16707, Note_off_c, 9, 42, 64
1, 16755, Note_off_c, 8, 62, 64
1, 16760, Note_on_c, 0, 60, 91
1, 16762, Note_off_c, 8, 53, 64
1, 16765, Lyric_t, "deep, "
1, 16765, Note_off_c, 3, 62, 64
1, 16765, Note_on_c, 3, 60, 107
1, 16765, Note_off_c, 0, 62, 64
1, 16765, Note_off_c, 7, 74, 64
1, 16765, Note_on_c, 8, 60, 88
1, 16767, Note_off_c, 4, 57, 64
1, 16767, Note_off_c, 4, 65, 64
1, 16767, Note_on_c, 7, 72, 88
1, 16767, Note_on_c, 9, 64, 42
1, 16768, Note_off_c, 4, 62, 64
1, 16768, Note_on_c, 4, 65, 56
1, 16768, Note_on_c, 4, 57, 56
1, 16768, Note_on_c, 4, 60, 77
1, 16768, Note_off_c, 9, 64, 64
1, 16769, Note_on_c, 9, 42, 63
1, 16770, Note_off_c, 9, 42, 64
1, 16771, Note_off_c, 8, 57, 64
1, 16777, Note_off_c, 8, 60, 64
1, 16778, Note_off_c, 0, 57, 64
1, 16779, Note_off_c, 0, 41, 64
1, 16780, Note_off_c, 0, 53, 64
1, 16785, Note_off_c, 0, 60, 64
1, 16798, Note_on_c, 9, 38, 112
1, 16799, Note_off_c, 4, 60, 64
1, 16799, Note_off_c, 4, 57, 64
1, 16799, Note_off_c, 4, 65, 64
1, 16799, Note_off_c, 9, 38, 64
1, 16799, Note_on_c, 9, 63, 110
1, 16800, Note_on_c, 2, 60, 120
1, 16800, Note_off_c, 7, 72, 64
1, 16800, Note_off_c, 9, 63, 64
1, 16801, Note_on_c, 2, 65, 120
1, 16802, Note_on_c, 9, 42, 66
1, 16802, Note_on_c, 2, 69, 120
1, 16803, Note_off_c, 9, 42, 64
1, 16808, Note_off_c, 3, 60, 64
1, 16828, Note_off_c, 2, 60, 64
1, 16832, Note_off_c, 2, 69, 64
1, 16836, Note_off_c, 2, 65, 64
1, 16850, Note_off_c, 1, 29, 64
1, 16861, Note_on_c, 1, 33, 109
1, 16862, Note_on_c, 9, 63, 101
1, 16863, Note_off_c, 9, 63, 64
1, 16864, Note_on_c, 9, 42, 64
1, 16865, Note_off_c, 9, 42, 64
1, 16865, Note_on_c, 9, 35, 97
1, 16866, Note_off_c, 9, 35, 64
1, 16892, Note_on_c, 0, 43, 86
1, 16892, Note_on_c, 7, 79, 114
1, 16893, Note_on_c, 1, 31, 99
1, 16894, Note_off_c, 1, 33, 64
1, 16894, Note_on_c, 0, 59, 101
1, 16894, Note_on_c, 0, 62, 98
1, 16894, Note_on_c, 0, 67, 97
1, 16896, Note_on_c, 4, 55, 72
1, 16896, Note_on_c, 4, 62, 61
1, 16896, Note_on_c, 4, 59, 56
1, 16896, Note_on_c, 9, 35, 104
1, 16897, Lyric_t, "yeah, "
1, 16897, Note_on_c, 3, 55, 115
1, 16897, Note_off_c, 9, 35, 64
1, 16897, Note_on_c, 9, 42, 67
1, 16897, Note_on_c, 8, 59, 83
1, 16897, Note_on_c, 8, 67, 84
1, 16898, Note_off_c, 9, 42, 64
1, 16929, Note_off_c, 8, 67, 64
1, 16929, Note_off_c, 8, 59, 64
1, 16931, Note_off_c, 7, 79, 64
1, 16941, Note_off_c, 0, 67, 64
1, 16941, Note_off_c, 0, 62, 64
1, 16942, Note_off_c, 0, 59, 64
1, 16952, Note_off_c, 0, 43, 64
1, 16953, Lyric_t, "yeah, "
1, 16953, Note_off_c, 3, 55, 64
1, 16953, Note_on_c, 3, 57, 108
1, 16957, Note_on_c, 1, 33, 112
1, 16957, Note_on_c, 0, 69, 86
1, 16957, Note_on_c, 0, 65, 86
1, 16957, Note_on_c, 0, 60, 97
1, 16957, Note_on_c, 0, 45, 87
1, 16957, Note_on_c, 7, 81, 110
1, 16958, Note_on_c, 9, 64, 49
1, 16959, Note_on_c, 9, 42, 63
1, 16959, Note_on_c, 8, 69, 91
1, 16959, Note_on_c, 8, 60, 95
1, 16959, Note_off_c, 9, 64, 64
1, 16960, Note_off_c, 4, 59, 64
1, 16960, Note_off_c, 4, 62, 64
1, 16960, Note_off_c, 4, 55, 64
1, 16960, Note_on_c, 4, 57, 66
1, 16960, Note_on_c, 4, 60, 74
1, 16960, Note_on_c, 4, 65, 66
1, 16960, Note_off_c, 9, 42, 64
1, 16965, Note_off_c, 1, 31, 64
1, 16988, Note_off_c, 0, 65, 64
1, 16990, Note_on_c, 9, 38, 110
1, 16990, Note_off_c, 8, 60, 64
1, 16991, Note_off_c, 9, 38, 64
1, 16991, Note_on_c, 9, 42, 69
1, 16991, Note_on_c, 2, 60, 120
1, 16991, Note_on_c, 2, 65, 120
1, 16992, Note_off_c, 9, 42, 64
1, 16992, Note_off_c, 0, 60, 64
1, 16992, Note_on_c, 9, 62, 106
1, 16993, Note_on_c, 2, 69, 120
1, 16993, Note_off_c, 9, 62, 64
1, 16994, Note_off_c, 0, 69, 64
1, 16995, Note_off_c, 7, 81, 64
1, 16995, Note_off_c, 8, 69, 64
1, 17003, Note_off_c, 1, 33, 64
1, 17010, Note_off_c, 0, 45, 64
1, 17019, Note_off_c, 2, 60, 64
1, 17020, Note_off_c, 2, 69, 64
1, 17027, Note_off_c, 2, 65, 64
1, 17047, Note_on_c, 0, 48, 96
1, 17048, Note_on_c, 0, 60, 98
1, 17048, Note_on_c, 0, 55, 90
1, 17049, Lyric_t, "yeah, "
1, 17049, Lyric_t, "\015"
1, 17049, Note_on_c, 3, 60, 112
1, 17049, Note_on_c, 0, 64, 98
1, 17052, Note_on_c, 7, 84, 114
1, 17053, Note_on_c, 1, 36, 122
1, 17053, Note_on_c, 8, 72, 106
1, 17053, Note_on_c, 8, 64, 98
1, 17053, Note_on_c, 9, 64, 49
1, 17054, Note_off_c, 9, 64, 64
1, 17055, Note_off_c, 4, 60, 64
1, 17055, Note_on_c, 9, 42, 64
1, 17056, Note_off_c, 3, 57, 64
1, 17056, Note_off_c, 4, 65, 64
1, 17056, Note_off_c, 4, 57, 64
1, 17056, Note_on_c, 4, 60, 70
1, 17056, Note_on_c, 4, 67, 63
1, 17056, Note_on_c, 4, 64, 71
1, 17056, Note_off_c, 9, 42, 64
1, 17086, Note_on_c, 9, 64, 52
1, 17087, Note_off_c, 9, 64, 64
1, 17088, Note_on_c, 9, 42, 66
1, 17088, Note_on_c, 9, 35, 102
1, 17089, Note_off_c, 9, 35, 64
1, 17089, Note_off_c, 9, 42, 64
1, 17091, Note_off_c, 8, 64, 64
1, 17092, Note_off_c, 8, 72, 64
1, 17098, Note_off_c, 7, 84, 64
1, 17108, Note_off_c, 3, 60, 64
1, 17137, Note_off_c, 1, 36, 64
1, 17149, Note_on_c, 1, 31, 111
1, 17149, Note_on_c, 9, 64, 54
1, 17150, Note_on_c, 9, 42, 61
1, 17150, Note_off_c, 9, 64, 64
1, 17151, Note_off_c, 9, 42, 64
1, 17152, Note_off_c, 4, 64, 64
1, 17152, Note_off_c, 4, 67, 64
1, 17152, Note_off_c, 4, 60, 64
1, 17175, Note_off_c, 0, 48, 64
1, 17177, Note_off_c, 0, 55, 64
1, 17181, Note_off_c, 0, 60, 64
1, 17182, Note_on_c, 9, 38, 110
1, 17182, Note_on_c, 1, 33, 101
1, 17183, Note_off_c, 9, 38, 64
1, 17183, Note_on_c, 9, 42, 68
1, 17183, Note_off_c, 0, 64, 64
1, 17183, Note_on_c, 2, 64, 120
1, 17183, Note_on_c, 9, 63, 103
1, 17184, Note_off_c, 9, 42, 64
1, 17184, Note_on_c, 2, 67, 120
1, 17184, Note_off_c, 9, 63, 64
1, 17185, Note_on_c, 2, 72, 120
1, 17190, Note_off_c, 1, 31, 64
1, 17211, Note_off_c, 2, 72, 64
1, 17215, Note_off_c, 2, 67, 64
1, 17219, Note_off_c, 2, 64, 64
1, 17244, Note_off_c, 1, 33, 64
1, 17244, Note_on_c, 9, 63, 97
1, 17245, Note_on_c, 9, 42, 66
1, 17245, Note_on_c, 1, 31, 86
1, 17245, Note_off_c, 9, 63, 64
1, 17246, Note_off_c, 9, 42, 64
1, 17248, Note_on_c, 9, 35, 97
1, 17249, Note_off_c, 9, 35, 64
1, 17249, Note_on_c, 0, 43, 78
1, 17271, Note_off_c, 1, 31, 64
1, 17277, Lyric_t, "beau"
1, 17277, Note_on_c, 3, 64, 116
1, 17277, Note_on_c, 9, 42, 70
1, 17278, Note_off_c, 9, 42, 64
1, 17278, Note_on_c, 7, 76, 110
1, 17278, Note_on_c, 8, 55, 62
1, 17279, Note_on_c, 9, 35, 105
1, 17279, Note_on_c, 1, 36, 109
1, 17280, Note_on_c, 4, 55, 63
1, 17280, Note_on_c, 4, 60, 66
1, 17280, Note_on_c, 4, 64, 72
1, 17280, Note_off_c, 9, 35, 64
1, 17280, Note_on_c, 0, 60, 90
1, 17280, Note_on_c, 0, 64, 90
1, 17280, Note_on_c, 8, 60, 66
1, 17281, Note_on_c, 0, 55, 94
1, 17281, Note_on_c, 0, 48, 101
1, 17281, Note_on_c, 8, 64, 67
1, 17281, Note_on_c, 9, 64, 49
1, 17282, Note_off_c, 9, 64, 64
1, 17285, Note_off_c, 0, 43, 64
1, 17327, Note_off_c, 8, 60, 64
1, 17328, Note_off_c, 8, 64, 64
1, 17329, Note_off_c, 8, 55, 64
1, 17332, Note_off_c, 7, 76, 64
1, 17340, Lyric_t, "ty's "
1, 17340, Note_on_c, 3, 67, 108
1, 17341, Note_on_c, 8, 64, 73
1, 17342, Note_on_c, 9, 42, 64
1, 17342, Note_on_c, 8, 60, 83
1, 17342, Note_on_c, 8, 55, 78
1, 17342, Note_on_c, 9, 64, 53
1, 17343, Note_off_c, 4, 64, 64
1, 17343, Note_off_c, 4, 60, 64
1, 17343, Note_off_c, 9, 42, 64
1, 17343, Note_on_c, 7, 76, 98
1, 17343, Note_off_c, 9, 64, 64
1, 17344, Note_off_c, 4, 55, 64
1, 17344, Note_on_c, 4, 64, 51
1, 17344, Note_on_c, 4, 60, 49
1, 17344, Note_on_c, 4, 67, 63
1, 17346, Note_off_c, 3, 64, 64
1, 17368, Note_off_c, 7, 76, 64
1, 17368, Note_off_c, 8, 60, 64
1, 17368, Note_off_c, 8, 64, 64
1, 17369, Note_off_c, 3, 67, 64
1, 17370, Note_off_c, 8, 55, 64
1, 17373, Note_on_c, 7, 76, 100
1, 17374, Lyric_t, "on"
1, 17374, Note_on_c, 3, 67, 102
1, 17374, Note_on_c, 9, 38, 109
1, 17374, Note_on_c, 9, 42, 67
1, 17374, Note_on_c, 2, 64, 120
1, 17374, Note_on_c, 2, 67, 120
1, 17374, Note_on_c, 2, 72, 120
1, 17375, Note_off_c, 4, 67, 64
1, 17375, Note_off_c, 4, 60, 64
1, 17375, Note_off_c, 4, 64, 64
1, 17375, Note_off_c, 9, 42, 64
1, 17375, Note_off_c, 9, 38, 64
1, 17375, Note_on_c, 8, 64, 108
1, 17376, Note_on_c, 4, 60, 61
1, 17376, Note_on_c, 4, 67, 67
1, 17376, Note_on_c, 4, 64, 80
1, 17376, Note_on_c, 8, 60, 106
1, 17376, Note_on_c, 8, 55, 95
1, 17376, Note_on_c, 9, 62, 110
1, 17377, Note_off_c, 9, 62, 64
1, 17391, Note_off_c, 0, 48, 64
1, 17404, Note_off_c, 2, 72, 64
1, 17404, Note_off_c, 7, 76, 64
1, 17408, Note_off_c, 2, 67, 64
1, 17413, Note_off_c, 2, 64, 64
1, 17417, Note_off_c, 8, 60, 64
1, 17417, Note_off_c, 8, 64, 64
1, 17422, Note_off_c, 3, 67, 64
1, 17423, Note_off_c, 8, 55, 64
1, 17431, Note_off_c, 0, 55, 64
1, 17431, Note_off_c, 0, 64, 64
1, 17432, Lyric_t, "ly "
1, 17432, Note_on_c, 3, 67, 107
1, 17433, Note_off_c, 1, 36, 64
1, 17435, Note_off_c, 0, 60, 64
1, 17436, Note_on_c, 0, 48, 104
1, 17437, Note_on_c, 9, 42, 61
1, 17438, Note_off_c, 9, 42, 64
1, 17438, Note_on_c, 9, 64, 48
1, 17439, Note_off_c, 4, 64, 64
1, 17439, Note_off_c, 4, 67, 64
1, 17439, Note_off_c, 4, 60, 64
1, 17439, Note_off_c, 9, 64, 64
1, 17440, Note_on_c, 4, 67, 57
1, 17440, Note_on_c, 4, 60, 56
1, 17440, Note_on_c, 4, 64, 63
1, 17469, Note_on_c, 0, 41, 91
1, 17470, Lyric_t, "skin "
1, 17470, Note_on_c, 3, 69, 106
1, 17470, Note_on_c, 9, 42, 66
1, 17470, Note_on_c, 7, 74, 101
1, 17471, Note_off_c, 4, 64, 64
1, 17471, Note_off_c, 4, 60, 64
1, 17471, Note_off_c, 4, 67, 64
1, 17471, Note_off_c, 9, 42, 64
1, 17471, Note_on_c, 9, 35, 105
1, 17471, Note_on_c, 0, 62, 97
1, 17471, Note_on_c, 0, 57, 98
1, 17471, Note_on_c, 8, 53, 74
1, 17471, Note_on_c, 9, 64, 50
1, 17472, Note_on_c, 4, 60, 68
1, 17472, Note_on_c, 4, 65, 67
1, 17472, Note_on_c, 4, 69, 78
1, 17472, Note_off_c, 9, 35, 64
1, 17472, Note_on_c, 1, 29, 109
1, 17472, Note_on_c, 0, 53, 100
1, 17472, Note_on_c, 8, 62, 85
1, 17472, Note_on_c, 8, 57, 80
1, 17472, Note_off_c, 9, 64, 64
1, 17473, Note_off_c, 0, 48, 64
1, 17478, Note_off_c, 3, 67, 64
1, 17519, Note_off_c, 8, 53, 64
1, 17526, Note_off_c, 8, 57, 64
1, 17528, Note_off_c, 0, 62, 64
1, 17528, Note_off_c, 8, 62, 64
1, 17529, Note_on_c, 0, 60, 87
1, 17530, Lyric_t, "deep, "
1, 17530, Note_on_c, 3, 72, 108
1, 17533, Note_on_c, 8, 53, 81
1, 17534, Note_off_c, 7, 74, 64
1, 17534, Note_on_c, 9, 64, 51
1, 17535, Note_off_c, 3, 69, 64
1, 17535, Note_off_c, 4, 69, 64
1, 17535, Note_off_c, 4, 65, 64
1, 17535, Note_on_c, 9, 42, 67
1, 17535, Note_on_c, 7, 72, 102
1, 17535, Note_on_c, 8, 60, 84
1, 17535, Note_on_c, 8, 57, 71
1, 17535, Note_off_c, 9, 64, 64
1, 17536, Note_off_c, 4, 60, 64
1, 17536, Note_on_c, 4, 69, 68
1, 17536, Note_on_c, 4, 65, 57
1, 17536, Note_on_c, 4, 72, 77
1, 17536, Note_off_c, 9, 42, 64
1, 17548, Note_off_c, 0, 57, 64
1, 17549, Note_off_c, 0, 41, 64
1, 17549, Note_off_c, 0, 53, 64
1, 17554, Note_off_c, 0, 60, 64
1, 17564, Note_off_c, 7, 72, 64
1, 17565, Note_on_c, 9, 38, 110
1, 17566, Note_off_c, 9, 38, 64
1, 17566, Note_on_c, 2, 60, 120
1, 17567, Note_off_c, 4, 72, 64
1, 17567, Note_off_c, 4, 65, 64
1, 17567, Note_off_c, 4, 69, 64
1, 17567, Note_on_c, 9, 42, 64
1, 17567, Note_on_c, 2, 65, 120
1, 17567, Note_on_c, 2, 69, 120
1, 17567, Note_off_c, 8, 60, 64
1, 17567, Note_on_c, 9, 63, 97
1, 17568, Note_off_c, 9, 42, 64
1, 17568, Note_off_c, 8, 57, 64
1, 17568, Note_off_c, 9, 63, 64
1, 17573, Note_off_c, 8, 53, 64
1, 17574, Note_off_c, 3, 72, 64
1, 17592, Note_off_c, 2, 69, 64
1, 17594, Note_off_c, 2, 60, 64
1, 17600, Note_off_c, 2, 65, 64
1, 17622, Note_off_c, 1, 29, 64
1, 17628, Note_on_c, 9, 63, 96
1, 17629, Note_off_c, 9, 63, 64
1, 17631, Note_on_c, 9, 42, 66
1, 17631, Note_on_c, 9, 35, 98
1, 17632, Note_off_c, 9, 35, 64
1, 17632, Note_off_c, 9, 42, 64
1, 17657, Note_on_c, 0, 43, 87
1, 17659, Lyric_t, "oh "
1, 17659, Note_on_c, 3, 67, 113
1, 17659, Note_on_c, 0, 62, 96
1, 17659, Note_on_c, 0, 59, 98
1, 17659, Note_on_c, 0, 55, 97
1, 17660, Note_on_c, 8, 55, 70
1, 17660, Note_on_c, 8, 67, 72
1, 17662, Note_on_c, 1, 31, 112
1, 17663, Note_on_c, 9, 42, 66
1, 17663, Note_on_c, 7, 79, 110
1, 17664, Note_on_c, 4, 67, 67
1, 17664, Note_on_c, 4, 64, 72
1, 17664, Note_off_c, 9, 42, 64
1, 17664, Note_on_c, 9, 35, 105
1, 17665, Note_off_c, 9, 35, 64
1, 17702, Note_off_c, 8, 55, 64
1, 17703, Note_off_c, 7, 79, 64
1, 17704, Note_off_c, 8, 67, 64
1, 17707, Note_off_c, 0, 62, 64
1, 17708, Note_off_c, 1, 31, 64
1, 17708, Note_off_c, 0, 55, 64
1, 17708, Note_off_c, 0, 59, 64
1, 17709, Note_off_c, 0, 43, 64
1, 17717, Note_on_c, 3, 69, 106
1, 17724, Note_off_c, 3, 67, 64
1, 17725, Note_on_c, 0, 59, 100
1, 17726, Note_on_c, 9, 42, 63
1, 17726, Note_on_c, 0, 62, 87
1, 17726, Note_on_c, 8, 67, 80
1, 17726, Note_on_c, 8, 55, 68
1, 17727, Note_off_c, 9, 42, 64
1, 17727, Note_on_c, 0, 55, 93
1, 17727, Note_on_c, 0, 43, 86
1, 17727, Note_on_c, 7, 79, 108
1, 17727, Note_on_c, 9, 64, 49
1, 17728, Note_off_c, 4, 64, 64
1, 17728, Note_off_c, 4, 67, 64
1, 17728, Note_on_c, 4, 69, 60
1, 17728, Note_on_c, 4, 65, 64
1, 17728, Note_on_c, 1, 31, 111
1, 17728, Note_off_c, 9, 64, 64
1, 17754, Note_off_c, 0, 62, 64
1, 17756, Note_off_c, 0, 59, 64
1, 17757, Note_on_c, 2, 62, 120
1, 17757, Note_on_c, 2, 67, 120
1, 17758, Note_on_c, 9, 38, 113
1, 17758, Note_on_c, 9, 42, 66
1, 17758, Note_off_c, 0, 55, 64
1, 17758, Note_on_c, 2, 71, 120
1, 17759, Note_off_c, 9, 42, 64
1, 17759, Note_off_c, 9, 38, 64
1, 17761, Note_on_c, 9, 62, 90
1, 17762, Note_off_c, 9, 62, 64
1, 17767, Note_off_c, 8, 67, 64
1, 17769, Note_off_c, 7, 79, 64
1, 17769, Note_off_c, 8, 55, 64
1, 17770, Note_off_c, 0, 43, 64
1, 17778, Note_off_c, 3, 69, 64
1, 17778, Note_off_c, 1, 31, 64
1, 17786, Note_off_c, 2, 62, 64
1, 17787, Note_off_c, 2, 71, 64
1, 17792, Note_off_c, 4, 65, 64
1, 17792, Note_off_c, 4, 69, 64
1, 17792, Note_on_c, 4, 64, 50
1, 17792, Note_on_c, 4, 67, 52
1, 17794, Note_off_c, 2, 67, 64
1, 17802, Lyric_t, "yeah. "
1, 17802, Lyric_t, "\015"
1, 17802, Note_on_c, 3, 67, 101
1, 17815, Note_on_c, 0, 55, 92
1, 17816, Note_on_c, 0, 60, 98
1, 17816, Note_on_c, 0, 64, 101
1, 17817, Note_on_c, 0, 48, 92
1, 17818, Note_on_c, 7, 84, 110
1, 17820, Note_on_c, 1, 36, 109
1, 17820, Note_on_c, 8, 60, 86
1, 17820, Note_on_c, 8, 72, 95
1, 17821, Note_on_c, 9, 42, 68
1, 17822, Note_off_c, 9, 42, 64
1, 17822, Note_on_c, 9, 64, 51
1, 17823, Note_off_c, 4, 67, 64
1, 17823, Note_off_c, 4, 64, 64
1, 17823, Note_off_c, 9, 64, 64
1, 17824, Note_on_c, 3, 65, 102
1, 17824, Note_on_c, 4, 65, 55
1, 17824, Note_on_c, 4, 62, 63
1, 17826, Note_on_c, 9, 35, 100
1, 17827, Note_off_c, 9, 35, 64
1, 17832, Note_off_c, 3, 67, 64
1, 17853, Lyric_t, "\012"
1, 17853, Note_off_c, 8, 72, 64
1, 17854, Note_on_c, 9, 42, 78
1, 17855, Note_off_c, 4, 62, 64
1, 17855, Note_off_c, 4, 65, 64
1, 17855, Note_off_c, 9, 42, 64
1, 17856, Note_on_c, 3, 64, 100
1, 17856, Note_on_c, 4, 64, 60
1, 17856, Note_on_c, 4, 60, 63
1, 17856, Note_on_c, 9, 35, 109
1, 17857, Note_off_c, 9, 35, 64
1, 17858, Note_on_c, 9, 64, 52
1, 17859, Note_off_c, 9, 64, 64
1, 17860, Note_off_c, 8, 60, 64
1, 17861, Note_off_c, 3, 65, 64
1, 17866, Note_off_c, 7, 84, 64
1, 17916, Note_off_c, 3, 64, 64
1, 17919, Note_on_c, 9, 64, 53
1, 17920, Note_off_c, 9, 64, 64
1, 17941, Note_off_c, 0, 64, 64
1, 17941, Note_off_c, 0, 55, 64
1, 17941, Note_off_c, 0, 60, 64
1, 17949, Note_off_c, 0, 48, 64
1, 17949, Note_on_c, 2, 64, 120
1, 17950, Note_on_c, 2, 67, 120
1, 17950, Note_on_c, 2, 72, 120
1, 17951, Note_on_c, 9, 40, 127
1, 17952, Note_off_c, 4, 60, 64
1, 17952, Note_off_c, 4, 64, 64
1, 17952, Note_off_c, 9, 40, 64
1, 17955, Lyric_t, "Now "
1, 17955, Note_on_c, 3, 64, 115
1, 17956, Note_off_c, 1, 36, 64
1, 17956, Note_on_c, 9, 63, 105
1, 17957, Note_off_c, 9, 63, 64
1, 17985, Note_off_c, 2, 67, 64
1, 17988, Note_off_c, 2, 72, 64
1, 17993, Note_off_c, 2, 64, 64
1, 18010, Note_off_c, 3, 64, 64
1, 18016, Note_on_c, 1, 43, 94
1, 18017, Note_on_c, 9, 63, 95
1, 18018, Note_off_c, 9, 63, 64
1, 18026, Note_off_c, 1, 43, 64
1, 18042, Note_on_c, 7, 83, 97
1, 18045, Note_on_c, 8, 60, 80
1, 18046, Note_on_c, 6, 84, 95
1, 18047, Note_on_c, 7, 84, 104
1, 18047, Note_on_c, 8, 72, 68
1, 18047, Note_on_c, 8, 64, 62
1, 18048, Note_on_c, 9, 64, 79
1, 18049, Lyric_t, "friends "
1, 18049, Note_on_c, 3, 69, 106
1, 18049, Note_off_c, 9, 64, 64
1, 18052, Note_on_c, 1, 36, 97
1, 18059, Note_off_c, 7, 83, 64
1, 18105, Note_on_c, 3, 64, 100
1, 18110, Note_on_c, 9, 64, 70
1, 18111, Note_off_c, 9, 64, 64
1, 18114, Note_off_c, 3, 69, 64
1, 18142, Note_on_c, 2, 64, 120
1, 18143, Note_on_c, 2, 67, 120
1, 18143, Note_on_c, 9, 62, 120
1, 18144, Note_on_c, 2, 72, 120
1, 18144, Note_off_c, 9, 62, 64
1, 18154, Note_off_c, 1, 36, 64
1, 18168, Note_off_c, 3, 64, 64
1, 18170, Note_off_c, 2, 72, 64
1, 18170, Note_off_c, 2, 67, 64
1, 18170, Note_off_c, 6, 84, 64
1, 18178, Note_off_c, 2, 64, 64
1, 18196, Lyric_t, "ask "
1, 18196, Note_on_c, 3, 62, 108
1, 18207, Note_on_c, 1, 36, 108
1, 18207, Note_on_c, 6, 84, 91
1, 18208, Note_on_c, 9, 64, 48
1, 18209, Note_off_c, 9, 64, 64
1, 18240, Note_on_c, 1, 28, 88
1, 18240, Note_off_c, 6, 84, 64
1, 18240, Note_on_c, 9, 64, 48
1, 18241, Note_off_c, 1, 36, 64
1, 18241, Note_on_c, 6, 91, 77
1, 18241, Note_off_c, 9, 64, 64
1, 18252, Note_off_c, 3, 62, 64
1, 18297, Lyric_t, "what "
1, 18297, Note_on_c, 3, 57, 111
1, 18302, Note_on_c, 1, 31, 98
1, 18303, Note_off_c, 6, 91, 64
1, 18304, Note_on_c, 5, 55, 49
1, 18304, Note_on_c, 5, 67, 64
1, 18304, Note_off_c, 1, 28, 64
1, 18304, Note_on_c, 9, 64, 70
1, 18305, Note_on_c, 6, 96, 80
1, 18305, Note_off_c, 9, 64, 64
1, 18318, Note_off_c, 7, 84, 64
1, 18330, Note_off_c, 8, 72, 64
1, 18331, Note_off_c, 8, 60, 64
1, 18332, Lyric_t, "do "
1, 18332, Note_on_c, 3, 60, 108
1, 18334, Note_off_c, 8, 64, 64
1, 18335, Note_off_c, 5, 67, 64
1, 18335, Note_off_c, 5, 55, 64
1, 18335, Note_on_c, 2, 64, 120
1, 18335, Note_on_c, 2, 67, 120
1, 18336, Note_on_c, 5, 60, 63
1, 18336, Note_on_c, 5, 72, 73
1, 18336, Note_on_c, 2, 72, 120
1, 18338, Note_off_c, 3, 57, 64
1, 18338, Note_on_c, 9, 63, 66
1, 18339, Note_off_c, 9, 63, 64
1, 18340, Note_off_c, 1, 31, 64
1, 18362, Note_off_c, 3, 60, 64
1, 18363, Note_off_c, 2, 67, 64
1, 18366, Note_off_c, 2, 72, 64
1, 18367, Lyric_t, "I "
1, 18367, Note_on_c, 3, 60, 106
1, 18369, Note_off_c, 2, 64, 64
1, 18381, Note_off_c, 6, 96, 64
1, 18397, Note_on_c, 1, 29, 99
1, 18397, Note_on_c, 6, 93, 77
1, 18399, Note_on_c, 9, 63, 107
1, 18400, Note_off_c, 5, 72, 64
1, 18400, Note_off_c, 5, 60, 64
1, 18400, Note_on_c, 5, 57, 70
1, 18400, Note_on_c, 5, 69, 70
1, 18400, Note_off_c, 9, 63, 64
1, 18402, Note_off_c, 3, 60, 64
1, 18430, Lyric_t, "see "
1, 18430, Note_on_c, 3, 62, 103
1, 18483, Lyric_t, "in "
1, 18483, Note_on_c, 3, 60, 101
1, 18490, Note_off_c, 3, 62, 64
1, 18494, Note_on_c, 9, 63, 85
1, 18495, Note_off_c, 9, 63, 64
1, 18526, Note_on_c, 9, 62, 105
1, 18527, Note_on_c, 2, 60, 120
1, 18527, Note_on_c, 2, 65, 120
1, 18527, Note_on_c, 2, 69, 120
1, 18527, Note_off_c, 9, 62, 64
1, 18528, Note_off_c, 3, 60, 64
1, 18534, Note_off_c, 1, 29, 64
1, 18536, Note_off_c, 6, 93, 64
1, 18551, Note_off_c, 2, 60, 64
1, 18552, Note_off_c, 2, 69, 64
1, 18560, Note_off_c, 2, 65, 64
1, 18586, Lyric_t, "you; "
1, 18586, Lyric_t, "\015"
1, 18586, Note_on_c, 3, 57, 99
1, 18588, Note_on_c, 1, 33, 109
1, 18589, Note_on_c, 9, 63, 49
1, 18590, Note_off_c, 9, 63, 64
1, 18621, Note_on_c, 1, 31, 91
1, 18622, Note_on_c, 9, 62, 100
1, 18623, Note_off_c, 9, 62, 64
1, 18624, Note_off_c, 5, 69, 64
1, 18624, Note_off_c, 5, 57, 64
1, 18624, Note_on_c, 5, 55, 62
1, 18624, Note_on_c, 5, 67, 54
1, 18624, Note_off_c, 1, 33, 64
1, 18626, Note_on_c, 6, 91, 87
1, 18627, Note_on_c, 3, 55, 100
1, 18635, Note_off_c, 3, 57, 64
1, 18687, Note_off_c, 3, 55, 64
1, 18687, Note_off_c, 6, 91, 64
1, 18687, Note_on_c, 6, 89, 75
1, 18688, Note_on_c, 9, 64, 47
1, 18689, Note_off_c, 9, 64, 64
1, 18716, Note_on_c, 1, 33, 100
1, 18718, Note_on_c, 2, 60, 120
1, 18718, Note_on_c, 2, 65, 120
1, 18718, Note_on_c, 2, 69, 120
1, 18718, Note_on_c, 9, 62, 107
1, 18719, Note_off_c, 9, 62, 64
1, 18720, Note_off_c, 5, 67, 64
1, 18720, Note_off_c, 5, 55, 64
1, 18722, Note_off_c, 1, 31, 64
1, 18722, Note_on_c, 6, 88, 78
1, 18731, Note_off_c, 6, 89, 64
1, 18748, Note_off_c, 2, 60, 64
1, 18750, Note_off_c, 2, 69, 64
1, 18758, Note_off_c, 2, 65, 64
1, 18766, Note_off_c, 1, 33, 64
1, 18780, Note_off_c, 6, 88, 64
1, 18780, Note_on_c, 9, 63, 95
1, 18781, Note_off_c, 9, 63, 64
1, 18784, Note_on_c, 6, 86, 69
1, 18795, Note_on_c, 9, 63, 101
1, 18796, Note_off_c, 9, 63, 64
1, 18814, Note_on_c, 9, 63, 108
1, 18815, Note_on_c, 1, 36, 101
1, 18815, Note_off_c, 9, 63, 64
1, 18818, Note_on_c, 6, 84, 68
1, 18819, Note_off_c, 6, 86, 64
1, 18853, Lyric_t, "but "
1, 18853, Note_on_c, 3, 55, 111
1, 18878, Note_off_c, 3, 55, 64
1, 18880, Note_on_c, 9, 64, 44
1, 18881, Note_off_c, 9, 64, 64
1, 18882, Lyric_t, "it "
1, 18882, Note_on_c, 3, 57, 104
1, 18910, Note_on_c, 2, 64, 120
1, 18910, Note_on_c, 2, 67, 120
1, 18911, Note_on_c, 2, 72, 120
1, 18914, Note_on_c, 9, 62, 112
1, 18915, Lyric_t, "goes "
1, 18915, Note_on_c, 3, 60, 103
1, 18915, Note_off_c, 9, 62, 64
1, 18922, Note_off_c, 3, 57, 64
1, 18927, Note_off_c, 1, 36, 64
1, 18927, Note_off_c, 6, 84, 64
1, 18940, Note_off_c, 2, 72, 64
1, 18940, Note_off_c, 2, 67, 64
1, 18948, Note_off_c, 2, 64, 64
1, 18973, Note_on_c, 1, 36, 106
1, 18974, Note_on_c, 6, 84, 88
1, 18975, Note_off_c, 3, 60, 64
1, 18976, Note_on_c, 9, 64, 44
1, 18977, Note_off_c, 9, 64, 64
1, 19009, Lyric_t, "deep"
1, 19009, Note_on_c, 3, 62, 115
1, 19009, Note_on_c, 1, 28, 92
1, 19011, Note_on_c, 6, 91, 81
1, 19013, Note_off_c, 6, 84, 64
1, 19017, Note_off_c, 1, 36, 64
1, 19045, Lyric_t, "er "
1, 19045, Note_on_c, 3, 64, 101
1, 19050, Note_off_c, 3, 62, 64
1, 19069, Note_off_c, 1, 28, 64
1, 19069, Note_on_c, 1, 31, 98
1, 19071, Note_on_c, 9, 63, 117
1, 19072, Note_on_c, 5, 60, 73
1, 19072, Note_on_c, 5, 64, 74
1, 19072, Note_on_c, 5, 67, 77
1, 19072, Note_off_c, 6, 91, 64
1, 19072, Note_off_c, 9, 63, 64
1, 19074, Note_on_c, 6, 96, 77
1, 19079, Lyric_t, "than "
1, 19079, Note_on_c, 3, 62, 104
1, 19088, Note_off_c, 3, 64, 64
1, 19103, Note_off_c, 5, 67, 64
1, 19103, Note_off_c, 5, 64, 64
1, 19103, Note_off_c, 5, 60, 64
1, 19104, Note_on_c, 5, 67, 59
1, 19104, Note_on_c, 5, 72, 81
1, 19104, Note_on_c, 5, 64, 84
1, 19104, Note_on_c, 2, 64, 120
1, 19104, Note_on_c, 9, 64, 44
1, 19105, Note_on_c, 2, 67, 120
1, 19105, Note_on_c, 2, 72, 120
1, 19105, Note_off_c, 9, 64, 64
1, 19117, Lyric_t, "the "
1, 19117, Note_on_c, 3, 60, 101
1, 19117, Note_off_c, 1, 31, 64
1, 19120, Note_off_c, 3, 62, 64
1, 19135, Note_off_c, 2, 67, 64
1, 19140, Note_off_c, 2, 72, 64
1, 19143, Note_off_c, 2, 64, 64
1, 19151, Note_off_c, 6, 96, 64
1, 19162, Note_off_c, 3, 60, 64
1, 19166, Note_on_c, 6, 93, 82
1, 19167, Note_on_c, 1, 29, 102
1, 19167, Note_on_c, 9, 63, 114
1, 19168, Note_off_c, 5, 64, 64
1, 19168, Note_off_c, 5, 72, 64
1, 19168, Note_off_c, 5, 67, 64
1, 19168, Note_on_c, 5, 69, 66
1, 19168, Note_on_c, 5, 65, 68
1, 19168, Note_on_c, 5, 60, 66
1, 19168, Note_off_c, 9, 63, 64
1, 19172, Lyric_t, "eye "
1, 19172, Note_on_c, 3, 62, 105
1, 19221, Note_on_c, 3, 64, 102
1, 19228, Note_off_c, 3, 62, 64
1, 19260, Note_off_c, 3, 64, 64
1, 19262, Note_on_c, 9, 63, 85
1, 19263, Note_off_c, 9, 63, 64
1, 19287, Note_off_c, 6, 93, 64
1, 19294, Note_on_c, 9, 62, 104
1, 19295, Note_off_c, 9, 62, 64
1, 19298, Note_on_c, 2, 60, 120
1, 19299, Note_off_c, 1, 29, 64
1, 19299, Note_on_c, 2, 65, 120
1, 19299, Note_on_c, 2, 69, 120
1, 19301, Lyric_t, "can "
1, 19301, Note_on_c, 3, 62, 108
1, 19321, Note_off_c, 2, 60, 64
1, 19322, Note_off_c, 2, 69, 64
1, 19326, Note_off_c, 2, 65, 64
1, 19345, Lyric_t, "view. "
1, 19345, Lyric_t, "\015"
1, 19345, Note_on_c, 3, 60, 104
1, 19349, Note_off_c, 3, 62, 64
1, 19358, Note_on_c, 1, 33, 101
1, 19360, Note_on_c, 9, 64, 44
1, 19361, Note_off_c, 9, 64, 64
1, 19388, Note_on_c, 3, 55, 102
1, 19390, Note_on_c, 1, 31, 95
1, 19391, Note_on_c, 6, 91, 87
1, 19392, Note_off_c, 5, 60, 64
1, 19392, Note_off_c, 5, 65, 64
1, 19392, Note_off_c, 5, 69, 64
1, 19392, Note_on_c, 5, 67, 62
1, 19392, Note_on_c, 5, 59, 59
1, 19392, Note_on_c, 5, 62, 61
1, 19392, Note_on_c, 9, 64, 44
1, 19393, Note_off_c, 9, 64, 64
1, 19398, Note_off_c, 1, 33, 64
1, 19400, Note_off_c, 3, 60, 64
1, 19427, Note_off_c, 1, 31, 64
1, 19440, Note_off_c, 3, 55, 64
1, 19442, Lyric_t, "\012"
1, 19449, Note_off_c, 6, 91, 64
1, 19453, Note_on_c, 9, 63, 74
1, 19454, Note_on_c, 1, 33, 94
1, 19454, Note_on_c, 6, 89, 73
1, 19454, Note_off_c, 9, 63, 64
1, 19486, Note_on_c, 1, 36, 94
1, 19486, Note_on_c, 9, 62, 112
1, 19487, Note_on_c, 2, 60, 120
1, 19487, Note_on_c, 2, 65, 120
1, 19487, Note_off_c, 9, 62, 64
1, 19488, Note_off_c, 5, 62, 64
1, 19488, Note_off_c, 5, 59, 64
1, 19488, Note_off_c, 5, 67, 64
1, 19488, Note_on_c, 2, 69, 120
1, 19488, Note_on_c, 6, 88, 76
1, 19490, Note_off_c, 1, 33, 64
1, 19497, Note_off_c, 6, 89, 64
1, 19514, Note_off_c, 2, 60, 64
1, 19523, Note_off_c, 2, 65, 64
1, 19526, Note_off_c, 2, 69, 64
1, 19536, Note_off_c, 1, 36, 64
1, 19545, Note_off_c, 6, 88, 64
1, 19548, Note_on_c, 1, 33, 78
1, 19548, Note_on_c, 9, 63, 85
1, 19549, Note_off_c, 9, 63, 64
1, 19550, Note_on_c, 6, 86, 71
1, 19568, Note_on_c, 9, 63, 109
1, 19569, Note_off_c, 9, 63, 64
1, 19580, Note_on_c, 1, 36, 105
1, 19583, Note_on_c, 9, 63, 99
1, 19584, Note_off_c, 1, 33, 64
1, 19584, Note_off_c, 9, 63, 64
1, 19585, Note_on_c, 6, 84, 75
1, 19588, Note_off_c, 6, 86, 64
1, 19634, Lyric_t, "You "
1, 19634, Note_on_c, 3, 55, 111
1, 19648, Note_on_c, 9, 64, 44
1, 19649, Note_off_c, 9, 64, 64
1, 19678, Note_on_c, 2, 64, 120
1, 19678, Note_on_c, 2, 67, 120
1, 19679, Note_on_c, 2, 72, 120
1, 19681, Note_on_c, 9, 62, 108
1, 19682, Note_off_c, 3, 55, 64
1, 19682, Note_off_c, 9, 62, 64
1, 19690, Lyric_t, "have "
1, 19690, Note_on_c, 3, 64, 108
1, 19694, Note_off_c, 1, 36, 64
1, 19703, Note_off_c, 6, 84, 64
1, 19708, Note_off_c, 2, 67, 64
1, 19711, Note_off_c, 2, 72, 64
1, 19715, Note_off_c, 2, 64, 64
1, 19741, Note_on_c, 1, 36, 109
1, 19742, Note_on_c, 6, 84, 81
1, 19744, Note_on_c, 9, 64, 44
1, 19745, Lyric_t, "a "
1, 19745, Note_on_c, 3, 67, 106
1, 19745, Note_off_c, 9, 64, 64
1, 19751, Note_off_c, 3, 64, 64
1, 19773, Note_off_c, 6, 84, 64
1, 19774, Note_on_c, 6, 91, 83
1, 19776, Note_on_c, 1, 28, 98
1, 19776, Note_on_c, 9, 64, 44
1, 19777, Note_off_c, 9, 64, 64
1, 19781, Note_off_c, 1, 36, 64
1, 19783, Note_off_c, 3, 67, 64
1, 19794, Lyric_t, "pleas"
1, 19794, Note_on_c, 3, 67, 109
1, 19836, Note_off_c, 1, 28, 64
1, 19838, Note_on_c, 1, 31, 97
1, 19838, Note_off_c, 6, 91, 64
1, 19838, Note_on_c, 6, 96, 80
1, 19838, Note_on_c, 9, 63, 109
1, 19839, Note_off_c, 9, 63, 64
1, 19840, Note_on_c, 5, 55, 77
1, 19840, Note_on_c, 5, 67, 66
1, 19842, Lyric_t, "in' "
1, 19842, Note_on_c, 3, 64, 102
1, 19845, Note_off_c, 3, 67, 64
1, 19871, Note_off_c, 5, 67, 64
1, 19871, Note_off_c, 5, 55, 64
1, 19871, Note_on_c, 2, 72, 120
1, 19871, Note_on_c, 2, 64, 120
1, 19871, Note_on_c, 2, 67, 120
1, 19872, Note_on_c, 5, 60, 68
1, 19872, Note_on_c, 5, 72, 64
1, 19878, Note_off_c, 1, 31, 64
1, 19886, Note_off_c, 3, 64, 64
1, 19900, Note_off_c, 6, 96, 64
1, 19901, Note_off_c, 2, 67, 64
1, 19906, Note_off_c, 2, 72, 64
1, 19907, Note_off_c, 2, 64, 64
1, 19925, Lyric_t, "per"
1, 19925, Note_on_c, 3, 62, 102
1, 19932, Note_on_c, 6, 93, 86
1, 19933, Note_on_c, 1, 29, 101
1, 19934, Note_on_c, 9, 64, 83
1, 19935, Note_off_c, 9, 64, 64
1, 19936, Note_off_c, 5, 72, 64
1, 19936, Note_off_c, 5, 60, 64
1, 19936, Note_on_c, 5, 57, 66
1, 19936, Note_on_c, 5, 69, 66
1, 19968, Note_on_c, 9, 64, 44
1, 19969, Note_off_c, 9, 64, 64
1, 19978, Lyric_t, "son"
1, 19978, Note_on_c, 3, 60, 100
1, 19979, Note_off_c, 3, 62, 64
1, 20031, Note_on_c, 9, 64, 56
1, 20032, Note_off_c, 9, 64, 64
1, 20033, Lyric_t, "al"
1, 20033, Note_on_c, 3, 62, 106
1, 20042, Note_off_c, 3, 60, 64
1, 20061, Note_on_c, 2, 60, 120
1, 20062, Note_on_c, 2, 65, 120
1, 20062, Note_on_c, 2, 69, 120
1, 20063, Note_on_c, 9, 62, 114
1, 20064, Note_off_c, 9, 62, 64
1, 20079, Note_off_c, 6, 93, 64
1, 20082, Lyric_t, "i"
1, 20082, Note_on_c, 3, 60, 103
1, 20087, Note_off_c, 1, 29, 64
1, 20089, Note_off_c, 2, 60, 64
1, 20090, Note_off_c, 3, 62, 64
1, 20093, Note_off_c, 2, 69, 64
1, 20097, Note_off_c, 2, 65, 64
1, 20125, Note_on_c, 1, 33, 104
1, 20128, Note_on_c, 9, 64, 44
1, 20129, Note_off_c, 9, 64, 64
1, 20132, Lyric_t, "ty, "
1, 20132, Lyric_t, "\015"
1, 20132, Note_on_c, 3, 57, 97
1, 20136, Note_off_c, 3, 60, 64
1, 20157, Note_on_c, 9, 62, 112
1, 20158, Note_on_c, 1, 31, 98
1, 20158, Note_off_c, 9, 62, 64
1, 20160, Note_off_c, 5, 69, 64
1, 20160, Note_off_c, 5, 57, 64
1, 20160, Note_on_c, 5, 67, 62
1, 20160, Note_on_c, 5, 55, 66
1, 20161, Note_off_c, 1, 33, 64
1, 20161, Note_on_c, 6, 91, 81
1, 20170, Note_off_c, 3, 57, 64
1, 20174, Note_on_c, 3, 55, 94
1, 20218, Note_off_c, 6, 91, 64
1, 20222, Note_on_c, 6, 89, 79
1, 20222, Note_on_c, 9, 64, 72
1, 20223, Note_off_c, 9, 64, 64
1, 20226, Note_off_c, 1, 31, 64
1, 20230, Note_off_c, 3, 55, 64
1, 20254, Note_on_c, 1, 33, 100
1, 20254, Note_on_c, 2, 60, 120
1, 20254, Note_on_c, 2, 65, 120
1, 20254, Note_on_c, 2, 69, 120
1, 20254, Note_on_c, 9, 62, 101
1, 20255, Note_off_c, 9, 62, 64
1, 20256, Note_off_c, 5, 55, 64
1, 20256, Note_off_c, 5, 67, 64
1, 20256, Note_on_c, 6, 88, 77
1, 20266, Note_off_c, 6, 89, 64
1, 20284, Note_off_c, 2, 60, 64
1, 20287, Note_off_c, 2, 69, 64
1, 20291, Note_off_c, 2, 65, 64
1, 20307, Lyric_t, "and "
1, 20307, Note_on_c, 3, 55, 102
1, 20314, Note_on_c, 9, 63, 92
1, 20315, Note_off_c, 9, 63, 64
1, 20316, Note_off_c, 6, 88, 64
1, 20318, Note_on_c, 6, 86, 75
1, 20327, Note_on_c, 9, 63, 109
1, 20328, Note_off_c, 1, 33, 64
1, 20328, Note_off_c, 9, 63, 64
1, 20340, Note_off_c, 3, 55, 64
1, 20346, Note_on_c, 9, 63, 114
1, 20347, Note_off_c, 9, 63, 64
1, 20352, Note_on_c, 1, 36, 90
1, 20352, Note_on_c, 6, 84, 70
1, 20355, Note_off_c, 6, 86, 64
1, 20356, Lyric_t, "that's "
1, 20356, Note_on_c, 3, 60, 106
1, 20406, Note_off_c, 3, 60, 64
1, 20409, Lyric_t, "an "
1, 20409, Note_on_c, 3, 62, 103
1, 20416, Note_on_c, 9, 64, 44
1, 20417, Note_off_c, 9, 64, 64
1, 20438, Note_off_c, 6, 84, 64
1, 20445, Note_on_c, 2, 64, 120
1, 20446, Note_on_c, 2, 67, 120
1, 20446, Note_on_c, 2, 72, 120
1, 20446, Note_on_c, 9, 62, 114
1, 20447, Note_off_c, 9, 62, 64
1, 20456, Lyric_t, "ev"
1, 20456, Note_on_c, 3, 64, 99
1, 20464, Note_off_c, 3, 62, 64
1, 20472, Note_off_c, 2, 67, 64
1, 20477, Note_off_c, 1, 36, 64
1, 20477, Note_off_c, 2, 72, 64
1, 20479, Note_off_c, 2, 64, 64
1, 20484, Note_off_c, 3, 64, 64
1, 20487, Lyric_t, "er-"
1, 20487, Note_on_c, 3, 62, 98
1, 20511, Note_on_c, 6, 84, 84
1, 20512, Note_on_c, 9, 64, 44
1, 20513, Note_off_c, 9, 64, 64
1, 20514, Note_on_c, 1, 36, 102
1, 20522, Note_off_c, 3, 62, 64
1, 20532, Lyric_t, "lov"
1, 20532, Note_on_c, 3, 62, 102
1, 20542, Note_off_c, 6, 84, 64
1, 20544, Note_on_c, 9, 64, 44
1, 20545, Note_on_c, 6, 91, 85
1, 20545, Note_off_c, 9, 64, 64
1, 20546, Note_on_c, 1, 28, 86
1, 20550, Note_off_c, 1, 36, 64
1, 20575, Lyric_t, "in' "
1, 20575, Note_on_c, 3, 60, 100
1, 20578, Note_off_c, 3, 62, 64
1, 20601, Note_off_c, 6, 91, 64
1, 20606, Note_on_c, 9, 63, 114
1, 20607, Note_on_c, 6, 96, 84
1, 20607, Note_off_c, 9, 63, 64
1, 20608, Note_on_c, 5, 60, 75
1, 20608, Note_on_c, 5, 67, 65
1, 20608, Note_on_c, 5, 64, 66
1, 20610, Note_off_c, 1, 28, 64
1, 20610, Note_on_c, 1, 31, 94
1, 20618, Note_off_c, 3, 60, 64
1, 20638, Note_on_c, 2, 64, 120
1, 20638, Note_on_c, 2, 67, 120
1, 20639, Note_off_c, 5, 64, 64
1, 20639, Note_off_c, 5, 67, 64
1, 20639, Note_off_c, 5, 60, 64
1, 20639, Note_on_c, 2, 72, 120
1, 20640, Note_on_c, 5, 67, 67
1, 20640, Note_on_c, 5, 72, 91
1, 20640, Note_on_c, 5, 64, 79
1, 20647, Note_off_c, 1, 31, 64
1, 20666, Note_off_c, 2, 67, 64
1, 20668, Note_off_c, 2, 72, 64
1, 20670, Note_off_c, 2, 64, 64
1, 20672, Note_off_c, 6, 96, 64
1, 20696, Lyric_t, "rare "
1, 20696, Note_on_c, 3, 67, 113
1, 20701, Note_on_c, 6, 93, 90
1, 20702, Note_on_c, 9, 64, 90
1, 20703, Note_off_c, 9, 64, 64
1, 20704, Note_off_c, 5, 64, 64
1, 20704, Note_off_c, 5, 72, 64
1, 20704, Note_off_c, 5, 67, 64
1, 20704, Note_on_c, 5, 69, 65
1, 20704, Note_on_c, 5, 65, 60
1, 20704, Note_on_c, 5, 60, 75
1, 20705, Note_on_c, 1, 29, 99
1, 20736, Note_on_c, 9, 35, 102
1, 20737, Note_off_c, 9, 35, 64
1, 20739, Note_on_c, 9, 38, 63
1, 20740, Note_off_c, 9, 38, 64
1, 20772, Note_on_c, 9, 38, 68
1, 20773, Note_off_c, 9, 38, 64
1, 20800, Note_on_c, 9, 64, 44
1, 20801, Note_on_c, 9, 38, 69
1, 20801, Note_off_c, 9, 64, 64
1, 20802, Note_off_c, 9, 38, 64
1, 20830, Note_on_c, 9, 35, 105
1, 20830, Note_on_c, 2, 60, 120
1, 20830, Note_on_c, 2, 65, 120
1, 20830, Note_on_c, 2, 69, 120
1, 20830, Note_on_c, 9, 62, 83
1, 20831, Note_off_c, 9, 35, 64
1, 20831, Note_off_c, 9, 62, 64
1, 20833, Lyric_t, "qual"
1, 20833, Note_on_c, 3, 64, 104
1, 20833, Note_on_c, 9, 38, 86
1, 20834, Note_off_c, 3, 67, 64
1, 20834, Note_off_c, 9, 38, 64
1, 20835, Note_off_c, 6, 93, 64
1, 20858, Note_off_c, 2, 60, 64
1, 20864, Note_off_c, 2, 69, 64
1, 20865, Note_on_c, 9, 38, 91
1, 20866, Note_off_c, 9, 38, 64
1, 20868, Note_off_c, 2, 65, 64
1, 20885, Note_off_c, 3, 64, 64
1, 20885, Note_off_c, 1, 29, 64
1, 20887, Lyric_t, "i"
1, 20887, Note_on_c, 3, 60, 106
1, 20895, Note_on_c, 9, 38, 88
1, 20896, Note_off_c, 9, 38, 64
1, 20896, Note_on_c, 9, 64, 44
1, 20897, Note_off_c, 9, 64, 64
1, 20925, Note_on_c, 9, 35, 107
1, 20926, Note_off_c, 9, 35, 64
1, 20926, Note_on_c, 1, 29, 94
1, 20928, Note_off_c, 5, 60, 64
1, 20928, Note_off_c, 5, 65, 64
1, 20928, Note_off_c, 5, 69, 64
1, 20928, Note_on_c, 9, 38, 108
1, 20929, Note_off_c, 9, 38, 64
1, 20929, Note_on_c, 6, 89, 75
1, 20930, Lyric_t, "ty. "
1, 20930, Lyric_t, "\015"
1, 20930, Note_on_c, 3, 57, 94
1, 20931, Note_on_c, 9, 63, 117
1, 20932, Note_off_c, 3, 60, 64
1, 20932, Note_off_c, 9, 63, 64
1, 20959, Note_on_c, 9, 38, 103
1, 20960, Note_off_c, 9, 38, 64
1, 20976, Note_on_c, 3, 55, 97
1, 20977, Note_off_c, 6, 89, 64
1, 20985, Note_off_c, 3, 57, 64
1, 20991, Note_on_c, 9, 38, 127
1, 20992, Note_off_c, 9, 38, 64
1, 21000, Note_off_c, 1, 29, 64
1, 21015, Lyric_t, "\012"
1, 21022, Note_on_c, 2, 60, 120
1, 21022, Note_on_c, 2, 65, 120
1, 21023, Note_on_c, 2, 69, 120
1, 21023, Note_on_c, 9, 63, 109
1, 21024, Note_on_c, 9, 38, 120
1, 21024, Note_off_c, 9, 63, 64
1, 21025, Note_off_c, 9, 38, 64
1, 21025, Note_on_c, 9, 35, 111
1, 21025, Note_on_c, 1, 29, 95
1, 21026, Note_off_c, 9, 35, 64
1, 21027, Note_on_c, 6, 89, 77
1, 21030, Note_off_c, 3, 55, 64
1, 21045, Note_off_c, 2, 60, 64
1, 21046, Note_off_c, 2, 69, 64
1, 21052, Note_off_c, 2, 65, 64
1, 21054, Note_on_c, 9, 38, 127
1, 21055, Note_off_c, 9, 38, 64
1, 21073, Note_off_c, 6, 89, 64
1, 21084, Note_on_c, 9, 38, 127
1, 21085, Note_off_c, 9, 38, 64
1, 21088, Note_on_c, 9, 64, 44
1, 21089, Note_off_c, 9, 64, 64
1, 21091, Note_off_c, 1, 29, 64
1, 21117, Note_on_c, 9, 35, 112
1, 21118, Note_off_c, 9, 35, 64
1, 21118, Note_on_c, 9, 42, 80
1, 21119, Note_off_c, 9, 42, 64
1, 21119, Note_on_c, 0, 36, 86
1, 21119, Note_on_c, 0, 55, 98
1, 21119, Note_on_c, 0, 60, 93
1, 21119, Note_on_c, 0, 52, 87
1, 21120, Note_on_c, 5, 64, 80
1, 21120, Note_on_c, 5, 67, 81
1, 21120, Note_on_c, 1, 36, 102
1, 21120, Note_on_c, 8, 48, 71
1, 21121, Note_on_c, 8, 64, 73
1, 21122, Note_on_c, 8, 55, 70
1, 21123, Note_on_c, 6, 88, 58
1, 21182, Note_on_c, 9, 42, 66
1, 21183, Note_off_c, 9, 42, 64
1, 21185, Lyric_t, "Now, "
1, 21185, Note_on_c, 3, 55, 111
1, 21210, Note_off_c, 6, 88, 64
1, 21213, Note_on_c, 9, 42, 77
1, 21214, Note_off_c, 9, 42, 64
1, 21214, Note_on_c, 9, 38, 116
1, 21214, Note_on_c, 2, 64, 120
1, 21215, Note_off_c, 9, 38, 64
1, 21215, Note_on_c, 2, 67, 120
1, 21215, Note_on_c, 2, 72, 120
1, 21215, Note_on_c, 9, 62, 109
1, 21216, Note_off_c, 9, 62, 64
1, 21234, Note_off_c, 0, 52, 64
1, 21235, Note_off_c, 2, 67, 64
1, 21239, Lyric_t, "show "
1, 21239, Note_on_c, 3, 64, 106
1, 21239, Note_off_c, 2, 72, 64
1, 21240, Note_off_c, 3, 55, 64
1, 21242, Note_off_c, 2, 64, 64
1, 21244, Note_off_c, 8, 55, 64
1, 21244, Note_off_c, 8, 48, 64
1, 21247, Note_off_c, 8, 64, 64
1, 21249, Note_off_c, 1, 36, 64
1, 21251, Note_off_c, 0, 55, 64
1, 21253, Note_off_c, 0, 60, 64
1, 21268, Note_off_c, 0, 36, 64
1, 21275, Lyric_t, "me "
1, 21275, Note_on_c, 3, 62, 109
1, 21277, Note_on_c, 9, 42, 66
1, 21278, Note_off_c, 9, 42, 64
1, 21278, Note_on_c, 1, 38, 81
1, 21278, Note_on_c, 0, 38, 80
1, 21279, Note_on_c, 0, 53, 85
1, 21279, Note_on_c, 0, 62, 92
1, 21279, Note_on_c, 0, 57, 87
1, 21279, Note_on_c, 8, 65, 72
1, 21279, Note_on_c, 8, 50, 66
1, 21279, Note_on_c, 8, 57, 65
1, 21279, Note_on_c, 9, 64, 45
1, 21280, Note_off_c, 5, 67, 64
1, 21280, Note_off_c, 5, 64, 64
1, 21280, Note_on_c, 5, 65, 76
1, 21280, Note_on_c, 5, 69, 80
1, 21280, Note_off_c, 9, 64, 64
1, 21281, Note_off_c, 3, 64, 64
1, 21305, Lyric_t, "a "
1, 21305, Note_on_c, 3, 60, 106
1, 21309, Note_on_c, 9, 42, 68
1, 21310, Note_off_c, 9, 42, 64
1, 21311, Note_off_c, 3, 62, 64
1, 21311, Note_on_c, 9, 64, 45
1, 21312, Note_on_c, 9, 35, 102
1, 21312, Note_off_c, 9, 64, 64
1, 21313, Note_off_c, 9, 35, 64
1, 21340, Lyric_t, "girl, "
1, 21340, Note_on_c, 3, 62, 103
1, 21348, Note_off_c, 3, 60, 64
1, 21374, Note_on_c, 9, 42, 67
1, 21375, Note_off_c, 9, 42, 64
1, 21375, Note_on_c, 9, 64, 42
1, 21376, Note_off_c, 9, 64, 64
1, 21406, Note_on_c, 9, 42, 71
1, 21406, Note_on_c, 2, 60, 120
1, 21406, Note_on_c, 2, 65, 120
1, 21406, Note_on_c, 2, 69, 120
1, 21407, Note_off_c, 9, 42, 64
1, 21407, Note_on_c, 9, 63, 110
1, 21408, Note_off_c, 3, 62, 64
1, 21408, Note_off_c, 5, 69, 64
1, 21408, Note_off_c, 5, 65, 64
1, 21408, Note_on_c, 9, 38, 113
1, 21408, Note_off_c, 9, 63, 64
1, 21409, Note_off_c, 9, 38, 64
1, 21424, Note_off_c, 0, 62, 64
1, 21428, Note_off_c, 0, 53, 64
1, 21431, Note_off_c, 0, 57, 64
1, 21433, Note_off_c, 8, 65, 64
1, 21434, Note_off_c, 8, 50, 64
1, 21436, Note_off_c, 8, 57, 64
1, 21437, Note_off_c, 2, 60, 64
1, 21438, Note_off_c, 2, 69, 64
1, 21442, Note_off_c, 1, 38, 64
1, 21445, Note_off_c, 2, 65, 64
1, 21449, Note_off_c, 0, 38, 64
1, 21470, Note_on_c, 9, 42, 65
1, 21470, Note_on_c, 9, 63, 101
1, 21471, Note_off_c, 9, 42, 64
1, 21471, Note_on_c, 9, 35, 95
1, 21471, Note_on_c, 0, 60, 85
1, 21471, Note_on_c, 0, 52, 86
1, 21471, Note_on_c, 0, 36, 76
1, 21471, Note_on_c, 0, 55, 90
1, 21471, Note_off_c, 9, 63, 64
1, 21472, Note_off_c, 9, 35, 64
1, 21472, Note_on_c, 1, 36, 92
1, 21489, Note_off_c, 1, 36, 64
1, 21501, Note_on_c, 9, 42, 69
1, 21502, Note_off_c, 9, 42, 64
1, 21502, Note_on_c, 1, 36, 94
1, 21503, Note_on_c, 9, 35, 101
1, 21503, Note_on_c, 8, 64, 61
1, 21504, Note_off_c, 9, 35, 64
1, 21504, Note_on_c, 8, 55, 67
1, 21504, Note_on_c, 8, 48, 61
1, 21556, Lyric_t, "a "
1, 21556, Note_on_c, 3, 55, 105
1, 21566, Note_on_c, 9, 42, 59
1, 21566, Note_on_c, 9, 64, 49
1, 21567, Note_off_c, 9, 42, 64
1, 21567, Note_off_c, 9, 64, 64
1, 21595, Lyric_t, "girl "
1, 21595, Note_on_c, 3, 60, 106
1, 21597, Note_off_c, 3, 55, 64
1, 21598, Note_on_c, 9, 38, 120
1, 21598, Note_on_c, 9, 42, 69
1, 21599, Note_off_c, 9, 42, 64
1, 21599, Note_off_c, 9, 38, 64
1, 21599, Note_on_c, 2, 64, 120
1, 21600, Note_on_c, 5, 76, 81
1, 21600, Note_off_c, 0, 52, 64
1, 21600, Note_on_c, 2, 67, 120
1, 21600, Note_on_c, 9, 62, 106
1, 21601, Note_on_c, 2, 72, 120
1, 21601, Note_off_c, 9, 62, 64
1, 21621, Note_off_c, 0, 55, 64
1, 21623, Note_off_c, 0, 60, 64
1, 21624, Note_off_c, 8, 48, 64
1, 21626, Note_off_c, 1, 36, 64
1, 21627, Note_off_c, 8, 55, 64
1, 21628, Note_off_c, 8, 64, 64
1, 21632, Note_off_c, 2, 67, 64
1, 21633, Note_off_c, 2, 72, 64
1, 21634, Note_off_c, 0, 36, 64
1, 21635, Note_off_c, 2, 64, 64
1, 21652, Note_off_c, 3, 60, 64
1, 21660, Note_on_c, 0, 38, 85
1, 21661, Lyric_t, "that's "
1, 21661, Note_on_c, 3, 60, 106
1, 21661, Note_on_c, 1, 38, 93
1, 21661, Note_on_c, 8, 65, 60
1, 21661, Note_on_c, 9, 64, 49
1, 21662, Note_on_c, 9, 42, 58
1, 21662, Note_on_c, 0, 62, 100
1, 21662, Note_on_c, 0, 53, 90
1, 21662, Note_on_c, 0, 57, 94
1, 21662, Note_on_c, 8, 57, 54
1, 21662, Note_on_c, 8, 50, 67
1, 21662, Note_off_c, 9, 64, 64
1, 21663, Note_off_c, 9, 42, 64
1, 21681, Note_off_c, 1, 38, 64
1, 21692, Note_on_c, 1, 38, 100
1, 21693, Note_on_c, 9, 42, 61
1, 21694, Note_off_c, 9, 42, 64
1, 21694, Note_on_c, 9, 64, 52
1, 21695, Note_off_c, 9, 64, 64
1, 21696, Note_off_c, 5, 76, 64
1, 21696, Note_on_c, 5, 74, 80
1, 21697, Note_on_c, 9, 35, 100
1, 21698, Note_off_c, 9, 35, 64
1, 21706, Note_off_c, 3, 60, 64
1, 21715, Lyric_t, "fine, "
1, 21715, Lyric_t, "\015"
1, 21715, Note_on_c, 3, 62, 101
1, 21757, Note_on_c, 9, 64, 54
1, 21758, Note_on_c, 9, 42, 59
1, 21758, Note_off_c, 0, 62, 64
1, 21758, Note_off_c, 9, 64, 64
1, 21759, Note_on_c, 3, 57, 98
1, 21759, Note_off_c, 9, 42, 64
1, 21760, Note_off_c, 5, 74, 64
1, 21760, Note_on_c, 5, 72, 77
1, 21760, Note_on_c, 0, 60, 74
1, 21761, Note_off_c, 3, 62, 64
1, 21777, Note_off_c, 0, 53, 64
1, 21781, Note_off_c, 0, 60, 64
1, 21784, Note_off_c, 0, 57, 64
1, 21788, Note_on_c, 9, 42, 71
1, 21789, Note_off_c, 9, 42, 64
1, 21790, Note_on_c, 9, 38, 110
1, 21791, Note_off_c, 5, 72, 64
1, 21791, Note_off_c, 9, 38, 64
1, 21791, Note_on_c, 0, 57, 72
1, 21791, Note_on_c, 0, 62, 86
1, 21791, Note_on_c, 2, 60, 120
1, 21791, Note_on_c, 2, 65, 120
1, 21791, Note_on_c, 9, 63, 103
1, 21792, Note_on_c, 0, 53, 84
1, 21792, Note_on_c, 2, 69, 120
1, 21792, Note_off_c, 9, 63, 64
1, 21798, Note_off_c, 8, 65, 64
1, 21805, Note_off_c, 8, 50, 64
1, 21805, Note_off_c, 8, 57, 64
1, 21810, Note_off_c, 3, 57, 64
1, 21815, Note_off_c, 2, 69, 64
1, 21816, Note_off_c, 2, 60, 64
1, 21820, Note_off_c, 0, 53, 64
1, 21820, Note_off_c, 0, 62, 64
1, 21821, Note_off_c, 0, 57, 64
1, 21823, Note_off_c, 2, 65, 64
1, 21828, Note_off_c, 1, 38, 64
1, 21837, Note_off_c, 0, 38, 64
1, 21850, Lyric_t, "and "
1, 21850, Note_on_c, 3, 55, 103
1, 21852, Note_on_c, 9, 63, 97
1, 21853, Note_off_c, 9, 63, 64
1, 21854, Note_on_c, 9, 42, 53
1, 21854, Note_on_c, 1, 36, 94
1, 21855, Note_off_c, 9, 42, 64
1, 21882, Note_off_c, 1, 36, 64
1, 21884, Note_on_c, 8, 48, 70
1, 21885, Note_on_c, 9, 42, 64
1, 21885, Note_on_c, 8, 64, 81
1, 21885, Note_on_c, 8, 55, 78
1, 21886, Note_off_c, 9, 42, 64
1, 21886, Note_on_c, 7, 72, 78
1, 21887, Note_on_c, 0, 64, 77
1, 21887, Note_on_c, 0, 36, 79
1, 21887, Note_on_c, 0, 72, 79
1, 21887, Note_on_c, 0, 67, 72
1, 21888, Note_on_c, 5, 67, 74
1, 21888, Note_on_c, 5, 64, 84
1, 21888, Note_on_c, 9, 35, 106
1, 21888, Note_on_c, 1, 36, 90
1, 21889, Note_off_c, 9, 35, 64
1, 21889, Note_on_c, 9, 64, 49
1, 21890, Note_off_c, 9, 64, 64
1, 21892, Note_off_c, 3, 55, 64
1, 21896, Lyric_t, "I'll "
1, 21896, Note_on_c, 3, 64, 109
1, 21950, Note_on_c, 9, 64, 53
1, 21951, Note_on_c, 9, 42, 64
1, 21951, Note_off_c, 9, 64, 64
1, 21952, Note_off_c, 9, 42, 64
1, 21982, Note_on_c, 9, 42, 72
1, 21982, Note_on_c, 2, 64, 120
1, 21983, Note_off_c, 9, 42, 64
1, 21983, Note_on_c, 9, 38, 109
1, 21983, Note_on_c, 2, 67, 120
1, 21983, Note_on_c, 2, 72, 120
1, 21984, Note_off_c, 9, 38, 64
1, 21984, Note_on_c, 9, 62, 110
1, 21985, Note_off_c, 9, 62, 64
1, 22003, Note_off_c, 0, 67, 64
1, 22003, Note_off_c, 0, 64, 64
1, 22004, Note_off_c, 8, 64, 64
1, 22005, Note_off_c, 8, 55, 64
1, 22006, Lyric_t, "choose "
1, 22006, Note_on_c, 3, 67, 101
1, 22009, Note_off_c, 0, 72, 64
1, 22010, Note_off_c, 3, 64, 64
1, 22012, Note_off_c, 8, 48, 64
1, 22013, Note_off_c, 7, 72, 64
1, 22016, Note_off_c, 1, 36, 64
1, 22016, Note_off_c, 2, 67, 64
1, 22018, Note_off_c, 2, 72, 64
1, 22020, Note_off_c, 2, 64, 64
1, 22021, Note_off_c, 0, 36, 64
1, 22043, Note_on_c, 8, 65, 66
1, 22043, Note_on_c, 8, 57, 61
1, 22044, Note_on_c, 0, 65, 86
1, 22044, Note_on_c, 0, 38, 78
1, 22044, Note_on_c, 0, 74, 101
1, 22044, Note_on_c, 0, 69, 92
1, 22044, Note_on_c, 7, 74, 94
1, 22044, Note_on_c, 8, 50, 68
1, 22045, Note_on_c, 9, 42, 61
1, 22045, Note_on_c, 1, 38, 92
1, 22046, Note_off_c, 9, 42, 64
1, 22046, Note_on_c, 9, 64, 48
1, 22047, Note_off_c, 9, 64, 64
1, 22048, Note_off_c, 5, 64, 64
1, 22048, Note_off_c, 5, 67, 64
1, 22048, Note_on_c, 5, 69, 80
1, 22048, Note_on_c, 5, 65, 76
1, 22049, Lyric_t, "the "
1, 22049, Note_on_c, 3, 64, 108
1, 22052, Note_off_c, 3, 67, 64
1, 22066, Note_off_c, 1, 38, 64
1, 22076, Note_on_c, 9, 42, 72
1, 22077, Note_off_c, 9, 42, 64
1, 22078, Note_on_c, 9, 35, 103
1, 22078, Note_on_c, 1, 38, 101
1, 22079, Note_off_c, 9, 35, 64
1, 22079, Note_on_c, 9, 64, 50
1, 22080, Note_off_c, 9, 64, 64
1, 22092, Lyric_t, "one "
1, 22092, Note_on_c, 3, 62, 105
1, 22096, Note_off_c, 3, 64, 64
1, 22140, Note_on_c, 9, 42, 57
1, 22141, Note_off_c, 9, 42, 64
1, 22142, Note_on_c, 9, 64, 51
1, 22143, Note_off_c, 9, 64, 64
1, 22152, Note_off_c, 3, 62, 64
1, 22172, Note_on_c, 9, 38, 110
1, 22172, Note_on_c, 9, 42, 68
1, 22173, Note_off_c, 9, 42, 64
1, 22173, Note_off_c, 9, 38, 64
1, 22175, Note_on_c, 9, 63, 97
1, 22176, Note_off_c, 5, 65, 64
1, 22176, Note_off_c, 5, 69, 64
1, 22176, Note_off_c, 9, 63, 64
1, 22177, Note_on_c, 2, 65, 120
1, 22177, Note_on_c, 2, 69, 120
1, 22177, Note_on_c, 2, 74, 120
1, 22188, Lyric_t, "with "
1, 22188, Note_on_c, 3, 60, 108
1, 22190, Note_off_c, 1, 38, 64
1, 22193, Note_off_c, 8, 65, 64
1, 22195, Note_off_c, 0, 65, 64
1, 22197, Note_off_c, 0, 69, 64
1, 22199, Note_off_c, 8, 57, 64
1, 22202, Note_off_c, 2, 65, 64
1, 22202, Note_off_c, 8, 50, 64
1, 22204, Note_off_c, 2, 74, 64
1, 22205, Note_off_c, 0, 74, 64
1, 22209, Note_off_c, 2, 69, 64
1, 22213, Note_off_c, 7, 74, 64
1, 22221, Note_off_c, 0, 38, 64
1, 22235, Note_on_c, 0, 67, 86
1, 22236, Note_on_c, 9, 42, 61
1, 22236, Note_on_c, 0, 40, 83
1, 22236, Note_on_c, 0, 71, 101
1, 22236, Note_on_c, 0, 76, 97
1, 22236, Note_on_c, 8, 67, 78
1, 22236, Note_on_c, 9, 63, 96
1, 22237, Note_off_c, 9, 42, 64
1, 22237, Note_on_c, 1, 28, 114
1, 22237, Note_on_c, 7, 76, 97
1, 22237, Note_on_c, 8, 59, 72
1, 22237, Note_off_c, 9, 63, 64
1, 22238, Lyric_t, "true "
1, 22238, Note_on_c, 3, 62, 109
1, 22238, Note_on_c, 8, 52, 66
1, 22240, Note_off_c, 3, 60, 64
1, 22267, Note_on_c, 9, 42, 64
1, 22268, Note_off_c, 9, 42, 64
1, 22269, Note_on_c, 9, 35, 103
1, 22270, Note_off_c, 9, 35, 64
1, 22278, Lyric_t, "lov"
1, 22278, Note_on_c, 3, 64, 108
1, 22282, Note_off_c, 3, 62, 64
1, 22321, Lyric_t, "in' "
1, 22321, Note_on_c, 3, 62, 106
1, 22328, Note_off_c, 3, 64, 64
1, 22332, Note_on_c, 9, 42, 63
1, 22333, Note_off_c, 9, 42, 64
1, 22335, Note_on_c, 9, 64, 49
1, 22336, Note_off_c, 9, 64, 64
1, 22356, Note_off_c, 3, 62, 64
1, 22366, Note_on_c, 9, 38, 105
1, 22366, Note_on_c, 9, 42, 76
1, 22366, Note_on_c, 2, 67, 120
1, 22366, Note_on_c, 2, 76, 120
1, 22367, Lyric_t, "ev"
1, 22367, Note_on_c, 3, 62, 110
1, 22367, Note_off_c, 9, 42, 64
1, 22367, Note_off_c, 9, 38, 64
1, 22367, Note_on_c, 2, 71, 120
1, 22368, Note_on_c, 5, 76, 87
1, 22369, Note_on_c, 9, 62, 90
1, 22370, Note_off_c, 9, 62, 64
1, 22390, Note_off_c, 2, 67, 64
1, 22390, Note_off_c, 8, 52, 64
1, 22392, Note_off_c, 8, 67, 64
1, 22393, Note_off_c, 2, 76, 64
1, 22395, Note_off_c, 8, 59, 64
1, 22396, Note_off_c, 0, 67, 64
1, 22401, Note_off_c, 2, 71, 64
1, 22402, Lyric_t, "'ry "
1, 22402, Note_on_c, 3, 60, 104
1, 22402, Note_off_c, 0, 71, 64
1, 22406, Note_off_c, 3, 62, 64
1, 22406, Note_off_c, 0, 76, 64
1, 22411, Note_off_c, 1, 28, 64
1, 22423, Note_off_c, 7, 76, 64
1, 22427, Note_off_c, 0, 40, 64
1, 22428, Note_on_c, 9, 42, 57
1, 22428, Note_on_c, 7, 77, 108
1, 22428, Note_on_c, 8, 69, 72
1, 22428, Note_on_c, 8, 60, 90
1, 22428, Note_on_c, 8, 53, 83
1, 22429, Note_off_c, 9, 42, 64
1, 22429, Note_on_c, 1, 29, 106
1, 22429, Note_on_c, 0, 41, 92
1, 22429, Note_on_c, 0, 69, 91
1, 22429, Note_on_c, 0, 77, 116
1, 22429, Note_on_c, 0, 72, 108
1, 22430, Note_on_c, 9, 64, 51
1, 22431, Note_off_c, 9, 64, 64
1, 22432, Note_off_c, 5, 76, 64
1, 22432, Note_on_c, 5, 74, 91
1, 22440, Lyric_t, "time, "
1, 22440, Lyric_t, "\015"
1, 22440, Note_on_c, 3, 62, 106
1, 22443, Note_off_c, 3, 60, 64
1, 22461, Note_on_c, 9, 42, 64
1, 22462, Note_off_c, 9, 42, 64
1, 22463, Note_on_c, 9, 35, 100
1, 22464, Note_off_c, 9, 35, 64
1, 22465, Lyric_t, "\012"
1, 22466, Note_on_c, 9, 64, 52
1, 22467, Note_off_c, 9, 64, 64
1, 22473, Note_off_c, 0, 69, 64
1, 22475, Note_off_c, 0, 72, 64
1, 22476, Note_off_c, 0, 41, 64
1, 22476, Note_off_c, 7, 77, 64
1, 22478, Note_off_c, 0, 77, 64
1, 22482, Note_off_c, 8, 60, 64
1, 22486, Note_off_c, 8, 69, 64
1, 22487, Note_off_c, 1, 29, 64
1, 22488, Note_off_c, 8, 53, 64
1, 22496, Note_off_c, 3, 62, 64
1, 22515, Lyric_t, "'cause "
1, 22515, Note_on_c, 3, 55, 101
1, 22525, Note_on_c, 9, 42, 51
1, 22525, Note_on_c, 1, 29, 95
1, 22525, Note_on_c, 0, 41, 103
1, 22525, Note_on_c, 0, 77, 103
1, 22525, Note_on_c, 0, 72, 108
1, 22525, Note_on_c, 0, 69, 100
1, 22525, Note_on_c, 7, 77, 114
1, 22526, Note_off_c, 9, 42, 64
1, 22526, Note_on_c, 8, 69, 92
1, 22526, Note_on_c, 8, 53, 95
1, 22526, Note_on_c, 8, 60, 98
1, 22527, Note_on_c, 9, 64, 53
1, 22528, Note_off_c, 5, 74, 64
1, 22528, Note_on_c, 5, 72, 70
1, 22528, Note_off_c, 9, 64, 64
1, 22553, Lyric_t, "I "
1, 22553, Note_on_c, 3, 64, 101
1, 22558, Note_on_c, 9, 42, 62
1, 22559, Note_off_c, 5, 72, 64
1, 22559, Note_off_c, 9, 42, 64
1, 22560, Note_off_c, 3, 55, 64
1, 22560, Note_on_c, 5, 69, 78
1, 22560, Note_on_c, 9, 38, 124
1, 22560, Note_on_c, 2, 69, 120
1, 22560, Note_on_c, 2, 72, 120
1, 22561, Note_off_c, 9, 38, 64
1, 22562, Note_on_c, 2, 77, 120
1, 22564, Note_on_c, 9, 63, 105
1, 22565, Note_off_c, 9, 63, 64
1, 22569, Note_off_c, 8, 53, 64
1, 22573, Note_off_c, 8, 60, 64
1, 22577, Note_off_c, 8, 69, 64
1, 22582, Note_off_c, 7, 77, 64
1, 22585, Note_off_c, 0, 69, 64
1, 22585, Note_off_c, 0, 77, 64
1, 22588, Note_off_c, 0, 72, 64
1, 22588, Note_off_c, 0, 41, 64
1, 22588, Note_off_c, 2, 77, 64
1, 22589, Note_off_c, 2, 69, 64
1, 22594, Note_on_c, 1, 31, 94
1, 22594, Note_off_c, 2, 72, 64
1, 22597, Note_off_c, 1, 29, 64
1, 22610, Note_off_c, 3, 64, 64
1, 22615, Lyric_t, "know "
1, 22615, Note_on_c, 3, 60, 94
1, 22622, Note_on_c, 9, 42, 52
1, 22622, Note_on_c, 1, 33, 95
1, 22623, Note_off_c, 9, 42, 64
1, 22624, Note_off_c, 5, 69, 64
1, 22625, Note_on_c, 9, 63, 95
1, 22626, Note_off_c, 1, 31, 64
1, 22626, Note_off_c, 9, 63, 64
1, 22646, Note_off_c, 1, 33, 64
1, 22648, Note_off_c, 3, 60, 64
1, 22653, Note_on_c, 9, 42, 63
1, 22654, Note_off_c, 9, 42, 64
1, 22654, Note_on_c, 0, 36, 79
1, 22654, Note_on_c, 0, 55, 86
1, 22654, Note_on_c, 0, 60, 87
1, 22654, Note_on_c, 0, 64, 87
1, 22654, Note_on_c, 7, 76, 105
1, 22654, Note_on_c, 8, 64, 104
1, 22654, Note_on_c, 8, 60, 95
1, 22655, Note_on_c, 8, 55, 83
1, 22656, Note_on_c, 4, 67, 64
1, 22656, Note_on_c, 4, 64, 71
1, 22656, Note_on_c, 4, 60, 75
1, 22656, Note_on_c, 9, 35, 104
1, 22657, Lyric_t, "beau"
1, 22657, Note_on_c, 3, 64, 109
1, 22657, Note_off_c, 9, 35, 64
1, 22657, Note_on_c, 1, 36, 114
1, 22697, Note_off_c, 8, 55, 64
1, 22706, Note_off_c, 8, 60, 64
1, 22711, Note_off_c, 8, 64, 64
1, 22713, Note_off_c, 7, 76, 64
1, 22714, Note_off_c, 3, 64, 64
1, 22716, Note_on_c, 8, 55, 81
1, 22717, Note_on_c, 8, 60, 86
1, 22718, Note_on_c, 8, 64, 80
1, 22719, Note_off_c, 4, 60, 64
1, 22719, Note_off_c, 4, 64, 64
1, 22719, Note_off_c, 4, 67, 64
1, 22719, Note_on_c, 9, 42, 53
1, 22720, Lyric_t, "ty's "
1, 22720, Note_on_c, 3, 64, 110
1, 22720, Note_on_c, 4, 67, 56
1, 22720, Note_on_c, 4, 64, 63
1, 22720, Note_on_c, 4, 60, 72
1, 22720, Note_off_c, 9, 42, 64
1, 22721, Note_on_c, 7, 76, 90
1, 22740, Note_off_c, 8, 60, 64
1, 22740, Note_off_c, 8, 55, 64
1, 22745, Note_off_c, 8, 64, 64
1, 22746, Note_off_c, 7, 76, 64
1, 22748, Note_off_c, 3, 64, 64
1, 22748, Note_on_c, 8, 64, 90
1, 22748, Note_on_c, 8, 60, 95
1, 22749, Note_on_c, 8, 55, 100
1, 22750, Lyric_t, "on"
1, 22750, Note_on_c, 3, 64, 113
1, 22750, Note_on_c, 9, 38, 102
1, 22750, Note_on_c, 9, 42, 58
1, 22751, Note_off_c, 4, 60, 64
1, 22751, Note_off_c, 4, 64, 64
1, 22751, Note_off_c, 4, 67, 64
1, 22751, Note_off_c, 9, 42, 64
1, 22751, Note_off_c, 9, 38, 64
1, 22751, Note_on_c, 2, 67, 120
1, 22751, Note_on_c, 2, 72, 120
1, 22751, Note_on_c, 2, 64, 120
1, 22751, Note_on_c, 7, 76, 96
1, 22751, Note_on_c, 9, 62, 109
1, 22752, Note_on_c, 4, 67, 52
1, 22752, Note_on_c, 4, 64, 60
1, 22752, Note_on_c, 4, 60, 80
1, 22752, Note_off_c, 9, 62, 64
1, 22754, Note_off_c, 1, 36, 64
1, 22773, Note_off_c, 0, 36, 64
1, 22780, Note_off_c, 2, 72, 64
1, 22781, Note_off_c, 0, 64, 64
1, 22782, Note_off_c, 0, 55, 64
1, 22783, Note_off_c, 2, 67, 64
1, 22785, Note_off_c, 0, 60, 64
1, 22785, Note_off_c, 2, 64, 64
1, 22793, Note_off_c, 8, 60, 64
1, 22793, Note_off_c, 8, 64, 64
1, 22795, Note_off_c, 8, 55, 64
1, 22796, Note_off_c, 7, 76, 64
1, 22804, Note_off_c, 3, 64, 64
1, 22811, Lyric_t, "ly "
1, 22811, Note_on_c, 3, 60, 102
1, 22812, Note_on_c, 9, 35, 100
1, 22812, Note_on_c, 0, 55, 76
1, 22812, Note_on_c, 0, 64, 74
1, 22812, Note_on_c, 0, 60, 80
1, 22813, Note_off_c, 9, 35, 64
1, 22813, Note_on_c, 9, 42, 57
1, 22813, Note_on_c, 1, 28, 111
1, 22814, Note_off_c, 9, 42, 64
1, 22814, Note_on_c, 0, 36, 81
1, 22815, Note_off_c, 4, 60, 64
1, 22815, Note_off_c, 4, 64, 64
1, 22815, Note_off_c, 4, 67, 64
1, 22815, Note_on_c, 9, 64, 45
1, 22816, Note_on_c, 4, 67, 50
1, 22816, Note_on_c, 4, 64, 57
1, 22816, Note_on_c, 4, 60, 74
1, 22816, Note_off_c, 9, 64, 64
1, 22824, Note_off_c, 0, 64, 64
1, 22826, Note_off_c, 0, 55, 64
1, 22826, Note_off_c, 0, 60, 64
1, 22836, Note_off_c, 3, 60, 64
1, 22844, Note_on_c, 9, 42, 56
1, 22845, Note_off_c, 9, 42, 64
1, 22845, Note_on_c, 7, 74, 97
1, 22846, Note_on_c, 9, 35, 102
1, 22846, Note_on_c, 8, 62, 95
1, 22846, Note_on_c, 8, 57, 85
1, 22847, Lyric_t, "skin "
1, 22847, Note_on_c, 3, 62, 116
1, 22847, Note_off_c, 4, 60, 64
1, 22847, Note_off_c, 4, 64, 64
1, 22847, Note_off_c, 4, 67, 64
1, 22847, Note_off_c, 9, 35, 64
1, 22847, Note_on_c, 1, 29, 98
1, 22847, Note_on_c, 0, 41, 91
1, 22847, Note_on_c, 0, 62, 98
1, 22847, Note_on_c, 0, 53, 100
1, 22847, Note_on_c, 0, 57, 98
1, 22847, Note_on_c, 9, 64, 45
1, 22848, Note_on_c, 4, 65, 72
1, 22848, Note_on_c, 4, 62, 80
1, 22848, Note_on_c, 4, 57, 71
1, 22848, Note_on_c, 8, 53, 92
1, 22848, Note_off_c, 9, 64, 64
1, 22851, Note_off_c, 1, 28, 64
1, 22853, Note_off_c, 0, 36, 64
1, 22901, Note_off_c, 8, 57, 64
1, 22904, Note_off_c, 8, 53, 64
1, 22907, Lyric_t, "deep, "
1, 22907, Lyric_t, "\015"
1, 22907, Note_on_c, 3, 60, 111
1, 22907, Note_off_c, 0, 62, 64
1, 22908, Note_off_c, 3, 62, 64
1, 22908, Note_off_c, 7, 74, 64
1, 22908, Note_on_c, 8, 53, 94
1, 22909, Note_on_c, 0, 60, 90
1, 22909, Note_on_c, 7, 72, 85
1, 22910, Note_on_c, 8, 60, 102
1, 22910, Note_on_c, 8, 57, 96
1, 22911, Note_off_c, 4, 57, 64
1, 22911, Note_off_c, 4, 65, 64
1, 22911, Note_on_c, 9, 42, 59
1, 22911, Note_on_c, 9, 64, 42
1, 22912, Note_off_c, 4, 62, 64
1, 22912, Note_on_c, 4, 65, 56
1, 22912, Note_on_c, 4, 57, 56
1, 22912, Note_on_c, 4, 60, 77
1, 22912, Note_off_c, 9, 42, 64
1, 22912, Note_off_c, 9, 64, 64
1, 22914, Note_off_c, 8, 62, 64
1, 22915, Note_off_c, 0, 57, 64
1, 22918, Note_off_c, 0, 53, 64
1, 22921, Note_off_c, 0, 60, 64
1, 22927, Note_off_c, 0, 41, 64
1, 22928, Note_off_c, 7, 72, 64
1, 22934, Note_off_c, 8, 53, 64
1, 22937, Note_off_c, 8, 60, 64
1, 22941, Note_off_c, 1, 29, 64
1, 22942, Note_on_c, 9, 38, 116
1, 22942, Note_on_c, 9, 42, 59
1, 22942, Note_on_c, 2, 60, 120
1, 22942, Note_on_c, 2, 65, 120
1, 22942, Note_off_c, 8, 57, 64
1, 22943, Note_off_c, 3, 60, 64
1, 22943, Note_off_c, 4, 60, 64
1, 22943, Note_off_c, 4, 57, 64
1, 22943, Note_off_c, 4, 65, 64
1, 22943, Note_off_c, 9, 42, 64
1, 22943, Note_off_c, 9, 38, 64
1, 22943, Note_on_c, 2, 69, 120
1, 22943, Note_on_c, 9, 63, 110
1, 22944, Note_off_c, 9, 63, 64
1, 22968, Note_off_c, 2, 69, 64
1, 22970, Note_off_c, 2, 60, 64
1, 22978, Note_off_c, 2, 65, 64
1, 23005, Note_on_c, 9, 42, 59
1, 23006, Note_off_c, 9, 42, 64
1, 23006, Note_on_c, 9, 63, 101
1, 23007, Note_off_c, 9, 63, 64
1, 23009, Note_on_c, 1, 33, 94
1, 23033, Lyric_t, "yeah, "
1, 23033, Note_on_c, 3, 55, 116
1, 23037, Note_on_c, 9, 42, 66
1, 23037, Note_off_c, 1, 33, 64
1, 23037, Note_on_c, 0, 43, 85
1, 23038, Note_off_c, 9, 42, 64
1, 23038, Note_on_c, 1, 31, 79
1, 23038, Note_on_c, 0, 59, 93
1, 23038, Note_on_c, 0, 67, 92
1, 23038, Note_on_c, 0, 62, 101
1, 23039, Note_on_c, 9, 35, 100
1, 23039, Note_on_c, 7, 79, 120
1, 23040, Note_on_c, 4, 55, 72
1, 23040, Note_on_c, 4, 62, 61
1, 23040, Note_on_c, 4, 59, 56
1, 23040, Note_off_c, 9, 35, 64
1, 23040, Note_on_c, 8, 67, 106
1, 23040, Note_on_c, 8, 59, 110
1, 23067, Note_off_c, 7, 79, 64
1, 23079, Note_off_c, 0, 59, 64
1, 23079, Note_off_c, 8, 59, 64
1, 23082, Note_off_c, 0, 62, 64
1, 23082, Note_off_c, 8, 67, 64
1, 23086, Note_off_c, 0, 67, 64
1, 23094, Note_off_c, 3, 55, 64
1, 23097, Lyric_t, "yeah, "
1, 23097, Note_on_c, 3, 57, 110
1, 23099, Note_off_c, 0, 43, 64
1, 23102, Note_on_c, 9, 42, 53
1, 23102, Note_on_c, 0, 45, 86
1, 23102, Note_on_c, 9, 64, 49
1, 23103, Note_off_c, 9, 42, 64
1, 23103, Note_on_c, 1, 33, 94
1, 23103, Note_on_c, 0, 60, 89
1, 23103, Note_on_c, 0, 69, 108
1, 23103, Note_on_c, 7, 81, 112
1, 23103, Note_off_c, 9, 64, 64
1, 23104, Note_off_c, 4, 59, 64
1, 23104, Note_off_c, 4, 62, 64
1, 23104, Note_off_c, 4, 55, 64
1, 23104, Note_on_c, 4, 57, 66
1, 23104, Note_on_c, 4, 60, 74
1, 23104, Note_on_c, 4, 65, 66
1, 23104, Note_on_c, 0, 65, 94
1, 23105, Note_on_c, 8, 60, 98
1, 23105, Note_on_c, 8, 69, 114
1, 23110, Note_off_c, 1, 31, 64
1, 23121, Note_off_c, 0, 60, 64
1, 23125, Note_off_c, 0, 65, 64
1, 23127, Note_off_c, 0, 69, 64
1, 23132, Note_on_c, 2, 60, 120
1, 23134, Note_on_c, 9, 42, 61
1, 23134, Note_on_c, 2, 65, 120
1, 23134, Note_on_c, 2, 69, 120
1, 23135, Note_off_c, 9, 42, 64
1, 23136, Note_on_c, 9, 38, 109
1, 23136, Note_on_c, 9, 62, 106
1, 23137, Note_off_c, 9, 38, 64
1, 23137, Note_off_c, 9, 62, 64
1, 23138, Note_off_c, 8, 60, 64
1, 23141, Note_off_c, 0, 45, 64
1, 23141, Note_off_c, 7, 81, 64
1, 23142, Note_off_c, 8, 69, 64
1, 23149, Note_off_c, 1, 33, 64
1, 23154, Note_off_c, 3, 57, 64
1, 23155, Note_off_c, 2, 60, 64
1, 23159, Note_off_c, 2, 69, 64
1, 23167, Note_off_c, 2, 65, 64
1, 23194, Lyric_t, "yeah, "
1, 23194, Lyric_t, "\015"
1, 23194, Note_on_c, 3, 60, 113
1, 23196, Note_on_c, 1, 31, 114
1, 23196, Note_on_c, 7, 84, 118
1, 23197, Note_on_c, 9, 42, 58
1, 23197, Note_on_c, 8, 72, 120
1, 23197, Note_on_c, 8, 64, 110
1, 23197, Note_on_c, 9, 64, 49
1, 23198, Note_off_c, 9, 42, 64
1, 23198, Note_on_c, 0, 48, 90
1, 23198, Note_off_c, 9, 64, 64
1, 23199, Note_off_c, 4, 60, 64
1, 23199, Note_on_c, 0, 67, 92
1, 23199, Note_on_c, 0, 64, 91
1, 23199, Note_on_c, 0, 72, 98
1, 23200, Note_off_c, 4, 65, 64
1, 23200, Note_off_c, 4, 57, 64
1, 23200, Note_on_c, 4, 60, 70
1, 23200, Note_on_c, 4, 67, 63
1, 23200, Note_on_c, 4, 64, 71
1, 23230, Note_on_c, 9, 42, 57
1, 23230, Note_on_c, 9, 64, 52
1, 23231, Note_off_c, 9, 42, 64
1, 23231, Note_on_c, 1, 28, 94
1, 23231, Note_off_c, 9, 64, 64
1, 23233, Note_on_c, 9, 35, 97
1, 23233, Note_off_c, 1, 31, 64
1, 23234, Note_off_c, 9, 35, 64
1, 23235, Note_off_c, 8, 64, 64
1, 23236, Note_off_c, 8, 72, 64
1, 23238, Note_off_c, 7, 84, 64
1, 23242, Note_off_c, 3, 60, 64
1, 23284, Note_off_c, 1, 28, 64
1, 23293, Note_on_c, 9, 42, 55
1, 23293, Note_on_c, 1, 31, 90
1, 23293, Note_on_c, 9, 64, 54
1, 23294, Note_off_c, 9, 42, 64
1, 23294, Note_off_c, 9, 64, 64
1, 23296, Note_off_c, 4, 64, 64
1, 23296, Note_off_c, 4, 67, 64
1, 23296, Note_off_c, 4, 60, 64
1, 23326, Note_on_c, 9, 42, 63
1, 23326, Note_on_c, 1, 33, 101
1, 23327, Note_off_c, 9, 42, 64
1, 23327, Note_on_c, 2, 64, 120
1, 23327, Note_on_c, 9, 63, 103
1, 23328, Note_on_c, 9, 38, 112
1, 23328, Note_off_c, 9, 63, 64
1, 23329, Note_off_c, 9, 38, 64
1, 23329, Note_on_c, 2, 67, 120
1, 23329, Note_on_c, 2, 72, 120
1, 23332, Note_off_c, 0, 72, 64
1, 23332, Note_off_c, 0, 64, 64
1, 23332, Note_off_c, 0, 67, 64
1, 23333, Note_off_c, 1, 31, 64
1, 23355, Note_off_c, 2, 67, 64
1, 23356, Note_off_c, 0, 48, 64
1, 23358, Note_off_c, 2, 72, 64
1, 23361, Note_off_c, 2, 64, 64
1, 23380, Note_off_c, 1, 33, 64
1, 23387, Note_on_c, 1, 35, 94
1, 23388, Note_on_c, 9, 42, 57
1, 23388, Note_on_c, 9, 63, 97
1, 23389, Note_off_c, 9, 42, 64
1, 23389, Note_off_c, 9, 63, 64
1, 23391, Note_on_c, 9, 35, 96
1, 23392, Note_off_c, 9, 35, 64
1, 23418, Lyric_t, "beau"
1, 23418, Note_on_c, 3, 64, 115
1, 23421, Note_on_c, 9, 42, 63
1, 23422, Note_off_c, 9, 42, 64
1, 23422, Note_on_c, 0, 36, 86
1, 23423, Note_on_c, 9, 35, 100
1, 23423, Note_off_c, 1, 35, 64
1, 23423, Note_on_c, 0, 72, 91
1, 23423, Note_on_c, 0, 64, 100
1, 23423, Note_on_c, 0, 60, 101
1, 23424, Note_on_c, 4, 55, 63
1, 23424, Note_on_c, 4, 60, 66
1, 23424, Note_on_c, 4, 64, 72
1, 23424, Note_off_c, 9, 35, 64
1, 23425, Note_on_c, 1, 36, 104
1, 23425, Note_on_c, 9, 64, 49
1, 23426, Note_off_c, 9, 64, 64
1, 23478, Lyric_t, "ty's "
1, 23478, Note_on_c, 3, 67, 109
1, 23485, Note_off_c, 3, 64, 64
1, 23486, Note_on_c, 9, 42, 51
1, 23486, Note_on_c, 9, 64, 53
1, 23487, Note_off_c, 4, 64, 64
1, 23487, Note_off_c, 4, 60, 64
1, 23487, Note_off_c, 9, 42, 64
1, 23487, Note_off_c, 9, 64, 64
1, 23488, Note_off_c, 4, 55, 64
1, 23488, Note_on_c, 4, 64, 51
1, 23488, Note_on_c, 4, 60, 49
1, 23488, Note_on_c, 4, 67, 63
1, 23507, Note_off_c, 3, 67, 64
1, 23512, Lyric_t, "on"
1, 23512, Note_on_c, 3, 67, 102
1, 23517, Note_on_c, 9, 42, 63
1, 23518, Note_off_c, 9, 42, 64
1, 23518, Note_on_c, 9, 38, 112
1, 23518, Note_on_c, 2, 64, 120
1, 23518, Note_on_c, 2, 67, 120
1, 23519, Note_off_c, 4, 67, 64
1, 23519, Note_off_c, 4, 60, 64
1, 23519, Note_off_c, 4, 64, 64
1, 23519, Note_off_c, 9, 38, 64
1, 23519, Note_on_c, 2, 72, 120
1, 23520, Note_on_c, 4, 60, 61
1, 23520, Note_on_c, 4, 67, 67
1, 23520, Note_on_c, 4, 64, 80
1, 23520, Note_on_c, 9, 62, 110
1, 23521, Note_off_c, 9, 62, 64
1, 23536, Note_off_c, 0, 60, 64
1, 23537, Note_off_c, 1, 36, 64
1, 23537, Note_off_c, 0, 64, 64
1, 23538, Note_off_c, 0, 72, 64
1, 23546, Note_off_c, 0, 36, 64
1, 23548, Note_off_c, 2, 72, 64
1, 23549, Note_off_c, 2, 67, 64
1, 23552, Note_off_c, 2, 64, 64
1, 23561, Note_off_c, 3, 67, 64
1, 23577, Lyric_t, "ly "
1, 23577, Note_on_c, 3, 67, 111
1, 23580, Note_on_c, 9, 42, 54
1, 23580, Note_on_c, 0, 72, 93
1, 23580, Note_on_c, 0, 36, 96
1, 23580, Note_on_c, 0, 60, 103
1, 23580, Note_on_c, 0, 64, 101
1, 23581, Note_off_c, 9, 42, 64
1, 23582, Note_on_c, 1, 29, 78
1, 23582, Note_on_c, 9, 64, 48
1, 23583, Note_off_c, 4, 64, 64
1, 23583, Note_off_c, 4, 67, 64
1, 23583, Note_off_c, 4, 60, 64
1, 23583, Note_off_c, 9, 64, 64
1, 23584, Note_on_c, 4, 67, 57
1, 23584, Note_on_c, 4, 60, 56
1, 23584, Note_on_c, 4, 64, 63
1, 23584, Note_on_c, 9, 35, 99
1, 23585, Note_off_c, 9, 35, 64
1, 23593, Note_off_c, 0, 64, 64
1, 23593, Note_off_c, 0, 72, 64
1, 23594, Note_off_c, 1, 29, 64
1, 23594, Note_off_c, 0, 60, 64
1, 23612, Lyric_t, "skin "
1, 23612, Note_on_c, 3, 69, 109
1, 23612, Note_on_c, 9, 42, 62
1, 23613, Note_off_c, 9, 42, 64
1, 23613, Note_on_c, 0, 41, 98
1, 23614, Note_on_c, 0, 62, 98
1, 23614, Note_on_c, 0, 53, 101
1, 23614, Note_on_c, 0, 57, 98
1, 23615, Note_off_c, 4, 64, 64
1, 23615, Note_off_c, 4, 60, 64
1, 23615, Note_off_c, 4, 67, 64
1, 23615, Note_on_c, 9, 35, 99
1, 23615, Note_on_c, 1, 29, 90
1, 23615, Note_on_c, 9, 64, 50
1, 23616, Note_on_c, 4, 60, 68
1, 23616, Note_on_c, 4, 65, 67
1, 23616, Note_on_c, 4, 69, 78
1, 23616, Note_off_c, 9, 35, 64
1, 23616, Note_off_c, 9, 64, 64
1, 23619, Note_off_c, 3, 67, 64
1, 23621, Note_off_c, 0, 36, 64
1, 23671, Note_off_c, 0, 62, 64
1, 23672, Lyric_t, "deep, "
1, 23672, Note_on_c, 3, 72, 115
1, 23675, Note_on_c, 0, 60, 82
1, 23677, Note_on_c, 9, 42, 54
1, 23678, Note_off_c, 9, 42, 64
1, 23678, Note_on_c, 9, 64, 51
1, 23679, Note_off_c, 4, 69, 64
1, 23679, Note_off_c, 4, 65, 64
1, 23679, Note_off_c, 9, 64, 64
1, 23680, Note_off_c, 4, 60, 64
1, 23680, Note_on_c, 4, 69, 68
1, 23680, Note_on_c, 4, 65, 57
1, 23680, Note_on_c, 4, 72, 77
1, 23682, Note_off_c, 3, 69, 64
1, 23682, Note_off_c, 0, 57, 64
1, 23684, Note_off_c, 0, 53, 64
1, 23690, Note_off_c, 0, 60, 64
1, 23692, Note_off_c, 0, 41, 64
1, 23707, Note_off_c, 1, 29, 64
1, 23710, Note_on_c, 9, 38, 115
1, 23710, Note_on_c, 9, 42, 59
1, 23710, Note_on_c, 2, 60, 120
1, 23710, Note_on_c, 2, 65, 120
1, 23711, Note_off_c, 4, 72, 64
1, 23711, Note_off_c, 4, 65, 64
1, 23711, Note_off_c, 4, 69, 64
1, 23711, Note_off_c, 9, 42, 64
1, 23711, Note_off_c, 9, 38, 64
1, 23711, Note_on_c, 2, 69, 120
1, 23711, Note_on_c, 9, 63, 97
1, 23712, Note_off_c, 9, 63, 64
1, 23723, Note_off_c, 3, 72, 64
1, 23733, Note_off_c, 2, 69, 64
1, 23734, Note_off_c, 2, 60, 64
1, 23742, Note_off_c, 2, 65, 64
1, 23772, Note_on_c, 9, 63, 96
1, 23773, Note_on_c, 9, 42, 53
1, 23773, Note_off_c, 9, 63, 64
1, 23774, Note_off_c, 9, 42, 64
1, 23774, Note_on_c, 9, 35, 93
1, 23775, Note_off_c, 9, 35, 64
1, 23776, Note_on_c, 1, 33, 101
1, 23801, Lyric_t, "oh "
1, 23801, Note_on_c, 3, 67, 112
1, 23804, Note_on_c, 9, 35, 100
1, 23804, Note_on_c, 0, 43, 82
1, 23804, Note_on_c, 0, 59, 100
1, 23805, Note_off_c, 9, 35, 64
1, 23805, Note_on_c, 9, 42, 62
1, 23805, Note_on_c, 0, 67, 87
1, 23805, Note_on_c, 0, 62, 98
1, 23805, Note_on_c, 8, 59, 95
1, 23806, Note_off_c, 9, 42, 64
1, 23806, Note_on_c, 8, 67, 95
1, 23808, Note_on_c, 4, 67, 67
1, 23808, Note_on_c, 4, 64, 72
1, 23809, Note_on_c, 7, 79, 114
1, 23810, Note_on_c, 1, 31, 94
1, 23812, Note_off_c, 1, 33, 64
1, 23841, Note_off_c, 8, 67, 64
1, 23842, Note_off_c, 8, 59, 64
1, 23843, Note_off_c, 7, 79, 64
1, 23851, Note_off_c, 0, 62, 64
1, 23851, Note_off_c, 0, 67, 64
1, 23851, Note_off_c, 0, 59, 64
1, 23855, Note_off_c, 1, 31, 64
1, 23857, Note_off_c, 0, 43, 64
1, 23861, Note_on_c, 3, 69, 106
1, 23866, Note_off_c, 3, 67, 64
1, 23869, Note_on_c, 9, 42, 49
1, 23869, Note_on_c, 0, 62, 94
1, 23869, Note_on_c, 0, 59, 92
1, 23869, Note_on_c, 0, 67, 85
1, 23869, Note_on_c, 0, 43, 90
1, 23870, Note_off_c, 9, 42, 64
1, 23870, Note_on_c, 8, 67, 97
1, 23871, Note_on_c, 8, 59, 97
1, 23871, Note_on_c, 9, 64, 49
1, 23872, Note_off_c, 4, 64, 64
1, 23872, Note_off_c, 4, 67, 64
1, 23872, Note_on_c, 4, 69, 60
1, 23872, Note_on_c, 4, 65, 64
1, 23872, Note_off_c, 9, 64, 64
1, 23873, Note_on_c, 1, 31, 97
1, 23873, Note_on_c, 7, 79, 114
1, 23902, Note_on_c, 9, 38, 108
1, 23902, Note_on_c, 9, 42, 50
1, 23902, Note_on_c, 2, 62, 120
1, 23902, Note_on_c, 2, 67, 120
1, 23903, Note_off_c, 9, 42, 64
1, 23903, Note_off_c, 9, 38, 64
1, 23903, Note_on_c, 2, 71, 120
1, 23904, Note_off_c, 0, 59, 64
1, 23905, Note_off_c, 0, 62, 64
1, 23905, Note_off_c, 0, 67, 64
1, 23905, Note_on_c, 9, 62, 90
1, 23906, Note_off_c, 7, 79, 64
1, 23906, Note_off_c, 9, 62, 64
1, 23910, Note_off_c, 8, 67, 64
1, 23912, Note_off_c, 8, 59, 64
1, 23914, Note_off_c, 0, 43, 64
1, 23916, Note_off_c, 3, 69, 64
1, 23918, Note_off_c, 1, 31, 64
1, 23925, Note_off_c, 2, 62, 64
1, 23929, Note_off_c, 2, 71, 64
1, 23936, Note_off_c, 4, 65, 64
1, 23936, Note_off_c, 4, 69, 64
1, 23936, Note_on_c, 4, 64, 50
1, 23936, Note_on_c, 4, 67, 52
1, 23936, Note_off_c, 2, 67, 64
1, 23945, Lyric_t, "yeah. "
1, 23945, Lyric_t, "\015"
1, 23945, Note_on_c, 3, 67, 109
1, 23963, Note_on_c, 7, 84, 114
1, 23965, Note_on_c, 0, 48, 93
1, 23965, Note_on_c, 8, 64, 114
1, 23965, Note_on_c, 8, 72, 127
1, 23966, Note_on_c, 9, 42, 55
1, 23966, Note_on_c, 1, 36, 105
1, 23966, Note_on_c, 0, 72, 97
1, 23966, Note_on_c, 0, 64, 114
1, 23966, Note_on_c, 0, 60, 103
1, 23966, Note_on_c, 9, 64, 51
1, 23967, Note_off_c, 4, 67, 64
1, 23967, Note_off_c, 4, 64, 64
1, 23967, Note_off_c, 9, 42, 64
1, 23967, Note_off_c, 9, 64, 64
1, 23968, Note_on_c, 4, 65, 55
1, 23968, Note_on_c, 4, 62, 63
1, 23970, Note_on_c, 3, 65, 102
1, 23973, Note_off_c, 3, 67, 64
1, 23986, Lyric_t, "\012"
1, 23999, Note_on_c, 3, 64, 106
1, 23999, Note_off_c, 4, 62, 64
1, 23999, Note_off_c, 4, 65, 64
1, 23999, Note_on_c, 9, 42, 63
1, 24000, Note_on_c, 4, 64, 60
1, 24000, Note_on_c, 4, 60, 63
1, 24000, Note_off_c, 9, 42, 64
1, 24002, Note_off_c, 3, 65, 64
1, 24002, Note_on_c, 9, 35, 98
1, 24002, Note_on_c, 9, 64, 52
1, 24003, Note_off_c, 9, 35, 64
1, 24003, Note_off_c, 9, 64, 64
1, 24004, Note_off_c, 8, 72, 64
1, 24008, Note_off_c, 8, 64, 64
1, 24010, Note_off_c, 7, 84, 64
1, 24044, Note_off_c, 3, 64, 64
1, 24062, Note_on_c, 9, 42, 55
1, 24063, Note_off_c, 9, 42, 64
1, 24063, Note_on_c, 9, 64, 53
1, 24064, Note_on_c, 9, 35, 103
1, 24064, Note_off_c, 9, 64, 64
1, 24065, Note_off_c, 9, 35, 64
1, 24066, Note_off_c, 4, 60, 64
1, 24066, Note_off_c, 4, 64, 64
1, 24067, Lyric_t, "So "
1, 24067, Note_on_c, 3, 57, 113
1, 24074, Note_off_c, 1, 36, 64
1, 24094, Note_on_c, 9, 42, 60
1, 24095, Note_off_c, 9, 42, 64
1, 24095, Note_on_c, 2, 64, 120
1, 24097, Note_on_c, 9, 38, 116
1, 24097, Note_on_c, 2, 67, 120
1, 24097, Note_on_c, 2, 72, 120
1, 24098, Note_off_c, 9, 38, 64
1, 24100, Note_on_c, 9, 63, 105
1, 24101, Note_off_c, 9, 63, 64
1, 24102, Lyric_t, "if "
1, 24102, Note_on_c, 3, 60, 102
1, 24104, Note_off_c, 0, 60, 64
1, 24104, Note_off_c, 0, 64, 64
1, 24105, Note_off_c, 0, 72, 64
1, 24106, Note_off_c, 3, 57, 64
1, 24112, Note_off_c, 0, 48, 64
1, 24125, Note_off_c, 2, 67, 64
1, 24129, Note_off_c, 2, 72, 64
1, 24130, Note_on_c, 1, 33, 105
1, 24130, Note_off_c, 2, 64, 64
1, 24143, Note_off_c, 1, 33, 64
1, 24148, Note_off_c, 3, 60, 64
1, 24154, Lyric_t, "you're "
1, 24154, Note_on_c, 3, 62, 106
1, 24157, Note_on_c, 9, 42, 54
1, 24158, Note_off_c, 9, 42, 64
1, 24159, Note_on_c, 9, 35, 94
1, 24160, Note_off_c, 9, 35, 64
1, 24161, Note_on_c, 9, 63, 95
1, 24162, Note_on_c, 1, 31, 94
1, 24162, Note_off_c, 9, 63, 64
1, 24182, Note_off_c, 1, 31, 64
1, 24189, Note_on_c, 9, 42, 63
1, 24190, Note_off_c, 9, 42, 64
1, 24191, Note_on_c, 9, 35, 102
1, 24192, Note_off_c, 9, 35, 64
1, 24192, Note_on_c, 1, 36, 114
1, 24193, Note_on_c, 0, 72, 94
1, 24193, Note_on_c, 0, 67, 86
1, 24193, Note_on_c, 0, 64, 93
1, 24193, Note_on_c, 0, 48, 90
1, 24196, Note_off_c, 3, 62, 64
1, 24199, Lyric_t, "look"
1, 24199, Note_on_c, 3, 64, 108
1, 24251, Lyric_t, "in' "
1, 24251, Note_off_c, 3, 64, 64
1, 24251, Note_on_c, 3, 62, 102
1, 24254, Note_on_c, 9, 42, 50
1, 24255, Note_off_c, 9, 42, 64
1, 24279, Note_off_c, 3, 62, 64
1, 24286, Note_on_c, 2, 72, 120
1, 24286, Note_on_c, 2, 64, 120
1, 24286, Note_on_c, 2, 67, 120
1, 24287, Note_on_c, 9, 38, 112
1, 24287, Note_on_c, 9, 42, 60
1, 24287, Note_on_c, 9, 62, 109
1, 24288, Note_off_c, 9, 42, 64
1, 24288, Note_off_c, 9, 38, 64
1, 24288, Note_off_c, 9, 62, 64
1, 24290, Lyric_t, "for "
1, 24290, Note_on_c, 3, 62, 108
1, 24302, Note_off_c, 1, 36, 64
1, 24316, Note_off_c, 2, 67, 64
1, 24318, Note_off_c, 0, 72, 64
1, 24320, Note_off_c, 2, 72, 64
1, 24322, Note_off_c, 2, 64, 64
1, 24325, Note_off_c, 0, 67, 64
1, 24325, Note_off_c, 0, 64, 64
1, 24341, Lyric_t, "a "
1, 24341, Note_on_c, 3, 60, 107
1, 24342, Note_off_c, 3, 62, 64
1, 24348, Note_on_c, 9, 42, 52
1, 24349, Note_off_c, 9, 42, 64
1, 24350, Note_off_c, 0, 48, 64
1, 24351, Note_on_c, 9, 64, 45
1, 24352, Note_on_c, 1, 28, 90
1, 24352, Note_off_c, 9, 64, 64
1, 24354, Note_on_c, 9, 35, 93
1, 24355, Note_off_c, 9, 35, 64
1, 24360, Note_off_c, 3, 60, 64
1, 24381, Note_on_c, 9, 42, 64
1, 24382, Note_off_c, 9, 42, 64
1, 24382, Note_on_c, 0, 41, 79
1, 24382, Note_on_c, 0, 65, 84
1, 24382, Note_on_c, 0, 69, 81
1, 24383, Note_on_c, 0, 60, 84
1, 24383, Note_on_c, 9, 64, 45
1, 24384, Lyric_t, "lov"
1, 24384, Note_on_c, 3, 62, 109
1, 24384, Note_on_c, 9, 35, 98
1, 24384, Note_off_c, 1, 28, 64
1, 24384, Note_on_c, 1, 29, 91
1, 24384, Note_off_c, 9, 64, 64
1, 24385, Note_off_c, 9, 35, 64
1, 24438, Lyric_t, "er, "
1, 24438, Lyric_t, "\015"
1, 24438, Note_on_c, 3, 64, 101
1, 24439, Note_off_c, 3, 62, 64
1, 24446, Note_on_c, 9, 42, 57
1, 24447, Note_off_c, 9, 42, 64
1, 24447, Note_on_c, 9, 64, 42
1, 24448, Note_off_c, 9, 64, 64
1, 24474, Note_off_c, 1, 29, 64
1, 24478, Note_on_c, 2, 60, 120
1, 24478, Note_on_c, 2, 65, 120
1, 24478, Note_on_c, 2, 69, 120
1, 24479, Note_on_c, 9, 42, 63
1, 24479, Note_on_c, 9, 63, 110
1, 24480, Note_off_c, 9, 42, 64
1, 24480, Note_on_c, 9, 38, 113
1, 24480, Note_off_c, 9, 63, 64
1, 24481, Note_off_c, 9, 38, 64
1, 24482, Note_off_c, 3, 64, 64
1, 24503, Note_off_c, 2, 69, 64
1, 24504, Note_off_c, 2, 60, 64
1, 24513, Note_off_c, 2, 65, 64
1, 24525, Note_off_c, 0, 60, 64
1, 24526, Note_off_c, 0, 69, 64
1, 24526, Note_off_c, 0, 65, 64
1, 24530, Note_off_c, 0, 41, 64
1, 24542, Note_on_c, 9, 42, 56
1, 24542, Note_on_c, 9, 63, 101
1, 24543, Note_off_c, 9, 42, 64
1, 24543, Note_on_c, 1, 33, 102
1, 24543, Note_off_c, 9, 63, 64
1, 24574, Note_on_c, 9, 42, 63
1, 24574, Note_on_c, 9, 35, 101
1, 24575, Note_off_c, 9, 35, 64
1, 24575, Note_off_c, 9, 42, 64
1, 24575, Note_on_c, 0, 43, 80
1, 24575, Note_on_c, 0, 59, 90
1, 24576, Lyric_t, "oh "
1, 24576, Note_on_c, 4, 67, 60
1, 24576, Note_on_c, 4, 64, 67
1, 24576, Note_on_c, 1, 31, 95
1, 24576, Note_on_c, 0, 62, 96
1, 24576, Note_on_c, 0, 67, 87
1, 24579, Note_off_c, 1, 33, 64
1, 24613, Note_off_c, 0, 59, 64
1, 24617, Note_off_c, 0, 67, 64
1, 24619, Note_off_c, 0, 62, 64
1, 24624, Note_off_c, 1, 31, 64
1, 24635, Note_off_c, 0, 43, 64
1, 24637, Note_on_c, 0, 45, 87
1, 24638, Note_on_c, 9, 42, 54
1, 24638, Note_on_c, 0, 65, 94
1, 24638, Note_on_c, 0, 69, 92
1, 24638, Note_on_c, 9, 64, 49
1, 24639, Note_off_c, 9, 42, 64
1, 24639, Note_on_c, 0, 60, 90
1, 24639, Note_off_c, 9, 64, 64
1, 24640, Note_off_c, 4, 64, 64
1, 24640, Note_off_c, 4, 67, 64
1, 24640, Note_on_c, 4, 69, 48
1, 24640, Note_on_c, 4, 65, 57
1, 24640, Note_on_c, 1, 33, 106
1, 24666, Note_off_c, 0, 60, 64
1, 24668, Note_off_c, 0, 69, 64
1, 24671, Note_on_c, 9, 38, 113
1, 24671, Note_on_c, 9, 42, 63
1, 24671, Note_on_c, 2, 60, 120
1, 24671, Note_on_c, 2, 65, 120
1, 24672, Note_off_c, 9, 42, 64
1, 24672, Note_off_c, 9, 38, 64
1, 24672, Note_off_c, 0, 65, 64
1, 24672, Note_on_c, 2, 69, 120
1, 24672, Note_on_c, 9, 62, 106
1, 24673, Note_off_c, 9, 62, 64
1, 24679, Note_off_c, 0, 45, 64
1, 24688, Note_off_c, 1, 33, 64
1, 24692, Note_off_c, 2, 60, 64
1, 24693, Note_off_c, 2, 69, 64
1, 24702, Note_off_c, 2, 65, 64
1, 24731, Note_on_c, 0, 72, 89
1, 24732, Note_on_c, 0, 64, 85
1, 24732, Note_on_c, 0, 67, 86
1, 24733, Note_on_c, 0, 48, 87
1, 24733, Note_on_c, 9, 64, 49
1, 24734, Note_on_c, 9, 42, 54
1, 24734, Note_on_c, 1, 36, 94
1, 24734, Note_off_c, 9, 64, 64
1, 24735, Note_off_c, 9, 42, 64
1, 24736, Lyric_t, "yeah, "
1, 24736, Lyric_t, "\015"
1, 24736, Note_off_c, 4, 65, 64
1, 24736, Note_off_c, 4, 69, 64
1, 24736, Note_on_c, 4, 64, 48
1, 24736, Note_on_c, 4, 67, 47
1, 24736, Note_on_c, 4, 60, 53
1, 24766, Note_on_c, 9, 35, 92
1, 24766, Note_on_c, 9, 64, 52
1, 24767, Note_off_c, 9, 35, 64
1, 24767, Note_on_c, 9, 42, 72
1, 24767, Note_off_c, 9, 64, 64
1, 24768, Note_off_c, 9, 42, 64
1, 24769, Lyric_t, "\012"
1, 24798, Note_on_c, 9, 38, 98
1, 24799, Note_off_c, 9, 38, 64
1, 24829, Note_on_c, 9, 64, 54
1, 24830, Note_on_c, 9, 38, 94
1, 24830, Note_off_c, 9, 64, 64
1, 24831, Note_off_c, 9, 38, 64
1, 24834, Note_off_c, 4, 60, 64
1, 24834, Note_off_c, 4, 67, 64
1, 24834, Note_off_c, 4, 64, 64
1, 24835, Lyric_t, "don't "
1, 24835, Note_on_c, 3, 64, 119
1, 24856, Note_off_c, 1, 36, 64
1, 24861, Note_on_c, 9, 38, 110
1, 24862, Note_off_c, 9, 38, 64
1, 24862, Note_on_c, 2, 64, 120
1, 24863, Note_on_c, 2, 67, 120
1, 24863, Note_on_c, 9, 63, 103
1, 24864, Note_on_c, 2, 72, 120
1, 24864, Note_off_c, 9, 63, 64
1, 24879, Note_off_c, 0, 67, 64
1, 24882, Note_off_c, 3, 64, 64
1, 24886, Note_off_c, 0, 72, 64
1, 24889, Lyric_t, "judge "
1, 24889, Note_on_c, 3, 67, 108
1, 24889, Note_off_c, 0, 64, 64
1, 24890, Note_off_c, 2, 67, 64
1, 24893, Note_on_c, 9, 38, 122
1, 24893, Note_off_c, 2, 72, 64
1, 24894, Note_off_c, 9, 38, 64
1, 24895, Note_off_c, 2, 64, 64
1, 24900, Note_off_c, 0, 48, 64
1, 24924, Note_on_c, 9, 38, 127
1, 24924, Note_on_c, 9, 63, 97
1, 24925, Note_off_c, 9, 38, 64
1, 24925, Note_off_c, 9, 63, 64
1, 24949, Lyric_t, "a "
1, 24949, Note_on_c, 3, 64, 110
1, 24951, Note_off_c, 3, 67, 64
1, 24956, Note_on_c, 0, 72, 100
1, 24956, Note_on_c, 0, 67, 93
1, 24956, Note_on_c, 0, 48, 86
1, 24956, Note_on_c, 0, 64, 94
1, 24958, Note_on_c, 9, 35, 108
1, 24959, Note_off_c, 9, 35, 64
1, 24959, Note_on_c, 9, 42, 74
1, 24960, Note_off_c, 9, 42, 64
1, 24960, Note_on_c, 1, 36, 100
1, 24961, Note_on_c, 9, 64, 49
1, 24962, Note_off_c, 9, 64, 64
1, 24970, Control_c, 3, 11, 126
1, 24970, Control_c, 4, 11, 126
1, 24970, Control_c, 9, 11, 126
1, 24970, Control_c, 1, 11, 126
1, 24970, Control_c, 0, 11, 126
1, 24970, Control_c, 2, 11, 126
1, 24991, Control_c, 3, 11, 124
1, 24991, Control_c, 4, 11, 124
1, 24991, Control_c, 9, 11, 124
1, 24991, Control_c, 1, 11, 124
1, 24991, Control_c, 0, 11, 124
1, 24991, Control_c, 2, 11, 124
1, 25001, Lyric_t, "book "
1, 25001, Note_on_c, 3, 62, 104
1, 25006, Note_off_c, 3, 64, 64
1, 25012, Control_c, 3, 11, 122
1, 25012, Control_c, 4, 11, 122
1, 25012, Control_c, 9, 11, 122
1, 25012, Control_c, 1, 11, 122
1, 25012, Control_c, 0, 11, 122
1, 25012, Control_c, 2, 11, 122
1, 25022, Note_on_c, 9, 42, 58
1, 25022, Note_on_c, 9, 64, 53
1, 25023, Note_off_c, 9, 42, 64
1, 25023, Note_off_c, 9, 64, 64
1, 25034, Control_c, 3, 11, 120
1, 25034, Control_c, 4, 11, 120
1, 25034, Control_c, 9, 11, 120
1, 25034, Control_c, 1, 11, 120
1, 25034, Control_c, 0, 11, 120
1, 25034, Control_c, 2, 11, 120
1, 25046, Note_off_c, 3, 62, 64
1, 25052, Note_on_c, 2, 64, 120
1, 25053, Note_on_c, 2, 67, 120
1, 25053, Note_on_c, 2, 72, 120
1, 25054, Note_on_c, 9, 38, 115
1, 25055, Control_c, 3, 11, 118
1, 25055, Control_c, 4, 11, 118
1, 25055, Note_off_c, 9, 38, 64
1, 25055, Control_c, 9, 11, 118
1, 25055, Note_on_c, 9, 42, 64
1, 25055, Control_c, 1, 11, 118
1, 25055, Control_c, 0, 11, 118
1, 25055, Control_c, 2, 11, 118
1, 25056, Note_off_c, 9, 42, 64
1, 25056, Note_on_c, 9, 62, 110
1, 25057, Note_off_c, 9, 62, 64
1, 25061, Lyric_t, "by "
1, 25061, Note_on_c, 3, 60, 109
1, 25069, Note_off_c, 1, 36, 64
1, 25076, Control_c, 3, 11, 116
1, 25076, Control_c, 4, 11, 116
1, 25076, Control_c, 9, 11, 116
1, 25076, Control_c, 1, 11, 116
1, 25076, Control_c, 0, 11, 116
1, 25076, Control_c, 2, 11, 116
1, 25077, Note_off_c, 2, 67, 64
1, 25079, Note_off_c, 2, 72, 64
1, 25086, Note_off_c, 2, 64, 64
1, 25094, Note_on_c, 3, 62, 98
1, 25097, Control_c, 3, 11, 114
1, 25097, Control_c, 4, 11, 114
1, 25097, Control_c, 9, 11, 114
1, 25097, Control_c, 1, 11, 114
1, 25097, Control_c, 0, 11, 114
1, 25097, Control_c, 2, 11, 114
1, 25100, Note_off_c, 3, 60, 64
1, 25102, Note_off_c, 0, 72, 64
1, 25109, Note_off_c, 0, 67, 64
1, 25109, Note_off_c, 0, 64, 64
1, 25117, Note_on_c, 9, 42, 53
1, 25118, Control_c, 3, 11, 112
1, 25118, Control_c, 4, 11, 112
1, 25118, Note_off_c, 9, 42, 64
1, 25118, Control_c, 9, 11, 112
1, 25118, Control_c, 1, 11, 112
1, 25118, Note_on_c, 1, 36, 94
1, 25118, Control_c, 0, 11, 112
1, 25118, Control_c, 2, 11, 112
1, 25118, Note_on_c, 9, 64, 48
1, 25119, Note_off_c, 9, 64, 64
1, 25124, Lyric_t, "its "
1, 25124, Note_on_c, 3, 64, 103
1, 25126, Note_off_c, 1, 36, 64
1, 25133, Note_off_c, 3, 62, 64
1, 25139, Control_c, 3, 11, 110
1, 25139, Control_c, 4, 11, 110
1, 25139, Control_c, 9, 11, 110
1, 25139, Control_c, 1, 11, 110
1, 25139, Control_c, 0, 11, 110
1, 25139, Control_c, 2, 11, 110
1, 25141, Note_off_c, 0, 48, 64
1, 25148, Note_on_c, 0, 41, 85
1, 25149, Note_on_c, 0, 69, 90
1, 25149, Note_on_c, 0, 65, 92
1, 25149, Note_on_c, 0, 60, 94
1, 25150, Note_on_c, 9, 42, 60
1, 25151, Note_off_c, 9, 42, 64
1, 25151, Note_on_c, 9, 64, 50
1, 25152, Note_on_c, 1, 29, 99
1, 25152, Note_off_c, 9, 64, 64
1, 25153, Note_on_c, 9, 35, 96
1, 25154, Note_off_c, 9, 35, 64
1, 25161, Control_c, 3, 11, 108
1, 25161, Control_c, 4, 11, 108
1, 25161, Control_c, 9, 11, 108
1, 25161, Control_c, 1, 11, 108
1, 25161, Control_c, 0, 11, 108
1, 25161, Control_c, 2, 11, 108
1, 25168, Note_off_c, 3, 64, 64
1, 25171, Lyric_t, "cov"
1, 25171, Note_on_c, 3, 62, 101
1, 25182, Control_c, 3, 11, 106
1, 25182, Control_c, 4, 11, 106
1, 25182, Control_c, 9, 11, 106
1, 25182, Control_c, 1, 11, 106
1, 25182, Control_c, 0, 11, 106
1, 25182, Control_c, 2, 11, 106
1, 25203, Control_c, 3, 11, 104
1, 25203, Note_on_c, 3, 60, 101
1, 25203, Control_c, 4, 11, 104
1, 25203, Control_c, 9, 11, 104
1, 25203, Control_c, 1, 11, 104
1, 25203, Control_c, 0, 11, 104
1, 25203, Control_c, 2, 11, 104
1, 25212, Note_off_c, 3, 62, 64
1, 25214, Note_on_c, 9, 42, 45
1, 25214, Note_on_c, 9, 64, 51
1, 25215, Note_off_c, 9, 42, 64
1, 25215, Note_off_c, 9, 64, 64
1, 25224, Control_c, 3, 11, 102
1, 25224, Control_c, 4, 11, 102
1, 25224, Control_c, 9, 11, 102
1, 25224, Control_c, 1, 11, 102
1, 25224, Control_c, 0, 11, 102
1, 25224, Control_c, 2, 11, 102
1, 25236, Lyric_t, "er, "
1, 25236, Lyric_t, "\015"
1, 25236, Note_on_c, 3, 57, 98
1, 25243, Note_off_c, 3, 60, 64
1, 25245, Control_c, 3, 11, 100
1, 25245, Control_c, 4, 11, 100
1, 25245, Control_c, 9, 11, 100
1, 25245, Control_c, 1, 11, 100
1, 25245, Control_c, 0, 11, 100
1, 25245, Control_c, 2, 11, 100
1, 25246, Note_on_c, 2, 60, 120
1, 25247, Note_on_c, 9, 38, 113
1, 25247, Note_on_c, 9, 42, 58
1, 25247, Note_on_c, 2, 65, 120
1, 25247, Note_on_c, 2, 69, 120
1, 25247, Note_on_c, 9, 63, 97
1, 25248, Note_off_c, 9, 42, 64
1, 25248, Note_off_c, 9, 38, 64
1, 25248, Note_off_c, 9, 63, 64
1, 25254, Note_off_c, 1, 29, 64
1, 25266, Control_c, 3, 11, 98
1, 25266, Control_c, 4, 11, 98
1, 25266, Control_c, 9, 11, 98
1, 25266, Control_c, 1, 11, 98
1, 25266, Control_c, 0, 11, 98
1, 25266, Control_c, 2, 11, 98
1, 25268, Note_off_c, 2, 69, 64
1, 25268, Note_off_c, 2, 60, 64
1, 25276, Note_off_c, 0, 69, 64
1, 25279, Note_off_c, 0, 60, 64
1, 25279, Note_off_c, 2, 65, 64
1, 25284, Note_off_c, 0, 65, 64
1, 25288, Control_c, 3, 11, 96
1, 25288, Control_c, 4, 11, 96
1, 25288, Control_c, 9, 11, 96
1, 25288, Control_c, 1, 11, 96
1, 25288, Control_c, 0, 11, 96
1, 25288, Control_c, 2, 11, 96
1, 25290, Note_off_c, 3, 57, 64
1, 25301, Note_off_c, 0, 41, 64
1, 25308, Note_on_c, 9, 63, 96
1, 25309, Control_c, 3, 11, 94
1, 25309, Control_c, 4, 11, 94
1, 25309, Control_c, 9, 11, 94
1, 25309, Note_on_c, 9, 42, 50
1, 25309, Control_c, 1, 11, 94
1, 25309, Control_c, 0, 11, 94
1, 25309, Control_c, 2, 11, 94
1, 25309, Note_off_c, 9, 63, 64
1, 25310, Note_off_c, 9, 42, 64
1, 25310, Note_on_c, 1, 33, 105
1, 25330, Control_c, 3, 11, 92
1, 25330, Control_c, 4, 11, 92
1, 25330, Control_c, 9, 11, 92
1, 25330, Control_c, 1, 11, 92
1, 25330, Control_c, 0, 11, 92
1, 25330, Control_c, 2, 11, 92
1, 25342, Note_on_c, 9, 42, 64
1, 25343, Note_off_c, 9, 42, 64
1, 25343, Note_on_c, 9, 35, 100
1, 25344, Lyric_t, "oh "
1, 25344, Note_on_c, 4, 67, 60
1, 25344, Note_on_c, 4, 64, 67
1, 25344, Note_off_c, 9, 35, 64
1, 25344, Note_on_c, 0, 43, 79
1, 25344, Note_on_c, 0, 62, 90
1, 25344, Note_on_c, 0, 59, 85
1, 25345, Note_on_c, 1, 31, 94
1, 25345, Note_on_c, 0, 67, 87
1, 25346, Note_off_c, 1, 33, 64
1, 25351, Control_c, 3, 11, 90
1, 25351, Control_c, 4, 11, 90
1, 25351, Control_c, 9, 11, 90
1, 25351, Control_c, 1, 11, 90
1, 25351, Control_c, 0, 11, 90
1, 25351, Control_c, 2, 11, 90
1, 25372, Control_c, 3, 11, 88
1, 25372, Control_c, 4, 11, 88
1, 25372, Control_c, 9, 11, 88
1, 25372, Control_c, 1, 11, 88
1, 25372, Control_c, 0, 11, 88
1, 25372, Control_c, 2, 11, 88
1, 25387, Note_off_c, 0, 67, 64
1, 25387, Note_off_c, 0, 59, 64
1, 25387, Note_off_c, 0, 62, 64
1, 25389, Note_off_c, 0, 43, 64
1, 25390, Note_off_c, 1, 31, 64
1, 25393, Control_c, 3, 11, 86
1, 25393, Control_c, 4, 11, 86
1, 25393, Control_c, 9, 11, 86
1, 25393, Control_c, 1, 11, 86
1, 25393, Control_c, 0, 11, 86
1, 25393, Control_c, 2, 11, 86
1, 25406, Note_on_c, 9, 42, 49
1, 25406, Note_on_c, 0, 43, 83
1, 25407, Note_off_c, 9, 42, 64
1, 25407, Note_on_c, 0, 59, 85
1, 25407, Note_on_c, 0, 62, 93
1, 25407, Note_on_c, 0, 67, 84
1, 25407, Note_on_c, 9, 64, 49
1, 25408, Note_off_c, 4, 64, 64
1, 25408, Note_off_c, 4, 67, 64
1, 25408, Note_on_c, 4, 69, 48
1, 25408, Note_on_c, 4, 65, 57
1, 25408, Note_on_c, 1, 31, 100
1, 25408, Note_off_c, 9, 64, 64
1, 25415, Control_c, 3, 11, 84
1, 25415, Control_c, 4, 11, 84
1, 25415, Control_c, 9, 11, 84
1, 25415, Control_c, 1, 11, 84
1, 25415, Control_c, 0, 11, 84
1, 25415, Control_c, 2, 11, 84
1, 25428, Note_off_c, 0, 59, 64
1, 25433, Note_off_c, 0, 67, 64
1, 25433, Note_off_c, 0, 62, 64
1, 25436, Control_c, 3, 11, 82
1, 25436, Control_c, 4, 11, 82
1, 25436, Control_c, 9, 11, 82
1, 25436, Control_c, 1, 11, 82
1, 25436, Control_c, 0, 11, 82
1, 25436, Control_c, 2, 11, 82
1, 25438, Note_on_c, 9, 38, 112
1, 25438, Note_on_c, 2, 62, 120
1, 25438, Note_on_c, 2, 67, 120
1, 25439, Note_off_c, 9, 38, 64
1, 25439, Note_on_c, 2, 71, 120
1, 25440, Note_on_c, 9, 42, 64
1, 25441, Note_off_c, 9, 42, 64
1, 25441, Note_on_c, 9, 62, 90
1, 25442, Note_off_c, 9, 62, 64
1, 25447, Note_off_c, 0, 43, 64
1, 25453, Note_off_c, 1, 31, 64
1, 25457, Control_c, 3, 11, 80
1, 25457, Control_c, 4, 11, 80
1, 25457, Control_c, 9, 11, 80
1, 25457, Control_c, 1, 11, 80
1, 25457, Control_c, 0, 11, 80
1, 25457, Control_c, 2, 11, 80
1, 25467, Note_off_c, 2, 62, 64
1, 25470, Note_off_c, 2, 71, 64
1, 25475, Note_off_c, 2, 67, 64
1, 25478, Control_c, 3, 11, 78
1, 25478, Control_c, 4, 11, 78
1, 25478, Control_c, 9, 11, 78
1, 25478, Control_c, 1, 11, 78
1, 25478, Control_c, 0, 11, 78
1, 25478, Control_c, 2, 11, 78
1, 25499, Control_c, 3, 11, 76
1, 25499, Control_c, 4, 11, 76
1, 25499, Control_c, 9, 11, 76
1, 25499, Control_c, 1, 11, 76
1, 25499, Control_c, 0, 11, 76
1, 25499, Control_c, 2, 11, 76
1, 25501, Note_on_c, 1, 36, 105
1, 25501, Note_on_c, 0, 72, 90
1, 25501, Note_on_c, 0, 64, 87
1, 25501, Note_on_c, 0, 67, 86
1, 25502, Note_on_c, 9, 42, 52
1, 25502, Note_on_c, 0, 48, 91
1, 25502, Note_on_c, 9, 64, 51
1, 25503, Note_off_c, 9, 42, 64
1, 25503, Note_off_c, 9, 64, 64
1, 25504, Lyric_t, "yeah. "
1, 25504, Lyric_t, "\015"
1, 25504, Note_off_c, 4, 65, 64
1, 25504, Note_off_c, 4, 69, 64
1, 25504, Note_on_c, 4, 64, 48
1, 25504, Note_on_c, 4, 67, 47
1, 25504, Note_on_c, 4, 60, 53
1, 25520, Control_c, 3, 11, 74
1, 25520, Control_c, 4, 11, 74
1, 25520, Control_c, 9, 11, 74
1, 25520, Control_c, 1, 11, 74
1, 25520, Control_c, 0, 11, 74
1, 25520, Control_c, 2, 11, 74
1, 25534, Note_on_c, 9, 35, 95
1, 25535, Note_off_c, 9, 35, 64
1, 25536, Note_on_c, 9, 42, 71
1, 25537, Lyric_t, "\012"
1, 25537, Note_off_c, 9, 42, 64
1, 25538, Note_on_c, 9, 64, 52
1, 25539, Note_off_c, 9, 64, 64
1, 25542, Control_c, 3, 11, 72
1, 25542, Control_c, 4, 11, 72
1, 25542, Control_c, 9, 11, 72
1, 25542, Control_c, 1, 11, 72
1, 25542, Control_c, 0, 11, 72
1, 25542, Control_c, 2, 11, 72
1, 25563, Control_c, 3, 11, 70
1, 25563, Control_c, 4, 11, 70
1, 25563, Control_c, 9, 11, 70
1, 25563, Control_c, 1, 11, 70
1, 25563, Control_c, 0, 11, 70
1, 25563, Control_c, 2, 11, 70
1, 25568, Note_on_c, 9, 38, 92
1, 25569, Note_off_c, 9, 38, 64
1, 25584, Control_c, 3, 11, 68
1, 25584, Control_c, 4, 11, 68
1, 25584, Control_c, 9, 11, 68
1, 25584, Control_c, 1, 11, 68
1, 25584, Control_c, 0, 11, 68
1, 25584, Control_c, 2, 11, 68
1, 25599, Note_on_c, 9, 64, 53
1, 25600, Note_on_c, 9, 38, 88
1, 25600, Note_off_c, 9, 64, 64
1, 25601, Note_off_c, 9, 38, 64
1, 25602, Note_off_c, 4, 60, 64
1, 25602, Note_off_c, 4, 67, 64
1, 25602, Note_off_c, 4, 64, 64
1, 25603, Lyric_t, "She "
1, 25603, Note_on_c, 3, 57, 111
1, 25605, Control_c, 3, 11, 66
1, 25605, Control_c, 4, 11, 66
1, 25605, Control_c, 9, 11, 66
1, 25605, Control_c, 1, 11, 66
1, 25605, Control_c, 0, 11, 66
1, 25605, Control_c, 2, 11, 66
1, 25618, Note_off_c, 1, 36, 64
1, 25625, Note_off_c, 3, 57, 64
1, 25626, Control_c, 3, 11, 64
1, 25626, Control_c, 4, 11, 64
1, 25626, Control_c, 9, 11, 64
1, 25626, Control_c, 1, 11, 64
1, 25626, Control_c, 0, 11, 64
1, 25626, Control_c, 2, 11, 64
1, 25629, Lyric_t, "may "
1, 25629, Note_on_c, 3, 60, 104
1, 25631, Note_on_c, 9, 38, 106
1, 25632, Note_off_c, 9, 38, 64
1, 25634, Note_on_c, 2, 64, 120
1, 25634, Note_on_c, 2, 67, 120
1, 25635, Note_on_c, 2, 72, 120
1, 25636, Note_on_c, 9, 63, 105
1, 25637, Note_off_c, 9, 63, 64
1, 25647, Control_c, 3, 11, 62
1, 25647, Control_c, 4, 11, 62
1, 25647, Control_c, 9, 11, 62
1, 25647, Control_c, 1, 11, 62
1, 25647, Control_c, 0, 11, 62
1, 25647, Control_c, 2, 11, 62
1, 25648, Note_off_c, 0, 72, 64
1, 25649, Note_off_c, 0, 64, 64
1, 25653, Note_off_c, 0, 67, 64
1, 25655, Note_off_c, 0, 48, 64
1, 25657, Lyric_t, "be "
1, 25657, Note_on_c, 3, 62, 102
1, 25659, Note_off_c, 2, 72, 64
1, 25660, Note_off_c, 2, 67, 64
1, 25662, Note_on_c, 9, 38, 113
1, 25663, Note_off_c, 9, 38, 64
1, 25666, Note_on_c, 1, 33, 94
1, 25667, Note_off_c, 2, 64, 64
1, 25669, Control_c, 3, 11, 60
1, 25669, Control_c, 4, 11, 60
1, 25669, Control_c, 9, 11, 60
1, 25669, Control_c, 1, 11, 60
1, 25669, Control_c, 0, 11, 60
1, 25669, Control_c, 2, 11, 60
1, 25670, Note_off_c, 3, 60, 64
1, 25674, Note_off_c, 1, 33, 64
1, 25690, Control_c, 3, 11, 58
1, 25690, Control_c, 4, 11, 58
1, 25690, Control_c, 9, 11, 58
1, 25690, Control_c, 1, 11, 58
1, 25690, Control_c, 0, 11, 58
1, 25690, Control_c, 2, 11, 58
1, 25694, Note_off_c, 3, 62, 64
1, 25694, Note_on_c, 3, 64, 101
1, 25694, Note_on_c, 9, 38, 120
1, 25694, Note_on_c, 1, 31, 88
1, 25695, Note_off_c, 9, 38, 64
1, 25697, Note_on_c, 9, 63, 95
1, 25698, Note_off_c, 9, 63, 64
1, 25707, Note_off_c, 1, 31, 64
1, 25711, Control_c, 3, 11, 56
1, 25711, Control_c, 4, 11, 56
1, 25711, Control_c, 9, 11, 56
1, 25711, Control_c, 1, 11, 56
1, 25711, Control_c, 0, 11, 56
1, 25711, Control_c, 2, 11, 56
1, 25723, Note_off_c, 3, 64, 64
1, 25725, Note_on_c, 1, 36, 102
1, 25726, Note_on_c, 0, 72, 90
1, 25726, Note_on_c, 0, 64, 91
1, 25726, Note_on_c, 0, 67, 86
1, 25727, Note_on_c, 9, 42, 64
1, 25728, Lyric_t, "fine "
1, 25728, Note_on_c, 3, 64, 110
1, 25728, Note_off_c, 9, 42, 64
1, 25728, Note_on_c, 9, 35, 104
1, 25728, Note_on_c, 0, 48, 83
1, 25729, Note_off_c, 9, 35, 64
1, 25732, Control_c, 3, 11, 54
1, 25732, Control_c, 4, 11, 54
1, 25732, Control_c, 9, 11, 54
1, 25732, Control_c, 1, 11, 54
1, 25732, Control_c, 0, 11, 54
1, 25732, Control_c, 2, 11, 54
1, 25753, Control_c, 3, 11, 52
1, 25753, Control_c, 4, 11, 52
1, 25753, Control_c, 9, 11, 52
1, 25753, Control_c, 1, 11, 52
1, 25753, Control_c, 0, 11, 52
1, 25753, Control_c, 2, 11, 52
1, 25774, Control_c, 3, 11, 50
1, 25774, Control_c, 4, 11, 50
1, 25774, Control_c, 9, 11, 50
1, 25774, Control_c, 1, 11, 50
1, 25774, Control_c, 0, 11, 50
1, 25774, Control_c, 2, 11, 50
1, 25791, Note_on_c, 9, 42, 55
1, 25792, Note_off_c, 9, 42, 64
1, 25796, Control_c, 3, 11, 48
1, 25796, Control_c, 4, 11, 48
1, 25796, Control_c, 9, 11, 48
1, 25796, Control_c, 1, 11, 48
1, 25796, Control_c, 0, 11, 48
1, 25796, Control_c, 2, 11, 48
1, 25815, Note_off_c, 3, 64, 64
1, 25817, Control_c, 3, 11, 46
1, 25817, Control_c, 4, 11, 46
1, 25817, Control_c, 9, 11, 46
1, 25817, Control_c, 1, 11, 46
1, 25817, Control_c, 0, 11, 46
1, 25817, Control_c, 2, 11, 46
1, 25821, Note_on_c, 2, 64, 120
1, 25822, Note_on_c, 2, 67, 120
1, 25822, Note_on_c, 2, 72, 120
1, 25823, Lyric_t, "on "
1, 25823, Note_on_c, 3, 62, 107
1, 25823, Note_on_c, 9, 38, 113
1, 25823, Note_on_c, 9, 42, 66
1, 25823, Note_on_c, 9, 62, 109
1, 25824, Note_off_c, 9, 42, 64
1, 25824, Note_off_c, 9, 38, 64
1, 25824, Note_off_c, 9, 62, 64
1, 25838, Control_c, 3, 11, 44
1, 25838, Control_c, 4, 11, 44
1, 25838, Control_c, 9, 11, 44
1, 25838, Control_c, 1, 11, 44
1, 25838, Control_c, 0, 11, 44
1, 25838, Control_c, 2, 11, 44
1, 25841, Note_off_c, 1, 36, 64
1, 25854, Note_off_c, 2, 72, 64
1, 25855, Note_off_c, 2, 67, 64
1, 25858, Note_off_c, 0, 67, 64
1, 25858, Note_off_c, 0, 72, 64
1, 25859, Control_c, 3, 11, 42
1, 25859, Control_c, 4, 11, 42
1, 25859, Control_c, 9, 11, 42
1, 25859, Control_c, 1, 11, 42
1, 25859, Control_c, 0, 11, 42
1, 25859, Note_off_c, 2, 64, 64
1, 25859, Control_c, 2, 11, 42
1, 25862, Note_off_c, 0, 64, 64
1, 25880, Control_c, 3, 11, 40
1, 25880, Control_c, 4, 11, 40
1, 25880, Control_c, 9, 11, 40
1, 25880, Control_c, 1, 11, 40
1, 25880, Control_c, 0, 11, 40
1, 25880, Control_c, 2, 11, 40
1, 25885, Note_on_c, 9, 42, 55
1, 25886, Lyric_t, "the "
1, 25886, Note_off_c, 3, 62, 64
1, 25886, Note_on_c, 3, 60, 97
1, 25886, Note_off_c, 9, 42, 64
1, 25886, Note_on_c, 1, 36, 108
1, 25887, Note_on_c, 9, 64, 45
1, 25888, Note_off_c, 9, 64, 64
1, 25896, Note_off_c, 1, 36, 64
1, 25900, Note_off_c, 0, 48, 64
1, 25901, Control_c, 3, 11, 38
1, 25901, Control_c, 4, 11, 38
1, 25901, Control_c, 9, 11, 38
1, 25901, Control_c, 1, 11, 38
1, 25901, Control_c, 0, 11, 38
1, 25901, Control_c, 2, 11, 38
1, 25917, Lyric_t, "out"
1, 25917, Note_on_c, 3, 62, 106
1, 25918, Note_on_c, 9, 42, 64
1, 25919, Note_off_c, 9, 42, 64
1, 25919, Note_on_c, 1, 29, 102
1, 25919, Note_on_c, 9, 64, 45
1, 25920, Note_on_c, 0, 41, 89
1, 25920, Note_off_c, 9, 64, 64
1, 25921, Note_on_c, 0, 69, 84
1, 25921, Note_on_c, 0, 60, 86
1, 25921, Note_on_c, 0, 65, 85
1, 25922, Note_on_c, 9, 35, 100
1, 25923, Control_c, 3, 11, 36
1, 25923, Control_c, 4, 11, 36
1, 25923, Note_off_c, 9, 35, 64
1, 25923, Control_c, 9, 11, 36
1, 25923, Control_c, 1, 11, 36
1, 25923, Control_c, 0, 11, 36
1, 25923, Control_c, 2, 11, 36
1, 25926, Note_off_c, 3, 60, 64
1, 25944, Control_c, 3, 11, 34
1, 25944, Control_c, 4, 11, 34
1, 25944, Control_c, 9, 11, 34
1, 25944, Control_c, 1, 11, 34
1, 25944, Control_c, 0, 11, 34
1, 25944, Control_c, 2, 11, 34
1, 25965, Control_c, 3, 11, 32
1, 25965, Control_c, 4, 11, 32
1, 25965, Control_c, 9, 11, 32
1, 25965, Control_c, 1, 11, 32
1, 25965, Control_c, 0, 11, 32
1, 25965, Control_c, 2, 11, 32
1, 25983, Note_on_c, 9, 42, 62
1, 25983, Note_on_c, 9, 64, 42
1, 25984, Note_off_c, 9, 42, 64
1, 25984, Note_off_c, 9, 64, 64
1, 25986, Control_c, 3, 11, 30
1, 25986, Control_c, 4, 11, 30
1, 25986, Control_c, 9, 11, 30
1, 25986, Control_c, 1, 11, 30
1, 25986, Control_c, 0, 11, 30
1, 25986, Control_c, 2, 11, 30
1, 25998, Note_off_c, 3, 62, 64
1, 26007, Control_c, 3, 11, 28
1, 26007, Control_c, 4, 11, 28
1, 26007, Control_c, 9, 11, 28
1, 26007, Control_c, 1, 11, 28
1, 26007, Control_c, 0, 11, 28
1, 26007, Control_c, 2, 11, 28
1, 26014, Note_on_c, 2, 60, 120
1, 26015, Note_on_c, 9, 38, 112
1, 26015, Note_on_c, 2, 65, 120
1, 26015, Note_on_c, 2, 69, 120
1, 26015, Note_on_c, 9, 63, 110
1, 26016, Note_off_c, 9, 38, 64
1, 26016, Note_on_c, 9, 42, 64
1, 26016, Note_off_c, 9, 63, 64
1, 26017, Lyric_t, "side, "
1, 26017, Lyric_t, "\015"
1, 26017, Note_on_c, 3, 57, 105
1, 26017, Note_off_c, 9, 42, 64
1, 26027, Note_off_c, 1, 29, 64
1, 26028, Control_c, 3, 11, 26
1, 26028, Control_c, 4, 11, 26
1, 26028, Control_c, 9, 11, 26
1, 26028, Control_c, 1, 11, 26
1, 26028, Control_c, 0, 11, 26
1, 26028, Control_c, 2, 11, 26
1, 26038, Note_off_c, 2, 60, 64
1, 26039, Note_off_c, 2, 69, 64
1, 26049, Note_off_c, 2, 65, 64
1, 26050, Control_c, 3, 11, 24
1, 26050, Control_c, 4, 11, 24
1, 26050, Control_c, 9, 11, 24
1, 26050, Control_c, 1, 11, 24
1, 26050, Control_c, 0, 11, 24
1, 26050, Control_c, 2, 11, 24
1, 26061, Note_off_c, 0, 69, 64
1, 26067, Note_off_c, 0, 65, 64
1, 26067, Note_off_c, 0, 60, 64
1, 26071, Control_c, 3, 11, 22
1, 26071, Control_c, 4, 11, 22
1, 26071, Control_c, 9, 11, 22
1, 26071, Control_c, 1, 11, 22
1, 26071, Control_c, 0, 11, 22
1, 26071, Control_c, 2, 11, 22
1, 26072, Note_off_c, 0, 41, 64
1, 26078, Note_on_c, 9, 42, 57
1, 26078, Note_on_c, 1, 33, 101
1, 26078, Note_on_c, 9, 63, 101
1, 26079, Note_off_c, 9, 42, 64
1, 26079, Note_off_c, 9, 63, 64
1, 26085, Note_off_c, 3, 57, 64
1, 26092, Control_c, 3, 11, 20
1, 26092, Control_c, 4, 11, 20
1, 26092, Control_c, 9, 11, 20
1, 26092, Control_c, 1, 11, 20
1, 26092, Control_c, 0, 11, 20
1, 26092, Control_c, 2, 11, 20
1, 26110, Note_on_c, 9, 42, 65
1, 26111, Note_off_c, 9, 42, 64
1, 26112, Lyric_t, "oh "
1, 26112, Note_on_c, 4, 67, 60
1, 26112, Note_on_c, 4, 64, 67
1, 26112, Note_on_c, 9, 35, 101
1, 26112, Note_off_c, 1, 33, 64
1, 26112, Note_on_c, 1, 31, 101
1, 26112, Note_on_c, 0, 43, 79
1, 26112, Note_on_c, 0, 59, 90
1, 26113, Control_c, 3, 11, 18
1, 26113, Control_c, 4, 11, 18
1, 26113, Note_off_c, 9, 35, 64
1, 26113, Control_c, 9, 11, 18
1, 26113, Control_c, 1, 11, 18
1, 26113, Control_c, 0, 11, 18
1, 26113, Note_on_c, 0, 67, 86
1, 26113, Note_on_c, 0, 62, 97
1, 26113, Control_c, 2, 11, 18
1, 26134, Control_c, 3, 11, 16
1, 26134, Control_c, 4, 11, 16
1, 26134, Control_c, 9, 11, 16
1, 26134, Control_c, 1, 11, 16
1, 26134, Control_c, 0, 11, 16
1, 26134, Control_c, 2, 11, 16
1, 26150, Note_off_c, 0, 59, 64
1, 26155, Control_c, 3, 11, 14
1, 26155, Control_c, 4, 11, 14
1, 26155, Control_c, 9, 11, 14
1, 26155, Control_c, 1, 11, 14
1, 26155, Control_c, 0, 11, 14
1, 26155, Control_c, 2, 11, 14
1, 26156, Note_off_c, 1, 31, 64
1, 26156, Note_off_c, 0, 62, 64
1, 26156, Note_off_c, 0, 67, 64
1, 26174, Note_on_c, 1, 33, 101
1, 26174, Note_on_c, 0, 45, 82
1, 26174, Note_on_c, 9, 64, 49
1, 26175, Note_on_c, 9, 42, 55
1, 26175, Note_off_c, 0, 43, 64
1, 26175, Note_off_c, 9, 64, 64
1, 26176, Note_off_c, 4, 64, 64
1, 26176, Note_off_c, 4, 67, 64
1, 26176, Note_on_c, 4, 69, 48
1, 26176, Note_on_c, 4, 65, 57
1, 26176, Note_off_c, 9, 42, 64
1, 26176, Note_on_c, 0, 65, 93
1, 26177, Control_c, 3, 11, 12
1, 26177, Control_c, 4, 11, 12
1, 26177, Control_c, 9, 11, 12
1, 26177, Control_c, 1, 11, 12
1, 26177, Control_c, 0, 11, 12
1, 26177, Note_on_c, 0, 60, 86
1, 26177, Note_on_c, 0, 69, 96
1, 26177, Control_c, 2, 11, 12
1, 26198, Control_c, 3, 11, 10
1, 26198, Control_c, 4, 11, 10
1, 26198, Control_c, 9, 11, 10
1, 26198, Control_c, 1, 11, 10
1, 26198, Control_c, 0, 11, 10
1, 26198, Control_c, 2, 11, 10
1, 26202, Note_off_c, 0, 60, 64
1, 26206, Note_on_c, 2, 62, 120
1, 26206, Note_on_c, 2, 67, 120
1, 26207, Note_on_c, 2, 71, 120
1, 26208, Note_on_c, 9, 38, 118
1, 26208, Note_off_c, 0, 69, 64
1, 26208, Note_on_c, 9, 62, 106
1, 26209, Note_off_c, 9, 38, 64
1, 26209, Note_on_c, 9, 42, 58
1, 26209, Note_off_c, 0, 65, 64
1, 26209, Note_off_c, 9, 62, 64
1, 26210, Note_off_c, 9, 42, 64
1, 26219, Control_c, 3, 11, 8
1, 26219, Control_c, 4, 11, 8
1, 26219, Control_c, 9, 11, 8
1, 26219, Control_c, 1, 11, 8
1, 26219, Control_c, 0, 11, 8
1, 26219, Control_c, 2, 11, 8
1, 26221, Note_off_c, 0, 45, 64
1, 26230, Note_off_c, 1, 33, 64
1, 26231, Note_off_c, 2, 62, 64
1, 26240, Control_c, 3, 11, 6
1, 26240, Control_c, 4, 11, 6
1, 26240, Control_c, 9, 11, 6
1, 26240, Control_c, 1, 11, 6
1, 26240, Control_c, 0, 11, 6
1, 26240, Note_off_c, 2, 71, 64
1, 26240, Control_c, 2, 11, 6
1, 26245, Note_off_c, 2, 67, 64
1, 26261, Control_c, 3, 11, 4
1, 26261, Control_c, 4, 11, 4
1, 26261, Control_c, 9, 11, 4
1, 26261, Control_c, 1, 11, 4
1, 26261, Control_c, 0, 11, 4
1, 26261, Control_c, 2, 11, 4
1, 26268, Note_on_c, 0, 48, 91
1, 26269, Note_on_c, 0, 67, 96
1, 26269, Note_on_c, 0, 72, 104
1, 26269, Note_on_c, 0, 64, 97
1, 26269, Note_on_c, 9, 64, 49
1, 26270, Note_on_c, 1, 36, 106
1, 26270, Note_off_c, 9, 64, 64
1, 26272, Lyric_t, "yeah\205 "
1, 26272, Lyric_t, "\015"
1, 26272, Note_off_c, 4, 65, 64
1, 26272, Note_off_c, 4, 69, 64
1, 26272, Note_on_c, 4, 64, 48
1, 26272, Note_on_c, 4, 67, 47
1, 26272, Note_on_c, 4, 60, 53
1, 26272, Note_on_c, 9, 42, 54
1, 26273, Note_off_c, 9, 42, 64
1, 26282, Control_c, 3, 11, 2
1, 26282, Control_c, 4, 11, 2
1, 26282, Control_c, 9, 11, 2
1, 26282, Control_c, 1, 11, 2
1, 26282, Control_c, 0, 11, 2
1, 26282, Control_c, 2, 11, 2
1, 26302, Note_on_c, 9, 64, 52
1, 26303, Note_on_c, 9, 35, 96
1, 26303, Note_off_c, 9, 64, 64
1, 26304, Control_c, 3, 11, 0
1, 26304, Control_c, 4, 11, 0
1, 26304, Note_off_c, 9, 35, 64
1, 26304, Control_c, 9, 11, 0
1, 26304, Control_c, 1, 11, 0
1, 26304, Control_c, 0, 11, 0
1, 26304, Control_c, 2, 11, 0
1, 26305, Note_on_c, 9, 42, 66
1, 26306, Note_off_c, 9, 42, 64
1, 26338, Note_on_c, 9, 38, 88
1, 26339, Note_off_c, 9, 38, 64
1, 26365, Note_on_c, 9, 64, 54
1, 26366, Note_off_c, 9, 64, 64
1, 26370, Note_on_c, 9, 38, 88
1, 26370, Note_off_c, 1, 36, 64
1, 26371, Note_off_c, 9, 38, 64
1, 26380, Note_off_c, 0, 48, 64
1, 26396, Note_on_c, 0, 36, 91
1, 26396, Note_on_c, 0, 48, 91
1, 26398, Note_on_c, 2, 64, 120
1, 26398, Note_on_c, 2, 67, 120
1, 26398, Note_on_c, 2, 72, 120
1, 26399, Note_on_c, 9, 63, 103
1, 26400, Note_off_c, 4, 60, 64
1, 26400, Note_off_c, 4, 67, 64
1, 26400, Note_off_c, 4, 64, 64
1, 26400, Note_on_c, 1, 36, 106
1, 26400, Note_off_c, 9, 63, 64
1, 26402, Note_on_c, 9, 38, 97
1, 26403, Note_off_c, 9, 38, 64
1, 26424, Note_off_c, 0, 72, 64
1, 26426, Note_off_c, 0, 64, 64
1, 26426, Note_off_c, 0, 67, 64
1, 26429, Note_off_c, 2, 67, 64
1, 26431, Note_off_c, 2, 72, 64
1, 26435, Note_off_c, 2, 64, 64
1, 26440, Note_off_c, 1, 36, 64
1, 26448, Note_off_c, 0, 36, 64
1, 26448, Note_off_c, 0, 48, 64
1, 26779, End_track
0, 0, End_of_file
