0, 0, Header, 1, 4, 480
1, 0, Start_track
1, 1860, Program_c, 12, 45
1, 1860, Program_c, 7, 17
1, 1920, Program_c, 14, 54
1, 1920, Program_c, 5, 75
1, 1920, Program_c, 4, 48
1, 1980, Program_c, 13, 33
1, 1980, Program_c, 2, 89
1, 1980, Program_c, 3, 53
1, 1980, Program_c, 6, 24
1, 1980, Program_c, 8, 49
1, 2460, Program_c, 15, 53
1, 3600, Note_on_c, 9, 69, 16
1, 3660, Note_on_c, 9, 69, 0
1, 3660, Control_c, 0, 10, 48
1, 3660, Note_on_c, 9, 69, 20
1, 3720, Control_c, 15, 10, 80
1, 3720, Control_c, 13, 91, 28
1, 3720, Note_on_c, 9, 69, 0
1, 3720, Note_on_c, 9, 69, 32
1, 3780, Control_c, 14, 10, 32
1, 3780, Note_on_c, 9, 69, 0
1, 3780, Note_on_c, 9, 69, 40
1, 3840, Pitch_bend_c, 15, 8192
1, 3840, Tempo, 571428
1, 3840, Note_on_c, 9, 69, 0
1, 3840, Note_on_c, 14, 55, 20
1, 3840, Note_on_c, 14, 64, 32
1, 3840, Note_on_c, 14, 60, 20
1, 3840, Note_on_c, 15, 64, 40
1, 3840, Note_on_c, 5, 36, 48
1, 3840, Note_on_c, 9, 69, 64
1, 3840, Note_on_c, 2, 52, 52
1, 3840, Note_on_c, 9, 35, 80
1, 3840, Note_on_c, 13, 36, 48
1, 3840, Note_on_c, 12, 36, 76
1, 3960, Note_on_c, 5, 36, 0
1, 3960, Note_on_c, 9, 69, 0
1, 3960, Note_on_c, 9, 35, 0
1, 4080, Note_on_c, 13, 36, 0
1, 4080, Note_on_c, 12, 36, 0
1, 4080, Note_on_c, 5, 36, 48
1, 4080, Note_on_c, 9, 69, 64
1, 4080, Note_on_c, 9, 53, 32
1, 4080, Note_on_c, 9, 34, 80
1, 4200, Note_on_c, 5, 36, 0
1, 4200, Note_on_c, 9, 69, 0
1, 4200, Note_on_c, 9, 53, 0
1, 4200, Note_on_c, 9, 34, 0
1, 4320, Note_on_c, 9, 36, 64
1, 4320, Note_on_c, 9, 40, 64
1, 4320, Note_on_c, 5, 40, 48
1, 4320, Note_on_c, 9, 69, 64
1, 4320, Note_on_c, 13, 40, 48
1, 4320, Note_on_c, 9, 33, 80
1, 4320, Note_on_c, 12, 40, 76
1, 4440, Note_on_c, 9, 36, 0
1, 4440, Note_on_c, 9, 40, 0
1, 4440, Note_on_c, 9, 69, 0
1, 4440, Note_on_c, 9, 33, 0
1, 4560, Note_on_c, 5, 40, 0
1, 4560, Note_on_c, 13, 40, 0
1, 4560, Note_on_c, 12, 40, 0
1, 4560, Note_on_c, 5, 36, 48
1, 4560, Note_on_c, 9, 69, 64
1, 4560, Note_on_c, 9, 35, 80
1, 4560, Note_on_c, 13, 36, 48
1, 4560, Note_on_c, 12, 36, 76
1, 4680, Note_on_c, 5, 36, 0
1, 4680, Note_on_c, 9, 69, 0
1, 4680, Note_on_c, 9, 35, 0
1, 4800, Note_on_c, 13, 36, 0
1, 4800, Note_on_c, 12, 36, 0
1, 4800, Note_on_c, 5, 36, 48
1, 4800, Note_on_c, 9, 69, 64
1, 4800, Note_on_c, 9, 35, 80
1, 4920, Note_on_c, 5, 36, 0
1, 4920, Note_on_c, 9, 69, 0
1, 4920, Note_on_c, 9, 35, 0
1, 5040, Note_on_c, 5, 36, 48
1, 5040, Note_on_c, 9, 69, 64
1, 5040, Note_on_c, 9, 53, 32
1, 5040, Note_on_c, 9, 34, 80
1, 5160, Note_on_c, 5, 36, 0
1, 5160, Note_on_c, 9, 69, 0
1, 5160, Note_on_c, 9, 53, 0
1, 5160, Note_on_c, 9, 34, 0
1, 5280, Note_on_c, 9, 36, 64
1, 5280, Note_on_c, 9, 40, 64
1, 5280, Note_on_c, 5, 40, 48
1, 5280, Note_on_c, 9, 69, 64
1, 5280, Note_on_c, 13, 40, 48
1, 5280, Note_on_c, 9, 33, 80
1, 5280, Note_on_c, 12, 40, 76
1, 5400, Note_on_c, 9, 36, 0
1, 5400, Note_on_c, 9, 40, 0
1, 5400, Note_on_c, 9, 69, 0
1, 5400, Note_on_c, 9, 33, 0
1, 5520, Note_on_c, 5, 40, 0
1, 5520, Note_on_c, 5, 36, 48
1, 5520, Note_on_c, 9, 69, 64
1, 5520, Note_on_c, 9, 35, 80
1, 5580, Note_on_c, 13, 40, 0
1, 5580, Note_on_c, 12, 40, 0
1, 5640, Note_on_c, 5, 36, 0
1, 5640, Note_on_c, 9, 69, 0
1, 5640, Note_on_c, 9, 35, 0
1, 5640, Note_on_c, 9, 69, 52
1, 5760, Note_on_c, 9, 69, 0
1, 5760, Note_on_c, 5, 36, 48
1, 5760, Note_on_c, 9, 69, 80
1, 5760, Note_on_c, 9, 35, 80
1, 5760, Note_on_c, 13, 36, 48
1, 5760, Note_on_c, 12, 36, 76
1, 5880, Note_on_c, 5, 36, 0
1, 5880, Note_on_c, 9, 69, 0
1, 5880, Note_on_c, 9, 35, 0
1, 6000, Note_on_c, 13, 36, 0
1, 6000, Note_on_c, 12, 36, 0
1, 6000, Note_on_c, 5, 36, 48
1, 6000, Note_on_c, 9, 69, 64
1, 6000, Note_on_c, 9, 53, 32
1, 6000, Note_on_c, 9, 34, 80
1, 6000, Note_on_c, 13, 36, 48
1, 6000, Note_on_c, 12, 36, 76
1, 6120, Note_on_c, 5, 36, 0
1, 6120, Note_on_c, 9, 69, 0
1, 6120, Note_on_c, 9, 53, 0
1, 6120, Note_on_c, 9, 34, 0
1, 6240, Note_on_c, 13, 36, 0
1, 6240, Note_on_c, 12, 36, 0
1, 6240, Note_on_c, 9, 36, 64
1, 6240, Note_on_c, 9, 40, 64
1, 6240, Note_on_c, 5, 40, 48
1, 6240, Note_on_c, 9, 69, 64
1, 6240, Note_on_c, 9, 33, 80
1, 6240, Note_on_c, 13, 40, 48
1, 6240, Note_on_c, 12, 40, 76
1, 6360, Note_on_c, 9, 36, 0
1, 6360, Note_on_c, 9, 40, 0
1, 6360, Note_on_c, 9, 69, 0
1, 6360, Note_on_c, 9, 33, 0
1, 6480, Note_on_c, 5, 40, 0
1, 6480, Note_on_c, 13, 40, 0
1, 6480, Note_on_c, 12, 40, 0
1, 6480, Note_on_c, 5, 36, 48
1, 6480, Note_on_c, 9, 69, 64
1, 6480, Note_on_c, 9, 35, 80
1, 6480, Note_on_c, 13, 38, 48
1, 6480, Note_on_c, 12, 38, 76
1, 6600, Note_on_c, 5, 36, 0
1, 6600, Note_on_c, 9, 69, 0
1, 6600, Note_on_c, 9, 35, 0
1, 6720, Note_on_c, 14, 64, 0
1, 6720, Note_on_c, 14, 60, 0
1, 6720, Pitch_bend_c, 15, 768
1, 6720, Pitch_bend_c, 2, 768
1, 6720, Note_on_c, 13, 38, 0
1, 6720, Note_on_c, 12, 38, 0
1, 6720, Note_on_c, 14, 57, 32
1, 6720, Note_on_c, 14, 62, 20
1, 6720, Note_on_c, 5, 36, 48
1, 6720, Note_on_c, 9, 69, 64
1, 6720, Note_on_c, 13, 38, 48
1, 6720, Note_on_c, 9, 35, 80
1, 6720, Note_on_c, 12, 38, 76
1, 6840, Note_on_c, 5, 36, 0
1, 6840, Note_on_c, 9, 69, 0
1, 6840, Note_on_c, 9, 35, 0
1, 6960, Note_on_c, 5, 36, 48
1, 6960, Note_on_c, 9, 69, 64
1, 6960, Note_on_c, 9, 53, 32
1, 6960, Note_on_c, 9, 35, 80
1, 7080, Note_on_c, 5, 36, 0
1, 7080, Note_on_c, 9, 69, 0
1, 7080, Note_on_c, 9, 53, 0
1, 7080, Note_on_c, 9, 35, 0
1, 7200, Note_on_c, 13, 38, 0
1, 7200, Note_on_c, 12, 38, 0
1, 7200, Note_on_c, 9, 36, 64
1, 7200, Note_on_c, 9, 40, 64
1, 7200, Note_on_c, 5, 38, 48
1, 7200, Note_on_c, 9, 69, 64
1, 7200, Note_on_c, 13, 38, 48
1, 7200, Note_on_c, 9, 33, 80
1, 7200, Note_on_c, 0, 72, 64
1, 7200, Note_on_c, 12, 38, 76
1, 7320, Note_on_c, 9, 36, 0
1, 7320, Note_on_c, 9, 40, 0
1, 7320, Note_on_c, 9, 69, 0
1, 7320, Note_on_c, 9, 33, 0
1, 7440, Note_on_c, 5, 38, 0
1, 7440, Note_on_c, 13, 38, 0
1, 7440, Note_on_c, 12, 38, 0
1, 7440, Note_on_c, 5, 36, 48
1, 7440, Note_on_c, 9, 69, 64
1, 7440, Note_on_c, 9, 70, 32
1, 7440, Note_on_c, 9, 33, 80
1, 7440, Note_on_c, 13, 31, 48
1, 7440, Note_on_c, 12, 31, 76
1, 7500, Note_on_c, 9, 70, 0
1, 7500, Note_on_c, 13, 31, 0
1, 7500, Note_on_c, 12, 31, 0
1, 7500, Note_on_c, 9, 70, 44
1, 7500, Note_on_c, 13, 31, 48
1, 7500, Note_on_c, 12, 31, 76
1, 7560, Note_on_c, 5, 36, 0
1, 7560, Note_on_c, 9, 69, 0
1, 7560, Note_on_c, 9, 70, 0
1, 7560, Note_on_c, 9, 33, 0
1, 7560, Note_on_c, 13, 31, 0
1, 7560, Note_on_c, 12, 31, 0
1, 7560, Note_on_c, 9, 70, 60
1, 7560, Note_on_c, 13, 31, 48
1, 7560, Note_on_c, 12, 31, 76
1, 7620, Note_on_c, 9, 70, 0
1, 7620, Note_on_c, 13, 31, 0
1, 7620, Note_on_c, 12, 31, 0
1, 7620, Note_on_c, 9, 70, 68
1, 7620, Note_on_c, 13, 31, 48
1, 7620, Note_on_c, 12, 31, 76
1, 7680, Note_on_c, 14, 55, 0
1, 7680, Note_on_c, 14, 62, 0
1, 7680, Note_on_c, 14, 57, 0
1, 7680, Note_on_c, 15, 64, 0
1, 7680, Pitch_bend_c, 15, 8192
1, 7680, Note_on_c, 9, 70, 0
1, 7680, Pitch_bend_c, 2, 8192
1, 7680, Note_on_c, 13, 31, 0
1, 7680, Note_on_c, 0, 72, 0
1, 7680, Note_on_c, 12, 31, 0
1, 7680, Note_on_c, 14, 55, 20
1, 7680, Note_on_c, 14, 64, 32
1, 7680, Note_on_c, 14, 60, 20
1, 7680, Note_on_c, 15, 64, 40
1, 7680, Note_on_c, 5, 36, 48
1, 7680, Note_on_c, 9, 69, 64
1, 7680, Note_on_c, 9, 35, 80
1, 7680, Note_on_c, 13, 36, 48
1, 7680, Note_on_c, 12, 36, 76
1, 7800, Note_on_c, 5, 36, 0
1, 7800, Note_on_c, 9, 35, 0
1, 7800, Note_on_c, 9, 69, 0
1, 7920, Note_on_c, 13, 36, 0
1, 7920, Note_on_c, 12, 36, 0
1, 7920, Note_on_c, 5, 36, 48
1, 7920, Note_on_c, 9, 69, 64
1, 7920, Note_on_c, 9, 53, 32
1, 7920, Note_on_c, 9, 34, 80
1, 8040, Note_on_c, 5, 36, 0
1, 8040, Note_on_c, 9, 34, 0
1, 8040, Note_on_c, 9, 53, 0
1, 8040, Note_on_c, 9, 69, 0
1, 8160, Note_on_c, 5, 40, 48
1, 8160, Note_on_c, 9, 36, 64
1, 8160, Note_on_c, 9, 40, 64
1, 8160, Note_on_c, 9, 69, 64
1, 8160, Note_on_c, 9, 33, 80
1, 8160, Note_on_c, 13, 40, 48
1, 8160, Note_on_c, 12, 40, 76
1, 8280, Note_on_c, 9, 33, 0
1, 8280, Note_on_c, 9, 69, 0
1, 8280, Note_on_c, 9, 40, 0
1, 8280, Note_on_c, 9, 36, 0
1, 8400, Note_on_c, 5, 40, 0
1, 8400, Note_on_c, 13, 40, 0
1, 8400, Note_on_c, 12, 40, 0
1, 8400, Note_on_c, 5, 36, 48
1, 8400, Note_on_c, 9, 69, 64
1, 8400, Note_on_c, 9, 35, 80
1, 8400, Note_on_c, 13, 36, 48
1, 8400, Note_on_c, 12, 36, 76
1, 8520, Note_on_c, 5, 36, 0
1, 8520, Note_on_c, 9, 35, 0
1, 8520, Note_on_c, 9, 69, 0
1, 8640, Note_on_c, 13, 36, 0
1, 8640, Note_on_c, 12, 36, 0
1, 8640, Note_on_c, 5, 36, 48
1, 8640, Note_on_c, 9, 69, 64
1, 8640, Note_on_c, 9, 35, 80
1, 8760, Note_on_c, 5, 36, 0
1, 8760, Note_on_c, 9, 35, 0
1, 8760, Note_on_c, 9, 69, 0
1, 8880, Note_on_c, 5, 36, 48
1, 8880, Note_on_c, 9, 69, 64
1, 8880, Note_on_c, 9, 53, 32
1, 8880, Note_on_c, 9, 34, 80
1, 9000, Note_on_c, 5, 36, 0
1, 9000, Note_on_c, 9, 34, 0
1, 9000, Note_on_c, 9, 53, 0
1, 9000, Note_on_c, 9, 69, 0
1, 9120, Note_on_c, 5, 40, 48
1, 9120, Note_on_c, 9, 36, 64
1, 9120, Note_on_c, 9, 40, 64
1, 9120, Note_on_c, 9, 69, 64
1, 9120, Note_on_c, 9, 33, 80
1, 9120, Note_on_c, 13, 40, 48
1, 9120, Note_on_c, 0, 72, 64
1, 9120, Note_on_c, 12, 40, 76
1, 9240, Note_on_c, 9, 33, 0
1, 9240, Note_on_c, 9, 69, 0
1, 9240, Note_on_c, 9, 40, 0
1, 9240, Note_on_c, 9, 36, 0
1, 9360, Note_on_c, 5, 40, 0
1, 9360, Note_on_c, 5, 36, 48
1, 9360, Note_on_c, 9, 69, 64
1, 9360, Note_on_c, 9, 35, 80
1, 9420, Note_on_c, 13, 40, 0
1, 9420, Note_on_c, 12, 40, 0
1, 9480, Note_on_c, 5, 36, 0
1, 9480, Note_on_c, 9, 35, 0
1, 9480, Note_on_c, 9, 69, 0
1, 9480, Note_on_c, 9, 69, 52
1, 9600, Note_on_c, 9, 69, 0
1, 9600, Note_on_c, 0, 72, 0
1, 9600, Note_on_c, 5, 36, 48
1, 9600, Note_on_c, 9, 69, 80
1, 9600, Note_on_c, 9, 35, 80
1, 9600, Note_on_c, 13, 36, 48
1, 9600, Note_on_c, 0, 72, 40
1, 9600, Note_on_c, 12, 36, 76
1, 9720, Note_on_c, 5, 36, 0
1, 9720, Note_on_c, 9, 35, 0
1, 9720, Note_on_c, 9, 69, 0
1, 9840, Note_on_c, 13, 36, 0
1, 9840, Note_on_c, 0, 72, 0
1, 9840, Note_on_c, 12, 36, 0
1, 9840, Note_on_c, 5, 36, 48
1, 9840, Note_on_c, 9, 69, 64
1, 9840, Note_on_c, 9, 53, 32
1, 9840, Note_on_c, 9, 34, 80
1, 9840, Note_on_c, 13, 36, 48
1, 9840, Note_on_c, 0, 72, 28
1, 9840, Note_on_c, 12, 36, 76
1, 9960, Note_on_c, 5, 36, 0
1, 9960, Note_on_c, 9, 34, 0
1, 9960, Note_on_c, 9, 53, 0
1, 9960, Note_on_c, 9, 69, 0
1, 10080, Note_on_c, 13, 36, 0
1, 10080, Note_on_c, 0, 72, 0
1, 10080, Note_on_c, 12, 36, 0
1, 10080, Note_on_c, 5, 40, 48
1, 10080, Note_on_c, 9, 36, 64
1, 10080, Note_on_c, 9, 40, 64
1, 10080, Note_on_c, 9, 69, 64
1, 10080, Note_on_c, 9, 33, 80
1, 10080, Note_on_c, 13, 40, 48
1, 10080, Note_on_c, 0, 72, 28
1, 10080, Note_on_c, 12, 40, 76
1, 10200, Note_on_c, 9, 33, 0
1, 10200, Note_on_c, 9, 69, 0
1, 10200, Note_on_c, 9, 40, 0
1, 10200, Note_on_c, 9, 36, 0
1, 10320, Note_on_c, 5, 40, 0
1, 10320, Note_on_c, 13, 40, 0
1, 10320, Note_on_c, 0, 72, 0
1, 10320, Note_on_c, 12, 40, 0
1, 10320, Note_on_c, 5, 36, 48
1, 10320, Note_on_c, 9, 69, 64
1, 10320, Note_on_c, 9, 35, 80
1, 10320, Note_on_c, 13, 38, 48
1, 10320, Note_on_c, 0, 72, 28
1, 10320, Note_on_c, 12, 38, 76
1, 10440, Note_on_c, 5, 36, 0
1, 10440, Note_on_c, 9, 35, 0
1, 10440, Note_on_c, 9, 69, 0
1, 10560, Note_on_c, 14, 60, 0
1, 10560, Note_on_c, 14, 64, 0
1, 10560, Pitch_bend_c, 15, 813
1, 10560, Pitch_bend_c, 2, 768
1, 10560, Note_on_c, 13, 38, 0
1, 10560, Note_on_c, 0, 72, 0
1, 10560, Note_on_c, 12, 38, 0
1, 10560, Note_on_c, 14, 57, 32
1, 10560, Note_on_c, 14, 62, 20
1, 10560, Note_on_c, 5, 36, 48
1, 10560, Note_on_c, 9, 69, 64
1, 10560, Note_on_c, 9, 35, 80
1, 10560, Note_on_c, 13, 38, 48
1, 10560, Note_on_c, 0, 67, 44
1, 10560, Note_on_c, 12, 38, 76
1, 10680, Note_on_c, 5, 36, 0
1, 10680, Note_on_c, 9, 35, 0
1, 10680, Note_on_c, 9, 69, 0
1, 10680, Note_on_c, 0, 67, 0
1, 10680, Note_on_c, 0, 69, 48
1, 10800, Note_on_c, 0, 69, 0
1, 10800, Note_on_c, 5, 36, 48
1, 10800, Note_on_c, 9, 69, 64
1, 10800, Note_on_c, 9, 53, 32
1, 10800, Note_on_c, 9, 35, 80
1, 10800, Note_on_c, 0, 72, 52
1, 10920, Note_on_c, 5, 36, 0
1, 10920, Note_on_c, 9, 35, 0
1, 10920, Note_on_c, 9, 53, 0
1, 10920, Note_on_c, 9, 69, 0
1, 11040, Note_on_c, 13, 38, 0
1, 11040, Note_on_c, 0, 72, 0
1, 11040, Note_on_c, 12, 38, 0
1, 11040, Note_on_c, 5, 38, 48
1, 11040, Note_on_c, 9, 36, 64
1, 11040, Note_on_c, 9, 40, 64
1, 11040, Note_on_c, 9, 69, 64
1, 11040, Note_on_c, 9, 33, 80
1, 11040, Note_on_c, 13, 38, 48
1, 11040, Note_on_c, 0, 69, 40
1, 11040, Note_on_c, 12, 38, 76
1, 11160, Note_on_c, 9, 33, 0
1, 11160, Note_on_c, 9, 69, 0
1, 11160, Note_on_c, 9, 40, 0
1, 11160, Note_on_c, 9, 36, 0
1, 11280, Note_on_c, 5, 38, 0
1, 11280, Note_on_c, 13, 38, 0
1, 11280, Note_on_c, 12, 38, 0
1, 11280, Note_on_c, 5, 36, 48
1, 11280, Note_on_c, 9, 69, 64
1, 11280, Note_on_c, 9, 70, 32
1, 11280, Note_on_c, 9, 33, 80
1, 11340, Note_on_c, 9, 70, 0
1, 11340, Note_on_c, 9, 70, 44
1, 11400, Note_on_c, 5, 36, 0
1, 11400, Note_on_c, 9, 33, 0
1, 11400, Note_on_c, 9, 70, 0
1, 11400, Note_on_c, 9, 69, 0
1, 11400, Note_on_c, 9, 70, 60
1, 11460, Note_on_c, 9, 70, 0
1, 11460, Note_on_c, 9, 70, 68
1, 11520, Note_on_c, 14, 57, 0
1, 11520, Note_on_c, 14, 55, 0
1, 11520, Note_on_c, 14, 62, 0
1, 11520, Note_on_c, 15, 64, 0
1, 11520, Pitch_bend_c, 15, 8192
1, 11520, Pitch_bend_c, 2, 8192
1, 11520, Note_on_c, 2, 52, 0
1, 11520, Note_on_c, 9, 70, 0
1, 11520, Note_on_c, 0, 69, 0
1, 11520, Pitch_bend_c, 15, 8192
1, 11520, Note_on_c, 14, 55, 20
1, 11520, Note_on_c, 14, 64, 32
1, 11520, Note_on_c, 14, 60, 20
1, 11520, Note_on_c, 15, 64, 40
1, 11520, Note_on_c, 5, 36, 48
1, 11520, Note_on_c, 9, 69, 64
1, 11520, Note_on_c, 2, 52, 52
1, 11520, Note_on_c, 9, 35, 80
1, 11520, Note_on_c, 13, 36, 48
1, 11520, Note_on_c, 12, 36, 76
1, 11640, Note_on_c, 9, 35, 0
1, 11640, Note_on_c, 9, 69, 0
1, 11640, Note_on_c, 5, 36, 0
1, 11760, Note_on_c, 13, 36, 0
1, 11760, Note_on_c, 12, 36, 0
1, 11760, Note_on_c, 5, 36, 48
1, 11760, Note_on_c, 9, 69, 64
1, 11760, Note_on_c, 9, 53, 32
1, 11760, Note_on_c, 9, 34, 80
1, 11880, Note_on_c, 9, 34, 0
1, 11880, Note_on_c, 9, 53, 0
1, 11880, Note_on_c, 9, 69, 0
1, 11880, Note_on_c, 5, 36, 0
1, 12000, Note_on_c, 9, 36, 64
1, 12000, Note_on_c, 9, 40, 64
1, 12000, Note_on_c, 5, 40, 48
1, 12000, Note_on_c, 9, 69, 64
1, 12000, Note_on_c, 13, 40, 48
1, 12000, Note_on_c, 9, 33, 80
1, 12000, Note_on_c, 12, 40, 76
1, 12120, Note_on_c, 9, 33, 0
1, 12120, Note_on_c, 9, 69, 0
1, 12120, Note_on_c, 9, 40, 0
1, 12120, Note_on_c, 9, 36, 0
1, 12240, Note_on_c, 13, 40, 0
1, 12240, Note_on_c, 5, 40, 0
1, 12240, Note_on_c, 12, 40, 0
1, 12240, Note_on_c, 5, 36, 48
1, 12240, Note_on_c, 9, 69, 64
1, 12240, Note_on_c, 9, 35, 80
1, 12240, Note_on_c, 13, 36, 48
1, 12240, Note_on_c, 12, 36, 76
1, 12360, Note_on_c, 9, 35, 0
1, 12360, Note_on_c, 9, 69, 0
1, 12360, Note_on_c, 5, 36, 0
1, 12480, Note_on_c, 13, 36, 0
1, 12480, Note_on_c, 12, 36, 0
1, 12480, Note_on_c, 5, 36, 48
1, 12480, Note_on_c, 9, 69, 64
1, 12480, Note_on_c, 9, 35, 80
1, 12480, Note_on_c, 0, 72, 16
1, 12600, Note_on_c, 9, 35, 0
1, 12600, Note_on_c, 9, 69, 0
1, 12600, Note_on_c, 5, 36, 0
1, 12720, Note_on_c, 5, 36, 48
1, 12720, Note_on_c, 9, 69, 64
1, 12720, Note_on_c, 9, 53, 32
1, 12720, Note_on_c, 9, 34, 80
1, 12840, Note_on_c, 9, 34, 0
1, 12840, Note_on_c, 9, 53, 0
1, 12840, Note_on_c, 9, 69, 0
1, 12840, Note_on_c, 5, 36, 0
1, 12960, Note_on_c, 0, 72, 0
1, 12960, Note_on_c, 9, 36, 64
1, 12960, Note_on_c, 9, 40, 64
1, 12960, Note_on_c, 5, 40, 48
1, 12960, Note_on_c, 9, 69, 64
1, 12960, Note_on_c, 13, 40, 48
1, 12960, Note_on_c, 9, 33, 80
1, 12960, Note_on_c, 0, 72, 36
1, 12960, Note_on_c, 12, 40, 76
1, 13080, Note_on_c, 9, 33, 0
1, 13080, Note_on_c, 9, 69, 0
1, 13080, Note_on_c, 9, 40, 0
1, 13080, Note_on_c, 9, 36, 0
1, 13200, Note_on_c, 5, 40, 0
1, 13200, Note_on_c, 5, 36, 48
1, 13200, Note_on_c, 9, 69, 64
1, 13200, Note_on_c, 9, 35, 80
1, 13260, Note_on_c, 13, 40, 0
1, 13260, Note_on_c, 12, 40, 0
1, 13320, Note_on_c, 9, 35, 0
1, 13320, Note_on_c, 9, 69, 0
1, 13320, Note_on_c, 5, 36, 0
1, 13320, Note_on_c, 9, 69, 52
1, 13440, Note_on_c, 9, 69, 0
1, 13440, Note_on_c, 0, 72, 0
1, 13440, Note_on_c, 5, 36, 48
1, 13440, Note_on_c, 9, 69, 80
1, 13440, Note_on_c, 9, 35, 80
1, 13440, Note_on_c, 13, 36, 48
1, 13440, Note_on_c, 0, 72, 44
1, 13440, Note_on_c, 12, 36, 76
1, 13560, Note_on_c, 9, 35, 0
1, 13560, Note_on_c, 9, 69, 0
1, 13560, Note_on_c, 5, 36, 0
1, 13680, Note_on_c, 13, 36, 0
1, 13680, Note_on_c, 12, 36, 0
1, 13680, Note_on_c, 5, 36, 48
1, 13680, Note_on_c, 9, 69, 64
1, 13680, Note_on_c, 9, 53, 32
1, 13680, Note_on_c, 9, 34, 80
1, 13680, Note_on_c, 13, 36, 48
1, 13680, Note_on_c, 12, 36, 76
1, 13800, Note_on_c, 9, 34, 0
1, 13800, Note_on_c, 9, 53, 0
1, 13800, Note_on_c, 9, 69, 0
1, 13800, Note_on_c, 5, 36, 0
1, 13920, Note_on_c, 13, 36, 0
1, 13920, Note_on_c, 0, 72, 0
1, 13920, Note_on_c, 12, 36, 0
1, 13920, Note_on_c, 9, 36, 64
1, 13920, Note_on_c, 9, 40, 64
1, 13920, Note_on_c, 5, 40, 48
1, 13920, Note_on_c, 9, 69, 64
1, 13920, Note_on_c, 9, 33, 80
1, 13920, Note_on_c, 13, 40, 48
1, 13920, Note_on_c, 0, 72, 44
1, 13920, Note_on_c, 12, 40, 76
1, 14040, Note_on_c, 9, 33, 0
1, 14040, Note_on_c, 9, 69, 0
1, 14040, Note_on_c, 9, 40, 0
1, 14040, Note_on_c, 9, 36, 0
1, 14160, Note_on_c, 13, 40, 0
1, 14160, Note_on_c, 5, 40, 0
1, 14160, Note_on_c, 12, 40, 0
1, 14160, Note_on_c, 5, 36, 48
1, 14160, Note_on_c, 9, 69, 64
1, 14160, Note_on_c, 9, 35, 80
1, 14160, Note_on_c, 13, 38, 48
1, 14160, Note_on_c, 12, 38, 76
1, 14280, Note_on_c, 9, 35, 0
1, 14280, Note_on_c, 9, 69, 0
1, 14280, Note_on_c, 5, 36, 0
1, 14280, Note_on_c, 0, 72, 0
1, 14280, Note_on_c, 0, 67, 44
1, 14400, Note_on_c, 13, 38, 0
1, 14400, Note_on_c, 14, 60, 0
1, 14400, Note_on_c, 14, 64, 0
1, 14400, Pitch_bend_c, 15, 768
1, 14400, Pitch_bend_c, 2, 768
1, 14400, Note_on_c, 0, 67, 0
1, 14400, Note_on_c, 12, 38, 0
1, 14400, Note_on_c, 14, 57, 32
1, 14400, Note_on_c, 14, 62, 20
1, 14400, Note_on_c, 5, 36, 48
1, 14400, Note_on_c, 9, 69, 64
1, 14400, Note_on_c, 13, 38, 48
1, 14400, Note_on_c, 9, 35, 80
1, 14400, Note_on_c, 0, 72, 28
1, 14400, Note_on_c, 12, 38, 76
1, 14520, Note_on_c, 9, 35, 0
1, 14520, Note_on_c, 9, 69, 0
1, 14520, Note_on_c, 5, 36, 0
1, 14640, Note_on_c, 0, 72, 0
1, 14640, Note_on_c, 5, 36, 48
1, 14640, Note_on_c, 9, 69, 64
1, 14640, Note_on_c, 9, 53, 32
1, 14640, Note_on_c, 9, 35, 80
1, 14640, Note_on_c, 0, 76, 36
1, 14760, Note_on_c, 9, 35, 0
1, 14760, Note_on_c, 9, 53, 0
1, 14760, Note_on_c, 9, 69, 0
1, 14760, Note_on_c, 5, 36, 0
1, 14880, Note_on_c, 13, 38, 0
1, 14880, Note_on_c, 0, 76, 0
1, 14880, Note_on_c, 12, 38, 0
1, 14880, Note_on_c, 9, 36, 64
1, 14880, Note_on_c, 9, 40, 64
1, 14880, Note_on_c, 5, 38, 48
1, 14880, Note_on_c, 9, 69, 64
1, 14880, Note_on_c, 13, 38, 48
1, 14880, Note_on_c, 9, 33, 80
1, 14880, Note_on_c, 0, 69, 28
1, 14880, Note_on_c, 12, 38, 76
1, 15000, Note_on_c, 9, 33, 0
1, 15000, Note_on_c, 9, 69, 0
1, 15000, Note_on_c, 9, 40, 0
1, 15000, Note_on_c, 9, 36, 0
1, 15000, Note_on_c, 0, 69, 0
1, 15000, Note_on_c, 0, 67, 28
1, 15120, Note_on_c, 13, 38, 0
1, 15120, Note_on_c, 5, 38, 0
1, 15120, Note_on_c, 0, 67, 0
1, 15120, Note_on_c, 12, 38, 0
1, 15120, Note_on_c, 5, 36, 48
1, 15120, Note_on_c, 9, 69, 64
1, 15120, Note_on_c, 9, 70, 32
1, 15120, Note_on_c, 9, 33, 80
1, 15120, Note_on_c, 13, 31, 48
1, 15120, Note_on_c, 12, 31, 76
1, 15180, Note_on_c, 13, 31, 0
1, 15180, Note_on_c, 9, 70, 0
1, 15180, Note_on_c, 12, 31, 0
1, 15180, Note_on_c, 9, 70, 44
1, 15180, Note_on_c, 13, 31, 48
1, 15180, Note_on_c, 12, 31, 76
1, 15240, Note_on_c, 13, 31, 0
1, 15240, Note_on_c, 9, 33, 0
1, 15240, Note_on_c, 9, 70, 0
1, 15240, Note_on_c, 9, 69, 0
1, 15240, Note_on_c, 5, 36, 0
1, 15240, Note_on_c, 12, 31, 0
1, 15240, Note_on_c, 9, 70, 60
1, 15240, Note_on_c, 13, 31, 48
1, 15240, Note_on_c, 12, 31, 76
1, 15300, Note_on_c, 13, 31, 0
1, 15300, Note_on_c, 9, 70, 0
1, 15300, Note_on_c, 12, 31, 0
1, 15300, Note_on_c, 9, 70, 68
1, 15300, Note_on_c, 13, 31, 48
1, 15300, Note_on_c, 12, 31, 76
1, 15360, Note_on_c, 13, 31, 0
1, 15360, Note_on_c, 9, 70, 0
1, 15360, Note_on_c, 15, 64, 0
1, 15360, Note_on_c, 14, 57, 0
1, 15360, Note_on_c, 14, 62, 0
1, 15360, Note_on_c, 14, 55, 0
1, 15360, Pitch_bend_c, 15, 8192
1, 15360, Pitch_bend_c, 2, 8192
1, 15360, Note_on_c, 12, 31, 0
1, 15360, Note_on_c, 14, 55, 20
1, 15360, Note_on_c, 14, 64, 32
1, 15360, Note_on_c, 14, 60, 20
1, 15360, Note_on_c, 15, 64, 40
1, 15360, Note_on_c, 5, 36, 48
1, 15360, Note_on_c, 9, 69, 64
1, 15360, Note_on_c, 9, 35, 80
1, 15360, Note_on_c, 13, 36, 48
1, 15360, Note_on_c, 12, 36, 76
1, 15480, Note_on_c, 9, 69, 0
1, 15480, Note_on_c, 9, 35, 0
1, 15480, Note_on_c, 5, 36, 0
1, 15600, Note_on_c, 13, 36, 0
1, 15600, Note_on_c, 12, 36, 0
1, 15600, Note_on_c, 5, 36, 48
1, 15600, Note_on_c, 9, 69, 64
1, 15600, Note_on_c, 9, 53, 32
1, 15600, Note_on_c, 9, 34, 80
1, 15720, Note_on_c, 9, 69, 0
1, 15720, Note_on_c, 9, 53, 0
1, 15720, Note_on_c, 9, 34, 0
1, 15720, Note_on_c, 5, 36, 0
1, 15840, Note_on_c, 5, 40, 48
1, 15840, Note_on_c, 9, 36, 64
1, 15840, Note_on_c, 9, 40, 64
1, 15840, Note_on_c, 9, 69, 64
1, 15840, Note_on_c, 9, 33, 80
1, 15840, Note_on_c, 13, 40, 48
1, 15840, Note_on_c, 12, 40, 76
1, 15960, Note_on_c, 9, 36, 0
1, 15960, Note_on_c, 9, 40, 0
1, 15960, Note_on_c, 9, 69, 0
1, 15960, Note_on_c, 9, 33, 0
1, 16080, Note_on_c, 13, 40, 0
1, 16080, Note_on_c, 5, 40, 0
1, 16080, Note_on_c, 12, 40, 0
1, 16080, Note_on_c, 5, 36, 48
1, 16080, Note_on_c, 9, 35, 80
1, 16080, Note_on_c, 13, 36, 48
1, 16080, Note_on_c, 9, 69, 64
1, 16080, Note_on_c, 12, 36, 76
1, 16200, Note_on_c, 9, 35, 0
1, 16200, Note_on_c, 5, 36, 0
1, 16200, Note_on_c, 9, 69, 0
1, 16320, Note_on_c, 13, 36, 0
1, 16320, Note_on_c, 12, 36, 0
1, 16320, Note_on_c, 5, 36, 48
1, 16320, Note_on_c, 9, 69, 64
1, 16320, Note_on_c, 9, 35, 80
1, 16320, Note_on_c, 0, 72, 16
1, 16440, Note_on_c, 9, 69, 0
1, 16440, Note_on_c, 9, 35, 0
1, 16440, Note_on_c, 5, 36, 0
1, 16560, Note_on_c, 5, 36, 48
1, 16560, Note_on_c, 9, 69, 64
1, 16560, Note_on_c, 9, 53, 32
1, 16560, Note_on_c, 9, 34, 80
1, 16680, Note_on_c, 9, 69, 0
1, 16680, Note_on_c, 9, 53, 0
1, 16680, Note_on_c, 9, 34, 0
1, 16680, Note_on_c, 5, 36, 0
1, 16800, Note_on_c, 0, 72, 0
1, 16800, Note_on_c, 5, 40, 48
1, 16800, Note_on_c, 9, 36, 64
1, 16800, Note_on_c, 9, 40, 64
1, 16800, Note_on_c, 9, 69, 64
1, 16800, Note_on_c, 9, 33, 80
1, 16800, Note_on_c, 13, 40, 48
1, 16800, Note_on_c, 0, 72, 36
1, 16800, Note_on_c, 12, 40, 76
1, 16920, Note_on_c, 9, 36, 0
1, 16920, Note_on_c, 9, 40, 0
1, 16920, Note_on_c, 9, 69, 0
1, 16920, Note_on_c, 9, 33, 0
1, 17040, Note_on_c, 5, 40, 0
1, 17040, Note_on_c, 5, 36, 48
1, 17040, Note_on_c, 9, 69, 64
1, 17040, Note_on_c, 9, 35, 80
1, 17100, Note_on_c, 13, 40, 0
1, 17100, Note_on_c, 12, 40, 0
1, 17160, Note_on_c, 9, 69, 0
1, 17160, Note_on_c, 9, 35, 0
1, 17160, Note_on_c, 5, 36, 0
1, 17160, Note_on_c, 9, 69, 52
1, 17280, Note_on_c, 9, 69, 0
1, 17280, Note_on_c, 0, 72, 0
1, 17280, Note_on_c, 5, 36, 48
1, 17280, Note_on_c, 9, 69, 80
1, 17280, Note_on_c, 9, 35, 80
1, 17280, Note_on_c, 13, 36, 48
1, 17280, Note_on_c, 0, 72, 44
1, 17280, Note_on_c, 12, 36, 76
1, 17400, Note_on_c, 9, 69, 0
1, 17400, Note_on_c, 9, 35, 0
1, 17400, Note_on_c, 5, 36, 0
1, 17520, Note_on_c, 13, 36, 0
1, 17520, Note_on_c, 12, 36, 0
1, 17520, Note_on_c, 5, 36, 48
1, 17520, Note_on_c, 9, 69, 64
1, 17520, Note_on_c, 9, 53, 32
1, 17520, Note_on_c, 9, 34, 80
1, 17520, Note_on_c, 13, 36, 48
1, 17520, Note_on_c, 12, 36, 76
1, 17640, Note_on_c, 9, 69, 0
1, 17640, Note_on_c, 9, 53, 0
1, 17640, Note_on_c, 9, 34, 0
1, 17640, Note_on_c, 5, 36, 0
1, 17760, Note_on_c, 13, 36, 0
1, 17760, Note_on_c, 0, 72, 0
1, 17760, Note_on_c, 12, 36, 0
1, 17760, Note_on_c, 5, 40, 48
1, 17760, Note_on_c, 9, 36, 64
1, 17760, Note_on_c, 9, 40, 64
1, 17760, Note_on_c, 9, 69, 64
1, 17760, Note_on_c, 9, 33, 80
1, 17760, Note_on_c, 13, 40, 48
1, 17760, Note_on_c, 0, 72, 44
1, 17760, Note_on_c, 12, 40, 76
1, 17880, Note_on_c, 9, 36, 0
1, 17880, Note_on_c, 9, 40, 0
1, 17880, Note_on_c, 9, 69, 0
1, 17880, Note_on_c, 9, 33, 0
1, 18000, Note_on_c, 13, 40, 0
1, 18000, Note_on_c, 5, 40, 0
1, 18000, Note_on_c, 12, 40, 0
1, 18000, Note_on_c, 5, 36, 48
1, 18000, Note_on_c, 9, 69, 64
1, 18000, Note_on_c, 9, 35, 80
1, 18000, Note_on_c, 13, 38, 48
1, 18000, Note_on_c, 12, 38, 76
1, 18120, Note_on_c, 9, 69, 0
1, 18120, Note_on_c, 9, 35, 0
1, 18120, Note_on_c, 5, 36, 0
1, 18240, Note_on_c, 13, 38, 0
1, 18240, Note_on_c, 14, 64, 0
1, 18240, Note_on_c, 14, 60, 0
1, 18240, Pitch_bend_c, 15, 813
1, 18240, Pitch_bend_c, 2, 768
1, 18240, Note_on_c, 0, 72, 0
1, 18240, Note_on_c, 12, 38, 0
1, 18240, Note_on_c, 14, 57, 32
1, 18240, Note_on_c, 14, 62, 20
1, 18240, Note_on_c, 5, 36, 48
1, 18240, Note_on_c, 9, 69, 64
1, 18240, Note_on_c, 9, 35, 80
1, 18240, Note_on_c, 13, 38, 48
1, 18240, Note_on_c, 0, 69, 44
1, 18240, Note_on_c, 12, 38, 76
1, 18360, Note_on_c, 9, 69, 0
1, 18360, Note_on_c, 9, 35, 0
1, 18360, Note_on_c, 5, 36, 0
1, 18480, Note_on_c, 0, 69, 0
1, 18480, Note_on_c, 5, 36, 48
1, 18480, Note_on_c, 9, 69, 64
1, 18480, Note_on_c, 9, 53, 32
1, 18480, Note_on_c, 9, 35, 80
1, 18480, Note_on_c, 0, 67, 44
1, 18480, Note_on_c, 0, 55, 40
1, 18600, Note_on_c, 9, 69, 0
1, 18600, Note_on_c, 9, 53, 0
1, 18600, Note_on_c, 9, 35, 0
1, 18600, Note_on_c, 5, 36, 0
1, 18720, Note_on_c, 13, 38, 0
1, 18720, Note_on_c, 0, 67, 0
1, 18720, Note_on_c, 0, 55, 0
1, 18720, Note_on_c, 12, 38, 0
1, 18720, Text_t, "Beneath A Desert Moon"
1, 18720, Note_on_c, 5, 38, 48
1, 18720, Note_on_c, 9, 36, 64
1, 18720, Note_on_c, 9, 40, 64
1, 18720, Note_on_c, 9, 69, 64
1, 18720, Note_on_c, 9, 33, 80
1, 18720, Note_on_c, 13, 38, 48
1, 18720, Note_on_c, 0, 60, 48
1, 18720, Note_on_c, 3, 72, 64
1, 18720, Note_on_c, 12, 38, 76
1, 18840, Note_on_c, 9, 36, 0
1, 18840, Note_on_c, 9, 40, 0
1, 18840, Note_on_c, 9, 69, 0
1, 18840, Note_on_c, 9, 33, 0
1, 18960, Note_on_c, 13, 38, 0
1, 18960, Note_on_c, 5, 38, 0
1, 18960, Note_on_c, 0, 60, 0
1, 18960, Note_on_c, 3, 72, 0
1, 18960, Note_on_c, 12, 38, 0
1, 18960, Note_on_c, 5, 36, 48
1, 18960, Note_on_c, 9, 69, 64
1, 18960, Note_on_c, 9, 70, 32
1, 18960, Note_on_c, 9, 33, 80
1, 18960, Note_on_c, 0, 62, 64
1, 18960, Note_on_c, 3, 74, 64
1, 19020, Note_on_c, 9, 70, 0
1, 19020, Note_on_c, 9, 70, 44
1, 19080, Note_on_c, 9, 69, 0
1, 19080, Note_on_c, 9, 70, 0
1, 19080, Note_on_c, 9, 33, 0
1, 19080, Note_on_c, 5, 36, 0
1, 19080, Note_on_c, 9, 70, 60
1, 19140, Note_on_c, 9, 70, 0
1, 19140, Note_on_c, 9, 70, 68
1, 19200, Note_on_c, 9, 70, 0
1, 19200, Note_on_c, 2, 52, 0
1, 19200, Note_on_c, 15, 64, 0
1, 19200, Note_on_c, 14, 62, 0
1, 19200, Note_on_c, 14, 55, 0
1, 19200, Note_on_c, 14, 57, 0
1, 19200, Pitch_bend_c, 15, 8192
1, 19200, Pitch_bend_c, 2, 8192
1, 19200, Note_on_c, 0, 62, 0
1, 19200, Pitch_bend_c, 15, 8192
1, 19200, Note_on_c, 3, 74, 0
1, 19200, Note_on_c, 14, 55, 20
1, 19200, Note_on_c, 14, 64, 32
1, 19200, Note_on_c, 14, 60, 20
1, 19200, Note_on_c, 15, 64, 40
1, 19200, Note_on_c, 5, 36, 48
1, 19200, Note_on_c, 9, 69, 64
1, 19200, Note_on_c, 2, 52, 52
1, 19200, Note_on_c, 9, 35, 80
1, 19200, Note_on_c, 13, 36, 48
1, 19200, Note_on_c, 0, 64, 64
1, 19200, Note_on_c, 3, 76, 64
1, 19200, Note_on_c, 12, 36, 96
1, 19320, Note_on_c, 9, 35, 0
1, 19320, Note_on_c, 9, 69, 0
1, 19320, Note_on_c, 5, 36, 0
1, 19440, Note_on_c, 13, 36, 0
1, 19440, Note_on_c, 0, 64, 0
1, 19440, Note_on_c, 3, 76, 0
1, 19440, Note_on_c, 5, 36, 48
1, 19440, Note_on_c, 9, 69, 64
1, 19440, Note_on_c, 9, 53, 32
1, 19440, Note_on_c, 9, 34, 80
1, 19440, Note_on_c, 0, 65, 64
1, 19440, Note_on_c, 3, 77, 64
1, 19560, Note_on_c, 9, 34, 0
1, 19560, Note_on_c, 9, 53, 0
1, 19560, Note_on_c, 9, 69, 0
1, 19560, Note_on_c, 5, 36, 0
1, 19680, Note_on_c, 0, 65, 0
1, 19680, Note_on_c, 3, 77, 0
1, 19680, Note_on_c, 9, 36, 64
1, 19680, Note_on_c, 9, 40, 64
1, 19680, Note_on_c, 9, 69, 64
1, 19680, Note_on_c, 9, 33, 80
1, 19680, Note_on_c, 0, 64, 64
1, 19680, Note_on_c, 3, 76, 64
1, 19800, Note_on_c, 9, 33, 0
1, 19800, Note_on_c, 9, 69, 0
1, 19800, Note_on_c, 9, 40, 0
1, 19800, Note_on_c, 9, 36, 0
1, 19860, Note_on_c, 12, 36, 0
1, 19920, Note_on_c, 0, 64, 0
1, 19920, Note_on_c, 3, 76, 0
1, 19920, Note_on_c, 5, 36, 48
1, 19920, Note_on_c, 9, 69, 64
1, 19920, Note_on_c, 9, 35, 80
1, 19920, Note_on_c, 13, 36, 48
1, 19920, Note_on_c, 0, 62, 64
1, 19920, Note_on_c, 3, 74, 64
1, 19920, Note_on_c, 12, 36, 96
1, 20040, Note_on_c, 9, 35, 0
1, 20040, Note_on_c, 9, 69, 0
1, 20040, Note_on_c, 5, 36, 0
1, 20100, Note_on_c, 12, 36, 0
1, 20160, Note_on_c, 13, 36, 0
1, 20160, Note_on_c, 0, 62, 0
1, 20160, Note_on_c, 3, 74, 0
1, 20160, Note_on_c, 5, 36, 48
1, 20160, Note_on_c, 9, 69, 64
1, 20160, Note_on_c, 9, 35, 80
1, 20160, Note_on_c, 13, 36, 48
1, 20160, Note_on_c, 3, 72, 64
1, 20160, Note_on_c, 0, 60, 64
1, 20160, Note_on_c, 12, 36, 96
1, 20280, Note_on_c, 9, 35, 0
1, 20280, Note_on_c, 9, 69, 0
1, 20280, Note_on_c, 5, 36, 0
1, 20400, Note_on_c, 13, 36, 0
1, 20400, Note_on_c, 5, 36, 48
1, 20400, Note_on_c, 9, 69, 64
1, 20400, Note_on_c, 9, 53, 32
1, 20400, Note_on_c, 9, 34, 80
1, 20520, Note_on_c, 9, 34, 0
1, 20520, Note_on_c, 9, 53, 0
1, 20520, Note_on_c, 9, 69, 0
1, 20520, Note_on_c, 5, 36, 0
1, 20580, Note_on_c, 3, 72, 0
1, 20640, Note_on_c, 0, 60, 0
1, 20640, Note_on_c, 9, 36, 64
1, 20640, Note_on_c, 9, 40, 64
1, 20640, Note_on_c, 9, 69, 64
1, 20640, Note_on_c, 9, 33, 80
1, 20640, Note_on_c, 0, 60, 64
1, 20640, Note_on_c, 3, 72, 64
1, 20760, Note_on_c, 9, 33, 0
1, 20760, Note_on_c, 9, 69, 0
1, 20760, Note_on_c, 9, 40, 0
1, 20760, Note_on_c, 9, 36, 0
1, 20880, Note_on_c, 0, 60, 0
1, 20880, Note_on_c, 3, 72, 0
1, 20880, Note_on_c, 5, 36, 48
1, 20880, Note_on_c, 9, 69, 64
1, 20880, Note_on_c, 9, 35, 80
1, 20880, Note_on_c, 0, 57, 64
1, 20880, Note_on_c, 3, 69, 64
1, 21000, Note_on_c, 9, 35, 0
1, 21000, Note_on_c, 9, 69, 0
1, 21000, Note_on_c, 5, 36, 0
1, 21000, Note_on_c, 9, 69, 52
1, 21060, Note_on_c, 12, 36, 0
1, 21120, Note_on_c, 9, 69, 0
1, 21120, Note_on_c, 0, 57, 0
1, 21120, Note_on_c, 3, 69, 0
1, 21120, Note_on_c, 5, 36, 48
1, 21120, Note_on_c, 9, 69, 80
1, 21120, Note_on_c, 9, 35, 80
1, 21120, Note_on_c, 0, 60, 64
1, 21120, Note_on_c, 13, 36, 48
1, 21120, Note_on_c, 3, 72, 64
1, 21120, Note_on_c, 12, 36, 96
1, 21240, Note_on_c, 9, 35, 0
1, 21240, Note_on_c, 9, 69, 0
1, 21240, Note_on_c, 5, 36, 0
1, 21300, Note_on_c, 12, 36, 0
1, 21360, Note_on_c, 0, 60, 0
1, 21360, Note_on_c, 13, 36, 0
1, 21360, Note_on_c, 5, 36, 48
1, 21360, Note_on_c, 9, 69, 64
1, 21360, Note_on_c, 9, 53, 32
1, 21360, Note_on_c, 9, 34, 80
1, 21360, Note_on_c, 13, 36, 48
1, 21360, Note_on_c, 12, 36, 96
1, 21480, Note_on_c, 9, 34, 0
1, 21480, Note_on_c, 9, 53, 0
1, 21480, Note_on_c, 9, 69, 0
1, 21480, Note_on_c, 5, 36, 0
1, 21540, Note_on_c, 3, 72, 0
1, 21600, Note_on_c, 13, 36, 0
1, 21600, Note_on_c, 9, 36, 64
1, 21600, Note_on_c, 9, 40, 64
1, 21600, Note_on_c, 9, 69, 64
1, 21600, Note_on_c, 9, 33, 80
1, 21600, Note_on_c, 0, 57, 64
1, 21600, Note_on_c, 3, 69, 64
1, 21720, Note_on_c, 9, 33, 0
1, 21720, Note_on_c, 9, 69, 0
1, 21720, Note_on_c, 9, 40, 0
1, 21720, Note_on_c, 9, 36, 0
1, 21780, Note_on_c, 12, 36, 0
1, 21840, Note_on_c, 0, 57, 0
1, 21840, Note_on_c, 3, 69, 0
1, 21840, Note_on_c, 5, 36, 48
1, 21840, Note_on_c, 9, 69, 64
1, 21840, Note_on_c, 9, 35, 80
1, 21840, Note_on_c, 13, 36, 48
1, 21840, Note_on_c, 3, 74, 64
1, 21840, Note_on_c, 0, 62, 64
1, 21840, Note_on_c, 12, 36, 96
1, 21960, Note_on_c, 9, 35, 0
1, 21960, Note_on_c, 9, 69, 0
1, 21960, Note_on_c, 5, 36, 0
1, 22020, Note_on_c, 12, 36, 0
1, 22080, Note_on_c, 14, 60, 0
1, 22080, Note_on_c, 14, 64, 0
1, 22080, Note_on_c, 13, 36, 0
1, 22080, Pitch_bend_c, 15, 768
1, 22080, Pitch_bend_c, 2, 768
1, 22080, Note_on_c, 14, 57, 32
1, 22080, Note_on_c, 14, 62, 20
1, 22080, Note_on_c, 5, 36, 48
1, 22080, Note_on_c, 9, 69, 64
1, 22080, Note_on_c, 9, 35, 80
1, 22080, Note_on_c, 13, 38, 48
1, 22080, Note_on_c, 12, 38, 96
1, 22200, Note_on_c, 9, 35, 0
1, 22200, Note_on_c, 9, 69, 0
1, 22200, Note_on_c, 5, 36, 0
1, 22320, Note_on_c, 3, 74, 0
1, 22320, Note_on_c, 13, 38, 0
1, 22320, Note_on_c, 5, 36, 48
1, 22320, Note_on_c, 9, 69, 64
1, 22320, Note_on_c, 9, 53, 32
1, 22320, Note_on_c, 9, 35, 80
1, 22320, Note_on_c, 3, 76, 64
1, 22440, Note_on_c, 9, 35, 0
1, 22440, Note_on_c, 9, 53, 0
1, 22440, Note_on_c, 9, 69, 0
1, 22440, Note_on_c, 5, 36, 0
1, 22500, Note_on_c, 12, 38, 0
1, 22549, Text_t, "from the deserts of the west"
1, 22560, Note_on_c, 3, 76, 0
1, 22560, Note_on_c, 0, 62, 0
1, 22560, Note_on_c, 9, 36, 64
1, 22560, Note_on_c, 9, 40, 64
1, 22560, Note_on_c, 9, 69, 64
1, 22560, Note_on_c, 9, 33, 80
1, 22560, Note_on_c, 0, 60, 64
1, 22560, Note_on_c, 3, 72, 64
1, 22560, Note_on_c, 13, 38, 48
1, 22560, Note_on_c, 12, 38, 96
1, 22680, Note_on_c, 9, 33, 0
1, 22680, Note_on_c, 9, 69, 0
1, 22680, Note_on_c, 9, 40, 0
1, 22680, Note_on_c, 9, 36, 0
1, 22800, Note_on_c, 0, 60, 0
1, 22800, Note_on_c, 3, 72, 0
1, 22800, Note_on_c, 13, 38, 0
1, 22800, Note_on_c, 5, 36, 48
1, 22800, Note_on_c, 9, 69, 64
1, 22800, Note_on_c, 9, 70, 32
1, 22800, Note_on_c, 9, 33, 80
1, 22800, Note_on_c, 0, 62, 64
1, 22800, Note_on_c, 3, 74, 64
1, 22860, Note_on_c, 9, 70, 0
1, 22860, Note_on_c, 9, 70, 44
1, 22920, Note_on_c, 9, 33, 0
1, 22920, Note_on_c, 9, 70, 0
1, 22920, Note_on_c, 9, 69, 0
1, 22920, Note_on_c, 5, 36, 0
1, 22920, Note_on_c, 9, 70, 60
1, 22980, Note_on_c, 9, 70, 0
1, 22980, Note_on_c, 12, 38, 0
1, 22980, Note_on_c, 9, 70, 68
1, 23040, Note_on_c, 9, 70, 0
1, 23040, Note_on_c, 15, 64, 0
1, 23040, Note_on_c, 14, 57, 0
1, 23040, Note_on_c, 14, 62, 0
1, 23040, Note_on_c, 14, 55, 0
1, 23040, Note_on_c, 0, 62, 0
1, 23040, Pitch_bend_c, 15, 8192
1, 23040, Pitch_bend_c, 2, 8192
1, 23040, Note_on_c, 3, 74, 0
1, 23040, Note_on_c, 14, 55, 20
1, 23040, Note_on_c, 14, 64, 32
1, 23040, Note_on_c, 14, 60, 20
1, 23040, Note_on_c, 15, 64, 40
1, 23040, Note_on_c, 5, 36, 48
1, 23040, Note_on_c, 9, 69, 64
1, 23040, Note_on_c, 9, 35, 80
1, 23040, Note_on_c, 13, 36, 48
1, 23040, Note_on_c, 0, 64, 64
1, 23040, Note_on_c, 3, 76, 64
1, 23040, Note_on_c, 12, 36, 96
1, 23160, Note_on_c, 9, 69, 0
1, 23160, Note_on_c, 9, 35, 0
1, 23160, Note_on_c, 5, 36, 0
1, 23280, Note_on_c, 13, 36, 0
1, 23280, Note_on_c, 0, 64, 0
1, 23280, Note_on_c, 3, 76, 0
1, 23280, Note_on_c, 5, 36, 48
1, 23280, Note_on_c, 9, 69, 64
1, 23280, Note_on_c, 9, 53, 32
1, 23280, Note_on_c, 9, 34, 80
1, 23280, Note_on_c, 0, 65, 64
1, 23280, Note_on_c, 3, 77, 64
1, 23400, Note_on_c, 9, 69, 0
1, 23400, Note_on_c, 9, 53, 0
1, 23400, Note_on_c, 9, 34, 0
1, 23400, Note_on_c, 5, 36, 0
1, 23520, Note_on_c, 0, 65, 0
1, 23520, Note_on_c, 3, 77, 0
1, 23520, Note_on_c, 9, 36, 64
1, 23520, Note_on_c, 9, 40, 64
1, 23520, Note_on_c, 9, 69, 64
1, 23520, Note_on_c, 9, 33, 80
1, 23520, Note_on_c, 3, 76, 64
1, 23520, Note_on_c, 0, 64, 64
1, 23640, Note_on_c, 9, 36, 0
1, 23640, Note_on_c, 9, 40, 0
1, 23640, Note_on_c, 9, 69, 0
1, 23640, Note_on_c, 9, 33, 0
1, 23700, Note_on_c, 12, 36, 0
1, 23760, Note_on_c, 3, 76, 0
1, 23760, Note_on_c, 0, 64, 0
1, 23760, Note_on_c, 5, 36, 48
1, 23760, Note_on_c, 9, 69, 64
1, 23760, Note_on_c, 9, 35, 80
1, 23760, Note_on_c, 13, 36, 48
1, 23760, Note_on_c, 3, 74, 64
1, 23760, Note_on_c, 0, 60, 64
1, 23760, Note_on_c, 12, 36, 96
1, 23880, Note_on_c, 9, 69, 0
1, 23880, Note_on_c, 9, 35, 0
1, 23880, Note_on_c, 5, 36, 0
1, 23940, Note_on_c, 12, 36, 0
1, 24000, Note_on_c, 13, 36, 0
1, 24000, Note_on_c, 3, 74, 0
1, 24000, Note_on_c, 5, 36, 48
1, 24000, Note_on_c, 9, 69, 64
1, 24000, Note_on_c, 9, 35, 80
1, 24000, Note_on_c, 13, 36, 48
1, 24000, Note_on_c, 3, 72, 64
1, 24000, Note_on_c, 12, 36, 96
1, 24120, Note_on_c, 9, 69, 0
1, 24120, Note_on_c, 9, 35, 0
1, 24120, Note_on_c, 5, 36, 0
1, 24240, Note_on_c, 13, 36, 0
1, 24240, Note_on_c, 5, 36, 48
1, 24240, Note_on_c, 9, 69, 64
1, 24240, Note_on_c, 9, 53, 32
1, 24240, Note_on_c, 9, 34, 80
1, 24360, Note_on_c, 9, 69, 0
1, 24360, Note_on_c, 9, 53, 0
1, 24360, Note_on_c, 9, 34, 0
1, 24360, Note_on_c, 5, 36, 0
1, 24420, Note_on_c, 3, 72, 0
1, 24480, Note_on_c, 9, 36, 64
1, 24480, Note_on_c, 9, 40, 64
1, 24480, Note_on_c, 9, 69, 64
1, 24480, Note_on_c, 9, 33, 80
1, 24480, Note_on_c, 3, 72, 64
1, 24600, Note_on_c, 9, 36, 0
1, 24600, Note_on_c, 9, 40, 0
1, 24600, Note_on_c, 9, 69, 0
1, 24600, Note_on_c, 9, 33, 0
1, 24720, Note_on_c, 3, 72, 0
1, 24720, Note_on_c, 0, 60, 0
1, 24720, Note_on_c, 5, 36, 48
1, 24720, Note_on_c, 9, 69, 64
1, 24720, Note_on_c, 9, 35, 80
1, 24720, Note_on_c, 3, 69, 64
1, 24720, Note_on_c, 0, 57, 64
1, 24840, Note_on_c, 9, 69, 0
1, 24840, Note_on_c, 9, 35, 0
1, 24840, Note_on_c, 5, 36, 0
1, 24840, Note_on_c, 9, 69, 52
1, 24900, Note_on_c, 12, 36, 0
1, 24960, Note_on_c, 9, 69, 0
1, 24960, Note_on_c, 5, 36, 48
1, 24960, Note_on_c, 9, 69, 80
1, 24960, Note_on_c, 9, 35, 80
1, 24960, Note_on_c, 13, 36, 48
1, 24960, Note_on_c, 12, 36, 96
1, 25080, Note_on_c, 9, 69, 0
1, 25080, Note_on_c, 9, 35, 0
1, 25080, Note_on_c, 5, 36, 0
1, 25140, Note_on_c, 3, 69, 0
1, 25140, Note_on_c, 12, 36, 0
1, 25200, Note_on_c, 13, 36, 0
1, 25200, Note_on_c, 5, 36, 48
1, 25200, Note_on_c, 9, 69, 64
1, 25200, Note_on_c, 9, 53, 32
1, 25200, Note_on_c, 9, 34, 80
1, 25200, Note_on_c, 13, 36, 48
1, 25200, Note_on_c, 3, 76, 64
1, 25200, Note_on_c, 12, 36, 96
1, 25320, Note_on_c, 9, 69, 0
1, 25320, Note_on_c, 9, 53, 0
1, 25320, Note_on_c, 9, 34, 0
1, 25320, Note_on_c, 5, 36, 0
1, 25440, Note_on_c, 13, 36, 0
1, 25440, Note_on_c, 9, 36, 64
1, 25440, Note_on_c, 9, 40, 64
1, 25440, Note_on_c, 9, 69, 64
1, 25440, Note_on_c, 9, 33, 80
1, 25560, Note_on_c, 9, 36, 0
1, 25560, Note_on_c, 9, 40, 0
1, 25560, Note_on_c, 9, 69, 0
1, 25560, Note_on_c, 9, 33, 0
1, 25620, Note_on_c, 12, 36, 0
1, 25680, Note_on_c, 3, 76, 0
1, 25680, Note_on_c, 5, 36, 48
1, 25680, Note_on_c, 9, 69, 64
1, 25680, Note_on_c, 9, 35, 80
1, 25680, Note_on_c, 13, 36, 48
1, 25680, Note_on_c, 3, 69, 64
1, 25680, Note_on_c, 12, 36, 96
1, 25800, Note_on_c, 9, 69, 0
1, 25800, Note_on_c, 9, 35, 0
1, 25800, Note_on_c, 5, 36, 0
1, 25860, Note_on_c, 12, 36, 0
1, 25920, Note_on_c, 14, 64, 0
1, 25920, Note_on_c, 14, 60, 0
1, 25920, Note_on_c, 13, 36, 0
1, 25920, Pitch_bend_c, 15, 813
1, 25920, Pitch_bend_c, 2, 768
1, 25920, Note_on_c, 3, 69, 0
1, 25920, Note_on_c, 0, 57, 0
1, 25920, Note_on_c, 14, 57, 32
1, 25920, Note_on_c, 14, 62, 20
1, 25920, Note_on_c, 5, 36, 48
1, 25920, Note_on_c, 9, 69, 64
1, 25920, Note_on_c, 9, 35, 80
1, 25920, Note_on_c, 13, 31, 48
1, 25920, Note_on_c, 3, 67, 64
1, 25920, Note_on_c, 6, 67, 64
1, 25920, Note_on_c, 0, 55, 64
1, 25920, Note_on_c, 12, 31, 96
1, 26040, Note_on_c, 9, 69, 0
1, 26040, Note_on_c, 9, 35, 0
1, 26040, Note_on_c, 5, 36, 0
1, 26040, Note_on_c, 6, 67, 0
1, 26040, Note_on_c, 6, 69, 64
1, 26160, Note_on_c, 13, 31, 0
1, 26160, Note_on_c, 3, 67, 0
1, 26160, Note_on_c, 6, 69, 0
1, 26160, Note_on_c, 5, 36, 48
1, 26160, Note_on_c, 9, 69, 64
1, 26160, Note_on_c, 9, 53, 32
1, 26160, Note_on_c, 9, 35, 80
1, 26160, Note_on_c, 3, 67, 64
1, 26160, Note_on_c, 6, 72, 64
1, 26280, Note_on_c, 9, 69, 0
1, 26280, Note_on_c, 9, 53, 0
1, 26280, Note_on_c, 9, 35, 0
1, 26280, Note_on_c, 5, 36, 0
1, 26280, Note_on_c, 6, 72, 0
1, 26340, Note_on_c, 12, 31, 0
1, 26389, Text_t, "beneath a canopy of stars"
1, 26400, Note_on_c, 3, 67, 0
1, 26400, Note_on_c, 0, 55, 0
1, 26400, Note_on_c, 9, 36, 64
1, 26400, Note_on_c, 9, 40, 64
1, 26400, Note_on_c, 9, 69, 64
1, 26400, Note_on_c, 9, 33, 80
1, 26400, Note_on_c, 13, 31, 48
1, 26400, Note_on_c, 0, 60, 64
1, 26400, Note_on_c, 3, 72, 64
1, 26400, Note_on_c, 6, 69, 64
1, 26400, Note_on_c, 12, 31, 96
1, 26520, Note_on_c, 9, 36, 0
1, 26520, Note_on_c, 9, 40, 0
1, 26520, Note_on_c, 9, 69, 0
1, 26520, Note_on_c, 9, 33, 0
1, 26640, Note_on_c, 13, 31, 0
1, 26640, Note_on_c, 0, 60, 0
1, 26640, Note_on_c, 3, 72, 0
1, 26640, Note_on_c, 6, 69, 0
1, 26640, Note_on_c, 5, 36, 48
1, 26640, Note_on_c, 9, 69, 64
1, 26640, Note_on_c, 9, 70, 32
1, 26640, Note_on_c, 9, 33, 80
1, 26640, Note_on_c, 0, 62, 64
1, 26640, Note_on_c, 3, 74, 64
1, 26640, Note_on_c, 6, 67, 64
1, 26700, Note_on_c, 9, 70, 0
1, 26700, Note_on_c, 9, 70, 44
1, 26760, Note_on_c, 9, 69, 0
1, 26760, Note_on_c, 9, 70, 0
1, 26760, Note_on_c, 9, 33, 0
1, 26760, Note_on_c, 5, 36, 0
1, 26760, Note_on_c, 9, 70, 60
1, 26820, Note_on_c, 9, 70, 0
1, 26820, Note_on_c, 12, 31, 0
1, 26820, Note_on_c, 9, 70, 68
1, 26880, Note_on_c, 9, 70, 0
1, 26880, Note_on_c, 2, 52, 0
1, 26880, Note_on_c, 15, 64, 0
1, 26880, Note_on_c, 14, 62, 0
1, 26880, Note_on_c, 14, 55, 0
1, 26880, Note_on_c, 14, 57, 0
1, 26880, Pitch_bend_c, 15, 8192
1, 26880, Pitch_bend_c, 2, 8192
1, 26880, Pitch_bend_c, 15, 8192
1, 26880, Note_on_c, 0, 62, 0
1, 26880, Note_on_c, 3, 74, 0
1, 26880, Note_on_c, 6, 67, 0
1, 26880, Note_on_c, 14, 55, 20
1, 26880, Note_on_c, 14, 64, 32
1, 26880, Note_on_c, 14, 60, 20
1, 26880, Note_on_c, 15, 64, 40
1, 26880, Note_on_c, 5, 36, 48
1, 26880, Note_on_c, 9, 69, 64
1, 26880, Note_on_c, 2, 52, 52
1, 26880, Note_on_c, 9, 35, 80
1, 26880, Note_on_c, 13, 36, 48
1, 26880, Note_on_c, 0, 64, 64
1, 26880, Note_on_c, 3, 76, 64
1, 26880, Note_on_c, 12, 36, 96
1, 27000, Note_on_c, 5, 36, 0
1, 27000, Note_on_c, 9, 69, 0
1, 27000, Note_on_c, 9, 35, 0
1, 27120, Note_on_c, 13, 36, 0
1, 27120, Note_on_c, 0, 64, 0
1, 27120, Note_on_c, 3, 76, 0
1, 27120, Note_on_c, 5, 36, 48
1, 27120, Note_on_c, 9, 69, 64
1, 27120, Note_on_c, 9, 53, 32
1, 27120, Note_on_c, 9, 34, 80
1, 27120, Note_on_c, 0, 65, 64
1, 27120, Note_on_c, 3, 77, 64
1, 27240, Note_on_c, 5, 36, 0
1, 27240, Note_on_c, 9, 69, 0
1, 27240, Note_on_c, 9, 53, 0
1, 27240, Note_on_c, 9, 34, 0
1, 27360, Note_on_c, 0, 65, 0
1, 27360, Note_on_c, 3, 77, 0
1, 27360, Note_on_c, 9, 36, 64
1, 27360, Note_on_c, 9, 40, 64
1, 27360, Note_on_c, 9, 69, 64
1, 27360, Note_on_c, 9, 33, 80
1, 27360, Note_on_c, 0, 64, 64
1, 27360, Note_on_c, 3, 76, 64
1, 27480, Note_on_c, 9, 36, 0
1, 27480, Note_on_c, 9, 40, 0
1, 27480, Note_on_c, 9, 69, 0
1, 27480, Note_on_c, 9, 33, 0
1, 27540, Note_on_c, 12, 36, 0
1, 27600, Note_on_c, 0, 64, 0
1, 27600, Note_on_c, 3, 76, 0
1, 27600, Note_on_c, 5, 36, 48
1, 27600, Note_on_c, 9, 69, 64
1, 27600, Note_on_c, 9, 35, 80
1, 27600, Note_on_c, 13, 36, 48
1, 27600, Note_on_c, 0, 62, 64
1, 27600, Note_on_c, 3, 74, 64
1, 27600, Note_on_c, 12, 36, 96
1, 27720, Note_on_c, 5, 36, 0
1, 27720, Note_on_c, 9, 69, 0
1, 27720, Note_on_c, 9, 35, 0
1, 27780, Note_on_c, 12, 36, 0
1, 27840, Note_on_c, 13, 36, 0
1, 27840, Note_on_c, 0, 62, 0
1, 27840, Note_on_c, 3, 74, 0
1, 27840, Note_on_c, 5, 36, 48
1, 27840, Note_on_c, 9, 69, 64
1, 27840, Note_on_c, 9, 35, 80
1, 27840, Note_on_c, 13, 36, 48
1, 27840, Note_on_c, 0, 60, 64
1, 27840, Note_on_c, 3, 72, 64
1, 27840, Note_on_c, 12, 36, 96
1, 27960, Note_on_c, 5, 36, 0
1, 27960, Note_on_c, 9, 69, 0
1, 27960, Note_on_c, 9, 35, 0
1, 28080, Note_on_c, 13, 36, 0
1, 28080, Note_on_c, 0, 60, 0
1, 28080, Note_on_c, 3, 72, 0
1, 28080, Note_on_c, 5, 36, 48
1, 28080, Note_on_c, 9, 69, 64
1, 28080, Note_on_c, 9, 53, 32
1, 28080, Note_on_c, 9, 34, 80
1, 28200, Note_on_c, 5, 36, 0
1, 28200, Note_on_c, 9, 69, 0
1, 28200, Note_on_c, 9, 53, 0
1, 28200, Note_on_c, 9, 34, 0
1, 28320, Note_on_c, 9, 36, 64
1, 28320, Note_on_c, 9, 40, 64
1, 28320, Note_on_c, 9, 69, 64
1, 28320, Note_on_c, 9, 33, 80
1, 28320, Note_on_c, 0, 60, 64
1, 28320, Note_on_c, 3, 72, 64
1, 28440, Note_on_c, 9, 36, 0
1, 28440, Note_on_c, 9, 40, 0
1, 28440, Note_on_c, 9, 69, 0
1, 28440, Note_on_c, 9, 33, 0
1, 28560, Note_on_c, 0, 60, 0
1, 28560, Note_on_c, 3, 72, 0
1, 28560, Note_on_c, 5, 36, 48
1, 28560, Note_on_c, 9, 69, 64
1, 28560, Note_on_c, 9, 35, 80
1, 28560, Note_on_c, 0, 57, 64
1, 28560, Note_on_c, 3, 69, 64
1, 28680, Note_on_c, 5, 36, 0
1, 28680, Note_on_c, 9, 69, 0
1, 28680, Note_on_c, 9, 35, 0
1, 28680, Note_on_c, 9, 69, 52
1, 28740, Note_on_c, 12, 36, 0
1, 28800, Note_on_c, 9, 69, 0
1, 28800, Note_on_c, 0, 57, 0
1, 28800, Note_on_c, 3, 69, 0
1, 28800, Note_on_c, 5, 36, 48
1, 28800, Note_on_c, 9, 69, 80
1, 28800, Note_on_c, 9, 35, 80
1, 28800, Note_on_c, 13, 36, 48
1, 28800, Note_on_c, 0, 60, 64
1, 28800, Note_on_c, 3, 72, 64
1, 28800, Note_on_c, 12, 36, 96
1, 28920, Note_on_c, 5, 36, 0
1, 28920, Note_on_c, 9, 69, 0
1, 28920, Note_on_c, 9, 35, 0
1, 28980, Note_on_c, 12, 36, 0
1, 29040, Note_on_c, 13, 36, 0
1, 29040, Note_on_c, 5, 36, 48
1, 29040, Note_on_c, 9, 69, 64
1, 29040, Note_on_c, 9, 53, 32
1, 29040, Note_on_c, 9, 34, 80
1, 29040, Note_on_c, 13, 36, 48
1, 29040, Note_on_c, 12, 36, 96
1, 29160, Note_on_c, 5, 36, 0
1, 29160, Note_on_c, 9, 69, 0
1, 29160, Note_on_c, 9, 53, 0
1, 29160, Note_on_c, 9, 34, 0
1, 29280, Note_on_c, 13, 36, 0
1, 29280, Note_on_c, 0, 60, 0
1, 29280, Note_on_c, 3, 72, 0
1, 29280, Note_on_c, 9, 36, 64
1, 29280, Note_on_c, 9, 40, 64
1, 29280, Note_on_c, 9, 69, 64
1, 29280, Note_on_c, 9, 33, 80
1, 29280, Note_on_c, 0, 57, 64
1, 29280, Note_on_c, 3, 69, 64
1, 29400, Note_on_c, 9, 36, 0
1, 29400, Note_on_c, 9, 40, 0
1, 29400, Note_on_c, 9, 69, 0
1, 29400, Note_on_c, 9, 33, 0
1, 29460, Note_on_c, 12, 36, 0
1, 29520, Note_on_c, 0, 57, 0
1, 29520, Note_on_c, 3, 69, 0
1, 29520, Note_on_c, 5, 36, 48
1, 29520, Note_on_c, 9, 69, 64
1, 29520, Note_on_c, 9, 35, 80
1, 29520, Note_on_c, 13, 36, 48
1, 29520, Note_on_c, 0, 62, 64
1, 29520, Note_on_c, 3, 74, 64
1, 29520, Note_on_c, 12, 36, 96
1, 29640, Note_on_c, 5, 36, 0
1, 29640, Note_on_c, 9, 69, 0
1, 29640, Note_on_c, 9, 35, 0
1, 29700, Note_on_c, 12, 36, 0
1, 29760, Note_on_c, 14, 64, 0
1, 29760, Note_on_c, 14, 60, 0
1, 29760, Pitch_bend_c, 15, 768
1, 29760, Pitch_bend_c, 2, 768
1, 29760, Note_on_c, 13, 36, 0
1, 29760, Note_on_c, 14, 57, 32
1, 29760, Note_on_c, 14, 62, 20
1, 29760, Note_on_c, 5, 36, 48
1, 29760, Note_on_c, 9, 69, 64
1, 29760, Note_on_c, 9, 35, 80
1, 29760, Note_on_c, 13, 38, 48
1, 29760, Note_on_c, 12, 38, 96
1, 29880, Note_on_c, 5, 36, 0
1, 29880, Note_on_c, 9, 69, 0
1, 29880, Note_on_c, 9, 35, 0
1, 30000, Note_on_c, 0, 62, 0
1, 30000, Note_on_c, 3, 74, 0
1, 30000, Note_on_c, 13, 38, 0
1, 30000, Note_on_c, 5, 36, 48
1, 30000, Note_on_c, 9, 69, 64
1, 30000, Note_on_c, 9, 53, 32
1, 30000, Note_on_c, 9, 35, 80
1, 30000, Note_on_c, 0, 64, 64
1, 30000, Note_on_c, 3, 76, 64
1, 30120, Note_on_c, 5, 36, 0
1, 30120, Note_on_c, 9, 69, 0
1, 30120, Note_on_c, 9, 53, 0
1, 30120, Note_on_c, 9, 35, 0
1, 30180, Note_on_c, 12, 38, 0
1, 30229, Text_t, "flowing through my father's land"
1, 30240, Note_on_c, 0, 64, 0
1, 30240, Note_on_c, 3, 76, 0
1, 30240, Note_on_c, 9, 36, 64
1, 30240, Note_on_c, 9, 40, 64
1, 30240, Note_on_c, 9, 69, 64
1, 30240, Note_on_c, 9, 33, 80
1, 30240, Note_on_c, 0, 60, 64
1, 30240, Note_on_c, 3, 72, 64
1, 30240, Note_on_c, 13, 38, 48
1, 30240, Note_on_c, 12, 38, 96
1, 30360, Note_on_c, 9, 36, 0
1, 30360, Note_on_c, 9, 40, 0
1, 30360, Note_on_c, 9, 69, 0
1, 30360, Note_on_c, 9, 33, 0
1, 30480, Note_on_c, 0, 60, 0
1, 30480, Note_on_c, 3, 72, 0
1, 30480, Note_on_c, 13, 38, 0
1, 30480, Note_on_c, 5, 36, 48
1, 30480, Note_on_c, 9, 69, 64
1, 30480, Note_on_c, 9, 70, 32
1, 30480, Note_on_c, 9, 33, 80
1, 30480, Note_on_c, 0, 62, 64
1, 30480, Note_on_c, 3, 74, 64
1, 30540, Note_on_c, 9, 70, 0
1, 30540, Note_on_c, 9, 70, 44
1, 30600, Note_on_c, 5, 36, 0
1, 30600, Note_on_c, 9, 69, 0
1, 30600, Note_on_c, 9, 70, 0
1, 30600, Note_on_c, 9, 33, 0
1, 30600, Note_on_c, 9, 70, 60
1, 30660, Note_on_c, 9, 70, 0
1, 30660, Note_on_c, 12, 38, 0
1, 30660, Note_on_c, 9, 70, 68
1, 30720, Note_on_c, 14, 55, 0
1, 30720, Note_on_c, 14, 62, 0
1, 30720, Note_on_c, 14, 57, 0
1, 30720, Note_on_c, 15, 64, 0
1, 30720, Note_on_c, 9, 70, 0
1, 30720, Pitch_bend_c, 15, 8192
1, 30720, Pitch_bend_c, 2, 8192
1, 30720, Note_on_c, 0, 62, 0
1, 30720, Note_on_c, 3, 74, 0
1, 30720, Note_on_c, 14, 55, 20
1, 30720, Note_on_c, 14, 64, 32
1, 30720, Note_on_c, 14, 60, 20
1, 30720, Note_on_c, 15, 64, 40
1, 30720, Note_on_c, 5, 36, 48
1, 30720, Note_on_c, 9, 69, 64
1, 30720, Note_on_c, 9, 35, 80
1, 30720, Note_on_c, 13, 36, 48
1, 30720, Note_on_c, 0, 64, 64
1, 30720, Note_on_c, 3, 76, 64
1, 30720, Note_on_c, 12, 36, 96
1, 30840, Note_on_c, 5, 36, 0
1, 30840, Note_on_c, 9, 35, 0
1, 30840, Note_on_c, 9, 69, 0
1, 30960, Note_on_c, 13, 36, 0
1, 30960, Note_on_c, 0, 64, 0
1, 30960, Note_on_c, 3, 76, 0
1, 30960, Note_on_c, 5, 36, 48
1, 30960, Note_on_c, 9, 69, 64
1, 30960, Note_on_c, 9, 53, 32
1, 30960, Note_on_c, 9, 34, 80
1, 30960, Note_on_c, 0, 65, 64
1, 30960, Note_on_c, 3, 77, 64
1, 31080, Note_on_c, 5, 36, 0
1, 31080, Note_on_c, 9, 34, 0
1, 31080, Note_on_c, 9, 53, 0
1, 31080, Note_on_c, 9, 69, 0
1, 31200, Note_on_c, 0, 65, 0
1, 31200, Note_on_c, 3, 77, 0
1, 31200, Note_on_c, 9, 36, 64
1, 31200, Note_on_c, 9, 40, 64
1, 31200, Note_on_c, 9, 69, 64
1, 31200, Note_on_c, 9, 33, 80
1, 31200, Note_on_c, 0, 64, 64
1, 31200, Note_on_c, 3, 76, 64
1, 31320, Note_on_c, 9, 33, 0
1, 31320, Note_on_c, 9, 69, 0
1, 31320, Note_on_c, 9, 40, 0
1, 31320, Note_on_c, 9, 36, 0
1, 31380, Note_on_c, 12, 36, 0
1, 31440, Note_on_c, 0, 64, 0
1, 31440, Note_on_c, 3, 76, 0
1, 31440, Note_on_c, 5, 36, 48
1, 31440, Note_on_c, 9, 69, 64
1, 31440, Note_on_c, 9, 35, 80
1, 31440, Note_on_c, 13, 36, 48
1, 31440, Note_on_c, 0, 62, 64
1, 31440, Note_on_c, 3, 74, 64
1, 31440, Note_on_c, 12, 36, 96
1, 31560, Note_on_c, 5, 36, 0
1, 31560, Note_on_c, 9, 35, 0
1, 31560, Note_on_c, 9, 69, 0
1, 31620, Note_on_c, 12, 36, 0
1, 31680, Note_on_c, 13, 36, 0
1, 31680, Note_on_c, 0, 62, 0
1, 31680, Note_on_c, 3, 74, 0
1, 31680, Note_on_c, 5, 36, 48
1, 31680, Note_on_c, 9, 69, 64
1, 31680, Note_on_c, 9, 35, 80
1, 31680, Note_on_c, 13, 36, 48
1, 31680, Note_on_c, 0, 60, 64
1, 31680, Note_on_c, 3, 72, 64
1, 31680, Note_on_c, 12, 36, 96
1, 31800, Note_on_c, 5, 36, 0
1, 31800, Note_on_c, 9, 35, 0
1, 31800, Note_on_c, 9, 69, 0
1, 31920, Note_on_c, 13, 36, 0
1, 31920, Note_on_c, 0, 60, 0
1, 31920, Note_on_c, 3, 72, 0
1, 31920, Note_on_c, 5, 36, 48
1, 31920, Note_on_c, 9, 69, 64
1, 31920, Note_on_c, 9, 53, 32
1, 31920, Note_on_c, 9, 34, 80
1, 32040, Note_on_c, 5, 36, 0
1, 32040, Note_on_c, 9, 34, 0
1, 32040, Note_on_c, 9, 53, 0
1, 32040, Note_on_c, 9, 69, 0
1, 32160, Note_on_c, 9, 36, 64
1, 32160, Note_on_c, 9, 40, 64
1, 32160, Note_on_c, 9, 69, 64
1, 32160, Note_on_c, 9, 33, 80
1, 32160, Note_on_c, 3, 72, 64
1, 32160, Note_on_c, 0, 60, 64
1, 32280, Note_on_c, 9, 33, 0
1, 32280, Note_on_c, 9, 69, 0
1, 32280, Note_on_c, 9, 40, 0
1, 32280, Note_on_c, 9, 36, 0
1, 32400, Note_on_c, 3, 72, 0
1, 32400, Note_on_c, 0, 60, 0
1, 32400, Note_on_c, 5, 36, 48
1, 32400, Note_on_c, 9, 69, 64
1, 32400, Note_on_c, 9, 35, 80
1, 32400, Note_on_c, 3, 69, 64
1, 32400, Note_on_c, 0, 62, 64
1, 32520, Note_on_c, 5, 36, 0
1, 32520, Note_on_c, 9, 35, 0
1, 32520, Note_on_c, 9, 69, 0
1, 32520, Note_on_c, 9, 69, 52
1, 32580, Note_on_c, 12, 36, 0
1, 32640, Note_on_c, 9, 69, 0
1, 32640, Note_on_c, 3, 69, 0
1, 32640, Note_on_c, 5, 36, 48
1, 32640, Note_on_c, 9, 69, 80
1, 32640, Note_on_c, 9, 35, 80
1, 32640, Note_on_c, 13, 36, 48
1, 32640, Note_on_c, 12, 36, 96
1, 32760, Note_on_c, 5, 36, 0
1, 32760, Note_on_c, 9, 35, 0
1, 32760, Note_on_c, 9, 69, 0
1, 32820, Note_on_c, 12, 36, 0
1, 32880, Note_on_c, 13, 36, 0
1, 32880, Note_on_c, 0, 62, 0
1, 32880, Note_on_c, 5, 36, 48
1, 32880, Note_on_c, 9, 69, 64
1, 32880, Note_on_c, 9, 53, 32
1, 32880, Note_on_c, 9, 34, 80
1, 32880, Note_on_c, 13, 36, 48
1, 32880, Note_on_c, 3, 76, 64
1, 32880, Note_on_c, 0, 64, 64
1, 32880, Note_on_c, 12, 36, 96
1, 33000, Note_on_c, 5, 36, 0
1, 33000, Note_on_c, 9, 34, 0
1, 33000, Note_on_c, 9, 53, 0
1, 33000, Note_on_c, 9, 69, 0
1, 33120, Note_on_c, 13, 36, 0
1, 33120, Note_on_c, 9, 36, 64
1, 33120, Note_on_c, 9, 40, 64
1, 33120, Note_on_c, 9, 69, 64
1, 33120, Note_on_c, 9, 33, 80
1, 33240, Note_on_c, 9, 33, 0
1, 33240, Note_on_c, 9, 69, 0
1, 33240, Note_on_c, 9, 40, 0
1, 33240, Note_on_c, 9, 36, 0
1, 33300, Note_on_c, 12, 36, 0
1, 33360, Note_on_c, 3, 76, 0
1, 33360, Note_on_c, 5, 36, 48
1, 33360, Note_on_c, 9, 69, 64
1, 33360, Note_on_c, 9, 35, 80
1, 33360, Note_on_c, 13, 36, 48
1, 33360, Note_on_c, 3, 69, 64
1, 33360, Note_on_c, 12, 36, 96
1, 33480, Note_on_c, 5, 36, 0
1, 33480, Note_on_c, 9, 35, 0
1, 33480, Note_on_c, 9, 69, 0
1, 33540, Note_on_c, 12, 36, 0
1, 33540, Note_on_c, 6, 69, 64
1, 33600, Note_on_c, 14, 60, 0
1, 33600, Note_on_c, 14, 64, 0
1, 33600, Pitch_bend_c, 15, 813
1, 33600, Pitch_bend_c, 2, 768
1, 33600, Note_on_c, 13, 36, 0
1, 33600, Note_on_c, 3, 69, 0
1, 33600, Note_on_c, 0, 64, 0
1, 33600, Note_on_c, 6, 69, 0
1, 33600, Note_on_c, 14, 57, 32
1, 33600, Note_on_c, 14, 62, 20
1, 33600, Note_on_c, 5, 36, 48
1, 33600, Note_on_c, 9, 69, 64
1, 33600, Note_on_c, 9, 35, 80
1, 33600, Note_on_c, 13, 31, 48
1, 33600, Note_on_c, 3, 67, 64
1, 33600, Note_on_c, 0, 55, 64
1, 33600, Note_on_c, 6, 76, 64
1, 33600, Note_on_c, 12, 31, 96
1, 33720, Note_on_c, 5, 36, 0
1, 33720, Note_on_c, 9, 35, 0
1, 33720, Note_on_c, 9, 69, 0
1, 33720, Note_on_c, 6, 76, 0
1, 33840, Note_on_c, 13, 31, 0
1, 33840, Note_on_c, 5, 36, 48
1, 33840, Note_on_c, 9, 69, 64
1, 33840, Note_on_c, 9, 53, 32
1, 33840, Note_on_c, 9, 35, 80
1, 33840, Note_on_c, 6, 72, 64
1, 33960, Note_on_c, 5, 36, 0
1, 33960, Note_on_c, 9, 35, 0
1, 33960, Note_on_c, 9, 53, 0
1, 33960, Note_on_c, 9, 69, 0
1, 33960, Note_on_c, 6, 72, 0
1, 34020, Note_on_c, 12, 31, 0
1, 34080, Note_on_c, 3, 67, 0
1, 34080, Note_on_c, 0, 55, 0
1, 34080, Text_t, "we make our offering to the sun"
1, 34080, Note_on_c, 9, 36, 64
1, 34080, Note_on_c, 9, 40, 64
1, 34080, Note_on_c, 9, 69, 64
1, 34080, Note_on_c, 9, 33, 80
1, 34080, Note_on_c, 13, 31, 48
1, 34080, Note_on_c, 6, 69, 64
1, 34080, Note_on_c, 12, 31, 96
1, 34080, Note_on_c, 3, 72, 64
1, 34080, Note_on_c, 0, 60, 64
1, 34200, Note_on_c, 9, 33, 0
1, 34200, Note_on_c, 9, 69, 0
1, 34200, Note_on_c, 9, 40, 0
1, 34200, Note_on_c, 9, 36, 0
1, 34320, Note_on_c, 13, 31, 0
1, 34320, Note_on_c, 6, 69, 0
1, 34320, Note_on_c, 3, 72, 0
1, 34320, Note_on_c, 0, 60, 0
1, 34320, Note_on_c, 5, 36, 48
1, 34320, Note_on_c, 9, 69, 64
1, 34320, Note_on_c, 9, 70, 32
1, 34320, Note_on_c, 9, 33, 80
1, 34320, Note_on_c, 6, 67, 64
1, 34320, Note_on_c, 3, 74, 64
1, 34320, Note_on_c, 0, 62, 64
1, 34380, Note_on_c, 9, 70, 0
1, 34380, Note_on_c, 9, 70, 44
1, 34440, Note_on_c, 5, 36, 0
1, 34440, Note_on_c, 9, 33, 0
1, 34440, Note_on_c, 9, 70, 0
1, 34440, Note_on_c, 9, 69, 0
1, 34440, Note_on_c, 6, 67, 0
1, 34440, Note_on_c, 9, 70, 60
1, 34500, Note_on_c, 9, 70, 0
1, 34500, Note_on_c, 12, 31, 0
1, 34500, Note_on_c, 9, 70, 68
1, 34560, Note_on_c, 14, 57, 0
1, 34560, Note_on_c, 14, 55, 0
1, 34560, Note_on_c, 14, 62, 0
1, 34560, Note_on_c, 15, 64, 0
1, 34560, Note_on_c, 2, 52, 0
1, 34560, Note_on_c, 9, 70, 0
1, 34560, Pitch_bend_c, 15, 8192
1, 34560, Pitch_bend_c, 2, 8192
1, 34560, Note_on_c, 3, 74, 0
1, 34560, Note_on_c, 0, 62, 0
1, 34560, Note_on_c, 14, 55, 20
1, 34560, Note_on_c, 14, 64, 32
1, 34560, Note_on_c, 14, 60, 20
1, 34560, Note_on_c, 15, 64, 40
1, 34560, Note_on_c, 5, 36, 48
1, 34560, Note_on_c, 9, 69, 64
1, 34560, Note_on_c, 2, 52, 52
1, 34560, Note_on_c, 9, 35, 80
1, 34560, Note_on_c, 13, 36, 48
1, 34560, Note_on_c, 0, 64, 64
1, 34560, Note_on_c, 3, 76, 64
1, 34560, Note_on_c, 12, 36, 96
1, 34680, Note_on_c, 5, 36, 0
1, 34680, Note_on_c, 9, 69, 0
1, 34680, Note_on_c, 9, 35, 0
1, 34800, Note_on_c, 3, 76, 0
1, 34800, Note_on_c, 0, 64, 0
1, 34800, Note_on_c, 13, 36, 0
1, 34800, Note_on_c, 5, 36, 48
1, 34800, Note_on_c, 9, 69, 64
1, 34800, Note_on_c, 9, 53, 32
1, 34800, Note_on_c, 9, 34, 80
1, 34800, Note_on_c, 0, 65, 64
1, 34800, Note_on_c, 3, 77, 64
1, 34920, Note_on_c, 5, 36, 0
1, 34920, Note_on_c, 9, 69, 0
1, 34920, Note_on_c, 9, 53, 0
1, 34920, Note_on_c, 9, 34, 0
1, 35040, Note_on_c, 3, 77, 0
1, 35040, Note_on_c, 0, 65, 0
1, 35040, Note_on_c, 9, 36, 64
1, 35040, Note_on_c, 9, 40, 64
1, 35040, Note_on_c, 9, 69, 64
1, 35040, Note_on_c, 9, 33, 80
1, 35040, Note_on_c, 0, 64, 64
1, 35040, Note_on_c, 3, 76, 64
1, 35160, Note_on_c, 9, 36, 0
1, 35160, Note_on_c, 9, 40, 0
1, 35160, Note_on_c, 9, 69, 0
1, 35160, Note_on_c, 9, 33, 0
1, 35220, Note_on_c, 12, 36, 0
1, 35280, Note_on_c, 3, 76, 0
1, 35280, Note_on_c, 0, 64, 0
1, 35280, Note_on_c, 5, 36, 48
1, 35280, Note_on_c, 9, 69, 64
1, 35280, Note_on_c, 9, 35, 80
1, 35280, Note_on_c, 13, 36, 48
1, 35280, Note_on_c, 0, 62, 64
1, 35280, Note_on_c, 3, 74, 64
1, 35280, Note_on_c, 12, 36, 96
1, 35400, Note_on_c, 5, 36, 0
1, 35400, Note_on_c, 9, 69, 0
1, 35400, Note_on_c, 9, 35, 0
1, 35460, Note_on_c, 12, 36, 0
1, 35520, Note_on_c, 3, 74, 0
1, 35520, Note_on_c, 0, 62, 0
1, 35520, Note_on_c, 13, 36, 0
1, 35520, Note_on_c, 5, 36, 48
1, 35520, Note_on_c, 9, 69, 64
1, 35520, Note_on_c, 9, 35, 80
1, 35520, Note_on_c, 13, 36, 48
1, 35520, Note_on_c, 3, 72, 64
1, 35520, Note_on_c, 0, 60, 64
1, 35520, Note_on_c, 12, 36, 96
1, 35640, Note_on_c, 5, 36, 0
1, 35640, Note_on_c, 9, 69, 0
1, 35640, Note_on_c, 9, 35, 0
1, 35760, Note_on_c, 13, 36, 0
1, 35760, Note_on_c, 5, 36, 48
1, 35760, Note_on_c, 9, 69, 64
1, 35760, Note_on_c, 9, 53, 32
1, 35760, Note_on_c, 9, 34, 80
1, 35880, Note_on_c, 5, 36, 0
1, 35880, Note_on_c, 9, 69, 0
1, 35880, Note_on_c, 9, 53, 0
1, 35880, Note_on_c, 9, 34, 0
1, 35940, Note_on_c, 3, 72, 0
1, 36000, Note_on_c, 0, 60, 0
1, 36000, Note_on_c, 9, 36, 64
1, 36000, Note_on_c, 9, 40, 64
1, 36000, Note_on_c, 9, 69, 64
1, 36000, Note_on_c, 9, 33, 80
1, 36000, Note_on_c, 0, 60, 64
1, 36000, Note_on_c, 3, 72, 64
1, 36120, Note_on_c, 9, 36, 0
1, 36120, Note_on_c, 9, 40, 0
1, 36120, Note_on_c, 9, 69, 0
1, 36120, Note_on_c, 9, 33, 0
1, 36240, Note_on_c, 3, 72, 0
1, 36240, Note_on_c, 0, 60, 0
1, 36240, Note_on_c, 5, 36, 48
1, 36240, Note_on_c, 9, 69, 64
1, 36240, Note_on_c, 9, 35, 80
1, 36240, Note_on_c, 0, 57, 64
1, 36240, Note_on_c, 3, 69, 64
1, 36360, Note_on_c, 5, 36, 0
1, 36360, Note_on_c, 9, 69, 0
1, 36360, Note_on_c, 9, 35, 0
1, 36360, Note_on_c, 9, 69, 52
1, 36420, Note_on_c, 12, 36, 0
1, 36480, Note_on_c, 3, 69, 0
1, 36480, Note_on_c, 0, 57, 0
1, 36480, Note_on_c, 9, 69, 0
1, 36480, Note_on_c, 5, 36, 48
1, 36480, Note_on_c, 9, 69, 80
1, 36480, Note_on_c, 9, 35, 80
1, 36480, Note_on_c, 0, 60, 64
1, 36480, Note_on_c, 13, 36, 48
1, 36480, Note_on_c, 3, 72, 64
1, 36480, Note_on_c, 12, 36, 96
1, 36600, Note_on_c, 5, 36, 0
1, 36600, Note_on_c, 9, 69, 0
1, 36600, Note_on_c, 9, 35, 0
1, 36660, Note_on_c, 12, 36, 0
1, 36720, Note_on_c, 13, 36, 0
1, 36720, Note_on_c, 0, 60, 0
1, 36720, Note_on_c, 5, 36, 48
1, 36720, Note_on_c, 9, 69, 64
1, 36720, Note_on_c, 9, 53, 32
1, 36720, Note_on_c, 9, 34, 80
1, 36720, Note_on_c, 13, 36, 48
1, 36720, Note_on_c, 12, 36, 96
1, 36840, Note_on_c, 5, 36, 0
1, 36840, Note_on_c, 9, 69, 0
1, 36840, Note_on_c, 9, 53, 0
1, 36840, Note_on_c, 9, 34, 0
1, 36900, Note_on_c, 3, 72, 0
1, 36960, Note_on_c, 13, 36, 0
1, 36960, Note_on_c, 9, 36, 64
1, 36960, Note_on_c, 9, 40, 64
1, 36960, Note_on_c, 9, 69, 64
1, 36960, Note_on_c, 9, 33, 80
1, 36960, Note_on_c, 0, 57, 64
1, 36960, Note_on_c, 3, 69, 64
1, 37080, Note_on_c, 9, 36, 0
1, 37080, Note_on_c, 9, 40, 0
1, 37080, Note_on_c, 9, 69, 0
1, 37080, Note_on_c, 9, 33, 0
1, 37140, Note_on_c, 12, 36, 0
1, 37200, Note_on_c, 3, 69, 0
1, 37200, Note_on_c, 0, 57, 0
1, 37200, Note_on_c, 5, 36, 48
1, 37200, Note_on_c, 9, 69, 64
1, 37200, Note_on_c, 9, 35, 80
1, 37200, Note_on_c, 13, 36, 48
1, 37200, Note_on_c, 3, 74, 64
1, 37200, Note_on_c, 0, 62, 64
1, 37200, Note_on_c, 12, 36, 96
1, 37320, Note_on_c, 5, 36, 0
1, 37320, Note_on_c, 9, 69, 0
1, 37320, Note_on_c, 9, 35, 0
1, 37380, Note_on_c, 12, 36, 0
1, 37440, Note_on_c, 13, 36, 0
1, 37440, Note_on_c, 14, 64, 0
1, 37440, Note_on_c, 14, 60, 0
1, 37440, Note_on_c, 14, 57, 32
1, 37440, Note_on_c, 14, 62, 20
1, 37440, Note_on_c, 5, 36, 48
1, 37440, Note_on_c, 9, 69, 64
1, 37440, Note_on_c, 9, 35, 80
1, 37440, Note_on_c, 13, 38, 48
1, 37440, Note_on_c, 12, 38, 96
1, 37560, Note_on_c, 5, 36, 0
1, 37560, Note_on_c, 9, 69, 0
1, 37560, Note_on_c, 9, 35, 0
1, 37680, Note_on_c, 13, 38, 0
1, 37680, Note_on_c, 3, 74, 0
1, 37680, Note_on_c, 5, 36, 48
1, 37680, Note_on_c, 9, 69, 64
1, 37680, Note_on_c, 9, 53, 32
1, 37680, Note_on_c, 9, 35, 80
1, 37680, Note_on_c, 3, 76, 64
1, 37800, Note_on_c, 5, 36, 0
1, 37800, Note_on_c, 9, 69, 0
1, 37800, Note_on_c, 9, 53, 0
1, 37800, Note_on_c, 9, 35, 0
1, 37860, Note_on_c, 12, 38, 0
1, 37920, Note_on_c, 0, 62, 0
1, 37920, Note_on_c, 3, 76, 0
1, 37920, Text_t, "or else everything we have will "
1, 37920, Note_on_c, 9, 36, 64
1, 37920, Note_on_c, 9, 40, 64
1, 37920, Note_on_c, 9, 69, 64
1, 37920, Note_on_c, 9, 33, 80
1, 37920, Note_on_c, 0, 60, 64
1, 37920, Note_on_c, 3, 72, 64
1, 37920, Note_on_c, 13, 38, 48
1, 37920, Note_on_c, 12, 38, 96
1, 38040, Note_on_c, 9, 36, 0
1, 38040, Note_on_c, 9, 40, 0
1, 38040, Note_on_c, 9, 69, 0
1, 38040, Note_on_c, 9, 33, 0
1, 38160, Note_on_c, 13, 38, 0
1, 38160, Note_on_c, 3, 72, 0
1, 38160, Note_on_c, 0, 60, 0
1, 38160, Note_on_c, 5, 36, 48
1, 38160, Note_on_c, 9, 69, 64
1, 38160, Note_on_c, 9, 70, 32
1, 38160, Note_on_c, 9, 33, 80
1, 38160, Note_on_c, 0, 62, 64
1, 38160, Note_on_c, 3, 74, 64
1, 38220, Note_on_c, 9, 70, 0
1, 38220, Note_on_c, 9, 70, 44
1, 38280, Note_on_c, 5, 36, 0
1, 38280, Note_on_c, 9, 69, 0
1, 38280, Note_on_c, 9, 70, 0
1, 38280, Note_on_c, 9, 33, 0
1, 38280, Note_on_c, 9, 70, 60
1, 38340, Note_on_c, 12, 38, 0
1, 38340, Note_on_c, 9, 70, 0
1, 38340, Note_on_c, 9, 70, 68
1, 38400, Note_on_c, 3, 74, 0
1, 38400, Note_on_c, 0, 62, 0
1, 38400, Note_on_c, 14, 55, 0
1, 38400, Note_on_c, 14, 62, 0
1, 38400, Note_on_c, 14, 57, 0
1, 38400, Note_on_c, 15, 64, 0
1, 38400, Note_on_c, 9, 70, 0
1, 38400, Note_on_c, 14, 55, 20
1, 38400, Note_on_c, 14, 64, 32
1, 38400, Note_on_c, 14, 60, 20
1, 38400, Note_on_c, 15, 64, 40
1, 38400, Note_on_c, 5, 36, 48
1, 38400, Note_on_c, 9, 69, 64
1, 38400, Note_on_c, 9, 35, 80
1, 38400, Note_on_c, 13, 36, 48
1, 38400, Note_on_c, 0, 64, 64
1, 38400, Note_on_c, 3, 76, 64
1, 38400, Note_on_c, 12, 36, 96
1, 38520, Note_on_c, 5, 36, 0
1, 38520, Note_on_c, 9, 35, 0
1, 38520, Note_on_c, 9, 69, 0
1, 38640, Note_on_c, 3, 76, 0
1, 38640, Note_on_c, 0, 64, 0
1, 38640, Note_on_c, 13, 36, 0
1, 38640, Note_on_c, 5, 36, 48
1, 38640, Note_on_c, 9, 69, 64
1, 38640, Note_on_c, 9, 53, 32
1, 38640, Note_on_c, 9, 34, 80
1, 38640, Note_on_c, 0, 65, 64
1, 38640, Note_on_c, 3, 77, 64
1, 38760, Note_on_c, 5, 36, 0
1, 38760, Note_on_c, 9, 34, 0
1, 38760, Note_on_c, 9, 53, 0
1, 38760, Note_on_c, 9, 69, 0
1, 38880, Note_on_c, 3, 77, 0
1, 38880, Note_on_c, 0, 65, 0
1, 38880, Note_on_c, 9, 36, 64
1, 38880, Note_on_c, 9, 40, 64
1, 38880, Note_on_c, 9, 69, 64
1, 38880, Note_on_c, 9, 33, 80
1, 38880, Note_on_c, 3, 76, 64
1, 38880, Note_on_c, 0, 64, 64
1, 39000, Note_on_c, 9, 33, 0
1, 39000, Note_on_c, 9, 69, 0
1, 39000, Note_on_c, 9, 40, 0
1, 39000, Note_on_c, 9, 36, 0
1, 39060, Note_on_c, 12, 36, 0
1, 39120, Note_on_c, 0, 64, 0
1, 39120, Note_on_c, 3, 76, 0
1, 39120, Note_on_c, 5, 36, 48
1, 39120, Note_on_c, 9, 69, 64
1, 39120, Note_on_c, 9, 35, 80
1, 39120, Note_on_c, 13, 36, 48
1, 39120, Note_on_c, 3, 74, 64
1, 39120, Note_on_c, 0, 60, 64
1, 39120, Note_on_c, 12, 36, 96
1, 39240, Note_on_c, 5, 36, 0
1, 39240, Note_on_c, 9, 35, 0
1, 39240, Note_on_c, 9, 69, 0
1, 39300, Note_on_c, 12, 36, 0
1, 39360, Note_on_c, 3, 74, 0
1, 39360, Note_on_c, 13, 36, 0
1, 39360, Note_on_c, 5, 36, 48
1, 39360, Note_on_c, 9, 69, 64
1, 39360, Note_on_c, 9, 35, 80
1, 39360, Note_on_c, 13, 36, 48
1, 39360, Note_on_c, 3, 72, 64
1, 39360, Note_on_c, 12, 36, 96
1, 39480, Note_on_c, 5, 36, 0
1, 39480, Note_on_c, 9, 35, 0
1, 39480, Note_on_c, 9, 69, 0
1, 39600, Note_on_c, 13, 36, 0
1, 39600, Note_on_c, 5, 36, 48
1, 39600, Note_on_c, 9, 69, 64
1, 39600, Note_on_c, 9, 53, 32
1, 39600, Note_on_c, 9, 34, 80
1, 39720, Note_on_c, 5, 36, 0
1, 39720, Note_on_c, 9, 34, 0
1, 39720, Note_on_c, 9, 53, 0
1, 39720, Note_on_c, 9, 69, 0
1, 39780, Note_on_c, 3, 72, 0
1, 39840, Note_on_c, 9, 36, 64
1, 39840, Note_on_c, 9, 40, 64
1, 39840, Note_on_c, 9, 69, 64
1, 39840, Note_on_c, 9, 33, 80
1, 39840, Note_on_c, 3, 72, 64
1, 39960, Note_on_c, 9, 33, 0
1, 39960, Note_on_c, 9, 69, 0
1, 39960, Note_on_c, 9, 40, 0
1, 39960, Note_on_c, 9, 36, 0
1, 40080, Note_on_c, 0, 60, 0
1, 40080, Note_on_c, 3, 72, 0
1, 40080, Note_on_c, 5, 36, 48
1, 40080, Note_on_c, 9, 69, 64
1, 40080, Note_on_c, 9, 35, 80
1, 40080, Note_on_c, 3, 69, 64
1, 40080, Note_on_c, 0, 57, 64
1, 40200, Note_on_c, 5, 36, 0
1, 40200, Note_on_c, 9, 35, 0
1, 40200, Note_on_c, 9, 69, 0
1, 40200, Note_on_c, 9, 69, 52
1, 40260, Note_on_c, 12, 36, 0
1, 40320, Note_on_c, 9, 69, 0
1, 40320, Note_on_c, 5, 36, 48
1, 40320, Note_on_c, 9, 69, 80
1, 40320, Note_on_c, 9, 35, 80
1, 40320, Note_on_c, 13, 36, 48
1, 40320, Note_on_c, 12, 36, 96
1, 40440, Note_on_c, 5, 36, 0
1, 40440, Note_on_c, 9, 35, 0
1, 40440, Note_on_c, 9, 69, 0
1, 40500, Note_on_c, 12, 36, 0
1, 40500, Note_on_c, 3, 69, 0
1, 40560, Note_on_c, 13, 36, 0
1, 40560, Note_on_c, 5, 36, 48
1, 40560, Note_on_c, 9, 69, 64
1, 40560, Note_on_c, 9, 53, 32
1, 40560, Note_on_c, 9, 34, 80
1, 40560, Note_on_c, 13, 36, 48
1, 40560, Note_on_c, 3, 76, 64
1, 40560, Note_on_c, 12, 36, 96
1, 40680, Note_on_c, 5, 36, 0
1, 40680, Note_on_c, 9, 34, 0
1, 40680, Note_on_c, 9, 53, 0
1, 40680, Note_on_c, 9, 69, 0
1, 40800, Note_on_c, 13, 36, 0
1, 40800, Note_on_c, 9, 36, 64
1, 40800, Note_on_c, 9, 40, 64
1, 40800, Note_on_c, 9, 69, 64
1, 40800, Note_on_c, 9, 33, 80
1, 40920, Note_on_c, 9, 33, 0
1, 40920, Note_on_c, 9, 69, 0
1, 40920, Note_on_c, 9, 40, 0
1, 40920, Note_on_c, 9, 36, 0
1, 40980, Note_on_c, 12, 36, 0
1, 41040, Note_on_c, 3, 76, 0
1, 41040, Note_on_c, 5, 36, 48
1, 41040, Note_on_c, 9, 69, 64
1, 41040, Note_on_c, 9, 35, 80
1, 41040, Note_on_c, 13, 36, 48
1, 41040, Note_on_c, 3, 69, 64
1, 41040, Note_on_c, 12, 36, 96
1, 41160, Note_on_c, 5, 36, 0
1, 41160, Note_on_c, 9, 35, 0
1, 41160, Note_on_c, 9, 69, 0
1, 41220, Note_on_c, 12, 36, 0
1, 41280, Note_on_c, 0, 57, 0
1, 41280, Note_on_c, 3, 69, 0
1, 41280, Note_on_c, 13, 36, 0
1, 41280, Note_on_c, 14, 60, 0
1, 41280, Note_on_c, 14, 64, 0
1, 41280, Note_on_c, 14, 57, 32
1, 41280, Note_on_c, 14, 62, 20
1, 41280, Note_on_c, 5, 36, 48
1, 41280, Note_on_c, 9, 69, 64
1, 41280, Note_on_c, 9, 35, 80
1, 41280, Note_on_c, 13, 31, 48
1, 41280, Note_on_c, 3, 67, 64
1, 41280, Note_on_c, 6, 67, 64
1, 41280, Note_on_c, 0, 55, 64
1, 41280, Note_on_c, 12, 31, 96
1, 41400, Note_on_c, 6, 67, 0
1, 41400, Note_on_c, 5, 36, 0
1, 41400, Note_on_c, 9, 35, 0
1, 41400, Note_on_c, 9, 69, 0
1, 41400, Note_on_c, 6, 69, 64
1, 41520, Note_on_c, 6, 69, 0
1, 41520, Note_on_c, 3, 67, 0
1, 41520, Note_on_c, 13, 31, 0
1, 41520, Note_on_c, 5, 36, 48
1, 41520, Note_on_c, 9, 69, 64
1, 41520, Note_on_c, 9, 53, 32
1, 41520, Note_on_c, 9, 35, 80
1, 41520, Note_on_c, 3, 67, 64
1, 41520, Note_on_c, 6, 72, 64
1, 41640, Note_on_c, 6, 72, 0
1, 41640, Note_on_c, 5, 36, 0
1, 41640, Note_on_c, 9, 35, 0
1, 41640, Note_on_c, 9, 53, 0
1, 41640, Note_on_c, 9, 69, 0
1, 41700, Note_on_c, 12, 31, 0
1, 41760, Note_on_c, 0, 55, 0
1, 41760, Note_on_c, 3, 67, 0
1, 41760, Note_on_c, 9, 36, 64
1, 41760, Note_on_c, 9, 40, 64
1, 41760, Note_on_c, 9, 69, 64
1, 41760, Note_on_c, 9, 33, 80
1, 41760, Note_on_c, 13, 31, 80
1, 41760, Note_on_c, 0, 60, 64
1, 41760, Note_on_c, 3, 72, 64
1, 41760, Note_on_c, 6, 69, 64
1, 41760, Note_on_c, 12, 31, 96
1, 41880, Note_on_c, 9, 33, 0
1, 41880, Note_on_c, 9, 69, 0
1, 41880, Note_on_c, 9, 40, 0
1, 41880, Note_on_c, 9, 36, 0
1, 42000, Note_on_c, 6, 69, 0
1, 42000, Note_on_c, 3, 72, 0
1, 42000, Note_on_c, 0, 60, 0
1, 42000, Note_on_c, 13, 31, 0
1, 42000, Note_on_c, 5, 36, 48
1, 42000, Note_on_c, 9, 69, 64
1, 42000, Note_on_c, 9, 70, 32
1, 42000, Note_on_c, 9, 33, 80
1, 42000, Note_on_c, 0, 62, 64
1, 42000, Note_on_c, 3, 74, 64
1, 42000, Note_on_c, 6, 67, 64
1, 42060, Note_on_c, 9, 70, 0
1, 42060, Note_on_c, 9, 70, 44
1, 42120, Note_on_c, 5, 36, 0
1, 42120, Note_on_c, 9, 33, 0
1, 42120, Note_on_c, 9, 70, 0
1, 42120, Note_on_c, 9, 69, 0
1, 42120, Note_on_c, 9, 70, 60
1, 42180, Note_on_c, 12, 31, 0
1, 42180, Note_on_c, 9, 70, 0
1, 42180, Note_on_c, 9, 70, 68
1, 42240, Note_on_c, 6, 67, 0
1, 42240, Note_on_c, 3, 74, 0
1, 42240, Note_on_c, 0, 62, 0
1, 42240, Note_on_c, 14, 57, 0
1, 42240, Note_on_c, 14, 55, 0
1, 42240, Note_on_c, 14, 62, 0
1, 42240, Note_on_c, 15, 64, 0
1, 42240, Note_on_c, 2, 52, 0
1, 42240, Note_on_c, 9, 70, 0
1, 42240, Note_on_c, 3, 76, 64
1, 42240, Note_on_c, 0, 64, 64
1, 42240, Note_on_c, 12, 45, 110
1, 42240, Note_on_c, 13, 45, 64
1, 42240, Note_on_c, 9, 69, 64
1, 42240, Note_on_c, 9, 35, 80
1, 42240, Note_on_c, 14, 69, 25
1, 42240, Note_on_c, 14, 62, 18
1, 42360, Note_on_c, 9, 69, 0
1, 42360, Note_on_c, 9, 35, 0
1, 42480, Note_on_c, 3, 76, 0
1, 42480, Note_on_c, 0, 64, 0
1, 42480, Note_on_c, 12, 45, 0
1, 42480, Note_on_c, 13, 45, 0
1, 42480, Note_on_c, 3, 77, 64
1, 42480, Note_on_c, 0, 65, 64
1, 42480, Note_on_c, 9, 69, 64
1, 42480, Note_on_c, 9, 53, 32
1, 42480, Note_on_c, 9, 34, 80
1, 42600, Note_on_c, 9, 69, 0
1, 42600, Note_on_c, 9, 53, 0
1, 42600, Note_on_c, 9, 34, 0
1, 42720, Note_on_c, 3, 77, 0
1, 42720, Note_on_c, 0, 65, 0
1, 42720, Note_on_c, 3, 76, 64
1, 42720, Note_on_c, 0, 64, 64
1, 42720, Note_on_c, 9, 40, 64
1, 42720, Note_on_c, 9, 69, 64
1, 42720, Note_on_c, 9, 33, 80
1, 42720, Note_on_c, 9, 34, 64
1, 42840, Note_on_c, 9, 40, 0
1, 42840, Note_on_c, 9, 69, 0
1, 42840, Note_on_c, 9, 33, 0
1, 42840, Note_on_c, 9, 34, 0
1, 42960, Note_on_c, 14, 69, 0
1, 42960, Note_on_c, 14, 62, 0
1, 42960, Note_on_c, 12, 43, 110
1, 42960, Note_on_c, 13, 43, 64
1, 42960, Note_on_c, 9, 69, 64
1, 42960, Note_on_c, 9, 35, 80
1, 42960, Note_on_c, 14, 67, 25
1, 42960, Note_on_c, 14, 64, 18
1, 43080, Note_on_c, 9, 69, 0
1, 43080, Note_on_c, 9, 35, 0
1, 43200, Note_on_c, 3, 76, 0
1, 43200, Note_on_c, 0, 64, 0
1, 43200, Note_on_c, 12, 43, 0
1, 43200, Note_on_c, 13, 43, 0
1, 43200, Note_on_c, 9, 69, 64
1, 43200, Note_on_c, 9, 35, 80
1, 43320, Note_on_c, 9, 69, 0
1, 43320, Note_on_c, 9, 35, 0
1, 43440, Note_on_c, 3, 67, 64
1, 43440, Note_on_c, 0, 55, 64
1, 43440, Note_on_c, 9, 69, 64
1, 43440, Note_on_c, 9, 53, 32
1, 43440, Note_on_c, 9, 34, 80
1, 43560, Note_on_c, 9, 69, 0
1, 43560, Note_on_c, 9, 53, 0
1, 43560, Note_on_c, 9, 34, 0
1, 43680, Note_on_c, 3, 67, 0
1, 43680, Note_on_c, 0, 55, 0
1, 43680, Note_on_c, 3, 72, 64
1, 43680, Note_on_c, 0, 60, 64
1, 43680, Note_on_c, 9, 36, 64
1, 43680, Note_on_c, 9, 40, 64
1, 43680, Note_on_c, 9, 69, 64
1, 43680, Note_on_c, 9, 33, 80
1, 43800, Note_on_c, 9, 36, 0
1, 43800, Note_on_c, 9, 40, 0
1, 43800, Note_on_c, 9, 69, 0
1, 43800, Note_on_c, 9, 33, 0
1, 43920, Note_on_c, 3, 72, 0
1, 43920, Note_on_c, 0, 60, 0
1, 43920, Note_on_c, 3, 74, 64
1, 43920, Note_on_c, 0, 62, 64
1, 43920, Note_on_c, 9, 69, 64
1, 43920, Note_on_c, 9, 35, 80
1, 44040, Note_on_c, 9, 69, 0
1, 44040, Note_on_c, 9, 35, 0
1, 44040, Note_on_c, 9, 69, 52
1, 44160, Note_on_c, 3, 74, 0
1, 44160, Note_on_c, 0, 62, 0
1, 44160, Note_on_c, 9, 69, 0
1, 44160, Note_on_c, 14, 67, 0
1, 44160, Note_on_c, 14, 64, 0
1, 44160, Note_on_c, 3, 76, 64
1, 44160, Note_on_c, 0, 64, 64
1, 44160, Note_on_c, 12, 36, 110
1, 44160, Note_on_c, 13, 36, 64
1, 44160, Note_on_c, 9, 69, 80
1, 44160, Note_on_c, 9, 35, 80
1, 44160, Note_on_c, 14, 60, 25
1, 44160, Note_on_c, 14, 64, 25
1, 44280, Note_on_c, 9, 69, 0
1, 44280, Note_on_c, 9, 35, 0
1, 44400, Note_on_c, 12, 36, 0
1, 44400, Note_on_c, 13, 36, 0
1, 44400, Note_on_c, 9, 69, 64
1, 44400, Note_on_c, 9, 53, 32
1, 44400, Note_on_c, 9, 34, 80
1, 44520, Note_on_c, 9, 69, 0
1, 44520, Note_on_c, 9, 53, 0
1, 44520, Note_on_c, 9, 34, 0
1, 44640, Note_on_c, 3, 76, 0
1, 44640, Note_on_c, 0, 64, 0
1, 44640, Note_on_c, 3, 77, 64
1, 44640, Note_on_c, 0, 65, 64
1, 44640, Note_on_c, 9, 40, 64
1, 44640, Note_on_c, 9, 69, 64
1, 44640, Note_on_c, 9, 33, 80
1, 44640, Note_on_c, 9, 34, 64
1, 44760, Note_on_c, 9, 40, 0
1, 44760, Note_on_c, 9, 69, 0
1, 44760, Note_on_c, 9, 33, 0
1, 44760, Note_on_c, 9, 34, 0
1, 44880, Note_on_c, 3, 77, 0
1, 44880, Note_on_c, 0, 65, 0
1, 44880, Note_on_c, 14, 60, 0
1, 44880, Note_on_c, 14, 64, 0
1, 44880, Note_on_c, 3, 79, 64
1, 44880, Note_on_c, 0, 67, 64
1, 44880, Note_on_c, 12, 38, 110
1, 44880, Note_on_c, 13, 38, 64
1, 44880, Note_on_c, 9, 69, 64
1, 44880, Note_on_c, 9, 35, 80
1, 44880, Note_on_c, 14, 62, 25
1, 44880, Note_on_c, 14, 57, 25
1, 45000, Note_on_c, 9, 69, 0
1, 45000, Note_on_c, 9, 35, 0
1, 45120, Note_on_c, 3, 79, 0
1, 45120, Note_on_c, 0, 67, 0
1, 45120, Note_on_c, 12, 38, 0
1, 45120, Note_on_c, 13, 38, 0
1, 45120, Note_on_c, 3, 76, 64
1, 45120, Note_on_c, 0, 64, 64
1, 45120, Note_on_c, 9, 69, 64
1, 45120, Note_on_c, 9, 35, 80
1, 45240, Note_on_c, 9, 69, 0
1, 45240, Note_on_c, 9, 35, 0
1, 45360, Note_on_c, 3, 76, 0
1, 45360, Note_on_c, 0, 64, 0
1, 45360, Note_on_c, 9, 69, 64
1, 45360, Note_on_c, 9, 53, 32
1, 45360, Note_on_c, 9, 35, 80
1, 45480, Note_on_c, 9, 69, 0
1, 45480, Note_on_c, 9, 53, 0
1, 45480, Note_on_c, 9, 35, 0
1, 45600, Note_on_c, 3, 74, 64
1, 45600, Note_on_c, 0, 62, 64
1, 45600, Note_on_c, 9, 36, 64
1, 45600, Note_on_c, 9, 40, 64
1, 45600, Note_on_c, 9, 69, 64
1, 45600, Note_on_c, 9, 33, 80
1, 45720, Note_on_c, 9, 36, 0
1, 45720, Note_on_c, 9, 40, 0
1, 45720, Note_on_c, 9, 69, 0
1, 45720, Note_on_c, 9, 33, 0
1, 45840, Note_on_c, 3, 74, 0
1, 45840, Note_on_c, 0, 62, 0
1, 45840, Note_on_c, 9, 69, 64
1, 45840, Note_on_c, 9, 33, 80
1, 45960, Note_on_c, 9, 69, 0
1, 45960, Note_on_c, 9, 33, 0
1, 46080, Note_on_c, 14, 62, 0
1, 46080, Note_on_c, 14, 57, 0
1, 46080, Control_c, 14, 11, 50
1, 46080, Note_on_c, 3, 72, 64
1, 46080, Note_on_c, 0, 60, 64
1, 46080, Note_on_c, 12, 36, 110
1, 46080, Note_on_c, 13, 36, 80
1, 46080, Note_on_c, 9, 69, 64
1, 46080, Note_on_c, 9, 35, 80
1, 46080, Note_on_c, 14, 64, 64
1, 46080, Note_on_c, 14, 57, 32
1, 46080, Note_on_c, 14, 60, 48
1, 46080, Note_on_c, 6, 64, 15
1, 46112, Control_c, 14, 11, 51
1, 46144, Control_c, 14, 11, 52
1, 46175, Control_c, 14, 11, 53
1, 46200, Note_on_c, 9, 35, 0
1, 46200, Note_on_c, 9, 69, 0
1, 46200, Note_on_c, 6, 64, 0
1, 46200, Note_on_c, 6, 69, 15
1, 46207, Control_c, 14, 11, 54
1, 46238, Control_c, 14, 11, 55
1, 46270, Control_c, 14, 11, 56
1, 46302, Control_c, 14, 11, 57
1, 46320, Note_on_c, 3, 72, 0
1, 46320, Note_on_c, 0, 60, 0
1, 46320, Note_on_c, 6, 69, 0
1, 46320, Note_on_c, 3, 69, 64
1, 46320, Note_on_c, 0, 57, 64
1, 46320, Note_on_c, 9, 69, 64
1, 46320, Note_on_c, 9, 53, 32
1, 46320, Note_on_c, 9, 34, 80
1, 46320, Note_on_c, 6, 72, 16
1, 46333, Control_c, 14, 11, 58
1, 46365, Control_c, 14, 11, 59
1, 46396, Control_c, 14, 11, 60
1, 46428, Control_c, 14, 11, 61
1, 46440, Note_on_c, 9, 34, 0
1, 46440, Note_on_c, 9, 53, 0
1, 46440, Note_on_c, 9, 69, 0
1, 46440, Note_on_c, 6, 72, 0
1, 46440, Note_on_c, 6, 64, 16
1, 46459, Control_c, 14, 11, 62
1, 46491, Control_c, 14, 11, 63
1, 46523, Control_c, 14, 11, 64
1, 46554, Control_c, 14, 11, 65
1, 46560, Note_on_c, 3, 69, 0
1, 46560, Note_on_c, 0, 57, 0
1, 46560, Note_on_c, 6, 64, 0
1, 46560, Note_on_c, 9, 40, 64
1, 46560, Note_on_c, 9, 69, 64
1, 46560, Note_on_c, 9, 33, 80
1, 46560, Note_on_c, 9, 34, 64
1, 46560, Note_on_c, 6, 76, 17
1, 46586, Control_c, 14, 11, 66
1, 46617, Control_c, 14, 11, 67
1, 46649, Control_c, 14, 11, 68
1, 46680, Note_on_c, 9, 34, 0
1, 46680, Note_on_c, 9, 33, 0
1, 46680, Note_on_c, 9, 69, 0
1, 46680, Note_on_c, 9, 40, 0
1, 46680, Control_c, 14, 11, 69
1, 46680, Note_on_c, 6, 76, 0
1, 46680, Note_on_c, 6, 64, 17
1, 46712, Control_c, 14, 11, 70
1, 46744, Control_c, 14, 11, 71
1, 46775, Control_c, 14, 11, 72
1, 46800, Note_on_c, 12, 36, 0
1, 46800, Note_on_c, 6, 64, 0
1, 46800, Note_on_c, 12, 36, 110
1, 46800, Note_on_c, 9, 69, 64
1, 46800, Note_on_c, 9, 35, 80
1, 46800, Note_on_c, 6, 69, 18
1, 46807, Control_c, 14, 11, 73
1, 46838, Control_c, 14, 11, 74
1, 46870, Control_c, 14, 11, 75
1, 46902, Control_c, 14, 11, 76
1, 46920, Note_on_c, 9, 35, 0
1, 46920, Note_on_c, 9, 69, 0
1, 46920, Note_on_c, 6, 69, 0
1, 46920, Note_on_c, 6, 64, 19
1, 46933, Control_c, 14, 11, 77
1, 46965, Control_c, 14, 11, 78
1, 46996, Control_c, 14, 11, 79
1, 47028, Control_c, 14, 11, 80
1, 47040, Note_on_c, 6, 64, 0
1, 47040, Note_on_c, 9, 69, 64
1, 47040, Note_on_c, 9, 35, 80
1, 47040, Note_on_c, 6, 64, 19
1, 47059, Control_c, 14, 11, 81
1, 47091, Control_c, 14, 11, 82
1, 47123, Control_c, 14, 11, 83
1, 47154, Control_c, 14, 11, 84
1, 47160, Note_on_c, 9, 35, 0
1, 47160, Note_on_c, 9, 69, 0
1, 47160, Note_on_c, 6, 64, 0
1, 47160, Note_on_c, 6, 69, 20
1, 47186, Control_c, 14, 11, 85
1, 47217, Control_c, 14, 11, 86
1, 47249, Control_c, 14, 11, 87
1, 47280, Control_c, 14, 11, 88
1, 47280, Note_on_c, 6, 69, 0
1, 47280, Note_on_c, 9, 69, 64
1, 47280, Note_on_c, 9, 53, 32
1, 47280, Note_on_c, 9, 34, 80
1, 47280, Note_on_c, 6, 72, 20
1, 47312, Control_c, 14, 11, 89
1, 47344, Control_c, 14, 11, 90
1, 47375, Control_c, 14, 11, 91
1, 47400, Note_on_c, 9, 34, 0
1, 47400, Note_on_c, 9, 53, 0
1, 47400, Note_on_c, 9, 69, 0
1, 47400, Note_on_c, 6, 72, 0
1, 47400, Note_on_c, 6, 64, 21
1, 47407, Control_c, 14, 11, 92
1, 47438, Control_c, 14, 11, 93
1, 47470, Control_c, 14, 11, 94
1, 47502, Control_c, 14, 11, 95
1, 47520, Note_on_c, 6, 64, 0
1, 47520, Note_on_c, 9, 36, 64
1, 47520, Note_on_c, 9, 40, 64
1, 47520, Note_on_c, 9, 69, 64
1, 47520, Note_on_c, 9, 33, 80
1, 47520, Note_on_c, 6, 76, 21
1, 47533, Control_c, 14, 11, 96
1, 47565, Control_c, 14, 11, 97
1, 47580, Note_on_c, 6, 76, 0
1, 47580, Note_on_c, 6, 77, 21
1, 47596, Control_c, 14, 11, 98
1, 47628, Control_c, 14, 11, 99
1, 47640, Note_on_c, 9, 33, 0
1, 47640, Note_on_c, 9, 69, 0
1, 47640, Note_on_c, 9, 40, 0
1, 47640, Note_on_c, 9, 36, 0
1, 47640, Note_on_c, 6, 77, 0
1, 47640, Note_on_c, 6, 76, 21
1, 47659, Control_c, 14, 11, 100
1, 47691, Control_c, 14, 11, 101
1, 47700, Note_on_c, 6, 76, 0
1, 47723, Control_c, 14, 11, 102
1, 47754, Control_c, 14, 11, 103
1, 47760, Note_on_c, 9, 69, 64
1, 47760, Note_on_c, 9, 35, 80
1, 47760, Note_on_c, 6, 72, 22
1, 47786, Control_c, 14, 11, 104
1, 47817, Control_c, 14, 11, 105
1, 47849, Control_c, 14, 11, 106
1, 47880, Note_on_c, 9, 35, 0
1, 47880, Note_on_c, 9, 69, 0
1, 47880, Control_c, 14, 11, 107
1, 47880, Note_on_c, 6, 72, 0
1, 47880, Note_on_c, 9, 69, 52
1, 47880, Note_on_c, 6, 64, 23
1, 47912, Control_c, 14, 11, 108
1, 47944, Control_c, 14, 11, 109
1, 47975, Control_c, 14, 11, 110
1, 48000, Note_on_c, 12, 36, 0
1, 48000, Note_on_c, 9, 69, 0
1, 48000, Note_on_c, 6, 64, 0
1, 48000, Note_on_c, 12, 36, 110
1, 48000, Note_on_c, 9, 69, 80
1, 48000, Note_on_c, 9, 35, 80
1, 48000, Note_on_c, 6, 64, 36
1, 48007, Control_c, 14, 11, 111
1, 48038, Control_c, 14, 11, 112
1, 48070, Control_c, 14, 11, 113
1, 48102, Control_c, 14, 11, 114
1, 48120, Note_on_c, 9, 35, 0
1, 48120, Note_on_c, 9, 69, 0
1, 48120, Note_on_c, 6, 69, 24
1, 48133, Control_c, 14, 11, 115
1, 48165, Control_c, 14, 11, 116
1, 48196, Control_c, 14, 11, 117
1, 48228, Control_c, 14, 11, 118
1, 48240, Note_on_c, 6, 69, 0
1, 48240, Note_on_c, 9, 69, 64
1, 48240, Note_on_c, 9, 53, 32
1, 48240, Note_on_c, 9, 34, 80
1, 48240, Note_on_c, 6, 72, 24
1, 48259, Control_c, 14, 11, 119
1, 48291, Control_c, 14, 11, 120
1, 48300, Note_on_c, 6, 64, 0
1, 48323, Control_c, 14, 11, 121
1, 48354, Control_c, 14, 11, 122
1, 48360, Note_on_c, 9, 34, 0
1, 48360, Note_on_c, 9, 53, 0
1, 48360, Note_on_c, 9, 69, 0
1, 48360, Note_on_c, 6, 72, 0
1, 48360, Note_on_c, 6, 64, 25
1, 48386, Control_c, 14, 11, 123
1, 48417, Control_c, 14, 11, 124
1, 48449, Control_c, 14, 11, 125
1, 48480, Control_c, 14, 11, 126
1, 48480, Note_on_c, 6, 64, 0
1, 48480, Note_on_c, 9, 40, 64
1, 48480, Note_on_c, 9, 69, 64
1, 48480, Note_on_c, 9, 33, 80
1, 48480, Note_on_c, 9, 34, 64
1, 48480, Note_on_c, 6, 76, 40
1, 48600, Note_on_c, 9, 34, 0
1, 48600, Note_on_c, 9, 33, 0
1, 48600, Note_on_c, 9, 69, 0
1, 48600, Note_on_c, 9, 40, 0
1, 48600, Note_on_c, 6, 64, 36
1, 48720, Note_on_c, 12, 36, 0
1, 48720, Note_on_c, 13, 36, 0
1, 48720, Note_on_c, 6, 64, 0
1, 48720, Note_on_c, 9, 69, 64
1, 48720, Note_on_c, 9, 35, 80
1, 48720, Note_on_c, 12, 38, 110
1, 48720, Note_on_c, 13, 38, 80
1, 48720, Note_on_c, 6, 69, 40
1, 48840, Note_on_c, 9, 35, 0
1, 48840, Note_on_c, 9, 69, 0
1, 48840, Note_on_c, 6, 64, 27
1, 48960, Note_on_c, 12, 38, 0
1, 48960, Note_on_c, 13, 38, 0
1, 48960, Note_on_c, 6, 64, 0
1, 48960, Note_on_c, 9, 69, 64
1, 48960, Note_on_c, 9, 35, 80
1, 48960, Note_on_c, 6, 64, 28
1, 49020, Note_on_c, 6, 69, 0
1, 49020, Note_on_c, 6, 76, 0
1, 49080, Note_on_c, 9, 35, 0
1, 49080, Note_on_c, 9, 69, 0
1, 49080, Note_on_c, 6, 64, 0
1, 49080, Note_on_c, 6, 69, 28
1, 49200, Note_on_c, 14, 60, 0
1, 49200, Note_on_c, 14, 57, 0
1, 49200, Note_on_c, 14, 64, 0
1, 49200, Note_on_c, 6, 69, 0
1, 49200, Note_on_c, 3, 67, 64
1, 49200, Note_on_c, 0, 55, 64
1, 49200, Note_on_c, 9, 69, 64
1, 49200, Note_on_c, 9, 53, 32
1, 49200, Note_on_c, 9, 35, 80
1, 49200, Note_on_c, 6, 72, 29
1, 49320, Note_on_c, 9, 35, 0
1, 49320, Note_on_c, 9, 53, 0
1, 49320, Note_on_c, 9, 69, 0
1, 49320, Note_on_c, 6, 72, 0
1, 49320, Note_on_c, 6, 64, 29
1, 49440, Note_on_c, 0, 55, 0
1, 49440, Note_on_c, 3, 67, 0
1, 49440, Note_on_c, 6, 64, 0
1, 49440, Note_on_c, 3, 72, 64
1, 49440, Note_on_c, 0, 60, 64
1, 49440, Note_on_c, 9, 36, 64
1, 49440, Note_on_c, 9, 40, 64
1, 49440, Note_on_c, 9, 69, 64
1, 49440, Note_on_c, 9, 33, 80
1, 49440, Note_on_c, 6, 76, 30
1, 49560, Note_on_c, 9, 33, 0
1, 49560, Note_on_c, 9, 69, 0
1, 49560, Note_on_c, 9, 40, 0
1, 49560, Note_on_c, 9, 36, 0
1, 49560, Note_on_c, 6, 76, 0
1, 49560, Note_on_c, 6, 64, 30
1, 49680, Note_on_c, 0, 60, 0
1, 49680, Note_on_c, 3, 72, 0
1, 49680, Note_on_c, 6, 64, 0
1, 49680, Note_on_c, 3, 74, 64
1, 49680, Note_on_c, 0, 62, 64
1, 49680, Note_on_c, 9, 69, 64
1, 49680, Note_on_c, 9, 33, 80
1, 49680, Note_on_c, 6, 69, 31
1, 49800, Note_on_c, 9, 33, 0
1, 49800, Note_on_c, 9, 69, 0
1, 49800, Note_on_c, 6, 69, 0
1, 49800, Note_on_c, 6, 64, 32
1, 49920, Note_on_c, 0, 62, 0
1, 49920, Note_on_c, 3, 74, 0
1, 49920, Note_on_c, 6, 64, 0
1, 49920, Note_on_c, 3, 76, 64
1, 49920, Note_on_c, 0, 64, 64
1, 49920, Note_on_c, 9, 69, 64
1, 49920, Note_on_c, 9, 35, 80
1, 49920, Note_on_c, 12, 45, 110
1, 49920, Note_on_c, 13, 45, 64
1, 49920, Note_on_c, 14, 69, 25
1, 49920, Note_on_c, 14, 62, 18
1, 50040, Note_on_c, 9, 35, 0
1, 50040, Note_on_c, 9, 69, 0
1, 50160, Note_on_c, 0, 64, 0
1, 50160, Note_on_c, 3, 76, 0
1, 50160, Note_on_c, 13, 45, 0
1, 50160, Note_on_c, 12, 45, 0
1, 50160, Note_on_c, 3, 77, 64
1, 50160, Note_on_c, 0, 65, 64
1, 50160, Note_on_c, 9, 69, 64
1, 50160, Note_on_c, 9, 53, 32
1, 50160, Note_on_c, 9, 34, 80
1, 50280, Note_on_c, 9, 34, 0
1, 50280, Note_on_c, 9, 53, 0
1, 50280, Note_on_c, 9, 69, 0
1, 50400, Note_on_c, 0, 65, 0
1, 50400, Note_on_c, 3, 77, 0
1, 50400, Note_on_c, 3, 76, 64
1, 50400, Note_on_c, 0, 64, 64
1, 50400, Note_on_c, 9, 40, 64
1, 50400, Note_on_c, 9, 69, 64
1, 50400, Note_on_c, 9, 33, 80
1, 50400, Note_on_c, 9, 34, 64
1, 50520, Note_on_c, 9, 34, 0
1, 50520, Note_on_c, 9, 33, 0
1, 50520, Note_on_c, 9, 69, 0
1, 50520, Note_on_c, 9, 40, 0
1, 50640, Note_on_c, 14, 62, 0
1, 50640, Note_on_c, 14, 69, 0
1, 50640, Note_on_c, 9, 69, 64
1, 50640, Note_on_c, 9, 35, 80
1, 50640, Note_on_c, 12, 43, 110
1, 50640, Note_on_c, 13, 43, 64
1, 50640, Note_on_c, 14, 67, 25
1, 50640, Note_on_c, 14, 64, 18
1, 50760, Note_on_c, 9, 35, 0
1, 50760, Note_on_c, 9, 69, 0
1, 50880, Note_on_c, 0, 64, 0
1, 50880, Note_on_c, 3, 76, 0
1, 50880, Note_on_c, 13, 43, 0
1, 50880, Note_on_c, 12, 43, 0
1, 50880, Note_on_c, 9, 69, 64
1, 50880, Note_on_c, 9, 35, 80
1, 51000, Note_on_c, 9, 35, 0
1, 51000, Note_on_c, 9, 69, 0
1, 51120, Note_on_c, 3, 67, 64
1, 51120, Note_on_c, 0, 55, 64
1, 51120, Note_on_c, 9, 69, 64
1, 51120, Note_on_c, 9, 53, 32
1, 51120, Note_on_c, 9, 34, 80
1, 51240, Note_on_c, 9, 34, 0
1, 51240, Note_on_c, 9, 53, 0
1, 51240, Note_on_c, 9, 69, 0
1, 51360, Note_on_c, 0, 55, 0
1, 51360, Note_on_c, 3, 67, 0
1, 51360, Note_on_c, 3, 72, 64
1, 51360, Note_on_c, 0, 60, 64
1, 51360, Note_on_c, 9, 36, 64
1, 51360, Note_on_c, 9, 40, 64
1, 51360, Note_on_c, 9, 69, 64
1, 51360, Note_on_c, 9, 33, 80
1, 51480, Note_on_c, 9, 33, 0
1, 51480, Note_on_c, 9, 69, 0
1, 51480, Note_on_c, 9, 40, 0
1, 51480, Note_on_c, 9, 36, 0
1, 51600, Note_on_c, 0, 60, 0
1, 51600, Note_on_c, 3, 72, 0
1, 51600, Note_on_c, 3, 74, 64
1, 51600, Note_on_c, 0, 62, 64
1, 51600, Note_on_c, 9, 69, 64
1, 51600, Note_on_c, 9, 35, 80
1, 51720, Note_on_c, 9, 35, 0
1, 51720, Note_on_c, 9, 69, 0
1, 51720, Note_on_c, 9, 69, 52
1, 51840, Note_on_c, 0, 62, 0
1, 51840, Note_on_c, 3, 74, 0
1, 51840, Note_on_c, 9, 69, 0
1, 51840, Note_on_c, 14, 64, 0
1, 51840, Note_on_c, 14, 67, 0
1, 51840, Note_on_c, 3, 76, 64
1, 51840, Note_on_c, 0, 64, 64
1, 51840, Note_on_c, 9, 69, 80
1, 51840, Note_on_c, 9, 35, 80
1, 51840, Note_on_c, 12, 36, 110
1, 51840, Note_on_c, 13, 36, 64
1, 51840, Note_on_c, 14, 60, 25
1, 51840, Note_on_c, 14, 64, 25
1, 51960, Note_on_c, 9, 35, 0
1, 51960, Note_on_c, 9, 69, 0
1, 52080, Note_on_c, 13, 36, 0
1, 52080, Note_on_c, 12, 36, 0
1, 52080, Note_on_c, 9, 69, 64
1, 52080, Note_on_c, 9, 53, 32
1, 52080, Note_on_c, 9, 34, 80
1, 52200, Note_on_c, 9, 34, 0
1, 52200, Note_on_c, 9, 53, 0
1, 52200, Note_on_c, 9, 69, 0
1, 52320, Note_on_c, 0, 64, 0
1, 52320, Note_on_c, 3, 76, 0
1, 52320, Note_on_c, 3, 77, 64
1, 52320, Note_on_c, 0, 65, 64
1, 52320, Note_on_c, 9, 40, 64
1, 52320, Note_on_c, 9, 69, 64
1, 52320, Note_on_c, 9, 33, 80
1, 52320, Note_on_c, 9, 34, 64
1, 52440, Note_on_c, 9, 34, 0
1, 52440, Note_on_c, 9, 33, 0
1, 52440, Note_on_c, 9, 69, 0
1, 52440, Note_on_c, 9, 40, 0
1, 52560, Note_on_c, 0, 65, 0
1, 52560, Note_on_c, 3, 77, 0
1, 52560, Note_on_c, 14, 64, 0
1, 52560, Note_on_c, 14, 60, 0
1, 52560, Note_on_c, 3, 79, 64
1, 52560, Note_on_c, 0, 67, 64
1, 52560, Note_on_c, 9, 69, 64
1, 52560, Note_on_c, 9, 35, 80
1, 52560, Note_on_c, 12, 38, 110
1, 52560, Note_on_c, 13, 38, 64
1, 52560, Note_on_c, 14, 62, 25
1, 52560, Note_on_c, 14, 57, 25
1, 52680, Note_on_c, 9, 35, 0
1, 52680, Note_on_c, 9, 69, 0
1, 52800, Note_on_c, 0, 67, 0
1, 52800, Note_on_c, 3, 79, 0
1, 52800, Note_on_c, 13, 38, 0
1, 52800, Note_on_c, 12, 38, 0
1, 52800, Note_on_c, 3, 76, 64
1, 52800, Note_on_c, 0, 64, 64
1, 52800, Note_on_c, 9, 69, 64
1, 52800, Note_on_c, 9, 35, 80
1, 52920, Note_on_c, 9, 35, 0
1, 52920, Note_on_c, 9, 69, 0
1, 53040, Note_on_c, 0, 64, 0
1, 53040, Note_on_c, 3, 76, 0
1, 53040, Note_on_c, 9, 69, 64
1, 53040, Note_on_c, 9, 53, 32
1, 53040, Note_on_c, 9, 35, 80
1, 53160, Note_on_c, 9, 35, 0
1, 53160, Note_on_c, 9, 53, 0
1, 53160, Note_on_c, 9, 69, 0
1, 53280, Note_on_c, 3, 74, 64
1, 53280, Note_on_c, 0, 62, 64
1, 53280, Note_on_c, 9, 36, 64
1, 53280, Note_on_c, 9, 40, 64
1, 53280, Note_on_c, 9, 69, 64
1, 53280, Note_on_c, 9, 33, 80
1, 53400, Note_on_c, 9, 33, 0
1, 53400, Note_on_c, 9, 69, 0
1, 53400, Note_on_c, 9, 40, 0
1, 53400, Note_on_c, 9, 36, 0
1, 53520, Note_on_c, 0, 62, 0
1, 53520, Note_on_c, 3, 74, 0
1, 53520, Note_on_c, 9, 69, 64
1, 53520, Note_on_c, 9, 33, 80
1, 53640, Note_on_c, 9, 33, 0
1, 53640, Note_on_c, 9, 69, 0
1, 53760, Note_on_c, 14, 57, 0
1, 53760, Note_on_c, 14, 62, 0
1, 53760, Control_c, 14, 11, 50
1, 53760, Note_on_c, 3, 72, 64
1, 53760, Note_on_c, 0, 60, 64
1, 53760, Note_on_c, 9, 69, 64
1, 53760, Note_on_c, 9, 35, 80
1, 53760, Note_on_c, 12, 36, 110
1, 53760, Note_on_c, 13, 36, 80
1, 53760, Note_on_c, 14, 64, 64
1, 53760, Note_on_c, 14, 57, 32
1, 53760, Note_on_c, 14, 60, 48
1, 53760, Note_on_c, 6, 64, 15
1, 53792, Control_c, 14, 11, 51
1, 53824, Control_c, 14, 11, 52
1, 53855, Control_c, 14, 11, 53
1, 53880, Note_on_c, 9, 69, 0
1, 53880, Note_on_c, 9, 35, 0
1, 53880, Note_on_c, 6, 64, 0
1, 53880, Note_on_c, 6, 69, 15
1, 53887, Control_c, 14, 11, 54
1, 53918, Control_c, 14, 11, 55
1, 53950, Control_c, 14, 11, 56
1, 53982, Control_c, 14, 11, 57
1, 54000, Note_on_c, 0, 60, 0
1, 54000, Note_on_c, 3, 72, 0
1, 54000, Note_on_c, 6, 69, 0
1, 54000, Note_on_c, 3, 69, 64
1, 54000, Note_on_c, 0, 57, 64
1, 54000, Note_on_c, 9, 69, 64
1, 54000, Note_on_c, 9, 53, 32
1, 54000, Note_on_c, 9, 34, 80
1, 54000, Note_on_c, 6, 72, 16
1, 54013, Control_c, 14, 11, 58
1, 54045, Control_c, 14, 11, 59
1, 54076, Control_c, 14, 11, 60
1, 54108, Control_c, 14, 11, 61
1, 54120, Note_on_c, 9, 69, 0
1, 54120, Note_on_c, 9, 53, 0
1, 54120, Note_on_c, 9, 34, 0
1, 54120, Note_on_c, 6, 72, 0
1, 54120, Note_on_c, 6, 64, 16
1, 54139, Control_c, 14, 11, 62
1, 54171, Control_c, 14, 11, 63
1, 54203, Control_c, 14, 11, 64
1, 54234, Control_c, 14, 11, 65
1, 54240, Note_on_c, 0, 57, 0
1, 54240, Note_on_c, 3, 69, 0
1, 54240, Note_on_c, 6, 64, 0
1, 54240, Note_on_c, 9, 40, 64
1, 54240, Note_on_c, 9, 69, 64
1, 54240, Note_on_c, 9, 33, 80
1, 54240, Note_on_c, 9, 34, 64
1, 54240, Note_on_c, 6, 76, 17
1, 54266, Control_c, 14, 11, 66
1, 54297, Control_c, 14, 11, 67
1, 54329, Control_c, 14, 11, 68
1, 54360, Note_on_c, 9, 40, 0
1, 54360, Note_on_c, 9, 69, 0
1, 54360, Note_on_c, 9, 33, 0
1, 54360, Note_on_c, 9, 34, 0
1, 54360, Note_on_c, 6, 76, 0
1, 54360, Control_c, 14, 11, 69
1, 54360, Note_on_c, 6, 64, 17
1, 54392, Control_c, 14, 11, 70
1, 54424, Control_c, 14, 11, 71
1, 54455, Control_c, 14, 11, 72
1, 54480, Note_on_c, 12, 36, 0
1, 54480, Note_on_c, 6, 64, 0
1, 54480, Note_on_c, 9, 69, 64
1, 54480, Note_on_c, 9, 35, 80
1, 54480, Note_on_c, 12, 36, 110
1, 54480, Note_on_c, 6, 69, 18
1, 54487, Control_c, 14, 11, 73
1, 54518, Control_c, 14, 11, 74
1, 54550, Control_c, 14, 11, 75
1, 54582, Control_c, 14, 11, 76
1, 54600, Note_on_c, 9, 69, 0
1, 54600, Note_on_c, 9, 35, 0
1, 54600, Note_on_c, 6, 69, 0
1, 54600, Note_on_c, 6, 64, 19
1, 54613, Control_c, 14, 11, 77
1, 54645, Control_c, 14, 11, 78
1, 54676, Control_c, 14, 11, 79
1, 54708, Control_c, 14, 11, 80
1, 54720, Note_on_c, 6, 64, 0
1, 54720, Note_on_c, 9, 69, 64
1, 54720, Note_on_c, 9, 35, 80
1, 54720, Note_on_c, 6, 64, 19
1, 54739, Control_c, 14, 11, 81
1, 54771, Control_c, 14, 11, 82
1, 54803, Control_c, 14, 11, 83
1, 54834, Control_c, 14, 11, 84
1, 54840, Note_on_c, 9, 69, 0
1, 54840, Note_on_c, 9, 35, 0
1, 54840, Note_on_c, 6, 64, 0
1, 54840, Note_on_c, 6, 69, 20
1, 54866, Control_c, 14, 11, 85
1, 54897, Control_c, 14, 11, 86
1, 54929, Control_c, 14, 11, 87
1, 54960, Note_on_c, 6, 69, 0
1, 54960, Control_c, 14, 11, 88
1, 54960, Note_on_c, 9, 69, 64
1, 54960, Note_on_c, 9, 53, 32
1, 54960, Note_on_c, 9, 34, 80
1, 54960, Note_on_c, 6, 72, 20
1, 54992, Control_c, 14, 11, 89
1, 55024, Control_c, 14, 11, 90
1, 55055, Control_c, 14, 11, 91
1, 55080, Note_on_c, 9, 69, 0
1, 55080, Note_on_c, 9, 53, 0
1, 55080, Note_on_c, 9, 34, 0
1, 55080, Note_on_c, 6, 72, 0
1, 55080, Note_on_c, 6, 64, 21
1, 55087, Control_c, 14, 11, 92
1, 55118, Control_c, 14, 11, 93
1, 55150, Control_c, 14, 11, 94
1, 55182, Control_c, 14, 11, 95
1, 55200, Note_on_c, 6, 64, 0
1, 55200, Note_on_c, 9, 36, 64
1, 55200, Note_on_c, 9, 40, 64
1, 55200, Note_on_c, 9, 69, 64
1, 55200, Note_on_c, 9, 33, 80
1, 55200, Note_on_c, 6, 76, 21
1, 55213, Control_c, 14, 11, 96
1, 55245, Control_c, 14, 11, 97
1, 55276, Control_c, 14, 11, 98
1, 55308, Control_c, 14, 11, 99
1, 55320, Note_on_c, 9, 36, 0
1, 55320, Note_on_c, 9, 40, 0
1, 55320, Note_on_c, 9, 69, 0
1, 55320, Note_on_c, 9, 33, 0
1, 55320, Note_on_c, 6, 76, 0
1, 55320, Note_on_c, 6, 64, 22
1, 55339, Control_c, 14, 11, 100
1, 55371, Control_c, 14, 11, 101
1, 55403, Control_c, 14, 11, 102
1, 55434, Control_c, 14, 11, 103
1, 55440, Note_on_c, 6, 64, 0
1, 55440, Note_on_c, 9, 69, 64
1, 55440, Note_on_c, 9, 35, 80
1, 55440, Note_on_c, 6, 69, 22
1, 55466, Control_c, 14, 11, 104
1, 55497, Control_c, 14, 11, 105
1, 55529, Control_c, 14, 11, 106
1, 55560, Note_on_c, 9, 69, 0
1, 55560, Note_on_c, 9, 35, 0
1, 55560, Note_on_c, 6, 69, 0
1, 55560, Control_c, 14, 11, 107
1, 55560, Note_on_c, 9, 69, 52
1, 55560, Note_on_c, 6, 64, 23
1, 55592, Control_c, 14, 11, 108
1, 55624, Control_c, 14, 11, 109
1, 55655, Control_c, 14, 11, 110
1, 55680, Note_on_c, 9, 69, 0
1, 55680, Note_on_c, 12, 36, 0
1, 55680, Note_on_c, 6, 64, 0
1, 55680, Note_on_c, 9, 69, 80
1, 55680, Note_on_c, 9, 35, 80
1, 55680, Note_on_c, 12, 36, 110
1, 55680, Note_on_c, 6, 64, 36
1, 55687, Control_c, 14, 11, 111
1, 55718, Control_c, 14, 11, 112
1, 55750, Control_c, 14, 11, 113
1, 55782, Control_c, 14, 11, 114
1, 55800, Note_on_c, 9, 69, 0
1, 55800, Note_on_c, 9, 35, 0
1, 55800, Note_on_c, 6, 69, 24
1, 55813, Control_c, 14, 11, 115
1, 55845, Control_c, 14, 11, 116
1, 55876, Control_c, 14, 11, 117
1, 55908, Control_c, 14, 11, 118
1, 55920, Note_on_c, 6, 69, 0
1, 55920, Note_on_c, 9, 69, 64
1, 55920, Note_on_c, 9, 53, 32
1, 55920, Note_on_c, 9, 34, 80
1, 55920, Note_on_c, 6, 72, 24
1, 55939, Control_c, 14, 11, 119
1, 55971, Control_c, 14, 11, 120
1, 55980, Note_on_c, 6, 64, 0
1, 56003, Control_c, 14, 11, 121
1, 56034, Control_c, 14, 11, 122
1, 56040, Note_on_c, 9, 69, 0
1, 56040, Note_on_c, 9, 53, 0
1, 56040, Note_on_c, 9, 34, 0
1, 56040, Note_on_c, 6, 72, 0
1, 56040, Note_on_c, 6, 64, 25
1, 56066, Control_c, 14, 11, 123
1, 56097, Control_c, 14, 11, 124
1, 56129, Control_c, 14, 11, 125
1, 56160, Note_on_c, 6, 64, 0
1, 56160, Control_c, 14, 11, 126
1, 56160, Note_on_c, 9, 40, 64
1, 56160, Note_on_c, 9, 69, 64
1, 56160, Note_on_c, 9, 33, 80
1, 56160, Note_on_c, 9, 34, 64
1, 56160, Note_on_c, 6, 76, 40
1, 56280, Note_on_c, 9, 40, 0
1, 56280, Note_on_c, 9, 69, 0
1, 56280, Note_on_c, 9, 33, 0
1, 56280, Note_on_c, 9, 34, 0
1, 56280, Note_on_c, 6, 64, 36
1, 56400, Note_on_c, 13, 36, 0
1, 56400, Note_on_c, 12, 36, 0
1, 56400, Note_on_c, 6, 64, 0
1, 56400, Note_on_c, 9, 69, 64
1, 56400, Note_on_c, 9, 35, 80
1, 56400, Note_on_c, 13, 40, 80
1, 56400, Note_on_c, 12, 40, 110
1, 56400, Note_on_c, 6, 69, 40
1, 56520, Note_on_c, 9, 69, 0
1, 56520, Note_on_c, 9, 35, 0
1, 56520, Note_on_c, 6, 64, 27
1, 56640, Note_on_c, 6, 64, 0
1, 56640, Note_on_c, 9, 69, 64
1, 56640, Note_on_c, 9, 35, 80
1, 56640, Note_on_c, 6, 64, 28
1, 56700, Note_on_c, 6, 76, 0
1, 56700, Note_on_c, 6, 69, 0
1, 56760, Note_on_c, 9, 69, 0
1, 56760, Note_on_c, 9, 35, 0
1, 56760, Note_on_c, 6, 64, 0
1, 56760, Note_on_c, 6, 69, 28
1, 56880, Note_on_c, 6, 69, 0
1, 56880, Note_on_c, 14, 64, 0
1, 56880, Note_on_c, 14, 57, 0
1, 56880, Note_on_c, 14, 60, 0
1, 56880, Note_on_c, 9, 69, 64
1, 56880, Note_on_c, 9, 53, 32
1, 56880, Note_on_c, 9, 35, 80
1, 56880, Note_on_c, 6, 72, 29
1, 57000, Note_on_c, 9, 69, 0
1, 57000, Note_on_c, 9, 53, 0
1, 57000, Note_on_c, 9, 35, 0
1, 57000, Note_on_c, 6, 72, 0
1, 57000, Note_on_c, 6, 64, 29
1, 57120, Note_on_c, 6, 64, 0
1, 57120, Note_on_c, 9, 36, 64
1, 57120, Note_on_c, 9, 40, 64
1, 57120, Note_on_c, 9, 69, 64
1, 57120, Note_on_c, 9, 33, 80
1, 57120, Note_on_c, 6, 76, 30
1, 57120, Note_on_c, 0, 60, 64
1, 57120, Note_on_c, 3, 72, 64
1, 57240, Note_on_c, 9, 36, 0
1, 57240, Note_on_c, 9, 40, 0
1, 57240, Note_on_c, 9, 69, 0
1, 57240, Note_on_c, 9, 33, 0
1, 57240, Note_on_c, 6, 76, 0
1, 57240, Note_on_c, 6, 64, 30
1, 57360, Note_on_c, 6, 64, 0
1, 57360, Note_on_c, 0, 60, 0
1, 57360, Note_on_c, 3, 72, 0
1, 57360, Note_on_c, 9, 69, 64
1, 57360, Note_on_c, 9, 33, 80
1, 57360, Note_on_c, 6, 69, 31
1, 57360, Note_on_c, 0, 62, 64
1, 57360, Note_on_c, 3, 74, 64
1, 57480, Note_on_c, 9, 69, 0
1, 57480, Note_on_c, 9, 33, 0
1, 57480, Note_on_c, 6, 69, 0
1, 57480, Note_on_c, 6, 64, 32
1, 57600, Note_on_c, 12, 40, 0
1, 57600, Note_on_c, 13, 40, 0
1, 57600, Note_on_c, 6, 64, 0
1, 57600, Note_on_c, 0, 62, 0
1, 57600, Note_on_c, 3, 74, 0
1, 57600, Note_on_c, 14, 55, 20
1, 57600, Note_on_c, 14, 64, 32
1, 57600, Note_on_c, 14, 60, 20
1, 57600, Note_on_c, 15, 64, 40
1, 57600, Note_on_c, 5, 36, 48
1, 57600, Note_on_c, 9, 69, 64
1, 57600, Note_on_c, 2, 52, 52
1, 57600, Note_on_c, 9, 35, 80
1, 57600, Note_on_c, 13, 36, 48
1, 57600, Note_on_c, 0, 64, 64
1, 57600, Note_on_c, 12, 36, 96
1, 57600, Note_on_c, 3, 76, 64
1, 57600, Note_on_c, 6, 72, 44
1, 57720, Note_on_c, 5, 36, 0
1, 57720, Note_on_c, 9, 69, 0
1, 57720, Note_on_c, 9, 35, 0
1, 57840, Note_on_c, 0, 64, 0
1, 57840, Note_on_c, 13, 36, 0
1, 57840, Note_on_c, 3, 76, 0
1, 57840, Note_on_c, 6, 72, 0
1, 57840, Note_on_c, 5, 36, 48
1, 57840, Note_on_c, 9, 69, 64
1, 57840, Note_on_c, 9, 53, 32
1, 57840, Note_on_c, 9, 34, 80
1, 57840, Note_on_c, 0, 65, 64
1, 57840, Note_on_c, 3, 77, 64
1, 57840, Note_on_c, 6, 64, 44
1, 57960, Note_on_c, 5, 36, 0
1, 57960, Note_on_c, 9, 69, 0
1, 57960, Note_on_c, 9, 53, 0
1, 57960, Note_on_c, 9, 34, 0
1, 58080, Note_on_c, 0, 65, 0
1, 58080, Note_on_c, 3, 77, 0
1, 58080, Note_on_c, 6, 64, 0
1, 58080, Note_on_c, 9, 36, 64
1, 58080, Note_on_c, 9, 40, 64
1, 58080, Note_on_c, 9, 69, 64
1, 58080, Note_on_c, 9, 33, 80
1, 58080, Note_on_c, 0, 64, 64
1, 58080, Note_on_c, 3, 76, 64
1, 58080, Note_on_c, 6, 72, 44
1, 58080, Note_on_c, 9, 38, 119
1, 58200, Note_on_c, 9, 36, 0
1, 58200, Note_on_c, 9, 40, 0
1, 58200, Note_on_c, 9, 69, 0
1, 58200, Note_on_c, 9, 33, 0
1, 58200, Note_on_c, 9, 38, 0
1, 58260, Note_on_c, 12, 36, 0
1, 58320, Note_on_c, 0, 64, 0
1, 58320, Note_on_c, 3, 76, 0
1, 58320, Note_on_c, 6, 72, 0
1, 58320, Note_on_c, 5, 36, 48
1, 58320, Note_on_c, 9, 69, 64
1, 58320, Note_on_c, 9, 35, 80
1, 58320, Note_on_c, 13, 36, 48
1, 58320, Note_on_c, 0, 62, 64
1, 58320, Note_on_c, 12, 36, 96
1, 58320, Note_on_c, 3, 74, 64
1, 58320, Note_on_c, 6, 64, 44
1, 58440, Note_on_c, 5, 36, 0
1, 58440, Note_on_c, 9, 69, 0
1, 58440, Note_on_c, 9, 35, 0
1, 58500, Note_on_c, 12, 36, 0
1, 58560, Note_on_c, 0, 62, 0
1, 58560, Note_on_c, 13, 36, 0
1, 58560, Note_on_c, 3, 74, 0
1, 58560, Note_on_c, 6, 64, 0
1, 58560, Note_on_c, 5, 36, 48
1, 58560, Note_on_c, 9, 69, 64
1, 58560, Note_on_c, 9, 35, 80
1, 58560, Note_on_c, 13, 36, 48
1, 58560, Note_on_c, 0, 60, 64
1, 58560, Note_on_c, 12, 36, 96
1, 58560, Note_on_c, 3, 72, 64
1, 58560, Note_on_c, 6, 72, 44
1, 58680, Note_on_c, 5, 36, 0
1, 58680, Note_on_c, 9, 69, 0
1, 58680, Note_on_c, 9, 35, 0
1, 58800, Note_on_c, 13, 36, 0
1, 58800, Note_on_c, 6, 72, 0
1, 58800, Note_on_c, 5, 36, 48
1, 58800, Note_on_c, 9, 69, 64
1, 58800, Note_on_c, 9, 53, 32
1, 58800, Note_on_c, 9, 34, 80
1, 58800, Note_on_c, 6, 64, 44
1, 58920, Note_on_c, 5, 36, 0
1, 58920, Note_on_c, 9, 69, 0
1, 58920, Note_on_c, 9, 53, 0
1, 58920, Note_on_c, 9, 34, 0
1, 58980, Note_on_c, 3, 72, 0
1, 59040, Note_on_c, 0, 60, 0
1, 59040, Note_on_c, 6, 64, 0
1, 59040, Note_on_c, 9, 36, 64
1, 59040, Note_on_c, 9, 40, 64
1, 59040, Note_on_c, 9, 69, 64
1, 59040, Note_on_c, 9, 33, 80
1, 59040, Note_on_c, 0, 60, 64
1, 59040, Note_on_c, 3, 72, 64
1, 59040, Note_on_c, 6, 76, 44
1, 59040, Note_on_c, 9, 38, 119
1, 59160, Note_on_c, 9, 36, 0
1, 59160, Note_on_c, 9, 40, 0
1, 59160, Note_on_c, 9, 69, 0
1, 59160, Note_on_c, 9, 33, 0
1, 59160, Note_on_c, 6, 76, 0
1, 59160, Note_on_c, 9, 38, 0
1, 59160, Note_on_c, 6, 77, 44
1, 59280, Note_on_c, 0, 60, 0
1, 59280, Note_on_c, 3, 72, 0
1, 59280, Note_on_c, 6, 77, 0
1, 59280, Note_on_c, 5, 36, 48
1, 59280, Note_on_c, 9, 69, 64
1, 59280, Note_on_c, 9, 35, 80
1, 59280, Note_on_c, 0, 57, 64
1, 59280, Note_on_c, 3, 69, 64
1, 59280, Note_on_c, 6, 76, 44
1, 59400, Note_on_c, 5, 36, 0
1, 59400, Note_on_c, 9, 69, 0
1, 59400, Note_on_c, 9, 35, 0
1, 59400, Note_on_c, 6, 76, 0
1, 59400, Note_on_c, 9, 69, 52
1, 59400, Note_on_c, 6, 74, 44
1, 59460, Note_on_c, 12, 36, 0
1, 59520, Note_on_c, 0, 57, 0
1, 59520, Note_on_c, 9, 69, 0
1, 59520, Note_on_c, 3, 69, 0
1, 59520, Note_on_c, 6, 74, 0
1, 59520, Note_on_c, 5, 36, 48
1, 59520, Note_on_c, 9, 69, 80
1, 59520, Note_on_c, 9, 35, 80
1, 59520, Note_on_c, 0, 60, 64
1, 59520, Note_on_c, 13, 36, 48
1, 59520, Note_on_c, 12, 36, 96
1, 59520, Note_on_c, 3, 72, 64
1, 59520, Note_on_c, 6, 72, 44
1, 59640, Note_on_c, 5, 36, 0
1, 59640, Note_on_c, 9, 69, 0
1, 59640, Note_on_c, 9, 35, 0
1, 59700, Note_on_c, 12, 36, 0
1, 59760, Note_on_c, 13, 36, 0
1, 59760, Note_on_c, 0, 60, 0
1, 59760, Note_on_c, 6, 72, 0
1, 59760, Note_on_c, 5, 36, 48
1, 59760, Note_on_c, 9, 69, 64
1, 59760, Note_on_c, 9, 53, 32
1, 59760, Note_on_c, 9, 34, 80
1, 59760, Note_on_c, 13, 36, 48
1, 59760, Note_on_c, 12, 36, 96
1, 59760, Note_on_c, 6, 64, 44
1, 59880, Note_on_c, 5, 36, 0
1, 59880, Note_on_c, 9, 69, 0
1, 59880, Note_on_c, 9, 53, 0
1, 59880, Note_on_c, 9, 34, 0
1, 59940, Note_on_c, 3, 72, 0
1, 60000, Note_on_c, 13, 36, 0
1, 60000, Note_on_c, 6, 64, 0
1, 60000, Note_on_c, 9, 36, 64
1, 60000, Note_on_c, 9, 40, 64
1, 60000, Note_on_c, 9, 69, 64
1, 60000, Note_on_c, 9, 33, 80
1, 60000, Note_on_c, 0, 57, 64
1, 60000, Note_on_c, 3, 69, 64
1, 60000, Note_on_c, 6, 72, 44
1, 60000, Note_on_c, 9, 38, 119
1, 60120, Note_on_c, 9, 36, 0
1, 60120, Note_on_c, 9, 40, 0
1, 60120, Note_on_c, 9, 69, 0
1, 60120, Note_on_c, 9, 33, 0
1, 60120, Note_on_c, 9, 38, 0
1, 60180, Note_on_c, 12, 36, 0
1, 60240, Note_on_c, 0, 57, 0
1, 60240, Note_on_c, 3, 69, 0
1, 60240, Note_on_c, 6, 72, 0
1, 60240, Note_on_c, 5, 36, 48
1, 60240, Note_on_c, 9, 69, 64
1, 60240, Note_on_c, 9, 35, 80
1, 60240, Note_on_c, 13, 36, 48
1, 60240, Note_on_c, 0, 62, 64
1, 60240, Note_on_c, 12, 36, 96
1, 60240, Note_on_c, 3, 74, 64
1, 60240, Note_on_c, 6, 64, 44
1, 60360, Note_on_c, 5, 36, 0
1, 60360, Note_on_c, 9, 69, 0
1, 60360, Note_on_c, 9, 35, 0
1, 60420, Note_on_c, 12, 36, 0
1, 60480, Note_on_c, 13, 36, 0
1, 60480, Note_on_c, 14, 64, 0
1, 60480, Note_on_c, 14, 60, 0
1, 60480, Note_on_c, 6, 64, 0
1, 60480, Note_on_c, 14, 57, 32
1, 60480, Note_on_c, 14, 62, 20
1, 60480, Note_on_c, 5, 36, 48
1, 60480, Note_on_c, 9, 69, 64
1, 60480, Note_on_c, 9, 35, 80
1, 60480, Note_on_c, 13, 38, 48
1, 60480, Note_on_c, 12, 38, 96
1, 60480, Note_on_c, 6, 74, 44
1, 60600, Note_on_c, 5, 36, 0
1, 60600, Note_on_c, 9, 69, 0
1, 60600, Note_on_c, 9, 35, 0
1, 60720, Note_on_c, 13, 38, 0
1, 60720, Note_on_c, 3, 74, 0
1, 60720, Note_on_c, 6, 74, 0
1, 60720, Note_on_c, 5, 36, 48
1, 60720, Note_on_c, 9, 69, 64
1, 60720, Note_on_c, 9, 53, 32
1, 60720, Note_on_c, 9, 35, 80
1, 60720, Note_on_c, 3, 76, 64
1, 60720, Note_on_c, 6, 69, 44
1, 60840, Note_on_c, 5, 36, 0
1, 60840, Note_on_c, 9, 69, 0
1, 60840, Note_on_c, 9, 53, 0
1, 60840, Note_on_c, 9, 35, 0
1, 60900, Note_on_c, 12, 38, 0
1, 60960, Note_on_c, 0, 62, 0
1, 60960, Note_on_c, 3, 76, 0
1, 60960, Note_on_c, 6, 69, 0
1, 60960, Note_on_c, 9, 36, 64
1, 60960, Note_on_c, 9, 40, 64
1, 60960, Note_on_c, 9, 69, 64
1, 60960, Note_on_c, 9, 33, 80
1, 60960, Note_on_c, 0, 60, 64
1, 60960, Note_on_c, 13, 38, 48
1, 60960, Note_on_c, 12, 38, 96
1, 60960, Note_on_c, 3, 72, 64
1, 60960, Note_on_c, 6, 74, 44
1, 60960, Note_on_c, 9, 38, 119
1, 61080, Note_on_c, 9, 36, 0
1, 61080, Note_on_c, 9, 40, 0
1, 61080, Note_on_c, 9, 69, 0
1, 61080, Note_on_c, 9, 33, 0
1, 61080, Note_on_c, 9, 38, 0
1, 61200, Note_on_c, 13, 38, 0
1, 61200, Note_on_c, 0, 60, 0
1, 61200, Note_on_c, 3, 72, 0
1, 61200, Note_on_c, 6, 74, 0
1, 61200, Note_on_c, 5, 36, 48
1, 61200, Note_on_c, 9, 69, 64
1, 61200, Note_on_c, 9, 70, 32
1, 61200, Note_on_c, 9, 33, 80
1, 61200, Note_on_c, 0, 62, 64
1, 61200, Note_on_c, 3, 74, 64
1, 61200, Note_on_c, 6, 69, 44
1, 61260, Note_on_c, 9, 70, 0
1, 61260, Note_on_c, 9, 70, 44
1, 61320, Note_on_c, 5, 36, 0
1, 61320, Note_on_c, 9, 69, 0
1, 61320, Note_on_c, 9, 70, 0
1, 61320, Note_on_c, 9, 33, 0
1, 61320, Note_on_c, 9, 70, 60
1, 61380, Note_on_c, 12, 38, 0
1, 61380, Note_on_c, 9, 70, 0
1, 61380, Note_on_c, 9, 70, 68
1, 61440, Note_on_c, 0, 62, 0
1, 61440, Note_on_c, 14, 55, 0
1, 61440, Note_on_c, 14, 62, 0
1, 61440, Note_on_c, 14, 57, 0
1, 61440, Note_on_c, 15, 64, 0
1, 61440, Note_on_c, 9, 70, 0
1, 61440, Note_on_c, 3, 74, 0
1, 61440, Note_on_c, 6, 69, 0
1, 61440, Note_on_c, 14, 55, 20
1, 61440, Note_on_c, 14, 64, 32
1, 61440, Note_on_c, 14, 60, 20
1, 61440, Note_on_c, 15, 64, 40
1, 61440, Note_on_c, 5, 36, 48
1, 61440, Note_on_c, 9, 69, 64
1, 61440, Note_on_c, 9, 35, 80
1, 61440, Note_on_c, 13, 36, 48
1, 61440, Note_on_c, 0, 64, 64
1, 61440, Note_on_c, 12, 36, 96
1, 61440, Note_on_c, 3, 76, 64
1, 61440, Note_on_c, 6, 72, 44
1, 61560, Note_on_c, 5, 36, 0
1, 61560, Note_on_c, 9, 35, 0
1, 61560, Note_on_c, 9, 69, 0
1, 61680, Note_on_c, 0, 64, 0
1, 61680, Note_on_c, 13, 36, 0
1, 61680, Note_on_c, 3, 76, 0
1, 61680, Note_on_c, 6, 72, 0
1, 61680, Note_on_c, 5, 36, 48
1, 61680, Note_on_c, 9, 69, 64
1, 61680, Note_on_c, 9, 53, 32
1, 61680, Note_on_c, 9, 34, 80
1, 61680, Note_on_c, 0, 65, 64
1, 61680, Note_on_c, 3, 77, 64
1, 61680, Note_on_c, 6, 64, 44
1, 61800, Note_on_c, 5, 36, 0
1, 61800, Note_on_c, 9, 34, 0
1, 61800, Note_on_c, 9, 53, 0
1, 61800, Note_on_c, 9, 69, 0
1, 61920, Note_on_c, 0, 65, 0
1, 61920, Note_on_c, 3, 77, 0
1, 61920, Note_on_c, 6, 64, 0
1, 61920, Note_on_c, 9, 36, 64
1, 61920, Note_on_c, 9, 40, 64
1, 61920, Note_on_c, 9, 69, 64
1, 61920, Note_on_c, 9, 33, 80
1, 61920, Note_on_c, 0, 64, 64
1, 61920, Note_on_c, 3, 76, 64
1, 61920, Note_on_c, 6, 72, 44
1, 61920, Note_on_c, 9, 38, 119
1, 62040, Note_on_c, 9, 33, 0
1, 62040, Note_on_c, 9, 69, 0
1, 62040, Note_on_c, 9, 40, 0
1, 62040, Note_on_c, 9, 36, 0
1, 62040, Note_on_c, 9, 38, 0
1, 62100, Note_on_c, 12, 36, 0
1, 62160, Note_on_c, 0, 64, 0
1, 62160, Note_on_c, 3, 76, 0
1, 62160, Note_on_c, 6, 72, 0
1, 62160, Note_on_c, 5, 36, 48
1, 62160, Note_on_c, 9, 69, 64
1, 62160, Note_on_c, 9, 35, 80
1, 62160, Note_on_c, 13, 36, 48
1, 62160, Note_on_c, 0, 60, 64
1, 62160, Note_on_c, 12, 36, 96
1, 62160, Note_on_c, 3, 74, 64
1, 62160, Note_on_c, 6, 64, 44
1, 62280, Note_on_c, 5, 36, 0
1, 62280, Note_on_c, 9, 35, 0
1, 62280, Note_on_c, 9, 69, 0
1, 62340, Note_on_c, 12, 36, 0
1, 62400, Note_on_c, 13, 36, 0
1, 62400, Note_on_c, 3, 74, 0
1, 62400, Note_on_c, 6, 64, 0
1, 62400, Note_on_c, 5, 36, 48
1, 62400, Note_on_c, 9, 69, 64
1, 62400, Note_on_c, 9, 35, 80
1, 62400, Note_on_c, 13, 36, 48
1, 62400, Note_on_c, 12, 36, 96
1, 62400, Note_on_c, 3, 72, 64
1, 62400, Note_on_c, 6, 72, 44
1, 62520, Note_on_c, 5, 36, 0
1, 62520, Note_on_c, 9, 35, 0
1, 62520, Note_on_c, 9, 69, 0
1, 62640, Note_on_c, 13, 36, 0
1, 62640, Note_on_c, 6, 72, 0
1, 62640, Note_on_c, 5, 36, 48
1, 62640, Note_on_c, 9, 69, 64
1, 62640, Note_on_c, 9, 53, 32
1, 62640, Note_on_c, 9, 34, 80
1, 62640, Note_on_c, 6, 64, 44
1, 62760, Note_on_c, 5, 36, 0
1, 62760, Note_on_c, 9, 34, 0
1, 62760, Note_on_c, 9, 53, 0
1, 62760, Note_on_c, 9, 69, 0
1, 62820, Note_on_c, 3, 72, 0
1, 62880, Note_on_c, 6, 64, 0
1, 62880, Note_on_c, 9, 36, 64
1, 62880, Note_on_c, 9, 40, 64
1, 62880, Note_on_c, 9, 69, 64
1, 62880, Note_on_c, 9, 33, 80
1, 62880, Note_on_c, 3, 72, 64
1, 62880, Note_on_c, 6, 76, 44
1, 62880, Note_on_c, 9, 38, 119
1, 63000, Note_on_c, 9, 33, 0
1, 63000, Note_on_c, 9, 69, 0
1, 63000, Note_on_c, 9, 40, 0
1, 63000, Note_on_c, 9, 36, 0
1, 63000, Note_on_c, 6, 76, 0
1, 63000, Note_on_c, 9, 38, 0
1, 63000, Note_on_c, 6, 77, 44
1, 63120, Note_on_c, 0, 60, 0
1, 63120, Note_on_c, 3, 72, 0
1, 63120, Note_on_c, 6, 77, 0
1, 63120, Note_on_c, 5, 36, 48
1, 63120, Note_on_c, 9, 69, 64
1, 63120, Note_on_c, 9, 35, 80
1, 63120, Note_on_c, 0, 57, 64
1, 63120, Note_on_c, 3, 69, 64
1, 63120, Note_on_c, 6, 76, 44
1, 63240, Note_on_c, 5, 36, 0
1, 63240, Note_on_c, 9, 35, 0
1, 63240, Note_on_c, 9, 69, 0
1, 63240, Note_on_c, 6, 76, 0
1, 63240, Note_on_c, 9, 69, 52
1, 63240, Note_on_c, 6, 74, 44
1, 63300, Note_on_c, 12, 36, 0
1, 63360, Note_on_c, 9, 69, 0
1, 63360, Note_on_c, 6, 74, 0
1, 63360, Note_on_c, 5, 36, 48
1, 63360, Note_on_c, 9, 69, 80
1, 63360, Note_on_c, 9, 35, 80
1, 63360, Note_on_c, 13, 36, 48
1, 63360, Note_on_c, 12, 36, 96
1, 63360, Note_on_c, 6, 72, 44
1, 63480, Note_on_c, 5, 36, 0
1, 63480, Note_on_c, 9, 35, 0
1, 63480, Note_on_c, 9, 69, 0
1, 63540, Note_on_c, 12, 36, 0
1, 63540, Note_on_c, 3, 69, 0
1, 63600, Note_on_c, 13, 36, 0
1, 63600, Note_on_c, 6, 72, 0
1, 63600, Note_on_c, 5, 36, 48
1, 63600, Note_on_c, 9, 69, 64
1, 63600, Note_on_c, 9, 53, 32
1, 63600, Note_on_c, 9, 34, 80
1, 63600, Note_on_c, 13, 36, 48
1, 63600, Note_on_c, 12, 36, 96
1, 63600, Note_on_c, 3, 76, 64
1, 63600, Note_on_c, 6, 64, 44
1, 63720, Note_on_c, 5, 36, 0
1, 63720, Note_on_c, 9, 34, 0
1, 63720, Note_on_c, 9, 53, 0
1, 63720, Note_on_c, 9, 69, 0
1, 63840, Note_on_c, 13, 36, 0
1, 63840, Note_on_c, 6, 64, 0
1, 63840, Note_on_c, 9, 36, 64
1, 63840, Note_on_c, 9, 40, 64
1, 63840, Note_on_c, 9, 69, 64
1, 63840, Note_on_c, 9, 33, 80
1, 63840, Note_on_c, 6, 72, 44
1, 63840, Note_on_c, 9, 38, 119
1, 63960, Note_on_c, 9, 33, 0
1, 63960, Note_on_c, 9, 69, 0
1, 63960, Note_on_c, 9, 40, 0
1, 63960, Note_on_c, 9, 36, 0
1, 63960, Note_on_c, 9, 38, 0
1, 64020, Note_on_c, 12, 36, 0
1, 64080, Note_on_c, 3, 76, 0
1, 64080, Note_on_c, 6, 72, 0
1, 64080, Note_on_c, 5, 36, 48
1, 64080, Note_on_c, 9, 69, 64
1, 64080, Note_on_c, 9, 35, 80
1, 64080, Note_on_c, 13, 36, 48
1, 64080, Note_on_c, 12, 36, 96
1, 64080, Note_on_c, 3, 69, 64
1, 64080, Note_on_c, 6, 64, 44
1, 64200, Note_on_c, 5, 36, 0
1, 64200, Note_on_c, 9, 35, 0
1, 64200, Note_on_c, 9, 69, 0
1, 64260, Note_on_c, 12, 36, 0
1, 64320, Note_on_c, 0, 57, 0
1, 64320, Note_on_c, 13, 36, 0
1, 64320, Note_on_c, 14, 60, 0
1, 64320, Note_on_c, 14, 64, 0
1, 64320, Note_on_c, 3, 69, 0
1, 64320, Note_on_c, 6, 64, 0
1, 64320, Note_on_c, 14, 57, 32
1, 64320, Note_on_c, 14, 62, 20
1, 64320, Note_on_c, 5, 36, 48
1, 64320, Note_on_c, 9, 69, 64
1, 64320, Note_on_c, 9, 35, 80
1, 64320, Note_on_c, 13, 31, 48
1, 64320, Note_on_c, 0, 55, 64
1, 64320, Note_on_c, 12, 31, 96
1, 64320, Note_on_c, 3, 67, 64
1, 64320, Note_on_c, 6, 74, 44
1, 64440, Note_on_c, 5, 36, 0
1, 64440, Note_on_c, 9, 35, 0
1, 64440, Note_on_c, 9, 69, 0
1, 64560, Note_on_c, 13, 31, 0
1, 64560, Note_on_c, 3, 67, 0
1, 64560, Note_on_c, 6, 74, 0
1, 64560, Note_on_c, 5, 36, 48
1, 64560, Note_on_c, 9, 69, 64
1, 64560, Note_on_c, 9, 53, 32
1, 64560, Note_on_c, 9, 35, 80
1, 64560, Note_on_c, 3, 67, 64
1, 64560, Note_on_c, 6, 69, 44
1, 64680, Note_on_c, 5, 36, 0
1, 64680, Note_on_c, 9, 35, 0
1, 64680, Note_on_c, 9, 53, 0
1, 64680, Note_on_c, 9, 69, 0
1, 64740, Note_on_c, 12, 31, 0
1, 64800, Note_on_c, 0, 55, 0
1, 64800, Note_on_c, 3, 67, 0
1, 64800, Note_on_c, 6, 69, 0
1, 64800, Note_on_c, 9, 36, 64
1, 64800, Note_on_c, 9, 40, 64
1, 64800, Note_on_c, 9, 69, 64
1, 64800, Note_on_c, 9, 33, 80
1, 64800, Note_on_c, 13, 31, 48
1, 64800, Note_on_c, 0, 60, 64
1, 64800, Note_on_c, 12, 31, 96
1, 64800, Note_on_c, 3, 72, 64
1, 64800, Note_on_c, 6, 74, 44
1, 64800, Note_on_c, 9, 38, 119
1, 64920, Note_on_c, 9, 33, 0
1, 64920, Note_on_c, 9, 69, 0
1, 64920, Note_on_c, 9, 40, 0
1, 64920, Note_on_c, 9, 36, 0
1, 64920, Note_on_c, 9, 38, 0
1, 65040, Note_on_c, 0, 60, 0
1, 65040, Note_on_c, 13, 31, 0
1, 65040, Note_on_c, 3, 72, 0
1, 65040, Note_on_c, 6, 74, 0
1, 65040, Note_on_c, 5, 36, 48
1, 65040, Note_on_c, 9, 69, 64
1, 65040, Note_on_c, 9, 70, 32
1, 65040, Note_on_c, 9, 33, 80
1, 65040, Note_on_c, 0, 62, 64
1, 65040, Note_on_c, 3, 74, 64
1, 65040, Note_on_c, 6, 69, 44
1, 65100, Note_on_c, 9, 70, 0
1, 65100, Note_on_c, 9, 70, 44
1, 65160, Note_on_c, 5, 36, 0
1, 65160, Note_on_c, 9, 33, 0
1, 65160, Note_on_c, 9, 70, 0
1, 65160, Note_on_c, 9, 69, 0
1, 65160, Note_on_c, 9, 70, 60
1, 65220, Note_on_c, 12, 31, 0
1, 65220, Note_on_c, 9, 70, 0
1, 65220, Note_on_c, 9, 70, 68
1, 65280, Note_on_c, 0, 62, 0
1, 65280, Note_on_c, 14, 57, 0
1, 65280, Note_on_c, 14, 55, 0
1, 65280, Note_on_c, 14, 62, 0
1, 65280, Note_on_c, 15, 64, 0
1, 65280, Note_on_c, 2, 52, 0
1, 65280, Note_on_c, 9, 70, 0
1, 65280, Note_on_c, 3, 74, 0
1, 65280, Note_on_c, 6, 69, 0
1, 65280, Note_on_c, 14, 55, 20
1, 65280, Note_on_c, 14, 64, 32
1, 65280, Note_on_c, 14, 60, 20
1, 65280, Note_on_c, 15, 64, 40
1, 65280, Note_on_c, 5, 36, 48
1, 65280, Note_on_c, 9, 69, 64
1, 65280, Note_on_c, 2, 52, 52
1, 65280, Note_on_c, 9, 35, 80
1, 65280, Note_on_c, 13, 36, 48
1, 65280, Note_on_c, 0, 64, 64
1, 65280, Note_on_c, 12, 36, 96
1, 65280, Note_on_c, 3, 76, 64
1, 65280, Note_on_c, 6, 72, 44
1, 65400, Note_on_c, 9, 35, 0
1, 65400, Note_on_c, 9, 69, 0
1, 65400, Note_on_c, 5, 36, 0
1, 65520, Note_on_c, 0, 64, 0
1, 65520, Note_on_c, 13, 36, 0
1, 65520, Note_on_c, 3, 76, 0
1, 65520, Note_on_c, 6, 72, 0
1, 65520, Note_on_c, 5, 36, 48
1, 65520, Note_on_c, 9, 69, 64
1, 65520, Note_on_c, 9, 53, 32
1, 65520, Note_on_c, 9, 34, 80
1, 65520, Note_on_c, 0, 65, 64
1, 65520, Note_on_c, 3, 77, 64
1, 65520, Note_on_c, 6, 64, 44
1, 65640, Note_on_c, 9, 34, 0
1, 65640, Note_on_c, 9, 53, 0
1, 65640, Note_on_c, 9, 69, 0
1, 65640, Note_on_c, 5, 36, 0
1, 65760, Note_on_c, 0, 65, 0
1, 65760, Note_on_c, 3, 77, 0
1, 65760, Note_on_c, 6, 64, 0
1, 65760, Note_on_c, 9, 36, 64
1, 65760, Note_on_c, 9, 40, 64
1, 65760, Note_on_c, 9, 69, 64
1, 65760, Note_on_c, 9, 33, 80
1, 65760, Note_on_c, 0, 64, 64
1, 65760, Note_on_c, 3, 76, 64
1, 65760, Note_on_c, 6, 72, 44
1, 65760, Note_on_c, 9, 38, 119
1, 65880, Note_on_c, 9, 33, 0
1, 65880, Note_on_c, 9, 69, 0
1, 65880, Note_on_c, 9, 40, 0
1, 65880, Note_on_c, 9, 36, 0
1, 65880, Note_on_c, 9, 38, 0
1, 65940, Note_on_c, 12, 36, 0
1, 66000, Note_on_c, 0, 64, 0
1, 66000, Note_on_c, 3, 76, 0
1, 66000, Note_on_c, 6, 72, 0
1, 66000, Note_on_c, 5, 36, 48
1, 66000, Note_on_c, 9, 69, 64
1, 66000, Note_on_c, 9, 35, 80
1, 66000, Note_on_c, 13, 36, 48
1, 66000, Note_on_c, 0, 62, 64
1, 66000, Note_on_c, 12, 36, 96
1, 66000, Note_on_c, 3, 74, 64
1, 66000, Note_on_c, 6, 64, 44
1, 66120, Note_on_c, 9, 35, 0
1, 66120, Note_on_c, 9, 69, 0
1, 66120, Note_on_c, 5, 36, 0
1, 66180, Note_on_c, 12, 36, 0
1, 66240, Note_on_c, 0, 62, 0
1, 66240, Note_on_c, 13, 36, 0
1, 66240, Note_on_c, 3, 74, 0
1, 66240, Note_on_c, 6, 64, 0
1, 66240, Note_on_c, 5, 36, 48
1, 66240, Note_on_c, 9, 69, 64
1, 66240, Note_on_c, 9, 35, 80
1, 66240, Note_on_c, 13, 36, 48
1, 66240, Note_on_c, 0, 60, 64
1, 66240, Note_on_c, 12, 36, 96
1, 66240, Note_on_c, 3, 72, 64
1, 66240, Note_on_c, 6, 72, 44
1, 66360, Note_on_c, 9, 35, 0
1, 66360, Note_on_c, 9, 69, 0
1, 66360, Note_on_c, 5, 36, 0
1, 66480, Note_on_c, 0, 60, 0
1, 66480, Note_on_c, 13, 36, 0
1, 66480, Note_on_c, 3, 72, 0
1, 66480, Note_on_c, 6, 72, 0
1, 66480, Note_on_c, 5, 36, 48
1, 66480, Note_on_c, 9, 69, 64
1, 66480, Note_on_c, 9, 53, 32
1, 66480, Note_on_c, 9, 34, 80
1, 66480, Note_on_c, 6, 64, 44
1, 66600, Note_on_c, 9, 34, 0
1, 66600, Note_on_c, 9, 53, 0
1, 66600, Note_on_c, 9, 69, 0
1, 66600, Note_on_c, 5, 36, 0
1, 66720, Note_on_c, 6, 64, 0
1, 66720, Note_on_c, 9, 36, 64
1, 66720, Note_on_c, 9, 40, 64
1, 66720, Note_on_c, 9, 69, 64
1, 66720, Note_on_c, 9, 33, 80
1, 66720, Note_on_c, 0, 60, 64
1, 66720, Note_on_c, 3, 72, 64
1, 66720, Note_on_c, 6, 76, 44
1, 66720, Note_on_c, 9, 38, 119
1, 66840, Note_on_c, 9, 33, 0
1, 66840, Note_on_c, 9, 69, 0
1, 66840, Note_on_c, 9, 40, 0
1, 66840, Note_on_c, 9, 36, 0
1, 66840, Note_on_c, 6, 76, 0
1, 66840, Note_on_c, 9, 38, 0
1, 66840, Note_on_c, 6, 77, 44
1, 66960, Note_on_c, 0, 60, 0
1, 66960, Note_on_c, 3, 72, 0
1, 66960, Note_on_c, 6, 77, 0
1, 66960, Note_on_c, 5, 36, 48
1, 66960, Note_on_c, 9, 69, 64
1, 66960, Note_on_c, 9, 35, 80
1, 66960, Note_on_c, 0, 57, 64
1, 66960, Note_on_c, 3, 69, 64
1, 66960, Note_on_c, 6, 76, 44
1, 67080, Note_on_c, 9, 35, 0
1, 67080, Note_on_c, 9, 69, 0
1, 67080, Note_on_c, 5, 36, 0
1, 67080, Note_on_c, 6, 76, 0
1, 67080, Note_on_c, 9, 69, 52
1, 67080, Note_on_c, 6, 74, 44
1, 67140, Note_on_c, 12, 36, 0
1, 67200, Note_on_c, 0, 57, 0
1, 67200, Note_on_c, 9, 69, 0
1, 67200, Note_on_c, 3, 69, 0
1, 67200, Note_on_c, 6, 74, 0
1, 67200, Note_on_c, 5, 36, 48
1, 67200, Note_on_c, 9, 69, 80
1, 67200, Note_on_c, 9, 35, 80
1, 67200, Note_on_c, 13, 36, 48
1, 67200, Note_on_c, 0, 60, 64
1, 67200, Note_on_c, 12, 36, 96
1, 67200, Note_on_c, 3, 72, 64
1, 67200, Note_on_c, 6, 72, 44
1, 67320, Note_on_c, 9, 35, 0
1, 67320, Note_on_c, 9, 69, 0
1, 67320, Note_on_c, 5, 36, 0
1, 67380, Note_on_c, 12, 36, 0
1, 67440, Note_on_c, 13, 36, 0
1, 67440, Note_on_c, 6, 72, 0
1, 67440, Note_on_c, 5, 36, 48
1, 67440, Note_on_c, 9, 69, 64
1, 67440, Note_on_c, 9, 53, 32
1, 67440, Note_on_c, 9, 34, 80
1, 67440, Note_on_c, 13, 36, 48
1, 67440, Note_on_c, 12, 36, 96
1, 67440, Note_on_c, 6, 64, 44
1, 67560, Note_on_c, 9, 34, 0
1, 67560, Note_on_c, 9, 53, 0
1, 67560, Note_on_c, 9, 69, 0
1, 67560, Note_on_c, 5, 36, 0
1, 67680, Note_on_c, 0, 60, 0
1, 67680, Note_on_c, 13, 36, 0
1, 67680, Note_on_c, 3, 72, 0
1, 67680, Note_on_c, 6, 64, 0
1, 67680, Note_on_c, 9, 36, 64
1, 67680, Note_on_c, 9, 40, 64
1, 67680, Note_on_c, 9, 69, 64
1, 67680, Note_on_c, 9, 33, 80
1, 67680, Note_on_c, 0, 57, 64
1, 67680, Note_on_c, 3, 69, 64
1, 67680, Note_on_c, 6, 72, 44
1, 67680, Note_on_c, 9, 38, 119
1, 67800, Note_on_c, 9, 33, 0
1, 67800, Note_on_c, 9, 69, 0
1, 67800, Note_on_c, 9, 40, 0
1, 67800, Note_on_c, 9, 36, 0
1, 67800, Note_on_c, 9, 38, 0
1, 67860, Note_on_c, 12, 36, 0
1, 67920, Note_on_c, 0, 57, 0
1, 67920, Note_on_c, 3, 69, 0
1, 67920, Note_on_c, 6, 72, 0
1, 67920, Note_on_c, 5, 36, 48
1, 67920, Note_on_c, 9, 69, 64
1, 67920, Note_on_c, 9, 35, 80
1, 67920, Note_on_c, 13, 36, 48
1, 67920, Note_on_c, 0, 62, 64
1, 67920, Note_on_c, 12, 36, 96
1, 67920, Note_on_c, 3, 74, 64
1, 67920, Note_on_c, 6, 64, 44
1, 68040, Note_on_c, 9, 35, 0
1, 68040, Note_on_c, 9, 69, 0
1, 68040, Note_on_c, 5, 36, 0
1, 68100, Note_on_c, 12, 36, 0
1, 68160, Note_on_c, 13, 36, 0
1, 68160, Note_on_c, 14, 60, 0
1, 68160, Note_on_c, 14, 64, 0
1, 68160, Note_on_c, 6, 64, 0
1, 68160, Note_on_c, 14, 57, 32
1, 68160, Note_on_c, 14, 62, 20
1, 68160, Note_on_c, 5, 36, 48
1, 68160, Note_on_c, 9, 69, 64
1, 68160, Note_on_c, 9, 35, 80
1, 68160, Note_on_c, 13, 38, 48
1, 68160, Note_on_c, 12, 38, 96
1, 68160, Note_on_c, 6, 74, 44
1, 68280, Note_on_c, 9, 35, 0
1, 68280, Note_on_c, 9, 69, 0
1, 68280, Note_on_c, 5, 36, 0
1, 68400, Note_on_c, 13, 38, 0
1, 68400, Note_on_c, 0, 62, 0
1, 68400, Note_on_c, 3, 74, 0
1, 68400, Note_on_c, 6, 74, 0
1, 68400, Note_on_c, 5, 36, 48
1, 68400, Note_on_c, 9, 69, 64
1, 68400, Note_on_c, 9, 53, 32
1, 68400, Note_on_c, 9, 35, 80
1, 68400, Note_on_c, 0, 64, 64
1, 68400, Note_on_c, 3, 76, 64
1, 68400, Note_on_c, 6, 69, 44
1, 68520, Note_on_c, 9, 35, 0
1, 68520, Note_on_c, 9, 53, 0
1, 68520, Note_on_c, 9, 69, 0
1, 68520, Note_on_c, 5, 36, 0
1, 68580, Note_on_c, 12, 38, 0
1, 68640, Note_on_c, 0, 64, 0
1, 68640, Note_on_c, 3, 76, 0
1, 68640, Note_on_c, 6, 69, 0
1, 68640, Note_on_c, 9, 36, 64
1, 68640, Note_on_c, 9, 40, 64
1, 68640, Note_on_c, 9, 69, 64
1, 68640, Note_on_c, 9, 33, 80
1, 68640, Note_on_c, 0, 60, 64
1, 68640, Note_on_c, 13, 38, 48
1, 68640, Note_on_c, 12, 38, 96
1, 68640, Note_on_c, 3, 72, 64
1, 68640, Note_on_c, 6, 74, 44
1, 68640, Note_on_c, 9, 38, 119
1, 68760, Note_on_c, 9, 33, 0
1, 68760, Note_on_c, 9, 69, 0
1, 68760, Note_on_c, 9, 40, 0
1, 68760, Note_on_c, 9, 36, 0
1, 68760, Note_on_c, 9, 38, 0
1, 68880, Note_on_c, 13, 38, 0
1, 68880, Note_on_c, 0, 60, 0
1, 68880, Note_on_c, 3, 72, 0
1, 68880, Note_on_c, 6, 74, 0
1, 68880, Note_on_c, 5, 36, 48
1, 68880, Note_on_c, 9, 69, 64
1, 68880, Note_on_c, 9, 70, 32
1, 68880, Note_on_c, 9, 33, 80
1, 68880, Note_on_c, 0, 62, 64
1, 68880, Note_on_c, 3, 74, 64
1, 68880, Note_on_c, 6, 69, 44
1, 68940, Note_on_c, 9, 70, 0
1, 68940, Note_on_c, 9, 70, 44
1, 69000, Note_on_c, 9, 33, 0
1, 69000, Note_on_c, 9, 70, 0
1, 69000, Note_on_c, 9, 69, 0
1, 69000, Note_on_c, 5, 36, 0
1, 69000, Note_on_c, 9, 70, 60
1, 69060, Note_on_c, 12, 38, 0
1, 69060, Note_on_c, 9, 70, 0
1, 69060, Note_on_c, 9, 70, 68
1, 69120, Note_on_c, 0, 62, 0
1, 69120, Note_on_c, 9, 70, 0
1, 69120, Note_on_c, 15, 64, 0
1, 69120, Note_on_c, 14, 57, 0
1, 69120, Note_on_c, 14, 62, 0
1, 69120, Note_on_c, 14, 55, 0
1, 69120, Note_on_c, 3, 74, 0
1, 69120, Note_on_c, 6, 69, 0
1, 69120, Note_on_c, 14, 55, 20
1, 69120, Note_on_c, 14, 64, 32
1, 69120, Note_on_c, 14, 60, 20
1, 69120, Note_on_c, 15, 64, 40
1, 69120, Note_on_c, 5, 36, 48
1, 69120, Note_on_c, 9, 69, 64
1, 69120, Note_on_c, 9, 35, 80
1, 69120, Note_on_c, 13, 36, 48
1, 69120, Note_on_c, 0, 64, 64
1, 69120, Note_on_c, 12, 36, 96
1, 69120, Note_on_c, 3, 76, 64
1, 69120, Note_on_c, 6, 72, 44
1, 69240, Note_on_c, 9, 69, 0
1, 69240, Note_on_c, 9, 35, 0
1, 69240, Note_on_c, 5, 36, 0
1, 69360, Note_on_c, 0, 64, 0
1, 69360, Note_on_c, 13, 36, 0
1, 69360, Note_on_c, 3, 76, 0
1, 69360, Note_on_c, 6, 72, 0
1, 69360, Note_on_c, 5, 36, 48
1, 69360, Note_on_c, 9, 69, 64
1, 69360, Note_on_c, 9, 53, 32
1, 69360, Note_on_c, 9, 34, 80
1, 69360, Note_on_c, 0, 65, 64
1, 69360, Note_on_c, 3, 77, 64
1, 69360, Note_on_c, 6, 64, 44
1, 69480, Note_on_c, 9, 69, 0
1, 69480, Note_on_c, 9, 53, 0
1, 69480, Note_on_c, 9, 34, 0
1, 69480, Note_on_c, 5, 36, 0
1, 69600, Note_on_c, 0, 65, 0
1, 69600, Note_on_c, 3, 77, 0
1, 69600, Note_on_c, 6, 64, 0
1, 69600, Note_on_c, 9, 36, 64
1, 69600, Note_on_c, 9, 40, 64
1, 69600, Note_on_c, 9, 69, 64
1, 69600, Note_on_c, 9, 33, 80
1, 69600, Note_on_c, 0, 64, 64
1, 69600, Note_on_c, 3, 76, 64
1, 69600, Note_on_c, 6, 72, 44
1, 69600, Note_on_c, 9, 38, 119
1, 69720, Note_on_c, 9, 36, 0
1, 69720, Note_on_c, 9, 40, 0
1, 69720, Note_on_c, 9, 69, 0
1, 69720, Note_on_c, 9, 33, 0
1, 69720, Note_on_c, 9, 38, 0
1, 69780, Note_on_c, 12, 36, 0
1, 69840, Note_on_c, 0, 64, 0
1, 69840, Note_on_c, 3, 76, 0
1, 69840, Note_on_c, 6, 72, 0
1, 69840, Note_on_c, 5, 36, 48
1, 69840, Note_on_c, 9, 69, 64
1, 69840, Note_on_c, 9, 35, 80
1, 69840, Note_on_c, 13, 36, 48
1, 69840, Note_on_c, 0, 62, 64
1, 69840, Note_on_c, 12, 36, 96
1, 69840, Note_on_c, 3, 74, 64
1, 69840, Note_on_c, 6, 64, 44
1, 69960, Note_on_c, 9, 69, 0
1, 69960, Note_on_c, 9, 35, 0
1, 69960, Note_on_c, 5, 36, 0
1, 70020, Note_on_c, 12, 36, 0
1, 70080, Note_on_c, 0, 62, 0
1, 70080, Note_on_c, 13, 36, 0
1, 70080, Note_on_c, 3, 74, 0
1, 70080, Note_on_c, 6, 64, 0
1, 70080, Note_on_c, 5, 36, 48
1, 70080, Note_on_c, 9, 69, 64
1, 70080, Note_on_c, 9, 35, 80
1, 70080, Note_on_c, 13, 36, 48
1, 70080, Note_on_c, 0, 60, 64
1, 70080, Note_on_c, 12, 36, 96
1, 70080, Note_on_c, 3, 72, 64
1, 70080, Note_on_c, 6, 72, 44
1, 70200, Note_on_c, 9, 69, 0
1, 70200, Note_on_c, 9, 35, 0
1, 70200, Note_on_c, 5, 36, 0
1, 70320, Note_on_c, 0, 60, 0
1, 70320, Note_on_c, 13, 36, 0
1, 70320, Note_on_c, 3, 72, 0
1, 70320, Note_on_c, 6, 72, 0
1, 70320, Note_on_c, 5, 36, 48
1, 70320, Note_on_c, 9, 69, 64
1, 70320, Note_on_c, 9, 53, 32
1, 70320, Note_on_c, 9, 34, 80
1, 70320, Note_on_c, 6, 64, 44
1, 70440, Note_on_c, 9, 69, 0
1, 70440, Note_on_c, 9, 53, 0
1, 70440, Note_on_c, 9, 34, 0
1, 70440, Note_on_c, 5, 36, 0
1, 70560, Note_on_c, 6, 64, 0
1, 70560, Note_on_c, 9, 36, 64
1, 70560, Note_on_c, 9, 40, 64
1, 70560, Note_on_c, 9, 69, 64
1, 70560, Note_on_c, 9, 33, 80
1, 70560, Note_on_c, 0, 60, 64
1, 70560, Note_on_c, 3, 72, 64
1, 70560, Note_on_c, 6, 76, 44
1, 70560, Note_on_c, 9, 38, 119
1, 70680, Note_on_c, 9, 36, 0
1, 70680, Note_on_c, 9, 40, 0
1, 70680, Note_on_c, 9, 69, 0
1, 70680, Note_on_c, 9, 33, 0
1, 70680, Note_on_c, 6, 76, 0
1, 70680, Note_on_c, 9, 38, 0
1, 70680, Note_on_c, 6, 77, 44
1, 70800, Note_on_c, 0, 60, 0
1, 70800, Note_on_c, 3, 72, 0
1, 70800, Note_on_c, 6, 77, 0
1, 70800, Note_on_c, 5, 36, 48
1, 70800, Note_on_c, 9, 69, 64
1, 70800, Note_on_c, 9, 35, 80
1, 70800, Note_on_c, 0, 62, 64
1, 70800, Note_on_c, 3, 69, 64
1, 70800, Note_on_c, 6, 76, 44
1, 70920, Note_on_c, 9, 69, 0
1, 70920, Note_on_c, 9, 35, 0
1, 70920, Note_on_c, 5, 36, 0
1, 70920, Note_on_c, 6, 76, 0
1, 70920, Note_on_c, 9, 69, 52
1, 70920, Note_on_c, 6, 74, 44
1, 70980, Note_on_c, 12, 36, 0
1, 71040, Note_on_c, 9, 69, 0
1, 71040, Note_on_c, 3, 69, 0
1, 71040, Note_on_c, 6, 74, 0
1, 71040, Note_on_c, 5, 36, 48
1, 71040, Note_on_c, 9, 69, 80
1, 71040, Note_on_c, 9, 35, 80
1, 71040, Note_on_c, 13, 36, 48
1, 71040, Note_on_c, 12, 36, 96
1, 71040, Note_on_c, 6, 72, 44
1, 71160, Note_on_c, 9, 69, 0
1, 71160, Note_on_c, 9, 35, 0
1, 71160, Note_on_c, 5, 36, 0
1, 71220, Note_on_c, 12, 36, 0
1, 71280, Note_on_c, 0, 62, 0
1, 71280, Note_on_c, 13, 36, 0
1, 71280, Note_on_c, 6, 72, 0
1, 71280, Note_on_c, 5, 36, 48
1, 71280, Note_on_c, 9, 69, 64
1, 71280, Note_on_c, 9, 53, 32
1, 71280, Note_on_c, 9, 34, 80
1, 71280, Note_on_c, 13, 36, 48
1, 71280, Note_on_c, 0, 64, 64
1, 71280, Note_on_c, 12, 36, 96
1, 71280, Note_on_c, 3, 76, 64
1, 71280, Note_on_c, 6, 64, 44
1, 71400, Note_on_c, 9, 69, 0
1, 71400, Note_on_c, 9, 53, 0
1, 71400, Note_on_c, 9, 34, 0
1, 71400, Note_on_c, 5, 36, 0
1, 71520, Note_on_c, 13, 36, 0
1, 71520, Note_on_c, 6, 64, 0
1, 71520, Note_on_c, 9, 36, 64
1, 71520, Note_on_c, 9, 40, 64
1, 71520, Note_on_c, 9, 69, 64
1, 71520, Note_on_c, 9, 33, 80
1, 71520, Note_on_c, 6, 72, 44
1, 71640, Note_on_c, 9, 36, 0
1, 71640, Note_on_c, 9, 40, 0
1, 71640, Note_on_c, 9, 69, 0
1, 71640, Note_on_c, 9, 33, 0
1, 71700, Note_on_c, 12, 36, 0
1, 71760, Note_on_c, 3, 76, 0
1, 71760, Note_on_c, 6, 72, 0
1, 71760, Note_on_c, 5, 36, 48
1, 71760, Note_on_c, 9, 69, 64
1, 71760, Note_on_c, 9, 35, 80
1, 71760, Note_on_c, 13, 36, 48
1, 71760, Note_on_c, 12, 36, 96
1, 71760, Note_on_c, 3, 69, 64
1, 71760, Note_on_c, 6, 64, 44
1, 71880, Note_on_c, 9, 69, 0
1, 71880, Note_on_c, 9, 35, 0
1, 71880, Note_on_c, 5, 36, 0
1, 71940, Note_on_c, 12, 36, 0
1, 72000, Note_on_c, 0, 64, 0
1, 72000, Note_on_c, 13, 36, 0
1, 72000, Note_on_c, 14, 64, 0
1, 72000, Note_on_c, 14, 60, 0
1, 72000, Note_on_c, 3, 69, 0
1, 72000, Note_on_c, 6, 64, 0
1, 72000, Note_on_c, 14, 57, 32
1, 72000, Note_on_c, 14, 62, 20
1, 72000, Note_on_c, 5, 36, 48
1, 72000, Note_on_c, 9, 69, 64
1, 72000, Note_on_c, 9, 35, 80
1, 72000, Note_on_c, 13, 31, 48
1, 72000, Note_on_c, 0, 55, 64
1, 72000, Note_on_c, 12, 31, 96
1, 72000, Note_on_c, 3, 67, 64
1, 72000, Note_on_c, 6, 74, 44
1, 72120, Note_on_c, 9, 69, 0
1, 72120, Note_on_c, 9, 35, 0
1, 72120, Note_on_c, 5, 36, 0
1, 72240, Note_on_c, 13, 31, 0
1, 72240, Note_on_c, 6, 74, 0
1, 72240, Note_on_c, 5, 36, 48
1, 72240, Note_on_c, 9, 69, 64
1, 72240, Note_on_c, 9, 53, 32
1, 72240, Note_on_c, 9, 35, 80
1, 72240, Note_on_c, 6, 69, 44
1, 72360, Note_on_c, 9, 69, 0
1, 72360, Note_on_c, 9, 53, 0
1, 72360, Note_on_c, 9, 35, 0
1, 72360, Note_on_c, 5, 36, 0
1, 72420, Note_on_c, 12, 31, 0
1, 72480, Note_on_c, 0, 55, 0
1, 72480, Note_on_c, 3, 67, 0
1, 72480, Note_on_c, 6, 69, 0
1, 72480, Note_on_c, 9, 36, 64
1, 72480, Note_on_c, 9, 40, 64
1, 72480, Note_on_c, 9, 69, 64
1, 72480, Note_on_c, 9, 33, 80
1, 72480, Note_on_c, 13, 31, 48
1, 72480, Note_on_c, 12, 31, 96
1, 72480, Note_on_c, 0, 60, 64
1, 72480, Note_on_c, 3, 72, 64
1, 72480, Note_on_c, 6, 74, 44
1, 72480, Note_on_c, 9, 38, 119
1, 72600, Note_on_c, 9, 36, 0
1, 72600, Note_on_c, 9, 40, 0
1, 72600, Note_on_c, 9, 69, 0
1, 72600, Note_on_c, 9, 33, 0
1, 72600, Note_on_c, 9, 38, 0
1, 72720, Note_on_c, 0, 60, 0
1, 72720, Note_on_c, 13, 31, 0
1, 72720, Note_on_c, 3, 72, 0
1, 72720, Note_on_c, 6, 74, 0
1, 72720, Note_on_c, 5, 36, 48
1, 72720, Note_on_c, 9, 69, 64
1, 72720, Note_on_c, 9, 70, 32
1, 72720, Note_on_c, 9, 33, 80
1, 72720, Note_on_c, 0, 62, 64
1, 72720, Note_on_c, 3, 74, 64
1, 72720, Note_on_c, 6, 69, 44
1, 72780, Note_on_c, 9, 70, 0
1, 72780, Note_on_c, 9, 70, 44
1, 72840, Note_on_c, 9, 69, 0
1, 72840, Note_on_c, 9, 70, 0
1, 72840, Note_on_c, 9, 33, 0
1, 72840, Note_on_c, 5, 36, 0
1, 72840, Note_on_c, 9, 70, 60
1, 72900, Note_on_c, 12, 31, 0
1, 72900, Note_on_c, 9, 70, 0
1, 72900, Note_on_c, 9, 70, 68
1, 72960, Note_on_c, 0, 62, 0
1, 72960, Note_on_c, 9, 70, 0
1, 72960, Note_on_c, 2, 52, 0
1, 72960, Note_on_c, 15, 64, 0
1, 72960, Note_on_c, 14, 62, 0
1, 72960, Note_on_c, 14, 55, 0
1, 72960, Note_on_c, 14, 57, 0
1, 72960, Note_on_c, 3, 74, 0
1, 72960, Note_on_c, 6, 69, 0
1, 72960, Note_on_c, 14, 55, 20
1, 72960, Note_on_c, 14, 64, 32
1, 72960, Note_on_c, 14, 60, 20
1, 72960, Note_on_c, 15, 64, 40
1, 72960, Note_on_c, 5, 36, 48
1, 72960, Note_on_c, 9, 69, 64
1, 72960, Note_on_c, 2, 52, 52
1, 72960, Note_on_c, 9, 35, 80
1, 72960, Note_on_c, 13, 36, 48
1, 72960, Note_on_c, 0, 64, 64
1, 72960, Note_on_c, 12, 36, 96
1, 72960, Note_on_c, 3, 76, 64
1, 72960, Note_on_c, 6, 72, 44
1, 73080, Note_on_c, 9, 35, 0
1, 73080, Note_on_c, 9, 69, 0
1, 73080, Note_on_c, 5, 36, 0
1, 73200, Note_on_c, 13, 36, 0
1, 73200, Note_on_c, 0, 64, 0
1, 73200, Note_on_c, 3, 76, 0
1, 73200, Note_on_c, 6, 72, 0
1, 73200, Note_on_c, 5, 36, 48
1, 73200, Note_on_c, 9, 69, 64
1, 73200, Note_on_c, 9, 53, 32
1, 73200, Note_on_c, 9, 34, 80
1, 73200, Note_on_c, 0, 65, 64
1, 73200, Note_on_c, 3, 77, 64
1, 73200, Note_on_c, 6, 64, 44
1, 73320, Note_on_c, 9, 34, 0
1, 73320, Note_on_c, 9, 53, 0
1, 73320, Note_on_c, 9, 69, 0
1, 73320, Note_on_c, 5, 36, 0
1, 73440, Note_on_c, 0, 65, 0
1, 73440, Note_on_c, 3, 77, 0
1, 73440, Note_on_c, 6, 64, 0
1, 73440, Note_on_c, 9, 36, 64
1, 73440, Note_on_c, 9, 40, 64
1, 73440, Note_on_c, 9, 69, 64
1, 73440, Note_on_c, 9, 33, 80
1, 73440, Note_on_c, 0, 64, 64
1, 73440, Note_on_c, 3, 76, 64
1, 73440, Note_on_c, 6, 72, 44
1, 73440, Note_on_c, 9, 38, 119
1, 73560, Note_on_c, 9, 33, 0
1, 73560, Note_on_c, 9, 69, 0
1, 73560, Note_on_c, 9, 40, 0
1, 73560, Note_on_c, 9, 36, 0
1, 73560, Note_on_c, 9, 38, 0
1, 73620, Note_on_c, 12, 36, 0
1, 73680, Note_on_c, 0, 64, 0
1, 73680, Note_on_c, 3, 76, 0
1, 73680, Note_on_c, 6, 72, 0
1, 73680, Note_on_c, 5, 36, 48
1, 73680, Note_on_c, 9, 69, 64
1, 73680, Note_on_c, 9, 35, 80
1, 73680, Note_on_c, 13, 36, 48
1, 73680, Note_on_c, 0, 62, 64
1, 73680, Note_on_c, 12, 36, 96
1, 73680, Note_on_c, 3, 74, 64
1, 73680, Note_on_c, 6, 64, 44
1, 73800, Note_on_c, 9, 35, 0
1, 73800, Note_on_c, 9, 69, 0
1, 73800, Note_on_c, 5, 36, 0
1, 73860, Note_on_c, 12, 36, 0
1, 73920, Note_on_c, 13, 36, 0
1, 73920, Note_on_c, 0, 62, 0
1, 73920, Note_on_c, 3, 74, 0
1, 73920, Note_on_c, 6, 64, 0
1, 73920, Note_on_c, 5, 36, 48
1, 73920, Note_on_c, 9, 69, 64
1, 73920, Note_on_c, 9, 35, 80
1, 73920, Note_on_c, 13, 36, 48
1, 73920, Note_on_c, 0, 60, 64
1, 73920, Note_on_c, 12, 36, 96
1, 73920, Note_on_c, 3, 72, 64
1, 73920, Note_on_c, 6, 72, 44
1, 74040, Note_on_c, 9, 35, 0
1, 74040, Note_on_c, 9, 69, 0
1, 74040, Note_on_c, 5, 36, 0
1, 74160, Note_on_c, 13, 36, 0
1, 74160, Note_on_c, 6, 72, 0
1, 74160, Note_on_c, 5, 36, 48
1, 74160, Note_on_c, 9, 69, 64
1, 74160, Note_on_c, 9, 53, 32
1, 74160, Note_on_c, 9, 34, 80
1, 74160, Note_on_c, 6, 64, 44
1, 74280, Note_on_c, 9, 34, 0
1, 74280, Note_on_c, 9, 53, 0
1, 74280, Note_on_c, 9, 69, 0
1, 74280, Note_on_c, 5, 36, 0
1, 74340, Note_on_c, 3, 72, 0
1, 74400, Note_on_c, 0, 60, 0
1, 74400, Note_on_c, 6, 64, 0
1, 74400, Note_on_c, 9, 36, 64
1, 74400, Note_on_c, 9, 40, 64
1, 74400, Note_on_c, 9, 69, 64
1, 74400, Note_on_c, 9, 33, 80
1, 74400, Note_on_c, 0, 60, 64
1, 74400, Note_on_c, 3, 72, 64
1, 74400, Note_on_c, 6, 76, 44
1, 74400, Note_on_c, 9, 38, 119
1, 74520, Note_on_c, 9, 33, 0
1, 74520, Note_on_c, 9, 69, 0
1, 74520, Note_on_c, 9, 40, 0
1, 74520, Note_on_c, 9, 36, 0
1, 74520, Note_on_c, 6, 76, 0
1, 74520, Note_on_c, 9, 38, 0
1, 74520, Note_on_c, 6, 77, 44
1, 74640, Note_on_c, 0, 60, 0
1, 74640, Note_on_c, 3, 72, 0
1, 74640, Note_on_c, 6, 77, 0
1, 74640, Note_on_c, 5, 36, 48
1, 74640, Note_on_c, 9, 69, 64
1, 74640, Note_on_c, 9, 35, 80
1, 74640, Note_on_c, 0, 57, 64
1, 74640, Note_on_c, 3, 69, 64
1, 74640, Note_on_c, 6, 76, 44
1, 74760, Note_on_c, 9, 35, 0
1, 74760, Note_on_c, 9, 69, 0
1, 74760, Note_on_c, 5, 36, 0
1, 74760, Note_on_c, 6, 76, 0
1, 74760, Note_on_c, 9, 69, 52
1, 74760, Note_on_c, 6, 74, 44
1, 74820, Note_on_c, 12, 36, 0
1, 74880, Note_on_c, 9, 69, 0
1, 74880, Note_on_c, 0, 57, 0
1, 74880, Note_on_c, 3, 69, 0
1, 74880, Note_on_c, 6, 74, 0
1, 74880, Note_on_c, 5, 36, 48
1, 74880, Note_on_c, 9, 69, 80
1, 74880, Note_on_c, 9, 35, 80
1, 74880, Note_on_c, 0, 60, 64
1, 74880, Note_on_c, 13, 36, 48
1, 74880, Note_on_c, 12, 36, 96
1, 74880, Note_on_c, 3, 72, 64
1, 74880, Note_on_c, 6, 72, 44
1, 75000, Note_on_c, 9, 35, 0
1, 75000, Note_on_c, 9, 69, 0
1, 75000, Note_on_c, 5, 36, 0
1, 75060, Note_on_c, 12, 36, 0
1, 75120, Note_on_c, 0, 60, 0
1, 75120, Note_on_c, 13, 36, 0
1, 75120, Note_on_c, 6, 72, 0
1, 75120, Note_on_c, 5, 36, 48
1, 75120, Note_on_c, 9, 69, 64
1, 75120, Note_on_c, 9, 53, 32
1, 75120, Note_on_c, 9, 34, 80
1, 75120, Note_on_c, 13, 36, 48
1, 75120, Note_on_c, 12, 36, 96
1, 75120, Note_on_c, 6, 64, 44
1, 75240, Note_on_c, 9, 34, 0
1, 75240, Note_on_c, 9, 53, 0
1, 75240, Note_on_c, 9, 69, 0
1, 75240, Note_on_c, 5, 36, 0
1, 75300, Note_on_c, 3, 72, 0
1, 75360, Note_on_c, 13, 36, 0
1, 75360, Note_on_c, 6, 64, 0
1, 75360, Note_on_c, 9, 36, 64
1, 75360, Note_on_c, 9, 40, 64
1, 75360, Note_on_c, 9, 69, 64
1, 75360, Note_on_c, 9, 33, 80
1, 75360, Note_on_c, 0, 57, 64
1, 75360, Note_on_c, 3, 69, 64
1, 75360, Note_on_c, 6, 72, 44
1, 75360, Note_on_c, 9, 38, 119
1, 75480, Note_on_c, 9, 33, 0
1, 75480, Note_on_c, 9, 69, 0
1, 75480, Note_on_c, 9, 40, 0
1, 75480, Note_on_c, 9, 36, 0
1, 75480, Note_on_c, 9, 38, 0
1, 75540, Note_on_c, 12, 36, 0
1, 75600, Note_on_c, 0, 57, 0
1, 75600, Note_on_c, 3, 69, 0
1, 75600, Note_on_c, 6, 72, 0
1, 75600, Note_on_c, 5, 36, 48
1, 75600, Note_on_c, 9, 69, 64
1, 75600, Note_on_c, 9, 35, 80
1, 75600, Note_on_c, 13, 36, 48
1, 75600, Note_on_c, 0, 62, 64
1, 75600, Note_on_c, 12, 36, 96
1, 75600, Note_on_c, 3, 74, 64
1, 75600, Note_on_c, 6, 64, 44
1, 75720, Note_on_c, 9, 35, 0
1, 75720, Note_on_c, 9, 69, 0
1, 75720, Note_on_c, 5, 36, 0
1, 75780, Note_on_c, 12, 36, 0
1, 75840, Note_on_c, 14, 60, 0
1, 75840, Note_on_c, 14, 64, 0
1, 75840, Note_on_c, 13, 36, 0
1, 75840, Note_on_c, 6, 64, 0
1, 75840, Note_on_c, 14, 57, 32
1, 75840, Note_on_c, 14, 62, 20
1, 75840, Note_on_c, 5, 36, 48
1, 75840, Note_on_c, 9, 69, 64
1, 75840, Note_on_c, 9, 35, 80
1, 75840, Note_on_c, 13, 38, 48
1, 75840, Note_on_c, 12, 38, 96
1, 75840, Note_on_c, 6, 74, 44
1, 75960, Note_on_c, 9, 35, 0
1, 75960, Note_on_c, 9, 69, 0
1, 75960, Note_on_c, 5, 36, 0
1, 76080, Note_on_c, 13, 38, 0
1, 76080, Note_on_c, 3, 74, 0
1, 76080, Note_on_c, 6, 74, 0
1, 76080, Note_on_c, 5, 36, 48
1, 76080, Note_on_c, 9, 69, 64
1, 76080, Note_on_c, 9, 53, 32
1, 76080, Note_on_c, 9, 35, 80
1, 76080, Note_on_c, 3, 76, 64
1, 76080, Note_on_c, 6, 69, 44
1, 76200, Note_on_c, 9, 35, 0
1, 76200, Note_on_c, 9, 53, 0
1, 76200, Note_on_c, 9, 69, 0
1, 76200, Note_on_c, 5, 36, 0
1, 76260, Note_on_c, 12, 38, 0
1, 76320, Note_on_c, 0, 62, 0
1, 76320, Note_on_c, 3, 76, 0
1, 76320, Note_on_c, 6, 69, 0
1, 76320, Note_on_c, 9, 36, 64
1, 76320, Note_on_c, 9, 40, 64
1, 76320, Note_on_c, 9, 69, 64
1, 76320, Note_on_c, 9, 33, 80
1, 76320, Note_on_c, 0, 60, 64
1, 76320, Note_on_c, 13, 38, 48
1, 76320, Note_on_c, 12, 38, 96
1, 76320, Note_on_c, 3, 72, 64
1, 76320, Note_on_c, 6, 74, 44
1, 76440, Note_on_c, 9, 33, 0
1, 76440, Note_on_c, 9, 69, 0
1, 76440, Note_on_c, 9, 40, 0
1, 76440, Note_on_c, 9, 36, 0
1, 76560, Note_on_c, 0, 60, 0
1, 76560, Note_on_c, 13, 38, 0
1, 76560, Note_on_c, 3, 72, 0
1, 76560, Note_on_c, 6, 74, 0
1, 76560, Note_on_c, 5, 36, 48
1, 76560, Note_on_c, 9, 69, 64
1, 76560, Note_on_c, 9, 70, 32
1, 76560, Note_on_c, 9, 33, 80
1, 76560, Note_on_c, 0, 62, 64
1, 76560, Note_on_c, 3, 74, 64
1, 76560, Note_on_c, 6, 69, 44
1, 76620, Note_on_c, 9, 70, 0
1, 76620, Note_on_c, 9, 70, 44
1, 76680, Note_on_c, 9, 33, 0
1, 76680, Note_on_c, 9, 70, 0
1, 76680, Note_on_c, 9, 69, 0
1, 76680, Note_on_c, 5, 36, 0
1, 76680, Note_on_c, 9, 70, 60
1, 76740, Note_on_c, 9, 70, 0
1, 76740, Note_on_c, 12, 38, 0
1, 76740, Note_on_c, 9, 70, 68
1, 76800, Note_on_c, 9, 70, 0
1, 76800, Note_on_c, 15, 64, 0
1, 76800, Note_on_c, 14, 57, 0
1, 76800, Note_on_c, 14, 62, 0
1, 76800, Note_on_c, 14, 55, 0
1, 76800, Note_on_c, 0, 62, 0
1, 76800, Note_on_c, 3, 74, 0
1, 76800, Note_on_c, 6, 69, 0
1, 76800, Note_on_c, 14, 55, 20
1, 76800, Note_on_c, 14, 64, 32
1, 76800, Note_on_c, 14, 60, 20
1, 76800, Note_on_c, 15, 64, 40
1, 76800, Note_on_c, 5, 36, 48
1, 76800, Note_on_c, 9, 69, 64
1, 76800, Note_on_c, 9, 35, 80
1, 76800, Note_on_c, 13, 36, 48
1, 76800, Note_on_c, 0, 64, 64
1, 76800, Note_on_c, 12, 36, 96
1, 76800, Note_on_c, 3, 76, 64
1, 76800, Note_on_c, 6, 72, 44
1, 76920, Note_on_c, 9, 69, 0
1, 76920, Note_on_c, 9, 35, 0
1, 76920, Note_on_c, 5, 36, 0
1, 77040, Note_on_c, 13, 36, 0
1, 77040, Note_on_c, 0, 64, 0
1, 77040, Note_on_c, 3, 76, 0
1, 77040, Note_on_c, 6, 72, 0
1, 77040, Note_on_c, 5, 36, 48
1, 77040, Note_on_c, 9, 69, 64
1, 77040, Note_on_c, 9, 53, 32
1, 77040, Note_on_c, 9, 34, 80
1, 77040, Note_on_c, 0, 65, 64
1, 77040, Note_on_c, 3, 77, 64
1, 77040, Note_on_c, 6, 64, 44
1, 77160, Note_on_c, 9, 69, 0
1, 77160, Note_on_c, 9, 53, 0
1, 77160, Note_on_c, 9, 34, 0
1, 77160, Note_on_c, 5, 36, 0
1, 77280, Note_on_c, 0, 65, 0
1, 77280, Note_on_c, 3, 77, 0
1, 77280, Note_on_c, 6, 64, 0
1, 77280, Note_on_c, 9, 36, 64
1, 77280, Note_on_c, 9, 40, 64
1, 77280, Note_on_c, 9, 69, 64
1, 77280, Note_on_c, 9, 33, 80
1, 77280, Note_on_c, 0, 64, 64
1, 77280, Note_on_c, 3, 76, 64
1, 77280, Note_on_c, 6, 72, 44
1, 77280, Note_on_c, 9, 38, 119
1, 77400, Note_on_c, 9, 36, 0
1, 77400, Note_on_c, 9, 40, 0
1, 77400, Note_on_c, 9, 69, 0
1, 77400, Note_on_c, 9, 33, 0
1, 77400, Note_on_c, 9, 38, 0
1, 77460, Note_on_c, 12, 36, 0
1, 77520, Note_on_c, 0, 64, 0
1, 77520, Note_on_c, 3, 76, 0
1, 77520, Note_on_c, 6, 72, 0
1, 77520, Note_on_c, 5, 36, 48
1, 77520, Note_on_c, 9, 69, 64
1, 77520, Note_on_c, 9, 35, 80
1, 77520, Note_on_c, 13, 36, 48
1, 77520, Note_on_c, 0, 60, 64
1, 77520, Note_on_c, 12, 36, 96
1, 77520, Note_on_c, 3, 74, 64
1, 77520, Note_on_c, 6, 64, 44
1, 77640, Note_on_c, 9, 69, 0
1, 77640, Note_on_c, 9, 35, 0
1, 77640, Note_on_c, 5, 36, 0
1, 77700, Note_on_c, 12, 36, 0
1, 77760, Note_on_c, 13, 36, 0
1, 77760, Note_on_c, 3, 74, 0
1, 77760, Note_on_c, 6, 64, 0
1, 77760, Note_on_c, 5, 36, 48
1, 77760, Note_on_c, 9, 69, 64
1, 77760, Note_on_c, 9, 35, 80
1, 77760, Note_on_c, 13, 36, 48
1, 77760, Note_on_c, 12, 36, 96
1, 77760, Note_on_c, 3, 72, 64
1, 77760, Note_on_c, 6, 72, 44
1, 77880, Note_on_c, 9, 69, 0
1, 77880, Note_on_c, 9, 35, 0
1, 77880, Note_on_c, 5, 36, 0
1, 78000, Note_on_c, 13, 36, 0
1, 78000, Note_on_c, 6, 72, 0
1, 78000, Note_on_c, 5, 36, 48
1, 78000, Note_on_c, 9, 69, 64
1, 78000, Note_on_c, 9, 53, 32
1, 78000, Note_on_c, 9, 34, 80
1, 78000, Note_on_c, 6, 64, 44
1, 78120, Note_on_c, 9, 69, 0
1, 78120, Note_on_c, 9, 53, 0
1, 78120, Note_on_c, 9, 34, 0
1, 78120, Note_on_c, 5, 36, 0
1, 78180, Note_on_c, 3, 72, 0
1, 78240, Note_on_c, 6, 64, 0
1, 78240, Note_on_c, 9, 36, 64
1, 78240, Note_on_c, 9, 40, 64
1, 78240, Note_on_c, 9, 69, 64
1, 78240, Note_on_c, 9, 33, 80
1, 78240, Note_on_c, 3, 72, 64
1, 78240, Note_on_c, 6, 76, 44
1, 78240, Note_on_c, 9, 38, 119
1, 78360, Note_on_c, 9, 36, 0
1, 78360, Note_on_c, 9, 40, 0
1, 78360, Note_on_c, 9, 69, 0
1, 78360, Note_on_c, 9, 33, 0
1, 78360, Note_on_c, 6, 76, 0
1, 78360, Note_on_c, 9, 38, 0
1, 78360, Note_on_c, 6, 77, 44
1, 78480, Note_on_c, 0, 60, 0
1, 78480, Note_on_c, 3, 72, 0
1, 78480, Note_on_c, 6, 77, 0
1, 78480, Note_on_c, 5, 36, 48
1, 78480, Note_on_c, 9, 69, 64
1, 78480, Note_on_c, 9, 35, 80
1, 78480, Note_on_c, 0, 57, 64
1, 78480, Note_on_c, 3, 69, 64
1, 78480, Note_on_c, 6, 76, 44
1, 78600, Note_on_c, 9, 69, 0
1, 78600, Note_on_c, 9, 35, 0
1, 78600, Note_on_c, 5, 36, 0
1, 78600, Note_on_c, 6, 76, 0
1, 78600, Note_on_c, 9, 69, 52
1, 78600, Note_on_c, 6, 74, 44
1, 78660, Note_on_c, 12, 36, 0
1, 78720, Note_on_c, 9, 69, 0
1, 78720, Note_on_c, 6, 74, 0
1, 78720, Note_on_c, 5, 36, 48
1, 78720, Note_on_c, 9, 69, 80
1, 78720, Note_on_c, 9, 35, 80
1, 78720, Note_on_c, 13, 36, 48
1, 78720, Note_on_c, 12, 36, 96
1, 78720, Note_on_c, 6, 72, 44
1, 78840, Note_on_c, 9, 69, 0
1, 78840, Note_on_c, 9, 35, 0
1, 78840, Note_on_c, 5, 36, 0
1, 78900, Note_on_c, 12, 36, 0
1, 78900, Note_on_c, 3, 69, 0
1, 78960, Note_on_c, 13, 36, 0
1, 78960, Note_on_c, 6, 72, 0
1, 78960, Note_on_c, 5, 36, 48
1, 78960, Note_on_c, 9, 69, 64
1, 78960, Note_on_c, 9, 53, 32
1, 78960, Note_on_c, 9, 34, 80
1, 78960, Note_on_c, 13, 36, 48
1, 78960, Note_on_c, 12, 36, 96
1, 78960, Note_on_c, 3, 76, 64
1, 78960, Note_on_c, 6, 64, 44
1, 79080, Note_on_c, 9, 69, 0
1, 79080, Note_on_c, 9, 53, 0
1, 79080, Note_on_c, 9, 34, 0
1, 79080, Note_on_c, 5, 36, 0
1, 79200, Note_on_c, 13, 36, 0
1, 79200, Note_on_c, 6, 64, 0
1, 79200, Note_on_c, 9, 36, 64
1, 79200, Note_on_c, 9, 40, 64
1, 79200, Note_on_c, 9, 69, 64
1, 79200, Note_on_c, 9, 33, 80
1, 79200, Note_on_c, 6, 72, 44
1, 79200, Note_on_c, 9, 38, 119
1, 79320, Note_on_c, 9, 36, 0
1, 79320, Note_on_c, 9, 40, 0
1, 79320, Note_on_c, 9, 69, 0
1, 79320, Note_on_c, 9, 33, 0
1, 79320, Note_on_c, 9, 38, 0
1, 79380, Note_on_c, 12, 36, 0
1, 79440, Note_on_c, 3, 76, 0
1, 79440, Note_on_c, 6, 72, 0
1, 79440, Note_on_c, 5, 36, 48
1, 79440, Note_on_c, 9, 69, 64
1, 79440, Note_on_c, 9, 35, 80
1, 79440, Note_on_c, 13, 36, 48
1, 79440, Note_on_c, 12, 36, 96
1, 79440, Note_on_c, 3, 69, 64
1, 79440, Note_on_c, 6, 64, 44
1, 79560, Note_on_c, 9, 69, 0
1, 79560, Note_on_c, 9, 35, 0
1, 79560, Note_on_c, 5, 36, 0
1, 79620, Note_on_c, 12, 36, 0
1, 79680, Note_on_c, 14, 64, 0
1, 79680, Note_on_c, 14, 60, 0
1, 79680, Note_on_c, 13, 36, 0
1, 79680, Note_on_c, 0, 57, 0
1, 79680, Note_on_c, 3, 69, 0
1, 79680, Note_on_c, 6, 64, 0
1, 79680, Note_on_c, 14, 57, 32
1, 79680, Note_on_c, 14, 62, 20
1, 79680, Note_on_c, 5, 36, 48
1, 79680, Note_on_c, 9, 69, 64
1, 79680, Note_on_c, 9, 35, 80
1, 79680, Note_on_c, 13, 31, 48
1, 79680, Note_on_c, 0, 55, 64
1, 79680, Note_on_c, 12, 31, 96
1, 79680, Note_on_c, 3, 67, 64
1, 79680, Note_on_c, 6, 74, 44
1, 79800, Note_on_c, 9, 69, 0
1, 79800, Note_on_c, 9, 35, 0
1, 79800, Note_on_c, 5, 36, 0
1, 79920, Note_on_c, 13, 31, 0
1, 79920, Note_on_c, 3, 67, 0
1, 79920, Note_on_c, 6, 74, 0
1, 79920, Note_on_c, 5, 36, 48
1, 79920, Note_on_c, 9, 69, 64
1, 79920, Note_on_c, 9, 53, 32
1, 79920, Note_on_c, 9, 35, 80
1, 79920, Note_on_c, 3, 67, 64
1, 79920, Note_on_c, 6, 69, 44
1, 80040, Note_on_c, 9, 69, 0
1, 80040, Note_on_c, 9, 53, 0
1, 80040, Note_on_c, 9, 35, 0
1, 80040, Note_on_c, 5, 36, 0
1, 80100, Note_on_c, 12, 31, 0
1, 80160, Note_on_c, 0, 55, 0
1, 80160, Note_on_c, 3, 67, 0
1, 80160, Note_on_c, 6, 69, 0
1, 80160, Note_on_c, 9, 36, 64
1, 80160, Note_on_c, 9, 40, 64
1, 80160, Note_on_c, 9, 69, 64
1, 80160, Note_on_c, 9, 33, 80
1, 80160, Note_on_c, 13, 31, 80
1, 80160, Note_on_c, 0, 60, 64
1, 80160, Note_on_c, 12, 31, 96
1, 80160, Note_on_c, 3, 72, 64
1, 80160, Note_on_c, 6, 74, 44
1, 80160, Note_on_c, 9, 38, 119
1, 80280, Note_on_c, 9, 36, 0
1, 80280, Note_on_c, 9, 40, 0
1, 80280, Note_on_c, 9, 69, 0
1, 80280, Note_on_c, 9, 33, 0
1, 80280, Note_on_c, 9, 38, 0
1, 80400, Note_on_c, 13, 31, 0
1, 80400, Note_on_c, 0, 60, 0
1, 80400, Note_on_c, 3, 72, 0
1, 80400, Note_on_c, 6, 74, 0
1, 80400, Note_on_c, 5, 36, 48
1, 80400, Note_on_c, 9, 69, 64
1, 80400, Note_on_c, 9, 70, 32
1, 80400, Note_on_c, 9, 33, 80
1, 80400, Note_on_c, 0, 62, 64
1, 80400, Note_on_c, 3, 74, 64
1, 80400, Note_on_c, 6, 69, 44
1, 80460, Note_on_c, 9, 70, 0
1, 80460, Note_on_c, 9, 70, 44
1, 80520, Note_on_c, 9, 69, 0
1, 80520, Note_on_c, 9, 70, 0
1, 80520, Note_on_c, 9, 33, 0
1, 80520, Note_on_c, 5, 36, 0
1, 80520, Note_on_c, 9, 70, 60
1, 80580, Note_on_c, 9, 70, 0
1, 80580, Note_on_c, 12, 31, 0
1, 80580, Note_on_c, 9, 70, 68
1, 80640, Note_on_c, 2, 52, 0
1, 80640, Note_on_c, 15, 64, 0
1, 80640, Note_on_c, 14, 62, 0
1, 80640, Note_on_c, 14, 55, 0
1, 80640, Note_on_c, 14, 57, 0
1, 80640, Note_on_c, 0, 62, 0
1, 80640, Note_on_c, 3, 74, 0
1, 80640, Note_on_c, 6, 69, 0
1, 80640, Note_on_c, 9, 70, 0
1, 80640, Note_on_c, 3, 76, 64
1, 80640, Note_on_c, 0, 64, 64
1, 80640, Note_on_c, 12, 45, 110
1, 80640, Note_on_c, 13, 45, 64
1, 80640, Note_on_c, 9, 69, 64
1, 80640, Note_on_c, 9, 35, 80
1, 80640, Note_on_c, 14, 69, 25
1, 80640, Note_on_c, 14, 62, 18
1, 80760, Note_on_c, 9, 35, 0
1, 80760, Note_on_c, 9, 69, 0
1, 80880, Note_on_c, 13, 45, 0
1, 80880, Note_on_c, 12, 45, 0
1, 80880, Note_on_c, 0, 64, 0
1, 80880, Note_on_c, 3, 76, 0
1, 80880, Note_on_c, 3, 77, 64
1, 80880, Note_on_c, 0, 65, 64
1, 80880, Note_on_c, 9, 69, 64
1, 80880, Note_on_c, 9, 53, 32
1, 80880, Note_on_c, 9, 34, 80
1, 81000, Note_on_c, 9, 34, 0
1, 81000, Note_on_c, 9, 53, 0
1, 81000, Note_on_c, 9, 69, 0
1, 81120, Note_on_c, 0, 65, 0
1, 81120, Note_on_c, 3, 77, 0
1, 81120, Note_on_c, 3, 76, 64
1, 81120, Note_on_c, 0, 64, 64
1, 81120, Note_on_c, 9, 40, 64
1, 81120, Note_on_c, 9, 69, 64
1, 81120, Note_on_c, 9, 33, 80
1, 81120, Note_on_c, 9, 34, 64
1, 81240, Note_on_c, 9, 34, 0
1, 81240, Note_on_c, 9, 33, 0
1, 81240, Note_on_c, 9, 69, 0
1, 81240, Note_on_c, 9, 40, 0
1, 81360, Note_on_c, 14, 62, 0
1, 81360, Note_on_c, 14, 69, 0
1, 81360, Note_on_c, 12, 43, 110
1, 81360, Note_on_c, 13, 43, 64
1, 81360, Note_on_c, 9, 69, 64
1, 81360, Note_on_c, 9, 35, 80
1, 81360, Note_on_c, 14, 67, 25
1, 81360, Note_on_c, 14, 64, 18
1, 81480, Note_on_c, 9, 35, 0
1, 81480, Note_on_c, 9, 69, 0
1, 81600, Note_on_c, 13, 43, 0
1, 81600, Note_on_c, 12, 43, 0
1, 81600, Note_on_c, 0, 64, 0
1, 81600, Note_on_c, 3, 76, 0
1, 81600, Note_on_c, 9, 69, 64
1, 81600, Note_on_c, 9, 35, 80
1, 81720, Note_on_c, 9, 35, 0
1, 81720, Note_on_c, 9, 69, 0
1, 81840, Note_on_c, 3, 67, 64
1, 81840, Note_on_c, 0, 55, 64
1, 81840, Note_on_c, 9, 69, 64
1, 81840, Note_on_c, 9, 53, 32
1, 81840, Note_on_c, 9, 34, 80
1, 81960, Note_on_c, 9, 34, 0
1, 81960, Note_on_c, 9, 53, 0
1, 81960, Note_on_c, 9, 69, 0
1, 82080, Note_on_c, 0, 55, 0
1, 82080, Note_on_c, 3, 67, 0
1, 82080, Note_on_c, 3, 72, 64
1, 82080, Note_on_c, 0, 60, 64
1, 82080, Note_on_c, 9, 36, 64
1, 82080, Note_on_c, 9, 40, 64
1, 82080, Note_on_c, 9, 69, 64
1, 82080, Note_on_c, 9, 33, 80
1, 82200, Note_on_c, 9, 33, 0
1, 82200, Note_on_c, 9, 69, 0
1, 82200, Note_on_c, 9, 40, 0
1, 82200, Note_on_c, 9, 36, 0
1, 82320, Note_on_c, 0, 60, 0
1, 82320, Note_on_c, 3, 72, 0
1, 82320, Note_on_c, 3, 74, 64
1, 82320, Note_on_c, 0, 62, 64
1, 82320, Note_on_c, 9, 69, 64
1, 82320, Note_on_c, 9, 35, 80
1, 82440, Note_on_c, 9, 35, 0
1, 82440, Note_on_c, 9, 69, 0
1, 82440, Note_on_c, 9, 69, 52
1, 82560, Note_on_c, 14, 64, 0
1, 82560, Note_on_c, 14, 67, 0
1, 82560, Note_on_c, 9, 69, 0
1, 82560, Note_on_c, 0, 62, 0
1, 82560, Note_on_c, 3, 74, 0
1, 82560, Note_on_c, 3, 76, 64
1, 82560, Note_on_c, 0, 64, 64
1, 82560, Note_on_c, 12, 36, 110
1, 82560, Note_on_c, 13, 36, 64
1, 82560, Note_on_c, 9, 69, 80
1, 82560, Note_on_c, 9, 35, 80
1, 82560, Note_on_c, 14, 60, 25
1, 82560, Note_on_c, 14, 64, 25
1, 82680, Note_on_c, 9, 35, 0
1, 82680, Note_on_c, 9, 69, 0
1, 82800, Note_on_c, 13, 36, 0
1, 82800, Note_on_c, 12, 36, 0
1, 82800, Note_on_c, 9, 69, 64
1, 82800, Note_on_c, 9, 53, 32
1, 82800, Note_on_c, 9, 34, 80
1, 82920, Note_on_c, 9, 34, 0
1, 82920, Note_on_c, 9, 53, 0
1, 82920, Note_on_c, 9, 69, 0
1, 83040, Note_on_c, 0, 64, 0
1, 83040, Note_on_c, 3, 76, 0
1, 83040, Note_on_c, 3, 77, 64
1, 83040, Note_on_c, 0, 65, 64
1, 83040, Note_on_c, 9, 40, 64
1, 83040, Note_on_c, 9, 69, 64
1, 83040, Note_on_c, 9, 33, 80
1, 83040, Note_on_c, 9, 34, 64
1, 83160, Note_on_c, 9, 34, 0
1, 83160, Note_on_c, 9, 33, 0
1, 83160, Note_on_c, 9, 69, 0
1, 83160, Note_on_c, 9, 40, 0
1, 83280, Note_on_c, 14, 64, 0
1, 83280, Note_on_c, 14, 60, 0
1, 83280, Note_on_c, 0, 65, 0
1, 83280, Note_on_c, 3, 77, 0
1, 83280, Note_on_c, 3, 79, 64
1, 83280, Note_on_c, 0, 67, 64
1, 83280, Note_on_c, 12, 38, 110
1, 83280, Note_on_c, 13, 38, 64
1, 83280, Note_on_c, 9, 69, 64
1, 83280, Note_on_c, 9, 35, 80
1, 83280, Note_on_c, 14, 62, 25
1, 83280, Note_on_c, 14, 57, 25
1, 83400, Note_on_c, 9, 35, 0
1, 83400, Note_on_c, 9, 69, 0
1, 83520, Note_on_c, 13, 38, 0
1, 83520, Note_on_c, 12, 38, 0
1, 83520, Note_on_c, 0, 67, 0
1, 83520, Note_on_c, 3, 79, 0
1, 83520, Note_on_c, 3, 76, 64
1, 83520, Note_on_c, 0, 64, 64
1, 83520, Note_on_c, 9, 69, 64
1, 83520, Note_on_c, 9, 35, 80
1, 83640, Note_on_c, 9, 35, 0
1, 83640, Note_on_c, 9, 69, 0
1, 83760, Note_on_c, 0, 64, 0
1, 83760, Note_on_c, 3, 76, 0
1, 83760, Note_on_c, 9, 69, 64
1, 83760, Note_on_c, 9, 53, 32
1, 83760, Note_on_c, 9, 35, 80
1, 83880, Note_on_c, 9, 35, 0
1, 83880, Note_on_c, 9, 53, 0
1, 83880, Note_on_c, 9, 69, 0
1, 84000, Note_on_c, 3, 74, 64
1, 84000, Note_on_c, 0, 62, 64
1, 84000, Note_on_c, 9, 36, 64
1, 84000, Note_on_c, 9, 40, 64
1, 84000, Note_on_c, 9, 69, 64
1, 84000, Note_on_c, 9, 33, 80
1, 84120, Note_on_c, 9, 33, 0
1, 84120, Note_on_c, 9, 69, 0
1, 84120, Note_on_c, 9, 40, 0
1, 84120, Note_on_c, 9, 36, 0
1, 84240, Note_on_c, 0, 62, 0
1, 84240, Note_on_c, 3, 74, 0
1, 84240, Note_on_c, 9, 69, 64
1, 84240, Note_on_c, 9, 33, 80
1, 84360, Note_on_c, 9, 33, 0
1, 84360, Note_on_c, 9, 69, 0
1, 84480, Note_on_c, 14, 57, 0
1, 84480, Note_on_c, 14, 62, 0
1, 84480, Note_on_c, 3, 72, 64
1, 84480, Note_on_c, 0, 60, 64
1, 84480, Note_on_c, 12, 36, 110
1, 84480, Note_on_c, 13, 36, 80
1, 84480, Note_on_c, 9, 69, 64
1, 84480, Note_on_c, 9, 35, 80
1, 84480, Note_on_c, 14, 64, 64
1, 84480, Note_on_c, 14, 57, 32
1, 84480, Note_on_c, 14, 60, 48
1, 84480, Note_on_c, 6, 64, 15
1, 84600, Note_on_c, 9, 69, 0
1, 84600, Note_on_c, 9, 35, 0
1, 84600, Note_on_c, 6, 64, 0
1, 84600, Note_on_c, 6, 69, 16
1, 84720, Note_on_c, 0, 60, 0
1, 84720, Note_on_c, 3, 72, 0
1, 84720, Note_on_c, 6, 69, 0
1, 84720, Note_on_c, 3, 69, 64
1, 84720, Note_on_c, 0, 57, 64
1, 84720, Note_on_c, 9, 69, 64
1, 84720, Note_on_c, 9, 53, 32
1, 84720, Note_on_c, 9, 34, 80
1, 84720, Note_on_c, 6, 76, 17
1, 84840, Note_on_c, 9, 69, 0
1, 84840, Note_on_c, 9, 53, 0
1, 84840, Note_on_c, 9, 34, 0
1, 84840, Note_on_c, 6, 76, 0
1, 84840, Note_on_c, 6, 64, 18
1, 84960, Note_on_c, 0, 57, 0
1, 84960, Note_on_c, 3, 69, 0
1, 84960, Note_on_c, 6, 64, 0
1, 84960, Note_on_c, 9, 40, 64
1, 84960, Note_on_c, 9, 69, 64
1, 84960, Note_on_c, 9, 33, 80
1, 84960, Note_on_c, 9, 34, 64
1, 84960, Note_on_c, 6, 69, 19
1, 85080, Note_on_c, 9, 40, 0
1, 85080, Note_on_c, 9, 69, 0
1, 85080, Note_on_c, 9, 33, 0
1, 85080, Note_on_c, 9, 34, 0
1, 85080, Note_on_c, 6, 69, 0
1, 85080, Note_on_c, 6, 72, 19
1, 85200, Note_on_c, 12, 36, 0
1, 85200, Note_on_c, 6, 72, 0
1, 85200, Note_on_c, 12, 36, 110
1, 85200, Note_on_c, 9, 69, 64
1, 85200, Note_on_c, 9, 35, 80
1, 85200, Note_on_c, 6, 76, 20
1, 85320, Note_on_c, 9, 69, 0
1, 85320, Note_on_c, 9, 35, 0
1, 85320, Note_on_c, 6, 76, 0
1, 85320, Note_on_c, 6, 64, 21
1, 85440, Note_on_c, 6, 64, 0
1, 85440, Note_on_c, 9, 69, 64
1, 85440, Note_on_c, 9, 35, 80
1, 85440, Note_on_c, 6, 64, 22
1, 85560, Note_on_c, 9, 69, 0
1, 85560, Note_on_c, 9, 35, 0
1, 85560, Note_on_c, 6, 64, 0
1, 85560, Note_on_c, 6, 69, 23
1, 85680, Note_on_c, 6, 69, 0
1, 85680, Note_on_c, 9, 69, 64
1, 85680, Note_on_c, 9, 53, 32
1, 85680, Note_on_c, 9, 34, 80
1, 85680, Note_on_c, 6, 76, 24
1, 85800, Note_on_c, 9, 69, 0
1, 85800, Note_on_c, 9, 53, 0
1, 85800, Note_on_c, 9, 34, 0
1, 85800, Note_on_c, 6, 76, 0
1, 85800, Note_on_c, 6, 64, 25
1, 85920, Note_on_c, 6, 64, 0
1, 85920, Note_on_c, 9, 36, 64
1, 85920, Note_on_c, 9, 40, 64
1, 85920, Note_on_c, 9, 69, 64
1, 85920, Note_on_c, 9, 33, 80
1, 85920, Note_on_c, 6, 69, 26
1, 86040, Note_on_c, 9, 36, 0
1, 86040, Note_on_c, 9, 40, 0
1, 86040, Note_on_c, 9, 69, 0
1, 86040, Note_on_c, 9, 33, 0
1, 86040, Note_on_c, 6, 69, 0
1, 86040, Note_on_c, 6, 72, 27
1, 86160, Note_on_c, 6, 72, 0
1, 86160, Note_on_c, 9, 69, 64
1, 86160, Note_on_c, 9, 35, 80
1, 86160, Note_on_c, 6, 76, 28
1, 86280, Note_on_c, 9, 69, 0
1, 86280, Note_on_c, 9, 35, 0
1, 86280, Note_on_c, 6, 76, 0
1, 86280, Note_on_c, 9, 69, 52
1, 86280, Note_on_c, 6, 64, 29
1, 86400, Note_on_c, 9, 69, 0
1, 86400, Note_on_c, 12, 36, 0
1, 86400, Note_on_c, 6, 64, 0
1, 86400, Note_on_c, 12, 36, 110
1, 86400, Note_on_c, 9, 69, 80
1, 86400, Note_on_c, 9, 35, 80
1, 86400, Note_on_c, 6, 64, 29
1, 86520, Note_on_c, 9, 69, 0
1, 86520, Note_on_c, 9, 35, 0
1, 86520, Note_on_c, 6, 64, 0
1, 86520, Note_on_c, 6, 69, 30
1, 86640, Note_on_c, 6, 69, 0
1, 86640, Note_on_c, 9, 69, 64
1, 86640, Note_on_c, 9, 53, 32
1, 86640, Note_on_c, 9, 34, 80
1, 86640, Note_on_c, 6, 76, 31
1, 86760, Note_on_c, 9, 69, 0
1, 86760, Note_on_c, 9, 53, 0
1, 86760, Note_on_c, 9, 34, 0
1, 86760, Note_on_c, 6, 76, 0
1, 86760, Note_on_c, 6, 64, 32
1, 86880, Note_on_c, 6, 64, 0
1, 86880, Note_on_c, 9, 40, 64
1, 86880, Note_on_c, 9, 69, 64
1, 86880, Note_on_c, 9, 33, 80
1, 86880, Note_on_c, 9, 34, 64
1, 86880, Note_on_c, 6, 69, 33
1, 87000, Note_on_c, 9, 40, 0
1, 87000, Note_on_c, 9, 69, 0
1, 87000, Note_on_c, 9, 33, 0
1, 87000, Note_on_c, 9, 34, 0
1, 87000, Note_on_c, 6, 69, 0
1, 87000, Note_on_c, 6, 72, 34
1, 87120, Note_on_c, 13, 36, 0
1, 87120, Note_on_c, 12, 36, 0
1, 87120, Note_on_c, 6, 72, 0
1, 87120, Note_on_c, 9, 69, 64
1, 87120, Note_on_c, 9, 35, 80
1, 87120, Note_on_c, 12, 38, 110
1, 87120, Note_on_c, 13, 38, 80
1, 87120, Note_on_c, 6, 76, 35
1, 87240, Note_on_c, 9, 69, 0
1, 87240, Note_on_c, 9, 35, 0
1, 87240, Note_on_c, 6, 76, 0
1, 87240, Note_on_c, 6, 64, 36
1, 87360, Note_on_c, 13, 38, 0
1, 87360, Note_on_c, 12, 38, 0
1, 87360, Note_on_c, 6, 64, 0
1, 87360, Note_on_c, 9, 69, 64
1, 87360, Note_on_c, 9, 35, 80
1, 87360, Note_on_c, 6, 64, 37
1, 87480, Note_on_c, 9, 69, 0
1, 87480, Note_on_c, 9, 35, 0
1, 87480, Note_on_c, 6, 64, 0
1, 87480, Note_on_c, 6, 69, 38
1, 87600, Note_on_c, 14, 64, 0
1, 87600, Note_on_c, 14, 57, 0
1, 87600, Note_on_c, 14, 60, 0
1, 87600, Note_on_c, 6, 69, 0
1, 87600, Note_on_c, 3, 67, 64
1, 87600, Note_on_c, 0, 55, 64
1, 87600, Note_on_c, 9, 69, 64
1, 87600, Note_on_c, 9, 53, 32
1, 87600, Note_on_c, 9, 35, 80
1, 87600, Note_on_c, 6, 76, 39
1, 87720, Note_on_c, 9, 69, 0
1, 87720, Note_on_c, 9, 53, 0
1, 87720, Note_on_c, 9, 35, 0
1, 87720, Note_on_c, 6, 76, 0
1, 87720, Note_on_c, 6, 64, 39
1, 87840, Note_on_c, 3, 67, 0
1, 87840, Note_on_c, 0, 55, 0
1, 87840, Note_on_c, 6, 64, 0
1, 87840, Note_on_c, 3, 72, 64
1, 87840, Note_on_c, 0, 60, 64
1, 87840, Note_on_c, 9, 36, 64
1, 87840, Note_on_c, 9, 40, 64
1, 87840, Note_on_c, 9, 69, 64
1, 87840, Note_on_c, 9, 33, 80
1, 87840, Note_on_c, 6, 69, 40
1, 87960, Note_on_c, 9, 36, 0
1, 87960, Note_on_c, 9, 40, 0
1, 87960, Note_on_c, 9, 69, 0
1, 87960, Note_on_c, 9, 33, 0
1, 87960, Note_on_c, 6, 69, 0
1, 87960, Note_on_c, 6, 72, 41
1, 88080, Note_on_c, 3, 72, 0
1, 88080, Note_on_c, 0, 60, 0
1, 88080, Note_on_c, 6, 72, 0
1, 88080, Note_on_c, 3, 74, 64
1, 88080, Note_on_c, 0, 62, 64
1, 88080, Note_on_c, 9, 69, 64
1, 88080, Note_on_c, 9, 33, 80
1, 88080, Note_on_c, 6, 76, 42
1, 88200, Note_on_c, 9, 69, 0
1, 88200, Note_on_c, 9, 33, 0
1, 88200, Note_on_c, 6, 76, 0
1, 88200, Note_on_c, 6, 64, 43
1, 88320, Note_on_c, 3, 74, 0
1, 88320, Note_on_c, 0, 62, 0
1, 88320, Note_on_c, 6, 64, 0
1, 88320, Note_on_c, 3, 76, 64
1, 88320, Note_on_c, 0, 64, 64
1, 88320, Note_on_c, 9, 69, 64
1, 88320, Note_on_c, 9, 35, 80
1, 88320, Note_on_c, 12, 45, 110
1, 88320, Note_on_c, 13, 45, 64
1, 88320, Note_on_c, 14, 69, 25
1, 88320, Note_on_c, 14, 62, 18
1, 88440, Note_on_c, 9, 69, 0
1, 88440, Note_on_c, 9, 35, 0
1, 88560, Note_on_c, 12, 45, 0
1, 88560, Note_on_c, 13, 45, 0
1, 88560, Note_on_c, 3, 76, 0
1, 88560, Note_on_c, 0, 64, 0
1, 88560, Note_on_c, 3, 77, 64
1, 88560, Note_on_c, 0, 65, 64
1, 88560, Note_on_c, 9, 69, 64
1, 88560, Note_on_c, 9, 53, 32
1, 88560, Note_on_c, 9, 34, 80
1, 88680, Note_on_c, 9, 69, 0
1, 88680, Note_on_c, 9, 53, 0
1, 88680, Note_on_c, 9, 34, 0
1, 88800, Note_on_c, 3, 77, 0
1, 88800, Note_on_c, 0, 65, 0
1, 88800, Note_on_c, 3, 76, 64
1, 88800, Note_on_c, 0, 64, 64
1, 88800, Note_on_c, 9, 40, 64
1, 88800, Note_on_c, 9, 69, 64
1, 88800, Note_on_c, 9, 33, 80
1, 88800, Note_on_c, 9, 34, 64
1, 88920, Note_on_c, 9, 40, 0
1, 88920, Note_on_c, 9, 69, 0
1, 88920, Note_on_c, 9, 33, 0
1, 88920, Note_on_c, 9, 34, 0
1, 89040, Note_on_c, 14, 69, 0
1, 89040, Note_on_c, 14, 62, 0
1, 89040, Note_on_c, 9, 69, 64
1, 89040, Note_on_c, 9, 35, 80
1, 89040, Note_on_c, 12, 43, 110
1, 89040, Note_on_c, 13, 43, 64
1, 89040, Note_on_c, 14, 67, 25
1, 89040, Note_on_c, 14, 64, 18
1, 89160, Note_on_c, 9, 69, 0
1, 89160, Note_on_c, 9, 35, 0
1, 89280, Note_on_c, 12, 43, 0
1, 89280, Note_on_c, 13, 43, 0
1, 89280, Note_on_c, 3, 76, 0
1, 89280, Note_on_c, 0, 64, 0
1, 89280, Note_on_c, 9, 69, 64
1, 89280, Note_on_c, 9, 35, 80
1, 89400, Note_on_c, 9, 69, 0
1, 89400, Note_on_c, 9, 35, 0
1, 89520, Note_on_c, 3, 67, 64
1, 89520, Note_on_c, 0, 55, 64
1, 89520, Note_on_c, 9, 69, 64
1, 89520, Note_on_c, 9, 53, 32
1, 89520, Note_on_c, 9, 34, 80
1, 89640, Note_on_c, 9, 69, 0
1, 89640, Note_on_c, 9, 53, 0
1, 89640, Note_on_c, 9, 34, 0
1, 89760, Note_on_c, 3, 67, 0
1, 89760, Note_on_c, 0, 55, 0
1, 89760, Note_on_c, 3, 72, 64
1, 89760, Note_on_c, 0, 60, 64
1, 89760, Note_on_c, 9, 36, 64
1, 89760, Note_on_c, 9, 40, 64
1, 89760, Note_on_c, 9, 69, 64
1, 89760, Note_on_c, 9, 33, 80
1, 89880, Note_on_c, 9, 36, 0
1, 89880, Note_on_c, 9, 40, 0
1, 89880, Note_on_c, 9, 69, 0
1, 89880, Note_on_c, 9, 33, 0
1, 90000, Note_on_c, 3, 72, 0
1, 90000, Note_on_c, 0, 60, 0
1, 90000, Note_on_c, 3, 74, 64
1, 90000, Note_on_c, 0, 62, 64
1, 90000, Note_on_c, 9, 69, 64
1, 90000, Note_on_c, 9, 35, 80
1, 90120, Note_on_c, 9, 69, 0
1, 90120, Note_on_c, 9, 35, 0
1, 90120, Note_on_c, 9, 69, 52
1, 90240, Note_on_c, 14, 67, 0
1, 90240, Note_on_c, 14, 64, 0
1, 90240, Note_on_c, 9, 69, 0
1, 90240, Note_on_c, 3, 74, 0
1, 90240, Note_on_c, 0, 62, 0
1, 90240, Note_on_c, 3, 76, 64
1, 90240, Note_on_c, 0, 64, 64
1, 90240, Note_on_c, 9, 69, 80
1, 90240, Note_on_c, 9, 35, 80
1, 90240, Note_on_c, 12, 36, 110
1, 90240, Note_on_c, 13, 36, 64
1, 90240, Note_on_c, 14, 60, 25
1, 90240, Note_on_c, 14, 64, 25
1, 90360, Note_on_c, 9, 69, 0
1, 90360, Note_on_c, 9, 35, 0
1, 90480, Note_on_c, 12, 36, 0
1, 90480, Note_on_c, 13, 36, 0
1, 90480, Note_on_c, 9, 69, 64
1, 90480, Note_on_c, 9, 53, 32
1, 90480, Note_on_c, 9, 34, 80
1, 90600, Note_on_c, 9, 69, 0
1, 90600, Note_on_c, 9, 53, 0
1, 90600, Note_on_c, 9, 34, 0
1, 90720, Note_on_c, 3, 76, 0
1, 90720, Note_on_c, 0, 64, 0
1, 90720, Note_on_c, 3, 77, 64
1, 90720, Note_on_c, 0, 65, 64
1, 90720, Note_on_c, 9, 40, 64
1, 90720, Note_on_c, 9, 69, 64
1, 90720, Note_on_c, 9, 33, 80
1, 90720, Note_on_c, 9, 34, 64
1, 90840, Note_on_c, 9, 40, 0
1, 90840, Note_on_c, 9, 69, 0
1, 90840, Note_on_c, 9, 33, 0
1, 90840, Note_on_c, 9, 34, 0
1, 90960, Note_on_c, 14, 60, 0
1, 90960, Note_on_c, 14, 64, 0
1, 90960, Note_on_c, 3, 77, 0
1, 90960, Note_on_c, 0, 65, 0
1, 90960, Note_on_c, 3, 79, 64
1, 90960, Note_on_c, 0, 67, 64
1, 90960, Note_on_c, 9, 69, 64
1, 90960, Note_on_c, 9, 35, 80
1, 90960, Note_on_c, 12, 38, 110
1, 90960, Note_on_c, 13, 38, 64
1, 90960, Note_on_c, 14, 62, 25
1, 90960, Note_on_c, 14, 57, 25
1, 91080, Note_on_c, 9, 69, 0
1, 91080, Note_on_c, 9, 35, 0
1, 91200, Note_on_c, 12, 38, 0
1, 91200, Note_on_c, 13, 38, 0
1, 91200, Note_on_c, 3, 79, 0
1, 91200, Note_on_c, 0, 67, 0
1, 91200, Note_on_c, 3, 76, 64
1, 91200, Note_on_c, 0, 64, 64
1, 91200, Note_on_c, 9, 69, 64
1, 91200, Note_on_c, 9, 35, 80
1, 91320, Note_on_c, 9, 69, 0
1, 91320, Note_on_c, 9, 35, 0
1, 91440, Note_on_c, 3, 76, 0
1, 91440, Note_on_c, 0, 64, 0
1, 91440, Note_on_c, 9, 69, 64
1, 91440, Note_on_c, 9, 53, 32
1, 91440, Note_on_c, 9, 35, 80
1, 91560, Note_on_c, 9, 69, 0
1, 91560, Note_on_c, 9, 53, 0
1, 91560, Note_on_c, 9, 35, 0
1, 91680, Note_on_c, 3, 74, 64
1, 91680, Note_on_c, 0, 62, 64
1, 91680, Note_on_c, 9, 36, 64
1, 91680, Note_on_c, 9, 40, 64
1, 91680, Note_on_c, 9, 69, 64
1, 91680, Note_on_c, 9, 33, 80
1, 91800, Note_on_c, 9, 36, 0
1, 91800, Note_on_c, 9, 40, 0
1, 91800, Note_on_c, 9, 69, 0
1, 91800, Note_on_c, 9, 33, 0
1, 91920, Note_on_c, 3, 74, 0
1, 91920, Note_on_c, 0, 62, 0
1, 91920, Note_on_c, 9, 69, 64
1, 91920, Note_on_c, 9, 33, 80
1, 92040, Note_on_c, 9, 69, 0
1, 92040, Note_on_c, 9, 33, 0
1, 92160, Note_on_c, 14, 62, 0
1, 92160, Note_on_c, 14, 57, 0
1, 92160, Note_on_c, 3, 72, 64
1, 92160, Note_on_c, 0, 60, 64
1, 92160, Note_on_c, 9, 69, 64
1, 92160, Note_on_c, 9, 35, 80
1, 92160, Note_on_c, 12, 36, 110
1, 92160, Note_on_c, 13, 36, 80
1, 92160, Note_on_c, 14, 64, 64
1, 92160, Note_on_c, 14, 57, 32
1, 92160, Note_on_c, 14, 60, 48
1, 92160, Note_on_c, 6, 64, 15
1, 92280, Note_on_c, 9, 35, 0
1, 92280, Note_on_c, 9, 69, 0
1, 92280, Note_on_c, 6, 64, 0
1, 92280, Note_on_c, 6, 69, 16
1, 92400, Note_on_c, 3, 72, 0
1, 92400, Note_on_c, 0, 60, 0
1, 92400, Note_on_c, 6, 69, 0
1, 92400, Note_on_c, 3, 69, 64
1, 92400, Note_on_c, 0, 57, 64
1, 92400, Note_on_c, 9, 69, 64
1, 92400, Note_on_c, 9, 53, 32
1, 92400, Note_on_c, 9, 34, 80
1, 92400, Note_on_c, 6, 76, 17
1, 92520, Note_on_c, 9, 34, 0
1, 92520, Note_on_c, 9, 53, 0
1, 92520, Note_on_c, 9, 69, 0
1, 92520, Note_on_c, 6, 76, 0
1, 92520, Note_on_c, 6, 64, 18
1, 92640, Note_on_c, 3, 69, 0
1, 92640, Note_on_c, 0, 57, 0
1, 92640, Note_on_c, 6, 64, 0
1, 92640, Note_on_c, 9, 40, 64
1, 92640, Note_on_c, 9, 69, 64
1, 92640, Note_on_c, 9, 33, 80
1, 92640, Note_on_c, 9, 34, 64
1, 92640, Note_on_c, 6, 69, 19
1, 92760, Note_on_c, 9, 34, 0
1, 92760, Note_on_c, 9, 33, 0
1, 92760, Note_on_c, 9, 69, 0
1, 92760, Note_on_c, 9, 40, 0
1, 92760, Note_on_c, 6, 69, 0
1, 92760, Note_on_c, 6, 72, 19
1, 92880, Note_on_c, 12, 36, 0
1, 92880, Note_on_c, 6, 72, 0
1, 92880, Note_on_c, 9, 69, 64
1, 92880, Note_on_c, 9, 35, 80
1, 92880, Note_on_c, 12, 36, 110
1, 92880, Note_on_c, 6, 76, 20
1, 93000, Note_on_c, 9, 35, 0
1, 93000, Note_on_c, 9, 69, 0
1, 93000, Note_on_c, 6, 76, 0
1, 93000, Note_on_c, 6, 64, 21
1, 93120, Note_on_c, 6, 64, 0
1, 93120, Note_on_c, 9, 69, 64
1, 93120, Note_on_c, 9, 35, 80
1, 93120, Note_on_c, 6, 64, 22
1, 93240, Note_on_c, 9, 35, 0
1, 93240, Note_on_c, 9, 69, 0
1, 93240, Note_on_c, 6, 64, 0
1, 93240, Note_on_c, 6, 69, 23
1, 93360, Note_on_c, 6, 69, 0
1, 93360, Note_on_c, 9, 69, 64
1, 93360, Note_on_c, 9, 53, 32
1, 93360, Note_on_c, 9, 34, 80
1, 93360, Note_on_c, 6, 76, 24
1, 93480, Note_on_c, 9, 34, 0
1, 93480, Note_on_c, 9, 53, 0
1, 93480, Note_on_c, 9, 69, 0
1, 93480, Note_on_c, 6, 76, 0
1, 93480, Note_on_c, 6, 64, 25
1, 93600, Note_on_c, 6, 64, 0
1, 93600, Note_on_c, 9, 36, 64
1, 93600, Note_on_c, 9, 40, 64
1, 93600, Note_on_c, 9, 69, 64
1, 93600, Note_on_c, 9, 33, 80
1, 93600, Note_on_c, 6, 69, 26
1, 93720, Note_on_c, 9, 33, 0
1, 93720, Note_on_c, 9, 69, 0
1, 93720, Note_on_c, 9, 40, 0
1, 93720, Note_on_c, 9, 36, 0
1, 93720, Note_on_c, 6, 69, 0
1, 93720, Note_on_c, 6, 72, 27
1, 93840, Note_on_c, 6, 72, 0
1, 93840, Note_on_c, 9, 69, 64
1, 93840, Note_on_c, 9, 35, 80
1, 93840, Note_on_c, 6, 76, 28
1, 93960, Note_on_c, 9, 35, 0
1, 93960, Note_on_c, 9, 69, 0
1, 93960, Note_on_c, 6, 76, 0
1, 93960, Note_on_c, 9, 69, 52
1, 93960, Note_on_c, 6, 64, 29
1, 94080, Note_on_c, 12, 36, 0
1, 94080, Note_on_c, 9, 69, 0
1, 94080, Note_on_c, 6, 64, 0
1, 94080, Note_on_c, 9, 69, 80
1, 94080, Note_on_c, 9, 35, 80
1, 94080, Note_on_c, 12, 36, 110
1, 94080, Note_on_c, 6, 64, 29
1, 94200, Note_on_c, 9, 35, 0
1, 94200, Note_on_c, 9, 69, 0
1, 94200, Note_on_c, 6, 64, 0
1, 94200, Note_on_c, 6, 69, 30
1, 94320, Note_on_c, 6, 69, 0
1, 94320, Note_on_c, 9, 69, 64
1, 94320, Note_on_c, 9, 53, 32
1, 94320, Note_on_c, 9, 34, 80
1, 94320, Note_on_c, 6, 76, 31
1, 94440, Note_on_c, 9, 34, 0
1, 94440, Note_on_c, 9, 53, 0
1, 94440, Note_on_c, 9, 69, 0
1, 94440, Note_on_c, 6, 76, 0
1, 94440, Note_on_c, 6, 64, 32
1, 94560, Note_on_c, 6, 64, 0
1, 94560, Note_on_c, 9, 40, 64
1, 94560, Note_on_c, 9, 69, 64
1, 94560, Note_on_c, 9, 33, 80
1, 94560, Note_on_c, 9, 34, 64
1, 94560, Note_on_c, 6, 69, 33
1, 94680, Note_on_c, 9, 34, 0
1, 94680, Note_on_c, 9, 33, 0
1, 94680, Note_on_c, 9, 69, 0
1, 94680, Note_on_c, 9, 40, 0
1, 94680, Note_on_c, 6, 69, 0
1, 94680, Note_on_c, 6, 72, 34
1, 94800, Note_on_c, 12, 36, 0
1, 94800, Note_on_c, 13, 36, 0
1, 94800, Note_on_c, 6, 72, 0
1, 94800, Note_on_c, 9, 69, 64
1, 94800, Note_on_c, 9, 35, 80
1, 94800, Note_on_c, 13, 40, 80
1, 94800, Note_on_c, 12, 40, 110
1, 94800, Note_on_c, 6, 76, 35
1, 94920, Note_on_c, 9, 35, 0
1, 94920, Note_on_c, 9, 69, 0
1, 94920, Note_on_c, 6, 76, 0
1, 94920, Note_on_c, 6, 64, 36
1, 95040, Note_on_c, 6, 64, 0
1, 95040, Note_on_c, 9, 69, 64
1, 95040, Note_on_c, 9, 35, 80
1, 95040, Note_on_c, 6, 64, 37
1, 95160, Note_on_c, 9, 35, 0
1, 95160, Note_on_c, 9, 69, 0
1, 95160, Note_on_c, 6, 64, 0
1, 95160, Note_on_c, 6, 69, 38
1, 95280, Note_on_c, 14, 60, 0
1, 95280, Note_on_c, 14, 57, 0
1, 95280, Note_on_c, 14, 64, 0
1, 95280, Note_on_c, 6, 69, 0
1, 95280, Note_on_c, 9, 69, 64
1, 95280, Note_on_c, 9, 53, 32
1, 95280, Note_on_c, 9, 35, 80
1, 95280, Note_on_c, 6, 76, 39
1, 95280, Note_on_c, 3, 69, 96
1, 95280, Note_on_c, 0, 57, 64
1, 95400, Note_on_c, 9, 35, 0
1, 95400, Note_on_c, 9, 53, 0
1, 95400, Note_on_c, 9, 69, 0
1, 95400, Note_on_c, 6, 76, 0
1, 95400, Note_on_c, 6, 64, 39
1, 95520, Note_on_c, 6, 64, 0
1, 95520, Note_on_c, 3, 69, 0
1, 95520, Note_on_c, 0, 57, 0
1, 95520, Note_on_c, 9, 36, 64
1, 95520, Note_on_c, 9, 40, 64
1, 95520, Note_on_c, 9, 69, 64
1, 95520, Note_on_c, 9, 33, 80
1, 95520, Note_on_c, 0, 60, 64
1, 95520, Note_on_c, 3, 72, 96
1, 95520, Note_on_c, 6, 69, 40
1, 95640, Note_on_c, 9, 33, 0
1, 95640, Note_on_c, 9, 69, 0
1, 95640, Note_on_c, 9, 40, 0
1, 95640, Note_on_c, 9, 36, 0
1, 95640, Note_on_c, 6, 69, 0
1, 95640, Note_on_c, 6, 72, 41
1, 95760, Note_on_c, 3, 72, 0
1, 95760, Note_on_c, 0, 60, 0
1, 95760, Note_on_c, 6, 72, 0
1, 95760, Note_on_c, 9, 69, 64
1, 95760, Note_on_c, 9, 33, 80
1, 95760, Note_on_c, 0, 62, 64
1, 95760, Note_on_c, 3, 74, 96
1, 95760, Note_on_c, 9, 46, 64
1, 95880, Note_on_c, 9, 33, 0
1, 95880, Note_on_c, 9, 69, 0
1, 95880, Note_on_c, 9, 46, 0
1, 95880, Note_on_c, 6, 64, 43
1, 96000, Note_on_c, 3, 74, 0
1, 96000, Note_on_c, 0, 62, 0
1, 96000, Note_on_c, 13, 40, 0
1, 96000, Note_on_c, 12, 40, 0
1, 96000, Note_on_c, 6, 64, 0
1, 96000, Control_c, 4, 11, 18
1, 96000, Note_on_c, 4, 76, 52
1, 96000, Note_on_c, 9, 69, 64
1, 96000, Note_on_c, 9, 35, 80
1, 96000, Note_on_c, 14, 64, 22
1, 96000, Note_on_c, 14, 57, 22
1, 96000, Note_on_c, 14, 60, 22
1, 96000, Note_on_c, 3, 76, 96
1, 96000, Note_on_c, 0, 64, 64
1, 96000, Note_on_c, 13, 40, 64
1, 96000, Note_on_c, 12, 40, 112
1, 96011, Control_c, 4, 11, 19
1, 96021, Control_c, 4, 11, 20
1, 96032, Control_c, 4, 11, 21
1, 96042, Control_c, 4, 11, 22
1, 96052, Control_c, 4, 11, 23
1, 96063, Control_c, 4, 11, 24
1, 96073, Control_c, 4, 11, 25
1, 96083, Control_c, 4, 11, 26
1, 96094, Control_c, 4, 11, 27
1, 96104, Control_c, 4, 11, 28
1, 96114, Control_c, 4, 11, 29
1, 96120, Note_on_c, 9, 69, 0
1, 96120, Note_on_c, 9, 35, 0
1, 96125, Control_c, 4, 11, 30
1, 96135, Control_c, 4, 11, 31
1, 96145, Control_c, 4, 11, 32
1, 96156, Control_c, 4, 11, 33
1, 96166, Control_c, 4, 11, 34
1, 96176, Control_c, 4, 11, 35
1, 96187, Control_c, 4, 11, 36
1, 96197, Control_c, 4, 11, 37
1, 96207, Control_c, 4, 11, 38
1, 96218, Control_c, 4, 11, 39
1, 96228, Control_c, 4, 11, 40
1, 96238, Control_c, 4, 11, 41
1, 96240, Note_on_c, 3, 76, 0
1, 96240, Note_on_c, 0, 64, 0
1, 96240, Note_on_c, 9, 69, 64
1, 96240, Note_on_c, 9, 53, 32
1, 96240, Note_on_c, 9, 34, 80
1, 96240, Note_on_c, 3, 77, 96
1, 96240, Note_on_c, 0, 65, 64
1, 96249, Control_c, 4, 11, 42
1, 96259, Control_c, 4, 11, 43
1, 96269, Control_c, 4, 11, 44
1, 96280, Control_c, 4, 11, 45
1, 96290, Control_c, 4, 11, 46
1, 96300, Control_c, 4, 11, 47
1, 96311, Control_c, 4, 11, 48
1, 96321, Control_c, 4, 11, 49
1, 96332, Control_c, 4, 11, 50
1, 96342, Control_c, 4, 11, 51
1, 96352, Control_c, 4, 11, 52
1, 96360, Note_on_c, 9, 69, 0
1, 96360, Note_on_c, 9, 53, 0
1, 96360, Note_on_c, 9, 34, 0
1, 96363, Control_c, 4, 11, 53
1, 96373, Control_c, 4, 11, 54
1, 96383, Control_c, 4, 11, 55
1, 96394, Control_c, 4, 11, 56
1, 96404, Control_c, 4, 11, 57
1, 96414, Control_c, 4, 11, 58
1, 96425, Control_c, 4, 11, 59
1, 96435, Control_c, 4, 11, 60
1, 96445, Control_c, 4, 11, 61
1, 96456, Control_c, 4, 11, 62
1, 96466, Control_c, 4, 11, 63
1, 96476, Control_c, 4, 11, 64
1, 96480, Note_on_c, 3, 77, 0
1, 96480, Note_on_c, 0, 65, 0
1, 96480, Note_on_c, 9, 40, 64
1, 96480, Note_on_c, 9, 69, 64
1, 96480, Note_on_c, 9, 33, 80
1, 96480, Note_on_c, 9, 34, 64
1, 96480, Note_on_c, 3, 76, 96
1, 96480, Note_on_c, 0, 64, 64
1, 96480, Note_on_c, 9, 38, 119
1, 96487, Control_c, 4, 11, 65
1, 96497, Control_c, 4, 11, 66
1, 96507, Control_c, 4, 11, 67
1, 96518, Control_c, 4, 11, 68
1, 96528, Control_c, 4, 11, 69
1, 96538, Control_c, 4, 11, 70
1, 96549, Control_c, 4, 11, 71
1, 96559, Control_c, 4, 11, 72
1, 96569, Control_c, 4, 11, 73
1, 96580, Control_c, 4, 11, 74
1, 96590, Control_c, 4, 11, 75
1, 96600, Control_c, 4, 11, 78
1, 96600, Note_on_c, 9, 40, 0
1, 96600, Note_on_c, 9, 69, 0
1, 96600, Note_on_c, 9, 33, 0
1, 96600, Note_on_c, 9, 34, 0
1, 96600, Note_on_c, 9, 38, 0
1, 96624, Control_c, 4, 11, 79
1, 96648, Control_c, 4, 11, 80
1, 96660, Note_on_c, 13, 40, 0
1, 96660, Note_on_c, 12, 40, 0
1, 96672, Control_c, 4, 11, 81
1, 96696, Control_c, 4, 11, 82
1, 96720, Control_c, 4, 11, 83
1, 96720, Note_on_c, 9, 69, 64
1, 96720, Note_on_c, 9, 35, 80
1, 96720, Note_on_c, 13, 40, 64
1, 96720, Note_on_c, 12, 40, 112
1, 96744, Control_c, 4, 11, 84
1, 96768, Control_c, 4, 11, 85
1, 96792, Control_c, 4, 11, 86
1, 96816, Control_c, 4, 11, 87
1, 96840, Control_c, 4, 11, 88
1, 96840, Note_on_c, 9, 69, 0
1, 96840, Note_on_c, 9, 35, 0
1, 96864, Control_c, 4, 11, 89
1, 96888, Control_c, 4, 11, 90
1, 96912, Control_c, 4, 11, 91
1, 96936, Control_c, 4, 11, 92
1, 96960, Control_c, 4, 11, 93
1, 96960, Note_on_c, 9, 69, 64
1, 96960, Note_on_c, 9, 35, 80
1, 96984, Control_c, 4, 11, 94
1, 97008, Control_c, 4, 11, 95
1, 97032, Control_c, 4, 11, 96
1, 97056, Control_c, 4, 11, 97
1, 97080, Control_c, 4, 11, 98
1, 97080, Note_on_c, 9, 69, 0
1, 97080, Note_on_c, 9, 35, 0
1, 97104, Control_c, 4, 11, 99
1, 97128, Control_c, 4, 11, 100
1, 97152, Control_c, 4, 11, 101
1, 97176, Control_c, 4, 11, 102
1, 97200, Control_c, 4, 11, 103
1, 97200, Note_on_c, 0, 64, 0
1, 97200, Note_on_c, 9, 69, 64
1, 97200, Note_on_c, 9, 53, 32
1, 97200, Note_on_c, 9, 34, 80
1, 97200, Note_on_c, 0, 62, 64
1, 97224, Control_c, 4, 11, 104
1, 97248, Control_c, 4, 11, 105
1, 97272, Control_c, 4, 11, 106
1, 97296, Control_c, 4, 11, 107
1, 97320, Control_c, 4, 11, 108
1, 97320, Note_on_c, 9, 69, 0
1, 97320, Note_on_c, 9, 53, 0
1, 97320, Note_on_c, 9, 34, 0
1, 97380, Control_c, 4, 11, 109
1, 97440, Control_c, 4, 11, 110
1, 97440, Note_on_c, 3, 76, 0
1, 97440, Note_on_c, 9, 36, 64
1, 97440, Note_on_c, 9, 40, 64
1, 97440, Note_on_c, 9, 69, 64
1, 97440, Note_on_c, 9, 33, 80
1, 97440, Note_on_c, 3, 74, 96
1, 97440, Note_on_c, 9, 38, 119
1, 97500, Control_c, 4, 11, 111
1, 97560, Control_c, 4, 11, 112
1, 97560, Note_on_c, 9, 36, 0
1, 97560, Note_on_c, 9, 40, 0
1, 97560, Note_on_c, 9, 69, 0
1, 97560, Note_on_c, 9, 33, 0
1, 97560, Note_on_c, 9, 38, 0
1, 97620, Control_c, 4, 11, 113
1, 97680, Control_c, 4, 11, 114
1, 97680, Note_on_c, 3, 74, 0
1, 97680, Note_on_c, 9, 69, 64
1, 97680, Note_on_c, 9, 35, 80
1, 97680, Note_on_c, 3, 67, 96
1, 97740, Control_c, 4, 11, 115
1, 97800, Control_c, 4, 11, 116
1, 97800, Note_on_c, 9, 69, 0
1, 97800, Note_on_c, 9, 35, 0
1, 97800, Note_on_c, 9, 69, 52
1, 97860, Control_c, 4, 11, 117
1, 97860, Note_on_c, 13, 40, 0
1, 97860, Note_on_c, 12, 40, 0
1, 97920, Control_c, 4, 11, 118
1, 97920, Note_on_c, 9, 69, 0
1, 97920, Note_on_c, 3, 67, 0
1, 97920, Note_on_c, 9, 69, 80
1, 97920, Note_on_c, 9, 35, 80
1, 97920, Note_on_c, 3, 72, 96
1, 97920, Note_on_c, 13, 36, 64
1, 97920, Note_on_c, 12, 36, 112
1, 97980, Control_c, 4, 11, 119
1, 98040, Control_c, 4, 11, 120
1, 98040, Note_on_c, 9, 69, 0
1, 98040, Note_on_c, 9, 35, 0
1, 98100, Control_c, 4, 11, 121
1, 98160, Control_c, 4, 11, 122
1, 98160, Note_on_c, 9, 69, 64
1, 98160, Note_on_c, 9, 53, 32
1, 98160, Note_on_c, 9, 34, 80
1, 98220, Control_c, 4, 11, 123
1, 98280, Control_c, 4, 11, 124
1, 98280, Note_on_c, 9, 69, 0
1, 98280, Note_on_c, 9, 53, 0
1, 98280, Note_on_c, 9, 34, 0
1, 98340, Control_c, 4, 11, 125
1, 98400, Note_on_c, 4, 76, 0
1, 98400, Control_c, 4, 11, 126
1, 98400, Note_on_c, 14, 64, 0
1, 98400, Note_on_c, 14, 57, 0
1, 98400, Note_on_c, 14, 60, 0
1, 98400, Note_on_c, 3, 72, 0
1, 98400, Note_on_c, 0, 62, 0
1, 98400, Note_on_c, 4, 74, 52
1, 98400, Note_on_c, 0, 74, 64
1, 98400, Note_on_c, 9, 40, 64
1, 98400, Note_on_c, 9, 69, 64
1, 98400, Note_on_c, 9, 33, 80
1, 98400, Note_on_c, 9, 34, 64
1, 98400, Note_on_c, 14, 62, 22
1, 98400, Note_on_c, 3, 74, 96
1, 98400, Note_on_c, 9, 38, 119
1, 98520, Note_on_c, 9, 40, 0
1, 98520, Note_on_c, 9, 69, 0
1, 98520, Note_on_c, 9, 33, 0
1, 98520, Note_on_c, 9, 34, 0
1, 98520, Note_on_c, 9, 38, 0
1, 98580, Note_on_c, 13, 36, 0
1, 98580, Note_on_c, 12, 36, 0
1, 98640, Note_on_c, 9, 69, 64
1, 98640, Note_on_c, 9, 35, 80
1, 98640, Note_on_c, 13, 36, 64
1, 98640, Note_on_c, 12, 36, 112
1, 98760, Note_on_c, 9, 69, 0
1, 98760, Note_on_c, 9, 35, 0
1, 98880, Note_on_c, 4, 74, 0
1, 98880, Note_on_c, 0, 74, 0
1, 98880, Note_on_c, 14, 62, 0
1, 98880, Note_on_c, 3, 74, 0
1, 98880, Note_on_c, 4, 67, 52
1, 98880, Note_on_c, 9, 69, 64
1, 98880, Note_on_c, 9, 35, 80
1, 98880, Note_on_c, 0, 72, 64
1, 98880, Note_on_c, 14, 55, 22
1, 99000, Note_on_c, 9, 69, 0
1, 99000, Note_on_c, 9, 35, 0
1, 99120, Note_on_c, 0, 72, 0
1, 99120, Note_on_c, 9, 69, 64
1, 99120, Note_on_c, 9, 53, 32
1, 99120, Note_on_c, 9, 35, 80
1, 99120, Note_on_c, 0, 67, 64
1, 99120, Note_on_c, 3, 67, 96
1, 99240, Note_on_c, 9, 69, 0
1, 99240, Note_on_c, 9, 53, 0
1, 99240, Note_on_c, 9, 35, 0
1, 99360, Note_on_c, 4, 67, 0
1, 99360, Note_on_c, 0, 67, 0
1, 99360, Note_on_c, 14, 55, 0
1, 99360, Note_on_c, 3, 67, 0
1, 99360, Note_on_c, 9, 36, 64
1, 99360, Note_on_c, 9, 40, 64
1, 99360, Note_on_c, 9, 69, 64
1, 99360, Note_on_c, 9, 33, 80
1, 99360, Note_on_c, 0, 76, 64
1, 99360, Note_on_c, 3, 72, 96
1, 99360, Note_on_c, 14, 64, 22
1, 99360, Note_on_c, 14, 60, 22
1, 99360, Note_on_c, 9, 38, 119
1, 99480, Note_on_c, 9, 36, 0
1, 99480, Note_on_c, 9, 40, 0
1, 99480, Note_on_c, 9, 69, 0
1, 99480, Note_on_c, 9, 33, 0
1, 99480, Note_on_c, 9, 38, 0
1, 99600, Note_on_c, 0, 76, 0
1, 99600, Note_on_c, 3, 72, 0
1, 99600, Note_on_c, 9, 69, 64
1, 99600, Note_on_c, 9, 33, 80
1, 99600, Note_on_c, 0, 67, 64
1, 99600, Note_on_c, 3, 74, 96
1, 99720, Note_on_c, 9, 69, 0
1, 99720, Note_on_c, 9, 33, 0
1, 99780, Note_on_c, 13, 36, 0
1, 99780, Note_on_c, 12, 36, 0
1, 99840, Note_on_c, 0, 67, 0
1, 99840, Note_on_c, 3, 74, 0
1, 99840, Note_on_c, 9, 69, 64
1, 99840, Note_on_c, 9, 35, 80
1, 99840, Note_on_c, 3, 76, 96
1, 99840, Note_on_c, 4, 76, 32
1, 99840, Note_on_c, 0, 64, 64
1, 99840, Note_on_c, 13, 31, 64
1, 99840, Note_on_c, 12, 43, 112
1, 99960, Note_on_c, 9, 35, 0
1, 99960, Note_on_c, 9, 69, 0
1, 100080, Note_on_c, 3, 76, 0
1, 100080, Note_on_c, 0, 64, 0
1, 100080, Note_on_c, 9, 69, 64
1, 100080, Note_on_c, 9, 53, 32
1, 100080, Note_on_c, 9, 34, 80
1, 100080, Note_on_c, 3, 77, 96
1, 100080, Note_on_c, 0, 65, 64
1, 100200, Note_on_c, 9, 34, 0
1, 100200, Note_on_c, 9, 53, 0
1, 100200, Note_on_c, 9, 69, 0
1, 100320, Note_on_c, 3, 77, 0
1, 100320, Note_on_c, 0, 65, 0
1, 100320, Note_on_c, 9, 40, 64
1, 100320, Note_on_c, 9, 69, 64
1, 100320, Note_on_c, 9, 33, 80
1, 100320, Note_on_c, 9, 34, 64
1, 100320, Note_on_c, 3, 76, 96
1, 100320, Note_on_c, 0, 64, 64
1, 100320, Note_on_c, 9, 38, 119
1, 100440, Note_on_c, 9, 34, 0
1, 100440, Note_on_c, 9, 33, 0
1, 100440, Note_on_c, 9, 69, 0
1, 100440, Note_on_c, 9, 40, 0
1, 100440, Note_on_c, 9, 38, 0
1, 100500, Note_on_c, 13, 31, 0
1, 100500, Note_on_c, 12, 43, 0
1, 100560, Note_on_c, 9, 69, 64
1, 100560, Note_on_c, 9, 35, 80
1, 100560, Note_on_c, 13, 31, 64
1, 100560, Note_on_c, 12, 43, 112
1, 100680, Note_on_c, 9, 35, 0
1, 100680, Note_on_c, 9, 69, 0
1, 100800, Note_on_c, 14, 64, 0
1, 100800, Note_on_c, 14, 60, 0
1, 100800, Note_on_c, 9, 69, 64
1, 100800, Note_on_c, 9, 35, 80
1, 100800, Note_on_c, 14, 62, 22
1, 100800, Note_on_c, 14, 57, 22
1, 100920, Note_on_c, 9, 35, 0
1, 100920, Note_on_c, 9, 69, 0
1, 101040, Note_on_c, 3, 76, 0
1, 101040, Note_on_c, 9, 69, 64
1, 101040, Note_on_c, 9, 53, 32
1, 101040, Note_on_c, 9, 34, 80
1, 101040, Note_on_c, 3, 81, 96
1, 101160, Note_on_c, 9, 34, 0
1, 101160, Note_on_c, 9, 53, 0
1, 101160, Note_on_c, 9, 69, 0
1, 101280, Note_on_c, 3, 81, 0
1, 101280, Note_on_c, 9, 36, 64
1, 101280, Note_on_c, 9, 40, 64
1, 101280, Note_on_c, 9, 69, 64
1, 101280, Note_on_c, 9, 33, 80
1, 101280, Note_on_c, 9, 38, 119
1, 101400, Note_on_c, 9, 33, 0
1, 101400, Note_on_c, 9, 69, 0
1, 101400, Note_on_c, 9, 40, 0
1, 101400, Note_on_c, 9, 36, 0
1, 101400, Note_on_c, 9, 38, 0
1, 101520, Note_on_c, 9, 69, 64
1, 101520, Note_on_c, 9, 35, 80
1, 101520, Note_on_c, 3, 79, 96
1, 101640, Note_on_c, 9, 35, 0
1, 101640, Note_on_c, 9, 69, 0
1, 101640, Note_on_c, 9, 69, 52
1, 101700, Note_on_c, 13, 31, 0
1, 101700, Note_on_c, 12, 43, 0
1, 101760, Note_on_c, 9, 69, 0
1, 101760, Note_on_c, 14, 62, 0
1, 101760, Note_on_c, 14, 57, 0
1, 101760, Note_on_c, 9, 69, 80
1, 101760, Note_on_c, 9, 35, 80
1, 101760, Note_on_c, 14, 60, 22
1, 101760, Note_on_c, 14, 57, 22
1, 101760, Note_on_c, 13, 36, 64
1, 101760, Note_on_c, 12, 48, 112
1, 101880, Note_on_c, 9, 35, 0
1, 101880, Note_on_c, 9, 69, 0
1, 102000, Note_on_c, 9, 69, 64
1, 102000, Note_on_c, 9, 53, 32
1, 102000, Note_on_c, 9, 34, 80
1, 102120, Note_on_c, 9, 34, 0
1, 102120, Note_on_c, 9, 53, 0
1, 102120, Note_on_c, 9, 69, 0
1, 102240, Note_on_c, 3, 79, 0
1, 102240, Note_on_c, 0, 64, 0
1, 102240, Note_on_c, 9, 40, 64
1, 102240, Note_on_c, 9, 69, 64
1, 102240, Note_on_c, 9, 33, 80
1, 102240, Note_on_c, 9, 34, 64
1, 102240, Note_on_c, 0, 74, 64
1, 102240, Note_on_c, 9, 38, 119
1, 102360, Note_on_c, 9, 34, 0
1, 102360, Note_on_c, 9, 33, 0
1, 102360, Note_on_c, 9, 69, 0
1, 102360, Note_on_c, 9, 40, 0
1, 102360, Note_on_c, 9, 38, 0
1, 102420, Note_on_c, 13, 36, 0
1, 102420, Note_on_c, 12, 48, 0
1, 102480, Note_on_c, 9, 69, 64
1, 102480, Note_on_c, 9, 35, 80
1, 102480, Note_on_c, 13, 36, 64
1, 102480, Note_on_c, 12, 48, 112
1, 102600, Note_on_c, 9, 35, 0
1, 102600, Note_on_c, 9, 69, 0
1, 102720, Note_on_c, 0, 74, 0
1, 102720, Note_on_c, 9, 69, 64
1, 102720, Note_on_c, 9, 35, 80
1, 102720, Note_on_c, 0, 72, 64
1, 102840, Note_on_c, 9, 35, 0
1, 102840, Note_on_c, 9, 69, 0
1, 102960, Note_on_c, 0, 72, 0
1, 102960, Note_on_c, 9, 69, 64
1, 102960, Note_on_c, 9, 53, 32
1, 102960, Note_on_c, 9, 35, 80
1, 102960, Note_on_c, 3, 69, 96
1, 102960, Note_on_c, 0, 69, 64
1, 103080, Note_on_c, 9, 35, 0
1, 103080, Note_on_c, 9, 53, 0
1, 103080, Note_on_c, 9, 69, 0
1, 103200, Note_on_c, 3, 69, 0
1, 103200, Note_on_c, 0, 69, 0
1, 103200, Note_on_c, 9, 36, 64
1, 103200, Note_on_c, 9, 40, 64
1, 103200, Note_on_c, 9, 69, 64
1, 103200, Note_on_c, 9, 33, 80
1, 103200, Note_on_c, 3, 72, 96
1, 103200, Note_on_c, 0, 72, 64
1, 103200, Note_on_c, 9, 38, 119
1, 103320, Note_on_c, 9, 33, 0
1, 103320, Note_on_c, 9, 69, 0
1, 103320, Note_on_c, 9, 40, 0
1, 103320, Note_on_c, 9, 36, 0
1, 103320, Note_on_c, 9, 38, 0
1, 103440, Note_on_c, 3, 72, 0
1, 103440, Note_on_c, 0, 72, 0
1, 103440, Note_on_c, 9, 69, 64
1, 103440, Note_on_c, 9, 33, 80
1, 103440, Note_on_c, 3, 74, 96
1, 103440, Note_on_c, 0, 74, 64
1, 103560, Note_on_c, 9, 33, 0
1, 103560, Note_on_c, 9, 69, 0
1, 103620, Note_on_c, 13, 36, 0
1, 103620, Note_on_c, 12, 48, 0
1, 103680, Note_on_c, 4, 76, 0
1, 103680, Note_on_c, 14, 60, 0
1, 103680, Note_on_c, 14, 57, 0
1, 103680, Note_on_c, 3, 74, 0
1, 103680, Note_on_c, 0, 74, 0
1, 103680, Note_on_c, 4, 76, 52
1, 103680, Note_on_c, 9, 69, 64
1, 103680, Note_on_c, 9, 35, 80
1, 103680, Note_on_c, 14, 64, 22
1, 103680, Note_on_c, 14, 57, 22
1, 103680, Note_on_c, 14, 60, 22
1, 103680, Note_on_c, 3, 76, 96
1, 103680, Note_on_c, 0, 64, 64
1, 103680, Note_on_c, 13, 40, 64
1, 103680, Note_on_c, 12, 40, 112
1, 103800, Note_on_c, 9, 35, 0
1, 103800, Note_on_c, 9, 69, 0
1, 103920, Note_on_c, 0, 64, 0
1, 103920, Note_on_c, 3, 76, 0
1, 103920, Note_on_c, 9, 69, 64
1, 103920, Note_on_c, 9, 53, 32
1, 103920, Note_on_c, 9, 34, 80
1, 103920, Note_on_c, 3, 77, 96
1, 103920, Note_on_c, 0, 65, 64
1, 104040, Note_on_c, 9, 34, 0
1, 104040, Note_on_c, 9, 53, 0
1, 104040, Note_on_c, 9, 69, 0
1, 104160, Note_on_c, 0, 65, 0
1, 104160, Note_on_c, 3, 77, 0
1, 104160, Note_on_c, 9, 40, 64
1, 104160, Note_on_c, 9, 69, 64
1, 104160, Note_on_c, 9, 33, 80
1, 104160, Note_on_c, 9, 34, 64
1, 104160, Note_on_c, 3, 76, 96
1, 104160, Note_on_c, 0, 64, 64
1, 104160, Note_on_c, 9, 38, 119
1, 104280, Note_on_c, 9, 34, 0
1, 104280, Note_on_c, 9, 33, 0
1, 104280, Note_on_c, 9, 69, 0
1, 104280, Note_on_c, 9, 40, 0
1, 104280, Note_on_c, 9, 38, 0
1, 104340, Note_on_c, 12, 40, 0
1, 104340, Note_on_c, 13, 40, 0
1, 104400, Note_on_c, 9, 69, 64
1, 104400, Note_on_c, 9, 35, 80
1, 104400, Note_on_c, 13, 40, 64
1, 104400, Note_on_c, 12, 40, 112
1, 104520, Note_on_c, 9, 35, 0
1, 104520, Note_on_c, 9, 69, 0
1, 104640, Note_on_c, 9, 69, 64
1, 104640, Note_on_c, 9, 35, 80
1, 104760, Note_on_c, 9, 35, 0
1, 104760, Note_on_c, 9, 69, 0
1, 104880, Note_on_c, 0, 64, 0
1, 104880, Note_on_c, 9, 69, 64
1, 104880, Note_on_c, 9, 53, 32
1, 104880, Note_on_c, 9, 34, 80
1, 104880, Note_on_c, 0, 62, 64
1, 105000, Note_on_c, 9, 34, 0
1, 105000, Note_on_c, 9, 53, 0
1, 105000, Note_on_c, 9, 69, 0
1, 105120, Note_on_c, 3, 76, 0
1, 105120, Note_on_c, 9, 36, 64
1, 105120, Note_on_c, 9, 40, 64
1, 105120, Note_on_c, 9, 69, 64
1, 105120, Note_on_c, 9, 33, 80
1, 105120, Note_on_c, 3, 74, 96
1, 105120, Note_on_c, 9, 38, 119
1, 105240, Note_on_c, 9, 33, 0
1, 105240, Note_on_c, 9, 69, 0
1, 105240, Note_on_c, 9, 40, 0
1, 105240, Note_on_c, 9, 36, 0
1, 105240, Note_on_c, 9, 38, 0
1, 105360, Note_on_c, 3, 74, 0
1, 105360, Note_on_c, 9, 69, 64
1, 105360, Note_on_c, 9, 35, 80
1, 105360, Note_on_c, 3, 67, 96
1, 105480, Note_on_c, 9, 35, 0
1, 105480, Note_on_c, 9, 69, 0
1, 105480, Note_on_c, 9, 69, 52
1, 105540, Note_on_c, 12, 40, 0
1, 105540, Note_on_c, 13, 40, 0
1, 105600, Note_on_c, 3, 67, 0
1, 105600, Note_on_c, 9, 69, 0
1, 105600, Note_on_c, 9, 69, 80
1, 105600, Note_on_c, 9, 35, 80
1, 105600, Note_on_c, 3, 72, 96
1, 105600, Note_on_c, 13, 36, 64
1, 105600, Note_on_c, 12, 36, 112
1, 105720, Note_on_c, 9, 35, 0
1, 105720, Note_on_c, 9, 69, 0
1, 105840, Note_on_c, 9, 69, 64
1, 105840, Note_on_c, 9, 53, 32
1, 105840, Note_on_c, 9, 34, 80
1, 105960, Note_on_c, 9, 34, 0
1, 105960, Note_on_c, 9, 53, 0
1, 105960, Note_on_c, 9, 69, 0
1, 106080, Note_on_c, 0, 62, 0
1, 106080, Note_on_c, 3, 72, 0
1, 106080, Note_on_c, 14, 60, 0
1, 106080, Note_on_c, 14, 57, 0
1, 106080, Note_on_c, 14, 64, 0
1, 106080, Note_on_c, 4, 76, 0
1, 106080, Note_on_c, 4, 74, 52
1, 106080, Note_on_c, 0, 74, 64
1, 106080, Note_on_c, 9, 40, 64
1, 106080, Note_on_c, 9, 69, 64
1, 106080, Note_on_c, 9, 33, 80
1, 106080, Note_on_c, 9, 34, 64
1, 106080, Note_on_c, 14, 62, 22
1, 106080, Note_on_c, 3, 74, 96
1, 106080, Note_on_c, 9, 38, 119
1, 106200, Note_on_c, 9, 34, 0
1, 106200, Note_on_c, 9, 33, 0
1, 106200, Note_on_c, 9, 69, 0
1, 106200, Note_on_c, 9, 40, 0
1, 106200, Note_on_c, 9, 38, 0
1, 106260, Note_on_c, 12, 36, 0
1, 106260, Note_on_c, 13, 36, 0
1, 106320, Note_on_c, 9, 69, 64
1, 106320, Note_on_c, 9, 35, 80
1, 106320, Note_on_c, 13, 36, 64
1, 106320, Note_on_c, 12, 36, 112
1, 106440, Note_on_c, 9, 35, 0
1, 106440, Note_on_c, 9, 69, 0
1, 106560, Note_on_c, 3, 74, 0
1, 106560, Note_on_c, 14, 62, 0
1, 106560, Note_on_c, 0, 74, 0
1, 106560, Note_on_c, 4, 74, 0
1, 106560, Note_on_c, 4, 67, 52
1, 106560, Note_on_c, 9, 69, 64
1, 106560, Note_on_c, 9, 35, 80
1, 106560, Note_on_c, 0, 72, 64
1, 106560, Note_on_c, 14, 55, 22
1, 106680, Note_on_c, 9, 35, 0
1, 106680, Note_on_c, 9, 69, 0
1, 106800, Note_on_c, 0, 72, 0
1, 106800, Note_on_c, 9, 69, 64
1, 106800, Note_on_c, 9, 53, 32
1, 106800, Note_on_c, 9, 35, 80
1, 106800, Note_on_c, 0, 67, 64
1, 106800, Note_on_c, 3, 67, 96
1, 106920, Note_on_c, 9, 35, 0
1, 106920, Note_on_c, 9, 53, 0
1, 106920, Note_on_c, 9, 69, 0
1, 107040, Note_on_c, 3, 67, 0
1, 107040, Note_on_c, 14, 55, 0
1, 107040, Note_on_c, 0, 67, 0
1, 107040, Note_on_c, 4, 67, 0
1, 107040, Note_on_c, 9, 36, 64
1, 107040, Note_on_c, 9, 40, 64
1, 107040, Note_on_c, 9, 69, 64
1, 107040, Note_on_c, 9, 33, 80
1, 107040, Note_on_c, 0, 76, 64
1, 107040, Note_on_c, 3, 72, 96
1, 107040, Note_on_c, 14, 64, 22
1, 107040, Note_on_c, 14, 60, 22
1, 107040, Note_on_c, 9, 38, 119
1, 107160, Note_on_c, 9, 33, 0
1, 107160, Note_on_c, 9, 69, 0
1, 107160, Note_on_c, 9, 40, 0
1, 107160, Note_on_c, 9, 36, 0
1, 107160, Note_on_c, 9, 38, 0
1, 107280, Note_on_c, 3, 72, 0
1, 107280, Note_on_c, 0, 76, 0
1, 107280, Note_on_c, 9, 69, 64
1, 107280, Note_on_c, 9, 33, 80
1, 107280, Note_on_c, 0, 67, 64
1, 107280, Note_on_c, 3, 74, 96
1, 107400, Note_on_c, 9, 33, 0
1, 107400, Note_on_c, 9, 69, 0
1, 107460, Note_on_c, 12, 36, 0
1, 107460, Note_on_c, 13, 36, 0
1, 107520, Note_on_c, 3, 74, 0
1, 107520, Note_on_c, 0, 67, 0
1, 107520, Note_on_c, 9, 69, 64
1, 107520, Note_on_c, 9, 35, 80
1, 107520, Note_on_c, 3, 76, 96
1, 107520, Note_on_c, 4, 76, 32
1, 107520, Note_on_c, 0, 64, 64
1, 107520, Note_on_c, 13, 31, 64
1, 107520, Note_on_c, 12, 43, 112
1, 107640, Note_on_c, 9, 69, 0
1, 107640, Note_on_c, 9, 35, 0
1, 107760, Note_on_c, 0, 64, 0
1, 107760, Note_on_c, 3, 76, 0
1, 107760, Note_on_c, 9, 69, 64
1, 107760, Note_on_c, 9, 53, 32
1, 107760, Note_on_c, 9, 34, 80
1, 107760, Note_on_c, 3, 77, 96
1, 107760, Note_on_c, 0, 65, 64
1, 107880, Note_on_c, 9, 69, 0
1, 107880, Note_on_c, 9, 53, 0
1, 107880, Note_on_c, 9, 34, 0
1, 108000, Note_on_c, 0, 65, 0
1, 108000, Note_on_c, 3, 77, 0
1, 108000, Note_on_c, 9, 40, 64
1, 108000, Note_on_c, 9, 69, 64
1, 108000, Note_on_c, 9, 33, 80
1, 108000, Note_on_c, 9, 34, 64
1, 108000, Note_on_c, 3, 76, 96
1, 108000, Note_on_c, 0, 64, 64
1, 108000, Note_on_c, 9, 38, 119
1, 108120, Note_on_c, 9, 40, 0
1, 108120, Note_on_c, 9, 69, 0
1, 108120, Note_on_c, 9, 33, 0
1, 108120, Note_on_c, 9, 34, 0
1, 108120, Note_on_c, 9, 38, 0
1, 108180, Note_on_c, 12, 43, 0
1, 108180, Note_on_c, 13, 31, 0
1, 108240, Note_on_c, 9, 69, 64
1, 108240, Note_on_c, 9, 35, 80
1, 108240, Note_on_c, 13, 31, 64
1, 108240, Note_on_c, 12, 43, 112
1, 108360, Note_on_c, 9, 69, 0
1, 108360, Note_on_c, 9, 35, 0
1, 108480, Note_on_c, 14, 60, 0
1, 108480, Note_on_c, 14, 64, 0
1, 108480, Note_on_c, 9, 69, 64
1, 108480, Note_on_c, 9, 35, 80
1, 108480, Note_on_c, 14, 62, 22
1, 108480, Note_on_c, 14, 57, 22
1, 108600, Note_on_c, 9, 69, 0
1, 108600, Note_on_c, 9, 35, 0
1, 108720, Note_on_c, 3, 76, 0
1, 108720, Note_on_c, 9, 69, 64
1, 108720, Note_on_c, 9, 53, 32
1, 108720, Note_on_c, 9, 34, 80
1, 108720, Note_on_c, 3, 81, 96
1, 108840, Note_on_c, 9, 69, 0
1, 108840, Note_on_c, 9, 53, 0
1, 108840, Note_on_c, 9, 34, 0
1, 108960, Note_on_c, 3, 81, 0
1, 108960, Note_on_c, 9, 36, 64
1, 108960, Note_on_c, 9, 40, 64
1, 108960, Note_on_c, 9, 69, 64
1, 108960, Note_on_c, 9, 33, 80
1, 108960, Note_on_c, 9, 38, 119
1, 109080, Note_on_c, 9, 36, 0
1, 109080, Note_on_c, 9, 40, 0
1, 109080, Note_on_c, 9, 69, 0
1, 109080, Note_on_c, 9, 33, 0
1, 109080, Note_on_c, 9, 38, 0
1, 109200, Note_on_c, 9, 69, 64
1, 109200, Note_on_c, 9, 35, 80
1, 109200, Note_on_c, 3, 79, 96
1, 109320, Note_on_c, 9, 69, 0
1, 109320, Note_on_c, 9, 35, 0
1, 109320, Note_on_c, 9, 69, 52
1, 109380, Note_on_c, 12, 43, 0
1, 109380, Note_on_c, 13, 31, 0
1, 109440, Note_on_c, 14, 57, 0
1, 109440, Note_on_c, 14, 62, 0
1, 109440, Note_on_c, 9, 69, 0
1, 109440, Note_on_c, 9, 69, 80
1, 109440, Note_on_c, 9, 35, 80
1, 109440, Note_on_c, 14, 60, 22
1, 109440, Note_on_c, 14, 57, 22
1, 109440, Note_on_c, 13, 36, 64
1, 109440, Note_on_c, 12, 48, 112
1, 109560, Note_on_c, 9, 69, 0
1, 109560, Note_on_c, 9, 35, 0
1, 109680, Note_on_c, 9, 69, 64
1, 109680, Note_on_c, 9, 53, 32
1, 109680, Note_on_c, 9, 34, 80
1, 109800, Note_on_c, 9, 69, 0
1, 109800, Note_on_c, 9, 53, 0
1, 109800, Note_on_c, 9, 34, 0
1, 109920, Note_on_c, 0, 64, 0
1, 109920, Note_on_c, 3, 79, 0
1, 109920, Note_on_c, 9, 40, 64
1, 109920, Note_on_c, 9, 69, 64
1, 109920, Note_on_c, 9, 33, 80
1, 109920, Note_on_c, 9, 34, 64
1, 109920, Note_on_c, 0, 74, 64
1, 109920, Note_on_c, 9, 38, 119
1, 110040, Note_on_c, 9, 40, 0
1, 110040, Note_on_c, 9, 69, 0
1, 110040, Note_on_c, 9, 33, 0
1, 110040, Note_on_c, 9, 34, 0
1, 110040, Note_on_c, 9, 38, 0
1, 110100, Note_on_c, 12, 48, 0
1, 110100, Note_on_c, 13, 36, 0
1, 110160, Note_on_c, 9, 69, 64
1, 110160, Note_on_c, 9, 35, 80
1, 110160, Note_on_c, 13, 36, 64
1, 110160, Note_on_c, 12, 48, 112
1, 110280, Note_on_c, 9, 69, 0
1, 110280, Note_on_c, 9, 35, 0
1, 110400, Note_on_c, 0, 74, 0
1, 110400, Note_on_c, 9, 69, 64
1, 110400, Note_on_c, 9, 35, 80
1, 110400, Note_on_c, 0, 72, 64
1, 110520, Note_on_c, 9, 69, 0
1, 110520, Note_on_c, 9, 35, 0
1, 110640, Note_on_c, 0, 72, 0
1, 110640, Note_on_c, 9, 69, 64
1, 110640, Note_on_c, 9, 53, 32
1, 110640, Note_on_c, 9, 35, 80
1, 110640, Note_on_c, 0, 67, 64
1, 110760, Note_on_c, 9, 69, 0
1, 110760, Note_on_c, 9, 53, 0
1, 110760, Note_on_c, 9, 35, 0
1, 110880, Note_on_c, 0, 67, 0
1, 110880, Note_on_c, 9, 36, 64
1, 110880, Note_on_c, 9, 40, 64
1, 110880, Note_on_c, 9, 69, 64
1, 110880, Note_on_c, 9, 33, 80
1, 110880, Note_on_c, 0, 69, 64
1, 110880, Note_on_c, 9, 38, 119
1, 110880, Note_on_c, 9, 59, 119
1, 111000, Note_on_c, 9, 36, 0
1, 111000, Note_on_c, 9, 40, 0
1, 111000, Note_on_c, 9, 69, 0
1, 111000, Note_on_c, 9, 33, 0
1, 111000, Note_on_c, 9, 38, 0
1, 111000, Note_on_c, 9, 59, 0
1, 111120, Note_on_c, 0, 69, 0
1, 111120, Note_on_c, 9, 69, 64
1, 111120, Note_on_c, 9, 33, 80
1, 111120, Note_on_c, 9, 46, 64
1, 111240, Note_on_c, 9, 69, 0
1, 111240, Note_on_c, 9, 33, 0
1, 111240, Note_on_c, 9, 46, 0
1, 111300, Note_on_c, 13, 36, 0
1, 111300, Note_on_c, 12, 48, 0
1, 111360, Note_on_c, 14, 57, 0
1, 111360, Note_on_c, 14, 60, 0
1, 111360, Note_on_c, 4, 76, 0
1, 111360, Note_on_c, 9, 69, 64
1, 111360, Note_on_c, 9, 35, 80
1, 111360, Note_on_c, 12, 45, 112
1, 111360, Note_on_c, 13, 45, 64
1, 111360, Note_on_c, 4, 76, 64
1, 111360, Note_on_c, 14, 60, 22
1, 111360, Note_on_c, 14, 57, 22
1, 111480, Note_on_c, 9, 69, 0
1, 111480, Note_on_c, 9, 35, 0
1, 111600, Note_on_c, 9, 69, 64
1, 111600, Note_on_c, 9, 53, 32
1, 111600, Note_on_c, 9, 34, 80
1, 111720, Note_on_c, 9, 69, 0
1, 111720, Note_on_c, 9, 53, 0
1, 111720, Note_on_c, 9, 34, 0
1, 111840, Note_on_c, 9, 40, 64
1, 111840, Note_on_c, 9, 69, 64
1, 111840, Note_on_c, 9, 33, 80
1, 111840, Note_on_c, 9, 34, 64
1, 111960, Note_on_c, 9, 40, 0
1, 111960, Note_on_c, 9, 69, 0
1, 111960, Note_on_c, 9, 33, 0
1, 111960, Note_on_c, 9, 34, 0
1, 112020, Note_on_c, 12, 45, 0
1, 112020, Note_on_c, 13, 45, 0
1, 112080, Note_on_c, 9, 69, 64
1, 112080, Note_on_c, 9, 35, 80
1, 112080, Note_on_c, 12, 45, 112
1, 112080, Note_on_c, 13, 45, 64
1, 112200, Note_on_c, 9, 69, 0
1, 112200, Note_on_c, 9, 35, 0
1, 112320, Note_on_c, 9, 69, 64
1, 112320, Note_on_c, 9, 35, 80
1, 112440, Note_on_c, 9, 69, 0
1, 112440, Note_on_c, 9, 35, 0
1, 112560, Note_on_c, 9, 69, 64
1, 112560, Note_on_c, 9, 53, 32
1, 112560, Note_on_c, 9, 34, 80
1, 112680, Note_on_c, 9, 69, 0
1, 112680, Note_on_c, 9, 53, 0
1, 112680, Note_on_c, 9, 34, 0
1, 112800, Note_on_c, 9, 36, 64
1, 112800, Note_on_c, 9, 40, 64
1, 112800, Note_on_c, 9, 69, 64
1, 112800, Note_on_c, 9, 33, 80
1, 112920, Note_on_c, 9, 36, 0
1, 112920, Note_on_c, 9, 40, 0
1, 112920, Note_on_c, 9, 69, 0
1, 112920, Note_on_c, 9, 33, 0
1, 113040, Note_on_c, 9, 69, 64
1, 113040, Note_on_c, 9, 35, 80
1, 113160, Note_on_c, 9, 69, 0
1, 113160, Note_on_c, 9, 35, 0
1, 113160, Note_on_c, 9, 69, 52
1, 113220, Note_on_c, 12, 45, 0
1, 113220, Note_on_c, 13, 45, 0
1, 113280, Note_on_c, 9, 69, 0
1, 113280, Note_on_c, 4, 76, 0
1, 113280, Note_on_c, 14, 60, 0
1, 113280, Note_on_c, 14, 57, 0
1, 113280, Note_on_c, 9, 69, 80
1, 113280, Note_on_c, 9, 35, 80
1, 113280, Note_on_c, 12, 41, 112
1, 113280, Note_on_c, 13, 41, 64
1, 113280, Note_on_c, 4, 76, 64
1, 113280, Note_on_c, 14, 60, 22
1, 113280, Note_on_c, 14, 57, 22
1, 113400, Note_on_c, 9, 69, 0
1, 113400, Note_on_c, 9, 35, 0
1, 113520, Note_on_c, 9, 69, 64
1, 113520, Note_on_c, 9, 53, 32
1, 113520, Note_on_c, 9, 34, 80
1, 113640, Note_on_c, 9, 69, 0
1, 113640, Note_on_c, 9, 53, 0
1, 113640, Note_on_c, 9, 34, 0
1, 113760, Note_on_c, 4, 76, 0
1, 113760, Note_on_c, 9, 40, 64
1, 113760, Note_on_c, 9, 69, 64
1, 113760, Note_on_c, 9, 33, 80
1, 113760, Note_on_c, 9, 34, 64
1, 113760, Note_on_c, 4, 72, 64
1, 113880, Note_on_c, 9, 40, 0
1, 113880, Note_on_c, 9, 69, 0
1, 113880, Note_on_c, 9, 33, 0
1, 113880, Note_on_c, 9, 34, 0
1, 113940, Note_on_c, 12, 41, 0
1, 113940, Note_on_c, 13, 41, 0
1, 114000, Note_on_c, 4, 72, 0
1, 114000, Note_on_c, 9, 69, 64
1, 114000, Note_on_c, 9, 35, 80
1, 114000, Note_on_c, 12, 41, 112
1, 114000, Note_on_c, 13, 41, 64
1, 114000, Note_on_c, 4, 72, 64
1, 114120, Note_on_c, 9, 69, 0
1, 114120, Note_on_c, 9, 35, 0
1, 114240, Note_on_c, 9, 69, 64
1, 114240, Note_on_c, 9, 35, 80
1, 114360, Note_on_c, 9, 69, 0
1, 114360, Note_on_c, 9, 35, 0
1, 114480, Note_on_c, 9, 69, 64
1, 114480, Note_on_c, 9, 53, 32
1, 114480, Note_on_c, 9, 35, 80
1, 114600, Note_on_c, 9, 69, 0
1, 114600, Note_on_c, 9, 53, 0
1, 114600, Note_on_c, 9, 35, 0
1, 114720, Note_on_c, 9, 36, 64
1, 114720, Note_on_c, 9, 40, 64
1, 114720, Note_on_c, 9, 69, 64
1, 114720, Note_on_c, 9, 33, 80
1, 114840, Note_on_c, 9, 36, 0
1, 114840, Note_on_c, 9, 40, 0
1, 114840, Note_on_c, 9, 69, 0
1, 114840, Note_on_c, 9, 33, 0
1, 114960, Note_on_c, 9, 69, 64
1, 114960, Note_on_c, 9, 33, 80
1, 114960, Note_on_c, 6, 60, 83
1, 115080, Note_on_c, 9, 69, 0
1, 115080, Note_on_c, 9, 33, 0
1, 115080, Pitch_bend_c, 6, 8448
1, 115081, Pitch_bend_c, 6, 8378
1, 115082, Pitch_bend_c, 6, 8308
1, 115083, Pitch_bend_c, 6, 8237
1, 115084, Pitch_bend_c, 6, 8167
1, 115085, Pitch_bend_c, 6, 8096
1, 115086, Pitch_bend_c, 6, 8026
1, 115087, Pitch_bend_c, 6, 7956
1, 115088, Pitch_bend_c, 6, 7885
1, 115089, Pitch_bend_c, 6, 7815
1, 115090, Pitch_bend_c, 6, 7744
1, 115091, Pitch_bend_c, 6, 7674
1, 115092, Pitch_bend_c, 6, 7604
1, 115093, Pitch_bend_c, 6, 7533
1, 115094, Pitch_bend_c, 6, 7463
1, 115095, Pitch_bend_c, 6, 7392
1, 115096, Pitch_bend_c, 6, 7322
1, 115097, Pitch_bend_c, 6, 7252
1, 115098, Pitch_bend_c, 6, 7181
1, 115099, Pitch_bend_c, 6, 7111
1, 115100, Pitch_bend_c, 6, 7040
1, 115101, Pitch_bend_c, 6, 6970
1, 115102, Pitch_bend_c, 6, 6900
1, 115103, Pitch_bend_c, 6, 6829
1, 115104, Pitch_bend_c, 6, 6759
1, 115105, Pitch_bend_c, 6, 6688
1, 115106, Pitch_bend_c, 6, 6618
1, 115107, Pitch_bend_c, 6, 6548
1, 115108, Pitch_bend_c, 6, 6477
1, 115109, Pitch_bend_c, 6, 6407
1, 115110, Pitch_bend_c, 6, 6336
1, 115111, Pitch_bend_c, 6, 6266
1, 115112, Pitch_bend_c, 6, 6196
1, 115113, Pitch_bend_c, 6, 6125
1, 115114, Pitch_bend_c, 6, 6055
1, 115115, Pitch_bend_c, 6, 5984
1, 115116, Pitch_bend_c, 6, 5914
1, 115117, Pitch_bend_c, 6, 5844
1, 115118, Pitch_bend_c, 6, 5773
1, 115119, Pitch_bend_c, 6, 5703
1, 115120, Pitch_bend_c, 6, 5632
1, 115121, Pitch_bend_c, 6, 5562
1, 115122, Pitch_bend_c, 6, 5492
1, 115123, Pitch_bend_c, 6, 5421
1, 115124, Pitch_bend_c, 6, 5351
1, 115125, Pitch_bend_c, 6, 5280
1, 115126, Pitch_bend_c, 6, 5210
1, 115127, Pitch_bend_c, 6, 5140
1, 115128, Pitch_bend_c, 6, 5069
1, 115129, Pitch_bend_c, 6, 4999
1, 115130, Pitch_bend_c, 6, 4928
1, 115131, Pitch_bend_c, 6, 4858
1, 115132, Pitch_bend_c, 6, 4788
1, 115133, Pitch_bend_c, 6, 4717
1, 115134, Pitch_bend_c, 6, 4647
1, 115135, Pitch_bend_c, 6, 4576
1, 115136, Pitch_bend_c, 6, 4506
1, 115137, Pitch_bend_c, 6, 4436
1, 115138, Pitch_bend_c, 6, 4365
1, 115139, Pitch_bend_c, 6, 4295
1, 115140, Note_on_c, 12, 41, 0
1, 115140, Note_on_c, 13, 41, 0
1, 115140, Pitch_bend_c, 6, 4224
1, 115141, Pitch_bend_c, 6, 4154
1, 115142, Pitch_bend_c, 6, 4084
1, 115143, Pitch_bend_c, 6, 4013
1, 115144, Pitch_bend_c, 6, 3943
1, 115145, Pitch_bend_c, 6, 3872
1, 115146, Pitch_bend_c, 6, 3802
1, 115147, Pitch_bend_c, 6, 3732
1, 115148, Pitch_bend_c, 6, 3661
1, 115149, Pitch_bend_c, 6, 3591
1, 115150, Pitch_bend_c, 6, 3520
1, 115151, Pitch_bend_c, 6, 3450
1, 115152, Pitch_bend_c, 6, 3380
1, 115153, Pitch_bend_c, 6, 3309
1, 115154, Pitch_bend_c, 6, 3239
1, 115155, Pitch_bend_c, 6, 3168
1, 115156, Pitch_bend_c, 6, 3098
1, 115157, Pitch_bend_c, 6, 3028
1, 115158, Pitch_bend_c, 6, 2957
1, 115159, Pitch_bend_c, 6, 2887
1, 115160, Pitch_bend_c, 6, 2816
1, 115161, Pitch_bend_c, 6, 2746
1, 115162, Pitch_bend_c, 6, 2676
1, 115163, Pitch_bend_c, 6, 2605
1, 115164, Pitch_bend_c, 6, 2535
1, 115165, Pitch_bend_c, 6, 2464
1, 115166, Pitch_bend_c, 6, 2394
1, 115167, Pitch_bend_c, 6, 2324
1, 115168, Pitch_bend_c, 6, 2253
1, 115169, Pitch_bend_c, 6, 2183
1, 115170, Pitch_bend_c, 6, 2112
1, 115171, Pitch_bend_c, 6, 2042
1, 115172, Pitch_bend_c, 6, 1972
1, 115173, Pitch_bend_c, 6, 1901
1, 115174, Pitch_bend_c, 6, 1831
1, 115175, Pitch_bend_c, 6, 1760
1, 115176, Pitch_bend_c, 6, 1690
1, 115177, Pitch_bend_c, 6, 1620
1, 115178, Pitch_bend_c, 6, 1549
1, 115179, Pitch_bend_c, 6, 1479
1, 115180, Pitch_bend_c, 6, 1408
1, 115181, Pitch_bend_c, 6, 1338
1, 115182, Pitch_bend_c, 6, 1268
1, 115183, Pitch_bend_c, 6, 1197
1, 115184, Pitch_bend_c, 6, 1127
1, 115185, Pitch_bend_c, 6, 1056
1, 115186, Pitch_bend_c, 6, 986
1, 115187, Pitch_bend_c, 6, 916
1, 115188, Pitch_bend_c, 6, 845
1, 115189, Pitch_bend_c, 6, 775
1, 115190, Pitch_bend_c, 6, 704
1, 115191, Pitch_bend_c, 6, 634
1, 115192, Pitch_bend_c, 6, 564
1, 115193, Pitch_bend_c, 6, 493
1, 115194, Pitch_bend_c, 6, 423
1, 115195, Pitch_bend_c, 6, 352
1, 115196, Pitch_bend_c, 6, 282
1, 115197, Pitch_bend_c, 6, 212
1, 115198, Pitch_bend_c, 6, 141
1, 115199, Pitch_bend_c, 6, 71
1, 115200, Note_on_c, 4, 72, 0
1, 115200, Pitch_bend_c, 6, 8192
1, 115200, Note_on_c, 14, 57, 0
1, 115200, Note_on_c, 14, 60, 0
1, 115200, Note_on_c, 6, 60, 0
1, 115200, Note_on_c, 9, 69, 64
1, 115200, Note_on_c, 9, 35, 80
1, 115200, Note_on_c, 12, 38, 112
1, 115200, Note_on_c, 13, 38, 64
1, 115200, Note_on_c, 4, 69, 64
1, 115200, Note_on_c, 6, 60, 80
1, 115200, Note_on_c, 14, 57, 22
1, 115200, Note_on_c, 14, 53, 22
1, 115320, Note_on_c, 9, 35, 0
1, 115320, Note_on_c, 9, 69, 0
1, 115440, Note_on_c, 6, 60, 0
1, 115440, Note_on_c, 9, 69, 64
1, 115440, Note_on_c, 9, 53, 32
1, 115440, Note_on_c, 9, 34, 80
1, 115440, Note_on_c, 6, 60, 88
1, 115560, Note_on_c, 9, 34, 0
1, 115560, Note_on_c, 9, 53, 0
1, 115560, Note_on_c, 9, 69, 0
1, 115680, Note_on_c, 9, 40, 64
1, 115680, Note_on_c, 9, 69, 64
1, 115680, Note_on_c, 9, 33, 80
1, 115680, Note_on_c, 9, 34, 64
1, 115800, Note_on_c, 9, 34, 0
1, 115800, Note_on_c, 9, 33, 0
1, 115800, Note_on_c, 9, 69, 0
1, 115800, Note_on_c, 9, 40, 0
1, 115860, Note_on_c, 12, 38, 0
1, 115860, Note_on_c, 13, 38, 0
1, 115920, Note_on_c, 9, 69, 64
1, 115920, Note_on_c, 9, 35, 80
1, 115920, Note_on_c, 12, 38, 112
1, 115920, Note_on_c, 13, 38, 64
1, 116040, Note_on_c, 9, 35, 0
1, 116040, Note_on_c, 9, 69, 0
1, 116160, Note_on_c, 9, 69, 64
1, 116160, Note_on_c, 9, 35, 80
1, 116280, Note_on_c, 9, 35, 0
1, 116280, Note_on_c, 9, 69, 0
1, 116400, Note_on_c, 9, 69, 64
1, 116400, Note_on_c, 9, 53, 32
1, 116400, Note_on_c, 9, 34, 80
1, 116520, Note_on_c, 9, 34, 0
1, 116520, Note_on_c, 9, 53, 0
1, 116520, Note_on_c, 9, 69, 0
1, 116640, Note_on_c, 9, 36, 64
1, 116640, Note_on_c, 9, 40, 64
1, 116640, Note_on_c, 9, 69, 64
1, 116640, Note_on_c, 9, 33, 80
1, 116760, Note_on_c, 9, 33, 0
1, 116760, Note_on_c, 9, 69, 0
1, 116760, Note_on_c, 9, 40, 0
1, 116760, Note_on_c, 9, 36, 0
1, 116880, Note_on_c, 9, 69, 64
1, 116880, Note_on_c, 9, 35, 80
1, 117000, Note_on_c, 9, 35, 0
1, 117000, Note_on_c, 9, 69, 0
1, 117000, Note_on_c, 9, 69, 52
1, 117060, Note_on_c, 12, 38, 0
1, 117060, Note_on_c, 13, 38, 0
1, 117120, Note_on_c, 9, 69, 0
1, 117120, Note_on_c, 4, 69, 0
1, 117120, Note_on_c, 6, 60, 0
1, 117120, Note_on_c, 14, 57, 0
1, 117120, Note_on_c, 14, 53, 0
1, 117120, Note_on_c, 9, 69, 80
1, 117120, Note_on_c, 9, 35, 80
1, 117120, Note_on_c, 13, 41, 64
1, 117120, Note_on_c, 12, 41, 112
1, 117120, Note_on_c, 14, 50, 22
1, 117120, Note_on_c, 14, 53, 22
1, 117120, Note_on_c, 4, 72, 64
1, 117240, Note_on_c, 9, 35, 0
1, 117240, Note_on_c, 9, 69, 0
1, 117360, Note_on_c, 9, 69, 64
1, 117360, Note_on_c, 9, 53, 32
1, 117360, Note_on_c, 9, 34, 80
1, 117480, Note_on_c, 9, 34, 0
1, 117480, Note_on_c, 9, 53, 0
1, 117480, Note_on_c, 9, 69, 0
1, 117600, Note_on_c, 9, 40, 64
1, 117600, Note_on_c, 9, 69, 64
1, 117600, Note_on_c, 9, 33, 80
1, 117600, Note_on_c, 9, 34, 64
1, 117600, Note_on_c, 6, 69, 83
1, 117720, Note_on_c, 9, 34, 0
1, 117720, Note_on_c, 9, 33, 0
1, 117720, Note_on_c, 9, 69, 0
1, 117720, Note_on_c, 9, 40, 0
1, 117720, Note_on_c, 6, 69, 0
1, 117720, Note_on_c, 6, 72, 85
1, 117780, Note_on_c, 13, 41, 0
1, 117780, Note_on_c, 12, 41, 0
1, 117840, Note_on_c, 9, 69, 64
1, 117840, Note_on_c, 9, 35, 80
1, 117840, Note_on_c, 13, 41, 64
1, 117840, Note_on_c, 12, 41, 112
1, 117960, Note_on_c, 9, 35, 0
1, 117960, Note_on_c, 9, 69, 0
1, 118080, Note_on_c, 6, 72, 0
1, 118080, Note_on_c, 9, 69, 64
1, 118080, Note_on_c, 9, 35, 80
1, 118080, Note_on_c, 6, 74, 91
1, 118200, Note_on_c, 9, 35, 0
1, 118200, Note_on_c, 9, 69, 0
1, 118320, Note_on_c, 9, 69, 64
1, 118320, Note_on_c, 9, 53, 32
1, 118320, Note_on_c, 9, 35, 80
1, 118440, Note_on_c, 9, 35, 0
1, 118440, Note_on_c, 9, 53, 0
1, 118440, Note_on_c, 9, 69, 0
1, 118560, Note_on_c, 9, 36, 64
1, 118560, Note_on_c, 9, 40, 64
1, 118560, Note_on_c, 9, 69, 64
1, 118560, Note_on_c, 9, 33, 80
1, 118680, Note_on_c, 9, 33, 0
1, 118680, Note_on_c, 9, 69, 0
1, 118680, Note_on_c, 9, 40, 0
1, 118680, Note_on_c, 9, 36, 0
1, 118800, Note_on_c, 9, 69, 64
1, 118800, Note_on_c, 9, 33, 80
1, 118920, Note_on_c, 9, 33, 0
1, 118920, Note_on_c, 9, 69, 0
1, 118980, Note_on_c, 13, 41, 0
1, 118980, Note_on_c, 12, 41, 0
1, 119040, Note_on_c, 6, 74, 0
1, 119040, Note_on_c, 9, 69, 64
1, 119040, Note_on_c, 9, 35, 80
1, 119040, Note_on_c, 12, 41, 112
1, 119040, Note_on_c, 13, 41, 64
1, 119160, Note_on_c, 9, 35, 0
1, 119160, Note_on_c, 9, 69, 0
1, 119280, Note_on_c, 9, 69, 64
1, 119280, Note_on_c, 9, 53, 32
1, 119280, Note_on_c, 9, 34, 80
1, 119400, Note_on_c, 9, 34, 0
1, 119400, Note_on_c, 9, 53, 0
1, 119400, Note_on_c, 9, 69, 0
1, 119520, Note_on_c, 9, 40, 64
1, 119520, Note_on_c, 9, 69, 64
1, 119520, Note_on_c, 9, 33, 80
1, 119520, Note_on_c, 9, 34, 64
1, 119640, Note_on_c, 9, 34, 0
1, 119640, Note_on_c, 9, 33, 0
1, 119640, Note_on_c, 9, 69, 0
1, 119640, Note_on_c, 9, 40, 0
1, 119700, Note_on_c, 12, 41, 0
1, 119700, Note_on_c, 13, 41, 0
1, 119760, Note_on_c, 9, 69, 64
1, 119760, Note_on_c, 9, 35, 80
1, 119760, Note_on_c, 12, 41, 112
1, 119760, Note_on_c, 13, 41, 64
1, 119880, Note_on_c, 9, 35, 0
1, 119880, Note_on_c, 9, 69, 0
1, 120000, Note_on_c, 9, 69, 64
1, 120000, Note_on_c, 9, 35, 80
1, 120120, Note_on_c, 9, 35, 0
1, 120120, Note_on_c, 9, 69, 0
1, 120240, Note_on_c, 9, 69, 64
1, 120240, Note_on_c, 9, 53, 32
1, 120240, Note_on_c, 9, 34, 80
1, 120360, Note_on_c, 9, 34, 0
1, 120360, Note_on_c, 9, 53, 0
1, 120360, Note_on_c, 9, 69, 0
1, 120480, Note_on_c, 9, 36, 64
1, 120480, Note_on_c, 9, 40, 64
1, 120480, Note_on_c, 9, 69, 64
1, 120480, Note_on_c, 9, 33, 80
1, 120600, Note_on_c, 9, 33, 0
1, 120600, Note_on_c, 9, 69, 0
1, 120600, Note_on_c, 9, 40, 0
1, 120600, Note_on_c, 9, 36, 0
1, 120720, Note_on_c, 9, 69, 64
1, 120720, Note_on_c, 9, 35, 80
1, 120840, Note_on_c, 9, 35, 0
1, 120840, Note_on_c, 9, 69, 0
1, 120840, Note_on_c, 9, 69, 52
1, 120900, Note_on_c, 12, 41, 0
1, 120900, Note_on_c, 13, 41, 0
1, 120960, Note_on_c, 9, 69, 0
1, 120960, Note_on_c, 14, 50, 0
1, 120960, Note_on_c, 14, 53, 0
1, 120960, Note_on_c, 4, 72, 0
1, 120960, Note_on_c, 9, 69, 80
1, 120960, Note_on_c, 9, 35, 80
1, 120960, Note_on_c, 13, 34, 64
1, 120960, Note_on_c, 12, 34, 112
1, 120960, Note_on_c, 6, 58, 64
1, 120960, Note_on_c, 6, 70, 64
1, 121080, Note_on_c, 9, 35, 0
1, 121080, Note_on_c, 9, 69, 0
1, 121200, Note_on_c, 13, 34, 0
1, 121200, Note_on_c, 12, 34, 0
1, 121200, Note_on_c, 6, 58, 0
1, 121200, Note_on_c, 6, 70, 0
1, 121200, Note_on_c, 9, 69, 64
1, 121200, Note_on_c, 9, 53, 32
1, 121200, Note_on_c, 9, 34, 80
1, 121320, Note_on_c, 9, 34, 0
1, 121320, Note_on_c, 9, 53, 0
1, 121320, Note_on_c, 9, 69, 0
1, 121440, Note_on_c, 9, 40, 64
1, 121440, Note_on_c, 9, 69, 64
1, 121440, Note_on_c, 9, 33, 80
1, 121440, Note_on_c, 9, 34, 64
1, 121440, Note_on_c, 3, 70, 64
1, 121560, Note_on_c, 9, 34, 0
1, 121560, Note_on_c, 9, 33, 0
1, 121560, Note_on_c, 9, 69, 0
1, 121560, Note_on_c, 9, 40, 0
1, 121680, Note_on_c, 3, 70, 0
1, 121680, Note_on_c, 9, 69, 64
1, 121680, Note_on_c, 9, 35, 80
1, 121680, Note_on_c, 12, 36, 112
1, 121680, Note_on_c, 13, 36, 64
1, 121680, Note_on_c, 3, 70, 64
1, 121800, Note_on_c, 9, 35, 0
1, 121800, Note_on_c, 9, 69, 0
1, 121920, Note_on_c, 12, 36, 0
1, 121920, Note_on_c, 13, 36, 0
1, 121920, Note_on_c, 3, 70, 0
1, 121920, Note_on_c, 9, 69, 64
1, 121920, Note_on_c, 9, 35, 80
1, 122040, Note_on_c, 9, 35, 0
1, 122040, Note_on_c, 9, 69, 0
1, 122160, Note_on_c, 9, 69, 64
1, 122160, Note_on_c, 9, 53, 32
1, 122160, Note_on_c, 9, 35, 80
1, 122160, Note_on_c, 3, 70, 64
1, 122280, Note_on_c, 9, 35, 0
1, 122280, Note_on_c, 9, 53, 0
1, 122280, Note_on_c, 9, 69, 0
1, 122400, Note_on_c, 3, 70, 0
1, 122400, Note_on_c, 9, 36, 64
1, 122400, Note_on_c, 9, 40, 64
1, 122400, Note_on_c, 9, 69, 64
1, 122400, Note_on_c, 9, 33, 80
1, 122520, Note_on_c, 9, 33, 0
1, 122520, Note_on_c, 9, 69, 0
1, 122520, Note_on_c, 9, 40, 0
1, 122520, Note_on_c, 9, 36, 0
1, 122640, Note_on_c, 9, 69, 64
1, 122640, Note_on_c, 9, 33, 80
1, 122760, Note_on_c, 9, 33, 0
1, 122760, Note_on_c, 9, 69, 0
1, 122880, Note_on_c, 9, 69, 64
1, 122880, Note_on_c, 9, 35, 80
1, 122880, Note_on_c, 13, 38, 64
1, 122880, Note_on_c, 12, 38, 112
1, 122880, Note_on_c, 3, 70, 64
1, 123000, Note_on_c, 9, 69, 0
1, 123000, Note_on_c, 9, 35, 0
1, 123120, Note_on_c, 13, 38, 0
1, 123120, Note_on_c, 12, 38, 0
1, 123120, Note_on_c, 3, 70, 0
1, 123120, Note_on_c, 9, 69, 64
1, 123120, Note_on_c, 9, 53, 32
1, 123120, Note_on_c, 9, 34, 80
1, 123240, Note_on_c, 9, 69, 0
1, 123240, Note_on_c, 9, 53, 0
1, 123240, Note_on_c, 9, 34, 0
1, 123360, Note_on_c, 9, 40, 64
1, 123360, Note_on_c, 9, 69, 64
1, 123360, Note_on_c, 9, 33, 80
1, 123360, Note_on_c, 9, 34, 64
1, 123360, Note_on_c, 3, 70, 64
1, 123480, Note_on_c, 9, 40, 0
1, 123480, Note_on_c, 9, 69, 0
1, 123480, Note_on_c, 9, 33, 0
1, 123480, Note_on_c, 9, 34, 0
1, 123600, Note_on_c, 3, 70, 0
1, 123600, Note_on_c, 9, 69, 64
1, 123600, Note_on_c, 9, 35, 80
1, 123600, Note_on_c, 12, 36, 112
1, 123600, Note_on_c, 13, 36, 64
1, 123720, Note_on_c, 9, 69, 0
1, 123720, Note_on_c, 9, 35, 0
1, 123840, Note_on_c, 12, 36, 0
1, 123840, Note_on_c, 13, 36, 0
1, 123840, Note_on_c, 9, 69, 64
1, 123840, Note_on_c, 9, 35, 80
1, 123840, Note_on_c, 3, 70, 64
1, 123960, Note_on_c, 9, 69, 0
1, 123960, Note_on_c, 9, 35, 0
1, 124080, Note_on_c, 3, 70, 0
1, 124080, Note_on_c, 9, 69, 64
1, 124080, Note_on_c, 9, 53, 32
1, 124080, Note_on_c, 9, 34, 80
1, 124080, Note_on_c, 3, 72, 64
1, 124200, Note_on_c, 9, 69, 0
1, 124200, Note_on_c, 9, 53, 0
1, 124200, Note_on_c, 9, 34, 0
1, 124320, Note_on_c, 3, 72, 0
1, 124320, Note_on_c, 9, 36, 64
1, 124320, Note_on_c, 9, 40, 64
1, 124320, Note_on_c, 9, 69, 64
1, 124320, Note_on_c, 9, 33, 80
1, 124320, Note_on_c, 3, 74, 64
1, 124440, Note_on_c, 9, 36, 0
1, 124440, Note_on_c, 9, 40, 0
1, 124440, Note_on_c, 9, 69, 0
1, 124440, Note_on_c, 9, 33, 0
1, 124560, Note_on_c, 3, 74, 0
1, 124560, Note_on_c, 9, 69, 64
1, 124560, Note_on_c, 9, 35, 80
1, 124680, Note_on_c, 9, 69, 0
1, 124680, Note_on_c, 9, 35, 0
1, 124680, Note_on_c, 9, 69, 52
1, 124800, Note_on_c, 9, 69, 0
1, 124800, Note_on_c, 9, 69, 80
1, 124800, Note_on_c, 9, 35, 80
1, 124800, Note_on_c, 13, 34, 64
1, 124800, Note_on_c, 12, 34, 112
1, 124800, Note_on_c, 6, 58, 64
1, 124800, Note_on_c, 0, 58, 64
1, 124920, Note_on_c, 9, 69, 0
1, 124920, Note_on_c, 9, 35, 0
1, 124920, Note_on_c, 6, 58, 0
1, 124920, Note_on_c, 0, 58, 0
1, 125040, Note_on_c, 12, 34, 0
1, 125040, Note_on_c, 13, 34, 0
1, 125040, Note_on_c, 9, 69, 64
1, 125040, Note_on_c, 9, 53, 32
1, 125040, Note_on_c, 9, 34, 80
1, 125160, Note_on_c, 9, 69, 0
1, 125160, Note_on_c, 9, 53, 0
1, 125160, Note_on_c, 9, 34, 0
1, 125280, Note_on_c, 9, 40, 64
1, 125280, Note_on_c, 9, 69, 64
1, 125280, Note_on_c, 9, 33, 80
1, 125280, Note_on_c, 9, 34, 64
1, 125280, Note_on_c, 3, 70, 64
1, 125400, Note_on_c, 9, 40, 0
1, 125400, Note_on_c, 9, 69, 0
1, 125400, Note_on_c, 9, 33, 0
1, 125400, Note_on_c, 9, 34, 0
1, 125520, Note_on_c, 3, 70, 0
1, 125520, Note_on_c, 9, 69, 64
1, 125520, Note_on_c, 9, 35, 80
1, 125520, Note_on_c, 12, 36, 112
1, 125520, Note_on_c, 13, 36, 64
1, 125520, Note_on_c, 6, 60, 64
1, 125520, Note_on_c, 0, 60, 64
1, 125640, Note_on_c, 9, 69, 0
1, 125640, Note_on_c, 9, 35, 0
1, 125640, Note_on_c, 6, 60, 0
1, 125640, Note_on_c, 0, 60, 0
1, 125760, Note_on_c, 13, 36, 0
1, 125760, Note_on_c, 12, 36, 0
1, 125760, Note_on_c, 9, 69, 64
1, 125760, Note_on_c, 9, 35, 80
1, 125760, Note_on_c, 3, 70, 64
1, 125880, Note_on_c, 9, 69, 0
1, 125880, Note_on_c, 9, 35, 0
1, 126000, Note_on_c, 3, 70, 0
1, 126000, Note_on_c, 9, 69, 64
1, 126000, Note_on_c, 9, 53, 32
1, 126000, Note_on_c, 9, 35, 80
1, 126120, Note_on_c, 9, 69, 0
1, 126120, Note_on_c, 9, 53, 0
1, 126120, Note_on_c, 9, 35, 0
1, 126240, Note_on_c, 9, 36, 64
1, 126240, Note_on_c, 9, 40, 64
1, 126240, Note_on_c, 9, 69, 64
1, 126240, Note_on_c, 9, 33, 80
1, 126240, Note_on_c, 3, 70, 64
1, 126360, Note_on_c, 9, 36, 0
1, 126360, Note_on_c, 9, 40, 0
1, 126360, Note_on_c, 9, 69, 0
1, 126360, Note_on_c, 9, 33, 0
1, 126480, Note_on_c, 3, 70, 0
1, 126480, Note_on_c, 9, 69, 64
1, 126480, Note_on_c, 9, 33, 80
1, 126480, Note_on_c, 9, 46, 64
1, 126600, Note_on_c, 9, 46, 0
1, 126600, Note_on_c, 9, 69, 0
1, 126600, Note_on_c, 9, 33, 0
1, 126720, Note_on_c, 9, 69, 80
1, 126720, Note_on_c, 9, 35, 80
1, 126720, Note_on_c, 3, 79, 64
1, 126720, Note_on_c, 12, 36, 112
1, 126720, Note_on_c, 13, 36, 64
1, 126720, Note_on_c, 6, 60, 64
1, 126720, Note_on_c, 0, 60, 64
1, 126720, Note_on_c, 8, 48, 22
1, 126720, Note_on_c, 8, 55, 22
1, 126840, Note_on_c, 9, 69, 0
1, 126840, Note_on_c, 9, 35, 0
1, 126840, Note_on_c, 6, 60, 0
1, 126840, Note_on_c, 0, 60, 0
1, 126960, Note_on_c, 12, 36, 0
1, 126960, Note_on_c, 9, 69, 64
1, 126960, Note_on_c, 9, 53, 32
1, 126960, Note_on_c, 9, 34, 80
1, 127080, Note_on_c, 9, 69, 0
1, 127080, Note_on_c, 9, 53, 0
1, 127080, Note_on_c, 9, 34, 0
1, 127200, Note_on_c, 3, 79, 0
1, 127200, Note_on_c, 9, 40, 64
1, 127200, Note_on_c, 9, 69, 64
1, 127200, Note_on_c, 9, 33, 80
1, 127200, Note_on_c, 9, 34, 64
1, 127200, Note_on_c, 3, 77, 64
1, 127320, Note_on_c, 9, 40, 0
1, 127320, Note_on_c, 9, 69, 0
1, 127320, Note_on_c, 9, 33, 0
1, 127320, Note_on_c, 9, 34, 0
1, 127440, Note_on_c, 3, 77, 0
1, 127440, Note_on_c, 9, 69, 64
1, 127440, Note_on_c, 9, 35, 80
1, 127440, Note_on_c, 13, 34, 64
1, 127440, Note_on_c, 12, 34, 112
1, 127440, Note_on_c, 6, 58, 64
1, 127440, Note_on_c, 0, 58, 64
1, 127560, Note_on_c, 9, 69, 0
1, 127560, Note_on_c, 9, 35, 0
1, 127560, Note_on_c, 6, 58, 0
1, 127560, Note_on_c, 0, 58, 0
1, 127680, Note_on_c, 13, 34, 0
1, 127680, Note_on_c, 12, 34, 0
1, 127680, Note_on_c, 13, 36, 0
1, 127680, Note_on_c, 9, 69, 64
1, 127680, Note_on_c, 9, 35, 80
1, 127680, Note_on_c, 3, 74, 64
1, 127800, Note_on_c, 9, 69, 0
1, 127800, Note_on_c, 9, 35, 0
1, 127800, Note_on_c, 3, 74, 0
1, 127800, Note_on_c, 3, 72, 64
1, 127920, Note_on_c, 3, 72, 0
1, 127920, Note_on_c, 9, 69, 64
1, 127920, Note_on_c, 9, 53, 32
1, 127920, Note_on_c, 9, 35, 80
1, 127920, Note_on_c, 3, 70, 64
1, 127980, Note_on_c, 8, 55, 0
1, 127980, Note_on_c, 8, 48, 0
1, 128040, Note_on_c, 9, 69, 0
1, 128040, Note_on_c, 9, 53, 0
1, 128040, Note_on_c, 9, 35, 0
1, 128040, Note_on_c, 3, 70, 0
1, 128160, Note_on_c, 9, 36, 64
1, 128160, Note_on_c, 9, 40, 64
1, 128160, Note_on_c, 9, 69, 64
1, 128160, Note_on_c, 9, 33, 80
1, 128280, Note_on_c, 9, 36, 0
1, 128280, Note_on_c, 9, 40, 0
1, 128280, Note_on_c, 9, 69, 0
1, 128280, Note_on_c, 9, 33, 0
1, 128400, Note_on_c, 9, 69, 64
1, 128400, Note_on_c, 9, 33, 80
1, 128520, Note_on_c, 9, 69, 0
1, 128520, Note_on_c, 9, 33, 0
1, 128640, Note_on_c, 9, 69, 64
1, 128640, Note_on_c, 9, 35, 80
1, 128640, Note_on_c, 13, 34, 64
1, 128640, Note_on_c, 12, 34, 112
1, 128760, Note_on_c, 9, 35, 0
1, 128760, Note_on_c, 9, 69, 0
1, 128880, Note_on_c, 12, 34, 0
1, 128880, Note_on_c, 13, 34, 0
1, 128880, Note_on_c, 9, 69, 64
1, 128880, Note_on_c, 9, 53, 32
1, 128880, Note_on_c, 9, 34, 80
1, 129000, Note_on_c, 9, 34, 0
1, 129000, Note_on_c, 9, 53, 0
1, 129000, Note_on_c, 9, 69, 0
1, 129120, Note_on_c, 9, 40, 64
1, 129120, Note_on_c, 9, 69, 64
1, 129120, Note_on_c, 9, 33, 80
1, 129120, Note_on_c, 9, 34, 64
1, 129120, Note_on_c, 3, 70, 64
1, 129240, Note_on_c, 9, 34, 0
1, 129240, Note_on_c, 9, 33, 0
1, 129240, Note_on_c, 9, 69, 0
1, 129240, Note_on_c, 9, 40, 0
1, 129360, Note_on_c, 3, 70, 0
1, 129360, Note_on_c, 9, 69, 64
1, 129360, Note_on_c, 9, 35, 80
1, 129360, Note_on_c, 3, 70, 64
1, 129360, Note_on_c, 12, 36, 112
1, 129360, Note_on_c, 13, 36, 64
1, 129480, Note_on_c, 9, 35, 0
1, 129480, Note_on_c, 9, 69, 0
1, 129600, Note_on_c, 3, 70, 0
1, 129600, Note_on_c, 13, 36, 0
1, 129600, Note_on_c, 12, 36, 0
1, 129600, Note_on_c, 9, 69, 64
1, 129600, Note_on_c, 9, 35, 80
1, 129720, Note_on_c, 9, 35, 0
1, 129720, Note_on_c, 9, 69, 0
1, 129840, Note_on_c, 9, 69, 64
1, 129840, Note_on_c, 9, 53, 32
1, 129840, Note_on_c, 9, 34, 80
1, 129840, Note_on_c, 3, 70, 64
1, 129960, Note_on_c, 9, 34, 0
1, 129960, Note_on_c, 9, 53, 0
1, 129960, Note_on_c, 9, 69, 0
1, 130080, Note_on_c, 3, 70, 0
1, 130080, Note_on_c, 9, 36, 64
1, 130080, Note_on_c, 9, 40, 64
1, 130080, Note_on_c, 9, 69, 64
1, 130080, Note_on_c, 9, 33, 80
1, 130200, Note_on_c, 9, 33, 0
1, 130200, Note_on_c, 9, 69, 0
1, 130200, Note_on_c, 9, 40, 0
1, 130200, Note_on_c, 9, 36, 0
1, 130320, Note_on_c, 9, 69, 64
1, 130320, Note_on_c, 9, 35, 80
1, 130440, Note_on_c, 9, 35, 0
1, 130440, Note_on_c, 9, 69, 0
1, 130440, Note_on_c, 9, 69, 52
1, 130560, Note_on_c, 9, 69, 0
1, 130560, Note_on_c, 9, 69, 80
1, 130560, Note_on_c, 9, 35, 80
1, 130560, Note_on_c, 3, 70, 64
1, 130560, Note_on_c, 13, 38, 64
1, 130560, Note_on_c, 12, 38, 112
1, 130680, Note_on_c, 9, 35, 0
1, 130680, Note_on_c, 9, 69, 0
1, 130800, Note_on_c, 3, 70, 0
1, 130800, Note_on_c, 12, 38, 0
1, 130800, Note_on_c, 13, 38, 0
1, 130800, Note_on_c, 9, 69, 64
1, 130800, Note_on_c, 9, 53, 32
1, 130800, Note_on_c, 9, 34, 80
1, 130920, Note_on_c, 9, 34, 0
1, 130920, Note_on_c, 9, 53, 0
1, 130920, Note_on_c, 9, 69, 0
1, 131040, Note_on_c, 9, 40, 64
1, 131040, Note_on_c, 9, 69, 64
1, 131040, Note_on_c, 9, 33, 80
1, 131040, Note_on_c, 9, 34, 64
1, 131040, Note_on_c, 3, 70, 64
1, 131160, Note_on_c, 9, 34, 0
1, 131160, Note_on_c, 9, 33, 0
1, 131160, Note_on_c, 9, 69, 0
1, 131160, Note_on_c, 9, 40, 0
1, 131280, Note_on_c, 3, 70, 0
1, 131280, Note_on_c, 9, 69, 64
1, 131280, Note_on_c, 9, 35, 80
1, 131280, Note_on_c, 12, 36, 112
1, 131280, Note_on_c, 13, 36, 64
1, 131400, Note_on_c, 9, 35, 0
1, 131400, Note_on_c, 9, 69, 0
1, 131520, Note_on_c, 13, 36, 0
1, 131520, Note_on_c, 12, 36, 0
1, 131520, Note_on_c, 9, 69, 64
1, 131520, Note_on_c, 9, 35, 80
1, 131520, Note_on_c, 3, 70, 64
1, 131640, Note_on_c, 9, 35, 0
1, 131640, Note_on_c, 9, 69, 0
1, 131760, Note_on_c, 3, 70, 0
1, 131760, Note_on_c, 9, 69, 64
1, 131760, Note_on_c, 9, 53, 32
1, 131760, Note_on_c, 9, 35, 80
1, 131760, Note_on_c, 3, 72, 64
1, 131880, Note_on_c, 9, 35, 0
1, 131880, Note_on_c, 9, 53, 0
1, 131880, Note_on_c, 9, 69, 0
1, 131880, Note_on_c, 3, 72, 0
1, 131880, Note_on_c, 3, 74, 64
1, 132000, Note_on_c, 9, 36, 64
1, 132000, Note_on_c, 9, 40, 64
1, 132000, Note_on_c, 9, 69, 64
1, 132000, Note_on_c, 9, 33, 80
1, 132120, Note_on_c, 9, 33, 0
1, 132120, Note_on_c, 9, 69, 0
1, 132120, Note_on_c, 9, 40, 0
1, 132120, Note_on_c, 9, 36, 0
1, 132180, Note_on_c, 3, 74, 0
1, 132240, Note_on_c, 9, 69, 64
1, 132240, Note_on_c, 9, 33, 80
1, 132240, Note_on_c, 9, 46, 64
1, 132360, Note_on_c, 9, 33, 0
1, 132360, Note_on_c, 9, 69, 0
1, 132360, Note_on_c, 9, 46, 0
1, 132480, Note_on_c, 9, 69, 80
1, 132480, Note_on_c, 9, 35, 80
1, 132480, Note_on_c, 13, 34, 64
1, 132480, Note_on_c, 12, 34, 112
1, 132480, Note_on_c, 6, 70, 23
1, 132480, Note_on_c, 8, 51, 25
1, 132480, Note_on_c, 8, 46, 25
1, 132540, Note_on_c, 6, 70, 0
1, 132540, Note_on_c, 6, 70, 24
1, 132600, Note_on_c, 9, 35, 0
1, 132600, Note_on_c, 9, 69, 0
1, 132600, Note_on_c, 6, 70, 0
1, 132600, Note_on_c, 6, 70, 25
1, 132660, Note_on_c, 6, 70, 0
1, 132660, Note_on_c, 6, 70, 27
1, 132720, Note_on_c, 13, 34, 0
1, 132720, Note_on_c, 12, 34, 0
1, 132720, Note_on_c, 6, 70, 0
1, 132720, Note_on_c, 9, 69, 64
1, 132720, Note_on_c, 9, 53, 32
1, 132720, Note_on_c, 9, 34, 80
1, 132720, Note_on_c, 6, 70, 28
1, 132780, Note_on_c, 6, 70, 0
1, 132780, Note_on_c, 6, 70, 29
1, 132840, Note_on_c, 9, 34, 0
1, 132840, Note_on_c, 9, 53, 0
1, 132840, Note_on_c, 9, 69, 0
1, 132840, Note_on_c, 6, 70, 0
1, 132840, Note_on_c, 6, 70, 31
1, 132900, Note_on_c, 6, 70, 0
1, 132900, Note_on_c, 6, 70, 32
1, 132960, Note_on_c, 6, 70, 0
1, 132960, Note_on_c, 9, 40, 64
1, 132960, Note_on_c, 9, 69, 64
1, 132960, Note_on_c, 9, 33, 80
1, 132960, Note_on_c, 9, 34, 64
1, 132960, Note_on_c, 3, 74, 64
1, 132960, Note_on_c, 6, 70, 33
1, 133020, Note_on_c, 6, 70, 0
1, 133020, Note_on_c, 6, 70, 34
1, 133080, Note_on_c, 9, 34, 0
1, 133080, Note_on_c, 9, 33, 0
1, 133080, Note_on_c, 9, 69, 0
1, 133080, Note_on_c, 9, 40, 0
1, 133080, Note_on_c, 6, 70, 0
1, 133080, Note_on_c, 6, 70, 36
1, 133140, Note_on_c, 6, 70, 0
1, 133140, Note_on_c, 6, 70, 37
1, 133200, Note_on_c, 3, 74, 0
1, 133200, Note_on_c, 6, 70, 0
1, 133200, Note_on_c, 9, 69, 64
1, 133200, Note_on_c, 9, 35, 80
1, 133200, Note_on_c, 3, 72, 64
1, 133200, Note_on_c, 12, 36, 112
1, 133200, Note_on_c, 13, 36, 64
1, 133200, Note_on_c, 6, 72, 38
1, 133260, Note_on_c, 6, 72, 0
1, 133260, Note_on_c, 6, 72, 40
1, 133320, Note_on_c, 9, 35, 0
1, 133320, Note_on_c, 9, 69, 0
1, 133320, Note_on_c, 6, 72, 0
1, 133320, Note_on_c, 6, 72, 41
1, 133380, Note_on_c, 6, 72, 0
1, 133380, Note_on_c, 6, 72, 42
1, 133440, Note_on_c, 3, 72, 0
1, 133440, Note_on_c, 12, 36, 0
1, 133440, Note_on_c, 13, 36, 0
1, 133440, Note_on_c, 6, 72, 0
1, 133440, Note_on_c, 9, 69, 64
1, 133440, Note_on_c, 9, 35, 80
1, 133440, Note_on_c, 3, 70, 64
1, 133440, Note_on_c, 6, 72, 40
1, 133500, Note_on_c, 6, 72, 0
1, 133500, Note_on_c, 6, 72, 40
1, 133560, Note_on_c, 9, 35, 0
1, 133560, Note_on_c, 9, 69, 0
1, 133560, Note_on_c, 6, 72, 0
1, 133560, Note_on_c, 6, 72, 40
1, 133620, Note_on_c, 6, 72, 0
1, 133620, Note_on_c, 6, 72, 40
1, 133680, Note_on_c, 3, 70, 0
1, 133680, Note_on_c, 6, 72, 0
1, 133680, Note_on_c, 9, 69, 64
1, 133680, Note_on_c, 9, 53, 32
1, 133680, Note_on_c, 9, 35, 80
1, 133680, Note_on_c, 6, 72, 39
1, 133740, Note_on_c, 6, 72, 0
1, 133740, Note_on_c, 6, 72, 39
1, 133800, Note_on_c, 9, 35, 0
1, 133800, Note_on_c, 9, 53, 0
1, 133800, Note_on_c, 9, 69, 0
1, 133800, Note_on_c, 6, 72, 0
1, 133800, Note_on_c, 6, 72, 39
1, 133860, Note_on_c, 6, 72, 0
1, 133860, Note_on_c, 6, 72, 38
1, 133920, Note_on_c, 6, 72, 0
1, 133920, Note_on_c, 9, 36, 64
1, 133920, Note_on_c, 9, 40, 64
1, 133920, Note_on_c, 9, 69, 64
1, 133920, Note_on_c, 9, 33, 80
1, 133920, Note_on_c, 3, 74, 25
1, 133920, Note_on_c, 6, 72, 38
1, 133980, Note_on_c, 6, 72, 0
1, 133980, Note_on_c, 6, 72, 38
1, 134040, Note_on_c, 9, 33, 0
1, 134040, Note_on_c, 9, 69, 0
1, 134040, Note_on_c, 9, 40, 0
1, 134040, Note_on_c, 9, 36, 0
1, 134040, Note_on_c, 6, 72, 0
1, 134040, Note_on_c, 6, 72, 37
1, 134100, Note_on_c, 6, 72, 0
1, 134100, Note_on_c, 6, 72, 37
1, 134160, Note_on_c, 3, 74, 0
1, 134160, Note_on_c, 6, 72, 0
1, 134160, Note_on_c, 9, 69, 64
1, 134160, Note_on_c, 9, 33, 80
1, 134160, Note_on_c, 3, 72, 25
1, 134160, Note_on_c, 6, 72, 37
1, 134220, Note_on_c, 6, 72, 0
1, 134220, Note_on_c, 6, 72, 36
1, 134280, Note_on_c, 9, 33, 0
1, 134280, Note_on_c, 9, 69, 0
1, 134280, Note_on_c, 6, 72, 0
1, 134280, Note_on_c, 6, 72, 36
1, 134340, Note_on_c, 6, 72, 0
1, 134340, Note_on_c, 6, 72, 36
1, 134400, Note_on_c, 3, 72, 0
1, 134400, Note_on_c, 6, 72, 0
1, 134400, Note_on_c, 9, 69, 64
1, 134400, Note_on_c, 9, 35, 80
1, 134400, Note_on_c, 12, 36, 112
1, 134400, Note_on_c, 13, 36, 64
1, 134400, Note_on_c, 3, 70, 25
1, 134400, Note_on_c, 6, 72, 35
1, 134460, Note_on_c, 6, 72, 0
1, 134460, Note_on_c, 6, 72, 35
1, 134520, Note_on_c, 9, 69, 0
1, 134520, Note_on_c, 9, 35, 0
1, 134520, Note_on_c, 6, 72, 0
1, 134520, Note_on_c, 6, 72, 35
1, 134580, Note_on_c, 6, 72, 0
1, 134580, Note_on_c, 6, 72, 34
1, 134640, Note_on_c, 12, 36, 0
1, 134640, Note_on_c, 3, 70, 0
1, 134640, Note_on_c, 6, 72, 0
1, 134640, Note_on_c, 9, 69, 64
1, 134640, Note_on_c, 9, 53, 32
1, 134640, Note_on_c, 9, 34, 80
1, 134640, Note_on_c, 6, 72, 34
1, 134700, Note_on_c, 6, 72, 0
1, 134700, Note_on_c, 6, 72, 34
1, 134760, Note_on_c, 9, 69, 0
1, 134760, Note_on_c, 9, 53, 0
1, 134760, Note_on_c, 9, 34, 0
1, 134760, Note_on_c, 6, 72, 0
1, 134760, Note_on_c, 6, 72, 34
1, 134820, Note_on_c, 6, 72, 0
1, 134820, Note_on_c, 6, 72, 33
1, 134880, Note_on_c, 6, 72, 0
1, 134880, Note_on_c, 9, 40, 64
1, 134880, Note_on_c, 9, 69, 64
1, 134880, Note_on_c, 9, 33, 80
1, 134880, Note_on_c, 9, 34, 64
1, 134880, Note_on_c, 6, 72, 33
1, 134940, Note_on_c, 6, 72, 0
1, 134940, Note_on_c, 6, 72, 33
1, 135000, Note_on_c, 9, 40, 0
1, 135000, Note_on_c, 9, 69, 0
1, 135000, Note_on_c, 9, 33, 0
1, 135000, Note_on_c, 9, 34, 0
1, 135000, Note_on_c, 6, 72, 0
1, 135000, Note_on_c, 6, 72, 32
1, 135060, Note_on_c, 6, 72, 0
1, 135060, Note_on_c, 6, 72, 32
1, 135120, Note_on_c, 6, 72, 0
1, 135120, Note_on_c, 9, 69, 64
1, 135120, Note_on_c, 9, 35, 80
1, 135120, Note_on_c, 13, 34, 64
1, 135120, Note_on_c, 12, 34, 112
1, 135120, Note_on_c, 3, 74, 64
1, 135120, Note_on_c, 6, 72, 32
1, 135180, Note_on_c, 6, 72, 0
1, 135180, Note_on_c, 6, 72, 31
1, 135240, Note_on_c, 9, 69, 0
1, 135240, Note_on_c, 9, 35, 0
1, 135240, Note_on_c, 6, 72, 0
1, 135240, Note_on_c, 6, 72, 31
1, 135300, Note_on_c, 6, 72, 0
1, 135300, Note_on_c, 6, 72, 31
1, 135360, Note_on_c, 13, 36, 0
1, 135360, Note_on_c, 12, 34, 0
1, 135360, Note_on_c, 13, 34, 0
1, 135360, Note_on_c, 3, 74, 0
1, 135360, Note_on_c, 6, 72, 0
1, 135360, Note_on_c, 9, 69, 64
1, 135360, Note_on_c, 9, 35, 80
1, 135360, Note_on_c, 3, 72, 64
1, 135360, Note_on_c, 6, 72, 30
1, 135420, Note_on_c, 6, 72, 0
1, 135420, Note_on_c, 6, 72, 30
1, 135480, Note_on_c, 9, 69, 0
1, 135480, Note_on_c, 9, 35, 0
1, 135480, Note_on_c, 3, 72, 0
1, 135480, Note_on_c, 6, 72, 0
1, 135480, Note_on_c, 6, 72, 30
1, 135540, Note_on_c, 6, 72, 0
1, 135540, Note_on_c, 6, 72, 29
1, 135600, Note_on_c, 6, 72, 0
1, 135600, Note_on_c, 9, 69, 64
1, 135600, Note_on_c, 9, 53, 32
1, 135600, Note_on_c, 9, 34, 80
1, 135600, Note_on_c, 6, 72, 29
1, 135660, Note_on_c, 6, 72, 0
1, 135660, Note_on_c, 6, 72, 29
1, 135720, Note_on_c, 9, 69, 0
1, 135720, Note_on_c, 9, 53, 0
1, 135720, Note_on_c, 9, 34, 0
1, 135720, Note_on_c, 6, 72, 0
1, 135720, Note_on_c, 6, 72, 28
1, 135780, Note_on_c, 6, 72, 0
1, 135780, Note_on_c, 6, 72, 28
1, 135840, Note_on_c, 6, 72, 0
1, 135840, Note_on_c, 9, 36, 64
1, 135840, Note_on_c, 9, 40, 64
1, 135840, Note_on_c, 9, 69, 64
1, 135840, Note_on_c, 9, 33, 80
1, 135840, Note_on_c, 3, 70, 64
1, 135840, Note_on_c, 6, 72, 28
1, 135900, Note_on_c, 6, 72, 0
1, 135900, Note_on_c, 6, 72, 28
1, 135960, Note_on_c, 9, 36, 0
1, 135960, Note_on_c, 9, 40, 0
1, 135960, Note_on_c, 9, 69, 0
1, 135960, Note_on_c, 9, 33, 0
1, 135960, Note_on_c, 3, 70, 0
1, 135960, Note_on_c, 6, 72, 0
1, 135960, Note_on_c, 6, 72, 27
1, 136020, Note_on_c, 6, 72, 0
1, 136020, Note_on_c, 6, 72, 27
1, 136080, Note_on_c, 6, 72, 0
1, 136080, Note_on_c, 9, 69, 64
1, 136080, Note_on_c, 9, 35, 80
1, 136080, Note_on_c, 6, 72, 27
1, 136140, Note_on_c, 6, 72, 0
1, 136140, Note_on_c, 6, 72, 26
1, 136200, Note_on_c, 9, 69, 0
1, 136200, Note_on_c, 9, 35, 0
1, 136200, Note_on_c, 6, 72, 0
1, 136200, Note_on_c, 9, 69, 52
1, 136200, Note_on_c, 6, 72, 26
1, 136260, Note_on_c, 6, 72, 0
1, 136260, Note_on_c, 6, 72, 26
1, 136320, Note_on_c, 9, 69, 0
1, 136320, Note_on_c, 6, 72, 0
1, 136320, Note_on_c, 9, 69, 80
1, 136320, Note_on_c, 9, 35, 80
1, 136320, Note_on_c, 3, 72, 64
1, 136320, Note_on_c, 13, 36, 64
1, 136320, Note_on_c, 6, 72, 25
1, 136380, Note_on_c, 6, 72, 0
1, 136380, Note_on_c, 6, 72, 25
1, 136440, Note_on_c, 9, 69, 0
1, 136440, Note_on_c, 9, 35, 0
1, 136440, Note_on_c, 6, 72, 0
1, 136440, Note_on_c, 6, 72, 25
1, 136500, Note_on_c, 6, 72, 0
1, 136500, Note_on_c, 6, 72, 24
1, 136560, Note_on_c, 3, 72, 0
1, 136560, Note_on_c, 6, 72, 0
1, 136560, Note_on_c, 9, 69, 64
1, 136560, Note_on_c, 9, 53, 32
1, 136560, Note_on_c, 9, 34, 80
1, 136560, Note_on_c, 6, 72, 24
1, 136620, Note_on_c, 6, 72, 0
1, 136620, Note_on_c, 6, 72, 24
1, 136680, Note_on_c, 9, 69, 0
1, 136680, Note_on_c, 9, 53, 0
1, 136680, Note_on_c, 9, 34, 0
1, 136680, Note_on_c, 6, 72, 0
1, 136680, Note_on_c, 6, 72, 23
1, 136740, Note_on_c, 6, 72, 0
1, 136740, Note_on_c, 6, 72, 23
1, 136800, Note_on_c, 6, 72, 0
1, 136800, Note_on_c, 9, 40, 64
1, 136800, Note_on_c, 9, 69, 64
1, 136800, Note_on_c, 9, 33, 80
1, 136800, Note_on_c, 9, 34, 64
1, 136800, Note_on_c, 3, 72, 64
1, 136800, Note_on_c, 6, 72, 23
1, 136860, Note_on_c, 6, 72, 0
1, 136860, Note_on_c, 6, 72, 22
1, 136920, Note_on_c, 9, 40, 0
1, 136920, Note_on_c, 9, 69, 0
1, 136920, Note_on_c, 9, 33, 0
1, 136920, Note_on_c, 9, 34, 0
1, 136920, Note_on_c, 6, 72, 0
1, 136920, Note_on_c, 6, 72, 22
1, 136980, Note_on_c, 6, 72, 0
1, 136980, Note_on_c, 6, 72, 22
1, 137040, Note_on_c, 3, 72, 0
1, 137040, Note_on_c, 6, 72, 0
1, 137040, Note_on_c, 9, 69, 64
1, 137040, Note_on_c, 9, 35, 80
1, 137040, Note_on_c, 13, 34, 64
1, 137040, Note_on_c, 6, 72, 22
1, 137100, Note_on_c, 6, 72, 0
1, 137100, Note_on_c, 6, 72, 21
1, 137160, Note_on_c, 9, 69, 0
1, 137160, Note_on_c, 9, 35, 0
1, 137160, Note_on_c, 6, 72, 0
1, 137160, Note_on_c, 6, 72, 21
1, 137220, Note_on_c, 6, 72, 0
1, 137220, Note_on_c, 6, 72, 21
1, 137280, Note_on_c, 13, 34, 0
1, 137280, Note_on_c, 13, 36, 0
1, 137280, Note_on_c, 6, 72, 0
1, 137280, Note_on_c, 9, 69, 64
1, 137280, Note_on_c, 9, 35, 80
1, 137280, Note_on_c, 3, 72, 64
1, 137280, Note_on_c, 6, 72, 20
1, 137340, Note_on_c, 6, 72, 0
1, 137340, Note_on_c, 6, 72, 20
1, 137400, Note_on_c, 9, 69, 0
1, 137400, Note_on_c, 9, 35, 0
1, 137400, Note_on_c, 6, 72, 0
1, 137400, Note_on_c, 6, 72, 20
1, 137460, Note_on_c, 6, 72, 0
1, 137460, Note_on_c, 6, 72, 19
1, 137520, Note_on_c, 3, 72, 0
1, 137520, Note_on_c, 6, 72, 0
1, 137520, Note_on_c, 9, 69, 64
1, 137520, Note_on_c, 9, 53, 32
1, 137520, Note_on_c, 9, 35, 80
1, 137520, Note_on_c, 6, 72, 19
1, 137580, Note_on_c, 6, 72, 0
1, 137580, Note_on_c, 6, 72, 19
1, 137640, Note_on_c, 9, 69, 0
1, 137640, Note_on_c, 9, 53, 0
1, 137640, Note_on_c, 9, 35, 0
1, 137640, Note_on_c, 6, 72, 0
1, 137640, Note_on_c, 6, 72, 18
1, 137700, Note_on_c, 6, 72, 0
1, 137700, Note_on_c, 6, 72, 18
1, 137760, Note_on_c, 6, 72, 0
1, 137760, Note_on_c, 9, 36, 64
1, 137760, Note_on_c, 9, 40, 64
1, 137760, Note_on_c, 9, 69, 64
1, 137760, Note_on_c, 9, 33, 80
1, 137760, Note_on_c, 3, 70, 64
1, 137760, Note_on_c, 6, 72, 18
1, 137820, Note_on_c, 6, 72, 0
1, 137820, Note_on_c, 6, 72, 17
1, 137880, Note_on_c, 9, 36, 0
1, 137880, Note_on_c, 9, 40, 0
1, 137880, Note_on_c, 9, 69, 0
1, 137880, Note_on_c, 9, 33, 0
1, 137880, Note_on_c, 6, 72, 0
1, 137880, Note_on_c, 6, 72, 17
1, 137940, Note_on_c, 6, 72, 0
1, 137940, Note_on_c, 6, 72, 17
1, 138000, Note_on_c, 3, 70, 0
1, 138000, Note_on_c, 6, 72, 0
1, 138000, Note_on_c, 9, 69, 64
1, 138000, Note_on_c, 9, 33, 80
1, 138000, Note_on_c, 9, 46, 64
1, 138000, Note_on_c, 6, 72, 16
1, 138060, Note_on_c, 6, 72, 0
1, 138060, Note_on_c, 6, 72, 16
1, 138120, Note_on_c, 9, 46, 0
1, 138120, Note_on_c, 9, 69, 0
1, 138120, Note_on_c, 9, 33, 0
1, 138120, Note_on_c, 6, 72, 0
1, 138120, Note_on_c, 6, 72, 16
1, 138180, Note_on_c, 6, 72, 0
1, 138180, Note_on_c, 6, 72, 15
1, 138240, Note_on_c, 6, 72, 0
1, 138240, Note_on_c, 9, 69, 80
1, 138240, Note_on_c, 9, 35, 80
1, 138240, Note_on_c, 3, 77, 64
1, 138240, Note_on_c, 13, 36, 64
1, 138360, Note_on_c, 9, 69, 0
1, 138360, Note_on_c, 9, 35, 0
1, 138480, Note_on_c, 9, 69, 64
1, 138480, Note_on_c, 9, 53, 32
1, 138480, Note_on_c, 9, 34, 80
1, 138600, Note_on_c, 9, 69, 0
1, 138600, Note_on_c, 9, 53, 0
1, 138600, Note_on_c, 9, 34, 0
1, 138720, Note_on_c, 9, 40, 64
1, 138720, Note_on_c, 9, 69, 64
1, 138720, Note_on_c, 9, 33, 80
1, 138720, Note_on_c, 9, 34, 64
1, 138840, Note_on_c, 9, 40, 0
1, 138840, Note_on_c, 9, 69, 0
1, 138840, Note_on_c, 9, 33, 0
1, 138840, Note_on_c, 9, 34, 0
1, 138960, Note_on_c, 3, 77, 0
1, 138960, Note_on_c, 9, 69, 64
1, 138960, Note_on_c, 9, 35, 80
1, 138960, Note_on_c, 3, 72, 64
1, 138960, Note_on_c, 13, 34, 64
1, 139080, Note_on_c, 9, 69, 0
1, 139080, Note_on_c, 9, 35, 0
1, 139200, Note_on_c, 13, 36, 0
1, 139200, Note_on_c, 13, 34, 0
1, 139200, Note_on_c, 9, 69, 64
1, 139200, Note_on_c, 9, 35, 80
1, 139320, Note_on_c, 9, 69, 0
1, 139320, Note_on_c, 9, 35, 0
1, 139440, Note_on_c, 3, 72, 0
1, 139440, Note_on_c, 9, 69, 64
1, 139440, Note_on_c, 9, 53, 32
1, 139440, Note_on_c, 9, 35, 80
1, 139440, Note_on_c, 3, 70, 64
1, 139440, Note_on_c, 9, 46, 64
1, 139560, Note_on_c, 9, 69, 0
1, 139560, Note_on_c, 9, 53, 0
1, 139560, Note_on_c, 9, 35, 0
1, 139560, Note_on_c, 9, 46, 0
1, 139680, Note_on_c, 3, 70, 0
1, 139680, Note_on_c, 9, 36, 64
1, 139680, Note_on_c, 9, 40, 64
1, 139680, Note_on_c, 9, 69, 64
1, 139680, Note_on_c, 9, 33, 80
1, 139680, Note_on_c, 5, 38, 48
1, 139680, Note_on_c, 13, 38, 48
1, 139680, Note_on_c, 0, 60, 48
1, 139680, Note_on_c, 3, 72, 64
1, 139680, Note_on_c, 12, 38, 76
1, 139680, Note_on_c, 9, 44, 64
1, 139800, Note_on_c, 9, 33, 0
1, 139800, Note_on_c, 9, 69, 0
1, 139800, Note_on_c, 9, 40, 0
1, 139800, Note_on_c, 9, 36, 0
1, 139800, Note_on_c, 9, 44, 0
1, 139920, Note_on_c, 12, 38, 0
1, 139920, Note_on_c, 3, 72, 0
1, 139920, Note_on_c, 0, 60, 0
1, 139920, Note_on_c, 5, 38, 0
1, 139920, Note_on_c, 13, 38, 0
1, 139920, Note_on_c, 9, 69, 64
1, 139920, Note_on_c, 9, 33, 80
1, 139920, Note_on_c, 5, 36, 48
1, 139920, Note_on_c, 9, 70, 32
1, 139920, Note_on_c, 0, 62, 64
1, 139920, Note_on_c, 3, 74, 64
1, 139980, Note_on_c, 9, 70, 0
1, 139980, Note_on_c, 9, 70, 44
1, 140040, Note_on_c, 5, 36, 0
1, 140040, Note_on_c, 9, 33, 0
1, 140040, Note_on_c, 9, 70, 0
1, 140040, Note_on_c, 9, 69, 0
1, 140040, Note_on_c, 9, 70, 60
1, 140100, Note_on_c, 9, 70, 0
1, 140100, Note_on_c, 9, 70, 68
1, 140160, Note_on_c, 3, 74, 0
1, 140160, Note_on_c, 0, 62, 0
1, 140160, Note_on_c, 9, 70, 0
1, 140160, Note_on_c, 8, 51, 0
1, 140160, Note_on_c, 8, 46, 0
1, 140160, Note_on_c, 9, 69, 64
1, 140160, Note_on_c, 9, 35, 80
1, 140160, Note_on_c, 14, 55, 20
1, 140160, Note_on_c, 14, 64, 32
1, 140160, Note_on_c, 14, 60, 20
1, 140160, Note_on_c, 15, 64, 40
1, 140160, Note_on_c, 5, 36, 48
1, 140160, Note_on_c, 2, 52, 52
1, 140160, Note_on_c, 13, 36, 48
1, 140160, Note_on_c, 0, 64, 64
1, 140160, Note_on_c, 3, 76, 64
1, 140160, Note_on_c, 12, 36, 96
1, 140280, Note_on_c, 5, 36, 0
1, 140280, Note_on_c, 9, 69, 0
1, 140280, Note_on_c, 9, 35, 0
1, 140400, Note_on_c, 3, 76, 0
1, 140400, Note_on_c, 0, 64, 0
1, 140400, Note_on_c, 13, 36, 0
1, 140400, Note_on_c, 9, 69, 64
1, 140400, Note_on_c, 9, 53, 32
1, 140400, Note_on_c, 9, 34, 80
1, 140400, Note_on_c, 5, 36, 48
1, 140400, Note_on_c, 0, 65, 64
1, 140400, Note_on_c, 3, 77, 64
1, 140520, Note_on_c, 5, 36, 0
1, 140520, Note_on_c, 9, 69, 0
1, 140520, Note_on_c, 9, 53, 0
1, 140520, Note_on_c, 9, 34, 0
1, 140640, Note_on_c, 3, 77, 0
1, 140640, Note_on_c, 0, 65, 0
1, 140640, Note_on_c, 9, 40, 64
1, 140640, Note_on_c, 9, 69, 64
1, 140640, Note_on_c, 9, 33, 80
1, 140640, Note_on_c, 9, 34, 64
1, 140640, Note_on_c, 9, 36, 64
1, 140640, Note_on_c, 0, 64, 64
1, 140640, Note_on_c, 3, 76, 64
1, 140760, Note_on_c, 9, 34, 0
1, 140760, Note_on_c, 9, 36, 0
1, 140760, Note_on_c, 9, 40, 0
1, 140760, Note_on_c, 9, 69, 0
1, 140760, Note_on_c, 9, 33, 0
1, 140820, Note_on_c, 12, 36, 0
1, 140880, Note_on_c, 3, 76, 0
1, 140880, Note_on_c, 0, 64, 0
1, 140880, Note_on_c, 9, 69, 64
1, 140880, Note_on_c, 9, 35, 80
1, 140880, Note_on_c, 5, 36, 48
1, 140880, Note_on_c, 13, 36, 48
1, 140880, Note_on_c, 0, 62, 64
1, 140880, Note_on_c, 3, 74, 64
1, 140880, Note_on_c, 12, 36, 96
1, 141000, Note_on_c, 5, 36, 0
1, 141000, Note_on_c, 9, 69, 0
1, 141000, Note_on_c, 9, 35, 0
1, 141060, Note_on_c, 12, 36, 0
1, 141120, Note_on_c, 3, 74, 0
1, 141120, Note_on_c, 0, 62, 0
1, 141120, Note_on_c, 13, 36, 0
1, 141120, Note_on_c, 9, 69, 64
1, 141120, Note_on_c, 9, 35, 80
1, 141120, Note_on_c, 5, 36, 48
1, 141120, Note_on_c, 13, 36, 48
1, 141120, Note_on_c, 3, 72, 64
1, 141120, Note_on_c, 0, 60, 64
1, 141120, Note_on_c, 12, 36, 96
1, 141240, Note_on_c, 5, 36, 0
1, 141240, Note_on_c, 9, 69, 0
1, 141240, Note_on_c, 9, 35, 0
1, 141360, Note_on_c, 13, 36, 0
1, 141360, Note_on_c, 9, 69, 64
1, 141360, Note_on_c, 9, 53, 32
1, 141360, Note_on_c, 9, 34, 80
1, 141360, Note_on_c, 5, 36, 48
1, 141480, Note_on_c, 5, 36, 0
1, 141480, Note_on_c, 9, 69, 0
1, 141480, Note_on_c, 9, 53, 0
1, 141480, Note_on_c, 9, 34, 0
1, 141540, Note_on_c, 3, 72, 0
1, 141600, Note_on_c, 0, 60, 0
1, 141600, Note_on_c, 9, 36, 64
1, 141600, Note_on_c, 9, 40, 64
1, 141600, Note_on_c, 9, 69, 64
1, 141600, Note_on_c, 9, 33, 80
1, 141600, Note_on_c, 0, 60, 64
1, 141600, Note_on_c, 3, 72, 64
1, 141720, Note_on_c, 9, 36, 0
1, 141720, Note_on_c, 9, 40, 0
1, 141720, Note_on_c, 9, 69, 0
1, 141720, Note_on_c, 9, 33, 0
1, 141840, Note_on_c, 3, 72, 0
1, 141840, Note_on_c, 0, 60, 0
1, 141840, Note_on_c, 9, 69, 64
1, 141840, Note_on_c, 9, 35, 80
1, 141840, Note_on_c, 5, 36, 48
1, 141840, Note_on_c, 0, 57, 64
1, 141840, Note_on_c, 3, 69, 64
1, 141960, Note_on_c, 5, 36, 0
1, 141960, Note_on_c, 9, 69, 0
1, 141960, Note_on_c, 9, 35, 0
1, 141960, Note_on_c, 9, 69, 52
1, 142020, Note_on_c, 12, 36, 0
1, 142080, Note_on_c, 3, 69, 0
1, 142080, Note_on_c, 0, 57, 0
1, 142080, Note_on_c, 9, 69, 0
1, 142080, Note_on_c, 9, 69, 80
1, 142080, Note_on_c, 9, 35, 80
1, 142080, Note_on_c, 5, 36, 48
1, 142080, Note_on_c, 0, 60, 64
1, 142080, Note_on_c, 13, 36, 48
1, 142080, Note_on_c, 3, 72, 64
1, 142080, Note_on_c, 12, 36, 96
1, 142200, Note_on_c, 5, 36, 0
1, 142200, Note_on_c, 9, 69, 0
1, 142200, Note_on_c, 9, 35, 0
1, 142260, Note_on_c, 12, 36, 0
1, 142320, Note_on_c, 13, 36, 0
1, 142320, Note_on_c, 0, 60, 0
1, 142320, Note_on_c, 9, 69, 64
1, 142320, Note_on_c, 9, 53, 32
1, 142320, Note_on_c, 9, 34, 80
1, 142320, Note_on_c, 5, 36, 48
1, 142320, Note_on_c, 13, 36, 48
1, 142320, Note_on_c, 12, 36, 96
1, 142440, Note_on_c, 5, 36, 0
1, 142440, Note_on_c, 9, 69, 0
1, 142440, Note_on_c, 9, 53, 0
1, 142440, Note_on_c, 9, 34, 0
1, 142500, Note_on_c, 3, 72, 0
1, 142560, Note_on_c, 13, 36, 0
1, 142560, Note_on_c, 9, 40, 64
1, 142560, Note_on_c, 9, 69, 64
1, 142560, Note_on_c, 9, 33, 80
1, 142560, Note_on_c, 9, 34, 64
1, 142560, Note_on_c, 9, 36, 64
1, 142560, Note_on_c, 0, 57, 64
1, 142560, Note_on_c, 3, 69, 64
1, 142680, Note_on_c, 9, 34, 0
1, 142680, Note_on_c, 9, 36, 0
1, 142680, Note_on_c, 9, 40, 0
1, 142680, Note_on_c, 9, 69, 0
1, 142680, Note_on_c, 9, 33, 0
1, 142740, Note_on_c, 12, 36, 0
1, 142800, Note_on_c, 3, 69, 0
1, 142800, Note_on_c, 0, 57, 0
1, 142800, Note_on_c, 9, 69, 64
1, 142800, Note_on_c, 9, 35, 80
1, 142800, Note_on_c, 5, 36, 48
1, 142800, Note_on_c, 13, 36, 48
1, 142800, Note_on_c, 3, 74, 64
1, 142800, Note_on_c, 0, 62, 64
1, 142800, Note_on_c, 12, 36, 96
1, 142920, Note_on_c, 5, 36, 0
1, 142920, Note_on_c, 9, 69, 0
1, 142920, Note_on_c, 9, 35, 0
1, 142980, Note_on_c, 12, 36, 0
1, 143040, Note_on_c, 13, 36, 0
1, 143040, Note_on_c, 14, 64, 0
1, 143040, Note_on_c, 14, 60, 0
1, 143040, Note_on_c, 9, 69, 64
1, 143040, Note_on_c, 9, 35, 80
1, 143040, Note_on_c, 14, 57, 32
1, 143040, Note_on_c, 14, 62, 20
1, 143040, Note_on_c, 5, 36, 48
1, 143040, Note_on_c, 13, 38, 48
1, 143040, Note_on_c, 12, 38, 96
1, 143160, Note_on_c, 5, 36, 0
1, 143160, Note_on_c, 9, 69, 0
1, 143160, Note_on_c, 9, 35, 0
1, 143280, Note_on_c, 13, 38, 0
1, 143280, Note_on_c, 3, 74, 0
1, 143280, Note_on_c, 9, 69, 64
1, 143280, Note_on_c, 9, 53, 32
1, 143280, Note_on_c, 9, 35, 80
1, 143280, Note_on_c, 5, 36, 48
1, 143280, Note_on_c, 3, 76, 64
1, 143400, Note_on_c, 5, 36, 0
1, 143400, Note_on_c, 9, 69, 0
1, 143400, Note_on_c, 9, 53, 0
1, 143400, Note_on_c, 9, 35, 0
1, 143460, Note_on_c, 12, 38, 0
1, 143520, Note_on_c, 0, 62, 0
1, 143520, Note_on_c, 3, 76, 0
1, 143520, Note_on_c, 9, 36, 64
1, 143520, Note_on_c, 9, 40, 64
1, 143520, Note_on_c, 9, 69, 64
1, 143520, Note_on_c, 9, 33, 80
1, 143520, Note_on_c, 0, 60, 64
1, 143520, Note_on_c, 3, 72, 64
1, 143520, Note_on_c, 13, 38, 48
1, 143520, Note_on_c, 12, 38, 96
1, 143640, Note_on_c, 9, 36, 0
1, 143640, Note_on_c, 9, 40, 0
1, 143640, Note_on_c, 9, 69, 0
1, 143640, Note_on_c, 9, 33, 0
1, 143760, Note_on_c, 13, 38, 0
1, 143760, Note_on_c, 3, 72, 0
1, 143760, Note_on_c, 0, 60, 0
1, 143760, Note_on_c, 9, 69, 64
1, 143760, Note_on_c, 9, 33, 80
1, 143760, Note_on_c, 9, 46, 64
1, 143760, Note_on_c, 5, 36, 48
1, 143760, Note_on_c, 9, 70, 32
1, 143760, Note_on_c, 0, 62, 64
1, 143760, Note_on_c, 3, 74, 64
1, 143820, Note_on_c, 9, 70, 0
1, 143820, Note_on_c, 9, 70, 44
1, 143880, Note_on_c, 9, 46, 0
1, 143880, Note_on_c, 5, 36, 0
1, 143880, Note_on_c, 9, 69, 0
1, 143880, Note_on_c, 9, 70, 0
1, 143880, Note_on_c, 9, 33, 0
1, 143880, Note_on_c, 9, 70, 60
1, 143940, Note_on_c, 12, 38, 0
1, 143940, Note_on_c, 9, 70, 0
1, 143940, Note_on_c, 9, 70, 68
1, 144000, Note_on_c, 3, 74, 0
1, 144000, Note_on_c, 0, 62, 0
1, 144000, Note_on_c, 14, 55, 0
1, 144000, Note_on_c, 14, 62, 0
1, 144000, Note_on_c, 14, 57, 0
1, 144000, Note_on_c, 15, 64, 0
1, 144000, Note_on_c, 9, 70, 0
1, 144000, Note_on_c, 14, 55, 20
1, 144000, Note_on_c, 14, 64, 32
1, 144000, Note_on_c, 14, 60, 20
1, 144000, Note_on_c, 15, 64, 40
1, 144000, Note_on_c, 5, 36, 48
1, 144000, Note_on_c, 9, 69, 64
1, 144000, Note_on_c, 9, 35, 80
1, 144000, Note_on_c, 13, 36, 48
1, 144000, Note_on_c, 0, 64, 64
1, 144000, Note_on_c, 3, 76, 64
1, 144000, Note_on_c, 12, 36, 96
1, 144120, Note_on_c, 5, 36, 0
1, 144120, Note_on_c, 9, 35, 0
1, 144120, Note_on_c, 9, 69, 0
1, 144240, Note_on_c, 3, 76, 0
1, 144240, Note_on_c, 0, 64, 0
1, 144240, Note_on_c, 13, 36, 0
1, 144240, Note_on_c, 5, 36, 48
1, 144240, Note_on_c, 9, 69, 64
1, 144240, Note_on_c, 9, 53, 32
1, 144240, Note_on_c, 9, 34, 80
1, 144240, Note_on_c, 0, 65, 64
1, 144240, Note_on_c, 3, 77, 64
1, 144360, Note_on_c, 5, 36, 0
1, 144360, Note_on_c, 9, 34, 0
1, 144360, Note_on_c, 9, 53, 0
1, 144360, Note_on_c, 9, 69, 0
1, 144480, Note_on_c, 3, 77, 0
1, 144480, Note_on_c, 0, 65, 0
1, 144480, Note_on_c, 9, 36, 64
1, 144480, Note_on_c, 9, 40, 64
1, 144480, Note_on_c, 9, 69, 64
1, 144480, Note_on_c, 9, 33, 80
1, 144480, Note_on_c, 3, 76, 64
1, 144480, Note_on_c, 0, 64, 64
1, 144600, Note_on_c, 9, 33, 0
1, 144600, Note_on_c, 9, 69, 0
1, 144600, Note_on_c, 9, 40, 0
1, 144600, Note_on_c, 9, 36, 0
1, 144660, Note_on_c, 12, 36, 0
1, 144720, Note_on_c, 0, 64, 0
1, 144720, Note_on_c, 3, 76, 0
1, 144720, Note_on_c, 5, 36, 48
1, 144720, Note_on_c, 9, 69, 64
1, 144720, Note_on_c, 9, 35, 80
1, 144720, Note_on_c, 13, 36, 48
1, 144720, Note_on_c, 3, 74, 64
1, 144720, Note_on_c, 0, 60, 64
1, 144720, Note_on_c, 12, 36, 96
1, 144840, Note_on_c, 5, 36, 0
1, 144840, Note_on_c, 9, 35, 0
1, 144840, Note_on_c, 9, 69, 0
1, 144900, Note_on_c, 12, 36, 0
1, 144960, Note_on_c, 3, 74, 0
1, 144960, Note_on_c, 13, 36, 0
1, 144960, Note_on_c, 5, 36, 48
1, 144960, Note_on_c, 9, 69, 64
1, 144960, Note_on_c, 9, 35, 80
1, 144960, Note_on_c, 13, 36, 48
1, 144960, Note_on_c, 3, 72, 64
1, 144960, Note_on_c, 12, 36, 96
1, 145080, Note_on_c, 5, 36, 0
1, 145080, Note_on_c, 9, 35, 0
1, 145080, Note_on_c, 9, 69, 0
1, 145200, Note_on_c, 13, 36, 0
1, 145200, Note_on_c, 5, 36, 48
1, 145200, Note_on_c, 9, 69, 64
1, 145200, Note_on_c, 9, 53, 32
1, 145200, Note_on_c, 9, 34, 80
1, 145320, Note_on_c, 5, 36, 0
1, 145320, Note_on_c, 9, 34, 0
1, 145320, Note_on_c, 9, 53, 0
1, 145320, Note_on_c, 9, 69, 0
1, 145380, Note_on_c, 3, 72, 0
1, 145440, Note_on_c, 9, 36, 64
1, 145440, Note_on_c, 9, 40, 64
1, 145440, Note_on_c, 9, 69, 64
1, 145440, Note_on_c, 9, 33, 80
1, 145440, Note_on_c, 3, 72, 64
1, 145560, Note_on_c, 9, 33, 0
1, 145560, Note_on_c, 9, 69, 0
1, 145560, Note_on_c, 9, 40, 0
1, 145560, Note_on_c, 9, 36, 0
1, 145680, Note_on_c, 0, 60, 0
1, 145680, Note_on_c, 3, 72, 0
1, 145680, Note_on_c, 5, 36, 48
1, 145680, Note_on_c, 9, 69, 64
1, 145680, Note_on_c, 9, 35, 80
1, 145680, Note_on_c, 3, 69, 64
1, 145680, Note_on_c, 0, 57, 64
1, 145800, Note_on_c, 5, 36, 0
1, 145800, Note_on_c, 9, 35, 0
1, 145800, Note_on_c, 9, 69, 0
1, 145800, Note_on_c, 9, 69, 52
1, 145860, Note_on_c, 12, 36, 0
1, 145920, Note_on_c, 9, 69, 0
1, 145920, Note_on_c, 5, 36, 48
1, 145920, Note_on_c, 9, 69, 80
1, 145920, Note_on_c, 9, 35, 80
1, 145920, Note_on_c, 13, 36, 48
1, 145920, Note_on_c, 12, 36, 96
1, 146040, Note_on_c, 5, 36, 0
1, 146040, Note_on_c, 9, 35, 0
1, 146040, Note_on_c, 9, 69, 0
1, 146100, Note_on_c, 12, 36, 0
1, 146100, Note_on_c, 3, 69, 0
1, 146160, Note_on_c, 13, 36, 0
1, 146160, Note_on_c, 5, 36, 48
1, 146160, Note_on_c, 9, 69, 64
1, 146160, Note_on_c, 9, 53, 32
1, 146160, Note_on_c, 9, 34, 80
1, 146160, Note_on_c, 13, 36, 48
1, 146160, Note_on_c, 3, 76, 64
1, 146160, Note_on_c, 12, 36, 96
1, 146280, Note_on_c, 5, 36, 0
1, 146280, Note_on_c, 9, 34, 0
1, 146280, Note_on_c, 9, 53, 0
1, 146280, Note_on_c, 9, 69, 0
1, 146400, Note_on_c, 13, 36, 0
1, 146400, Note_on_c, 9, 36, 64
1, 146400, Note_on_c, 9, 40, 64
1, 146400, Note_on_c, 9, 69, 64
1, 146400, Note_on_c, 9, 33, 80
1, 146520, Note_on_c, 9, 33, 0
1, 146520, Note_on_c, 9, 69, 0
1, 146520, Note_on_c, 9, 40, 0
1, 146520, Note_on_c, 9, 36, 0
1, 146580, Note_on_c, 12, 36, 0
1, 146640, Note_on_c, 3, 76, 0
1, 146640, Note_on_c, 5, 36, 48
1, 146640, Note_on_c, 9, 69, 64
1, 146640, Note_on_c, 9, 35, 80
1, 146640, Note_on_c, 13, 36, 48
1, 146640, Note_on_c, 3, 69, 64
1, 146640, Note_on_c, 12, 36, 96
1, 146760, Note_on_c, 5, 36, 0
1, 146760, Note_on_c, 9, 35, 0
1, 146760, Note_on_c, 9, 69, 0
1, 146820, Note_on_c, 12, 36, 0
1, 146880, Note_on_c, 0, 57, 0
1, 146880, Note_on_c, 3, 69, 0
1, 146880, Note_on_c, 13, 36, 0
1, 146880, Note_on_c, 14, 60, 0
1, 146880, Note_on_c, 14, 64, 0
1, 146880, Note_on_c, 14, 57, 32
1, 146880, Note_on_c, 14, 62, 20
1, 146880, Note_on_c, 5, 36, 48
1, 146880, Note_on_c, 9, 69, 64
1, 146880, Note_on_c, 9, 35, 80
1, 146880, Note_on_c, 13, 31, 48
1, 146880, Note_on_c, 3, 67, 64
1, 146880, Note_on_c, 6, 67, 64
1, 146880, Note_on_c, 0, 55, 64
1, 146880, Note_on_c, 12, 31, 96
1, 147000, Note_on_c, 6, 67, 0
1, 147000, Note_on_c, 5, 36, 0
1, 147000, Note_on_c, 9, 35, 0
1, 147000, Note_on_c, 9, 69, 0
1, 147000, Note_on_c, 6, 69, 64
1, 147120, Note_on_c, 6, 69, 0
1, 147120, Note_on_c, 3, 67, 0
1, 147120, Note_on_c, 13, 31, 0
1, 147120, Note_on_c, 5, 36, 48
1, 147120, Note_on_c, 9, 69, 64
1, 147120, Note_on_c, 9, 53, 32
1, 147120, Note_on_c, 9, 35, 80
1, 147120, Note_on_c, 3, 67, 64
1, 147120, Note_on_c, 6, 72, 64
1, 147240, Note_on_c, 6, 72, 0
1, 147240, Note_on_c, 5, 36, 0
1, 147240, Note_on_c, 9, 35, 0
1, 147240, Note_on_c, 9, 53, 0
1, 147240, Note_on_c, 9, 69, 0
1, 147300, Note_on_c, 12, 31, 0
1, 147360, Note_on_c, 0, 55, 0
1, 147360, Note_on_c, 3, 67, 0
1, 147360, Note_on_c, 9, 36, 64
1, 147360, Note_on_c, 9, 40, 64
1, 147360, Note_on_c, 9, 69, 64
1, 147360, Note_on_c, 9, 33, 80
1, 147360, Note_on_c, 13, 31, 48
1, 147360, Note_on_c, 0, 60, 64
1, 147360, Note_on_c, 3, 72, 64
1, 147360, Note_on_c, 6, 69, 64
1, 147360, Note_on_c, 12, 31, 96
1, 147480, Note_on_c, 9, 33, 0
1, 147480, Note_on_c, 9, 69, 0
1, 147480, Note_on_c, 9, 40, 0
1, 147480, Note_on_c, 9, 36, 0
1, 147600, Note_on_c, 6, 69, 0
1, 147600, Note_on_c, 3, 72, 0
1, 147600, Note_on_c, 0, 60, 0
1, 147600, Note_on_c, 13, 31, 0
1, 147600, Note_on_c, 5, 36, 48
1, 147600, Note_on_c, 9, 69, 64
1, 147600, Note_on_c, 9, 70, 32
1, 147600, Note_on_c, 9, 33, 80
1, 147600, Note_on_c, 0, 62, 64
1, 147600, Note_on_c, 3, 74, 64
1, 147600, Note_on_c, 6, 67, 64
1, 147660, Note_on_c, 9, 70, 0
1, 147660, Note_on_c, 9, 70, 44
1, 147720, Note_on_c, 5, 36, 0
1, 147720, Note_on_c, 9, 33, 0
1, 147720, Note_on_c, 9, 70, 0
1, 147720, Note_on_c, 9, 69, 0
1, 147720, Note_on_c, 9, 70, 60
1, 147780, Note_on_c, 12, 31, 0
1, 147780, Note_on_c, 9, 70, 0
1, 147780, Note_on_c, 9, 70, 68
1, 147840, Note_on_c, 6, 67, 0
1, 147840, Note_on_c, 3, 74, 0
1, 147840, Note_on_c, 0, 62, 0
1, 147840, Note_on_c, 14, 57, 0
1, 147840, Note_on_c, 14, 55, 0
1, 147840, Note_on_c, 14, 62, 0
1, 147840, Note_on_c, 15, 64, 0
1, 147840, Note_on_c, 2, 52, 0
1, 147840, Note_on_c, 9, 70, 0
1, 147840, Note_on_c, 14, 55, 20
1, 147840, Note_on_c, 14, 64, 32
1, 147840, Note_on_c, 14, 60, 20
1, 147840, Note_on_c, 15, 64, 40
1, 147840, Note_on_c, 5, 36, 48
1, 147840, Note_on_c, 9, 69, 64
1, 147840, Note_on_c, 2, 52, 52
1, 147840, Note_on_c, 9, 35, 80
1, 147840, Note_on_c, 13, 36, 48
1, 147840, Note_on_c, 0, 64, 64
1, 147840, Note_on_c, 3, 76, 64
1, 147840, Note_on_c, 12, 36, 96
1, 147960, Note_on_c, 9, 35, 0
1, 147960, Note_on_c, 9, 69, 0
1, 147960, Note_on_c, 5, 36, 0
1, 148080, Note_on_c, 3, 76, 0
1, 148080, Note_on_c, 0, 64, 0
1, 148080, Note_on_c, 13, 36, 0
1, 148080, Note_on_c, 5, 36, 48
1, 148080, Note_on_c, 9, 69, 64
1, 148080, Note_on_c, 9, 53, 32
1, 148080, Note_on_c, 9, 34, 80
1, 148080, Note_on_c, 0, 65, 64
1, 148080, Note_on_c, 3, 77, 64
1, 148200, Note_on_c, 9, 34, 0
1, 148200, Note_on_c, 9, 53, 0
1, 148200, Note_on_c, 9, 69, 0
1, 148200, Note_on_c, 5, 36, 0
1, 148320, Note_on_c, 3, 77, 0
1, 148320, Note_on_c, 0, 65, 0
1, 148320, Note_on_c, 9, 36, 64
1, 148320, Note_on_c, 9, 40, 64
1, 148320, Note_on_c, 9, 69, 64
1, 148320, Note_on_c, 9, 33, 80
1, 148320, Note_on_c, 0, 64, 64
1, 148320, Note_on_c, 3, 76, 64
1, 148440, Note_on_c, 9, 33, 0
1, 148440, Note_on_c, 9, 69, 0
1, 148440, Note_on_c, 9, 40, 0
1, 148440, Note_on_c, 9, 36, 0
1, 148500, Note_on_c, 12, 36, 0
1, 148560, Note_on_c, 3, 76, 0
1, 148560, Note_on_c, 0, 64, 0
1, 148560, Note_on_c, 5, 36, 48
1, 148560, Note_on_c, 9, 69, 64
1, 148560, Note_on_c, 9, 35, 80
1, 148560, Note_on_c, 13, 36, 48
1, 148560, Note_on_c, 0, 62, 64
1, 148560, Note_on_c, 3, 74, 64
1, 148560, Note_on_c, 12, 36, 96
1, 148680, Note_on_c, 9, 35, 0
1, 148680, Note_on_c, 9, 69, 0
1, 148680, Note_on_c, 5, 36, 0
1, 148740, Note_on_c, 12, 36, 0
1, 148800, Note_on_c, 3, 74, 0
1, 148800, Note_on_c, 0, 62, 0
1, 148800, Note_on_c, 13, 36, 0
1, 148800, Note_on_c, 5, 36, 48
1, 148800, Note_on_c, 9, 69, 64
1, 148800, Note_on_c, 9, 35, 80
1, 148800, Note_on_c, 13, 36, 48
1, 148800, Note_on_c, 0, 60, 64
1, 148800, Note_on_c, 3, 72, 64
1, 148800, Note_on_c, 12, 36, 96
1, 148920, Note_on_c, 9, 35, 0
1, 148920, Note_on_c, 9, 69, 0
1, 148920, Note_on_c, 5, 36, 0
1, 149040, Note_on_c, 3, 72, 0
1, 149040, Note_on_c, 0, 60, 0
1, 149040, Note_on_c, 13, 36, 0
1, 149040, Note_on_c, 5, 36, 48
1, 149040, Note_on_c, 9, 69, 64
1, 149040, Note_on_c, 9, 53, 32
1, 149040, Note_on_c, 9, 34, 80
1, 149160, Note_on_c, 9, 34, 0
1, 149160, Note_on_c, 9, 53, 0
1, 149160, Note_on_c, 9, 69, 0
1, 149160, Note_on_c, 5, 36, 0
1, 149280, Note_on_c, 9, 36, 64
1, 149280, Note_on_c, 9, 40, 64
1, 149280, Note_on_c, 9, 69, 64
1, 149280, Note_on_c, 9, 33, 80
1, 149280, Note_on_c, 0, 60, 64
1, 149280, Note_on_c, 3, 72, 64
1, 149400, Note_on_c, 9, 33, 0
1, 149400, Note_on_c, 9, 69, 0
1, 149400, Note_on_c, 9, 40, 0
1, 149400, Note_on_c, 9, 36, 0
1, 149520, Note_on_c, 3, 72, 0
1, 149520, Note_on_c, 0, 60, 0
1, 149520, Note_on_c, 5, 36, 48
1, 149520, Note_on_c, 9, 69, 64
1, 149520, Note_on_c, 9, 35, 80
1, 149520, Note_on_c, 0, 57, 64
1, 149520, Note_on_c, 3, 69, 64
1, 149640, Note_on_c, 9, 35, 0
1, 149640, Note_on_c, 9, 69, 0
1, 149640, Note_on_c, 5, 36, 0
1, 149640, Note_on_c, 9, 69, 52
1, 149700, Note_on_c, 12, 36, 0
1, 149760, Note_on_c, 3, 69, 0
1, 149760, Note_on_c, 0, 57, 0
1, 149760, Note_on_c, 9, 69, 0
1, 149760, Note_on_c, 5, 36, 48
1, 149760, Note_on_c, 9, 69, 80
1, 149760, Note_on_c, 9, 35, 80
1, 149760, Note_on_c, 13, 36, 48
1, 149760, Note_on_c, 0, 60, 64
1, 149760, Note_on_c, 3, 72, 64
1, 149760, Note_on_c, 12, 36, 96
1, 149880, Note_on_c, 9, 35, 0
1, 149880, Note_on_c, 9, 69, 0
1, 149880, Note_on_c, 5, 36, 0
1, 149940, Note_on_c, 12, 36, 0
1, 150000, Note_on_c, 13, 36, 0
1, 150000, Note_on_c, 5, 36, 48
1, 150000, Note_on_c, 9, 69, 64
1, 150000, Note_on_c, 9, 53, 32
1, 150000, Note_on_c, 9, 34, 80
1, 150000, Note_on_c, 13, 36, 48
1, 150000, Note_on_c, 12, 36, 96
1, 150120, Note_on_c, 9, 34, 0
1, 150120, Note_on_c, 9, 53, 0
1, 150120, Note_on_c, 9, 69, 0
1, 150120, Note_on_c, 5, 36, 0
1, 150240, Note_on_c, 3, 72, 0
1, 150240, Note_on_c, 0, 60, 0
1, 150240, Note_on_c, 13, 36, 0
1, 150240, Note_on_c, 9, 36, 64
1, 150240, Note_on_c, 9, 40, 64
1, 150240, Note_on_c, 9, 69, 64
1, 150240, Note_on_c, 9, 33, 80
1, 150240, Note_on_c, 0, 57, 64
1, 150240, Note_on_c, 3, 69, 64
1, 150360, Note_on_c, 9, 33, 0
1, 150360, Note_on_c, 9, 69, 0
1, 150360, Note_on_c, 9, 40, 0
1, 150360, Note_on_c, 9, 36, 0
1, 150420, Note_on_c, 12, 36, 0
1, 150480, Note_on_c, 3, 69, 0
1, 150480, Note_on_c, 0, 57, 0
1, 150480, Note_on_c, 5, 36, 48
1, 150480, Note_on_c, 9, 69, 64
1, 150480, Note_on_c, 9, 35, 80
1, 150480, Note_on_c, 13, 36, 48
1, 150480, Note_on_c, 0, 62, 64
1, 150480, Note_on_c, 3, 74, 64
1, 150480, Note_on_c, 12, 36, 96
1, 150600, Note_on_c, 9, 35, 0
1, 150600, Note_on_c, 9, 69, 0
1, 150600, Note_on_c, 5, 36, 0
1, 150660, Note_on_c, 12, 36, 0
1, 150720, Note_on_c, 13, 36, 0
1, 150720, Note_on_c, 14, 60, 0
1, 150720, Note_on_c, 14, 64, 0
1, 150720, Note_on_c, 14, 57, 32
1, 150720, Note_on_c, 14, 62, 20
1, 150720, Note_on_c, 5, 36, 48
1, 150720, Note_on_c, 9, 69, 64
1, 150720, Note_on_c, 9, 35, 80
1, 150720, Note_on_c, 13, 38, 48
1, 150720, Note_on_c, 12, 38, 96
1, 150840, Note_on_c, 9, 35, 0
1, 150840, Note_on_c, 9, 69, 0
1, 150840, Note_on_c, 5, 36, 0
1, 150960, Note_on_c, 13, 38, 0
1, 150960, Note_on_c, 3, 74, 0
1, 150960, Note_on_c, 0, 62, 0
1, 150960, Note_on_c, 5, 36, 48
1, 150960, Note_on_c, 9, 69, 64
1, 150960, Note_on_c, 9, 53, 32
1, 150960, Note_on_c, 9, 35, 80
1, 150960, Note_on_c, 0, 64, 64
1, 150960, Note_on_c, 3, 76, 64
1, 151080, Note_on_c, 9, 35, 0
1, 151080, Note_on_c, 9, 53, 0
1, 151080, Note_on_c, 9, 69, 0
1, 151080, Note_on_c, 5, 36, 0
1, 151140, Note_on_c, 12, 38, 0
1, 151200, Note_on_c, 3, 76, 0
1, 151200, Note_on_c, 0, 64, 0
1, 151200, Note_on_c, 9, 36, 64
1, 151200, Note_on_c, 9, 40, 64
1, 151200, Note_on_c, 9, 69, 64
1, 151200, Note_on_c, 9, 33, 80
1, 151200, Note_on_c, 0, 60, 64
1, 151200, Note_on_c, 3, 72, 64
1, 151200, Note_on_c, 13, 38, 48
1, 151200, Note_on_c, 12, 38, 96
1, 151320, Note_on_c, 9, 33, 0
1, 151320, Note_on_c, 9, 69, 0
1, 151320, Note_on_c, 9, 40, 0
1, 151320, Note_on_c, 9, 36, 0
1, 151440, Note_on_c, 13, 38, 0
1, 151440, Note_on_c, 3, 72, 0
1, 151440, Note_on_c, 0, 60, 0
1, 151440, Note_on_c, 5, 36, 48
1, 151440, Note_on_c, 9, 69, 64
1, 151440, Note_on_c, 9, 70, 32
1, 151440, Note_on_c, 9, 33, 80
1, 151440, Note_on_c, 0, 62, 64
1, 151440, Note_on_c, 3, 74, 64
1, 151500, Note_on_c, 9, 70, 0
1, 151500, Note_on_c, 9, 70, 44
1, 151560, Note_on_c, 9, 33, 0
1, 151560, Note_on_c, 9, 70, 0
1, 151560, Note_on_c, 9, 69, 0
1, 151560, Note_on_c, 5, 36, 0
1, 151560, Note_on_c, 9, 70, 60
1, 151620, Note_on_c, 12, 38, 0
1, 151620, Note_on_c, 9, 70, 0
1, 151620, Note_on_c, 9, 70, 68
1, 151680, Note_on_c, 3, 74, 0
1, 151680, Note_on_c, 0, 62, 0
1, 151680, Note_on_c, 9, 70, 0
1, 151680, Note_on_c, 15, 64, 0
1, 151680, Note_on_c, 14, 57, 0
1, 151680, Note_on_c, 14, 62, 0
1, 151680, Note_on_c, 14, 55, 0
1, 151680, Note_on_c, 14, 55, 20
1, 151680, Note_on_c, 14, 64, 32
1, 151680, Note_on_c, 14, 60, 20
1, 151680, Note_on_c, 15, 64, 40
1, 151680, Note_on_c, 5, 36, 48
1, 151680, Note_on_c, 9, 69, 64
1, 151680, Note_on_c, 9, 35, 80
1, 151680, Note_on_c, 13, 36, 48
1, 151680, Note_on_c, 0, 64, 64
1, 151680, Note_on_c, 3, 76, 64
1, 151680, Note_on_c, 12, 36, 96
1, 151800, Note_on_c, 9, 69, 0
1, 151800, Note_on_c, 9, 35, 0
1, 151800, Note_on_c, 5, 36, 0
1, 151920, Note_on_c, 3, 76, 0
1, 151920, Note_on_c, 0, 64, 0
1, 151920, Note_on_c, 13, 36, 0
1, 151920, Note_on_c, 5, 36, 48
1, 151920, Note_on_c, 9, 69, 64
1, 151920, Note_on_c, 9, 53, 32
1, 151920, Note_on_c, 9, 34, 80
1, 151920, Note_on_c, 0, 65, 64
1, 151920, Note_on_c, 3, 77, 64
1, 152040, Note_on_c, 9, 69, 0
1, 152040, Note_on_c, 9, 53, 0
1, 152040, Note_on_c, 9, 34, 0
1, 152040, Note_on_c, 5, 36, 0
1, 152160, Note_on_c, 3, 77, 0
1, 152160, Note_on_c, 0, 65, 0
1, 152160, Note_on_c, 9, 36, 64
1, 152160, Note_on_c, 9, 40, 64
1, 152160, Note_on_c, 9, 69, 64
1, 152160, Note_on_c, 9, 33, 80
1, 152160, Note_on_c, 0, 64, 64
1, 152160, Note_on_c, 3, 76, 64
1, 152280, Note_on_c, 9, 36, 0
1, 152280, Note_on_c, 9, 40, 0
1, 152280, Note_on_c, 9, 69, 0
1, 152280, Note_on_c, 9, 33, 0
1, 152340, Note_on_c, 12, 36, 0
1, 152400, Note_on_c, 3, 76, 0
1, 152400, Note_on_c, 0, 64, 0
1, 152400, Note_on_c, 5, 36, 48
1, 152400, Note_on_c, 9, 69, 64
1, 152400, Note_on_c, 9, 35, 80
1, 152400, Note_on_c, 13, 36, 48
1, 152400, Note_on_c, 0, 62, 64
1, 152400, Note_on_c, 3, 74, 64
1, 152400, Note_on_c, 12, 36, 96
1, 152520, Note_on_c, 9, 69, 0
1, 152520, Note_on_c, 9, 35, 0
1, 152520, Note_on_c, 5, 36, 0
1, 152580, Note_on_c, 12, 36, 0
1, 152640, Note_on_c, 3, 74, 0
1, 152640, Note_on_c, 0, 62, 0
1, 152640, Note_on_c, 13, 36, 0
1, 152640, Note_on_c, 5, 36, 48
1, 152640, Note_on_c, 9, 69, 64
1, 152640, Note_on_c, 9, 35, 80
1, 152640, Note_on_c, 13, 36, 48
1, 152640, Note_on_c, 0, 60, 64
1, 152640, Note_on_c, 3, 72, 64
1, 152640, Note_on_c, 12, 36, 96
1, 152760, Note_on_c, 9, 69, 0
1, 152760, Note_on_c, 9, 35, 0
1, 152760, Note_on_c, 5, 36, 0
1, 152880, Note_on_c, 3, 72, 0
1, 152880, Note_on_c, 0, 60, 0
1, 152880, Note_on_c, 13, 36, 0
1, 152880, Note_on_c, 5, 36, 48
1, 152880, Note_on_c, 9, 69, 64
1, 152880, Note_on_c, 9, 53, 32
1, 152880, Note_on_c, 9, 34, 80
1, 153000, Note_on_c, 9, 69, 0
1, 153000, Note_on_c, 9, 53, 0
1, 153000, Note_on_c, 9, 34, 0
1, 153000, Note_on_c, 5, 36, 0
1, 153120, Note_on_c, 9, 36, 64
1, 153120, Note_on_c, 9, 40, 64
1, 153120, Note_on_c, 9, 69, 64
1, 153120, Note_on_c, 9, 33, 80
1, 153120, Note_on_c, 3, 72, 64
1, 153120, Note_on_c, 0, 60, 64
1, 153240, Note_on_c, 9, 36, 0
1, 153240, Note_on_c, 9, 40, 0
1, 153240, Note_on_c, 9, 69, 0
1, 153240, Note_on_c, 9, 33, 0
1, 153360, Note_on_c, 0, 60, 0
1, 153360, Note_on_c, 3, 72, 0
1, 153360, Note_on_c, 5, 36, 48
1, 153360, Note_on_c, 9, 69, 64
1, 153360, Note_on_c, 9, 35, 80
1, 153360, Note_on_c, 3, 69, 64
1, 153360, Note_on_c, 0, 62, 64
1, 153480, Note_on_c, 9, 69, 0
1, 153480, Note_on_c, 9, 35, 0
1, 153480, Note_on_c, 5, 36, 0
1, 153480, Note_on_c, 9, 69, 52
1, 153540, Note_on_c, 12, 36, 0
1, 153600, Note_on_c, 3, 69, 0
1, 153600, Note_on_c, 9, 69, 0
1, 153600, Note_on_c, 5, 36, 48
1, 153600, Note_on_c, 9, 69, 80
1, 153600, Note_on_c, 9, 35, 80
1, 153600, Note_on_c, 13, 36, 48
1, 153600, Note_on_c, 12, 36, 96
1, 153720, Note_on_c, 9, 69, 0
1, 153720, Note_on_c, 9, 35, 0
1, 153720, Note_on_c, 5, 36, 0
1, 153780, Note_on_c, 12, 36, 0
1, 153840, Note_on_c, 0, 62, 0
1, 153840, Note_on_c, 13, 36, 0
1, 153840, Note_on_c, 5, 36, 48
1, 153840, Note_on_c, 9, 69, 64
1, 153840, Note_on_c, 9, 53, 32
1, 153840, Note_on_c, 9, 34, 80
1, 153840, Note_on_c, 13, 36, 48
1, 153840, Note_on_c, 3, 76, 64
1, 153840, Note_on_c, 0, 64, 64
1, 153840, Note_on_c, 12, 36, 96
1, 153960, Note_on_c, 9, 69, 0
1, 153960, Note_on_c, 9, 53, 0
1, 153960, Note_on_c, 9, 34, 0
1, 153960, Note_on_c, 5, 36, 0
1, 154080, Note_on_c, 13, 36, 0
1, 154080, Note_on_c, 9, 36, 64
1, 154080, Note_on_c, 9, 40, 64
1, 154080, Note_on_c, 9, 69, 64
1, 154080, Note_on_c, 9, 33, 80
1, 154200, Note_on_c, 9, 36, 0
1, 154200, Note_on_c, 9, 40, 0
1, 154200, Note_on_c, 9, 69, 0
1, 154200, Note_on_c, 9, 33, 0
1, 154260, Note_on_c, 12, 36, 0
1, 154320, Note_on_c, 3, 76, 0
1, 154320, Note_on_c, 5, 36, 48
1, 154320, Note_on_c, 9, 69, 64
1, 154320, Note_on_c, 9, 35, 80
1, 154320, Note_on_c, 13, 36, 48
1, 154320, Note_on_c, 3, 69, 64
1, 154320, Note_on_c, 12, 36, 96
1, 154440, Note_on_c, 9, 69, 0
1, 154440, Note_on_c, 9, 35, 0
1, 154440, Note_on_c, 5, 36, 0
1, 154500, Note_on_c, 12, 36, 0
1, 154500, Note_on_c, 6, 69, 64
1, 154560, Note_on_c, 6, 69, 0
1, 154560, Note_on_c, 0, 64, 0
1, 154560, Note_on_c, 3, 69, 0
1, 154560, Note_on_c, 13, 36, 0
1, 154560, Note_on_c, 14, 64, 0
1, 154560, Note_on_c, 14, 60, 0
1, 154560, Note_on_c, 14, 57, 32
1, 154560, Note_on_c, 14, 62, 20
1, 154560, Note_on_c, 5, 36, 48
1, 154560, Note_on_c, 9, 69, 64
1, 154560, Note_on_c, 9, 35, 80
1, 154560, Note_on_c, 13, 31, 48
1, 154560, Note_on_c, 3, 67, 64
1, 154560, Note_on_c, 0, 55, 64
1, 154560, Note_on_c, 6, 76, 64
1, 154560, Note_on_c, 12, 31, 96
1, 154680, Note_on_c, 6, 76, 0
1, 154680, Note_on_c, 9, 69, 0
1, 154680, Note_on_c, 9, 35, 0
1, 154680, Note_on_c, 5, 36, 0
1, 154800, Note_on_c, 13, 31, 0
1, 154800, Note_on_c, 5, 36, 48
1, 154800, Note_on_c, 9, 69, 64
1, 154800, Note_on_c, 9, 53, 32
1, 154800, Note_on_c, 9, 35, 80
1, 154800, Note_on_c, 6, 72, 64
1, 154920, Note_on_c, 6, 72, 0
1, 154920, Note_on_c, 9, 69, 0
1, 154920, Note_on_c, 9, 53, 0
1, 154920, Note_on_c, 9, 35, 0
1, 154920, Note_on_c, 5, 36, 0
1, 154980, Note_on_c, 12, 31, 0
1, 155040, Note_on_c, 0, 55, 0
1, 155040, Note_on_c, 3, 67, 0
1, 155040, Note_on_c, 9, 36, 64
1, 155040, Note_on_c, 9, 40, 64
1, 155040, Note_on_c, 9, 69, 64
1, 155040, Note_on_c, 9, 33, 80
1, 155040, Note_on_c, 13, 31, 48
1, 155040, Note_on_c, 6, 69, 64
1, 155040, Note_on_c, 12, 31, 96
1, 155040, Note_on_c, 3, 72, 64
1, 155040, Note_on_c, 0, 60, 64
1, 155160, Note_on_c, 9, 36, 0
1, 155160, Note_on_c, 9, 40, 0
1, 155160, Note_on_c, 9, 69, 0
1, 155160, Note_on_c, 9, 33, 0
1, 155280, Note_on_c, 0, 60, 0
1, 155280, Note_on_c, 3, 72, 0
1, 155280, Note_on_c, 6, 69, 0
1, 155280, Note_on_c, 13, 31, 0
1, 155280, Note_on_c, 5, 36, 48
1, 155280, Note_on_c, 9, 69, 64
1, 155280, Note_on_c, 9, 70, 32
1, 155280, Note_on_c, 9, 33, 80
1, 155280, Note_on_c, 6, 67, 64
1, 155280, Note_on_c, 3, 74, 64
1, 155280, Note_on_c, 0, 62, 64
1, 155340, Note_on_c, 9, 70, 0
1, 155340, Note_on_c, 9, 70, 44
1, 155400, Note_on_c, 6, 67, 0
1, 155400, Note_on_c, 9, 69, 0
1, 155400, Note_on_c, 9, 70, 0
1, 155400, Note_on_c, 9, 33, 0
1, 155400, Note_on_c, 5, 36, 0
1, 155400, Note_on_c, 9, 70, 60
1, 155460, Note_on_c, 12, 31, 0
1, 155460, Note_on_c, 9, 70, 0
1, 155460, Note_on_c, 9, 70, 68
1, 155520, Note_on_c, 0, 62, 0
1, 155520, Note_on_c, 3, 74, 0
1, 155520, Note_on_c, 9, 70, 0
1, 155520, Note_on_c, 2, 52, 0
1, 155520, Note_on_c, 15, 64, 0
1, 155520, Note_on_c, 14, 62, 0
1, 155520, Note_on_c, 14, 55, 0
1, 155520, Note_on_c, 14, 57, 0
1, 155520, Note_on_c, 14, 55, 20
1, 155520, Note_on_c, 14, 64, 32
1, 155520, Note_on_c, 14, 60, 20
1, 155520, Note_on_c, 15, 64, 40
1, 155520, Note_on_c, 5, 36, 48
1, 155520, Note_on_c, 9, 69, 64
1, 155520, Note_on_c, 2, 52, 52
1, 155520, Note_on_c, 9, 35, 80
1, 155520, Note_on_c, 13, 36, 48
1, 155520, Note_on_c, 0, 64, 64
1, 155520, Note_on_c, 3, 76, 64
1, 155520, Note_on_c, 12, 36, 96
1, 155640, Note_on_c, 9, 35, 0
1, 155640, Note_on_c, 9, 69, 0
1, 155640, Note_on_c, 5, 36, 0
1, 155760, Note_on_c, 13, 36, 0
1, 155760, Note_on_c, 0, 64, 0
1, 155760, Note_on_c, 3, 76, 0
1, 155760, Note_on_c, 5, 36, 48
1, 155760, Note_on_c, 9, 69, 64
1, 155760, Note_on_c, 9, 53, 32
1, 155760, Note_on_c, 9, 34, 80
1, 155760, Note_on_c, 0, 65, 64
1, 155760, Note_on_c, 3, 77, 64
1, 155880, Note_on_c, 9, 34, 0
1, 155880, Note_on_c, 9, 53, 0
1, 155880, Note_on_c, 9, 69, 0
1, 155880, Note_on_c, 5, 36, 0
1, 156000, Note_on_c, 0, 65, 0
1, 156000, Note_on_c, 3, 77, 0
1, 156000, Note_on_c, 9, 36, 64
1, 156000, Note_on_c, 9, 40, 64
1, 156000, Note_on_c, 9, 69, 64
1, 156000, Note_on_c, 9, 33, 80
1, 156000, Note_on_c, 0, 64, 64
1, 156000, Note_on_c, 3, 76, 64
1, 156120, Note_on_c, 9, 33, 0
1, 156120, Note_on_c, 9, 69, 0
1, 156120, Note_on_c, 9, 40, 0
1, 156120, Note_on_c, 9, 36, 0
1, 156180, Note_on_c, 12, 36, 0
1, 156240, Note_on_c, 0, 64, 0
1, 156240, Note_on_c, 3, 76, 0
1, 156240, Note_on_c, 5, 36, 48
1, 156240, Note_on_c, 9, 69, 64
1, 156240, Note_on_c, 9, 35, 80
1, 156240, Note_on_c, 13, 36, 48
1, 156240, Note_on_c, 0, 62, 64
1, 156240, Note_on_c, 3, 74, 64
1, 156240, Note_on_c, 12, 36, 96
1, 156360, Note_on_c, 9, 35, 0
1, 156360, Note_on_c, 9, 69, 0
1, 156360, Note_on_c, 5, 36, 0
1, 156420, Note_on_c, 12, 36, 0
1, 156480, Note_on_c, 13, 36, 0
1, 156480, Note_on_c, 0, 62, 0
1, 156480, Note_on_c, 3, 74, 0
1, 156480, Note_on_c, 5, 36, 48
1, 156480, Note_on_c, 9, 69, 64
1, 156480, Note_on_c, 9, 35, 80
1, 156480, Note_on_c, 13, 36, 48
1, 156480, Note_on_c, 3, 72, 64
1, 156480, Note_on_c, 0, 60, 64
1, 156480, Note_on_c, 12, 36, 96
1, 156600, Note_on_c, 9, 35, 0
1, 156600, Note_on_c, 9, 69, 0
1, 156600, Note_on_c, 5, 36, 0
1, 156720, Note_on_c, 13, 36, 0
1, 156720, Note_on_c, 5, 36, 48
1, 156720, Note_on_c, 9, 69, 64
1, 156720, Note_on_c, 9, 53, 32
1, 156720, Note_on_c, 9, 34, 80
1, 156840, Note_on_c, 9, 34, 0
1, 156840, Note_on_c, 9, 53, 0
1, 156840, Note_on_c, 9, 69, 0
1, 156840, Note_on_c, 5, 36, 0
1, 156900, Note_on_c, 3, 72, 0
1, 156960, Note_on_c, 0, 60, 0
1, 156960, Note_on_c, 9, 36, 64
1, 156960, Note_on_c, 9, 40, 64
1, 156960, Note_on_c, 9, 69, 64
1, 156960, Note_on_c, 9, 33, 80
1, 156960, Note_on_c, 0, 60, 64
1, 156960, Note_on_c, 3, 72, 64
1, 157080, Note_on_c, 9, 33, 0
1, 157080, Note_on_c, 9, 69, 0
1, 157080, Note_on_c, 9, 40, 0
1, 157080, Note_on_c, 9, 36, 0
1, 157200, Note_on_c, 0, 60, 0
1, 157200, Note_on_c, 3, 72, 0
1, 157200, Note_on_c, 5, 36, 48
1, 157200, Note_on_c, 9, 69, 64
1, 157200, Note_on_c, 9, 35, 80
1, 157200, Note_on_c, 0, 57, 64
1, 157200, Note_on_c, 3, 69, 64
1, 157320, Note_on_c, 9, 35, 0
1, 157320, Note_on_c, 9, 69, 0
1, 157320, Note_on_c, 5, 36, 0
1, 157320, Note_on_c, 9, 69, 52
1, 157380, Note_on_c, 12, 36, 0
1, 157440, Note_on_c, 9, 69, 0
1, 157440, Note_on_c, 0, 57, 0
1, 157440, Note_on_c, 3, 69, 0
1, 157440, Note_on_c, 5, 36, 48
1, 157440, Note_on_c, 9, 69, 80
1, 157440, Note_on_c, 9, 35, 80
1, 157440, Note_on_c, 0, 60, 64
1, 157440, Note_on_c, 13, 36, 48
1, 157440, Note_on_c, 3, 72, 64
1, 157440, Note_on_c, 12, 36, 96
1, 157560, Note_on_c, 9, 35, 0
1, 157560, Note_on_c, 9, 69, 0
1, 157560, Note_on_c, 5, 36, 0
1, 157620, Note_on_c, 12, 36, 0
1, 157680, Note_on_c, 0, 60, 0
1, 157680, Note_on_c, 13, 36, 0
1, 157680, Note_on_c, 5, 36, 48
1, 157680, Note_on_c, 9, 69, 64
1, 157680, Note_on_c, 9, 53, 32
1, 157680, Note_on_c, 9, 34, 80
1, 157680, Note_on_c, 13, 36, 48
1, 157680, Note_on_c, 12, 36, 96
1, 157800, Note_on_c, 9, 34, 0
1, 157800, Note_on_c, 9, 53, 0
1, 157800, Note_on_c, 9, 69, 0
1, 157800, Note_on_c, 5, 36, 0
1, 157860, Note_on_c, 3, 72, 0
1, 157920, Note_on_c, 13, 36, 0
1, 157920, Note_on_c, 9, 36, 64
1, 157920, Note_on_c, 9, 40, 64
1, 157920, Note_on_c, 9, 69, 64
1, 157920, Note_on_c, 9, 33, 80
1, 157920, Note_on_c, 0, 57, 64
1, 157920, Note_on_c, 3, 69, 64
1, 158040, Note_on_c, 9, 33, 0
1, 158040, Note_on_c, 9, 69, 0
1, 158040, Note_on_c, 9, 40, 0
1, 158040, Note_on_c, 9, 36, 0
1, 158100, Note_on_c, 12, 36, 0
1, 158160, Note_on_c, 0, 57, 0
1, 158160, Note_on_c, 3, 69, 0
1, 158160, Note_on_c, 5, 36, 48
1, 158160, Note_on_c, 9, 69, 64
1, 158160, Note_on_c, 9, 35, 80
1, 158160, Note_on_c, 13, 36, 48
1, 158160, Note_on_c, 3, 74, 64
1, 158160, Note_on_c, 0, 62, 64
1, 158160, Note_on_c, 12, 36, 96
1, 158280, Note_on_c, 9, 35, 0
1, 158280, Note_on_c, 9, 69, 0
1, 158280, Note_on_c, 5, 36, 0
1, 158340, Note_on_c, 12, 36, 0
1, 158400, Note_on_c, 14, 60, 0
1, 158400, Note_on_c, 14, 64, 0
1, 158400, Note_on_c, 13, 36, 0
1, 158400, Note_on_c, 14, 57, 32
1, 158400, Note_on_c, 14, 62, 20
1, 158400, Note_on_c, 5, 36, 48
1, 158400, Note_on_c, 9, 69, 64
1, 158400, Note_on_c, 9, 35, 80
1, 158400, Note_on_c, 13, 38, 48
1, 158400, Note_on_c, 12, 38, 96
1, 158520, Note_on_c, 9, 35, 0
1, 158520, Note_on_c, 9, 69, 0
1, 158520, Note_on_c, 5, 36, 0
1, 158640, Note_on_c, 3, 74, 0
1, 158640, Note_on_c, 13, 38, 0
1, 158640, Note_on_c, 5, 36, 48
1, 158640, Note_on_c, 9, 69, 64
1, 158640, Note_on_c, 9, 53, 32
1, 158640, Note_on_c, 9, 35, 80
1, 158640, Note_on_c, 3, 76, 64
1, 158760, Note_on_c, 9, 35, 0
1, 158760, Note_on_c, 9, 53, 0
1, 158760, Note_on_c, 9, 69, 0
1, 158760, Note_on_c, 5, 36, 0
1, 158820, Note_on_c, 12, 38, 0
1, 158880, Note_on_c, 3, 76, 0
1, 158880, Note_on_c, 0, 62, 0
1, 158880, Note_on_c, 9, 36, 64
1, 158880, Note_on_c, 9, 40, 64
1, 158880, Note_on_c, 9, 69, 64
1, 158880, Note_on_c, 9, 33, 80
1, 158880, Note_on_c, 0, 60, 64
1, 158880, Note_on_c, 3, 72, 64
1, 158880, Note_on_c, 13, 38, 48
1, 158880, Note_on_c, 12, 38, 96
1, 159000, Note_on_c, 9, 33, 0
1, 159000, Note_on_c, 9, 69, 0
1, 159000, Note_on_c, 9, 40, 0
1, 159000, Note_on_c, 9, 36, 0
1, 159120, Note_on_c, 0, 60, 0
1, 159120, Note_on_c, 3, 72, 0
1, 159120, Note_on_c, 13, 38, 0
1, 159120, Note_on_c, 5, 36, 48
1, 159120, Note_on_c, 9, 69, 64
1, 159120, Note_on_c, 9, 70, 32
1, 159120, Note_on_c, 9, 33, 80
1, 159120, Note_on_c, 0, 62, 64
1, 159120, Note_on_c, 3, 74, 64
1, 159180, Note_on_c, 9, 70, 0
1, 159180, Note_on_c, 9, 70, 44
1, 159240, Note_on_c, 9, 33, 0
1, 159240, Note_on_c, 9, 70, 0
1, 159240, Note_on_c, 9, 69, 0
1, 159240, Note_on_c, 5, 36, 0
1, 159240, Note_on_c, 9, 70, 60
1, 159300, Note_on_c, 9, 70, 0
1, 159300, Note_on_c, 12, 38, 0
1, 159300, Note_on_c, 9, 70, 68
1, 159360, Note_on_c, 9, 70, 0
1, 159360, Note_on_c, 15, 64, 0
1, 159360, Note_on_c, 14, 57, 0
1, 159360, Note_on_c, 14, 62, 0
1, 159360, Note_on_c, 14, 55, 0
1, 159360, Note_on_c, 0, 62, 0
1, 159360, Note_on_c, 3, 74, 0
1, 159360, Note_on_c, 14, 55, 20
1, 159360, Note_on_c, 14, 64, 32
1, 159360, Note_on_c, 14, 60, 20
1, 159360, Note_on_c, 15, 64, 40
1, 159360, Note_on_c, 5, 36, 48
1, 159360, Note_on_c, 9, 69, 64
1, 159360, Note_on_c, 9, 35, 80
1, 159360, Note_on_c, 13, 36, 48
1, 159360, Note_on_c, 0, 64, 64
1, 159360, Note_on_c, 3, 76, 64
1, 159360, Note_on_c, 12, 36, 96
1, 159480, Note_on_c, 9, 69, 0
1, 159480, Note_on_c, 9, 35, 0
1, 159480, Note_on_c, 5, 36, 0
1, 159600, Note_on_c, 13, 36, 0
1, 159600, Note_on_c, 0, 64, 0
1, 159600, Note_on_c, 3, 76, 0
1, 159600, Note_on_c, 5, 36, 48
1, 159600, Note_on_c, 9, 69, 64
1, 159600, Note_on_c, 9, 53, 32
1, 159600, Note_on_c, 9, 34, 80
1, 159600, Note_on_c, 0, 65, 64
1, 159600, Note_on_c, 3, 77, 64
1, 159720, Note_on_c, 9, 69, 0
1, 159720, Note_on_c, 9, 53, 0
1, 159720, Note_on_c, 9, 34, 0
1, 159720, Note_on_c, 5, 36, 0
1, 159840, Note_on_c, 0, 65, 0
1, 159840, Note_on_c, 3, 77, 0
1, 159840, Note_on_c, 9, 36, 64
1, 159840, Note_on_c, 9, 40, 64
1, 159840, Note_on_c, 9, 69, 64
1, 159840, Note_on_c, 9, 33, 80
1, 159840, Note_on_c, 3, 76, 64
1, 159840, Note_on_c, 0, 64, 64
1, 159960, Note_on_c, 9, 36, 0
1, 159960, Note_on_c, 9, 40, 0
1, 159960, Note_on_c, 9, 69, 0
1, 159960, Note_on_c, 9, 33, 0
1, 160020, Note_on_c, 12, 36, 0
1, 160080, Note_on_c, 3, 76, 0
1, 160080, Note_on_c, 0, 64, 0
1, 160080, Note_on_c, 5, 36, 48
1, 160080, Note_on_c, 9, 69, 64
1, 160080, Note_on_c, 9, 35, 80
1, 160080, Note_on_c, 13, 36, 48
1, 160080, Note_on_c, 3, 74, 64
1, 160080, Note_on_c, 0, 60, 64
1, 160080, Note_on_c, 12, 36, 96
1, 160200, Note_on_c, 9, 69, 0
1, 160200, Note_on_c, 9, 35, 0
1, 160200, Note_on_c, 5, 36, 0
1, 160260, Note_on_c, 12, 36, 0
1, 160320, Note_on_c, 13, 36, 0
1, 160320, Note_on_c, 3, 74, 0
1, 160320, Note_on_c, 5, 36, 48
1, 160320, Note_on_c, 9, 69, 64
1, 160320, Note_on_c, 9, 35, 80
1, 160320, Note_on_c, 13, 36, 48
1, 160320, Note_on_c, 3, 72, 64
1, 160320, Note_on_c, 12, 36, 96
1, 160440, Note_on_c, 9, 69, 0
1, 160440, Note_on_c, 9, 35, 0
1, 160440, Note_on_c, 5, 36, 0
1, 160560, Note_on_c, 13, 36, 0
1, 160560, Note_on_c, 5, 36, 48
1, 160560, Note_on_c, 9, 69, 64
1, 160560, Note_on_c, 9, 53, 32
1, 160560, Note_on_c, 9, 34, 80
1, 160680, Note_on_c, 9, 69, 0
1, 160680, Note_on_c, 9, 53, 0
1, 160680, Note_on_c, 9, 34, 0
1, 160680, Note_on_c, 5, 36, 0
1, 160740, Note_on_c, 3, 72, 0
1, 160800, Note_on_c, 9, 36, 64
1, 160800, Note_on_c, 9, 40, 64
1, 160800, Note_on_c, 9, 69, 64
1, 160800, Note_on_c, 9, 33, 80
1, 160800, Note_on_c, 3, 72, 64
1, 160920, Note_on_c, 9, 36, 0
1, 160920, Note_on_c, 9, 40, 0
1, 160920, Note_on_c, 9, 69, 0
1, 160920, Note_on_c, 9, 33, 0
1, 161040, Note_on_c, 3, 72, 0
1, 161040, Note_on_c, 0, 60, 0
1, 161040, Note_on_c, 5, 36, 48
1, 161040, Note_on_c, 9, 69, 64
1, 161040, Note_on_c, 9, 35, 80
1, 161040, Note_on_c, 3, 69, 64
1, 161040, Note_on_c, 0, 57, 64
1, 161160, Note_on_c, 9, 69, 0
1, 161160, Note_on_c, 9, 35, 0
1, 161160, Note_on_c, 5, 36, 0
1, 161160, Note_on_c, 9, 69, 52
1, 161220, Note_on_c, 12, 36, 0
1, 161280, Note_on_c, 9, 69, 0
1, 161280, Note_on_c, 5, 36, 48
1, 161280, Note_on_c, 9, 69, 80
1, 161280, Note_on_c, 9, 35, 80
1, 161280, Note_on_c, 13, 36, 48
1, 161280, Note_on_c, 12, 36, 96
1, 161400, Note_on_c, 9, 69, 0
1, 161400, Note_on_c, 9, 35, 0
1, 161400, Note_on_c, 5, 36, 0
1, 161460, Note_on_c, 3, 69, 0
1, 161460, Note_on_c, 12, 36, 0
1, 161520, Note_on_c, 13, 36, 0
1, 161520, Note_on_c, 5, 36, 48
1, 161520, Note_on_c, 9, 69, 64
1, 161520, Note_on_c, 9, 53, 32
1, 161520, Note_on_c, 9, 34, 80
1, 161520, Note_on_c, 13, 36, 48
1, 161520, Note_on_c, 3, 76, 64
1, 161520, Note_on_c, 12, 36, 96
1, 161640, Note_on_c, 9, 69, 0
1, 161640, Note_on_c, 9, 53, 0
1, 161640, Note_on_c, 9, 34, 0
1, 161640, Note_on_c, 5, 36, 0
1, 161760, Note_on_c, 13, 36, 0
1, 161760, Note_on_c, 9, 36, 64
1, 161760, Note_on_c, 9, 40, 64
1, 161760, Note_on_c, 9, 69, 64
1, 161760, Note_on_c, 9, 33, 80
1, 161880, Note_on_c, 9, 36, 0
1, 161880, Note_on_c, 9, 40, 0
1, 161880, Note_on_c, 9, 69, 0
1, 161880, Note_on_c, 9, 33, 0
1, 161940, Note_on_c, 12, 36, 0
1, 162000, Note_on_c, 3, 76, 0
1, 162000, Note_on_c, 5, 36, 48
1, 162000, Note_on_c, 9, 69, 64
1, 162000, Note_on_c, 9, 35, 80
1, 162000, Note_on_c, 13, 36, 48
1, 162000, Note_on_c, 3, 69, 64
1, 162000, Note_on_c, 12, 36, 96
1, 162120, Note_on_c, 9, 69, 0
1, 162120, Note_on_c, 9, 35, 0
1, 162120, Note_on_c, 5, 36, 0
1, 162180, Note_on_c, 12, 36, 0
1, 162240, Note_on_c, 14, 64, 0
1, 162240, Note_on_c, 14, 60, 0
1, 162240, Note_on_c, 13, 36, 0
1, 162240, Note_on_c, 3, 69, 0
1, 162240, Note_on_c, 0, 57, 0
1, 162240, Note_on_c, 14, 57, 32
1, 162240, Note_on_c, 14, 62, 20
1, 162240, Note_on_c, 5, 36, 48
1, 162240, Note_on_c, 9, 69, 64
1, 162240, Note_on_c, 9, 35, 80
1, 162240, Note_on_c, 13, 31, 48
1, 162240, Note_on_c, 3, 67, 64
1, 162240, Note_on_c, 6, 67, 64
1, 162240, Note_on_c, 0, 55, 64
1, 162240, Note_on_c, 12, 31, 96
1, 162360, Note_on_c, 9, 69, 0
1, 162360, Note_on_c, 9, 35, 0
1, 162360, Note_on_c, 5, 36, 0
1, 162360, Note_on_c, 6, 67, 0
1, 162360, Note_on_c, 6, 69, 64
1, 162480, Note_on_c, 13, 31, 0
1, 162480, Note_on_c, 3, 67, 0
1, 162480, Note_on_c, 6, 69, 0
1, 162480, Note_on_c, 5, 36, 48
1, 162480, Note_on_c, 9, 69, 64
1, 162480, Note_on_c, 9, 53, 32
1, 162480, Note_on_c, 9, 35, 80
1, 162480, Note_on_c, 3, 67, 64
1, 162480, Note_on_c, 6, 72, 64
1, 162600, Note_on_c, 9, 69, 0
1, 162600, Note_on_c, 9, 53, 0
1, 162600, Note_on_c, 9, 35, 0
1, 162600, Note_on_c, 5, 36, 0
1, 162600, Note_on_c, 6, 72, 0
1, 162660, Note_on_c, 12, 31, 0
1, 162720, Note_on_c, 3, 67, 0
1, 162720, Note_on_c, 0, 55, 0
1, 162720, Note_on_c, 9, 36, 64
1, 162720, Note_on_c, 9, 40, 64
1, 162720, Note_on_c, 9, 69, 64
1, 162720, Note_on_c, 9, 33, 80
1, 162720, Note_on_c, 13, 31, 80
1, 162720, Note_on_c, 0, 60, 64
1, 162720, Note_on_c, 3, 72, 64
1, 162720, Note_on_c, 6, 69, 64
1, 162720, Note_on_c, 12, 31, 96
1, 162840, Note_on_c, 9, 36, 0
1, 162840, Note_on_c, 9, 40, 0
1, 162840, Note_on_c, 9, 69, 0
1, 162840, Note_on_c, 9, 33, 0
1, 162960, Note_on_c, 13, 31, 0
1, 162960, Note_on_c, 0, 60, 0
1, 162960, Note_on_c, 3, 72, 0
1, 162960, Note_on_c, 6, 69, 0
1, 162960, Note_on_c, 5, 36, 48
1, 162960, Note_on_c, 9, 69, 64
1, 162960, Note_on_c, 9, 70, 32
1, 162960, Note_on_c, 9, 33, 80
1, 162960, Note_on_c, 0, 62, 64
1, 162960, Note_on_c, 3, 74, 64
1, 162960, Note_on_c, 6, 67, 64
1, 163020, Note_on_c, 9, 70, 0
1, 163020, Note_on_c, 9, 70, 44
1, 163080, Note_on_c, 9, 69, 0
1, 163080, Note_on_c, 9, 70, 0
1, 163080, Note_on_c, 9, 33, 0
1, 163080, Note_on_c, 5, 36, 0
1, 163080, Note_on_c, 9, 70, 60
1, 163140, Note_on_c, 9, 70, 0
1, 163140, Note_on_c, 12, 31, 0
1, 163140, Note_on_c, 9, 70, 68
1, 163200, Note_on_c, 2, 52, 0
1, 163200, Note_on_c, 15, 64, 0
1, 163200, Note_on_c, 14, 62, 0
1, 163200, Note_on_c, 14, 55, 0
1, 163200, Note_on_c, 14, 57, 0
1, 163200, Note_on_c, 0, 62, 0
1, 163200, Note_on_c, 3, 74, 0
1, 163200, Note_on_c, 6, 67, 0
1, 163200, Note_on_c, 9, 70, 0
1, 163200, Note_on_c, 3, 76, 64
1, 163200, Note_on_c, 0, 64, 64
1, 163200, Note_on_c, 12, 45, 110
1, 163200, Note_on_c, 13, 45, 64
1, 163200, Note_on_c, 9, 69, 64
1, 163200, Note_on_c, 9, 35, 80
1, 163200, Note_on_c, 14, 69, 25
1, 163200, Note_on_c, 14, 62, 18
1, 163320, Note_on_c, 9, 35, 0
1, 163320, Note_on_c, 9, 69, 0
1, 163440, Note_on_c, 13, 45, 0
1, 163440, Note_on_c, 12, 45, 0
1, 163440, Note_on_c, 0, 64, 0
1, 163440, Note_on_c, 3, 76, 0
1, 163440, Note_on_c, 3, 77, 64
1, 163440, Note_on_c, 0, 65, 64
1, 163440, Note_on_c, 9, 69, 64
1, 163440, Note_on_c, 9, 53, 32
1, 163440, Note_on_c, 9, 34, 80
1, 163560, Note_on_c, 9, 34, 0
1, 163560, Note_on_c, 9, 53, 0
1, 163560, Note_on_c, 9, 69, 0
1, 163680, Note_on_c, 0, 65, 0
1, 163680, Note_on_c, 3, 77, 0
1, 163680, Note_on_c, 3, 76, 64
1, 163680, Note_on_c, 0, 64, 64
1, 163680, Note_on_c, 9, 40, 64
1, 163680, Note_on_c, 9, 69, 64
1, 163680, Note_on_c, 9, 33, 80
1, 163680, Note_on_c, 9, 34, 64
1, 163800, Note_on_c, 9, 34, 0
1, 163800, Note_on_c, 9, 33, 0
1, 163800, Note_on_c, 9, 69, 0
1, 163800, Note_on_c, 9, 40, 0
1, 163920, Note_on_c, 14, 62, 0
1, 163920, Note_on_c, 14, 69, 0
1, 163920, Note_on_c, 12, 43, 110
1, 163920, Note_on_c, 13, 43, 64
1, 163920, Note_on_c, 9, 69, 64
1, 163920, Note_on_c, 9, 35, 80
1, 163920, Note_on_c, 14, 67, 25
1, 163920, Note_on_c, 14, 64, 18
1, 164040, Note_on_c, 9, 35, 0
1, 164040, Note_on_c, 9, 69, 0
1, 164160, Note_on_c, 13, 43, 0
1, 164160, Note_on_c, 12, 43, 0
1, 164160, Note_on_c, 0, 64, 0
1, 164160, Note_on_c, 3, 76, 0
1, 164160, Note_on_c, 9, 69, 64
1, 164160, Note_on_c, 9, 35, 80
1, 164280, Note_on_c, 9, 35, 0
1, 164280, Note_on_c, 9, 69, 0
1, 164400, Note_on_c, 3, 67, 64
1, 164400, Note_on_c, 0, 55, 64
1, 164400, Note_on_c, 9, 69, 64
1, 164400, Note_on_c, 9, 53, 32
1, 164400, Note_on_c, 9, 34, 80
1, 164520, Note_on_c, 9, 34, 0
1, 164520, Note_on_c, 9, 53, 0
1, 164520, Note_on_c, 9, 69, 0
1, 164640, Note_on_c, 0, 55, 0
1, 164640, Note_on_c, 3, 67, 0
1, 164640, Note_on_c, 3, 72, 64
1, 164640, Note_on_c, 0, 60, 64
1, 164640, Note_on_c, 9, 36, 64
1, 164640, Note_on_c, 9, 40, 64
1, 164640, Note_on_c, 9, 69, 64
1, 164640, Note_on_c, 9, 33, 80
1, 164760, Note_on_c, 9, 33, 0
1, 164760, Note_on_c, 9, 69, 0
1, 164760, Note_on_c, 9, 40, 0
1, 164760, Note_on_c, 9, 36, 0
1, 164880, Note_on_c, 0, 60, 0
1, 164880, Note_on_c, 3, 72, 0
1, 164880, Note_on_c, 3, 74, 64
1, 164880, Note_on_c, 0, 62, 64
1, 164880, Note_on_c, 9, 69, 64
1, 164880, Note_on_c, 9, 35, 80
1, 165000, Note_on_c, 9, 35, 0
1, 165000, Note_on_c, 9, 69, 0
1, 165000, Note_on_c, 9, 69, 52
1, 165120, Note_on_c, 14, 64, 0
1, 165120, Note_on_c, 14, 67, 0
1, 165120, Note_on_c, 9, 69, 0
1, 165120, Note_on_c, 0, 62, 0
1, 165120, Note_on_c, 3, 74, 0
1, 165120, Note_on_c, 3, 76, 64
1, 165120, Note_on_c, 0, 64, 64
1, 165120, Note_on_c, 12, 36, 110
1, 165120, Note_on_c, 13, 36, 64
1, 165120, Note_on_c, 9, 69, 80
1, 165120, Note_on_c, 9, 35, 80
1, 165120, Note_on_c, 14, 60, 25
1, 165120, Note_on_c, 14, 64, 25
1, 165240, Note_on_c, 9, 35, 0
1, 165240, Note_on_c, 9, 69, 0
1, 165360, Note_on_c, 13, 36, 0
1, 165360, Note_on_c, 12, 36, 0
1, 165360, Note_on_c, 9, 69, 64
1, 165360, Note_on_c, 9, 53, 32
1, 165360, Note_on_c, 9, 34, 80
1, 165480, Note_on_c, 9, 34, 0
1, 165480, Note_on_c, 9, 53, 0
1, 165480, Note_on_c, 9, 69, 0
1, 165600, Note_on_c, 0, 64, 0
1, 165600, Note_on_c, 3, 76, 0
1, 165600, Note_on_c, 3, 77, 64
1, 165600, Note_on_c, 0, 65, 64
1, 165600, Note_on_c, 9, 40, 64
1, 165600, Note_on_c, 9, 69, 64
1, 165600, Note_on_c, 9, 33, 80
1, 165600, Note_on_c, 9, 34, 64
1, 165720, Note_on_c, 9, 34, 0
1, 165720, Note_on_c, 9, 33, 0
1, 165720, Note_on_c, 9, 69, 0
1, 165720, Note_on_c, 9, 40, 0
1, 165840, Note_on_c, 14, 64, 0
1, 165840, Note_on_c, 14, 60, 0
1, 165840, Note_on_c, 0, 65, 0
1, 165840, Note_on_c, 3, 77, 0
1, 165840, Note_on_c, 3, 79, 64
1, 165840, Note_on_c, 0, 67, 64
1, 165840, Note_on_c, 12, 38, 110
1, 165840, Note_on_c, 13, 38, 64
1, 165840, Note_on_c, 9, 69, 64
1, 165840, Note_on_c, 9, 35, 80
1, 165840, Note_on_c, 14, 62, 25
1, 165840, Note_on_c, 14, 57, 25
1, 165960, Note_on_c, 9, 35, 0
1, 165960, Note_on_c, 9, 69, 0
1, 166080, Note_on_c, 13, 38, 0
1, 166080, Note_on_c, 12, 38, 0
1, 166080, Note_on_c, 0, 67, 0
1, 166080, Note_on_c, 3, 79, 0
1, 166080, Note_on_c, 3, 76, 64
1, 166080, Note_on_c, 0, 64, 64
1, 166080, Note_on_c, 9, 69, 64
1, 166080, Note_on_c, 9, 35, 80
1, 166200, Note_on_c, 9, 35, 0
1, 166200, Note_on_c, 9, 69, 0
1, 166320, Note_on_c, 0, 64, 0
1, 166320, Note_on_c, 3, 76, 0
1, 166320, Note_on_c, 9, 69, 64
1, 166320, Note_on_c, 9, 53, 32
1, 166320, Note_on_c, 9, 35, 80
1, 166440, Note_on_c, 9, 35, 0
1, 166440, Note_on_c, 9, 53, 0
1, 166440, Note_on_c, 9, 69, 0
1, 166560, Note_on_c, 3, 74, 64
1, 166560, Note_on_c, 0, 62, 64
1, 166560, Note_on_c, 9, 36, 64
1, 166560, Note_on_c, 9, 40, 64
1, 166560, Note_on_c, 9, 69, 64
1, 166560, Note_on_c, 9, 33, 80
1, 166680, Note_on_c, 9, 33, 0
1, 166680, Note_on_c, 9, 69, 0
1, 166680, Note_on_c, 9, 40, 0
1, 166680, Note_on_c, 9, 36, 0
1, 166800, Note_on_c, 0, 62, 0
1, 166800, Note_on_c, 3, 74, 0
1, 166800, Note_on_c, 9, 69, 64
1, 166800, Note_on_c, 9, 33, 80
1, 166920, Note_on_c, 9, 33, 0
1, 166920, Note_on_c, 9, 69, 0
1, 167040, Note_on_c, 14, 57, 0
1, 167040, Note_on_c, 14, 62, 0
1, 167040, Note_on_c, 3, 72, 64
1, 167040, Note_on_c, 0, 60, 64
1, 167040, Note_on_c, 12, 36, 110
1, 167040, Note_on_c, 13, 36, 80
1, 167040, Note_on_c, 9, 69, 64
1, 167040, Note_on_c, 9, 35, 80
1, 167040, Note_on_c, 14, 64, 64
1, 167040, Note_on_c, 14, 57, 32
1, 167040, Note_on_c, 14, 60, 48
1, 167040, Note_on_c, 6, 64, 15
1, 167160, Note_on_c, 9, 69, 0
1, 167160, Note_on_c, 9, 35, 0
1, 167160, Note_on_c, 6, 64, 0
1, 167160, Note_on_c, 6, 69, 16
1, 167280, Note_on_c, 0, 60, 0
1, 167280, Note_on_c, 3, 72, 0
1, 167280, Note_on_c, 6, 69, 0
1, 167280, Note_on_c, 3, 69, 64
1, 167280, Note_on_c, 0, 57, 64
1, 167280, Note_on_c, 9, 69, 64
1, 167280, Note_on_c, 9, 53, 32
1, 167280, Note_on_c, 9, 34, 80
1, 167280, Note_on_c, 6, 76, 17
1, 167400, Note_on_c, 9, 69, 0
1, 167400, Note_on_c, 9, 53, 0
1, 167400, Note_on_c, 9, 34, 0
1, 167400, Note_on_c, 6, 76, 0
1, 167400, Note_on_c, 6, 64, 18
1, 167520, Note_on_c, 0, 57, 0
1, 167520, Note_on_c, 3, 69, 0
1, 167520, Note_on_c, 6, 64, 0
1, 167520, Note_on_c, 9, 40, 64
1, 167520, Note_on_c, 9, 69, 64
1, 167520, Note_on_c, 9, 33, 80
1, 167520, Note_on_c, 9, 34, 64
1, 167520, Note_on_c, 6, 69, 19
1, 167640, Note_on_c, 9, 40, 0
1, 167640, Note_on_c, 9, 69, 0
1, 167640, Note_on_c, 9, 33, 0
1, 167640, Note_on_c, 9, 34, 0
1, 167640, Note_on_c, 6, 69, 0
1, 167640, Note_on_c, 6, 72, 19
1, 167760, Note_on_c, 12, 36, 0
1, 167760, Note_on_c, 6, 72, 0
1, 167760, Note_on_c, 12, 36, 110
1, 167760, Note_on_c, 9, 69, 64
1, 167760, Note_on_c, 9, 35, 80
1, 167760, Note_on_c, 6, 76, 20
1, 167880, Note_on_c, 9, 69, 0
1, 167880, Note_on_c, 9, 35, 0
1, 167880, Note_on_c, 6, 76, 0
1, 167880, Note_on_c, 6, 64, 21
1, 168000, Note_on_c, 6, 64, 0
1, 168000, Note_on_c, 9, 69, 64
1, 168000, Note_on_c, 9, 35, 80
1, 168000, Note_on_c, 6, 64, 22
1, 168120, Note_on_c, 9, 69, 0
1, 168120, Note_on_c, 9, 35, 0
1, 168120, Note_on_c, 6, 64, 0
1, 168120, Note_on_c, 6, 69, 23
1, 168240, Note_on_c, 6, 69, 0
1, 168240, Note_on_c, 9, 69, 64
1, 168240, Note_on_c, 9, 53, 32
1, 168240, Note_on_c, 9, 34, 80
1, 168240, Note_on_c, 6, 76, 24
1, 168360, Note_on_c, 9, 69, 0
1, 168360, Note_on_c, 9, 53, 0
1, 168360, Note_on_c, 9, 34, 0
1, 168360, Note_on_c, 6, 76, 0
1, 168360, Note_on_c, 6, 64, 25
1, 168480, Note_on_c, 6, 64, 0
1, 168480, Note_on_c, 9, 36, 64
1, 168480, Note_on_c, 9, 40, 64
1, 168480, Note_on_c, 9, 69, 64
1, 168480, Note_on_c, 9, 33, 80
1, 168480, Note_on_c, 6, 69, 26
1, 168600, Note_on_c, 9, 36, 0
1, 168600, Note_on_c, 9, 40, 0
1, 168600, Note_on_c, 9, 69, 0
1, 168600, Note_on_c, 9, 33, 0
1, 168600, Note_on_c, 6, 69, 0
1, 168600, Note_on_c, 6, 72, 27
1, 168720, Note_on_c, 6, 72, 0
1, 168720, Note_on_c, 9, 69, 64
1, 168720, Note_on_c, 9, 35, 80
1, 168720, Note_on_c, 6, 76, 28
1, 168840, Note_on_c, 9, 69, 0
1, 168840, Note_on_c, 9, 35, 0
1, 168840, Note_on_c, 6, 76, 0
1, 168840, Note_on_c, 9, 69, 52
1, 168840, Note_on_c, 6, 64, 29
1, 168960, Note_on_c, 9, 69, 0
1, 168960, Note_on_c, 12, 36, 0
1, 168960, Note_on_c, 6, 64, 0
1, 168960, Note_on_c, 12, 36, 110
1, 168960, Note_on_c, 9, 69, 80
1, 168960, Note_on_c, 9, 35, 80
1, 168960, Note_on_c, 6, 64, 29
1, 169080, Note_on_c, 9, 69, 0
1, 169080, Note_on_c, 9, 35, 0
1, 169080, Note_on_c, 6, 64, 0
1, 169080, Note_on_c, 6, 69, 30
1, 169200, Note_on_c, 6, 69, 0
1, 169200, Note_on_c, 9, 69, 64
1, 169200, Note_on_c, 9, 53, 32
1, 169200, Note_on_c, 9, 34, 80
1, 169200, Note_on_c, 6, 76, 31
1, 169320, Note_on_c, 9, 69, 0
1, 169320, Note_on_c, 9, 53, 0
1, 169320, Note_on_c, 9, 34, 0
1, 169320, Note_on_c, 6, 76, 0
1, 169320, Note_on_c, 6, 64, 32
1, 169440, Note_on_c, 6, 64, 0
1, 169440, Note_on_c, 9, 40, 64
1, 169440, Note_on_c, 9, 69, 64
1, 169440, Note_on_c, 9, 33, 80
1, 169440, Note_on_c, 9, 34, 64
1, 169440, Note_on_c, 6, 69, 33
1, 169560, Note_on_c, 9, 40, 0
1, 169560, Note_on_c, 9, 69, 0
1, 169560, Note_on_c, 9, 33, 0
1, 169560, Note_on_c, 9, 34, 0
1, 169560, Note_on_c, 6, 69, 0
1, 169560, Note_on_c, 6, 72, 34
1, 169680, Note_on_c, 13, 36, 0
1, 169680, Note_on_c, 12, 36, 0
1, 169680, Note_on_c, 6, 72, 0
1, 169680, Note_on_c, 9, 69, 64
1, 169680, Note_on_c, 9, 35, 80
1, 169680, Note_on_c, 12, 38, 110
1, 169680, Note_on_c, 13, 38, 80
1, 169680, Note_on_c, 6, 76, 35
1, 169800, Note_on_c, 9, 69, 0
1, 169800, Note_on_c, 9, 35, 0
1, 169800, Note_on_c, 6, 76, 0
1, 169800, Note_on_c, 6, 64, 36
1, 169920, Note_on_c, 13, 38, 0
1, 169920, Note_on_c, 12, 38, 0
1, 169920, Note_on_c, 6, 64, 0
1, 169920, Note_on_c, 9, 69, 64
1, 169920, Note_on_c, 9, 35, 80
1, 169920, Note_on_c, 6, 64, 37
1, 170040, Note_on_c, 9, 69, 0
1, 170040, Note_on_c, 9, 35, 0
1, 170040, Note_on_c, 6, 64, 0
1, 170040, Note_on_c, 6, 69, 38
1, 170160, Note_on_c, 14, 64, 0
1, 170160, Note_on_c, 14, 57, 0
1, 170160, Note_on_c, 14, 60, 0
1, 170160, Note_on_c, 6, 69, 0
1, 170160, Note_on_c, 3, 67, 64
1, 170160, Note_on_c, 0, 55, 64
1, 170160, Note_on_c, 9, 69, 64
1, 170160, Note_on_c, 9, 53, 32
1, 170160, Note_on_c, 9, 35, 80
1, 170160, Note_on_c, 6, 76, 39
1, 170280, Note_on_c, 9, 69, 0
1, 170280, Note_on_c, 9, 53, 0
1, 170280, Note_on_c, 9, 35, 0
1, 170280, Note_on_c, 6, 76, 0
1, 170280, Note_on_c, 6, 64, 39
1, 170400, Note_on_c, 3, 67, 0
1, 170400, Note_on_c, 0, 55, 0
1, 170400, Note_on_c, 6, 64, 0
1, 170400, Note_on_c, 3, 72, 64
1, 170400, Note_on_c, 0, 60, 64
1, 170400, Note_on_c, 9, 36, 64
1, 170400, Note_on_c, 9, 40, 64
1, 170400, Note_on_c, 9, 69, 64
1, 170400, Note_on_c, 9, 33, 80
1, 170400, Note_on_c, 6, 69, 40
1, 170520, Note_on_c, 9, 36, 0
1, 170520, Note_on_c, 9, 40, 0
1, 170520, Note_on_c, 9, 69, 0
1, 170520, Note_on_c, 9, 33, 0
1, 170520, Note_on_c, 6, 69, 0
1, 170520, Note_on_c, 6, 72, 41
1, 170640, Note_on_c, 3, 72, 0
1, 170640, Note_on_c, 0, 60, 0
1, 170640, Note_on_c, 6, 72, 0
1, 170640, Note_on_c, 3, 74, 64
1, 170640, Note_on_c, 0, 62, 64
1, 170640, Note_on_c, 9, 69, 64
1, 170640, Note_on_c, 9, 33, 80
1, 170640, Note_on_c, 6, 76, 42
1, 170760, Note_on_c, 9, 69, 0
1, 170760, Note_on_c, 9, 33, 0
1, 170760, Note_on_c, 6, 76, 0
1, 170760, Note_on_c, 6, 64, 43
1, 170880, Note_on_c, 3, 74, 0
1, 170880, Note_on_c, 0, 62, 0
1, 170880, Note_on_c, 6, 64, 0
1, 170880, Note_on_c, 3, 76, 64
1, 170880, Note_on_c, 0, 64, 64
1, 170880, Note_on_c, 9, 69, 64
1, 170880, Note_on_c, 9, 35, 80
1, 170880, Note_on_c, 12, 45, 110
1, 170880, Note_on_c, 13, 45, 64
1, 170880, Note_on_c, 14, 69, 25
1, 170880, Note_on_c, 14, 62, 18
1, 171000, Note_on_c, 9, 69, 0
1, 171000, Note_on_c, 9, 35, 0
1, 171120, Note_on_c, 12, 45, 0
1, 171120, Note_on_c, 13, 45, 0
1, 171120, Note_on_c, 3, 76, 0
1, 171120, Note_on_c, 0, 64, 0
1, 171120, Note_on_c, 3, 77, 64
1, 171120, Note_on_c, 0, 65, 64
1, 171120, Note_on_c, 9, 69, 64
1, 171120, Note_on_c, 9, 53, 32
1, 171120, Note_on_c, 9, 34, 80
1, 171240, Note_on_c, 9, 69, 0
1, 171240, Note_on_c, 9, 53, 0
1, 171240, Note_on_c, 9, 34, 0
1, 171360, Note_on_c, 3, 77, 0
1, 171360, Note_on_c, 0, 65, 0
1, 171360, Note_on_c, 3, 76, 64
1, 171360, Note_on_c, 0, 64, 64
1, 171360, Note_on_c, 9, 40, 64
1, 171360, Note_on_c, 9, 69, 64
1, 171360, Note_on_c, 9, 33, 80
1, 171360, Note_on_c, 9, 34, 64
1, 171480, Note_on_c, 9, 40, 0
1, 171480, Note_on_c, 9, 69, 0
1, 171480, Note_on_c, 9, 33, 0
1, 171480, Note_on_c, 9, 34, 0
1, 171600, Note_on_c, 14, 69, 0
1, 171600, Note_on_c, 14, 62, 0
1, 171600, Note_on_c, 9, 69, 64
1, 171600, Note_on_c, 9, 35, 80
1, 171600, Note_on_c, 12, 43, 110
1, 171600, Note_on_c, 13, 43, 64
1, 171600, Note_on_c, 14, 67, 25
1, 171600, Note_on_c, 14, 64, 18
1, 171720, Note_on_c, 9, 69, 0
1, 171720, Note_on_c, 9, 35, 0
1, 171840, Note_on_c, 12, 43, 0
1, 171840, Note_on_c, 13, 43, 0
1, 171840, Note_on_c, 3, 76, 0
1, 171840, Note_on_c, 0, 64, 0
1, 171840, Note_on_c, 9, 69, 64
1, 171840, Note_on_c, 9, 35, 80
1, 171960, Note_on_c, 9, 69, 0
1, 171960, Note_on_c, 9, 35, 0
1, 172080, Note_on_c, 3, 67, 64
1, 172080, Note_on_c, 0, 55, 64
1, 172080, Note_on_c, 9, 69, 64
1, 172080, Note_on_c, 9, 53, 32
1, 172080, Note_on_c, 9, 34, 80
1, 172200, Note_on_c, 9, 69, 0
1, 172200, Note_on_c, 9, 53, 0
1, 172200, Note_on_c, 9, 34, 0
1, 172320, Note_on_c, 3, 67, 0
1, 172320, Note_on_c, 0, 55, 0
1, 172320, Note_on_c, 3, 72, 64
1, 172320, Note_on_c, 0, 60, 64
1, 172320, Note_on_c, 9, 36, 64
1, 172320, Note_on_c, 9, 40, 64
1, 172320, Note_on_c, 9, 69, 64
1, 172320, Note_on_c, 9, 33, 80
1, 172440, Note_on_c, 9, 36, 0
1, 172440, Note_on_c, 9, 40, 0
1, 172440, Note_on_c, 9, 69, 0
1, 172440, Note_on_c, 9, 33, 0
1, 172560, Note_on_c, 3, 72, 0
1, 172560, Note_on_c, 0, 60, 0
1, 172560, Note_on_c, 3, 74, 64
1, 172560, Note_on_c, 0, 62, 64
1, 172560, Note_on_c, 9, 69, 64
1, 172560, Note_on_c, 9, 35, 80
1, 172680, Note_on_c, 9, 69, 0
1, 172680, Note_on_c, 9, 35, 0
1, 172680, Note_on_c, 9, 69, 52
1, 172800, Note_on_c, 14, 67, 0
1, 172800, Note_on_c, 14, 64, 0
1, 172800, Note_on_c, 9, 69, 0
1, 172800, Note_on_c, 3, 74, 0
1, 172800, Note_on_c, 0, 62, 0
1, 172800, Note_on_c, 3, 76, 64
1, 172800, Note_on_c, 0, 64, 64
1, 172800, Note_on_c, 9, 69, 80
1, 172800, Note_on_c, 9, 35, 80
1, 172800, Note_on_c, 12, 36, 110
1, 172800, Note_on_c, 13, 36, 64
1, 172800, Note_on_c, 14, 60, 25
1, 172800, Note_on_c, 14, 64, 25
1, 172920, Note_on_c, 9, 69, 0
1, 172920, Note_on_c, 9, 35, 0
1, 173040, Note_on_c, 12, 36, 0
1, 173040, Note_on_c, 13, 36, 0
1, 173040, Note_on_c, 9, 69, 64
1, 173040, Note_on_c, 9, 53, 32
1, 173040, Note_on_c, 9, 34, 80
1, 173160, Note_on_c, 9, 69, 0
1, 173160, Note_on_c, 9, 53, 0
1, 173160, Note_on_c, 9, 34, 0
1, 173280, Note_on_c, 3, 76, 0
1, 173280, Note_on_c, 0, 64, 0
1, 173280, Note_on_c, 3, 77, 64
1, 173280, Note_on_c, 0, 65, 64
1, 173280, Note_on_c, 9, 40, 64
1, 173280, Note_on_c, 9, 69, 64
1, 173280, Note_on_c, 9, 33, 80
1, 173280, Note_on_c, 9, 34, 64
1, 173400, Note_on_c, 9, 40, 0
1, 173400, Note_on_c, 9, 69, 0
1, 173400, Note_on_c, 9, 33, 0
1, 173400, Note_on_c, 9, 34, 0
1, 173520, Note_on_c, 14, 60, 0
1, 173520, Note_on_c, 14, 64, 0
1, 173520, Note_on_c, 3, 77, 0
1, 173520, Note_on_c, 0, 65, 0
1, 173520, Note_on_c, 3, 79, 64
1, 173520, Note_on_c, 0, 67, 64
1, 173520, Note_on_c, 9, 69, 64
1, 173520, Note_on_c, 9, 35, 80
1, 173520, Note_on_c, 12, 38, 110
1, 173520, Note_on_c, 13, 38, 64
1, 173520, Note_on_c, 14, 62, 25
1, 173520, Note_on_c, 14, 57, 25
1, 173640, Note_on_c, 9, 69, 0
1, 173640, Note_on_c, 9, 35, 0
1, 173760, Note_on_c, 12, 38, 0
1, 173760, Note_on_c, 13, 38, 0
1, 173760, Note_on_c, 3, 79, 0
1, 173760, Note_on_c, 0, 67, 0
1, 173760, Note_on_c, 3, 76, 64
1, 173760, Note_on_c, 0, 64, 64
1, 173760, Note_on_c, 9, 69, 64
1, 173760, Note_on_c, 9, 35, 80
1, 173880, Note_on_c, 9, 69, 0
1, 173880, Note_on_c, 9, 35, 0
1, 174000, Note_on_c, 3, 76, 0
1, 174000, Note_on_c, 0, 64, 0
1, 174000, Note_on_c, 9, 69, 64
1, 174000, Note_on_c, 9, 53, 32
1, 174000, Note_on_c, 9, 35, 80
1, 174120, Note_on_c, 9, 69, 0
1, 174120, Note_on_c, 9, 53, 0
1, 174120, Note_on_c, 9, 35, 0
1, 174240, Note_on_c, 3, 74, 64
1, 174240, Note_on_c, 0, 62, 64
1, 174240, Note_on_c, 9, 36, 64
1, 174240, Note_on_c, 9, 40, 64
1, 174240, Note_on_c, 9, 69, 64
1, 174240, Note_on_c, 9, 33, 80
1, 174360, Note_on_c, 9, 36, 0
1, 174360, Note_on_c, 9, 40, 0
1, 174360, Note_on_c, 9, 69, 0
1, 174360, Note_on_c, 9, 33, 0
1, 174480, Note_on_c, 3, 74, 0
1, 174480, Note_on_c, 0, 62, 0
1, 174480, Note_on_c, 9, 69, 64
1, 174480, Note_on_c, 9, 33, 80
1, 174600, Note_on_c, 9, 69, 0
1, 174600, Note_on_c, 9, 33, 0
1, 174720, Note_on_c, 14, 62, 0
1, 174720, Note_on_c, 14, 57, 0
1, 174720, Note_on_c, 3, 72, 64
1, 174720, Note_on_c, 0, 60, 64
1, 174720, Note_on_c, 9, 69, 64
1, 174720, Note_on_c, 9, 35, 80
1, 174720, Note_on_c, 12, 36, 110
1, 174720, Note_on_c, 13, 36, 80
1, 174720, Note_on_c, 14, 64, 64
1, 174720, Note_on_c, 14, 57, 32
1, 174720, Note_on_c, 14, 60, 48
1, 174720, Note_on_c, 6, 64, 15
1, 174840, Note_on_c, 9, 35, 0
1, 174840, Note_on_c, 9, 69, 0
1, 174840, Note_on_c, 6, 64, 0
1, 174840, Note_on_c, 6, 69, 16
1, 174960, Note_on_c, 3, 72, 0
1, 174960, Note_on_c, 0, 60, 0
1, 174960, Note_on_c, 6, 69, 0
1, 174960, Note_on_c, 3, 69, 64
1, 174960, Note_on_c, 0, 57, 64
1, 174960, Note_on_c, 9, 69, 64
1, 174960, Note_on_c, 9, 53, 32
1, 174960, Note_on_c, 9, 34, 80
1, 174960, Note_on_c, 6, 76, 17
1, 175080, Note_on_c, 9, 34, 0
1, 175080, Note_on_c, 9, 53, 0
1, 175080, Note_on_c, 9, 69, 0
1, 175080, Note_on_c, 6, 76, 0
1, 175080, Note_on_c, 6, 64, 18
1, 175200, Note_on_c, 3, 69, 0
1, 175200, Note_on_c, 0, 57, 0
1, 175200, Note_on_c, 6, 64, 0
1, 175200, Note_on_c, 9, 40, 64
1, 175200, Note_on_c, 9, 69, 64
1, 175200, Note_on_c, 9, 33, 80
1, 175200, Note_on_c, 9, 34, 64
1, 175200, Note_on_c, 6, 69, 19
1, 175320, Note_on_c, 9, 34, 0
1, 175320, Note_on_c, 9, 33, 0
1, 175320, Note_on_c, 9, 69, 0
1, 175320, Note_on_c, 9, 40, 0
1, 175320, Note_on_c, 6, 69, 0
1, 175320, Note_on_c, 6, 72, 19
1, 175440, Note_on_c, 12, 36, 0
1, 175440, Note_on_c, 6, 72, 0
1, 175440, Note_on_c, 9, 69, 64
1, 175440, Note_on_c, 9, 35, 80
1, 175440, Note_on_c, 12, 36, 110
1, 175440, Note_on_c, 6, 76, 20
1, 175560, Note_on_c, 9, 35, 0
1, 175560, Note_on_c, 9, 69, 0
1, 175560, Note_on_c, 6, 76, 0
1, 175560, Note_on_c, 6, 64, 21
1, 175680, Note_on_c, 6, 64, 0
1, 175680, Note_on_c, 9, 69, 64
1, 175680, Note_on_c, 9, 35, 80
1, 175680, Note_on_c, 6, 64, 22
1, 175800, Note_on_c, 9, 35, 0
1, 175800, Note_on_c, 9, 69, 0
1, 175800, Note_on_c, 6, 64, 0
1, 175800, Note_on_c, 6, 69, 23
1, 175920, Note_on_c, 6, 69, 0
1, 175920, Note_on_c, 9, 69, 64
1, 175920, Note_on_c, 9, 53, 32
1, 175920, Note_on_c, 9, 34, 80
1, 175920, Note_on_c, 6, 76, 24
1, 176040, Note_on_c, 9, 34, 0
1, 176040, Note_on_c, 9, 53, 0
1, 176040, Note_on_c, 9, 69, 0
1, 176040, Note_on_c, 6, 76, 0
1, 176040, Note_on_c, 6, 64, 25
1, 176160, Note_on_c, 6, 64, 0
1, 176160, Note_on_c, 9, 36, 64
1, 176160, Note_on_c, 9, 40, 64
1, 176160, Note_on_c, 9, 69, 64
1, 176160, Note_on_c, 9, 33, 80
1, 176160, Note_on_c, 6, 69, 26
1, 176280, Note_on_c, 9, 33, 0
1, 176280, Note_on_c, 9, 69, 0
1, 176280, Note_on_c, 9, 40, 0
1, 176280, Note_on_c, 9, 36, 0
1, 176280, Note_on_c, 6, 69, 0
1, 176280, Note_on_c, 6, 72, 27
1, 176400, Note_on_c, 6, 72, 0
1, 176400, Note_on_c, 9, 69, 64
1, 176400, Note_on_c, 9, 35, 80
1, 176400, Note_on_c, 6, 76, 28
1, 176520, Note_on_c, 9, 35, 0
1, 176520, Note_on_c, 9, 69, 0
1, 176520, Note_on_c, 6, 76, 0
1, 176520, Note_on_c, 9, 69, 52
1, 176520, Note_on_c, 6, 64, 29
1, 176640, Note_on_c, 12, 36, 0
1, 176640, Note_on_c, 9, 69, 0
1, 176640, Note_on_c, 6, 64, 0
1, 176640, Note_on_c, 9, 69, 80
1, 176640, Note_on_c, 9, 35, 80
1, 176640, Note_on_c, 12, 36, 110
1, 176640, Note_on_c, 6, 64, 29
1, 176760, Note_on_c, 9, 35, 0
1, 176760, Note_on_c, 9, 69, 0
1, 176760, Note_on_c, 6, 64, 0
1, 176760, Note_on_c, 6, 69, 30
1, 176880, Note_on_c, 6, 69, 0
1, 176880, Note_on_c, 9, 69, 64
1, 176880, Note_on_c, 9, 53, 32
1, 176880, Note_on_c, 9, 34, 80
1, 176880, Note_on_c, 6, 76, 31
1, 177000, Note_on_c, 9, 34, 0
1, 177000, Note_on_c, 9, 53, 0
1, 177000, Note_on_c, 9, 69, 0
1, 177000, Note_on_c, 6, 76, 0
1, 177000, Note_on_c, 6, 64, 32
1, 177120, Note_on_c, 6, 64, 0
1, 177120, Note_on_c, 9, 40, 64
1, 177120, Note_on_c, 9, 69, 64
1, 177120, Note_on_c, 9, 33, 80
1, 177120, Note_on_c, 9, 34, 64
1, 177120, Note_on_c, 6, 69, 33
1, 177240, Note_on_c, 9, 34, 0
1, 177240, Note_on_c, 9, 33, 0
1, 177240, Note_on_c, 9, 69, 0
1, 177240, Note_on_c, 9, 40, 0
1, 177240, Note_on_c, 6, 69, 0
1, 177240, Note_on_c, 6, 72, 34
1, 177360, Note_on_c, 12, 36, 0
1, 177360, Note_on_c, 13, 36, 0
1, 177360, Note_on_c, 6, 72, 0
1, 177360, Note_on_c, 9, 69, 64
1, 177360, Note_on_c, 9, 35, 80
1, 177360, Note_on_c, 13, 40, 80
1, 177360, Note_on_c, 12, 40, 110
1, 177360, Note_on_c, 6, 76, 35
1, 177480, Note_on_c, 9, 35, 0
1, 177480, Note_on_c, 9, 69, 0
1, 177480, Note_on_c, 6, 76, 0
1, 177480, Note_on_c, 6, 64, 36
1, 177600, Note_on_c, 6, 64, 0
1, 177600, Note_on_c, 9, 69, 64
1, 177600, Note_on_c, 9, 35, 80
1, 177600, Note_on_c, 6, 64, 37
1, 177720, Note_on_c, 9, 35, 0
1, 177720, Note_on_c, 9, 69, 0
1, 177720, Note_on_c, 6, 64, 0
1, 177720, Note_on_c, 6, 69, 38
1, 177840, Note_on_c, 14, 60, 0
1, 177840, Note_on_c, 14, 57, 0
1, 177840, Note_on_c, 14, 64, 0
1, 177840, Note_on_c, 6, 69, 0
1, 177840, Note_on_c, 9, 69, 64
1, 177840, Note_on_c, 9, 53, 32
1, 177840, Note_on_c, 9, 35, 80
1, 177840, Note_on_c, 6, 76, 39
1, 177840, Note_on_c, 3, 69, 96
1, 177840, Note_on_c, 0, 57, 64
1, 177960, Note_on_c, 9, 35, 0
1, 177960, Note_on_c, 9, 53, 0
1, 177960, Note_on_c, 9, 69, 0
1, 177960, Note_on_c, 6, 76, 0
1, 177960, Note_on_c, 6, 64, 39
1, 178080, Note_on_c, 6, 64, 0
1, 178080, Note_on_c, 3, 69, 0
1, 178080, Note_on_c, 0, 57, 0
1, 178080, Note_on_c, 9, 36, 64
1, 178080, Note_on_c, 9, 40, 64
1, 178080, Note_on_c, 9, 69, 64
1, 178080, Note_on_c, 9, 33, 80
1, 178080, Note_on_c, 0, 60, 64
1, 178080, Note_on_c, 3, 72, 96
1, 178080, Note_on_c, 6, 69, 40
1, 178200, Note_on_c, 9, 33, 0
1, 178200, Note_on_c, 9, 69, 0
1, 178200, Note_on_c, 9, 40, 0
1, 178200, Note_on_c, 9, 36, 0
1, 178200, Note_on_c, 6, 69, 0
1, 178200, Note_on_c, 6, 72, 41
1, 178320, Note_on_c, 3, 72, 0
1, 178320, Note_on_c, 0, 60, 0
1, 178320, Note_on_c, 6, 72, 0
1, 178320, Note_on_c, 9, 69, 64
1, 178320, Note_on_c, 9, 33, 80
1, 178320, Note_on_c, 0, 62, 64
1, 178320, Note_on_c, 3, 74, 96
1, 178320, Note_on_c, 9, 46, 64
1, 178440, Note_on_c, 9, 33, 0
1, 178440, Note_on_c, 9, 69, 0
1, 178440, Note_on_c, 9, 46, 0
1, 178440, Note_on_c, 6, 64, 43
1, 178560, Note_on_c, 3, 74, 0
1, 178560, Note_on_c, 0, 62, 0
1, 178560, Note_on_c, 13, 40, 0
1, 178560, Note_on_c, 12, 40, 0
1, 178560, Note_on_c, 6, 64, 0
1, 178560, Note_on_c, 4, 76, 52
1, 178560, Note_on_c, 9, 69, 64
1, 178560, Note_on_c, 9, 35, 80
1, 178560, Note_on_c, 14, 64, 22
1, 178560, Note_on_c, 14, 57, 22
1, 178560, Note_on_c, 14, 60, 22
1, 178560, Note_on_c, 3, 76, 96
1, 178560, Note_on_c, 0, 64, 64
1, 178560, Note_on_c, 13, 40, 64
1, 178560, Note_on_c, 12, 40, 112
1, 178680, Note_on_c, 9, 69, 0
1, 178680, Note_on_c, 9, 35, 0
1, 178800, Note_on_c, 3, 76, 0
1, 178800, Note_on_c, 0, 64, 0
1, 178800, Note_on_c, 9, 69, 64
1, 178800, Note_on_c, 9, 53, 32
1, 178800, Note_on_c, 9, 34, 80
1, 178800, Note_on_c, 3, 77, 96
1, 178800, Note_on_c, 0, 65, 64
1, 178920, Note_on_c, 9, 69, 0
1, 178920, Note_on_c, 9, 53, 0
1, 178920, Note_on_c, 9, 34, 0
1, 179040, Note_on_c, 3, 77, 0
1, 179040, Note_on_c, 0, 65, 0
1, 179040, Note_on_c, 9, 40, 64
1, 179040, Note_on_c, 9, 69, 64
1, 179040, Note_on_c, 9, 33, 80
1, 179040, Note_on_c, 9, 34, 64
1, 179040, Note_on_c, 3, 76, 96
1, 179040, Note_on_c, 0, 64, 64
1, 179040, Note_on_c, 9, 38, 119
1, 179160, Note_on_c, 9, 40, 0
1, 179160, Note_on_c, 9, 69, 0
1, 179160, Note_on_c, 9, 33, 0
1, 179160, Note_on_c, 9, 34, 0
1, 179160, Note_on_c, 9, 38, 0
1, 179220, Note_on_c, 13, 40, 0
1, 179220, Note_on_c, 12, 40, 0
1, 179280, Note_on_c, 9, 69, 64
1, 179280, Note_on_c, 9, 35, 80
1, 179280, Note_on_c, 13, 40, 64
1, 179280, Note_on_c, 12, 40, 112
1, 179400, Note_on_c, 9, 69, 0
1, 179400, Note_on_c, 9, 35, 0
1, 179520, Note_on_c, 9, 69, 64
1, 179520, Note_on_c, 9, 35, 80
1, 179640, Note_on_c, 9, 69, 0
1, 179640, Note_on_c, 9, 35, 0
1, 179760, Note_on_c, 0, 64, 0
1, 179760, Note_on_c, 9, 69, 64
1, 179760, Note_on_c, 9, 53, 32
1, 179760, Note_on_c, 9, 34, 80
1, 179760, Note_on_c, 0, 62, 64
1, 179880, Note_on_c, 9, 69, 0
1, 179880, Note_on_c, 9, 53, 0
1, 179880, Note_on_c, 9, 34, 0
1, 180000, Note_on_c, 3, 76, 0
1, 180000, Note_on_c, 9, 36, 64
1, 180000, Note_on_c, 9, 40, 64
1, 180000, Note_on_c, 9, 69, 64
1, 180000, Note_on_c, 9, 33, 80
1, 180000, Note_on_c, 3, 74, 96
1, 180000, Note_on_c, 9, 38, 119
1, 180120, Note_on_c, 9, 36, 0
1, 180120, Note_on_c, 9, 40, 0
1, 180120, Note_on_c, 9, 69, 0
1, 180120, Note_on_c, 9, 33, 0
1, 180120, Note_on_c, 9, 38, 0
1, 180240, Note_on_c, 3, 74, 0
1, 180240, Note_on_c, 9, 69, 64
1, 180240, Note_on_c, 9, 35, 80
1, 180240, Note_on_c, 3, 67, 96
1, 180360, Note_on_c, 9, 69, 0
1, 180360, Note_on_c, 9, 35, 0
1, 180360, Note_on_c, 9, 69, 52
1, 180420, Note_on_c, 13, 40, 0
1, 180420, Note_on_c, 12, 40, 0
1, 180480, Note_on_c, 9, 69, 0
1, 180480, Note_on_c, 3, 67, 0
1, 180480, Note_on_c, 9, 69, 80
1, 180480, Note_on_c, 9, 35, 80
1, 180480, Note_on_c, 3, 72, 96
1, 180480, Note_on_c, 13, 36, 64
1, 180480, Note_on_c, 12, 36, 112
1, 180600, Note_on_c, 9, 69, 0
1, 180600, Note_on_c, 9, 35, 0
1, 180720, Note_on_c, 9, 69, 64
1, 180720, Note_on_c, 9, 53, 32
1, 180720, Note_on_c, 9, 34, 80
1, 180840, Note_on_c, 9, 69, 0
1, 180840, Note_on_c, 9, 53, 0
1, 180840, Note_on_c, 9, 34, 0
1, 180960, Note_on_c, 4, 76, 0
1, 180960, Note_on_c, 14, 64, 0
1, 180960, Note_on_c, 14, 57, 0
1, 180960, Note_on_c, 14, 60, 0
1, 180960, Note_on_c, 3, 72, 0
1, 180960, Note_on_c, 0, 62, 0
1, 180960, Note_on_c, 4, 74, 52
1, 180960, Note_on_c, 0, 74, 64
1, 180960, Note_on_c, 9, 40, 64
1, 180960, Note_on_c, 9, 69, 64
1, 180960, Note_on_c, 9, 33, 80
1, 180960, Note_on_c, 9, 34, 64
1, 180960, Note_on_c, 14, 62, 22
1, 180960, Note_on_c, 3, 74, 96
1, 180960, Note_on_c, 9, 38, 119
1, 181080, Note_on_c, 9, 40, 0
1, 181080, Note_on_c, 9, 69, 0
1, 181080, Note_on_c, 9, 33, 0
1, 181080, Note_on_c, 9, 34, 0
1, 181080, Note_on_c, 9, 38, 0
1, 181140, Note_on_c, 13, 36, 0
1, 181140, Note_on_c, 12, 36, 0
1, 181200, Note_on_c, 9, 69, 64
1, 181200, Note_on_c, 9, 35, 80
1, 181200, Note_on_c, 13, 36, 64
1, 181200, Note_on_c, 12, 36, 112
1, 181320, Note_on_c, 9, 69, 0
1, 181320, Note_on_c, 9, 35, 0
1, 181440, Note_on_c, 4, 74, 0
1, 181440, Note_on_c, 0, 74, 0
1, 181440, Note_on_c, 14, 62, 0
1, 181440, Note_on_c, 3, 74, 0
1, 181440, Note_on_c, 4, 67, 52
1, 181440, Note_on_c, 9, 69, 64
1, 181440, Note_on_c, 9, 35, 80
1, 181440, Note_on_c, 0, 72, 64
1, 181440, Note_on_c, 14, 55, 22
1, 181560, Note_on_c, 9, 69, 0
1, 181560, Note_on_c, 9, 35, 0
1, 181680, Note_on_c, 0, 72, 0
1, 181680, Note_on_c, 9, 69, 64
1, 181680, Note_on_c, 9, 53, 32
1, 181680, Note_on_c, 9, 35, 80
1, 181680, Note_on_c, 0, 67, 64
1, 181680, Note_on_c, 3, 67, 96
1, 181800, Note_on_c, 9, 69, 0
1, 181800, Note_on_c, 9, 53, 0
1, 181800, Note_on_c, 9, 35, 0
1, 181920, Note_on_c, 4, 67, 0
1, 181920, Note_on_c, 0, 67, 0
1, 181920, Note_on_c, 14, 55, 0
1, 181920, Note_on_c, 3, 67, 0
1, 181920, Note_on_c, 9, 36, 64
1, 181920, Note_on_c, 9, 40, 64
1, 181920, Note_on_c, 9, 69, 64
1, 181920, Note_on_c, 9, 33, 80
1, 181920, Note_on_c, 0, 76, 64
1, 181920, Note_on_c, 3, 72, 96
1, 181920, Note_on_c, 14, 64, 22
1, 181920, Note_on_c, 14, 60, 22
1, 181920, Note_on_c, 9, 38, 119
1, 182040, Note_on_c, 9, 36, 0
1, 182040, Note_on_c, 9, 40, 0
1, 182040, Note_on_c, 9, 69, 0
1, 182040, Note_on_c, 9, 33, 0
1, 182040, Note_on_c, 9, 38, 0
1, 182160, Note_on_c, 0, 76, 0
1, 182160, Note_on_c, 3, 72, 0
1, 182160, Note_on_c, 9, 69, 64
1, 182160, Note_on_c, 9, 33, 80
1, 182160, Note_on_c, 0, 67, 64
1, 182160, Note_on_c, 3, 74, 96
1, 182280, Note_on_c, 9, 69, 0
1, 182280, Note_on_c, 9, 33, 0
1, 182340, Note_on_c, 13, 36, 0
1, 182340, Note_on_c, 12, 36, 0
1, 182400, Note_on_c, 0, 67, 0
1, 182400, Note_on_c, 3, 74, 0
1, 182400, Note_on_c, 9, 69, 64
1, 182400, Note_on_c, 9, 35, 80
1, 182400, Note_on_c, 3, 76, 96
1, 182400, Note_on_c, 4, 76, 32
1, 182400, Note_on_c, 0, 64, 64
1, 182400, Note_on_c, 13, 31, 64
1, 182400, Note_on_c, 12, 43, 112
1, 182520, Note_on_c, 9, 35, 0
1, 182520, Note_on_c, 9, 69, 0
1, 182640, Note_on_c, 3, 76, 0
1, 182640, Note_on_c, 0, 64, 0
1, 182640, Note_on_c, 9, 69, 64
1, 182640, Note_on_c, 9, 53, 32
1, 182640, Note_on_c, 9, 34, 80
1, 182640, Note_on_c, 3, 77, 96
1, 182640, Note_on_c, 0, 65, 64
1, 182760, Note_on_c, 9, 34, 0
1, 182760, Note_on_c, 9, 53, 0
1, 182760, Note_on_c, 9, 69, 0
1, 182880, Note_on_c, 3, 77, 0
1, 182880, Note_on_c, 0, 65, 0
1, 182880, Note_on_c, 9, 40, 64
1, 182880, Note_on_c, 9, 69, 64
1, 182880, Note_on_c, 9, 33, 80
1, 182880, Note_on_c, 9, 34, 64
1, 182880, Note_on_c, 3, 76, 96
1, 182880, Note_on_c, 0, 64, 64
1, 182880, Note_on_c, 9, 38, 119
1, 183000, Note_on_c, 9, 34, 0
1, 183000, Note_on_c, 9, 33, 0
1, 183000, Note_on_c, 9, 69, 0
1, 183000, Note_on_c, 9, 40, 0
1, 183000, Note_on_c, 9, 38, 0
1, 183060, Note_on_c, 13, 31, 0
1, 183060, Note_on_c, 12, 43, 0
1, 183120, Note_on_c, 9, 69, 64
1, 183120, Note_on_c, 9, 35, 80
1, 183120, Note_on_c, 13, 31, 64
1, 183120, Note_on_c, 12, 43, 112
1, 183240, Note_on_c, 9, 35, 0
1, 183240, Note_on_c, 9, 69, 0
1, 183360, Note_on_c, 14, 64, 0
1, 183360, Note_on_c, 14, 60, 0
1, 183360, Note_on_c, 9, 69, 64
1, 183360, Note_on_c, 9, 35, 80
1, 183360, Note_on_c, 14, 62, 22
1, 183360, Note_on_c, 14, 57, 22
1, 183480, Note_on_c, 9, 35, 0
1, 183480, Note_on_c, 9, 69, 0
1, 183600, Note_on_c, 3, 76, 0
1, 183600, Note_on_c, 9, 69, 64
1, 183600, Note_on_c, 9, 53, 32
1, 183600, Note_on_c, 9, 34, 80
1, 183600, Note_on_c, 3, 81, 96
1, 183720, Note_on_c, 9, 34, 0
1, 183720, Note_on_c, 9, 53, 0
1, 183720, Note_on_c, 9, 69, 0
1, 183840, Note_on_c, 3, 81, 0
1, 183840, Note_on_c, 9, 36, 64
1, 183840, Note_on_c, 9, 40, 64
1, 183840, Note_on_c, 9, 69, 64
1, 183840, Note_on_c, 9, 33, 80
1, 183840, Note_on_c, 9, 38, 119
1, 183960, Note_on_c, 9, 33, 0
1, 183960, Note_on_c, 9, 69, 0
1, 183960, Note_on_c, 9, 40, 0
1, 183960, Note_on_c, 9, 36, 0
1, 183960, Note_on_c, 9, 38, 0
1, 184080, Note_on_c, 9, 69, 64
1, 184080, Note_on_c, 9, 35, 80
1, 184080, Note_on_c, 3, 79, 96
1, 184200, Note_on_c, 9, 35, 0
1, 184200, Note_on_c, 9, 69, 0
1, 184200, Note_on_c, 9, 69, 52
1, 184260, Note_on_c, 13, 31, 0
1, 184260, Note_on_c, 12, 43, 0
1, 184320, Note_on_c, 9, 69, 0
1, 184320, Note_on_c, 14, 62, 0
1, 184320, Note_on_c, 14, 57, 0
1, 184320, Note_on_c, 9, 69, 80
1, 184320, Note_on_c, 9, 35, 80
1, 184320, Note_on_c, 14, 60, 22
1, 184320, Note_on_c, 14, 57, 22
1, 184320, Note_on_c, 13, 36, 64
1, 184320, Note_on_c, 12, 48, 112
1, 184440, Note_on_c, 9, 35, 0
1, 184440, Note_on_c, 9, 69, 0
1, 184560, Note_on_c, 9, 69, 64
1, 184560, Note_on_c, 9, 53, 32
1, 184560, Note_on_c, 9, 34, 80
1, 184680, Note_on_c, 9, 34, 0
1, 184680, Note_on_c, 9, 53, 0
1, 184680, Note_on_c, 9, 69, 0
1, 184800, Note_on_c, 3, 79, 0
1, 184800, Note_on_c, 0, 64, 0
1, 184800, Note_on_c, 9, 40, 64
1, 184800, Note_on_c, 9, 69, 64
1, 184800, Note_on_c, 9, 33, 80
1, 184800, Note_on_c, 9, 34, 64
1, 184800, Note_on_c, 0, 74, 64
1, 184800, Note_on_c, 9, 38, 119
1, 184920, Note_on_c, 9, 34, 0
1, 184920, Note_on_c, 9, 33, 0
1, 184920, Note_on_c, 9, 69, 0
1, 184920, Note_on_c, 9, 40, 0
1, 184920, Note_on_c, 9, 38, 0
1, 184980, Note_on_c, 13, 36, 0
1, 184980, Note_on_c, 12, 48, 0
1, 185040, Note_on_c, 9, 69, 64
1, 185040, Note_on_c, 9, 35, 80
1, 185040, Note_on_c, 13, 36, 64
1, 185040, Note_on_c, 12, 48, 112
1, 185160, Note_on_c, 9, 35, 0
1, 185160, Note_on_c, 9, 69, 0
1, 185280, Note_on_c, 0, 74, 0
1, 185280, Note_on_c, 9, 69, 64
1, 185280, Note_on_c, 9, 35, 80
1, 185280, Note_on_c, 0, 72, 64
1, 185400, Note_on_c, 9, 35, 0
1, 185400, Note_on_c, 9, 69, 0
1, 185520, Note_on_c, 0, 72, 0
1, 185520, Note_on_c, 9, 69, 64
1, 185520, Note_on_c, 9, 53, 32
1, 185520, Note_on_c, 9, 35, 80
1, 185520, Note_on_c, 3, 69, 96
1, 185520, Note_on_c, 0, 69, 64
1, 185640, Note_on_c, 9, 35, 0
1, 185640, Note_on_c, 9, 53, 0
1, 185640, Note_on_c, 9, 69, 0
1, 185760, Note_on_c, 3, 69, 0
1, 185760, Note_on_c, 0, 69, 0
1, 185760, Note_on_c, 9, 36, 64
1, 185760, Note_on_c, 9, 40, 64
1, 185760, Note_on_c, 9, 69, 64
1, 185760, Note_on_c, 9, 33, 80
1, 185760, Note_on_c, 3, 72, 96
1, 185760, Note_on_c, 0, 72, 64
1, 185760, Note_on_c, 9, 38, 119
1, 185880, Note_on_c, 9, 33, 0
1, 185880, Note_on_c, 9, 69, 0
1, 185880, Note_on_c, 9, 40, 0
1, 185880, Note_on_c, 9, 36, 0
1, 185880, Note_on_c, 9, 38, 0
1, 186000, Note_on_c, 3, 72, 0
1, 186000, Note_on_c, 0, 72, 0
1, 186000, Note_on_c, 9, 69, 64
1, 186000, Note_on_c, 9, 33, 80
1, 186000, Note_on_c, 3, 74, 96
1, 186000, Note_on_c, 0, 74, 64
1, 186120, Note_on_c, 9, 33, 0
1, 186120, Note_on_c, 9, 69, 0
1, 186180, Note_on_c, 13, 36, 0
1, 186180, Note_on_c, 12, 48, 0
1, 186240, Note_on_c, 4, 76, 0
1, 186240, Note_on_c, 14, 60, 0
1, 186240, Note_on_c, 14, 57, 0
1, 186240, Note_on_c, 3, 74, 0
1, 186240, Note_on_c, 0, 74, 0
1, 186240, Note_on_c, 4, 76, 52
1, 186240, Note_on_c, 9, 69, 64
1, 186240, Note_on_c, 9, 35, 80
1, 186240, Note_on_c, 14, 64, 22
1, 186240, Note_on_c, 14, 57, 22
1, 186240, Note_on_c, 14, 60, 22
1, 186240, Note_on_c, 3, 76, 96
1, 186240, Note_on_c, 0, 64, 64
1, 186240, Note_on_c, 13, 40, 64
1, 186240, Note_on_c, 12, 40, 112
1, 186360, Note_on_c, 9, 35, 0
1, 186360, Note_on_c, 9, 69, 0
1, 186480, Note_on_c, 0, 64, 0
1, 186480, Note_on_c, 3, 76, 0
1, 186480, Note_on_c, 9, 69, 64
1, 186480, Note_on_c, 9, 53, 32
1, 186480, Note_on_c, 9, 34, 80
1, 186480, Note_on_c, 3, 77, 96
1, 186480, Note_on_c, 0, 65, 64
1, 186600, Note_on_c, 9, 34, 0
1, 186600, Note_on_c, 9, 53, 0
1, 186600, Note_on_c, 9, 69, 0
1, 186720, Note_on_c, 0, 65, 0
1, 186720, Note_on_c, 3, 77, 0
1, 186720, Note_on_c, 9, 40, 64
1, 186720, Note_on_c, 9, 69, 64
1, 186720, Note_on_c, 9, 33, 80
1, 186720, Note_on_c, 9, 34, 64
1, 186720, Note_on_c, 3, 76, 96
1, 186720, Note_on_c, 0, 64, 64
1, 186720, Note_on_c, 9, 38, 119
1, 186840, Note_on_c, 9, 34, 0
1, 186840, Note_on_c, 9, 33, 0
1, 186840, Note_on_c, 9, 69, 0
1, 186840, Note_on_c, 9, 40, 0
1, 186840, Note_on_c, 9, 38, 0
1, 186900, Note_on_c, 12, 40, 0
1, 186900, Note_on_c, 13, 40, 0
1, 186960, Note_on_c, 9, 69, 64
1, 186960, Note_on_c, 9, 35, 80
1, 186960, Note_on_c, 13, 40, 64
1, 186960, Note_on_c, 12, 40, 112
1, 187080, Note_on_c, 9, 35, 0
1, 187080, Note_on_c, 9, 69, 0
1, 187200, Note_on_c, 9, 69, 64
1, 187200, Note_on_c, 9, 35, 80
1, 187320, Note_on_c, 9, 35, 0
1, 187320, Note_on_c, 9, 69, 0
1, 187440, Note_on_c, 0, 64, 0
1, 187440, Note_on_c, 9, 69, 64
1, 187440, Note_on_c, 9, 53, 32
1, 187440, Note_on_c, 9, 34, 80
1, 187440, Note_on_c, 0, 62, 64
1, 187560, Note_on_c, 9, 34, 0
1, 187560, Note_on_c, 9, 53, 0
1, 187560, Note_on_c, 9, 69, 0
1, 187680, Note_on_c, 3, 76, 0
1, 187680, Note_on_c, 9, 36, 64
1, 187680, Note_on_c, 9, 40, 64
1, 187680, Note_on_c, 9, 69, 64
1, 187680, Note_on_c, 9, 33, 80
1, 187680, Note_on_c, 3, 74, 96
1, 187680, Note_on_c, 9, 38, 119
1, 187800, Note_on_c, 9, 33, 0
1, 187800, Note_on_c, 9, 69, 0
1, 187800, Note_on_c, 9, 40, 0
1, 187800, Note_on_c, 9, 36, 0
1, 187800, Note_on_c, 9, 38, 0
1, 187920, Note_on_c, 3, 74, 0
1, 187920, Note_on_c, 9, 69, 64
1, 187920, Note_on_c, 9, 35, 80
1, 187920, Note_on_c, 3, 67, 96
1, 188040, Note_on_c, 9, 35, 0
1, 188040, Note_on_c, 9, 69, 0
1, 188040, Note_on_c, 9, 69, 52
1, 188100, Note_on_c, 12, 40, 0
1, 188100, Note_on_c, 13, 40, 0
1, 188160, Note_on_c, 3, 67, 0
1, 188160, Note_on_c, 9, 69, 0
1, 188160, Note_on_c, 9, 69, 80
1, 188160, Note_on_c, 9, 35, 80
1, 188160, Note_on_c, 3, 72, 96
1, 188160, Note_on_c, 13, 36, 64
1, 188160, Note_on_c, 12, 36, 112
1, 188280, Note_on_c, 9, 35, 0
1, 188280, Note_on_c, 9, 69, 0
1, 188400, Note_on_c, 9, 69, 64
1, 188400, Note_on_c, 9, 53, 32
1, 188400, Note_on_c, 9, 34, 80
1, 188520, Note_on_c, 9, 34, 0
1, 188520, Note_on_c, 9, 53, 0
1, 188520, Note_on_c, 9, 69, 0
1, 188640, Note_on_c, 0, 62, 0
1, 188640, Note_on_c, 3, 72, 0
1, 188640, Note_on_c, 14, 60, 0
1, 188640, Note_on_c, 14, 57, 0
1, 188640, Note_on_c, 14, 64, 0
1, 188640, Note_on_c, 4, 76, 0
1, 188640, Note_on_c, 4, 74, 52
1, 188640, Note_on_c, 0, 74, 64
1, 188640, Note_on_c, 9, 40, 64
1, 188640, Note_on_c, 9, 69, 64
1, 188640, Note_on_c, 9, 33, 80
1, 188640, Note_on_c, 9, 34, 64
1, 188640, Note_on_c, 14, 62, 22
1, 188640, Note_on_c, 3, 74, 96
1, 188640, Note_on_c, 9, 38, 119
1, 188760, Note_on_c, 9, 34, 0
1, 188760, Note_on_c, 9, 33, 0
1, 188760, Note_on_c, 9, 69, 0
1, 188760, Note_on_c, 9, 40, 0
1, 188760, Note_on_c, 9, 38, 0
1, 188820, Note_on_c, 12, 36, 0
1, 188820, Note_on_c, 13, 36, 0
1, 188880, Note_on_c, 9, 69, 64
1, 188880, Note_on_c, 9, 35, 80
1, 188880, Note_on_c, 13, 36, 64
1, 188880, Note_on_c, 12, 36, 112
1, 189000, Note_on_c, 9, 35, 0
1, 189000, Note_on_c, 9, 69, 0
1, 189120, Note_on_c, 3, 74, 0
1, 189120, Note_on_c, 14, 62, 0
1, 189120, Note_on_c, 0, 74, 0
1, 189120, Note_on_c, 4, 74, 0
1, 189120, Note_on_c, 4, 67, 52
1, 189120, Note_on_c, 9, 69, 64
1, 189120, Note_on_c, 9, 35, 80
1, 189120, Note_on_c, 0, 72, 64
1, 189120, Note_on_c, 14, 55, 22
1, 189240, Note_on_c, 9, 35, 0
1, 189240, Note_on_c, 9, 69, 0
1, 189360, Note_on_c, 0, 72, 0
1, 189360, Note_on_c, 9, 69, 64
1, 189360, Note_on_c, 9, 53, 32
1, 189360, Note_on_c, 9, 35, 80
1, 189360, Note_on_c, 0, 67, 64
1, 189360, Note_on_c, 3, 67, 96
1, 189480, Note_on_c, 9, 35, 0
1, 189480, Note_on_c, 9, 53, 0
1, 189480, Note_on_c, 9, 69, 0
1, 189600, Note_on_c, 3, 67, 0
1, 189600, Note_on_c, 14, 55, 0
1, 189600, Note_on_c, 0, 67, 0
1, 189600, Note_on_c, 4, 67, 0
1, 189600, Note_on_c, 9, 36, 64
1, 189600, Note_on_c, 9, 40, 64
1, 189600, Note_on_c, 9, 69, 64
1, 189600, Note_on_c, 9, 33, 80
1, 189600, Note_on_c, 0, 76, 64
1, 189600, Note_on_c, 3, 72, 96
1, 189600, Note_on_c, 14, 64, 22
1, 189600, Note_on_c, 14, 60, 22
1, 189600, Note_on_c, 9, 38, 119
1, 189720, Note_on_c, 9, 33, 0
1, 189720, Note_on_c, 9, 69, 0
1, 189720, Note_on_c, 9, 40, 0
1, 189720, Note_on_c, 9, 36, 0
1, 189720, Note_on_c, 9, 38, 0
1, 189840, Note_on_c, 3, 72, 0
1, 189840, Note_on_c, 0, 76, 0
1, 189840, Note_on_c, 9, 69, 64
1, 189840, Note_on_c, 9, 33, 80
1, 189840, Note_on_c, 0, 67, 64
1, 189840, Note_on_c, 3, 74, 96
1, 189960, Note_on_c, 9, 33, 0
1, 189960, Note_on_c, 9, 69, 0
1, 190020, Note_on_c, 12, 36, 0
1, 190020, Note_on_c, 13, 36, 0
1, 190080, Note_on_c, 3, 74, 0
1, 190080, Note_on_c, 0, 67, 0
1, 190080, Note_on_c, 9, 69, 64
1, 190080, Note_on_c, 9, 35, 80
1, 190080, Note_on_c, 3, 76, 96
1, 190080, Note_on_c, 4, 76, 32
1, 190080, Note_on_c, 0, 64, 64
1, 190080, Note_on_c, 13, 31, 64
1, 190080, Note_on_c, 12, 43, 112
1, 190200, Note_on_c, 9, 69, 0
1, 190200, Note_on_c, 9, 35, 0
1, 190320, Note_on_c, 0, 64, 0
1, 190320, Note_on_c, 3, 76, 0
1, 190320, Note_on_c, 9, 69, 64
1, 190320, Note_on_c, 9, 53, 32
1, 190320, Note_on_c, 9, 34, 80
1, 190320, Note_on_c, 3, 77, 96
1, 190320, Note_on_c, 0, 65, 64
1, 190440, Note_on_c, 9, 69, 0
1, 190440, Note_on_c, 9, 53, 0
1, 190440, Note_on_c, 9, 34, 0
1, 190560, Note_on_c, 0, 65, 0
1, 190560, Note_on_c, 3, 77, 0
1, 190560, Note_on_c, 9, 40, 64
1, 190560, Note_on_c, 9, 69, 64
1, 190560, Note_on_c, 9, 33, 80
1, 190560, Note_on_c, 9, 34, 64
1, 190560, Note_on_c, 3, 76, 96
1, 190560, Note_on_c, 0, 64, 64
1, 190560, Note_on_c, 9, 38, 119
1, 190680, Note_on_c, 9, 40, 0
1, 190680, Note_on_c, 9, 69, 0
1, 190680, Note_on_c, 9, 33, 0
1, 190680, Note_on_c, 9, 34, 0
1, 190680, Note_on_c, 9, 38, 0
1, 190740, Note_on_c, 12, 43, 0
1, 190740, Note_on_c, 13, 31, 0
1, 190800, Note_on_c, 9, 69, 64
1, 190800, Note_on_c, 9, 35, 80
1, 190800, Note_on_c, 13, 31, 64
1, 190800, Note_on_c, 12, 43, 112
1, 190920, Note_on_c, 9, 69, 0
1, 190920, Note_on_c, 9, 35, 0
1, 191040, Note_on_c, 14, 60, 0
1, 191040, Note_on_c, 14, 64, 0
1, 191040, Note_on_c, 9, 69, 64
1, 191040, Note_on_c, 9, 35, 80
1, 191040, Note_on_c, 14, 62, 22
1, 191040, Note_on_c, 14, 57, 22
1, 191160, Note_on_c, 9, 69, 0
1, 191160, Note_on_c, 9, 35, 0
1, 191280, Note_on_c, 3, 76, 0
1, 191280, Note_on_c, 9, 69, 64
1, 191280, Note_on_c, 9, 53, 32
1, 191280, Note_on_c, 9, 34, 80
1, 191280, Note_on_c, 3, 81, 96
1, 191400, Note_on_c, 9, 69, 0
1, 191400, Note_on_c, 9, 53, 0
1, 191400, Note_on_c, 9, 34, 0
1, 191520, Note_on_c, 3, 81, 0
1, 191520, Note_on_c, 9, 36, 64
1, 191520, Note_on_c, 9, 40, 64
1, 191520, Note_on_c, 9, 69, 64
1, 191520, Note_on_c, 9, 33, 80
1, 191520, Note_on_c, 9, 38, 119
1, 191640, Note_on_c, 9, 36, 0
1, 191640, Note_on_c, 9, 40, 0
1, 191640, Note_on_c, 9, 69, 0
1, 191640, Note_on_c, 9, 33, 0
1, 191640, Note_on_c, 9, 38, 0
1, 191760, Note_on_c, 9, 69, 64
1, 191760, Note_on_c, 9, 35, 80
1, 191760, Note_on_c, 3, 79, 96
1, 191880, Note_on_c, 9, 69, 0
1, 191880, Note_on_c, 9, 35, 0
1, 191880, Note_on_c, 9, 69, 52
1, 191940, Note_on_c, 12, 43, 0
1, 191940, Note_on_c, 13, 31, 0
1, 192000, Note_on_c, 14, 57, 0
1, 192000, Note_on_c, 14, 62, 0
1, 192000, Note_on_c, 9, 69, 0
1, 192000, Note_on_c, 9, 69, 80
1, 192000, Note_on_c, 9, 35, 80
1, 192000, Note_on_c, 14, 60, 22
1, 192000, Note_on_c, 14, 57, 22
1, 192000, Note_on_c, 13, 36, 64
1, 192000, Note_on_c, 12, 48, 112
1, 192120, Note_on_c, 9, 69, 0
1, 192120, Note_on_c, 9, 35, 0
1, 192240, Note_on_c, 9, 69, 64
1, 192240, Note_on_c, 9, 53, 32
1, 192240, Note_on_c, 9, 34, 80
1, 192360, Note_on_c, 9, 69, 0
1, 192360, Note_on_c, 9, 53, 0
1, 192360, Note_on_c, 9, 34, 0
1, 192480, Note_on_c, 0, 64, 0
1, 192480, Note_on_c, 3, 79, 0
1, 192480, Note_on_c, 9, 40, 64
1, 192480, Note_on_c, 9, 69, 64
1, 192480, Note_on_c, 9, 33, 80
1, 192480, Note_on_c, 9, 34, 64
1, 192480, Note_on_c, 0, 74, 64
1, 192480, Note_on_c, 9, 38, 119
1, 192600, Note_on_c, 9, 40, 0
1, 192600, Note_on_c, 9, 69, 0
1, 192600, Note_on_c, 9, 33, 0
1, 192600, Note_on_c, 9, 34, 0
1, 192600, Note_on_c, 9, 38, 0
1, 192660, Note_on_c, 12, 48, 0
1, 192660, Note_on_c, 13, 36, 0
1, 192720, Note_on_c, 9, 69, 64
1, 192720, Note_on_c, 9, 35, 80
1, 192720, Note_on_c, 13, 36, 64
1, 192720, Note_on_c, 12, 48, 112
1, 192840, Note_on_c, 9, 69, 0
1, 192840, Note_on_c, 9, 35, 0
1, 192960, Note_on_c, 0, 74, 0
1, 192960, Note_on_c, 9, 69, 64
1, 192960, Note_on_c, 9, 35, 80
1, 192960, Note_on_c, 0, 72, 64
1, 193080, Note_on_c, 9, 69, 0
1, 193080, Note_on_c, 9, 35, 0
1, 193200, Note_on_c, 0, 72, 0
1, 193200, Note_on_c, 9, 69, 64
1, 193200, Note_on_c, 9, 53, 32
1, 193200, Note_on_c, 9, 35, 80
1, 193200, Note_on_c, 3, 69, 96
1, 193320, Note_on_c, 9, 69, 0
1, 193320, Note_on_c, 9, 53, 0
1, 193320, Note_on_c, 9, 35, 0
1, 193440, Note_on_c, 3, 69, 0
1, 193440, Note_on_c, 9, 36, 64
1, 193440, Note_on_c, 9, 40, 64
1, 193440, Note_on_c, 9, 69, 64
1, 193440, Note_on_c, 9, 33, 80
1, 193440, Note_on_c, 9, 38, 119
1, 193440, Note_on_c, 9, 59, 119
1, 193440, Note_on_c, 3, 72, 96
1, 193560, Note_on_c, 9, 38, 0
1, 193560, Note_on_c, 9, 59, 0
1, 193560, Note_on_c, 9, 36, 0
1, 193560, Note_on_c, 9, 40, 0
1, 193560, Note_on_c, 9, 69, 0
1, 193560, Note_on_c, 9, 33, 0
1, 193680, Note_on_c, 3, 72, 0
1, 193680, Note_on_c, 9, 69, 64
1, 193680, Note_on_c, 9, 33, 80
1, 193680, Note_on_c, 9, 46, 64
1, 193680, Note_on_c, 3, 74, 96
1, 193800, Note_on_c, 9, 46, 0
1, 193800, Note_on_c, 9, 69, 0
1, 193800, Note_on_c, 9, 33, 0
1, 193860, Note_on_c, 13, 36, 0
1, 193860, Note_on_c, 12, 48, 0
1, 193920, Note_on_c, 14, 57, 0
1, 193920, Note_on_c, 14, 60, 0
1, 193920, Note_on_c, 4, 76, 0
1, 193920, Note_on_c, 3, 74, 0
1, 193920, Note_on_c, 4, 76, 52
1, 193920, Note_on_c, 9, 69, 64
1, 193920, Note_on_c, 9, 35, 80
1, 193920, Note_on_c, 14, 64, 22
1, 193920, Note_on_c, 14, 57, 22
1, 193920, Note_on_c, 14, 60, 22
1, 193920, Note_on_c, 3, 76, 96
1, 193920, Note_on_c, 0, 64, 64
1, 193920, Note_on_c, 13, 40, 64
1, 193920, Note_on_c, 12, 40, 112
1, 194040, Note_on_c, 9, 35, 0
1, 194040, Note_on_c, 9, 69, 0
1, 194160, Note_on_c, 0, 64, 0
1, 194160, Note_on_c, 3, 76, 0
1, 194160, Note_on_c, 9, 69, 64
1, 194160, Note_on_c, 9, 53, 32
1, 194160, Note_on_c, 9, 34, 80
1, 194160, Note_on_c, 3, 77, 96
1, 194160, Note_on_c, 0, 65, 64
1, 194280, Note_on_c, 9, 34, 0
1, 194280, Note_on_c, 9, 53, 0
1, 194280, Note_on_c, 9, 69, 0
1, 194400, Note_on_c, 0, 65, 0
1, 194400, Note_on_c, 3, 77, 0
1, 194400, Note_on_c, 9, 40, 64
1, 194400, Note_on_c, 9, 69, 64
1, 194400, Note_on_c, 9, 33, 80
1, 194400, Note_on_c, 9, 34, 64
1, 194400, Note_on_c, 3, 76, 96
1, 194400, Note_on_c, 0, 64, 64
1, 194400, Note_on_c, 9, 38, 119
1, 194520, Note_on_c, 9, 38, 0
1, 194520, Note_on_c, 9, 34, 0
1, 194520, Note_on_c, 9, 33, 0
1, 194520, Note_on_c, 9, 69, 0
1, 194520, Note_on_c, 9, 40, 0
1, 194580, Note_on_c, 12, 40, 0
1, 194580, Note_on_c, 13, 40, 0
1, 194640, Note_on_c, 9, 69, 64
1, 194640, Note_on_c, 9, 35, 80
1, 194640, Note_on_c, 13, 40, 64
1, 194640, Note_on_c, 12, 40, 112
1, 194760, Note_on_c, 9, 35, 0
1, 194760, Note_on_c, 9, 69, 0
1, 194880, Note_on_c, 9, 69, 64
1, 194880, Note_on_c, 9, 35, 80
1, 195000, Note_on_c, 9, 35, 0
1, 195000, Note_on_c, 9, 69, 0
1, 195120, Note_on_c, 0, 64, 0
1, 195120, Note_on_c, 9, 69, 64
1, 195120, Note_on_c, 9, 53, 32
1, 195120, Note_on_c, 9, 34, 80
1, 195120, Note_on_c, 0, 62, 64
1, 195240, Note_on_c, 9, 34, 0
1, 195240, Note_on_c, 9, 53, 0
1, 195240, Note_on_c, 9, 69, 0
1, 195360, Note_on_c, 3, 76, 0
1, 195360, Note_on_c, 9, 36, 64
1, 195360, Note_on_c, 9, 40, 64
1, 195360, Note_on_c, 9, 69, 64
1, 195360, Note_on_c, 9, 33, 80
1, 195360, Note_on_c, 3, 74, 96
1, 195360, Note_on_c, 9, 38, 119
1, 195480, Note_on_c, 9, 38, 0
1, 195480, Note_on_c, 9, 33, 0
1, 195480, Note_on_c, 9, 69, 0
1, 195480, Note_on_c, 9, 40, 0
1, 195480, Note_on_c, 9, 36, 0
1, 195600, Note_on_c, 3, 74, 0
1, 195600, Note_on_c, 9, 69, 64
1, 195600, Note_on_c, 9, 35, 80
1, 195600, Note_on_c, 3, 67, 96
1, 195720, Note_on_c, 9, 35, 0
1, 195720, Note_on_c, 9, 69, 0
1, 195720, Note_on_c, 9, 69, 52
1, 195780, Note_on_c, 12, 40, 0
1, 195780, Note_on_c, 13, 40, 0
1, 195840, Note_on_c, 3, 67, 0
1, 195840, Note_on_c, 9, 69, 0
1, 195840, Note_on_c, 9, 69, 80
1, 195840, Note_on_c, 9, 35, 80
1, 195840, Note_on_c, 3, 72, 96
1, 195840, Note_on_c, 13, 36, 64
1, 195840, Note_on_c, 12, 36, 112
1, 195960, Note_on_c, 9, 35, 0
1, 195960, Note_on_c, 9, 69, 0
1, 196080, Note_on_c, 9, 69, 64
1, 196080, Note_on_c, 9, 53, 32
1, 196080, Note_on_c, 9, 34, 80
1, 196200, Note_on_c, 9, 34, 0
1, 196200, Note_on_c, 9, 53, 0
1, 196200, Note_on_c, 9, 69, 0
1, 196320, Note_on_c, 0, 62, 0
1, 196320, Note_on_c, 3, 72, 0
1, 196320, Note_on_c, 14, 60, 0
1, 196320, Note_on_c, 14, 57, 0
1, 196320, Note_on_c, 14, 64, 0
1, 196320, Note_on_c, 4, 76, 0
1, 196320, Note_on_c, 4, 74, 52
1, 196320, Note_on_c, 0, 74, 64
1, 196320, Note_on_c, 9, 40, 64
1, 196320, Note_on_c, 9, 69, 64
1, 196320, Note_on_c, 9, 33, 80
1, 196320, Note_on_c, 9, 34, 64
1, 196320, Note_on_c, 14, 62, 22
1, 196320, Note_on_c, 3, 74, 96
1, 196320, Note_on_c, 9, 38, 119
1, 196440, Note_on_c, 9, 38, 0
1, 196440, Note_on_c, 9, 34, 0
1, 196440, Note_on_c, 9, 33, 0
1, 196440, Note_on_c, 9, 69, 0
1, 196440, Note_on_c, 9, 40, 0
1, 196500, Note_on_c, 12, 36, 0
1, 196500, Note_on_c, 13, 36, 0
1, 196560, Note_on_c, 9, 69, 64
1, 196560, Note_on_c, 9, 35, 80
1, 196560, Note_on_c, 13, 36, 64
1, 196560, Note_on_c, 12, 36, 112
1, 196680, Note_on_c, 9, 35, 0
1, 196680, Note_on_c, 9, 69, 0
1, 196800, Note_on_c, 3, 74, 0
1, 196800, Note_on_c, 14, 62, 0
1, 196800, Note_on_c, 0, 74, 0
1, 196800, Note_on_c, 4, 74, 0
1, 196800, Note_on_c, 4, 67, 52
1, 196800, Note_on_c, 9, 69, 64
1, 196800, Note_on_c, 9, 35, 80
1, 196800, Note_on_c, 0, 72, 64
1, 196800, Note_on_c, 14, 55, 22
1, 196920, Note_on_c, 9, 35, 0
1, 196920, Note_on_c, 9, 69, 0
1, 197040, Note_on_c, 0, 72, 0
1, 197040, Note_on_c, 9, 69, 64
1, 197040, Note_on_c, 9, 53, 32
1, 197040, Note_on_c, 9, 35, 80
1, 197040, Note_on_c, 0, 67, 64
1, 197040, Note_on_c, 3, 67, 96
1, 197160, Note_on_c, 9, 35, 0
1, 197160, Note_on_c, 9, 53, 0
1, 197160, Note_on_c, 9, 69, 0
1, 197280, Note_on_c, 3, 67, 0
1, 197280, Note_on_c, 14, 55, 0
1, 197280, Note_on_c, 0, 67, 0
1, 197280, Note_on_c, 4, 67, 0
1, 197280, Note_on_c, 9, 36, 64
1, 197280, Note_on_c, 9, 40, 64
1, 197280, Note_on_c, 9, 69, 64
1, 197280, Note_on_c, 9, 33, 80
1, 197280, Note_on_c, 0, 76, 64
1, 197280, Note_on_c, 3, 72, 96
1, 197280, Note_on_c, 14, 64, 22
1, 197280, Note_on_c, 14, 60, 22
1, 197280, Note_on_c, 9, 38, 119
1, 197400, Note_on_c, 9, 38, 0
1, 197400, Note_on_c, 9, 33, 0
1, 197400, Note_on_c, 9, 69, 0
1, 197400, Note_on_c, 9, 40, 0
1, 197400, Note_on_c, 9, 36, 0
1, 197520, Note_on_c, 3, 72, 0
1, 197520, Note_on_c, 0, 76, 0
1, 197520, Note_on_c, 9, 69, 64
1, 197520, Note_on_c, 9, 33, 80
1, 197520, Note_on_c, 0, 67, 64
1, 197520, Note_on_c, 3, 74, 96
1, 197640, Note_on_c, 9, 33, 0
1, 197640, Note_on_c, 9, 69, 0
1, 197700, Note_on_c, 12, 36, 0
1, 197700, Note_on_c, 13, 36, 0
1, 197760, Note_on_c, 3, 74, 0
1, 197760, Note_on_c, 0, 67, 0
1, 197760, Note_on_c, 9, 69, 64
1, 197760, Note_on_c, 9, 35, 80
1, 197760, Note_on_c, 3, 76, 96
1, 197760, Note_on_c, 4, 76, 32
1, 197760, Note_on_c, 0, 64, 64
1, 197760, Note_on_c, 13, 31, 64
1, 197760, Note_on_c, 12, 43, 112
1, 197880, Note_on_c, 9, 69, 0
1, 197880, Note_on_c, 9, 35, 0
1, 198000, Note_on_c, 0, 64, 0
1, 198000, Note_on_c, 3, 76, 0
1, 198000, Note_on_c, 9, 69, 64
1, 198000, Note_on_c, 9, 53, 32
1, 198000, Note_on_c, 9, 34, 80
1, 198000, Note_on_c, 3, 77, 96
1, 198000, Note_on_c, 0, 65, 64
1, 198120, Note_on_c, 9, 69, 0
1, 198120, Note_on_c, 9, 53, 0
1, 198120, Note_on_c, 9, 34, 0
1, 198240, Note_on_c, 0, 65, 0
1, 198240, Note_on_c, 3, 77, 0
1, 198240, Note_on_c, 9, 40, 64
1, 198240, Note_on_c, 9, 69, 64
1, 198240, Note_on_c, 9, 33, 80
1, 198240, Note_on_c, 9, 34, 64
1, 198240, Note_on_c, 3, 76, 96
1, 198240, Note_on_c, 0, 64, 64
1, 198240, Note_on_c, 9, 38, 119
1, 198360, Note_on_c, 9, 38, 0
1, 198360, Note_on_c, 9, 40, 0
1, 198360, Note_on_c, 9, 69, 0
1, 198360, Note_on_c, 9, 33, 0
1, 198360, Note_on_c, 9, 34, 0
1, 198420, Note_on_c, 12, 43, 0
1, 198420, Note_on_c, 13, 31, 0
1, 198480, Note_on_c, 9, 69, 64
1, 198480, Note_on_c, 9, 35, 80
1, 198480, Note_on_c, 13, 31, 64
1, 198480, Note_on_c, 12, 43, 112
1, 198600, Note_on_c, 9, 69, 0
1, 198600, Note_on_c, 9, 35, 0
1, 198720, Note_on_c, 14, 60, 0
1, 198720, Note_on_c, 14, 64, 0
1, 198720, Note_on_c, 9, 69, 64
1, 198720, Note_on_c, 9, 35, 80
1, 198720, Note_on_c, 14, 62, 22
1, 198720, Note_on_c, 14, 57, 22
1, 198840, Note_on_c, 9, 69, 0
1, 198840, Note_on_c, 9, 35, 0
1, 198960, Note_on_c, 3, 76, 0
1, 198960, Note_on_c, 9, 69, 64
1, 198960, Note_on_c, 9, 53, 32
1, 198960, Note_on_c, 9, 34, 80
1, 198960, Note_on_c, 3, 81, 96
1, 199080, Note_on_c, 9, 69, 0
1, 199080, Note_on_c, 9, 53, 0
1, 199080, Note_on_c, 9, 34, 0
1, 199200, Note_on_c, 3, 81, 0
1, 199200, Note_on_c, 9, 36, 64
1, 199200, Note_on_c, 9, 40, 64
1, 199200, Note_on_c, 9, 69, 64
1, 199200, Note_on_c, 9, 33, 80
1, 199200, Note_on_c, 9, 38, 119
1, 199320, Note_on_c, 9, 38, 0
1, 199320, Note_on_c, 9, 36, 0
1, 199320, Note_on_c, 9, 40, 0
1, 199320, Note_on_c, 9, 69, 0
1, 199320, Note_on_c, 9, 33, 0
1, 199440, Note_on_c, 9, 69, 64
1, 199440, Note_on_c, 9, 35, 80
1, 199440, Note_on_c, 3, 79, 96
1, 199560, Note_on_c, 9, 69, 0
1, 199560, Note_on_c, 9, 35, 0
1, 199560, Note_on_c, 9, 69, 52
1, 199620, Note_on_c, 12, 43, 0
1, 199620, Note_on_c, 13, 31, 0
1, 199680, Note_on_c, 14, 57, 0
1, 199680, Note_on_c, 14, 62, 0
1, 199680, Note_on_c, 9, 69, 0
1, 199680, Note_on_c, 9, 69, 80
1, 199680, Note_on_c, 9, 35, 80
1, 199680, Note_on_c, 14, 60, 22
1, 199680, Note_on_c, 14, 57, 22
1, 199680, Note_on_c, 13, 36, 64
1, 199680, Note_on_c, 12, 48, 112
1, 199800, Note_on_c, 9, 69, 0
1, 199800, Note_on_c, 9, 35, 0
1, 199920, Note_on_c, 9, 69, 64
1, 199920, Note_on_c, 9, 53, 32
1, 199920, Note_on_c, 9, 34, 80
1, 200040, Note_on_c, 9, 69, 0
1, 200040, Note_on_c, 9, 53, 0
1, 200040, Note_on_c, 9, 34, 0
1, 200160, Note_on_c, 0, 64, 0
1, 200160, Note_on_c, 3, 79, 0
1, 200160, Note_on_c, 9, 40, 64
1, 200160, Note_on_c, 9, 69, 64
1, 200160, Note_on_c, 9, 33, 80
1, 200160, Note_on_c, 9, 34, 64
1, 200160, Note_on_c, 0, 74, 64
1, 200160, Note_on_c, 9, 38, 119
1, 200280, Note_on_c, 9, 38, 0
1, 200280, Note_on_c, 9, 40, 0
1, 200280, Note_on_c, 9, 69, 0
1, 200280, Note_on_c, 9, 33, 0
1, 200280, Note_on_c, 9, 34, 0
1, 200340, Note_on_c, 12, 48, 0
1, 200340, Note_on_c, 13, 36, 0
1, 200400, Note_on_c, 9, 69, 64
1, 200400, Note_on_c, 9, 35, 80
1, 200400, Note_on_c, 13, 36, 64
1, 200400, Note_on_c, 12, 48, 112
1, 200520, Note_on_c, 9, 69, 0
1, 200520, Note_on_c, 9, 35, 0
1, 200640, Note_on_c, 0, 74, 0
1, 200640, Note_on_c, 9, 69, 64
1, 200640, Note_on_c, 9, 35, 80
1, 200640, Note_on_c, 0, 72, 64
1, 200760, Note_on_c, 9, 69, 0
1, 200760, Note_on_c, 9, 35, 0
1, 200880, Note_on_c, 0, 72, 0
1, 200880, Note_on_c, 9, 69, 64
1, 200880, Note_on_c, 9, 53, 32
1, 200880, Note_on_c, 9, 35, 80
1, 200880, Note_on_c, 3, 69, 96
1, 200880, Note_on_c, 0, 69, 64
1, 201000, Note_on_c, 9, 69, 0
1, 201000, Note_on_c, 9, 53, 0
1, 201000, Note_on_c, 9, 35, 0
1, 201120, Note_on_c, 0, 69, 0
1, 201120, Note_on_c, 3, 69, 0
1, 201120, Note_on_c, 9, 36, 64
1, 201120, Note_on_c, 9, 40, 64
1, 201120, Note_on_c, 9, 69, 64
1, 201120, Note_on_c, 9, 33, 80
1, 201120, Note_on_c, 3, 72, 96
1, 201120, Note_on_c, 0, 72, 64
1, 201120, Note_on_c, 9, 38, 119
1, 201240, Note_on_c, 9, 38, 0
1, 201240, Note_on_c, 9, 36, 0
1, 201240, Note_on_c, 9, 40, 0
1, 201240, Note_on_c, 9, 69, 0
1, 201240, Note_on_c, 9, 33, 0
1, 201360, Note_on_c, 0, 72, 0
1, 201360, Note_on_c, 3, 72, 0
1, 201360, Note_on_c, 9, 69, 64
1, 201360, Note_on_c, 9, 33, 80
1, 201360, Note_on_c, 3, 74, 96
1, 201360, Note_on_c, 0, 74, 64
1, 201480, Note_on_c, 9, 69, 0
1, 201480, Note_on_c, 9, 33, 0
1, 201540, Note_on_c, 12, 48, 0
1, 201540, Note_on_c, 13, 36, 0
1, 201600, Note_on_c, 0, 74, 0
1, 201600, Note_on_c, 3, 74, 0
1, 201600, Note_on_c, 14, 57, 0
1, 201600, Note_on_c, 14, 60, 0
1, 201600, Note_on_c, 4, 76, 0
1, 201600, Note_on_c, 9, 69, 64
1, 201600, Note_on_c, 9, 35, 80
1, 201600, Note_on_c, 3, 76, 96
1, 201600, Note_on_c, 0, 64, 64
1, 201600, Note_on_c, 13, 40, 64
1, 201600, Note_on_c, 12, 40, 112
1, 201600, Note_on_c, 14, 64, 22
1, 201600, Note_on_c, 14, 57, 22
1, 201600, Note_on_c, 14, 60, 22
1, 201600, Note_on_c, 4, 76, 52
1, 201720, Note_on_c, 9, 69, 0
1, 201720, Note_on_c, 9, 35, 0
1, 201840, Note_on_c, 3, 76, 0
1, 201840, Note_on_c, 0, 64, 0
1, 201840, Note_on_c, 9, 69, 64
1, 201840, Note_on_c, 9, 53, 32
1, 201840, Note_on_c, 9, 34, 80
1, 201840, Note_on_c, 3, 77, 96
1, 201840, Note_on_c, 0, 65, 64
1, 201960, Note_on_c, 9, 69, 0
1, 201960, Note_on_c, 9, 53, 0
1, 201960, Note_on_c, 9, 34, 0
1, 202080, Note_on_c, 3, 77, 0
1, 202080, Note_on_c, 0, 65, 0
1, 202080, Note_on_c, 9, 40, 64
1, 202080, Note_on_c, 9, 69, 64
1, 202080, Note_on_c, 9, 33, 80
1, 202080, Note_on_c, 9, 34, 64
1, 202080, Note_on_c, 0, 64, 64
1, 202080, Note_on_c, 9, 38, 119
1, 202080, Note_on_c, 3, 76, 96
1, 202200, Note_on_c, 9, 38, 0
1, 202200, Note_on_c, 9, 40, 0
1, 202200, Note_on_c, 9, 69, 0
1, 202200, Note_on_c, 9, 33, 0
1, 202200, Note_on_c, 9, 34, 0
1, 202260, Note_on_c, 13, 40, 0
1, 202260, Note_on_c, 12, 40, 0
1, 202320, Note_on_c, 3, 76, 0
1, 202320, Note_on_c, 9, 69, 64
1, 202320, Note_on_c, 9, 35, 80
1, 202320, Note_on_c, 13, 40, 64
1, 202320, Note_on_c, 12, 40, 112
1, 202440, Note_on_c, 9, 69, 0
1, 202440, Note_on_c, 9, 35, 0
1, 202560, Note_on_c, 9, 69, 64
1, 202560, Note_on_c, 9, 35, 80
1, 202680, Note_on_c, 9, 69, 0
1, 202680, Note_on_c, 9, 35, 0
1, 202800, Note_on_c, 0, 64, 0
1, 202800, Note_on_c, 9, 69, 64
1, 202800, Note_on_c, 9, 53, 32
1, 202800, Note_on_c, 9, 34, 80
1, 202800, Note_on_c, 3, 69, 96
1, 202920, Note_on_c, 9, 69, 0
1, 202920, Note_on_c, 9, 53, 0
1, 202920, Note_on_c, 9, 34, 0
1, 203040, Note_on_c, 3, 69, 0
1, 203040, Note_on_c, 9, 36, 64
1, 203040, Note_on_c, 9, 40, 64
1, 203040, Note_on_c, 9, 69, 64
1, 203040, Note_on_c, 9, 33, 80
1, 203040, Note_on_c, 9, 38, 119
1, 203040, Note_on_c, 3, 72, 96
1, 203160, Note_on_c, 9, 38, 0
1, 203160, Note_on_c, 9, 36, 0
1, 203160, Note_on_c, 9, 40, 0
1, 203160, Note_on_c, 9, 69, 0
1, 203160, Note_on_c, 9, 33, 0
1, 203280, Note_on_c, 3, 72, 0
1, 203280, Note_on_c, 9, 69, 64
1, 203280, Note_on_c, 9, 35, 80
1, 203280, Note_on_c, 3, 74, 96
1, 203400, Note_on_c, 9, 69, 0
1, 203400, Note_on_c, 9, 35, 0
1, 203400, Note_on_c, 9, 69, 52
1, 203460, Note_on_c, 13, 40, 0
1, 203460, Note_on_c, 12, 40, 0
1, 203520, Note_on_c, 9, 69, 0
1, 203520, Note_on_c, 3, 74, 0
1, 203520, Note_on_c, 3, 76, 96
1, 203520, Note_on_c, 13, 40, 64
1, 203520, Note_on_c, 12, 40, 112
1, 203520, Note_on_c, 9, 69, 64
1, 203520, Note_on_c, 9, 35, 80
1, 203640, Note_on_c, 9, 35, 0
1, 203640, Note_on_c, 9, 69, 0
1, 203760, Note_on_c, 3, 76, 0
1, 203760, Note_on_c, 3, 77, 96
1, 203760, Note_on_c, 9, 69, 64
1, 203760, Note_on_c, 9, 53, 32
1, 203760, Note_on_c, 9, 34, 80
1, 203880, Note_on_c, 9, 34, 0
1, 203880, Note_on_c, 9, 53, 0
1, 203880, Note_on_c, 9, 69, 0
1, 204000, Note_on_c, 3, 77, 0
1, 204000, Note_on_c, 3, 76, 96
1, 204000, Note_on_c, 9, 40, 64
1, 204000, Note_on_c, 9, 69, 64
1, 204000, Note_on_c, 9, 33, 80
1, 204000, Note_on_c, 9, 34, 64
1, 204000, Note_on_c, 9, 38, 119
1, 204120, Note_on_c, 9, 34, 0
1, 204120, Note_on_c, 9, 33, 0
1, 204120, Note_on_c, 9, 69, 0
1, 204120, Note_on_c, 9, 40, 0
1, 204120, Note_on_c, 9, 38, 0
1, 204180, Note_on_c, 12, 40, 0
1, 204180, Note_on_c, 13, 40, 0
1, 204240, Note_on_c, 3, 76, 0
1, 204240, Note_on_c, 13, 40, 64
1, 204240, Note_on_c, 12, 40, 112
1, 204240, Note_on_c, 9, 69, 64
1, 204240, Note_on_c, 9, 35, 80
1, 204360, Note_on_c, 9, 35, 0
1, 204360, Note_on_c, 9, 69, 0
1, 204480, Note_on_c, 9, 69, 64
1, 204480, Note_on_c, 9, 35, 80
1, 204600, Note_on_c, 9, 35, 0
1, 204600, Note_on_c, 9, 69, 0
1, 204720, Note_on_c, 9, 69, 64
1, 204720, Note_on_c, 9, 53, 32
1, 204720, Note_on_c, 9, 34, 80
1, 204720, Note_on_c, 3, 69, 96
1, 204840, Note_on_c, 9, 34, 0
1, 204840, Note_on_c, 9, 53, 0
1, 204840, Note_on_c, 9, 69, 0
1, 204960, Note_on_c, 3, 69, 0
1, 204960, Note_on_c, 9, 36, 64
1, 204960, Note_on_c, 9, 40, 64
1, 204960, Note_on_c, 9, 69, 64
1, 204960, Note_on_c, 9, 33, 80
1, 204960, Note_on_c, 9, 38, 119
1, 204960, Note_on_c, 3, 72, 96
1, 205080, Note_on_c, 9, 33, 0
1, 205080, Note_on_c, 9, 69, 0
1, 205080, Note_on_c, 9, 40, 0
1, 205080, Note_on_c, 9, 36, 0
1, 205080, Note_on_c, 9, 38, 0
1, 205200, Note_on_c, 3, 72, 0
1, 205200, Note_on_c, 9, 69, 64
1, 205200, Note_on_c, 9, 35, 80
1, 205200, Note_on_c, 3, 74, 96
1, 205320, Note_on_c, 9, 35, 0
1, 205320, Note_on_c, 9, 69, 0
1, 205320, Note_on_c, 9, 69, 52
1, 205380, Note_on_c, 12, 40, 0
1, 205380, Note_on_c, 13, 40, 0
1, 205440, Note_on_c, 9, 69, 0
1, 205440, Note_on_c, 3, 74, 0
1, 205440, Note_on_c, 13, 40, 64
1, 205440, Note_on_c, 12, 40, 112
1, 205440, Note_on_c, 9, 69, 64
1, 205440, Note_on_c, 9, 35, 80
1, 205440, Note_on_c, 3, 76, 96
1, 205560, Note_on_c, 9, 69, 0
1, 205560, Note_on_c, 9, 35, 0
1, 205680, Note_on_c, 3, 76, 0
1, 205680, Note_on_c, 9, 69, 64
1, 205680, Note_on_c, 9, 53, 32
1, 205680, Note_on_c, 9, 34, 80
1, 205680, Note_on_c, 3, 77, 96
1, 205800, Note_on_c, 9, 69, 0
1, 205800, Note_on_c, 9, 53, 0
1, 205800, Note_on_c, 9, 34, 0
1, 205920, Note_on_c, 3, 77, 0
1, 205920, Note_on_c, 9, 40, 64
1, 205920, Note_on_c, 9, 69, 64
1, 205920, Note_on_c, 9, 33, 80
1, 205920, Note_on_c, 9, 34, 64
1, 205920, Note_on_c, 9, 38, 119
1, 205920, Note_on_c, 3, 76, 96
1, 206040, Note_on_c, 9, 38, 0
1, 206040, Note_on_c, 9, 40, 0
1, 206040, Note_on_c, 9, 69, 0
1, 206040, Note_on_c, 9, 33, 0
1, 206040, Note_on_c, 9, 34, 0
1, 206100, Note_on_c, 13, 40, 0
1, 206100, Note_on_c, 12, 40, 0
1, 206160, Note_on_c, 3, 76, 0
1, 206160, Note_on_c, 13, 40, 64
1, 206160, Note_on_c, 12, 40, 112
1, 206160, Note_on_c, 9, 69, 64
1, 206160, Note_on_c, 9, 35, 80
1, 206280, Note_on_c, 9, 69, 0
1, 206280, Note_on_c, 9, 35, 0
1, 206400, Note_on_c, 9, 69, 64
1, 206400, Note_on_c, 9, 35, 80
1, 206520, Note_on_c, 9, 69, 0
1, 206520, Note_on_c, 9, 35, 0
1, 206640, Note_on_c, 9, 69, 64
1, 206640, Note_on_c, 9, 53, 32
1, 206640, Note_on_c, 9, 34, 80
1, 206640, Note_on_c, 3, 69, 96
1, 206760, Note_on_c, 9, 69, 0
1, 206760, Note_on_c, 9, 53, 0
1, 206760, Note_on_c, 9, 34, 0
1, 206880, Note_on_c, 3, 69, 0
1, 206880, Note_on_c, 9, 36, 64
1, 206880, Note_on_c, 9, 40, 64
1, 206880, Note_on_c, 9, 69, 64
1, 206880, Note_on_c, 9, 33, 80
1, 206880, Note_on_c, 9, 38, 119
1, 206880, Note_on_c, 3, 76, 96
1, 207000, Note_on_c, 9, 38, 0
1, 207000, Note_on_c, 9, 36, 0
1, 207000, Note_on_c, 9, 40, 0
1, 207000, Note_on_c, 9, 69, 0
1, 207000, Note_on_c, 9, 33, 0
1, 207120, Note_on_c, 3, 76, 0
1, 207120, Note_on_c, 9, 69, 64
1, 207120, Note_on_c, 9, 35, 80
1, 207240, Note_on_c, 9, 69, 0
1, 207240, Note_on_c, 9, 35, 0
1, 207240, Note_on_c, 9, 69, 52
1, 207300, Note_on_c, 13, 40, 0
1, 207300, Note_on_c, 12, 40, 0
1, 207360, Note_on_c, 9, 69, 0
1, 207360, Note_on_c, 14, 60, 0
1, 207360, Note_on_c, 14, 57, 0
1, 207360, Note_on_c, 14, 64, 0
1, 207360, Note_on_c, 4, 76, 0
1, 207360, Note_on_c, 9, 69, 64
1, 207360, Note_on_c, 9, 35, 80
1, 207360, Note_on_c, 3, 77, 96
1, 207360, Note_on_c, 14, 60, 22
1, 207360, Note_on_c, 4, 77, 52
1, 207360, Note_on_c, 14, 65, 22
1, 207360, Note_on_c, 12, 41, 112
1, 207360, Note_on_c, 13, 41, 64
1, 207480, Note_on_c, 9, 35, 0
1, 207480, Note_on_c, 9, 69, 0
1, 207600, Note_on_c, 3, 77, 0
1, 207600, Note_on_c, 9, 69, 64
1, 207600, Note_on_c, 9, 53, 32
1, 207600, Note_on_c, 9, 34, 80
1, 207720, Note_on_c, 9, 34, 0
1, 207720, Note_on_c, 9, 53, 0
1, 207720, Note_on_c, 9, 69, 0
1, 207840, Note_on_c, 9, 40, 64
1, 207840, Note_on_c, 9, 69, 64
1, 207840, Note_on_c, 9, 33, 80
1, 207840, Note_on_c, 9, 34, 64
1, 207840, Note_on_c, 9, 38, 119
1, 207840, Note_on_c, 3, 76, 96
1, 207960, Note_on_c, 9, 34, 0
1, 207960, Note_on_c, 9, 33, 0
1, 207960, Note_on_c, 9, 69, 0
1, 207960, Note_on_c, 9, 40, 0
1, 207960, Note_on_c, 9, 38, 0
1, 208020, Note_on_c, 12, 41, 0
1, 208020, Note_on_c, 13, 41, 0
1, 208080, Note_on_c, 3, 76, 0
1, 208080, Note_on_c, 9, 69, 64
1, 208080, Note_on_c, 9, 35, 80
1, 208080, Note_on_c, 13, 36, 64
1, 208080, Note_on_c, 12, 36, 112
1, 208200, Note_on_c, 9, 35, 0
1, 208200, Note_on_c, 9, 69, 0
1, 208320, Note_on_c, 9, 69, 64
1, 208320, Note_on_c, 9, 35, 80
1, 208320, Note_on_c, 3, 72, 96
1, 208440, Note_on_c, 9, 35, 0
1, 208440, Note_on_c, 9, 69, 0
1, 208560, Note_on_c, 3, 72, 0
1, 208560, Note_on_c, 9, 69, 64
1, 208560, Note_on_c, 9, 53, 32
1, 208560, Note_on_c, 9, 34, 80
1, 208680, Note_on_c, 9, 34, 0
1, 208680, Note_on_c, 9, 53, 0
1, 208680, Note_on_c, 9, 69, 0
1, 208800, Note_on_c, 9, 36, 64
1, 208800, Note_on_c, 9, 40, 64
1, 208800, Note_on_c, 9, 69, 64
1, 208800, Note_on_c, 9, 33, 80
1, 208800, Note_on_c, 9, 38, 119
1, 208800, Note_on_c, 3, 69, 96
1, 208800, Note_on_c, 5, 72, 32
1, 208920, Note_on_c, 9, 33, 0
1, 208920, Note_on_c, 9, 69, 0
1, 208920, Note_on_c, 9, 40, 0
1, 208920, Note_on_c, 9, 36, 0
1, 208920, Note_on_c, 9, 38, 0
1, 209040, Note_on_c, 5, 72, 0
1, 209040, Note_on_c, 9, 69, 64
1, 209040, Note_on_c, 9, 35, 80
1, 209040, Note_on_c, 5, 74, 32
1, 209160, Note_on_c, 9, 35, 0
1, 209160, Note_on_c, 9, 69, 0
1, 209160, Note_on_c, 9, 69, 52
1, 209220, Note_on_c, 12, 36, 0
1, 209220, Note_on_c, 13, 36, 0
1, 209280, Note_on_c, 9, 69, 0
1, 209280, Note_on_c, 3, 69, 0
1, 209280, Note_on_c, 14, 60, 0
1, 209280, Note_on_c, 4, 77, 0
1, 209280, Note_on_c, 14, 65, 0
1, 209280, Note_on_c, 5, 74, 0
1, 209280, Control_c, 14, 11, 127
1, 209280, Control_c, 9, 11, 127
1, 209280, Control_c, 5, 11, 127
1, 209280, Control_c, 3, 11, 127
1, 209280, Control_c, 12, 11, 127
1, 209280, Control_c, 13, 11, 126
1, 209280, Note_on_c, 3, 72, 96
1, 209280, Note_on_c, 5, 76, 32
1, 209280, Note_on_c, 9, 69, 64
1, 209280, Note_on_c, 9, 35, 80
1, 209280, Note_on_c, 13, 36, 48
1, 209280, Note_on_c, 12, 36, 96
1, 209280, Note_on_c, 14, 55, 20
1, 209280, Note_on_c, 14, 64, 32
1, 209280, Note_on_c, 14, 60, 20
1, 209281, Control_c, 9, 11, 126
1, 209281, Control_c, 3, 11, 126
1, 209281, Control_c, 13, 11, 125
1, 209400, Note_on_c, 9, 35, 0
1, 209400, Note_on_c, 9, 69, 0
1, 209462, Control_c, 5, 11, 126
1, 209465, Control_c, 14, 11, 126
1, 209465, Control_c, 9, 11, 125
1, 209465, Control_c, 3, 11, 125
1, 209465, Control_c, 12, 11, 126
1, 209469, Control_c, 13, 11, 124
1, 209520, Note_on_c, 3, 72, 0
1, 209520, Note_on_c, 5, 76, 0
1, 209520, Note_on_c, 13, 36, 0
1, 209520, Note_on_c, 5, 77, 32
1, 209520, Note_on_c, 9, 69, 64
1, 209520, Note_on_c, 9, 53, 32
1, 209520, Note_on_c, 9, 34, 80
1, 209640, Note_on_c, 9, 34, 0
1, 209640, Note_on_c, 9, 53, 0
1, 209640, Note_on_c, 9, 69, 0
1, 209643, Control_c, 5, 11, 125
1, 209649, Control_c, 14, 11, 125
1, 209649, Control_c, 9, 11, 124
1, 209649, Control_c, 3, 11, 124
1, 209649, Control_c, 12, 11, 125
1, 209658, Control_c, 13, 11, 123
1, 209760, Note_on_c, 5, 77, 0
1, 209760, Note_on_c, 5, 76, 32
1, 209760, Note_on_c, 9, 40, 64
1, 209760, Note_on_c, 9, 69, 64
1, 209760, Note_on_c, 9, 33, 80
1, 209760, Note_on_c, 9, 34, 64
1, 209760, Note_on_c, 9, 36, 64
1, 209825, Control_c, 5, 11, 124
1, 209833, Control_c, 14, 11, 124
1, 209833, Control_c, 9, 11, 123
1, 209833, Control_c, 3, 11, 123
1, 209833, Control_c, 12, 11, 124
1, 209847, Control_c, 13, 11, 122
1, 209880, Note_on_c, 9, 33, 0
1, 209880, Note_on_c, 9, 69, 0
1, 209880, Note_on_c, 9, 40, 0
1, 209880, Note_on_c, 9, 36, 0
1, 209880, Note_on_c, 9, 34, 0
1, 209940, Note_on_c, 12, 36, 0
1, 210000, Note_on_c, 5, 76, 0
1, 210000, Note_on_c, 5, 74, 32
1, 210000, Note_on_c, 9, 69, 64
1, 210000, Note_on_c, 9, 35, 80
1, 210000, Note_on_c, 13, 36, 48
1, 210000, Note_on_c, 12, 36, 96
1, 210006, Control_c, 5, 11, 123
1, 210018, Control_c, 14, 11, 123
1, 210018, Control_c, 9, 11, 122
1, 210018, Control_c, 3, 11, 122
1, 210018, Control_c, 12, 11, 123
1, 210036, Control_c, 13, 11, 121
1, 210120, Note_on_c, 9, 35, 0
1, 210120, Note_on_c, 9, 69, 0
1, 210180, Note_on_c, 12, 36, 0
1, 210188, Control_c, 5, 11, 122
1, 210202, Control_c, 14, 11, 122
1, 210202, Control_c, 9, 11, 121
1, 210202, Control_c, 3, 11, 121
1, 210202, Control_c, 12, 11, 122
1, 210225, Control_c, 13, 11, 120
1, 210240, Note_on_c, 5, 74, 0
1, 210240, Note_on_c, 13, 36, 0
1, 210240, Note_on_c, 5, 72, 32
1, 210240, Note_on_c, 9, 69, 64
1, 210240, Note_on_c, 9, 35, 80
1, 210240, Note_on_c, 13, 36, 48
1, 210240, Note_on_c, 12, 36, 96
1, 210360, Note_on_c, 9, 35, 0
1, 210360, Note_on_c, 9, 69, 0
1, 210369, Control_c, 5, 11, 121
1, 210386, Control_c, 14, 11, 121
1, 210386, Control_c, 9, 11, 120
1, 210386, Control_c, 3, 11, 120
1, 210386, Control_c, 12, 11, 121
1, 210414, Control_c, 13, 11, 119
1, 210480, Note_on_c, 13, 36, 0
1, 210480, Note_on_c, 9, 69, 64
1, 210480, Note_on_c, 9, 53, 32
1, 210480, Note_on_c, 9, 34, 80
1, 210550, Control_c, 5, 11, 120
1, 210571, Control_c, 14, 11, 120
1, 210571, Control_c, 9, 11, 119
1, 210571, Control_c, 3, 11, 119
1, 210571, Control_c, 12, 11, 120
1, 210600, Note_on_c, 9, 34, 0
1, 210600, Note_on_c, 9, 53, 0
1, 210600, Note_on_c, 9, 69, 0
1, 210602, Control_c, 13, 11, 118
1, 210660, Note_on_c, 5, 72, 0
1, 210720, Note_on_c, 5, 72, 32
1, 210720, Note_on_c, 9, 36, 64
1, 210720, Note_on_c, 9, 40, 64
1, 210720, Note_on_c, 9, 69, 64
1, 210720, Note_on_c, 9, 33, 80
1, 210732, Control_c, 5, 11, 119
1, 210755, Control_c, 14, 11, 119
1, 210755, Control_c, 9, 11, 118
1, 210755, Control_c, 3, 11, 118
1, 210755, Control_c, 12, 11, 119
1, 210791, Control_c, 13, 11, 117
1, 210840, Note_on_c, 9, 33, 0
1, 210840, Note_on_c, 9, 69, 0
1, 210840, Note_on_c, 9, 40, 0
1, 210840, Note_on_c, 9, 36, 0
1, 210913, Control_c, 5, 11, 118
1, 210939, Control_c, 14, 11, 118
1, 210939, Control_c, 9, 11, 117
1, 210939, Control_c, 3, 11, 117
1, 210939, Control_c, 12, 11, 118
1, 210960, Note_on_c, 5, 72, 0
1, 210960, Note_on_c, 5, 69, 32
1, 210960, Note_on_c, 9, 69, 64
1, 210960, Note_on_c, 9, 35, 80
1, 210980, Control_c, 13, 11, 116
1, 211080, Note_on_c, 9, 35, 0
1, 211080, Note_on_c, 9, 69, 0
1, 211080, Note_on_c, 9, 69, 52
1, 211095, Control_c, 5, 11, 117
1, 211124, Control_c, 14, 11, 117
1, 211124, Control_c, 9, 11, 116
1, 211124, Control_c, 3, 11, 116
1, 211124, Control_c, 12, 11, 117
1, 211140, Note_on_c, 12, 36, 0
1, 211169, Control_c, 13, 11, 115
1, 211200, Note_on_c, 5, 69, 0
1, 211200, Note_on_c, 9, 69, 0
1, 211200, Note_on_c, 5, 72, 32
1, 211200, Note_on_c, 9, 69, 80
1, 211200, Note_on_c, 9, 35, 80
1, 211200, Note_on_c, 13, 36, 48
1, 211200, Note_on_c, 12, 36, 96
1, 211276, Control_c, 5, 11, 116
1, 211308, Control_c, 14, 11, 116
1, 211308, Control_c, 9, 11, 115
1, 211308, Control_c, 3, 11, 115
1, 211308, Control_c, 12, 11, 116
1, 211320, Note_on_c, 9, 35, 0
1, 211320, Note_on_c, 9, 69, 0
1, 211358, Control_c, 13, 11, 114
1, 211380, Note_on_c, 12, 36, 0
1, 211440, Note_on_c, 13, 36, 0
1, 211440, Note_on_c, 9, 69, 64
1, 211440, Note_on_c, 9, 53, 32
1, 211440, Note_on_c, 9, 34, 80
1, 211440, Note_on_c, 13, 36, 48
1, 211440, Note_on_c, 12, 36, 96
1, 211458, Control_c, 5, 11, 115
1, 211492, Control_c, 14, 11, 115
1, 211492, Control_c, 9, 11, 114
1, 211492, Control_c, 3, 11, 114
1, 211492, Control_c, 12, 11, 115
1, 211547, Control_c, 13, 11, 113
1, 211560, Note_on_c, 9, 34, 0
1, 211560, Note_on_c, 9, 53, 0
1, 211560, Note_on_c, 9, 69, 0
1, 211620, Note_on_c, 5, 72, 0
1, 211639, Control_c, 5, 11, 114
1, 211677, Control_c, 14, 11, 114
1, 211677, Control_c, 9, 11, 113
1, 211677, Control_c, 3, 11, 113
1, 211677, Control_c, 12, 11, 114
1, 211680, Note_on_c, 13, 36, 0
1, 211680, Note_on_c, 5, 69, 32
1, 211680, Note_on_c, 9, 40, 64
1, 211680, Note_on_c, 9, 69, 64
1, 211680, Note_on_c, 9, 33, 80
1, 211680, Note_on_c, 9, 34, 64
1, 211680, Note_on_c, 9, 36, 64
1, 211736, Control_c, 13, 11, 112
1, 211800, Note_on_c, 9, 33, 0
1, 211800, Note_on_c, 9, 69, 0
1, 211800, Note_on_c, 9, 40, 0
1, 211800, Note_on_c, 9, 36, 0
1, 211800, Note_on_c, 9, 34, 0
1, 211820, Control_c, 5, 11, 113
1, 211860, Note_on_c, 12, 36, 0
1, 211861, Control_c, 14, 11, 113
1, 211861, Control_c, 9, 11, 112
1, 211861, Control_c, 3, 11, 112
1, 211861, Control_c, 12, 11, 113
1, 211920, Note_on_c, 5, 69, 0
1, 211920, Note_on_c, 5, 74, 32
1, 211920, Note_on_c, 9, 69, 64
1, 211920, Note_on_c, 9, 35, 80
1, 211920, Note_on_c, 13, 36, 48
1, 211920, Note_on_c, 12, 36, 96
1, 211924, Control_c, 13, 11, 111
1, 212002, Control_c, 5, 11, 112
1, 212040, Note_on_c, 9, 35, 0
1, 212040, Note_on_c, 9, 69, 0
1, 212045, Control_c, 14, 11, 112
1, 212045, Control_c, 9, 11, 111
1, 212045, Control_c, 3, 11, 111
1, 212045, Control_c, 12, 11, 112
1, 212100, Note_on_c, 12, 36, 0
1, 212113, Control_c, 13, 11, 110
1, 212160, Note_on_c, 13, 36, 0
1, 212160, Note_on_c, 9, 69, 64
1, 212160, Note_on_c, 9, 35, 80
1, 212160, Note_on_c, 13, 38, 48
1, 212160, Note_on_c, 12, 38, 96
1, 212183, Control_c, 5, 11, 111
1, 212230, Control_c, 14, 11, 111
1, 212230, Control_c, 9, 11, 110
1, 212230, Control_c, 3, 11, 110
1, 212230, Control_c, 12, 11, 111
1, 212280, Note_on_c, 9, 35, 0
1, 212280, Note_on_c, 9, 69, 0
1, 212302, Control_c, 13, 11, 109
1, 212365, Control_c, 5, 11, 110
1, 212400, Note_on_c, 5, 74, 0
1, 212400, Note_on_c, 13, 38, 0
1, 212400, Note_on_c, 5, 76, 32
1, 212400, Note_on_c, 9, 69, 64
1, 212400, Note_on_c, 9, 53, 32
1, 212400, Note_on_c, 9, 35, 80
1, 212414, Control_c, 14, 11, 110
1, 212414, Control_c, 9, 11, 109
1, 212414, Control_c, 3, 11, 109
1, 212414, Control_c, 12, 11, 110
1, 212491, Control_c, 13, 11, 108
1, 212520, Note_on_c, 9, 35, 0
1, 212520, Note_on_c, 9, 53, 0
1, 212520, Note_on_c, 9, 69, 0
1, 212546, Control_c, 5, 11, 109
1, 212580, Note_on_c, 12, 38, 0
1, 212598, Control_c, 14, 11, 109
1, 212598, Control_c, 9, 11, 108
1, 212598, Control_c, 3, 11, 108
1, 212598, Control_c, 12, 11, 109
1, 212640, Note_on_c, 5, 76, 0
1, 212640, Note_on_c, 5, 72, 32
1, 212640, Note_on_c, 9, 36, 64
1, 212640, Note_on_c, 9, 40, 64
1, 212640, Note_on_c, 9, 69, 64
1, 212640, Note_on_c, 9, 33, 80
1, 212640, Note_on_c, 13, 38, 48
1, 212640, Note_on_c, 12, 38, 96
1, 212640, Note_on_c, 3, 81, 64
1, 212680, Control_c, 13, 11, 107
1, 212727, Control_c, 5, 11, 108
1, 212760, Note_on_c, 9, 33, 0
1, 212760, Note_on_c, 9, 69, 0
1, 212760, Note_on_c, 9, 40, 0
1, 212760, Note_on_c, 9, 36, 0
1, 212783, Control_c, 14, 11, 108
1, 212783, Control_c, 9, 11, 107
1, 212783, Control_c, 3, 11, 107
1, 212783, Control_c, 12, 11, 108
1, 212869, Control_c, 13, 11, 106
1, 212880, Note_on_c, 5, 72, 0
1, 212880, Note_on_c, 13, 38, 0
1, 212880, Note_on_c, 3, 81, 0
1, 212880, Note_on_c, 5, 74, 32
1, 212880, Note_on_c, 9, 69, 64
1, 212880, Note_on_c, 9, 33, 80
1, 212880, Note_on_c, 9, 46, 64
1, 212880, Note_on_c, 9, 70, 32
1, 212880, Note_on_c, 3, 77, 64
1, 212909, Control_c, 5, 11, 107
1, 212940, Note_on_c, 9, 70, 0
1, 212940, Note_on_c, 9, 70, 44
1, 212967, Control_c, 14, 11, 107
1, 212967, Control_c, 9, 11, 106
1, 212967, Control_c, 3, 11, 106
1, 212967, Control_c, 12, 11, 107
1, 213000, Note_on_c, 9, 33, 0
1, 213000, Note_on_c, 9, 70, 0
1, 213000, Note_on_c, 9, 69, 0
1, 213000, Note_on_c, 9, 46, 0
1, 213000, Note_on_c, 9, 70, 60
1, 213058, Control_c, 13, 11, 105
1, 213060, Note_on_c, 9, 70, 0
1, 213060, Note_on_c, 12, 38, 0
1, 213060, Note_on_c, 9, 70, 68
1, 213090, Control_c, 5, 11, 106
1, 213120, Note_on_c, 5, 74, 0
1, 213120, Note_on_c, 9, 70, 0
1, 213120, Note_on_c, 3, 77, 0
1, 213120, Note_on_c, 5, 76, 32
1, 213120, Note_on_c, 9, 69, 64
1, 213120, Note_on_c, 9, 35, 80
1, 213120, Note_on_c, 13, 36, 48
1, 213120, Note_on_c, 12, 36, 96
1, 213120, Note_on_c, 3, 79, 64
1, 213151, Control_c, 14, 11, 106
1, 213151, Control_c, 9, 11, 105
1, 213151, Control_c, 3, 11, 105
1, 213151, Control_c, 12, 11, 106
1, 213240, Note_on_c, 9, 69, 0
1, 213240, Note_on_c, 9, 35, 0
1, 213240, Note_on_c, 3, 79, 0
1, 213240, Note_on_c, 3, 74, 64
1, 213246, Control_c, 13, 11, 104
1, 213272, Control_c, 5, 11, 105
1, 213336, Control_c, 14, 11, 105
1, 213336, Control_c, 9, 11, 104
1, 213336, Control_c, 3, 11, 104
1, 213336, Control_c, 12, 11, 105
1, 213360, Note_on_c, 5, 76, 0
1, 213360, Note_on_c, 13, 36, 0
1, 213360, Note_on_c, 3, 74, 0
1, 213360, Note_on_c, 5, 77, 32
1, 213360, Note_on_c, 9, 69, 64
1, 213360, Note_on_c, 9, 53, 32
1, 213360, Note_on_c, 9, 34, 80
1, 213360, Note_on_c, 3, 76, 64
1, 213435, Control_c, 13, 11, 103
1, 213453, Control_c, 5, 11, 104
1, 213480, Note_on_c, 9, 69, 0
1, 213480, Note_on_c, 9, 53, 0
1, 213480, Note_on_c, 9, 34, 0
1, 213520, Control_c, 14, 11, 104
1, 213520, Control_c, 9, 11, 103
1, 213520, Control_c, 3, 11, 103
1, 213520, Control_c, 12, 11, 104
1, 213600, Note_on_c, 5, 77, 0
1, 213600, Note_on_c, 5, 76, 32
1, 213600, Note_on_c, 9, 40, 64
1, 213600, Note_on_c, 9, 69, 64
1, 213600, Note_on_c, 9, 33, 80
1, 213600, Note_on_c, 9, 34, 64
1, 213600, Note_on_c, 9, 36, 64
1, 213624, Control_c, 13, 11, 102
1, 213635, Control_c, 5, 11, 103
1, 213704, Control_c, 14, 11, 103
1, 213704, Control_c, 9, 11, 102
1, 213704, Control_c, 3, 11, 102
1, 213704, Control_c, 12, 11, 103
1, 213720, Note_on_c, 9, 34, 0
1, 213720, Note_on_c, 9, 36, 0
1, 213720, Note_on_c, 9, 40, 0
1, 213720, Note_on_c, 9, 69, 0
1, 213720, Note_on_c, 9, 33, 0
1, 213780, Note_on_c, 12, 36, 0
1, 213813, Control_c, 13, 11, 101
1, 213816, Control_c, 5, 11, 102
1, 213840, Note_on_c, 5, 76, 0
1, 213840, Note_on_c, 5, 74, 32
1, 213840, Note_on_c, 9, 69, 64
1, 213840, Note_on_c, 9, 35, 80
1, 213840, Note_on_c, 13, 36, 48
1, 213840, Note_on_c, 12, 36, 96
1, 213888, Control_c, 14, 11, 102
1, 213888, Control_c, 12, 11, 102
1, 213889, Control_c, 9, 11, 101
1, 213889, Control_c, 3, 11, 101
1, 213960, Note_on_c, 9, 69, 0
1, 213960, Note_on_c, 9, 35, 0
1, 213960, Note_on_c, 3, 76, 0
1, 213997, Control_c, 5, 11, 101
1, 214002, Control_c, 13, 11, 100
1, 214020, Note_on_c, 12, 36, 0
1, 214073, Control_c, 14, 11, 101
1, 214073, Control_c, 9, 11, 100
1, 214073, Control_c, 3, 11, 100
1, 214073, Control_c, 12, 11, 101
1, 214080, Note_on_c, 5, 74, 0
1, 214080, Note_on_c, 13, 36, 0
1, 214080, Note_on_c, 5, 72, 32
1, 214080, Note_on_c, 9, 69, 64
1, 214080, Note_on_c, 9, 35, 80
1, 214080, Note_on_c, 13, 36, 48
1, 214080, Note_on_c, 12, 36, 96
1, 214179, Control_c, 5, 11, 100
1, 214191, Control_c, 13, 11, 99
1, 214200, Note_on_c, 9, 69, 0
1, 214200, Note_on_c, 9, 35, 0
1, 214257, Control_c, 14, 11, 100
1, 214257, Control_c, 9, 11, 99
1, 214257, Control_c, 3, 11, 99
1, 214257, Control_c, 12, 11, 100
1, 214320, Note_on_c, 13, 36, 0
1, 214320, Note_on_c, 9, 69, 64
1, 214320, Note_on_c, 9, 53, 32
1, 214320, Note_on_c, 9, 34, 80
1, 214360, Control_c, 5, 11, 99
1, 214380, Control_c, 13, 11, 98
1, 214440, Note_on_c, 9, 69, 0
1, 214440, Note_on_c, 9, 53, 0
1, 214440, Note_on_c, 9, 34, 0
1, 214441, Control_c, 14, 11, 99
1, 214441, Control_c, 9, 11, 98
1, 214441, Control_c, 3, 11, 98
1, 214441, Control_c, 12, 11, 99
1, 214500, Note_on_c, 5, 72, 0
1, 214542, Control_c, 5, 11, 98
1, 214560, Note_on_c, 5, 72, 32
1, 214560, Note_on_c, 9, 36, 64
1, 214560, Note_on_c, 9, 40, 64
1, 214560, Note_on_c, 9, 69, 64
1, 214560, Note_on_c, 9, 33, 80
1, 214568, Control_c, 13, 11, 97
1, 214626, Control_c, 14, 11, 98
1, 214626, Control_c, 9, 11, 97
1, 214626, Control_c, 3, 11, 97
1, 214626, Control_c, 12, 11, 98
1, 214680, Note_on_c, 9, 36, 0
1, 214680, Note_on_c, 9, 40, 0
1, 214680, Note_on_c, 9, 69, 0
1, 214680, Note_on_c, 9, 33, 0
1, 214723, Control_c, 5, 11, 97
1, 214757, Control_c, 13, 11, 96
1, 214800, Note_on_c, 5, 72, 0
1, 214800, Note_on_c, 5, 69, 32
1, 214800, Note_on_c, 9, 69, 64
1, 214800, Note_on_c, 9, 35, 80
1, 214810, Control_c, 14, 11, 97
1, 214810, Control_c, 9, 11, 96
1, 214810, Control_c, 3, 11, 96
1, 214810, Control_c, 12, 11, 97
1, 214904, Control_c, 5, 11, 96
1, 214920, Note_on_c, 9, 69, 0
1, 214920, Note_on_c, 9, 35, 0
1, 214920, Note_on_c, 9, 69, 52
1, 214946, Control_c, 13, 11, 95
1, 214980, Note_on_c, 12, 36, 0
1, 214994, Control_c, 14, 11, 96
1, 214994, Control_c, 9, 11, 95
1, 214994, Control_c, 3, 11, 95
1, 214994, Control_c, 12, 11, 96
1, 215040, Note_on_c, 9, 69, 0
1, 215040, Note_on_c, 9, 69, 80
1, 215040, Note_on_c, 9, 35, 80
1, 215040, Note_on_c, 13, 36, 48
1, 215040, Note_on_c, 12, 36, 96
1, 215086, Control_c, 5, 11, 95
1, 215135, Control_c, 13, 11, 94
1, 215160, Note_on_c, 9, 69, 0
1, 215160, Note_on_c, 9, 35, 0
1, 215179, Control_c, 14, 11, 95
1, 215179, Control_c, 9, 11, 94
1, 215179, Control_c, 3, 11, 94
1, 215179, Control_c, 12, 11, 95
1, 215220, Note_on_c, 5, 69, 0
1, 215220, Note_on_c, 12, 36, 0
1, 215267, Control_c, 5, 11, 94
1, 215280, Note_on_c, 13, 36, 0
1, 215280, Note_on_c, 5, 76, 32
1, 215280, Note_on_c, 9, 69, 64
1, 215280, Note_on_c, 9, 53, 32
1, 215280, Note_on_c, 9, 34, 80
1, 215280, Note_on_c, 13, 36, 48
1, 215280, Note_on_c, 12, 36, 96
1, 215324, Control_c, 13, 11, 93
1, 215363, Control_c, 14, 11, 94
1, 215363, Control_c, 9, 11, 93
1, 215363, Control_c, 3, 11, 93
1, 215363, Control_c, 12, 11, 94
1, 215400, Note_on_c, 9, 69, 0
1, 215400, Note_on_c, 9, 53, 0
1, 215400, Note_on_c, 9, 34, 0
1, 215449, Control_c, 5, 11, 93
1, 215513, Control_c, 13, 11, 92
1, 215520, Note_on_c, 13, 36, 0
1, 215520, Note_on_c, 9, 40, 64
1, 215520, Note_on_c, 9, 69, 64
1, 215520, Note_on_c, 9, 33, 80
1, 215520, Note_on_c, 9, 34, 64
1, 215520, Note_on_c, 9, 36, 64
1, 215547, Control_c, 14, 11, 93
1, 215547, Control_c, 9, 11, 92
1, 215547, Control_c, 3, 11, 92
1, 215547, Control_c, 12, 11, 93
1, 215630, Control_c, 5, 11, 92
1, 215640, Note_on_c, 9, 34, 0
1, 215640, Note_on_c, 9, 36, 0
1, 215640, Note_on_c, 9, 40, 0
1, 215640, Note_on_c, 9, 69, 0
1, 215640, Note_on_c, 9, 33, 0
1, 215700, Note_on_c, 12, 36, 0
1, 215701, Control_c, 13, 11, 91
1, 215732, Control_c, 14, 11, 92
1, 215732, Control_c, 9, 11, 91
1, 215732, Control_c, 3, 11, 91
1, 215732, Control_c, 12, 11, 92
1, 215760, Note_on_c, 5, 76, 0
1, 215760, Note_on_c, 5, 69, 32
1, 215760, Note_on_c, 9, 69, 64
1, 215760, Note_on_c, 9, 35, 80
1, 215760, Note_on_c, 13, 36, 48
1, 215760, Note_on_c, 12, 36, 96
1, 215812, Control_c, 5, 11, 91
1, 215880, Note_on_c, 9, 69, 0
1, 215880, Note_on_c, 9, 35, 0
1, 215890, Control_c, 13, 11, 90
1, 215916, Control_c, 14, 11, 91
1, 215916, Control_c, 9, 11, 90
1, 215916, Control_c, 3, 11, 90
1, 215916, Control_c, 12, 11, 91
1, 215940, Note_on_c, 12, 36, 0
1, 215993, Control_c, 5, 11, 90
1, 216000, Note_on_c, 5, 69, 0
1, 216000, Note_on_c, 13, 36, 0
1, 216000, Note_on_c, 5, 67, 32
1, 216000, Note_on_c, 9, 69, 64
1, 216000, Note_on_c, 9, 35, 80
1, 216000, Note_on_c, 13, 31, 48
1, 216000, Note_on_c, 12, 31, 96
1, 216079, Control_c, 13, 11, 89
1, 216100, Control_c, 14, 11, 90
1, 216100, Control_c, 9, 11, 89
1, 216100, Control_c, 3, 11, 89
1, 216100, Control_c, 12, 11, 90
1, 216120, Note_on_c, 9, 69, 0
1, 216120, Note_on_c, 9, 35, 0
1, 216174, Control_c, 5, 11, 89
1, 216240, Note_on_c, 5, 67, 0
1, 216240, Note_on_c, 13, 31, 0
1, 216240, Note_on_c, 5, 67, 32
1, 216240, Note_on_c, 9, 69, 64
1, 216240, Note_on_c, 9, 53, 32
1, 216240, Note_on_c, 9, 35, 80
1, 216268, Control_c, 13, 11, 88
1, 216285, Control_c, 14, 11, 89
1, 216285, Control_c, 9, 11, 88
1, 216285, Control_c, 3, 11, 88
1, 216285, Control_c, 12, 11, 89
1, 216356, Control_c, 5, 11, 88
1, 216360, Note_on_c, 9, 69, 0
1, 216360, Note_on_c, 9, 53, 0
1, 216360, Note_on_c, 9, 35, 0
1, 216420, Note_on_c, 12, 31, 0
1, 216457, Control_c, 13, 11, 87
1, 216469, Control_c, 14, 11, 88
1, 216469, Control_c, 9, 11, 87
1, 216469, Control_c, 3, 11, 87
1, 216469, Control_c, 12, 11, 88
1, 216480, Note_on_c, 5, 67, 0
1, 216480, Note_on_c, 5, 72, 32
1, 216480, Note_on_c, 9, 36, 64
1, 216480, Note_on_c, 9, 40, 64
1, 216480, Note_on_c, 9, 69, 64
1, 216480, Note_on_c, 9, 33, 80
1, 216480, Note_on_c, 13, 31, 48
1, 216480, Note_on_c, 12, 31, 96
1, 216480, Note_on_c, 3, 81, 64
1, 216537, Control_c, 5, 11, 87
1, 216600, Note_on_c, 9, 36, 0
1, 216600, Note_on_c, 9, 40, 0
1, 216600, Note_on_c, 9, 69, 0
1, 216600, Note_on_c, 9, 33, 0
1, 216646, Control_c, 13, 11, 86
1, 216653, Control_c, 14, 11, 87
1, 216653, Control_c, 9, 11, 86
1, 216653, Control_c, 3, 11, 86
1, 216653, Control_c, 12, 11, 87
1, 216719, Control_c, 5, 11, 86
1, 216720, Note_on_c, 5, 72, 0
1, 216720, Note_on_c, 13, 31, 0
1, 216720, Note_on_c, 3, 81, 0
1, 216720, Note_on_c, 5, 74, 32
1, 216720, Note_on_c, 9, 69, 64
1, 216720, Note_on_c, 9, 33, 80
1, 216720, Note_on_c, 9, 46, 64
1, 216720, Note_on_c, 9, 70, 32
1, 216720, Note_on_c, 3, 77, 64
1, 216780, Note_on_c, 9, 70, 0
1, 216780, Note_on_c, 9, 70, 44
1, 216835, Control_c, 13, 11, 85
1, 216838, Control_c, 14, 11, 86
1, 216838, Control_c, 9, 11, 85
1, 216838, Control_c, 3, 11, 85
1, 216838, Control_c, 12, 11, 86
1, 216840, Note_on_c, 9, 46, 0
1, 216840, Note_on_c, 9, 69, 0
1, 216840, Note_on_c, 9, 70, 0
1, 216840, Note_on_c, 9, 33, 0
1, 216840, Note_on_c, 9, 70, 60
1, 216900, Note_on_c, 9, 70, 0
1, 216900, Note_on_c, 12, 31, 0
1, 216900, Control_c, 5, 11, 85
1, 216900, Note_on_c, 9, 70, 68
1, 216960, Note_on_c, 5, 74, 0
1, 216960, Note_on_c, 9, 70, 0
1, 216960, Note_on_c, 3, 77, 0
1, 216960, Note_on_c, 5, 76, 32
1, 216960, Note_on_c, 9, 69, 64
1, 216960, Note_on_c, 9, 35, 80
1, 216960, Note_on_c, 13, 36, 48
1, 216960, Note_on_c, 12, 36, 96
1, 216960, Note_on_c, 3, 79, 64
1, 217022, Control_c, 14, 11, 85
1, 217022, Control_c, 9, 11, 84
1, 217022, Control_c, 3, 11, 84
1, 217022, Control_c, 12, 11, 85
1, 217023, Control_c, 13, 11, 84
1, 217080, Note_on_c, 9, 35, 0
1, 217080, Note_on_c, 9, 69, 0
1, 217080, Note_on_c, 3, 79, 0
1, 217080, Note_on_c, 3, 74, 64
1, 217081, Control_c, 5, 11, 84
1, 217200, Note_on_c, 5, 76, 0
1, 217200, Note_on_c, 13, 36, 0
1, 217200, Note_on_c, 3, 74, 0
1, 217200, Note_on_c, 5, 77, 32
1, 217200, Note_on_c, 9, 69, 64
1, 217200, Note_on_c, 9, 53, 32
1, 217200, Note_on_c, 9, 34, 80
1, 217200, Note_on_c, 3, 76, 64
1, 217206, Control_c, 14, 11, 84
1, 217206, Control_c, 9, 11, 83
1, 217206, Control_c, 3, 11, 83
1, 217206, Control_c, 12, 11, 84
1, 217212, Control_c, 13, 11, 83
1, 217263, Control_c, 5, 11, 83
1, 217320, Note_on_c, 9, 34, 0
1, 217320, Note_on_c, 9, 53, 0
1, 217320, Note_on_c, 9, 69, 0
1, 217391, Control_c, 14, 11, 83
1, 217391, Control_c, 9, 11, 82
1, 217391, Control_c, 3, 11, 82
1, 217391, Control_c, 12, 11, 83
1, 217401, Control_c, 13, 11, 82
1, 217440, Note_on_c, 5, 77, 0
1, 217440, Note_on_c, 5, 76, 32
1, 217440, Note_on_c, 9, 40, 64
1, 217440, Note_on_c, 9, 69, 64
1, 217440, Note_on_c, 9, 33, 80
1, 217440, Note_on_c, 9, 34, 64
1, 217440, Note_on_c, 9, 36, 64
1, 217444, Control_c, 5, 11, 82
1, 217560, Note_on_c, 9, 33, 0
1, 217560, Note_on_c, 9, 69, 0
1, 217560, Note_on_c, 9, 40, 0
1, 217560, Note_on_c, 9, 36, 0
1, 217560, Note_on_c, 9, 34, 0
1, 217575, Control_c, 14, 11, 82
1, 217575, Control_c, 9, 11, 81
1, 217575, Control_c, 3, 11, 81
1, 217575, Control_c, 12, 11, 82
1, 217590, Control_c, 13, 11, 81
1, 217620, Note_on_c, 12, 36, 0
1, 217626, Control_c, 5, 11, 81
1, 217680, Note_on_c, 5, 76, 0
1, 217680, Note_on_c, 5, 74, 32
1, 217680, Note_on_c, 9, 69, 64
1, 217680, Note_on_c, 9, 35, 80
1, 217680, Note_on_c, 13, 36, 48
1, 217680, Note_on_c, 12, 36, 96
1, 217759, Control_c, 14, 11, 81
1, 217759, Control_c, 9, 11, 80
1, 217759, Control_c, 3, 11, 80
1, 217759, Control_c, 12, 11, 81
1, 217779, Control_c, 13, 11, 80
1, 217800, Note_on_c, 9, 35, 0
1, 217800, Note_on_c, 9, 69, 0
1, 217800, Note_on_c, 3, 76, 0
1, 217807, Control_c, 5, 11, 80
1, 217860, Note_on_c, 12, 36, 0
1, 217920, Note_on_c, 5, 74, 0
1, 217920, Note_on_c, 13, 36, 0
1, 217920, Note_on_c, 5, 72, 32
1, 217920, Note_on_c, 9, 69, 64
1, 217920, Note_on_c, 9, 35, 80
1, 217920, Note_on_c, 13, 36, 48
1, 217920, Note_on_c, 12, 36, 96
1, 217944, Control_c, 14, 11, 80
1, 217944, Control_c, 9, 11, 79
1, 217944, Control_c, 3, 11, 79
1, 217944, Control_c, 12, 11, 80
1, 217968, Control_c, 13, 11, 79
1, 217989, Control_c, 5, 11, 79
1, 218040, Note_on_c, 9, 35, 0
1, 218040, Note_on_c, 9, 69, 0
1, 218128, Control_c, 14, 11, 79
1, 218128, Control_c, 9, 11, 78
1, 218128, Control_c, 3, 11, 78
1, 218128, Control_c, 12, 11, 79
1, 218157, Control_c, 13, 11, 78
1, 218160, Note_on_c, 5, 72, 0
1, 218160, Note_on_c, 13, 36, 0
1, 218160, Note_on_c, 9, 69, 64
1, 218160, Note_on_c, 9, 53, 32
1, 218160, Note_on_c, 9, 34, 80
1, 218170, Control_c, 5, 11, 78
1, 218280, Note_on_c, 9, 34, 0
1, 218280, Note_on_c, 9, 53, 0
1, 218280, Note_on_c, 9, 69, 0
1, 218312, Control_c, 14, 11, 78
1, 218312, Control_c, 9, 11, 77
1, 218312, Control_c, 3, 11, 77
1, 218312, Control_c, 12, 11, 78
1, 218345, Control_c, 13, 11, 77
1, 218351, Control_c, 5, 11, 77
1, 218400, Note_on_c, 5, 72, 32
1, 218400, Note_on_c, 9, 36, 64
1, 218400, Note_on_c, 9, 40, 64
1, 218400, Note_on_c, 9, 69, 64
1, 218400, Note_on_c, 9, 33, 80
1, 218496, Control_c, 14, 11, 77
1, 218496, Control_c, 12, 11, 77
1, 218497, Control_c, 9, 11, 76
1, 218497, Control_c, 3, 11, 76
1, 218520, Note_on_c, 9, 33, 0
1, 218520, Note_on_c, 9, 69, 0
1, 218520, Note_on_c, 9, 40, 0
1, 218520, Note_on_c, 9, 36, 0
1, 218533, Control_c, 5, 11, 76
1, 218534, Control_c, 13, 11, 76
1, 218640, Note_on_c, 5, 72, 0
1, 218640, Note_on_c, 5, 69, 32
1, 218640, Note_on_c, 9, 69, 64
1, 218640, Note_on_c, 9, 35, 80
1, 218681, Control_c, 14, 11, 76
1, 218681, Control_c, 9, 11, 75
1, 218681, Control_c, 3, 11, 75
1, 218681, Control_c, 12, 11, 76
1, 218714, Control_c, 5, 11, 75
1, 218723, Control_c, 13, 11, 75
1, 218760, Note_on_c, 9, 35, 0
1, 218760, Note_on_c, 9, 69, 0
1, 218760, Note_on_c, 9, 69, 52
1, 218820, Note_on_c, 12, 36, 0
1, 218865, Control_c, 14, 11, 75
1, 218865, Control_c, 9, 11, 74
1, 218865, Control_c, 3, 11, 74
1, 218865, Control_c, 12, 11, 75
1, 218880, Note_on_c, 5, 69, 0
1, 218880, Note_on_c, 9, 69, 0
1, 218880, Note_on_c, 5, 72, 32
1, 218880, Note_on_c, 9, 69, 80
1, 218880, Note_on_c, 9, 35, 80
1, 218880, Note_on_c, 13, 36, 48
1, 218880, Note_on_c, 12, 36, 96
1, 218896, Control_c, 5, 11, 74
1, 218912, Control_c, 13, 11, 74
1, 219000, Note_on_c, 9, 35, 0
1, 219000, Note_on_c, 9, 69, 0
1, 219049, Control_c, 14, 11, 74
1, 219049, Control_c, 9, 11, 73
1, 219049, Control_c, 3, 11, 73
1, 219049, Control_c, 12, 11, 74
1, 219060, Note_on_c, 12, 36, 0
1, 219077, Control_c, 5, 11, 73
1, 219101, Control_c, 13, 11, 73
1, 219120, Note_on_c, 13, 36, 0
1, 219120, Note_on_c, 9, 69, 64
1, 219120, Note_on_c, 9, 53, 32
1, 219120, Note_on_c, 9, 34, 80
1, 219120, Note_on_c, 13, 36, 48
1, 219120, Note_on_c, 12, 36, 96
1, 219234, Control_c, 14, 11, 73
1, 219234, Control_c, 9, 11, 72
1, 219234, Control_c, 3, 11, 72
1, 219234, Control_c, 12, 11, 73
1, 219240, Note_on_c, 9, 34, 0
1, 219240, Note_on_c, 9, 53, 0
1, 219240, Note_on_c, 9, 69, 0
1, 219258, Control_c, 5, 11, 72
1, 219290, Control_c, 13, 11, 72
1, 219360, Note_on_c, 5, 72, 0
1, 219360, Note_on_c, 13, 36, 0
1, 219360, Note_on_c, 5, 69, 32
1, 219360, Note_on_c, 9, 40, 64
1, 219360, Note_on_c, 9, 69, 64
1, 219360, Note_on_c, 9, 33, 80
1, 219360, Note_on_c, 9, 34, 64
1, 219360, Note_on_c, 9, 36, 64
1, 219418, Control_c, 14, 11, 72
1, 219418, Control_c, 9, 11, 71
1, 219418, Control_c, 3, 11, 71
1, 219418, Control_c, 12, 11, 72
1, 219440, Control_c, 5, 11, 71
1, 219479, Control_c, 13, 11, 71
1, 219480, Note_on_c, 9, 33, 0
1, 219480, Note_on_c, 9, 69, 0
1, 219480, Note_on_c, 9, 40, 0
1, 219480, Note_on_c, 9, 36, 0
1, 219480, Note_on_c, 9, 34, 0
1, 219540, Note_on_c, 12, 36, 0
1, 219600, Note_on_c, 5, 69, 0
1, 219600, Note_on_c, 5, 74, 32
1, 219600, Note_on_c, 9, 69, 64
1, 219600, Note_on_c, 9, 35, 80
1, 219600, Note_on_c, 13, 36, 48
1, 219600, Note_on_c, 12, 36, 96
1, 219602, Control_c, 14, 11, 71
1, 219602, Control_c, 9, 11, 70
1, 219602, Control_c, 3, 11, 70
1, 219602, Control_c, 12, 11, 71
1, 219621, Control_c, 5, 11, 70
1, 219667, Control_c, 13, 11, 70
1, 219720, Note_on_c, 9, 35, 0
1, 219720, Note_on_c, 9, 69, 0
1, 219780, Note_on_c, 12, 36, 0
1, 219787, Control_c, 14, 11, 70
1, 219787, Control_c, 9, 11, 69
1, 219787, Control_c, 3, 11, 69
1, 219787, Control_c, 12, 11, 70
1, 219803, Control_c, 5, 11, 69
1, 219840, Note_on_c, 13, 36, 0
1, 219840, Note_on_c, 9, 69, 64
1, 219840, Note_on_c, 9, 35, 80
1, 219840, Note_on_c, 13, 38, 48
1, 219840, Note_on_c, 12, 38, 96
1, 219856, Control_c, 13, 11, 69
1, 219960, Note_on_c, 9, 35, 0
1, 219960, Note_on_c, 9, 69, 0
1, 219971, Control_c, 14, 11, 69
1, 219971, Control_c, 9, 11, 68
1, 219971, Control_c, 3, 11, 68
1, 219971, Control_c, 12, 11, 69
1, 219984, Control_c, 5, 11, 68
1, 220045, Control_c, 13, 11, 68
1, 220080, Note_on_c, 5, 74, 0
1, 220080, Note_on_c, 13, 38, 0
1, 220080, Note_on_c, 5, 76, 32
1, 220080, Note_on_c, 9, 69, 64
1, 220080, Note_on_c, 9, 53, 32
1, 220080, Note_on_c, 9, 35, 80
1, 220155, Control_c, 14, 11, 68
1, 220155, Control_c, 9, 11, 67
1, 220155, Control_c, 3, 11, 67
1, 220155, Control_c, 12, 11, 68
1, 220166, Control_c, 5, 11, 67
1, 220200, Note_on_c, 9, 35, 0
1, 220200, Note_on_c, 9, 53, 0
1, 220200, Note_on_c, 9, 69, 0
1, 220234, Control_c, 13, 11, 67
1, 220260, Note_on_c, 12, 38, 0
1, 220320, Note_on_c, 5, 76, 0
1, 220320, Note_on_c, 5, 72, 32
1, 220320, Note_on_c, 9, 36, 64
1, 220320, Note_on_c, 9, 40, 64
1, 220320, Note_on_c, 9, 69, 64
1, 220320, Note_on_c, 9, 33, 80
1, 220320, Note_on_c, 13, 38, 48
1, 220320, Note_on_c, 12, 38, 96
1, 220320, Note_on_c, 3, 81, 64
1, 220340, Control_c, 14, 11, 67
1, 220340, Control_c, 9, 11, 66
1, 220340, Control_c, 3, 11, 66
1, 220340, Control_c, 12, 11, 67
1, 220347, Control_c, 5, 11, 66
1, 220423, Control_c, 13, 11, 66
1, 220440, Note_on_c, 9, 33, 0
1, 220440, Note_on_c, 9, 69, 0
1, 220440, Note_on_c, 9, 40, 0
1, 220440, Note_on_c, 9, 36, 0
1, 220524, Control_c, 14, 11, 66
1, 220524, Control_c, 9, 11, 65
1, 220524, Control_c, 3, 11, 65
1, 220524, Control_c, 12, 11, 66
1, 220528, Control_c, 5, 11, 65
1, 220560, Note_on_c, 5, 72, 0
1, 220560, Note_on_c, 13, 38, 0
1, 220560, Note_on_c, 3, 81, 0
1, 220560, Note_on_c, 5, 74, 32
1, 220560, Note_on_c, 9, 69, 64
1, 220560, Note_on_c, 9, 33, 80
1, 220560, Note_on_c, 9, 46, 64
1, 220560, Note_on_c, 9, 70, 32
1, 220560, Note_on_c, 3, 77, 64
1, 220612, Control_c, 13, 11, 65
1, 220620, Note_on_c, 9, 70, 0
1, 220620, Note_on_c, 9, 70, 44
1, 220680, Note_on_c, 9, 33, 0
1, 220680, Note_on_c, 9, 70, 0
1, 220680, Note_on_c, 9, 69, 0
1, 220680, Note_on_c, 9, 46, 0
1, 220680, Note_on_c, 9, 70, 60
1, 220708, Control_c, 14, 11, 65
1, 220708, Control_c, 9, 11, 64
1, 220708, Control_c, 3, 11, 64
1, 220708, Control_c, 12, 11, 65
1, 220710, Control_c, 5, 11, 64
1, 220740, Note_on_c, 9, 70, 0
1, 220740, Note_on_c, 12, 38, 0
1, 220740, Note_on_c, 9, 70, 68
1, 220800, Note_on_c, 5, 74, 0
1, 220800, Note_on_c, 9, 70, 0
1, 220800, Note_on_c, 3, 77, 0
1, 220800, Note_on_c, 5, 76, 32
1, 220800, Note_on_c, 9, 69, 64
1, 220800, Note_on_c, 9, 35, 80
1, 220800, Note_on_c, 13, 36, 48
1, 220800, Note_on_c, 12, 36, 96
1, 220800, Note_on_c, 3, 79, 64
1, 220801, Control_c, 13, 11, 64
1, 220891, Control_c, 5, 11, 63
1, 220893, Control_c, 14, 11, 64
1, 220893, Control_c, 9, 11, 63
1, 220893, Control_c, 3, 11, 63
1, 220893, Control_c, 12, 11, 64
1, 220920, Note_on_c, 9, 69, 0
1, 220920, Note_on_c, 9, 35, 0
1, 220920, Note_on_c, 3, 79, 0
1, 220920, Note_on_c, 3, 74, 64
1, 220989, Control_c, 13, 11, 63
1, 221040, Note_on_c, 5, 76, 0
1, 221040, Note_on_c, 13, 36, 0
1, 221040, Note_on_c, 3, 74, 0
1, 221040, Note_on_c, 5, 77, 32
1, 221040, Note_on_c, 9, 69, 64
1, 221040, Note_on_c, 9, 53, 32
1, 221040, Note_on_c, 9, 34, 80
1, 221040, Note_on_c, 3, 76, 64
1, 221073, Control_c, 5, 11, 62
1, 221077, Control_c, 14, 11, 63
1, 221077, Control_c, 9, 11, 62
1, 221077, Control_c, 3, 11, 62
1, 221077, Control_c, 12, 11, 63
1, 221160, Note_on_c, 9, 69, 0
1, 221160, Note_on_c, 9, 53, 0
1, 221160, Note_on_c, 9, 34, 0
1, 221178, Control_c, 13, 11, 62
1, 221254, Control_c, 5, 11, 61
1, 221261, Control_c, 14, 11, 62
1, 221261, Control_c, 9, 11, 61
1, 221261, Control_c, 3, 11, 61
1, 221261, Control_c, 12, 11, 62
1, 221280, Note_on_c, 5, 77, 0
1, 221280, Note_on_c, 5, 76, 32
1, 221280, Note_on_c, 9, 40, 64
1, 221280, Note_on_c, 9, 69, 64
1, 221280, Note_on_c, 9, 33, 80
1, 221280, Note_on_c, 9, 34, 64
1, 221280, Note_on_c, 9, 36, 64
1, 221367, Control_c, 13, 11, 61
1, 221400, Note_on_c, 9, 34, 0
1, 221400, Note_on_c, 9, 36, 0
1, 221400, Note_on_c, 9, 40, 0
1, 221400, Note_on_c, 9, 69, 0
1, 221400, Note_on_c, 9, 33, 0
1, 221435, Control_c, 5, 11, 60
1, 221446, Control_c, 14, 11, 61
1, 221446, Control_c, 9, 11, 60
1, 221446, Control_c, 3, 11, 60
1, 221446, Control_c, 12, 11, 61
1, 221460, Note_on_c, 12, 36, 0
1, 221520, Note_on_c, 5, 76, 0
1, 221520, Note_on_c, 5, 74, 32
1, 221520, Note_on_c, 9, 69, 64
1, 221520, Note_on_c, 9, 35, 80
1, 221520, Note_on_c, 13, 36, 48
1, 221520, Note_on_c, 12, 36, 96
1, 221556, Control_c, 13, 11, 60
1, 221617, Control_c, 5, 11, 59
1, 221630, Control_c, 14, 11, 60
1, 221630, Control_c, 9, 11, 59
1, 221630, Control_c, 3, 11, 59
1, 221630, Control_c, 12, 11, 60
1, 221640, Note_on_c, 9, 69, 0
1, 221640, Note_on_c, 9, 35, 0
1, 221640, Note_on_c, 3, 76, 0
1, 221700, Note_on_c, 12, 36, 0
1, 221745, Control_c, 13, 11, 59
1, 221760, Note_on_c, 5, 74, 0
1, 221760, Note_on_c, 13, 36, 0
1, 221760, Note_on_c, 5, 72, 32
1, 221760, Note_on_c, 9, 69, 64
1, 221760, Note_on_c, 9, 35, 80
1, 221760, Note_on_c, 13, 36, 48
1, 221760, Note_on_c, 12, 36, 96
1, 221798, Control_c, 5, 11, 58
1, 221814, Control_c, 14, 11, 59
1, 221814, Control_c, 9, 11, 58
1, 221814, Control_c, 3, 11, 58
1, 221814, Control_c, 12, 11, 59
1, 221880, Note_on_c, 9, 69, 0
1, 221880, Note_on_c, 9, 35, 0
1, 221934, Control_c, 13, 11, 58
1, 221980, Control_c, 5, 11, 57
1, 221999, Control_c, 14, 11, 58
1, 221999, Control_c, 9, 11, 57
1, 221999, Control_c, 3, 11, 57
1, 221999, Control_c, 12, 11, 58
1, 222000, Note_on_c, 5, 72, 0
1, 222000, Note_on_c, 13, 36, 0
1, 222000, Note_on_c, 9, 69, 64
1, 222000, Note_on_c, 9, 53, 32
1, 222000, Note_on_c, 9, 34, 80
1, 222120, Note_on_c, 9, 69, 0
1, 222120, Note_on_c, 9, 53, 0
1, 222120, Note_on_c, 9, 34, 0
1, 222122, Control_c, 13, 11, 57
1, 222161, Control_c, 5, 11, 56
1, 222183, Control_c, 14, 11, 57
1, 222183, Control_c, 9, 11, 56
1, 222183, Control_c, 3, 11, 56
1, 222183, Control_c, 12, 11, 57
1, 222240, Note_on_c, 5, 72, 32
1, 222240, Note_on_c, 9, 36, 64
1, 222240, Note_on_c, 9, 40, 64
1, 222240, Note_on_c, 9, 69, 64
1, 222240, Note_on_c, 9, 33, 80
1, 222311, Control_c, 13, 11, 56
1, 222343, Control_c, 5, 11, 55
1, 222360, Note_on_c, 9, 36, 0
1, 222360, Note_on_c, 9, 40, 0
1, 222360, Note_on_c, 9, 69, 0
1, 222360, Note_on_c, 9, 33, 0
1, 222367, Control_c, 14, 11, 56
1, 222367, Control_c, 9, 11, 55
1, 222367, Control_c, 3, 11, 55
1, 222367, Control_c, 12, 11, 56
1, 222480, Note_on_c, 5, 72, 0
1, 222480, Note_on_c, 5, 69, 32
1, 222480, Note_on_c, 9, 69, 64
1, 222480, Note_on_c, 9, 35, 80
1, 222500, Control_c, 13, 11, 55
1, 222524, Control_c, 5, 11, 54
1, 222552, Control_c, 14, 11, 55
1, 222552, Control_c, 9, 11, 54
1, 222552, Control_c, 3, 11, 54
1, 222552, Control_c, 12, 11, 55
1, 222600, Note_on_c, 9, 69, 0
1, 222600, Note_on_c, 9, 35, 0
1, 222600, Note_on_c, 9, 69, 52
1, 222660, Note_on_c, 12, 36, 0
1, 222689, Control_c, 13, 11, 54
1, 222705, Control_c, 5, 11, 53
1, 222720, Note_on_c, 5, 69, 0
1, 222720, Note_on_c, 9, 69, 0
1, 222720, Note_on_c, 9, 69, 80
1, 222720, Note_on_c, 9, 35, 80
1, 222720, Note_on_c, 13, 36, 48
1, 222720, Note_on_c, 12, 36, 96
1, 222736, Control_c, 14, 11, 54
1, 222736, Control_c, 9, 11, 53
1, 222736, Control_c, 3, 11, 53
1, 222736, Control_c, 12, 11, 54
1, 222840, Note_on_c, 9, 69, 0
1, 222840, Note_on_c, 9, 35, 0
1, 222878, Control_c, 13, 11, 53
1, 222887, Control_c, 5, 11, 52
1, 222900, Note_on_c, 12, 36, 0
1, 222920, Control_c, 14, 11, 53
1, 222920, Control_c, 9, 11, 52
1, 222920, Control_c, 3, 11, 52
1, 222920, Control_c, 12, 11, 53
1, 222960, Note_on_c, 13, 36, 0
1, 222960, Note_on_c, 5, 76, 32
1, 222960, Note_on_c, 9, 69, 64
1, 222960, Note_on_c, 9, 53, 32
1, 222960, Note_on_c, 9, 34, 80
1, 222960, Note_on_c, 13, 36, 48
1, 222960, Note_on_c, 12, 36, 96
1, 223067, Control_c, 13, 11, 52
1, 223068, Control_c, 5, 11, 51
1, 223080, Note_on_c, 9, 69, 0
1, 223080, Note_on_c, 9, 53, 0
1, 223080, Note_on_c, 9, 34, 0
1, 223104, Control_c, 14, 11, 52
1, 223104, Control_c, 12, 11, 52
1, 223105, Control_c, 9, 11, 51
1, 223105, Control_c, 3, 11, 51
1, 223200, Note_on_c, 13, 36, 0
1, 223200, Note_on_c, 9, 40, 64
1, 223200, Note_on_c, 9, 69, 64
1, 223200, Note_on_c, 9, 33, 80
1, 223200, Note_on_c, 9, 34, 64
1, 223200, Note_on_c, 9, 36, 64
1, 223250, Control_c, 5, 11, 50
1, 223256, Control_c, 13, 11, 51
1, 223289, Control_c, 14, 11, 51
1, 223289, Control_c, 9, 11, 50
1, 223289, Control_c, 3, 11, 50
1, 223289, Control_c, 12, 11, 51
1, 223320, Note_on_c, 9, 34, 0
1, 223320, Note_on_c, 9, 36, 0
1, 223320, Note_on_c, 9, 40, 0
1, 223320, Note_on_c, 9, 69, 0
1, 223320, Note_on_c, 9, 33, 0
1, 223380, Note_on_c, 12, 36, 0
1, 223431, Control_c, 5, 11, 49
1, 223440, Note_on_c, 5, 76, 0
1, 223440, Note_on_c, 5, 69, 32
1, 223440, Note_on_c, 9, 69, 64
1, 223440, Note_on_c, 9, 35, 80
1, 223440, Note_on_c, 13, 36, 48
1, 223440, Note_on_c, 12, 36, 96
1, 223444, Control_c, 13, 11, 50
1, 223473, Control_c, 14, 11, 50
1, 223473, Control_c, 9, 11, 49
1, 223473, Control_c, 3, 11, 49
1, 223473, Control_c, 12, 11, 50
1, 223560, Note_on_c, 9, 69, 0
1, 223560, Note_on_c, 9, 35, 0
1, 223612, Control_c, 5, 11, 48
1, 223620, Note_on_c, 12, 36, 0
1, 223633, Control_c, 13, 11, 49
1, 223657, Control_c, 14, 11, 49
1, 223657, Control_c, 9, 11, 48
1, 223657, Control_c, 3, 11, 48
1, 223657, Control_c, 12, 11, 49
1, 223680, Note_on_c, 5, 69, 0
1, 223680, Note_on_c, 13, 36, 0
1, 223680, Note_on_c, 5, 67, 32
1, 223680, Note_on_c, 9, 69, 64
1, 223680, Note_on_c, 9, 35, 80
1, 223680, Note_on_c, 13, 31, 48
1, 223680, Note_on_c, 12, 31, 96
1, 223794, Control_c, 5, 11, 47
1, 223800, Note_on_c, 9, 69, 0
1, 223800, Note_on_c, 9, 35, 0
1, 223822, Control_c, 13, 11, 48
1, 223842, Control_c, 14, 11, 48
1, 223842, Control_c, 9, 11, 47
1, 223842, Control_c, 3, 11, 47
1, 223842, Control_c, 12, 11, 48
1, 223920, Note_on_c, 13, 31, 0
1, 223920, Note_on_c, 9, 69, 64
1, 223920, Note_on_c, 9, 53, 32
1, 223920, Note_on_c, 9, 35, 80
1, 223975, Control_c, 5, 11, 46
1, 224011, Control_c, 13, 11, 47
1, 224026, Control_c, 14, 11, 47
1, 224026, Control_c, 9, 11, 46
1, 224026, Control_c, 3, 11, 46
1, 224026, Control_c, 12, 11, 47
1, 224040, Note_on_c, 9, 69, 0
1, 224040, Note_on_c, 9, 53, 0
1, 224040, Note_on_c, 9, 35, 0
1, 224100, Note_on_c, 12, 31, 0
1, 224157, Control_c, 5, 11, 45
1, 224160, Note_on_c, 5, 67, 0
1, 224160, Note_on_c, 5, 72, 32
1, 224160, Note_on_c, 9, 36, 64
1, 224160, Note_on_c, 9, 40, 64
1, 224160, Note_on_c, 9, 69, 64
1, 224160, Note_on_c, 9, 33, 80
1, 224160, Note_on_c, 13, 31, 48
1, 224160, Note_on_c, 12, 31, 96
1, 224160, Note_on_c, 3, 81, 64
1, 224200, Control_c, 13, 11, 46
1, 224210, Control_c, 14, 11, 46
1, 224210, Control_c, 9, 11, 45
1, 224210, Control_c, 3, 11, 45
1, 224210, Control_c, 12, 11, 46
1, 224280, Note_on_c, 9, 36, 0
1, 224280, Note_on_c, 9, 40, 0
1, 224280, Note_on_c, 9, 69, 0
1, 224280, Note_on_c, 9, 33, 0
1, 224338, Control_c, 5, 11, 44
1, 224389, Control_c, 13, 11, 45
1, 224395, Control_c, 14, 11, 45
1, 224395, Control_c, 9, 11, 44
1, 224395, Control_c, 3, 11, 44
1, 224395, Control_c, 12, 11, 45
1, 224400, Note_on_c, 5, 72, 0
1, 224400, Note_on_c, 13, 31, 0
1, 224400, Note_on_c, 3, 81, 0
1, 224400, Note_on_c, 5, 74, 32
1, 224400, Note_on_c, 9, 69, 64
1, 224400, Note_on_c, 9, 33, 80
1, 224400, Note_on_c, 9, 46, 64
1, 224400, Note_on_c, 9, 70, 32
1, 224400, Note_on_c, 3, 77, 64
1, 224460, Note_on_c, 9, 70, 0
1, 224460, Note_on_c, 9, 70, 44
1, 224520, Note_on_c, 9, 46, 0
1, 224520, Note_on_c, 9, 69, 0
1, 224520, Note_on_c, 9, 70, 0
1, 224520, Note_on_c, 9, 33, 0
1, 224520, Control_c, 5, 11, 43
1, 224520, Note_on_c, 9, 70, 60
1, 224578, Control_c, 13, 11, 44
1, 224579, Control_c, 14, 11, 44
1, 224579, Control_c, 9, 11, 43
1, 224579, Control_c, 3, 11, 43
1, 224579, Control_c, 12, 11, 44
1, 224580, Note_on_c, 9, 70, 0
1, 224580, Note_on_c, 12, 31, 0
1, 224580, Note_on_c, 9, 70, 68
1, 224640, Note_on_c, 5, 74, 0
1, 224640, Note_on_c, 9, 70, 0
1, 224640, Note_on_c, 3, 77, 0
1, 224640, Note_on_c, 5, 76, 32
1, 224640, Note_on_c, 9, 69, 64
1, 224640, Note_on_c, 9, 35, 80
1, 224640, Note_on_c, 13, 36, 48
1, 224640, Note_on_c, 12, 36, 96
1, 224640, Note_on_c, 3, 79, 64
1, 224701, Control_c, 5, 11, 42
1, 224760, Note_on_c, 9, 35, 0
1, 224760, Note_on_c, 9, 69, 0
1, 224760, Note_on_c, 3, 79, 0
1, 224760, Note_on_c, 3, 74, 64
1, 224763, Control_c, 14, 11, 43
1, 224763, Control_c, 9, 11, 42
1, 224763, Control_c, 3, 11, 42
1, 224763, Control_c, 12, 11, 43
1, 224766, Control_c, 13, 11, 43
1, 224880, Note_on_c, 5, 76, 0
1, 224880, Note_on_c, 13, 36, 0
1, 224880, Note_on_c, 3, 74, 0
1, 224880, Note_on_c, 5, 77, 32
1, 224880, Note_on_c, 9, 69, 64
1, 224880, Note_on_c, 9, 53, 32
1, 224880, Note_on_c, 9, 34, 80
1, 224880, Note_on_c, 3, 76, 64
1, 224882, Control_c, 5, 11, 41
1, 224948, Control_c, 14, 11, 42
1, 224948, Control_c, 9, 11, 41
1, 224948, Control_c, 3, 11, 41
1, 224948, Control_c, 12, 11, 42
1, 224955, Control_c, 13, 11, 42
1, 225000, Note_on_c, 9, 34, 0
1, 225000, Note_on_c, 9, 53, 0
1, 225000, Note_on_c, 9, 69, 0
1, 225064, Control_c, 5, 11, 40
1, 225120, Note_on_c, 5, 77, 0
1, 225120, Note_on_c, 5, 76, 32
1, 225120, Note_on_c, 9, 40, 64
1, 225120, Note_on_c, 9, 69, 64
1, 225120, Note_on_c, 9, 33, 80
1, 225120, Note_on_c, 9, 34, 64
1, 225120, Note_on_c, 9, 36, 64
1, 225132, Control_c, 14, 11, 41
1, 225132, Control_c, 9, 11, 40
1, 225132, Control_c, 3, 11, 40
1, 225132, Control_c, 12, 11, 41
1, 225144, Control_c, 13, 11, 41
1, 225240, Note_on_c, 9, 33, 0
1, 225240, Note_on_c, 9, 69, 0
1, 225240, Note_on_c, 9, 40, 0
1, 225240, Note_on_c, 9, 36, 0
1, 225240, Note_on_c, 9, 34, 0
1, 225245, Control_c, 5, 11, 39
1, 225300, Note_on_c, 12, 36, 0
1, 225316, Control_c, 14, 11, 40
1, 225316, Control_c, 9, 11, 39
1, 225316, Control_c, 3, 11, 39
1, 225316, Control_c, 12, 11, 40
1, 225333, Control_c, 13, 11, 40
1, 225360, Note_on_c, 5, 76, 0
1, 225360, Note_on_c, 5, 74, 32
1, 225360, Note_on_c, 9, 69, 64
1, 225360, Note_on_c, 9, 35, 80
1, 225360, Note_on_c, 13, 36, 48
1, 225360, Note_on_c, 12, 36, 96
1, 225427, Control_c, 5, 11, 38
1, 225480, Note_on_c, 9, 35, 0
1, 225480, Note_on_c, 9, 69, 0
1, 225480, Note_on_c, 3, 76, 0
1, 225501, Control_c, 14, 11, 39
1, 225501, Control_c, 9, 11, 38
1, 225501, Control_c, 3, 11, 38
1, 225501, Control_c, 12, 11, 39
1, 225522, Control_c, 13, 11, 39
1, 225540, Note_on_c, 12, 36, 0
1, 225600, Note_on_c, 5, 74, 0
1, 225600, Note_on_c, 13, 36, 0
1, 225600, Note_on_c, 5, 72, 32
1, 225600, Note_on_c, 9, 69, 64
1, 225600, Note_on_c, 9, 35, 80
1, 225600, Note_on_c, 13, 36, 48
1, 225600, Note_on_c, 12, 36, 96
1, 225608, Control_c, 5, 11, 37
1, 225685, Control_c, 14, 11, 38
1, 225685, Control_c, 9, 11, 37
1, 225685, Control_c, 3, 11, 37
1, 225685, Control_c, 12, 11, 38
1, 225711, Control_c, 13, 11, 38
1, 225720, Note_on_c, 9, 35, 0
1, 225720, Note_on_c, 9, 69, 0
1, 225789, Control_c, 5, 11, 36
1, 225840, Note_on_c, 13, 36, 0
1, 225840, Note_on_c, 9, 69, 64
1, 225840, Note_on_c, 9, 53, 32
1, 225840, Note_on_c, 9, 34, 80
1, 225869, Control_c, 14, 11, 37
1, 225869, Control_c, 9, 11, 36
1, 225869, Control_c, 3, 11, 36
1, 225869, Control_c, 12, 11, 37
1, 225900, Control_c, 13, 11, 37
1, 225960, Note_on_c, 9, 34, 0
1, 225960, Note_on_c, 9, 53, 0
1, 225960, Note_on_c, 9, 69, 0
1, 225971, Control_c, 5, 11, 35
1, 226020, Note_on_c, 5, 72, 0
1, 226054, Control_c, 14, 11, 36
1, 226054, Control_c, 9, 11, 35
1, 226054, Control_c, 3, 11, 35
1, 226054, Control_c, 12, 11, 36
1, 226080, Note_on_c, 5, 72, 32
1, 226080, Note_on_c, 9, 36, 64
1, 226080, Note_on_c, 9, 40, 64
1, 226080, Note_on_c, 9, 69, 64
1, 226080, Note_on_c, 9, 33, 80
1, 226088, Control_c, 13, 11, 36
1, 226152, Control_c, 5, 11, 34
1, 226200, Note_on_c, 9, 33, 0
1, 226200, Note_on_c, 9, 69, 0
1, 226200, Note_on_c, 9, 40, 0
1, 226200, Note_on_c, 9, 36, 0
1, 226238, Control_c, 14, 11, 35
1, 226238, Control_c, 9, 11, 34
1, 226238, Control_c, 3, 11, 34
1, 226238, Control_c, 12, 11, 35
1, 226277, Control_c, 13, 11, 35
1, 226320, Note_on_c, 5, 72, 0
1, 226320, Note_on_c, 5, 69, 32
1, 226320, Note_on_c, 9, 69, 64
1, 226320, Note_on_c, 9, 35, 80
1, 226334, Control_c, 5, 11, 33
1, 226422, Control_c, 14, 11, 34
1, 226422, Control_c, 9, 11, 33
1, 226422, Control_c, 3, 11, 33
1, 226422, Control_c, 12, 11, 34
1, 226440, Note_on_c, 9, 35, 0
1, 226440, Note_on_c, 9, 69, 0
1, 226440, Note_on_c, 9, 69, 52
1, 226466, Control_c, 13, 11, 34
1, 226500, Note_on_c, 12, 36, 0
1, 226515, Control_c, 5, 11, 32
1, 226560, Note_on_c, 5, 69, 0
1, 226560, Note_on_c, 9, 69, 0
1, 226560, Note_on_c, 5, 72, 32
1, 226560, Note_on_c, 9, 69, 80
1, 226560, Note_on_c, 9, 35, 80
1, 226560, Note_on_c, 13, 36, 48
1, 226560, Note_on_c, 12, 36, 96
1, 226607, Control_c, 14, 11, 33
1, 226607, Control_c, 9, 11, 32
1, 226607, Control_c, 3, 11, 32
1, 226607, Control_c, 12, 11, 33
1, 226655, Control_c, 13, 11, 33
1, 226680, Note_on_c, 9, 35, 0
1, 226680, Note_on_c, 9, 69, 0
1, 226697, Control_c, 5, 11, 31
1, 226740, Note_on_c, 12, 36, 0
1, 226791, Control_c, 14, 11, 32
1, 226791, Control_c, 9, 11, 31
1, 226791, Control_c, 3, 11, 31
1, 226791, Control_c, 12, 11, 32
1, 226800, Note_on_c, 13, 36, 0
1, 226800, Note_on_c, 9, 69, 64
1, 226800, Note_on_c, 9, 53, 32
1, 226800, Note_on_c, 9, 34, 80
1, 226800, Note_on_c, 13, 36, 48
1, 226800, Note_on_c, 12, 36, 96
1, 226844, Control_c, 13, 11, 32
1, 226878, Control_c, 5, 11, 30
1, 226920, Note_on_c, 9, 34, 0
1, 226920, Note_on_c, 9, 53, 0
1, 226920, Note_on_c, 9, 69, 0
1, 226975, Control_c, 14, 11, 31
1, 226975, Control_c, 9, 11, 30
1, 226975, Control_c, 3, 11, 30
1, 226975, Control_c, 12, 11, 31
1, 226980, Note_on_c, 5, 72, 0
1, 227033, Control_c, 13, 11, 31
1, 227040, Note_on_c, 13, 36, 0
1, 227040, Note_on_c, 5, 69, 32
1, 227040, Note_on_c, 9, 40, 64
1, 227040, Note_on_c, 9, 69, 64
1, 227040, Note_on_c, 9, 33, 80
1, 227040, Note_on_c, 9, 34, 64
1, 227040, Note_on_c, 9, 36, 64
1, 227059, Control_c, 5, 11, 29
1, 227160, Note_on_c, 9, 33, 0
1, 227160, Note_on_c, 9, 69, 0
1, 227160, Note_on_c, 9, 40, 0
1, 227160, Note_on_c, 9, 36, 0
1, 227160, Note_on_c, 9, 34, 0
1, 227160, Control_c, 14, 11, 30
1, 227160, Control_c, 9, 11, 29
1, 227160, Control_c, 3, 11, 29
1, 227160, Control_c, 12, 11, 30
1, 227220, Note_on_c, 12, 36, 0
1, 227221, Control_c, 13, 11, 30
1, 227241, Control_c, 5, 11, 28
1, 227280, Note_on_c, 5, 69, 0
1, 227280, Note_on_c, 5, 74, 32
1, 227280, Note_on_c, 9, 69, 64
1, 227280, Note_on_c, 9, 35, 80
1, 227280, Note_on_c, 13, 36, 48
1, 227280, Note_on_c, 12, 36, 96
1, 227344, Control_c, 14, 11, 29
1, 227344, Control_c, 9, 11, 28
1, 227344, Control_c, 3, 11, 28
1, 227344, Control_c, 12, 11, 29
1, 227400, Note_on_c, 9, 35, 0
1, 227400, Note_on_c, 9, 69, 0
1, 227410, Control_c, 13, 11, 29
1, 227422, Control_c, 5, 11, 27
1, 227460, Note_on_c, 12, 36, 0
1, 227520, Note_on_c, 13, 36, 0
1, 227520, Note_on_c, 9, 69, 64
1, 227520, Note_on_c, 9, 35, 80
1, 227520, Note_on_c, 13, 38, 48
1, 227520, Note_on_c, 12, 38, 96
1, 227528, Control_c, 14, 11, 28
1, 227528, Control_c, 9, 11, 27
1, 227528, Control_c, 3, 11, 27
1, 227528, Control_c, 12, 11, 28
1, 227599, Control_c, 13, 11, 28
1, 227604, Control_c, 5, 11, 26
1, 227640, Note_on_c, 9, 35, 0
1, 227640, Note_on_c, 9, 69, 0
1, 227712, Control_c, 14, 11, 27
1, 227712, Control_c, 12, 11, 27
1, 227713, Control_c, 9, 11, 26
1, 227713, Control_c, 3, 11, 26
1, 227760, Note_on_c, 5, 74, 0
1, 227760, Note_on_c, 13, 38, 0
1, 227760, Note_on_c, 5, 76, 32
1, 227760, Note_on_c, 9, 69, 64
1, 227760, Note_on_c, 9, 53, 32
1, 227760, Note_on_c, 9, 35, 80
1, 227785, Control_c, 5, 11, 25
1, 227788, Control_c, 13, 11, 27
1, 227880, Note_on_c, 9, 35, 0
1, 227880, Note_on_c, 9, 53, 0
1, 227880, Note_on_c, 9, 69, 0
1, 227897, Control_c, 14, 11, 26
1, 227897, Control_c, 9, 11, 25
1, 227897, Control_c, 3, 11, 25
1, 227897, Control_c, 12, 11, 26
1, 227940, Note_on_c, 12, 38, 0
1, 227966, Control_c, 5, 11, 24
1, 227977, Control_c, 13, 11, 26
1, 228000, Note_on_c, 5, 76, 0
1, 228000, Note_on_c, 5, 72, 32
1, 228000, Note_on_c, 9, 36, 64
1, 228000, Note_on_c, 9, 40, 64
1, 228000, Note_on_c, 9, 69, 64
1, 228000, Note_on_c, 9, 33, 80
1, 228000, Note_on_c, 13, 38, 48
1, 228000, Note_on_c, 12, 38, 96
1, 228000, Note_on_c, 3, 81, 64
1, 228081, Control_c, 14, 11, 25
1, 228081, Control_c, 9, 11, 24
1, 228081, Control_c, 3, 11, 24
1, 228081, Control_c, 12, 11, 25
1, 228120, Note_on_c, 9, 33, 0
1, 228120, Note_on_c, 9, 69, 0
1, 228120, Note_on_c, 9, 40, 0
1, 228120, Note_on_c, 9, 36, 0
1, 228148, Control_c, 5, 11, 23
1, 228166, Control_c, 13, 11, 25
1, 228240, Note_on_c, 5, 72, 0
1, 228240, Note_on_c, 13, 38, 0
1, 228240, Note_on_c, 3, 81, 0
1, 228240, Note_on_c, 5, 74, 32
1, 228240, Note_on_c, 9, 69, 64
1, 228240, Note_on_c, 9, 33, 80
1, 228240, Note_on_c, 9, 46, 64
1, 228240, Note_on_c, 9, 70, 32
1, 228240, Note_on_c, 3, 77, 64
1, 228265, Control_c, 14, 11, 24
1, 228265, Control_c, 9, 11, 23
1, 228265, Control_c, 3, 11, 23
1, 228265, Control_c, 12, 11, 24
1, 228300, Note_on_c, 9, 70, 0
1, 228300, Note_on_c, 9, 70, 44
1, 228329, Control_c, 5, 11, 22
1, 228355, Control_c, 13, 11, 24
1, 228360, Note_on_c, 9, 33, 0
1, 228360, Note_on_c, 9, 70, 0
1, 228360, Note_on_c, 9, 69, 0
1, 228360, Note_on_c, 9, 46, 0
1, 228360, Note_on_c, 9, 70, 60
1, 228420, Note_on_c, 9, 70, 0
1, 228420, Note_on_c, 12, 38, 0
1, 228420, Note_on_c, 9, 70, 68
1, 228450, Control_c, 14, 11, 23
1, 228450, Control_c, 9, 11, 22
1, 228450, Control_c, 3, 11, 22
1, 228450, Control_c, 12, 11, 23
1, 228480, Note_on_c, 5, 74, 0
1, 228480, Note_on_c, 9, 70, 0
1, 228480, Note_on_c, 3, 77, 0
1, 228480, Note_on_c, 5, 76, 32
1, 228480, Note_on_c, 9, 69, 64
1, 228480, Note_on_c, 9, 35, 80
1, 228480, Note_on_c, 13, 36, 48
1, 228480, Note_on_c, 12, 36, 96
1, 228480, Note_on_c, 3, 79, 64
1, 228511, Control_c, 5, 11, 21
1, 228543, Control_c, 13, 11, 23
1, 228600, Note_on_c, 9, 69, 0
1, 228600, Note_on_c, 9, 35, 0
1, 228600, Note_on_c, 3, 79, 0
1, 228600, Note_on_c, 3, 74, 64
1, 228634, Control_c, 14, 11, 22
1, 228634, Control_c, 9, 11, 21
1, 228634, Control_c, 3, 11, 21
1, 228634, Control_c, 12, 11, 22
1, 228692, Control_c, 5, 11, 20
1, 228720, Note_on_c, 5, 76, 0
1, 228720, Note_on_c, 13, 36, 0
1, 228720, Note_on_c, 3, 74, 0
1, 228720, Note_on_c, 5, 77, 32
1, 228720, Note_on_c, 9, 69, 64
1, 228720, Note_on_c, 9, 53, 32
1, 228720, Note_on_c, 9, 34, 80
1, 228720, Note_on_c, 3, 76, 64
1, 228732, Control_c, 13, 11, 22
1, 228818, Control_c, 14, 11, 21
1, 228818, Control_c, 9, 11, 20
1, 228818, Control_c, 3, 11, 20
1, 228818, Control_c, 12, 11, 21
1, 228840, Note_on_c, 9, 69, 0
1, 228840, Note_on_c, 9, 53, 0
1, 228840, Note_on_c, 9, 34, 0
1, 228874, Control_c, 5, 11, 19
1, 228921, Control_c, 13, 11, 21
1, 228960, Note_on_c, 5, 77, 0
1, 228960, Note_on_c, 5, 76, 32
1, 228960, Note_on_c, 9, 40, 64
1, 228960, Note_on_c, 9, 69, 64
1, 228960, Note_on_c, 9, 33, 80
1, 228960, Note_on_c, 9, 34, 64
1, 228960, Note_on_c, 9, 36, 64
1, 229003, Control_c, 14, 11, 20
1, 229003, Control_c, 9, 11, 19
1, 229003, Control_c, 3, 11, 19
1, 229003, Control_c, 12, 11, 20
1, 229055, Control_c, 5, 11, 18
1, 229080, Note_on_c, 9, 34, 0
1, 229080, Note_on_c, 9, 36, 0
1, 229080, Note_on_c, 9, 40, 0
1, 229080, Note_on_c, 9, 69, 0
1, 229080, Note_on_c, 9, 33, 0
1, 229110, Control_c, 13, 11, 20
1, 229140, Note_on_c, 12, 36, 0
1, 229187, Control_c, 14, 11, 19
1, 229187, Control_c, 9, 11, 18
1, 229187, Control_c, 3, 11, 18
1, 229187, Control_c, 12, 11, 19
1, 229200, Note_on_c, 5, 76, 0
1, 229200, Note_on_c, 5, 74, 32
1, 229200, Note_on_c, 9, 69, 64
1, 229200, Note_on_c, 9, 35, 80
1, 229200, Note_on_c, 13, 36, 48
1, 229200, Note_on_c, 12, 36, 96
1, 229236, Control_c, 5, 11, 17
1, 229299, Control_c, 13, 11, 19
1, 229320, Note_on_c, 9, 69, 0
1, 229320, Note_on_c, 9, 35, 0
1, 229320, Note_on_c, 3, 76, 0
1, 229371, Control_c, 14, 11, 18
1, 229371, Control_c, 9, 11, 17
1, 229371, Control_c, 3, 11, 17
1, 229371, Control_c, 12, 11, 18
1, 229380, Note_on_c, 12, 36, 0
1, 229418, Control_c, 5, 11, 16
1, 229440, Note_on_c, 5, 74, 0
1, 229440, Note_on_c, 13, 36, 0
1, 229440, Note_on_c, 5, 72, 32
1, 229440, Note_on_c, 9, 69, 64
1, 229440, Note_on_c, 9, 35, 80
1, 229440, Note_on_c, 13, 36, 48
1, 229440, Note_on_c, 12, 36, 96
1, 229488, Control_c, 13, 11, 18
1, 229556, Control_c, 14, 11, 17
1, 229556, Control_c, 9, 11, 16
1, 229556, Control_c, 3, 11, 16
1, 229556, Control_c, 12, 11, 17
1, 229560, Note_on_c, 9, 69, 0
1, 229560, Note_on_c, 9, 35, 0
1, 229599, Control_c, 5, 11, 15
1, 229677, Control_c, 13, 11, 17
1, 229680, Note_on_c, 13, 36, 0
1, 229680, Note_on_c, 9, 69, 64
1, 229680, Note_on_c, 9, 53, 32
1, 229680, Note_on_c, 9, 34, 80
1, 229740, Control_c, 14, 11, 16
1, 229740, Control_c, 9, 11, 15
1, 229740, Control_c, 3, 11, 15
1, 229740, Control_c, 12, 11, 16
1, 229781, Control_c, 5, 11, 14
1, 229800, Note_on_c, 9, 69, 0
1, 229800, Note_on_c, 9, 53, 0
1, 229800, Note_on_c, 9, 34, 0
1, 229860, Note_on_c, 5, 72, 0
1, 229865, Control_c, 13, 11, 16
1, 229920, Note_on_c, 5, 72, 32
1, 229920, Note_on_c, 9, 36, 64
1, 229920, Note_on_c, 9, 40, 64
1, 229920, Note_on_c, 9, 69, 64
1, 229920, Note_on_c, 9, 33, 80
1, 229924, Control_c, 14, 11, 15
1, 229924, Control_c, 9, 11, 14
1, 229924, Control_c, 3, 11, 14
1, 229924, Control_c, 12, 11, 15
1, 229962, Control_c, 5, 11, 13
1, 230040, Note_on_c, 9, 36, 0
1, 230040, Note_on_c, 9, 40, 0
1, 230040, Note_on_c, 9, 69, 0
1, 230040, Note_on_c, 9, 33, 0
1, 230054, Control_c, 13, 11, 15
1, 230109, Control_c, 14, 11, 14
1, 230109, Control_c, 9, 11, 13
1, 230109, Control_c, 3, 11, 13
1, 230109, Control_c, 12, 11, 14
1, 230143, Control_c, 5, 11, 12
1, 230160, Note_on_c, 5, 72, 0
1, 230160, Note_on_c, 5, 69, 32
1, 230160, Note_on_c, 9, 69, 64
1, 230160, Note_on_c, 9, 35, 80
1, 230243, Control_c, 13, 11, 14
1, 230280, Note_on_c, 9, 69, 0
1, 230280, Note_on_c, 9, 35, 0
1, 230280, Note_on_c, 9, 69, 52
1, 230293, Control_c, 14, 11, 13
1, 230293, Control_c, 9, 11, 12
1, 230293, Control_c, 3, 11, 12
1, 230293, Control_c, 12, 11, 13
1, 230325, Control_c, 5, 11, 11
1, 230340, Note_on_c, 12, 36, 0
1, 230400, Note_on_c, 9, 69, 0
1, 230400, Note_on_c, 9, 69, 80
1, 230400, Note_on_c, 9, 35, 80
1, 230400, Note_on_c, 13, 36, 48
1, 230400, Note_on_c, 12, 36, 96
1, 230432, Control_c, 13, 11, 13
1, 230477, Control_c, 14, 11, 12
1, 230477, Control_c, 9, 11, 11
1, 230477, Control_c, 3, 11, 11
1, 230477, Control_c, 12, 11, 12
1, 230506, Control_c, 5, 11, 10
1, 230520, Note_on_c, 9, 69, 0
1, 230520, Note_on_c, 9, 35, 0
1, 230580, Note_on_c, 5, 69, 0
1, 230580, Note_on_c, 12, 36, 0
1, 230621, Control_c, 13, 11, 12
1, 230640, Note_on_c, 13, 36, 0
1, 230640, Note_on_c, 5, 76, 32
1, 230640, Note_on_c, 9, 69, 64
1, 230640, Note_on_c, 9, 53, 32
1, 230640, Note_on_c, 9, 34, 80
1, 230640, Note_on_c, 13, 36, 48
1, 230640, Note_on_c, 12, 36, 96
1, 230662, Control_c, 14, 11, 11
1, 230662, Control_c, 9, 11, 10
1, 230662, Control_c, 3, 11, 10
1, 230662, Control_c, 12, 11, 11
1, 230688, Control_c, 5, 11, 9
1, 230760, Note_on_c, 9, 69, 0
1, 230760, Note_on_c, 9, 53, 0
1, 230760, Note_on_c, 9, 34, 0
1, 230810, Control_c, 13, 11, 11
1, 230846, Control_c, 14, 11, 10
1, 230846, Control_c, 9, 11, 9
1, 230846, Control_c, 3, 11, 9
1, 230846, Control_c, 12, 11, 10
1, 230869, Control_c, 5, 11, 8
1, 230880, Note_on_c, 13, 36, 0
1, 230880, Note_on_c, 9, 40, 64
1, 230880, Note_on_c, 9, 69, 64
1, 230880, Note_on_c, 9, 33, 80
1, 230880, Note_on_c, 9, 34, 64
1, 230880, Note_on_c, 9, 36, 64
1, 230999, Control_c, 13, 11, 10
1, 231000, Note_on_c, 9, 34, 0
1, 231000, Note_on_c, 9, 36, 0
1, 231000, Note_on_c, 9, 40, 0
1, 231000, Note_on_c, 9, 69, 0
1, 231000, Note_on_c, 9, 33, 0
1, 231030, Control_c, 14, 11, 9
1, 231030, Control_c, 9, 11, 8
1, 231030, Control_c, 3, 11, 8
1, 231030, Control_c, 12, 11, 9
1, 231051, Control_c, 5, 11, 7
1, 231060, Note_on_c, 12, 36, 0
1, 231120, Note_on_c, 5, 76, 0
1, 231120, Note_on_c, 5, 69, 32
1, 231120, Note_on_c, 9, 69, 64
1, 231120, Note_on_c, 9, 35, 80
1, 231120, Note_on_c, 13, 36, 48
1, 231120, Note_on_c, 12, 36, 96
1, 231187, Control_c, 13, 11, 9
1, 231215, Control_c, 14, 11, 8
1, 231215, Control_c, 9, 11, 7
1, 231215, Control_c, 3, 11, 7
1, 231215, Control_c, 12, 11, 8
1, 231232, Control_c, 5, 11, 6
1, 231240, Note_on_c, 9, 69, 0
1, 231240, Note_on_c, 9, 35, 0
1, 231300, Note_on_c, 12, 36, 0
1, 231360, Note_on_c, 5, 69, 0
1, 231360, Note_on_c, 13, 36, 0
1, 231360, Note_on_c, 5, 67, 32
1, 231360, Note_on_c, 9, 69, 64
1, 231360, Note_on_c, 9, 35, 80
1, 231360, Note_on_c, 13, 31, 48
1, 231360, Note_on_c, 12, 31, 96
1, 231376, Control_c, 13, 11, 8
1, 231399, Control_c, 14, 11, 7
1, 231399, Control_c, 9, 11, 6
1, 231399, Control_c, 3, 11, 6
1, 231399, Control_c, 12, 11, 7
1, 231413, Control_c, 5, 11, 5
1, 231480, Note_on_c, 9, 69, 0
1, 231480, Note_on_c, 9, 35, 0
1, 231565, Control_c, 13, 11, 7
1, 231583, Control_c, 14, 11, 6
1, 231583, Control_c, 9, 11, 5
1, 231583, Control_c, 3, 11, 5
1, 231583, Control_c, 12, 11, 6
1, 231595, Control_c, 5, 11, 4
1, 231600, Note_on_c, 5, 67, 0
1, 231600, Note_on_c, 13, 31, 0
1, 231600, Note_on_c, 9, 69, 64
1, 231600, Note_on_c, 9, 53, 32
1, 231600, Note_on_c, 9, 35, 80
1, 231720, Note_on_c, 9, 69, 0
1, 231720, Note_on_c, 9, 53, 0
1, 231720, Note_on_c, 9, 35, 0
1, 231754, Control_c, 13, 11, 6
1, 231768, Control_c, 14, 11, 5
1, 231768, Control_c, 9, 11, 4
1, 231768, Control_c, 3, 11, 4
1, 231768, Control_c, 12, 11, 5
1, 231776, Control_c, 5, 11, 3
1, 231780, Note_on_c, 12, 31, 0
1, 231840, Note_on_c, 9, 36, 64
1, 231840, Note_on_c, 9, 40, 64
1, 231840, Note_on_c, 9, 69, 64
1, 231840, Note_on_c, 9, 33, 80
1, 231840, Note_on_c, 13, 31, 80
1, 231840, Note_on_c, 12, 31, 96
1, 231840, Note_on_c, 3, 81, 64
1, 231943, Control_c, 13, 11, 5
1, 231952, Control_c, 14, 11, 4
1, 231952, Control_c, 9, 11, 3
1, 231952, Control_c, 3, 11, 3
1, 231952, Control_c, 12, 11, 4
1, 231958, Control_c, 5, 11, 2
1, 231960, Note_on_c, 9, 36, 0
1, 231960, Note_on_c, 9, 40, 0
1, 231960, Note_on_c, 9, 69, 0
1, 231960, Note_on_c, 9, 33, 0
1, 232080, Note_on_c, 13, 31, 0
1, 232080, Note_on_c, 3, 81, 0
1, 232080, Note_on_c, 9, 69, 64
1, 232080, Note_on_c, 9, 33, 80
1, 232080, Note_on_c, 9, 46, 64
1, 232080, Note_on_c, 9, 70, 32
1, 232080, Note_on_c, 3, 77, 64
1, 232132, Control_c, 13, 11, 4
1, 232136, Control_c, 14, 11, 3
1, 232136, Control_c, 9, 11, 2
1, 232136, Control_c, 3, 11, 2
1, 232136, Control_c, 12, 11, 3
1, 232139, Control_c, 5, 11, 1
1, 232140, Note_on_c, 9, 70, 0
1, 232140, Note_on_c, 9, 70, 44
1, 232200, Note_on_c, 9, 46, 0
1, 232200, Note_on_c, 9, 69, 0
1, 232200, Note_on_c, 9, 70, 0
1, 232200, Note_on_c, 9, 33, 0
1, 232200, Note_on_c, 9, 70, 60
1, 232260, Note_on_c, 9, 70, 0
1, 232260, Note_on_c, 12, 31, 0
1, 232260, Note_on_c, 9, 70, 68
1, 232320, Note_on_c, 9, 70, 0
1, 232320, Note_on_c, 3, 77, 0
1, 232320, Note_on_c, 14, 55, 0
1, 232320, Note_on_c, 14, 60, 0
1, 232320, Note_on_c, 14, 64, 0
1, 232320, Control_c, 14, 11, 2
1, 232320, Control_c, 5, 11, 0
1, 232320, Control_c, 12, 11, 2
1, 232320, Note_on_c, 3, 79, 64
1, 232440, Note_on_c, 3, 79, 0
1, 232440, Note_on_c, 3, 74, 64
1, 232560, Note_on_c, 3, 74, 0
1, 232560, Note_on_c, 3, 76, 64
1, 233160, Note_on_c, 3, 76, 0
1, 234240, End_track
2, 0, Start_track
2, 0, Title_t, "Sting - I'm So Happy I Can't Stop Crying"
2, 234240, End_track
3, 0, Start_track
3, 0, Title_t, "Sequenced by Russ"
3, 234240, End_track
4, 0, Start_track
4, 0, Title_t, "data_zoid@yahoo.com"
4, 234240, End_track
0, 0, End_of_file
