0, 0, Header, 1, 9, 120
1, 0, Start_track
1, 0, Time_signature, 4, 2, 24, 8
1, 0, Key_signature, 0, "major"
1, 0, Tempo, 594059
1, 0, End_track
2, 0, Start_track
2, 0, MIDI_port, 0
2, 0, Title_t, "Bass"
2, 0, Program_c, 0, 33
2, 0, Control_c, 0, 7, 127
2, 180, Control_c, 0, 7, 28
2, 185, Control_c, 0, 7, 29
2, 205, Control_c, 0, 7, 31
2, 210, Control_c, 0, 7, 38
2, 215, Control_c, 0, 7, 75
2, 220, Control_c, 0, 7, 127
2, 584, Note_on_c, 0, 30, 127
2, 649, Note_on_c, 0, 30, 0
2, 1026, Note_on_c, 0, 26, 127
2, 1045, Note_on_c, 0, 26, 0
2, 1049, Note_on_c, 0, 28, 127
2, 1079, Note_on_c, 0, 28, 0
2, 1121, Note_on_c, 0, 30, 127
2, 1175, Note_on_c, 0, 30, 0
2, 1584, Note_on_c, 0, 28, 127
2, 1618, Note_on_c, 0, 28, 0
2, 1652, Note_on_c, 0, 30, 127
2, 1714, Note_on_c, 0, 30, 0
2, 2096, Note_on_c, 0, 26, 127
2, 2114, Note_on_c, 0, 26, 0
2, 2115, Note_on_c, 0, 28, 127
2, 2138, Note_on_c, 0, 28, 0
2, 2182, Note_on_c, 0, 30, 127
2, 2240, Note_on_c, 0, 30, 0
2, 2381, Note_on_c, 0, 33, 127
2, 2431, Note_on_c, 0, 33, 0
2, 2454, Note_on_c, 0, 32, 127
2, 2547, Note_on_c, 0, 32, 0
2, 2587, Note_on_c, 0, 37, 127
2, 2664, Note_on_c, 0, 37, 0
2, 2722, Note_on_c, 0, 30, 127
2, 2796, Note_on_c, 0, 30, 0
2, 3156, Note_on_c, 0, 26, 127
2, 3174, Note_on_c, 0, 26, 0
2, 3180, Note_on_c, 0, 28, 127
2, 3210, Note_on_c, 0, 28, 0
2, 3253, Note_on_c, 0, 30, 127
2, 3297, Control_c, 0, 7, 125
2, 3314, Note_on_c, 0, 30, 0
2, 3318, Control_c, 0, 7, 124
2, 3354, Control_c, 0, 7, 125
2, 3359, Control_c, 0, 7, 127
2, 3717, Note_on_c, 0, 28, 127
2, 3752, Note_on_c, 0, 28, 0
2, 3788, Note_on_c, 0, 30, 127
2, 3849, Note_on_c, 0, 30, 0
2, 4225, Note_on_c, 0, 26, 127
2, 4246, Note_on_c, 0, 26, 0
2, 4253, Note_on_c, 0, 28, 127
2, 4282, Note_on_c, 0, 28, 0
2, 4322, Note_on_c, 0, 30, 127
2, 4377, Note_on_c, 0, 30, 0
2, 4515, Note_on_c, 0, 33, 127
2, 4560, Note_on_c, 0, 33, 0
2, 4584, Note_on_c, 0, 32, 127
2, 4665, Note_on_c, 0, 32, 0
2, 4719, Note_on_c, 0, 37, 127
2, 4797, Note_on_c, 0, 37, 0
2, 4851, Note_on_c, 0, 30, 127
2, 4906, Note_on_c, 0, 30, 0
2, 5289, Note_on_c, 0, 26, 127
2, 5308, Note_on_c, 0, 26, 0
2, 5316, Note_on_c, 0, 28, 127
2, 5342, Note_on_c, 0, 28, 0
2, 5387, Note_on_c, 0, 30, 127
2, 5443, Note_on_c, 0, 30, 0
2, 5852, Note_on_c, 0, 28, 127
2, 5885, Note_on_c, 0, 28, 0
2, 5920, Note_on_c, 0, 30, 127
2, 5990, Note_on_c, 0, 30, 0
2, 6358, Note_on_c, 0, 26, 127
2, 6378, Note_on_c, 0, 26, 0
2, 6382, Note_on_c, 0, 28, 127
2, 6408, Note_on_c, 0, 28, 0
2, 6451, Note_on_c, 0, 30, 127
2, 6516, Note_on_c, 0, 30, 0
2, 6647, Note_on_c, 0, 33, 127
2, 6695, Note_on_c, 0, 33, 0
2, 6721, Note_on_c, 0, 32, 127
2, 6803, Note_on_c, 0, 32, 0
2, 6851, Note_on_c, 0, 37, 127
2, 6926, Note_on_c, 0, 37, 0
2, 6985, Note_on_c, 0, 30, 127
2, 7052, Note_on_c, 0, 30, 0
2, 7421, Note_on_c, 0, 26, 127
2, 7447, Note_on_c, 0, 26, 0
2, 7448, Note_on_c, 0, 28, 127
2, 7475, Note_on_c, 0, 28, 0
2, 7520, Note_on_c, 0, 30, 127
2, 7587, Note_on_c, 0, 30, 0
2, 7990, Note_on_c, 0, 28, 127
2, 8020, Note_on_c, 0, 28, 0
2, 8057, Note_on_c, 0, 30, 127
2, 8129, Note_on_c, 0, 30, 0
2, 8493, Note_on_c, 0, 26, 127
2, 8513, Note_on_c, 0, 26, 0
2, 8517, Note_on_c, 0, 28, 127
2, 8545, Note_on_c, 0, 28, 0
2, 8588, Note_on_c, 0, 30, 127
2, 8665, Note_on_c, 0, 30, 0
2, 8786, Note_on_c, 0, 33, 127
2, 8829, Note_on_c, 0, 33, 0
2, 8853, Note_on_c, 0, 32, 127
2, 8947, Note_on_c, 0, 32, 0
2, 8986, Note_on_c, 0, 37, 127
2, 9075, Note_on_c, 0, 37, 0
2, 9121, Note_on_c, 0, 30, 127
2, 9184, Note_on_c, 0, 30, 0
2, 9553, Note_on_c, 0, 26, 127
2, 9575, Note_on_c, 0, 26, 0
2, 9581, Note_on_c, 0, 28, 127
2, 9608, Note_on_c, 0, 28, 0
2, 9653, Note_on_c, 0, 30, 127
2, 9727, Note_on_c, 0, 30, 0
2, 10118, Note_on_c, 0, 28, 127
2, 10144, Note_on_c, 0, 28, 0
2, 10189, Note_on_c, 0, 30, 127
2, 10261, Note_on_c, 0, 30, 0
2, 10626, Note_on_c, 0, 26, 127
2, 10648, Note_on_c, 0, 26, 0
2, 10651, Note_on_c, 0, 28, 127
2, 10676, Note_on_c, 0, 28, 0
2, 10718, Note_on_c, 0, 30, 127
2, 10787, Note_on_c, 0, 30, 0
2, 10913, Note_on_c, 0, 33, 127
2, 10957, Note_on_c, 0, 33, 0
2, 10984, Note_on_c, 0, 32, 127
2, 11083, Note_on_c, 0, 32, 0
2, 11120, Note_on_c, 0, 37, 127
2, 11210, Note_on_c, 0, 37, 0
2, 11254, Note_on_c, 0, 30, 127
2, 11313, Note_on_c, 0, 30, 0
2, 11690, Note_on_c, 0, 26, 127
2, 11712, Note_on_c, 0, 26, 0
2, 11717, Note_on_c, 0, 28, 127
2, 11743, Note_on_c, 0, 28, 0
2, 11786, Note_on_c, 0, 30, 127
2, 11846, Note_on_c, 0, 30, 0
2, 12247, Note_on_c, 0, 28, 127
2, 12286, Note_on_c, 0, 28, 0
2, 12318, Note_on_c, 0, 30, 127
2, 12388, Note_on_c, 0, 30, 0
2, 12758, Note_on_c, 0, 26, 127
2, 12776, Note_on_c, 0, 26, 0
2, 12782, Note_on_c, 0, 28, 127
2, 12807, Note_on_c, 0, 28, 0
2, 12851, Note_on_c, 0, 30, 127
2, 12924, Note_on_c, 0, 30, 0
2, 13048, Note_on_c, 0, 33, 127
2, 13091, Note_on_c, 0, 33, 0
2, 13119, Note_on_c, 0, 32, 127
2, 13210, Note_on_c, 0, 32, 0
2, 13251, Note_on_c, 0, 37, 127
2, 13334, Note_on_c, 0, 37, 0
2, 13384, Note_on_c, 0, 30, 127
2, 13448, Note_on_c, 0, 30, 0
2, 13822, Note_on_c, 0, 26, 127
2, 13848, Note_on_c, 0, 26, 0
2, 13852, Note_on_c, 0, 28, 127
2, 13878, Note_on_c, 0, 28, 0
2, 13919, Note_on_c, 0, 30, 127
2, 13990, Note_on_c, 0, 30, 0
2, 14381, Note_on_c, 0, 28, 127
2, 14412, Note_on_c, 0, 28, 0
2, 14452, Note_on_c, 0, 30, 127
2, 14533, Note_on_c, 0, 30, 0
2, 14889, Note_on_c, 0, 26, 127
2, 14912, Note_on_c, 0, 26, 0
2, 14915, Note_on_c, 0, 28, 127
2, 14943, Note_on_c, 0, 28, 0
2, 14986, Note_on_c, 0, 30, 127
2, 15062, Note_on_c, 0, 30, 0
2, 15183, Note_on_c, 0, 33, 127
2, 15228, Note_on_c, 0, 33, 0
2, 15252, Note_on_c, 0, 32, 127
2, 15341, Note_on_c, 0, 32, 0
2, 15385, Note_on_c, 0, 37, 127
2, 15416, Note_on_c, 0, 36, 127
2, 15454, Note_on_c, 0, 36, 0
2, 15461, Note_on_c, 0, 37, 0
2, 15520, Note_on_c, 0, 30, 127
2, 15589, Note_on_c, 0, 30, 0
2, 15959, Note_on_c, 0, 26, 127
2, 15982, Note_on_c, 0, 26, 0
2, 15987, Note_on_c, 0, 28, 127
2, 16010, Note_on_c, 0, 28, 0
2, 16055, Note_on_c, 0, 30, 127
2, 16124, Note_on_c, 0, 30, 0
2, 16488, Note_on_c, 0, 26, 127
2, 16510, Note_on_c, 0, 26, 0
2, 16516, Note_on_c, 0, 28, 127
2, 16540, Note_on_c, 0, 28, 0
2, 16587, Note_on_c, 0, 30, 127
2, 16655, Note_on_c, 0, 30, 0
2, 17025, Note_on_c, 0, 26, 127
2, 17043, Note_on_c, 0, 26, 0
2, 17051, Note_on_c, 0, 28, 127
2, 17075, Note_on_c, 0, 28, 0
2, 17121, Note_on_c, 0, 30, 127
2, 17186, Note_on_c, 0, 30, 0
2, 17315, Note_on_c, 0, 33, 127
2, 17360, Note_on_c, 0, 33, 0
2, 17385, Note_on_c, 0, 32, 127
2, 17474, Note_on_c, 0, 32, 0
2, 17523, Note_on_c, 0, 37, 127
2, 17601, Note_on_c, 0, 37, 0
2, 17652, Note_on_c, 0, 30, 127
2, 17717, Note_on_c, 0, 30, 0
2, 18094, Note_on_c, 0, 26, 127
2, 18118, Note_on_c, 0, 26, 0
2, 18120, Note_on_c, 0, 28, 127
2, 18148, Note_on_c, 0, 28, 0
2, 18188, Note_on_c, 0, 30, 127
2, 18247, Note_on_c, 0, 30, 0
2, 18655, Note_on_c, 0, 28, 127
2, 18692, Note_on_c, 0, 28, 0
2, 18723, Note_on_c, 0, 30, 127
2, 18799, Note_on_c, 0, 30, 0
2, 19160, Note_on_c, 0, 26, 127
2, 19186, Note_on_c, 0, 26, 0
2, 19187, Note_on_c, 0, 28, 127
2, 19212, Note_on_c, 0, 28, 0
2, 19254, Note_on_c, 0, 30, 127
2, 19317, Note_on_c, 0, 30, 0
2, 19449, Note_on_c, 0, 33, 127
2, 19496, Note_on_c, 0, 33, 0
2, 19522, Note_on_c, 0, 32, 127
2, 19616, Note_on_c, 0, 32, 0
2, 19654, Note_on_c, 0, 37, 127
2, 19743, Note_on_c, 0, 37, 0
2, 19789, Note_on_c, 0, 30, 127
2, 19844, Note_on_c, 0, 30, 0
2, 20216, Note_on_c, 0, 26, 127
2, 20247, Note_on_c, 0, 28, 127
2, 20249, Note_on_c, 0, 26, 0
2, 20276, Note_on_c, 0, 28, 0
2, 20314, Note_on_c, 0, 30, 127
2, 20382, Note_on_c, 0, 30, 0
2, 20789, Note_on_c, 0, 28, 127
2, 20820, Note_on_c, 0, 28, 0
2, 20857, Note_on_c, 0, 30, 127
2, 20927, Note_on_c, 0, 30, 0
2, 21295, Note_on_c, 0, 26, 127
2, 21316, Note_on_c, 0, 26, 0
2, 21321, Note_on_c, 0, 28, 127
2, 21346, Note_on_c, 0, 28, 0
2, 21389, Note_on_c, 0, 30, 127
2, 21464, Note_on_c, 0, 30, 0
2, 21585, Note_on_c, 0, 33, 127
2, 21626, Note_on_c, 0, 33, 0
2, 21654, Note_on_c, 0, 32, 127
2, 21742, Note_on_c, 0, 32, 0
2, 21788, Note_on_c, 0, 37, 127
2, 21872, Note_on_c, 0, 37, 0
2, 21922, Note_on_c, 0, 30, 127
2, 21994, Note_on_c, 0, 30, 0
2, 22358, Note_on_c, 0, 26, 127
2, 22380, Note_on_c, 0, 26, 0
2, 22383, Note_on_c, 0, 28, 127
2, 22410, Note_on_c, 0, 28, 0
2, 22454, Note_on_c, 0, 30, 127
2, 22540, Note_on_c, 0, 30, 0
2, 22914, Note_on_c, 0, 28, 127
2, 22946, Note_on_c, 0, 28, 0
2, 22988, Note_on_c, 0, 30, 127
2, 23070, Note_on_c, 0, 30, 0
2, 23421, Note_on_c, 0, 26, 127
2, 23447, Note_on_c, 0, 26, 0
2, 23448, Note_on_c, 0, 28, 127
2, 23475, Note_on_c, 0, 28, 0
2, 23518, Note_on_c, 0, 30, 127
2, 23581, Note_on_c, 0, 30, 0
2, 23720, Note_on_c, 0, 33, 127
2, 23770, Note_on_c, 0, 33, 0
2, 23789, Note_on_c, 0, 32, 127
2, 23879, Note_on_c, 0, 32, 0
2, 23924, Note_on_c, 0, 37, 127
2, 24008, Note_on_c, 0, 37, 0
2, 24058, Note_on_c, 0, 30, 127
2, 24125, Note_on_c, 0, 30, 0
2, 24491, Note_on_c, 0, 26, 127
2, 24512, Note_on_c, 0, 26, 0
2, 24517, Note_on_c, 0, 28, 127
2, 24541, Note_on_c, 0, 28, 0
2, 24585, Note_on_c, 0, 30, 127
2, 24660, Note_on_c, 0, 30, 0
2, 25024, Note_on_c, 0, 26, 127
2, 25044, Note_on_c, 0, 26, 0
2, 25048, Note_on_c, 0, 28, 127
2, 25072, Note_on_c, 0, 28, 0
2, 25119, Note_on_c, 0, 30, 127
2, 25190, Note_on_c, 0, 30, 0
2, 25580, Note_on_c, 0, 28, 127
2, 25606, Note_on_c, 0, 28, 0
2, 25650, Note_on_c, 0, 30, 127
2, 25716, Note_on_c, 0, 30, 0
2, 25849, Note_on_c, 0, 33, 127
2, 25894, Note_on_c, 0, 33, 0
2, 25921, Note_on_c, 0, 32, 127
2, 26002, Note_on_c, 0, 32, 0
2, 26053, Note_on_c, 0, 37, 127
2, 26139, Note_on_c, 0, 37, 0
2, 26185, Note_on_c, 0, 30, 127
2, 26258, Note_on_c, 0, 30, 0
2, 26620, Note_on_c, 0, 26, 127
2, 26639, Note_on_c, 0, 26, 0
2, 26643, Note_on_c, 0, 28, 127
2, 26667, Note_on_c, 0, 28, 0
2, 26712, Note_on_c, 0, 30, 127
2, 26789, Note_on_c, 0, 30, 0
2, 27181, Note_on_c, 0, 28, 127
2, 27206, Note_on_c, 0, 28, 0
2, 27252, Note_on_c, 0, 30, 127
2, 27332, Note_on_c, 0, 30, 0
2, 27694, Note_on_c, 0, 26, 127
2, 27714, Note_on_c, 0, 26, 0
2, 27715, Note_on_c, 0, 28, 127
2, 27737, Note_on_c, 0, 28, 0
2, 27780, Note_on_c, 0, 30, 127
2, 27853, Note_on_c, 0, 30, 0
2, 27984, Note_on_c, 0, 33, 127
2, 28028, Note_on_c, 0, 33, 0
2, 28053, Note_on_c, 0, 32, 127
2, 28146, Note_on_c, 0, 32, 0
2, 28187, Note_on_c, 0, 37, 127
2, 28280, Note_on_c, 0, 37, 0
2, 28326, Note_on_c, 0, 30, 127
2, 28376, Note_on_c, 0, 30, 0
2, 28757, Note_on_c, 0, 26, 127
2, 28781, Note_on_c, 0, 26, 0
2, 28782, Note_on_c, 0, 28, 127
2, 28812, Note_on_c, 0, 28, 0
2, 28852, Note_on_c, 0, 30, 127
2, 28923, Note_on_c, 0, 30, 0
2, 29318, Note_on_c, 0, 28, 127
2, 29344, Note_on_c, 0, 28, 0
2, 29384, Note_on_c, 0, 30, 127
2, 29462, Note_on_c, 0, 30, 0
2, 29822, Note_on_c, 0, 26, 127
2, 29842, Note_on_c, 0, 26, 0
2, 29849, Note_on_c, 0, 28, 127
2, 29874, Note_on_c, 0, 28, 0
2, 29918, Note_on_c, 0, 30, 127
2, 29994, Note_on_c, 0, 30, 0
2, 30115, Note_on_c, 0, 33, 127
2, 30157, Note_on_c, 0, 33, 0
2, 30185, Note_on_c, 0, 32, 127
2, 30268, Note_on_c, 0, 32, 0
2, 30318, Note_on_c, 0, 37, 127
2, 30412, Note_on_c, 0, 37, 0
2, 30453, Note_on_c, 0, 30, 127
2, 30532, Note_on_c, 0, 30, 0
2, 30885, Note_on_c, 0, 26, 127
2, 30907, Note_on_c, 0, 26, 0
2, 30910, Note_on_c, 0, 28, 127
2, 30942, Note_on_c, 0, 28, 0
2, 30985, Note_on_c, 0, 30, 127
2, 31056, Note_on_c, 0, 30, 0
2, 31451, Note_on_c, 0, 28, 127
2, 31486, Note_on_c, 0, 28, 0
2, 31522, Note_on_c, 0, 30, 127
2, 31599, Note_on_c, 0, 30, 0
2, 31953, Note_on_c, 0, 26, 127
2, 31974, Note_on_c, 0, 26, 0
2, 31980, Note_on_c, 0, 28, 127
2, 32007, Note_on_c, 0, 28, 0
2, 32050, Note_on_c, 0, 30, 127
2, 32133, Note_on_c, 0, 30, 0
2, 32247, Note_on_c, 0, 33, 127
2, 32286, Note_on_c, 0, 33, 0
2, 32316, Note_on_c, 0, 32, 127
2, 32404, Note_on_c, 0, 32, 0
2, 32455, Note_on_c, 0, 37, 127
2, 32538, Note_on_c, 0, 37, 0
2, 32588, Note_on_c, 0, 30, 127
2, 32656, Note_on_c, 0, 30, 0
2, 33022, Note_on_c, 0, 26, 127
2, 33050, Note_on_c, 0, 26, 0
2, 33051, Note_on_c, 0, 28, 127
2, 33080, Note_on_c, 0, 28, 0
2, 33118, Note_on_c, 0, 30, 127
2, 33194, Note_on_c, 0, 30, 0
2, 33578, Note_on_c, 0, 28, 127
2, 33612, Note_on_c, 0, 28, 0
2, 33651, Note_on_c, 0, 30, 127
2, 33728, Note_on_c, 0, 30, 0
2, 34090, Note_on_c, 0, 26, 127
2, 34109, Note_on_c, 0, 26, 0
2, 34115, Note_on_c, 0, 28, 127
2, 34140, Note_on_c, 0, 28, 0
2, 34184, Note_on_c, 0, 30, 127
2, 34265, Note_on_c, 0, 30, 0
2, 34380, Note_on_c, 0, 33, 127
2, 34422, Note_on_c, 0, 33, 0
2, 34451, Note_on_c, 0, 32, 127
2, 34534, Note_on_c, 0, 32, 0
2, 34588, Note_on_c, 0, 37, 127
2, 34674, Note_on_c, 0, 37, 0
2, 34717, Note_on_c, 0, 30, 127
2, 34797, Note_on_c, 0, 30, 0
2, 35157, Note_on_c, 0, 26, 127
2, 35182, Note_on_c, 0, 26, 0
2, 35183, Note_on_c, 0, 28, 127
2, 35210, Note_on_c, 0, 28, 0
2, 35252, Note_on_c, 0, 30, 127
2, 35313, Note_on_c, 0, 30, 0
2, 35714, Note_on_c, 0, 28, 127
2, 35746, Note_on_c, 0, 28, 0
2, 35787, Note_on_c, 0, 30, 127
2, 35838, Note_on_c, 0, 30, 0
2, 36223, Note_on_c, 0, 26, 127
2, 36244, Note_on_c, 0, 26, 0
2, 36252, Note_on_c, 0, 28, 127
2, 36274, Note_on_c, 0, 28, 0
2, 36322, Note_on_c, 0, 30, 127
2, 36365, Note_on_c, 0, 30, 0
2, 38644, Note_on_c, 0, 28, 127
2, 38693, Note_on_c, 0, 28, 0
2, 38719, Note_on_c, 0, 30, 127
2, 38748, Note_on_c, 0, 30, 0
2, 38784, Note_on_c, 0, 33, 127
2, 38806, Note_on_c, 0, 33, 0
2, 38853, Note_on_c, 0, 32, 127
2, 38874, Note_on_c, 0, 32, 0
2, 38919, Note_on_c, 0, 37, 127
2, 38925, Note_on_c, 0, 38, 127
2, 38933, Note_on_c, 0, 38, 0
2, 38935, Note_on_c, 0, 37, 0
2, 38986, Note_on_c, 0, 30, 127
2, 39021, Note_on_c, 0, 30, 0
2, 39119, Note_on_c, 0, 30, 127
2, 39146, Note_on_c, 0, 30, 0
2, 39254, Note_on_c, 0, 30, 127
2, 39298, Note_on_c, 0, 30, 0
2, 39384, Note_on_c, 0, 30, 127
2, 39426, Note_on_c, 0, 30, 0
2, 39445, Note_on_c, 0, 28, 127
2, 39477, Note_on_c, 0, 28, 0
2, 39517, Note_on_c, 0, 25, 127
2, 39562, Note_on_c, 0, 25, 0
2, 39650, Note_on_c, 0, 25, 127
2, 39709, Note_on_c, 0, 25, 0
2, 39785, Note_on_c, 0, 25, 127
2, 39858, Note_on_c, 0, 25, 0
2, 39918, Note_on_c, 0, 25, 127
2, 39953, Note_on_c, 0, 25, 0
2, 39980, Note_on_c, 0, 26, 127
2, 40004, Note_on_c, 0, 26, 0
2, 40126, Note_on_c, 0, 37, 127
2, 40146, Note_on_c, 0, 37, 0
2, 40187, Note_on_c, 0, 37, 127
2, 40226, Note_on_c, 0, 37, 0
2, 40318, Note_on_c, 0, 37, 127
2, 40373, Note_on_c, 0, 37, 0
2, 40454, Note_on_c, 0, 37, 127
2, 40497, Note_on_c, 0, 37, 0
2, 40588, Note_on_c, 0, 37, 127
2, 40615, Note_on_c, 0, 37, 0
2, 40652, Note_on_c, 0, 38, 127
2, 40685, Note_on_c, 0, 38, 0
2, 40719, Note_on_c, 0, 38, 127
2, 40748, Note_on_c, 0, 38, 0
2, 40782, Note_on_c, 0, 37, 127
2, 40806, Note_on_c, 0, 37, 0
2, 40851, Note_on_c, 0, 35, 127
2, 40877, Note_on_c, 0, 35, 0
2, 40917, Note_on_c, 0, 33, 127
2, 40940, Note_on_c, 0, 33, 0
2, 40984, Note_on_c, 0, 32, 127
2, 41031, Note_on_c, 0, 32, 0
2, 41118, Note_on_c, 0, 30, 127
2, 41161, Note_on_c, 0, 30, 0
2, 41253, Note_on_c, 0, 30, 127
2, 41304, Note_on_c, 0, 30, 0
2, 41386, Note_on_c, 0, 30, 127
2, 41439, Note_on_c, 0, 30, 0
2, 41519, Note_on_c, 0, 30, 127
2, 41548, Note_on_c, 0, 30, 0
2, 41586, Note_on_c, 0, 28, 127
2, 41615, Note_on_c, 0, 28, 0
2, 41659, Note_on_c, 0, 25, 127
2, 41707, Note_on_c, 0, 25, 0
2, 41787, Note_on_c, 0, 25, 127
2, 41847, Note_on_c, 0, 25, 0
2, 41916, Note_on_c, 0, 25, 127
2, 41997, Note_on_c, 0, 25, 0
2, 42048, Note_on_c, 0, 25, 127
2, 42087, Note_on_c, 0, 25, 0
2, 42115, Note_on_c, 0, 26, 127
2, 42137, Note_on_c, 0, 26, 0
2, 42185, Note_on_c, 0, 37, 127
2, 42255, Note_on_c, 0, 37, 0
2, 42317, Note_on_c, 0, 37, 127
2, 42387, Note_on_c, 0, 37, 0
2, 42454, Note_on_c, 0, 37, 127
2, 42528, Note_on_c, 0, 37, 0
2, 42588, Note_on_c, 0, 37, 127
2, 42661, Note_on_c, 0, 37, 0
2, 42720, Note_on_c, 0, 37, 127
2, 42757, Note_on_c, 0, 37, 0
2, 42854, Note_on_c, 0, 37, 127
2, 42931, Note_on_c, 0, 37, 0
2, 42977, Note_on_c, 0, 37, 127
2, 43000, Note_on_c, 0, 37, 0
2, 43015, Note_on_c, 0, 38, 127
2, 43043, Note_on_c, 0, 37, 127
2, 43048, Note_on_c, 0, 38, 0
2, 43065, Note_on_c, 0, 37, 0
2, 43114, Note_on_c, 0, 37, 127
2, 43116, Note_on_c, 0, 36, 127
2, 43143, Note_on_c, 0, 36, 0
2, 43143, Note_on_c, 0, 37, 0
2, 43180, Note_on_c, 0, 35, 127
2, 43208, Note_on_c, 0, 35, 0
2, 43252, Note_on_c, 0, 32, 127
2, 43297, Note_on_c, 0, 32, 0
2, 43311, Note_on_c, 0, 30, 127
2, 43338, Note_on_c, 0, 30, 0
2, 43382, Note_on_c, 0, 30, 127
2, 43421, Note_on_c, 0, 30, 0
2, 43685, Note_on_c, 0, 26, 127
2, 43706, Note_on_c, 0, 26, 0
2, 43711, Note_on_c, 0, 28, 127
2, 43736, Note_on_c, 0, 28, 0
2, 43781, Note_on_c, 0, 30, 127
2, 43840, Note_on_c, 0, 30, 0
2, 44250, Note_on_c, 0, 28, 127
2, 44287, Note_on_c, 0, 28, 0
2, 44321, Note_on_c, 0, 30, 127
2, 44389, Note_on_c, 0, 30, 0
2, 44758, Note_on_c, 0, 26, 127
2, 44779, Note_on_c, 0, 26, 0
2, 44787, Note_on_c, 0, 28, 127
2, 44813, Note_on_c, 0, 28, 0
2, 44854, Note_on_c, 0, 30, 127
2, 44922, Note_on_c, 0, 30, 0
2, 45048, Note_on_c, 0, 33, 127
2, 45093, Note_on_c, 0, 33, 0
2, 45118, Note_on_c, 0, 32, 127
2, 45206, Note_on_c, 0, 32, 0
2, 45254, Note_on_c, 0, 37, 127
2, 45343, Note_on_c, 0, 37, 0
2, 45386, Note_on_c, 0, 30, 127
2, 45466, Note_on_c, 0, 30, 0
2, 45821, Note_on_c, 0, 26, 127
2, 45849, Note_on_c, 0, 26, 0
2, 45850, Note_on_c, 0, 28, 127
2, 45878, Note_on_c, 0, 28, 0
2, 45920, Note_on_c, 0, 30, 127
2, 45994, Note_on_c, 0, 30, 0
2, 46385, Note_on_c, 0, 28, 127
2, 46413, Note_on_c, 0, 28, 0
2, 46453, Note_on_c, 0, 30, 127
2, 46529, Note_on_c, 0, 30, 0
2, 46890, Note_on_c, 0, 26, 127
2, 46911, Note_on_c, 0, 26, 0
2, 46913, Note_on_c, 0, 28, 127
2, 46940, Note_on_c, 0, 28, 0
2, 46980, Note_on_c, 0, 30, 127
2, 47063, Note_on_c, 0, 30, 0
2, 47184, Note_on_c, 0, 33, 127
2, 47225, Note_on_c, 0, 33, 0
2, 47252, Note_on_c, 0, 32, 127
2, 47335, Note_on_c, 0, 32, 0
2, 47384, Note_on_c, 0, 37, 127
2, 47476, Note_on_c, 0, 37, 0
2, 47515, Note_on_c, 0, 30, 127
2, 47595, Note_on_c, 0, 30, 0
2, 47959, Note_on_c, 0, 26, 127
2, 47982, Note_on_c, 0, 26, 0
2, 47983, Note_on_c, 0, 28, 127
2, 48011, Note_on_c, 0, 28, 0
2, 48052, Note_on_c, 0, 30, 127
2, 48140, Note_on_c, 0, 30, 0
2, 48515, Note_on_c, 0, 28, 127
2, 48548, Note_on_c, 0, 28, 0
2, 48587, Note_on_c, 0, 30, 127
2, 48666, Note_on_c, 0, 30, 0
2, 49011, Note_on_c, 0, 26, 127
2, 49032, Note_on_c, 0, 26, 0
2, 49037, Note_on_c, 0, 28, 127
2, 49062, Note_on_c, 0, 28, 0
2, 49108, Note_on_c, 0, 30, 127
2, 49190, Note_on_c, 0, 30, 0
2, 49307, Note_on_c, 0, 33, 127
2, 49345, Note_on_c, 0, 33, 0
2, 49376, Note_on_c, 0, 32, 127
2, 49457, Note_on_c, 0, 32, 0
2, 49513, Note_on_c, 0, 37, 127
2, 49591, Note_on_c, 0, 37, 0
2, 49660, Note_on_c, 0, 30, 127
2, 49717, Note_on_c, 0, 30, 0
2, 50082, Note_on_c, 0, 26, 127
2, 50107, Note_on_c, 0, 26, 0
2, 50110, Note_on_c, 0, 28, 127
2, 50129, Note_on_c, 0, 28, 0
2, 50170, Note_on_c, 0, 30, 127
2, 50244, Note_on_c, 0, 30, 0
2, 50636, Note_on_c, 0, 28, 127
2, 50674, Note_on_c, 0, 28, 0
2, 50710, Note_on_c, 0, 30, 127
2, 50789, Note_on_c, 0, 30, 0
2, 51141, Note_on_c, 0, 26, 127
2, 51168, Note_on_c, 0, 26, 0
2, 51170, Note_on_c, 0, 28, 127
2, 51197, Note_on_c, 0, 28, 0
2, 51241, Note_on_c, 0, 30, 127
2, 51319, Note_on_c, 0, 30, 0
2, 51440, Note_on_c, 0, 33, 127
2, 51485, Note_on_c, 0, 33, 0
2, 51511, Note_on_c, 0, 32, 127
2, 51596, Note_on_c, 0, 32, 0
2, 51642, Note_on_c, 0, 37, 127
2, 51732, Note_on_c, 0, 37, 0
2, 51778, Note_on_c, 0, 30, 127
2, 51845, Note_on_c, 0, 30, 0
2, 52217, Note_on_c, 0, 26, 127
2, 52218, Note_on_c, 0, 24, 127
2, 52238, Note_on_c, 0, 24, 0
2, 52242, Note_on_c, 0, 28, 127
2, 52243, Note_on_c, 0, 26, 0
2, 52270, Note_on_c, 0, 28, 0
2, 52310, Note_on_c, 0, 30, 127
2, 52368, Note_on_c, 0, 30, 0
2, 52779, Note_on_c, 0, 28, 127
2, 52821, Note_on_c, 0, 28, 0
2, 52846, Note_on_c, 0, 30, 127
2, 52908, Note_on_c, 0, 30, 0
2, 53280, Note_on_c, 0, 26, 127
2, 53307, Note_on_c, 0, 28, 127
2, 53308, Note_on_c, 0, 26, 0
2, 53335, Note_on_c, 0, 28, 0
2, 53375, Note_on_c, 0, 30, 127
2, 53445, Note_on_c, 0, 30, 0
2, 53574, Note_on_c, 0, 33, 127
2, 53619, Note_on_c, 0, 33, 0
2, 53649, Note_on_c, 0, 32, 127
2, 53734, Note_on_c, 0, 32, 0
2, 53778, Note_on_c, 0, 37, 127
2, 53866, Note_on_c, 0, 37, 0
2, 53910, Note_on_c, 0, 30, 127
2, 53986, Note_on_c, 0, 30, 0
2, 54001, Control_c, 0, 7, 126
2, 54016, Control_c, 0, 7, 125
2, 54040, Control_c, 0, 7, 124
2, 54048, Control_c, 0, 7, 122
2, 54066, Control_c, 0, 7, 120
2, 54081, Control_c, 0, 7, 119
2, 54101, Control_c, 0, 7, 118
2, 54137, Control_c, 0, 7, 117
2, 54171, Control_c, 0, 7, 115
2, 54186, Control_c, 0, 7, 113
2, 54219, Control_c, 0, 7, 112
2, 54308, Control_c, 0, 7, 111
2, 54346, Note_on_c, 0, 26, 127
2, 54368, Note_on_c, 0, 26, 0
2, 54374, Note_on_c, 0, 28, 127
2, 54397, Note_on_c, 0, 28, 0
2, 54397, Control_c, 0, 7, 110
2, 54442, Note_on_c, 0, 30, 127
2, 54446, Control_c, 0, 7, 108
2, 54520, Note_on_c, 0, 30, 0
2, 54532, Control_c, 0, 7, 106
2, 54599, Control_c, 0, 7, 105
2, 54656, Control_c, 0, 7, 103
2, 54717, Control_c, 0, 7, 101
2, 54746, Control_c, 0, 7, 100
2, 54808, Control_c, 0, 7, 99
2, 54861, Control_c, 0, 7, 98
2, 54888, Note_on_c, 0, 26, 127
2, 54908, Note_on_c, 0, 26, 0
2, 54911, Control_c, 0, 7, 96
2, 54937, Control_c, 0, 7, 94
2, 54956, Control_c, 0, 7, 93
2, 54978, Note_on_c, 0, 30, 127
2, 55024, Control_c, 0, 7, 92
2, 55040, Note_on_c, 0, 30, 0
2, 55064, Control_c, 0, 7, 91
2, 55137, Control_c, 0, 7, 89
2, 55172, Control_c, 0, 7, 87
2, 55228, Control_c, 0, 7, 86
2, 55260, Control_c, 0, 7, 85
2, 55329, Control_c, 0, 7, 84
2, 55396, Control_c, 0, 7, 82
2, 55410, Note_on_c, 0, 26, 127
2, 55425, Control_c, 0, 7, 80
2, 55434, Note_on_c, 0, 26, 0
2, 55438, Note_on_c, 0, 28, 127
2, 55461, Control_c, 0, 7, 79
2, 55466, Note_on_c, 0, 28, 0
2, 55496, Control_c, 0, 7, 78
2, 55510, Note_on_c, 0, 30, 127
2, 55525, Control_c, 0, 7, 77
2, 55552, Control_c, 0, 7, 75
2, 55571, Note_on_c, 0, 30, 0
2, 55581, Control_c, 0, 7, 73
2, 55643, Control_c, 0, 7, 72
2, 55656, Control_c, 0, 7, 71
2, 55684, Control_c, 0, 7, 70
2, 55705, Note_on_c, 0, 33, 127
2, 55736, Control_c, 0, 7, 68
2, 55747, Note_on_c, 0, 33, 0
2, 55767, Control_c, 0, 7, 66
2, 55778, Note_on_c, 0, 32, 127
2, 55784, Control_c, 0, 7, 65
2, 55791, Control_c, 0, 7, 64
2, 55796, Control_c, 0, 7, 63
2, 55824, Control_c, 0, 7, 61
2, 55858, Note_on_c, 0, 32, 0
2, 55905, Control_c, 0, 7, 60
2, 55910, Note_on_c, 0, 37, 127
2, 55964, Control_c, 0, 7, 59
2, 56000, Note_on_c, 0, 37, 0
2, 56045, Note_on_c, 0, 30, 127
2, 56067, Control_c, 0, 7, 58
2, 56122, Control_c, 0, 7, 56
2, 56126, Note_on_c, 0, 30, 0
2, 56150, Control_c, 0, 7, 54
2, 56183, Control_c, 0, 7, 53
2, 56223, Control_c, 0, 7, 52
2, 56236, Control_c, 0, 7, 51
2, 56259, Control_c, 0, 7, 49
2, 56291, Control_c, 0, 7, 47
2, 56334, Control_c, 0, 7, 46
2, 56405, Control_c, 0, 7, 45
2, 56415, Control_c, 0, 7, 44
2, 56480, Control_c, 0, 7, 42
2, 56487, Note_on_c, 0, 26, 127
2, 56507, Note_on_c, 0, 26, 0
2, 56511, Control_c, 0, 7, 40
2, 56511, Note_on_c, 0, 28, 127
2, 56534, Note_on_c, 0, 28, 0
2, 56551, Control_c, 0, 7, 39
2, 56577, Control_c, 0, 7, 38
2, 56577, Note_on_c, 0, 30, 127
2, 56602, Control_c, 0, 7, 37
2, 56641, Note_on_c, 0, 30, 0
2, 56647, Control_c, 0, 7, 35
2, 56672, Control_c, 0, 7, 33
2, 56692, Control_c, 0, 7, 32
2, 56742, Control_c, 0, 7, 31
2, 56761, Control_c, 0, 7, 30
2, 56819, Control_c, 0, 7, 28
2, 56829, Control_c, 0, 7, 26
2, 56840, Control_c, 0, 7, 25
2, 56877, Control_c, 0, 7, 24
2, 56921, Control_c, 0, 7, 23
2, 56939, Control_c, 0, 7, 21
2, 57042, Note_on_c, 0, 28, 127
2, 57056, Control_c, 0, 7, 20
2, 57072, Note_on_c, 0, 28, 0
2, 57077, Control_c, 0, 7, 19
2, 57112, Note_on_c, 0, 30, 127
2, 57174, Note_on_c, 0, 30, 0
2, 57200, Control_c, 0, 7, 18
2, 57200, End_track
3, 0, Start_track
3, 0, MIDI_port, 0
3, 0, Title_t, "Drums"
3, 180, Control_c, 9, 7, 28
3, 185, Control_c, 9, 7, 29
3, 205, Control_c, 9, 7, 31
3, 210, Control_c, 9, 7, 38
3, 215, Control_c, 9, 7, 75
3, 220, Control_c, 9, 7, 127
3, 1125, Note_on_c, 9, 70, 78
3, 1125, Note_on_c, 9, 81, 85
3, 1125, Note_on_c, 9, 68, 76
3, 1140, Note_on_c, 9, 70, 0
3, 1171, Pitch_bend_c, 9, 8328
3, 1171, Pitch_bend_c, 9, 8328
3, 1172, Pitch_bend_c, 9, 8465
3, 1173, Pitch_bend_c, 9, 8465
3, 1175, Pitch_bend_c, 9, 8738
3, 1176, Pitch_bend_c, 9, 8738
3, 1178, Pitch_bend_c, 9, 9284
3, 1178, Pitch_bend_c, 9, 9284
3, 1180, Pitch_bend_c, 9, 9558
3, 1180, Pitch_bend_c, 9, 9558
3, 1182, Pitch_bend_c, 9, 9830
3, 1182, Pitch_bend_c, 9, 9830
3, 1183, Pitch_bend_c, 9, 9967
3, 1183, Pitch_bend_c, 9, 9967
3, 1187, Pitch_bend_c, 9, 10240
3, 1187, Pitch_bend_c, 9, 10240
3, 1192, Note_on_c, 9, 70, 41
3, 1192, Pitch_bend_c, 9, 10353
3, 1192, Pitch_bend_c, 9, 10353
3, 1197, Pitch_bend_c, 9, 10695
3, 1197, Pitch_bend_c, 9, 10695
3, 1200, Pitch_bend_c, 9, 10809
3, 1200, Pitch_bend_c, 9, 10809
3, 1202, Pitch_bend_c, 9, 10923
3, 1202, Pitch_bend_c, 9, 10923
3, 1204, Pitch_bend_c, 9, 11059
3, 1205, Pitch_bend_c, 9, 11059
3, 1206, Note_on_c, 9, 70, 0
3, 1207, Pitch_bend_c, 9, 11196
3, 1207, Pitch_bend_c, 9, 11196
3, 1209, Pitch_bend_c, 9, 11332
3, 1209, Pitch_bend_c, 9, 11332
3, 1212, Pitch_bend_c, 9, 11606
3, 1212, Pitch_bend_c, 9, 11606
3, 1214, Pitch_bend_c, 9, 11878
3, 1214, Pitch_bend_c, 9, 11878
3, 1216, Pitch_bend_c, 9, 12015
3, 1216, Pitch_bend_c, 9, 12015
3, 1220, Pitch_bend_c, 9, 12424
3, 1220, Pitch_bend_c, 9, 12424
3, 1224, Pitch_bend_c, 9, 12561
3, 1224, Pitch_bend_c, 9, 12561
3, 1228, Pitch_bend_c, 9, 12697
3, 1228, Pitch_bend_c, 9, 12697
3, 1254, Note_on_c, 9, 40, 100
3, 1255, Note_on_c, 9, 44, 100
3, 1258, Note_on_c, 9, 70, 45
3, 1268, Note_on_c, 9, 44, 0
3, 1269, Note_on_c, 9, 40, 0
3, 1269, Pitch_bend_c, 9, 12971
3, 1270, Pitch_bend_c, 9, 12971
3, 1271, Note_on_c, 9, 70, 0
3, 1320, Note_on_c, 9, 70, 49
3, 1324, Note_on_c, 9, 44, 100
3, 1336, Note_on_c, 9, 70, 0
3, 1338, Note_on_c, 9, 44, 0
3, 1385, Note_on_c, 9, 70, 53
3, 1394, Pitch_bend_c, 9, 13084
3, 1394, Pitch_bend_c, 9, 13084
3, 1402, Note_on_c, 9, 70, 0
3, 1424, Pitch_bend_c, 9, 12971
3, 1424, Pitch_bend_c, 9, 12971
3, 1427, Pitch_bend_c, 9, 12697
3, 1427, Pitch_bend_c, 9, 12697
3, 1431, Pitch_bend_c, 9, 12424
3, 1431, Pitch_bend_c, 9, 12424
3, 1436, Pitch_bend_c, 9, 12151
3, 1436, Pitch_bend_c, 9, 12151
3, 1439, Pitch_bend_c, 9, 12015
3, 1439, Pitch_bend_c, 9, 12015
3, 1440, Pitch_bend_c, 9, 11878
3, 1441, Pitch_bend_c, 9, 11878
3, 1444, Pitch_bend_c, 9, 11606
3, 1444, Pitch_bend_c, 9, 11606
3, 1446, Pitch_bend_c, 9, 11469
3, 1447, Pitch_bend_c, 9, 11469
3, 1449, Pitch_bend_c, 9, 11332
3, 1449, Pitch_bend_c, 9, 11332
3, 1452, Pitch_bend_c, 9, 11196
3, 1452, Pitch_bend_c, 9, 11196
3, 1453, Note_on_c, 9, 70, 55
3, 1456, Pitch_bend_c, 9, 10923
3, 1456, Pitch_bend_c, 9, 10923
3, 1458, Pitch_bend_c, 9, 10809
3, 1458, Pitch_bend_c, 9, 10809
3, 1461, Pitch_bend_c, 9, 10695
3, 1461, Pitch_bend_c, 9, 10695
3, 1464, Pitch_bend_c, 9, 10581
3, 1464, Pitch_bend_c, 9, 10581
3, 1467, Pitch_bend_c, 9, 10353
3, 1467, Pitch_bend_c, 9, 10353
3, 1469, Pitch_bend_c, 9, 10240
3, 1470, Note_on_c, 9, 70, 0
3, 1470, Pitch_bend_c, 9, 10240
3, 1472, Pitch_bend_c, 9, 9830
3, 1473, Pitch_bend_c, 9, 9830
3, 1475, Pitch_bend_c, 9, 9558
3, 1475, Pitch_bend_c, 9, 9558
3, 1476, Pitch_bend_c, 9, 9284
3, 1477, Pitch_bend_c, 9, 9284
3, 1478, Pitch_bend_c, 9, 9011
3, 1479, Pitch_bend_c, 9, 9011
3, 1480, Pitch_bend_c, 9, 8738
3, 1481, Pitch_bend_c, 9, 8738
3, 1483, Pitch_bend_c, 9, 8465
3, 1483, Pitch_bend_c, 9, 8465
3, 1486, Pitch_bend_c, 9, 8328
3, 1486, Pitch_bend_c, 9, 8328
3, 1487, Pitch_bend_c, 9, 8192
3, 1487, Pitch_bend_c, 9, 8192
3, 1507, Note_on_c, 9, 68, 0
3, 1509, Note_on_c, 9, 81, 0
3, 1518, Note_on_c, 9, 70, 80
3, 1527, Note_on_c, 9, 40, 100
3, 1527, Note_on_c, 9, 44, 100
3, 1536, Note_on_c, 9, 70, 0
3, 1543, Note_on_c, 9, 44, 0
3, 1544, Note_on_c, 9, 40, 0
3, 1566, Note_on_c, 9, 69, 45
3, 1582, Note_on_c, 9, 69, 0
3, 1587, Note_on_c, 9, 70, 69
3, 1592, Note_on_c, 9, 44, 100
3, 1605, Note_on_c, 9, 70, 0
3, 1608, Note_on_c, 9, 44, 0
3, 1633, Note_on_c, 9, 69, 44
3, 1644, Note_on_c, 9, 69, 0
3, 1657, Note_on_c, 9, 70, 90
3, 1672, Note_on_c, 9, 70, 0
3, 1719, Note_on_c, 9, 44, 127
3, 1722, Note_on_c, 9, 70, 77
3, 1732, Note_on_c, 9, 44, 0
3, 1739, Note_on_c, 9, 70, 0
3, 1789, Note_on_c, 9, 70, 80
3, 1791, Note_on_c, 9, 40, 100
3, 1792, Note_on_c, 9, 44, 100
3, 1806, Note_on_c, 9, 70, 0
3, 1807, Note_on_c, 9, 44, 0
3, 1807, Note_on_c, 9, 40, 0
3, 1834, Note_on_c, 9, 69, 59
3, 1847, Note_on_c, 9, 69, 0
3, 1857, Note_on_c, 9, 70, 90
3, 1858, Note_on_c, 9, 44, 100
3, 1872, Note_on_c, 9, 70, 0
3, 1876, Note_on_c, 9, 44, 0
3, 1924, Note_on_c, 9, 70, 73
3, 1940, Note_on_c, 9, 70, 0
3, 1987, Note_on_c, 9, 44, 127
3, 1992, Note_on_c, 9, 70, 74
3, 2001, Note_on_c, 9, 44, 0
3, 2006, Note_on_c, 9, 70, 0
3, 2057, Note_on_c, 9, 70, 78
3, 2059, Note_on_c, 9, 40, 100
3, 2059, Note_on_c, 9, 44, 100
3, 2075, Note_on_c, 9, 70, 0
3, 2077, Note_on_c, 9, 44, 0
3, 2078, Note_on_c, 9, 40, 0
3, 2105, Note_on_c, 9, 69, 55
3, 2120, Note_on_c, 9, 69, 0
3, 2120, Note_on_c, 9, 44, 100
3, 2125, Note_on_c, 9, 35, 100
3, 2125, Note_on_c, 9, 70, 80
3, 2138, Note_on_c, 9, 44, 0
3, 2141, Note_on_c, 9, 70, 0
3, 2142, Note_on_c, 9, 35, 0
3, 2169, Note_on_c, 9, 69, 48
3, 2181, Note_on_c, 9, 69, 0
3, 2191, Note_on_c, 9, 70, 82
3, 2194, Note_on_c, 9, 35, 100
3, 2208, Note_on_c, 9, 70, 0
3, 2210, Note_on_c, 9, 35, 0
3, 2254, Note_on_c, 9, 44, 127
3, 2255, Note_on_c, 9, 70, 74
3, 2268, Note_on_c, 9, 44, 0
3, 2271, Note_on_c, 9, 70, 0
3, 2321, Note_on_c, 9, 70, 82
3, 2327, Note_on_c, 9, 40, 100
3, 2328, Note_on_c, 9, 44, 100
3, 2338, Note_on_c, 9, 70, 0
3, 2344, Note_on_c, 9, 44, 0
3, 2344, Note_on_c, 9, 40, 0
3, 2367, Note_on_c, 9, 69, 60
3, 2381, Note_on_c, 9, 69, 0
3, 2390, Note_on_c, 9, 44, 100
3, 2391, Note_on_c, 9, 70, 100
3, 2405, Note_on_c, 9, 70, 0
3, 2407, Note_on_c, 9, 44, 0
3, 2456, Note_on_c, 9, 70, 85
3, 2470, Note_on_c, 9, 70, 0
3, 2518, Note_on_c, 9, 44, 127
3, 2521, Note_on_c, 9, 70, 69
3, 2530, Note_on_c, 9, 44, 0
3, 2534, Note_on_c, 9, 70, 0
3, 2586, Note_on_c, 9, 70, 94
3, 2589, Note_on_c, 9, 40, 100
3, 2590, Note_on_c, 9, 44, 100
3, 2603, Note_on_c, 9, 70, 0
3, 2607, Note_on_c, 9, 44, 0
3, 2608, Note_on_c, 9, 40, 0
3, 2633, Note_on_c, 9, 69, 57
3, 2648, Note_on_c, 9, 69, 0
3, 2650, Note_on_c, 9, 44, 100
3, 2652, Note_on_c, 9, 35, 100
3, 2654, Note_on_c, 9, 70, 87
3, 2669, Note_on_c, 9, 70, 0
3, 2670, Note_on_c, 9, 35, 0
3, 2670, Note_on_c, 9, 44, 0
3, 2703, Note_on_c, 9, 69, 50
3, 2714, Note_on_c, 9, 69, 0
3, 2722, Note_on_c, 9, 35, 100
3, 2723, Note_on_c, 9, 70, 85
3, 2740, Note_on_c, 9, 70, 0
3, 2741, Note_on_c, 9, 35, 0
3, 2787, Note_on_c, 9, 70, 74
3, 2789, Note_on_c, 9, 44, 127
3, 2801, Note_on_c, 9, 44, 0
3, 2802, Note_on_c, 9, 70, 0
3, 2853, Note_on_c, 9, 70, 72
3, 2855, Note_on_c, 9, 40, 100
3, 2856, Note_on_c, 9, 44, 100
3, 2868, Note_on_c, 9, 70, 0
3, 2871, Note_on_c, 9, 44, 0
3, 2871, Note_on_c, 9, 40, 0
3, 2897, Note_on_c, 9, 69, 56
3, 2914, Note_on_c, 9, 69, 0
3, 2919, Note_on_c, 9, 44, 100
3, 2921, Note_on_c, 9, 70, 78
3, 2934, Note_on_c, 9, 70, 0
3, 2937, Note_on_c, 9, 44, 0
3, 2985, Note_on_c, 9, 70, 67
3, 3000, Note_on_c, 9, 70, 0
3, 3051, Note_on_c, 9, 44, 127
3, 3054, Note_on_c, 9, 70, 67
3, 3065, Note_on_c, 9, 44, 0
3, 3068, Note_on_c, 9, 70, 0
3, 3119, Note_on_c, 9, 70, 80
3, 3123, Note_on_c, 9, 40, 100
3, 3124, Note_on_c, 9, 44, 100
3, 3136, Note_on_c, 9, 70, 0
3, 3140, Note_on_c, 9, 40, 0
3, 3141, Note_on_c, 9, 44, 0
3, 3163, Note_on_c, 9, 69, 56
3, 3179, Note_on_c, 9, 69, 0
3, 3184, Note_on_c, 9, 44, 100
3, 3187, Note_on_c, 9, 70, 80
3, 3188, Note_on_c, 9, 35, 100
3, 3200, Note_on_c, 9, 70, 0
3, 3201, Note_on_c, 9, 44, 0
3, 3204, Note_on_c, 9, 35, 0
3, 3226, Note_on_c, 9, 69, 52
3, 3241, Note_on_c, 9, 69, 0
3, 3251, Note_on_c, 9, 70, 82
3, 3255, Note_on_c, 9, 35, 100
3, 3267, Note_on_c, 9, 70, 0
3, 3271, Note_on_c, 9, 35, 0
3, 3318, Note_on_c, 9, 70, 77
3, 3318, Note_on_c, 9, 44, 127
3, 3333, Note_on_c, 9, 44, 0
3, 3334, Note_on_c, 9, 70, 0
3, 3386, Note_on_c, 9, 40, 100
3, 3386, Note_on_c, 9, 70, 78
3, 3387, Note_on_c, 9, 44, 100
3, 3403, Note_on_c, 9, 70, 0
3, 3403, Note_on_c, 9, 40, 0
3, 3404, Note_on_c, 9, 44, 0
3, 3429, Note_on_c, 9, 69, 60
3, 3443, Note_on_c, 9, 69, 0
3, 3452, Note_on_c, 9, 70, 97
3, 3453, Note_on_c, 9, 44, 100
3, 3468, Note_on_c, 9, 70, 0
3, 3471, Note_on_c, 9, 44, 0
3, 3520, Note_on_c, 9, 70, 74
3, 3534, Note_on_c, 9, 70, 0
3, 3585, Note_on_c, 9, 44, 127
3, 3586, Note_on_c, 9, 70, 73
3, 3597, Note_on_c, 9, 44, 0
3, 3600, Note_on_c, 9, 70, 0
3, 3653, Note_on_c, 9, 70, 74
3, 3654, Note_on_c, 9, 40, 100
3, 3654, Note_on_c, 9, 44, 100
3, 3670, Note_on_c, 9, 70, 0
3, 3671, Note_on_c, 9, 40, 0
3, 3672, Note_on_c, 9, 44, 0
3, 3696, Note_on_c, 9, 69, 48
3, 3713, Note_on_c, 9, 69, 0
3, 3717, Note_on_c, 9, 35, 100
3, 3717, Note_on_c, 9, 44, 100
3, 3721, Note_on_c, 9, 70, 74
3, 3735, Note_on_c, 9, 35, 0
3, 3736, Note_on_c, 9, 70, 0
3, 3738, Note_on_c, 9, 44, 0
3, 3762, Note_on_c, 9, 69, 50
3, 3777, Note_on_c, 9, 69, 0
3, 3784, Note_on_c, 9, 35, 100
3, 3785, Note_on_c, 9, 70, 78
3, 3799, Note_on_c, 9, 70, 0
3, 3801, Note_on_c, 9, 35, 0
3, 3848, Note_on_c, 9, 70, 70
3, 3853, Note_on_c, 9, 44, 127
3, 3865, Note_on_c, 9, 70, 0
3, 3868, Note_on_c, 9, 44, 0
3, 3916, Note_on_c, 9, 70, 76
3, 3918, Note_on_c, 9, 40, 100
3, 3918, Note_on_c, 9, 44, 100
3, 3931, Note_on_c, 9, 70, 0
3, 3934, Note_on_c, 9, 44, 0
3, 3936, Note_on_c, 9, 40, 0
3, 3958, Note_on_c, 9, 69, 47
3, 3978, Note_on_c, 9, 69, 0
3, 3982, Note_on_c, 9, 44, 100
3, 3982, Note_on_c, 9, 70, 87
3, 3996, Note_on_c, 9, 70, 0
3, 4001, Note_on_c, 9, 44, 0
3, 4048, Note_on_c, 9, 70, 76
3, 4064, Note_on_c, 9, 70, 0
3, 4115, Note_on_c, 9, 70, 64
3, 4115, Note_on_c, 9, 44, 127
3, 4130, Note_on_c, 9, 44, 0
3, 4131, Note_on_c, 9, 70, 0
3, 4181, Note_on_c, 9, 70, 73
3, 4187, Note_on_c, 9, 40, 100
3, 4187, Note_on_c, 9, 44, 100
3, 4200, Note_on_c, 9, 70, 0
3, 4204, Note_on_c, 9, 44, 0
3, 4205, Note_on_c, 9, 40, 0
3, 4224, Note_on_c, 9, 69, 52
3, 4240, Note_on_c, 9, 69, 0
3, 4249, Note_on_c, 9, 44, 100
3, 4250, Note_on_c, 9, 70, 70
3, 4252, Note_on_c, 9, 35, 100
3, 4266, Note_on_c, 9, 70, 0
3, 4267, Note_on_c, 9, 44, 0
3, 4270, Note_on_c, 9, 35, 0
3, 4292, Note_on_c, 9, 69, 51
3, 4306, Note_on_c, 9, 69, 0
3, 4317, Note_on_c, 9, 70, 69
3, 4320, Note_on_c, 9, 35, 100
3, 4333, Note_on_c, 9, 70, 0
3, 4338, Note_on_c, 9, 35, 0
3, 4383, Note_on_c, 9, 70, 64
3, 4385, Note_on_c, 9, 44, 127
3, 4398, Note_on_c, 9, 70, 0
3, 4400, Note_on_c, 9, 44, 0
3, 4450, Note_on_c, 9, 70, 76
3, 4454, Note_on_c, 9, 40, 100
3, 4454, Note_on_c, 9, 44, 100
3, 4466, Note_on_c, 9, 70, 0
3, 4470, Note_on_c, 9, 40, 0
3, 4471, Note_on_c, 9, 44, 0
3, 4494, Note_on_c, 9, 69, 53
3, 4511, Note_on_c, 9, 69, 0
3, 4514, Note_on_c, 9, 44, 100
3, 4517, Note_on_c, 9, 70, 78
3, 4531, Note_on_c, 9, 70, 0
3, 4532, Note_on_c, 9, 44, 0
3, 4582, Note_on_c, 9, 70, 76
3, 4598, Note_on_c, 9, 70, 0
3, 4650, Note_on_c, 9, 70, 67
3, 4652, Note_on_c, 9, 44, 127
3, 4663, Note_on_c, 9, 44, 0
3, 4665, Note_on_c, 9, 70, 0
3, 4718, Note_on_c, 9, 40, 100
3, 4719, Note_on_c, 9, 44, 100
3, 4719, Note_on_c, 9, 70, 76
3, 4734, Note_on_c, 9, 70, 0
3, 4736, Note_on_c, 9, 40, 0
3, 4737, Note_on_c, 9, 44, 0
3, 4763, Note_on_c, 9, 69, 53
3, 4779, Note_on_c, 9, 69, 0
3, 4780, Note_on_c, 9, 44, 100
3, 4784, Note_on_c, 9, 35, 100
3, 4786, Note_on_c, 9, 70, 76
3, 4799, Note_on_c, 9, 44, 0
3, 4800, Note_on_c, 9, 35, 0
3, 4801, Note_on_c, 9, 70, 0
3, 4851, Note_on_c, 9, 35, 100
3, 4853, Note_on_c, 9, 70, 76
3, 4868, Note_on_c, 9, 70, 0
3, 4869, Note_on_c, 9, 35, 0
3, 4919, Note_on_c, 9, 70, 72
3, 4919, Note_on_c, 9, 44, 127
3, 4932, Note_on_c, 9, 44, 0
3, 4933, Note_on_c, 9, 70, 0
3, 4984, Note_on_c, 9, 40, 100
3, 4985, Note_on_c, 9, 44, 100
3, 4987, Note_on_c, 9, 70, 77
3, 5000, Note_on_c, 9, 40, 0
3, 5001, Note_on_c, 9, 44, 0
3, 5003, Note_on_c, 9, 70, 0
3, 5028, Note_on_c, 9, 69, 56
3, 5044, Note_on_c, 9, 69, 0
3, 5050, Note_on_c, 9, 44, 100
3, 5052, Note_on_c, 9, 70, 87
3, 5065, Note_on_c, 9, 70, 0
3, 5066, Note_on_c, 9, 44, 0
3, 5118, Note_on_c, 9, 70, 77
3, 5132, Note_on_c, 9, 70, 0
3, 5183, Note_on_c, 9, 70, 69
3, 5184, Note_on_c, 9, 44, 127
3, 5197, Note_on_c, 9, 70, 0
3, 5198, Note_on_c, 9, 44, 0
3, 5247, Note_on_c, 9, 70, 78
3, 5250, Note_on_c, 9, 40, 100
3, 5252, Note_on_c, 9, 44, 100
3, 5264, Note_on_c, 9, 70, 0
3, 5267, Note_on_c, 9, 40, 0
3, 5268, Note_on_c, 9, 44, 0
3, 5294, Note_on_c, 9, 69, 49
3, 5307, Note_on_c, 9, 69, 0
3, 5315, Note_on_c, 9, 44, 100
3, 5317, Note_on_c, 9, 70, 82
3, 5318, Note_on_c, 9, 35, 100
3, 5331, Note_on_c, 9, 70, 0
3, 5333, Note_on_c, 9, 35, 0
3, 5333, Note_on_c, 9, 44, 0
3, 5355, Note_on_c, 9, 69, 56
3, 5368, Note_on_c, 9, 69, 0
3, 5382, Note_on_c, 9, 35, 100
3, 5383, Note_on_c, 9, 70, 90
3, 5398, Note_on_c, 9, 70, 0
3, 5399, Note_on_c, 9, 35, 0
3, 5446, Note_on_c, 9, 70, 69
3, 5448, Note_on_c, 9, 44, 127
3, 5462, Note_on_c, 9, 44, 0
3, 5462, Note_on_c, 9, 70, 0
3, 5512, Note_on_c, 9, 70, 67
3, 5518, Note_on_c, 9, 40, 100
3, 5518, Note_on_c, 9, 44, 100
3, 5529, Note_on_c, 9, 70, 0
3, 5534, Note_on_c, 9, 44, 0
3, 5534, Note_on_c, 9, 40, 0
3, 5556, Note_on_c, 9, 69, 61
3, 5569, Note_on_c, 9, 69, 0
3, 5582, Note_on_c, 9, 70, 84
3, 5584, Note_on_c, 9, 44, 100
3, 5596, Note_on_c, 9, 70, 0
3, 5602, Note_on_c, 9, 44, 0
3, 5649, Note_on_c, 9, 70, 74
3, 5663, Note_on_c, 9, 70, 0
3, 5710, Note_on_c, 9, 44, 127
3, 5717, Note_on_c, 9, 70, 69
3, 5725, Note_on_c, 9, 44, 0
3, 5731, Note_on_c, 9, 70, 0
3, 5783, Note_on_c, 9, 70, 74
3, 5789, Note_on_c, 9, 40, 100
3, 5790, Note_on_c, 9, 44, 100
3, 5799, Note_on_c, 9, 70, 0
3, 5808, Note_on_c, 9, 44, 0
3, 5808, Note_on_c, 9, 40, 0
3, 5828, Note_on_c, 9, 69, 52
3, 5846, Note_on_c, 9, 69, 0
3, 5850, Note_on_c, 9, 70, 65
3, 5851, Note_on_c, 9, 44, 100
3, 5852, Note_on_c, 9, 35, 100
3, 5867, Note_on_c, 9, 70, 0
3, 5868, Note_on_c, 9, 35, 0
3, 5868, Note_on_c, 9, 44, 0
3, 5893, Note_on_c, 9, 69, 51
3, 5907, Note_on_c, 9, 69, 0
3, 5918, Note_on_c, 9, 35, 100
3, 5920, Note_on_c, 9, 70, 74
3, 5935, Note_on_c, 9, 70, 0
3, 5936, Note_on_c, 9, 35, 0
3, 5983, Note_on_c, 9, 70, 69
3, 5986, Note_on_c, 9, 44, 127
3, 5997, Note_on_c, 9, 70, 0
3, 6001, Note_on_c, 9, 44, 0
3, 6049, Note_on_c, 9, 70, 74
3, 6050, Note_on_c, 9, 40, 100
3, 6051, Note_on_c, 9, 44, 100
3, 6066, Note_on_c, 9, 40, 0
3, 6066, Note_on_c, 9, 70, 0
3, 6067, Note_on_c, 9, 44, 0
3, 6092, Note_on_c, 9, 69, 57
3, 6106, Note_on_c, 9, 69, 0
3, 6117, Note_on_c, 9, 44, 100
3, 6118, Note_on_c, 9, 70, 78
3, 6131, Note_on_c, 9, 70, 0
3, 6135, Note_on_c, 9, 44, 0
3, 6183, Note_on_c, 9, 70, 76
3, 6199, Note_on_c, 9, 70, 0
3, 6247, Note_on_c, 9, 70, 74
3, 6247, Note_on_c, 9, 44, 127
3, 6262, Note_on_c, 9, 44, 0
3, 6263, Note_on_c, 9, 70, 0
3, 6314, Note_on_c, 9, 70, 80
3, 6324, Note_on_c, 9, 40, 100
3, 6325, Note_on_c, 9, 44, 100
3, 6332, Note_on_c, 9, 70, 0
3, 6343, Note_on_c, 9, 44, 0
3, 6343, Note_on_c, 9, 40, 0
3, 6359, Note_on_c, 9, 69, 54
3, 6375, Note_on_c, 9, 69, 0
3, 6384, Note_on_c, 9, 70, 72
3, 6386, Note_on_c, 9, 44, 100
3, 6388, Note_on_c, 9, 35, 100
3, 6399, Note_on_c, 9, 70, 0
3, 6403, Note_on_c, 9, 44, 0
3, 6406, Note_on_c, 9, 35, 0
3, 6427, Note_on_c, 9, 69, 49
3, 6443, Note_on_c, 9, 69, 0
3, 6451, Note_on_c, 9, 70, 80
3, 6454, Note_on_c, 9, 35, 100
3, 6465, Note_on_c, 9, 70, 0
3, 6474, Note_on_c, 9, 35, 0
3, 6518, Note_on_c, 9, 70, 56
3, 6520, Note_on_c, 9, 44, 127
3, 6528, Note_on_c, 9, 70, 0
3, 6533, Note_on_c, 9, 44, 0
3, 6579, Note_on_c, 9, 70, 77
3, 6587, Note_on_c, 9, 40, 100
3, 6587, Note_on_c, 9, 44, 100
3, 6595, Note_on_c, 9, 70, 0
3, 6604, Note_on_c, 9, 44, 0
3, 6604, Note_on_c, 9, 40, 0
3, 6626, Note_on_c, 9, 69, 49
3, 6641, Note_on_c, 9, 69, 0
3, 6650, Note_on_c, 9, 70, 90
3, 6652, Note_on_c, 9, 44, 100
3, 6663, Note_on_c, 9, 70, 0
3, 6669, Note_on_c, 9, 44, 0
3, 6715, Note_on_c, 9, 70, 76
3, 6730, Note_on_c, 9, 70, 0
3, 6780, Note_on_c, 9, 70, 69
3, 6787, Note_on_c, 9, 44, 127
3, 6794, Note_on_c, 9, 70, 0
3, 6799, Note_on_c, 9, 44, 0
3, 6845, Note_on_c, 9, 70, 85
3, 6858, Note_on_c, 9, 40, 100
3, 6858, Note_on_c, 9, 44, 100
3, 6862, Note_on_c, 9, 70, 0
3, 6876, Note_on_c, 9, 44, 0
3, 6876, Note_on_c, 9, 40, 0
3, 6891, Note_on_c, 9, 69, 55
3, 6910, Note_on_c, 9, 69, 0
3, 6914, Note_on_c, 9, 70, 80
3, 6922, Note_on_c, 9, 44, 100
3, 6923, Note_on_c, 9, 35, 100
3, 6929, Note_on_c, 9, 70, 0
3, 6939, Note_on_c, 9, 35, 0
3, 6940, Note_on_c, 9, 44, 0
3, 6955, Note_on_c, 9, 69, 51
3, 6968, Note_on_c, 9, 69, 0
3, 6982, Note_on_c, 9, 70, 87
3, 6988, Note_on_c, 9, 35, 100
3, 6998, Note_on_c, 9, 70, 0
3, 7006, Note_on_c, 9, 35, 0
3, 7051, Note_on_c, 9, 70, 67
3, 7054, Note_on_c, 9, 44, 127
3, 7066, Note_on_c, 9, 70, 0
3, 7069, Note_on_c, 9, 44, 0
3, 7121, Note_on_c, 9, 70, 77
3, 7122, Note_on_c, 9, 44, 100
3, 7122, Note_on_c, 9, 40, 100
3, 7136, Note_on_c, 9, 70, 0
3, 7138, Note_on_c, 9, 44, 0
3, 7139, Note_on_c, 9, 40, 0
3, 7167, Note_on_c, 9, 69, 56
3, 7181, Note_on_c, 9, 69, 0
3, 7186, Note_on_c, 9, 44, 100
3, 7189, Note_on_c, 9, 70, 85
3, 7204, Note_on_c, 9, 70, 0
3, 7205, Note_on_c, 9, 44, 0
3, 7257, Note_on_c, 9, 70, 72
3, 7270, Note_on_c, 9, 70, 0
3, 7321, Note_on_c, 9, 44, 127
3, 7322, Note_on_c, 9, 70, 70
3, 7330, Note_on_c, 9, 44, 0
3, 7336, Note_on_c, 9, 70, 0
3, 7388, Note_on_c, 9, 70, 78
3, 7396, Note_on_c, 9, 40, 100
3, 7396, Note_on_c, 9, 44, 100
3, 7405, Note_on_c, 9, 70, 0
3, 7414, Note_on_c, 9, 44, 0
3, 7414, Note_on_c, 9, 40, 0
3, 7437, Note_on_c, 9, 69, 48
3, 7451, Note_on_c, 9, 69, 0
3, 7458, Note_on_c, 9, 35, 100
3, 7458, Note_on_c, 9, 44, 100
3, 7458, Note_on_c, 9, 70, 77
3, 7473, Note_on_c, 9, 70, 0
3, 7475, Note_on_c, 9, 35, 0
3, 7476, Note_on_c, 9, 44, 0
3, 7502, Note_on_c, 9, 69, 46
3, 7513, Note_on_c, 9, 69, 0
3, 7524, Note_on_c, 9, 35, 100
3, 7526, Note_on_c, 9, 70, 84
3, 7541, Note_on_c, 9, 70, 0
3, 7543, Note_on_c, 9, 35, 0
3, 7589, Note_on_c, 9, 44, 127
3, 7591, Note_on_c, 9, 70, 77
3, 7600, Note_on_c, 9, 44, 0
3, 7606, Note_on_c, 9, 70, 0
3, 7655, Note_on_c, 9, 70, 70
3, 7658, Note_on_c, 9, 40, 100
3, 7659, Note_on_c, 9, 44, 100
3, 7671, Note_on_c, 9, 70, 0
3, 7676, Note_on_c, 9, 44, 0
3, 7676, Note_on_c, 9, 40, 0
3, 7701, Note_on_c, 9, 69, 44
3, 7719, Note_on_c, 9, 69, 0
3, 7719, Note_on_c, 9, 44, 100
3, 7724, Note_on_c, 9, 70, 87
3, 7738, Note_on_c, 9, 70, 0
3, 7738, Note_on_c, 9, 44, 0
3, 7792, Note_on_c, 9, 70, 72
3, 7807, Note_on_c, 9, 70, 0
3, 7858, Note_on_c, 9, 70, 69
3, 7859, Note_on_c, 9, 44, 127
3, 7873, Note_on_c, 9, 44, 0
3, 7874, Note_on_c, 9, 70, 0
3, 7924, Note_on_c, 9, 70, 70
3, 7928, Note_on_c, 9, 40, 100
3, 7930, Note_on_c, 9, 44, 100
3, 7940, Note_on_c, 9, 70, 0
3, 7947, Note_on_c, 9, 44, 0
3, 7947, Note_on_c, 9, 40, 0
3, 7969, Note_on_c, 9, 69, 54
3, 7987, Note_on_c, 9, 69, 0
3, 7988, Note_on_c, 9, 44, 100
3, 7992, Note_on_c, 9, 35, 100
3, 7994, Note_on_c, 9, 70, 77
3, 8007, Note_on_c, 9, 44, 0
3, 8008, Note_on_c, 9, 70, 0
3, 8009, Note_on_c, 9, 35, 0
3, 8033, Note_on_c, 9, 69, 51
3, 8048, Note_on_c, 9, 69, 0
3, 8060, Note_on_c, 9, 35, 100
3, 8060, Note_on_c, 9, 70, 80
3, 8075, Note_on_c, 9, 70, 0
3, 8078, Note_on_c, 9, 35, 0
3, 8125, Note_on_c, 9, 70, 77
3, 8127, Note_on_c, 9, 44, 127
3, 8141, Note_on_c, 9, 70, 0
3, 8143, Note_on_c, 9, 44, 0
3, 8191, Note_on_c, 9, 70, 82
3, 8192, Note_on_c, 9, 40, 100
3, 8192, Note_on_c, 9, 44, 100
3, 8208, Note_on_c, 9, 40, 0
3, 8209, Note_on_c, 9, 44, 0
3, 8209, Note_on_c, 9, 70, 0
3, 8233, Note_on_c, 9, 69, 54
3, 8251, Note_on_c, 9, 69, 0
3, 8253, Note_on_c, 9, 44, 100
3, 8260, Note_on_c, 9, 70, 87
3, 8273, Note_on_c, 9, 44, 0
3, 8276, Note_on_c, 9, 70, 0
3, 8326, Note_on_c, 9, 70, 76
3, 8342, Note_on_c, 9, 70, 0
3, 8389, Note_on_c, 9, 44, 127
3, 8391, Note_on_c, 9, 70, 73
3, 8404, Note_on_c, 9, 44, 0
3, 8406, Note_on_c, 9, 70, 0
3, 8456, Note_on_c, 9, 70, 85
3, 8465, Note_on_c, 9, 40, 100
3, 8465, Note_on_c, 9, 44, 100
3, 8473, Note_on_c, 9, 70, 0
3, 8482, Note_on_c, 9, 40, 0
3, 8484, Note_on_c, 9, 44, 0
3, 8504, Note_on_c, 9, 69, 42
3, 8518, Note_on_c, 9, 69, 0
3, 8522, Note_on_c, 9, 44, 100
3, 8526, Note_on_c, 9, 70, 78
3, 8527, Note_on_c, 9, 35, 100
3, 8540, Note_on_c, 9, 70, 0
3, 8541, Note_on_c, 9, 44, 0
3, 8545, Note_on_c, 9, 35, 0
3, 8568, Note_on_c, 9, 69, 55
3, 8582, Note_on_c, 9, 69, 0
3, 8592, Note_on_c, 9, 70, 97
3, 8594, Note_on_c, 9, 35, 100
3, 8606, Note_on_c, 9, 70, 0
3, 8611, Note_on_c, 9, 35, 0
3, 8656, Note_on_c, 9, 44, 127
3, 8658, Note_on_c, 9, 70, 76
3, 8670, Note_on_c, 9, 44, 0
3, 8672, Note_on_c, 9, 70, 0
3, 8722, Note_on_c, 9, 40, 100
3, 8722, Note_on_c, 9, 44, 100
3, 8726, Note_on_c, 9, 70, 77
3, 8739, Note_on_c, 9, 40, 0
3, 8741, Note_on_c, 9, 44, 0
3, 8742, Note_on_c, 9, 70, 0
3, 8764, Note_on_c, 9, 69, 59
3, 8782, Note_on_c, 9, 69, 0
3, 8786, Note_on_c, 9, 44, 100
3, 8791, Note_on_c, 9, 70, 87
3, 8806, Note_on_c, 9, 70, 0
3, 8806, Note_on_c, 9, 44, 0
3, 8858, Note_on_c, 9, 70, 77
3, 8871, Note_on_c, 9, 70, 0
3, 8920, Note_on_c, 9, 44, 127
3, 8921, Note_on_c, 9, 70, 66
3, 8934, Note_on_c, 9, 44, 0
3, 8936, Note_on_c, 9, 70, 0
3, 8989, Note_on_c, 9, 70, 78
3, 8990, Note_on_c, 9, 40, 100
3, 8990, Note_on_c, 9, 44, 100
3, 9004, Note_on_c, 9, 70, 0
3, 9008, Note_on_c, 9, 44, 0
3, 9008, Note_on_c, 9, 40, 0
3, 9030, Note_on_c, 9, 69, 53
3, 9048, Note_on_c, 9, 69, 0
3, 9054, Note_on_c, 9, 35, 100
3, 9056, Note_on_c, 9, 44, 100
3, 9057, Note_on_c, 9, 70, 74
3, 9071, Note_on_c, 9, 35, 0
3, 9073, Note_on_c, 9, 70, 0
3, 9076, Note_on_c, 9, 44, 0
3, 9095, Note_on_c, 9, 69, 57
3, 9109, Note_on_c, 9, 69, 0
3, 9120, Note_on_c, 9, 70, 73
3, 9122, Note_on_c, 9, 35, 100
3, 9138, Note_on_c, 9, 70, 0
3, 9139, Note_on_c, 9, 35, 0
3, 9187, Note_on_c, 9, 70, 70
3, 9188, Note_on_c, 9, 44, 127
3, 9202, Note_on_c, 9, 44, 0
3, 9202, Note_on_c, 9, 70, 0
3, 9254, Note_on_c, 9, 40, 100
3, 9254, Note_on_c, 9, 44, 100
3, 9255, Note_on_c, 9, 70, 74
3, 9270, Note_on_c, 9, 70, 0
3, 9270, Note_on_c, 9, 40, 0
3, 9272, Note_on_c, 9, 44, 0
3, 9295, Note_on_c, 9, 69, 45
3, 9315, Note_on_c, 9, 69, 0
3, 9320, Note_on_c, 9, 44, 100
3, 9321, Note_on_c, 9, 70, 80
3, 9335, Note_on_c, 9, 70, 0
3, 9340, Note_on_c, 9, 44, 0
3, 9387, Note_on_c, 9, 70, 66
3, 9403, Note_on_c, 9, 70, 0
3, 9453, Note_on_c, 9, 70, 67
3, 9454, Note_on_c, 9, 44, 127
3, 9468, Note_on_c, 9, 44, 0
3, 9469, Note_on_c, 9, 70, 0
3, 9520, Note_on_c, 9, 70, 80
3, 9524, Note_on_c, 9, 40, 100
3, 9525, Note_on_c, 9, 44, 100
3, 9538, Note_on_c, 9, 70, 0
3, 9543, Note_on_c, 9, 44, 0
3, 9543, Note_on_c, 9, 40, 0
3, 9566, Note_on_c, 9, 69, 56
3, 9582, Note_on_c, 9, 69, 0
3, 9587, Note_on_c, 9, 44, 100
3, 9588, Note_on_c, 9, 35, 100
3, 9588, Note_on_c, 9, 70, 73
3, 9603, Note_on_c, 9, 70, 0
3, 9605, Note_on_c, 9, 35, 0
3, 9607, Note_on_c, 9, 44, 0
3, 9629, Note_on_c, 9, 69, 57
3, 9643, Note_on_c, 9, 69, 0
3, 9653, Note_on_c, 9, 35, 100
3, 9654, Note_on_c, 9, 70, 76
3, 9670, Note_on_c, 9, 70, 0
3, 9670, Note_on_c, 9, 35, 0
3, 9720, Note_on_c, 9, 70, 74
3, 9720, Note_on_c, 9, 44, 127
3, 9733, Note_on_c, 9, 44, 0
3, 9735, Note_on_c, 9, 70, 0
3, 9786, Note_on_c, 9, 44, 100
3, 9786, Note_on_c, 9, 40, 100
3, 9788, Note_on_c, 9, 70, 76
3, 9800, Note_on_c, 9, 40, 0
3, 9802, Note_on_c, 9, 44, 0
3, 9805, Note_on_c, 9, 70, 0
3, 9829, Note_on_c, 9, 69, 62
3, 9846, Note_on_c, 9, 69, 0
3, 9851, Note_on_c, 9, 44, 100
3, 9856, Note_on_c, 9, 70, 90
3, 9870, Note_on_c, 9, 44, 0
3, 9871, Note_on_c, 9, 70, 0
3, 9922, Note_on_c, 9, 70, 72
3, 9937, Note_on_c, 9, 70, 0
3, 9985, Note_on_c, 9, 44, 127
3, 9989, Note_on_c, 9, 70, 74
3, 10000, Note_on_c, 9, 44, 0
3, 10004, Note_on_c, 9, 70, 0
3, 10052, Note_on_c, 9, 70, 82
3, 10058, Note_on_c, 9, 40, 100
3, 10058, Note_on_c, 9, 44, 100
3, 10068, Note_on_c, 9, 70, 0
3, 10075, Note_on_c, 9, 44, 0
3, 10075, Note_on_c, 9, 40, 0
3, 10095, Note_on_c, 9, 69, 49
3, 10111, Note_on_c, 9, 69, 0
3, 10119, Note_on_c, 9, 70, 84
3, 10122, Note_on_c, 9, 35, 100
3, 10122, Note_on_c, 9, 44, 100
3, 10134, Note_on_c, 9, 70, 0
3, 10138, Note_on_c, 9, 35, 0
3, 10140, Note_on_c, 9, 44, 0
3, 10160, Note_on_c, 9, 69, 52
3, 10174, Note_on_c, 9, 69, 0
3, 10185, Note_on_c, 9, 70, 90
3, 10187, Note_on_c, 9, 35, 100
3, 10201, Note_on_c, 9, 70, 0
3, 10206, Note_on_c, 9, 35, 0
3, 10250, Note_on_c, 9, 70, 72
3, 10252, Note_on_c, 9, 44, 127
3, 10264, Note_on_c, 9, 70, 0
3, 10266, Note_on_c, 9, 44, 0
3, 10318, Note_on_c, 9, 70, 78
3, 10321, Note_on_c, 9, 40, 100
3, 10322, Note_on_c, 9, 44, 100
3, 10333, Note_on_c, 9, 70, 0
3, 10338, Note_on_c, 9, 44, 0
3, 10338, Note_on_c, 9, 40, 0
3, 10359, Note_on_c, 9, 69, 58
3, 10373, Note_on_c, 9, 69, 0
3, 10386, Note_on_c, 9, 70, 94
3, 10387, Note_on_c, 9, 44, 100
3, 10400, Note_on_c, 9, 70, 0
3, 10407, Note_on_c, 9, 44, 0
3, 10454, Note_on_c, 9, 70, 74
3, 10468, Note_on_c, 9, 70, 0
3, 10521, Note_on_c, 9, 70, 72
3, 10521, Note_on_c, 9, 44, 127
3, 10535, Note_on_c, 9, 44, 0
3, 10536, Note_on_c, 9, 70, 0
3, 10586, Note_on_c, 9, 70, 82
3, 10589, Note_on_c, 9, 40, 100
3, 10591, Note_on_c, 9, 44, 100
3, 10602, Note_on_c, 9, 70, 0
3, 10606, Note_on_c, 9, 40, 0
3, 10608, Note_on_c, 9, 44, 0
3, 10636, Note_on_c, 9, 69, 45
3, 10649, Note_on_c, 9, 44, 100
3, 10653, Note_on_c, 9, 69, 0
3, 10655, Note_on_c, 9, 70, 74
3, 10658, Note_on_c, 9, 35, 100
3, 10669, Note_on_c, 9, 44, 0
3, 10670, Note_on_c, 9, 70, 0
3, 10674, Note_on_c, 9, 35, 0
3, 10693, Note_on_c, 9, 69, 56
3, 10708, Note_on_c, 9, 69, 0
3, 10723, Note_on_c, 9, 35, 100
3, 10723, Note_on_c, 9, 70, 84
3, 10738, Note_on_c, 9, 70, 0
3, 10742, Note_on_c, 9, 35, 0
3, 10786, Note_on_c, 9, 70, 73
3, 10788, Note_on_c, 9, 44, 127
3, 10801, Note_on_c, 9, 44, 0
3, 10801, Note_on_c, 9, 70, 0
3, 10851, Note_on_c, 9, 70, 77
3, 10854, Note_on_c, 9, 44, 100
3, 10855, Note_on_c, 9, 40, 100
3, 10868, Note_on_c, 9, 70, 0
3, 10870, Note_on_c, 9, 40, 0
3, 10872, Note_on_c, 9, 44, 0
3, 10896, Note_on_c, 9, 69, 53
3, 10910, Note_on_c, 9, 69, 0
3, 10919, Note_on_c, 9, 70, 85
3, 10924, Note_on_c, 9, 44, 100
3, 10934, Note_on_c, 9, 70, 0
3, 10944, Note_on_c, 9, 44, 0
3, 10984, Note_on_c, 9, 70, 80
3, 10999, Note_on_c, 9, 70, 0
3, 11048, Note_on_c, 9, 44, 127
3, 11052, Note_on_c, 9, 70, 76
3, 11061, Note_on_c, 9, 44, 0
3, 11066, Note_on_c, 9, 70, 0
3, 11118, Note_on_c, 9, 70, 92
3, 11122, Note_on_c, 9, 40, 100
3, 11122, Note_on_c, 9, 44, 100
3, 11134, Note_on_c, 9, 70, 0
3, 11139, Note_on_c, 9, 40, 0
3, 11140, Note_on_c, 9, 44, 0
3, 11160, Note_on_c, 9, 69, 59
3, 11177, Note_on_c, 9, 69, 0
3, 11184, Note_on_c, 9, 70, 87
3, 11186, Note_on_c, 9, 35, 100
3, 11186, Note_on_c, 9, 44, 100
3, 11200, Note_on_c, 9, 70, 0
3, 11204, Note_on_c, 9, 35, 0
3, 11211, Note_on_c, 9, 44, 0
3, 11225, Note_on_c, 9, 69, 49
3, 11238, Note_on_c, 9, 69, 0
3, 11251, Note_on_c, 9, 70, 78
3, 11253, Note_on_c, 9, 35, 100
3, 11266, Note_on_c, 9, 70, 0
3, 11273, Note_on_c, 9, 35, 0
3, 11315, Note_on_c, 9, 70, 72
3, 11322, Note_on_c, 9, 44, 127
3, 11330, Note_on_c, 9, 70, 0
3, 11334, Note_on_c, 9, 44, 0
3, 11384, Note_on_c, 9, 70, 74
3, 11387, Note_on_c, 9, 40, 100
3, 11387, Note_on_c, 9, 44, 100
3, 11399, Note_on_c, 9, 70, 0
3, 11404, Note_on_c, 9, 44, 0
3, 11404, Note_on_c, 9, 40, 0
3, 11425, Note_on_c, 9, 69, 51
3, 11441, Note_on_c, 9, 69, 0
3, 11452, Note_on_c, 9, 44, 100
3, 11452, Note_on_c, 9, 70, 85
3, 11468, Note_on_c, 9, 70, 0
3, 11470, Note_on_c, 9, 44, 0
3, 11518, Note_on_c, 9, 70, 76
3, 11533, Note_on_c, 9, 70, 0
3, 11578, Note_on_c, 9, 44, 127
3, 11586, Note_on_c, 9, 70, 77
3, 11591, Note_on_c, 9, 44, 0
3, 11602, Note_on_c, 9, 70, 0
3, 11652, Note_on_c, 9, 70, 82
3, 11656, Note_on_c, 9, 40, 100
3, 11657, Note_on_c, 9, 44, 100
3, 11667, Note_on_c, 9, 70, 0
3, 11674, Note_on_c, 9, 40, 0
3, 11676, Note_on_c, 9, 44, 0
3, 11699, Note_on_c, 9, 69, 53
3, 11714, Note_on_c, 9, 69, 0
3, 11716, Note_on_c, 9, 35, 100
3, 11716, Note_on_c, 9, 44, 100
3, 11720, Note_on_c, 9, 70, 87
3, 11734, Note_on_c, 9, 35, 0
3, 11735, Note_on_c, 9, 70, 0
3, 11735, Note_on_c, 9, 44, 0
3, 11762, Note_on_c, 9, 69, 39
3, 11772, Note_on_c, 9, 69, 0
3, 11785, Note_on_c, 9, 35, 100
3, 11786, Note_on_c, 9, 70, 90
3, 11800, Note_on_c, 9, 70, 0
3, 11801, Note_on_c, 9, 35, 0
3, 11850, Note_on_c, 9, 70, 69
3, 11854, Note_on_c, 9, 44, 127
3, 11864, Note_on_c, 9, 70, 0
3, 11867, Note_on_c, 9, 44, 0
3, 11918, Note_on_c, 9, 70, 87
3, 11920, Note_on_c, 9, 40, 100
3, 11920, Note_on_c, 9, 44, 100
3, 11934, Note_on_c, 9, 70, 0
3, 11938, Note_on_c, 9, 44, 0
3, 11938, Note_on_c, 9, 40, 0
3, 11958, Note_on_c, 9, 69, 51
3, 11971, Note_on_c, 9, 69, 0
3, 11985, Note_on_c, 9, 70, 103
3, 11986, Note_on_c, 9, 44, 100
3, 11998, Note_on_c, 9, 70, 0
3, 12005, Note_on_c, 9, 44, 0
3, 12054, Note_on_c, 9, 70, 80
3, 12068, Note_on_c, 9, 70, 0
3, 12117, Note_on_c, 9, 44, 127
3, 12118, Note_on_c, 9, 70, 66
3, 12128, Note_on_c, 9, 44, 0
3, 12132, Note_on_c, 9, 70, 0
3, 12186, Note_on_c, 9, 44, 100
3, 12186, Note_on_c, 9, 70, 82
3, 12188, Note_on_c, 9, 40, 100
3, 12200, Note_on_c, 9, 70, 0
3, 12202, Note_on_c, 9, 40, 0
3, 12205, Note_on_c, 9, 44, 0
3, 12226, Note_on_c, 9, 69, 46
3, 12242, Note_on_c, 9, 69, 0
3, 12248, Note_on_c, 9, 44, 100
3, 12249, Note_on_c, 9, 70, 76
3, 12250, Note_on_c, 9, 35, 100
3, 12265, Note_on_c, 9, 70, 0
3, 12267, Note_on_c, 9, 35, 0
3, 12270, Note_on_c, 9, 44, 0
3, 12291, Note_on_c, 9, 69, 53
3, 12306, Note_on_c, 9, 69, 0
3, 12314, Note_on_c, 9, 35, 100
3, 12314, Note_on_c, 9, 70, 84
3, 12332, Note_on_c, 9, 70, 0
3, 12332, Note_on_c, 9, 35, 0
3, 12379, Note_on_c, 9, 70, 65
3, 12386, Note_on_c, 9, 44, 127
3, 12396, Note_on_c, 9, 70, 0
3, 12399, Note_on_c, 9, 44, 0
3, 12444, Note_on_c, 9, 70, 77
3, 12450, Note_on_c, 9, 44, 100
3, 12450, Note_on_c, 9, 40, 100
3, 12463, Note_on_c, 9, 70, 0
3, 12465, Note_on_c, 9, 40, 0
3, 12467, Note_on_c, 9, 44, 0
3, 12483, Note_on_c, 9, 69, 50
3, 12500, Note_on_c, 9, 69, 0
3, 12510, Note_on_c, 9, 70, 80
3, 12518, Note_on_c, 9, 44, 100
3, 12527, Note_on_c, 9, 70, 0
3, 12536, Note_on_c, 9, 44, 0
3, 12577, Note_on_c, 9, 70, 72
3, 12595, Note_on_c, 9, 70, 0
3, 12646, Note_on_c, 9, 70, 72
3, 12648, Note_on_c, 9, 44, 127
3, 12661, Note_on_c, 9, 44, 0
3, 12664, Note_on_c, 9, 70, 0
3, 12713, Note_on_c, 9, 40, 100
3, 12713, Note_on_c, 9, 44, 100
3, 12713, Note_on_c, 9, 70, 80
3, 12729, Note_on_c, 9, 70, 0
3, 12730, Note_on_c, 9, 40, 0
3, 12731, Note_on_c, 9, 44, 0
3, 12757, Note_on_c, 9, 69, 53
3, 12775, Note_on_c, 9, 69, 0
3, 12777, Note_on_c, 9, 35, 100
3, 12780, Note_on_c, 9, 70, 77
3, 12783, Note_on_c, 9, 44, 100
3, 12794, Note_on_c, 9, 35, 0
3, 12796, Note_on_c, 9, 70, 0
3, 12806, Note_on_c, 9, 44, 0
3, 12824, Note_on_c, 9, 69, 43
3, 12838, Note_on_c, 9, 69, 0
3, 12844, Note_on_c, 9, 35, 100
3, 12846, Note_on_c, 9, 70, 80
3, 12862, Note_on_c, 9, 70, 0
3, 12863, Note_on_c, 9, 35, 0
3, 12908, Note_on_c, 9, 70, 74
3, 12910, Note_on_c, 9, 44, 127
3, 12924, Note_on_c, 9, 44, 0
3, 12924, Note_on_c, 9, 70, 0
3, 12977, Note_on_c, 9, 70, 76
3, 12980, Note_on_c, 9, 44, 100
3, 12981, Note_on_c, 9, 40, 100
3, 12993, Note_on_c, 9, 70, 0
3, 12997, Note_on_c, 9, 40, 0
3, 12999, Note_on_c, 9, 44, 0
3, 13020, Note_on_c, 9, 69, 46
3, 13037, Note_on_c, 9, 69, 0
3, 13044, Note_on_c, 9, 70, 78
3, 13045, Note_on_c, 9, 44, 100
3, 13060, Note_on_c, 9, 70, 0
3, 13066, Note_on_c, 9, 44, 0
3, 13111, Note_on_c, 9, 70, 77
3, 13129, Note_on_c, 9, 70, 0
3, 13181, Note_on_c, 9, 70, 72
3, 13182, Note_on_c, 9, 44, 127
3, 13195, Note_on_c, 9, 44, 0
3, 13197, Note_on_c, 9, 70, 0
3, 13247, Note_on_c, 9, 70, 82
3, 13250, Note_on_c, 9, 40, 100
3, 13251, Note_on_c, 9, 44, 100
3, 13263, Note_on_c, 9, 70, 0
3, 13267, Note_on_c, 9, 40, 0
3, 13268, Note_on_c, 9, 44, 0
3, 13292, Note_on_c, 9, 69, 46
3, 13309, Note_on_c, 9, 69, 0
3, 13316, Note_on_c, 9, 35, 100
3, 13316, Note_on_c, 9, 70, 76
3, 13320, Note_on_c, 9, 44, 100
3, 13330, Note_on_c, 9, 70, 0
3, 13333, Note_on_c, 9, 35, 0
3, 13336, Note_on_c, 9, 44, 0
3, 13358, Note_on_c, 9, 69, 49
3, 13373, Note_on_c, 9, 69, 0
3, 13382, Note_on_c, 9, 35, 100
3, 13383, Note_on_c, 9, 70, 84
3, 13399, Note_on_c, 9, 70, 0
3, 13401, Note_on_c, 9, 35, 0
3, 13448, Note_on_c, 9, 70, 73
3, 13452, Note_on_c, 9, 44, 127
3, 13464, Note_on_c, 9, 70, 0
3, 13465, Note_on_c, 9, 44, 0
3, 13513, Note_on_c, 9, 70, 85
3, 13516, Note_on_c, 9, 40, 100
3, 13517, Note_on_c, 9, 44, 100
3, 13530, Note_on_c, 9, 70, 0
3, 13533, Note_on_c, 9, 40, 0
3, 13536, Note_on_c, 9, 44, 0
3, 13582, Note_on_c, 9, 70, 66
3, 13589, Note_on_c, 9, 44, 100
3, 13596, Note_on_c, 9, 70, 0
3, 13609, Note_on_c, 9, 44, 0
3, 13629, Note_on_c, 9, 69, 44
3, 13642, Note_on_c, 9, 69, 0
3, 13651, Note_on_c, 9, 70, 85
3, 13668, Note_on_c, 9, 70, 0
3, 13718, Note_on_c, 9, 70, 84
3, 13719, Note_on_c, 9, 44, 127
3, 13732, Note_on_c, 9, 44, 0
3, 13734, Note_on_c, 9, 70, 0
3, 13780, Note_on_c, 9, 40, 100
3, 13781, Note_on_c, 9, 44, 100
3, 13784, Note_on_c, 9, 70, 97
3, 13797, Note_on_c, 9, 40, 0
3, 13798, Note_on_c, 9, 44, 0
3, 13800, Note_on_c, 9, 70, 0
3, 13826, Note_on_c, 9, 69, 56
3, 13841, Note_on_c, 9, 44, 100
3, 13844, Note_on_c, 9, 69, 0
3, 13846, Note_on_c, 9, 35, 100
3, 13850, Note_on_c, 9, 70, 90
3, 13860, Note_on_c, 9, 44, 0
3, 13862, Note_on_c, 9, 35, 0
3, 13864, Note_on_c, 9, 70, 0
3, 13888, Note_on_c, 9, 69, 57
3, 13903, Note_on_c, 9, 69, 0
3, 13912, Note_on_c, 9, 35, 100
3, 13915, Note_on_c, 9, 70, 90
3, 13930, Note_on_c, 9, 70, 0
3, 13930, Note_on_c, 9, 35, 0
3, 13977, Note_on_c, 9, 70, 77
3, 13983, Note_on_c, 9, 44, 127
3, 13992, Note_on_c, 9, 70, 0
3, 13996, Note_on_c, 9, 44, 0
3, 14042, Note_on_c, 9, 70, 80
3, 14050, Note_on_c, 9, 44, 100
3, 14051, Note_on_c, 9, 40, 100
3, 14059, Note_on_c, 9, 70, 0
3, 14066, Note_on_c, 9, 40, 0
3, 14067, Note_on_c, 9, 44, 0
3, 14105, Note_on_c, 9, 70, 69
3, 14116, Note_on_c, 9, 44, 100
3, 14121, Note_on_c, 9, 70, 0
3, 14134, Note_on_c, 9, 44, 0
3, 14152, Note_on_c, 9, 69, 52
3, 14169, Note_on_c, 9, 69, 0
3, 14176, Note_on_c, 9, 70, 84
3, 14193, Note_on_c, 9, 70, 0
3, 14243, Note_on_c, 9, 70, 78
3, 14245, Note_on_c, 9, 44, 127
3, 14259, Note_on_c, 9, 44, 0
3, 14260, Note_on_c, 9, 70, 0
3, 14309, Note_on_c, 9, 70, 87
3, 14320, Note_on_c, 9, 44, 100
3, 14320, Note_on_c, 9, 40, 100
3, 14326, Note_on_c, 9, 70, 0
3, 14337, Note_on_c, 9, 40, 0
3, 14339, Note_on_c, 9, 44, 0
3, 14357, Note_on_c, 9, 69, 48
3, 14376, Note_on_c, 9, 69, 0
3, 14379, Note_on_c, 9, 70, 77
3, 14382, Note_on_c, 9, 35, 100
3, 14384, Note_on_c, 9, 44, 100
3, 14394, Note_on_c, 9, 70, 0
3, 14399, Note_on_c, 9, 35, 0
3, 14403, Note_on_c, 9, 44, 0
3, 14421, Note_on_c, 9, 69, 53
3, 14436, Note_on_c, 9, 69, 0
3, 14449, Note_on_c, 9, 35, 100
3, 14449, Note_on_c, 9, 70, 90
3, 14464, Note_on_c, 9, 70, 0
3, 14468, Note_on_c, 9, 35, 0
3, 14513, Note_on_c, 9, 70, 70
3, 14515, Note_on_c, 9, 44, 127
3, 14529, Note_on_c, 9, 44, 0
3, 14530, Note_on_c, 9, 70, 0
3, 14581, Note_on_c, 9, 70, 82
3, 14585, Note_on_c, 9, 40, 100
3, 14585, Note_on_c, 9, 44, 100
3, 14599, Note_on_c, 9, 70, 0
3, 14602, Note_on_c, 9, 44, 0
3, 14602, Note_on_c, 9, 40, 0
3, 14647, Note_on_c, 9, 44, 100
3, 14648, Note_on_c, 9, 70, 63
3, 14663, Note_on_c, 9, 70, 0
3, 14666, Note_on_c, 9, 44, 0
3, 14695, Note_on_c, 9, 69, 53
3, 14711, Note_on_c, 9, 69, 0
3, 14717, Note_on_c, 9, 70, 90
3, 14732, Note_on_c, 9, 70, 0
3, 14782, Note_on_c, 9, 70, 76
3, 14783, Note_on_c, 9, 44, 127
3, 14797, Note_on_c, 9, 44, 0
3, 14798, Note_on_c, 9, 70, 0
3, 14850, Note_on_c, 9, 70, 78
3, 14851, Note_on_c, 9, 44, 100
3, 14853, Note_on_c, 9, 40, 100
3, 14866, Note_on_c, 9, 70, 0
3, 14869, Note_on_c, 9, 40, 0
3, 14871, Note_on_c, 9, 44, 0
3, 14890, Note_on_c, 9, 69, 53
3, 14908, Note_on_c, 9, 69, 0
3, 14912, Note_on_c, 9, 44, 100
3, 14916, Note_on_c, 9, 35, 100
3, 14917, Note_on_c, 9, 70, 82
3, 14931, Note_on_c, 9, 70, 0
3, 14931, Note_on_c, 9, 44, 0
3, 14932, Note_on_c, 9, 35, 0
3, 14956, Note_on_c, 9, 69, 52
3, 14973, Note_on_c, 9, 69, 0
3, 14980, Note_on_c, 9, 35, 100
3, 14983, Note_on_c, 9, 70, 80
3, 14997, Note_on_c, 9, 70, 0
3, 14999, Note_on_c, 9, 35, 0
3, 15046, Note_on_c, 9, 70, 76
3, 15050, Note_on_c, 9, 44, 127
3, 15062, Note_on_c, 9, 70, 0
3, 15065, Note_on_c, 9, 44, 0
3, 15112, Note_on_c, 9, 40, 100
3, 15112, Note_on_c, 9, 70, 74
3, 15113, Note_on_c, 9, 44, 100
3, 15128, Note_on_c, 9, 70, 0
3, 15129, Note_on_c, 9, 40, 0
3, 15131, Note_on_c, 9, 44, 0
3, 15176, Note_on_c, 9, 44, 100
3, 15176, Note_on_c, 9, 70, 69
3, 15193, Note_on_c, 9, 70, 0
3, 15195, Note_on_c, 9, 44, 0
3, 15224, Note_on_c, 9, 69, 50
3, 15240, Note_on_c, 9, 69, 0
3, 15246, Note_on_c, 9, 70, 84
3, 15262, Note_on_c, 9, 70, 0
3, 15314, Note_on_c, 9, 70, 80
3, 15316, Note_on_c, 9, 44, 127
3, 15329, Note_on_c, 9, 44, 0
3, 15329, Note_on_c, 9, 70, 0
3, 15381, Note_on_c, 9, 70, 87
3, 15387, Note_on_c, 9, 40, 100
3, 15388, Note_on_c, 9, 44, 100
3, 15396, Note_on_c, 9, 70, 0
3, 15405, Note_on_c, 9, 44, 0
3, 15405, Note_on_c, 9, 40, 0
3, 15422, Note_on_c, 9, 69, 55
3, 15444, Note_on_c, 9, 69, 0
3, 15449, Note_on_c, 9, 70, 77
3, 15451, Note_on_c, 9, 44, 100
3, 15452, Note_on_c, 9, 35, 100
3, 15463, Note_on_c, 9, 70, 0
3, 15469, Note_on_c, 9, 35, 0
3, 15470, Note_on_c, 9, 44, 0
3, 15489, Note_on_c, 9, 69, 56
3, 15507, Note_on_c, 9, 69, 0
3, 15515, Note_on_c, 9, 35, 100
3, 15516, Note_on_c, 9, 70, 87
3, 15532, Note_on_c, 9, 70, 0
3, 15533, Note_on_c, 9, 35, 0
3, 15583, Note_on_c, 9, 70, 66
3, 15583, Note_on_c, 9, 44, 127
3, 15597, Note_on_c, 9, 44, 0
3, 15597, Note_on_c, 9, 70, 0
3, 15649, Note_on_c, 9, 40, 100
3, 15650, Note_on_c, 9, 44, 100
3, 15650, Note_on_c, 9, 70, 76
3, 15666, Note_on_c, 9, 70, 0
3, 15666, Note_on_c, 9, 40, 0
3, 15667, Note_on_c, 9, 44, 0
3, 15713, Note_on_c, 9, 44, 100
3, 15713, Note_on_c, 9, 70, 66
3, 15730, Note_on_c, 9, 70, 0
3, 15732, Note_on_c, 9, 44, 0
3, 15757, Note_on_c, 9, 69, 62
3, 15774, Note_on_c, 9, 69, 0
3, 15783, Note_on_c, 9, 70, 82
3, 15797, Note_on_c, 9, 70, 0
3, 15848, Note_on_c, 9, 70, 74
3, 15849, Note_on_c, 9, 44, 127
3, 15864, Note_on_c, 9, 70, 0
3, 15865, Note_on_c, 9, 44, 0
3, 15914, Note_on_c, 9, 70, 80
3, 15922, Note_on_c, 9, 44, 100
3, 15922, Note_on_c, 9, 40, 100
3, 15930, Note_on_c, 9, 70, 0
3, 15940, Note_on_c, 9, 40, 0
3, 15941, Note_on_c, 9, 44, 0
3, 15960, Note_on_c, 9, 69, 52
3, 15977, Note_on_c, 9, 69, 0
3, 15982, Note_on_c, 9, 70, 78
3, 15983, Note_on_c, 9, 44, 100
3, 15987, Note_on_c, 9, 35, 100
3, 15997, Note_on_c, 9, 70, 0
3, 16000, Note_on_c, 9, 44, 0
3, 16006, Note_on_c, 9, 35, 0
3, 16024, Note_on_c, 9, 69, 49
3, 16040, Note_on_c, 9, 69, 0
3, 16049, Note_on_c, 9, 70, 82
3, 16054, Note_on_c, 9, 35, 100
3, 16065, Note_on_c, 9, 70, 0
3, 16074, Note_on_c, 9, 35, 0
3, 16118, Note_on_c, 9, 70, 66
3, 16118, Note_on_c, 9, 44, 127
3, 16132, Note_on_c, 9, 44, 0
3, 16132, Note_on_c, 9, 70, 0
3, 16181, Note_on_c, 9, 70, 74
3, 16186, Note_on_c, 9, 40, 100
3, 16186, Note_on_c, 9, 44, 100
3, 16198, Note_on_c, 9, 70, 0
3, 16204, Note_on_c, 9, 44, 0
3, 16204, Note_on_c, 9, 40, 0
3, 16246, Note_on_c, 9, 70, 68
3, 16252, Note_on_c, 9, 44, 100
3, 16262, Note_on_c, 9, 70, 0
3, 16267, Note_on_c, 9, 44, 0
3, 16290, Note_on_c, 9, 69, 55
3, 16306, Note_on_c, 9, 69, 0
3, 16311, Note_on_c, 9, 70, 94
3, 16328, Note_on_c, 9, 70, 0
3, 16380, Note_on_c, 9, 70, 76
3, 16382, Note_on_c, 9, 44, 127
3, 16395, Note_on_c, 9, 44, 0
3, 16397, Note_on_c, 9, 70, 0
3, 16448, Note_on_c, 9, 70, 82
3, 16457, Note_on_c, 9, 40, 100
3, 16457, Note_on_c, 9, 44, 100
3, 16465, Note_on_c, 9, 70, 0
3, 16473, Note_on_c, 9, 40, 0
3, 16475, Note_on_c, 9, 44, 0
3, 16491, Note_on_c, 9, 69, 50
3, 16513, Note_on_c, 9, 69, 0
3, 16517, Note_on_c, 9, 44, 100
3, 16519, Note_on_c, 9, 70, 76
3, 16525, Note_on_c, 9, 35, 100
3, 16532, Note_on_c, 9, 44, 0
3, 16534, Note_on_c, 9, 70, 0
3, 16544, Note_on_c, 9, 35, 0
3, 16560, Note_on_c, 9, 69, 52
3, 16578, Note_on_c, 9, 69, 0
3, 16585, Note_on_c, 9, 70, 80
3, 16589, Note_on_c, 9, 35, 100
3, 16601, Note_on_c, 9, 70, 0
3, 16609, Note_on_c, 9, 35, 0
3, 16654, Note_on_c, 9, 44, 127
3, 16655, Note_on_c, 9, 70, 76
3, 16670, Note_on_c, 9, 44, 0
3, 16672, Note_on_c, 9, 70, 0
3, 16721, Note_on_c, 9, 44, 100
3, 16722, Note_on_c, 9, 40, 100
3, 16722, Note_on_c, 9, 70, 70
3, 16739, Note_on_c, 9, 70, 0
3, 16739, Note_on_c, 9, 40, 0
3, 16741, Note_on_c, 9, 44, 0
3, 16786, Note_on_c, 9, 44, 100
3, 16792, Note_on_c, 9, 70, 70
3, 16801, Note_on_c, 9, 44, 0
3, 16807, Note_on_c, 9, 70, 0
3, 16832, Note_on_c, 9, 69, 55
3, 16849, Note_on_c, 9, 69, 0
3, 16857, Note_on_c, 9, 70, 77
3, 16872, Note_on_c, 9, 70, 0
3, 16918, Note_on_c, 9, 44, 127
3, 16923, Note_on_c, 9, 70, 70
3, 16933, Note_on_c, 9, 44, 0
3, 16941, Note_on_c, 9, 70, 0
3, 16985, Note_on_c, 9, 70, 73
3, 16997, Note_on_c, 9, 40, 100
3, 16998, Note_on_c, 9, 44, 100
3, 17003, Note_on_c, 9, 70, 0
3, 17014, Note_on_c, 9, 44, 0
3, 17014, Note_on_c, 9, 40, 0
3, 17055, Note_on_c, 9, 70, 80
3, 17057, Note_on_c, 9, 44, 100
3, 17061, Note_on_c, 9, 35, 100
3, 17070, Note_on_c, 9, 70, 0
3, 17074, Note_on_c, 9, 44, 0
3, 17081, Note_on_c, 9, 35, 0
3, 17095, Note_on_c, 9, 69, 46
3, 17113, Note_on_c, 9, 69, 0
3, 17122, Note_on_c, 9, 70, 92
3, 17129, Note_on_c, 9, 35, 100
3, 17138, Note_on_c, 9, 70, 0
3, 17149, Note_on_c, 9, 35, 0
3, 17188, Note_on_c, 9, 70, 78
3, 17190, Note_on_c, 9, 44, 127
3, 17204, Note_on_c, 9, 70, 0
3, 17205, Note_on_c, 9, 44, 0
3, 17254, Note_on_c, 9, 70, 78
3, 17260, Note_on_c, 9, 40, 100
3, 17260, Note_on_c, 9, 44, 100
3, 17273, Note_on_c, 9, 70, 0
3, 17276, Note_on_c, 9, 44, 0
3, 17276, Note_on_c, 9, 40, 0
3, 17323, Note_on_c, 9, 70, 60
3, 17324, Note_on_c, 9, 44, 100
3, 17337, Note_on_c, 9, 70, 0
3, 17340, Note_on_c, 9, 44, 0
3, 17366, Note_on_c, 9, 69, 57
3, 17382, Note_on_c, 9, 69, 0
3, 17391, Note_on_c, 9, 70, 87
3, 17407, Note_on_c, 9, 70, 0
3, 17457, Note_on_c, 9, 70, 74
3, 17457, Note_on_c, 9, 44, 127
3, 17472, Note_on_c, 9, 44, 0
3, 17475, Note_on_c, 9, 70, 0
3, 17515, Note_on_c, 9, 40, 100
3, 17515, Note_on_c, 9, 44, 100
3, 17522, Note_on_c, 9, 70, 85
3, 17532, Note_on_c, 9, 44, 0
3, 17532, Note_on_c, 9, 40, 0
3, 17538, Note_on_c, 9, 70, 0
3, 17562, Note_on_c, 9, 69, 57
3, 17578, Note_on_c, 9, 35, 100
3, 17581, Note_on_c, 9, 69, 0
3, 17582, Note_on_c, 9, 44, 100
3, 17587, Note_on_c, 9, 70, 74
3, 17596, Note_on_c, 9, 35, 0
3, 17601, Note_on_c, 9, 70, 0
3, 17601, Note_on_c, 9, 44, 0
3, 17625, Note_on_c, 9, 69, 49
3, 17639, Note_on_c, 9, 69, 0
3, 17646, Note_on_c, 9, 35, 100
3, 17654, Note_on_c, 9, 70, 80
3, 17662, Note_on_c, 9, 35, 0
3, 17670, Note_on_c, 9, 70, 0
3, 17717, Note_on_c, 9, 70, 65
3, 17717, Note_on_c, 9, 44, 127
3, 17732, Note_on_c, 9, 44, 0
3, 17734, Note_on_c, 9, 70, 0
3, 17781, Note_on_c, 9, 44, 100
3, 17781, Note_on_c, 9, 40, 100
3, 17786, Note_on_c, 9, 70, 69
3, 17796, Note_on_c, 9, 40, 0
3, 17797, Note_on_c, 9, 44, 0
3, 17803, Note_on_c, 9, 70, 0
3, 17846, Note_on_c, 9, 44, 100
3, 17850, Note_on_c, 9, 70, 66
3, 17864, Note_on_c, 9, 44, 0
3, 17867, Note_on_c, 9, 70, 0
3, 17890, Note_on_c, 9, 69, 58
3, 17906, Note_on_c, 9, 69, 0
3, 17916, Note_on_c, 9, 70, 76
3, 17931, Note_on_c, 9, 70, 0
3, 17980, Note_on_c, 9, 70, 72
3, 17980, Note_on_c, 9, 44, 127
3, 17994, Note_on_c, 9, 44, 0
3, 17995, Note_on_c, 9, 70, 0
3, 18047, Note_on_c, 9, 70, 78
3, 18050, Note_on_c, 9, 40, 100
3, 18050, Note_on_c, 9, 44, 100
3, 18064, Note_on_c, 9, 70, 0
3, 18067, Note_on_c, 9, 40, 0
3, 18068, Note_on_c, 9, 44, 0
3, 18092, Note_on_c, 9, 69, 50
3, 18108, Note_on_c, 9, 69, 0
3, 18108, Note_on_c, 9, 44, 100
3, 18110, Note_on_c, 9, 35, 100
3, 18114, Note_on_c, 9, 70, 78
3, 18124, Note_on_c, 9, 44, 0
3, 18127, Note_on_c, 9, 35, 0
3, 18130, Note_on_c, 9, 70, 0
3, 18154, Note_on_c, 9, 69, 58
3, 18168, Note_on_c, 9, 69, 0
3, 18179, Note_on_c, 9, 35, 100
3, 18181, Note_on_c, 9, 70, 87
3, 18197, Note_on_c, 9, 70, 0
3, 18197, Note_on_c, 9, 35, 0
3, 18246, Note_on_c, 9, 70, 67
3, 18249, Note_on_c, 9, 44, 127
3, 18261, Note_on_c, 9, 44, 0
3, 18262, Note_on_c, 9, 70, 0
3, 18314, Note_on_c, 9, 44, 100
3, 18314, Note_on_c, 9, 70, 74
3, 18316, Note_on_c, 9, 40, 100
3, 18329, Note_on_c, 9, 70, 0
3, 18330, Note_on_c, 9, 40, 0
3, 18332, Note_on_c, 9, 44, 0
3, 18380, Note_on_c, 9, 70, 69
3, 18381, Note_on_c, 9, 44, 100
3, 18397, Note_on_c, 9, 70, 0
3, 18399, Note_on_c, 9, 44, 0
3, 18425, Note_on_c, 9, 69, 50
3, 18439, Note_on_c, 9, 69, 0
3, 18449, Note_on_c, 9, 70, 72
3, 18464, Note_on_c, 9, 70, 0
3, 18511, Note_on_c, 9, 44, 127
3, 18514, Note_on_c, 9, 70, 69
3, 18525, Note_on_c, 9, 44, 0
3, 18531, Note_on_c, 9, 70, 0
3, 18584, Note_on_c, 9, 70, 69
3, 18592, Note_on_c, 9, 40, 100
3, 18592, Note_on_c, 9, 44, 100
3, 18600, Note_on_c, 9, 70, 0
3, 18609, Note_on_c, 9, 40, 0
3, 18610, Note_on_c, 9, 44, 0
3, 18627, Note_on_c, 9, 69, 43
3, 18646, Note_on_c, 9, 69, 0
3, 18652, Note_on_c, 9, 35, 100
3, 18652, Note_on_c, 9, 44, 100
3, 18653, Note_on_c, 9, 70, 64
3, 18668, Note_on_c, 9, 70, 0
3, 18669, Note_on_c, 9, 35, 0
3, 18671, Note_on_c, 9, 44, 0
3, 18695, Note_on_c, 9, 69, 46
3, 18711, Note_on_c, 9, 69, 0
3, 18721, Note_on_c, 9, 35, 100
3, 18721, Note_on_c, 9, 70, 76
3, 18738, Note_on_c, 9, 70, 0
3, 18741, Note_on_c, 9, 35, 0
3, 18787, Note_on_c, 9, 70, 67
3, 18787, Note_on_c, 9, 44, 127
3, 18803, Note_on_c, 9, 44, 0
3, 18804, Note_on_c, 9, 70, 0
3, 18855, Note_on_c, 9, 70, 73
3, 18856, Note_on_c, 9, 40, 100
3, 18856, Note_on_c, 9, 44, 100
3, 18871, Note_on_c, 9, 40, 0
3, 18872, Note_on_c, 9, 44, 0
3, 18874, Note_on_c, 9, 70, 0
3, 18921, Note_on_c, 9, 44, 100
3, 18924, Note_on_c, 9, 70, 72
3, 18940, Note_on_c, 9, 44, 0
3, 18941, Note_on_c, 9, 70, 0
3, 18968, Note_on_c, 9, 69, 53
3, 18983, Note_on_c, 9, 69, 0
3, 18994, Note_on_c, 9, 70, 76
3, 19008, Note_on_c, 9, 70, 0
3, 19056, Note_on_c, 9, 44, 127
3, 19059, Note_on_c, 9, 70, 67
3, 19072, Note_on_c, 9, 44, 0
3, 19075, Note_on_c, 9, 70, 0
3, 19123, Note_on_c, 9, 70, 78
3, 19128, Note_on_c, 9, 40, 100
3, 19129, Note_on_c, 9, 44, 100
3, 19140, Note_on_c, 9, 70, 0
3, 19144, Note_on_c, 9, 44, 0
3, 19144, Note_on_c, 9, 40, 0
3, 19168, Note_on_c, 9, 69, 49
3, 19187, Note_on_c, 9, 69, 0
3, 19188, Note_on_c, 9, 44, 100
3, 19191, Note_on_c, 9, 70, 72
3, 19194, Note_on_c, 9, 35, 100
3, 19206, Note_on_c, 9, 70, 0
3, 19206, Note_on_c, 9, 44, 0
3, 19210, Note_on_c, 9, 35, 0
3, 19234, Note_on_c, 9, 69, 54
3, 19249, Note_on_c, 9, 69, 0
3, 19256, Note_on_c, 9, 70, 74
3, 19258, Note_on_c, 9, 35, 100
3, 19273, Note_on_c, 9, 70, 0
3, 19276, Note_on_c, 9, 35, 0
3, 19322, Note_on_c, 9, 70, 73
3, 19322, Note_on_c, 9, 44, 127
3, 19338, Note_on_c, 9, 44, 0
3, 19339, Note_on_c, 9, 70, 0
3, 19389, Note_on_c, 9, 70, 62
3, 19392, Note_on_c, 9, 40, 100
3, 19392, Note_on_c, 9, 44, 100
3, 19405, Note_on_c, 9, 70, 0
3, 19408, Note_on_c, 9, 40, 0
3, 19409, Note_on_c, 9, 44, 0
3, 19456, Note_on_c, 9, 44, 100
3, 19456, Note_on_c, 9, 70, 66
3, 19471, Note_on_c, 9, 70, 0
3, 19474, Note_on_c, 9, 44, 0
3, 19499, Note_on_c, 9, 69, 50
3, 19513, Note_on_c, 9, 69, 0
3, 19520, Note_on_c, 9, 70, 80
3, 19537, Note_on_c, 9, 70, 0
3, 19587, Note_on_c, 9, 44, 127
3, 19588, Note_on_c, 9, 70, 77
3, 19603, Note_on_c, 9, 70, 0
3, 19603, Note_on_c, 9, 44, 0
3, 19654, Note_on_c, 9, 40, 100
3, 19654, Note_on_c, 9, 44, 100
3, 19656, Note_on_c, 9, 70, 82
3, 19670, Note_on_c, 9, 40, 0
3, 19671, Note_on_c, 9, 70, 0
3, 19672, Note_on_c, 9, 44, 0
3, 19700, Note_on_c, 9, 69, 46
3, 19717, Note_on_c, 9, 69, 0
3, 19718, Note_on_c, 9, 35, 100
3, 19721, Note_on_c, 9, 70, 77
3, 19722, Note_on_c, 9, 44, 100
3, 19732, Note_on_c, 9, 35, 0
3, 19737, Note_on_c, 9, 70, 0
3, 19739, Note_on_c, 9, 44, 0
3, 19761, Note_on_c, 9, 69, 52
3, 19776, Note_on_c, 9, 69, 0
3, 19787, Note_on_c, 9, 35, 100
3, 19788, Note_on_c, 9, 70, 82
3, 19803, Note_on_c, 9, 35, 0
3, 19804, Note_on_c, 9, 70, 0
3, 19851, Note_on_c, 9, 44, 127
3, 19855, Note_on_c, 9, 70, 72
3, 19869, Note_on_c, 9, 44, 0
3, 19871, Note_on_c, 9, 70, 0
3, 19920, Note_on_c, 9, 44, 100
3, 19921, Note_on_c, 9, 40, 100
3, 19923, Note_on_c, 9, 70, 78
3, 19937, Note_on_c, 9, 40, 0
3, 19938, Note_on_c, 9, 44, 0
3, 19940, Note_on_c, 9, 70, 0
3, 19988, Note_on_c, 9, 70, 73
3, 19989, Note_on_c, 9, 44, 100
3, 20003, Note_on_c, 9, 70, 0
3, 20010, Note_on_c, 9, 44, 0
3, 20030, Note_on_c, 9, 69, 53
3, 20047, Note_on_c, 9, 69, 0
3, 20058, Note_on_c, 9, 70, 77
3, 20072, Note_on_c, 9, 70, 0
3, 20121, Note_on_c, 9, 44, 127
3, 20124, Note_on_c, 9, 70, 70
3, 20135, Note_on_c, 9, 44, 0
3, 20139, Note_on_c, 9, 70, 0
3, 20184, Note_on_c, 9, 40, 100
3, 20184, Note_on_c, 9, 44, 100
3, 20190, Note_on_c, 9, 70, 80
3, 20202, Note_on_c, 9, 44, 0
3, 20202, Note_on_c, 9, 40, 0
3, 20207, Note_on_c, 9, 70, 0
3, 20232, Note_on_c, 9, 69, 59
3, 20249, Note_on_c, 9, 35, 100
3, 20250, Note_on_c, 9, 69, 0
3, 20250, Note_on_c, 9, 44, 100
3, 20255, Note_on_c, 9, 70, 80
3, 20267, Note_on_c, 9, 35, 0
3, 20268, Note_on_c, 9, 44, 0
3, 20271, Note_on_c, 9, 70, 0
3, 20291, Note_on_c, 9, 69, 49
3, 20308, Note_on_c, 9, 69, 0
3, 20316, Note_on_c, 9, 35, 100
3, 20321, Note_on_c, 9, 70, 78
3, 20334, Note_on_c, 9, 35, 0
3, 20338, Note_on_c, 9, 70, 0
3, 20384, Note_on_c, 9, 70, 74
3, 20384, Note_on_c, 9, 44, 127
3, 20400, Note_on_c, 9, 70, 0
3, 20401, Note_on_c, 9, 44, 0
3, 20448, Note_on_c, 9, 40, 100
3, 20448, Note_on_c, 9, 44, 100
3, 20450, Note_on_c, 9, 70, 77
3, 20464, Note_on_c, 9, 40, 0
3, 20465, Note_on_c, 9, 44, 0
3, 20468, Note_on_c, 9, 70, 0
3, 20509, Note_on_c, 9, 44, 100
3, 20516, Note_on_c, 9, 70, 74
3, 20531, Note_on_c, 9, 44, 0
3, 20534, Note_on_c, 9, 70, 0
3, 20556, Note_on_c, 9, 69, 55
3, 20573, Note_on_c, 9, 69, 0
3, 20581, Note_on_c, 9, 70, 77
3, 20597, Note_on_c, 9, 70, 0
3, 20646, Note_on_c, 9, 70, 72
3, 20648, Note_on_c, 9, 44, 127
3, 20662, Note_on_c, 9, 44, 0
3, 20664, Note_on_c, 9, 70, 0
3, 20713, Note_on_c, 9, 70, 78
3, 20716, Note_on_c, 9, 40, 100
3, 20716, Note_on_c, 9, 44, 100
3, 20730, Note_on_c, 9, 70, 0
3, 20734, Note_on_c, 9, 44, 0
3, 20734, Note_on_c, 9, 40, 0
3, 20754, Note_on_c, 9, 69, 56
3, 20774, Note_on_c, 9, 69, 0
3, 20778, Note_on_c, 9, 70, 77
3, 20781, Note_on_c, 9, 35, 100
3, 20782, Note_on_c, 9, 44, 100
3, 20794, Note_on_c, 9, 70, 0
3, 20800, Note_on_c, 9, 35, 0
3, 20802, Note_on_c, 9, 44, 0
3, 20819, Note_on_c, 9, 69, 53
3, 20837, Note_on_c, 9, 69, 0
3, 20846, Note_on_c, 9, 70, 76
3, 20848, Note_on_c, 9, 35, 100
3, 20862, Note_on_c, 9, 70, 0
3, 20865, Note_on_c, 9, 35, 0
3, 20910, Note_on_c, 9, 70, 66
3, 20916, Note_on_c, 9, 44, 127
3, 20927, Note_on_c, 9, 70, 0
3, 20931, Note_on_c, 9, 44, 0
3, 20976, Note_on_c, 9, 70, 74
3, 20983, Note_on_c, 9, 40, 100
3, 20984, Note_on_c, 9, 44, 100
3, 20995, Note_on_c, 9, 70, 0
3, 20999, Note_on_c, 9, 40, 0
3, 21000, Note_on_c, 9, 44, 0
3, 21042, Note_on_c, 9, 70, 76
3, 21051, Note_on_c, 9, 44, 100
3, 21059, Note_on_c, 9, 70, 0
3, 21072, Note_on_c, 9, 44, 0
3, 21086, Note_on_c, 9, 69, 56
3, 21102, Note_on_c, 9, 69, 0
3, 21112, Note_on_c, 9, 70, 80
3, 21128, Note_on_c, 9, 70, 0
3, 21180, Note_on_c, 9, 44, 127
3, 21181, Note_on_c, 9, 70, 73
3, 21197, Note_on_c, 9, 70, 0
3, 21197, Note_on_c, 9, 44, 0
3, 21246, Note_on_c, 9, 70, 80
3, 21248, Note_on_c, 9, 40, 100
3, 21248, Note_on_c, 9, 44, 100
3, 21263, Note_on_c, 9, 70, 0
3, 21266, Note_on_c, 9, 44, 0
3, 21266, Note_on_c, 9, 40, 0
3, 21292, Note_on_c, 9, 69, 49
3, 21308, Note_on_c, 9, 35, 100
3, 21311, Note_on_c, 9, 69, 0
3, 21315, Note_on_c, 9, 70, 78
3, 21321, Note_on_c, 9, 44, 100
3, 21326, Note_on_c, 9, 35, 0
3, 21329, Note_on_c, 9, 70, 0
3, 21338, Note_on_c, 9, 44, 0
3, 21353, Note_on_c, 9, 69, 52
3, 21368, Note_on_c, 9, 69, 0
3, 21378, Note_on_c, 9, 35, 100
3, 21382, Note_on_c, 9, 70, 76
3, 21397, Note_on_c, 9, 35, 0
3, 21398, Note_on_c, 9, 70, 0
3, 21446, Note_on_c, 9, 70, 67
3, 21448, Note_on_c, 9, 44, 127
3, 21462, Note_on_c, 9, 70, 0
3, 21463, Note_on_c, 9, 44, 0
3, 21511, Note_on_c, 9, 70, 72
3, 21516, Note_on_c, 9, 44, 100
3, 21516, Note_on_c, 9, 40, 100
3, 21529, Note_on_c, 9, 70, 0
3, 21531, Note_on_c, 9, 40, 0
3, 21532, Note_on_c, 9, 44, 0
3, 21578, Note_on_c, 9, 70, 68
3, 21586, Note_on_c, 9, 44, 100
3, 21595, Note_on_c, 9, 70, 0
3, 21602, Note_on_c, 9, 44, 0
3, 21616, Note_on_c, 9, 69, 68
3, 21632, Note_on_c, 9, 69, 0
3, 21646, Note_on_c, 9, 70, 68
3, 21661, Note_on_c, 9, 70, 0
3, 21714, Note_on_c, 9, 70, 67
3, 21717, Note_on_c, 9, 44, 127
3, 21729, Note_on_c, 9, 70, 0
3, 21731, Note_on_c, 9, 44, 0
3, 21781, Note_on_c, 9, 70, 87
3, 21783, Note_on_c, 9, 40, 100
3, 21783, Note_on_c, 9, 44, 100
3, 21797, Note_on_c, 9, 70, 0
3, 21798, Note_on_c, 9, 44, 0
3, 21798, Note_on_c, 9, 40, 0
3, 21822, Note_on_c, 9, 69, 52
3, 21841, Note_on_c, 9, 69, 0
3, 21848, Note_on_c, 9, 70, 78
3, 21853, Note_on_c, 9, 44, 100
3, 21863, Note_on_c, 9, 70, 0
3, 21871, Note_on_c, 9, 44, 0
3, 21890, Note_on_c, 9, 69, 48
3, 21904, Note_on_c, 9, 69, 0
3, 21915, Note_on_c, 9, 70, 85
3, 21921, Note_on_c, 9, 35, 100
3, 21932, Note_on_c, 9, 70, 0
3, 21938, Note_on_c, 9, 35, 0
3, 21983, Note_on_c, 9, 70, 69
3, 21988, Note_on_c, 9, 44, 127
3, 22001, Note_on_c, 9, 70, 0
3, 22005, Note_on_c, 9, 44, 0
3, 22049, Note_on_c, 9, 40, 100
3, 22050, Note_on_c, 9, 44, 100
3, 22054, Note_on_c, 9, 70, 80
3, 22064, Note_on_c, 9, 40, 0
3, 22066, Note_on_c, 9, 44, 0
3, 22072, Note_on_c, 9, 70, 0
3, 22116, Note_on_c, 9, 44, 100
3, 22120, Note_on_c, 9, 70, 84
3, 22135, Note_on_c, 9, 44, 0
3, 22136, Note_on_c, 9, 70, 0
3, 22158, Note_on_c, 9, 69, 55
3, 22176, Note_on_c, 9, 69, 0
3, 22187, Note_on_c, 9, 70, 92
3, 22203, Note_on_c, 9, 70, 0
3, 22247, Note_on_c, 9, 44, 127
3, 22254, Note_on_c, 9, 70, 76
3, 22265, Note_on_c, 9, 44, 0
3, 22269, Note_on_c, 9, 70, 0
3, 22314, Note_on_c, 9, 40, 100
3, 22314, Note_on_c, 9, 44, 100
3, 22320, Note_on_c, 9, 70, 90
3, 22330, Note_on_c, 9, 40, 0
3, 22332, Note_on_c, 9, 44, 0
3, 22337, Note_on_c, 9, 70, 0
3, 22362, Note_on_c, 9, 69, 46
3, 22379, Note_on_c, 9, 35, 100
3, 22379, Note_on_c, 9, 44, 100
3, 22382, Note_on_c, 9, 69, 0
3, 22386, Note_on_c, 9, 70, 87
3, 22396, Note_on_c, 9, 35, 0
3, 22399, Note_on_c, 9, 44, 0
3, 22400, Note_on_c, 9, 70, 0
3, 22424, Note_on_c, 9, 69, 52
3, 22443, Note_on_c, 9, 69, 0
3, 22446, Note_on_c, 9, 35, 100
3, 22452, Note_on_c, 9, 70, 82
3, 22464, Note_on_c, 9, 35, 0
3, 22467, Note_on_c, 9, 70, 0
3, 22514, Note_on_c, 9, 44, 127
3, 22518, Note_on_c, 9, 70, 72
3, 22527, Note_on_c, 9, 44, 0
3, 22533, Note_on_c, 9, 70, 0
3, 22578, Note_on_c, 9, 44, 100
3, 22578, Note_on_c, 9, 40, 100
3, 22583, Note_on_c, 9, 70, 78
3, 22595, Note_on_c, 9, 40, 0
3, 22596, Note_on_c, 9, 44, 0
3, 22600, Note_on_c, 9, 70, 0
3, 22644, Note_on_c, 9, 44, 100
3, 22648, Note_on_c, 9, 70, 78
3, 22664, Note_on_c, 9, 44, 0
3, 22665, Note_on_c, 9, 70, 0
3, 22689, Note_on_c, 9, 69, 46
3, 22710, Note_on_c, 9, 69, 0
3, 22712, Note_on_c, 9, 70, 76
3, 22732, Note_on_c, 9, 70, 0
3, 22777, Note_on_c, 9, 44, 127
3, 22778, Note_on_c, 9, 70, 73
3, 22793, Note_on_c, 9, 44, 0
3, 22796, Note_on_c, 9, 70, 0
3, 22844, Note_on_c, 9, 70, 87
3, 22851, Note_on_c, 9, 40, 100
3, 22851, Note_on_c, 9, 44, 100
3, 22862, Note_on_c, 9, 70, 0
3, 22868, Note_on_c, 9, 44, 0
3, 22868, Note_on_c, 9, 40, 0
3, 22886, Note_on_c, 9, 69, 55
3, 22906, Note_on_c, 9, 69, 0
3, 22911, Note_on_c, 9, 70, 78
3, 22915, Note_on_c, 9, 44, 100
3, 22928, Note_on_c, 9, 70, 0
3, 22934, Note_on_c, 9, 44, 0
3, 22955, Note_on_c, 9, 69, 48
3, 22971, Note_on_c, 9, 69, 0
3, 22979, Note_on_c, 9, 70, 80
3, 22985, Note_on_c, 9, 35, 100
3, 22997, Note_on_c, 9, 70, 0
3, 23004, Note_on_c, 9, 35, 0
3, 23046, Note_on_c, 9, 70, 72
3, 23051, Note_on_c, 9, 44, 127
3, 23062, Note_on_c, 9, 70, 0
3, 23068, Note_on_c, 9, 44, 0
3, 23113, Note_on_c, 9, 40, 100
3, 23113, Note_on_c, 9, 44, 100
3, 23114, Note_on_c, 9, 70, 78
3, 23129, Note_on_c, 9, 40, 0
3, 23130, Note_on_c, 9, 70, 0
3, 23130, Note_on_c, 9, 44, 0
3, 23178, Note_on_c, 9, 70, 78
3, 23180, Note_on_c, 9, 44, 100
3, 23196, Note_on_c, 9, 70, 0
3, 23199, Note_on_c, 9, 44, 0
3, 23220, Note_on_c, 9, 69, 52
3, 23240, Note_on_c, 9, 69, 0
3, 23249, Note_on_c, 9, 70, 84
3, 23265, Note_on_c, 9, 70, 0
3, 23311, Note_on_c, 9, 44, 127
3, 23314, Note_on_c, 9, 70, 77
3, 23328, Note_on_c, 9, 70, 0
3, 23330, Note_on_c, 9, 44, 0
3, 23379, Note_on_c, 9, 70, 78
3, 23384, Note_on_c, 9, 40, 100
3, 23384, Note_on_c, 9, 44, 100
3, 23396, Note_on_c, 9, 70, 0
3, 23400, Note_on_c, 9, 44, 0
3, 23401, Note_on_c, 9, 40, 0
3, 23422, Note_on_c, 9, 69, 55
3, 23440, Note_on_c, 9, 69, 0
3, 23445, Note_on_c, 9, 44, 100
3, 23446, Note_on_c, 9, 70, 84
3, 23449, Note_on_c, 9, 35, 100
3, 23462, Note_on_c, 9, 70, 0
3, 23464, Note_on_c, 9, 35, 0
3, 23464, Note_on_c, 9, 44, 0
3, 23485, Note_on_c, 9, 69, 55
3, 23503, Note_on_c, 9, 69, 0
3, 23512, Note_on_c, 9, 70, 80
3, 23514, Note_on_c, 9, 35, 100
3, 23528, Note_on_c, 9, 70, 0
3, 23531, Note_on_c, 9, 35, 0
3, 23578, Note_on_c, 9, 70, 74
3, 23583, Note_on_c, 9, 44, 127
3, 23594, Note_on_c, 9, 70, 0
3, 23598, Note_on_c, 9, 44, 0
3, 23646, Note_on_c, 9, 40, 100
3, 23646, Note_on_c, 9, 44, 100
3, 23646, Note_on_c, 9, 70, 80
3, 23663, Note_on_c, 9, 70, 0
3, 23663, Note_on_c, 9, 44, 0
3, 23663, Note_on_c, 9, 40, 0
3, 23713, Note_on_c, 9, 44, 100
3, 23713, Note_on_c, 9, 70, 70
3, 23729, Note_on_c, 9, 70, 0
3, 23732, Note_on_c, 9, 44, 0
3, 23755, Note_on_c, 9, 69, 56
3, 23771, Note_on_c, 9, 69, 0
3, 23781, Note_on_c, 9, 70, 78
3, 23797, Note_on_c, 9, 70, 0
3, 23848, Note_on_c, 9, 70, 72
3, 23849, Note_on_c, 9, 44, 127
3, 23862, Note_on_c, 9, 44, 0
3, 23865, Note_on_c, 9, 70, 0
3, 23915, Note_on_c, 9, 70, 78
3, 23917, Note_on_c, 9, 40, 100
3, 23917, Note_on_c, 9, 44, 100
3, 23932, Note_on_c, 9, 70, 0
3, 23935, Note_on_c, 9, 44, 0
3, 23935, Note_on_c, 9, 40, 0
3, 23959, Note_on_c, 9, 69, 56
3, 23976, Note_on_c, 9, 69, 0
3, 23982, Note_on_c, 9, 70, 80
3, 23984, Note_on_c, 9, 44, 100
3, 23985, Note_on_c, 9, 35, 100
3, 23999, Note_on_c, 9, 70, 0
3, 24001, Note_on_c, 9, 35, 0
3, 24006, Note_on_c, 9, 44, 0
3, 24024, Note_on_c, 9, 69, 51
3, 24040, Note_on_c, 9, 69, 0
3, 24051, Note_on_c, 9, 70, 78
3, 24053, Note_on_c, 9, 35, 100
3, 24066, Note_on_c, 9, 70, 0
3, 24072, Note_on_c, 9, 35, 0
3, 24117, Note_on_c, 9, 70, 66
3, 24123, Note_on_c, 9, 44, 127
3, 24134, Note_on_c, 9, 70, 0
3, 24137, Note_on_c, 9, 44, 0
3, 24182, Note_on_c, 9, 40, 100
3, 24182, Note_on_c, 9, 44, 100
3, 24187, Note_on_c, 9, 70, 74
3, 24196, Note_on_c, 9, 40, 0
3, 24198, Note_on_c, 9, 44, 0
3, 24203, Note_on_c, 9, 70, 0
3, 24249, Note_on_c, 9, 44, 100
3, 24253, Note_on_c, 9, 70, 77
3, 24269, Note_on_c, 9, 44, 0
3, 24270, Note_on_c, 9, 70, 0
3, 24292, Note_on_c, 9, 69, 52
3, 24308, Note_on_c, 9, 69, 0
3, 24320, Note_on_c, 9, 70, 80
3, 24336, Note_on_c, 9, 70, 0
3, 24382, Note_on_c, 9, 44, 127
3, 24386, Note_on_c, 9, 70, 77
3, 24398, Note_on_c, 9, 44, 0
3, 24402, Note_on_c, 9, 70, 0
3, 24452, Note_on_c, 9, 40, 100
3, 24452, Note_on_c, 9, 44, 100
3, 24454, Note_on_c, 9, 70, 80
3, 24468, Note_on_c, 9, 40, 0
3, 24470, Note_on_c, 9, 70, 0
3, 24470, Note_on_c, 9, 44, 0
3, 24496, Note_on_c, 9, 69, 50
3, 24514, Note_on_c, 9, 69, 0
3, 24514, Note_on_c, 9, 35, 100
3, 24519, Note_on_c, 9, 70, 84
3, 24530, Note_on_c, 9, 35, 0
3, 24532, Note_on_c, 9, 44, 100
3, 24534, Note_on_c, 9, 70, 0
3, 24548, Note_on_c, 9, 44, 0
3, 24557, Note_on_c, 9, 69, 48
3, 24574, Note_on_c, 9, 69, 0
3, 24580, Note_on_c, 9, 35, 100
3, 24585, Note_on_c, 9, 70, 80
3, 24598, Note_on_c, 9, 35, 0
3, 24600, Note_on_c, 9, 70, 0
3, 24649, Note_on_c, 9, 70, 74
3, 24651, Note_on_c, 9, 44, 127
3, 24663, Note_on_c, 9, 70, 0
3, 24666, Note_on_c, 9, 44, 0
3, 24712, Note_on_c, 9, 40, 100
3, 24713, Note_on_c, 9, 44, 100
3, 24718, Note_on_c, 9, 70, 77
3, 24729, Note_on_c, 9, 40, 0
3, 24730, Note_on_c, 9, 44, 0
3, 24734, Note_on_c, 9, 70, 0
3, 24776, Note_on_c, 9, 44, 100
3, 24782, Note_on_c, 9, 70, 77
3, 24798, Note_on_c, 9, 70, 0
3, 24799, Note_on_c, 9, 44, 0
3, 24821, Note_on_c, 9, 69, 51
3, 24840, Note_on_c, 9, 69, 0
3, 24849, Note_on_c, 9, 70, 78
3, 24863, Note_on_c, 9, 70, 0
3, 24911, Note_on_c, 9, 70, 77
3, 24913, Note_on_c, 9, 44, 127
3, 24926, Note_on_c, 9, 70, 0
3, 24930, Note_on_c, 9, 44, 0
3, 24979, Note_on_c, 9, 70, 80
3, 24985, Note_on_c, 9, 44, 100
3, 24986, Note_on_c, 9, 40, 100
3, 24995, Note_on_c, 9, 70, 0
3, 25000, Note_on_c, 9, 40, 0
3, 25000, Note_on_c, 9, 44, 0
3, 25020, Note_on_c, 9, 69, 50
3, 25039, Note_on_c, 9, 69, 0
3, 25046, Note_on_c, 9, 70, 76
3, 25050, Note_on_c, 9, 44, 100
3, 25056, Note_on_c, 9, 35, 100
3, 25062, Note_on_c, 9, 70, 0
3, 25068, Note_on_c, 9, 44, 0
3, 25073, Note_on_c, 9, 35, 0
3, 25084, Note_on_c, 9, 69, 39
3, 25098, Note_on_c, 9, 69, 0
3, 25112, Note_on_c, 9, 70, 80
3, 25120, Note_on_c, 9, 35, 100
3, 25132, Note_on_c, 9, 70, 0
3, 25137, Note_on_c, 9, 35, 0
3, 25178, Note_on_c, 9, 70, 73
3, 25183, Note_on_c, 9, 44, 127
3, 25195, Note_on_c, 9, 70, 0
3, 25199, Note_on_c, 9, 44, 0
3, 25250, Note_on_c, 9, 70, 87
3, 25253, Note_on_c, 9, 40, 100
3, 25253, Note_on_c, 9, 44, 100
3, 25264, Note_on_c, 9, 70, 0
3, 25269, Note_on_c, 9, 40, 0
3, 25270, Note_on_c, 9, 44, 0
3, 25314, Note_on_c, 9, 70, 80
3, 25320, Note_on_c, 9, 44, 100
3, 25332, Note_on_c, 9, 70, 0
3, 25342, Note_on_c, 9, 44, 0
3, 25361, Note_on_c, 9, 69, 59
3, 25378, Note_on_c, 9, 69, 0
3, 25386, Note_on_c, 9, 70, 85
3, 25402, Note_on_c, 9, 70, 0
3, 25450, Note_on_c, 9, 70, 78
3, 25452, Note_on_c, 9, 44, 127
3, 25467, Note_on_c, 9, 70, 0
3, 25468, Note_on_c, 9, 44, 0
3, 25516, Note_on_c, 9, 70, 78
3, 25520, Note_on_c, 9, 40, 100
3, 25520, Note_on_c, 9, 44, 100
3, 25534, Note_on_c, 9, 70, 0
3, 25537, Note_on_c, 9, 40, 0
3, 25538, Note_on_c, 9, 44, 0
3, 25584, Note_on_c, 9, 70, 82
3, 25585, Note_on_c, 9, 35, 100
3, 25586, Note_on_c, 9, 44, 100
3, 25600, Note_on_c, 9, 35, 0
3, 25602, Note_on_c, 9, 70, 0
3, 25605, Note_on_c, 9, 44, 0
3, 25623, Note_on_c, 9, 69, 50
3, 25643, Note_on_c, 9, 69, 0
3, 25650, Note_on_c, 9, 35, 100
3, 25654, Note_on_c, 9, 70, 85
3, 25667, Note_on_c, 9, 35, 0
3, 25670, Note_on_c, 9, 70, 0
3, 25718, Note_on_c, 9, 70, 76
3, 25718, Note_on_c, 9, 44, 127
3, 25733, Note_on_c, 9, 44, 0
3, 25736, Note_on_c, 9, 70, 0
3, 25782, Note_on_c, 9, 44, 100
3, 25783, Note_on_c, 9, 40, 100
3, 25786, Note_on_c, 9, 70, 80
3, 25798, Note_on_c, 9, 40, 0
3, 25799, Note_on_c, 9, 44, 0
3, 25803, Note_on_c, 9, 70, 0
3, 25848, Note_on_c, 9, 70, 84
3, 25850, Note_on_c, 9, 44, 100
3, 25867, Note_on_c, 9, 70, 0
3, 25871, Note_on_c, 9, 44, 0
3, 25888, Note_on_c, 9, 69, 57
3, 25908, Note_on_c, 9, 69, 0
3, 25915, Note_on_c, 9, 70, 85
3, 25930, Note_on_c, 9, 70, 0
3, 25956, Note_on_c, 9, 69, 37
3, 25975, Note_on_c, 9, 69, 0
3, 25983, Note_on_c, 9, 70, 78
3, 25986, Note_on_c, 9, 44, 127
3, 25999, Note_on_c, 9, 70, 0
3, 26002, Note_on_c, 9, 44, 0
3, 26050, Note_on_c, 9, 70, 90
3, 26052, Note_on_c, 9, 40, 100
3, 26053, Note_on_c, 9, 44, 100
3, 26067, Note_on_c, 9, 70, 0
3, 26069, Note_on_c, 9, 44, 0
3, 26069, Note_on_c, 9, 40, 0
3, 26115, Note_on_c, 9, 35, 100
3, 26117, Note_on_c, 9, 70, 72
3, 26122, Note_on_c, 9, 44, 100
3, 26131, Note_on_c, 9, 70, 0
3, 26133, Note_on_c, 9, 35, 0
3, 26144, Note_on_c, 9, 44, 0
3, 26157, Note_on_c, 9, 69, 52
3, 26174, Note_on_c, 9, 69, 0
3, 26183, Note_on_c, 9, 35, 100
3, 26185, Note_on_c, 9, 70, 85
3, 26202, Note_on_c, 9, 70, 0
3, 26204, Note_on_c, 9, 35, 0
3, 26252, Note_on_c, 9, 70, 70
3, 26254, Note_on_c, 9, 44, 127
3, 26267, Note_on_c, 9, 70, 0
3, 26270, Note_on_c, 9, 44, 0
3, 26317, Note_on_c, 9, 40, 100
3, 26317, Note_on_c, 9, 44, 100
3, 26321, Note_on_c, 9, 70, 85
3, 26332, Note_on_c, 9, 44, 0
3, 26332, Note_on_c, 9, 40, 0
3, 26337, Note_on_c, 9, 70, 0
3, 26380, Note_on_c, 9, 44, 100
3, 26385, Note_on_c, 9, 70, 78
3, 26402, Note_on_c, 9, 70, 0
3, 26402, Note_on_c, 9, 44, 0
3, 26423, Note_on_c, 9, 69, 54
3, 26440, Note_on_c, 9, 69, 0
3, 26452, Note_on_c, 9, 70, 82
3, 26466, Note_on_c, 9, 70, 0
3, 26484, Note_on_c, 9, 69, 48
3, 26497, Note_on_c, 9, 69, 0
3, 26508, Note_on_c, 9, 44, 127
3, 26515, Note_on_c, 9, 70, 82
3, 26524, Note_on_c, 9, 44, 0
3, 26529, Note_on_c, 9, 70, 0
3, 26577, Note_on_c, 9, 70, 84
3, 26583, Note_on_c, 9, 40, 100
3, 26583, Note_on_c, 9, 44, 100
3, 26595, Note_on_c, 9, 70, 0
3, 26599, Note_on_c, 9, 40, 0
3, 26600, Note_on_c, 9, 44, 0
3, 26643, Note_on_c, 9, 70, 76
3, 26646, Note_on_c, 9, 35, 100
3, 26650, Note_on_c, 9, 44, 100
3, 26660, Note_on_c, 9, 70, 0
3, 26663, Note_on_c, 9, 35, 0
3, 26671, Note_on_c, 9, 44, 0
3, 26685, Note_on_c, 9, 69, 62
3, 26702, Note_on_c, 9, 69, 0
3, 26712, Note_on_c, 9, 35, 100
3, 26712, Note_on_c, 9, 70, 94
3, 26727, Note_on_c, 9, 70, 0
3, 26732, Note_on_c, 9, 35, 0
3, 26776, Note_on_c, 9, 70, 72
3, 26779, Note_on_c, 9, 44, 127
3, 26793, Note_on_c, 9, 44, 0
3, 26793, Note_on_c, 9, 70, 0
3, 26842, Note_on_c, 9, 70, 76
3, 26846, Note_on_c, 9, 44, 100
3, 26847, Note_on_c, 9, 40, 100
3, 26859, Note_on_c, 9, 70, 0
3, 26862, Note_on_c, 9, 40, 0
3, 26863, Note_on_c, 9, 44, 0
3, 26908, Note_on_c, 9, 70, 65
3, 26914, Note_on_c, 9, 44, 100
3, 26922, Note_on_c, 9, 70, 0
3, 26936, Note_on_c, 9, 44, 0
3, 26950, Note_on_c, 9, 69, 55
3, 26967, Note_on_c, 9, 69, 0
3, 26974, Note_on_c, 9, 70, 76
3, 26989, Note_on_c, 9, 70, 0
3, 27011, Note_on_c, 9, 69, 43
3, 27031, Note_on_c, 9, 69, 0
3, 27035, Note_on_c, 9, 70, 77
3, 27038, Note_on_c, 9, 44, 127
3, 27051, Note_on_c, 9, 70, 0
3, 27053, Note_on_c, 9, 44, 0
3, 27105, Note_on_c, 9, 70, 80
3, 27114, Note_on_c, 9, 40, 100
3, 27114, Note_on_c, 9, 44, 100
3, 27122, Note_on_c, 9, 70, 0
3, 27131, Note_on_c, 9, 40, 0
3, 27132, Note_on_c, 9, 44, 0
3, 27172, Note_on_c, 9, 70, 67
3, 27174, Note_on_c, 9, 35, 100
3, 27178, Note_on_c, 9, 44, 100
3, 27187, Note_on_c, 9, 70, 0
3, 27192, Note_on_c, 9, 35, 0
3, 27198, Note_on_c, 9, 44, 0
3, 27215, Note_on_c, 9, 69, 56
3, 27231, Note_on_c, 9, 69, 0
3, 27244, Note_on_c, 9, 70, 84
3, 27245, Note_on_c, 9, 35, 100
3, 27260, Note_on_c, 9, 70, 0
3, 27264, Note_on_c, 9, 35, 0
3, 27308, Note_on_c, 9, 70, 70
3, 27316, Note_on_c, 9, 44, 127
3, 27323, Note_on_c, 9, 70, 0
3, 27331, Note_on_c, 9, 44, 0
3, 27373, Note_on_c, 9, 70, 76
3, 27377, Note_on_c, 9, 44, 100
3, 27377, Note_on_c, 9, 40, 100
3, 27390, Note_on_c, 9, 70, 0
3, 27393, Note_on_c, 9, 40, 0
3, 27394, Note_on_c, 9, 44, 0
3, 27440, Note_on_c, 9, 70, 65
3, 27446, Note_on_c, 9, 44, 100
3, 27455, Note_on_c, 9, 70, 0
3, 27467, Note_on_c, 9, 44, 0
3, 27481, Note_on_c, 9, 69, 50
3, 27499, Note_on_c, 9, 69, 0
3, 27509, Note_on_c, 9, 70, 77
3, 27522, Note_on_c, 9, 70, 0
3, 27547, Note_on_c, 9, 69, 46
3, 27566, Note_on_c, 9, 69, 0
3, 27573, Note_on_c, 9, 70, 85
3, 27573, Note_on_c, 9, 44, 127
3, 27587, Note_on_c, 9, 44, 0
3, 27588, Note_on_c, 9, 70, 0
3, 27640, Note_on_c, 9, 70, 80
3, 27650, Note_on_c, 9, 40, 100
3, 27651, Note_on_c, 9, 44, 100
3, 27658, Note_on_c, 9, 70, 0
3, 27666, Note_on_c, 9, 40, 0
3, 27668, Note_on_c, 9, 44, 0
3, 27709, Note_on_c, 9, 70, 74
3, 27711, Note_on_c, 9, 35, 100
3, 27712, Note_on_c, 9, 44, 100
3, 27725, Note_on_c, 9, 70, 0
3, 27729, Note_on_c, 9, 35, 0
3, 27733, Note_on_c, 9, 44, 0
3, 27749, Note_on_c, 9, 69, 55
3, 27766, Note_on_c, 9, 69, 0
3, 27776, Note_on_c, 9, 70, 82
3, 27780, Note_on_c, 9, 35, 100
3, 27789, Note_on_c, 9, 70, 0
3, 27800, Note_on_c, 9, 35, 0
3, 27845, Note_on_c, 9, 70, 76
3, 27848, Note_on_c, 9, 44, 127
3, 27860, Note_on_c, 9, 70, 0
3, 27863, Note_on_c, 9, 44, 0
3, 27909, Note_on_c, 9, 70, 80
3, 27915, Note_on_c, 9, 44, 100
3, 27917, Note_on_c, 9, 40, 100
3, 27926, Note_on_c, 9, 70, 0
3, 27931, Note_on_c, 9, 40, 0
3, 27933, Note_on_c, 9, 44, 0
3, 27975, Note_on_c, 9, 44, 100
3, 27978, Note_on_c, 9, 70, 47
3, 27987, Note_on_c, 9, 70, 0
3, 27994, Note_on_c, 9, 44, 0
3, 28020, Note_on_c, 9, 69, 59
3, 28034, Note_on_c, 9, 69, 0
3, 28046, Note_on_c, 9, 70, 78
3, 28060, Note_on_c, 9, 70, 0
3, 28082, Note_on_c, 9, 69, 46
3, 28101, Note_on_c, 9, 69, 0
3, 28111, Note_on_c, 9, 70, 78
3, 28114, Note_on_c, 9, 44, 127
3, 28126, Note_on_c, 9, 70, 0
3, 28131, Note_on_c, 9, 44, 0
3, 28179, Note_on_c, 9, 70, 80
3, 28186, Note_on_c, 9, 44, 100
3, 28187, Note_on_c, 9, 40, 100
3, 28196, Note_on_c, 9, 70, 0
3, 28203, Note_on_c, 9, 40, 0
3, 28204, Note_on_c, 9, 44, 0
3, 28247, Note_on_c, 9, 70, 57
3, 28249, Note_on_c, 9, 35, 100
3, 28255, Note_on_c, 9, 44, 100
3, 28260, Note_on_c, 9, 70, 0
3, 28266, Note_on_c, 9, 35, 0
3, 28276, Note_on_c, 9, 44, 0
3, 28294, Note_on_c, 9, 69, 51
3, 28309, Note_on_c, 9, 69, 0
3, 28318, Note_on_c, 9, 35, 100
3, 28320, Note_on_c, 9, 70, 78
3, 28334, Note_on_c, 9, 70, 0
3, 28337, Note_on_c, 9, 35, 0
3, 28387, Note_on_c, 9, 44, 127
3, 28388, Note_on_c, 9, 70, 72
3, 28401, Note_on_c, 9, 44, 0
3, 28403, Note_on_c, 9, 70, 0
3, 28450, Note_on_c, 9, 44, 100
3, 28452, Note_on_c, 9, 40, 100
3, 28452, Note_on_c, 9, 70, 73
3, 28466, Note_on_c, 9, 40, 0
3, 28467, Note_on_c, 9, 70, 0
3, 28468, Note_on_c, 9, 44, 0
3, 28516, Note_on_c, 9, 44, 100
3, 28519, Note_on_c, 9, 70, 77
3, 28536, Note_on_c, 9, 70, 0
3, 28539, Note_on_c, 9, 44, 0
3, 28558, Note_on_c, 9, 69, 55
3, 28574, Note_on_c, 9, 69, 0
3, 28585, Note_on_c, 9, 70, 82
3, 28599, Note_on_c, 9, 70, 0
3, 28625, Note_on_c, 9, 69, 54
3, 28646, Note_on_c, 9, 69, 0
3, 28648, Note_on_c, 9, 70, 74
3, 28649, Note_on_c, 9, 44, 127
3, 28664, Note_on_c, 9, 44, 0
3, 28664, Note_on_c, 9, 70, 0
3, 28713, Note_on_c, 9, 70, 78
3, 28724, Note_on_c, 9, 44, 100
3, 28724, Note_on_c, 9, 40, 100
3, 28728, Note_on_c, 9, 70, 0
3, 28740, Note_on_c, 9, 40, 0
3, 28742, Note_on_c, 9, 44, 0
3, 28780, Note_on_c, 9, 70, 66
3, 28786, Note_on_c, 9, 44, 100
3, 28791, Note_on_c, 9, 35, 100
3, 28795, Note_on_c, 9, 70, 0
3, 28804, Note_on_c, 9, 44, 0
3, 28808, Note_on_c, 9, 35, 0
3, 28818, Note_on_c, 9, 69, 51
3, 28837, Note_on_c, 9, 69, 0
3, 28846, Note_on_c, 9, 70, 78
3, 28857, Note_on_c, 9, 35, 100
3, 28862, Note_on_c, 9, 70, 0
3, 28876, Note_on_c, 9, 35, 0
3, 28916, Note_on_c, 9, 70, 67
3, 28919, Note_on_c, 9, 44, 127
3, 28934, Note_on_c, 9, 70, 0
3, 28937, Note_on_c, 9, 44, 0
3, 28986, Note_on_c, 9, 70, 80
3, 28993, Note_on_c, 9, 40, 100
3, 28993, Note_on_c, 9, 44, 100
3, 29004, Note_on_c, 9, 70, 0
3, 29008, Note_on_c, 9, 44, 0
3, 29008, Note_on_c, 9, 40, 0
3, 29054, Note_on_c, 9, 70, 73
3, 29061, Note_on_c, 9, 44, 100
3, 29070, Note_on_c, 9, 70, 0
3, 29081, Note_on_c, 9, 44, 0
3, 29098, Note_on_c, 9, 69, 45
3, 29118, Note_on_c, 9, 69, 0
3, 29122, Note_on_c, 9, 70, 77
3, 29136, Note_on_c, 9, 70, 0
3, 29167, Note_on_c, 9, 69, 43
3, 29185, Note_on_c, 9, 69, 0
3, 29189, Note_on_c, 9, 70, 74
3, 29204, Note_on_c, 9, 70, 0
3, 29220, Note_on_c, 9, 44, 127
3, 29233, Note_on_c, 9, 44, 0
3, 29256, Note_on_c, 9, 70, 77
3, 29260, Note_on_c, 9, 40, 100
3, 29261, Note_on_c, 9, 44, 100
3, 29272, Note_on_c, 9, 70, 0
3, 29276, Note_on_c, 9, 40, 0
3, 29278, Note_on_c, 9, 44, 0
3, 29322, Note_on_c, 9, 44, 100
3, 29323, Note_on_c, 9, 70, 68
3, 29327, Note_on_c, 9, 35, 100
3, 29340, Note_on_c, 9, 70, 0
3, 29344, Note_on_c, 9, 35, 0
3, 29344, Note_on_c, 9, 44, 0
3, 29364, Note_on_c, 9, 69, 54
3, 29381, Note_on_c, 9, 69, 0
3, 29390, Note_on_c, 9, 35, 100
3, 29391, Note_on_c, 9, 70, 78
3, 29407, Note_on_c, 9, 70, 0
3, 29410, Note_on_c, 9, 35, 0
3, 29458, Note_on_c, 9, 70, 67
3, 29458, Note_on_c, 9, 44, 127
3, 29474, Note_on_c, 9, 70, 0
3, 29476, Note_on_c, 9, 44, 0
3, 29524, Note_on_c, 9, 44, 100
3, 29525, Note_on_c, 9, 40, 100
3, 29527, Note_on_c, 9, 70, 76
3, 29541, Note_on_c, 9, 40, 0
3, 29542, Note_on_c, 9, 44, 0
3, 29544, Note_on_c, 9, 70, 0
3, 29592, Note_on_c, 9, 44, 100
3, 29593, Note_on_c, 9, 70, 70
3, 29610, Note_on_c, 9, 70, 0
3, 29610, Note_on_c, 9, 44, 0
3, 29633, Note_on_c, 9, 69, 50
3, 29652, Note_on_c, 9, 69, 0
3, 29660, Note_on_c, 9, 70, 77
3, 29676, Note_on_c, 9, 70, 0
3, 29696, Note_on_c, 9, 69, 50
3, 29719, Note_on_c, 9, 44, 127
3, 29720, Note_on_c, 9, 69, 0
3, 29727, Note_on_c, 9, 70, 73
3, 29733, Note_on_c, 9, 44, 0
3, 29742, Note_on_c, 9, 70, 0
3, 29791, Note_on_c, 9, 70, 76
3, 29792, Note_on_c, 9, 44, 100
3, 29792, Note_on_c, 9, 40, 100
3, 29807, Note_on_c, 9, 70, 0
3, 29809, Note_on_c, 9, 40, 0
3, 29811, Note_on_c, 9, 44, 0
3, 29856, Note_on_c, 9, 44, 100
3, 29857, Note_on_c, 9, 35, 100
3, 29858, Note_on_c, 9, 70, 73
3, 29874, Note_on_c, 9, 70, 0
3, 29875, Note_on_c, 9, 35, 0
3, 29876, Note_on_c, 9, 44, 0
3, 29898, Note_on_c, 9, 69, 53
3, 29917, Note_on_c, 9, 69, 0
3, 29924, Note_on_c, 9, 35, 100
3, 29925, Note_on_c, 9, 70, 74
3, 29940, Note_on_c, 9, 70, 0
3, 29946, Note_on_c, 9, 35, 0
3, 29988, Note_on_c, 9, 44, 127
3, 29990, Note_on_c, 9, 70, 68
3, 30004, Note_on_c, 9, 44, 0
3, 30008, Note_on_c, 9, 70, 0
3, 30053, Note_on_c, 9, 44, 100
3, 30054, Note_on_c, 9, 40, 100
3, 30059, Note_on_c, 9, 70, 77
3, 30067, Note_on_c, 9, 40, 0
3, 30070, Note_on_c, 9, 44, 0
3, 30076, Note_on_c, 9, 70, 0
3, 30120, Note_on_c, 9, 44, 100
3, 30122, Note_on_c, 9, 70, 66
3, 30138, Note_on_c, 9, 70, 0
3, 30139, Note_on_c, 9, 44, 0
3, 30161, Note_on_c, 9, 69, 52
3, 30179, Note_on_c, 9, 69, 0
3, 30188, Note_on_c, 9, 70, 80
3, 30203, Note_on_c, 9, 70, 0
3, 30230, Note_on_c, 9, 69, 44
3, 30249, Note_on_c, 9, 69, 0
3, 30254, Note_on_c, 9, 70, 76
3, 30256, Note_on_c, 9, 44, 127
3, 30268, Note_on_c, 9, 70, 0
3, 30271, Note_on_c, 9, 44, 0
3, 30316, Note_on_c, 9, 44, 100
3, 30316, Note_on_c, 9, 40, 100
3, 30320, Note_on_c, 9, 70, 84
3, 30333, Note_on_c, 9, 40, 0
3, 30334, Note_on_c, 9, 44, 0
3, 30338, Note_on_c, 9, 70, 0
3, 30384, Note_on_c, 9, 70, 73
3, 30385, Note_on_c, 9, 35, 100
3, 30387, Note_on_c, 9, 44, 100
3, 30401, Note_on_c, 9, 70, 0
3, 30403, Note_on_c, 9, 35, 0
3, 30405, Note_on_c, 9, 44, 0
3, 30425, Note_on_c, 9, 69, 57
3, 30443, Note_on_c, 9, 69, 0
3, 30451, Note_on_c, 9, 70, 80
3, 30454, Note_on_c, 9, 35, 100
3, 30467, Note_on_c, 9, 70, 0
3, 30474, Note_on_c, 9, 35, 0
3, 30518, Note_on_c, 9, 44, 127
3, 30519, Note_on_c, 9, 70, 74
3, 30533, Note_on_c, 9, 44, 0
3, 30535, Note_on_c, 9, 70, 0
3, 30585, Note_on_c, 9, 44, 100
3, 30587, Note_on_c, 9, 40, 100
3, 30588, Note_on_c, 9, 70, 76
3, 30602, Note_on_c, 9, 40, 0
3, 30603, Note_on_c, 9, 70, 0
3, 30603, Note_on_c, 9, 44, 0
3, 30653, Note_on_c, 9, 70, 67
3, 30658, Note_on_c, 9, 44, 100
3, 30670, Note_on_c, 9, 70, 0
3, 30677, Note_on_c, 9, 44, 0
3, 30694, Note_on_c, 9, 69, 53
3, 30712, Note_on_c, 9, 69, 0
3, 30718, Note_on_c, 9, 70, 78
3, 30733, Note_on_c, 9, 70, 0
3, 30757, Note_on_c, 9, 69, 51
3, 30776, Note_on_c, 9, 69, 0
3, 30783, Note_on_c, 9, 70, 78
3, 30784, Note_on_c, 9, 44, 127
3, 30797, Note_on_c, 9, 44, 0
3, 30797, Note_on_c, 9, 70, 0
3, 30846, Note_on_c, 9, 44, 100
3, 30847, Note_on_c, 9, 40, 100
3, 30849, Note_on_c, 9, 70, 76
3, 30863, Note_on_c, 9, 40, 0
3, 30865, Note_on_c, 9, 44, 0
3, 30866, Note_on_c, 9, 70, 0
3, 30909, Note_on_c, 9, 35, 100
3, 30912, Note_on_c, 9, 44, 100
3, 30914, Note_on_c, 9, 70, 74
3, 30926, Note_on_c, 9, 35, 0
3, 30929, Note_on_c, 9, 70, 0
3, 30934, Note_on_c, 9, 44, 0
3, 30954, Note_on_c, 9, 69, 51
3, 30974, Note_on_c, 9, 69, 0
3, 30975, Note_on_c, 9, 35, 100
3, 30982, Note_on_c, 9, 70, 78
3, 30994, Note_on_c, 9, 35, 0
3, 30997, Note_on_c, 9, 70, 0
3, 31044, Note_on_c, 9, 44, 127
3, 31047, Note_on_c, 9, 70, 73
3, 31059, Note_on_c, 9, 44, 0
3, 31062, Note_on_c, 9, 70, 0
3, 31111, Note_on_c, 9, 40, 100
3, 31111, Note_on_c, 9, 44, 100
3, 31115, Note_on_c, 9, 70, 76
3, 31127, Note_on_c, 9, 40, 0
3, 31128, Note_on_c, 9, 44, 0
3, 31132, Note_on_c, 9, 70, 0
3, 31177, Note_on_c, 9, 44, 100
3, 31177, Note_on_c, 9, 70, 78
3, 31193, Note_on_c, 9, 70, 0
3, 31196, Note_on_c, 9, 44, 0
3, 31218, Note_on_c, 9, 69, 53
3, 31237, Note_on_c, 9, 69, 0
3, 31241, Note_on_c, 9, 70, 74
3, 31257, Note_on_c, 9, 70, 0
3, 31278, Note_on_c, 9, 69, 51
3, 31301, Note_on_c, 9, 69, 0
3, 31306, Note_on_c, 9, 70, 70
3, 31306, Note_on_c, 9, 44, 127
3, 31319, Note_on_c, 9, 44, 0
3, 31322, Note_on_c, 9, 70, 0
3, 31373, Note_on_c, 9, 70, 78
3, 31374, Note_on_c, 9, 40, 100
3, 31374, Note_on_c, 9, 44, 100
3, 31389, Note_on_c, 9, 40, 0
3, 31390, Note_on_c, 9, 70, 0
3, 31391, Note_on_c, 9, 44, 0
3, 31436, Note_on_c, 9, 35, 100
3, 31437, Note_on_c, 9, 70, 67
3, 31444, Note_on_c, 9, 44, 100
3, 31452, Note_on_c, 9, 35, 0
3, 31454, Note_on_c, 9, 70, 0
3, 31463, Note_on_c, 9, 44, 0
3, 31478, Note_on_c, 9, 69, 55
3, 31497, Note_on_c, 9, 69, 0
3, 31506, Note_on_c, 9, 35, 100
3, 31506, Note_on_c, 9, 70, 77
3, 31523, Note_on_c, 9, 70, 0
3, 31523, Note_on_c, 9, 35, 0
3, 31573, Note_on_c, 9, 70, 67
3, 31576, Note_on_c, 9, 44, 127
3, 31588, Note_on_c, 9, 70, 0
3, 31591, Note_on_c, 9, 44, 0
3, 31642, Note_on_c, 9, 70, 77
3, 31644, Note_on_c, 9, 40, 100
3, 31644, Note_on_c, 9, 44, 100
3, 31658, Note_on_c, 9, 70, 0
3, 31660, Note_on_c, 9, 40, 0
3, 31661, Note_on_c, 9, 44, 0
3, 31707, Note_on_c, 9, 70, 67
3, 31725, Note_on_c, 9, 70, 0
3, 31732, Note_on_c, 9, 44, 100
3, 31750, Note_on_c, 9, 69, 55
3, 31752, Note_on_c, 9, 44, 0
3, 31767, Note_on_c, 9, 69, 0
3, 31774, Note_on_c, 9, 70, 74
3, 31792, Note_on_c, 9, 70, 0
3, 31815, Note_on_c, 9, 69, 50
3, 31834, Note_on_c, 9, 69, 0
3, 31835, Note_on_c, 9, 44, 127
3, 31840, Note_on_c, 9, 70, 76
3, 31851, Note_on_c, 9, 44, 0
3, 31855, Note_on_c, 9, 70, 0
3, 31905, Note_on_c, 9, 70, 73
3, 31911, Note_on_c, 9, 44, 100
3, 31912, Note_on_c, 9, 40, 100
3, 31921, Note_on_c, 9, 70, 0
3, 31928, Note_on_c, 9, 40, 0
3, 31928, Note_on_c, 9, 44, 0
3, 31974, Note_on_c, 9, 70, 69
3, 31975, Note_on_c, 9, 44, 100
3, 31976, Note_on_c, 9, 35, 100
3, 31989, Note_on_c, 9, 70, 0
3, 31991, Note_on_c, 9, 35, 0
3, 31993, Note_on_c, 9, 44, 0
3, 32041, Note_on_c, 9, 35, 100
3, 32042, Note_on_c, 9, 70, 80
3, 32059, Note_on_c, 9, 70, 0
3, 32061, Note_on_c, 9, 35, 0
3, 32107, Note_on_c, 9, 44, 127
3, 32108, Note_on_c, 9, 70, 65
3, 32121, Note_on_c, 9, 44, 0
3, 32123, Note_on_c, 9, 70, 0
3, 32173, Note_on_c, 9, 70, 78
3, 32174, Note_on_c, 9, 40, 100
3, 32174, Note_on_c, 9, 44, 100
3, 32188, Note_on_c, 9, 44, 0
3, 32188, Note_on_c, 9, 40, 0
3, 32192, Note_on_c, 9, 70, 0
3, 32239, Note_on_c, 9, 44, 100
3, 32239, Note_on_c, 9, 70, 69
3, 32256, Note_on_c, 9, 70, 0
3, 32259, Note_on_c, 9, 44, 0
3, 32281, Note_on_c, 9, 69, 55
3, 32302, Note_on_c, 9, 69, 0
3, 32308, Note_on_c, 9, 70, 77
3, 32322, Note_on_c, 9, 70, 0
3, 32349, Note_on_c, 9, 69, 51
3, 32365, Note_on_c, 9, 69, 0
3, 32373, Note_on_c, 9, 70, 78
3, 32374, Note_on_c, 9, 44, 127
3, 32387, Note_on_c, 9, 44, 0
3, 32388, Note_on_c, 9, 70, 0
3, 32438, Note_on_c, 9, 70, 76
3, 32452, Note_on_c, 9, 40, 100
3, 32453, Note_on_c, 9, 44, 100
3, 32456, Note_on_c, 9, 70, 0
3, 32467, Note_on_c, 9, 40, 0
3, 32469, Note_on_c, 9, 44, 0
3, 32508, Note_on_c, 9, 70, 63
3, 32513, Note_on_c, 9, 44, 100
3, 32516, Note_on_c, 9, 35, 100
3, 32524, Note_on_c, 9, 70, 0
3, 32532, Note_on_c, 9, 35, 0
3, 32532, Note_on_c, 9, 44, 0
3, 32552, Note_on_c, 9, 69, 51
3, 32570, Note_on_c, 9, 69, 0
3, 32578, Note_on_c, 9, 70, 78
3, 32585, Note_on_c, 9, 35, 100
3, 32593, Note_on_c, 9, 70, 0
3, 32604, Note_on_c, 9, 35, 0
3, 32647, Note_on_c, 9, 70, 69
3, 32647, Note_on_c, 9, 44, 127
3, 32659, Note_on_c, 9, 44, 0
3, 32664, Note_on_c, 9, 70, 0
3, 32715, Note_on_c, 9, 70, 80
3, 32717, Note_on_c, 9, 40, 100
3, 32717, Note_on_c, 9, 44, 100
3, 32731, Note_on_c, 9, 40, 0
3, 32732, Note_on_c, 9, 70, 0
3, 32733, Note_on_c, 9, 44, 0
3, 32780, Note_on_c, 9, 44, 100
3, 32782, Note_on_c, 9, 70, 67
3, 32799, Note_on_c, 9, 70, 0
3, 32801, Note_on_c, 9, 44, 0
3, 32825, Note_on_c, 9, 69, 41
3, 32846, Note_on_c, 9, 69, 0
3, 32850, Note_on_c, 9, 70, 84
3, 32865, Note_on_c, 9, 70, 0
3, 32888, Note_on_c, 9, 69, 44
3, 32907, Note_on_c, 9, 69, 0
3, 32915, Note_on_c, 9, 44, 127
3, 32916, Note_on_c, 9, 70, 77
3, 32928, Note_on_c, 9, 44, 0
3, 32932, Note_on_c, 9, 70, 0
3, 32982, Note_on_c, 9, 70, 87
3, 32984, Note_on_c, 9, 40, 100
3, 32984, Note_on_c, 9, 44, 100
3, 32999, Note_on_c, 9, 70, 0
3, 33000, Note_on_c, 9, 40, 0
3, 33001, Note_on_c, 9, 44, 0
3, 33045, Note_on_c, 9, 44, 100
3, 33047, Note_on_c, 9, 70, 69
3, 33048, Note_on_c, 9, 35, 100
3, 33063, Note_on_c, 9, 70, 0
3, 33064, Note_on_c, 9, 35, 0
3, 33064, Note_on_c, 9, 44, 0
3, 33090, Note_on_c, 9, 69, 55
3, 33106, Note_on_c, 9, 69, 0
3, 33113, Note_on_c, 9, 35, 100
3, 33117, Note_on_c, 9, 70, 80
3, 33132, Note_on_c, 9, 35, 0
3, 33133, Note_on_c, 9, 70, 0
3, 33180, Note_on_c, 9, 70, 76
3, 33181, Note_on_c, 9, 44, 127
3, 33195, Note_on_c, 9, 44, 0
3, 33198, Note_on_c, 9, 70, 0
3, 33249, Note_on_c, 9, 44, 100
3, 33249, Note_on_c, 9, 70, 76
3, 33250, Note_on_c, 9, 40, 100
3, 33264, Note_on_c, 9, 40, 0
3, 33266, Note_on_c, 9, 70, 0
3, 33266, Note_on_c, 9, 44, 0
3, 33312, Note_on_c, 9, 44, 100
3, 33318, Note_on_c, 9, 70, 78
3, 33332, Note_on_c, 9, 44, 0
3, 33334, Note_on_c, 9, 70, 0
3, 33356, Note_on_c, 9, 69, 59
3, 33376, Note_on_c, 9, 69, 0
3, 33384, Note_on_c, 9, 70, 80
3, 33398, Note_on_c, 9, 70, 0
3, 33420, Note_on_c, 9, 69, 52
3, 33438, Note_on_c, 9, 69, 0
3, 33446, Note_on_c, 9, 44, 127
3, 33447, Note_on_c, 9, 70, 77
3, 33460, Note_on_c, 9, 44, 0
3, 33462, Note_on_c, 9, 70, 0
3, 33513, Note_on_c, 9, 70, 80
3, 33516, Note_on_c, 9, 40, 100
3, 33516, Note_on_c, 9, 44, 100
3, 33530, Note_on_c, 9, 70, 0
3, 33532, Note_on_c, 9, 44, 0
3, 33532, Note_on_c, 9, 40, 0
3, 33577, Note_on_c, 9, 35, 100
3, 33577, Note_on_c, 9, 44, 100
3, 33580, Note_on_c, 9, 70, 74
3, 33593, Note_on_c, 9, 35, 0
3, 33596, Note_on_c, 9, 70, 0
3, 33596, Note_on_c, 9, 44, 0
3, 33621, Note_on_c, 9, 69, 59
3, 33637, Note_on_c, 9, 69, 0
3, 33642, Note_on_c, 9, 35, 100
3, 33645, Note_on_c, 9, 70, 82
3, 33661, Note_on_c, 9, 35, 0
3, 33663, Note_on_c, 9, 70, 0
3, 33712, Note_on_c, 9, 44, 127
3, 33714, Note_on_c, 9, 70, 72
3, 33725, Note_on_c, 9, 44, 0
3, 33732, Note_on_c, 9, 70, 0
3, 33778, Note_on_c, 9, 40, 100
3, 33778, Note_on_c, 9, 44, 100
3, 33783, Note_on_c, 9, 70, 80
3, 33793, Note_on_c, 9, 40, 0
3, 33794, Note_on_c, 9, 44, 0
3, 33800, Note_on_c, 9, 70, 0
3, 33844, Note_on_c, 9, 44, 100
3, 33848, Note_on_c, 9, 70, 77
3, 33864, Note_on_c, 9, 70, 0
3, 33865, Note_on_c, 9, 44, 0
3, 33886, Note_on_c, 9, 69, 56
3, 33903, Note_on_c, 9, 69, 0
3, 33912, Note_on_c, 9, 70, 84
3, 33929, Note_on_c, 9, 70, 0
3, 33950, Note_on_c, 9, 69, 52
3, 33968, Note_on_c, 9, 69, 0
3, 33977, Note_on_c, 9, 44, 127
3, 33978, Note_on_c, 9, 70, 78
3, 33989, Note_on_c, 9, 44, 0
3, 33995, Note_on_c, 9, 70, 0
3, 34044, Note_on_c, 9, 70, 82
3, 34048, Note_on_c, 9, 44, 100
3, 34049, Note_on_c, 9, 40, 100
3, 34061, Note_on_c, 9, 70, 0
3, 34066, Note_on_c, 9, 40, 0
3, 34067, Note_on_c, 9, 44, 0
3, 34110, Note_on_c, 9, 44, 100
3, 34112, Note_on_c, 9, 70, 70
3, 34113, Note_on_c, 9, 35, 100
3, 34129, Note_on_c, 9, 35, 0
3, 34130, Note_on_c, 9, 70, 0
3, 34131, Note_on_c, 9, 44, 0
3, 34152, Note_on_c, 9, 69, 49
3, 34170, Note_on_c, 9, 69, 0
3, 34178, Note_on_c, 9, 70, 74
3, 34179, Note_on_c, 9, 35, 100
3, 34195, Note_on_c, 9, 70, 0
3, 34198, Note_on_c, 9, 35, 0
3, 34246, Note_on_c, 9, 70, 73
3, 34246, Note_on_c, 9, 44, 127
3, 34259, Note_on_c, 9, 44, 0
3, 34264, Note_on_c, 9, 70, 0
3, 34309, Note_on_c, 9, 40, 100
3, 34310, Note_on_c, 9, 44, 100
3, 34316, Note_on_c, 9, 70, 76
3, 34327, Note_on_c, 9, 44, 0
3, 34328, Note_on_c, 9, 40, 0
3, 34333, Note_on_c, 9, 70, 0
3, 34375, Note_on_c, 9, 44, 100
3, 34382, Note_on_c, 9, 70, 76
3, 34396, Note_on_c, 9, 44, 0
3, 34399, Note_on_c, 9, 70, 0
3, 34420, Note_on_c, 9, 69, 52
3, 34439, Note_on_c, 9, 69, 0
3, 34446, Note_on_c, 9, 70, 72
3, 34463, Note_on_c, 9, 70, 0
3, 34484, Note_on_c, 9, 69, 50
3, 34504, Note_on_c, 9, 69, 0
3, 34511, Note_on_c, 9, 70, 70
3, 34514, Note_on_c, 9, 44, 127
3, 34527, Note_on_c, 9, 44, 0
3, 34528, Note_on_c, 9, 70, 0
3, 34578, Note_on_c, 9, 70, 77
3, 34582, Note_on_c, 9, 40, 100
3, 34582, Note_on_c, 9, 44, 100
3, 34597, Note_on_c, 9, 70, 0
3, 34599, Note_on_c, 9, 40, 0
3, 34600, Note_on_c, 9, 44, 0
3, 34644, Note_on_c, 9, 70, 72
3, 34650, Note_on_c, 9, 44, 100
3, 34651, Note_on_c, 9, 35, 100
3, 34664, Note_on_c, 9, 70, 0
3, 34668, Note_on_c, 9, 35, 0
3, 34670, Note_on_c, 9, 44, 0
3, 34687, Note_on_c, 9, 69, 54
3, 34704, Note_on_c, 9, 69, 0
3, 34712, Note_on_c, 9, 70, 76
3, 34717, Note_on_c, 9, 35, 100
3, 34731, Note_on_c, 9, 70, 0
3, 34737, Note_on_c, 9, 35, 0
3, 34781, Note_on_c, 9, 70, 72
3, 34781, Note_on_c, 9, 44, 127
3, 34794, Note_on_c, 9, 44, 0
3, 34797, Note_on_c, 9, 70, 0
3, 34849, Note_on_c, 9, 40, 100
3, 34849, Note_on_c, 9, 44, 100
3, 34851, Note_on_c, 9, 70, 77
3, 34864, Note_on_c, 9, 44, 0
3, 34864, Note_on_c, 9, 40, 0
3, 34869, Note_on_c, 9, 70, 0
3, 34914, Note_on_c, 9, 44, 100
3, 34916, Note_on_c, 9, 70, 72
3, 34934, Note_on_c, 9, 70, 0
3, 34938, Note_on_c, 9, 44, 0
3, 34957, Note_on_c, 9, 69, 53
3, 34976, Note_on_c, 9, 69, 0
3, 34982, Note_on_c, 9, 70, 77
3, 34998, Note_on_c, 9, 70, 0
3, 35022, Note_on_c, 9, 69, 50
3, 35037, Note_on_c, 9, 69, 0
3, 35047, Note_on_c, 9, 70, 77
3, 35052, Note_on_c, 9, 44, 127
3, 35062, Note_on_c, 9, 44, 0
3, 35063, Note_on_c, 9, 70, 0
3, 35114, Note_on_c, 9, 70, 78
3, 35121, Note_on_c, 9, 40, 100
3, 35121, Note_on_c, 9, 44, 100
3, 35132, Note_on_c, 9, 70, 0
3, 35137, Note_on_c, 9, 40, 0
3, 35138, Note_on_c, 9, 44, 0
3, 35180, Note_on_c, 9, 70, 70
3, 35182, Note_on_c, 9, 44, 100
3, 35186, Note_on_c, 9, 35, 100
3, 35198, Note_on_c, 9, 70, 0
3, 35202, Note_on_c, 9, 35, 0
3, 35202, Note_on_c, 9, 44, 0
3, 35226, Note_on_c, 9, 69, 60
3, 35243, Note_on_c, 9, 69, 0
3, 35251, Note_on_c, 9, 70, 77
3, 35252, Note_on_c, 9, 35, 100
3, 35268, Note_on_c, 9, 35, 0
3, 35270, Note_on_c, 9, 70, 0
3, 35314, Note_on_c, 9, 44, 127
3, 35317, Note_on_c, 9, 70, 74
3, 35328, Note_on_c, 9, 44, 0
3, 35335, Note_on_c, 9, 70, 0
3, 35384, Note_on_c, 9, 40, 100
3, 35384, Note_on_c, 9, 44, 100
3, 35387, Note_on_c, 9, 70, 78
3, 35399, Note_on_c, 9, 40, 0
3, 35400, Note_on_c, 9, 44, 0
3, 35404, Note_on_c, 9, 70, 0
3, 35449, Note_on_c, 9, 70, 66
3, 35450, Note_on_c, 9, 44, 100
3, 35467, Note_on_c, 9, 70, 0
3, 35471, Note_on_c, 9, 44, 0
3, 35489, Note_on_c, 9, 69, 56
3, 35509, Note_on_c, 9, 69, 0
3, 35518, Note_on_c, 9, 70, 80
3, 35533, Note_on_c, 9, 70, 0
3, 35566, Note_on_c, 9, 69, 46
3, 35580, Note_on_c, 9, 69, 0
3, 35583, Note_on_c, 9, 44, 127
3, 35584, Note_on_c, 9, 70, 72
3, 35594, Note_on_c, 9, 44, 0
3, 35602, Note_on_c, 9, 70, 0
3, 35649, Note_on_c, 9, 40, 100
3, 35651, Note_on_c, 9, 70, 82
3, 35652, Note_on_c, 9, 44, 100
3, 35668, Note_on_c, 9, 44, 0
3, 35668, Note_on_c, 9, 40, 0
3, 35669, Note_on_c, 9, 70, 0
3, 35710, Note_on_c, 9, 44, 100
3, 35717, Note_on_c, 9, 35, 100
3, 35718, Note_on_c, 9, 70, 76
3, 35730, Note_on_c, 9, 44, 0
3, 35732, Note_on_c, 9, 35, 0
3, 35734, Note_on_c, 9, 70, 0
3, 35756, Note_on_c, 9, 69, 62
3, 35773, Note_on_c, 9, 69, 0
3, 35781, Note_on_c, 9, 35, 100
3, 35784, Note_on_c, 9, 70, 77
3, 35799, Note_on_c, 9, 35, 0
3, 35801, Note_on_c, 9, 70, 0
3, 35848, Note_on_c, 9, 44, 127
3, 35850, Note_on_c, 9, 70, 72
3, 35860, Note_on_c, 9, 44, 0
3, 35866, Note_on_c, 9, 70, 0
3, 35914, Note_on_c, 9, 40, 100
3, 35915, Note_on_c, 9, 44, 100
3, 35918, Note_on_c, 9, 70, 76
3, 35931, Note_on_c, 9, 44, 0
3, 35932, Note_on_c, 9, 40, 0
3, 35937, Note_on_c, 9, 70, 0
3, 35979, Note_on_c, 9, 44, 100
3, 35984, Note_on_c, 9, 70, 68
3, 36000, Note_on_c, 9, 44, 0
3, 36003, Note_on_c, 9, 70, 0
3, 36025, Note_on_c, 9, 69, 53
3, 36044, Note_on_c, 9, 69, 0
3, 36049, Note_on_c, 9, 70, 73
3, 36068, Note_on_c, 9, 70, 0
3, 36087, Note_on_c, 9, 69, 49
3, 36106, Note_on_c, 9, 69, 0
3, 36114, Note_on_c, 9, 44, 127
3, 36116, Note_on_c, 9, 70, 74
3, 36128, Note_on_c, 9, 44, 0
3, 36132, Note_on_c, 9, 70, 0
3, 36182, Note_on_c, 9, 40, 100
3, 36182, Note_on_c, 9, 44, 100
3, 36182, Note_on_c, 9, 70, 74
3, 36198, Note_on_c, 9, 44, 0
3, 36199, Note_on_c, 9, 70, 0
3, 36200, Note_on_c, 9, 40, 0
3, 36244, Note_on_c, 9, 35, 100
3, 36247, Note_on_c, 9, 44, 100
3, 36247, Note_on_c, 9, 70, 78
3, 36260, Note_on_c, 9, 35, 0
3, 36264, Note_on_c, 9, 70, 0
3, 36268, Note_on_c, 9, 44, 0
3, 36311, Note_on_c, 9, 35, 100
3, 36313, Note_on_c, 9, 70, 76
3, 36328, Note_on_c, 9, 35, 0
3, 36333, Note_on_c, 9, 70, 0
3, 36381, Note_on_c, 9, 70, 69
3, 36381, Note_on_c, 9, 44, 127
3, 36392, Note_on_c, 9, 44, 0
3, 36399, Note_on_c, 9, 70, 0
3, 36446, Note_on_c, 9, 40, 100
3, 36446, Note_on_c, 9, 44, 100
3, 36448, Note_on_c, 9, 70, 87
3, 36462, Note_on_c, 9, 44, 0
3, 36463, Note_on_c, 9, 40, 0
3, 36466, Note_on_c, 9, 70, 0
3, 36514, Note_on_c, 9, 44, 100
3, 36514, Note_on_c, 9, 70, 76
3, 36530, Note_on_c, 9, 70, 0
3, 36532, Note_on_c, 9, 44, 0
3, 36553, Note_on_c, 9, 69, 55
3, 36573, Note_on_c, 9, 69, 0
3, 36580, Note_on_c, 9, 70, 85
3, 36595, Note_on_c, 9, 70, 0
3, 36620, Note_on_c, 9, 69, 46
3, 36642, Note_on_c, 9, 69, 0
3, 36645, Note_on_c, 9, 70, 80
3, 36647, Note_on_c, 9, 44, 127
3, 36661, Note_on_c, 9, 44, 0
3, 36661, Note_on_c, 9, 70, 0
3, 36710, Note_on_c, 9, 70, 77
3, 36716, Note_on_c, 9, 40, 100
3, 36716, Note_on_c, 9, 44, 100
3, 36729, Note_on_c, 9, 70, 0
3, 36732, Note_on_c, 9, 44, 0
3, 36733, Note_on_c, 9, 40, 0
3, 36778, Note_on_c, 9, 35, 100
3, 36778, Note_on_c, 9, 70, 76
3, 36784, Note_on_c, 9, 44, 100
3, 36794, Note_on_c, 9, 70, 0
3, 36795, Note_on_c, 9, 35, 0
3, 36804, Note_on_c, 9, 44, 0
3, 36819, Note_on_c, 9, 69, 56
3, 36836, Note_on_c, 9, 69, 0
3, 36843, Note_on_c, 9, 70, 80
3, 36845, Note_on_c, 9, 35, 100
3, 36862, Note_on_c, 9, 70, 0
3, 36863, Note_on_c, 9, 35, 0
3, 36912, Note_on_c, 9, 70, 73
3, 36913, Note_on_c, 9, 44, 127
3, 36924, Note_on_c, 9, 44, 0
3, 36928, Note_on_c, 9, 70, 0
3, 36979, Note_on_c, 9, 40, 100
3, 36979, Note_on_c, 9, 44, 100
3, 36981, Note_on_c, 9, 70, 80
3, 36995, Note_on_c, 9, 44, 0
3, 36995, Note_on_c, 9, 40, 0
3, 36998, Note_on_c, 9, 70, 0
3, 37044, Note_on_c, 9, 44, 100
3, 37046, Note_on_c, 9, 70, 78
3, 37062, Note_on_c, 9, 70, 0
3, 37065, Note_on_c, 9, 44, 0
3, 37083, Note_on_c, 9, 69, 59
3, 37100, Note_on_c, 9, 69, 0
3, 37110, Note_on_c, 9, 70, 94
3, 37127, Note_on_c, 9, 70, 0
3, 37177, Note_on_c, 9, 70, 70
3, 37193, Note_on_c, 9, 70, 0
3, 37241, Note_on_c, 9, 44, 127
3, 37247, Note_on_c, 9, 70, 85
3, 37252, Note_on_c, 9, 40, 100
3, 37253, Note_on_c, 9, 44, 100
3, 37254, Note_on_c, 9, 44, 0
3, 37264, Note_on_c, 9, 70, 0
3, 37269, Note_on_c, 9, 44, 0
3, 37270, Note_on_c, 9, 40, 0
3, 37313, Note_on_c, 9, 44, 100
3, 37315, Note_on_c, 9, 35, 100
3, 37316, Note_on_c, 9, 70, 72
3, 37330, Note_on_c, 9, 70, 0
3, 37330, Note_on_c, 9, 35, 0
3, 37334, Note_on_c, 9, 44, 0
3, 37358, Note_on_c, 9, 69, 56
3, 37372, Note_on_c, 9, 69, 0
3, 37382, Note_on_c, 9, 35, 100
3, 37384, Note_on_c, 9, 70, 87
3, 37399, Note_on_c, 9, 35, 0
3, 37400, Note_on_c, 9, 70, 0
3, 37449, Note_on_c, 9, 44, 127
3, 37451, Note_on_c, 9, 70, 80
3, 37462, Note_on_c, 9, 44, 0
3, 37467, Note_on_c, 9, 70, 0
3, 37516, Note_on_c, 9, 40, 100
3, 37516, Note_on_c, 9, 44, 100
3, 37518, Note_on_c, 9, 70, 82
3, 37532, Note_on_c, 9, 44, 0
3, 37532, Note_on_c, 9, 40, 0
3, 37534, Note_on_c, 9, 70, 0
3, 37576, Note_on_c, 9, 44, 100
3, 37582, Note_on_c, 9, 70, 78
3, 37599, Note_on_c, 9, 44, 0
3, 37600, Note_on_c, 9, 70, 0
3, 37622, Note_on_c, 9, 69, 56
3, 37640, Note_on_c, 9, 69, 0
3, 37646, Note_on_c, 9, 70, 80
3, 37664, Note_on_c, 9, 70, 0
3, 37686, Note_on_c, 9, 69, 46
3, 37706, Note_on_c, 9, 69, 0
3, 37712, Note_on_c, 9, 44, 127
3, 37714, Note_on_c, 9, 70, 80
3, 37724, Note_on_c, 9, 44, 0
3, 37730, Note_on_c, 9, 70, 0
3, 37779, Note_on_c, 9, 70, 78
3, 37786, Note_on_c, 9, 40, 100
3, 37786, Note_on_c, 9, 44, 100
3, 37797, Note_on_c, 9, 70, 0
3, 37803, Note_on_c, 9, 44, 0
3, 37803, Note_on_c, 9, 40, 0
3, 37848, Note_on_c, 9, 35, 100
3, 37848, Note_on_c, 9, 70, 80
3, 37850, Note_on_c, 9, 44, 100
3, 37864, Note_on_c, 9, 35, 0
3, 37866, Note_on_c, 9, 70, 0
3, 37870, Note_on_c, 9, 44, 0
3, 37914, Note_on_c, 9, 35, 100
3, 37914, Note_on_c, 9, 70, 92
3, 37933, Note_on_c, 9, 70, 0
3, 37933, Note_on_c, 9, 35, 0
3, 37981, Note_on_c, 9, 44, 127
3, 37985, Note_on_c, 9, 70, 78
3, 37991, Note_on_c, 9, 44, 0
3, 38001, Note_on_c, 9, 70, 0
3, 38049, Note_on_c, 9, 40, 100
3, 38049, Note_on_c, 9, 44, 100
3, 38049, Note_on_c, 9, 70, 77
3, 38063, Note_on_c, 9, 40, 0
3, 38064, Note_on_c, 9, 44, 0
3, 38066, Note_on_c, 9, 70, 0
3, 38113, Note_on_c, 9, 70, 78
3, 38114, Note_on_c, 9, 44, 100
3, 38131, Note_on_c, 9, 70, 0
3, 38136, Note_on_c, 9, 44, 0
3, 38156, Note_on_c, 9, 69, 62
3, 38174, Note_on_c, 9, 69, 0
3, 38180, Note_on_c, 9, 70, 92
3, 38196, Note_on_c, 9, 70, 0
3, 38221, Note_on_c, 9, 69, 50
3, 38239, Note_on_c, 9, 69, 0
3, 38244, Note_on_c, 9, 70, 77
3, 38249, Note_on_c, 9, 44, 127
3, 38259, Note_on_c, 9, 44, 0
3, 38260, Note_on_c, 9, 70, 0
3, 38310, Note_on_c, 9, 70, 82
3, 38317, Note_on_c, 9, 40, 100
3, 38317, Note_on_c, 9, 44, 100
3, 38329, Note_on_c, 9, 70, 0
3, 38332, Note_on_c, 9, 44, 0
3, 38332, Note_on_c, 9, 40, 0
3, 38376, Note_on_c, 9, 70, 69
3, 38379, Note_on_c, 9, 35, 100
3, 38379, Note_on_c, 9, 44, 100
3, 38394, Note_on_c, 9, 35, 0
3, 38395, Note_on_c, 9, 70, 0
3, 38400, Note_on_c, 9, 44, 0
3, 38418, Note_on_c, 9, 69, 59
3, 38435, Note_on_c, 9, 69, 0
3, 38444, Note_on_c, 9, 35, 100
3, 38445, Note_on_c, 9, 70, 90
3, 38462, Note_on_c, 9, 35, 0
3, 38464, Note_on_c, 9, 70, 0
3, 38511, Note_on_c, 9, 44, 127
3, 38513, Note_on_c, 9, 70, 80
3, 38524, Note_on_c, 9, 44, 0
3, 38528, Note_on_c, 9, 70, 0
3, 38572, Note_on_c, 9, 40, 100
3, 38572, Note_on_c, 9, 44, 100
3, 38582, Note_on_c, 9, 70, 80
3, 38588, Note_on_c, 9, 40, 0
3, 38589, Note_on_c, 9, 44, 0
3, 38599, Note_on_c, 9, 70, 0
3, 38637, Note_on_c, 9, 44, 100
3, 38644, Note_on_c, 9, 70, 80
3, 38659, Note_on_c, 9, 44, 0
3, 38662, Note_on_c, 9, 70, 0
3, 38684, Note_on_c, 9, 69, 58
3, 38703, Note_on_c, 9, 69, 0
3, 38709, Note_on_c, 9, 70, 90
3, 38726, Note_on_c, 9, 70, 0
3, 38746, Note_on_c, 9, 69, 51
3, 38768, Note_on_c, 9, 69, 0
3, 38775, Note_on_c, 9, 70, 74
3, 38779, Note_on_c, 9, 44, 127
3, 38792, Note_on_c, 9, 44, 0
3, 38793, Note_on_c, 9, 70, 0
3, 38839, Note_on_c, 9, 70, 78
3, 38850, Note_on_c, 9, 40, 100
3, 38851, Note_on_c, 9, 44, 100
3, 38859, Note_on_c, 9, 70, 0
3, 38865, Note_on_c, 9, 44, 0
3, 38867, Note_on_c, 9, 40, 0
3, 38909, Note_on_c, 9, 70, 73
3, 38912, Note_on_c, 9, 44, 100
3, 38913, Note_on_c, 9, 35, 100
3, 38928, Note_on_c, 9, 35, 0
3, 38928, Note_on_c, 9, 70, 0
3, 38935, Note_on_c, 9, 44, 0
3, 38955, Note_on_c, 9, 69, 50
3, 38972, Note_on_c, 9, 69, 0
3, 38981, Note_on_c, 9, 70, 90
3, 38982, Note_on_c, 9, 35, 100
3, 38997, Note_on_c, 9, 70, 0
3, 38999, Note_on_c, 9, 35, 0
3, 39046, Note_on_c, 9, 44, 127
3, 39049, Note_on_c, 9, 70, 80
3, 39057, Note_on_c, 9, 44, 0
3, 39066, Note_on_c, 9, 70, 0
3, 39115, Note_on_c, 9, 40, 100
3, 39115, Note_on_c, 9, 70, 80
3, 39116, Note_on_c, 9, 44, 100
3, 39130, Note_on_c, 9, 40, 0
3, 39131, Note_on_c, 9, 44, 0
3, 39133, Note_on_c, 9, 70, 0
3, 39179, Note_on_c, 9, 44, 100
3, 39181, Note_on_c, 9, 70, 82
3, 39200, Note_on_c, 9, 70, 0
3, 39201, Note_on_c, 9, 44, 0
3, 39220, Note_on_c, 9, 69, 70
3, 39238, Note_on_c, 9, 69, 0
3, 39251, Note_on_c, 9, 70, 97
3, 39268, Note_on_c, 9, 70, 0
3, 39289, Note_on_c, 9, 69, 55
3, 39308, Note_on_c, 9, 69, 0
3, 39313, Note_on_c, 9, 44, 127
3, 39316, Note_on_c, 9, 70, 77
3, 39327, Note_on_c, 9, 44, 0
3, 39332, Note_on_c, 9, 70, 0
3, 39386, Note_on_c, 9, 70, 87
3, 39389, Note_on_c, 9, 40, 100
3, 39390, Note_on_c, 9, 44, 100
3, 39404, Note_on_c, 9, 70, 0
3, 39405, Note_on_c, 9, 44, 0
3, 39405, Note_on_c, 9, 40, 0
3, 39450, Note_on_c, 9, 35, 100
3, 39451, Note_on_c, 9, 70, 72
3, 39453, Note_on_c, 9, 44, 100
3, 39467, Note_on_c, 9, 35, 0
3, 39471, Note_on_c, 9, 70, 0
3, 39475, Note_on_c, 9, 44, 0
3, 39494, Note_on_c, 9, 69, 56
3, 39508, Note_on_c, 9, 69, 0
3, 39515, Note_on_c, 9, 35, 100
3, 39518, Note_on_c, 9, 70, 84
3, 39530, Note_on_c, 9, 35, 0
3, 39535, Note_on_c, 9, 70, 0
3, 39580, Note_on_c, 9, 44, 127
3, 39584, Note_on_c, 9, 70, 74
3, 39593, Note_on_c, 9, 44, 0
3, 39602, Note_on_c, 9, 70, 0
3, 39650, Note_on_c, 9, 40, 100
3, 39650, Note_on_c, 9, 44, 100
3, 39650, Note_on_c, 9, 70, 74
3, 39665, Note_on_c, 9, 40, 0
3, 39666, Note_on_c, 9, 44, 0
3, 39668, Note_on_c, 9, 70, 0
3, 39716, Note_on_c, 9, 70, 73
3, 39720, Note_on_c, 9, 44, 100
3, 39734, Note_on_c, 9, 70, 0
3, 39740, Note_on_c, 9, 44, 0
3, 39758, Note_on_c, 9, 69, 50
3, 39775, Note_on_c, 9, 69, 0
3, 39782, Note_on_c, 9, 70, 78
3, 39799, Note_on_c, 9, 70, 0
3, 39824, Note_on_c, 9, 69, 45
3, 39844, Note_on_c, 9, 69, 0
3, 39849, Note_on_c, 9, 70, 76
3, 39854, Note_on_c, 9, 44, 127
3, 39855, Note_on_c, 9, 45, 127
3, 39861, Note_on_c, 9, 44, 0
3, 39864, Note_on_c, 9, 45, 0
3, 39866, Note_on_c, 9, 70, 0
3, 39917, Note_on_c, 9, 70, 78
3, 39919, Note_on_c, 9, 40, 100
3, 39920, Note_on_c, 9, 44, 100
3, 39936, Note_on_c, 9, 44, 0
3, 39936, Note_on_c, 9, 40, 0
3, 39936, Note_on_c, 9, 70, 0
3, 39984, Note_on_c, 9, 35, 100
3, 39984, Note_on_c, 9, 44, 100
3, 39986, Note_on_c, 9, 70, 76
3, 39999, Note_on_c, 9, 35, 0
3, 40003, Note_on_c, 9, 70, 0
3, 40007, Note_on_c, 9, 44, 0
3, 40028, Note_on_c, 9, 69, 53
3, 40043, Note_on_c, 9, 69, 0
3, 40052, Note_on_c, 9, 35, 100
3, 40053, Note_on_c, 9, 70, 82
3, 40067, Note_on_c, 9, 35, 0
3, 40068, Note_on_c, 9, 70, 0
3, 40114, Note_on_c, 9, 70, 68
3, 40116, Note_on_c, 9, 44, 127
3, 40126, Note_on_c, 9, 44, 0
3, 40132, Note_on_c, 9, 70, 0
3, 40183, Note_on_c, 9, 70, 76
3, 40184, Note_on_c, 9, 40, 100
3, 40184, Note_on_c, 9, 44, 100
3, 40199, Note_on_c, 9, 44, 0
3, 40200, Note_on_c, 9, 40, 0
3, 40201, Note_on_c, 9, 70, 0
3, 40251, Note_on_c, 9, 70, 74
3, 40254, Note_on_c, 9, 44, 100
3, 40269, Note_on_c, 9, 70, 0
3, 40276, Note_on_c, 9, 44, 0
3, 40291, Note_on_c, 9, 69, 46
3, 40311, Note_on_c, 9, 69, 0
3, 40318, Note_on_c, 9, 70, 76
3, 40336, Note_on_c, 9, 70, 0
3, 40358, Note_on_c, 9, 69, 43
3, 40376, Note_on_c, 9, 69, 0
3, 40378, Note_on_c, 9, 44, 127
3, 40383, Note_on_c, 9, 70, 66
3, 40390, Note_on_c, 9, 44, 0
3, 40399, Note_on_c, 9, 70, 0
3, 40448, Note_on_c, 9, 70, 72
3, 40450, Note_on_c, 9, 40, 100
3, 40450, Note_on_c, 9, 44, 100
3, 40466, Note_on_c, 9, 70, 0
3, 40467, Note_on_c, 9, 44, 0
3, 40468, Note_on_c, 9, 40, 0
3, 40510, Note_on_c, 9, 70, 65
3, 40515, Note_on_c, 9, 35, 100
3, 40515, Note_on_c, 9, 44, 100
3, 40530, Note_on_c, 9, 35, 0
3, 40530, Note_on_c, 9, 70, 0
3, 40536, Note_on_c, 9, 44, 0
3, 40553, Note_on_c, 9, 69, 50
3, 40568, Note_on_c, 9, 69, 0
3, 40579, Note_on_c, 9, 35, 100
3, 40580, Note_on_c, 9, 70, 77
3, 40596, Note_on_c, 9, 35, 0
3, 40598, Note_on_c, 9, 70, 0
3, 40642, Note_on_c, 9, 44, 127
3, 40647, Note_on_c, 9, 70, 72
3, 40655, Note_on_c, 9, 44, 0
3, 40665, Note_on_c, 9, 70, 0
3, 40713, Note_on_c, 9, 70, 74
3, 40720, Note_on_c, 9, 40, 100
3, 40720, Note_on_c, 9, 44, 100
3, 40732, Note_on_c, 9, 70, 0
3, 40735, Note_on_c, 9, 40, 0
3, 40736, Note_on_c, 9, 44, 0
3, 40781, Note_on_c, 9, 70, 73
3, 40785, Note_on_c, 9, 44, 100
3, 40800, Note_on_c, 9, 70, 0
3, 40805, Note_on_c, 9, 44, 0
3, 40825, Note_on_c, 9, 69, 45
3, 40844, Note_on_c, 9, 69, 0
3, 40849, Note_on_c, 9, 70, 80
3, 40866, Note_on_c, 9, 70, 0
3, 40894, Note_on_c, 9, 69, 51
3, 40908, Note_on_c, 9, 69, 0
3, 40916, Note_on_c, 9, 70, 69
3, 40918, Note_on_c, 9, 44, 127
3, 40931, Note_on_c, 9, 44, 0
3, 40934, Note_on_c, 9, 70, 0
3, 40982, Note_on_c, 9, 70, 78
3, 40984, Note_on_c, 9, 40, 100
3, 40984, Note_on_c, 9, 44, 100
3, 41000, Note_on_c, 9, 44, 0
3, 41000, Note_on_c, 9, 40, 0
3, 41002, Note_on_c, 9, 70, 0
3, 41046, Note_on_c, 9, 44, 100
3, 41047, Note_on_c, 9, 35, 100
3, 41049, Note_on_c, 9, 70, 74
3, 41063, Note_on_c, 9, 35, 0
3, 41067, Note_on_c, 9, 70, 0
3, 41070, Note_on_c, 9, 44, 0
3, 41090, Note_on_c, 9, 69, 52
3, 41108, Note_on_c, 9, 69, 0
3, 41116, Note_on_c, 9, 35, 100
3, 41116, Note_on_c, 9, 70, 84
3, 41133, Note_on_c, 9, 35, 0
3, 41134, Note_on_c, 9, 70, 0
3, 41182, Note_on_c, 9, 44, 127
3, 41183, Note_on_c, 9, 70, 72
3, 41195, Note_on_c, 9, 44, 0
3, 41201, Note_on_c, 9, 70, 0
3, 41250, Note_on_c, 9, 70, 72
3, 41251, Note_on_c, 9, 40, 100
3, 41251, Note_on_c, 9, 44, 100
3, 41266, Note_on_c, 9, 40, 0
3, 41267, Note_on_c, 9, 44, 0
3, 41267, Note_on_c, 9, 70, 0
3, 41318, Note_on_c, 9, 70, 77
3, 41320, Note_on_c, 9, 44, 100
3, 41337, Note_on_c, 9, 70, 0
3, 41342, Note_on_c, 9, 44, 0
3, 41361, Note_on_c, 9, 69, 50
3, 41379, Note_on_c, 9, 69, 0
3, 41385, Note_on_c, 9, 70, 77
3, 41401, Note_on_c, 9, 70, 0
3, 41428, Note_on_c, 9, 69, 48
3, 41445, Note_on_c, 9, 69, 0
3, 41450, Note_on_c, 9, 70, 72
3, 41450, Note_on_c, 9, 44, 127
3, 41463, Note_on_c, 9, 44, 0
3, 41472, Note_on_c, 9, 70, 0
3, 41516, Note_on_c, 9, 70, 73
3, 41524, Note_on_c, 9, 44, 100
3, 41525, Note_on_c, 9, 40, 100
3, 41535, Note_on_c, 9, 70, 0
3, 41541, Note_on_c, 9, 40, 0
3, 41542, Note_on_c, 9, 44, 0
3, 41582, Note_on_c, 9, 70, 62
3, 41587, Note_on_c, 9, 35, 100
3, 41590, Note_on_c, 9, 44, 100
3, 41600, Note_on_c, 9, 70, 0
3, 41602, Note_on_c, 9, 35, 0
3, 41614, Note_on_c, 9, 44, 0
3, 41626, Note_on_c, 9, 69, 47
3, 41644, Note_on_c, 9, 69, 0
3, 41650, Note_on_c, 9, 70, 84
3, 41657, Note_on_c, 9, 35, 100
3, 41669, Note_on_c, 9, 70, 0
3, 41672, Note_on_c, 9, 35, 0
3, 41717, Note_on_c, 9, 70, 67
3, 41721, Note_on_c, 9, 44, 127
3, 41734, Note_on_c, 9, 44, 0
3, 41736, Note_on_c, 9, 70, 0
3, 41788, Note_on_c, 9, 70, 73
3, 41793, Note_on_c, 9, 40, 100
3, 41793, Note_on_c, 9, 44, 100
3, 41806, Note_on_c, 9, 70, 0
3, 41808, Note_on_c, 9, 40, 0
3, 41809, Note_on_c, 9, 44, 0
3, 41852, Note_on_c, 9, 70, 68
3, 41858, Note_on_c, 9, 44, 100
3, 41871, Note_on_c, 9, 70, 0
3, 41878, Note_on_c, 9, 44, 0
3, 41894, Note_on_c, 9, 69, 52
3, 41913, Note_on_c, 9, 69, 0
3, 41920, Note_on_c, 9, 70, 76
3, 41938, Note_on_c, 9, 70, 0
3, 41964, Note_on_c, 9, 69, 47
3, 41981, Note_on_c, 9, 69, 0
3, 41986, Note_on_c, 9, 70, 65
3, 41986, Note_on_c, 9, 44, 127
3, 41999, Note_on_c, 9, 44, 0
3, 42004, Note_on_c, 9, 70, 0
3, 42052, Note_on_c, 9, 70, 77
3, 42060, Note_on_c, 9, 40, 100
3, 42061, Note_on_c, 9, 44, 100
3, 42071, Note_on_c, 9, 70, 0
3, 42078, Note_on_c, 9, 44, 0
3, 42078, Note_on_c, 9, 40, 0
3, 42118, Note_on_c, 9, 70, 78
3, 42121, Note_on_c, 9, 35, 100
3, 42123, Note_on_c, 9, 44, 100
3, 42134, Note_on_c, 9, 70, 0
3, 42138, Note_on_c, 9, 35, 0
3, 42142, Note_on_c, 9, 44, 0
3, 42161, Note_on_c, 9, 69, 54
3, 42178, Note_on_c, 9, 69, 0
3, 42187, Note_on_c, 9, 70, 90
3, 42191, Note_on_c, 9, 35, 100
3, 42204, Note_on_c, 9, 70, 0
3, 42209, Note_on_c, 9, 35, 0
3, 42250, Note_on_c, 9, 44, 127
3, 42252, Note_on_c, 9, 70, 74
3, 42265, Note_on_c, 9, 44, 0
3, 42268, Note_on_c, 9, 70, 0
3, 42322, Note_on_c, 9, 70, 77
3, 42326, Note_on_c, 9, 44, 100
3, 42326, Note_on_c, 9, 40, 100
3, 42337, Note_on_c, 9, 70, 0
3, 42340, Note_on_c, 9, 40, 0
3, 42342, Note_on_c, 9, 44, 0
3, 42386, Note_on_c, 9, 44, 100
3, 42387, Note_on_c, 9, 70, 77
3, 42404, Note_on_c, 9, 70, 0
3, 42405, Note_on_c, 9, 44, 0
3, 42433, Note_on_c, 9, 69, 37
3, 42455, Note_on_c, 9, 70, 77
3, 42457, Note_on_c, 9, 69, 0
3, 42470, Note_on_c, 9, 70, 0
3, 42496, Note_on_c, 9, 69, 46
3, 42509, Note_on_c, 9, 69, 0
3, 42520, Note_on_c, 9, 44, 127
3, 42521, Note_on_c, 9, 70, 80
3, 42535, Note_on_c, 9, 44, 0
3, 42537, Note_on_c, 9, 70, 0
3, 42589, Note_on_c, 9, 40, 100
3, 42590, Note_on_c, 9, 44, 100
3, 42591, Note_on_c, 9, 70, 85
3, 42606, Note_on_c, 9, 40, 0
3, 42607, Note_on_c, 9, 70, 0
3, 42608, Note_on_c, 9, 44, 0
3, 42653, Note_on_c, 9, 35, 100
3, 42657, Note_on_c, 9, 70, 80
3, 42658, Note_on_c, 9, 44, 100
3, 42668, Note_on_c, 9, 35, 0
3, 42674, Note_on_c, 9, 70, 0
3, 42680, Note_on_c, 9, 44, 0
3, 42695, Note_on_c, 9, 69, 50
3, 42712, Note_on_c, 9, 69, 0
3, 42718, Note_on_c, 9, 35, 100
3, 42726, Note_on_c, 9, 70, 87
3, 42735, Note_on_c, 9, 35, 0
3, 42741, Note_on_c, 9, 70, 0
3, 42786, Note_on_c, 9, 44, 127
3, 42789, Note_on_c, 9, 70, 72
3, 42800, Note_on_c, 9, 44, 0
3, 42806, Note_on_c, 9, 70, 0
3, 42857, Note_on_c, 9, 44, 100
3, 42857, Note_on_c, 9, 40, 100
3, 42857, Note_on_c, 9, 70, 74
3, 42872, Note_on_c, 9, 40, 0
3, 42873, Note_on_c, 9, 44, 0
3, 42875, Note_on_c, 9, 70, 0
3, 42923, Note_on_c, 9, 70, 73
3, 42928, Note_on_c, 9, 44, 100
3, 42941, Note_on_c, 9, 70, 0
3, 42949, Note_on_c, 9, 44, 0
3, 42964, Note_on_c, 9, 69, 53
3, 42981, Note_on_c, 9, 69, 0
3, 42988, Note_on_c, 9, 70, 77
3, 43005, Note_on_c, 9, 70, 0
3, 43030, Note_on_c, 9, 69, 47
3, 43047, Note_on_c, 9, 69, 0
3, 43053, Note_on_c, 9, 44, 127
3, 43054, Note_on_c, 9, 70, 76
3, 43068, Note_on_c, 9, 44, 0
3, 43069, Note_on_c, 9, 70, 0
3, 43112, Note_on_c, 9, 40, 100
3, 43113, Note_on_c, 9, 44, 100
3, 43119, Note_on_c, 9, 70, 85
3, 43130, Note_on_c, 9, 44, 0
3, 43130, Note_on_c, 9, 40, 0
3, 43136, Note_on_c, 9, 70, 0
3, 43175, Note_on_c, 9, 44, 100
3, 43176, Note_on_c, 9, 35, 100
3, 43184, Note_on_c, 9, 70, 80
3, 43192, Note_on_c, 9, 35, 0
3, 43199, Note_on_c, 9, 44, 0
3, 43202, Note_on_c, 9, 70, 0
3, 43223, Note_on_c, 9, 69, 58
3, 43239, Note_on_c, 9, 69, 0
3, 43246, Note_on_c, 9, 35, 100
3, 43248, Note_on_c, 9, 70, 84
3, 43263, Note_on_c, 9, 35, 0
3, 43266, Note_on_c, 9, 70, 0
3, 43313, Note_on_c, 9, 44, 127
3, 43317, Note_on_c, 9, 70, 76
3, 43329, Note_on_c, 9, 44, 0
3, 43334, Note_on_c, 9, 70, 0
3, 43382, Note_on_c, 9, 70, 80
3, 43384, Note_on_c, 9, 40, 100
3, 43384, Note_on_c, 9, 44, 100
3, 43399, Note_on_c, 9, 44, 0
3, 43399, Note_on_c, 9, 40, 0
3, 43400, Note_on_c, 9, 70, 0
3, 43447, Note_on_c, 9, 70, 76
3, 43452, Note_on_c, 9, 44, 100
3, 43466, Note_on_c, 9, 70, 0
3, 43473, Note_on_c, 9, 44, 0
3, 43488, Note_on_c, 9, 69, 53
3, 43506, Note_on_c, 9, 69, 0
3, 43514, Note_on_c, 9, 70, 77
3, 43531, Note_on_c, 9, 70, 0
3, 43555, Note_on_c, 9, 69, 51
3, 43570, Note_on_c, 9, 69, 0
3, 43580, Note_on_c, 9, 70, 77
3, 43581, Note_on_c, 9, 44, 127
3, 43594, Note_on_c, 9, 44, 0
3, 43596, Note_on_c, 9, 70, 0
3, 43648, Note_on_c, 9, 70, 82
3, 43654, Note_on_c, 9, 40, 100
3, 43654, Note_on_c, 9, 44, 100
3, 43666, Note_on_c, 9, 70, 0
3, 43669, Note_on_c, 9, 40, 0
3, 43670, Note_on_c, 9, 44, 0
3, 43714, Note_on_c, 9, 70, 78
3, 43717, Note_on_c, 9, 35, 100
3, 43733, Note_on_c, 9, 35, 0
3, 43733, Note_on_c, 9, 70, 0
3, 43756, Note_on_c, 9, 69, 53
3, 43773, Note_on_c, 9, 69, 0
3, 43783, Note_on_c, 9, 70, 92
3, 43788, Note_on_c, 9, 35, 100
3, 43799, Note_on_c, 9, 70, 0
3, 43804, Note_on_c, 9, 35, 0
3, 43849, Note_on_c, 9, 44, 100
3, 43851, Note_on_c, 9, 44, 127
3, 43854, Note_on_c, 9, 70, 74
3, 43867, Note_on_c, 9, 44, 0
3, 43869, Note_on_c, 9, 44, 0
3, 43871, Note_on_c, 9, 70, 0
3, 43918, Note_on_c, 9, 40, 100
3, 43918, Note_on_c, 9, 44, 100
3, 43919, Note_on_c, 9, 70, 82
3, 43934, Note_on_c, 9, 44, 0
3, 43934, Note_on_c, 9, 40, 0
3, 43938, Note_on_c, 9, 70, 0
3, 43982, Note_on_c, 9, 70, 69
3, 44001, Note_on_c, 9, 70, 0
3, 44026, Note_on_c, 9, 69, 53
3, 44044, Note_on_c, 9, 69, 0
3, 44047, Note_on_c, 9, 70, 73
3, 44064, Note_on_c, 9, 70, 0
3, 44089, Note_on_c, 9, 69, 52
3, 44105, Note_on_c, 9, 69, 0
3, 44109, Note_on_c, 9, 44, 127
3, 44112, Note_on_c, 9, 70, 77
3, 44116, Note_on_c, 9, 44, 100
3, 44122, Note_on_c, 9, 44, 0
3, 44128, Note_on_c, 9, 70, 0
3, 44136, Note_on_c, 9, 44, 0
3, 44178, Note_on_c, 9, 70, 74
3, 44188, Note_on_c, 9, 40, 100
3, 44188, Note_on_c, 9, 44, 100
3, 44195, Note_on_c, 9, 70, 0
3, 44204, Note_on_c, 9, 44, 0
3, 44204, Note_on_c, 9, 40, 0
3, 44247, Note_on_c, 9, 70, 68
3, 44251, Note_on_c, 9, 35, 100
3, 44264, Note_on_c, 9, 70, 0
3, 44267, Note_on_c, 9, 35, 0
3, 44290, Note_on_c, 9, 69, 50
3, 44306, Note_on_c, 9, 69, 0
3, 44316, Note_on_c, 9, 70, 77
3, 44319, Note_on_c, 9, 35, 100
3, 44333, Note_on_c, 9, 70, 0
3, 44337, Note_on_c, 9, 35, 0
3, 44384, Note_on_c, 9, 70, 77
3, 44385, Note_on_c, 9, 44, 100
3, 44387, Note_on_c, 9, 44, 127
3, 44400, Note_on_c, 9, 44, 0
3, 44400, Note_on_c, 9, 70, 0
3, 44410, Note_on_c, 9, 44, 0
3, 44454, Note_on_c, 9, 40, 100
3, 44454, Note_on_c, 9, 44, 100
3, 44454, Note_on_c, 9, 70, 82
3, 44470, Note_on_c, 9, 44, 0
3, 44471, Note_on_c, 9, 70, 0
3, 44471, Note_on_c, 9, 40, 0
3, 44520, Note_on_c, 9, 70, 73
3, 44539, Note_on_c, 9, 70, 0
3, 44564, Note_on_c, 9, 69, 45
3, 44579, Note_on_c, 9, 69, 0
3, 44588, Note_on_c, 9, 70, 80
3, 44604, Note_on_c, 9, 70, 0
3, 44630, Note_on_c, 9, 69, 50
3, 44648, Note_on_c, 9, 69, 0
3, 44650, Note_on_c, 9, 44, 127
3, 44654, Note_on_c, 9, 70, 76
3, 44658, Note_on_c, 9, 44, 100
3, 44663, Note_on_c, 9, 44, 0
3, 44671, Note_on_c, 9, 70, 0
3, 44678, Note_on_c, 9, 44, 0
3, 44721, Note_on_c, 9, 70, 77
3, 44727, Note_on_c, 9, 40, 100
3, 44727, Note_on_c, 9, 44, 100
3, 44740, Note_on_c, 9, 70, 0
3, 44742, Note_on_c, 9, 40, 0
3, 44743, Note_on_c, 9, 44, 0
3, 44789, Note_on_c, 9, 70, 73
3, 44790, Note_on_c, 9, 35, 100
3, 44806, Note_on_c, 9, 35, 0
3, 44806, Note_on_c, 9, 70, 0
3, 44830, Note_on_c, 9, 69, 53
3, 44846, Note_on_c, 9, 69, 0
3, 44856, Note_on_c, 9, 70, 77
3, 44860, Note_on_c, 9, 35, 100
3, 44872, Note_on_c, 9, 70, 0
3, 44878, Note_on_c, 9, 35, 0
3, 44921, Note_on_c, 9, 44, 100
3, 44924, Note_on_c, 9, 70, 78
3, 44924, Note_on_c, 9, 44, 127
3, 44939, Note_on_c, 9, 44, 0
3, 44939, Note_on_c, 9, 70, 0
3, 44942, Note_on_c, 9, 44, 0
3, 44990, Note_on_c, 9, 70, 78
3, 44992, Note_on_c, 9, 40, 100
3, 44993, Note_on_c, 9, 44, 100
3, 45007, Note_on_c, 9, 70, 0
3, 45008, Note_on_c, 9, 44, 0
3, 45008, Note_on_c, 9, 40, 0
3, 45058, Note_on_c, 9, 70, 78
3, 45075, Note_on_c, 9, 70, 0
3, 45100, Note_on_c, 9, 69, 51
3, 45118, Note_on_c, 9, 69, 0
3, 45125, Note_on_c, 9, 70, 87
3, 45141, Note_on_c, 9, 70, 0
3, 45188, Note_on_c, 9, 44, 100
3, 45189, Note_on_c, 9, 44, 127
3, 45191, Note_on_c, 9, 70, 80
3, 45204, Note_on_c, 9, 44, 0
3, 45209, Note_on_c, 9, 70, 0
3, 45209, Note_on_c, 9, 44, 0
3, 45253, Note_on_c, 9, 40, 100
3, 45255, Note_on_c, 9, 44, 100
3, 45258, Note_on_c, 9, 70, 74
3, 45271, Note_on_c, 9, 44, 0
3, 45272, Note_on_c, 9, 40, 0
3, 45275, Note_on_c, 9, 70, 0
3, 45318, Note_on_c, 9, 35, 100
3, 45323, Note_on_c, 9, 70, 80
3, 45335, Note_on_c, 9, 35, 0
3, 45339, Note_on_c, 9, 70, 0
3, 45360, Note_on_c, 9, 69, 56
3, 45378, Note_on_c, 9, 69, 0
3, 45386, Note_on_c, 9, 35, 100
3, 45389, Note_on_c, 9, 70, 80
3, 45404, Note_on_c, 9, 70, 0
3, 45406, Note_on_c, 9, 35, 0
3, 45426, Note_on_c, 9, 69, 46
3, 45442, Note_on_c, 9, 69, 0
3, 45452, Note_on_c, 9, 44, 100
3, 45454, Note_on_c, 9, 70, 78
3, 45454, Note_on_c, 9, 44, 127
3, 45469, Note_on_c, 9, 44, 0
3, 45470, Note_on_c, 9, 70, 0
3, 45474, Note_on_c, 9, 44, 0
3, 45518, Note_on_c, 9, 40, 100
3, 45519, Note_on_c, 9, 44, 100
3, 45519, Note_on_c, 9, 70, 80
3, 45536, Note_on_c, 9, 44, 0
3, 45536, Note_on_c, 9, 40, 0
3, 45538, Note_on_c, 9, 70, 0
3, 45585, Note_on_c, 9, 70, 77
3, 45601, Note_on_c, 9, 70, 0
3, 45625, Note_on_c, 9, 69, 65
3, 45640, Note_on_c, 9, 69, 0
3, 45648, Note_on_c, 9, 70, 78
3, 45666, Note_on_c, 9, 70, 0
3, 45712, Note_on_c, 9, 44, 127
3, 45717, Note_on_c, 9, 70, 76
3, 45724, Note_on_c, 9, 44, 100
3, 45725, Note_on_c, 9, 44, 0
3, 45733, Note_on_c, 9, 70, 0
3, 45746, Note_on_c, 9, 44, 0
3, 45784, Note_on_c, 9, 70, 78
3, 45790, Note_on_c, 9, 44, 100
3, 45791, Note_on_c, 9, 40, 100
3, 45801, Note_on_c, 9, 70, 0
3, 45806, Note_on_c, 9, 40, 0
3, 45808, Note_on_c, 9, 44, 0
3, 45851, Note_on_c, 9, 70, 78
3, 45857, Note_on_c, 9, 35, 100
3, 45869, Note_on_c, 9, 70, 0
3, 45873, Note_on_c, 9, 35, 0
3, 45896, Note_on_c, 9, 69, 46
3, 45914, Note_on_c, 9, 69, 0
3, 45916, Note_on_c, 9, 70, 74
3, 45923, Note_on_c, 9, 35, 100
3, 45934, Note_on_c, 9, 70, 0
3, 45943, Note_on_c, 9, 35, 0
3, 45960, Note_on_c, 9, 69, 53
3, 45975, Note_on_c, 9, 69, 0
3, 45982, Note_on_c, 9, 70, 76
3, 45985, Note_on_c, 9, 44, 100
3, 45988, Note_on_c, 9, 44, 127
3, 46000, Note_on_c, 9, 70, 0
3, 46002, Note_on_c, 9, 44, 0
3, 46004, Note_on_c, 9, 44, 0
3, 46050, Note_on_c, 9, 70, 77
3, 46056, Note_on_c, 9, 40, 100
3, 46057, Note_on_c, 9, 44, 100
3, 46069, Note_on_c, 9, 70, 0
3, 46072, Note_on_c, 9, 40, 0
3, 46074, Note_on_c, 9, 44, 0
3, 46118, Note_on_c, 9, 70, 73
3, 46136, Note_on_c, 9, 70, 0
3, 46159, Note_on_c, 9, 69, 52
3, 46178, Note_on_c, 9, 69, 0
3, 46188, Note_on_c, 9, 70, 80
3, 46205, Note_on_c, 9, 70, 0
3, 46255, Note_on_c, 9, 70, 73
3, 46257, Note_on_c, 9, 44, 100
3, 46257, Note_on_c, 9, 44, 127
3, 46268, Note_on_c, 9, 44, 0
3, 46272, Note_on_c, 9, 70, 0
3, 46279, Note_on_c, 9, 44, 0
3, 46324, Note_on_c, 9, 70, 78
3, 46330, Note_on_c, 9, 40, 100
3, 46330, Note_on_c, 9, 44, 100
3, 46342, Note_on_c, 9, 70, 0
3, 46345, Note_on_c, 9, 40, 0
3, 46347, Note_on_c, 9, 44, 0
3, 46390, Note_on_c, 9, 70, 76
3, 46394, Note_on_c, 9, 35, 100
3, 46406, Note_on_c, 9, 70, 0
3, 46411, Note_on_c, 9, 35, 0
3, 46431, Note_on_c, 9, 69, 56
3, 46447, Note_on_c, 9, 69, 0
3, 46457, Note_on_c, 9, 70, 80
3, 46461, Note_on_c, 9, 35, 100
3, 46474, Note_on_c, 9, 70, 0
3, 46480, Note_on_c, 9, 35, 0
3, 46505, Note_on_c, 9, 69, 46
3, 46520, Note_on_c, 9, 69, 0
3, 46524, Note_on_c, 9, 44, 100
3, 46524, Note_on_c, 9, 44, 127
3, 46526, Note_on_c, 9, 70, 64
3, 46539, Note_on_c, 9, 44, 0
3, 46544, Note_on_c, 9, 70, 0
3, 46546, Note_on_c, 9, 44, 0
3, 46593, Note_on_c, 9, 44, 100
3, 46595, Note_on_c, 9, 40, 100
3, 46595, Note_on_c, 9, 70, 82
3, 46609, Note_on_c, 9, 40, 0
3, 46612, Note_on_c, 9, 70, 0
3, 46612, Note_on_c, 9, 44, 0
3, 46659, Note_on_c, 9, 70, 74
3, 46677, Note_on_c, 9, 70, 0
3, 46699, Note_on_c, 9, 69, 52
3, 46716, Note_on_c, 9, 69, 0
3, 46728, Note_on_c, 9, 70, 82
3, 46744, Note_on_c, 9, 70, 0
3, 46791, Note_on_c, 9, 44, 127
3, 46795, Note_on_c, 9, 70, 76
3, 46796, Note_on_c, 9, 44, 100
3, 46805, Note_on_c, 9, 44, 0
3, 46812, Note_on_c, 9, 70, 0
3, 46815, Note_on_c, 9, 44, 0
3, 46861, Note_on_c, 9, 44, 100
3, 46861, Note_on_c, 9, 70, 74
3, 46863, Note_on_c, 9, 40, 100
3, 46877, Note_on_c, 9, 40, 0
3, 46879, Note_on_c, 9, 70, 0
3, 46880, Note_on_c, 9, 44, 0
3, 46927, Note_on_c, 9, 35, 100
3, 46928, Note_on_c, 9, 70, 80
3, 46944, Note_on_c, 9, 35, 0
3, 46946, Note_on_c, 9, 70, 0
3, 46967, Note_on_c, 9, 69, 52
3, 46985, Note_on_c, 9, 69, 0
3, 46996, Note_on_c, 9, 35, 100
3, 46996, Note_on_c, 9, 70, 82
3, 47011, Note_on_c, 9, 70, 0
3, 47018, Note_on_c, 9, 35, 0
3, 47038, Note_on_c, 9, 69, 44
3, 47056, Note_on_c, 9, 69, 0
3, 47056, Note_on_c, 9, 44, 100
3, 47059, Note_on_c, 9, 44, 127
3, 47060, Note_on_c, 9, 70, 72
3, 47074, Note_on_c, 9, 44, 0
3, 47077, Note_on_c, 9, 70, 0
3, 47078, Note_on_c, 9, 44, 0
3, 47126, Note_on_c, 9, 70, 77
3, 47128, Note_on_c, 9, 44, 100
3, 47128, Note_on_c, 9, 40, 100
3, 47143, Note_on_c, 9, 70, 0
3, 47145, Note_on_c, 9, 40, 0
3, 47147, Note_on_c, 9, 44, 0
3, 47193, Note_on_c, 9, 70, 70
3, 47210, Note_on_c, 9, 70, 0
3, 47233, Note_on_c, 9, 69, 53
3, 47252, Note_on_c, 9, 69, 0
3, 47258, Note_on_c, 9, 70, 80
3, 47275, Note_on_c, 9, 70, 0
3, 47317, Note_on_c, 9, 44, 100
3, 47324, Note_on_c, 9, 44, 127
3, 47325, Note_on_c, 9, 70, 74
3, 47335, Note_on_c, 9, 44, 0
3, 47339, Note_on_c, 9, 44, 0
3, 47342, Note_on_c, 9, 70, 0
3, 47386, Note_on_c, 9, 40, 100
3, 47386, Note_on_c, 9, 44, 100
3, 47394, Note_on_c, 9, 70, 77
3, 47403, Note_on_c, 9, 40, 0
3, 47404, Note_on_c, 9, 44, 0
3, 47411, Note_on_c, 9, 70, 0
3, 47449, Note_on_c, 9, 35, 100
3, 47459, Note_on_c, 9, 70, 77
3, 47466, Note_on_c, 9, 35, 0
3, 47476, Note_on_c, 9, 70, 0
3, 47494, Note_on_c, 9, 69, 53
3, 47512, Note_on_c, 9, 69, 0
3, 47522, Note_on_c, 9, 35, 100
3, 47523, Note_on_c, 9, 70, 77
3, 47539, Note_on_c, 9, 70, 0
3, 47542, Note_on_c, 9, 35, 0
3, 47568, Note_on_c, 9, 69, 52
3, 47581, Note_on_c, 9, 44, 127
3, 47585, Note_on_c, 9, 69, 0
3, 47589, Note_on_c, 9, 44, 100
3, 47593, Note_on_c, 9, 44, 0
3, 47593, Note_on_c, 9, 70, 72
3, 47609, Note_on_c, 9, 44, 0
3, 47610, Note_on_c, 9, 70, 0
3, 47655, Note_on_c, 9, 44, 100
3, 47656, Note_on_c, 9, 70, 77
3, 47657, Note_on_c, 9, 40, 100
3, 47673, Note_on_c, 9, 40, 0
3, 47675, Note_on_c, 9, 70, 0
3, 47675, Note_on_c, 9, 44, 0
3, 47723, Note_on_c, 9, 70, 69
3, 47741, Note_on_c, 9, 70, 0
3, 47762, Note_on_c, 9, 69, 45
3, 47784, Note_on_c, 9, 69, 0
3, 47788, Note_on_c, 9, 70, 80
3, 47804, Note_on_c, 9, 70, 0
3, 47850, Note_on_c, 9, 44, 127
3, 47854, Note_on_c, 9, 70, 74
3, 47861, Note_on_c, 9, 44, 0
3, 47873, Note_on_c, 9, 70, 0
3, 47918, Note_on_c, 9, 44, 100
3, 47919, Note_on_c, 9, 40, 100
3, 47924, Note_on_c, 9, 70, 80
3, 47934, Note_on_c, 9, 40, 0
3, 47937, Note_on_c, 9, 44, 0
3, 47944, Note_on_c, 9, 70, 0
3, 47976, Note_on_c, 9, 44, 100
3, 47978, Note_on_c, 9, 35, 100
3, 47989, Note_on_c, 9, 70, 74
3, 47992, Note_on_c, 9, 44, 0
3, 47996, Note_on_c, 9, 35, 0
3, 48007, Note_on_c, 9, 70, 0
3, 48029, Note_on_c, 9, 69, 49
3, 48049, Note_on_c, 9, 69, 0
3, 48051, Note_on_c, 9, 35, 100
3, 48057, Note_on_c, 9, 70, 78
3, 48072, Note_on_c, 9, 35, 0
3, 48074, Note_on_c, 9, 70, 0
3, 48100, Note_on_c, 9, 69, 41
3, 48118, Note_on_c, 9, 69, 0
3, 48120, Note_on_c, 9, 44, 127
3, 48123, Note_on_c, 9, 70, 76
3, 48131, Note_on_c, 9, 44, 0
3, 48137, Note_on_c, 9, 70, 0
3, 48187, Note_on_c, 9, 44, 100
3, 48187, Note_on_c, 9, 70, 76
3, 48190, Note_on_c, 9, 40, 100
3, 48204, Note_on_c, 9, 40, 0
3, 48205, Note_on_c, 9, 44, 0
3, 48206, Note_on_c, 9, 70, 0
3, 48255, Note_on_c, 9, 70, 66
3, 48257, Note_on_c, 9, 44, 100
3, 48274, Note_on_c, 9, 44, 0
3, 48275, Note_on_c, 9, 70, 0
3, 48296, Note_on_c, 9, 69, 51
3, 48315, Note_on_c, 9, 69, 0
3, 48322, Note_on_c, 9, 70, 76
3, 48340, Note_on_c, 9, 70, 0
3, 48390, Note_on_c, 9, 44, 127
3, 48392, Note_on_c, 9, 70, 67
3, 48402, Note_on_c, 9, 44, 0
3, 48410, Note_on_c, 9, 70, 0
3, 48453, Note_on_c, 9, 44, 100
3, 48454, Note_on_c, 9, 40, 100
3, 48459, Note_on_c, 9, 70, 77
3, 48469, Note_on_c, 9, 40, 0
3, 48469, Note_on_c, 9, 44, 0
3, 48477, Note_on_c, 9, 70, 0
3, 48513, Note_on_c, 9, 44, 100
3, 48518, Note_on_c, 9, 35, 100
3, 48521, Note_on_c, 9, 70, 72
3, 48530, Note_on_c, 9, 44, 0
3, 48534, Note_on_c, 9, 35, 0
3, 48540, Note_on_c, 9, 70, 0
3, 48561, Note_on_c, 9, 69, 56
3, 48580, Note_on_c, 9, 69, 0
3, 48584, Note_on_c, 9, 35, 100
3, 48586, Note_on_c, 9, 70, 76
3, 48602, Note_on_c, 9, 70, 0
3, 48602, Note_on_c, 9, 35, 0
3, 48628, Note_on_c, 9, 69, 49
3, 48645, Note_on_c, 9, 69, 0
3, 48653, Note_on_c, 9, 70, 70
3, 48656, Note_on_c, 9, 44, 127
3, 48669, Note_on_c, 9, 44, 0
3, 48671, Note_on_c, 9, 70, 0
3, 48715, Note_on_c, 9, 40, 100
3, 48716, Note_on_c, 9, 44, 100
3, 48720, Note_on_c, 9, 70, 74
3, 48732, Note_on_c, 9, 44, 0
3, 48733, Note_on_c, 9, 40, 0
3, 48738, Note_on_c, 9, 70, 0
3, 48787, Note_on_c, 9, 70, 74
3, 48800, Note_on_c, 9, 44, 100
3, 48800, Note_on_c, 9, 44, 0
3, 48803, Note_on_c, 9, 70, 0
3, 48822, Note_on_c, 9, 69, 55
3, 48840, Note_on_c, 9, 69, 0
3, 48851, Note_on_c, 9, 70, 77
3, 48867, Note_on_c, 9, 70, 0
3, 48892, Note_on_c, 9, 69, 45
3, 48908, Note_on_c, 9, 69, 0
3, 48916, Note_on_c, 9, 70, 73
3, 48918, Note_on_c, 9, 44, 127
3, 48929, Note_on_c, 9, 44, 0
3, 48934, Note_on_c, 9, 70, 0
3, 48985, Note_on_c, 9, 40, 100
3, 48985, Note_on_c, 9, 44, 100
3, 48985, Note_on_c, 9, 70, 76
3, 49002, Note_on_c, 9, 40, 0
3, 49003, Note_on_c, 9, 44, 0
3, 49004, Note_on_c, 9, 70, 0
3, 49046, Note_on_c, 9, 35, 100
3, 49047, Note_on_c, 9, 44, 100
3, 49053, Note_on_c, 9, 70, 77
3, 49066, Note_on_c, 9, 44, 0
3, 49066, Note_on_c, 9, 35, 0
3, 49072, Note_on_c, 9, 70, 0
3, 49092, Note_on_c, 9, 69, 50
3, 49108, Note_on_c, 9, 69, 0
3, 49111, Note_on_c, 9, 35, 100
3, 49120, Note_on_c, 9, 70, 76
3, 49131, Note_on_c, 9, 35, 0
3, 49139, Note_on_c, 9, 70, 0
3, 49180, Note_on_c, 9, 44, 127
3, 49188, Note_on_c, 9, 70, 64
3, 49193, Note_on_c, 9, 44, 0
3, 49204, Note_on_c, 9, 70, 0
3, 49244, Note_on_c, 9, 44, 100
3, 49244, Note_on_c, 9, 40, 100
3, 49255, Note_on_c, 9, 70, 67
3, 49260, Note_on_c, 9, 40, 0
3, 49261, Note_on_c, 9, 44, 0
3, 49272, Note_on_c, 9, 70, 0
3, 49310, Note_on_c, 9, 44, 100
3, 49318, Note_on_c, 9, 70, 77
3, 49328, Note_on_c, 9, 44, 0
3, 49336, Note_on_c, 9, 70, 0
3, 49358, Note_on_c, 9, 69, 46
3, 49378, Note_on_c, 9, 69, 0
3, 49378, Note_on_c, 9, 70, 66
3, 49398, Note_on_c, 9, 70, 0
3, 49421, Note_on_c, 9, 69, 41
3, 49440, Note_on_c, 9, 70, 67
3, 49441, Note_on_c, 9, 69, 0
3, 49444, Note_on_c, 9, 44, 127
3, 49460, Note_on_c, 9, 44, 0
3, 49460, Note_on_c, 9, 70, 0
3, 49507, Note_on_c, 9, 70, 66
3, 49512, Note_on_c, 9, 44, 100
3, 49514, Note_on_c, 9, 40, 100
3, 49528, Note_on_c, 9, 70, 0
3, 49529, Note_on_c, 9, 40, 0
3, 49532, Note_on_c, 9, 44, 0
3, 49570, Note_on_c, 9, 35, 100
3, 49577, Note_on_c, 9, 70, 68
3, 49578, Note_on_c, 9, 44, 100
3, 49588, Note_on_c, 9, 35, 0
3, 49596, Note_on_c, 9, 44, 0
3, 49597, Note_on_c, 9, 70, 0
3, 49620, Note_on_c, 9, 69, 50
3, 49638, Note_on_c, 9, 35, 100
3, 49640, Note_on_c, 9, 69, 0
3, 49645, Note_on_c, 9, 70, 73
3, 49657, Note_on_c, 9, 35, 0
3, 49664, Note_on_c, 9, 70, 0
3, 49710, Note_on_c, 9, 44, 127
3, 49712, Note_on_c, 9, 70, 66
3, 49722, Note_on_c, 9, 44, 0
3, 49729, Note_on_c, 9, 70, 0
3, 49770, Note_on_c, 9, 44, 100
3, 49771, Note_on_c, 9, 40, 100
3, 49777, Note_on_c, 9, 70, 76
3, 49787, Note_on_c, 9, 40, 0
3, 49790, Note_on_c, 9, 44, 0
3, 49795, Note_on_c, 9, 70, 0
3, 49839, Note_on_c, 9, 44, 100
3, 49843, Note_on_c, 9, 70, 77
3, 49856, Note_on_c, 9, 44, 0
3, 49858, Note_on_c, 9, 70, 0
3, 49878, Note_on_c, 9, 69, 50
3, 49895, Note_on_c, 9, 69, 0
3, 49906, Note_on_c, 9, 70, 78
3, 49921, Note_on_c, 9, 70, 0
3, 49950, Note_on_c, 9, 69, 59
3, 49966, Note_on_c, 9, 69, 0
3, 49969, Note_on_c, 9, 44, 127
3, 49972, Note_on_c, 9, 70, 74
3, 49984, Note_on_c, 9, 44, 0
3, 49987, Note_on_c, 9, 70, 0
3, 50041, Note_on_c, 9, 44, 100
3, 50041, Note_on_c, 9, 70, 78
3, 50042, Note_on_c, 9, 40, 100
3, 50058, Note_on_c, 9, 70, 0
3, 50061, Note_on_c, 9, 40, 0
3, 50064, Note_on_c, 9, 44, 0
3, 50106, Note_on_c, 9, 35, 100
3, 50106, Note_on_c, 9, 44, 100
3, 50107, Note_on_c, 9, 70, 64
3, 50123, Note_on_c, 9, 70, 0
3, 50124, Note_on_c, 9, 35, 0
3, 50125, Note_on_c, 9, 44, 0
3, 50146, Note_on_c, 9, 69, 58
3, 50163, Note_on_c, 9, 69, 0
3, 50173, Note_on_c, 9, 70, 84
3, 50174, Note_on_c, 9, 35, 100
3, 50189, Note_on_c, 9, 70, 0
3, 50195, Note_on_c, 9, 35, 0
3, 50238, Note_on_c, 9, 44, 127
3, 50244, Note_on_c, 9, 70, 69
3, 50252, Note_on_c, 9, 44, 0
3, 50258, Note_on_c, 9, 70, 0
3, 50307, Note_on_c, 9, 44, 100
3, 50310, Note_on_c, 9, 40, 100
3, 50312, Note_on_c, 9, 70, 84
3, 50324, Note_on_c, 9, 40, 0
3, 50327, Note_on_c, 9, 44, 0
3, 50328, Note_on_c, 9, 70, 0
3, 50376, Note_on_c, 9, 70, 70
3, 50380, Note_on_c, 9, 44, 100
3, 50392, Note_on_c, 9, 70, 0
3, 50399, Note_on_c, 9, 44, 0
3, 50418, Note_on_c, 9, 69, 52
3, 50435, Note_on_c, 9, 69, 0
3, 50441, Note_on_c, 9, 70, 90
3, 50459, Note_on_c, 9, 70, 0
3, 50508, Note_on_c, 9, 70, 76
3, 50508, Note_on_c, 9, 44, 127
3, 50521, Note_on_c, 9, 44, 0
3, 50526, Note_on_c, 9, 70, 0
3, 50575, Note_on_c, 9, 44, 100
3, 50576, Note_on_c, 9, 40, 100
3, 50576, Note_on_c, 9, 70, 84
3, 50594, Note_on_c, 9, 70, 0
3, 50595, Note_on_c, 9, 40, 0
3, 50598, Note_on_c, 9, 44, 0
3, 50638, Note_on_c, 9, 35, 100
3, 50639, Note_on_c, 9, 44, 100
3, 50643, Note_on_c, 9, 70, 85
3, 50653, Note_on_c, 9, 35, 0
3, 50655, Note_on_c, 9, 44, 0
3, 50659, Note_on_c, 9, 70, 0
3, 50681, Note_on_c, 9, 69, 61
3, 50699, Note_on_c, 9, 69, 0
3, 50706, Note_on_c, 9, 35, 100
3, 50707, Note_on_c, 9, 70, 87
3, 50722, Note_on_c, 9, 70, 0
3, 50724, Note_on_c, 9, 35, 0
3, 50750, Note_on_c, 9, 69, 48
3, 50765, Note_on_c, 9, 69, 0
3, 50773, Note_on_c, 9, 44, 127
3, 50774, Note_on_c, 9, 70, 74
3, 50786, Note_on_c, 9, 44, 0
3, 50788, Note_on_c, 9, 70, 0
3, 50838, Note_on_c, 9, 44, 100
3, 50838, Note_on_c, 9, 40, 100
3, 50839, Note_on_c, 9, 70, 77
3, 50855, Note_on_c, 9, 40, 0
3, 50855, Note_on_c, 9, 44, 0
3, 50856, Note_on_c, 9, 70, 0
3, 50904, Note_on_c, 9, 70, 73
3, 50906, Note_on_c, 9, 44, 100
3, 50921, Note_on_c, 9, 70, 0
3, 50925, Note_on_c, 9, 44, 0
3, 50946, Note_on_c, 9, 69, 53
3, 50960, Note_on_c, 9, 69, 0
3, 50970, Note_on_c, 9, 70, 78
3, 50986, Note_on_c, 9, 70, 0
3, 51035, Note_on_c, 9, 44, 127
3, 51038, Note_on_c, 9, 70, 76
3, 51049, Note_on_c, 9, 44, 0
3, 51054, Note_on_c, 9, 70, 0
3, 51104, Note_on_c, 9, 44, 100
3, 51106, Note_on_c, 9, 40, 100
3, 51108, Note_on_c, 9, 70, 80
3, 51120, Note_on_c, 9, 40, 0
3, 51122, Note_on_c, 9, 44, 0
3, 51125, Note_on_c, 9, 70, 0
3, 51170, Note_on_c, 9, 35, 100
3, 51171, Note_on_c, 9, 44, 100
3, 51174, Note_on_c, 9, 70, 78
3, 51188, Note_on_c, 9, 35, 0
3, 51189, Note_on_c, 9, 44, 0
3, 51190, Note_on_c, 9, 70, 0
3, 51211, Note_on_c, 9, 69, 55
3, 51229, Note_on_c, 9, 69, 0
3, 51236, Note_on_c, 9, 35, 100
3, 51238, Note_on_c, 9, 70, 77
3, 51254, Note_on_c, 9, 70, 0
3, 51255, Note_on_c, 9, 35, 0
3, 51277, Note_on_c, 9, 69, 49
3, 51292, Note_on_c, 9, 69, 0
3, 51303, Note_on_c, 9, 70, 78
3, 51305, Note_on_c, 9, 44, 127
3, 51317, Note_on_c, 9, 70, 0
3, 51320, Note_on_c, 9, 44, 0
3, 51365, Note_on_c, 9, 40, 100
3, 51366, Note_on_c, 9, 44, 100
3, 51371, Note_on_c, 9, 70, 85
3, 51383, Note_on_c, 9, 44, 0
3, 51384, Note_on_c, 9, 40, 0
3, 51388, Note_on_c, 9, 70, 0
3, 51432, Note_on_c, 9, 44, 100
3, 51434, Note_on_c, 9, 70, 80
3, 51450, Note_on_c, 9, 70, 0
3, 51451, Note_on_c, 9, 44, 0
3, 51473, Note_on_c, 9, 69, 46
3, 51488, Note_on_c, 9, 69, 0
3, 51501, Note_on_c, 9, 70, 82
3, 51515, Note_on_c, 9, 70, 0
3, 51568, Note_on_c, 9, 70, 73
3, 51573, Note_on_c, 9, 44, 127
3, 51584, Note_on_c, 9, 70, 0
3, 51588, Note_on_c, 9, 44, 0
3, 51635, Note_on_c, 9, 70, 73
3, 51642, Note_on_c, 9, 44, 100
3, 51643, Note_on_c, 9, 40, 100
3, 51652, Note_on_c, 9, 70, 0
3, 51660, Note_on_c, 9, 40, 0
3, 51662, Note_on_c, 9, 44, 0
3, 51705, Note_on_c, 9, 70, 76
3, 51706, Note_on_c, 9, 35, 100
3, 51710, Note_on_c, 9, 44, 100
3, 51723, Note_on_c, 9, 35, 0
3, 51723, Note_on_c, 9, 70, 0
3, 51730, Note_on_c, 9, 44, 0
3, 51750, Note_on_c, 9, 69, 49
3, 51765, Note_on_c, 9, 69, 0
3, 51774, Note_on_c, 9, 35, 100
3, 51774, Note_on_c, 9, 70, 84
3, 51789, Note_on_c, 9, 70, 0
3, 51794, Note_on_c, 9, 35, 0
3, 51838, Note_on_c, 9, 44, 127
3, 51842, Note_on_c, 9, 70, 70
3, 51853, Note_on_c, 9, 44, 0
3, 51856, Note_on_c, 9, 70, 0
3, 51906, Note_on_c, 9, 44, 100
3, 51907, Note_on_c, 9, 40, 100
3, 51911, Note_on_c, 9, 70, 85
3, 51923, Note_on_c, 9, 40, 0
3, 51924, Note_on_c, 9, 44, 0
3, 51929, Note_on_c, 9, 70, 0
3, 51973, Note_on_c, 9, 44, 100
3, 51974, Note_on_c, 9, 70, 78
3, 51990, Note_on_c, 9, 70, 0
3, 51991, Note_on_c, 9, 44, 0
3, 52012, Note_on_c, 9, 69, 53
3, 52027, Note_on_c, 9, 69, 0
3, 52040, Note_on_c, 9, 70, 92
3, 52053, Note_on_c, 9, 70, 0
3, 52075, Note_on_c, 9, 69, 52
3, 52093, Note_on_c, 9, 69, 0
3, 52103, Note_on_c, 9, 44, 127
3, 52112, Note_on_c, 9, 70, 87
3, 52118, Note_on_c, 9, 44, 0
3, 52125, Note_on_c, 9, 70, 0
3, 52175, Note_on_c, 9, 40, 100
3, 52175, Note_on_c, 9, 44, 100
3, 52177, Note_on_c, 9, 70, 90
3, 52190, Note_on_c, 9, 44, 0
3, 52191, Note_on_c, 9, 40, 0
3, 52194, Note_on_c, 9, 70, 0
3, 52240, Note_on_c, 9, 44, 100
3, 52241, Note_on_c, 9, 35, 100
3, 52242, Note_on_c, 9, 70, 78
3, 52257, Note_on_c, 9, 35, 0
3, 52257, Note_on_c, 9, 44, 0
3, 52258, Note_on_c, 9, 70, 0
3, 52282, Note_on_c, 9, 69, 43
3, 52298, Note_on_c, 9, 69, 0
3, 52307, Note_on_c, 9, 70, 85
3, 52308, Note_on_c, 9, 35, 100
3, 52324, Note_on_c, 9, 70, 0
3, 52325, Note_on_c, 9, 35, 0
3, 52372, Note_on_c, 9, 70, 77
3, 52376, Note_on_c, 9, 44, 127
3, 52390, Note_on_c, 9, 44, 0
3, 52390, Note_on_c, 9, 70, 0
3, 52439, Note_on_c, 9, 44, 100
3, 52440, Note_on_c, 9, 40, 100
3, 52442, Note_on_c, 9, 70, 77
3, 52455, Note_on_c, 9, 40, 0
3, 52455, Note_on_c, 9, 44, 0
3, 52459, Note_on_c, 9, 70, 0
3, 52506, Note_on_c, 9, 70, 72
3, 52509, Note_on_c, 9, 44, 100
3, 52523, Note_on_c, 9, 70, 0
3, 52528, Note_on_c, 9, 44, 0
3, 52548, Note_on_c, 9, 69, 48
3, 52565, Note_on_c, 9, 69, 0
3, 52571, Note_on_c, 9, 70, 78
3, 52586, Note_on_c, 9, 70, 0
3, 52611, Note_on_c, 9, 69, 48
3, 52627, Note_on_c, 9, 69, 0
3, 52637, Note_on_c, 9, 44, 127
3, 52638, Note_on_c, 9, 70, 78
3, 52650, Note_on_c, 9, 44, 0
3, 52651, Note_on_c, 9, 70, 0
3, 52704, Note_on_c, 9, 70, 78
3, 52710, Note_on_c, 9, 40, 100
3, 52710, Note_on_c, 9, 44, 100
3, 52722, Note_on_c, 9, 70, 0
3, 52727, Note_on_c, 9, 44, 0
3, 52727, Note_on_c, 9, 40, 0
3, 52771, Note_on_c, 9, 70, 76
3, 52772, Note_on_c, 9, 35, 100
3, 52772, Note_on_c, 9, 44, 100
3, 52787, Note_on_c, 9, 44, 0
3, 52788, Note_on_c, 9, 35, 0
3, 52789, Note_on_c, 9, 70, 0
3, 52811, Note_on_c, 9, 69, 55
3, 52826, Note_on_c, 9, 69, 0
3, 52838, Note_on_c, 9, 35, 100
3, 52838, Note_on_c, 9, 70, 87
3, 52855, Note_on_c, 9, 70, 0
3, 52858, Note_on_c, 9, 35, 0
3, 52907, Note_on_c, 9, 44, 127
3, 52908, Note_on_c, 9, 70, 73
3, 52924, Note_on_c, 9, 70, 0
3, 52924, Note_on_c, 9, 44, 0
3, 52972, Note_on_c, 9, 70, 70
3, 52975, Note_on_c, 9, 40, 100
3, 52976, Note_on_c, 9, 44, 100
3, 52990, Note_on_c, 9, 70, 0
3, 52991, Note_on_c, 9, 40, 0
3, 52992, Note_on_c, 9, 44, 0
3, 53039, Note_on_c, 9, 70, 73
3, 53040, Note_on_c, 9, 44, 100
3, 53056, Note_on_c, 9, 70, 0
3, 53058, Note_on_c, 9, 44, 0
3, 53082, Note_on_c, 9, 69, 50
3, 53100, Note_on_c, 9, 69, 0
3, 53105, Note_on_c, 9, 70, 76
3, 53121, Note_on_c, 9, 70, 0
3, 53145, Note_on_c, 9, 69, 43
3, 53162, Note_on_c, 9, 69, 0
3, 53166, Note_on_c, 9, 44, 127
3, 53171, Note_on_c, 9, 70, 73
3, 53182, Note_on_c, 9, 44, 0
3, 53186, Note_on_c, 9, 70, 0
3, 53237, Note_on_c, 9, 70, 77
3, 53250, Note_on_c, 9, 44, 100
3, 53251, Note_on_c, 9, 40, 100
3, 53256, Note_on_c, 9, 70, 0
3, 53268, Note_on_c, 9, 40, 0
3, 53269, Note_on_c, 9, 44, 0
3, 53309, Note_on_c, 9, 35, 100
3, 53309, Note_on_c, 9, 70, 62
3, 53312, Note_on_c, 9, 44, 100
3, 53326, Note_on_c, 9, 70, 0
3, 53328, Note_on_c, 9, 35, 0
3, 53332, Note_on_c, 9, 44, 0
3, 53352, Note_on_c, 9, 69, 51
3, 53370, Note_on_c, 9, 69, 0
3, 53377, Note_on_c, 9, 35, 100
3, 53378, Note_on_c, 9, 70, 78
3, 53393, Note_on_c, 9, 70, 0
3, 53395, Note_on_c, 9, 35, 0
3, 53439, Note_on_c, 9, 44, 127
3, 53445, Note_on_c, 9, 70, 69
3, 53454, Note_on_c, 9, 44, 0
3, 53460, Note_on_c, 9, 70, 0
3, 53504, Note_on_c, 9, 44, 100
3, 53506, Note_on_c, 9, 40, 100
3, 53514, Note_on_c, 9, 70, 74
3, 53522, Note_on_c, 9, 40, 0
3, 53522, Note_on_c, 9, 44, 0
3, 53530, Note_on_c, 9, 70, 0
3, 53576, Note_on_c, 9, 44, 100
3, 53577, Note_on_c, 9, 70, 77
3, 53593, Note_on_c, 9, 70, 0
3, 53601, Note_on_c, 9, 44, 0
3, 53617, Note_on_c, 9, 69, 51
3, 53634, Note_on_c, 9, 69, 0
3, 53642, Note_on_c, 9, 70, 73
3, 53654, Note_on_c, 9, 70, 0
3, 53690, Note_on_c, 9, 69, 47
3, 53704, Note_on_c, 9, 69, 0
3, 53707, Note_on_c, 9, 70, 69
3, 53709, Note_on_c, 9, 44, 127
3, 53721, Note_on_c, 9, 70, 0
3, 53724, Note_on_c, 9, 44, 0
3, 53777, Note_on_c, 9, 70, 78
3, 53780, Note_on_c, 9, 44, 100
3, 53781, Note_on_c, 9, 40, 100
3, 53791, Note_on_c, 9, 70, 0
3, 53798, Note_on_c, 9, 40, 0
3, 53798, Note_on_c, 9, 44, 0
3, 53843, Note_on_c, 9, 35, 100
3, 53843, Note_on_c, 9, 70, 78
3, 53848, Note_on_c, 9, 44, 100
3, 53858, Note_on_c, 9, 70, 0
3, 53862, Note_on_c, 9, 35, 0
3, 53870, Note_on_c, 9, 44, 0
3, 53882, Note_on_c, 9, 69, 51
3, 53898, Note_on_c, 9, 69, 0
3, 53910, Note_on_c, 9, 70, 82
3, 53914, Note_on_c, 9, 35, 100
3, 53925, Note_on_c, 9, 70, 0
3, 53936, Note_on_c, 9, 35, 0
3, 53977, Note_on_c, 9, 44, 127
3, 53979, Note_on_c, 9, 70, 78
3, 53992, Note_on_c, 9, 44, 0
3, 53995, Note_on_c, 9, 70, 0
3, 54001, Control_c, 9, 7, 126
3, 54016, Control_c, 9, 7, 125
3, 54040, Control_c, 9, 7, 124
3, 54047, Note_on_c, 9, 44, 100
3, 54047, Note_on_c, 9, 70, 77
3, 54048, Control_c, 9, 7, 122
3, 54048, Note_on_c, 9, 40, 100
3, 54063, Note_on_c, 9, 70, 0
3, 54065, Note_on_c, 9, 40, 0
3, 54066, Note_on_c, 9, 44, 0
3, 54066, Control_c, 9, 7, 120
3, 54081, Control_c, 9, 7, 119
3, 54101, Control_c, 9, 7, 118
3, 54113, Note_on_c, 9, 44, 100
3, 54113, Note_on_c, 9, 70, 76
3, 54129, Note_on_c, 9, 70, 0
3, 54132, Note_on_c, 9, 44, 0
3, 54137, Control_c, 9, 7, 117
3, 54154, Note_on_c, 9, 69, 45
3, 54171, Note_on_c, 9, 69, 0
3, 54171, Control_c, 9, 7, 115
3, 54178, Note_on_c, 9, 70, 73
3, 54186, Control_c, 9, 7, 113
3, 54191, Note_on_c, 9, 70, 0
3, 54219, Control_c, 9, 7, 112
3, 54221, Note_on_c, 9, 69, 49
3, 54236, Note_on_c, 9, 69, 0
3, 54244, Note_on_c, 9, 70, 76
3, 54245, Note_on_c, 9, 44, 127
3, 54259, Note_on_c, 9, 70, 0
3, 54260, Note_on_c, 9, 44, 0
3, 54308, Control_c, 9, 7, 111
3, 54313, Note_on_c, 9, 70, 85
3, 54317, Note_on_c, 9, 44, 100
3, 54317, Note_on_c, 9, 40, 100
3, 54329, Note_on_c, 9, 70, 0
3, 54333, Note_on_c, 9, 40, 0
3, 54335, Note_on_c, 9, 44, 0
3, 54378, Note_on_c, 9, 35, 100
3, 54379, Note_on_c, 9, 44, 100
3, 54381, Note_on_c, 9, 70, 80
3, 54394, Note_on_c, 9, 35, 0
3, 54396, Note_on_c, 9, 70, 0
3, 54397, Control_c, 9, 7, 110
3, 54400, Note_on_c, 9, 44, 0
3, 54426, Note_on_c, 9, 69, 48
3, 54442, Note_on_c, 9, 69, 0
3, 54446, Control_c, 9, 7, 108
3, 54446, Note_on_c, 9, 35, 100
3, 54446, Note_on_c, 9, 70, 82
3, 54462, Note_on_c, 9, 70, 0
3, 54466, Note_on_c, 9, 35, 0
3, 54511, Note_on_c, 9, 44, 127
3, 54514, Note_on_c, 9, 70, 65
3, 54525, Note_on_c, 9, 44, 0
3, 54528, Note_on_c, 9, 70, 0
3, 54532, Control_c, 9, 7, 106
3, 54577, Note_on_c, 9, 44, 100
3, 54577, Note_on_c, 9, 40, 100
3, 54583, Note_on_c, 9, 70, 80
3, 54594, Note_on_c, 9, 40, 0
3, 54596, Note_on_c, 9, 44, 0
3, 54599, Note_on_c, 9, 70, 0
3, 54599, Control_c, 9, 7, 105
3, 54645, Note_on_c, 9, 70, 77
3, 54646, Note_on_c, 9, 44, 100
3, 54656, Control_c, 9, 7, 103
3, 54662, Note_on_c, 9, 70, 0
3, 54668, Note_on_c, 9, 44, 0
3, 54686, Note_on_c, 9, 69, 45
3, 54703, Note_on_c, 9, 69, 0
3, 54712, Note_on_c, 9, 70, 80
3, 54717, Control_c, 9, 7, 101
3, 54726, Note_on_c, 9, 70, 0
3, 54746, Control_c, 9, 7, 100
3, 54761, Note_on_c, 9, 69, 41
3, 54775, Note_on_c, 9, 44, 127
3, 54776, Note_on_c, 9, 70, 76
3, 54779, Note_on_c, 9, 69, 0
3, 54790, Note_on_c, 9, 44, 0
3, 54793, Note_on_c, 9, 70, 0
3, 54808, Control_c, 9, 7, 99
3, 54843, Note_on_c, 9, 70, 78
3, 54849, Note_on_c, 9, 44, 100
3, 54850, Note_on_c, 9, 40, 100
3, 54861, Note_on_c, 9, 70, 0
3, 54861, Control_c, 9, 7, 98
3, 54868, Note_on_c, 9, 40, 0
3, 54870, Note_on_c, 9, 44, 0
3, 54910, Note_on_c, 9, 35, 100
3, 54911, Control_c, 9, 7, 96
3, 54914, Note_on_c, 9, 44, 100
3, 54914, Note_on_c, 9, 70, 74
3, 54928, Note_on_c, 9, 35, 0
3, 54930, Note_on_c, 9, 70, 0
3, 54930, Note_on_c, 9, 44, 0
3, 54937, Control_c, 9, 7, 94
3, 54956, Control_c, 9, 7, 93
3, 54980, Note_on_c, 9, 35, 100
3, 54981, Note_on_c, 9, 70, 82
3, 54997, Note_on_c, 9, 35, 0
3, 54998, Note_on_c, 9, 70, 0
3, 55024, Control_c, 9, 7, 92
3, 55047, Note_on_c, 9, 70, 74
3, 55050, Note_on_c, 9, 44, 127
3, 55064, Note_on_c, 9, 70, 0
3, 55064, Control_c, 9, 7, 91
3, 55066, Note_on_c, 9, 44, 0
3, 55112, Note_on_c, 9, 40, 100
3, 55113, Note_on_c, 9, 44, 100
3, 55114, Note_on_c, 9, 70, 82
3, 55130, Note_on_c, 9, 40, 0
3, 55131, Note_on_c, 9, 44, 0
3, 55132, Note_on_c, 9, 70, 0
3, 55137, Control_c, 9, 7, 89
3, 55172, Control_c, 9, 7, 87
3, 55176, Note_on_c, 9, 44, 100
3, 55179, Note_on_c, 9, 70, 74
3, 55194, Note_on_c, 9, 70, 0
3, 55196, Note_on_c, 9, 44, 0
3, 55220, Note_on_c, 9, 69, 49
3, 55228, Control_c, 9, 7, 86
3, 55239, Note_on_c, 9, 69, 0
3, 55246, Note_on_c, 9, 70, 73
3, 55260, Note_on_c, 9, 70, 0
3, 55260, Control_c, 9, 7, 85
3, 55286, Note_on_c, 9, 69, 48
3, 55302, Note_on_c, 9, 69, 0
3, 55310, Note_on_c, 9, 70, 67
3, 55319, Note_on_c, 9, 44, 127
3, 55324, Note_on_c, 9, 70, 0
3, 55329, Control_c, 9, 7, 84
3, 55333, Note_on_c, 9, 44, 0
3, 55378, Note_on_c, 9, 44, 100
3, 55378, Note_on_c, 9, 70, 76
3, 55379, Note_on_c, 9, 40, 100
3, 55394, Note_on_c, 9, 70, 0
3, 55395, Note_on_c, 9, 40, 0
3, 55396, Note_on_c, 9, 44, 0
3, 55396, Control_c, 9, 7, 82
3, 55425, Control_c, 9, 7, 80
3, 55440, Note_on_c, 9, 44, 100
3, 55441, Note_on_c, 9, 35, 100
3, 55444, Note_on_c, 9, 70, 73
3, 55459, Note_on_c, 9, 35, 0
3, 55461, Note_on_c, 9, 70, 0
3, 55461, Note_on_c, 9, 44, 0
3, 55461, Control_c, 9, 7, 79
3, 55496, Control_c, 9, 7, 78
3, 55507, Note_on_c, 9, 35, 100
3, 55512, Note_on_c, 9, 70, 74
3, 55525, Note_on_c, 9, 35, 0
3, 55525, Control_c, 9, 7, 77
3, 55530, Note_on_c, 9, 70, 0
3, 55552, Control_c, 9, 7, 75
3, 55575, Note_on_c, 9, 70, 62
3, 55575, Note_on_c, 9, 44, 127
3, 55581, Control_c, 9, 7, 73
3, 55590, Note_on_c, 9, 44, 0
3, 55592, Note_on_c, 9, 70, 0
3, 55639, Note_on_c, 9, 44, 100
3, 55640, Note_on_c, 9, 40, 100
3, 55643, Control_c, 9, 7, 72
3, 55643, Note_on_c, 9, 70, 76
3, 55654, Note_on_c, 9, 40, 0
3, 55656, Note_on_c, 9, 44, 0
3, 55656, Control_c, 9, 7, 71
3, 55659, Note_on_c, 9, 70, 0
3, 55684, Control_c, 9, 7, 70
3, 55706, Note_on_c, 9, 44, 100
3, 55708, Note_on_c, 9, 70, 74
3, 55723, Note_on_c, 9, 70, 0
3, 55726, Note_on_c, 9, 44, 0
3, 55736, Control_c, 9, 7, 68
3, 55747, Note_on_c, 9, 69, 52
3, 55767, Note_on_c, 9, 69, 0
3, 55767, Control_c, 9, 7, 66
3, 55773, Note_on_c, 9, 70, 68
3, 55784, Control_c, 9, 7, 65
3, 55787, Note_on_c, 9, 70, 0
3, 55791, Control_c, 9, 7, 64
3, 55796, Control_c, 9, 7, 63
3, 55814, Note_on_c, 9, 69, 52
3, 55824, Control_c, 9, 7, 61
3, 55832, Note_on_c, 9, 69, 0
3, 55842, Note_on_c, 9, 70, 65
3, 55844, Note_on_c, 9, 44, 127
3, 55855, Note_on_c, 9, 70, 0
3, 55858, Note_on_c, 9, 44, 0
3, 55905, Control_c, 9, 7, 60
3, 55905, Note_on_c, 9, 70, 74
3, 55909, Note_on_c, 9, 40, 100
3, 55909, Note_on_c, 9, 44, 100
3, 55923, Note_on_c, 9, 70, 0
3, 55926, Note_on_c, 9, 40, 0
3, 55927, Note_on_c, 9, 44, 0
3, 55964, Control_c, 9, 7, 59
3, 55973, Note_on_c, 9, 70, 65
3, 55974, Note_on_c, 9, 44, 100
3, 55975, Note_on_c, 9, 35, 100
3, 55989, Note_on_c, 9, 70, 0
3, 55990, Note_on_c, 9, 35, 0
3, 55993, Note_on_c, 9, 44, 0
3, 56041, Note_on_c, 9, 35, 100
3, 56041, Note_on_c, 9, 70, 78
3, 56056, Note_on_c, 9, 35, 0
3, 56058, Note_on_c, 9, 70, 0
3, 56067, Control_c, 9, 7, 58
3, 56106, Note_on_c, 9, 70, 61
3, 56114, Note_on_c, 9, 44, 127
3, 56122, Note_on_c, 9, 70, 0
3, 56122, Control_c, 9, 7, 56
3, 56129, Note_on_c, 9, 44, 0
3, 56150, Control_c, 9, 7, 54
3, 56168, Note_on_c, 9, 40, 100
3, 56168, Note_on_c, 9, 44, 100
3, 56169, Note_on_c, 9, 70, 72
3, 56182, Note_on_c, 9, 40, 0
3, 56183, Note_on_c, 9, 44, 0
3, 56183, Control_c, 9, 7, 53
3, 56188, Note_on_c, 9, 70, 0
3, 56223, Control_c, 9, 7, 52
3, 56235, Note_on_c, 9, 70, 76
3, 56236, Control_c, 9, 7, 51
3, 56236, Note_on_c, 9, 44, 100
3, 56251, Note_on_c, 9, 70, 0
3, 56254, Note_on_c, 9, 44, 0
3, 56259, Control_c, 9, 7, 49
3, 56274, Note_on_c, 9, 69, 45
3, 56291, Note_on_c, 9, 69, 0
3, 56291, Control_c, 9, 7, 47
3, 56298, Note_on_c, 9, 70, 76
3, 56314, Note_on_c, 9, 70, 0
3, 56334, Control_c, 9, 7, 46
3, 56339, Note_on_c, 9, 69, 48
3, 56357, Note_on_c, 9, 69, 0
3, 56366, Note_on_c, 9, 70, 72
3, 56380, Note_on_c, 9, 70, 0
3, 56382, Note_on_c, 9, 44, 127
3, 56395, Note_on_c, 9, 44, 0
3, 56405, Control_c, 9, 7, 45
3, 56415, Control_c, 9, 7, 44
3, 56433, Note_on_c, 9, 70, 66
3, 56438, Note_on_c, 9, 40, 100
3, 56439, Note_on_c, 9, 44, 100
3, 56449, Note_on_c, 9, 70, 0
3, 56454, Note_on_c, 9, 44, 0
3, 56455, Note_on_c, 9, 40, 0
3, 56480, Control_c, 9, 7, 42
3, 56500, Note_on_c, 9, 70, 70
3, 56502, Note_on_c, 9, 44, 100
3, 56504, Note_on_c, 9, 35, 100
3, 56511, Control_c, 9, 7, 40
3, 56516, Note_on_c, 9, 70, 0
3, 56519, Note_on_c, 9, 44, 0
3, 56521, Note_on_c, 9, 35, 0
3, 56551, Control_c, 9, 7, 39
3, 56566, Note_on_c, 9, 70, 68
3, 56575, Note_on_c, 9, 35, 100
3, 56577, Control_c, 9, 7, 38
3, 56581, Note_on_c, 9, 70, 0
3, 56590, Note_on_c, 9, 35, 0
3, 56602, Control_c, 9, 7, 37
3, 56630, Note_on_c, 9, 70, 56
3, 56638, Note_on_c, 9, 44, 127
3, 56647, Note_on_c, 9, 70, 0
3, 56647, Control_c, 9, 7, 35
3, 56652, Note_on_c, 9, 44, 0
3, 56672, Control_c, 9, 7, 33
3, 56692, Control_c, 9, 7, 32
3, 56698, Note_on_c, 9, 70, 66
3, 56709, Note_on_c, 9, 40, 100
3, 56709, Note_on_c, 9, 44, 100
3, 56716, Note_on_c, 9, 70, 0
3, 56724, Note_on_c, 9, 44, 0
3, 56726, Note_on_c, 9, 40, 0
3, 56742, Control_c, 9, 7, 31
3, 56761, Control_c, 9, 7, 30
3, 56768, Note_on_c, 9, 70, 62
3, 56778, Note_on_c, 9, 44, 100
3, 56782, Note_on_c, 9, 70, 0
3, 56792, Note_on_c, 9, 44, 0
3, 56809, Note_on_c, 9, 69, 57
3, 56819, Control_c, 9, 7, 28
3, 56829, Control_c, 9, 7, 26
3, 56830, Note_on_c, 9, 69, 0
3, 56840, Control_c, 9, 7, 25
3, 56840, Note_on_c, 9, 70, 56
3, 56852, Note_on_c, 9, 70, 0
3, 56877, Control_c, 9, 7, 24
3, 56907, Note_on_c, 9, 44, 127
3, 56911, Note_on_c, 9, 70, 61
3, 56920, Note_on_c, 9, 44, 0
3, 56921, Control_c, 9, 7, 23
3, 56924, Note_on_c, 9, 70, 0
3, 56939, Control_c, 9, 7, 21
3, 56979, Note_on_c, 9, 40, 100
3, 56981, Note_on_c, 9, 44, 100
3, 56996, Note_on_c, 9, 44, 0
3, 56998, Note_on_c, 9, 40, 0
3, 57046, Note_on_c, 9, 35, 100
3, 57056, Control_c, 9, 7, 20
3, 57064, Note_on_c, 9, 35, 0
3, 57077, Control_c, 9, 7, 19
3, 57110, Note_on_c, 9, 35, 100
3, 57126, Note_on_c, 9, 35, 0
3, 57200, Control_c, 9, 7, 18
3, 57200, End_track
4, 0, Start_track
4, 0, MIDI_port, 0
4, 0, Title_t, "Nylon Guitar"
4, 0, Program_c, 1, 24
4, 180, Control_c, 1, 7, 28
4, 185, Control_c, 1, 7, 29
4, 205, Control_c, 1, 7, 31
4, 210, Control_c, 1, 7, 38
4, 215, Control_c, 1, 7, 75
4, 220, Control_c, 1, 7, 127
4, 230, Control_c, 1, 10, 56
4, 230, Control_c, 1, 10, 56
4, 255, Control_c, 1, 10, 51
4, 255, Control_c, 1, 10, 51
4, 260, Control_c, 1, 10, 42
4, 260, Control_c, 1, 10, 42
4, 265, Control_c, 1, 10, 33
4, 265, Control_c, 1, 10, 33
4, 270, Control_c, 1, 10, 31
4, 270, Control_c, 1, 10, 31
4, 315, Control_c, 1, 10, 33
4, 315, Control_c, 1, 10, 33
4, 320, Control_c, 1, 10, 42
4, 320, Control_c, 1, 10, 42
4, 325, Control_c, 1, 10, 56
4, 325, Control_c, 1, 10, 56
4, 332, Control_c, 1, 10, 63
4, 332, Control_c, 1, 10, 63
4, 332, Note_on_c, 1, 73, 54
4, 342, Control_c, 1, 10, 70
4, 342, Control_c, 1, 10, 70
4, 347, Control_c, 1, 10, 75
4, 347, Control_c, 1, 10, 75
4, 352, Control_c, 1, 10, 80
4, 352, Control_c, 1, 10, 80
4, 357, Control_c, 1, 10, 84
4, 357, Control_c, 1, 10, 84
4, 362, Control_c, 1, 10, 81
4, 362, Control_c, 1, 10, 81
4, 372, Control_c, 1, 10, 78
4, 372, Control_c, 1, 10, 78
4, 377, Control_c, 1, 10, 35
4, 382, Control_c, 1, 10, 23
4, 387, Control_c, 1, 10, 22
4, 410, Note_on_c, 1, 73, 0
4, 410, Control_c, 1, 10, 23
4, 415, Control_c, 1, 10, 24
4, 420, Control_c, 1, 10, 35
4, 425, Control_c, 1, 10, 91
4, 430, Control_c, 1, 10, 96
4, 437, Control_c, 1, 10, 97
4, 437, Note_on_c, 1, 73, 46
4, 447, Control_c, 1, 10, 98
4, 458, Note_on_c, 1, 73, 0
4, 483, Control_c, 1, 10, 97
4, 488, Control_c, 1, 10, 47
4, 493, Control_c, 1, 10, 24
4, 498, Control_c, 1, 10, 21
4, 503, Control_c, 1, 10, 20
4, 528, Note_on_c, 1, 73, 39
4, 538, Control_c, 1, 10, 19
4, 543, Control_c, 1, 10, 21
4, 550, Note_on_c, 1, 73, 0
4, 550, Control_c, 1, 10, 103
4, 555, Control_c, 1, 10, 104
4, 575, Control_c, 1, 10, 103
4, 602, Control_c, 1, 10, 102
4, 602, Note_on_c, 1, 73, 38
4, 612, Control_c, 1, 10, 84
4, 617, Control_c, 1, 10, 24
4, 622, Control_c, 1, 10, 22
4, 671, Note_on_c, 1, 73, 0
4, 676, Control_c, 1, 10, 84
4, 681, Control_c, 1, 10, 104
4, 696, Control_c, 1, 10, 105
4, 699, Note_on_c, 1, 73, 41
4, 721, Note_on_c, 1, 73, 0
4, 736, Control_c, 1, 10, 104
4, 741, Control_c, 1, 10, 24
4, 746, Control_c, 1, 10, 22
4, 751, Control_c, 1, 10, 21
4, 791, Note_on_c, 1, 73, 31
4, 801, Control_c, 1, 10, 22
4, 806, Control_c, 1, 10, 23
4, 811, Control_c, 1, 10, 103
4, 814, Note_on_c, 1, 73, 0
4, 814, Control_c, 1, 10, 104
4, 860, Control_c, 1, 10, 105
4, 860, Note_on_c, 1, 73, 36
4, 875, Control_c, 1, 10, 106
4, 880, Control_c, 1, 10, 110
4, 885, Control_c, 1, 10, 3
4, 890, Control_c, 1, 10, 13
4, 895, Control_c, 1, 10, 12
4, 900, Control_c, 1, 10, 13
4, 938, Note_on_c, 1, 73, 0
4, 943, Control_c, 1, 10, 2
4, 948, Control_c, 1, 10, 113
4, 953, Control_c, 1, 10, 109
4, 958, Control_c, 1, 10, 108
4, 966, Note_on_c, 1, 73, 38
4, 994, Note_on_c, 1, 73, 0
4, 1009, Control_c, 1, 10, 107
4, 1014, Control_c, 1, 10, 21
4, 1019, Control_c, 1, 10, 22
4, 1036, Control_c, 1, 10, 21
4, 1059, Note_on_c, 1, 73, 39
4, 1069, Control_c, 1, 10, 22
4, 1079, Control_c, 1, 10, 75
4, 1086, Note_on_c, 1, 73, 0
4, 1086, Control_c, 1, 10, 103
4, 1131, Note_on_c, 1, 73, 39
4, 1145, Control_c, 1, 10, 102
4, 1150, Control_c, 1, 10, 101
4, 1155, Control_c, 1, 10, 96
4, 1160, Control_c, 1, 10, 30
4, 1165, Control_c, 1, 10, 23
4, 1170, Control_c, 1, 10, 22
4, 1175, Control_c, 1, 10, 21
4, 1185, Control_c, 1, 10, 20
4, 1206, Note_on_c, 1, 73, 0
4, 1211, Control_c, 1, 10, 21
4, 1216, Control_c, 1, 10, 23
4, 1221, Control_c, 1, 10, 84
4, 1226, Control_c, 1, 10, 100
4, 1231, Control_c, 1, 10, 102
4, 1238, Note_on_c, 1, 73, 40
4, 1243, Control_c, 1, 10, 103
4, 1262, Note_on_c, 1, 73, 0
4, 1281, Control_c, 1, 10, 102
4, 1286, Control_c, 1, 10, 97
4, 1291, Control_c, 1, 10, 26
4, 1296, Control_c, 1, 10, 23
4, 1306, Control_c, 1, 10, 22
4, 1316, Control_c, 1, 10, 21
4, 1321, Note_on_c, 1, 73, 37
4, 1349, Note_on_c, 1, 73, 0
4, 1349, Control_c, 1, 10, 23
4, 1354, Control_c, 1, 10, 37
4, 1359, Control_c, 1, 10, 102
4, 1364, Control_c, 1, 10, 104
4, 1392, Note_on_c, 1, 73, 39
4, 1422, Control_c, 1, 10, 102
4, 1427, Control_c, 1, 10, 27
4, 1432, Control_c, 1, 10, 23
4, 1437, Control_c, 1, 10, 22
4, 1447, Control_c, 1, 10, 21
4, 1470, Note_on_c, 1, 73, 0
4, 1495, Control_c, 1, 10, 22
4, 1500, Control_c, 1, 10, 84
4, 1500, Note_on_c, 1, 73, 39
4, 1505, Control_c, 1, 10, 104
4, 1510, Control_c, 1, 10, 105
4, 1526, Note_on_c, 1, 73, 0
4, 1566, Control_c, 1, 10, 104
4, 1571, Control_c, 1, 10, 42
4, 1576, Control_c, 1, 10, 21
4, 1584, Control_c, 1, 10, 20
4, 1587, Note_on_c, 1, 73, 40
4, 1611, Note_on_c, 1, 73, 0
4, 1618, Control_c, 1, 10, 21
4, 1623, Control_c, 1, 10, 22
4, 1633, Control_c, 1, 10, 63
4, 1638, Control_c, 1, 10, 104
4, 1644, Control_c, 1, 10, 105
4, 1654, Note_on_c, 1, 73, 34
4, 1692, Control_c, 1, 10, 104
4, 1697, Control_c, 1, 10, 26
4, 1702, Control_c, 1, 10, 21
4, 1732, Note_on_c, 1, 73, 0
4, 1754, Control_c, 1, 10, 22
4, 1760, Control_c, 1, 10, 42
4, 1760, Note_on_c, 1, 73, 41
4, 1765, Control_c, 1, 10, 103
4, 1770, Control_c, 1, 10, 104
4, 1782, Note_on_c, 1, 73, 0
4, 1822, Control_c, 1, 10, 102
4, 1827, Control_c, 1, 10, 27
4, 1834, Control_c, 1, 10, 22
4, 1839, Control_c, 1, 10, 21
4, 1852, Note_on_c, 1, 73, 34
4, 1876, Note_on_c, 1, 73, 0
4, 1886, Control_c, 1, 10, 24
4, 1891, Control_c, 1, 10, 103
4, 1896, Control_c, 1, 10, 105
4, 1922, Note_on_c, 1, 73, 60
4, 1922, Note_on_c, 1, 73, 34
4, 1924, Control_c, 1, 10, 106
4, 1960, Control_c, 1, 10, 107
4, 1965, Control_c, 1, 10, 127
4, 1970, Control_c, 1, 10, 16
4, 1975, Control_c, 1, 10, 17
4, 1994, Note_on_c, 1, 73, 0
4, 2003, Note_on_c, 1, 73, 0
4, 2016, Control_c, 1, 10, 16
4, 2021, Control_c, 1, 10, 105
4, 2029, Note_on_c, 1, 73, 54
4, 2032, Note_on_c, 1, 73, 41
4, 2038, Note_on_c, 1, 73, 0
4, 2051, Note_on_c, 1, 73, 0
4, 2093, Control_c, 1, 10, 21
4, 2122, Note_on_c, 1, 73, 49
4, 2133, Note_on_c, 1, 73, 0
4, 2147, Control_c, 1, 10, 22
4, 2152, Control_c, 1, 10, 33
4, 2157, Control_c, 1, 10, 104
4, 2162, Control_c, 1, 10, 105
4, 2195, Note_on_c, 1, 73, 30
4, 2235, Control_c, 1, 10, 19
4, 2245, Control_c, 1, 10, 18
4, 2272, Note_on_c, 1, 73, 0
4, 2287, Control_c, 1, 10, 110
4, 2292, Control_c, 1, 10, 107
4, 2299, Control_c, 1, 10, 106
4, 2299, Note_on_c, 1, 73, 45
4, 2305, Note_on_c, 1, 73, 0
4, 2349, Control_c, 1, 10, 107
4, 2354, Control_c, 1, 10, 108
4, 2359, Control_c, 1, 10, 15
4, 2364, Control_c, 1, 10, 19
4, 2391, Note_on_c, 1, 73, 38
4, 2404, Note_on_c, 1, 73, 0
4, 2417, Control_c, 1, 10, 20
4, 2422, Control_c, 1, 10, 15
4, 2427, Control_c, 1, 10, 107
4, 2431, Control_c, 1, 10, 106
4, 2459, Note_on_c, 1, 73, 36
4, 2495, Control_c, 1, 10, 112
4, 2500, Control_c, 1, 10, 19
4, 2505, Control_c, 1, 10, 20
4, 2510, Control_c, 1, 10, 19
4, 2538, Note_on_c, 1, 73, 0
4, 2552, Control_c, 1, 10, 20
4, 2557, Control_c, 1, 10, 19
4, 2562, Control_c, 1, 10, 114
4, 2564, Control_c, 1, 10, 107
4, 2564, Note_on_c, 1, 73, 53
4, 2569, Control_c, 1, 10, 106
4, 2576, Note_on_c, 1, 73, 0
4, 2618, Control_c, 1, 10, 107
4, 2628, Control_c, 1, 10, 17
4, 2628, Control_c, 1, 10, 108
4, 2638, Control_c, 1, 10, 19
4, 2643, Control_c, 1, 10, 18
4, 2654, Note_on_c, 1, 73, 50
4, 2666, Note_on_c, 1, 73, 0
4, 2685, Control_c, 1, 10, 19
4, 2690, Control_c, 1, 10, 16
4, 2695, Control_c, 1, 10, 109
4, 2700, Control_c, 1, 10, 107
4, 2703, Control_c, 1, 10, 106
4, 2718, Note_on_c, 1, 73, 53
4, 2755, Control_c, 1, 10, 107
4, 2760, Control_c, 1, 10, 109
4, 2765, Control_c, 1, 10, 15
4, 2770, Control_c, 1, 10, 19
4, 2802, Note_on_c, 1, 73, 0
4, 2817, Control_c, 1, 10, 20
4, 2822, Control_c, 1, 10, 19
4, 2828, Control_c, 1, 10, 110
4, 2828, Note_on_c, 1, 73, 46
4, 2833, Control_c, 1, 10, 106
4, 2840, Note_on_c, 1, 73, 0
4, 2896, Control_c, 1, 10, 107
4, 2899, Control_c, 1, 10, 18
4, 2904, Control_c, 1, 10, 19
4, 2920, Note_on_c, 1, 73, 35
4, 2932, Note_on_c, 1, 73, 0
4, 2957, Control_c, 1, 10, 108
4, 2962, Control_c, 1, 10, 106
4, 2986, Note_on_c, 1, 73, 39
4, 3025, Control_c, 1, 10, 108
4, 3030, Control_c, 1, 10, 21
4, 3062, Note_on_c, 1, 73, 0
4, 3083, Control_c, 1, 10, 22
4, 3091, Control_c, 1, 10, 23
4, 3091, Note_on_c, 1, 73, 37
4, 3096, Control_c, 1, 10, 35
4, 3101, Control_c, 1, 10, 104
4, 3106, Control_c, 1, 10, 105
4, 3109, Note_on_c, 1, 73, 0
4, 3119, Control_c, 1, 10, 106
4, 3156, Control_c, 1, 10, 107
4, 3164, Control_c, 1, 10, 0
4, 3169, Control_c, 1, 10, 19
4, 3174, Control_c, 1, 10, 20
4, 3184, Note_on_c, 1, 73, 39
4, 3200, Note_on_c, 1, 73, 0
4, 3204, Control_c, 1, 10, 21
4, 3210, Control_c, 1, 10, 23
4, 3215, Control_c, 1, 10, 24
4, 3220, Control_c, 1, 10, 29
4, 3226, Control_c, 1, 10, 98
4, 3231, Control_c, 1, 10, 103
4, 3236, Control_c, 1, 10, 104
4, 3253, Note_on_c, 1, 73, 36
4, 3255, Control_c, 1, 10, 105
4, 3297, Control_c, 1, 10, 103
4, 3302, Control_c, 1, 10, 22
4, 3307, Control_c, 1, 10, 21
4, 3331, Note_on_c, 1, 73, 0
4, 3344, Control_c, 1, 10, 22
4, 3349, Control_c, 1, 10, 25
4, 3354, Control_c, 1, 10, 96
4, 3363, Control_c, 1, 10, 103
4, 3363, Note_on_c, 1, 73, 40
4, 3380, Note_on_c, 1, 73, 0
4, 3380, Control_c, 1, 10, 104
4, 3422, Control_c, 1, 10, 102
4, 3429, Control_c, 1, 10, 27
4, 3434, Control_c, 1, 10, 22
4, 3443, Control_c, 1, 10, 21
4, 3451, Note_on_c, 1, 73, 40
4, 3463, Note_on_c, 1, 73, 0
4, 3468, Control_c, 1, 10, 22
4, 3481, Control_c, 1, 10, 23
4, 3486, Control_c, 1, 10, 28
4, 3491, Control_c, 1, 10, 101
4, 3496, Control_c, 1, 10, 104
4, 3501, Control_c, 1, 10, 105
4, 3520, Control_c, 1, 10, 106
4, 3522, Note_on_c, 1, 73, 35
4, 3549, Control_c, 1, 10, 107
4, 3554, Control_c, 1, 10, 112
4, 3559, Control_c, 1, 10, 19
4, 3564, Control_c, 1, 10, 20
4, 3593, Note_on_c, 1, 73, 0
4, 3600, Control_c, 1, 10, 19
4, 3605, Control_c, 1, 10, 18
4, 3610, Control_c, 1, 10, 16
4, 3615, Control_c, 1, 10, 0
4, 3620, Control_c, 1, 10, 109
4, 3625, Control_c, 1, 10, 107
4, 3632, Control_c, 1, 10, 106
4, 3632, Note_on_c, 1, 73, 37
4, 3642, Note_on_c, 1, 73, 0
4, 3672, Control_c, 1, 10, 107
4, 3696, Control_c, 1, 10, 0
4, 3701, Control_c, 1, 10, 19
4, 3706, Control_c, 1, 10, 20
4, 3721, Control_c, 1, 10, 19
4, 3721, Note_on_c, 1, 73, 46
4, 3733, Note_on_c, 1, 73, 0
4, 3743, Control_c, 1, 10, 17
4, 3752, Control_c, 1, 10, 15
4, 3757, Control_c, 1, 10, 13
4, 3762, Control_c, 1, 10, 114
4, 3767, Control_c, 1, 10, 108
4, 3772, Control_c, 1, 10, 107
4, 3777, Control_c, 1, 10, 106
4, 3782, Control_c, 1, 10, 107
4, 3786, Note_on_c, 1, 73, 46
4, 3832, Control_c, 1, 10, 106
4, 3837, Control_c, 1, 10, 21
4, 3861, Note_on_c, 1, 73, 0
4, 3885, Control_c, 1, 10, 22
4, 3890, Control_c, 1, 10, 24
4, 3896, Control_c, 1, 10, 42
4, 3896, Note_on_c, 1, 73, 43
4, 3899, Control_c, 1, 10, 102
4, 3904, Control_c, 1, 10, 105
4, 3909, Note_on_c, 1, 73, 0
4, 3913, Control_c, 1, 10, 106
4, 3941, Control_c, 1, 10, 107
4, 3963, Control_c, 1, 10, 108
4, 3968, Control_c, 1, 10, 112
4, 3973, Control_c, 1, 10, 14
4, 3978, Control_c, 1, 10, 19
4, 3986, Note_on_c, 1, 73, 40
4, 4000, Note_on_c, 1, 73, 0
4, 4026, Control_c, 1, 10, 15
4, 4031, Control_c, 1, 10, 110
4, 4036, Control_c, 1, 10, 107
4, 4050, Note_on_c, 1, 73, 47
4, 4089, Control_c, 1, 10, 108
4, 4099, Control_c, 1, 10, 111
4, 4104, Control_c, 1, 10, 15
4, 4109, Control_c, 1, 10, 18
4, 4115, Control_c, 1, 10, 19
4, 4124, Note_on_c, 1, 73, 0
4, 4124, Control_c, 1, 10, 18
4, 4131, Control_c, 1, 10, 19
4, 4146, Control_c, 1, 10, 18
4, 4156, Note_on_c, 1, 73, 42
4, 4166, Control_c, 1, 10, 17
4, 4171, Control_c, 1, 10, 0
4, 4175, Note_on_c, 1, 73, 0
4, 4175, Control_c, 1, 10, 110
4, 4181, Control_c, 1, 10, 109
4, 4236, Control_c, 1, 10, 112
4, 4241, Control_c, 1, 10, 14
4, 4248, Control_c, 1, 10, 18
4, 4248, Note_on_c, 1, 73, 45
4, 4262, Note_on_c, 1, 73, 0
4, 4292, Control_c, 1, 10, 16
4, 4297, Control_c, 1, 10, 127
4, 4302, Control_c, 1, 10, 108
4, 4306, Control_c, 1, 10, 107
4, 4313, Note_on_c, 1, 73, 37
4, 4347, Control_c, 1, 10, 108
4, 4359, Control_c, 1, 10, 113
4, 4364, Control_c, 1, 10, 7
4, 4370, Control_c, 1, 10, 17
4, 4375, Control_c, 1, 10, 18
4, 4400, Note_on_c, 1, 73, 0
4, 4410, Control_c, 1, 10, 17
4, 4415, Control_c, 1, 10, 4
4, 4420, Control_c, 1, 10, 110
4, 4426, Control_c, 1, 10, 108
4, 4426, Note_on_c, 1, 73, 51
4, 4431, Control_c, 1, 10, 107
4, 4438, Note_on_c, 1, 73, 0
4, 4486, Control_c, 1, 10, 108
4, 4494, Control_c, 1, 10, 107
4, 4499, Control_c, 1, 10, 108
4, 4504, Control_c, 1, 10, 115
4, 4509, Control_c, 1, 10, 11
4, 4514, Control_c, 1, 10, 18
4, 4517, Control_c, 1, 10, 19
4, 4521, Note_on_c, 1, 73, 41
4, 4536, Note_on_c, 1, 73, 0
4, 4546, Control_c, 1, 10, 18
4, 4551, Control_c, 1, 10, 14
4, 4556, Control_c, 1, 10, 109
4, 4560, Control_c, 1, 10, 107
4, 4586, Note_on_c, 1, 73, 35
4, 4623, Control_c, 1, 10, 108
4, 4628, Control_c, 1, 10, 109
4, 4633, Control_c, 1, 10, 17
4, 4638, Control_c, 1, 10, 20
4, 4664, Note_on_c, 1, 73, 0
4, 4680, Control_c, 1, 10, 21
4, 4694, Note_on_c, 1, 73, 45
4, 4701, Control_c, 1, 10, 108
4, 4706, Control_c, 1, 10, 106
4, 4718, Note_on_c, 1, 73, 0
4, 4726, Control_c, 1, 10, 107
4, 4768, Control_c, 1, 10, 108
4, 4773, Control_c, 1, 10, 127
4, 4779, Control_c, 1, 10, 18
4, 4784, Control_c, 1, 10, 19
4, 4788, Note_on_c, 1, 73, 44
4, 4799, Note_on_c, 1, 73, 0
4, 4829, Control_c, 1, 10, 17
4, 4834, Control_c, 1, 10, 127
4, 4839, Control_c, 1, 10, 108
4, 4854, Note_on_c, 1, 73, 31
4, 4897, Control_c, 1, 10, 109
4, 4902, Control_c, 1, 10, 113
4, 4906, Control_c, 1, 10, 11
4, 4911, Control_c, 1, 10, 16
4, 4924, Note_on_c, 1, 73, 0
4, 4948, Control_c, 1, 10, 17
4, 4957, Note_on_c, 1, 73, 43
4, 4961, Control_c, 1, 10, 0
4, 4966, Control_c, 1, 10, 109
4, 4974, Note_on_c, 1, 73, 0
4, 4974, Control_c, 1, 10, 107
4, 5018, Control_c, 1, 10, 106
4, 5028, Control_c, 1, 10, 105
4, 5033, Control_c, 1, 10, 103
4, 5038, Control_c, 1, 10, 29
4, 5044, Control_c, 1, 10, 25
4, 5050, Control_c, 1, 10, 24
4, 5054, Control_c, 1, 10, 23
4, 5054, Note_on_c, 1, 73, 39
4, 5060, Control_c, 1, 10, 22
4, 5072, Note_on_c, 1, 73, 0
4, 5089, Control_c, 1, 10, 23
4, 5094, Control_c, 1, 10, 103
4, 5099, Control_c, 1, 10, 106
4, 5120, Control_c, 1, 10, 107
4, 5120, Note_on_c, 1, 73, 38
4, 5167, Control_c, 1, 10, 24
4, 5172, Control_c, 1, 10, 22
4, 5177, Control_c, 1, 10, 21
4, 5187, Note_on_c, 1, 73, 0
4, 5226, Control_c, 1, 10, 105
4, 5226, Note_on_c, 1, 73, 43
4, 5240, Note_on_c, 1, 73, 0
4, 5247, Control_c, 1, 10, 106
4, 5299, Control_c, 1, 10, 109
4, 5304, Control_c, 1, 10, 19
4, 5310, Control_c, 1, 10, 20
4, 5313, Note_on_c, 1, 73, 40
4, 5323, Control_c, 1, 10, 19
4, 5327, Note_on_c, 1, 73, 0
4, 5360, Control_c, 1, 10, 15
4, 5365, Control_c, 1, 10, 113
4, 5368, Control_c, 1, 10, 108
4, 5373, Control_c, 1, 10, 107
4, 5387, Note_on_c, 1, 73, 35
4, 5416, Control_c, 1, 10, 108
4, 5426, Control_c, 1, 10, 110
4, 5431, Control_c, 1, 10, 127
4, 5436, Control_c, 1, 10, 18
4, 5443, Control_c, 1, 10, 19
4, 5446, Control_c, 1, 10, 20
4, 5458, Note_on_c, 1, 73, 0
4, 5488, Control_c, 1, 10, 19
4, 5488, Note_on_c, 1, 73, 49
4, 5493, Control_c, 1, 10, 16
4, 5498, Control_c, 1, 10, 109
4, 5504, Note_on_c, 1, 73, 0
4, 5504, Control_c, 1, 10, 107
4, 5556, Control_c, 1, 10, 108
4, 5566, Control_c, 1, 10, 18
4, 5569, Control_c, 1, 10, 21
4, 5582, Note_on_c, 1, 73, 32
4, 5594, Note_on_c, 1, 73, 0
4, 5627, Control_c, 1, 10, 105
4, 5632, Control_c, 1, 10, 106
4, 5637, Control_c, 1, 10, 107
4, 5648, Note_on_c, 1, 73, 41
4, 5650, Control_c, 1, 10, 108
4, 5696, Control_c, 1, 10, 114
4, 5701, Control_c, 1, 10, 20
4, 5720, Note_on_c, 1, 73, 0
4, 5746, Control_c, 1, 10, 21
4, 5754, Control_c, 1, 10, 22
4, 5757, Note_on_c, 1, 73, 41
4, 5762, Control_c, 1, 10, 28
4, 5767, Control_c, 1, 10, 103
4, 5771, Note_on_c, 1, 73, 0
4, 5771, Control_c, 1, 10, 105
4, 5783, Control_c, 1, 10, 106
4, 5838, Control_c, 1, 10, 0
4, 5843, Control_c, 1, 10, 19
4, 5850, Control_c, 1, 10, 20
4, 5851, Note_on_c, 1, 73, 39
4, 5852, Control_c, 1, 10, 18
4, 5862, Note_on_c, 1, 73, 0
4, 5893, Control_c, 1, 10, 107
4, 5898, Control_c, 1, 10, 106
4, 5919, Note_on_c, 1, 73, 38
4, 5971, Control_c, 1, 10, 107
4, 5976, Control_c, 1, 10, 12
4, 5981, Control_c, 1, 10, 15
4, 5983, Control_c, 1, 10, 12
4, 5991, Note_on_c, 1, 73, 0
4, 5996, Control_c, 1, 10, 13
4, 6017, Control_c, 1, 10, 12
4, 6022, Control_c, 1, 10, 8
4, 6024, Control_c, 1, 10, 115
4, 6024, Note_on_c, 1, 73, 46
4, 6029, Control_c, 1, 10, 108
4, 6034, Control_c, 1, 10, 107
4, 6038, Note_on_c, 1, 73, 0
4, 6043, Control_c, 1, 10, 106
4, 6087, Control_c, 1, 10, 107
4, 6092, Control_c, 1, 10, 108
4, 6097, Control_c, 1, 10, 8
4, 6102, Control_c, 1, 10, 20
4, 6114, Note_on_c, 1, 73, 40
4, 6129, Note_on_c, 1, 73, 0
4, 6150, Control_c, 1, 10, 21
4, 6155, Control_c, 1, 10, 22
4, 6160, Control_c, 1, 10, 102
4, 6165, Control_c, 1, 10, 105
4, 6184, Note_on_c, 1, 73, 41
4, 6190, Control_c, 1, 10, 106
4, 6234, Control_c, 1, 10, 109
4, 6239, Control_c, 1, 10, 19
4, 6244, Control_c, 1, 10, 18
4, 6250, Control_c, 1, 10, 14
4, 6254, Note_on_c, 1, 73, 0
4, 6288, Control_c, 1, 10, 15
4, 6290, Control_c, 1, 10, 16
4, 6290, Note_on_c, 1, 73, 36
4, 6295, Control_c, 1, 10, 109
4, 6304, Note_on_c, 1, 73, 0
4, 6304, Control_c, 1, 10, 106
4, 6304, Control_c, 1, 10, 107
4, 6359, Control_c, 1, 10, 107
4, 6366, Control_c, 1, 10, 108
4, 6371, Control_c, 1, 10, 15
4, 6378, Control_c, 1, 10, 19
4, 6383, Note_on_c, 1, 73, 41
4, 6395, Note_on_c, 1, 73, 0
4, 6418, Control_c, 1, 10, 21
4, 6427, Control_c, 1, 10, 103
4, 6432, Control_c, 1, 10, 105
4, 6453, Note_on_c, 1, 73, 43
4, 6490, Control_c, 1, 10, 104
4, 6495, Control_c, 1, 10, 100
4, 6500, Control_c, 1, 10, 22
4, 6505, Control_c, 1, 10, 21
4, 6518, Control_c, 1, 10, 20
4, 6524, Note_on_c, 1, 73, 0
4, 6543, Control_c, 1, 10, 21
4, 6548, Control_c, 1, 10, 22
4, 6553, Control_c, 1, 10, 23
4, 6558, Control_c, 1, 10, 26
4, 6559, Control_c, 1, 10, 101
4, 6559, Note_on_c, 1, 73, 44
4, 6564, Control_c, 1, 10, 104
4, 6574, Note_on_c, 1, 73, 0
4, 6626, Control_c, 1, 10, 37
4, 6626, Control_c, 1, 10, 103
4, 6631, Control_c, 1, 10, 24
4, 6636, Control_c, 1, 10, 22
4, 6649, Note_on_c, 1, 73, 43
4, 6650, Control_c, 1, 10, 21
4, 6665, Note_on_c, 1, 73, 0
4, 6689, Control_c, 1, 10, 23
4, 6695, Control_c, 1, 10, 102
4, 6700, Control_c, 1, 10, 103
4, 6718, Note_on_c, 1, 73, 42
4, 6770, Control_c, 1, 10, 101
4, 6775, Control_c, 1, 10, 29
4, 6780, Control_c, 1, 10, 23
4, 6784, Note_on_c, 1, 73, 0
4, 6784, Control_c, 1, 10, 22
4, 6825, Note_on_c, 1, 73, 44
4, 6833, Control_c, 1, 10, 23
4, 6838, Control_c, 1, 10, 29
4, 6842, Control_c, 1, 10, 103
4, 6845, Note_on_c, 1, 73, 0
4, 6850, Control_c, 1, 10, 105
4, 6893, Control_c, 1, 10, 104
4, 6898, Control_c, 1, 10, 102
4, 6903, Control_c, 1, 10, 22
4, 6910, Control_c, 1, 10, 21
4, 6919, Note_on_c, 1, 73, 37
4, 6929, Control_c, 1, 10, 20
4, 6935, Note_on_c, 1, 73, 0
4, 6960, Control_c, 1, 10, 21
4, 6973, Control_c, 1, 10, 105
4, 6985, Control_c, 1, 10, 106
4, 6989, Note_on_c, 1, 73, 47
4, 7018, Control_c, 1, 10, 107
4, 7027, Control_c, 1, 10, 109
4, 7032, Control_c, 1, 10, 18
4, 7037, Control_c, 1, 10, 20
4, 7052, Note_on_c, 1, 73, 0
4, 7093, Note_on_c, 1, 73, 50
4, 7099, Control_c, 1, 10, 21
4, 7109, Note_on_c, 1, 73, 0
4, 7109, Control_c, 1, 10, 105
4, 7114, Control_c, 1, 10, 106
4, 7131, Control_c, 1, 10, 107
4, 7139, Control_c, 1, 10, 108
4, 7154, Control_c, 1, 10, 110
4, 7162, Control_c, 1, 10, 127
4, 7167, Control_c, 1, 10, 13
4, 7172, Control_c, 1, 10, 17
4, 7177, Control_c, 1, 10, 18
4, 7188, Note_on_c, 1, 73, 43
4, 7191, Control_c, 1, 10, 19
4, 7206, Note_on_c, 1, 73, 0
4, 7221, Control_c, 1, 10, 20
4, 7231, Control_c, 1, 10, 19
4, 7237, Control_c, 1, 10, 0
4, 7242, Control_c, 1, 10, 107
4, 7258, Note_on_c, 1, 73, 43
4, 7300, Control_c, 1, 10, 108
4, 7305, Control_c, 1, 10, 109
4, 7310, Control_c, 1, 10, 127
4, 7315, Control_c, 1, 10, 14
4, 7322, Note_on_c, 1, 73, 0
4, 7322, Control_c, 1, 10, 17
4, 7327, Control_c, 1, 10, 18
4, 7356, Control_c, 1, 10, 14
4, 7362, Control_c, 1, 10, 122
4, 7362, Note_on_c, 1, 73, 51
4, 7367, Control_c, 1, 10, 110
4, 7372, Control_c, 1, 10, 108
4, 7377, Note_on_c, 1, 73, 0
4, 7377, Control_c, 1, 10, 107
4, 7434, Control_c, 1, 10, 108
4, 7437, Control_c, 1, 10, 110
4, 7443, Control_c, 1, 10, 120
4, 7448, Control_c, 1, 10, 12
4, 7451, Control_c, 1, 10, 17
4, 7458, Control_c, 1, 10, 18
4, 7458, Note_on_c, 1, 73, 53
4, 7470, Note_on_c, 1, 73, 0
4, 7496, Control_c, 1, 10, 16
4, 7501, Control_c, 1, 10, 0
4, 7502, Control_c, 1, 10, 113
4, 7507, Control_c, 1, 10, 109
4, 7513, Control_c, 1, 10, 108
4, 7520, Control_c, 1, 10, 107
4, 7526, Control_c, 1, 10, 108
4, 7527, Note_on_c, 1, 73, 44
4, 7558, Control_c, 1, 10, 109
4, 7563, Control_c, 1, 10, 111
4, 7568, Control_c, 1, 10, 10
4, 7573, Control_c, 1, 10, 19
4, 7578, Control_c, 1, 10, 20
4, 7596, Note_on_c, 1, 73, 0
4, 7626, Control_c, 1, 10, 21
4, 7629, Note_on_c, 1, 73, 40
4, 7641, Note_on_c, 1, 73, 0
4, 7646, Control_c, 1, 10, 107
4, 7691, Control_c, 1, 10, 108
4, 7696, Control_c, 1, 10, 112
4, 7701, Control_c, 1, 10, 7
4, 7706, Control_c, 1, 10, 16
4, 7711, Control_c, 1, 10, 18
4, 7716, Control_c, 1, 10, 19
4, 7720, Note_on_c, 1, 73, 43
4, 7737, Note_on_c, 1, 73, 0
4, 7738, Control_c, 1, 10, 20
4, 7748, Control_c, 1, 10, 21
4, 7763, Control_c, 1, 10, 25
4, 7768, Control_c, 1, 10, 105
4, 7773, Control_c, 1, 10, 106
4, 7793, Control_c, 1, 10, 107
4, 7793, Note_on_c, 1, 73, 41
4, 7827, Control_c, 1, 10, 108
4, 7832, Control_c, 1, 10, 109
4, 7837, Control_c, 1, 10, 113
4, 7842, Control_c, 1, 10, 8
4, 7847, Control_c, 1, 10, 17
4, 7852, Control_c, 1, 10, 19
4, 7864, Note_on_c, 1, 73, 0
4, 7889, Control_c, 1, 10, 20
4, 7894, Control_c, 1, 10, 21
4, 7899, Control_c, 1, 10, 105
4, 7899, Note_on_c, 1, 73, 48
4, 7909, Note_on_c, 1, 73, 0
4, 7928, Control_c, 1, 10, 106
4, 7940, Control_c, 1, 10, 107
4, 7962, Control_c, 1, 10, 108
4, 7967, Control_c, 1, 10, 113
4, 7969, Control_c, 1, 10, 17
4, 7974, Control_c, 1, 10, 20
4, 7990, Note_on_c, 1, 73, 51
4, 8002, Note_on_c, 1, 73, 0
4, 8013, Control_c, 1, 10, 21
4, 8025, Control_c, 1, 10, 22
4, 8030, Control_c, 1, 10, 24
4, 8033, Control_c, 1, 10, 93
4, 8038, Control_c, 1, 10, 103
4, 8043, Control_c, 1, 10, 104
4, 8061, Note_on_c, 1, 73, 41
4, 8067, Control_c, 1, 10, 105
4, 8106, Control_c, 1, 10, 21
4, 8131, Note_on_c, 1, 73, 0
4, 8156, Control_c, 1, 10, 22
4, 8161, Control_c, 1, 10, 97
4, 8166, Control_c, 1, 10, 104
4, 8166, Note_on_c, 1, 73, 51
4, 8171, Control_c, 1, 10, 105
4, 8180, Note_on_c, 1, 73, 0
4, 8192, Control_c, 1, 10, 106
4, 8214, Control_c, 1, 10, 107
4, 8219, Control_c, 1, 10, 109
4, 8224, Control_c, 1, 10, 11
4, 8229, Control_c, 1, 10, 19
4, 8233, Control_c, 1, 10, 21
4, 8258, Note_on_c, 1, 73, 37
4, 8272, Note_on_c, 1, 73, 0
4, 8276, Control_c, 1, 10, 22
4, 8281, Control_c, 1, 10, 23
4, 8286, Control_c, 1, 10, 24
4, 8291, Control_c, 1, 10, 72
4, 8296, Control_c, 1, 10, 102
4, 8301, Control_c, 1, 10, 104
4, 8306, Control_c, 1, 10, 105
4, 8320, Note_on_c, 1, 73, 52
4, 8328, Control_c, 1, 10, 106
4, 8367, Control_c, 1, 10, 18
4, 8372, Control_c, 1, 10, 20
4, 8391, Note_on_c, 1, 73, 0
4, 8429, Control_c, 1, 10, 19
4, 8429, Note_on_c, 1, 73, 54
4, 8434, Control_c, 1, 10, 111
4, 8439, Control_c, 1, 10, 108
4, 8446, Note_on_c, 1, 73, 0
4, 8493, Control_c, 1, 10, 109
4, 8498, Control_c, 1, 10, 110
4, 8502, Control_c, 1, 10, 121
4, 8504, Control_c, 1, 10, 12
4, 8513, Control_c, 1, 10, 17
4, 8518, Control_c, 1, 10, 18
4, 8523, Control_c, 1, 10, 19
4, 8524, Note_on_c, 1, 73, 57
4, 8538, Note_on_c, 1, 73, 0
4, 8551, Control_c, 1, 10, 20
4, 8561, Control_c, 1, 10, 21
4, 8568, Control_c, 1, 10, 108
4, 8590, Note_on_c, 1, 73, 46
4, 8620, Control_c, 1, 10, 109
4, 8630, Control_c, 1, 10, 5
4, 8630, Control_c, 1, 10, 112
4, 8635, Control_c, 1, 10, 19
4, 8640, Control_c, 1, 10, 20
4, 8660, Note_on_c, 1, 73, 0
4, 8692, Control_c, 1, 10, 19
4, 8696, Control_c, 1, 10, 0
4, 8696, Note_on_c, 1, 73, 52
4, 8701, Control_c, 1, 10, 109
4, 8706, Control_c, 1, 10, 108
4, 8710, Note_on_c, 1, 73, 0
4, 8752, Control_c, 1, 10, 109
4, 8757, Control_c, 1, 10, 110
4, 8761, Control_c, 1, 10, 113
4, 8764, Control_c, 1, 10, 0
4, 8769, Control_c, 1, 10, 16
4, 8774, Control_c, 1, 10, 19
4, 8782, Control_c, 1, 10, 20
4, 8789, Note_on_c, 1, 73, 46
4, 8809, Note_on_c, 1, 73, 0
4, 8829, Control_c, 1, 10, 17
4, 8834, Control_c, 1, 10, 108
4, 8839, Control_c, 1, 10, 107
4, 8844, Control_c, 1, 10, 106
4, 8857, Note_on_c, 1, 73, 45
4, 8891, Control_c, 1, 10, 107
4, 8896, Control_c, 1, 10, 13
4, 8901, Control_c, 1, 10, 20
4, 8906, Control_c, 1, 10, 21
4, 8922, Note_on_c, 1, 73, 0
4, 8959, Control_c, 1, 10, 16
4, 8959, Note_on_c, 1, 73, 55
4, 8964, Control_c, 1, 10, 110
4, 8969, Control_c, 1, 10, 108
4, 8976, Note_on_c, 1, 73, 0
4, 9000, Control_c, 1, 10, 109
4, 9018, Control_c, 1, 10, 110
4, 9022, Control_c, 1, 10, 112
4, 9030, Control_c, 1, 10, 121
4, 9035, Control_c, 1, 10, 9
4, 9040, Control_c, 1, 10, 17
4, 9044, Control_c, 1, 10, 18
4, 9054, Note_on_c, 1, 73, 43
4, 9073, Note_on_c, 1, 73, 0
4, 9076, Control_c, 1, 10, 19
4, 9086, Control_c, 1, 10, 18
4, 9092, Control_c, 1, 10, 0
4, 9095, Control_c, 1, 10, 108
4, 9100, Control_c, 1, 10, 107
4, 9122, Note_on_c, 1, 73, 42
4, 9166, Control_c, 1, 10, 113
4, 9166, Control_c, 1, 10, 108
4, 9176, Control_c, 1, 10, 18
4, 9176, Control_c, 1, 10, 15
4, 9184, Control_c, 1, 10, 19
4, 9191, Note_on_c, 1, 73, 0
4, 9215, Control_c, 1, 10, 20
4, 9220, Control_c, 1, 10, 19
4, 9227, Control_c, 1, 10, 20
4, 9227, Note_on_c, 1, 73, 58
4, 9232, Control_c, 1, 10, 19
4, 9237, Control_c, 1, 10, 127
4, 9242, Control_c, 1, 10, 108
4, 9243, Note_on_c, 1, 73, 0
4, 9292, Control_c, 1, 10, 109
4, 9295, Control_c, 1, 10, 111
4, 9300, Control_c, 1, 10, 120
4, 9305, Control_c, 1, 10, 13
4, 9310, Control_c, 1, 10, 18
4, 9315, Control_c, 1, 10, 19
4, 9324, Note_on_c, 1, 73, 44
4, 9329, Control_c, 1, 10, 20
4, 9343, Note_on_c, 1, 73, 0
4, 9348, Control_c, 1, 10, 19
4, 9353, Control_c, 1, 10, 20
4, 9368, Control_c, 1, 10, 112
4, 9373, Control_c, 1, 10, 106
4, 9383, Control_c, 1, 10, 107
4, 9390, Note_on_c, 1, 73, 48
4, 9418, Control_c, 1, 10, 108
4, 9423, Control_c, 1, 10, 109
4, 9428, Control_c, 1, 10, 113
4, 9433, Control_c, 1, 10, 8
4, 9438, Control_c, 1, 10, 17
4, 9443, Control_c, 1, 10, 19
4, 9462, Note_on_c, 1, 73, 0
4, 9474, Control_c, 1, 10, 20
4, 9489, Control_c, 1, 10, 19
4, 9496, Control_c, 1, 10, 14
4, 9496, Note_on_c, 1, 73, 41
4, 9501, Control_c, 1, 10, 107
4, 9511, Note_on_c, 1, 73, 0
4, 9525, Control_c, 1, 10, 108
4, 9563, Control_c, 1, 10, 111
4, 9568, Control_c, 1, 10, 7
4, 9573, Control_c, 1, 10, 20
4, 9585, Note_on_c, 1, 73, 50
4, 9600, Note_on_c, 1, 73, 0
4, 9628, Control_c, 1, 10, 15
4, 9629, Control_c, 1, 10, 106
4, 9648, Control_c, 1, 10, 107
4, 9654, Control_c, 1, 10, 109
4, 9655, Note_on_c, 1, 73, 49
4, 9656, Control_c, 1, 10, 110
4, 9691, Control_c, 1, 10, 111
4, 9696, Control_c, 1, 10, 116
4, 9701, Control_c, 1, 10, 15
4, 9706, Control_c, 1, 10, 18
4, 9725, Note_on_c, 1, 73, 0
4, 9740, Control_c, 1, 10, 19
4, 9745, Control_c, 1, 10, 18
4, 9750, Control_c, 1, 10, 15
4, 9755, Control_c, 1, 10, 111
4, 9760, Control_c, 1, 10, 107
4, 9760, Note_on_c, 1, 73, 40
4, 9774, Note_on_c, 1, 73, 0
4, 9774, Control_c, 1, 10, 108
4, 9815, Control_c, 1, 10, 109
4, 9820, Control_c, 1, 10, 111
4, 9825, Control_c, 1, 10, 21
4, 9850, Note_on_c, 1, 73, 40
4, 9868, Note_on_c, 1, 73, 0
4, 9881, Control_c, 1, 10, 22
4, 9886, Control_c, 1, 10, 108
4, 9893, Control_c, 1, 10, 107
4, 9918, Note_on_c, 1, 73, 49
4, 9937, Control_c, 1, 10, 108
4, 9954, Control_c, 1, 10, 109
4, 9959, Control_c, 1, 10, 18
4, 9964, Control_c, 1, 10, 21
4, 9989, Note_on_c, 1, 73, 0
4, 10009, Control_c, 1, 10, 22
4, 10014, Control_c, 1, 10, 23
4, 10019, Control_c, 1, 10, 28
4, 10026, Control_c, 1, 10, 102
4, 10026, Note_on_c, 1, 73, 45
4, 10031, Control_c, 1, 10, 105
4, 10036, Control_c, 1, 10, 106
4, 10040, Note_on_c, 1, 73, 0
4, 10095, Control_c, 1, 10, 102
4, 10100, Control_c, 1, 10, 22
4, 10102, Control_c, 1, 10, 21
4, 10117, Note_on_c, 1, 73, 46
4, 10133, Note_on_c, 1, 73, 0
4, 10144, Control_c, 1, 10, 22
4, 10154, Control_c, 1, 10, 103
4, 10160, Control_c, 1, 10, 106
4, 10190, Control_c, 1, 10, 107
4, 10190, Note_on_c, 1, 73, 44
4, 10220, Control_c, 1, 10, 108
4, 10223, Control_c, 1, 10, 110
4, 10228, Control_c, 1, 10, 7
4, 10233, Control_c, 1, 10, 18
4, 10238, Control_c, 1, 10, 19
4, 10257, Note_on_c, 1, 73, 0
4, 10285, Control_c, 1, 10, 15
4, 10292, Control_c, 1, 10, 113
4, 10292, Note_on_c, 1, 73, 54
4, 10297, Control_c, 1, 10, 107
4, 10307, Note_on_c, 1, 73, 0
4, 10322, Control_c, 1, 10, 108
4, 10364, Control_c, 1, 10, 18
4, 10369, Control_c, 1, 10, 21
4, 10388, Note_on_c, 1, 73, 41
4, 10405, Note_on_c, 1, 73, 0
4, 10422, Control_c, 1, 10, 22
4, 10427, Control_c, 1, 10, 23
4, 10432, Control_c, 1, 10, 102
4, 10437, Control_c, 1, 10, 106
4, 10447, Control_c, 1, 10, 107
4, 10456, Note_on_c, 1, 73, 45
4, 10494, Control_c, 1, 10, 106
4, 10499, Control_c, 1, 10, 107
4, 10504, Control_c, 1, 10, 23
4, 10509, Control_c, 1, 10, 21
4, 10524, Note_on_c, 1, 73, 0
4, 10562, Control_c, 1, 10, 106
4, 10562, Note_on_c, 1, 73, 49
4, 10567, Control_c, 1, 10, 107
4, 10579, Note_on_c, 1, 73, 0
4, 10580, Control_c, 1, 10, 108
4, 10608, Control_c, 1, 10, 109
4, 10623, Control_c, 1, 10, 110
4, 10628, Control_c, 1, 10, 114
4, 10633, Control_c, 1, 10, 11
4, 10636, Control_c, 1, 10, 17
4, 10643, Control_c, 1, 10, 18
4, 10651, Note_on_c, 1, 73, 42
4, 10667, Note_on_c, 1, 73, 0
4, 10676, Control_c, 1, 10, 19
4, 10681, Control_c, 1, 10, 17
4, 10686, Control_c, 1, 10, 111
4, 10693, Control_c, 1, 10, 106
4, 10713, Control_c, 1, 10, 107
4, 10721, Note_on_c, 1, 73, 53
4, 10742, Control_c, 1, 10, 108
4, 10750, Control_c, 1, 10, 109
4, 10755, Control_c, 1, 10, 16
4, 10760, Control_c, 1, 10, 20
4, 10793, Note_on_c, 1, 73, 0
4, 10806, Control_c, 1, 10, 111
4, 10811, Control_c, 1, 10, 106
4, 10828, Note_on_c, 1, 73, 47
4, 10841, Note_on_c, 1, 73, 0
4, 10841, Control_c, 1, 10, 107
4, 10858, Control_c, 1, 10, 108
4, 10872, Control_c, 1, 10, 109
4, 10877, Control_c, 1, 10, 111
4, 10882, Control_c, 1, 10, 115
4, 10887, Control_c, 1, 10, 1
4, 10892, Control_c, 1, 10, 17
4, 10896, Control_c, 1, 10, 18
4, 10919, Note_on_c, 1, 73, 44
4, 10934, Note_on_c, 1, 73, 0
4, 10944, Control_c, 1, 10, 15
4, 10949, Control_c, 1, 10, 117
4, 10954, Control_c, 1, 10, 108
4, 10988, Control_c, 1, 10, 109
4, 10988, Note_on_c, 1, 73, 37
4, 11014, Control_c, 1, 10, 110
4, 11019, Control_c, 1, 10, 112
4, 11023, Control_c, 1, 10, 125
4, 11030, Control_c, 1, 10, 19
4, 11030, Control_c, 1, 10, 15
4, 11035, Control_c, 1, 10, 20
4, 11051, Note_on_c, 1, 73, 0
4, 11071, Control_c, 1, 10, 19
4, 11079, Control_c, 1, 10, 16
4, 11083, Control_c, 1, 10, 112
4, 11091, Control_c, 1, 10, 108
4, 11091, Note_on_c, 1, 73, 53
4, 11100, Control_c, 1, 10, 107
4, 11108, Note_on_c, 1, 73, 0
4, 11108, Control_c, 1, 10, 108
4, 11140, Control_c, 1, 10, 109
4, 11150, Control_c, 1, 10, 111
4, 11155, Control_c, 1, 10, 125
4, 11160, Control_c, 1, 10, 14
4, 11165, Control_c, 1, 10, 18
4, 11177, Control_c, 1, 10, 19
4, 11189, Note_on_c, 1, 73, 47
4, 11200, Control_c, 1, 10, 18
4, 11203, Note_on_c, 1, 73, 0
4, 11210, Control_c, 1, 10, 15
4, 11211, Control_c, 1, 10, 117
4, 11216, Control_c, 1, 10, 108
4, 11225, Control_c, 1, 10, 107
4, 11255, Note_on_c, 1, 73, 49
4, 11285, Control_c, 1, 10, 108
4, 11290, Control_c, 1, 10, 109
4, 11292, Control_c, 1, 10, 0
4, 11297, Control_c, 1, 10, 18
4, 11319, Note_on_c, 1, 73, 0
4, 11340, Control_c, 1, 10, 17
4, 11345, Control_c, 1, 10, 11
4, 11350, Control_c, 1, 10, 112
4, 11358, Control_c, 1, 10, 107
4, 11358, Control_c, 1, 10, 108
4, 11358, Note_on_c, 1, 73, 46
4, 11375, Note_on_c, 1, 73, 0
4, 11424, Control_c, 1, 10, 108
4, 11430, Control_c, 1, 10, 112
4, 11430, Control_c, 1, 10, 109
4, 11435, Control_c, 1, 10, 7
4, 11441, Control_c, 1, 10, 17
4, 11446, Control_c, 1, 10, 18
4, 11453, Note_on_c, 1, 73, 47
4, 11472, Note_on_c, 1, 73, 0
4, 11474, Control_c, 1, 10, 19
4, 11489, Control_c, 1, 10, 18
4, 11496, Control_c, 1, 10, 113
4, 11501, Control_c, 1, 10, 108
4, 11520, Note_on_c, 1, 73, 42
4, 11553, Control_c, 1, 10, 109
4, 11563, Control_c, 1, 10, 110
4, 11568, Control_c, 1, 10, 119
4, 11573, Control_c, 1, 10, 18
4, 11578, Control_c, 1, 10, 20
4, 11595, Note_on_c, 1, 73, 0
4, 11615, Control_c, 1, 10, 21
4, 11624, Note_on_c, 1, 73, 51
4, 11626, Control_c, 1, 10, 22
4, 11631, Control_c, 1, 10, 107
4, 11638, Control_c, 1, 10, 106
4, 11640, Note_on_c, 1, 73, 0
4, 11640, Control_c, 1, 10, 107
4, 11695, Control_c, 1, 10, 108
4, 11704, Control_c, 1, 10, 18
4, 11709, Control_c, 1, 10, 20
4, 11721, Note_on_c, 1, 73, 46
4, 11738, Note_on_c, 1, 73, 0
4, 11748, Control_c, 1, 10, 21
4, 11762, Control_c, 1, 10, 108
4, 11767, Control_c, 1, 10, 107
4, 11789, Control_c, 1, 10, 108
4, 11789, Note_on_c, 1, 73, 45
4, 11826, Control_c, 1, 10, 109
4, 11831, Control_c, 1, 10, 111
4, 11836, Control_c, 1, 10, 19
4, 11841, Control_c, 1, 10, 21
4, 11860, Note_on_c, 1, 73, 0
4, 11869, Control_c, 1, 10, 20
4, 11894, Control_c, 1, 10, 107
4, 11894, Control_c, 1, 10, 15
4, 11894, Note_on_c, 1, 73, 50
4, 11907, Note_on_c, 1, 73, 0
4, 11953, Control_c, 1, 10, 108
4, 11971, Control_c, 1, 10, 19
4, 11976, Control_c, 1, 10, 21
4, 11982, Note_on_c, 1, 73, 47
4, 11998, Note_on_c, 1, 73, 0
4, 12021, Control_c, 1, 10, 22
4, 12026, Control_c, 1, 10, 105
4, 12031, Control_c, 1, 10, 107
4, 12052, Note_on_c, 1, 73, 46
4, 12064, Control_c, 1, 10, 108
4, 12083, Control_c, 1, 10, 109
4, 12088, Control_c, 1, 10, 111
4, 12093, Control_c, 1, 10, 10
4, 12098, Control_c, 1, 10, 19
4, 12103, Control_c, 1, 10, 20
4, 12125, Note_on_c, 1, 73, 0
4, 12159, Control_c, 1, 10, 110
4, 12159, Note_on_c, 1, 73, 48
4, 12164, Control_c, 1, 10, 107
4, 12164, Control_c, 1, 10, 108
4, 12173, Note_on_c, 1, 73, 0
4, 12188, Control_c, 1, 10, 108
4, 12215, Control_c, 1, 10, 109
4, 12226, Control_c, 1, 10, 112
4, 12229, Control_c, 1, 10, 5
4, 12234, Control_c, 1, 10, 17
4, 12239, Control_c, 1, 10, 18
4, 12242, Control_c, 1, 10, 19
4, 12252, Note_on_c, 1, 73, 39
4, 12271, Note_on_c, 1, 73, 0
4, 12276, Control_c, 1, 10, 18
4, 12281, Control_c, 1, 10, 15
4, 12286, Control_c, 1, 10, 110
4, 12291, Control_c, 1, 10, 107
4, 12298, Control_c, 1, 10, 106
4, 12316, Note_on_c, 1, 73, 52
4, 12320, Control_c, 1, 10, 107
4, 12359, Control_c, 1, 10, 102
4, 12364, Control_c, 1, 10, 23
4, 12369, Control_c, 1, 10, 22
4, 12389, Note_on_c, 1, 73, 0
4, 12396, Control_c, 1, 10, 21
4, 12411, Control_c, 1, 10, 22
4, 12416, Control_c, 1, 10, 103
4, 12421, Control_c, 1, 10, 105
4, 12426, Control_c, 1, 10, 106
4, 12426, Note_on_c, 1, 73, 51
4, 12440, Note_on_c, 1, 73, 0
4, 12450, Control_c, 1, 10, 107
4, 12493, Control_c, 1, 10, 104
4, 12500, Control_c, 1, 10, 29
4, 12505, Control_c, 1, 10, 24
4, 12510, Control_c, 1, 10, 23
4, 12520, Note_on_c, 1, 73, 46
4, 12525, Control_c, 1, 10, 22
4, 12527, Control_c, 1, 10, 21
4, 12533, Note_on_c, 1, 73, 0
4, 12536, Control_c, 1, 10, 21
4, 12536, Control_c, 1, 10, 22
4, 12541, Control_c, 1, 10, 22
4, 12546, Control_c, 1, 10, 24
4, 12551, Control_c, 1, 10, 101
4, 12558, Control_c, 1, 10, 105
4, 12563, Control_c, 1, 10, 106
4, 12577, Control_c, 1, 10, 107
4, 12588, Note_on_c, 1, 73, 46
4, 12620, Control_c, 1, 10, 108
4, 12635, Control_c, 1, 10, 110
4, 12640, Control_c, 1, 10, 20
4, 12640, Control_c, 1, 10, 19
4, 12656, Note_on_c, 1, 73, 0
4, 12681, Control_c, 1, 10, 21
4, 12696, Control_c, 1, 10, 105
4, 12696, Note_on_c, 1, 73, 43
4, 12701, Control_c, 1, 10, 106
4, 12715, Note_on_c, 1, 73, 0
4, 12715, Control_c, 1, 10, 107
4, 12751, Control_c, 1, 10, 108
4, 12763, Control_c, 1, 10, 113
4, 12768, Control_c, 1, 10, 20
4, 12773, Control_c, 1, 10, 21
4, 12778, Note_on_c, 1, 73, 51
4, 12792, Note_on_c, 1, 73, 0
4, 12794, Control_c, 1, 10, 20
4, 12812, Control_c, 1, 10, 21
4, 12824, Control_c, 1, 10, 93
4, 12829, Control_c, 1, 10, 106
4, 12838, Control_c, 1, 10, 107
4, 12852, Note_on_c, 1, 73, 55
4, 12902, Control_c, 1, 10, 108
4, 12908, Control_c, 1, 10, 0
4, 12913, Control_c, 1, 10, 21
4, 12922, Note_on_c, 1, 73, 0
4, 12939, Control_c, 1, 10, 22
4, 12949, Control_c, 1, 10, 23
4, 12958, Control_c, 1, 10, 45
4, 12958, Note_on_c, 1, 73, 57
4, 12963, Control_c, 1, 10, 103
4, 12968, Control_c, 1, 10, 105
4, 12974, Note_on_c, 1, 73, 0
4, 12977, Control_c, 1, 10, 106
4, 13030, Control_c, 1, 10, 107
4, 13035, Control_c, 1, 10, 18
4, 13037, Control_c, 1, 10, 20
4, 13047, Note_on_c, 1, 73, 54
4, 13062, Note_on_c, 1, 73, 0
4, 13066, Control_c, 1, 10, 21
4, 13081, Control_c, 1, 10, 22
4, 13086, Control_c, 1, 10, 93
4, 13091, Control_c, 1, 10, 105
4, 13096, Control_c, 1, 10, 106
4, 13115, Note_on_c, 1, 73, 58
4, 13119, Control_c, 1, 10, 107
4, 13159, Control_c, 1, 10, 108
4, 13164, Control_c, 1, 10, 19
4, 13169, Control_c, 1, 10, 21
4, 13188, Note_on_c, 1, 73, 0
4, 13215, Control_c, 1, 10, 22
4, 13220, Control_c, 1, 10, 105
4, 13228, Control_c, 1, 10, 107
4, 13228, Note_on_c, 1, 73, 63
4, 13245, Note_on_c, 1, 73, 0
4, 13278, Control_c, 1, 10, 108
4, 13297, Control_c, 1, 10, 109
4, 13306, Control_c, 1, 10, 111
4, 13311, Control_c, 1, 10, 0
4, 13316, Control_c, 1, 10, 16
4, 13319, Note_on_c, 1, 73, 77
4, 13320, Control_c, 1, 10, 17
4, 13334, Note_on_c, 1, 73, 0
4, 13346, Control_c, 1, 10, 18
4, 13351, Control_c, 1, 10, 17
4, 13358, Control_c, 1, 10, 127
4, 13363, Control_c, 1, 10, 108
4, 13373, Control_c, 1, 10, 107
4, 13420, Control_c, 1, 10, 108
4, 13430, Control_c, 1, 10, 109
4, 13435, Control_c, 1, 10, 111
4, 13440, Control_c, 1, 10, 16
4, 13445, Control_c, 1, 10, 20
4, 13451, Note_on_c, 1, 71, 63
4, 13473, Note_on_c, 1, 71, 0
4, 13488, Control_c, 1, 10, 17
4, 13492, Control_c, 1, 10, 108
4, 13492, Note_on_c, 1, 73, 97
4, 13504, Note_on_c, 1, 73, 0
4, 13504, Control_c, 1, 10, 107
4, 13546, Control_c, 1, 10, 108
4, 13555, Control_c, 1, 10, 109
4, 13560, Control_c, 1, 10, 127
4, 13565, Control_c, 1, 10, 19
4, 13570, Control_c, 1, 10, 20
4, 13594, Control_c, 1, 10, 19
4, 13609, Control_c, 1, 10, 16
4, 13614, Control_c, 1, 10, 113
4, 13619, Control_c, 1, 10, 108
4, 13624, Control_c, 1, 10, 107
4, 13655, Note_on_c, 1, 71, 42
4, 13678, Control_c, 1, 10, 108
4, 13682, Note_on_c, 1, 71, 0
4, 13687, Control_c, 1, 10, 109
4, 13692, Control_c, 1, 10, 111
4, 13696, Control_c, 1, 10, 120
4, 13696, Note_on_c, 1, 73, 65
4, 13701, Control_c, 1, 10, 14
4, 13706, Control_c, 1, 10, 18
4, 13711, Control_c, 1, 10, 19
4, 13719, Note_on_c, 1, 73, 0
4, 13724, Note_on_c, 1, 71, 39
4, 13743, Note_on_c, 1, 71, 0
4, 13748, Control_c, 1, 10, 17
4, 13753, Control_c, 1, 10, 107
4, 13759, Note_on_c, 1, 73, 69
4, 13775, Note_on_c, 1, 73, 0
4, 13813, Control_c, 1, 10, 108
4, 13818, Control_c, 1, 10, 109
4, 13822, Control_c, 1, 10, 112
4, 13826, Control_c, 1, 10, 15
4, 13831, Control_c, 1, 10, 20
4, 13872, Control_c, 1, 10, 21
4, 13883, Control_c, 1, 10, 22
4, 13888, Control_c, 1, 10, 23
4, 13893, Control_c, 1, 10, 105
4, 13898, Control_c, 1, 10, 109
4, 13903, Control_c, 1, 10, 108
4, 13924, Control_c, 1, 10, 109
4, 13947, Control_c, 1, 10, 110
4, 13952, Control_c, 1, 10, 112
4, 13957, Control_c, 1, 10, 117
4, 13962, Control_c, 1, 10, 6
4, 13967, Control_c, 1, 10, 17
4, 13977, Control_c, 1, 10, 18
4, 13979, Control_c, 1, 10, 19
4, 13979, Note_on_c, 1, 71, 44
4, 14000, Note_on_c, 1, 71, 0
4, 14010, Control_c, 1, 10, 20
4, 14019, Note_on_c, 1, 73, 77
4, 14024, Control_c, 1, 10, 108
4, 14029, Control_c, 1, 10, 107
4, 14032, Note_on_c, 1, 73, 0
4, 14083, Control_c, 1, 10, 108
4, 14088, Control_c, 1, 10, 110
4, 14088, Control_c, 1, 10, 109
4, 14098, Control_c, 1, 10, 17
4, 14098, Control_c, 1, 10, 117
4, 14105, Control_c, 1, 10, 20
4, 14131, Control_c, 1, 10, 21
4, 14145, Control_c, 1, 10, 22
4, 14152, Control_c, 1, 10, 27
4, 14157, Control_c, 1, 10, 105
4, 14162, Control_c, 1, 10, 108
4, 14169, Control_c, 1, 10, 109
4, 14183, Note_on_c, 1, 71, 43
4, 14207, Note_on_c, 1, 71, 0
4, 14212, Control_c, 1, 10, 110
4, 14217, Control_c, 1, 10, 111
4, 14222, Control_c, 1, 10, 117
4, 14224, Control_c, 1, 10, 0
4, 14224, Note_on_c, 1, 73, 53
4, 14229, Control_c, 1, 10, 8
4, 14234, Control_c, 1, 10, 12
4, 14243, Control_c, 1, 10, 13
4, 14244, Note_on_c, 1, 73, 0
4, 14246, Note_on_c, 1, 71, 42
4, 14260, Control_c, 1, 10, 14
4, 14268, Note_on_c, 1, 71, 0
4, 14268, Control_c, 1, 10, 15
4, 14273, Control_c, 1, 10, 14
4, 14278, Control_c, 1, 10, 0
4, 14284, Control_c, 1, 10, 109
4, 14284, Control_c, 1, 10, 113
4, 14284, Note_on_c, 1, 73, 80
4, 14289, Control_c, 1, 10, 108
4, 14298, Note_on_c, 1, 73, 0
4, 14351, Control_c, 1, 10, 109
4, 14358, Control_c, 1, 10, 110
4, 14363, Control_c, 1, 10, 114
4, 14368, Control_c, 1, 10, 14
4, 14373, Control_c, 1, 10, 19
4, 14409, Control_c, 1, 10, 18
4, 14412, Control_c, 1, 10, 110
4, 14417, Control_c, 1, 10, 107
4, 14485, Control_c, 1, 10, 108
4, 14490, Control_c, 1, 10, 111
4, 14495, Control_c, 1, 10, 17
4, 14500, Control_c, 1, 10, 19
4, 14505, Control_c, 1, 10, 20
4, 14517, Note_on_c, 1, 71, 44
4, 14537, Note_on_c, 1, 71, 0
4, 14542, Control_c, 1, 10, 21
4, 14552, Control_c, 1, 10, 105
4, 14557, Note_on_c, 1, 73, 76
4, 14562, Control_c, 1, 10, 106
4, 14567, Control_c, 1, 10, 107
4, 14573, Note_on_c, 1, 73, 0
4, 14623, Control_c, 1, 10, 108
4, 14633, Control_c, 1, 10, 14
4, 14638, Control_c, 1, 10, 19
4, 14681, Control_c, 1, 10, 16
4, 14686, Control_c, 1, 10, 108
4, 14690, Control_c, 1, 10, 107
4, 14695, Control_c, 1, 10, 106
4, 14700, Control_c, 1, 10, 107
4, 14706, Control_c, 1, 10, 106
4, 14714, Note_on_c, 1, 71, 50
4, 14717, Control_c, 1, 10, 107
4, 14740, Note_on_c, 1, 71, 0
4, 14745, Control_c, 1, 10, 108
4, 14750, Control_c, 1, 10, 109
4, 14756, Control_c, 1, 10, 127
4, 14756, Note_on_c, 1, 73, 68
4, 14761, Control_c, 1, 10, 18
4, 14766, Control_c, 1, 10, 19
4, 14771, Control_c, 1, 10, 20
4, 14776, Note_on_c, 1, 73, 0
4, 14781, Note_on_c, 1, 71, 40
4, 14798, Control_c, 1, 10, 19
4, 14804, Note_on_c, 1, 71, 0
4, 14809, Control_c, 1, 10, 13
4, 14814, Control_c, 1, 10, 109
4, 14814, Note_on_c, 1, 73, 46
4, 14819, Control_c, 1, 10, 107
4, 14824, Control_c, 1, 10, 106
4, 14831, Note_on_c, 1, 73, 0
4, 14853, Control_c, 1, 10, 107
4, 14888, Control_c, 1, 10, 108
4, 14890, Control_c, 1, 10, 111
4, 14895, Control_c, 1, 10, 21
4, 14943, Control_c, 1, 10, 23
4, 14948, Control_c, 1, 10, 75
4, 14953, Control_c, 1, 10, 104
4, 14956, Control_c, 1, 10, 105
4, 14973, Control_c, 1, 10, 106
4, 15012, Control_c, 1, 10, 107
4, 15027, Control_c, 1, 10, 12
4, 15032, Control_c, 1, 10, 19
4, 15037, Control_c, 1, 10, 20
4, 15046, Note_on_c, 1, 71, 45
4, 15064, Control_c, 1, 10, 19
4, 15069, Control_c, 1, 10, 20
4, 15072, Note_on_c, 1, 71, 0
4, 15082, Control_c, 1, 10, 16
4, 15087, Control_c, 1, 10, 106
4, 15087, Note_on_c, 1, 73, 85
4, 15097, Control_c, 1, 10, 107
4, 15102, Note_on_c, 1, 73, 0
4, 15115, Control_c, 1, 10, 108
4, 15146, Control_c, 1, 10, 109
4, 15151, Control_c, 1, 10, 110
4, 15156, Control_c, 1, 10, 0
4, 15161, Control_c, 1, 10, 21
4, 15205, Control_c, 1, 10, 22
4, 15210, Control_c, 1, 10, 23
4, 15217, Control_c, 1, 10, 97
4, 15222, Control_c, 1, 10, 105
4, 15224, Control_c, 1, 10, 106
4, 15228, Control_c, 1, 10, 107
4, 15246, Control_c, 1, 10, 108
4, 15250, Note_on_c, 1, 71, 53
4, 15278, Note_on_c, 1, 71, 0
4, 15278, Control_c, 1, 10, 109
4, 15283, Control_c, 1, 10, 111
4, 15290, Control_c, 1, 10, 18
4, 15290, Note_on_c, 1, 73, 66
4, 15295, Control_c, 1, 10, 20
4, 15313, Note_on_c, 1, 73, 0
4, 15320, Note_on_c, 1, 71, 40
4, 15341, Note_on_c, 1, 71, 0
4, 15346, Control_c, 1, 10, 16
4, 15356, Control_c, 1, 10, 107
4, 15357, Note_on_c, 1, 73, 77
4, 15371, Note_on_c, 1, 73, 0
4, 15382, Control_c, 1, 10, 108
4, 15422, Control_c, 1, 10, 109
4, 15424, Control_c, 1, 10, 16
4, 15429, Control_c, 1, 10, 21
4, 15489, Control_c, 1, 10, 105
4, 15494, Control_c, 1, 10, 106
4, 15520, Control_c, 1, 10, 107
4, 15558, Control_c, 1, 10, 127
4, 15563, Control_c, 1, 10, 21
4, 15582, Note_on_c, 1, 71, 49
4, 15606, Note_on_c, 1, 71, 0
4, 15606, Control_c, 1, 10, 22
4, 15616, Control_c, 1, 10, 23
4, 15623, Control_c, 1, 10, 28
4, 15623, Note_on_c, 1, 73, 80
4, 15628, Control_c, 1, 10, 103
4, 15633, Control_c, 1, 10, 105
4, 15638, Note_on_c, 1, 73, 0
4, 15651, Control_c, 1, 10, 106
4, 15656, Control_c, 1, 10, 107
4, 15688, Control_c, 1, 10, 21
4, 15744, Control_c, 1, 10, 23
4, 15749, Control_c, 1, 10, 104
4, 15757, Control_c, 1, 10, 105
4, 15762, Control_c, 1, 10, 106
4, 15774, Control_c, 1, 10, 107
4, 15784, Note_on_c, 1, 71, 48
4, 15794, Control_c, 1, 10, 108
4, 15811, Note_on_c, 1, 71, 0
4, 15811, Control_c, 1, 10, 109
4, 15816, Control_c, 1, 10, 112
4, 15821, Control_c, 1, 10, 19
4, 15822, Control_c, 1, 10, 21
4, 15822, Note_on_c, 1, 73, 48
4, 15840, Note_on_c, 1, 73, 0
4, 15846, Note_on_c, 1, 71, 41
4, 15868, Note_on_c, 1, 71, 0
4, 15873, Control_c, 1, 10, 22
4, 15882, Control_c, 1, 10, 23
4, 15882, Note_on_c, 1, 73, 78
4, 15887, Control_c, 1, 10, 42
4, 15892, Control_c, 1, 10, 106
4, 15892, Control_c, 1, 10, 105
4, 15898, Note_on_c, 1, 73, 0
4, 15914, Control_c, 1, 10, 107
4, 15930, Control_c, 1, 10, 108
4, 15941, Control_c, 1, 10, 109
4, 15946, Control_c, 1, 10, 110
4, 15952, Control_c, 1, 10, 124
4, 15958, Control_c, 1, 10, 18
4, 15960, Control_c, 1, 10, 20
4, 15965, Control_c, 1, 10, 21
4, 16024, Control_c, 1, 10, 0
4, 16024, Control_c, 1, 10, 22
4, 16034, Control_c, 1, 10, 108
4, 16085, Control_c, 1, 10, 107
4, 16090, Control_c, 1, 10, 21
4, 16095, Control_c, 1, 10, 22
4, 16121, Note_on_c, 1, 71, 38
4, 16146, Note_on_c, 1, 71, 0
4, 16151, Control_c, 1, 10, 23
4, 16156, Control_c, 1, 10, 22
4, 16162, Control_c, 1, 10, 107
4, 16162, Note_on_c, 1, 73, 90
4, 16167, Control_c, 1, 10, 108
4, 16178, Note_on_c, 1, 73, 0
4, 16209, Control_c, 1, 10, 109
4, 16219, Control_c, 1, 10, 111
4, 16225, Control_c, 1, 10, 117
4, 16230, Control_c, 1, 10, 18
4, 16230, Control_c, 1, 10, 10
4, 16240, Control_c, 1, 10, 20
4, 16240, Control_c, 1, 10, 19
4, 16287, Control_c, 1, 10, 19
4, 16290, Control_c, 1, 10, 17
4, 16295, Control_c, 1, 10, 109
4, 16300, Control_c, 1, 10, 108
4, 16306, Control_c, 1, 10, 107
4, 16311, Control_c, 1, 10, 108
4, 16320, Note_on_c, 1, 71, 48
4, 16350, Note_on_c, 1, 71, 0
4, 16350, Control_c, 1, 10, 109
4, 16355, Control_c, 1, 10, 111
4, 16360, Control_c, 1, 10, 120
4, 16360, Note_on_c, 1, 73, 55
4, 16365, Control_c, 1, 10, 5
4, 16370, Control_c, 1, 10, 16
4, 16375, Control_c, 1, 10, 18
4, 16379, Note_on_c, 1, 73, 0
4, 16380, Control_c, 1, 10, 19
4, 16382, Note_on_c, 1, 71, 43
4, 16406, Note_on_c, 1, 71, 0
4, 16411, Control_c, 1, 10, 20
4, 16420, Control_c, 1, 10, 21
4, 16420, Note_on_c, 1, 73, 44
4, 16437, Note_on_c, 1, 73, 0
4, 16437, Control_c, 1, 10, 105
4, 16442, Control_c, 1, 10, 107
4, 16448, Control_c, 1, 10, 108
4, 16488, Control_c, 1, 10, 109
4, 16491, Control_c, 1, 10, 110
4, 16494, Control_c, 1, 10, 122
4, 16499, Control_c, 1, 10, 13
4, 16504, Control_c, 1, 10, 17
4, 16513, Control_c, 1, 10, 18
4, 16517, Control_c, 1, 10, 19
4, 16549, Control_c, 1, 10, 20
4, 16560, Control_c, 1, 10, 19
4, 16565, Control_c, 1, 10, 18
4, 16570, Control_c, 1, 10, 111
4, 16575, Control_c, 1, 10, 109
4, 16587, Control_c, 1, 10, 108
4, 16591, Control_c, 1, 10, 109
4, 16612, Control_c, 1, 10, 108
4, 16629, Control_c, 1, 10, 109
4, 16634, Control_c, 1, 10, 110
4, 16639, Control_c, 1, 10, 0
4, 16644, Control_c, 1, 10, 17
4, 16649, Control_c, 1, 10, 19
4, 16653, Note_on_c, 1, 71, 43
4, 16670, Control_c, 1, 10, 20
4, 16677, Note_on_c, 1, 71, 0
4, 16677, Control_c, 1, 10, 21
4, 16682, Control_c, 1, 10, 22
4, 16692, Control_c, 1, 10, 31
4, 16696, Control_c, 1, 10, 103
4, 16696, Note_on_c, 1, 73, 84
4, 16701, Control_c, 1, 10, 105
4, 16706, Control_c, 1, 10, 106
4, 16711, Note_on_c, 1, 73, 0
4, 16760, Control_c, 1, 10, 105
4, 16765, Control_c, 1, 10, 23
4, 16770, Control_c, 1, 10, 22
4, 16780, Control_c, 1, 10, 21
4, 16825, Control_c, 1, 10, 105
4, 16836, Control_c, 1, 10, 106
4, 16849, Control_c, 1, 10, 107
4, 16854, Note_on_c, 1, 71, 49
4, 16877, Control_c, 1, 10, 108
4, 16881, Note_on_c, 1, 71, 0
4, 16893, Control_c, 1, 10, 118
4, 16893, Note_on_c, 1, 73, 70
4, 16898, Control_c, 1, 10, 20
4, 16903, Control_c, 1, 10, 21
4, 16913, Note_on_c, 1, 73, 0
4, 16921, Note_on_c, 1, 71, 40
4, 16942, Note_on_c, 1, 71, 0
4, 16952, Control_c, 1, 10, 22
4, 16957, Note_on_c, 1, 73, 85
4, 16962, Control_c, 1, 10, 23
4, 16967, Control_c, 1, 10, 26
4, 16970, Note_on_c, 1, 73, 0
4, 16970, Control_c, 1, 10, 100
4, 16975, Control_c, 1, 10, 107
4, 16980, Control_c, 1, 10, 108
4, 17014, Control_c, 1, 10, 109
4, 17025, Control_c, 1, 10, 110
4, 17031, Control_c, 1, 10, 12
4, 17031, Control_c, 1, 10, 127
4, 17036, Control_c, 1, 10, 17
4, 17043, Control_c, 1, 10, 18
4, 17047, Control_c, 1, 10, 19
4, 17081, Control_c, 1, 10, 20
4, 17086, Control_c, 1, 10, 21
4, 17095, Control_c, 1, 10, 23
4, 17100, Control_c, 1, 10, 105
4, 17105, Control_c, 1, 10, 106
4, 17113, Control_c, 1, 10, 107
4, 17122, Control_c, 1, 10, 108
4, 17164, Control_c, 1, 10, 110
4, 17169, Control_c, 1, 10, 115
4, 17174, Control_c, 1, 10, 0
4, 17179, Control_c, 1, 10, 13
4, 17188, Control_c, 1, 10, 15
4, 17192, Control_c, 1, 10, 16
4, 17193, Note_on_c, 1, 71, 47
4, 17216, Note_on_c, 1, 71, 0
4, 17216, Control_c, 1, 10, 15
4, 17221, Control_c, 1, 10, 12
4, 17226, Control_c, 1, 10, 127
4, 17233, Control_c, 1, 10, 110
4, 17233, Control_c, 1, 10, 114
4, 17233, Note_on_c, 1, 73, 78
4, 17238, Control_c, 1, 10, 109
4, 17243, Control_c, 1, 10, 108
4, 17248, Note_on_c, 1, 73, 0
4, 17301, Control_c, 1, 10, 110
4, 17306, Control_c, 1, 10, 115
4, 17311, Control_c, 1, 10, 0
4, 17315, Control_c, 1, 10, 12
4, 17320, Control_c, 1, 10, 16
4, 17324, Control_c, 1, 10, 17
4, 17355, Control_c, 1, 10, 15
4, 17360, Control_c, 1, 10, 0
4, 17366, Control_c, 1, 10, 113
4, 17371, Control_c, 1, 10, 109
4, 17382, Control_c, 1, 10, 108
4, 17386, Note_on_c, 1, 71, 56
4, 17394, Control_c, 1, 10, 109
4, 17412, Note_on_c, 1, 71, 0
4, 17425, Note_on_c, 1, 73, 72
4, 17431, Control_c, 1, 10, 110
4, 17436, Control_c, 1, 10, 112
4, 17439, Control_c, 1, 10, 116
4, 17446, Control_c, 1, 10, 127
4, 17449, Note_on_c, 1, 73, 0
4, 17449, Control_c, 1, 10, 2
4, 17454, Note_on_c, 1, 71, 40
4, 17457, Control_c, 1, 10, 12
4, 17462, Control_c, 1, 10, 14
4, 17475, Note_on_c, 1, 71, 0
4, 17492, Control_c, 1, 10, 10
4, 17492, Note_on_c, 1, 73, 54
4, 17497, Control_c, 1, 10, 127
4, 17504, Note_on_c, 1, 73, 0
4, 17504, Control_c, 1, 10, 114
4, 17509, Control_c, 1, 10, 110
4, 17511, Control_c, 1, 10, 109
4, 17516, Control_c, 1, 10, 108
4, 17579, Note_on_c, 1, 71, 40
4, 17582, Control_c, 1, 10, 10
4, 17587, Control_c, 1, 10, 15
4, 17592, Control_c, 1, 10, 17
4, 17598, Note_on_c, 1, 71, 0
4, 17616, Control_c, 1, 10, 18
4, 17625, Control_c, 1, 10, 17
4, 17627, Control_c, 1, 10, 11
4, 17632, Control_c, 1, 10, 112
4, 17639, Control_c, 1, 10, 108
4, 17645, Note_on_c, 1, 73, 64
4, 17646, Control_c, 1, 10, 107
4, 17705, Control_c, 1, 10, 109
4, 17709, Note_on_c, 1, 73, 0
4, 17709, Control_c, 1, 10, 0
4, 17714, Control_c, 1, 10, 18
4, 17718, Control_c, 1, 10, 19
4, 17757, Note_on_c, 1, 73, 52
4, 17762, Control_c, 1, 10, 17
4, 17767, Control_c, 1, 10, 127
4, 17771, Note_on_c, 1, 73, 0
4, 17771, Control_c, 1, 10, 108
4, 17776, Control_c, 1, 10, 107
4, 17786, Control_c, 1, 10, 106
4, 17797, Control_c, 1, 10, 107
4, 17837, Control_c, 1, 10, 109
4, 17842, Control_c, 1, 10, 127
4, 17846, Note_on_c, 1, 73, 46
4, 17850, Control_c, 1, 10, 17
4, 17853, Control_c, 1, 10, 19
4, 17861, Note_on_c, 1, 73, 0
4, 17893, Control_c, 1, 10, 17
4, 17898, Control_c, 1, 10, 114
4, 17906, Control_c, 1, 10, 108
4, 17911, Control_c, 1, 10, 107
4, 17914, Note_on_c, 1, 73, 46
4, 17961, Control_c, 1, 10, 108
4, 17966, Control_c, 1, 10, 110
4, 17971, Control_c, 1, 10, 7
4, 17976, Control_c, 1, 10, 19
4, 17980, Control_c, 1, 10, 20
4, 17989, Note_on_c, 1, 73, 0
4, 18030, Control_c, 1, 10, 18
4, 18035, Control_c, 1, 10, 110
4, 18040, Control_c, 1, 10, 108
4, 18045, Control_c, 1, 10, 107
4, 18092, Control_c, 1, 10, 108
4, 18094, Control_c, 1, 10, 109
4, 18099, Control_c, 1, 10, 119
4, 18104, Control_c, 1, 10, 12
4, 18110, Control_c, 1, 10, 17
4, 18115, Control_c, 1, 10, 18
4, 18115, Note_on_c, 1, 73, 50
4, 18120, Control_c, 1, 10, 19
4, 18129, Note_on_c, 1, 73, 0
4, 18140, Control_c, 1, 10, 18
4, 18148, Control_c, 1, 10, 17
4, 18154, Control_c, 1, 10, 13
4, 18159, Control_c, 1, 10, 127
4, 18164, Control_c, 1, 10, 111
4, 18168, Control_c, 1, 10, 109
4, 18173, Control_c, 1, 10, 108
4, 18182, Note_on_c, 1, 73, 49
4, 18234, Control_c, 1, 10, 23
4, 18239, Control_c, 1, 10, 22
4, 18257, Note_on_c, 1, 73, 0
4, 18277, Control_c, 1, 10, 24
4, 18282, Control_c, 1, 10, 84
4, 18289, Control_c, 1, 10, 105
4, 18289, Note_on_c, 1, 73, 46
4, 18294, Control_c, 1, 10, 106
4, 18300, Note_on_c, 1, 73, 0
4, 18332, Control_c, 1, 10, 107
4, 18352, Control_c, 1, 10, 108
4, 18357, Control_c, 1, 10, 111
4, 18362, Control_c, 1, 10, 19
4, 18367, Control_c, 1, 10, 21
4, 18377, Note_on_c, 1, 73, 48
4, 18392, Note_on_c, 1, 73, 0
4, 18419, Control_c, 1, 10, 16
4, 18425, Control_c, 1, 10, 108
4, 18432, Control_c, 1, 10, 107
4, 18439, Control_c, 1, 10, 107
4, 18439, Control_c, 1, 10, 106
4, 18448, Note_on_c, 1, 73, 44
4, 18474, Control_c, 1, 10, 108
4, 18484, Control_c, 1, 10, 109
4, 18489, Control_c, 1, 10, 121
4, 18494, Control_c, 1, 10, 21
4, 18499, Control_c, 1, 10, 22
4, 18504, Control_c, 1, 10, 21
4, 18517, Note_on_c, 1, 73, 0
4, 18536, Control_c, 1, 10, 22
4, 18546, Control_c, 1, 10, 24
4, 18551, Control_c, 1, 10, 101
4, 18554, Note_on_c, 1, 73, 48
4, 18555, Control_c, 1, 10, 104
4, 18565, Control_c, 1, 10, 105
4, 18569, Note_on_c, 1, 73, 0
4, 18584, Control_c, 1, 10, 106
4, 18615, Control_c, 1, 10, 109
4, 18620, Control_c, 1, 10, 18
4, 18625, Control_c, 1, 10, 20
4, 18654, Note_on_c, 1, 73, 43
4, 18666, Note_on_c, 1, 73, 0
4, 18684, Control_c, 1, 10, 118
4, 18692, Control_c, 1, 10, 108
4, 18695, Control_c, 1, 10, 107
4, 18721, Note_on_c, 1, 73, 43
4, 18756, Control_c, 1, 10, 109
4, 18761, Control_c, 1, 10, 127
4, 18766, Control_c, 1, 10, 19
4, 18771, Control_c, 1, 10, 20
4, 18800, Note_on_c, 1, 73, 0
4, 18814, Control_c, 1, 10, 19
4, 18819, Control_c, 1, 10, 14
4, 18824, Control_c, 1, 10, 109
4, 18829, Control_c, 1, 10, 108
4, 18830, Control_c, 1, 10, 107
4, 18830, Note_on_c, 1, 73, 47
4, 18842, Note_on_c, 1, 73, 0
4, 18874, Control_c, 1, 10, 108
4, 18879, Control_c, 1, 10, 109
4, 18884, Control_c, 1, 10, 113
4, 18889, Control_c, 1, 10, 16
4, 18894, Control_c, 1, 10, 20
4, 18925, Note_on_c, 1, 73, 44
4, 18940, Note_on_c, 1, 73, 0
4, 18951, Control_c, 1, 10, 16
4, 18956, Control_c, 1, 10, 112
4, 18961, Control_c, 1, 10, 108
4, 18968, Control_c, 1, 10, 107
4, 18988, Control_c, 1, 10, 108
4, 18990, Note_on_c, 1, 73, 47
4, 19013, Control_c, 1, 10, 109
4, 19018, Control_c, 1, 10, 115
4, 19023, Control_c, 1, 10, 13
4, 19028, Control_c, 1, 10, 19
4, 19033, Control_c, 1, 10, 20
4, 19038, Control_c, 1, 10, 21
4, 19069, Note_on_c, 1, 73, 0
4, 19085, Control_c, 1, 10, 105
4, 19095, Control_c, 1, 10, 106
4, 19097, Note_on_c, 1, 73, 52
4, 19112, Note_on_c, 1, 73, 0
4, 19117, Control_c, 1, 10, 107
4, 19144, Control_c, 1, 10, 108
4, 19154, Control_c, 1, 10, 110
4, 19162, Control_c, 1, 10, 0
4, 19168, Control_c, 1, 10, 16
4, 19173, Control_c, 1, 10, 19
4, 19178, Control_c, 1, 10, 20
4, 19192, Note_on_c, 1, 73, 41
4, 19206, Note_on_c, 1, 73, 0
4, 19212, Control_c, 1, 10, 19
4, 19217, Control_c, 1, 10, 18
4, 19222, Control_c, 1, 10, 13
4, 19227, Control_c, 1, 10, 111
4, 19234, Control_c, 1, 10, 107
4, 19244, Control_c, 1, 10, 106
4, 19263, Note_on_c, 1, 73, 42
4, 19279, Control_c, 1, 10, 107
4, 19284, Control_c, 1, 10, 109
4, 19289, Control_c, 1, 10, 14
4, 19294, Control_c, 1, 10, 20
4, 19299, Control_c, 1, 10, 21
4, 19336, Note_on_c, 1, 73, 0
4, 19349, Control_c, 1, 10, 22
4, 19359, Control_c, 1, 10, 31
4, 19364, Control_c, 1, 10, 103
4, 19370, Control_c, 1, 10, 105
4, 19370, Note_on_c, 1, 73, 39
4, 19381, Note_on_c, 1, 73, 0
4, 19381, Control_c, 1, 10, 106
4, 19389, Control_c, 1, 10, 107
4, 19414, Control_c, 1, 10, 108
4, 19419, Control_c, 1, 10, 110
4, 19424, Control_c, 1, 10, 123
4, 19429, Control_c, 1, 10, 16
4, 19434, Control_c, 1, 10, 19
4, 19439, Control_c, 1, 10, 20
4, 19458, Note_on_c, 1, 73, 47
4, 19471, Control_c, 1, 10, 19
4, 19472, Note_on_c, 1, 73, 0
4, 19484, Control_c, 1, 10, 17
4, 19489, Control_c, 1, 10, 127
4, 19496, Control_c, 1, 10, 108
4, 19499, Control_c, 1, 10, 107
4, 19520, Control_c, 1, 10, 108
4, 19526, Note_on_c, 1, 73, 49
4, 19557, Control_c, 1, 10, 110
4, 19562, Control_c, 1, 10, 120
4, 19567, Control_c, 1, 10, 11
4, 19572, Control_c, 1, 10, 18
4, 19572, Control_c, 1, 10, 16
4, 19603, Note_on_c, 1, 73, 0
4, 19616, Control_c, 1, 10, 17
4, 19621, Control_c, 1, 10, 12
4, 19626, Control_c, 1, 10, 114
4, 19631, Control_c, 1, 10, 108
4, 19632, Note_on_c, 1, 73, 46
4, 19633, Control_c, 1, 10, 107
4, 19639, Control_c, 1, 10, 108
4, 19646, Note_on_c, 1, 73, 0
4, 19651, Control_c, 1, 10, 109
4, 19687, Control_c, 1, 10, 110
4, 19692, Control_c, 1, 10, 116
4, 19700, Control_c, 1, 10, 18
4, 19700, Control_c, 1, 10, 13
4, 19705, Control_c, 1, 10, 19
4, 19721, Note_on_c, 1, 73, 45
4, 19738, Note_on_c, 1, 73, 0
4, 19748, Control_c, 1, 10, 18
4, 19753, Control_c, 1, 10, 16
4, 19758, Control_c, 1, 10, 0
4, 19761, Control_c, 1, 10, 112
4, 19766, Control_c, 1, 10, 110
4, 19789, Note_on_c, 1, 73, 41
4, 19814, Control_c, 1, 10, 111
4, 19820, Control_c, 1, 10, 112
4, 19821, Control_c, 1, 10, 120
4, 19826, Control_c, 1, 10, 7
4, 19831, Control_c, 1, 10, 15
4, 19836, Control_c, 1, 10, 17
4, 19849, Control_c, 1, 10, 18
4, 19860, Control_c, 1, 10, 19
4, 19867, Note_on_c, 1, 73, 0
4, 19867, Control_c, 1, 10, 20
4, 19871, Control_c, 1, 10, 22
4, 19876, Control_c, 1, 10, 25
4, 19881, Control_c, 1, 10, 30
4, 19886, Control_c, 1, 10, 72
4, 19893, Control_c, 1, 10, 97
4, 19895, Control_c, 1, 10, 102
4, 19895, Note_on_c, 1, 73, 42
4, 19900, Control_c, 1, 10, 104
4, 19905, Note_on_c, 1, 73, 0
4, 19905, Control_c, 1, 10, 105
4, 19910, Control_c, 1, 10, 107
4, 19955, Control_c, 1, 10, 23
4, 19960, Control_c, 1, 10, 22
4, 19980, Control_c, 1, 10, 21
4, 19986, Note_on_c, 1, 73, 42
4, 19992, Control_c, 1, 10, 22
4, 19999, Note_on_c, 1, 73, 0
4, 20020, Control_c, 1, 10, 23
4, 20030, Control_c, 1, 10, 27
4, 20035, Control_c, 1, 10, 107
4, 20040, Control_c, 1, 10, 108
4, 20047, Control_c, 1, 10, 109
4, 20058, Note_on_c, 1, 73, 36
4, 20087, Control_c, 1, 10, 113
4, 20092, Control_c, 1, 10, 18
4, 20097, Control_c, 1, 10, 20
4, 20133, Note_on_c, 1, 73, 0
4, 20133, Control_c, 1, 10, 21
4, 20156, Control_c, 1, 10, 19
4, 20160, Control_c, 1, 10, 111
4, 20168, Control_c, 1, 10, 108
4, 20168, Control_c, 1, 10, 109
4, 20168, Note_on_c, 1, 73, 42
4, 20181, Note_on_c, 1, 73, 0
4, 20216, Control_c, 1, 10, 110
4, 20221, Control_c, 1, 10, 127
4, 20224, Control_c, 1, 10, 19
4, 20230, Control_c, 1, 10, 20
4, 20256, Note_on_c, 1, 73, 42
4, 20270, Note_on_c, 1, 73, 0
4, 20296, Control_c, 1, 10, 127
4, 20301, Control_c, 1, 10, 108
4, 20308, Control_c, 1, 10, 107
4, 20317, Control_c, 1, 10, 108
4, 20324, Control_c, 1, 10, 109
4, 20324, Note_on_c, 1, 73, 44
4, 20348, Control_c, 1, 10, 110
4, 20353, Control_c, 1, 10, 113
4, 20358, Control_c, 1, 10, 13
4, 20363, Control_c, 1, 10, 20
4, 20368, Control_c, 1, 10, 21
4, 20402, Note_on_c, 1, 73, 0
4, 20417, Control_c, 1, 10, 22
4, 20422, Control_c, 1, 10, 24
4, 20430, Control_c, 1, 10, 105
4, 20430, Control_c, 1, 10, 101
4, 20430, Note_on_c, 1, 73, 37
4, 20440, Note_on_c, 1, 73, 0
4, 20440, Control_c, 1, 10, 106
4, 20450, Control_c, 1, 10, 107
4, 20455, Control_c, 1, 10, 108
4, 20478, Control_c, 1, 10, 110
4, 20483, Control_c, 1, 10, 119
4, 20488, Control_c, 1, 10, 13
4, 20493, Control_c, 1, 10, 18
4, 20498, Control_c, 1, 10, 20
4, 20503, Control_c, 1, 10, 21
4, 20520, Note_on_c, 1, 73, 37
4, 20532, Note_on_c, 1, 73, 0
4, 20532, Control_c, 1, 10, 20
4, 20551, Control_c, 1, 10, 19
4, 20556, Control_c, 1, 10, 13
4, 20561, Control_c, 1, 10, 110
4, 20566, Control_c, 1, 10, 108
4, 20581, Control_c, 1, 10, 107
4, 20582, Control_c, 1, 10, 108
4, 20587, Note_on_c, 1, 73, 35
4, 20623, Control_c, 1, 10, 110
4, 20628, Control_c, 1, 10, 112
4, 20633, Control_c, 1, 10, 0
4, 20638, Control_c, 1, 10, 16
4, 20643, Control_c, 1, 10, 18
4, 20646, Control_c, 1, 10, 19
4, 20667, Note_on_c, 1, 73, 0
4, 20672, Control_c, 1, 10, 18
4, 20682, Control_c, 1, 10, 16
4, 20687, Control_c, 1, 10, 12
4, 20692, Control_c, 1, 10, 118
4, 20693, Control_c, 1, 10, 109
4, 20693, Note_on_c, 1, 73, 35
4, 20698, Control_c, 1, 10, 107
4, 20703, Control_c, 1, 10, 108
4, 20707, Note_on_c, 1, 73, 0
4, 20716, Control_c, 1, 10, 109
4, 20744, Control_c, 1, 10, 110
4, 20749, Control_c, 1, 10, 111
4, 20754, Control_c, 1, 10, 115
4, 20756, Control_c, 1, 10, 1
4, 20761, Control_c, 1, 10, 16
4, 20766, Control_c, 1, 10, 18
4, 20774, Control_c, 1, 10, 19
4, 20783, Note_on_c, 1, 73, 34
4, 20795, Note_on_c, 1, 73, 0
4, 20809, Control_c, 1, 10, 18
4, 20819, Control_c, 1, 10, 14
4, 20820, Control_c, 1, 10, 119
4, 20825, Control_c, 1, 10, 109
4, 20830, Control_c, 1, 10, 108
4, 20852, Control_c, 1, 10, 109
4, 20852, Note_on_c, 1, 73, 37
4, 20884, Control_c, 1, 10, 111
4, 20889, Control_c, 1, 10, 127
4, 20894, Control_c, 1, 10, 16
4, 20899, Control_c, 1, 10, 19
4, 20910, Control_c, 1, 10, 20
4, 20935, Note_on_c, 1, 73, 0
4, 20940, Control_c, 1, 10, 21
4, 20955, Control_c, 1, 10, 93
4, 20960, Control_c, 1, 10, 104
4, 20965, Control_c, 1, 10, 105
4, 21015, Control_c, 1, 10, 104
4, 21020, Control_c, 1, 10, 29
4, 21025, Control_c, 1, 10, 23
4, 21030, Control_c, 1, 10, 22
4, 21049, Note_on_c, 1, 73, 56
4, 21063, Note_on_c, 1, 73, 0
4, 21077, Control_c, 1, 10, 23
4, 21086, Control_c, 1, 10, 24
4, 21091, Control_c, 1, 10, 88
4, 21092, Control_c, 1, 10, 105
4, 21102, Control_c, 1, 10, 106
4, 21107, Control_c, 1, 10, 107
4, 21117, Control_c, 1, 10, 108
4, 21141, Note_on_c, 1, 73, 15
4, 21156, Control_c, 1, 10, 109
4, 21161, Control_c, 1, 10, 10
4, 21166, Control_c, 1, 10, 20
4, 21197, Control_c, 1, 10, 21
4, 21214, Note_on_c, 1, 73, 0
4, 21219, Control_c, 1, 10, 22
4, 21224, Control_c, 1, 10, 29
4, 21228, Control_c, 1, 10, 104
4, 21234, Control_c, 1, 10, 105
4, 21234, Note_on_c, 1, 73, 52
4, 21239, Control_c, 1, 10, 106
4, 21244, Control_c, 1, 10, 107
4, 21249, Note_on_c, 1, 73, 0
4, 21287, Control_c, 1, 10, 105
4, 21295, Control_c, 1, 10, 22
4, 21353, Control_c, 1, 10, 23
4, 21358, Control_c, 1, 10, 105
4, 21363, Control_c, 1, 10, 107
4, 21373, Control_c, 1, 10, 108
4, 21389, Control_c, 1, 10, 109
4, 21399, Note_on_c, 1, 73, 17
4, 21423, Control_c, 1, 10, 114
4, 21428, Control_c, 1, 10, 17
4, 21433, Control_c, 1, 10, 20
4, 21460, Note_on_c, 1, 73, 0
4, 21483, Control_c, 1, 10, 18
4, 21488, Control_c, 1, 10, 108
4, 21493, Control_c, 1, 10, 107
4, 21498, Control_c, 1, 10, 108
4, 21508, Control_c, 1, 10, 109
4, 21552, Control_c, 1, 10, 111
4, 21557, Control_c, 1, 10, 8
4, 21562, Control_c, 1, 10, 19
4, 21572, Control_c, 1, 10, 20
4, 21578, Note_on_c, 1, 73, 62
4, 21590, Note_on_c, 1, 73, 0
4, 21612, Control_c, 1, 10, 21
4, 21624, Control_c, 1, 10, 105
4, 21626, Control_c, 1, 10, 107
4, 21638, Control_c, 1, 10, 108
4, 21649, Control_c, 1, 10, 109
4, 21656, Note_on_c, 1, 73, 22
4, 21676, Control_c, 1, 10, 108
4, 21686, Control_c, 1, 10, 110
4, 21696, Control_c, 1, 10, 21
4, 21728, Note_on_c, 1, 73, 0
4, 21739, Control_c, 1, 10, 22
4, 21745, Control_c, 1, 10, 23
4, 21750, Control_c, 1, 10, 24
4, 21756, Control_c, 1, 10, 93
4, 21756, Note_on_c, 1, 73, 51
4, 21760, Control_c, 1, 10, 105
4, 21765, Control_c, 1, 10, 107
4, 21768, Note_on_c, 1, 73, 0
4, 21768, Control_c, 1, 10, 108
4, 21778, Control_c, 1, 10, 109
4, 21811, Control_c, 1, 10, 110
4, 21817, Control_c, 1, 10, 111
4, 21822, Control_c, 1, 10, 115
4, 21827, Control_c, 1, 10, 15
4, 21832, Control_c, 1, 10, 19
4, 21837, Control_c, 1, 10, 20
4, 21849, Note_on_c, 1, 73, 50
4, 21862, Note_on_c, 1, 73, 0
4, 21877, Control_c, 1, 10, 21
4, 21890, Control_c, 1, 10, 22
4, 21899, Control_c, 1, 10, 106
4, 21899, Control_c, 1, 10, 101
4, 21904, Control_c, 1, 10, 108
4, 21909, Control_c, 1, 10, 109
4, 21922, Control_c, 1, 10, 110
4, 21927, Note_on_c, 1, 73, 46
4, 21960, Control_c, 1, 10, 111
4, 21965, Control_c, 1, 10, 127
4, 21970, Control_c, 1, 10, 18
4, 21975, Control_c, 1, 10, 20
4, 21998, Note_on_c, 1, 73, 0
4, 22022, Control_c, 1, 10, 19
4, 22024, Control_c, 1, 10, 118
4, 22024, Note_on_c, 1, 73, 48
4, 22029, Control_c, 1, 10, 106
4, 22032, Control_c, 1, 10, 107
4, 22038, Note_on_c, 1, 73, 0
4, 22056, Control_c, 1, 10, 108
4, 22077, Control_c, 1, 10, 109
4, 22082, Control_c, 1, 10, 108
4, 22087, Control_c, 1, 10, 118
4, 22092, Control_c, 1, 10, 21
4, 22097, Control_c, 1, 10, 22
4, 22118, Note_on_c, 1, 73, 40
4, 22131, Note_on_c, 1, 73, 0
4, 22158, Control_c, 1, 10, 23
4, 22163, Control_c, 1, 10, 25
4, 22168, Control_c, 1, 10, 105
4, 22173, Control_c, 1, 10, 107
4, 22176, Control_c, 1, 10, 108
4, 22181, Control_c, 1, 10, 109
4, 22187, Control_c, 1, 10, 110
4, 22187, Note_on_c, 1, 73, 35
4, 22203, Control_c, 1, 10, 111
4, 22208, Control_c, 1, 10, 127
4, 22211, Control_c, 1, 10, 17
4, 22216, Control_c, 1, 10, 20
4, 22224, Control_c, 1, 10, 21
4, 22249, Control_c, 1, 10, 20
4, 22257, Note_on_c, 1, 73, 0
4, 22257, Control_c, 1, 10, 14
4, 22262, Control_c, 1, 10, 127
4, 22267, Control_c, 1, 10, 113
4, 22269, Control_c, 1, 10, 111
4, 22291, Control_c, 1, 10, 112
4, 22291, Note_on_c, 1, 73, 34
4, 22296, Control_c, 1, 10, 119
4, 22299, Control_c, 1, 10, 17
4, 22303, Note_on_c, 1, 73, 0
4, 22308, Control_c, 1, 10, 20
4, 22308, Control_c, 1, 10, 19
4, 22320, Control_c, 1, 10, 19
4, 22330, Control_c, 1, 10, 17
4, 22332, Control_c, 1, 10, 114
4, 22337, Control_c, 1, 10, 108
4, 22358, Control_c, 1, 10, 111
4, 22362, Control_c, 1, 10, 21
4, 22379, Note_on_c, 1, 73, 51
4, 22392, Note_on_c, 1, 73, 0
4, 22400, Control_c, 1, 10, 20
4, 22405, Control_c, 1, 10, 17
4, 22410, Control_c, 1, 10, 111
4, 22415, Control_c, 1, 10, 107
4, 22419, Control_c, 1, 10, 106
4, 22429, Control_c, 1, 10, 107
4, 22439, Control_c, 1, 10, 108
4, 22453, Note_on_c, 1, 73, 36
4, 22454, Control_c, 1, 10, 109
4, 22479, Control_c, 1, 10, 110
4, 22494, Control_c, 1, 10, 118
4, 22499, Control_c, 1, 10, 19
4, 22504, Control_c, 1, 10, 21
4, 22522, Note_on_c, 1, 73, 0
4, 22550, Control_c, 1, 10, 22
4, 22554, Control_c, 1, 10, 23
4, 22554, Note_on_c, 1, 73, 45
4, 22559, Control_c, 1, 10, 102
4, 22564, Control_c, 1, 10, 104
4, 22572, Note_on_c, 1, 73, 0
4, 22572, Control_c, 1, 10, 106
4, 22578, Control_c, 1, 10, 107
4, 22588, Control_c, 1, 10, 108
4, 22620, Control_c, 1, 10, 110
4, 22625, Control_c, 1, 10, 127
4, 22630, Control_c, 1, 10, 19
4, 22635, Control_c, 1, 10, 20
4, 22648, Note_on_c, 1, 73, 34
4, 22663, Note_on_c, 1, 73, 0
4, 22689, Control_c, 1, 10, 19
4, 22695, Control_c, 1, 10, 109
4, 22700, Control_c, 1, 10, 108
4, 22700, Control_c, 1, 10, 107
4, 22710, Control_c, 1, 10, 109
4, 22715, Note_on_c, 1, 73, 41
4, 22752, Control_c, 1, 10, 110
4, 22757, Control_c, 1, 10, 112
4, 22762, Control_c, 1, 10, 2
4, 22767, Control_c, 1, 10, 19
4, 22770, Control_c, 1, 10, 20
4, 22784, Note_on_c, 1, 73, 0
4, 22806, Control_c, 1, 10, 21
4, 22821, Note_on_c, 1, 73, 50
4, 22831, Control_c, 1, 10, 109
4, 22834, Note_on_c, 1, 73, 0
4, 22844, Control_c, 1, 10, 110
4, 22886, Control_c, 1, 10, 111
4, 22891, Control_c, 1, 10, 116
4, 22896, Control_c, 1, 10, 16
4, 22901, Control_c, 1, 10, 19
4, 22911, Control_c, 1, 10, 20
4, 22914, Note_on_c, 1, 73, 38
4, 22924, Note_on_c, 1, 73, 0
4, 22939, Control_c, 1, 10, 19
4, 22955, Control_c, 1, 10, 17
4, 22960, Control_c, 1, 10, 114
4, 22965, Control_c, 1, 10, 110
4, 22985, Note_on_c, 1, 73, 39
4, 23009, Control_c, 1, 10, 109
4, 23013, Control_c, 1, 10, 110
4, 23018, Control_c, 1, 10, 118
4, 23023, Control_c, 1, 10, 18
4, 23028, Control_c, 1, 10, 20
4, 23038, Control_c, 1, 10, 21
4, 23059, Note_on_c, 1, 73, 0
4, 23075, Control_c, 1, 10, 22
4, 23090, Control_c, 1, 10, 24
4, 23090, Note_on_c, 1, 73, 48
4, 23095, Control_c, 1, 10, 51
4, 23100, Control_c, 1, 10, 105
4, 23102, Note_on_c, 1, 73, 0
4, 23102, Control_c, 1, 10, 107
4, 23107, Control_c, 1, 10, 108
4, 23114, Control_c, 1, 10, 109
4, 23140, Control_c, 1, 10, 108
4, 23160, Control_c, 1, 10, 18
4, 23165, Control_c, 1, 10, 21
4, 23179, Note_on_c, 1, 73, 42
4, 23196, Note_on_c, 1, 73, 0
4, 23222, Control_c, 1, 10, 22
4, 23227, Control_c, 1, 10, 108
4, 23254, Note_on_c, 1, 73, 40
4, 23280, Control_c, 1, 10, 109
4, 23290, Control_c, 1, 10, 112
4, 23299, Control_c, 1, 10, 127
4, 23304, Control_c, 1, 10, 12
4, 23309, Control_c, 1, 10, 16
4, 23314, Control_c, 1, 10, 17
4, 23326, Note_on_c, 1, 73, 0
4, 23328, Control_c, 1, 10, 18
4, 23343, Control_c, 1, 10, 19
4, 23353, Control_c, 1, 10, 18
4, 23361, Control_c, 1, 10, 13
4, 23361, Note_on_c, 1, 73, 42
4, 23366, Control_c, 1, 10, 110
4, 23371, Control_c, 1, 10, 107
4, 23376, Note_on_c, 1, 73, 0
4, 23422, Control_c, 1, 10, 108
4, 23427, Control_c, 1, 10, 113
4, 23432, Control_c, 1, 10, 12
4, 23439, Control_c, 1, 10, 17
4, 23444, Control_c, 1, 10, 19
4, 23450, Control_c, 1, 10, 20
4, 23450, Note_on_c, 1, 73, 59
4, 23464, Note_on_c, 1, 73, 0
4, 23491, Control_c, 1, 10, 19
4, 23496, Control_c, 1, 10, 109
4, 23501, Control_c, 1, 10, 107
4, 23520, Note_on_c, 1, 73, 36
4, 23559, Control_c, 1, 10, 108
4, 23564, Control_c, 1, 10, 118
4, 23569, Control_c, 1, 10, 21
4, 23578, Control_c, 1, 10, 22
4, 23587, Note_on_c, 1, 73, 0
4, 23619, Control_c, 1, 10, 23
4, 23619, Note_on_c, 1, 73, 35
4, 23624, Control_c, 1, 10, 24
4, 23629, Control_c, 1, 10, 103
4, 23636, Note_on_c, 1, 73, 0
4, 23638, Control_c, 1, 10, 106
4, 23649, Control_c, 1, 10, 107
4, 23688, Control_c, 1, 10, 108
4, 23693, Control_c, 1, 10, 127
4, 23698, Control_c, 1, 10, 21
4, 23703, Control_c, 1, 10, 22
4, 23709, Note_on_c, 1, 73, 39
4, 23723, Note_on_c, 1, 73, 0
4, 23759, Control_c, 1, 10, 24
4, 23764, Control_c, 1, 10, 106
4, 23771, Control_c, 1, 10, 107
4, 23780, Note_on_c, 1, 73, 41
4, 23789, Control_c, 1, 10, 108
4, 23817, Control_c, 1, 10, 109
4, 23822, Control_c, 1, 10, 124
4, 23827, Control_c, 1, 10, 19
4, 23832, Control_c, 1, 10, 20
4, 23837, Control_c, 1, 10, 21
4, 23857, Note_on_c, 1, 73, 0
4, 23892, Control_c, 1, 10, 106
4, 23892, Note_on_c, 1, 73, 46
4, 23897, Control_c, 1, 10, 107
4, 23908, Note_on_c, 1, 73, 0
4, 23950, Control_c, 1, 10, 108
4, 23955, Control_c, 1, 10, 112
4, 23959, Control_c, 1, 10, 19
4, 23966, Control_c, 1, 10, 21
4, 23985, Note_on_c, 1, 73, 41
4, 24000, Note_on_c, 1, 73, 0
4, 24018, Control_c, 1, 10, 112
4, 24024, Control_c, 1, 10, 107
4, 24029, Control_c, 1, 10, 108
4, 24052, Note_on_c, 1, 73, 52
4, 24072, Control_c, 1, 10, 110
4, 24077, Control_c, 1, 10, 117
4, 24082, Control_c, 1, 10, 18
4, 24087, Control_c, 1, 10, 20
4, 24092, Control_c, 1, 10, 21
4, 24129, Note_on_c, 1, 73, 0
4, 24162, Control_c, 1, 10, 13
4, 24162, Note_on_c, 1, 73, 45
4, 24177, Note_on_c, 1, 73, 0
4, 24187, Control_c, 1, 10, 108
4, 24218, Control_c, 1, 10, 110
4, 24223, Control_c, 1, 10, 127
4, 24228, Control_c, 1, 10, 18
4, 24233, Control_c, 1, 10, 20
4, 24238, Control_c, 1, 10, 21
4, 24253, Note_on_c, 1, 73, 36
4, 24268, Note_on_c, 1, 73, 0
4, 24286, Control_c, 1, 10, 22
4, 24295, Control_c, 1, 10, 114
4, 24300, Control_c, 1, 10, 108
4, 24319, Note_on_c, 1, 73, 53
4, 24346, Control_c, 1, 10, 109
4, 24351, Control_c, 1, 10, 112
4, 24356, Control_c, 1, 10, 12
4, 24361, Control_c, 1, 10, 21
4, 24366, Control_c, 1, 10, 22
4, 24396, Note_on_c, 1, 73, 0
4, 24417, Control_c, 1, 10, 23
4, 24424, Control_c, 1, 10, 25
4, 24424, Note_on_c, 1, 73, 40
4, 24430, Control_c, 1, 10, 63
4, 24435, Note_on_c, 1, 73, 0
4, 24435, Control_c, 1, 10, 104
4, 24440, Control_c, 1, 10, 105
4, 24445, Control_c, 1, 10, 106
4, 24470, Control_c, 1, 10, 107
4, 24485, Control_c, 1, 10, 109
4, 24491, Control_c, 1, 10, 16
4, 24496, Control_c, 1, 10, 21
4, 24501, Control_c, 1, 10, 22
4, 24517, Note_on_c, 1, 73, 35
4, 24534, Note_on_c, 1, 73, 0
4, 24548, Control_c, 1, 10, 24
4, 24548, Control_c, 1, 10, 23
4, 24557, Control_c, 1, 10, 37
4, 24560, Control_c, 1, 10, 102
4, 24565, Control_c, 1, 10, 105
4, 24570, Control_c, 1, 10, 106
4, 24580, Control_c, 1, 10, 107
4, 24586, Note_on_c, 1, 73, 41
4, 24614, Control_c, 1, 10, 108
4, 24624, Control_c, 1, 10, 110
4, 24629, Control_c, 1, 10, 115
4, 24634, Control_c, 1, 10, 10
4, 24639, Control_c, 1, 10, 19
4, 24644, Control_c, 1, 10, 21
4, 24660, Note_on_c, 1, 73, 0
4, 24683, Control_c, 1, 10, 22
4, 24688, Control_c, 1, 10, 23
4, 24693, Control_c, 1, 10, 89
4, 24693, Note_on_c, 1, 73, 48
4, 24698, Control_c, 1, 10, 105
4, 24703, Control_c, 1, 10, 106
4, 24709, Note_on_c, 1, 73, 0
4, 24713, Control_c, 1, 10, 107
4, 24754, Control_c, 1, 10, 108
4, 24759, Control_c, 1, 10, 115
4, 24764, Control_c, 1, 10, 19
4, 24769, Control_c, 1, 10, 21
4, 24783, Note_on_c, 1, 73, 37
4, 24798, Note_on_c, 1, 73, 0
4, 24831, Control_c, 1, 10, 111
4, 24836, Control_c, 1, 10, 108
4, 24840, Control_c, 1, 10, 107
4, 24848, Control_c, 1, 10, 108
4, 24848, Note_on_c, 1, 73, 48
4, 24866, Control_c, 1, 10, 109
4, 24880, Control_c, 1, 10, 111
4, 24885, Control_c, 1, 10, 121
4, 24890, Control_c, 1, 10, 12
4, 24895, Control_c, 1, 10, 18
4, 24900, Control_c, 1, 10, 19
4, 24911, Control_c, 1, 10, 20
4, 24923, Note_on_c, 1, 73, 0
4, 24938, Control_c, 1, 10, 19
4, 24943, Control_c, 1, 10, 14
4, 24947, Control_c, 1, 10, 109
4, 24952, Control_c, 1, 10, 107
4, 24958, Note_on_c, 1, 73, 35
4, 24976, Note_on_c, 1, 73, 0
4, 24995, Control_c, 1, 10, 108
4, 25010, Control_c, 1, 10, 113
4, 25014, Control_c, 1, 10, 12
4, 25020, Control_c, 1, 10, 19
4, 25024, Control_c, 1, 10, 20
4, 25047, Note_on_c, 1, 73, 41
4, 25061, Note_on_c, 1, 73, 0
4, 25078, Control_c, 1, 10, 19
4, 25083, Control_c, 1, 10, 18
4, 25086, Control_c, 1, 10, 116
4, 25091, Control_c, 1, 10, 108
4, 25098, Control_c, 1, 10, 107
4, 25103, Control_c, 1, 10, 108
4, 25115, Note_on_c, 1, 73, 40
4, 25120, Control_c, 1, 10, 109
4, 25132, Control_c, 1, 10, 111
4, 25137, Control_c, 1, 10, 121
4, 25141, Control_c, 1, 10, 12
4, 25147, Control_c, 1, 10, 18
4, 25152, Control_c, 1, 10, 20
4, 25195, Note_on_c, 1, 73, 0
4, 25210, Control_c, 1, 10, 16
4, 25215, Control_c, 1, 10, 113
4, 25220, Control_c, 1, 10, 109
4, 25226, Control_c, 1, 10, 108
4, 25226, Note_on_c, 1, 73, 51
4, 25236, Control_c, 1, 10, 108
4, 25236, Control_c, 1, 10, 107
4, 25242, Note_on_c, 1, 73, 0
4, 25264, Control_c, 1, 10, 110
4, 25270, Control_c, 1, 10, 116
4, 25275, Control_c, 1, 10, 10
4, 25280, Control_c, 1, 10, 17
4, 25285, Control_c, 1, 10, 19
4, 25318, Note_on_c, 1, 73, 32
4, 25332, Control_c, 1, 10, 18
4, 25336, Note_on_c, 1, 73, 0
4, 25336, Control_c, 1, 10, 16
4, 25342, Control_c, 1, 10, 6
4, 25347, Control_c, 1, 10, 116
4, 25352, Control_c, 1, 10, 111
4, 25357, Control_c, 1, 10, 109
4, 25361, Control_c, 1, 10, 108
4, 25387, Note_on_c, 1, 73, 36
4, 25407, Control_c, 1, 10, 109
4, 25412, Control_c, 1, 10, 111
4, 25417, Control_c, 1, 10, 127
4, 25422, Control_c, 1, 10, 17
4, 25427, Control_c, 1, 10, 19
4, 25448, Control_c, 1, 10, 20
4, 25463, Note_on_c, 1, 73, 0
4, 25482, Control_c, 1, 10, 19
4, 25487, Control_c, 1, 10, 12
4, 25493, Control_c, 1, 10, 109
4, 25493, Note_on_c, 1, 73, 45
4, 25498, Control_c, 1, 10, 107
4, 25507, Note_on_c, 1, 73, 0
4, 25534, Control_c, 1, 10, 108
4, 25538, Control_c, 1, 10, 118
4, 25543, Control_c, 1, 10, 18
4, 25548, Control_c, 1, 10, 20
4, 25581, Note_on_c, 1, 73, 53
4, 25596, Note_on_c, 1, 73, 0
4, 25606, Control_c, 1, 10, 16
4, 25614, Control_c, 1, 10, 117
4, 25619, Control_c, 1, 10, 109
4, 25623, Control_c, 1, 10, 108
4, 25628, Control_c, 1, 10, 107
4, 25633, Control_c, 1, 10, 108
4, 25638, Control_c, 1, 10, 107
4, 25653, Note_on_c, 1, 73, 43
4, 25656, Control_c, 1, 10, 108
4, 25670, Control_c, 1, 10, 110
4, 25674, Control_c, 1, 10, 127
4, 25677, Control_c, 1, 10, 17
4, 25682, Control_c, 1, 10, 19
4, 25687, Control_c, 1, 10, 20
4, 25729, Note_on_c, 1, 73, 0
4, 25746, Control_c, 1, 10, 18
4, 25751, Control_c, 1, 10, 0
4, 25756, Control_c, 1, 10, 113
4, 25761, Control_c, 1, 10, 110
4, 25761, Note_on_c, 1, 73, 50
4, 25766, Control_c, 1, 10, 109
4, 25778, Note_on_c, 1, 73, 0
4, 25790, Control_c, 1, 10, 110
4, 25803, Control_c, 1, 10, 111
4, 25808, Control_c, 1, 10, 118
4, 25813, Control_c, 1, 10, 2
4, 25818, Control_c, 1, 10, 17
4, 25823, Control_c, 1, 10, 19
4, 25828, Control_c, 1, 10, 20
4, 25852, Note_on_c, 1, 73, 52
4, 25866, Note_on_c, 1, 73, 0
4, 25881, Control_c, 1, 10, 19
4, 25888, Control_c, 1, 10, 114
4, 25894, Control_c, 1, 10, 109
4, 25899, Control_c, 1, 10, 108
4, 25902, Control_c, 1, 10, 109
4, 25920, Note_on_c, 1, 73, 50
4, 25927, Control_c, 1, 10, 110
4, 25935, Control_c, 1, 10, 112
4, 25940, Control_c, 1, 10, 127
4, 25945, Control_c, 1, 10, 15
4, 25953, Control_c, 1, 10, 19
4, 25956, Control_c, 1, 10, 20
4, 25993, Note_on_c, 1, 73, 0
4, 26007, Control_c, 1, 10, 18
4, 26012, Control_c, 1, 10, 0
4, 26018, Control_c, 1, 10, 112
4, 26024, Control_c, 1, 10, 110
4, 26030, Note_on_c, 1, 73, 46
4, 26045, Note_on_c, 1, 73, 0
4, 26088, Control_c, 1, 10, 112
4, 26093, Control_c, 1, 10, 127
4, 26097, Control_c, 1, 10, 14
4, 26102, Control_c, 1, 10, 19
4, 26107, Control_c, 1, 10, 20
4, 26122, Note_on_c, 1, 73, 52
4, 26138, Note_on_c, 1, 73, 0
4, 26157, Control_c, 1, 10, 18
4, 26161, Control_c, 1, 10, 113
4, 26169, Control_c, 1, 10, 108
4, 26183, Control_c, 1, 10, 107
4, 26190, Control_c, 1, 10, 108
4, 26220, Control_c, 1, 10, 109
4, 26225, Control_c, 1, 10, 112
4, 26230, Control_c, 1, 10, 2
4, 26235, Control_c, 1, 10, 17
4, 26240, Control_c, 1, 10, 19
4, 26252, Note_on_c, 1, 71, 56
4, 26274, Note_on_c, 1, 71, 0
4, 26290, Note_on_c, 1, 73, 73
4, 26295, Control_c, 1, 10, 18
4, 26300, Control_c, 1, 10, 15
4, 26303, Note_on_c, 1, 73, 0
4, 26303, Control_c, 1, 10, 116
4, 26308, Control_c, 1, 10, 109
4, 26314, Control_c, 1, 10, 108
4, 26359, Control_c, 1, 10, 109
4, 26364, Control_c, 1, 10, 127
4, 26369, Control_c, 1, 10, 18
4, 26374, Control_c, 1, 10, 20
4, 26381, Control_c, 1, 10, 21
4, 26435, Control_c, 1, 10, 105
4, 26448, Control_c, 1, 10, 106
4, 26448, Note_on_c, 1, 71, 48
4, 26452, Control_c, 1, 10, 107
4, 26466, Control_c, 1, 10, 108
4, 26477, Note_on_c, 1, 71, 0
4, 26487, Note_on_c, 1, 73, 65
4, 26492, Control_c, 1, 10, 109
4, 26497, Control_c, 1, 10, 124
4, 26502, Control_c, 1, 10, 18
4, 26509, Note_on_c, 1, 73, 0
4, 26509, Control_c, 1, 10, 20
4, 26512, Control_c, 1, 10, 21
4, 26512, Note_on_c, 1, 71, 46
4, 26535, Note_on_c, 1, 71, 0
4, 26547, Note_on_c, 1, 73, 97
4, 26560, Note_on_c, 1, 73, 0
4, 26560, Control_c, 1, 10, 22
4, 26565, Control_c, 1, 10, 93
4, 26570, Control_c, 1, 10, 104
4, 26578, Control_c, 1, 10, 105
4, 26595, Control_c, 1, 10, 106
4, 26625, Control_c, 1, 10, 107
4, 26630, Control_c, 1, 10, 19
4, 26637, Control_c, 1, 10, 20
4, 26647, Control_c, 1, 10, 21
4, 26696, Control_c, 1, 10, 22
4, 26702, Control_c, 1, 10, 102
4, 26704, Control_c, 1, 10, 104
4, 26712, Control_c, 1, 10, 105
4, 26747, Control_c, 1, 10, 106
4, 26757, Control_c, 1, 10, 111
4, 26762, Control_c, 1, 10, 20
4, 26767, Control_c, 1, 10, 21
4, 26781, Note_on_c, 1, 71, 42
4, 26804, Note_on_c, 1, 71, 0
4, 26820, Control_c, 1, 10, 22
4, 26820, Note_on_c, 1, 73, 60
4, 26825, Control_c, 1, 10, 23
4, 26830, Control_c, 1, 10, 101
4, 26835, Control_c, 1, 10, 104
4, 26837, Note_on_c, 1, 73, 0
4, 26852, Control_c, 1, 10, 105
4, 26889, Control_c, 1, 10, 127
4, 26894, Control_c, 1, 10, 21
4, 26960, Control_c, 1, 10, 22
4, 26963, Control_c, 1, 10, 103
4, 26967, Control_c, 1, 10, 105
4, 26981, Note_on_c, 1, 71, 42
4, 27008, Note_on_c, 1, 71, 0
4, 27020, Control_c, 1, 10, 21
4, 27020, Note_on_c, 1, 73, 58
4, 27043, Note_on_c, 1, 73, 0
4, 27048, Note_on_c, 1, 71, 37
4, 27069, Note_on_c, 1, 71, 0
4, 27081, Note_on_c, 1, 73, 66
4, 27086, Control_c, 1, 10, 22
4, 27091, Control_c, 1, 10, 103
4, 27096, Control_c, 1, 10, 105
4, 27100, Note_on_c, 1, 73, 0
4, 27116, Control_c, 1, 10, 106
4, 27141, Control_c, 1, 10, 107
4, 27151, Control_c, 1, 10, 111
4, 27153, Control_c, 1, 10, 17
4, 27158, Control_c, 1, 10, 19
4, 27163, Control_c, 1, 10, 20
4, 27223, Control_c, 1, 10, 127
4, 27228, Control_c, 1, 10, 107
4, 27231, Control_c, 1, 10, 106
4, 27280, Control_c, 1, 10, 107
4, 27285, Control_c, 1, 10, 19
4, 27290, Control_c, 1, 10, 21
4, 27311, Note_on_c, 1, 71, 43
4, 27335, Note_on_c, 1, 71, 0
4, 27353, Note_on_c, 1, 73, 77
4, 27358, Control_c, 1, 10, 105
4, 27367, Note_on_c, 1, 73, 0
4, 27422, Control_c, 1, 10, 21
4, 27440, Control_c, 1, 10, 22
4, 27481, Control_c, 1, 10, 23
4, 27486, Control_c, 1, 10, 42
4, 27491, Control_c, 1, 10, 104
4, 27495, Control_c, 1, 10, 105
4, 27499, Control_c, 1, 10, 106
4, 27516, Note_on_c, 1, 71, 47
4, 27542, Note_on_c, 1, 71, 0
4, 27542, Control_c, 1, 10, 107
4, 27551, Control_c, 1, 10, 109
4, 27551, Note_on_c, 1, 73, 68
4, 27556, Control_c, 1, 10, 21
4, 27575, Note_on_c, 1, 73, 0
4, 27579, Note_on_c, 1, 71, 40
4, 27604, Note_on_c, 1, 71, 0
4, 27614, Note_on_c, 1, 73, 63
4, 27624, Control_c, 1, 10, 20
4, 27629, Control_c, 1, 10, 112
4, 27633, Note_on_c, 1, 73, 0
4, 27633, Control_c, 1, 10, 107
4, 27640, Control_c, 1, 10, 106
4, 27682, Control_c, 1, 10, 107
4, 27686, Control_c, 1, 10, 15
4, 27694, Control_c, 1, 10, 21
4, 27746, Control_c, 1, 10, 22
4, 27759, Control_c, 1, 10, 105
4, 27814, Control_c, 1, 10, 21
4, 27846, Note_on_c, 1, 71, 43
4, 27870, Note_on_c, 1, 71, 0
4, 27880, Control_c, 1, 10, 26
4, 27885, Control_c, 1, 10, 104
4, 27887, Control_c, 1, 10, 105
4, 27887, Note_on_c, 1, 73, 52
4, 27901, Note_on_c, 1, 73, 0
4, 27909, Control_c, 1, 10, 106
4, 27948, Control_c, 1, 10, 108
4, 27953, Control_c, 1, 10, 20
4, 28004, Control_c, 1, 10, 19
4, 28013, Control_c, 1, 10, 18
4, 28020, Control_c, 1, 10, 109
4, 28020, Control_c, 1, 10, 0
4, 28028, Control_c, 1, 10, 107
4, 28039, Control_c, 1, 10, 106
4, 28048, Note_on_c, 1, 71, 47
4, 28075, Note_on_c, 1, 71, 0
4, 28086, Control_c, 1, 10, 107
4, 28088, Control_c, 1, 10, 111
4, 28088, Note_on_c, 1, 73, 45
4, 28093, Control_c, 1, 10, 17
4, 28101, Control_c, 1, 10, 19
4, 28106, Control_c, 1, 10, 20
4, 28112, Note_on_c, 1, 73, 0
4, 28115, Note_on_c, 1, 71, 41
4, 28138, Note_on_c, 1, 71, 0
4, 28138, Control_c, 1, 10, 19
4, 28146, Control_c, 1, 10, 17
4, 28151, Control_c, 1, 10, 111
4, 28151, Note_on_c, 1, 73, 58
4, 28156, Control_c, 1, 10, 107
4, 28161, Control_c, 1, 10, 106
4, 28169, Note_on_c, 1, 73, 0
4, 28216, Control_c, 1, 10, 107
4, 28229, Control_c, 1, 10, 21
4, 28280, Control_c, 1, 10, 105
4, 28299, Control_c, 1, 10, 106
4, 28343, Control_c, 1, 10, 107
4, 28355, Control_c, 1, 10, 105
4, 28360, Control_c, 1, 10, 21
4, 28382, Note_on_c, 1, 71, 42
4, 28408, Note_on_c, 1, 71, 0
4, 28418, Control_c, 1, 10, 105
4, 28427, Note_on_c, 1, 73, 30
4, 28437, Note_on_c, 1, 73, 0
4, 28447, Control_c, 1, 10, 106
4, 28478, Control_c, 1, 10, 107
4, 28483, Control_c, 1, 10, 19
4, 28492, Control_c, 1, 10, 20
4, 28542, Control_c, 1, 10, 0
4, 28547, Control_c, 1, 10, 106
4, 28583, Note_on_c, 1, 71, 44
4, 28610, Note_on_c, 1, 71, 0
4, 28615, Control_c, 1, 10, 107
4, 28620, Control_c, 1, 10, 109
4, 28622, Note_on_c, 1, 73, 48
4, 28625, Control_c, 1, 10, 18
4, 28630, Control_c, 1, 10, 20
4, 28640, Note_on_c, 1, 73, 0
4, 28647, Note_on_c, 1, 71, 40
4, 28671, Note_on_c, 1, 71, 0
4, 28671, Control_c, 1, 10, 18
4, 28676, Control_c, 1, 10, 0
4, 28682, Control_c, 1, 10, 107
4, 28682, Note_on_c, 1, 73, 76
4, 28687, Control_c, 1, 10, 106
4, 28692, Control_c, 1, 10, 107
4, 28698, Note_on_c, 1, 73, 0
4, 28742, Control_c, 1, 10, 108
4, 28746, Control_c, 1, 10, 109
4, 28751, Control_c, 1, 10, 120
4, 28759, Control_c, 1, 10, 17
4, 28762, Control_c, 1, 10, 19
4, 28772, Control_c, 1, 10, 20
4, 28795, Control_c, 1, 10, 19
4, 28800, Control_c, 1, 10, 18
4, 28806, Control_c, 1, 10, 14
4, 28808, Control_c, 1, 10, 109
4, 28812, Control_c, 1, 10, 107
4, 28867, Control_c, 1, 10, 108
4, 28877, Control_c, 1, 10, 112
4, 28882, Control_c, 1, 10, 12
4, 28887, Control_c, 1, 10, 19
4, 28897, Control_c, 1, 10, 20
4, 28921, Note_on_c, 1, 71, 42
4, 28928, Control_c, 1, 10, 19
4, 28934, Control_c, 1, 10, 18
4, 28939, Control_c, 1, 10, 15
4, 28944, Note_on_c, 1, 71, 0
4, 28944, Control_c, 1, 10, 127
4, 28949, Control_c, 1, 10, 109
4, 28954, Control_c, 1, 10, 107
4, 28963, Note_on_c, 1, 73, 54
4, 28980, Note_on_c, 1, 73, 0
4, 28980, Control_c, 1, 10, 108
4, 29003, Control_c, 1, 10, 111
4, 29008, Control_c, 1, 10, 127
4, 29013, Control_c, 1, 10, 14
4, 29018, Control_c, 1, 10, 18
4, 29021, Control_c, 1, 10, 19
4, 29052, Control_c, 1, 10, 20
4, 29075, Control_c, 1, 10, 19
4, 29081, Control_c, 1, 10, 109
4, 29086, Control_c, 1, 10, 107
4, 29103, Control_c, 1, 10, 108
4, 29123, Note_on_c, 1, 71, 50
4, 29128, Control_c, 1, 10, 110
4, 29136, Control_c, 1, 10, 127
4, 29141, Control_c, 1, 10, 17
4, 29146, Control_c, 1, 10, 19
4, 29149, Note_on_c, 1, 71, 0
4, 29149, Control_c, 1, 10, 20
4, 29163, Note_on_c, 1, 73, 68
4, 29186, Note_on_c, 1, 73, 0
4, 29188, Note_on_c, 1, 71, 37
4, 29204, Control_c, 1, 10, 19
4, 29209, Control_c, 1, 10, 16
4, 29215, Note_on_c, 1, 71, 0
4, 29215, Control_c, 1, 10, 109
4, 29220, Control_c, 1, 10, 107
4, 29224, Note_on_c, 1, 73, 60
4, 29229, Control_c, 1, 10, 108
4, 29243, Note_on_c, 1, 73, 0
4, 29261, Control_c, 1, 10, 109
4, 29266, Control_c, 1, 10, 118
4, 29272, Control_c, 1, 10, 15
4, 29278, Control_c, 1, 10, 18
4, 29283, Control_c, 1, 10, 19
4, 29328, Control_c, 1, 10, 18
4, 29333, Control_c, 1, 10, 127
4, 29342, Control_c, 1, 10, 108
4, 29346, Control_c, 1, 10, 107
4, 29361, Control_c, 1, 10, 108
4, 29394, Control_c, 1, 10, 111
4, 29395, Control_c, 1, 10, 4
4, 29400, Control_c, 1, 10, 17
4, 29407, Control_c, 1, 10, 19
4, 29451, Control_c, 1, 10, 18
4, 29455, Control_c, 1, 10, 17
4, 29457, Note_on_c, 1, 71, 45
4, 29458, Control_c, 1, 10, 0
4, 29462, Control_c, 1, 10, 111
4, 29467, Control_c, 1, 10, 109
4, 29483, Note_on_c, 1, 71, 0
4, 29499, Note_on_c, 1, 73, 39
4, 29514, Control_c, 1, 10, 110
4, 29516, Note_on_c, 1, 73, 0
4, 29516, Control_c, 1, 10, 118
4, 29524, Control_c, 1, 10, 13
4, 29527, Control_c, 1, 10, 18
4, 29532, Control_c, 1, 10, 19
4, 29574, Control_c, 1, 10, 18
4, 29579, Control_c, 1, 10, 17
4, 29584, Control_c, 1, 10, 11
4, 29592, Control_c, 1, 10, 116
4, 29593, Control_c, 1, 10, 111
4, 29598, Control_c, 1, 10, 110
4, 29610, Control_c, 1, 10, 109
4, 29644, Control_c, 1, 10, 111
4, 29649, Control_c, 1, 10, 123
4, 29652, Control_c, 1, 10, 15
4, 29660, Control_c, 1, 10, 18
4, 29662, Control_c, 1, 10, 19
4, 29662, Note_on_c, 1, 71, 41
4, 29688, Note_on_c, 1, 71, 0
4, 29701, Control_c, 1, 10, 18
4, 29701, Note_on_c, 1, 73, 51
4, 29711, Control_c, 1, 10, 14
4, 29716, Control_c, 1, 10, 0
4, 29720, Control_c, 1, 10, 111
4, 29723, Note_on_c, 1, 73, 0
4, 29726, Control_c, 1, 10, 109
4, 29726, Note_on_c, 1, 71, 40
4, 29752, Note_on_c, 1, 71, 0
4, 29763, Note_on_c, 1, 73, 74
4, 29773, Control_c, 1, 10, 110
4, 29778, Note_on_c, 1, 73, 0
4, 29778, Control_c, 1, 10, 114
4, 29783, Control_c, 1, 10, 7
4, 29788, Control_c, 1, 10, 17
4, 29793, Control_c, 1, 10, 18
4, 29798, Control_c, 1, 10, 19
4, 29829, Control_c, 1, 10, 18
4, 29838, Control_c, 1, 10, 17
4, 29842, Control_c, 1, 10, 15
4, 29849, Control_c, 1, 10, 1
4, 29853, Control_c, 1, 10, 115
4, 29858, Control_c, 1, 10, 110
4, 29903, Control_c, 1, 10, 111
4, 29908, Control_c, 1, 10, 117
4, 29913, Control_c, 1, 10, 14
4, 29918, Control_c, 1, 10, 19
4, 29922, Control_c, 1, 10, 20
4, 29969, Control_c, 1, 10, 19
4, 29979, Control_c, 1, 10, 16
4, 29984, Control_c, 1, 10, 114
4, 29987, Control_c, 1, 10, 109
4, 29987, Note_on_c, 1, 71, 45
4, 30004, Control_c, 1, 10, 110
4, 30016, Note_on_c, 1, 71, 0
4, 30025, Note_on_c, 1, 73, 55
4, 30040, Note_on_c, 1, 73, 0
4, 30045, Control_c, 1, 10, 112
4, 30050, Control_c, 1, 10, 127
4, 30054, Control_c, 1, 10, 16
4, 30059, Control_c, 1, 10, 18
4, 30105, Control_c, 1, 10, 17
4, 30108, Control_c, 1, 10, 0
4, 30115, Control_c, 1, 10, 110
4, 30122, Control_c, 1, 10, 109
4, 30171, Control_c, 1, 10, 111
4, 30177, Control_c, 1, 10, 127
4, 30183, Control_c, 1, 10, 15
4, 30185, Note_on_c, 1, 71, 43
4, 30188, Control_c, 1, 10, 18
4, 30193, Control_c, 1, 10, 19
4, 30215, Note_on_c, 1, 71, 0
4, 30226, Note_on_c, 1, 73, 58
4, 30241, Control_c, 1, 10, 14
4, 30247, Note_on_c, 1, 73, 0
4, 30249, Control_c, 1, 10, 110
4, 30251, Note_on_c, 1, 71, 44
4, 30254, Control_c, 1, 10, 107
4, 30260, Control_c, 1, 10, 108
4, 30273, Control_c, 1, 10, 107
4, 30277, Note_on_c, 1, 71, 0
4, 30291, Control_c, 1, 10, 108
4, 30291, Note_on_c, 1, 73, 72
4, 30307, Control_c, 1, 10, 114
4, 30310, Note_on_c, 1, 73, 0
4, 30310, Control_c, 1, 10, 15
4, 30317, Control_c, 1, 10, 19
4, 30357, Control_c, 1, 10, 18
4, 30362, Control_c, 1, 10, 17
4, 30367, Control_c, 1, 10, 7
4, 30372, Control_c, 1, 10, 117
4, 30378, Control_c, 1, 10, 110
4, 30384, Control_c, 1, 10, 108
4, 30391, Control_c, 1, 10, 107
4, 30435, Control_c, 1, 10, 108
4, 30440, Control_c, 1, 10, 111
4, 30445, Control_c, 1, 10, 12
4, 30447, Control_c, 1, 10, 18
4, 30456, Control_c, 1, 10, 19
4, 30499, Control_c, 1, 10, 18
4, 30504, Control_c, 1, 10, 17
4, 30509, Control_c, 1, 10, 0
4, 30514, Control_c, 1, 10, 110
4, 30516, Note_on_c, 1, 71, 44
4, 30519, Control_c, 1, 10, 108
4, 30543, Note_on_c, 1, 71, 0
4, 30556, Note_on_c, 1, 73, 38
4, 30561, Control_c, 1, 10, 109
4, 30566, Control_c, 1, 10, 110
4, 30572, Note_on_c, 1, 73, 0
4, 30572, Control_c, 1, 10, 121
4, 30577, Control_c, 1, 10, 19
4, 30582, Control_c, 1, 10, 20
4, 30643, Control_c, 1, 10, 19
4, 30648, Control_c, 1, 10, 108
4, 30654, Control_c, 1, 10, 106
4, 30670, Control_c, 1, 10, 107
4, 30704, Control_c, 1, 10, 110
4, 30712, Control_c, 1, 10, 18
4, 30717, Control_c, 1, 10, 20
4, 30724, Note_on_c, 1, 71, 45
4, 30748, Note_on_c, 1, 71, 0
4, 30762, Note_on_c, 1, 73, 57
4, 30769, Control_c, 1, 10, 18
4, 30776, Control_c, 1, 10, 113
4, 30781, Note_on_c, 1, 73, 0
4, 30783, Control_c, 1, 10, 107
4, 30788, Note_on_c, 1, 71, 37
4, 30810, Note_on_c, 1, 71, 0
4, 30825, Note_on_c, 1, 73, 51
4, 30835, Control_c, 1, 10, 113
4, 30842, Note_on_c, 1, 73, 0
4, 30842, Control_c, 1, 10, 18
4, 30846, Control_c, 1, 10, 20
4, 30904, Control_c, 1, 10, 18
4, 30910, Control_c, 1, 10, 8
4, 30914, Control_c, 1, 10, 109
4, 30914, Control_c, 1, 10, 111
4, 30934, Control_c, 1, 10, 108
4, 30951, Control_c, 1, 10, 109
4, 30954, Control_c, 1, 10, 114
4, 30959, Control_c, 1, 10, 17
4, 30964, Control_c, 1, 10, 20
4, 31025, Control_c, 1, 10, 18
4, 31030, Control_c, 1, 10, 10
4, 31035, Control_c, 1, 10, 111
4, 31043, Control_c, 1, 10, 108
4, 31045, Note_on_c, 1, 71, 45
4, 31067, Control_c, 1, 10, 110
4, 31070, Note_on_c, 1, 71, 0
4, 31080, Control_c, 1, 10, 111
4, 31087, Control_c, 1, 10, 119
4, 31087, Note_on_c, 1, 73, 37
4, 31092, Control_c, 1, 10, 9
4, 31097, Control_c, 1, 10, 17
4, 31104, Note_on_c, 1, 73, 0
4, 31104, Control_c, 1, 10, 18
4, 31109, Control_c, 1, 10, 19
4, 31137, Control_c, 1, 10, 18
4, 31147, Control_c, 1, 10, 17
4, 31152, Control_c, 1, 10, 15
4, 31157, Control_c, 1, 10, 1
4, 31162, Control_c, 1, 10, 120
4, 31167, Control_c, 1, 10, 113
4, 31172, Control_c, 1, 10, 111
4, 31182, Control_c, 1, 10, 110
4, 31206, Control_c, 1, 10, 111
4, 31216, Control_c, 1, 10, 112
4, 31218, Control_c, 1, 10, 124
4, 31222, Control_c, 1, 10, 13
4, 31227, Control_c, 1, 10, 19
4, 31232, Control_c, 1, 10, 20
4, 31244, Note_on_c, 1, 71, 48
4, 31271, Note_on_c, 1, 71, 0
4, 31281, Note_on_c, 1, 73, 62
4, 31296, Control_c, 1, 10, 18
4, 31303, Note_on_c, 1, 73, 0
4, 31303, Control_c, 1, 10, 118
4, 31306, Control_c, 1, 10, 108
4, 31306, Note_on_c, 1, 71, 41
4, 31322, Control_c, 1, 10, 109
4, 31334, Note_on_c, 1, 71, 0
4, 31343, Note_on_c, 1, 73, 58
4, 31358, Control_c, 1, 10, 127
4, 31360, Note_on_c, 1, 73, 0
4, 31360, Control_c, 1, 10, 17
4, 31365, Control_c, 1, 10, 19
4, 31426, Control_c, 1, 10, 17
4, 31431, Control_c, 1, 10, 127
4, 31437, Control_c, 1, 10, 109
4, 31444, Control_c, 1, 10, 108
4, 31478, Control_c, 1, 10, 109
4, 31486, Control_c, 1, 10, 110
4, 31494, Control_c, 1, 10, 127
4, 31497, Control_c, 1, 10, 17
4, 31503, Control_c, 1, 10, 19
4, 31552, Control_c, 1, 10, 18
4, 31557, Control_c, 1, 10, 12
4, 31579, Note_on_c, 1, 71, 44
4, 31599, Control_c, 1, 10, 111
4, 31607, Note_on_c, 1, 71, 0
4, 31607, Control_c, 1, 10, 112
4, 31612, Control_c, 1, 10, 118
4, 31620, Control_c, 1, 10, 4
4, 31620, Note_on_c, 1, 73, 77
4, 31625, Control_c, 1, 10, 16
4, 31630, Control_c, 1, 10, 18
4, 31636, Note_on_c, 1, 73, 0
4, 31636, Control_c, 1, 10, 19
4, 31681, Control_c, 1, 10, 18
4, 31686, Control_c, 1, 10, 17
4, 31691, Control_c, 1, 10, 0
4, 31696, Control_c, 1, 10, 111
4, 31701, Control_c, 1, 10, 109
4, 31742, Control_c, 1, 10, 110
4, 31752, Control_c, 1, 10, 112
4, 31755, Control_c, 1, 10, 125
4, 31760, Control_c, 1, 10, 11
4, 31767, Control_c, 1, 10, 17
4, 31772, Control_c, 1, 10, 18
4, 31781, Note_on_c, 1, 71, 42
4, 31810, Note_on_c, 1, 71, 0
4, 31810, Control_c, 1, 10, 16
4, 31815, Control_c, 1, 10, 11
4, 31820, Control_c, 1, 10, 127
4, 31824, Note_on_c, 1, 73, 61
4, 31826, Control_c, 1, 10, 110
4, 31826, Control_c, 1, 10, 113
4, 31840, Control_c, 1, 10, 109
4, 31845, Note_on_c, 1, 73, 0
4, 31850, Note_on_c, 1, 71, 38
4, 31865, Control_c, 1, 10, 110
4, 31870, Control_c, 1, 10, 111
4, 31874, Note_on_c, 1, 71, 0
4, 31874, Control_c, 1, 10, 113
4, 31879, Control_c, 1, 10, 116
4, 31885, Control_c, 1, 10, 0
4, 31885, Note_on_c, 1, 73, 63
4, 31890, Control_c, 1, 10, 12
4, 31895, Control_c, 1, 10, 18
4, 31901, Note_on_c, 1, 73, 0
4, 31901, Control_c, 1, 10, 19
4, 31943, Control_c, 1, 10, 18
4, 31954, Control_c, 1, 10, 15
4, 31958, Control_c, 1, 10, 0
4, 31963, Control_c, 1, 10, 116
4, 31968, Control_c, 1, 10, 110
4, 31974, Control_c, 1, 10, 109
4, 31976, Control_c, 1, 10, 107
4, 31982, Control_c, 1, 10, 106
4, 32029, Control_c, 1, 10, 108
4, 32032, Control_c, 1, 10, 16
4, 32042, Control_c, 1, 10, 19
4, 32044, Control_c, 1, 10, 18
4, 32057, Control_c, 1, 10, 17
4, 32084, Control_c, 1, 10, 16
4, 32089, Control_c, 1, 10, 9
4, 32094, Control_c, 1, 10, 119
4, 32099, Control_c, 1, 10, 110
4, 32104, Control_c, 1, 10, 108
4, 32111, Note_on_c, 1, 71, 51
4, 32124, Control_c, 1, 10, 109
4, 32138, Note_on_c, 1, 71, 0
4, 32143, Control_c, 1, 10, 110
4, 32150, Control_c, 1, 10, 112
4, 32150, Note_on_c, 1, 73, 63
4, 32155, Control_c, 1, 10, 127
4, 32160, Control_c, 1, 10, 11
4, 32165, Control_c, 1, 10, 17
4, 32170, Note_on_c, 1, 73, 0
4, 32170, Control_c, 1, 10, 18
4, 32182, Control_c, 1, 10, 19
4, 32202, Control_c, 1, 10, 18
4, 32217, Control_c, 1, 10, 16
4, 32222, Control_c, 1, 10, 0
4, 32227, Control_c, 1, 10, 117
4, 32232, Control_c, 1, 10, 111
4, 32237, Control_c, 1, 10, 110
4, 32239, Control_c, 1, 10, 109
4, 32281, Control_c, 1, 10, 112
4, 32286, Control_c, 1, 10, 119
4, 32291, Control_c, 1, 10, 7
4, 32296, Control_c, 1, 10, 16
4, 32301, Control_c, 1, 10, 18
4, 32311, Control_c, 1, 10, 19
4, 32311, Note_on_c, 1, 71, 49
4, 32341, Note_on_c, 1, 71, 0
4, 32341, Control_c, 1, 10, 18
4, 32350, Control_c, 1, 10, 16
4, 32350, Note_on_c, 1, 73, 48
4, 32355, Control_c, 1, 10, 9
4, 32362, Control_c, 1, 10, 124
4, 32365, Control_c, 1, 10, 112
4, 32372, Control_c, 1, 10, 110
4, 32374, Note_on_c, 1, 73, 0
4, 32377, Note_on_c, 1, 71, 43
4, 32406, Note_on_c, 1, 71, 0
4, 32414, Control_c, 1, 10, 111
4, 32414, Note_on_c, 1, 73, 87
4, 32419, Control_c, 1, 10, 117
4, 32424, Control_c, 1, 10, 0
4, 32429, Control_c, 1, 10, 14
4, 32432, Note_on_c, 1, 73, 0
4, 32432, Control_c, 1, 10, 17
4, 32442, Control_c, 1, 10, 18
4, 32493, Control_c, 1, 10, 14
4, 32501, Control_c, 1, 10, 115
4, 32506, Control_c, 1, 10, 108
4, 32508, Control_c, 1, 10, 107
4, 32516, Control_c, 1, 10, 106
4, 32545, Control_c, 1, 10, 107
4, 32562, Control_c, 1, 10, 110
4, 32567, Control_c, 1, 10, 12
4, 32570, Control_c, 1, 10, 19
4, 32577, Control_c, 1, 10, 20
4, 32588, Control_c, 1, 10, 19
4, 32633, Control_c, 1, 10, 18
4, 32638, Control_c, 1, 10, 114
4, 32643, Control_c, 1, 10, 107
4, 32649, Note_on_c, 1, 71, 46
4, 32656, Control_c, 1, 10, 106
4, 32675, Note_on_c, 1, 71, 0
4, 32690, Note_on_c, 1, 73, 68
4, 32695, Control_c, 1, 10, 107
4, 32700, Control_c, 1, 10, 114
4, 32707, Note_on_c, 1, 73, 0
4, 32707, Control_c, 1, 10, 20
4, 32707, Control_c, 1, 10, 18
4, 32715, Control_c, 1, 10, 19
4, 32717, Control_c, 1, 10, 20
4, 32753, Control_c, 1, 10, 19
4, 32758, Control_c, 1, 10, 18
4, 32768, Control_c, 1, 10, 110
4, 32768, Control_c, 1, 10, 10
4, 32773, Control_c, 1, 10, 107
4, 32830, Control_c, 1, 10, 111
4, 32830, Control_c, 1, 10, 108
4, 32840, Control_c, 1, 10, 13
4, 32845, Control_c, 1, 10, 18
4, 32850, Control_c, 1, 10, 19
4, 32852, Control_c, 1, 10, 20
4, 32852, Note_on_c, 1, 71, 44
4, 32882, Note_on_c, 1, 71, 0
4, 32882, Control_c, 1, 10, 19
4, 32888, Control_c, 1, 10, 18
4, 32893, Control_c, 1, 10, 16
4, 32898, Control_c, 1, 10, 117
4, 32903, Control_c, 1, 10, 109
4, 32907, Control_c, 1, 10, 108
4, 32914, Note_on_c, 1, 71, 45
4, 32916, Control_c, 1, 10, 107
4, 32940, Note_on_c, 1, 71, 0
4, 32945, Control_c, 1, 10, 108
4, 32950, Control_c, 1, 10, 110
4, 32954, Control_c, 1, 10, 116
4, 32954, Note_on_c, 1, 73, 52
4, 32959, Control_c, 1, 10, 0
4, 32964, Control_c, 1, 10, 16
4, 32969, Control_c, 1, 10, 18
4, 32971, Note_on_c, 1, 73, 0
4, 32971, Control_c, 1, 10, 19
4, 33032, Control_c, 1, 10, 17
4, 33037, Control_c, 1, 10, 119
4, 33042, Control_c, 1, 10, 108
4, 33090, Control_c, 1, 10, 109
4, 33095, Control_c, 1, 10, 120
4, 33100, Control_c, 1, 10, 14
4, 33106, Control_c, 1, 10, 18
4, 33113, Control_c, 1, 10, 19
4, 33149, Control_c, 1, 10, 18
4, 33164, Control_c, 1, 10, 16
4, 33169, Control_c, 1, 10, 127
4, 33174, Control_c, 1, 10, 110
4, 33182, Control_c, 1, 10, 109
4, 33182, Note_on_c, 1, 71, 46
4, 33209, Note_on_c, 1, 71, 0
4, 33221, Control_c, 1, 10, 111
4, 33221, Note_on_c, 1, 73, 44
4, 33226, Control_c, 1, 10, 127
4, 33231, Control_c, 1, 10, 14
4, 33238, Note_on_c, 1, 73, 0
4, 33238, Control_c, 1, 10, 18
4, 33243, Control_c, 1, 10, 19
4, 33301, Control_c, 1, 10, 18
4, 33306, Control_c, 1, 10, 0
4, 33312, Control_c, 1, 10, 108
4, 33312, Control_c, 1, 10, 109
4, 33349, Control_c, 1, 10, 109
4, 33356, Control_c, 1, 10, 110
4, 33361, Control_c, 1, 10, 127
4, 33366, Control_c, 1, 10, 16
4, 33371, Control_c, 1, 10, 19
4, 33376, Control_c, 1, 10, 20
4, 33384, Note_on_c, 1, 71, 44
4, 33413, Note_on_c, 1, 71, 0
4, 33418, Control_c, 1, 10, 19
4, 33424, Control_c, 1, 10, 17
4, 33424, Note_on_c, 1, 73, 31
4, 33429, Control_c, 1, 10, 0
4, 33438, Control_c, 1, 10, 109
4, 33438, Control_c, 1, 10, 111
4, 33446, Note_on_c, 1, 71, 44
4, 33447, Note_on_c, 1, 73, 0
4, 33478, Note_on_c, 1, 71, 0
4, 33483, Control_c, 1, 10, 113
4, 33487, Control_c, 1, 10, 11
4, 33487, Note_on_c, 1, 73, 45
4, 33492, Control_c, 1, 10, 18
4, 33497, Control_c, 1, 10, 19
4, 33506, Note_on_c, 1, 73, 0
4, 33567, Control_c, 1, 10, 18
4, 33572, Control_c, 1, 10, 7
4, 33578, Control_c, 1, 10, 111
4, 33580, Control_c, 1, 10, 109
4, 33617, Control_c, 1, 10, 110
4, 33621, Control_c, 1, 10, 112
4, 33626, Control_c, 1, 10, 121
4, 33632, Control_c, 1, 10, 11
4, 33639, Control_c, 1, 10, 17
4, 33642, Control_c, 1, 10, 18
4, 33693, Control_c, 1, 10, 15
4, 33698, Control_c, 1, 10, 0
4, 33704, Control_c, 1, 10, 109
4, 33704, Control_c, 1, 10, 111
4, 33710, Note_on_c, 1, 71, 45
4, 33736, Note_on_c, 1, 71, 0
4, 33736, Control_c, 1, 10, 110
4, 33741, Control_c, 1, 10, 111
4, 33746, Control_c, 1, 10, 113
4, 33754, Control_c, 1, 10, 127
4, 33754, Note_on_c, 1, 73, 36
4, 33759, Control_c, 1, 10, 13
4, 33764, Control_c, 1, 10, 18
4, 33770, Control_c, 1, 10, 19
4, 33772, Note_on_c, 1, 73, 0
4, 33815, Control_c, 1, 10, 18
4, 33820, Control_c, 1, 10, 15
4, 33825, Control_c, 1, 10, 127
4, 33830, Control_c, 1, 10, 110
4, 33835, Control_c, 1, 10, 108
4, 33875, Control_c, 1, 10, 109
4, 33886, Control_c, 1, 10, 127
4, 33886, Control_c, 1, 10, 111
4, 33891, Control_c, 1, 10, 14
4, 33896, Control_c, 1, 10, 18
4, 33903, Control_c, 1, 10, 19
4, 33912, Note_on_c, 1, 71, 47
4, 33929, Control_c, 1, 10, 20
4, 33934, Control_c, 1, 10, 19
4, 33940, Note_on_c, 1, 71, 0
4, 33953, Control_c, 1, 10, 17
4, 33953, Note_on_c, 1, 73, 31
4, 33958, Control_c, 1, 10, 0
4, 33963, Control_c, 1, 10, 109
4, 33968, Control_c, 1, 10, 108
4, 33972, Note_on_c, 1, 73, 0
4, 33974, Note_on_c, 1, 71, 43
4, 34002, Note_on_c, 1, 71, 0
4, 34013, Control_c, 1, 10, 109
4, 34013, Note_on_c, 1, 73, 43
4, 34018, Control_c, 1, 10, 114
4, 34023, Control_c, 1, 10, 9
4, 34028, Control_c, 1, 10, 17
4, 34031, Note_on_c, 1, 73, 0
4, 34031, Control_c, 1, 10, 18
4, 34036, Control_c, 1, 10, 19
4, 34067, Control_c, 1, 10, 20
4, 34090, Control_c, 1, 10, 17
4, 34095, Control_c, 1, 10, 110
4, 34100, Control_c, 1, 10, 107
4, 34145, Control_c, 1, 10, 108
4, 34150, Control_c, 1, 10, 110
4, 34152, Control_c, 1, 10, 13
4, 34157, Control_c, 1, 10, 19
4, 34164, Control_c, 1, 10, 20
4, 34223, Control_c, 1, 10, 19
4, 34228, Control_c, 1, 10, 17
4, 34232, Control_c, 1, 10, 113
4, 34238, Control_c, 1, 10, 107
4, 34247, Note_on_c, 1, 71, 44
4, 34265, Control_c, 1, 10, 108
4, 34277, Note_on_c, 1, 71, 0
4, 34277, Control_c, 1, 10, 110
4, 34282, Control_c, 1, 10, 121
4, 34289, Control_c, 1, 10, 15
4, 34289, Note_on_c, 1, 73, 38
4, 34294, Control_c, 1, 10, 18
4, 34299, Control_c, 1, 10, 19
4, 34304, Control_c, 1, 10, 20
4, 34308, Note_on_c, 1, 73, 0
4, 34353, Control_c, 1, 10, 19
4, 34358, Control_c, 1, 10, 17
4, 34363, Control_c, 1, 10, 127
4, 34368, Control_c, 1, 10, 110
4, 34375, Control_c, 1, 10, 109
4, 34409, Control_c, 1, 10, 111
4, 34414, Control_c, 1, 10, 118
4, 34420, Control_c, 1, 10, 11
4, 34422, Control_c, 1, 10, 17
4, 34427, Control_c, 1, 10, 19
4, 34439, Control_c, 1, 10, 20
4, 34444, Note_on_c, 1, 71, 44
4, 34471, Note_on_c, 1, 71, 0
4, 34486, Control_c, 1, 10, 19
4, 34488, Control_c, 1, 10, 18
4, 34488, Note_on_c, 1, 73, 33
4, 34493, Control_c, 1, 10, 13
4, 34498, Control_c, 1, 10, 116
4, 34504, Control_c, 1, 10, 111
4, 34510, Control_c, 1, 10, 110
4, 34510, Note_on_c, 1, 71, 41
4, 34511, Note_on_c, 1, 73, 0
4, 34540, Note_on_c, 1, 71, 0
4, 34545, Control_c, 1, 10, 111
4, 34548, Control_c, 1, 10, 112
4, 34548, Note_on_c, 1, 73, 43
4, 34553, Control_c, 1, 10, 123
4, 34560, Control_c, 1, 10, 10
4, 34562, Control_c, 1, 10, 17
4, 34566, Note_on_c, 1, 73, 0
4, 34566, Control_c, 1, 10, 19
4, 34573, Control_c, 1, 10, 20
4, 34622, Control_c, 1, 10, 19
4, 34627, Control_c, 1, 10, 5
4, 34632, Control_c, 1, 10, 111
4, 34637, Control_c, 1, 10, 109
4, 34644, Control_c, 1, 10, 108
4, 34650, Control_c, 1, 10, 109
4, 34674, Control_c, 1, 10, 110
4, 34679, Control_c, 1, 10, 119
4, 34684, Control_c, 1, 10, 13
4, 34687, Control_c, 1, 10, 18
4, 34692, Control_c, 1, 10, 19
4, 34704, Control_c, 1, 10, 20
4, 34760, Control_c, 1, 10, 18
4, 34765, Control_c, 1, 10, 114
4, 34770, Control_c, 1, 10, 108
4, 34782, Note_on_c, 1, 71, 42
4, 34809, Note_on_c, 1, 71, 0
4, 34809, Control_c, 1, 10, 109
4, 34814, Control_c, 1, 10, 110
4, 34819, Control_c, 1, 10, 122
4, 34824, Control_c, 1, 10, 14
4, 34827, Control_c, 1, 10, 18
4, 34827, Note_on_c, 1, 73, 47
4, 34832, Control_c, 1, 10, 19
4, 34837, Control_c, 1, 10, 20
4, 34842, Note_on_c, 1, 73, 0
4, 34889, Control_c, 1, 10, 19
4, 34894, Control_c, 1, 10, 13
4, 34899, Control_c, 1, 10, 108
4, 34909, Control_c, 1, 10, 107
4, 34916, Control_c, 1, 10, 108
4, 34948, Control_c, 1, 10, 109
4, 34953, Control_c, 1, 10, 113
4, 34957, Control_c, 1, 10, 5
4, 34962, Control_c, 1, 10, 19
4, 34967, Control_c, 1, 10, 20
4, 34985, Note_on_c, 1, 71, 43
4, 35014, Note_on_c, 1, 71, 0
4, 35022, Control_c, 1, 10, 19
4, 35026, Control_c, 1, 10, 113
4, 35026, Note_on_c, 1, 73, 38
4, 35031, Control_c, 1, 10, 109
4, 35037, Control_c, 1, 10, 108
4, 35048, Note_on_c, 1, 73, 0
4, 35048, Note_on_c, 1, 71, 44
4, 35063, Control_c, 1, 10, 109
4, 35075, Note_on_c, 1, 71, 0
4, 35088, Control_c, 1, 10, 110
4, 35088, Note_on_c, 1, 73, 54
4, 35093, Control_c, 1, 10, 115
4, 35098, Control_c, 1, 10, 14
4, 35103, Control_c, 1, 10, 19
4, 35107, Note_on_c, 1, 73, 0
4, 35107, Control_c, 1, 10, 20
4, 35157, Control_c, 1, 10, 18
4, 35162, Control_c, 1, 10, 111
4, 35167, Control_c, 1, 10, 108
4, 35186, Control_c, 1, 10, 109
4, 35215, Control_c, 1, 10, 111
4, 35220, Control_c, 1, 10, 119
4, 35225, Control_c, 1, 10, 9
4, 35226, Control_c, 1, 10, 17
4, 35231, Control_c, 1, 10, 19
4, 35238, Control_c, 1, 10, 20
4, 35281, Control_c, 1, 10, 19
4, 35286, Control_c, 1, 10, 18
4, 35291, Control_c, 1, 10, 14
4, 35296, Control_c, 1, 10, 115
4, 35301, Control_c, 1, 10, 112
4, 35317, Control_c, 1, 10, 113
4, 35317, Note_on_c, 1, 71, 44
4, 35346, Note_on_c, 1, 71, 0
4, 35346, Control_c, 1, 10, 118
4, 35351, Control_c, 1, 10, 0
4, 35356, Control_c, 1, 10, 14
4, 35359, Control_c, 1, 10, 18
4, 35359, Note_on_c, 1, 73, 39
4, 35364, Control_c, 1, 10, 19
4, 35371, Note_on_c, 1, 73, 0
4, 35376, Control_c, 1, 10, 20
4, 35414, Control_c, 1, 10, 19
4, 35419, Control_c, 1, 10, 17
4, 35424, Control_c, 1, 10, 0
4, 35429, Control_c, 1, 10, 115
4, 35434, Control_c, 1, 10, 112
4, 35471, Control_c, 1, 10, 113
4, 35481, Control_c, 1, 10, 116
4, 35486, Control_c, 1, 10, 127
4, 35489, Control_c, 1, 10, 12
4, 35494, Control_c, 1, 10, 17
4, 35499, Control_c, 1, 10, 19
4, 35519, Note_on_c, 1, 71, 42
4, 35533, Control_c, 1, 10, 18
4, 35546, Note_on_c, 1, 71, 0
4, 35546, Control_c, 1, 10, 16
4, 35551, Control_c, 1, 10, 13
4, 35556, Control_c, 1, 10, 0
4, 35559, Control_c, 1, 10, 119
4, 35559, Note_on_c, 1, 73, 37
4, 35566, Control_c, 1, 10, 112
4, 35566, Control_c, 1, 10, 113
4, 35571, Control_c, 1, 10, 111
4, 35580, Note_on_c, 1, 73, 0
4, 35580, Control_c, 1, 10, 112
4, 35583, Note_on_c, 1, 71, 39
4, 35609, Note_on_c, 1, 71, 0
4, 35614, Control_c, 1, 10, 114
4, 35621, Control_c, 1, 10, 119
4, 35621, Note_on_c, 1, 73, 53
4, 35626, Control_c, 1, 10, 127
4, 35631, Control_c, 1, 10, 9
4, 35636, Note_on_c, 1, 73, 0
4, 35636, Control_c, 1, 10, 15
4, 35641, Control_c, 1, 10, 17
4, 35646, Control_c, 1, 10, 18
4, 35652, Control_c, 1, 10, 19
4, 35669, Control_c, 1, 10, 18
4, 35679, Control_c, 1, 10, 17
4, 35684, Control_c, 1, 10, 16
4, 35690, Control_c, 1, 10, 7
4, 35695, Control_c, 1, 10, 124
4, 35700, Control_c, 1, 10, 114
4, 35705, Control_c, 1, 10, 112
4, 35718, Control_c, 1, 10, 113
4, 35751, Control_c, 1, 10, 115
4, 35756, Control_c, 1, 10, 123
4, 35761, Control_c, 1, 10, 0
4, 35765, Control_c, 1, 10, 15
4, 35767, Control_c, 1, 10, 17
4, 35774, Control_c, 1, 10, 18
4, 35781, Control_c, 1, 10, 19
4, 35823, Control_c, 1, 10, 18
4, 35828, Control_c, 1, 10, 15
4, 35833, Control_c, 1, 10, 0
4, 35838, Control_c, 1, 10, 127
4, 35843, Control_c, 1, 10, 125
4, 35847, Control_c, 1, 10, 117
4, 35847, Note_on_c, 1, 71, 46
4, 35850, Control_c, 1, 10, 116
4, 35860, Control_c, 1, 10, 115
4, 35866, Control_c, 1, 10, 114
4, 35871, Control_c, 1, 10, 113
4, 35874, Note_on_c, 1, 71, 0
4, 35874, Control_c, 1, 10, 111
4, 35887, Note_on_c, 1, 73, 47
4, 35892, Control_c, 1, 10, 118
4, 35897, Control_c, 1, 10, 13
4, 35905, Note_on_c, 1, 73, 0
4, 35905, Control_c, 1, 10, 17
4, 35910, Control_c, 1, 10, 18
4, 35923, Control_c, 1, 10, 17
4, 35952, Control_c, 1, 10, 16
4, 35957, Control_c, 1, 10, 10
4, 35962, Control_c, 1, 10, 122
4, 35967, Control_c, 1, 10, 112
4, 35972, Control_c, 1, 10, 111
4, 35979, Control_c, 1, 10, 110
4, 36018, Control_c, 1, 10, 111
4, 36025, Control_c, 1, 10, 113
4, 36030, Control_c, 1, 10, 121
4, 36035, Control_c, 1, 10, 4
4, 36040, Control_c, 1, 10, 15
4, 36044, Control_c, 1, 10, 17
4, 36050, Control_c, 1, 10, 18
4, 36050, Note_on_c, 1, 71, 46
4, 36075, Note_on_c, 1, 71, 0
4, 36089, Note_on_c, 1, 73, 49
4, 36094, Control_c, 1, 10, 17
4, 36099, Control_c, 1, 10, 13
4, 36104, Control_c, 1, 10, 118
4, 36108, Note_on_c, 1, 73, 0
4, 36108, Control_c, 1, 10, 110
4, 36113, Control_c, 1, 10, 109
4, 36116, Note_on_c, 1, 71, 38
4, 36137, Control_c, 1, 10, 110
4, 36142, Note_on_c, 1, 71, 0
4, 36154, Note_on_c, 1, 73, 61
4, 36159, Control_c, 1, 10, 111
4, 36164, Control_c, 1, 10, 115
4, 36169, Note_on_c, 1, 73, 0
4, 36169, Control_c, 1, 10, 1
4, 36174, Control_c, 1, 10, 16
4, 36179, Control_c, 1, 10, 18
4, 36205, Control_c, 1, 10, 19
4, 36226, Control_c, 1, 10, 18
4, 36231, Control_c, 1, 10, 12
4, 36233, Control_c, 1, 10, 114
4, 36238, Control_c, 1, 10, 110
4, 36247, Control_c, 1, 10, 111
4, 36289, Control_c, 1, 10, 115
4, 36294, Control_c, 1, 10, 127
4, 36300, Control_c, 1, 10, 13
4, 36304, Control_c, 1, 10, 17
4, 36313, Control_c, 1, 10, 18
4, 36316, Control_c, 1, 10, 17
4, 36344, Control_c, 1, 10, 18
4, 36354, Control_c, 1, 10, 16
4, 36359, Control_c, 1, 10, 2
4, 36365, Control_c, 1, 10, 112
4, 36370, Control_c, 1, 10, 109
4, 36378, Note_on_c, 1, 71, 47
4, 36404, Note_on_c, 1, 71, 0
4, 36404, Control_c, 1, 10, 110
4, 36409, Control_c, 1, 10, 111
4, 36414, Control_c, 1, 10, 117
4, 36418, Control_c, 1, 10, 9
4, 36418, Note_on_c, 1, 73, 69
4, 36423, Control_c, 1, 10, 18
4, 36428, Control_c, 1, 10, 19
4, 36434, Note_on_c, 1, 73, 0
4, 36466, Control_c, 1, 10, 18
4, 36471, Control_c, 1, 10, 17
4, 36476, Control_c, 1, 10, 13
4, 36481, Control_c, 1, 10, 120
4, 36486, Control_c, 1, 10, 109
4, 36491, Control_c, 1, 10, 108
4, 36506, Control_c, 1, 10, 109
4, 36519, Control_c, 1, 10, 110
4, 36537, Control_c, 1, 10, 111
4, 36542, Control_c, 1, 10, 113
4, 36547, Control_c, 1, 10, 116
4, 36553, Control_c, 1, 10, 127
4, 36558, Control_c, 1, 10, 8
4, 36563, Control_c, 1, 10, 16
4, 36568, Control_c, 1, 10, 18
4, 36573, Control_c, 1, 10, 19
4, 36582, Note_on_c, 1, 71, 41
4, 36591, Control_c, 1, 10, 18
4, 36604, Note_on_c, 1, 71, 0
4, 36605, Control_c, 1, 10, 17
4, 36610, Control_c, 1, 10, 14
4, 36615, Control_c, 1, 10, 0
4, 36621, Control_c, 1, 10, 113
4, 36621, Note_on_c, 1, 73, 49
4, 36626, Control_c, 1, 10, 109
4, 36636, Control_c, 1, 10, 108
4, 36643, Note_on_c, 1, 73, 0
4, 36646, Control_c, 1, 10, 109
4, 36646, Note_on_c, 1, 71, 34
4, 36670, Note_on_c, 1, 71, 0
4, 36680, Control_c, 1, 10, 110
4, 36683, Note_on_c, 1, 73, 48
4, 36688, Control_c, 1, 10, 115
4, 36693, Note_on_c, 1, 73, 0
4, 36693, Control_c, 1, 10, 0
4, 36698, Control_c, 1, 10, 15
4, 36703, Control_c, 1, 10, 18
4, 36710, Control_c, 1, 10, 19
4, 36734, Control_c, 1, 10, 18
4, 36743, Control_c, 1, 10, 15
4, 36748, Control_c, 1, 10, 127
4, 36756, Control_c, 1, 10, 113
4, 36757, Control_c, 1, 10, 110
4, 36761, Control_c, 1, 10, 109
4, 36807, Control_c, 1, 10, 110
4, 36812, Control_c, 1, 10, 111
4, 36819, Control_c, 1, 10, 115
4, 36824, Control_c, 1, 10, 0
4, 36829, Control_c, 1, 10, 15
4, 36836, Control_c, 1, 10, 18
4, 36841, Control_c, 1, 10, 19
4, 36878, Control_c, 1, 10, 18
4, 36883, Control_c, 1, 10, 13
4, 36888, Control_c, 1, 10, 127
4, 36893, Control_c, 1, 10, 111
4, 36898, Control_c, 1, 10, 110
4, 36903, Control_c, 1, 10, 109
4, 36914, Note_on_c, 1, 71, 45
4, 36924, Control_c, 1, 10, 110
4, 36937, Note_on_c, 1, 71, 0
4, 36947, Control_c, 1, 10, 111
4, 36952, Control_c, 1, 10, 112
4, 36956, Control_c, 1, 10, 119
4, 36956, Note_on_c, 1, 73, 53
4, 36961, Control_c, 1, 10, 7
4, 36966, Control_c, 1, 10, 16
4, 36971, Note_on_c, 1, 73, 0
4, 36971, Control_c, 1, 10, 18
4, 36976, Control_c, 1, 10, 19
4, 37003, Control_c, 1, 10, 18
4, 37008, Control_c, 1, 10, 16
4, 37013, Control_c, 1, 10, 0
4, 37018, Control_c, 1, 10, 113
4, 37023, Control_c, 1, 10, 110
4, 37028, Control_c, 1, 10, 109
4, 37080, Control_c, 1, 10, 110
4, 37083, Control_c, 1, 10, 111
4, 37088, Control_c, 1, 10, 118
4, 37093, Control_c, 1, 10, 2
4, 37100, Control_c, 1, 10, 14
4, 37105, Control_c, 1, 10, 17
4, 37110, Control_c, 1, 10, 18
4, 37132, Control_c, 1, 10, 17
4, 37142, Control_c, 1, 10, 15
4, 37147, Control_c, 1, 10, 12
4, 37152, Control_c, 1, 10, 0
4, 37157, Control_c, 1, 10, 118
4, 37162, Control_c, 1, 10, 112
4, 37167, Control_c, 1, 10, 111
4, 37172, Control_c, 1, 10, 110
4, 37203, Control_c, 1, 10, 111
4, 37208, Control_c, 1, 10, 112
4, 37213, Control_c, 1, 10, 115
4, 37218, Control_c, 1, 10, 127
4, 37223, Control_c, 1, 10, 9
4, 37228, Control_c, 1, 10, 15
4, 37233, Control_c, 1, 10, 17
4, 37250, Note_on_c, 1, 71, 64
4, 37264, Control_c, 1, 10, 16
4, 37270, Control_c, 1, 10, 13
4, 37275, Control_c, 1, 10, 4
4, 37279, Note_on_c, 1, 71, 0
4, 37279, Control_c, 1, 10, 127
4, 37284, Control_c, 1, 10, 113
4, 37290, Control_c, 1, 10, 111
4, 37290, Note_on_c, 1, 73, 37
4, 37295, Control_c, 1, 10, 110
4, 37314, Note_on_c, 1, 73, 0
4, 37315, Note_on_c, 1, 71, 47
4, 37316, Control_c, 1, 10, 111
4, 37330, Note_on_c, 1, 71, 0
4, 37330, Control_c, 1, 10, 112
4, 37334, Control_c, 1, 10, 114
4, 37339, Control_c, 1, 10, 123
4, 37344, Control_c, 1, 10, 0
4, 37349, Control_c, 1, 10, 12
4, 37354, Control_c, 1, 10, 15
4, 37359, Control_c, 1, 10, 17
4, 37363, Control_c, 1, 10, 18
4, 37404, Control_c, 1, 10, 16
4, 37408, Control_c, 1, 10, 12
4, 37413, Control_c, 1, 10, 0
4, 37418, Control_c, 1, 10, 120
4, 37423, Control_c, 1, 10, 113
4, 37428, Control_c, 1, 10, 111
4, 37433, Control_c, 1, 10, 110
4, 37448, Control_c, 1, 10, 111
4, 37449, Note_on_c, 1, 71, 52
4, 37466, Control_c, 1, 10, 113
4, 37467, Control_c, 1, 10, 117
4, 37476, Note_on_c, 1, 71, 0
4, 37476, Control_c, 1, 10, 12
4, 37476, Control_c, 1, 10, 0
4, 37486, Control_c, 1, 10, 16
4, 37489, Control_c, 1, 10, 17
4, 37489, Note_on_c, 1, 73, 51
4, 37494, Control_c, 1, 10, 18
4, 37501, Note_on_c, 1, 73, 0
4, 37539, Control_c, 1, 10, 16
4, 37544, Control_c, 1, 10, 6
4, 37549, Control_c, 1, 10, 120
4, 37554, Control_c, 1, 10, 114
4, 37559, Control_c, 1, 10, 112
4, 37564, Control_c, 1, 10, 110
4, 37569, Control_c, 1, 10, 109
4, 37600, Control_c, 1, 10, 110
4, 37605, Control_c, 1, 10, 111
4, 37610, Control_c, 1, 10, 112
4, 37615, Control_c, 1, 10, 120
4, 37622, Control_c, 1, 10, 4
4, 37627, Control_c, 1, 10, 14
4, 37632, Control_c, 1, 10, 17
4, 37637, Control_c, 1, 10, 18
4, 37640, Control_c, 1, 10, 19
4, 37653, Note_on_c, 1, 71, 38
4, 37679, Control_c, 1, 10, 18
4, 37682, Note_on_c, 1, 71, 0
4, 37682, Control_c, 1, 10, 16
4, 37686, Control_c, 1, 10, 5
4, 37694, Control_c, 1, 10, 119
4, 37694, Note_on_c, 1, 73, 37
4, 37699, Control_c, 1, 10, 111
4, 37704, Control_c, 1, 10, 109
4, 37706, Control_c, 1, 10, 110
4, 37714, Note_on_c, 1, 73, 0
4, 37716, Note_on_c, 1, 71, 41
4, 37740, Control_c, 1, 10, 111
4, 37742, Note_on_c, 1, 71, 0
4, 37754, Control_c, 1, 10, 115
4, 37754, Note_on_c, 1, 73, 73
4, 37759, Control_c, 1, 10, 127
4, 37764, Control_c, 1, 10, 13
4, 37767, Note_on_c, 1, 73, 0
4, 37767, Control_c, 1, 10, 17
4, 37772, Control_c, 1, 10, 18
4, 37779, Control_c, 1, 10, 19
4, 37813, Control_c, 1, 10, 20
4, 37818, Control_c, 1, 10, 19
4, 37828, Control_c, 1, 10, 17
4, 37833, Control_c, 1, 10, 7
4, 37838, Control_c, 1, 10, 114
4, 37843, Control_c, 1, 10, 111
4, 37857, Control_c, 1, 10, 110
4, 37880, Control_c, 1, 10, 112
4, 37885, Control_c, 1, 10, 119
4, 37892, Control_c, 1, 10, 13
4, 37892, Control_c, 1, 10, 0
4, 37902, Control_c, 1, 10, 18
4, 37902, Control_c, 1, 10, 17
4, 37911, Control_c, 1, 10, 19
4, 37954, Control_c, 1, 10, 17
4, 37959, Control_c, 1, 10, 2
4, 37984, Note_on_c, 1, 71, 47
4, 37985, Control_c, 1, 10, 110
4, 37985, Control_c, 1, 10, 109
4, 38012, Note_on_c, 1, 71, 0
4, 38012, Control_c, 1, 10, 111
4, 38017, Control_c, 1, 10, 114
4, 38022, Control_c, 1, 10, 0
4, 38025, Note_on_c, 1, 73, 37
4, 38030, Control_c, 1, 10, 18
4, 38030, Control_c, 1, 10, 15
4, 38035, Control_c, 1, 10, 19
4, 38040, Note_on_c, 1, 73, 0
4, 38040, Control_c, 1, 10, 20
4, 38086, Control_c, 1, 10, 19
4, 38091, Control_c, 1, 10, 16
4, 38096, Control_c, 1, 10, 111
4, 38106, Control_c, 1, 10, 108
4, 38119, Control_c, 1, 10, 109
4, 38141, Control_c, 1, 10, 111
4, 38146, Control_c, 1, 10, 116
4, 38151, Control_c, 1, 10, 4
4, 38156, Control_c, 1, 10, 17
4, 38161, Control_c, 1, 10, 19
4, 38166, Control_c, 1, 10, 20
4, 38182, Note_on_c, 1, 71, 42
4, 38208, Note_on_c, 1, 71, 0
4, 38213, Control_c, 1, 10, 21
4, 38222, Note_on_c, 1, 73, 38
4, 38239, Control_c, 1, 10, 105
4, 38243, Note_on_c, 1, 73, 0
4, 38244, Control_c, 1, 10, 107
4, 38246, Control_c, 1, 10, 108
4, 38246, Note_on_c, 1, 71, 40
4, 38273, Note_on_c, 1, 71, 0
4, 38283, Control_c, 1, 10, 109
4, 38283, Note_on_c, 1, 73, 73
4, 38288, Control_c, 1, 10, 118
4, 38295, Note_on_c, 1, 73, 0
4, 38295, Control_c, 1, 10, 16
4, 38300, Control_c, 1, 10, 20
4, 38365, Control_c, 1, 10, 0
4, 38370, Control_c, 1, 10, 108
4, 38376, Control_c, 1, 10, 107
4, 38379, Control_c, 1, 10, 108
4, 38384, Control_c, 1, 10, 109
4, 38405, Control_c, 1, 10, 110
4, 38424, Control_c, 1, 10, 114
4, 38429, Control_c, 1, 10, 0
4, 38435, Control_c, 1, 10, 17
4, 38440, Control_c, 1, 10, 19
4, 38445, Control_c, 1, 10, 20
4, 38489, Control_c, 1, 10, 18
4, 38494, Control_c, 1, 10, 116
4, 38499, Control_c, 1, 10, 110
4, 38504, Control_c, 1, 10, 109
4, 38509, Control_c, 1, 10, 108
4, 38517, Note_on_c, 1, 71, 53
4, 38522, Control_c, 1, 10, 109
4, 38542, Note_on_c, 1, 71, 0
4, 38552, Control_c, 1, 10, 110
4, 38556, Control_c, 1, 10, 111
4, 38556, Note_on_c, 1, 73, 60
4, 38561, Control_c, 1, 10, 118
4, 38566, Control_c, 1, 10, 10
4, 38571, Note_on_c, 1, 73, 0
4, 38572, Control_c, 1, 10, 18
4, 38577, Control_c, 1, 10, 19
4, 38582, Control_c, 1, 10, 20
4, 38614, Control_c, 1, 10, 21
4, 38629, Control_c, 1, 10, 105
4, 38637, Control_c, 1, 10, 106
4, 38644, Control_c, 1, 10, 107
4, 38649, Control_c, 1, 10, 108
4, 38654, Control_c, 1, 10, 107
4, 38659, Control_c, 1, 10, 108
4, 38672, Control_c, 1, 10, 109
4, 38677, Control_c, 1, 10, 110
4, 38684, Control_c, 1, 10, 127
4, 38689, Control_c, 1, 10, 16
4, 38693, Control_c, 1, 10, 18
4, 38698, Control_c, 1, 10, 19
4, 38704, Control_c, 1, 10, 20
4, 38732, Control_c, 1, 10, 19
4, 38737, Control_c, 1, 10, 17
4, 38746, Control_c, 1, 10, 0
4, 38748, Control_c, 1, 10, 111
4, 38753, Control_c, 1, 10, 108
4, 38776, Control_c, 1, 10, 109
4, 38789, Control_c, 1, 10, 110
4, 38793, Control_c, 1, 10, 111
4, 38798, Control_c, 1, 10, 116
4, 38803, Control_c, 1, 10, 127
4, 38806, Control_c, 1, 10, 16
4, 38811, Control_c, 1, 10, 19
4, 38821, Control_c, 1, 10, 20
4, 38859, Control_c, 1, 10, 19
4, 38866, Control_c, 1, 10, 16
4, 38870, Control_c, 1, 10, 124
4, 38874, Control_c, 1, 10, 111
4, 38879, Control_c, 1, 10, 109
4, 38883, Control_c, 1, 10, 108
4, 38909, Control_c, 1, 10, 109
4, 38913, Control_c, 1, 10, 127
4, 38919, Control_c, 1, 10, 17
4, 38924, Control_c, 1, 10, 19
4, 38928, Control_c, 1, 10, 20
4, 38945, Control_c, 1, 10, 21
4, 38972, Control_c, 1, 10, 20
4, 38986, Control_c, 1, 10, 118
4, 38992, Control_c, 1, 10, 108
4, 38999, Control_c, 1, 10, 107
4, 39026, Control_c, 1, 10, 108
4, 39031, Control_c, 1, 10, 109
4, 39036, Control_c, 1, 10, 127
4, 39041, Control_c, 1, 10, 19
4, 39049, Control_c, 1, 10, 20
4, 39099, Control_c, 1, 10, 16
4, 39104, Control_c, 1, 10, 110
4, 39110, Control_c, 1, 10, 108
4, 39118, Note_on_c, 1, 66, 97
4, 39128, Note_on_c, 1, 66, 0
4, 39146, Control_c, 1, 10, 109
4, 39151, Control_c, 1, 10, 113
4, 39156, Control_c, 1, 10, 7
4, 39161, Control_c, 1, 10, 17
4, 39166, Control_c, 1, 10, 19
4, 39171, Control_c, 1, 10, 20
4, 39220, Control_c, 1, 10, 19
4, 39231, Control_c, 1, 10, 121
4, 39238, Control_c, 1, 10, 107
4, 39243, Control_c, 1, 10, 106
4, 39254, Control_c, 1, 10, 107
4, 39273, Control_c, 1, 10, 108
4, 39283, Control_c, 1, 10, 110
4, 39288, Control_c, 1, 10, 127
4, 39289, Control_c, 1, 10, 16
4, 39295, Note_on_c, 1, 66, 52
4, 39298, Control_c, 1, 10, 19
4, 39303, Note_on_c, 1, 66, 0
4, 39308, Control_c, 1, 10, 20
4, 39342, Control_c, 1, 10, 19
4, 39352, Control_c, 1, 10, 16
4, 39357, Control_c, 1, 10, 0
4, 39362, Control_c, 1, 10, 113
4, 39367, Control_c, 1, 10, 109
4, 39377, Control_c, 1, 10, 108
4, 39384, Control_c, 1, 10, 109
4, 39389, Note_on_c, 1, 66, 100
4, 39405, Control_c, 1, 10, 111
4, 39410, Control_c, 1, 10, 13
4, 39410, Control_c, 1, 10, 123
4, 39415, Control_c, 1, 10, 18
4, 39420, Control_c, 1, 10, 19
4, 39434, Control_c, 1, 10, 20
4, 39467, Control_c, 1, 10, 19
4, 39477, Control_c, 1, 10, 17
4, 39482, Control_c, 1, 10, 13
4, 39489, Note_on_c, 1, 66, 0
4, 39489, Control_c, 1, 10, 124
4, 39494, Control_c, 1, 10, 110
4, 39499, Control_c, 1, 10, 108
4, 39504, Control_c, 1, 10, 107
4, 39522, Note_on_c, 1, 61, 127
4, 39540, Control_c, 1, 10, 109
4, 39545, Control_c, 1, 10, 115
4, 39550, Control_c, 1, 10, 12
4, 39556, Control_c, 1, 10, 18
4, 39562, Control_c, 1, 10, 19
4, 39567, Control_c, 1, 10, 20
4, 39577, Note_on_c, 1, 61, 0
4, 39602, Control_c, 1, 10, 19
4, 39612, Control_c, 1, 10, 16
4, 39616, Control_c, 1, 10, 0
4, 39621, Control_c, 1, 10, 113
4, 39626, Control_c, 1, 10, 109
4, 39632, Control_c, 1, 10, 108
4, 39668, Control_c, 1, 10, 109
4, 39678, Control_c, 1, 10, 110
4, 39683, Control_c, 1, 10, 112
4, 39688, Control_c, 1, 10, 120
4, 39693, Control_c, 1, 10, 9
4, 39698, Control_c, 1, 10, 17
4, 39703, Control_c, 1, 10, 19
4, 39714, Control_c, 1, 10, 20
4, 39734, Control_c, 1, 10, 19
4, 39745, Control_c, 1, 10, 18
4, 39750, Control_c, 1, 10, 15
4, 39755, Control_c, 1, 10, 124
4, 39758, Control_c, 1, 10, 110
4, 39763, Control_c, 1, 10, 109
4, 39768, Control_c, 1, 10, 108
4, 39804, Control_c, 1, 10, 109
4, 39809, Control_c, 1, 10, 110
4, 39814, Control_c, 1, 10, 120
4, 39819, Control_c, 1, 10, 7
4, 39824, Control_c, 1, 10, 16
4, 39829, Control_c, 1, 10, 18
4, 39834, Control_c, 1, 10, 19
4, 39839, Control_c, 1, 10, 20
4, 39871, Control_c, 1, 10, 19
4, 39884, Control_c, 1, 10, 13
4, 39884, Control_c, 1, 10, 18
4, 39894, Control_c, 1, 10, 111
4, 39894, Control_c, 1, 10, 127
4, 39899, Control_c, 1, 10, 109
4, 39904, Control_c, 1, 10, 108
4, 39934, Control_c, 1, 10, 109
4, 39936, Control_c, 1, 10, 112
4, 39941, Control_c, 1, 10, 127
4, 39946, Control_c, 1, 10, 14
4, 39953, Control_c, 1, 10, 17
4, 39958, Control_c, 1, 10, 19
4, 39962, Note_on_c, 1, 62, 46
4, 39974, Control_c, 1, 10, 20
4, 39994, Note_on_c, 1, 62, 0
4, 40024, Control_c, 1, 10, 19
4, 40028, Control_c, 1, 10, 18
4, 40033, Control_c, 1, 10, 6
4, 40038, Control_c, 1, 10, 113
4, 40043, Control_c, 1, 10, 110
4, 40046, Control_c, 1, 10, 109
4, 40046, Note_on_c, 1, 73, 110
4, 40068, Control_c, 1, 10, 110
4, 40073, Control_c, 1, 10, 111
4, 40078, Control_c, 1, 10, 113
4, 40083, Control_c, 1, 10, 119
4, 40090, Note_on_c, 1, 73, 0
4, 40090, Control_c, 1, 10, 0
4, 40095, Control_c, 1, 10, 16
4, 40100, Control_c, 1, 10, 18
4, 40105, Control_c, 1, 10, 19
4, 40121, Control_c, 1, 10, 20
4, 40146, Control_c, 1, 10, 19
4, 40158, Control_c, 1, 10, 17
4, 40163, Control_c, 1, 10, 127
4, 40168, Control_c, 1, 10, 111
4, 40172, Control_c, 1, 10, 109
4, 40211, Control_c, 1, 10, 110
4, 40221, Control_c, 1, 10, 113
4, 40226, Control_c, 1, 10, 127
4, 40231, Control_c, 1, 10, 13
4, 40236, Control_c, 1, 10, 17
4, 40241, Control_c, 1, 10, 18
4, 40244, Control_c, 1, 10, 19
4, 40274, Control_c, 1, 10, 18
4, 40276, Control_c, 1, 10, 16
4, 40281, Control_c, 1, 10, 0
4, 40286, Control_c, 1, 10, 114
4, 40291, Control_c, 1, 10, 110
4, 40296, Control_c, 1, 10, 109
4, 40311, Control_c, 1, 10, 110
4, 40319, Note_on_c, 1, 73, 51
4, 40337, Note_on_c, 1, 73, 0
4, 40352, Control_c, 1, 10, 112
4, 40356, Note_on_c, 1, 74, 53
4, 40358, Control_c, 1, 10, 2
4, 40358, Control_c, 1, 10, 119
4, 40364, Control_c, 1, 10, 15
4, 40369, Note_on_c, 1, 74, 0
4, 40373, Control_c, 1, 10, 17
4, 40376, Control_c, 1, 10, 18
4, 40408, Control_c, 1, 10, 15
4, 40413, Control_c, 1, 10, 5
4, 40422, Control_c, 1, 10, 117
4, 40424, Control_c, 1, 10, 111
4, 40424, Note_on_c, 1, 78, 76
4, 40429, Control_c, 1, 10, 110
4, 40435, Note_on_c, 1, 78, 0
4, 40435, Control_c, 1, 10, 109
4, 40450, Control_c, 1, 10, 110
4, 40470, Control_c, 1, 10, 113
4, 40475, Control_c, 1, 10, 124
4, 40480, Control_c, 1, 10, 0
4, 40485, Control_c, 1, 10, 13
4, 40490, Note_on_c, 1, 74, 67
4, 40491, Control_c, 1, 10, 16
4, 40496, Control_c, 1, 10, 18
4, 40510, Note_on_c, 1, 74, 0
4, 40530, Control_c, 1, 10, 17
4, 40536, Control_c, 1, 10, 15
4, 40541, Control_c, 1, 10, 6
4, 40546, Control_c, 1, 10, 127
4, 40551, Control_c, 1, 10, 115
4, 40555, Control_c, 1, 10, 112
4, 40555, Note_on_c, 1, 73, 106
4, 40560, Control_c, 1, 10, 110
4, 40568, Control_c, 1, 10, 109
4, 40571, Note_on_c, 1, 73, 0
4, 40581, Control_c, 1, 10, 110
4, 40598, Control_c, 1, 10, 111
4, 40603, Control_c, 1, 10, 112
4, 40608, Control_c, 1, 10, 115
4, 40615, Control_c, 1, 10, 127
4, 40620, Control_c, 1, 10, 9
4, 40625, Control_c, 1, 10, 16
4, 40630, Control_c, 1, 10, 18
4, 40635, Control_c, 1, 10, 19
4, 40670, Control_c, 1, 10, 17
4, 40675, Control_c, 1, 10, 127
4, 40680, Control_c, 1, 10, 113
4, 40690, Control_c, 1, 10, 111
4, 40692, Control_c, 1, 10, 109
4, 40697, Control_c, 1, 10, 108
4, 40720, Control_c, 1, 10, 109
4, 40730, Control_c, 1, 10, 110
4, 40735, Control_c, 1, 10, 111
4, 40736, Control_c, 1, 10, 118
4, 40741, Control_c, 1, 10, 7
4, 40748, Control_c, 1, 10, 16
4, 40755, Control_c, 1, 10, 18
4, 40760, Control_c, 1, 10, 19
4, 40763, Control_c, 1, 10, 20
4, 40782, Control_c, 1, 10, 19
4, 40790, Control_c, 1, 10, 18
4, 40795, Control_c, 1, 10, 14
4, 40800, Control_c, 1, 10, 127
4, 40806, Control_c, 1, 10, 112
4, 40811, Control_c, 1, 10, 109
4, 40816, Control_c, 1, 10, 108
4, 40834, Control_c, 1, 10, 107
4, 40839, Control_c, 1, 10, 108
4, 40847, Note_on_c, 1, 73, 94
4, 40856, Control_c, 1, 10, 109
4, 40861, Control_c, 1, 10, 110
4, 40866, Note_on_c, 1, 73, 0
4, 40866, Control_c, 1, 10, 112
4, 40872, Control_c, 1, 10, 118
4, 40877, Control_c, 1, 10, 0
4, 40882, Control_c, 1, 10, 16
4, 40887, Control_c, 1, 10, 19
4, 40890, Note_on_c, 1, 71, 34
4, 40892, Control_c, 1, 10, 20
4, 40909, Note_on_c, 1, 71, 0
4, 40925, Control_c, 1, 10, 19
4, 40930, Control_c, 1, 10, 17
4, 40937, Control_c, 1, 10, 127
4, 40940, Control_c, 1, 10, 109
4, 40945, Control_c, 1, 10, 108
4, 40950, Control_c, 1, 10, 107
4, 40985, Note_on_c, 1, 71, 52
4, 40990, Control_c, 1, 10, 108
4, 40995, Control_c, 1, 10, 111
4, 41002, Control_c, 1, 10, 19
4, 41002, Control_c, 1, 10, 15
4, 41008, Note_on_c, 1, 71, 0
4, 41013, Control_c, 1, 10, 20
4, 41020, Note_on_c, 1, 69, 46
4, 41034, Note_on_c, 1, 69, 0
4, 41075, Control_c, 1, 10, 114
4, 41080, Control_c, 1, 10, 107
4, 41085, Control_c, 1, 10, 106
4, 41097, Note_on_c, 1, 66, 40
4, 41102, Control_c, 1, 10, 107
4, 41113, Note_on_c, 1, 66, 0
4, 41123, Control_c, 1, 10, 108
4, 41137, Control_c, 1, 10, 110
4, 41142, Control_c, 1, 10, 127
4, 41147, Control_c, 1, 10, 16
4, 41152, Control_c, 1, 10, 20
4, 41161, Control_c, 1, 10, 21
4, 41201, Control_c, 1, 10, 20
4, 41206, Control_c, 1, 10, 19
4, 41211, Control_c, 1, 10, 3
4, 41216, Control_c, 1, 10, 110
4, 41221, Control_c, 1, 10, 108
4, 41267, Control_c, 1, 10, 110
4, 41272, Control_c, 1, 10, 114
4, 41277, Control_c, 1, 10, 11
4, 41282, Control_c, 1, 10, 19
4, 41288, Control_c, 1, 10, 20
4, 41293, Control_c, 1, 10, 21
4, 41325, Control_c, 1, 10, 22
4, 41342, Control_c, 1, 10, 23
4, 41347, Control_c, 1, 10, 24
4, 41353, Control_c, 1, 10, 30
4, 41354, Control_c, 1, 10, 102
4, 41361, Control_c, 1, 10, 104
4, 41366, Control_c, 1, 10, 105
4, 41371, Control_c, 1, 10, 106
4, 41391, Control_c, 1, 10, 107
4, 41406, Control_c, 1, 10, 108
4, 41416, Control_c, 1, 10, 10
4, 41416, Control_c, 1, 10, 112
4, 41426, Control_c, 1, 10, 21
4, 41477, Control_c, 1, 10, 22
4, 41492, Control_c, 1, 10, 26
4, 41497, Control_c, 1, 10, 104
4, 41502, Control_c, 1, 10, 106
4, 41507, Control_c, 1, 10, 107
4, 41525, Control_c, 1, 10, 108
4, 41542, Control_c, 1, 10, 109
4, 41548, Control_c, 1, 10, 110
4, 41553, Control_c, 1, 10, 124
4, 41558, Control_c, 1, 10, 16
4, 41561, Control_c, 1, 10, 20
4, 41561, Note_on_c, 1, 62, 48
4, 41564, Control_c, 1, 10, 21
4, 41620, Control_c, 1, 10, 105
4, 41626, Control_c, 1, 10, 107
4, 41641, Control_c, 1, 10, 108
4, 41646, Note_on_c, 1, 62, 0
4, 41653, Note_on_c, 1, 61, 106
4, 41674, Control_c, 1, 10, 109
4, 41676, Note_on_c, 1, 61, 0
4, 41681, Control_c, 1, 10, 110
4, 41688, Control_c, 1, 10, 112
4, 41694, Control_c, 1, 10, 0
4, 41697, Control_c, 1, 10, 19
4, 41702, Control_c, 1, 10, 20
4, 41707, Control_c, 1, 10, 21
4, 41751, Control_c, 1, 10, 24
4, 41756, Control_c, 1, 10, 105
4, 41766, Control_c, 1, 10, 107
4, 41793, Control_c, 1, 10, 108
4, 41808, Control_c, 1, 10, 110
4, 41809, Control_c, 1, 10, 122
4, 41814, Control_c, 1, 10, 17
4, 41819, Control_c, 1, 10, 20
4, 41829, Control_c, 1, 10, 21
4, 41858, Control_c, 1, 10, 20
4, 41863, Control_c, 1, 10, 18
4, 41871, Control_c, 1, 10, 117
4, 41876, Control_c, 1, 10, 109
4, 41878, Control_c, 1, 10, 108
4, 41894, Control_c, 1, 10, 107
4, 41897, Control_c, 1, 10, 108
4, 41933, Control_c, 1, 10, 109
4, 41938, Control_c, 1, 10, 111
4, 41943, Control_c, 1, 10, 121
4, 41948, Control_c, 1, 10, 14
4, 41953, Control_c, 1, 10, 18
4, 41958, Control_c, 1, 10, 20
4, 42004, Control_c, 1, 10, 14
4, 42004, Control_c, 1, 10, 18
4, 42014, Control_c, 1, 10, 0
4, 42018, Control_c, 1, 10, 113
4, 42023, Control_c, 1, 10, 109
4, 42028, Control_c, 1, 10, 108
4, 42064, Control_c, 1, 10, 109
4, 42071, Control_c, 1, 10, 110
4, 42078, Control_c, 1, 10, 114
4, 42080, Control_c, 1, 10, 124
4, 42087, Control_c, 1, 10, 0
4, 42094, Control_c, 1, 10, 17
4, 42094, Control_c, 1, 10, 13
4, 42094, Note_on_c, 1, 61, 94
4, 42099, Control_c, 1, 10, 19
4, 42107, Note_on_c, 1, 61, 0
4, 42112, Control_c, 1, 10, 20
4, 42128, Control_c, 1, 10, 19
4, 42147, Control_c, 1, 10, 16
4, 42152, Control_c, 1, 10, 127
4, 42157, Control_c, 1, 10, 111
4, 42161, Control_c, 1, 10, 109
4, 42166, Control_c, 1, 10, 108
4, 42171, Control_c, 1, 10, 107
4, 42184, Note_on_c, 1, 74, 118
4, 42191, Control_c, 1, 10, 108
4, 42195, Note_on_c, 1, 74, 0
4, 42195, Control_c, 1, 10, 109
4, 42224, Control_c, 1, 10, 110
4, 42229, Control_c, 1, 10, 111
4, 42234, Control_c, 1, 10, 127
4, 42239, Control_c, 1, 10, 15
4, 42244, Control_c, 1, 10, 19
4, 42273, Control_c, 1, 10, 18
4, 42278, Control_c, 1, 10, 15
4, 42284, Note_on_c, 1, 73, 100
4, 42286, Control_c, 1, 10, 0
4, 42288, Control_c, 1, 10, 113
4, 42293, Control_c, 1, 10, 109
4, 42299, Note_on_c, 1, 73, 0
4, 42304, Control_c, 1, 10, 108
4, 42317, Control_c, 1, 10, 109
4, 42326, Control_c, 1, 10, 110
4, 42342, Control_c, 1, 10, 111
4, 42347, Control_c, 1, 10, 112
4, 42352, Control_c, 1, 10, 119
4, 42361, Control_c, 1, 10, 0
4, 42366, Control_c, 1, 10, 12
4, 42371, Control_c, 1, 10, 17
4, 42376, Control_c, 1, 10, 18
4, 42377, Control_c, 1, 10, 19
4, 42391, Note_on_c, 1, 73, 122
4, 42405, Control_c, 1, 10, 18
4, 42407, Note_on_c, 1, 73, 0
4, 42407, Control_c, 1, 10, 17
4, 42412, Control_c, 1, 10, 14
4, 42417, Control_c, 1, 10, 0
4, 42422, Control_c, 1, 10, 119
4, 42427, Control_c, 1, 10, 110
4, 42433, Control_c, 1, 10, 108
4, 42480, Control_c, 1, 10, 109
4, 42485, Control_c, 1, 10, 112
4, 42488, Control_c, 1, 10, 124
4, 42496, Control_c, 1, 10, 14
4, 42498, Control_c, 1, 10, 18
4, 42503, Control_c, 1, 10, 20
4, 42552, Control_c, 1, 10, 19
4, 42557, Control_c, 1, 10, 18
4, 42562, Control_c, 1, 10, 0
4, 42567, Control_c, 1, 10, 109
4, 42574, Control_c, 1, 10, 108
4, 42591, Control_c, 1, 10, 109
4, 42618, Control_c, 1, 10, 113
4, 42618, Control_c, 1, 10, 110
4, 42628, Control_c, 1, 10, 127
4, 42632, Control_c, 1, 10, 11
4, 42637, Control_c, 1, 10, 16
4, 42640, Control_c, 1, 10, 18
4, 42650, Control_c, 1, 10, 19
4, 42680, Control_c, 1, 10, 18
4, 42685, Control_c, 1, 10, 17
4, 42692, Control_c, 1, 10, 12
4, 42695, Control_c, 1, 10, 127
4, 42700, Control_c, 1, 10, 113
4, 42705, Control_c, 1, 10, 111
4, 42712, Control_c, 1, 10, 109
4, 42712, Control_c, 1, 10, 110
4, 42722, Control_c, 1, 10, 110
4, 42722, Note_on_c, 1, 78, 127
4, 42726, Control_c, 1, 10, 109
4, 42736, Note_on_c, 1, 78, 0
4, 42748, Control_c, 1, 10, 110
4, 42757, Control_c, 1, 10, 113
4, 42762, Control_c, 1, 10, 124
4, 42767, Control_c, 1, 10, 8
4, 42772, Control_c, 1, 10, 17
4, 42777, Control_c, 1, 10, 18
4, 42782, Control_c, 1, 10, 19
4, 42811, Control_c, 1, 10, 18
4, 42816, Control_c, 1, 10, 17
4, 42821, Control_c, 1, 10, 12
4, 42826, Control_c, 1, 10, 0
4, 42831, Control_c, 1, 10, 118
4, 42836, Control_c, 1, 10, 114
4, 42841, Control_c, 1, 10, 111
4, 42846, Control_c, 1, 10, 110
4, 42854, Note_on_c, 1, 74, 84
4, 42871, Note_on_c, 1, 74, 0
4, 42875, Control_c, 1, 10, 113
4, 42880, Control_c, 1, 10, 0
4, 42885, Control_c, 1, 10, 16
4, 42890, Control_c, 1, 10, 19
4, 42900, Control_c, 1, 10, 20
4, 42928, Control_c, 1, 10, 19
4, 42936, Control_c, 1, 10, 18
4, 42941, Control_c, 1, 10, 17
4, 42946, Control_c, 1, 10, 9
4, 42949, Control_c, 1, 10, 127
4, 42954, Control_c, 1, 10, 119
4, 42959, Control_c, 1, 10, 115
4, 42964, Control_c, 1, 10, 114
4, 42969, Control_c, 1, 10, 113
4, 42988, Control_c, 1, 10, 114
4, 42994, Note_on_c, 1, 73, 113
4, 42996, Control_c, 1, 10, 5
4, 43000, Control_c, 1, 10, 18
4, 43005, Control_c, 1, 10, 19
4, 43012, Note_on_c, 1, 73, 0
4, 43032, Control_c, 1, 10, 18
4, 43032, Note_on_c, 1, 74, 44
4, 43041, Control_c, 1, 10, 16
4, 43043, Control_c, 1, 10, 10
4, 43048, Control_c, 1, 10, 127
4, 43053, Note_on_c, 1, 74, 0
4, 43054, Control_c, 1, 10, 118
4, 43059, Note_on_c, 1, 73, 103
4, 43061, Control_c, 1, 10, 114
4, 43065, Control_c, 1, 10, 112
4, 43074, Note_on_c, 1, 73, 0
4, 43079, Control_c, 1, 10, 111
4, 43095, Control_c, 1, 10, 110
4, 43106, Control_c, 1, 10, 109
4, 43119, Control_c, 1, 10, 127
4, 43126, Control_c, 1, 10, 19
4, 43130, Control_c, 1, 10, 20
4, 43158, Note_on_c, 1, 71, 55
4, 43176, Note_on_c, 1, 71, 0
4, 43178, Control_c, 1, 10, 19
4, 43181, Control_c, 1, 10, 17
4, 43186, Control_c, 1, 10, 127
4, 43186, Note_on_c, 1, 69, 41
4, 43192, Control_c, 1, 10, 109
4, 43197, Note_on_c, 1, 69, 0
4, 43197, Control_c, 1, 10, 108
4, 43248, Control_c, 1, 10, 109
4, 43252, Control_c, 1, 10, 111
4, 43257, Control_c, 1, 10, 5
4, 43263, Control_c, 1, 10, 18
4, 43266, Control_c, 1, 10, 19
4, 43271, Control_c, 1, 10, 20
4, 43316, Control_c, 1, 10, 19
4, 43317, Control_c, 1, 10, 18
4, 43322, Control_c, 1, 10, 127
4, 43327, Control_c, 1, 10, 109
4, 43341, Control_c, 1, 10, 108
4, 43366, Control_c, 1, 10, 107
4, 43377, Note_on_c, 1, 73, 113
4, 43381, Control_c, 1, 10, 108
4, 43387, Note_on_c, 1, 73, 0
4, 43387, Control_c, 1, 10, 114
4, 43392, Control_c, 1, 10, 15
4, 43400, Control_c, 1, 10, 18
4, 43406, Control_c, 1, 10, 19
4, 43436, Control_c, 1, 10, 18
4, 43444, Control_c, 1, 10, 17
4, 43447, Control_c, 1, 10, 9
4, 43452, Control_c, 1, 10, 113
4, 43457, Control_c, 1, 10, 109
4, 43462, Control_c, 1, 10, 108
4, 43486, Note_on_c, 1, 73, 72
4, 43498, Note_on_c, 1, 73, 0
4, 43511, Control_c, 1, 10, 109
4, 43514, Control_c, 1, 10, 110
4, 43519, Control_c, 1, 10, 124
4, 43524, Control_c, 1, 10, 15
4, 43531, Control_c, 1, 10, 18
4, 43565, Control_c, 1, 10, 17
4, 43570, Control_c, 1, 10, 121
4, 43570, Control_c, 1, 10, 13
4, 43580, Control_c, 1, 10, 109
4, 43580, Control_c, 1, 10, 110
4, 43585, Control_c, 1, 10, 108
4, 43621, Control_c, 1, 10, 109
4, 43636, Control_c, 1, 10, 111
4, 43641, Control_c, 1, 10, 127
4, 43648, Control_c, 1, 10, 16
4, 43650, Control_c, 1, 10, 19
4, 43650, Note_on_c, 1, 73, 56
4, 43661, Note_on_c, 1, 73, 0
4, 43690, Control_c, 1, 10, 18
4, 43695, Control_c, 1, 10, 13
4, 43700, Control_c, 1, 10, 112
4, 43706, Control_c, 1, 10, 109
4, 43711, Control_c, 1, 10, 108
4, 43756, Control_c, 1, 10, 109
4, 43756, Note_on_c, 1, 71, 51
4, 43774, Note_on_c, 1, 71, 0
4, 43780, Note_on_c, 1, 73, 103
4, 43783, Control_c, 1, 10, 19
4, 43792, Note_on_c, 1, 73, 0
4, 43818, Control_c, 1, 10, 18
4, 43823, Control_c, 1, 10, 15
4, 43828, Control_c, 1, 10, 114
4, 43833, Control_c, 1, 10, 108
4, 43881, Control_c, 1, 10, 109
4, 43884, Note_on_c, 1, 73, 69
4, 43893, Note_on_c, 1, 73, 0
4, 43898, Control_c, 1, 10, 110
4, 43903, Control_c, 1, 10, 115
4, 43908, Control_c, 1, 10, 12
4, 43912, Control_c, 1, 10, 19
4, 43918, Control_c, 1, 10, 20
4, 43965, Control_c, 1, 10, 19
4, 43970, Control_c, 1, 10, 8
4, 43976, Control_c, 1, 10, 107
4, 43982, Note_on_c, 1, 71, 46
4, 43987, Control_c, 1, 10, 108
4, 44000, Note_on_c, 1, 71, 0
4, 44024, Control_c, 1, 10, 109
4, 44028, Control_c, 1, 10, 110
4, 44033, Control_c, 1, 10, 9
4, 44038, Control_c, 1, 10, 19
4, 44044, Control_c, 1, 10, 20
4, 44046, Note_on_c, 1, 73, 58
4, 44084, Control_c, 1, 10, 18
4, 44089, Control_c, 1, 10, 108
4, 44099, Control_c, 1, 10, 107
4, 44104, Control_c, 1, 10, 108
4, 44110, Note_on_c, 1, 73, 0
4, 44136, Control_c, 1, 10, 109
4, 44154, Note_on_c, 1, 73, 42
4, 44159, Note_on_c, 1, 73, 0
4, 44164, Control_c, 1, 10, 111
4, 44174, Control_c, 1, 10, 121
4, 44178, Control_c, 1, 10, 15
4, 44183, Control_c, 1, 10, 18
4, 44188, Control_c, 1, 10, 19
4, 44209, Control_c, 1, 10, 20
4, 44214, Control_c, 1, 10, 21
4, 44229, Control_c, 1, 10, 105
4, 44243, Control_c, 1, 10, 106
4, 44294, Control_c, 1, 10, 107
4, 44306, Control_c, 1, 10, 120
4, 44311, Control_c, 1, 10, 18
4, 44316, Control_c, 1, 10, 20
4, 44342, Control_c, 1, 10, 21
4, 44354, Control_c, 1, 10, 105
4, 44364, Control_c, 1, 10, 106
4, 44379, Control_c, 1, 10, 107
4, 44389, Note_on_c, 1, 71, 52
4, 44415, Note_on_c, 1, 71, 0
4, 44426, Control_c, 1, 10, 108
4, 44426, Note_on_c, 1, 73, 64
4, 44440, Note_on_c, 1, 73, 0
4, 44440, Control_c, 1, 10, 110
4, 44445, Control_c, 1, 10, 127
4, 44450, Control_c, 1, 10, 18
4, 44454, Control_c, 1, 10, 20
4, 44491, Control_c, 1, 10, 21
4, 44501, Control_c, 1, 10, 105
4, 44501, Note_on_c, 1, 71, 44
4, 44506, Control_c, 1, 10, 106
4, 44514, Note_on_c, 1, 71, 0
4, 44514, Control_c, 1, 10, 107
4, 44557, Control_c, 1, 10, 108
4, 44567, Control_c, 1, 10, 110
4, 44572, Control_c, 1, 10, 0
4, 44577, Control_c, 1, 10, 19
4, 44579, Control_c, 1, 10, 20
4, 44588, Control_c, 1, 10, 21
4, 44589, Note_on_c, 1, 71, 53
4, 44615, Note_on_c, 1, 71, 0
4, 44626, Note_on_c, 1, 73, 48
4, 44630, Control_c, 1, 10, 22
4, 44635, Control_c, 1, 10, 26
4, 44640, Control_c, 1, 10, 106
4, 44645, Note_on_c, 1, 73, 0
4, 44648, Control_c, 1, 10, 107
4, 44655, Note_on_c, 1, 71, 42
4, 44668, Note_on_c, 1, 71, 0
4, 44703, Control_c, 1, 10, 108
4, 44708, Control_c, 1, 10, 109
4, 44713, Control_c, 1, 10, 0
4, 44718, Control_c, 1, 10, 20
4, 44721, Control_c, 1, 10, 21
4, 44767, Control_c, 1, 10, 108
4, 44832, Control_c, 1, 10, 109
4, 44837, Control_c, 1, 10, 112
4, 44846, Control_c, 1, 10, 20
4, 44846, Control_c, 1, 10, 14
4, 44878, Control_c, 1, 10, 21
4, 44897, Control_c, 1, 10, 100
4, 44902, Control_c, 1, 10, 105
4, 44907, Control_c, 1, 10, 106
4, 44924, Note_on_c, 1, 71, 41
4, 44949, Note_on_c, 1, 71, 0
4, 44954, Control_c, 1, 10, 107
4, 44964, Note_on_c, 1, 73, 41
4, 44974, Control_c, 1, 10, 113
4, 44976, Note_on_c, 1, 73, 0
4, 44976, Control_c, 1, 10, 19
4, 44981, Control_c, 1, 10, 20
4, 45028, Control_c, 1, 10, 18
4, 45033, Control_c, 1, 10, 109
4, 45038, Control_c, 1, 10, 106
4, 45043, Control_c, 1, 10, 107
4, 45058, Control_c, 1, 10, 108
4, 45091, Control_c, 1, 10, 109
4, 45100, Control_c, 1, 10, 110
4, 45103, Control_c, 1, 10, 112
4, 45108, Control_c, 1, 10, 123
4, 45116, Control_c, 1, 10, 5
4, 45118, Control_c, 1, 10, 15
4, 45122, Note_on_c, 1, 71, 56
4, 45126, Control_c, 1, 10, 17
4, 45128, Control_c, 1, 10, 18
4, 45141, Control_c, 1, 10, 19
4, 45151, Note_on_c, 1, 71, 0
4, 45159, Note_on_c, 1, 73, 72
4, 45169, Control_c, 1, 10, 18
4, 45178, Note_on_c, 1, 73, 0
4, 45178, Control_c, 1, 10, 109
4, 45178, Control_c, 1, 10, 116
4, 45186, Note_on_c, 1, 71, 46
4, 45188, Control_c, 1, 10, 108
4, 45200, Note_on_c, 1, 71, 0
4, 45200, Control_c, 1, 10, 109
4, 45239, Control_c, 1, 10, 110
4, 45244, Control_c, 1, 10, 113
4, 45249, Control_c, 1, 10, 127
4, 45254, Control_c, 1, 10, 13
4, 45258, Control_c, 1, 10, 17
4, 45263, Control_c, 1, 10, 18
4, 45272, Control_c, 1, 10, 19
4, 45291, Control_c, 1, 10, 18
4, 45302, Control_c, 1, 10, 15
4, 45307, Control_c, 1, 10, 127
4, 45313, Control_c, 1, 10, 110
4, 45318, Control_c, 1, 10, 109
4, 45318, Note_on_c, 1, 71, 49
4, 45333, Control_c, 1, 10, 108
4, 45337, Note_on_c, 1, 71, 0
4, 45337, Control_c, 1, 10, 109
4, 45365, Control_c, 1, 10, 110
4, 45370, Control_c, 1, 10, 112
4, 45375, Control_c, 1, 10, 120
4, 45381, Control_c, 1, 10, 0
4, 45386, Control_c, 1, 10, 15
4, 45389, Control_c, 1, 10, 18
4, 45416, Control_c, 1, 10, 17
4, 45421, Control_c, 1, 10, 16
4, 45426, Control_c, 1, 10, 8
4, 45431, Control_c, 1, 10, 118
4, 45436, Control_c, 1, 10, 110
4, 45442, Control_c, 1, 10, 109
4, 45452, Note_on_c, 1, 71, 48
4, 45474, Note_on_c, 1, 71, 0
4, 45484, Control_c, 1, 10, 110
4, 45489, Note_on_c, 1, 73, 87
4, 45494, Control_c, 1, 10, 111
4, 45499, Control_c, 1, 10, 122
4, 45508, Note_on_c, 1, 73, 0
4, 45508, Control_c, 1, 10, 12
4, 45513, Control_c, 1, 10, 18
4, 45518, Control_c, 1, 10, 19
4, 45518, Note_on_c, 1, 71, 51
4, 45536, Note_on_c, 1, 71, 0
4, 45566, Control_c, 1, 10, 15
4, 45571, Control_c, 1, 10, 114
4, 45576, Control_c, 1, 10, 109
4, 45601, Control_c, 1, 10, 110
4, 45630, Control_c, 1, 10, 112
4, 45635, Control_c, 1, 10, 127
4, 45640, Control_c, 1, 10, 16
4, 45645, Control_c, 1, 10, 19
4, 45650, Note_on_c, 1, 71, 57
4, 45655, Control_c, 1, 10, 20
4, 45675, Note_on_c, 1, 71, 0
4, 45686, Note_on_c, 1, 73, 72
4, 45696, Control_c, 1, 10, 19
4, 45702, Note_on_c, 1, 73, 0
4, 45702, Control_c, 1, 10, 16
4, 45707, Control_c, 1, 10, 115
4, 45714, Control_c, 1, 10, 110
4, 45714, Note_on_c, 1, 71, 39
4, 45719, Control_c, 1, 10, 110
4, 45719, Control_c, 1, 10, 109
4, 45728, Note_on_c, 1, 71, 0
4, 45728, Control_c, 1, 10, 111
4, 45733, Control_c, 1, 10, 110
4, 45754, Control_c, 1, 10, 111
4, 45754, Note_on_c, 1, 73, 85
4, 45764, Note_on_c, 1, 73, 0
4, 45764, Control_c, 1, 10, 114
4, 45769, Control_c, 1, 10, 127
4, 45774, Control_c, 1, 10, 16
4, 45779, Control_c, 1, 10, 19
4, 45831, Control_c, 1, 10, 14
4, 45836, Control_c, 1, 10, 114
4, 45841, Control_c, 1, 10, 109
4, 45850, Control_c, 1, 10, 108
4, 45857, Control_c, 1, 10, 109
4, 45901, Control_c, 1, 10, 110
4, 45906, Control_c, 1, 10, 120
4, 45911, Control_c, 1, 10, 14
4, 45916, Control_c, 1, 10, 18
4, 45922, Control_c, 1, 10, 19
4, 45970, Control_c, 1, 10, 17
4, 45975, Control_c, 1, 10, 127
4, 45982, Control_c, 1, 10, 109
4, 45988, Note_on_c, 1, 71, 38
4, 46010, Note_on_c, 1, 71, 0
4, 46026, Note_on_c, 1, 73, 55
4, 46031, Control_c, 1, 10, 111
4, 46038, Note_on_c, 1, 73, 0
4, 46038, Control_c, 1, 10, 122
4, 46043, Control_c, 1, 10, 14
4, 46048, Control_c, 1, 10, 18
4, 46086, Control_c, 1, 10, 19
4, 46092, Control_c, 1, 10, 18
4, 46097, Control_c, 1, 10, 15
4, 46102, Control_c, 1, 10, 127
4, 46107, Control_c, 1, 10, 112
4, 46114, Control_c, 1, 10, 110
4, 46118, Control_c, 1, 10, 109
4, 46123, Control_c, 1, 10, 108
4, 46158, Control_c, 1, 10, 109
4, 46162, Control_c, 1, 10, 113
4, 46167, Control_c, 1, 10, 9
4, 46172, Control_c, 1, 10, 17
4, 46178, Control_c, 1, 10, 19
4, 46189, Control_c, 1, 10, 20
4, 46189, Note_on_c, 1, 71, 46
4, 46210, Control_c, 1, 10, 19
4, 46214, Note_on_c, 1, 71, 0
4, 46214, Control_c, 1, 10, 20
4, 46219, Control_c, 1, 10, 19
4, 46224, Control_c, 1, 10, 18
4, 46231, Control_c, 1, 10, 0
4, 46231, Note_on_c, 1, 73, 39
4, 46236, Control_c, 1, 10, 110
4, 46241, Control_c, 1, 10, 109
4, 46244, Note_on_c, 1, 73, 0
4, 46249, Control_c, 1, 10, 108
4, 46256, Note_on_c, 1, 71, 41
4, 46268, Note_on_c, 1, 71, 0
4, 46284, Control_c, 1, 10, 109
4, 46294, Control_c, 1, 10, 111
4, 46299, Control_c, 1, 10, 120
4, 46304, Control_c, 1, 10, 10
4, 46309, Control_c, 1, 10, 17
4, 46314, Control_c, 1, 10, 18
4, 46319, Control_c, 1, 10, 19
4, 46352, Control_c, 1, 10, 18
4, 46357, Control_c, 1, 10, 15
4, 46362, Control_c, 1, 10, 120
4, 46367, Control_c, 1, 10, 110
4, 46372, Control_c, 1, 10, 109
4, 46377, Control_c, 1, 10, 108
4, 46418, Control_c, 1, 10, 109
4, 46423, Control_c, 1, 10, 112
4, 46428, Control_c, 1, 10, 118
4, 46431, Control_c, 1, 10, 0
4, 46436, Control_c, 1, 10, 14
4, 46441, Control_c, 1, 10, 18
4, 46447, Control_c, 1, 10, 19
4, 46485, Control_c, 1, 10, 18
4, 46490, Control_c, 1, 10, 127
4, 46490, Control_c, 1, 10, 14
4, 46500, Control_c, 1, 10, 108
4, 46500, Control_c, 1, 10, 111
4, 46510, Control_c, 1, 10, 107
4, 46525, Note_on_c, 1, 71, 43
4, 46529, Control_c, 1, 10, 108
4, 46540, Control_c, 1, 10, 109
4, 46546, Control_c, 1, 10, 113
4, 46548, Note_on_c, 1, 71, 0
4, 46548, Control_c, 1, 10, 0
4, 46553, Control_c, 1, 10, 15
4, 46558, Control_c, 1, 10, 19
4, 46565, Control_c, 1, 10, 20
4, 46565, Note_on_c, 1, 73, 55
4, 46576, Note_on_c, 1, 73, 0
4, 46609, Control_c, 1, 10, 19
4, 46617, Control_c, 1, 10, 15
4, 46622, Control_c, 1, 10, 110
4, 46626, Control_c, 1, 10, 107
4, 46669, Control_c, 1, 10, 109
4, 46677, Control_c, 1, 10, 118
4, 46682, Control_c, 1, 10, 19
4, 46682, Control_c, 1, 10, 16
4, 46695, Control_c, 1, 10, 20
4, 46731, Note_on_c, 1, 71, 36
4, 46736, Control_c, 1, 10, 19
4, 46741, Control_c, 1, 10, 18
4, 46744, Control_c, 1, 10, 0
4, 46749, Control_c, 1, 10, 109
4, 46754, Note_on_c, 1, 71, 0
4, 46754, Control_c, 1, 10, 107
4, 46767, Control_c, 1, 10, 106
4, 46767, Note_on_c, 1, 73, 85
4, 46772, Control_c, 1, 10, 107
4, 46788, Note_on_c, 1, 73, 0
4, 46793, Control_c, 1, 10, 108
4, 46794, Note_on_c, 1, 71, 42
4, 46801, Control_c, 1, 10, 109
4, 46817, Note_on_c, 1, 71, 0
4, 46817, Control_c, 1, 10, 110
4, 46822, Control_c, 1, 10, 113
4, 46829, Control_c, 1, 10, 8
4, 46829, Note_on_c, 1, 73, 63
4, 46834, Control_c, 1, 10, 18
4, 46839, Control_c, 1, 10, 19
4, 46842, Note_on_c, 1, 73, 0
4, 46842, Control_c, 1, 10, 20
4, 46890, Control_c, 1, 10, 21
4, 46900, Control_c, 1, 10, 22
4, 46903, Control_c, 1, 10, 25
4, 46908, Control_c, 1, 10, 105
4, 46929, Control_c, 1, 10, 107
4, 46939, Control_c, 1, 10, 106
4, 46951, Control_c, 1, 10, 107
4, 46961, Control_c, 1, 10, 12
4, 46967, Control_c, 1, 10, 20
4, 47020, Control_c, 1, 10, 21
4, 47038, Control_c, 1, 10, 22
4, 47043, Control_c, 1, 10, 105
4, 47053, Control_c, 1, 10, 107
4, 47056, Note_on_c, 1, 71, 38
4, 47063, Control_c, 1, 10, 108
4, 47089, Note_on_c, 1, 71, 0
4, 47095, Note_on_c, 1, 73, 56
4, 47100, Control_c, 1, 10, 110
4, 47107, Note_on_c, 1, 73, 0
4, 47107, Control_c, 1, 10, 114
4, 47112, Control_c, 1, 10, 0
4, 47117, Control_c, 1, 10, 14
4, 47122, Control_c, 1, 10, 18
4, 47133, Control_c, 1, 10, 19
4, 47153, Control_c, 1, 10, 20
4, 47174, Control_c, 1, 10, 10
4, 47179, Control_c, 1, 10, 109
4, 47184, Control_c, 1, 10, 108
4, 47225, Control_c, 1, 10, 109
4, 47230, Control_c, 1, 10, 110
4, 47233, Control_c, 1, 10, 116
4, 47238, Control_c, 1, 10, 4
4, 47243, Control_c, 1, 10, 16
4, 47253, Control_c, 1, 10, 18
4, 47255, Note_on_c, 1, 71, 48
4, 47258, Control_c, 1, 10, 19
4, 47284, Note_on_c, 1, 71, 0
4, 47293, Control_c, 1, 10, 18
4, 47293, Note_on_c, 1, 73, 77
4, 47297, Control_c, 1, 10, 127
4, 47302, Control_c, 1, 10, 109
4, 47309, Note_on_c, 1, 73, 0
4, 47330, Control_c, 1, 10, 110
4, 47339, Control_c, 1, 10, 111
4, 47357, Control_c, 1, 10, 112
4, 47362, Control_c, 1, 10, 116
4, 47367, Control_c, 1, 10, 127
4, 47372, Control_c, 1, 10, 12
4, 47377, Control_c, 1, 10, 17
4, 47379, Control_c, 1, 10, 19
4, 47388, Note_on_c, 1, 71, 48
4, 47389, Control_c, 1, 10, 20
4, 47407, Note_on_c, 1, 71, 0
4, 47417, Control_c, 1, 10, 19
4, 47423, Control_c, 1, 10, 20
4, 47433, Control_c, 1, 10, 19
4, 47438, Control_c, 1, 10, 11
4, 47443, Control_c, 1, 10, 117
4, 47450, Control_c, 1, 10, 109
4, 47450, Control_c, 1, 10, 110
4, 47471, Control_c, 1, 10, 110
4, 47494, Control_c, 1, 10, 111
4, 47499, Control_c, 1, 10, 114
4, 47504, Control_c, 1, 10, 121
4, 47509, Control_c, 1, 10, 0
4, 47514, Control_c, 1, 10, 13
4, 47520, Control_c, 1, 10, 16
4, 47523, Control_c, 1, 10, 18
4, 47552, Control_c, 1, 10, 19
4, 47562, Control_c, 1, 10, 17
4, 47568, Control_c, 1, 10, 9
4, 47573, Control_c, 1, 10, 117
4, 47578, Control_c, 1, 10, 110
4, 47584, Note_on_c, 1, 71, 50
4, 47600, Control_c, 1, 10, 111
4, 47609, Note_on_c, 1, 71, 0
4, 47624, Control_c, 1, 10, 112
4, 47624, Note_on_c, 1, 73, 82
4, 47629, Control_c, 1, 10, 114
4, 47634, Control_c, 1, 10, 121
4, 47635, Note_on_c, 1, 73, 0
4, 47635, Control_c, 1, 10, 1
4, 47640, Control_c, 1, 10, 16
4, 47645, Control_c, 1, 10, 18
4, 47650, Control_c, 1, 10, 19
4, 47690, Control_c, 1, 10, 20
4, 47695, Control_c, 1, 10, 19
4, 47705, Control_c, 1, 10, 16
4, 47710, Control_c, 1, 10, 121
4, 47715, Control_c, 1, 10, 111
4, 47720, Control_c, 1, 10, 110
4, 47762, Control_c, 1, 10, 121
4, 47762, Control_c, 1, 10, 112
4, 47767, Control_c, 1, 10, 0
4, 47772, Control_c, 1, 10, 14
4, 47777, Control_c, 1, 10, 16
4, 47785, Control_c, 1, 10, 17
4, 47785, Note_on_c, 1, 71, 51
4, 47788, Control_c, 1, 10, 18
4, 47815, Note_on_c, 1, 71, 0
4, 47815, Control_c, 1, 10, 19
4, 47820, Control_c, 1, 10, 20
4, 47827, Control_c, 1, 10, 19
4, 47827, Note_on_c, 1, 73, 55
4, 47837, Control_c, 1, 10, 15
4, 47842, Control_c, 1, 10, 115
4, 47847, Note_on_c, 1, 73, 0
4, 47847, Control_c, 1, 10, 110
4, 47852, Note_on_c, 1, 71, 38
4, 47854, Control_c, 1, 10, 111
4, 47859, Control_c, 1, 10, 110
4, 47874, Note_on_c, 1, 71, 0
4, 47888, Note_on_c, 1, 73, 64
4, 47893, Control_c, 1, 10, 111
4, 47900, Note_on_c, 1, 73, 0
4, 47900, Control_c, 1, 10, 116
4, 47900, Control_c, 1, 10, 112
4, 47905, Control_c, 1, 10, 127
4, 47910, Control_c, 1, 10, 12
4, 47919, Control_c, 1, 10, 17
4, 47924, Control_c, 1, 10, 18
4, 47944, Control_c, 1, 10, 19
4, 47954, Control_c, 1, 10, 20
4, 47976, Control_c, 1, 10, 18
4, 47978, Control_c, 1, 10, 0
4, 47983, Control_c, 1, 10, 109
4, 47989, Control_c, 1, 10, 108
4, 47996, Control_c, 1, 10, 110
4, 48025, Control_c, 1, 10, 113
4, 48029, Control_c, 1, 10, 0
4, 48034, Control_c, 1, 10, 16
4, 48039, Control_c, 1, 10, 19
4, 48044, Control_c, 1, 10, 20
4, 48085, Control_c, 1, 10, 21
4, 48110, Control_c, 1, 10, 118
4, 48118, Control_c, 1, 10, 108
4, 48122, Note_on_c, 1, 71, 40
4, 48145, Note_on_c, 1, 71, 0
4, 48162, Note_on_c, 1, 73, 64
4, 48167, Control_c, 1, 10, 109
4, 48172, Note_on_c, 1, 73, 0
4, 48172, Control_c, 1, 10, 117
4, 48177, Control_c, 1, 10, 15
4, 48182, Control_c, 1, 10, 18
4, 48211, Control_c, 1, 10, 19
4, 48216, Control_c, 1, 10, 20
4, 48246, Control_c, 1, 10, 0
4, 48251, Control_c, 1, 10, 107
4, 48255, Control_c, 1, 10, 108
4, 48257, Control_c, 1, 10, 109
4, 48267, Control_c, 1, 10, 108
4, 48290, Control_c, 1, 10, 110
4, 48296, Control_c, 1, 10, 123
4, 48301, Control_c, 1, 10, 13
4, 48306, Control_c, 1, 10, 17
4, 48311, Control_c, 1, 10, 19
4, 48322, Note_on_c, 1, 71, 41
4, 48327, Control_c, 1, 10, 20
4, 48348, Note_on_c, 1, 71, 0
4, 48364, Control_c, 1, 10, 14
4, 48364, Note_on_c, 1, 73, 37
4, 48369, Control_c, 1, 10, 111
4, 48374, Control_c, 1, 10, 109
4, 48384, Note_on_c, 1, 73, 0
4, 48385, Note_on_c, 1, 71, 42
4, 48392, Control_c, 1, 10, 108
4, 48407, Control_c, 1, 10, 109
4, 48413, Note_on_c, 1, 71, 0
4, 48413, Control_c, 1, 10, 110
4, 48418, Control_c, 1, 10, 114
4, 48423, Control_c, 1, 10, 127
4, 48423, Note_on_c, 1, 73, 47
4, 48428, Control_c, 1, 10, 15
4, 48433, Control_c, 1, 10, 18
4, 48438, Control_c, 1, 10, 19
4, 48440, Note_on_c, 1, 73, 0
4, 48445, Control_c, 1, 10, 20
4, 48464, Control_c, 1, 10, 19
4, 48498, Control_c, 1, 10, 15
4, 48503, Control_c, 1, 10, 120
4, 48508, Control_c, 1, 10, 111
4, 48513, Control_c, 1, 10, 110
4, 48518, Control_c, 1, 10, 109
4, 48521, Control_c, 1, 10, 110
4, 48553, Control_c, 1, 10, 111
4, 48558, Control_c, 1, 10, 115
4, 48561, Control_c, 1, 10, 0
4, 48566, Control_c, 1, 10, 14
4, 48571, Control_c, 1, 10, 17
4, 48576, Control_c, 1, 10, 18
4, 48584, Control_c, 1, 10, 19
4, 48620, Control_c, 1, 10, 17
4, 48622, Control_c, 1, 10, 0
4, 48628, Control_c, 1, 10, 111
4, 48633, Control_c, 1, 10, 110
4, 48638, Control_c, 1, 10, 109
4, 48650, Control_c, 1, 10, 110
4, 48656, Note_on_c, 1, 71, 38
4, 48661, Control_c, 1, 10, 111
4, 48666, Control_c, 1, 10, 121
4, 48666, Control_c, 1, 10, 113
4, 48676, Control_c, 1, 10, 15
4, 48676, Control_c, 1, 10, 2
4, 48683, Note_on_c, 1, 71, 0
4, 48683, Control_c, 1, 10, 18
4, 48688, Control_c, 1, 10, 19
4, 48698, Note_on_c, 1, 73, 47
4, 48710, Note_on_c, 1, 73, 0
4, 48720, Control_c, 1, 10, 18
4, 48725, Control_c, 1, 10, 15
4, 48730, Control_c, 1, 10, 127
4, 48733, Control_c, 1, 10, 113
4, 48738, Control_c, 1, 10, 111
4, 48748, Control_c, 1, 10, 109
4, 48768, Control_c, 1, 10, 111
4, 48773, Control_c, 1, 10, 127
4, 48778, Control_c, 1, 10, 16
4, 48783, Control_c, 1, 10, 18
4, 48787, Control_c, 1, 10, 19
4, 48822, Control_c, 1, 10, 15
4, 48827, Control_c, 1, 10, 120
4, 48835, Control_c, 1, 10, 112
4, 48840, Control_c, 1, 10, 110
4, 48860, Note_on_c, 1, 71, 45
4, 48867, Control_c, 1, 10, 111
4, 48872, Control_c, 1, 10, 117
4, 48877, Control_c, 1, 10, 4
4, 48881, Note_on_c, 1, 71, 0
4, 48881, Control_c, 1, 10, 16
4, 48886, Control_c, 1, 10, 18
4, 48892, Control_c, 1, 10, 19
4, 48900, Control_c, 1, 10, 20
4, 48900, Note_on_c, 1, 73, 63
4, 48916, Note_on_c, 1, 73, 0
4, 48924, Control_c, 1, 10, 19
4, 48924, Note_on_c, 1, 71, 44
4, 48929, Control_c, 1, 10, 18
4, 48934, Control_c, 1, 10, 13
4, 48939, Control_c, 1, 10, 0
4, 48944, Control_c, 1, 10, 120
4, 48946, Note_on_c, 1, 71, 0
4, 48946, Control_c, 1, 10, 113
4, 48951, Control_c, 1, 10, 111
4, 48956, Control_c, 1, 10, 110
4, 48962, Control_c, 1, 10, 109
4, 48962, Note_on_c, 1, 73, 67
4, 48973, Note_on_c, 1, 73, 0
4, 48985, Control_c, 1, 10, 108
4, 49000, Control_c, 1, 10, 109
4, 49004, Control_c, 1, 10, 110
4, 49011, Control_c, 1, 10, 127
4, 49011, Control_c, 1, 10, 115
4, 49016, Control_c, 1, 10, 10
4, 49024, Control_c, 1, 10, 16
4, 49029, Control_c, 1, 10, 18
4, 49032, Control_c, 1, 10, 19
4, 49072, Control_c, 1, 10, 18
4, 49077, Control_c, 1, 10, 13
4, 49082, Control_c, 1, 10, 127
4, 49087, Control_c, 1, 10, 115
4, 49092, Control_c, 1, 10, 110
4, 49097, Control_c, 1, 10, 109
4, 49102, Control_c, 1, 10, 108
4, 49120, Control_c, 1, 10, 109
4, 49131, Control_c, 1, 10, 110
4, 49139, Control_c, 1, 10, 111
4, 49142, Control_c, 1, 10, 115
4, 49147, Control_c, 1, 10, 122
4, 49152, Control_c, 1, 10, 0
4, 49157, Control_c, 1, 10, 15
4, 49162, Control_c, 1, 10, 19
4, 49172, Control_c, 1, 10, 20
4, 49178, Note_on_c, 1, 71, 39
4, 49195, Control_c, 1, 10, 19
4, 49201, Note_on_c, 1, 71, 0
4, 49204, Control_c, 1, 10, 12
4, 49204, Control_c, 1, 10, 18
4, 49209, Control_c, 1, 10, 112
4, 49218, Control_c, 1, 10, 106
4, 49218, Note_on_c, 1, 73, 39
4, 49223, Control_c, 1, 10, 105
4, 49232, Note_on_c, 1, 73, 0
4, 49271, Control_c, 1, 10, 104
4, 49272, Control_c, 1, 10, 63
4, 49277, Control_c, 1, 10, 24
4, 49282, Control_c, 1, 10, 23
4, 49287, Control_c, 1, 10, 22
4, 49333, Control_c, 1, 10, 24
4, 49336, Control_c, 1, 10, 101
4, 49341, Control_c, 1, 10, 105
4, 49350, Control_c, 1, 10, 106
4, 49375, Note_on_c, 1, 71, 43
4, 49392, Control_c, 1, 10, 107
4, 49398, Control_c, 1, 10, 106
4, 49404, Note_on_c, 1, 71, 0
4, 49404, Control_c, 1, 10, 21
4, 49417, Note_on_c, 1, 73, 55
4, 49440, Note_on_c, 1, 73, 0
4, 49446, Note_on_c, 1, 71, 33
4, 49466, Note_on_c, 1, 71, 0
4, 49466, Control_c, 1, 10, 23
4, 49471, Control_c, 1, 10, 103
4, 49476, Control_c, 1, 10, 104
4, 49481, Control_c, 1, 10, 105
4, 49481, Note_on_c, 1, 73, 65
4, 49491, Control_c, 1, 10, 106
4, 49497, Note_on_c, 1, 73, 0
4, 49519, Control_c, 1, 10, 107
4, 49524, Control_c, 1, 10, 127
4, 49529, Control_c, 1, 10, 21
4, 49559, Control_c, 1, 10, 20
4, 49591, Control_c, 1, 10, 19
4, 49597, Control_c, 1, 10, 18
4, 49602, Control_c, 1, 10, 10
4, 49607, Control_c, 1, 10, 118
4, 49612, Control_c, 1, 10, 110
4, 49620, Control_c, 1, 10, 108
4, 49625, Control_c, 1, 10, 107
4, 49660, Control_c, 1, 10, 108
4, 49670, Control_c, 1, 10, 109
4, 49675, Control_c, 1, 10, 18
4, 49680, Control_c, 1, 10, 20
4, 49695, Control_c, 1, 10, 19
4, 49708, Note_on_c, 1, 71, 40
4, 49712, Control_c, 1, 10, 20
4, 49729, Note_on_c, 1, 71, 0
4, 49734, Control_c, 1, 10, 17
4, 49739, Control_c, 1, 10, 108
4, 49744, Control_c, 1, 10, 107
4, 49744, Note_on_c, 1, 73, 49
4, 49749, Control_c, 1, 10, 106
4, 49759, Note_on_c, 1, 73, 0
4, 49790, Control_c, 1, 10, 107
4, 49800, Control_c, 1, 10, 124
4, 49800, Control_c, 1, 10, 108
4, 49810, Control_c, 1, 10, 19
4, 49810, Control_c, 1, 10, 17
4, 49815, Control_c, 1, 10, 20
4, 49858, Control_c, 1, 10, 16
4, 49858, Control_c, 1, 10, 19
4, 49863, Control_c, 1, 10, 109
4, 49868, Control_c, 1, 10, 107
4, 49873, Control_c, 1, 10, 106
4, 49910, Note_on_c, 1, 71, 44
4, 49915, Control_c, 1, 10, 107
4, 49926, Control_c, 1, 10, 108
4, 49936, Control_c, 1, 10, 109
4, 49940, Note_on_c, 1, 71, 0
4, 49940, Control_c, 1, 10, 124
4, 49945, Control_c, 1, 10, 16
4, 49950, Control_c, 1, 10, 18
4, 49951, Control_c, 1, 10, 19
4, 49951, Note_on_c, 1, 73, 33
4, 49961, Control_c, 1, 10, 20
4, 49970, Note_on_c, 1, 73, 0
4, 49974, Note_on_c, 1, 71, 43
4, 49987, Control_c, 1, 10, 19
4, 49998, Note_on_c, 1, 71, 0
4, 49998, Control_c, 1, 10, 18
4, 50003, Control_c, 1, 10, 12
4, 50008, Control_c, 1, 10, 111
4, 50012, Control_c, 1, 10, 108
4, 50012, Note_on_c, 1, 73, 50
4, 50022, Control_c, 1, 10, 107
4, 50027, Note_on_c, 1, 73, 0
4, 50047, Control_c, 1, 10, 108
4, 50069, Control_c, 1, 10, 109
4, 50077, Control_c, 1, 10, 110
4, 50082, Control_c, 1, 10, 115
4, 50087, Control_c, 1, 10, 0
4, 50092, Control_c, 1, 10, 15
4, 50097, Control_c, 1, 10, 17
4, 50102, Control_c, 1, 10, 18
4, 50139, Control_c, 1, 10, 17
4, 50146, Control_c, 1, 10, 7
4, 50151, Control_c, 1, 10, 114
4, 50156, Control_c, 1, 10, 109
4, 50161, Control_c, 1, 10, 108
4, 50199, Control_c, 1, 10, 109
4, 50208, Control_c, 1, 10, 111
4, 50213, Control_c, 1, 10, 113
4, 50218, Control_c, 1, 10, 127
4, 50223, Control_c, 1, 10, 6
4, 50228, Control_c, 1, 10, 14
4, 50233, Control_c, 1, 10, 16
4, 50238, Control_c, 1, 10, 17
4, 50243, Note_on_c, 1, 71, 43
4, 50258, Control_c, 1, 10, 18
4, 50270, Note_on_c, 1, 71, 0
4, 50270, Control_c, 1, 10, 17
4, 50275, Control_c, 1, 10, 16
4, 50280, Control_c, 1, 10, 4
4, 50282, Control_c, 1, 10, 115
4, 50282, Note_on_c, 1, 73, 57
4, 50287, Control_c, 1, 10, 110
4, 50298, Note_on_c, 1, 73, 0
4, 50298, Control_c, 1, 10, 109
4, 50328, Control_c, 1, 10, 110
4, 50333, Control_c, 1, 10, 111
4, 50338, Control_c, 1, 10, 112
4, 50343, Control_c, 1, 10, 115
4, 50348, Control_c, 1, 10, 122
4, 50353, Control_c, 1, 10, 0
4, 50358, Control_c, 1, 10, 12
4, 50380, Control_c, 1, 10, 16
4, 50409, Control_c, 1, 10, 12
4, 50414, Control_c, 1, 10, 0
4, 50418, Control_c, 1, 10, 114
4, 50423, Control_c, 1, 10, 110
4, 50428, Control_c, 1, 10, 109
4, 50440, Control_c, 1, 10, 108
4, 50446, Control_c, 1, 10, 109
4, 50446, Note_on_c, 1, 71, 40
4, 50471, Note_on_c, 1, 71, 0
4, 50476, Control_c, 1, 10, 110
4, 50484, Control_c, 1, 10, 114
4, 50484, Note_on_c, 1, 73, 57
4, 50489, Control_c, 1, 10, 0
4, 50494, Control_c, 1, 10, 13
4, 50499, Control_c, 1, 10, 17
4, 50506, Note_on_c, 1, 73, 0
4, 50506, Control_c, 1, 10, 18
4, 50508, Control_c, 1, 10, 19
4, 50512, Note_on_c, 1, 71, 32
4, 50536, Note_on_c, 1, 71, 0
4, 50536, Control_c, 1, 10, 18
4, 50541, Control_c, 1, 10, 17
4, 50549, Control_c, 1, 10, 13
4, 50549, Note_on_c, 1, 73, 70
4, 50554, Control_c, 1, 10, 112
4, 50554, Control_c, 1, 10, 127
4, 50563, Note_on_c, 1, 73, 0
4, 50563, Control_c, 1, 10, 110
4, 50568, Control_c, 1, 10, 109
4, 50577, Control_c, 1, 10, 110
4, 50613, Control_c, 1, 10, 111
4, 50618, Control_c, 1, 10, 114
4, 50623, Control_c, 1, 10, 126
4, 50628, Control_c, 1, 10, 3
4, 50633, Control_c, 1, 10, 13
4, 50639, Control_c, 1, 10, 15
4, 50681, Control_c, 1, 10, 13
4, 50686, Control_c, 1, 10, 0
4, 50691, Control_c, 1, 10, 121
4, 50699, Control_c, 1, 10, 114
4, 50704, Control_c, 1, 10, 112
4, 50710, Control_c, 1, 10, 110
4, 50710, Control_c, 1, 10, 111
4, 50747, Control_c, 1, 10, 111
4, 50750, Control_c, 1, 10, 113
4, 50755, Control_c, 1, 10, 119
4, 50760, Control_c, 1, 10, 0
4, 50765, Control_c, 1, 10, 10
4, 50770, Control_c, 1, 10, 14
4, 50775, Control_c, 1, 10, 16
4, 50775, Note_on_c, 1, 71, 43
4, 50798, Note_on_c, 1, 71, 0
4, 50812, Control_c, 1, 10, 15
4, 50812, Note_on_c, 1, 73, 45
4, 50817, Control_c, 1, 10, 12
4, 50822, Control_c, 1, 10, 0
4, 50826, Note_on_c, 1, 73, 0
4, 50826, Control_c, 1, 10, 119
4, 50831, Control_c, 1, 10, 112
4, 50839, Control_c, 1, 10, 111
4, 50844, Control_c, 1, 10, 110
4, 50876, Control_c, 1, 10, 111
4, 50881, Control_c, 1, 10, 112
4, 50886, Control_c, 1, 10, 114
4, 50891, Control_c, 1, 10, 126
4, 50896, Control_c, 1, 10, 4
4, 50901, Control_c, 1, 10, 14
4, 50906, Control_c, 1, 10, 15
4, 50930, Control_c, 1, 10, 14
4, 50935, Control_c, 1, 10, 12
4, 50940, Control_c, 1, 10, 4
4, 50946, Control_c, 1, 10, 127
4, 50951, Control_c, 1, 10, 116
4, 50956, Control_c, 1, 10, 111
4, 50960, Control_c, 1, 10, 109
4, 50975, Note_on_c, 1, 71, 44
4, 50996, Note_on_c, 1, 71, 0
4, 51001, Control_c, 1, 10, 110
4, 51006, Control_c, 1, 10, 111
4, 51011, Control_c, 1, 10, 113
4, 51013, Control_c, 1, 10, 120
4, 51013, Note_on_c, 1, 73, 78
4, 51018, Control_c, 1, 10, 6
4, 51023, Control_c, 1, 10, 17
4, 51028, Control_c, 1, 10, 19
4, 51032, Note_on_c, 1, 73, 0
4, 51032, Control_c, 1, 10, 20
4, 51041, Note_on_c, 1, 71, 38
4, 51067, Note_on_c, 1, 71, 0
4, 51077, Control_c, 1, 10, 19
4, 51081, Control_c, 1, 10, 0
4, 51081, Note_on_c, 1, 73, 72
4, 51086, Control_c, 1, 10, 107
4, 51091, Control_c, 1, 10, 106
4, 51095, Note_on_c, 1, 73, 0
4, 51095, Control_c, 1, 10, 107
4, 51125, Control_c, 1, 10, 108
4, 51148, Control_c, 1, 10, 109
4, 51153, Control_c, 1, 10, 115
4, 51158, Control_c, 1, 10, 18
4, 51163, Control_c, 1, 10, 20
4, 51202, Control_c, 1, 10, 21
4, 51218, Control_c, 1, 10, 105
4, 51238, Control_c, 1, 10, 106
4, 51241, Control_c, 1, 10, 107
4, 51246, Control_c, 1, 10, 108
4, 51277, Control_c, 1, 10, 109
4, 51282, Control_c, 1, 10, 116
4, 51287, Control_c, 1, 10, 16
4, 51292, Control_c, 1, 10, 19
4, 51302, Note_on_c, 1, 71, 41
4, 51328, Note_on_c, 1, 71, 0
4, 51328, Control_c, 1, 10, 20
4, 51340, Note_on_c, 1, 73, 62
4, 51345, Control_c, 1, 10, 127
4, 51350, Control_c, 1, 10, 106
4, 51354, Note_on_c, 1, 73, 0
4, 51366, Control_c, 1, 10, 107
4, 51371, Control_c, 1, 10, 108
4, 51398, Control_c, 1, 10, 109
4, 51408, Control_c, 1, 10, 110
4, 51413, Control_c, 1, 10, 3
4, 51418, Control_c, 1, 10, 19
4, 51423, Control_c, 1, 10, 20
4, 51461, Control_c, 1, 10, 19
4, 51473, Control_c, 1, 10, 5
4, 51478, Control_c, 1, 10, 108
4, 51483, Control_c, 1, 10, 107
4, 51503, Control_c, 1, 10, 108
4, 51503, Note_on_c, 1, 71, 41
4, 51533, Note_on_c, 1, 71, 0
4, 51540, Control_c, 1, 10, 110
4, 51540, Control_c, 1, 10, 109
4, 51546, Control_c, 1, 10, 113
4, 51546, Note_on_c, 1, 73, 43
4, 51551, Control_c, 1, 10, 2
4, 51556, Control_c, 1, 10, 17
4, 51564, Control_c, 1, 10, 19
4, 51568, Note_on_c, 1, 73, 0
4, 51568, Control_c, 1, 10, 20
4, 51571, Note_on_c, 1, 71, 36
4, 51584, Control_c, 1, 10, 19
4, 51598, Note_on_c, 1, 71, 0
4, 51603, Control_c, 1, 10, 18
4, 51608, Control_c, 1, 10, 15
4, 51611, Control_c, 1, 10, 114
4, 51611, Note_on_c, 1, 73, 85
4, 51616, Control_c, 1, 10, 108
4, 51621, Control_c, 1, 10, 107
4, 51626, Note_on_c, 1, 73, 0
4, 51631, Control_c, 1, 10, 108
4, 51644, Control_c, 1, 10, 109
4, 51666, Control_c, 1, 10, 112
4, 51671, Control_c, 1, 10, 127
4, 51679, Control_c, 1, 10, 14
4, 51684, Control_c, 1, 10, 18
4, 51689, Control_c, 1, 10, 19
4, 51694, Control_c, 1, 10, 20
4, 51730, Control_c, 1, 10, 19
4, 51732, Control_c, 1, 10, 13
4, 51737, Control_c, 1, 10, 110
4, 51742, Control_c, 1, 10, 107
4, 51768, Control_c, 1, 10, 108
4, 51778, Control_c, 1, 10, 109
4, 51789, Control_c, 1, 10, 110
4, 51794, Control_c, 1, 10, 111
4, 51799, Control_c, 1, 10, 113
4, 51803, Control_c, 1, 10, 120
4, 51805, Control_c, 1, 10, 127
4, 51810, Control_c, 1, 10, 11
4, 51820, Control_c, 1, 10, 19
4, 51820, Control_c, 1, 10, 17
4, 51825, Control_c, 1, 10, 20
4, 51840, Note_on_c, 1, 71, 46
4, 51856, Control_c, 1, 10, 19
4, 51864, Note_on_c, 1, 71, 0
4, 51864, Control_c, 1, 10, 127
4, 51864, Control_c, 1, 10, 17
4, 51874, Control_c, 1, 10, 108
4, 51877, Control_c, 1, 10, 107
4, 51877, Note_on_c, 1, 73, 70
4, 51882, Control_c, 1, 10, 106
4, 51890, Note_on_c, 1, 73, 0
4, 51890, Control_c, 1, 10, 107
4, 51911, Control_c, 1, 10, 108
4, 51929, Control_c, 1, 10, 109
4, 51934, Control_c, 1, 10, 110
4, 51939, Control_c, 1, 10, 113
4, 51944, Control_c, 1, 10, 127
4, 51949, Control_c, 1, 10, 14
4, 51954, Control_c, 1, 10, 18
4, 51959, Control_c, 1, 10, 19
4, 52001, Control_c, 1, 10, 20
4, 52006, Control_c, 1, 10, 19
4, 52012, Control_c, 1, 10, 111
4, 52012, Control_c, 1, 10, 15
4, 52017, Control_c, 1, 10, 107
4, 52022, Control_c, 1, 10, 106
4, 52027, Control_c, 1, 10, 107
4, 52040, Control_c, 1, 10, 108
4, 52043, Note_on_c, 1, 71, 36
4, 52063, Control_c, 1, 10, 109
4, 52068, Note_on_c, 1, 71, 0
4, 52068, Control_c, 1, 10, 111
4, 52075, Control_c, 1, 10, 112
4, 52080, Control_c, 1, 10, 120
4, 52082, Control_c, 1, 10, 3
4, 52082, Note_on_c, 1, 73, 66
4, 52087, Control_c, 1, 10, 16
4, 52093, Control_c, 1, 10, 18
4, 52102, Note_on_c, 1, 73, 0
4, 52102, Control_c, 1, 10, 19
4, 52109, Note_on_c, 1, 71, 32
4, 52133, Note_on_c, 1, 71, 0
4, 52138, Control_c, 1, 10, 18
4, 52146, Control_c, 1, 10, 16
4, 52146, Note_on_c, 1, 73, 66
4, 52151, Control_c, 1, 10, 0
4, 52156, Control_c, 1, 10, 110
4, 52160, Note_on_c, 1, 73, 0
4, 52160, Control_c, 1, 10, 109
4, 52194, Control_c, 1, 10, 110
4, 52199, Control_c, 1, 10, 111
4, 52204, Control_c, 1, 10, 115
4, 52209, Control_c, 1, 10, 127
4, 52218, Control_c, 1, 10, 12
4, 52223, Control_c, 1, 10, 17
4, 52228, Control_c, 1, 10, 18
4, 52238, Control_c, 1, 10, 19
4, 52263, Control_c, 1, 10, 18
4, 52268, Control_c, 1, 10, 17
4, 52270, Control_c, 1, 10, 14
4, 52277, Control_c, 1, 10, 0
4, 52282, Control_c, 1, 10, 115
4, 52287, Control_c, 1, 10, 111
4, 52292, Control_c, 1, 10, 109
4, 52307, Control_c, 1, 10, 110
4, 52334, Control_c, 1, 10, 111
4, 52339, Control_c, 1, 10, 112
4, 52344, Control_c, 1, 10, 120
4, 52349, Control_c, 1, 10, 8
4, 52354, Control_c, 1, 10, 17
4, 52359, Control_c, 1, 10, 18
4, 52374, Note_on_c, 1, 71, 46
4, 52390, Control_c, 1, 10, 19
4, 52395, Control_c, 1, 10, 18
4, 52400, Control_c, 1, 10, 17
4, 52404, Note_on_c, 1, 71, 0
4, 52404, Control_c, 1, 10, 127
4, 52409, Control_c, 1, 10, 109
4, 52416, Control_c, 1, 10, 108
4, 52416, Note_on_c, 1, 73, 44
4, 52427, Note_on_c, 1, 73, 0
4, 52440, Control_c, 1, 10, 109
4, 52464, Control_c, 1, 10, 110
4, 52469, Control_c, 1, 10, 111
4, 52474, Control_c, 1, 10, 113
4, 52479, Control_c, 1, 10, 125
4, 52484, Control_c, 1, 10, 8
4, 52489, Control_c, 1, 10, 17
4, 52494, Control_c, 1, 10, 19
4, 52543, Control_c, 1, 10, 17
4, 52548, Control_c, 1, 10, 0
4, 52553, Control_c, 1, 10, 113
4, 52558, Control_c, 1, 10, 111
4, 52563, Control_c, 1, 10, 110
4, 52571, Control_c, 1, 10, 109
4, 52611, Control_c, 1, 10, 110
4, 52616, Control_c, 1, 10, 112
4, 52621, Control_c, 1, 10, 118
4, 52626, Control_c, 1, 10, 0
4, 52627, Control_c, 1, 10, 13
4, 52632, Control_c, 1, 10, 16
4, 52638, Control_c, 1, 10, 18
4, 52671, Control_c, 1, 10, 19
4, 52681, Control_c, 1, 10, 17
4, 52686, Control_c, 1, 10, 12
4, 52691, Control_c, 1, 10, 119
4, 52696, Control_c, 1, 10, 111
4, 52701, Control_c, 1, 10, 110
4, 52704, Control_c, 1, 10, 109
4, 52711, Control_c, 1, 10, 110
4, 52742, Control_c, 1, 10, 112
4, 52747, Control_c, 1, 10, 116
4, 52752, Control_c, 1, 10, 0
4, 52757, Control_c, 1, 10, 13
4, 52762, Control_c, 1, 10, 17
4, 52767, Control_c, 1, 10, 18
4, 52804, Control_c, 1, 10, 17
4, 52805, Control_c, 1, 10, 15
4, 52811, Control_c, 1, 10, 0
4, 52816, Control_c, 1, 10, 117
4, 52821, Control_c, 1, 10, 111
4, 52826, Control_c, 1, 10, 110
4, 52846, Control_c, 1, 10, 111
4, 52863, Control_c, 1, 10, 112
4, 52877, Control_c, 1, 10, 113
4, 52882, Control_c, 1, 10, 116
4, 52887, Control_c, 1, 10, 127
4, 52892, Control_c, 1, 10, 2
4, 52897, Control_c, 1, 10, 13
4, 52902, Control_c, 1, 10, 15
4, 52902, Note_on_c, 1, 71, 53
4, 52908, Control_c, 1, 10, 16
4, 52929, Control_c, 1, 10, 17
4, 52935, Note_on_c, 1, 71, 0
4, 52942, Note_on_c, 1, 73, 45
4, 52947, Control_c, 1, 10, 15
4, 52952, Control_c, 1, 10, 0
4, 52956, Note_on_c, 1, 73, 0
4, 52956, Control_c, 1, 10, 118
4, 52961, Control_c, 1, 10, 112
4, 52966, Control_c, 1, 10, 110
4, 53002, Control_c, 1, 10, 112
4, 53007, Control_c, 1, 10, 116
4, 53012, Control_c, 1, 10, 127
4, 53022, Control_c, 1, 10, 13
4, 53022, Control_c, 1, 10, 0
4, 53027, Control_c, 1, 10, 16
4, 53032, Control_c, 1, 10, 17
4, 53068, Control_c, 1, 10, 16
4, 53073, Control_c, 1, 10, 15
4, 53078, Control_c, 1, 10, 13
4, 53082, Control_c, 1, 10, 2
4, 53087, Control_c, 1, 10, 123
4, 53092, Control_c, 1, 10, 114
4, 53097, Control_c, 1, 10, 112
4, 53100, Control_c, 1, 10, 111
4, 53105, Control_c, 1, 10, 112
4, 53131, Control_c, 1, 10, 114
4, 53136, Control_c, 1, 10, 117
4, 53141, Control_c, 1, 10, 121
4, 53145, Control_c, 1, 10, 127
4, 53150, Control_c, 1, 10, 2
4, 53155, Control_c, 1, 10, 12
4, 53162, Control_c, 1, 10, 16
4, 53167, Control_c, 1, 10, 17
4, 53206, Control_c, 1, 10, 18
4, 53221, Control_c, 1, 10, 17
4, 53226, Control_c, 1, 10, 11
4, 53231, Control_c, 1, 10, 120
4, 53237, Control_c, 1, 10, 113
4, 53242, Control_c, 1, 10, 111
4, 53251, Control_c, 1, 10, 112
4, 53285, Control_c, 1, 10, 114
4, 53290, Control_c, 1, 10, 117
4, 53295, Control_c, 1, 10, 127
4, 53300, Control_c, 1, 10, 13
4, 53300, Control_c, 1, 10, 5
4, 53309, Control_c, 1, 10, 16
4, 53312, Control_c, 1, 10, 17
4, 53328, Control_c, 1, 10, 18
4, 53348, Control_c, 1, 10, 19
4, 53354, Control_c, 1, 10, 18
4, 53356, Control_c, 1, 10, 16
4, 53361, Control_c, 1, 10, 1
4, 53366, Control_c, 1, 10, 112
4, 53370, Control_c, 1, 10, 110
4, 53378, Control_c, 1, 10, 111
4, 53402, Control_c, 1, 10, 113
4, 53407, Control_c, 1, 10, 116
4, 53412, Control_c, 1, 10, 0
4, 53412, Control_c, 1, 10, 127
4, 53422, Control_c, 1, 10, 15
4, 53422, Control_c, 1, 10, 10
4, 53432, Control_c, 1, 10, 18
4, 53432, Control_c, 1, 10, 17
4, 53448, Note_on_c, 1, 71, 42
4, 53471, Note_on_c, 1, 71, 0
4, 53471, Control_c, 1, 10, 17
4, 53476, Control_c, 1, 10, 16
4, 53481, Control_c, 1, 10, 7
4, 53489, Control_c, 1, 10, 122
4, 53489, Note_on_c, 1, 73, 50
4, 53494, Control_c, 1, 10, 112
4, 53499, Control_c, 1, 10, 110
4, 53502, Note_on_c, 1, 73, 0
4, 53530, Control_c, 1, 10, 111
4, 53535, Control_c, 1, 10, 113
4, 53540, Control_c, 1, 10, 127
4, 53545, Control_c, 1, 10, 2
4, 53550, Control_c, 1, 10, 12
4, 53555, Control_c, 1, 10, 14
4, 53565, Control_c, 1, 10, 16
4, 53570, Control_c, 1, 10, 17
4, 53601, Control_c, 1, 10, 16
4, 53606, Control_c, 1, 10, 13
4, 53611, Control_c, 1, 10, 0
4, 53616, Control_c, 1, 10, 124
4, 53619, Control_c, 1, 10, 113
4, 53624, Control_c, 1, 10, 111
4, 53629, Control_c, 1, 10, 110
4, 53635, Control_c, 1, 10, 109
4, 53641, Note_on_c, 1, 71, 41
4, 53645, Control_c, 1, 10, 110
4, 53667, Control_c, 1, 10, 111
4, 53672, Control_c, 1, 10, 112
4, 53676, Note_on_c, 1, 71, 0
4, 53676, Control_c, 1, 10, 115
4, 53681, Control_c, 1, 10, 125
4, 53686, Control_c, 1, 10, 0
4, 53690, Control_c, 1, 10, 8
4, 53690, Note_on_c, 1, 73, 29
4, 53695, Control_c, 1, 10, 13
4, 53700, Control_c, 1, 10, 16
4, 53706, Note_on_c, 1, 73, 0
4, 53707, Control_c, 1, 10, 17
4, 53709, Control_c, 1, 10, 18
4, 53709, Note_on_c, 1, 71, 40
4, 53733, Note_on_c, 1, 71, 0
4, 53739, Control_c, 1, 10, 19
4, 53749, Note_on_c, 1, 73, 50
4, 53759, Control_c, 1, 10, 18
4, 53764, Note_on_c, 1, 73, 0
4, 53764, Control_c, 1, 10, 13
4, 53771, Control_c, 1, 10, 117
4, 53778, Control_c, 1, 10, 111
4, 53816, Control_c, 1, 10, 112
4, 53821, Control_c, 1, 10, 117
4, 53826, Control_c, 1, 10, 0
4, 53831, Control_c, 1, 10, 16
4, 53831, Control_c, 1, 10, 16
4, 53836, Control_c, 1, 10, 18
4, 53836, Control_c, 1, 10, 18
4, 53847, Note_on_c, 1, 74, 55
4, 53862, Control_c, 1, 10, 19
4, 53862, Control_c, 1, 10, 19
4, 53876, Note_on_c, 1, 74, 0
4, 53892, Control_c, 1, 10, 17
4, 53892, Control_c, 1, 10, 17
4, 53898, Control_c, 1, 10, 0
4, 53898, Control_c, 1, 10, 0
4, 53903, Control_c, 1, 10, 112
4, 53903, Control_c, 1, 10, 112
4, 53914, Control_c, 1, 10, 113
4, 53914, Control_c, 1, 10, 113
4, 53919, Control_c, 1, 10, 112
4, 53919, Control_c, 1, 10, 112
4, 53936, Control_c, 1, 10, 113
4, 53936, Control_c, 1, 10, 113
4, 53946, Control_c, 1, 10, 119
4, 53946, Control_c, 1, 10, 119
4, 53951, Control_c, 1, 10, 0
4, 53951, Control_c, 1, 10, 0
4, 53956, Control_c, 1, 10, 13
4, 53956, Control_c, 1, 10, 13
4, 53961, Control_c, 1, 10, 17
4, 53961, Control_c, 1, 10, 17
4, 53966, Control_c, 1, 10, 18
4, 53966, Control_c, 1, 10, 18
4, 53979, Note_on_c, 1, 71, 40
4, 54001, Note_on_c, 1, 71, 0
4, 54001, Control_c, 1, 7, 126
4, 54016, Control_c, 1, 7, 125
4, 54016, Control_c, 1, 10, 19
4, 54016, Control_c, 1, 10, 18
4, 54016, Control_c, 1, 10, 19
4, 54022, Control_c, 1, 10, 17
4, 54022, Control_c, 1, 10, 17
4, 54022, Note_on_c, 1, 73, 47
4, 54027, Control_c, 1, 10, 14
4, 54027, Control_c, 1, 10, 14
4, 54035, Note_on_c, 1, 73, 0
4, 54035, Control_c, 1, 10, 0
4, 54035, Control_c, 1, 10, 0
4, 54040, Control_c, 1, 10, 118
4, 54040, Control_c, 1, 7, 124
4, 54040, Control_c, 1, 10, 118
4, 54045, Control_c, 1, 10, 117
4, 54045, Control_c, 1, 10, 117
4, 54048, Control_c, 1, 7, 122
4, 54066, Control_c, 1, 7, 120
4, 54066, Control_c, 1, 10, 118
4, 54066, Control_c, 1, 10, 118
4, 54071, Control_c, 1, 10, 121
4, 54072, Control_c, 1, 10, 121
4, 54076, Control_c, 1, 10, 125
4, 54076, Control_c, 1, 10, 125
4, 54081, Control_c, 1, 7, 119
4, 54081, Control_c, 1, 10, 0
4, 54081, Control_c, 1, 10, 0
4, 54086, Control_c, 1, 10, 8
4, 54086, Control_c, 1, 10, 8
4, 54091, Control_c, 1, 10, 14
4, 54091, Control_c, 1, 10, 14
4, 54096, Control_c, 1, 10, 17
4, 54096, Control_c, 1, 10, 17
4, 54101, Control_c, 1, 7, 118
4, 54101, Control_c, 1, 10, 18
4, 54101, Control_c, 1, 10, 18
4, 54137, Control_c, 1, 7, 117
4, 54147, Control_c, 1, 10, 19
4, 54147, Control_c, 1, 10, 19
4, 54154, Control_c, 1, 10, 18
4, 54154, Control_c, 1, 10, 17
4, 54154, Control_c, 1, 10, 18
4, 54164, Control_c, 1, 10, 15
4, 54164, Control_c, 1, 10, 0
4, 54164, Control_c, 1, 10, 15
4, 54171, Control_c, 1, 10, 121
4, 54171, Control_c, 1, 7, 115
4, 54171, Control_c, 1, 10, 121
4, 54178, Control_c, 1, 10, 117
4, 54179, Control_c, 1, 10, 117
4, 54181, Control_c, 1, 10, 116
4, 54181, Control_c, 1, 10, 116
4, 54181, Note_on_c, 1, 71, 42
4, 54186, Control_c, 1, 7, 113
4, 54209, Note_on_c, 1, 71, 0
4, 54214, Control_c, 1, 10, 120
4, 54214, Control_c, 1, 10, 120
4, 54219, Control_c, 1, 7, 112
4, 54221, Control_c, 1, 10, 0
4, 54221, Control_c, 1, 10, 0
4, 54221, Note_on_c, 1, 73, 40
4, 54226, Control_c, 1, 10, 14
4, 54226, Control_c, 1, 10, 14
4, 54231, Control_c, 1, 10, 17
4, 54231, Control_c, 1, 10, 17
4, 54236, Note_on_c, 1, 73, 0
4, 54236, Control_c, 1, 10, 18
4, 54236, Control_c, 1, 10, 18
4, 54246, Note_on_c, 1, 71, 44
4, 54270, Note_on_c, 1, 71, 0
4, 54283, Control_c, 1, 10, 19
4, 54283, Control_c, 1, 10, 19
4, 54283, Note_on_c, 1, 73, 72
4, 54288, Control_c, 1, 10, 18
4, 54288, Control_c, 1, 10, 18
4, 54293, Control_c, 1, 10, 10
4, 54293, Control_c, 1, 10, 10
4, 54298, Note_on_c, 1, 73, 0
4, 54298, Control_c, 1, 10, 113
4, 54298, Control_c, 1, 10, 113
4, 54303, Control_c, 1, 10, 110
4, 54303, Control_c, 1, 10, 110
4, 54308, Control_c, 1, 7, 111
4, 54313, Control_c, 1, 10, 111
4, 54313, Control_c, 1, 10, 111
4, 54333, Control_c, 1, 10, 112
4, 54333, Control_c, 1, 10, 112
4, 54335, Control_c, 1, 10, 114
4, 54335, Control_c, 1, 10, 114
4, 54340, Control_c, 1, 10, 115
4, 54340, Control_c, 1, 10, 115
4, 54346, Control_c, 1, 10, 117
4, 54346, Control_c, 1, 10, 117
4, 54353, Control_c, 1, 10, 127
4, 54353, Control_c, 1, 10, 127
4, 54354, Control_c, 1, 10, 8
4, 54354, Control_c, 1, 10, 8
4, 54359, Control_c, 1, 10, 15
4, 54359, Control_c, 1, 10, 15
4, 54368, Control_c, 1, 10, 17
4, 54368, Control_c, 1, 10, 17
4, 54373, Control_c, 1, 10, 18
4, 54373, Control_c, 1, 10, 18
4, 54378, Control_c, 1, 10, 19
4, 54378, Control_c, 1, 10, 19
4, 54397, Control_c, 1, 7, 110
4, 54431, Control_c, 1, 10, 10
4, 54431, Control_c, 1, 10, 10
4, 54436, Control_c, 1, 10, 111
4, 54436, Control_c, 1, 10, 111
4, 54442, Control_c, 1, 10, 110
4, 54442, Control_c, 1, 10, 110
4, 54446, Control_c, 1, 7, 108
4, 54446, Control_c, 1, 10, 109
4, 54446, Control_c, 1, 10, 109
4, 54451, Control_c, 1, 10, 110
4, 54451, Control_c, 1, 10, 110
4, 54462, Control_c, 1, 10, 111
4, 54462, Control_c, 1, 10, 111
4, 54466, Control_c, 1, 10, 112
4, 54466, Control_c, 1, 10, 112
4, 54471, Control_c, 1, 10, 113
4, 54471, Control_c, 1, 10, 113
4, 54474, Control_c, 1, 10, 120
4, 54474, Control_c, 1, 10, 120
4, 54479, Control_c, 1, 10, 0
4, 54479, Control_c, 1, 10, 0
4, 54484, Control_c, 1, 10, 13
4, 54484, Control_c, 1, 10, 13
4, 54489, Control_c, 1, 10, 16
4, 54489, Control_c, 1, 10, 16
4, 54494, Control_c, 1, 10, 18
4, 54494, Control_c, 1, 10, 18
4, 54499, Control_c, 1, 10, 19
4, 54499, Control_c, 1, 10, 19
4, 54515, Note_on_c, 1, 71, 29
4, 54532, Note_on_c, 1, 71, 0
4, 54532, Control_c, 1, 7, 106
4, 54547, Control_c, 1, 10, 20
4, 54547, Control_c, 1, 10, 20
4, 54552, Control_c, 1, 10, 19
4, 54552, Control_c, 1, 10, 19
4, 54552, Note_on_c, 1, 73, 34
4, 54557, Control_c, 1, 10, 20
4, 54557, Control_c, 1, 10, 20
4, 54564, Note_on_c, 1, 73, 0
4, 54564, Control_c, 1, 10, 19
4, 54564, Control_c, 1, 10, 13
4, 54564, Control_c, 1, 10, 19
4, 54569, Control_c, 1, 10, 115
4, 54569, Control_c, 1, 10, 115
4, 54577, Control_c, 1, 10, 110
4, 54577, Control_c, 1, 10, 110
4, 54583, Control_c, 1, 10, 109
4, 54583, Control_c, 1, 10, 109
4, 54593, Control_c, 1, 10, 110
4, 54593, Control_c, 1, 10, 110
4, 54599, Control_c, 1, 7, 105
4, 54599, Control_c, 1, 10, 111
4, 54599, Control_c, 1, 10, 111
4, 54604, Control_c, 1, 10, 118
4, 54604, Control_c, 1, 10, 118
4, 54609, Control_c, 1, 10, 0
4, 54609, Control_c, 1, 10, 0
4, 54614, Control_c, 1, 10, 8
4, 54614, Control_c, 1, 10, 8
4, 54619, Control_c, 1, 10, 16
4, 54619, Control_c, 1, 10, 16
4, 54624, Control_c, 1, 10, 18
4, 54624, Control_c, 1, 10, 18
4, 54629, Control_c, 1, 10, 19
4, 54629, Control_c, 1, 10, 19
4, 54656, Control_c, 1, 7, 103
4, 54701, Control_c, 1, 10, 16
4, 54701, Control_c, 1, 10, 16
4, 54703, Control_c, 1, 10, 112
4, 54703, Control_c, 1, 10, 112
4, 54708, Control_c, 1, 10, 109
4, 54708, Control_c, 1, 10, 109
4, 54717, Control_c, 1, 7, 101
4, 54722, Control_c, 1, 10, 110
4, 54722, Control_c, 1, 10, 110
4, 54741, Control_c, 1, 10, 111
4, 54741, Control_c, 1, 10, 111
4, 54746, Control_c, 1, 7, 100
4, 54751, Control_c, 1, 10, 114
4, 54751, Control_c, 1, 10, 114
4, 54756, Control_c, 1, 10, 125
4, 54756, Control_c, 1, 10, 125
4, 54761, Control_c, 1, 10, 8
4, 54761, Control_c, 1, 10, 8
4, 54766, Control_c, 1, 10, 15
4, 54766, Control_c, 1, 10, 15
4, 54771, Control_c, 1, 10, 17
4, 54771, Control_c, 1, 10, 17
4, 54776, Control_c, 1, 10, 18
4, 54776, Control_c, 1, 10, 18
4, 54808, Control_c, 1, 7, 99
4, 54813, Control_c, 1, 10, 19
4, 54813, Control_c, 1, 10, 19
4, 54823, Control_c, 1, 10, 17
4, 54823, Control_c, 1, 10, 17
4, 54828, Control_c, 1, 10, 0
4, 54828, Control_c, 1, 10, 0
4, 54833, Control_c, 1, 10, 110
4, 54833, Control_c, 1, 10, 110
4, 54838, Control_c, 1, 10, 108
4, 54838, Control_c, 1, 10, 108
4, 54850, Control_c, 1, 10, 109
4, 54850, Control_c, 1, 10, 109
4, 54861, Control_c, 1, 7, 98
4, 54870, Control_c, 1, 10, 110
4, 54870, Control_c, 1, 10, 110
4, 54875, Control_c, 1, 10, 111
4, 54875, Control_c, 1, 10, 111
4, 54880, Control_c, 1, 10, 114
4, 54880, Control_c, 1, 10, 114
4, 54885, Control_c, 1, 10, 127
4, 54885, Control_c, 1, 10, 127
4, 54888, Control_c, 1, 10, 4
4, 54888, Control_c, 1, 10, 4
4, 54893, Control_c, 1, 10, 15
4, 54893, Control_c, 1, 10, 15
4, 54898, Control_c, 1, 10, 17
4, 54898, Control_c, 1, 10, 17
4, 54903, Control_c, 1, 10, 18
4, 54903, Control_c, 1, 10, 18
4, 54911, Control_c, 1, 7, 96
4, 54937, Control_c, 1, 7, 94
4, 54951, Control_c, 1, 10, 17
4, 54951, Control_c, 1, 10, 17
4, 54956, Control_c, 1, 7, 93
4, 54956, Control_c, 1, 10, 9
4, 54956, Control_c, 1, 10, 9
4, 54961, Control_c, 1, 10, 124
4, 54961, Control_c, 1, 10, 124
4, 54966, Control_c, 1, 10, 112
4, 54966, Control_c, 1, 10, 112
4, 54971, Control_c, 1, 10, 111
4, 54971, Control_c, 1, 10, 111
4, 55014, Control_c, 1, 10, 115
4, 55014, Control_c, 1, 10, 115
4, 55019, Control_c, 1, 10, 127
4, 55019, Control_c, 1, 10, 127
4, 55024, Control_c, 1, 7, 92
4, 55024, Control_c, 1, 10, 8
4, 55024, Control_c, 1, 10, 8
4, 55029, Control_c, 1, 10, 15
4, 55029, Control_c, 1, 10, 15
4, 55034, Control_c, 1, 10, 17
4, 55034, Control_c, 1, 10, 17
4, 55040, Control_c, 1, 10, 18
4, 55040, Control_c, 1, 10, 18
4, 55048, Note_on_c, 1, 71, 37
4, 55064, Control_c, 1, 7, 91
4, 55077, Note_on_c, 1, 71, 0
4, 55089, Note_on_c, 1, 73, 28
4, 55094, Control_c, 1, 10, 16
4, 55094, Control_c, 1, 10, 16
4, 55099, Control_c, 1, 10, 4
4, 55099, Control_c, 1, 10, 4
4, 55100, Note_on_c, 1, 73, 0
4, 55100, Control_c, 1, 10, 113
4, 55100, Control_c, 1, 10, 113
4, 55105, Control_c, 1, 10, 110
4, 55105, Control_c, 1, 10, 110
4, 55119, Control_c, 1, 10, 111
4, 55119, Control_c, 1, 10, 111
4, 55137, Control_c, 1, 7, 89
4, 55147, Control_c, 1, 10, 113
4, 55147, Control_c, 1, 10, 113
4, 55152, Control_c, 1, 10, 119
4, 55152, Control_c, 1, 10, 119
4, 55157, Control_c, 1, 10, 0
4, 55157, Control_c, 1, 10, 0
4, 55162, Control_c, 1, 10, 10
4, 55162, Control_c, 1, 10, 10
4, 55167, Control_c, 1, 10, 15
4, 55167, Control_c, 1, 10, 15
4, 55172, Control_c, 1, 7, 87
4, 55172, Control_c, 1, 10, 17
4, 55172, Control_c, 1, 10, 17
4, 55176, Control_c, 1, 10, 18
4, 55176, Control_c, 1, 10, 18
4, 55216, Control_c, 1, 10, 19
4, 55216, Control_c, 1, 10, 19
4, 55228, Control_c, 1, 7, 86
4, 55235, Control_c, 1, 10, 17
4, 55235, Control_c, 1, 10, 17
4, 55239, Control_c, 1, 10, 8
4, 55239, Control_c, 1, 10, 8
4, 55246, Control_c, 1, 10, 116
4, 55246, Control_c, 1, 10, 116
4, 55251, Control_c, 1, 10, 113
4, 55251, Control_c, 1, 10, 113
4, 55260, Control_c, 1, 10, 114
4, 55260, Control_c, 1, 7, 85
4, 55260, Control_c, 1, 10, 114
4, 55270, Control_c, 1, 10, 115
4, 55270, Control_c, 1, 10, 115
4, 55275, Control_c, 1, 10, 119
4, 55275, Control_c, 1, 10, 119
4, 55280, Control_c, 1, 10, 127
4, 55280, Control_c, 1, 10, 127
4, 55286, Control_c, 1, 10, 0
4, 55286, Control_c, 1, 10, 0
4, 55291, Control_c, 1, 10, 11
4, 55291, Control_c, 1, 10, 11
4, 55296, Control_c, 1, 10, 15
4, 55296, Control_c, 1, 10, 15
4, 55302, Control_c, 1, 10, 16
4, 55302, Control_c, 1, 10, 16
4, 55307, Control_c, 1, 10, 17
4, 55307, Control_c, 1, 10, 17
4, 55315, Control_c, 1, 10, 18
4, 55315, Control_c, 1, 10, 18
4, 55329, Control_c, 1, 7, 84
4, 55359, Control_c, 1, 10, 17
4, 55359, Control_c, 1, 10, 17
4, 55364, Control_c, 1, 10, 16
4, 55364, Control_c, 1, 10, 16
4, 55369, Control_c, 1, 10, 7
4, 55369, Control_c, 1, 10, 7
4, 55374, Control_c, 1, 10, 123
4, 55374, Control_c, 1, 10, 123
4, 55379, Control_c, 1, 10, 113
4, 55379, Control_c, 1, 10, 113
4, 55384, Control_c, 1, 10, 112
4, 55384, Control_c, 1, 10, 112
4, 55389, Control_c, 1, 10, 111
4, 55389, Control_c, 1, 10, 111
4, 55396, Control_c, 1, 7, 82
4, 55420, Control_c, 1, 10, 115
4, 55420, Control_c, 1, 10, 0
4, 55420, Control_c, 1, 10, 115
4, 55425, Control_c, 1, 7, 80
4, 55430, Control_c, 1, 10, 13
4, 55430, Control_c, 1, 10, 13
4, 55434, Control_c, 1, 10, 17
4, 55434, Control_c, 1, 10, 17
4, 55440, Control_c, 1, 10, 18
4, 55440, Control_c, 1, 10, 18
4, 55461, Control_c, 1, 7, 79
4, 55475, Control_c, 1, 10, 19
4, 55475, Control_c, 1, 10, 19
4, 55491, Control_c, 1, 10, 18
4, 55491, Control_c, 1, 10, 18
4, 55496, Control_c, 1, 7, 78
4, 55496, Control_c, 1, 10, 13
4, 55496, Control_c, 1, 10, 13
4, 55501, Control_c, 1, 10, 115
4, 55501, Control_c, 1, 10, 115
4, 55507, Control_c, 1, 10, 109
4, 55507, Control_c, 1, 10, 109
4, 55512, Control_c, 1, 10, 110
4, 55512, Control_c, 1, 10, 110
4, 55522, Control_c, 1, 10, 111
4, 55522, Control_c, 1, 10, 111
4, 55525, Control_c, 1, 7, 77
4, 55542, Control_c, 1, 10, 113
4, 55542, Control_c, 1, 10, 113
4, 55547, Control_c, 1, 10, 123
4, 55547, Control_c, 1, 10, 123
4, 55552, Control_c, 1, 7, 75
4, 55552, Control_c, 1, 10, 0
4, 55552, Control_c, 1, 10, 0
4, 55557, Control_c, 1, 10, 15
4, 55557, Control_c, 1, 10, 15
4, 55562, Control_c, 1, 10, 18
4, 55562, Control_c, 1, 10, 18
4, 55571, Control_c, 1, 10, 19
4, 55571, Control_c, 1, 10, 19
4, 55576, Note_on_c, 1, 71, 37
4, 55581, Control_c, 1, 7, 73
4, 55606, Note_on_c, 1, 71, 0
4, 55631, Control_c, 1, 10, 16
4, 55631, Control_c, 1, 10, 16
4, 55636, Control_c, 1, 10, 0
4, 55636, Control_c, 1, 10, 0
4, 55643, Control_c, 1, 7, 72
4, 55643, Control_c, 1, 10, 113
4, 55643, Control_c, 1, 10, 113
4, 55653, Control_c, 1, 10, 114
4, 55653, Control_c, 1, 10, 114
4, 55656, Control_c, 1, 7, 71
4, 55664, Control_c, 1, 10, 115
4, 55664, Control_c, 1, 10, 115
4, 55674, Control_c, 1, 10, 116
4, 55674, Control_c, 1, 10, 119
4, 55674, Control_c, 1, 10, 116
4, 55679, Control_c, 1, 10, 122
4, 55679, Control_c, 1, 10, 122
4, 55684, Control_c, 1, 7, 70
4, 55684, Control_c, 1, 10, 125
4, 55684, Control_c, 1, 10, 125
4, 55694, Control_c, 1, 10, 0
4, 55694, Control_c, 1, 10, 12
4, 55694, Control_c, 1, 10, 0
4, 55699, Control_c, 1, 10, 16
4, 55699, Control_c, 1, 10, 16
4, 55708, Control_c, 1, 10, 18
4, 55708, Control_c, 1, 10, 18
4, 55718, Control_c, 1, 10, 19
4, 55718, Control_c, 1, 10, 19
4, 55736, Control_c, 1, 7, 68
4, 55766, Control_c, 1, 10, 18
4, 55766, Control_c, 1, 10, 18
4, 55767, Control_c, 1, 7, 66
4, 55769, Control_c, 1, 10, 12
4, 55769, Control_c, 1, 10, 12
4, 55776, Control_c, 1, 10, 110
4, 55776, Control_c, 1, 10, 110
4, 55778, Control_c, 1, 10, 108
4, 55779, Control_c, 1, 10, 108
4, 55784, Control_c, 1, 7, 65
4, 55791, Control_c, 1, 7, 64
4, 55796, Control_c, 1, 7, 63
4, 55814, Control_c, 1, 10, 109
4, 55814, Control_c, 1, 10, 109
4, 55819, Control_c, 1, 10, 111
4, 55819, Control_c, 1, 10, 111
4, 55824, Control_c, 1, 7, 61
4, 55824, Control_c, 1, 10, 124
4, 55824, Control_c, 1, 10, 124
4, 55834, Control_c, 1, 10, 15
4, 55834, Control_c, 1, 10, 15
4, 55835, Control_c, 1, 10, 18
4, 55835, Control_c, 1, 10, 18
4, 55842, Control_c, 1, 10, 19
4, 55842, Control_c, 1, 10, 19
4, 55873, Control_c, 1, 10, 20
4, 55873, Control_c, 1, 10, 20
4, 55898, Control_c, 1, 10, 19
4, 55898, Control_c, 1, 10, 19
4, 55903, Control_c, 1, 10, 8
4, 55903, Control_c, 1, 10, 8
4, 55905, Control_c, 1, 10, 109
4, 55905, Control_c, 1, 7, 60
4, 55905, Control_c, 1, 10, 109
4, 55954, Control_c, 1, 10, 110
4, 55954, Control_c, 1, 10, 110
4, 55959, Control_c, 1, 10, 111
4, 55959, Control_c, 1, 10, 111
4, 55964, Control_c, 1, 7, 59
4, 55964, Control_c, 1, 10, 127
4, 55964, Control_c, 1, 10, 127
4, 55969, Control_c, 1, 10, 14
4, 55969, Control_c, 1, 10, 14
4, 55974, Control_c, 1, 10, 17
4, 55974, Control_c, 1, 10, 17
4, 55975, Control_c, 1, 10, 18
4, 55975, Control_c, 1, 10, 18
4, 55980, Control_c, 1, 10, 19
4, 55980, Control_c, 1, 10, 19
4, 56030, Control_c, 1, 10, 18
4, 56030, Control_c, 1, 10, 18
4, 56035, Control_c, 1, 10, 10
4, 56035, Control_c, 1, 10, 10
4, 56041, Control_c, 1, 10, 110
4, 56041, Control_c, 1, 10, 110
4, 56045, Control_c, 1, 10, 109
4, 56045, Control_c, 1, 10, 109
4, 56058, Control_c, 1, 10, 108
4, 56058, Control_c, 1, 10, 108
4, 56067, Control_c, 1, 7, 58
4, 56067, Control_c, 1, 10, 109
4, 56067, Control_c, 1, 10, 109
4, 56085, Control_c, 1, 10, 112
4, 56085, Control_c, 1, 10, 112
4, 56090, Control_c, 1, 10, 0
4, 56090, Control_c, 1, 10, 0
4, 56095, Control_c, 1, 10, 17
4, 56095, Control_c, 1, 10, 17
4, 56100, Control_c, 1, 10, 19
4, 56100, Control_c, 1, 10, 19
4, 56110, Note_on_c, 1, 71, 44
4, 56122, Control_c, 1, 7, 56
4, 56150, Note_on_c, 1, 71, 0
4, 56150, Control_c, 1, 7, 54
4, 56165, Control_c, 1, 10, 18
4, 56165, Control_c, 1, 10, 18
4, 56169, Control_c, 1, 10, 13
4, 56169, Control_c, 1, 10, 13
4, 56174, Control_c, 1, 10, 113
4, 56174, Control_c, 1, 10, 113
4, 56182, Control_c, 1, 10, 110
4, 56182, Control_c, 1, 10, 110
4, 56183, Control_c, 1, 7, 53
4, 56213, Control_c, 1, 10, 111
4, 56213, Control_c, 1, 10, 111
4, 56218, Control_c, 1, 10, 118
4, 56218, Control_c, 1, 10, 118
4, 56223, Control_c, 1, 7, 52
4, 56223, Control_c, 1, 10, 6
4, 56223, Control_c, 1, 10, 6
4, 56228, Control_c, 1, 10, 15
4, 56228, Control_c, 1, 10, 15
4, 56235, Control_c, 1, 10, 17
4, 56235, Control_c, 1, 10, 17
4, 56236, Control_c, 1, 7, 51
4, 56236, Control_c, 1, 10, 18
4, 56237, Control_c, 1, 10, 18
4, 56259, Control_c, 1, 7, 49
4, 56269, Control_c, 1, 10, 19
4, 56269, Control_c, 1, 10, 19
4, 56279, Control_c, 1, 10, 18
4, 56279, Control_c, 1, 10, 18
4, 56284, Control_c, 1, 10, 17
4, 56284, Control_c, 1, 10, 17
4, 56291, Control_c, 1, 7, 47
4, 56291, Control_c, 1, 10, 12
4, 56291, Control_c, 1, 10, 12
4, 56298, Control_c, 1, 10, 127
4, 56298, Control_c, 1, 10, 111
4, 56298, Control_c, 1, 10, 127
4, 56303, Control_c, 1, 10, 109
4, 56303, Control_c, 1, 10, 109
4, 56334, Control_c, 1, 7, 46
4, 56334, Control_c, 1, 10, 110
4, 56334, Control_c, 1, 10, 110
4, 56339, Control_c, 1, 10, 111
4, 56339, Control_c, 1, 10, 111
4, 56344, Control_c, 1, 10, 114
4, 56344, Control_c, 1, 10, 114
4, 56349, Control_c, 1, 10, 127
4, 56349, Control_c, 1, 10, 127
4, 56357, Control_c, 1, 10, 15
4, 56357, Control_c, 1, 10, 15
4, 56362, Control_c, 1, 10, 18
4, 56362, Control_c, 1, 10, 18
4, 56380, Control_c, 1, 10, 19
4, 56380, Control_c, 1, 10, 19
4, 56405, Control_c, 1, 7, 45
4, 56415, Control_c, 1, 7, 44
4, 56430, Control_c, 1, 10, 17
4, 56430, Control_c, 1, 10, 17
4, 56433, Control_c, 1, 10, 115
4, 56433, Control_c, 1, 10, 115
4, 56439, Control_c, 1, 10, 109
4, 56439, Control_c, 1, 10, 109
4, 56444, Control_c, 1, 10, 110
4, 56444, Control_c, 1, 10, 110
4, 56475, Control_c, 1, 10, 112
4, 56475, Control_c, 1, 10, 112
4, 56480, Control_c, 1, 7, 42
4, 56480, Control_c, 1, 10, 114
4, 56480, Control_c, 1, 10, 114
4, 56487, Control_c, 1, 10, 127
4, 56487, Control_c, 1, 10, 127
4, 56492, Control_c, 1, 10, 14
4, 56492, Control_c, 1, 10, 14
4, 56497, Control_c, 1, 10, 17
4, 56497, Control_c, 1, 10, 17
4, 56502, Control_c, 1, 10, 18
4, 56502, Control_c, 1, 10, 18
4, 56511, Control_c, 1, 7, 40
4, 56511, Control_c, 1, 10, 19
4, 56511, Control_c, 1, 10, 19
4, 56551, Control_c, 1, 7, 39
4, 56556, Control_c, 1, 10, 18
4, 56556, Control_c, 1, 10, 18
4, 56561, Control_c, 1, 10, 0
4, 56561, Control_c, 1, 10, 0
4, 56567, Control_c, 1, 10, 109
4, 56567, Control_c, 1, 10, 109
4, 56577, Control_c, 1, 7, 38
4, 56602, Control_c, 1, 7, 37
4, 56607, Control_c, 1, 10, 110
4, 56607, Control_c, 1, 10, 110
4, 56612, Control_c, 1, 10, 112
4, 56612, Control_c, 1, 10, 112
4, 56617, Control_c, 1, 10, 123
4, 56617, Control_c, 1, 10, 123
4, 56622, Control_c, 1, 10, 10
4, 56622, Control_c, 1, 10, 10
4, 56630, Control_c, 1, 10, 16
4, 56630, Control_c, 1, 10, 16
4, 56635, Control_c, 1, 10, 18
4, 56635, Control_c, 1, 10, 18
4, 56643, Control_c, 1, 10, 17
4, 56643, Control_c, 1, 10, 17
4, 56643, Note_on_c, 1, 71, 27
4, 56647, Control_c, 1, 7, 35
4, 56672, Control_c, 1, 7, 33
4, 56672, Control_c, 1, 10, 18
4, 56672, Control_c, 1, 10, 18
4, 56692, Note_on_c, 1, 71, 0
4, 56692, Control_c, 1, 7, 32
4, 56692, Control_c, 1, 10, 15
4, 56692, Control_c, 1, 10, 15
4, 56698, Control_c, 1, 10, 127
4, 56698, Control_c, 1, 10, 110
4, 56698, Control_c, 1, 10, 127
4, 56703, Control_c, 1, 10, 109
4, 56703, Control_c, 1, 10, 109
4, 56731, Control_c, 1, 10, 110
4, 56731, Control_c, 1, 10, 110
4, 56736, Control_c, 1, 10, 111
4, 56736, Control_c, 1, 10, 111
4, 56741, Control_c, 1, 10, 115
4, 56741, Control_c, 1, 10, 115
4, 56742, Control_c, 1, 7, 31
4, 56746, Control_c, 1, 10, 127
4, 56746, Control_c, 1, 10, 127
4, 56751, Control_c, 1, 10, 8
4, 56751, Control_c, 1, 10, 8
4, 56756, Control_c, 1, 10, 14
4, 56756, Control_c, 1, 10, 14
4, 56761, Control_c, 1, 7, 30
4, 56761, Control_c, 1, 10, 16
4, 56761, Control_c, 1, 10, 16
4, 56768, Control_c, 1, 10, 17
4, 56768, Control_c, 1, 10, 17
4, 56809, Control_c, 1, 10, 16
4, 56809, Control_c, 1, 10, 16
4, 56814, Control_c, 1, 10, 15
4, 56814, Control_c, 1, 10, 15
4, 56819, Control_c, 1, 7, 28
4, 56819, Control_c, 1, 10, 12
4, 56819, Control_c, 1, 10, 12
4, 56824, Control_c, 1, 10, 127
4, 56824, Control_c, 1, 10, 127
4, 56829, Control_c, 1, 7, 26
4, 56830, Control_c, 1, 10, 111
4, 56830, Control_c, 1, 10, 111
4, 56835, Control_c, 1, 10, 109
4, 56835, Control_c, 1, 10, 109
4, 56840, Control_c, 1, 7, 25
4, 56840, Control_c, 1, 10, 108
4, 56840, Control_c, 1, 10, 108
4, 56845, Control_c, 1, 10, 109
4, 56845, Control_c, 1, 10, 109
4, 56867, Control_c, 1, 10, 110
4, 56867, Control_c, 1, 10, 110
4, 56872, Control_c, 1, 10, 113
4, 56872, Control_c, 1, 10, 113
4, 56877, Control_c, 1, 7, 24
4, 56877, Control_c, 1, 10, 127
4, 56877, Control_c, 1, 10, 127
4, 56882, Control_c, 1, 10, 4
4, 56882, Control_c, 1, 10, 4
4, 56887, Control_c, 1, 10, 13
4, 56887, Control_c, 1, 10, 13
4, 56892, Control_c, 1, 10, 16
4, 56892, Control_c, 1, 10, 16
4, 56897, Control_c, 1, 10, 17
4, 56897, Control_c, 1, 10, 17
4, 56902, Control_c, 1, 10, 18
4, 56902, Control_c, 1, 10, 18
4, 56921, Control_c, 1, 7, 23
4, 56939, Control_c, 1, 7, 21
4, 56944, Control_c, 1, 10, 19
4, 56944, Control_c, 1, 10, 19
4, 56954, Control_c, 1, 10, 18
4, 56954, Control_c, 1, 10, 18
4, 56959, Control_c, 1, 10, 16
4, 56959, Control_c, 1, 10, 16
4, 56964, Control_c, 1, 10, 10
4, 56964, Control_c, 1, 10, 10
4, 56969, Control_c, 1, 10, 122
4, 56969, Control_c, 1, 10, 122
4, 56974, Control_c, 1, 10, 111
4, 56974, Control_c, 1, 10, 111
4, 56981, Control_c, 1, 10, 109
4, 56981, Control_c, 1, 10, 109
4, 57018, Control_c, 1, 10, 110
4, 57018, Control_c, 1, 10, 110
4, 57023, Control_c, 1, 10, 114
4, 57023, Control_c, 1, 10, 114
4, 57028, Control_c, 1, 10, 0
4, 57028, Control_c, 1, 10, 0
4, 57033, Control_c, 1, 10, 15
4, 57033, Control_c, 1, 10, 15
4, 57038, Control_c, 1, 10, 17
4, 57038, Control_c, 1, 10, 17
4, 57042, Control_c, 1, 10, 18
4, 57042, Control_c, 1, 10, 18
4, 57056, Control_c, 1, 7, 20
4, 57077, Control_c, 1, 7, 19
4, 57077, Control_c, 1, 10, 19
4, 57077, Control_c, 1, 10, 19
4, 57082, Control_c, 1, 10, 18
4, 57082, Control_c, 1, 10, 17
4, 57082, Control_c, 1, 10, 18
4, 57092, Control_c, 1, 10, 2
4, 57092, Control_c, 1, 10, 112
4, 57092, Control_c, 1, 10, 2
4, 57102, Control_c, 1, 10, 109
4, 57102, Control_c, 1, 10, 109
4, 57106, Control_c, 1, 10, 108
4, 57106, Control_c, 1, 10, 108
4, 57126, Control_c, 1, 10, 109
4, 57126, Control_c, 1, 10, 109
4, 57148, Control_c, 1, 10, 110
4, 57148, Control_c, 1, 10, 110
4, 57153, Control_c, 1, 10, 113
4, 57153, Control_c, 1, 10, 113
4, 57158, Control_c, 1, 10, 127
4, 57158, Control_c, 1, 10, 127
4, 57163, Control_c, 1, 10, 12
4, 57163, Control_c, 1, 10, 12
4, 57168, Control_c, 1, 10, 17
4, 57168, Control_c, 1, 10, 17
4, 57174, Control_c, 1, 10, 19
4, 57174, Control_c, 1, 10, 19
4, 57180, Note_on_c, 1, 71, 41
4, 57200, Control_c, 1, 7, 18
4, 57210, Control_c, 1, 10, 18
4, 57210, Control_c, 1, 10, 18
4, 57211, Note_on_c, 1, 71, 0
4, 57216, Control_c, 1, 10, 17
4, 57216, Control_c, 1, 10, 17
4, 57221, Control_c, 1, 10, 13
4, 57221, Control_c, 1, 10, 13
4, 57226, Control_c, 1, 10, 0
4, 57226, Control_c, 1, 10, 0
4, 57231, Control_c, 1, 10, 121
4, 57231, Control_c, 1, 10, 121
4, 57236, Control_c, 1, 10, 113
4, 57236, Control_c, 1, 10, 113
4, 57241, Control_c, 1, 10, 110
4, 57241, Control_c, 1, 10, 110
4, 57246, Control_c, 1, 10, 111
4, 57246, Control_c, 1, 10, 111
4, 57246, End_track
5, 0, Start_track
5, 0, MIDI_port, 0
5, 0, Title_t, "SynthStrings"
5, 0, Program_c, 2, 50
5, 180, Control_c, 2, 7, 28
5, 185, Control_c, 2, 7, 29
5, 205, Control_c, 2, 7, 31
5, 210, Control_c, 2, 7, 38
5, 215, Control_c, 2, 7, 75
5, 220, Control_c, 2, 7, 127
5, 2719, Note_on_c, 2, 85, 100
5, 3656, Note_on_c, 2, 85, 0
5, 3658, Note_on_c, 2, 83, 100
5, 3779, Note_on_c, 2, 85, 100
5, 3780, Note_on_c, 2, 83, 0
5, 4576, Note_on_c, 2, 85, 0
5, 4581, Note_on_c, 2, 88, 100
5, 4722, Note_on_c, 2, 86, 100
5, 4728, Note_on_c, 2, 88, 0
5, 4840, Note_on_c, 2, 86, 0
5, 13381, Note_on_c, 2, 85, 100
5, 14309, Note_on_c, 2, 85, 0
5, 14315, Note_on_c, 2, 83, 100
5, 14442, Note_on_c, 2, 83, 0
5, 14447, Note_on_c, 2, 85, 100
5, 15235, Note_on_c, 2, 85, 0
5, 15244, Note_on_c, 2, 88, 100
5, 15374, Note_on_c, 2, 88, 0
5, 15382, Note_on_c, 2, 86, 100
5, 15513, Note_on_c, 2, 85, 100
5, 15517, Note_on_c, 2, 86, 0
5, 16450, Note_on_c, 2, 85, 0
5, 16452, Note_on_c, 2, 83, 100
5, 16578, Note_on_c, 2, 83, 0
5, 16580, Note_on_c, 2, 85, 100
5, 17374, Note_on_c, 2, 85, 0
5, 17380, Note_on_c, 2, 88, 100
5, 17511, Note_on_c, 2, 88, 0
5, 17516, Note_on_c, 2, 86, 100
5, 17627, Note_on_c, 2, 86, 0
5, 26185, Note_on_c, 2, 85, 100
5, 27113, Note_on_c, 2, 85, 0
5, 27116, Note_on_c, 2, 83, 100
5, 27236, Note_on_c, 2, 83, 0
5, 27236, Note_on_c, 2, 85, 100
5, 28041, Note_on_c, 2, 85, 0
5, 28045, Note_on_c, 2, 88, 100
5, 28179, Note_on_c, 2, 86, 100
5, 28183, Note_on_c, 2, 88, 0
5, 28315, Note_on_c, 2, 85, 100
5, 28318, Note_on_c, 2, 86, 0
5, 29248, Note_on_c, 2, 85, 0
5, 29253, Note_on_c, 2, 83, 100
5, 29381, Note_on_c, 2, 83, 0
5, 29384, Note_on_c, 2, 85, 100
5, 30177, Note_on_c, 2, 85, 0
5, 30183, Note_on_c, 2, 88, 100
5, 30307, Note_on_c, 2, 88, 0
5, 30317, Note_on_c, 2, 86, 100
5, 30445, Note_on_c, 2, 85, 100
5, 30447, Note_on_c, 2, 86, 0
5, 31373, Note_on_c, 2, 85, 0
5, 31374, Note_on_c, 2, 83, 100
5, 31500, Note_on_c, 2, 83, 0
5, 31503, Note_on_c, 2, 85, 100
5, 32304, Note_on_c, 2, 85, 0
5, 32308, Note_on_c, 2, 88, 100
5, 32436, Note_on_c, 2, 88, 0
5, 32442, Note_on_c, 2, 86, 100
5, 32575, Note_on_c, 2, 85, 100
5, 32577, Note_on_c, 2, 86, 0
5, 33515, Note_on_c, 2, 83, 100
5, 33516, Note_on_c, 2, 85, 0
5, 33639, Note_on_c, 2, 83, 0
5, 33642, Note_on_c, 2, 85, 100
5, 34442, Note_on_c, 2, 85, 0
5, 34447, Note_on_c, 2, 88, 100
5, 34576, Note_on_c, 2, 88, 0
5, 34584, Note_on_c, 2, 86, 100
5, 34716, Note_on_c, 2, 85, 100
5, 34718, Note_on_c, 2, 86, 0
5, 35650, Note_on_c, 2, 85, 0
5, 35651, Note_on_c, 2, 83, 100
5, 35773, Note_on_c, 2, 83, 0
5, 35774, Note_on_c, 2, 85, 100
5, 36573, Note_on_c, 2, 85, 0
5, 36579, Note_on_c, 2, 88, 100
5, 36715, Note_on_c, 2, 88, 0
5, 36715, Note_on_c, 2, 85, 100
5, 36845, Note_on_c, 2, 85, 0
5, 36848, Note_on_c, 2, 83, 100
5, 36924, Note_on_c, 2, 85, 100
5, 36928, Note_on_c, 2, 83, 0
5, 37778, Note_on_c, 2, 85, 0
5, 37783, Note_on_c, 2, 83, 100
5, 37911, Note_on_c, 2, 83, 0
5, 37914, Note_on_c, 2, 85, 100
5, 38704, Note_on_c, 2, 85, 0
5, 38710, Note_on_c, 2, 88, 100
5, 38838, Note_on_c, 2, 88, 0
5, 38849, Note_on_c, 2, 86, 100
5, 38899, Note_on_c, 2, 86, 0
5, 43248, Note_on_c, 2, 85, 100
5, 44253, Note_on_c, 2, 85, 0
5, 44255, Note_on_c, 2, 83, 100
5, 44321, Note_on_c, 2, 85, 100
5, 44322, Note_on_c, 2, 83, 0
5, 45113, Note_on_c, 2, 85, 0
5, 45116, Note_on_c, 2, 88, 100
5, 45244, Note_on_c, 2, 88, 0
5, 45251, Note_on_c, 2, 86, 100
5, 45381, Note_on_c, 2, 85, 100
5, 45385, Note_on_c, 2, 86, 0
5, 46323, Note_on_c, 2, 83, 100
5, 46326, Note_on_c, 2, 85, 0
5, 46453, Note_on_c, 2, 83, 0
5, 46453, Note_on_c, 2, 85, 100
5, 47248, Note_on_c, 2, 85, 0
5, 47253, Note_on_c, 2, 88, 100
5, 47379, Note_on_c, 2, 88, 0
5, 47384, Note_on_c, 2, 86, 100
5, 47514, Note_on_c, 2, 86, 0
5, 47514, Note_on_c, 2, 85, 100
5, 48450, Note_on_c, 2, 85, 0
5, 48454, Note_on_c, 2, 83, 100
5, 48580, Note_on_c, 2, 83, 0
5, 48581, Note_on_c, 2, 85, 100
5, 49372, Note_on_c, 2, 85, 0
5, 49374, Note_on_c, 2, 88, 100
5, 49506, Note_on_c, 2, 88, 0
5, 49510, Note_on_c, 2, 86, 100
5, 49640, Note_on_c, 2, 85, 100
5, 49645, Note_on_c, 2, 86, 0
5, 50573, Note_on_c, 2, 85, 0
5, 50577, Note_on_c, 2, 83, 100
5, 50702, Note_on_c, 2, 83, 0
5, 50704, Note_on_c, 2, 85, 100
5, 51497, Note_on_c, 2, 85, 0
5, 51501, Note_on_c, 2, 88, 100
5, 51636, Note_on_c, 2, 88, 0
5, 51638, Note_on_c, 2, 86, 100
5, 51768, Note_on_c, 2, 85, 100
5, 51773, Note_on_c, 2, 86, 0
5, 52711, Note_on_c, 2, 85, 0
5, 52713, Note_on_c, 2, 83, 100
5, 52834, Note_on_c, 2, 83, 0
5, 52834, Note_on_c, 2, 85, 100
5, 53635, Note_on_c, 2, 85, 0
5, 53638, Note_on_c, 2, 88, 100
5, 53771, Note_on_c, 2, 88, 0
5, 53776, Note_on_c, 2, 86, 100
5, 53908, Note_on_c, 2, 85, 100
5, 53909, Note_on_c, 2, 86, 0
5, 54001, Control_c, 2, 7, 126
5, 54016, Control_c, 2, 7, 125
5, 54040, Control_c, 2, 7, 124
5, 54048, Control_c, 2, 7, 122
5, 54066, Control_c, 2, 7, 120
5, 54081, Control_c, 2, 7, 119
5, 54101, Control_c, 2, 7, 118
5, 54137, Control_c, 2, 7, 117
5, 54171, Control_c, 2, 7, 115
5, 54186, Control_c, 2, 7, 113
5, 54219, Control_c, 2, 7, 112
5, 54308, Control_c, 2, 7, 111
5, 54397, Control_c, 2, 7, 110
5, 54446, Control_c, 2, 7, 108
5, 54532, Control_c, 2, 7, 106
5, 54599, Control_c, 2, 7, 105
5, 54656, Control_c, 2, 7, 103
5, 54717, Control_c, 2, 7, 101
5, 54746, Control_c, 2, 7, 100
5, 54808, Control_c, 2, 7, 99
5, 54861, Control_c, 2, 7, 98
5, 54911, Control_c, 2, 7, 96
5, 54926, Note_on_c, 2, 83, 100
5, 54928, Note_on_c, 2, 85, 0
5, 54937, Control_c, 2, 7, 94
5, 54956, Control_c, 2, 7, 93
5, 54977, Note_on_c, 2, 85, 100
5, 54984, Note_on_c, 2, 83, 0
5, 55024, Control_c, 2, 7, 92
5, 55064, Control_c, 2, 7, 91
5, 55137, Control_c, 2, 7, 89
5, 55172, Control_c, 2, 7, 87
5, 55228, Control_c, 2, 7, 86
5, 55260, Control_c, 2, 7, 85
5, 55329, Control_c, 2, 7, 84
5, 55396, Control_c, 2, 7, 82
5, 55425, Control_c, 2, 7, 80
5, 55461, Control_c, 2, 7, 79
5, 55496, Control_c, 2, 7, 78
5, 55525, Control_c, 2, 7, 77
5, 55552, Control_c, 2, 7, 75
5, 55581, Control_c, 2, 7, 73
5, 55643, Control_c, 2, 7, 72
5, 55656, Control_c, 2, 7, 71
5, 55684, Control_c, 2, 7, 70
5, 55736, Control_c, 2, 7, 68
5, 55766, Note_on_c, 2, 85, 0
5, 55767, Control_c, 2, 7, 66
5, 55769, Note_on_c, 2, 88, 100
5, 55784, Control_c, 2, 7, 65
5, 55791, Control_c, 2, 7, 64
5, 55796, Control_c, 2, 7, 63
5, 55824, Control_c, 2, 7, 61
5, 55898, Note_on_c, 2, 88, 0
5, 55905, Control_c, 2, 7, 60
5, 55905, Note_on_c, 2, 86, 100
5, 55964, Control_c, 2, 7, 59
5, 56030, Note_on_c, 2, 86, 0
5, 56035, Note_on_c, 2, 85, 100
5, 56067, Control_c, 2, 7, 58
5, 56122, Control_c, 2, 7, 56
5, 56150, Control_c, 2, 7, 54
5, 56183, Control_c, 2, 7, 53
5, 56223, Control_c, 2, 7, 52
5, 56236, Control_c, 2, 7, 51
5, 56259, Control_c, 2, 7, 49
5, 56291, Control_c, 2, 7, 47
5, 56334, Control_c, 2, 7, 46
5, 56405, Control_c, 2, 7, 45
5, 56415, Control_c, 2, 7, 44
5, 56480, Control_c, 2, 7, 42
5, 56511, Control_c, 2, 7, 40
5, 56551, Control_c, 2, 7, 39
5, 56577, Control_c, 2, 7, 38
5, 56602, Control_c, 2, 7, 37
5, 56647, Control_c, 2, 7, 35
5, 56672, Control_c, 2, 7, 33
5, 56692, Control_c, 2, 7, 32
5, 56742, Control_c, 2, 7, 31
5, 56761, Control_c, 2, 7, 30
5, 56819, Control_c, 2, 7, 28
5, 56829, Control_c, 2, 7, 26
5, 56840, Control_c, 2, 7, 25
5, 56877, Control_c, 2, 7, 24
5, 56921, Control_c, 2, 7, 23
5, 56939, Control_c, 2, 7, 21
5, 56978, Note_on_c, 2, 85, 0
5, 56981, Note_on_c, 2, 83, 100
5, 57056, Control_c, 2, 7, 20
5, 57077, Control_c, 2, 7, 19
5, 57106, Note_on_c, 2, 83, 0
5, 57111, Note_on_c, 2, 85, 100
5, 57200, Control_c, 2, 7, 18
5, 57256, Note_on_c, 2, 85, 0
5, 57256, End_track
6, 0, Start_track
6, 0, MIDI_port, 0
6, 0, Title_t, "Pan Flute"
6, 0, Program_c, 3, 75
6, 180, Control_c, 3, 7, 28
6, 185, Control_c, 3, 7, 29
6, 205, Control_c, 3, 7, 31
6, 210, Control_c, 3, 7, 38
6, 215, Control_c, 3, 7, 75
6, 220, Control_c, 3, 7, 127
6, 2825, Note_on_c, 3, 85, 127
6, 2833, Note_on_c, 3, 84, 127
6, 2834, Note_on_c, 3, 85, 0
6, 2842, Note_on_c, 3, 84, 0
6, 2899, Note_on_c, 3, 81, 127
6, 2918, Note_on_c, 3, 81, 0
6, 2964, Note_on_c, 3, 83, 127
6, 3066, Note_on_c, 3, 83, 0
6, 3084, Note_on_c, 3, 81, 58
6, 3113, Note_on_c, 3, 83, 76
6, 3116, Note_on_c, 3, 81, 0
6, 3145, Note_on_c, 3, 83, 0
6, 3153, Note_on_c, 3, 85, 60
6, 3169, Note_on_c, 3, 85, 0
6, 3224, Note_on_c, 3, 81, 33
6, 3248, Note_on_c, 3, 83, 36
6, 3252, Note_on_c, 3, 81, 0
6, 3284, Note_on_c, 3, 83, 0
6, 3297, Note_on_c, 3, 85, 37
6, 3315, Note_on_c, 3, 85, 0
6, 3367, Note_on_c, 3, 81, 23
6, 3389, Note_on_c, 3, 81, 0
6, 3409, Note_on_c, 3, 83, 14
6, 3422, Note_on_c, 3, 83, 0
6, 3844, Note_on_c, 3, 81, 118
6, 3899, Note_on_c, 3, 81, 0
6, 3913, Note_on_c, 3, 78, 127
6, 3976, Note_on_c, 3, 78, 0
6, 3981, Note_on_c, 3, 76, 87
6, 4259, Note_on_c, 3, 76, 0
6, 4290, Note_on_c, 3, 71, 94
6, 4312, Note_on_c, 3, 73, 127
6, 4319, Note_on_c, 3, 71, 0
6, 4327, Note_on_c, 3, 73, 0
6, 4357, Note_on_c, 3, 76, 118
6, 4359, Note_on_c, 3, 74, 92
6, 4370, Note_on_c, 3, 74, 0
6, 4375, Note_on_c, 3, 76, 0
6, 4424, Note_on_c, 3, 71, 97
6, 4446, Note_on_c, 3, 73, 127
6, 4456, Note_on_c, 3, 71, 0
6, 4463, Note_on_c, 3, 73, 0
6, 4486, Note_on_c, 3, 81, 127
6, 4578, Note_on_c, 3, 81, 0
6, 4583, Note_on_c, 3, 78, 127
6, 4638, Note_on_c, 3, 78, 0
6, 4648, Note_on_c, 3, 76, 122
6, 4701, Note_on_c, 3, 76, 0
6, 4715, Note_on_c, 3, 73, 127
6, 4737, Note_on_c, 3, 73, 0
6, 4753, Note_on_c, 3, 71, 100
6, 4776, Note_on_c, 3, 73, 127
6, 4785, Note_on_c, 3, 71, 0
6, 4814, Note_on_c, 3, 73, 0
6, 33647, Note_on_c, 3, 82, 127
6, 33652, Note_on_c, 3, 83, 127
6, 33653, Note_on_c, 3, 82, 0
6, 33743, Note_on_c, 3, 83, 0
6, 33757, Note_on_c, 3, 83, 122
6, 33774, Note_on_c, 3, 83, 0
6, 33978, Note_on_c, 3, 81, 74
6, 34012, Note_on_c, 3, 83, 84
6, 34014, Note_on_c, 3, 81, 0
6, 34031, Note_on_c, 3, 83, 0
6, 34086, Note_on_c, 3, 85, 127
6, 34099, Note_on_c, 3, 85, 0
6, 34151, Note_on_c, 3, 83, 110
6, 34169, Note_on_c, 3, 83, 0
6, 34220, Note_on_c, 3, 81, 92
6, 34236, Note_on_c, 3, 81, 0
6, 34512, Note_on_c, 3, 76, 87
6, 34575, Note_on_c, 3, 76, 0
6, 34577, Note_on_c, 3, 81, 94
6, 34620, Note_on_c, 3, 81, 0
6, 34711, Note_on_c, 3, 80, 127
6, 34718, Note_on_c, 3, 81, 127
6, 34720, Note_on_c, 3, 80, 0
6, 34773, Note_on_c, 3, 81, 0
6, 34782, Note_on_c, 3, 76, 72
6, 34818, Note_on_c, 3, 78, 106
6, 34819, Note_on_c, 3, 76, 0
6, 34841, Note_on_c, 3, 76, 65
6, 34842, Note_on_c, 3, 78, 0
6, 34880, Note_on_c, 3, 76, 0
6, 34893, Note_on_c, 3, 73, 127
6, 34911, Note_on_c, 3, 73, 0
6, 35320, Note_on_c, 3, 81, 110
6, 35348, Note_on_c, 3, 81, 0
6, 35385, Note_on_c, 3, 83, 106
6, 35409, Note_on_c, 3, 83, 0
6, 35450, Note_on_c, 3, 85, 127
6, 35474, Note_on_c, 3, 85, 0
6, 35517, Note_on_c, 3, 81, 122
6, 35626, Note_on_c, 3, 81, 0
6, 35655, Note_on_c, 3, 83, 127
6, 35701, Note_on_c, 3, 83, 0
6, 35780, Note_on_c, 3, 80, 127
6, 35786, Note_on_c, 3, 81, 127
6, 35787, Note_on_c, 3, 80, 0
6, 35848, Note_on_c, 3, 81, 0
6, 35850, Note_on_c, 3, 76, 78
6, 35880, Note_on_c, 3, 76, 0
6, 35888, Note_on_c, 3, 78, 94
6, 35909, Note_on_c, 3, 78, 0
6, 35909, Note_on_c, 3, 76, 76
6, 35945, Note_on_c, 3, 76, 0
6, 35952, Note_on_c, 3, 73, 127
6, 35972, Note_on_c, 3, 73, 0
6, 36381, Note_on_c, 3, 81, 92
6, 36410, Note_on_c, 3, 81, 0
6, 36444, Note_on_c, 3, 83, 110
6, 36466, Note_on_c, 3, 83, 0
6, 36512, Note_on_c, 3, 85, 127
6, 36530, Note_on_c, 3, 85, 0
6, 36581, Note_on_c, 3, 81, 127
6, 36690, Note_on_c, 3, 81, 0
6, 36717, Note_on_c, 3, 83, 127
6, 36749, Note_on_c, 3, 83, 0
6, 37048, Note_on_c, 3, 93, 100
6, 37071, Note_on_c, 3, 93, 0
6, 37112, Note_on_c, 3, 92, 127
6, 37140, Note_on_c, 3, 92, 0
6, 37173, Note_on_c, 3, 88, 110
6, 37198, Note_on_c, 3, 88, 0
6, 37216, Note_on_c, 3, 85, 127
6, 37250, Note_on_c, 3, 85, 0
6, 37621, Note_on_c, 3, 93, 113
6, 37648, Note_on_c, 3, 92, 127
6, 37653, Note_on_c, 3, 93, 0
6, 37674, Note_on_c, 3, 92, 0
6, 37711, Note_on_c, 3, 88, 92
6, 37732, Note_on_c, 3, 88, 0
6, 37754, Note_on_c, 3, 85, 127
6, 37788, Note_on_c, 3, 85, 0
6, 38155, Note_on_c, 3, 93, 110
6, 38180, Note_on_c, 3, 93, 0
6, 38184, Note_on_c, 3, 92, 127
6, 38203, Note_on_c, 3, 92, 0
6, 38249, Note_on_c, 3, 88, 118
6, 38269, Note_on_c, 3, 88, 0
6, 38288, Note_on_c, 3, 85, 127
6, 38306, Note_on_c, 3, 85, 0
6, 38383, Note_on_c, 3, 92, 127
6, 38422, Note_on_c, 3, 92, 0
6, 54001, Control_c, 3, 7, 126
6, 54016, Control_c, 3, 7, 125
6, 54040, Control_c, 3, 7, 124
6, 54048, Control_c, 3, 7, 122
6, 54066, Control_c, 3, 7, 120
6, 54081, Control_c, 3, 7, 119
6, 54101, Control_c, 3, 7, 118
6, 54137, Control_c, 3, 7, 117
6, 54171, Control_c, 3, 7, 115
6, 54186, Control_c, 3, 7, 113
6, 54219, Control_c, 3, 7, 112
6, 54308, Control_c, 3, 7, 111
6, 54397, Control_c, 3, 7, 110
6, 54446, Control_c, 3, 7, 108
6, 54532, Control_c, 3, 7, 106
6, 54599, Control_c, 3, 7, 105
6, 54656, Control_c, 3, 7, 103
6, 54717, Control_c, 3, 7, 101
6, 54746, Control_c, 3, 7, 100
6, 54808, Control_c, 3, 7, 99
6, 54861, Control_c, 3, 7, 98
6, 54911, Control_c, 3, 7, 96
6, 54937, Control_c, 3, 7, 94
6, 54956, Control_c, 3, 7, 93
6, 55024, Control_c, 3, 7, 92
6, 55064, Control_c, 3, 7, 91
6, 55137, Control_c, 3, 7, 89
6, 55172, Control_c, 3, 7, 87
6, 55228, Control_c, 3, 7, 86
6, 55260, Control_c, 3, 7, 85
6, 55329, Control_c, 3, 7, 84
6, 55396, Control_c, 3, 7, 82
6, 55425, Control_c, 3, 7, 80
6, 55461, Control_c, 3, 7, 79
6, 55496, Control_c, 3, 7, 78
6, 55525, Control_c, 3, 7, 77
6, 55552, Control_c, 3, 7, 75
6, 55581, Control_c, 3, 7, 73
6, 55643, Control_c, 3, 7, 72
6, 55656, Control_c, 3, 7, 71
6, 55684, Control_c, 3, 7, 70
6, 55736, Control_c, 3, 7, 68
6, 55767, Control_c, 3, 7, 66
6, 55784, Control_c, 3, 7, 65
6, 55791, Control_c, 3, 7, 64
6, 55796, Control_c, 3, 7, 63
6, 55824, Control_c, 3, 7, 61
6, 55905, Control_c, 3, 7, 60
6, 55964, Control_c, 3, 7, 59
6, 56067, Control_c, 3, 7, 58
6, 56122, Control_c, 3, 7, 56
6, 56150, Control_c, 3, 7, 54
6, 56183, Control_c, 3, 7, 53
6, 56223, Control_c, 3, 7, 52
6, 56236, Control_c, 3, 7, 51
6, 56259, Control_c, 3, 7, 49
6, 56291, Control_c, 3, 7, 47
6, 56334, Control_c, 3, 7, 46
6, 56405, Control_c, 3, 7, 45
6, 56415, Control_c, 3, 7, 44
6, 56480, Control_c, 3, 7, 42
6, 56511, Control_c, 3, 7, 40
6, 56551, Control_c, 3, 7, 39
6, 56577, Control_c, 3, 7, 38
6, 56602, Control_c, 3, 7, 37
6, 56647, Control_c, 3, 7, 35
6, 56672, Control_c, 3, 7, 33
6, 56692, Control_c, 3, 7, 32
6, 56742, Control_c, 3, 7, 31
6, 56761, Control_c, 3, 7, 30
6, 56819, Control_c, 3, 7, 28
6, 56829, Control_c, 3, 7, 26
6, 56840, Control_c, 3, 7, 25
6, 56877, Control_c, 3, 7, 24
6, 56921, Control_c, 3, 7, 23
6, 56939, Control_c, 3, 7, 21
6, 57056, Control_c, 3, 7, 20
6, 57077, Control_c, 3, 7, 19
6, 57200, Control_c, 3, 7, 18
6, 57200, End_track
7, 0, Start_track
7, 0, MIDI_port, 0
7, 0, Title_t, "Piano"
7, 0, Program_c, 4, 0
7, 180, Control_c, 4, 7, 28
7, 185, Control_c, 4, 7, 29
7, 205, Control_c, 4, 7, 31
7, 210, Control_c, 4, 7, 38
7, 215, Control_c, 4, 7, 75
7, 220, Control_c, 4, 7, 127
7, 2722, Note_on_c, 4, 61, 100
7, 2722, Note_on_c, 4, 56, 113
7, 2723, Note_on_c, 4, 52, 100
7, 2750, Note_on_c, 4, 52, 0
7, 2753, Note_on_c, 4, 56, 0
7, 2755, Note_on_c, 4, 61, 0
7, 3164, Note_on_c, 4, 52, 97
7, 3165, Note_on_c, 4, 56, 110
7, 3165, Note_on_c, 4, 61, 90
7, 3182, Note_on_c, 4, 56, 0
7, 3183, Note_on_c, 4, 52, 0
7, 3184, Note_on_c, 4, 61, 0
7, 3253, Note_on_c, 4, 61, 113
7, 3254, Note_on_c, 4, 52, 113
7, 3254, Note_on_c, 4, 56, 127
7, 3272, Note_on_c, 4, 52, 0
7, 3275, Note_on_c, 4, 56, 0
7, 3276, Note_on_c, 4, 61, 0
7, 3784, Note_on_c, 4, 61, 110
7, 3785, Note_on_c, 4, 52, 127
7, 3785, Note_on_c, 4, 56, 127
7, 3810, Note_on_c, 4, 52, 0
7, 3811, Note_on_c, 4, 61, 0
7, 3812, Note_on_c, 4, 56, 0
7, 4225, Note_on_c, 4, 61, 113
7, 4226, Note_on_c, 4, 56, 127
7, 4226, Note_on_c, 4, 52, 127
7, 4239, Note_on_c, 4, 52, 0
7, 4241, Note_on_c, 4, 56, 0
7, 4241, Note_on_c, 4, 61, 0
7, 4319, Note_on_c, 4, 61, 113
7, 4319, Note_on_c, 4, 52, 127
7, 4320, Note_on_c, 4, 56, 127
7, 4335, Note_on_c, 4, 52, 0
7, 4339, Note_on_c, 4, 56, 0
7, 4342, Note_on_c, 4, 61, 0
7, 4587, Note_on_c, 4, 54, 110
7, 4588, Note_on_c, 4, 59, 127
7, 4589, Note_on_c, 4, 62, 92
7, 4686, Note_on_c, 4, 54, 0
7, 4691, Note_on_c, 4, 59, 0
7, 4692, Note_on_c, 4, 62, 0
7, 4717, Note_on_c, 4, 62, 97
7, 4718, Note_on_c, 4, 54, 118
7, 4718, Note_on_c, 4, 59, 127
7, 4718, Note_on_c, 4, 58, 67
7, 4726, Note_on_c, 4, 58, 0
7, 4773, Note_on_c, 4, 59, 0
7, 4773, Note_on_c, 4, 54, 0
7, 4775, Note_on_c, 4, 62, 0
7, 4853, Note_on_c, 4, 61, 113
7, 4853, Note_on_c, 4, 52, 118
7, 4853, Note_on_c, 4, 56, 127
7, 4884, Note_on_c, 4, 52, 0
7, 4891, Note_on_c, 4, 61, 0
7, 4892, Note_on_c, 4, 56, 0
7, 4961, Note_on_c, 4, 69, 77
7, 4986, Note_on_c, 4, 71, 100
7, 4990, Note_on_c, 4, 69, 0
7, 5024, Note_on_c, 4, 71, 0
7, 5025, Note_on_c, 4, 69, 74
7, 5048, Note_on_c, 4, 71, 82
7, 5060, Note_on_c, 4, 69, 0
7, 5089, Note_on_c, 4, 71, 0
7, 5118, Note_on_c, 4, 73, 127
7, 5184, Note_on_c, 4, 73, 0
7, 5290, Note_on_c, 4, 52, 97
7, 5290, Note_on_c, 4, 61, 106
7, 5290, Note_on_c, 4, 56, 127
7, 5308, Note_on_c, 4, 56, 0
7, 5310, Note_on_c, 4, 61, 0
7, 5310, Note_on_c, 4, 52, 0
7, 5378, Note_on_c, 4, 61, 113
7, 5379, Note_on_c, 4, 52, 122
7, 5379, Note_on_c, 4, 56, 127
7, 5402, Note_on_c, 4, 61, 0
7, 5403, Note_on_c, 4, 52, 0
7, 5406, Note_on_c, 4, 56, 0
7, 5512, Note_on_c, 4, 69, 80
7, 5578, Note_on_c, 4, 71, 67
7, 5583, Note_on_c, 4, 69, 0
7, 5646, Note_on_c, 4, 71, 0
7, 5650, Note_on_c, 4, 69, 66
7, 5696, Note_on_c, 4, 69, 0
7, 5716, Note_on_c, 4, 66, 127
7, 5754, Note_on_c, 4, 66, 0
7, 5783, Note_on_c, 4, 66, 97
7, 5861, Note_on_c, 4, 66, 0
7, 5918, Note_on_c, 4, 61, 110
7, 5919, Note_on_c, 4, 52, 127
7, 5919, Note_on_c, 4, 56, 127
7, 5952, Note_on_c, 4, 52, 0
7, 5955, Note_on_c, 4, 61, 0
7, 5956, Note_on_c, 4, 56, 0
7, 6050, Note_on_c, 4, 69, 84
7, 6113, Note_on_c, 4, 69, 0
7, 6116, Note_on_c, 4, 71, 65
7, 6181, Note_on_c, 4, 71, 0
7, 6185, Note_on_c, 4, 69, 69
7, 6229, Note_on_c, 4, 69, 0
7, 6250, Note_on_c, 4, 66, 118
7, 6283, Note_on_c, 4, 66, 0
7, 6315, Note_on_c, 4, 66, 87
7, 6365, Note_on_c, 4, 56, 127
7, 6366, Note_on_c, 4, 52, 106
7, 6366, Note_on_c, 4, 61, 110
7, 6380, Note_on_c, 4, 52, 0
7, 6383, Note_on_c, 4, 56, 0
7, 6384, Note_on_c, 4, 61, 0
7, 6405, Note_on_c, 4, 66, 0
7, 6449, Note_on_c, 4, 66, 113
7, 6451, Note_on_c, 4, 61, 92
7, 6451, Note_on_c, 4, 56, 127
7, 6452, Note_on_c, 4, 52, 113
7, 6477, Note_on_c, 4, 52, 0
7, 6480, Note_on_c, 4, 56, 0
7, 6480, Note_on_c, 4, 61, 0
7, 6516, Note_on_c, 4, 68, 70
7, 6528, Note_on_c, 4, 66, 0
7, 6569, Note_on_c, 4, 68, 0
7, 6584, Note_on_c, 4, 69, 73
7, 6648, Note_on_c, 4, 69, 0
7, 6654, Note_on_c, 4, 71, 87
7, 6701, Note_on_c, 4, 71, 0
7, 6720, Note_on_c, 4, 62, 92
7, 6720, Note_on_c, 4, 54, 110
7, 6720, Note_on_c, 4, 59, 106
7, 6722, Note_on_c, 4, 73, 127
7, 6813, Note_on_c, 4, 54, 0
7, 6828, Note_on_c, 4, 59, 0
7, 6833, Note_on_c, 4, 62, 0
7, 6842, Note_on_c, 4, 73, 0
7, 6854, Note_on_c, 4, 54, 106
7, 6854, Note_on_c, 4, 59, 122
7, 6854, Note_on_c, 4, 62, 87
7, 6854, Note_on_c, 4, 69, 110
7, 6886, Note_on_c, 4, 69, 0
7, 6893, Note_on_c, 4, 71, 127
7, 6910, Note_on_c, 4, 59, 0
7, 6913, Note_on_c, 4, 54, 0
7, 6913, Note_on_c, 4, 62, 0
7, 6966, Note_on_c, 4, 71, 0
7, 6992, Note_on_c, 4, 61, 122
7, 6993, Note_on_c, 4, 52, 127
7, 6993, Note_on_c, 4, 56, 127
7, 7018, Note_on_c, 4, 52, 0
7, 7026, Note_on_c, 4, 61, 0
7, 7027, Note_on_c, 4, 56, 0
7, 7099, Note_on_c, 4, 69, 59
7, 7124, Note_on_c, 4, 71, 122
7, 7131, Note_on_c, 4, 69, 0
7, 7162, Note_on_c, 4, 71, 0
7, 7165, Note_on_c, 4, 69, 62
7, 7191, Note_on_c, 4, 71, 97
7, 7201, Note_on_c, 4, 69, 0
7, 7237, Note_on_c, 4, 71, 0
7, 7254, Note_on_c, 4, 73, 127
7, 7315, Note_on_c, 4, 73, 0
7, 7428, Note_on_c, 4, 61, 118
7, 7428, Note_on_c, 4, 56, 127
7, 7429, Note_on_c, 4, 52, 127
7, 7443, Note_on_c, 4, 52, 0
7, 7450, Note_on_c, 4, 56, 0
7, 7451, Note_on_c, 4, 61, 0
7, 7522, Note_on_c, 4, 61, 113
7, 7522, Note_on_c, 4, 52, 127
7, 7523, Note_on_c, 4, 56, 127
7, 7543, Note_on_c, 4, 52, 0
7, 7548, Note_on_c, 4, 56, 0
7, 7548, Note_on_c, 4, 61, 0
7, 7655, Note_on_c, 4, 69, 103
7, 7720, Note_on_c, 4, 71, 78
7, 7726, Note_on_c, 4, 69, 0
7, 7780, Note_on_c, 4, 71, 0
7, 7789, Note_on_c, 4, 69, 74
7, 7842, Note_on_c, 4, 69, 0
7, 7857, Note_on_c, 4, 66, 127
7, 7884, Note_on_c, 4, 66, 0
7, 7924, Note_on_c, 4, 66, 127
7, 8013, Note_on_c, 4, 66, 0
7, 8061, Note_on_c, 4, 61, 94
7, 8062, Note_on_c, 4, 56, 127
7, 8062, Note_on_c, 4, 52, 127
7, 8085, Note_on_c, 4, 52, 0
7, 8093, Note_on_c, 4, 56, 0
7, 8096, Note_on_c, 4, 61, 0
7, 8197, Note_on_c, 4, 69, 127
7, 8246, Note_on_c, 4, 69, 0
7, 8259, Note_on_c, 4, 71, 87
7, 8328, Note_on_c, 4, 69, 82
7, 8337, Note_on_c, 4, 71, 0
7, 8384, Note_on_c, 4, 69, 0
7, 8392, Note_on_c, 4, 66, 118
7, 8425, Note_on_c, 4, 66, 0
7, 8458, Note_on_c, 4, 66, 127
7, 8501, Note_on_c, 4, 61, 113
7, 8501, Note_on_c, 4, 52, 122
7, 8502, Note_on_c, 4, 56, 127
7, 8522, Note_on_c, 4, 56, 0
7, 8523, Note_on_c, 4, 52, 0
7, 8525, Note_on_c, 4, 61, 0
7, 8551, Note_on_c, 4, 66, 0
7, 8587, Note_on_c, 4, 66, 127
7, 8594, Note_on_c, 4, 61, 113
7, 8594, Note_on_c, 4, 52, 127
7, 8594, Note_on_c, 4, 56, 127
7, 8616, Note_on_c, 4, 52, 0
7, 8619, Note_on_c, 4, 56, 0
7, 8620, Note_on_c, 4, 61, 0
7, 8654, Note_on_c, 4, 68, 78
7, 8667, Note_on_c, 4, 66, 0
7, 8714, Note_on_c, 4, 68, 0
7, 8723, Note_on_c, 4, 69, 103
7, 8761, Note_on_c, 4, 69, 0
7, 8790, Note_on_c, 4, 73, 127
7, 8852, Note_on_c, 4, 54, 106
7, 8855, Note_on_c, 4, 59, 106
7, 8856, Note_on_c, 4, 62, 97
7, 8951, Note_on_c, 4, 54, 0
7, 8964, Note_on_c, 4, 59, 0
7, 8972, Note_on_c, 4, 62, 0
7, 8975, Note_on_c, 4, 73, 0
7, 8988, Note_on_c, 4, 69, 87
7, 8989, Note_on_c, 4, 54, 106
7, 8990, Note_on_c, 4, 62, 80
7, 8990, Note_on_c, 4, 59, 110
7, 9022, Note_on_c, 4, 69, 0
7, 9027, Note_on_c, 4, 71, 100
7, 9044, Note_on_c, 4, 59, 0
7, 9047, Note_on_c, 4, 62, 0
7, 9050, Note_on_c, 4, 54, 0
7, 9092, Note_on_c, 4, 71, 0
7, 9121, Note_on_c, 4, 69, 118
7, 9124, Note_on_c, 4, 52, 118
7, 9124, Note_on_c, 4, 61, 127
7, 9125, Note_on_c, 4, 56, 127
7, 9149, Note_on_c, 4, 52, 0
7, 9153, Note_on_c, 4, 56, 0
7, 9156, Note_on_c, 4, 61, 0
7, 9210, Note_on_c, 4, 69, 0
7, 9226, Note_on_c, 4, 66, 127
7, 9250, Note_on_c, 4, 66, 0
7, 9324, Note_on_c, 4, 73, 127
7, 9418, Note_on_c, 4, 73, 0
7, 9428, Note_on_c, 4, 69, 77
7, 9459, Note_on_c, 4, 69, 0
7, 9523, Note_on_c, 4, 76, 118
7, 9567, Note_on_c, 4, 61, 113
7, 9567, Note_on_c, 4, 52, 110
7, 9568, Note_on_c, 4, 56, 127
7, 9584, Note_on_c, 4, 56, 0
7, 9584, Note_on_c, 4, 52, 0
7, 9590, Note_on_c, 4, 61, 0
7, 9618, Note_on_c, 4, 76, 0
7, 9628, Note_on_c, 4, 73, 127
7, 9654, Note_on_c, 4, 73, 0
7, 9655, Note_on_c, 4, 56, 127
7, 9656, Note_on_c, 4, 61, 110
7, 9656, Note_on_c, 4, 52, 127
7, 9673, Note_on_c, 4, 52, 0
7, 9679, Note_on_c, 4, 56, 0
7, 9681, Note_on_c, 4, 61, 0
7, 9723, Note_on_c, 4, 80, 127
7, 9886, Note_on_c, 4, 80, 0
7, 9893, Note_on_c, 4, 76, 62
7, 9919, Note_on_c, 4, 80, 127
7, 9925, Note_on_c, 4, 76, 0
7, 9944, Note_on_c, 4, 80, 0
7, 9984, Note_on_c, 4, 80, 127
7, 10041, Note_on_c, 4, 80, 0
7, 10049, Note_on_c, 4, 78, 127
7, 10102, Note_on_c, 4, 78, 0
7, 10119, Note_on_c, 4, 76, 113
7, 10186, Note_on_c, 4, 61, 110
7, 10186, Note_on_c, 4, 56, 127
7, 10188, Note_on_c, 4, 52, 127
7, 10212, Note_on_c, 4, 52, 0
7, 10220, Note_on_c, 4, 56, 0
7, 10223, Note_on_c, 4, 61, 0
7, 10244, Note_on_c, 4, 76, 0
7, 10256, Note_on_c, 4, 78, 127
7, 10285, Note_on_c, 4, 78, 0
7, 10432, Note_on_c, 4, 74, 55
7, 10456, Note_on_c, 4, 76, 127
7, 10462, Note_on_c, 4, 74, 0
7, 10494, Note_on_c, 4, 76, 0
7, 10520, Note_on_c, 4, 76, 118
7, 10580, Note_on_c, 4, 76, 0
7, 10588, Note_on_c, 4, 74, 97
7, 10626, Note_on_c, 4, 61, 106
7, 10628, Note_on_c, 4, 56, 127
7, 10628, Note_on_c, 4, 52, 122
7, 10640, Note_on_c, 4, 74, 0
7, 10643, Note_on_c, 4, 52, 0
7, 10648, Note_on_c, 4, 56, 0
7, 10650, Note_on_c, 4, 61, 0
7, 10655, Note_on_c, 4, 73, 127
7, 10690, Note_on_c, 4, 73, 0
7, 10719, Note_on_c, 4, 61, 118
7, 10719, Note_on_c, 4, 56, 127
7, 10719, Note_on_c, 4, 52, 127
7, 10740, Note_on_c, 4, 52, 0
7, 10745, Note_on_c, 4, 56, 0
7, 10745, Note_on_c, 4, 61, 0
7, 10790, Note_on_c, 4, 73, 127
7, 10841, Note_on_c, 4, 73, 0
7, 10858, Note_on_c, 4, 71, 110
7, 10933, Note_on_c, 4, 71, 0
7, 10962, Note_on_c, 4, 69, 90
7, 10982, Note_on_c, 4, 54, 106
7, 10983, Note_on_c, 4, 62, 82
7, 10983, Note_on_c, 4, 59, 100
7, 10986, Note_on_c, 4, 71, 127
7, 10996, Note_on_c, 4, 69, 0
7, 11023, Note_on_c, 4, 71, 0
7, 11030, Note_on_c, 4, 73, 127
7, 11074, Note_on_c, 4, 54, 0
7, 11082, Note_on_c, 4, 59, 0
7, 11091, Note_on_c, 4, 62, 0
7, 11095, Note_on_c, 4, 73, 0
7, 11118, Note_on_c, 4, 62, 100
7, 11118, Note_on_c, 4, 54, 127
7, 11118, Note_on_c, 4, 59, 127
7, 11120, Note_on_c, 4, 69, 127
7, 11166, Note_on_c, 4, 59, 0
7, 11167, Note_on_c, 4, 54, 0
7, 11169, Note_on_c, 4, 62, 0
7, 11182, Note_on_c, 4, 69, 0
7, 11252, Note_on_c, 4, 69, 127
7, 11255, Note_on_c, 4, 61, 110
7, 11257, Note_on_c, 4, 52, 127
7, 11257, Note_on_c, 4, 56, 127
7, 11285, Note_on_c, 4, 69, 0
7, 11290, Note_on_c, 4, 52, 0
7, 11292, Note_on_c, 4, 61, 0
7, 11292, Note_on_c, 4, 56, 0
7, 11357, Note_on_c, 4, 66, 127
7, 11372, Note_on_c, 4, 66, 0
7, 11457, Note_on_c, 4, 73, 127
7, 11474, Note_on_c, 4, 73, 0
7, 11496, Note_on_c, 4, 69, 78
7, 11512, Note_on_c, 4, 69, 0
7, 11588, Note_on_c, 4, 76, 127
7, 11605, Note_on_c, 4, 76, 0
7, 11626, Note_on_c, 4, 73, 127
7, 11638, Note_on_c, 4, 73, 0
7, 11694, Note_on_c, 4, 56, 127
7, 11695, Note_on_c, 4, 61, 110
7, 11695, Note_on_c, 4, 52, 118
7, 11716, Note_on_c, 4, 52, 0
7, 11718, Note_on_c, 4, 56, 0
7, 11720, Note_on_c, 4, 61, 0
7, 11721, Note_on_c, 4, 80, 127
7, 11734, Note_on_c, 4, 80, 0
7, 11759, Note_on_c, 4, 76, 127
7, 11778, Note_on_c, 4, 76, 0
7, 11787, Note_on_c, 4, 61, 118
7, 11788, Note_on_c, 4, 52, 127
7, 11788, Note_on_c, 4, 56, 127
7, 11811, Note_on_c, 4, 52, 0
7, 11813, Note_on_c, 4, 56, 0
7, 11816, Note_on_c, 4, 61, 0
7, 12021, Note_on_c, 4, 74, 62
7, 12045, Note_on_c, 4, 78, 127
7, 12049, Note_on_c, 4, 74, 0
7, 12140, Note_on_c, 4, 78, 0
7, 12157, Note_on_c, 4, 80, 127
7, 12186, Note_on_c, 4, 80, 0
7, 12229, Note_on_c, 4, 76, 103
7, 12286, Note_on_c, 4, 76, 0
7, 12293, Note_on_c, 4, 78, 127
7, 12320, Note_on_c, 4, 56, 127
7, 12321, Note_on_c, 4, 61, 113
7, 12321, Note_on_c, 4, 52, 127
7, 12349, Note_on_c, 4, 52, 0
7, 12354, Note_on_c, 4, 61, 0
7, 12354, Note_on_c, 4, 56, 0
7, 12371, Note_on_c, 4, 78, 0
7, 12558, Note_on_c, 4, 74, 73
7, 12582, Note_on_c, 4, 76, 127
7, 12587, Note_on_c, 4, 74, 0
7, 12681, Note_on_c, 4, 76, 0
7, 12691, Note_on_c, 4, 78, 127
7, 12710, Note_on_c, 4, 78, 0
7, 12756, Note_on_c, 4, 61, 110
7, 12757, Note_on_c, 4, 52, 127
7, 12757, Note_on_c, 4, 74, 122
7, 12758, Note_on_c, 4, 56, 127
7, 12775, Note_on_c, 4, 56, 0
7, 12775, Note_on_c, 4, 61, 0
7, 12775, Note_on_c, 4, 52, 0
7, 12781, Note_on_c, 4, 74, 0
7, 12823, Note_on_c, 4, 73, 127
7, 12847, Note_on_c, 4, 73, 0
7, 12847, Note_on_c, 4, 61, 127
7, 12847, Note_on_c, 4, 56, 127
7, 12847, Note_on_c, 4, 52, 127
7, 12868, Note_on_c, 4, 52, 0
7, 12870, Note_on_c, 4, 61, 0
7, 12872, Note_on_c, 4, 56, 0
7, 13115, Note_on_c, 4, 54, 113
7, 13115, Note_on_c, 4, 62, 106
7, 13115, Note_on_c, 4, 59, 127
7, 13115, Note_on_c, 4, 73, 127
7, 13141, Note_on_c, 4, 73, 0
7, 13154, Note_on_c, 4, 74, 103
7, 13176, Note_on_c, 4, 76, 122
7, 13182, Note_on_c, 4, 74, 0
7, 13199, Note_on_c, 4, 76, 0
7, 13246, Note_on_c, 4, 78, 127
7, 13250, Note_on_c, 4, 54, 0
7, 13257, Note_on_c, 4, 59, 0
7, 13260, Note_on_c, 4, 62, 0
7, 13286, Note_on_c, 4, 62, 85
7, 13286, Note_on_c, 4, 54, 113
7, 13286, Note_on_c, 4, 59, 113
7, 13306, Note_on_c, 4, 78, 0
7, 13308, Note_on_c, 4, 59, 0
7, 13308, Note_on_c, 4, 54, 0
7, 13311, Note_on_c, 4, 62, 0
7, 13383, Note_on_c, 4, 52, 122
7, 13384, Note_on_c, 4, 61, 118
7, 13384, Note_on_c, 4, 56, 127
7, 13407, Note_on_c, 4, 52, 0
7, 13410, Note_on_c, 4, 56, 0
7, 13410, Note_on_c, 4, 61, 0
7, 13451, Note_on_c, 4, 80, 127
7, 13466, Note_on_c, 4, 80, 0
7, 13516, Note_on_c, 4, 80, 127
7, 13550, Note_on_c, 4, 80, 0
7, 13555, Note_on_c, 4, 78, 80
7, 13582, Note_on_c, 4, 78, 0
7, 13583, Note_on_c, 4, 76, 58
7, 13606, Note_on_c, 4, 76, 0
7, 13624, Note_on_c, 4, 73, 127
7, 13638, Note_on_c, 4, 73, 0
7, 13781, Note_on_c, 4, 73, 127
7, 13808, Note_on_c, 4, 73, 0
7, 13819, Note_on_c, 4, 76, 74
7, 13821, Note_on_c, 4, 61, 127
7, 13822, Note_on_c, 4, 56, 127
7, 13822, Note_on_c, 4, 52, 127
7, 13834, Note_on_c, 4, 52, 0
7, 13835, Note_on_c, 4, 56, 0
7, 13836, Note_on_c, 4, 61, 0
7, 13847, Note_on_c, 4, 78, 127
7, 13848, Note_on_c, 4, 76, 0
7, 13867, Note_on_c, 4, 78, 0
7, 13911, Note_on_c, 4, 61, 127
7, 13912, Note_on_c, 4, 56, 127
7, 13912, Note_on_c, 4, 52, 127
7, 13927, Note_on_c, 4, 52, 0
7, 13931, Note_on_c, 4, 56, 0
7, 13932, Note_on_c, 4, 61, 0
7, 13975, Note_on_c, 4, 80, 127
7, 13991, Note_on_c, 4, 80, 0
7, 14047, Note_on_c, 4, 80, 127
7, 14077, Note_on_c, 4, 80, 0
7, 14083, Note_on_c, 4, 78, 76
7, 14111, Note_on_c, 4, 78, 0
7, 14113, Note_on_c, 4, 76, 59
7, 14135, Note_on_c, 4, 76, 0
7, 14152, Note_on_c, 4, 73, 127
7, 14170, Note_on_c, 4, 73, 0
7, 14317, Note_on_c, 4, 73, 127
7, 14346, Note_on_c, 4, 73, 0
7, 14358, Note_on_c, 4, 76, 82
7, 14384, Note_on_c, 4, 78, 127
7, 14386, Note_on_c, 4, 76, 0
7, 14404, Note_on_c, 4, 78, 0
7, 14453, Note_on_c, 4, 61, 122
7, 14453, Note_on_c, 4, 56, 127
7, 14454, Note_on_c, 4, 52, 127
7, 14475, Note_on_c, 4, 52, 0
7, 14478, Note_on_c, 4, 56, 0
7, 14480, Note_on_c, 4, 61, 0
7, 14519, Note_on_c, 4, 80, 127
7, 14535, Note_on_c, 4, 80, 0
7, 14585, Note_on_c, 4, 80, 127
7, 14619, Note_on_c, 4, 80, 0
7, 14623, Note_on_c, 4, 78, 77
7, 14649, Note_on_c, 4, 76, 51
7, 14651, Note_on_c, 4, 78, 0
7, 14676, Note_on_c, 4, 76, 0
7, 14690, Note_on_c, 4, 73, 127
7, 14706, Note_on_c, 4, 73, 0
7, 14847, Note_on_c, 4, 73, 127
7, 14874, Note_on_c, 4, 73, 0
7, 14885, Note_on_c, 4, 76, 77
7, 14888, Note_on_c, 4, 61, 127
7, 14889, Note_on_c, 4, 52, 127
7, 14889, Note_on_c, 4, 56, 127
7, 14901, Note_on_c, 4, 52, 0
7, 14903, Note_on_c, 4, 56, 0
7, 14905, Note_on_c, 4, 61, 0
7, 14911, Note_on_c, 4, 78, 127
7, 14914, Note_on_c, 4, 76, 0
7, 14928, Note_on_c, 4, 78, 0
7, 14979, Note_on_c, 4, 61, 103
7, 14980, Note_on_c, 4, 56, 127
7, 14980, Note_on_c, 4, 52, 127
7, 15000, Note_on_c, 4, 52, 0
7, 15004, Note_on_c, 4, 56, 0
7, 15007, Note_on_c, 4, 61, 0
7, 15048, Note_on_c, 4, 80, 127
7, 15064, Note_on_c, 4, 80, 0
7, 15115, Note_on_c, 4, 76, 118
7, 15217, Note_on_c, 4, 76, 0
7, 15249, Note_on_c, 4, 59, 118
7, 15249, Note_on_c, 4, 54, 118
7, 15249, Note_on_c, 4, 62, 103
7, 15249, Note_on_c, 4, 78, 127
7, 15263, Note_on_c, 4, 54, 0
7, 15266, Note_on_c, 4, 59, 0
7, 15266, Note_on_c, 4, 78, 0
7, 15269, Note_on_c, 4, 62, 0
7, 15288, Note_on_c, 4, 62, 78
7, 15288, Note_on_c, 4, 54, 113
7, 15288, Note_on_c, 4, 59, 110
7, 15304, Note_on_c, 4, 54, 0
7, 15309, Note_on_c, 4, 59, 0
7, 15312, Note_on_c, 4, 62, 0
7, 15317, Note_on_c, 4, 73, 127
7, 15388, Note_on_c, 4, 54, 127
7, 15388, Note_on_c, 4, 59, 127
7, 15388, Note_on_c, 4, 62, 100
7, 15402, Note_on_c, 4, 54, 0
7, 15405, Note_on_c, 4, 59, 0
7, 15408, Note_on_c, 4, 62, 0
7, 15423, Note_on_c, 4, 62, 87
7, 15424, Note_on_c, 4, 73, 0
7, 15424, Note_on_c, 4, 54, 127
7, 15452, Note_on_c, 4, 76, 127
7, 15472, Note_on_c, 4, 76, 0
7, 15497, Note_on_c, 4, 62, 0
7, 15498, Note_on_c, 4, 54, 0
7, 15523, Note_on_c, 4, 61, 127
7, 15524, Note_on_c, 4, 52, 127
7, 15524, Note_on_c, 4, 56, 127
7, 15545, Note_on_c, 4, 52, 0
7, 15549, Note_on_c, 4, 56, 0
7, 15553, Note_on_c, 4, 61, 0
7, 15583, Note_on_c, 4, 80, 127
7, 15602, Note_on_c, 4, 80, 0
7, 15651, Note_on_c, 4, 80, 127
7, 15683, Note_on_c, 4, 80, 0
7, 15688, Note_on_c, 4, 78, 77
7, 15716, Note_on_c, 4, 78, 0
7, 15716, Note_on_c, 4, 76, 60
7, 15739, Note_on_c, 4, 76, 0
7, 15757, Note_on_c, 4, 73, 127
7, 15774, Note_on_c, 4, 73, 0
7, 15913, Note_on_c, 4, 73, 127
7, 15939, Note_on_c, 4, 73, 0
7, 15952, Note_on_c, 4, 76, 67
7, 15957, Note_on_c, 4, 61, 127
7, 15957, Note_on_c, 4, 56, 127
7, 15958, Note_on_c, 4, 52, 127
7, 15970, Note_on_c, 4, 52, 0
7, 15972, Note_on_c, 4, 56, 0
7, 15974, Note_on_c, 4, 61, 0
7, 15984, Note_on_c, 4, 76, 0
7, 15985, Note_on_c, 4, 78, 127
7, 16003, Note_on_c, 4, 78, 0
7, 16052, Note_on_c, 4, 61, 118
7, 16052, Note_on_c, 4, 56, 127
7, 16053, Note_on_c, 4, 52, 127
7, 16071, Note_on_c, 4, 52, 0
7, 16074, Note_on_c, 4, 56, 0
7, 16075, Note_on_c, 4, 61, 0
7, 16115, Note_on_c, 4, 80, 127
7, 16131, Note_on_c, 4, 80, 0
7, 16183, Note_on_c, 4, 80, 127
7, 16201, Note_on_c, 4, 80, 0
7, 16225, Note_on_c, 4, 76, 53
7, 16249, Note_on_c, 4, 73, 113
7, 16251, Note_on_c, 4, 76, 0
7, 16262, Note_on_c, 4, 73, 0
7, 16455, Note_on_c, 4, 73, 127
7, 16484, Note_on_c, 4, 73, 0
7, 16494, Note_on_c, 4, 76, 61
7, 16519, Note_on_c, 4, 78, 127
7, 16523, Note_on_c, 4, 76, 0
7, 16536, Note_on_c, 4, 78, 0
7, 16591, Note_on_c, 4, 61, 118
7, 16591, Note_on_c, 4, 56, 127
7, 16591, Note_on_c, 4, 52, 127
7, 16612, Note_on_c, 4, 52, 0
7, 16618, Note_on_c, 4, 56, 0
7, 16619, Note_on_c, 4, 61, 0
7, 16655, Note_on_c, 4, 80, 127
7, 16670, Note_on_c, 4, 80, 0
7, 16721, Note_on_c, 4, 80, 127
7, 16754, Note_on_c, 4, 80, 0
7, 16760, Note_on_c, 4, 78, 87
7, 16786, Note_on_c, 4, 78, 0
7, 16786, Note_on_c, 4, 76, 63
7, 16808, Note_on_c, 4, 76, 0
7, 16825, Note_on_c, 4, 73, 127
7, 16836, Note_on_c, 4, 73, 0
7, 16987, Note_on_c, 4, 73, 127
7, 17014, Note_on_c, 4, 73, 0
7, 17029, Note_on_c, 4, 52, 106
7, 17030, Note_on_c, 4, 61, 118
7, 17030, Note_on_c, 4, 56, 127
7, 17031, Note_on_c, 4, 76, 55
7, 17047, Note_on_c, 4, 52, 0
7, 17052, Note_on_c, 4, 56, 0
7, 17054, Note_on_c, 4, 61, 0
7, 17056, Note_on_c, 4, 76, 0
7, 17057, Note_on_c, 4, 78, 127
7, 17073, Note_on_c, 4, 78, 0
7, 17128, Note_on_c, 4, 61, 110
7, 17128, Note_on_c, 4, 52, 127
7, 17128, Note_on_c, 4, 56, 127
7, 17142, Note_on_c, 4, 52, 0
7, 17148, Note_on_c, 4, 61, 0
7, 17149, Note_on_c, 4, 56, 0
7, 17192, Note_on_c, 4, 80, 127
7, 17207, Note_on_c, 4, 80, 0
7, 17260, Note_on_c, 4, 76, 118
7, 17360, Note_on_c, 4, 76, 0
7, 17392, Note_on_c, 4, 54, 110
7, 17392, Note_on_c, 4, 78, 127
7, 17393, Note_on_c, 4, 59, 127
7, 17394, Note_on_c, 4, 62, 87
7, 17406, Note_on_c, 4, 54, 0
7, 17408, Note_on_c, 4, 59, 0
7, 17410, Note_on_c, 4, 78, 0
7, 17411, Note_on_c, 4, 62, 0
7, 17426, Note_on_c, 4, 62, 73
7, 17426, Note_on_c, 4, 59, 97
7, 17426, Note_on_c, 4, 54, 103
7, 17439, Note_on_c, 4, 54, 0
7, 17446, Note_on_c, 4, 59, 0
7, 17449, Note_on_c, 4, 62, 0
7, 17454, Note_on_c, 4, 73, 127
7, 17525, Note_on_c, 4, 54, 127
7, 17526, Note_on_c, 4, 59, 122
7, 17527, Note_on_c, 4, 62, 103
7, 17530, Note_on_c, 4, 73, 0
7, 17542, Note_on_c, 4, 54, 0
7, 17544, Note_on_c, 4, 59, 0
7, 17549, Note_on_c, 4, 62, 0
7, 17559, Note_on_c, 4, 59, 110
7, 17560, Note_on_c, 4, 54, 113
7, 17561, Note_on_c, 4, 62, 74
7, 17580, Note_on_c, 4, 62, 0
7, 17580, Note_on_c, 4, 54, 0
7, 17582, Note_on_c, 4, 59, 0
7, 17654, Note_on_c, 4, 56, 106
7, 17654, Note_on_c, 4, 61, 103
7, 17654, Note_on_c, 4, 52, 113
7, 17681, Note_on_c, 4, 52, 0
7, 17685, Note_on_c, 4, 61, 0
7, 17685, Note_on_c, 4, 56, 0
7, 17718, Note_on_c, 4, 78, 127
7, 17804, Note_on_c, 4, 78, 0
7, 17822, Note_on_c, 4, 69, 82
7, 17847, Note_on_c, 4, 71, 127
7, 17853, Note_on_c, 4, 69, 0
7, 17893, Note_on_c, 4, 71, 0
7, 17917, Note_on_c, 4, 73, 127
7, 17979, Note_on_c, 4, 73, 0
7, 18089, Note_on_c, 4, 56, 127
7, 18090, Note_on_c, 4, 61, 100
7, 18090, Note_on_c, 4, 52, 113
7, 18107, Note_on_c, 4, 61, 0
7, 18107, Note_on_c, 4, 56, 0
7, 18108, Note_on_c, 4, 52, 0
7, 18178, Note_on_c, 4, 61, 118
7, 18179, Note_on_c, 4, 56, 127
7, 18179, Note_on_c, 4, 52, 127
7, 18200, Note_on_c, 4, 52, 0
7, 18204, Note_on_c, 4, 56, 0
7, 18204, Note_on_c, 4, 61, 0
7, 18315, Note_on_c, 4, 69, 106
7, 18375, Note_on_c, 4, 69, 0
7, 18382, Note_on_c, 4, 71, 100
7, 18432, Note_on_c, 4, 71, 0
7, 18447, Note_on_c, 4, 69, 94
7, 18528, Note_on_c, 4, 69, 0
7, 18555, Note_on_c, 4, 66, 127
7, 18631, Note_on_c, 4, 66, 0
7, 18654, Note_on_c, 4, 61, 85
7, 18655, Note_on_c, 4, 56, 127
7, 18656, Note_on_c, 4, 52, 110
7, 18674, Note_on_c, 4, 52, 0
7, 18674, Note_on_c, 4, 56, 0
7, 18679, Note_on_c, 4, 61, 0
7, 18722, Note_on_c, 4, 56, 127
7, 18724, Note_on_c, 4, 61, 122
7, 18724, Note_on_c, 4, 52, 127
7, 18747, Note_on_c, 4, 52, 0
7, 18750, Note_on_c, 4, 56, 0
7, 18751, Note_on_c, 4, 61, 0
7, 18859, Note_on_c, 4, 69, 110
7, 18911, Note_on_c, 4, 69, 0
7, 18924, Note_on_c, 4, 73, 127
7, 18969, Note_on_c, 4, 73, 0
7, 19002, Note_on_c, 4, 78, 127
7, 19065, Note_on_c, 4, 78, 0
7, 19102, Note_on_c, 4, 69, 127
7, 19161, Note_on_c, 4, 61, 106
7, 19162, Note_on_c, 4, 56, 127
7, 19162, Note_on_c, 4, 52, 122
7, 19175, Note_on_c, 4, 52, 0
7, 19176, Note_on_c, 4, 69, 0
7, 19178, Note_on_c, 4, 56, 0
7, 19178, Note_on_c, 4, 61, 0
7, 19250, Note_on_c, 4, 66, 127
7, 19255, Note_on_c, 4, 61, 106
7, 19256, Note_on_c, 4, 56, 127
7, 19256, Note_on_c, 4, 52, 127
7, 19276, Note_on_c, 4, 52, 0
7, 19278, Note_on_c, 4, 56, 0
7, 19279, Note_on_c, 4, 61, 0
7, 19330, Note_on_c, 4, 66, 0
7, 19359, Note_on_c, 4, 66, 113
7, 19378, Note_on_c, 4, 66, 0
7, 19385, Note_on_c, 4, 68, 127
7, 19479, Note_on_c, 4, 68, 0
7, 19497, Note_on_c, 4, 68, 64
7, 19518, Note_on_c, 4, 68, 0
7, 19523, Note_on_c, 4, 69, 97
7, 19529, Note_on_c, 4, 54, 127
7, 19529, Note_on_c, 4, 62, 118
7, 19529, Note_on_c, 4, 59, 127
7, 19578, Note_on_c, 4, 69, 0
7, 19594, Note_on_c, 4, 71, 100
7, 19633, Note_on_c, 4, 54, 0
7, 19639, Note_on_c, 4, 59, 0
7, 19644, Note_on_c, 4, 62, 0
7, 19663, Note_on_c, 4, 54, 122
7, 19664, Note_on_c, 4, 62, 110
7, 19665, Note_on_c, 4, 59, 127
7, 19682, Note_on_c, 4, 71, 0
7, 19698, Note_on_c, 4, 73, 127
7, 19718, Note_on_c, 4, 54, 0
7, 19722, Note_on_c, 4, 59, 0
7, 19726, Note_on_c, 4, 62, 0
7, 19772, Note_on_c, 4, 73, 0
7, 19793, Note_on_c, 4, 56, 127
7, 19794, Note_on_c, 4, 61, 113
7, 19794, Note_on_c, 4, 52, 127
7, 19816, Note_on_c, 4, 52, 0
7, 19820, Note_on_c, 4, 56, 0
7, 19821, Note_on_c, 4, 61, 0
7, 19893, Note_on_c, 4, 69, 80
7, 19981, Note_on_c, 4, 69, 0
7, 19992, Note_on_c, 4, 73, 127
7, 20022, Note_on_c, 4, 73, 0
7, 20057, Note_on_c, 4, 69, 78
7, 20112, Note_on_c, 4, 69, 0
7, 20124, Note_on_c, 4, 71, 100
7, 20151, Note_on_c, 4, 71, 0
7, 20160, Note_on_c, 4, 69, 106
7, 20214, Note_on_c, 4, 69, 0
7, 20224, Note_on_c, 4, 61, 100
7, 20224, Note_on_c, 4, 52, 118
7, 20224, Note_on_c, 4, 56, 127
7, 20230, Note_on_c, 4, 66, 127
7, 20239, Note_on_c, 4, 52, 0
7, 20241, Note_on_c, 4, 56, 0
7, 20242, Note_on_c, 4, 61, 0
7, 20280, Note_on_c, 4, 66, 0
7, 20315, Note_on_c, 4, 61, 118
7, 20316, Note_on_c, 4, 56, 127
7, 20317, Note_on_c, 4, 52, 127
7, 20337, Note_on_c, 4, 52, 0
7, 20342, Note_on_c, 4, 56, 0
7, 20343, Note_on_c, 4, 61, 0
7, 20448, Note_on_c, 4, 70, 127
7, 20468, Note_on_c, 4, 70, 0
7, 20513, Note_on_c, 4, 78, 127
7, 20546, Note_on_c, 4, 78, 0
7, 20582, Note_on_c, 4, 73, 127
7, 20613, Note_on_c, 4, 73, 0
7, 20646, Note_on_c, 4, 69, 122
7, 20673, Note_on_c, 4, 69, 0
7, 20682, Note_on_c, 4, 71, 127
7, 20722, Note_on_c, 4, 71, 0
7, 20756, Note_on_c, 4, 66, 127
7, 20809, Note_on_c, 4, 66, 0
7, 20847, Note_on_c, 4, 61, 118
7, 20848, Note_on_c, 4, 52, 127
7, 20848, Note_on_c, 4, 56, 127
7, 20878, Note_on_c, 4, 52, 0
7, 20881, Note_on_c, 4, 56, 0
7, 20884, Note_on_c, 4, 61, 0
7, 20979, Note_on_c, 4, 69, 113
7, 21035, Note_on_c, 4, 69, 0
7, 21046, Note_on_c, 4, 73, 127
7, 21092, Note_on_c, 4, 73, 0
7, 21117, Note_on_c, 4, 71, 127
7, 21192, Note_on_c, 4, 71, 0
7, 21228, Note_on_c, 4, 69, 106
7, 21260, Note_on_c, 4, 69, 0
7, 21286, Note_on_c, 4, 61, 118
7, 21287, Note_on_c, 4, 52, 122
7, 21287, Note_on_c, 4, 56, 127
7, 21300, Note_on_c, 4, 52, 0
7, 21303, Note_on_c, 4, 61, 0
7, 21304, Note_on_c, 4, 56, 0
7, 21378, Note_on_c, 4, 61, 110
7, 21378, Note_on_c, 4, 52, 127
7, 21378, Note_on_c, 4, 66, 127
7, 21379, Note_on_c, 4, 56, 127
7, 21400, Note_on_c, 4, 52, 0
7, 21403, Note_on_c, 4, 61, 0
7, 21403, Note_on_c, 4, 56, 0
7, 21453, Note_on_c, 4, 66, 0
7, 21483, Note_on_c, 4, 66, 122
7, 21511, Note_on_c, 4, 68, 127
7, 21518, Note_on_c, 4, 66, 0
7, 21597, Note_on_c, 4, 68, 0
7, 21619, Note_on_c, 4, 68, 49
7, 21638, Note_on_c, 4, 68, 0
7, 21649, Note_on_c, 4, 54, 118
7, 21649, Note_on_c, 4, 69, 118
7, 21650, Note_on_c, 4, 59, 127
7, 21650, Note_on_c, 4, 62, 110
7, 21700, Note_on_c, 4, 69, 0
7, 21720, Note_on_c, 4, 71, 92
7, 21745, Note_on_c, 4, 54, 0
7, 21759, Note_on_c, 4, 59, 0
7, 21760, Note_on_c, 4, 71, 0
7, 21766, Note_on_c, 4, 62, 0
7, 21784, Note_on_c, 4, 62, 80
7, 21784, Note_on_c, 4, 54, 103
7, 21784, Note_on_c, 4, 59, 118
7, 21788, Note_on_c, 4, 73, 127
7, 21803, Note_on_c, 4, 54, 0
7, 21811, Note_on_c, 4, 59, 0
7, 21817, Note_on_c, 4, 62, 0
7, 21894, Note_on_c, 4, 73, 0
7, 21919, Note_on_c, 4, 56, 127
7, 21920, Note_on_c, 4, 61, 110
7, 21920, Note_on_c, 4, 52, 122
7, 21926, Note_on_c, 4, 69, 127
7, 21944, Note_on_c, 4, 52, 0
7, 21949, Note_on_c, 4, 61, 0
7, 21950, Note_on_c, 4, 56, 0
7, 22002, Note_on_c, 4, 69, 0
7, 22032, Note_on_c, 4, 66, 127
7, 22056, Note_on_c, 4, 66, 0
7, 22124, Note_on_c, 4, 73, 127
7, 22211, Note_on_c, 4, 73, 0
7, 22224, Note_on_c, 4, 69, 97
7, 22299, Note_on_c, 4, 69, 0
7, 22319, Note_on_c, 4, 76, 122
7, 22352, Note_on_c, 4, 56, 127
7, 22353, Note_on_c, 4, 61, 84
7, 22353, Note_on_c, 4, 52, 94
7, 22373, Note_on_c, 4, 52, 0
7, 22375, Note_on_c, 4, 56, 0
7, 22377, Note_on_c, 4, 61, 0
7, 22408, Note_on_c, 4, 76, 0
7, 22419, Note_on_c, 4, 73, 127
7, 22446, Note_on_c, 4, 61, 122
7, 22446, Note_on_c, 4, 52, 127
7, 22446, Note_on_c, 4, 56, 127
7, 22467, Note_on_c, 4, 52, 0
7, 22470, Note_on_c, 4, 56, 0
7, 22473, Note_on_c, 4, 61, 0
7, 22479, Note_on_c, 4, 73, 0
7, 22514, Note_on_c, 4, 80, 127
7, 22695, Note_on_c, 4, 80, 0
7, 22713, Note_on_c, 4, 80, 127
7, 22770, Note_on_c, 4, 80, 0
7, 22780, Note_on_c, 4, 80, 78
7, 22839, Note_on_c, 4, 80, 0
7, 22848, Note_on_c, 4, 78, 127
7, 22906, Note_on_c, 4, 78, 0
7, 22918, Note_on_c, 4, 76, 127
7, 22985, Note_on_c, 4, 52, 110
7, 22986, Note_on_c, 4, 56, 127
7, 22986, Note_on_c, 4, 61, 94
7, 23013, Note_on_c, 4, 52, 0
7, 23016, Note_on_c, 4, 56, 0
7, 23018, Note_on_c, 4, 61, 0
7, 23043, Note_on_c, 4, 76, 0
7, 23055, Note_on_c, 4, 78, 127
7, 23081, Note_on_c, 4, 78, 0
7, 23222, Note_on_c, 4, 74, 64
7, 23246, Note_on_c, 4, 76, 127
7, 23250, Note_on_c, 4, 74, 0
7, 23299, Note_on_c, 4, 76, 0
7, 23316, Note_on_c, 4, 76, 94
7, 23375, Note_on_c, 4, 76, 0
7, 23382, Note_on_c, 4, 74, 113
7, 23422, Note_on_c, 4, 61, 94
7, 23422, Note_on_c, 4, 52, 106
7, 23422, Note_on_c, 4, 56, 127
7, 23439, Note_on_c, 4, 52, 0
7, 23440, Note_on_c, 4, 74, 0
7, 23444, Note_on_c, 4, 56, 0
7, 23446, Note_on_c, 4, 61, 0
7, 23453, Note_on_c, 4, 73, 127
7, 23486, Note_on_c, 4, 73, 0
7, 23513, Note_on_c, 4, 61, 118
7, 23514, Note_on_c, 4, 56, 127
7, 23514, Note_on_c, 4, 52, 127
7, 23535, Note_on_c, 4, 52, 0
7, 23540, Note_on_c, 4, 56, 0
7, 23544, Note_on_c, 4, 61, 0
7, 23583, Note_on_c, 4, 73, 127
7, 23638, Note_on_c, 4, 73, 0
7, 23649, Note_on_c, 4, 71, 127
7, 23755, Note_on_c, 4, 71, 0
7, 23759, Note_on_c, 4, 69, 72
7, 23782, Note_on_c, 4, 71, 127
7, 23787, Note_on_c, 4, 54, 90
7, 23788, Note_on_c, 4, 62, 87
7, 23788, Note_on_c, 4, 59, 110
7, 23793, Note_on_c, 4, 69, 0
7, 23846, Note_on_c, 4, 71, 0
7, 23853, Note_on_c, 4, 73, 127
7, 23912, Note_on_c, 4, 73, 0
7, 23923, Note_on_c, 4, 69, 127
7, 23925, Note_on_c, 4, 54, 0
7, 23930, Note_on_c, 4, 59, 0
7, 23934, Note_on_c, 4, 62, 0
7, 23965, Note_on_c, 4, 54, 84
7, 23965, Note_on_c, 4, 59, 92
7, 23966, Note_on_c, 4, 62, 80
7, 23985, Note_on_c, 4, 59, 0
7, 23988, Note_on_c, 4, 54, 0
7, 23991, Note_on_c, 4, 69, 0
7, 23991, Note_on_c, 4, 62, 0
7, 24054, Note_on_c, 4, 52, 118
7, 24054, Note_on_c, 4, 61, 127
7, 24055, Note_on_c, 4, 56, 127
7, 24082, Note_on_c, 4, 52, 0
7, 24103, Note_on_c, 4, 56, 0
7, 24103, Note_on_c, 4, 61, 0
7, 24119, Note_on_c, 4, 69, 122
7, 24141, Note_on_c, 4, 69, 0
7, 24159, Note_on_c, 4, 66, 127
7, 24175, Note_on_c, 4, 66, 0
7, 24254, Note_on_c, 4, 73, 127
7, 24271, Note_on_c, 4, 73, 0
7, 24295, Note_on_c, 4, 69, 110
7, 24316, Note_on_c, 4, 69, 0
7, 24390, Note_on_c, 4, 76, 113
7, 24407, Note_on_c, 4, 76, 0
7, 24430, Note_on_c, 4, 73, 127
7, 24445, Note_on_c, 4, 73, 0
7, 24512, Note_on_c, 4, 61, 87
7, 24513, Note_on_c, 4, 56, 127
7, 24514, Note_on_c, 4, 52, 103
7, 24522, Note_on_c, 4, 80, 127
7, 24526, Note_on_c, 4, 52, 0
7, 24531, Note_on_c, 4, 56, 0
7, 24534, Note_on_c, 4, 61, 0
7, 24534, Note_on_c, 4, 80, 0
7, 24560, Note_on_c, 4, 76, 127
7, 24580, Note_on_c, 4, 76, 0
7, 24584, Note_on_c, 4, 56, 127
7, 24586, Note_on_c, 4, 61, 118
7, 24586, Note_on_c, 4, 52, 127
7, 24600, Note_on_c, 4, 52, 0
7, 24608, Note_on_c, 4, 56, 0
7, 24609, Note_on_c, 4, 61, 0
7, 24818, Note_on_c, 4, 76, 65
7, 24845, Note_on_c, 4, 78, 80
7, 24846, Note_on_c, 4, 79, 118
7, 24849, Note_on_c, 4, 76, 0
7, 24866, Note_on_c, 4, 78, 0
7, 24870, Note_on_c, 4, 79, 0
7, 24915, Note_on_c, 4, 80, 127
7, 24933, Note_on_c, 4, 80, 0
7, 24947, Note_on_c, 4, 81, 90
7, 24998, Note_on_c, 4, 81, 0
7, 25014, Note_on_c, 4, 83, 103
7, 25038, Note_on_c, 4, 83, 0
7, 25086, Note_on_c, 4, 80, 127
7, 25103, Note_on_c, 4, 80, 0
7, 25114, Note_on_c, 4, 61, 103
7, 25115, Note_on_c, 4, 52, 127
7, 25116, Note_on_c, 4, 56, 127
7, 25141, Note_on_c, 4, 52, 0
7, 25147, Note_on_c, 4, 56, 0
7, 25147, Note_on_c, 4, 61, 0
7, 25159, Note_on_c, 4, 78, 127
7, 25179, Note_on_c, 4, 78, 0
7, 25226, Note_on_c, 4, 76, 118
7, 25250, Note_on_c, 4, 76, 0
7, 25389, Note_on_c, 4, 78, 127
7, 25438, Note_on_c, 4, 78, 0
7, 25454, Note_on_c, 4, 76, 127
7, 25503, Note_on_c, 4, 76, 0
7, 25522, Note_on_c, 4, 74, 113
7, 25560, Note_on_c, 4, 56, 127
7, 25561, Note_on_c, 4, 61, 127
7, 25561, Note_on_c, 4, 52, 127
7, 25573, Note_on_c, 4, 74, 0
7, 25574, Note_on_c, 4, 52, 0
7, 25576, Note_on_c, 4, 56, 0
7, 25578, Note_on_c, 4, 61, 0
7, 25587, Note_on_c, 4, 73, 127
7, 25614, Note_on_c, 4, 73, 0
7, 25653, Note_on_c, 4, 61, 110
7, 25653, Note_on_c, 4, 56, 127
7, 25653, Note_on_c, 4, 52, 127
7, 25656, Note_on_c, 4, 73, 127
7, 25674, Note_on_c, 4, 52, 0
7, 25674, Note_on_c, 4, 56, 0
7, 25677, Note_on_c, 4, 61, 0
7, 25775, Note_on_c, 4, 73, 0
7, 25790, Note_on_c, 4, 74, 127
7, 25902, Note_on_c, 4, 74, 0
7, 25921, Note_on_c, 4, 62, 113
7, 25921, Note_on_c, 4, 54, 127
7, 25921, Note_on_c, 4, 59, 127
7, 25922, Note_on_c, 4, 76, 127
7, 25953, Note_on_c, 4, 76, 0
7, 25972, Note_on_c, 4, 54, 0
7, 25987, Note_on_c, 4, 78, 127
7, 26018, Note_on_c, 4, 59, 0
7, 26024, Note_on_c, 4, 62, 0
7, 26035, Note_on_c, 4, 78, 0
7, 26057, Note_on_c, 4, 58, 127
7, 26057, Note_on_c, 4, 62, 118
7, 26057, Note_on_c, 4, 76, 127
7, 26058, Note_on_c, 4, 54, 127
7, 26059, Note_on_c, 4, 59, 127
7, 26064, Note_on_c, 4, 58, 0
7, 26077, Note_on_c, 4, 54, 0
7, 26083, Note_on_c, 4, 76, 0
7, 26093, Note_on_c, 4, 59, 0
7, 26093, Note_on_c, 4, 74, 82
7, 26097, Note_on_c, 4, 62, 0
7, 26116, Note_on_c, 4, 76, 122
7, 26130, Note_on_c, 4, 74, 0
7, 26150, Note_on_c, 4, 74, 26
7, 26156, Note_on_c, 4, 78, 103
7, 26161, Note_on_c, 4, 76, 0
7, 26169, Note_on_c, 4, 74, 0
7, 26174, Note_on_c, 4, 78, 0
7, 26185, Note_on_c, 4, 80, 127
7, 26189, Note_on_c, 4, 61, 127
7, 26190, Note_on_c, 4, 52, 127
7, 26190, Note_on_c, 4, 56, 127
7, 26208, Note_on_c, 4, 52, 0
7, 26213, Note_on_c, 4, 56, 0
7, 26215, Note_on_c, 4, 61, 0
7, 26235, Note_on_c, 4, 80, 0
7, 26314, Note_on_c, 4, 80, 127
7, 26348, Note_on_c, 4, 80, 0
7, 26354, Note_on_c, 4, 78, 106
7, 26381, Note_on_c, 4, 76, 55
7, 26382, Note_on_c, 4, 78, 0
7, 26403, Note_on_c, 4, 76, 0
7, 26416, Note_on_c, 4, 73, 127
7, 26430, Note_on_c, 4, 73, 0
7, 26578, Note_on_c, 4, 73, 127
7, 26608, Note_on_c, 4, 73, 0
7, 26618, Note_on_c, 4, 76, 68
7, 26619, Note_on_c, 4, 56, 127
7, 26619, Note_on_c, 4, 61, 122
7, 26620, Note_on_c, 4, 52, 118
7, 26637, Note_on_c, 4, 52, 0
7, 26641, Note_on_c, 4, 56, 0
7, 26643, Note_on_c, 4, 61, 0
7, 26647, Note_on_c, 4, 78, 127
7, 26652, Note_on_c, 4, 76, 0
7, 26663, Note_on_c, 4, 78, 0
7, 26686, Note_on_c, 4, 80, 127
7, 26704, Note_on_c, 4, 80, 0
7, 26710, Note_on_c, 4, 61, 118
7, 26711, Note_on_c, 4, 56, 127
7, 26711, Note_on_c, 4, 52, 127
7, 26733, Note_on_c, 4, 52, 0
7, 26736, Note_on_c, 4, 56, 0
7, 26737, Note_on_c, 4, 61, 0
7, 26773, Note_on_c, 4, 80, 127
7, 26788, Note_on_c, 4, 80, 0
7, 26843, Note_on_c, 4, 80, 127
7, 26876, Note_on_c, 4, 80, 0
7, 26879, Note_on_c, 4, 78, 73
7, 26907, Note_on_c, 4, 78, 0
7, 26907, Note_on_c, 4, 76, 59
7, 26931, Note_on_c, 4, 76, 0
7, 26945, Note_on_c, 4, 73, 127
7, 26963, Note_on_c, 4, 73, 0
7, 27113, Note_on_c, 4, 73, 127
7, 27141, Note_on_c, 4, 73, 0
7, 27153, Note_on_c, 4, 76, 68
7, 27179, Note_on_c, 4, 78, 113
7, 27185, Note_on_c, 4, 76, 0
7, 27196, Note_on_c, 4, 78, 0
7, 27218, Note_on_c, 4, 80, 113
7, 27238, Note_on_c, 4, 80, 0
7, 27241, Note_on_c, 4, 61, 122
7, 27242, Note_on_c, 4, 56, 127
7, 27242, Note_on_c, 4, 52, 127
7, 27267, Note_on_c, 4, 52, 0
7, 27269, Note_on_c, 4, 56, 0
7, 27270, Note_on_c, 4, 61, 0
7, 27307, Note_on_c, 4, 80, 122
7, 27322, Note_on_c, 4, 80, 0
7, 27375, Note_on_c, 4, 80, 127
7, 27404, Note_on_c, 4, 80, 0
7, 27412, Note_on_c, 4, 78, 59
7, 27438, Note_on_c, 4, 78, 0
7, 27440, Note_on_c, 4, 76, 53
7, 27463, Note_on_c, 4, 76, 0
7, 27477, Note_on_c, 4, 73, 127
7, 27495, Note_on_c, 4, 73, 0
7, 27641, Note_on_c, 4, 73, 103
7, 27673, Note_on_c, 4, 73, 0
7, 27682, Note_on_c, 4, 76, 46
7, 27686, Note_on_c, 4, 61, 118
7, 27686, Note_on_c, 4, 56, 127
7, 27686, Note_on_c, 4, 52, 127
7, 27703, Note_on_c, 4, 52, 0
7, 27707, Note_on_c, 4, 56, 0
7, 27709, Note_on_c, 4, 61, 0
7, 27709, Note_on_c, 4, 78, 110
7, 27715, Note_on_c, 4, 76, 0
7, 27731, Note_on_c, 4, 78, 0
7, 27746, Note_on_c, 4, 80, 106
7, 27766, Note_on_c, 4, 80, 0
7, 27780, Note_on_c, 4, 61, 127
7, 27780, Note_on_c, 4, 52, 127
7, 27781, Note_on_c, 4, 56, 127
7, 27799, Note_on_c, 4, 52, 0
7, 27803, Note_on_c, 4, 56, 0
7, 27804, Note_on_c, 4, 61, 0
7, 27844, Note_on_c, 4, 80, 127
7, 27864, Note_on_c, 4, 80, 0
7, 27912, Note_on_c, 4, 76, 118
7, 28013, Note_on_c, 4, 76, 0
7, 28047, Note_on_c, 4, 78, 127
7, 28051, Note_on_c, 4, 54, 127
7, 28052, Note_on_c, 4, 62, 113
7, 28052, Note_on_c, 4, 59, 127
7, 28064, Note_on_c, 4, 54, 0
7, 28065, Note_on_c, 4, 78, 0
7, 28066, Note_on_c, 4, 59, 0
7, 28069, Note_on_c, 4, 62, 0
7, 28084, Note_on_c, 4, 62, 90
7, 28085, Note_on_c, 4, 54, 127
7, 28086, Note_on_c, 4, 59, 118
7, 28103, Note_on_c, 4, 54, 0
7, 28106, Note_on_c, 4, 59, 0
7, 28112, Note_on_c, 4, 62, 0
7, 28117, Note_on_c, 4, 73, 127
7, 28187, Note_on_c, 4, 54, 127
7, 28187, Note_on_c, 4, 59, 127
7, 28187, Note_on_c, 4, 62, 113
7, 28201, Note_on_c, 4, 54, 0
7, 28204, Note_on_c, 4, 59, 0
7, 28206, Note_on_c, 4, 62, 0
7, 28218, Note_on_c, 4, 59, 127
7, 28219, Note_on_c, 4, 62, 84
7, 28219, Note_on_c, 4, 54, 106
7, 28231, Note_on_c, 4, 73, 0
7, 28234, Note_on_c, 4, 54, 0
7, 28242, Note_on_c, 4, 59, 0
7, 28243, Note_on_c, 4, 62, 0
7, 28254, Note_on_c, 4, 76, 113
7, 28278, Note_on_c, 4, 76, 0
7, 28321, Note_on_c, 4, 52, 127
7, 28321, Note_on_c, 4, 56, 127
7, 28321, Note_on_c, 4, 61, 127
7, 28343, Note_on_c, 4, 52, 0
7, 28348, Note_on_c, 4, 56, 0
7, 28350, Note_on_c, 4, 61, 0
7, 28390, Note_on_c, 4, 80, 127
7, 28404, Note_on_c, 4, 80, 0
7, 28458, Note_on_c, 4, 80, 127
7, 28492, Note_on_c, 4, 80, 0
7, 28496, Note_on_c, 4, 78, 53
7, 28520, Note_on_c, 4, 76, 51
7, 28521, Note_on_c, 4, 78, 0
7, 28542, Note_on_c, 4, 76, 0
7, 28560, Note_on_c, 4, 73, 127
7, 28572, Note_on_c, 4, 73, 0
7, 28718, Note_on_c, 4, 73, 122
7, 28746, Note_on_c, 4, 73, 0
7, 28759, Note_on_c, 4, 76, 56
7, 28762, Note_on_c, 4, 61, 110
7, 28762, Note_on_c, 4, 52, 122
7, 28762, Note_on_c, 4, 56, 127
7, 28778, Note_on_c, 4, 52, 0
7, 28779, Note_on_c, 4, 56, 0
7, 28782, Note_on_c, 4, 61, 0
7, 28787, Note_on_c, 4, 78, 118
7, 28790, Note_on_c, 4, 76, 0
7, 28806, Note_on_c, 4, 78, 0
7, 28850, Note_on_c, 4, 61, 122
7, 28851, Note_on_c, 4, 56, 127
7, 28851, Note_on_c, 4, 52, 127
7, 28872, Note_on_c, 4, 52, 0
7, 28876, Note_on_c, 4, 56, 0
7, 28877, Note_on_c, 4, 61, 0
7, 28916, Note_on_c, 4, 80, 127
7, 28933, Note_on_c, 4, 80, 0
7, 28983, Note_on_c, 4, 80, 127
7, 29013, Note_on_c, 4, 80, 0
7, 29021, Note_on_c, 4, 78, 47
7, 29046, Note_on_c, 4, 78, 0
7, 29047, Note_on_c, 4, 76, 45
7, 29070, Note_on_c, 4, 76, 0
7, 29090, Note_on_c, 4, 73, 122
7, 29103, Note_on_c, 4, 73, 0
7, 29256, Note_on_c, 4, 73, 127
7, 29290, Note_on_c, 4, 73, 0
7, 29297, Note_on_c, 4, 76, 58
7, 29323, Note_on_c, 4, 78, 103
7, 29327, Note_on_c, 4, 56, 127
7, 29327, Note_on_c, 4, 61, 127
7, 29328, Note_on_c, 4, 76, 0
7, 29328, Note_on_c, 4, 52, 127
7, 29339, Note_on_c, 4, 52, 0
7, 29342, Note_on_c, 4, 78, 0
7, 29346, Note_on_c, 4, 56, 0
7, 29346, Note_on_c, 4, 61, 0
7, 29394, Note_on_c, 4, 61, 122
7, 29394, Note_on_c, 4, 56, 127
7, 29395, Note_on_c, 4, 52, 127
7, 29416, Note_on_c, 4, 52, 0
7, 29420, Note_on_c, 4, 56, 0
7, 29421, Note_on_c, 4, 61, 0
7, 29455, Note_on_c, 4, 80, 127
7, 29473, Note_on_c, 4, 80, 0
7, 29523, Note_on_c, 4, 80, 127
7, 29559, Note_on_c, 4, 80, 0
7, 29564, Note_on_c, 4, 78, 46
7, 29590, Note_on_c, 4, 78, 0
7, 29591, Note_on_c, 4, 76, 38
7, 29612, Note_on_c, 4, 76, 0
7, 29630, Note_on_c, 4, 73, 127
7, 29644, Note_on_c, 4, 73, 0
7, 29793, Note_on_c, 4, 73, 127
7, 29824, Note_on_c, 4, 73, 0
7, 29831, Note_on_c, 4, 56, 127
7, 29832, Note_on_c, 4, 61, 127
7, 29833, Note_on_c, 4, 52, 127
7, 29833, Note_on_c, 4, 76, 60
7, 29848, Note_on_c, 4, 52, 0
7, 29852, Note_on_c, 4, 56, 0
7, 29853, Note_on_c, 4, 61, 0
7, 29858, Note_on_c, 4, 78, 106
7, 29864, Note_on_c, 4, 76, 0
7, 29878, Note_on_c, 4, 78, 0
7, 29922, Note_on_c, 4, 61, 122
7, 29922, Note_on_c, 4, 56, 127
7, 29922, Note_on_c, 4, 52, 127
7, 29938, Note_on_c, 4, 52, 0
7, 29948, Note_on_c, 4, 56, 0
7, 29949, Note_on_c, 4, 61, 0
7, 29990, Note_on_c, 4, 78, 127
7, 30004, Note_on_c, 4, 78, 0
7, 30056, Note_on_c, 4, 80, 127
7, 30075, Note_on_c, 4, 80, 0
7, 30095, Note_on_c, 4, 78, 127
7, 30108, Note_on_c, 4, 78, 0
7, 30119, Note_on_c, 4, 76, 70
7, 30143, Note_on_c, 4, 76, 0
7, 30185, Note_on_c, 4, 78, 127
7, 30188, Note_on_c, 4, 54, 110
7, 30188, Note_on_c, 4, 59, 122
7, 30188, Note_on_c, 4, 62, 100
7, 30201, Note_on_c, 4, 54, 0
7, 30204, Note_on_c, 4, 78, 0
7, 30204, Note_on_c, 4, 59, 0
7, 30207, Note_on_c, 4, 62, 0
7, 30221, Note_on_c, 4, 59, 127
7, 30222, Note_on_c, 4, 62, 87
7, 30223, Note_on_c, 4, 54, 113
7, 30224, Note_on_c, 4, 76, 48
7, 30237, Note_on_c, 4, 54, 0
7, 30241, Note_on_c, 4, 59, 0
7, 30245, Note_on_c, 4, 62, 0
7, 30249, Note_on_c, 4, 73, 97
7, 30251, Note_on_c, 4, 76, 0
7, 30260, Note_on_c, 4, 73, 0
7, 30321, Note_on_c, 4, 78, 127
7, 30324, Note_on_c, 4, 59, 127
7, 30324, Note_on_c, 4, 54, 127
7, 30324, Note_on_c, 4, 62, 103
7, 30336, Note_on_c, 4, 54, 0
7, 30336, Note_on_c, 4, 78, 0
7, 30340, Note_on_c, 4, 59, 0
7, 30340, Note_on_c, 4, 62, 0
7, 30356, Note_on_c, 4, 59, 127
7, 30356, Note_on_c, 4, 76, 52
7, 30357, Note_on_c, 4, 62, 94
7, 30357, Note_on_c, 4, 54, 127
7, 30376, Note_on_c, 4, 54, 0
7, 30377, Note_on_c, 4, 62, 0
7, 30377, Note_on_c, 4, 73, 110
7, 30378, Note_on_c, 4, 59, 0
7, 30383, Note_on_c, 4, 76, 0
7, 30391, Note_on_c, 4, 73, 0
7, 30456, Note_on_c, 4, 61, 127
7, 30457, Note_on_c, 4, 52, 127
7, 30458, Note_on_c, 4, 56, 127
7, 30477, Note_on_c, 4, 52, 0
7, 30482, Note_on_c, 4, 56, 0
7, 30484, Note_on_c, 4, 61, 0
7, 30522, Note_on_c, 4, 80, 127
7, 30536, Note_on_c, 4, 80, 0
7, 30587, Note_on_c, 4, 76, 97
7, 30597, Note_on_c, 4, 76, 0
7, 30654, Note_on_c, 4, 80, 127
7, 30667, Note_on_c, 4, 80, 0
7, 30692, Note_on_c, 4, 78, 103
7, 30699, Note_on_c, 4, 78, 0
7, 30760, Note_on_c, 4, 73, 127
7, 30769, Note_on_c, 4, 73, 0
7, 30890, Note_on_c, 4, 61, 103
7, 30890, Note_on_c, 4, 52, 113
7, 30890, Note_on_c, 4, 56, 127
7, 30892, Note_on_c, 4, 73, 103
7, 30903, Note_on_c, 4, 52, 0
7, 30904, Note_on_c, 4, 73, 0
7, 30908, Note_on_c, 4, 56, 0
7, 30909, Note_on_c, 4, 61, 0
7, 30914, Note_on_c, 4, 76, 67
7, 30946, Note_on_c, 4, 76, 0
7, 30978, Note_on_c, 4, 52, 127
7, 30979, Note_on_c, 4, 61, 103
7, 30979, Note_on_c, 4, 56, 127
7, 31000, Note_on_c, 4, 52, 0
7, 31002, Note_on_c, 4, 61, 0
7, 31005, Note_on_c, 4, 56, 0
7, 31043, Note_on_c, 4, 80, 127
7, 31055, Note_on_c, 4, 80, 0
7, 31109, Note_on_c, 4, 80, 127
7, 31122, Note_on_c, 4, 80, 0
7, 31172, Note_on_c, 4, 76, 72
7, 31191, Note_on_c, 4, 76, 0
7, 31211, Note_on_c, 4, 78, 127
7, 31222, Note_on_c, 4, 78, 0
7, 31278, Note_on_c, 4, 73, 127
7, 31286, Note_on_c, 4, 73, 0
7, 31416, Note_on_c, 4, 73, 110
7, 31431, Note_on_c, 4, 73, 0
7, 31436, Note_on_c, 4, 56, 127
7, 31437, Note_on_c, 4, 52, 92
7, 31437, Note_on_c, 4, 61, 92
7, 31439, Note_on_c, 4, 76, 80
7, 31453, Note_on_c, 4, 52, 0
7, 31465, Note_on_c, 4, 76, 0
7, 31478, Note_on_c, 4, 78, 127
7, 31490, Note_on_c, 4, 78, 0
7, 31494, Note_on_c, 4, 56, 0
7, 31496, Note_on_c, 4, 61, 0
7, 31508, Note_on_c, 4, 61, 84
7, 31508, Note_on_c, 4, 56, 127
7, 31508, Note_on_c, 4, 52, 127
7, 31530, Note_on_c, 4, 52, 0
7, 31532, Note_on_c, 4, 56, 0
7, 31532, Note_on_c, 4, 61, 0
7, 31572, Note_on_c, 4, 80, 127
7, 31586, Note_on_c, 4, 80, 0
7, 31638, Note_on_c, 4, 80, 127
7, 31652, Note_on_c, 4, 80, 0
7, 31706, Note_on_c, 4, 76, 80
7, 31724, Note_on_c, 4, 76, 0
7, 31743, Note_on_c, 4, 78, 127
7, 31755, Note_on_c, 4, 78, 0
7, 31810, Note_on_c, 4, 73, 127
7, 31826, Note_on_c, 4, 73, 0
7, 31954, Note_on_c, 4, 61, 100
7, 31955, Note_on_c, 4, 52, 110
7, 31955, Note_on_c, 4, 56, 127
7, 31958, Note_on_c, 4, 73, 103
7, 31968, Note_on_c, 4, 73, 0
7, 31982, Note_on_c, 4, 76, 57
7, 32008, Note_on_c, 4, 76, 0
7, 32010, Note_on_c, 4, 52, 0
7, 32019, Note_on_c, 4, 61, 0
7, 32021, Note_on_c, 4, 78, 127
7, 32024, Note_on_c, 4, 56, 0
7, 32032, Note_on_c, 4, 78, 0
7, 32043, Note_on_c, 4, 56, 127
7, 32044, Note_on_c, 4, 61, 113
7, 32044, Note_on_c, 4, 52, 127
7, 32057, Note_on_c, 4, 52, 0
7, 32062, Note_on_c, 4, 56, 0
7, 32064, Note_on_c, 4, 61, 0
7, 32108, Note_on_c, 4, 80, 127
7, 32124, Note_on_c, 4, 80, 0
7, 32177, Note_on_c, 4, 76, 122
7, 32264, Note_on_c, 4, 76, 0
7, 32308, Note_on_c, 4, 78, 127
7, 32315, Note_on_c, 4, 54, 77
7, 32315, Note_on_c, 4, 59, 106
7, 32315, Note_on_c, 4, 62, 87
7, 32324, Note_on_c, 4, 78, 0
7, 32325, Note_on_c, 4, 54, 0
7, 32330, Note_on_c, 4, 59, 0
7, 32334, Note_on_c, 4, 62, 0
7, 32348, Note_on_c, 4, 59, 118
7, 32348, Note_on_c, 4, 62, 80
7, 32349, Note_on_c, 4, 54, 84
7, 32362, Note_on_c, 4, 54, 0
7, 32372, Note_on_c, 4, 59, 0
7, 32376, Note_on_c, 4, 62, 0
7, 32379, Note_on_c, 4, 73, 127
7, 32451, Note_on_c, 4, 54, 106
7, 32452, Note_on_c, 4, 59, 113
7, 32452, Note_on_c, 4, 62, 110
7, 32465, Note_on_c, 4, 54, 0
7, 32468, Note_on_c, 4, 59, 0
7, 32470, Note_on_c, 4, 62, 0
7, 32483, Note_on_c, 4, 62, 72
7, 32483, Note_on_c, 4, 54, 97
7, 32483, Note_on_c, 4, 59, 122
7, 32501, Note_on_c, 4, 54, 0
7, 32502, Note_on_c, 4, 59, 0
7, 32505, Note_on_c, 4, 73, 0
7, 32506, Note_on_c, 4, 62, 0
7, 32517, Note_on_c, 4, 76, 97
7, 32540, Note_on_c, 4, 76, 0
7, 32583, Note_on_c, 4, 52, 127
7, 32583, Note_on_c, 4, 56, 127
7, 32584, Note_on_c, 4, 61, 118
7, 32603, Note_on_c, 4, 52, 0
7, 32606, Note_on_c, 4, 56, 0
7, 32608, Note_on_c, 4, 61, 0
7, 33047, Note_on_c, 4, 56, 127
7, 33047, Note_on_c, 4, 61, 94
7, 33048, Note_on_c, 4, 52, 110
7, 33063, Note_on_c, 4, 52, 0
7, 33067, Note_on_c, 4, 56, 0
7, 33069, Note_on_c, 4, 61, 0
7, 33113, Note_on_c, 4, 61, 113
7, 33113, Note_on_c, 4, 52, 127
7, 33113, Note_on_c, 4, 56, 127
7, 33134, Note_on_c, 4, 52, 0
7, 33136, Note_on_c, 4, 56, 0
7, 33139, Note_on_c, 4, 61, 0
7, 33632, Note_on_c, 4, 61, 47
7, 33636, Note_on_c, 4, 52, 87
7, 33653, Note_on_c, 4, 52, 0
7, 33660, Note_on_c, 4, 52, 84
7, 33663, Note_on_c, 4, 56, 127
7, 33688, Note_on_c, 4, 52, 0
7, 33693, Note_on_c, 4, 56, 0
7, 33704, Note_on_c, 4, 61, 0
7, 33767, Note_on_c, 4, 61, 77
7, 33768, Note_on_c, 4, 56, 94
7, 33770, Note_on_c, 4, 52, 78
7, 33785, Note_on_c, 4, 56, 0
7, 33788, Note_on_c, 4, 52, 0
7, 33796, Note_on_c, 4, 61, 0
7, 34162, Note_on_c, 4, 61, 65
7, 34164, Note_on_c, 4, 52, 84
7, 34188, Note_on_c, 4, 56, 127
7, 34232, Note_on_c, 4, 52, 0
7, 34238, Note_on_c, 4, 56, 0
7, 34247, Note_on_c, 4, 61, 0
7, 34287, Note_on_c, 4, 61, 103
7, 34287, Note_on_c, 4, 52, 127
7, 34288, Note_on_c, 4, 56, 127
7, 34294, Note_on_c, 4, 56, 0
7, 34308, Note_on_c, 4, 52, 0
7, 34309, Note_on_c, 4, 61, 0
7, 34448, Note_on_c, 4, 59, 103
7, 34450, Note_on_c, 4, 54, 92
7, 34450, Note_on_c, 4, 62, 73
7, 34452, Note_on_c, 4, 60, 84
7, 34462, Note_on_c, 4, 54, 0
7, 34464, Note_on_c, 4, 60, 0
7, 34470, Note_on_c, 4, 59, 0
7, 34472, Note_on_c, 4, 62, 0
7, 34486, Note_on_c, 4, 59, 113
7, 34488, Note_on_c, 4, 62, 76
7, 34488, Note_on_c, 4, 54, 84
7, 34507, Note_on_c, 4, 54, 0
7, 34513, Note_on_c, 4, 59, 0
7, 34517, Note_on_c, 4, 62, 0
7, 34560, Note_on_c, 4, 54, 94
7, 34560, Note_on_c, 4, 62, 85
7, 34562, Note_on_c, 4, 59, 122
7, 34573, Note_on_c, 4, 59, 0
7, 34589, Note_on_c, 4, 59, 74
7, 34601, Note_on_c, 4, 54, 0
7, 34607, Note_on_c, 4, 62, 0
7, 34637, Note_on_c, 4, 59, 0
7, 34649, Note_on_c, 4, 54, 87
7, 34649, Note_on_c, 4, 62, 69
7, 34654, Note_on_c, 4, 59, 118
7, 34668, Note_on_c, 4, 59, 0
7, 34674, Note_on_c, 4, 62, 0
7, 34674, Note_on_c, 4, 54, 0
7, 34717, Note_on_c, 4, 56, 127
7, 34718, Note_on_c, 4, 61, 113
7, 34720, Note_on_c, 4, 52, 82
7, 34721, Note_on_c, 4, 53, 80
7, 34731, Note_on_c, 4, 53, 0
7, 34732, Note_on_c, 4, 52, 0
7, 34741, Note_on_c, 4, 56, 0
7, 34745, Note_on_c, 4, 61, 0
7, 35155, Note_on_c, 4, 61, 78
7, 35156, Note_on_c, 4, 52, 94
7, 35237, Note_on_c, 4, 52, 0
7, 35238, Note_on_c, 4, 61, 0
7, 35250, Note_on_c, 4, 61, 97
7, 35250, Note_on_c, 4, 52, 113
7, 35250, Note_on_c, 4, 56, 122
7, 35272, Note_on_c, 4, 52, 0
7, 35275, Note_on_c, 4, 56, 0
7, 35276, Note_on_c, 4, 61, 0
7, 35690, Note_on_c, 4, 61, 103
7, 35690, Note_on_c, 4, 52, 118
7, 35765, Note_on_c, 4, 52, 0
7, 35767, Note_on_c, 4, 61, 0
7, 35782, Note_on_c, 4, 61, 85
7, 35782, Note_on_c, 4, 56, 127
7, 35782, Note_on_c, 4, 52, 118
7, 35805, Note_on_c, 4, 52, 0
7, 35807, Note_on_c, 4, 56, 0
7, 35808, Note_on_c, 4, 61, 0
7, 35833, Note_on_c, 4, 51, 36
7, 35845, Note_on_c, 4, 51, 0
7, 36224, Note_on_c, 4, 61, 106
7, 36224, Note_on_c, 4, 52, 118
7, 36226, Note_on_c, 4, 56, 113
7, 36233, Note_on_c, 4, 56, 0
7, 36300, Note_on_c, 4, 52, 0
7, 36304, Note_on_c, 4, 61, 0
7, 36315, Note_on_c, 4, 61, 94
7, 36316, Note_on_c, 4, 56, 127
7, 36316, Note_on_c, 4, 52, 127
7, 36332, Note_on_c, 4, 52, 0
7, 36337, Note_on_c, 4, 56, 0
7, 36339, Note_on_c, 4, 61, 0
7, 36584, Note_on_c, 4, 59, 127
7, 36585, Note_on_c, 4, 54, 103
7, 36586, Note_on_c, 4, 62, 92
7, 36599, Note_on_c, 4, 54, 0
7, 36603, Note_on_c, 4, 59, 0
7, 36605, Note_on_c, 4, 62, 0
7, 36619, Note_on_c, 4, 59, 106
7, 36620, Note_on_c, 4, 62, 78
7, 36621, Note_on_c, 4, 54, 87
7, 36640, Note_on_c, 4, 54, 0
7, 36642, Note_on_c, 4, 59, 0
7, 36647, Note_on_c, 4, 62, 0
7, 36719, Note_on_c, 4, 54, 97
7, 36720, Note_on_c, 4, 59, 87
7, 36720, Note_on_c, 4, 62, 87
7, 36722, Note_on_c, 4, 60, 61
7, 36727, Note_on_c, 4, 54, 0
7, 36734, Note_on_c, 4, 60, 0
7, 36737, Note_on_c, 4, 59, 0
7, 36743, Note_on_c, 4, 62, 0
7, 36756, Note_on_c, 4, 62, 80
7, 36756, Note_on_c, 4, 59, 127
7, 36757, Note_on_c, 4, 54, 100
7, 36779, Note_on_c, 4, 54, 0
7, 36779, Note_on_c, 4, 59, 0
7, 36780, Note_on_c, 4, 62, 0
7, 36850, Note_on_c, 4, 56, 127
7, 36851, Note_on_c, 4, 61, 118
7, 36851, Note_on_c, 4, 52, 118
7, 36868, Note_on_c, 4, 52, 0
7, 36872, Note_on_c, 4, 61, 0
7, 36873, Note_on_c, 4, 56, 0
7, 37284, Note_on_c, 4, 61, 82
7, 37284, Note_on_c, 4, 52, 97
7, 37359, Note_on_c, 4, 52, 0
7, 37363, Note_on_c, 4, 61, 0
7, 37380, Note_on_c, 4, 61, 106
7, 37381, Note_on_c, 4, 52, 118
7, 37382, Note_on_c, 4, 56, 127
7, 37404, Note_on_c, 4, 52, 0
7, 37405, Note_on_c, 4, 56, 0
7, 37408, Note_on_c, 4, 61, 0
7, 37851, Note_on_c, 4, 61, 80
7, 37851, Note_on_c, 4, 52, 94
7, 37852, Note_on_c, 4, 56, 78
7, 37892, Note_on_c, 4, 52, 0
7, 37901, Note_on_c, 4, 61, 0
7, 37902, Note_on_c, 4, 56, 0
7, 37916, Note_on_c, 4, 61, 94
7, 37917, Note_on_c, 4, 52, 127
7, 37918, Note_on_c, 4, 56, 127
7, 37931, Note_on_c, 4, 56, 0
7, 37945, Note_on_c, 4, 52, 0
7, 37949, Note_on_c, 4, 61, 0
7, 38350, Note_on_c, 4, 56, 127
7, 38350, Note_on_c, 4, 61, 118
7, 38350, Note_on_c, 4, 52, 122
7, 38378, Note_on_c, 4, 52, 0
7, 38388, Note_on_c, 4, 52, 30
7, 38410, Note_on_c, 4, 52, 0
7, 38418, Note_on_c, 4, 56, 0
7, 38419, Note_on_c, 4, 61, 0
7, 38444, Note_on_c, 4, 61, 113
7, 38445, Note_on_c, 4, 56, 127
7, 38445, Note_on_c, 4, 52, 127
7, 38459, Note_on_c, 4, 52, 0
7, 38465, Note_on_c, 4, 56, 0
7, 38469, Note_on_c, 4, 61, 0
7, 38712, Note_on_c, 4, 54, 100
7, 38712, Note_on_c, 4, 59, 113
7, 38712, Note_on_c, 4, 62, 90
7, 38728, Note_on_c, 4, 54, 0
7, 38732, Note_on_c, 4, 59, 0
7, 38737, Note_on_c, 4, 62, 0
7, 38746, Note_on_c, 4, 62, 73
7, 38747, Note_on_c, 4, 54, 106
7, 38747, Note_on_c, 4, 59, 118
7, 38766, Note_on_c, 4, 54, 0
7, 38771, Note_on_c, 4, 59, 0
7, 38776, Note_on_c, 4, 62, 0
7, 38852, Note_on_c, 4, 54, 122
7, 38853, Note_on_c, 4, 59, 122
7, 38854, Note_on_c, 4, 62, 100
7, 38866, Note_on_c, 4, 54, 0
7, 38870, Note_on_c, 4, 59, 0
7, 38872, Note_on_c, 4, 62, 0
7, 38881, Note_on_c, 4, 59, 94
7, 38883, Note_on_c, 4, 62, 56
7, 38883, Note_on_c, 4, 54, 100
7, 38897, Note_on_c, 4, 54, 0
7, 38905, Note_on_c, 4, 59, 0
7, 38906, Note_on_c, 4, 62, 0
7, 38984, Note_on_c, 4, 66, 127
7, 38992, Note_on_c, 4, 62, 69
7, 38994, Note_on_c, 4, 60, 80
7, 38994, Note_on_c, 4, 59, 87
7, 39005, Note_on_c, 4, 66, 0
7, 39048, Note_on_c, 4, 59, 0
7, 39048, Note_on_c, 4, 60, 0
7, 39055, Note_on_c, 4, 62, 0
7, 39091, Note_on_c, 4, 62, 59
7, 39091, Note_on_c, 4, 59, 77
7, 39092, Note_on_c, 4, 54, 69
7, 39094, Note_on_c, 4, 66, 113
7, 39110, Note_on_c, 4, 54, 0
7, 39115, Note_on_c, 4, 59, 0
7, 39118, Note_on_c, 4, 62, 0
7, 39118, Note_on_c, 4, 66, 0
7, 39188, Note_on_c, 4, 66, 127
7, 39226, Note_on_c, 4, 66, 0
7, 39320, Note_on_c, 4, 66, 127
7, 39372, Note_on_c, 4, 66, 0
7, 39383, Note_on_c, 4, 59, 113
7, 39383, Note_on_c, 4, 54, 100
7, 39384, Note_on_c, 4, 62, 80
7, 39387, Note_on_c, 4, 64, 127
7, 39410, Note_on_c, 4, 64, 0
7, 39431, Note_on_c, 4, 59, 0
7, 39434, Note_on_c, 4, 62, 0
7, 39436, Note_on_c, 4, 54, 0
7, 39453, Note_on_c, 4, 62, 106
7, 39472, Note_on_c, 4, 62, 0
7, 39516, Note_on_c, 4, 54, 85
7, 39518, Note_on_c, 4, 49, 97
7, 39518, Note_on_c, 4, 57, 85
7, 39521, Note_on_c, 4, 61, 127
7, 39556, Note_on_c, 4, 61, 0
7, 39584, Note_on_c, 4, 49, 0
7, 39586, Note_on_c, 4, 54, 0
7, 39592, Note_on_c, 4, 57, 0
7, 39616, Note_on_c, 4, 49, 118
7, 39616, Note_on_c, 4, 54, 127
7, 39616, Note_on_c, 4, 57, 106
7, 39628, Note_on_c, 4, 61, 127
7, 39632, Note_on_c, 4, 49, 0
7, 39633, Note_on_c, 4, 54, 0
7, 39639, Note_on_c, 4, 57, 0
7, 39648, Note_on_c, 4, 61, 0
7, 39718, Note_on_c, 4, 61, 127
7, 39740, Note_on_c, 4, 61, 0
7, 39852, Note_on_c, 4, 54, 16
7, 39852, Note_on_c, 4, 61, 127
7, 39879, Note_on_c, 4, 61, 0
7, 39884, Note_on_c, 4, 54, 0
7, 39892, Note_on_c, 4, 62, 68
7, 39893, Note_on_c, 4, 57, 77
7, 39894, Note_on_c, 4, 49, 127
7, 39915, Note_on_c, 4, 64, 103
7, 39924, Note_on_c, 4, 62, 0
7, 39950, Note_on_c, 4, 64, 0
7, 39961, Note_on_c, 4, 66, 127
7, 39964, Note_on_c, 4, 54, 127
7, 39975, Note_on_c, 4, 49, 0
7, 39977, Note_on_c, 4, 66, 0
7, 39978, Note_on_c, 4, 57, 0
7, 39983, Note_on_c, 4, 68, 127
7, 39985, Note_on_c, 4, 49, 84
7, 39987, Note_on_c, 4, 57, 80
7, 40004, Note_on_c, 4, 68, 0
7, 40005, Note_on_c, 4, 54, 0
7, 40007, Note_on_c, 4, 49, 0
7, 40014, Note_on_c, 4, 57, 0
7, 40052, Note_on_c, 4, 73, 127
7, 40078, Note_on_c, 4, 73, 0
7, 40113, Note_on_c, 4, 68, 90
7, 40116, Note_on_c, 4, 61, 67
7, 40116, Note_on_c, 4, 65, 68
7, 40116, Note_on_c, 4, 64, 76
7, 40132, Note_on_c, 4, 61, 0
7, 40133, Note_on_c, 4, 64, 0
7, 40134, Note_on_c, 4, 65, 0
7, 40149, Note_on_c, 4, 68, 0
7, 40158, Note_on_c, 4, 73, 127
7, 40172, Note_on_c, 4, 73, 0
7, 40215, Note_on_c, 4, 64, 118
7, 40216, Note_on_c, 4, 68, 78
7, 40216, Note_on_c, 4, 61, 74
7, 40236, Note_on_c, 4, 61, 0
7, 40241, Note_on_c, 4, 64, 0
7, 40244, Note_on_c, 4, 68, 0
7, 40252, Note_on_c, 4, 73, 127
7, 40269, Note_on_c, 4, 73, 0
7, 40310, Note_on_c, 4, 68, 87
7, 40311, Note_on_c, 4, 64, 127
7, 40311, Note_on_c, 4, 61, 103
7, 40356, Note_on_c, 4, 61, 0
7, 40364, Note_on_c, 4, 64, 0
7, 40370, Note_on_c, 4, 68, 0
7, 40383, Note_on_c, 4, 73, 127
7, 40408, Note_on_c, 4, 73, 0
7, 40422, Note_on_c, 4, 74, 62
7, 40442, Note_on_c, 4, 74, 0
7, 40447, Note_on_c, 4, 76, 73
7, 40470, Note_on_c, 4, 76, 0
7, 40491, Note_on_c, 4, 74, 78
7, 40514, Note_on_c, 4, 74, 0
7, 40514, Note_on_c, 4, 73, 113
7, 40529, Note_on_c, 4, 73, 0
7, 40581, Note_on_c, 4, 73, 127
7, 40598, Note_on_c, 4, 73, 0
7, 40649, Note_on_c, 4, 68, 82
7, 40650, Note_on_c, 4, 64, 87
7, 40650, Note_on_c, 4, 61, 87
7, 40690, Note_on_c, 4, 61, 0
7, 40690, Note_on_c, 4, 64, 0
7, 40691, Note_on_c, 4, 73, 118
7, 40692, Note_on_c, 4, 68, 0
7, 40706, Note_on_c, 4, 73, 0
7, 40755, Note_on_c, 4, 68, 87
7, 40755, Note_on_c, 4, 61, 106
7, 40763, Note_on_c, 4, 60, 127
7, 40773, Note_on_c, 4, 61, 0
7, 40774, Note_on_c, 4, 60, 0
7, 40781, Note_on_c, 4, 73, 100
7, 40828, Note_on_c, 4, 68, 0
7, 40834, Note_on_c, 4, 73, 0
7, 40849, Note_on_c, 4, 78, 127
7, 40850, Note_on_c, 4, 61, 100
7, 40850, Note_on_c, 4, 64, 127
7, 40851, Note_on_c, 4, 68, 80
7, 40872, Note_on_c, 4, 78, 0
7, 40892, Note_on_c, 4, 64, 0
7, 40920, Note_on_c, 4, 73, 122
7, 40937, Note_on_c, 4, 73, 0
7, 40954, Note_on_c, 4, 68, 0
7, 40957, Note_on_c, 4, 71, 59
7, 40958, Note_on_c, 4, 61, 0
7, 40977, Note_on_c, 4, 71, 0
7, 40979, Note_on_c, 4, 61, 94
7, 40980, Note_on_c, 4, 68, 80
7, 40980, Note_on_c, 4, 64, 110
7, 40983, Note_on_c, 4, 69, 94
7, 41000, Note_on_c, 4, 69, 0
7, 41007, Note_on_c, 4, 64, 0
7, 41008, Note_on_c, 4, 68, 0
7, 41008, Note_on_c, 4, 61, 0
7, 41049, Note_on_c, 4, 68, 127
7, 41066, Note_on_c, 4, 68, 0
7, 41118, Note_on_c, 4, 66, 127
7, 41137, Note_on_c, 4, 66, 0
7, 41227, Note_on_c, 4, 66, 127
7, 41242, Note_on_c, 4, 66, 0
7, 41252, Note_on_c, 4, 59, 87
7, 41254, Note_on_c, 4, 54, 78
7, 41256, Note_on_c, 4, 63, 85
7, 41264, Note_on_c, 4, 54, 0
7, 41287, Note_on_c, 4, 63, 0
7, 41288, Note_on_c, 4, 59, 0
7, 41353, Note_on_c, 4, 54, 85
7, 41353, Note_on_c, 4, 59, 92
7, 41354, Note_on_c, 4, 62, 94
7, 41376, Note_on_c, 4, 54, 0
7, 41382, Note_on_c, 4, 62, 0
7, 41382, Note_on_c, 4, 59, 0
7, 41383, Note_on_c, 4, 66, 127
7, 41431, Note_on_c, 4, 66, 0
7, 41449, Note_on_c, 4, 66, 127
7, 41512, Note_on_c, 4, 66, 0
7, 41518, Note_on_c, 4, 64, 103
7, 41520, Note_on_c, 4, 54, 90
7, 41520, Note_on_c, 4, 59, 127
7, 41522, Note_on_c, 4, 62, 90
7, 41564, Note_on_c, 4, 54, 0
7, 41564, Note_on_c, 4, 64, 0
7, 41577, Note_on_c, 4, 59, 0
7, 41582, Note_on_c, 4, 62, 0
7, 41586, Note_on_c, 4, 62, 127
7, 41606, Note_on_c, 4, 62, 0
7, 41653, Note_on_c, 4, 61, 127
7, 41655, Note_on_c, 4, 49, 82
7, 41656, Note_on_c, 4, 54, 80
7, 41658, Note_on_c, 4, 57, 78
7, 41674, Note_on_c, 4, 61, 0
7, 41688, Note_on_c, 4, 49, 0
7, 41694, Note_on_c, 4, 54, 0
7, 41697, Note_on_c, 4, 57, 0
7, 41897, Note_on_c, 4, 61, 127
7, 41909, Note_on_c, 4, 61, 0
7, 41923, Note_on_c, 4, 62, 103
7, 41974, Note_on_c, 4, 62, 0
7, 41986, Note_on_c, 4, 49, 113
7, 41988, Note_on_c, 4, 57, 69
7, 41988, Note_on_c, 4, 64, 127
7, 42018, Note_on_c, 4, 64, 0
7, 42053, Note_on_c, 4, 54, 118
7, 42055, Note_on_c, 4, 66, 127
7, 42064, Note_on_c, 4, 49, 0
7, 42070, Note_on_c, 4, 57, 0
7, 42080, Note_on_c, 4, 66, 0
7, 42116, Note_on_c, 4, 54, 0
7, 42118, Note_on_c, 4, 49, 72
7, 42119, Note_on_c, 4, 54, 78
7, 42121, Note_on_c, 4, 68, 127
7, 42123, Note_on_c, 4, 57, 55
7, 42136, Note_on_c, 4, 49, 0
7, 42139, Note_on_c, 4, 54, 0
7, 42141, Note_on_c, 4, 68, 0
7, 42142, Note_on_c, 4, 57, 0
7, 42178, Note_on_c, 4, 73, 127
7, 42204, Note_on_c, 4, 73, 0
7, 42256, Note_on_c, 4, 64, 87
7, 42257, Note_on_c, 4, 68, 84
7, 42286, Note_on_c, 4, 64, 0
7, 42288, Note_on_c, 4, 68, 0
7, 42361, Note_on_c, 4, 64, 113
7, 42361, Note_on_c, 4, 68, 97
7, 42361, Note_on_c, 4, 61, 80
7, 42377, Note_on_c, 4, 61, 0
7, 42387, Note_on_c, 4, 64, 0
7, 42388, Note_on_c, 4, 68, 0
7, 42430, Note_on_c, 4, 73, 127
7, 42445, Note_on_c, 4, 73, 0
7, 42451, Note_on_c, 4, 68, 92
7, 42452, Note_on_c, 4, 64, 122
7, 42452, Note_on_c, 4, 61, 106
7, 42488, Note_on_c, 4, 61, 0
7, 42498, Note_on_c, 4, 74, 106
7, 42517, Note_on_c, 4, 74, 0
7, 42569, Note_on_c, 4, 78, 127
7, 42586, Note_on_c, 4, 64, 0
7, 42586, Note_on_c, 4, 68, 0
7, 42631, Note_on_c, 4, 61, 85
7, 42632, Note_on_c, 4, 64, 67
7, 42632, Note_on_c, 4, 68, 69
7, 42640, Note_on_c, 4, 78, 0
7, 42657, Note_on_c, 4, 64, 0
7, 42657, Note_on_c, 4, 74, 103
7, 42679, Note_on_c, 4, 74, 0
7, 42692, Note_on_c, 4, 61, 0
7, 42695, Note_on_c, 4, 68, 0
7, 42721, Note_on_c, 4, 64, 127
7, 42721, Note_on_c, 4, 68, 94
7, 42722, Note_on_c, 4, 61, 118
7, 42722, Note_on_c, 4, 73, 127
7, 42744, Note_on_c, 4, 73, 0
7, 42744, Note_on_c, 4, 61, 0
7, 42748, Note_on_c, 4, 68, 0
7, 42748, Note_on_c, 4, 64, 0
7, 42992, Note_on_c, 4, 59, 97
7, 42992, Note_on_c, 4, 68, 77
7, 42996, Note_on_c, 4, 73, 127
7, 43011, Note_on_c, 4, 73, 0
7, 43019, Note_on_c, 4, 74, 127
7, 43041, Note_on_c, 4, 73, 118
7, 43043, Note_on_c, 4, 74, 0
7, 43061, Note_on_c, 4, 73, 0
7, 43064, Note_on_c, 4, 71, 84
7, 43086, Note_on_c, 4, 73, 127
7, 43095, Note_on_c, 4, 71, 0
7, 43100, Note_on_c, 4, 73, 0
7, 43106, Note_on_c, 4, 73, 63
7, 43112, Note_on_c, 4, 68, 0
7, 43114, Note_on_c, 4, 59, 0
7, 43124, Note_on_c, 4, 73, 0
7, 43124, Note_on_c, 4, 59, 90
7, 43125, Note_on_c, 4, 71, 73
7, 43126, Note_on_c, 4, 68, 78
7, 43126, Note_on_c, 4, 62, 127
7, 43126, Note_on_c, 4, 72, 69
7, 43134, Note_on_c, 4, 72, 0
7, 43152, Note_on_c, 4, 59, 0
7, 43167, Note_on_c, 4, 71, 0
7, 43167, Note_on_c, 4, 68, 0
7, 43171, Note_on_c, 4, 62, 0
7, 43178, Note_on_c, 4, 68, 106
7, 43180, Note_on_c, 4, 68, 0
7, 43181, Note_on_c, 4, 69, 106
7, 43203, Note_on_c, 4, 69, 0
7, 43204, Note_on_c, 4, 67, 87
7, 43220, Note_on_c, 4, 67, 0
7, 43309, Note_on_c, 4, 51, 64
7, 43316, Note_on_c, 4, 51, 0
7, 43316, Note_on_c, 4, 52, 77
7, 43341, Note_on_c, 4, 52, 0
7, 43381, Note_on_c, 4, 68, 127
7, 43384, Note_on_c, 4, 52, 97
7, 43385, Note_on_c, 4, 56, 100
7, 43385, Note_on_c, 4, 60, 90
7, 43406, Note_on_c, 4, 68, 0
7, 43410, Note_on_c, 4, 60, 0
7, 43410, Note_on_c, 4, 56, 0
7, 43412, Note_on_c, 4, 52, 0
7, 43416, Note_on_c, 4, 66, 54
7, 43441, Note_on_c, 4, 66, 0
7, 43444, Note_on_c, 4, 64, 42
7, 43465, Note_on_c, 4, 64, 0
7, 43484, Note_on_c, 4, 61, 127
7, 43495, Note_on_c, 4, 61, 0
7, 43695, Note_on_c, 4, 61, 127
7, 43706, Note_on_c, 4, 61, 0
7, 43718, Note_on_c, 4, 64, 106
7, 43740, Note_on_c, 4, 64, 0
7, 43753, Note_on_c, 4, 66, 127
7, 43762, Note_on_c, 4, 66, 0
7, 43781, Note_on_c, 4, 52, 103
7, 43781, Note_on_c, 4, 56, 127
7, 43781, Note_on_c, 4, 62, 92
7, 43813, Note_on_c, 4, 52, 0
7, 43817, Note_on_c, 4, 56, 0
7, 43818, Note_on_c, 4, 62, 0
7, 43848, Note_on_c, 4, 80, 127
7, 43862, Note_on_c, 4, 80, 0
7, 43912, Note_on_c, 4, 80, 127
7, 43942, Note_on_c, 4, 80, 0
7, 43948, Note_on_c, 4, 78, 113
7, 43965, Note_on_c, 4, 78, 0
7, 43976, Note_on_c, 4, 76, 74
7, 44001, Note_on_c, 4, 76, 0
7, 44019, Note_on_c, 4, 73, 127
7, 44028, Note_on_c, 4, 73, 0
7, 44229, Note_on_c, 4, 73, 127
7, 44243, Note_on_c, 4, 73, 0
7, 44249, Note_on_c, 4, 56, 82
7, 44250, Note_on_c, 4, 52, 80
7, 44252, Note_on_c, 4, 60, 80
7, 44253, Note_on_c, 4, 76, 73
7, 44275, Note_on_c, 4, 52, 0
7, 44278, Note_on_c, 4, 56, 0
7, 44278, Note_on_c, 4, 60, 0
7, 44280, Note_on_c, 4, 76, 0
7, 44294, Note_on_c, 4, 78, 122
7, 44301, Note_on_c, 4, 78, 0
7, 44320, Note_on_c, 4, 56, 127
7, 44320, Note_on_c, 4, 52, 122
7, 44321, Note_on_c, 4, 60, 92
7, 44346, Note_on_c, 4, 52, 0
7, 44348, Note_on_c, 4, 60, 0
7, 44349, Note_on_c, 4, 56, 0
7, 44389, Note_on_c, 4, 80, 127
7, 44397, Note_on_c, 4, 80, 0
7, 44454, Note_on_c, 4, 80, 127
7, 44487, Note_on_c, 4, 80, 0
7, 44491, Note_on_c, 4, 78, 52
7, 44513, Note_on_c, 4, 78, 0
7, 44514, Note_on_c, 4, 76, 41
7, 44537, Note_on_c, 4, 76, 0
7, 44557, Note_on_c, 4, 73, 127
7, 44567, Note_on_c, 4, 73, 0
7, 44767, Note_on_c, 4, 73, 94
7, 44778, Note_on_c, 4, 73, 0
7, 44790, Note_on_c, 4, 76, 62
7, 44793, Note_on_c, 4, 52, 113
7, 44793, Note_on_c, 4, 60, 103
7, 44793, Note_on_c, 4, 56, 127
7, 44814, Note_on_c, 4, 60, 0
7, 44815, Note_on_c, 4, 56, 0
7, 44817, Note_on_c, 4, 52, 0
7, 44820, Note_on_c, 4, 76, 0
7, 44832, Note_on_c, 4, 78, 118
7, 44844, Note_on_c, 4, 78, 0
7, 44860, Note_on_c, 4, 52, 118
7, 44860, Note_on_c, 4, 60, 118
7, 44861, Note_on_c, 4, 56, 127
7, 44889, Note_on_c, 4, 56, 0
7, 44890, Note_on_c, 4, 52, 0
7, 44892, Note_on_c, 4, 60, 0
7, 44926, Note_on_c, 4, 80, 127
7, 44940, Note_on_c, 4, 80, 0
7, 44991, Note_on_c, 4, 76, 127
7, 45061, Note_on_c, 4, 52, 94
7, 45062, Note_on_c, 4, 56, 103
7, 45062, Note_on_c, 4, 61, 84
7, 45064, Note_on_c, 4, 76, 0
7, 45073, Note_on_c, 4, 52, 0
7, 45075, Note_on_c, 4, 56, 0
7, 45076, Note_on_c, 4, 61, 0
7, 45103, Note_on_c, 4, 76, 78
7, 45126, Note_on_c, 4, 78, 127
7, 45128, Note_on_c, 4, 76, 0
7, 45144, Note_on_c, 4, 78, 0
7, 45190, Note_on_c, 4, 54, 110
7, 45190, Note_on_c, 4, 62, 85
7, 45191, Note_on_c, 4, 59, 100
7, 45195, Note_on_c, 4, 73, 127
7, 45255, Note_on_c, 4, 59, 0
7, 45266, Note_on_c, 4, 54, 0
7, 45271, Note_on_c, 4, 62, 0
7, 45284, Note_on_c, 4, 54, 118
7, 45285, Note_on_c, 4, 59, 127
7, 45286, Note_on_c, 4, 62, 87
7, 45302, Note_on_c, 4, 73, 0
7, 45311, Note_on_c, 4, 59, 0
7, 45312, Note_on_c, 4, 62, 0
7, 45313, Note_on_c, 4, 54, 0
7, 45322, Note_on_c, 4, 76, 127
7, 45340, Note_on_c, 4, 76, 0
7, 45347, Note_on_c, 4, 51, 37
7, 45365, Note_on_c, 4, 51, 0
7, 45385, Note_on_c, 4, 61, 122
7, 45386, Note_on_c, 4, 56, 127
7, 45387, Note_on_c, 4, 52, 118
7, 45412, Note_on_c, 4, 52, 0
7, 45414, Note_on_c, 4, 56, 0
7, 45416, Note_on_c, 4, 61, 0
7, 45453, Note_on_c, 4, 80, 127
7, 45466, Note_on_c, 4, 80, 0
7, 45520, Note_on_c, 4, 80, 127
7, 45549, Note_on_c, 4, 80, 0
7, 45556, Note_on_c, 4, 78, 77
7, 45582, Note_on_c, 4, 78, 0
7, 45584, Note_on_c, 4, 76, 66
7, 45606, Note_on_c, 4, 76, 0
7, 45719, Note_on_c, 4, 73, 127
7, 45741, Note_on_c, 4, 73, 0
7, 45851, Note_on_c, 4, 61, 97
7, 45852, Note_on_c, 4, 56, 127
7, 45852, Note_on_c, 4, 52, 106
7, 45867, Note_on_c, 4, 52, 0
7, 45870, Note_on_c, 4, 56, 0
7, 45870, Note_on_c, 4, 61, 0
7, 45922, Note_on_c, 4, 56, 127
7, 45922, Note_on_c, 4, 61, 127
7, 45922, Note_on_c, 4, 52, 127
7, 45940, Note_on_c, 4, 52, 0
7, 45946, Note_on_c, 4, 56, 0
7, 45949, Note_on_c, 4, 61, 0
7, 45989, Note_on_c, 4, 80, 127
7, 46005, Note_on_c, 4, 80, 0
7, 46054, Note_on_c, 4, 80, 127
7, 46086, Note_on_c, 4, 80, 0
7, 46092, Note_on_c, 4, 78, 64
7, 46114, Note_on_c, 4, 78, 0
7, 46126, Note_on_c, 4, 76, 45
7, 46143, Note_on_c, 4, 76, 0
7, 46162, Note_on_c, 4, 78, 127
7, 46175, Note_on_c, 4, 78, 0
7, 46254, Note_on_c, 4, 73, 127
7, 46279, Note_on_c, 4, 73, 0
7, 46458, Note_on_c, 4, 52, 127
7, 46458, Note_on_c, 4, 61, 127
7, 46459, Note_on_c, 4, 56, 127
7, 46486, Note_on_c, 4, 52, 0
7, 46489, Note_on_c, 4, 61, 0
7, 46490, Note_on_c, 4, 56, 0
7, 46526, Note_on_c, 4, 80, 127
7, 46540, Note_on_c, 4, 80, 0
7, 46592, Note_on_c, 4, 80, 127
7, 46626, Note_on_c, 4, 80, 0
7, 46626, Note_on_c, 4, 78, 59
7, 46653, Note_on_c, 4, 78, 0
7, 46654, Note_on_c, 4, 76, 34
7, 46675, Note_on_c, 4, 76, 0
7, 46695, Note_on_c, 4, 78, 127
7, 46709, Note_on_c, 4, 78, 0
7, 46796, Note_on_c, 4, 73, 127
7, 46814, Note_on_c, 4, 73, 0
7, 46902, Note_on_c, 4, 52, 97
7, 46903, Note_on_c, 4, 56, 113
7, 46903, Note_on_c, 4, 61, 92
7, 46929, Note_on_c, 4, 52, 0
7, 46934, Note_on_c, 4, 61, 0
7, 46934, Note_on_c, 4, 56, 0
7, 46991, Note_on_c, 4, 61, 122
7, 46992, Note_on_c, 4, 52, 122
7, 46992, Note_on_c, 4, 56, 127
7, 47019, Note_on_c, 4, 52, 0
7, 47020, Note_on_c, 4, 56, 0
7, 47020, Note_on_c, 4, 61, 0
7, 47061, Note_on_c, 4, 78, 127
7, 47076, Note_on_c, 4, 78, 0
7, 47128, Note_on_c, 4, 76, 122
7, 47148, Note_on_c, 4, 76, 0
7, 47169, Note_on_c, 4, 80, 127
7, 47187, Note_on_c, 4, 80, 0
7, 47256, Note_on_c, 4, 54, 103
7, 47257, Note_on_c, 4, 59, 100
7, 47258, Note_on_c, 4, 62, 77
7, 47262, Note_on_c, 4, 78, 127
7, 47272, Note_on_c, 4, 54, 0
7, 47274, Note_on_c, 4, 59, 0
7, 47278, Note_on_c, 4, 62, 0
7, 47278, Note_on_c, 4, 78, 0
7, 47291, Note_on_c, 4, 62, 64
7, 47291, Note_on_c, 4, 59, 85
7, 47292, Note_on_c, 4, 54, 100
7, 47297, Note_on_c, 4, 76, 103
7, 47314, Note_on_c, 4, 54, 0
7, 47316, Note_on_c, 4, 76, 0
7, 47322, Note_on_c, 4, 59, 0
7, 47322, Note_on_c, 4, 62, 0
7, 47386, Note_on_c, 4, 54, 103
7, 47388, Note_on_c, 4, 59, 127
7, 47389, Note_on_c, 4, 62, 87
7, 47394, Note_on_c, 4, 73, 127
7, 47405, Note_on_c, 4, 54, 0
7, 47408, Note_on_c, 4, 62, 0
7, 47409, Note_on_c, 4, 59, 0
7, 47412, Note_on_c, 4, 73, 0
7, 47422, Note_on_c, 4, 59, 113
7, 47423, Note_on_c, 4, 62, 82
7, 47423, Note_on_c, 4, 54, 110
7, 47428, Note_on_c, 4, 76, 87
7, 47445, Note_on_c, 4, 62, 0
7, 47446, Note_on_c, 4, 59, 0
7, 47449, Note_on_c, 4, 76, 0
7, 47450, Note_on_c, 4, 54, 0
7, 47519, Note_on_c, 4, 52, 113
7, 47520, Note_on_c, 4, 56, 127
7, 47520, Note_on_c, 4, 61, 113
7, 47544, Note_on_c, 4, 52, 0
7, 47546, Note_on_c, 4, 61, 0
7, 47547, Note_on_c, 4, 56, 0
7, 47958, Note_on_c, 4, 52, 106
7, 47958, Note_on_c, 4, 56, 127
7, 47959, Note_on_c, 4, 61, 87
7, 48015, Note_on_c, 4, 52, 0
7, 48025, Note_on_c, 4, 56, 0
7, 48027, Note_on_c, 4, 61, 0
7, 48050, Note_on_c, 4, 52, 127
7, 48050, Note_on_c, 4, 61, 118
7, 48050, Note_on_c, 4, 56, 127
7, 48067, Note_on_c, 4, 52, 0
7, 48071, Note_on_c, 4, 56, 0
7, 48075, Note_on_c, 4, 61, 0
7, 48493, Note_on_c, 4, 76, 85
7, 48516, Note_on_c, 4, 80, 127
7, 48527, Note_on_c, 4, 76, 0
7, 48542, Note_on_c, 4, 80, 0
7, 48566, Note_on_c, 4, 80, 127
7, 48584, Note_on_c, 4, 80, 0
7, 48588, Note_on_c, 4, 56, 127
7, 48589, Note_on_c, 4, 61, 106
7, 48589, Note_on_c, 4, 52, 118
7, 48618, Note_on_c, 4, 52, 0
7, 48620, Note_on_c, 4, 61, 0
7, 48622, Note_on_c, 4, 56, 0
7, 48758, Note_on_c, 4, 76, 58
7, 48822, Note_on_c, 4, 85, 127
7, 48835, Note_on_c, 4, 76, 0
7, 48840, Note_on_c, 4, 85, 0
7, 49023, Note_on_c, 4, 52, 113
7, 49024, Note_on_c, 4, 61, 110
7, 49024, Note_on_c, 4, 56, 127
7, 49052, Note_on_c, 4, 56, 0
7, 49052, Note_on_c, 4, 61, 0
7, 49052, Note_on_c, 4, 52, 0
7, 49114, Note_on_c, 4, 61, 118
7, 49114, Note_on_c, 4, 56, 127
7, 49114, Note_on_c, 4, 52, 127
7, 49138, Note_on_c, 4, 52, 0
7, 49141, Note_on_c, 4, 56, 0
7, 49142, Note_on_c, 4, 61, 0
7, 49252, Note_on_c, 4, 80, 127
7, 49368, Note_on_c, 4, 80, 0
7, 49377, Note_on_c, 4, 54, 106
7, 49378, Note_on_c, 4, 59, 97
7, 49378, Note_on_c, 4, 62, 90
7, 49380, Note_on_c, 4, 81, 127
7, 49392, Note_on_c, 4, 54, 0
7, 49394, Note_on_c, 4, 59, 0
7, 49397, Note_on_c, 4, 62, 0
7, 49411, Note_on_c, 4, 54, 110
7, 49411, Note_on_c, 4, 62, 72
7, 49412, Note_on_c, 4, 59, 106
7, 49431, Note_on_c, 4, 54, 0
7, 49435, Note_on_c, 4, 59, 0
7, 49442, Note_on_c, 4, 62, 0
7, 49496, Note_on_c, 4, 81, 0
7, 49510, Note_on_c, 4, 54, 106
7, 49510, Note_on_c, 4, 59, 122
7, 49510, Note_on_c, 4, 76, 110
7, 49512, Note_on_c, 4, 62, 85
7, 49529, Note_on_c, 4, 54, 0
7, 49531, Note_on_c, 4, 59, 0
7, 49533, Note_on_c, 4, 62, 0
7, 49535, Note_on_c, 4, 76, 0
7, 49546, Note_on_c, 4, 73, 127
7, 49547, Note_on_c, 4, 54, 103
7, 49548, Note_on_c, 4, 59, 103
7, 49548, Note_on_c, 4, 62, 66
7, 49559, Note_on_c, 4, 73, 0
7, 49574, Note_on_c, 4, 54, 0
7, 49574, Note_on_c, 4, 59, 0
7, 49575, Note_on_c, 4, 62, 0
7, 49643, Note_on_c, 4, 56, 127
7, 49643, Note_on_c, 4, 52, 127
7, 49644, Note_on_c, 4, 61, 122
7, 49667, Note_on_c, 4, 52, 0
7, 49670, Note_on_c, 4, 61, 0
7, 49670, Note_on_c, 4, 56, 0
7, 49706, Note_on_c, 4, 61, 127
7, 49746, Note_on_c, 4, 69, 68
7, 49753, Note_on_c, 4, 61, 0
7, 49772, Note_on_c, 4, 73, 127
7, 49783, Note_on_c, 4, 69, 0
7, 49805, Note_on_c, 4, 73, 0
7, 49813, Note_on_c, 4, 74, 80
7, 49837, Note_on_c, 4, 73, 85
7, 49843, Note_on_c, 4, 74, 0
7, 49871, Note_on_c, 4, 73, 0
7, 49877, Note_on_c, 4, 69, 106
7, 49899, Note_on_c, 4, 69, 0
7, 50076, Note_on_c, 4, 51, 94
7, 50077, Note_on_c, 4, 61, 103
7, 50079, Note_on_c, 4, 56, 127
7, 50108, Note_on_c, 4, 51, 0
7, 50128, Note_on_c, 4, 56, 0
7, 50128, Note_on_c, 4, 61, 0
7, 50174, Note_on_c, 4, 61, 127
7, 50176, Note_on_c, 4, 52, 127
7, 50176, Note_on_c, 4, 56, 127
7, 50199, Note_on_c, 4, 56, 0
7, 50199, Note_on_c, 4, 52, 0
7, 50203, Note_on_c, 4, 61, 0
7, 50241, Note_on_c, 4, 61, 127
7, 50278, Note_on_c, 4, 69, 63
7, 50280, Note_on_c, 4, 61, 0
7, 50306, Note_on_c, 4, 73, 118
7, 50315, Note_on_c, 4, 69, 0
7, 50339, Note_on_c, 4, 73, 0
7, 50347, Note_on_c, 4, 74, 69
7, 50375, Note_on_c, 4, 73, 100
7, 50380, Note_on_c, 4, 74, 0
7, 50406, Note_on_c, 4, 73, 0
7, 50415, Note_on_c, 4, 69, 87
7, 50436, Note_on_c, 4, 69, 0
7, 50708, Note_on_c, 4, 61, 122
7, 50708, Note_on_c, 4, 56, 127
7, 50709, Note_on_c, 4, 52, 110
7, 50740, Note_on_c, 4, 52, 0
7, 50745, Note_on_c, 4, 56, 0
7, 50747, Note_on_c, 4, 61, 0
7, 50775, Note_on_c, 4, 61, 127
7, 50813, Note_on_c, 4, 69, 61
7, 50818, Note_on_c, 4, 61, 0
7, 50839, Note_on_c, 4, 73, 122
7, 50849, Note_on_c, 4, 69, 0
7, 50873, Note_on_c, 4, 73, 0
7, 50880, Note_on_c, 4, 74, 74
7, 50904, Note_on_c, 4, 73, 92
7, 50911, Note_on_c, 4, 74, 0
7, 50937, Note_on_c, 4, 73, 0
7, 50946, Note_on_c, 4, 69, 97
7, 50966, Note_on_c, 4, 69, 0
7, 51148, Note_on_c, 4, 52, 127
7, 51148, Note_on_c, 4, 61, 127
7, 51148, Note_on_c, 4, 56, 127
7, 51215, Note_on_c, 4, 52, 0
7, 51217, Note_on_c, 4, 56, 0
7, 51218, Note_on_c, 4, 61, 0
7, 51235, Note_on_c, 4, 61, 103
7, 51235, Note_on_c, 4, 52, 127
7, 51236, Note_on_c, 4, 56, 127
7, 51255, Note_on_c, 4, 52, 0
7, 51259, Note_on_c, 4, 56, 0
7, 51260, Note_on_c, 4, 61, 0
7, 51305, Note_on_c, 4, 61, 127
7, 51342, Note_on_c, 4, 61, 0
7, 51342, Note_on_c, 4, 69, 63
7, 51371, Note_on_c, 4, 73, 122
7, 51379, Note_on_c, 4, 69, 0
7, 51400, Note_on_c, 4, 73, 0
7, 51408, Note_on_c, 4, 74, 64
7, 51434, Note_on_c, 4, 73, 66
7, 51440, Note_on_c, 4, 74, 0
7, 51466, Note_on_c, 4, 73, 0
7, 51472, Note_on_c, 4, 69, 57
7, 51501, Note_on_c, 4, 66, 113
7, 51503, Note_on_c, 4, 54, 87
7, 51505, Note_on_c, 4, 59, 61
7, 51506, Note_on_c, 4, 62, 73
7, 51508, Note_on_c, 4, 69, 0
7, 51521, Note_on_c, 4, 54, 0
7, 51522, Note_on_c, 4, 59, 0
7, 51528, Note_on_c, 4, 62, 0
7, 51532, Note_on_c, 4, 66, 0
7, 51538, Note_on_c, 4, 54, 103
7, 51539, Note_on_c, 4, 59, 103
7, 51540, Note_on_c, 4, 62, 66
7, 51543, Note_on_c, 4, 69, 62
7, 51562, Note_on_c, 4, 54, 0
7, 51564, Note_on_c, 4, 59, 0
7, 51570, Note_on_c, 4, 62, 0
7, 51571, Note_on_c, 4, 66, 113
7, 51575, Note_on_c, 4, 69, 0
7, 51602, Note_on_c, 4, 66, 0
7, 51609, Note_on_c, 4, 64, 72
7, 51632, Note_on_c, 4, 61, 127
7, 51642, Note_on_c, 4, 64, 0
7, 51642, Note_on_c, 4, 54, 113
7, 51643, Note_on_c, 4, 59, 103
7, 51644, Note_on_c, 4, 62, 100
7, 51660, Note_on_c, 4, 54, 0
7, 51661, Note_on_c, 4, 59, 0
7, 51666, Note_on_c, 4, 62, 0
7, 51678, Note_on_c, 4, 59, 100
7, 51679, Note_on_c, 4, 62, 70
7, 51679, Note_on_c, 4, 54, 106
7, 51688, Note_on_c, 4, 61, 0
7, 51702, Note_on_c, 4, 59, 0
7, 51703, Note_on_c, 4, 62, 0
7, 51705, Note_on_c, 4, 69, 100
7, 51707, Note_on_c, 4, 54, 0
7, 51736, Note_on_c, 4, 69, 0
7, 51745, Note_on_c, 4, 66, 127
7, 51774, Note_on_c, 4, 66, 0
7, 51778, Note_on_c, 4, 52, 106
7, 51778, Note_on_c, 4, 61, 100
7, 51778, Note_on_c, 4, 56, 122
7, 51803, Note_on_c, 4, 56, 0
7, 51803, Note_on_c, 4, 52, 0
7, 51805, Note_on_c, 4, 61, 0
7, 51840, Note_on_c, 4, 61, 127
7, 51878, Note_on_c, 4, 61, 0
7, 51878, Note_on_c, 4, 69, 69
7, 51904, Note_on_c, 4, 73, 127
7, 51914, Note_on_c, 4, 69, 0
7, 51936, Note_on_c, 4, 73, 0
7, 51944, Note_on_c, 4, 74, 67
7, 51972, Note_on_c, 4, 73, 66
7, 51976, Note_on_c, 4, 74, 0
7, 52003, Note_on_c, 4, 73, 0
7, 52012, Note_on_c, 4, 69, 85
7, 52040, Note_on_c, 4, 69, 0
7, 52216, Note_on_c, 4, 61, 110
7, 52216, Note_on_c, 4, 52, 122
7, 52217, Note_on_c, 4, 56, 127
7, 52277, Note_on_c, 4, 52, 0
7, 52280, Note_on_c, 4, 56, 0
7, 52281, Note_on_c, 4, 61, 0
7, 52308, Note_on_c, 4, 61, 118
7, 52308, Note_on_c, 4, 52, 127
7, 52308, Note_on_c, 4, 56, 127
7, 52330, Note_on_c, 4, 52, 0
7, 52331, Note_on_c, 4, 56, 0
7, 52334, Note_on_c, 4, 61, 0
7, 52376, Note_on_c, 4, 61, 127
7, 52415, Note_on_c, 4, 69, 58
7, 52417, Note_on_c, 4, 61, 0
7, 52442, Note_on_c, 4, 73, 100
7, 52452, Note_on_c, 4, 69, 0
7, 52477, Note_on_c, 4, 73, 0
7, 52481, Note_on_c, 4, 74, 59
7, 52508, Note_on_c, 4, 73, 51
7, 52513, Note_on_c, 4, 74, 0
7, 52543, Note_on_c, 4, 73, 0
7, 52547, Note_on_c, 4, 69, 67
7, 52573, Note_on_c, 4, 69, 0
7, 52777, Note_on_c, 4, 56, 122
7, 52779, Note_on_c, 4, 52, 68
7, 52779, Note_on_c, 4, 61, 77
7, 52780, Note_on_c, 4, 53, 69
7, 52791, Note_on_c, 4, 53, 0
7, 52798, Note_on_c, 4, 52, 0
7, 52804, Note_on_c, 4, 56, 0
7, 52805, Note_on_c, 4, 61, 0
7, 52842, Note_on_c, 4, 61, 122
7, 52843, Note_on_c, 4, 56, 127
7, 52844, Note_on_c, 4, 52, 127
7, 52870, Note_on_c, 4, 52, 0
7, 52874, Note_on_c, 4, 56, 0
7, 52877, Note_on_c, 4, 61, 0
7, 52908, Note_on_c, 4, 61, 127
7, 52943, Note_on_c, 4, 61, 0
7, 52946, Note_on_c, 4, 69, 63
7, 52971, Note_on_c, 4, 73, 122
7, 52983, Note_on_c, 4, 69, 0
7, 53004, Note_on_c, 4, 73, 0
7, 53013, Note_on_c, 4, 74, 67
7, 53036, Note_on_c, 4, 73, 62
7, 53042, Note_on_c, 4, 74, 0
7, 53065, Note_on_c, 4, 73, 0
7, 53074, Note_on_c, 4, 69, 113
7, 53102, Note_on_c, 4, 69, 0
7, 53288, Note_on_c, 4, 61, 127
7, 53290, Note_on_c, 4, 52, 127
7, 53290, Note_on_c, 4, 56, 127
7, 53348, Note_on_c, 4, 52, 0
7, 53354, Note_on_c, 4, 56, 0
7, 53356, Note_on_c, 4, 61, 0
7, 53379, Note_on_c, 4, 61, 110
7, 53379, Note_on_c, 4, 52, 127
7, 53379, Note_on_c, 4, 56, 127
7, 53397, Note_on_c, 4, 52, 0
7, 53401, Note_on_c, 4, 56, 0
7, 53402, Note_on_c, 4, 61, 0
7, 53443, Note_on_c, 4, 61, 127
7, 53483, Note_on_c, 4, 61, 0
7, 53483, Note_on_c, 4, 69, 60
7, 53511, Note_on_c, 4, 73, 118
7, 53519, Note_on_c, 4, 69, 0
7, 53541, Note_on_c, 4, 73, 0
7, 53550, Note_on_c, 4, 74, 65
7, 53573, Note_on_c, 4, 73, 51
7, 53580, Note_on_c, 4, 74, 0
7, 53609, Note_on_c, 4, 73, 0
7, 53610, Note_on_c, 4, 69, 64
7, 53640, Note_on_c, 4, 66, 127
7, 53644, Note_on_c, 4, 54, 100
7, 53644, Note_on_c, 4, 59, 118
7, 53645, Note_on_c, 4, 62, 92
7, 53648, Note_on_c, 4, 69, 0
7, 53660, Note_on_c, 4, 54, 0
7, 53662, Note_on_c, 4, 59, 0
7, 53667, Note_on_c, 4, 62, 0
7, 53674, Note_on_c, 4, 66, 0
7, 53680, Note_on_c, 4, 54, 113
7, 53680, Note_on_c, 4, 59, 113
7, 53680, Note_on_c, 4, 69, 55
7, 53681, Note_on_c, 4, 62, 80
7, 53703, Note_on_c, 4, 54, 0
7, 53705, Note_on_c, 4, 66, 122
7, 53706, Note_on_c, 4, 59, 0
7, 53709, Note_on_c, 4, 62, 0
7, 53711, Note_on_c, 4, 69, 0
7, 53737, Note_on_c, 4, 66, 0
7, 53747, Note_on_c, 4, 64, 73
7, 53774, Note_on_c, 4, 61, 127
7, 53778, Note_on_c, 4, 54, 100
7, 53779, Note_on_c, 4, 59, 106
7, 53780, Note_on_c, 4, 62, 82
7, 53783, Note_on_c, 4, 64, 0
7, 53795, Note_on_c, 4, 54, 0
7, 53798, Note_on_c, 4, 59, 0
7, 53801, Note_on_c, 4, 62, 0
7, 53816, Note_on_c, 4, 54, 106
7, 53816, Note_on_c, 4, 59, 122
7, 53816, Note_on_c, 4, 62, 70
7, 53822, Note_on_c, 4, 61, 0
7, 53839, Note_on_c, 4, 59, 0
7, 53840, Note_on_c, 4, 62, 0
7, 53841, Note_on_c, 4, 54, 0
7, 53843, Note_on_c, 4, 69, 110
7, 53870, Note_on_c, 4, 69, 0
7, 53882, Note_on_c, 4, 66, 127
7, 53908, Note_on_c, 4, 66, 0
7, 53912, Note_on_c, 4, 52, 127
7, 53912, Note_on_c, 4, 61, 127
7, 53912, Note_on_c, 4, 56, 127
7, 53933, Note_on_c, 4, 52, 0
7, 53936, Note_on_c, 4, 56, 0
7, 53936, Note_on_c, 4, 61, 0
7, 53974, Note_on_c, 4, 61, 127
7, 54001, Control_c, 4, 7, 126
7, 54013, Note_on_c, 4, 61, 0
7, 54013, Note_on_c, 4, 69, 73
7, 54016, Control_c, 4, 7, 125
7, 54037, Note_on_c, 4, 73, 127
7, 54040, Control_c, 4, 7, 124
7, 54046, Note_on_c, 4, 69, 0
7, 54048, Control_c, 4, 7, 122
7, 54066, Control_c, 4, 7, 120
7, 54072, Note_on_c, 4, 73, 0
7, 54081, Control_c, 4, 7, 119
7, 54081, Note_on_c, 4, 74, 73
7, 54101, Control_c, 4, 7, 118
7, 54108, Note_on_c, 4, 73, 64
7, 54113, Note_on_c, 4, 74, 0
7, 54137, Control_c, 4, 7, 117
7, 54142, Note_on_c, 4, 73, 0
7, 54153, Note_on_c, 4, 69, 92
7, 54171, Control_c, 4, 7, 115
7, 54179, Note_on_c, 4, 69, 0
7, 54186, Control_c, 4, 7, 113
7, 54219, Control_c, 4, 7, 112
7, 54308, Control_c, 4, 7, 111
7, 54353, Note_on_c, 4, 52, 106
7, 54354, Note_on_c, 4, 56, 127
7, 54354, Note_on_c, 4, 61, 103
7, 54380, Note_on_c, 4, 52, 0
7, 54397, Control_c, 4, 7, 110
7, 54416, Note_on_c, 4, 56, 0
7, 54419, Note_on_c, 4, 61, 0
7, 54445, Note_on_c, 4, 61, 110
7, 54446, Control_c, 4, 7, 108
7, 54446, Note_on_c, 4, 56, 127
7, 54446, Note_on_c, 4, 52, 122
7, 54460, Note_on_c, 4, 52, 0
7, 54471, Note_on_c, 4, 56, 0
7, 54474, Note_on_c, 4, 61, 0
7, 54512, Note_on_c, 4, 61, 127
7, 54532, Control_c, 4, 7, 106
7, 54547, Note_on_c, 4, 61, 0
7, 54554, Note_on_c, 4, 69, 69
7, 54577, Note_on_c, 4, 73, 122
7, 54587, Note_on_c, 4, 69, 0
7, 54599, Control_c, 4, 7, 105
7, 54612, Note_on_c, 4, 73, 0
7, 54620, Note_on_c, 4, 74, 77
7, 54643, Note_on_c, 4, 73, 73
7, 54651, Note_on_c, 4, 74, 0
7, 54656, Control_c, 4, 7, 103
7, 54677, Note_on_c, 4, 73, 0
7, 54683, Note_on_c, 4, 69, 100
7, 54710, Note_on_c, 4, 69, 0
7, 54717, Control_c, 4, 7, 101
7, 54746, Control_c, 4, 7, 100
7, 54808, Control_c, 4, 7, 99
7, 54861, Control_c, 4, 7, 98
7, 54910, Note_on_c, 4, 61, 92
7, 54910, Note_on_c, 4, 52, 97
7, 54911, Control_c, 4, 7, 96
7, 54911, Note_on_c, 4, 56, 127
7, 54932, Note_on_c, 4, 52, 0
7, 54937, Control_c, 4, 7, 94
7, 54940, Note_on_c, 4, 61, 0
7, 54941, Note_on_c, 4, 56, 0
7, 54956, Control_c, 4, 7, 93
7, 54981, Note_on_c, 4, 61, 90
7, 54982, Note_on_c, 4, 56, 127
7, 54982, Note_on_c, 4, 52, 118
7, 55004, Note_on_c, 4, 52, 0
7, 55007, Note_on_c, 4, 56, 0
7, 55009, Note_on_c, 4, 61, 0
7, 55024, Control_c, 4, 7, 92
7, 55051, Note_on_c, 4, 61, 122
7, 55064, Control_c, 4, 7, 91
7, 55091, Note_on_c, 4, 61, 0
7, 55091, Note_on_c, 4, 69, 62
7, 55114, Note_on_c, 4, 73, 100
7, 55125, Note_on_c, 4, 69, 0
7, 55137, Control_c, 4, 7, 89
7, 55151, Note_on_c, 4, 73, 0
7, 55158, Note_on_c, 4, 74, 62
7, 55172, Control_c, 4, 7, 87
7, 55180, Note_on_c, 4, 73, 68
7, 55185, Note_on_c, 4, 74, 0
7, 55214, Note_on_c, 4, 73, 0
7, 55223, Note_on_c, 4, 69, 87
7, 55228, Control_c, 4, 7, 86
7, 55248, Note_on_c, 4, 69, 0
7, 55260, Control_c, 4, 7, 85
7, 55329, Control_c, 4, 7, 84
7, 55396, Control_c, 4, 7, 82
7, 55419, Note_on_c, 4, 61, 87
7, 55420, Note_on_c, 4, 52, 103
7, 55420, Note_on_c, 4, 56, 122
7, 55425, Control_c, 4, 7, 80
7, 55446, Note_on_c, 4, 52, 0
7, 55461, Control_c, 4, 7, 79
7, 55466, Note_on_c, 4, 52, 22
7, 55475, Note_on_c, 4, 52, 0
7, 55484, Note_on_c, 4, 56, 0
7, 55486, Note_on_c, 4, 61, 0
7, 55496, Control_c, 4, 7, 78
7, 55509, Note_on_c, 4, 56, 122
7, 55510, Note_on_c, 4, 52, 110
7, 55511, Note_on_c, 4, 61, 90
7, 55525, Control_c, 4, 7, 77
7, 55528, Note_on_c, 4, 52, 0
7, 55533, Note_on_c, 4, 56, 0
7, 55537, Note_on_c, 4, 61, 0
7, 55552, Control_c, 4, 7, 75
7, 55575, Note_on_c, 4, 61, 127
7, 55581, Control_c, 4, 7, 73
7, 55608, Note_on_c, 4, 61, 0
7, 55611, Note_on_c, 4, 69, 63
7, 55640, Note_on_c, 4, 73, 97
7, 55643, Control_c, 4, 7, 72
7, 55650, Note_on_c, 4, 69, 0
7, 55656, Control_c, 4, 7, 71
7, 55673, Note_on_c, 4, 73, 0
7, 55681, Note_on_c, 4, 74, 59
7, 55684, Control_c, 4, 7, 70
7, 55708, Note_on_c, 4, 73, 70
7, 55714, Note_on_c, 4, 74, 0
7, 55736, Control_c, 4, 7, 68
7, 55740, Note_on_c, 4, 73, 0
7, 55746, Note_on_c, 4, 69, 52
7, 55767, Control_c, 4, 7, 66
7, 55774, Note_on_c, 4, 66, 122
7, 55776, Note_on_c, 4, 54, 110
7, 55776, Note_on_c, 4, 59, 122
7, 55778, Note_on_c, 4, 62, 73
7, 55779, Note_on_c, 4, 69, 0
7, 55784, Control_c, 4, 7, 65
7, 55791, Note_on_c, 4, 54, 0
7, 55791, Control_c, 4, 7, 64
7, 55795, Note_on_c, 4, 59, 0
7, 55796, Note_on_c, 4, 62, 0
7, 55796, Control_c, 4, 7, 63
7, 55805, Note_on_c, 4, 66, 0
7, 55810, Note_on_c, 4, 54, 110
7, 55811, Note_on_c, 4, 59, 106
7, 55812, Note_on_c, 4, 62, 76
7, 55813, Note_on_c, 4, 69, 57
7, 55824, Control_c, 4, 7, 61
7, 55834, Note_on_c, 4, 54, 0
7, 55835, Note_on_c, 4, 59, 0
7, 55838, Note_on_c, 4, 66, 106
7, 55842, Note_on_c, 4, 62, 0
7, 55844, Note_on_c, 4, 69, 0
7, 55866, Note_on_c, 4, 66, 0
7, 55878, Note_on_c, 4, 64, 64
7, 55905, Control_c, 4, 7, 60
7, 55905, Note_on_c, 4, 61, 127
7, 55913, Note_on_c, 4, 54, 122
7, 55914, Note_on_c, 4, 62, 97
7, 55914, Note_on_c, 4, 59, 127
7, 55915, Note_on_c, 4, 64, 0
7, 55928, Note_on_c, 4, 54, 0
7, 55929, Note_on_c, 4, 59, 0
7, 55934, Note_on_c, 4, 62, 0
7, 55948, Note_on_c, 4, 62, 69
7, 55948, Note_on_c, 4, 54, 113
7, 55949, Note_on_c, 4, 59, 106
7, 55959, Note_on_c, 4, 61, 0
7, 55964, Control_c, 4, 7, 59
7, 55970, Note_on_c, 4, 59, 0
7, 55971, Note_on_c, 4, 54, 0
7, 55971, Note_on_c, 4, 62, 0
7, 55973, Note_on_c, 4, 69, 97
7, 56004, Note_on_c, 4, 69, 0
7, 56012, Note_on_c, 4, 66, 127
7, 56040, Note_on_c, 4, 66, 0
7, 56043, Note_on_c, 4, 52, 122
7, 56043, Note_on_c, 4, 61, 122
7, 56044, Note_on_c, 4, 56, 127
7, 56066, Note_on_c, 4, 52, 0
7, 56067, Note_on_c, 4, 56, 0
7, 56067, Control_c, 4, 7, 58
7, 56070, Note_on_c, 4, 61, 0
7, 56109, Note_on_c, 4, 61, 110
7, 56122, Control_c, 4, 7, 56
7, 56143, Note_on_c, 4, 61, 0
7, 56145, Note_on_c, 4, 69, 60
7, 56150, Control_c, 4, 7, 54
7, 56173, Note_on_c, 4, 73, 113
7, 56182, Note_on_c, 4, 69, 0
7, 56183, Control_c, 4, 7, 53
7, 56203, Note_on_c, 4, 73, 0
7, 56213, Note_on_c, 4, 74, 68
7, 56223, Control_c, 4, 7, 52
7, 56236, Control_c, 4, 7, 51
7, 56237, Note_on_c, 4, 73, 84
7, 56242, Note_on_c, 4, 74, 0
7, 56259, Control_c, 4, 7, 49
7, 56268, Note_on_c, 4, 73, 0
7, 56276, Note_on_c, 4, 69, 80
7, 56291, Control_c, 4, 7, 47
7, 56301, Note_on_c, 4, 69, 0
7, 56334, Control_c, 4, 7, 46
7, 56405, Control_c, 4, 7, 45
7, 56415, Control_c, 4, 7, 44
7, 56474, Note_on_c, 4, 52, 106
7, 56474, Note_on_c, 4, 56, 127
7, 56475, Note_on_c, 4, 61, 87
7, 56480, Control_c, 4, 7, 42
7, 56511, Control_c, 4, 7, 40
7, 56525, Note_on_c, 4, 52, 0
7, 56534, Note_on_c, 4, 56, 0
7, 56536, Note_on_c, 4, 61, 0
7, 56551, Control_c, 4, 7, 39
7, 56566, Note_on_c, 4, 61, 110
7, 56567, Note_on_c, 4, 56, 127
7, 56567, Note_on_c, 4, 52, 127
7, 56577, Control_c, 4, 7, 38
7, 56585, Note_on_c, 4, 52, 0
7, 56589, Note_on_c, 4, 56, 0
7, 56592, Note_on_c, 4, 61, 0
7, 56602, Control_c, 4, 7, 37
7, 56639, Note_on_c, 4, 61, 127
7, 56647, Control_c, 4, 7, 35
7, 56672, Control_c, 4, 7, 33
7, 56677, Note_on_c, 4, 69, 65
7, 56679, Note_on_c, 4, 61, 0
7, 56692, Control_c, 4, 7, 32
7, 56702, Note_on_c, 4, 73, 92
7, 56713, Note_on_c, 4, 69, 0
7, 56742, Note_on_c, 4, 73, 0
7, 56742, Control_c, 4, 7, 31
7, 56746, Note_on_c, 4, 74, 59
7, 56761, Control_c, 4, 7, 30
7, 56771, Note_on_c, 4, 73, 57
7, 56776, Note_on_c, 4, 74, 0
7, 56803, Note_on_c, 4, 73, 0
7, 56812, Note_on_c, 4, 69, 67
7, 56819, Control_c, 4, 7, 28
7, 56829, Control_c, 4, 7, 26
7, 56838, Note_on_c, 4, 69, 0
7, 56840, Control_c, 4, 7, 25
7, 56877, Control_c, 4, 7, 24
7, 56921, Control_c, 4, 7, 23
7, 56939, Control_c, 4, 7, 21
7, 57056, Control_c, 4, 7, 20
7, 57077, Control_c, 4, 7, 19
7, 57110, Note_on_c, 4, 52, 70
7, 57110, Note_on_c, 4, 61, 67
7, 57110, Note_on_c, 4, 56, 68
7, 57134, Note_on_c, 4, 56, 0
7, 57134, Note_on_c, 4, 52, 0
7, 57138, Note_on_c, 4, 61, 0
7, 57200, Control_c, 4, 7, 18
7, 57200, End_track
8, 0, Start_track
8, 0, MIDI_port, 0
8, 0, Title_t, "Synth Bass"
8, 0, Program_c, 5, 39
8, 180, Control_c, 5, 7, 28
8, 185, Control_c, 5, 7, 29
8, 205, Control_c, 5, 7, 31
8, 210, Control_c, 5, 7, 38
8, 215, Control_c, 5, 7, 75
8, 220, Control_c, 5, 7, 127
8, 584, Note_on_c, 5, 30, 127
8, 649, Note_on_c, 5, 30, 0
8, 1026, Note_on_c, 5, 26, 127
8, 1045, Note_on_c, 5, 26, 0
8, 1049, Note_on_c, 5, 28, 127
8, 1079, Note_on_c, 5, 28, 0
8, 1121, Note_on_c, 5, 30, 127
8, 1175, Note_on_c, 5, 30, 0
8, 1183, Control_c, 5, 7, 126
8, 1187, Control_c, 5, 7, 125
8, 1262, Control_c, 5, 7, 124
8, 1306, Control_c, 5, 7, 122
8, 1354, Control_c, 5, 7, 120
8, 1402, Control_c, 5, 7, 119
8, 1458, Control_c, 5, 7, 118
8, 1487, Control_c, 5, 7, 117
8, 1532, Control_c, 5, 7, 115
8, 1571, Control_c, 5, 7, 113
8, 1584, Note_on_c, 5, 28, 127
8, 1602, Control_c, 5, 7, 112
8, 1618, Note_on_c, 5, 28, 0
8, 1649, Control_c, 5, 7, 111
8, 1652, Note_on_c, 5, 30, 127
8, 1714, Note_on_c, 5, 30, 0
8, 1714, Control_c, 5, 7, 110
8, 1739, Control_c, 5, 7, 108
8, 1834, Control_c, 5, 7, 106
8, 2006, Control_c, 5, 7, 105
8, 2096, Note_on_c, 5, 26, 127
8, 2114, Note_on_c, 5, 26, 0
8, 2115, Note_on_c, 5, 28, 127
8, 2138, Note_on_c, 5, 28, 0
8, 2182, Note_on_c, 5, 30, 127
8, 2240, Note_on_c, 5, 30, 0
8, 2381, Note_on_c, 5, 33, 127
8, 2431, Note_on_c, 5, 33, 0
8, 2454, Note_on_c, 5, 32, 127
8, 2547, Note_on_c, 5, 32, 0
8, 2587, Note_on_c, 5, 37, 127
8, 2664, Note_on_c, 5, 37, 0
8, 2722, Note_on_c, 5, 30, 127
8, 2796, Note_on_c, 5, 30, 0
8, 3156, Note_on_c, 5, 26, 127
8, 3174, Note_on_c, 5, 26, 0
8, 3180, Note_on_c, 5, 28, 127
8, 3210, Note_on_c, 5, 28, 0
8, 3253, Note_on_c, 5, 30, 127
8, 3314, Note_on_c, 5, 30, 0
8, 3717, Note_on_c, 5, 28, 127
8, 3752, Note_on_c, 5, 28, 0
8, 3788, Note_on_c, 5, 30, 127
8, 3849, Note_on_c, 5, 30, 0
8, 4225, Note_on_c, 5, 26, 127
8, 4246, Note_on_c, 5, 26, 0
8, 4253, Note_on_c, 5, 28, 127
8, 4282, Note_on_c, 5, 28, 0
8, 4322, Note_on_c, 5, 30, 127
8, 4377, Note_on_c, 5, 30, 0
8, 4515, Note_on_c, 5, 33, 127
8, 4560, Note_on_c, 5, 33, 0
8, 4584, Note_on_c, 5, 32, 127
8, 4665, Note_on_c, 5, 32, 0
8, 4719, Note_on_c, 5, 37, 127
8, 4797, Note_on_c, 5, 37, 0
8, 4851, Note_on_c, 5, 30, 127
8, 4906, Note_on_c, 5, 30, 0
8, 5289, Note_on_c, 5, 26, 127
8, 5308, Note_on_c, 5, 26, 0
8, 5316, Note_on_c, 5, 28, 127
8, 5342, Note_on_c, 5, 28, 0
8, 5387, Note_on_c, 5, 30, 127
8, 5443, Note_on_c, 5, 30, 0
8, 5852, Note_on_c, 5, 28, 127
8, 5885, Note_on_c, 5, 28, 0
8, 5920, Note_on_c, 5, 30, 127
8, 5990, Note_on_c, 5, 30, 0
8, 6358, Note_on_c, 5, 26, 127
8, 6378, Note_on_c, 5, 26, 0
8, 6382, Note_on_c, 5, 28, 127
8, 6408, Note_on_c, 5, 28, 0
8, 6451, Note_on_c, 5, 30, 127
8, 6516, Note_on_c, 5, 30, 0
8, 6647, Note_on_c, 5, 33, 127
8, 6695, Note_on_c, 5, 33, 0
8, 6721, Note_on_c, 5, 32, 127
8, 6803, Note_on_c, 5, 32, 0
8, 6851, Note_on_c, 5, 37, 127
8, 6926, Note_on_c, 5, 37, 0
8, 6985, Note_on_c, 5, 30, 127
8, 7052, Note_on_c, 5, 30, 0
8, 7421, Note_on_c, 5, 26, 127
8, 7447, Note_on_c, 5, 26, 0
8, 7448, Note_on_c, 5, 28, 127
8, 7475, Note_on_c, 5, 28, 0
8, 7520, Note_on_c, 5, 30, 127
8, 7587, Note_on_c, 5, 30, 0
8, 7990, Note_on_c, 5, 28, 127
8, 8020, Note_on_c, 5, 28, 0
8, 8057, Note_on_c, 5, 30, 127
8, 8129, Note_on_c, 5, 30, 0
8, 8493, Note_on_c, 5, 26, 127
8, 8513, Note_on_c, 5, 26, 0
8, 8517, Note_on_c, 5, 28, 127
8, 8545, Note_on_c, 5, 28, 0
8, 8588, Note_on_c, 5, 30, 127
8, 8665, Note_on_c, 5, 30, 0
8, 8786, Note_on_c, 5, 33, 127
8, 8829, Note_on_c, 5, 33, 0
8, 8853, Note_on_c, 5, 32, 127
8, 8947, Note_on_c, 5, 32, 0
8, 8986, Note_on_c, 5, 37, 127
8, 9075, Note_on_c, 5, 37, 0
8, 9121, Note_on_c, 5, 30, 127
8, 9184, Note_on_c, 5, 30, 0
8, 9553, Note_on_c, 5, 26, 127
8, 9575, Note_on_c, 5, 26, 0
8, 9581, Note_on_c, 5, 28, 127
8, 9608, Note_on_c, 5, 28, 0
8, 9653, Note_on_c, 5, 30, 127
8, 9727, Note_on_c, 5, 30, 0
8, 10118, Note_on_c, 5, 28, 127
8, 10144, Note_on_c, 5, 28, 0
8, 10189, Note_on_c, 5, 30, 127
8, 10261, Note_on_c, 5, 30, 0
8, 10626, Note_on_c, 5, 26, 127
8, 10648, Note_on_c, 5, 26, 0
8, 10651, Note_on_c, 5, 28, 127
8, 10676, Note_on_c, 5, 28, 0
8, 10718, Note_on_c, 5, 30, 127
8, 10787, Note_on_c, 5, 30, 0
8, 10913, Note_on_c, 5, 33, 127
8, 10957, Note_on_c, 5, 33, 0
8, 10984, Note_on_c, 5, 32, 127
8, 11083, Note_on_c, 5, 32, 0
8, 11120, Note_on_c, 5, 37, 127
8, 11210, Note_on_c, 5, 37, 0
8, 11254, Note_on_c, 5, 30, 127
8, 11313, Note_on_c, 5, 30, 0
8, 11690, Note_on_c, 5, 26, 127
8, 11712, Note_on_c, 5, 26, 0
8, 11717, Note_on_c, 5, 28, 127
8, 11743, Note_on_c, 5, 28, 0
8, 11786, Note_on_c, 5, 30, 127
8, 11846, Note_on_c, 5, 30, 0
8, 12247, Note_on_c, 5, 28, 127
8, 12286, Note_on_c, 5, 28, 0
8, 12318, Note_on_c, 5, 30, 127
8, 12388, Note_on_c, 5, 30, 0
8, 12758, Note_on_c, 5, 26, 127
8, 12776, Note_on_c, 5, 26, 0
8, 12782, Note_on_c, 5, 28, 127
8, 12807, Note_on_c, 5, 28, 0
8, 12851, Note_on_c, 5, 30, 127
8, 12924, Note_on_c, 5, 30, 0
8, 13048, Note_on_c, 5, 33, 127
8, 13091, Note_on_c, 5, 33, 0
8, 13119, Note_on_c, 5, 32, 127
8, 13210, Note_on_c, 5, 32, 0
8, 13251, Note_on_c, 5, 37, 127
8, 13334, Note_on_c, 5, 37, 0
8, 13384, Note_on_c, 5, 30, 127
8, 13448, Note_on_c, 5, 30, 0
8, 13822, Note_on_c, 5, 26, 127
8, 13848, Note_on_c, 5, 26, 0
8, 13852, Note_on_c, 5, 28, 127
8, 13878, Note_on_c, 5, 28, 0
8, 13919, Note_on_c, 5, 30, 127
8, 13990, Note_on_c, 5, 30, 0
8, 14381, Note_on_c, 5, 28, 127
8, 14412, Note_on_c, 5, 28, 0
8, 14452, Note_on_c, 5, 30, 127
8, 14533, Note_on_c, 5, 30, 0
8, 14889, Note_on_c, 5, 26, 127
8, 14912, Note_on_c, 5, 26, 0
8, 14915, Note_on_c, 5, 28, 127
8, 14943, Note_on_c, 5, 28, 0
8, 14986, Note_on_c, 5, 30, 127
8, 15062, Note_on_c, 5, 30, 0
8, 15183, Note_on_c, 5, 33, 127
8, 15228, Note_on_c, 5, 33, 0
8, 15252, Note_on_c, 5, 32, 127
8, 15341, Note_on_c, 5, 32, 0
8, 15385, Note_on_c, 5, 37, 127
8, 15416, Note_on_c, 5, 36, 127
8, 15454, Note_on_c, 5, 36, 0
8, 15461, Note_on_c, 5, 37, 0
8, 15520, Note_on_c, 5, 30, 127
8, 15589, Note_on_c, 5, 30, 0
8, 15959, Note_on_c, 5, 26, 127
8, 15982, Note_on_c, 5, 26, 0
8, 15987, Note_on_c, 5, 28, 127
8, 16010, Note_on_c, 5, 28, 0
8, 16055, Note_on_c, 5, 30, 127
8, 16124, Note_on_c, 5, 30, 0
8, 16488, Note_on_c, 5, 26, 127
8, 16510, Note_on_c, 5, 26, 0
8, 16516, Note_on_c, 5, 28, 127
8, 16540, Note_on_c, 5, 28, 0
8, 16587, Note_on_c, 5, 30, 127
8, 16655, Note_on_c, 5, 30, 0
8, 17025, Note_on_c, 5, 26, 127
8, 17043, Note_on_c, 5, 26, 0
8, 17051, Note_on_c, 5, 28, 127
8, 17075, Note_on_c, 5, 28, 0
8, 17121, Note_on_c, 5, 30, 127
8, 17186, Note_on_c, 5, 30, 0
8, 17315, Note_on_c, 5, 33, 127
8, 17360, Note_on_c, 5, 33, 0
8, 17385, Note_on_c, 5, 32, 127
8, 17474, Note_on_c, 5, 32, 0
8, 17523, Note_on_c, 5, 37, 127
8, 17601, Note_on_c, 5, 37, 0
8, 17652, Note_on_c, 5, 30, 127
8, 17717, Note_on_c, 5, 30, 0
8, 18094, Note_on_c, 5, 26, 127
8, 18118, Note_on_c, 5, 26, 0
8, 18120, Note_on_c, 5, 28, 127
8, 18148, Note_on_c, 5, 28, 0
8, 18188, Note_on_c, 5, 30, 127
8, 18247, Note_on_c, 5, 30, 0
8, 18655, Note_on_c, 5, 28, 127
8, 18692, Note_on_c, 5, 28, 0
8, 18723, Note_on_c, 5, 30, 127
8, 18799, Note_on_c, 5, 30, 0
8, 19160, Note_on_c, 5, 26, 127
8, 19186, Note_on_c, 5, 26, 0
8, 19187, Note_on_c, 5, 28, 127
8, 19212, Note_on_c, 5, 28, 0
8, 19254, Note_on_c, 5, 30, 127
8, 19317, Note_on_c, 5, 30, 0
8, 19449, Note_on_c, 5, 33, 127
8, 19496, Note_on_c, 5, 33, 0
8, 19522, Note_on_c, 5, 32, 127
8, 19616, Note_on_c, 5, 32, 0
8, 19654, Note_on_c, 5, 37, 127
8, 19743, Note_on_c, 5, 37, 0
8, 19789, Note_on_c, 5, 30, 127
8, 19844, Note_on_c, 5, 30, 0
8, 20216, Note_on_c, 5, 26, 127
8, 20247, Note_on_c, 5, 28, 127
8, 20249, Note_on_c, 5, 26, 0
8, 20276, Note_on_c, 5, 28, 0
8, 20314, Note_on_c, 5, 30, 127
8, 20382, Note_on_c, 5, 30, 0
8, 20789, Note_on_c, 5, 28, 127
8, 20820, Note_on_c, 5, 28, 0
8, 20857, Note_on_c, 5, 30, 127
8, 20927, Note_on_c, 5, 30, 0
8, 21295, Note_on_c, 5, 26, 127
8, 21316, Note_on_c, 5, 26, 0
8, 21321, Note_on_c, 5, 28, 127
8, 21346, Note_on_c, 5, 28, 0
8, 21389, Note_on_c, 5, 30, 127
8, 21464, Note_on_c, 5, 30, 0
8, 21585, Note_on_c, 5, 33, 127
8, 21626, Note_on_c, 5, 33, 0
8, 21654, Note_on_c, 5, 32, 127
8, 21742, Note_on_c, 5, 32, 0
8, 21788, Note_on_c, 5, 37, 127
8, 21872, Note_on_c, 5, 37, 0
8, 21922, Note_on_c, 5, 30, 127
8, 21994, Note_on_c, 5, 30, 0
8, 22358, Note_on_c, 5, 26, 127
8, 22380, Note_on_c, 5, 26, 0
8, 22383, Note_on_c, 5, 28, 127
8, 22410, Note_on_c, 5, 28, 0
8, 22454, Note_on_c, 5, 30, 127
8, 22540, Note_on_c, 5, 30, 0
8, 22914, Note_on_c, 5, 28, 127
8, 22946, Note_on_c, 5, 28, 0
8, 22988, Note_on_c, 5, 30, 127
8, 23070, Note_on_c, 5, 30, 0
8, 23421, Note_on_c, 5, 26, 127
8, 23447, Note_on_c, 5, 26, 0
8, 23448, Note_on_c, 5, 28, 127
8, 23475, Note_on_c, 5, 28, 0
8, 23518, Note_on_c, 5, 30, 127
8, 23581, Note_on_c, 5, 30, 0
8, 23720, Note_on_c, 5, 33, 127
8, 23770, Note_on_c, 5, 33, 0
8, 23789, Note_on_c, 5, 32, 127
8, 23879, Note_on_c, 5, 32, 0
8, 23924, Note_on_c, 5, 37, 127
8, 24008, Note_on_c, 5, 37, 0
8, 24058, Note_on_c, 5, 30, 127
8, 24125, Note_on_c, 5, 30, 0
8, 24491, Note_on_c, 5, 26, 127
8, 24512, Note_on_c, 5, 26, 0
8, 24517, Note_on_c, 5, 28, 127
8, 24541, Note_on_c, 5, 28, 0
8, 24585, Note_on_c, 5, 30, 127
8, 24660, Note_on_c, 5, 30, 0
8, 25024, Note_on_c, 5, 26, 127
8, 25044, Note_on_c, 5, 26, 0
8, 25048, Note_on_c, 5, 28, 127
8, 25072, Note_on_c, 5, 28, 0
8, 25119, Note_on_c, 5, 30, 127
8, 25190, Note_on_c, 5, 30, 0
8, 25580, Note_on_c, 5, 28, 127
8, 25606, Note_on_c, 5, 28, 0
8, 25650, Note_on_c, 5, 30, 127
8, 25716, Note_on_c, 5, 30, 0
8, 25849, Note_on_c, 5, 33, 127
8, 25894, Note_on_c, 5, 33, 0
8, 25921, Note_on_c, 5, 32, 127
8, 26002, Note_on_c, 5, 32, 0
8, 26053, Note_on_c, 5, 37, 127
8, 26139, Note_on_c, 5, 37, 0
8, 26185, Note_on_c, 5, 30, 127
8, 26258, Note_on_c, 5, 30, 0
8, 26620, Note_on_c, 5, 26, 127
8, 26639, Note_on_c, 5, 26, 0
8, 26643, Note_on_c, 5, 28, 127
8, 26667, Note_on_c, 5, 28, 0
8, 26712, Note_on_c, 5, 30, 127
8, 26789, Note_on_c, 5, 30, 0
8, 27181, Note_on_c, 5, 28, 127
8, 27206, Note_on_c, 5, 28, 0
8, 27252, Note_on_c, 5, 30, 127
8, 27332, Note_on_c, 5, 30, 0
8, 27694, Note_on_c, 5, 26, 127
8, 27714, Note_on_c, 5, 26, 0
8, 27715, Note_on_c, 5, 28, 127
8, 27737, Note_on_c, 5, 28, 0
8, 27780, Note_on_c, 5, 30, 127
8, 27853, Note_on_c, 5, 30, 0
8, 27984, Note_on_c, 5, 33, 127
8, 28028, Note_on_c, 5, 33, 0
8, 28053, Note_on_c, 5, 32, 127
8, 28146, Note_on_c, 5, 32, 0
8, 28187, Note_on_c, 5, 37, 127
8, 28280, Note_on_c, 5, 37, 0
8, 28326, Note_on_c, 5, 30, 127
8, 28376, Note_on_c, 5, 30, 0
8, 28757, Note_on_c, 5, 26, 127
8, 28781, Note_on_c, 5, 26, 0
8, 28782, Note_on_c, 5, 28, 127
8, 28812, Note_on_c, 5, 28, 0
8, 28852, Note_on_c, 5, 30, 127
8, 28923, Note_on_c, 5, 30, 0
8, 29318, Note_on_c, 5, 28, 127
8, 29344, Note_on_c, 5, 28, 0
8, 29384, Note_on_c, 5, 30, 127
8, 29462, Note_on_c, 5, 30, 0
8, 29822, Note_on_c, 5, 26, 127
8, 29842, Note_on_c, 5, 26, 0
8, 29849, Note_on_c, 5, 28, 127
8, 29874, Note_on_c, 5, 28, 0
8, 29918, Note_on_c, 5, 30, 127
8, 29994, Note_on_c, 5, 30, 0
8, 30115, Note_on_c, 5, 33, 127
8, 30157, Note_on_c, 5, 33, 0
8, 30185, Note_on_c, 5, 32, 127
8, 30268, Note_on_c, 5, 32, 0
8, 30318, Note_on_c, 5, 37, 127
8, 30412, Note_on_c, 5, 37, 0
8, 30453, Note_on_c, 5, 30, 127
8, 30532, Note_on_c, 5, 30, 0
8, 30885, Note_on_c, 5, 26, 127
8, 30907, Note_on_c, 5, 26, 0
8, 30910, Note_on_c, 5, 28, 127
8, 30942, Note_on_c, 5, 28, 0
8, 30985, Note_on_c, 5, 30, 127
8, 31056, Note_on_c, 5, 30, 0
8, 31451, Note_on_c, 5, 28, 127
8, 31486, Note_on_c, 5, 28, 0
8, 31522, Note_on_c, 5, 30, 127
8, 31599, Note_on_c, 5, 30, 0
8, 31953, Note_on_c, 5, 26, 127
8, 31974, Note_on_c, 5, 26, 0
8, 31980, Note_on_c, 5, 28, 127
8, 32007, Note_on_c, 5, 28, 0
8, 32050, Note_on_c, 5, 30, 127
8, 32133, Note_on_c, 5, 30, 0
8, 32247, Note_on_c, 5, 33, 127
8, 32286, Note_on_c, 5, 33, 0
8, 32316, Note_on_c, 5, 32, 127
8, 32404, Note_on_c, 5, 32, 0
8, 32455, Note_on_c, 5, 37, 127
8, 32538, Note_on_c, 5, 37, 0
8, 32588, Note_on_c, 5, 30, 127
8, 32656, Note_on_c, 5, 30, 0
8, 33022, Note_on_c, 5, 26, 127
8, 33050, Note_on_c, 5, 26, 0
8, 33051, Note_on_c, 5, 28, 127
8, 33080, Note_on_c, 5, 28, 0
8, 33118, Note_on_c, 5, 30, 127
8, 33194, Note_on_c, 5, 30, 0
8, 33578, Note_on_c, 5, 28, 127
8, 33612, Note_on_c, 5, 28, 0
8, 33651, Note_on_c, 5, 30, 127
8, 33728, Note_on_c, 5, 30, 0
8, 34090, Note_on_c, 5, 26, 127
8, 34109, Note_on_c, 5, 26, 0
8, 34115, Note_on_c, 5, 28, 127
8, 34140, Note_on_c, 5, 28, 0
8, 34184, Note_on_c, 5, 30, 127
8, 34265, Note_on_c, 5, 30, 0
8, 34380, Note_on_c, 5, 33, 127
8, 34422, Note_on_c, 5, 33, 0
8, 34451, Note_on_c, 5, 32, 127
8, 34534, Note_on_c, 5, 32, 0
8, 34588, Note_on_c, 5, 37, 127
8, 34674, Note_on_c, 5, 37, 0
8, 34717, Note_on_c, 5, 30, 127
8, 34797, Note_on_c, 5, 30, 0
8, 35157, Note_on_c, 5, 26, 127
8, 35182, Note_on_c, 5, 26, 0
8, 35183, Note_on_c, 5, 28, 127
8, 35210, Note_on_c, 5, 28, 0
8, 35252, Note_on_c, 5, 30, 127
8, 35313, Note_on_c, 5, 30, 0
8, 35714, Note_on_c, 5, 28, 127
8, 35746, Note_on_c, 5, 28, 0
8, 35787, Note_on_c, 5, 30, 127
8, 35838, Note_on_c, 5, 30, 0
8, 36223, Note_on_c, 5, 26, 127
8, 36244, Note_on_c, 5, 26, 0
8, 36252, Note_on_c, 5, 28, 127
8, 36274, Note_on_c, 5, 28, 0
8, 36322, Note_on_c, 5, 30, 127
8, 36365, Note_on_c, 5, 30, 0
8, 38644, Note_on_c, 5, 28, 127
8, 38693, Note_on_c, 5, 28, 0
8, 38719, Note_on_c, 5, 30, 127
8, 38748, Note_on_c, 5, 30, 0
8, 38784, Note_on_c, 5, 33, 127
8, 38806, Note_on_c, 5, 33, 0
8, 38853, Note_on_c, 5, 32, 127
8, 38874, Note_on_c, 5, 32, 0
8, 38919, Note_on_c, 5, 37, 127
8, 38925, Note_on_c, 5, 38, 127
8, 38933, Note_on_c, 5, 38, 0
8, 38935, Note_on_c, 5, 37, 0
8, 38986, Note_on_c, 5, 30, 127
8, 39021, Note_on_c, 5, 30, 0
8, 39119, Note_on_c, 5, 30, 127
8, 39146, Note_on_c, 5, 30, 0
8, 39254, Note_on_c, 5, 30, 127
8, 39298, Note_on_c, 5, 30, 0
8, 39384, Note_on_c, 5, 30, 127
8, 39426, Note_on_c, 5, 30, 0
8, 39445, Note_on_c, 5, 28, 127
8, 39477, Note_on_c, 5, 28, 0
8, 39517, Note_on_c, 5, 25, 127
8, 39562, Note_on_c, 5, 25, 0
8, 39650, Note_on_c, 5, 25, 127
8, 39709, Note_on_c, 5, 25, 0
8, 39785, Note_on_c, 5, 25, 127
8, 39858, Note_on_c, 5, 25, 0
8, 39918, Note_on_c, 5, 25, 127
8, 39953, Note_on_c, 5, 25, 0
8, 39980, Note_on_c, 5, 26, 127
8, 40004, Note_on_c, 5, 26, 0
8, 40126, Note_on_c, 5, 37, 127
8, 40146, Note_on_c, 5, 37, 0
8, 40187, Note_on_c, 5, 37, 127
8, 40226, Note_on_c, 5, 37, 0
8, 40318, Note_on_c, 5, 37, 127
8, 40373, Note_on_c, 5, 37, 0
8, 40454, Note_on_c, 5, 37, 127
8, 40497, Note_on_c, 5, 37, 0
8, 40588, Note_on_c, 5, 37, 127
8, 40615, Note_on_c, 5, 37, 0
8, 40652, Note_on_c, 5, 38, 127
8, 40685, Note_on_c, 5, 38, 0
8, 40719, Note_on_c, 5, 38, 127
8, 40748, Note_on_c, 5, 38, 0
8, 40782, Note_on_c, 5, 37, 127
8, 40806, Note_on_c, 5, 37, 0
8, 40851, Note_on_c, 5, 35, 127
8, 40877, Note_on_c, 5, 35, 0
8, 40917, Note_on_c, 5, 33, 127
8, 40940, Note_on_c, 5, 33, 0
8, 40984, Note_on_c, 5, 32, 127
8, 41031, Note_on_c, 5, 32, 0
8, 41118, Note_on_c, 5, 30, 127
8, 41161, Note_on_c, 5, 30, 0
8, 41253, Note_on_c, 5, 30, 127
8, 41304, Note_on_c, 5, 30, 0
8, 41386, Note_on_c, 5, 30, 127
8, 41439, Note_on_c, 5, 30, 0
8, 41519, Note_on_c, 5, 30, 127
8, 41548, Note_on_c, 5, 30, 0
8, 41586, Note_on_c, 5, 28, 127
8, 41615, Note_on_c, 5, 28, 0
8, 41659, Note_on_c, 5, 25, 127
8, 41707, Note_on_c, 5, 25, 0
8, 41787, Note_on_c, 5, 25, 127
8, 41847, Note_on_c, 5, 25, 0
8, 41916, Note_on_c, 5, 25, 127
8, 41997, Note_on_c, 5, 25, 0
8, 42048, Note_on_c, 5, 25, 127
8, 42087, Note_on_c, 5, 25, 0
8, 42115, Note_on_c, 5, 26, 127
8, 42137, Note_on_c, 5, 26, 0
8, 42185, Note_on_c, 5, 37, 127
8, 42255, Note_on_c, 5, 37, 0
8, 42317, Note_on_c, 5, 37, 127
8, 42387, Note_on_c, 5, 37, 0
8, 42454, Note_on_c, 5, 37, 127
8, 42528, Note_on_c, 5, 37, 0
8, 42588, Note_on_c, 5, 37, 127
8, 42661, Note_on_c, 5, 37, 0
8, 42720, Note_on_c, 5, 37, 127
8, 42757, Note_on_c, 5, 37, 0
8, 42854, Note_on_c, 5, 37, 127
8, 42931, Note_on_c, 5, 37, 0
8, 42977, Note_on_c, 5, 37, 127
8, 43000, Note_on_c, 5, 37, 0
8, 43015, Note_on_c, 5, 38, 127
8, 43043, Note_on_c, 5, 37, 127
8, 43048, Note_on_c, 5, 38, 0
8, 43065, Note_on_c, 5, 37, 0
8, 43114, Note_on_c, 5, 37, 127
8, 43116, Note_on_c, 5, 36, 127
8, 43143, Note_on_c, 5, 36, 0
8, 43143, Note_on_c, 5, 37, 0
8, 43180, Note_on_c, 5, 35, 127
8, 43208, Note_on_c, 5, 35, 0
8, 43252, Note_on_c, 5, 32, 127
8, 43297, Note_on_c, 5, 32, 0
8, 43311, Note_on_c, 5, 30, 127
8, 43338, Note_on_c, 5, 30, 0
8, 43382, Note_on_c, 5, 30, 127
8, 43421, Note_on_c, 5, 30, 0
8, 43685, Note_on_c, 5, 26, 127
8, 43706, Note_on_c, 5, 26, 0
8, 43711, Note_on_c, 5, 28, 127
8, 43736, Note_on_c, 5, 28, 0
8, 43781, Note_on_c, 5, 30, 127
8, 43840, Note_on_c, 5, 30, 0
8, 44250, Note_on_c, 5, 28, 127
8, 44287, Note_on_c, 5, 28, 0
8, 44321, Note_on_c, 5, 30, 127
8, 44389, Note_on_c, 5, 30, 0
8, 44758, Note_on_c, 5, 26, 127
8, 44779, Note_on_c, 5, 26, 0
8, 44787, Note_on_c, 5, 28, 127
8, 44813, Note_on_c, 5, 28, 0
8, 44854, Note_on_c, 5, 30, 127
8, 44922, Note_on_c, 5, 30, 0
8, 45048, Note_on_c, 5, 33, 127
8, 45093, Note_on_c, 5, 33, 0
8, 45118, Note_on_c, 5, 32, 127
8, 45206, Note_on_c, 5, 32, 0
8, 45254, Note_on_c, 5, 37, 127
8, 45343, Note_on_c, 5, 37, 0
8, 45386, Note_on_c, 5, 30, 127
8, 45466, Note_on_c, 5, 30, 0
8, 45821, Note_on_c, 5, 26, 127
8, 45849, Note_on_c, 5, 26, 0
8, 45850, Note_on_c, 5, 28, 127
8, 45878, Note_on_c, 5, 28, 0
8, 45920, Note_on_c, 5, 30, 127
8, 45994, Note_on_c, 5, 30, 0
8, 46385, Note_on_c, 5, 28, 127
8, 46413, Note_on_c, 5, 28, 0
8, 46453, Note_on_c, 5, 30, 127
8, 46529, Note_on_c, 5, 30, 0
8, 46890, Note_on_c, 5, 26, 127
8, 46911, Note_on_c, 5, 26, 0
8, 46913, Note_on_c, 5, 28, 127
8, 46940, Note_on_c, 5, 28, 0
8, 46980, Note_on_c, 5, 30, 127
8, 47063, Note_on_c, 5, 30, 0
8, 47184, Note_on_c, 5, 33, 127
8, 47225, Note_on_c, 5, 33, 0
8, 47252, Note_on_c, 5, 32, 127
8, 47335, Note_on_c, 5, 32, 0
8, 47384, Note_on_c, 5, 37, 127
8, 47476, Note_on_c, 5, 37, 0
8, 47515, Note_on_c, 5, 30, 127
8, 47595, Note_on_c, 5, 30, 0
8, 47959, Note_on_c, 5, 26, 127
8, 47982, Note_on_c, 5, 26, 0
8, 47983, Note_on_c, 5, 28, 127
8, 48011, Note_on_c, 5, 28, 0
8, 48052, Note_on_c, 5, 30, 127
8, 48140, Note_on_c, 5, 30, 0
8, 48515, Note_on_c, 5, 28, 127
8, 48548, Note_on_c, 5, 28, 0
8, 48587, Note_on_c, 5, 30, 127
8, 48666, Note_on_c, 5, 30, 0
8, 49011, Note_on_c, 5, 26, 127
8, 49032, Note_on_c, 5, 26, 0
8, 49037, Note_on_c, 5, 28, 127
8, 49062, Note_on_c, 5, 28, 0
8, 49108, Note_on_c, 5, 30, 127
8, 49190, Note_on_c, 5, 30, 0
8, 49307, Note_on_c, 5, 33, 127
8, 49345, Note_on_c, 5, 33, 0
8, 49376, Note_on_c, 5, 32, 127
8, 49457, Note_on_c, 5, 32, 0
8, 49513, Note_on_c, 5, 37, 127
8, 49591, Note_on_c, 5, 37, 0
8, 49660, Note_on_c, 5, 30, 127
8, 49717, Note_on_c, 5, 30, 0
8, 50082, Note_on_c, 5, 26, 127
8, 50107, Note_on_c, 5, 26, 0
8, 50110, Note_on_c, 5, 28, 127
8, 50129, Note_on_c, 5, 28, 0
8, 50170, Note_on_c, 5, 30, 127
8, 50244, Note_on_c, 5, 30, 0
8, 50636, Note_on_c, 5, 28, 127
8, 50674, Note_on_c, 5, 28, 0
8, 50710, Note_on_c, 5, 30, 127
8, 50789, Note_on_c, 5, 30, 0
8, 51141, Note_on_c, 5, 26, 127
8, 51168, Note_on_c, 5, 26, 0
8, 51170, Note_on_c, 5, 28, 127
8, 51197, Note_on_c, 5, 28, 0
8, 51241, Note_on_c, 5, 30, 127
8, 51319, Note_on_c, 5, 30, 0
8, 51440, Note_on_c, 5, 33, 127
8, 51485, Note_on_c, 5, 33, 0
8, 51511, Note_on_c, 5, 32, 127
8, 51596, Note_on_c, 5, 32, 0
8, 51642, Note_on_c, 5, 37, 127
8, 51732, Note_on_c, 5, 37, 0
8, 51778, Note_on_c, 5, 30, 127
8, 51845, Note_on_c, 5, 30, 0
8, 52217, Note_on_c, 5, 26, 127
8, 52218, Note_on_c, 5, 24, 127
8, 52238, Note_on_c, 5, 24, 0
8, 52242, Note_on_c, 5, 28, 127
8, 52243, Note_on_c, 5, 26, 0
8, 52270, Note_on_c, 5, 28, 0
8, 52310, Note_on_c, 5, 30, 127
8, 52368, Note_on_c, 5, 30, 0
8, 52779, Note_on_c, 5, 28, 127
8, 52821, Note_on_c, 5, 28, 0
8, 52846, Note_on_c, 5, 30, 127
8, 52908, Note_on_c, 5, 30, 0
8, 53280, Note_on_c, 5, 26, 127
8, 53307, Note_on_c, 5, 28, 127
8, 53308, Note_on_c, 5, 26, 0
8, 53335, Note_on_c, 5, 28, 0
8, 53375, Note_on_c, 5, 30, 127
8, 53445, Note_on_c, 5, 30, 0
8, 53574, Note_on_c, 5, 33, 127
8, 53619, Note_on_c, 5, 33, 0
8, 53649, Note_on_c, 5, 32, 127
8, 53734, Note_on_c, 5, 32, 0
8, 53778, Note_on_c, 5, 37, 127
8, 53866, Note_on_c, 5, 37, 0
8, 53910, Note_on_c, 5, 30, 127
8, 53986, Note_on_c, 5, 30, 0
8, 54001, Control_c, 5, 7, 126
8, 54016, Control_c, 5, 7, 125
8, 54040, Control_c, 5, 7, 124
8, 54048, Control_c, 5, 7, 122
8, 54066, Control_c, 5, 7, 120
8, 54081, Control_c, 5, 7, 119
8, 54101, Control_c, 5, 7, 118
8, 54137, Control_c, 5, 7, 117
8, 54171, Control_c, 5, 7, 115
8, 54186, Control_c, 5, 7, 113
8, 54219, Control_c, 5, 7, 112
8, 54308, Control_c, 5, 7, 111
8, 54346, Note_on_c, 5, 26, 127
8, 54368, Note_on_c, 5, 26, 0
8, 54374, Note_on_c, 5, 28, 127
8, 54397, Note_on_c, 5, 28, 0
8, 54397, Control_c, 5, 7, 110
8, 54442, Note_on_c, 5, 30, 127
8, 54446, Control_c, 5, 7, 108
8, 54520, Note_on_c, 5, 30, 0
8, 54532, Control_c, 5, 7, 106
8, 54599, Control_c, 5, 7, 105
8, 54656, Control_c, 5, 7, 103
8, 54717, Control_c, 5, 7, 101
8, 54746, Control_c, 5, 7, 100
8, 54808, Control_c, 5, 7, 99
8, 54861, Control_c, 5, 7, 98
8, 54888, Note_on_c, 5, 26, 127
8, 54908, Note_on_c, 5, 26, 0
8, 54911, Control_c, 5, 7, 96
8, 54937, Control_c, 5, 7, 94
8, 54956, Control_c, 5, 7, 93
8, 54978, Note_on_c, 5, 30, 127
8, 55024, Control_c, 5, 7, 92
8, 55040, Note_on_c, 5, 30, 0
8, 55064, Control_c, 5, 7, 91
8, 55137, Control_c, 5, 7, 89
8, 55172, Control_c, 5, 7, 87
8, 55228, Control_c, 5, 7, 86
8, 55260, Control_c, 5, 7, 85
8, 55329, Control_c, 5, 7, 84
8, 55396, Control_c, 5, 7, 82
8, 55410, Note_on_c, 5, 26, 127
8, 55425, Control_c, 5, 7, 80
8, 55434, Note_on_c, 5, 26, 0
8, 55438, Note_on_c, 5, 28, 127
8, 55461, Control_c, 5, 7, 79
8, 55466, Note_on_c, 5, 28, 0
8, 55496, Control_c, 5, 7, 78
8, 55510, Note_on_c, 5, 30, 127
8, 55525, Control_c, 5, 7, 77
8, 55552, Control_c, 5, 7, 75
8, 55571, Note_on_c, 5, 30, 0
8, 55581, Control_c, 5, 7, 73
8, 55643, Control_c, 5, 7, 72
8, 55656, Control_c, 5, 7, 71
8, 55684, Control_c, 5, 7, 70
8, 55705, Note_on_c, 5, 33, 127
8, 55736, Control_c, 5, 7, 68
8, 55747, Note_on_c, 5, 33, 0
8, 55767, Control_c, 5, 7, 66
8, 55778, Note_on_c, 5, 32, 127
8, 55784, Control_c, 5, 7, 65
8, 55791, Control_c, 5, 7, 64
8, 55796, Control_c, 5, 7, 63
8, 55824, Control_c, 5, 7, 61
8, 55858, Note_on_c, 5, 32, 0
8, 55905, Control_c, 5, 7, 60
8, 55910, Note_on_c, 5, 37, 127
8, 55964, Control_c, 5, 7, 59
8, 56000, Note_on_c, 5, 37, 0
8, 56045, Note_on_c, 5, 30, 127
8, 56067, Control_c, 5, 7, 58
8, 56122, Control_c, 5, 7, 56
8, 56126, Note_on_c, 5, 30, 0
8, 56150, Control_c, 5, 7, 54
8, 56183, Control_c, 5, 7, 53
8, 56223, Control_c, 5, 7, 52
8, 56236, Control_c, 5, 7, 51
8, 56259, Control_c, 5, 7, 49
8, 56291, Control_c, 5, 7, 47
8, 56334, Control_c, 5, 7, 46
8, 56405, Control_c, 5, 7, 45
8, 56415, Control_c, 5, 7, 44
8, 56480, Control_c, 5, 7, 42
8, 56487, Note_on_c, 5, 26, 127
8, 56507, Note_on_c, 5, 26, 0
8, 56511, Control_c, 5, 7, 40
8, 56511, Note_on_c, 5, 28, 127
8, 56534, Note_on_c, 5, 28, 0
8, 56551, Control_c, 5, 7, 39
8, 56577, Control_c, 5, 7, 38
8, 56577, Note_on_c, 5, 30, 127
8, 56602, Control_c, 5, 7, 37
8, 56641, Note_on_c, 5, 30, 0
8, 56647, Control_c, 5, 7, 35
8, 56672, Control_c, 5, 7, 33
8, 56692, Control_c, 5, 7, 32
8, 56742, Control_c, 5, 7, 31
8, 56761, Control_c, 5, 7, 30
8, 56819, Control_c, 5, 7, 28
8, 56829, Control_c, 5, 7, 26
8, 56840, Control_c, 5, 7, 25
8, 56877, Control_c, 5, 7, 24
8, 56921, Control_c, 5, 7, 23
8, 56939, Control_c, 5, 7, 21
8, 57042, Note_on_c, 5, 28, 127
8, 57056, Control_c, 5, 7, 20
8, 57072, Note_on_c, 5, 28, 0
8, 57077, Control_c, 5, 7, 19
8, 57112, Note_on_c, 5, 30, 127
8, 57174, Note_on_c, 5, 30, 0
8, 57200, Control_c, 5, 7, 18
8, 57200, End_track
9, 0, Start_track
9, 0, MIDI_port, 0
9, 0, Title_t, "Sound effect"
9, 0, Program_c, 6, 88
9, 180, Control_c, 6, 7, 28
9, 185, Control_c, 6, 7, 29
9, 205, Control_c, 6, 7, 31
9, 210, Control_c, 6, 7, 38
9, 215, Control_c, 6, 7, 75
9, 220, Control_c, 6, 7, 127
9, 13447, Note_on_c, 6, 80, 118
9, 13471, Note_on_c, 6, 80, 0
9, 13511, Note_on_c, 6, 80, 122
9, 13552, Note_on_c, 6, 78, 54
9, 13559, Note_on_c, 6, 80, 0
9, 13582, Note_on_c, 6, 76, 49
9, 13588, Note_on_c, 6, 78, 0
9, 13622, Note_on_c, 6, 73, 127
9, 13623, Note_on_c, 6, 76, 0
9, 13694, Note_on_c, 6, 73, 0
9, 13709, Note_on_c, 6, 73, 118
9, 13756, Note_on_c, 6, 73, 0
9, 13778, Note_on_c, 6, 74, 77
9, 13779, Note_on_c, 6, 76, 69
9, 13814, Note_on_c, 6, 74, 0
9, 13850, Note_on_c, 6, 79, 34
9, 13850, Note_on_c, 6, 78, 38
9, 13871, Note_on_c, 6, 79, 0
9, 13872, Note_on_c, 6, 78, 0
9, 13890, Note_on_c, 6, 76, 0
9, 13905, Note_on_c, 6, 80, 103
9, 13953, Note_on_c, 6, 80, 0
9, 13967, Note_on_c, 6, 80, 97
9, 14036, Note_on_c, 6, 80, 0
9, 14042, Note_on_c, 6, 76, 67
9, 14042, Note_on_c, 6, 78, 127
9, 14066, Note_on_c, 6, 76, 0
9, 14096, Note_on_c, 6, 78, 0
9, 14105, Note_on_c, 6, 76, 54
9, 14151, Note_on_c, 6, 73, 47
9, 14153, Note_on_c, 6, 76, 0
9, 14228, Note_on_c, 6, 73, 0
9, 14240, Note_on_c, 6, 73, 82
9, 14282, Note_on_c, 6, 73, 0
9, 14306, Note_on_c, 6, 73, 74
9, 14343, Note_on_c, 6, 76, 45
9, 14347, Note_on_c, 6, 73, 0
9, 14370, Note_on_c, 6, 78, 118
9, 14391, Note_on_c, 6, 76, 0
9, 14433, Note_on_c, 6, 78, 0
9, 14442, Note_on_c, 6, 80, 100
9, 14482, Note_on_c, 6, 80, 0
9, 14506, Note_on_c, 6, 80, 113
9, 14550, Note_on_c, 6, 80, 0
9, 14573, Note_on_c, 6, 80, 94
9, 14614, Note_on_c, 6, 78, 52
9, 14619, Note_on_c, 6, 80, 0
9, 14637, Note_on_c, 6, 76, 41
9, 14642, Note_on_c, 6, 78, 0
9, 14676, Note_on_c, 6, 73, 90
9, 14682, Note_on_c, 6, 76, 0
9, 14762, Note_on_c, 6, 73, 0
9, 14776, Note_on_c, 6, 73, 100
9, 14818, Note_on_c, 6, 73, 0
9, 14842, Note_on_c, 6, 73, 70
9, 14882, Note_on_c, 6, 76, 42
9, 14887, Note_on_c, 6, 73, 0
9, 14904, Note_on_c, 6, 78, 106
9, 14924, Note_on_c, 6, 76, 0
9, 14964, Note_on_c, 6, 78, 0
9, 14973, Note_on_c, 6, 80, 97
9, 15012, Note_on_c, 6, 80, 0
9, 15036, Note_on_c, 6, 80, 100
9, 15105, Note_on_c, 6, 80, 0
9, 15106, Note_on_c, 6, 76, 76
9, 15151, Note_on_c, 6, 76, 0
9, 15172, Note_on_c, 6, 76, 85
9, 15232, Note_on_c, 6, 76, 0
9, 15240, Note_on_c, 6, 78, 127
9, 15371, Note_on_c, 6, 78, 0
9, 15384, Note_on_c, 6, 73, 127
9, 15504, Note_on_c, 6, 73, 0
9, 15516, Note_on_c, 6, 80, 127
9, 15550, Note_on_c, 6, 80, 0
9, 15577, Note_on_c, 6, 80, 127
9, 15615, Note_on_c, 6, 80, 0
9, 15644, Note_on_c, 6, 80, 118
9, 15683, Note_on_c, 6, 78, 65
9, 15689, Note_on_c, 6, 80, 0
9, 15709, Note_on_c, 6, 76, 56
9, 15714, Note_on_c, 6, 78, 0
9, 15748, Note_on_c, 6, 76, 0
9, 15748, Note_on_c, 6, 73, 113
9, 15889, Note_on_c, 6, 73, 0
9, 15908, Note_on_c, 6, 73, 82
9, 15948, Note_on_c, 6, 76, 58
9, 15953, Note_on_c, 6, 73, 0
9, 15974, Note_on_c, 6, 78, 118
9, 15990, Note_on_c, 6, 76, 0
9, 16036, Note_on_c, 6, 78, 0
9, 16043, Note_on_c, 6, 80, 92
9, 16081, Note_on_c, 6, 80, 0
9, 16107, Note_on_c, 6, 80, 110
9, 16144, Note_on_c, 6, 80, 0
9, 16170, Note_on_c, 6, 80, 103
9, 16216, Note_on_c, 6, 78, 47
9, 16219, Note_on_c, 6, 80, 0
9, 16233, Note_on_c, 6, 76, 62
9, 16238, Note_on_c, 6, 78, 0
9, 16286, Note_on_c, 6, 73, 70
9, 16289, Note_on_c, 6, 76, 0
9, 16366, Note_on_c, 6, 73, 0
9, 16377, Note_on_c, 6, 73, 77
9, 16421, Note_on_c, 6, 73, 0
9, 16441, Note_on_c, 6, 73, 68
9, 16485, Note_on_c, 6, 76, 41
9, 16488, Note_on_c, 6, 73, 0
9, 16508, Note_on_c, 6, 78, 92
9, 16524, Note_on_c, 6, 76, 0
9, 16572, Note_on_c, 6, 78, 0
9, 16579, Note_on_c, 6, 80, 94
9, 16627, Note_on_c, 6, 80, 0
9, 16646, Note_on_c, 6, 80, 66
9, 16689, Note_on_c, 6, 80, 0
9, 16713, Note_on_c, 6, 80, 82
9, 16759, Note_on_c, 6, 78, 55
9, 16765, Note_on_c, 6, 80, 0
9, 16795, Note_on_c, 6, 76, 35
9, 16810, Note_on_c, 6, 78, 0
9, 16897, Note_on_c, 6, 73, 64
9, 16906, Note_on_c, 6, 76, 0
9, 16969, Note_on_c, 6, 73, 0
9, 16983, Note_on_c, 6, 73, 73
9, 17022, Note_on_c, 6, 76, 49
9, 17024, Note_on_c, 6, 73, 0
9, 17045, Note_on_c, 6, 78, 87
9, 17066, Note_on_c, 6, 76, 0
9, 17106, Note_on_c, 6, 78, 0
9, 17116, Note_on_c, 6, 80, 97
9, 17156, Note_on_c, 6, 80, 0
9, 17180, Note_on_c, 6, 80, 80
9, 17248, Note_on_c, 6, 80, 0
9, 17251, Note_on_c, 6, 76, 73
9, 17293, Note_on_c, 6, 76, 0
9, 17318, Note_on_c, 6, 76, 82
9, 17383, Note_on_c, 6, 78, 113
9, 17388, Note_on_c, 6, 76, 0
9, 17519, Note_on_c, 6, 78, 0
9, 17523, Note_on_c, 6, 73, 113
9, 17586, Note_on_c, 6, 73, 0
9, 26120, Note_on_c, 6, 78, 41
9, 26144, Note_on_c, 6, 78, 0
9, 26181, Note_on_c, 6, 80, 127
9, 26220, Note_on_c, 6, 80, 0
9, 26248, Note_on_c, 6, 80, 118
9, 26294, Note_on_c, 6, 80, 0
9, 26314, Note_on_c, 6, 80, 122
9, 26350, Note_on_c, 6, 78, 62
9, 26354, Note_on_c, 6, 80, 0
9, 26376, Note_on_c, 6, 76, 72
9, 26380, Note_on_c, 6, 78, 0
9, 26413, Note_on_c, 6, 76, 0
9, 26413, Note_on_c, 6, 73, 127
9, 26488, Note_on_c, 6, 73, 0
9, 26501, Note_on_c, 6, 73, 92
9, 26541, Note_on_c, 6, 73, 0
9, 26571, Note_on_c, 6, 73, 87
9, 26613, Note_on_c, 6, 76, 52
9, 26617, Note_on_c, 6, 73, 0
9, 26634, Note_on_c, 6, 78, 103
9, 26646, Note_on_c, 6, 79, 45
9, 26666, Note_on_c, 6, 76, 0
9, 26675, Note_on_c, 6, 79, 0
9, 26680, Note_on_c, 6, 78, 0
9, 26703, Note_on_c, 6, 80, 92
9, 26741, Note_on_c, 6, 80, 0
9, 26771, Note_on_c, 6, 80, 118
9, 26803, Note_on_c, 6, 80, 0
9, 26835, Note_on_c, 6, 80, 118
9, 26873, Note_on_c, 6, 78, 55
9, 26880, Note_on_c, 6, 80, 0
9, 26900, Note_on_c, 6, 76, 59
9, 26905, Note_on_c, 6, 78, 0
9, 26941, Note_on_c, 6, 73, 87
9, 26943, Note_on_c, 6, 76, 0
9, 27025, Note_on_c, 6, 73, 0
9, 27037, Note_on_c, 6, 73, 80
9, 27075, Note_on_c, 6, 73, 0
9, 27100, Note_on_c, 6, 73, 80
9, 27142, Note_on_c, 6, 76, 42
9, 27147, Note_on_c, 6, 73, 0
9, 27167, Note_on_c, 6, 78, 100
9, 27185, Note_on_c, 6, 76, 0
9, 27228, Note_on_c, 6, 78, 0
9, 27236, Note_on_c, 6, 80, 97
9, 27277, Note_on_c, 6, 80, 0
9, 27304, Note_on_c, 6, 80, 118
9, 27336, Note_on_c, 6, 80, 0
9, 27368, Note_on_c, 6, 80, 118
9, 27405, Note_on_c, 6, 78, 46
9, 27411, Note_on_c, 6, 80, 0
9, 27432, Note_on_c, 6, 76, 58
9, 27439, Note_on_c, 6, 78, 0
9, 27465, Note_on_c, 6, 76, 0
9, 27474, Note_on_c, 6, 73, 127
9, 27552, Note_on_c, 6, 73, 0
9, 27570, Note_on_c, 6, 73, 100
9, 27607, Note_on_c, 6, 73, 0
9, 27636, Note_on_c, 6, 73, 97
9, 27676, Note_on_c, 6, 76, 51
9, 27679, Note_on_c, 6, 73, 0
9, 27701, Note_on_c, 6, 78, 122
9, 27716, Note_on_c, 6, 76, 0
9, 27762, Note_on_c, 6, 78, 0
9, 27771, Note_on_c, 6, 80, 113
9, 27809, Note_on_c, 6, 80, 0
9, 27834, Note_on_c, 6, 80, 118
9, 27898, Note_on_c, 6, 80, 0
9, 27903, Note_on_c, 6, 76, 90
9, 27945, Note_on_c, 6, 76, 0
9, 27972, Note_on_c, 6, 76, 106
9, 28030, Note_on_c, 6, 76, 0
9, 28041, Note_on_c, 6, 78, 127
9, 28171, Note_on_c, 6, 78, 0
9, 28183, Note_on_c, 6, 73, 127
9, 28303, Note_on_c, 6, 73, 0
9, 28317, Note_on_c, 6, 80, 127
9, 28352, Note_on_c, 6, 80, 0
9, 28381, Note_on_c, 6, 80, 127
9, 28411, Note_on_c, 6, 80, 0
9, 28447, Note_on_c, 6, 80, 118
9, 28485, Note_on_c, 6, 78, 57
9, 28491, Note_on_c, 6, 80, 0
9, 28512, Note_on_c, 6, 76, 55
9, 28515, Note_on_c, 6, 78, 0
9, 28546, Note_on_c, 6, 76, 0
9, 28564, Note_on_c, 6, 76, 60
9, 28585, Note_on_c, 6, 73, 127
9, 28592, Note_on_c, 6, 76, 0
9, 28689, Note_on_c, 6, 73, 0
9, 28712, Note_on_c, 6, 73, 87
9, 28754, Note_on_c, 6, 73, 0
9, 28757, Note_on_c, 6, 76, 35
9, 28777, Note_on_c, 6, 78, 90
9, 28792, Note_on_c, 6, 76, 0
9, 28838, Note_on_c, 6, 78, 0
9, 28845, Note_on_c, 6, 80, 77
9, 28879, Note_on_c, 6, 80, 0
9, 28909, Note_on_c, 6, 80, 57
9, 28946, Note_on_c, 6, 80, 0
9, 28974, Note_on_c, 6, 80, 84
9, 29017, Note_on_c, 6, 78, 46
9, 29026, Note_on_c, 6, 80, 0
9, 29066, Note_on_c, 6, 78, 0
9, 29073, Note_on_c, 6, 76, 16
9, 29085, Note_on_c, 6, 73, 113
9, 29092, Note_on_c, 6, 76, 0
9, 29165, Note_on_c, 6, 73, 0
9, 29178, Note_on_c, 6, 73, 70
9, 29219, Note_on_c, 6, 73, 0
9, 29245, Note_on_c, 6, 73, 68
9, 29287, Note_on_c, 6, 76, 37
9, 29298, Note_on_c, 6, 73, 0
9, 29315, Note_on_c, 6, 78, 47
9, 29335, Note_on_c, 6, 76, 0
9, 29371, Note_on_c, 6, 78, 0
9, 29382, Note_on_c, 6, 80, 78
9, 29419, Note_on_c, 6, 80, 0
9, 29450, Note_on_c, 6, 80, 65
9, 29482, Note_on_c, 6, 80, 0
9, 29512, Note_on_c, 6, 80, 69
9, 29546, Note_on_c, 6, 78, 49
9, 29556, Note_on_c, 6, 80, 0
9, 29578, Note_on_c, 6, 76, 51
9, 29581, Note_on_c, 6, 78, 0
9, 29636, Note_on_c, 6, 73, 122
9, 29640, Note_on_c, 6, 76, 0
9, 29706, Note_on_c, 6, 73, 0
9, 29722, Note_on_c, 6, 73, 69
9, 29762, Note_on_c, 6, 73, 0
9, 29788, Note_on_c, 6, 73, 64
9, 29828, Note_on_c, 6, 76, 39
9, 29835, Note_on_c, 6, 73, 0
9, 29849, Note_on_c, 6, 78, 49
9, 29867, Note_on_c, 6, 76, 0
9, 29902, Note_on_c, 6, 78, 0
9, 29914, Note_on_c, 6, 80, 90
9, 29948, Note_on_c, 6, 80, 0
9, 29976, Note_on_c, 6, 80, 76
9, 30042, Note_on_c, 6, 80, 0
9, 30049, Note_on_c, 6, 76, 67
9, 30084, Note_on_c, 6, 76, 0
9, 30115, Note_on_c, 6, 76, 67
9, 30174, Note_on_c, 6, 76, 0
9, 30183, Note_on_c, 6, 78, 97
9, 30226, Note_on_c, 6, 78, 0
9, 30250, Note_on_c, 6, 78, 69
9, 30310, Note_on_c, 6, 78, 0
9, 30314, Note_on_c, 6, 76, 59
9, 30349, Note_on_c, 6, 73, 76
9, 30354, Note_on_c, 6, 76, 0
9, 30439, Note_on_c, 6, 73, 0
9, 30447, Note_on_c, 6, 80, 100
9, 30455, Note_on_c, 6, 79, 97
9, 30472, Note_on_c, 6, 79, 0
9, 30472, Note_on_c, 6, 80, 0
9, 30513, Note_on_c, 6, 80, 122
9, 30541, Note_on_c, 6, 80, 0
9, 30576, Note_on_c, 6, 80, 113
9, 30612, Note_on_c, 6, 78, 54
9, 30618, Note_on_c, 6, 80, 0
9, 30638, Note_on_c, 6, 76, 62
9, 30642, Note_on_c, 6, 78, 0
9, 30672, Note_on_c, 6, 76, 0
9, 30676, Note_on_c, 6, 73, 94
9, 30754, Note_on_c, 6, 73, 0
9, 30779, Note_on_c, 6, 73, 80
9, 30812, Note_on_c, 6, 73, 0
9, 30845, Note_on_c, 6, 73, 92
9, 30882, Note_on_c, 6, 76, 47
9, 30889, Note_on_c, 6, 73, 0
9, 30906, Note_on_c, 6, 78, 92
9, 30926, Note_on_c, 6, 76, 0
9, 30958, Note_on_c, 6, 78, 0
9, 30972, Note_on_c, 6, 80, 80
9, 31005, Note_on_c, 6, 80, 0
9, 31037, Note_on_c, 6, 80, 90
9, 31064, Note_on_c, 6, 80, 0
9, 31100, Note_on_c, 6, 80, 103
9, 31135, Note_on_c, 6, 78, 48
9, 31139, Note_on_c, 6, 80, 0
9, 31161, Note_on_c, 6, 76, 61
9, 31164, Note_on_c, 6, 78, 0
9, 31199, Note_on_c, 6, 76, 0
9, 31201, Note_on_c, 6, 73, 92
9, 31278, Note_on_c, 6, 73, 0
9, 31300, Note_on_c, 6, 73, 87
9, 31335, Note_on_c, 6, 73, 0
9, 31365, Note_on_c, 6, 73, 76
9, 31403, Note_on_c, 6, 76, 41
9, 31405, Note_on_c, 6, 73, 0
9, 31428, Note_on_c, 6, 78, 97
9, 31454, Note_on_c, 6, 76, 0
9, 31484, Note_on_c, 6, 78, 0
9, 31496, Note_on_c, 6, 80, 94
9, 31531, Note_on_c, 6, 80, 0
9, 31564, Note_on_c, 6, 80, 97
9, 31596, Note_on_c, 6, 80, 0
9, 31629, Note_on_c, 6, 80, 103
9, 31665, Note_on_c, 6, 78, 51
9, 31671, Note_on_c, 6, 80, 0
9, 31692, Note_on_c, 6, 76, 59
9, 31697, Note_on_c, 6, 78, 0
9, 31734, Note_on_c, 6, 76, 0
9, 31734, Note_on_c, 6, 73, 58
9, 31798, Note_on_c, 6, 73, 0
9, 31812, Note_on_c, 6, 73, 94
9, 31870, Note_on_c, 6, 73, 0
9, 31900, Note_on_c, 6, 73, 84
9, 31942, Note_on_c, 6, 76, 48
9, 31944, Note_on_c, 6, 73, 0
9, 31969, Note_on_c, 6, 78, 90
9, 31993, Note_on_c, 6, 76, 0
9, 32022, Note_on_c, 6, 78, 0
9, 32036, Note_on_c, 6, 80, 69
9, 32071, Note_on_c, 6, 80, 0
9, 32098, Note_on_c, 6, 80, 92
9, 32163, Note_on_c, 6, 80, 0
9, 32167, Note_on_c, 6, 76, 73
9, 32208, Note_on_c, 6, 76, 0
9, 32236, Note_on_c, 6, 76, 66
9, 32296, Note_on_c, 6, 76, 0
9, 32307, Note_on_c, 6, 78, 106
9, 32430, Note_on_c, 6, 78, 0
9, 32440, Note_on_c, 6, 76, 100
9, 32536, Note_on_c, 6, 76, 0
9, 43313, Note_on_c, 6, 80, 127
9, 43333, Note_on_c, 6, 80, 0
9, 43378, Note_on_c, 6, 80, 127
9, 43411, Note_on_c, 6, 78, 70
9, 43415, Note_on_c, 6, 80, 0
9, 43442, Note_on_c, 6, 76, 60
9, 43446, Note_on_c, 6, 78, 0
9, 43470, Note_on_c, 6, 76, 0
9, 43484, Note_on_c, 6, 73, 127
9, 43556, Note_on_c, 6, 73, 0
9, 43575, Note_on_c, 6, 73, 92
9, 43616, Note_on_c, 6, 73, 0
9, 43642, Note_on_c, 6, 73, 106
9, 43684, Note_on_c, 6, 73, 0
9, 43684, Note_on_c, 6, 76, 48
9, 43709, Note_on_c, 6, 78, 106
9, 43730, Note_on_c, 6, 76, 0
9, 43759, Note_on_c, 6, 78, 0
9, 43771, Note_on_c, 6, 80, 97
9, 43815, Note_on_c, 6, 80, 0
9, 43839, Note_on_c, 6, 80, 122
9, 43888, Note_on_c, 6, 80, 0
9, 43909, Note_on_c, 6, 78, 103
9, 43958, Note_on_c, 6, 78, 0
9, 43968, Note_on_c, 6, 76, 78
9, 44014, Note_on_c, 6, 76, 0
9, 44014, Note_on_c, 6, 73, 94
9, 44044, Note_on_c, 6, 76, 110
9, 44049, Note_on_c, 6, 73, 0
9, 44161, Note_on_c, 6, 76, 0
9, 44182, Note_on_c, 6, 76, 92
9, 44246, Note_on_c, 6, 78, 62
9, 44260, Note_on_c, 6, 80, 38
9, 44265, Note_on_c, 6, 76, 0
9, 44276, Note_on_c, 6, 78, 0
9, 44302, Note_on_c, 6, 80, 0
9, 44314, Note_on_c, 6, 80, 122
9, 44360, Note_on_c, 6, 80, 0
9, 44379, Note_on_c, 6, 80, 127
9, 44426, Note_on_c, 6, 80, 0
9, 44444, Note_on_c, 6, 80, 118
9, 44478, Note_on_c, 6, 78, 52
9, 44482, Note_on_c, 6, 80, 0
9, 44504, Note_on_c, 6, 76, 68
9, 44508, Note_on_c, 6, 78, 0
9, 44551, Note_on_c, 6, 73, 100
9, 44552, Note_on_c, 6, 76, 0
9, 44624, Note_on_c, 6, 73, 0
9, 44642, Note_on_c, 6, 73, 92
9, 44686, Note_on_c, 6, 73, 0
9, 44711, Note_on_c, 6, 73, 82
9, 44746, Note_on_c, 6, 76, 49
9, 44752, Note_on_c, 6, 73, 0
9, 44775, Note_on_c, 6, 78, 118
9, 44794, Note_on_c, 6, 76, 0
9, 44839, Note_on_c, 6, 78, 0
9, 44848, Note_on_c, 6, 80, 118
9, 44891, Note_on_c, 6, 80, 0
9, 44916, Note_on_c, 6, 80, 127
9, 44978, Note_on_c, 6, 80, 0
9, 44985, Note_on_c, 6, 76, 94
9, 45026, Note_on_c, 6, 76, 0
9, 45051, Note_on_c, 6, 76, 100
9, 45106, Note_on_c, 6, 76, 0
9, 45122, Note_on_c, 6, 78, 127
9, 45244, Note_on_c, 6, 78, 0
9, 45260, Note_on_c, 6, 76, 110
9, 45289, Note_on_c, 6, 76, 0
9, 45324, Note_on_c, 6, 73, 127
9, 45359, Note_on_c, 6, 73, 0
9, 45391, Note_on_c, 6, 80, 127
9, 45425, Note_on_c, 6, 80, 0
9, 45450, Note_on_c, 6, 80, 127
9, 45488, Note_on_c, 6, 80, 0
9, 45513, Note_on_c, 6, 80, 118
9, 45546, Note_on_c, 6, 78, 49
9, 45551, Note_on_c, 6, 80, 0
9, 45574, Note_on_c, 6, 76, 55
9, 45578, Note_on_c, 6, 78, 0
9, 45610, Note_on_c, 6, 76, 0
9, 45614, Note_on_c, 6, 73, 127
9, 45692, Note_on_c, 6, 73, 0
9, 45710, Note_on_c, 6, 73, 103
9, 45751, Note_on_c, 6, 73, 0
9, 45776, Note_on_c, 6, 73, 94
9, 45816, Note_on_c, 6, 76, 34
9, 45817, Note_on_c, 6, 73, 0
9, 45843, Note_on_c, 6, 78, 106
9, 45861, Note_on_c, 6, 76, 0
9, 45897, Note_on_c, 6, 78, 0
9, 45912, Note_on_c, 6, 80, 100
9, 45951, Note_on_c, 6, 80, 0
9, 45977, Note_on_c, 6, 80, 113
9, 46039, Note_on_c, 6, 80, 0
9, 46045, Note_on_c, 6, 76, 92
9, 46091, Note_on_c, 6, 76, 0
9, 46112, Note_on_c, 6, 76, 68
9, 46174, Note_on_c, 6, 76, 0
9, 46181, Note_on_c, 6, 78, 90
9, 46210, Note_on_c, 6, 78, 0
9, 46247, Note_on_c, 6, 73, 127
9, 46302, Note_on_c, 6, 73, 0
9, 46311, Note_on_c, 6, 76, 78
9, 46376, Note_on_c, 6, 76, 0
9, 46384, Note_on_c, 6, 78, 118
9, 46436, Note_on_c, 6, 78, 0
9, 46456, Note_on_c, 6, 80, 127
9, 46485, Note_on_c, 6, 80, 0
9, 46522, Note_on_c, 6, 80, 122
9, 46553, Note_on_c, 6, 80, 0
9, 46584, Note_on_c, 6, 80, 113
9, 46628, Note_on_c, 6, 78, 41
9, 46632, Note_on_c, 6, 80, 0
9, 46647, Note_on_c, 6, 76, 48
9, 46652, Note_on_c, 6, 78, 0
9, 46683, Note_on_c, 6, 76, 0
9, 46688, Note_on_c, 6, 78, 80
9, 46708, Note_on_c, 6, 78, 0
9, 46758, Note_on_c, 6, 73, 127
9, 46838, Note_on_c, 6, 73, 0
9, 46851, Note_on_c, 6, 73, 92
9, 46891, Note_on_c, 6, 73, 0
9, 46892, Note_on_c, 6, 76, 44
9, 46918, Note_on_c, 6, 78, 97
9, 46932, Note_on_c, 6, 76, 0
9, 46974, Note_on_c, 6, 78, 0
9, 46984, Note_on_c, 6, 80, 103
9, 47022, Note_on_c, 6, 80, 0
9, 47046, Note_on_c, 6, 80, 94
9, 47107, Note_on_c, 6, 80, 0
9, 47116, Note_on_c, 6, 76, 90
9, 47156, Note_on_c, 6, 76, 0
9, 47183, Note_on_c, 6, 76, 84
9, 47240, Note_on_c, 6, 76, 0
9, 47255, Note_on_c, 6, 78, 127
9, 47372, Note_on_c, 6, 78, 0
9, 47385, Note_on_c, 6, 73, 127
9, 47497, Note_on_c, 6, 73, 0
9, 47509, Note_on_c, 6, 80, 122
9, 47548, Note_on_c, 6, 80, 0
9, 47576, Note_on_c, 6, 80, 127
9, 47619, Note_on_c, 6, 80, 0
9, 47641, Note_on_c, 6, 80, 110
9, 47681, Note_on_c, 6, 78, 57
9, 47685, Note_on_c, 6, 80, 0
9, 47708, Note_on_c, 6, 76, 50
9, 47709, Note_on_c, 6, 78, 0
9, 47748, Note_on_c, 6, 73, 118
9, 47753, Note_on_c, 6, 76, 0
9, 47753, Note_on_c, 6, 72, 53
9, 47794, Note_on_c, 6, 72, 0
9, 47830, Note_on_c, 6, 73, 0
9, 47847, Note_on_c, 6, 73, 87
9, 47891, Note_on_c, 6, 73, 0
9, 47912, Note_on_c, 6, 73, 76
9, 47951, Note_on_c, 6, 73, 0
9, 47956, Note_on_c, 6, 76, 28
9, 47977, Note_on_c, 6, 78, 90
9, 47996, Note_on_c, 6, 76, 0
9, 48034, Note_on_c, 6, 78, 0
9, 48045, Note_on_c, 6, 80, 97
9, 48084, Note_on_c, 6, 80, 0
9, 48107, Note_on_c, 6, 80, 97
9, 48147, Note_on_c, 6, 80, 0
9, 48172, Note_on_c, 6, 80, 87
9, 48215, Note_on_c, 6, 78, 42
9, 48219, Note_on_c, 6, 80, 0
9, 48237, Note_on_c, 6, 76, 54
9, 48238, Note_on_c, 6, 78, 0
9, 48299, Note_on_c, 6, 76, 0
9, 48308, Note_on_c, 6, 78, 103
9, 48363, Note_on_c, 6, 78, 0
9, 48373, Note_on_c, 6, 76, 63
9, 48433, Note_on_c, 6, 76, 0
9, 48447, Note_on_c, 6, 73, 72
9, 48509, Note_on_c, 6, 73, 0
9, 48516, Note_on_c, 6, 76, 52
9, 48573, Note_on_c, 6, 76, 0
9, 48583, Note_on_c, 6, 80, 92
9, 48618, Note_on_c, 6, 80, 0
9, 48648, Note_on_c, 6, 80, 103
9, 48678, Note_on_c, 6, 80, 0
9, 48713, Note_on_c, 6, 80, 106
9, 48748, Note_on_c, 6, 78, 51
9, 48751, Note_on_c, 6, 80, 0
9, 48773, Note_on_c, 6, 76, 46
9, 48776, Note_on_c, 6, 78, 0
9, 48814, Note_on_c, 6, 73, 113
9, 48821, Note_on_c, 6, 76, 0
9, 48954, Note_on_c, 6, 73, 0
9, 48980, Note_on_c, 6, 73, 72
9, 49019, Note_on_c, 6, 76, 40
9, 49020, Note_on_c, 6, 73, 0
9, 49043, Note_on_c, 6, 78, 68
9, 49066, Note_on_c, 6, 76, 0
9, 49101, Note_on_c, 6, 78, 0
9, 49112, Note_on_c, 6, 80, 67
9, 49146, Note_on_c, 6, 80, 0
9, 49171, Note_on_c, 6, 80, 62
9, 49234, Note_on_c, 6, 80, 0
9, 49237, Note_on_c, 6, 76, 63
9, 49284, Note_on_c, 6, 76, 0
9, 49309, Note_on_c, 6, 76, 56
9, 49361, Note_on_c, 6, 76, 0
9, 49375, Note_on_c, 6, 78, 106
9, 49494, Note_on_c, 6, 78, 0
9, 49508, Note_on_c, 6, 73, 127
9, 49596, Note_on_c, 6, 73, 0
9, 54001, Control_c, 6, 7, 126
9, 54016, Control_c, 6, 7, 125
9, 54040, Control_c, 6, 7, 124
9, 54048, Control_c, 6, 7, 122
9, 54066, Control_c, 6, 7, 120
9, 54081, Control_c, 6, 7, 119
9, 54101, Control_c, 6, 7, 118
9, 54137, Control_c, 6, 7, 117
9, 54171, Control_c, 6, 7, 115
9, 54186, Control_c, 6, 7, 113
9, 54219, Control_c, 6, 7, 112
9, 54308, Control_c, 6, 7, 111
9, 54397, Control_c, 6, 7, 110
9, 54446, Control_c, 6, 7, 108
9, 54532, Control_c, 6, 7, 106
9, 54599, Control_c, 6, 7, 105
9, 54656, Control_c, 6, 7, 103
9, 54717, Control_c, 6, 7, 101
9, 54746, Control_c, 6, 7, 100
9, 54808, Control_c, 6, 7, 99
9, 54861, Control_c, 6, 7, 98
9, 54911, Control_c, 6, 7, 96
9, 54937, Control_c, 6, 7, 94
9, 54956, Control_c, 6, 7, 93
9, 55024, Control_c, 6, 7, 92
9, 55064, Control_c, 6, 7, 91
9, 55137, Control_c, 6, 7, 89
9, 55172, Control_c, 6, 7, 87
9, 55228, Control_c, 6, 7, 86
9, 55260, Control_c, 6, 7, 85
9, 55329, Control_c, 6, 7, 84
9, 55396, Control_c, 6, 7, 82
9, 55425, Control_c, 6, 7, 80
9, 55461, Control_c, 6, 7, 79
9, 55496, Control_c, 6, 7, 78
9, 55525, Control_c, 6, 7, 77
9, 55552, Control_c, 6, 7, 75
9, 55581, Control_c, 6, 7, 73
9, 55643, Control_c, 6, 7, 72
9, 55656, Control_c, 6, 7, 71
9, 55684, Control_c, 6, 7, 70
9, 55736, Control_c, 6, 7, 68
9, 55767, Control_c, 6, 7, 66
9, 55784, Control_c, 6, 7, 65
9, 55791, Control_c, 6, 7, 64
9, 55796, Control_c, 6, 7, 63
9, 55824, Control_c, 6, 7, 61
9, 55905, Control_c, 6, 7, 60
9, 55964, Control_c, 6, 7, 59
9, 56067, Control_c, 6, 7, 58
9, 56122, Control_c, 6, 7, 56
9, 56150, Control_c, 6, 7, 54
9, 56183, Control_c, 6, 7, 53
9, 56223, Control_c, 6, 7, 52
9, 56236, Control_c, 6, 7, 51
9, 56259, Control_c, 6, 7, 49
9, 56291, Control_c, 6, 7, 47
9, 56334, Control_c, 6, 7, 46
9, 56405, Control_c, 6, 7, 45
9, 56415, Control_c, 6, 7, 44
9, 56480, Control_c, 6, 7, 42
9, 56511, Control_c, 6, 7, 40
9, 56551, Control_c, 6, 7, 39
9, 56577, Control_c, 6, 7, 38
9, 56602, Control_c, 6, 7, 37
9, 56647, Control_c, 6, 7, 35
9, 56672, Control_c, 6, 7, 33
9, 56692, Control_c, 6, 7, 32
9, 56742, Control_c, 6, 7, 31
9, 56761, Control_c, 6, 7, 30
9, 56819, Control_c, 6, 7, 28
9, 56829, Control_c, 6, 7, 26
9, 56840, Control_c, 6, 7, 25
9, 56877, Control_c, 6, 7, 24
9, 56921, Control_c, 6, 7, 23
9, 56939, Control_c, 6, 7, 21
9, 57056, Control_c, 6, 7, 20
9, 57077, Control_c, 6, 7, 19
9, 57200, Control_c, 6, 7, 18
9, 57200, End_track
0, 0, End_of_file
