0, 0, Header, 1, 4, 960
1, 0, Start_track
1, 0, Control_c, 0, 101, 0
1, 0, Control_c, 0, 100, 0
1, 0, Control_c, 0, 6, 12
1, 0, Control_c, 0, 38, 0
1, 0, Control_c, 1, 101, 0
1, 0, Control_c, 1, 100, 0
1, 0, Control_c, 1, 6, 12
1, 0, Control_c, 1, 38, 0
1, 0, Control_c, 2, 101, 0
1, 0, Control_c, 2, 100, 0
1, 0, Control_c, 2, 6, 12
1, 0, Control_c, 2, 38, 0
1, 0, Control_c, 3, 101, 0
1, 0, Control_c, 3, 100, 0
1, 0, Control_c, 3, 6, 12
1, 0, Control_c, 3, 38, 0
1, 0, Control_c, 4, 101, 0
1, 0, Control_c, 4, 100, 0
1, 0, Control_c, 4, 6, 12
1, 0, Control_c, 4, 38, 0
1, 0, Control_c, 5, 101, 0
1, 0, Control_c, 5, 100, 0
1, 0, Control_c, 5, 6, 12
1, 0, Control_c, 5, 38, 0
1, 0, Control_c, 6, 101, 0
1, 0, Control_c, 6, 100, 0
1, 0, Control_c, 6, 6, 12
1, 0, Control_c, 6, 38, 0
1, 0, Control_c, 7, 101, 0
1, 0, Control_c, 7, 100, 0
1, 0, Control_c, 7, 6, 12
1, 0, Control_c, 7, 38, 0
1, 0, Control_c, 8, 101, 0
1, 0, Control_c, 8, 100, 0
1, 0, Control_c, 8, 6, 12
1, 0, Control_c, 8, 38, 0
1, 0, Control_c, 9, 101, 0
1, 0, Control_c, 9, 100, 0
1, 0, Control_c, 9, 6, 12
1, 0, Control_c, 9, 38, 0
1, 0, Control_c, 10, 101, 0
1, 0, Control_c, 10, 100, 0
1, 0, Control_c, 10, 6, 12
1, 0, Control_c, 10, 38, 0
1, 0, Control_c, 11, 101, 0
1, 0, Control_c, 11, 100, 0
1, 0, Control_c, 11, 6, 12
1, 0, Control_c, 11, 38, 0
1, 0, Control_c, 12, 101, 0
1, 0, Control_c, 12, 100, 0
1, 0, Control_c, 12, 6, 12
1, 0, Control_c, 12, 38, 0
1, 0, Control_c, 13, 101, 0
1, 0, Control_c, 13, 100, 0
1, 0, Control_c, 13, 6, 12
1, 0, Control_c, 13, 38, 0
1, 0, Control_c, 14, 101, 0
1, 0, Control_c, 14, 100, 0
1, 0, Control_c, 14, 6, 12
1, 0, Control_c, 14, 38, 0
1, 0, Control_c, 15, 101, 0
1, 0, Control_c, 15, 100, 0
1, 0, Control_c, 15, 6, 12
1, 0, Control_c, 15, 38, 0
1, 0, Time_signature, 4, 2, 24, 8
1, 0, Tempo, 500000
1, 0, End_track
2, 0, Start_track
2, 0, Pitch_bend_c, 2, 8192
2, 0, Control_c, 2, 7, 119
2, 0, Control_c, 2, 10, 63
2, 0, Control_c, 2, 93, 0
2, 0, Control_c, 2, 91, 0
2, 0, Control_c, 2, 95, 0
2, 0, Control_c, 2, 92, 0
2, 0, Control_c, 2, 11, 127
2, 0, Program_c, 2, 24
2, 0, Control_c, 3, 7, 119
2, 0, Control_c, 3, 10, 63
2, 0, Control_c, 3, 93, 0
2, 0, Control_c, 3, 91, 0
2, 0, Control_c, 3, 95, 0
2, 0, Control_c, 3, 92, 0
2, 0, Control_c, 3, 11, 127
2, 0, Program_c, 3, 24
2, 1440, Note_on_c, 2, 66, 95
2, 1440, Note_on_c, 2, 61, 95
2, 1440, Note_on_c, 2, 57, 95
2, 1440, Note_on_c, 2, 50, 95
2, 1920, Note_off_c, 2, 66, 95
2, 1920, Note_off_c, 2, 61, 95
2, 1920, Note_off_c, 2, 57, 95
2, 1920, Note_off_c, 2, 50, 95
2, 2880, Note_on_c, 2, 64, 95
2, 2880, Note_on_c, 2, 59, 95
2, 2880, Note_on_c, 2, 55, 95
2, 2880, Note_on_c, 2, 43, 95
2, 7680, Note_off_c, 2, 64, 95
2, 7680, Note_off_c, 2, 59, 95
2, 7680, Note_off_c, 2, 55, 95
2, 7680, Note_off_c, 2, 43, 95
2, 9120, Note_on_c, 2, 66, 95
2, 9120, Note_on_c, 2, 61, 95
2, 9120, Note_on_c, 2, 57, 95
2, 9120, Note_on_c, 2, 50, 95
2, 9600, Note_off_c, 2, 66, 95
2, 9600, Note_off_c, 2, 61, 95
2, 9600, Note_off_c, 2, 57, 95
2, 9600, Note_off_c, 2, 50, 95
2, 10560, Note_on_c, 2, 66, 95
2, 10560, Note_on_c, 2, 62, 95
2, 10560, Note_on_c, 2, 59, 95
2, 10560, Note_on_c, 2, 55, 95
2, 15360, Note_off_c, 2, 66, 95
2, 15360, Note_off_c, 2, 62, 95
2, 15360, Note_off_c, 2, 59, 95
2, 15360, Note_off_c, 2, 55, 95
2, 16800, Note_on_c, 2, 66, 95
2, 16800, Note_on_c, 2, 61, 95
2, 16800, Note_on_c, 2, 57, 95
2, 16800, Note_on_c, 2, 50, 95
2, 17280, Note_off_c, 2, 66, 95
2, 17280, Note_off_c, 2, 61, 95
2, 17280, Note_off_c, 2, 57, 95
2, 17280, Note_off_c, 2, 50, 95
2, 18240, Note_on_c, 2, 66, 95
2, 18240, Note_on_c, 2, 62, 95
2, 18240, Note_on_c, 2, 59, 95
2, 18240, Note_on_c, 2, 55, 95
2, 23040, Note_off_c, 2, 66, 95
2, 23040, Note_off_c, 2, 62, 95
2, 23040, Note_off_c, 2, 59, 95
2, 23040, Note_off_c, 2, 55, 95
2, 24480, Note_on_c, 2, 66, 95
2, 24480, Note_on_c, 2, 61, 95
2, 24480, Note_on_c, 2, 57, 95
2, 24480, Note_on_c, 2, 50, 95
2, 24960, Note_off_c, 2, 66, 95
2, 24960, Note_off_c, 2, 61, 95
2, 24960, Note_off_c, 2, 57, 95
2, 24960, Note_off_c, 2, 50, 95
2, 25920, Note_on_c, 2, 66, 95
2, 25920, Note_on_c, 2, 62, 95
2, 25920, Note_on_c, 2, 59, 95
2, 25920, Note_on_c, 2, 55, 95
2, 30720, Note_off_c, 2, 66, 95
2, 30720, Note_off_c, 2, 62, 95
2, 30720, Note_off_c, 2, 59, 95
2, 30720, Note_off_c, 2, 55, 95
2, 30720, Note_on_c, 2, 66, 95
2, 30720, Note_on_c, 2, 62, 95
2, 30720, Note_on_c, 2, 60, 95
2, 30720, Note_on_c, 2, 54, 95
2, 30720, Note_on_c, 2, 47, 95
2, 34560, Note_off_c, 2, 66, 95
2, 34560, Note_off_c, 2, 62, 95
2, 34560, Note_off_c, 2, 60, 95
2, 34560, Note_off_c, 2, 54, 95
2, 34560, Note_off_c, 2, 47, 95
2, 44640, Note_on_c, 2, 66, 95
2, 44640, Note_on_c, 2, 61, 95
2, 44640, Note_on_c, 2, 57, 95
2, 44640, Note_on_c, 2, 52, 95
2, 45120, Note_off_c, 2, 66, 95
2, 45120, Note_off_c, 2, 61, 95
2, 45120, Note_off_c, 2, 57, 95
2, 45120, Note_off_c, 2, 52, 95
2, 45120, Note_on_c, 2, 66, 95
2, 45120, Note_on_c, 2, 61, 95
2, 45120, Note_on_c, 2, 57, 95
2, 45120, Note_on_c, 2, 52, 95
2, 45600, Note_off_c, 2, 66, 95
2, 45600, Note_off_c, 2, 61, 95
2, 45600, Note_off_c, 2, 57, 95
2, 45600, Note_off_c, 2, 52, 95
2, 45600, Note_on_c, 2, 66, 95
2, 45600, Note_on_c, 2, 61, 95
2, 45600, Note_on_c, 2, 57, 95
2, 45600, Note_on_c, 2, 52, 95
2, 46080, Note_off_c, 2, 66, 95
2, 46080, Note_off_c, 2, 61, 95
2, 46080, Note_off_c, 2, 57, 95
2, 46080, Note_off_c, 2, 52, 95
2, 46080, Note_on_c, 2, 66, 95
2, 46080, Note_on_c, 2, 62, 95
2, 46080, Note_on_c, 2, 57, 95
2, 46080, Note_on_c, 2, 54, 95
2, 46080, Note_on_c, 2, 47, 95
2, 49920, Note_off_c, 2, 66, 95
2, 49920, Note_off_c, 2, 62, 95
2, 49920, Note_off_c, 2, 57, 95
2, 49920, Note_off_c, 2, 54, 95
2, 49920, Note_off_c, 2, 47, 95
2, 77760, Note_on_c, 2, 66, 95
2, 77760, Note_on_c, 2, 61, 95
2, 77760, Note_on_c, 2, 57, 95
2, 77760, Note_on_c, 2, 52, 95
2, 77760, Note_on_c, 2, 49, 95
2, 77760, Note_on_c, 2, 42, 95
2, 79200, Note_off_c, 2, 66, 95
2, 79200, Note_off_c, 2, 61, 95
2, 79200, Note_off_c, 2, 57, 95
2, 79200, Note_off_c, 2, 52, 95
2, 79200, Note_off_c, 2, 49, 95
2, 79200, Note_off_c, 2, 42, 95
2, 79200, Note_on_c, 2, 65, 95
2, 79200, Note_on_c, 2, 60, 95
2, 79200, Note_on_c, 2, 56, 95
2, 79200, Note_on_c, 2, 51, 95
2, 79200, Note_on_c, 2, 48, 95
2, 79200, Note_on_c, 2, 42, 95
2, 80640, Note_off_c, 2, 65, 95
2, 80640, Note_off_c, 2, 60, 95
2, 80640, Note_off_c, 2, 56, 95
2, 80640, Note_off_c, 2, 51, 95
2, 80640, Note_off_c, 2, 48, 95
2, 80640, Note_off_c, 2, 42, 95
2, 85440, Note_on_c, 2, 64, 95
2, 85440, Note_on_c, 2, 62, 95
2, 85440, Note_on_c, 2, 55, 95
2, 85440, Note_on_c, 2, 52, 95
2, 85920, Note_off_c, 2, 64, 95
2, 85920, Note_off_c, 2, 62, 95
2, 85920, Note_off_c, 2, 55, 95
2, 85920, Note_off_c, 2, 52, 95
2, 85920, Note_on_c, 2, 64, 95
2, 85920, Note_on_c, 2, 62, 95
2, 85920, Note_on_c, 2, 55, 95
2, 85920, Note_on_c, 2, 52, 95
2, 86400, Note_off_c, 2, 64, 95
2, 86400, Note_off_c, 2, 62, 95
2, 86400, Note_off_c, 2, 55, 95
2, 86400, Note_off_c, 2, 52, 95
2, 86400, Note_on_c, 2, 64, 95
2, 86400, Note_on_c, 2, 62, 95
2, 86400, Note_on_c, 2, 55, 95
2, 86400, Note_on_c, 2, 52, 95
2, 86880, Note_off_c, 2, 64, 95
2, 86880, Note_off_c, 2, 62, 95
2, 86880, Note_off_c, 2, 55, 95
2, 86880, Note_off_c, 2, 52, 95
2, 86880, Note_on_c, 2, 64, 95
2, 86880, Note_on_c, 2, 62, 95
2, 86880, Note_on_c, 2, 55, 95
2, 86880, Note_on_c, 2, 52, 95
2, 87360, Note_off_c, 2, 64, 95
2, 87360, Note_off_c, 2, 62, 95
2, 87360, Note_off_c, 2, 55, 95
2, 87360, Note_off_c, 2, 52, 95
2, 87360, Note_on_c, 2, 64, 95
2, 87360, Note_on_c, 2, 62, 95
2, 87360, Note_on_c, 2, 55, 95
2, 87360, Note_on_c, 2, 52, 95
2, 88320, Note_off_c, 2, 64, 95
2, 88320, Note_off_c, 2, 62, 95
2, 88320, Note_off_c, 2, 55, 95
2, 88320, Note_off_c, 2, 52, 95
2, 88800, Note_on_c, 2, 66, 95
2, 88800, Note_on_c, 2, 61, 95
2, 88800, Note_on_c, 2, 57, 95
2, 90240, Note_off_c, 2, 66, 95
2, 90240, Note_off_c, 2, 61, 95
2, 90240, Note_off_c, 2, 57, 95
2, 90240, Note_on_c, 2, 69, 95
2, 90240, Note_on_c, 2, 66, 95
2, 90240, Note_on_c, 2, 61, 95
2, 90240, Note_on_c, 2, 57, 95
2, 90240, Note_on_c, 2, 47, 95
2, 96000, Note_off_c, 2, 69, 95
2, 96000, Note_off_c, 2, 66, 95
2, 96000, Note_off_c, 2, 61, 95
2, 96000, Note_off_c, 2, 57, 95
2, 96000, Note_off_c, 2, 47, 95
2, 97440, Note_on_c, 2, 66, 95
2, 97440, Note_on_c, 2, 61, 95
2, 97440, Note_on_c, 2, 57, 95
2, 97440, Note_on_c, 2, 50, 95
2, 97920, Note_off_c, 2, 66, 95
2, 97920, Note_off_c, 2, 61, 95
2, 97920, Note_off_c, 2, 57, 95
2, 97920, Note_off_c, 2, 50, 95
2, 98880, Note_on_c, 2, 66, 95
2, 98880, Note_on_c, 2, 62, 95
2, 98880, Note_on_c, 2, 59, 95
2, 98880, Note_on_c, 2, 55, 95
2, 103680, Note_off_c, 2, 66, 95
2, 103680, Note_off_c, 2, 62, 95
2, 103680, Note_off_c, 2, 59, 95
2, 103680, Note_off_c, 2, 55, 95
2, 105120, Note_on_c, 2, 66, 95
2, 105120, Note_on_c, 2, 61, 95
2, 105120, Note_on_c, 2, 57, 95
2, 105120, Note_on_c, 2, 50, 95
2, 105600, Note_off_c, 2, 66, 95
2, 105600, Note_off_c, 2, 61, 95
2, 105600, Note_off_c, 2, 57, 95
2, 105600, Note_off_c, 2, 50, 95
2, 106560, Note_on_c, 2, 66, 95
2, 106560, Note_on_c, 2, 62, 95
2, 106560, Note_on_c, 2, 59, 95
2, 106560, Note_on_c, 2, 55, 95
2, 111360, Note_off_c, 2, 66, 95
2, 111360, Note_off_c, 2, 62, 95
2, 111360, Note_off_c, 2, 59, 95
2, 111360, Note_off_c, 2, 55, 95
2, 112800, Note_on_c, 2, 66, 95
2, 112800, Note_on_c, 2, 61, 95
2, 112800, Note_on_c, 2, 57, 95
2, 112800, Note_on_c, 2, 50, 95
2, 113280, Note_off_c, 2, 66, 95
2, 113280, Note_off_c, 2, 61, 95
2, 113280, Note_off_c, 2, 57, 95
2, 113280, Note_off_c, 2, 50, 95
2, 114240, Note_on_c, 2, 66, 95
2, 114240, Note_on_c, 2, 62, 95
2, 114240, Note_on_c, 2, 59, 95
2, 114240, Note_on_c, 2, 55, 95
2, 119040, Note_off_c, 2, 66, 95
2, 119040, Note_off_c, 2, 62, 95
2, 119040, Note_off_c, 2, 59, 95
2, 119040, Note_off_c, 2, 55, 95
2, 120480, Note_on_c, 2, 66, 95
2, 120480, Note_on_c, 2, 61, 95
2, 120480, Note_on_c, 2, 57, 95
2, 120480, Note_on_c, 2, 50, 95
2, 120960, Note_off_c, 2, 66, 95
2, 120960, Note_off_c, 2, 61, 95
2, 120960, Note_off_c, 2, 57, 95
2, 120960, Note_off_c, 2, 50, 95
2, 121920, Note_on_c, 2, 66, 95
2, 121920, Note_on_c, 2, 62, 95
2, 121920, Note_on_c, 2, 59, 95
2, 121920, Note_on_c, 2, 55, 95
2, 126720, Note_off_c, 2, 66, 95
2, 126720, Note_off_c, 2, 62, 95
2, 126720, Note_off_c, 2, 59, 95
2, 126720, Note_off_c, 2, 55, 95
2, 126720, Pitch_bend_c, 3, 8192
2, 126720, Note_on_c, 3, 66, 95
2, 126960, Pitch_bend_c, 3, 8320
2, 127200, Pitch_bend_c, 3, 8448
2, 127440, Pitch_bend_c, 3, 8576
2, 127680, Pitch_bend_c, 3, 8704
2, 127920, Pitch_bend_c, 3, 8832
2, 128160, Pitch_bend_c, 3, 8960
2, 128400, Pitch_bend_c, 3, 9088
2, 128640, Pitch_bend_c, 3, 9216
2, 128880, Pitch_bend_c, 3, 9344
2, 129120, Pitch_bend_c, 3, 9472
2, 129360, Pitch_bend_c, 3, 9600
2, 129360, Pitch_bend_c, 3, 9600
2, 132000, Pitch_bend_c, 3, 9600
2, 132000, Pitch_bend_c, 3, 8192
2, 132000, Note_off_c, 3, 66, 95
2, 132000, Note_on_c, 2, 68, 95
2, 132120, Note_off_c, 2, 68, 95
2, 132120, Note_on_c, 2, 71, 95
2, 132240, Note_off_c, 2, 71, 95
2, 132240, Note_on_c, 2, 68, 95
2, 132360, Note_off_c, 2, 68, 95
2, 132360, Note_on_c, 2, 66, 95
2, 132480, Note_off_c, 2, 66, 95
2, 132480, Note_on_c, 2, 68, 95
2, 132960, Note_off_c, 2, 68, 95
2, 132960, Note_on_c, 2, 66, 95
2, 133120, Note_off_c, 2, 66, 95
2, 133120, Note_on_c, 2, 64, 95
2, 133280, Note_off_c, 2, 64, 95
2, 133280, Note_on_c, 2, 61, 95
2, 133440, Note_off_c, 2, 61, 95
2, 133440, Note_on_c, 2, 67, 95
2, 133920, Note_off_c, 2, 67, 95
2, 133920, Note_on_c, 2, 61, 95
2, 134040, Note_off_c, 2, 61, 95
2, 134040, Note_on_c, 2, 64, 95
2, 134400, Note_off_c, 2, 64, 95
2, 134400, Note_on_c, 2, 63, 95
2, 134880, Note_off_c, 2, 63, 95
2, 134880, Note_on_c, 3, 56, 95
2, 135000, Pitch_bend_c, 3, 7552
2, 135120, Pitch_bend_c, 3, 6784
2, 135120, Pitch_bend_c, 3, 8192
2, 135120, Note_off_c, 3, 56, 95
2, 135120, Note_on_c, 2, 54, 95
2, 135360, Note_off_c, 2, 54, 95
2, 135360, Note_on_c, 2, 52, 95
2, 136320, Note_off_c, 2, 52, 95
2, 136320, Note_on_c, 2, 54, 95
2, 137280, Note_off_c, 2, 54, 95
2, 141600, Note_on_c, 2, 64, 95
2, 141840, Note_off_c, 2, 64, 95
2, 141840, Note_on_c, 2, 66, 95
2, 142080, Note_off_c, 2, 66, 95
2, 142080, Note_on_c, 2, 68, 95
2, 142320, Note_off_c, 2, 68, 95
2, 142320, Note_on_c, 2, 73, 95
2, 142560, Note_off_c, 2, 73, 95
2, 142560, Note_on_c, 2, 71, 95
2, 142720, Note_off_c, 2, 71, 95
2, 142720, Note_on_c, 2, 68, 95
2, 142880, Note_off_c, 2, 68, 95
2, 142880, Note_on_c, 2, 66, 95
2, 143040, Note_off_c, 2, 66, 95
2, 143040, Note_on_c, 2, 68, 95
2, 143520, Note_off_c, 2, 68, 95
2, 143520, Pitch_bend_c, 3, 8192
2, 143520, Note_on_c, 3, 66, 95
2, 143629, Pitch_bend_c, 3, 8320
2, 143738, Pitch_bend_c, 3, 8448
2, 143847, Pitch_bend_c, 3, 8576
2, 143956, Pitch_bend_c, 3, 8704
2, 144065, Pitch_bend_c, 3, 8832
2, 144174, Pitch_bend_c, 3, 8960
2, 144283, Pitch_bend_c, 3, 9088
2, 144392, Pitch_bend_c, 3, 9216
2, 144501, Pitch_bend_c, 3, 9344
2, 144610, Pitch_bend_c, 3, 9472
2, 144719, Pitch_bend_c, 3, 9600
2, 144720, Pitch_bend_c, 3, 9600
2, 145920, Pitch_bend_c, 3, 9600
2, 145920, Pitch_bend_c, 3, 8192
2, 145920, Note_off_c, 3, 66, 95
2, 145920, Note_on_c, 2, 66, 47
2, 147840, Note_off_c, 2, 66, 47
2, 147840, Pitch_bend_c, 3, 8192
2, 147840, Note_on_c, 3, 66, 95
2, 147850, Pitch_bend_c, 3, 8320
2, 147860, Pitch_bend_c, 3, 8448
2, 147870, Pitch_bend_c, 3, 8576
2, 147880, Pitch_bend_c, 3, 8704
2, 147890, Pitch_bend_c, 3, 8832
2, 147900, Pitch_bend_c, 3, 8960
2, 147910, Pitch_bend_c, 3, 9088
2, 147920, Pitch_bend_c, 3, 9216
2, 147930, Pitch_bend_c, 3, 9344
2, 147940, Pitch_bend_c, 3, 9472
2, 147950, Pitch_bend_c, 3, 9600
2, 147960, Pitch_bend_c, 3, 9600
2, 148080, Pitch_bend_c, 3, 9600
2, 148080, Pitch_bend_c, 3, 8192
2, 148080, Note_off_c, 3, 66, 95
2, 148080, Note_on_c, 2, 71, 95
2, 148800, Note_off_c, 2, 71, 95
2, 148800, Pitch_bend_c, 3, 8192
2, 148800, Note_on_c, 3, 66, 95
2, 148810, Pitch_bend_c, 3, 8320
2, 148820, Pitch_bend_c, 3, 8448
2, 148830, Pitch_bend_c, 3, 8576
2, 148840, Pitch_bend_c, 3, 8704
2, 148850, Pitch_bend_c, 3, 8832
2, 148860, Pitch_bend_c, 3, 8960
2, 148870, Pitch_bend_c, 3, 9088
2, 148880, Pitch_bend_c, 3, 9216
2, 148890, Pitch_bend_c, 3, 9344
2, 148900, Pitch_bend_c, 3, 9472
2, 148910, Pitch_bend_c, 3, 9600
2, 148920, Pitch_bend_c, 3, 9600
2, 149040, Pitch_bend_c, 3, 9600
2, 149040, Pitch_bend_c, 3, 8192
2, 149040, Note_off_c, 3, 66, 95
2, 149040, Pitch_bend_c, 3, 8192
2, 149040, Note_on_c, 3, 66, 95
2, 149050, Pitch_bend_c, 3, 8320
2, 149060, Pitch_bend_c, 3, 8448
2, 149070, Pitch_bend_c, 3, 8576
2, 149080, Pitch_bend_c, 3, 8704
2, 149090, Pitch_bend_c, 3, 8832
2, 149100, Pitch_bend_c, 3, 8960
2, 149110, Pitch_bend_c, 3, 9088
2, 149120, Pitch_bend_c, 3, 9216
2, 149130, Pitch_bend_c, 3, 9344
2, 149140, Pitch_bend_c, 3, 9472
2, 149150, Pitch_bend_c, 3, 9600
2, 149160, Pitch_bend_c, 3, 9600
2, 149280, Pitch_bend_c, 3, 9600
2, 149280, Pitch_bend_c, 3, 8192
2, 149280, Note_off_c, 3, 66, 95
2, 149280, Pitch_bend_c, 3, 8192
2, 149280, Note_on_c, 3, 66, 95
2, 149345, Pitch_bend_c, 3, 8320
2, 149410, Pitch_bend_c, 3, 8448
2, 149475, Pitch_bend_c, 3, 8576
2, 149540, Pitch_bend_c, 3, 8704
2, 149605, Pitch_bend_c, 3, 8832
2, 149670, Pitch_bend_c, 3, 8960
2, 149735, Pitch_bend_c, 3, 9088
2, 149800, Pitch_bend_c, 3, 9216
2, 149865, Pitch_bend_c, 3, 9344
2, 149930, Pitch_bend_c, 3, 9472
2, 149995, Pitch_bend_c, 3, 9600
2, 150000, Pitch_bend_c, 3, 9600
2, 150720, Pitch_bend_c, 3, 9600
2, 150720, Pitch_bend_c, 3, 8192
2, 150720, Note_off_c, 3, 66, 95
2, 150720, Note_on_c, 2, 66, 47
2, 150960, Note_off_c, 2, 66, 47
2, 150960, Note_on_c, 2, 64, 70
2, 151200, Note_off_c, 2, 64, 70
2, 151200, Note_on_c, 2, 61, 95
2, 151440, Note_off_c, 2, 61, 95
2, 151440, Note_on_c, 2, 64, 95
2, 151680, Note_off_c, 2, 64, 95
2, 151680, Note_on_c, 2, 64, 95
2, 152160, Note_off_c, 2, 64, 95
2, 152160, Note_on_c, 2, 66, 95
2, 152640, Note_off_c, 2, 66, 95
2, 152640, Pitch_bend_c, 3, 8192
2, 152640, Note_on_c, 3, 64, 95
2, 152814, Pitch_bend_c, 3, 8320
2, 152988, Pitch_bend_c, 3, 8448
2, 153162, Pitch_bend_c, 3, 8576
2, 153336, Pitch_bend_c, 3, 8704
2, 153510, Pitch_bend_c, 3, 8832
2, 153684, Pitch_bend_c, 3, 8960
2, 153858, Pitch_bend_c, 3, 9088
2, 154032, Pitch_bend_c, 3, 9216
2, 154206, Pitch_bend_c, 3, 9344
2, 154380, Pitch_bend_c, 3, 9472
2, 154554, Pitch_bend_c, 3, 9600
2, 154560, Pitch_bend_c, 3, 9600
2, 156480, Pitch_bend_c, 3, 9600
2, 156480, Pitch_bend_c, 3, 8192
2, 156480, Note_off_c, 3, 64, 95
2, 156480, Note_on_c, 2, 73, 95
2, 156960, Note_off_c, 2, 73, 95
2, 156960, Note_on_c, 2, 76, 95
2, 157440, Note_off_c, 2, 76, 95
2, 157440, Note_on_c, 2, 76, 95
2, 158080, Note_off_c, 2, 76, 95
2, 158080, Note_on_c, 2, 76, 95
2, 158720, Note_off_c, 2, 76, 95
2, 158720, Note_on_c, 2, 76, 95
2, 159360, Note_off_c, 2, 76, 95
2, 159360, Note_on_c, 2, 76, 95
2, 159840, Note_off_c, 2, 76, 95
2, 159840, Note_on_c, 2, 76, 95
2, 160320, Note_off_c, 2, 76, 95
2, 160320, Pitch_bend_c, 3, 8192
2, 160320, Note_on_c, 3, 76, 95
2, 160363, Pitch_bend_c, 3, 8320
2, 160406, Pitch_bend_c, 3, 8448
2, 160449, Pitch_bend_c, 3, 8576
2, 160492, Pitch_bend_c, 3, 8704
2, 160535, Pitch_bend_c, 3, 8832
2, 160578, Pitch_bend_c, 3, 8960
2, 160621, Pitch_bend_c, 3, 9088
2, 160664, Pitch_bend_c, 3, 9216
2, 160707, Pitch_bend_c, 3, 9344
2, 160750, Pitch_bend_c, 3, 9472
2, 160793, Pitch_bend_c, 3, 9600
2, 160800, Pitch_bend_c, 3, 9600
2, 161280, Pitch_bend_c, 3, 9600
2, 161280, Pitch_bend_c, 3, 8192
2, 161280, Note_off_c, 3, 76, 95
2, 161280, Note_on_c, 2, 76, 95
2, 161520, Note_off_c, 2, 76, 95
2, 161520, Note_on_c, 2, 73, 70
2, 161760, Note_off_c, 2, 73, 70
2, 161760, Note_on_c, 2, 71, 95
2, 162000, Note_off_c, 2, 71, 95
2, 162000, Note_on_c, 2, 73, 95
2, 162240, Note_off_c, 2, 73, 95
2, 162240, Pitch_bend_c, 3, 8192
2, 162240, Note_on_c, 3, 71, 95
2, 162283, Pitch_bend_c, 3, 8320
2, 162326, Pitch_bend_c, 3, 8448
2, 162369, Pitch_bend_c, 3, 8576
2, 162412, Pitch_bend_c, 3, 8704
2, 162455, Pitch_bend_c, 3, 8832
2, 162498, Pitch_bend_c, 3, 8960
2, 162541, Pitch_bend_c, 3, 9088
2, 162584, Pitch_bend_c, 3, 9216
2, 162627, Pitch_bend_c, 3, 9344
2, 162670, Pitch_bend_c, 3, 9472
2, 162713, Pitch_bend_c, 3, 9600
2, 162720, Pitch_bend_c, 3, 9600
2, 163200, Pitch_bend_c, 3, 9600
2, 163243, Pitch_bend_c, 3, 9472
2, 163286, Pitch_bend_c, 3, 9344
2, 163329, Pitch_bend_c, 3, 9216
2, 163372, Pitch_bend_c, 3, 9088
2, 163415, Pitch_bend_c, 3, 8960
2, 163458, Pitch_bend_c, 3, 8832
2, 163501, Pitch_bend_c, 3, 8704
2, 163544, Pitch_bend_c, 3, 8576
2, 163587, Pitch_bend_c, 3, 8448
2, 163630, Pitch_bend_c, 3, 8320
2, 163673, Pitch_bend_c, 3, 8192
2, 163680, Pitch_bend_c, 3, 8192
2, 164160, Pitch_bend_c, 3, 8192
2, 164160, Pitch_bend_c, 3, 8192
2, 164160, Note_off_c, 3, 71, 95
2, 164160, Note_on_c, 2, 71, 47
2, 164400, Note_off_c, 2, 71, 47
2, 164400, Note_on_c, 2, 68, 95
2, 164640, Note_off_c, 2, 68, 95
2, 164640, Note_on_c, 2, 71, 95
2, 165120, Note_off_c, 2, 71, 95
2, 165120, Note_on_c, 2, 68, 95
2, 165280, Note_off_c, 2, 68, 95
2, 165280, Note_on_c, 2, 66, 95
2, 165440, Note_off_c, 2, 66, 95
2, 165440, Note_on_c, 2, 68, 95
2, 165600, Note_off_c, 2, 68, 95
2, 165600, Note_on_c, 2, 66, 95
2, 165760, Note_off_c, 2, 66, 95
2, 165760, Note_on_c, 2, 64, 70
2, 165920, Note_off_c, 2, 64, 70
2, 165920, Note_on_c, 2, 66, 70
2, 166080, Note_off_c, 2, 66, 70
2, 166080, Note_on_c, 2, 64, 95
2, 166320, Note_off_c, 2, 64, 95
2, 166320, Note_on_c, 2, 61, 95
2, 166560, Note_off_c, 2, 61, 95
2, 166560, Note_on_c, 2, 64, 95
2, 166800, Note_off_c, 2, 64, 95
2, 166800, Note_on_c, 2, 66, 70
2, 167040, Note_off_c, 2, 66, 70
2, 169920, Note_on_c, 2, 68, 95
2, 169920, Note_on_c, 2, 63, 95
2, 169920, Note_on_c, 2, 59, 95
2, 169920, Note_on_c, 2, 54, 95
2, 169920, Note_on_c, 2, 51, 95
2, 169920, Note_on_c, 2, 44, 95
2, 171360, Note_off_c, 2, 68, 95
2, 171360, Note_off_c, 2, 63, 95
2, 171360, Note_off_c, 2, 59, 95
2, 171360, Note_off_c, 2, 54, 95
2, 171360, Note_off_c, 2, 51, 95
2, 171360, Note_off_c, 2, 44, 95
2, 171360, Note_on_c, 2, 67, 95
2, 171360, Note_on_c, 2, 62, 95
2, 171360, Note_on_c, 2, 58, 95
2, 171360, Note_on_c, 2, 53, 95
2, 171360, Note_on_c, 2, 50, 95
2, 171360, Note_on_c, 2, 43, 95
2, 172800, Note_off_c, 2, 67, 95
2, 172800, Note_off_c, 2, 62, 95
2, 172800, Note_off_c, 2, 58, 95
2, 172800, Note_off_c, 2, 53, 95
2, 172800, Note_off_c, 2, 50, 95
2, 172800, Note_off_c, 2, 43, 95
2, 173760, Pitch_bend_c, 3, 8192
2, 173760, Note_on_c, 3, 71, 95
2, 173803, Pitch_bend_c, 3, 8320
2, 173846, Pitch_bend_c, 3, 8448
2, 173889, Pitch_bend_c, 3, 8576
2, 173932, Pitch_bend_c, 3, 8704
2, 173975, Pitch_bend_c, 3, 8832
2, 174018, Pitch_bend_c, 3, 8960
2, 174061, Pitch_bend_c, 3, 9088
2, 174104, Pitch_bend_c, 3, 9216
2, 174147, Pitch_bend_c, 3, 9344
2, 174190, Pitch_bend_c, 3, 9472
2, 174233, Pitch_bend_c, 3, 9600
2, 174240, Pitch_bend_c, 3, 9600
2, 174720, Pitch_bend_c, 3, 9600
2, 174763, Pitch_bend_c, 3, 9472
2, 174806, Pitch_bend_c, 3, 9344
2, 174849, Pitch_bend_c, 3, 9216
2, 174892, Pitch_bend_c, 3, 9088
2, 174935, Pitch_bend_c, 3, 8960
2, 174978, Pitch_bend_c, 3, 8832
2, 175021, Pitch_bend_c, 3, 8704
2, 175064, Pitch_bend_c, 3, 8576
2, 175107, Pitch_bend_c, 3, 8448
2, 175150, Pitch_bend_c, 3, 8320
2, 175193, Pitch_bend_c, 3, 8192
2, 175200, Pitch_bend_c, 3, 8192
2, 175680, Pitch_bend_c, 3, 8192
2, 175680, Pitch_bend_c, 3, 8192
2, 175680, Note_off_c, 3, 71, 95
2, 175680, Pitch_bend_c, 3, 8192
2, 175680, Note_on_c, 3, 71, 95
2, 175767, Pitch_bend_c, 3, 8320
2, 175854, Pitch_bend_c, 3, 8448
2, 175941, Pitch_bend_c, 3, 8576
2, 176028, Pitch_bend_c, 3, 8704
2, 176115, Pitch_bend_c, 3, 8832
2, 176202, Pitch_bend_c, 3, 8960
2, 176289, Pitch_bend_c, 3, 9088
2, 176376, Pitch_bend_c, 3, 9216
2, 176463, Pitch_bend_c, 3, 9344
2, 176550, Pitch_bend_c, 3, 9472
2, 176637, Pitch_bend_c, 3, 9600
2, 176640, Pitch_bend_c, 3, 9600
2, 177600, Pitch_bend_c, 3, 9600
2, 177600, Pitch_bend_c, 3, 8192
2, 177600, Note_off_c, 3, 71, 95
2, 177600, Note_on_c, 2, 76, 47
2, 178560, Note_off_c, 2, 76, 47
2, 178560, Pitch_bend_c, 3, 8192
2, 178560, Note_on_c, 3, 70, 95
2, 178603, Pitch_bend_c, 3, 8320
2, 178646, Pitch_bend_c, 3, 8448
2, 178689, Pitch_bend_c, 3, 8576
2, 178732, Pitch_bend_c, 3, 8704
2, 178775, Pitch_bend_c, 3, 8832
2, 178818, Pitch_bend_c, 3, 8960
2, 178861, Pitch_bend_c, 3, 9088
2, 178904, Pitch_bend_c, 3, 9216
2, 178947, Pitch_bend_c, 3, 9344
2, 178990, Pitch_bend_c, 3, 9472
2, 179033, Pitch_bend_c, 3, 9600
2, 179040, Pitch_bend_c, 3, 9600
2, 179520, Pitch_bend_c, 3, 9600
2, 179520, Pitch_bend_c, 3, 8192
2, 179520, Note_off_c, 3, 70, 95
2, 179520, Pitch_bend_c, 3, 8192
2, 179520, Note_on_c, 3, 70, 95
2, 179541, Pitch_bend_c, 3, 8320
2, 179562, Pitch_bend_c, 3, 8448
2, 179583, Pitch_bend_c, 3, 8576
2, 179604, Pitch_bend_c, 3, 8704
2, 179625, Pitch_bend_c, 3, 8832
2, 179646, Pitch_bend_c, 3, 8960
2, 179667, Pitch_bend_c, 3, 9088
2, 179688, Pitch_bend_c, 3, 9216
2, 179709, Pitch_bend_c, 3, 9344
2, 179730, Pitch_bend_c, 3, 9472
2, 179751, Pitch_bend_c, 3, 9600
2, 179760, Pitch_bend_c, 3, 9600
2, 180000, Pitch_bend_c, 3, 9600
2, 180021, Pitch_bend_c, 3, 9472
2, 180042, Pitch_bend_c, 3, 9344
2, 180063, Pitch_bend_c, 3, 9216
2, 180084, Pitch_bend_c, 3, 9088
2, 180105, Pitch_bend_c, 3, 8960
2, 180126, Pitch_bend_c, 3, 8832
2, 180147, Pitch_bend_c, 3, 8704
2, 180168, Pitch_bend_c, 3, 8576
2, 180189, Pitch_bend_c, 3, 8448
2, 180210, Pitch_bend_c, 3, 8320
2, 180231, Pitch_bend_c, 3, 8192
2, 180240, Pitch_bend_c, 3, 8192
2, 180480, Pitch_bend_c, 3, 8192
2, 180480, Pitch_bend_c, 3, 8192
2, 180480, Note_off_c, 3, 70, 95
2, 180480, Note_on_c, 2, 70, 47
2, 182400, Note_off_c, 2, 70, 47
2, 218760, Note_on_c, 3, 57, 95
2, 218880, Note_off_c, 3, 57, 95
2, 218880, Note_on_c, 3, 59, 95
2, 220800, Note_off_c, 3, 59, 95
2, 262080, Note_on_c, 2, 66, 95
2, 262080, Note_on_c, 2, 61, 95
2, 262080, Note_on_c, 2, 57, 95
2, 262080, Note_on_c, 2, 52, 95
2, 262080, Note_on_c, 2, 49, 95
2, 262080, Note_on_c, 2, 42, 95
2, 263520, Note_off_c, 2, 66, 95
2, 263520, Note_off_c, 2, 61, 95
2, 263520, Note_off_c, 2, 57, 95
2, 263520, Note_off_c, 2, 52, 95
2, 263520, Note_off_c, 2, 49, 95
2, 263520, Note_off_c, 2, 42, 95
2, 263520, Note_on_c, 2, 65, 95
2, 263520, Note_on_c, 2, 60, 95
2, 263520, Note_on_c, 2, 56, 95
2, 263520, Note_on_c, 2, 51, 95
2, 263520, Note_on_c, 2, 48, 95
2, 263520, Note_on_c, 2, 41, 95
2, 264960, Note_off_c, 2, 65, 95
2, 264960, Note_off_c, 2, 60, 95
2, 264960, Note_off_c, 2, 56, 95
2, 264960, Note_off_c, 2, 51, 95
2, 264960, Note_off_c, 2, 48, 95
2, 264960, Note_off_c, 2, 41, 95
2, 273120, Note_on_c, 2, 66, 95
2, 273120, Note_on_c, 2, 61, 95
2, 273120, Note_on_c, 2, 57, 95
2, 274560, Note_off_c, 2, 66, 95
2, 274560, Note_off_c, 2, 61, 95
2, 274560, Note_off_c, 2, 57, 95
2, 274560, Note_on_c, 2, 69, 95
2, 274560, Note_on_c, 2, 66, 95
2, 274560, Note_on_c, 2, 61, 95
2, 274560, Note_on_c, 2, 52, 95
2, 274560, Note_on_c, 2, 47, 95
2, 276480, Note_off_c, 2, 69, 95
2, 276480, Note_off_c, 2, 66, 95
2, 276480, Note_off_c, 2, 61, 95
2, 276480, Note_off_c, 2, 52, 95
2, 276480, Note_off_c, 2, 47, 95
2, 276480, Note_on_c, 2, 69, 47
2, 276480, Note_on_c, 2, 66, 47
2, 276480, Note_on_c, 2, 61, 47
2, 276480, Note_on_c, 2, 52, 47
2, 276480, Note_on_c, 2, 47, 47
2, 280320, Note_off_c, 2, 69, 47
2, 280320, Note_off_c, 2, 66, 47
2, 280320, Note_off_c, 2, 61, 47
2, 280320, Note_off_c, 2, 52, 47
2, 280320, Note_off_c, 2, 47, 47
2, 281760, Note_on_c, 2, 66, 95
2, 281760, Note_on_c, 2, 61, 95
2, 281760, Note_on_c, 2, 57, 95
2, 281760, Note_on_c, 2, 50, 95
2, 282240, Note_off_c, 2, 66, 95
2, 282240, Note_off_c, 2, 61, 95
2, 282240, Note_off_c, 2, 57, 95
2, 282240, Note_off_c, 2, 50, 95
2, 283200, Note_on_c, 2, 66, 95
2, 283200, Note_on_c, 2, 62, 95
2, 283200, Note_on_c, 2, 59, 95
2, 283200, Note_on_c, 2, 55, 95
2, 284160, Note_off_c, 2, 66, 95
2, 284160, Note_off_c, 2, 62, 95
2, 284160, Note_off_c, 2, 59, 95
2, 284160, Note_off_c, 2, 55, 95
2, 284160, Note_on_c, 2, 66, 47
2, 284160, Note_on_c, 2, 62, 47
2, 284160, Note_on_c, 2, 59, 47
2, 284160, Note_on_c, 2, 55, 47
2, 288000, Note_off_c, 2, 66, 47
2, 288000, Note_off_c, 2, 62, 47
2, 288000, Note_off_c, 2, 59, 47
2, 288000, Note_off_c, 2, 55, 47
2, 289440, Note_on_c, 2, 66, 95
2, 289440, Note_on_c, 2, 61, 95
2, 289440, Note_on_c, 2, 57, 95
2, 289440, Note_on_c, 2, 50, 95
2, 289920, Note_off_c, 2, 66, 95
2, 289920, Note_off_c, 2, 61, 95
2, 289920, Note_off_c, 2, 57, 95
2, 289920, Note_off_c, 2, 50, 95
2, 290880, Note_on_c, 2, 66, 95
2, 290880, Note_on_c, 2, 62, 95
2, 290880, Note_on_c, 2, 59, 95
2, 290880, Note_on_c, 2, 55, 95
2, 295680, Note_off_c, 2, 66, 95
2, 295680, Note_off_c, 2, 62, 95
2, 295680, Note_off_c, 2, 59, 95
2, 295680, Note_off_c, 2, 55, 95
2, 297120, Note_on_c, 2, 66, 95
2, 297120, Note_on_c, 2, 61, 95
2, 297120, Note_on_c, 2, 57, 95
2, 297120, Note_on_c, 2, 50, 95
2, 297600, Note_off_c, 2, 66, 95
2, 297600, Note_off_c, 2, 61, 95
2, 297600, Note_off_c, 2, 57, 95
2, 297600, Note_off_c, 2, 50, 95
2, 298560, Note_on_c, 2, 66, 95
2, 298560, Note_on_c, 2, 62, 95
2, 298560, Note_on_c, 2, 59, 95
2, 298560, Note_on_c, 2, 55, 95
2, 303360, Note_off_c, 2, 66, 95
2, 303360, Note_off_c, 2, 62, 95
2, 303360, Note_off_c, 2, 59, 95
2, 303360, Note_off_c, 2, 55, 95
2, 304800, Note_on_c, 2, 66, 95
2, 304800, Note_on_c, 2, 61, 95
2, 304800, Note_on_c, 2, 57, 95
2, 304800, Note_on_c, 2, 50, 95
2, 305280, Note_off_c, 2, 66, 95
2, 305280, Note_off_c, 2, 61, 95
2, 305280, Note_off_c, 2, 57, 95
2, 305280, Note_off_c, 2, 50, 95
2, 306240, Note_on_c, 2, 66, 95
2, 306240, Note_on_c, 2, 62, 95
2, 306240, Note_on_c, 2, 59, 95
2, 306240, Note_on_c, 2, 55, 95
2, 307200, Note_off_c, 2, 66, 95
2, 307200, Note_off_c, 2, 62, 95
2, 307200, Note_off_c, 2, 59, 95
2, 307200, Note_off_c, 2, 55, 95
2, 307200, Note_on_c, 2, 66, 47
2, 307200, Note_on_c, 2, 62, 47
2, 307200, Note_on_c, 2, 59, 47
2, 307200, Note_on_c, 2, 55, 47
2, 311040, Note_off_c, 2, 66, 47
2, 311040, Note_off_c, 2, 62, 47
2, 311040, Note_off_c, 2, 59, 47
2, 311040, Note_off_c, 2, 55, 47
2, 312480, Note_on_c, 2, 66, 95
2, 312480, Note_on_c, 2, 61, 95
2, 312480, Note_on_c, 2, 57, 95
2, 312480, Note_on_c, 2, 50, 95
2, 312960, Note_off_c, 2, 66, 95
2, 312960, Note_off_c, 2, 61, 95
2, 312960, Note_off_c, 2, 57, 95
2, 312960, Note_off_c, 2, 50, 95
2, 313920, Note_on_c, 2, 66, 95
2, 313920, Note_on_c, 2, 62, 95
2, 313920, Note_on_c, 2, 59, 95
2, 313920, Note_on_c, 2, 55, 95
2, 318720, Note_off_c, 2, 66, 95
2, 318720, Note_off_c, 2, 62, 95
2, 318720, Note_off_c, 2, 59, 95
2, 318720, Note_off_c, 2, 55, 95
2, 318720, Note_on_c, 2, 66, 95
2, 318720, Note_on_c, 2, 62, 95
2, 318720, Note_on_c, 2, 60, 95
2, 318720, Note_on_c, 2, 54, 95
2, 318720, Note_on_c, 2, 47, 95
2, 322560, Note_off_c, 2, 66, 95
2, 322560, Note_off_c, 2, 62, 95
2, 322560, Note_off_c, 2, 60, 95
2, 322560, Note_off_c, 2, 54, 95
2, 322560, Note_off_c, 2, 47, 95
2, 332640, Note_on_c, 2, 66, 95
2, 332640, Note_on_c, 2, 61, 95
2, 332640, Note_on_c, 2, 57, 95
2, 332640, Note_on_c, 2, 52, 95
2, 333120, Note_off_c, 2, 66, 95
2, 333120, Note_off_c, 2, 61, 95
2, 333120, Note_off_c, 2, 57, 95
2, 333120, Note_off_c, 2, 52, 95
2, 333120, Note_on_c, 2, 66, 95
2, 333120, Note_on_c, 2, 61, 95
2, 333120, Note_on_c, 2, 57, 95
2, 333120, Note_on_c, 2, 52, 95
2, 333600, Note_off_c, 2, 66, 95
2, 333600, Note_off_c, 2, 61, 95
2, 333600, Note_off_c, 2, 57, 95
2, 333600, Note_off_c, 2, 52, 95
2, 333600, Note_on_c, 2, 66, 95
2, 333600, Note_on_c, 2, 61, 95
2, 333600, Note_on_c, 2, 57, 95
2, 333600, Note_on_c, 2, 52, 95
2, 334080, Note_off_c, 2, 66, 95
2, 334080, Note_off_c, 2, 61, 95
2, 334080, Note_off_c, 2, 57, 95
2, 334080, Note_off_c, 2, 52, 95
2, 334080, Note_on_c, 2, 66, 95
2, 334080, Note_on_c, 2, 62, 95
2, 334080, Note_on_c, 2, 57, 95
2, 334080, Note_on_c, 2, 54, 95
2, 334080, Note_on_c, 2, 47, 95
2, 337920, Note_off_c, 2, 66, 95
2, 337920, Note_off_c, 2, 62, 95
2, 337920, Note_off_c, 2, 57, 95
2, 337920, Note_off_c, 2, 54, 95
2, 337920, Note_off_c, 2, 47, 95
2, 365760, Note_on_c, 2, 66, 95
2, 365760, Note_on_c, 2, 61, 95
2, 365760, Note_on_c, 2, 57, 95
2, 365760, Note_on_c, 2, 52, 95
2, 365760, Note_on_c, 2, 49, 95
2, 365760, Note_on_c, 2, 42, 95
2, 367200, Note_off_c, 2, 66, 95
2, 367200, Note_off_c, 2, 61, 95
2, 367200, Note_off_c, 2, 57, 95
2, 367200, Note_off_c, 2, 52, 95
2, 367200, Note_off_c, 2, 49, 95
2, 367200, Note_off_c, 2, 42, 95
2, 367200, Note_on_c, 2, 65, 95
2, 367200, Note_on_c, 2, 60, 95
2, 367200, Note_on_c, 2, 56, 95
2, 367200, Note_on_c, 2, 51, 95
2, 367200, Note_on_c, 2, 48, 95
2, 367200, Note_on_c, 2, 42, 95
2, 368640, Note_off_c, 2, 65, 95
2, 368640, Note_off_c, 2, 60, 95
2, 368640, Note_off_c, 2, 56, 95
2, 368640, Note_off_c, 2, 51, 95
2, 368640, Note_off_c, 2, 48, 95
2, 368640, Note_off_c, 2, 42, 95
2, 373440, Note_on_c, 2, 64, 95
2, 373440, Note_on_c, 2, 62, 95
2, 373440, Note_on_c, 2, 55, 95
2, 373440, Note_on_c, 2, 52, 95
2, 373920, Note_off_c, 2, 64, 95
2, 373920, Note_off_c, 2, 62, 95
2, 373920, Note_off_c, 2, 55, 95
2, 373920, Note_off_c, 2, 52, 95
2, 373920, Note_on_c, 2, 64, 95
2, 373920, Note_on_c, 2, 62, 95
2, 373920, Note_on_c, 2, 55, 95
2, 373920, Note_on_c, 2, 52, 95
2, 374400, Note_off_c, 2, 64, 95
2, 374400, Note_off_c, 2, 62, 95
2, 374400, Note_off_c, 2, 55, 95
2, 374400, Note_off_c, 2, 52, 95
2, 374400, Note_on_c, 2, 64, 95
2, 374400, Note_on_c, 2, 62, 95
2, 374400, Note_on_c, 2, 55, 95
2, 374400, Note_on_c, 2, 52, 95
2, 374880, Note_off_c, 2, 64, 95
2, 374880, Note_off_c, 2, 62, 95
2, 374880, Note_off_c, 2, 55, 95
2, 374880, Note_off_c, 2, 52, 95
2, 374880, Note_on_c, 2, 64, 95
2, 374880, Note_on_c, 2, 62, 95
2, 374880, Note_on_c, 2, 55, 95
2, 374880, Note_on_c, 2, 52, 95
2, 375360, Note_off_c, 2, 64, 95
2, 375360, Note_off_c, 2, 62, 95
2, 375360, Note_off_c, 2, 55, 95
2, 375360, Note_off_c, 2, 52, 95
2, 375360, Note_on_c, 2, 64, 95
2, 375360, Note_on_c, 2, 62, 95
2, 375360, Note_on_c, 2, 55, 95
2, 375360, Note_on_c, 2, 52, 95
2, 376320, Note_off_c, 2, 64, 95
2, 376320, Note_off_c, 2, 62, 95
2, 376320, Note_off_c, 2, 55, 95
2, 376320, Note_off_c, 2, 52, 95
2, 376800, Note_on_c, 2, 66, 95
2, 376800, Note_on_c, 2, 61, 95
2, 376800, Note_on_c, 2, 57, 95
2, 378240, Note_off_c, 2, 66, 95
2, 378240, Note_off_c, 2, 61, 95
2, 378240, Note_off_c, 2, 57, 95
2, 378240, Note_on_c, 2, 69, 95
2, 378240, Note_on_c, 2, 66, 95
2, 378240, Note_on_c, 2, 61, 95
2, 378240, Note_on_c, 2, 57, 95
2, 378240, Note_on_c, 2, 47, 95
2, 384000, Note_off_c, 2, 69, 95
2, 384000, Note_off_c, 2, 66, 95
2, 384000, Note_off_c, 2, 61, 95
2, 384000, Note_off_c, 2, 57, 95
2, 384000, Note_off_c, 2, 47, 95
2, 385440, Note_on_c, 2, 66, 95
2, 385440, Note_on_c, 2, 61, 95
2, 385440, Note_on_c, 2, 57, 95
2, 385440, Note_on_c, 2, 50, 95
2, 385920, Note_off_c, 2, 66, 95
2, 385920, Note_off_c, 2, 61, 95
2, 385920, Note_off_c, 2, 57, 95
2, 385920, Note_off_c, 2, 50, 95
2, 386880, Note_on_c, 2, 66, 95
2, 386880, Note_on_c, 2, 62, 95
2, 386880, Note_on_c, 2, 59, 95
2, 386880, Note_on_c, 2, 55, 95
2, 391680, Note_off_c, 2, 66, 95
2, 391680, Note_off_c, 2, 62, 95
2, 391680, Note_off_c, 2, 59, 95
2, 391680, Note_off_c, 2, 55, 95
2, 393120, Note_on_c, 2, 66, 95
2, 393120, Note_on_c, 2, 61, 95
2, 393120, Note_on_c, 2, 57, 95
2, 393120, Note_on_c, 2, 50, 95
2, 393600, Note_off_c, 2, 66, 95
2, 393600, Note_off_c, 2, 61, 95
2, 393600, Note_off_c, 2, 57, 95
2, 393600, Note_off_c, 2, 50, 95
2, 394560, Note_on_c, 2, 66, 95
2, 394560, Note_on_c, 2, 62, 95
2, 394560, Note_on_c, 2, 59, 95
2, 394560, Note_on_c, 2, 55, 95
2, 399360, Note_off_c, 2, 66, 95
2, 399360, Note_off_c, 2, 62, 95
2, 399360, Note_off_c, 2, 59, 95
2, 399360, Note_off_c, 2, 55, 95
2, 400800, Note_on_c, 2, 66, 95
2, 400800, Note_on_c, 2, 61, 95
2, 400800, Note_on_c, 2, 57, 95
2, 400800, Note_on_c, 2, 50, 95
2, 401280, Note_off_c, 2, 66, 95
2, 401280, Note_off_c, 2, 61, 95
2, 401280, Note_off_c, 2, 57, 95
2, 401280, Note_off_c, 2, 50, 95
2, 402240, Note_on_c, 2, 66, 95
2, 402240, Note_on_c, 2, 62, 95
2, 402240, Note_on_c, 2, 59, 95
2, 402240, Note_on_c, 2, 55, 95
2, 410880, Note_off_c, 2, 66, 95
2, 410880, Note_off_c, 2, 62, 95
2, 410880, Note_off_c, 2, 59, 95
2, 410880, Note_off_c, 2, 55, 95
2, 410880, Note_on_c, 2, 40, 95
2, 411360, Note_off_c, 2, 40, 95
2, 411360, Note_on_c, 2, 54, 95
2, 411840, Note_off_c, 2, 54, 95
2, 411840, Note_on_c, 2, 55, 95
2, 412320, Note_off_c, 2, 55, 95
2, 412320, Note_on_c, 2, 62, 95
2, 412800, Note_off_c, 2, 62, 95
2, 412800, Note_on_c, 2, 64, 95
2, 414720, Note_off_c, 2, 64, 95
2, 414720, End_track
3, 0, Start_track
3, 0, Pitch_bend_c, 4, 8192
3, 0, Control_c, 4, 7, 79
3, 0, Control_c, 4, 10, 63
3, 0, Control_c, 4, 93, 0
3, 0, Control_c, 4, 91, 0
3, 0, Control_c, 4, 95, 0
3, 0, Control_c, 4, 92, 0
3, 0, Control_c, 4, 11, 127
3, 0, Program_c, 4, 27
3, 0, Control_c, 5, 7, 79
3, 0, Control_c, 5, 10, 63
3, 0, Control_c, 5, 93, 0
3, 0, Control_c, 5, 91, 0
3, 0, Control_c, 5, 95, 0
3, 0, Control_c, 5, 92, 0
3, 0, Control_c, 5, 11, 127
3, 0, Program_c, 5, 27
3, 32640, Note_on_c, 4, 66, 95
3, 32640, Note_on_c, 4, 59, 95
3, 32640, Note_on_c, 4, 57, 95
3, 32640, Note_on_c, 4, 50, 95
3, 32640, Note_on_c, 4, 47, 95
3, 33600, Note_off_c, 4, 66, 95
3, 33600, Note_off_c, 4, 59, 95
3, 33600, Note_off_c, 4, 57, 95
3, 33600, Note_off_c, 4, 50, 95
3, 33600, Note_off_c, 4, 47, 95
3, 36480, Note_on_c, 4, 66, 95
3, 36480, Note_on_c, 4, 59, 95
3, 36480, Note_on_c, 4, 57, 95
3, 36480, Note_on_c, 4, 50, 95
3, 36480, Note_on_c, 4, 47, 95
3, 37440, Note_off_c, 4, 66, 95
3, 37440, Note_off_c, 4, 59, 95
3, 37440, Note_off_c, 4, 57, 95
3, 37440, Note_off_c, 4, 50, 95
3, 37440, Note_off_c, 4, 47, 95
3, 40320, Note_on_c, 4, 64, 95
3, 40320, Note_on_c, 4, 61, 95
3, 40320, Note_on_c, 4, 57, 95
3, 40320, Note_on_c, 4, 52, 95
3, 40320, Note_on_c, 4, 45, 95
3, 40320, Note_on_c, 4, 42, 95
3, 41280, Note_off_c, 4, 64, 95
3, 41280, Note_off_c, 4, 61, 95
3, 41280, Note_off_c, 4, 57, 95
3, 41280, Note_off_c, 4, 52, 95
3, 41280, Note_off_c, 4, 45, 95
3, 41280, Note_off_c, 4, 42, 95
3, 44160, Note_on_c, 4, 64, 95
3, 44160, Note_on_c, 4, 61, 95
3, 44160, Note_on_c, 4, 57, 95
3, 44160, Note_on_c, 4, 52, 95
3, 44160, Note_on_c, 4, 45, 95
3, 44160, Note_on_c, 4, 42, 95
3, 45120, Note_off_c, 4, 64, 95
3, 45120, Note_off_c, 4, 61, 95
3, 45120, Note_off_c, 4, 57, 95
3, 45120, Note_off_c, 4, 52, 95
3, 45120, Note_off_c, 4, 45, 95
3, 45120, Note_off_c, 4, 42, 95
3, 48000, Note_on_c, 4, 66, 95
3, 48000, Note_on_c, 4, 59, 95
3, 48000, Note_on_c, 4, 57, 95
3, 48000, Note_on_c, 4, 50, 95
3, 48000, Note_on_c, 4, 47, 95
3, 48960, Note_off_c, 4, 66, 95
3, 48960, Note_off_c, 4, 59, 95
3, 48960, Note_off_c, 4, 57, 95
3, 48960, Note_off_c, 4, 50, 95
3, 48960, Note_off_c, 4, 47, 95
3, 51840, Note_on_c, 4, 66, 95
3, 51840, Note_on_c, 4, 59, 95
3, 51840, Note_on_c, 4, 57, 95
3, 51840, Note_on_c, 4, 50, 95
3, 51840, Note_on_c, 4, 47, 95
3, 52800, Note_off_c, 4, 66, 95
3, 52800, Note_off_c, 4, 59, 95
3, 52800, Note_off_c, 4, 57, 95
3, 52800, Note_off_c, 4, 50, 95
3, 52800, Note_off_c, 4, 47, 95
3, 55680, Note_on_c, 4, 66, 95
3, 55680, Note_on_c, 4, 59, 95
3, 55680, Note_on_c, 4, 57, 95
3, 55680, Note_on_c, 4, 50, 95
3, 55680, Note_on_c, 4, 47, 95
3, 56640, Note_off_c, 4, 66, 95
3, 56640, Note_off_c, 4, 59, 95
3, 56640, Note_off_c, 4, 57, 95
3, 56640, Note_off_c, 4, 50, 95
3, 56640, Note_off_c, 4, 47, 95
3, 59520, Note_on_c, 4, 64, 95
3, 59520, Note_on_c, 4, 61, 95
3, 59520, Note_on_c, 4, 57, 95
3, 59520, Note_on_c, 4, 52, 95
3, 59520, Note_on_c, 4, 45, 95
3, 59520, Note_on_c, 4, 42, 95
3, 60480, Note_off_c, 4, 64, 95
3, 60480, Note_off_c, 4, 61, 95
3, 60480, Note_off_c, 4, 57, 95
3, 60480, Note_off_c, 4, 52, 95
3, 60480, Note_off_c, 4, 45, 95
3, 60480, Note_off_c, 4, 42, 95
3, 63360, Note_on_c, 4, 64, 95
3, 63360, Note_on_c, 4, 61, 95
3, 63360, Note_on_c, 4, 57, 95
3, 63360, Note_on_c, 4, 52, 95
3, 63360, Note_on_c, 4, 45, 95
3, 63360, Note_on_c, 4, 42, 95
3, 64320, Note_off_c, 4, 64, 95
3, 64320, Note_off_c, 4, 61, 95
3, 64320, Note_off_c, 4, 57, 95
3, 64320, Note_off_c, 4, 52, 95
3, 64320, Note_off_c, 4, 45, 95
3, 64320, Note_off_c, 4, 42, 95
3, 67200, Note_on_c, 4, 66, 95
3, 67200, Note_on_c, 4, 59, 95
3, 67200, Note_on_c, 4, 57, 95
3, 67200, Note_on_c, 4, 50, 95
3, 67200, Note_on_c, 4, 47, 95
3, 68160, Note_off_c, 4, 66, 95
3, 68160, Note_off_c, 4, 59, 95
3, 68160, Note_off_c, 4, 57, 95
3, 68160, Note_off_c, 4, 50, 95
3, 68160, Note_off_c, 4, 47, 95
3, 71040, Note_on_c, 4, 66, 95
3, 71040, Note_on_c, 4, 59, 95
3, 71040, Note_on_c, 4, 57, 95
3, 71040, Note_on_c, 4, 50, 95
3, 71040, Note_on_c, 4, 47, 95
3, 72000, Note_off_c, 4, 66, 95
3, 72000, Note_off_c, 4, 59, 95
3, 72000, Note_off_c, 4, 57, 95
3, 72000, Note_off_c, 4, 50, 95
3, 72000, Note_off_c, 4, 47, 95
3, 74880, Note_on_c, 4, 64, 95
3, 74880, Note_on_c, 4, 61, 95
3, 74880, Note_on_c, 4, 57, 95
3, 74880, Note_on_c, 4, 52, 95
3, 74880, Note_on_c, 4, 45, 95
3, 74880, Note_on_c, 4, 42, 95
3, 75840, Note_off_c, 4, 64, 95
3, 75840, Note_off_c, 4, 61, 95
3, 75840, Note_off_c, 4, 57, 95
3, 75840, Note_off_c, 4, 52, 95
3, 75840, Note_off_c, 4, 45, 95
3, 75840, Note_off_c, 4, 42, 95
3, 78720, Note_on_c, 4, 64, 95
3, 78720, Note_on_c, 4, 61, 95
3, 78720, Note_on_c, 4, 57, 95
3, 78720, Note_on_c, 4, 52, 95
3, 78720, Note_on_c, 4, 45, 95
3, 78720, Note_on_c, 4, 42, 95
3, 79680, Note_off_c, 4, 64, 95
3, 79680, Note_off_c, 4, 61, 95
3, 79680, Note_off_c, 4, 57, 95
3, 79680, Note_off_c, 4, 52, 95
3, 79680, Note_off_c, 4, 45, 95
3, 79680, Note_off_c, 4, 42, 95
3, 82560, Note_on_c, 4, 66, 95
3, 82560, Note_on_c, 4, 59, 95
3, 82560, Note_on_c, 4, 55, 95
3, 82560, Note_on_c, 4, 50, 95
3, 82560, Note_on_c, 4, 47, 95
3, 82560, Note_on_c, 4, 40, 95
3, 83520, Note_off_c, 4, 66, 95
3, 83520, Note_off_c, 4, 59, 95
3, 83520, Note_off_c, 4, 55, 95
3, 83520, Note_off_c, 4, 50, 95
3, 83520, Note_off_c, 4, 47, 95
3, 83520, Note_off_c, 4, 40, 95
3, 86400, Note_on_c, 4, 66, 95
3, 86400, Note_on_c, 4, 59, 95
3, 86400, Note_on_c, 4, 55, 95
3, 86400, Note_on_c, 4, 50, 95
3, 86400, Note_on_c, 4, 47, 95
3, 86400, Note_on_c, 4, 40, 95
3, 87360, Note_off_c, 4, 66, 95
3, 87360, Note_off_c, 4, 59, 95
3, 87360, Note_off_c, 4, 55, 95
3, 87360, Note_off_c, 4, 50, 95
3, 87360, Note_off_c, 4, 47, 95
3, 87360, Note_off_c, 4, 40, 95
3, 90240, Note_on_c, 4, 64, 95
3, 90240, Note_on_c, 4, 61, 95
3, 90240, Note_on_c, 4, 57, 95
3, 90240, Note_on_c, 4, 52, 95
3, 90240, Note_on_c, 4, 45, 95
3, 96000, Note_off_c, 4, 64, 95
3, 96000, Note_off_c, 4, 61, 95
3, 96000, Note_off_c, 4, 57, 95
3, 96000, Note_off_c, 4, 52, 95
3, 96000, Note_off_c, 4, 45, 95
3, 96960, Note_on_c, 4, 66, 95
3, 96960, Note_on_c, 4, 60, 95
3, 96960, Note_on_c, 4, 57, 95
3, 96960, Note_on_c, 4, 50, 95
3, 97920, Note_off_c, 4, 66, 95
3, 97920, Note_off_c, 4, 60, 95
3, 97920, Note_off_c, 4, 57, 95
3, 97920, Note_off_c, 4, 50, 95
3, 98880, Note_on_c, 4, 65, 95
3, 98880, Note_on_c, 4, 59, 95
3, 98880, Note_on_c, 4, 55, 95
3, 98880, Note_on_c, 4, 50, 95
3, 98880, Note_on_c, 4, 47, 95
3, 98880, Note_on_c, 4, 43, 95
3, 103680, Note_off_c, 4, 65, 95
3, 103680, Note_off_c, 4, 59, 95
3, 103680, Note_off_c, 4, 55, 95
3, 103680, Note_off_c, 4, 50, 95
3, 103680, Note_off_c, 4, 47, 95
3, 103680, Note_off_c, 4, 43, 95
3, 105120, Note_on_c, 4, 66, 95
3, 105120, Note_on_c, 4, 60, 95
3, 105120, Note_on_c, 4, 57, 95
3, 105120, Note_on_c, 4, 50, 95
3, 105600, Note_off_c, 4, 66, 95
3, 105600, Note_off_c, 4, 60, 95
3, 105600, Note_off_c, 4, 57, 95
3, 105600, Note_off_c, 4, 50, 95
3, 106560, Note_on_c, 4, 65, 95
3, 106560, Note_on_c, 4, 59, 95
3, 106560, Note_on_c, 4, 55, 95
3, 106560, Note_on_c, 4, 50, 95
3, 106560, Note_on_c, 4, 47, 95
3, 106560, Note_on_c, 4, 43, 95
3, 111360, Note_off_c, 4, 65, 95
3, 111360, Note_off_c, 4, 59, 95
3, 111360, Note_off_c, 4, 55, 95
3, 111360, Note_off_c, 4, 50, 95
3, 111360, Note_off_c, 4, 47, 95
3, 111360, Note_off_c, 4, 43, 95
3, 112800, Note_on_c, 4, 66, 95
3, 112800, Note_on_c, 4, 60, 95
3, 112800, Note_on_c, 4, 57, 95
3, 112800, Note_on_c, 4, 50, 95
3, 113280, Note_off_c, 4, 66, 95
3, 113280, Note_off_c, 4, 60, 95
3, 113280, Note_off_c, 4, 57, 95
3, 113280, Note_off_c, 4, 50, 95
3, 114240, Note_on_c, 4, 65, 95
3, 114240, Note_on_c, 4, 59, 95
3, 114240, Note_on_c, 4, 55, 95
3, 114240, Note_on_c, 4, 50, 95
3, 114240, Note_on_c, 4, 47, 95
3, 114240, Note_on_c, 4, 43, 95
3, 119040, Note_off_c, 4, 65, 95
3, 119040, Note_off_c, 4, 59, 95
3, 119040, Note_off_c, 4, 55, 95
3, 119040, Note_off_c, 4, 50, 95
3, 119040, Note_off_c, 4, 47, 95
3, 119040, Note_off_c, 4, 43, 95
3, 120480, Note_on_c, 4, 66, 95
3, 120480, Note_on_c, 4, 60, 95
3, 120480, Note_on_c, 4, 57, 95
3, 120480, Note_on_c, 4, 50, 95
3, 120960, Note_off_c, 4, 66, 95
3, 120960, Note_off_c, 4, 60, 95
3, 120960, Note_off_c, 4, 57, 95
3, 120960, Note_off_c, 4, 50, 95
3, 121920, Note_on_c, 4, 65, 95
3, 121920, Note_on_c, 4, 59, 95
3, 121920, Note_on_c, 4, 55, 95
3, 121920, Note_on_c, 4, 50, 95
3, 121920, Note_on_c, 4, 47, 95
3, 121920, Note_on_c, 4, 43, 95
3, 126720, Note_off_c, 4, 65, 95
3, 126720, Note_off_c, 4, 59, 95
3, 126720, Note_off_c, 4, 55, 95
3, 126720, Note_off_c, 4, 50, 95
3, 126720, Note_off_c, 4, 47, 95
3, 126720, Note_off_c, 4, 43, 95
3, 128640, Note_on_c, 4, 64, 95
3, 128640, Note_on_c, 4, 59, 95
3, 128640, Note_on_c, 4, 56, 95
3, 128640, Note_on_c, 4, 52, 95
3, 128640, Note_on_c, 4, 49, 95
3, 129600, Note_off_c, 4, 64, 95
3, 129600, Note_off_c, 4, 59, 95
3, 129600, Note_off_c, 4, 56, 95
3, 129600, Note_off_c, 4, 52, 95
3, 129600, Note_off_c, 4, 49, 95
3, 132480, Note_on_c, 4, 64, 95
3, 132480, Note_on_c, 4, 59, 95
3, 132480, Note_on_c, 4, 56, 95
3, 132480, Note_on_c, 4, 52, 95
3, 132480, Note_on_c, 4, 49, 95
3, 133440, Note_off_c, 4, 64, 95
3, 133440, Note_off_c, 4, 59, 95
3, 133440, Note_off_c, 4, 56, 95
3, 133440, Note_off_c, 4, 52, 95
3, 133440, Note_off_c, 4, 49, 95
3, 136320, Note_on_c, 4, 68, 95
3, 136320, Note_on_c, 4, 63, 95
3, 136320, Note_on_c, 4, 59, 95
3, 136320, Note_on_c, 4, 54, 95
3, 136320, Note_on_c, 4, 47, 95
3, 136320, Note_on_c, 4, 44, 95
3, 137280, Note_off_c, 4, 68, 95
3, 137280, Note_off_c, 4, 63, 95
3, 137280, Note_off_c, 4, 59, 95
3, 137280, Note_off_c, 4, 54, 95
3, 137280, Note_off_c, 4, 47, 95
3, 137280, Note_off_c, 4, 44, 95
3, 140160, Note_on_c, 4, 68, 95
3, 140160, Note_on_c, 4, 63, 95
3, 140160, Note_on_c, 4, 59, 95
3, 140160, Note_on_c, 4, 54, 95
3, 140160, Note_on_c, 4, 47, 95
3, 140160, Note_on_c, 4, 44, 95
3, 141120, Note_off_c, 4, 68, 95
3, 141120, Note_off_c, 4, 63, 95
3, 141120, Note_off_c, 4, 59, 95
3, 141120, Note_off_c, 4, 54, 95
3, 141120, Note_off_c, 4, 47, 95
3, 141120, Note_off_c, 4, 44, 95
3, 144000, Note_on_c, 4, 64, 95
3, 144000, Note_on_c, 4, 59, 95
3, 144000, Note_on_c, 4, 56, 95
3, 144000, Note_on_c, 4, 52, 95
3, 144000, Note_on_c, 4, 49, 95
3, 144960, Note_off_c, 4, 64, 95
3, 144960, Note_off_c, 4, 59, 95
3, 144960, Note_off_c, 4, 56, 95
3, 144960, Note_off_c, 4, 52, 95
3, 144960, Note_off_c, 4, 49, 95
3, 147840, Note_on_c, 4, 64, 95
3, 147840, Note_on_c, 4, 59, 95
3, 147840, Note_on_c, 4, 56, 95
3, 147840, Note_on_c, 4, 52, 95
3, 147840, Note_on_c, 4, 49, 95
3, 148800, Note_off_c, 4, 64, 95
3, 148800, Note_off_c, 4, 59, 95
3, 148800, Note_off_c, 4, 56, 95
3, 148800, Note_off_c, 4, 52, 95
3, 148800, Note_off_c, 4, 49, 95
3, 151680, Note_on_c, 4, 68, 95
3, 151680, Note_on_c, 4, 63, 95
3, 151680, Note_on_c, 4, 59, 95
3, 151680, Note_on_c, 4, 54, 95
3, 151680, Note_on_c, 4, 47, 95
3, 151680, Note_on_c, 4, 44, 95
3, 152640, Note_off_c, 4, 68, 95
3, 152640, Note_off_c, 4, 63, 95
3, 152640, Note_off_c, 4, 59, 95
3, 152640, Note_off_c, 4, 54, 95
3, 152640, Note_off_c, 4, 47, 95
3, 152640, Note_off_c, 4, 44, 95
3, 155520, Note_on_c, 4, 68, 95
3, 155520, Note_on_c, 4, 63, 95
3, 155520, Note_on_c, 4, 59, 95
3, 155520, Note_on_c, 4, 54, 95
3, 155520, Note_on_c, 4, 47, 95
3, 155520, Note_on_c, 4, 44, 95
3, 156480, Note_off_c, 4, 68, 95
3, 156480, Note_off_c, 4, 63, 95
3, 156480, Note_off_c, 4, 59, 95
3, 156480, Note_off_c, 4, 54, 95
3, 156480, Note_off_c, 4, 47, 95
3, 156480, Note_off_c, 4, 44, 95
3, 159360, Note_on_c, 4, 64, 95
3, 159360, Note_on_c, 4, 59, 95
3, 159360, Note_on_c, 4, 56, 95
3, 159360, Note_on_c, 4, 52, 95
3, 159360, Note_on_c, 4, 49, 95
3, 160320, Note_off_c, 4, 64, 95
3, 160320, Note_off_c, 4, 59, 95
3, 160320, Note_off_c, 4, 56, 95
3, 160320, Note_off_c, 4, 52, 95
3, 160320, Note_off_c, 4, 49, 95
3, 163200, Note_on_c, 4, 64, 95
3, 163200, Note_on_c, 4, 59, 95
3, 163200, Note_on_c, 4, 56, 95
3, 163200, Note_on_c, 4, 52, 95
3, 163200, Note_on_c, 4, 49, 95
3, 164160, Note_off_c, 4, 64, 95
3, 164160, Note_off_c, 4, 59, 95
3, 164160, Note_off_c, 4, 56, 95
3, 164160, Note_off_c, 4, 52, 95
3, 164160, Note_off_c, 4, 49, 95
3, 167040, Note_on_c, 4, 59, 95
3, 167040, Note_on_c, 4, 56, 95
3, 167040, Note_on_c, 4, 51, 95
3, 167040, Note_on_c, 4, 47, 95
3, 167040, Note_on_c, 4, 44, 95
3, 168000, Note_off_c, 4, 59, 95
3, 168000, Note_off_c, 4, 56, 95
3, 168000, Note_off_c, 4, 51, 95
3, 168000, Note_off_c, 4, 47, 95
3, 168000, Note_off_c, 4, 44, 95
3, 174720, Note_on_c, 4, 64, 95
3, 174720, Note_on_c, 4, 61, 95
3, 174720, Note_on_c, 4, 57, 95
3, 174720, Note_on_c, 4, 52, 95
3, 174720, Note_on_c, 4, 45, 95
3, 174720, Note_on_c, 4, 42, 95
3, 175680, Note_off_c, 4, 64, 95
3, 175680, Note_off_c, 4, 61, 95
3, 175680, Note_off_c, 4, 57, 95
3, 175680, Note_off_c, 4, 52, 95
3, 175680, Note_off_c, 4, 45, 95
3, 175680, Note_off_c, 4, 42, 95
3, 178560, Note_on_c, 4, 64, 95
3, 178560, Note_on_c, 4, 61, 95
3, 178560, Note_on_c, 4, 57, 95
3, 178560, Note_on_c, 4, 52, 95
3, 178560, Note_on_c, 4, 45, 95
3, 178560, Note_on_c, 4, 42, 95
3, 179520, Note_off_c, 4, 64, 95
3, 179520, Note_off_c, 4, 61, 95
3, 179520, Note_off_c, 4, 57, 95
3, 179520, Note_off_c, 4, 52, 95
3, 179520, Note_off_c, 4, 45, 95
3, 179520, Note_off_c, 4, 42, 95
3, 180960, Note_on_c, 4, 66, 95
3, 180960, Note_on_c, 4, 59, 95
3, 180960, Note_on_c, 4, 56, 95
3, 180960, Note_on_c, 4, 51, 95
3, 180960, Note_on_c, 4, 47, 95
3, 182400, Note_off_c, 4, 66, 95
3, 182400, Note_off_c, 4, 59, 95
3, 182400, Note_off_c, 4, 56, 95
3, 182400, Note_off_c, 4, 51, 95
3, 182400, Note_off_c, 4, 47, 95
3, 182400, Note_on_c, 4, 66, 95
3, 182400, Note_on_c, 4, 59, 95
3, 182400, Note_on_c, 4, 56, 95
3, 182400, Note_on_c, 4, 51, 95
3, 182400, Note_on_c, 4, 47, 95
3, 188160, Note_off_c, 4, 66, 95
3, 188160, Note_off_c, 4, 59, 95
3, 188160, Note_off_c, 4, 56, 95
3, 188160, Note_off_c, 4, 51, 95
3, 188160, Note_off_c, 4, 47, 95
3, 190080, Note_on_c, 4, 66, 95
3, 190080, Note_on_c, 4, 59, 95
3, 190080, Note_on_c, 4, 57, 95
3, 190080, Note_on_c, 4, 50, 95
3, 190080, Note_on_c, 4, 47, 95
3, 191040, Note_off_c, 4, 66, 95
3, 191040, Note_off_c, 4, 59, 95
3, 191040, Note_off_c, 4, 57, 95
3, 191040, Note_off_c, 4, 50, 95
3, 191040, Note_off_c, 4, 47, 95
3, 193920, Note_on_c, 4, 66, 95
3, 193920, Note_on_c, 4, 59, 95
3, 193920, Note_on_c, 4, 57, 95
3, 193920, Note_on_c, 4, 50, 95
3, 193920, Note_on_c, 4, 47, 95
3, 194880, Note_off_c, 4, 66, 95
3, 194880, Note_off_c, 4, 59, 95
3, 194880, Note_off_c, 4, 57, 95
3, 194880, Note_off_c, 4, 50, 95
3, 194880, Note_off_c, 4, 47, 95
3, 197760, Note_on_c, 4, 64, 95
3, 197760, Note_on_c, 4, 61, 95
3, 197760, Note_on_c, 4, 57, 95
3, 197760, Note_on_c, 4, 52, 95
3, 197760, Note_on_c, 4, 45, 95
3, 197760, Note_on_c, 4, 42, 95
3, 198720, Note_off_c, 4, 64, 95
3, 198720, Note_off_c, 4, 61, 95
3, 198720, Note_off_c, 4, 57, 95
3, 198720, Note_off_c, 4, 52, 95
3, 198720, Note_off_c, 4, 45, 95
3, 198720, Note_off_c, 4, 42, 95
3, 201600, Note_on_c, 4, 64, 95
3, 201600, Note_on_c, 4, 61, 95
3, 201600, Note_on_c, 4, 57, 95
3, 201600, Note_on_c, 4, 52, 95
3, 201600, Note_on_c, 4, 45, 95
3, 201600, Note_on_c, 4, 42, 95
3, 202560, Note_off_c, 4, 64, 95
3, 202560, Note_off_c, 4, 61, 95
3, 202560, Note_off_c, 4, 57, 95
3, 202560, Note_off_c, 4, 52, 95
3, 202560, Note_off_c, 4, 45, 95
3, 202560, Note_off_c, 4, 42, 95
3, 205440, Note_on_c, 4, 66, 95
3, 205440, Note_on_c, 4, 59, 95
3, 205440, Note_on_c, 4, 57, 95
3, 205440, Note_on_c, 4, 50, 95
3, 205440, Note_on_c, 4, 47, 95
3, 206400, Note_off_c, 4, 66, 95
3, 206400, Note_off_c, 4, 59, 95
3, 206400, Note_off_c, 4, 57, 95
3, 206400, Note_off_c, 4, 50, 95
3, 206400, Note_off_c, 4, 47, 95
3, 209280, Note_on_c, 4, 66, 95
3, 209280, Note_on_c, 4, 59, 95
3, 209280, Note_on_c, 4, 57, 95
3, 209280, Note_on_c, 4, 50, 95
3, 209280, Note_on_c, 4, 47, 95
3, 210240, Note_off_c, 4, 66, 95
3, 210240, Note_off_c, 4, 59, 95
3, 210240, Note_off_c, 4, 57, 95
3, 210240, Note_off_c, 4, 50, 95
3, 210240, Note_off_c, 4, 47, 95
3, 213120, Note_on_c, 4, 64, 95
3, 213120, Note_on_c, 4, 61, 95
3, 213120, Note_on_c, 4, 57, 95
3, 213120, Note_on_c, 4, 52, 95
3, 213120, Note_on_c, 4, 45, 95
3, 213120, Note_on_c, 4, 42, 95
3, 214080, Note_off_c, 4, 64, 95
3, 214080, Note_off_c, 4, 61, 95
3, 214080, Note_off_c, 4, 57, 95
3, 214080, Note_off_c, 4, 52, 95
3, 214080, Note_off_c, 4, 45, 95
3, 214080, Note_off_c, 4, 42, 95
3, 216960, Note_on_c, 4, 64, 95
3, 216960, Note_on_c, 4, 61, 95
3, 216960, Note_on_c, 4, 57, 95
3, 216960, Note_on_c, 4, 52, 95
3, 216960, Note_on_c, 4, 45, 95
3, 216960, Note_on_c, 4, 42, 95
3, 217920, Note_off_c, 4, 64, 95
3, 217920, Note_off_c, 4, 61, 95
3, 217920, Note_off_c, 4, 57, 95
3, 217920, Note_off_c, 4, 52, 95
3, 217920, Note_off_c, 4, 45, 95
3, 217920, Note_off_c, 4, 42, 95
3, 220800, Note_on_c, 4, 66, 95
3, 220800, Note_on_c, 4, 59, 95
3, 220800, Note_on_c, 4, 57, 95
3, 220800, Note_on_c, 4, 50, 95
3, 220800, Note_on_c, 4, 47, 95
3, 221760, Note_off_c, 4, 66, 95
3, 221760, Note_off_c, 4, 59, 95
3, 221760, Note_off_c, 4, 57, 95
3, 221760, Note_off_c, 4, 50, 95
3, 221760, Note_off_c, 4, 47, 95
3, 224640, Note_on_c, 4, 66, 95
3, 224640, Note_on_c, 4, 59, 95
3, 224640, Note_on_c, 4, 57, 95
3, 224640, Note_on_c, 4, 50, 95
3, 224640, Note_on_c, 4, 47, 95
3, 225600, Note_off_c, 4, 66, 95
3, 225600, Note_off_c, 4, 59, 95
3, 225600, Note_off_c, 4, 57, 95
3, 225600, Note_off_c, 4, 50, 95
3, 225600, Note_off_c, 4, 47, 95
3, 228480, Note_on_c, 4, 64, 95
3, 228480, Note_on_c, 4, 61, 95
3, 228480, Note_on_c, 4, 57, 95
3, 228480, Note_on_c, 4, 52, 95
3, 228480, Note_on_c, 4, 45, 95
3, 228480, Note_on_c, 4, 42, 95
3, 229440, Note_off_c, 4, 64, 95
3, 229440, Note_off_c, 4, 61, 95
3, 229440, Note_off_c, 4, 57, 95
3, 229440, Note_off_c, 4, 52, 95
3, 229440, Note_off_c, 4, 45, 95
3, 229440, Note_off_c, 4, 42, 95
3, 232320, Note_on_c, 4, 64, 95
3, 232320, Note_on_c, 4, 61, 95
3, 232320, Note_on_c, 4, 57, 95
3, 232320, Note_on_c, 4, 52, 95
3, 232320, Note_on_c, 4, 45, 95
3, 232320, Note_on_c, 4, 42, 95
3, 233280, Note_off_c, 4, 64, 95
3, 233280, Note_off_c, 4, 61, 95
3, 233280, Note_off_c, 4, 57, 95
3, 233280, Note_off_c, 4, 52, 95
3, 233280, Note_off_c, 4, 45, 95
3, 233280, Note_off_c, 4, 42, 95
3, 236160, Note_on_c, 4, 66, 95
3, 236160, Note_on_c, 4, 59, 95
3, 236160, Note_on_c, 4, 57, 95
3, 236160, Note_on_c, 4, 50, 95
3, 236160, Note_on_c, 4, 47, 95
3, 237120, Note_off_c, 4, 66, 95
3, 237120, Note_off_c, 4, 59, 95
3, 237120, Note_off_c, 4, 57, 95
3, 237120, Note_off_c, 4, 50, 95
3, 237120, Note_off_c, 4, 47, 95
3, 240000, Note_on_c, 4, 66, 95
3, 240000, Note_on_c, 4, 59, 95
3, 240000, Note_on_c, 4, 57, 95
3, 240000, Note_on_c, 4, 50, 95
3, 240000, Note_on_c, 4, 47, 95
3, 240960, Note_off_c, 4, 66, 95
3, 240960, Note_off_c, 4, 59, 95
3, 240960, Note_off_c, 4, 57, 95
3, 240960, Note_off_c, 4, 50, 95
3, 240960, Note_off_c, 4, 47, 95
3, 243840, Note_on_c, 4, 64, 95
3, 243840, Note_on_c, 4, 61, 95
3, 243840, Note_on_c, 4, 57, 95
3, 243840, Note_on_c, 4, 52, 95
3, 243840, Note_on_c, 4, 45, 95
3, 243840, Note_on_c, 4, 42, 95
3, 244800, Note_off_c, 4, 64, 95
3, 244800, Note_off_c, 4, 61, 95
3, 244800, Note_off_c, 4, 57, 95
3, 244800, Note_off_c, 4, 52, 95
3, 244800, Note_off_c, 4, 45, 95
3, 244800, Note_off_c, 4, 42, 95
3, 247680, Note_on_c, 4, 64, 95
3, 247680, Note_on_c, 4, 61, 95
3, 247680, Note_on_c, 4, 57, 95
3, 247680, Note_on_c, 4, 52, 95
3, 247680, Note_on_c, 4, 45, 95
3, 247680, Note_on_c, 4, 42, 95
3, 248640, Note_off_c, 4, 64, 95
3, 248640, Note_off_c, 4, 61, 95
3, 248640, Note_off_c, 4, 57, 95
3, 248640, Note_off_c, 4, 52, 95
3, 248640, Note_off_c, 4, 45, 95
3, 248640, Note_off_c, 4, 42, 95
3, 251520, Note_on_c, 4, 66, 95
3, 251520, Note_on_c, 4, 59, 95
3, 251520, Note_on_c, 4, 57, 95
3, 251520, Note_on_c, 4, 50, 95
3, 251520, Note_on_c, 4, 47, 95
3, 252480, Note_off_c, 4, 66, 95
3, 252480, Note_off_c, 4, 59, 95
3, 252480, Note_off_c, 4, 57, 95
3, 252480, Note_off_c, 4, 50, 95
3, 252480, Note_off_c, 4, 47, 95
3, 255360, Note_on_c, 4, 66, 95
3, 255360, Note_on_c, 4, 59, 95
3, 255360, Note_on_c, 4, 57, 95
3, 255360, Note_on_c, 4, 50, 95
3, 255360, Note_on_c, 4, 47, 95
3, 256320, Note_off_c, 4, 66, 95
3, 256320, Note_off_c, 4, 59, 95
3, 256320, Note_off_c, 4, 57, 95
3, 256320, Note_off_c, 4, 50, 95
3, 256320, Note_off_c, 4, 47, 95
3, 259200, Note_on_c, 4, 64, 95
3, 259200, Note_on_c, 4, 61, 95
3, 259200, Note_on_c, 4, 57, 95
3, 259200, Note_on_c, 4, 52, 95
3, 259200, Note_on_c, 4, 45, 95
3, 259200, Note_on_c, 4, 42, 95
3, 260160, Note_off_c, 4, 64, 95
3, 260160, Note_off_c, 4, 61, 95
3, 260160, Note_off_c, 4, 57, 95
3, 260160, Note_off_c, 4, 52, 95
3, 260160, Note_off_c, 4, 45, 95
3, 260160, Note_off_c, 4, 42, 95
3, 261120, Note_on_c, 4, 64, 95
3, 261120, Note_on_c, 4, 61, 95
3, 261120, Note_on_c, 4, 57, 95
3, 261120, Note_on_c, 4, 52, 95
3, 261120, Note_on_c, 4, 45, 95
3, 261120, Note_on_c, 4, 42, 95
3, 262080, Note_off_c, 4, 64, 95
3, 262080, Note_off_c, 4, 61, 95
3, 262080, Note_off_c, 4, 57, 95
3, 262080, Note_off_c, 4, 52, 95
3, 262080, Note_off_c, 4, 45, 95
3, 262080, Note_off_c, 4, 42, 95
3, 264000, Note_on_c, 4, 65, 95
3, 264000, Note_on_c, 4, 60, 95
3, 264000, Note_on_c, 4, 56, 95
3, 264000, Note_on_c, 4, 51, 95
3, 264000, Note_on_c, 4, 48, 95
3, 264000, Note_on_c, 4, 41, 95
3, 264960, Note_off_c, 4, 65, 95
3, 264960, Note_off_c, 4, 60, 95
3, 264960, Note_off_c, 4, 56, 95
3, 264960, Note_off_c, 4, 51, 95
3, 264960, Note_off_c, 4, 48, 95
3, 264960, Note_off_c, 4, 41, 95
3, 266880, Note_on_c, 4, 66, 95
3, 266880, Note_on_c, 4, 59, 95
3, 266880, Note_on_c, 4, 55, 95
3, 266880, Note_on_c, 4, 50, 95
3, 266880, Note_on_c, 4, 47, 95
3, 266880, Note_on_c, 4, 40, 95
3, 267840, Note_off_c, 4, 66, 95
3, 267840, Note_off_c, 4, 59, 95
3, 267840, Note_off_c, 4, 55, 95
3, 267840, Note_off_c, 4, 50, 95
3, 267840, Note_off_c, 4, 47, 95
3, 267840, Note_off_c, 4, 40, 95
3, 270720, Note_on_c, 4, 66, 95
3, 270720, Note_on_c, 4, 59, 95
3, 270720, Note_on_c, 4, 55, 95
3, 270720, Note_on_c, 4, 50, 95
3, 270720, Note_on_c, 4, 47, 95
3, 270720, Note_on_c, 4, 40, 95
3, 271680, Note_off_c, 4, 66, 95
3, 271680, Note_off_c, 4, 59, 95
3, 271680, Note_off_c, 4, 55, 95
3, 271680, Note_off_c, 4, 50, 95
3, 271680, Note_off_c, 4, 47, 95
3, 271680, Note_off_c, 4, 40, 95
3, 273120, Note_on_c, 4, 66, 95
3, 273120, Note_on_c, 4, 61, 95
3, 273120, Note_on_c, 4, 57, 95
3, 273120, Note_on_c, 4, 52, 95
3, 273120, Note_on_c, 4, 45, 95
3, 274560, Note_off_c, 4, 66, 95
3, 274560, Note_off_c, 4, 61, 95
3, 274560, Note_off_c, 4, 57, 95
3, 274560, Note_off_c, 4, 52, 95
3, 274560, Note_off_c, 4, 45, 95
3, 274560, Note_on_c, 4, 66, 95
3, 274560, Note_on_c, 4, 61, 95
3, 274560, Note_on_c, 4, 57, 95
3, 274560, Note_on_c, 4, 52, 95
3, 274560, Note_on_c, 4, 45, 95
3, 280320, Note_off_c, 4, 66, 95
3, 280320, Note_off_c, 4, 61, 95
3, 280320, Note_off_c, 4, 57, 95
3, 280320, Note_off_c, 4, 52, 95
3, 280320, Note_off_c, 4, 45, 95
3, 281760, Note_on_c, 4, 66, 95
3, 281760, Note_on_c, 4, 60, 95
3, 281760, Note_on_c, 4, 57, 95
3, 281760, Note_on_c, 4, 50, 95
3, 282240, Note_off_c, 4, 66, 95
3, 282240, Note_off_c, 4, 60, 95
3, 282240, Note_off_c, 4, 57, 95
3, 282240, Note_off_c, 4, 50, 95
3, 283200, Note_on_c, 4, 65, 95
3, 283200, Note_on_c, 4, 59, 95
3, 283200, Note_on_c, 4, 55, 95
3, 283200, Note_on_c, 4, 50, 95
3, 283200, Note_on_c, 4, 47, 95
3, 283200, Note_on_c, 4, 43, 95
3, 288000, Note_off_c, 4, 65, 95
3, 288000, Note_off_c, 4, 59, 95
3, 288000, Note_off_c, 4, 55, 95
3, 288000, Note_off_c, 4, 50, 95
3, 288000, Note_off_c, 4, 47, 95
3, 288000, Note_off_c, 4, 43, 95
3, 289440, Note_on_c, 4, 66, 95
3, 289440, Note_on_c, 4, 60, 95
3, 289440, Note_on_c, 4, 57, 95
3, 289440, Note_on_c, 4, 50, 95
3, 289920, Note_off_c, 4, 66, 95
3, 289920, Note_off_c, 4, 60, 95
3, 289920, Note_off_c, 4, 57, 95
3, 289920, Note_off_c, 4, 50, 95
3, 290880, Note_on_c, 4, 65, 95
3, 290880, Note_on_c, 4, 59, 95
3, 290880, Note_on_c, 4, 55, 95
3, 290880, Note_on_c, 4, 50, 95
3, 290880, Note_on_c, 4, 47, 95
3, 290880, Note_on_c, 4, 43, 95
3, 295680, Note_off_c, 4, 65, 95
3, 295680, Note_off_c, 4, 59, 95
3, 295680, Note_off_c, 4, 55, 95
3, 295680, Note_off_c, 4, 50, 95
3, 295680, Note_off_c, 4, 47, 95
3, 295680, Note_off_c, 4, 43, 95
3, 297120, Note_on_c, 4, 66, 95
3, 297120, Note_on_c, 4, 60, 95
3, 297120, Note_on_c, 4, 57, 95
3, 297120, Note_on_c, 4, 50, 95
3, 297600, Note_off_c, 4, 66, 95
3, 297600, Note_off_c, 4, 60, 95
3, 297600, Note_off_c, 4, 57, 95
3, 297600, Note_off_c, 4, 50, 95
3, 298560, Note_on_c, 4, 65, 95
3, 298560, Note_on_c, 4, 59, 95
3, 298560, Note_on_c, 4, 55, 95
3, 298560, Note_on_c, 4, 50, 95
3, 298560, Note_on_c, 4, 47, 95
3, 298560, Note_on_c, 4, 43, 95
3, 303360, Note_off_c, 4, 65, 95
3, 303360, Note_off_c, 4, 59, 95
3, 303360, Note_off_c, 4, 55, 95
3, 303360, Note_off_c, 4, 50, 95
3, 303360, Note_off_c, 4, 47, 95
3, 303360, Note_off_c, 4, 43, 95
3, 304800, Note_on_c, 4, 66, 95
3, 304800, Note_on_c, 4, 60, 95
3, 304800, Note_on_c, 4, 57, 95
3, 304800, Note_on_c, 4, 50, 95
3, 305280, Note_off_c, 4, 66, 95
3, 305280, Note_off_c, 4, 60, 95
3, 305280, Note_off_c, 4, 57, 95
3, 305280, Note_off_c, 4, 50, 95
3, 306240, Note_on_c, 4, 65, 95
3, 306240, Note_on_c, 4, 59, 95
3, 306240, Note_on_c, 4, 55, 95
3, 306240, Note_on_c, 4, 50, 95
3, 306240, Note_on_c, 4, 47, 95
3, 306240, Note_on_c, 4, 43, 95
3, 311040, Note_off_c, 4, 65, 95
3, 311040, Note_off_c, 4, 59, 95
3, 311040, Note_off_c, 4, 55, 95
3, 311040, Note_off_c, 4, 50, 95
3, 311040, Note_off_c, 4, 47, 95
3, 311040, Note_off_c, 4, 43, 95
3, 312480, Note_on_c, 4, 66, 95
3, 312480, Note_on_c, 4, 60, 95
3, 312480, Note_on_c, 4, 57, 95
3, 312480, Note_on_c, 4, 50, 95
3, 312960, Note_off_c, 4, 66, 95
3, 312960, Note_off_c, 4, 60, 95
3, 312960, Note_off_c, 4, 57, 95
3, 312960, Note_off_c, 4, 50, 95
3, 313920, Note_on_c, 4, 65, 95
3, 313920, Note_on_c, 4, 59, 95
3, 313920, Note_on_c, 4, 55, 95
3, 313920, Note_on_c, 4, 50, 95
3, 313920, Note_on_c, 4, 47, 95
3, 313920, Note_on_c, 4, 43, 95
3, 318720, Note_off_c, 4, 65, 95
3, 318720, Note_off_c, 4, 59, 95
3, 318720, Note_off_c, 4, 55, 95
3, 318720, Note_off_c, 4, 50, 95
3, 318720, Note_off_c, 4, 47, 95
3, 318720, Note_off_c, 4, 43, 95
3, 320640, Note_on_c, 4, 66, 95
3, 320640, Note_on_c, 4, 59, 95
3, 320640, Note_on_c, 4, 57, 95
3, 320640, Note_on_c, 4, 50, 95
3, 320640, Note_on_c, 4, 47, 95
3, 321600, Note_off_c, 4, 66, 95
3, 321600, Note_off_c, 4, 59, 95
3, 321600, Note_off_c, 4, 57, 95
3, 321600, Note_off_c, 4, 50, 95
3, 321600, Note_off_c, 4, 47, 95
3, 324480, Note_on_c, 4, 66, 95
3, 324480, Note_on_c, 4, 59, 95
3, 324480, Note_on_c, 4, 57, 95
3, 324480, Note_on_c, 4, 50, 95
3, 324480, Note_on_c, 4, 47, 95
3, 325440, Note_off_c, 4, 66, 95
3, 325440, Note_off_c, 4, 59, 95
3, 325440, Note_off_c, 4, 57, 95
3, 325440, Note_off_c, 4, 50, 95
3, 325440, Note_off_c, 4, 47, 95
3, 328320, Note_on_c, 4, 64, 95
3, 328320, Note_on_c, 4, 61, 95
3, 328320, Note_on_c, 4, 57, 95
3, 328320, Note_on_c, 4, 52, 95
3, 328320, Note_on_c, 4, 45, 95
3, 328320, Note_on_c, 4, 42, 95
3, 329280, Note_off_c, 4, 64, 95
3, 329280, Note_off_c, 4, 61, 95
3, 329280, Note_off_c, 4, 57, 95
3, 329280, Note_off_c, 4, 52, 95
3, 329280, Note_off_c, 4, 45, 95
3, 329280, Note_off_c, 4, 42, 95
3, 332160, Note_on_c, 4, 64, 95
3, 332160, Note_on_c, 4, 61, 95
3, 332160, Note_on_c, 4, 57, 95
3, 332160, Note_on_c, 4, 52, 95
3, 332160, Note_on_c, 4, 45, 95
3, 332160, Note_on_c, 4, 42, 95
3, 333120, Note_off_c, 4, 64, 95
3, 333120, Note_off_c, 4, 61, 95
3, 333120, Note_off_c, 4, 57, 95
3, 333120, Note_off_c, 4, 52, 95
3, 333120, Note_off_c, 4, 45, 95
3, 333120, Note_off_c, 4, 42, 95
3, 336000, Note_on_c, 4, 66, 95
3, 336000, Note_on_c, 4, 59, 95
3, 336000, Note_on_c, 4, 57, 95
3, 336000, Note_on_c, 4, 50, 95
3, 336000, Note_on_c, 4, 47, 95
3, 336960, Note_off_c, 4, 66, 95
3, 336960, Note_off_c, 4, 59, 95
3, 336960, Note_off_c, 4, 57, 95
3, 336960, Note_off_c, 4, 50, 95
3, 336960, Note_off_c, 4, 47, 95
3, 339840, Note_on_c, 4, 66, 95
3, 339840, Note_on_c, 4, 59, 95
3, 339840, Note_on_c, 4, 57, 95
3, 339840, Note_on_c, 4, 50, 95
3, 339840, Note_on_c, 4, 47, 95
3, 340800, Note_off_c, 4, 66, 95
3, 340800, Note_off_c, 4, 59, 95
3, 340800, Note_off_c, 4, 57, 95
3, 340800, Note_off_c, 4, 50, 95
3, 340800, Note_off_c, 4, 47, 95
3, 343680, Note_on_c, 4, 66, 95
3, 343680, Note_on_c, 4, 59, 95
3, 343680, Note_on_c, 4, 57, 95
3, 343680, Note_on_c, 4, 50, 95
3, 343680, Note_on_c, 4, 47, 95
3, 344640, Note_off_c, 4, 66, 95
3, 344640, Note_off_c, 4, 59, 95
3, 344640, Note_off_c, 4, 57, 95
3, 344640, Note_off_c, 4, 50, 95
3, 344640, Note_off_c, 4, 47, 95
3, 347520, Note_on_c, 4, 64, 95
3, 347520, Note_on_c, 4, 61, 95
3, 347520, Note_on_c, 4, 57, 95
3, 347520, Note_on_c, 4, 52, 95
3, 347520, Note_on_c, 4, 45, 95
3, 347520, Note_on_c, 4, 42, 95
3, 348480, Note_off_c, 4, 64, 95
3, 348480, Note_off_c, 4, 61, 95
3, 348480, Note_off_c, 4, 57, 95
3, 348480, Note_off_c, 4, 52, 95
3, 348480, Note_off_c, 4, 45, 95
3, 348480, Note_off_c, 4, 42, 95
3, 351360, Note_on_c, 4, 64, 95
3, 351360, Note_on_c, 4, 61, 95
3, 351360, Note_on_c, 4, 57, 95
3, 351360, Note_on_c, 4, 52, 95
3, 351360, Note_on_c, 4, 45, 95
3, 351360, Note_on_c, 4, 42, 95
3, 352320, Note_off_c, 4, 64, 95
3, 352320, Note_off_c, 4, 61, 95
3, 352320, Note_off_c, 4, 57, 95
3, 352320, Note_off_c, 4, 52, 95
3, 352320, Note_off_c, 4, 45, 95
3, 352320, Note_off_c, 4, 42, 95
3, 355200, Note_on_c, 4, 66, 95
3, 355200, Note_on_c, 4, 59, 95
3, 355200, Note_on_c, 4, 57, 95
3, 355200, Note_on_c, 4, 50, 95
3, 355200, Note_on_c, 4, 47, 95
3, 356160, Note_off_c, 4, 66, 95
3, 356160, Note_off_c, 4, 59, 95
3, 356160, Note_off_c, 4, 57, 95
3, 356160, Note_off_c, 4, 50, 95
3, 356160, Note_off_c, 4, 47, 95
3, 359040, Note_on_c, 4, 66, 95
3, 359040, Note_on_c, 4, 59, 95
3, 359040, Note_on_c, 4, 57, 95
3, 359040, Note_on_c, 4, 50, 95
3, 359040, Note_on_c, 4, 47, 95
3, 360000, Note_off_c, 4, 66, 95
3, 360000, Note_off_c, 4, 59, 95
3, 360000, Note_off_c, 4, 57, 95
3, 360000, Note_off_c, 4, 50, 95
3, 360000, Note_off_c, 4, 47, 95
3, 362880, Note_on_c, 4, 64, 95
3, 362880, Note_on_c, 4, 61, 95
3, 362880, Note_on_c, 4, 57, 95
3, 362880, Note_on_c, 4, 52, 95
3, 362880, Note_on_c, 4, 45, 95
3, 362880, Note_on_c, 4, 42, 95
3, 363840, Note_off_c, 4, 64, 95
3, 363840, Note_off_c, 4, 61, 95
3, 363840, Note_off_c, 4, 57, 95
3, 363840, Note_off_c, 4, 52, 95
3, 363840, Note_off_c, 4, 45, 95
3, 363840, Note_off_c, 4, 42, 95
3, 366720, Note_on_c, 4, 64, 95
3, 366720, Note_on_c, 4, 61, 95
3, 366720, Note_on_c, 4, 57, 95
3, 366720, Note_on_c, 4, 52, 95
3, 366720, Note_on_c, 4, 45, 95
3, 366720, Note_on_c, 4, 42, 95
3, 367680, Note_off_c, 4, 64, 95
3, 367680, Note_off_c, 4, 61, 95
3, 367680, Note_off_c, 4, 57, 95
3, 367680, Note_off_c, 4, 52, 95
3, 367680, Note_off_c, 4, 45, 95
3, 367680, Note_off_c, 4, 42, 95
3, 370560, Note_on_c, 4, 66, 95
3, 370560, Note_on_c, 4, 59, 95
3, 370560, Note_on_c, 4, 55, 95
3, 370560, Note_on_c, 4, 50, 95
3, 370560, Note_on_c, 4, 47, 95
3, 370560, Note_on_c, 4, 40, 95
3, 371520, Note_off_c, 4, 66, 95
3, 371520, Note_off_c, 4, 59, 95
3, 371520, Note_off_c, 4, 55, 95
3, 371520, Note_off_c, 4, 50, 95
3, 371520, Note_off_c, 4, 47, 95
3, 371520, Note_off_c, 4, 40, 95
3, 374400, Note_on_c, 4, 66, 95
3, 374400, Note_on_c, 4, 59, 95
3, 374400, Note_on_c, 4, 55, 95
3, 374400, Note_on_c, 4, 50, 95
3, 374400, Note_on_c, 4, 47, 95
3, 374400, Note_on_c, 4, 40, 95
3, 375360, Note_off_c, 4, 66, 95
3, 375360, Note_off_c, 4, 59, 95
3, 375360, Note_off_c, 4, 55, 95
3, 375360, Note_off_c, 4, 50, 95
3, 375360, Note_off_c, 4, 47, 95
3, 375360, Note_off_c, 4, 40, 95
3, 378240, Note_on_c, 4, 64, 95
3, 378240, Note_on_c, 4, 61, 95
3, 378240, Note_on_c, 4, 57, 95
3, 378240, Note_on_c, 4, 52, 95
3, 378240, Note_on_c, 4, 45, 95
3, 384000, Note_off_c, 4, 64, 95
3, 384000, Note_off_c, 4, 61, 95
3, 384000, Note_off_c, 4, 57, 95
3, 384000, Note_off_c, 4, 52, 95
3, 384000, Note_off_c, 4, 45, 95
3, 384960, Note_on_c, 4, 66, 95
3, 384960, Note_on_c, 4, 60, 95
3, 384960, Note_on_c, 4, 57, 95
3, 384960, Note_on_c, 4, 50, 95
3, 385920, Note_off_c, 4, 66, 95
3, 385920, Note_off_c, 4, 60, 95
3, 385920, Note_off_c, 4, 57, 95
3, 385920, Note_off_c, 4, 50, 95
3, 386880, Note_on_c, 4, 65, 95
3, 386880, Note_on_c, 4, 59, 95
3, 386880, Note_on_c, 4, 55, 95
3, 386880, Note_on_c, 4, 50, 95
3, 386880, Note_on_c, 4, 47, 95
3, 386880, Note_on_c, 4, 43, 95
3, 391680, Note_off_c, 4, 65, 95
3, 391680, Note_off_c, 4, 59, 95
3, 391680, Note_off_c, 4, 55, 95
3, 391680, Note_off_c, 4, 50, 95
3, 391680, Note_off_c, 4, 47, 95
3, 391680, Note_off_c, 4, 43, 95
3, 393120, Note_on_c, 4, 66, 95
3, 393120, Note_on_c, 4, 60, 95
3, 393120, Note_on_c, 4, 57, 95
3, 393120, Note_on_c, 4, 50, 95
3, 393600, Note_off_c, 4, 66, 95
3, 393600, Note_off_c, 4, 60, 95
3, 393600, Note_off_c, 4, 57, 95
3, 393600, Note_off_c, 4, 50, 95
3, 394560, Note_on_c, 4, 65, 95
3, 394560, Note_on_c, 4, 59, 95
3, 394560, Note_on_c, 4, 55, 95
3, 394560, Note_on_c, 4, 50, 95
3, 394560, Note_on_c, 4, 47, 95
3, 394560, Note_on_c, 4, 43, 95
3, 399360, Note_off_c, 4, 65, 95
3, 399360, Note_off_c, 4, 59, 95
3, 399360, Note_off_c, 4, 55, 95
3, 399360, Note_off_c, 4, 50, 95
3, 399360, Note_off_c, 4, 47, 95
3, 399360, Note_off_c, 4, 43, 95
3, 400800, Note_on_c, 4, 66, 95
3, 400800, Note_on_c, 4, 60, 95
3, 400800, Note_on_c, 4, 57, 95
3, 400800, Note_on_c, 4, 50, 95
3, 401280, Note_off_c, 4, 66, 95
3, 401280, Note_off_c, 4, 60, 95
3, 401280, Note_off_c, 4, 57, 95
3, 401280, Note_off_c, 4, 50, 95
3, 402240, Note_on_c, 4, 65, 95
3, 402240, Note_on_c, 4, 59, 95
3, 402240, Note_on_c, 4, 55, 95
3, 402240, Note_on_c, 4, 50, 95
3, 402240, Note_on_c, 4, 47, 95
3, 402240, Note_on_c, 4, 43, 95
3, 407040, Note_off_c, 4, 65, 95
3, 407040, Note_off_c, 4, 59, 95
3, 407040, Note_off_c, 4, 55, 95
3, 407040, Note_off_c, 4, 50, 95
3, 407040, Note_off_c, 4, 47, 95
3, 407040, Note_off_c, 4, 43, 95
3, 410880, Note_on_c, 4, 66, 95
3, 410880, Note_on_c, 4, 59, 95
3, 410880, Note_on_c, 4, 55, 95
3, 410880, Note_on_c, 4, 50, 95
3, 410880, Note_on_c, 4, 47, 95
3, 410880, Note_on_c, 4, 40, 95
3, 414720, Note_off_c, 4, 66, 95
3, 414720, Note_off_c, 4, 59, 95
3, 414720, Note_off_c, 4, 55, 95
3, 414720, Note_off_c, 4, 50, 95
3, 414720, Note_off_c, 4, 47, 95
3, 414720, Note_off_c, 4, 40, 95
3, 414720, End_track
4, 0, Start_track
4, 0, Pitch_bend_c, 0, 8192
4, 0, Control_c, 0, 7, 103
4, 0, Control_c, 0, 10, 63
4, 0, Control_c, 0, 93, 0
4, 0, Control_c, 0, 91, 0
4, 0, Control_c, 0, 95, 0
4, 0, Control_c, 0, 92, 0
4, 0, Control_c, 0, 11, 127
4, 0, Program_c, 0, 22
4, 0, Control_c, 1, 7, 103
4, 0, Control_c, 1, 10, 63
4, 0, Control_c, 1, 93, 0
4, 0, Control_c, 1, 91, 0
4, 0, Control_c, 1, 95, 0
4, 0, Control_c, 1, 92, 0
4, 0, Control_c, 1, 11, 127
4, 0, Program_c, 1, 22
4, 34560, Note_on_c, 0, 59, 95
4, 35520, Note_off_c, 0, 59, 95
4, 35520, Note_on_c, 0, 57, 95
4, 36480, Note_off_c, 0, 57, 95
4, 36480, Note_on_c, 0, 53, 95
4, 36960, Note_off_c, 0, 53, 95
4, 36960, Note_on_c, 0, 52, 95
4, 37440, Note_off_c, 0, 52, 95
4, 37440, Note_on_c, 0, 50, 95
4, 38400, Note_off_c, 0, 50, 95
4, 38400, Note_on_c, 0, 52, 95
4, 39360, Note_off_c, 0, 52, 95
4, 39360, Note_on_c, 0, 53, 95
4, 42240, Note_off_c, 0, 53, 95
4, 50400, Note_on_c, 0, 59, 95
4, 50880, Note_off_c, 0, 59, 95
4, 50880, Note_on_c, 0, 59, 95
4, 51360, Note_off_c, 0, 59, 95
4, 51360, Note_on_c, 0, 57, 95
4, 51840, Note_off_c, 0, 57, 95
4, 51840, Note_on_c, 0, 53, 95
4, 52320, Note_off_c, 0, 53, 95
4, 52320, Note_on_c, 0, 52, 95
4, 52800, Note_off_c, 0, 52, 95
4, 52800, Note_on_c, 0, 50, 95
4, 53760, Note_off_c, 0, 50, 95
4, 53760, Note_on_c, 0, 52, 95
4, 57600, Note_off_c, 0, 52, 95
4, 67680, Note_on_c, 0, 53, 95
4, 68160, Note_off_c, 0, 53, 95
4, 68160, Note_on_c, 0, 57, 95
4, 68640, Note_off_c, 0, 57, 95
4, 68640, Note_on_c, 0, 59, 95
4, 69120, Note_off_c, 0, 59, 95
4, 69120, Note_on_c, 0, 62, 95
4, 70080, Note_off_c, 0, 62, 95
4, 70080, Note_on_c, 0, 59, 95
4, 70560, Note_off_c, 0, 59, 95
4, 70560, Note_on_c, 0, 57, 95
4, 71040, Note_off_c, 0, 57, 95
4, 71040, Note_on_c, 0, 53, 95
4, 71520, Note_off_c, 0, 53, 95
4, 71520, Note_on_c, 0, 52, 95
4, 72000, Note_off_c, 0, 52, 95
4, 72000, Note_on_c, 0, 50, 95
4, 72960, Note_off_c, 0, 50, 95
4, 72960, Note_on_c, 0, 52, 95
4, 73920, Note_off_c, 0, 52, 95
4, 73920, Note_on_c, 0, 53, 95
4, 76800, Note_off_c, 0, 53, 95
4, 91680, Note_on_c, 0, 45, 95
4, 92160, Note_off_c, 0, 45, 95
4, 92160, Note_on_c, 0, 57, 95
4, 92640, Note_off_c, 0, 57, 95
4, 92640, Note_on_c, 0, 57, 95
4, 93120, Note_off_c, 0, 57, 95
4, 93120, Note_on_c, 0, 57, 95
4, 93600, Note_off_c, 0, 57, 95
4, 93600, Note_on_c, 0, 59, 95
4, 94080, Note_off_c, 0, 59, 95
4, 94080, Note_on_c, 0, 53, 95
4, 94560, Note_off_c, 0, 53, 95
4, 94560, Note_on_c, 0, 52, 95
4, 95040, Note_off_c, 0, 52, 95
4, 95040, Note_on_c, 0, 50, 95
4, 95520, Note_off_c, 0, 50, 95
4, 95520, Note_on_c, 0, 50, 95
4, 98880, Note_off_c, 0, 50, 95
4, 222720, Note_on_c, 0, 65, 95
4, 223680, Note_off_c, 0, 65, 95
4, 223680, Note_on_c, 0, 62, 95
4, 224640, Note_off_c, 0, 62, 95
4, 224640, Note_on_c, 0, 59, 95
4, 225600, Note_off_c, 0, 59, 95
4, 225600, Note_on_c, 0, 53, 95
4, 226560, Note_off_c, 0, 53, 95
4, 226560, Note_on_c, 0, 52, 95
4, 227520, Note_off_c, 0, 52, 95
4, 227520, Note_on_c, 0, 53, 95
4, 229440, Note_off_c, 0, 53, 95
4, 236640, Note_on_c, 0, 53, 95
4, 237120, Note_off_c, 0, 53, 95
4, 237120, Note_on_c, 0, 57, 95
4, 237600, Note_off_c, 0, 57, 95
4, 237600, Note_on_c, 0, 59, 95
4, 238560, Note_off_c, 0, 59, 95
4, 238560, Note_on_c, 0, 59, 95
4, 239760, Note_off_c, 0, 59, 95
4, 239760, Note_on_c, 0, 57, 95
4, 240000, Note_off_c, 0, 57, 95
4, 240000, Note_on_c, 0, 59, 95
4, 240480, Note_off_c, 0, 59, 95
4, 240480, Note_on_c, 0, 62, 95
4, 240960, Note_off_c, 0, 62, 95
4, 240960, Note_on_c, 0, 59, 95
4, 241200, Note_off_c, 0, 59, 95
4, 241200, Note_on_c, 0, 57, 95
4, 241440, Note_off_c, 0, 57, 95
4, 241440, Note_on_c, 0, 53, 95
4, 245760, Note_off_c, 0, 53, 95
4, 253440, Note_on_c, 0, 59, 95
4, 253920, Note_off_c, 0, 59, 95
4, 253920, Note_on_c, 0, 59, 95
4, 254400, Note_off_c, 0, 59, 95
4, 254400, Note_on_c, 0, 59, 95
4, 254880, Note_off_c, 0, 59, 95
4, 254880, Note_on_c, 0, 59, 95
4, 255360, Note_off_c, 0, 59, 95
4, 255360, Note_on_c, 0, 57, 95
4, 255840, Note_off_c, 0, 57, 95
4, 255840, Note_on_c, 0, 59, 95
4, 256320, Note_off_c, 0, 59, 95
4, 256320, Note_on_c, 0, 57, 95
4, 256800, Note_off_c, 0, 57, 95
4, 256800, Note_on_c, 0, 52, 95
4, 257760, Note_off_c, 0, 52, 95
4, 257760, Note_on_c, 0, 53, 95
4, 259200, Note_off_c, 0, 53, 95
4, 276480, Note_on_c, 0, 57, 95
4, 276960, Note_off_c, 0, 57, 95
4, 276960, Note_on_c, 0, 57, 95
4, 277440, Note_off_c, 0, 57, 95
4, 277440, Note_on_c, 0, 57, 95
4, 277920, Note_off_c, 0, 57, 95
4, 277920, Note_on_c, 0, 59, 95
4, 278400, Note_off_c, 0, 59, 95
4, 278400, Note_on_c, 0, 53, 95
4, 278880, Note_off_c, 0, 53, 95
4, 278880, Note_on_c, 0, 52, 95
4, 279360, Note_off_c, 0, 52, 95
4, 279360, Note_on_c, 0, 50, 95
4, 279840, Note_off_c, 0, 50, 95
4, 279840, Note_on_c, 0, 50, 95
4, 283200, Note_off_c, 0, 50, 95
4, 286080, Note_on_c, 0, 53, 95
4, 286560, Note_off_c, 0, 53, 95
4, 286560, Note_on_c, 0, 52, 95
4, 287040, Note_off_c, 0, 52, 95
4, 287040, Note_on_c, 0, 50, 95
4, 287520, Note_off_c, 0, 50, 95
4, 287520, Note_on_c, 0, 53, 95
4, 291840, Note_off_c, 0, 53, 95
4, 301440, Note_on_c, 0, 53, 95
4, 301920, Note_off_c, 0, 53, 95
4, 301920, Note_on_c, 0, 52, 95
4, 302400, Note_off_c, 0, 52, 95
4, 302400, Note_on_c, 0, 50, 95
4, 302880, Note_off_c, 0, 50, 95
4, 302880, Note_on_c, 0, 53, 95
4, 307200, Note_off_c, 0, 53, 95
4, 321600, Note_on_c, 0, 53, 95
4, 322080, Note_off_c, 0, 53, 95
4, 322080, Note_on_c, 0, 57, 95
4, 322560, Note_off_c, 0, 57, 95
4, 322560, Note_on_c, 0, 59, 95
4, 323040, Note_off_c, 0, 59, 95
4, 323040, Note_on_c, 0, 62, 95
4, 324000, Note_off_c, 0, 62, 95
4, 324000, Note_on_c, 0, 59, 95
4, 325440, Note_off_c, 0, 59, 95
4, 325440, Note_on_c, 0, 57, 95
4, 326400, Note_off_c, 0, 57, 95
4, 326400, Note_on_c, 0, 52, 95
4, 326880, Note_off_c, 0, 52, 95
4, 326880, Note_on_c, 0, 53, 95
4, 327360, Note_off_c, 0, 53, 95
4, 327360, Note_on_c, 0, 53, 95
4, 330240, Note_off_c, 0, 53, 95
4, 337440, Note_on_c, 0, 53, 95
4, 337920, Note_off_c, 0, 53, 95
4, 337920, Note_on_c, 0, 59, 95
4, 338880, Note_off_c, 0, 59, 95
4, 338880, Note_on_c, 0, 62, 95
4, 339840, Note_off_c, 0, 62, 95
4, 339840, Note_on_c, 0, 59, 95
4, 340800, Note_off_c, 0, 59, 95
4, 340800, Note_on_c, 0, 57, 95
4, 341760, Note_off_c, 0, 57, 95
4, 341760, Note_on_c, 0, 53, 95
4, 343680, Note_off_c, 0, 53, 95
4, 357120, Note_on_c, 0, 59, 95
4, 358080, Note_off_c, 0, 59, 95
4, 358080, Note_on_c, 0, 59, 95
4, 359040, Note_off_c, 0, 59, 95
4, 359040, Note_on_c, 0, 59, 95
4, 360000, Note_off_c, 0, 59, 95
4, 360000, Note_on_c, 0, 57, 95
4, 360480, Note_off_c, 0, 57, 95
4, 360480, Note_on_c, 0, 53, 95
4, 361920, Note_off_c, 0, 53, 95
4, 361920, Note_on_c, 0, 57, 95
4, 362880, Note_off_c, 0, 57, 95
4, 371040, Note_on_c, 0, 47, 95
4, 372000, Note_off_c, 0, 47, 95
4, 372000, Note_on_c, 0, 50, 95
4, 372480, Note_off_c, 0, 50, 95
4, 372480, Note_on_c, 0, 52, 95
4, 373440, Note_off_c, 0, 52, 95
4, 381600, Note_on_c, 0, 53, 95
4, 382080, Note_off_c, 0, 53, 95
4, 382080, Note_on_c, 0, 57, 95
4, 383040, Note_off_c, 0, 57, 95
4, 383040, Note_on_c, 0, 59, 95
4, 383520, Note_off_c, 0, 59, 95
4, 383520, Note_on_c, 0, 53, 95
4, 384240, Note_off_c, 0, 53, 95
4, 384240, Note_on_c, 0, 52, 95
4, 384480, Note_off_c, 0, 52, 95
4, 384480, Note_on_c, 0, 50, 95
4, 384960, Note_off_c, 0, 50, 95
4, 384960, End_track
0, 0, End_of_file
