0, 0, Header, 1, 18, 120
1, 0, Start_track
1, 0, Title_t, "Biaxident"
1, 0, Title_t, "Written by ""Liquid Tension Experiment 2"""
1, 0, Copyright_t, "Copyright © 2000 by Brad Woods"
1, 0, Text_t, "Transcribed by Brad Woods (with cakewalk and a mouse)"
1, 0, Text_t, "This is one of my favorite songs off of the CD ""Liquid Tension Experement"", which is 3/5 of my favorite band Dream Theater. I am actually a drummer, but I enjoy making midi files (origional and covers) also.  This one took me about a week and a half, at \012"
1, 0, Time_signature, 4, 2, 24, 8
1, 0, Key_signature, 0, "major"
1, 0, Tempo, 656096
1, 0, Marker_t, "piano intro"
1, 3360, Time_signature, 2, 2, 24, 8
1, 3600, Time_signature, 4, 2, 24, 8
1, 3600, Marker_t, "drums"
1, 7920, Marker_t, "Soft"
1, 12240, Time_signature, 7, 3, 12, 8
1, 12240, Marker_t, "7/8"
1, 13500, Time_signature, 4, 2, 24, 8
1, 13980, Time_signature, 7, 3, 12, 8
1, 15240, Time_signature, 4, 2, 24, 8
1, 15720, Marker_t, "Strings"
1, 19560, Tempo, 328048
1, 19560, Marker_t, "Fates Warning"
1, 20520, Time_signature, 5, 3, 12, 8
1, 20820, Time_signature, 4, 2, 24, 8
1, 21780, Time_signature, 7, 3, 12, 8
1, 22200, Time_signature, 4, 2, 24, 8
1, 23160, Time_signature, 5, 3, 12, 8
1, 23460, Time_signature, 4, 2, 24, 8
1, 24420, Time_signature, 3, 2, 24, 8
1, 25140, Marker_t, "riff"
1, 27660, Time_signature, 2, 2, 24, 8
1, 27900, Time_signature, 3, 2, 24, 8
1, 30060, Time_signature, 6, 2, 24, 8
1, 30060, Marker_t, "all in"
1, 32220, Time_signature, 5, 2, 24, 8
1, 32820, Time_signature, 6, 2, 24, 8
1, 34980, Time_signature, 5, 2, 24, 8
1, 35580, Time_signature, 3, 2, 24, 8
1, 35580, Marker_t, "riff"
1, 38100, Time_signature, 2, 2, 24, 8
1, 38340, Time_signature, 3, 2, 24, 8
1, 40500, Time_signature, 6, 2, 24, 8
1, 40500, Marker_t, "all in tight guitar"
1, 42660, Time_signature, 5, 2, 24, 8
1, 43260, Time_signature, 6, 2, 24, 8
1, 45420, Time_signature, 4, 2, 24, 8
1, 46380, Marker_t, "melody"
1, 54060, Tempo, 328048
1, 54060, Marker_t, "Fates Warning"
1, 55020, Time_signature, 5, 3, 12, 8
1, 55320, Time_signature, 4, 2, 24, 8
1, 56280, Time_signature, 7, 3, 12, 8
1, 56700, Time_signature, 4, 2, 24, 8
1, 57660, Time_signature, 5, 3, 12, 8
1, 57960, Time_signature, 4, 2, 24, 8
1, 58920, Time_signature, 3, 2, 24, 8
1, 59640, Marker_t, "jazz"
1, 65400, Marker_t, "unison"
1, 71880, Marker_t, "unison 2"
1, 72240, Time_signature, 4, 2, 24, 8
1, 72720, Time_signature, 9, 3, 12, 8
1, 73260, Time_signature, 2, 2, 24, 8
1, 73500, Time_signature, 3, 2, 24, 8
1, 73500, Marker_t, "Jazz piano"
1, 80340, Time_signature, 4, 2, 24, 8
1, 80820, Time_signature, 3, 2, 24, 8
1, 80820, Marker_t, "More jazz piano"
1, 86220, Marker_t, "off beat unison"
1, 87300, Time_signature, 4, 2, 24, 8
1, 87780, Time_signature, 3, 2, 24, 8
1, 88860, Time_signature, 6, 2, 24, 8
1, 88860, Marker_t, "riff all"
1, 91020, Time_signature, 5, 2, 24, 8
1, 91620, Time_signature, 6, 2, 24, 8
1, 93780, Marker_t, "all in tight guitar"
1, 95940, Time_signature, 5, 2, 24, 8
1, 96540, Time_signature, 6, 2, 24, 8
1, 98700, Time_signature, 4, 2, 24, 8
1, 99180, Marker_t, "backing off"
1, 106860, Time_signature, 7, 2, 24, 8
1, 106860, Marker_t, "off beat chinese"
1, 109380, Time_signature, 4, 2, 24, 8
1, 110340, Time_signature, 7, 2, 24, 8
1, 112860, Time_signature, 4, 2, 24, 8
1, 113820, Marker_t, "floating"
1, 121500, Marker_t, "ride melody"
1, 129180, Time_signature, 6, 2, 24, 8
1, 129180, Marker_t, "6"
1, 140700, Time_signature, 7, 2, 24, 8
1, 141540, Time_signature, 6, 2, 24, 8
1, 141540, Marker_t, "outro"
1, 141540, End_track
2, 0, Start_track
2, 0, MIDI_port, 0
2, 0, Title_t, """Biaxedent"""
2, 0, End_track
3, 0, Start_track
3, 0, MIDI_port, 0
3, 0, Title_t, "by Liquid Tension Experiment 2"
3, 0, End_track
4, 0, Start_track
4, 0, MIDI_port, 0
4, 0, Title_t, "author: Brad Woods (Jellybred5@aol.com)"
4, 0, End_track
5, 0, Start_track
5, 0, MIDI_port, 0
5, 0, Title_t, "Guitar Dis"
5, 0, Program_c, 2, 30
5, 3600, Note_on_c, 2, 57, 80
5, 3600, Note_on_c, 2, 62, 80
5, 3600, Note_on_c, 2, 50, 80
5, 4080, Note_on_c, 2, 50, 0
5, 4080, Note_on_c, 2, 62, 0
5, 4080, Note_on_c, 2, 57, 0
5, 4080, Note_on_c, 2, 57, 80
5, 4080, Note_on_c, 2, 52, 80
5, 4080, Note_on_c, 2, 45, 80
5, 4560, Note_on_c, 2, 45, 0
5, 4560, Note_on_c, 2, 52, 0
5, 4560, Note_on_c, 2, 57, 0
5, 4560, Note_on_c, 2, 45, 80
5, 4560, Note_on_c, 2, 62, 80
5, 4560, Note_on_c, 2, 57, 80
5, 4560, Note_on_c, 2, 50, 80
5, 4800, Note_on_c, 2, 50, 0
5, 4800, Note_on_c, 2, 45, 0
5, 4800, Note_on_c, 2, 62, 0
5, 4800, Note_on_c, 2, 57, 0
5, 4800, Note_on_c, 2, 67, 80
5, 4800, Note_on_c, 2, 62, 80
5, 4800, Note_on_c, 2, 43, 80
5, 4800, Note_on_c, 2, 55, 80
5, 4800, Note_on_c, 2, 50, 80
5, 5040, Note_on_c, 2, 50, 0
5, 5040, Note_on_c, 2, 43, 0
5, 5040, Note_on_c, 2, 67, 0
5, 5040, Note_on_c, 2, 62, 0
5, 5040, Note_on_c, 2, 55, 0
5, 5040, Note_on_c, 2, 67, 80
5, 5040, Note_on_c, 2, 62, 80
5, 5040, Note_on_c, 2, 60, 80
5, 5040, Note_on_c, 2, 55, 80
5, 5040, Note_on_c, 2, 43, 80
5, 5040, Note_on_c, 2, 48, 80
5, 5520, Note_on_c, 2, 48, 0
5, 5520, Note_on_c, 2, 62, 0
5, 5520, Note_on_c, 2, 60, 0
5, 5520, Note_on_c, 2, 67, 0
5, 5520, Note_on_c, 2, 43, 0
5, 5520, Note_on_c, 2, 55, 0
5, 5520, Note_on_c, 2, 57, 80
5, 5520, Note_on_c, 2, 62, 80
5, 5520, Note_on_c, 2, 50, 80
5, 6000, Note_on_c, 2, 50, 0
5, 6000, Note_on_c, 2, 62, 0
5, 6000, Note_on_c, 2, 57, 0
5, 6000, Note_on_c, 2, 57, 80
5, 6000, Note_on_c, 2, 52, 80
5, 6000, Note_on_c, 2, 45, 80
5, 6480, Note_on_c, 2, 45, 0
5, 6480, Note_on_c, 2, 52, 0
5, 6480, Note_on_c, 2, 57, 0
5, 6480, Note_on_c, 2, 45, 80
5, 6480, Note_on_c, 2, 62, 80
5, 6480, Note_on_c, 2, 57, 80
5, 6480, Note_on_c, 2, 50, 80
5, 6720, Note_on_c, 2, 50, 0
5, 6720, Note_on_c, 2, 45, 0
5, 6720, Note_on_c, 2, 62, 0
5, 6720, Note_on_c, 2, 57, 0
5, 6720, Note_on_c, 2, 67, 80
5, 6720, Note_on_c, 2, 62, 80
5, 6720, Note_on_c, 2, 43, 80
5, 6720, Note_on_c, 2, 55, 80
5, 6720, Note_on_c, 2, 50, 80
5, 6960, Note_on_c, 2, 50, 0
5, 6960, Note_on_c, 2, 43, 0
5, 6960, Note_on_c, 2, 67, 0
5, 6960, Note_on_c, 2, 62, 0
5, 6960, Note_on_c, 2, 55, 0
5, 6960, Note_on_c, 2, 67, 80
5, 6960, Note_on_c, 2, 62, 80
5, 6960, Note_on_c, 2, 60, 80
5, 6960, Note_on_c, 2, 55, 80
5, 6960, Note_on_c, 2, 43, 80
5, 6960, Note_on_c, 2, 48, 80
5, 7920, Note_on_c, 2, 48, 0
5, 7920, Note_on_c, 2, 62, 0
5, 7920, Note_on_c, 2, 60, 0
5, 7920, Note_on_c, 2, 67, 0
5, 7920, Note_on_c, 2, 43, 0
5, 7920, Note_on_c, 2, 55, 0
5, 19620, Note_on_c, 2, 52, 100
5, 19740, Note_on_c, 2, 52, 0
5, 19740, Note_on_c, 2, 53, 100
5, 19830, Note_on_c, 2, 53, 0
5, 19860, Note_on_c, 2, 50, 100
5, 19935, Note_on_c, 2, 50, 0
5, 19980, Note_on_c, 2, 52, 100
5, 20160, Note_on_c, 2, 52, 0
5, 20160, Note_on_c, 2, 47, 100
5, 20161, Pitch_bend_c, 2, 0
5, 20162, Pitch_bend_c, 2, 128
5, 20163, Pitch_bend_c, 2, 256
5, 20164, Pitch_bend_c, 2, 512
5, 20166, Pitch_bend_c, 2, 640
5, 20167, Pitch_bend_c, 2, 896
5, 20168, Pitch_bend_c, 2, 1024
5, 20169, Pitch_bend_c, 2, 1280
5, 20170, Pitch_bend_c, 2, 1408
5, 20172, Pitch_bend_c, 2, 1664
5, 20173, Pitch_bend_c, 2, 1792
5, 20174, Pitch_bend_c, 2, 2048
5, 20175, Pitch_bend_c, 2, 2176
5, 20176, Pitch_bend_c, 2, 2432
5, 20178, Pitch_bend_c, 2, 2560
5, 20179, Pitch_bend_c, 2, 2816
5, 20180, Pitch_bend_c, 2, 2944
5, 20181, Pitch_bend_c, 2, 3200
5, 20182, Pitch_bend_c, 2, 3328
5, 20184, Pitch_bend_c, 2, 3584
5, 20185, Pitch_bend_c, 2, 3712
5, 20186, Pitch_bend_c, 2, 3968
5, 20187, Pitch_bend_c, 2, 4096
5, 20188, Pitch_bend_c, 2, 4352
5, 20190, Pitch_bend_c, 2, 4480
5, 20191, Pitch_bend_c, 2, 4736
5, 20192, Pitch_bend_c, 2, 4864
5, 20193, Pitch_bend_c, 2, 5120
5, 20194, Pitch_bend_c, 2, 5248
5, 20196, Pitch_bend_c, 2, 5504
5, 20197, Pitch_bend_c, 2, 5632
5, 20198, Pitch_bend_c, 2, 5888
5, 20199, Pitch_bend_c, 2, 6016
5, 20200, Pitch_bend_c, 2, 6272
5, 20202, Pitch_bend_c, 2, 6400
5, 20203, Pitch_bend_c, 2, 6656
5, 20204, Pitch_bend_c, 2, 6784
5, 20205, Pitch_bend_c, 2, 7040
5, 20206, Pitch_bend_c, 2, 7168
5, 20208, Pitch_bend_c, 2, 7424
5, 20209, Pitch_bend_c, 2, 7552
5, 20210, Pitch_bend_c, 2, 7808
5, 20211, Pitch_bend_c, 2, 7936
5, 20212, Pitch_bend_c, 2, 8192
5, 20340, Note_on_c, 2, 47, 0
5, 20340, Note_on_c, 2, 50, 100
5, 20520, Note_on_c, 2, 50, 0
5, 20520, Note_on_c, 2, 52, 100
5, 20610, Note_on_c, 2, 52, 0
5, 20640, Note_on_c, 2, 53, 100
5, 20700, Note_on_c, 2, 53, 0
5, 20700, Note_on_c, 2, 52, 100
5, 20850, Note_on_c, 2, 52, 0
5, 20880, Note_on_c, 2, 52, 100
5, 21000, Note_on_c, 2, 52, 0
5, 21000, Note_on_c, 2, 53, 100
5, 21090, Note_on_c, 2, 53, 0
5, 21120, Note_on_c, 2, 50, 100
5, 21195, Note_on_c, 2, 50, 0
5, 21240, Note_on_c, 2, 52, 100
5, 21420, Note_on_c, 2, 52, 0
5, 21420, Pitch_bend_c, 2, 0
5, 21420, Note_on_c, 2, 47, 100
5, 21421, Pitch_bend_c, 2, 0
5, 21422, Pitch_bend_c, 2, 128
5, 21423, Pitch_bend_c, 2, 384
5, 21424, Pitch_bend_c, 2, 512
5, 21426, Pitch_bend_c, 2, 768
5, 21427, Pitch_bend_c, 2, 896
5, 21428, Pitch_bend_c, 2, 1152
5, 21429, Pitch_bend_c, 2, 1280
5, 21430, Pitch_bend_c, 2, 1536
5, 21432, Pitch_bend_c, 2, 1664
5, 21433, Pitch_bend_c, 2, 1920
5, 21434, Pitch_bend_c, 2, 2048
5, 21435, Pitch_bend_c, 2, 2304
5, 21436, Pitch_bend_c, 2, 2432
5, 21438, Pitch_bend_c, 2, 2688
5, 21439, Pitch_bend_c, 2, 2816
5, 21440, Pitch_bend_c, 2, 3072
5, 21441, Pitch_bend_c, 2, 3200
5, 21442, Pitch_bend_c, 2, 3456
5, 21444, Pitch_bend_c, 2, 3584
5, 21445, Pitch_bend_c, 2, 3840
5, 21446, Pitch_bend_c, 2, 3968
5, 21447, Pitch_bend_c, 2, 4096
5, 21448, Pitch_bend_c, 2, 4352
5, 21450, Pitch_bend_c, 2, 4480
5, 21451, Pitch_bend_c, 2, 4736
5, 21452, Pitch_bend_c, 2, 4864
5, 21453, Pitch_bend_c, 2, 5120
5, 21454, Pitch_bend_c, 2, 5248
5, 21456, Pitch_bend_c, 2, 5504
5, 21457, Pitch_bend_c, 2, 5632
5, 21458, Pitch_bend_c, 2, 5888
5, 21459, Pitch_bend_c, 2, 6016
5, 21460, Pitch_bend_c, 2, 6272
5, 21462, Pitch_bend_c, 2, 6400
5, 21463, Pitch_bend_c, 2, 6656
5, 21464, Pitch_bend_c, 2, 6784
5, 21465, Pitch_bend_c, 2, 7040
5, 21466, Pitch_bend_c, 2, 7168
5, 21468, Pitch_bend_c, 2, 7424
5, 21469, Pitch_bend_c, 2, 7552
5, 21470, Pitch_bend_c, 2, 7808
5, 21471, Pitch_bend_c, 2, 7936
5, 21472, Pitch_bend_c, 2, 8192
5, 21600, Note_on_c, 2, 47, 0
5, 21600, Note_on_c, 2, 50, 100
5, 21780, Note_on_c, 2, 50, 0
5, 21780, Note_on_c, 2, 45, 100
5, 21840, Note_on_c, 2, 45, 0
5, 21840, Note_on_c, 2, 44, 100
5, 21900, Note_on_c, 2, 44, 0
5, 21900, Note_on_c, 2, 45, 100
5, 21960, Note_on_c, 2, 45, 0
5, 21960, Note_on_c, 2, 47, 100
5, 22020, Note_on_c, 2, 47, 0
5, 22020, Note_on_c, 2, 45, 100
5, 22080, Note_on_c, 2, 45, 0
5, 22080, Note_on_c, 2, 44, 100
5, 22140, Note_on_c, 2, 44, 0
5, 22140, Note_on_c, 2, 50, 100
5, 22200, Note_on_c, 2, 50, 0
5, 22200, Note_on_c, 2, 52, 100
5, 22245, Note_on_c, 2, 52, 0
5, 22260, Note_on_c, 2, 52, 100
5, 22380, Note_on_c, 2, 52, 0
5, 22380, Note_on_c, 2, 53, 100
5, 22470, Note_on_c, 2, 53, 0
5, 22500, Note_on_c, 2, 50, 100
5, 22575, Note_on_c, 2, 50, 0
5, 22620, Note_on_c, 2, 52, 100
5, 22800, Note_on_c, 2, 52, 0
5, 22800, Pitch_bend_c, 2, 0
5, 22800, Note_on_c, 2, 47, 100
5, 22801, Pitch_bend_c, 2, 0
5, 22802, Pitch_bend_c, 2, 128
5, 22803, Pitch_bend_c, 2, 384
5, 22804, Pitch_bend_c, 2, 512
5, 22806, Pitch_bend_c, 2, 768
5, 22807, Pitch_bend_c, 2, 896
5, 22808, Pitch_bend_c, 2, 1152
5, 22809, Pitch_bend_c, 2, 1280
5, 22810, Pitch_bend_c, 2, 1536
5, 22812, Pitch_bend_c, 2, 1664
5, 22813, Pitch_bend_c, 2, 1792
5, 22814, Pitch_bend_c, 2, 2048
5, 22815, Pitch_bend_c, 2, 2176
5, 22816, Pitch_bend_c, 2, 2432
5, 22818, Pitch_bend_c, 2, 2560
5, 22819, Pitch_bend_c, 2, 2816
5, 22820, Pitch_bend_c, 2, 2944
5, 22821, Pitch_bend_c, 2, 3200
5, 22822, Pitch_bend_c, 2, 3328
5, 22824, Pitch_bend_c, 2, 3456
5, 22825, Pitch_bend_c, 2, 3712
5, 22826, Pitch_bend_c, 2, 3840
5, 22827, Pitch_bend_c, 2, 4096
5, 22828, Pitch_bend_c, 2, 4224
5, 22830, Pitch_bend_c, 2, 4480
5, 22831, Pitch_bend_c, 2, 4608
5, 22832, Pitch_bend_c, 2, 4864
5, 22833, Pitch_bend_c, 2, 4992
5, 22834, Pitch_bend_c, 2, 5120
5, 22836, Pitch_bend_c, 2, 5376
5, 22837, Pitch_bend_c, 2, 5504
5, 22838, Pitch_bend_c, 2, 5760
5, 22839, Pitch_bend_c, 2, 5888
5, 22840, Pitch_bend_c, 2, 6144
5, 22842, Pitch_bend_c, 2, 6272
5, 22843, Pitch_bend_c, 2, 6528
5, 22844, Pitch_bend_c, 2, 6656
5, 22845, Pitch_bend_c, 2, 6784
5, 22846, Pitch_bend_c, 2, 7040
5, 22848, Pitch_bend_c, 2, 7168
5, 22849, Pitch_bend_c, 2, 7424
5, 22850, Pitch_bend_c, 2, 7552
5, 22851, Pitch_bend_c, 2, 7808
5, 22852, Pitch_bend_c, 2, 7936
5, 22854, Pitch_bend_c, 2, 8192
5, 22980, Note_on_c, 2, 47, 0
5, 22980, Note_on_c, 2, 50, 100
5, 23160, Note_on_c, 2, 50, 0
5, 23160, Note_on_c, 2, 52, 100
5, 23250, Note_on_c, 2, 52, 0
5, 23280, Note_on_c, 2, 53, 100
5, 23340, Note_on_c, 2, 53, 0
5, 23340, Note_on_c, 2, 52, 100
5, 23490, Note_on_c, 2, 52, 0
5, 23520, Note_on_c, 2, 52, 100
5, 23640, Note_on_c, 2, 52, 0
5, 23640, Note_on_c, 2, 53, 100
5, 23730, Note_on_c, 2, 53, 0
5, 23760, Note_on_c, 2, 50, 100
5, 23835, Note_on_c, 2, 50, 0
5, 23880, Note_on_c, 2, 52, 100
5, 24060, Note_on_c, 2, 52, 0
5, 24060, Note_on_c, 2, 47, 100
5, 24061, Pitch_bend_c, 2, 0
5, 24062, Pitch_bend_c, 2, 0
5, 24063, Pitch_bend_c, 2, 256
5, 24064, Pitch_bend_c, 2, 384
5, 24066, Pitch_bend_c, 2, 640
5, 24067, Pitch_bend_c, 2, 896
5, 24068, Pitch_bend_c, 2, 1024
5, 24069, Pitch_bend_c, 2, 1280
5, 24070, Pitch_bend_c, 2, 1536
5, 24072, Pitch_bend_c, 2, 1664
5, 24073, Pitch_bend_c, 2, 1920
5, 24074, Pitch_bend_c, 2, 2048
5, 24075, Pitch_bend_c, 2, 2304
5, 24076, Pitch_bend_c, 2, 2560
5, 24078, Pitch_bend_c, 2, 2688
5, 24079, Pitch_bend_c, 2, 2944
5, 24080, Pitch_bend_c, 2, 3200
5, 24081, Pitch_bend_c, 2, 3328
5, 24082, Pitch_bend_c, 2, 3584
5, 24084, Pitch_bend_c, 2, 3712
5, 24085, Pitch_bend_c, 2, 3968
5, 24086, Pitch_bend_c, 2, 4224
5, 24087, Pitch_bend_c, 2, 4352
5, 24088, Pitch_bend_c, 2, 4608
5, 24090, Pitch_bend_c, 2, 4864
5, 24091, Pitch_bend_c, 2, 4992
5, 24092, Pitch_bend_c, 2, 5248
5, 24093, Pitch_bend_c, 2, 5376
5, 24094, Pitch_bend_c, 2, 5632
5, 24096, Pitch_bend_c, 2, 5888
5, 24097, Pitch_bend_c, 2, 6016
5, 24098, Pitch_bend_c, 2, 6272
5, 24099, Pitch_bend_c, 2, 6528
5, 24100, Pitch_bend_c, 2, 6656
5, 24102, Pitch_bend_c, 2, 6912
5, 24103, Pitch_bend_c, 2, 7040
5, 24104, Pitch_bend_c, 2, 7296
5, 24105, Pitch_bend_c, 2, 7552
5, 24106, Pitch_bend_c, 2, 7680
5, 24108, Pitch_bend_c, 2, 7936
5, 24109, Pitch_bend_c, 2, 8192
5, 24240, Note_on_c, 2, 47, 0
5, 24240, Note_on_c, 2, 50, 100
5, 24420, Note_on_c, 2, 50, 0
5, 24480, Note_on_c, 2, 44, 100
5, 24560, Note_on_c, 2, 44, 0
5, 24600, Note_on_c, 2, 45, 100
5, 24660, Note_on_c, 2, 45, 0
5, 24660, Note_on_c, 2, 47, 100
5, 24780, Note_on_c, 2, 47, 0
5, 24840, Note_on_c, 2, 48, 100
5, 24920, Note_on_c, 2, 48, 0
5, 24960, Note_on_c, 2, 50, 100
5, 25020, Note_on_c, 2, 50, 0
5, 25020, Note_on_c, 2, 52, 100
5, 25140, Note_on_c, 2, 52, 0
5, 25200, Note_on_c, 2, 68, 115
5, 25260, Note_on_c, 2, 68, 0
5, 25320, Note_on_c, 2, 68, 115
5, 25440, Note_on_c, 2, 68, 0
5, 25440, Note_on_c, 2, 69, 115
5, 25500, Note_on_c, 2, 69, 0
5, 25500, Note_on_c, 2, 71, 115
5, 25590, Pitch_bend_c, 2, 8064
5, 25591, Pitch_bend_c, 2, 7680
5, 25592, Pitch_bend_c, 2, 7808
5, 25593, Pitch_bend_c, 2, 7936
5, 25594, Pitch_bend_c, 2, 8064
5, 25598, Pitch_bend_c, 2, 8192
5, 25599, Pitch_bend_c, 2, 8320
5, 25602, Pitch_bend_c, 2, 8448
5, 25609, Pitch_bend_c, 2, 8576
5, 25618, Pitch_bend_c, 2, 8192
5, 25623, Pitch_bend_c, 2, 7936
5, 25627, Pitch_bend_c, 2, 7680
5, 25628, Pitch_bend_c, 2, 7552
5, 25635, Pitch_bend_c, 2, 7296
5, 25648, Pitch_bend_c, 2, 7424
5, 25652, Pitch_bend_c, 2, 7680
5, 25656, Pitch_bend_c, 2, 7808
5, 25657, Pitch_bend_c, 2, 7936
5, 25658, Pitch_bend_c, 2, 8064
5, 25662, Pitch_bend_c, 2, 8192
5, 25665, Pitch_bend_c, 2, 8448
5, 25672, Pitch_bend_c, 2, 8576
5, 25681, Pitch_bend_c, 2, 8704
5, 25698, Pitch_bend_c, 2, 8448
5, 25700, Pitch_bend_c, 2, 8192
5, 25704, Pitch_bend_c, 2, 8064
5, 25707, Pitch_bend_c, 2, 7808
5, 25732, Pitch_bend_c, 2, 8064
5, 25736, Pitch_bend_c, 2, 8192
5, 25738, Pitch_bend_c, 2, 8448
5, 25740, Pitch_bend_c, 2, 8576
5, 25741, Pitch_bend_c, 2, 8704
5, 25746, Pitch_bend_c, 2, 8832
5, 25758, Pitch_bend_c, 2, 8704
5, 25762, Pitch_bend_c, 2, 8576
5, 25764, Pitch_bend_c, 2, 8448
5, 25766, Pitch_bend_c, 2, 8320
5, 25767, Pitch_bend_c, 2, 8192
5, 25795, Note_on_c, 2, 71, 0
5, 25800, Note_on_c, 2, 74, 115
5, 25830, Note_on_c, 2, 74, 0
5, 25830, Note_on_c, 2, 76, 115
5, 25860, Note_on_c, 2, 76, 0
5, 25860, Note_on_c, 2, 74, 115
5, 25980, Note_on_c, 2, 74, 0
5, 25980, Note_on_c, 2, 71, 115
5, 26040, Note_on_c, 2, 71, 0
5, 26040, Note_on_c, 2, 67, 115
5, 26160, Note_on_c, 2, 67, 0
5, 26160, Note_on_c, 2, 71, 115
5, 26220, Note_on_c, 2, 71, 0
5, 26220, Note_on_c, 2, 69, 115
5, 26239, Note_on_c, 2, 69, 0
5, 26239, Note_on_c, 2, 71, 115
5, 26269, Note_on_c, 2, 69, 115
5, 26272, Note_on_c, 2, 71, 0
5, 26340, Note_on_c, 2, 69, 0
5, 26340, Note_on_c, 2, 66, 115
5, 26400, Note_on_c, 2, 66, 0
5, 26400, Note_on_c, 2, 62, 115
5, 26402, Pitch_bend_c, 2, 8064
5, 26403, Pitch_bend_c, 2, 8320
5, 26406, Pitch_bend_c, 2, 8448
5, 26407, Pitch_bend_c, 2, 8576
5, 26408, Pitch_bend_c, 2, 8704
5, 26409, Pitch_bend_c, 2, 8832
5, 26419, Pitch_bend_c, 2, 8704
5, 26420, Pitch_bend_c, 2, 8576
5, 26422, Pitch_bend_c, 2, 8448
5, 26426, Pitch_bend_c, 2, 8192
5, 26427, Pitch_bend_c, 2, 8064
5, 26444, Pitch_bend_c, 2, 8192
5, 26445, Pitch_bend_c, 2, 8320
5, 26446, Pitch_bend_c, 2, 8448
5, 26449, Pitch_bend_c, 2, 8576
5, 26451, Pitch_bend_c, 2, 8704
5, 26454, Pitch_bend_c, 2, 8832
5, 26461, Pitch_bend_c, 2, 8704
5, 26464, Pitch_bend_c, 2, 8576
5, 26467, Pitch_bend_c, 2, 8448
5, 26468, Pitch_bend_c, 2, 8320
5, 26470, Pitch_bend_c, 2, 8192
5, 26472, Pitch_bend_c, 2, 8064
5, 26474, Pitch_bend_c, 2, 7936
5, 26475, Pitch_bend_c, 2, 7808
5, 26486, Pitch_bend_c, 2, 7936
5, 26487, Pitch_bend_c, 2, 8064
5, 26490, Pitch_bend_c, 2, 8192
5, 26493, Pitch_bend_c, 2, 8320
5, 26496, Pitch_bend_c, 2, 8448
5, 26497, Pitch_bend_c, 2, 8576
5, 26499, Pitch_bend_c, 2, 8704
5, 26500, Pitch_bend_c, 2, 8832
5, 26502, Pitch_bend_c, 2, 8960
5, 26520, Pitch_bend_c, 2, 8704
5, 26522, Pitch_bend_c, 2, 8576
5, 26524, Pitch_bend_c, 2, 8448
5, 26527, Pitch_bend_c, 2, 8320
5, 26529, Pitch_bend_c, 2, 8192
5, 26530, Pitch_bend_c, 2, 8064
5, 26534, Pitch_bend_c, 2, 7936
5, 26538, Pitch_bend_c, 2, 7808
5, 26547, Pitch_bend_c, 2, 7936
5, 26548, Pitch_bend_c, 2, 8064
5, 26550, Pitch_bend_c, 2, 8192
5, 26551, Pitch_bend_c, 2, 8320
5, 26553, Pitch_bend_c, 2, 8448
5, 26556, Pitch_bend_c, 2, 8576
5, 26559, Pitch_bend_c, 2, 8704
5, 26562, Pitch_bend_c, 2, 8832
5, 26569, Pitch_bend_c, 2, 8704
5, 26570, Pitch_bend_c, 2, 8576
5, 26572, Pitch_bend_c, 2, 8448
5, 26574, Pitch_bend_c, 2, 8320
5, 26575, Pitch_bend_c, 2, 8192
5, 26577, Pitch_bend_c, 2, 8064
5, 26578, Pitch_bend_c, 2, 8192
5, 26580, Note_on_c, 2, 62, 0
5, 26640, Note_on_c, 2, 68, 115
5, 26700, Note_on_c, 2, 68, 0
5, 26760, Note_on_c, 2, 68, 115
5, 26880, Note_on_c, 2, 68, 0
5, 26880, Note_on_c, 2, 69, 115
5, 26940, Note_on_c, 2, 69, 0
5, 26940, Note_on_c, 2, 71, 115
5, 27030, Pitch_bend_c, 2, 8064
5, 27031, Pitch_bend_c, 2, 7680
5, 27032, Pitch_bend_c, 2, 7808
5, 27033, Pitch_bend_c, 2, 7936
5, 27034, Pitch_bend_c, 2, 8064
5, 27038, Pitch_bend_c, 2, 8192
5, 27039, Pitch_bend_c, 2, 8320
5, 27042, Pitch_bend_c, 2, 8448
5, 27049, Pitch_bend_c, 2, 8576
5, 27058, Pitch_bend_c, 2, 8192
5, 27063, Pitch_bend_c, 2, 7936
5, 27067, Pitch_bend_c, 2, 7680
5, 27068, Pitch_bend_c, 2, 7552
5, 27075, Pitch_bend_c, 2, 7296
5, 27088, Pitch_bend_c, 2, 7424
5, 27092, Pitch_bend_c, 2, 7680
5, 27096, Pitch_bend_c, 2, 7808
5, 27097, Pitch_bend_c, 2, 7936
5, 27098, Pitch_bend_c, 2, 8064
5, 27102, Pitch_bend_c, 2, 8192
5, 27105, Pitch_bend_c, 2, 8448
5, 27112, Pitch_bend_c, 2, 8576
5, 27121, Pitch_bend_c, 2, 8704
5, 27138, Pitch_bend_c, 2, 8448
5, 27140, Pitch_bend_c, 2, 8192
5, 27144, Pitch_bend_c, 2, 8064
5, 27147, Pitch_bend_c, 2, 7808
5, 27172, Pitch_bend_c, 2, 8064
5, 27176, Pitch_bend_c, 2, 8192
5, 27178, Pitch_bend_c, 2, 8448
5, 27180, Pitch_bend_c, 2, 8576
5, 27181, Pitch_bend_c, 2, 8704
5, 27186, Pitch_bend_c, 2, 8832
5, 27198, Pitch_bend_c, 2, 8704
5, 27202, Pitch_bend_c, 2, 8576
5, 27204, Pitch_bend_c, 2, 8448
5, 27206, Pitch_bend_c, 2, 8320
5, 27207, Pitch_bend_c, 2, 8192
5, 27235, Note_on_c, 2, 71, 0
5, 27240, Note_on_c, 2, 74, 115
5, 27270, Note_on_c, 2, 74, 0
5, 27270, Note_on_c, 2, 76, 115
5, 27300, Note_on_c, 2, 76, 0
5, 27300, Note_on_c, 2, 74, 115
5, 27420, Note_on_c, 2, 74, 0
5, 27420, Note_on_c, 2, 71, 115
5, 27480, Note_on_c, 2, 71, 0
5, 27480, Note_on_c, 2, 67, 115
5, 27540, Note_on_c, 2, 67, 0
5, 27540, Note_on_c, 2, 71, 115
5, 27600, Note_on_c, 2, 71, 0
5, 27600, Note_on_c, 2, 69, 115
5, 27633, Pitch_bend_c, 2, 8064
5, 27634, Pitch_bend_c, 2, 8192
5, 27637, Pitch_bend_c, 2, 8320
5, 27638, Pitch_bend_c, 2, 8448
5, 27643, Pitch_bend_c, 2, 8576
5, 27660, Pitch_bend_c, 2, 8320
5, 27664, Pitch_bend_c, 2, 8192
5, 27668, Pitch_bend_c, 2, 8064
5, 27698, Pitch_bend_c, 2, 8192
5, 27700, Pitch_bend_c, 2, 8320
5, 27702, Pitch_bend_c, 2, 8448
5, 27704, Pitch_bend_c, 2, 8576
5, 27706, Pitch_bend_c, 2, 8704
5, 27720, Pitch_bend_c, 2, 8576
5, 27724, Pitch_bend_c, 2, 8448
5, 27727, Pitch_bend_c, 2, 8320
5, 27729, Pitch_bend_c, 2, 8192
5, 27730, Pitch_bend_c, 2, 8064
5, 27734, Pitch_bend_c, 2, 7936
5, 27736, Pitch_bend_c, 2, 7808
5, 27748, Pitch_bend_c, 2, 7936
5, 27752, Pitch_bend_c, 2, 8064
5, 27756, Pitch_bend_c, 2, 8192
5, 27762, Pitch_bend_c, 2, 8320
5, 27763, Pitch_bend_c, 2, 8448
5, 27766, Pitch_bend_c, 2, 8576
5, 27770, Pitch_bend_c, 2, 8704
5, 27788, Pitch_bend_c, 2, 8576
5, 27793, Pitch_bend_c, 2, 8320
5, 27796, Pitch_bend_c, 2, 8192
5, 27800, Pitch_bend_c, 2, 8064
5, 27801, Pitch_bend_c, 2, 7936
5, 27818, Pitch_bend_c, 2, 8064
5, 27823, Pitch_bend_c, 2, 8192
5, 27826, Pitch_bend_c, 2, 8320
5, 27835, Pitch_bend_c, 2, 8448
5, 27840, Pitch_bend_c, 2, 8576
5, 27843, Pitch_bend_c, 2, 8704
5, 27852, Pitch_bend_c, 2, 8576
5, 27853, Pitch_bend_c, 2, 8448
5, 27855, Pitch_bend_c, 2, 8320
5, 27859, Pitch_bend_c, 2, 8192
5, 27861, Pitch_bend_c, 2, 8064
5, 27864, Pitch_bend_c, 2, 7936
5, 27866, Pitch_bend_c, 2, 7808
5, 27886, Pitch_bend_c, 2, 7936
5, 27889, Pitch_bend_c, 2, 8064
5, 27892, Pitch_bend_c, 2, 8192
5, 27897, Pitch_bend_c, 2, 8320
5, 27900, Note_on_c, 2, 69, 0
5, 27900, Pitch_bend_c, 2, 8192
5, 27960, Note_on_c, 2, 68, 115
5, 28020, Note_on_c, 2, 68, 0
5, 28080, Note_on_c, 2, 68, 115
5, 28200, Note_on_c, 2, 68, 0
5, 28200, Note_on_c, 2, 69, 115
5, 28260, Note_on_c, 2, 69, 0
5, 28260, Note_on_c, 2, 71, 115
5, 28350, Pitch_bend_c, 2, 8064
5, 28351, Pitch_bend_c, 2, 7680
5, 28352, Pitch_bend_c, 2, 7808
5, 28353, Pitch_bend_c, 2, 7936
5, 28354, Pitch_bend_c, 2, 8064
5, 28358, Pitch_bend_c, 2, 8192
5, 28359, Pitch_bend_c, 2, 8320
5, 28362, Pitch_bend_c, 2, 8448
5, 28369, Pitch_bend_c, 2, 8576
5, 28378, Pitch_bend_c, 2, 8192
5, 28383, Pitch_bend_c, 2, 7936
5, 28387, Pitch_bend_c, 2, 7680
5, 28388, Pitch_bend_c, 2, 7552
5, 28395, Pitch_bend_c, 2, 7296
5, 28408, Pitch_bend_c, 2, 7424
5, 28412, Pitch_bend_c, 2, 7680
5, 28416, Pitch_bend_c, 2, 7808
5, 28417, Pitch_bend_c, 2, 7936
5, 28418, Pitch_bend_c, 2, 8064
5, 28422, Pitch_bend_c, 2, 8192
5, 28425, Pitch_bend_c, 2, 8448
5, 28432, Pitch_bend_c, 2, 8576
5, 28441, Pitch_bend_c, 2, 8704
5, 28458, Pitch_bend_c, 2, 8448
5, 28460, Pitch_bend_c, 2, 8192
5, 28464, Pitch_bend_c, 2, 8064
5, 28467, Pitch_bend_c, 2, 7808
5, 28492, Pitch_bend_c, 2, 8064
5, 28496, Pitch_bend_c, 2, 8192
5, 28498, Pitch_bend_c, 2, 8448
5, 28500, Pitch_bend_c, 2, 8576
5, 28501, Pitch_bend_c, 2, 8704
5, 28506, Pitch_bend_c, 2, 8832
5, 28518, Pitch_bend_c, 2, 8704
5, 28522, Pitch_bend_c, 2, 8576
5, 28524, Pitch_bend_c, 2, 8448
5, 28526, Pitch_bend_c, 2, 8320
5, 28527, Pitch_bend_c, 2, 8192
5, 28530, Note_on_c, 2, 71, 0
5, 28537, Note_on_c, 2, 74, 115
5, 28560, Note_on_c, 2, 74, 0
5, 28560, Note_on_c, 2, 76, 115
5, 28620, Note_on_c, 2, 76, 0
5, 28620, Note_on_c, 2, 79, 115
5, 28740, Note_on_c, 2, 79, 0
5, 28740, Note_on_c, 2, 78, 115
5, 28800, Note_on_c, 2, 78, 0
5, 28800, Note_on_c, 2, 76, 115
5, 28920, Note_on_c, 2, 76, 0
5, 28920, Note_on_c, 2, 78, 115
5, 28980, Note_on_c, 2, 78, 0
5, 28980, Pitch_bend_c, 2, 8448
5, 28980, Note_on_c, 2, 74, 115
5, 28983, Pitch_bend_c, 2, 8576
5, 28984, Pitch_bend_c, 2, 8704
5, 28993, Pitch_bend_c, 2, 8832
5, 29000, Pitch_bend_c, 2, 8704
5, 29001, Pitch_bend_c, 2, 8576
5, 29002, Pitch_bend_c, 2, 8448
5, 29004, Pitch_bend_c, 2, 8320
5, 29005, Pitch_bend_c, 2, 8192
5, 29006, Pitch_bend_c, 2, 8064
5, 29007, Pitch_bend_c, 2, 7936
5, 29011, Pitch_bend_c, 2, 7808
5, 29022, Pitch_bend_c, 2, 7936
5, 29024, Pitch_bend_c, 2, 8192
5, 29025, Pitch_bend_c, 2, 8320
5, 29028, Pitch_bend_c, 2, 8448
5, 29030, Pitch_bend_c, 2, 8704
5, 29032, Pitch_bend_c, 2, 8832
5, 29035, Pitch_bend_c, 2, 8960
5, 29054, Pitch_bend_c, 2, 8704
5, 29056, Pitch_bend_c, 2, 8576
5, 29058, Pitch_bend_c, 2, 8448
5, 29059, Pitch_bend_c, 2, 8320
5, 29061, Pitch_bend_c, 2, 8064
5, 29065, Pitch_bend_c, 2, 7936
5, 29070, Pitch_bend_c, 2, 7808
5, 29082, Pitch_bend_c, 2, 7936
5, 29086, Pitch_bend_c, 2, 8064
5, 29089, Pitch_bend_c, 2, 8192
5, 29092, Pitch_bend_c, 2, 8320
5, 29096, Pitch_bend_c, 2, 8448
5, 29101, Pitch_bend_c, 2, 8576
5, 29109, Pitch_bend_c, 2, 8704
5, 29115, Pitch_bend_c, 2, 8576
5, 29116, Pitch_bend_c, 2, 8448
5, 29118, Pitch_bend_c, 2, 8320
5, 29121, Pitch_bend_c, 2, 8064
5, 29126, Pitch_bend_c, 2, 7936
5, 29127, Pitch_bend_c, 2, 7808
5, 29132, Pitch_bend_c, 2, 7680
5, 29142, Pitch_bend_c, 2, 7808
5, 29146, Pitch_bend_c, 2, 7936
5, 29148, Pitch_bend_c, 2, 8064
5, 29150, Pitch_bend_c, 2, 8192
5, 29151, Pitch_bend_c, 2, 8320
5, 29155, Pitch_bend_c, 2, 8448
5, 29156, Pitch_bend_c, 2, 8576
5, 29157, Pitch_bend_c, 2, 8704
5, 29172, Pitch_bend_c, 2, 8832
5, 29184, Pitch_bend_c, 2, 8704
5, 29187, Pitch_bend_c, 2, 8576
5, 29190, Pitch_bend_c, 2, 8448
5, 29192, Pitch_bend_c, 2, 8320
5, 29194, Pitch_bend_c, 2, 8192
5, 29196, Pitch_bend_c, 2, 8064
5, 29204, Pitch_bend_c, 2, 7936
5, 29229, Pitch_bend_c, 2, 8064
5, 29230, Pitch_bend_c, 2, 8192
5, 29233, Pitch_bend_c, 2, 8320
5, 29235, Pitch_bend_c, 2, 8448
5, 29238, Pitch_bend_c, 2, 8576
5, 29239, Pitch_bend_c, 2, 8704
5, 29242, Pitch_bend_c, 2, 8832
5, 29245, Pitch_bend_c, 2, 8960
5, 29263, Pitch_bend_c, 2, 8832
5, 29265, Pitch_bend_c, 2, 8704
5, 29266, Pitch_bend_c, 2, 8576
5, 29269, Pitch_bend_c, 2, 8448
5, 29271, Pitch_bend_c, 2, 8320
5, 29272, Pitch_bend_c, 2, 8192
5, 29274, Pitch_bend_c, 2, 8064
5, 29276, Pitch_bend_c, 2, 7936
5, 29282, Pitch_bend_c, 2, 7808
5, 29295, Pitch_bend_c, 2, 7936
5, 29296, Pitch_bend_c, 2, 8192
5, 29298, Pitch_bend_c, 2, 8320
5, 29304, Pitch_bend_c, 2, 8448
5, 29313, Pitch_bend_c, 2, 8576
5, 29316, Pitch_bend_c, 2, 8704
5, 29331, Pitch_bend_c, 2, 8576
5, 29335, Pitch_bend_c, 2, 8448
5, 29336, Pitch_bend_c, 2, 8320
5, 29337, Pitch_bend_c, 2, 8192
5, 29340, Note_on_c, 2, 74, 0
5, 29340, Note_on_c, 2, 71, 115
5, 29341, Pitch_bend_c, 2, 8192
5, 29343, Pitch_bend_c, 2, 8320
5, 29346, Pitch_bend_c, 2, 8448
5, 29347, Pitch_bend_c, 2, 8576
5, 29349, Pitch_bend_c, 2, 8704
5, 29350, Pitch_bend_c, 2, 8832
5, 29353, Pitch_bend_c, 2, 8960
5, 29355, Pitch_bend_c, 2, 9088
5, 29356, Pitch_bend_c, 2, 9216
5, 29359, Pitch_bend_c, 2, 9344
5, 29360, Pitch_bend_c, 2, 9472
5, 29362, Pitch_bend_c, 2, 9600
5, 29365, Pitch_bend_c, 2, 9728
5, 29366, Pitch_bend_c, 2, 9856
5, 29368, Pitch_bend_c, 2, 9984
5, 29370, Pitch_bend_c, 2, 10112
5, 29372, Pitch_bend_c, 2, 10240
5, 29374, Pitch_bend_c, 2, 10368
5, 29376, Pitch_bend_c, 2, 10496
5, 29378, Pitch_bend_c, 2, 10624
5, 29379, Pitch_bend_c, 2, 10752
5, 29382, Pitch_bend_c, 2, 10880
5, 29384, Pitch_bend_c, 2, 11008
5, 29385, Pitch_bend_c, 2, 11136
5, 29388, Pitch_bend_c, 2, 11264
5, 29389, Pitch_bend_c, 2, 11392
5, 29391, Pitch_bend_c, 2, 11520
5, 29394, Pitch_bend_c, 2, 11648
5, 29395, Pitch_bend_c, 2, 11776
5, 29397, Pitch_bend_c, 2, 11904
5, 29398, Pitch_bend_c, 2, 12032
5, 29401, Pitch_bend_c, 2, 12160
5, 29402, Pitch_bend_c, 2, 12288
5, 29460, Note_on_c, 2, 71, 0
5, 29460, Note_on_c, 2, 71, 115
5, 29461, Pitch_bend_c, 2, 8192
5, 29520, Note_on_c, 2, 71, 0
5, 29520, Note_on_c, 2, 69, 115
5, 29580, Note_on_c, 2, 69, 0
5, 29580, Note_on_c, 2, 71, 115
5, 29640, Note_on_c, 2, 71, 0
5, 29640, Note_on_c, 2, 67, 115
5, 29658, Pitch_bend_c, 2, 8192
5, 29659, Pitch_bend_c, 2, 8320
5, 29661, Pitch_bend_c, 2, 8576
5, 29665, Pitch_bend_c, 2, 8704
5, 29667, Pitch_bend_c, 2, 8832
5, 29672, Pitch_bend_c, 2, 8704
5, 29673, Pitch_bend_c, 2, 8576
5, 29676, Pitch_bend_c, 2, 8448
5, 29678, Pitch_bend_c, 2, 8320
5, 29679, Pitch_bend_c, 2, 8192
5, 29682, Pitch_bend_c, 2, 8064
5, 29683, Pitch_bend_c, 2, 7936
5, 29684, Pitch_bend_c, 2, 7808
5, 29694, Pitch_bend_c, 2, 7936
5, 29695, Pitch_bend_c, 2, 8064
5, 29697, Pitch_bend_c, 2, 8192
5, 29698, Pitch_bend_c, 2, 8320
5, 29702, Pitch_bend_c, 2, 8448
5, 29703, Pitch_bend_c, 2, 8576
5, 29704, Pitch_bend_c, 2, 8704
5, 29707, Pitch_bend_c, 2, 8832
5, 29730, Pitch_bend_c, 2, 8704
5, 29731, Pitch_bend_c, 2, 8576
5, 29733, Pitch_bend_c, 2, 8448
5, 29734, Pitch_bend_c, 2, 8320
5, 29736, Pitch_bend_c, 2, 8192
5, 29740, Pitch_bend_c, 2, 8064
5, 29744, Pitch_bend_c, 2, 7936
5, 29751, Pitch_bend_c, 2, 7808
5, 29760, Pitch_bend_c, 2, 7936
5, 29763, Pitch_bend_c, 2, 8064
5, 29767, Pitch_bend_c, 2, 8192
5, 29770, Pitch_bend_c, 2, 8320
5, 29772, Pitch_bend_c, 2, 8448
5, 29773, Pitch_bend_c, 2, 8576
5, 29775, Pitch_bend_c, 2, 8704
5, 29778, Pitch_bend_c, 2, 8832
5, 29792, Pitch_bend_c, 2, 8704
5, 29798, Pitch_bend_c, 2, 8576
5, 29802, Pitch_bend_c, 2, 8448
5, 29804, Pitch_bend_c, 2, 8320
5, 29806, Pitch_bend_c, 2, 8192
5, 29808, Pitch_bend_c, 2, 8064
5, 29810, Pitch_bend_c, 2, 7936
5, 29812, Pitch_bend_c, 2, 7808
5, 29815, Pitch_bend_c, 2, 7680
5, 29829, Pitch_bend_c, 2, 7808
5, 29834, Pitch_bend_c, 2, 7936
5, 29835, Pitch_bend_c, 2, 8064
5, 29839, Pitch_bend_c, 2, 8192
5, 29842, Pitch_bend_c, 2, 8320
5, 29844, Pitch_bend_c, 2, 8448
5, 29845, Pitch_bend_c, 2, 8576
5, 29857, Pitch_bend_c, 2, 8704
5, 29875, Pitch_bend_c, 2, 8576
5, 29877, Pitch_bend_c, 2, 8448
5, 29880, Pitch_bend_c, 2, 8320
5, 29883, Pitch_bend_c, 2, 8192
5, 29886, Pitch_bend_c, 2, 8064
5, 29887, Pitch_bend_c, 2, 7936
5, 29906, Pitch_bend_c, 2, 8064
5, 29910, Pitch_bend_c, 2, 8192
5, 29911, Pitch_bend_c, 2, 8320
5, 29914, Pitch_bend_c, 2, 8448
5, 29916, Pitch_bend_c, 2, 8576
5, 29917, Pitch_bend_c, 2, 8704
5, 29925, Pitch_bend_c, 2, 8832
5, 29944, Pitch_bend_c, 2, 8704
5, 29946, Pitch_bend_c, 2, 8576
5, 29948, Pitch_bend_c, 2, 8448
5, 29950, Pitch_bend_c, 2, 8320
5, 29952, Pitch_bend_c, 2, 8192
5, 29956, Pitch_bend_c, 2, 7936
5, 29961, Pitch_bend_c, 2, 7808
5, 29979, Pitch_bend_c, 2, 7936
5, 29980, Pitch_bend_c, 2, 8064
5, 29982, Pitch_bend_c, 2, 8192
5, 29983, Pitch_bend_c, 2, 8320
5, 29986, Pitch_bend_c, 2, 8448
5, 29989, Pitch_bend_c, 2, 8576
5, 29991, Pitch_bend_c, 2, 8704
5, 30009, Pitch_bend_c, 2, 8448
5, 30014, Pitch_bend_c, 2, 8320
5, 30018, Pitch_bend_c, 2, 8192
5, 30025, Pitch_bend_c, 2, 8064
5, 30032, Pitch_bend_c, 2, 8192
5, 30034, Pitch_bend_c, 2, 8320
5, 30037, Pitch_bend_c, 2, 8448
5, 30038, Pitch_bend_c, 2, 8576
5, 30042, Pitch_bend_c, 2, 8704
5, 30057, Pitch_bend_c, 2, 8576
5, 30058, Pitch_bend_c, 2, 8192
5, 30060, Note_on_c, 2, 67, 0
5, 30060, Note_on_c, 2, 45, 93
5, 30060, Control_c, 2, 64, 127
5, 30120, Note_on_c, 2, 45, 0
5, 30120, Note_on_c, 2, 52, 93
5, 30180, Note_on_c, 2, 52, 0
5, 30240, Note_on_c, 2, 57, 93
5, 30300, Note_on_c, 2, 57, 0
5, 30360, Note_on_c, 2, 64, 93
5, 30420, Note_on_c, 2, 64, 0
5, 30480, Note_on_c, 2, 57, 93
5, 30540, Note_on_c, 2, 57, 0
5, 30600, Note_on_c, 2, 45, 93
5, 30660, Note_on_c, 2, 45, 0
5, 30660, Note_on_c, 2, 47, 93
5, 30720, Note_on_c, 2, 47, 0
5, 30780, Control_c, 2, 64, 0
5, 30780, Control_c, 2, 64, 127
5, 30780, Note_on_c, 2, 48, 93
5, 30840, Note_on_c, 2, 48, 0
5, 30840, Note_on_c, 2, 52, 93
5, 30900, Note_on_c, 2, 52, 0
5, 30960, Note_on_c, 2, 55, 93
5, 31020, Note_on_c, 2, 55, 0
5, 31080, Note_on_c, 2, 48, 93
5, 31140, Note_on_c, 2, 48, 0
5, 31140, Control_c, 2, 64, 0
5, 31140, Control_c, 2, 64, 127
5, 31140, Note_on_c, 2, 50, 93
5, 31200, Note_on_c, 2, 50, 0
5, 31200, Note_on_c, 2, 54, 93
5, 31260, Note_on_c, 2, 54, 0
5, 31320, Note_on_c, 2, 55, 93
5, 31380, Note_on_c, 2, 55, 0
5, 31440, Note_on_c, 2, 54, 93
5, 31500, Note_on_c, 2, 54, 0
5, 31500, Control_c, 2, 64, 0
5, 31500, Note_on_c, 2, 45, 93
5, 31500, Control_c, 2, 64, 127
5, 31560, Note_on_c, 2, 45, 0
5, 31560, Note_on_c, 2, 52, 93
5, 31620, Note_on_c, 2, 52, 0
5, 31680, Note_on_c, 2, 57, 93
5, 31740, Note_on_c, 2, 57, 0
5, 31800, Note_on_c, 2, 64, 93
5, 31860, Note_on_c, 2, 64, 0
5, 31920, Note_on_c, 2, 57, 93
5, 31980, Note_on_c, 2, 57, 0
5, 32040, Note_on_c, 2, 45, 93
5, 32100, Note_on_c, 2, 45, 0
5, 32100, Note_on_c, 2, 47, 93
5, 32160, Note_on_c, 2, 47, 0
5, 32220, Note_on_c, 2, 60, 100
5, 32220, Note_on_c, 2, 55, 100
5, 32220, Note_on_c, 2, 48, 100
5, 32220, Control_c, 2, 64, 0
5, 32310, Note_on_c, 2, 48, 0
5, 32310, Note_on_c, 2, 55, 0
5, 32310, Note_on_c, 2, 60, 0
5, 32580, Note_on_c, 2, 62, 100
5, 32580, Note_on_c, 2, 57, 100
5, 32580, Note_on_c, 2, 50, 100
5, 32700, Note_on_c, 2, 50, 0
5, 32700, Note_on_c, 2, 57, 0
5, 32700, Note_on_c, 2, 62, 0
5, 32700, Note_on_c, 2, 50, 100
5, 32700, Note_on_c, 2, 57, 100
5, 32700, Note_on_c, 2, 62, 100
5, 32820, Note_on_c, 2, 62, 0
5, 32820, Note_on_c, 2, 57, 0
5, 32820, Note_on_c, 2, 50, 0
5, 32820, Note_on_c, 2, 45, 93
5, 32820, Control_c, 2, 64, 127
5, 32880, Note_on_c, 2, 45, 0
5, 32880, Note_on_c, 2, 52, 93
5, 32940, Note_on_c, 2, 52, 0
5, 33000, Note_on_c, 2, 57, 93
5, 33060, Note_on_c, 2, 57, 0
5, 33120, Note_on_c, 2, 64, 93
5, 33180, Note_on_c, 2, 64, 0
5, 33240, Note_on_c, 2, 57, 93
5, 33300, Note_on_c, 2, 57, 0
5, 33360, Note_on_c, 2, 45, 93
5, 33420, Note_on_c, 2, 45, 0
5, 33420, Note_on_c, 2, 47, 93
5, 33480, Note_on_c, 2, 47, 0
5, 33540, Control_c, 2, 64, 0
5, 33540, Control_c, 2, 64, 127
5, 33540, Note_on_c, 2, 48, 93
5, 33600, Note_on_c, 2, 48, 0
5, 33600, Note_on_c, 2, 52, 93
5, 33660, Note_on_c, 2, 52, 0
5, 33720, Note_on_c, 2, 55, 93
5, 33780, Note_on_c, 2, 55, 0
5, 33840, Note_on_c, 2, 48, 93
5, 33900, Note_on_c, 2, 48, 0
5, 33900, Control_c, 2, 64, 0
5, 33900, Control_c, 2, 64, 127
5, 33900, Note_on_c, 2, 50, 93
5, 33960, Note_on_c, 2, 50, 0
5, 33960, Note_on_c, 2, 54, 93
5, 34020, Note_on_c, 2, 54, 0
5, 34080, Note_on_c, 2, 55, 93
5, 34140, Note_on_c, 2, 55, 0
5, 34200, Note_on_c, 2, 54, 93
5, 34260, Note_on_c, 2, 54, 0
5, 34260, Control_c, 2, 64, 0
5, 34260, Note_on_c, 2, 45, 93
5, 34260, Control_c, 2, 64, 127
5, 34320, Note_on_c, 2, 45, 0
5, 34320, Note_on_c, 2, 53, 93
5, 34380, Note_on_c, 2, 53, 0
5, 34440, Note_on_c, 2, 57, 93
5, 34500, Note_on_c, 2, 57, 0
5, 34560, Note_on_c, 2, 52, 93
5, 34620, Note_on_c, 2, 52, 0
5, 34680, Control_c, 2, 64, 0
5, 34680, Note_on_c, 2, 57, 110
5, 34680, Note_on_c, 2, 45, 110
5, 34770, Note_on_c, 2, 45, 0
5, 34770, Note_on_c, 2, 57, 0
5, 34800, Note_on_c, 2, 45, 93
5, 34860, Note_on_c, 2, 45, 0
5, 34860, Note_on_c, 2, 55, 93
5, 34860, Note_on_c, 2, 47, 93
5, 34980, Note_on_c, 2, 47, 0
5, 34980, Note_on_c, 2, 55, 0
5, 34980, Note_on_c, 2, 48, 115
5, 35160, Note_on_c, 2, 48, 0
5, 35160, Note_on_c, 2, 52, 115
5, 35340, Note_on_c, 2, 52, 0
5, 35340, Pitch_bend_c, 2, 8192
5, 35340, Note_on_c, 2, 52, 115
5, 35341, Pitch_bend_c, 2, 8320
5, 35342, Pitch_bend_c, 2, 8448
5, 35343, Pitch_bend_c, 2, 8704
5, 35344, Pitch_bend_c, 2, 8832
5, 35346, Pitch_bend_c, 2, 8960
5, 35347, Pitch_bend_c, 2, 9216
5, 35348, Pitch_bend_c, 2, 9344
5, 35349, Pitch_bend_c, 2, 9600
5, 35350, Pitch_bend_c, 2, 9728
5, 35352, Pitch_bend_c, 2, 9856
5, 35353, Pitch_bend_c, 2, 10112
5, 35354, Pitch_bend_c, 2, 10240
5, 35355, Pitch_bend_c, 2, 10496
5, 35356, Pitch_bend_c, 2, 10624
5, 35358, Pitch_bend_c, 2, 10752
5, 35359, Pitch_bend_c, 2, 11008
5, 35360, Pitch_bend_c, 2, 11136
5, 35361, Pitch_bend_c, 2, 11392
5, 35362, Pitch_bend_c, 2, 11520
5, 35364, Pitch_bend_c, 2, 11648
5, 35365, Pitch_bend_c, 2, 11904
5, 35366, Pitch_bend_c, 2, 12032
5, 35367, Pitch_bend_c, 2, 12288
5, 35368, Pitch_bend_c, 2, 12416
5, 35370, Pitch_bend_c, 2, 12544
5, 35371, Pitch_bend_c, 2, 12800
5, 35372, Pitch_bend_c, 2, 12928
5, 35373, Pitch_bend_c, 2, 13056
5, 35374, Pitch_bend_c, 2, 13312
5, 35376, Pitch_bend_c, 2, 13440
5, 35377, Pitch_bend_c, 2, 13696
5, 35378, Pitch_bend_c, 2, 13824
5, 35379, Pitch_bend_c, 2, 13952
5, 35380, Pitch_bend_c, 2, 14208
5, 35382, Pitch_bend_c, 2, 14336
5, 35383, Pitch_bend_c, 2, 14592
5, 35384, Pitch_bend_c, 2, 14720
5, 35385, Pitch_bend_c, 2, 14848
5, 35386, Pitch_bend_c, 2, 15104
5, 35388, Pitch_bend_c, 2, 15232
5, 35389, Pitch_bend_c, 2, 15488
5, 35390, Pitch_bend_c, 2, 15616
5, 35391, Pitch_bend_c, 2, 15744
5, 35392, Pitch_bend_c, 2, 16000
5, 35394, Pitch_bend_c, 2, 16128
5, 35395, Pitch_bend_c, 2, 16383
5, 35520, Note_on_c, 2, 52, 0
5, 35535, Pitch_bend_c, 2, 8192
5, 35640, Note_on_c, 2, 68, 115
5, 35700, Note_on_c, 2, 68, 0
5, 35760, Note_on_c, 2, 68, 115
5, 35880, Note_on_c, 2, 68, 0
5, 35880, Note_on_c, 2, 69, 115
5, 35940, Note_on_c, 2, 69, 0
5, 35940, Note_on_c, 2, 71, 115
5, 36030, Pitch_bend_c, 2, 8064
5, 36031, Pitch_bend_c, 2, 7680
5, 36032, Pitch_bend_c, 2, 7808
5, 36033, Pitch_bend_c, 2, 7936
5, 36034, Pitch_bend_c, 2, 8064
5, 36038, Pitch_bend_c, 2, 8192
5, 36039, Pitch_bend_c, 2, 8320
5, 36042, Pitch_bend_c, 2, 8448
5, 36049, Pitch_bend_c, 2, 8576
5, 36058, Pitch_bend_c, 2, 8192
5, 36063, Pitch_bend_c, 2, 7936
5, 36067, Pitch_bend_c, 2, 7680
5, 36068, Pitch_bend_c, 2, 7552
5, 36075, Pitch_bend_c, 2, 7296
5, 36088, Pitch_bend_c, 2, 7424
5, 36092, Pitch_bend_c, 2, 7680
5, 36096, Pitch_bend_c, 2, 7808
5, 36097, Pitch_bend_c, 2, 7936
5, 36098, Pitch_bend_c, 2, 8064
5, 36102, Pitch_bend_c, 2, 8192
5, 36105, Pitch_bend_c, 2, 8448
5, 36112, Pitch_bend_c, 2, 8576
5, 36121, Pitch_bend_c, 2, 8704
5, 36138, Pitch_bend_c, 2, 8448
5, 36140, Pitch_bend_c, 2, 8192
5, 36144, Pitch_bend_c, 2, 8064
5, 36147, Pitch_bend_c, 2, 7808
5, 36172, Pitch_bend_c, 2, 8064
5, 36176, Pitch_bend_c, 2, 8192
5, 36178, Pitch_bend_c, 2, 8448
5, 36180, Pitch_bend_c, 2, 8576
5, 36181, Pitch_bend_c, 2, 8704
5, 36186, Pitch_bend_c, 2, 8832
5, 36198, Pitch_bend_c, 2, 8704
5, 36202, Pitch_bend_c, 2, 8576
5, 36204, Pitch_bend_c, 2, 8448
5, 36206, Pitch_bend_c, 2, 8320
5, 36207, Pitch_bend_c, 2, 8192
5, 36235, Note_on_c, 2, 71, 0
5, 36240, Note_on_c, 2, 74, 115
5, 36270, Note_on_c, 2, 74, 0
5, 36270, Note_on_c, 2, 76, 115
5, 36300, Note_on_c, 2, 76, 0
5, 36300, Note_on_c, 2, 74, 115
5, 36420, Note_on_c, 2, 74, 0
5, 36420, Note_on_c, 2, 71, 115
5, 36480, Note_on_c, 2, 71, 0
5, 36480, Note_on_c, 2, 67, 115
5, 36600, Note_on_c, 2, 67, 0
5, 36600, Note_on_c, 2, 71, 115
5, 36660, Note_on_c, 2, 71, 0
5, 36660, Note_on_c, 2, 69, 115
5, 36679, Note_on_c, 2, 69, 0
5, 36679, Note_on_c, 2, 71, 115
5, 36709, Note_on_c, 2, 69, 115
5, 36712, Note_on_c, 2, 71, 0
5, 36780, Note_on_c, 2, 69, 0
5, 36780, Note_on_c, 2, 66, 115
5, 36840, Note_on_c, 2, 66, 0
5, 36840, Note_on_c, 2, 62, 115
5, 36842, Pitch_bend_c, 2, 8064
5, 36843, Pitch_bend_c, 2, 8320
5, 36846, Pitch_bend_c, 2, 8448
5, 36847, Pitch_bend_c, 2, 8576
5, 36848, Pitch_bend_c, 2, 8704
5, 36849, Pitch_bend_c, 2, 8832
5, 36859, Pitch_bend_c, 2, 8704
5, 36860, Pitch_bend_c, 2, 8576
5, 36862, Pitch_bend_c, 2, 8448
5, 36866, Pitch_bend_c, 2, 8192
5, 36867, Pitch_bend_c, 2, 8064
5, 36884, Pitch_bend_c, 2, 8192
5, 36885, Pitch_bend_c, 2, 8320
5, 36886, Pitch_bend_c, 2, 8448
5, 36889, Pitch_bend_c, 2, 8576
5, 36891, Pitch_bend_c, 2, 8704
5, 36894, Pitch_bend_c, 2, 8832
5, 36901, Pitch_bend_c, 2, 8704
5, 36904, Pitch_bend_c, 2, 8576
5, 36907, Pitch_bend_c, 2, 8448
5, 36908, Pitch_bend_c, 2, 8320
5, 36910, Pitch_bend_c, 2, 8192
5, 36912, Pitch_bend_c, 2, 8064
5, 36914, Pitch_bend_c, 2, 7936
5, 36915, Pitch_bend_c, 2, 7808
5, 36926, Pitch_bend_c, 2, 7936
5, 36927, Pitch_bend_c, 2, 8064
5, 36930, Pitch_bend_c, 2, 8192
5, 36933, Pitch_bend_c, 2, 8320
5, 36936, Pitch_bend_c, 2, 8448
5, 36937, Pitch_bend_c, 2, 8576
5, 36939, Pitch_bend_c, 2, 8704
5, 36940, Pitch_bend_c, 2, 8832
5, 36942, Pitch_bend_c, 2, 8960
5, 36960, Pitch_bend_c, 2, 8704
5, 36962, Pitch_bend_c, 2, 8576
5, 36964, Pitch_bend_c, 2, 8448
5, 36967, Pitch_bend_c, 2, 8320
5, 36969, Pitch_bend_c, 2, 8192
5, 36970, Pitch_bend_c, 2, 8064
5, 36974, Pitch_bend_c, 2, 7936
5, 36978, Pitch_bend_c, 2, 7808
5, 36987, Pitch_bend_c, 2, 7936
5, 36988, Pitch_bend_c, 2, 8064
5, 36990, Pitch_bend_c, 2, 8192
5, 36991, Pitch_bend_c, 2, 8320
5, 36993, Pitch_bend_c, 2, 8448
5, 36996, Pitch_bend_c, 2, 8576
5, 36999, Pitch_bend_c, 2, 8704
5, 37002, Pitch_bend_c, 2, 8832
5, 37009, Pitch_bend_c, 2, 8704
5, 37010, Pitch_bend_c, 2, 8576
5, 37012, Pitch_bend_c, 2, 8448
5, 37014, Pitch_bend_c, 2, 8320
5, 37015, Pitch_bend_c, 2, 8192
5, 37017, Pitch_bend_c, 2, 8064
5, 37018, Pitch_bend_c, 2, 8192
5, 37020, Note_on_c, 2, 62, 0
5, 37080, Note_on_c, 2, 68, 115
5, 37140, Note_on_c, 2, 68, 0
5, 37200, Note_on_c, 2, 68, 115
5, 37320, Note_on_c, 2, 68, 0
5, 37320, Note_on_c, 2, 69, 115
5, 37380, Note_on_c, 2, 69, 0
5, 37380, Note_on_c, 2, 71, 115
5, 37470, Pitch_bend_c, 2, 8064
5, 37471, Pitch_bend_c, 2, 7680
5, 37472, Pitch_bend_c, 2, 7808
5, 37473, Pitch_bend_c, 2, 7936
5, 37474, Pitch_bend_c, 2, 8064
5, 37478, Pitch_bend_c, 2, 8192
5, 37479, Pitch_bend_c, 2, 8320
5, 37482, Pitch_bend_c, 2, 8448
5, 37489, Pitch_bend_c, 2, 8576
5, 37498, Pitch_bend_c, 2, 8192
5, 37503, Pitch_bend_c, 2, 7936
5, 37507, Pitch_bend_c, 2, 7680
5, 37508, Pitch_bend_c, 2, 7552
5, 37515, Pitch_bend_c, 2, 7296
5, 37528, Pitch_bend_c, 2, 7424
5, 37532, Pitch_bend_c, 2, 7680
5, 37536, Pitch_bend_c, 2, 7808
5, 37537, Pitch_bend_c, 2, 7936
5, 37538, Pitch_bend_c, 2, 8064
5, 37542, Pitch_bend_c, 2, 8192
5, 37545, Pitch_bend_c, 2, 8448
5, 37552, Pitch_bend_c, 2, 8576
5, 37561, Pitch_bend_c, 2, 8704
5, 37578, Pitch_bend_c, 2, 8448
5, 37580, Pitch_bend_c, 2, 8192
5, 37584, Pitch_bend_c, 2, 8064
5, 37587, Pitch_bend_c, 2, 7808
5, 37612, Pitch_bend_c, 2, 8064
5, 37616, Pitch_bend_c, 2, 8192
5, 37618, Pitch_bend_c, 2, 8448
5, 37620, Pitch_bend_c, 2, 8576
5, 37621, Pitch_bend_c, 2, 8704
5, 37626, Pitch_bend_c, 2, 8832
5, 37638, Pitch_bend_c, 2, 8704
5, 37642, Pitch_bend_c, 2, 8576
5, 37644, Pitch_bend_c, 2, 8448
5, 37646, Pitch_bend_c, 2, 8320
5, 37647, Pitch_bend_c, 2, 8192
5, 37675, Note_on_c, 2, 71, 0
5, 37680, Note_on_c, 2, 74, 115
5, 37710, Note_on_c, 2, 74, 0
5, 37710, Note_on_c, 2, 76, 115
5, 37740, Note_on_c, 2, 76, 0
5, 37740, Note_on_c, 2, 74, 115
5, 37860, Note_on_c, 2, 74, 0
5, 37860, Note_on_c, 2, 71, 115
5, 37920, Note_on_c, 2, 71, 0
5, 37920, Note_on_c, 2, 67, 115
5, 37980, Note_on_c, 2, 67, 0
5, 37980, Note_on_c, 2, 71, 115
5, 38040, Note_on_c, 2, 71, 0
5, 38040, Note_on_c, 2, 69, 115
5, 38073, Pitch_bend_c, 2, 8064
5, 38074, Pitch_bend_c, 2, 8192
5, 38077, Pitch_bend_c, 2, 8320
5, 38078, Pitch_bend_c, 2, 8448
5, 38083, Pitch_bend_c, 2, 8576
5, 38100, Pitch_bend_c, 2, 8320
5, 38104, Pitch_bend_c, 2, 8192
5, 38108, Pitch_bend_c, 2, 8064
5, 38138, Pitch_bend_c, 2, 8192
5, 38140, Pitch_bend_c, 2, 8320
5, 38142, Pitch_bend_c, 2, 8448
5, 38144, Pitch_bend_c, 2, 8576
5, 38146, Pitch_bend_c, 2, 8704
5, 38160, Pitch_bend_c, 2, 8576
5, 38164, Pitch_bend_c, 2, 8448
5, 38167, Pitch_bend_c, 2, 8320
5, 38169, Pitch_bend_c, 2, 8192
5, 38170, Pitch_bend_c, 2, 8064
5, 38174, Pitch_bend_c, 2, 7936
5, 38176, Pitch_bend_c, 2, 7808
5, 38188, Pitch_bend_c, 2, 7936
5, 38192, Pitch_bend_c, 2, 8064
5, 38196, Pitch_bend_c, 2, 8192
5, 38202, Pitch_bend_c, 2, 8320
5, 38203, Pitch_bend_c, 2, 8448
5, 38206, Pitch_bend_c, 2, 8576
5, 38210, Pitch_bend_c, 2, 8704
5, 38228, Pitch_bend_c, 2, 8576
5, 38233, Pitch_bend_c, 2, 8320
5, 38236, Pitch_bend_c, 2, 8192
5, 38240, Pitch_bend_c, 2, 8064
5, 38241, Pitch_bend_c, 2, 7936
5, 38258, Pitch_bend_c, 2, 8064
5, 38263, Pitch_bend_c, 2, 8192
5, 38266, Pitch_bend_c, 2, 8320
5, 38275, Pitch_bend_c, 2, 8448
5, 38280, Pitch_bend_c, 2, 8576
5, 38283, Pitch_bend_c, 2, 8704
5, 38292, Pitch_bend_c, 2, 8576
5, 38293, Pitch_bend_c, 2, 8448
5, 38295, Pitch_bend_c, 2, 8320
5, 38299, Pitch_bend_c, 2, 8192
5, 38301, Pitch_bend_c, 2, 8064
5, 38304, Pitch_bend_c, 2, 7936
5, 38306, Pitch_bend_c, 2, 7808
5, 38326, Pitch_bend_c, 2, 7936
5, 38329, Pitch_bend_c, 2, 8064
5, 38332, Pitch_bend_c, 2, 8192
5, 38337, Pitch_bend_c, 2, 8320
5, 38340, Note_on_c, 2, 69, 0
5, 38340, Pitch_bend_c, 2, 8192
5, 38400, Note_on_c, 2, 68, 115
5, 38460, Note_on_c, 2, 68, 0
5, 38520, Note_on_c, 2, 68, 115
5, 38640, Note_on_c, 2, 68, 0
5, 38640, Note_on_c, 2, 69, 115
5, 38700, Note_on_c, 2, 69, 0
5, 38700, Note_on_c, 2, 71, 115
5, 38790, Pitch_bend_c, 2, 8064
5, 38791, Pitch_bend_c, 2, 7680
5, 38792, Pitch_bend_c, 2, 7808
5, 38793, Pitch_bend_c, 2, 7936
5, 38794, Pitch_bend_c, 2, 8064
5, 38798, Pitch_bend_c, 2, 8192
5, 38799, Pitch_bend_c, 2, 8320
5, 38802, Pitch_bend_c, 2, 8448
5, 38809, Pitch_bend_c, 2, 8576
5, 38818, Pitch_bend_c, 2, 8192
5, 38823, Pitch_bend_c, 2, 7936
5, 38827, Pitch_bend_c, 2, 7680
5, 38828, Pitch_bend_c, 2, 7552
5, 38835, Pitch_bend_c, 2, 7296
5, 38848, Pitch_bend_c, 2, 7424
5, 38852, Pitch_bend_c, 2, 7680
5, 38856, Pitch_bend_c, 2, 7808
5, 38857, Pitch_bend_c, 2, 7936
5, 38858, Pitch_bend_c, 2, 8064
5, 38862, Pitch_bend_c, 2, 8192
5, 38865, Pitch_bend_c, 2, 8448
5, 38872, Pitch_bend_c, 2, 8576
5, 38881, Pitch_bend_c, 2, 8704
5, 38898, Pitch_bend_c, 2, 8448
5, 38900, Pitch_bend_c, 2, 8192
5, 38904, Pitch_bend_c, 2, 8064
5, 38907, Pitch_bend_c, 2, 7808
5, 38932, Pitch_bend_c, 2, 8064
5, 38936, Pitch_bend_c, 2, 8192
5, 38938, Pitch_bend_c, 2, 8448
5, 38940, Pitch_bend_c, 2, 8576
5, 38941, Pitch_bend_c, 2, 8704
5, 38946, Pitch_bend_c, 2, 8832
5, 38958, Pitch_bend_c, 2, 8704
5, 38962, Pitch_bend_c, 2, 8576
5, 38964, Pitch_bend_c, 2, 8448
5, 38966, Pitch_bend_c, 2, 8320
5, 38967, Pitch_bend_c, 2, 8192
5, 38970, Note_on_c, 2, 71, 0
5, 38977, Note_on_c, 2, 74, 115
5, 39000, Note_on_c, 2, 74, 0
5, 39000, Note_on_c, 2, 76, 115
5, 39060, Note_on_c, 2, 76, 0
5, 39060, Note_on_c, 2, 79, 115
5, 39180, Note_on_c, 2, 79, 0
5, 39180, Note_on_c, 2, 78, 115
5, 39240, Note_on_c, 2, 78, 0
5, 39240, Note_on_c, 2, 76, 115
5, 39360, Note_on_c, 2, 76, 0
5, 39360, Note_on_c, 2, 78, 115
5, 39420, Note_on_c, 2, 78, 0
5, 39420, Pitch_bend_c, 2, 8448
5, 39420, Note_on_c, 2, 74, 115
5, 39423, Pitch_bend_c, 2, 8576
5, 39424, Pitch_bend_c, 2, 8704
5, 39433, Pitch_bend_c, 2, 8832
5, 39440, Pitch_bend_c, 2, 8704
5, 39441, Pitch_bend_c, 2, 8576
5, 39442, Pitch_bend_c, 2, 8448
5, 39444, Pitch_bend_c, 2, 8320
5, 39445, Pitch_bend_c, 2, 8192
5, 39446, Pitch_bend_c, 2, 8064
5, 39447, Pitch_bend_c, 2, 7936
5, 39451, Pitch_bend_c, 2, 7808
5, 39462, Pitch_bend_c, 2, 7936
5, 39464, Pitch_bend_c, 2, 8192
5, 39465, Pitch_bend_c, 2, 8320
5, 39468, Pitch_bend_c, 2, 8448
5, 39470, Pitch_bend_c, 2, 8704
5, 39472, Pitch_bend_c, 2, 8832
5, 39475, Pitch_bend_c, 2, 8960
5, 39494, Pitch_bend_c, 2, 8704
5, 39496, Pitch_bend_c, 2, 8576
5, 39498, Pitch_bend_c, 2, 8448
5, 39499, Pitch_bend_c, 2, 8320
5, 39501, Pitch_bend_c, 2, 8064
5, 39505, Pitch_bend_c, 2, 7936
5, 39510, Pitch_bend_c, 2, 7808
5, 39522, Pitch_bend_c, 2, 7936
5, 39526, Pitch_bend_c, 2, 8064
5, 39529, Pitch_bend_c, 2, 8192
5, 39532, Pitch_bend_c, 2, 8320
5, 39536, Pitch_bend_c, 2, 8448
5, 39541, Pitch_bend_c, 2, 8576
5, 39549, Pitch_bend_c, 2, 8704
5, 39555, Pitch_bend_c, 2, 8576
5, 39556, Pitch_bend_c, 2, 8448
5, 39558, Pitch_bend_c, 2, 8320
5, 39561, Pitch_bend_c, 2, 8064
5, 39566, Pitch_bend_c, 2, 7936
5, 39567, Pitch_bend_c, 2, 7808
5, 39572, Pitch_bend_c, 2, 7680
5, 39582, Pitch_bend_c, 2, 7808
5, 39586, Pitch_bend_c, 2, 7936
5, 39588, Pitch_bend_c, 2, 8064
5, 39590, Pitch_bend_c, 2, 8192
5, 39591, Pitch_bend_c, 2, 8320
5, 39595, Pitch_bend_c, 2, 8448
5, 39596, Pitch_bend_c, 2, 8576
5, 39597, Pitch_bend_c, 2, 8704
5, 39612, Pitch_bend_c, 2, 8832
5, 39624, Pitch_bend_c, 2, 8704
5, 39627, Pitch_bend_c, 2, 8576
5, 39630, Pitch_bend_c, 2, 8448
5, 39632, Pitch_bend_c, 2, 8320
5, 39634, Pitch_bend_c, 2, 8192
5, 39636, Pitch_bend_c, 2, 8064
5, 39644, Pitch_bend_c, 2, 7936
5, 39669, Pitch_bend_c, 2, 8064
5, 39670, Pitch_bend_c, 2, 8192
5, 39673, Pitch_bend_c, 2, 8320
5, 39675, Pitch_bend_c, 2, 8448
5, 39678, Pitch_bend_c, 2, 8576
5, 39679, Pitch_bend_c, 2, 8704
5, 39682, Pitch_bend_c, 2, 8832
5, 39685, Pitch_bend_c, 2, 8960
5, 39703, Pitch_bend_c, 2, 8832
5, 39705, Pitch_bend_c, 2, 8704
5, 39706, Pitch_bend_c, 2, 8576
5, 39709, Pitch_bend_c, 2, 8448
5, 39711, Pitch_bend_c, 2, 8320
5, 39712, Pitch_bend_c, 2, 8192
5, 39714, Pitch_bend_c, 2, 8064
5, 39716, Pitch_bend_c, 2, 7936
5, 39722, Pitch_bend_c, 2, 7808
5, 39735, Pitch_bend_c, 2, 7936
5, 39736, Pitch_bend_c, 2, 8192
5, 39738, Pitch_bend_c, 2, 8320
5, 39744, Pitch_bend_c, 2, 8448
5, 39753, Pitch_bend_c, 2, 8576
5, 39756, Pitch_bend_c, 2, 8704
5, 39771, Pitch_bend_c, 2, 8576
5, 39775, Pitch_bend_c, 2, 8448
5, 39776, Pitch_bend_c, 2, 8320
5, 39777, Pitch_bend_c, 2, 8192
5, 39780, Note_on_c, 2, 74, 0
5, 39780, Note_on_c, 2, 71, 115
5, 39781, Pitch_bend_c, 2, 8192
5, 39783, Pitch_bend_c, 2, 8320
5, 39786, Pitch_bend_c, 2, 8448
5, 39787, Pitch_bend_c, 2, 8576
5, 39789, Pitch_bend_c, 2, 8704
5, 39790, Pitch_bend_c, 2, 8832
5, 39793, Pitch_bend_c, 2, 8960
5, 39795, Pitch_bend_c, 2, 9088
5, 39796, Pitch_bend_c, 2, 9216
5, 39799, Pitch_bend_c, 2, 9344
5, 39800, Pitch_bend_c, 2, 9472
5, 39802, Pitch_bend_c, 2, 9600
5, 39805, Pitch_bend_c, 2, 9728
5, 39806, Pitch_bend_c, 2, 9856
5, 39808, Pitch_bend_c, 2, 9984
5, 39810, Pitch_bend_c, 2, 10112
5, 39812, Pitch_bend_c, 2, 10240
5, 39814, Pitch_bend_c, 2, 10368
5, 39816, Pitch_bend_c, 2, 10496
5, 39818, Pitch_bend_c, 2, 10624
5, 39819, Pitch_bend_c, 2, 10752
5, 39822, Pitch_bend_c, 2, 10880
5, 39824, Pitch_bend_c, 2, 11008
5, 39825, Pitch_bend_c, 2, 11136
5, 39828, Pitch_bend_c, 2, 11264
5, 39829, Pitch_bend_c, 2, 11392
5, 39831, Pitch_bend_c, 2, 11520
5, 39834, Pitch_bend_c, 2, 11648
5, 39835, Pitch_bend_c, 2, 11776
5, 39837, Pitch_bend_c, 2, 11904
5, 39838, Pitch_bend_c, 2, 12032
5, 39841, Pitch_bend_c, 2, 12160
5, 39842, Pitch_bend_c, 2, 12288
5, 39900, Note_on_c, 2, 71, 0
5, 39900, Note_on_c, 2, 71, 115
5, 39901, Pitch_bend_c, 2, 8192
5, 39960, Note_on_c, 2, 71, 0
5, 39960, Note_on_c, 2, 69, 115
5, 40020, Note_on_c, 2, 69, 0
5, 40020, Note_on_c, 2, 71, 115
5, 40080, Note_on_c, 2, 71, 0
5, 40080, Note_on_c, 2, 67, 115
5, 40098, Pitch_bend_c, 2, 8192
5, 40099, Pitch_bend_c, 2, 8320
5, 40101, Pitch_bend_c, 2, 8576
5, 40105, Pitch_bend_c, 2, 8704
5, 40107, Pitch_bend_c, 2, 8832
5, 40112, Pitch_bend_c, 2, 8704
5, 40113, Pitch_bend_c, 2, 8576
5, 40116, Pitch_bend_c, 2, 8448
5, 40118, Pitch_bend_c, 2, 8320
5, 40119, Pitch_bend_c, 2, 8192
5, 40122, Pitch_bend_c, 2, 8064
5, 40123, Pitch_bend_c, 2, 7936
5, 40124, Pitch_bend_c, 2, 7808
5, 40134, Pitch_bend_c, 2, 7936
5, 40135, Pitch_bend_c, 2, 8064
5, 40137, Pitch_bend_c, 2, 8192
5, 40138, Pitch_bend_c, 2, 8320
5, 40142, Pitch_bend_c, 2, 8448
5, 40143, Pitch_bend_c, 2, 8576
5, 40144, Pitch_bend_c, 2, 8704
5, 40147, Pitch_bend_c, 2, 8832
5, 40170, Pitch_bend_c, 2, 8704
5, 40171, Pitch_bend_c, 2, 8576
5, 40173, Pitch_bend_c, 2, 8448
5, 40174, Pitch_bend_c, 2, 8320
5, 40176, Pitch_bend_c, 2, 8192
5, 40180, Pitch_bend_c, 2, 8064
5, 40184, Pitch_bend_c, 2, 7936
5, 40191, Pitch_bend_c, 2, 7808
5, 40200, Pitch_bend_c, 2, 7936
5, 40203, Pitch_bend_c, 2, 8064
5, 40207, Pitch_bend_c, 2, 8192
5, 40210, Pitch_bend_c, 2, 8320
5, 40212, Pitch_bend_c, 2, 8448
5, 40213, Pitch_bend_c, 2, 8576
5, 40215, Pitch_bend_c, 2, 8704
5, 40218, Pitch_bend_c, 2, 8832
5, 40232, Pitch_bend_c, 2, 8704
5, 40238, Pitch_bend_c, 2, 8576
5, 40242, Pitch_bend_c, 2, 8448
5, 40244, Pitch_bend_c, 2, 8320
5, 40246, Pitch_bend_c, 2, 8192
5, 40248, Pitch_bend_c, 2, 8064
5, 40250, Pitch_bend_c, 2, 7936
5, 40252, Pitch_bend_c, 2, 7808
5, 40255, Pitch_bend_c, 2, 7680
5, 40269, Pitch_bend_c, 2, 7808
5, 40274, Pitch_bend_c, 2, 7936
5, 40275, Pitch_bend_c, 2, 8064
5, 40279, Pitch_bend_c, 2, 8192
5, 40282, Pitch_bend_c, 2, 8320
5, 40284, Pitch_bend_c, 2, 8448
5, 40285, Pitch_bend_c, 2, 8576
5, 40297, Pitch_bend_c, 2, 8704
5, 40315, Pitch_bend_c, 2, 8576
5, 40317, Pitch_bend_c, 2, 8448
5, 40320, Pitch_bend_c, 2, 8320
5, 40323, Pitch_bend_c, 2, 8192
5, 40326, Pitch_bend_c, 2, 8064
5, 40327, Pitch_bend_c, 2, 7936
5, 40346, Pitch_bend_c, 2, 8064
5, 40350, Pitch_bend_c, 2, 8192
5, 40351, Pitch_bend_c, 2, 8320
5, 40354, Pitch_bend_c, 2, 8448
5, 40356, Pitch_bend_c, 2, 8576
5, 40357, Pitch_bend_c, 2, 8704
5, 40365, Pitch_bend_c, 2, 8832
5, 40384, Pitch_bend_c, 2, 8704
5, 40386, Pitch_bend_c, 2, 8576
5, 40388, Pitch_bend_c, 2, 8448
5, 40390, Pitch_bend_c, 2, 8320
5, 40392, Pitch_bend_c, 2, 8192
5, 40396, Pitch_bend_c, 2, 7936
5, 40401, Pitch_bend_c, 2, 7808
5, 40419, Pitch_bend_c, 2, 7936
5, 40420, Pitch_bend_c, 2, 8064
5, 40422, Pitch_bend_c, 2, 8192
5, 40423, Pitch_bend_c, 2, 8320
5, 40426, Pitch_bend_c, 2, 8448
5, 40429, Pitch_bend_c, 2, 8576
5, 40431, Pitch_bend_c, 2, 8704
5, 40449, Pitch_bend_c, 2, 8448
5, 40454, Pitch_bend_c, 2, 8320
5, 40458, Pitch_bend_c, 2, 8192
5, 40465, Pitch_bend_c, 2, 8064
5, 40472, Pitch_bend_c, 2, 8192
5, 40474, Pitch_bend_c, 2, 8320
5, 40477, Pitch_bend_c, 2, 8448
5, 40478, Pitch_bend_c, 2, 8576
5, 40482, Pitch_bend_c, 2, 8704
5, 40497, Pitch_bend_c, 2, 8576
5, 40498, Pitch_bend_c, 2, 8192
5, 40500, Note_on_c, 2, 67, 0
5, 40560, Note_on_c, 2, 61, 100
5, 40560, Note_on_c, 2, 57, 100
5, 40560, Note_on_c, 2, 52, 100
5, 40560, Note_on_c, 2, 45, 100
5, 40680, Note_on_c, 2, 45, 0
5, 40680, Note_on_c, 2, 61, 0
5, 40680, Note_on_c, 2, 57, 0
5, 40680, Note_on_c, 2, 52, 0
5, 40680, Note_on_c, 2, 62, 100
5, 40680, Note_on_c, 2, 57, 100
5, 40680, Note_on_c, 2, 52, 100
5, 40680, Note_on_c, 2, 45, 100
5, 40800, Note_on_c, 2, 45, 0
5, 40800, Note_on_c, 2, 62, 0
5, 40800, Note_on_c, 2, 57, 0
5, 40800, Note_on_c, 2, 52, 0
5, 40800, Note_on_c, 2, 64, 100
5, 40800, Note_on_c, 2, 57, 100
5, 40800, Note_on_c, 2, 52, 100
5, 40800, Note_on_c, 2, 45, 100
5, 40870, Note_on_c, 2, 45, 0
5, 40870, Note_on_c, 2, 64, 0
5, 40870, Note_on_c, 2, 57, 0
5, 40870, Note_on_c, 2, 52, 0
5, 40920, Note_on_c, 2, 45, 100
5, 40920, Note_on_c, 2, 52, 100
5, 40920, Note_on_c, 2, 64, 100
5, 40920, Note_on_c, 2, 57, 100
5, 41100, Note_on_c, 2, 57, 0
5, 41100, Note_on_c, 2, 45, 0
5, 41100, Note_on_c, 2, 52, 0
5, 41100, Note_on_c, 2, 64, 0
5, 41100, Note_on_c, 2, 47, 100
5, 41100, Note_on_c, 2, 54, 100
5, 41100, Note_on_c, 2, 59, 100
5, 41100, Note_on_c, 2, 64, 100
5, 41220, Note_on_c, 2, 64, 0
5, 41220, Note_on_c, 2, 47, 0
5, 41220, Note_on_c, 2, 54, 0
5, 41220, Note_on_c, 2, 59, 0
5, 41280, Note_on_c, 2, 60, 100
5, 41280, Note_on_c, 2, 55, 100
5, 41280, Note_on_c, 2, 48, 100
5, 41400, Note_on_c, 2, 48, 0
5, 41400, Note_on_c, 2, 55, 0
5, 41400, Note_on_c, 2, 60, 0
5, 41400, Note_on_c, 2, 62, 100
5, 41400, Note_on_c, 2, 55, 100
5, 41400, Note_on_c, 2, 48, 100
5, 41520, Note_on_c, 2, 48, 0
5, 41520, Note_on_c, 2, 55, 0
5, 41520, Note_on_c, 2, 62, 0
5, 41520, Note_on_c, 2, 64, 100
5, 41520, Note_on_c, 2, 55, 100
5, 41520, Note_on_c, 2, 48, 100
5, 41590, Note_on_c, 2, 48, 0
5, 41590, Note_on_c, 2, 55, 0
5, 41590, Note_on_c, 2, 64, 0
5, 41640, Pitch_bend_c, 2, 8192
5, 41640, Note_on_c, 2, 50, 100
5, 41640, Note_on_c, 2, 57, 100
5, 41640, Note_on_c, 2, 62, 100
5, 41642, Pitch_bend_c, 2, 8576
5, 41643, Pitch_bend_c, 2, 8704
5, 41656, Pitch_bend_c, 2, 8576
5, 41659, Pitch_bend_c, 2, 8448
5, 41661, Pitch_bend_c, 2, 8320
5, 41666, Pitch_bend_c, 2, 8064
5, 41668, Pitch_bend_c, 2, 7936
5, 41670, Pitch_bend_c, 2, 7808
5, 41671, Pitch_bend_c, 2, 7680
5, 41685, Pitch_bend_c, 2, 7936
5, 41688, Pitch_bend_c, 2, 8064
5, 41689, Pitch_bend_c, 2, 8192
5, 41690, Pitch_bend_c, 2, 8320
5, 41691, Pitch_bend_c, 2, 8448
5, 41694, Pitch_bend_c, 2, 8576
5, 41695, Pitch_bend_c, 2, 8704
5, 41698, Pitch_bend_c, 2, 8832
5, 41701, Pitch_bend_c, 2, 8960
5, 41715, Pitch_bend_c, 2, 8832
5, 41720, Pitch_bend_c, 2, 8704
5, 41724, Pitch_bend_c, 2, 8576
5, 41727, Pitch_bend_c, 2, 8448
5, 41728, Pitch_bend_c, 2, 8320
5, 41732, Pitch_bend_c, 2, 8192
5, 41733, Pitch_bend_c, 2, 8064
5, 41738, Pitch_bend_c, 2, 7936
5, 41740, Pitch_bend_c, 2, 7808
5, 41755, Pitch_bend_c, 2, 7936
5, 41760, Pitch_bend_c, 2, 8064
5, 41761, Pitch_bend_c, 2, 8192
5, 41763, Pitch_bend_c, 2, 8320
5, 41766, Pitch_bend_c, 2, 8448
5, 41767, Pitch_bend_c, 2, 8576
5, 41769, Pitch_bend_c, 2, 8704
5, 41775, Pitch_bend_c, 2, 8832
5, 41776, Pitch_bend_c, 2, 8960
5, 41796, Pitch_bend_c, 2, 8832
5, 41798, Pitch_bend_c, 2, 8704
5, 41802, Pitch_bend_c, 2, 8576
5, 41804, Pitch_bend_c, 2, 8448
5, 41806, Pitch_bend_c, 2, 8320
5, 41808, Pitch_bend_c, 2, 8192
5, 41809, Pitch_bend_c, 2, 8064
5, 41811, Pitch_bend_c, 2, 7936
5, 41814, Pitch_bend_c, 2, 7808
5, 41816, Pitch_bend_c, 2, 7680
5, 41820, Pitch_bend_c, 2, 7552
5, 41832, Pitch_bend_c, 2, 7424
5, 41845, Pitch_bend_c, 2, 7552
5, 41848, Pitch_bend_c, 2, 7680
5, 41851, Pitch_bend_c, 2, 7808
5, 41853, Pitch_bend_c, 2, 7936
5, 41858, Pitch_bend_c, 2, 8064
5, 41859, Pitch_bend_c, 2, 8192
5, 41866, Pitch_bend_c, 2, 8320
5, 41870, Pitch_bend_c, 2, 8448
5, 41874, Pitch_bend_c, 2, 8704
5, 41877, Pitch_bend_c, 2, 8832
5, 41878, Pitch_bend_c, 2, 8960
5, 41914, Pitch_bend_c, 2, 8832
5, 41916, Pitch_bend_c, 2, 8576
5, 41918, Pitch_bend_c, 2, 8448
5, 41922, Pitch_bend_c, 2, 8320
5, 41925, Pitch_bend_c, 2, 8192
5, 41940, Note_on_c, 2, 62, 0
5, 41940, Note_on_c, 2, 57, 0
5, 41940, Note_on_c, 2, 50, 0
5, 42000, Note_on_c, 2, 61, 100
5, 42000, Note_on_c, 2, 57, 100
5, 42000, Note_on_c, 2, 52, 100
5, 42000, Note_on_c, 2, 45, 100
5, 42120, Note_on_c, 2, 45, 0
5, 42120, Note_on_c, 2, 61, 0
5, 42120, Note_on_c, 2, 57, 0
5, 42120, Note_on_c, 2, 52, 0
5, 42120, Note_on_c, 2, 62, 100
5, 42120, Note_on_c, 2, 57, 100
5, 42120, Note_on_c, 2, 52, 100
5, 42120, Note_on_c, 2, 45, 100
5, 42240, Note_on_c, 2, 45, 0
5, 42240, Note_on_c, 2, 62, 0
5, 42240, Note_on_c, 2, 57, 0
5, 42240, Note_on_c, 2, 52, 0
5, 42240, Note_on_c, 2, 64, 100
5, 42240, Note_on_c, 2, 57, 100
5, 42240, Note_on_c, 2, 52, 100
5, 42240, Note_on_c, 2, 45, 100
5, 42310, Note_on_c, 2, 45, 0
5, 42310, Note_on_c, 2, 64, 0
5, 42310, Note_on_c, 2, 57, 0
5, 42310, Note_on_c, 2, 52, 0
5, 42360, Note_on_c, 2, 45, 100
5, 42360, Note_on_c, 2, 52, 100
5, 42360, Note_on_c, 2, 64, 100
5, 42360, Note_on_c, 2, 57, 100
5, 42540, Note_on_c, 2, 57, 0
5, 42540, Note_on_c, 2, 45, 0
5, 42540, Note_on_c, 2, 52, 0
5, 42540, Note_on_c, 2, 64, 0
5, 42540, Note_on_c, 2, 47, 100
5, 42540, Note_on_c, 2, 54, 100
5, 42540, Note_on_c, 2, 59, 100
5, 42540, Note_on_c, 2, 64, 100
5, 42660, Note_on_c, 2, 64, 0
5, 42660, Note_on_c, 2, 47, 0
5, 42660, Note_on_c, 2, 54, 0
5, 42660, Note_on_c, 2, 59, 0
5, 42660, Note_on_c, 2, 60, 100
5, 42720, Note_on_c, 2, 60, 0
5, 42720, Note_on_c, 2, 59, 100
5, 42780, Note_on_c, 2, 59, 0
5, 42780, Note_on_c, 2, 57, 100
5, 42840, Note_on_c, 2, 57, 0
5, 42840, Note_on_c, 2, 55, 100
5, 42900, Note_on_c, 2, 55, 0
5, 42900, Note_on_c, 2, 57, 100
5, 42960, Note_on_c, 2, 57, 0
5, 42960, Note_on_c, 2, 59, 100
5, 43020, Note_on_c, 2, 59, 0
5, 43020, Pitch_bend_c, 2, 8192
5, 43020, Note_on_c, 2, 57, 100
5, 43024, Pitch_bend_c, 2, 8448
5, 43027, Pitch_bend_c, 2, 8576
5, 43029, Pitch_bend_c, 2, 8704
5, 43036, Pitch_bend_c, 2, 8832
5, 43045, Pitch_bend_c, 2, 8704
5, 43047, Pitch_bend_c, 2, 8576
5, 43048, Pitch_bend_c, 2, 8448
5, 43050, Pitch_bend_c, 2, 8320
5, 43052, Pitch_bend_c, 2, 8192
5, 43053, Pitch_bend_c, 2, 7936
5, 43054, Pitch_bend_c, 2, 7808
5, 43069, Pitch_bend_c, 2, 8064
5, 43072, Pitch_bend_c, 2, 8192
5, 43075, Pitch_bend_c, 2, 8320
5, 43077, Pitch_bend_c, 2, 8448
5, 43078, Pitch_bend_c, 2, 8576
5, 43084, Pitch_bend_c, 2, 8704
5, 43088, Pitch_bend_c, 2, 8832
5, 43095, Pitch_bend_c, 2, 8960
5, 43102, Pitch_bend_c, 2, 8832
5, 43107, Pitch_bend_c, 2, 8704
5, 43108, Pitch_bend_c, 2, 8576
5, 43111, Pitch_bend_c, 2, 8448
5, 43112, Pitch_bend_c, 2, 8320
5, 43116, Pitch_bend_c, 2, 8192
5, 43118, Pitch_bend_c, 2, 8064
5, 43140, Pitch_bend_c, 2, 8192
5, 43143, Pitch_bend_c, 2, 8320
5, 43144, Pitch_bend_c, 2, 8448
5, 43146, Pitch_bend_c, 2, 8576
5, 43148, Pitch_bend_c, 2, 8704
5, 43173, Pitch_bend_c, 2, 8576
5, 43176, Pitch_bend_c, 2, 8320
5, 43178, Pitch_bend_c, 2, 8192
5, 43180, Pitch_bend_c, 2, 8064
5, 43182, Pitch_bend_c, 2, 7936
5, 43183, Pitch_bend_c, 2, 7808
5, 43184, Pitch_bend_c, 2, 7680
5, 43196, Pitch_bend_c, 2, 7808
5, 43198, Pitch_bend_c, 2, 7936
5, 43200, Pitch_bend_c, 2, 8064
5, 43202, Pitch_bend_c, 2, 8192
5, 43206, Pitch_bend_c, 2, 8448
5, 43212, Pitch_bend_c, 2, 8576
5, 43218, Pitch_bend_c, 2, 8704
5, 43233, Pitch_bend_c, 2, 8832
5, 43248, Pitch_bend_c, 2, 8704
5, 43252, Pitch_bend_c, 2, 8576
5, 43256, Pitch_bend_c, 2, 8448
5, 43257, Pitch_bend_c, 2, 8320
5, 43260, Note_on_c, 2, 57, 0
5, 43261, Pitch_bend_c, 2, 8192
5, 43320, Note_on_c, 2, 61, 100
5, 43320, Note_on_c, 2, 57, 100
5, 43320, Note_on_c, 2, 52, 100
5, 43320, Note_on_c, 2, 45, 100
5, 43440, Note_on_c, 2, 45, 0
5, 43440, Note_on_c, 2, 61, 0
5, 43440, Note_on_c, 2, 57, 0
5, 43440, Note_on_c, 2, 52, 0
5, 43440, Note_on_c, 2, 62, 100
5, 43440, Note_on_c, 2, 57, 100
5, 43440, Note_on_c, 2, 52, 100
5, 43440, Note_on_c, 2, 45, 100
5, 43560, Note_on_c, 2, 45, 0
5, 43560, Note_on_c, 2, 62, 0
5, 43560, Note_on_c, 2, 57, 0
5, 43560, Note_on_c, 2, 52, 0
5, 43560, Note_on_c, 2, 64, 100
5, 43560, Note_on_c, 2, 57, 100
5, 43560, Note_on_c, 2, 52, 100
5, 43560, Note_on_c, 2, 45, 100
5, 43630, Note_on_c, 2, 45, 0
5, 43630, Note_on_c, 2, 64, 0
5, 43630, Note_on_c, 2, 57, 0
5, 43630, Note_on_c, 2, 52, 0
5, 43680, Note_on_c, 2, 45, 100
5, 43680, Note_on_c, 2, 52, 100
5, 43680, Note_on_c, 2, 64, 100
5, 43680, Note_on_c, 2, 57, 100
5, 43860, Note_on_c, 2, 57, 0
5, 43860, Note_on_c, 2, 45, 0
5, 43860, Note_on_c, 2, 52, 0
5, 43860, Note_on_c, 2, 64, 0
5, 43860, Note_on_c, 2, 47, 100
5, 43860, Note_on_c, 2, 54, 100
5, 43860, Note_on_c, 2, 59, 100
5, 43860, Note_on_c, 2, 64, 100
5, 43980, Note_on_c, 2, 64, 0
5, 43980, Note_on_c, 2, 47, 0
5, 43980, Note_on_c, 2, 54, 0
5, 43980, Note_on_c, 2, 59, 0
5, 44040, Note_on_c, 2, 60, 100
5, 44040, Note_on_c, 2, 55, 100
5, 44040, Note_on_c, 2, 48, 100
5, 44160, Note_on_c, 2, 48, 0
5, 44160, Note_on_c, 2, 55, 0
5, 44160, Note_on_c, 2, 60, 0
5, 44160, Note_on_c, 2, 62, 100
5, 44160, Note_on_c, 2, 55, 100
5, 44160, Note_on_c, 2, 48, 100
5, 44280, Note_on_c, 2, 48, 0
5, 44280, Note_on_c, 2, 55, 0
5, 44280, Note_on_c, 2, 62, 0
5, 44280, Note_on_c, 2, 64, 100
5, 44280, Note_on_c, 2, 55, 100
5, 44280, Note_on_c, 2, 48, 100
5, 44350, Note_on_c, 2, 48, 0
5, 44350, Note_on_c, 2, 55, 0
5, 44350, Note_on_c, 2, 64, 0
5, 44400, Note_on_c, 2, 50, 100
5, 44400, Note_on_c, 2, 57, 100
5, 44400, Note_on_c, 2, 62, 100
5, 44403, Pitch_bend_c, 2, 8192
5, 44406, Pitch_bend_c, 2, 8320
5, 44408, Pitch_bend_c, 2, 8448
5, 44410, Pitch_bend_c, 2, 8576
5, 44419, Pitch_bend_c, 2, 8448
5, 44420, Pitch_bend_c, 2, 8320
5, 44421, Pitch_bend_c, 2, 8192
5, 44424, Pitch_bend_c, 2, 8064
5, 44425, Pitch_bend_c, 2, 7808
5, 44438, Pitch_bend_c, 2, 7936
5, 44442, Pitch_bend_c, 2, 8064
5, 44444, Pitch_bend_c, 2, 8192
5, 44445, Pitch_bend_c, 2, 8320
5, 44448, Pitch_bend_c, 2, 8448
5, 44450, Pitch_bend_c, 2, 8576
5, 44454, Pitch_bend_c, 2, 8704
5, 44460, Pitch_bend_c, 2, 8832
5, 44473, Pitch_bend_c, 2, 8704
5, 44474, Pitch_bend_c, 2, 8576
5, 44476, Pitch_bend_c, 2, 8320
5, 44480, Pitch_bend_c, 2, 8192
5, 44482, Pitch_bend_c, 2, 7936
5, 44485, Pitch_bend_c, 2, 7808
5, 44486, Pitch_bend_c, 2, 7680
5, 44487, Pitch_bend_c, 2, 7552
5, 44499, Pitch_bend_c, 2, 7680
5, 44503, Pitch_bend_c, 2, 7808
5, 44505, Pitch_bend_c, 2, 7936
5, 44508, Pitch_bend_c, 2, 8064
5, 44510, Pitch_bend_c, 2, 8192
5, 44512, Pitch_bend_c, 2, 8320
5, 44515, Pitch_bend_c, 2, 8448
5, 44516, Pitch_bend_c, 2, 8576
5, 44522, Pitch_bend_c, 2, 8704
5, 44547, Pitch_bend_c, 2, 8576
5, 44550, Pitch_bend_c, 2, 8448
5, 44551, Pitch_bend_c, 2, 8320
5, 44552, Pitch_bend_c, 2, 8192
5, 44554, Pitch_bend_c, 2, 8064
5, 44556, Pitch_bend_c, 2, 7936
5, 44557, Pitch_bend_c, 2, 7808
5, 44558, Pitch_bend_c, 2, 7680
5, 44560, Pitch_bend_c, 2, 7552
5, 44563, Pitch_bend_c, 2, 7424
5, 44574, Pitch_bend_c, 2, 7552
5, 44577, Pitch_bend_c, 2, 7680
5, 44580, Note_on_c, 2, 62, 0
5, 44580, Note_on_c, 2, 57, 0
5, 44580, Note_on_c, 2, 50, 0
5, 44580, Note_on_c, 2, 50, 100
5, 44580, Note_on_c, 2, 57, 100
5, 44580, Note_on_c, 2, 62, 100
5, 44582, Pitch_bend_c, 2, 7936
5, 44584, Pitch_bend_c, 2, 8064
5, 44586, Pitch_bend_c, 2, 8192
5, 44589, Pitch_bend_c, 2, 8320
5, 44592, Pitch_bend_c, 2, 8448
5, 44599, Pitch_bend_c, 2, 8576
5, 44602, Pitch_bend_c, 2, 8704
5, 44608, Pitch_bend_c, 2, 8832
5, 44610, Pitch_bend_c, 2, 8960
5, 44616, Pitch_bend_c, 2, 8832
5, 44618, Pitch_bend_c, 2, 8704
5, 44619, Pitch_bend_c, 2, 8576
5, 44622, Pitch_bend_c, 2, 8320
5, 44625, Pitch_bend_c, 2, 8064
5, 44629, Pitch_bend_c, 2, 7936
5, 44631, Pitch_bend_c, 2, 7808
5, 44637, Pitch_bend_c, 2, 7680
5, 44644, Pitch_bend_c, 2, 7808
5, 44646, Pitch_bend_c, 2, 7936
5, 44648, Pitch_bend_c, 2, 8192
5, 44650, Pitch_bend_c, 2, 8448
5, 44654, Pitch_bend_c, 2, 8576
5, 44655, Pitch_bend_c, 2, 8704
5, 44664, Pitch_bend_c, 2, 8832
5, 44686, Pitch_bend_c, 2, 8704
5, 44694, Pitch_bend_c, 2, 8576
5, 44696, Pitch_bend_c, 2, 8448
5, 44697, Pitch_bend_c, 2, 8320
5, 44698, Pitch_bend_c, 2, 8064
5, 44700, Note_on_c, 2, 62, 0
5, 44700, Note_on_c, 2, 57, 0
5, 44700, Note_on_c, 2, 50, 0
5, 44700, Pitch_bend_c, 2, 8192
5, 44760, Note_on_c, 2, 65, 100
5, 44760, Note_on_c, 2, 57, 100
5, 44760, Note_on_c, 2, 53, 100
5, 44880, Note_on_c, 2, 53, 0
5, 44880, Note_on_c, 2, 57, 0
5, 44880, Note_on_c, 2, 65, 0
5, 44880, Note_on_c, 2, 67, 100
5, 44880, Note_on_c, 2, 57, 100
5, 44880, Note_on_c, 2, 53, 100
5, 45000, Note_on_c, 2, 53, 0
5, 45000, Note_on_c, 2, 57, 0
5, 45000, Note_on_c, 2, 67, 0
5, 45000, Note_on_c, 2, 69, 100
5, 45000, Note_on_c, 2, 57, 100
5, 45000, Note_on_c, 2, 53, 100
5, 45070, Note_on_c, 2, 53, 0
5, 45070, Note_on_c, 2, 57, 0
5, 45070, Note_on_c, 2, 69, 0
5, 45120, Note_on_c, 2, 53, 100
5, 45120, Note_on_c, 2, 69, 100
5, 45120, Note_on_c, 2, 57, 100
5, 45300, Note_on_c, 2, 57, 0
5, 45300, Note_on_c, 2, 69, 0
5, 45300, Note_on_c, 2, 53, 0
5, 45300, Note_on_c, 2, 55, 100
5, 45300, Note_on_c, 2, 59, 100
5, 45300, Note_on_c, 2, 71, 100
5, 45420, Note_on_c, 2, 71, 0
5, 45420, Note_on_c, 2, 59, 0
5, 45420, Note_on_c, 2, 55, 0
5, 45420, Note_on_c, 2, 60, 100
5, 45420, Note_on_c, 2, 67, 100
5, 45420, Note_on_c, 2, 72, 100
5, 45598, Pitch_bend_c, 2, 8320
5, 45600, Note_on_c, 2, 72, 0
5, 45600, Note_on_c, 2, 67, 0
5, 45600, Note_on_c, 2, 60, 0
5, 45600, Note_on_c, 2, 60, 100
5, 45600, Note_on_c, 2, 67, 100
5, 45600, Note_on_c, 2, 72, 100
5, 45602, Pitch_bend_c, 2, 8448
5, 45606, Pitch_bend_c, 2, 8576
5, 45610, Pitch_bend_c, 2, 8832
5, 45614, Pitch_bend_c, 2, 8960
5, 45618, Pitch_bend_c, 2, 8832
5, 45619, Pitch_bend_c, 2, 8704
5, 45621, Pitch_bend_c, 2, 8576
5, 45622, Pitch_bend_c, 2, 8320
5, 45626, Pitch_bend_c, 2, 8192
5, 45628, Pitch_bend_c, 2, 8064
5, 45631, Pitch_bend_c, 2, 7936
5, 45632, Pitch_bend_c, 2, 7808
5, 45633, Pitch_bend_c, 2, 7680
5, 45634, Pitch_bend_c, 2, 7552
5, 45639, Pitch_bend_c, 2, 7680
5, 45643, Pitch_bend_c, 2, 7808
5, 45648, Pitch_bend_c, 2, 7936
5, 45649, Pitch_bend_c, 2, 8064
5, 45652, Pitch_bend_c, 2, 8320
5, 45656, Pitch_bend_c, 2, 8576
5, 45658, Pitch_bend_c, 2, 8704
5, 45661, Pitch_bend_c, 2, 8832
5, 45663, Pitch_bend_c, 2, 8960
5, 45672, Pitch_bend_c, 2, 8832
5, 45673, Pitch_bend_c, 2, 8704
5, 45674, Pitch_bend_c, 2, 8576
5, 45675, Pitch_bend_c, 2, 8320
5, 45676, Pitch_bend_c, 2, 8192
5, 45679, Pitch_bend_c, 2, 8064
5, 45681, Pitch_bend_c, 2, 7936
5, 45693, Pitch_bend_c, 2, 8064
5, 45696, Pitch_bend_c, 2, 8192
5, 45698, Pitch_bend_c, 2, 8320
5, 45699, Pitch_bend_c, 2, 8448
5, 45702, Pitch_bend_c, 2, 8576
5, 45704, Pitch_bend_c, 2, 8704
5, 45708, Pitch_bend_c, 2, 8960
5, 45709, Pitch_bend_c, 2, 9088
5, 45714, Pitch_bend_c, 2, 8832
5, 45717, Pitch_bend_c, 2, 8576
5, 45720, Pitch_bend_c, 2, 8448
5, 45722, Pitch_bend_c, 2, 8320
5, 45727, Pitch_bend_c, 2, 8192
5, 45729, Pitch_bend_c, 2, 8064
5, 45732, Pitch_bend_c, 2, 7936
5, 45734, Pitch_bend_c, 2, 7808
5, 45741, Pitch_bend_c, 2, 7936
5, 45744, Pitch_bend_c, 2, 8064
5, 45745, Pitch_bend_c, 2, 8192
5, 45750, Pitch_bend_c, 2, 8320
5, 45751, Pitch_bend_c, 2, 8448
5, 45752, Pitch_bend_c, 2, 8576
5, 45774, Pitch_bend_c, 2, 8448
5, 45776, Pitch_bend_c, 2, 8320
5, 45777, Pitch_bend_c, 2, 8192
5, 45780, Note_on_c, 2, 72, 0
5, 45780, Note_on_c, 2, 67, 0
5, 45780, Note_on_c, 2, 60, 0
5, 45780, Pitch_bend_c, 2, 8064
5, 45780, Note_on_c, 2, 62, 100
5, 45780, Note_on_c, 2, 69, 100
5, 45780, Note_on_c, 2, 74, 100
5, 45782, Pitch_bend_c, 2, 8192
5, 46380, Note_on_c, 2, 74, 0
5, 46380, Note_on_c, 2, 69, 0
5, 46380, Note_on_c, 2, 62, 0
5, 46380, Control_c, 2, 64, 127
5, 46380, Note_on_c, 2, 40, 80
5, 46500, Note_on_c, 2, 40, 0
5, 46500, Note_on_c, 2, 47, 80
5, 46620, Note_on_c, 2, 47, 0
5, 46620, Note_on_c, 2, 52, 80
5, 46740, Note_on_c, 2, 52, 0
5, 46740, Note_on_c, 2, 64, 80
5, 46860, Note_on_c, 2, 64, 0
5, 46860, Note_on_c, 2, 59, 80
5, 46980, Note_on_c, 2, 59, 0
5, 46980, Note_on_c, 2, 56, 80
5, 47100, Note_on_c, 2, 56, 0
5, 47100, Note_on_c, 2, 52, 80
5, 47220, Note_on_c, 2, 52, 0
5, 47220, Note_on_c, 2, 47, 80
5, 47310, Control_c, 2, 64, 0
5, 47340, Note_on_c, 2, 47, 0
5, 47340, Control_c, 2, 64, 127
5, 47340, Note_on_c, 2, 47, 80
5, 47460, Note_on_c, 2, 47, 0
5, 47460, Note_on_c, 2, 54, 80
5, 47580, Note_on_c, 2, 54, 0
5, 47580, Note_on_c, 2, 59, 80
5, 47700, Note_on_c, 2, 59, 0
5, 47700, Note_on_c, 2, 64, 80
5, 47820, Note_on_c, 2, 64, 0
5, 47820, Note_on_c, 2, 62, 80
5, 47940, Note_on_c, 2, 62, 0
5, 47940, Note_on_c, 2, 59, 80
5, 48060, Note_on_c, 2, 59, 0
5, 48060, Note_on_c, 2, 50, 80
5, 48180, Note_on_c, 2, 50, 0
5, 48180, Note_on_c, 2, 47, 80
5, 48270, Control_c, 2, 64, 0
5, 48300, Note_on_c, 2, 47, 0
5, 48300, Control_c, 2, 64, 127
5, 48300, Note_on_c, 2, 40, 80
5, 48420, Note_on_c, 2, 40, 0
5, 48420, Note_on_c, 2, 47, 80
5, 48540, Note_on_c, 2, 47, 0
5, 48540, Note_on_c, 2, 64, 80
5, 48660, Note_on_c, 2, 64, 0
5, 48660, Note_on_c, 2, 59, 80
5, 48750, Control_c, 2, 64, 0
5, 48780, Note_on_c, 2, 59, 0
5, 48780, Control_c, 2, 64, 127
5, 48780, Note_on_c, 2, 45, 80
5, 48900, Note_on_c, 2, 45, 0
5, 48900, Note_on_c, 2, 52, 80
5, 49020, Note_on_c, 2, 52, 0
5, 49020, Note_on_c, 2, 59, 80
5, 49140, Note_on_c, 2, 59, 0
5, 49140, Note_on_c, 2, 57, 80
5, 49230, Control_c, 2, 64, 0
5, 49260, Note_on_c, 2, 57, 0
5, 49260, Control_c, 2, 64, 127
5, 49260, Note_on_c, 2, 50, 80
5, 49380, Note_on_c, 2, 50, 0
5, 49380, Note_on_c, 2, 57, 80
5, 49500, Note_on_c, 2, 57, 0
5, 49500, Note_on_c, 2, 62, 80
5, 49620, Note_on_c, 2, 62, 0
5, 49620, Note_on_c, 2, 69, 80
5, 49740, Note_on_c, 2, 69, 0
5, 49740, Note_on_c, 2, 64, 80
5, 49860, Note_on_c, 2, 64, 0
5, 49860, Note_on_c, 2, 62, 80
5, 49980, Note_on_c, 2, 62, 0
5, 49980, Note_on_c, 2, 57, 80
5, 50100, Note_on_c, 2, 57, 0
5, 50100, Note_on_c, 2, 50, 80
5, 50190, Control_c, 2, 64, 0
5, 50220, Note_on_c, 2, 50, 0
5, 50220, Control_c, 2, 64, 127
5, 50220, Note_on_c, 2, 40, 80
5, 50340, Note_on_c, 2, 40, 0
5, 50340, Note_on_c, 2, 47, 80
5, 50460, Note_on_c, 2, 47, 0
5, 50460, Note_on_c, 2, 52, 80
5, 50580, Note_on_c, 2, 52, 0
5, 50580, Note_on_c, 2, 64, 80
5, 50700, Note_on_c, 2, 64, 0
5, 50700, Note_on_c, 2, 59, 80
5, 50820, Note_on_c, 2, 59, 0
5, 50820, Note_on_c, 2, 56, 80
5, 50940, Note_on_c, 2, 56, 0
5, 50940, Note_on_c, 2, 52, 80
5, 51060, Note_on_c, 2, 52, 0
5, 51060, Note_on_c, 2, 47, 80
5, 51150, Control_c, 2, 64, 0
5, 51180, Note_on_c, 2, 47, 0
5, 51180, Note_on_c, 2, 47, 80
5, 51180, Control_c, 2, 64, 127
5, 51300, Note_on_c, 2, 47, 0
5, 51300, Note_on_c, 2, 54, 80
5, 51420, Note_on_c, 2, 54, 0
5, 51420, Note_on_c, 2, 59, 80
5, 51540, Note_on_c, 2, 59, 0
5, 51540, Note_on_c, 2, 64, 80
5, 51660, Note_on_c, 2, 64, 0
5, 51660, Note_on_c, 2, 62, 80
5, 51780, Note_on_c, 2, 62, 0
5, 51780, Note_on_c, 2, 59, 80
5, 51900, Note_on_c, 2, 59, 0
5, 51900, Note_on_c, 2, 50, 80
5, 52020, Note_on_c, 2, 50, 0
5, 52020, Note_on_c, 2, 47, 80
5, 52110, Control_c, 2, 64, 0
5, 52140, Note_on_c, 2, 47, 0
5, 52140, Note_on_c, 2, 40, 80
5, 52140, Control_c, 2, 64, 127
5, 52260, Note_on_c, 2, 40, 0
5, 52260, Note_on_c, 2, 47, 80
5, 52380, Note_on_c, 2, 47, 0
5, 52380, Note_on_c, 2, 64, 80
5, 52500, Note_on_c, 2, 64, 0
5, 52500, Note_on_c, 2, 59, 80
5, 52590, Control_c, 2, 64, 0
5, 52620, Note_on_c, 2, 59, 0
5, 52620, Note_on_c, 2, 45, 80
5, 52620, Control_c, 2, 64, 127
5, 52740, Note_on_c, 2, 45, 0
5, 52740, Note_on_c, 2, 52, 80
5, 52860, Note_on_c, 2, 52, 0
5, 52860, Note_on_c, 2, 59, 80
5, 52980, Note_on_c, 2, 59, 0
5, 52980, Note_on_c, 2, 57, 80
5, 53070, Control_c, 2, 64, 0
5, 53100, Note_on_c, 2, 57, 0
5, 53100, Note_on_c, 2, 50, 80
5, 53100, Control_c, 2, 64, 127
5, 53220, Note_on_c, 2, 50, 0
5, 53220, Note_on_c, 2, 57, 80
5, 53340, Note_on_c, 2, 57, 0
5, 53340, Note_on_c, 2, 62, 80
5, 53460, Note_on_c, 2, 62, 0
5, 53460, Note_on_c, 2, 69, 80
5, 53580, Note_on_c, 2, 69, 0
5, 53580, Note_on_c, 2, 64, 80
5, 53700, Note_on_c, 2, 64, 0
5, 53700, Note_on_c, 2, 67, 100
5, 53880, Note_on_c, 2, 67, 0
5, 53880, Control_c, 2, 64, 0
5, 53880, Note_on_c, 2, 66, 100
5, 54060, Note_on_c, 2, 66, 0
5, 54120, Note_on_c, 2, 52, 100
5, 54240, Note_on_c, 2, 52, 0
5, 54240, Note_on_c, 2, 53, 100
5, 54330, Note_on_c, 2, 53, 0
5, 54360, Note_on_c, 2, 50, 100
5, 54435, Note_on_c, 2, 50, 0
5, 54480, Note_on_c, 2, 52, 100
5, 54660, Note_on_c, 2, 52, 0
5, 54660, Note_on_c, 2, 47, 100
5, 54840, Note_on_c, 2, 47, 0
5, 54840, Note_on_c, 2, 50, 100
5, 55020, Note_on_c, 2, 50, 0
5, 55020, Note_on_c, 2, 52, 100
5, 55110, Note_on_c, 2, 52, 0
5, 55140, Note_on_c, 2, 53, 100
5, 55200, Note_on_c, 2, 53, 0
5, 55200, Note_on_c, 2, 52, 100
5, 55350, Note_on_c, 2, 52, 0
5, 55380, Note_on_c, 2, 52, 100
5, 55500, Note_on_c, 2, 52, 0
5, 55500, Note_on_c, 2, 53, 100
5, 55590, Note_on_c, 2, 53, 0
5, 55620, Note_on_c, 2, 50, 100
5, 55695, Note_on_c, 2, 50, 0
5, 55740, Note_on_c, 2, 52, 100
5, 55920, Note_on_c, 2, 52, 0
5, 55920, Note_on_c, 2, 47, 100
5, 56100, Note_on_c, 2, 47, 0
5, 56100, Note_on_c, 2, 50, 100
5, 56280, Note_on_c, 2, 50, 0
5, 56280, Note_on_c, 2, 45, 100
5, 56340, Note_on_c, 2, 45, 0
5, 56340, Note_on_c, 2, 44, 100
5, 56400, Note_on_c, 2, 44, 0
5, 56400, Note_on_c, 2, 45, 100
5, 56460, Note_on_c, 2, 45, 0
5, 56460, Note_on_c, 2, 47, 100
5, 56520, Note_on_c, 2, 47, 0
5, 56520, Note_on_c, 2, 45, 100
5, 56580, Note_on_c, 2, 45, 0
5, 56580, Note_on_c, 2, 44, 100
5, 56640, Note_on_c, 2, 44, 0
5, 56640, Note_on_c, 2, 50, 100
5, 56700, Note_on_c, 2, 50, 0
5, 56700, Note_on_c, 2, 52, 100
5, 56745, Note_on_c, 2, 52, 0
5, 56760, Note_on_c, 2, 52, 100
5, 56880, Note_on_c, 2, 52, 0
5, 56880, Note_on_c, 2, 53, 100
5, 56970, Note_on_c, 2, 53, 0
5, 57000, Note_on_c, 2, 50, 100
5, 57075, Note_on_c, 2, 50, 0
5, 57120, Note_on_c, 2, 52, 100
5, 57300, Note_on_c, 2, 52, 0
5, 57300, Note_on_c, 2, 47, 100
5, 57480, Note_on_c, 2, 47, 0
5, 57480, Note_on_c, 2, 50, 100
5, 57660, Note_on_c, 2, 50, 0
5, 57660, Note_on_c, 2, 52, 100
5, 57750, Note_on_c, 2, 52, 0
5, 57780, Note_on_c, 2, 53, 100
5, 57840, Note_on_c, 2, 53, 0
5, 57840, Note_on_c, 2, 52, 100
5, 57990, Note_on_c, 2, 52, 0
5, 58020, Note_on_c, 2, 52, 100
5, 58140, Note_on_c, 2, 52, 0
5, 58140, Note_on_c, 2, 53, 100
5, 58230, Note_on_c, 2, 53, 0
5, 58260, Note_on_c, 2, 50, 100
5, 58335, Note_on_c, 2, 50, 0
5, 58380, Note_on_c, 2, 52, 100
5, 58560, Note_on_c, 2, 52, 0
5, 58560, Note_on_c, 2, 47, 100
5, 58740, Note_on_c, 2, 47, 0
5, 58740, Note_on_c, 2, 50, 100
5, 58920, Note_on_c, 2, 50, 0
5, 58980, Note_on_c, 2, 44, 100
5, 59060, Note_on_c, 2, 44, 0
5, 59100, Note_on_c, 2, 45, 100
5, 59160, Note_on_c, 2, 45, 0
5, 59160, Note_on_c, 2, 47, 100
5, 59280, Note_on_c, 2, 47, 0
5, 59340, Note_on_c, 2, 48, 100
5, 59420, Note_on_c, 2, 48, 0
5, 59460, Note_on_c, 2, 50, 100
5, 59520, Note_on_c, 2, 50, 0
5, 59520, Note_on_c, 2, 52, 100
5, 59640, Note_on_c, 2, 52, 0
5, 59760, Note_on_c, 2, 57, 100
5, 59820, Note_on_c, 2, 57, 0
5, 59820, Note_on_c, 2, 60, 100
5, 59880, Note_on_c, 2, 60, 0
5, 59880, Note_on_c, 2, 63, 100
5, 59920, Note_on_c, 2, 63, 0
5, 59920, Note_on_c, 2, 62, 90
5, 59960, Note_on_c, 2, 62, 0
5, 59960, Note_on_c, 2, 60, 80
5, 60000, Note_on_c, 2, 60, 0
5, 60000, Note_on_c, 2, 54, 100
5, 60040, Pitch_bend_c, 2, 8192
5, 60044, Pitch_bend_c, 2, 8320
5, 60046, Pitch_bend_c, 2, 8448
5, 60050, Pitch_bend_c, 2, 8576
5, 60072, Pitch_bend_c, 2, 8320
5, 60074, Pitch_bend_c, 2, 8192
5, 60082, Pitch_bend_c, 2, 7936
5, 60086, Pitch_bend_c, 2, 7680
5, 60091, Pitch_bend_c, 2, 7808
5, 60093, Pitch_bend_c, 2, 7936
5, 60097, Pitch_bend_c, 2, 8064
5, 60104, Pitch_bend_c, 2, 8192
5, 60105, Pitch_bend_c, 2, 8320
5, 60108, Pitch_bend_c, 2, 8448
5, 60111, Pitch_bend_c, 2, 8576
5, 60112, Pitch_bend_c, 2, 8704
5, 60114, Pitch_bend_c, 2, 8832
5, 60118, Pitch_bend_c, 2, 8960
5, 60129, Pitch_bend_c, 2, 8832
5, 60130, Pitch_bend_c, 2, 8704
5, 60136, Pitch_bend_c, 2, 8448
5, 60140, Pitch_bend_c, 2, 8320
5, 60142, Pitch_bend_c, 2, 8192
5, 60145, Pitch_bend_c, 2, 8064
5, 60147, Pitch_bend_c, 2, 7936
5, 60151, Pitch_bend_c, 2, 7808
5, 60160, Pitch_bend_c, 2, 7936
5, 60163, Pitch_bend_c, 2, 8064
5, 60165, Pitch_bend_c, 2, 8192
5, 60169, Pitch_bend_c, 2, 8320
5, 60170, Pitch_bend_c, 2, 8448
5, 60176, Pitch_bend_c, 2, 8576
5, 60178, Pitch_bend_c, 2, 8704
5, 60181, Pitch_bend_c, 2, 8832
5, 60184, Pitch_bend_c, 2, 8704
5, 60188, Pitch_bend_c, 2, 8576
5, 60192, Pitch_bend_c, 2, 8320
5, 60196, Pitch_bend_c, 2, 7936
5, 60199, Pitch_bend_c, 2, 7808
5, 60201, Pitch_bend_c, 2, 7680
5, 60204, Pitch_bend_c, 2, 7552
5, 60218, Pitch_bend_c, 2, 7680
5, 60220, Pitch_bend_c, 2, 7808
5, 60223, Pitch_bend_c, 2, 7936
5, 60225, Pitch_bend_c, 2, 8064
5, 60228, Pitch_bend_c, 2, 8192
5, 60230, Pitch_bend_c, 2, 8320
5, 60238, Pitch_bend_c, 2, 8192
5, 60240, Note_on_c, 2, 54, 0
5, 60300, Note_on_c, 2, 60, 100
5, 60360, Note_on_c, 2, 60, 0
5, 60360, Note_on_c, 2, 62, 100
5, 60421, Pitch_bend_c, 2, 8192
5, 60422, Pitch_bend_c, 2, 8576
5, 60423, Pitch_bend_c, 2, 8960
5, 60424, Pitch_bend_c, 2, 9344
5, 60426, Pitch_bend_c, 2, 9728
5, 60427, Pitch_bend_c, 2, 10112
5, 60428, Pitch_bend_c, 2, 10496
5, 60429, Pitch_bend_c, 2, 10880
5, 60430, Pitch_bend_c, 2, 11264
5, 60432, Pitch_bend_c, 2, 11648
5, 60433, Pitch_bend_c, 2, 12032
5, 60434, Pitch_bend_c, 2, 12416
5, 60435, Pitch_bend_c, 2, 12800
5, 60436, Pitch_bend_c, 2, 13184
5, 60438, Pitch_bend_c, 2, 13568
5, 60439, Pitch_bend_c, 2, 13952
5, 60440, Pitch_bend_c, 2, 14336
5, 60441, Pitch_bend_c, 2, 14720
5, 60442, Pitch_bend_c, 2, 15104
5, 60444, Pitch_bend_c, 2, 15488
5, 60445, Pitch_bend_c, 2, 15872
5, 60446, Pitch_bend_c, 2, 16383
5, 60480, Note_on_c, 2, 62, 0
5, 60481, Pitch_bend_c, 2, 8192
5, 60481, Note_on_c, 2, 69, 80
5, 60540, Note_on_c, 2, 69, 0
5, 60540, Note_on_c, 2, 69, 120
5, 60601, Pitch_bend_c, 2, 8192
5, 60602, Pitch_bend_c, 2, 7808
5, 60603, Pitch_bend_c, 2, 7296
5, 60604, Pitch_bend_c, 2, 6912
5, 60606, Pitch_bend_c, 2, 6400
5, 60607, Pitch_bend_c, 2, 6016
5, 60608, Pitch_bend_c, 2, 5504
5, 60609, Pitch_bend_c, 2, 5120
5, 60610, Pitch_bend_c, 2, 4608
5, 60612, Pitch_bend_c, 2, 4224
5, 60764, Pitch_bend_c, 2, 4352
5, 60765, Pitch_bend_c, 2, 4608
5, 60766, Pitch_bend_c, 2, 4864
5, 60768, Pitch_bend_c, 2, 5120
5, 60769, Pitch_bend_c, 2, 5376
5, 60770, Pitch_bend_c, 2, 5632
5, 60771, Pitch_bend_c, 2, 5888
5, 60772, Pitch_bend_c, 2, 6144
5, 60774, Pitch_bend_c, 2, 6400
5, 60775, Pitch_bend_c, 2, 6656
5, 60776, Pitch_bend_c, 2, 6912
5, 60777, Pitch_bend_c, 2, 7168
5, 60778, Pitch_bend_c, 2, 7424
5, 60780, Pitch_bend_c, 2, 7680
5, 60781, Pitch_bend_c, 2, 7936
5, 60782, Pitch_bend_c, 2, 8192
5, 60831, Pitch_bend_c, 2, 8192
5, 60837, Pitch_bend_c, 2, 8320
5, 60846, Pitch_bend_c, 2, 8448
5, 60847, Pitch_bend_c, 2, 8576
5, 60849, Pitch_bend_c, 2, 8704
5, 60850, Pitch_bend_c, 2, 8832
5, 60853, Pitch_bend_c, 2, 8960
5, 60856, Pitch_bend_c, 2, 9088
5, 60864, Pitch_bend_c, 2, 8960
5, 60865, Pitch_bend_c, 2, 8832
5, 60866, Pitch_bend_c, 2, 8704
5, 60870, Pitch_bend_c, 2, 8448
5, 60877, Pitch_bend_c, 2, 8064
5, 60904, Pitch_bend_c, 2, 8192
5, 60906, Pitch_bend_c, 2, 8320
5, 60908, Pitch_bend_c, 2, 8448
5, 60910, Pitch_bend_c, 2, 8576
5, 60913, Pitch_bend_c, 2, 8704
5, 60915, Pitch_bend_c, 2, 8832
5, 60918, Pitch_bend_c, 2, 8960
5, 60921, Pitch_bend_c, 2, 9088
5, 60922, Pitch_bend_c, 2, 9216
5, 60934, Pitch_bend_c, 2, 9088
5, 60939, Pitch_bend_c, 2, 8960
5, 60942, Pitch_bend_c, 2, 8832
5, 60944, Pitch_bend_c, 2, 8704
5, 60948, Pitch_bend_c, 2, 8448
5, 60955, Pitch_bend_c, 2, 8320
5, 60960, Pitch_bend_c, 2, 8192
5, 60963, Pitch_bend_c, 2, 8064
5, 60980, Pitch_bend_c, 2, 8192
5, 60981, Pitch_bend_c, 2, 8320
5, 60982, Pitch_bend_c, 2, 8448
5, 60984, Pitch_bend_c, 2, 8576
5, 60986, Pitch_bend_c, 2, 8704
5, 60987, Pitch_bend_c, 2, 8832
5, 60991, Pitch_bend_c, 2, 8960
5, 60992, Pitch_bend_c, 2, 9088
5, 60994, Pitch_bend_c, 2, 9216
5, 60998, Pitch_bend_c, 2, 9344
5, 61010, Pitch_bend_c, 2, 9216
5, 61014, Pitch_bend_c, 2, 9088
5, 61017, Pitch_bend_c, 2, 8960
5, 61020, Pitch_bend_c, 2, 8704
5, 61026, Pitch_bend_c, 2, 8448
5, 61030, Pitch_bend_c, 2, 8192
5, 61035, Pitch_bend_c, 2, 8064
5, 61039, Pitch_bend_c, 2, 7936
5, 61041, Pitch_bend_c, 2, 7808
5, 61047, Pitch_bend_c, 2, 7680
5, 61062, Pitch_bend_c, 2, 7808
5, 61065, Pitch_bend_c, 2, 7936
5, 61068, Pitch_bend_c, 2, 8064
5, 61071, Pitch_bend_c, 2, 8192
5, 61074, Pitch_bend_c, 2, 8320
5, 61076, Pitch_bend_c, 2, 8448
5, 61080, Note_on_c, 2, 69, 0
5, 61081, Pitch_bend_c, 2, 8576
5, 61090, Pitch_bend_c, 2, 8704
5, 61093, Pitch_bend_c, 2, 8832
5, 61105, Pitch_bend_c, 2, 8704
5, 61108, Pitch_bend_c, 2, 8576
5, 61112, Pitch_bend_c, 2, 8320
5, 61117, Pitch_bend_c, 2, 8192
5, 61118, Pitch_bend_c, 2, 8064
5, 61119, Pitch_bend_c, 2, 7936
5, 61123, Pitch_bend_c, 2, 7808
5, 61124, Pitch_bend_c, 2, 7680
5, 61130, Pitch_bend_c, 2, 7552
5, 61140, Note_on_c, 2, 67, 100
5, 61147, Pitch_bend_c, 2, 7680
5, 61148, Pitch_bend_c, 2, 7808
5, 61150, Pitch_bend_c, 2, 7936
5, 61153, Pitch_bend_c, 2, 8064
5, 61155, Pitch_bend_c, 2, 8192
5, 61164, Pitch_bend_c, 2, 8320
5, 61182, Pitch_bend_c, 2, 8192
5, 61184, Pitch_bend_c, 2, 8064
5, 61186, Pitch_bend_c, 2, 7936
5, 61190, Pitch_bend_c, 2, 8448
5, 61201, Pitch_bend_c, 2, 8192
5, 61202, Pitch_bend_c, 2, 7680
5, 61203, Pitch_bend_c, 2, 7040
5, 61204, Pitch_bend_c, 2, 6528
5, 61206, Pitch_bend_c, 2, 5888
5, 61207, Pitch_bend_c, 2, 5376
5, 61208, Pitch_bend_c, 2, 4736
5, 61209, Pitch_bend_c, 2, 4096
5, 61230, Note_on_c, 2, 67, 0
5, 61230, Note_on_c, 2, 64, 100
5, 61231, Pitch_bend_c, 2, 8192
5, 61260, Note_on_c, 2, 64, 0
5, 61260, Note_on_c, 2, 62, 100
5, 61320, Note_on_c, 2, 62, 0
5, 61320, Note_on_c, 2, 64, 100
5, 61380, Note_on_c, 2, 64, 0
5, 61380, Note_on_c, 2, 60, 100
5, 61440, Note_on_c, 2, 60, 0
5, 61440, Note_on_c, 2, 57, 100
5, 61500, Note_on_c, 2, 57, 0
5, 61500, Note_on_c, 2, 60, 100
5, 61560, Note_on_c, 2, 60, 0
5, 61560, Note_on_c, 2, 64, 100
5, 61620, Note_on_c, 2, 64, 0
5, 61620, Note_on_c, 2, 69, 100
5, 61680, Note_on_c, 2, 69, 0
5, 61680, Note_on_c, 2, 72, 100
5, 61740, Note_on_c, 2, 72, 0
5, 61740, Note_on_c, 2, 69, 100
5, 61800, Note_on_c, 2, 69, 0
5, 61800, Note_on_c, 2, 71, 100
5, 61860, Note_on_c, 2, 71, 0
5, 61860, Note_on_c, 2, 72, 100
5, 61890, Note_on_c, 2, 72, 0
5, 61890, Note_on_c, 2, 71, 100
5, 61920, Note_on_c, 2, 71, 0
5, 61920, Note_on_c, 2, 69, 100
5, 61980, Note_on_c, 2, 69, 0
5, 61980, Note_on_c, 2, 64, 100
5, 62040, Note_on_c, 2, 64, 0
5, 62040, Note_on_c, 2, 68, 100
5, 62100, Note_on_c, 2, 68, 0
5, 62100, Note_on_c, 2, 64, 100
5, 62155, Pitch_bend_c, 2, 8320
5, 62157, Pitch_bend_c, 2, 8448
5, 62158, Pitch_bend_c, 2, 8576
5, 62160, Pitch_bend_c, 2, 8704
5, 62161, Pitch_bend_c, 2, 8832
5, 62162, Pitch_bend_c, 2, 8960
5, 62163, Pitch_bend_c, 2, 9088
5, 62164, Pitch_bend_c, 2, 9216
5, 62166, Pitch_bend_c, 2, 9344
5, 62167, Pitch_bend_c, 2, 9472
5, 62168, Pitch_bend_c, 2, 9600
5, 62170, Pitch_bend_c, 2, 9728
5, 62172, Pitch_bend_c, 2, 9856
5, 62173, Pitch_bend_c, 2, 9984
5, 62174, Pitch_bend_c, 2, 10112
5, 62175, Pitch_bend_c, 2, 10240
5, 62176, Pitch_bend_c, 2, 10368
5, 62178, Pitch_bend_c, 2, 10496
5, 62179, Pitch_bend_c, 2, 10624
5, 62180, Pitch_bend_c, 2, 10752
5, 62181, Pitch_bend_c, 2, 10880
5, 62184, Pitch_bend_c, 2, 11008
5, 62185, Pitch_bend_c, 2, 11136
5, 62186, Pitch_bend_c, 2, 11264
5, 62187, Pitch_bend_c, 2, 11392
5, 62188, Pitch_bend_c, 2, 11520
5, 62190, Pitch_bend_c, 2, 11648
5, 62191, Pitch_bend_c, 2, 11776
5, 62192, Pitch_bend_c, 2, 11904
5, 62193, Pitch_bend_c, 2, 12032
5, 62194, Pitch_bend_c, 2, 12160
5, 62196, Pitch_bend_c, 2, 12288
5, 62223, Pitch_bend_c, 2, 12288
5, 62224, Pitch_bend_c, 2, 12032
5, 62226, Pitch_bend_c, 2, 11776
5, 62227, Pitch_bend_c, 2, 11520
5, 62228, Pitch_bend_c, 2, 11264
5, 62229, Pitch_bend_c, 2, 10880
5, 62230, Pitch_bend_c, 2, 10624
5, 62232, Pitch_bend_c, 2, 10368
5, 62233, Pitch_bend_c, 2, 10112
5, 62234, Pitch_bend_c, 2, 9856
5, 62235, Pitch_bend_c, 2, 9472
5, 62236, Pitch_bend_c, 2, 9216
5, 62238, Pitch_bend_c, 2, 8960
5, 62239, Pitch_bend_c, 2, 8704
5, 62240, Pitch_bend_c, 2, 8448
5, 62241, Pitch_bend_c, 2, 8064
5, 62242, Pitch_bend_c, 2, 8192
5, 62287, Pitch_bend_c, 2, 8192
5, 62289, Pitch_bend_c, 2, 8320
5, 62290, Pitch_bend_c, 2, 8448
5, 62292, Pitch_bend_c, 2, 8576
5, 62293, Pitch_bend_c, 2, 8704
5, 62294, Pitch_bend_c, 2, 8832
5, 62295, Pitch_bend_c, 2, 8960
5, 62296, Pitch_bend_c, 2, 9088
5, 62298, Pitch_bend_c, 2, 9216
5, 62299, Pitch_bend_c, 2, 9344
5, 62300, Pitch_bend_c, 2, 9472
5, 62301, Pitch_bend_c, 2, 9600
5, 62302, Pitch_bend_c, 2, 9728
5, 62304, Pitch_bend_c, 2, 9856
5, 62305, Pitch_bend_c, 2, 9984
5, 62306, Pitch_bend_c, 2, 10112
5, 62307, Pitch_bend_c, 2, 10240
5, 62310, Pitch_bend_c, 2, 10368
5, 62311, Pitch_bend_c, 2, 10496
5, 62312, Pitch_bend_c, 2, 10624
5, 62313, Pitch_bend_c, 2, 10752
5, 62314, Pitch_bend_c, 2, 10880
5, 62316, Pitch_bend_c, 2, 11008
5, 62317, Pitch_bend_c, 2, 11136
5, 62318, Pitch_bend_c, 2, 11264
5, 62319, Pitch_bend_c, 2, 11392
5, 62320, Pitch_bend_c, 2, 11520
5, 62322, Pitch_bend_c, 2, 11648
5, 62323, Pitch_bend_c, 2, 11776
5, 62324, Pitch_bend_c, 2, 11904
5, 62325, Pitch_bend_c, 2, 12032
5, 62326, Pitch_bend_c, 2, 12160
5, 62328, Pitch_bend_c, 2, 12288
5, 62354, Pitch_bend_c, 2, 12288
5, 62356, Pitch_bend_c, 2, 12160
5, 62358, Pitch_bend_c, 2, 12032
5, 62359, Pitch_bend_c, 2, 11776
5, 62360, Pitch_bend_c, 2, 11520
5, 62361, Pitch_bend_c, 2, 11264
5, 62362, Pitch_bend_c, 2, 11008
5, 62364, Pitch_bend_c, 2, 10880
5, 62365, Pitch_bend_c, 2, 10624
5, 62366, Pitch_bend_c, 2, 10368
5, 62367, Pitch_bend_c, 2, 10112
5, 62368, Pitch_bend_c, 2, 9856
5, 62370, Pitch_bend_c, 2, 9600
5, 62371, Pitch_bend_c, 2, 9472
5, 62372, Pitch_bend_c, 2, 9216
5, 62373, Pitch_bend_c, 2, 8960
5, 62374, Pitch_bend_c, 2, 8704
5, 62376, Pitch_bend_c, 2, 8448
5, 62377, Pitch_bend_c, 2, 8192
5, 62400, Note_on_c, 2, 64, 0
5, 62400, Note_on_c, 2, 62, 100
5, 62401, Pitch_bend_c, 2, 8192
5, 62402, Pitch_bend_c, 2, 8448
5, 62403, Pitch_bend_c, 2, 8704
5, 62404, Pitch_bend_c, 2, 8960
5, 62406, Pitch_bend_c, 2, 9216
5, 62407, Pitch_bend_c, 2, 9472
5, 62408, Pitch_bend_c, 2, 9728
5, 62409, Pitch_bend_c, 2, 9984
5, 62410, Pitch_bend_c, 2, 10240
5, 62412, Pitch_bend_c, 2, 10496
5, 62413, Pitch_bend_c, 2, 10752
5, 62414, Pitch_bend_c, 2, 11008
5, 62415, Pitch_bend_c, 2, 11264
5, 62416, Pitch_bend_c, 2, 11520
5, 62418, Pitch_bend_c, 2, 11776
5, 62419, Pitch_bend_c, 2, 12032
5, 62420, Pitch_bend_c, 2, 12416
5, 62421, Pitch_bend_c, 2, 12672
5, 62422, Pitch_bend_c, 2, 12928
5, 62424, Pitch_bend_c, 2, 13184
5, 62425, Pitch_bend_c, 2, 13440
5, 62426, Pitch_bend_c, 2, 13696
5, 62427, Pitch_bend_c, 2, 13952
5, 62428, Pitch_bend_c, 2, 14208
5, 62430, Pitch_bend_c, 2, 14464
5, 62431, Pitch_bend_c, 2, 14720
5, 62432, Pitch_bend_c, 2, 14976
5, 62433, Pitch_bend_c, 2, 15232
5, 62434, Pitch_bend_c, 2, 15488
5, 62436, Pitch_bend_c, 2, 15744
5, 62437, Pitch_bend_c, 2, 16000
5, 62438, Pitch_bend_c, 2, 16383
5, 62460, Note_on_c, 2, 62, 0
5, 62460, Note_on_c, 2, 64, 100
5, 62461, Pitch_bend_c, 2, 8192
5, 62520, Note_on_c, 2, 64, 0
5, 62521, Note_on_c, 2, 71, 100
5, 62564, Pitch_bend_c, 2, 8192
5, 62565, Pitch_bend_c, 2, 8448
5, 62566, Pitch_bend_c, 2, 8704
5, 62568, Pitch_bend_c, 2, 8960
5, 62569, Pitch_bend_c, 2, 9216
5, 62570, Pitch_bend_c, 2, 9472
5, 62571, Pitch_bend_c, 2, 9728
5, 62572, Pitch_bend_c, 2, 9984
5, 62574, Pitch_bend_c, 2, 10368
5, 62575, Pitch_bend_c, 2, 10624
5, 62576, Pitch_bend_c, 2, 10880
5, 62577, Pitch_bend_c, 2, 11136
5, 62578, Pitch_bend_c, 2, 11392
5, 62580, Pitch_bend_c, 2, 11648
5, 62581, Pitch_bend_c, 2, 11904
5, 62582, Pitch_bend_c, 2, 12288
5, 62640, Pitch_bend_c, 2, 12416
5, 62641, Pitch_bend_c, 2, 12288
5, 62642, Pitch_bend_c, 2, 12032
5, 62643, Pitch_bend_c, 2, 11904
5, 62644, Pitch_bend_c, 2, 11648
5, 62646, Pitch_bend_c, 2, 11392
5, 62647, Pitch_bend_c, 2, 11264
5, 62648, Pitch_bend_c, 2, 11008
5, 62649, Pitch_bend_c, 2, 10752
5, 62650, Pitch_bend_c, 2, 10624
5, 62652, Pitch_bend_c, 2, 10368
5, 62653, Pitch_bend_c, 2, 10112
5, 62654, Pitch_bend_c, 2, 9984
5, 62655, Pitch_bend_c, 2, 9728
5, 62656, Pitch_bend_c, 2, 9472
5, 62658, Pitch_bend_c, 2, 9344
5, 62659, Pitch_bend_c, 2, 9088
5, 62660, Pitch_bend_c, 2, 8832
5, 62661, Pitch_bend_c, 2, 8704
5, 62662, Pitch_bend_c, 2, 8448
5, 62664, Pitch_bend_c, 2, 8192
5, 62700, Note_on_c, 2, 71, 0
5, 62700, Note_on_c, 2, 69, 80
5, 62760, Note_on_c, 2, 69, 0
5, 62760, Note_on_c, 2, 64, 100
5, 62820, Note_on_c, 2, 64, 0
5, 62820, Note_on_c, 2, 65, 100
5, 62880, Note_on_c, 2, 65, 0
5, 62880, Note_on_c, 2, 66, 100
5, 62940, Note_on_c, 2, 66, 0
5, 62940, Note_on_c, 2, 69, 100
5, 63000, Note_on_c, 2, 69, 0
5, 63000, Note_on_c, 2, 72, 100
5, 63060, Note_on_c, 2, 72, 0
5, 63060, Note_on_c, 2, 75, 100
5, 63120, Note_on_c, 2, 75, 0
5, 63120, Note_on_c, 2, 74, 100
5, 63180, Note_on_c, 2, 74, 0
5, 63180, Note_on_c, 2, 72, 100
5, 63240, Note_on_c, 2, 72, 0
5, 63240, Note_on_c, 2, 71, 100
5, 63277, Pitch_bend_c, 2, 8192
5, 63282, Pitch_bend_c, 2, 8320
5, 63286, Pitch_bend_c, 2, 8448
5, 63290, Pitch_bend_c, 2, 8576
5, 63295, Pitch_bend_c, 2, 8704
5, 63300, Pitch_bend_c, 2, 8832
5, 63303, Pitch_bend_c, 2, 8960
5, 63308, Pitch_bend_c, 2, 9088
5, 63312, Pitch_bend_c, 2, 9216
5, 63316, Pitch_bend_c, 2, 9344
5, 63321, Pitch_bend_c, 2, 9472
5, 63325, Pitch_bend_c, 2, 9600
5, 63330, Pitch_bend_c, 2, 9728
5, 63333, Pitch_bend_c, 2, 9856
5, 63338, Pitch_bend_c, 2, 9984
5, 63343, Pitch_bend_c, 2, 10112
5, 63346, Pitch_bend_c, 2, 10240
5, 63351, Pitch_bend_c, 2, 10368
5, 63355, Pitch_bend_c, 2, 10496
5, 63360, Pitch_bend_c, 2, 10624
5, 63364, Pitch_bend_c, 2, 10752
5, 63366, Pitch_bend_c, 2, 11008
5, 63370, Pitch_bend_c, 2, 11136
5, 63373, Pitch_bend_c, 2, 11264
5, 63374, Pitch_bend_c, 2, 11392
5, 63375, Pitch_bend_c, 2, 11520
5, 63378, Pitch_bend_c, 2, 11648
5, 63380, Pitch_bend_c, 2, 11904
5, 63381, Pitch_bend_c, 2, 12032
5, 63382, Pitch_bend_c, 2, 12288
5, 63420, Note_on_c, 2, 71, 0
5, 63420, Pitch_bend_c, 2, 8192
5, 63420, Note_on_c, 2, 74, 100
5, 63480, Note_on_c, 2, 74, 0
5, 63480, Pitch_bend_c, 2, 8192
5, 63480, Note_on_c, 2, 71, 100
5, 63481, Pitch_bend_c, 2, 8448
5, 63482, Pitch_bend_c, 2, 8832
5, 63483, Pitch_bend_c, 2, 9216
5, 63484, Pitch_bend_c, 2, 9600
5, 63486, Pitch_bend_c, 2, 9984
5, 63487, Pitch_bend_c, 2, 10368
5, 63488, Pitch_bend_c, 2, 10752
5, 63489, Pitch_bend_c, 2, 11136
5, 63490, Pitch_bend_c, 2, 11520
5, 63492, Pitch_bend_c, 2, 11904
5, 63493, Pitch_bend_c, 2, 12288
5, 63540, Note_on_c, 2, 71, 0
5, 63540, Note_on_c, 2, 71, 100
5, 63541, Pitch_bend_c, 2, 8192
5, 63600, Note_on_c, 2, 71, 0
5, 63600, Note_on_c, 2, 69, 100
5, 63602, Pitch_bend_c, 2, 4096
5, 63603, Pitch_bend_c, 2, 4224
5, 63604, Pitch_bend_c, 2, 4352
5, 63606, Pitch_bend_c, 2, 4480
5, 63607, Pitch_bend_c, 2, 4608
5, 63608, Pitch_bend_c, 2, 4736
5, 63609, Pitch_bend_c, 2, 4864
5, 63610, Pitch_bend_c, 2, 4992
5, 63612, Pitch_bend_c, 2, 5120
5, 63613, Pitch_bend_c, 2, 5248
5, 63614, Pitch_bend_c, 2, 5376
5, 63615, Pitch_bend_c, 2, 5504
5, 63616, Pitch_bend_c, 2, 5632
5, 63618, Pitch_bend_c, 2, 5760
5, 63619, Pitch_bend_c, 2, 5888
5, 63620, Pitch_bend_c, 2, 6016
5, 63621, Pitch_bend_c, 2, 6144
5, 63622, Pitch_bend_c, 2, 6272
5, 63624, Pitch_bend_c, 2, 6400
5, 63625, Pitch_bend_c, 2, 6528
5, 63626, Pitch_bend_c, 2, 6656
5, 63627, Pitch_bend_c, 2, 6784
5, 63628, Pitch_bend_c, 2, 6912
5, 63630, Pitch_bend_c, 2, 7040
5, 63631, Pitch_bend_c, 2, 7168
5, 63632, Pitch_bend_c, 2, 7296
5, 63633, Pitch_bend_c, 2, 7424
5, 63634, Pitch_bend_c, 2, 7552
5, 63636, Pitch_bend_c, 2, 7680
5, 63637, Pitch_bend_c, 2, 7808
5, 63638, Pitch_bend_c, 2, 7936
5, 63639, Pitch_bend_c, 2, 8192
5, 63718, Pitch_bend_c, 2, 8064
5, 63720, Pitch_bend_c, 2, 8320
5, 63723, Pitch_bend_c, 2, 8576
5, 63726, Pitch_bend_c, 2, 8704
5, 63727, Pitch_bend_c, 2, 8832
5, 63730, Pitch_bend_c, 2, 8704
5, 63732, Pitch_bend_c, 2, 8576
5, 63734, Pitch_bend_c, 2, 8448
5, 63736, Pitch_bend_c, 2, 8320
5, 63739, Pitch_bend_c, 2, 8320
5, 63753, Pitch_bend_c, 2, 8448
5, 63758, Pitch_bend_c, 2, 8576
5, 63759, Pitch_bend_c, 2, 8704
5, 63760, Pitch_bend_c, 2, 8832
5, 63765, Pitch_bend_c, 2, 8960
5, 63768, Pitch_bend_c, 2, 9088
5, 63782, Pitch_bend_c, 2, 8832
5, 63786, Pitch_bend_c, 2, 8576
5, 63788, Pitch_bend_c, 2, 8448
5, 63792, Pitch_bend_c, 2, 8320
5, 63796, Pitch_bend_c, 2, 8192
5, 63800, Pitch_bend_c, 2, 8064
5, 63822, Pitch_bend_c, 2, 8320
5, 63825, Pitch_bend_c, 2, 8448
5, 63826, Pitch_bend_c, 2, 8576
5, 63831, Pitch_bend_c, 2, 8832
5, 63836, Pitch_bend_c, 2, 8960
5, 63847, Pitch_bend_c, 2, 8704
5, 63849, Pitch_bend_c, 2, 8576
5, 63850, Pitch_bend_c, 2, 8448
5, 63854, Pitch_bend_c, 2, 8320
5, 63856, Pitch_bend_c, 2, 8192
5, 63880, Pitch_bend_c, 2, 8320
5, 63883, Pitch_bend_c, 2, 8448
5, 63885, Pitch_bend_c, 2, 8576
5, 63888, Pitch_bend_c, 2, 8704
5, 63889, Pitch_bend_c, 2, 8832
5, 63895, Pitch_bend_c, 2, 8960
5, 63903, Pitch_bend_c, 2, 8704
5, 63904, Pitch_bend_c, 2, 8576
5, 63906, Pitch_bend_c, 2, 8448
5, 63907, Pitch_bend_c, 2, 8192
5, 63908, Pitch_bend_c, 2, 7936
5, 63910, Pitch_bend_c, 2, 7808
5, 63913, Pitch_bend_c, 2, 7680
5, 63919, Pitch_bend_c, 2, 7552
5, 63930, Pitch_bend_c, 2, 7680
5, 63931, Pitch_bend_c, 2, 7808
5, 63933, Pitch_bend_c, 2, 7936
5, 63937, Pitch_bend_c, 2, 8192
5, 63939, Pitch_bend_c, 2, 8320
5, 63943, Pitch_bend_c, 2, 8448
5, 63946, Pitch_bend_c, 2, 8576
5, 63958, Pitch_bend_c, 2, 8448
5, 63960, Note_on_c, 2, 69, 0
5, 63960, Pitch_bend_c, 2, 8320
5, 63961, Pitch_bend_c, 2, 8192
5, 64020, Note_on_c, 2, 63, 100
5, 64080, Note_on_c, 2, 63, 0
5, 64080, Note_on_c, 2, 64, 100
5, 64140, Note_on_c, 2, 64, 0
5, 64140, Note_on_c, 2, 69, 100
5, 64200, Note_on_c, 2, 69, 0
5, 64200, Note_on_c, 2, 72, 127
5, 64260, Note_on_c, 2, 72, 0
5, 64260, Note_on_c, 2, 76, 100
5, 64320, Note_on_c, 2, 76, 0
5, 64320, Note_on_c, 2, 77, 100
5, 64380, Note_on_c, 2, 77, 0
5, 64380, Note_on_c, 2, 72, 70
5, 64440, Note_on_c, 2, 72, 0
5, 64440, Note_on_c, 2, 72, 100
5, 64500, Note_on_c, 2, 72, 0
5, 64500, Note_on_c, 2, 69, 100
5, 64560, Note_on_c, 2, 69, 0
5, 64560, Note_on_c, 2, 67, 100
5, 64620, Note_on_c, 2, 67, 0
5, 64620, Note_on_c, 2, 64, 100
5, 64680, Note_on_c, 2, 64, 0
5, 64680, Note_on_c, 2, 66, 100
5, 64740, Note_on_c, 2, 66, 0
5, 64740, Note_on_c, 2, 67, 100
5, 64770, Note_on_c, 2, 67, 0
5, 64770, Note_on_c, 2, 66, 100
5, 64800, Note_on_c, 2, 66, 0
5, 64800, Note_on_c, 2, 64, 100
5, 64860, Note_on_c, 2, 64, 0
5, 64860, Note_on_c, 2, 63, 100
5, 64920, Note_on_c, 2, 63, 0
5, 64920, Note_on_c, 2, 62, 100
5, 64980, Note_on_c, 2, 62, 0
5, 64980, Note_on_c, 2, 60, 100
5, 64980, Pitch_bend_c, 2, 0
5, 64981, Pitch_bend_c, 2, 0
5, 64982, Pitch_bend_c, 2, 128
5, 64983, Pitch_bend_c, 2, 384
5, 64984, Pitch_bend_c, 2, 512
5, 64986, Pitch_bend_c, 2, 768
5, 64987, Pitch_bend_c, 2, 896
5, 64988, Pitch_bend_c, 2, 1152
5, 64989, Pitch_bend_c, 2, 1280
5, 64990, Pitch_bend_c, 2, 1536
5, 64992, Pitch_bend_c, 2, 1664
5, 64993, Pitch_bend_c, 2, 1792
5, 64994, Pitch_bend_c, 2, 2048
5, 64995, Pitch_bend_c, 2, 2176
5, 64996, Pitch_bend_c, 2, 2432
5, 64998, Pitch_bend_c, 2, 2560
5, 64999, Pitch_bend_c, 2, 2816
5, 65000, Pitch_bend_c, 2, 2944
5, 65001, Pitch_bend_c, 2, 3200
5, 65002, Pitch_bend_c, 2, 3328
5, 65004, Pitch_bend_c, 2, 3456
5, 65005, Pitch_bend_c, 2, 3712
5, 65006, Pitch_bend_c, 2, 3840
5, 65007, Pitch_bend_c, 2, 4096
5, 65008, Pitch_bend_c, 2, 4224
5, 65010, Pitch_bend_c, 2, 4480
5, 65011, Pitch_bend_c, 2, 4608
5, 65012, Pitch_bend_c, 2, 4864
5, 65013, Pitch_bend_c, 2, 4992
5, 65014, Pitch_bend_c, 2, 5120
5, 65016, Pitch_bend_c, 2, 5376
5, 65017, Pitch_bend_c, 2, 5504
5, 65018, Pitch_bend_c, 2, 5760
5, 65019, Pitch_bend_c, 2, 5888
5, 65020, Pitch_bend_c, 2, 6144
5, 65022, Pitch_bend_c, 2, 6272
5, 65023, Pitch_bend_c, 2, 6528
5, 65024, Pitch_bend_c, 2, 6656
5, 65025, Pitch_bend_c, 2, 6784
5, 65026, Pitch_bend_c, 2, 7040
5, 65028, Pitch_bend_c, 2, 7168
5, 65029, Pitch_bend_c, 2, 7424
5, 65030, Pitch_bend_c, 2, 7552
5, 65031, Pitch_bend_c, 2, 7808
5, 65032, Pitch_bend_c, 2, 7936
5, 65034, Pitch_bend_c, 2, 8192
5, 65040, Note_on_c, 2, 60, 0
5, 65040, Pitch_bend_c, 2, 8192
5, 65040, Note_on_c, 2, 57, 100
5, 65046, Pitch_bend_c, 2, 8320
5, 65048, Pitch_bend_c, 2, 8448
5, 65049, Pitch_bend_c, 2, 8576
5, 65050, Pitch_bend_c, 2, 8704
5, 65053, Pitch_bend_c, 2, 8832
5, 65056, Pitch_bend_c, 2, 8960
5, 65068, Pitch_bend_c, 2, 8832
5, 65072, Pitch_bend_c, 2, 8704
5, 65074, Pitch_bend_c, 2, 8576
5, 65078, Pitch_bend_c, 2, 8448
5, 65083, Pitch_bend_c, 2, 8320
5, 65085, Pitch_bend_c, 2, 8192
5, 65089, Pitch_bend_c, 2, 8064
5, 65119, Pitch_bend_c, 2, 8192
5, 65122, Pitch_bend_c, 2, 8320
5, 65125, Pitch_bend_c, 2, 8448
5, 65127, Pitch_bend_c, 2, 8576
5, 65128, Pitch_bend_c, 2, 8704
5, 65131, Pitch_bend_c, 2, 8832
5, 65132, Pitch_bend_c, 2, 8960
5, 65136, Pitch_bend_c, 2, 9088
5, 65155, Pitch_bend_c, 2, 8960
5, 65158, Control_c, 2, 101, 0
5, 65158, Control_c, 2, 100, 0
5, 65158, Control_c, 2, 6, 6
5, 65158, Control_c, 2, 38, 127
5, 65158, Pitch_bend_c, 2, 8832
5, 65163, Pitch_bend_c, 2, 8704
5, 65168, Pitch_bend_c, 2, 8576
5, 65172, Pitch_bend_c, 2, 8320
5, 65174, Pitch_bend_c, 2, 8192
5, 65175, Pitch_bend_c, 2, 8064
5, 65180, Pitch_bend_c, 2, 7936
5, 65206, Pitch_bend_c, 2, 8064
5, 65211, Pitch_bend_c, 2, 8192
5, 65215, Pitch_bend_c, 2, 8320
5, 65218, Pitch_bend_c, 2, 8448
5, 65221, Pitch_bend_c, 2, 8576
5, 65226, Pitch_bend_c, 2, 8704
5, 65235, Pitch_bend_c, 2, 8832
5, 65248, Pitch_bend_c, 2, 8704
5, 65253, Pitch_bend_c, 2, 8576
5, 65257, Pitch_bend_c, 2, 8448
5, 65260, Pitch_bend_c, 2, 8320
5, 65264, Pitch_bend_c, 2, 8192
5, 65269, Pitch_bend_c, 2, 8064
5, 65271, Pitch_bend_c, 2, 7936
5, 65277, Pitch_bend_c, 2, 7680
5, 65280, Pitch_bend_c, 2, 8320
5, 65282, Pitch_bend_c, 2, 8192
5, 65318, Pitch_bend_c, 2, 8192
5, 65319, Pitch_bend_c, 2, 8064
5, 65320, Pitch_bend_c, 2, 7936
5, 65322, Pitch_bend_c, 2, 7808
5, 65323, Pitch_bend_c, 2, 7680
5, 65324, Pitch_bend_c, 2, 7552
5, 65325, Pitch_bend_c, 2, 7296
5, 65326, Pitch_bend_c, 2, 7168
5, 65328, Pitch_bend_c, 2, 7040
5, 65329, Pitch_bend_c, 2, 6912
5, 65330, Pitch_bend_c, 2, 6784
5, 65331, Pitch_bend_c, 2, 6656
5, 65332, Pitch_bend_c, 2, 6400
5, 65334, Pitch_bend_c, 2, 6272
5, 65335, Pitch_bend_c, 2, 6144
5, 65336, Pitch_bend_c, 2, 6016
5, 65337, Pitch_bend_c, 2, 5888
5, 65338, Pitch_bend_c, 2, 5760
5, 65340, Pitch_bend_c, 2, 5504
5, 65341, Pitch_bend_c, 2, 5376
5, 65342, Pitch_bend_c, 2, 5248
5, 65343, Pitch_bend_c, 2, 5120
5, 65344, Pitch_bend_c, 2, 4992
5, 65346, Pitch_bend_c, 2, 4864
5, 65347, Pitch_bend_c, 2, 4608
5, 65348, Pitch_bend_c, 2, 4480
5, 65349, Pitch_bend_c, 2, 4352
5, 65350, Pitch_bend_c, 2, 4224
5, 65352, Pitch_bend_c, 2, 4096
5, 65353, Pitch_bend_c, 2, 3968
5, 65354, Pitch_bend_c, 2, 3712
5, 65355, Pitch_bend_c, 2, 3584
5, 65356, Pitch_bend_c, 2, 3456
5, 65358, Pitch_bend_c, 2, 3328
5, 65359, Pitch_bend_c, 2, 3200
5, 65360, Pitch_bend_c, 2, 3072
5, 65361, Pitch_bend_c, 2, 2816
5, 65362, Pitch_bend_c, 2, 2688
5, 65364, Pitch_bend_c, 2, 2560
5, 65365, Pitch_bend_c, 2, 2432
5, 65366, Pitch_bend_c, 2, 2304
5, 65367, Pitch_bend_c, 2, 2176
5, 65368, Pitch_bend_c, 2, 1920
5, 65370, Pitch_bend_c, 2, 1792
5, 65371, Pitch_bend_c, 2, 1664
5, 65372, Pitch_bend_c, 2, 1536
5, 65373, Pitch_bend_c, 2, 1408
5, 65374, Pitch_bend_c, 2, 1280
5, 65376, Pitch_bend_c, 2, 1024
5, 65377, Pitch_bend_c, 2, 896
5, 65378, Pitch_bend_c, 2, 768
5, 65379, Pitch_bend_c, 2, 640
5, 65380, Pitch_bend_c, 2, 512
5, 65382, Pitch_bend_c, 2, 384
5, 65383, Pitch_bend_c, 2, 128
5, 65400, Note_on_c, 2, 57, 0
5, 65401, Pitch_bend_c, 2, 8192
5, 65460, Note_on_c, 2, 44, 80
5, 65516, Note_on_c, 2, 44, 0
5, 65520, Note_on_c, 2, 47, 81
5, 65576, Note_on_c, 2, 47, 0
5, 65580, Note_on_c, 2, 52, 83
5, 65636, Note_on_c, 2, 52, 0
5, 65640, Note_on_c, 2, 48, 85
5, 65696, Note_on_c, 2, 48, 0
5, 65700, Note_on_c, 2, 52, 87
5, 65756, Note_on_c, 2, 52, 0
5, 65760, Note_on_c, 2, 57, 89
5, 65816, Note_on_c, 2, 57, 0
5, 65820, Note_on_c, 2, 56, 90
5, 65876, Note_on_c, 2, 56, 0
5, 65880, Note_on_c, 2, 59, 92
5, 65936, Note_on_c, 2, 59, 0
5, 65940, Note_on_c, 2, 62, 94
5, 65996, Note_on_c, 2, 62, 0
5, 66000, Note_on_c, 2, 59, 96
5, 66056, Note_on_c, 2, 59, 0
5, 66060, Note_on_c, 2, 60, 98
5, 66116, Note_on_c, 2, 60, 0
5, 66118, Control_c, 2, 101, 0
5, 66118, Control_c, 2, 100, 0
5, 66118, Control_c, 2, 6, 2
5, 66118, Control_c, 2, 38, 127
5, 66180, Note_on_c, 2, 81, 127
5, 66181, Pitch_bend_c, 2, 128
5, 66182, Pitch_bend_c, 2, 256
5, 66183, Pitch_bend_c, 2, 512
5, 66184, Pitch_bend_c, 2, 640
5, 66186, Pitch_bend_c, 2, 896
5, 66187, Pitch_bend_c, 2, 1152
5, 66188, Pitch_bend_c, 2, 1280
5, 66189, Pitch_bend_c, 2, 1536
5, 66190, Pitch_bend_c, 2, 1792
5, 66192, Pitch_bend_c, 2, 1920
5, 66193, Pitch_bend_c, 2, 2176
5, 66194, Pitch_bend_c, 2, 2432
5, 66195, Pitch_bend_c, 2, 2560
5, 66196, Pitch_bend_c, 2, 2816
5, 66198, Pitch_bend_c, 2, 3072
5, 66199, Pitch_bend_c, 2, 3200
5, 66200, Pitch_bend_c, 2, 3456
5, 66201, Pitch_bend_c, 2, 3712
5, 66202, Pitch_bend_c, 2, 3840
5, 66204, Pitch_bend_c, 2, 4096
5, 66205, Pitch_bend_c, 2, 4352
5, 66206, Pitch_bend_c, 2, 4480
5, 66207, Pitch_bend_c, 2, 4736
5, 66208, Pitch_bend_c, 2, 4992
5, 66210, Pitch_bend_c, 2, 5120
5, 66211, Pitch_bend_c, 2, 5376
5, 66212, Pitch_bend_c, 2, 5632
5, 66213, Pitch_bend_c, 2, 5760
5, 66214, Pitch_bend_c, 2, 6016
5, 66216, Pitch_bend_c, 2, 6272
5, 66217, Pitch_bend_c, 2, 6400
5, 66218, Pitch_bend_c, 2, 6656
5, 66219, Pitch_bend_c, 2, 6912
5, 66220, Pitch_bend_c, 2, 7040
5, 66222, Pitch_bend_c, 2, 7296
5, 66223, Pitch_bend_c, 2, 7552
5, 66224, Pitch_bend_c, 2, 7680
5, 66225, Pitch_bend_c, 2, 7936
5, 66226, Pitch_bend_c, 2, 8192
5, 66350, Note_on_c, 2, 81, 0
5, 66360, Note_on_c, 2, 74, 127
5, 66420, Note_on_c, 2, 74, 0
5, 66420, Note_on_c, 2, 72, 127
5, 66480, Note_on_c, 2, 72, 0
5, 66480, Note_on_c, 2, 74, 127
5, 66720, Note_on_c, 2, 74, 0
5, 66780, Note_on_c, 2, 69, 127
5, 66840, Note_on_c, 2, 69, 0
5, 66840, Note_on_c, 2, 84, 80
5, 66840, Note_on_c, 2, 72, 127
5, 66841, Pitch_bend_c, 2, 6144
5, 66843, Pitch_bend_c, 2, 6272
5, 66844, Pitch_bend_c, 2, 6400
5, 66846, Pitch_bend_c, 2, 6528
5, 66847, Pitch_bend_c, 2, 6656
5, 66848, Pitch_bend_c, 2, 6784
5, 66849, Pitch_bend_c, 2, 6912
5, 66850, Pitch_bend_c, 2, 7040
5, 66852, Pitch_bend_c, 2, 7168
5, 66853, Pitch_bend_c, 2, 7296
5, 66854, Pitch_bend_c, 2, 7424
5, 66855, Pitch_bend_c, 2, 7552
5, 66856, Pitch_bend_c, 2, 7680
5, 66858, Pitch_bend_c, 2, 7808
5, 66859, Pitch_bend_c, 2, 7936
5, 66860, Pitch_bend_c, 2, 8064
5, 66861, Pitch_bend_c, 2, 8192
5, 66900, Note_on_c, 2, 72, 0
5, 66900, Note_on_c, 2, 84, 0
5, 66900, Note_on_c, 2, 74, 127
5, 66960, Note_on_c, 2, 74, 0
5, 66960, Note_on_c, 2, 87, 80
5, 66960, Note_on_c, 2, 74, 127
5, 66961, Pitch_bend_c, 2, 8192
5, 66963, Pitch_bend_c, 2, 8320
5, 66964, Pitch_bend_c, 2, 8448
5, 66966, Pitch_bend_c, 2, 8576
5, 66967, Pitch_bend_c, 2, 8704
5, 66969, Pitch_bend_c, 2, 8832
5, 66970, Pitch_bend_c, 2, 8960
5, 66972, Pitch_bend_c, 2, 9088
5, 66973, Pitch_bend_c, 2, 9216
5, 66974, Pitch_bend_c, 2, 9344
5, 66976, Pitch_bend_c, 2, 9472
5, 66978, Pitch_bend_c, 2, 9600
5, 66979, Pitch_bend_c, 2, 9728
5, 66980, Pitch_bend_c, 2, 9856
5, 66982, Pitch_bend_c, 2, 9984
5, 66984, Pitch_bend_c, 2, 10112
5, 66985, Pitch_bend_c, 2, 10240
5, 66986, Pitch_bend_c, 2, 10368
5, 66987, Pitch_bend_c, 2, 10496
5, 66990, Pitch_bend_c, 2, 10624
5, 66991, Pitch_bend_c, 2, 10752
5, 66992, Pitch_bend_c, 2, 10880
5, 66993, Pitch_bend_c, 2, 11008
5, 66996, Pitch_bend_c, 2, 11136
5, 66997, Pitch_bend_c, 2, 11264
5, 66998, Pitch_bend_c, 2, 11392
5, 66999, Pitch_bend_c, 2, 11520
5, 67000, Pitch_bend_c, 2, 11648
5, 67003, Pitch_bend_c, 2, 11776
5, 67004, Pitch_bend_c, 2, 11904
5, 67005, Pitch_bend_c, 2, 12032
5, 67006, Pitch_bend_c, 2, 12160
5, 67008, Pitch_bend_c, 2, 12288
5, 67020, Note_on_c, 2, 74, 0
5, 67020, Note_on_c, 2, 87, 0
5, 67020, Note_on_c, 2, 72, 127
5, 67021, Pitch_bend_c, 2, 8192
5, 67080, Note_on_c, 2, 72, 0
5, 67080, Note_on_c, 2, 86, 80
5, 67080, Note_on_c, 2, 74, 127
5, 67140, Note_on_c, 2, 74, 0
5, 67140, Note_on_c, 2, 86, 0
5, 67140, Note_on_c, 2, 72, 127
5, 67200, Note_on_c, 2, 72, 0
5, 67260, Note_on_c, 2, 64, 127
5, 67320, Note_on_c, 2, 64, 0
5, 67320, Note_on_c, 2, 69, 127
5, 67380, Note_on_c, 2, 69, 0
5, 67440, Note_on_c, 2, 72, 127
5, 67500, Note_on_c, 2, 72, 0
5, 67560, Note_on_c, 2, 69, 127
5, 67620, Note_on_c, 2, 69, 0
5, 67620, Note_on_c, 2, 64, 127
5, 67680, Note_on_c, 2, 64, 0
5, 67680, Note_on_c, 2, 67, 127
5, 67681, Control_c, 2, 101, 0
5, 67681, Control_c, 2, 100, 0
5, 67681, Control_c, 2, 6, 16
5, 67681, Control_c, 2, 38, 127
5, 67741, Pitch_bend_c, 2, 8064
5, 67742, Pitch_bend_c, 2, 7936
5, 67743, Pitch_bend_c, 2, 7808
5, 67744, Pitch_bend_c, 2, 7680
5, 67746, Pitch_bend_c, 2, 7552
5, 67747, Pitch_bend_c, 2, 7424
5, 67748, Pitch_bend_c, 2, 7296
5, 67749, Pitch_bend_c, 2, 7168
5, 67750, Pitch_bend_c, 2, 7040
5, 67752, Pitch_bend_c, 2, 6912
5, 67753, Pitch_bend_c, 2, 6784
5, 67754, Pitch_bend_c, 2, 6656
5, 67755, Pitch_bend_c, 2, 6528
5, 67756, Pitch_bend_c, 2, 6400
5, 67758, Pitch_bend_c, 2, 6272
5, 67759, Pitch_bend_c, 2, 6144
5, 67802, Pitch_bend_c, 2, 5888
5, 67803, Pitch_bend_c, 2, 5632
5, 67863, Pitch_bend_c, 2, 5504
5, 67867, Pitch_bend_c, 2, 5376
5, 67869, Pitch_bend_c, 2, 5248
5, 67870, Pitch_bend_c, 2, 4992
5, 67873, Pitch_bend_c, 2, 4608
5, 67920, Note_on_c, 2, 67, 0
5, 67920, Pitch_bend_c, 2, 8192
5, 67920, Note_on_c, 2, 62, 127
5, 67921, Pitch_bend_c, 2, 4096
5, 67921, Control_c, 2, 101, 0
5, 67921, Control_c, 2, 100, 0
5, 67921, Control_c, 2, 6, 2
5, 67921, Control_c, 2, 38, 127
5, 67922, Pitch_bend_c, 2, 4352
5, 67923, Pitch_bend_c, 2, 4608
5, 67924, Pitch_bend_c, 2, 4864
5, 67926, Pitch_bend_c, 2, 5120
5, 67927, Pitch_bend_c, 2, 5376
5, 67928, Pitch_bend_c, 2, 5632
5, 67929, Pitch_bend_c, 2, 5888
5, 67930, Pitch_bend_c, 2, 6144
5, 67932, Pitch_bend_c, 2, 6400
5, 67933, Pitch_bend_c, 2, 6656
5, 67934, Pitch_bend_c, 2, 6912
5, 67935, Pitch_bend_c, 2, 7168
5, 67936, Pitch_bend_c, 2, 7424
5, 67938, Pitch_bend_c, 2, 7680
5, 67939, Pitch_bend_c, 2, 7936
5, 67940, Pitch_bend_c, 2, 8192
5, 67980, Note_on_c, 2, 62, 0
5, 67980, Note_on_c, 2, 62, 127
5, 68040, Note_on_c, 2, 62, 0
5, 68040, Note_on_c, 2, 60, 127
5, 68160, Note_on_c, 2, 60, 0
5, 68160, Note_on_c, 2, 57, 127
5, 68280, Note_on_c, 2, 57, 0
5, 68310, Note_on_c, 2, 55, 127
5, 68340, Note_on_c, 2, 55, 0
5, 68340, Note_on_c, 2, 57, 127
5, 68370, Note_on_c, 2, 57, 0
5, 68370, Note_on_c, 2, 57, 127
5, 68400, Note_on_c, 2, 57, 0
5, 68400, Note_on_c, 2, 60, 127
5, 68400, Note_on_c, 2, 57, 127
5, 68460, Note_on_c, 2, 57, 0
5, 68460, Note_on_c, 2, 60, 0
5, 68490, Note_on_c, 2, 62, 127
5, 68490, Note_on_c, 2, 59, 127
5, 68550, Note_on_c, 2, 59, 0
5, 68550, Note_on_c, 2, 62, 0
5, 68640, Note_on_c, 2, 64, 127
5, 68641, Pitch_bend_c, 2, 128
5, 68642, Pitch_bend_c, 2, 384
5, 68643, Pitch_bend_c, 2, 640
5, 68644, Pitch_bend_c, 2, 896
5, 68646, Pitch_bend_c, 2, 1152
5, 68647, Pitch_bend_c, 2, 1408
5, 68648, Pitch_bend_c, 2, 1664
5, 68649, Pitch_bend_c, 2, 1920
5, 68650, Pitch_bend_c, 2, 2176
5, 68652, Pitch_bend_c, 2, 2432
5, 68653, Pitch_bend_c, 2, 2688
5, 68654, Pitch_bend_c, 2, 2944
5, 68655, Pitch_bend_c, 2, 3200
5, 68656, Pitch_bend_c, 2, 3456
5, 68658, Pitch_bend_c, 2, 3712
5, 68659, Pitch_bend_c, 2, 3968
5, 68660, Pitch_bend_c, 2, 4224
5, 68661, Pitch_bend_c, 2, 4480
5, 68662, Pitch_bend_c, 2, 4736
5, 68664, Pitch_bend_c, 2, 4992
5, 68665, Pitch_bend_c, 2, 5248
5, 68666, Pitch_bend_c, 2, 5504
5, 68667, Pitch_bend_c, 2, 5760
5, 68668, Pitch_bend_c, 2, 6016
5, 68670, Pitch_bend_c, 2, 6272
5, 68671, Pitch_bend_c, 2, 6528
5, 68672, Pitch_bend_c, 2, 6784
5, 68673, Pitch_bend_c, 2, 7040
5, 68674, Pitch_bend_c, 2, 7296
5, 68676, Pitch_bend_c, 2, 7552
5, 68677, Pitch_bend_c, 2, 7808
5, 68678, Pitch_bend_c, 2, 8192
5, 68700, Note_on_c, 2, 64, 0
5, 68700, Note_on_c, 2, 67, 127
5, 68760, Note_on_c, 2, 67, 0
5, 68760, Note_on_c, 2, 69, 127
5, 68820, Note_on_c, 2, 69, 0
5, 68820, Note_on_c, 2, 72, 127
5, 68880, Note_on_c, 2, 72, 0
5, 68880, Note_on_c, 2, 76, 127
5, 68940, Note_on_c, 2, 76, 0
5, 68940, Note_on_c, 2, 79, 127
5, 69000, Note_on_c, 2, 79, 0
5, 69000, Note_on_c, 2, 81, 127
5, 69001, Pitch_bend_c, 2, 0
5, 69002, Pitch_bend_c, 2, 0
5, 69003, Pitch_bend_c, 2, 128
5, 69004, Pitch_bend_c, 2, 256
5, 69006, Pitch_bend_c, 2, 384
5, 69007, Pitch_bend_c, 2, 512
5, 69008, Pitch_bend_c, 2, 640
5, 69009, Pitch_bend_c, 2, 768
5, 69010, Pitch_bend_c, 2, 896
5, 69012, Pitch_bend_c, 2, 1152
5, 69013, Pitch_bend_c, 2, 1280
5, 69014, Pitch_bend_c, 2, 1408
5, 69015, Pitch_bend_c, 2, 1536
5, 69016, Pitch_bend_c, 2, 1664
5, 69018, Pitch_bend_c, 2, 1792
5, 69019, Pitch_bend_c, 2, 1920
5, 69020, Pitch_bend_c, 2, 2048
5, 69021, Pitch_bend_c, 2, 2304
5, 69022, Pitch_bend_c, 2, 2432
5, 69024, Pitch_bend_c, 2, 2560
5, 69025, Pitch_bend_c, 2, 2688
5, 69026, Pitch_bend_c, 2, 2816
5, 69027, Pitch_bend_c, 2, 2944
5, 69028, Pitch_bend_c, 2, 3072
5, 69030, Pitch_bend_c, 2, 3200
5, 69031, Pitch_bend_c, 2, 3456
5, 69032, Pitch_bend_c, 2, 3584
5, 69033, Pitch_bend_c, 2, 3712
5, 69034, Pitch_bend_c, 2, 3840
5, 69036, Pitch_bend_c, 2, 3968
5, 69037, Pitch_bend_c, 2, 4096
5, 69038, Pitch_bend_c, 2, 4224
5, 69039, Pitch_bend_c, 2, 4352
5, 69040, Pitch_bend_c, 2, 4480
5, 69042, Pitch_bend_c, 2, 4736
5, 69043, Pitch_bend_c, 2, 4864
5, 69044, Pitch_bend_c, 2, 4992
5, 69045, Pitch_bend_c, 2, 5120
5, 69046, Pitch_bend_c, 2, 5248
5, 69048, Pitch_bend_c, 2, 5376
5, 69049, Pitch_bend_c, 2, 5504
5, 69050, Pitch_bend_c, 2, 5632
5, 69051, Pitch_bend_c, 2, 5888
5, 69052, Pitch_bend_c, 2, 6016
5, 69054, Pitch_bend_c, 2, 6144
5, 69055, Pitch_bend_c, 2, 6272
5, 69056, Pitch_bend_c, 2, 6400
5, 69057, Pitch_bend_c, 2, 6528
5, 69058, Pitch_bend_c, 2, 6656
5, 69060, Pitch_bend_c, 2, 6784
5, 69061, Pitch_bend_c, 2, 7040
5, 69062, Pitch_bend_c, 2, 7168
5, 69063, Pitch_bend_c, 2, 7296
5, 69064, Pitch_bend_c, 2, 7424
5, 69066, Pitch_bend_c, 2, 7552
5, 69067, Pitch_bend_c, 2, 7680
5, 69068, Pitch_bend_c, 2, 7808
5, 69069, Pitch_bend_c, 2, 7936
5, 69070, Pitch_bend_c, 2, 8192
5, 69360, Note_on_c, 2, 81, 0
5, 69360, Note_on_c, 2, 83, 127
5, 69361, Pitch_bend_c, 2, 0
5, 69363, Pitch_bend_c, 2, 128
5, 69364, Pitch_bend_c, 2, 256
5, 69366, Pitch_bend_c, 2, 384
5, 69367, Pitch_bend_c, 2, 512
5, 69368, Pitch_bend_c, 2, 640
5, 69369, Pitch_bend_c, 2, 768
5, 69370, Pitch_bend_c, 2, 896
5, 69372, Pitch_bend_c, 2, 1024
5, 69373, Pitch_bend_c, 2, 1152
5, 69374, Pitch_bend_c, 2, 1280
5, 69375, Pitch_bend_c, 2, 1408
5, 69376, Pitch_bend_c, 2, 1536
5, 69378, Pitch_bend_c, 2, 1664
5, 69379, Pitch_bend_c, 2, 1792
5, 69380, Pitch_bend_c, 2, 1920
5, 69381, Pitch_bend_c, 2, 2048
5, 69382, Pitch_bend_c, 2, 2176
5, 69384, Pitch_bend_c, 2, 2304
5, 69385, Pitch_bend_c, 2, 2432
5, 69386, Pitch_bend_c, 2, 2560
5, 69387, Pitch_bend_c, 2, 2688
5, 69390, Pitch_bend_c, 2, 2816
5, 69391, Pitch_bend_c, 2, 2944
5, 69392, Pitch_bend_c, 2, 3072
5, 69393, Pitch_bend_c, 2, 3200
5, 69394, Pitch_bend_c, 2, 3328
5, 69396, Pitch_bend_c, 2, 3456
5, 69397, Pitch_bend_c, 2, 3584
5, 69398, Pitch_bend_c, 2, 3712
5, 69399, Pitch_bend_c, 2, 3840
5, 69400, Pitch_bend_c, 2, 3968
5, 69402, Pitch_bend_c, 2, 4096
5, 69403, Pitch_bend_c, 2, 4224
5, 69404, Pitch_bend_c, 2, 4352
5, 69405, Pitch_bend_c, 2, 4480
5, 69406, Pitch_bend_c, 2, 4608
5, 69408, Pitch_bend_c, 2, 4736
5, 69409, Pitch_bend_c, 2, 4864
5, 69410, Pitch_bend_c, 2, 4992
5, 69411, Pitch_bend_c, 2, 5120
5, 69412, Pitch_bend_c, 2, 5248
5, 69414, Pitch_bend_c, 2, 5376
5, 69416, Pitch_bend_c, 2, 5504
5, 69417, Pitch_bend_c, 2, 5632
5, 69418, Pitch_bend_c, 2, 5760
5, 69420, Pitch_bend_c, 2, 5888
5, 69421, Pitch_bend_c, 2, 6016
5, 69422, Pitch_bend_c, 2, 6144
5, 69423, Pitch_bend_c, 2, 6272
5, 69424, Pitch_bend_c, 2, 6400
5, 69426, Pitch_bend_c, 2, 6528
5, 69427, Pitch_bend_c, 2, 6656
5, 69428, Pitch_bend_c, 2, 6784
5, 69429, Pitch_bend_c, 2, 6912
5, 69430, Pitch_bend_c, 2, 7040
5, 69432, Pitch_bend_c, 2, 7168
5, 69433, Pitch_bend_c, 2, 7296
5, 69434, Pitch_bend_c, 2, 7424
5, 69435, Pitch_bend_c, 2, 7552
5, 69436, Pitch_bend_c, 2, 7680
5, 69438, Pitch_bend_c, 2, 7808
5, 69439, Pitch_bend_c, 2, 7936
5, 69440, Pitch_bend_c, 2, 8064
5, 69441, Pitch_bend_c, 2, 8192
5, 69720, Note_on_c, 2, 83, 0
5, 69720, Note_on_c, 2, 84, 127
5, 69780, Note_on_c, 2, 84, 0
5, 69780, Note_on_c, 2, 80, 127
5, 69840, Note_on_c, 2, 80, 0
5, 69840, Note_on_c, 2, 83, 127
5, 69900, Note_on_c, 2, 83, 0
5, 69900, Note_on_c, 2, 80, 127
5, 69960, Note_on_c, 2, 80, 0
5, 69960, Note_on_c, 2, 76, 127
5, 70020, Note_on_c, 2, 76, 0
5, 70020, Note_on_c, 2, 72, 127
5, 70080, Note_on_c, 2, 72, 0
5, 70080, Note_on_c, 2, 68, 127
5, 70140, Note_on_c, 2, 68, 0
5, 70140, Note_on_c, 2, 64, 127
5, 70200, Note_on_c, 2, 64, 0
5, 70200, Note_on_c, 2, 67, 127
5, 70260, Note_on_c, 2, 67, 0
5, 70260, Note_on_c, 2, 68, 127
5, 70320, Note_on_c, 2, 68, 0
5, 70320, Note_on_c, 2, 69, 127
5, 70380, Note_on_c, 2, 69, 0
5, 70380, Note_on_c, 2, 72, 127
5, 70440, Note_on_c, 2, 72, 0
5, 70440, Note_on_c, 2, 74, 127
5, 70500, Note_on_c, 2, 74, 0
5, 70500, Note_on_c, 2, 72, 127
5, 70560, Note_on_c, 2, 72, 0
5, 70560, Note_on_c, 2, 77, 127
5, 70561, Pitch_bend_c, 2, 0
5, 70563, Pitch_bend_c, 2, 128
5, 70566, Pitch_bend_c, 2, 256
5, 70568, Pitch_bend_c, 2, 384
5, 70570, Pitch_bend_c, 2, 512
5, 70572, Pitch_bend_c, 2, 640
5, 70574, Pitch_bend_c, 2, 768
5, 70576, Pitch_bend_c, 2, 896
5, 70579, Pitch_bend_c, 2, 1024
5, 70581, Pitch_bend_c, 2, 1152
5, 70582, Pitch_bend_c, 2, 1280
5, 70585, Pitch_bend_c, 2, 1408
5, 70587, Pitch_bend_c, 2, 1536
5, 70590, Pitch_bend_c, 2, 1664
5, 70592, Pitch_bend_c, 2, 1792
5, 70593, Pitch_bend_c, 2, 1920
5, 70596, Pitch_bend_c, 2, 2048
5, 70598, Pitch_bend_c, 2, 2176
5, 70600, Pitch_bend_c, 2, 2304
5, 70602, Pitch_bend_c, 2, 2432
5, 70604, Pitch_bend_c, 2, 2560
5, 70606, Pitch_bend_c, 2, 2688
5, 70609, Pitch_bend_c, 2, 2816
5, 70611, Pitch_bend_c, 2, 2944
5, 70612, Pitch_bend_c, 2, 3072
5, 70615, Pitch_bend_c, 2, 3200
5, 70617, Pitch_bend_c, 2, 3328
5, 70620, Pitch_bend_c, 2, 3456
5, 70622, Pitch_bend_c, 2, 3584
5, 70623, Pitch_bend_c, 2, 3712
5, 70626, Pitch_bend_c, 2, 3840
5, 70628, Pitch_bend_c, 2, 3968
5, 70630, Pitch_bend_c, 2, 4096
5, 70632, Pitch_bend_c, 2, 4224
5, 70681, Pitch_bend_c, 2, 4096
5, 70682, Pitch_bend_c, 2, 0
5, 70683, Pitch_bend_c, 2, 128
5, 70684, Pitch_bend_c, 2, 384
5, 70686, Pitch_bend_c, 2, 640
5, 70687, Pitch_bend_c, 2, 896
5, 70688, Pitch_bend_c, 2, 1152
5, 70689, Pitch_bend_c, 2, 1408
5, 70690, Pitch_bend_c, 2, 1536
5, 70692, Pitch_bend_c, 2, 1792
5, 70693, Pitch_bend_c, 2, 2048
5, 70694, Pitch_bend_c, 2, 2304
5, 70695, Pitch_bend_c, 2, 2560
5, 70696, Pitch_bend_c, 2, 2816
5, 70698, Pitch_bend_c, 2, 3072
5, 70699, Pitch_bend_c, 2, 3200
5, 70700, Pitch_bend_c, 2, 3456
5, 70701, Pitch_bend_c, 2, 3712
5, 70702, Pitch_bend_c, 2, 3968
5, 70704, Pitch_bend_c, 2, 4224
5, 70705, Pitch_bend_c, 2, 4480
5, 70706, Pitch_bend_c, 2, 4608
5, 70707, Pitch_bend_c, 2, 4864
5, 70708, Pitch_bend_c, 2, 5120
5, 70710, Pitch_bend_c, 2, 5376
5, 70711, Pitch_bend_c, 2, 5632
5, 70712, Pitch_bend_c, 2, 5888
5, 70713, Pitch_bend_c, 2, 6144
5, 70714, Pitch_bend_c, 2, 6272
5, 70716, Pitch_bend_c, 2, 6528
5, 70717, Pitch_bend_c, 2, 6784
5, 70718, Pitch_bend_c, 2, 7040
5, 70719, Pitch_bend_c, 2, 7296
5, 70720, Pitch_bend_c, 2, 7552
5, 70722, Pitch_bend_c, 2, 7680
5, 70723, Pitch_bend_c, 2, 7936
5, 70724, Pitch_bend_c, 2, 8192
5, 70725, Pitch_bend_c, 2, 8448
5, 70726, Pitch_bend_c, 2, 8704
5, 70728, Pitch_bend_c, 2, 8960
5, 70729, Pitch_bend_c, 2, 9216
5, 70730, Pitch_bend_c, 2, 9344
5, 70731, Pitch_bend_c, 2, 9600
5, 70732, Pitch_bend_c, 2, 9856
5, 70734, Pitch_bend_c, 2, 10112
5, 70735, Pitch_bend_c, 2, 10368
5, 70736, Pitch_bend_c, 2, 10624
5, 70737, Pitch_bend_c, 2, 10752
5, 70738, Pitch_bend_c, 2, 11008
5, 70740, Pitch_bend_c, 2, 11264
5, 70741, Pitch_bend_c, 2, 11520
5, 70742, Pitch_bend_c, 2, 11776
5, 70743, Pitch_bend_c, 2, 12032
5, 70744, Pitch_bend_c, 2, 12288
5, 70798, Pitch_bend_c, 2, 8192
5, 70800, Note_on_c, 2, 77, 0
5, 70800, Note_on_c, 2, 78, 127
5, 70860, Note_on_c, 2, 78, 0
5, 70860, Note_on_c, 2, 79, 127
5, 70920, Note_on_c, 2, 79, 0
5, 70920, Note_on_c, 2, 80, 127
5, 70980, Note_on_c, 2, 80, 0
5, 70980, Note_on_c, 2, 81, 127
5, 71040, Note_on_c, 2, 81, 0
5, 71040, Note_on_c, 2, 83, 127
5, 71100, Note_on_c, 2, 83, 0
5, 71100, Note_on_c, 2, 84, 127
5, 71160, Note_on_c, 2, 84, 0
5, 71160, Note_on_c, 2, 85, 127
5, 71220, Note_on_c, 2, 85, 0
5, 71220, Note_on_c, 2, 86, 127
5, 71280, Note_on_c, 2, 86, 0
5, 71280, Note_on_c, 2, 84, 127
5, 71340, Note_on_c, 2, 84, 0
5, 71340, Note_on_c, 2, 88, 127
5, 71341, Pitch_bend_c, 2, 0
5, 71342, Pitch_bend_c, 2, 0
5, 71343, Pitch_bend_c, 2, 256
5, 71344, Pitch_bend_c, 2, 384
5, 71346, Pitch_bend_c, 2, 640
5, 71347, Pitch_bend_c, 2, 768
5, 71348, Pitch_bend_c, 2, 1024
5, 71349, Pitch_bend_c, 2, 1280
5, 71350, Pitch_bend_c, 2, 1408
5, 71352, Pitch_bend_c, 2, 1664
5, 71353, Pitch_bend_c, 2, 1792
5, 71354, Pitch_bend_c, 2, 2048
5, 71355, Pitch_bend_c, 2, 2304
5, 71356, Pitch_bend_c, 2, 2432
5, 71358, Pitch_bend_c, 2, 2688
5, 71359, Pitch_bend_c, 2, 2816
5, 71360, Pitch_bend_c, 2, 3072
5, 71361, Pitch_bend_c, 2, 3200
5, 71362, Pitch_bend_c, 2, 3456
5, 71364, Pitch_bend_c, 2, 3712
5, 71365, Pitch_bend_c, 2, 3840
5, 71366, Pitch_bend_c, 2, 4096
5, 71367, Pitch_bend_c, 2, 4224
5, 71368, Pitch_bend_c, 2, 4480
5, 71370, Pitch_bend_c, 2, 4736
5, 71371, Pitch_bend_c, 2, 4864
5, 71372, Pitch_bend_c, 2, 5120
5, 71373, Pitch_bend_c, 2, 5248
5, 71374, Pitch_bend_c, 2, 5504
5, 71376, Pitch_bend_c, 2, 5632
5, 71377, Pitch_bend_c, 2, 5888
5, 71378, Pitch_bend_c, 2, 6144
5, 71379, Pitch_bend_c, 2, 6272
5, 71380, Pitch_bend_c, 2, 6528
5, 71382, Pitch_bend_c, 2, 6656
5, 71383, Pitch_bend_c, 2, 6912
5, 71384, Pitch_bend_c, 2, 7168
5, 71385, Pitch_bend_c, 2, 7296
5, 71386, Pitch_bend_c, 2, 7552
5, 71388, Pitch_bend_c, 2, 7680
5, 71389, Pitch_bend_c, 2, 7936
5, 71390, Pitch_bend_c, 2, 8192
5, 71439, Pitch_bend_c, 2, 8192
5, 71443, Pitch_bend_c, 2, 8064
5, 71446, Pitch_bend_c, 2, 7936
5, 71449, Pitch_bend_c, 2, 7808
5, 71452, Pitch_bend_c, 2, 7680
5, 71456, Pitch_bend_c, 2, 7552
5, 71458, Pitch_bend_c, 2, 7424
5, 71462, Pitch_bend_c, 2, 7296
5, 71464, Pitch_bend_c, 2, 7168
5, 71468, Pitch_bend_c, 2, 7040
5, 71472, Pitch_bend_c, 2, 6912
5, 71474, Pitch_bend_c, 2, 6784
5, 71478, Pitch_bend_c, 2, 6656
5, 71481, Pitch_bend_c, 2, 6528
5, 71484, Pitch_bend_c, 2, 6400
5, 71487, Pitch_bend_c, 2, 6272
5, 71490, Note_on_c, 2, 88, 0
5, 71490, Pitch_bend_c, 2, 6144
5, 71491, Pitch_bend_c, 2, 8192
5, 71492, Note_on_c, 2, 84, 107
5, 71520, Note_on_c, 2, 84, 0
5, 71520, Pitch_bend_c, 2, 8320
5, 71520, Note_on_c, 2, 81, 127
5, 71526, Pitch_bend_c, 2, 8448
5, 71530, Pitch_bend_c, 2, 8576
5, 71541, Pitch_bend_c, 2, 8320
5, 71544, Pitch_bend_c, 2, 8192
5, 71551, Pitch_bend_c, 2, 8064
5, 71565, Pitch_bend_c, 2, 8192
5, 71569, Pitch_bend_c, 2, 8320
5, 71570, Pitch_bend_c, 2, 8448
5, 71574, Pitch_bend_c, 2, 8576
5, 71576, Pitch_bend_c, 2, 8704
5, 71581, Pitch_bend_c, 2, 8576
5, 71583, Pitch_bend_c, 2, 8448
5, 71584, Pitch_bend_c, 2, 8320
5, 71588, Pitch_bend_c, 2, 8064
5, 71590, Pitch_bend_c, 2, 7808
5, 71593, Pitch_bend_c, 2, 7680
5, 71595, Pitch_bend_c, 2, 7552
5, 71608, Pitch_bend_c, 2, 7680
5, 71612, Pitch_bend_c, 2, 7808
5, 71616, Pitch_bend_c, 2, 7936
5, 71618, Pitch_bend_c, 2, 8064
5, 71619, Pitch_bend_c, 2, 8192
5, 71623, Pitch_bend_c, 2, 8448
5, 71624, Pitch_bend_c, 2, 8576
5, 71626, Pitch_bend_c, 2, 8704
5, 71642, Pitch_bend_c, 2, 8576
5, 71646, Pitch_bend_c, 2, 8320
5, 71648, Pitch_bend_c, 2, 8192
5, 71650, Pitch_bend_c, 2, 8064
5, 71653, Pitch_bend_c, 2, 7808
5, 71654, Pitch_bend_c, 2, 7680
5, 71656, Pitch_bend_c, 2, 7552
5, 71658, Pitch_bend_c, 2, 7424
5, 71659, Pitch_bend_c, 2, 7296
5, 71670, Pitch_bend_c, 2, 7424
5, 71673, Pitch_bend_c, 2, 7552
5, 71678, Pitch_bend_c, 2, 7680
5, 71682, Pitch_bend_c, 2, 7936
5, 71684, Pitch_bend_c, 2, 8064
5, 71686, Pitch_bend_c, 2, 8192
5, 71688, Pitch_bend_c, 2, 8320
5, 71689, Pitch_bend_c, 2, 8448
5, 71692, Pitch_bend_c, 2, 8576
5, 71695, Pitch_bend_c, 2, 8704
5, 71697, Pitch_bend_c, 2, 8832
5, 71704, Pitch_bend_c, 2, 8960
5, 71719, Pitch_bend_c, 2, 8832
5, 71722, Pitch_bend_c, 2, 8704
5, 71724, Pitch_bend_c, 2, 8576
5, 71726, Pitch_bend_c, 2, 8320
5, 71727, Pitch_bend_c, 2, 8192
5, 71728, Pitch_bend_c, 2, 7936
5, 71732, Pitch_bend_c, 2, 7680
5, 71734, Pitch_bend_c, 2, 7552
5, 71751, Pitch_bend_c, 2, 7680
5, 71754, Pitch_bend_c, 2, 7936
5, 71756, Pitch_bend_c, 2, 8064
5, 71757, Pitch_bend_c, 2, 8192
5, 71761, Pitch_bend_c, 2, 8320
5, 71764, Pitch_bend_c, 2, 8576
5, 71768, Pitch_bend_c, 2, 8832
5, 71769, Pitch_bend_c, 2, 8960
5, 71782, Pitch_bend_c, 2, 8704
5, 71786, Pitch_bend_c, 2, 8576
5, 71788, Pitch_bend_c, 2, 8448
5, 71790, Pitch_bend_c, 2, 8320
5, 71792, Pitch_bend_c, 2, 8064
5, 71793, Pitch_bend_c, 2, 7936
5, 71796, Pitch_bend_c, 2, 7808
5, 71800, Pitch_bend_c, 2, 7680
5, 71810, Pitch_bend_c, 2, 7808
5, 71811, Pitch_bend_c, 2, 7936
5, 71814, Pitch_bend_c, 2, 8064
5, 71815, Pitch_bend_c, 2, 8192
5, 71816, Pitch_bend_c, 2, 8320
5, 71817, Pitch_bend_c, 2, 8448
5, 71820, Pitch_bend_c, 2, 8576
5, 71823, Control_c, 2, 101, 0
5, 71823, Control_c, 2, 100, 0
5, 71823, Control_c, 2, 6, 6
5, 71823, Control_c, 2, 38, 127
5, 71823, Pitch_bend_c, 2, 8320
5, 71824, Pitch_bend_c, 2, 8192
5, 71826, Pitch_bend_c, 2, 8064
5, 71827, Pitch_bend_c, 2, 7808
5, 71828, Pitch_bend_c, 2, 7680
5, 71829, Pitch_bend_c, 2, 7552
5, 71830, Pitch_bend_c, 2, 7296
5, 71832, Pitch_bend_c, 2, 7168
5, 71833, Pitch_bend_c, 2, 6912
5, 71834, Pitch_bend_c, 2, 6784
5, 71835, Pitch_bend_c, 2, 6656
5, 71836, Pitch_bend_c, 2, 6400
5, 71838, Pitch_bend_c, 2, 6272
5, 71839, Pitch_bend_c, 2, 6016
5, 71840, Pitch_bend_c, 2, 5888
5, 71841, Pitch_bend_c, 2, 5760
5, 71842, Pitch_bend_c, 2, 5504
5, 71844, Pitch_bend_c, 2, 5376
5, 71845, Pitch_bend_c, 2, 5120
5, 71846, Pitch_bend_c, 2, 4992
5, 71847, Pitch_bend_c, 2, 4864
5, 71848, Pitch_bend_c, 2, 4608
5, 71850, Pitch_bend_c, 2, 4480
5, 71851, Pitch_bend_c, 2, 4224
5, 71852, Pitch_bend_c, 2, 4096
5, 71853, Pitch_bend_c, 2, 3968
5, 71854, Pitch_bend_c, 2, 3712
5, 71856, Pitch_bend_c, 2, 3584
5, 71857, Pitch_bend_c, 2, 3456
5, 71858, Pitch_bend_c, 2, 3200
5, 71859, Pitch_bend_c, 2, 3072
5, 71860, Pitch_bend_c, 2, 2816
5, 71862, Pitch_bend_c, 2, 2688
5, 71863, Pitch_bend_c, 2, 2560
5, 71864, Pitch_bend_c, 2, 2304
5, 71865, Pitch_bend_c, 2, 2176
5, 71866, Pitch_bend_c, 2, 1920
5, 71868, Pitch_bend_c, 2, 1792
5, 71869, Pitch_bend_c, 2, 1664
5, 71870, Pitch_bend_c, 2, 1408
5, 71871, Pitch_bend_c, 2, 1280
5, 71872, Pitch_bend_c, 2, 1024
5, 71874, Pitch_bend_c, 2, 896
5, 71875, Pitch_bend_c, 2, 768
5, 71876, Pitch_bend_c, 2, 512
5, 71877, Pitch_bend_c, 2, 384
5, 71878, Pitch_bend_c, 2, 128
5, 71880, Note_on_c, 2, 81, 0
5, 71880, Pitch_bend_c, 2, 8192
5, 71882, Control_c, 2, 101, 0
5, 71882, Control_c, 2, 100, 0
5, 71882, Control_c, 2, 6, 2
5, 71882, Control_c, 2, 38, 127
5, 71940, Note_on_c, 2, 44, 100
5, 71994, Note_on_c, 2, 44, 0
5, 72000, Note_on_c, 2, 47, 100
5, 72054, Note_on_c, 2, 47, 0
5, 72060, Note_on_c, 2, 52, 100
5, 72114, Note_on_c, 2, 52, 0
5, 72120, Note_on_c, 2, 48, 100
5, 72174, Note_on_c, 2, 48, 0
5, 72180, Note_on_c, 2, 52, 100
5, 72234, Note_on_c, 2, 52, 0
5, 72240, Note_on_c, 2, 57, 100
5, 72294, Note_on_c, 2, 57, 0
5, 72300, Note_on_c, 2, 56, 100
5, 72354, Note_on_c, 2, 56, 0
5, 72360, Note_on_c, 2, 59, 100
5, 72414, Note_on_c, 2, 59, 0
5, 72420, Note_on_c, 2, 62, 100
5, 72474, Note_on_c, 2, 62, 0
5, 72480, Note_on_c, 2, 59, 100
5, 72534, Note_on_c, 2, 59, 0
5, 72540, Note_on_c, 2, 60, 100
5, 72594, Note_on_c, 2, 60, 0
5, 72600, Note_on_c, 2, 57, 100
5, 72654, Note_on_c, 2, 57, 0
5, 72720, Note_on_c, 2, 56, 100
5, 72750, Note_on_c, 2, 56, 0
5, 72750, Note_on_c, 2, 57, 100
5, 72780, Note_on_c, 2, 57, 0
5, 72780, Note_on_c, 2, 59, 100
5, 72840, Note_on_c, 2, 59, 0
5, 72840, Note_on_c, 2, 53, 100
5, 72900, Note_on_c, 2, 53, 0
5, 72900, Note_on_c, 2, 52, 100
5, 72960, Note_on_c, 2, 52, 0
5, 72960, Note_on_c, 2, 57, 100
5, 73020, Note_on_c, 2, 57, 0
5, 73020, Note_on_c, 2, 53, 100
5, 73050, Note_on_c, 2, 53, 0
5, 73050, Note_on_c, 2, 52, 100
5, 73080, Note_on_c, 2, 52, 0
5, 73080, Note_on_c, 2, 48, 100
5, 73140, Note_on_c, 2, 48, 0
5, 73140, Note_on_c, 2, 53, 100
5, 73200, Note_on_c, 2, 53, 0
5, 73200, Note_on_c, 2, 52, 100
5, 73260, Note_on_c, 2, 52, 0
5, 73260, Note_on_c, 2, 48, 110
5, 73285, Note_on_c, 2, 48, 0
5, 73300, Note_on_c, 2, 48, 110
5, 73325, Note_on_c, 2, 48, 0
5, 73340, Note_on_c, 2, 48, 110
5, 73360, Note_on_c, 2, 48, 0
5, 73380, Note_on_c, 2, 48, 110
5, 73400, Note_on_c, 2, 48, 0
5, 73420, Note_on_c, 2, 48, 110
5, 73440, Note_on_c, 2, 48, 0
5, 73460, Note_on_c, 2, 52, 110
5, 73480, Note_on_c, 2, 52, 0
5, 73500, Note_on_c, 2, 50, 100
5, 73860, Note_on_c, 2, 50, 0
5, 78960, Note_on_c, 2, 50, 100
5, 79020, Note_on_c, 2, 50, 0
5, 79080, Note_on_c, 2, 53, 100
5, 79140, Note_on_c, 2, 53, 0
5, 79200, Note_on_c, 2, 57, 100
5, 79260, Note_on_c, 2, 57, 0
5, 79440, Note_on_c, 2, 53, 100
5, 79500, Note_on_c, 2, 53, 0
5, 79500, Note_on_c, 2, 52, 100
5, 79560, Note_on_c, 2, 52, 0
5, 79680, Note_on_c, 2, 50, 100
5, 79740, Note_on_c, 2, 50, 0
5, 79800, Note_on_c, 2, 53, 100
5, 79860, Note_on_c, 2, 53, 0
5, 79920, Note_on_c, 2, 57, 100
5, 79980, Note_on_c, 2, 57, 0
5, 80040, Note_on_c, 2, 56, 100
5, 80100, Note_on_c, 2, 56, 0
5, 80160, Note_on_c, 2, 59, 100
5, 80220, Note_on_c, 2, 59, 0
5, 80280, Note_on_c, 2, 62, 100
5, 80340, Note_on_c, 2, 62, 0
5, 80400, Note_on_c, 2, 59, 100
5, 80460, Note_on_c, 2, 59, 0
5, 80580, Note_on_c, 2, 59, 100
5, 80640, Note_on_c, 2, 59, 0
5, 80640, Note_on_c, 2, 57, 100
5, 80700, Note_on_c, 2, 57, 0
5, 86280, Note_on_c, 2, 50, 100
5, 86340, Note_on_c, 2, 50, 0
5, 86400, Note_on_c, 2, 53, 100
5, 86460, Note_on_c, 2, 53, 0
5, 86520, Note_on_c, 2, 57, 100
5, 86580, Note_on_c, 2, 57, 0
5, 86640, Note_on_c, 2, 56, 100
5, 86760, Note_on_c, 2, 56, 0
5, 86760, Note_on_c, 2, 53, 100
5, 86820, Note_on_c, 2, 53, 0
5, 86820, Note_on_c, 2, 52, 100
5, 86880, Note_on_c, 2, 52, 0
5, 86940, Note_on_c, 2, 69, 70
5, 86940, Note_on_c, 2, 50, 100
5, 86970, Note_on_c, 2, 50, 0
5, 86970, Note_on_c, 2, 69, 0
5, 87000, Note_on_c, 2, 50, 100
5, 87060, Note_on_c, 2, 50, 0
5, 87120, Note_on_c, 2, 53, 100
5, 87180, Note_on_c, 2, 53, 0
5, 87240, Note_on_c, 2, 57, 100
5, 87300, Note_on_c, 2, 57, 0
5, 87360, Note_on_c, 2, 56, 100
5, 87420, Note_on_c, 2, 56, 0
5, 87480, Note_on_c, 2, 59, 100
5, 87540, Note_on_c, 2, 59, 0
5, 87600, Note_on_c, 2, 62, 100
5, 87660, Note_on_c, 2, 62, 0
5, 87720, Note_on_c, 2, 59, 100
5, 87780, Note_on_c, 2, 59, 0
5, 87780, Note_on_c, 2, 60, 100
5, 87900, Note_on_c, 2, 60, 0
5, 87900, Note_on_c, 2, 59, 100
5, 87960, Note_on_c, 2, 59, 0
5, 87960, Note_on_c, 2, 57, 100
5, 88020, Note_on_c, 2, 57, 0
5, 88140, Note_on_c, 2, 56, 100
5, 88260, Note_on_c, 2, 56, 0
5, 88260, Note_on_c, 2, 53, 100
5, 88320, Note_on_c, 2, 53, 0
5, 88320, Note_on_c, 2, 52, 100
5, 88380, Note_on_c, 2, 52, 0
5, 88500, Note_on_c, 2, 47, 100
5, 88620, Note_on_c, 2, 47, 0
5, 88620, Note_on_c, 2, 45, 100
5, 88680, Note_on_c, 2, 45, 0
5, 88680, Note_on_c, 2, 44, 100
5, 88740, Note_on_c, 2, 44, 0
5, 88860, Note_on_c, 2, 47, 100
5, 88980, Note_on_c, 2, 59, 100
5, 89100, Note_on_c, 2, 64, 100
5, 89220, Note_on_c, 2, 64, 0
5, 89220, Note_on_c, 2, 59, 0
5, 89220, Note_on_c, 2, 47, 0
5, 89220, Note_on_c, 2, 45, 100
5, 89340, Note_on_c, 2, 59, 100
5, 89460, Note_on_c, 2, 64, 100
5, 89580, Note_on_c, 2, 64, 0
5, 89580, Note_on_c, 2, 59, 0
5, 89580, Note_on_c, 2, 45, 0
5, 89580, Note_on_c, 2, 48, 100
5, 89700, Note_on_c, 2, 62, 100
5, 89820, Note_on_c, 2, 67, 100
5, 89940, Note_on_c, 2, 67, 0
5, 89940, Note_on_c, 2, 62, 0
5, 89940, Note_on_c, 2, 48, 0
5, 89940, Note_on_c, 2, 50, 100
5, 90060, Note_on_c, 2, 66, 100
5, 90180, Note_on_c, 2, 62, 100
5, 90300, Note_on_c, 2, 62, 0
5, 90300, Note_on_c, 2, 66, 0
5, 90300, Note_on_c, 2, 50, 0
5, 90300, Note_on_c, 2, 47, 100
5, 90420, Note_on_c, 2, 59, 100
5, 90540, Note_on_c, 2, 64, 100
5, 90660, Note_on_c, 2, 64, 0
5, 90660, Note_on_c, 2, 59, 0
5, 90660, Note_on_c, 2, 47, 0
5, 90660, Note_on_c, 2, 45, 100
5, 90780, Note_on_c, 2, 59, 100
5, 90900, Note_on_c, 2, 64, 100
5, 91020, Note_on_c, 2, 64, 0
5, 91020, Note_on_c, 2, 59, 0
5, 91020, Note_on_c, 2, 45, 0
5, 91020, Note_on_c, 2, 67, 100
5, 91020, Note_on_c, 2, 62, 100
5, 91020, Note_on_c, 2, 48, 100
5, 91140, Note_on_c, 2, 62, 0
5, 91140, Note_on_c, 2, 67, 0
5, 91200, Note_on_c, 2, 48, 0
5, 91200, Note_on_c, 2, 52, 100
5, 91380, Note_on_c, 2, 52, 0
5, 91380, Note_on_c, 2, 66, 70
5, 91380, Note_on_c, 2, 62, 100
5, 91380, Note_on_c, 2, 57, 100
5, 91380, Note_on_c, 2, 50, 100
5, 91500, Note_on_c, 2, 50, 0
5, 91500, Note_on_c, 2, 66, 0
5, 91500, Note_on_c, 2, 62, 0
5, 91500, Note_on_c, 2, 57, 0
5, 91500, Note_on_c, 2, 62, 100
5, 91500, Note_on_c, 2, 57, 100
5, 91500, Note_on_c, 2, 66, 70
5, 91500, Note_on_c, 2, 50, 100
5, 91620, Note_on_c, 2, 50, 0
5, 91620, Note_on_c, 2, 62, 0
5, 91620, Note_on_c, 2, 57, 0
5, 91620, Note_on_c, 2, 66, 0
5, 91620, Note_on_c, 2, 47, 100
5, 91740, Note_on_c, 2, 59, 100
5, 91860, Note_on_c, 2, 64, 100
5, 91980, Note_on_c, 2, 64, 0
5, 91980, Note_on_c, 2, 59, 0
5, 91980, Note_on_c, 2, 47, 0
5, 91980, Note_on_c, 2, 45, 100
5, 92100, Note_on_c, 2, 59, 100
5, 92220, Note_on_c, 2, 64, 100
5, 92340, Note_on_c, 2, 64, 0
5, 92340, Note_on_c, 2, 59, 0
5, 92340, Note_on_c, 2, 45, 0
5, 92340, Note_on_c, 2, 43, 100
5, 92460, Note_on_c, 2, 55, 80
5, 92700, Note_on_c, 2, 55, 0
5, 92700, Note_on_c, 2, 43, 0
5, 92700, Note_on_c, 2, 42, 100
5, 92820, Note_on_c, 2, 42, 0
5, 92820, Note_on_c, 2, 45, 100
5, 92940, Note_on_c, 2, 45, 0
5, 92940, Note_on_c, 2, 50, 100
5, 93060, Note_on_c, 2, 50, 0
5, 93060, Note_on_c, 2, 45, 100
5, 93090, Note_on_c, 2, 45, 0
5, 93120, Note_on_c, 2, 45, 100
5, 93150, Note_on_c, 2, 45, 0
5, 93240, Control_c, 2, 64, 61
5, 93240, Note_on_c, 2, 57, 100
5, 93300, Note_on_c, 2, 57, 0
5, 93300, Note_on_c, 2, 60, 100
5, 93340, Note_on_c, 2, 60, 0
5, 93340, Note_on_c, 2, 59, 100
5, 93380, Note_on_c, 2, 59, 0
5, 93380, Note_on_c, 2, 55, 100
5, 93420, Note_on_c, 2, 43, 100
5, 93425, Note_on_c, 2, 55, 0
5, 93540, Note_on_c, 2, 43, 0
5, 93540, Note_on_c, 2, 48, 100
5, 93660, Note_on_c, 2, 48, 0
5, 93660, Note_on_c, 2, 52, 100
5, 93750, Control_c, 2, 64, 0
5, 93780, Note_on_c, 2, 52, 0
5, 93840, Note_on_c, 2, 61, 100
5, 93840, Note_on_c, 2, 57, 100
5, 93840, Note_on_c, 2, 52, 100
5, 93840, Note_on_c, 2, 45, 100
5, 93960, Note_on_c, 2, 45, 0
5, 93960, Note_on_c, 2, 61, 0
5, 93960, Note_on_c, 2, 57, 0
5, 93960, Note_on_c, 2, 52, 0
5, 93960, Note_on_c, 2, 62, 100
5, 93960, Note_on_c, 2, 57, 100
5, 93960, Note_on_c, 2, 52, 100
5, 93960, Note_on_c, 2, 45, 100
5, 94080, Note_on_c, 2, 45, 0
5, 94080, Note_on_c, 2, 62, 0
5, 94080, Note_on_c, 2, 57, 0
5, 94080, Note_on_c, 2, 52, 0
5, 94080, Note_on_c, 2, 64, 100
5, 94080, Note_on_c, 2, 57, 100
5, 94080, Note_on_c, 2, 52, 100
5, 94080, Note_on_c, 2, 45, 100
5, 94150, Note_on_c, 2, 45, 0
5, 94150, Note_on_c, 2, 64, 0
5, 94150, Note_on_c, 2, 57, 0
5, 94150, Note_on_c, 2, 52, 0
5, 94200, Note_on_c, 2, 45, 100
5, 94200, Note_on_c, 2, 52, 100
5, 94200, Note_on_c, 2, 64, 100
5, 94200, Note_on_c, 2, 57, 100
5, 94380, Note_on_c, 2, 57, 0
5, 94380, Note_on_c, 2, 45, 0
5, 94380, Note_on_c, 2, 52, 0
5, 94380, Note_on_c, 2, 64, 0
5, 94380, Note_on_c, 2, 47, 100
5, 94380, Note_on_c, 2, 54, 100
5, 94380, Note_on_c, 2, 59, 100
5, 94380, Note_on_c, 2, 64, 100
5, 94500, Note_on_c, 2, 64, 0
5, 94500, Note_on_c, 2, 47, 0
5, 94500, Note_on_c, 2, 54, 0
5, 94500, Note_on_c, 2, 59, 0
5, 94560, Note_on_c, 2, 60, 100
5, 94560, Note_on_c, 2, 55, 100
5, 94560, Note_on_c, 2, 48, 100
5, 94680, Note_on_c, 2, 48, 0
5, 94680, Note_on_c, 2, 55, 0
5, 94680, Note_on_c, 2, 60, 0
5, 94680, Note_on_c, 2, 62, 100
5, 94680, Note_on_c, 2, 55, 100
5, 94680, Note_on_c, 2, 48, 100
5, 94800, Note_on_c, 2, 48, 0
5, 94800, Note_on_c, 2, 55, 0
5, 94800, Note_on_c, 2, 62, 0
5, 94800, Note_on_c, 2, 64, 100
5, 94800, Note_on_c, 2, 55, 100
5, 94800, Note_on_c, 2, 48, 100
5, 94870, Note_on_c, 2, 48, 0
5, 94870, Note_on_c, 2, 55, 0
5, 94870, Note_on_c, 2, 64, 0
5, 94920, Pitch_bend_c, 2, 8192
5, 94920, Note_on_c, 2, 50, 100
5, 94920, Note_on_c, 2, 57, 100
5, 94920, Note_on_c, 2, 62, 100
5, 94922, Pitch_bend_c, 2, 8576
5, 94923, Pitch_bend_c, 2, 8704
5, 94936, Pitch_bend_c, 2, 8576
5, 94939, Pitch_bend_c, 2, 8448
5, 94941, Pitch_bend_c, 2, 8320
5, 94946, Pitch_bend_c, 2, 8064
5, 94948, Pitch_bend_c, 2, 7936
5, 94950, Pitch_bend_c, 2, 7808
5, 94951, Pitch_bend_c, 2, 7680
5, 94965, Pitch_bend_c, 2, 7936
5, 94968, Pitch_bend_c, 2, 8064
5, 94969, Pitch_bend_c, 2, 8192
5, 94970, Pitch_bend_c, 2, 8320
5, 94971, Pitch_bend_c, 2, 8448
5, 94974, Pitch_bend_c, 2, 8576
5, 94975, Pitch_bend_c, 2, 8704
5, 94978, Pitch_bend_c, 2, 8832
5, 94981, Pitch_bend_c, 2, 8960
5, 94995, Pitch_bend_c, 2, 8832
5, 95000, Pitch_bend_c, 2, 8704
5, 95004, Pitch_bend_c, 2, 8576
5, 95007, Pitch_bend_c, 2, 8448
5, 95008, Pitch_bend_c, 2, 8320
5, 95012, Pitch_bend_c, 2, 8192
5, 95013, Pitch_bend_c, 2, 8064
5, 95018, Pitch_bend_c, 2, 7936
5, 95020, Pitch_bend_c, 2, 7808
5, 95035, Pitch_bend_c, 2, 7936
5, 95040, Pitch_bend_c, 2, 8064
5, 95041, Pitch_bend_c, 2, 8192
5, 95043, Pitch_bend_c, 2, 8320
5, 95046, Pitch_bend_c, 2, 8448
5, 95047, Pitch_bend_c, 2, 8576
5, 95049, Pitch_bend_c, 2, 8704
5, 95055, Pitch_bend_c, 2, 8832
5, 95056, Pitch_bend_c, 2, 8960
5, 95076, Pitch_bend_c, 2, 8832
5, 95078, Pitch_bend_c, 2, 8704
5, 95082, Pitch_bend_c, 2, 8576
5, 95084, Pitch_bend_c, 2, 8448
5, 95086, Pitch_bend_c, 2, 8320
5, 95088, Pitch_bend_c, 2, 8192
5, 95089, Pitch_bend_c, 2, 8064
5, 95091, Pitch_bend_c, 2, 7936
5, 95094, Pitch_bend_c, 2, 7808
5, 95096, Pitch_bend_c, 2, 7680
5, 95100, Pitch_bend_c, 2, 7552
5, 95112, Pitch_bend_c, 2, 7424
5, 95125, Pitch_bend_c, 2, 7552
5, 95128, Pitch_bend_c, 2, 7680
5, 95131, Pitch_bend_c, 2, 7808
5, 95133, Pitch_bend_c, 2, 7936
5, 95138, Pitch_bend_c, 2, 8064
5, 95139, Pitch_bend_c, 2, 8192
5, 95146, Pitch_bend_c, 2, 8320
5, 95150, Pitch_bend_c, 2, 8448
5, 95154, Pitch_bend_c, 2, 8704
5, 95157, Pitch_bend_c, 2, 8832
5, 95158, Pitch_bend_c, 2, 8960
5, 95194, Pitch_bend_c, 2, 8832
5, 95196, Pitch_bend_c, 2, 8576
5, 95198, Pitch_bend_c, 2, 8448
5, 95202, Pitch_bend_c, 2, 8320
5, 95205, Pitch_bend_c, 2, 8192
5, 95220, Note_on_c, 2, 62, 0
5, 95220, Note_on_c, 2, 57, 0
5, 95220, Note_on_c, 2, 50, 0
5, 95280, Note_on_c, 2, 61, 100
5, 95280, Note_on_c, 2, 57, 100
5, 95280, Note_on_c, 2, 52, 100
5, 95280, Note_on_c, 2, 45, 100
5, 95400, Note_on_c, 2, 45, 0
5, 95400, Note_on_c, 2, 61, 0
5, 95400, Note_on_c, 2, 57, 0
5, 95400, Note_on_c, 2, 52, 0
5, 95400, Note_on_c, 2, 62, 100
5, 95400, Note_on_c, 2, 57, 100
5, 95400, Note_on_c, 2, 52, 100
5, 95400, Note_on_c, 2, 45, 100
5, 95520, Note_on_c, 2, 45, 0
5, 95520, Note_on_c, 2, 62, 0
5, 95520, Note_on_c, 2, 57, 0
5, 95520, Note_on_c, 2, 52, 0
5, 95520, Note_on_c, 2, 64, 100
5, 95520, Note_on_c, 2, 57, 100
5, 95520, Note_on_c, 2, 52, 100
5, 95520, Note_on_c, 2, 45, 100
5, 95590, Note_on_c, 2, 45, 0
5, 95590, Note_on_c, 2, 64, 0
5, 95590, Note_on_c, 2, 57, 0
5, 95590, Note_on_c, 2, 52, 0
5, 95640, Note_on_c, 2, 45, 100
5, 95640, Note_on_c, 2, 52, 100
5, 95640, Note_on_c, 2, 64, 100
5, 95640, Note_on_c, 2, 57, 100
5, 95820, Note_on_c, 2, 57, 0
5, 95820, Note_on_c, 2, 45, 0
5, 95820, Note_on_c, 2, 52, 0
5, 95820, Note_on_c, 2, 64, 0
5, 95820, Note_on_c, 2, 47, 100
5, 95820, Note_on_c, 2, 54, 100
5, 95820, Note_on_c, 2, 59, 100
5, 95820, Note_on_c, 2, 64, 100
5, 95940, Note_on_c, 2, 64, 0
5, 95940, Note_on_c, 2, 47, 0
5, 95940, Note_on_c, 2, 54, 0
5, 95940, Note_on_c, 2, 59, 0
5, 95940, Note_on_c, 2, 60, 100
5, 96000, Note_on_c, 2, 60, 0
5, 96000, Note_on_c, 2, 59, 100
5, 96060, Note_on_c, 2, 59, 0
5, 96060, Note_on_c, 2, 57, 100
5, 96120, Note_on_c, 2, 57, 0
5, 96120, Note_on_c, 2, 55, 100
5, 96180, Note_on_c, 2, 55, 0
5, 96180, Note_on_c, 2, 57, 100
5, 96240, Note_on_c, 2, 57, 0
5, 96240, Note_on_c, 2, 59, 100
5, 96300, Note_on_c, 2, 59, 0
5, 96300, Pitch_bend_c, 2, 8192
5, 96300, Note_on_c, 2, 57, 100
5, 96304, Pitch_bend_c, 2, 8448
5, 96307, Pitch_bend_c, 2, 8576
5, 96309, Pitch_bend_c, 2, 8704
5, 96316, Pitch_bend_c, 2, 8832
5, 96325, Pitch_bend_c, 2, 8704
5, 96327, Pitch_bend_c, 2, 8576
5, 96328, Pitch_bend_c, 2, 8448
5, 96330, Pitch_bend_c, 2, 8320
5, 96332, Pitch_bend_c, 2, 8192
5, 96333, Pitch_bend_c, 2, 7936
5, 96334, Pitch_bend_c, 2, 7808
5, 96349, Pitch_bend_c, 2, 8064
5, 96352, Pitch_bend_c, 2, 8192
5, 96355, Pitch_bend_c, 2, 8320
5, 96357, Pitch_bend_c, 2, 8448
5, 96358, Pitch_bend_c, 2, 8576
5, 96364, Pitch_bend_c, 2, 8704
5, 96368, Pitch_bend_c, 2, 8832
5, 96375, Pitch_bend_c, 2, 8960
5, 96382, Pitch_bend_c, 2, 8832
5, 96387, Pitch_bend_c, 2, 8704
5, 96388, Pitch_bend_c, 2, 8576
5, 96391, Pitch_bend_c, 2, 8448
5, 96392, Pitch_bend_c, 2, 8320
5, 96396, Pitch_bend_c, 2, 8192
5, 96398, Pitch_bend_c, 2, 8064
5, 96420, Pitch_bend_c, 2, 8192
5, 96423, Pitch_bend_c, 2, 8320
5, 96424, Pitch_bend_c, 2, 8448
5, 96426, Pitch_bend_c, 2, 8576
5, 96428, Pitch_bend_c, 2, 8704
5, 96453, Pitch_bend_c, 2, 8576
5, 96456, Pitch_bend_c, 2, 8320
5, 96458, Pitch_bend_c, 2, 8192
5, 96460, Pitch_bend_c, 2, 8064
5, 96462, Pitch_bend_c, 2, 7936
5, 96463, Pitch_bend_c, 2, 7808
5, 96464, Pitch_bend_c, 2, 7680
5, 96476, Pitch_bend_c, 2, 7808
5, 96478, Pitch_bend_c, 2, 7936
5, 96480, Pitch_bend_c, 2, 8064
5, 96482, Pitch_bend_c, 2, 8192
5, 96486, Pitch_bend_c, 2, 8448
5, 96492, Pitch_bend_c, 2, 8576
5, 96498, Pitch_bend_c, 2, 8704
5, 96513, Pitch_bend_c, 2, 8832
5, 96528, Pitch_bend_c, 2, 8704
5, 96532, Pitch_bend_c, 2, 8576
5, 96536, Pitch_bend_c, 2, 8448
5, 96537, Pitch_bend_c, 2, 8320
5, 96540, Note_on_c, 2, 57, 0
5, 96541, Pitch_bend_c, 2, 8192
5, 96600, Note_on_c, 2, 61, 100
5, 96600, Note_on_c, 2, 57, 100
5, 96600, Note_on_c, 2, 52, 100
5, 96600, Note_on_c, 2, 45, 100
5, 96720, Note_on_c, 2, 45, 0
5, 96720, Note_on_c, 2, 61, 0
5, 96720, Note_on_c, 2, 57, 0
5, 96720, Note_on_c, 2, 52, 0
5, 96720, Note_on_c, 2, 62, 100
5, 96720, Note_on_c, 2, 57, 100
5, 96720, Note_on_c, 2, 52, 100
5, 96720, Note_on_c, 2, 45, 100
5, 96840, Note_on_c, 2, 45, 0
5, 96840, Note_on_c, 2, 62, 0
5, 96840, Note_on_c, 2, 57, 0
5, 96840, Note_on_c, 2, 52, 0
5, 96840, Note_on_c, 2, 64, 100
5, 96840, Note_on_c, 2, 57, 100
5, 96840, Note_on_c, 2, 52, 100
5, 96840, Note_on_c, 2, 45, 100
5, 96910, Note_on_c, 2, 45, 0
5, 96910, Note_on_c, 2, 64, 0
5, 96910, Note_on_c, 2, 57, 0
5, 96910, Note_on_c, 2, 52, 0
5, 96960, Note_on_c, 2, 45, 100
5, 96960, Note_on_c, 2, 52, 100
5, 96960, Note_on_c, 2, 64, 100
5, 96960, Note_on_c, 2, 57, 100
5, 97140, Note_on_c, 2, 57, 0
5, 97140, Note_on_c, 2, 45, 0
5, 97140, Note_on_c, 2, 52, 0
5, 97140, Note_on_c, 2, 64, 0
5, 97140, Note_on_c, 2, 47, 100
5, 97140, Note_on_c, 2, 54, 100
5, 97140, Note_on_c, 2, 59, 100
5, 97140, Note_on_c, 2, 64, 100
5, 97260, Note_on_c, 2, 64, 0
5, 97260, Note_on_c, 2, 47, 0
5, 97260, Note_on_c, 2, 54, 0
5, 97260, Note_on_c, 2, 59, 0
5, 97320, Note_on_c, 2, 60, 100
5, 97320, Note_on_c, 2, 55, 100
5, 97320, Note_on_c, 2, 48, 100
5, 97440, Note_on_c, 2, 48, 0
5, 97440, Note_on_c, 2, 55, 0
5, 97440, Note_on_c, 2, 60, 0
5, 97440, Note_on_c, 2, 62, 100
5, 97440, Note_on_c, 2, 55, 100
5, 97440, Note_on_c, 2, 48, 100
5, 97560, Note_on_c, 2, 48, 0
5, 97560, Note_on_c, 2, 55, 0
5, 97560, Note_on_c, 2, 62, 0
5, 97560, Note_on_c, 2, 64, 100
5, 97560, Note_on_c, 2, 55, 100
5, 97560, Note_on_c, 2, 48, 100
5, 97630, Note_on_c, 2, 48, 0
5, 97630, Note_on_c, 2, 55, 0
5, 97630, Note_on_c, 2, 64, 0
5, 97680, Note_on_c, 2, 50, 100
5, 97680, Note_on_c, 2, 57, 100
5, 97680, Note_on_c, 2, 62, 100
5, 97683, Pitch_bend_c, 2, 8192
5, 97686, Pitch_bend_c, 2, 8320
5, 97688, Pitch_bend_c, 2, 8448
5, 97690, Pitch_bend_c, 2, 8576
5, 97699, Pitch_bend_c, 2, 8448
5, 97700, Pitch_bend_c, 2, 8320
5, 97701, Pitch_bend_c, 2, 8192
5, 97704, Pitch_bend_c, 2, 8064
5, 97705, Pitch_bend_c, 2, 7808
5, 97718, Pitch_bend_c, 2, 7936
5, 97722, Pitch_bend_c, 2, 8064
5, 97724, Pitch_bend_c, 2, 8192
5, 97725, Pitch_bend_c, 2, 8320
5, 97728, Pitch_bend_c, 2, 8448
5, 97730, Pitch_bend_c, 2, 8576
5, 97734, Pitch_bend_c, 2, 8704
5, 97740, Pitch_bend_c, 2, 8832
5, 97753, Pitch_bend_c, 2, 8704
5, 97754, Pitch_bend_c, 2, 8576
5, 97756, Pitch_bend_c, 2, 8320
5, 97760, Pitch_bend_c, 2, 8192
5, 97762, Pitch_bend_c, 2, 7936
5, 97765, Pitch_bend_c, 2, 7808
5, 97766, Pitch_bend_c, 2, 7680
5, 97767, Pitch_bend_c, 2, 7552
5, 97779, Pitch_bend_c, 2, 7680
5, 97783, Pitch_bend_c, 2, 7808
5, 97785, Pitch_bend_c, 2, 7936
5, 97788, Pitch_bend_c, 2, 8064
5, 97790, Pitch_bend_c, 2, 8192
5, 97792, Pitch_bend_c, 2, 8320
5, 97795, Pitch_bend_c, 2, 8448
5, 97796, Pitch_bend_c, 2, 8576
5, 97802, Pitch_bend_c, 2, 8704
5, 97827, Pitch_bend_c, 2, 8576
5, 97830, Pitch_bend_c, 2, 8448
5, 97831, Pitch_bend_c, 2, 8320
5, 97832, Pitch_bend_c, 2, 8192
5, 97834, Pitch_bend_c, 2, 8064
5, 97836, Pitch_bend_c, 2, 7936
5, 97837, Pitch_bend_c, 2, 7808
5, 97838, Pitch_bend_c, 2, 7680
5, 97840, Pitch_bend_c, 2, 7552
5, 97843, Pitch_bend_c, 2, 7424
5, 97854, Pitch_bend_c, 2, 7552
5, 97857, Pitch_bend_c, 2, 7680
5, 97860, Note_on_c, 2, 62, 0
5, 97860, Note_on_c, 2, 57, 0
5, 97860, Note_on_c, 2, 50, 0
5, 97860, Note_on_c, 2, 50, 100
5, 97860, Note_on_c, 2, 57, 100
5, 97860, Note_on_c, 2, 62, 100
5, 97862, Pitch_bend_c, 2, 7936
5, 97864, Pitch_bend_c, 2, 8064
5, 97866, Pitch_bend_c, 2, 8192
5, 97869, Pitch_bend_c, 2, 8320
5, 97872, Pitch_bend_c, 2, 8448
5, 97879, Pitch_bend_c, 2, 8576
5, 97882, Pitch_bend_c, 2, 8704
5, 97888, Pitch_bend_c, 2, 8832
5, 97890, Pitch_bend_c, 2, 8960
5, 97896, Pitch_bend_c, 2, 8832
5, 97898, Pitch_bend_c, 2, 8704
5, 97899, Pitch_bend_c, 2, 8576
5, 97902, Pitch_bend_c, 2, 8320
5, 97905, Pitch_bend_c, 2, 8064
5, 97909, Pitch_bend_c, 2, 7936
5, 97911, Pitch_bend_c, 2, 7808
5, 97917, Pitch_bend_c, 2, 7680
5, 97924, Pitch_bend_c, 2, 7808
5, 97926, Pitch_bend_c, 2, 7936
5, 97928, Pitch_bend_c, 2, 8192
5, 97930, Pitch_bend_c, 2, 8448
5, 97934, Pitch_bend_c, 2, 8576
5, 97935, Pitch_bend_c, 2, 8704
5, 97944, Pitch_bend_c, 2, 8832
5, 97966, Pitch_bend_c, 2, 8704
5, 97974, Pitch_bend_c, 2, 8576
5, 97976, Pitch_bend_c, 2, 8448
5, 97977, Pitch_bend_c, 2, 8320
5, 97978, Pitch_bend_c, 2, 8064
5, 97980, Note_on_c, 2, 62, 0
5, 97980, Note_on_c, 2, 57, 0
5, 97980, Note_on_c, 2, 50, 0
5, 97980, Pitch_bend_c, 2, 8192
5, 98040, Note_on_c, 2, 65, 100
5, 98040, Note_on_c, 2, 57, 100
5, 98040, Note_on_c, 2, 53, 100
5, 98160, Note_on_c, 2, 53, 0
5, 98160, Note_on_c, 2, 57, 0
5, 98160, Note_on_c, 2, 65, 0
5, 98160, Note_on_c, 2, 67, 100
5, 98160, Note_on_c, 2, 57, 100
5, 98160, Note_on_c, 2, 53, 100
5, 98280, Note_on_c, 2, 53, 0
5, 98280, Note_on_c, 2, 57, 0
5, 98280, Note_on_c, 2, 67, 0
5, 98280, Note_on_c, 2, 69, 100
5, 98280, Note_on_c, 2, 57, 100
5, 98280, Note_on_c, 2, 53, 100
5, 98350, Note_on_c, 2, 53, 0
5, 98350, Note_on_c, 2, 57, 0
5, 98350, Note_on_c, 2, 69, 0
5, 98400, Note_on_c, 2, 53, 100
5, 98400, Note_on_c, 2, 69, 100
5, 98400, Note_on_c, 2, 57, 100
5, 98580, Note_on_c, 2, 57, 0
5, 98580, Note_on_c, 2, 69, 0
5, 98580, Note_on_c, 2, 53, 0
5, 98580, Note_on_c, 2, 55, 100
5, 98580, Note_on_c, 2, 59, 100
5, 98580, Note_on_c, 2, 71, 100
5, 98700, Note_on_c, 2, 71, 0
5, 98700, Note_on_c, 2, 59, 0
5, 98700, Note_on_c, 2, 55, 0
5, 98700, Note_on_c, 2, 60, 100
5, 98700, Note_on_c, 2, 67, 100
5, 98700, Note_on_c, 2, 72, 100
5, 98878, Pitch_bend_c, 2, 8320
5, 98882, Pitch_bend_c, 2, 8448
5, 98886, Pitch_bend_c, 2, 8576
5, 98890, Pitch_bend_c, 2, 8832
5, 98894, Pitch_bend_c, 2, 8960
5, 98898, Pitch_bend_c, 2, 8832
5, 98899, Pitch_bend_c, 2, 8704
5, 98901, Pitch_bend_c, 2, 8576
5, 98902, Pitch_bend_c, 2, 8320
5, 98906, Pitch_bend_c, 2, 8192
5, 98908, Pitch_bend_c, 2, 8064
5, 98911, Pitch_bend_c, 2, 7936
5, 98912, Pitch_bend_c, 2, 7808
5, 98913, Pitch_bend_c, 2, 7680
5, 98914, Pitch_bend_c, 2, 7552
5, 98919, Pitch_bend_c, 2, 7680
5, 98923, Pitch_bend_c, 2, 7808
5, 98928, Pitch_bend_c, 2, 7936
5, 98929, Pitch_bend_c, 2, 8064
5, 98932, Pitch_bend_c, 2, 8320
5, 98936, Pitch_bend_c, 2, 8576
5, 98938, Pitch_bend_c, 2, 8704
5, 98939, Note_on_c, 2, 72, 0
5, 98939, Note_on_c, 2, 67, 0
5, 98939, Note_on_c, 2, 60, 0
5, 98940, Note_on_c, 2, 67, 100
5, 98940, Note_on_c, 2, 60, 100
5, 98940, Note_on_c, 2, 72, 100
5, 98941, Pitch_bend_c, 2, 8832
5, 98943, Pitch_bend_c, 2, 8960
5, 98952, Pitch_bend_c, 2, 8832
5, 98953, Pitch_bend_c, 2, 8704
5, 98954, Pitch_bend_c, 2, 8576
5, 98955, Pitch_bend_c, 2, 8320
5, 98956, Pitch_bend_c, 2, 8192
5, 98959, Pitch_bend_c, 2, 8064
5, 98961, Pitch_bend_c, 2, 7936
5, 98973, Pitch_bend_c, 2, 8064
5, 98976, Pitch_bend_c, 2, 8192
5, 98978, Pitch_bend_c, 2, 8320
5, 98979, Pitch_bend_c, 2, 8448
5, 98982, Pitch_bend_c, 2, 8576
5, 98984, Pitch_bend_c, 2, 8704
5, 98988, Pitch_bend_c, 2, 8960
5, 98989, Pitch_bend_c, 2, 9088
5, 98994, Pitch_bend_c, 2, 8832
5, 98997, Pitch_bend_c, 2, 8576
5, 99000, Pitch_bend_c, 2, 8448
5, 99002, Pitch_bend_c, 2, 8320
5, 99007, Pitch_bend_c, 2, 8192
5, 99009, Pitch_bend_c, 2, 8064
5, 99012, Pitch_bend_c, 2, 7936
5, 99014, Pitch_bend_c, 2, 7808
5, 99021, Pitch_bend_c, 2, 7936
5, 99024, Pitch_bend_c, 2, 8064
5, 99025, Pitch_bend_c, 2, 8192
5, 99030, Pitch_bend_c, 2, 8320
5, 99031, Pitch_bend_c, 2, 8448
5, 99032, Pitch_bend_c, 2, 8576
5, 99054, Pitch_bend_c, 2, 8448
5, 99056, Pitch_bend_c, 2, 8320
5, 99057, Pitch_bend_c, 2, 8192
5, 99060, Pitch_bend_c, 2, 8064
5, 99062, Pitch_bend_c, 2, 8192
5, 99179, Note_on_c, 2, 72, 0
5, 99179, Note_on_c, 2, 60, 0
5, 99179, Note_on_c, 2, 67, 0
5, 99180, Note_on_c, 2, 66, 100
5, 99180, Pitch_bend_c, 2, 8320
5, 99189, Pitch_bend_c, 2, 8448
5, 99202, Pitch_bend_c, 2, 8320
5, 99204, Pitch_bend_c, 2, 8192
5, 99215, Pitch_bend_c, 2, 8320
5, 99219, Pitch_bend_c, 2, 8448
5, 99221, Pitch_bend_c, 2, 8576
5, 99232, Pitch_bend_c, 2, 8448
5, 99235, Pitch_bend_c, 2, 8064
5, 99237, Pitch_bend_c, 2, 7936
5, 99241, Pitch_bend_c, 2, 7808
5, 99254, Pitch_bend_c, 2, 7936
5, 99256, Pitch_bend_c, 2, 8064
5, 99259, Pitch_bend_c, 2, 8320
5, 99261, Pitch_bend_c, 2, 8448
5, 99276, Pitch_bend_c, 2, 8320
5, 99280, Pitch_bend_c, 2, 8192
5, 99283, Pitch_bend_c, 2, 8064
5, 99289, Pitch_bend_c, 2, 7936
5, 99300, Pitch_bend_c, 2, 8192
5, 99302, Pitch_bend_c, 2, 8320
5, 99304, Pitch_bend_c, 2, 8448
5, 99307, Pitch_bend_c, 2, 8576
5, 99322, Pitch_bend_c, 2, 8448
5, 99324, Pitch_bend_c, 2, 8320
5, 99326, Pitch_bend_c, 2, 8064
5, 99333, Pitch_bend_c, 2, 8448
5, 99339, Pitch_bend_c, 2, 8064
5, 99341, Pitch_bend_c, 2, 8192
5, 99357, Pitch_bend_c, 2, 8320
5, 99359, Pitch_bend_c, 2, 8448
5, 99360, Note_on_c, 2, 66, 0
5, 99360, Note_on_c, 2, 67, 100
5, 99372, Pitch_bend_c, 2, 8320
5, 99376, Pitch_bend_c, 2, 8192
5, 99379, Pitch_bend_c, 2, 8064
5, 99383, Pitch_bend_c, 2, 7936
5, 99394, Pitch_bend_c, 2, 8064
5, 99398, Pitch_bend_c, 2, 8320
5, 99403, Pitch_bend_c, 2, 8448
5, 99411, Pitch_bend_c, 2, 8576
5, 99420, Pitch_bend_c, 2, 8320
5, 99429, Pitch_bend_c, 2, 8448
5, 99442, Pitch_bend_c, 2, 8320
5, 99444, Pitch_bend_c, 2, 8192
5, 99455, Pitch_bend_c, 2, 8320
5, 99459, Pitch_bend_c, 2, 8448
5, 99461, Pitch_bend_c, 2, 8576
5, 99472, Pitch_bend_c, 2, 8448
5, 99475, Pitch_bend_c, 2, 8064
5, 99477, Pitch_bend_c, 2, 7936
5, 99481, Pitch_bend_c, 2, 7808
5, 99494, Pitch_bend_c, 2, 7936
5, 99496, Pitch_bend_c, 2, 8064
5, 99499, Pitch_bend_c, 2, 8320
5, 99501, Pitch_bend_c, 2, 8448
5, 99516, Pitch_bend_c, 2, 8320
5, 99520, Pitch_bend_c, 2, 8192
5, 99523, Pitch_bend_c, 2, 8064
5, 99529, Pitch_bend_c, 2, 7936
5, 99540, Note_on_c, 2, 67, 0
5, 99540, Note_on_c, 2, 69, 100
5, 99540, Pitch_bend_c, 2, 8192
5, 99542, Pitch_bend_c, 2, 8320
5, 99544, Pitch_bend_c, 2, 8448
5, 99547, Pitch_bend_c, 2, 8576
5, 99562, Pitch_bend_c, 2, 8448
5, 99564, Pitch_bend_c, 2, 8320
5, 99566, Pitch_bend_c, 2, 8064
5, 99573, Pitch_bend_c, 2, 8448
5, 99579, Pitch_bend_c, 2, 8064
5, 99581, Pitch_bend_c, 2, 8192
5, 99597, Pitch_bend_c, 2, 8320
5, 99599, Pitch_bend_c, 2, 8448
5, 99612, Pitch_bend_c, 2, 8320
5, 99616, Pitch_bend_c, 2, 8192
5, 99619, Pitch_bend_c, 2, 8064
5, 99623, Pitch_bend_c, 2, 7936
5, 99634, Pitch_bend_c, 2, 8064
5, 99638, Pitch_bend_c, 2, 8320
5, 99643, Pitch_bend_c, 2, 8448
5, 99651, Pitch_bend_c, 2, 8576
5, 99667, Pitch_bend_c, 2, 8448
5, 99669, Pitch_bend_c, 2, 8320
5, 99671, Pitch_bend_c, 2, 8192
5, 99673, Pitch_bend_c, 2, 8064
5, 99686, Pitch_bend_c, 2, 8192
5, 99691, Pitch_bend_c, 2, 8320
5, 99693, Pitch_bend_c, 2, 8448
5, 99699, Pitch_bend_c, 2, 8576
5, 99710, Pitch_bend_c, 2, 8448
5, 99712, Pitch_bend_c, 2, 8320
5, 99715, Pitch_bend_c, 2, 8192
5, 99717, Pitch_bend_c, 2, 8064
5, 99719, Pitch_bend_c, 2, 7936
5, 99725, Pitch_bend_c, 2, 7808
5, 99734, Pitch_bend_c, 2, 7936
5, 99736, Pitch_bend_c, 2, 8064
5, 99741, Pitch_bend_c, 2, 8320
5, 99760, Pitch_bend_c, 2, 8192
5, 99780, Note_on_c, 2, 69, 0
5, 99780, Note_on_c, 2, 74, 100
5, 99781, Pitch_bend_c, 2, 0
5, 99783, Pitch_bend_c, 2, 256
5, 99785, Pitch_bend_c, 2, 512
5, 99787, Pitch_bend_c, 2, 896
5, 99790, Pitch_bend_c, 2, 1152
5, 99792, Pitch_bend_c, 2, 1408
5, 99794, Pitch_bend_c, 2, 1792
5, 99796, Pitch_bend_c, 2, 2048
5, 99798, Pitch_bend_c, 2, 2304
5, 99800, Pitch_bend_c, 2, 2688
5, 99803, Pitch_bend_c, 2, 2944
5, 99805, Pitch_bend_c, 2, 3328
5, 99807, Pitch_bend_c, 2, 3584
5, 99809, Pitch_bend_c, 2, 3840
5, 99811, Pitch_bend_c, 2, 4224
5, 99814, Pitch_bend_c, 2, 4480
5, 99816, Pitch_bend_c, 2, 4736
5, 99818, Pitch_bend_c, 2, 5120
5, 99820, Pitch_bend_c, 2, 5376
5, 99822, Pitch_bend_c, 2, 5760
5, 99824, Pitch_bend_c, 2, 6016
5, 99827, Pitch_bend_c, 2, 6272
5, 99829, Pitch_bend_c, 2, 6656
5, 99831, Pitch_bend_c, 2, 6912
5, 99833, Pitch_bend_c, 2, 7168
5, 99835, Pitch_bend_c, 2, 7552
5, 99838, Pitch_bend_c, 2, 7808
5, 99840, Pitch_bend_c, 2, 8192
5, 99894, Pitch_bend_c, 2, 8320
5, 99922, Pitch_bend_c, 2, 8448
5, 99925, Pitch_bend_c, 2, 8576
5, 99936, Pitch_bend_c, 2, 8448
5, 99938, Pitch_bend_c, 2, 8320
5, 99940, Pitch_bend_c, 2, 8192
5, 99949, Pitch_bend_c, 2, 7936
5, 99951, Pitch_bend_c, 2, 7808
5, 99970, Pitch_bend_c, 2, 7936
5, 99975, Pitch_bend_c, 2, 8064
5, 99979, Pitch_bend_c, 2, 8192
5, 99981, Pitch_bend_c, 2, 8320
5, 99984, Pitch_bend_c, 2, 8448
5, 99990, Pitch_bend_c, 2, 8704
5, 99994, Pitch_bend_c, 2, 8832
5, 100001, Pitch_bend_c, 2, 8960
5, 100003, Pitch_bend_c, 2, 9088
5, 100010, Pitch_bend_c, 2, 8960
5, 100014, Pitch_bend_c, 2, 8832
5, 100018, Pitch_bend_c, 2, 8704
5, 100021, Pitch_bend_c, 2, 8448
5, 100023, Pitch_bend_c, 2, 8320
5, 100025, Pitch_bend_c, 2, 8192
5, 100027, Pitch_bend_c, 2, 7936
5, 100032, Pitch_bend_c, 2, 7808
5, 100053, Pitch_bend_c, 2, 7936
5, 100056, Pitch_bend_c, 2, 8064
5, 100058, Pitch_bend_c, 2, 8192
5, 100062, Pitch_bend_c, 2, 8320
5, 100064, Pitch_bend_c, 2, 8448
5, 100066, Pitch_bend_c, 2, 8576
5, 100071, Pitch_bend_c, 2, 8704
5, 100101, Pitch_bend_c, 2, 8448
5, 100108, Pitch_bend_c, 2, 8320
5, 100112, Pitch_bend_c, 2, 8192
5, 100140, Note_on_c, 2, 74, 0
5, 100140, Note_on_c, 2, 72, 110
5, 100141, Pitch_bend_c, 2, 4096
5, 100143, Pitch_bend_c, 2, 4224
5, 100145, Pitch_bend_c, 2, 4352
5, 100147, Pitch_bend_c, 2, 4480
5, 100150, Pitch_bend_c, 2, 4608
5, 100152, Pitch_bend_c, 2, 4736
5, 100154, Pitch_bend_c, 2, 4864
5, 100156, Pitch_bend_c, 2, 5120
5, 100158, Pitch_bend_c, 2, 5248
5, 100160, Pitch_bend_c, 2, 5376
5, 100163, Pitch_bend_c, 2, 5504
5, 100165, Pitch_bend_c, 2, 5632
5, 100167, Pitch_bend_c, 2, 5760
5, 100169, Pitch_bend_c, 2, 5888
5, 100171, Pitch_bend_c, 2, 6144
5, 100174, Pitch_bend_c, 2, 6272
5, 100176, Pitch_bend_c, 2, 6400
5, 100178, Pitch_bend_c, 2, 6528
5, 100180, Pitch_bend_c, 2, 6656
5, 100182, Pitch_bend_c, 2, 6784
5, 100184, Pitch_bend_c, 2, 6912
5, 100187, Pitch_bend_c, 2, 7168
5, 100189, Pitch_bend_c, 2, 7296
5, 100191, Pitch_bend_c, 2, 7424
5, 100193, Pitch_bend_c, 2, 7552
5, 100195, Pitch_bend_c, 2, 7680
5, 100198, Pitch_bend_c, 2, 7808
5, 100200, Pitch_bend_c, 2, 7936
5, 100202, Pitch_bend_c, 2, 8192
5, 100317, Pitch_bend_c, 2, 8192
5, 100320, Pitch_bend_c, 2, 8064
5, 100322, Pitch_bend_c, 2, 7808
5, 100324, Pitch_bend_c, 2, 7552
5, 100326, Pitch_bend_c, 2, 7296
5, 100328, Pitch_bend_c, 2, 7168
5, 100330, Pitch_bend_c, 2, 6912
5, 100333, Pitch_bend_c, 2, 6656
5, 100335, Pitch_bend_c, 2, 6400
5, 100337, Pitch_bend_c, 2, 6144
5, 100339, Pitch_bend_c, 2, 6016
5, 100341, Pitch_bend_c, 2, 5760
5, 100344, Pitch_bend_c, 2, 5504
5, 100346, Pitch_bend_c, 2, 5248
5, 100348, Pitch_bend_c, 2, 5120
5, 100350, Pitch_bend_c, 2, 4864
5, 100352, Pitch_bend_c, 2, 4608
5, 100354, Pitch_bend_c, 2, 4352
5, 100357, Pitch_bend_c, 2, 4096
5, 100492, Pitch_bend_c, 2, 4096
5, 100494, Pitch_bend_c, 2, 4352
5, 100496, Pitch_bend_c, 2, 4736
5, 100498, Pitch_bend_c, 2, 5120
5, 100500, Note_on_c, 2, 72, 0
5, 100501, Pitch_bend_c, 2, 5376
5, 100502, Note_on_c, 2, 72, 80
5, 100503, Pitch_bend_c, 2, 5760
5, 100505, Pitch_bend_c, 2, 6144
5, 100507, Pitch_bend_c, 2, 6400
5, 100509, Pitch_bend_c, 2, 6784
5, 100512, Pitch_bend_c, 2, 7168
5, 100514, Pitch_bend_c, 2, 7424
5, 100516, Pitch_bend_c, 2, 7808
5, 100518, Pitch_bend_c, 2, 8192
5, 100620, Note_on_c, 2, 72, 0
5, 100620, Note_on_c, 2, 69, 100
5, 100800, Note_on_c, 2, 69, 0
5, 100800, Note_on_c, 2, 71, 80
5, 100830, Note_on_c, 2, 71, 0
5, 100830, Note_on_c, 2, 69, 80
5, 100860, Note_on_c, 2, 69, 0
5, 100860, Note_on_c, 2, 67, 100
5, 100898, Pitch_bend_c, 2, 8192
5, 100902, Pitch_bend_c, 2, 8320
5, 100909, Pitch_bend_c, 2, 8448
5, 100915, Pitch_bend_c, 2, 8576
5, 100939, Pitch_bend_c, 2, 8448
5, 100948, Pitch_bend_c, 2, 8320
5, 100952, Pitch_bend_c, 2, 8192
5, 100959, Pitch_bend_c, 2, 8064
5, 100968, Pitch_bend_c, 2, 7936
5, 100987, Pitch_bend_c, 2, 8064
5, 100989, Pitch_bend_c, 2, 8192
5, 100996, Pitch_bend_c, 2, 8320
5, 101000, Pitch_bend_c, 2, 8448
5, 101002, Pitch_bend_c, 2, 8576
5, 101005, Pitch_bend_c, 2, 8704
5, 101061, Pitch_bend_c, 2, 8576
5, 101064, Pitch_bend_c, 2, 8448
5, 101072, Pitch_bend_c, 2, 8320
5, 101090, Pitch_bend_c, 2, 8064
5, 101092, Pitch_bend_c, 2, 8192
5, 101100, Note_on_c, 2, 67, 0
5, 101100, Note_on_c, 2, 66, 100
5, 101105, Pitch_bend_c, 2, 8320
5, 101114, Pitch_bend_c, 2, 8448
5, 101127, Pitch_bend_c, 2, 8320
5, 101129, Pitch_bend_c, 2, 8192
5, 101140, Pitch_bend_c, 2, 8320
5, 101144, Pitch_bend_c, 2, 8448
5, 101146, Pitch_bend_c, 2, 8576
5, 101157, Pitch_bend_c, 2, 8448
5, 101160, Pitch_bend_c, 2, 8064
5, 101162, Pitch_bend_c, 2, 7936
5, 101166, Pitch_bend_c, 2, 7808
5, 101179, Pitch_bend_c, 2, 7936
5, 101181, Pitch_bend_c, 2, 8064
5, 101184, Pitch_bend_c, 2, 8320
5, 101186, Pitch_bend_c, 2, 8448
5, 101201, Pitch_bend_c, 2, 8320
5, 101205, Pitch_bend_c, 2, 8192
5, 101208, Pitch_bend_c, 2, 8064
5, 101214, Pitch_bend_c, 2, 7936
5, 101225, Pitch_bend_c, 2, 8192
5, 101227, Pitch_bend_c, 2, 8320
5, 101229, Pitch_bend_c, 2, 8448
5, 101232, Pitch_bend_c, 2, 8576
5, 101247, Pitch_bend_c, 2, 8448
5, 101249, Pitch_bend_c, 2, 8320
5, 101251, Pitch_bend_c, 2, 8064
5, 101258, Pitch_bend_c, 2, 8448
5, 101264, Pitch_bend_c, 2, 8064
5, 101266, Pitch_bend_c, 2, 8192
5, 101280, Note_on_c, 2, 66, 0
5, 101280, Note_on_c, 2, 67, 100
5, 101282, Pitch_bend_c, 2, 8320
5, 101284, Pitch_bend_c, 2, 8448
5, 101297, Pitch_bend_c, 2, 8320
5, 101301, Pitch_bend_c, 2, 8192
5, 101304, Pitch_bend_c, 2, 8064
5, 101308, Pitch_bend_c, 2, 7936
5, 101319, Pitch_bend_c, 2, 8064
5, 101323, Pitch_bend_c, 2, 8320
5, 101328, Pitch_bend_c, 2, 8448
5, 101336, Pitch_bend_c, 2, 8576
5, 101352, Pitch_bend_c, 2, 8448
5, 101354, Pitch_bend_c, 2, 8320
5, 101356, Pitch_bend_c, 2, 8192
5, 101358, Pitch_bend_c, 2, 8064
5, 101371, Pitch_bend_c, 2, 8192
5, 101376, Pitch_bend_c, 2, 8320
5, 101378, Pitch_bend_c, 2, 8448
5, 101384, Pitch_bend_c, 2, 8576
5, 101395, Pitch_bend_c, 2, 8448
5, 101397, Pitch_bend_c, 2, 8320
5, 101400, Pitch_bend_c, 2, 8192
5, 101402, Pitch_bend_c, 2, 8064
5, 101404, Pitch_bend_c, 2, 7936
5, 101410, Pitch_bend_c, 2, 7808
5, 101419, Pitch_bend_c, 2, 7936
5, 101421, Pitch_bend_c, 2, 8064
5, 101426, Pitch_bend_c, 2, 8320
5, 101445, Pitch_bend_c, 2, 8192
5, 101460, Note_on_c, 2, 67, 0
5, 101460, Note_on_c, 2, 69, 100
5, 101580, Note_on_c, 2, 69, 0
5, 101580, Note_on_c, 2, 62, 100
5, 101580, Pitch_bend_c, 2, 8320
5, 101589, Pitch_bend_c, 2, 8448
5, 101602, Pitch_bend_c, 2, 8320
5, 101604, Pitch_bend_c, 2, 8192
5, 101615, Pitch_bend_c, 2, 8320
5, 101619, Pitch_bend_c, 2, 8448
5, 101621, Pitch_bend_c, 2, 8576
5, 101632, Pitch_bend_c, 2, 8448
5, 101635, Pitch_bend_c, 2, 8064
5, 101637, Pitch_bend_c, 2, 7936
5, 101641, Pitch_bend_c, 2, 7808
5, 101654, Pitch_bend_c, 2, 7936
5, 101656, Pitch_bend_c, 2, 8064
5, 101659, Pitch_bend_c, 2, 8320
5, 101661, Pitch_bend_c, 2, 8448
5, 101676, Pitch_bend_c, 2, 8320
5, 101680, Pitch_bend_c, 2, 8192
5, 101683, Pitch_bend_c, 2, 8064
5, 101689, Pitch_bend_c, 2, 7936
5, 101700, Pitch_bend_c, 2, 8192
5, 101702, Pitch_bend_c, 2, 8320
5, 101704, Pitch_bend_c, 2, 8448
5, 101707, Pitch_bend_c, 2, 8576
5, 101722, Pitch_bend_c, 2, 8448
5, 101724, Pitch_bend_c, 2, 8320
5, 101726, Pitch_bend_c, 2, 8064
5, 101733, Pitch_bend_c, 2, 8448
5, 101739, Pitch_bend_c, 2, 8064
5, 101741, Pitch_bend_c, 2, 8192
5, 101757, Pitch_bend_c, 2, 8320
5, 101759, Pitch_bend_c, 2, 8448
5, 101760, Note_on_c, 2, 62, 0
5, 101760, Note_on_c, 2, 64, 100
5, 101772, Pitch_bend_c, 2, 8320
5, 101776, Pitch_bend_c, 2, 8192
5, 101779, Pitch_bend_c, 2, 8064
5, 101783, Pitch_bend_c, 2, 7936
5, 101794, Pitch_bend_c, 2, 8064
5, 101798, Pitch_bend_c, 2, 8320
5, 101803, Pitch_bend_c, 2, 8448
5, 101811, Pitch_bend_c, 2, 8576
5, 101940, Note_on_c, 2, 64, 0
5, 101940, Note_on_c, 2, 66, 100
5, 102060, Note_on_c, 2, 66, 0
5, 102060, Note_on_c, 2, 64, 100
5, 102061, Pitch_bend_c, 2, 16256
5, 102063, Pitch_bend_c, 2, 16000
5, 102065, Pitch_bend_c, 2, 15744
5, 102067, Pitch_bend_c, 2, 15488
5, 102069, Pitch_bend_c, 2, 15232
5, 102072, Pitch_bend_c, 2, 14976
5, 102074, Pitch_bend_c, 2, 14720
5, 102076, Pitch_bend_c, 2, 14464
5, 102078, Pitch_bend_c, 2, 14208
5, 102080, Pitch_bend_c, 2, 13952
5, 102082, Pitch_bend_c, 2, 13568
5, 102085, Pitch_bend_c, 2, 13312
5, 102087, Pitch_bend_c, 2, 13056
5, 102089, Pitch_bend_c, 2, 12800
5, 102091, Pitch_bend_c, 2, 12544
5, 102093, Pitch_bend_c, 2, 12288
5, 102096, Pitch_bend_c, 2, 12032
5, 102098, Pitch_bend_c, 2, 11776
5, 102100, Pitch_bend_c, 2, 11520
5, 102102, Pitch_bend_c, 2, 11264
5, 102104, Pitch_bend_c, 2, 10880
5, 102106, Pitch_bend_c, 2, 10624
5, 102109, Pitch_bend_c, 2, 10368
5, 102111, Pitch_bend_c, 2, 10112
5, 102113, Pitch_bend_c, 2, 9856
5, 102115, Pitch_bend_c, 2, 9600
5, 102117, Pitch_bend_c, 2, 9344
5, 102120, Pitch_bend_c, 2, 9088
5, 102122, Pitch_bend_c, 2, 8832
5, 102124, Pitch_bend_c, 2, 8576
5, 102126, Pitch_bend_c, 2, 8192
5, 102240, Note_on_c, 2, 64, 0
5, 102246, Note_on_c, 2, 66, 80
5, 102270, Note_on_c, 2, 66, 0
5, 102270, Note_on_c, 2, 64, 80
5, 102300, Note_on_c, 2, 64, 0
5, 102300, Note_on_c, 2, 62, 100
5, 102416, Pitch_bend_c, 2, 8192
5, 102420, Note_on_c, 2, 62, 0
5, 102420, Note_on_c, 2, 62, 100
5, 102421, Pitch_bend_c, 2, 8320
5, 102438, Pitch_bend_c, 2, 8192
5, 102442, Pitch_bend_c, 2, 8064
5, 102445, Pitch_bend_c, 2, 7936
5, 102473, Pitch_bend_c, 2, 8064
5, 102480, Pitch_bend_c, 2, 8192
5, 102486, Pitch_bend_c, 2, 8320
5, 102499, Pitch_bend_c, 2, 8448
5, 102532, Pitch_bend_c, 2, 8192
5, 102660, Pitch_bend_c, 2, 8448
5, 102663, Pitch_bend_c, 2, 8576
5, 102664, Pitch_bend_c, 2, 8704
5, 102673, Pitch_bend_c, 2, 8832
5, 102680, Pitch_bend_c, 2, 8704
5, 102681, Pitch_bend_c, 2, 8576
5, 102682, Pitch_bend_c, 2, 8448
5, 102684, Pitch_bend_c, 2, 8320
5, 102685, Pitch_bend_c, 2, 8192
5, 102686, Pitch_bend_c, 2, 8064
5, 102687, Pitch_bend_c, 2, 7936
5, 102691, Pitch_bend_c, 2, 7808
5, 102702, Pitch_bend_c, 2, 7936
5, 102704, Pitch_bend_c, 2, 8192
5, 102705, Pitch_bend_c, 2, 8320
5, 102708, Pitch_bend_c, 2, 8448
5, 102710, Pitch_bend_c, 2, 8704
5, 102712, Pitch_bend_c, 2, 8832
5, 102715, Pitch_bend_c, 2, 8960
5, 102734, Pitch_bend_c, 2, 8704
5, 102736, Pitch_bend_c, 2, 8576
5, 102738, Pitch_bend_c, 2, 8448
5, 102739, Pitch_bend_c, 2, 8320
5, 102741, Pitch_bend_c, 2, 8064
5, 102745, Pitch_bend_c, 2, 7936
5, 102750, Pitch_bend_c, 2, 7808
5, 102762, Pitch_bend_c, 2, 7936
5, 102766, Pitch_bend_c, 2, 8064
5, 102769, Pitch_bend_c, 2, 8192
5, 102772, Pitch_bend_c, 2, 8320
5, 102776, Pitch_bend_c, 2, 8448
5, 102781, Pitch_bend_c, 2, 8576
5, 102789, Pitch_bend_c, 2, 8704
5, 102795, Pitch_bend_c, 2, 8576
5, 102796, Pitch_bend_c, 2, 8448
5, 102798, Pitch_bend_c, 2, 8320
5, 102801, Pitch_bend_c, 2, 8064
5, 102806, Pitch_bend_c, 2, 7936
5, 102807, Pitch_bend_c, 2, 7808
5, 102812, Pitch_bend_c, 2, 7680
5, 102822, Pitch_bend_c, 2, 7808
5, 102826, Pitch_bend_c, 2, 7936
5, 102828, Pitch_bend_c, 2, 8064
5, 102830, Pitch_bend_c, 2, 8192
5, 102831, Pitch_bend_c, 2, 8320
5, 102835, Pitch_bend_c, 2, 8448
5, 102836, Pitch_bend_c, 2, 8576
5, 102837, Pitch_bend_c, 2, 8704
5, 102852, Pitch_bend_c, 2, 8832
5, 102864, Pitch_bend_c, 2, 8704
5, 102867, Pitch_bend_c, 2, 8576
5, 102870, Pitch_bend_c, 2, 8448
5, 102872, Pitch_bend_c, 2, 8320
5, 102874, Pitch_bend_c, 2, 8192
5, 102876, Pitch_bend_c, 2, 8064
5, 102884, Pitch_bend_c, 2, 7936
5, 102909, Pitch_bend_c, 2, 8064
5, 102910, Pitch_bend_c, 2, 8192
5, 102913, Pitch_bend_c, 2, 8320
5, 102915, Pitch_bend_c, 2, 8448
5, 102918, Pitch_bend_c, 2, 8576
5, 102919, Pitch_bend_c, 2, 8704
5, 102922, Pitch_bend_c, 2, 8832
5, 102925, Pitch_bend_c, 2, 8960
5, 102943, Pitch_bend_c, 2, 8832
5, 102945, Pitch_bend_c, 2, 8704
5, 102946, Pitch_bend_c, 2, 8576
5, 102949, Pitch_bend_c, 2, 8448
5, 102951, Pitch_bend_c, 2, 8320
5, 102952, Pitch_bend_c, 2, 8192
5, 102954, Pitch_bend_c, 2, 8064
5, 102956, Pitch_bend_c, 2, 7936
5, 102962, Pitch_bend_c, 2, 7808
5, 102975, Pitch_bend_c, 2, 7936
5, 102976, Pitch_bend_c, 2, 8192
5, 102978, Pitch_bend_c, 2, 8320
5, 102984, Pitch_bend_c, 2, 8448
5, 102993, Pitch_bend_c, 2, 8576
5, 102996, Pitch_bend_c, 2, 8704
5, 103011, Pitch_bend_c, 2, 8576
5, 103015, Pitch_bend_c, 2, 8448
5, 103016, Pitch_bend_c, 2, 8320
5, 103017, Pitch_bend_c, 2, 8192
5, 103020, Note_on_c, 2, 62, 0
5, 103020, Note_on_c, 2, 66, 100
5, 103020, Pitch_bend_c, 2, 8320
5, 103021, Pitch_bend_c, 2, 8192
5, 103023, Pitch_bend_c, 2, 16383
5, 103025, Pitch_bend_c, 2, 16128
5, 103027, Pitch_bend_c, 2, 15744
5, 103029, Pitch_bend_c, 2, 15360
5, 103032, Pitch_bend_c, 2, 14976
5, 103034, Pitch_bend_c, 2, 14592
5, 103036, Pitch_bend_c, 2, 14208
5, 103038, Pitch_bend_c, 2, 13824
5, 103040, Pitch_bend_c, 2, 13440
5, 103042, Pitch_bend_c, 2, 13056
5, 103045, Pitch_bend_c, 2, 12672
5, 103047, Pitch_bend_c, 2, 12288
5, 103049, Pitch_bend_c, 2, 12032
5, 103051, Pitch_bend_c, 2, 11648
5, 103053, Pitch_bend_c, 2, 11264
5, 103056, Pitch_bend_c, 2, 10880
5, 103058, Pitch_bend_c, 2, 10496
5, 103060, Pitch_bend_c, 2, 10112
5, 103062, Pitch_bend_c, 2, 9728
5, 103064, Pitch_bend_c, 2, 9344
5, 103066, Pitch_bend_c, 2, 8960
5, 103069, Pitch_bend_c, 2, 8576
5, 103071, Pitch_bend_c, 2, 8192
5, 103072, Pitch_bend_c, 2, 8448
5, 103075, Pitch_bend_c, 2, 8064
5, 103077, Pitch_bend_c, 2, 7936
5, 103081, Pitch_bend_c, 2, 7808
5, 103094, Pitch_bend_c, 2, 7936
5, 103096, Pitch_bend_c, 2, 8064
5, 103099, Pitch_bend_c, 2, 8320
5, 103101, Pitch_bend_c, 2, 8448
5, 103116, Pitch_bend_c, 2, 8320
5, 103120, Pitch_bend_c, 2, 8192
5, 103123, Pitch_bend_c, 2, 8064
5, 103129, Pitch_bend_c, 2, 7936
5, 103140, Pitch_bend_c, 2, 8192
5, 103142, Pitch_bend_c, 2, 8320
5, 103144, Pitch_bend_c, 2, 8448
5, 103147, Pitch_bend_c, 2, 8576
5, 103162, Pitch_bend_c, 2, 8448
5, 103164, Pitch_bend_c, 2, 8320
5, 103166, Pitch_bend_c, 2, 8064
5, 103173, Pitch_bend_c, 2, 8448
5, 103179, Pitch_bend_c, 2, 8064
5, 103181, Pitch_bend_c, 2, 8192
5, 103197, Pitch_bend_c, 2, 8320
5, 103199, Pitch_bend_c, 2, 8448
5, 103200, Note_on_c, 2, 66, 0
5, 103200, Note_on_c, 2, 67, 100
5, 103212, Pitch_bend_c, 2, 8320
5, 103216, Pitch_bend_c, 2, 8192
5, 103219, Pitch_bend_c, 2, 8064
5, 103223, Pitch_bend_c, 2, 7936
5, 103234, Pitch_bend_c, 2, 8064
5, 103238, Pitch_bend_c, 2, 8320
5, 103243, Pitch_bend_c, 2, 8448
5, 103251, Pitch_bend_c, 2, 8576
5, 103380, Note_on_c, 2, 67, 0
5, 103380, Note_on_c, 2, 69, 100
5, 103380, Pitch_bend_c, 2, 8320
5, 103389, Pitch_bend_c, 2, 8448
5, 103402, Pitch_bend_c, 2, 8320
5, 103404, Pitch_bend_c, 2, 8192
5, 103415, Pitch_bend_c, 2, 8320
5, 103419, Pitch_bend_c, 2, 8448
5, 103421, Pitch_bend_c, 2, 8576
5, 103432, Pitch_bend_c, 2, 8448
5, 103435, Pitch_bend_c, 2, 8064
5, 103437, Pitch_bend_c, 2, 7936
5, 103441, Pitch_bend_c, 2, 7808
5, 103454, Pitch_bend_c, 2, 7936
5, 103456, Pitch_bend_c, 2, 8064
5, 103459, Pitch_bend_c, 2, 8320
5, 103461, Pitch_bend_c, 2, 8448
5, 103476, Pitch_bend_c, 2, 8320
5, 103480, Pitch_bend_c, 2, 8192
5, 103483, Pitch_bend_c, 2, 8064
5, 103489, Pitch_bend_c, 2, 7936
5, 103500, Pitch_bend_c, 2, 8192
5, 103502, Pitch_bend_c, 2, 8320
5, 103504, Pitch_bend_c, 2, 8448
5, 103507, Pitch_bend_c, 2, 8576
5, 103522, Pitch_bend_c, 2, 8448
5, 103524, Pitch_bend_c, 2, 8320
5, 103526, Pitch_bend_c, 2, 8064
5, 103533, Pitch_bend_c, 2, 8448
5, 103539, Pitch_bend_c, 2, 8064
5, 103541, Pitch_bend_c, 2, 8192
5, 103557, Pitch_bend_c, 2, 8320
5, 103559, Pitch_bend_c, 2, 8448
5, 103572, Pitch_bend_c, 2, 8320
5, 103576, Pitch_bend_c, 2, 8192
5, 103579, Pitch_bend_c, 2, 8064
5, 103583, Pitch_bend_c, 2, 7936
5, 103594, Pitch_bend_c, 2, 8064
5, 103598, Pitch_bend_c, 2, 8320
5, 103603, Pitch_bend_c, 2, 8448
5, 103611, Pitch_bend_c, 2, 8576
5, 103620, Note_on_c, 2, 69, 0
5, 103620, Note_on_c, 2, 74, 100
5, 103621, Pitch_bend_c, 2, 0
5, 103623, Pitch_bend_c, 2, 128
5, 103625, Pitch_bend_c, 2, 384
5, 103627, Pitch_bend_c, 2, 512
5, 103629, Pitch_bend_c, 2, 768
5, 103632, Pitch_bend_c, 2, 1024
5, 103634, Pitch_bend_c, 2, 1152
5, 103636, Pitch_bend_c, 2, 1408
5, 103638, Pitch_bend_c, 2, 1536
5, 103640, Pitch_bend_c, 2, 1792
5, 103642, Pitch_bend_c, 2, 2048
5, 103645, Pitch_bend_c, 2, 2176
5, 103647, Pitch_bend_c, 2, 2432
5, 103649, Pitch_bend_c, 2, 2560
5, 103651, Pitch_bend_c, 2, 2816
5, 103653, Pitch_bend_c, 2, 3072
5, 103656, Pitch_bend_c, 2, 3200
5, 103658, Pitch_bend_c, 2, 3456
5, 103660, Pitch_bend_c, 2, 3584
5, 103662, Pitch_bend_c, 2, 3840
5, 103664, Pitch_bend_c, 2, 4096
5, 103666, Pitch_bend_c, 2, 4224
5, 103669, Pitch_bend_c, 2, 4480
5, 103671, Pitch_bend_c, 2, 4608
5, 103673, Pitch_bend_c, 2, 4864
5, 103675, Pitch_bend_c, 2, 5120
5, 103677, Pitch_bend_c, 2, 5248
5, 103680, Pitch_bend_c, 2, 5504
5, 103682, Pitch_bend_c, 2, 5632
5, 103684, Pitch_bend_c, 2, 5888
5, 103686, Pitch_bend_c, 2, 6144
5, 103688, Pitch_bend_c, 2, 6272
5, 103690, Pitch_bend_c, 2, 6528
5, 103693, Pitch_bend_c, 2, 6656
5, 103695, Pitch_bend_c, 2, 6912
5, 103697, Pitch_bend_c, 2, 7168
5, 103699, Pitch_bend_c, 2, 7296
5, 103701, Pitch_bend_c, 2, 7552
5, 103704, Pitch_bend_c, 2, 7680
5, 103706, Pitch_bend_c, 2, 7936
5, 103708, Pitch_bend_c, 2, 8192
5, 103980, Note_on_c, 2, 74, 0
5, 103980, Note_on_c, 2, 74, 110
5, 103981, Pitch_bend_c, 2, 8192
5, 103983, Pitch_bend_c, 2, 8320
5, 103985, Pitch_bend_c, 2, 8576
5, 103987, Pitch_bend_c, 2, 8832
5, 103989, Pitch_bend_c, 2, 8960
5, 103992, Pitch_bend_c, 2, 9216
5, 103994, Pitch_bend_c, 2, 9472
5, 103996, Pitch_bend_c, 2, 9600
5, 103998, Pitch_bend_c, 2, 9856
5, 104000, Pitch_bend_c, 2, 10112
5, 104002, Pitch_bend_c, 2, 10240
5, 104005, Pitch_bend_c, 2, 10496
5, 104007, Pitch_bend_c, 2, 10752
5, 104009, Pitch_bend_c, 2, 10880
5, 104011, Pitch_bend_c, 2, 11136
5, 104013, Pitch_bend_c, 2, 11392
5, 104016, Pitch_bend_c, 2, 11520
5, 104018, Pitch_bend_c, 2, 11776
5, 104020, Pitch_bend_c, 2, 12032
5, 104022, Pitch_bend_c, 2, 12288
5, 104024, Pitch_bend_c, 2, 12416
5, 104026, Pitch_bend_c, 2, 12672
5, 104029, Pitch_bend_c, 2, 12928
5, 104031, Pitch_bend_c, 2, 13056
5, 104033, Pitch_bend_c, 2, 13312
5, 104035, Pitch_bend_c, 2, 13568
5, 104037, Pitch_bend_c, 2, 13696
5, 104040, Pitch_bend_c, 2, 13952
5, 104042, Pitch_bend_c, 2, 14208
5, 104044, Pitch_bend_c, 2, 14336
5, 104046, Pitch_bend_c, 2, 14592
5, 104048, Pitch_bend_c, 2, 14848
5, 104050, Pitch_bend_c, 2, 14976
5, 104053, Pitch_bend_c, 2, 15232
5, 104055, Pitch_bend_c, 2, 15488
5, 104057, Pitch_bend_c, 2, 15616
5, 104059, Pitch_bend_c, 2, 15872
5, 104061, Pitch_bend_c, 2, 16128
5, 104064, Pitch_bend_c, 2, 16383
5, 104340, Pitch_bend_c, 2, 16128
5, 104342, Pitch_bend_c, 2, 16000
5, 104345, Pitch_bend_c, 2, 15872
5, 104347, Pitch_bend_c, 2, 15744
5, 104349, Pitch_bend_c, 2, 15616
5, 104351, Pitch_bend_c, 2, 15488
5, 104353, Pitch_bend_c, 2, 15360
5, 104356, Pitch_bend_c, 2, 15104
5, 104358, Pitch_bend_c, 2, 14976
5, 104360, Pitch_bend_c, 2, 14848
5, 104362, Pitch_bend_c, 2, 14720
5, 104364, Pitch_bend_c, 2, 14592
5, 104366, Pitch_bend_c, 2, 14464
5, 104369, Pitch_bend_c, 2, 14336
5, 104371, Pitch_bend_c, 2, 14080
5, 104373, Pitch_bend_c, 2, 13952
5, 104375, Pitch_bend_c, 2, 13824
5, 104377, Pitch_bend_c, 2, 13696
5, 104380, Pitch_bend_c, 2, 13568
5, 104382, Pitch_bend_c, 2, 13440
5, 104384, Pitch_bend_c, 2, 13312
5, 104386, Pitch_bend_c, 2, 13056
5, 104388, Pitch_bend_c, 2, 12928
5, 104390, Pitch_bend_c, 2, 12800
5, 104393, Pitch_bend_c, 2, 12672
5, 104395, Pitch_bend_c, 2, 12544
5, 104397, Pitch_bend_c, 2, 12416
5, 104399, Pitch_bend_c, 2, 12160
5, 104401, Pitch_bend_c, 2, 12032
5, 104404, Pitch_bend_c, 2, 11904
5, 104406, Pitch_bend_c, 2, 11776
5, 104408, Pitch_bend_c, 2, 11648
5, 104410, Pitch_bend_c, 2, 11520
5, 104412, Pitch_bend_c, 2, 11392
5, 104414, Pitch_bend_c, 2, 11136
5, 104417, Pitch_bend_c, 2, 11008
5, 104419, Pitch_bend_c, 2, 10880
5, 104421, Pitch_bend_c, 2, 10752
5, 104423, Pitch_bend_c, 2, 10624
5, 104425, Pitch_bend_c, 2, 10496
5, 104428, Pitch_bend_c, 2, 10368
5, 104430, Pitch_bend_c, 2, 10112
5, 104432, Pitch_bend_c, 2, 9984
5, 104434, Pitch_bend_c, 2, 9856
5, 104436, Pitch_bend_c, 2, 9728
5, 104438, Pitch_bend_c, 2, 9600
5, 104441, Pitch_bend_c, 2, 9472
5, 104443, Pitch_bend_c, 2, 9344
5, 104445, Pitch_bend_c, 2, 9088
5, 104447, Pitch_bend_c, 2, 8960
5, 104449, Pitch_bend_c, 2, 8832
5, 104452, Pitch_bend_c, 2, 8704
5, 104454, Pitch_bend_c, 2, 8576
5, 104456, Pitch_bend_c, 2, 8448
5, 104458, Pitch_bend_c, 2, 8192
5, 104460, Note_on_c, 2, 74, 0
5, 104460, Note_on_c, 2, 72, 100
5, 104480, Note_on_c, 2, 72, 0
5, 104480, Note_on_c, 2, 74, 77
5, 104500, Note_on_c, 2, 74, 0
5, 104500, Note_on_c, 2, 72, 100
5, 104580, Pitch_bend_c, 2, 8320
5, 104589, Pitch_bend_c, 2, 8448
5, 104602, Pitch_bend_c, 2, 8320
5, 104604, Pitch_bend_c, 2, 8192
5, 104615, Pitch_bend_c, 2, 8320
5, 104619, Pitch_bend_c, 2, 8448
5, 104621, Pitch_bend_c, 2, 8576
5, 104632, Pitch_bend_c, 2, 8448
5, 104635, Pitch_bend_c, 2, 8064
5, 104637, Pitch_bend_c, 2, 7936
5, 104641, Pitch_bend_c, 2, 7808
5, 104654, Pitch_bend_c, 2, 7936
5, 104656, Pitch_bend_c, 2, 8064
5, 104659, Pitch_bend_c, 2, 8320
5, 104661, Pitch_bend_c, 2, 8448
5, 104676, Pitch_bend_c, 2, 8320
5, 104680, Pitch_bend_c, 2, 8192
5, 104683, Pitch_bend_c, 2, 8064
5, 104689, Pitch_bend_c, 2, 7936
5, 104700, Note_on_c, 2, 72, 0
5, 104700, Note_on_c, 2, 66, 100
5, 104700, Pitch_bend_c, 2, 8192
5, 104740, Note_on_c, 2, 66, 0
5, 104740, Note_on_c, 2, 67, 100
5, 104780, Note_on_c, 2, 67, 0
5, 104780, Note_on_c, 2, 69, 100
5, 104820, Note_on_c, 2, 69, 0
5, 104820, Note_on_c, 2, 71, 100
5, 104860, Note_on_c, 2, 71, 0
5, 104860, Note_on_c, 2, 69, 100
5, 104900, Note_on_c, 2, 69, 0
5, 104900, Note_on_c, 2, 67, 100
5, 104940, Note_on_c, 2, 67, 0
5, 104940, Note_on_c, 2, 66, 100
5, 104940, Pitch_bend_c, 2, 8320
5, 104949, Pitch_bend_c, 2, 8448
5, 104962, Pitch_bend_c, 2, 8320
5, 104964, Pitch_bend_c, 2, 8192
5, 104975, Pitch_bend_c, 2, 8320
5, 104979, Pitch_bend_c, 2, 8448
5, 104981, Pitch_bend_c, 2, 8576
5, 104992, Pitch_bend_c, 2, 8448
5, 104995, Pitch_bend_c, 2, 8064
5, 104997, Pitch_bend_c, 2, 7936
5, 105001, Pitch_bend_c, 2, 7808
5, 105014, Pitch_bend_c, 2, 7936
5, 105016, Pitch_bend_c, 2, 8064
5, 105019, Pitch_bend_c, 2, 8320
5, 105021, Pitch_bend_c, 2, 8448
5, 105036, Pitch_bend_c, 2, 8320
5, 105040, Pitch_bend_c, 2, 8192
5, 105043, Pitch_bend_c, 2, 8064
5, 105049, Pitch_bend_c, 2, 7936
5, 105060, Pitch_bend_c, 2, 8192
5, 105062, Pitch_bend_c, 2, 8320
5, 105064, Pitch_bend_c, 2, 8448
5, 105067, Pitch_bend_c, 2, 8576
5, 105082, Pitch_bend_c, 2, 8448
5, 105084, Pitch_bend_c, 2, 8320
5, 105086, Pitch_bend_c, 2, 8064
5, 105093, Pitch_bend_c, 2, 8448
5, 105099, Pitch_bend_c, 2, 8064
5, 105101, Pitch_bend_c, 2, 8192
5, 105117, Pitch_bend_c, 2, 8320
5, 105119, Pitch_bend_c, 2, 8448
5, 105120, Note_on_c, 2, 66, 0
5, 105120, Note_on_c, 2, 67, 100
5, 105132, Pitch_bend_c, 2, 8320
5, 105136, Pitch_bend_c, 2, 8192
5, 105139, Pitch_bend_c, 2, 8064
5, 105143, Pitch_bend_c, 2, 7936
5, 105154, Pitch_bend_c, 2, 8064
5, 105158, Pitch_bend_c, 2, 8320
5, 105163, Pitch_bend_c, 2, 8448
5, 105171, Pitch_bend_c, 2, 8576
5, 105187, Pitch_bend_c, 2, 8448
5, 105189, Pitch_bend_c, 2, 8320
5, 105191, Pitch_bend_c, 2, 8192
5, 105193, Pitch_bend_c, 2, 8064
5, 105206, Pitch_bend_c, 2, 8192
5, 105211, Pitch_bend_c, 2, 8320
5, 105213, Pitch_bend_c, 2, 8448
5, 105219, Pitch_bend_c, 2, 8576
5, 105230, Pitch_bend_c, 2, 8448
5, 105232, Pitch_bend_c, 2, 8320
5, 105235, Pitch_bend_c, 2, 8192
5, 105237, Pitch_bend_c, 2, 8064
5, 105239, Pitch_bend_c, 2, 7936
5, 105245, Pitch_bend_c, 2, 7808
5, 105254, Pitch_bend_c, 2, 7936
5, 105256, Pitch_bend_c, 2, 8064
5, 105261, Pitch_bend_c, 2, 8320
5, 105280, Pitch_bend_c, 2, 8192
5, 105300, Note_on_c, 2, 67, 0
5, 105300, Note_on_c, 2, 69, 100
5, 105420, Note_on_c, 2, 69, 0
5, 105420, Note_on_c, 2, 62, 100
5, 105420, Pitch_bend_c, 2, 8320
5, 105429, Pitch_bend_c, 2, 8448
5, 105442, Pitch_bend_c, 2, 8320
5, 105444, Pitch_bend_c, 2, 8192
5, 105455, Pitch_bend_c, 2, 8320
5, 105459, Pitch_bend_c, 2, 8448
5, 105461, Pitch_bend_c, 2, 8576
5, 105472, Pitch_bend_c, 2, 8448
5, 105475, Pitch_bend_c, 2, 8064
5, 105477, Pitch_bend_c, 2, 7936
5, 105481, Pitch_bend_c, 2, 7808
5, 105494, Pitch_bend_c, 2, 7936
5, 105496, Pitch_bend_c, 2, 8064
5, 105499, Pitch_bend_c, 2, 8320
5, 105501, Pitch_bend_c, 2, 8448
5, 105516, Pitch_bend_c, 2, 8320
5, 105520, Pitch_bend_c, 2, 8192
5, 105523, Pitch_bend_c, 2, 8064
5, 105529, Pitch_bend_c, 2, 7936
5, 105540, Pitch_bend_c, 2, 8192
5, 105542, Pitch_bend_c, 2, 8320
5, 105544, Pitch_bend_c, 2, 8448
5, 105547, Pitch_bend_c, 2, 8576
5, 105562, Pitch_bend_c, 2, 8448
5, 105564, Pitch_bend_c, 2, 8320
5, 105566, Pitch_bend_c, 2, 8064
5, 105573, Pitch_bend_c, 2, 8448
5, 105579, Pitch_bend_c, 2, 8064
5, 105581, Pitch_bend_c, 2, 8192
5, 105597, Pitch_bend_c, 2, 8320
5, 105599, Pitch_bend_c, 2, 8448
5, 105600, Note_on_c, 2, 62, 0
5, 105600, Note_on_c, 2, 64, 100
5, 105612, Pitch_bend_c, 2, 8320
5, 105616, Pitch_bend_c, 2, 8192
5, 105619, Pitch_bend_c, 2, 8064
5, 105623, Pitch_bend_c, 2, 7936
5, 105634, Pitch_bend_c, 2, 8064
5, 105638, Pitch_bend_c, 2, 8320
5, 105643, Pitch_bend_c, 2, 8448
5, 105651, Pitch_bend_c, 2, 8576
5, 105667, Pitch_bend_c, 2, 8448
5, 105669, Pitch_bend_c, 2, 8320
5, 105671, Pitch_bend_c, 2, 8192
5, 105673, Pitch_bend_c, 2, 8064
5, 105686, Pitch_bend_c, 2, 8192
5, 105691, Pitch_bend_c, 2, 8320
5, 105693, Pitch_bend_c, 2, 8448
5, 105699, Pitch_bend_c, 2, 8576
5, 105710, Pitch_bend_c, 2, 8448
5, 105712, Pitch_bend_c, 2, 8320
5, 105715, Pitch_bend_c, 2, 8192
5, 105717, Pitch_bend_c, 2, 8064
5, 105719, Pitch_bend_c, 2, 7936
5, 105725, Pitch_bend_c, 2, 7808
5, 105734, Pitch_bend_c, 2, 7936
5, 105736, Pitch_bend_c, 2, 8064
5, 105741, Pitch_bend_c, 2, 8320
5, 105760, Pitch_bend_c, 2, 8192
5, 105780, Note_on_c, 2, 64, 0
5, 105780, Note_on_c, 2, 66, 100
5, 105900, Note_on_c, 2, 66, 0
5, 105900, Note_on_c, 2, 67, 100
5, 106077, Pitch_bend_c, 2, 8192
5, 106080, Pitch_bend_c, 2, 8704
5, 106082, Pitch_bend_c, 2, 9344
5, 106084, Pitch_bend_c, 2, 9984
5, 106086, Pitch_bend_c, 2, 10624
5, 106088, Pitch_bend_c, 2, 11264
5, 106090, Pitch_bend_c, 2, 11904
5, 106093, Pitch_bend_c, 2, 12416
5, 106095, Pitch_bend_c, 2, 13056
5, 106097, Pitch_bend_c, 2, 13696
5, 106099, Pitch_bend_c, 2, 14336
5, 106101, Pitch_bend_c, 2, 14976
5, 106104, Pitch_bend_c, 2, 15616
5, 106106, Pitch_bend_c, 2, 16256
5, 106189, Pitch_bend_c, 2, 16383
5, 106191, Pitch_bend_c, 2, 16128
5, 106193, Pitch_bend_c, 2, 15744
5, 106195, Pitch_bend_c, 2, 15360
5, 106197, Pitch_bend_c, 2, 14976
5, 106200, Pitch_bend_c, 2, 14592
5, 106202, Pitch_bend_c, 2, 14208
5, 106204, Pitch_bend_c, 2, 13952
5, 106206, Pitch_bend_c, 2, 13568
5, 106208, Pitch_bend_c, 2, 13184
5, 106210, Pitch_bend_c, 2, 12800
5, 106213, Pitch_bend_c, 2, 12416
5, 106215, Pitch_bend_c, 2, 12032
5, 106217, Pitch_bend_c, 2, 11776
5, 106219, Pitch_bend_c, 2, 11392
5, 106221, Pitch_bend_c, 2, 11008
5, 106224, Pitch_bend_c, 2, 10624
5, 106226, Pitch_bend_c, 2, 10240
5, 106228, Pitch_bend_c, 2, 9856
5, 106230, Note_on_c, 2, 67, 0
5, 106230, Pitch_bend_c, 2, 8192
5, 106230, Note_on_c, 2, 67, 90
5, 106260, Note_on_c, 2, 67, 0
5, 106260, Note_on_c, 2, 66, 100
5, 106380, Note_on_c, 2, 66, 0
5, 106380, Note_on_c, 2, 62, 100
5, 106500, Pitch_bend_c, 2, 8320
5, 106509, Pitch_bend_c, 2, 8448
5, 106522, Pitch_bend_c, 2, 8320
5, 106524, Pitch_bend_c, 2, 8192
5, 106535, Pitch_bend_c, 2, 8320
5, 106539, Pitch_bend_c, 2, 8448
5, 106541, Pitch_bend_c, 2, 8576
5, 106552, Pitch_bend_c, 2, 8448
5, 106555, Pitch_bend_c, 2, 8064
5, 106557, Pitch_bend_c, 2, 7936
5, 106561, Pitch_bend_c, 2, 7808
5, 106574, Pitch_bend_c, 2, 7936
5, 106576, Pitch_bend_c, 2, 8064
5, 106579, Pitch_bend_c, 2, 8320
5, 106581, Pitch_bend_c, 2, 8448
5, 106596, Pitch_bend_c, 2, 8320
5, 106600, Pitch_bend_c, 2, 8192
5, 106603, Pitch_bend_c, 2, 8064
5, 106609, Pitch_bend_c, 2, 7936
5, 106620, Pitch_bend_c, 2, 8192
5, 106622, Pitch_bend_c, 2, 8320
5, 106624, Pitch_bend_c, 2, 8448
5, 106627, Pitch_bend_c, 2, 8576
5, 106642, Pitch_bend_c, 2, 8448
5, 106644, Pitch_bend_c, 2, 8320
5, 106646, Pitch_bend_c, 2, 8064
5, 106653, Pitch_bend_c, 2, 8448
5, 106659, Pitch_bend_c, 2, 8064
5, 106661, Pitch_bend_c, 2, 8192
5, 106677, Pitch_bend_c, 2, 8320
5, 106679, Pitch_bend_c, 2, 8448
5, 106692, Pitch_bend_c, 2, 8320
5, 106696, Pitch_bend_c, 2, 8192
5, 106699, Pitch_bend_c, 2, 8064
5, 106703, Pitch_bend_c, 2, 7936
5, 106714, Pitch_bend_c, 2, 8064
5, 106718, Pitch_bend_c, 2, 8320
5, 106723, Pitch_bend_c, 2, 8448
5, 106731, Pitch_bend_c, 2, 8576
5, 106747, Pitch_bend_c, 2, 8448
5, 106749, Pitch_bend_c, 2, 8320
5, 106751, Pitch_bend_c, 2, 8192
5, 106753, Pitch_bend_c, 2, 8064
5, 106766, Pitch_bend_c, 2, 8192
5, 106771, Pitch_bend_c, 2, 8320
5, 106773, Pitch_bend_c, 2, 8448
5, 106779, Pitch_bend_c, 2, 8576
5, 106790, Pitch_bend_c, 2, 8448
5, 106792, Pitch_bend_c, 2, 8320
5, 106795, Pitch_bend_c, 2, 8192
5, 106797, Pitch_bend_c, 2, 8064
5, 106799, Pitch_bend_c, 2, 7936
5, 106805, Pitch_bend_c, 2, 7808
5, 106814, Pitch_bend_c, 2, 7936
5, 106816, Pitch_bend_c, 2, 8064
5, 106821, Pitch_bend_c, 2, 8320
5, 106840, Pitch_bend_c, 2, 8192
5, 106856, Control_c, 2, 101, 0
5, 106856, Control_c, 2, 100, 0
5, 106856, Control_c, 2, 6, 1
5, 106856, Control_c, 2, 38, 127
5, 106860, Note_on_c, 2, 62, 0
5, 106860, Note_on_c, 2, 62, 75
5, 106860, Note_on_c, 2, 67, 75
5, 106861, Pitch_bend_c, 2, 8192
5, 106863, Pitch_bend_c, 2, 8320
5, 106885, Pitch_bend_c, 2, 8064
5, 106887, Pitch_bend_c, 2, 7936
5, 106889, Pitch_bend_c, 2, 7808
5, 106900, Pitch_bend_c, 2, 7936
5, 106904, Pitch_bend_c, 2, 8192
5, 106913, Pitch_bend_c, 2, 8320
5, 106917, Pitch_bend_c, 2, 8576
5, 106930, Pitch_bend_c, 2, 8448
5, 106935, Pitch_bend_c, 2, 8320
5, 106939, Pitch_bend_c, 2, 8064
5, 106946, Pitch_bend_c, 2, 7808
5, 106970, Pitch_bend_c, 2, 7936
5, 106974, Pitch_bend_c, 2, 8064
5, 106978, Pitch_bend_c, 2, 8192
5, 106985, Pitch_bend_c, 2, 8320
5, 106998, Pitch_bend_c, 2, 8448
5, 107005, Pitch_bend_c, 2, 8320
5, 107007, Pitch_bend_c, 2, 8192
5, 107009, Pitch_bend_c, 2, 7936
5, 107013, Pitch_bend_c, 2, 7808
5, 107035, Pitch_bend_c, 2, 7936
5, 107037, Pitch_bend_c, 2, 8064
5, 107042, Pitch_bend_c, 2, 8192
5, 107046, Pitch_bend_c, 2, 8320
5, 107050, Pitch_bend_c, 2, 8448
5, 107074, Pitch_bend_c, 2, 8320
5, 107077, Pitch_bend_c, 2, 8064
5, 107107, Pitch_bend_c, 2, 8192
5, 107114, Pitch_bend_c, 2, 8320
5, 107116, Pitch_bend_c, 2, 8448
5, 107118, Pitch_bend_c, 2, 8576
5, 107136, Pitch_bend_c, 2, 8448
5, 107140, Pitch_bend_c, 2, 8320
5, 107142, Pitch_bend_c, 2, 8192
5, 107144, Pitch_bend_c, 2, 8064
5, 107146, Pitch_bend_c, 2, 7936
5, 107149, Pitch_bend_c, 2, 7808
5, 107151, Pitch_bend_c, 2, 7680
5, 107166, Pitch_bend_c, 2, 7808
5, 107170, Pitch_bend_c, 2, 7936
5, 107173, Pitch_bend_c, 2, 8064
5, 107175, Pitch_bend_c, 2, 8192
5, 107179, Pitch_bend_c, 2, 8320
5, 107188, Pitch_bend_c, 2, 8448
5, 107212, Pitch_bend_c, 2, 8320
5, 107216, Pitch_bend_c, 2, 8064
5, 107218, Pitch_bend_c, 2, 7936
5, 107221, Pitch_bend_c, 2, 7680
5, 107240, Pitch_bend_c, 2, 7808
5, 107245, Pitch_bend_c, 2, 7936
5, 107247, Pitch_bend_c, 2, 8064
5, 107251, Pitch_bend_c, 2, 8192
5, 107256, Pitch_bend_c, 2, 8320
5, 107260, Pitch_bend_c, 2, 8448
5, 107262, Pitch_bend_c, 2, 8576
5, 107264, Pitch_bend_c, 2, 8704
5, 107275, Pitch_bend_c, 2, 8832
5, 107286, Pitch_bend_c, 2, 8704
5, 107293, Pitch_bend_c, 2, 8448
5, 107297, Pitch_bend_c, 2, 8320
5, 107299, Pitch_bend_c, 2, 8064
5, 107301, Pitch_bend_c, 2, 7936
5, 107306, Pitch_bend_c, 2, 7808
5, 107310, Pitch_bend_c, 2, 7680
5, 107323, Pitch_bend_c, 2, 7808
5, 107330, Pitch_bend_c, 2, 7936
5, 107336, Pitch_bend_c, 2, 8064
5, 107341, Pitch_bend_c, 2, 8192
5, 107347, Pitch_bend_c, 2, 8320
5, 107352, Pitch_bend_c, 2, 8448
5, 107356, Pitch_bend_c, 2, 8576
5, 107376, Pitch_bend_c, 2, 8448
5, 107378, Pitch_bend_c, 2, 8320
5, 107380, Pitch_bend_c, 2, 8192
5, 107382, Pitch_bend_c, 2, 8064
5, 107384, Pitch_bend_c, 2, 7936
5, 107404, Pitch_bend_c, 2, 8064
5, 107406, Pitch_bend_c, 2, 8192
5, 107410, Pitch_bend_c, 2, 8320
5, 107415, Pitch_bend_c, 2, 8448
5, 107419, Pitch_bend_c, 2, 8576
5, 107421, Pitch_bend_c, 2, 8704
5, 107439, Pitch_bend_c, 2, 8576
5, 107443, Pitch_bend_c, 2, 8448
5, 107445, Pitch_bend_c, 2, 8320
5, 107450, Pitch_bend_c, 2, 8192
5, 107454, Pitch_bend_c, 2, 8064
5, 107456, Pitch_bend_c, 2, 7936
5, 107460, Note_on_c, 2, 67, 0
5, 107460, Note_on_c, 2, 62, 0
5, 107460, Note_on_c, 2, 62, 75
5, 107460, Note_on_c, 2, 67, 75
5, 107474, Pitch_bend_c, 2, 8064
5, 107478, Pitch_bend_c, 2, 8320
5, 107482, Pitch_bend_c, 2, 8448
5, 107511, Pitch_bend_c, 2, 8320
5, 107513, Pitch_bend_c, 2, 8192
5, 107515, Pitch_bend_c, 2, 8064
5, 107524, Pitch_bend_c, 2, 7936
5, 107537, Pitch_bend_c, 2, 8064
5, 107541, Pitch_bend_c, 2, 8192
5, 107546, Pitch_bend_c, 2, 8448
5, 107550, Pitch_bend_c, 2, 8576
5, 107578, Pitch_bend_c, 2, 8448
5, 107581, Pitch_bend_c, 2, 8320
5, 107585, Pitch_bend_c, 2, 8064
5, 107589, Pitch_bend_c, 2, 7936
5, 107592, Pitch_bend_c, 2, 7808
5, 107609, Pitch_bend_c, 2, 7936
5, 107611, Pitch_bend_c, 2, 8192
5, 107613, Pitch_bend_c, 2, 8320
5, 107626, Pitch_bend_c, 2, 8448
5, 107659, Pitch_bend_c, 2, 8064
5, 107661, Pitch_bend_c, 2, 7936
5, 107677, Pitch_bend_c, 2, 8064
5, 107679, Pitch_bend_c, 2, 8192
5, 107683, Pitch_bend_c, 2, 8320
5, 107696, Pitch_bend_c, 2, 8192
5, 107700, Note_on_c, 2, 67, 0
5, 107700, Note_on_c, 2, 62, 0
5, 107700, Note_on_c, 2, 62, 75
5, 107700, Note_on_c, 2, 67, 75
5, 107700, Pitch_bend_c, 2, 8064
5, 107702, Pitch_bend_c, 2, 7936
5, 107704, Pitch_bend_c, 2, 7808
5, 107715, Pitch_bend_c, 2, 7936
5, 107719, Pitch_bend_c, 2, 8192
5, 107728, Pitch_bend_c, 2, 8320
5, 107732, Pitch_bend_c, 2, 8576
5, 107745, Pitch_bend_c, 2, 8448
5, 107750, Pitch_bend_c, 2, 8320
5, 107754, Pitch_bend_c, 2, 8064
5, 107761, Pitch_bend_c, 2, 7808
5, 107785, Pitch_bend_c, 2, 7936
5, 107789, Pitch_bend_c, 2, 8064
5, 107793, Pitch_bend_c, 2, 8192
5, 107800, Pitch_bend_c, 2, 8320
5, 107813, Pitch_bend_c, 2, 8448
5, 107820, Pitch_bend_c, 2, 8320
5, 107822, Pitch_bend_c, 2, 8192
5, 107824, Pitch_bend_c, 2, 7936
5, 107828, Pitch_bend_c, 2, 7808
5, 107850, Pitch_bend_c, 2, 7936
5, 107852, Pitch_bend_c, 2, 8064
5, 107857, Pitch_bend_c, 2, 8192
5, 107861, Pitch_bend_c, 2, 8320
5, 107865, Pitch_bend_c, 2, 8448
5, 107889, Pitch_bend_c, 2, 8320
5, 107892, Pitch_bend_c, 2, 8064
5, 107922, Pitch_bend_c, 2, 8192
5, 107929, Pitch_bend_c, 2, 8320
5, 107931, Pitch_bend_c, 2, 8448
5, 107933, Pitch_bend_c, 2, 8576
5, 107951, Pitch_bend_c, 2, 8448
5, 107955, Pitch_bend_c, 2, 8320
5, 107957, Pitch_bend_c, 2, 8192
5, 107959, Pitch_bend_c, 2, 8064
5, 107961, Pitch_bend_c, 2, 7936
5, 107964, Pitch_bend_c, 2, 7808
5, 107966, Pitch_bend_c, 2, 7680
5, 107981, Pitch_bend_c, 2, 7808
5, 107985, Pitch_bend_c, 2, 7936
5, 107988, Pitch_bend_c, 2, 8064
5, 107990, Pitch_bend_c, 2, 8192
5, 107994, Pitch_bend_c, 2, 8320
5, 108003, Pitch_bend_c, 2, 8448
5, 108027, Pitch_bend_c, 2, 8320
5, 108031, Pitch_bend_c, 2, 8064
5, 108033, Pitch_bend_c, 2, 7936
5, 108036, Pitch_bend_c, 2, 7680
5, 108055, Pitch_bend_c, 2, 7808
5, 108060, Pitch_bend_c, 2, 7936
5, 108062, Pitch_bend_c, 2, 8064
5, 108066, Pitch_bend_c, 2, 8192
5, 108071, Pitch_bend_c, 2, 8320
5, 108075, Pitch_bend_c, 2, 8448
5, 108077, Pitch_bend_c, 2, 8576
5, 108079, Pitch_bend_c, 2, 8704
5, 108090, Pitch_bend_c, 2, 8832
5, 108101, Pitch_bend_c, 2, 8704
5, 108108, Pitch_bend_c, 2, 8448
5, 108112, Pitch_bend_c, 2, 8320
5, 108114, Pitch_bend_c, 2, 8064
5, 108116, Pitch_bend_c, 2, 7936
5, 108121, Pitch_bend_c, 2, 7808
5, 108125, Pitch_bend_c, 2, 7680
5, 108138, Pitch_bend_c, 2, 7808
5, 108145, Pitch_bend_c, 2, 7936
5, 108151, Pitch_bend_c, 2, 8064
5, 108156, Pitch_bend_c, 2, 8192
5, 108162, Pitch_bend_c, 2, 8320
5, 108167, Pitch_bend_c, 2, 8448
5, 108171, Pitch_bend_c, 2, 8576
5, 108191, Pitch_bend_c, 2, 8448
5, 108193, Pitch_bend_c, 2, 8320
5, 108195, Pitch_bend_c, 2, 8192
5, 108197, Pitch_bend_c, 2, 8064
5, 108199, Pitch_bend_c, 2, 7936
5, 108219, Pitch_bend_c, 2, 8064
5, 108221, Pitch_bend_c, 2, 8192
5, 108225, Pitch_bend_c, 2, 8320
5, 108230, Pitch_bend_c, 2, 8448
5, 108234, Pitch_bend_c, 2, 8576
5, 108236, Pitch_bend_c, 2, 8704
5, 108254, Pitch_bend_c, 2, 8576
5, 108258, Pitch_bend_c, 2, 8448
5, 108260, Pitch_bend_c, 2, 8320
5, 108265, Pitch_bend_c, 2, 8192
5, 108269, Pitch_bend_c, 2, 8064
5, 108271, Pitch_bend_c, 2, 7936
5, 108289, Pitch_bend_c, 2, 8064
5, 108293, Pitch_bend_c, 2, 8320
5, 108297, Pitch_bend_c, 2, 8448
5, 108300, Note_on_c, 2, 67, 0
5, 108300, Note_on_c, 2, 62, 0
5, 108300, Note_on_c, 2, 62, 75
5, 108300, Note_on_c, 2, 67, 75
5, 108326, Pitch_bend_c, 2, 8320
5, 108328, Pitch_bend_c, 2, 8192
5, 108330, Pitch_bend_c, 2, 8064
5, 108339, Pitch_bend_c, 2, 7936
5, 108352, Pitch_bend_c, 2, 8064
5, 108356, Pitch_bend_c, 2, 8192
5, 108361, Pitch_bend_c, 2, 8448
5, 108365, Pitch_bend_c, 2, 8576
5, 108393, Pitch_bend_c, 2, 8448
5, 108396, Pitch_bend_c, 2, 8320
5, 108400, Pitch_bend_c, 2, 8064
5, 108404, Pitch_bend_c, 2, 7936
5, 108407, Pitch_bend_c, 2, 7808
5, 108540, Note_on_c, 2, 67, 0
5, 108540, Note_on_c, 2, 62, 0
5, 108540, Note_on_c, 2, 62, 75
5, 108540, Note_on_c, 2, 67, 75
5, 108540, Pitch_bend_c, 2, 8064
5, 108542, Pitch_bend_c, 2, 7936
5, 108544, Pitch_bend_c, 2, 7808
5, 108555, Pitch_bend_c, 2, 7936
5, 108559, Pitch_bend_c, 2, 8192
5, 108568, Pitch_bend_c, 2, 8320
5, 108572, Pitch_bend_c, 2, 8576
5, 108585, Pitch_bend_c, 2, 8448
5, 108590, Pitch_bend_c, 2, 8320
5, 108594, Pitch_bend_c, 2, 8064
5, 108601, Pitch_bend_c, 2, 7808
5, 108625, Pitch_bend_c, 2, 7936
5, 108629, Pitch_bend_c, 2, 8064
5, 108633, Pitch_bend_c, 2, 8192
5, 108640, Pitch_bend_c, 2, 8320
5, 108653, Pitch_bend_c, 2, 8448
5, 108660, Pitch_bend_c, 2, 8320
5, 108662, Pitch_bend_c, 2, 8192
5, 108664, Pitch_bend_c, 2, 7936
5, 108668, Pitch_bend_c, 2, 7808
5, 108690, Pitch_bend_c, 2, 7936
5, 108692, Pitch_bend_c, 2, 8064
5, 108697, Pitch_bend_c, 2, 8192
5, 108701, Pitch_bend_c, 2, 8320
5, 108705, Pitch_bend_c, 2, 8448
5, 108729, Pitch_bend_c, 2, 8320
5, 108732, Pitch_bend_c, 2, 8064
5, 108762, Pitch_bend_c, 2, 8192
5, 108769, Pitch_bend_c, 2, 8320
5, 108771, Pitch_bend_c, 2, 8448
5, 108773, Pitch_bend_c, 2, 8576
5, 108791, Pitch_bend_c, 2, 8448
5, 108795, Pitch_bend_c, 2, 8320
5, 108797, Pitch_bend_c, 2, 8192
5, 108799, Pitch_bend_c, 2, 8064
5, 108801, Pitch_bend_c, 2, 7936
5, 108804, Pitch_bend_c, 2, 7808
5, 108806, Pitch_bend_c, 2, 7680
5, 108821, Pitch_bend_c, 2, 7808
5, 108825, Pitch_bend_c, 2, 7936
5, 108828, Pitch_bend_c, 2, 8064
5, 108830, Pitch_bend_c, 2, 8192
5, 108834, Pitch_bend_c, 2, 8320
5, 108843, Pitch_bend_c, 2, 8448
5, 108867, Pitch_bend_c, 2, 8320
5, 108871, Pitch_bend_c, 2, 8064
5, 108873, Pitch_bend_c, 2, 7936
5, 108876, Pitch_bend_c, 2, 7680
5, 108895, Pitch_bend_c, 2, 7808
5, 108900, Pitch_bend_c, 2, 7936
5, 108902, Pitch_bend_c, 2, 8064
5, 108906, Pitch_bend_c, 2, 8192
5, 108911, Pitch_bend_c, 2, 8320
5, 108915, Pitch_bend_c, 2, 8448
5, 108917, Pitch_bend_c, 2, 8576
5, 108919, Pitch_bend_c, 2, 8704
5, 108930, Pitch_bend_c, 2, 8832
5, 108941, Pitch_bend_c, 2, 8704
5, 108948, Pitch_bend_c, 2, 8448
5, 108952, Pitch_bend_c, 2, 8320
5, 108954, Pitch_bend_c, 2, 8064
5, 108956, Pitch_bend_c, 2, 7936
5, 108961, Pitch_bend_c, 2, 7808
5, 108965, Pitch_bend_c, 2, 7680
5, 108978, Pitch_bend_c, 2, 7808
5, 108985, Pitch_bend_c, 2, 7936
5, 108991, Pitch_bend_c, 2, 8064
5, 108996, Pitch_bend_c, 2, 8192
5, 109002, Pitch_bend_c, 2, 8320
5, 109007, Pitch_bend_c, 2, 8448
5, 109011, Pitch_bend_c, 2, 8576
5, 109031, Pitch_bend_c, 2, 8448
5, 109033, Pitch_bend_c, 2, 8320
5, 109035, Pitch_bend_c, 2, 8192
5, 109037, Pitch_bend_c, 2, 8064
5, 109039, Pitch_bend_c, 2, 7936
5, 109059, Pitch_bend_c, 2, 8064
5, 109061, Pitch_bend_c, 2, 8192
5, 109065, Pitch_bend_c, 2, 8320
5, 109070, Pitch_bend_c, 2, 8448
5, 109074, Pitch_bend_c, 2, 8576
5, 109076, Pitch_bend_c, 2, 8704
5, 109094, Pitch_bend_c, 2, 8576
5, 109098, Pitch_bend_c, 2, 8448
5, 109100, Pitch_bend_c, 2, 8320
5, 109105, Pitch_bend_c, 2, 8192
5, 109109, Pitch_bend_c, 2, 8064
5, 109111, Pitch_bend_c, 2, 7936
5, 109129, Pitch_bend_c, 2, 8064
5, 109133, Pitch_bend_c, 2, 8320
5, 109137, Pitch_bend_c, 2, 8448
5, 109140, Note_on_c, 2, 67, 0
5, 109140, Note_on_c, 2, 62, 0
5, 109140, Note_on_c, 2, 62, 75
5, 109140, Note_on_c, 2, 67, 75
5, 109166, Pitch_bend_c, 2, 8320
5, 109168, Pitch_bend_c, 2, 8192
5, 109170, Pitch_bend_c, 2, 8064
5, 109179, Pitch_bend_c, 2, 7936
5, 109192, Pitch_bend_c, 2, 8064
5, 109196, Pitch_bend_c, 2, 8192
5, 109201, Pitch_bend_c, 2, 8448
5, 109205, Pitch_bend_c, 2, 8576
5, 109233, Pitch_bend_c, 2, 8448
5, 109236, Pitch_bend_c, 2, 8320
5, 109240, Pitch_bend_c, 2, 8064
5, 109244, Pitch_bend_c, 2, 7936
5, 109247, Pitch_bend_c, 2, 7808
5, 109380, Note_on_c, 2, 67, 0
5, 109380, Note_on_c, 2, 62, 0
5, 109380, Note_on_c, 2, 62, 75
5, 109380, Note_on_c, 2, 67, 75
5, 109380, Pitch_bend_c, 2, 8064
5, 109382, Pitch_bend_c, 2, 7936
5, 109384, Pitch_bend_c, 2, 7808
5, 109395, Pitch_bend_c, 2, 7936
5, 109399, Pitch_bend_c, 2, 8192
5, 109408, Pitch_bend_c, 2, 8320
5, 109412, Pitch_bend_c, 2, 8576
5, 109425, Pitch_bend_c, 2, 8448
5, 109430, Pitch_bend_c, 2, 8320
5, 109434, Pitch_bend_c, 2, 8064
5, 109441, Pitch_bend_c, 2, 7808
5, 109465, Pitch_bend_c, 2, 7936
5, 109469, Pitch_bend_c, 2, 8064
5, 109473, Pitch_bend_c, 2, 8192
5, 109480, Pitch_bend_c, 2, 8320
5, 109493, Pitch_bend_c, 2, 8448
5, 109500, Pitch_bend_c, 2, 8320
5, 109502, Pitch_bend_c, 2, 8192
5, 109504, Pitch_bend_c, 2, 7936
5, 109508, Pitch_bend_c, 2, 7808
5, 109530, Pitch_bend_c, 2, 7936
5, 109532, Pitch_bend_c, 2, 8064
5, 109537, Pitch_bend_c, 2, 8192
5, 109541, Pitch_bend_c, 2, 8320
5, 109545, Pitch_bend_c, 2, 8448
5, 109569, Pitch_bend_c, 2, 8320
5, 109572, Pitch_bend_c, 2, 8064
5, 109602, Pitch_bend_c, 2, 8192
5, 109609, Pitch_bend_c, 2, 8320
5, 109611, Pitch_bend_c, 2, 8448
5, 109613, Pitch_bend_c, 2, 8576
5, 109631, Pitch_bend_c, 2, 8448
5, 109635, Pitch_bend_c, 2, 8320
5, 109637, Pitch_bend_c, 2, 8192
5, 109639, Pitch_bend_c, 2, 8064
5, 109641, Pitch_bend_c, 2, 7936
5, 109644, Pitch_bend_c, 2, 7808
5, 109646, Pitch_bend_c, 2, 7680
5, 109661, Pitch_bend_c, 2, 7808
5, 109665, Pitch_bend_c, 2, 7936
5, 109668, Pitch_bend_c, 2, 8064
5, 109670, Pitch_bend_c, 2, 8192
5, 109674, Pitch_bend_c, 2, 8320
5, 109683, Pitch_bend_c, 2, 8448
5, 109707, Pitch_bend_c, 2, 8320
5, 109711, Pitch_bend_c, 2, 8064
5, 109713, Pitch_bend_c, 2, 7936
5, 109716, Pitch_bend_c, 2, 7680
5, 109735, Pitch_bend_c, 2, 7808
5, 109740, Pitch_bend_c, 2, 7936
5, 109742, Pitch_bend_c, 2, 8064
5, 109746, Pitch_bend_c, 2, 8192
5, 109751, Pitch_bend_c, 2, 8320
5, 109755, Pitch_bend_c, 2, 8448
5, 109757, Pitch_bend_c, 2, 8576
5, 109759, Pitch_bend_c, 2, 8704
5, 109770, Pitch_bend_c, 2, 8832
5, 109781, Pitch_bend_c, 2, 8704
5, 109788, Pitch_bend_c, 2, 8448
5, 109792, Pitch_bend_c, 2, 8320
5, 109794, Pitch_bend_c, 2, 8064
5, 109796, Pitch_bend_c, 2, 7936
5, 109801, Pitch_bend_c, 2, 7808
5, 109805, Pitch_bend_c, 2, 7680
5, 109818, Pitch_bend_c, 2, 7808
5, 109825, Pitch_bend_c, 2, 7936
5, 109831, Pitch_bend_c, 2, 8064
5, 109836, Pitch_bend_c, 2, 8192
5, 109842, Pitch_bend_c, 2, 8320
5, 109847, Pitch_bend_c, 2, 8448
5, 109851, Pitch_bend_c, 2, 8576
5, 109860, Note_on_c, 2, 67, 0
5, 109860, Note_on_c, 2, 62, 0
5, 109860, Note_on_c, 2, 65, 75
5, 109871, Pitch_bend_c, 2, 8448
5, 109873, Pitch_bend_c, 2, 8320
5, 109875, Pitch_bend_c, 2, 8192
5, 109877, Pitch_bend_c, 2, 8064
5, 109879, Pitch_bend_c, 2, 7936
5, 109899, Pitch_bend_c, 2, 8064
5, 109901, Pitch_bend_c, 2, 8192
5, 109905, Pitch_bend_c, 2, 8320
5, 109910, Pitch_bend_c, 2, 8448
5, 109914, Pitch_bend_c, 2, 8576
5, 109916, Pitch_bend_c, 2, 8704
5, 109934, Pitch_bend_c, 2, 8576
5, 109938, Pitch_bend_c, 2, 8448
5, 109940, Pitch_bend_c, 2, 8320
5, 109945, Pitch_bend_c, 2, 8192
5, 109949, Pitch_bend_c, 2, 8064
5, 109951, Pitch_bend_c, 2, 7936
5, 109969, Pitch_bend_c, 2, 8064
5, 109973, Pitch_bend_c, 2, 8320
5, 109977, Pitch_bend_c, 2, 8448
5, 110006, Pitch_bend_c, 2, 8320
5, 110008, Pitch_bend_c, 2, 8192
5, 110010, Pitch_bend_c, 2, 8064
5, 110019, Pitch_bend_c, 2, 7936
5, 110032, Pitch_bend_c, 2, 8064
5, 110036, Pitch_bend_c, 2, 8192
5, 110041, Pitch_bend_c, 2, 8448
5, 110045, Pitch_bend_c, 2, 8576
5, 110073, Pitch_bend_c, 2, 8448
5, 110076, Pitch_bend_c, 2, 8320
5, 110080, Pitch_bend_c, 2, 8064
5, 110084, Pitch_bend_c, 2, 7936
5, 110087, Pitch_bend_c, 2, 7808
5, 110100, Note_on_c, 2, 65, 0
5, 110100, Control_c, 2, 101, 0
5, 110100, Control_c, 2, 100, 0
5, 110100, Control_c, 2, 6, 2
5, 110100, Control_c, 2, 38, 127
5, 110100, Pitch_bend_c, 2, 8192
5, 110100, Note_on_c, 2, 63, 65
5, 110100, Note_on_c, 2, 67, 75
5, 110101, Pitch_bend_c, 2, 8192
5, 110103, Pitch_bend_c, 2, 8448
5, 110105, Pitch_bend_c, 2, 8704
5, 110107, Pitch_bend_c, 2, 9088
5, 110110, Pitch_bend_c, 2, 9344
5, 110112, Pitch_bend_c, 2, 9600
5, 110114, Pitch_bend_c, 2, 9984
5, 110116, Pitch_bend_c, 2, 10240
5, 110118, Pitch_bend_c, 2, 10496
5, 110120, Pitch_bend_c, 2, 10880
5, 110123, Pitch_bend_c, 2, 11136
5, 110125, Pitch_bend_c, 2, 11520
5, 110127, Pitch_bend_c, 2, 11776
5, 110129, Pitch_bend_c, 2, 12032
5, 110131, Pitch_bend_c, 2, 12416
5, 110134, Pitch_bend_c, 2, 12672
5, 110136, Pitch_bend_c, 2, 12928
5, 110138, Pitch_bend_c, 2, 13312
5, 110140, Pitch_bend_c, 2, 13568
5, 110142, Pitch_bend_c, 2, 13952
5, 110144, Pitch_bend_c, 2, 14208
5, 110147, Pitch_bend_c, 2, 14464
5, 110149, Pitch_bend_c, 2, 14848
5, 110151, Pitch_bend_c, 2, 15104
5, 110153, Pitch_bend_c, 2, 15360
5, 110155, Pitch_bend_c, 2, 15744
5, 110158, Pitch_bend_c, 2, 16000
5, 110160, Pitch_bend_c, 2, 16383
5, 110340, Note_on_c, 2, 67, 0
5, 110340, Note_on_c, 2, 63, 0
5, 110340, Note_on_c, 2, 62, 75
5, 110340, Note_on_c, 2, 67, 75
5, 110341, Pitch_bend_c, 2, 8192
5, 110341, Pitch_bend_c, 2, 8192
5, 110343, Pitch_bend_c, 2, 8320
5, 110365, Pitch_bend_c, 2, 8064
5, 110367, Pitch_bend_c, 2, 7936
5, 110369, Pitch_bend_c, 2, 7808
5, 110380, Pitch_bend_c, 2, 7936
5, 110384, Pitch_bend_c, 2, 8192
5, 110393, Pitch_bend_c, 2, 8320
5, 110397, Pitch_bend_c, 2, 8576
5, 110410, Pitch_bend_c, 2, 8448
5, 110415, Pitch_bend_c, 2, 8320
5, 110419, Pitch_bend_c, 2, 8064
5, 110426, Pitch_bend_c, 2, 7808
5, 110450, Pitch_bend_c, 2, 7936
5, 110454, Pitch_bend_c, 2, 8064
5, 110458, Pitch_bend_c, 2, 8192
5, 110465, Pitch_bend_c, 2, 8320
5, 110478, Pitch_bend_c, 2, 8448
5, 110485, Pitch_bend_c, 2, 8320
5, 110487, Pitch_bend_c, 2, 8192
5, 110489, Pitch_bend_c, 2, 7936
5, 110493, Pitch_bend_c, 2, 7808
5, 110515, Pitch_bend_c, 2, 7936
5, 110517, Pitch_bend_c, 2, 8064
5, 110522, Pitch_bend_c, 2, 8192
5, 110526, Pitch_bend_c, 2, 8320
5, 110530, Pitch_bend_c, 2, 8448
5, 110554, Pitch_bend_c, 2, 8320
5, 110557, Pitch_bend_c, 2, 8064
5, 110587, Pitch_bend_c, 2, 8192
5, 110594, Pitch_bend_c, 2, 8320
5, 110596, Pitch_bend_c, 2, 8448
5, 110598, Pitch_bend_c, 2, 8576
5, 110616, Pitch_bend_c, 2, 8448
5, 110620, Pitch_bend_c, 2, 8320
5, 110622, Pitch_bend_c, 2, 8192
5, 110624, Pitch_bend_c, 2, 8064
5, 110626, Pitch_bend_c, 2, 7936
5, 110629, Pitch_bend_c, 2, 7808
5, 110631, Pitch_bend_c, 2, 7680
5, 110646, Pitch_bend_c, 2, 7808
5, 110650, Pitch_bend_c, 2, 7936
5, 110653, Pitch_bend_c, 2, 8064
5, 110655, Pitch_bend_c, 2, 8192
5, 110659, Pitch_bend_c, 2, 8320
5, 110668, Pitch_bend_c, 2, 8448
5, 110692, Pitch_bend_c, 2, 8320
5, 110696, Pitch_bend_c, 2, 8064
5, 110698, Pitch_bend_c, 2, 7936
5, 110701, Pitch_bend_c, 2, 7680
5, 110720, Pitch_bend_c, 2, 7808
5, 110725, Pitch_bend_c, 2, 7936
5, 110727, Pitch_bend_c, 2, 8064
5, 110731, Pitch_bend_c, 2, 8192
5, 110736, Pitch_bend_c, 2, 8320
5, 110740, Pitch_bend_c, 2, 8448
5, 110742, Pitch_bend_c, 2, 8576
5, 110744, Pitch_bend_c, 2, 8704
5, 110755, Pitch_bend_c, 2, 8832
5, 110766, Pitch_bend_c, 2, 8704
5, 110773, Pitch_bend_c, 2, 8448
5, 110777, Pitch_bend_c, 2, 8320
5, 110779, Pitch_bend_c, 2, 8064
5, 110781, Pitch_bend_c, 2, 7936
5, 110786, Pitch_bend_c, 2, 7808
5, 110790, Pitch_bend_c, 2, 7680
5, 110803, Pitch_bend_c, 2, 7808
5, 110810, Pitch_bend_c, 2, 7936
5, 110816, Pitch_bend_c, 2, 8064
5, 110821, Pitch_bend_c, 2, 8192
5, 110827, Pitch_bend_c, 2, 8320
5, 110832, Pitch_bend_c, 2, 8448
5, 110836, Pitch_bend_c, 2, 8576
5, 110856, Pitch_bend_c, 2, 8448
5, 110858, Pitch_bend_c, 2, 8320
5, 110860, Pitch_bend_c, 2, 8192
5, 110862, Pitch_bend_c, 2, 8064
5, 110864, Pitch_bend_c, 2, 7936
5, 110884, Pitch_bend_c, 2, 8064
5, 110886, Pitch_bend_c, 2, 8192
5, 110890, Pitch_bend_c, 2, 8320
5, 110895, Pitch_bend_c, 2, 8448
5, 110899, Pitch_bend_c, 2, 8576
5, 110901, Pitch_bend_c, 2, 8704
5, 110919, Pitch_bend_c, 2, 8576
5, 110923, Pitch_bend_c, 2, 8448
5, 110925, Pitch_bend_c, 2, 8320
5, 110930, Pitch_bend_c, 2, 8192
5, 110934, Pitch_bend_c, 2, 8064
5, 110936, Pitch_bend_c, 2, 7936
5, 110940, Note_on_c, 2, 67, 0
5, 110940, Note_on_c, 2, 62, 0
5, 110940, Note_on_c, 2, 62, 75
5, 110940, Note_on_c, 2, 67, 75
5, 110954, Pitch_bend_c, 2, 8064
5, 110958, Pitch_bend_c, 2, 8320
5, 110962, Pitch_bend_c, 2, 8448
5, 110991, Pitch_bend_c, 2, 8320
5, 110993, Pitch_bend_c, 2, 8192
5, 110995, Pitch_bend_c, 2, 8064
5, 111004, Pitch_bend_c, 2, 7936
5, 111017, Pitch_bend_c, 2, 8064
5, 111021, Pitch_bend_c, 2, 8192
5, 111026, Pitch_bend_c, 2, 8448
5, 111030, Pitch_bend_c, 2, 8576
5, 111058, Pitch_bend_c, 2, 8448
5, 111061, Pitch_bend_c, 2, 8320
5, 111065, Pitch_bend_c, 2, 8064
5, 111069, Pitch_bend_c, 2, 7936
5, 111072, Pitch_bend_c, 2, 7808
5, 111089, Pitch_bend_c, 2, 7936
5, 111091, Pitch_bend_c, 2, 8192
5, 111093, Pitch_bend_c, 2, 8320
5, 111106, Pitch_bend_c, 2, 8448
5, 111139, Pitch_bend_c, 2, 8064
5, 111141, Pitch_bend_c, 2, 7936
5, 111157, Pitch_bend_c, 2, 8064
5, 111159, Pitch_bend_c, 2, 8192
5, 111163, Pitch_bend_c, 2, 8320
5, 111176, Pitch_bend_c, 2, 8192
5, 111180, Note_on_c, 2, 67, 0
5, 111180, Note_on_c, 2, 62, 0
5, 111180, Note_on_c, 2, 62, 75
5, 111180, Note_on_c, 2, 67, 75
5, 111180, Pitch_bend_c, 2, 8064
5, 111182, Pitch_bend_c, 2, 7936
5, 111184, Pitch_bend_c, 2, 7808
5, 111195, Pitch_bend_c, 2, 7936
5, 111199, Pitch_bend_c, 2, 8192
5, 111208, Pitch_bend_c, 2, 8320
5, 111212, Pitch_bend_c, 2, 8576
5, 111225, Pitch_bend_c, 2, 8448
5, 111230, Pitch_bend_c, 2, 8320
5, 111234, Pitch_bend_c, 2, 8064
5, 111241, Pitch_bend_c, 2, 7808
5, 111265, Pitch_bend_c, 2, 7936
5, 111269, Pitch_bend_c, 2, 8064
5, 111273, Pitch_bend_c, 2, 8192
5, 111280, Pitch_bend_c, 2, 8320
5, 111293, Pitch_bend_c, 2, 8448
5, 111300, Pitch_bend_c, 2, 8320
5, 111302, Pitch_bend_c, 2, 8192
5, 111304, Pitch_bend_c, 2, 7936
5, 111308, Pitch_bend_c, 2, 7808
5, 111330, Pitch_bend_c, 2, 7936
5, 111332, Pitch_bend_c, 2, 8064
5, 111337, Pitch_bend_c, 2, 8192
5, 111341, Pitch_bend_c, 2, 8320
5, 111345, Pitch_bend_c, 2, 8448
5, 111369, Pitch_bend_c, 2, 8320
5, 111372, Pitch_bend_c, 2, 8064
5, 111402, Pitch_bend_c, 2, 8192
5, 111409, Pitch_bend_c, 2, 8320
5, 111411, Pitch_bend_c, 2, 8448
5, 111413, Pitch_bend_c, 2, 8576
5, 111431, Pitch_bend_c, 2, 8448
5, 111435, Pitch_bend_c, 2, 8320
5, 111437, Pitch_bend_c, 2, 8192
5, 111439, Pitch_bend_c, 2, 8064
5, 111441, Pitch_bend_c, 2, 7936
5, 111444, Pitch_bend_c, 2, 7808
5, 111446, Pitch_bend_c, 2, 7680
5, 111461, Pitch_bend_c, 2, 7808
5, 111465, Pitch_bend_c, 2, 7936
5, 111468, Pitch_bend_c, 2, 8064
5, 111470, Pitch_bend_c, 2, 8192
5, 111474, Pitch_bend_c, 2, 8320
5, 111483, Pitch_bend_c, 2, 8448
5, 111507, Pitch_bend_c, 2, 8320
5, 111511, Pitch_bend_c, 2, 8064
5, 111513, Pitch_bend_c, 2, 7936
5, 111516, Pitch_bend_c, 2, 7680
5, 111535, Pitch_bend_c, 2, 7808
5, 111540, Pitch_bend_c, 2, 7936
5, 111542, Pitch_bend_c, 2, 8064
5, 111546, Pitch_bend_c, 2, 8192
5, 111551, Pitch_bend_c, 2, 8320
5, 111555, Pitch_bend_c, 2, 8448
5, 111557, Pitch_bend_c, 2, 8576
5, 111559, Pitch_bend_c, 2, 8704
5, 111570, Pitch_bend_c, 2, 8832
5, 111581, Pitch_bend_c, 2, 8704
5, 111588, Pitch_bend_c, 2, 8448
5, 111592, Pitch_bend_c, 2, 8320
5, 111594, Pitch_bend_c, 2, 8064
5, 111596, Pitch_bend_c, 2, 7936
5, 111601, Pitch_bend_c, 2, 7808
5, 111605, Pitch_bend_c, 2, 7680
5, 111618, Pitch_bend_c, 2, 7808
5, 111625, Pitch_bend_c, 2, 7936
5, 111631, Pitch_bend_c, 2, 8064
5, 111636, Pitch_bend_c, 2, 8192
5, 111642, Pitch_bend_c, 2, 8320
5, 111647, Pitch_bend_c, 2, 8448
5, 111651, Pitch_bend_c, 2, 8576
5, 111671, Pitch_bend_c, 2, 8448
5, 111673, Pitch_bend_c, 2, 8320
5, 111675, Pitch_bend_c, 2, 8192
5, 111677, Pitch_bend_c, 2, 8064
5, 111679, Pitch_bend_c, 2, 7936
5, 111699, Pitch_bend_c, 2, 8064
5, 111701, Pitch_bend_c, 2, 8192
5, 111705, Pitch_bend_c, 2, 8320
5, 111710, Pitch_bend_c, 2, 8448
5, 111714, Pitch_bend_c, 2, 8576
5, 111716, Pitch_bend_c, 2, 8704
5, 111734, Pitch_bend_c, 2, 8576
5, 111738, Pitch_bend_c, 2, 8448
5, 111740, Pitch_bend_c, 2, 8320
5, 111745, Pitch_bend_c, 2, 8192
5, 111749, Pitch_bend_c, 2, 8064
5, 111751, Pitch_bend_c, 2, 7936
5, 111769, Pitch_bend_c, 2, 8064
5, 111773, Pitch_bend_c, 2, 8320
5, 111777, Pitch_bend_c, 2, 8448
5, 111780, Note_on_c, 2, 67, 0
5, 111780, Note_on_c, 2, 62, 0
5, 111780, Note_on_c, 2, 62, 75
5, 111780, Note_on_c, 2, 67, 75
5, 111806, Pitch_bend_c, 2, 8320
5, 111808, Pitch_bend_c, 2, 8192
5, 111810, Pitch_bend_c, 2, 8064
5, 111819, Pitch_bend_c, 2, 7936
5, 111832, Pitch_bend_c, 2, 8064
5, 111836, Pitch_bend_c, 2, 8192
5, 111841, Pitch_bend_c, 2, 8448
5, 111845, Pitch_bend_c, 2, 8576
5, 111873, Pitch_bend_c, 2, 8448
5, 111876, Pitch_bend_c, 2, 8320
5, 111880, Pitch_bend_c, 2, 8064
5, 111884, Pitch_bend_c, 2, 7936
5, 111887, Pitch_bend_c, 2, 7808
5, 112020, Note_on_c, 2, 67, 0
5, 112020, Note_on_c, 2, 62, 0
5, 112020, Pitch_bend_c, 2, 8064
5, 112020, Note_on_c, 2, 62, 75
5, 112020, Note_on_c, 2, 67, 75
5, 112022, Pitch_bend_c, 2, 7936
5, 112024, Pitch_bend_c, 2, 7808
5, 112035, Pitch_bend_c, 2, 7936
5, 112039, Pitch_bend_c, 2, 8192
5, 112048, Pitch_bend_c, 2, 8320
5, 112052, Pitch_bend_c, 2, 8576
5, 112065, Pitch_bend_c, 2, 8448
5, 112070, Pitch_bend_c, 2, 8320
5, 112074, Pitch_bend_c, 2, 8064
5, 112081, Pitch_bend_c, 2, 7808
5, 112105, Pitch_bend_c, 2, 7936
5, 112109, Pitch_bend_c, 2, 8064
5, 112113, Pitch_bend_c, 2, 8192
5, 112120, Pitch_bend_c, 2, 8320
5, 112133, Pitch_bend_c, 2, 8448
5, 112140, Pitch_bend_c, 2, 8320
5, 112142, Pitch_bend_c, 2, 8192
5, 112144, Pitch_bend_c, 2, 7936
5, 112148, Pitch_bend_c, 2, 7808
5, 112170, Pitch_bend_c, 2, 7936
5, 112172, Pitch_bend_c, 2, 8064
5, 112177, Pitch_bend_c, 2, 8192
5, 112181, Pitch_bend_c, 2, 8320
5, 112185, Pitch_bend_c, 2, 8448
5, 112209, Pitch_bend_c, 2, 8320
5, 112212, Pitch_bend_c, 2, 8064
5, 112242, Pitch_bend_c, 2, 8192
5, 112249, Pitch_bend_c, 2, 8320
5, 112251, Pitch_bend_c, 2, 8448
5, 112253, Pitch_bend_c, 2, 8576
5, 112271, Pitch_bend_c, 2, 8448
5, 112275, Pitch_bend_c, 2, 8320
5, 112277, Pitch_bend_c, 2, 8192
5, 112279, Pitch_bend_c, 2, 8064
5, 112281, Pitch_bend_c, 2, 7936
5, 112284, Pitch_bend_c, 2, 7808
5, 112286, Pitch_bend_c, 2, 7680
5, 112301, Pitch_bend_c, 2, 7808
5, 112305, Pitch_bend_c, 2, 7936
5, 112308, Pitch_bend_c, 2, 8064
5, 112310, Pitch_bend_c, 2, 8192
5, 112314, Pitch_bend_c, 2, 8320
5, 112323, Pitch_bend_c, 2, 8448
5, 112347, Pitch_bend_c, 2, 8320
5, 112351, Pitch_bend_c, 2, 8064
5, 112353, Pitch_bend_c, 2, 7936
5, 112356, Pitch_bend_c, 2, 7680
5, 112375, Pitch_bend_c, 2, 7808
5, 112380, Pitch_bend_c, 2, 7936
5, 112382, Pitch_bend_c, 2, 8064
5, 112386, Pitch_bend_c, 2, 8192
5, 112391, Pitch_bend_c, 2, 8320
5, 112395, Pitch_bend_c, 2, 8448
5, 112397, Pitch_bend_c, 2, 8576
5, 112399, Pitch_bend_c, 2, 8704
5, 112410, Pitch_bend_c, 2, 8832
5, 112421, Pitch_bend_c, 2, 8704
5, 112428, Pitch_bend_c, 2, 8448
5, 112432, Pitch_bend_c, 2, 8320
5, 112434, Pitch_bend_c, 2, 8064
5, 112436, Pitch_bend_c, 2, 7936
5, 112441, Pitch_bend_c, 2, 7808
5, 112445, Pitch_bend_c, 2, 7680
5, 112458, Pitch_bend_c, 2, 7808
5, 112465, Pitch_bend_c, 2, 7936
5, 112471, Pitch_bend_c, 2, 8064
5, 112476, Pitch_bend_c, 2, 8192
5, 112482, Pitch_bend_c, 2, 8320
5, 112487, Pitch_bend_c, 2, 8448
5, 112491, Pitch_bend_c, 2, 8576
5, 112511, Pitch_bend_c, 2, 8448
5, 112513, Pitch_bend_c, 2, 8320
5, 112515, Pitch_bend_c, 2, 8192
5, 112517, Pitch_bend_c, 2, 8064
5, 112519, Pitch_bend_c, 2, 7936
5, 112539, Pitch_bend_c, 2, 8064
5, 112541, Pitch_bend_c, 2, 8192
5, 112545, Pitch_bend_c, 2, 8320
5, 112550, Pitch_bend_c, 2, 8448
5, 112554, Pitch_bend_c, 2, 8576
5, 112556, Pitch_bend_c, 2, 8704
5, 112574, Pitch_bend_c, 2, 8576
5, 112578, Pitch_bend_c, 2, 8448
5, 112580, Pitch_bend_c, 2, 8320
5, 112585, Pitch_bend_c, 2, 8192
5, 112589, Pitch_bend_c, 2, 8064
5, 112591, Pitch_bend_c, 2, 7936
5, 112609, Pitch_bend_c, 2, 8064
5, 112613, Pitch_bend_c, 2, 8320
5, 112617, Pitch_bend_c, 2, 8448
5, 112620, Note_on_c, 2, 67, 0
5, 112620, Note_on_c, 2, 62, 0
5, 112620, Note_on_c, 2, 62, 75
5, 112620, Note_on_c, 2, 67, 75
5, 112646, Pitch_bend_c, 2, 8320
5, 112648, Pitch_bend_c, 2, 8192
5, 112650, Pitch_bend_c, 2, 8064
5, 112659, Pitch_bend_c, 2, 7936
5, 112672, Pitch_bend_c, 2, 8064
5, 112676, Pitch_bend_c, 2, 8192
5, 112681, Pitch_bend_c, 2, 8448
5, 112685, Pitch_bend_c, 2, 8576
5, 112713, Pitch_bend_c, 2, 8448
5, 112716, Pitch_bend_c, 2, 8320
5, 112720, Pitch_bend_c, 2, 8064
5, 112724, Pitch_bend_c, 2, 7936
5, 112727, Pitch_bend_c, 2, 7808
5, 112860, Note_on_c, 2, 67, 0
5, 112860, Note_on_c, 2, 62, 0
5, 112860, Note_on_c, 2, 62, 75
5, 112860, Note_on_c, 2, 67, 75
5, 112860, Pitch_bend_c, 2, 8064
5, 112862, Pitch_bend_c, 2, 7936
5, 112864, Pitch_bend_c, 2, 7808
5, 112875, Pitch_bend_c, 2, 7936
5, 112879, Pitch_bend_c, 2, 8192
5, 112888, Pitch_bend_c, 2, 8320
5, 112892, Pitch_bend_c, 2, 8576
5, 112905, Pitch_bend_c, 2, 8448
5, 112910, Pitch_bend_c, 2, 8320
5, 112914, Pitch_bend_c, 2, 8064
5, 112921, Pitch_bend_c, 2, 7808
5, 112945, Pitch_bend_c, 2, 7936
5, 112949, Pitch_bend_c, 2, 8064
5, 112953, Pitch_bend_c, 2, 8192
5, 112960, Pitch_bend_c, 2, 8320
5, 112973, Pitch_bend_c, 2, 8448
5, 112980, Pitch_bend_c, 2, 8320
5, 112982, Pitch_bend_c, 2, 8192
5, 112984, Pitch_bend_c, 2, 7936
5, 112988, Pitch_bend_c, 2, 7808
5, 113010, Pitch_bend_c, 2, 7936
5, 113012, Pitch_bend_c, 2, 8064
5, 113017, Pitch_bend_c, 2, 8192
5, 113021, Pitch_bend_c, 2, 8320
5, 113025, Pitch_bend_c, 2, 8448
5, 113049, Pitch_bend_c, 2, 8320
5, 113052, Pitch_bend_c, 2, 8064
5, 113082, Pitch_bend_c, 2, 8192
5, 113089, Pitch_bend_c, 2, 8320
5, 113091, Pitch_bend_c, 2, 8448
5, 113093, Pitch_bend_c, 2, 8576
5, 113111, Pitch_bend_c, 2, 8448
5, 113115, Pitch_bend_c, 2, 8320
5, 113117, Pitch_bend_c, 2, 8192
5, 113119, Pitch_bend_c, 2, 8064
5, 113121, Pitch_bend_c, 2, 7936
5, 113124, Pitch_bend_c, 2, 7808
5, 113126, Pitch_bend_c, 2, 7680
5, 113141, Pitch_bend_c, 2, 7808
5, 113145, Pitch_bend_c, 2, 7936
5, 113148, Pitch_bend_c, 2, 8064
5, 113150, Pitch_bend_c, 2, 8192
5, 113154, Pitch_bend_c, 2, 8320
5, 113163, Pitch_bend_c, 2, 8448
5, 113187, Pitch_bend_c, 2, 8320
5, 113191, Pitch_bend_c, 2, 8064
5, 113193, Pitch_bend_c, 2, 7936
5, 113196, Pitch_bend_c, 2, 7680
5, 113215, Pitch_bend_c, 2, 7808
5, 113220, Pitch_bend_c, 2, 7936
5, 113222, Pitch_bend_c, 2, 8064
5, 113226, Pitch_bend_c, 2, 8192
5, 113231, Pitch_bend_c, 2, 8320
5, 113235, Pitch_bend_c, 2, 8448
5, 113237, Pitch_bend_c, 2, 8576
5, 113239, Pitch_bend_c, 2, 8704
5, 113250, Pitch_bend_c, 2, 8832
5, 113261, Pitch_bend_c, 2, 8704
5, 113268, Pitch_bend_c, 2, 8448
5, 113272, Pitch_bend_c, 2, 8320
5, 113274, Pitch_bend_c, 2, 8064
5, 113276, Pitch_bend_c, 2, 7936
5, 113281, Pitch_bend_c, 2, 7808
5, 113285, Pitch_bend_c, 2, 7680
5, 113298, Pitch_bend_c, 2, 7808
5, 113305, Pitch_bend_c, 2, 7936
5, 113311, Pitch_bend_c, 2, 8064
5, 113316, Pitch_bend_c, 2, 8192
5, 113322, Pitch_bend_c, 2, 8320
5, 113327, Pitch_bend_c, 2, 8448
5, 113331, Pitch_bend_c, 2, 8576
5, 113820, Note_on_c, 2, 67, 0
5, 113820, Note_on_c, 2, 62, 0
5, 121500, Note_on_c, 2, 68, 115
5, 121501, Pitch_bend_c, 2, 4096
5, 121502, Pitch_bend_c, 2, 4224
5, 121503, Pitch_bend_c, 2, 4352
5, 121504, Pitch_bend_c, 2, 4480
5, 121506, Pitch_bend_c, 2, 4608
5, 121507, Pitch_bend_c, 2, 4736
5, 121508, Pitch_bend_c, 2, 4864
5, 121509, Pitch_bend_c, 2, 4992
5, 121510, Pitch_bend_c, 2, 5120
5, 121512, Pitch_bend_c, 2, 5248
5, 121513, Pitch_bend_c, 2, 5376
5, 121514, Pitch_bend_c, 2, 5504
5, 121515, Pitch_bend_c, 2, 5632
5, 121516, Pitch_bend_c, 2, 5760
5, 121518, Pitch_bend_c, 2, 5888
5, 121519, Pitch_bend_c, 2, 6144
5, 121520, Pitch_bend_c, 2, 6272
5, 121521, Pitch_bend_c, 2, 6400
5, 121522, Pitch_bend_c, 2, 6528
5, 121524, Pitch_bend_c, 2, 6656
5, 121525, Pitch_bend_c, 2, 6784
5, 121526, Pitch_bend_c, 2, 6912
5, 121527, Pitch_bend_c, 2, 7040
5, 121528, Pitch_bend_c, 2, 7168
5, 121530, Pitch_bend_c, 2, 7296
5, 121531, Pitch_bend_c, 2, 7424
5, 121532, Pitch_bend_c, 2, 7552
5, 121533, Pitch_bend_c, 2, 7680
5, 121534, Pitch_bend_c, 2, 7808
5, 121536, Pitch_bend_c, 2, 7936
5, 121537, Pitch_bend_c, 2, 8192
5, 121680, Note_on_c, 2, 68, 0
5, 121680, Note_on_c, 2, 71, 115
5, 121680, Pitch_bend_c, 2, 8064
5, 121681, Pitch_bend_c, 2, 8192
5, 121682, Pitch_bend_c, 2, 8320
5, 121685, Pitch_bend_c, 2, 8576
5, 121694, Pitch_bend_c, 2, 8448
5, 121698, Pitch_bend_c, 2, 8320
5, 121703, Pitch_bend_c, 2, 8192
5, 121721, Pitch_bend_c, 2, 8320
5, 121722, Pitch_bend_c, 2, 8448
5, 121723, Pitch_bend_c, 2, 8576
5, 121727, Pitch_bend_c, 2, 8704
5, 121736, Pitch_bend_c, 2, 8448
5, 121741, Pitch_bend_c, 2, 8320
5, 121745, Pitch_bend_c, 2, 8192
5, 121765, Pitch_bend_c, 2, 8320
5, 121767, Pitch_bend_c, 2, 8448
5, 121770, Pitch_bend_c, 2, 8576
5, 121778, Pitch_bend_c, 2, 8448
5, 121784, Pitch_bend_c, 2, 8320
5, 121788, Pitch_bend_c, 2, 8192
5, 121860, Note_on_c, 2, 71, 0
5, 121860, Note_on_c, 2, 76, 115
5, 121980, Note_on_c, 2, 76, 0
5, 121980, Note_on_c, 2, 74, 115
5, 122160, Note_on_c, 2, 74, 0
5, 122160, Note_on_c, 2, 71, 115
5, 122160, Pitch_bend_c, 2, 8064
5, 122161, Pitch_bend_c, 2, 8192
5, 122162, Pitch_bend_c, 2, 8320
5, 122165, Pitch_bend_c, 2, 8576
5, 122174, Pitch_bend_c, 2, 8448
5, 122178, Pitch_bend_c, 2, 8320
5, 122183, Pitch_bend_c, 2, 8192
5, 122201, Pitch_bend_c, 2, 8320
5, 122202, Pitch_bend_c, 2, 8448
5, 122203, Pitch_bend_c, 2, 8576
5, 122207, Pitch_bend_c, 2, 8704
5, 122216, Pitch_bend_c, 2, 8448
5, 122221, Pitch_bend_c, 2, 8320
5, 122225, Pitch_bend_c, 2, 8192
5, 122245, Pitch_bend_c, 2, 8320
5, 122247, Pitch_bend_c, 2, 8448
5, 122250, Pitch_bend_c, 2, 8576
5, 122258, Pitch_bend_c, 2, 8448
5, 122264, Pitch_bend_c, 2, 8320
5, 122268, Pitch_bend_c, 2, 8192
5, 122340, Note_on_c, 2, 71, 0
5, 122340, Note_on_c, 2, 66, 115
5, 122460, Note_on_c, 2, 66, 0
5, 122460, Note_on_c, 2, 68, 115
5, 122640, Note_on_c, 2, 68, 0
5, 122640, Note_on_c, 2, 71, 115
5, 122640, Pitch_bend_c, 2, 8064
5, 122641, Pitch_bend_c, 2, 8192
5, 122642, Pitch_bend_c, 2, 8320
5, 122645, Pitch_bend_c, 2, 8576
5, 122654, Pitch_bend_c, 2, 8448
5, 122658, Pitch_bend_c, 2, 8320
5, 122663, Pitch_bend_c, 2, 8192
5, 122681, Pitch_bend_c, 2, 8320
5, 122682, Pitch_bend_c, 2, 8448
5, 122683, Pitch_bend_c, 2, 8576
5, 122687, Pitch_bend_c, 2, 8704
5, 122696, Pitch_bend_c, 2, 8448
5, 122701, Pitch_bend_c, 2, 8320
5, 122705, Pitch_bend_c, 2, 8192
5, 122725, Pitch_bend_c, 2, 8320
5, 122727, Pitch_bend_c, 2, 8448
5, 122730, Pitch_bend_c, 2, 8576
5, 122738, Pitch_bend_c, 2, 8448
5, 122744, Pitch_bend_c, 2, 8320
5, 122748, Pitch_bend_c, 2, 8192
5, 122820, Note_on_c, 2, 71, 0
5, 122820, Note_on_c, 2, 76, 115
5, 122940, Note_on_c, 2, 76, 0
5, 122940, Note_on_c, 2, 79, 115
5, 122941, Control_c, 2, 101, 0
5, 122941, Control_c, 2, 100, 0
5, 122941, Control_c, 2, 6, 3
5, 122941, Control_c, 2, 38, 127
5, 123120, Note_on_c, 2, 79, 0
5, 123120, Note_on_c, 2, 78, 115
5, 123121, Pitch_bend_c, 2, 12160
5, 123122, Pitch_bend_c, 2, 12032
5, 123123, Pitch_bend_c, 2, 11904
5, 123124, Pitch_bend_c, 2, 11648
5, 123126, Pitch_bend_c, 2, 11520
5, 123127, Pitch_bend_c, 2, 11264
5, 123128, Pitch_bend_c, 2, 11136
5, 123129, Pitch_bend_c, 2, 11008
5, 123130, Pitch_bend_c, 2, 10752
5, 123132, Pitch_bend_c, 2, 10624
5, 123133, Pitch_bend_c, 2, 10368
5, 123134, Pitch_bend_c, 2, 10240
5, 123135, Pitch_bend_c, 2, 10112
5, 123136, Pitch_bend_c, 2, 9856
5, 123138, Pitch_bend_c, 2, 9728
5, 123139, Pitch_bend_c, 2, 9472
5, 123140, Pitch_bend_c, 2, 9344
5, 123141, Pitch_bend_c, 2, 9216
5, 123142, Pitch_bend_c, 2, 8960
5, 123144, Pitch_bend_c, 2, 8832
5, 123145, Pitch_bend_c, 2, 8576
5, 123146, Pitch_bend_c, 2, 8448
5, 123147, Pitch_bend_c, 2, 8192
5, 123300, Note_on_c, 2, 78, 0
5, 123300, Note_on_c, 2, 76, 115
5, 123302, Pitch_bend_c, 2, 5504
5, 123303, Pitch_bend_c, 2, 5632
5, 123304, Pitch_bend_c, 2, 5760
5, 123306, Pitch_bend_c, 2, 5888
5, 123307, Pitch_bend_c, 2, 6016
5, 123308, Pitch_bend_c, 2, 6144
5, 123309, Pitch_bend_c, 2, 6272
5, 123310, Pitch_bend_c, 2, 6400
5, 123312, Pitch_bend_c, 2, 6528
5, 123313, Pitch_bend_c, 2, 6656
5, 123314, Pitch_bend_c, 2, 6784
5, 123315, Pitch_bend_c, 2, 6912
5, 123316, Pitch_bend_c, 2, 7040
5, 123318, Pitch_bend_c, 2, 7168
5, 123319, Pitch_bend_c, 2, 7296
5, 123320, Pitch_bend_c, 2, 7424
5, 123321, Pitch_bend_c, 2, 7552
5, 123322, Pitch_bend_c, 2, 7680
5, 123324, Pitch_bend_c, 2, 7808
5, 123325, Pitch_bend_c, 2, 7936
5, 123326, Pitch_bend_c, 2, 8064
5, 123327, Pitch_bend_c, 2, 8192
5, 123420, Note_on_c, 2, 76, 0
5, 123420, Note_on_c, 2, 74, 115
5, 123600, Note_on_c, 2, 74, 0
5, 123600, Note_on_c, 2, 71, 115
5, 123780, Note_on_c, 2, 71, 0
5, 123780, Note_on_c, 2, 67, 115
5, 123780, Pitch_bend_c, 2, 8192
5, 123795, Pitch_bend_c, 2, 8320
5, 123798, Pitch_bend_c, 2, 8448
5, 123806, Pitch_bend_c, 2, 8576
5, 123808, Pitch_bend_c, 2, 8704
5, 123824, Pitch_bend_c, 2, 8448
5, 123826, Pitch_bend_c, 2, 8320
5, 123828, Pitch_bend_c, 2, 8192
5, 123832, Pitch_bend_c, 2, 7936
5, 123837, Pitch_bend_c, 2, 7680
5, 123841, Pitch_bend_c, 2, 7552
5, 123850, Pitch_bend_c, 2, 7680
5, 123859, Pitch_bend_c, 2, 7936
5, 123861, Pitch_bend_c, 2, 8064
5, 123867, Pitch_bend_c, 2, 8320
5, 123874, Pitch_bend_c, 2, 8448
5, 123876, Pitch_bend_c, 2, 8576
5, 123880, Pitch_bend_c, 2, 8704
5, 123885, Pitch_bend_c, 2, 8832
5, 123891, Pitch_bend_c, 2, 8960
5, 123892, Pitch_bend_c, 2, 8704
5, 123894, Pitch_bend_c, 2, 8576
5, 123895, Pitch_bend_c, 2, 8320
5, 123896, Pitch_bend_c, 2, 8192
5, 123900, Note_on_c, 2, 67, 0
5, 123900, Note_on_c, 2, 74, 115
5, 124080, Note_on_c, 2, 74, 0
5, 124080, Note_on_c, 2, 76, 115
5, 124260, Note_on_c, 2, 76, 0
5, 124260, Note_on_c, 2, 77, 115
5, 124261, Pitch_bend_c, 2, 8320
5, 124263, Pitch_bend_c, 2, 8192
5, 124267, Pitch_bend_c, 2, 7936
5, 124272, Pitch_bend_c, 2, 7680
5, 124276, Pitch_bend_c, 2, 7552
5, 124285, Pitch_bend_c, 2, 7680
5, 124294, Pitch_bend_c, 2, 7936
5, 124296, Pitch_bend_c, 2, 8064
5, 124302, Pitch_bend_c, 2, 8320
5, 124309, Pitch_bend_c, 2, 8448
5, 124311, Pitch_bend_c, 2, 8576
5, 124315, Pitch_bend_c, 2, 8704
5, 124320, Pitch_bend_c, 2, 8832
5, 124326, Pitch_bend_c, 2, 8960
5, 124337, Pitch_bend_c, 2, 8832
5, 124342, Pitch_bend_c, 2, 8576
5, 124344, Pitch_bend_c, 2, 8448
5, 124346, Pitch_bend_c, 2, 8320
5, 124353, Pitch_bend_c, 2, 8192
5, 124353, Pitch_bend_c, 2, 8064
5, 124354, Pitch_bend_c, 2, 8064
5, 124355, Pitch_bend_c, 2, 7808
5, 124356, Pitch_bend_c, 2, 7808
5, 124357, Pitch_bend_c, 2, 7552
5, 124357, Pitch_bend_c, 2, 7680
5, 124358, Pitch_bend_c, 2, 7296
5, 124359, Pitch_bend_c, 2, 7040
5, 124360, Pitch_bend_c, 2, 6784
5, 124362, Pitch_bend_c, 2, 6528
5, 124363, Pitch_bend_c, 2, 6272
5, 124364, Pitch_bend_c, 2, 6016
5, 124365, Pitch_bend_c, 2, 5760
5, 124366, Pitch_bend_c, 2, 5504
5, 124368, Pitch_bend_c, 2, 5248
5, 124369, Pitch_bend_c, 2, 4992
5, 124370, Pitch_bend_c, 2, 4736
5, 124371, Pitch_bend_c, 2, 4480
5, 124372, Pitch_bend_c, 2, 4224
5, 124372, Pitch_bend_c, 2, 7936
5, 124374, Pitch_bend_c, 2, 3968
5, 124374, Pitch_bend_c, 2, 8064
5, 124375, Pitch_bend_c, 2, 3712
5, 124376, Pitch_bend_c, 2, 3456
5, 124377, Pitch_bend_c, 2, 3200
5, 124377, Pitch_bend_c, 2, 8192
5, 124378, Pitch_bend_c, 2, 2944
5, 124380, Note_on_c, 2, 77, 0
5, 124380, Pitch_bend_c, 2, 2688
5, 124380, Note_on_c, 2, 72, 115
5, 124381, Pitch_bend_c, 2, 8192
5, 124560, Note_on_c, 2, 72, 0
5, 124560, Note_on_c, 2, 69, 115
5, 124740, Note_on_c, 2, 69, 0
5, 124740, Control_c, 2, 101, 0
5, 124740, Control_c, 2, 100, 0
5, 124740, Control_c, 2, 6, 2
5, 124740, Control_c, 2, 38, 127
5, 124740, Note_on_c, 2, 67, 115
5, 124741, Pitch_bend_c, 2, 8320
5, 124743, Pitch_bend_c, 2, 8192
5, 124747, Pitch_bend_c, 2, 7936
5, 124752, Pitch_bend_c, 2, 7680
5, 124756, Pitch_bend_c, 2, 7552
5, 124765, Pitch_bend_c, 2, 7680
5, 124774, Pitch_bend_c, 2, 7936
5, 124776, Pitch_bend_c, 2, 8064
5, 124782, Pitch_bend_c, 2, 8320
5, 124789, Pitch_bend_c, 2, 8448
5, 124791, Pitch_bend_c, 2, 8576
5, 124795, Pitch_bend_c, 2, 8704
5, 124800, Pitch_bend_c, 2, 8832
5, 124806, Pitch_bend_c, 2, 8960
5, 124817, Pitch_bend_c, 2, 8832
5, 124822, Pitch_bend_c, 2, 8576
5, 124824, Pitch_bend_c, 2, 8448
5, 124826, Pitch_bend_c, 2, 8320
5, 124833, Pitch_bend_c, 2, 8064
5, 124835, Pitch_bend_c, 2, 7808
5, 124837, Pitch_bend_c, 2, 7680
5, 124852, Pitch_bend_c, 2, 7936
5, 124854, Pitch_bend_c, 2, 8064
5, 124857, Pitch_bend_c, 2, 8192
5, 124860, Note_on_c, 2, 67, 0
5, 124860, Control_c, 2, 101, 0
5, 124860, Control_c, 2, 100, 0
5, 124860, Control_c, 2, 6, 2
5, 124860, Control_c, 2, 38, 127
5, 124860, Note_on_c, 2, 69, 115
5, 124861, Control_c, 2, 101, 0
5, 124861, Control_c, 2, 100, 0
5, 124861, Control_c, 2, 6, 2
5, 124861, Control_c, 2, 38, 127
5, 124898, Pitch_bend_c, 2, 8192
5, 124902, Pitch_bend_c, 2, 8448
5, 124904, Pitch_bend_c, 2, 8576
5, 124905, Pitch_bend_c, 2, 8704
5, 124908, Pitch_bend_c, 2, 8832
5, 124911, Pitch_bend_c, 2, 8960
5, 124912, Pitch_bend_c, 2, 9088
5, 124928, Pitch_bend_c, 2, 8832
5, 124932, Pitch_bend_c, 2, 8704
5, 124933, Pitch_bend_c, 2, 8576
5, 124936, Pitch_bend_c, 2, 8448
5, 124938, Pitch_bend_c, 2, 8320
5, 124941, Pitch_bend_c, 2, 8064
5, 124945, Pitch_bend_c, 2, 7936
5, 124946, Pitch_bend_c, 2, 7808
5, 124950, Pitch_bend_c, 2, 7680
5, 124954, Pitch_bend_c, 2, 7424
5, 124956, Pitch_bend_c, 2, 7296
5, 124971, Pitch_bend_c, 2, 7424
5, 124975, Pitch_bend_c, 2, 7552
5, 124977, Pitch_bend_c, 2, 7680
5, 124980, Pitch_bend_c, 2, 7808
5, 124983, Pitch_bend_c, 2, 7936
5, 124986, Pitch_bend_c, 2, 8064
5, 124988, Pitch_bend_c, 2, 8192
5, 124992, Pitch_bend_c, 2, 8320
5, 124995, Pitch_bend_c, 2, 8576
5, 124999, Pitch_bend_c, 2, 8704
5, 125004, Pitch_bend_c, 2, 8832
5, 125029, Pitch_bend_c, 2, 8704
5, 125031, Pitch_bend_c, 2, 8576
5, 125034, Pitch_bend_c, 2, 8448
5, 125036, Pitch_bend_c, 2, 8320
5, 125038, Pitch_bend_c, 2, 8064
5, 125042, Pitch_bend_c, 2, 7936
5, 125046, Pitch_bend_c, 2, 7808
5, 125047, Pitch_bend_c, 2, 7680
5, 125072, Pitch_bend_c, 2, 7808
5, 125076, Pitch_bend_c, 2, 7936
5, 125077, Pitch_bend_c, 2, 8064
5, 125080, Pitch_bend_c, 2, 8192
5, 125084, Pitch_bend_c, 2, 8320
5, 125089, Pitch_bend_c, 2, 8448
5, 125090, Pitch_bend_c, 2, 8576
5, 125096, Pitch_bend_c, 2, 8704
5, 125120, Pitch_bend_c, 2, 8576
5, 125122, Pitch_bend_c, 2, 8448
5, 125125, Pitch_bend_c, 2, 8320
5, 125127, Pitch_bend_c, 2, 8192
5, 125130, Pitch_bend_c, 2, 7936
5, 125134, Pitch_bend_c, 2, 7808
5, 125138, Pitch_bend_c, 2, 7680
5, 125148, Pitch_bend_c, 2, 7808
5, 125152, Pitch_bend_c, 2, 7936
5, 125158, Pitch_bend_c, 2, 8064
5, 125162, Pitch_bend_c, 2, 8192
5, 125168, Pitch_bend_c, 2, 8320
5, 125175, Pitch_bend_c, 2, 8448
5, 125180, Pitch_bend_c, 2, 8576
5, 125185, Pitch_bend_c, 2, 8704
5, 125221, Control_c, 2, 101, 0
5, 125221, Control_c, 2, 100, 0
5, 125221, Control_c, 2, 6, 6
5, 125221, Control_c, 2, 38, 127
5, 125221, Pitch_bend_c, 2, 8192
5, 125222, Pitch_bend_c, 2, 8064
5, 125223, Pitch_bend_c, 2, 7936
5, 125224, Pitch_bend_c, 2, 7808
5, 125226, Pitch_bend_c, 2, 7552
5, 125227, Pitch_bend_c, 2, 7424
5, 125228, Pitch_bend_c, 2, 7296
5, 125229, Pitch_bend_c, 2, 7040
5, 125230, Pitch_bend_c, 2, 6912
5, 125232, Pitch_bend_c, 2, 6784
5, 125233, Pitch_bend_c, 2, 6656
5, 125234, Pitch_bend_c, 2, 6400
5, 125235, Pitch_bend_c, 2, 6272
5, 125236, Pitch_bend_c, 2, 6144
5, 125238, Pitch_bend_c, 2, 5888
5, 125239, Pitch_bend_c, 2, 5760
5, 125240, Pitch_bend_c, 2, 5632
5, 125241, Pitch_bend_c, 2, 5504
5, 125242, Pitch_bend_c, 2, 5248
5, 125244, Pitch_bend_c, 2, 5120
5, 125245, Pitch_bend_c, 2, 4992
5, 125246, Pitch_bend_c, 2, 4736
5, 125247, Pitch_bend_c, 2, 4608
5, 125248, Pitch_bend_c, 2, 4480
5, 125250, Pitch_bend_c, 2, 4352
5, 125251, Pitch_bend_c, 2, 4096
5, 125252, Pitch_bend_c, 2, 3968
5, 125253, Pitch_bend_c, 2, 3840
5, 125254, Pitch_bend_c, 2, 3584
5, 125256, Pitch_bend_c, 2, 3456
5, 125257, Pitch_bend_c, 2, 3328
5, 125258, Pitch_bend_c, 2, 3200
5, 125259, Pitch_bend_c, 2, 2944
5, 125260, Pitch_bend_c, 2, 2816
5, 125262, Pitch_bend_c, 2, 2688
5, 125263, Pitch_bend_c, 2, 2432
5, 125264, Pitch_bend_c, 2, 2304
5, 125265, Pitch_bend_c, 2, 2176
5, 125266, Pitch_bend_c, 2, 2048
5, 125268, Pitch_bend_c, 2, 1792
5, 125269, Pitch_bend_c, 2, 1664
5, 125270, Pitch_bend_c, 2, 1536
5, 125271, Pitch_bend_c, 2, 1280
5, 125272, Pitch_bend_c, 2, 1152
5, 125274, Pitch_bend_c, 2, 1024
5, 125275, Pitch_bend_c, 2, 896
5, 125276, Pitch_bend_c, 2, 640
5, 125277, Pitch_bend_c, 2, 512
5, 125278, Pitch_bend_c, 2, 384
5, 125280, Note_on_c, 2, 69, 0
5, 125280, Pitch_bend_c, 2, 128
5, 125340, Note_on_c, 2, 68, 115
5, 125341, Pitch_bend_c, 2, 4096
5, 125342, Pitch_bend_c, 2, 4224
5, 125343, Pitch_bend_c, 2, 4352
5, 125344, Pitch_bend_c, 2, 4480
5, 125346, Pitch_bend_c, 2, 4608
5, 125347, Pitch_bend_c, 2, 4736
5, 125348, Pitch_bend_c, 2, 4864
5, 125349, Pitch_bend_c, 2, 4992
5, 125350, Pitch_bend_c, 2, 5120
5, 125352, Pitch_bend_c, 2, 5248
5, 125353, Pitch_bend_c, 2, 5376
5, 125354, Pitch_bend_c, 2, 5504
5, 125355, Pitch_bend_c, 2, 5632
5, 125356, Pitch_bend_c, 2, 5760
5, 125358, Pitch_bend_c, 2, 5888
5, 125359, Pitch_bend_c, 2, 6144
5, 125360, Pitch_bend_c, 2, 6272
5, 125361, Pitch_bend_c, 2, 6400
5, 125362, Pitch_bend_c, 2, 6528
5, 125364, Pitch_bend_c, 2, 6656
5, 125365, Pitch_bend_c, 2, 6784
5, 125366, Pitch_bend_c, 2, 6912
5, 125367, Pitch_bend_c, 2, 7040
5, 125368, Pitch_bend_c, 2, 7168
5, 125370, Pitch_bend_c, 2, 7296
5, 125371, Pitch_bend_c, 2, 7424
5, 125372, Pitch_bend_c, 2, 7552
5, 125373, Pitch_bend_c, 2, 7680
5, 125374, Pitch_bend_c, 2, 7808
5, 125376, Pitch_bend_c, 2, 7936
5, 125377, Pitch_bend_c, 2, 8192
5, 125520, Note_on_c, 2, 68, 0
5, 125520, Note_on_c, 2, 71, 115
5, 125520, Pitch_bend_c, 2, 8064
5, 125521, Pitch_bend_c, 2, 8192
5, 125522, Pitch_bend_c, 2, 8320
5, 125525, Pitch_bend_c, 2, 8576
5, 125534, Pitch_bend_c, 2, 8448
5, 125538, Pitch_bend_c, 2, 8320
5, 125543, Pitch_bend_c, 2, 8192
5, 125561, Pitch_bend_c, 2, 8320
5, 125562, Pitch_bend_c, 2, 8448
5, 125563, Pitch_bend_c, 2, 8576
5, 125567, Pitch_bend_c, 2, 8704
5, 125576, Pitch_bend_c, 2, 8448
5, 125581, Pitch_bend_c, 2, 8320
5, 125585, Pitch_bend_c, 2, 8192
5, 125605, Pitch_bend_c, 2, 8320
5, 125607, Pitch_bend_c, 2, 8448
5, 125610, Pitch_bend_c, 2, 8576
5, 125618, Pitch_bend_c, 2, 8448
5, 125624, Pitch_bend_c, 2, 8320
5, 125628, Pitch_bend_c, 2, 8192
5, 125700, Note_on_c, 2, 71, 0
5, 125700, Note_on_c, 2, 76, 115
5, 125820, Note_on_c, 2, 76, 0
5, 125820, Note_on_c, 2, 74, 115
5, 126000, Note_on_c, 2, 74, 0
5, 126000, Note_on_c, 2, 71, 115
5, 126000, Pitch_bend_c, 2, 8064
5, 126001, Pitch_bend_c, 2, 8192
5, 126002, Pitch_bend_c, 2, 8320
5, 126005, Pitch_bend_c, 2, 8576
5, 126014, Pitch_bend_c, 2, 8448
5, 126018, Pitch_bend_c, 2, 8320
5, 126023, Pitch_bend_c, 2, 8192
5, 126041, Pitch_bend_c, 2, 8320
5, 126042, Pitch_bend_c, 2, 8448
5, 126043, Pitch_bend_c, 2, 8576
5, 126047, Pitch_bend_c, 2, 8704
5, 126056, Pitch_bend_c, 2, 8448
5, 126061, Pitch_bend_c, 2, 8320
5, 126065, Pitch_bend_c, 2, 8192
5, 126085, Pitch_bend_c, 2, 8320
5, 126087, Pitch_bend_c, 2, 8448
5, 126090, Pitch_bend_c, 2, 8576
5, 126098, Pitch_bend_c, 2, 8448
5, 126104, Pitch_bend_c, 2, 8320
5, 126108, Pitch_bend_c, 2, 8192
5, 126180, Note_on_c, 2, 71, 0
5, 126180, Note_on_c, 2, 66, 115
5, 126300, Note_on_c, 2, 66, 0
5, 126300, Note_on_c, 2, 68, 115
5, 126480, Note_on_c, 2, 68, 0
5, 126480, Note_on_c, 2, 71, 115
5, 126480, Pitch_bend_c, 2, 8064
5, 126481, Pitch_bend_c, 2, 8192
5, 126482, Pitch_bend_c, 2, 8320
5, 126485, Pitch_bend_c, 2, 8576
5, 126494, Pitch_bend_c, 2, 8448
5, 126498, Pitch_bend_c, 2, 8320
5, 126503, Pitch_bend_c, 2, 8192
5, 126521, Pitch_bend_c, 2, 8320
5, 126522, Pitch_bend_c, 2, 8448
5, 126523, Pitch_bend_c, 2, 8576
5, 126527, Pitch_bend_c, 2, 8704
5, 126536, Pitch_bend_c, 2, 8448
5, 126541, Pitch_bend_c, 2, 8320
5, 126545, Pitch_bend_c, 2, 8192
5, 126565, Pitch_bend_c, 2, 8320
5, 126567, Pitch_bend_c, 2, 8448
5, 126570, Pitch_bend_c, 2, 8576
5, 126578, Pitch_bend_c, 2, 8448
5, 126584, Pitch_bend_c, 2, 8320
5, 126588, Pitch_bend_c, 2, 8192
5, 126660, Note_on_c, 2, 71, 0
5, 126660, Note_on_c, 2, 76, 115
5, 126780, Note_on_c, 2, 76, 0
5, 126780, Note_on_c, 2, 79, 115
5, 126781, Control_c, 2, 101, 0
5, 126781, Control_c, 2, 100, 0
5, 126781, Control_c, 2, 6, 3
5, 126781, Control_c, 2, 38, 127
5, 126960, Note_on_c, 2, 79, 0
5, 126960, Note_on_c, 2, 78, 115
5, 126961, Pitch_bend_c, 2, 12160
5, 126962, Pitch_bend_c, 2, 12032
5, 126963, Pitch_bend_c, 2, 11904
5, 126964, Pitch_bend_c, 2, 11648
5, 126966, Pitch_bend_c, 2, 11520
5, 126967, Pitch_bend_c, 2, 11264
5, 126968, Pitch_bend_c, 2, 11136
5, 126969, Pitch_bend_c, 2, 11008
5, 126970, Pitch_bend_c, 2, 10752
5, 126972, Pitch_bend_c, 2, 10624
5, 126973, Pitch_bend_c, 2, 10368
5, 126974, Pitch_bend_c, 2, 10240
5, 126975, Pitch_bend_c, 2, 10112
5, 126976, Pitch_bend_c, 2, 9856
5, 126978, Pitch_bend_c, 2, 9728
5, 126979, Pitch_bend_c, 2, 9472
5, 126980, Pitch_bend_c, 2, 9344
5, 126981, Pitch_bend_c, 2, 9216
5, 126982, Pitch_bend_c, 2, 8960
5, 126984, Pitch_bend_c, 2, 8832
5, 126985, Pitch_bend_c, 2, 8576
5, 126986, Pitch_bend_c, 2, 8448
5, 126987, Pitch_bend_c, 2, 8192
5, 127140, Note_on_c, 2, 78, 0
5, 127140, Note_on_c, 2, 76, 115
5, 127142, Pitch_bend_c, 2, 5504
5, 127143, Pitch_bend_c, 2, 5632
5, 127144, Pitch_bend_c, 2, 5760
5, 127146, Pitch_bend_c, 2, 5888
5, 127147, Pitch_bend_c, 2, 6016
5, 127148, Pitch_bend_c, 2, 6144
5, 127149, Pitch_bend_c, 2, 6272
5, 127150, Pitch_bend_c, 2, 6400
5, 127152, Pitch_bend_c, 2, 6528
5, 127153, Pitch_bend_c, 2, 6656
5, 127154, Pitch_bend_c, 2, 6784
5, 127155, Pitch_bend_c, 2, 6912
5, 127156, Pitch_bend_c, 2, 7040
5, 127158, Pitch_bend_c, 2, 7168
5, 127159, Pitch_bend_c, 2, 7296
5, 127160, Pitch_bend_c, 2, 7424
5, 127161, Pitch_bend_c, 2, 7552
5, 127162, Pitch_bend_c, 2, 7680
5, 127164, Pitch_bend_c, 2, 7808
5, 127165, Pitch_bend_c, 2, 7936
5, 127166, Pitch_bend_c, 2, 8064
5, 127167, Pitch_bend_c, 2, 8192
5, 127260, Note_on_c, 2, 76, 0
5, 127260, Note_on_c, 2, 74, 115
5, 127440, Note_on_c, 2, 74, 0
5, 127440, Note_on_c, 2, 71, 115
5, 127620, Note_on_c, 2, 71, 0
5, 127620, Note_on_c, 2, 67, 115
5, 127620, Pitch_bend_c, 2, 8192
5, 127635, Pitch_bend_c, 2, 8320
5, 127638, Pitch_bend_c, 2, 8448
5, 127646, Pitch_bend_c, 2, 8576
5, 127648, Pitch_bend_c, 2, 8704
5, 127664, Pitch_bend_c, 2, 8448
5, 127666, Pitch_bend_c, 2, 8320
5, 127668, Pitch_bend_c, 2, 8192
5, 127672, Pitch_bend_c, 2, 7936
5, 127677, Pitch_bend_c, 2, 7680
5, 127681, Pitch_bend_c, 2, 7552
5, 127690, Pitch_bend_c, 2, 7680
5, 127699, Pitch_bend_c, 2, 7936
5, 127701, Pitch_bend_c, 2, 8064
5, 127707, Pitch_bend_c, 2, 8320
5, 127714, Pitch_bend_c, 2, 8448
5, 127716, Pitch_bend_c, 2, 8576
5, 127720, Pitch_bend_c, 2, 8704
5, 127725, Pitch_bend_c, 2, 8832
5, 127731, Pitch_bend_c, 2, 8960
5, 127732, Pitch_bend_c, 2, 8704
5, 127734, Pitch_bend_c, 2, 8576
5, 127735, Pitch_bend_c, 2, 8320
5, 127736, Pitch_bend_c, 2, 8192
5, 127740, Note_on_c, 2, 67, 0
5, 127740, Note_on_c, 2, 74, 115
5, 127920, Note_on_c, 2, 74, 0
5, 127920, Note_on_c, 2, 76, 115
5, 128100, Note_on_c, 2, 76, 0
5, 128100, Note_on_c, 2, 77, 115
5, 128101, Pitch_bend_c, 2, 8320
5, 128103, Pitch_bend_c, 2, 8192
5, 128107, Pitch_bend_c, 2, 7936
5, 128112, Pitch_bend_c, 2, 7680
5, 128116, Pitch_bend_c, 2, 7552
5, 128125, Pitch_bend_c, 2, 7680
5, 128134, Pitch_bend_c, 2, 7936
5, 128136, Pitch_bend_c, 2, 8064
5, 128142, Pitch_bend_c, 2, 8320
5, 128149, Pitch_bend_c, 2, 8448
5, 128151, Pitch_bend_c, 2, 8576
5, 128155, Pitch_bend_c, 2, 8704
5, 128160, Pitch_bend_c, 2, 8832
5, 128166, Pitch_bend_c, 2, 8960
5, 128177, Pitch_bend_c, 2, 8832
5, 128182, Pitch_bend_c, 2, 8576
5, 128184, Pitch_bend_c, 2, 8448
5, 128186, Pitch_bend_c, 2, 8320
5, 128193, Pitch_bend_c, 2, 8192
5, 128193, Pitch_bend_c, 2, 8064
5, 128194, Pitch_bend_c, 2, 8064
5, 128195, Pitch_bend_c, 2, 7808
5, 128196, Pitch_bend_c, 2, 7808
5, 128197, Pitch_bend_c, 2, 7552
5, 128197, Pitch_bend_c, 2, 7680
5, 128198, Pitch_bend_c, 2, 7296
5, 128199, Pitch_bend_c, 2, 7040
5, 128200, Pitch_bend_c, 2, 6784
5, 128202, Pitch_bend_c, 2, 6528
5, 128203, Pitch_bend_c, 2, 6272
5, 128204, Pitch_bend_c, 2, 6016
5, 128205, Pitch_bend_c, 2, 5760
5, 128206, Pitch_bend_c, 2, 5504
5, 128208, Pitch_bend_c, 2, 5248
5, 128209, Pitch_bend_c, 2, 4992
5, 128210, Pitch_bend_c, 2, 4736
5, 128211, Pitch_bend_c, 2, 4480
5, 128212, Pitch_bend_c, 2, 4224
5, 128212, Pitch_bend_c, 2, 7936
5, 128214, Pitch_bend_c, 2, 3968
5, 128214, Pitch_bend_c, 2, 8064
5, 128215, Pitch_bend_c, 2, 3712
5, 128216, Pitch_bend_c, 2, 3456
5, 128217, Pitch_bend_c, 2, 3200
5, 128217, Pitch_bend_c, 2, 8192
5, 128218, Pitch_bend_c, 2, 2944
5, 128220, Note_on_c, 2, 77, 0
5, 128220, Pitch_bend_c, 2, 2688
5, 128220, Note_on_c, 2, 72, 115
5, 128221, Pitch_bend_c, 2, 8192
5, 128400, Note_on_c, 2, 72, 0
5, 128400, Note_on_c, 2, 69, 115
5, 128580, Note_on_c, 2, 69, 0
5, 128580, Control_c, 2, 101, 0
5, 128580, Control_c, 2, 100, 0
5, 128580, Control_c, 2, 6, 2
5, 128580, Control_c, 2, 38, 127
5, 128580, Note_on_c, 2, 67, 115
5, 128581, Pitch_bend_c, 2, 8320
5, 128583, Pitch_bend_c, 2, 8192
5, 128587, Pitch_bend_c, 2, 7936
5, 128592, Pitch_bend_c, 2, 7680
5, 128596, Pitch_bend_c, 2, 7552
5, 128605, Pitch_bend_c, 2, 7680
5, 128614, Pitch_bend_c, 2, 7936
5, 128616, Pitch_bend_c, 2, 8064
5, 128622, Pitch_bend_c, 2, 8320
5, 128629, Pitch_bend_c, 2, 8448
5, 128631, Pitch_bend_c, 2, 8576
5, 128635, Pitch_bend_c, 2, 8704
5, 128640, Pitch_bend_c, 2, 8832
5, 128646, Pitch_bend_c, 2, 8960
5, 128657, Pitch_bend_c, 2, 8832
5, 128662, Pitch_bend_c, 2, 8576
5, 128664, Pitch_bend_c, 2, 8448
5, 128666, Pitch_bend_c, 2, 8320
5, 128673, Pitch_bend_c, 2, 8064
5, 128675, Pitch_bend_c, 2, 7808
5, 128677, Pitch_bend_c, 2, 7680
5, 128692, Pitch_bend_c, 2, 7936
5, 128694, Pitch_bend_c, 2, 8064
5, 128697, Pitch_bend_c, 2, 8192
5, 128700, Note_on_c, 2, 67, 0
5, 128700, Control_c, 2, 101, 0
5, 128700, Control_c, 2, 100, 0
5, 128700, Control_c, 2, 6, 2
5, 128700, Control_c, 2, 38, 127
5, 128700, Note_on_c, 2, 69, 115
5, 128701, Control_c, 2, 101, 0
5, 128701, Control_c, 2, 100, 0
5, 128701, Control_c, 2, 6, 2
5, 128701, Control_c, 2, 38, 127
5, 128738, Pitch_bend_c, 2, 8192
5, 128742, Pitch_bend_c, 2, 8448
5, 128744, Pitch_bend_c, 2, 8576
5, 128745, Pitch_bend_c, 2, 8704
5, 128748, Pitch_bend_c, 2, 8832
5, 128751, Pitch_bend_c, 2, 8960
5, 128752, Pitch_bend_c, 2, 9088
5, 128768, Pitch_bend_c, 2, 8832
5, 128772, Pitch_bend_c, 2, 8704
5, 128773, Pitch_bend_c, 2, 8576
5, 128776, Pitch_bend_c, 2, 8448
5, 128778, Pitch_bend_c, 2, 8320
5, 128781, Pitch_bend_c, 2, 8064
5, 128785, Pitch_bend_c, 2, 7936
5, 128786, Pitch_bend_c, 2, 7808
5, 128790, Pitch_bend_c, 2, 7680
5, 128794, Pitch_bend_c, 2, 7424
5, 128796, Pitch_bend_c, 2, 7296
5, 128811, Pitch_bend_c, 2, 7424
5, 128815, Pitch_bend_c, 2, 7552
5, 128817, Pitch_bend_c, 2, 7680
5, 128820, Pitch_bend_c, 2, 7808
5, 128823, Pitch_bend_c, 2, 7936
5, 128826, Pitch_bend_c, 2, 8064
5, 128828, Pitch_bend_c, 2, 8192
5, 128832, Pitch_bend_c, 2, 8320
5, 128835, Pitch_bend_c, 2, 8576
5, 128839, Pitch_bend_c, 2, 8704
5, 128844, Pitch_bend_c, 2, 8832
5, 128869, Pitch_bend_c, 2, 8704
5, 128871, Pitch_bend_c, 2, 8576
5, 128874, Pitch_bend_c, 2, 8448
5, 128876, Pitch_bend_c, 2, 8320
5, 128878, Pitch_bend_c, 2, 8064
5, 128882, Pitch_bend_c, 2, 7936
5, 128886, Pitch_bend_c, 2, 7808
5, 128887, Pitch_bend_c, 2, 7680
5, 128912, Pitch_bend_c, 2, 7808
5, 128916, Pitch_bend_c, 2, 7936
5, 128917, Pitch_bend_c, 2, 8064
5, 128920, Pitch_bend_c, 2, 8192
5, 128924, Pitch_bend_c, 2, 8320
5, 128929, Pitch_bend_c, 2, 8448
5, 128930, Pitch_bend_c, 2, 8576
5, 128936, Pitch_bend_c, 2, 8704
5, 128960, Pitch_bend_c, 2, 8576
5, 128962, Pitch_bend_c, 2, 8448
5, 128965, Pitch_bend_c, 2, 8320
5, 128967, Pitch_bend_c, 2, 8192
5, 128970, Pitch_bend_c, 2, 7936
5, 128974, Pitch_bend_c, 2, 7808
5, 128978, Pitch_bend_c, 2, 7680
5, 128988, Pitch_bend_c, 2, 7808
5, 128992, Pitch_bend_c, 2, 7936
5, 128998, Pitch_bend_c, 2, 8064
5, 129002, Pitch_bend_c, 2, 8192
5, 129008, Pitch_bend_c, 2, 8320
5, 129015, Pitch_bend_c, 2, 8448
5, 129020, Pitch_bend_c, 2, 8576
5, 129025, Pitch_bend_c, 2, 8704
5, 129061, Control_c, 2, 101, 0
5, 129061, Control_c, 2, 100, 0
5, 129061, Control_c, 2, 6, 6
5, 129061, Control_c, 2, 38, 127
5, 129061, Pitch_bend_c, 2, 8192
5, 129062, Pitch_bend_c, 2, 8064
5, 129063, Pitch_bend_c, 2, 7936
5, 129064, Pitch_bend_c, 2, 7808
5, 129066, Pitch_bend_c, 2, 7552
5, 129067, Pitch_bend_c, 2, 7424
5, 129068, Pitch_bend_c, 2, 7296
5, 129069, Pitch_bend_c, 2, 7040
5, 129070, Pitch_bend_c, 2, 6912
5, 129072, Pitch_bend_c, 2, 6784
5, 129073, Pitch_bend_c, 2, 6656
5, 129074, Pitch_bend_c, 2, 6400
5, 129075, Pitch_bend_c, 2, 6272
5, 129076, Pitch_bend_c, 2, 6144
5, 129078, Pitch_bend_c, 2, 5888
5, 129079, Pitch_bend_c, 2, 5760
5, 129080, Pitch_bend_c, 2, 5632
5, 129081, Pitch_bend_c, 2, 5504
5, 129082, Pitch_bend_c, 2, 5248
5, 129084, Pitch_bend_c, 2, 5120
5, 129085, Pitch_bend_c, 2, 4992
5, 129086, Pitch_bend_c, 2, 4736
5, 129087, Pitch_bend_c, 2, 4608
5, 129088, Pitch_bend_c, 2, 4480
5, 129090, Pitch_bend_c, 2, 4352
5, 129091, Pitch_bend_c, 2, 4096
5, 129092, Pitch_bend_c, 2, 3968
5, 129093, Pitch_bend_c, 2, 3840
5, 129094, Pitch_bend_c, 2, 3584
5, 129096, Pitch_bend_c, 2, 3456
5, 129097, Pitch_bend_c, 2, 3328
5, 129098, Pitch_bend_c, 2, 3200
5, 129099, Pitch_bend_c, 2, 2944
5, 129100, Pitch_bend_c, 2, 2816
5, 129102, Pitch_bend_c, 2, 2688
5, 129103, Pitch_bend_c, 2, 2432
5, 129104, Pitch_bend_c, 2, 2304
5, 129105, Pitch_bend_c, 2, 2176
5, 129106, Pitch_bend_c, 2, 2048
5, 129108, Pitch_bend_c, 2, 1792
5, 129109, Pitch_bend_c, 2, 1664
5, 129110, Pitch_bend_c, 2, 1536
5, 129111, Pitch_bend_c, 2, 1280
5, 129112, Pitch_bend_c, 2, 1152
5, 129114, Pitch_bend_c, 2, 1024
5, 129115, Pitch_bend_c, 2, 896
5, 129116, Pitch_bend_c, 2, 640
5, 129117, Pitch_bend_c, 2, 512
5, 129118, Pitch_bend_c, 2, 384
5, 129120, Note_on_c, 2, 69, 0
5, 129120, Pitch_bend_c, 2, 128
5, 129181, Pitch_bend_c, 2, 8192
5, 129840, Note_on_c, 2, 40, 100
5, 129960, Note_on_c, 2, 40, 0
5, 129960, Note_on_c, 2, 47, 100
5, 130020, Note_on_c, 2, 47, 0
5, 130020, Note_on_c, 2, 50, 100
5, 130080, Note_on_c, 2, 50, 0
5, 130080, Note_on_c, 2, 47, 100
5, 130140, Note_on_c, 2, 47, 0
5, 130140, Note_on_c, 2, 52, 100
5, 130200, Note_on_c, 2, 52, 0
5, 130200, Note_on_c, 2, 47, 100
5, 130260, Note_on_c, 2, 47, 0
5, 130260, Note_on_c, 2, 50, 100
5, 130320, Note_on_c, 2, 50, 0
5, 130320, Note_on_c, 2, 45, 100
5, 130380, Note_on_c, 2, 45, 0
5, 130380, Note_on_c, 2, 47, 100
5, 130440, Note_on_c, 2, 47, 0
5, 130440, Note_on_c, 2, 43, 100
5, 130500, Note_on_c, 2, 43, 0
5, 130500, Note_on_c, 2, 45, 100
5, 130560, Note_on_c, 2, 45, 0
5, 130560, Note_on_c, 2, 40, 100
5, 130680, Note_on_c, 2, 40, 0
5, 130681, Note_on_c, 2, 47, 100
5, 130741, Note_on_c, 2, 47, 0
5, 130741, Note_on_c, 2, 50, 100
5, 130801, Note_on_c, 2, 50, 0
5, 130801, Note_on_c, 2, 47, 100
5, 130861, Note_on_c, 2, 47, 0
5, 130861, Note_on_c, 2, 52, 100
5, 130921, Note_on_c, 2, 52, 0
5, 130921, Note_on_c, 2, 47, 100
5, 130981, Note_on_c, 2, 47, 0
5, 130981, Note_on_c, 2, 50, 100
5, 131041, Note_on_c, 2, 50, 0
5, 131041, Note_on_c, 2, 45, 100
5, 131101, Note_on_c, 2, 45, 0
5, 131101, Note_on_c, 2, 47, 100
5, 131161, Note_on_c, 2, 47, 0
5, 131161, Note_on_c, 2, 43, 100
5, 131221, Note_on_c, 2, 43, 0
5, 131221, Note_on_c, 2, 45, 100
5, 131281, Note_on_c, 2, 45, 0
5, 131281, Note_on_c, 2, 40, 100
5, 131401, Note_on_c, 2, 40, 0
5, 131402, Note_on_c, 2, 47, 100
5, 131462, Note_on_c, 2, 47, 0
5, 131462, Note_on_c, 2, 50, 100
5, 131522, Note_on_c, 2, 50, 0
5, 131522, Note_on_c, 2, 47, 100
5, 131582, Note_on_c, 2, 47, 0
5, 131582, Note_on_c, 2, 52, 100
5, 131642, Note_on_c, 2, 52, 0
5, 131642, Note_on_c, 2, 47, 100
5, 131702, Note_on_c, 2, 47, 0
5, 131702, Note_on_c, 2, 50, 100
5, 131762, Note_on_c, 2, 50, 0
5, 131762, Note_on_c, 2, 45, 100
5, 131822, Note_on_c, 2, 45, 0
5, 131822, Note_on_c, 2, 47, 100
5, 131882, Note_on_c, 2, 47, 0
5, 131882, Note_on_c, 2, 43, 100
5, 131942, Note_on_c, 2, 43, 0
5, 131942, Note_on_c, 2, 45, 100
5, 132002, Note_on_c, 2, 45, 0
5, 132002, Note_on_c, 2, 40, 100
5, 132122, Note_on_c, 2, 40, 0
5, 132123, Note_on_c, 2, 47, 100
5, 132183, Note_on_c, 2, 47, 0
5, 132183, Note_on_c, 2, 50, 100
5, 132243, Note_on_c, 2, 50, 0
5, 132243, Note_on_c, 2, 47, 100
5, 132303, Note_on_c, 2, 47, 0
5, 132303, Note_on_c, 2, 52, 100
5, 132363, Note_on_c, 2, 52, 0
5, 132363, Note_on_c, 2, 47, 100
5, 132423, Note_on_c, 2, 47, 0
5, 132423, Note_on_c, 2, 50, 100
5, 132483, Note_on_c, 2, 50, 0
5, 132483, Note_on_c, 2, 45, 100
5, 132543, Note_on_c, 2, 45, 0
5, 132543, Note_on_c, 2, 47, 100
5, 132603, Note_on_c, 2, 47, 0
5, 132603, Note_on_c, 2, 43, 100
5, 132663, Note_on_c, 2, 43, 0
5, 132663, Note_on_c, 2, 45, 100
5, 132723, Note_on_c, 2, 45, 0
5, 132723, Note_on_c, 2, 40, 100
5, 132843, Note_on_c, 2, 40, 0
5, 132844, Note_on_c, 2, 47, 100
5, 132904, Note_on_c, 2, 47, 0
5, 132904, Note_on_c, 2, 50, 100
5, 132964, Note_on_c, 2, 50, 0
5, 132964, Note_on_c, 2, 47, 100
5, 133024, Note_on_c, 2, 47, 0
5, 133024, Note_on_c, 2, 52, 100
5, 133084, Note_on_c, 2, 52, 0
5, 133084, Note_on_c, 2, 47, 100
5, 133144, Note_on_c, 2, 47, 0
5, 133144, Note_on_c, 2, 50, 100
5, 133204, Note_on_c, 2, 50, 0
5, 133204, Note_on_c, 2, 45, 100
5, 133264, Note_on_c, 2, 45, 0
5, 133264, Note_on_c, 2, 47, 100
5, 133324, Note_on_c, 2, 47, 0
5, 133324, Note_on_c, 2, 43, 100
5, 133384, Note_on_c, 2, 43, 0
5, 133384, Note_on_c, 2, 45, 100
5, 133444, Note_on_c, 2, 45, 0
5, 133444, Note_on_c, 2, 40, 100
5, 133564, Note_on_c, 2, 40, 0
5, 133565, Note_on_c, 2, 47, 100
5, 133625, Note_on_c, 2, 47, 0
5, 133625, Note_on_c, 2, 50, 100
5, 133685, Note_on_c, 2, 50, 0
5, 133685, Note_on_c, 2, 47, 100
5, 133745, Note_on_c, 2, 47, 0
5, 133745, Note_on_c, 2, 52, 100
5, 133805, Note_on_c, 2, 52, 0
5, 133805, Note_on_c, 2, 47, 100
5, 133865, Note_on_c, 2, 47, 0
5, 133865, Note_on_c, 2, 50, 100
5, 133925, Note_on_c, 2, 50, 0
5, 133925, Note_on_c, 2, 45, 100
5, 133985, Note_on_c, 2, 45, 0
5, 133985, Note_on_c, 2, 47, 100
5, 134045, Note_on_c, 2, 47, 0
5, 134045, Note_on_c, 2, 43, 100
5, 134105, Note_on_c, 2, 43, 0
5, 134105, Note_on_c, 2, 45, 100
5, 134165, Note_on_c, 2, 45, 0
5, 134165, Note_on_c, 2, 40, 100
5, 134285, Note_on_c, 2, 40, 0
5, 134286, Note_on_c, 2, 47, 100
5, 134346, Note_on_c, 2, 47, 0
5, 134346, Note_on_c, 2, 50, 100
5, 134406, Note_on_c, 2, 50, 0
5, 134406, Note_on_c, 2, 47, 100
5, 134466, Note_on_c, 2, 47, 0
5, 134466, Note_on_c, 2, 52, 100
5, 134526, Note_on_c, 2, 52, 0
5, 134526, Note_on_c, 2, 47, 100
5, 134586, Note_on_c, 2, 47, 0
5, 134586, Note_on_c, 2, 50, 100
5, 134646, Note_on_c, 2, 50, 0
5, 134646, Note_on_c, 2, 45, 100
5, 134706, Note_on_c, 2, 45, 0
5, 134706, Note_on_c, 2, 47, 100
5, 134766, Note_on_c, 2, 47, 0
5, 134766, Note_on_c, 2, 43, 100
5, 134826, Note_on_c, 2, 43, 0
5, 134826, Note_on_c, 2, 45, 100
5, 134886, Note_on_c, 2, 45, 0
5, 134886, Note_on_c, 2, 40, 100
5, 135000, Note_on_c, 2, 47, 100
5, 135006, Note_on_c, 2, 40, 0
5, 135060, Note_on_c, 2, 47, 0
5, 135060, Note_on_c, 2, 50, 100
5, 135120, Note_on_c, 2, 50, 0
5, 135120, Note_on_c, 2, 47, 100
5, 135180, Note_on_c, 2, 47, 0
5, 135180, Note_on_c, 2, 52, 100
5, 135240, Note_on_c, 2, 52, 0
5, 135240, Note_on_c, 2, 47, 100
5, 135300, Note_on_c, 2, 47, 0
5, 135300, Note_on_c, 2, 50, 100
5, 135360, Note_on_c, 2, 50, 0
5, 135360, Note_on_c, 2, 45, 100
5, 135420, Note_on_c, 2, 45, 0
5, 135420, Note_on_c, 2, 47, 100
5, 135480, Note_on_c, 2, 47, 0
5, 135480, Note_on_c, 2, 43, 100
5, 135540, Note_on_c, 2, 43, 0
5, 135540, Note_on_c, 2, 45, 100
5, 135600, Note_on_c, 2, 45, 0
5, 135600, Note_on_c, 2, 40, 100
5, 135720, Note_on_c, 2, 40, 0
5, 135721, Note_on_c, 2, 47, 100
5, 135781, Note_on_c, 2, 47, 0
5, 135781, Note_on_c, 2, 50, 100
5, 135841, Note_on_c, 2, 50, 0
5, 135841, Note_on_c, 2, 47, 100
5, 135901, Note_on_c, 2, 47, 0
5, 135901, Note_on_c, 2, 52, 100
5, 135961, Note_on_c, 2, 52, 0
5, 135961, Note_on_c, 2, 47, 100
5, 136021, Note_on_c, 2, 47, 0
5, 136021, Note_on_c, 2, 50, 100
5, 136081, Note_on_c, 2, 50, 0
5, 136081, Note_on_c, 2, 45, 100
5, 136141, Note_on_c, 2, 45, 0
5, 136141, Note_on_c, 2, 47, 100
5, 136201, Note_on_c, 2, 47, 0
5, 136201, Note_on_c, 2, 43, 100
5, 136261, Note_on_c, 2, 43, 0
5, 136261, Note_on_c, 2, 45, 100
5, 136321, Note_on_c, 2, 45, 0
5, 136321, Note_on_c, 2, 40, 100
5, 136441, Note_on_c, 2, 40, 0
5, 136442, Note_on_c, 2, 47, 100
5, 136502, Note_on_c, 2, 47, 0
5, 136502, Note_on_c, 2, 50, 100
5, 136562, Note_on_c, 2, 50, 0
5, 136562, Note_on_c, 2, 47, 100
5, 136622, Note_on_c, 2, 47, 0
5, 136622, Note_on_c, 2, 52, 100
5, 136682, Note_on_c, 2, 52, 0
5, 136682, Note_on_c, 2, 47, 100
5, 136742, Note_on_c, 2, 47, 0
5, 136742, Note_on_c, 2, 50, 100
5, 136802, Note_on_c, 2, 50, 0
5, 136802, Note_on_c, 2, 45, 100
5, 136862, Note_on_c, 2, 45, 0
5, 136862, Note_on_c, 2, 47, 100
5, 136922, Note_on_c, 2, 47, 0
5, 136922, Note_on_c, 2, 43, 100
5, 136982, Note_on_c, 2, 43, 0
5, 136982, Note_on_c, 2, 45, 100
5, 137042, Note_on_c, 2, 45, 0
5, 137042, Note_on_c, 2, 40, 100
5, 137162, Note_on_c, 2, 40, 0
5, 137163, Note_on_c, 2, 47, 100
5, 137223, Note_on_c, 2, 47, 0
5, 137223, Note_on_c, 2, 50, 100
5, 137283, Note_on_c, 2, 50, 0
5, 137283, Note_on_c, 2, 47, 100
5, 137343, Note_on_c, 2, 47, 0
5, 137343, Note_on_c, 2, 52, 100
5, 137403, Note_on_c, 2, 52, 0
5, 137403, Note_on_c, 2, 47, 100
5, 137463, Note_on_c, 2, 47, 0
5, 137463, Note_on_c, 2, 50, 100
5, 137523, Note_on_c, 2, 50, 0
5, 137523, Note_on_c, 2, 45, 100
5, 137583, Note_on_c, 2, 45, 0
5, 137583, Note_on_c, 2, 47, 100
5, 137643, Note_on_c, 2, 47, 0
5, 137643, Note_on_c, 2, 43, 100
5, 137703, Note_on_c, 2, 43, 0
5, 137703, Note_on_c, 2, 45, 100
5, 137763, Note_on_c, 2, 45, 0
5, 137763, Note_on_c, 2, 40, 100
5, 137883, Note_on_c, 2, 40, 0
5, 137884, Note_on_c, 2, 47, 100
5, 137944, Note_on_c, 2, 47, 0
5, 137944, Note_on_c, 2, 50, 100
5, 138004, Note_on_c, 2, 50, 0
5, 138004, Note_on_c, 2, 47, 100
5, 138064, Note_on_c, 2, 47, 0
5, 138064, Note_on_c, 2, 52, 100
5, 138124, Note_on_c, 2, 52, 0
5, 138124, Note_on_c, 2, 47, 100
5, 138184, Note_on_c, 2, 47, 0
5, 138184, Note_on_c, 2, 50, 100
5, 138244, Note_on_c, 2, 50, 0
5, 138244, Note_on_c, 2, 45, 100
5, 138304, Note_on_c, 2, 45, 0
5, 138304, Note_on_c, 2, 47, 100
5, 138364, Note_on_c, 2, 47, 0
5, 138364, Note_on_c, 2, 43, 100
5, 138424, Note_on_c, 2, 43, 0
5, 138424, Note_on_c, 2, 45, 100
5, 138484, Note_on_c, 2, 45, 0
5, 138484, Note_on_c, 2, 40, 100
5, 138604, Note_on_c, 2, 40, 0
5, 138605, Note_on_c, 2, 47, 100
5, 138665, Note_on_c, 2, 47, 0
5, 138665, Note_on_c, 2, 50, 100
5, 138725, Note_on_c, 2, 50, 0
5, 138725, Note_on_c, 2, 47, 100
5, 138785, Note_on_c, 2, 47, 0
5, 138785, Note_on_c, 2, 52, 100
5, 138845, Note_on_c, 2, 52, 0
5, 138845, Note_on_c, 2, 47, 100
5, 138905, Note_on_c, 2, 47, 0
5, 138905, Note_on_c, 2, 50, 100
5, 138965, Note_on_c, 2, 50, 0
5, 138965, Note_on_c, 2, 45, 100
5, 139025, Note_on_c, 2, 45, 0
5, 139025, Note_on_c, 2, 47, 100
5, 139085, Note_on_c, 2, 47, 0
5, 139085, Note_on_c, 2, 43, 100
5, 139145, Note_on_c, 2, 43, 0
5, 139145, Note_on_c, 2, 45, 100
5, 139205, Note_on_c, 2, 45, 0
5, 139205, Note_on_c, 2, 40, 100
5, 139325, Note_on_c, 2, 40, 0
5, 139326, Note_on_c, 2, 47, 100
5, 139386, Note_on_c, 2, 47, 0
5, 139386, Note_on_c, 2, 50, 100
5, 139446, Note_on_c, 2, 50, 0
5, 139446, Note_on_c, 2, 47, 100
5, 139506, Note_on_c, 2, 47, 0
5, 139506, Note_on_c, 2, 52, 100
5, 139566, Note_on_c, 2, 52, 0
5, 139566, Note_on_c, 2, 47, 100
5, 139626, Note_on_c, 2, 47, 0
5, 139626, Note_on_c, 2, 50, 100
5, 139686, Note_on_c, 2, 50, 0
5, 139686, Note_on_c, 2, 45, 100
5, 139746, Note_on_c, 2, 45, 0
5, 139746, Note_on_c, 2, 47, 100
5, 139806, Note_on_c, 2, 47, 0
5, 139806, Note_on_c, 2, 43, 100
5, 139866, Note_on_c, 2, 43, 0
5, 139866, Note_on_c, 2, 45, 100
5, 139926, Note_on_c, 2, 45, 0
5, 139926, Note_on_c, 2, 40, 100
5, 140046, Note_on_c, 2, 40, 0
5, 140047, Note_on_c, 2, 47, 100
5, 140107, Note_on_c, 2, 47, 0
5, 140107, Note_on_c, 2, 50, 100
5, 140167, Note_on_c, 2, 50, 0
5, 140167, Note_on_c, 2, 47, 100
5, 140227, Note_on_c, 2, 47, 0
5, 140227, Note_on_c, 2, 52, 100
5, 140287, Note_on_c, 2, 52, 0
5, 140287, Note_on_c, 2, 47, 100
5, 140347, Note_on_c, 2, 47, 0
5, 140347, Note_on_c, 2, 50, 100
5, 140407, Note_on_c, 2, 50, 0
5, 140407, Note_on_c, 2, 45, 100
5, 140467, Note_on_c, 2, 45, 0
5, 140467, Note_on_c, 2, 47, 100
5, 140527, Note_on_c, 2, 47, 0
5, 140527, Note_on_c, 2, 43, 100
5, 140587, Note_on_c, 2, 43, 0
5, 140587, Note_on_c, 2, 45, 100
5, 140647, Note_on_c, 2, 45, 0
5, 140647, Note_on_c, 2, 40, 100
5, 140760, Note_on_c, 2, 47, 100
5, 140767, Note_on_c, 2, 40, 0
5, 140820, Note_on_c, 2, 47, 0
5, 140820, Note_on_c, 2, 50, 100
5, 140880, Note_on_c, 2, 50, 0
5, 140880, Note_on_c, 2, 47, 100
5, 140940, Note_on_c, 2, 47, 0
5, 140940, Note_on_c, 2, 52, 100
5, 141000, Note_on_c, 2, 52, 0
5, 141000, Note_on_c, 2, 47, 100
5, 141060, Note_on_c, 2, 47, 0
5, 141060, Note_on_c, 2, 50, 100
5, 141120, Note_on_c, 2, 50, 0
5, 141120, Note_on_c, 2, 45, 100
5, 141180, Note_on_c, 2, 45, 0
5, 141180, Note_on_c, 2, 47, 100
5, 141240, Note_on_c, 2, 47, 0
5, 141240, Note_on_c, 2, 43, 100
5, 141300, Note_on_c, 2, 43, 0
5, 141300, Note_on_c, 2, 45, 100
5, 141360, Note_on_c, 2, 45, 0
5, 141360, Note_on_c, 2, 38, 100
5, 141480, Note_on_c, 2, 38, 0
5, 141480, End_track
6, 0, Start_track
6, 0, MIDI_port, 0
6, 0, Title_t, "Guitar cln"
6, 0, Program_c, 8, 27
6, 17460, Note_on_c, 8, 55, 100
6, 17640, Note_on_c, 8, 55, 0
6, 17640, Control_c, 8, 64, 127
6, 17790, Note_on_c, 8, 59, 100
6, 17820, Note_on_c, 8, 59, 0
6, 17820, Note_on_c, 8, 64, 100
6, 17940, Note_on_c, 8, 64, 0
6, 18090, Control_c, 8, 64, 0
6, 18090, End_track
7, 0, Start_track
7, 0, MIDI_port, 0
7, 0, Title_t, "Guitar Acou"
7, 0, Program_c, 3, 25
7, 7920, Note_on_c, 3, 66, 80
7, 8010, Note_on_c, 3, 66, 0
7, 8010, Note_on_c, 3, 67, 80
7, 8100, Note_on_c, 3, 67, 0
7, 8100, Note_on_c, 3, 69, 80
7, 8220, Note_on_c, 3, 69, 0
7, 8220, Note_on_c, 3, 74, 80
7, 8400, Note_on_c, 3, 74, 0
7, 8400, Note_on_c, 3, 72, 80
7, 8490, Note_on_c, 3, 72, 0
7, 8490, Note_on_c, 3, 71, 80
7, 8580, Note_on_c, 3, 71, 0
7, 8580, Note_on_c, 3, 72, 80
7, 8640, Note_on_c, 3, 72, 0
7, 8640, Note_on_c, 3, 69, 80
7, 8760, Note_on_c, 3, 69, 0
7, 8760, Note_on_c, 3, 67, 80
7, 8880, Note_on_c, 3, 67, 0
7, 8880, Note_on_c, 3, 66, 80
7, 8970, Note_on_c, 3, 66, 0
7, 8970, Note_on_c, 3, 67, 80
7, 9060, Note_on_c, 3, 67, 0
7, 9060, Note_on_c, 3, 69, 80
7, 9120, Note_on_c, 3, 69, 0
7, 9120, Note_on_c, 3, 62, 80
7, 9210, Note_on_c, 3, 62, 0
7, 9210, Note_on_c, 3, 64, 80
7, 9300, Note_on_c, 3, 64, 0
7, 9300, Note_on_c, 3, 66, 80
7, 9360, Note_on_c, 3, 66, 0
7, 9360, Note_on_c, 3, 64, 80
7, 9450, Note_on_c, 3, 64, 0
7, 9450, Note_on_c, 3, 62, 80
7, 9810, Note_on_c, 3, 62, 0
7, 9840, Note_on_c, 3, 66, 80
7, 9930, Note_on_c, 3, 66, 0
7, 9930, Note_on_c, 3, 67, 80
7, 10020, Note_on_c, 3, 67, 0
7, 10020, Note_on_c, 3, 69, 80
7, 10140, Note_on_c, 3, 69, 0
7, 10140, Note_on_c, 3, 74, 80
7, 10320, Note_on_c, 3, 74, 0
7, 10320, Note_on_c, 3, 76, 80
7, 10410, Note_on_c, 3, 76, 0
7, 10410, Note_on_c, 3, 74, 80
7, 10500, Note_on_c, 3, 74, 0
7, 10500, Note_on_c, 3, 76, 80
7, 10560, Note_on_c, 3, 76, 0
7, 10560, Note_on_c, 3, 72, 80
7, 10680, Note_on_c, 3, 72, 0
7, 10680, Note_on_c, 3, 71, 80
7, 10800, Note_on_c, 3, 71, 0
7, 10800, Note_on_c, 3, 66, 80
7, 10890, Note_on_c, 3, 66, 0
7, 10890, Note_on_c, 3, 67, 80
7, 10980, Note_on_c, 3, 67, 0
7, 10980, Note_on_c, 3, 69, 80
7, 11040, Note_on_c, 3, 69, 0
7, 11040, Note_on_c, 3, 62, 80
7, 11130, Note_on_c, 3, 62, 0
7, 11130, Note_on_c, 3, 64, 80
7, 11220, Note_on_c, 3, 64, 0
7, 11220, Note_on_c, 3, 66, 80
7, 11280, Note_on_c, 3, 66, 0
7, 11280, Note_on_c, 3, 67, 80
7, 11370, Note_on_c, 3, 67, 0
7, 11370, Note_on_c, 3, 69, 80
7, 11460, Note_on_c, 3, 69, 0
7, 11460, Note_on_c, 3, 66, 80
7, 11520, Note_on_c, 3, 66, 0
7, 11520, Note_on_c, 3, 62, 80
7, 12240, Note_on_c, 3, 62, 0
7, 12240, Note_on_c, 3, 43, 100
7, 12300, Note_on_c, 3, 55, 105
7, 12330, Note_on_c, 3, 62, 105
7, 12420, Note_on_c, 3, 55, 105
7, 12540, Note_on_c, 3, 43, 0
7, 12540, Note_on_c, 3, 45, 100
7, 12570, Note_on_c, 3, 55, 0
7, 12600, Note_on_c, 3, 62, 0
7, 12600, Note_on_c, 3, 55, 105
7, 12660, Note_on_c, 3, 55, 0
7, 12660, Note_on_c, 3, 55, 0
7, 12660, Note_on_c, 3, 45, 0
7, 12660, Note_on_c, 3, 47, 100
7, 12720, Note_on_c, 3, 55, 105
7, 12750, Note_on_c, 3, 62, 105
7, 12840, Note_on_c, 3, 55, 105
7, 12900, Note_on_c, 3, 47, 0
7, 12960, Note_on_c, 3, 52, 105
7, 12990, Note_on_c, 3, 55, 0
7, 13020, Note_on_c, 3, 62, 0
7, 13020, Note_on_c, 3, 55, 105
7, 13080, Note_on_c, 3, 55, 0
7, 13080, Note_on_c, 3, 55, 0
7, 13080, Note_on_c, 3, 52, 0
7, 13080, Note_on_c, 3, 48, 100
7, 13140, Note_on_c, 3, 55, 105
7, 13170, Note_on_c, 3, 62, 105
7, 13260, Note_on_c, 3, 55, 105
7, 13320, Note_on_c, 3, 48, 0
7, 13380, Note_on_c, 3, 47, 100
7, 13410, Note_on_c, 3, 55, 0
7, 13440, Note_on_c, 3, 62, 0
7, 13440, Note_on_c, 3, 55, 105
7, 13500, Note_on_c, 3, 55, 0
7, 13500, Note_on_c, 3, 55, 0
7, 13500, Note_on_c, 3, 47, 0
7, 13500, Note_on_c, 3, 45, 100
7, 13560, Note_on_c, 3, 55, 105
7, 13590, Note_on_c, 3, 62, 105
7, 13680, Note_on_c, 3, 55, 105
7, 13740, Note_on_c, 3, 55, 0
7, 13740, Note_on_c, 3, 45, 0
7, 13740, Note_on_c, 3, 55, 0
7, 13740, Note_on_c, 3, 62, 0
7, 13740, Note_on_c, 3, 41, 100
7, 13800, Note_on_c, 3, 55, 105
7, 13830, Note_on_c, 3, 62, 105
7, 13920, Note_on_c, 3, 55, 105
7, 13980, Note_on_c, 3, 55, 0
7, 13980, Note_on_c, 3, 41, 0
7, 13980, Note_on_c, 3, 55, 0
7, 13980, Note_on_c, 3, 62, 0
7, 13980, Note_on_c, 3, 43, 100
7, 14040, Note_on_c, 3, 55, 105
7, 14070, Note_on_c, 3, 62, 105
7, 14160, Note_on_c, 3, 55, 105
7, 14280, Note_on_c, 3, 43, 0
7, 14280, Note_on_c, 3, 45, 100
7, 14310, Note_on_c, 3, 55, 0
7, 14340, Note_on_c, 3, 62, 0
7, 14340, Note_on_c, 3, 55, 105
7, 14400, Note_on_c, 3, 55, 0
7, 14400, Note_on_c, 3, 55, 0
7, 14400, Note_on_c, 3, 45, 0
7, 14400, Note_on_c, 3, 47, 100
7, 14460, Note_on_c, 3, 55, 105
7, 14490, Note_on_c, 3, 62, 105
7, 14580, Note_on_c, 3, 55, 105
7, 14640, Note_on_c, 3, 47, 0
7, 14700, Note_on_c, 3, 52, 100
7, 14730, Note_on_c, 3, 55, 0
7, 14760, Note_on_c, 3, 62, 0
7, 14760, Note_on_c, 3, 55, 105
7, 14820, Note_on_c, 3, 55, 0
7, 14820, Note_on_c, 3, 55, 0
7, 14820, Note_on_c, 3, 52, 0
7, 14820, Note_on_c, 3, 53, 100
7, 14880, Note_on_c, 3, 55, 105
7, 14910, Note_on_c, 3, 62, 105
7, 15000, Note_on_c, 3, 55, 105
7, 15060, Note_on_c, 3, 53, 0
7, 15120, Note_on_c, 3, 52, 100
7, 15150, Note_on_c, 3, 55, 0
7, 15180, Note_on_c, 3, 62, 0
7, 15180, Note_on_c, 3, 55, 105
7, 15240, Note_on_c, 3, 55, 0
7, 15240, Note_on_c, 3, 55, 0
7, 15240, Note_on_c, 3, 52, 0
7, 15240, Note_on_c, 3, 50, 100
7, 15300, Note_on_c, 3, 57, 105
7, 15330, Note_on_c, 3, 62, 105
7, 15420, Note_on_c, 3, 66, 105
7, 15480, Note_on_c, 3, 66, 0
7, 15480, Note_on_c, 3, 67, 105
7, 15600, Note_on_c, 3, 67, 0
7, 15600, Note_on_c, 3, 69, 105
7, 15690, Control_c, 3, 64, 127
7, 15690, Note_on_c, 3, 40, 70
7, 15700, Note_on_c, 3, 47, 70
7, 15705, Note_on_c, 3, 40, 0
7, 15710, Note_on_c, 3, 52, 70
7, 15715, Note_on_c, 3, 47, 0
7, 15720, Note_on_c, 3, 69, 0
7, 15720, Note_on_c, 3, 62, 0
7, 15720, Note_on_c, 3, 50, 0
7, 15720, Note_on_c, 3, 57, 0
7, 15720, Note_on_c, 3, 56, 70
7, 15725, Note_on_c, 3, 52, 0
7, 15730, Note_on_c, 3, 59, 70
7, 15735, Note_on_c, 3, 56, 0
7, 15740, Note_on_c, 3, 64, 70
7, 15745, Note_on_c, 3, 59, 0
7, 15755, Note_on_c, 3, 64, 0
7, 16155, Control_c, 3, 64, 0
7, 16170, Control_c, 3, 64, 127
7, 16170, Note_on_c, 3, 42, 70
7, 16180, Note_on_c, 3, 47, 70
7, 16185, Note_on_c, 3, 42, 0
7, 16190, Note_on_c, 3, 54, 70
7, 16195, Note_on_c, 3, 47, 0
7, 16200, Note_on_c, 3, 62, 70
7, 16200, Note_on_c, 3, 59, 70
7, 16205, Note_on_c, 3, 54, 0
7, 16215, Note_on_c, 3, 59, 0
7, 16215, Note_on_c, 3, 62, 0
7, 16220, Note_on_c, 3, 66, 70
7, 16235, Note_on_c, 3, 66, 0
7, 16635, Control_c, 3, 64, 0
7, 16650, Control_c, 3, 64, 127
7, 16650, Note_on_c, 3, 40, 70
7, 16660, Note_on_c, 3, 47, 70
7, 16665, Note_on_c, 3, 40, 0
7, 16670, Note_on_c, 3, 52, 70
7, 16675, Note_on_c, 3, 47, 0
7, 16680, Note_on_c, 3, 56, 70
7, 16685, Note_on_c, 3, 52, 0
7, 16690, Note_on_c, 3, 59, 70
7, 16695, Note_on_c, 3, 56, 0
7, 16700, Note_on_c, 3, 64, 70
7, 16705, Note_on_c, 3, 59, 0
7, 16715, Note_on_c, 3, 64, 0
7, 16875, Control_c, 3, 64, 0
7, 16890, Control_c, 3, 64, 127
7, 16890, Note_on_c, 3, 45, 70
7, 16900, Note_on_c, 3, 52, 70
7, 16905, Note_on_c, 3, 45, 0
7, 16910, Note_on_c, 3, 57, 70
7, 16915, Note_on_c, 3, 52, 0
7, 16920, Note_on_c, 3, 60, 70
7, 16925, Note_on_c, 3, 57, 0
7, 16930, Note_on_c, 3, 64, 70
7, 16935, Note_on_c, 3, 60, 0
7, 16940, Note_on_c, 3, 69, 70
7, 16945, Note_on_c, 3, 64, 0
7, 16955, Note_on_c, 3, 69, 0
7, 17115, Control_c, 3, 64, 0
7, 17130, Control_c, 3, 64, 127
7, 17130, Note_on_c, 3, 45, 70
7, 17140, Note_on_c, 3, 50, 70
7, 17145, Note_on_c, 3, 45, 0
7, 17150, Note_on_c, 3, 57, 70
7, 17155, Note_on_c, 3, 50, 0
7, 17160, Note_on_c, 3, 62, 70
7, 17165, Note_on_c, 3, 57, 0
7, 17170, Note_on_c, 3, 64, 70
7, 17175, Note_on_c, 3, 62, 0
7, 17180, Note_on_c, 3, 69, 70
7, 17185, Note_on_c, 3, 64, 0
7, 17195, Note_on_c, 3, 69, 0
7, 17595, Control_c, 3, 64, 0
7, 17610, Control_c, 3, 64, 127
7, 17610, Note_on_c, 3, 40, 70
7, 17620, Note_on_c, 3, 47, 70
7, 17625, Note_on_c, 3, 40, 0
7, 17630, Note_on_c, 3, 52, 70
7, 17635, Note_on_c, 3, 47, 0
7, 17640, Note_on_c, 3, 56, 70
7, 17645, Note_on_c, 3, 52, 0
7, 17650, Note_on_c, 3, 59, 70
7, 17655, Note_on_c, 3, 56, 0
7, 17660, Note_on_c, 3, 64, 70
7, 17665, Note_on_c, 3, 59, 0
7, 17675, Note_on_c, 3, 64, 0
7, 18075, Control_c, 3, 64, 0
7, 18090, Control_c, 3, 64, 127
7, 18090, Note_on_c, 3, 42, 70
7, 18100, Note_on_c, 3, 47, 70
7, 18105, Note_on_c, 3, 42, 0
7, 18110, Note_on_c, 3, 54, 70
7, 18115, Note_on_c, 3, 47, 0
7, 18120, Note_on_c, 3, 62, 70
7, 18120, Note_on_c, 3, 59, 70
7, 18125, Note_on_c, 3, 54, 0
7, 18135, Note_on_c, 3, 59, 0
7, 18135, Note_on_c, 3, 62, 0
7, 18140, Note_on_c, 3, 66, 70
7, 18155, Note_on_c, 3, 66, 0
7, 18555, Control_c, 3, 64, 0
7, 18570, Control_c, 3, 64, 127
7, 18570, Note_on_c, 3, 40, 70
7, 18580, Note_on_c, 3, 47, 70
7, 18585, Note_on_c, 3, 40, 0
7, 18590, Note_on_c, 3, 52, 70
7, 18595, Note_on_c, 3, 47, 0
7, 18600, Note_on_c, 3, 56, 70
7, 18605, Note_on_c, 3, 52, 0
7, 18610, Note_on_c, 3, 59, 70
7, 18615, Note_on_c, 3, 56, 0
7, 18620, Note_on_c, 3, 64, 70
7, 18625, Note_on_c, 3, 59, 0
7, 18635, Note_on_c, 3, 64, 0
7, 18795, Control_c, 3, 64, 0
7, 18810, Control_c, 3, 64, 127
7, 18810, Note_on_c, 3, 45, 70
7, 18820, Note_on_c, 3, 52, 70
7, 18825, Note_on_c, 3, 45, 0
7, 18830, Note_on_c, 3, 57, 70
7, 18835, Note_on_c, 3, 52, 0
7, 18840, Note_on_c, 3, 60, 70
7, 18845, Note_on_c, 3, 57, 0
7, 18850, Note_on_c, 3, 64, 70
7, 18855, Note_on_c, 3, 60, 0
7, 18860, Note_on_c, 3, 69, 70
7, 18865, Note_on_c, 3, 64, 0
7, 18875, Note_on_c, 3, 69, 0
7, 19035, Control_c, 3, 64, 0
7, 19050, Control_c, 3, 64, 127
7, 19050, Note_on_c, 3, 45, 70
7, 19060, Note_on_c, 3, 50, 70
7, 19065, Note_on_c, 3, 45, 0
7, 19070, Note_on_c, 3, 57, 70
7, 19075, Note_on_c, 3, 50, 0
7, 19080, Note_on_c, 3, 62, 70
7, 19085, Note_on_c, 3, 57, 0
7, 19090, Note_on_c, 3, 64, 70
7, 19095, Note_on_c, 3, 62, 0
7, 19100, Note_on_c, 3, 69, 70
7, 19105, Note_on_c, 3, 64, 0
7, 19115, Note_on_c, 3, 69, 0
7, 19515, Control_c, 3, 64, 0
7, 19515, End_track
8, 0, Start_track
8, 0, MIDI_port, 0
8, 0, Title_t, "Guitar Overdrive"
8, 0, Program_c, 12, 29
8, 79320, Note_on_c, 12, 56, 83
8, 79340, Note_on_c, 12, 56, 0
8, 79340, Note_on_c, 12, 57, 83
8, 79360, Note_on_c, 12, 57, 0
8, 79360, Note_on_c, 12, 56, 83
8, 79380, Note_on_c, 12, 56, 0
8, 79380, Note_on_c, 12, 57, 83
8, 79400, Note_on_c, 12, 57, 0
8, 79400, Note_on_c, 12, 56, 83
8, 79420, Note_on_c, 12, 56, 0
8, 79420, Note_on_c, 12, 57, 83
8, 79440, Note_on_c, 12, 57, 0
8, 79440, Note_on_c, 12, 53, 83
8, 79500, Note_on_c, 12, 53, 0
8, 79500, Note_on_c, 12, 52, 83
8, 79560, Note_on_c, 12, 52, 0
8, 80460, Note_on_c, 12, 60, 83
8, 80480, Note_on_c, 12, 60, 0
8, 80480, Note_on_c, 12, 62, 83
8, 80500, Note_on_c, 12, 62, 0
8, 80500, Note_on_c, 12, 60, 83
8, 80520, Note_on_c, 12, 60, 0
8, 80520, Note_on_c, 12, 62, 83
8, 80540, Note_on_c, 12, 62, 0
8, 80540, Note_on_c, 12, 60, 83
8, 80560, Note_on_c, 12, 60, 0
8, 80560, Note_on_c, 12, 62, 83
8, 80580, Note_on_c, 12, 62, 0
8, 86640, Note_on_c, 12, 56, 83
8, 86660, Note_on_c, 12, 56, 0
8, 86660, Note_on_c, 12, 57, 83
8, 86680, Note_on_c, 12, 57, 0
8, 86680, Note_on_c, 12, 56, 83
8, 86700, Note_on_c, 12, 56, 0
8, 86700, Note_on_c, 12, 57, 83
8, 86720, Note_on_c, 12, 57, 0
8, 86720, Note_on_c, 12, 56, 83
8, 86740, Note_on_c, 12, 56, 0
8, 86740, Note_on_c, 12, 57, 83
8, 86760, Note_on_c, 12, 57, 0
8, 99180, Pitch_bend_c, 12, 8320
8, 99180, Note_on_c, 12, 66, 90
8, 99189, Pitch_bend_c, 12, 8448
8, 99202, Pitch_bend_c, 12, 8320
8, 99204, Pitch_bend_c, 12, 8192
8, 99215, Pitch_bend_c, 12, 8320
8, 99219, Pitch_bend_c, 12, 8448
8, 99221, Pitch_bend_c, 12, 8576
8, 99232, Pitch_bend_c, 12, 8448
8, 99235, Pitch_bend_c, 12, 8064
8, 99237, Pitch_bend_c, 12, 7936
8, 99241, Pitch_bend_c, 12, 7808
8, 99254, Pitch_bend_c, 12, 7936
8, 99256, Pitch_bend_c, 12, 8064
8, 99259, Pitch_bend_c, 12, 8320
8, 99261, Pitch_bend_c, 12, 8448
8, 99276, Pitch_bend_c, 12, 8320
8, 99280, Pitch_bend_c, 12, 8192
8, 99283, Pitch_bend_c, 12, 8064
8, 99289, Pitch_bend_c, 12, 7936
8, 99300, Pitch_bend_c, 12, 8192
8, 99302, Pitch_bend_c, 12, 8320
8, 99304, Pitch_bend_c, 12, 8448
8, 99307, Pitch_bend_c, 12, 8576
8, 99322, Pitch_bend_c, 12, 8448
8, 99324, Pitch_bend_c, 12, 8320
8, 99326, Pitch_bend_c, 12, 8064
8, 99333, Pitch_bend_c, 12, 8448
8, 99339, Pitch_bend_c, 12, 8064
8, 99341, Pitch_bend_c, 12, 8192
8, 99357, Pitch_bend_c, 12, 8320
8, 99359, Pitch_bend_c, 12, 8448
8, 99360, Note_on_c, 12, 66, 0
8, 99360, Note_on_c, 12, 67, 90
8, 99372, Pitch_bend_c, 12, 8320
8, 99376, Pitch_bend_c, 12, 8192
8, 99379, Pitch_bend_c, 12, 8064
8, 99383, Pitch_bend_c, 12, 7936
8, 99394, Pitch_bend_c, 12, 8064
8, 99398, Pitch_bend_c, 12, 8320
8, 99403, Pitch_bend_c, 12, 8448
8, 99411, Pitch_bend_c, 12, 8576
8, 99420, Pitch_bend_c, 12, 8320
8, 99429, Pitch_bend_c, 12, 8448
8, 99442, Pitch_bend_c, 12, 8320
8, 99444, Pitch_bend_c, 12, 8192
8, 99455, Pitch_bend_c, 12, 8320
8, 99459, Pitch_bend_c, 12, 8448
8, 99461, Pitch_bend_c, 12, 8576
8, 99472, Pitch_bend_c, 12, 8448
8, 99475, Pitch_bend_c, 12, 8064
8, 99477, Pitch_bend_c, 12, 7936
8, 99481, Pitch_bend_c, 12, 7808
8, 99494, Pitch_bend_c, 12, 7936
8, 99496, Pitch_bend_c, 12, 8064
8, 99499, Pitch_bend_c, 12, 8320
8, 99501, Pitch_bend_c, 12, 8448
8, 99516, Pitch_bend_c, 12, 8320
8, 99520, Pitch_bend_c, 12, 8192
8, 99523, Pitch_bend_c, 12, 8064
8, 99529, Pitch_bend_c, 12, 7936
8, 99540, Note_on_c, 12, 67, 0
8, 99540, Note_on_c, 12, 69, 90
8, 99540, Pitch_bend_c, 12, 8192
8, 99542, Pitch_bend_c, 12, 8320
8, 99544, Pitch_bend_c, 12, 8448
8, 99547, Pitch_bend_c, 12, 8576
8, 99562, Pitch_bend_c, 12, 8448
8, 99564, Pitch_bend_c, 12, 8320
8, 99566, Pitch_bend_c, 12, 8064
8, 99573, Pitch_bend_c, 12, 8448
8, 99579, Pitch_bend_c, 12, 8064
8, 99581, Pitch_bend_c, 12, 8192
8, 99597, Pitch_bend_c, 12, 8320
8, 99599, Pitch_bend_c, 12, 8448
8, 99612, Pitch_bend_c, 12, 8320
8, 99616, Pitch_bend_c, 12, 8192
8, 99619, Pitch_bend_c, 12, 8064
8, 99623, Pitch_bend_c, 12, 7936
8, 99634, Pitch_bend_c, 12, 8064
8, 99638, Pitch_bend_c, 12, 8320
8, 99643, Pitch_bend_c, 12, 8448
8, 99651, Pitch_bend_c, 12, 8576
8, 99667, Pitch_bend_c, 12, 8448
8, 99669, Pitch_bend_c, 12, 8320
8, 99671, Pitch_bend_c, 12, 8192
8, 99673, Pitch_bend_c, 12, 8064
8, 99686, Pitch_bend_c, 12, 8192
8, 99691, Pitch_bend_c, 12, 8320
8, 99693, Pitch_bend_c, 12, 8448
8, 99699, Pitch_bend_c, 12, 8576
8, 99710, Pitch_bend_c, 12, 8448
8, 99712, Pitch_bend_c, 12, 8320
8, 99715, Pitch_bend_c, 12, 8192
8, 99717, Pitch_bend_c, 12, 8064
8, 99719, Pitch_bend_c, 12, 7936
8, 99725, Pitch_bend_c, 12, 7808
8, 99734, Pitch_bend_c, 12, 7936
8, 99736, Pitch_bend_c, 12, 8064
8, 99741, Pitch_bend_c, 12, 8320
8, 99760, Pitch_bend_c, 12, 8192
8, 99780, Note_on_c, 12, 69, 0
8, 99780, Note_on_c, 12, 74, 90
8, 99781, Pitch_bend_c, 12, 0
8, 99783, Pitch_bend_c, 12, 256
8, 99785, Pitch_bend_c, 12, 512
8, 99787, Pitch_bend_c, 12, 896
8, 99790, Pitch_bend_c, 12, 1152
8, 99792, Pitch_bend_c, 12, 1408
8, 99794, Pitch_bend_c, 12, 1792
8, 99796, Pitch_bend_c, 12, 2048
8, 99798, Pitch_bend_c, 12, 2304
8, 99800, Pitch_bend_c, 12, 2688
8, 99803, Pitch_bend_c, 12, 2944
8, 99805, Pitch_bend_c, 12, 3328
8, 99807, Pitch_bend_c, 12, 3584
8, 99809, Pitch_bend_c, 12, 3840
8, 99811, Pitch_bend_c, 12, 4224
8, 99814, Pitch_bend_c, 12, 4480
8, 99816, Pitch_bend_c, 12, 4736
8, 99818, Pitch_bend_c, 12, 5120
8, 99820, Pitch_bend_c, 12, 5376
8, 99822, Pitch_bend_c, 12, 5760
8, 99824, Pitch_bend_c, 12, 6016
8, 99827, Pitch_bend_c, 12, 6272
8, 99829, Pitch_bend_c, 12, 6656
8, 99831, Pitch_bend_c, 12, 6912
8, 99833, Pitch_bend_c, 12, 7168
8, 99835, Pitch_bend_c, 12, 7552
8, 99838, Pitch_bend_c, 12, 7808
8, 99840, Pitch_bend_c, 12, 8192
8, 99894, Pitch_bend_c, 12, 8320
8, 99922, Pitch_bend_c, 12, 8448
8, 99925, Pitch_bend_c, 12, 8576
8, 99936, Pitch_bend_c, 12, 8448
8, 99938, Pitch_bend_c, 12, 8320
8, 99940, Pitch_bend_c, 12, 8192
8, 99949, Pitch_bend_c, 12, 7936
8, 99951, Pitch_bend_c, 12, 7808
8, 99970, Pitch_bend_c, 12, 7936
8, 99975, Pitch_bend_c, 12, 8064
8, 99979, Pitch_bend_c, 12, 8192
8, 99981, Pitch_bend_c, 12, 8320
8, 99984, Pitch_bend_c, 12, 8448
8, 99990, Pitch_bend_c, 12, 8704
8, 99994, Pitch_bend_c, 12, 8832
8, 100001, Pitch_bend_c, 12, 8960
8, 100003, Pitch_bend_c, 12, 9088
8, 100010, Pitch_bend_c, 12, 8960
8, 100014, Pitch_bend_c, 12, 8832
8, 100018, Pitch_bend_c, 12, 8704
8, 100021, Pitch_bend_c, 12, 8448
8, 100023, Pitch_bend_c, 12, 8320
8, 100025, Pitch_bend_c, 12, 8192
8, 100027, Pitch_bend_c, 12, 7936
8, 100032, Pitch_bend_c, 12, 7808
8, 100053, Pitch_bend_c, 12, 7936
8, 100056, Pitch_bend_c, 12, 8064
8, 100058, Pitch_bend_c, 12, 8192
8, 100062, Pitch_bend_c, 12, 8320
8, 100064, Pitch_bend_c, 12, 8448
8, 100066, Pitch_bend_c, 12, 8576
8, 100071, Pitch_bend_c, 12, 8704
8, 100101, Pitch_bend_c, 12, 8448
8, 100108, Pitch_bend_c, 12, 8320
8, 100112, Pitch_bend_c, 12, 8192
8, 100140, Note_on_c, 12, 74, 0
8, 100140, Note_on_c, 12, 72, 90
8, 100141, Pitch_bend_c, 12, 4096
8, 100143, Pitch_bend_c, 12, 4224
8, 100145, Pitch_bend_c, 12, 4352
8, 100147, Pitch_bend_c, 12, 4480
8, 100150, Pitch_bend_c, 12, 4608
8, 100152, Pitch_bend_c, 12, 4736
8, 100154, Pitch_bend_c, 12, 4864
8, 100156, Pitch_bend_c, 12, 5120
8, 100158, Pitch_bend_c, 12, 5248
8, 100160, Pitch_bend_c, 12, 5376
8, 100163, Pitch_bend_c, 12, 5504
8, 100165, Pitch_bend_c, 12, 5632
8, 100167, Pitch_bend_c, 12, 5760
8, 100169, Pitch_bend_c, 12, 5888
8, 100171, Pitch_bend_c, 12, 6144
8, 100174, Pitch_bend_c, 12, 6272
8, 100176, Pitch_bend_c, 12, 6400
8, 100178, Pitch_bend_c, 12, 6528
8, 100180, Pitch_bend_c, 12, 6656
8, 100182, Pitch_bend_c, 12, 6784
8, 100184, Pitch_bend_c, 12, 6912
8, 100187, Pitch_bend_c, 12, 7168
8, 100189, Pitch_bend_c, 12, 7296
8, 100191, Pitch_bend_c, 12, 7424
8, 100193, Pitch_bend_c, 12, 7552
8, 100195, Pitch_bend_c, 12, 7680
8, 100198, Pitch_bend_c, 12, 7808
8, 100200, Pitch_bend_c, 12, 7936
8, 100202, Pitch_bend_c, 12, 8192
8, 100317, Pitch_bend_c, 12, 8192
8, 100320, Pitch_bend_c, 12, 8064
8, 100322, Pitch_bend_c, 12, 7808
8, 100324, Pitch_bend_c, 12, 7552
8, 100326, Pitch_bend_c, 12, 7296
8, 100328, Pitch_bend_c, 12, 7168
8, 100330, Pitch_bend_c, 12, 6912
8, 100333, Pitch_bend_c, 12, 6656
8, 100335, Pitch_bend_c, 12, 6400
8, 100337, Pitch_bend_c, 12, 6144
8, 100339, Pitch_bend_c, 12, 6016
8, 100341, Pitch_bend_c, 12, 5760
8, 100344, Pitch_bend_c, 12, 5504
8, 100346, Pitch_bend_c, 12, 5248
8, 100348, Pitch_bend_c, 12, 5120
8, 100350, Pitch_bend_c, 12, 4864
8, 100352, Pitch_bend_c, 12, 4608
8, 100354, Pitch_bend_c, 12, 4352
8, 100357, Pitch_bend_c, 12, 4096
8, 100492, Pitch_bend_c, 12, 4096
8, 100494, Pitch_bend_c, 12, 4352
8, 100496, Pitch_bend_c, 12, 4736
8, 100498, Pitch_bend_c, 12, 5120
8, 100500, Note_on_c, 12, 72, 0
8, 100501, Pitch_bend_c, 12, 5376
8, 100502, Note_on_c, 12, 72, 90
8, 100503, Pitch_bend_c, 12, 5760
8, 100505, Pitch_bend_c, 12, 6144
8, 100507, Pitch_bend_c, 12, 6400
8, 100509, Pitch_bend_c, 12, 6784
8, 100512, Pitch_bend_c, 12, 7168
8, 100514, Pitch_bend_c, 12, 7424
8, 100516, Pitch_bend_c, 12, 7808
8, 100518, Pitch_bend_c, 12, 8192
8, 100620, Note_on_c, 12, 72, 0
8, 100620, Note_on_c, 12, 69, 90
8, 100800, Note_on_c, 12, 69, 0
8, 100800, Note_on_c, 12, 71, 90
8, 100830, Note_on_c, 12, 71, 0
8, 100830, Note_on_c, 12, 69, 90
8, 100860, Note_on_c, 12, 69, 0
8, 100860, Note_on_c, 12, 67, 90
8, 100898, Pitch_bend_c, 12, 8192
8, 100902, Pitch_bend_c, 12, 8320
8, 100909, Pitch_bend_c, 12, 8448
8, 100915, Pitch_bend_c, 12, 8576
8, 100939, Pitch_bend_c, 12, 8448
8, 100948, Pitch_bend_c, 12, 8320
8, 100952, Pitch_bend_c, 12, 8192
8, 100959, Pitch_bend_c, 12, 8064
8, 100968, Pitch_bend_c, 12, 7936
8, 100987, Pitch_bend_c, 12, 8064
8, 100989, Pitch_bend_c, 12, 8192
8, 100996, Pitch_bend_c, 12, 8320
8, 101000, Pitch_bend_c, 12, 8448
8, 101002, Pitch_bend_c, 12, 8576
8, 101005, Pitch_bend_c, 12, 8704
8, 101061, Pitch_bend_c, 12, 8576
8, 101064, Pitch_bend_c, 12, 8448
8, 101072, Pitch_bend_c, 12, 8320
8, 101090, Pitch_bend_c, 12, 8064
8, 101092, Pitch_bend_c, 12, 8192
8, 101100, Note_on_c, 12, 67, 0
8, 101100, Note_on_c, 12, 66, 90
8, 101105, Pitch_bend_c, 12, 8320
8, 101114, Pitch_bend_c, 12, 8448
8, 101127, Pitch_bend_c, 12, 8320
8, 101129, Pitch_bend_c, 12, 8192
8, 101140, Pitch_bend_c, 12, 8320
8, 101144, Pitch_bend_c, 12, 8448
8, 101146, Pitch_bend_c, 12, 8576
8, 101157, Pitch_bend_c, 12, 8448
8, 101160, Pitch_bend_c, 12, 8064
8, 101162, Pitch_bend_c, 12, 7936
8, 101166, Pitch_bend_c, 12, 7808
8, 101179, Pitch_bend_c, 12, 7936
8, 101181, Pitch_bend_c, 12, 8064
8, 101184, Pitch_bend_c, 12, 8320
8, 101186, Pitch_bend_c, 12, 8448
8, 101201, Pitch_bend_c, 12, 8320
8, 101205, Pitch_bend_c, 12, 8192
8, 101208, Pitch_bend_c, 12, 8064
8, 101214, Pitch_bend_c, 12, 7936
8, 101225, Pitch_bend_c, 12, 8192
8, 101227, Pitch_bend_c, 12, 8320
8, 101229, Pitch_bend_c, 12, 8448
8, 101232, Pitch_bend_c, 12, 8576
8, 101247, Pitch_bend_c, 12, 8448
8, 101249, Pitch_bend_c, 12, 8320
8, 101251, Pitch_bend_c, 12, 8064
8, 101258, Pitch_bend_c, 12, 8448
8, 101264, Pitch_bend_c, 12, 8064
8, 101266, Pitch_bend_c, 12, 8192
8, 101280, Note_on_c, 12, 66, 0
8, 101280, Note_on_c, 12, 67, 90
8, 101282, Pitch_bend_c, 12, 8320
8, 101284, Pitch_bend_c, 12, 8448
8, 101297, Pitch_bend_c, 12, 8320
8, 101301, Pitch_bend_c, 12, 8192
8, 101304, Pitch_bend_c, 12, 8064
8, 101308, Pitch_bend_c, 12, 7936
8, 101319, Pitch_bend_c, 12, 8064
8, 101323, Pitch_bend_c, 12, 8320
8, 101328, Pitch_bend_c, 12, 8448
8, 101336, Pitch_bend_c, 12, 8576
8, 101352, Pitch_bend_c, 12, 8448
8, 101354, Pitch_bend_c, 12, 8320
8, 101356, Pitch_bend_c, 12, 8192
8, 101358, Pitch_bend_c, 12, 8064
8, 101371, Pitch_bend_c, 12, 8192
8, 101376, Pitch_bend_c, 12, 8320
8, 101378, Pitch_bend_c, 12, 8448
8, 101384, Pitch_bend_c, 12, 8576
8, 101395, Pitch_bend_c, 12, 8448
8, 101397, Pitch_bend_c, 12, 8320
8, 101400, Pitch_bend_c, 12, 8192
8, 101402, Pitch_bend_c, 12, 8064
8, 101404, Pitch_bend_c, 12, 7936
8, 101410, Pitch_bend_c, 12, 7808
8, 101419, Pitch_bend_c, 12, 7936
8, 101421, Pitch_bend_c, 12, 8064
8, 101426, Pitch_bend_c, 12, 8320
8, 101445, Pitch_bend_c, 12, 8192
8, 101460, Note_on_c, 12, 67, 0
8, 101460, Note_on_c, 12, 69, 90
8, 101580, Note_on_c, 12, 69, 0
8, 101580, Note_on_c, 12, 62, 90
8, 101580, Pitch_bend_c, 12, 8320
8, 101589, Pitch_bend_c, 12, 8448
8, 101602, Pitch_bend_c, 12, 8320
8, 101604, Pitch_bend_c, 12, 8192
8, 101615, Pitch_bend_c, 12, 8320
8, 101619, Pitch_bend_c, 12, 8448
8, 101621, Pitch_bend_c, 12, 8576
8, 101632, Pitch_bend_c, 12, 8448
8, 101635, Pitch_bend_c, 12, 8064
8, 101637, Pitch_bend_c, 12, 7936
8, 101641, Pitch_bend_c, 12, 7808
8, 101654, Pitch_bend_c, 12, 7936
8, 101656, Pitch_bend_c, 12, 8064
8, 101659, Pitch_bend_c, 12, 8320
8, 101661, Pitch_bend_c, 12, 8448
8, 101676, Pitch_bend_c, 12, 8320
8, 101680, Pitch_bend_c, 12, 8192
8, 101683, Pitch_bend_c, 12, 8064
8, 101689, Pitch_bend_c, 12, 7936
8, 101700, Pitch_bend_c, 12, 8192
8, 101702, Pitch_bend_c, 12, 8320
8, 101704, Pitch_bend_c, 12, 8448
8, 101707, Pitch_bend_c, 12, 8576
8, 101722, Pitch_bend_c, 12, 8448
8, 101724, Pitch_bend_c, 12, 8320
8, 101726, Pitch_bend_c, 12, 8064
8, 101733, Pitch_bend_c, 12, 8448
8, 101739, Pitch_bend_c, 12, 8064
8, 101741, Pitch_bend_c, 12, 8192
8, 101757, Pitch_bend_c, 12, 8320
8, 101759, Pitch_bend_c, 12, 8448
8, 101760, Note_on_c, 12, 62, 0
8, 101760, Note_on_c, 12, 64, 90
8, 101772, Pitch_bend_c, 12, 8320
8, 101776, Pitch_bend_c, 12, 8192
8, 101779, Pitch_bend_c, 12, 8064
8, 101783, Pitch_bend_c, 12, 7936
8, 101794, Pitch_bend_c, 12, 8064
8, 101798, Pitch_bend_c, 12, 8320
8, 101803, Pitch_bend_c, 12, 8448
8, 101811, Pitch_bend_c, 12, 8576
8, 101940, Note_on_c, 12, 64, 0
8, 101940, Note_on_c, 12, 66, 90
8, 102060, Note_on_c, 12, 66, 0
8, 102060, Note_on_c, 12, 64, 90
8, 102061, Pitch_bend_c, 12, 16256
8, 102063, Pitch_bend_c, 12, 16000
8, 102065, Pitch_bend_c, 12, 15744
8, 102067, Pitch_bend_c, 12, 15488
8, 102069, Pitch_bend_c, 12, 15232
8, 102072, Pitch_bend_c, 12, 14976
8, 102074, Pitch_bend_c, 12, 14720
8, 102076, Pitch_bend_c, 12, 14464
8, 102078, Pitch_bend_c, 12, 14208
8, 102080, Pitch_bend_c, 12, 13952
8, 102082, Pitch_bend_c, 12, 13568
8, 102085, Pitch_bend_c, 12, 13312
8, 102087, Pitch_bend_c, 12, 13056
8, 102089, Pitch_bend_c, 12, 12800
8, 102091, Pitch_bend_c, 12, 12544
8, 102093, Pitch_bend_c, 12, 12288
8, 102096, Pitch_bend_c, 12, 12032
8, 102098, Pitch_bend_c, 12, 11776
8, 102100, Pitch_bend_c, 12, 11520
8, 102102, Pitch_bend_c, 12, 11264
8, 102104, Pitch_bend_c, 12, 10880
8, 102106, Pitch_bend_c, 12, 10624
8, 102109, Pitch_bend_c, 12, 10368
8, 102111, Pitch_bend_c, 12, 10112
8, 102113, Pitch_bend_c, 12, 9856
8, 102115, Pitch_bend_c, 12, 9600
8, 102117, Pitch_bend_c, 12, 9344
8, 102120, Pitch_bend_c, 12, 9088
8, 102122, Pitch_bend_c, 12, 8832
8, 102124, Pitch_bend_c, 12, 8576
8, 102126, Pitch_bend_c, 12, 8192
8, 102240, Note_on_c, 12, 64, 0
8, 102246, Note_on_c, 12, 66, 90
8, 102270, Note_on_c, 12, 66, 0
8, 102270, Note_on_c, 12, 64, 90
8, 102300, Note_on_c, 12, 64, 0
8, 102300, Note_on_c, 12, 62, 90
8, 102416, Pitch_bend_c, 12, 8192
8, 102420, Note_on_c, 12, 62, 0
8, 102420, Note_on_c, 12, 62, 90
8, 102421, Pitch_bend_c, 12, 8320
8, 102438, Pitch_bend_c, 12, 8192
8, 102442, Pitch_bend_c, 12, 8064
8, 102445, Pitch_bend_c, 12, 7936
8, 102473, Pitch_bend_c, 12, 8064
8, 102480, Pitch_bend_c, 12, 8192
8, 102486, Pitch_bend_c, 12, 8320
8, 102499, Pitch_bend_c, 12, 8448
8, 102532, Pitch_bend_c, 12, 8192
8, 102660, Pitch_bend_c, 12, 8448
8, 102663, Pitch_bend_c, 12, 8576
8, 102664, Pitch_bend_c, 12, 8704
8, 102673, Pitch_bend_c, 12, 8832
8, 102680, Pitch_bend_c, 12, 8704
8, 102681, Pitch_bend_c, 12, 8576
8, 102682, Pitch_bend_c, 12, 8448
8, 102684, Pitch_bend_c, 12, 8320
8, 102685, Pitch_bend_c, 12, 8192
8, 102686, Pitch_bend_c, 12, 8064
8, 102687, Pitch_bend_c, 12, 7936
8, 102691, Pitch_bend_c, 12, 7808
8, 102702, Pitch_bend_c, 12, 7936
8, 102704, Pitch_bend_c, 12, 8192
8, 102705, Pitch_bend_c, 12, 8320
8, 102708, Pitch_bend_c, 12, 8448
8, 102710, Pitch_bend_c, 12, 8704
8, 102712, Pitch_bend_c, 12, 8832
8, 102715, Pitch_bend_c, 12, 8960
8, 102734, Pitch_bend_c, 12, 8704
8, 102736, Pitch_bend_c, 12, 8576
8, 102738, Pitch_bend_c, 12, 8448
8, 102739, Pitch_bend_c, 12, 8320
8, 102741, Pitch_bend_c, 12, 8064
8, 102745, Pitch_bend_c, 12, 7936
8, 102750, Pitch_bend_c, 12, 7808
8, 102762, Pitch_bend_c, 12, 7936
8, 102766, Pitch_bend_c, 12, 8064
8, 102769, Pitch_bend_c, 12, 8192
8, 102772, Pitch_bend_c, 12, 8320
8, 102776, Pitch_bend_c, 12, 8448
8, 102781, Pitch_bend_c, 12, 8576
8, 102789, Pitch_bend_c, 12, 8704
8, 102795, Pitch_bend_c, 12, 8576
8, 102796, Pitch_bend_c, 12, 8448
8, 102798, Pitch_bend_c, 12, 8320
8, 102801, Pitch_bend_c, 12, 8064
8, 102806, Pitch_bend_c, 12, 7936
8, 102807, Pitch_bend_c, 12, 7808
8, 102812, Pitch_bend_c, 12, 7680
8, 102822, Pitch_bend_c, 12, 7808
8, 102826, Pitch_bend_c, 12, 7936
8, 102828, Pitch_bend_c, 12, 8064
8, 102830, Pitch_bend_c, 12, 8192
8, 102831, Pitch_bend_c, 12, 8320
8, 102835, Pitch_bend_c, 12, 8448
8, 102836, Pitch_bend_c, 12, 8576
8, 102837, Pitch_bend_c, 12, 8704
8, 102852, Pitch_bend_c, 12, 8832
8, 102864, Pitch_bend_c, 12, 8704
8, 102867, Pitch_bend_c, 12, 8576
8, 102870, Pitch_bend_c, 12, 8448
8, 102872, Pitch_bend_c, 12, 8320
8, 102874, Pitch_bend_c, 12, 8192
8, 102876, Pitch_bend_c, 12, 8064
8, 102884, Pitch_bend_c, 12, 7936
8, 102909, Pitch_bend_c, 12, 8064
8, 102910, Pitch_bend_c, 12, 8192
8, 102913, Pitch_bend_c, 12, 8320
8, 102915, Pitch_bend_c, 12, 8448
8, 102918, Pitch_bend_c, 12, 8576
8, 102919, Pitch_bend_c, 12, 8704
8, 102922, Pitch_bend_c, 12, 8832
8, 102925, Pitch_bend_c, 12, 8960
8, 102943, Pitch_bend_c, 12, 8832
8, 102945, Pitch_bend_c, 12, 8704
8, 102946, Pitch_bend_c, 12, 8576
8, 102949, Pitch_bend_c, 12, 8448
8, 102951, Pitch_bend_c, 12, 8320
8, 102952, Pitch_bend_c, 12, 8192
8, 102954, Pitch_bend_c, 12, 8064
8, 102956, Pitch_bend_c, 12, 7936
8, 102962, Pitch_bend_c, 12, 7808
8, 102975, Pitch_bend_c, 12, 7936
8, 102976, Pitch_bend_c, 12, 8192
8, 102978, Pitch_bend_c, 12, 8320
8, 102984, Pitch_bend_c, 12, 8448
8, 102993, Pitch_bend_c, 12, 8576
8, 102996, Pitch_bend_c, 12, 8704
8, 103011, Pitch_bend_c, 12, 8576
8, 103015, Pitch_bend_c, 12, 8448
8, 103016, Pitch_bend_c, 12, 8320
8, 103017, Pitch_bend_c, 12, 8192
8, 103020, Note_on_c, 12, 62, 0
8, 103020, Note_on_c, 12, 66, 90
8, 103020, Pitch_bend_c, 12, 8320
8, 103021, Pitch_bend_c, 12, 8192
8, 103023, Pitch_bend_c, 12, 16383
8, 103025, Pitch_bend_c, 12, 16128
8, 103027, Pitch_bend_c, 12, 15744
8, 103029, Pitch_bend_c, 12, 15360
8, 103032, Pitch_bend_c, 12, 14976
8, 103034, Pitch_bend_c, 12, 14592
8, 103036, Pitch_bend_c, 12, 14208
8, 103038, Pitch_bend_c, 12, 13824
8, 103040, Pitch_bend_c, 12, 13440
8, 103042, Pitch_bend_c, 12, 13056
8, 103045, Pitch_bend_c, 12, 12672
8, 103047, Pitch_bend_c, 12, 12288
8, 103049, Pitch_bend_c, 12, 12032
8, 103051, Pitch_bend_c, 12, 11648
8, 103053, Pitch_bend_c, 12, 11264
8, 103056, Pitch_bend_c, 12, 10880
8, 103058, Pitch_bend_c, 12, 10496
8, 103060, Pitch_bend_c, 12, 10112
8, 103062, Pitch_bend_c, 12, 9728
8, 103064, Pitch_bend_c, 12, 9344
8, 103066, Pitch_bend_c, 12, 8960
8, 103069, Pitch_bend_c, 12, 8576
8, 103071, Pitch_bend_c, 12, 8192
8, 103072, Pitch_bend_c, 12, 8448
8, 103075, Pitch_bend_c, 12, 8064
8, 103077, Pitch_bend_c, 12, 7936
8, 103081, Pitch_bend_c, 12, 7808
8, 103094, Pitch_bend_c, 12, 7936
8, 103096, Pitch_bend_c, 12, 8064
8, 103099, Pitch_bend_c, 12, 8320
8, 103101, Pitch_bend_c, 12, 8448
8, 103116, Pitch_bend_c, 12, 8320
8, 103120, Pitch_bend_c, 12, 8192
8, 103123, Pitch_bend_c, 12, 8064
8, 103129, Pitch_bend_c, 12, 7936
8, 103140, Pitch_bend_c, 12, 8192
8, 103142, Pitch_bend_c, 12, 8320
8, 103144, Pitch_bend_c, 12, 8448
8, 103147, Pitch_bend_c, 12, 8576
8, 103162, Pitch_bend_c, 12, 8448
8, 103164, Pitch_bend_c, 12, 8320
8, 103166, Pitch_bend_c, 12, 8064
8, 103173, Pitch_bend_c, 12, 8448
8, 103179, Pitch_bend_c, 12, 8064
8, 103181, Pitch_bend_c, 12, 8192
8, 103197, Pitch_bend_c, 12, 8320
8, 103199, Pitch_bend_c, 12, 8448
8, 103200, Note_on_c, 12, 66, 0
8, 103200, Note_on_c, 12, 67, 90
8, 103212, Pitch_bend_c, 12, 8320
8, 103216, Pitch_bend_c, 12, 8192
8, 103219, Pitch_bend_c, 12, 8064
8, 103223, Pitch_bend_c, 12, 7936
8, 103234, Pitch_bend_c, 12, 8064
8, 103238, Pitch_bend_c, 12, 8320
8, 103243, Pitch_bend_c, 12, 8448
8, 103251, Pitch_bend_c, 12, 8576
8, 103380, Note_on_c, 12, 67, 0
8, 103380, Note_on_c, 12, 69, 90
8, 103380, Pitch_bend_c, 12, 8320
8, 103389, Pitch_bend_c, 12, 8448
8, 103402, Pitch_bend_c, 12, 8320
8, 103404, Pitch_bend_c, 12, 8192
8, 103415, Pitch_bend_c, 12, 8320
8, 103419, Pitch_bend_c, 12, 8448
8, 103421, Pitch_bend_c, 12, 8576
8, 103432, Pitch_bend_c, 12, 8448
8, 103435, Pitch_bend_c, 12, 8064
8, 103437, Pitch_bend_c, 12, 7936
8, 103441, Pitch_bend_c, 12, 7808
8, 103454, Pitch_bend_c, 12, 7936
8, 103456, Pitch_bend_c, 12, 8064
8, 103459, Pitch_bend_c, 12, 8320
8, 103461, Pitch_bend_c, 12, 8448
8, 103476, Pitch_bend_c, 12, 8320
8, 103480, Pitch_bend_c, 12, 8192
8, 103483, Pitch_bend_c, 12, 8064
8, 103489, Pitch_bend_c, 12, 7936
8, 103500, Pitch_bend_c, 12, 8192
8, 103502, Pitch_bend_c, 12, 8320
8, 103504, Pitch_bend_c, 12, 8448
8, 103507, Pitch_bend_c, 12, 8576
8, 103522, Pitch_bend_c, 12, 8448
8, 103524, Pitch_bend_c, 12, 8320
8, 103526, Pitch_bend_c, 12, 8064
8, 103533, Pitch_bend_c, 12, 8448
8, 103539, Pitch_bend_c, 12, 8064
8, 103541, Pitch_bend_c, 12, 8192
8, 103557, Pitch_bend_c, 12, 8320
8, 103559, Pitch_bend_c, 12, 8448
8, 103572, Pitch_bend_c, 12, 8320
8, 103576, Pitch_bend_c, 12, 8192
8, 103579, Pitch_bend_c, 12, 8064
8, 103583, Pitch_bend_c, 12, 7936
8, 103594, Pitch_bend_c, 12, 8064
8, 103598, Pitch_bend_c, 12, 8320
8, 103603, Pitch_bend_c, 12, 8448
8, 103611, Pitch_bend_c, 12, 8576
8, 103620, Note_on_c, 12, 69, 0
8, 103620, Note_on_c, 12, 74, 90
8, 103621, Pitch_bend_c, 12, 0
8, 103623, Pitch_bend_c, 12, 128
8, 103625, Pitch_bend_c, 12, 384
8, 103627, Pitch_bend_c, 12, 512
8, 103629, Pitch_bend_c, 12, 768
8, 103632, Pitch_bend_c, 12, 1024
8, 103634, Pitch_bend_c, 12, 1152
8, 103636, Pitch_bend_c, 12, 1408
8, 103638, Pitch_bend_c, 12, 1536
8, 103640, Pitch_bend_c, 12, 1792
8, 103642, Pitch_bend_c, 12, 2048
8, 103645, Pitch_bend_c, 12, 2176
8, 103647, Pitch_bend_c, 12, 2432
8, 103649, Pitch_bend_c, 12, 2560
8, 103651, Pitch_bend_c, 12, 2816
8, 103653, Pitch_bend_c, 12, 3072
8, 103656, Pitch_bend_c, 12, 3200
8, 103658, Pitch_bend_c, 12, 3456
8, 103660, Pitch_bend_c, 12, 3584
8, 103662, Pitch_bend_c, 12, 3840
8, 103664, Pitch_bend_c, 12, 4096
8, 103666, Pitch_bend_c, 12, 4224
8, 103669, Pitch_bend_c, 12, 4480
8, 103671, Pitch_bend_c, 12, 4608
8, 103673, Pitch_bend_c, 12, 4864
8, 103675, Pitch_bend_c, 12, 5120
8, 103677, Pitch_bend_c, 12, 5248
8, 103680, Pitch_bend_c, 12, 5504
8, 103682, Pitch_bend_c, 12, 5632
8, 103684, Pitch_bend_c, 12, 5888
8, 103686, Pitch_bend_c, 12, 6144
8, 103688, Pitch_bend_c, 12, 6272
8, 103690, Pitch_bend_c, 12, 6528
8, 103693, Pitch_bend_c, 12, 6656
8, 103695, Pitch_bend_c, 12, 6912
8, 103697, Pitch_bend_c, 12, 7168
8, 103699, Pitch_bend_c, 12, 7296
8, 103701, Pitch_bend_c, 12, 7552
8, 103704, Pitch_bend_c, 12, 7680
8, 103706, Pitch_bend_c, 12, 7936
8, 103708, Pitch_bend_c, 12, 8192
8, 103980, Note_on_c, 12, 74, 0
8, 103980, Note_on_c, 12, 74, 90
8, 103981, Pitch_bend_c, 12, 8192
8, 103983, Pitch_bend_c, 12, 8320
8, 103985, Pitch_bend_c, 12, 8576
8, 103987, Pitch_bend_c, 12, 8832
8, 103989, Pitch_bend_c, 12, 8960
8, 103992, Pitch_bend_c, 12, 9216
8, 103994, Pitch_bend_c, 12, 9472
8, 103996, Pitch_bend_c, 12, 9600
8, 103998, Pitch_bend_c, 12, 9856
8, 104000, Pitch_bend_c, 12, 10112
8, 104002, Pitch_bend_c, 12, 10240
8, 104005, Pitch_bend_c, 12, 10496
8, 104007, Pitch_bend_c, 12, 10752
8, 104009, Pitch_bend_c, 12, 10880
8, 104011, Pitch_bend_c, 12, 11136
8, 104013, Pitch_bend_c, 12, 11392
8, 104016, Pitch_bend_c, 12, 11520
8, 104018, Pitch_bend_c, 12, 11776
8, 104020, Pitch_bend_c, 12, 12032
8, 104022, Pitch_bend_c, 12, 12288
8, 104024, Pitch_bend_c, 12, 12416
8, 104026, Pitch_bend_c, 12, 12672
8, 104029, Pitch_bend_c, 12, 12928
8, 104031, Pitch_bend_c, 12, 13056
8, 104033, Pitch_bend_c, 12, 13312
8, 104035, Pitch_bend_c, 12, 13568
8, 104037, Pitch_bend_c, 12, 13696
8, 104040, Pitch_bend_c, 12, 13952
8, 104042, Pitch_bend_c, 12, 14208
8, 104044, Pitch_bend_c, 12, 14336
8, 104046, Pitch_bend_c, 12, 14592
8, 104048, Pitch_bend_c, 12, 14848
8, 104050, Pitch_bend_c, 12, 14976
8, 104053, Pitch_bend_c, 12, 15232
8, 104055, Pitch_bend_c, 12, 15488
8, 104057, Pitch_bend_c, 12, 15616
8, 104059, Pitch_bend_c, 12, 15872
8, 104061, Pitch_bend_c, 12, 16128
8, 104064, Pitch_bend_c, 12, 16383
8, 104340, Pitch_bend_c, 12, 16128
8, 104342, Pitch_bend_c, 12, 16000
8, 104345, Pitch_bend_c, 12, 15872
8, 104347, Pitch_bend_c, 12, 15744
8, 104349, Pitch_bend_c, 12, 15616
8, 104351, Pitch_bend_c, 12, 15488
8, 104353, Pitch_bend_c, 12, 15360
8, 104356, Pitch_bend_c, 12, 15104
8, 104358, Pitch_bend_c, 12, 14976
8, 104360, Pitch_bend_c, 12, 14848
8, 104362, Pitch_bend_c, 12, 14720
8, 104364, Pitch_bend_c, 12, 14592
8, 104366, Pitch_bend_c, 12, 14464
8, 104369, Pitch_bend_c, 12, 14336
8, 104371, Pitch_bend_c, 12, 14080
8, 104373, Pitch_bend_c, 12, 13952
8, 104375, Pitch_bend_c, 12, 13824
8, 104377, Pitch_bend_c, 12, 13696
8, 104380, Pitch_bend_c, 12, 13568
8, 104382, Pitch_bend_c, 12, 13440
8, 104384, Pitch_bend_c, 12, 13312
8, 104386, Pitch_bend_c, 12, 13056
8, 104388, Pitch_bend_c, 12, 12928
8, 104390, Pitch_bend_c, 12, 12800
8, 104393, Pitch_bend_c, 12, 12672
8, 104395, Pitch_bend_c, 12, 12544
8, 104397, Pitch_bend_c, 12, 12416
8, 104399, Pitch_bend_c, 12, 12160
8, 104401, Pitch_bend_c, 12, 12032
8, 104404, Pitch_bend_c, 12, 11904
8, 104406, Pitch_bend_c, 12, 11776
8, 104408, Pitch_bend_c, 12, 11648
8, 104410, Pitch_bend_c, 12, 11520
8, 104412, Pitch_bend_c, 12, 11392
8, 104414, Pitch_bend_c, 12, 11136
8, 104417, Pitch_bend_c, 12, 11008
8, 104419, Pitch_bend_c, 12, 10880
8, 104421, Pitch_bend_c, 12, 10752
8, 104423, Pitch_bend_c, 12, 10624
8, 104425, Pitch_bend_c, 12, 10496
8, 104428, Pitch_bend_c, 12, 10368
8, 104430, Pitch_bend_c, 12, 10112
8, 104432, Pitch_bend_c, 12, 9984
8, 104434, Pitch_bend_c, 12, 9856
8, 104436, Pitch_bend_c, 12, 9728
8, 104438, Pitch_bend_c, 12, 9600
8, 104441, Pitch_bend_c, 12, 9472
8, 104443, Pitch_bend_c, 12, 9344
8, 104445, Pitch_bend_c, 12, 9088
8, 104447, Pitch_bend_c, 12, 8960
8, 104449, Pitch_bend_c, 12, 8832
8, 104452, Pitch_bend_c, 12, 8704
8, 104454, Pitch_bend_c, 12, 8576
8, 104456, Pitch_bend_c, 12, 8448
8, 104458, Pitch_bend_c, 12, 8192
8, 104460, Note_on_c, 12, 74, 0
8, 104460, Note_on_c, 12, 72, 90
8, 104480, Note_on_c, 12, 72, 0
8, 104480, Note_on_c, 12, 74, 90
8, 104500, Note_on_c, 12, 74, 0
8, 104500, Note_on_c, 12, 72, 90
8, 104580, Pitch_bend_c, 12, 8320
8, 104589, Pitch_bend_c, 12, 8448
8, 104602, Pitch_bend_c, 12, 8320
8, 104604, Pitch_bend_c, 12, 8192
8, 104615, Pitch_bend_c, 12, 8320
8, 104619, Pitch_bend_c, 12, 8448
8, 104621, Pitch_bend_c, 12, 8576
8, 104632, Pitch_bend_c, 12, 8448
8, 104635, Pitch_bend_c, 12, 8064
8, 104637, Pitch_bend_c, 12, 7936
8, 104641, Pitch_bend_c, 12, 7808
8, 104654, Pitch_bend_c, 12, 7936
8, 104656, Pitch_bend_c, 12, 8064
8, 104659, Pitch_bend_c, 12, 8320
8, 104661, Pitch_bend_c, 12, 8448
8, 104676, Pitch_bend_c, 12, 8320
8, 104680, Pitch_bend_c, 12, 8192
8, 104683, Pitch_bend_c, 12, 8064
8, 104689, Pitch_bend_c, 12, 7936
8, 104700, Note_on_c, 12, 72, 0
8, 104700, Note_on_c, 12, 66, 90
8, 104700, Pitch_bend_c, 12, 8192
8, 104740, Note_on_c, 12, 66, 0
8, 104740, Note_on_c, 12, 67, 90
8, 104780, Note_on_c, 12, 67, 0
8, 104780, Note_on_c, 12, 69, 90
8, 104820, Note_on_c, 12, 69, 0
8, 104820, Note_on_c, 12, 71, 90
8, 104860, Note_on_c, 12, 71, 0
8, 104860, Note_on_c, 12, 69, 90
8, 104900, Note_on_c, 12, 69, 0
8, 104900, Note_on_c, 12, 67, 90
8, 104940, Note_on_c, 12, 67, 0
8, 104940, Note_on_c, 12, 66, 90
8, 104940, Pitch_bend_c, 12, 8320
8, 104949, Pitch_bend_c, 12, 8448
8, 104962, Pitch_bend_c, 12, 8320
8, 104964, Pitch_bend_c, 12, 8192
8, 104975, Pitch_bend_c, 12, 8320
8, 104979, Pitch_bend_c, 12, 8448
8, 104981, Pitch_bend_c, 12, 8576
8, 104992, Pitch_bend_c, 12, 8448
8, 104995, Pitch_bend_c, 12, 8064
8, 104997, Pitch_bend_c, 12, 7936
8, 105001, Pitch_bend_c, 12, 7808
8, 105014, Pitch_bend_c, 12, 7936
8, 105016, Pitch_bend_c, 12, 8064
8, 105019, Pitch_bend_c, 12, 8320
8, 105021, Pitch_bend_c, 12, 8448
8, 105036, Pitch_bend_c, 12, 8320
8, 105040, Pitch_bend_c, 12, 8192
8, 105043, Pitch_bend_c, 12, 8064
8, 105049, Pitch_bend_c, 12, 7936
8, 105060, Pitch_bend_c, 12, 8192
8, 105062, Pitch_bend_c, 12, 8320
8, 105064, Pitch_bend_c, 12, 8448
8, 105067, Pitch_bend_c, 12, 8576
8, 105082, Pitch_bend_c, 12, 8448
8, 105084, Pitch_bend_c, 12, 8320
8, 105086, Pitch_bend_c, 12, 8064
8, 105093, Pitch_bend_c, 12, 8448
8, 105099, Pitch_bend_c, 12, 8064
8, 105101, Pitch_bend_c, 12, 8192
8, 105117, Pitch_bend_c, 12, 8320
8, 105119, Pitch_bend_c, 12, 8448
8, 105120, Note_on_c, 12, 66, 0
8, 105120, Note_on_c, 12, 67, 90
8, 105132, Pitch_bend_c, 12, 8320
8, 105136, Pitch_bend_c, 12, 8192
8, 105139, Pitch_bend_c, 12, 8064
8, 105143, Pitch_bend_c, 12, 7936
8, 105154, Pitch_bend_c, 12, 8064
8, 105158, Pitch_bend_c, 12, 8320
8, 105163, Pitch_bend_c, 12, 8448
8, 105171, Pitch_bend_c, 12, 8576
8, 105187, Pitch_bend_c, 12, 8448
8, 105189, Pitch_bend_c, 12, 8320
8, 105191, Pitch_bend_c, 12, 8192
8, 105193, Pitch_bend_c, 12, 8064
8, 105206, Pitch_bend_c, 12, 8192
8, 105211, Pitch_bend_c, 12, 8320
8, 105213, Pitch_bend_c, 12, 8448
8, 105219, Pitch_bend_c, 12, 8576
8, 105230, Pitch_bend_c, 12, 8448
8, 105232, Pitch_bend_c, 12, 8320
8, 105235, Pitch_bend_c, 12, 8192
8, 105237, Pitch_bend_c, 12, 8064
8, 105239, Pitch_bend_c, 12, 7936
8, 105245, Pitch_bend_c, 12, 7808
8, 105254, Pitch_bend_c, 12, 7936
8, 105256, Pitch_bend_c, 12, 8064
8, 105261, Pitch_bend_c, 12, 8320
8, 105280, Pitch_bend_c, 12, 8192
8, 105300, Note_on_c, 12, 67, 0
8, 105300, Note_on_c, 12, 69, 90
8, 105420, Note_on_c, 12, 69, 0
8, 105420, Note_on_c, 12, 62, 90
8, 105420, Pitch_bend_c, 12, 8320
8, 105429, Pitch_bend_c, 12, 8448
8, 105442, Pitch_bend_c, 12, 8320
8, 105444, Pitch_bend_c, 12, 8192
8, 105455, Pitch_bend_c, 12, 8320
8, 105459, Pitch_bend_c, 12, 8448
8, 105461, Pitch_bend_c, 12, 8576
8, 105472, Pitch_bend_c, 12, 8448
8, 105475, Pitch_bend_c, 12, 8064
8, 105477, Pitch_bend_c, 12, 7936
8, 105481, Pitch_bend_c, 12, 7808
8, 105494, Pitch_bend_c, 12, 7936
8, 105496, Pitch_bend_c, 12, 8064
8, 105499, Pitch_bend_c, 12, 8320
8, 105501, Pitch_bend_c, 12, 8448
8, 105516, Pitch_bend_c, 12, 8320
8, 105520, Pitch_bend_c, 12, 8192
8, 105523, Pitch_bend_c, 12, 8064
8, 105529, Pitch_bend_c, 12, 7936
8, 105540, Pitch_bend_c, 12, 8192
8, 105542, Pitch_bend_c, 12, 8320
8, 105544, Pitch_bend_c, 12, 8448
8, 105547, Pitch_bend_c, 12, 8576
8, 105562, Pitch_bend_c, 12, 8448
8, 105564, Pitch_bend_c, 12, 8320
8, 105566, Pitch_bend_c, 12, 8064
8, 105573, Pitch_bend_c, 12, 8448
8, 105579, Pitch_bend_c, 12, 8064
8, 105581, Pitch_bend_c, 12, 8192
8, 105597, Pitch_bend_c, 12, 8320
8, 105599, Pitch_bend_c, 12, 8448
8, 105600, Note_on_c, 12, 62, 0
8, 105600, Note_on_c, 12, 64, 90
8, 105612, Pitch_bend_c, 12, 8320
8, 105616, Pitch_bend_c, 12, 8192
8, 105619, Pitch_bend_c, 12, 8064
8, 105623, Pitch_bend_c, 12, 7936
8, 105634, Pitch_bend_c, 12, 8064
8, 105638, Pitch_bend_c, 12, 8320
8, 105643, Pitch_bend_c, 12, 8448
8, 105651, Pitch_bend_c, 12, 8576
8, 105667, Pitch_bend_c, 12, 8448
8, 105669, Pitch_bend_c, 12, 8320
8, 105671, Pitch_bend_c, 12, 8192
8, 105673, Pitch_bend_c, 12, 8064
8, 105686, Pitch_bend_c, 12, 8192
8, 105691, Pitch_bend_c, 12, 8320
8, 105693, Pitch_bend_c, 12, 8448
8, 105699, Pitch_bend_c, 12, 8576
8, 105710, Pitch_bend_c, 12, 8448
8, 105712, Pitch_bend_c, 12, 8320
8, 105715, Pitch_bend_c, 12, 8192
8, 105717, Pitch_bend_c, 12, 8064
8, 105719, Pitch_bend_c, 12, 7936
8, 105725, Pitch_bend_c, 12, 7808
8, 105734, Pitch_bend_c, 12, 7936
8, 105736, Pitch_bend_c, 12, 8064
8, 105741, Pitch_bend_c, 12, 8320
8, 105760, Pitch_bend_c, 12, 8192
8, 105780, Note_on_c, 12, 64, 0
8, 105780, Note_on_c, 12, 66, 90
8, 105900, Note_on_c, 12, 66, 0
8, 105900, Note_on_c, 12, 67, 90
8, 106077, Pitch_bend_c, 12, 8192
8, 106080, Pitch_bend_c, 12, 8704
8, 106082, Pitch_bend_c, 12, 9344
8, 106084, Pitch_bend_c, 12, 9984
8, 106086, Pitch_bend_c, 12, 10624
8, 106088, Pitch_bend_c, 12, 11264
8, 106090, Pitch_bend_c, 12, 11904
8, 106093, Pitch_bend_c, 12, 12416
8, 106095, Pitch_bend_c, 12, 13056
8, 106097, Pitch_bend_c, 12, 13696
8, 106099, Pitch_bend_c, 12, 14336
8, 106101, Pitch_bend_c, 12, 14976
8, 106104, Pitch_bend_c, 12, 15616
8, 106106, Pitch_bend_c, 12, 16256
8, 106189, Pitch_bend_c, 12, 16383
8, 106191, Pitch_bend_c, 12, 16128
8, 106193, Pitch_bend_c, 12, 15744
8, 106195, Pitch_bend_c, 12, 15360
8, 106197, Pitch_bend_c, 12, 14976
8, 106200, Pitch_bend_c, 12, 14592
8, 106202, Pitch_bend_c, 12, 14208
8, 106204, Pitch_bend_c, 12, 13952
8, 106206, Pitch_bend_c, 12, 13568
8, 106208, Pitch_bend_c, 12, 13184
8, 106210, Pitch_bend_c, 12, 12800
8, 106213, Pitch_bend_c, 12, 12416
8, 106215, Pitch_bend_c, 12, 12032
8, 106217, Pitch_bend_c, 12, 11776
8, 106219, Pitch_bend_c, 12, 11392
8, 106221, Pitch_bend_c, 12, 11008
8, 106224, Pitch_bend_c, 12, 10624
8, 106226, Pitch_bend_c, 12, 10240
8, 106228, Pitch_bend_c, 12, 9856
8, 106230, Note_on_c, 12, 67, 0
8, 106230, Pitch_bend_c, 12, 8192
8, 106230, Note_on_c, 12, 67, 90
8, 106260, Note_on_c, 12, 67, 0
8, 106260, Note_on_c, 12, 66, 90
8, 106380, Note_on_c, 12, 66, 0
8, 106380, Note_on_c, 12, 62, 90
8, 106500, Pitch_bend_c, 12, 8320
8, 106509, Pitch_bend_c, 12, 8448
8, 106522, Pitch_bend_c, 12, 8320
8, 106524, Pitch_bend_c, 12, 8192
8, 106535, Pitch_bend_c, 12, 8320
8, 106539, Pitch_bend_c, 12, 8448
8, 106541, Pitch_bend_c, 12, 8576
8, 106552, Pitch_bend_c, 12, 8448
8, 106555, Pitch_bend_c, 12, 8064
8, 106557, Pitch_bend_c, 12, 7936
8, 106561, Pitch_bend_c, 12, 7808
8, 106574, Pitch_bend_c, 12, 7936
8, 106576, Pitch_bend_c, 12, 8064
8, 106579, Pitch_bend_c, 12, 8320
8, 106581, Pitch_bend_c, 12, 8448
8, 106596, Pitch_bend_c, 12, 8320
8, 106600, Pitch_bend_c, 12, 8192
8, 106603, Pitch_bend_c, 12, 8064
8, 106609, Pitch_bend_c, 12, 7936
8, 106620, Pitch_bend_c, 12, 8192
8, 106622, Pitch_bend_c, 12, 8320
8, 106624, Pitch_bend_c, 12, 8448
8, 106627, Pitch_bend_c, 12, 8576
8, 106642, Pitch_bend_c, 12, 8448
8, 106644, Pitch_bend_c, 12, 8320
8, 106646, Pitch_bend_c, 12, 8064
8, 106653, Pitch_bend_c, 12, 8448
8, 106659, Pitch_bend_c, 12, 8064
8, 106661, Pitch_bend_c, 12, 8192
8, 106677, Pitch_bend_c, 12, 8320
8, 106679, Pitch_bend_c, 12, 8448
8, 106692, Pitch_bend_c, 12, 8320
8, 106696, Pitch_bend_c, 12, 8192
8, 106699, Pitch_bend_c, 12, 8064
8, 106703, Pitch_bend_c, 12, 7936
8, 106714, Pitch_bend_c, 12, 8064
8, 106718, Pitch_bend_c, 12, 8320
8, 106723, Pitch_bend_c, 12, 8448
8, 106731, Pitch_bend_c, 12, 8576
8, 106747, Pitch_bend_c, 12, 8448
8, 106749, Pitch_bend_c, 12, 8320
8, 106751, Pitch_bend_c, 12, 8192
8, 106753, Pitch_bend_c, 12, 8064
8, 106766, Pitch_bend_c, 12, 8192
8, 106771, Pitch_bend_c, 12, 8320
8, 106773, Pitch_bend_c, 12, 8448
8, 106779, Pitch_bend_c, 12, 8576
8, 106790, Pitch_bend_c, 12, 8448
8, 106792, Pitch_bend_c, 12, 8320
8, 106795, Pitch_bend_c, 12, 8192
8, 106797, Pitch_bend_c, 12, 8064
8, 106799, Pitch_bend_c, 12, 7936
8, 106805, Pitch_bend_c, 12, 7808
8, 106814, Pitch_bend_c, 12, 7936
8, 106816, Pitch_bend_c, 12, 8064
8, 106821, Pitch_bend_c, 12, 8320
8, 106840, Pitch_bend_c, 12, 8192
8, 106856, Control_c, 12, 101, 0
8, 106856, Control_c, 12, 100, 0
8, 106856, Control_c, 12, 6, 1
8, 106856, Control_c, 12, 38, 127
8, 106860, Note_on_c, 12, 62, 0
8, 113820, Pitch_bend_c, 12, 8320
8, 113820, Note_on_c, 12, 80, 100
8, 113822, Pitch_bend_c, 12, 8448
8, 113824, Pitch_bend_c, 12, 8576
8, 113829, Pitch_bend_c, 12, 8704
8, 113846, Pitch_bend_c, 12, 8448
8, 113848, Pitch_bend_c, 12, 8320
8, 113853, Pitch_bend_c, 12, 8192
8, 113855, Pitch_bend_c, 12, 7936
8, 113872, Pitch_bend_c, 12, 8064
8, 113874, Pitch_bend_c, 12, 8192
8, 113881, Pitch_bend_c, 12, 8448
8, 113885, Pitch_bend_c, 12, 8576
8, 113907, Pitch_bend_c, 12, 8448
8, 113909, Pitch_bend_c, 12, 8320
8, 113912, Pitch_bend_c, 12, 8192
8, 113914, Pitch_bend_c, 12, 8064
8, 113916, Pitch_bend_c, 12, 7936
8, 113918, Pitch_bend_c, 12, 7808
8, 113927, Pitch_bend_c, 12, 7936
8, 113929, Pitch_bend_c, 12, 8064
8, 113931, Pitch_bend_c, 12, 8192
8, 113933, Pitch_bend_c, 12, 8320
8, 113938, Pitch_bend_c, 12, 8448
8, 113942, Pitch_bend_c, 12, 8576
8, 113957, Pitch_bend_c, 12, 8448
8, 113962, Pitch_bend_c, 12, 8320
8, 113964, Pitch_bend_c, 12, 8192
8, 113968, Pitch_bend_c, 12, 8064
8, 113977, Pitch_bend_c, 12, 8192
8, 113979, Pitch_bend_c, 12, 8960
8, 113981, Pitch_bend_c, 12, 9728
8, 113984, Pitch_bend_c, 12, 10496
8, 113986, Pitch_bend_c, 12, 11392
8, 113988, Pitch_bend_c, 12, 12160
8, 113990, Pitch_bend_c, 12, 12928
8, 113992, Pitch_bend_c, 12, 13824
8, 113994, Pitch_bend_c, 12, 14592
8, 113997, Pitch_bend_c, 12, 15360
8, 113999, Pitch_bend_c, 12, 16256
8, 114000, Note_on_c, 12, 80, 0
8, 114000, Note_on_c, 12, 83, 100
8, 114001, Pitch_bend_c, 12, 8192
8, 114154, Pitch_bend_c, 12, 8192
8, 114156, Pitch_bend_c, 12, 8832
8, 114158, Pitch_bend_c, 12, 9600
8, 114160, Pitch_bend_c, 12, 10368
8, 114162, Pitch_bend_c, 12, 11136
8, 114165, Pitch_bend_c, 12, 11904
8, 114167, Pitch_bend_c, 12, 12544
8, 114169, Pitch_bend_c, 12, 13312
8, 114171, Pitch_bend_c, 12, 14080
8, 114173, Pitch_bend_c, 12, 14848
8, 114176, Pitch_bend_c, 12, 15616
8, 114178, Pitch_bend_c, 12, 16383
8, 114180, Note_on_c, 12, 83, 0
8, 114180, Pitch_bend_c, 12, 8192
8, 114180, Note_on_c, 12, 88, 127
8, 114254, Pitch_bend_c, 12, 8320
8, 114256, Pitch_bend_c, 12, 8448
8, 114272, Pitch_bend_c, 12, 8576
8, 114287, Pitch_bend_c, 12, 8704
8, 114300, Pitch_bend_c, 12, 8576
8, 114304, Pitch_bend_c, 12, 8448
8, 114306, Pitch_bend_c, 12, 8192
8, 114311, Pitch_bend_c, 12, 8064
8, 114317, Pitch_bend_c, 12, 7936
8, 114324, Pitch_bend_c, 12, 7808
8, 114330, Pitch_bend_c, 12, 7680
8, 114348, Pitch_bend_c, 12, 7808
8, 114350, Pitch_bend_c, 12, 7936
8, 114357, Pitch_bend_c, 12, 8064
8, 114365, Pitch_bend_c, 12, 8320
8, 114370, Pitch_bend_c, 12, 8448
8, 114374, Pitch_bend_c, 12, 8576
8, 114381, Pitch_bend_c, 12, 8704
8, 114420, Pitch_bend_c, 12, 8576
8, 114424, Pitch_bend_c, 12, 8448
8, 114429, Pitch_bend_c, 12, 8320
8, 114435, Pitch_bend_c, 12, 8064
8, 114440, Pitch_bend_c, 12, 7936
8, 114444, Pitch_bend_c, 12, 7680
8, 114470, Pitch_bend_c, 12, 7808
8, 114477, Pitch_bend_c, 12, 8064
8, 114481, Pitch_bend_c, 12, 8192
8, 114488, Pitch_bend_c, 12, 8448
8, 114492, Pitch_bend_c, 12, 8576
8, 114503, Pitch_bend_c, 12, 8704
8, 114531, Pitch_bend_c, 12, 8576
8, 114540, Pitch_bend_c, 12, 8448
8, 114549, Pitch_bend_c, 12, 8192
8, 114560, Pitch_bend_c, 12, 7936
8, 114570, Pitch_bend_c, 12, 7552
8, 114586, Pitch_bend_c, 12, 7680
8, 114588, Pitch_bend_c, 12, 7808
8, 114599, Pitch_bend_c, 12, 7936
8, 114601, Pitch_bend_c, 12, 8064
8, 114612, Pitch_bend_c, 12, 8192
8, 114627, Pitch_bend_c, 12, 8448
8, 114638, Pitch_bend_c, 12, 8576
8, 114661, Pitch_bend_c, 12, 8192
8, 114661, Control_c, 12, 101, 0
8, 114661, Control_c, 12, 100, 0
8, 114661, Control_c, 12, 6, 8
8, 114661, Control_c, 12, 38, 127
8, 114663, Pitch_bend_c, 12, 8064
8, 114665, Pitch_bend_c, 12, 7808
8, 114667, Pitch_bend_c, 12, 7552
8, 114669, Pitch_bend_c, 12, 7296
8, 114672, Pitch_bend_c, 12, 7040
8, 114674, Pitch_bend_c, 12, 6784
8, 114676, Pitch_bend_c, 12, 6528
8, 114678, Pitch_bend_c, 12, 6272
8, 114680, Pitch_bend_c, 12, 6016
8, 114682, Pitch_bend_c, 12, 5760
8, 114685, Pitch_bend_c, 12, 5504
8, 114687, Pitch_bend_c, 12, 5376
8, 114689, Pitch_bend_c, 12, 5120
8, 114691, Pitch_bend_c, 12, 4864
8, 114693, Pitch_bend_c, 12, 4608
8, 114696, Pitch_bend_c, 12, 4352
8, 114698, Pitch_bend_c, 12, 4096
8, 114700, Pitch_bend_c, 12, 3840
8, 114702, Pitch_bend_c, 12, 3584
8, 114704, Pitch_bend_c, 12, 3328
8, 114706, Pitch_bend_c, 12, 3072
8, 114709, Pitch_bend_c, 12, 2816
8, 114711, Pitch_bend_c, 12, 2688
8, 114713, Pitch_bend_c, 12, 2432
8, 114715, Pitch_bend_c, 12, 2176
8, 114717, Pitch_bend_c, 12, 1920
8, 114720, Pitch_bend_c, 12, 1664
8, 114722, Pitch_bend_c, 12, 1408
8, 114724, Pitch_bend_c, 12, 1152
8, 114726, Pitch_bend_c, 12, 896
8, 114728, Pitch_bend_c, 12, 640
8, 114730, Pitch_bend_c, 12, 384
8, 114733, Pitch_bend_c, 12, 128
8, 114735, Note_on_c, 12, 88, 0
8, 114780, Note_on_c, 12, 78, 100
8, 114781, Pitch_bend_c, 12, 128
8, 114781, Control_c, 12, 101, 0
8, 114781, Control_c, 12, 100, 0
8, 114781, Control_c, 12, 6, 2
8, 114781, Control_c, 12, 38, 127
8, 114783, Pitch_bend_c, 12, 512
8, 114785, Pitch_bend_c, 12, 1024
8, 114787, Pitch_bend_c, 12, 1408
8, 114789, Pitch_bend_c, 12, 1920
8, 114792, Pitch_bend_c, 12, 2304
8, 114794, Pitch_bend_c, 12, 2816
8, 114796, Pitch_bend_c, 12, 3200
8, 114798, Pitch_bend_c, 12, 3712
8, 114800, Pitch_bend_c, 12, 4096
8, 114802, Pitch_bend_c, 12, 4608
8, 114805, Pitch_bend_c, 12, 4992
8, 114807, Pitch_bend_c, 12, 5504
8, 114809, Pitch_bend_c, 12, 5888
8, 114811, Pitch_bend_c, 12, 6400
8, 114813, Pitch_bend_c, 12, 6784
8, 114816, Pitch_bend_c, 12, 7296
8, 114818, Pitch_bend_c, 12, 7680
8, 114820, Pitch_bend_c, 12, 8192
8, 114960, Note_on_c, 12, 78, 0
8, 114960, Note_on_c, 12, 83, 100
8, 115114, Pitch_bend_c, 12, 8192
8, 115117, Pitch_bend_c, 12, 8832
8, 115119, Pitch_bend_c, 12, 9600
8, 115121, Pitch_bend_c, 12, 10368
8, 115123, Pitch_bend_c, 12, 11008
8, 115125, Pitch_bend_c, 12, 11776
8, 115128, Pitch_bend_c, 12, 12544
8, 115130, Pitch_bend_c, 12, 13312
8, 115132, Pitch_bend_c, 12, 13952
8, 115134, Pitch_bend_c, 12, 14720
8, 115136, Pitch_bend_c, 12, 15488
8, 115138, Pitch_bend_c, 12, 16256
8, 115140, Note_on_c, 12, 83, 0
8, 115140, Note_on_c, 12, 86, 100
8, 115141, Pitch_bend_c, 12, 8192
8, 115143, Pitch_bend_c, 12, 4096
8, 115145, Pitch_bend_c, 12, 4480
8, 115147, Pitch_bend_c, 12, 4992
8, 115149, Pitch_bend_c, 12, 5376
8, 115152, Pitch_bend_c, 12, 5888
8, 115154, Pitch_bend_c, 12, 6272
8, 115156, Pitch_bend_c, 12, 6784
8, 115158, Pitch_bend_c, 12, 7168
8, 115160, Pitch_bend_c, 12, 7680
8, 115162, Pitch_bend_c, 12, 8192
8, 115182, Pitch_bend_c, 12, 8192
8, 115197, Pitch_bend_c, 12, 8320
8, 115200, Pitch_bend_c, 12, 8448
8, 115208, Pitch_bend_c, 12, 8576
8, 115210, Pitch_bend_c, 12, 8704
8, 115226, Pitch_bend_c, 12, 8448
8, 115228, Pitch_bend_c, 12, 8320
8, 115230, Pitch_bend_c, 12, 8192
8, 115234, Pitch_bend_c, 12, 7936
8, 115239, Pitch_bend_c, 12, 7680
8, 115243, Pitch_bend_c, 12, 7552
8, 115252, Pitch_bend_c, 12, 7680
8, 115261, Pitch_bend_c, 12, 7936
8, 115263, Pitch_bend_c, 12, 8064
8, 115269, Pitch_bend_c, 12, 8320
8, 115276, Pitch_bend_c, 12, 8448
8, 115278, Pitch_bend_c, 12, 8576
8, 115282, Pitch_bend_c, 12, 8704
8, 115287, Pitch_bend_c, 12, 8832
8, 115293, Pitch_bend_c, 12, 8960
8, 115304, Pitch_bend_c, 12, 8832
8, 115309, Pitch_bend_c, 12, 8576
8, 115311, Pitch_bend_c, 12, 8448
8, 115313, Pitch_bend_c, 12, 8320
8, 115320, Pitch_bend_c, 12, 8064
8, 115322, Pitch_bend_c, 12, 7808
8, 115324, Pitch_bend_c, 12, 7680
8, 115339, Pitch_bend_c, 12, 7936
8, 115341, Pitch_bend_c, 12, 8064
8, 115344, Pitch_bend_c, 12, 8192
8, 115346, Pitch_bend_c, 12, 8320
8, 115348, Pitch_bend_c, 12, 8448
8, 115370, Pitch_bend_c, 12, 8320
8, 115372, Pitch_bend_c, 12, 8192
8, 115374, Pitch_bend_c, 12, 8064
8, 115380, Note_on_c, 12, 86, 0
8, 115380, Note_on_c, 12, 85, 100
8, 115560, Note_on_c, 12, 85, 0
8, 115560, Pitch_bend_c, 12, 8192
8, 115560, Note_on_c, 12, 83, 100
8, 115562, Pitch_bend_c, 12, 8320
8, 115566, Pitch_bend_c, 12, 8448
8, 115568, Pitch_bend_c, 12, 8576
8, 115573, Pitch_bend_c, 12, 8704
8, 115579, Pitch_bend_c, 12, 8576
8, 115584, Pitch_bend_c, 12, 8448
8, 115588, Pitch_bend_c, 12, 8320
8, 115590, Pitch_bend_c, 12, 8064
8, 115594, Pitch_bend_c, 12, 7936
8, 115610, Pitch_bend_c, 12, 8192
8, 115614, Pitch_bend_c, 12, 8320
8, 115618, Pitch_bend_c, 12, 8448
8, 115621, Pitch_bend_c, 12, 8576
8, 115623, Pitch_bend_c, 12, 8704
8, 115638, Pitch_bend_c, 12, 8576
8, 115642, Pitch_bend_c, 12, 8448
8, 115647, Pitch_bend_c, 12, 8320
8, 115651, Pitch_bend_c, 12, 8064
8, 115658, Pitch_bend_c, 12, 7936
8, 115671, Pitch_bend_c, 12, 8064
8, 115673, Pitch_bend_c, 12, 8192
8, 115677, Pitch_bend_c, 12, 8320
8, 115680, Pitch_bend_c, 12, 8704
8, 115704, Pitch_bend_c, 12, 8576
8, 115706, Pitch_bend_c, 12, 8448
8, 115708, Pitch_bend_c, 12, 8320
8, 115712, Pitch_bend_c, 12, 8064
8, 115736, Pitch_bend_c, 12, 8192
8, 115740, Note_on_c, 12, 83, 0
8, 115740, Note_on_c, 12, 80, 100
8, 115920, Note_on_c, 12, 80, 0
8, 115920, Note_on_c, 12, 81, 100
8, 116100, Note_on_c, 12, 81, 0
8, 116100, Note_on_c, 12, 83, 100
8, 116220, Note_on_c, 12, 83, 0
8, 116220, Note_on_c, 12, 84, 100
8, 116400, Note_on_c, 12, 84, 0
8, 116400, Note_on_c, 12, 86, 127
8, 116499, Pitch_bend_c, 12, 8192
8, 116500, Pitch_bend_c, 12, 8576
8, 116502, Pitch_bend_c, 12, 9088
8, 116503, Pitch_bend_c, 12, 9600
8, 116504, Pitch_bend_c, 12, 9984
8, 116505, Pitch_bend_c, 12, 10496
8, 116506, Pitch_bend_c, 12, 11008
8, 116508, Pitch_bend_c, 12, 11392
8, 116509, Pitch_bend_c, 12, 11904
8, 116510, Pitch_bend_c, 12, 12416
8, 116511, Pitch_bend_c, 12, 12928
8, 116512, Pitch_bend_c, 12, 13312
8, 116514, Pitch_bend_c, 12, 13824
8, 116515, Pitch_bend_c, 12, 14336
8, 116516, Pitch_bend_c, 12, 14720
8, 116517, Pitch_bend_c, 12, 15232
8, 116518, Pitch_bend_c, 12, 15744
8, 116520, Note_on_c, 12, 86, 0
8, 116520, Note_on_c, 12, 88, 107
8, 116523, Pitch_bend_c, 12, 8192
8, 116524, Pitch_bend_c, 12, 8448
8, 116526, Pitch_bend_c, 12, 8576
8, 116527, Pitch_bend_c, 12, 8832
8, 116528, Pitch_bend_c, 12, 9088
8, 116530, Pitch_bend_c, 12, 9216
8, 116532, Pitch_bend_c, 12, 9344
8, 116534, Pitch_bend_c, 12, 9472
8, 116538, Pitch_bend_c, 12, 9600
8, 116544, Pitch_bend_c, 12, 9472
8, 116546, Pitch_bend_c, 12, 9344
8, 116548, Pitch_bend_c, 12, 9088
8, 116551, Pitch_bend_c, 12, 8832
8, 116552, Pitch_bend_c, 12, 8704
8, 116553, Pitch_bend_c, 12, 8576
8, 116554, Pitch_bend_c, 12, 8448
8, 116557, Pitch_bend_c, 12, 8192
8, 116558, Pitch_bend_c, 12, 8064
8, 116559, Pitch_bend_c, 12, 7936
8, 116560, Pitch_bend_c, 12, 7808
8, 116562, Pitch_bend_c, 12, 7680
8, 116565, Pitch_bend_c, 12, 7552
8, 116575, Pitch_bend_c, 12, 7680
8, 116576, Pitch_bend_c, 12, 7808
8, 116578, Pitch_bend_c, 12, 7936
8, 116580, Pitch_bend_c, 12, 8064
8, 116581, Pitch_bend_c, 12, 8320
8, 116583, Pitch_bend_c, 12, 8448
8, 116584, Pitch_bend_c, 12, 8576
8, 116586, Pitch_bend_c, 12, 8704
8, 116588, Pitch_bend_c, 12, 8832
8, 116589, Pitch_bend_c, 12, 9088
8, 116592, Pitch_bend_c, 12, 9216
8, 116607, Pitch_bend_c, 12, 8960
8, 116608, Pitch_bend_c, 12, 8832
8, 116610, Pitch_bend_c, 12, 8704
8, 116612, Pitch_bend_c, 12, 8448
8, 116613, Pitch_bend_c, 12, 8192
8, 116614, Pitch_bend_c, 12, 8064
8, 116616, Pitch_bend_c, 12, 7936
8, 116617, Pitch_bend_c, 12, 7808
8, 116618, Pitch_bend_c, 12, 7680
8, 116622, Pitch_bend_c, 12, 7424
8, 116623, Pitch_bend_c, 12, 7296
8, 116632, Pitch_bend_c, 12, 7552
8, 116634, Pitch_bend_c, 12, 7680
8, 116635, Pitch_bend_c, 12, 7936
8, 116636, Pitch_bend_c, 12, 8064
8, 116638, Pitch_bend_c, 12, 8320
8, 116641, Pitch_bend_c, 12, 8448
8, 116642, Pitch_bend_c, 12, 8704
8, 116647, Pitch_bend_c, 12, 8832
8, 116652, Pitch_bend_c, 12, 9216
8, 116655, Pitch_bend_c, 12, 9344
8, 116668, Pitch_bend_c, 12, 9216
8, 116670, Pitch_bend_c, 12, 9088
8, 116671, Pitch_bend_c, 12, 8960
8, 116672, Pitch_bend_c, 12, 8832
8, 116673, Pitch_bend_c, 12, 8704
8, 116674, Pitch_bend_c, 12, 8576
8, 116677, Pitch_bend_c, 12, 8448
8, 116678, Pitch_bend_c, 12, 8320
8, 116679, Pitch_bend_c, 12, 8192
8, 116700, Note_on_c, 12, 88, 0
8, 116700, Note_on_c, 12, 79, 90
8, 116730, Note_on_c, 12, 79, 0
8, 116730, Note_on_c, 12, 81, 100
8, 116880, Note_on_c, 12, 81, 0
8, 116880, Note_on_c, 12, 79, 100
8, 117000, Note_on_c, 12, 79, 0
8, 117000, Note_on_c, 12, 81, 90
8, 117030, Note_on_c, 12, 81, 0
8, 117030, Note_on_c, 12, 79, 90
8, 117060, Note_on_c, 12, 79, 0
8, 117060, Note_on_c, 12, 78, 100
8, 117180, Note_on_c, 12, 78, 0
8, 117180, Note_on_c, 12, 74, 100
8, 117218, Pitch_bend_c, 12, 8192
8, 117222, Pitch_bend_c, 12, 8448
8, 117224, Pitch_bend_c, 12, 8576
8, 117225, Pitch_bend_c, 12, 8704
8, 117228, Pitch_bend_c, 12, 8832
8, 117231, Pitch_bend_c, 12, 8960
8, 117232, Pitch_bend_c, 12, 9088
8, 117248, Pitch_bend_c, 12, 8832
8, 117252, Pitch_bend_c, 12, 8704
8, 117253, Pitch_bend_c, 12, 8576
8, 117256, Pitch_bend_c, 12, 8448
8, 117258, Pitch_bend_c, 12, 8320
8, 117261, Pitch_bend_c, 12, 8064
8, 117265, Pitch_bend_c, 12, 7936
8, 117266, Pitch_bend_c, 12, 7808
8, 117270, Pitch_bend_c, 12, 7680
8, 117274, Pitch_bend_c, 12, 7424
8, 117276, Pitch_bend_c, 12, 7296
8, 117291, Pitch_bend_c, 12, 7424
8, 117295, Pitch_bend_c, 12, 7552
8, 117297, Pitch_bend_c, 12, 7680
8, 117300, Pitch_bend_c, 12, 7808
8, 117303, Pitch_bend_c, 12, 7936
8, 117306, Pitch_bend_c, 12, 8064
8, 117308, Pitch_bend_c, 12, 8192
8, 117312, Pitch_bend_c, 12, 8320
8, 117315, Pitch_bend_c, 12, 8576
8, 117319, Pitch_bend_c, 12, 8704
8, 117324, Pitch_bend_c, 12, 8832
8, 117349, Pitch_bend_c, 12, 8704
8, 117351, Pitch_bend_c, 12, 8576
8, 117354, Pitch_bend_c, 12, 8448
8, 117356, Pitch_bend_c, 12, 8320
8, 117358, Pitch_bend_c, 12, 8064
8, 117362, Pitch_bend_c, 12, 7936
8, 117366, Pitch_bend_c, 12, 7808
8, 117367, Pitch_bend_c, 12, 7680
8, 117392, Pitch_bend_c, 12, 7808
8, 117396, Pitch_bend_c, 12, 7936
8, 117397, Pitch_bend_c, 12, 8064
8, 117400, Pitch_bend_c, 12, 8192
8, 117404, Pitch_bend_c, 12, 8320
8, 117409, Pitch_bend_c, 12, 8448
8, 117410, Pitch_bend_c, 12, 8576
8, 117416, Pitch_bend_c, 12, 8704
8, 117440, Pitch_bend_c, 12, 8576
8, 117442, Pitch_bend_c, 12, 8448
8, 117445, Pitch_bend_c, 12, 8320
8, 117447, Pitch_bend_c, 12, 8192
8, 117450, Pitch_bend_c, 12, 7936
8, 117454, Pitch_bend_c, 12, 7808
8, 117458, Pitch_bend_c, 12, 7680
8, 117468, Pitch_bend_c, 12, 7808
8, 117472, Pitch_bend_c, 12, 7936
8, 117478, Pitch_bend_c, 12, 8064
8, 117482, Pitch_bend_c, 12, 8192
8, 117488, Pitch_bend_c, 12, 8320
8, 117495, Pitch_bend_c, 12, 8448
8, 117500, Pitch_bend_c, 12, 8576
8, 117505, Pitch_bend_c, 12, 8704
8, 117541, Control_c, 12, 101, 0
8, 117541, Control_c, 12, 100, 0
8, 117541, Control_c, 12, 6, 6
8, 117541, Control_c, 12, 38, 127
8, 117541, Pitch_bend_c, 12, 8192
8, 117542, Pitch_bend_c, 12, 8064
8, 117543, Pitch_bend_c, 12, 7936
8, 117544, Pitch_bend_c, 12, 7808
8, 117546, Pitch_bend_c, 12, 7552
8, 117547, Pitch_bend_c, 12, 7424
8, 117548, Pitch_bend_c, 12, 7296
8, 117549, Pitch_bend_c, 12, 7040
8, 117550, Pitch_bend_c, 12, 6912
8, 117552, Pitch_bend_c, 12, 6784
8, 117553, Pitch_bend_c, 12, 6656
8, 117554, Pitch_bend_c, 12, 6400
8, 117555, Pitch_bend_c, 12, 6272
8, 117556, Pitch_bend_c, 12, 6144
8, 117558, Pitch_bend_c, 12, 5888
8, 117559, Pitch_bend_c, 12, 5760
8, 117560, Pitch_bend_c, 12, 5632
8, 117561, Pitch_bend_c, 12, 5504
8, 117562, Pitch_bend_c, 12, 5248
8, 117564, Pitch_bend_c, 12, 5120
8, 117565, Pitch_bend_c, 12, 4992
8, 117566, Pitch_bend_c, 12, 4736
8, 117567, Pitch_bend_c, 12, 4608
8, 117568, Pitch_bend_c, 12, 4480
8, 117570, Pitch_bend_c, 12, 4352
8, 117571, Pitch_bend_c, 12, 4096
8, 117572, Pitch_bend_c, 12, 3968
8, 117573, Pitch_bend_c, 12, 3840
8, 117574, Pitch_bend_c, 12, 3584
8, 117576, Pitch_bend_c, 12, 3456
8, 117577, Pitch_bend_c, 12, 3328
8, 117578, Pitch_bend_c, 12, 3200
8, 117579, Pitch_bend_c, 12, 2944
8, 117580, Pitch_bend_c, 12, 2816
8, 117582, Pitch_bend_c, 12, 2688
8, 117583, Pitch_bend_c, 12, 2432
8, 117584, Pitch_bend_c, 12, 2304
8, 117585, Pitch_bend_c, 12, 2176
8, 117586, Pitch_bend_c, 12, 2048
8, 117588, Pitch_bend_c, 12, 1792
8, 117589, Pitch_bend_c, 12, 1664
8, 117590, Pitch_bend_c, 12, 1536
8, 117591, Pitch_bend_c, 12, 1280
8, 117592, Pitch_bend_c, 12, 1152
8, 117594, Pitch_bend_c, 12, 1024
8, 117595, Pitch_bend_c, 12, 896
8, 117596, Pitch_bend_c, 12, 640
8, 117597, Pitch_bend_c, 12, 512
8, 117598, Pitch_bend_c, 12, 384
8, 117600, Note_on_c, 12, 74, 0
8, 117600, Pitch_bend_c, 12, 128
8, 117660, Note_on_c, 12, 71, 100
8, 117662, Pitch_bend_c, 12, 128
8, 117663, Pitch_bend_c, 12, 384
8, 117664, Pitch_bend_c, 12, 640
8, 117666, Pitch_bend_c, 12, 896
8, 117667, Pitch_bend_c, 12, 1152
8, 117668, Pitch_bend_c, 12, 1408
8, 117669, Pitch_bend_c, 12, 1664
8, 117670, Pitch_bend_c, 12, 1920
8, 117672, Pitch_bend_c, 12, 2176
8, 117673, Pitch_bend_c, 12, 2432
8, 117674, Pitch_bend_c, 12, 2816
8, 117675, Pitch_bend_c, 12, 3072
8, 117676, Pitch_bend_c, 12, 3328
8, 117678, Pitch_bend_c, 12, 3584
8, 117679, Pitch_bend_c, 12, 3840
8, 117680, Pitch_bend_c, 12, 4096
8, 117681, Pitch_bend_c, 12, 4352
8, 117682, Pitch_bend_c, 12, 4608
8, 117684, Pitch_bend_c, 12, 4864
8, 117685, Pitch_bend_c, 12, 5120
8, 117686, Pitch_bend_c, 12, 5504
8, 117687, Pitch_bend_c, 12, 5760
8, 117688, Pitch_bend_c, 12, 6016
8, 117690, Pitch_bend_c, 12, 6272
8, 117691, Pitch_bend_c, 12, 6528
8, 117692, Pitch_bend_c, 12, 6784
8, 117693, Pitch_bend_c, 12, 7040
8, 117694, Pitch_bend_c, 12, 7296
8, 117696, Pitch_bend_c, 12, 7552
8, 117697, Pitch_bend_c, 12, 7808
8, 117698, Pitch_bend_c, 12, 8192
8, 117720, Note_on_c, 12, 71, 0
8, 117720, Note_on_c, 12, 76, 100
8, 117780, Note_on_c, 12, 76, 0
8, 117780, Note_on_c, 12, 80, 100
8, 117840, Note_on_c, 12, 80, 0
8, 117840, Note_on_c, 12, 83, 100
8, 117900, Note_on_c, 12, 83, 0
8, 117900, Note_on_c, 12, 81, 100
8, 117901, Pitch_bend_c, 12, 4480
8, 117903, Pitch_bend_c, 12, 4608
8, 117904, Pitch_bend_c, 12, 4736
8, 117906, Pitch_bend_c, 12, 4864
8, 117907, Pitch_bend_c, 12, 4992
8, 117908, Pitch_bend_c, 12, 5120
8, 117909, Pitch_bend_c, 12, 5248
8, 117910, Pitch_bend_c, 12, 5376
8, 117912, Pitch_bend_c, 12, 5504
8, 117913, Pitch_bend_c, 12, 5632
8, 117914, Pitch_bend_c, 12, 5760
8, 117915, Pitch_bend_c, 12, 5888
8, 117916, Pitch_bend_c, 12, 6016
8, 117918, Pitch_bend_c, 12, 6144
8, 117919, Pitch_bend_c, 12, 6272
8, 117921, Pitch_bend_c, 12, 6400
8, 117922, Pitch_bend_c, 12, 6528
8, 117924, Pitch_bend_c, 12, 6656
8, 117925, Pitch_bend_c, 12, 6784
8, 117926, Pitch_bend_c, 12, 6912
8, 117927, Pitch_bend_c, 12, 7040
8, 117928, Pitch_bend_c, 12, 7168
8, 117930, Pitch_bend_c, 12, 7296
8, 117931, Pitch_bend_c, 12, 7424
8, 117932, Pitch_bend_c, 12, 7552
8, 117933, Pitch_bend_c, 12, 7680
8, 117934, Pitch_bend_c, 12, 7808
8, 117936, Pitch_bend_c, 12, 7936
8, 117937, Pitch_bend_c, 12, 8064
8, 117938, Pitch_bend_c, 12, 8192
8, 118200, Note_on_c, 12, 81, 0
8, 118200, Note_on_c, 12, 80, 80
8, 118260, Note_on_c, 12, 80, 0
8, 118260, Note_on_c, 12, 76, 80
8, 118320, Note_on_c, 12, 76, 0
8, 118320, Note_on_c, 12, 71, 78
8, 118320, Control_c, 12, 101, 0
8, 118320, Control_c, 12, 100, 0
8, 118320, Control_c, 12, 6, 3
8, 118320, Control_c, 12, 38, 127
8, 118320, Pitch_bend_c, 12, 8192
8, 118321, Pitch_bend_c, 12, 8448
8, 118323, Pitch_bend_c, 12, 8576
8, 118324, Pitch_bend_c, 12, 8832
8, 118325, Pitch_bend_c, 12, 9088
8, 118327, Pitch_bend_c, 12, 9216
8, 118329, Pitch_bend_c, 12, 9344
8, 118331, Pitch_bend_c, 12, 9472
8, 118335, Pitch_bend_c, 12, 9600
8, 118341, Pitch_bend_c, 12, 9472
8, 118343, Pitch_bend_c, 12, 9344
8, 118345, Pitch_bend_c, 12, 9088
8, 118348, Pitch_bend_c, 12, 8832
8, 118349, Pitch_bend_c, 12, 8704
8, 118350, Pitch_bend_c, 12, 8576
8, 118351, Pitch_bend_c, 12, 8448
8, 118354, Pitch_bend_c, 12, 8192
8, 118355, Pitch_bend_c, 12, 8064
8, 118356, Pitch_bend_c, 12, 7936
8, 118357, Pitch_bend_c, 12, 7808
8, 118359, Pitch_bend_c, 12, 7680
8, 118362, Pitch_bend_c, 12, 7552
8, 118372, Pitch_bend_c, 12, 7680
8, 118373, Pitch_bend_c, 12, 7808
8, 118375, Pitch_bend_c, 12, 7936
8, 118377, Pitch_bend_c, 12, 8064
8, 118378, Pitch_bend_c, 12, 8320
8, 118380, Pitch_bend_c, 12, 8448
8, 118381, Pitch_bend_c, 12, 8576
8, 118383, Pitch_bend_c, 12, 8704
8, 118385, Pitch_bend_c, 12, 8832
8, 118386, Pitch_bend_c, 12, 9088
8, 118389, Pitch_bend_c, 12, 9216
8, 118404, Pitch_bend_c, 12, 8960
8, 118405, Pitch_bend_c, 12, 8832
8, 118407, Pitch_bend_c, 12, 8704
8, 118409, Pitch_bend_c, 12, 8448
8, 118410, Pitch_bend_c, 12, 8192
8, 118411, Pitch_bend_c, 12, 8064
8, 118413, Pitch_bend_c, 12, 7936
8, 118414, Pitch_bend_c, 12, 7808
8, 118415, Pitch_bend_c, 12, 7680
8, 118419, Pitch_bend_c, 12, 7424
8, 118420, Pitch_bend_c, 12, 7296
8, 118429, Pitch_bend_c, 12, 7552
8, 118431, Pitch_bend_c, 12, 7680
8, 118432, Pitch_bend_c, 12, 7936
8, 118433, Pitch_bend_c, 12, 8064
8, 118435, Pitch_bend_c, 12, 8320
8, 118438, Pitch_bend_c, 12, 8448
8, 118439, Pitch_bend_c, 12, 8704
8, 118444, Pitch_bend_c, 12, 8832
8, 118449, Pitch_bend_c, 12, 9216
8, 118452, Pitch_bend_c, 12, 9344
8, 118465, Pitch_bend_c, 12, 9216
8, 118467, Pitch_bend_c, 12, 9088
8, 118468, Pitch_bend_c, 12, 8960
8, 118469, Pitch_bend_c, 12, 8832
8, 118470, Pitch_bend_c, 12, 8704
8, 118471, Pitch_bend_c, 12, 8576
8, 118474, Pitch_bend_c, 12, 8448
8, 118475, Pitch_bend_c, 12, 8320
8, 118476, Pitch_bend_c, 12, 8192
8, 118500, Note_on_c, 12, 71, 0
8, 118500, Note_on_c, 12, 78, 100
8, 118618, Pitch_bend_c, 12, 8192
8, 118620, Note_on_c, 12, 78, 0
8, 118620, Control_c, 12, 101, 0
8, 118620, Control_c, 12, 100, 0
8, 118620, Control_c, 12, 6, 4
8, 118620, Control_c, 12, 38, 127
8, 118620, Note_on_c, 12, 74, 100
8, 118621, Pitch_bend_c, 12, 8448
8, 118622, Pitch_bend_c, 12, 8576
8, 118623, Pitch_bend_c, 12, 8704
8, 118626, Pitch_bend_c, 12, 8960
8, 118627, Pitch_bend_c, 12, 9088
8, 118629, Pitch_bend_c, 12, 9216
8, 118644, Pitch_bend_c, 12, 9088
8, 118646, Pitch_bend_c, 12, 8960
8, 118647, Pitch_bend_c, 12, 8832
8, 118650, Pitch_bend_c, 12, 8704
8, 118651, Pitch_bend_c, 12, 8576
8, 118653, Pitch_bend_c, 12, 8448
8, 118657, Pitch_bend_c, 12, 8320
8, 118660, Pitch_bend_c, 12, 8192
8, 118689, Pitch_bend_c, 12, 8192
8, 118693, Pitch_bend_c, 12, 8448
8, 118695, Pitch_bend_c, 12, 8704
8, 118698, Pitch_bend_c, 12, 8832
8, 118700, Pitch_bend_c, 12, 8960
8, 118702, Pitch_bend_c, 12, 9088
8, 118705, Pitch_bend_c, 12, 9216
8, 118707, Pitch_bend_c, 12, 9344
8, 118726, Pitch_bend_c, 12, 9088
8, 118730, Pitch_bend_c, 12, 8960
8, 118731, Pitch_bend_c, 12, 8832
8, 118734, Pitch_bend_c, 12, 8704
8, 118736, Pitch_bend_c, 12, 8576
8, 118737, Pitch_bend_c, 12, 8448
8, 118738, Pitch_bend_c, 12, 8320
8, 118740, Pitch_bend_c, 12, 8192
8, 118750, Pitch_bend_c, 12, 8192
8, 118755, Pitch_bend_c, 12, 8320
8, 118758, Pitch_bend_c, 12, 8448
8, 118777, Pitch_bend_c, 12, 8320
8, 118778, Pitch_bend_c, 12, 8064
8, 118782, Pitch_bend_c, 12, 7936
8, 118784, Pitch_bend_c, 12, 7808
8, 118794, Pitch_bend_c, 12, 7936
8, 118796, Pitch_bend_c, 12, 8064
8, 118797, Pitch_bend_c, 12, 8192
8, 118798, Pitch_bend_c, 12, 8320
8, 118800, Note_on_c, 12, 74, 0
8, 118800, Note_on_c, 12, 81, 100
8, 118980, Note_on_c, 12, 81, 0
8, 118980, Note_on_c, 12, 73, 87
8, 119220, Note_on_c, 12, 73, 0
8, 119220, Note_on_c, 12, 74, 80
8, 119260, Note_on_c, 12, 74, 0
8, 119260, Note_on_c, 12, 73, 82
8, 119300, Note_on_c, 12, 73, 0
8, 119300, Note_on_c, 12, 71, 85
8, 119340, Note_on_c, 12, 71, 0
8, 119340, Note_on_c, 12, 73, 87
8, 119380, Note_on_c, 12, 73, 0
8, 119380, Note_on_c, 12, 74, 90
8, 119420, Note_on_c, 12, 74, 0
8, 119420, Note_on_c, 12, 76, 92
8, 119460, Note_on_c, 12, 76, 0
8, 119460, Note_on_c, 12, 78, 95
8, 119500, Note_on_c, 12, 78, 0
8, 119500, Note_on_c, 12, 80, 97
8, 119540, Note_on_c, 12, 80, 0
8, 119540, Note_on_c, 12, 81, 100
8, 119578, Pitch_bend_c, 12, 8320
8, 119580, Note_on_c, 12, 81, 0
8, 119580, Note_on_c, 12, 80, 100
8, 119581, Pitch_bend_c, 12, 8576
8, 119582, Pitch_bend_c, 12, 8704
8, 119584, Pitch_bend_c, 12, 8960
8, 119588, Pitch_bend_c, 12, 9088
8, 119604, Pitch_bend_c, 12, 8960
8, 119606, Pitch_bend_c, 12, 8832
8, 119607, Pitch_bend_c, 12, 8704
8, 119608, Pitch_bend_c, 12, 8576
8, 119612, Pitch_bend_c, 12, 8192
8, 119617, Pitch_bend_c, 12, 8320
8, 119618, Pitch_bend_c, 12, 8448
8, 119620, Pitch_bend_c, 12, 8576
8, 119623, Pitch_bend_c, 12, 8704
8, 119625, Pitch_bend_c, 12, 8832
8, 119629, Pitch_bend_c, 12, 8960
8, 119636, Pitch_bend_c, 12, 9088
8, 119656, Pitch_bend_c, 12, 8832
8, 119659, Pitch_bend_c, 12, 8704
8, 119661, Pitch_bend_c, 12, 8448
8, 119664, Pitch_bend_c, 12, 8320
8, 119666, Pitch_bend_c, 12, 8192
8, 119676, Pitch_bend_c, 12, 8448
8, 119677, Pitch_bend_c, 12, 8576
8, 119678, Pitch_bend_c, 12, 8704
8, 119679, Pitch_bend_c, 12, 8832
8, 119680, Pitch_bend_c, 12, 8960
8, 119685, Pitch_bend_c, 12, 9088
8, 119690, Pitch_bend_c, 12, 9216
8, 119696, Pitch_bend_c, 12, 9344
8, 119710, Pitch_bend_c, 12, 9088
8, 119713, Pitch_bend_c, 12, 8960
8, 119714, Pitch_bend_c, 12, 8832
8, 119715, Pitch_bend_c, 12, 8704
8, 119718, Pitch_bend_c, 12, 8576
8, 119719, Pitch_bend_c, 12, 8448
8, 119720, Pitch_bend_c, 12, 8320
8, 119724, Pitch_bend_c, 12, 8192
8, 119760, Note_on_c, 12, 80, 0
8, 119760, Note_on_c, 12, 81, 100
8, 119940, Note_on_c, 12, 81, 0
8, 119940, Note_on_c, 12, 83, 100
8, 120060, Note_on_c, 12, 83, 0
8, 120060, Note_on_c, 12, 84, 100
8, 120120, Note_on_c, 12, 84, 0
8, 120120, Note_on_c, 12, 84, 100
8, 120140, Note_on_c, 12, 84, 0
8, 120140, Note_on_c, 12, 83, 100
8, 120160, Note_on_c, 12, 83, 0
8, 120160, Note_on_c, 12, 81, 100
8, 120180, Note_on_c, 12, 81, 0
8, 120180, Note_on_c, 12, 79, 100
8, 120200, Note_on_c, 12, 79, 0
8, 120200, Note_on_c, 12, 79, 100
8, 120220, Note_on_c, 12, 79, 0
8, 120220, Note_on_c, 12, 78, 100
8, 120240, Note_on_c, 12, 78, 0
8, 120240, Note_on_c, 12, 76, 100
8, 120260, Note_on_c, 12, 76, 0
8, 120260, Note_on_c, 12, 74, 100
8, 120280, Note_on_c, 12, 74, 0
8, 120280, Note_on_c, 12, 72, 100
8, 120300, Note_on_c, 12, 72, 0
8, 120300, Note_on_c, 12, 71, 100
8, 120320, Note_on_c, 12, 71, 0
8, 120320, Note_on_c, 12, 69, 100
8, 120340, Note_on_c, 12, 69, 0
8, 120340, Note_on_c, 12, 67, 100
8, 120360, Note_on_c, 12, 67, 0
8, 120360, Note_on_c, 12, 66, 80
8, 120361, Pitch_bend_c, 12, 9856
8, 120363, Pitch_bend_c, 12, 9728
8, 120366, Pitch_bend_c, 12, 9600
8, 120368, Pitch_bend_c, 12, 9472
8, 120370, Pitch_bend_c, 12, 9344
8, 120373, Pitch_bend_c, 12, 9216
8, 120375, Pitch_bend_c, 12, 9088
8, 120376, Pitch_bend_c, 12, 8960
8, 120379, Pitch_bend_c, 12, 8832
8, 120381, Pitch_bend_c, 12, 8704
8, 120384, Pitch_bend_c, 12, 8576
8, 120386, Pitch_bend_c, 12, 8448
8, 120388, Pitch_bend_c, 12, 8320
8, 120390, Pitch_bend_c, 12, 8192
8, 120420, Note_on_c, 12, 66, 0
8, 120420, Note_on_c, 12, 74, 100
8, 120421, Pitch_bend_c, 12, 8192
8, 120422, Pitch_bend_c, 12, 8448
8, 120423, Pitch_bend_c, 12, 8576
8, 120424, Pitch_bend_c, 12, 8832
8, 120426, Pitch_bend_c, 12, 8960
8, 120427, Pitch_bend_c, 12, 9088
8, 120429, Pitch_bend_c, 12, 9216
8, 120432, Pitch_bend_c, 12, 9472
8, 120445, Pitch_bend_c, 12, 9344
8, 120447, Pitch_bend_c, 12, 9216
8, 120448, Pitch_bend_c, 12, 9088
8, 120451, Pitch_bend_c, 12, 8832
8, 120454, Pitch_bend_c, 12, 8576
8, 120456, Pitch_bend_c, 12, 8320
8, 120457, Pitch_bend_c, 12, 8192
8, 120489, Pitch_bend_c, 12, 8192
8, 120493, Pitch_bend_c, 12, 8448
8, 120495, Pitch_bend_c, 12, 8576
8, 120498, Pitch_bend_c, 12, 8704
8, 120500, Pitch_bend_c, 12, 8832
8, 120501, Pitch_bend_c, 12, 8960
8, 120502, Pitch_bend_c, 12, 9088
8, 120506, Pitch_bend_c, 12, 9216
8, 120512, Pitch_bend_c, 12, 9344
8, 120528, Pitch_bend_c, 12, 9216
8, 120531, Pitch_bend_c, 12, 9088
8, 120532, Pitch_bend_c, 12, 8832
8, 120535, Pitch_bend_c, 12, 8576
8, 120537, Pitch_bend_c, 12, 8320
8, 120541, Pitch_bend_c, 12, 8192
8, 120614, Pitch_bend_c, 12, 8192
8, 120615, Pitch_bend_c, 12, 8064
8, 120616, Control_c, 12, 101, 0
8, 120616, Control_c, 12, 100, 0
8, 120616, Control_c, 12, 6, 8
8, 120616, Control_c, 12, 38, 127
8, 120616, Pitch_bend_c, 12, 7936
8, 120618, Pitch_bend_c, 12, 7808
8, 120619, Pitch_bend_c, 12, 7680
8, 120620, Pitch_bend_c, 12, 7552
8, 120621, Pitch_bend_c, 12, 7424
8, 120622, Pitch_bend_c, 12, 7296
8, 120624, Pitch_bend_c, 12, 7168
8, 120625, Pitch_bend_c, 12, 7040
8, 120626, Pitch_bend_c, 12, 6912
8, 120627, Pitch_bend_c, 12, 6784
8, 120628, Pitch_bend_c, 12, 6656
8, 120630, Pitch_bend_c, 12, 6528
8, 120631, Pitch_bend_c, 12, 6400
8, 120632, Pitch_bend_c, 12, 6272
8, 120633, Pitch_bend_c, 12, 6144
8, 120634, Pitch_bend_c, 12, 6016
8, 120636, Pitch_bend_c, 12, 5888
8, 120637, Pitch_bend_c, 12, 5760
8, 120638, Pitch_bend_c, 12, 5632
8, 120639, Pitch_bend_c, 12, 5504
8, 120640, Pitch_bend_c, 12, 5376
8, 120642, Pitch_bend_c, 12, 5248
8, 120643, Pitch_bend_c, 12, 5120
8, 120644, Pitch_bend_c, 12, 4992
8, 120645, Pitch_bend_c, 12, 4864
8, 120646, Pitch_bend_c, 12, 4736
8, 120648, Pitch_bend_c, 12, 4608
8, 120649, Pitch_bend_c, 12, 4480
8, 120650, Pitch_bend_c, 12, 4352
8, 120651, Pitch_bend_c, 12, 4224
8, 120652, Pitch_bend_c, 12, 4096
8, 120654, Pitch_bend_c, 12, 3968
8, 120655, Pitch_bend_c, 12, 3840
8, 120656, Pitch_bend_c, 12, 3712
8, 120657, Pitch_bend_c, 12, 3584
8, 120658, Pitch_bend_c, 12, 3456
8, 120660, Pitch_bend_c, 12, 3328
8, 120661, Pitch_bend_c, 12, 3200
8, 120662, Pitch_bend_c, 12, 3072
8, 120663, Pitch_bend_c, 12, 2944
8, 120664, Pitch_bend_c, 12, 2816
8, 120666, Pitch_bend_c, 12, 2688
8, 120667, Pitch_bend_c, 12, 2560
8, 120668, Pitch_bend_c, 12, 2432
8, 120669, Pitch_bend_c, 12, 2304
8, 120670, Pitch_bend_c, 12, 2176
8, 120672, Pitch_bend_c, 12, 2048
8, 120673, Pitch_bend_c, 12, 1920
8, 120674, Pitch_bend_c, 12, 1792
8, 120675, Pitch_bend_c, 12, 1664
8, 120676, Pitch_bend_c, 12, 1536
8, 120678, Pitch_bend_c, 12, 1408
8, 120679, Pitch_bend_c, 12, 1280
8, 120680, Pitch_bend_c, 12, 1152
8, 120681, Pitch_bend_c, 12, 1024
8, 120682, Pitch_bend_c, 12, 896
8, 120684, Pitch_bend_c, 12, 768
8, 120685, Pitch_bend_c, 12, 640
8, 120686, Pitch_bend_c, 12, 512
8, 120687, Pitch_bend_c, 12, 384
8, 120688, Pitch_bend_c, 12, 256
8, 120690, Note_on_c, 12, 74, 0
8, 120690, Pitch_bend_c, 12, 128
8, 120692, Pitch_bend_c, 12, 8192
8, 120720, Note_on_c, 12, 69, 100
8, 120721, Pitch_bend_c, 12, 5632
8, 120723, Pitch_bend_c, 12, 5760
8, 120724, Pitch_bend_c, 12, 5888
8, 120726, Pitch_bend_c, 12, 6016
8, 120727, Pitch_bend_c, 12, 6144
8, 120728, Pitch_bend_c, 12, 6272
8, 120730, Pitch_bend_c, 12, 6400
8, 120732, Pitch_bend_c, 12, 6528
8, 120733, Pitch_bend_c, 12, 6656
8, 120734, Pitch_bend_c, 12, 6784
8, 120735, Pitch_bend_c, 12, 6912
8, 120738, Pitch_bend_c, 12, 7040
8, 120739, Pitch_bend_c, 12, 7168
8, 120740, Pitch_bend_c, 12, 7296
8, 120741, Pitch_bend_c, 12, 7424
8, 120742, Pitch_bend_c, 12, 7552
8, 120745, Pitch_bend_c, 12, 7680
8, 120746, Pitch_bend_c, 12, 7808
8, 120747, Pitch_bend_c, 12, 7936
8, 120748, Pitch_bend_c, 12, 8064
8, 120750, Pitch_bend_c, 12, 8192
8, 120780, Note_on_c, 12, 69, 0
8, 120780, Note_on_c, 12, 74, 100
8, 120840, Note_on_c, 12, 74, 0
8, 120840, Note_on_c, 12, 78, 100
8, 120900, Note_on_c, 12, 78, 0
8, 120900, Note_on_c, 12, 81, 100
8, 120960, Note_on_c, 12, 81, 0
8, 120960, Note_on_c, 12, 79, 110
8, 121020, Note_on_c, 12, 79, 0
8, 121025, Note_on_c, 12, 81, 90
8, 121060, Note_on_c, 12, 81, 0
8, 121060, Note_on_c, 12, 79, 100
8, 121100, Note_on_c, 12, 79, 0
8, 121100, Note_on_c, 12, 78, 100
8, 121140, Note_on_c, 12, 78, 0
8, 121140, Note_on_c, 12, 74, 100
8, 121200, Note_on_c, 12, 74, 0
8, 121200, Note_on_c, 12, 69, 100
8, 121260, Note_on_c, 12, 69, 0
8, 121260, Note_on_c, 12, 67, 110
8, 121320, Note_on_c, 12, 67, 0
8, 121320, Note_on_c, 12, 66, 100
8, 121380, Note_on_c, 12, 66, 0
8, 121380, Control_c, 12, 101, 0
8, 121380, Control_c, 12, 100, 0
8, 121380, Control_c, 12, 6, 4
8, 121380, Control_c, 12, 38, 127
8, 121380, Note_on_c, 12, 62, 100
8, 121381, Pitch_bend_c, 12, 8064
8, 121382, Pitch_bend_c, 12, 8192
8, 121383, Pitch_bend_c, 12, 8320
8, 121386, Pitch_bend_c, 12, 8576
8, 121395, Pitch_bend_c, 12, 8448
8, 121399, Pitch_bend_c, 12, 8320
8, 121404, Pitch_bend_c, 12, 8192
8, 121422, Pitch_bend_c, 12, 8320
8, 121423, Pitch_bend_c, 12, 8448
8, 121424, Pitch_bend_c, 12, 8576
8, 121428, Pitch_bend_c, 12, 8704
8, 121437, Pitch_bend_c, 12, 8448
8, 121442, Pitch_bend_c, 12, 8320
8, 121446, Pitch_bend_c, 12, 8192
8, 121466, Pitch_bend_c, 12, 8320
8, 121468, Pitch_bend_c, 12, 8448
8, 121471, Pitch_bend_c, 12, 8576
8, 121479, Pitch_bend_c, 12, 8448
8, 121485, Pitch_bend_c, 12, 8320
8, 121489, Pitch_bend_c, 12, 8192
8, 121500, Note_on_c, 12, 62, 0
8, 141480, Note_on_c, 12, 71, 100
8, 141482, Pitch_bend_c, 12, 0
8, 141483, Pitch_bend_c, 12, 0
8, 141484, Pitch_bend_c, 12, 256
8, 141486, Pitch_bend_c, 12, 512
8, 141487, Pitch_bend_c, 12, 768
8, 141488, Pitch_bend_c, 12, 1024
8, 141489, Pitch_bend_c, 12, 1280
8, 141490, Pitch_bend_c, 12, 1536
8, 141492, Pitch_bend_c, 12, 1792
8, 141493, Pitch_bend_c, 12, 2048
8, 141494, Pitch_bend_c, 12, 2304
8, 141495, Pitch_bend_c, 12, 2560
8, 141496, Pitch_bend_c, 12, 2688
8, 141498, Pitch_bend_c, 12, 2944
8, 141499, Pitch_bend_c, 12, 3200
8, 141500, Pitch_bend_c, 12, 3456
8, 141501, Pitch_bend_c, 12, 3712
8, 141502, Pitch_bend_c, 12, 3968
8, 141504, Pitch_bend_c, 12, 4224
8, 141505, Pitch_bend_c, 12, 4480
8, 141506, Pitch_bend_c, 12, 4736
8, 141507, Pitch_bend_c, 12, 4992
8, 141508, Pitch_bend_c, 12, 5248
8, 141510, Pitch_bend_c, 12, 5376
8, 141511, Pitch_bend_c, 12, 5632
8, 141512, Pitch_bend_c, 12, 5888
8, 141513, Pitch_bend_c, 12, 6144
8, 141514, Pitch_bend_c, 12, 6400
8, 141516, Pitch_bend_c, 12, 6656
8, 141517, Pitch_bend_c, 12, 6912
8, 141518, Pitch_bend_c, 12, 7168
8, 141519, Pitch_bend_c, 12, 7424
8, 141520, Pitch_bend_c, 12, 7680
8, 141522, Pitch_bend_c, 12, 7936
8, 141523, Pitch_bend_c, 12, 8192
8, 141540, Control_c, 12, 101, 0
8, 141540, Control_c, 12, 100, 0
8, 141540, Control_c, 12, 6, 2
8, 141540, Control_c, 12, 38, 127
8, 141542, Pitch_bend_c, 12, 8704
8, 141548, Pitch_bend_c, 12, 8832
8, 141553, Pitch_bend_c, 12, 8960
8, 141556, Pitch_bend_c, 12, 9088
8, 141560, Pitch_bend_c, 12, 8960
8, 141562, Pitch_bend_c, 12, 8832
8, 141564, Pitch_bend_c, 12, 8704
8, 141567, Pitch_bend_c, 12, 8320
8, 141571, Pitch_bend_c, 12, 7936
8, 141574, Pitch_bend_c, 12, 7680
8, 141577, Pitch_bend_c, 12, 7552
8, 141578, Pitch_bend_c, 12, 7424
8, 141582, Pitch_bend_c, 12, 7552
8, 141588, Pitch_bend_c, 12, 7808
8, 141592, Pitch_bend_c, 12, 8064
8, 141595, Pitch_bend_c, 12, 8320
8, 141597, Pitch_bend_c, 12, 8192
8, 141600, Note_on_c, 12, 71, 0
8, 141600, Note_on_c, 12, 71, 100
8, 141660, Note_on_c, 12, 71, 0
8, 141660, Note_on_c, 12, 71, 100
8, 141720, Note_on_c, 12, 71, 0
8, 141720, Note_on_c, 12, 71, 100
8, 141780, Note_on_c, 12, 71, 0
8, 141780, Note_on_c, 12, 71, 100
8, 141781, Pitch_bend_c, 12, 0
8, 141782, Pitch_bend_c, 12, 128
8, 141783, Pitch_bend_c, 12, 384
8, 141784, Pitch_bend_c, 12, 640
8, 141786, Pitch_bend_c, 12, 896
8, 141787, Pitch_bend_c, 12, 1024
8, 141788, Pitch_bend_c, 12, 1280
8, 141789, Pitch_bend_c, 12, 1536
8, 141790, Pitch_bend_c, 12, 1792
8, 141792, Pitch_bend_c, 12, 2048
8, 141793, Pitch_bend_c, 12, 2176
8, 141794, Pitch_bend_c, 12, 2432
8, 141795, Pitch_bend_c, 12, 2688
8, 141796, Pitch_bend_c, 12, 2944
8, 141798, Pitch_bend_c, 12, 3072
8, 141799, Pitch_bend_c, 12, 3328
8, 141800, Pitch_bend_c, 12, 3584
8, 141801, Pitch_bend_c, 12, 3840
8, 141802, Pitch_bend_c, 12, 4096
8, 141804, Pitch_bend_c, 12, 4224
8, 141805, Pitch_bend_c, 12, 4480
8, 141806, Pitch_bend_c, 12, 4736
8, 141807, Pitch_bend_c, 12, 4992
8, 141808, Pitch_bend_c, 12, 5120
8, 141810, Pitch_bend_c, 12, 5376
8, 141811, Pitch_bend_c, 12, 5632
8, 141812, Pitch_bend_c, 12, 5888
8, 141813, Pitch_bend_c, 12, 6144
8, 141814, Pitch_bend_c, 12, 6272
8, 141816, Pitch_bend_c, 12, 6528
8, 141817, Pitch_bend_c, 12, 6784
8, 141818, Pitch_bend_c, 12, 7040
8, 141819, Pitch_bend_c, 12, 7168
8, 141820, Pitch_bend_c, 12, 7424
8, 141822, Pitch_bend_c, 12, 7680
8, 141823, Pitch_bend_c, 12, 7936
8, 141824, Pitch_bend_c, 12, 8192
8, 141900, Note_on_c, 12, 71, 0
8, 141900, Note_on_c, 12, 71, 100
8, 141960, Note_on_c, 12, 71, 0
8, 141960, Note_on_c, 12, 71, 100
8, 142020, Note_on_c, 12, 71, 0
8, 142020, Note_on_c, 12, 71, 100
8, 142022, Pitch_bend_c, 12, 0
8, 142023, Pitch_bend_c, 12, 128
8, 142024, Pitch_bend_c, 12, 384
8, 142026, Pitch_bend_c, 12, 640
8, 142027, Pitch_bend_c, 12, 768
8, 142028, Pitch_bend_c, 12, 1024
8, 142029, Pitch_bend_c, 12, 1280
8, 142030, Pitch_bend_c, 12, 1408
8, 142032, Pitch_bend_c, 12, 1664
8, 142033, Pitch_bend_c, 12, 1920
8, 142034, Pitch_bend_c, 12, 2048
8, 142035, Pitch_bend_c, 12, 2304
8, 142036, Pitch_bend_c, 12, 2560
8, 142038, Pitch_bend_c, 12, 2688
8, 142039, Pitch_bend_c, 12, 2944
8, 142040, Pitch_bend_c, 12, 3200
8, 142041, Pitch_bend_c, 12, 3328
8, 142042, Pitch_bend_c, 12, 3584
8, 142044, Pitch_bend_c, 12, 3840
8, 142045, Pitch_bend_c, 12, 4096
8, 142046, Pitch_bend_c, 12, 4224
8, 142047, Pitch_bend_c, 12, 4480
8, 142048, Pitch_bend_c, 12, 4736
8, 142050, Pitch_bend_c, 12, 4864
8, 142051, Pitch_bend_c, 12, 5120
8, 142052, Pitch_bend_c, 12, 5376
8, 142053, Pitch_bend_c, 12, 5504
8, 142054, Pitch_bend_c, 12, 5760
8, 142056, Pitch_bend_c, 12, 6016
8, 142057, Pitch_bend_c, 12, 6144
8, 142058, Pitch_bend_c, 12, 6400
8, 142059, Pitch_bend_c, 12, 6656
8, 142060, Pitch_bend_c, 12, 6784
8, 142062, Pitch_bend_c, 12, 7040
8, 142063, Pitch_bend_c, 12, 7296
8, 142064, Pitch_bend_c, 12, 7424
8, 142065, Pitch_bend_c, 12, 7680
8, 142066, Pitch_bend_c, 12, 7936
8, 142068, Pitch_bend_c, 12, 8192
8, 142140, Note_on_c, 12, 71, 0
8, 142140, Note_on_c, 12, 71, 100
8, 142200, Note_on_c, 12, 71, 0
8, 142200, Note_on_c, 12, 72, 100
8, 142202, Pitch_bend_c, 12, 0
8, 142203, Pitch_bend_c, 12, 0
8, 142204, Pitch_bend_c, 12, 256
8, 142206, Pitch_bend_c, 12, 512
8, 142207, Pitch_bend_c, 12, 768
8, 142208, Pitch_bend_c, 12, 1024
8, 142209, Pitch_bend_c, 12, 1280
8, 142210, Pitch_bend_c, 12, 1536
8, 142212, Pitch_bend_c, 12, 1792
8, 142213, Pitch_bend_c, 12, 2048
8, 142214, Pitch_bend_c, 12, 2304
8, 142215, Pitch_bend_c, 12, 2560
8, 142216, Pitch_bend_c, 12, 2688
8, 142218, Pitch_bend_c, 12, 2944
8, 142219, Pitch_bend_c, 12, 3200
8, 142220, Pitch_bend_c, 12, 3456
8, 142221, Pitch_bend_c, 12, 3712
8, 142222, Pitch_bend_c, 12, 3968
8, 142224, Pitch_bend_c, 12, 4224
8, 142225, Pitch_bend_c, 12, 4480
8, 142226, Pitch_bend_c, 12, 4736
8, 142227, Pitch_bend_c, 12, 4992
8, 142228, Pitch_bend_c, 12, 5248
8, 142230, Pitch_bend_c, 12, 5376
8, 142231, Pitch_bend_c, 12, 5632
8, 142232, Pitch_bend_c, 12, 5888
8, 142233, Pitch_bend_c, 12, 6144
8, 142234, Pitch_bend_c, 12, 6400
8, 142236, Pitch_bend_c, 12, 6656
8, 142237, Pitch_bend_c, 12, 6912
8, 142238, Pitch_bend_c, 12, 7168
8, 142239, Pitch_bend_c, 12, 7424
8, 142240, Pitch_bend_c, 12, 7680
8, 142242, Pitch_bend_c, 12, 7936
8, 142243, Pitch_bend_c, 12, 8192
8, 142260, Control_c, 12, 101, 0
8, 142260, Control_c, 12, 100, 0
8, 142260, Control_c, 12, 6, 2
8, 142260, Control_c, 12, 38, 127
8, 142260, Pitch_bend_c, 12, 8704
8, 142266, Pitch_bend_c, 12, 8832
8, 142271, Pitch_bend_c, 12, 8960
8, 142274, Pitch_bend_c, 12, 9088
8, 142278, Pitch_bend_c, 12, 8960
8, 142280, Pitch_bend_c, 12, 8832
8, 142282, Pitch_bend_c, 12, 8704
8, 142285, Pitch_bend_c, 12, 8320
8, 142289, Pitch_bend_c, 12, 7936
8, 142292, Pitch_bend_c, 12, 7680
8, 142295, Pitch_bend_c, 12, 7552
8, 142296, Pitch_bend_c, 12, 7424
8, 142300, Pitch_bend_c, 12, 7552
8, 142306, Pitch_bend_c, 12, 7808
8, 142310, Pitch_bend_c, 12, 8064
8, 142313, Pitch_bend_c, 12, 8320
8, 142315, Pitch_bend_c, 12, 8192
8, 142320, Note_on_c, 12, 72, 0
8, 142320, Note_on_c, 12, 72, 100
8, 142380, Note_on_c, 12, 72, 0
8, 142380, Note_on_c, 12, 72, 100
8, 142440, Note_on_c, 12, 72, 0
8, 142440, Note_on_c, 12, 72, 100
8, 142500, Note_on_c, 12, 72, 0
8, 142500, Note_on_c, 12, 72, 100
8, 142501, Pitch_bend_c, 12, 0
8, 142502, Pitch_bend_c, 12, 128
8, 142503, Pitch_bend_c, 12, 384
8, 142504, Pitch_bend_c, 12, 640
8, 142506, Pitch_bend_c, 12, 896
8, 142507, Pitch_bend_c, 12, 1024
8, 142508, Pitch_bend_c, 12, 1280
8, 142509, Pitch_bend_c, 12, 1536
8, 142510, Pitch_bend_c, 12, 1792
8, 142512, Pitch_bend_c, 12, 2048
8, 142513, Pitch_bend_c, 12, 2176
8, 142514, Pitch_bend_c, 12, 2432
8, 142515, Pitch_bend_c, 12, 2688
8, 142516, Pitch_bend_c, 12, 2944
8, 142518, Pitch_bend_c, 12, 3072
8, 142519, Pitch_bend_c, 12, 3328
8, 142520, Pitch_bend_c, 12, 3584
8, 142521, Pitch_bend_c, 12, 3840
8, 142522, Pitch_bend_c, 12, 4096
8, 142524, Pitch_bend_c, 12, 4224
8, 142525, Pitch_bend_c, 12, 4480
8, 142526, Pitch_bend_c, 12, 4736
8, 142527, Pitch_bend_c, 12, 4992
8, 142528, Pitch_bend_c, 12, 5120
8, 142530, Pitch_bend_c, 12, 5376
8, 142531, Pitch_bend_c, 12, 5632
8, 142532, Pitch_bend_c, 12, 5888
8, 142533, Pitch_bend_c, 12, 6144
8, 142534, Pitch_bend_c, 12, 6272
8, 142536, Pitch_bend_c, 12, 6528
8, 142537, Pitch_bend_c, 12, 6784
8, 142538, Pitch_bend_c, 12, 7040
8, 142539, Pitch_bend_c, 12, 7168
8, 142540, Pitch_bend_c, 12, 7424
8, 142542, Pitch_bend_c, 12, 7680
8, 142543, Pitch_bend_c, 12, 7936
8, 142544, Pitch_bend_c, 12, 8192
8, 142620, Note_on_c, 12, 72, 0
8, 142620, Note_on_c, 12, 72, 100
8, 142680, Note_on_c, 12, 72, 0
8, 142680, Note_on_c, 12, 72, 100
8, 142740, Note_on_c, 12, 72, 0
8, 142740, Note_on_c, 12, 72, 100
8, 142742, Pitch_bend_c, 12, 0
8, 142743, Pitch_bend_c, 12, 128
8, 142744, Pitch_bend_c, 12, 384
8, 142746, Pitch_bend_c, 12, 640
8, 142747, Pitch_bend_c, 12, 768
8, 142748, Pitch_bend_c, 12, 1024
8, 142749, Pitch_bend_c, 12, 1280
8, 142750, Pitch_bend_c, 12, 1408
8, 142752, Pitch_bend_c, 12, 1664
8, 142753, Pitch_bend_c, 12, 1920
8, 142754, Pitch_bend_c, 12, 2048
8, 142755, Pitch_bend_c, 12, 2304
8, 142756, Pitch_bend_c, 12, 2560
8, 142758, Pitch_bend_c, 12, 2688
8, 142759, Pitch_bend_c, 12, 2944
8, 142760, Pitch_bend_c, 12, 3200
8, 142761, Pitch_bend_c, 12, 3328
8, 142762, Pitch_bend_c, 12, 3584
8, 142764, Pitch_bend_c, 12, 3840
8, 142765, Pitch_bend_c, 12, 4096
8, 142766, Pitch_bend_c, 12, 4224
8, 142767, Pitch_bend_c, 12, 4480
8, 142768, Pitch_bend_c, 12, 4736
8, 142770, Pitch_bend_c, 12, 4864
8, 142771, Pitch_bend_c, 12, 5120
8, 142772, Pitch_bend_c, 12, 5376
8, 142773, Pitch_bend_c, 12, 5504
8, 142774, Pitch_bend_c, 12, 5760
8, 142776, Pitch_bend_c, 12, 6016
8, 142777, Pitch_bend_c, 12, 6144
8, 142778, Pitch_bend_c, 12, 6400
8, 142779, Pitch_bend_c, 12, 6656
8, 142780, Pitch_bend_c, 12, 6784
8, 142782, Pitch_bend_c, 12, 7040
8, 142783, Pitch_bend_c, 12, 7296
8, 142784, Pitch_bend_c, 12, 7424
8, 142785, Pitch_bend_c, 12, 7680
8, 142786, Pitch_bend_c, 12, 7936
8, 142788, Pitch_bend_c, 12, 8192
8, 142860, Note_on_c, 12, 72, 0
8, 142860, Note_on_c, 12, 72, 100
8, 142920, Note_on_c, 12, 72, 0
8, 142920, Note_on_c, 12, 74, 100
8, 142922, Pitch_bend_c, 12, 0
8, 142923, Pitch_bend_c, 12, 0
8, 142924, Pitch_bend_c, 12, 256
8, 142926, Pitch_bend_c, 12, 512
8, 142927, Pitch_bend_c, 12, 768
8, 142928, Pitch_bend_c, 12, 1024
8, 142929, Pitch_bend_c, 12, 1280
8, 142930, Pitch_bend_c, 12, 1536
8, 142932, Pitch_bend_c, 12, 1792
8, 142933, Pitch_bend_c, 12, 2048
8, 142934, Pitch_bend_c, 12, 2304
8, 142935, Pitch_bend_c, 12, 2560
8, 142936, Pitch_bend_c, 12, 2688
8, 142938, Pitch_bend_c, 12, 2944
8, 142939, Pitch_bend_c, 12, 3200
8, 142940, Pitch_bend_c, 12, 3456
8, 142941, Pitch_bend_c, 12, 3712
8, 142942, Pitch_bend_c, 12, 3968
8, 142944, Pitch_bend_c, 12, 4224
8, 142945, Pitch_bend_c, 12, 4480
8, 142946, Pitch_bend_c, 12, 4736
8, 142947, Pitch_bend_c, 12, 4992
8, 142948, Pitch_bend_c, 12, 5248
8, 142950, Pitch_bend_c, 12, 5376
8, 142951, Pitch_bend_c, 12, 5632
8, 142952, Pitch_bend_c, 12, 5888
8, 142953, Pitch_bend_c, 12, 6144
8, 142954, Pitch_bend_c, 12, 6400
8, 142956, Pitch_bend_c, 12, 6656
8, 142957, Pitch_bend_c, 12, 6912
8, 142958, Pitch_bend_c, 12, 7168
8, 142959, Pitch_bend_c, 12, 7424
8, 142960, Pitch_bend_c, 12, 7680
8, 142962, Pitch_bend_c, 12, 7936
8, 142963, Pitch_bend_c, 12, 8192
8, 142980, Control_c, 12, 101, 0
8, 142980, Control_c, 12, 100, 0
8, 142980, Control_c, 12, 6, 2
8, 142980, Control_c, 12, 38, 127
8, 142980, Pitch_bend_c, 12, 8704
8, 142986, Pitch_bend_c, 12, 8832
8, 142991, Pitch_bend_c, 12, 8960
8, 142994, Pitch_bend_c, 12, 9088
8, 142998, Pitch_bend_c, 12, 8960
8, 143000, Pitch_bend_c, 12, 8832
8, 143002, Pitch_bend_c, 12, 8704
8, 143005, Pitch_bend_c, 12, 8320
8, 143009, Pitch_bend_c, 12, 7936
8, 143012, Pitch_bend_c, 12, 7680
8, 143015, Pitch_bend_c, 12, 7552
8, 143016, Pitch_bend_c, 12, 7424
8, 143020, Pitch_bend_c, 12, 7552
8, 143026, Pitch_bend_c, 12, 7808
8, 143030, Pitch_bend_c, 12, 8064
8, 143033, Pitch_bend_c, 12, 8320
8, 143035, Pitch_bend_c, 12, 8192
8, 143040, Note_on_c, 12, 74, 0
8, 143100, Note_on_c, 12, 74, 100
8, 143160, Note_on_c, 12, 74, 0
8, 143160, Note_on_c, 12, 74, 100
8, 143220, Note_on_c, 12, 74, 0
8, 143220, Note_on_c, 12, 74, 100
8, 143221, Pitch_bend_c, 12, 0
8, 143222, Pitch_bend_c, 12, 128
8, 143223, Pitch_bend_c, 12, 384
8, 143224, Pitch_bend_c, 12, 640
8, 143226, Pitch_bend_c, 12, 896
8, 143227, Pitch_bend_c, 12, 1024
8, 143228, Pitch_bend_c, 12, 1280
8, 143229, Pitch_bend_c, 12, 1536
8, 143230, Pitch_bend_c, 12, 1792
8, 143232, Pitch_bend_c, 12, 2048
8, 143233, Pitch_bend_c, 12, 2176
8, 143234, Pitch_bend_c, 12, 2432
8, 143235, Pitch_bend_c, 12, 2688
8, 143236, Pitch_bend_c, 12, 2944
8, 143238, Pitch_bend_c, 12, 3072
8, 143239, Pitch_bend_c, 12, 3328
8, 143240, Pitch_bend_c, 12, 3584
8, 143241, Pitch_bend_c, 12, 3840
8, 143242, Pitch_bend_c, 12, 4096
8, 143244, Pitch_bend_c, 12, 4224
8, 143245, Pitch_bend_c, 12, 4480
8, 143246, Pitch_bend_c, 12, 4736
8, 143247, Pitch_bend_c, 12, 4992
8, 143248, Pitch_bend_c, 12, 5120
8, 143250, Pitch_bend_c, 12, 5376
8, 143251, Pitch_bend_c, 12, 5632
8, 143252, Pitch_bend_c, 12, 5888
8, 143253, Pitch_bend_c, 12, 6144
8, 143254, Pitch_bend_c, 12, 6272
8, 143256, Pitch_bend_c, 12, 6528
8, 143257, Pitch_bend_c, 12, 6784
8, 143258, Pitch_bend_c, 12, 7040
8, 143259, Pitch_bend_c, 12, 7168
8, 143260, Pitch_bend_c, 12, 7424
8, 143262, Pitch_bend_c, 12, 7680
8, 143263, Pitch_bend_c, 12, 7936
8, 143264, Pitch_bend_c, 12, 8192
8, 143340, Note_on_c, 12, 74, 0
8, 143340, Note_on_c, 12, 74, 100
8, 143400, Note_on_c, 12, 74, 0
8, 143400, Note_on_c, 12, 74, 100
8, 143460, Note_on_c, 12, 74, 0
8, 143460, Note_on_c, 12, 74, 100
8, 143462, Pitch_bend_c, 12, 0
8, 143463, Pitch_bend_c, 12, 128
8, 143464, Pitch_bend_c, 12, 384
8, 143466, Pitch_bend_c, 12, 640
8, 143467, Pitch_bend_c, 12, 768
8, 143468, Pitch_bend_c, 12, 1024
8, 143469, Pitch_bend_c, 12, 1280
8, 143470, Pitch_bend_c, 12, 1408
8, 143472, Pitch_bend_c, 12, 1664
8, 143473, Pitch_bend_c, 12, 1920
8, 143474, Pitch_bend_c, 12, 2048
8, 143475, Pitch_bend_c, 12, 2304
8, 143476, Pitch_bend_c, 12, 2560
8, 143478, Pitch_bend_c, 12, 2688
8, 143479, Pitch_bend_c, 12, 2944
8, 143480, Pitch_bend_c, 12, 3200
8, 143481, Pitch_bend_c, 12, 3328
8, 143482, Pitch_bend_c, 12, 3584
8, 143484, Pitch_bend_c, 12, 3840
8, 143485, Pitch_bend_c, 12, 4096
8, 143486, Pitch_bend_c, 12, 4224
8, 143487, Pitch_bend_c, 12, 4480
8, 143488, Pitch_bend_c, 12, 4736
8, 143490, Pitch_bend_c, 12, 4864
8, 143491, Pitch_bend_c, 12, 5120
8, 143492, Pitch_bend_c, 12, 5376
8, 143493, Pitch_bend_c, 12, 5504
8, 143494, Pitch_bend_c, 12, 5760
8, 143496, Pitch_bend_c, 12, 6016
8, 143497, Pitch_bend_c, 12, 6144
8, 143498, Pitch_bend_c, 12, 6400
8, 143499, Pitch_bend_c, 12, 6656
8, 143500, Pitch_bend_c, 12, 6784
8, 143502, Pitch_bend_c, 12, 7040
8, 143503, Pitch_bend_c, 12, 7296
8, 143504, Pitch_bend_c, 12, 7424
8, 143505, Pitch_bend_c, 12, 7680
8, 143506, Pitch_bend_c, 12, 7936
8, 143508, Pitch_bend_c, 12, 8192
8, 143580, Note_on_c, 12, 74, 0
8, 143580, Note_on_c, 12, 74, 100
8, 143640, Note_on_c, 12, 74, 0
8, 143640, Note_on_c, 12, 76, 100
8, 143642, Pitch_bend_c, 12, 0
8, 143643, Pitch_bend_c, 12, 0
8, 143644, Pitch_bend_c, 12, 256
8, 143646, Pitch_bend_c, 12, 512
8, 143647, Pitch_bend_c, 12, 768
8, 143648, Pitch_bend_c, 12, 1024
8, 143649, Pitch_bend_c, 12, 1280
8, 143650, Pitch_bend_c, 12, 1536
8, 143652, Pitch_bend_c, 12, 1792
8, 143653, Pitch_bend_c, 12, 2048
8, 143654, Pitch_bend_c, 12, 2304
8, 143655, Pitch_bend_c, 12, 2560
8, 143656, Pitch_bend_c, 12, 2688
8, 143658, Pitch_bend_c, 12, 2944
8, 143659, Pitch_bend_c, 12, 3200
8, 143660, Pitch_bend_c, 12, 3456
8, 143661, Pitch_bend_c, 12, 3712
8, 143662, Pitch_bend_c, 12, 3968
8, 143664, Pitch_bend_c, 12, 4224
8, 143665, Pitch_bend_c, 12, 4480
8, 143666, Pitch_bend_c, 12, 4736
8, 143667, Pitch_bend_c, 12, 4992
8, 143668, Pitch_bend_c, 12, 5248
8, 143670, Pitch_bend_c, 12, 5376
8, 143671, Pitch_bend_c, 12, 5632
8, 143672, Pitch_bend_c, 12, 5888
8, 143673, Pitch_bend_c, 12, 6144
8, 143674, Pitch_bend_c, 12, 6400
8, 143676, Pitch_bend_c, 12, 6656
8, 143677, Pitch_bend_c, 12, 6912
8, 143678, Pitch_bend_c, 12, 7168
8, 143679, Pitch_bend_c, 12, 7424
8, 143680, Pitch_bend_c, 12, 7680
8, 143682, Pitch_bend_c, 12, 7936
8, 143683, Pitch_bend_c, 12, 8192
8, 143700, Control_c, 12, 101, 0
8, 143700, Control_c, 12, 100, 0
8, 143700, Control_c, 12, 6, 2
8, 143700, Control_c, 12, 38, 127
8, 143700, Pitch_bend_c, 12, 8704
8, 143706, Pitch_bend_c, 12, 8832
8, 143711, Pitch_bend_c, 12, 8960
8, 143714, Pitch_bend_c, 12, 9088
8, 143718, Pitch_bend_c, 12, 8960
8, 143720, Pitch_bend_c, 12, 8832
8, 143722, Pitch_bend_c, 12, 8704
8, 143725, Pitch_bend_c, 12, 8320
8, 143729, Pitch_bend_c, 12, 7936
8, 143732, Pitch_bend_c, 12, 7680
8, 143735, Pitch_bend_c, 12, 7552
8, 143736, Pitch_bend_c, 12, 7424
8, 143740, Pitch_bend_c, 12, 7552
8, 143746, Pitch_bend_c, 12, 7808
8, 143750, Pitch_bend_c, 12, 8064
8, 143753, Pitch_bend_c, 12, 8320
8, 143755, Pitch_bend_c, 12, 8192
8, 143760, Note_on_c, 12, 76, 0
8, 143760, Note_on_c, 12, 76, 100
8, 143820, Note_on_c, 12, 76, 0
8, 143820, Note_on_c, 12, 76, 100
8, 143880, Note_on_c, 12, 76, 0
8, 143880, Note_on_c, 12, 76, 100
8, 143940, Note_on_c, 12, 76, 0
8, 143940, Note_on_c, 12, 76, 100
8, 143941, Pitch_bend_c, 12, 0
8, 143942, Pitch_bend_c, 12, 128
8, 143943, Pitch_bend_c, 12, 384
8, 143944, Pitch_bend_c, 12, 640
8, 143946, Pitch_bend_c, 12, 896
8, 143947, Pitch_bend_c, 12, 1024
8, 143948, Pitch_bend_c, 12, 1280
8, 143949, Pitch_bend_c, 12, 1536
8, 143950, Pitch_bend_c, 12, 1792
8, 143952, Pitch_bend_c, 12, 2048
8, 143953, Pitch_bend_c, 12, 2176
8, 143954, Pitch_bend_c, 12, 2432
8, 143955, Pitch_bend_c, 12, 2688
8, 143956, Pitch_bend_c, 12, 2944
8, 143958, Pitch_bend_c, 12, 3072
8, 143959, Pitch_bend_c, 12, 3328
8, 143960, Pitch_bend_c, 12, 3584
8, 143961, Pitch_bend_c, 12, 3840
8, 143962, Pitch_bend_c, 12, 4096
8, 143964, Pitch_bend_c, 12, 4224
8, 143965, Pitch_bend_c, 12, 4480
8, 143966, Pitch_bend_c, 12, 4736
8, 143967, Pitch_bend_c, 12, 4992
8, 143968, Pitch_bend_c, 12, 5120
8, 143970, Pitch_bend_c, 12, 5376
8, 143971, Pitch_bend_c, 12, 5632
8, 143972, Pitch_bend_c, 12, 5888
8, 143973, Pitch_bend_c, 12, 6144
8, 143974, Pitch_bend_c, 12, 6272
8, 143976, Pitch_bend_c, 12, 6528
8, 143977, Pitch_bend_c, 12, 6784
8, 143978, Pitch_bend_c, 12, 7040
8, 143979, Pitch_bend_c, 12, 7168
8, 143980, Pitch_bend_c, 12, 7424
8, 143982, Pitch_bend_c, 12, 7680
8, 143983, Pitch_bend_c, 12, 7936
8, 143984, Pitch_bend_c, 12, 8192
8, 144060, Note_on_c, 12, 76, 0
8, 144060, Note_on_c, 12, 76, 100
8, 144120, Note_on_c, 12, 76, 0
8, 144120, Note_on_c, 12, 76, 100
8, 144180, Note_on_c, 12, 76, 0
8, 144180, Note_on_c, 12, 76, 100
8, 144182, Pitch_bend_c, 12, 0
8, 144183, Pitch_bend_c, 12, 128
8, 144184, Pitch_bend_c, 12, 384
8, 144186, Pitch_bend_c, 12, 640
8, 144187, Pitch_bend_c, 12, 768
8, 144188, Pitch_bend_c, 12, 1024
8, 144189, Pitch_bend_c, 12, 1280
8, 144190, Pitch_bend_c, 12, 1408
8, 144192, Pitch_bend_c, 12, 1664
8, 144193, Pitch_bend_c, 12, 1920
8, 144194, Pitch_bend_c, 12, 2048
8, 144195, Pitch_bend_c, 12, 2304
8, 144196, Pitch_bend_c, 12, 2560
8, 144198, Pitch_bend_c, 12, 2688
8, 144199, Pitch_bend_c, 12, 2944
8, 144200, Pitch_bend_c, 12, 3200
8, 144201, Pitch_bend_c, 12, 3328
8, 144202, Pitch_bend_c, 12, 3584
8, 144204, Pitch_bend_c, 12, 3840
8, 144205, Pitch_bend_c, 12, 4096
8, 144206, Pitch_bend_c, 12, 4224
8, 144207, Pitch_bend_c, 12, 4480
8, 144208, Pitch_bend_c, 12, 4736
8, 144210, Pitch_bend_c, 12, 4864
8, 144211, Pitch_bend_c, 12, 5120
8, 144212, Pitch_bend_c, 12, 5376
8, 144213, Pitch_bend_c, 12, 5504
8, 144214, Pitch_bend_c, 12, 5760
8, 144216, Pitch_bend_c, 12, 6016
8, 144217, Pitch_bend_c, 12, 6144
8, 144218, Pitch_bend_c, 12, 6400
8, 144219, Pitch_bend_c, 12, 6656
8, 144220, Pitch_bend_c, 12, 6784
8, 144222, Pitch_bend_c, 12, 7040
8, 144223, Pitch_bend_c, 12, 7296
8, 144224, Pitch_bend_c, 12, 7424
8, 144225, Pitch_bend_c, 12, 7680
8, 144226, Pitch_bend_c, 12, 7936
8, 144228, Pitch_bend_c, 12, 8192
8, 144300, Note_on_c, 12, 76, 0
8, 144300, Note_on_c, 12, 76, 100
8, 144360, Note_on_c, 12, 76, 0
8, 144360, Note_on_c, 12, 76, 100
8, 144362, Pitch_bend_c, 12, 0
8, 144363, Pitch_bend_c, 12, 0
8, 144364, Pitch_bend_c, 12, 256
8, 144366, Pitch_bend_c, 12, 512
8, 144367, Pitch_bend_c, 12, 768
8, 144368, Pitch_bend_c, 12, 1024
8, 144369, Pitch_bend_c, 12, 1280
8, 144370, Pitch_bend_c, 12, 1536
8, 144372, Pitch_bend_c, 12, 1792
8, 144373, Pitch_bend_c, 12, 2048
8, 144374, Pitch_bend_c, 12, 2304
8, 144375, Pitch_bend_c, 12, 2560
8, 144376, Pitch_bend_c, 12, 2688
8, 144378, Pitch_bend_c, 12, 2944
8, 144379, Pitch_bend_c, 12, 3200
8, 144380, Pitch_bend_c, 12, 3456
8, 144381, Pitch_bend_c, 12, 3712
8, 144382, Pitch_bend_c, 12, 3968
8, 144384, Pitch_bend_c, 12, 4224
8, 144385, Pitch_bend_c, 12, 4480
8, 144386, Pitch_bend_c, 12, 4736
8, 144387, Pitch_bend_c, 12, 4992
8, 144388, Pitch_bend_c, 12, 5248
8, 144390, Pitch_bend_c, 12, 5376
8, 144391, Pitch_bend_c, 12, 5632
8, 144392, Pitch_bend_c, 12, 5888
8, 144393, Pitch_bend_c, 12, 6144
8, 144394, Pitch_bend_c, 12, 6400
8, 144396, Pitch_bend_c, 12, 6656
8, 144397, Pitch_bend_c, 12, 6912
8, 144398, Pitch_bend_c, 12, 7168
8, 144399, Pitch_bend_c, 12, 7424
8, 144400, Pitch_bend_c, 12, 7680
8, 144402, Pitch_bend_c, 12, 7936
8, 144403, Pitch_bend_c, 12, 8192
8, 144420, Control_c, 12, 101, 0
8, 144420, Control_c, 12, 100, 0
8, 144420, Control_c, 12, 6, 2
8, 144420, Control_c, 12, 38, 127
8, 144420, Pitch_bend_c, 12, 8704
8, 144426, Pitch_bend_c, 12, 8832
8, 144431, Pitch_bend_c, 12, 8960
8, 144434, Pitch_bend_c, 12, 9088
8, 144438, Pitch_bend_c, 12, 8960
8, 144440, Pitch_bend_c, 12, 8832
8, 144442, Pitch_bend_c, 12, 8704
8, 144445, Pitch_bend_c, 12, 8320
8, 144449, Pitch_bend_c, 12, 7936
8, 144452, Pitch_bend_c, 12, 7680
8, 144455, Pitch_bend_c, 12, 7552
8, 144456, Pitch_bend_c, 12, 7424
8, 144460, Pitch_bend_c, 12, 7552
8, 144466, Pitch_bend_c, 12, 7808
8, 144470, Pitch_bend_c, 12, 8064
8, 144473, Pitch_bend_c, 12, 8320
8, 144475, Pitch_bend_c, 12, 8192
8, 144480, Note_on_c, 12, 76, 0
8, 144480, Note_on_c, 12, 76, 100
8, 144540, Note_on_c, 12, 76, 0
8, 144540, Note_on_c, 12, 76, 100
8, 144600, Note_on_c, 12, 76, 0
8, 144600, Note_on_c, 12, 76, 100
8, 144660, Note_on_c, 12, 76, 0
8, 144660, Note_on_c, 12, 76, 100
8, 144661, Pitch_bend_c, 12, 0
8, 144662, Pitch_bend_c, 12, 128
8, 144663, Pitch_bend_c, 12, 384
8, 144664, Pitch_bend_c, 12, 640
8, 144666, Pitch_bend_c, 12, 896
8, 144667, Pitch_bend_c, 12, 1024
8, 144668, Pitch_bend_c, 12, 1280
8, 144669, Pitch_bend_c, 12, 1536
8, 144670, Pitch_bend_c, 12, 1792
8, 144672, Pitch_bend_c, 12, 2048
8, 144673, Pitch_bend_c, 12, 2176
8, 144674, Pitch_bend_c, 12, 2432
8, 144675, Pitch_bend_c, 12, 2688
8, 144676, Pitch_bend_c, 12, 2944
8, 144678, Pitch_bend_c, 12, 3072
8, 144679, Pitch_bend_c, 12, 3328
8, 144680, Pitch_bend_c, 12, 3584
8, 144681, Pitch_bend_c, 12, 3840
8, 144682, Pitch_bend_c, 12, 4096
8, 144684, Pitch_bend_c, 12, 4224
8, 144685, Pitch_bend_c, 12, 4480
8, 144686, Pitch_bend_c, 12, 4736
8, 144687, Pitch_bend_c, 12, 4992
8, 144688, Pitch_bend_c, 12, 5120
8, 144690, Pitch_bend_c, 12, 5376
8, 144691, Pitch_bend_c, 12, 5632
8, 144692, Pitch_bend_c, 12, 5888
8, 144693, Pitch_bend_c, 12, 6144
8, 144694, Pitch_bend_c, 12, 6272
8, 144696, Pitch_bend_c, 12, 6528
8, 144697, Pitch_bend_c, 12, 6784
8, 144698, Pitch_bend_c, 12, 7040
8, 144699, Pitch_bend_c, 12, 7168
8, 144700, Pitch_bend_c, 12, 7424
8, 144702, Pitch_bend_c, 12, 7680
8, 144703, Pitch_bend_c, 12, 7936
8, 144704, Pitch_bend_c, 12, 8192
8, 144780, Note_on_c, 12, 76, 0
8, 144780, Note_on_c, 12, 76, 100
8, 144840, Note_on_c, 12, 76, 0
8, 144840, Note_on_c, 12, 76, 100
8, 144900, Note_on_c, 12, 76, 0
8, 144900, Note_on_c, 12, 76, 100
8, 144902, Pitch_bend_c, 12, 0
8, 144903, Pitch_bend_c, 12, 128
8, 144904, Pitch_bend_c, 12, 384
8, 144906, Pitch_bend_c, 12, 640
8, 144907, Pitch_bend_c, 12, 768
8, 144908, Pitch_bend_c, 12, 1024
8, 144909, Pitch_bend_c, 12, 1280
8, 144910, Pitch_bend_c, 12, 1408
8, 144912, Pitch_bend_c, 12, 1664
8, 144913, Pitch_bend_c, 12, 1920
8, 144914, Pitch_bend_c, 12, 2048
8, 144915, Pitch_bend_c, 12, 2304
8, 144916, Pitch_bend_c, 12, 2560
8, 144918, Pitch_bend_c, 12, 2688
8, 144919, Pitch_bend_c, 12, 2944
8, 144920, Pitch_bend_c, 12, 3200
8, 144921, Pitch_bend_c, 12, 3328
8, 144922, Pitch_bend_c, 12, 3584
8, 144924, Pitch_bend_c, 12, 3840
8, 144925, Pitch_bend_c, 12, 4096
8, 144926, Pitch_bend_c, 12, 4224
8, 144927, Pitch_bend_c, 12, 4480
8, 144928, Pitch_bend_c, 12, 4736
8, 144930, Pitch_bend_c, 12, 4864
8, 144931, Pitch_bend_c, 12, 5120
8, 144932, Pitch_bend_c, 12, 5376
8, 144933, Pitch_bend_c, 12, 5504
8, 144934, Pitch_bend_c, 12, 5760
8, 144936, Pitch_bend_c, 12, 6016
8, 144937, Pitch_bend_c, 12, 6144
8, 144938, Pitch_bend_c, 12, 6400
8, 144939, Pitch_bend_c, 12, 6656
8, 144940, Pitch_bend_c, 12, 6784
8, 144942, Pitch_bend_c, 12, 7040
8, 144943, Pitch_bend_c, 12, 7296
8, 144944, Pitch_bend_c, 12, 7424
8, 144945, Pitch_bend_c, 12, 7680
8, 144946, Pitch_bend_c, 12, 7936
8, 144948, Pitch_bend_c, 12, 8192
8, 145020, Note_on_c, 12, 76, 0
8, 145020, Note_on_c, 12, 76, 100
8, 145080, Note_on_c, 12, 76, 0
8, 145080, Note_on_c, 12, 79, 115
8, 145082, Pitch_bend_c, 12, 0
8, 145083, Pitch_bend_c, 12, 0
8, 145084, Pitch_bend_c, 12, 256
8, 145086, Pitch_bend_c, 12, 512
8, 145087, Pitch_bend_c, 12, 768
8, 145088, Pitch_bend_c, 12, 1024
8, 145089, Pitch_bend_c, 12, 1280
8, 145090, Pitch_bend_c, 12, 1536
8, 145092, Pitch_bend_c, 12, 1792
8, 145093, Pitch_bend_c, 12, 2048
8, 145094, Pitch_bend_c, 12, 2304
8, 145095, Pitch_bend_c, 12, 2560
8, 145096, Pitch_bend_c, 12, 2688
8, 145098, Pitch_bend_c, 12, 2944
8, 145099, Pitch_bend_c, 12, 3200
8, 145100, Pitch_bend_c, 12, 3456
8, 145101, Pitch_bend_c, 12, 3712
8, 145102, Pitch_bend_c, 12, 3968
8, 145104, Pitch_bend_c, 12, 4224
8, 145105, Pitch_bend_c, 12, 4480
8, 145106, Pitch_bend_c, 12, 4736
8, 145107, Pitch_bend_c, 12, 4992
8, 145108, Pitch_bend_c, 12, 5248
8, 145110, Pitch_bend_c, 12, 5376
8, 145111, Pitch_bend_c, 12, 5632
8, 145112, Pitch_bend_c, 12, 5888
8, 145113, Pitch_bend_c, 12, 6144
8, 145114, Pitch_bend_c, 12, 6400
8, 145116, Pitch_bend_c, 12, 6656
8, 145117, Pitch_bend_c, 12, 6912
8, 145118, Pitch_bend_c, 12, 7168
8, 145119, Pitch_bend_c, 12, 7424
8, 145120, Pitch_bend_c, 12, 7680
8, 145122, Pitch_bend_c, 12, 7936
8, 145123, Pitch_bend_c, 12, 8192
8, 145140, Control_c, 12, 101, 0
8, 145140, Control_c, 12, 100, 0
8, 145140, Control_c, 12, 6, 2
8, 145140, Control_c, 12, 38, 127
8, 145140, Pitch_bend_c, 12, 8704
8, 145146, Pitch_bend_c, 12, 8832
8, 145151, Pitch_bend_c, 12, 8960
8, 145154, Pitch_bend_c, 12, 9088
8, 145158, Pitch_bend_c, 12, 8960
8, 145160, Pitch_bend_c, 12, 8832
8, 145162, Pitch_bend_c, 12, 8704
8, 145165, Pitch_bend_c, 12, 8320
8, 145169, Pitch_bend_c, 12, 7936
8, 145172, Pitch_bend_c, 12, 7680
8, 145175, Pitch_bend_c, 12, 7552
8, 145176, Pitch_bend_c, 12, 7424
8, 145180, Pitch_bend_c, 12, 7552
8, 145186, Pitch_bend_c, 12, 7808
8, 145190, Pitch_bend_c, 12, 8064
8, 145193, Pitch_bend_c, 12, 8320
8, 145195, Pitch_bend_c, 12, 8192
8, 145200, Note_on_c, 12, 79, 0
8, 145200, Note_on_c, 12, 79, 115
8, 145260, Note_on_c, 12, 79, 0
8, 145260, Note_on_c, 12, 79, 116
8, 145320, Note_on_c, 12, 79, 0
8, 145320, Note_on_c, 12, 79, 116
8, 145380, Note_on_c, 12, 79, 0
8, 145380, Note_on_c, 12, 79, 116
8, 145381, Pitch_bend_c, 12, 0
8, 145382, Pitch_bend_c, 12, 128
8, 145383, Pitch_bend_c, 12, 384
8, 145384, Pitch_bend_c, 12, 640
8, 145386, Pitch_bend_c, 12, 896
8, 145387, Pitch_bend_c, 12, 1024
8, 145388, Pitch_bend_c, 12, 1280
8, 145389, Pitch_bend_c, 12, 1536
8, 145390, Pitch_bend_c, 12, 1792
8, 145392, Pitch_bend_c, 12, 2048
8, 145393, Pitch_bend_c, 12, 2176
8, 145394, Pitch_bend_c, 12, 2432
8, 145395, Pitch_bend_c, 12, 2688
8, 145396, Pitch_bend_c, 12, 2944
8, 145398, Pitch_bend_c, 12, 3072
8, 145399, Pitch_bend_c, 12, 3328
8, 145400, Pitch_bend_c, 12, 3584
8, 145401, Pitch_bend_c, 12, 3840
8, 145402, Pitch_bend_c, 12, 4096
8, 145404, Pitch_bend_c, 12, 4224
8, 145405, Pitch_bend_c, 12, 4480
8, 145406, Pitch_bend_c, 12, 4736
8, 145407, Pitch_bend_c, 12, 4992
8, 145408, Pitch_bend_c, 12, 5120
8, 145410, Pitch_bend_c, 12, 5376
8, 145411, Pitch_bend_c, 12, 5632
8, 145412, Pitch_bend_c, 12, 5888
8, 145413, Pitch_bend_c, 12, 6144
8, 145414, Pitch_bend_c, 12, 6272
8, 145416, Pitch_bend_c, 12, 6528
8, 145417, Pitch_bend_c, 12, 6784
8, 145418, Pitch_bend_c, 12, 7040
8, 145419, Pitch_bend_c, 12, 7168
8, 145420, Pitch_bend_c, 12, 7424
8, 145422, Pitch_bend_c, 12, 7680
8, 145423, Pitch_bend_c, 12, 7936
8, 145424, Pitch_bend_c, 12, 8192
8, 145500, Note_on_c, 12, 79, 0
8, 145500, Note_on_c, 12, 79, 117
8, 145560, Note_on_c, 12, 79, 0
8, 145560, Note_on_c, 12, 79, 117
8, 145620, Note_on_c, 12, 79, 0
8, 145620, Note_on_c, 12, 79, 118
8, 145622, Pitch_bend_c, 12, 0
8, 145623, Pitch_bend_c, 12, 128
8, 145624, Pitch_bend_c, 12, 384
8, 145626, Pitch_bend_c, 12, 640
8, 145627, Pitch_bend_c, 12, 768
8, 145628, Pitch_bend_c, 12, 1024
8, 145629, Pitch_bend_c, 12, 1280
8, 145630, Pitch_bend_c, 12, 1408
8, 145632, Pitch_bend_c, 12, 1664
8, 145633, Pitch_bend_c, 12, 1920
8, 145634, Pitch_bend_c, 12, 2048
8, 145635, Pitch_bend_c, 12, 2304
8, 145636, Pitch_bend_c, 12, 2560
8, 145638, Pitch_bend_c, 12, 2688
8, 145639, Pitch_bend_c, 12, 2944
8, 145640, Pitch_bend_c, 12, 3200
8, 145641, Pitch_bend_c, 12, 3328
8, 145642, Pitch_bend_c, 12, 3584
8, 145644, Pitch_bend_c, 12, 3840
8, 145645, Pitch_bend_c, 12, 4096
8, 145646, Pitch_bend_c, 12, 4224
8, 145647, Pitch_bend_c, 12, 4480
8, 145648, Pitch_bend_c, 12, 4736
8, 145650, Pitch_bend_c, 12, 4864
8, 145651, Pitch_bend_c, 12, 5120
8, 145652, Pitch_bend_c, 12, 5376
8, 145653, Pitch_bend_c, 12, 5504
8, 145654, Pitch_bend_c, 12, 5760
8, 145656, Pitch_bend_c, 12, 6016
8, 145657, Pitch_bend_c, 12, 6144
8, 145658, Pitch_bend_c, 12, 6400
8, 145659, Pitch_bend_c, 12, 6656
8, 145660, Pitch_bend_c, 12, 6784
8, 145662, Pitch_bend_c, 12, 7040
8, 145663, Pitch_bend_c, 12, 7296
8, 145664, Pitch_bend_c, 12, 7424
8, 145665, Pitch_bend_c, 12, 7680
8, 145666, Pitch_bend_c, 12, 7936
8, 145668, Pitch_bend_c, 12, 8192
8, 145740, Note_on_c, 12, 79, 0
8, 145740, Note_on_c, 12, 79, 118
8, 145800, Note_on_c, 12, 79, 0
8, 145800, Note_on_c, 12, 81, 119
8, 145802, Pitch_bend_c, 12, 0
8, 145803, Pitch_bend_c, 12, 0
8, 145804, Pitch_bend_c, 12, 256
8, 145806, Pitch_bend_c, 12, 512
8, 145807, Pitch_bend_c, 12, 768
8, 145808, Pitch_bend_c, 12, 1024
8, 145809, Pitch_bend_c, 12, 1280
8, 145810, Pitch_bend_c, 12, 1536
8, 145812, Pitch_bend_c, 12, 1792
8, 145813, Pitch_bend_c, 12, 2048
8, 145814, Pitch_bend_c, 12, 2304
8, 145815, Pitch_bend_c, 12, 2560
8, 145816, Pitch_bend_c, 12, 2688
8, 145818, Pitch_bend_c, 12, 2944
8, 145819, Pitch_bend_c, 12, 3200
8, 145820, Pitch_bend_c, 12, 3456
8, 145821, Pitch_bend_c, 12, 3712
8, 145822, Pitch_bend_c, 12, 3968
8, 145824, Pitch_bend_c, 12, 4224
8, 145825, Pitch_bend_c, 12, 4480
8, 145826, Pitch_bend_c, 12, 4736
8, 145827, Pitch_bend_c, 12, 4992
8, 145828, Pitch_bend_c, 12, 5248
8, 145830, Pitch_bend_c, 12, 5376
8, 145831, Pitch_bend_c, 12, 5632
8, 145832, Pitch_bend_c, 12, 5888
8, 145833, Pitch_bend_c, 12, 6144
8, 145834, Pitch_bend_c, 12, 6400
8, 145836, Pitch_bend_c, 12, 6656
8, 145837, Pitch_bend_c, 12, 6912
8, 145838, Pitch_bend_c, 12, 7168
8, 145839, Pitch_bend_c, 12, 7424
8, 145840, Pitch_bend_c, 12, 7680
8, 145842, Pitch_bend_c, 12, 7936
8, 145843, Pitch_bend_c, 12, 8192
8, 145860, Control_c, 12, 101, 0
8, 145860, Control_c, 12, 100, 0
8, 145860, Control_c, 12, 6, 2
8, 145860, Control_c, 12, 38, 127
8, 145860, Pitch_bend_c, 12, 8704
8, 145866, Pitch_bend_c, 12, 8832
8, 145871, Pitch_bend_c, 12, 8960
8, 145874, Pitch_bend_c, 12, 9088
8, 145878, Pitch_bend_c, 12, 8960
8, 145880, Pitch_bend_c, 12, 8832
8, 145882, Pitch_bend_c, 12, 8704
8, 145885, Pitch_bend_c, 12, 8320
8, 145889, Pitch_bend_c, 12, 7936
8, 145892, Pitch_bend_c, 12, 7680
8, 145895, Pitch_bend_c, 12, 7552
8, 145896, Pitch_bend_c, 12, 7424
8, 145900, Pitch_bend_c, 12, 7552
8, 145906, Pitch_bend_c, 12, 7808
8, 145910, Pitch_bend_c, 12, 8064
8, 145913, Pitch_bend_c, 12, 8320
8, 145915, Pitch_bend_c, 12, 8192
8, 145920, Note_on_c, 12, 81, 0
8, 145920, Note_on_c, 12, 81, 120
8, 145980, Note_on_c, 12, 81, 0
8, 145980, Note_on_c, 12, 81, 120
8, 146040, Note_on_c, 12, 81, 0
8, 146040, Note_on_c, 12, 81, 120
8, 146100, Note_on_c, 12, 81, 0
8, 146100, Note_on_c, 12, 81, 121
8, 146101, Pitch_bend_c, 12, 0
8, 146102, Pitch_bend_c, 12, 128
8, 146103, Pitch_bend_c, 12, 384
8, 146104, Pitch_bend_c, 12, 640
8, 146106, Pitch_bend_c, 12, 896
8, 146107, Pitch_bend_c, 12, 1024
8, 146108, Pitch_bend_c, 12, 1280
8, 146109, Pitch_bend_c, 12, 1536
8, 146110, Pitch_bend_c, 12, 1792
8, 146112, Pitch_bend_c, 12, 2048
8, 146113, Pitch_bend_c, 12, 2176
8, 146114, Pitch_bend_c, 12, 2432
8, 146115, Pitch_bend_c, 12, 2688
8, 146116, Pitch_bend_c, 12, 2944
8, 146118, Pitch_bend_c, 12, 3072
8, 146119, Pitch_bend_c, 12, 3328
8, 146120, Pitch_bend_c, 12, 3584
8, 146121, Pitch_bend_c, 12, 3840
8, 146122, Pitch_bend_c, 12, 4096
8, 146124, Pitch_bend_c, 12, 4224
8, 146125, Pitch_bend_c, 12, 4480
8, 146126, Pitch_bend_c, 12, 4736
8, 146127, Pitch_bend_c, 12, 4992
8, 146128, Pitch_bend_c, 12, 5120
8, 146130, Pitch_bend_c, 12, 5376
8, 146131, Pitch_bend_c, 12, 5632
8, 146132, Pitch_bend_c, 12, 5888
8, 146133, Pitch_bend_c, 12, 6144
8, 146134, Pitch_bend_c, 12, 6272
8, 146136, Pitch_bend_c, 12, 6528
8, 146137, Pitch_bend_c, 12, 6784
8, 146138, Pitch_bend_c, 12, 7040
8, 146139, Pitch_bend_c, 12, 7168
8, 146140, Pitch_bend_c, 12, 7424
8, 146142, Pitch_bend_c, 12, 7680
8, 146143, Pitch_bend_c, 12, 7936
8, 146144, Pitch_bend_c, 12, 8192
8, 146220, Note_on_c, 12, 81, 0
8, 146220, Note_on_c, 12, 81, 121
8, 146280, Note_on_c, 12, 81, 0
8, 146280, Note_on_c, 12, 81, 122
8, 146340, Note_on_c, 12, 81, 0
8, 146340, Note_on_c, 12, 81, 122
8, 146342, Pitch_bend_c, 12, 0
8, 146343, Pitch_bend_c, 12, 128
8, 146344, Pitch_bend_c, 12, 384
8, 146346, Pitch_bend_c, 12, 640
8, 146347, Pitch_bend_c, 12, 768
8, 146348, Pitch_bend_c, 12, 1024
8, 146349, Pitch_bend_c, 12, 1280
8, 146350, Pitch_bend_c, 12, 1408
8, 146352, Pitch_bend_c, 12, 1664
8, 146353, Pitch_bend_c, 12, 1920
8, 146354, Pitch_bend_c, 12, 2048
8, 146355, Pitch_bend_c, 12, 2304
8, 146356, Pitch_bend_c, 12, 2560
8, 146358, Pitch_bend_c, 12, 2688
8, 146359, Pitch_bend_c, 12, 2944
8, 146360, Pitch_bend_c, 12, 3200
8, 146361, Pitch_bend_c, 12, 3328
8, 146362, Pitch_bend_c, 12, 3584
8, 146364, Pitch_bend_c, 12, 3840
8, 146365, Pitch_bend_c, 12, 4096
8, 146366, Pitch_bend_c, 12, 4224
8, 146367, Pitch_bend_c, 12, 4480
8, 146368, Pitch_bend_c, 12, 4736
8, 146370, Pitch_bend_c, 12, 4864
8, 146371, Pitch_bend_c, 12, 5120
8, 146372, Pitch_bend_c, 12, 5376
8, 146373, Pitch_bend_c, 12, 5504
8, 146374, Pitch_bend_c, 12, 5760
8, 146376, Pitch_bend_c, 12, 6016
8, 146377, Pitch_bend_c, 12, 6144
8, 146378, Pitch_bend_c, 12, 6400
8, 146379, Pitch_bend_c, 12, 6656
8, 146380, Pitch_bend_c, 12, 6784
8, 146382, Pitch_bend_c, 12, 7040
8, 146383, Pitch_bend_c, 12, 7296
8, 146384, Pitch_bend_c, 12, 7424
8, 146385, Pitch_bend_c, 12, 7680
8, 146386, Pitch_bend_c, 12, 7936
8, 146388, Pitch_bend_c, 12, 8192
8, 146460, Note_on_c, 12, 81, 0
8, 146460, Note_on_c, 12, 81, 123
8, 146504, Pitch_bend_c, 12, 128
8, 146506, Pitch_bend_c, 12, 256
8, 146508, Pitch_bend_c, 12, 384
8, 146509, Pitch_bend_c, 12, 512
8, 146510, Pitch_bend_c, 12, 640
8, 146511, Pitch_bend_c, 12, 768
8, 146512, Pitch_bend_c, 12, 896
8, 146514, Pitch_bend_c, 12, 1024
8, 146516, Pitch_bend_c, 12, 1152
8, 146517, Pitch_bend_c, 12, 1280
8, 146518, Pitch_bend_c, 12, 1408
8, 146520, Note_on_c, 12, 81, 0
8, 146520, Pitch_bend_c, 12, 1536
8, 146520, Note_on_c, 12, 86, 123
8, 146521, Pitch_bend_c, 12, 1664
8, 146522, Pitch_bend_c, 12, 1792
8, 146523, Pitch_bend_c, 12, 1920
8, 146526, Pitch_bend_c, 12, 2048
8, 146527, Pitch_bend_c, 12, 2176
8, 146528, Pitch_bend_c, 12, 2304
8, 146529, Pitch_bend_c, 12, 2432
8, 146530, Pitch_bend_c, 12, 2560
8, 146532, Pitch_bend_c, 12, 2688
8, 146533, Pitch_bend_c, 12, 2816
8, 146534, Pitch_bend_c, 12, 2944
8, 146536, Pitch_bend_c, 12, 3072
8, 146538, Pitch_bend_c, 12, 3200
8, 146539, Pitch_bend_c, 12, 3328
8, 146540, Pitch_bend_c, 12, 3456
8, 146541, Pitch_bend_c, 12, 3584
8, 146542, Pitch_bend_c, 12, 3712
8, 146544, Pitch_bend_c, 12, 3840
8, 146546, Pitch_bend_c, 12, 3968
8, 146547, Pitch_bend_c, 12, 4096
8, 146548, Pitch_bend_c, 12, 4224
8, 146550, Pitch_bend_c, 12, 4352
8, 146551, Pitch_bend_c, 12, 4480
8, 146552, Pitch_bend_c, 12, 4608
8, 146553, Pitch_bend_c, 12, 4736
8, 146554, Pitch_bend_c, 12, 4864
8, 146557, Pitch_bend_c, 12, 4992
8, 146558, Pitch_bend_c, 12, 5120
8, 146559, Pitch_bend_c, 12, 5248
8, 146560, Pitch_bend_c, 12, 5376
8, 146562, Pitch_bend_c, 12, 5504
8, 146563, Pitch_bend_c, 12, 5632
8, 146564, Pitch_bend_c, 12, 5760
8, 146566, Pitch_bend_c, 12, 5888
8, 146568, Pitch_bend_c, 12, 6016
8, 146569, Pitch_bend_c, 12, 6144
8, 146570, Pitch_bend_c, 12, 6272
8, 146571, Pitch_bend_c, 12, 6400
8, 146572, Pitch_bend_c, 12, 6528
8, 146574, Pitch_bend_c, 12, 6656
8, 146575, Pitch_bend_c, 12, 6784
8, 146577, Pitch_bend_c, 12, 6912
8, 146578, Pitch_bend_c, 12, 7040
8, 146580, Pitch_bend_c, 12, 7168
8, 146580, Control_c, 12, 101, 0
8, 146580, Control_c, 12, 100, 0
8, 146580, Control_c, 12, 6, 2
8, 146580, Control_c, 12, 38, 127
8, 146581, Pitch_bend_c, 12, 7296
8, 146582, Pitch_bend_c, 12, 7424
8, 146583, Pitch_bend_c, 12, 7552
8, 146584, Pitch_bend_c, 12, 7680
8, 146587, Pitch_bend_c, 12, 7808
8, 146588, Pitch_bend_c, 12, 7936
8, 146589, Pitch_bend_c, 12, 8064
8, 146590, Pitch_bend_c, 12, 8192
8, 146592, Pitch_bend_c, 12, 8320
8, 146593, Pitch_bend_c, 12, 8448
8, 146594, Pitch_bend_c, 12, 8576
8, 146595, Pitch_bend_c, 12, 8704
8, 146598, Pitch_bend_c, 12, 8832
8, 146599, Pitch_bend_c, 12, 8960
8, 146600, Pitch_bend_c, 12, 9088
8, 146601, Pitch_bend_c, 12, 9216
8, 146602, Pitch_bend_c, 12, 9344
8, 146604, Pitch_bend_c, 12, 9472
8, 146605, Pitch_bend_c, 12, 9600
8, 146607, Pitch_bend_c, 12, 9728
8, 146608, Pitch_bend_c, 12, 9856
8, 146610, Pitch_bend_c, 12, 9984
8, 146611, Pitch_bend_c, 12, 10112
8, 146612, Pitch_bend_c, 12, 10240
8, 146613, Pitch_bend_c, 12, 10368
8, 146614, Pitch_bend_c, 12, 10496
8, 146616, Pitch_bend_c, 12, 10624
8, 146640, Note_on_c, 12, 86, 0
8, 146640, Note_on_c, 12, 88, 124
8, 146641, Pitch_bend_c, 12, 8192
8, 146700, Note_on_c, 12, 88, 0
8, 146700, Note_on_c, 12, 88, 124
8, 146760, Note_on_c, 12, 88, 0
8, 146760, Note_on_c, 12, 88, 125
8, 146820, Note_on_c, 12, 88, 0
8, 146820, Note_on_c, 12, 88, 125
8, 146821, Pitch_bend_c, 12, 0
8, 146822, Pitch_bend_c, 12, 128
8, 146823, Pitch_bend_c, 12, 384
8, 146824, Pitch_bend_c, 12, 640
8, 146826, Pitch_bend_c, 12, 896
8, 146827, Pitch_bend_c, 12, 1024
8, 146828, Pitch_bend_c, 12, 1280
8, 146829, Pitch_bend_c, 12, 1536
8, 146830, Pitch_bend_c, 12, 1792
8, 146832, Pitch_bend_c, 12, 2048
8, 146833, Pitch_bend_c, 12, 2176
8, 146834, Pitch_bend_c, 12, 2432
8, 146835, Pitch_bend_c, 12, 2688
8, 146836, Pitch_bend_c, 12, 2944
8, 146838, Pitch_bend_c, 12, 3072
8, 146839, Pitch_bend_c, 12, 3328
8, 146840, Pitch_bend_c, 12, 3584
8, 146841, Pitch_bend_c, 12, 3840
8, 146842, Pitch_bend_c, 12, 4096
8, 146844, Pitch_bend_c, 12, 4224
8, 146845, Pitch_bend_c, 12, 4480
8, 146846, Pitch_bend_c, 12, 4736
8, 146847, Pitch_bend_c, 12, 4992
8, 146848, Pitch_bend_c, 12, 5120
8, 146850, Pitch_bend_c, 12, 5376
8, 146851, Pitch_bend_c, 12, 5632
8, 146852, Pitch_bend_c, 12, 5888
8, 146853, Pitch_bend_c, 12, 6144
8, 146854, Pitch_bend_c, 12, 6272
8, 146856, Pitch_bend_c, 12, 6528
8, 146857, Pitch_bend_c, 12, 6784
8, 146858, Pitch_bend_c, 12, 7040
8, 146859, Pitch_bend_c, 12, 7168
8, 146860, Pitch_bend_c, 12, 7424
8, 146862, Pitch_bend_c, 12, 7680
8, 146863, Pitch_bend_c, 12, 7936
8, 146864, Pitch_bend_c, 12, 8192
8, 146940, Note_on_c, 12, 88, 0
8, 146940, Note_on_c, 12, 88, 126
8, 147000, Note_on_c, 12, 88, 0
8, 147000, Note_on_c, 12, 88, 126
8, 147060, Note_on_c, 12, 88, 0
8, 147060, Note_on_c, 12, 88, 126
8, 147062, Pitch_bend_c, 12, 0
8, 147063, Pitch_bend_c, 12, 128
8, 147064, Pitch_bend_c, 12, 384
8, 147066, Pitch_bend_c, 12, 640
8, 147067, Pitch_bend_c, 12, 768
8, 147068, Pitch_bend_c, 12, 1024
8, 147069, Pitch_bend_c, 12, 1280
8, 147070, Pitch_bend_c, 12, 1408
8, 147072, Pitch_bend_c, 12, 1664
8, 147073, Pitch_bend_c, 12, 1920
8, 147074, Pitch_bend_c, 12, 2048
8, 147075, Pitch_bend_c, 12, 2304
8, 147076, Pitch_bend_c, 12, 2560
8, 147078, Pitch_bend_c, 12, 2688
8, 147079, Pitch_bend_c, 12, 2944
8, 147080, Pitch_bend_c, 12, 3200
8, 147081, Pitch_bend_c, 12, 3328
8, 147082, Pitch_bend_c, 12, 3584
8, 147084, Pitch_bend_c, 12, 3840
8, 147085, Pitch_bend_c, 12, 4096
8, 147086, Pitch_bend_c, 12, 4224
8, 147087, Pitch_bend_c, 12, 4480
8, 147088, Pitch_bend_c, 12, 4736
8, 147090, Pitch_bend_c, 12, 4864
8, 147091, Pitch_bend_c, 12, 5120
8, 147092, Pitch_bend_c, 12, 5376
8, 147093, Pitch_bend_c, 12, 5504
8, 147094, Pitch_bend_c, 12, 5760
8, 147096, Pitch_bend_c, 12, 6016
8, 147097, Pitch_bend_c, 12, 6144
8, 147098, Pitch_bend_c, 12, 6400
8, 147099, Pitch_bend_c, 12, 6656
8, 147100, Pitch_bend_c, 12, 6784
8, 147102, Pitch_bend_c, 12, 7040
8, 147103, Pitch_bend_c, 12, 7296
8, 147104, Pitch_bend_c, 12, 7424
8, 147105, Pitch_bend_c, 12, 7680
8, 147106, Pitch_bend_c, 12, 7936
8, 147108, Pitch_bend_c, 12, 8192
8, 147180, Note_on_c, 12, 88, 0
8, 147180, Note_on_c, 12, 88, 127
8, 147240, Note_on_c, 12, 88, 0
8, 147240, Note_on_c, 12, 88, 127
8, 147242, Pitch_bend_c, 12, 0
8, 147243, Pitch_bend_c, 12, 0
8, 147244, Pitch_bend_c, 12, 256
8, 147246, Pitch_bend_c, 12, 512
8, 147247, Pitch_bend_c, 12, 768
8, 147248, Pitch_bend_c, 12, 1024
8, 147249, Pitch_bend_c, 12, 1280
8, 147250, Pitch_bend_c, 12, 1536
8, 147252, Pitch_bend_c, 12, 1792
8, 147253, Pitch_bend_c, 12, 2048
8, 147254, Pitch_bend_c, 12, 2304
8, 147255, Pitch_bend_c, 12, 2560
8, 147256, Pitch_bend_c, 12, 2688
8, 147258, Pitch_bend_c, 12, 2944
8, 147259, Pitch_bend_c, 12, 3200
8, 147260, Pitch_bend_c, 12, 3456
8, 147261, Pitch_bend_c, 12, 3712
8, 147262, Pitch_bend_c, 12, 3968
8, 147264, Pitch_bend_c, 12, 4224
8, 147265, Pitch_bend_c, 12, 4480
8, 147266, Pitch_bend_c, 12, 4736
8, 147267, Pitch_bend_c, 12, 4992
8, 147268, Pitch_bend_c, 12, 5248
8, 147270, Pitch_bend_c, 12, 5376
8, 147271, Pitch_bend_c, 12, 5632
8, 147272, Pitch_bend_c, 12, 5888
8, 147273, Pitch_bend_c, 12, 6144
8, 147274, Pitch_bend_c, 12, 6400
8, 147276, Pitch_bend_c, 12, 6656
8, 147277, Pitch_bend_c, 12, 6912
8, 147278, Pitch_bend_c, 12, 7168
8, 147279, Pitch_bend_c, 12, 7424
8, 147280, Pitch_bend_c, 12, 7680
8, 147282, Pitch_bend_c, 12, 7936
8, 147283, Pitch_bend_c, 12, 8192
8, 147297, Pitch_bend_c, 12, 8320
8, 147298, Pitch_bend_c, 12, 8448
8, 147302, Pitch_bend_c, 12, 8704
8, 147308, Pitch_bend_c, 12, 8832
8, 147313, Pitch_bend_c, 12, 8960
8, 147316, Pitch_bend_c, 12, 9088
8, 147320, Pitch_bend_c, 12, 8960
8, 147322, Pitch_bend_c, 12, 8832
8, 147324, Pitch_bend_c, 12, 8704
8, 147327, Pitch_bend_c, 12, 8320
8, 147331, Pitch_bend_c, 12, 7936
8, 147334, Pitch_bend_c, 12, 7680
8, 147337, Pitch_bend_c, 12, 7552
8, 147338, Pitch_bend_c, 12, 7424
8, 147342, Pitch_bend_c, 12, 7552
8, 147348, Pitch_bend_c, 12, 7808
8, 147352, Pitch_bend_c, 12, 8064
8, 147355, Pitch_bend_c, 12, 8320
8, 147360, Pitch_bend_c, 12, 8576
8, 147366, Pitch_bend_c, 12, 8960
8, 147369, Pitch_bend_c, 12, 9088
8, 147373, Pitch_bend_c, 12, 9216
8, 147382, Pitch_bend_c, 12, 8832
8, 147391, Pitch_bend_c, 12, 8320
8, 147397, Pitch_bend_c, 12, 7936
8, 147400, Pitch_bend_c, 12, 7680
8, 147403, Pitch_bend_c, 12, 7424
8, 147405, Pitch_bend_c, 12, 7296
8, 147409, Pitch_bend_c, 12, 7040
8, 147414, Pitch_bend_c, 12, 6912
8, 147421, Pitch_bend_c, 12, 7040
8, 147424, Pitch_bend_c, 12, 7296
8, 147433, Pitch_bend_c, 12, 7680
8, 147441, Pitch_bend_c, 12, 8320
8, 147445, Pitch_bend_c, 12, 8576
8, 147447, Pitch_bend_c, 12, 8704
8, 147458, Pitch_bend_c, 12, 8832
8, 147471, Pitch_bend_c, 12, 8576
8, 147475, Pitch_bend_c, 12, 8320
8, 147477, Pitch_bend_c, 12, 8064
8, 147478, Pitch_bend_c, 12, 7808
8, 147489, Pitch_bend_c, 12, 8192
8, 147499, Pitch_bend_c, 12, 8576
8, 147506, Pitch_bend_c, 12, 8832
8, 147519, Pitch_bend_c, 12, 8448
8, 147523, Pitch_bend_c, 12, 8064
8, 147524, Pitch_bend_c, 12, 7936
8, 147535, Pitch_bend_c, 12, 8320
8, 147538, Pitch_bend_c, 12, 8448
8, 147540, Note_on_c, 12, 88, 0
8, 147540, Note_on_c, 12, 74, 65
8, 147541, Pitch_bend_c, 12, 9600
8, 147543, Control_c, 12, 101, 0
8, 147543, Control_c, 12, 100, 0
8, 147543, Control_c, 12, 6, 16
8, 147543, Control_c, 12, 38, 127
8, 147543, Pitch_bend_c, 12, 9472
8, 147544, Control_c, 12, 101, 0
8, 147544, Control_c, 12, 100, 0
8, 147544, Control_c, 12, 6, 31
8, 147544, Control_c, 12, 38, 127
8, 147544, Pitch_bend_c, 12, 9344
8, 147547, Pitch_bend_c, 12, 9216
8, 147548, Pitch_bend_c, 12, 9088
8, 147550, Pitch_bend_c, 12, 8960
8, 147552, Pitch_bend_c, 12, 8832
8, 147554, Pitch_bend_c, 12, 8704
8, 147555, Pitch_bend_c, 12, 8576
8, 147558, Pitch_bend_c, 12, 8448
8, 147559, Pitch_bend_c, 12, 8320
8, 147561, Pitch_bend_c, 12, 8192
8, 147562, Pitch_bend_c, 12, 8064
8, 147565, Pitch_bend_c, 12, 7936
8, 147566, Pitch_bend_c, 12, 7808
8, 147568, Pitch_bend_c, 12, 7680
8, 147570, Pitch_bend_c, 12, 7552
8, 147572, Pitch_bend_c, 12, 7424
8, 147573, Pitch_bend_c, 12, 7296
8, 147574, Pitch_bend_c, 12, 7168
8, 147577, Pitch_bend_c, 12, 7040
8, 147578, Pitch_bend_c, 12, 6912
8, 147580, Pitch_bend_c, 12, 6784
8, 147582, Pitch_bend_c, 12, 6656
8, 147584, Pitch_bend_c, 12, 6528
8, 147585, Pitch_bend_c, 12, 6400
8, 147588, Pitch_bend_c, 12, 6272
8, 147589, Pitch_bend_c, 12, 6144
8, 147591, Pitch_bend_c, 12, 6016
8, 147592, Pitch_bend_c, 12, 5888
8, 147595, Pitch_bend_c, 12, 5760
8, 147596, Pitch_bend_c, 12, 5632
8, 147598, Pitch_bend_c, 12, 5504
8, 147600, Pitch_bend_c, 12, 5376
8, 147602, Pitch_bend_c, 12, 5248
8, 147603, Pitch_bend_c, 12, 5120
8, 147606, Pitch_bend_c, 12, 4992
8, 147607, Pitch_bend_c, 12, 4864
8, 147608, Pitch_bend_c, 12, 4736
8, 147610, Pitch_bend_c, 12, 4608
8, 147612, Pitch_bend_c, 12, 4480
8, 147614, Pitch_bend_c, 12, 4352
8, 147615, Pitch_bend_c, 12, 4224
8, 147618, Pitch_bend_c, 12, 4096
8, 147619, Pitch_bend_c, 12, 3968
8, 147621, Pitch_bend_c, 12, 3840
8, 147622, Pitch_bend_c, 12, 3712
8, 147625, Pitch_bend_c, 12, 3584
8, 147626, Pitch_bend_c, 12, 3456
8, 147628, Pitch_bend_c, 12, 3328
8, 147630, Pitch_bend_c, 12, 3200
8, 147632, Pitch_bend_c, 12, 3072
8, 147633, Pitch_bend_c, 12, 2944
8, 147636, Pitch_bend_c, 12, 2816
8, 147637, Pitch_bend_c, 12, 2688
8, 147639, Pitch_bend_c, 12, 2560
8, 147640, Pitch_bend_c, 12, 2432
8, 147642, Pitch_bend_c, 12, 2304
8, 147644, Pitch_bend_c, 12, 2176
8, 147645, Pitch_bend_c, 12, 2048
8, 147648, Pitch_bend_c, 12, 1920
8, 147649, Pitch_bend_c, 12, 1792
8, 147651, Pitch_bend_c, 12, 1664
8, 147652, Pitch_bend_c, 12, 1536
8, 147655, Pitch_bend_c, 12, 1408
8, 147656, Pitch_bend_c, 12, 1280
8, 147658, Pitch_bend_c, 12, 1152
8, 147660, Pitch_bend_c, 12, 1024
8, 147662, Pitch_bend_c, 12, 896
8, 147663, Pitch_bend_c, 12, 768
8, 147666, Pitch_bend_c, 12, 640
8, 147667, Pitch_bend_c, 12, 512
8, 147669, Pitch_bend_c, 12, 384
8, 147670, Pitch_bend_c, 12, 256
8, 147672, Pitch_bend_c, 12, 128
8, 147675, Note_on_c, 12, 74, 0
8, 147675, End_track
9, 0, Start_track
9, 0, MIDI_port, 0
9, 0, Title_t, "Bass"
9, 0, Program_c, 1, 35
9, 3600, Note_on_c, 1, 38, 80
9, 4080, Note_on_c, 1, 38, 0
9, 4080, Note_on_c, 1, 33, 80
9, 4560, Note_on_c, 1, 33, 0
9, 4560, Note_on_c, 1, 38, 80
9, 4800, Note_on_c, 1, 38, 0
9, 4800, Note_on_c, 1, 31, 80
9, 5040, Note_on_c, 1, 31, 0
9, 5040, Note_on_c, 1, 36, 80
9, 5520, Note_on_c, 1, 36, 0
9, 5520, Note_on_c, 1, 38, 80
9, 6000, Note_on_c, 1, 38, 0
9, 6000, Note_on_c, 1, 33, 80
9, 6480, Note_on_c, 1, 33, 0
9, 6480, Note_on_c, 1, 38, 80
9, 6720, Note_on_c, 1, 38, 0
9, 6720, Note_on_c, 1, 31, 80
9, 6960, Note_on_c, 1, 31, 0
9, 6960, Note_on_c, 1, 36, 80
9, 7920, Note_on_c, 1, 36, 0
9, 9810, Note_on_c, 1, 45, 80
9, 9840, Note_on_c, 1, 45, 0
9, 9840, Note_on_c, 1, 50, 80
9, 10260, Note_on_c, 1, 50, 0
9, 10260, Note_on_c, 1, 50, 80
9, 10290, Note_on_c, 1, 50, 0
9, 10290, Note_on_c, 1, 52, 80
9, 10320, Note_on_c, 1, 52, 0
9, 10320, Note_on_c, 1, 45, 80
9, 10321, Control_c, 1, 101, 0
9, 10321, Control_c, 1, 100, 0
9, 10321, Control_c, 1, 6, 9
9, 10321, Control_c, 1, 38, 127
9, 10694, Pitch_bend_c, 1, 8192
9, 10696, Pitch_bend_c, 1, 8064
9, 10699, Pitch_bend_c, 1, 7936
9, 10700, Pitch_bend_c, 1, 7808
9, 10702, Pitch_bend_c, 1, 7680
9, 10704, Pitch_bend_c, 1, 7552
9, 10706, Pitch_bend_c, 1, 7424
9, 10708, Pitch_bend_c, 1, 7296
9, 10710, Pitch_bend_c, 1, 7168
9, 10712, Pitch_bend_c, 1, 7040
9, 10713, Pitch_bend_c, 1, 6912
9, 10716, Pitch_bend_c, 1, 6784
9, 10717, Pitch_bend_c, 1, 6656
9, 10719, Pitch_bend_c, 1, 6528
9, 10722, Pitch_bend_c, 1, 6400
9, 10723, Pitch_bend_c, 1, 6272
9, 10725, Pitch_bend_c, 1, 6144
9, 10726, Pitch_bend_c, 1, 6016
9, 10729, Pitch_bend_c, 1, 5888
9, 10730, Pitch_bend_c, 1, 5760
9, 10732, Pitch_bend_c, 1, 5632
9, 10735, Pitch_bend_c, 1, 5504
9, 10736, Pitch_bend_c, 1, 5376
9, 10738, Pitch_bend_c, 1, 5248
9, 10740, Pitch_bend_c, 1, 5120
9, 10742, Pitch_bend_c, 1, 4992
9, 10743, Pitch_bend_c, 1, 4864
9, 10746, Pitch_bend_c, 1, 4736
9, 10748, Pitch_bend_c, 1, 4608
9, 10749, Pitch_bend_c, 1, 4480
9, 10752, Pitch_bend_c, 1, 4352
9, 10753, Pitch_bend_c, 1, 4224
9, 10755, Pitch_bend_c, 1, 4096
9, 10756, Pitch_bend_c, 1, 3968
9, 10759, Pitch_bend_c, 1, 3840
9, 10761, Pitch_bend_c, 1, 3712
9, 10762, Pitch_bend_c, 1, 3584
9, 10765, Pitch_bend_c, 1, 3456
9, 10766, Pitch_bend_c, 1, 3328
9, 10768, Pitch_bend_c, 1, 3200
9, 10770, Pitch_bend_c, 1, 3072
9, 10772, Pitch_bend_c, 1, 2944
9, 10774, Pitch_bend_c, 1, 2816
9, 10776, Pitch_bend_c, 1, 2688
9, 10778, Pitch_bend_c, 1, 2560
9, 10779, Pitch_bend_c, 1, 2432
9, 10782, Pitch_bend_c, 1, 2304
9, 10783, Pitch_bend_c, 1, 2176
9, 10785, Pitch_bend_c, 1, 2048
9, 10788, Pitch_bend_c, 1, 1920
9, 10789, Pitch_bend_c, 1, 1792
9, 10791, Pitch_bend_c, 1, 1664
9, 10792, Pitch_bend_c, 1, 1536
9, 10795, Pitch_bend_c, 1, 1408
9, 10796, Pitch_bend_c, 1, 1280
9, 10800, Note_on_c, 1, 45, 0
9, 10800, Pitch_bend_c, 1, 8192
9, 10800, Note_on_c, 1, 38, 80
9, 11040, Note_on_c, 1, 38, 0
9, 11040, Note_on_c, 1, 35, 80
9, 11280, Note_on_c, 1, 35, 0
9, 11280, Note_on_c, 1, 36, 80
9, 11460, Note_on_c, 1, 64, 50
9, 11460, Note_on_c, 1, 52, 65
9, 11520, Note_on_c, 1, 52, 0
9, 11520, Note_on_c, 1, 64, 0
9, 11520, Note_on_c, 1, 64, 50
9, 11520, Note_on_c, 1, 52, 65
9, 12240, Note_on_c, 1, 52, 0
9, 12240, Note_on_c, 1, 64, 0
9, 12240, Note_on_c, 1, 36, 0
9, 12240, Note_on_c, 1, 31, 75
9, 12540, Note_on_c, 1, 31, 0
9, 12540, Note_on_c, 1, 33, 75
9, 12660, Note_on_c, 1, 33, 0
9, 12660, Note_on_c, 1, 35, 75
9, 12960, Note_on_c, 1, 35, 0
9, 12960, Note_on_c, 1, 40, 75
9, 13080, Note_on_c, 1, 40, 0
9, 13080, Note_on_c, 1, 36, 75
9, 13380, Note_on_c, 1, 36, 0
9, 13380, Note_on_c, 1, 35, 75
9, 13500, Note_on_c, 1, 35, 0
9, 13500, Note_on_c, 1, 33, 75
9, 13740, Note_on_c, 1, 33, 0
9, 13740, Note_on_c, 1, 29, 75
9, 13980, Note_on_c, 1, 29, 0
9, 13980, Note_on_c, 1, 31, 75
9, 14280, Note_on_c, 1, 31, 0
9, 14280, Note_on_c, 1, 33, 75
9, 14400, Note_on_c, 1, 33, 0
9, 14400, Note_on_c, 1, 35, 75
9, 14700, Note_on_c, 1, 35, 0
9, 14700, Note_on_c, 1, 40, 75
9, 14820, Note_on_c, 1, 40, 0
9, 14820, Note_on_c, 1, 41, 75
9, 15120, Note_on_c, 1, 41, 0
9, 15120, Note_on_c, 1, 40, 75
9, 15240, Note_on_c, 1, 40, 0
9, 15240, Note_on_c, 1, 38, 75
9, 15480, Note_on_c, 1, 38, 0
9, 15480, Note_on_c, 1, 38, 75
9, 15600, Note_on_c, 1, 38, 0
9, 15600, Note_on_c, 1, 38, 75
9, 15720, Note_on_c, 1, 38, 0
9, 15720, Note_on_c, 1, 52, 100
9, 15870, Note_on_c, 1, 52, 0
9, 15870, Note_on_c, 1, 47, 70
9, 15900, Note_on_c, 1, 47, 0
9, 15900, Note_on_c, 1, 52, 100
9, 16140, Note_on_c, 1, 52, 0
9, 16140, Note_on_c, 1, 52, 100
9, 16170, Note_on_c, 1, 52, 0
9, 16170, Note_on_c, 1, 54, 100
9, 16200, Note_on_c, 1, 54, 0
9, 16200, Note_on_c, 1, 47, 100
9, 16560, Note_on_c, 1, 47, 0
9, 16560, Note_on_c, 1, 47, 100
9, 16594, Pitch_bend_c, 1, 8320
9, 16597, Pitch_bend_c, 1, 8064
9, 16600, Pitch_bend_c, 1, 7936
9, 16603, Pitch_bend_c, 1, 7808
9, 16605, Pitch_bend_c, 1, 7680
9, 16608, Pitch_bend_c, 1, 7552
9, 16610, Pitch_bend_c, 1, 7424
9, 16612, Pitch_bend_c, 1, 7296
9, 16616, Pitch_bend_c, 1, 7168
9, 16618, Pitch_bend_c, 1, 7040
9, 16621, Pitch_bend_c, 1, 6912
9, 16623, Pitch_bend_c, 1, 6784
9, 16626, Pitch_bend_c, 1, 6656
9, 16628, Pitch_bend_c, 1, 6528
9, 16632, Pitch_bend_c, 1, 6400
9, 16634, Pitch_bend_c, 1, 6272
9, 16636, Pitch_bend_c, 1, 6144
9, 16639, Pitch_bend_c, 1, 6016
9, 16641, Pitch_bend_c, 1, 5888
9, 16644, Pitch_bend_c, 1, 5760
9, 16647, Pitch_bend_c, 1, 5632
9, 16650, Pitch_bend_c, 1, 5504
9, 16652, Pitch_bend_c, 1, 5376
9, 16654, Pitch_bend_c, 1, 5248
9, 16657, Pitch_bend_c, 1, 5120
9, 16659, Pitch_bend_c, 1, 4992
9, 16663, Pitch_bend_c, 1, 4864
9, 16665, Pitch_bend_c, 1, 4736
9, 16668, Pitch_bend_c, 1, 4608
9, 16670, Pitch_bend_c, 1, 4480
9, 16672, Pitch_bend_c, 1, 4352
9, 16675, Pitch_bend_c, 1, 4224
9, 16677, Pitch_bend_c, 1, 4096
9, 16678, Pitch_bend_c, 1, 5376
9, 16680, Note_on_c, 1, 47, 0
9, 16680, Note_on_c, 1, 40, 100
9, 16681, Pitch_bend_c, 1, 8192
9, 16920, Note_on_c, 1, 40, 0
9, 16920, Note_on_c, 1, 45, 100
9, 17160, Note_on_c, 1, 45, 0
9, 17160, Note_on_c, 1, 38, 100
9, 17640, Note_on_c, 1, 38, 0
9, 17640, Note_on_c, 1, 28, 100
9, 17820, Note_on_c, 1, 28, 0
9, 17820, Note_on_c, 1, 28, 100
9, 18061, Pitch_bend_c, 1, 8192
9, 18064, Pitch_bend_c, 1, 8576
9, 18067, Pitch_bend_c, 1, 8960
9, 18069, Pitch_bend_c, 1, 9344
9, 18072, Pitch_bend_c, 1, 9728
9, 18075, Pitch_bend_c, 1, 10112
9, 18078, Pitch_bend_c, 1, 10496
9, 18080, Pitch_bend_c, 1, 10880
9, 18083, Pitch_bend_c, 1, 11264
9, 18086, Pitch_bend_c, 1, 11648
9, 18088, Pitch_bend_c, 1, 12032
9, 18091, Pitch_bend_c, 1, 12416
9, 18094, Pitch_bend_c, 1, 12800
9, 18097, Pitch_bend_c, 1, 13184
9, 18099, Pitch_bend_c, 1, 13568
9, 18102, Pitch_bend_c, 1, 13952
9, 18105, Pitch_bend_c, 1, 14336
9, 18108, Pitch_bend_c, 1, 14720
9, 18110, Pitch_bend_c, 1, 15104
9, 18113, Pitch_bend_c, 1, 15488
9, 18116, Pitch_bend_c, 1, 15872
9, 18118, Pitch_bend_c, 1, 16383
9, 18120, Note_on_c, 1, 28, 0
9, 18120, Note_on_c, 1, 35, 100
9, 18121, Pitch_bend_c, 1, 8192
9, 18300, Note_on_c, 1, 35, 0
9, 18300, Note_on_c, 1, 35, 100
9, 18480, Note_on_c, 1, 35, 0
9, 18480, Note_on_c, 1, 35, 100
9, 18600, Note_on_c, 1, 35, 0
9, 18600, Note_on_c, 1, 28, 100
9, 18840, Note_on_c, 1, 28, 0
9, 18840, Note_on_c, 1, 33, 100
9, 19080, Note_on_c, 1, 33, 0
9, 19080, Note_on_c, 1, 26, 80
9, 19560, Note_on_c, 1, 26, 0
9, 19620, Note_on_c, 1, 40, 100
9, 19740, Note_on_c, 1, 40, 0
9, 19740, Note_on_c, 1, 41, 100
9, 19830, Note_on_c, 1, 41, 0
9, 19860, Note_on_c, 1, 38, 100
9, 19935, Note_on_c, 1, 38, 0
9, 19980, Note_on_c, 1, 40, 100
9, 20160, Note_on_c, 1, 40, 0
9, 20160, Note_on_c, 1, 35, 100
9, 20340, Note_on_c, 1, 35, 0
9, 20340, Note_on_c, 1, 38, 100
9, 20520, Note_on_c, 1, 38, 0
9, 20520, Note_on_c, 1, 40, 100
9, 20610, Note_on_c, 1, 40, 0
9, 20640, Note_on_c, 1, 41, 100
9, 20700, Note_on_c, 1, 41, 0
9, 20700, Note_on_c, 1, 40, 100
9, 20760, Note_on_c, 1, 40, 0
9, 20760, Note_on_c, 1, 35, 100
9, 20820, Note_on_c, 1, 35, 0
9, 20820, Note_on_c, 1, 28, 100
9, 20880, Note_on_c, 1, 28, 0
9, 20880, Note_on_c, 1, 40, 100
9, 21000, Note_on_c, 1, 40, 0
9, 21000, Note_on_c, 1, 41, 100
9, 21090, Note_on_c, 1, 41, 0
9, 21120, Note_on_c, 1, 38, 100
9, 21195, Note_on_c, 1, 38, 0
9, 21240, Note_on_c, 1, 40, 100
9, 21420, Note_on_c, 1, 40, 0
9, 21420, Note_on_c, 1, 35, 100
9, 21600, Note_on_c, 1, 35, 0
9, 21600, Note_on_c, 1, 38, 100
9, 21780, Note_on_c, 1, 38, 0
9, 21780, Note_on_c, 1, 33, 100
9, 21840, Note_on_c, 1, 33, 0
9, 21840, Note_on_c, 1, 32, 100
9, 21900, Note_on_c, 1, 32, 0
9, 21900, Note_on_c, 1, 33, 100
9, 21960, Note_on_c, 1, 33, 0
9, 21960, Note_on_c, 1, 35, 100
9, 22020, Note_on_c, 1, 35, 0
9, 22020, Note_on_c, 1, 33, 100
9, 22080, Note_on_c, 1, 33, 0
9, 22080, Note_on_c, 1, 32, 100
9, 22140, Note_on_c, 1, 32, 0
9, 22140, Note_on_c, 1, 27, 100
9, 22200, Note_on_c, 1, 27, 0
9, 22200, Note_on_c, 1, 28, 100
9, 22245, Note_on_c, 1, 28, 0
9, 22260, Note_on_c, 1, 40, 100
9, 22380, Note_on_c, 1, 40, 0
9, 22380, Note_on_c, 1, 41, 100
9, 22470, Note_on_c, 1, 41, 0
9, 22500, Note_on_c, 1, 38, 100
9, 22575, Note_on_c, 1, 38, 0
9, 22620, Note_on_c, 1, 40, 100
9, 22800, Note_on_c, 1, 40, 0
9, 22800, Note_on_c, 1, 35, 100
9, 22980, Note_on_c, 1, 35, 0
9, 22980, Note_on_c, 1, 38, 100
9, 23160, Note_on_c, 1, 38, 0
9, 23160, Note_on_c, 1, 40, 100
9, 23250, Note_on_c, 1, 40, 0
9, 23280, Note_on_c, 1, 41, 100
9, 23340, Note_on_c, 1, 41, 0
9, 23340, Note_on_c, 1, 40, 127
9, 23400, Note_on_c, 1, 40, 0
9, 23400, Note_on_c, 1, 35, 127
9, 23460, Note_on_c, 1, 35, 0
9, 23460, Note_on_c, 1, 28, 127
9, 23520, Note_on_c, 1, 28, 0
9, 23520, Note_on_c, 1, 40, 100
9, 23640, Note_on_c, 1, 40, 0
9, 23640, Note_on_c, 1, 41, 100
9, 23730, Note_on_c, 1, 41, 0
9, 23760, Note_on_c, 1, 38, 100
9, 23835, Note_on_c, 1, 38, 0
9, 23880, Note_on_c, 1, 40, 100
9, 24060, Note_on_c, 1, 40, 0
9, 24060, Note_on_c, 1, 35, 100
9, 24240, Note_on_c, 1, 35, 0
9, 24240, Note_on_c, 1, 38, 100
9, 24420, Note_on_c, 1, 38, 0
9, 24480, Note_on_c, 1, 32, 100
9, 24560, Note_on_c, 1, 32, 0
9, 24600, Note_on_c, 1, 33, 100
9, 24660, Note_on_c, 1, 33, 0
9, 24660, Note_on_c, 1, 35, 100
9, 24780, Note_on_c, 1, 35, 0
9, 24840, Note_on_c, 1, 36, 100
9, 24920, Note_on_c, 1, 36, 0
9, 24960, Note_on_c, 1, 38, 100
9, 25020, Note_on_c, 1, 38, 0
9, 25020, Note_on_c, 1, 40, 100
9, 25140, Note_on_c, 1, 40, 0
9, 25140, Note_on_c, 1, 35, 85
9, 25500, Note_on_c, 1, 35, 0
9, 25500, Note_on_c, 1, 33, 85
9, 25860, Note_on_c, 1, 33, 0
9, 25860, Note_on_c, 1, 36, 85
9, 26220, Note_on_c, 1, 36, 0
9, 26220, Note_on_c, 1, 38, 85
9, 26580, Note_on_c, 1, 38, 0
9, 26580, Note_on_c, 1, 35, 85
9, 26940, Note_on_c, 1, 35, 0
9, 26940, Note_on_c, 1, 33, 85
9, 27300, Note_on_c, 1, 33, 0
9, 27300, Note_on_c, 1, 36, 85
9, 27480, Note_on_c, 1, 36, 0
9, 27480, Note_on_c, 1, 40, 85
9, 27660, Note_on_c, 1, 40, 0
9, 27660, Note_on_c, 1, 38, 85
9, 27720, Note_on_c, 1, 38, 0
9, 27780, Note_on_c, 1, 38, 85
9, 27840, Note_on_c, 1, 38, 0
9, 27900, Note_on_c, 1, 35, 85
9, 28260, Note_on_c, 1, 35, 0
9, 28260, Note_on_c, 1, 33, 85
9, 28620, Note_on_c, 1, 33, 0
9, 28620, Note_on_c, 1, 31, 85
9, 28980, Note_on_c, 1, 31, 0
9, 28980, Note_on_c, 1, 30, 85
9, 29100, Note_on_c, 1, 30, 0
9, 29100, Note_on_c, 1, 33, 85
9, 29220, Note_on_c, 1, 33, 0
9, 29220, Note_on_c, 1, 38, 85
9, 29340, Note_on_c, 1, 38, 0
9, 29340, Note_on_c, 1, 33, 85
9, 29348, Pitch_bend_c, 1, 128
9, 29349, Pitch_bend_c, 1, 512
9, 29350, Pitch_bend_c, 1, 896
9, 29352, Pitch_bend_c, 1, 1280
9, 29353, Pitch_bend_c, 1, 1664
9, 29354, Pitch_bend_c, 1, 2048
9, 29355, Pitch_bend_c, 1, 2432
9, 29356, Pitch_bend_c, 1, 2816
9, 29358, Pitch_bend_c, 1, 3200
9, 29359, Pitch_bend_c, 1, 3584
9, 29360, Pitch_bend_c, 1, 3968
9, 29361, Pitch_bend_c, 1, 4352
9, 29362, Pitch_bend_c, 1, 4736
9, 29364, Pitch_bend_c, 1, 5120
9, 29365, Pitch_bend_c, 1, 5504
9, 29366, Pitch_bend_c, 1, 5888
9, 29367, Pitch_bend_c, 1, 6272
9, 29368, Pitch_bend_c, 1, 6656
9, 29370, Pitch_bend_c, 1, 7040
9, 29371, Pitch_bend_c, 1, 7424
9, 29372, Pitch_bend_c, 1, 7808
9, 29373, Pitch_bend_c, 1, 8192
9, 29400, Note_on_c, 1, 33, 0
9, 29400, Note_on_c, 1, 33, 85
9, 29460, Note_on_c, 1, 33, 0
9, 29520, Note_on_c, 1, 33, 85
9, 29640, Note_on_c, 1, 33, 0
9, 29640, Note_on_c, 1, 33, 85
9, 29700, Note_on_c, 1, 33, 0
9, 29700, Note_on_c, 1, 31, 85
9, 29820, Note_on_c, 1, 31, 0
9, 29820, Note_on_c, 1, 36, 85
9, 29940, Note_on_c, 1, 36, 0
9, 29940, Note_on_c, 1, 40, 85
9, 30060, Note_on_c, 1, 40, 0
9, 30060, Note_on_c, 1, 33, 100
9, 30420, Note_on_c, 1, 33, 0
9, 30480, Note_on_c, 1, 33, 100
9, 30580, Note_on_c, 1, 33, 0
9, 30660, Note_on_c, 1, 35, 100
9, 30780, Note_on_c, 1, 35, 0
9, 30780, Note_on_c, 1, 36, 100
9, 31140, Note_on_c, 1, 36, 0
9, 31200, Note_on_c, 1, 38, 100
9, 31300, Note_on_c, 1, 38, 0
9, 31320, Note_on_c, 1, 33, 100
9, 31380, Note_on_c, 1, 33, 0
9, 31380, Note_on_c, 1, 26, 93
9, 31500, Note_on_c, 1, 26, 0
9, 31500, Note_on_c, 1, 33, 100
9, 31860, Note_on_c, 1, 33, 0
9, 31920, Note_on_c, 1, 33, 100
9, 32020, Note_on_c, 1, 33, 0
9, 32100, Note_on_c, 1, 35, 100
9, 32220, Note_on_c, 1, 35, 0
9, 32220, Note_on_c, 1, 36, 100
9, 32310, Note_on_c, 1, 36, 0
9, 32580, Note_on_c, 1, 26, 100
9, 32700, Note_on_c, 1, 26, 0
9, 32700, Note_on_c, 1, 26, 100
9, 32820, Note_on_c, 1, 26, 0
9, 32820, Note_on_c, 1, 33, 100
9, 33180, Note_on_c, 1, 33, 0
9, 33240, Note_on_c, 1, 33, 100
9, 33340, Note_on_c, 1, 33, 0
9, 33420, Note_on_c, 1, 35, 100
9, 33540, Note_on_c, 1, 35, 0
9, 33540, Note_on_c, 1, 36, 100
9, 33900, Note_on_c, 1, 36, 0
9, 33960, Note_on_c, 1, 38, 100
9, 34060, Note_on_c, 1, 38, 0
9, 34080, Note_on_c, 1, 33, 100
9, 34140, Note_on_c, 1, 33, 0
9, 34140, Note_on_c, 1, 26, 100
9, 34260, Note_on_c, 1, 26, 0
9, 34260, Note_on_c, 1, 33, 100
9, 34620, Note_on_c, 1, 33, 0
9, 34680, Note_on_c, 1, 33, 100
9, 34780, Note_on_c, 1, 33, 0
9, 34860, Note_on_c, 1, 35, 100
9, 34861, Control_c, 1, 101, 0
9, 34861, Control_c, 1, 100, 0
9, 34861, Control_c, 1, 6, 2
9, 34861, Control_c, 1, 38, 127
9, 34980, Note_on_c, 1, 35, 0
9, 34980, Note_on_c, 1, 36, 100
9, 35160, Note_on_c, 1, 36, 0
9, 35160, Note_on_c, 1, 38, 100
9, 35163, Pitch_bend_c, 1, 8192
9, 35164, Pitch_bend_c, 1, 8320
9, 35165, Pitch_bend_c, 1, 8448
9, 35166, Pitch_bend_c, 1, 8576
9, 35167, Pitch_bend_c, 1, 8704
9, 35169, Pitch_bend_c, 1, 8832
9, 35170, Pitch_bend_c, 1, 8960
9, 35171, Pitch_bend_c, 1, 9216
9, 35172, Pitch_bend_c, 1, 9344
9, 35173, Pitch_bend_c, 1, 9472
9, 35175, Pitch_bend_c, 1, 9600
9, 35176, Pitch_bend_c, 1, 9728
9, 35177, Pitch_bend_c, 1, 9856
9, 35178, Pitch_bend_c, 1, 9984
9, 35179, Pitch_bend_c, 1, 10240
9, 35181, Pitch_bend_c, 1, 10368
9, 35182, Pitch_bend_c, 1, 10496
9, 35183, Pitch_bend_c, 1, 10624
9, 35184, Pitch_bend_c, 1, 10752
9, 35185, Pitch_bend_c, 1, 10880
9, 35187, Pitch_bend_c, 1, 11008
9, 35188, Pitch_bend_c, 1, 11264
9, 35189, Pitch_bend_c, 1, 11392
9, 35190, Pitch_bend_c, 1, 11520
9, 35191, Pitch_bend_c, 1, 11648
9, 35193, Pitch_bend_c, 1, 11776
9, 35194, Pitch_bend_c, 1, 11904
9, 35195, Pitch_bend_c, 1, 12032
9, 35196, Pitch_bend_c, 1, 12288
9, 35197, Pitch_bend_c, 1, 12416
9, 35199, Pitch_bend_c, 1, 12544
9, 35200, Pitch_bend_c, 1, 12672
9, 35201, Pitch_bend_c, 1, 12800
9, 35202, Pitch_bend_c, 1, 12928
9, 35203, Pitch_bend_c, 1, 13056
9, 35205, Pitch_bend_c, 1, 13312
9, 35206, Pitch_bend_c, 1, 13440
9, 35207, Pitch_bend_c, 1, 13568
9, 35208, Pitch_bend_c, 1, 13696
9, 35209, Pitch_bend_c, 1, 13824
9, 35211, Pitch_bend_c, 1, 13952
9, 35212, Pitch_bend_c, 1, 14080
9, 35213, Pitch_bend_c, 1, 14336
9, 35214, Pitch_bend_c, 1, 14464
9, 35215, Pitch_bend_c, 1, 14592
9, 35217, Pitch_bend_c, 1, 14720
9, 35218, Pitch_bend_c, 1, 14848
9, 35219, Pitch_bend_c, 1, 14976
9, 35220, Pitch_bend_c, 1, 15104
9, 35221, Pitch_bend_c, 1, 15360
9, 35223, Pitch_bend_c, 1, 15488
9, 35224, Pitch_bend_c, 1, 15616
9, 35225, Pitch_bend_c, 1, 15744
9, 35226, Pitch_bend_c, 1, 15872
9, 35227, Pitch_bend_c, 1, 16000
9, 35229, Pitch_bend_c, 1, 16128
9, 35230, Pitch_bend_c, 1, 16383
9, 35340, Note_on_c, 1, 38, 0
9, 35340, Note_on_c, 1, 38, 100
9, 35341, Pitch_bend_c, 1, 8192
9, 35580, Note_on_c, 1, 38, 0
9, 35580, Note_on_c, 1, 35, 85
9, 35940, Note_on_c, 1, 35, 0
9, 35940, Note_on_c, 1, 33, 85
9, 36300, Note_on_c, 1, 33, 0
9, 36300, Note_on_c, 1, 36, 85
9, 36660, Note_on_c, 1, 36, 0
9, 36660, Note_on_c, 1, 38, 85
9, 37020, Note_on_c, 1, 38, 0
9, 37020, Note_on_c, 1, 35, 85
9, 37380, Note_on_c, 1, 35, 0
9, 37380, Note_on_c, 1, 33, 85
9, 37740, Note_on_c, 1, 33, 0
9, 37740, Note_on_c, 1, 36, 85
9, 37920, Note_on_c, 1, 36, 0
9, 37920, Note_on_c, 1, 40, 85
9, 38100, Note_on_c, 1, 40, 0
9, 38100, Note_on_c, 1, 38, 85
9, 38160, Note_on_c, 1, 38, 0
9, 38220, Note_on_c, 1, 38, 85
9, 38280, Note_on_c, 1, 38, 0
9, 38340, Note_on_c, 1, 35, 85
9, 38700, Note_on_c, 1, 35, 0
9, 38700, Note_on_c, 1, 33, 85
9, 39060, Note_on_c, 1, 33, 0
9, 39060, Note_on_c, 1, 31, 85
9, 39420, Note_on_c, 1, 31, 0
9, 39420, Note_on_c, 1, 30, 85
9, 39540, Note_on_c, 1, 30, 0
9, 39540, Note_on_c, 1, 33, 85
9, 39660, Note_on_c, 1, 33, 0
9, 39660, Note_on_c, 1, 38, 85
9, 39780, Note_on_c, 1, 38, 0
9, 39780, Note_on_c, 1, 33, 85
9, 39788, Pitch_bend_c, 1, 128
9, 39789, Pitch_bend_c, 1, 512
9, 39790, Pitch_bend_c, 1, 896
9, 39792, Pitch_bend_c, 1, 1280
9, 39793, Pitch_bend_c, 1, 1664
9, 39794, Pitch_bend_c, 1, 2048
9, 39795, Pitch_bend_c, 1, 2432
9, 39796, Pitch_bend_c, 1, 2816
9, 39798, Pitch_bend_c, 1, 3200
9, 39799, Pitch_bend_c, 1, 3584
9, 39800, Pitch_bend_c, 1, 3968
9, 39801, Pitch_bend_c, 1, 4352
9, 39802, Pitch_bend_c, 1, 4736
9, 39804, Pitch_bend_c, 1, 5120
9, 39805, Pitch_bend_c, 1, 5504
9, 39806, Pitch_bend_c, 1, 5888
9, 39807, Pitch_bend_c, 1, 6272
9, 39808, Pitch_bend_c, 1, 6656
9, 39810, Pitch_bend_c, 1, 7040
9, 39811, Pitch_bend_c, 1, 7424
9, 39812, Pitch_bend_c, 1, 7808
9, 39813, Pitch_bend_c, 1, 8192
9, 39840, Note_on_c, 1, 33, 0
9, 39840, Note_on_c, 1, 33, 85
9, 39900, Note_on_c, 1, 33, 0
9, 39960, Note_on_c, 1, 33, 85
9, 40080, Note_on_c, 1, 33, 0
9, 40080, Note_on_c, 1, 33, 85
9, 40140, Note_on_c, 1, 33, 0
9, 40140, Note_on_c, 1, 31, 85
9, 40260, Note_on_c, 1, 31, 0
9, 40260, Note_on_c, 1, 36, 85
9, 40380, Note_on_c, 1, 36, 0
9, 40380, Note_on_c, 1, 40, 85
9, 40500, Note_on_c, 1, 40, 0
9, 40500, Note_on_c, 1, 33, 100
9, 40860, Note_on_c, 1, 33, 0
9, 40920, Note_on_c, 1, 33, 100
9, 41020, Note_on_c, 1, 33, 0
9, 41100, Note_on_c, 1, 35, 100
9, 41220, Note_on_c, 1, 35, 0
9, 41220, Note_on_c, 1, 36, 100
9, 41580, Note_on_c, 1, 36, 0
9, 41640, Note_on_c, 1, 38, 100
9, 41740, Note_on_c, 1, 38, 0
9, 41760, Note_on_c, 1, 33, 100
9, 41820, Note_on_c, 1, 33, 0
9, 41820, Note_on_c, 1, 26, 93
9, 41940, Note_on_c, 1, 26, 0
9, 41940, Note_on_c, 1, 33, 100
9, 42300, Note_on_c, 1, 33, 0
9, 42360, Note_on_c, 1, 33, 100
9, 42460, Note_on_c, 1, 33, 0
9, 42540, Note_on_c, 1, 35, 100
9, 42660, Note_on_c, 1, 35, 0
9, 42660, Note_on_c, 1, 36, 100
9, 42750, Note_on_c, 1, 36, 0
9, 43020, Note_on_c, 1, 26, 100
9, 43140, Note_on_c, 1, 26, 0
9, 43140, Note_on_c, 1, 26, 100
9, 43260, Note_on_c, 1, 26, 0
9, 43260, Note_on_c, 1, 33, 100
9, 43620, Note_on_c, 1, 33, 0
9, 43680, Note_on_c, 1, 33, 100
9, 43780, Note_on_c, 1, 33, 0
9, 43860, Note_on_c, 1, 35, 100
9, 43980, Note_on_c, 1, 35, 0
9, 43980, Note_on_c, 1, 36, 100
9, 44340, Note_on_c, 1, 36, 0
9, 44400, Note_on_c, 1, 38, 100
9, 44500, Note_on_c, 1, 38, 0
9, 44520, Note_on_c, 1, 33, 100
9, 44580, Note_on_c, 1, 33, 0
9, 44580, Note_on_c, 1, 26, 100
9, 44700, Note_on_c, 1, 26, 0
9, 44700, Note_on_c, 1, 33, 100
9, 45060, Note_on_c, 1, 33, 0
9, 45120, Note_on_c, 1, 33, 100
9, 45220, Note_on_c, 1, 33, 0
9, 45300, Note_on_c, 1, 35, 100
9, 45301, Control_c, 1, 101, 0
9, 45301, Control_c, 1, 100, 0
9, 45301, Control_c, 1, 6, 2
9, 45301, Control_c, 1, 38, 127
9, 45420, Note_on_c, 1, 35, 0
9, 45420, Note_on_c, 1, 36, 100
9, 45600, Note_on_c, 1, 36, 0
9, 45600, Note_on_c, 1, 38, 100
9, 45603, Pitch_bend_c, 1, 8192
9, 45604, Pitch_bend_c, 1, 8320
9, 45605, Pitch_bend_c, 1, 8448
9, 45606, Pitch_bend_c, 1, 8576
9, 45607, Pitch_bend_c, 1, 8704
9, 45609, Pitch_bend_c, 1, 8832
9, 45610, Pitch_bend_c, 1, 8960
9, 45611, Pitch_bend_c, 1, 9216
9, 45612, Pitch_bend_c, 1, 9344
9, 45613, Pitch_bend_c, 1, 9472
9, 45615, Pitch_bend_c, 1, 9600
9, 45616, Pitch_bend_c, 1, 9728
9, 45617, Pitch_bend_c, 1, 9856
9, 45618, Pitch_bend_c, 1, 9984
9, 45619, Pitch_bend_c, 1, 10240
9, 45621, Pitch_bend_c, 1, 10368
9, 45622, Pitch_bend_c, 1, 10496
9, 45623, Pitch_bend_c, 1, 10624
9, 45624, Pitch_bend_c, 1, 10752
9, 45625, Pitch_bend_c, 1, 10880
9, 45627, Pitch_bend_c, 1, 11008
9, 45628, Pitch_bend_c, 1, 11264
9, 45629, Pitch_bend_c, 1, 11392
9, 45630, Pitch_bend_c, 1, 11520
9, 45631, Pitch_bend_c, 1, 11648
9, 45633, Pitch_bend_c, 1, 11776
9, 45634, Pitch_bend_c, 1, 11904
9, 45635, Pitch_bend_c, 1, 12032
9, 45636, Pitch_bend_c, 1, 12288
9, 45637, Pitch_bend_c, 1, 12416
9, 45639, Pitch_bend_c, 1, 12544
9, 45640, Pitch_bend_c, 1, 12672
9, 45641, Pitch_bend_c, 1, 12800
9, 45642, Pitch_bend_c, 1, 12928
9, 45643, Pitch_bend_c, 1, 13056
9, 45645, Pitch_bend_c, 1, 13312
9, 45646, Pitch_bend_c, 1, 13440
9, 45647, Pitch_bend_c, 1, 13568
9, 45648, Pitch_bend_c, 1, 13696
9, 45649, Pitch_bend_c, 1, 13824
9, 45651, Pitch_bend_c, 1, 13952
9, 45652, Pitch_bend_c, 1, 14080
9, 45653, Pitch_bend_c, 1, 14336
9, 45654, Pitch_bend_c, 1, 14464
9, 45655, Pitch_bend_c, 1, 14592
9, 45657, Pitch_bend_c, 1, 14720
9, 45658, Pitch_bend_c, 1, 14848
9, 45659, Pitch_bend_c, 1, 14976
9, 45660, Pitch_bend_c, 1, 15104
9, 45661, Pitch_bend_c, 1, 15360
9, 45663, Pitch_bend_c, 1, 15488
9, 45664, Pitch_bend_c, 1, 15616
9, 45665, Pitch_bend_c, 1, 15744
9, 45666, Pitch_bend_c, 1, 15872
9, 45667, Pitch_bend_c, 1, 16000
9, 45669, Pitch_bend_c, 1, 16128
9, 45670, Pitch_bend_c, 1, 16383
9, 45780, Note_on_c, 1, 38, 0
9, 45780, Note_on_c, 1, 38, 100
9, 45781, Pitch_bend_c, 1, 8192
9, 46380, Note_on_c, 1, 38, 0
9, 46380, Note_on_c, 1, 28, 75
9, 46740, Note_on_c, 1, 28, 0
9, 46740, Note_on_c, 1, 28, 75
9, 47340, Note_on_c, 1, 28, 0
9, 47340, Note_on_c, 1, 35, 75
9, 47700, Note_on_c, 1, 35, 0
9, 47700, Note_on_c, 1, 35, 75
9, 48060, Note_on_c, 1, 35, 0
9, 48060, Note_on_c, 1, 40, 75
9, 48120, Note_on_c, 1, 40, 0
9, 48120, Note_on_c, 1, 42, 75
9, 48300, Note_on_c, 1, 42, 0
9, 48300, Note_on_c, 1, 28, 75
9, 48480, Note_on_c, 1, 28, 0
9, 48480, Note_on_c, 1, 28, 75
9, 48660, Note_on_c, 1, 28, 0
9, 48660, Note_on_c, 1, 28, 75
9, 48780, Note_on_c, 1, 28, 0
9, 48780, Note_on_c, 1, 33, 75
9, 48960, Note_on_c, 1, 33, 0
9, 48960, Note_on_c, 1, 33, 75
9, 49140, Note_on_c, 1, 33, 0
9, 49140, Note_on_c, 1, 33, 75
9, 49260, Note_on_c, 1, 33, 0
9, 49260, Control_c, 1, 101, 0
9, 49260, Control_c, 1, 100, 0
9, 49260, Control_c, 1, 6, 12
9, 49260, Control_c, 1, 38, 127
9, 49260, Note_on_c, 1, 26, 75
9, 49261, Control_c, 1, 101, 0
9, 49261, Control_c, 1, 100, 0
9, 49261, Control_c, 1, 6, 10
9, 49261, Control_c, 1, 38, 127
9, 49440, Note_on_c, 1, 26, 0
9, 49440, Note_on_c, 1, 26, 75
9, 49474, Pitch_bend_c, 1, 8320
9, 49477, Pitch_bend_c, 1, 8448
9, 49479, Pitch_bend_c, 1, 8576
9, 49482, Pitch_bend_c, 1, 8704
9, 49484, Pitch_bend_c, 1, 8832
9, 49486, Pitch_bend_c, 1, 8960
9, 49489, Pitch_bend_c, 1, 9088
9, 49491, Pitch_bend_c, 1, 9216
9, 49494, Pitch_bend_c, 1, 9344
9, 49496, Pitch_bend_c, 1, 9472
9, 49498, Pitch_bend_c, 1, 9600
9, 49501, Pitch_bend_c, 1, 9728
9, 49503, Pitch_bend_c, 1, 9856
9, 49504, Pitch_bend_c, 1, 9984
9, 49507, Pitch_bend_c, 1, 10112
9, 49509, Pitch_bend_c, 1, 10240
9, 49512, Pitch_bend_c, 1, 10368
9, 49514, Pitch_bend_c, 1, 10496
9, 49516, Pitch_bend_c, 1, 10624
9, 49519, Pitch_bend_c, 1, 10752
9, 49521, Pitch_bend_c, 1, 10880
9, 49524, Pitch_bend_c, 1, 11008
9, 49526, Pitch_bend_c, 1, 11136
9, 49528, Pitch_bend_c, 1, 11264
9, 49531, Pitch_bend_c, 1, 11392
9, 49533, Pitch_bend_c, 1, 11520
9, 49534, Pitch_bend_c, 1, 11648
9, 49537, Pitch_bend_c, 1, 11776
9, 49539, Pitch_bend_c, 1, 11904
9, 49542, Pitch_bend_c, 1, 12032
9, 49544, Pitch_bend_c, 1, 12160
9, 49546, Pitch_bend_c, 1, 12288
9, 49549, Pitch_bend_c, 1, 12416
9, 49551, Pitch_bend_c, 1, 12544
9, 49554, Pitch_bend_c, 1, 12672
9, 49556, Pitch_bend_c, 1, 12800
9, 49558, Pitch_bend_c, 1, 12928
9, 49561, Pitch_bend_c, 1, 13056
9, 49562, Pitch_bend_c, 1, 13184
9, 49564, Pitch_bend_c, 1, 13312
9, 49567, Pitch_bend_c, 1, 13440
9, 49569, Pitch_bend_c, 1, 13568
9, 49572, Pitch_bend_c, 1, 13696
9, 49574, Pitch_bend_c, 1, 13824
9, 49576, Pitch_bend_c, 1, 13952
9, 49579, Pitch_bend_c, 1, 14080
9, 49581, Pitch_bend_c, 1, 14208
9, 49584, Pitch_bend_c, 1, 14336
9, 49586, Pitch_bend_c, 1, 14464
9, 49588, Pitch_bend_c, 1, 14592
9, 49591, Pitch_bend_c, 1, 14720
9, 49592, Pitch_bend_c, 1, 14848
9, 49594, Pitch_bend_c, 1, 14976
9, 49597, Pitch_bend_c, 1, 15104
9, 49599, Pitch_bend_c, 1, 15232
9, 49602, Pitch_bend_c, 1, 15360
9, 49604, Pitch_bend_c, 1, 15488
9, 49606, Pitch_bend_c, 1, 15616
9, 49609, Pitch_bend_c, 1, 15744
9, 49611, Pitch_bend_c, 1, 15872
9, 49614, Pitch_bend_c, 1, 16000
9, 49616, Pitch_bend_c, 1, 16128
9, 49618, Pitch_bend_c, 1, 16256
9, 49620, Note_on_c, 1, 26, 0
9, 49620, Pitch_bend_c, 1, 16383
9, 49620, Note_on_c, 1, 38, 75
9, 49621, Pitch_bend_c, 1, 8192
9, 49861, Pitch_bend_c, 1, 8192
9, 49864, Pitch_bend_c, 1, 8064
9, 49868, Pitch_bend_c, 1, 7936
9, 49872, Pitch_bend_c, 1, 7808
9, 49875, Pitch_bend_c, 1, 7680
9, 49879, Pitch_bend_c, 1, 7552
9, 49882, Pitch_bend_c, 1, 7424
9, 49886, Pitch_bend_c, 1, 7296
9, 49890, Pitch_bend_c, 1, 7168
9, 49893, Pitch_bend_c, 1, 7040
9, 49897, Pitch_bend_c, 1, 6912
9, 49900, Pitch_bend_c, 1, 6784
9, 49904, Pitch_bend_c, 1, 6656
9, 49908, Pitch_bend_c, 1, 6528
9, 49911, Pitch_bend_c, 1, 6400
9, 49915, Pitch_bend_c, 1, 6272
9, 49918, Pitch_bend_c, 1, 6144
9, 49922, Pitch_bend_c, 1, 6016
9, 49926, Pitch_bend_c, 1, 5888
9, 49929, Pitch_bend_c, 1, 5760
9, 49933, Pitch_bend_c, 1, 5632
9, 49936, Pitch_bend_c, 1, 5504
9, 49940, Pitch_bend_c, 1, 5376
9, 49944, Pitch_bend_c, 1, 5248
9, 49947, Pitch_bend_c, 1, 5120
9, 49951, Pitch_bend_c, 1, 4992
9, 49954, Pitch_bend_c, 1, 4864
9, 49958, Pitch_bend_c, 1, 4736
9, 49962, Pitch_bend_c, 1, 4608
9, 49965, Pitch_bend_c, 1, 4480
9, 49969, Pitch_bend_c, 1, 4352
9, 49972, Pitch_bend_c, 1, 4224
9, 49976, Pitch_bend_c, 1, 4096
9, 49978, Pitch_bend_c, 1, 3968
9, 49980, Note_on_c, 1, 38, 0
9, 49980, Note_on_c, 1, 33, 75
9, 49981, Pitch_bend_c, 1, 8192
9, 50038, Pitch_bend_c, 1, 8192
9, 50043, Pitch_bend_c, 1, 8064
9, 50047, Pitch_bend_c, 1, 7936
9, 50050, Pitch_bend_c, 1, 7808
9, 50054, Pitch_bend_c, 1, 7680
9, 50058, Pitch_bend_c, 1, 7552
9, 50061, Pitch_bend_c, 1, 7424
9, 50066, Pitch_bend_c, 1, 7296
9, 50070, Pitch_bend_c, 1, 7168
9, 50073, Pitch_bend_c, 1, 7040
9, 50077, Pitch_bend_c, 1, 6912
9, 50080, Pitch_bend_c, 1, 6784
9, 50084, Pitch_bend_c, 1, 6656
9, 50088, Pitch_bend_c, 1, 6528
9, 50092, Pitch_bend_c, 1, 6400
9, 50096, Pitch_bend_c, 1, 6272
9, 50100, Pitch_bend_c, 1, 6144
9, 50103, Pitch_bend_c, 1, 6016
9, 50107, Pitch_bend_c, 1, 5888
9, 50110, Pitch_bend_c, 1, 5760
9, 50114, Pitch_bend_c, 1, 5632
9, 50119, Pitch_bend_c, 1, 5504
9, 50122, Pitch_bend_c, 1, 5376
9, 50126, Pitch_bend_c, 1, 5248
9, 50130, Pitch_bend_c, 1, 5120
9, 50133, Pitch_bend_c, 1, 4992
9, 50137, Pitch_bend_c, 1, 4864
9, 50140, Pitch_bend_c, 1, 4736
9, 50145, Pitch_bend_c, 1, 4608
9, 50149, Pitch_bend_c, 1, 4480
9, 50152, Pitch_bend_c, 1, 4352
9, 50156, Pitch_bend_c, 1, 4224
9, 50160, Pitch_bend_c, 1, 4096
9, 50163, Pitch_bend_c, 1, 3968
9, 50167, Pitch_bend_c, 1, 3840
9, 50172, Pitch_bend_c, 1, 3712
9, 50175, Pitch_bend_c, 1, 3584
9, 50179, Pitch_bend_c, 1, 3456
9, 50182, Pitch_bend_c, 1, 3328
9, 50186, Pitch_bend_c, 1, 3200
9, 50190, Pitch_bend_c, 1, 3072
9, 50193, Pitch_bend_c, 1, 2944
9, 50198, Pitch_bend_c, 1, 2816
9, 50202, Pitch_bend_c, 1, 2688
9, 50205, Pitch_bend_c, 1, 2560
9, 50209, Pitch_bend_c, 1, 2432
9, 50212, Pitch_bend_c, 1, 2304
9, 50219, Note_on_c, 1, 33, 0
9, 50220, Note_on_c, 1, 28, 75
9, 50220, Pitch_bend_c, 1, 8192
9, 50580, Note_on_c, 1, 28, 0
9, 50580, Note_on_c, 1, 28, 75
9, 50940, Note_on_c, 1, 28, 0
9, 50941, Note_on_c, 1, 35, 75
9, 51000, Note_on_c, 1, 35, 0
9, 51000, Note_on_c, 1, 38, 75
9, 51036, Pitch_bend_c, 1, 8192
9, 51039, Pitch_bend_c, 1, 8064
9, 51043, Pitch_bend_c, 1, 7936
9, 51045, Pitch_bend_c, 1, 7808
9, 51049, Pitch_bend_c, 1, 7680
9, 51051, Pitch_bend_c, 1, 7552
9, 51055, Pitch_bend_c, 1, 7424
9, 51058, Pitch_bend_c, 1, 7296
9, 51061, Pitch_bend_c, 1, 7168
9, 51064, Pitch_bend_c, 1, 7040
9, 51067, Pitch_bend_c, 1, 6912
9, 51070, Pitch_bend_c, 1, 6784
9, 51074, Pitch_bend_c, 1, 6656
9, 51076, Pitch_bend_c, 1, 6528
9, 51080, Pitch_bend_c, 1, 6400
9, 51082, Pitch_bend_c, 1, 6272
9, 51086, Pitch_bend_c, 1, 6144
9, 51088, Pitch_bend_c, 1, 6016
9, 51092, Pitch_bend_c, 1, 5888
9, 51096, Pitch_bend_c, 1, 5760
9, 51098, Pitch_bend_c, 1, 5632
9, 51102, Pitch_bend_c, 1, 5504
9, 51104, Pitch_bend_c, 1, 5376
9, 51108, Pitch_bend_c, 1, 5248
9, 51111, Pitch_bend_c, 1, 5120
9, 51114, Pitch_bend_c, 1, 4992
9, 51117, Pitch_bend_c, 1, 4864
9, 51120, Pitch_bend_c, 1, 4736
9, 51123, Pitch_bend_c, 1, 4608
9, 51127, Pitch_bend_c, 1, 4480
9, 51129, Pitch_bend_c, 1, 4352
9, 51133, Pitch_bend_c, 1, 4224
9, 51135, Pitch_bend_c, 1, 4096
9, 51139, Pitch_bend_c, 1, 3968
9, 51141, Pitch_bend_c, 1, 3840
9, 51145, Pitch_bend_c, 1, 3712
9, 51148, Pitch_bend_c, 1, 3584
9, 51151, Pitch_bend_c, 1, 3456
9, 51154, Pitch_bend_c, 1, 3328
9, 51157, Pitch_bend_c, 1, 3200
9, 51160, Pitch_bend_c, 1, 3072
9, 51164, Pitch_bend_c, 1, 2944
9, 51166, Pitch_bend_c, 1, 2816
9, 51170, Pitch_bend_c, 1, 2688
9, 51172, Pitch_bend_c, 1, 2560
9, 51176, Pitch_bend_c, 1, 2432
9, 51178, Pitch_bend_c, 1, 2304
9, 51180, Note_on_c, 1, 38, 0
9, 51180, Note_on_c, 1, 35, 75
9, 51181, Pitch_bend_c, 1, 8192
9, 51540, Note_on_c, 1, 35, 0
9, 51540, Note_on_c, 1, 35, 75
9, 52140, Note_on_c, 1, 35, 0
9, 52140, Note_on_c, 1, 28, 75
9, 52500, Note_on_c, 1, 28, 0
9, 52500, Note_on_c, 1, 28, 75
9, 52620, Note_on_c, 1, 28, 0
9, 52620, Note_on_c, 1, 33, 75
9, 52980, Note_on_c, 1, 33, 0
9, 52980, Note_on_c, 1, 33, 75
9, 53100, Note_on_c, 1, 33, 0
9, 53100, Note_on_c, 1, 38, 100
9, 54060, Note_on_c, 1, 38, 0
9, 54120, Note_on_c, 1, 40, 100
9, 54240, Note_on_c, 1, 40, 0
9, 54240, Note_on_c, 1, 41, 100
9, 54330, Note_on_c, 1, 41, 0
9, 54360, Note_on_c, 1, 38, 100
9, 54435, Note_on_c, 1, 38, 0
9, 54480, Note_on_c, 1, 40, 100
9, 54660, Note_on_c, 1, 40, 0
9, 54660, Note_on_c, 1, 35, 100
9, 54840, Note_on_c, 1, 35, 0
9, 54840, Note_on_c, 1, 38, 100
9, 55020, Note_on_c, 1, 38, 0
9, 55020, Note_on_c, 1, 40, 100
9, 55110, Note_on_c, 1, 40, 0
9, 55140, Note_on_c, 1, 41, 100
9, 55200, Note_on_c, 1, 41, 0
9, 55200, Note_on_c, 1, 40, 100
9, 55260, Note_on_c, 1, 40, 0
9, 55260, Note_on_c, 1, 35, 100
9, 55320, Note_on_c, 1, 35, 0
9, 55320, Note_on_c, 1, 28, 100
9, 55380, Note_on_c, 1, 28, 0
9, 55380, Note_on_c, 1, 40, 100
9, 55500, Note_on_c, 1, 40, 0
9, 55500, Note_on_c, 1, 41, 100
9, 55590, Note_on_c, 1, 41, 0
9, 55620, Note_on_c, 1, 38, 100
9, 55695, Note_on_c, 1, 38, 0
9, 55740, Note_on_c, 1, 40, 100
9, 55920, Note_on_c, 1, 40, 0
9, 55920, Note_on_c, 1, 35, 100
9, 56100, Note_on_c, 1, 35, 0
9, 56100, Note_on_c, 1, 38, 100
9, 56280, Note_on_c, 1, 38, 0
9, 56280, Note_on_c, 1, 33, 100
9, 56340, Note_on_c, 1, 33, 0
9, 56340, Note_on_c, 1, 32, 100
9, 56400, Note_on_c, 1, 32, 0
9, 56400, Note_on_c, 1, 33, 100
9, 56460, Note_on_c, 1, 33, 0
9, 56460, Note_on_c, 1, 35, 100
9, 56520, Note_on_c, 1, 35, 0
9, 56520, Note_on_c, 1, 33, 100
9, 56580, Note_on_c, 1, 33, 0
9, 56580, Note_on_c, 1, 32, 100
9, 56640, Note_on_c, 1, 32, 0
9, 56640, Note_on_c, 1, 27, 100
9, 56700, Note_on_c, 1, 27, 0
9, 56700, Note_on_c, 1, 28, 100
9, 56745, Note_on_c, 1, 28, 0
9, 56760, Note_on_c, 1, 40, 100
9, 56880, Note_on_c, 1, 40, 0
9, 56880, Note_on_c, 1, 41, 100
9, 56970, Note_on_c, 1, 41, 0
9, 57000, Note_on_c, 1, 38, 100
9, 57075, Note_on_c, 1, 38, 0
9, 57120, Note_on_c, 1, 40, 100
9, 57300, Note_on_c, 1, 40, 0
9, 57300, Note_on_c, 1, 35, 100
9, 57480, Note_on_c, 1, 35, 0
9, 57480, Note_on_c, 1, 38, 100
9, 57660, Note_on_c, 1, 38, 0
9, 57660, Note_on_c, 1, 40, 100
9, 57750, Note_on_c, 1, 40, 0
9, 57780, Note_on_c, 1, 41, 100
9, 57840, Note_on_c, 1, 41, 0
9, 57840, Note_on_c, 1, 40, 127
9, 57900, Note_on_c, 1, 40, 0
9, 57900, Note_on_c, 1, 35, 127
9, 57960, Note_on_c, 1, 35, 0
9, 57960, Note_on_c, 1, 28, 127
9, 58020, Note_on_c, 1, 28, 0
9, 58020, Note_on_c, 1, 40, 100
9, 58140, Note_on_c, 1, 40, 0
9, 58140, Note_on_c, 1, 41, 100
9, 58230, Note_on_c, 1, 41, 0
9, 58260, Note_on_c, 1, 38, 100
9, 58335, Note_on_c, 1, 38, 0
9, 58380, Note_on_c, 1, 40, 100
9, 58560, Note_on_c, 1, 40, 0
9, 58560, Note_on_c, 1, 35, 100
9, 58740, Note_on_c, 1, 35, 0
9, 58740, Note_on_c, 1, 38, 100
9, 58920, Note_on_c, 1, 38, 0
9, 58980, Note_on_c, 1, 32, 100
9, 59060, Note_on_c, 1, 32, 0
9, 59100, Note_on_c, 1, 33, 100
9, 59160, Note_on_c, 1, 33, 0
9, 59160, Note_on_c, 1, 35, 100
9, 59280, Note_on_c, 1, 35, 0
9, 59340, Note_on_c, 1, 36, 100
9, 59420, Note_on_c, 1, 36, 0
9, 59460, Note_on_c, 1, 38, 100
9, 59520, Note_on_c, 1, 38, 0
9, 59520, Note_on_c, 1, 40, 100
9, 59640, Note_on_c, 1, 40, 0
9, 59640, Note_on_c, 1, 33, 80
9, 60000, Note_on_c, 1, 33, 0
9, 60000, Note_on_c, 1, 29, 80
9, 60120, Note_on_c, 1, 29, 0
9, 60120, Note_on_c, 1, 28, 80
9, 60240, Note_on_c, 1, 28, 0
9, 60240, Note_on_c, 1, 33, 80
9, 60360, Note_on_c, 1, 33, 0
9, 60360, Note_on_c, 1, 28, 80
9, 60720, Note_on_c, 1, 28, 0
9, 60720, Note_on_c, 1, 39, 80
9, 60840, Note_on_c, 1, 39, 0
9, 60840, Note_on_c, 1, 38, 80
9, 60960, Note_on_c, 1, 38, 0
9, 60960, Note_on_c, 1, 36, 80
9, 61080, Note_on_c, 1, 36, 0
9, 61080, Note_on_c, 1, 33, 80
9, 61440, Note_on_c, 1, 33, 0
9, 61440, Note_on_c, 1, 29, 80
9, 61800, Note_on_c, 1, 29, 0
9, 61800, Note_on_c, 1, 28, 80
9, 62160, Note_on_c, 1, 28, 0
9, 62160, Note_on_c, 1, 33, 80
9, 62280, Note_on_c, 1, 33, 0
9, 62520, Note_on_c, 1, 33, 80
9, 62880, Note_on_c, 1, 33, 0
9, 62880, Note_on_c, 1, 29, 80
9, 63000, Note_on_c, 1, 29, 0
9, 63000, Note_on_c, 1, 29, 80
9, 63120, Note_on_c, 1, 29, 0
9, 63120, Note_on_c, 1, 36, 80
9, 63240, Note_on_c, 1, 36, 0
9, 63240, Note_on_c, 1, 28, 80
9, 63600, Note_on_c, 1, 28, 0
9, 63600, Note_on_c, 1, 39, 80
9, 63720, Note_on_c, 1, 39, 0
9, 63720, Note_on_c, 1, 38, 80
9, 63840, Note_on_c, 1, 38, 0
9, 63840, Note_on_c, 1, 36, 80
9, 63960, Note_on_c, 1, 36, 0
9, 63960, Note_on_c, 1, 33, 80
9, 64320, Note_on_c, 1, 33, 0
9, 64320, Note_on_c, 1, 29, 80
9, 64680, Note_on_c, 1, 29, 0
9, 64680, Note_on_c, 1, 28, 80
9, 65040, Note_on_c, 1, 28, 0
9, 65040, Note_on_c, 1, 33, 80
9, 65400, Note_on_c, 1, 33, 0
9, 65460, Note_on_c, 1, 32, 80
9, 65516, Note_on_c, 1, 32, 0
9, 65520, Note_on_c, 1, 35, 81
9, 65576, Note_on_c, 1, 35, 0
9, 65580, Note_on_c, 1, 40, 83
9, 65636, Note_on_c, 1, 40, 0
9, 65640, Note_on_c, 1, 36, 85
9, 65696, Note_on_c, 1, 36, 0
9, 65700, Note_on_c, 1, 40, 87
9, 65756, Note_on_c, 1, 40, 0
9, 65760, Note_on_c, 1, 45, 89
9, 65816, Note_on_c, 1, 45, 0
9, 65820, Note_on_c, 1, 44, 90
9, 65876, Note_on_c, 1, 44, 0
9, 65880, Note_on_c, 1, 47, 92
9, 65936, Note_on_c, 1, 47, 0
9, 65940, Note_on_c, 1, 50, 94
9, 65996, Note_on_c, 1, 50, 0
9, 66000, Note_on_c, 1, 47, 96
9, 66056, Note_on_c, 1, 47, 0
9, 66060, Note_on_c, 1, 48, 98
9, 66116, Note_on_c, 1, 48, 0
9, 66120, Note_on_c, 1, 33, 80
9, 66480, Note_on_c, 1, 33, 0
9, 66480, Note_on_c, 1, 29, 80
9, 66600, Note_on_c, 1, 29, 0
9, 66600, Note_on_c, 1, 28, 80
9, 66720, Note_on_c, 1, 28, 0
9, 66720, Note_on_c, 1, 33, 80
9, 66840, Note_on_c, 1, 33, 0
9, 66840, Note_on_c, 1, 28, 80
9, 67200, Note_on_c, 1, 28, 0
9, 67200, Note_on_c, 1, 39, 80
9, 67320, Note_on_c, 1, 39, 0
9, 67320, Note_on_c, 1, 38, 80
9, 67440, Note_on_c, 1, 38, 0
9, 67440, Note_on_c, 1, 36, 80
9, 67560, Note_on_c, 1, 36, 0
9, 67560, Note_on_c, 1, 33, 80
9, 67920, Note_on_c, 1, 33, 0
9, 67920, Note_on_c, 1, 29, 80
9, 68280, Note_on_c, 1, 29, 0
9, 68280, Note_on_c, 1, 28, 80
9, 68640, Note_on_c, 1, 28, 0
9, 68640, Note_on_c, 1, 33, 80
9, 68760, Note_on_c, 1, 33, 0
9, 69000, Note_on_c, 1, 33, 80
9, 69360, Note_on_c, 1, 33, 0
9, 69360, Note_on_c, 1, 29, 80
9, 69480, Note_on_c, 1, 29, 0
9, 69480, Note_on_c, 1, 29, 80
9, 69600, Note_on_c, 1, 29, 0
9, 69600, Note_on_c, 1, 36, 80
9, 69720, Note_on_c, 1, 36, 0
9, 69720, Note_on_c, 1, 28, 80
9, 70080, Note_on_c, 1, 28, 0
9, 70080, Note_on_c, 1, 39, 80
9, 70200, Note_on_c, 1, 39, 0
9, 70200, Note_on_c, 1, 38, 80
9, 70320, Note_on_c, 1, 38, 0
9, 70320, Note_on_c, 1, 36, 80
9, 70440, Note_on_c, 1, 36, 0
9, 70440, Note_on_c, 1, 33, 80
9, 70800, Note_on_c, 1, 33, 0
9, 70800, Note_on_c, 1, 29, 80
9, 71160, Note_on_c, 1, 29, 0
9, 71160, Note_on_c, 1, 28, 80
9, 71520, Note_on_c, 1, 28, 0
9, 71520, Note_on_c, 1, 33, 80
9, 71880, Note_on_c, 1, 33, 0
9, 71940, Note_on_c, 1, 44, 100
9, 71994, Note_on_c, 1, 44, 0
9, 72000, Note_on_c, 1, 47, 100
9, 72054, Note_on_c, 1, 47, 0
9, 72060, Note_on_c, 1, 52, 100
9, 72114, Note_on_c, 1, 52, 0
9, 72120, Note_on_c, 1, 48, 100
9, 72174, Note_on_c, 1, 48, 0
9, 72180, Note_on_c, 1, 52, 100
9, 72234, Note_on_c, 1, 52, 0
9, 72240, Note_on_c, 1, 57, 100
9, 72294, Note_on_c, 1, 57, 0
9, 72300, Note_on_c, 1, 56, 100
9, 72354, Note_on_c, 1, 56, 0
9, 72360, Note_on_c, 1, 59, 100
9, 72414, Note_on_c, 1, 59, 0
9, 72420, Note_on_c, 1, 62, 100
9, 72474, Note_on_c, 1, 62, 0
9, 72480, Note_on_c, 1, 59, 100
9, 72534, Note_on_c, 1, 59, 0
9, 72540, Note_on_c, 1, 60, 100
9, 72594, Note_on_c, 1, 60, 0
9, 72600, Note_on_c, 1, 57, 100
9, 72654, Note_on_c, 1, 57, 0
9, 72720, Note_on_c, 1, 56, 100
9, 72750, Note_on_c, 1, 56, 0
9, 72750, Note_on_c, 1, 57, 100
9, 72780, Note_on_c, 1, 57, 0
9, 72780, Note_on_c, 1, 59, 100
9, 72840, Note_on_c, 1, 59, 0
9, 72840, Note_on_c, 1, 53, 100
9, 72900, Note_on_c, 1, 53, 0
9, 72900, Note_on_c, 1, 52, 100
9, 72960, Note_on_c, 1, 52, 0
9, 72960, Note_on_c, 1, 57, 100
9, 73020, Note_on_c, 1, 57, 0
9, 73020, Note_on_c, 1, 53, 100
9, 73050, Note_on_c, 1, 53, 0
9, 73050, Note_on_c, 1, 52, 100
9, 73080, Note_on_c, 1, 52, 0
9, 73080, Note_on_c, 1, 48, 100
9, 73140, Note_on_c, 1, 48, 0
9, 73140, Note_on_c, 1, 53, 100
9, 73200, Note_on_c, 1, 53, 0
9, 73200, Note_on_c, 1, 52, 100
9, 73260, Note_on_c, 1, 52, 0
9, 73260, Note_on_c, 1, 36, 100
9, 73300, Note_on_c, 1, 36, 0
9, 73300, Note_on_c, 1, 36, 100
9, 73340, Note_on_c, 1, 36, 0
9, 73340, Note_on_c, 1, 33, 100
9, 73380, Note_on_c, 1, 33, 0
9, 73380, Note_on_c, 1, 31, 100
9, 73420, Note_on_c, 1, 31, 0
9, 73420, Note_on_c, 1, 36, 100
9, 73460, Note_on_c, 1, 36, 0
9, 73460, Note_on_c, 1, 40, 100
9, 73500, Note_on_c, 1, 40, 0
9, 73500, Note_on_c, 1, 26, 80
9, 73860, Note_on_c, 1, 26, 0
9, 73860, Note_on_c, 1, 36, 80
9, 73980, Note_on_c, 1, 36, 0
9, 73980, Note_on_c, 1, 35, 80
9, 74100, Note_on_c, 1, 35, 0
9, 74100, Note_on_c, 1, 40, 80
9, 74220, Note_on_c, 1, 40, 0
9, 74220, Note_on_c, 1, 33, 80
9, 74580, Note_on_c, 1, 33, 0
9, 74580, Note_on_c, 1, 32, 80
9, 74700, Note_on_c, 1, 32, 0
9, 74700, Note_on_c, 1, 31, 80
9, 74820, Note_on_c, 1, 31, 0
9, 74820, Note_on_c, 1, 29, 80
9, 74940, Note_on_c, 1, 29, 0
9, 74940, Note_on_c, 1, 26, 80
9, 75120, Note_on_c, 1, 26, 0
9, 75120, Note_on_c, 1, 26, 80
9, 75180, Note_on_c, 1, 26, 0
9, 75240, Note_on_c, 1, 26, 80
9, 75300, Note_on_c, 1, 26, 0
9, 75300, Note_on_c, 1, 28, 80
9, 75480, Note_on_c, 1, 28, 0
9, 75480, Note_on_c, 1, 28, 80
9, 75540, Note_on_c, 1, 28, 0
9, 75600, Note_on_c, 1, 28, 80
9, 75660, Note_on_c, 1, 28, 0
9, 75660, Note_on_c, 1, 37, 80
9, 75840, Note_on_c, 1, 37, 0
9, 75840, Note_on_c, 1, 33, 80
9, 76020, Note_on_c, 1, 33, 0
9, 76020, Note_on_c, 1, 38, 80
9, 76140, Note_on_c, 1, 38, 0
9, 76380, Note_on_c, 1, 26, 80
9, 76740, Note_on_c, 1, 26, 0
9, 76740, Note_on_c, 1, 36, 80
9, 76860, Note_on_c, 1, 36, 0
9, 76860, Note_on_c, 1, 35, 80
9, 76980, Note_on_c, 1, 35, 0
9, 76980, Note_on_c, 1, 40, 80
9, 77100, Note_on_c, 1, 40, 0
9, 77100, Note_on_c, 1, 33, 80
9, 77460, Note_on_c, 1, 33, 0
9, 77460, Note_on_c, 1, 32, 80
9, 77580, Note_on_c, 1, 32, 0
9, 77580, Note_on_c, 1, 31, 80
9, 77700, Note_on_c, 1, 31, 0
9, 77700, Note_on_c, 1, 29, 80
9, 77820, Note_on_c, 1, 29, 0
9, 77820, Note_on_c, 1, 26, 80
9, 78000, Note_on_c, 1, 26, 0
9, 78000, Note_on_c, 1, 26, 80
9, 78060, Note_on_c, 1, 26, 0
9, 78120, Note_on_c, 1, 26, 80
9, 78180, Note_on_c, 1, 26, 0
9, 78180, Note_on_c, 1, 28, 80
9, 78360, Note_on_c, 1, 28, 0
9, 78360, Note_on_c, 1, 28, 80
9, 78420, Note_on_c, 1, 28, 0
9, 78480, Note_on_c, 1, 28, 80
9, 78540, Note_on_c, 1, 28, 0
9, 78540, Note_on_c, 1, 33, 80
9, 78720, Note_on_c, 1, 33, 0
9, 78720, Note_on_c, 1, 37, 80
9, 78900, Note_on_c, 1, 37, 0
9, 78960, Note_on_c, 1, 38, 100
9, 79020, Note_on_c, 1, 38, 0
9, 79080, Note_on_c, 1, 41, 100
9, 79140, Note_on_c, 1, 41, 0
9, 79200, Note_on_c, 1, 45, 100
9, 79260, Note_on_c, 1, 45, 0
9, 79320, Note_on_c, 1, 44, 100
9, 79440, Note_on_c, 1, 44, 0
9, 79440, Note_on_c, 1, 41, 100
9, 79500, Note_on_c, 1, 41, 0
9, 79500, Note_on_c, 1, 40, 100
9, 79560, Note_on_c, 1, 40, 0
9, 79680, Note_on_c, 1, 38, 100
9, 79740, Note_on_c, 1, 38, 0
9, 79800, Note_on_c, 1, 41, 100
9, 79860, Note_on_c, 1, 41, 0
9, 79920, Note_on_c, 1, 45, 100
9, 79980, Note_on_c, 1, 45, 0
9, 80040, Note_on_c, 1, 44, 100
9, 80100, Note_on_c, 1, 44, 0
9, 80160, Note_on_c, 1, 47, 100
9, 80220, Note_on_c, 1, 47, 0
9, 80280, Note_on_c, 1, 50, 100
9, 80340, Note_on_c, 1, 50, 0
9, 80400, Note_on_c, 1, 47, 100
9, 80460, Note_on_c, 1, 47, 0
9, 80460, Note_on_c, 1, 48, 100
9, 80580, Note_on_c, 1, 48, 0
9, 80580, Note_on_c, 1, 47, 100
9, 80640, Note_on_c, 1, 47, 0
9, 80640, Note_on_c, 1, 45, 100
9, 80700, Note_on_c, 1, 45, 0
9, 80820, Note_on_c, 1, 26, 80
9, 81180, Note_on_c, 1, 26, 0
9, 81180, Note_on_c, 1, 36, 80
9, 81300, Note_on_c, 1, 36, 0
9, 81300, Note_on_c, 1, 35, 80
9, 81420, Note_on_c, 1, 35, 0
9, 81420, Note_on_c, 1, 40, 80
9, 81540, Note_on_c, 1, 40, 0
9, 81540, Note_on_c, 1, 33, 80
9, 81900, Note_on_c, 1, 33, 0
9, 81900, Note_on_c, 1, 32, 80
9, 82020, Note_on_c, 1, 32, 0
9, 82020, Note_on_c, 1, 31, 80
9, 82140, Note_on_c, 1, 31, 0
9, 82140, Note_on_c, 1, 29, 80
9, 82260, Note_on_c, 1, 29, 0
9, 82260, Note_on_c, 1, 26, 80
9, 82440, Note_on_c, 1, 26, 0
9, 82440, Note_on_c, 1, 26, 80
9, 82500, Note_on_c, 1, 26, 0
9, 82560, Note_on_c, 1, 26, 80
9, 82620, Note_on_c, 1, 26, 0
9, 82620, Note_on_c, 1, 28, 80
9, 82800, Note_on_c, 1, 28, 0
9, 82800, Note_on_c, 1, 28, 80
9, 82860, Note_on_c, 1, 28, 0
9, 82920, Note_on_c, 1, 28, 80
9, 82980, Note_on_c, 1, 28, 0
9, 82980, Note_on_c, 1, 37, 80
9, 83160, Note_on_c, 1, 37, 0
9, 83160, Note_on_c, 1, 33, 80
9, 83340, Note_on_c, 1, 33, 0
9, 83340, Note_on_c, 1, 38, 80
9, 83460, Note_on_c, 1, 38, 0
9, 83700, Note_on_c, 1, 26, 80
9, 84060, Note_on_c, 1, 26, 0
9, 84060, Note_on_c, 1, 36, 80
9, 84180, Note_on_c, 1, 36, 0
9, 84180, Note_on_c, 1, 35, 80
9, 84300, Note_on_c, 1, 35, 0
9, 84300, Note_on_c, 1, 40, 80
9, 84420, Note_on_c, 1, 40, 0
9, 84420, Note_on_c, 1, 33, 80
9, 84780, Note_on_c, 1, 33, 0
9, 84780, Note_on_c, 1, 32, 80
9, 84900, Note_on_c, 1, 32, 0
9, 84900, Note_on_c, 1, 31, 80
9, 85020, Note_on_c, 1, 31, 0
9, 85020, Note_on_c, 1, 29, 80
9, 85140, Note_on_c, 1, 29, 0
9, 85140, Note_on_c, 1, 26, 80
9, 85320, Note_on_c, 1, 26, 0
9, 85320, Note_on_c, 1, 26, 80
9, 85380, Note_on_c, 1, 26, 0
9, 85440, Note_on_c, 1, 26, 80
9, 85500, Note_on_c, 1, 26, 0
9, 85500, Note_on_c, 1, 28, 80
9, 85680, Note_on_c, 1, 28, 0
9, 85680, Note_on_c, 1, 28, 80
9, 85740, Note_on_c, 1, 28, 0
9, 85800, Note_on_c, 1, 28, 80
9, 85860, Note_on_c, 1, 28, 0
9, 85860, Note_on_c, 1, 33, 80
9, 86040, Note_on_c, 1, 33, 0
9, 86040, Note_on_c, 1, 37, 80
9, 86220, Note_on_c, 1, 37, 0
9, 86280, Note_on_c, 1, 38, 100
9, 86340, Note_on_c, 1, 38, 0
9, 86400, Note_on_c, 1, 41, 100
9, 86460, Note_on_c, 1, 41, 0
9, 86520, Note_on_c, 1, 45, 100
9, 86580, Note_on_c, 1, 45, 0
9, 86640, Note_on_c, 1, 44, 100
9, 86760, Note_on_c, 1, 44, 0
9, 86760, Note_on_c, 1, 41, 100
9, 86820, Note_on_c, 1, 41, 0
9, 86820, Note_on_c, 1, 40, 100
9, 86880, Note_on_c, 1, 40, 0
9, 87000, Note_on_c, 1, 38, 100
9, 87060, Note_on_c, 1, 38, 0
9, 87120, Note_on_c, 1, 41, 100
9, 87180, Note_on_c, 1, 41, 0
9, 87240, Note_on_c, 1, 45, 100
9, 87300, Note_on_c, 1, 45, 0
9, 87360, Note_on_c, 1, 44, 100
9, 87420, Note_on_c, 1, 44, 0
9, 87480, Note_on_c, 1, 47, 100
9, 87540, Note_on_c, 1, 47, 0
9, 87600, Note_on_c, 1, 50, 100
9, 87660, Note_on_c, 1, 50, 0
9, 87720, Note_on_c, 1, 47, 100
9, 87780, Note_on_c, 1, 47, 0
9, 87780, Note_on_c, 1, 48, 100
9, 87900, Note_on_c, 1, 48, 0
9, 87900, Note_on_c, 1, 47, 100
9, 87960, Note_on_c, 1, 47, 0
9, 87960, Note_on_c, 1, 45, 100
9, 88020, Note_on_c, 1, 45, 0
9, 88140, Note_on_c, 1, 44, 100
9, 88260, Note_on_c, 1, 44, 0
9, 88260, Note_on_c, 1, 41, 100
9, 88320, Note_on_c, 1, 41, 0
9, 88320, Note_on_c, 1, 40, 100
9, 88380, Note_on_c, 1, 40, 0
9, 88500, Note_on_c, 1, 35, 100
9, 88620, Note_on_c, 1, 35, 0
9, 88620, Note_on_c, 1, 33, 100
9, 88680, Note_on_c, 1, 33, 0
9, 88680, Note_on_c, 1, 32, 100
9, 88740, Note_on_c, 1, 32, 0
9, 88860, Note_on_c, 1, 35, 85
9, 89220, Note_on_c, 1, 35, 0
9, 89220, Note_on_c, 1, 33, 85
9, 89580, Note_on_c, 1, 33, 0
9, 89580, Note_on_c, 1, 36, 85
9, 89940, Note_on_c, 1, 36, 0
9, 89940, Note_on_c, 1, 38, 85
9, 90300, Note_on_c, 1, 38, 0
9, 90300, Note_on_c, 1, 35, 85
9, 90660, Note_on_c, 1, 35, 0
9, 90660, Note_on_c, 1, 33, 85
9, 91020, Note_on_c, 1, 33, 0
9, 91020, Note_on_c, 1, 36, 85
9, 91200, Note_on_c, 1, 36, 0
9, 91200, Note_on_c, 1, 40, 85
9, 91216, Pitch_bend_c, 1, 4224
9, 91219, Pitch_bend_c, 1, 4352
9, 91220, Pitch_bend_c, 1, 4480
9, 91221, Pitch_bend_c, 1, 4608
9, 91222, Pitch_bend_c, 1, 4736
9, 91224, Pitch_bend_c, 1, 4864
9, 91225, Pitch_bend_c, 1, 4992
9, 91227, Pitch_bend_c, 1, 5120
9, 91228, Pitch_bend_c, 1, 5248
9, 91230, Pitch_bend_c, 1, 5376
9, 91231, Pitch_bend_c, 1, 5504
9, 91232, Pitch_bend_c, 1, 5632
9, 91233, Pitch_bend_c, 1, 5760
9, 91236, Pitch_bend_c, 1, 5888
9, 91237, Pitch_bend_c, 1, 6016
9, 91238, Pitch_bend_c, 1, 6144
9, 91239, Pitch_bend_c, 1, 6272
9, 91240, Pitch_bend_c, 1, 6400
9, 91242, Pitch_bend_c, 1, 6528
9, 91244, Pitch_bend_c, 1, 6656
9, 91245, Pitch_bend_c, 1, 6784
9, 91246, Pitch_bend_c, 1, 6912
9, 91248, Pitch_bend_c, 1, 7040
9, 91249, Pitch_bend_c, 1, 7168
9, 91250, Pitch_bend_c, 1, 7296
9, 91252, Pitch_bend_c, 1, 7424
9, 91254, Pitch_bend_c, 1, 7552
9, 91255, Pitch_bend_c, 1, 7680
9, 91256, Pitch_bend_c, 1, 7808
9, 91257, Pitch_bend_c, 1, 7936
9, 91258, Pitch_bend_c, 1, 8064
9, 91260, Pitch_bend_c, 1, 8192
9, 91380, Note_on_c, 1, 40, 0
9, 91380, Note_on_c, 1, 38, 85
9, 91440, Note_on_c, 1, 38, 0
9, 91500, Note_on_c, 1, 38, 85
9, 91560, Note_on_c, 1, 38, 0
9, 91620, Note_on_c, 1, 35, 85
9, 91980, Note_on_c, 1, 35, 0
9, 91980, Note_on_c, 1, 33, 85
9, 92340, Note_on_c, 1, 33, 0
9, 92340, Note_on_c, 1, 31, 85
9, 92700, Note_on_c, 1, 31, 0
9, 92700, Note_on_c, 1, 30, 85
9, 92820, Note_on_c, 1, 30, 0
9, 92820, Note_on_c, 1, 33, 85
9, 92940, Note_on_c, 1, 33, 0
9, 92940, Note_on_c, 1, 38, 85
9, 93060, Note_on_c, 1, 38, 0
9, 93060, Note_on_c, 1, 33, 85
9, 93068, Pitch_bend_c, 1, 128
9, 93069, Pitch_bend_c, 1, 512
9, 93070, Pitch_bend_c, 1, 896
9, 93072, Pitch_bend_c, 1, 1280
9, 93073, Pitch_bend_c, 1, 1664
9, 93074, Pitch_bend_c, 1, 2048
9, 93075, Pitch_bend_c, 1, 2432
9, 93076, Pitch_bend_c, 1, 2816
9, 93078, Pitch_bend_c, 1, 3200
9, 93079, Pitch_bend_c, 1, 3584
9, 93080, Pitch_bend_c, 1, 3968
9, 93081, Pitch_bend_c, 1, 4352
9, 93082, Pitch_bend_c, 1, 4736
9, 93084, Pitch_bend_c, 1, 5120
9, 93085, Pitch_bend_c, 1, 5504
9, 93086, Pitch_bend_c, 1, 5888
9, 93087, Pitch_bend_c, 1, 6272
9, 93088, Pitch_bend_c, 1, 6656
9, 93090, Pitch_bend_c, 1, 7040
9, 93091, Pitch_bend_c, 1, 7424
9, 93092, Pitch_bend_c, 1, 7808
9, 93093, Pitch_bend_c, 1, 8192
9, 93120, Note_on_c, 1, 33, 0
9, 93120, Note_on_c, 1, 33, 85
9, 93180, Note_on_c, 1, 33, 0
9, 93240, Note_on_c, 1, 33, 85
9, 93360, Note_on_c, 1, 33, 0
9, 93360, Note_on_c, 1, 33, 85
9, 93420, Note_on_c, 1, 33, 0
9, 93420, Note_on_c, 1, 31, 85
9, 93540, Note_on_c, 1, 31, 0
9, 93540, Note_on_c, 1, 36, 85
9, 93660, Note_on_c, 1, 36, 0
9, 93660, Note_on_c, 1, 40, 85
9, 93780, Note_on_c, 1, 40, 0
9, 93780, Note_on_c, 1, 33, 100
9, 94140, Note_on_c, 1, 33, 0
9, 94200, Note_on_c, 1, 33, 100
9, 94300, Note_on_c, 1, 33, 0
9, 94380, Note_on_c, 1, 35, 100
9, 94500, Note_on_c, 1, 35, 0
9, 94500, Note_on_c, 1, 36, 100
9, 94860, Note_on_c, 1, 36, 0
9, 94920, Note_on_c, 1, 38, 100
9, 95020, Note_on_c, 1, 38, 0
9, 95040, Note_on_c, 1, 33, 100
9, 95100, Note_on_c, 1, 33, 0
9, 95100, Note_on_c, 1, 26, 93
9, 95220, Note_on_c, 1, 26, 0
9, 95220, Note_on_c, 1, 33, 100
9, 95580, Note_on_c, 1, 33, 0
9, 95640, Note_on_c, 1, 33, 100
9, 95740, Note_on_c, 1, 33, 0
9, 95820, Note_on_c, 1, 35, 100
9, 95940, Note_on_c, 1, 35, 0
9, 95940, Note_on_c, 1, 36, 100
9, 96030, Note_on_c, 1, 36, 0
9, 96300, Note_on_c, 1, 26, 100
9, 96420, Note_on_c, 1, 26, 0
9, 96420, Note_on_c, 1, 26, 100
9, 96540, Note_on_c, 1, 26, 0
9, 96540, Note_on_c, 1, 33, 100
9, 96900, Note_on_c, 1, 33, 0
9, 96960, Note_on_c, 1, 33, 100
9, 97060, Note_on_c, 1, 33, 0
9, 97140, Note_on_c, 1, 35, 100
9, 97260, Note_on_c, 1, 35, 0
9, 97260, Note_on_c, 1, 36, 100
9, 97620, Note_on_c, 1, 36, 0
9, 97680, Note_on_c, 1, 38, 100
9, 97780, Note_on_c, 1, 38, 0
9, 97800, Note_on_c, 1, 33, 100
9, 97860, Note_on_c, 1, 33, 0
9, 97860, Note_on_c, 1, 26, 100
9, 97980, Note_on_c, 1, 26, 0
9, 97980, Note_on_c, 1, 33, 100
9, 98340, Note_on_c, 1, 33, 0
9, 98400, Note_on_c, 1, 33, 100
9, 98500, Note_on_c, 1, 33, 0
9, 98580, Note_on_c, 1, 35, 100
9, 98581, Control_c, 1, 101, 0
9, 98581, Control_c, 1, 100, 0
9, 98581, Control_c, 1, 6, 2
9, 98581, Control_c, 1, 38, 127
9, 98700, Note_on_c, 1, 35, 0
9, 98700, Note_on_c, 1, 36, 100
9, 98939, Note_on_c, 1, 36, 0
9, 98940, Note_on_c, 1, 38, 100
9, 98941, Pitch_bend_c, 1, 8192
9, 98943, Pitch_bend_c, 1, 8320
9, 98944, Pitch_bend_c, 1, 8448
9, 98946, Pitch_bend_c, 1, 8576
9, 98947, Pitch_bend_c, 1, 8704
9, 98948, Pitch_bend_c, 1, 8832
9, 98949, Pitch_bend_c, 1, 8960
9, 98950, Pitch_bend_c, 1, 9088
9, 98952, Pitch_bend_c, 1, 9216
9, 98953, Pitch_bend_c, 1, 9344
9, 98954, Pitch_bend_c, 1, 9472
9, 98955, Pitch_bend_c, 1, 9600
9, 98956, Pitch_bend_c, 1, 9728
9, 98958, Pitch_bend_c, 1, 9856
9, 98959, Pitch_bend_c, 1, 9984
9, 98960, Pitch_bend_c, 1, 10112
9, 98961, Pitch_bend_c, 1, 10240
9, 98964, Pitch_bend_c, 1, 10368
9, 98965, Pitch_bend_c, 1, 10496
9, 98966, Pitch_bend_c, 1, 10624
9, 98967, Pitch_bend_c, 1, 10752
9, 98968, Pitch_bend_c, 1, 10880
9, 98970, Pitch_bend_c, 1, 11008
9, 98971, Pitch_bend_c, 1, 11136
9, 98972, Pitch_bend_c, 1, 11264
9, 98973, Pitch_bend_c, 1, 11392
9, 98974, Pitch_bend_c, 1, 11520
9, 98976, Pitch_bend_c, 1, 11648
9, 98977, Pitch_bend_c, 1, 11776
9, 98978, Pitch_bend_c, 1, 11904
9, 98979, Pitch_bend_c, 1, 12032
9, 98980, Pitch_bend_c, 1, 12160
9, 98982, Pitch_bend_c, 1, 12288
9, 98984, Pitch_bend_c, 1, 12416
9, 98985, Pitch_bend_c, 1, 12544
9, 98986, Pitch_bend_c, 1, 12672
9, 98988, Pitch_bend_c, 1, 12800
9, 98989, Pitch_bend_c, 1, 12928
9, 98990, Pitch_bend_c, 1, 13056
9, 98991, Pitch_bend_c, 1, 13184
9, 98992, Pitch_bend_c, 1, 13312
9, 98994, Pitch_bend_c, 1, 13440
9, 98995, Pitch_bend_c, 1, 13568
9, 98996, Pitch_bend_c, 1, 13696
9, 98997, Pitch_bend_c, 1, 13824
9, 98998, Pitch_bend_c, 1, 13952
9, 99000, Pitch_bend_c, 1, 14080
9, 99001, Pitch_bend_c, 1, 14208
9, 99002, Pitch_bend_c, 1, 14336
9, 99004, Pitch_bend_c, 1, 14464
9, 99006, Pitch_bend_c, 1, 14592
9, 99007, Pitch_bend_c, 1, 14720
9, 99008, Pitch_bend_c, 1, 14848
9, 99009, Pitch_bend_c, 1, 14976
9, 99010, Pitch_bend_c, 1, 15104
9, 99012, Pitch_bend_c, 1, 15232
9, 99013, Pitch_bend_c, 1, 15360
9, 99014, Pitch_bend_c, 1, 15488
9, 99015, Pitch_bend_c, 1, 15616
9, 99016, Pitch_bend_c, 1, 15744
9, 99018, Pitch_bend_c, 1, 15872
9, 99019, Pitch_bend_c, 1, 16000
9, 99020, Pitch_bend_c, 1, 16128
9, 99021, Pitch_bend_c, 1, 16256
9, 99022, Pitch_bend_c, 1, 16383
9, 99179, Note_on_c, 1, 38, 0
9, 99180, Note_on_c, 1, 38, 100
9, 99181, Pitch_bend_c, 1, 8192
9, 99900, Note_on_c, 1, 38, 0
9, 99900, Note_on_c, 1, 48, 100
9, 99960, Note_on_c, 1, 48, 0
9, 99960, Note_on_c, 1, 50, 100
9, 100140, Note_on_c, 1, 50, 0
9, 100140, Note_on_c, 1, 45, 100
9, 100860, Note_on_c, 1, 45, 0
9, 100860, Note_on_c, 1, 40, 100
9, 100861, Pitch_bend_c, 1, 0
9, 100865, Pitch_bend_c, 1, 0
9, 100868, Pitch_bend_c, 1, 256
9, 100872, Pitch_bend_c, 1, 512
9, 100875, Pitch_bend_c, 1, 768
9, 100878, Pitch_bend_c, 1, 1024
9, 100882, Pitch_bend_c, 1, 1280
9, 100885, Pitch_bend_c, 1, 1536
9, 100889, Pitch_bend_c, 1, 1664
9, 100892, Pitch_bend_c, 1, 1920
9, 100896, Pitch_bend_c, 1, 2176
9, 100899, Pitch_bend_c, 1, 2432
9, 100902, Pitch_bend_c, 1, 2688
9, 100906, Pitch_bend_c, 1, 2944
9, 100909, Pitch_bend_c, 1, 3200
9, 100913, Pitch_bend_c, 1, 3328
9, 100916, Pitch_bend_c, 1, 3584
9, 100920, Pitch_bend_c, 1, 3840
9, 100923, Pitch_bend_c, 1, 4096
9, 100926, Pitch_bend_c, 1, 4352
9, 100930, Pitch_bend_c, 1, 4608
9, 100933, Pitch_bend_c, 1, 4864
9, 100937, Pitch_bend_c, 1, 4992
9, 100940, Pitch_bend_c, 1, 5248
9, 100944, Pitch_bend_c, 1, 5504
9, 100947, Pitch_bend_c, 1, 5760
9, 100950, Pitch_bend_c, 1, 6016
9, 100954, Pitch_bend_c, 1, 6272
9, 100957, Pitch_bend_c, 1, 6528
9, 100961, Pitch_bend_c, 1, 6656
9, 100964, Pitch_bend_c, 1, 6912
9, 100968, Pitch_bend_c, 1, 7168
9, 100971, Pitch_bend_c, 1, 7424
9, 100974, Pitch_bend_c, 1, 7680
9, 100978, Pitch_bend_c, 1, 7936
9, 100981, Pitch_bend_c, 1, 8192
9, 101100, Note_on_c, 1, 40, 0
9, 101100, Note_on_c, 1, 38, 100
9, 101460, Note_on_c, 1, 38, 0
9, 101460, Note_on_c, 1, 38, 100
9, 101580, Note_on_c, 1, 38, 0
9, 101580, Note_on_c, 1, 35, 100
9, 101940, Note_on_c, 1, 35, 0
9, 101940, Note_on_c, 1, 35, 100
9, 102060, Note_on_c, 1, 35, 0
9, 102060, Note_on_c, 1, 36, 100
9, 102420, Note_on_c, 1, 36, 0
9, 102420, Note_on_c, 1, 36, 100
9, 102541, Control_c, 1, 101, 0
9, 102541, Control_c, 1, 100, 0
9, 102541, Control_c, 1, 6, 5
9, 102541, Control_c, 1, 38, 127
9, 102781, Pitch_bend_c, 1, 8320
9, 102788, Pitch_bend_c, 1, 8192
9, 102792, Pitch_bend_c, 1, 8064
9, 102795, Pitch_bend_c, 1, 7936
9, 102798, Pitch_bend_c, 1, 7808
9, 102802, Pitch_bend_c, 1, 7680
9, 102805, Pitch_bend_c, 1, 7552
9, 102809, Pitch_bend_c, 1, 7424
9, 102812, Pitch_bend_c, 1, 7296
9, 102816, Pitch_bend_c, 1, 7168
9, 102819, Pitch_bend_c, 1, 7040
9, 102822, Pitch_bend_c, 1, 6912
9, 102826, Pitch_bend_c, 1, 6784
9, 102833, Pitch_bend_c, 1, 6656
9, 102836, Pitch_bend_c, 1, 6528
9, 102840, Pitch_bend_c, 1, 6400
9, 102843, Pitch_bend_c, 1, 6272
9, 102846, Pitch_bend_c, 1, 6144
9, 102850, Pitch_bend_c, 1, 6016
9, 102853, Pitch_bend_c, 1, 5888
9, 102857, Pitch_bend_c, 1, 5760
9, 102860, Pitch_bend_c, 1, 5632
9, 102864, Pitch_bend_c, 1, 5504
9, 102867, Pitch_bend_c, 1, 5376
9, 102870, Pitch_bend_c, 1, 5248
9, 102874, Pitch_bend_c, 1, 5120
9, 102881, Pitch_bend_c, 1, 4992
9, 102884, Pitch_bend_c, 1, 4864
9, 102888, Pitch_bend_c, 1, 4736
9, 102891, Pitch_bend_c, 1, 4608
9, 102894, Pitch_bend_c, 1, 4480
9, 102898, Pitch_bend_c, 1, 4352
9, 102901, Pitch_bend_c, 1, 4224
9, 102905, Pitch_bend_c, 1, 4096
9, 102908, Pitch_bend_c, 1, 3968
9, 102912, Pitch_bend_c, 1, 3840
9, 102915, Pitch_bend_c, 1, 3712
9, 102918, Pitch_bend_c, 1, 3584
9, 102922, Pitch_bend_c, 1, 3456
9, 102929, Pitch_bend_c, 1, 3328
9, 102932, Pitch_bend_c, 1, 3200
9, 102936, Pitch_bend_c, 1, 3072
9, 102939, Pitch_bend_c, 1, 2944
9, 102942, Pitch_bend_c, 1, 2816
9, 102946, Pitch_bend_c, 1, 2688
9, 102949, Pitch_bend_c, 1, 2560
9, 102953, Pitch_bend_c, 1, 2432
9, 102956, Pitch_bend_c, 1, 2304
9, 102960, Pitch_bend_c, 1, 2176
9, 102963, Pitch_bend_c, 1, 2048
9, 102966, Pitch_bend_c, 1, 1920
9, 102970, Pitch_bend_c, 1, 1792
9, 102977, Pitch_bend_c, 1, 1664
9, 102980, Pitch_bend_c, 1, 1536
9, 102984, Pitch_bend_c, 1, 1408
9, 102987, Pitch_bend_c, 1, 1280
9, 102990, Pitch_bend_c, 1, 1152
9, 102994, Pitch_bend_c, 1, 1024
9, 102997, Pitch_bend_c, 1, 896
9, 103001, Pitch_bend_c, 1, 768
9, 103004, Pitch_bend_c, 1, 640
9, 103008, Pitch_bend_c, 1, 512
9, 103011, Pitch_bend_c, 1, 384
9, 103014, Pitch_bend_c, 1, 256
9, 103018, Pitch_bend_c, 1, 128
9, 103020, Note_on_c, 1, 36, 0
9, 103020, Note_on_c, 1, 26, 100
9, 103021, Control_c, 1, 101, 0
9, 103021, Control_c, 1, 100, 0
9, 103021, Control_c, 1, 6, 2
9, 103021, Control_c, 1, 38, 127
9, 103021, Pitch_bend_c, 1, 8192
9, 103380, Note_on_c, 1, 26, 0
9, 103380, Note_on_c, 1, 38, 100
9, 103860, Note_on_c, 1, 38, 0
9, 103860, Note_on_c, 1, 43, 100
9, 103920, Note_on_c, 1, 43, 0
9, 103920, Note_on_c, 1, 44, 100
9, 103980, Note_on_c, 1, 44, 0
9, 103980, Note_on_c, 1, 45, 100
9, 104340, Note_on_c, 1, 45, 0
9, 104340, Note_on_c, 1, 33, 100
9, 104700, Note_on_c, 1, 33, 0
9, 104700, Note_on_c, 1, 33, 100
9, 104940, Note_on_c, 1, 33, 0
9, 104940, Note_on_c, 1, 38, 100
9, 105300, Note_on_c, 1, 38, 0
9, 105300, Note_on_c, 1, 38, 100
9, 105420, Note_on_c, 1, 38, 0
9, 105420, Note_on_c, 1, 35, 100
9, 105900, Note_on_c, 1, 35, 0
9, 105900, Note_on_c, 1, 36, 100
9, 106260, Note_on_c, 1, 36, 0
9, 106260, Note_on_c, 1, 36, 100
9, 106261, Pitch_bend_c, 1, 4096
9, 106265, Pitch_bend_c, 1, 4224
9, 106268, Pitch_bend_c, 1, 4352
9, 106272, Pitch_bend_c, 1, 4608
9, 106275, Pitch_bend_c, 1, 4736
9, 106278, Pitch_bend_c, 1, 4992
9, 106282, Pitch_bend_c, 1, 5120
9, 106285, Pitch_bend_c, 1, 5376
9, 106289, Pitch_bend_c, 1, 5504
9, 106292, Pitch_bend_c, 1, 5760
9, 106296, Pitch_bend_c, 1, 5888
9, 106299, Pitch_bend_c, 1, 6144
9, 106302, Pitch_bend_c, 1, 6272
9, 106306, Pitch_bend_c, 1, 6400
9, 106309, Pitch_bend_c, 1, 6656
9, 106313, Pitch_bend_c, 1, 6784
9, 106316, Pitch_bend_c, 1, 7040
9, 106320, Pitch_bend_c, 1, 7168
9, 106323, Pitch_bend_c, 1, 7424
9, 106326, Pitch_bend_c, 1, 7552
9, 106330, Pitch_bend_c, 1, 7808
9, 106333, Pitch_bend_c, 1, 7936
9, 106337, Pitch_bend_c, 1, 8192
9, 106440, Note_on_c, 1, 36, 0
9, 106440, Note_on_c, 1, 36, 100
9, 106441, Pitch_bend_c, 1, 4224
9, 106443, Pitch_bend_c, 1, 4352
9, 106446, Pitch_bend_c, 1, 4480
9, 106448, Pitch_bend_c, 1, 4608
9, 106450, Pitch_bend_c, 1, 4736
9, 106452, Pitch_bend_c, 1, 4864
9, 106454, Pitch_bend_c, 1, 4992
9, 106456, Pitch_bend_c, 1, 5120
9, 106459, Pitch_bend_c, 1, 5248
9, 106461, Pitch_bend_c, 1, 5376
9, 106463, Pitch_bend_c, 1, 5504
9, 106465, Pitch_bend_c, 1, 5632
9, 106467, Pitch_bend_c, 1, 5760
9, 106470, Pitch_bend_c, 1, 5888
9, 106472, Pitch_bend_c, 1, 6016
9, 106474, Pitch_bend_c, 1, 6272
9, 106476, Pitch_bend_c, 1, 6400
9, 106478, Pitch_bend_c, 1, 6528
9, 106480, Pitch_bend_c, 1, 6656
9, 106483, Pitch_bend_c, 1, 6784
9, 106485, Pitch_bend_c, 1, 6912
9, 106487, Pitch_bend_c, 1, 7040
9, 106489, Pitch_bend_c, 1, 7168
9, 106491, Pitch_bend_c, 1, 7296
9, 106494, Pitch_bend_c, 1, 7424
9, 106496, Pitch_bend_c, 1, 7552
9, 106498, Pitch_bend_c, 1, 7680
9, 106500, Pitch_bend_c, 1, 7808
9, 106502, Pitch_bend_c, 1, 7936
9, 106504, Pitch_bend_c, 1, 8064
9, 106507, Pitch_bend_c, 1, 8320
9, 106513, Pitch_bend_c, 1, 8192
9, 106620, Pitch_bend_c, 1, 8192
9, 106620, Control_c, 1, 101, 0
9, 106620, Control_c, 1, 100, 0
9, 106620, Control_c, 1, 6, 6
9, 106620, Control_c, 1, 38, 127
9, 106627, Pitch_bend_c, 1, 8064
9, 106631, Pitch_bend_c, 1, 7936
9, 106635, Pitch_bend_c, 1, 7808
9, 106640, Pitch_bend_c, 1, 7680
9, 106644, Pitch_bend_c, 1, 7552
9, 106648, Pitch_bend_c, 1, 7424
9, 106653, Pitch_bend_c, 1, 7296
9, 106657, Pitch_bend_c, 1, 7168
9, 106662, Pitch_bend_c, 1, 7040
9, 106666, Pitch_bend_c, 1, 6912
9, 106672, Pitch_bend_c, 1, 6784
9, 106677, Pitch_bend_c, 1, 6656
9, 106681, Pitch_bend_c, 1, 6528
9, 106686, Pitch_bend_c, 1, 6400
9, 106690, Pitch_bend_c, 1, 6272
9, 106694, Pitch_bend_c, 1, 6144
9, 106699, Pitch_bend_c, 1, 6016
9, 106703, Pitch_bend_c, 1, 5888
9, 106707, Pitch_bend_c, 1, 5760
9, 106712, Pitch_bend_c, 1, 5632
9, 106718, Pitch_bend_c, 1, 5504
9, 106723, Pitch_bend_c, 1, 5376
9, 106727, Pitch_bend_c, 1, 5248
9, 106731, Pitch_bend_c, 1, 5120
9, 106736, Pitch_bend_c, 1, 4992
9, 106740, Pitch_bend_c, 1, 4864
9, 106744, Pitch_bend_c, 1, 4736
9, 106749, Pitch_bend_c, 1, 4608
9, 106753, Pitch_bend_c, 1, 4480
9, 106758, Pitch_bend_c, 1, 4352
9, 106762, Pitch_bend_c, 1, 4224
9, 106768, Pitch_bend_c, 1, 4096
9, 106773, Pitch_bend_c, 1, 3968
9, 106777, Pitch_bend_c, 1, 3840
9, 106782, Pitch_bend_c, 1, 3712
9, 106786, Pitch_bend_c, 1, 3584
9, 106790, Pitch_bend_c, 1, 3456
9, 106795, Pitch_bend_c, 1, 3328
9, 106799, Pitch_bend_c, 1, 3200
9, 106803, Pitch_bend_c, 1, 3072
9, 106808, Pitch_bend_c, 1, 2944
9, 106814, Pitch_bend_c, 1, 2816
9, 106819, Pitch_bend_c, 1, 2688
9, 106823, Pitch_bend_c, 1, 2560
9, 106827, Pitch_bend_c, 1, 2432
9, 106832, Pitch_bend_c, 1, 2304
9, 106836, Pitch_bend_c, 1, 2176
9, 106840, Pitch_bend_c, 1, 2048
9, 106845, Pitch_bend_c, 1, 1920
9, 106849, Pitch_bend_c, 1, 1792
9, 106854, Pitch_bend_c, 1, 1664
9, 106858, Pitch_bend_c, 1, 1536
9, 106860, Note_on_c, 1, 36, 0
9, 106860, Pitch_bend_c, 1, 8192
9, 106860, Note_on_c, 1, 31, 75
9, 107460, Note_on_c, 1, 31, 0
9, 107460, Note_on_c, 1, 33, 75
9, 107700, Note_on_c, 1, 33, 0
9, 107700, Note_on_c, 1, 35, 75
9, 108300, Note_on_c, 1, 35, 0
9, 108300, Note_on_c, 1, 40, 75
9, 108540, Note_on_c, 1, 40, 0
9, 108540, Note_on_c, 1, 36, 75
9, 109140, Note_on_c, 1, 36, 0
9, 109140, Pitch_bend_c, 1, 4224
9, 109140, Note_on_c, 1, 35, 75
9, 109142, Pitch_bend_c, 1, 4352
9, 109145, Pitch_bend_c, 1, 4608
9, 109148, Pitch_bend_c, 1, 4864
9, 109150, Pitch_bend_c, 1, 5120
9, 109153, Pitch_bend_c, 1, 5376
9, 109156, Pitch_bend_c, 1, 5504
9, 109159, Pitch_bend_c, 1, 5760
9, 109161, Pitch_bend_c, 1, 6016
9, 109164, Pitch_bend_c, 1, 6272
9, 109167, Pitch_bend_c, 1, 6528
9, 109170, Pitch_bend_c, 1, 6784
9, 109172, Pitch_bend_c, 1, 6912
9, 109175, Pitch_bend_c, 1, 7168
9, 109178, Pitch_bend_c, 1, 7424
9, 109180, Pitch_bend_c, 1, 7680
9, 109183, Pitch_bend_c, 1, 7936
9, 109186, Pitch_bend_c, 1, 8192
9, 109380, Note_on_c, 1, 35, 0
9, 109380, Note_on_c, 1, 33, 75
9, 109742, Pitch_bend_c, 1, 8192
9, 109745, Pitch_bend_c, 1, 8064
9, 109748, Pitch_bend_c, 1, 7936
9, 109750, Pitch_bend_c, 1, 7808
9, 109753, Pitch_bend_c, 1, 7680
9, 109756, Pitch_bend_c, 1, 7552
9, 109759, Pitch_bend_c, 1, 7424
9, 109761, Pitch_bend_c, 1, 7296
9, 109764, Pitch_bend_c, 1, 7168
9, 109767, Pitch_bend_c, 1, 7040
9, 109770, Pitch_bend_c, 1, 6912
9, 109772, Pitch_bend_c, 1, 6656
9, 109775, Pitch_bend_c, 1, 6528
9, 109778, Pitch_bend_c, 1, 6400
9, 109780, Pitch_bend_c, 1, 6272
9, 109783, Pitch_bend_c, 1, 6144
9, 109786, Pitch_bend_c, 1, 6016
9, 109789, Pitch_bend_c, 1, 5888
9, 109791, Pitch_bend_c, 1, 5760
9, 109794, Pitch_bend_c, 1, 5632
9, 109797, Pitch_bend_c, 1, 5504
9, 109800, Pitch_bend_c, 1, 5376
9, 109802, Pitch_bend_c, 1, 5120
9, 109805, Pitch_bend_c, 1, 4992
9, 109808, Pitch_bend_c, 1, 4864
9, 109810, Pitch_bend_c, 1, 4736
9, 109813, Pitch_bend_c, 1, 4608
9, 109816, Pitch_bend_c, 1, 4480
9, 109819, Pitch_bend_c, 1, 4352
9, 109821, Pitch_bend_c, 1, 4224
9, 109824, Pitch_bend_c, 1, 4096
9, 109827, Pitch_bend_c, 1, 3968
9, 109830, Pitch_bend_c, 1, 3840
9, 109832, Pitch_bend_c, 1, 3584
9, 109835, Pitch_bend_c, 1, 3456
9, 109838, Pitch_bend_c, 1, 3328
9, 109840, Pitch_bend_c, 1, 3200
9, 109843, Pitch_bend_c, 1, 3072
9, 109846, Pitch_bend_c, 1, 2944
9, 109849, Pitch_bend_c, 1, 2816
9, 109851, Pitch_bend_c, 1, 2688
9, 109854, Pitch_bend_c, 1, 2560
9, 109857, Pitch_bend_c, 1, 2432
9, 109860, Note_on_c, 1, 33, 0
9, 109860, Pitch_bend_c, 1, 8192
9, 109860, Note_on_c, 1, 29, 75
9, 110220, Note_on_c, 1, 29, 0
9, 110222, Note_on_c, 1, 29, 75
9, 110340, Note_on_c, 1, 29, 0
9, 110340, Note_on_c, 1, 31, 85
9, 110940, Pitch_bend_c, 1, 8192
9, 110942, Pitch_bend_c, 1, 8320
9, 110945, Pitch_bend_c, 1, 8448
9, 110948, Pitch_bend_c, 1, 8576
9, 110950, Pitch_bend_c, 1, 8704
9, 110953, Pitch_bend_c, 1, 8832
9, 110956, Pitch_bend_c, 1, 8960
9, 110959, Pitch_bend_c, 1, 9088
9, 110961, Pitch_bend_c, 1, 9216
9, 110964, Pitch_bend_c, 1, 9472
9, 110967, Pitch_bend_c, 1, 9600
9, 110970, Pitch_bend_c, 1, 9728
9, 110972, Pitch_bend_c, 1, 9856
9, 110975, Pitch_bend_c, 1, 9984
9, 110978, Pitch_bend_c, 1, 10112
9, 110980, Pitch_bend_c, 1, 10240
9, 110983, Pitch_bend_c, 1, 10368
9, 110986, Pitch_bend_c, 1, 10496
9, 110989, Pitch_bend_c, 1, 10752
9, 111180, Note_on_c, 1, 31, 0
9, 111180, Pitch_bend_c, 1, 8192
9, 111180, Note_on_c, 1, 35, 75
9, 111780, Note_on_c, 1, 35, 0
9, 111780, Note_on_c, 1, 40, 75
9, 111782, Pitch_bend_c, 1, 4736
9, 111785, Pitch_bend_c, 1, 4864
9, 111788, Pitch_bend_c, 1, 5120
9, 111790, Pitch_bend_c, 1, 5248
9, 111793, Pitch_bend_c, 1, 5504
9, 111796, Pitch_bend_c, 1, 5632
9, 111799, Pitch_bend_c, 1, 5888
9, 111801, Pitch_bend_c, 1, 6016
9, 111804, Pitch_bend_c, 1, 6272
9, 111807, Pitch_bend_c, 1, 6400
9, 111810, Pitch_bend_c, 1, 6656
9, 111812, Pitch_bend_c, 1, 6784
9, 111815, Pitch_bend_c, 1, 7040
9, 111818, Pitch_bend_c, 1, 7168
9, 111820, Pitch_bend_c, 1, 7424
9, 111823, Pitch_bend_c, 1, 7552
9, 111826, Pitch_bend_c, 1, 7808
9, 111829, Pitch_bend_c, 1, 7936
9, 111831, Pitch_bend_c, 1, 8192
9, 112020, Note_on_c, 1, 40, 0
9, 112020, Note_on_c, 1, 41, 75
9, 112620, Note_on_c, 1, 41, 0
9, 112620, Note_on_c, 1, 40, 75
9, 112622, Pitch_bend_c, 1, 2688
9, 112625, Pitch_bend_c, 1, 2816
9, 112628, Pitch_bend_c, 1, 2944
9, 112630, Pitch_bend_c, 1, 3072
9, 112633, Pitch_bend_c, 1, 3200
9, 112636, Pitch_bend_c, 1, 3328
9, 112639, Pitch_bend_c, 1, 3456
9, 112641, Pitch_bend_c, 1, 3584
9, 112644, Pitch_bend_c, 1, 3712
9, 112647, Pitch_bend_c, 1, 3840
9, 112650, Pitch_bend_c, 1, 3968
9, 112652, Pitch_bend_c, 1, 4096
9, 112655, Pitch_bend_c, 1, 4224
9, 112658, Pitch_bend_c, 1, 4352
9, 112660, Pitch_bend_c, 1, 4480
9, 112663, Pitch_bend_c, 1, 4608
9, 112666, Pitch_bend_c, 1, 4736
9, 112669, Pitch_bend_c, 1, 4864
9, 112671, Pitch_bend_c, 1, 4992
9, 112674, Pitch_bend_c, 1, 5120
9, 112677, Pitch_bend_c, 1, 5248
9, 112680, Pitch_bend_c, 1, 5376
9, 112682, Pitch_bend_c, 1, 5504
9, 112685, Pitch_bend_c, 1, 5632
9, 112688, Pitch_bend_c, 1, 5760
9, 112690, Pitch_bend_c, 1, 5888
9, 112693, Pitch_bend_c, 1, 6016
9, 112696, Pitch_bend_c, 1, 6144
9, 112699, Pitch_bend_c, 1, 6272
9, 112701, Pitch_bend_c, 1, 6400
9, 112704, Pitch_bend_c, 1, 6528
9, 112707, Pitch_bend_c, 1, 6656
9, 112710, Pitch_bend_c, 1, 6784
9, 112712, Pitch_bend_c, 1, 6912
9, 112715, Pitch_bend_c, 1, 7040
9, 112718, Pitch_bend_c, 1, 7168
9, 112720, Pitch_bend_c, 1, 7296
9, 112723, Pitch_bend_c, 1, 7424
9, 112726, Pitch_bend_c, 1, 7552
9, 112729, Pitch_bend_c, 1, 7680
9, 112731, Pitch_bend_c, 1, 7808
9, 112734, Pitch_bend_c, 1, 7936
9, 112737, Pitch_bend_c, 1, 8064
9, 112740, Pitch_bend_c, 1, 8192
9, 112816, Pitch_bend_c, 1, 8192
9, 112819, Pitch_bend_c, 1, 8064
9, 112821, Pitch_bend_c, 1, 7936
9, 112824, Pitch_bend_c, 1, 7808
9, 112827, Pitch_bend_c, 1, 7680
9, 112830, Pitch_bend_c, 1, 7552
9, 112832, Pitch_bend_c, 1, 7424
9, 112835, Pitch_bend_c, 1, 7296
9, 112838, Pitch_bend_c, 1, 7168
9, 112840, Pitch_bend_c, 1, 7040
9, 112843, Pitch_bend_c, 1, 6912
9, 112846, Pitch_bend_c, 1, 6784
9, 112849, Pitch_bend_c, 1, 6656
9, 112851, Pitch_bend_c, 1, 6528
9, 112854, Pitch_bend_c, 1, 6400
9, 112857, Pitch_bend_c, 1, 6272
9, 112860, Note_on_c, 1, 40, 0
9, 112860, Pitch_bend_c, 1, 8192
9, 112860, Note_on_c, 1, 38, 75
9, 113149, Pitch_bend_c, 1, 8192
9, 113154, Pitch_bend_c, 1, 8064
9, 113157, Pitch_bend_c, 1, 7936
9, 113160, Pitch_bend_c, 1, 7808
9, 113162, Pitch_bend_c, 1, 7680
9, 113165, Pitch_bend_c, 1, 7552
9, 113168, Pitch_bend_c, 1, 7424
9, 113170, Pitch_bend_c, 1, 7296
9, 113173, Pitch_bend_c, 1, 7168
9, 113176, Pitch_bend_c, 1, 7040
9, 113181, Pitch_bend_c, 1, 6912
9, 113184, Pitch_bend_c, 1, 6784
9, 113187, Pitch_bend_c, 1, 6656
9, 113190, Pitch_bend_c, 1, 6528
9, 113192, Pitch_bend_c, 1, 6400
9, 113195, Pitch_bend_c, 1, 6272
9, 113198, Pitch_bend_c, 1, 6144
9, 113200, Pitch_bend_c, 1, 6016
9, 113203, Pitch_bend_c, 1, 5888
9, 113209, Pitch_bend_c, 1, 5760
9, 113211, Pitch_bend_c, 1, 5632
9, 113214, Pitch_bend_c, 1, 5504
9, 113217, Pitch_bend_c, 1, 5376
9, 113220, Pitch_bend_c, 1, 5248
9, 113222, Pitch_bend_c, 1, 5120
9, 113225, Pitch_bend_c, 1, 4992
9, 113228, Pitch_bend_c, 1, 4864
9, 113230, Pitch_bend_c, 1, 4736
9, 113236, Pitch_bend_c, 1, 4608
9, 113239, Pitch_bend_c, 1, 4480
9, 113241, Pitch_bend_c, 1, 4352
9, 113244, Pitch_bend_c, 1, 4224
9, 113247, Pitch_bend_c, 1, 4096
9, 113250, Pitch_bend_c, 1, 3968
9, 113252, Pitch_bend_c, 1, 3840
9, 113255, Pitch_bend_c, 1, 3712
9, 113258, Pitch_bend_c, 1, 3584
9, 113263, Pitch_bend_c, 1, 3456
9, 113266, Pitch_bend_c, 1, 3328
9, 113269, Pitch_bend_c, 1, 3200
9, 113271, Pitch_bend_c, 1, 3072
9, 113274, Pitch_bend_c, 1, 2944
9, 113277, Pitch_bend_c, 1, 2816
9, 113280, Pitch_bend_c, 1, 2688
9, 113282, Pitch_bend_c, 1, 2560
9, 113285, Pitch_bend_c, 1, 2432
9, 113290, Pitch_bend_c, 1, 2304
9, 113293, Pitch_bend_c, 1, 2176
9, 113296, Pitch_bend_c, 1, 2048
9, 113299, Pitch_bend_c, 1, 1920
9, 113301, Pitch_bend_c, 1, 1792
9, 113304, Pitch_bend_c, 1, 1664
9, 113307, Pitch_bend_c, 1, 1536
9, 113310, Pitch_bend_c, 1, 1408
9, 113312, Pitch_bend_c, 1, 1280
9, 113318, Pitch_bend_c, 1, 1152
9, 113320, Pitch_bend_c, 1, 1024
9, 113323, Pitch_bend_c, 1, 896
9, 113326, Pitch_bend_c, 1, 768
9, 113329, Pitch_bend_c, 1, 640
9, 113331, Pitch_bend_c, 1, 512
9, 113334, Pitch_bend_c, 1, 384
9, 113337, Pitch_bend_c, 1, 256
9, 113340, Note_on_c, 1, 38, 0
9, 113340, Pitch_bend_c, 1, 8192
9, 113340, Note_on_c, 1, 26, 75
9, 113580, Note_on_c, 1, 26, 0
9, 113580, Note_on_c, 1, 26, 75
9, 113820, Note_on_c, 1, 26, 0
9, 113820, Note_on_c, 1, 28, 100
9, 114180, Note_on_c, 1, 28, 0
9, 114180, Note_on_c, 1, 28, 100
9, 114660, Note_on_c, 1, 28, 0
9, 114660, Note_on_c, 1, 33, 80
9, 114720, Note_on_c, 1, 33, 0
9, 114720, Note_on_c, 1, 34, 90
9, 114780, Note_on_c, 1, 34, 0
9, 114780, Note_on_c, 1, 35, 100
9, 115140, Note_on_c, 1, 35, 0
9, 115140, Note_on_c, 1, 35, 100
9, 115380, Note_on_c, 1, 35, 0
9, 115380, Note_on_c, 1, 35, 80
9, 115500, Note_on_c, 1, 35, 0
9, 115500, Control_c, 1, 64, 97
9, 115500, Note_on_c, 1, 35, 70
9, 115560, Note_on_c, 1, 35, 0
9, 115560, Note_on_c, 1, 35, 70
9, 115620, Note_on_c, 1, 35, 0
9, 115620, Note_on_c, 1, 35, 70
9, 115680, Note_on_c, 1, 35, 0
9, 115680, Note_on_c, 1, 35, 70
9, 115710, Control_c, 1, 64, 0
9, 115740, Note_on_c, 1, 35, 0
9, 115740, Note_on_c, 1, 28, 100
9, 115920, Note_on_c, 1, 28, 0
9, 115920, Note_on_c, 1, 28, 100
9, 116100, Note_on_c, 1, 28, 0
9, 116100, Note_on_c, 1, 28, 100
9, 116220, Note_on_c, 1, 28, 0
9, 116220, Note_on_c, 1, 33, 100
9, 116400, Note_on_c, 1, 33, 0
9, 116400, Note_on_c, 1, 33, 100
9, 116580, Note_on_c, 1, 33, 0
9, 116580, Note_on_c, 1, 33, 100
9, 116700, Note_on_c, 1, 33, 0
9, 116700, Control_c, 1, 64, 67
9, 116700, Note_on_c, 1, 38, 80
9, 116760, Note_on_c, 1, 38, 0
9, 116760, Note_on_c, 1, 38, 80
9, 116820, Note_on_c, 1, 38, 0
9, 116820, Note_on_c, 1, 38, 80
9, 116880, Note_on_c, 1, 38, 0
9, 116880, Note_on_c, 1, 38, 80
9, 116940, Note_on_c, 1, 38, 0
9, 117060, Note_on_c, 1, 38, 80
9, 117150, Control_c, 1, 64, 0
9, 117180, Note_on_c, 1, 38, 0
9, 117180, Note_on_c, 1, 38, 80
9, 117240, Note_on_c, 1, 50, 80
9, 117300, Note_on_c, 1, 50, 0
9, 117300, Note_on_c, 1, 57, 80
9, 117360, Note_on_c, 1, 57, 0
9, 117360, Note_on_c, 1, 50, 80
9, 117420, Note_on_c, 1, 50, 0
9, 117420, Note_on_c, 1, 57, 80
9, 117480, Note_on_c, 1, 57, 0
9, 117480, Note_on_c, 1, 50, 80
9, 117540, Note_on_c, 1, 50, 0
9, 117540, Note_on_c, 1, 38, 0
9, 117540, Note_on_c, 1, 38, 80
9, 117660, Note_on_c, 1, 38, 0
9, 117660, Note_on_c, 1, 40, 100
9, 117840, Note_on_c, 1, 40, 0
9, 117840, Note_on_c, 1, 40, 100
9, 118020, Note_on_c, 1, 40, 0
9, 118020, Note_on_c, 1, 28, 100
9, 118260, Note_on_c, 1, 28, 0
9, 118260, Control_c, 1, 64, 67
9, 118260, Note_on_c, 1, 28, 100
9, 118380, Note_on_c, 1, 28, 0
9, 118380, Note_on_c, 1, 28, 100
9, 118500, Note_on_c, 1, 28, 0
9, 118500, Note_on_c, 1, 28, 100
9, 118560, Control_c, 1, 64, 0
9, 118620, Note_on_c, 1, 28, 0
9, 118620, Note_on_c, 1, 35, 100
9, 118800, Note_on_c, 1, 35, 0
9, 118800, Note_on_c, 1, 47, 100
9, 118980, Note_on_c, 1, 47, 0
9, 118980, Note_on_c, 1, 35, 100
9, 119220, Note_on_c, 1, 35, 0
9, 119220, Note_on_c, 1, 35, 100
9, 119340, Note_on_c, 1, 35, 0
9, 119340, Note_on_c, 1, 35, 100
9, 119580, Note_on_c, 1, 35, 0
9, 119580, Note_on_c, 1, 28, 100
9, 119760, Note_on_c, 1, 28, 0
9, 119760, Note_on_c, 1, 28, 100
9, 119940, Note_on_c, 1, 28, 0
9, 119940, Pitch_bend_c, 1, 4096
9, 119940, Note_on_c, 1, 35, 100
9, 119942, Pitch_bend_c, 1, 4224
9, 119945, Pitch_bend_c, 1, 4480
9, 119948, Pitch_bend_c, 1, 4736
9, 119950, Pitch_bend_c, 1, 4864
9, 119953, Pitch_bend_c, 1, 5120
9, 119956, Pitch_bend_c, 1, 5376
9, 119959, Pitch_bend_c, 1, 5504
9, 119961, Pitch_bend_c, 1, 5760
9, 119964, Pitch_bend_c, 1, 6016
9, 119967, Pitch_bend_c, 1, 6144
9, 119970, Pitch_bend_c, 1, 6400
9, 119972, Pitch_bend_c, 1, 6656
9, 119975, Pitch_bend_c, 1, 6784
9, 119978, Pitch_bend_c, 1, 7040
9, 119980, Pitch_bend_c, 1, 7296
9, 119983, Pitch_bend_c, 1, 7424
9, 119986, Pitch_bend_c, 1, 7680
9, 119989, Pitch_bend_c, 1, 7936
9, 119991, Pitch_bend_c, 1, 8192
9, 120060, Note_on_c, 1, 35, 0
9, 120060, Note_on_c, 1, 33, 100
9, 120240, Note_on_c, 1, 33, 0
9, 120240, Note_on_c, 1, 33, 100
9, 120420, Note_on_c, 1, 33, 0
9, 120420, Pitch_bend_c, 1, 4096
9, 120420, Note_on_c, 1, 40, 100
9, 120422, Pitch_bend_c, 1, 4224
9, 120425, Pitch_bend_c, 1, 4480
9, 120428, Pitch_bend_c, 1, 4608
9, 120430, Pitch_bend_c, 1, 4864
9, 120433, Pitch_bend_c, 1, 4992
9, 120436, Pitch_bend_c, 1, 5248
9, 120439, Pitch_bend_c, 1, 5376
9, 120441, Pitch_bend_c, 1, 5632
9, 120444, Pitch_bend_c, 1, 5760
9, 120447, Pitch_bend_c, 1, 6016
9, 120450, Pitch_bend_c, 1, 6144
9, 120452, Pitch_bend_c, 1, 6400
9, 120455, Pitch_bend_c, 1, 6528
9, 120458, Pitch_bend_c, 1, 6784
9, 120460, Pitch_bend_c, 1, 6912
9, 120463, Pitch_bend_c, 1, 7168
9, 120466, Pitch_bend_c, 1, 7296
9, 120469, Pitch_bend_c, 1, 7552
9, 120471, Pitch_bend_c, 1, 7680
9, 120474, Pitch_bend_c, 1, 7936
9, 120477, Pitch_bend_c, 1, 8192
9, 120540, Note_on_c, 1, 40, 0
9, 120540, Note_on_c, 1, 38, 100
9, 120720, Note_on_c, 1, 38, 0
9, 120720, Note_on_c, 1, 38, 100
9, 121080, Note_on_c, 1, 38, 0
9, 121080, Note_on_c, 1, 33, 100
9, 121140, Note_on_c, 1, 33, 0
9, 121140, Note_on_c, 1, 38, 100
9, 121320, Note_on_c, 1, 38, 0
9, 121320, Note_on_c, 1, 33, 100
9, 121380, Note_on_c, 1, 33, 0
9, 121380, Note_on_c, 1, 38, 100
9, 121500, Note_on_c, 1, 38, 0
9, 121500, Note_on_c, 1, 40, 100
9, 121680, Note_on_c, 1, 40, 0
9, 121680, Note_on_c, 1, 40, 100
9, 121860, Note_on_c, 1, 40, 0
9, 121860, Note_on_c, 1, 40, 100
9, 121980, Note_on_c, 1, 40, 0
9, 121980, Note_on_c, 1, 35, 100
9, 122160, Note_on_c, 1, 35, 0
9, 122160, Note_on_c, 1, 35, 100
9, 122340, Note_on_c, 1, 35, 0
9, 122340, Note_on_c, 1, 35, 100
9, 122460, Note_on_c, 1, 35, 0
9, 122460, Note_on_c, 1, 40, 100
9, 122640, Note_on_c, 1, 40, 0
9, 122640, Note_on_c, 1, 40, 100
9, 122820, Note_on_c, 1, 40, 0
9, 122820, Note_on_c, 1, 40, 100
9, 122940, Note_on_c, 1, 40, 0
9, 122940, Note_on_c, 1, 52, 100
9, 123180, Note_on_c, 1, 52, 0
9, 123180, Note_on_c, 1, 40, 100
9, 123300, Note_on_c, 1, 40, 0
9, 123300, Note_on_c, 1, 40, 100
9, 123420, Note_on_c, 1, 40, 0
9, 123420, Note_on_c, 1, 35, 100
9, 123660, Note_on_c, 1, 35, 0
9, 123660, Note_on_c, 1, 35, 100
9, 123780, Note_on_c, 1, 35, 0
9, 123780, Note_on_c, 1, 35, 100
9, 123900, Note_on_c, 1, 35, 0
9, 123900, Note_on_c, 1, 34, 100
9, 124140, Note_on_c, 1, 34, 0
9, 124140, Note_on_c, 1, 34, 100
9, 124260, Note_on_c, 1, 34, 0
9, 124260, Note_on_c, 1, 34, 100
9, 124380, Note_on_c, 1, 34, 0
9, 124380, Note_on_c, 1, 33, 100
9, 124620, Note_on_c, 1, 33, 0
9, 124620, Note_on_c, 1, 33, 100
9, 124740, Note_on_c, 1, 33, 0
9, 124740, Note_on_c, 1, 36, 100
9, 124860, Note_on_c, 1, 36, 0
9, 124860, Note_on_c, 1, 38, 100
9, 125220, Note_on_c, 1, 38, 0
9, 125220, Note_on_c, 1, 38, 100
9, 125340, Note_on_c, 1, 38, 0
9, 125340, Note_on_c, 1, 40, 100
9, 125400, Note_on_c, 1, 40, 0
9, 125400, Note_on_c, 1, 40, 100
9, 125460, Note_on_c, 1, 40, 0
9, 125460, Note_on_c, 1, 40, 100
9, 125520, Note_on_c, 1, 40, 0
9, 125520, Note_on_c, 1, 40, 100
9, 125700, Note_on_c, 1, 40, 0
9, 125700, Note_on_c, 1, 40, 100
9, 125760, Note_on_c, 1, 40, 0
9, 125760, Note_on_c, 1, 40, 100
9, 125820, Note_on_c, 1, 40, 0
9, 125820, Note_on_c, 1, 35, 100
9, 126000, Note_on_c, 1, 35, 0
9, 126000, Note_on_c, 1, 35, 100
9, 126180, Note_on_c, 1, 35, 0
9, 126180, Note_on_c, 1, 35, 100
9, 126240, Note_on_c, 1, 35, 0
9, 126240, Note_on_c, 1, 35, 100
9, 126300, Note_on_c, 1, 35, 0
9, 126300, Note_on_c, 1, 40, 100
9, 126360, Note_on_c, 1, 40, 0
9, 126360, Note_on_c, 1, 40, 100
9, 126420, Note_on_c, 1, 40, 0
9, 126420, Note_on_c, 1, 40, 100
9, 126480, Note_on_c, 1, 40, 0
9, 126480, Note_on_c, 1, 40, 100
9, 126660, Note_on_c, 1, 40, 0
9, 126660, Note_on_c, 1, 40, 100
9, 126720, Note_on_c, 1, 40, 0
9, 126720, Note_on_c, 1, 40, 100
9, 126780, Note_on_c, 1, 40, 0
9, 126780, Note_on_c, 1, 36, 100
9, 126960, Note_on_c, 1, 36, 0
9, 126960, Note_on_c, 1, 36, 100
9, 127140, Note_on_c, 1, 36, 0
9, 127140, Note_on_c, 1, 36, 100
9, 127200, Note_on_c, 1, 36, 0
9, 127200, Note_on_c, 1, 33, 100
9, 127260, Note_on_c, 1, 33, 0
9, 127260, Note_on_c, 1, 31, 100
9, 127440, Note_on_c, 1, 31, 0
9, 127440, Note_on_c, 1, 31, 100
9, 127620, Note_on_c, 1, 31, 0
9, 127620, Note_on_c, 1, 31, 100
9, 127680, Note_on_c, 1, 31, 0
9, 127680, Note_on_c, 1, 31, 100
9, 127740, Note_on_c, 1, 31, 0
9, 127740, Note_on_c, 1, 34, 100
9, 127920, Note_on_c, 1, 34, 0
9, 127920, Note_on_c, 1, 34, 100
9, 128100, Note_on_c, 1, 34, 0
9, 128100, Note_on_c, 1, 34, 100
9, 128160, Note_on_c, 1, 34, 0
9, 128160, Note_on_c, 1, 34, 100
9, 128220, Note_on_c, 1, 34, 0
9, 128220, Note_on_c, 1, 29, 100
9, 128400, Note_on_c, 1, 29, 0
9, 128400, Note_on_c, 1, 29, 100
9, 128580, Note_on_c, 1, 29, 0
9, 128580, Note_on_c, 1, 36, 100
9, 128700, Note_on_c, 1, 36, 0
9, 128700, Note_on_c, 1, 38, 100
9, 129180, Note_on_c, 1, 38, 0
9, 129180, Note_on_c, 1, 38, 100
9, 129300, Note_on_c, 1, 38, 0
9, 129840, Note_on_c, 1, 28, 100
9, 129960, Note_on_c, 1, 28, 0
9, 129960, Note_on_c, 1, 35, 100
9, 130020, Note_on_c, 1, 35, 0
9, 130020, Note_on_c, 1, 38, 100
9, 130080, Note_on_c, 1, 38, 0
9, 130080, Note_on_c, 1, 35, 100
9, 130140, Note_on_c, 1, 35, 0
9, 130140, Note_on_c, 1, 40, 100
9, 130200, Note_on_c, 1, 40, 0
9, 130200, Note_on_c, 1, 35, 100
9, 130260, Note_on_c, 1, 35, 0
9, 130260, Note_on_c, 1, 38, 100
9, 130320, Note_on_c, 1, 38, 0
9, 130320, Note_on_c, 1, 33, 100
9, 130380, Note_on_c, 1, 33, 0
9, 130380, Note_on_c, 1, 35, 100
9, 130440, Note_on_c, 1, 35, 0
9, 130440, Note_on_c, 1, 31, 100
9, 130500, Note_on_c, 1, 31, 0
9, 130500, Note_on_c, 1, 33, 100
9, 130560, Note_on_c, 1, 33, 0
9, 130560, Note_on_c, 1, 28, 100
9, 130680, Note_on_c, 1, 28, 0
9, 130680, Note_on_c, 1, 35, 100
9, 130740, Note_on_c, 1, 35, 0
9, 130740, Note_on_c, 1, 38, 100
9, 130800, Note_on_c, 1, 38, 0
9, 130800, Note_on_c, 1, 35, 100
9, 130860, Note_on_c, 1, 35, 0
9, 130860, Note_on_c, 1, 40, 100
9, 130920, Note_on_c, 1, 40, 0
9, 130920, Note_on_c, 1, 35, 100
9, 130980, Note_on_c, 1, 35, 0
9, 130980, Note_on_c, 1, 38, 100
9, 131040, Note_on_c, 1, 38, 0
9, 131040, Note_on_c, 1, 33, 100
9, 131100, Note_on_c, 1, 33, 0
9, 131100, Note_on_c, 1, 35, 100
9, 131160, Note_on_c, 1, 35, 0
9, 131160, Note_on_c, 1, 31, 100
9, 131220, Note_on_c, 1, 31, 0
9, 131220, Note_on_c, 1, 33, 100
9, 131280, Note_on_c, 1, 33, 0
9, 131280, Note_on_c, 1, 28, 100
9, 131400, Note_on_c, 1, 28, 0
9, 131400, Note_on_c, 1, 35, 100
9, 131460, Note_on_c, 1, 35, 0
9, 131460, Note_on_c, 1, 38, 100
9, 131520, Note_on_c, 1, 38, 0
9, 131520, Note_on_c, 1, 35, 100
9, 131580, Note_on_c, 1, 35, 0
9, 131580, Note_on_c, 1, 40, 100
9, 131640, Note_on_c, 1, 40, 0
9, 131640, Note_on_c, 1, 35, 100
9, 131700, Note_on_c, 1, 35, 0
9, 131700, Note_on_c, 1, 38, 100
9, 131760, Note_on_c, 1, 38, 0
9, 131760, Note_on_c, 1, 33, 100
9, 131820, Note_on_c, 1, 33, 0
9, 131820, Note_on_c, 1, 35, 100
9, 131880, Note_on_c, 1, 35, 0
9, 131880, Note_on_c, 1, 31, 100
9, 131940, Note_on_c, 1, 31, 0
9, 131940, Note_on_c, 1, 33, 100
9, 132000, Note_on_c, 1, 33, 0
9, 132000, Note_on_c, 1, 28, 100
9, 132120, Note_on_c, 1, 28, 0
9, 132120, Note_on_c, 1, 35, 100
9, 132180, Note_on_c, 1, 35, 0
9, 132180, Note_on_c, 1, 38, 100
9, 132240, Note_on_c, 1, 38, 0
9, 132240, Note_on_c, 1, 35, 100
9, 132300, Note_on_c, 1, 35, 0
9, 132300, Note_on_c, 1, 40, 100
9, 132360, Note_on_c, 1, 40, 0
9, 132360, Note_on_c, 1, 35, 100
9, 132420, Note_on_c, 1, 35, 0
9, 132420, Note_on_c, 1, 38, 100
9, 132480, Note_on_c, 1, 38, 0
9, 132480, Note_on_c, 1, 33, 100
9, 132540, Note_on_c, 1, 33, 0
9, 132540, Note_on_c, 1, 35, 100
9, 132600, Note_on_c, 1, 35, 0
9, 132600, Note_on_c, 1, 31, 100
9, 132660, Note_on_c, 1, 31, 0
9, 132660, Note_on_c, 1, 33, 100
9, 132720, Note_on_c, 1, 33, 0
9, 132720, Note_on_c, 1, 28, 100
9, 132840, Note_on_c, 1, 28, 0
9, 132840, Note_on_c, 1, 35, 100
9, 132900, Note_on_c, 1, 35, 0
9, 132900, Note_on_c, 1, 38, 100
9, 132960, Note_on_c, 1, 38, 0
9, 132960, Note_on_c, 1, 35, 100
9, 133020, Note_on_c, 1, 35, 0
9, 133020, Note_on_c, 1, 40, 100
9, 133080, Note_on_c, 1, 40, 0
9, 133080, Note_on_c, 1, 35, 100
9, 133140, Note_on_c, 1, 35, 0
9, 133140, Note_on_c, 1, 38, 100
9, 133200, Note_on_c, 1, 38, 0
9, 133200, Note_on_c, 1, 33, 100
9, 133260, Note_on_c, 1, 33, 0
9, 133260, Note_on_c, 1, 35, 100
9, 133320, Note_on_c, 1, 35, 0
9, 133320, Note_on_c, 1, 31, 100
9, 133380, Note_on_c, 1, 31, 0
9, 133380, Note_on_c, 1, 33, 100
9, 133440, Note_on_c, 1, 33, 0
9, 133440, Note_on_c, 1, 28, 100
9, 133560, Note_on_c, 1, 28, 0
9, 133560, Note_on_c, 1, 35, 100
9, 133620, Note_on_c, 1, 35, 0
9, 133620, Note_on_c, 1, 38, 100
9, 133680, Note_on_c, 1, 38, 0
9, 133680, Note_on_c, 1, 35, 100
9, 133740, Note_on_c, 1, 35, 0
9, 133740, Note_on_c, 1, 40, 100
9, 133800, Note_on_c, 1, 40, 0
9, 133800, Note_on_c, 1, 35, 100
9, 133860, Note_on_c, 1, 35, 0
9, 133860, Note_on_c, 1, 38, 100
9, 133920, Note_on_c, 1, 38, 0
9, 133920, Note_on_c, 1, 33, 100
9, 133980, Note_on_c, 1, 33, 0
9, 133980, Note_on_c, 1, 35, 100
9, 134040, Note_on_c, 1, 35, 0
9, 134040, Note_on_c, 1, 31, 100
9, 134100, Note_on_c, 1, 31, 0
9, 134100, Note_on_c, 1, 33, 100
9, 134160, Note_on_c, 1, 33, 0
9, 134160, Note_on_c, 1, 28, 100
9, 134280, Note_on_c, 1, 28, 0
9, 134280, Note_on_c, 1, 35, 100
9, 134340, Note_on_c, 1, 35, 0
9, 134340, Note_on_c, 1, 38, 100
9, 134400, Note_on_c, 1, 38, 0
9, 134400, Note_on_c, 1, 35, 100
9, 134460, Note_on_c, 1, 35, 0
9, 134460, Note_on_c, 1, 40, 100
9, 134520, Note_on_c, 1, 40, 0
9, 134520, Note_on_c, 1, 35, 100
9, 134580, Note_on_c, 1, 35, 0
9, 134580, Note_on_c, 1, 38, 100
9, 134640, Note_on_c, 1, 38, 0
9, 134640, Note_on_c, 1, 33, 100
9, 134700, Note_on_c, 1, 33, 0
9, 134700, Note_on_c, 1, 35, 100
9, 134760, Note_on_c, 1, 35, 0
9, 134760, Note_on_c, 1, 31, 100
9, 134820, Note_on_c, 1, 31, 0
9, 134820, Note_on_c, 1, 33, 100
9, 134880, Note_on_c, 1, 33, 0
9, 134880, Note_on_c, 1, 28, 100
9, 135000, Note_on_c, 1, 28, 0
9, 135000, Note_on_c, 1, 35, 100
9, 135060, Note_on_c, 1, 35, 0
9, 135060, Note_on_c, 1, 38, 100
9, 135120, Note_on_c, 1, 38, 0
9, 135120, Note_on_c, 1, 35, 100
9, 135180, Note_on_c, 1, 35, 0
9, 135180, Note_on_c, 1, 40, 100
9, 135240, Note_on_c, 1, 40, 0
9, 135240, Note_on_c, 1, 35, 100
9, 135300, Note_on_c, 1, 35, 0
9, 135300, Note_on_c, 1, 38, 100
9, 135360, Note_on_c, 1, 38, 0
9, 135360, Note_on_c, 1, 33, 100
9, 135420, Note_on_c, 1, 33, 0
9, 135420, Note_on_c, 1, 35, 100
9, 135480, Note_on_c, 1, 35, 0
9, 135480, Note_on_c, 1, 31, 100
9, 135540, Note_on_c, 1, 31, 0
9, 135540, Note_on_c, 1, 33, 100
9, 135600, Note_on_c, 1, 33, 0
9, 135600, Note_on_c, 1, 28, 100
9, 135720, Note_on_c, 1, 28, 0
9, 135720, Note_on_c, 1, 35, 100
9, 135780, Note_on_c, 1, 35, 0
9, 135780, Note_on_c, 1, 38, 100
9, 135840, Note_on_c, 1, 38, 0
9, 135840, Note_on_c, 1, 35, 100
9, 135900, Note_on_c, 1, 35, 0
9, 135900, Note_on_c, 1, 40, 100
9, 135960, Note_on_c, 1, 40, 0
9, 135960, Note_on_c, 1, 35, 100
9, 136020, Note_on_c, 1, 35, 0
9, 136020, Note_on_c, 1, 38, 100
9, 136080, Note_on_c, 1, 38, 0
9, 136080, Note_on_c, 1, 33, 100
9, 136140, Note_on_c, 1, 33, 0
9, 136140, Note_on_c, 1, 35, 100
9, 136200, Note_on_c, 1, 35, 0
9, 136200, Note_on_c, 1, 31, 100
9, 136260, Note_on_c, 1, 31, 0
9, 136260, Note_on_c, 1, 33, 100
9, 136320, Note_on_c, 1, 33, 0
9, 136320, Note_on_c, 1, 28, 100
9, 136440, Note_on_c, 1, 28, 0
9, 136440, Note_on_c, 1, 35, 100
9, 136500, Note_on_c, 1, 35, 0
9, 136500, Note_on_c, 1, 38, 100
9, 136560, Note_on_c, 1, 38, 0
9, 136560, Note_on_c, 1, 35, 100
9, 136620, Note_on_c, 1, 35, 0
9, 136620, Note_on_c, 1, 40, 100
9, 136680, Note_on_c, 1, 40, 0
9, 136680, Note_on_c, 1, 35, 100
9, 136740, Note_on_c, 1, 35, 0
9, 136740, Note_on_c, 1, 38, 100
9, 136800, Note_on_c, 1, 38, 0
9, 136800, Note_on_c, 1, 33, 100
9, 136860, Note_on_c, 1, 33, 0
9, 136860, Note_on_c, 1, 35, 100
9, 136920, Note_on_c, 1, 35, 0
9, 136920, Note_on_c, 1, 31, 100
9, 136980, Note_on_c, 1, 31, 0
9, 136980, Note_on_c, 1, 33, 100
9, 137040, Note_on_c, 1, 33, 0
9, 137040, Note_on_c, 1, 28, 100
9, 137160, Note_on_c, 1, 28, 0
9, 137160, Note_on_c, 1, 35, 100
9, 137220, Note_on_c, 1, 35, 0
9, 137220, Note_on_c, 1, 38, 100
9, 137280, Note_on_c, 1, 38, 0
9, 137280, Note_on_c, 1, 35, 100
9, 137340, Note_on_c, 1, 35, 0
9, 137340, Note_on_c, 1, 40, 100
9, 137400, Note_on_c, 1, 40, 0
9, 137400, Note_on_c, 1, 35, 100
9, 137460, Note_on_c, 1, 35, 0
9, 137460, Note_on_c, 1, 38, 100
9, 137520, Note_on_c, 1, 38, 0
9, 137520, Note_on_c, 1, 33, 100
9, 137580, Note_on_c, 1, 33, 0
9, 137580, Note_on_c, 1, 35, 100
9, 137640, Note_on_c, 1, 35, 0
9, 137640, Note_on_c, 1, 31, 100
9, 137700, Note_on_c, 1, 31, 0
9, 137700, Note_on_c, 1, 33, 100
9, 137760, Note_on_c, 1, 33, 0
9, 137760, Note_on_c, 1, 28, 100
9, 137880, Note_on_c, 1, 28, 0
9, 137880, Note_on_c, 1, 35, 100
9, 137940, Note_on_c, 1, 35, 0
9, 137940, Note_on_c, 1, 38, 100
9, 138000, Note_on_c, 1, 38, 0
9, 138000, Note_on_c, 1, 35, 100
9, 138060, Note_on_c, 1, 35, 0
9, 138060, Note_on_c, 1, 40, 100
9, 138120, Note_on_c, 1, 40, 0
9, 138120, Note_on_c, 1, 35, 100
9, 138180, Note_on_c, 1, 35, 0
9, 138180, Note_on_c, 1, 38, 100
9, 138240, Note_on_c, 1, 38, 0
9, 138240, Note_on_c, 1, 33, 100
9, 138300, Note_on_c, 1, 33, 0
9, 138300, Note_on_c, 1, 35, 100
9, 138360, Note_on_c, 1, 35, 0
9, 138360, Note_on_c, 1, 31, 100
9, 138420, Note_on_c, 1, 31, 0
9, 138420, Note_on_c, 1, 33, 100
9, 138480, Note_on_c, 1, 33, 0
9, 138480, Note_on_c, 1, 28, 100
9, 138600, Note_on_c, 1, 28, 0
9, 138600, Note_on_c, 1, 35, 100
9, 138660, Note_on_c, 1, 35, 0
9, 138660, Note_on_c, 1, 38, 100
9, 138720, Note_on_c, 1, 38, 0
9, 138720, Note_on_c, 1, 35, 100
9, 138780, Note_on_c, 1, 35, 0
9, 138780, Note_on_c, 1, 40, 100
9, 138840, Note_on_c, 1, 40, 0
9, 138840, Note_on_c, 1, 35, 100
9, 138900, Note_on_c, 1, 35, 0
9, 138900, Note_on_c, 1, 38, 100
9, 138960, Note_on_c, 1, 38, 0
9, 138960, Note_on_c, 1, 33, 100
9, 139020, Note_on_c, 1, 33, 0
9, 139020, Note_on_c, 1, 35, 100
9, 139080, Note_on_c, 1, 35, 0
9, 139080, Note_on_c, 1, 31, 100
9, 139140, Note_on_c, 1, 31, 0
9, 139140, Note_on_c, 1, 33, 100
9, 139200, Note_on_c, 1, 33, 0
9, 139200, Note_on_c, 1, 28, 100
9, 139320, Note_on_c, 1, 28, 0
9, 139320, Note_on_c, 1, 35, 100
9, 139380, Note_on_c, 1, 35, 0
9, 139380, Note_on_c, 1, 38, 100
9, 139440, Note_on_c, 1, 38, 0
9, 139440, Note_on_c, 1, 35, 100
9, 139500, Note_on_c, 1, 35, 0
9, 139500, Note_on_c, 1, 40, 100
9, 139560, Note_on_c, 1, 40, 0
9, 139560, Note_on_c, 1, 35, 100
9, 139620, Note_on_c, 1, 35, 0
9, 139620, Note_on_c, 1, 38, 100
9, 139680, Note_on_c, 1, 38, 0
9, 139680, Note_on_c, 1, 33, 100
9, 139740, Note_on_c, 1, 33, 0
9, 139740, Note_on_c, 1, 35, 100
9, 139800, Note_on_c, 1, 35, 0
9, 139800, Note_on_c, 1, 31, 100
9, 139860, Note_on_c, 1, 31, 0
9, 139860, Note_on_c, 1, 33, 100
9, 139920, Note_on_c, 1, 33, 0
9, 139920, Note_on_c, 1, 28, 100
9, 140040, Note_on_c, 1, 28, 0
9, 140040, Note_on_c, 1, 35, 100
9, 140100, Note_on_c, 1, 35, 0
9, 140100, Note_on_c, 1, 38, 100
9, 140160, Note_on_c, 1, 38, 0
9, 140160, Note_on_c, 1, 35, 100
9, 140220, Note_on_c, 1, 35, 0
9, 140220, Note_on_c, 1, 40, 100
9, 140280, Note_on_c, 1, 40, 0
9, 140280, Note_on_c, 1, 35, 100
9, 140340, Note_on_c, 1, 35, 0
9, 140340, Note_on_c, 1, 38, 100
9, 140400, Note_on_c, 1, 38, 0
9, 140400, Note_on_c, 1, 33, 100
9, 140460, Note_on_c, 1, 33, 0
9, 140460, Note_on_c, 1, 35, 100
9, 140520, Note_on_c, 1, 35, 0
9, 140520, Note_on_c, 1, 31, 100
9, 140580, Note_on_c, 1, 31, 0
9, 140580, Note_on_c, 1, 33, 100
9, 140640, Note_on_c, 1, 33, 0
9, 140640, Note_on_c, 1, 28, 100
9, 140760, Note_on_c, 1, 28, 0
9, 140760, Note_on_c, 1, 35, 100
9, 140820, Note_on_c, 1, 35, 0
9, 140820, Note_on_c, 1, 38, 100
9, 140880, Note_on_c, 1, 38, 0
9, 140880, Note_on_c, 1, 35, 100
9, 140940, Note_on_c, 1, 35, 0
9, 140940, Note_on_c, 1, 40, 100
9, 141000, Note_on_c, 1, 40, 0
9, 141000, Note_on_c, 1, 35, 100
9, 141060, Note_on_c, 1, 35, 0
9, 141060, Note_on_c, 1, 38, 100
9, 141120, Note_on_c, 1, 38, 0
9, 141120, Note_on_c, 1, 33, 100
9, 141180, Note_on_c, 1, 33, 0
9, 141180, Note_on_c, 1, 35, 100
9, 141240, Note_on_c, 1, 35, 0
9, 141240, Note_on_c, 1, 31, 100
9, 141300, Note_on_c, 1, 31, 0
9, 141300, Note_on_c, 1, 33, 100
9, 141360, Note_on_c, 1, 33, 0
9, 141360, Note_on_c, 1, 26, 100
9, 141480, Note_on_c, 1, 26, 0
9, 141480, Note_on_c, 1, 28, 100
9, 141600, Note_on_c, 1, 28, 0
9, 141600, Note_on_c, 1, 28, 100
9, 141660, Note_on_c, 1, 28, 0
9, 141660, Note_on_c, 1, 40, 100
9, 141720, Note_on_c, 1, 40, 0
9, 141720, Note_on_c, 1, 40, 100
9, 141780, Note_on_c, 1, 40, 0
9, 141780, Note_on_c, 1, 28, 100
9, 141840, Note_on_c, 1, 28, 0
9, 141840, Note_on_c, 1, 28, 100
9, 141900, Note_on_c, 1, 28, 0
9, 141900, Note_on_c, 1, 40, 100
9, 141960, Note_on_c, 1, 40, 0
9, 141960, Note_on_c, 1, 40, 100
9, 142020, Note_on_c, 1, 40, 0
9, 142020, Note_on_c, 1, 28, 100
9, 142080, Note_on_c, 1, 28, 0
9, 142080, Note_on_c, 1, 28, 100
9, 142140, Note_on_c, 1, 28, 0
9, 142140, Note_on_c, 1, 40, 100
9, 142200, Note_on_c, 1, 40, 0
9, 142200, Note_on_c, 1, 43, 100
9, 142320, Note_on_c, 1, 43, 0
9, 142320, Note_on_c, 1, 43, 100
9, 142380, Note_on_c, 1, 43, 0
9, 142380, Note_on_c, 1, 55, 100
9, 142440, Note_on_c, 1, 55, 0
9, 142440, Note_on_c, 1, 55, 100
9, 142500, Note_on_c, 1, 55, 0
9, 142500, Note_on_c, 1, 43, 100
9, 142560, Note_on_c, 1, 43, 0
9, 142560, Note_on_c, 1, 43, 100
9, 142620, Note_on_c, 1, 43, 0
9, 142620, Note_on_c, 1, 55, 100
9, 142680, Note_on_c, 1, 55, 0
9, 142680, Note_on_c, 1, 55, 100
9, 142740, Note_on_c, 1, 55, 0
9, 142740, Note_on_c, 1, 43, 100
9, 142800, Note_on_c, 1, 43, 0
9, 142800, Note_on_c, 1, 43, 100
9, 142860, Note_on_c, 1, 43, 0
9, 142860, Note_on_c, 1, 55, 100
9, 142920, Note_on_c, 1, 55, 0
9, 142920, Note_on_c, 1, 57, 100
9, 143040, Note_on_c, 1, 57, 0
9, 143040, Note_on_c, 1, 45, 100
9, 143100, Note_on_c, 1, 45, 0
9, 143100, Note_on_c, 1, 57, 100
9, 143160, Note_on_c, 1, 57, 0
9, 143160, Note_on_c, 1, 57, 100
9, 143220, Note_on_c, 1, 57, 0
9, 143220, Note_on_c, 1, 45, 100
9, 143280, Note_on_c, 1, 45, 0
9, 143280, Note_on_c, 1, 45, 100
9, 143340, Note_on_c, 1, 45, 0
9, 143340, Note_on_c, 1, 57, 100
9, 143400, Note_on_c, 1, 57, 0
9, 143400, Note_on_c, 1, 57, 100
9, 143460, Note_on_c, 1, 57, 0
9, 143460, Note_on_c, 1, 45, 100
9, 143520, Note_on_c, 1, 45, 0
9, 143520, Note_on_c, 1, 45, 100
9, 143580, Note_on_c, 1, 45, 0
9, 143580, Note_on_c, 1, 57, 100
9, 143640, Note_on_c, 1, 57, 0
9, 143640, Note_on_c, 1, 45, 100
9, 143760, Note_on_c, 1, 45, 0
9, 143760, Note_on_c, 1, 45, 100
9, 143820, Note_on_c, 1, 45, 0
9, 143820, Note_on_c, 1, 57, 100
9, 143880, Note_on_c, 1, 57, 0
9, 143880, Note_on_c, 1, 57, 100
9, 143940, Note_on_c, 1, 57, 0
9, 143940, Note_on_c, 1, 45, 100
9, 144000, Note_on_c, 1, 45, 0
9, 144000, Note_on_c, 1, 45, 100
9, 144060, Note_on_c, 1, 45, 0
9, 144060, Note_on_c, 1, 57, 100
9, 144120, Note_on_c, 1, 57, 0
9, 144120, Note_on_c, 1, 57, 100
9, 144180, Note_on_c, 1, 57, 0
9, 144180, Note_on_c, 1, 45, 100
9, 144240, Note_on_c, 1, 45, 0
9, 144240, Note_on_c, 1, 45, 100
9, 144300, Note_on_c, 1, 45, 0
9, 144300, Note_on_c, 1, 45, 100
9, 144360, Note_on_c, 1, 45, 0
9, 144360, Note_on_c, 1, 47, 100
9, 144480, Note_on_c, 1, 47, 0
9, 144480, Note_on_c, 1, 47, 100
9, 144540, Note_on_c, 1, 47, 0
9, 144540, Note_on_c, 1, 47, 100
9, 144600, Note_on_c, 1, 47, 0
9, 144600, Note_on_c, 1, 47, 100
9, 144660, Note_on_c, 1, 47, 0
9, 144660, Note_on_c, 1, 47, 100
9, 144720, Note_on_c, 1, 47, 0
9, 144720, Note_on_c, 1, 47, 100
9, 144780, Note_on_c, 1, 47, 0
9, 144780, Note_on_c, 1, 47, 100
9, 144840, Note_on_c, 1, 47, 0
9, 144840, Note_on_c, 1, 47, 100
9, 144900, Note_on_c, 1, 47, 0
9, 144900, Note_on_c, 1, 47, 100
9, 144960, Note_on_c, 1, 47, 0
9, 144960, Note_on_c, 1, 47, 100
9, 145020, Note_on_c, 1, 47, 0
9, 145020, Note_on_c, 1, 47, 100
9, 145080, Note_on_c, 1, 47, 0
9, 145080, Note_on_c, 1, 48, 100
9, 145200, Note_on_c, 1, 48, 0
9, 145200, Note_on_c, 1, 48, 100
9, 145260, Note_on_c, 1, 48, 0
9, 145260, Note_on_c, 1, 48, 100
9, 145320, Note_on_c, 1, 48, 0
9, 145320, Note_on_c, 1, 48, 100
9, 145380, Note_on_c, 1, 48, 0
9, 145380, Note_on_c, 1, 48, 100
9, 145440, Note_on_c, 1, 48, 0
9, 145440, Note_on_c, 1, 48, 100
9, 145500, Note_on_c, 1, 48, 0
9, 145500, Note_on_c, 1, 48, 100
9, 145560, Note_on_c, 1, 48, 0
9, 145560, Note_on_c, 1, 48, 100
9, 145620, Note_on_c, 1, 48, 0
9, 145620, Note_on_c, 1, 48, 100
9, 145680, Note_on_c, 1, 48, 0
9, 145680, Note_on_c, 1, 48, 100
9, 145740, Note_on_c, 1, 48, 0
9, 145740, Note_on_c, 1, 48, 100
9, 145800, Note_on_c, 1, 48, 0
9, 145800, Note_on_c, 1, 50, 100
9, 145920, Note_on_c, 1, 50, 0
9, 145920, Note_on_c, 1, 50, 100
9, 145980, Note_on_c, 1, 50, 0
9, 145980, Note_on_c, 1, 50, 100
9, 146040, Note_on_c, 1, 50, 0
9, 146040, Note_on_c, 1, 50, 100
9, 146100, Note_on_c, 1, 50, 0
9, 146100, Note_on_c, 1, 50, 100
9, 146160, Note_on_c, 1, 50, 0
9, 146160, Note_on_c, 1, 50, 100
9, 146220, Note_on_c, 1, 50, 0
9, 146220, Note_on_c, 1, 50, 100
9, 146280, Note_on_c, 1, 50, 0
9, 146280, Note_on_c, 1, 50, 100
9, 146340, Note_on_c, 1, 50, 0
9, 146340, Note_on_c, 1, 50, 100
9, 146400, Note_on_c, 1, 50, 0
9, 146400, Note_on_c, 1, 50, 100
9, 146460, Note_on_c, 1, 50, 0
9, 146460, Note_on_c, 1, 50, 100
9, 146520, Note_on_c, 1, 50, 0
9, 146520, Note_on_c, 1, 49, 100
9, 146640, Note_on_c, 1, 49, 0
9, 146640, Note_on_c, 1, 49, 100
9, 146700, Note_on_c, 1, 49, 0
9, 146700, Note_on_c, 1, 49, 100
9, 146760, Note_on_c, 1, 49, 0
9, 146760, Note_on_c, 1, 49, 100
9, 146820, Note_on_c, 1, 49, 0
9, 146820, Note_on_c, 1, 49, 100
9, 146880, Note_on_c, 1, 49, 0
9, 146880, Note_on_c, 1, 49, 100
9, 146940, Note_on_c, 1, 49, 0
9, 146940, Note_on_c, 1, 49, 100
9, 147000, Note_on_c, 1, 49, 0
9, 147000, Note_on_c, 1, 49, 100
9, 147060, Note_on_c, 1, 49, 0
9, 147060, Note_on_c, 1, 49, 100
9, 147120, Note_on_c, 1, 49, 0
9, 147120, Note_on_c, 1, 49, 100
9, 147180, Note_on_c, 1, 49, 0
9, 147180, Note_on_c, 1, 49, 100
9, 147240, Note_on_c, 1, 49, 0
9, 147240, Note_on_c, 1, 50, 100
9, 147360, Note_on_c, 1, 50, 0
9, 147360, Note_on_c, 1, 52, 100
9, 147720, Note_on_c, 1, 52, 0
9, 147720, End_track
10, 0, Start_track
10, 0, MIDI_port, 0
10, 0, Title_t, "Piano"
10, 0, Program_c, 0, 0
10, 0, Control_c, 0, 64, 127
10, 0, Note_on_c, 0, 52, 65
10, 0, Note_on_c, 0, 59, 65
10, 0, Note_on_c, 0, 64, 80
10, 0, Note_on_c, 0, 68, 100
10, 30, Note_on_c, 0, 56, 65
10, 60, Note_on_c, 0, 56, 0
10, 60, Note_on_c, 0, 59, 65
10, 90, Note_on_c, 0, 59, 0
10, 90, Note_on_c, 0, 68, 0
10, 90, Note_on_c, 0, 52, 0
10, 90, Note_on_c, 0, 59, 0
10, 90, Note_on_c, 0, 64, 0
10, 90, Note_on_c, 0, 64, 70
10, 90, Note_on_c, 0, 71, 100
10, 120, Note_on_c, 0, 56, 65
10, 150, Note_on_c, 0, 56, 0
10, 150, Note_on_c, 0, 64, 0
10, 150, Note_on_c, 0, 59, 65
10, 180, Note_on_c, 0, 59, 0
10, 180, Note_on_c, 0, 71, 0
10, 180, Note_on_c, 0, 64, 65
10, 180, Note_on_c, 0, 76, 100
10, 210, Note_on_c, 0, 66, 65
10, 210, Control_c, 0, 64, 37
10, 240, Note_on_c, 0, 66, 0
10, 240, Note_on_c, 0, 76, 0
10, 240, Note_on_c, 0, 64, 0
10, 240, Control_c, 0, 64, 127
10, 240, Note_on_c, 0, 62, 80
10, 240, Note_on_c, 0, 47, 65
10, 240, Note_on_c, 0, 74, 100
10, 270, Note_on_c, 0, 62, 65
10, 300, Note_on_c, 0, 62, 0
10, 300, Note_on_c, 0, 66, 65
10, 330, Note_on_c, 0, 74, 0
10, 330, Note_on_c, 0, 62, 0
10, 330, Note_on_c, 0, 71, 100
10, 360, Note_on_c, 0, 66, 0
10, 360, Note_on_c, 0, 59, 65
10, 390, Note_on_c, 0, 59, 0
10, 390, Note_on_c, 0, 62, 65
10, 420, Note_on_c, 0, 62, 0
10, 420, Note_on_c, 0, 71, 0
10, 420, Note_on_c, 0, 66, 110
10, 450, Control_c, 0, 64, 0
10, 480, Note_on_c, 0, 66, 0
10, 480, Note_on_c, 0, 47, 0
10, 480, Note_on_c, 0, 68, 100
10, 480, Control_c, 0, 64, 127
10, 480, Note_on_c, 0, 52, 65
10, 480, Note_on_c, 0, 59, 65
10, 480, Note_on_c, 0, 64, 80
10, 510, Note_on_c, 0, 56, 65
10, 540, Note_on_c, 0, 56, 0
10, 540, Note_on_c, 0, 59, 65
10, 570, Note_on_c, 0, 59, 0
10, 570, Note_on_c, 0, 64, 0
10, 570, Note_on_c, 0, 68, 0
10, 570, Note_on_c, 0, 52, 0
10, 570, Note_on_c, 0, 59, 0
10, 570, Note_on_c, 0, 71, 100
10, 570, Note_on_c, 0, 64, 70
10, 600, Note_on_c, 0, 56, 65
10, 630, Note_on_c, 0, 56, 0
10, 630, Note_on_c, 0, 64, 0
10, 630, Note_on_c, 0, 59, 65
10, 660, Note_on_c, 0, 59, 0
10, 660, Note_on_c, 0, 71, 0
10, 660, Note_on_c, 0, 76, 100
10, 660, Note_on_c, 0, 64, 70
10, 690, Note_on_c, 0, 66, 65
10, 690, Control_c, 0, 64, 0
10, 720, Note_on_c, 0, 66, 0
10, 720, Note_on_c, 0, 64, 0
10, 720, Note_on_c, 0, 76, 0
10, 720, Note_on_c, 0, 79, 100
10, 720, Control_c, 0, 64, 127
10, 720, Note_on_c, 0, 52, 65
10, 720, Note_on_c, 0, 55, 65
10, 720, Note_on_c, 0, 60, 80
10, 750, Note_on_c, 0, 60, 0
10, 750, Note_on_c, 0, 64, 65
10, 780, Note_on_c, 0, 64, 0
10, 780, Note_on_c, 0, 67, 65
10, 810, Note_on_c, 0, 67, 0
10, 810, Note_on_c, 0, 79, 0
10, 810, Note_on_c, 0, 78, 100
10, 810, Note_on_c, 0, 60, 70
10, 840, Note_on_c, 0, 60, 0
10, 840, Note_on_c, 0, 64, 65
10, 870, Note_on_c, 0, 64, 0
10, 870, Note_on_c, 0, 67, 65
10, 900, Note_on_c, 0, 78, 0
10, 900, Note_on_c, 0, 76, 100
10, 930, Note_on_c, 0, 67, 0
10, 930, Control_c, 0, 64, 0
10, 960, Note_on_c, 0, 52, 0
10, 960, Note_on_c, 0, 55, 0
10, 960, Note_on_c, 0, 76, 0
10, 960, Control_c, 0, 64, 127
10, 960, Note_on_c, 0, 55, 65
10, 960, Note_on_c, 0, 50, 65
10, 960, Note_on_c, 0, 74, 100
10, 990, Note_on_c, 0, 59, 65
10, 1020, Note_on_c, 0, 59, 0
10, 1020, Note_on_c, 0, 62, 65
10, 1050, Note_on_c, 0, 62, 0
10, 1050, Note_on_c, 0, 74, 0
10, 1050, Note_on_c, 0, 55, 0
10, 1050, Note_on_c, 0, 59, 65
10, 1050, Note_on_c, 0, 67, 65
10, 1050, Note_on_c, 0, 71, 100
10, 1080, Note_on_c, 0, 67, 0
10, 1080, Note_on_c, 0, 50, 0
10, 1080, Note_on_c, 0, 59, 0
10, 1080, Note_on_c, 0, 62, 70
10, 1110, Note_on_c, 0, 62, 0
10, 1110, Note_on_c, 0, 67, 65
10, 1140, Note_on_c, 0, 71, 0
10, 1140, Note_on_c, 0, 50, 65
10, 1140, Note_on_c, 0, 59, 65
10, 1140, Note_on_c, 0, 62, 65
10, 1170, Note_on_c, 0, 67, 0
10, 1170, Note_on_c, 0, 67, 65
10, 1200, Note_on_c, 0, 67, 0
10, 1200, Note_on_c, 0, 62, 0
10, 1200, Note_on_c, 0, 59, 0
10, 1200, Note_on_c, 0, 50, 0
10, 1200, Control_c, 0, 64, 127
10, 1200, Control_c, 0, 64, 0
10, 1200, Note_on_c, 0, 53, 65
10, 1200, Note_on_c, 0, 58, 65
10, 1200, Note_on_c, 0, 74, 100
10, 1230, Note_on_c, 0, 53, 65
10, 1260, Note_on_c, 0, 62, 65
10, 1290, Note_on_c, 0, 62, 0
10, 1290, Note_on_c, 0, 74, 0
10, 1290, Note_on_c, 0, 53, 0
10, 1290, Note_on_c, 0, 64, 65
10, 1290, Note_on_c, 0, 76, 100
10, 1320, Note_on_c, 0, 64, 0
10, 1320, Note_on_c, 0, 53, 0
10, 1320, Note_on_c, 0, 58, 0
10, 1320, Note_on_c, 0, 58, 65
10, 1350, Note_on_c, 0, 62, 65
10, 1380, Note_on_c, 0, 62, 0
10, 1380, Note_on_c, 0, 76, 0
10, 1380, Note_on_c, 0, 64, 65
10, 1380, Note_on_c, 0, 77, 100
10, 1410, Note_on_c, 0, 64, 0
10, 1410, Control_c, 0, 64, 0
10, 1410, Note_on_c, 0, 65, 65
10, 1440, Note_on_c, 0, 65, 0
10, 1440, Note_on_c, 0, 77, 0
10, 1440, Note_on_c, 0, 58, 0
10, 1440, Control_c, 0, 64, 127
10, 1440, Note_on_c, 0, 57, 65
10, 1440, Note_on_c, 0, 65, 100
10, 1440, Note_on_c, 0, 72, 100
10, 1470, Note_on_c, 0, 60, 65
10, 1500, Note_on_c, 0, 60, 0
10, 1500, Note_on_c, 0, 65, 65
10, 1530, Note_on_c, 0, 65, 0
10, 1530, Note_on_c, 0, 72, 0
10, 1530, Note_on_c, 0, 65, 0
10, 1530, Note_on_c, 0, 69, 100
10, 1590, Note_on_c, 0, 60, 65
10, 1620, Note_on_c, 0, 60, 0
10, 1620, Note_on_c, 0, 69, 0
10, 1620, Note_on_c, 0, 57, 0
10, 1620, Note_on_c, 0, 60, 70
10, 1620, Note_on_c, 0, 48, 65
10, 1620, Note_on_c, 0, 65, 70
10, 1620, Note_on_c, 0, 64, 80
10, 1620, Note_on_c, 0, 67, 100
10, 1650, Control_c, 0, 64, 0
10, 1680, Note_on_c, 0, 67, 0
10, 1680, Note_on_c, 0, 65, 0
10, 1680, Note_on_c, 0, 60, 0
10, 1680, Note_on_c, 0, 48, 0
10, 1680, Note_on_c, 0, 64, 0
10, 1680, Note_on_c, 0, 62, 70
10, 1680, Control_c, 0, 64, 127
10, 1680, Note_on_c, 0, 50, 65
10, 1680, Note_on_c, 0, 64, 70
10, 1680, Note_on_c, 0, 66, 100
10, 1680, Note_on_c, 0, 69, 100
10, 1800, Note_on_c, 0, 69, 0
10, 1800, Note_on_c, 0, 64, 0
10, 1800, Note_on_c, 0, 62, 0
10, 1800, Note_on_c, 0, 50, 0
10, 1800, Note_on_c, 0, 66, 0
10, 1800, Note_on_c, 0, 62, 100
10, 1830, Note_on_c, 0, 57, 65
10, 1860, Note_on_c, 0, 57, 0
10, 1860, Note_on_c, 0, 38, 80
10, 1890, Control_c, 0, 64, 0
10, 1890, Note_on_c, 0, 52, 65
10, 1920, Note_on_c, 0, 52, 0
10, 1920, Note_on_c, 0, 38, 0
10, 1920, Note_on_c, 0, 62, 0
10, 1920, Note_on_c, 0, 28, 120
10, 1920, Control_c, 0, 64, 127
10, 1920, Note_on_c, 0, 52, 65
10, 1920, Note_on_c, 0, 59, 65
10, 1920, Note_on_c, 0, 64, 100
10, 1920, Note_on_c, 0, 68, 100
10, 1950, Note_on_c, 0, 56, 65
10, 1980, Note_on_c, 0, 56, 0
10, 1980, Note_on_c, 0, 59, 65
10, 2010, Note_on_c, 0, 59, 0
10, 2010, Note_on_c, 0, 68, 0
10, 2010, Note_on_c, 0, 59, 0
10, 2010, Note_on_c, 0, 64, 0
10, 2010, Note_on_c, 0, 52, 0
10, 2010, Note_on_c, 0, 64, 70
10, 2010, Note_on_c, 0, 71, 100
10, 2040, Note_on_c, 0, 56, 65
10, 2070, Note_on_c, 0, 56, 0
10, 2070, Note_on_c, 0, 64, 0
10, 2070, Note_on_c, 0, 59, 65
10, 2100, Note_on_c, 0, 59, 0
10, 2100, Note_on_c, 0, 71, 0
10, 2100, Note_on_c, 0, 64, 65
10, 2100, Note_on_c, 0, 76, 100
10, 2130, Note_on_c, 0, 66, 65
10, 2130, Control_c, 0, 64, 0
10, 2160, Note_on_c, 0, 66, 0
10, 2160, Note_on_c, 0, 28, 0
10, 2160, Note_on_c, 0, 64, 0
10, 2160, Note_on_c, 0, 76, 0
10, 2160, Note_on_c, 0, 35, 80
10, 2160, Control_c, 0, 64, 127
10, 2160, Note_on_c, 0, 62, 100
10, 2160, Note_on_c, 0, 47, 65
10, 2160, Note_on_c, 0, 74, 100
10, 2190, Note_on_c, 0, 62, 65
10, 2220, Note_on_c, 0, 62, 0
10, 2220, Note_on_c, 0, 66, 65
10, 2250, Note_on_c, 0, 62, 0
10, 2250, Note_on_c, 0, 74, 0
10, 2250, Note_on_c, 0, 71, 100
10, 2280, Note_on_c, 0, 66, 0
10, 2280, Note_on_c, 0, 59, 65
10, 2310, Note_on_c, 0, 59, 0
10, 2310, Note_on_c, 0, 62, 65
10, 2340, Note_on_c, 0, 62, 0
10, 2340, Note_on_c, 0, 71, 0
10, 2340, Note_on_c, 0, 66, 110
10, 2370, Note_on_c, 0, 62, 55
10, 2370, Control_c, 0, 64, 0
10, 2400, Note_on_c, 0, 62, 0
10, 2400, Note_on_c, 0, 35, 0
10, 2400, Note_on_c, 0, 47, 0
10, 2400, Note_on_c, 0, 66, 0
10, 2400, Note_on_c, 0, 68, 100
10, 2400, Note_on_c, 0, 28, 80
10, 2400, Control_c, 0, 64, 127
10, 2400, Note_on_c, 0, 52, 65
10, 2400, Note_on_c, 0, 59, 65
10, 2400, Note_on_c, 0, 64, 100
10, 2430, Note_on_c, 0, 56, 65
10, 2460, Note_on_c, 0, 56, 0
10, 2460, Note_on_c, 0, 59, 65
10, 2490, Note_on_c, 0, 59, 0
10, 2490, Note_on_c, 0, 64, 0
10, 2490, Note_on_c, 0, 52, 0
10, 2490, Note_on_c, 0, 59, 0
10, 2490, Note_on_c, 0, 68, 0
10, 2490, Note_on_c, 0, 71, 100
10, 2490, Note_on_c, 0, 64, 70
10, 2520, Control_c, 0, 64, 127
10, 2520, Note_on_c, 0, 56, 65
10, 2550, Note_on_c, 0, 56, 0
10, 2550, Note_on_c, 0, 64, 0
10, 2550, Note_on_c, 0, 59, 65
10, 2580, Note_on_c, 0, 59, 0
10, 2580, Note_on_c, 0, 71, 0
10, 2580, Note_on_c, 0, 76, 100
10, 2580, Note_on_c, 0, 64, 70
10, 2610, Note_on_c, 0, 66, 65
10, 2610, Control_c, 0, 64, 0
10, 2640, Note_on_c, 0, 66, 0
10, 2640, Note_on_c, 0, 28, 0
10, 2640, Note_on_c, 0, 76, 0
10, 2640, Note_on_c, 0, 64, 0
10, 2640, Note_on_c, 0, 79, 100
10, 2640, Note_on_c, 0, 36, 80
10, 2640, Control_c, 0, 64, 127
10, 2640, Note_on_c, 0, 52, 65
10, 2640, Note_on_c, 0, 55, 65
10, 2640, Note_on_c, 0, 60, 70
10, 2670, Note_on_c, 0, 60, 0
10, 2670, Note_on_c, 0, 64, 65
10, 2700, Note_on_c, 0, 64, 0
10, 2700, Note_on_c, 0, 67, 65
10, 2730, Note_on_c, 0, 67, 0
10, 2730, Note_on_c, 0, 79, 0
10, 2730, Note_on_c, 0, 78, 100
10, 2730, Note_on_c, 0, 60, 65
10, 2760, Note_on_c, 0, 60, 0
10, 2760, Note_on_c, 0, 64, 65
10, 2790, Note_on_c, 0, 64, 0
10, 2790, Note_on_c, 0, 67, 65
10, 2820, Note_on_c, 0, 78, 0
10, 2820, Note_on_c, 0, 76, 100
10, 2850, Note_on_c, 0, 67, 0
10, 2850, Note_on_c, 0, 64, 65
10, 2850, Control_c, 0, 64, 0
10, 2880, Note_on_c, 0, 64, 0
10, 2880, Note_on_c, 0, 76, 0
10, 2880, Note_on_c, 0, 55, 0
10, 2880, Note_on_c, 0, 52, 0
10, 2880, Note_on_c, 0, 36, 0
10, 2880, Control_c, 0, 64, 127
10, 2880, Note_on_c, 0, 55, 65
10, 2880, Note_on_c, 0, 50, 65
10, 2880, Note_on_c, 0, 74, 100
10, 2880, Note_on_c, 0, 31, 80
10, 2910, Note_on_c, 0, 59, 65
10, 2940, Note_on_c, 0, 59, 0
10, 2940, Note_on_c, 0, 62, 65
10, 2970, Note_on_c, 0, 62, 0
10, 2970, Note_on_c, 0, 74, 0
10, 2970, Note_on_c, 0, 55, 0
10, 2970, Note_on_c, 0, 59, 65
10, 2970, Note_on_c, 0, 67, 70
10, 2970, Note_on_c, 0, 71, 100
10, 3000, Note_on_c, 0, 67, 0
10, 3000, Note_on_c, 0, 59, 0
10, 3000, Note_on_c, 0, 50, 0
10, 3000, Note_on_c, 0, 62, 65
10, 3030, Note_on_c, 0, 62, 0
10, 3030, Note_on_c, 0, 67, 65
10, 3060, Note_on_c, 0, 71, 0
10, 3060, Note_on_c, 0, 50, 65
10, 3060, Note_on_c, 0, 59, 65
10, 3060, Note_on_c, 0, 62, 70
10, 3090, Note_on_c, 0, 67, 0
10, 3120, Note_on_c, 0, 59, 0
10, 3120, Note_on_c, 0, 31, 0
10, 3120, Note_on_c, 0, 50, 0
10, 3120, Note_on_c, 0, 62, 0
10, 3120, Control_c, 0, 64, 127
10, 3120, Control_c, 0, 64, 0
10, 3120, Note_on_c, 0, 53, 65
10, 3120, Note_on_c, 0, 58, 65
10, 3120, Note_on_c, 0, 74, 100
10, 3120, Note_on_c, 0, 34, 80
10, 3150, Note_on_c, 0, 53, 65
10, 3180, Note_on_c, 0, 62, 65
10, 3210, Note_on_c, 0, 62, 0
10, 3210, Note_on_c, 0, 74, 0
10, 3210, Note_on_c, 0, 53, 0
10, 3210, Note_on_c, 0, 64, 65
10, 3210, Note_on_c, 0, 76, 100
10, 3240, Note_on_c, 0, 64, 0
10, 3240, Note_on_c, 0, 58, 0
10, 3240, Note_on_c, 0, 53, 0
10, 3240, Note_on_c, 0, 58, 65
10, 3270, Note_on_c, 0, 62, 65
10, 3300, Note_on_c, 0, 62, 0
10, 3300, Note_on_c, 0, 76, 0
10, 3300, Note_on_c, 0, 64, 65
10, 3300, Note_on_c, 0, 77, 100
10, 3330, Note_on_c, 0, 64, 0
10, 3330, Control_c, 0, 64, 0
10, 3330, Note_on_c, 0, 65, 65
10, 3360, Note_on_c, 0, 65, 0
10, 3360, Note_on_c, 0, 77, 0
10, 3360, Note_on_c, 0, 58, 0
10, 3360, Note_on_c, 0, 34, 0
10, 3360, Control_c, 0, 64, 127
10, 3360, Note_on_c, 0, 57, 65
10, 3360, Note_on_c, 0, 65, 100
10, 3360, Note_on_c, 0, 72, 100
10, 3360, Note_on_c, 0, 33, 80
10, 3390, Note_on_c, 0, 60, 65
10, 3420, Note_on_c, 0, 60, 0
10, 3420, Note_on_c, 0, 65, 65
10, 3450, Note_on_c, 0, 65, 0
10, 3450, Note_on_c, 0, 72, 0
10, 3450, Note_on_c, 0, 65, 0
10, 3450, Note_on_c, 0, 69, 100
10, 3510, Note_on_c, 0, 60, 65
10, 3540, Note_on_c, 0, 60, 0
10, 3540, Note_on_c, 0, 69, 0
10, 3540, Note_on_c, 0, 48, 65
10, 3540, Note_on_c, 0, 65, 80
10, 3540, Note_on_c, 0, 64, 100
10, 3540, Note_on_c, 0, 67, 100
10, 3570, Control_c, 0, 64, 0
10, 3600, Note_on_c, 0, 67, 0
10, 3600, Note_on_c, 0, 57, 0
10, 3600, Note_on_c, 0, 48, 0
10, 3600, Note_on_c, 0, 33, 0
10, 3600, Note_on_c, 0, 64, 0
10, 3600, Note_on_c, 0, 65, 0
10, 7800, Control_c, 0, 64, 0
10, 7920, Control_c, 0, 64, 127
10, 7920, Note_on_c, 0, 50, 75
10, 7920, Note_on_c, 0, 62, 75
10, 7920, Note_on_c, 0, 57, 75
10, 8160, Note_on_c, 0, 62, 0
10, 8160, Note_on_c, 0, 66, 75
10, 8160, Note_on_c, 0, 74, 75
10, 8280, Note_on_c, 0, 74, 0
10, 8280, Note_on_c, 0, 66, 0
10, 8280, Note_on_c, 0, 62, 75
10, 8280, Note_on_c, 0, 69, 75
10, 8340, Control_c, 0, 64, 0
10, 8400, Note_on_c, 0, 69, 0
10, 8400, Note_on_c, 0, 50, 0
10, 8400, Note_on_c, 0, 57, 0
10, 8400, Note_on_c, 0, 62, 0
10, 8400, Control_c, 0, 64, 127
10, 8400, Note_on_c, 0, 57, 75
10, 8400, Note_on_c, 0, 64, 75
10, 8400, Note_on_c, 0, 69, 75
10, 8400, Note_on_c, 0, 45, 75
10, 8640, Note_on_c, 0, 69, 0
10, 8640, Note_on_c, 0, 64, 0
10, 8640, Note_on_c, 0, 64, 75
10, 8640, Note_on_c, 0, 72, 75
10, 8730, Note_on_c, 0, 72, 0
10, 8730, Note_on_c, 0, 64, 0
10, 8730, Note_on_c, 0, 62, 75
10, 8730, Note_on_c, 0, 71, 75
10, 8820, Note_on_c, 0, 71, 0
10, 8820, Note_on_c, 0, 62, 0
10, 8820, Note_on_c, 0, 59, 75
10, 8820, Note_on_c, 0, 67, 75
10, 8850, Control_c, 0, 64, 0
10, 8880, Note_on_c, 0, 67, 0
10, 8880, Note_on_c, 0, 45, 0
10, 8880, Note_on_c, 0, 57, 0
10, 8880, Note_on_c, 0, 59, 0
10, 8880, Note_on_c, 0, 50, 75
10, 8880, Note_on_c, 0, 66, 75
10, 8880, Note_on_c, 0, 57, 75
10, 8880, Note_on_c, 0, 62, 75
10, 9120, Note_on_c, 0, 62, 0
10, 9120, Note_on_c, 0, 50, 0
10, 9120, Note_on_c, 0, 66, 0
10, 9120, Note_on_c, 0, 57, 0
10, 9120, Note_on_c, 0, 54, 75
10, 9120, Note_on_c, 0, 66, 75
10, 9120, Note_on_c, 0, 62, 75
10, 9120, Note_on_c, 0, 47, 75
10, 9360, Note_on_c, 0, 47, 0
10, 9360, Note_on_c, 0, 54, 0
10, 9360, Note_on_c, 0, 66, 0
10, 9360, Note_on_c, 0, 62, 0
10, 9360, Note_on_c, 0, 64, 75
10, 9360, Note_on_c, 0, 48, 75
10, 9360, Note_on_c, 0, 55, 75
10, 9360, Note_on_c, 0, 60, 75
10, 9360, Control_c, 0, 64, 127
10, 9600, Note_on_c, 0, 60, 0
10, 9600, Note_on_c, 0, 64, 0
10, 9600, Note_on_c, 0, 48, 0
10, 9600, Note_on_c, 0, 55, 0
10, 9600, Note_on_c, 0, 60, 75
10, 9600, Note_on_c, 0, 79, 75
10, 9600, Note_on_c, 0, 72, 75
10, 9660, Note_on_c, 0, 72, 0
10, 9660, Note_on_c, 0, 79, 0
10, 9660, Note_on_c, 0, 60, 0
10, 9660, Note_on_c, 0, 72, 75
10, 9660, Note_on_c, 0, 74, 75
10, 9660, Note_on_c, 0, 62, 75
10, 9720, Note_on_c, 0, 62, 0
10, 9720, Note_on_c, 0, 74, 0
10, 9720, Note_on_c, 0, 72, 0
10, 9720, Note_on_c, 0, 72, 75
10, 9720, Note_on_c, 0, 62, 75
10, 9720, Note_on_c, 0, 74, 75
10, 9780, Note_on_c, 0, 74, 0
10, 9780, Note_on_c, 0, 62, 0
10, 9780, Note_on_c, 0, 72, 0
10, 9780, Note_on_c, 0, 62, 75
10, 9780, Note_on_c, 0, 67, 75
10, 9810, Note_on_c, 0, 67, 0
10, 9810, Note_on_c, 0, 62, 0
10, 9825, Control_c, 0, 64, 0
10, 9840, Control_c, 0, 64, 127
10, 9840, Note_on_c, 0, 50, 75
10, 9840, Note_on_c, 0, 57, 75
10, 9840, Note_on_c, 0, 62, 75
10, 9840, Note_on_c, 0, 66, 75
10, 10080, Note_on_c, 0, 66, 0
10, 10080, Note_on_c, 0, 62, 0
10, 10080, Note_on_c, 0, 62, 75
10, 10080, Note_on_c, 0, 66, 75
10, 10170, Note_on_c, 0, 66, 0
10, 10170, Note_on_c, 0, 62, 0
10, 10170, Note_on_c, 0, 64, 75
10, 10170, Note_on_c, 0, 67, 75
10, 10260, Note_on_c, 0, 67, 0
10, 10260, Note_on_c, 0, 64, 0
10, 10260, Note_on_c, 0, 66, 75
10, 10260, Note_on_c, 0, 69, 75
10, 10290, Control_c, 0, 64, 0
10, 10320, Note_on_c, 0, 69, 0
10, 10320, Note_on_c, 0, 50, 0
10, 10320, Note_on_c, 0, 57, 0
10, 10320, Note_on_c, 0, 66, 0
10, 10320, Control_c, 0, 64, 127
10, 10320, Note_on_c, 0, 69, 75
10, 10320, Note_on_c, 0, 45, 75
10, 10320, Note_on_c, 0, 57, 75
10, 10320, Note_on_c, 0, 60, 75
10, 10320, Note_on_c, 0, 64, 75
10, 10560, Note_on_c, 0, 64, 0
10, 10560, Note_on_c, 0, 57, 0
10, 10560, Note_on_c, 0, 69, 0
10, 10560, Note_on_c, 0, 45, 0
10, 10560, Note_on_c, 0, 60, 0
10, 10620, Note_on_c, 0, 76, 75
10, 10650, Note_on_c, 0, 76, 0
10, 10650, Note_on_c, 0, 67, 75
10, 10650, Note_on_c, 0, 72, 75
10, 10680, Note_on_c, 0, 72, 0
10, 10680, Note_on_c, 0, 67, 0
10, 10680, Note_on_c, 0, 67, 75
10, 10680, Note_on_c, 0, 72, 75
10, 10710, Note_on_c, 0, 72, 0
10, 10710, Note_on_c, 0, 67, 0
10, 10710, Note_on_c, 0, 64, 75
10, 10710, Note_on_c, 0, 67, 75
10, 10740, Note_on_c, 0, 67, 0
10, 10740, Note_on_c, 0, 64, 0
10, 10740, Note_on_c, 0, 64, 75
10, 10740, Note_on_c, 0, 67, 75
10, 10770, Note_on_c, 0, 67, 0
10, 10770, Note_on_c, 0, 64, 0
10, 10770, Note_on_c, 0, 64, 75
10, 10770, Note_on_c, 0, 57, 75
10, 10785, Control_c, 0, 64, 0
10, 10800, Note_on_c, 0, 57, 0
10, 10800, Note_on_c, 0, 64, 0
10, 10800, Note_on_c, 0, 50, 75
10, 10800, Note_on_c, 0, 57, 75
10, 10800, Note_on_c, 0, 66, 75
10, 10800, Note_on_c, 0, 69, 75
10, 10815, Control_c, 0, 64, 127
10, 10980, Note_on_c, 0, 69, 0
10, 10980, Note_on_c, 0, 50, 0
10, 10980, Note_on_c, 0, 57, 0
10, 10980, Note_on_c, 0, 66, 0
10, 10980, Note_on_c, 0, 66, 75
10, 10980, Note_on_c, 0, 69, 75
10, 10980, Note_on_c, 0, 50, 75
10, 10980, Note_on_c, 0, 57, 75
10, 11040, Note_on_c, 0, 57, 0
10, 11040, Note_on_c, 0, 66, 0
10, 11040, Note_on_c, 0, 69, 0
10, 11040, Note_on_c, 0, 50, 0
10, 11040, Note_on_c, 0, 54, 75
10, 11040, Note_on_c, 0, 66, 75
10, 11040, Note_on_c, 0, 62, 75
10, 11040, Note_on_c, 0, 47, 75
10, 11220, Note_on_c, 0, 47, 0
10, 11220, Note_on_c, 0, 54, 0
10, 11220, Note_on_c, 0, 66, 0
10, 11220, Note_on_c, 0, 62, 0
10, 11220, Note_on_c, 0, 47, 75
10, 11220, Note_on_c, 0, 54, 75
10, 11220, Note_on_c, 0, 62, 75
10, 11220, Note_on_c, 0, 66, 75
10, 11235, Control_c, 0, 64, 0
10, 11280, Note_on_c, 0, 66, 0
10, 11280, Note_on_c, 0, 47, 0
10, 11280, Note_on_c, 0, 54, 0
10, 11280, Note_on_c, 0, 62, 0
10, 11280, Note_on_c, 0, 60, 75
10, 11280, Note_on_c, 0, 67, 75
10, 11280, Note_on_c, 0, 64, 75
10, 11280, Note_on_c, 0, 55, 75
10, 11280, Note_on_c, 0, 48, 75
10, 11640, Note_on_c, 0, 55, 48
10, 11760, Note_on_c, 0, 55, 0
10, 11760, Note_on_c, 0, 67, 0
10, 11760, Note_on_c, 0, 64, 0
10, 11760, Note_on_c, 0, 60, 0
10, 11760, Note_on_c, 0, 48, 0
10, 11760, Note_on_c, 0, 55, 0
10, 11760, Control_c, 0, 64, 127
10, 11760, Note_on_c, 0, 67, 50
10, 11790, Note_on_c, 0, 62, 52
10, 11820, Note_on_c, 0, 60, 54
10, 11850, Note_on_c, 0, 55, 56
10, 11880, Note_on_c, 0, 67, 0
10, 11880, Note_on_c, 0, 67, 58
10, 11910, Note_on_c, 0, 62, 0
10, 11910, Note_on_c, 0, 62, 60
10, 11940, Note_on_c, 0, 60, 0
10, 11940, Note_on_c, 0, 60, 62
10, 11970, Note_on_c, 0, 55, 0
10, 11970, Note_on_c, 0, 55, 64
10, 12000, Note_on_c, 0, 67, 0
10, 12000, Note_on_c, 0, 67, 66
10, 12030, Note_on_c, 0, 62, 0
10, 12030, Note_on_c, 0, 62, 68
10, 12060, Note_on_c, 0, 60, 0
10, 12060, Note_on_c, 0, 60, 70
10, 12090, Note_on_c, 0, 55, 0
10, 12090, Note_on_c, 0, 55, 72
10, 12120, Note_on_c, 0, 67, 0
10, 12120, Note_on_c, 0, 67, 74
10, 12150, Note_on_c, 0, 62, 0
10, 12150, Note_on_c, 0, 62, 76
10, 12180, Note_on_c, 0, 60, 0
10, 12180, Note_on_c, 0, 60, 78
10, 12210, Note_on_c, 0, 55, 0
10, 12210, Note_on_c, 0, 55, 80
10, 12210, Control_c, 0, 64, 0
10, 12240, Note_on_c, 0, 55, 0
10, 12240, Note_on_c, 0, 60, 0
10, 12240, Note_on_c, 0, 67, 0
10, 12240, Note_on_c, 0, 62, 0
10, 12240, Note_on_c, 0, 31, 80
10, 12540, Note_on_c, 0, 31, 0
10, 12540, Note_on_c, 0, 33, 80
10, 12660, Note_on_c, 0, 33, 0
10, 12660, Note_on_c, 0, 35, 80
10, 12960, Note_on_c, 0, 35, 0
10, 12960, Note_on_c, 0, 40, 80
10, 13080, Note_on_c, 0, 40, 0
10, 13080, Note_on_c, 0, 36, 80
10, 13380, Note_on_c, 0, 36, 0
10, 13380, Note_on_c, 0, 35, 80
10, 13500, Note_on_c, 0, 35, 0
10, 13500, Note_on_c, 0, 33, 80
10, 13740, Note_on_c, 0, 33, 0
10, 13740, Note_on_c, 0, 29, 80
10, 13980, Note_on_c, 0, 29, 0
10, 13980, Note_on_c, 0, 31, 80
10, 14010, Note_on_c, 0, 55, 80
10, 14040, Note_on_c, 0, 55, 0
10, 14040, Note_on_c, 0, 57, 80
10, 14070, Note_on_c, 0, 57, 0
10, 14070, Note_on_c, 0, 59, 80
10, 14100, Note_on_c, 0, 59, 0
10, 14100, Note_on_c, 0, 62, 80
10, 14130, Note_on_c, 0, 62, 0
10, 14130, Note_on_c, 0, 67, 80
10, 14160, Note_on_c, 0, 67, 0
10, 14160, Note_on_c, 0, 74, 80
10, 14160, Note_on_c, 0, 79, 80
10, 14190, Note_on_c, 0, 69, 80
10, 14220, Note_on_c, 0, 69, 0
10, 14220, Note_on_c, 0, 67, 80
10, 14250, Note_on_c, 0, 67, 0
10, 14250, Note_on_c, 0, 71, 80
10, 14250, Note_on_c, 0, 74, 80
10, 14280, Note_on_c, 0, 31, 0
10, 14280, Note_on_c, 0, 69, 80
10, 14280, Note_on_c, 0, 33, 80
10, 14310, Note_on_c, 0, 69, 0
10, 14310, Note_on_c, 0, 67, 80
10, 14340, Note_on_c, 0, 67, 0
10, 14340, Note_on_c, 0, 62, 80
10, 14370, Note_on_c, 0, 62, 0
10, 14370, Note_on_c, 0, 71, 0
10, 14370, Note_on_c, 0, 74, 0
10, 14370, Note_on_c, 0, 74, 0
10, 14370, Note_on_c, 0, 79, 0
10, 14370, Note_on_c, 0, 59, 80
10, 14400, Note_on_c, 0, 59, 0
10, 14400, Note_on_c, 0, 33, 0
10, 14400, Note_on_c, 0, 55, 80
10, 14400, Note_on_c, 0, 35, 80
10, 14430, Note_on_c, 0, 55, 0
10, 14430, Note_on_c, 0, 57, 80
10, 14445, Note_on_c, 0, 57, 0
10, 14445, Note_on_c, 0, 59, 80
10, 14460, Note_on_c, 0, 59, 0
10, 14460, Note_on_c, 0, 62, 80
10, 14490, Note_on_c, 0, 62, 0
10, 14490, Note_on_c, 0, 67, 80
10, 14520, Note_on_c, 0, 67, 0
10, 14520, Note_on_c, 0, 69, 80
10, 14550, Note_on_c, 0, 69, 0
10, 14550, Note_on_c, 0, 74, 80
10, 14550, Note_on_c, 0, 79, 80
10, 14580, Note_on_c, 0, 69, 80
10, 14610, Note_on_c, 0, 69, 0
10, 14610, Note_on_c, 0, 67, 80
10, 14640, Note_on_c, 0, 67, 0
10, 14640, Note_on_c, 0, 71, 80
10, 14640, Note_on_c, 0, 74, 80
10, 14670, Note_on_c, 0, 69, 80
10, 14700, Note_on_c, 0, 35, 0
10, 14700, Note_on_c, 0, 40, 80
10, 14700, Note_on_c, 0, 67, 80
10, 14730, Note_on_c, 0, 62, 80
10, 14760, Note_on_c, 0, 62, 0
10, 14760, Note_on_c, 0, 74, 0
10, 14760, Note_on_c, 0, 74, 0
10, 14760, Note_on_c, 0, 71, 0
10, 14760, Note_on_c, 0, 79, 0
10, 14760, Note_on_c, 0, 59, 80
10, 14790, Note_on_c, 0, 59, 0
10, 14790, Note_on_c, 0, 57, 80
10, 14820, Note_on_c, 0, 57, 0
10, 14820, Note_on_c, 0, 69, 0
10, 14820, Note_on_c, 0, 67, 0
10, 14820, Note_on_c, 0, 40, 0
10, 14820, Note_on_c, 0, 41, 80
10, 14850, Note_on_c, 0, 55, 80
10, 14880, Note_on_c, 0, 55, 0
10, 14880, Note_on_c, 0, 57, 80
10, 14910, Note_on_c, 0, 57, 0
10, 14910, Note_on_c, 0, 59, 80
10, 14940, Note_on_c, 0, 59, 0
10, 14940, Note_on_c, 0, 62, 80
10, 14970, Note_on_c, 0, 62, 0
10, 14970, Note_on_c, 0, 67, 80
10, 15000, Note_on_c, 0, 67, 0
10, 15000, Note_on_c, 0, 74, 80
10, 15000, Note_on_c, 0, 79, 80
10, 15030, Note_on_c, 0, 69, 80
10, 15060, Note_on_c, 0, 69, 0
10, 15060, Note_on_c, 0, 41, 0
10, 15060, Note_on_c, 0, 67, 80
10, 15090, Note_on_c, 0, 67, 0
10, 15090, Note_on_c, 0, 71, 80
10, 15090, Note_on_c, 0, 74, 80
10, 15120, Note_on_c, 0, 40, 80
10, 15120, Note_on_c, 0, 69, 80
10, 15150, Note_on_c, 0, 69, 0
10, 15150, Note_on_c, 0, 67, 80
10, 15180, Note_on_c, 0, 67, 0
10, 15180, Note_on_c, 0, 62, 80
10, 15210, Note_on_c, 0, 62, 0
10, 15210, Note_on_c, 0, 79, 0
10, 15210, Note_on_c, 0, 71, 0
10, 15210, Note_on_c, 0, 74, 0
10, 15210, Note_on_c, 0, 74, 0
10, 15210, Note_on_c, 0, 59, 80
10, 15240, Note_on_c, 0, 59, 0
10, 15240, Note_on_c, 0, 40, 0
10, 15240, Note_on_c, 0, 54, 70
10, 15240, Note_on_c, 0, 57, 70
10, 15240, Note_on_c, 0, 62, 70
10, 15240, Note_on_c, 0, 38, 70
10, 15480, Note_on_c, 0, 38, 0
10, 15480, Note_on_c, 0, 54, 0
10, 15480, Note_on_c, 0, 57, 0
10, 15480, Note_on_c, 0, 62, 0
10, 15480, Note_on_c, 0, 66, 100
10, 15480, Note_on_c, 0, 62, 100
10, 15480, Note_on_c, 0, 50, 100
10, 15540, Note_on_c, 0, 50, 0
10, 15540, Note_on_c, 0, 62, 0
10, 15540, Note_on_c, 0, 66, 0
10, 15540, Note_on_c, 0, 67, 100
10, 15540, Note_on_c, 0, 64, 100
10, 15540, Note_on_c, 0, 52, 100
10, 15600, Note_on_c, 0, 52, 0
10, 15600, Note_on_c, 0, 64, 0
10, 15600, Note_on_c, 0, 67, 0
10, 15600, Note_on_c, 0, 69, 100
10, 15600, Note_on_c, 0, 54, 100
10, 15600, Note_on_c, 0, 66, 100
10, 15720, Note_on_c, 0, 66, 0
10, 15720, Note_on_c, 0, 54, 0
10, 15720, Note_on_c, 0, 69, 0
10, 25200, Note_on_c, 0, 68, 100
10, 25200, Note_on_c, 0, 64, 100
10, 25260, Note_on_c, 0, 64, 0
10, 25260, Note_on_c, 0, 68, 0
10, 25320, Note_on_c, 0, 68, 100
10, 25320, Note_on_c, 0, 64, 100
10, 25440, Note_on_c, 0, 64, 0
10, 25440, Note_on_c, 0, 68, 0
10, 25440, Note_on_c, 0, 64, 100
10, 25440, Note_on_c, 0, 68, 100
10, 25480, Note_on_c, 0, 68, 0
10, 25480, Note_on_c, 0, 64, 0
10, 25500, Note_on_c, 0, 59, 100
10, 25500, Note_on_c, 0, 64, 100
10, 25500, Note_on_c, 0, 68, 100
10, 25860, Note_on_c, 0, 68, 0
10, 25860, Note_on_c, 0, 64, 0
10, 25860, Note_on_c, 0, 59, 0
10, 25860, Note_on_c, 0, 74, 100
10, 25860, Note_on_c, 0, 67, 100
10, 25860, Note_on_c, 0, 60, 100
10, 26220, Note_on_c, 0, 60, 0
10, 26220, Note_on_c, 0, 67, 0
10, 26220, Note_on_c, 0, 74, 0
10, 26220, Note_on_c, 0, 74, 100
10, 26220, Note_on_c, 0, 66, 100
10, 26220, Note_on_c, 0, 62, 100
10, 26220, Note_on_c, 0, 69, 100
10, 26580, Note_on_c, 0, 69, 0
10, 26580, Note_on_c, 0, 74, 0
10, 26580, Note_on_c, 0, 66, 0
10, 26580, Note_on_c, 0, 62, 0
10, 26580, Note_on_c, 0, 59, 100
10, 26580, Note_on_c, 0, 64, 100
10, 26580, Note_on_c, 0, 68, 100
10, 26940, Note_on_c, 0, 68, 0
10, 26940, Note_on_c, 0, 64, 0
10, 26940, Note_on_c, 0, 59, 0
10, 26940, Note_on_c, 0, 57, 100
10, 26940, Note_on_c, 0, 64, 100
10, 26940, Note_on_c, 0, 68, 100
10, 27300, Note_on_c, 0, 68, 0
10, 27300, Note_on_c, 0, 64, 0
10, 27300, Note_on_c, 0, 57, 0
10, 27300, Note_on_c, 0, 74, 100
10, 27300, Note_on_c, 0, 67, 100
10, 27300, Note_on_c, 0, 60, 100
10, 27660, Note_on_c, 0, 60, 0
10, 27660, Note_on_c, 0, 67, 0
10, 27660, Note_on_c, 0, 74, 0
10, 27660, Note_on_c, 0, 74, 100
10, 27660, Note_on_c, 0, 66, 100
10, 27660, Note_on_c, 0, 62, 100
10, 27660, Note_on_c, 0, 69, 100
10, 27720, Note_on_c, 0, 69, 0
10, 27720, Note_on_c, 0, 74, 0
10, 27720, Note_on_c, 0, 66, 0
10, 27720, Note_on_c, 0, 62, 0
10, 27780, Note_on_c, 0, 74, 100
10, 27780, Note_on_c, 0, 66, 100
10, 27780, Note_on_c, 0, 62, 100
10, 27780, Note_on_c, 0, 69, 100
10, 27840, Note_on_c, 0, 69, 0
10, 27840, Note_on_c, 0, 74, 0
10, 27840, Note_on_c, 0, 66, 0
10, 27840, Note_on_c, 0, 62, 0
10, 27900, Note_on_c, 0, 59, 100
10, 27900, Note_on_c, 0, 64, 100
10, 27900, Note_on_c, 0, 68, 100
10, 28260, Note_on_c, 0, 68, 0
10, 28260, Note_on_c, 0, 64, 0
10, 28260, Note_on_c, 0, 59, 0
10, 28260, Note_on_c, 0, 57, 100
10, 28260, Note_on_c, 0, 64, 100
10, 28260, Note_on_c, 0, 68, 100
10, 28620, Note_on_c, 0, 68, 0
10, 28620, Note_on_c, 0, 64, 0
10, 28620, Note_on_c, 0, 57, 0
10, 28620, Note_on_c, 0, 74, 100
10, 28620, Note_on_c, 0, 67, 100
10, 28620, Note_on_c, 0, 60, 100
10, 28980, Note_on_c, 0, 60, 0
10, 28980, Note_on_c, 0, 67, 0
10, 28980, Note_on_c, 0, 74, 0
10, 28980, Note_on_c, 0, 74, 100
10, 28980, Note_on_c, 0, 66, 100
10, 28980, Note_on_c, 0, 62, 100
10, 28980, Note_on_c, 0, 69, 100
10, 29340, Note_on_c, 0, 69, 0
10, 29340, Note_on_c, 0, 74, 0
10, 29340, Note_on_c, 0, 66, 0
10, 29340, Note_on_c, 0, 62, 0
10, 29340, Note_on_c, 0, 72, 100
10, 29340, Note_on_c, 0, 69, 100
10, 29340, Note_on_c, 0, 65, 100
10, 29340, Note_on_c, 0, 60, 100
10, 29400, Note_on_c, 0, 60, 0
10, 29400, Note_on_c, 0, 72, 0
10, 29400, Note_on_c, 0, 69, 0
10, 29400, Note_on_c, 0, 65, 0
10, 29400, Note_on_c, 0, 60, 100
10, 29400, Note_on_c, 0, 65, 100
10, 29400, Note_on_c, 0, 69, 100
10, 29400, Note_on_c, 0, 72, 100
10, 29460, Note_on_c, 0, 72, 0
10, 29460, Note_on_c, 0, 60, 0
10, 29460, Note_on_c, 0, 65, 0
10, 29460, Note_on_c, 0, 69, 0
10, 29520, Note_on_c, 0, 72, 80
10, 29520, Note_on_c, 0, 69, 80
10, 29520, Note_on_c, 0, 65, 80
10, 29520, Note_on_c, 0, 60, 80
10, 29640, Note_on_c, 0, 60, 0
10, 29640, Note_on_c, 0, 72, 0
10, 29640, Note_on_c, 0, 69, 0
10, 29640, Note_on_c, 0, 65, 0
10, 29640, Note_on_c, 0, 60, 80
10, 29640, Note_on_c, 0, 65, 80
10, 29640, Note_on_c, 0, 69, 80
10, 29640, Note_on_c, 0, 72, 80
10, 29700, Note_on_c, 0, 72, 0
10, 29700, Note_on_c, 0, 60, 0
10, 29700, Note_on_c, 0, 65, 0
10, 29700, Note_on_c, 0, 69, 0
10, 29700, Note_on_c, 0, 72, 100
10, 29700, Note_on_c, 0, 64, 100
10, 29700, Note_on_c, 0, 67, 100
10, 29700, Note_on_c, 0, 60, 100
10, 30060, Note_on_c, 0, 60, 0
10, 30060, Note_on_c, 0, 72, 0
10, 30060, Note_on_c, 0, 64, 0
10, 30060, Note_on_c, 0, 67, 0
10, 30120, Note_on_c, 0, 64, 100
10, 30120, Note_on_c, 0, 73, 100
10, 30120, Note_on_c, 0, 61, 100
10, 30240, Note_on_c, 0, 61, 0
10, 30240, Note_on_c, 0, 73, 0
10, 30240, Note_on_c, 0, 64, 0
10, 30240, Note_on_c, 0, 64, 100
10, 30240, Note_on_c, 0, 74, 100
10, 30240, Note_on_c, 0, 62, 100
10, 30360, Note_on_c, 0, 62, 0
10, 30360, Note_on_c, 0, 74, 0
10, 30360, Note_on_c, 0, 64, 0
10, 30360, Note_on_c, 0, 69, 100
10, 30360, Note_on_c, 0, 76, 100
10, 30360, Note_on_c, 0, 64, 100
10, 30430, Note_on_c, 0, 64, 0
10, 30430, Note_on_c, 0, 76, 0
10, 30430, Note_on_c, 0, 69, 0
10, 30480, Note_on_c, 0, 69, 100
10, 30480, Note_on_c, 0, 64, 100
10, 30480, Note_on_c, 0, 76, 100
10, 30660, Note_on_c, 0, 76, 0
10, 30660, Note_on_c, 0, 64, 0
10, 30660, Note_on_c, 0, 69, 0
10, 30660, Note_on_c, 0, 71, 100
10, 30660, Note_on_c, 0, 73, 100
10, 30660, Note_on_c, 0, 76, 100
10, 30660, Note_on_c, 0, 64, 100
10, 30780, Note_on_c, 0, 64, 0
10, 30780, Note_on_c, 0, 71, 0
10, 30780, Note_on_c, 0, 73, 0
10, 30780, Note_on_c, 0, 76, 0
10, 30840, Note_on_c, 0, 67, 100
10, 30840, Note_on_c, 0, 60, 100
10, 30840, Note_on_c, 0, 72, 100
10, 30960, Note_on_c, 0, 72, 0
10, 30960, Note_on_c, 0, 60, 0
10, 30960, Note_on_c, 0, 67, 0
10, 30960, Note_on_c, 0, 67, 100
10, 30960, Note_on_c, 0, 62, 100
10, 30960, Note_on_c, 0, 74, 100
10, 31080, Note_on_c, 0, 74, 0
10, 31080, Note_on_c, 0, 62, 0
10, 31080, Note_on_c, 0, 67, 0
10, 31080, Note_on_c, 0, 72, 100
10, 31080, Note_on_c, 0, 64, 100
10, 31080, Note_on_c, 0, 76, 100
10, 31150, Note_on_c, 0, 76, 0
10, 31150, Note_on_c, 0, 64, 0
10, 31150, Note_on_c, 0, 72, 0
10, 31200, Note_on_c, 0, 69, 100
10, 31200, Note_on_c, 0, 62, 100
10, 31200, Note_on_c, 0, 74, 100
10, 31380, Note_on_c, 0, 74, 0
10, 31380, Note_on_c, 0, 62, 0
10, 31380, Note_on_c, 0, 69, 0
10, 31380, Note_on_c, 0, 69, 100
10, 31380, Note_on_c, 0, 62, 100
10, 31380, Note_on_c, 0, 74, 100
10, 31500, Note_on_c, 0, 74, 0
10, 31500, Note_on_c, 0, 62, 0
10, 31500, Note_on_c, 0, 69, 0
10, 31560, Note_on_c, 0, 64, 100
10, 31560, Note_on_c, 0, 73, 100
10, 31560, Note_on_c, 0, 61, 100
10, 31680, Note_on_c, 0, 61, 0
10, 31680, Note_on_c, 0, 73, 0
10, 31680, Note_on_c, 0, 64, 0
10, 31680, Note_on_c, 0, 64, 100
10, 31680, Note_on_c, 0, 74, 100
10, 31680, Note_on_c, 0, 62, 100
10, 31800, Note_on_c, 0, 62, 0
10, 31800, Note_on_c, 0, 74, 0
10, 31800, Note_on_c, 0, 64, 0
10, 31800, Note_on_c, 0, 69, 100
10, 31800, Note_on_c, 0, 76, 100
10, 31800, Note_on_c, 0, 64, 100
10, 31870, Note_on_c, 0, 64, 0
10, 31870, Note_on_c, 0, 76, 0
10, 31870, Note_on_c, 0, 69, 0
10, 31920, Note_on_c, 0, 69, 100
10, 31920, Note_on_c, 0, 64, 100
10, 31920, Note_on_c, 0, 76, 100
10, 32100, Note_on_c, 0, 76, 0
10, 32100, Note_on_c, 0, 64, 0
10, 32100, Note_on_c, 0, 69, 0
10, 32100, Note_on_c, 0, 71, 100
10, 32100, Note_on_c, 0, 73, 100
10, 32100, Note_on_c, 0, 76, 100
10, 32100, Note_on_c, 0, 64, 100
10, 32220, Note_on_c, 0, 64, 0
10, 32220, Note_on_c, 0, 71, 0
10, 32220, Note_on_c, 0, 73, 0
10, 32220, Note_on_c, 0, 76, 0
10, 32220, Note_on_c, 0, 72, 85
10, 32262, Note_on_c, 0, 72, 0
10, 32280, Note_on_c, 0, 71, 85
10, 32322, Note_on_c, 0, 71, 0
10, 32340, Note_on_c, 0, 69, 85
10, 32382, Note_on_c, 0, 69, 0
10, 32400, Note_on_c, 0, 67, 85
10, 32442, Note_on_c, 0, 67, 0
10, 32460, Note_on_c, 0, 69, 85
10, 32502, Note_on_c, 0, 69, 0
10, 32520, Note_on_c, 0, 71, 85
10, 32562, Note_on_c, 0, 71, 0
10, 32580, Note_on_c, 0, 69, 85
10, 32820, Note_on_c, 0, 69, 0
10, 32880, Note_on_c, 0, 64, 100
10, 32880, Note_on_c, 0, 73, 100
10, 32880, Note_on_c, 0, 61, 100
10, 33000, Note_on_c, 0, 61, 0
10, 33000, Note_on_c, 0, 73, 0
10, 33000, Note_on_c, 0, 64, 0
10, 33000, Note_on_c, 0, 64, 100
10, 33000, Note_on_c, 0, 74, 100
10, 33000, Note_on_c, 0, 62, 100
10, 33120, Note_on_c, 0, 62, 0
10, 33120, Note_on_c, 0, 74, 0
10, 33120, Note_on_c, 0, 64, 0
10, 33120, Note_on_c, 0, 69, 100
10, 33120, Note_on_c, 0, 76, 100
10, 33120, Note_on_c, 0, 64, 100
10, 33190, Note_on_c, 0, 64, 0
10, 33190, Note_on_c, 0, 76, 0
10, 33190, Note_on_c, 0, 69, 0
10, 33240, Note_on_c, 0, 69, 100
10, 33240, Note_on_c, 0, 64, 100
10, 33240, Note_on_c, 0, 76, 100
10, 33420, Note_on_c, 0, 76, 0
10, 33420, Note_on_c, 0, 64, 0
10, 33420, Note_on_c, 0, 69, 0
10, 33420, Note_on_c, 0, 71, 100
10, 33420, Note_on_c, 0, 73, 100
10, 33420, Note_on_c, 0, 76, 100
10, 33420, Note_on_c, 0, 64, 100
10, 33540, Note_on_c, 0, 64, 0
10, 33540, Note_on_c, 0, 71, 0
10, 33540, Note_on_c, 0, 73, 0
10, 33540, Note_on_c, 0, 76, 0
10, 33600, Note_on_c, 0, 67, 100
10, 33600, Note_on_c, 0, 60, 100
10, 33600, Note_on_c, 0, 72, 100
10, 33720, Note_on_c, 0, 72, 0
10, 33720, Note_on_c, 0, 60, 0
10, 33720, Note_on_c, 0, 67, 0
10, 33720, Note_on_c, 0, 67, 100
10, 33720, Note_on_c, 0, 62, 100
10, 33720, Note_on_c, 0, 74, 100
10, 33840, Note_on_c, 0, 74, 0
10, 33840, Note_on_c, 0, 62, 0
10, 33840, Note_on_c, 0, 67, 0
10, 33840, Note_on_c, 0, 72, 100
10, 33840, Note_on_c, 0, 64, 100
10, 33840, Note_on_c, 0, 76, 100
10, 33910, Note_on_c, 0, 76, 0
10, 33910, Note_on_c, 0, 64, 0
10, 33910, Note_on_c, 0, 72, 0
10, 33960, Note_on_c, 0, 69, 100
10, 33960, Note_on_c, 0, 62, 100
10, 33960, Note_on_c, 0, 74, 100
10, 34140, Note_on_c, 0, 74, 0
10, 34140, Note_on_c, 0, 62, 0
10, 34140, Note_on_c, 0, 69, 0
10, 34140, Note_on_c, 0, 69, 100
10, 34140, Note_on_c, 0, 62, 100
10, 34140, Note_on_c, 0, 74, 100
10, 34260, Note_on_c, 0, 74, 0
10, 34260, Note_on_c, 0, 62, 0
10, 34260, Note_on_c, 0, 69, 0
10, 34320, Note_on_c, 0, 72, 100
10, 34320, Note_on_c, 0, 60, 100
10, 34320, Note_on_c, 0, 65, 100
10, 34440, Note_on_c, 0, 65, 0
10, 34440, Note_on_c, 0, 60, 0
10, 34440, Note_on_c, 0, 72, 0
10, 34440, Note_on_c, 0, 72, 100
10, 34440, Note_on_c, 0, 60, 100
10, 34440, Note_on_c, 0, 65, 100
10, 34560, Note_on_c, 0, 65, 0
10, 34560, Note_on_c, 0, 60, 0
10, 34560, Note_on_c, 0, 72, 0
10, 34560, Note_on_c, 0, 72, 100
10, 34560, Note_on_c, 0, 60, 100
10, 34560, Note_on_c, 0, 67, 100
10, 34620, Note_on_c, 0, 67, 0
10, 34620, Note_on_c, 0, 60, 0
10, 34620, Note_on_c, 0, 72, 0
10, 34680, Note_on_c, 0, 72, 100
10, 34680, Note_on_c, 0, 60, 100
10, 34680, Note_on_c, 0, 69, 100
10, 34860, Note_on_c, 0, 69, 0
10, 34860, Note_on_c, 0, 60, 0
10, 34860, Note_on_c, 0, 72, 0
10, 34860, Note_on_c, 0, 67, 100
10, 34860, Note_on_c, 0, 71, 100
10, 34980, Note_on_c, 0, 71, 0
10, 34980, Note_on_c, 0, 67, 0
10, 34980, Note_on_c, 0, 64, 100
10, 34980, Note_on_c, 0, 67, 100
10, 34980, Note_on_c, 0, 55, 100
10, 34980, Note_on_c, 0, 48, 100
10, 35160, Note_on_c, 0, 48, 0
10, 35160, Note_on_c, 0, 64, 0
10, 35160, Note_on_c, 0, 67, 0
10, 35160, Note_on_c, 0, 55, 0
10, 35160, Note_on_c, 0, 62, 100
10, 35160, Note_on_c, 0, 67, 100
10, 35160, Note_on_c, 0, 71, 100
10, 35160, Note_on_c, 0, 48, 100
10, 35340, Note_on_c, 0, 48, 0
10, 35340, Note_on_c, 0, 62, 0
10, 35340, Note_on_c, 0, 67, 0
10, 35340, Note_on_c, 0, 71, 0
10, 35340, Note_on_c, 0, 62, 100
10, 35340, Note_on_c, 0, 66, 100
10, 35340, Note_on_c, 0, 69, 100
10, 35340, Note_on_c, 0, 50, 100
10, 35520, Note_on_c, 0, 66, 0
10, 35580, Note_on_c, 0, 62, 0
10, 35580, Note_on_c, 0, 69, 0
10, 35580, Note_on_c, 0, 50, 0
10, 35640, Note_on_c, 0, 68, 100
10, 35640, Note_on_c, 0, 64, 100
10, 35700, Note_on_c, 0, 64, 0
10, 35700, Note_on_c, 0, 68, 0
10, 35760, Note_on_c, 0, 68, 100
10, 35760, Note_on_c, 0, 64, 100
10, 35880, Note_on_c, 0, 64, 0
10, 35880, Note_on_c, 0, 68, 0
10, 35880, Note_on_c, 0, 64, 100
10, 35880, Note_on_c, 0, 68, 100
10, 35920, Note_on_c, 0, 68, 0
10, 35920, Note_on_c, 0, 64, 0
10, 35940, Note_on_c, 0, 59, 100
10, 35940, Note_on_c, 0, 64, 100
10, 35940, Note_on_c, 0, 68, 100
10, 36300, Note_on_c, 0, 68, 0
10, 36300, Note_on_c, 0, 64, 0
10, 36300, Note_on_c, 0, 59, 0
10, 36300, Note_on_c, 0, 74, 100
10, 36300, Note_on_c, 0, 67, 100
10, 36300, Note_on_c, 0, 60, 100
10, 36660, Note_on_c, 0, 60, 0
10, 36660, Note_on_c, 0, 67, 0
10, 36660, Note_on_c, 0, 74, 0
10, 36660, Note_on_c, 0, 74, 100
10, 36660, Note_on_c, 0, 66, 100
10, 36660, Note_on_c, 0, 62, 100
10, 36660, Note_on_c, 0, 69, 100
10, 37020, Note_on_c, 0, 69, 0
10, 37020, Note_on_c, 0, 74, 0
10, 37020, Note_on_c, 0, 66, 0
10, 37020, Note_on_c, 0, 62, 0
10, 37020, Note_on_c, 0, 59, 100
10, 37020, Note_on_c, 0, 64, 100
10, 37020, Note_on_c, 0, 68, 100
10, 37380, Note_on_c, 0, 68, 0
10, 37380, Note_on_c, 0, 64, 0
10, 37380, Note_on_c, 0, 59, 0
10, 37380, Note_on_c, 0, 57, 100
10, 37380, Note_on_c, 0, 64, 100
10, 37380, Note_on_c, 0, 68, 100
10, 37740, Note_on_c, 0, 68, 0
10, 37740, Note_on_c, 0, 64, 0
10, 37740, Note_on_c, 0, 57, 0
10, 37740, Note_on_c, 0, 74, 100
10, 37740, Note_on_c, 0, 67, 100
10, 37740, Note_on_c, 0, 60, 100
10, 38100, Note_on_c, 0, 60, 0
10, 38100, Note_on_c, 0, 67, 0
10, 38100, Note_on_c, 0, 74, 0
10, 38100, Note_on_c, 0, 74, 100
10, 38100, Note_on_c, 0, 66, 100
10, 38100, Note_on_c, 0, 62, 100
10, 38100, Note_on_c, 0, 69, 100
10, 38160, Note_on_c, 0, 69, 0
10, 38160, Note_on_c, 0, 74, 0
10, 38160, Note_on_c, 0, 66, 0
10, 38160, Note_on_c, 0, 62, 0
10, 38220, Note_on_c, 0, 74, 100
10, 38220, Note_on_c, 0, 66, 100
10, 38220, Note_on_c, 0, 62, 100
10, 38220, Note_on_c, 0, 69, 100
10, 38280, Note_on_c, 0, 69, 0
10, 38280, Note_on_c, 0, 74, 0
10, 38280, Note_on_c, 0, 66, 0
10, 38280, Note_on_c, 0, 62, 0
10, 38340, Note_on_c, 0, 59, 100
10, 38340, Note_on_c, 0, 64, 100
10, 38340, Note_on_c, 0, 68, 100
10, 38700, Note_on_c, 0, 68, 0
10, 38700, Note_on_c, 0, 64, 0
10, 38700, Note_on_c, 0, 59, 0
10, 38700, Note_on_c, 0, 57, 100
10, 38700, Note_on_c, 0, 64, 100
10, 38700, Note_on_c, 0, 68, 100
10, 39060, Note_on_c, 0, 68, 0
10, 39060, Note_on_c, 0, 64, 0
10, 39060, Note_on_c, 0, 57, 0
10, 39060, Note_on_c, 0, 74, 100
10, 39060, Note_on_c, 0, 67, 100
10, 39060, Note_on_c, 0, 60, 100
10, 39420, Note_on_c, 0, 60, 0
10, 39420, Note_on_c, 0, 67, 0
10, 39420, Note_on_c, 0, 74, 0
10, 39420, Note_on_c, 0, 74, 100
10, 39420, Note_on_c, 0, 66, 100
10, 39420, Note_on_c, 0, 62, 100
10, 39420, Note_on_c, 0, 69, 100
10, 39780, Note_on_c, 0, 69, 0
10, 39780, Note_on_c, 0, 74, 0
10, 39780, Note_on_c, 0, 66, 0
10, 39780, Note_on_c, 0, 62, 0
10, 39780, Note_on_c, 0, 72, 100
10, 39780, Note_on_c, 0, 69, 100
10, 39780, Note_on_c, 0, 65, 100
10, 39780, Note_on_c, 0, 60, 100
10, 39840, Note_on_c, 0, 60, 0
10, 39840, Note_on_c, 0, 72, 0
10, 39840, Note_on_c, 0, 69, 0
10, 39840, Note_on_c, 0, 65, 0
10, 39840, Note_on_c, 0, 60, 100
10, 39840, Note_on_c, 0, 65, 100
10, 39840, Note_on_c, 0, 69, 100
10, 39840, Note_on_c, 0, 72, 100
10, 39900, Note_on_c, 0, 72, 0
10, 39900, Note_on_c, 0, 60, 0
10, 39900, Note_on_c, 0, 65, 0
10, 39900, Note_on_c, 0, 69, 0
10, 39960, Note_on_c, 0, 72, 80
10, 39960, Note_on_c, 0, 69, 80
10, 39960, Note_on_c, 0, 65, 80
10, 39960, Note_on_c, 0, 60, 80
10, 40080, Note_on_c, 0, 60, 0
10, 40080, Note_on_c, 0, 72, 0
10, 40080, Note_on_c, 0, 69, 0
10, 40080, Note_on_c, 0, 65, 0
10, 40080, Note_on_c, 0, 60, 80
10, 40080, Note_on_c, 0, 65, 80
10, 40080, Note_on_c, 0, 69, 80
10, 40080, Note_on_c, 0, 72, 80
10, 40140, Note_on_c, 0, 72, 0
10, 40140, Note_on_c, 0, 60, 0
10, 40140, Note_on_c, 0, 65, 0
10, 40140, Note_on_c, 0, 69, 0
10, 40140, Note_on_c, 0, 72, 100
10, 40140, Note_on_c, 0, 64, 100
10, 40140, Note_on_c, 0, 67, 100
10, 40140, Note_on_c, 0, 60, 100
10, 40500, Note_on_c, 0, 60, 0
10, 40500, Note_on_c, 0, 72, 0
10, 40500, Note_on_c, 0, 64, 0
10, 40500, Note_on_c, 0, 67, 0
10, 40560, Note_on_c, 0, 64, 80
10, 40560, Note_on_c, 0, 73, 80
10, 40560, Note_on_c, 0, 61, 80
10, 40680, Note_on_c, 0, 61, 0
10, 40680, Note_on_c, 0, 73, 0
10, 40680, Note_on_c, 0, 64, 0
10, 40680, Note_on_c, 0, 64, 80
10, 40680, Note_on_c, 0, 74, 80
10, 40680, Note_on_c, 0, 62, 80
10, 40800, Note_on_c, 0, 62, 0
10, 40800, Note_on_c, 0, 74, 0
10, 40800, Note_on_c, 0, 64, 0
10, 40800, Note_on_c, 0, 69, 80
10, 40800, Note_on_c, 0, 76, 80
10, 40800, Note_on_c, 0, 64, 80
10, 40870, Note_on_c, 0, 64, 0
10, 40870, Note_on_c, 0, 76, 0
10, 40870, Note_on_c, 0, 69, 0
10, 40920, Note_on_c, 0, 69, 80
10, 40920, Note_on_c, 0, 64, 80
10, 40920, Note_on_c, 0, 76, 80
10, 41100, Note_on_c, 0, 76, 0
10, 41100, Note_on_c, 0, 64, 0
10, 41100, Note_on_c, 0, 69, 0
10, 41100, Note_on_c, 0, 71, 80
10, 41100, Note_on_c, 0, 73, 80
10, 41100, Note_on_c, 0, 76, 80
10, 41100, Note_on_c, 0, 64, 80
10, 41220, Note_on_c, 0, 64, 0
10, 41220, Note_on_c, 0, 71, 0
10, 41220, Note_on_c, 0, 73, 0
10, 41220, Note_on_c, 0, 76, 0
10, 41280, Note_on_c, 0, 67, 80
10, 41280, Note_on_c, 0, 60, 80
10, 41280, Note_on_c, 0, 72, 80
10, 41400, Note_on_c, 0, 72, 0
10, 41400, Note_on_c, 0, 60, 0
10, 41400, Note_on_c, 0, 67, 0
10, 41400, Note_on_c, 0, 67, 80
10, 41400, Note_on_c, 0, 62, 80
10, 41400, Note_on_c, 0, 74, 80
10, 41520, Note_on_c, 0, 74, 0
10, 41520, Note_on_c, 0, 62, 0
10, 41520, Note_on_c, 0, 67, 0
10, 41520, Note_on_c, 0, 72, 80
10, 41520, Note_on_c, 0, 64, 80
10, 41520, Note_on_c, 0, 76, 80
10, 41590, Note_on_c, 0, 76, 0
10, 41590, Note_on_c, 0, 64, 0
10, 41590, Note_on_c, 0, 72, 0
10, 41640, Note_on_c, 0, 69, 80
10, 41640, Note_on_c, 0, 62, 80
10, 41640, Note_on_c, 0, 74, 80
10, 41820, Note_on_c, 0, 74, 0
10, 41820, Note_on_c, 0, 62, 0
10, 41820, Note_on_c, 0, 69, 0
10, 41820, Note_on_c, 0, 69, 80
10, 41820, Note_on_c, 0, 62, 80
10, 41820, Note_on_c, 0, 74, 80
10, 41940, Note_on_c, 0, 74, 0
10, 41940, Note_on_c, 0, 62, 0
10, 41940, Note_on_c, 0, 69, 0
10, 42000, Note_on_c, 0, 64, 80
10, 42000, Note_on_c, 0, 73, 80
10, 42000, Note_on_c, 0, 61, 80
10, 42120, Note_on_c, 0, 61, 0
10, 42120, Note_on_c, 0, 73, 0
10, 42120, Note_on_c, 0, 64, 0
10, 42120, Note_on_c, 0, 64, 80
10, 42120, Note_on_c, 0, 74, 80
10, 42120, Note_on_c, 0, 62, 80
10, 42240, Note_on_c, 0, 62, 0
10, 42240, Note_on_c, 0, 74, 0
10, 42240, Note_on_c, 0, 64, 0
10, 42240, Note_on_c, 0, 69, 80
10, 42240, Note_on_c, 0, 76, 80
10, 42240, Note_on_c, 0, 64, 80
10, 42310, Note_on_c, 0, 64, 0
10, 42310, Note_on_c, 0, 76, 0
10, 42310, Note_on_c, 0, 69, 0
10, 42360, Note_on_c, 0, 69, 80
10, 42360, Note_on_c, 0, 64, 80
10, 42360, Note_on_c, 0, 76, 80
10, 42540, Note_on_c, 0, 76, 0
10, 42540, Note_on_c, 0, 64, 0
10, 42540, Note_on_c, 0, 69, 0
10, 42540, Note_on_c, 0, 71, 80
10, 42540, Note_on_c, 0, 73, 80
10, 42540, Note_on_c, 0, 76, 80
10, 42540, Note_on_c, 0, 64, 80
10, 42660, Note_on_c, 0, 64, 0
10, 42660, Note_on_c, 0, 71, 0
10, 42660, Note_on_c, 0, 73, 0
10, 42660, Note_on_c, 0, 76, 0
10, 43320, Note_on_c, 0, 64, 80
10, 43320, Note_on_c, 0, 73, 80
10, 43320, Note_on_c, 0, 61, 80
10, 43440, Note_on_c, 0, 61, 0
10, 43440, Note_on_c, 0, 73, 0
10, 43440, Note_on_c, 0, 64, 0
10, 43440, Note_on_c, 0, 64, 80
10, 43440, Note_on_c, 0, 74, 80
10, 43440, Note_on_c, 0, 62, 80
10, 43560, Note_on_c, 0, 62, 0
10, 43560, Note_on_c, 0, 74, 0
10, 43560, Note_on_c, 0, 64, 0
10, 43560, Note_on_c, 0, 69, 80
10, 43560, Note_on_c, 0, 76, 80
10, 43560, Note_on_c, 0, 64, 80
10, 43630, Note_on_c, 0, 64, 0
10, 43630, Note_on_c, 0, 76, 0
10, 43630, Note_on_c, 0, 69, 0
10, 43680, Note_on_c, 0, 69, 80
10, 43680, Note_on_c, 0, 64, 80
10, 43680, Note_on_c, 0, 76, 80
10, 43860, Note_on_c, 0, 76, 0
10, 43860, Note_on_c, 0, 64, 0
10, 43860, Note_on_c, 0, 69, 0
10, 43860, Note_on_c, 0, 71, 80
10, 43860, Note_on_c, 0, 73, 80
10, 43860, Note_on_c, 0, 76, 80
10, 43860, Note_on_c, 0, 64, 80
10, 43980, Note_on_c, 0, 64, 0
10, 43980, Note_on_c, 0, 71, 0
10, 43980, Note_on_c, 0, 73, 0
10, 43980, Note_on_c, 0, 76, 0
10, 44040, Note_on_c, 0, 67, 80
10, 44040, Note_on_c, 0, 60, 80
10, 44040, Note_on_c, 0, 72, 80
10, 44160, Note_on_c, 0, 72, 0
10, 44160, Note_on_c, 0, 60, 0
10, 44160, Note_on_c, 0, 67, 0
10, 44160, Note_on_c, 0, 67, 80
10, 44160, Note_on_c, 0, 62, 80
10, 44160, Note_on_c, 0, 74, 80
10, 44280, Note_on_c, 0, 74, 0
10, 44280, Note_on_c, 0, 62, 0
10, 44280, Note_on_c, 0, 67, 0
10, 44280, Note_on_c, 0, 72, 80
10, 44280, Note_on_c, 0, 64, 80
10, 44280, Note_on_c, 0, 76, 80
10, 44350, Note_on_c, 0, 76, 0
10, 44350, Note_on_c, 0, 64, 0
10, 44350, Note_on_c, 0, 72, 0
10, 44400, Note_on_c, 0, 69, 80
10, 44400, Note_on_c, 0, 62, 80
10, 44400, Note_on_c, 0, 74, 80
10, 44580, Note_on_c, 0, 74, 0
10, 44580, Note_on_c, 0, 62, 0
10, 44580, Note_on_c, 0, 69, 0
10, 44580, Note_on_c, 0, 69, 80
10, 44580, Note_on_c, 0, 62, 80
10, 44580, Note_on_c, 0, 74, 80
10, 44700, Note_on_c, 0, 74, 0
10, 44700, Note_on_c, 0, 62, 0
10, 44700, Note_on_c, 0, 69, 0
10, 44760, Note_on_c, 0, 72, 80
10, 44760, Note_on_c, 0, 60, 80
10, 44760, Note_on_c, 0, 65, 80
10, 44880, Note_on_c, 0, 65, 0
10, 44880, Note_on_c, 0, 60, 0
10, 44880, Note_on_c, 0, 72, 0
10, 44880, Note_on_c, 0, 72, 80
10, 44880, Note_on_c, 0, 60, 80
10, 44880, Note_on_c, 0, 65, 80
10, 45000, Note_on_c, 0, 65, 0
10, 45000, Note_on_c, 0, 60, 0
10, 45000, Note_on_c, 0, 72, 0
10, 45000, Note_on_c, 0, 72, 80
10, 45000, Note_on_c, 0, 60, 80
10, 45000, Note_on_c, 0, 67, 80
10, 45060, Note_on_c, 0, 67, 0
10, 45060, Note_on_c, 0, 60, 0
10, 45060, Note_on_c, 0, 72, 0
10, 45120, Note_on_c, 0, 72, 80
10, 45120, Note_on_c, 0, 60, 80
10, 45120, Note_on_c, 0, 69, 80
10, 45300, Note_on_c, 0, 69, 0
10, 45300, Note_on_c, 0, 60, 0
10, 45300, Note_on_c, 0, 72, 0
10, 45300, Note_on_c, 0, 67, 80
10, 45300, Note_on_c, 0, 71, 80
10, 45420, Note_on_c, 0, 71, 0
10, 45420, Note_on_c, 0, 67, 0
10, 45420, Note_on_c, 0, 64, 80
10, 45420, Note_on_c, 0, 67, 80
10, 45420, Note_on_c, 0, 55, 80
10, 45420, Note_on_c, 0, 48, 80
10, 45600, Note_on_c, 0, 48, 0
10, 45600, Note_on_c, 0, 64, 0
10, 45600, Note_on_c, 0, 67, 0
10, 45600, Note_on_c, 0, 55, 0
10, 45600, Note_on_c, 0, 62, 80
10, 45600, Note_on_c, 0, 67, 80
10, 45600, Note_on_c, 0, 71, 80
10, 45600, Note_on_c, 0, 48, 80
10, 45780, Note_on_c, 0, 48, 0
10, 45780, Note_on_c, 0, 62, 0
10, 45780, Note_on_c, 0, 67, 0
10, 45780, Note_on_c, 0, 71, 0
10, 45780, Note_on_c, 0, 62, 80
10, 45780, Note_on_c, 0, 66, 80
10, 45780, Note_on_c, 0, 69, 80
10, 45780, Note_on_c, 0, 50, 80
10, 46380, Note_on_c, 0, 50, 0
10, 46380, Note_on_c, 0, 62, 0
10, 46380, Note_on_c, 0, 66, 0
10, 46380, Note_on_c, 0, 69, 0
10, 46380, Control_c, 0, 64, 127
10, 46380, Note_on_c, 0, 64, 127
10, 46380, Note_on_c, 0, 68, 127
10, 46560, Note_on_c, 0, 68, 0
10, 46560, Note_on_c, 0, 64, 0
10, 46560, Note_on_c, 0, 68, 127
10, 46560, Note_on_c, 0, 71, 127
10, 46740, Note_on_c, 0, 71, 0
10, 46740, Note_on_c, 0, 68, 0
10, 46740, Note_on_c, 0, 64, 127
10, 46740, Note_on_c, 0, 71, 127
10, 46740, Note_on_c, 0, 76, 127
10, 46890, Note_on_c, 0, 56, 85
10, 46920, Note_on_c, 0, 56, 0
10, 46920, Note_on_c, 0, 64, 0
10, 46920, Note_on_c, 0, 71, 0
10, 46920, Note_on_c, 0, 59, 110
10, 46950, Note_on_c, 0, 59, 0
10, 46950, Note_on_c, 0, 64, 127
10, 46980, Note_on_c, 0, 64, 0
10, 46980, Note_on_c, 0, 76, 0
10, 46980, Note_on_c, 0, 68, 127
10, 47010, Note_on_c, 0, 68, 0
10, 47010, Note_on_c, 0, 71, 127
10, 47040, Note_on_c, 0, 71, 0
10, 47040, Note_on_c, 0, 76, 127
10, 47070, Note_on_c, 0, 76, 0
10, 47070, Note_on_c, 0, 80, 127
10, 47100, Note_on_c, 0, 80, 0
10, 47100, Control_c, 0, 64, 127
10, 47100, Control_c, 0, 64, 0
10, 47100, Note_on_c, 0, 71, 127
10, 47100, Note_on_c, 0, 83, 127
10, 47160, Note_on_c, 0, 83, 0
10, 47160, Note_on_c, 0, 71, 0
10, 47160, Note_on_c, 0, 69, 127
10, 47160, Note_on_c, 0, 81, 127
10, 47220, Note_on_c, 0, 81, 0
10, 47220, Note_on_c, 0, 69, 0
10, 47220, Note_on_c, 0, 68, 127
10, 47220, Note_on_c, 0, 80, 127
10, 47280, Note_on_c, 0, 80, 0
10, 47280, Note_on_c, 0, 68, 0
10, 47280, Note_on_c, 0, 66, 127
10, 47280, Note_on_c, 0, 78, 127
10, 47340, Note_on_c, 0, 78, 0
10, 47340, Note_on_c, 0, 66, 0
10, 47340, Note_on_c, 0, 66, 127
10, 47340, Control_c, 0, 64, 127
10, 47340, Control_c, 0, 64, 0
10, 47340, Note_on_c, 0, 59, 127
10, 47340, Note_on_c, 0, 62, 127
10, 47520, Note_on_c, 0, 62, 0
10, 47520, Note_on_c, 0, 59, 0
10, 47520, Note_on_c, 0, 66, 0
10, 47520, Note_on_c, 0, 83, 97
10, 47520, Note_on_c, 0, 78, 127
10, 47520, Note_on_c, 0, 66, 127
10, 47520, Note_on_c, 0, 62, 127
10, 47520, Note_on_c, 0, 71, 127
10, 47700, Note_on_c, 0, 71, 0
10, 47700, Note_on_c, 0, 66, 0
10, 47700, Note_on_c, 0, 83, 0
10, 47700, Note_on_c, 0, 78, 0
10, 47700, Note_on_c, 0, 62, 0
10, 47700, Note_on_c, 0, 78, 97
10, 47700, Note_on_c, 0, 83, 127
10, 47700, Note_on_c, 0, 71, 97
10, 47700, Note_on_c, 0, 66, 127
10, 47700, Note_on_c, 0, 86, 127
10, 47880, Note_on_c, 0, 86, 0
10, 47880, Note_on_c, 0, 71, 0
10, 47880, Note_on_c, 0, 66, 0
10, 47880, Control_c, 0, 64, 0
10, 47940, Note_on_c, 0, 83, 0
10, 47940, Note_on_c, 0, 78, 0
10, 47940, Control_c, 0, 64, 127
10, 47940, Note_on_c, 0, 66, 65
10, 48000, Note_on_c, 0, 66, 0
10, 48000, Note_on_c, 0, 62, 73
10, 48060, Note_on_c, 0, 62, 0
10, 48060, Note_on_c, 0, 71, 81
10, 48120, Note_on_c, 0, 71, 0
10, 48120, Note_on_c, 0, 66, 89
10, 48180, Note_on_c, 0, 66, 0
10, 48180, Note_on_c, 0, 62, 97
10, 48240, Note_on_c, 0, 62, 0
10, 48240, Note_on_c, 0, 59, 105
10, 48240, Control_c, 0, 64, 0
10, 48300, Note_on_c, 0, 59, 0
10, 48300, Control_c, 0, 64, 127
10, 48300, Note_on_c, 0, 56, 127
10, 48300, Note_on_c, 0, 64, 127
10, 48300, Note_on_c, 0, 52, 127
10, 48300, Note_on_c, 0, 68, 127
10, 48480, Note_on_c, 0, 68, 0
10, 48480, Note_on_c, 0, 56, 0
10, 48480, Note_on_c, 0, 64, 0
10, 48480, Note_on_c, 0, 52, 0
10, 48480, Note_on_c, 0, 59, 127
10, 48480, Note_on_c, 0, 64, 127
10, 48480, Note_on_c, 0, 69, 127
10, 48660, Note_on_c, 0, 69, 0
10, 48660, Note_on_c, 0, 64, 0
10, 48660, Note_on_c, 0, 59, 0
10, 48660, Note_on_c, 0, 56, 97
10, 48660, Note_on_c, 0, 64, 127
10, 48660, Note_on_c, 0, 71, 127
10, 48720, Control_c, 0, 64, 0
10, 48780, Note_on_c, 0, 71, 0
10, 48780, Note_on_c, 0, 64, 0
10, 48780, Note_on_c, 0, 56, 0
10, 48780, Control_c, 0, 64, 127
10, 48780, Note_on_c, 0, 60, 127
10, 48780, Note_on_c, 0, 69, 127
10, 48780, Note_on_c, 0, 72, 127
10, 48960, Note_on_c, 0, 72, 0
10, 48960, Note_on_c, 0, 69, 0
10, 48960, Note_on_c, 0, 60, 0
10, 48960, Note_on_c, 0, 62, 127
10, 48960, Note_on_c, 0, 69, 127
10, 48960, Note_on_c, 0, 74, 127
10, 49080, Note_on_c, 0, 74, 87
10, 49140, Note_on_c, 0, 74, 0
10, 49140, Note_on_c, 0, 62, 0
10, 49140, Note_on_c, 0, 69, 0
10, 49140, Note_on_c, 0, 74, 0
10, 49140, Note_on_c, 0, 72, 127
10, 49140, Note_on_c, 0, 64, 127
10, 49140, Note_on_c, 0, 76, 127
10, 49200, Note_on_c, 0, 72, 0
10, 49200, Control_c, 0, 64, 0
10, 49260, Note_on_c, 0, 76, 0
10, 49260, Note_on_c, 0, 64, 0
10, 49260, Control_c, 0, 64, 127
10, 49260, Note_on_c, 0, 66, 127
10, 49260, Note_on_c, 0, 57, 127
10, 49260, Note_on_c, 0, 69, 127
10, 49440, Note_on_c, 0, 69, 0
10, 49440, Note_on_c, 0, 57, 0
10, 49440, Note_on_c, 0, 66, 0
10, 49440, Note_on_c, 0, 62, 127
10, 49440, Note_on_c, 0, 55, 127
10, 49440, Note_on_c, 0, 67, 127
10, 49620, Note_on_c, 0, 67, 0
10, 49620, Note_on_c, 0, 55, 0
10, 49620, Note_on_c, 0, 62, 0
10, 49620, Note_on_c, 0, 62, 107
10, 49620, Note_on_c, 0, 54, 127
10, 49620, Note_on_c, 0, 66, 127
10, 49680, Note_on_c, 0, 66, 0
10, 49680, Note_on_c, 0, 54, 0
10, 49680, Control_c, 0, 64, 0
10, 49740, Note_on_c, 0, 62, 0
10, 49740, Note_on_c, 0, 54, 127
10, 49740, Note_on_c, 0, 50, 127
10, 49740, Note_on_c, 0, 57, 127
10, 49740, Note_on_c, 0, 62, 127
10, 50220, Note_on_c, 0, 62, 0
10, 50220, Note_on_c, 0, 54, 0
10, 50220, Note_on_c, 0, 50, 0
10, 50220, Note_on_c, 0, 57, 0
10, 50220, Control_c, 0, 64, 127
10, 50220, Note_on_c, 0, 64, 127
10, 50220, Note_on_c, 0, 68, 127
10, 50400, Note_on_c, 0, 68, 0
10, 50400, Note_on_c, 0, 64, 0
10, 50400, Note_on_c, 0, 68, 127
10, 50400, Note_on_c, 0, 71, 127
10, 50580, Note_on_c, 0, 71, 0
10, 50580, Note_on_c, 0, 68, 0
10, 50580, Note_on_c, 0, 64, 127
10, 50580, Note_on_c, 0, 71, 127
10, 50580, Note_on_c, 0, 76, 127
10, 50730, Note_on_c, 0, 56, 85
10, 50760, Note_on_c, 0, 56, 0
10, 50760, Note_on_c, 0, 64, 0
10, 50760, Note_on_c, 0, 71, 0
10, 50760, Note_on_c, 0, 59, 110
10, 50790, Note_on_c, 0, 59, 0
10, 50790, Note_on_c, 0, 64, 127
10, 50820, Note_on_c, 0, 64, 0
10, 50820, Note_on_c, 0, 76, 0
10, 50820, Note_on_c, 0, 68, 127
10, 50850, Note_on_c, 0, 68, 0
10, 50850, Note_on_c, 0, 71, 127
10, 50880, Note_on_c, 0, 71, 0
10, 50880, Note_on_c, 0, 76, 127
10, 50910, Note_on_c, 0, 76, 0
10, 50910, Note_on_c, 0, 80, 127
10, 50940, Note_on_c, 0, 80, 0
10, 50940, Control_c, 0, 64, 127
10, 50940, Control_c, 0, 64, 0
10, 50940, Note_on_c, 0, 71, 127
10, 50940, Note_on_c, 0, 83, 127
10, 51000, Note_on_c, 0, 83, 0
10, 51000, Note_on_c, 0, 71, 0
10, 51000, Note_on_c, 0, 69, 127
10, 51000, Note_on_c, 0, 81, 127
10, 51060, Note_on_c, 0, 81, 0
10, 51060, Note_on_c, 0, 69, 0
10, 51060, Note_on_c, 0, 68, 127
10, 51060, Note_on_c, 0, 80, 127
10, 51120, Note_on_c, 0, 80, 0
10, 51120, Note_on_c, 0, 68, 0
10, 51120, Note_on_c, 0, 66, 127
10, 51120, Note_on_c, 0, 78, 127
10, 51180, Note_on_c, 0, 78, 0
10, 51180, Note_on_c, 0, 66, 0
10, 51180, Note_on_c, 0, 66, 127
10, 51180, Control_c, 0, 64, 127
10, 51180, Control_c, 0, 64, 0
10, 51180, Note_on_c, 0, 59, 127
10, 51180, Note_on_c, 0, 62, 127
10, 51360, Note_on_c, 0, 62, 0
10, 51360, Note_on_c, 0, 59, 0
10, 51360, Note_on_c, 0, 66, 0
10, 51360, Note_on_c, 0, 83, 97
10, 51360, Note_on_c, 0, 78, 127
10, 51360, Note_on_c, 0, 66, 127
10, 51360, Note_on_c, 0, 62, 127
10, 51360, Note_on_c, 0, 71, 127
10, 51540, Note_on_c, 0, 71, 0
10, 51540, Note_on_c, 0, 66, 0
10, 51540, Note_on_c, 0, 83, 0
10, 51540, Note_on_c, 0, 78, 0
10, 51540, Note_on_c, 0, 62, 0
10, 51540, Note_on_c, 0, 78, 97
10, 51540, Note_on_c, 0, 83, 127
10, 51540, Note_on_c, 0, 71, 97
10, 51540, Note_on_c, 0, 66, 127
10, 51540, Note_on_c, 0, 86, 127
10, 51600, Control_c, 0, 64, 0
10, 51660, Control_c, 0, 64, 127
10, 51720, Note_on_c, 0, 86, 0
10, 51720, Note_on_c, 0, 71, 0
10, 51720, Note_on_c, 0, 66, 0
10, 51780, Note_on_c, 0, 83, 0
10, 51780, Note_on_c, 0, 78, 0
10, 51780, Note_on_c, 0, 76, 127
10, 51780, Note_on_c, 0, 85, 127
10, 51840, Note_on_c, 0, 85, 0
10, 51840, Note_on_c, 0, 76, 0
10, 51840, Note_on_c, 0, 74, 127
10, 51840, Note_on_c, 0, 83, 127
10, 51900, Note_on_c, 0, 83, 0
10, 51900, Note_on_c, 0, 74, 0
10, 51900, Note_on_c, 0, 73, 127
10, 51900, Note_on_c, 0, 81, 127
10, 51960, Note_on_c, 0, 81, 0
10, 51960, Note_on_c, 0, 73, 0
10, 51960, Note_on_c, 0, 71, 127
10, 51960, Note_on_c, 0, 80, 127
10, 52020, Note_on_c, 0, 80, 0
10, 52020, Note_on_c, 0, 71, 0
10, 52020, Note_on_c, 0, 69, 127
10, 52020, Note_on_c, 0, 78, 127
10, 52080, Note_on_c, 0, 78, 0
10, 52080, Note_on_c, 0, 69, 0
10, 52080, Control_c, 0, 64, 0
10, 52080, Note_on_c, 0, 68, 127
10, 52080, Note_on_c, 0, 76, 127
10, 52140, Note_on_c, 0, 76, 0
10, 52140, Note_on_c, 0, 68, 0
10, 52140, Control_c, 0, 64, 127
10, 52140, Note_on_c, 0, 56, 127
10, 52140, Note_on_c, 0, 64, 127
10, 52140, Note_on_c, 0, 52, 127
10, 52140, Note_on_c, 0, 68, 127
10, 52320, Note_on_c, 0, 68, 0
10, 52320, Note_on_c, 0, 56, 0
10, 52320, Note_on_c, 0, 64, 0
10, 52320, Note_on_c, 0, 52, 0
10, 52320, Note_on_c, 0, 59, 127
10, 52320, Note_on_c, 0, 64, 127
10, 52320, Note_on_c, 0, 69, 127
10, 52500, Note_on_c, 0, 69, 0
10, 52500, Note_on_c, 0, 64, 0
10, 52500, Note_on_c, 0, 59, 0
10, 52500, Note_on_c, 0, 56, 97
10, 52500, Note_on_c, 0, 64, 127
10, 52500, Note_on_c, 0, 71, 127
10, 52560, Control_c, 0, 64, 0
10, 52620, Note_on_c, 0, 71, 0
10, 52620, Note_on_c, 0, 64, 0
10, 52620, Note_on_c, 0, 56, 0
10, 52620, Control_c, 0, 64, 127
10, 52620, Note_on_c, 0, 60, 127
10, 52620, Note_on_c, 0, 69, 127
10, 52620, Note_on_c, 0, 72, 127
10, 52800, Note_on_c, 0, 72, 0
10, 52800, Note_on_c, 0, 69, 0
10, 52800, Note_on_c, 0, 60, 0
10, 52800, Note_on_c, 0, 62, 127
10, 52800, Note_on_c, 0, 69, 127
10, 52800, Note_on_c, 0, 74, 127
10, 52920, Note_on_c, 0, 74, 87
10, 52980, Note_on_c, 0, 74, 0
10, 52980, Note_on_c, 0, 62, 0
10, 52980, Note_on_c, 0, 69, 0
10, 52980, Note_on_c, 0, 74, 0
10, 52980, Note_on_c, 0, 72, 127
10, 52980, Note_on_c, 0, 64, 127
10, 52980, Note_on_c, 0, 76, 127
10, 53040, Note_on_c, 0, 72, 0
10, 53040, Control_c, 0, 64, 0
10, 53100, Note_on_c, 0, 76, 0
10, 53100, Note_on_c, 0, 64, 0
10, 53100, Control_c, 0, 64, 127
10, 53100, Note_on_c, 0, 66, 127
10, 53100, Note_on_c, 0, 57, 127
10, 53100, Note_on_c, 0, 69, 127
10, 53280, Note_on_c, 0, 69, 0
10, 53280, Note_on_c, 0, 57, 0
10, 53280, Note_on_c, 0, 66, 0
10, 53280, Note_on_c, 0, 62, 127
10, 53280, Note_on_c, 0, 55, 127
10, 53280, Note_on_c, 0, 67, 127
10, 53460, Note_on_c, 0, 67, 0
10, 53460, Note_on_c, 0, 55, 0
10, 53460, Note_on_c, 0, 62, 0
10, 53460, Note_on_c, 0, 62, 107
10, 53460, Note_on_c, 0, 54, 127
10, 53460, Note_on_c, 0, 66, 127
10, 53520, Note_on_c, 0, 66, 0
10, 53520, Note_on_c, 0, 54, 0
10, 53520, Control_c, 0, 64, 0
10, 53580, Note_on_c, 0, 62, 0
10, 53580, Note_on_c, 0, 54, 127
10, 53580, Note_on_c, 0, 50, 127
10, 53580, Note_on_c, 0, 57, 127
10, 53580, Note_on_c, 0, 62, 127
10, 54060, Note_on_c, 0, 62, 0
10, 54060, Note_on_c, 0, 54, 0
10, 54060, Note_on_c, 0, 50, 0
10, 54060, Note_on_c, 0, 57, 0
10, 59640, Note_on_c, 0, 33, 100
10, 59700, Note_on_c, 0, 64, 80
10, 59700, Note_on_c, 0, 60, 80
10, 59700, Note_on_c, 0, 52, 80
10, 59700, Note_on_c, 0, 57, 80
10, 59730, Note_on_c, 0, 57, 0
10, 59730, Note_on_c, 0, 60, 0
10, 59730, Note_on_c, 0, 52, 0
10, 59730, Note_on_c, 0, 64, 0
10, 59820, Note_on_c, 0, 64, 80
10, 59820, Note_on_c, 0, 60, 80
10, 59820, Note_on_c, 0, 52, 80
10, 59820, Note_on_c, 0, 57, 80
10, 60000, Note_on_c, 0, 33, 0
10, 60000, Note_on_c, 0, 41, 80
10, 60000, Note_on_c, 0, 29, 100
10, 60120, Note_on_c, 0, 29, 0
10, 60120, Note_on_c, 0, 28, 100
10, 60180, Note_on_c, 0, 60, 0
10, 60180, Note_on_c, 0, 57, 0
10, 60180, Note_on_c, 0, 64, 0
10, 60180, Note_on_c, 0, 52, 0
10, 60240, Note_on_c, 0, 28, 0
10, 60240, Note_on_c, 0, 33, 100
10, 60360, Note_on_c, 0, 33, 0
10, 60360, Note_on_c, 0, 41, 0
10, 60360, Note_on_c, 0, 28, 100
10, 60420, Note_on_c, 0, 50, 80
10, 60420, Note_on_c, 0, 62, 80
10, 60420, Note_on_c, 0, 40, 80
10, 60420, Note_on_c, 0, 47, 80
10, 60420, Note_on_c, 0, 56, 80
10, 60450, Note_on_c, 0, 56, 0
10, 60450, Note_on_c, 0, 50, 0
10, 60450, Note_on_c, 0, 62, 0
10, 60450, Note_on_c, 0, 40, 0
10, 60450, Note_on_c, 0, 47, 0
10, 60540, Note_on_c, 0, 40, 80
10, 60540, Note_on_c, 0, 62, 80
10, 60540, Note_on_c, 0, 47, 80
10, 60540, Note_on_c, 0, 50, 80
10, 60540, Note_on_c, 0, 56, 80
10, 60720, Note_on_c, 0, 28, 0
10, 60720, Note_on_c, 0, 39, 80
10, 60840, Note_on_c, 0, 39, 0
10, 60840, Note_on_c, 0, 38, 80
10, 60900, Note_on_c, 0, 56, 0
10, 60900, Note_on_c, 0, 50, 0
10, 60900, Note_on_c, 0, 47, 0
10, 60900, Note_on_c, 0, 40, 0
10, 60900, Note_on_c, 0, 62, 0
10, 60960, Note_on_c, 0, 38, 0
10, 60960, Note_on_c, 0, 36, 100
10, 61080, Note_on_c, 0, 36, 0
10, 61080, Note_on_c, 0, 33, 100
10, 61140, Note_on_c, 0, 64, 80
10, 61140, Note_on_c, 0, 60, 80
10, 61140, Note_on_c, 0, 52, 80
10, 61140, Note_on_c, 0, 57, 80
10, 61170, Note_on_c, 0, 57, 0
10, 61170, Note_on_c, 0, 60, 0
10, 61170, Note_on_c, 0, 52, 0
10, 61170, Note_on_c, 0, 64, 0
10, 61260, Note_on_c, 0, 64, 80
10, 61260, Note_on_c, 0, 60, 80
10, 61260, Note_on_c, 0, 52, 80
10, 61260, Note_on_c, 0, 57, 80
10, 61440, Note_on_c, 0, 33, 0
10, 61440, Note_on_c, 0, 29, 100
10, 61440, Note_on_c, 0, 41, 80
10, 61620, Note_on_c, 0, 52, 0
10, 61620, Note_on_c, 0, 57, 0
10, 61620, Note_on_c, 0, 64, 0
10, 61620, Note_on_c, 0, 60, 0
10, 61800, Note_on_c, 0, 41, 0
10, 61800, Note_on_c, 0, 29, 0
10, 61800, Note_on_c, 0, 28, 100
10, 61860, Note_on_c, 0, 50, 80
10, 61860, Note_on_c, 0, 62, 80
10, 61860, Note_on_c, 0, 40, 80
10, 61860, Note_on_c, 0, 47, 80
10, 61860, Note_on_c, 0, 56, 80
10, 61890, Note_on_c, 0, 56, 0
10, 61890, Note_on_c, 0, 50, 0
10, 61890, Note_on_c, 0, 62, 0
10, 61890, Note_on_c, 0, 40, 0
10, 61890, Note_on_c, 0, 47, 0
10, 61980, Note_on_c, 0, 40, 80
10, 61980, Note_on_c, 0, 62, 80
10, 61980, Note_on_c, 0, 47, 80
10, 61980, Note_on_c, 0, 50, 80
10, 61980, Note_on_c, 0, 56, 80
10, 62160, Note_on_c, 0, 56, 0
10, 62160, Note_on_c, 0, 40, 0
10, 62160, Note_on_c, 0, 62, 0
10, 62160, Note_on_c, 0, 28, 0
10, 62160, Note_on_c, 0, 50, 0
10, 62160, Note_on_c, 0, 47, 0
10, 62160, Note_on_c, 0, 33, 100
10, 62160, Note_on_c, 0, 52, 80
10, 62160, Note_on_c, 0, 45, 80
10, 62280, Note_on_c, 0, 45, 0
10, 62280, Note_on_c, 0, 52, 0
10, 62280, Note_on_c, 0, 33, 0
10, 62520, Note_on_c, 0, 33, 100
10, 62580, Note_on_c, 0, 64, 80
10, 62580, Note_on_c, 0, 60, 80
10, 62580, Note_on_c, 0, 52, 80
10, 62580, Note_on_c, 0, 57, 80
10, 62610, Note_on_c, 0, 57, 0
10, 62610, Note_on_c, 0, 60, 0
10, 62610, Note_on_c, 0, 52, 0
10, 62610, Note_on_c, 0, 64, 0
10, 62700, Note_on_c, 0, 64, 80
10, 62700, Note_on_c, 0, 60, 80
10, 62700, Note_on_c, 0, 52, 80
10, 62700, Note_on_c, 0, 57, 80
10, 62880, Note_on_c, 0, 57, 0
10, 62880, Note_on_c, 0, 60, 0
10, 62880, Note_on_c, 0, 33, 0
10, 62880, Note_on_c, 0, 64, 0
10, 62880, Note_on_c, 0, 52, 0
10, 62880, Note_on_c, 0, 29, 100
10, 62880, Note_on_c, 0, 41, 80
10, 63000, Note_on_c, 0, 29, 0
10, 63000, Note_on_c, 0, 29, 100
10, 63120, Note_on_c, 0, 29, 0
10, 63120, Note_on_c, 0, 36, 100
10, 63240, Note_on_c, 0, 36, 0
10, 63240, Note_on_c, 0, 41, 0
10, 63240, Note_on_c, 0, 28, 100
10, 63300, Note_on_c, 0, 50, 80
10, 63300, Note_on_c, 0, 62, 80
10, 63300, Note_on_c, 0, 40, 80
10, 63300, Note_on_c, 0, 47, 80
10, 63300, Note_on_c, 0, 56, 80
10, 63330, Note_on_c, 0, 56, 0
10, 63330, Note_on_c, 0, 50, 0
10, 63330, Note_on_c, 0, 62, 0
10, 63330, Note_on_c, 0, 40, 0
10, 63330, Note_on_c, 0, 47, 0
10, 63420, Note_on_c, 0, 40, 80
10, 63420, Note_on_c, 0, 62, 80
10, 63420, Note_on_c, 0, 47, 80
10, 63420, Note_on_c, 0, 50, 80
10, 63420, Note_on_c, 0, 56, 80
10, 63600, Note_on_c, 0, 56, 0
10, 63600, Note_on_c, 0, 40, 0
10, 63600, Note_on_c, 0, 62, 0
10, 63600, Note_on_c, 0, 28, 0
10, 63600, Note_on_c, 0, 50, 0
10, 63600, Note_on_c, 0, 47, 0
10, 63600, Control_c, 0, 64, 127
10, 63600, Note_on_c, 0, 39, 100
10, 63660, Note_on_c, 0, 57, 80
10, 63720, Note_on_c, 0, 57, 0
10, 63720, Note_on_c, 0, 39, 0
10, 63720, Note_on_c, 0, 55, 82
10, 63720, Note_on_c, 0, 60, 82
10, 63720, Note_on_c, 0, 38, 100
10, 63780, Note_on_c, 0, 60, 0
10, 63780, Note_on_c, 0, 55, 0
10, 63780, Note_on_c, 0, 57, 85
10, 63840, Note_on_c, 0, 57, 0
10, 63840, Note_on_c, 0, 38, 0
10, 63840, Note_on_c, 0, 55, 87
10, 63840, Note_on_c, 0, 62, 87
10, 63840, Note_on_c, 0, 36, 100
10, 63900, Note_on_c, 0, 62, 0
10, 63900, Note_on_c, 0, 55, 0
10, 63900, Control_c, 0, 64, 0
10, 63900, Note_on_c, 0, 52, 90
10, 63900, Note_on_c, 0, 57, 90
10, 63960, Note_on_c, 0, 57, 0
10, 63960, Note_on_c, 0, 52, 0
10, 63960, Note_on_c, 0, 36, 0
10, 63960, Note_on_c, 0, 33, 100
10, 64020, Note_on_c, 0, 64, 80
10, 64020, Note_on_c, 0, 60, 80
10, 64020, Note_on_c, 0, 52, 80
10, 64020, Note_on_c, 0, 57, 80
10, 64050, Note_on_c, 0, 57, 0
10, 64050, Note_on_c, 0, 60, 0
10, 64050, Note_on_c, 0, 52, 0
10, 64050, Note_on_c, 0, 64, 0
10, 64140, Note_on_c, 0, 64, 80
10, 64140, Note_on_c, 0, 60, 80
10, 64140, Note_on_c, 0, 52, 80
10, 64140, Note_on_c, 0, 57, 80
10, 64320, Note_on_c, 0, 57, 0
10, 64320, Note_on_c, 0, 60, 0
10, 64320, Note_on_c, 0, 33, 0
10, 64320, Note_on_c, 0, 64, 0
10, 64320, Note_on_c, 0, 52, 0
10, 64320, Note_on_c, 0, 29, 100
10, 64320, Note_on_c, 0, 41, 80
10, 64680, Note_on_c, 0, 41, 0
10, 64680, Note_on_c, 0, 29, 0
10, 64680, Note_on_c, 0, 28, 100
10, 64740, Note_on_c, 0, 50, 80
10, 64740, Note_on_c, 0, 62, 80
10, 64740, Note_on_c, 0, 40, 80
10, 64740, Note_on_c, 0, 47, 80
10, 64740, Note_on_c, 0, 56, 80
10, 64770, Note_on_c, 0, 56, 0
10, 64770, Note_on_c, 0, 50, 0
10, 64770, Note_on_c, 0, 62, 0
10, 64770, Note_on_c, 0, 40, 0
10, 64770, Note_on_c, 0, 47, 0
10, 64860, Note_on_c, 0, 40, 80
10, 64860, Note_on_c, 0, 62, 80
10, 64860, Note_on_c, 0, 47, 80
10, 64860, Note_on_c, 0, 50, 80
10, 64860, Note_on_c, 0, 56, 80
10, 65040, Note_on_c, 0, 56, 0
10, 65040, Note_on_c, 0, 40, 0
10, 65040, Note_on_c, 0, 62, 0
10, 65040, Note_on_c, 0, 28, 0
10, 65040, Note_on_c, 0, 50, 0
10, 65040, Note_on_c, 0, 47, 0
10, 65040, Note_on_c, 0, 33, 100
10, 65040, Note_on_c, 0, 64, 100
10, 65040, Note_on_c, 0, 60, 100
10, 65040, Note_on_c, 0, 57, 100
10, 65040, Note_on_c, 0, 52, 100
10, 65400, Note_on_c, 0, 52, 0
10, 65400, Note_on_c, 0, 60, 0
10, 65400, Note_on_c, 0, 57, 0
10, 65400, Note_on_c, 0, 64, 0
10, 65460, Note_on_c, 0, 32, 80
10, 65516, Note_on_c, 0, 32, 0
10, 65520, Note_on_c, 0, 35, 81
10, 65576, Note_on_c, 0, 35, 0
10, 65580, Note_on_c, 0, 40, 83
10, 65636, Note_on_c, 0, 40, 0
10, 65640, Note_on_c, 0, 36, 85
10, 65696, Note_on_c, 0, 36, 0
10, 65700, Note_on_c, 0, 40, 87
10, 65756, Note_on_c, 0, 40, 0
10, 65760, Note_on_c, 0, 33, 0
10, 65760, Note_on_c, 0, 45, 89
10, 65816, Note_on_c, 0, 45, 0
10, 65820, Note_on_c, 0, 44, 90
10, 65876, Note_on_c, 0, 44, 0
10, 65880, Note_on_c, 0, 47, 92
10, 65936, Note_on_c, 0, 47, 0
10, 65940, Note_on_c, 0, 50, 94
10, 65996, Note_on_c, 0, 50, 0
10, 66000, Note_on_c, 0, 47, 96
10, 66056, Note_on_c, 0, 47, 0
10, 66060, Note_on_c, 0, 48, 98
10, 66116, Note_on_c, 0, 48, 0
10, 66120, Note_on_c, 0, 33, 100
10, 66180, Note_on_c, 0, 64, 100
10, 66180, Note_on_c, 0, 60, 100
10, 66180, Note_on_c, 0, 52, 100
10, 66180, Note_on_c, 0, 57, 100
10, 66210, Note_on_c, 0, 57, 0
10, 66210, Note_on_c, 0, 60, 0
10, 66210, Note_on_c, 0, 52, 0
10, 66210, Note_on_c, 0, 64, 0
10, 66300, Note_on_c, 0, 64, 100
10, 66300, Note_on_c, 0, 60, 100
10, 66300, Note_on_c, 0, 52, 100
10, 66300, Note_on_c, 0, 57, 100
10, 66480, Note_on_c, 0, 33, 0
10, 66480, Note_on_c, 0, 41, 100
10, 66480, Note_on_c, 0, 29, 100
10, 66600, Note_on_c, 0, 29, 0
10, 66600, Note_on_c, 0, 28, 100
10, 66660, Note_on_c, 0, 60, 0
10, 66660, Note_on_c, 0, 57, 0
10, 66660, Note_on_c, 0, 64, 0
10, 66660, Note_on_c, 0, 52, 0
10, 66720, Note_on_c, 0, 28, 0
10, 66720, Note_on_c, 0, 33, 100
10, 66840, Note_on_c, 0, 33, 0
10, 66840, Note_on_c, 0, 41, 0
10, 66840, Note_on_c, 0, 28, 100
10, 66900, Note_on_c, 0, 50, 100
10, 66900, Note_on_c, 0, 62, 100
10, 66900, Note_on_c, 0, 40, 100
10, 66900, Note_on_c, 0, 47, 100
10, 66900, Note_on_c, 0, 56, 100
10, 66930, Note_on_c, 0, 56, 0
10, 66930, Note_on_c, 0, 50, 0
10, 66930, Note_on_c, 0, 62, 0
10, 66930, Note_on_c, 0, 40, 0
10, 66930, Note_on_c, 0, 47, 0
10, 67020, Note_on_c, 0, 40, 100
10, 67020, Note_on_c, 0, 62, 100
10, 67020, Note_on_c, 0, 47, 100
10, 67020, Note_on_c, 0, 50, 100
10, 67020, Note_on_c, 0, 56, 100
10, 67200, Note_on_c, 0, 28, 0
10, 67200, Note_on_c, 0, 39, 100
10, 67320, Note_on_c, 0, 39, 0
10, 67320, Note_on_c, 0, 38, 100
10, 67380, Note_on_c, 0, 56, 0
10, 67380, Note_on_c, 0, 50, 0
10, 67380, Note_on_c, 0, 47, 0
10, 67380, Note_on_c, 0, 40, 0
10, 67380, Note_on_c, 0, 62, 0
10, 67440, Note_on_c, 0, 38, 0
10, 67440, Note_on_c, 0, 36, 100
10, 67560, Note_on_c, 0, 36, 0
10, 67560, Note_on_c, 0, 33, 100
10, 67620, Note_on_c, 0, 64, 100
10, 67620, Note_on_c, 0, 60, 100
10, 67620, Note_on_c, 0, 52, 100
10, 67620, Note_on_c, 0, 57, 100
10, 67650, Note_on_c, 0, 57, 0
10, 67650, Note_on_c, 0, 60, 0
10, 67650, Note_on_c, 0, 52, 0
10, 67650, Note_on_c, 0, 64, 0
10, 67740, Note_on_c, 0, 64, 100
10, 67740, Note_on_c, 0, 60, 100
10, 67740, Note_on_c, 0, 52, 100
10, 67740, Note_on_c, 0, 57, 100
10, 67920, Note_on_c, 0, 33, 0
10, 67920, Note_on_c, 0, 29, 100
10, 67920, Note_on_c, 0, 41, 100
10, 68100, Note_on_c, 0, 52, 0
10, 68100, Note_on_c, 0, 57, 0
10, 68100, Note_on_c, 0, 64, 0
10, 68100, Note_on_c, 0, 60, 0
10, 68280, Note_on_c, 0, 41, 0
10, 68280, Note_on_c, 0, 29, 0
10, 68280, Note_on_c, 0, 28, 100
10, 68340, Note_on_c, 0, 50, 100
10, 68340, Note_on_c, 0, 62, 100
10, 68340, Note_on_c, 0, 40, 100
10, 68340, Note_on_c, 0, 47, 100
10, 68340, Note_on_c, 0, 56, 100
10, 68370, Note_on_c, 0, 56, 0
10, 68370, Note_on_c, 0, 50, 0
10, 68370, Note_on_c, 0, 62, 0
10, 68370, Note_on_c, 0, 40, 0
10, 68370, Note_on_c, 0, 47, 0
10, 68460, Note_on_c, 0, 40, 100
10, 68460, Note_on_c, 0, 62, 100
10, 68460, Note_on_c, 0, 47, 100
10, 68460, Note_on_c, 0, 50, 100
10, 68460, Note_on_c, 0, 56, 100
10, 68640, Note_on_c, 0, 56, 0
10, 68640, Note_on_c, 0, 40, 0
10, 68640, Note_on_c, 0, 62, 0
10, 68640, Note_on_c, 0, 28, 0
10, 68640, Note_on_c, 0, 50, 0
10, 68640, Note_on_c, 0, 47, 0
10, 68640, Note_on_c, 0, 33, 100
10, 68640, Note_on_c, 0, 52, 100
10, 68640, Note_on_c, 0, 45, 100
10, 68760, Note_on_c, 0, 45, 0
10, 68760, Note_on_c, 0, 52, 0
10, 68760, Note_on_c, 0, 33, 0
10, 69000, Note_on_c, 0, 33, 100
10, 69060, Note_on_c, 0, 64, 100
10, 69060, Note_on_c, 0, 60, 100
10, 69060, Note_on_c, 0, 52, 100
10, 69060, Note_on_c, 0, 57, 100
10, 69090, Note_on_c, 0, 57, 0
10, 69090, Note_on_c, 0, 60, 0
10, 69090, Note_on_c, 0, 52, 0
10, 69090, Note_on_c, 0, 64, 0
10, 69180, Note_on_c, 0, 64, 100
10, 69180, Note_on_c, 0, 60, 100
10, 69180, Note_on_c, 0, 52, 100
10, 69180, Note_on_c, 0, 57, 100
10, 69360, Note_on_c, 0, 57, 0
10, 69360, Note_on_c, 0, 60, 0
10, 69360, Note_on_c, 0, 33, 0
10, 69360, Note_on_c, 0, 64, 0
10, 69360, Note_on_c, 0, 52, 0
10, 69360, Note_on_c, 0, 29, 100
10, 69360, Note_on_c, 0, 41, 100
10, 69480, Note_on_c, 0, 29, 0
10, 69480, Note_on_c, 0, 29, 100
10, 69600, Note_on_c, 0, 29, 0
10, 69600, Note_on_c, 0, 36, 100
10, 69720, Note_on_c, 0, 36, 0
10, 69720, Note_on_c, 0, 41, 0
10, 69720, Note_on_c, 0, 28, 100
10, 69780, Note_on_c, 0, 50, 100
10, 69780, Note_on_c, 0, 62, 100
10, 69780, Note_on_c, 0, 40, 100
10, 69780, Note_on_c, 0, 47, 100
10, 69780, Note_on_c, 0, 56, 100
10, 69810, Note_on_c, 0, 56, 0
10, 69810, Note_on_c, 0, 50, 0
10, 69810, Note_on_c, 0, 62, 0
10, 69810, Note_on_c, 0, 40, 0
10, 69810, Note_on_c, 0, 47, 0
10, 69900, Note_on_c, 0, 40, 100
10, 69900, Note_on_c, 0, 62, 100
10, 69900, Note_on_c, 0, 47, 100
10, 69900, Note_on_c, 0, 50, 100
10, 69900, Note_on_c, 0, 56, 100
10, 70080, Note_on_c, 0, 56, 0
10, 70080, Note_on_c, 0, 40, 0
10, 70080, Note_on_c, 0, 62, 0
10, 70080, Note_on_c, 0, 28, 0
10, 70080, Note_on_c, 0, 50, 0
10, 70080, Note_on_c, 0, 47, 0
10, 70080, Control_c, 0, 64, 127
10, 70080, Note_on_c, 0, 39, 100
10, 70140, Note_on_c, 0, 57, 80
10, 70200, Note_on_c, 0, 57, 0
10, 70200, Note_on_c, 0, 39, 0
10, 70200, Note_on_c, 0, 55, 82
10, 70200, Note_on_c, 0, 60, 82
10, 70200, Note_on_c, 0, 38, 100
10, 70260, Note_on_c, 0, 60, 0
10, 70260, Note_on_c, 0, 55, 0
10, 70260, Note_on_c, 0, 57, 85
10, 70320, Note_on_c, 0, 57, 0
10, 70320, Note_on_c, 0, 38, 0
10, 70320, Note_on_c, 0, 55, 87
10, 70320, Note_on_c, 0, 62, 87
10, 70320, Note_on_c, 0, 36, 100
10, 70380, Note_on_c, 0, 62, 0
10, 70380, Note_on_c, 0, 55, 0
10, 70380, Control_c, 0, 64, 0
10, 70380, Note_on_c, 0, 52, 90
10, 70380, Note_on_c, 0, 57, 90
10, 70440, Note_on_c, 0, 57, 0
10, 70440, Note_on_c, 0, 52, 0
10, 70440, Note_on_c, 0, 36, 0
10, 70440, Note_on_c, 0, 33, 100
10, 70500, Note_on_c, 0, 64, 100
10, 70500, Note_on_c, 0, 60, 100
10, 70500, Note_on_c, 0, 52, 100
10, 70500, Note_on_c, 0, 57, 100
10, 70530, Note_on_c, 0, 57, 0
10, 70530, Note_on_c, 0, 60, 0
10, 70530, Note_on_c, 0, 52, 0
10, 70530, Note_on_c, 0, 64, 0
10, 70620, Note_on_c, 0, 64, 100
10, 70620, Note_on_c, 0, 60, 100
10, 70620, Note_on_c, 0, 52, 100
10, 70620, Note_on_c, 0, 57, 100
10, 70800, Note_on_c, 0, 57, 0
10, 70800, Note_on_c, 0, 60, 0
10, 70800, Note_on_c, 0, 33, 0
10, 70800, Note_on_c, 0, 64, 0
10, 70800, Note_on_c, 0, 52, 0
10, 70800, Note_on_c, 0, 29, 100
10, 70800, Note_on_c, 0, 41, 100
10, 71160, Note_on_c, 0, 41, 0
10, 71160, Note_on_c, 0, 29, 0
10, 71160, Note_on_c, 0, 28, 100
10, 71220, Note_on_c, 0, 50, 100
10, 71220, Note_on_c, 0, 62, 100
10, 71220, Note_on_c, 0, 40, 100
10, 71220, Note_on_c, 0, 47, 100
10, 71220, Note_on_c, 0, 56, 100
10, 71250, Note_on_c, 0, 56, 0
10, 71250, Note_on_c, 0, 50, 0
10, 71250, Note_on_c, 0, 62, 0
10, 71250, Note_on_c, 0, 40, 0
10, 71250, Note_on_c, 0, 47, 0
10, 71340, Note_on_c, 0, 40, 100
10, 71340, Note_on_c, 0, 62, 100
10, 71340, Note_on_c, 0, 47, 100
10, 71340, Note_on_c, 0, 50, 100
10, 71340, Note_on_c, 0, 56, 100
10, 71520, Note_on_c, 0, 56, 0
10, 71520, Note_on_c, 0, 40, 0
10, 71520, Note_on_c, 0, 62, 0
10, 71520, Note_on_c, 0, 28, 0
10, 71520, Note_on_c, 0, 50, 0
10, 71520, Note_on_c, 0, 47, 0
10, 71520, Note_on_c, 0, 33, 100
10, 71520, Note_on_c, 0, 64, 100
10, 71520, Note_on_c, 0, 60, 100
10, 71520, Note_on_c, 0, 57, 100
10, 71520, Note_on_c, 0, 52, 100
10, 71880, Note_on_c, 0, 52, 0
10, 71880, Note_on_c, 0, 60, 0
10, 71880, Note_on_c, 0, 57, 0
10, 71880, Note_on_c, 0, 64, 0
10, 71940, Note_on_c, 0, 32, 100
10, 71994, Note_on_c, 0, 32, 0
10, 72000, Note_on_c, 0, 35, 100
10, 72054, Note_on_c, 0, 35, 0
10, 72060, Note_on_c, 0, 40, 100
10, 72114, Note_on_c, 0, 40, 0
10, 72120, Note_on_c, 0, 36, 100
10, 72174, Note_on_c, 0, 36, 0
10, 72180, Note_on_c, 0, 40, 100
10, 72234, Note_on_c, 0, 40, 0
10, 72240, Note_on_c, 0, 33, 0
10, 72240, Note_on_c, 0, 45, 100
10, 72294, Note_on_c, 0, 45, 0
10, 72300, Note_on_c, 0, 44, 100
10, 72354, Note_on_c, 0, 44, 0
10, 72360, Note_on_c, 0, 47, 100
10, 72414, Note_on_c, 0, 47, 0
10, 72420, Note_on_c, 0, 50, 100
10, 72474, Note_on_c, 0, 50, 0
10, 72480, Note_on_c, 0, 47, 100
10, 72534, Note_on_c, 0, 47, 0
10, 72540, Note_on_c, 0, 48, 100
10, 72594, Note_on_c, 0, 48, 0
10, 72600, Note_on_c, 0, 45, 100
10, 72654, Note_on_c, 0, 45, 0
10, 72720, Note_on_c, 0, 44, 100
10, 72750, Note_on_c, 0, 44, 0
10, 72750, Note_on_c, 0, 45, 100
10, 72780, Note_on_c, 0, 45, 0
10, 72780, Note_on_c, 0, 47, 100
10, 72840, Note_on_c, 0, 47, 0
10, 72840, Note_on_c, 0, 41, 100
10, 72900, Note_on_c, 0, 41, 0
10, 72900, Note_on_c, 0, 40, 100
10, 72960, Note_on_c, 0, 40, 0
10, 72960, Note_on_c, 0, 45, 100
10, 73020, Note_on_c, 0, 45, 0
10, 73020, Note_on_c, 0, 41, 100
10, 73050, Note_on_c, 0, 41, 0
10, 73050, Note_on_c, 0, 40, 100
10, 73080, Note_on_c, 0, 40, 0
10, 73080, Note_on_c, 0, 36, 100
10, 73140, Note_on_c, 0, 36, 0
10, 73140, Note_on_c, 0, 41, 100
10, 73200, Note_on_c, 0, 41, 0
10, 73200, Note_on_c, 0, 40, 100
10, 73260, Note_on_c, 0, 40, 0
10, 73260, Note_on_c, 0, 40, 60
10, 73300, Note_on_c, 0, 40, 0
10, 73300, Note_on_c, 0, 43, 60
10, 73340, Note_on_c, 0, 43, 0
10, 73340, Note_on_c, 0, 48, 60
10, 73380, Note_on_c, 0, 48, 0
10, 73380, Note_on_c, 0, 43, 60
10, 73420, Note_on_c, 0, 43, 0
10, 73420, Note_on_c, 0, 48, 60
10, 73460, Note_on_c, 0, 48, 0
10, 73460, Note_on_c, 0, 52, 60
10, 73500, Note_on_c, 0, 52, 0
10, 73560, Note_on_c, 0, 69, 80
10, 73560, Note_on_c, 0, 65, 80
10, 73560, Note_on_c, 0, 57, 80
10, 73560, Note_on_c, 0, 62, 80
10, 73590, Note_on_c, 0, 62, 0
10, 73590, Note_on_c, 0, 69, 0
10, 73590, Note_on_c, 0, 65, 0
10, 73590, Note_on_c, 0, 57, 0
10, 73590, Control_c, 0, 64, 127
10, 73680, Note_on_c, 0, 69, 80
10, 73680, Note_on_c, 0, 65, 80
10, 73680, Note_on_c, 0, 57, 80
10, 73680, Note_on_c, 0, 62, 80
10, 74040, Note_on_c, 0, 62, 0
10, 74040, Note_on_c, 0, 69, 0
10, 74040, Note_on_c, 0, 65, 0
10, 74040, Note_on_c, 0, 57, 0
10, 74160, Control_c, 0, 64, 0
10, 74280, Note_on_c, 0, 55, 80
10, 74280, Note_on_c, 0, 67, 80
10, 74280, Note_on_c, 0, 45, 80
10, 74280, Note_on_c, 0, 52, 80
10, 74280, Note_on_c, 0, 61, 80
10, 74310, Note_on_c, 0, 61, 0
10, 74310, Note_on_c, 0, 45, 0
10, 74310, Note_on_c, 0, 55, 0
10, 74310, Note_on_c, 0, 67, 0
10, 74310, Note_on_c, 0, 52, 0
10, 74310, Control_c, 0, 64, 127
10, 74400, Note_on_c, 0, 45, 80
10, 74400, Note_on_c, 0, 67, 80
10, 74400, Note_on_c, 0, 52, 80
10, 74400, Note_on_c, 0, 55, 80
10, 74400, Note_on_c, 0, 61, 80
10, 74760, Note_on_c, 0, 61, 0
10, 74760, Note_on_c, 0, 52, 0
10, 74760, Note_on_c, 0, 45, 0
10, 74760, Note_on_c, 0, 67, 0
10, 74760, Note_on_c, 0, 55, 0
10, 74880, Control_c, 0, 64, 0
10, 75000, Note_on_c, 0, 69, 80
10, 75000, Note_on_c, 0, 65, 80
10, 75000, Note_on_c, 0, 57, 80
10, 75000, Note_on_c, 0, 62, 80
10, 75030, Note_on_c, 0, 62, 0
10, 75030, Note_on_c, 0, 69, 0
10, 75030, Note_on_c, 0, 65, 0
10, 75030, Note_on_c, 0, 57, 0
10, 75030, Control_c, 0, 64, 127
10, 75120, Note_on_c, 0, 69, 80
10, 75120, Note_on_c, 0, 65, 80
10, 75120, Note_on_c, 0, 57, 80
10, 75120, Note_on_c, 0, 62, 80
10, 75480, Note_on_c, 0, 62, 0
10, 75480, Note_on_c, 0, 69, 0
10, 75480, Note_on_c, 0, 65, 0
10, 75480, Note_on_c, 0, 57, 0
10, 75600, Control_c, 0, 64, 0
10, 75720, Note_on_c, 0, 55, 80
10, 75720, Note_on_c, 0, 67, 80
10, 75720, Note_on_c, 0, 45, 80
10, 75720, Note_on_c, 0, 52, 80
10, 75720, Note_on_c, 0, 61, 80
10, 75750, Note_on_c, 0, 61, 0
10, 75750, Note_on_c, 0, 45, 0
10, 75750, Note_on_c, 0, 55, 0
10, 75750, Note_on_c, 0, 67, 0
10, 75750, Note_on_c, 0, 52, 0
10, 75750, Control_c, 0, 64, 127
10, 75840, Note_on_c, 0, 45, 80
10, 75840, Note_on_c, 0, 67, 80
10, 75840, Note_on_c, 0, 52, 80
10, 75840, Note_on_c, 0, 55, 80
10, 75840, Note_on_c, 0, 61, 80
10, 75990, Control_c, 0, 64, 0
10, 76020, Note_on_c, 0, 61, 0
10, 76020, Note_on_c, 0, 52, 0
10, 76020, Note_on_c, 0, 45, 0
10, 76020, Note_on_c, 0, 67, 0
10, 76020, Note_on_c, 0, 55, 0
10, 76020, Note_on_c, 0, 38, 100
10, 76020, Note_on_c, 0, 57, 80
10, 76020, Note_on_c, 0, 50, 80
10, 76140, Note_on_c, 0, 50, 0
10, 76140, Note_on_c, 0, 57, 0
10, 76140, Note_on_c, 0, 38, 0
10, 76440, Note_on_c, 0, 69, 80
10, 76440, Note_on_c, 0, 65, 80
10, 76440, Note_on_c, 0, 57, 80
10, 76440, Note_on_c, 0, 62, 80
10, 76470, Note_on_c, 0, 62, 0
10, 76470, Note_on_c, 0, 69, 0
10, 76470, Note_on_c, 0, 65, 0
10, 76470, Note_on_c, 0, 57, 0
10, 76470, Control_c, 0, 64, 127
10, 76560, Note_on_c, 0, 69, 80
10, 76560, Note_on_c, 0, 65, 80
10, 76560, Note_on_c, 0, 57, 80
10, 76560, Note_on_c, 0, 62, 80
10, 76740, Note_on_c, 0, 62, 0
10, 76740, Note_on_c, 0, 69, 0
10, 76740, Note_on_c, 0, 65, 0
10, 76740, Note_on_c, 0, 57, 0
10, 77010, Control_c, 0, 64, 0
10, 77160, Note_on_c, 0, 55, 80
10, 77160, Note_on_c, 0, 67, 80
10, 77160, Note_on_c, 0, 45, 80
10, 77160, Note_on_c, 0, 52, 80
10, 77160, Note_on_c, 0, 61, 80
10, 77190, Note_on_c, 0, 61, 0
10, 77190, Note_on_c, 0, 45, 0
10, 77190, Note_on_c, 0, 55, 0
10, 77190, Note_on_c, 0, 67, 0
10, 77190, Note_on_c, 0, 52, 0
10, 77190, Control_c, 0, 64, 127
10, 77280, Note_on_c, 0, 45, 80
10, 77280, Note_on_c, 0, 67, 80
10, 77280, Note_on_c, 0, 52, 80
10, 77280, Note_on_c, 0, 55, 80
10, 77280, Note_on_c, 0, 61, 80
10, 77430, Control_c, 0, 64, 0
10, 77460, Note_on_c, 0, 61, 0
10, 77460, Note_on_c, 0, 52, 0
10, 77460, Note_on_c, 0, 45, 0
10, 77460, Note_on_c, 0, 67, 0
10, 77460, Note_on_c, 0, 55, 0
10, 77460, Control_c, 0, 64, 127
10, 77520, Note_on_c, 0, 62, 80
10, 77580, Note_on_c, 0, 62, 0
10, 77580, Note_on_c, 0, 60, 82
10, 77580, Note_on_c, 0, 65, 82
10, 77640, Note_on_c, 0, 65, 0
10, 77640, Note_on_c, 0, 60, 0
10, 77640, Note_on_c, 0, 62, 85
10, 77700, Note_on_c, 0, 62, 0
10, 77700, Note_on_c, 0, 60, 87
10, 77700, Note_on_c, 0, 67, 87
10, 77760, Note_on_c, 0, 67, 0
10, 77760, Note_on_c, 0, 60, 0
10, 77760, Control_c, 0, 64, 0
10, 77760, Note_on_c, 0, 57, 90
10, 77760, Note_on_c, 0, 62, 90
10, 77820, Note_on_c, 0, 62, 0
10, 77820, Note_on_c, 0, 57, 0
10, 77880, Note_on_c, 0, 69, 80
10, 77880, Note_on_c, 0, 65, 80
10, 77880, Note_on_c, 0, 57, 80
10, 77880, Note_on_c, 0, 62, 80
10, 77910, Note_on_c, 0, 62, 0
10, 77910, Note_on_c, 0, 69, 0
10, 77910, Note_on_c, 0, 65, 0
10, 77910, Note_on_c, 0, 57, 0
10, 77910, Control_c, 0, 64, 127
10, 78000, Note_on_c, 0, 69, 80
10, 78000, Note_on_c, 0, 65, 80
10, 78000, Note_on_c, 0, 57, 80
10, 78000, Note_on_c, 0, 62, 80
10, 78150, Control_c, 0, 64, 0
10, 78180, Note_on_c, 0, 62, 0
10, 78180, Note_on_c, 0, 69, 0
10, 78180, Note_on_c, 0, 65, 0
10, 78180, Note_on_c, 0, 57, 0
10, 78180, Control_c, 0, 64, 127
10, 78510, Control_c, 0, 64, 0
10, 78600, Note_on_c, 0, 55, 80
10, 78600, Note_on_c, 0, 67, 80
10, 78600, Note_on_c, 0, 45, 80
10, 78600, Note_on_c, 0, 52, 80
10, 78600, Note_on_c, 0, 61, 80
10, 78630, Note_on_c, 0, 61, 0
10, 78630, Note_on_c, 0, 45, 0
10, 78630, Note_on_c, 0, 55, 0
10, 78630, Note_on_c, 0, 67, 0
10, 78630, Note_on_c, 0, 52, 0
10, 78630, Control_c, 0, 64, 127
10, 78720, Note_on_c, 0, 45, 80
10, 78720, Note_on_c, 0, 67, 80
10, 78720, Note_on_c, 0, 52, 80
10, 78720, Note_on_c, 0, 55, 80
10, 78720, Note_on_c, 0, 61, 80
10, 78870, Control_c, 0, 64, 0
10, 78900, Note_on_c, 0, 61, 0
10, 78900, Note_on_c, 0, 52, 0
10, 78900, Note_on_c, 0, 45, 0
10, 78900, Note_on_c, 0, 67, 0
10, 78900, Note_on_c, 0, 55, 0
10, 78900, Note_on_c, 0, 69, 100
10, 78900, Note_on_c, 0, 65, 100
10, 78900, Note_on_c, 0, 62, 100
10, 78900, Note_on_c, 0, 57, 100
10, 78960, Note_on_c, 0, 50, 100
10, 79020, Note_on_c, 0, 50, 0
10, 79080, Note_on_c, 0, 53, 100
10, 79140, Note_on_c, 0, 53, 0
10, 79200, Note_on_c, 0, 57, 100
10, 79260, Note_on_c, 0, 57, 0
10, 79260, Note_on_c, 0, 62, 0
10, 79260, Note_on_c, 0, 69, 0
10, 79260, Note_on_c, 0, 65, 0
10, 79260, Note_on_c, 0, 57, 0
10, 79680, Note_on_c, 0, 50, 100
10, 79740, Note_on_c, 0, 50, 0
10, 79800, Note_on_c, 0, 53, 100
10, 79860, Note_on_c, 0, 53, 0
10, 79920, Note_on_c, 0, 57, 100
10, 79980, Note_on_c, 0, 57, 0
10, 80040, Note_on_c, 0, 56, 100
10, 80100, Note_on_c, 0, 56, 0
10, 80160, Note_on_c, 0, 59, 100
10, 80220, Note_on_c, 0, 59, 0
10, 80280, Note_on_c, 0, 62, 100
10, 80340, Note_on_c, 0, 62, 0
10, 80400, Note_on_c, 0, 59, 100
10, 80460, Note_on_c, 0, 59, 0
10, 80580, Note_on_c, 0, 59, 100
10, 80640, Note_on_c, 0, 59, 0
10, 80640, Note_on_c, 0, 57, 100
10, 80700, Note_on_c, 0, 57, 0
10, 80880, Note_on_c, 0, 69, 80
10, 80880, Note_on_c, 0, 65, 80
10, 80880, Note_on_c, 0, 57, 80
10, 80880, Note_on_c, 0, 62, 80
10, 80910, Note_on_c, 0, 62, 0
10, 80910, Note_on_c, 0, 69, 0
10, 80910, Note_on_c, 0, 65, 0
10, 80910, Note_on_c, 0, 57, 0
10, 80910, Control_c, 0, 64, 127
10, 81000, Note_on_c, 0, 69, 80
10, 81000, Note_on_c, 0, 65, 80
10, 81000, Note_on_c, 0, 57, 80
10, 81000, Note_on_c, 0, 62, 80
10, 81360, Note_on_c, 0, 62, 0
10, 81360, Note_on_c, 0, 69, 0
10, 81360, Note_on_c, 0, 65, 0
10, 81360, Note_on_c, 0, 57, 0
10, 81480, Control_c, 0, 64, 0
10, 81600, Note_on_c, 0, 55, 80
10, 81600, Note_on_c, 0, 67, 80
10, 81600, Note_on_c, 0, 45, 80
10, 81600, Note_on_c, 0, 52, 80
10, 81600, Note_on_c, 0, 61, 80
10, 81630, Note_on_c, 0, 61, 0
10, 81630, Note_on_c, 0, 45, 0
10, 81630, Note_on_c, 0, 55, 0
10, 81630, Note_on_c, 0, 67, 0
10, 81630, Note_on_c, 0, 52, 0
10, 81630, Control_c, 0, 64, 127
10, 81720, Note_on_c, 0, 45, 80
10, 81720, Note_on_c, 0, 67, 80
10, 81720, Note_on_c, 0, 52, 80
10, 81720, Note_on_c, 0, 55, 80
10, 81720, Note_on_c, 0, 61, 80
10, 82080, Note_on_c, 0, 61, 0
10, 82080, Note_on_c, 0, 52, 0
10, 82080, Note_on_c, 0, 45, 0
10, 82080, Note_on_c, 0, 67, 0
10, 82080, Note_on_c, 0, 55, 0
10, 82200, Control_c, 0, 64, 0
10, 82320, Note_on_c, 0, 69, 80
10, 82320, Note_on_c, 0, 65, 80
10, 82320, Note_on_c, 0, 57, 80
10, 82320, Note_on_c, 0, 62, 80
10, 82350, Note_on_c, 0, 62, 0
10, 82350, Note_on_c, 0, 69, 0
10, 82350, Note_on_c, 0, 65, 0
10, 82350, Note_on_c, 0, 57, 0
10, 82350, Control_c, 0, 64, 127
10, 82440, Note_on_c, 0, 69, 80
10, 82440, Note_on_c, 0, 65, 80
10, 82440, Note_on_c, 0, 57, 80
10, 82440, Note_on_c, 0, 62, 80
10, 82800, Note_on_c, 0, 62, 0
10, 82800, Note_on_c, 0, 69, 0
10, 82800, Note_on_c, 0, 65, 0
10, 82800, Note_on_c, 0, 57, 0
10, 82920, Control_c, 0, 64, 0
10, 83040, Note_on_c, 0, 55, 80
10, 83040, Note_on_c, 0, 67, 80
10, 83040, Note_on_c, 0, 45, 80
10, 83040, Note_on_c, 0, 52, 80
10, 83040, Note_on_c, 0, 61, 80
10, 83070, Note_on_c, 0, 61, 0
10, 83070, Note_on_c, 0, 45, 0
10, 83070, Note_on_c, 0, 55, 0
10, 83070, Note_on_c, 0, 67, 0
10, 83070, Note_on_c, 0, 52, 0
10, 83070, Control_c, 0, 64, 127
10, 83160, Note_on_c, 0, 45, 80
10, 83160, Note_on_c, 0, 67, 80
10, 83160, Note_on_c, 0, 52, 80
10, 83160, Note_on_c, 0, 55, 80
10, 83160, Note_on_c, 0, 61, 80
10, 83310, Control_c, 0, 64, 0
10, 83340, Note_on_c, 0, 61, 0
10, 83340, Note_on_c, 0, 52, 0
10, 83340, Note_on_c, 0, 45, 0
10, 83340, Note_on_c, 0, 67, 0
10, 83340, Note_on_c, 0, 55, 0
10, 83340, Note_on_c, 0, 38, 100
10, 83340, Note_on_c, 0, 57, 80
10, 83340, Note_on_c, 0, 50, 80
10, 83460, Note_on_c, 0, 50, 0
10, 83460, Note_on_c, 0, 57, 0
10, 83460, Note_on_c, 0, 38, 0
10, 83760, Note_on_c, 0, 69, 80
10, 83760, Note_on_c, 0, 65, 80
10, 83760, Note_on_c, 0, 57, 80
10, 83760, Note_on_c, 0, 62, 80
10, 83790, Note_on_c, 0, 62, 0
10, 83790, Note_on_c, 0, 69, 0
10, 83790, Note_on_c, 0, 65, 0
10, 83790, Note_on_c, 0, 57, 0
10, 83790, Control_c, 0, 64, 127
10, 83880, Note_on_c, 0, 69, 80
10, 83880, Note_on_c, 0, 65, 80
10, 83880, Note_on_c, 0, 57, 80
10, 83880, Note_on_c, 0, 62, 80
10, 84060, Note_on_c, 0, 62, 0
10, 84060, Note_on_c, 0, 69, 0
10, 84060, Note_on_c, 0, 65, 0
10, 84060, Note_on_c, 0, 57, 0
10, 84330, Control_c, 0, 64, 0
10, 84480, Note_on_c, 0, 55, 80
10, 84480, Note_on_c, 0, 67, 80
10, 84480, Note_on_c, 0, 45, 80
10, 84480, Note_on_c, 0, 52, 80
10, 84480, Note_on_c, 0, 61, 80
10, 84510, Note_on_c, 0, 61, 0
10, 84510, Note_on_c, 0, 45, 0
10, 84510, Note_on_c, 0, 55, 0
10, 84510, Note_on_c, 0, 67, 0
10, 84510, Note_on_c, 0, 52, 0
10, 84510, Control_c, 0, 64, 127
10, 84600, Note_on_c, 0, 45, 80
10, 84600, Note_on_c, 0, 67, 80
10, 84600, Note_on_c, 0, 52, 80
10, 84600, Note_on_c, 0, 55, 80
10, 84600, Note_on_c, 0, 61, 80
10, 84750, Control_c, 0, 64, 0
10, 84780, Note_on_c, 0, 61, 0
10, 84780, Note_on_c, 0, 52, 0
10, 84780, Note_on_c, 0, 45, 0
10, 84780, Note_on_c, 0, 67, 0
10, 84780, Note_on_c, 0, 55, 0
10, 84780, Control_c, 0, 64, 127
10, 84840, Note_on_c, 0, 62, 80
10, 84900, Note_on_c, 0, 62, 0
10, 84900, Note_on_c, 0, 60, 82
10, 84900, Note_on_c, 0, 65, 82
10, 84960, Note_on_c, 0, 65, 0
10, 84960, Note_on_c, 0, 60, 0
10, 84960, Note_on_c, 0, 62, 85
10, 85020, Note_on_c, 0, 62, 0
10, 85020, Note_on_c, 0, 60, 87
10, 85020, Note_on_c, 0, 67, 87
10, 85080, Note_on_c, 0, 67, 0
10, 85080, Note_on_c, 0, 60, 0
10, 85080, Control_c, 0, 64, 0
10, 85080, Note_on_c, 0, 57, 90
10, 85080, Note_on_c, 0, 62, 90
10, 85140, Note_on_c, 0, 62, 0
10, 85140, Note_on_c, 0, 57, 0
10, 85200, Note_on_c, 0, 69, 80
10, 85200, Note_on_c, 0, 65, 80
10, 85200, Note_on_c, 0, 57, 80
10, 85200, Note_on_c, 0, 62, 80
10, 85230, Note_on_c, 0, 62, 0
10, 85230, Note_on_c, 0, 69, 0
10, 85230, Note_on_c, 0, 65, 0
10, 85230, Note_on_c, 0, 57, 0
10, 85230, Control_c, 0, 64, 127
10, 85320, Note_on_c, 0, 69, 80
10, 85320, Note_on_c, 0, 65, 80
10, 85320, Note_on_c, 0, 57, 80
10, 85320, Note_on_c, 0, 62, 80
10, 85470, Control_c, 0, 64, 0
10, 85500, Note_on_c, 0, 62, 0
10, 85500, Note_on_c, 0, 69, 0
10, 85500, Note_on_c, 0, 65, 0
10, 85500, Note_on_c, 0, 57, 0
10, 85500, Note_on_c, 0, 34, 100
10, 85500, Control_c, 0, 64, 127
10, 85500, Note_on_c, 0, 46, 80
10, 85830, Control_c, 0, 64, 0
10, 85860, Note_on_c, 0, 46, 0
10, 85860, Note_on_c, 0, 34, 0
10, 85920, Note_on_c, 0, 55, 80
10, 85920, Note_on_c, 0, 67, 80
10, 85920, Note_on_c, 0, 45, 80
10, 85920, Note_on_c, 0, 52, 80
10, 85920, Note_on_c, 0, 61, 80
10, 85950, Note_on_c, 0, 61, 0
10, 85950, Note_on_c, 0, 45, 0
10, 85950, Note_on_c, 0, 55, 0
10, 85950, Note_on_c, 0, 67, 0
10, 85950, Note_on_c, 0, 52, 0
10, 85950, Control_c, 0, 64, 127
10, 86040, Note_on_c, 0, 45, 80
10, 86040, Note_on_c, 0, 67, 80
10, 86040, Note_on_c, 0, 52, 80
10, 86040, Note_on_c, 0, 55, 80
10, 86040, Note_on_c, 0, 61, 80
10, 86190, Control_c, 0, 64, 0
10, 86220, Note_on_c, 0, 61, 0
10, 86220, Note_on_c, 0, 52, 0
10, 86220, Note_on_c, 0, 45, 0
10, 86220, Note_on_c, 0, 67, 0
10, 86220, Note_on_c, 0, 55, 0
10, 86280, Note_on_c, 0, 50, 100
10, 86340, Note_on_c, 0, 50, 0
10, 86400, Note_on_c, 0, 53, 100
10, 86460, Note_on_c, 0, 53, 0
10, 86520, Note_on_c, 0, 57, 100
10, 86580, Note_on_c, 0, 57, 0
10, 86760, Note_on_c, 0, 53, 100
10, 86820, Note_on_c, 0, 53, 0
10, 86820, Note_on_c, 0, 52, 100
10, 86880, Note_on_c, 0, 52, 0
10, 87000, Note_on_c, 0, 50, 100
10, 87060, Note_on_c, 0, 50, 0
10, 87120, Note_on_c, 0, 53, 100
10, 87180, Note_on_c, 0, 53, 0
10, 87240, Note_on_c, 0, 57, 100
10, 87300, Note_on_c, 0, 57, 0
10, 87360, Note_on_c, 0, 56, 100
10, 87420, Note_on_c, 0, 56, 0
10, 87480, Note_on_c, 0, 59, 100
10, 87540, Note_on_c, 0, 59, 0
10, 87600, Note_on_c, 0, 62, 100
10, 87660, Note_on_c, 0, 62, 0
10, 87720, Note_on_c, 0, 59, 100
10, 87780, Note_on_c, 0, 59, 0
10, 87780, Note_on_c, 0, 60, 100
10, 87900, Note_on_c, 0, 60, 0
10, 87900, Note_on_c, 0, 59, 100
10, 87960, Note_on_c, 0, 59, 0
10, 87960, Note_on_c, 0, 57, 100
10, 88020, Note_on_c, 0, 57, 0
10, 88140, Note_on_c, 0, 56, 100
10, 88260, Note_on_c, 0, 56, 0
10, 88260, Note_on_c, 0, 53, 100
10, 88320, Note_on_c, 0, 53, 0
10, 88320, Note_on_c, 0, 52, 100
10, 88380, Note_on_c, 0, 52, 0
10, 88500, Note_on_c, 0, 47, 100
10, 88620, Note_on_c, 0, 47, 0
10, 88620, Note_on_c, 0, 45, 100
10, 88680, Note_on_c, 0, 45, 0
10, 88680, Note_on_c, 0, 44, 100
10, 88740, Note_on_c, 0, 44, 0
10, 88920, Note_on_c, 0, 76, 90
10, 88920, Note_on_c, 0, 80, 90
10, 88980, Note_on_c, 0, 80, 0
10, 88980, Note_on_c, 0, 76, 0
10, 89040, Note_on_c, 0, 76, 90
10, 89040, Note_on_c, 0, 80, 90
10, 89160, Note_on_c, 0, 80, 0
10, 89160, Note_on_c, 0, 76, 0
10, 89160, Note_on_c, 0, 81, 90
10, 89220, Note_on_c, 0, 81, 0
10, 89220, Note_on_c, 0, 80, 90
10, 89220, Note_on_c, 0, 83, 90
10, 89580, Note_on_c, 0, 83, 0
10, 89580, Note_on_c, 0, 80, 0
10, 89580, Note_on_c, 0, 79, 90
10, 89580, Note_on_c, 0, 86, 90
10, 89700, Note_on_c, 0, 86, 0
10, 89700, Note_on_c, 0, 79, 0
10, 89700, Note_on_c, 0, 79, 90
10, 89700, Note_on_c, 0, 83, 90
10, 89760, Note_on_c, 0, 83, 0
10, 89760, Note_on_c, 0, 79, 0
10, 89760, Note_on_c, 0, 74, 90
10, 89760, Note_on_c, 0, 79, 90
10, 89880, Note_on_c, 0, 79, 0
10, 89880, Note_on_c, 0, 74, 0
10, 89880, Note_on_c, 0, 79, 90
10, 89880, Note_on_c, 0, 83, 90
10, 89940, Note_on_c, 0, 83, 0
10, 89940, Note_on_c, 0, 79, 0
10, 89940, Note_on_c, 0, 78, 90
10, 89940, Note_on_c, 0, 81, 90
10, 90060, Note_on_c, 0, 81, 0
10, 90060, Note_on_c, 0, 78, 0
10, 90060, Note_on_c, 0, 74, 90
10, 90060, Note_on_c, 0, 78, 90
10, 90120, Note_on_c, 0, 78, 0
10, 90120, Note_on_c, 0, 74, 0
10, 90120, Note_on_c, 0, 69, 90
10, 90120, Note_on_c, 0, 74, 90
10, 90300, Note_on_c, 0, 74, 0
10, 90300, Note_on_c, 0, 69, 0
10, 90360, Note_on_c, 0, 76, 90
10, 90360, Note_on_c, 0, 80, 90
10, 90420, Note_on_c, 0, 80, 0
10, 90420, Note_on_c, 0, 76, 0
10, 90480, Note_on_c, 0, 76, 90
10, 90480, Note_on_c, 0, 80, 90
10, 90600, Note_on_c, 0, 80, 0
10, 90600, Note_on_c, 0, 76, 0
10, 90600, Note_on_c, 0, 81, 90
10, 90660, Note_on_c, 0, 81, 0
10, 90660, Note_on_c, 0, 80, 90
10, 90660, Note_on_c, 0, 83, 90
10, 91020, Note_on_c, 0, 83, 0
10, 91020, Note_on_c, 0, 80, 0
10, 91020, Note_on_c, 0, 79, 90
10, 91020, Note_on_c, 0, 86, 90
10, 91140, Note_on_c, 0, 86, 0
10, 91140, Note_on_c, 0, 79, 0
10, 91140, Note_on_c, 0, 79, 90
10, 91140, Note_on_c, 0, 83, 90
10, 91200, Note_on_c, 0, 83, 0
10, 91200, Note_on_c, 0, 79, 0
10, 91200, Note_on_c, 0, 74, 90
10, 91200, Note_on_c, 0, 79, 90
10, 91260, Note_on_c, 0, 79, 0
10, 91260, Note_on_c, 0, 74, 0
10, 91260, Note_on_c, 0, 79, 90
10, 91260, Note_on_c, 0, 83, 90
10, 91320, Note_on_c, 0, 83, 0
10, 91320, Note_on_c, 0, 79, 0
10, 91320, Note_on_c, 0, 78, 90
10, 91320, Note_on_c, 0, 81, 90
10, 91500, Note_on_c, 0, 81, 0
10, 91500, Note_on_c, 0, 78, 0
10, 91680, Note_on_c, 0, 76, 90
10, 91680, Note_on_c, 0, 80, 90
10, 91740, Note_on_c, 0, 80, 0
10, 91740, Note_on_c, 0, 76, 0
10, 91800, Note_on_c, 0, 76, 90
10, 91800, Note_on_c, 0, 80, 90
10, 91920, Note_on_c, 0, 80, 0
10, 91920, Note_on_c, 0, 76, 0
10, 91920, Note_on_c, 0, 81, 90
10, 91980, Note_on_c, 0, 81, 0
10, 91980, Note_on_c, 0, 80, 90
10, 91980, Note_on_c, 0, 83, 90
10, 92280, Note_on_c, 0, 83, 0
10, 92280, Note_on_c, 0, 80, 0
10, 92280, Note_on_c, 0, 84, 90
10, 92280, Note_on_c, 0, 88, 90
10, 92340, Note_on_c, 0, 88, 0
10, 92340, Note_on_c, 0, 84, 0
10, 92340, Note_on_c, 0, 91, 90
10, 92340, Note_on_c, 0, 84, 90
10, 92340, Note_on_c, 0, 79, 90
10, 92460, Note_on_c, 0, 79, 0
10, 92460, Note_on_c, 0, 84, 0
10, 92460, Note_on_c, 0, 91, 0
10, 92460, Note_on_c, 0, 90, 90
10, 92460, Note_on_c, 0, 79, 90
10, 92460, Note_on_c, 0, 78, 90
10, 92520, Note_on_c, 0, 78, 0
10, 92520, Note_on_c, 0, 79, 0
10, 92520, Note_on_c, 0, 90, 0
10, 92520, Note_on_c, 0, 88, 90
10, 92520, Note_on_c, 0, 84, 90
10, 92520, Note_on_c, 0, 76, 90
10, 92640, Note_on_c, 0, 76, 0
10, 92640, Note_on_c, 0, 84, 0
10, 92640, Note_on_c, 0, 88, 0
10, 92640, Note_on_c, 0, 90, 90
10, 92640, Note_on_c, 0, 86, 90
10, 92640, Note_on_c, 0, 78, 90
10, 92700, Note_on_c, 0, 78, 0
10, 92700, Note_on_c, 0, 86, 0
10, 92700, Note_on_c, 0, 90, 0
10, 92700, Note_on_c, 0, 86, 90
10, 92700, Note_on_c, 0, 81, 90
10, 92700, Note_on_c, 0, 74, 90
10, 93060, Note_on_c, 0, 74, 0
10, 93060, Note_on_c, 0, 81, 0
10, 93060, Note_on_c, 0, 86, 0
10, 93060, Note_on_c, 0, 77, 100
10, 93060, Note_on_c, 0, 84, 100
10, 93180, Note_on_c, 0, 84, 0
10, 93180, Note_on_c, 0, 83, 100
10, 93240, Note_on_c, 0, 83, 0
10, 93240, Note_on_c, 0, 77, 0
10, 93240, Note_on_c, 0, 81, 100
10, 93300, Note_on_c, 0, 81, 0
10, 93300, Note_on_c, 0, 83, 100
10, 93360, Note_on_c, 0, 83, 0
10, 93360, Note_on_c, 0, 76, 100
10, 93360, Note_on_c, 0, 79, 100
10, 93540, Note_on_c, 0, 76, 0
10, 93780, Note_on_c, 0, 79, 0
10, 93840, Note_on_c, 0, 64, 90
10, 93840, Note_on_c, 0, 73, 90
10, 93840, Note_on_c, 0, 61, 90
10, 93960, Note_on_c, 0, 61, 0
10, 93960, Note_on_c, 0, 73, 0
10, 93960, Note_on_c, 0, 64, 0
10, 93960, Note_on_c, 0, 64, 90
10, 93960, Note_on_c, 0, 74, 90
10, 93960, Note_on_c, 0, 62, 90
10, 94080, Note_on_c, 0, 62, 0
10, 94080, Note_on_c, 0, 74, 0
10, 94080, Note_on_c, 0, 64, 0
10, 94080, Note_on_c, 0, 69, 90
10, 94080, Note_on_c, 0, 76, 90
10, 94080, Note_on_c, 0, 64, 90
10, 94150, Note_on_c, 0, 64, 0
10, 94150, Note_on_c, 0, 76, 0
10, 94150, Note_on_c, 0, 69, 0
10, 94200, Note_on_c, 0, 69, 90
10, 94200, Note_on_c, 0, 64, 90
10, 94200, Note_on_c, 0, 76, 90
10, 94380, Note_on_c, 0, 76, 0
10, 94380, Note_on_c, 0, 64, 0
10, 94380, Note_on_c, 0, 69, 0
10, 94380, Note_on_c, 0, 71, 90
10, 94380, Note_on_c, 0, 73, 90
10, 94380, Note_on_c, 0, 76, 90
10, 94380, Note_on_c, 0, 64, 90
10, 94500, Note_on_c, 0, 64, 0
10, 94500, Note_on_c, 0, 71, 0
10, 94500, Note_on_c, 0, 73, 0
10, 94500, Note_on_c, 0, 76, 0
10, 94560, Note_on_c, 0, 67, 90
10, 94560, Note_on_c, 0, 60, 90
10, 94560, Note_on_c, 0, 72, 90
10, 94680, Note_on_c, 0, 72, 0
10, 94680, Note_on_c, 0, 60, 0
10, 94680, Note_on_c, 0, 67, 0
10, 94680, Note_on_c, 0, 67, 90
10, 94680, Note_on_c, 0, 62, 90
10, 94680, Note_on_c, 0, 74, 90
10, 94800, Note_on_c, 0, 74, 0
10, 94800, Note_on_c, 0, 62, 0
10, 94800, Note_on_c, 0, 67, 0
10, 94800, Note_on_c, 0, 72, 90
10, 94800, Note_on_c, 0, 64, 90
10, 94800, Note_on_c, 0, 76, 90
10, 94870, Note_on_c, 0, 76, 0
10, 94870, Note_on_c, 0, 64, 0
10, 94870, Note_on_c, 0, 72, 0
10, 94920, Note_on_c, 0, 69, 90
10, 94920, Note_on_c, 0, 62, 90
10, 94920, Note_on_c, 0, 74, 90
10, 95100, Note_on_c, 0, 74, 0
10, 95100, Note_on_c, 0, 62, 0
10, 95100, Note_on_c, 0, 69, 0
10, 95100, Note_on_c, 0, 69, 90
10, 95100, Note_on_c, 0, 62, 90
10, 95100, Note_on_c, 0, 74, 90
10, 95220, Note_on_c, 0, 74, 0
10, 95220, Note_on_c, 0, 62, 0
10, 95220, Note_on_c, 0, 69, 0
10, 95280, Note_on_c, 0, 64, 90
10, 95280, Note_on_c, 0, 73, 90
10, 95280, Note_on_c, 0, 61, 90
10, 95400, Note_on_c, 0, 61, 0
10, 95400, Note_on_c, 0, 73, 0
10, 95400, Note_on_c, 0, 64, 0
10, 95400, Note_on_c, 0, 64, 90
10, 95400, Note_on_c, 0, 74, 90
10, 95400, Note_on_c, 0, 62, 90
10, 95520, Note_on_c, 0, 62, 0
10, 95520, Note_on_c, 0, 74, 0
10, 95520, Note_on_c, 0, 64, 0
10, 95520, Note_on_c, 0, 69, 90
10, 95520, Note_on_c, 0, 76, 90
10, 95520, Note_on_c, 0, 64, 90
10, 95590, Note_on_c, 0, 64, 0
10, 95590, Note_on_c, 0, 76, 0
10, 95590, Note_on_c, 0, 69, 0
10, 95640, Note_on_c, 0, 69, 90
10, 95640, Note_on_c, 0, 64, 90
10, 95640, Note_on_c, 0, 76, 90
10, 95820, Note_on_c, 0, 76, 0
10, 95820, Note_on_c, 0, 64, 0
10, 95820, Note_on_c, 0, 69, 0
10, 95820, Note_on_c, 0, 71, 90
10, 95820, Note_on_c, 0, 73, 90
10, 95820, Note_on_c, 0, 76, 90
10, 95820, Note_on_c, 0, 64, 90
10, 95940, Note_on_c, 0, 64, 0
10, 95940, Note_on_c, 0, 71, 0
10, 95940, Note_on_c, 0, 73, 0
10, 95940, Note_on_c, 0, 76, 0
10, 96600, Note_on_c, 0, 64, 90
10, 96600, Note_on_c, 0, 73, 90
10, 96600, Note_on_c, 0, 61, 90
10, 96720, Note_on_c, 0, 61, 0
10, 96720, Note_on_c, 0, 73, 0
10, 96720, Note_on_c, 0, 64, 0
10, 96720, Note_on_c, 0, 64, 90
10, 96720, Note_on_c, 0, 74, 90
10, 96720, Note_on_c, 0, 62, 90
10, 96840, Note_on_c, 0, 62, 0
10, 96840, Note_on_c, 0, 74, 0
10, 96840, Note_on_c, 0, 64, 0
10, 96840, Note_on_c, 0, 69, 90
10, 96840, Note_on_c, 0, 76, 90
10, 96840, Note_on_c, 0, 64, 90
10, 96910, Note_on_c, 0, 64, 0
10, 96910, Note_on_c, 0, 76, 0
10, 96910, Note_on_c, 0, 69, 0
10, 96960, Note_on_c, 0, 69, 90
10, 96960, Note_on_c, 0, 64, 90
10, 96960, Note_on_c, 0, 76, 90
10, 97140, Note_on_c, 0, 76, 0
10, 97140, Note_on_c, 0, 64, 0
10, 97140, Note_on_c, 0, 69, 0
10, 97140, Note_on_c, 0, 71, 90
10, 97140, Note_on_c, 0, 73, 90
10, 97140, Note_on_c, 0, 76, 90
10, 97140, Note_on_c, 0, 64, 90
10, 97260, Note_on_c, 0, 64, 0
10, 97260, Note_on_c, 0, 71, 0
10, 97260, Note_on_c, 0, 73, 0
10, 97260, Note_on_c, 0, 76, 0
10, 97320, Note_on_c, 0, 67, 90
10, 97320, Note_on_c, 0, 60, 90
10, 97320, Note_on_c, 0, 72, 90
10, 97440, Note_on_c, 0, 72, 0
10, 97440, Note_on_c, 0, 60, 0
10, 97440, Note_on_c, 0, 67, 0
10, 97440, Note_on_c, 0, 67, 90
10, 97440, Note_on_c, 0, 62, 90
10, 97440, Note_on_c, 0, 74, 90
10, 97560, Note_on_c, 0, 74, 0
10, 97560, Note_on_c, 0, 62, 0
10, 97560, Note_on_c, 0, 67, 0
10, 97560, Note_on_c, 0, 72, 90
10, 97560, Note_on_c, 0, 64, 90
10, 97560, Note_on_c, 0, 76, 90
10, 97630, Note_on_c, 0, 76, 0
10, 97630, Note_on_c, 0, 64, 0
10, 97630, Note_on_c, 0, 72, 0
10, 97680, Note_on_c, 0, 69, 90
10, 97680, Note_on_c, 0, 62, 90
10, 97680, Note_on_c, 0, 74, 90
10, 97860, Note_on_c, 0, 74, 0
10, 97860, Note_on_c, 0, 62, 0
10, 97860, Note_on_c, 0, 69, 0
10, 97860, Note_on_c, 0, 69, 90
10, 97860, Note_on_c, 0, 62, 90
10, 97860, Note_on_c, 0, 74, 90
10, 97980, Note_on_c, 0, 74, 0
10, 97980, Note_on_c, 0, 62, 0
10, 97980, Note_on_c, 0, 69, 0
10, 98040, Note_on_c, 0, 72, 90
10, 98040, Note_on_c, 0, 60, 90
10, 98040, Note_on_c, 0, 65, 90
10, 98160, Note_on_c, 0, 65, 0
10, 98160, Note_on_c, 0, 60, 0
10, 98160, Note_on_c, 0, 72, 0
10, 98160, Note_on_c, 0, 72, 90
10, 98160, Note_on_c, 0, 60, 90
10, 98160, Note_on_c, 0, 65, 90
10, 98280, Note_on_c, 0, 65, 0
10, 98280, Note_on_c, 0, 60, 0
10, 98280, Note_on_c, 0, 72, 0
10, 98280, Note_on_c, 0, 72, 90
10, 98280, Note_on_c, 0, 60, 90
10, 98280, Note_on_c, 0, 67, 90
10, 98340, Note_on_c, 0, 67, 0
10, 98340, Note_on_c, 0, 60, 0
10, 98340, Note_on_c, 0, 72, 0
10, 98400, Note_on_c, 0, 72, 90
10, 98400, Note_on_c, 0, 60, 90
10, 98400, Note_on_c, 0, 69, 90
10, 98580, Note_on_c, 0, 69, 0
10, 98580, Note_on_c, 0, 60, 0
10, 98580, Note_on_c, 0, 72, 0
10, 98580, Note_on_c, 0, 67, 90
10, 98580, Note_on_c, 0, 71, 90
10, 98700, Note_on_c, 0, 71, 0
10, 98700, Note_on_c, 0, 67, 0
10, 98700, Note_on_c, 0, 64, 90
10, 98700, Note_on_c, 0, 67, 90
10, 98700, Note_on_c, 0, 55, 80
10, 98700, Note_on_c, 0, 48, 80
10, 98939, Note_on_c, 0, 48, 0
10, 98939, Note_on_c, 0, 64, 0
10, 98939, Note_on_c, 0, 67, 0
10, 98939, Note_on_c, 0, 55, 0
10, 98940, Note_on_c, 0, 62, 90
10, 98940, Note_on_c, 0, 67, 90
10, 98940, Note_on_c, 0, 71, 90
10, 98940, Note_on_c, 0, 48, 80
10, 99179, Note_on_c, 0, 48, 0
10, 99179, Note_on_c, 0, 62, 0
10, 99179, Note_on_c, 0, 67, 0
10, 99179, Note_on_c, 0, 71, 0
10, 99180, Note_on_c, 0, 62, 80
10, 99180, Note_on_c, 0, 66, 80
10, 99180, Note_on_c, 0, 69, 80
10, 99180, Note_on_c, 0, 50, 80
10, 99780, Note_on_c, 0, 50, 0
10, 99780, Note_on_c, 0, 62, 0
10, 99780, Note_on_c, 0, 66, 0
10, 99780, Note_on_c, 0, 69, 0
10, 106920, Note_on_c, 0, 79, 127
10, 106980, Note_on_c, 0, 79, 0
10, 106980, Note_on_c, 0, 78, 127
10, 107040, Note_on_c, 0, 78, 0
10, 107040, Note_on_c, 0, 81, 127
10, 107100, Note_on_c, 0, 81, 0
10, 107100, Note_on_c, 0, 79, 127
10, 107160, Note_on_c, 0, 79, 0
10, 107160, Note_on_c, 0, 74, 127
10, 107220, Note_on_c, 0, 74, 0
10, 107220, Note_on_c, 0, 72, 127
10, 107250, Note_on_c, 0, 72, 0
10, 107250, Note_on_c, 0, 74, 127
10, 107280, Note_on_c, 0, 74, 0
10, 107280, Note_on_c, 0, 76, 127
10, 107340, Note_on_c, 0, 76, 0
10, 107340, Note_on_c, 0, 74, 127
10, 107400, Note_on_c, 0, 74, 0
10, 107400, Note_on_c, 0, 69, 127
10, 107460, Note_on_c, 0, 69, 0
10, 107460, Note_on_c, 0, 67, 127
10, 107520, Note_on_c, 0, 74, 127
10, 107580, Note_on_c, 0, 74, 0
10, 107580, Note_on_c, 0, 67, 0
10, 107640, Note_on_c, 0, 72, 127
10, 107700, Note_on_c, 0, 72, 0
10, 107700, Note_on_c, 0, 71, 127
10, 107760, Note_on_c, 0, 71, 0
10, 107760, Note_on_c, 0, 72, 127
10, 107820, Note_on_c, 0, 72, 0
10, 107820, Note_on_c, 0, 71, 127
10, 107880, Note_on_c, 0, 71, 0
10, 107880, Note_on_c, 0, 67, 127
10, 107940, Note_on_c, 0, 67, 0
10, 107940, Note_on_c, 0, 62, 127
10, 108000, Note_on_c, 0, 62, 0
10, 108000, Note_on_c, 0, 67, 127
10, 108060, Note_on_c, 0, 67, 0
10, 108060, Note_on_c, 0, 69, 127
10, 108180, Note_on_c, 0, 69, 0
10, 108180, Note_on_c, 0, 67, 127
10, 108300, Note_on_c, 0, 67, 0
10, 108360, Note_on_c, 0, 69, 127
10, 108390, Note_on_c, 0, 69, 0
10, 108390, Note_on_c, 0, 67, 127
10, 108420, Note_on_c, 0, 67, 0
10, 108420, Note_on_c, 0, 69, 127
10, 108450, Note_on_c, 0, 69, 0
10, 108450, Note_on_c, 0, 67, 127
10, 108480, Note_on_c, 0, 67, 0
10, 108480, Note_on_c, 0, 64, 127
10, 108510, Note_on_c, 0, 64, 0
10, 108510, Note_on_c, 0, 62, 127
10, 108540, Note_on_c, 0, 62, 0
10, 108540, Note_on_c, 0, 67, 127
10, 108570, Note_on_c, 0, 67, 0
10, 108570, Note_on_c, 0, 64, 127
10, 108600, Note_on_c, 0, 64, 0
10, 108600, Note_on_c, 0, 62, 127
10, 108630, Note_on_c, 0, 62, 0
10, 108630, Note_on_c, 0, 59, 127
10, 108660, Note_on_c, 0, 59, 0
10, 108660, Note_on_c, 0, 57, 127
10, 108690, Note_on_c, 0, 57, 0
10, 108720, Note_on_c, 0, 59, 127
10, 108750, Note_on_c, 0, 59, 0
10, 108780, Note_on_c, 0, 55, 127
10, 108900, Note_on_c, 0, 55, 0
10, 109020, Note_on_c, 0, 55, 127
10, 109050, Note_on_c, 0, 55, 0
10, 109050, Note_on_c, 0, 62, 127
10, 109080, Note_on_c, 0, 62, 0
10, 109080, Note_on_c, 0, 67, 127
10, 109110, Note_on_c, 0, 67, 0
10, 109110, Note_on_c, 0, 69, 127
10, 109140, Note_on_c, 0, 69, 0
10, 109140, Note_on_c, 0, 74, 127
10, 109170, Note_on_c, 0, 74, 0
10, 109170, Note_on_c, 0, 69, 127
10, 109200, Note_on_c, 0, 69, 0
10, 109200, Note_on_c, 0, 67, 127
10, 109230, Note_on_c, 0, 67, 0
10, 109230, Note_on_c, 0, 62, 127
10, 109260, Note_on_c, 0, 62, 0
10, 109260, Note_on_c, 0, 57, 127
10, 109290, Note_on_c, 0, 57, 0
10, 109290, Note_on_c, 0, 55, 127
10, 109320, Note_on_c, 0, 55, 0
10, 109320, Note_on_c, 0, 45, 70
10, 109350, Note_on_c, 0, 45, 0
10, 109350, Note_on_c, 0, 43, 70
10, 109380, Note_on_c, 0, 43, 0
10, 109380, Note_on_c, 0, 67, 127
10, 109410, Note_on_c, 0, 67, 0
10, 109410, Note_on_c, 0, 69, 127
10, 109440, Note_on_c, 0, 69, 0
10, 109440, Note_on_c, 0, 74, 127
10, 109470, Note_on_c, 0, 74, 0
10, 109470, Note_on_c, 0, 79, 127
10, 109500, Note_on_c, 0, 79, 0
10, 109500, Note_on_c, 0, 76, 127
10, 109680, Note_on_c, 0, 76, 0
10, 109680, Note_on_c, 0, 74, 127
10, 109800, Note_on_c, 0, 74, 0
10, 109800, Note_on_c, 0, 76, 127
10, 109830, Note_on_c, 0, 76, 0
10, 109830, Note_on_c, 0, 74, 127
10, 109860, Note_on_c, 0, 74, 0
10, 109860, Note_on_c, 0, 76, 127
10, 109890, Note_on_c, 0, 76, 0
10, 109890, Note_on_c, 0, 74, 127
10, 109920, Note_on_c, 0, 74, 0
10, 109920, Note_on_c, 0, 72, 127
10, 109950, Note_on_c, 0, 72, 0
10, 109950, Note_on_c, 0, 71, 127
10, 109980, Note_on_c, 0, 71, 0
10, 109980, Note_on_c, 0, 74, 127
10, 110010, Note_on_c, 0, 74, 0
10, 110010, Note_on_c, 0, 72, 127
10, 110040, Note_on_c, 0, 72, 0
10, 110040, Note_on_c, 0, 71, 127
10, 110070, Note_on_c, 0, 71, 0
10, 110070, Note_on_c, 0, 69, 127
10, 110100, Note_on_c, 0, 69, 0
10, 110100, Note_on_c, 0, 72, 127
10, 110130, Note_on_c, 0, 72, 0
10, 110130, Note_on_c, 0, 71, 127
10, 110160, Note_on_c, 0, 71, 0
10, 110160, Note_on_c, 0, 69, 127
10, 110190, Note_on_c, 0, 69, 0
10, 110190, Note_on_c, 0, 67, 127
10, 110220, Note_on_c, 0, 67, 0
10, 110220, Note_on_c, 0, 71, 127
10, 110250, Note_on_c, 0, 71, 0
10, 110250, Note_on_c, 0, 69, 127
10, 110280, Note_on_c, 0, 69, 0
10, 110280, Note_on_c, 0, 67, 127
10, 110310, Note_on_c, 0, 67, 0
10, 110310, Note_on_c, 0, 64, 127
10, 110340, Note_on_c, 0, 64, 0
10, 110460, Note_on_c, 0, 74, 127
10, 110460, Note_on_c, 0, 79, 127
10, 110520, Note_on_c, 0, 79, 0
10, 110520, Note_on_c, 0, 74, 0
10, 110580, Note_on_c, 0, 74, 127
10, 110580, Note_on_c, 0, 79, 127
10, 110700, Note_on_c, 0, 79, 0
10, 110700, Note_on_c, 0, 74, 0
10, 110700, Note_on_c, 0, 74, 127
10, 110700, Note_on_c, 0, 69, 127
10, 110760, Note_on_c, 0, 69, 0
10, 110760, Note_on_c, 0, 74, 0
10, 110820, Note_on_c, 0, 74, 127
10, 110820, Note_on_c, 0, 69, 127
10, 110940, Note_on_c, 0, 69, 0
10, 110940, Note_on_c, 0, 74, 0
10, 110940, Note_on_c, 0, 71, 127
10, 111000, Note_on_c, 0, 71, 0
10, 111060, Note_on_c, 0, 71, 127
10, 111180, Note_on_c, 0, 71, 0
10, 111240, Note_on_c, 0, 79, 127
10, 111300, Note_on_c, 0, 79, 0
10, 111300, Note_on_c, 0, 78, 127
10, 111360, Note_on_c, 0, 78, 0
10, 111360, Note_on_c, 0, 81, 127
10, 111420, Note_on_c, 0, 81, 0
10, 111420, Note_on_c, 0, 79, 127
10, 111480, Note_on_c, 0, 79, 0
10, 111480, Note_on_c, 0, 74, 127
10, 111540, Note_on_c, 0, 74, 0
10, 111540, Note_on_c, 0, 74, 127
10, 111600, Note_on_c, 0, 74, 0
10, 111600, Note_on_c, 0, 72, 127
10, 111630, Note_on_c, 0, 72, 0
10, 111630, Note_on_c, 0, 74, 127
10, 111660, Note_on_c, 0, 74, 0
10, 111660, Note_on_c, 0, 76, 127
10, 111720, Note_on_c, 0, 76, 0
10, 111720, Note_on_c, 0, 74, 127
10, 111780, Note_on_c, 0, 74, 0
10, 111840, Note_on_c, 0, 67, 127
10, 111870, Note_on_c, 0, 67, 0
10, 111870, Note_on_c, 0, 69, 127
10, 111900, Note_on_c, 0, 69, 0
10, 111900, Note_on_c, 0, 71, 127
10, 111930, Note_on_c, 0, 71, 0
10, 111930, Note_on_c, 0, 74, 127
10, 111960, Note_on_c, 0, 74, 0
10, 111960, Note_on_c, 0, 79, 127
10, 111990, Note_on_c, 0, 79, 0
10, 111990, Note_on_c, 0, 83, 127
10, 112020, Note_on_c, 0, 83, 0
10, 112020, Note_on_c, 0, 79, 127
10, 112020, Note_on_c, 0, 84, 127
10, 112260, Note_on_c, 0, 84, 0
10, 112260, Note_on_c, 0, 79, 0
10, 112260, Note_on_c, 0, 79, 127
10, 112260, Note_on_c, 0, 84, 127
10, 112380, Note_on_c, 0, 84, 0
10, 112380, Note_on_c, 0, 79, 0
10, 112440, Note_on_c, 0, 65, 127
10, 112470, Note_on_c, 0, 65, 0
10, 112500, Note_on_c, 0, 72, 127
10, 112530, Note_on_c, 0, 72, 0
10, 112560, Note_on_c, 0, 74, 127
10, 112590, Note_on_c, 0, 74, 0
10, 112620, Control_c, 0, 64, 127
10, 112680, Note_on_c, 0, 72, 127
10, 112740, Note_on_c, 0, 72, 0
10, 112740, Note_on_c, 0, 74, 127
10, 112800, Note_on_c, 0, 74, 0
10, 112830, Control_c, 0, 64, 0
10, 112860, Control_c, 0, 64, 127
10, 112860, Note_on_c, 0, 60, 127
10, 112860, Note_on_c, 0, 64, 127
10, 112860, Note_on_c, 0, 67, 127
10, 113040, Note_on_c, 0, 67, 0
10, 113040, Note_on_c, 0, 64, 0
10, 113040, Note_on_c, 0, 60, 0
10, 113040, Note_on_c, 0, 67, 127
10, 113040, Note_on_c, 0, 60, 127
10, 113040, Note_on_c, 0, 64, 127
10, 113100, Note_on_c, 0, 64, 0
10, 113100, Note_on_c, 0, 60, 0
10, 113100, Note_on_c, 0, 60, 127
10, 113100, Note_on_c, 0, 64, 127
10, 113160, Note_on_c, 0, 64, 0
10, 113160, Note_on_c, 0, 60, 0
10, 113160, Note_on_c, 0, 71, 127
10, 113160, Control_c, 0, 64, 0
10, 113160, Note_on_c, 0, 67, 127
10, 113160, Note_on_c, 0, 76, 127
10, 113220, Note_on_c, 0, 76, 0
10, 113220, Note_on_c, 0, 67, 0
10, 113220, Note_on_c, 0, 71, 0
10, 113220, Note_on_c, 0, 67, 0
10, 113220, Note_on_c, 0, 69, 127
10, 113220, Note_on_c, 0, 62, 127
10, 113220, Control_c, 0, 64, 127
10, 113220, Note_on_c, 0, 66, 127
10, 113220, Note_on_c, 0, 74, 127
10, 113460, Note_on_c, 0, 74, 0
10, 113460, Note_on_c, 0, 69, 0
10, 113460, Note_on_c, 0, 62, 0
10, 113460, Note_on_c, 0, 66, 0
10, 113490, Control_c, 0, 64, 0
10, 113520, Note_on_c, 0, 79, 127
10, 113520, Note_on_c, 0, 64, 127
10, 113520, Note_on_c, 0, 67, 127
10, 113550, Control_c, 0, 64, 127
10, 113700, Note_on_c, 0, 67, 0
10, 113700, Note_on_c, 0, 64, 0
10, 113700, Note_on_c, 0, 79, 0
10, 113700, Note_on_c, 0, 81, 127
10, 113700, Note_on_c, 0, 69, 127
10, 113700, Note_on_c, 0, 66, 127
10, 113790, Control_c, 0, 64, 0
10, 113820, Note_on_c, 0, 66, 0
10, 113820, Note_on_c, 0, 69, 0
10, 113820, Note_on_c, 0, 81, 0
10, 121500, Control_c, 0, 64, 127
10, 121500, Note_on_c, 0, 68, 100
10, 121500, Note_on_c, 0, 52, 100
10, 121500, Note_on_c, 0, 76, 100
10, 121500, Note_on_c, 0, 71, 100
10, 121500, Note_on_c, 0, 64, 100
10, 121920, Control_c, 0, 64, 0
10, 121980, Note_on_c, 0, 64, 0
10, 121980, Note_on_c, 0, 76, 0
10, 121980, Note_on_c, 0, 68, 0
10, 121980, Note_on_c, 0, 52, 0
10, 121980, Note_on_c, 0, 71, 0
10, 121980, Control_c, 0, 64, 127
10, 121980, Note_on_c, 0, 71, 100
10, 121980, Note_on_c, 0, 66, 100
10, 121980, Note_on_c, 0, 62, 100
10, 121980, Note_on_c, 0, 59, 100
10, 121980, Note_on_c, 0, 47, 100
10, 122400, Control_c, 0, 64, 0
10, 122460, Note_on_c, 0, 47, 0
10, 122460, Note_on_c, 0, 62, 0
10, 122460, Note_on_c, 0, 71, 0
10, 122460, Note_on_c, 0, 66, 0
10, 122460, Note_on_c, 0, 59, 0
10, 122460, Control_c, 0, 64, 127
10, 122460, Note_on_c, 0, 68, 100
10, 122460, Note_on_c, 0, 52, 100
10, 122460, Note_on_c, 0, 76, 100
10, 122460, Note_on_c, 0, 71, 100
10, 122460, Note_on_c, 0, 64, 100
10, 122880, Control_c, 0, 64, 0
10, 122940, Note_on_c, 0, 64, 0
10, 122940, Note_on_c, 0, 76, 0
10, 122940, Note_on_c, 0, 68, 0
10, 122940, Note_on_c, 0, 52, 0
10, 122940, Note_on_c, 0, 71, 0
10, 122940, Control_c, 0, 64, 127
10, 122940, Note_on_c, 0, 60, 100
10, 122940, Note_on_c, 0, 48, 100
10, 122940, Note_on_c, 0, 64, 100
10, 122940, Note_on_c, 0, 67, 100
10, 122940, Note_on_c, 0, 72, 100
10, 123360, Control_c, 0, 64, 0
10, 123420, Note_on_c, 0, 72, 0
10, 123420, Note_on_c, 0, 64, 0
10, 123420, Note_on_c, 0, 60, 0
10, 123420, Note_on_c, 0, 48, 0
10, 123420, Note_on_c, 0, 67, 0
10, 123420, Control_c, 0, 64, 127
10, 123420, Note_on_c, 0, 67, 100
10, 123420, Note_on_c, 0, 62, 100
10, 123420, Note_on_c, 0, 59, 100
10, 123420, Note_on_c, 0, 55, 100
10, 123420, Note_on_c, 0, 43, 100
10, 123840, Control_c, 0, 64, 0
10, 123900, Note_on_c, 0, 43, 0
10, 123900, Note_on_c, 0, 59, 0
10, 123900, Note_on_c, 0, 67, 0
10, 123900, Note_on_c, 0, 62, 0
10, 123900, Note_on_c, 0, 55, 0
10, 123900, Control_c, 0, 64, 127
10, 123900, Note_on_c, 0, 70, 100
10, 123900, Note_on_c, 0, 65, 100
10, 123900, Note_on_c, 0, 62, 100
10, 123900, Note_on_c, 0, 58, 100
10, 123900, Note_on_c, 0, 46, 100
10, 124320, Control_c, 0, 64, 0
10, 124380, Note_on_c, 0, 46, 0
10, 124380, Note_on_c, 0, 62, 0
10, 124380, Note_on_c, 0, 70, 0
10, 124380, Note_on_c, 0, 65, 0
10, 124380, Note_on_c, 0, 58, 0
10, 124380, Control_c, 0, 64, 127
10, 124380, Note_on_c, 0, 45, 100
10, 124380, Note_on_c, 0, 57, 100
10, 124380, Note_on_c, 0, 65, 100
10, 124380, Note_on_c, 0, 60, 100
10, 124380, Note_on_c, 0, 69, 100
10, 124740, Note_on_c, 0, 69, 0
10, 124740, Note_on_c, 0, 65, 0
10, 124740, Note_on_c, 0, 45, 0
10, 124740, Note_on_c, 0, 57, 0
10, 124740, Note_on_c, 0, 60, 0
10, 124740, Note_on_c, 0, 55, 100
10, 124740, Note_on_c, 0, 67, 100
10, 124740, Note_on_c, 0, 64, 100
10, 124800, Control_c, 0, 64, 0
10, 124860, Note_on_c, 0, 64, 0
10, 124860, Note_on_c, 0, 67, 0
10, 124860, Note_on_c, 0, 55, 0
10, 124860, Control_c, 0, 64, 127
10, 124860, Note_on_c, 0, 50, 100
10, 124860, Note_on_c, 0, 57, 100
10, 124860, Note_on_c, 0, 66, 100
10, 124860, Note_on_c, 0, 69, 100
10, 124860, Note_on_c, 0, 62, 100
10, 125280, Control_c, 0, 64, 0
10, 125340, Note_on_c, 0, 62, 0
10, 125340, Note_on_c, 0, 66, 0
10, 125340, Note_on_c, 0, 50, 0
10, 125340, Note_on_c, 0, 57, 0
10, 125340, Note_on_c, 0, 69, 0
10, 125340, Control_c, 0, 64, 127
10, 125340, Note_on_c, 0, 68, 100
10, 125340, Note_on_c, 0, 52, 100
10, 125340, Note_on_c, 0, 76, 100
10, 125340, Note_on_c, 0, 71, 100
10, 125340, Note_on_c, 0, 64, 100
10, 125760, Control_c, 0, 64, 0
10, 125820, Note_on_c, 0, 64, 0
10, 125820, Note_on_c, 0, 76, 0
10, 125820, Note_on_c, 0, 68, 0
10, 125820, Note_on_c, 0, 52, 0
10, 125820, Note_on_c, 0, 71, 0
10, 125820, Control_c, 0, 64, 127
10, 125820, Note_on_c, 0, 71, 100
10, 125820, Note_on_c, 0, 66, 100
10, 125820, Note_on_c, 0, 62, 100
10, 125820, Note_on_c, 0, 59, 100
10, 125820, Note_on_c, 0, 47, 100
10, 126240, Control_c, 0, 64, 0
10, 126300, Note_on_c, 0, 47, 0
10, 126300, Note_on_c, 0, 62, 0
10, 126300, Note_on_c, 0, 71, 0
10, 126300, Note_on_c, 0, 66, 0
10, 126300, Note_on_c, 0, 59, 0
10, 126300, Control_c, 0, 64, 127
10, 126300, Note_on_c, 0, 68, 100
10, 126300, Note_on_c, 0, 52, 100
10, 126300, Note_on_c, 0, 76, 100
10, 126300, Note_on_c, 0, 71, 100
10, 126300, Note_on_c, 0, 64, 100
10, 126720, Control_c, 0, 64, 0
10, 126780, Note_on_c, 0, 64, 0
10, 126780, Note_on_c, 0, 76, 0
10, 126780, Note_on_c, 0, 68, 0
10, 126780, Note_on_c, 0, 52, 0
10, 126780, Note_on_c, 0, 71, 0
10, 126780, Control_c, 0, 64, 127
10, 126780, Note_on_c, 0, 60, 100
10, 126780, Note_on_c, 0, 48, 100
10, 126780, Note_on_c, 0, 64, 100
10, 126780, Note_on_c, 0, 67, 100
10, 126780, Note_on_c, 0, 72, 100
10, 127200, Control_c, 0, 64, 0
10, 127260, Note_on_c, 0, 72, 0
10, 127260, Note_on_c, 0, 64, 0
10, 127260, Note_on_c, 0, 60, 0
10, 127260, Note_on_c, 0, 48, 0
10, 127260, Note_on_c, 0, 67, 0
10, 127260, Control_c, 0, 64, 127
10, 127260, Note_on_c, 0, 67, 100
10, 127260, Note_on_c, 0, 62, 100
10, 127260, Note_on_c, 0, 59, 100
10, 127260, Note_on_c, 0, 55, 100
10, 127260, Note_on_c, 0, 43, 100
10, 127680, Control_c, 0, 64, 0
10, 127740, Note_on_c, 0, 43, 0
10, 127740, Note_on_c, 0, 59, 0
10, 127740, Note_on_c, 0, 67, 0
10, 127740, Note_on_c, 0, 62, 0
10, 127740, Note_on_c, 0, 55, 0
10, 127740, Control_c, 0, 64, 127
10, 127740, Note_on_c, 0, 70, 100
10, 127740, Note_on_c, 0, 65, 100
10, 127740, Note_on_c, 0, 62, 100
10, 127740, Note_on_c, 0, 58, 100
10, 127740, Note_on_c, 0, 46, 100
10, 128160, Control_c, 0, 64, 0
10, 128220, Note_on_c, 0, 46, 0
10, 128220, Note_on_c, 0, 62, 0
10, 128220, Note_on_c, 0, 70, 0
10, 128220, Note_on_c, 0, 65, 0
10, 128220, Note_on_c, 0, 58, 0
10, 128220, Control_c, 0, 64, 127
10, 128220, Note_on_c, 0, 41, 100
10, 128220, Note_on_c, 0, 53, 100
10, 128220, Note_on_c, 0, 65, 100
10, 128220, Note_on_c, 0, 60, 100
10, 128220, Note_on_c, 0, 69, 100
10, 128580, Note_on_c, 0, 69, 0
10, 128580, Note_on_c, 0, 65, 0
10, 128580, Note_on_c, 0, 41, 0
10, 128580, Note_on_c, 0, 53, 0
10, 128580, Note_on_c, 0, 60, 0
10, 128580, Note_on_c, 0, 55, 100
10, 128580, Note_on_c, 0, 67, 100
10, 128580, Note_on_c, 0, 64, 100
10, 128640, Control_c, 0, 64, 0
10, 128700, Note_on_c, 0, 64, 0
10, 128700, Note_on_c, 0, 67, 0
10, 128700, Note_on_c, 0, 55, 0
10, 128700, Control_c, 0, 64, 127
10, 128700, Note_on_c, 0, 50, 100
10, 128700, Note_on_c, 0, 57, 100
10, 128700, Note_on_c, 0, 66, 100
10, 128700, Note_on_c, 0, 69, 100
10, 128700, Note_on_c, 0, 62, 100
10, 129120, Control_c, 0, 64, 0
10, 129180, Note_on_c, 0, 62, 0
10, 129180, Note_on_c, 0, 66, 0
10, 129180, Note_on_c, 0, 50, 0
10, 129180, Note_on_c, 0, 57, 0
10, 129180, Note_on_c, 0, 69, 0
10, 129240, Note_on_c, 0, 35, 100
10, 129300, Note_on_c, 0, 35, 0
10, 129300, Note_on_c, 0, 38, 100
10, 129360, Note_on_c, 0, 38, 0
10, 129360, Note_on_c, 0, 35, 100
10, 129420, Note_on_c, 0, 35, 0
10, 129420, Note_on_c, 0, 40, 100
10, 129480, Note_on_c, 0, 40, 0
10, 129480, Note_on_c, 0, 35, 100
10, 129540, Note_on_c, 0, 35, 0
10, 129540, Note_on_c, 0, 38, 100
10, 129600, Note_on_c, 0, 38, 0
10, 129600, Note_on_c, 0, 33, 100
10, 129660, Note_on_c, 0, 33, 0
10, 129660, Note_on_c, 0, 35, 100
10, 129720, Note_on_c, 0, 35, 0
10, 129720, Note_on_c, 0, 31, 100
10, 129780, Note_on_c, 0, 31, 0
10, 129780, Note_on_c, 0, 33, 100
10, 129840, Note_on_c, 0, 33, 0
10, 129840, Note_on_c, 0, 28, 100
10, 129960, Note_on_c, 0, 28, 0
10, 129960, Note_on_c, 0, 35, 100
10, 130020, Note_on_c, 0, 35, 0
10, 130020, Note_on_c, 0, 38, 100
10, 130080, Note_on_c, 0, 38, 0
10, 130080, Note_on_c, 0, 35, 100
10, 130140, Note_on_c, 0, 35, 0
10, 130140, Note_on_c, 0, 40, 100
10, 130200, Note_on_c, 0, 40, 0
10, 130200, Note_on_c, 0, 35, 100
10, 130260, Note_on_c, 0, 35, 0
10, 130260, Note_on_c, 0, 38, 100
10, 130320, Note_on_c, 0, 38, 0
10, 130320, Note_on_c, 0, 33, 100
10, 130380, Note_on_c, 0, 33, 0
10, 130380, Note_on_c, 0, 35, 100
10, 130440, Note_on_c, 0, 35, 0
10, 130440, Note_on_c, 0, 31, 100
10, 130500, Note_on_c, 0, 31, 0
10, 130500, Note_on_c, 0, 33, 100
10, 130560, Note_on_c, 0, 33, 0
10, 130560, Note_on_c, 0, 28, 100
10, 130680, Note_on_c, 0, 28, 0
10, 130681, Note_on_c, 0, 35, 100
10, 130741, Note_on_c, 0, 35, 0
10, 130741, Note_on_c, 0, 38, 100
10, 130801, Note_on_c, 0, 38, 0
10, 130801, Note_on_c, 0, 35, 100
10, 130861, Note_on_c, 0, 35, 0
10, 130861, Note_on_c, 0, 40, 100
10, 130921, Note_on_c, 0, 40, 0
10, 130921, Note_on_c, 0, 35, 100
10, 130981, Note_on_c, 0, 35, 0
10, 130981, Note_on_c, 0, 38, 100
10, 131041, Note_on_c, 0, 38, 0
10, 131041, Note_on_c, 0, 33, 100
10, 131101, Note_on_c, 0, 33, 0
10, 131101, Note_on_c, 0, 35, 100
10, 131161, Note_on_c, 0, 35, 0
10, 131161, Note_on_c, 0, 31, 100
10, 131221, Note_on_c, 0, 31, 0
10, 131221, Note_on_c, 0, 33, 100
10, 131281, Note_on_c, 0, 33, 0
10, 131281, Note_on_c, 0, 28, 100
10, 131401, Note_on_c, 0, 28, 0
10, 131402, Note_on_c, 0, 35, 100
10, 131462, Note_on_c, 0, 35, 0
10, 131462, Note_on_c, 0, 38, 100
10, 131522, Note_on_c, 0, 38, 0
10, 131522, Note_on_c, 0, 35, 100
10, 131582, Note_on_c, 0, 35, 0
10, 131582, Note_on_c, 0, 40, 100
10, 131642, Note_on_c, 0, 40, 0
10, 131642, Note_on_c, 0, 35, 100
10, 131702, Note_on_c, 0, 35, 0
10, 131702, Note_on_c, 0, 38, 100
10, 131762, Note_on_c, 0, 38, 0
10, 131762, Note_on_c, 0, 33, 100
10, 131822, Note_on_c, 0, 33, 0
10, 131822, Note_on_c, 0, 35, 100
10, 131882, Note_on_c, 0, 35, 0
10, 131882, Note_on_c, 0, 31, 100
10, 131942, Note_on_c, 0, 31, 0
10, 131942, Note_on_c, 0, 33, 100
10, 132002, Note_on_c, 0, 33, 0
10, 132002, Note_on_c, 0, 28, 100
10, 132122, Note_on_c, 0, 28, 0
10, 132123, Note_on_c, 0, 35, 100
10, 132183, Note_on_c, 0, 35, 0
10, 132183, Note_on_c, 0, 38, 100
10, 132243, Note_on_c, 0, 38, 0
10, 132243, Note_on_c, 0, 35, 100
10, 132303, Note_on_c, 0, 35, 0
10, 132303, Note_on_c, 0, 40, 100
10, 132363, Note_on_c, 0, 40, 0
10, 132363, Note_on_c, 0, 35, 100
10, 132423, Note_on_c, 0, 35, 0
10, 132423, Note_on_c, 0, 38, 100
10, 132483, Note_on_c, 0, 38, 0
10, 132483, Note_on_c, 0, 33, 100
10, 132543, Note_on_c, 0, 33, 0
10, 132543, Note_on_c, 0, 35, 100
10, 132603, Note_on_c, 0, 35, 0
10, 132603, Note_on_c, 0, 31, 100
10, 132663, Note_on_c, 0, 31, 0
10, 132663, Note_on_c, 0, 33, 100
10, 132723, Note_on_c, 0, 33, 0
10, 132723, Note_on_c, 0, 28, 100
10, 132843, Note_on_c, 0, 28, 0
10, 132844, Note_on_c, 0, 35, 100
10, 132904, Note_on_c, 0, 35, 0
10, 132904, Note_on_c, 0, 38, 100
10, 132964, Note_on_c, 0, 38, 0
10, 132964, Note_on_c, 0, 35, 100
10, 133024, Note_on_c, 0, 35, 0
10, 133024, Note_on_c, 0, 40, 100
10, 133084, Note_on_c, 0, 40, 0
10, 133084, Note_on_c, 0, 35, 100
10, 133144, Note_on_c, 0, 35, 0
10, 133144, Note_on_c, 0, 38, 100
10, 133204, Note_on_c, 0, 38, 0
10, 133204, Note_on_c, 0, 33, 100
10, 133264, Note_on_c, 0, 33, 0
10, 133264, Note_on_c, 0, 35, 100
10, 133324, Note_on_c, 0, 35, 0
10, 133324, Note_on_c, 0, 31, 100
10, 133384, Note_on_c, 0, 31, 0
10, 133384, Note_on_c, 0, 33, 100
10, 133444, Note_on_c, 0, 33, 0
10, 133444, Note_on_c, 0, 28, 100
10, 133564, Note_on_c, 0, 28, 0
10, 133565, Note_on_c, 0, 35, 100
10, 133625, Note_on_c, 0, 35, 0
10, 133625, Note_on_c, 0, 38, 100
10, 133685, Note_on_c, 0, 38, 0
10, 133685, Note_on_c, 0, 35, 100
10, 133745, Note_on_c, 0, 35, 0
10, 133745, Note_on_c, 0, 40, 100
10, 133805, Note_on_c, 0, 40, 0
10, 133805, Note_on_c, 0, 35, 100
10, 133865, Note_on_c, 0, 35, 0
10, 133865, Note_on_c, 0, 38, 100
10, 133925, Note_on_c, 0, 38, 0
10, 133925, Note_on_c, 0, 33, 100
10, 133985, Note_on_c, 0, 33, 0
10, 133985, Note_on_c, 0, 35, 100
10, 134045, Note_on_c, 0, 35, 0
10, 134045, Note_on_c, 0, 31, 100
10, 134105, Note_on_c, 0, 31, 0
10, 134105, Note_on_c, 0, 33, 100
10, 134165, Note_on_c, 0, 33, 0
10, 134165, Note_on_c, 0, 28, 100
10, 134285, Note_on_c, 0, 28, 0
10, 134286, Note_on_c, 0, 35, 100
10, 134346, Note_on_c, 0, 35, 0
10, 134346, Note_on_c, 0, 38, 100
10, 134406, Note_on_c, 0, 38, 0
10, 134406, Note_on_c, 0, 35, 100
10, 134466, Note_on_c, 0, 35, 0
10, 134466, Note_on_c, 0, 40, 100
10, 134526, Note_on_c, 0, 40, 0
10, 134526, Note_on_c, 0, 35, 100
10, 134586, Note_on_c, 0, 35, 0
10, 134586, Note_on_c, 0, 38, 100
10, 134646, Note_on_c, 0, 38, 0
10, 134646, Note_on_c, 0, 33, 100
10, 134706, Note_on_c, 0, 33, 0
10, 134706, Note_on_c, 0, 35, 100
10, 134766, Note_on_c, 0, 35, 0
10, 134766, Note_on_c, 0, 31, 100
10, 134826, Note_on_c, 0, 31, 0
10, 134826, Note_on_c, 0, 33, 100
10, 134886, Note_on_c, 0, 33, 0
10, 134886, Note_on_c, 0, 28, 100
10, 135000, Note_on_c, 0, 35, 100
10, 135006, Note_on_c, 0, 28, 0
10, 135060, Note_on_c, 0, 35, 0
10, 135060, Note_on_c, 0, 38, 100
10, 135120, Note_on_c, 0, 38, 0
10, 135120, Note_on_c, 0, 35, 100
10, 135180, Note_on_c, 0, 35, 0
10, 135180, Note_on_c, 0, 40, 100
10, 135240, Note_on_c, 0, 40, 0
10, 135240, Note_on_c, 0, 35, 100
10, 135300, Note_on_c, 0, 35, 0
10, 135300, Note_on_c, 0, 38, 100
10, 135360, Note_on_c, 0, 38, 0
10, 135360, Note_on_c, 0, 33, 100
10, 135420, Note_on_c, 0, 33, 0
10, 135420, Note_on_c, 0, 35, 100
10, 135480, Note_on_c, 0, 35, 0
10, 135480, Note_on_c, 0, 31, 100
10, 135540, Note_on_c, 0, 31, 0
10, 135540, Note_on_c, 0, 33, 100
10, 135600, Note_on_c, 0, 33, 0
10, 135600, Note_on_c, 0, 28, 100
10, 135720, Note_on_c, 0, 28, 0
10, 135721, Note_on_c, 0, 35, 100
10, 135781, Note_on_c, 0, 35, 0
10, 135781, Note_on_c, 0, 38, 100
10, 135841, Note_on_c, 0, 38, 0
10, 135841, Note_on_c, 0, 35, 100
10, 135901, Note_on_c, 0, 35, 0
10, 135901, Note_on_c, 0, 40, 100
10, 135961, Note_on_c, 0, 40, 0
10, 135961, Note_on_c, 0, 35, 100
10, 136021, Note_on_c, 0, 35, 0
10, 136021, Note_on_c, 0, 38, 100
10, 136081, Note_on_c, 0, 38, 0
10, 136081, Note_on_c, 0, 33, 100
10, 136141, Note_on_c, 0, 33, 0
10, 136141, Note_on_c, 0, 35, 100
10, 136201, Note_on_c, 0, 35, 0
10, 136201, Note_on_c, 0, 31, 100
10, 136261, Note_on_c, 0, 31, 0
10, 136261, Note_on_c, 0, 33, 100
10, 136321, Note_on_c, 0, 33, 0
10, 136321, Note_on_c, 0, 28, 100
10, 136441, Note_on_c, 0, 28, 0
10, 136442, Note_on_c, 0, 35, 100
10, 136502, Note_on_c, 0, 35, 0
10, 136502, Note_on_c, 0, 38, 100
10, 136562, Note_on_c, 0, 38, 0
10, 136562, Note_on_c, 0, 35, 100
10, 136622, Note_on_c, 0, 35, 0
10, 136622, Note_on_c, 0, 40, 100
10, 136682, Note_on_c, 0, 40, 0
10, 136682, Note_on_c, 0, 35, 100
10, 136742, Note_on_c, 0, 35, 0
10, 136742, Note_on_c, 0, 38, 100
10, 136802, Note_on_c, 0, 38, 0
10, 136802, Note_on_c, 0, 33, 100
10, 136862, Note_on_c, 0, 33, 0
10, 136862, Note_on_c, 0, 35, 100
10, 136922, Note_on_c, 0, 35, 0
10, 136922, Note_on_c, 0, 31, 100
10, 136982, Note_on_c, 0, 31, 0
10, 136982, Note_on_c, 0, 33, 100
10, 137042, Note_on_c, 0, 33, 0
10, 137042, Note_on_c, 0, 28, 100
10, 137162, Note_on_c, 0, 28, 0
10, 137163, Note_on_c, 0, 35, 100
10, 137223, Note_on_c, 0, 35, 0
10, 137223, Note_on_c, 0, 38, 100
10, 137283, Note_on_c, 0, 38, 0
10, 137283, Note_on_c, 0, 35, 100
10, 137343, Note_on_c, 0, 35, 0
10, 137343, Note_on_c, 0, 40, 100
10, 137403, Note_on_c, 0, 40, 0
10, 137403, Note_on_c, 0, 35, 100
10, 137463, Note_on_c, 0, 35, 0
10, 137463, Note_on_c, 0, 38, 100
10, 137523, Note_on_c, 0, 38, 0
10, 137523, Note_on_c, 0, 33, 100
10, 137583, Note_on_c, 0, 33, 0
10, 137583, Note_on_c, 0, 35, 100
10, 137643, Note_on_c, 0, 35, 0
10, 137643, Note_on_c, 0, 31, 100
10, 137703, Note_on_c, 0, 31, 0
10, 137703, Note_on_c, 0, 33, 100
10, 137763, Note_on_c, 0, 33, 0
10, 137763, Note_on_c, 0, 28, 100
10, 137883, Note_on_c, 0, 28, 0
10, 137884, Note_on_c, 0, 35, 100
10, 137944, Note_on_c, 0, 35, 0
10, 137944, Note_on_c, 0, 38, 100
10, 138004, Note_on_c, 0, 38, 0
10, 138004, Note_on_c, 0, 35, 100
10, 138064, Note_on_c, 0, 35, 0
10, 138064, Note_on_c, 0, 40, 100
10, 138124, Note_on_c, 0, 40, 0
10, 138124, Note_on_c, 0, 35, 100
10, 138184, Note_on_c, 0, 35, 0
10, 138184, Note_on_c, 0, 38, 100
10, 138244, Note_on_c, 0, 38, 0
10, 138244, Note_on_c, 0, 33, 100
10, 138304, Note_on_c, 0, 33, 0
10, 138304, Note_on_c, 0, 35, 100
10, 138364, Note_on_c, 0, 35, 0
10, 138364, Note_on_c, 0, 31, 100
10, 138424, Note_on_c, 0, 31, 0
10, 138424, Note_on_c, 0, 33, 100
10, 138484, Note_on_c, 0, 33, 0
10, 138484, Note_on_c, 0, 28, 100
10, 138604, Note_on_c, 0, 28, 0
10, 138605, Note_on_c, 0, 35, 100
10, 138665, Note_on_c, 0, 35, 0
10, 138665, Note_on_c, 0, 38, 100
10, 138725, Note_on_c, 0, 38, 0
10, 138725, Note_on_c, 0, 35, 100
10, 138785, Note_on_c, 0, 35, 0
10, 138785, Note_on_c, 0, 40, 100
10, 138845, Note_on_c, 0, 40, 0
10, 138845, Note_on_c, 0, 35, 100
10, 138905, Note_on_c, 0, 35, 0
10, 138905, Note_on_c, 0, 38, 100
10, 138965, Note_on_c, 0, 38, 0
10, 138965, Note_on_c, 0, 33, 100
10, 139025, Note_on_c, 0, 33, 0
10, 139025, Note_on_c, 0, 35, 100
10, 139085, Note_on_c, 0, 35, 0
10, 139085, Note_on_c, 0, 31, 100
10, 139145, Note_on_c, 0, 31, 0
10, 139145, Note_on_c, 0, 33, 100
10, 139205, Note_on_c, 0, 33, 0
10, 139205, Note_on_c, 0, 28, 100
10, 139325, Note_on_c, 0, 28, 0
10, 139326, Note_on_c, 0, 35, 100
10, 139386, Note_on_c, 0, 35, 0
10, 139386, Note_on_c, 0, 38, 100
10, 139446, Note_on_c, 0, 38, 0
10, 139446, Note_on_c, 0, 35, 100
10, 139506, Note_on_c, 0, 35, 0
10, 139506, Note_on_c, 0, 40, 100
10, 139566, Note_on_c, 0, 40, 0
10, 139566, Note_on_c, 0, 35, 100
10, 139626, Note_on_c, 0, 35, 0
10, 139626, Note_on_c, 0, 38, 100
10, 139686, Note_on_c, 0, 38, 0
10, 139686, Note_on_c, 0, 33, 100
10, 139746, Note_on_c, 0, 33, 0
10, 139746, Note_on_c, 0, 35, 100
10, 139806, Note_on_c, 0, 35, 0
10, 139806, Note_on_c, 0, 31, 100
10, 139866, Note_on_c, 0, 31, 0
10, 139866, Note_on_c, 0, 33, 100
10, 139926, Note_on_c, 0, 33, 0
10, 139926, Note_on_c, 0, 28, 100
10, 140046, Note_on_c, 0, 28, 0
10, 140047, Note_on_c, 0, 35, 100
10, 140107, Note_on_c, 0, 35, 0
10, 140107, Note_on_c, 0, 38, 100
10, 140167, Note_on_c, 0, 38, 0
10, 140167, Note_on_c, 0, 35, 100
10, 140227, Note_on_c, 0, 35, 0
10, 140227, Note_on_c, 0, 40, 100
10, 140287, Note_on_c, 0, 40, 0
10, 140287, Note_on_c, 0, 35, 100
10, 140347, Note_on_c, 0, 35, 0
10, 140347, Note_on_c, 0, 38, 100
10, 140407, Note_on_c, 0, 38, 0
10, 140407, Note_on_c, 0, 33, 100
10, 140467, Note_on_c, 0, 33, 0
10, 140467, Note_on_c, 0, 35, 100
10, 140527, Note_on_c, 0, 35, 0
10, 140527, Note_on_c, 0, 31, 100
10, 140587, Note_on_c, 0, 31, 0
10, 140587, Note_on_c, 0, 33, 100
10, 140647, Note_on_c, 0, 33, 0
10, 140647, Note_on_c, 0, 28, 100
10, 140760, Note_on_c, 0, 35, 100
10, 140767, Note_on_c, 0, 28, 0
10, 140820, Note_on_c, 0, 35, 0
10, 140820, Note_on_c, 0, 38, 100
10, 140880, Note_on_c, 0, 38, 0
10, 140880, Note_on_c, 0, 35, 100
10, 140940, Note_on_c, 0, 35, 0
10, 140940, Note_on_c, 0, 40, 100
10, 141000, Note_on_c, 0, 40, 0
10, 141000, Note_on_c, 0, 35, 100
10, 141060, Note_on_c, 0, 35, 0
10, 141060, Note_on_c, 0, 38, 100
10, 141120, Note_on_c, 0, 38, 0
10, 141120, Note_on_c, 0, 33, 100
10, 141180, Note_on_c, 0, 33, 0
10, 141180, Note_on_c, 0, 35, 100
10, 141240, Note_on_c, 0, 35, 0
10, 141240, Note_on_c, 0, 31, 100
10, 141300, Note_on_c, 0, 31, 0
10, 141300, Note_on_c, 0, 33, 100
10, 141360, Note_on_c, 0, 33, 0
10, 141360, Note_on_c, 0, 26, 100
10, 141480, Note_on_c, 0, 26, 0
10, 141480, End_track
11, 0, Start_track
11, 0, MIDI_port, 0
11, 0, Title_t, "Piano acc."
11, 0, Program_c, 10, 1
11, 3600, Note_on_c, 10, 50, 100
11, 3600, Control_c, 10, 64, 127
11, 3600, Note_on_c, 10, 54, 100
11, 3600, Note_on_c, 10, 62, 100
11, 3600, Note_on_c, 10, 66, 100
11, 3690, Note_on_c, 10, 66, 0
11, 3690, Note_on_c, 10, 50, 0
11, 3690, Note_on_c, 10, 54, 0
11, 3690, Note_on_c, 10, 62, 0
11, 3690, Note_on_c, 10, 54, 100
11, 3690, Note_on_c, 10, 57, 100
11, 3690, Note_on_c, 10, 66, 100
11, 3690, Note_on_c, 10, 69, 100
11, 3780, Note_on_c, 10, 69, 0
11, 3780, Note_on_c, 10, 54, 0
11, 3780, Note_on_c, 10, 57, 0
11, 3780, Note_on_c, 10, 66, 0
11, 3780, Note_on_c, 10, 57, 100
11, 3780, Note_on_c, 10, 62, 100
11, 3780, Note_on_c, 10, 69, 100
11, 3780, Note_on_c, 10, 74, 100
11, 4050, Control_c, 10, 64, 0
11, 4080, Note_on_c, 10, 74, 0
11, 4080, Note_on_c, 10, 57, 0
11, 4080, Note_on_c, 10, 62, 0
11, 4080, Note_on_c, 10, 69, 0
11, 4080, Note_on_c, 10, 52, 100
11, 4080, Control_c, 10, 64, 127
11, 4080, Note_on_c, 10, 60, 100
11, 4080, Note_on_c, 10, 64, 100
11, 4080, Note_on_c, 10, 57, 100
11, 4170, Note_on_c, 10, 57, 0
11, 4170, Note_on_c, 10, 52, 0
11, 4170, Note_on_c, 10, 60, 0
11, 4170, Note_on_c, 10, 64, 0
11, 4170, Note_on_c, 10, 57, 100
11, 4170, Note_on_c, 10, 64, 100
11, 4170, Note_on_c, 10, 69, 100
11, 4170, Note_on_c, 10, 60, 100
11, 4260, Note_on_c, 10, 60, 0
11, 4260, Note_on_c, 10, 57, 0
11, 4260, Note_on_c, 10, 64, 0
11, 4260, Note_on_c, 10, 69, 0
11, 4260, Note_on_c, 10, 64, 100
11, 4260, Note_on_c, 10, 69, 100
11, 4260, Note_on_c, 10, 72, 100
11, 4260, Note_on_c, 10, 60, 100
11, 4500, Note_on_c, 10, 69, 0
11, 4500, Note_on_c, 10, 64, 0
11, 4530, Control_c, 10, 64, 0
11, 4560, Note_on_c, 10, 72, 0
11, 4560, Note_on_c, 10, 60, 0
11, 4560, Note_on_c, 10, 78, 100
11, 4560, Control_c, 10, 64, 127
11, 4560, Note_on_c, 10, 62, 100
11, 4560, Note_on_c, 10, 66, 100
11, 4650, Note_on_c, 10, 66, 0
11, 4650, Note_on_c, 10, 62, 0
11, 4650, Note_on_c, 10, 78, 0
11, 4650, Note_on_c, 10, 79, 100
11, 4650, Note_on_c, 10, 62, 100
11, 4650, Note_on_c, 10, 67, 100
11, 4740, Note_on_c, 10, 67, 0
11, 4740, Note_on_c, 10, 62, 0
11, 4740, Note_on_c, 10, 79, 0
11, 4740, Note_on_c, 10, 81, 100
11, 4740, Note_on_c, 10, 62, 100
11, 4740, Note_on_c, 10, 69, 100
11, 4800, Note_on_c, 10, 69, 0
11, 4800, Note_on_c, 10, 62, 0
11, 4800, Note_on_c, 10, 81, 0
11, 4800, Note_on_c, 10, 82, 100
11, 4800, Control_c, 10, 64, 127
11, 4800, Note_on_c, 10, 67, 100
11, 4800, Note_on_c, 10, 70, 100
11, 4890, Note_on_c, 10, 70, 0
11, 4890, Note_on_c, 10, 67, 0
11, 4890, Note_on_c, 10, 82, 0
11, 4890, Note_on_c, 10, 84, 100
11, 4890, Note_on_c, 10, 67, 100
11, 4890, Note_on_c, 10, 72, 100
11, 4980, Note_on_c, 10, 72, 0
11, 4980, Note_on_c, 10, 67, 0
11, 4980, Note_on_c, 10, 84, 0
11, 4980, Note_on_c, 10, 86, 100
11, 4980, Note_on_c, 10, 67, 100
11, 4980, Note_on_c, 10, 74, 100
11, 5040, Note_on_c, 10, 74, 0
11, 5040, Note_on_c, 10, 67, 0
11, 5040, Note_on_c, 10, 86, 0
11, 5040, Control_c, 10, 64, 127
11, 5040, Note_on_c, 10, 79, 100
11, 5040, Note_on_c, 10, 64, 100
11, 5040, Note_on_c, 10, 67, 100
11, 5130, Note_on_c, 10, 67, 0
11, 5130, Note_on_c, 10, 64, 0
11, 5130, Note_on_c, 10, 79, 0
11, 5130, Note_on_c, 10, 77, 100
11, 5130, Note_on_c, 10, 60, 100
11, 5130, Note_on_c, 10, 65, 100
11, 5220, Note_on_c, 10, 65, 0
11, 5220, Note_on_c, 10, 60, 0
11, 5220, Note_on_c, 10, 77, 0
11, 5220, Note_on_c, 10, 76, 100
11, 5220, Note_on_c, 10, 60, 100
11, 5220, Note_on_c, 10, 64, 100
11, 5280, Note_on_c, 10, 64, 0
11, 5280, Note_on_c, 10, 60, 0
11, 5280, Note_on_c, 10, 76, 0
11, 5280, Control_c, 10, 64, 0
11, 5280, Note_on_c, 10, 72, 100
11, 5280, Note_on_c, 10, 55, 100
11, 5280, Note_on_c, 10, 60, 100
11, 5520, Note_on_c, 10, 60, 0
11, 5520, Note_on_c, 10, 55, 0
11, 5520, Note_on_c, 10, 72, 0
11, 5520, Note_on_c, 10, 50, 100
11, 5520, Control_c, 10, 64, 127
11, 5520, Note_on_c, 10, 54, 100
11, 5520, Note_on_c, 10, 62, 100
11, 5520, Note_on_c, 10, 66, 100
11, 5610, Note_on_c, 10, 66, 0
11, 5610, Note_on_c, 10, 50, 0
11, 5610, Note_on_c, 10, 54, 0
11, 5610, Note_on_c, 10, 62, 0
11, 5610, Note_on_c, 10, 54, 100
11, 5610, Note_on_c, 10, 57, 100
11, 5610, Note_on_c, 10, 66, 100
11, 5610, Note_on_c, 10, 69, 100
11, 5700, Note_on_c, 10, 69, 0
11, 5700, Note_on_c, 10, 54, 0
11, 5700, Note_on_c, 10, 57, 0
11, 5700, Note_on_c, 10, 66, 0
11, 5700, Note_on_c, 10, 57, 100
11, 5700, Note_on_c, 10, 62, 100
11, 5700, Note_on_c, 10, 69, 100
11, 5700, Note_on_c, 10, 74, 100
11, 5970, Control_c, 10, 64, 0
11, 6000, Note_on_c, 10, 74, 0
11, 6000, Note_on_c, 10, 57, 0
11, 6000, Note_on_c, 10, 62, 0
11, 6000, Note_on_c, 10, 69, 0
11, 6000, Note_on_c, 10, 52, 100
11, 6000, Control_c, 10, 64, 127
11, 6000, Note_on_c, 10, 60, 100
11, 6000, Note_on_c, 10, 64, 100
11, 6000, Note_on_c, 10, 57, 100
11, 6090, Note_on_c, 10, 57, 0
11, 6090, Note_on_c, 10, 52, 0
11, 6090, Note_on_c, 10, 60, 0
11, 6090, Note_on_c, 10, 64, 0
11, 6090, Note_on_c, 10, 57, 100
11, 6090, Note_on_c, 10, 64, 100
11, 6090, Note_on_c, 10, 69, 100
11, 6090, Note_on_c, 10, 60, 100
11, 6180, Note_on_c, 10, 60, 0
11, 6180, Note_on_c, 10, 57, 0
11, 6180, Note_on_c, 10, 64, 0
11, 6180, Note_on_c, 10, 69, 0
11, 6180, Note_on_c, 10, 64, 100
11, 6180, Note_on_c, 10, 69, 100
11, 6180, Note_on_c, 10, 72, 100
11, 6180, Note_on_c, 10, 60, 100
11, 6420, Note_on_c, 10, 69, 0
11, 6420, Note_on_c, 10, 64, 0
11, 6450, Control_c, 10, 64, 0
11, 6480, Note_on_c, 10, 72, 0
11, 6480, Note_on_c, 10, 60, 0
11, 6480, Note_on_c, 10, 78, 100
11, 6480, Control_c, 10, 64, 127
11, 6480, Note_on_c, 10, 62, 100
11, 6480, Note_on_c, 10, 66, 100
11, 6570, Note_on_c, 10, 66, 0
11, 6570, Note_on_c, 10, 62, 0
11, 6570, Note_on_c, 10, 78, 0
11, 6570, Note_on_c, 10, 79, 100
11, 6570, Note_on_c, 10, 62, 100
11, 6570, Note_on_c, 10, 67, 100
11, 6660, Note_on_c, 10, 67, 0
11, 6660, Note_on_c, 10, 62, 0
11, 6660, Note_on_c, 10, 79, 0
11, 6660, Note_on_c, 10, 81, 100
11, 6660, Note_on_c, 10, 62, 100
11, 6660, Note_on_c, 10, 69, 100
11, 6720, Note_on_c, 10, 69, 0
11, 6720, Note_on_c, 10, 62, 0
11, 6720, Note_on_c, 10, 81, 0
11, 6720, Note_on_c, 10, 82, 100
11, 6720, Control_c, 10, 64, 127
11, 6720, Note_on_c, 10, 67, 100
11, 6720, Note_on_c, 10, 70, 100
11, 6810, Note_on_c, 10, 70, 0
11, 6810, Note_on_c, 10, 67, 0
11, 6810, Note_on_c, 10, 82, 0
11, 6810, Note_on_c, 10, 84, 100
11, 6810, Note_on_c, 10, 67, 100
11, 6810, Note_on_c, 10, 72, 100
11, 6900, Note_on_c, 10, 72, 0
11, 6900, Note_on_c, 10, 67, 0
11, 6900, Note_on_c, 10, 84, 0
11, 6900, Note_on_c, 10, 86, 100
11, 6900, Note_on_c, 10, 67, 100
11, 6900, Note_on_c, 10, 74, 100
11, 6960, Note_on_c, 10, 74, 0
11, 6960, Note_on_c, 10, 67, 0
11, 6960, Note_on_c, 10, 86, 0
11, 6960, Control_c, 10, 64, 127
11, 6960, Note_on_c, 10, 79, 100
11, 6960, Note_on_c, 10, 64, 100
11, 6960, Note_on_c, 10, 67, 100
11, 7050, Note_on_c, 10, 67, 0
11, 7050, Note_on_c, 10, 64, 0
11, 7050, Note_on_c, 10, 79, 0
11, 7050, Note_on_c, 10, 77, 100
11, 7050, Note_on_c, 10, 60, 100
11, 7050, Note_on_c, 10, 65, 100
11, 7080, Control_c, 10, 64, 0
11, 7140, Note_on_c, 10, 65, 0
11, 7140, Note_on_c, 10, 60, 0
11, 7140, Note_on_c, 10, 77, 0
11, 7140, Note_on_c, 10, 76, 100
11, 7140, Note_on_c, 10, 60, 100
11, 7140, Note_on_c, 10, 64, 100
11, 7200, Note_on_c, 10, 64, 0
11, 7200, Note_on_c, 10, 60, 0
11, 7200, Note_on_c, 10, 76, 0
11, 7200, Control_c, 10, 64, 67
11, 7200, Note_on_c, 10, 72, 100
11, 7200, Note_on_c, 10, 55, 100
11, 7200, Note_on_c, 10, 60, 100
11, 7440, Control_c, 10, 64, 0
11, 7920, Note_on_c, 10, 60, 0
11, 7920, Note_on_c, 10, 55, 0
11, 7920, Note_on_c, 10, 72, 0
11, 15720, Control_c, 10, 64, 127
11, 15720, Note_on_c, 10, 52, 90
11, 15720, Note_on_c, 10, 59, 90
11, 15720, Note_on_c, 10, 68, 90
11, 15720, Note_on_c, 10, 64, 90
11, 15900, Note_on_c, 10, 64, 0
11, 15900, Note_on_c, 10, 52, 0
11, 15900, Note_on_c, 10, 59, 0
11, 15900, Note_on_c, 10, 68, 0
11, 15900, Note_on_c, 10, 76, 90
11, 15900, Note_on_c, 10, 52, 90
11, 15900, Note_on_c, 10, 59, 90
11, 15900, Note_on_c, 10, 64, 90
11, 15900, Note_on_c, 10, 68, 90
11, 15900, Note_on_c, 10, 71, 90
11, 16020, Note_on_c, 10, 71, 0
11, 16020, Note_on_c, 10, 52, 0
11, 16020, Note_on_c, 10, 59, 0
11, 16020, Note_on_c, 10, 76, 0
11, 16020, Note_on_c, 10, 68, 0
11, 16020, Note_on_c, 10, 64, 0
11, 16020, Control_c, 10, 64, 67
11, 16020, Control_c, 10, 64, 0
11, 16020, Note_on_c, 10, 64, 100
11, 16035, Note_on_c, 10, 64, 0
11, 16035, Note_on_c, 10, 68, 100
11, 16050, Note_on_c, 10, 68, 0
11, 16050, Note_on_c, 10, 71, 100
11, 16065, Note_on_c, 10, 71, 0
11, 16065, Note_on_c, 10, 76, 100
11, 16080, Note_on_c, 10, 76, 0
11, 16080, Note_on_c, 10, 76, 100
11, 16080, Note_on_c, 10, 83, 100
11, 16110, Note_on_c, 10, 83, 0
11, 16110, Note_on_c, 10, 76, 0
11, 16110, Note_on_c, 10, 76, 100
11, 16110, Note_on_c, 10, 80, 100
11, 16140, Note_on_c, 10, 80, 0
11, 16140, Note_on_c, 10, 76, 0
11, 16140, Note_on_c, 10, 76, 100
11, 16140, Note_on_c, 10, 80, 100
11, 16170, Note_on_c, 10, 80, 0
11, 16170, Note_on_c, 10, 76, 0
11, 16170, Control_c, 10, 64, 0
11, 16170, Note_on_c, 10, 71, 100
11, 16170, Note_on_c, 10, 76, 100
11, 16200, Note_on_c, 10, 76, 0
11, 16200, Note_on_c, 10, 71, 0
11, 16200, Control_c, 10, 64, 127
11, 16200, Note_on_c, 10, 59, 90
11, 16200, Note_on_c, 10, 71, 90
11, 16200, Note_on_c, 10, 74, 90
11, 16200, Note_on_c, 10, 66, 90
11, 16440, Note_on_c, 10, 74, 0
11, 16440, Note_on_c, 10, 71, 0
11, 16440, Note_on_c, 10, 81, 90
11, 16440, Note_on_c, 10, 74, 90
11, 16440, Note_on_c, 10, 86, 90
11, 16470, Note_on_c, 10, 62, 90
11, 16500, Note_on_c, 10, 62, 0
11, 16500, Note_on_c, 10, 59, 90
11, 16530, Note_on_c, 10, 59, 0
11, 16530, Note_on_c, 10, 86, 0
11, 16530, Note_on_c, 10, 81, 0
11, 16530, Note_on_c, 10, 74, 0
11, 16530, Note_on_c, 10, 81, 90
11, 16530, Note_on_c, 10, 73, 90
11, 16530, Note_on_c, 10, 85, 90
11, 16560, Note_on_c, 10, 66, 90
11, 16590, Note_on_c, 10, 66, 0
11, 16590, Note_on_c, 10, 62, 90
11, 16620, Note_on_c, 10, 62, 0
11, 16620, Note_on_c, 10, 85, 0
11, 16620, Note_on_c, 10, 81, 0
11, 16620, Note_on_c, 10, 73, 0
11, 16620, Note_on_c, 10, 78, 90
11, 16620, Note_on_c, 10, 71, 90
11, 16620, Note_on_c, 10, 83, 90
11, 16650, Control_c, 10, 64, 0
11, 16650, Note_on_c, 10, 64, 90
11, 16680, Note_on_c, 10, 64, 0
11, 16680, Note_on_c, 10, 59, 0
11, 16680, Note_on_c, 10, 78, 0
11, 16680, Note_on_c, 10, 66, 0
11, 16680, Note_on_c, 10, 83, 0
11, 16680, Note_on_c, 10, 71, 0
11, 16680, Control_c, 10, 64, 127
11, 16680, Note_on_c, 10, 71, 90
11, 16680, Note_on_c, 10, 76, 90
11, 16680, Note_on_c, 10, 80, 90
11, 16710, Note_on_c, 10, 68, 90
11, 16770, Note_on_c, 10, 68, 0
11, 16770, Note_on_c, 10, 71, 0
11, 16770, Note_on_c, 10, 76, 0
11, 16770, Note_on_c, 10, 80, 0
11, 16770, Note_on_c, 10, 76, 90
11, 16770, Note_on_c, 10, 81, 90
11, 16800, Note_on_c, 10, 69, 90
11, 16830, Note_on_c, 10, 69, 0
11, 16830, Note_on_c, 10, 64, 90
11, 16860, Note_on_c, 10, 64, 0
11, 16860, Note_on_c, 10, 81, 0
11, 16860, Note_on_c, 10, 76, 0
11, 16860, Note_on_c, 10, 76, 90
11, 16860, Note_on_c, 10, 83, 90
11, 16920, Note_on_c, 10, 83, 0
11, 16920, Note_on_c, 10, 76, 0
11, 16920, Note_on_c, 10, 72, 90
11, 16920, Note_on_c, 10, 81, 90
11, 16920, Note_on_c, 10, 84, 90
11, 17010, Note_on_c, 10, 84, 0
11, 17010, Note_on_c, 10, 81, 0
11, 17010, Note_on_c, 10, 72, 0
11, 17010, Note_on_c, 10, 74, 90
11, 17010, Note_on_c, 10, 83, 90
11, 17010, Note_on_c, 10, 86, 90
11, 17100, Note_on_c, 10, 86, 0
11, 17100, Note_on_c, 10, 83, 0
11, 17100, Note_on_c, 10, 74, 0
11, 17100, Note_on_c, 10, 76, 90
11, 17100, Note_on_c, 10, 81, 90
11, 17100, Note_on_c, 10, 88, 90
11, 17130, Control_c, 10, 64, 0
11, 17160, Note_on_c, 10, 88, 0
11, 17160, Note_on_c, 10, 81, 0
11, 17160, Note_on_c, 10, 76, 0
11, 17160, Control_c, 10, 64, 127
11, 17160, Note_on_c, 10, 78, 90
11, 17160, Note_on_c, 10, 69, 90
11, 17160, Note_on_c, 10, 81, 90
11, 17250, Note_on_c, 10, 81, 0
11, 17250, Note_on_c, 10, 69, 0
11, 17250, Note_on_c, 10, 78, 0
11, 17250, Note_on_c, 10, 67, 90
11, 17250, Note_on_c, 10, 79, 90
11, 17340, Note_on_c, 10, 79, 0
11, 17340, Note_on_c, 10, 67, 0
11, 17340, Note_on_c, 10, 66, 90
11, 17340, Note_on_c, 10, 78, 90
11, 17400, Note_on_c, 10, 78, 0
11, 17400, Note_on_c, 10, 66, 0
11, 17400, Note_on_c, 10, 66, 90
11, 17400, Note_on_c, 10, 62, 90
11, 17400, Note_on_c, 10, 74, 90
11, 17610, Control_c, 10, 64, 0
11, 17640, Note_on_c, 10, 74, 0
11, 17640, Note_on_c, 10, 62, 0
11, 17640, Note_on_c, 10, 66, 0
11, 17640, Control_c, 10, 64, 127
11, 17640, Note_on_c, 10, 68, 90
11, 17640, Note_on_c, 10, 59, 90
11, 17640, Note_on_c, 10, 52, 90
11, 17640, Note_on_c, 10, 64, 90
11, 17820, Note_on_c, 10, 64, 0
11, 17820, Note_on_c, 10, 68, 0
11, 17820, Note_on_c, 10, 59, 0
11, 17820, Note_on_c, 10, 52, 0
11, 17940, Note_on_c, 10, 83, 90
11, 17940, Note_on_c, 10, 88, 90
11, 17955, Note_on_c, 10, 88, 0
11, 17955, Note_on_c, 10, 83, 0
11, 17955, Note_on_c, 10, 80, 90
11, 17955, Note_on_c, 10, 83, 90
11, 17970, Note_on_c, 10, 83, 0
11, 17970, Note_on_c, 10, 80, 0
11, 17970, Note_on_c, 10, 76, 90
11, 17970, Note_on_c, 10, 80, 90
11, 17985, Note_on_c, 10, 80, 0
11, 17985, Note_on_c, 10, 76, 0
11, 17985, Note_on_c, 10, 71, 90
11, 17985, Note_on_c, 10, 76, 90
11, 18000, Note_on_c, 10, 76, 0
11, 18000, Note_on_c, 10, 71, 0
11, 18000, Note_on_c, 10, 80, 90
11, 18000, Note_on_c, 10, 83, 90
11, 18015, Note_on_c, 10, 83, 0
11, 18015, Note_on_c, 10, 80, 0
11, 18015, Note_on_c, 10, 76, 90
11, 18015, Note_on_c, 10, 80, 90
11, 18030, Note_on_c, 10, 80, 0
11, 18030, Note_on_c, 10, 76, 0
11, 18030, Note_on_c, 10, 71, 90
11, 18030, Note_on_c, 10, 76, 90
11, 18045, Note_on_c, 10, 76, 0
11, 18045, Note_on_c, 10, 71, 0
11, 18045, Note_on_c, 10, 68, 90
11, 18045, Note_on_c, 10, 71, 90
11, 18060, Note_on_c, 10, 71, 0
11, 18060, Note_on_c, 10, 68, 0
11, 18060, Note_on_c, 10, 76, 90
11, 18060, Note_on_c, 10, 80, 90
11, 18075, Note_on_c, 10, 80, 0
11, 18075, Note_on_c, 10, 76, 0
11, 18075, Note_on_c, 10, 71, 90
11, 18075, Note_on_c, 10, 76, 90
11, 18090, Note_on_c, 10, 76, 0
11, 18090, Note_on_c, 10, 71, 0
11, 18090, Note_on_c, 10, 68, 90
11, 18090, Note_on_c, 10, 71, 90
11, 18105, Note_on_c, 10, 71, 0
11, 18105, Note_on_c, 10, 68, 0
11, 18105, Control_c, 10, 64, 0
11, 18105, Note_on_c, 10, 64, 90
11, 18105, Note_on_c, 10, 68, 90
11, 18120, Note_on_c, 10, 68, 0
11, 18120, Note_on_c, 10, 64, 0
11, 18120, Control_c, 10, 64, 127
11, 18120, Note_on_c, 10, 59, 90
11, 18120, Note_on_c, 10, 62, 90
11, 18120, Note_on_c, 10, 71, 90
11, 18120, Note_on_c, 10, 66, 90
11, 18360, Note_on_c, 10, 66, 0
11, 18360, Note_on_c, 10, 59, 0
11, 18360, Note_on_c, 10, 62, 0
11, 18360, Note_on_c, 10, 71, 0
11, 18360, Note_on_c, 10, 74, 90
11, 18360, Note_on_c, 10, 62, 90
11, 18360, Note_on_c, 10, 81, 90
11, 18360, Note_on_c, 10, 86, 90
11, 18420, Note_on_c, 10, 86, 0
11, 18420, Note_on_c, 10, 81, 0
11, 18420, Note_on_c, 10, 74, 0
11, 18420, Note_on_c, 10, 73, 90
11, 18420, Note_on_c, 10, 80, 90
11, 18420, Note_on_c, 10, 85, 90
11, 18480, Note_on_c, 10, 85, 0
11, 18480, Note_on_c, 10, 62, 0
11, 18480, Note_on_c, 10, 73, 0
11, 18480, Note_on_c, 10, 80, 0
11, 18480, Note_on_c, 10, 71, 90
11, 18480, Note_on_c, 10, 62, 90
11, 18480, Note_on_c, 10, 78, 90
11, 18480, Note_on_c, 10, 83, 90
11, 18540, Note_on_c, 10, 83, 0
11, 18540, Note_on_c, 10, 78, 0
11, 18540, Note_on_c, 10, 71, 0
11, 18540, Note_on_c, 10, 69, 90
11, 18540, Note_on_c, 10, 76, 90
11, 18540, Note_on_c, 10, 81, 90
11, 18570, Control_c, 10, 64, 0
11, 18600, Note_on_c, 10, 81, 0
11, 18600, Note_on_c, 10, 62, 0
11, 18600, Note_on_c, 10, 69, 0
11, 18600, Note_on_c, 10, 76, 0
11, 18600, Control_c, 10, 64, 127
11, 18600, Note_on_c, 10, 76, 90
11, 18600, Note_on_c, 10, 68, 90
11, 18600, Note_on_c, 10, 80, 90
11, 18690, Note_on_c, 10, 80, 0
11, 18690, Note_on_c, 10, 68, 0
11, 18690, Note_on_c, 10, 76, 0
11, 18690, Note_on_c, 10, 76, 90
11, 18690, Note_on_c, 10, 69, 90
11, 18690, Note_on_c, 10, 81, 90
11, 18720, Note_on_c, 10, 68, 90
11, 18750, Note_on_c, 10, 68, 0
11, 18750, Note_on_c, 10, 64, 90
11, 18780, Note_on_c, 10, 64, 0
11, 18780, Note_on_c, 10, 81, 0
11, 18780, Note_on_c, 10, 69, 0
11, 18780, Note_on_c, 10, 76, 0
11, 18780, Note_on_c, 10, 76, 90
11, 18780, Note_on_c, 10, 71, 90
11, 18780, Note_on_c, 10, 83, 90
11, 18810, Control_c, 10, 64, 0
11, 18840, Note_on_c, 10, 83, 0
11, 18840, Note_on_c, 10, 71, 0
11, 18840, Note_on_c, 10, 76, 0
11, 18840, Control_c, 10, 64, 127
11, 18840, Note_on_c, 10, 81, 90
11, 18840, Note_on_c, 10, 72, 90
11, 18840, Note_on_c, 10, 84, 90
11, 18870, Note_on_c, 10, 64, 90
11, 18900, Note_on_c, 10, 64, 0
11, 18930, Note_on_c, 10, 81, 0
11, 18930, Note_on_c, 10, 72, 0
11, 18930, Note_on_c, 10, 84, 0
11, 18930, Note_on_c, 10, 81, 90
11, 18930, Note_on_c, 10, 74, 90
11, 18930, Note_on_c, 10, 86, 90
11, 18960, Note_on_c, 10, 64, 90
11, 18990, Note_on_c, 10, 64, 0
11, 18990, Note_on_c, 10, 60, 90
11, 19020, Note_on_c, 10, 60, 0
11, 19020, Note_on_c, 10, 86, 0
11, 19020, Note_on_c, 10, 74, 0
11, 19020, Note_on_c, 10, 81, 0
11, 19020, Note_on_c, 10, 81, 90
11, 19020, Note_on_c, 10, 76, 90
11, 19020, Note_on_c, 10, 88, 90
11, 19065, Control_c, 10, 64, 0
11, 19080, Note_on_c, 10, 88, 0
11, 19080, Note_on_c, 10, 76, 0
11, 19080, Note_on_c, 10, 81, 0
11, 19080, Note_on_c, 10, 78, 90
11, 19080, Note_on_c, 10, 69, 90
11, 19080, Note_on_c, 10, 81, 90
11, 19170, Note_on_c, 10, 81, 0
11, 19170, Note_on_c, 10, 69, 0
11, 19170, Note_on_c, 10, 78, 0
11, 19170, Note_on_c, 10, 67, 90
11, 19170, Note_on_c, 10, 79, 90
11, 19260, Note_on_c, 10, 79, 0
11, 19260, Note_on_c, 10, 67, 0
11, 19260, Note_on_c, 10, 74, 90
11, 19260, Note_on_c, 10, 66, 90
11, 19260, Note_on_c, 10, 78, 90
11, 19320, Note_on_c, 10, 78, 0
11, 19320, Note_on_c, 10, 66, 0
11, 19320, Note_on_c, 10, 74, 0
11, 19320, Note_on_c, 10, 69, 90
11, 19320, Note_on_c, 10, 62, 90
11, 19320, Note_on_c, 10, 74, 90
11, 19560, Note_on_c, 10, 74, 0
11, 19560, Note_on_c, 10, 62, 0
11, 19560, Note_on_c, 10, 69, 0
11, 73560, Note_on_c, 10, 74, 100
11, 73560, Note_on_c, 10, 62, 100
11, 73614, Note_on_c, 10, 62, 0
11, 73614, Note_on_c, 10, 74, 0
11, 73620, Note_on_c, 10, 77, 100
11, 73620, Note_on_c, 10, 65, 100
11, 73674, Note_on_c, 10, 65, 0
11, 73674, Note_on_c, 10, 77, 0
11, 73680, Note_on_c, 10, 79, 100
11, 73680, Note_on_c, 10, 67, 100
11, 73734, Note_on_c, 10, 67, 0
11, 73734, Note_on_c, 10, 79, 0
11, 73740, Note_on_c, 10, 80, 100
11, 73740, Note_on_c, 10, 68, 100
11, 73794, Note_on_c, 10, 68, 0
11, 73794, Note_on_c, 10, 80, 0
11, 73800, Note_on_c, 10, 69, 100
11, 73800, Note_on_c, 10, 81, 100
11, 73854, Note_on_c, 10, 81, 0
11, 73854, Note_on_c, 10, 69, 0
11, 73860, Note_on_c, 10, 72, 100
11, 73880, Note_on_c, 10, 72, 0
11, 73880, Note_on_c, 10, 84, 100
11, 73900, Note_on_c, 10, 84, 0
11, 73900, Note_on_c, 10, 72, 100
11, 73920, Note_on_c, 10, 72, 0
11, 73920, Note_on_c, 10, 84, 100
11, 73940, Note_on_c, 10, 84, 0
11, 73940, Note_on_c, 10, 72, 100
11, 73960, Note_on_c, 10, 72, 0
11, 73960, Note_on_c, 10, 84, 100
11, 73980, Note_on_c, 10, 84, 0
11, 73980, Note_on_c, 10, 72, 100
11, 74000, Note_on_c, 10, 72, 0
11, 74000, Note_on_c, 10, 84, 100
11, 74020, Note_on_c, 10, 84, 0
11, 74020, Note_on_c, 10, 72, 100
11, 74040, Note_on_c, 10, 72, 0
11, 74040, Note_on_c, 10, 84, 100
11, 74060, Note_on_c, 10, 84, 0
11, 74060, Note_on_c, 10, 72, 100
11, 74080, Note_on_c, 10, 72, 0
11, 74080, Note_on_c, 10, 84, 100
11, 74100, Note_on_c, 10, 84, 0
11, 74100, Note_on_c, 10, 72, 100
11, 74120, Note_on_c, 10, 72, 0
11, 74120, Note_on_c, 10, 84, 100
11, 74140, Note_on_c, 10, 84, 0
11, 74140, Note_on_c, 10, 72, 100
11, 74160, Note_on_c, 10, 72, 0
11, 74160, Note_on_c, 10, 84, 100
11, 74180, Note_on_c, 10, 84, 0
11, 74180, Note_on_c, 10, 72, 100
11, 74200, Note_on_c, 10, 72, 0
11, 74200, Note_on_c, 10, 84, 100
11, 74220, Note_on_c, 10, 84, 0
11, 74280, Note_on_c, 10, 84, 100
11, 74310, Note_on_c, 10, 84, 0
11, 74310, Note_on_c, 10, 83, 100
11, 74340, Note_on_c, 10, 83, 0
11, 74340, Note_on_c, 10, 82, 100
11, 74370, Note_on_c, 10, 82, 0
11, 74370, Note_on_c, 10, 81, 100
11, 74400, Note_on_c, 10, 81, 0
11, 74400, Note_on_c, 10, 79, 100
11, 74430, Note_on_c, 10, 79, 0
11, 74430, Note_on_c, 10, 81, 100
11, 74460, Note_on_c, 10, 81, 0
11, 74460, Note_on_c, 10, 77, 100
11, 74490, Note_on_c, 10, 77, 0
11, 74490, Note_on_c, 10, 81, 100
11, 74520, Note_on_c, 10, 81, 0
11, 74520, Note_on_c, 10, 80, 100
11, 74550, Note_on_c, 10, 80, 0
11, 74550, Note_on_c, 10, 79, 100
11, 74580, Note_on_c, 10, 79, 0
11, 74580, Note_on_c, 10, 77, 100
11, 74610, Note_on_c, 10, 77, 0
11, 74610, Note_on_c, 10, 74, 100
11, 74640, Note_on_c, 10, 74, 0
11, 74640, Note_on_c, 10, 79, 100
11, 74670, Note_on_c, 10, 79, 0
11, 74670, Note_on_c, 10, 77, 100
11, 74700, Note_on_c, 10, 77, 0
11, 74700, Note_on_c, 10, 74, 100
11, 74730, Note_on_c, 10, 74, 0
11, 74730, Note_on_c, 10, 72, 100
11, 74760, Note_on_c, 10, 72, 0
11, 74760, Note_on_c, 10, 77, 100
11, 74790, Note_on_c, 10, 77, 0
11, 74790, Note_on_c, 10, 74, 100
11, 74820, Note_on_c, 10, 74, 0
11, 74820, Note_on_c, 10, 72, 100
11, 74850, Note_on_c, 10, 72, 0
11, 74850, Note_on_c, 10, 69, 100
11, 74880, Note_on_c, 10, 69, 0
11, 74880, Note_on_c, 10, 67, 100
11, 74910, Note_on_c, 10, 67, 0
11, 74910, Note_on_c, 10, 65, 100
11, 74940, Note_on_c, 10, 65, 0
11, 74940, Note_on_c, 10, 62, 100
11, 75060, Note_on_c, 10, 62, 0
11, 75060, Note_on_c, 10, 65, 100
11, 75120, Note_on_c, 10, 65, 0
11, 75120, Note_on_c, 10, 57, 100
11, 75120, Note_on_c, 10, 65, 100
11, 75180, Note_on_c, 10, 65, 0
11, 75180, Note_on_c, 10, 57, 0
11, 75240, Note_on_c, 10, 62, 100
11, 75300, Note_on_c, 10, 62, 0
11, 75300, Note_on_c, 10, 67, 100
11, 75320, Note_on_c, 10, 67, 0
11, 75320, Note_on_c, 10, 68, 100
11, 75340, Note_on_c, 10, 68, 0
11, 75340, Note_on_c, 10, 69, 100
11, 75360, Note_on_c, 10, 69, 0
11, 75360, Note_on_c, 10, 72, 100
11, 75420, Note_on_c, 10, 72, 0
11, 75420, Note_on_c, 10, 67, 100
11, 75450, Note_on_c, 10, 67, 0
11, 75450, Note_on_c, 10, 68, 100
11, 75480, Note_on_c, 10, 68, 0
11, 75480, Note_on_c, 10, 67, 100
11, 75510, Note_on_c, 10, 67, 0
11, 75510, Note_on_c, 10, 65, 100
11, 75540, Note_on_c, 10, 65, 0
11, 75540, Note_on_c, 10, 67, 100
11, 75600, Note_on_c, 10, 67, 0
11, 75600, Note_on_c, 10, 65, 100
11, 75660, Note_on_c, 10, 65, 0
11, 75720, Note_on_c, 10, 69, 100
11, 75750, Note_on_c, 10, 69, 0
11, 75750, Note_on_c, 10, 72, 100
11, 75780, Note_on_c, 10, 72, 0
11, 75780, Note_on_c, 10, 74, 100
11, 75810, Note_on_c, 10, 74, 0
11, 75810, Note_on_c, 10, 79, 100
11, 75840, Note_on_c, 10, 79, 0
11, 75840, Note_on_c, 10, 81, 100
11, 75870, Note_on_c, 10, 81, 0
11, 75870, Note_on_c, 10, 84, 100
11, 75900, Note_on_c, 10, 84, 0
11, 75900, Note_on_c, 10, 86, 100
11, 75930, Note_on_c, 10, 86, 0
11, 75930, Note_on_c, 10, 84, 100
11, 75960, Note_on_c, 10, 84, 0
11, 75960, Note_on_c, 10, 79, 100
11, 75990, Note_on_c, 10, 79, 0
11, 75990, Note_on_c, 10, 74, 100
11, 76020, Note_on_c, 10, 74, 0
11, 76020, Note_on_c, 10, 67, 100
11, 76050, Note_on_c, 10, 67, 0
11, 76050, Note_on_c, 10, 69, 100
11, 76080, Note_on_c, 10, 69, 0
11, 76080, Note_on_c, 10, 74, 100
11, 76110, Note_on_c, 10, 74, 0
11, 76110, Note_on_c, 10, 79, 100
11, 76140, Note_on_c, 10, 79, 0
11, 76140, Note_on_c, 10, 81, 100
11, 76170, Note_on_c, 10, 81, 0
11, 76170, Note_on_c, 10, 86, 100
11, 76200, Note_on_c, 10, 86, 0
11, 76200, Note_on_c, 10, 91, 100
11, 76230, Note_on_c, 10, 91, 0
11, 76230, Note_on_c, 10, 93, 100
11, 76260, Note_on_c, 10, 93, 0
11, 76260, Note_on_c, 10, 91, 100
11, 76380, Note_on_c, 10, 91, 0
11, 76440, Note_on_c, 10, 91, 100
11, 76500, Note_on_c, 10, 91, 0
11, 76500, Note_on_c, 10, 88, 100
11, 76560, Note_on_c, 10, 88, 0
11, 76560, Note_on_c, 10, 90, 100
11, 76620, Note_on_c, 10, 90, 0
11, 76620, Note_on_c, 10, 89, 100
11, 76680, Note_on_c, 10, 89, 0
11, 76680, Note_on_c, 10, 86, 100
11, 76740, Note_on_c, 10, 86, 0
11, 76740, Note_on_c, 10, 88, 100
11, 76800, Note_on_c, 10, 88, 0
11, 76800, Note_on_c, 10, 87, 100
11, 76830, Note_on_c, 10, 87, 0
11, 76830, Note_on_c, 10, 86, 100
11, 76860, Note_on_c, 10, 86, 0
11, 76860, Note_on_c, 10, 84, 100
11, 76890, Note_on_c, 10, 84, 0
11, 76890, Note_on_c, 10, 81, 100
11, 76920, Note_on_c, 10, 81, 0
11, 76920, Note_on_c, 10, 86, 100
11, 76950, Note_on_c, 10, 86, 0
11, 76950, Note_on_c, 10, 84, 100
11, 76980, Note_on_c, 10, 84, 0
11, 76980, Note_on_c, 10, 81, 100
11, 77010, Note_on_c, 10, 81, 0
11, 77010, Note_on_c, 10, 80, 100
11, 77040, Note_on_c, 10, 80, 0
11, 77040, Note_on_c, 10, 79, 100
11, 77070, Note_on_c, 10, 79, 0
11, 77070, Note_on_c, 10, 77, 100
11, 77100, Note_on_c, 10, 77, 0
11, 77100, Note_on_c, 10, 79, 100
11, 77220, Note_on_c, 10, 79, 0
11, 77220, Note_on_c, 10, 84, 100
11, 77340, Note_on_c, 10, 84, 0
11, 77340, Note_on_c, 10, 77, 100
11, 77400, Note_on_c, 10, 77, 0
11, 77400, Note_on_c, 10, 79, 100
11, 77460, Note_on_c, 10, 79, 0
11, 77460, Note_on_c, 10, 74, 100
11, 77520, Note_on_c, 10, 74, 0
11, 77520, Note_on_c, 10, 77, 100
11, 77580, Note_on_c, 10, 77, 0
11, 77580, Note_on_c, 10, 74, 100
11, 77700, Note_on_c, 10, 74, 0
11, 77700, Note_on_c, 10, 72, 100
11, 77760, Note_on_c, 10, 72, 0
11, 77760, Note_on_c, 10, 74, 100
11, 77820, Note_on_c, 10, 74, 0
11, 77880, Note_on_c, 10, 74, 100
11, 77880, Note_on_c, 10, 62, 100
11, 77940, Note_on_c, 10, 62, 0
11, 77940, Note_on_c, 10, 74, 0
11, 77940, Note_on_c, 10, 77, 100
11, 77940, Note_on_c, 10, 65, 100
11, 78000, Note_on_c, 10, 65, 0
11, 78000, Note_on_c, 10, 77, 0
11, 78000, Note_on_c, 10, 79, 100
11, 78000, Note_on_c, 10, 67, 100
11, 78060, Note_on_c, 10, 67, 0
11, 78060, Note_on_c, 10, 79, 0
11, 78060, Note_on_c, 10, 80, 100
11, 78060, Note_on_c, 10, 68, 100
11, 78120, Note_on_c, 10, 68, 0
11, 78120, Note_on_c, 10, 80, 0
11, 78120, Note_on_c, 10, 81, 100
11, 78120, Note_on_c, 10, 69, 100
11, 78180, Note_on_c, 10, 69, 0
11, 78180, Note_on_c, 10, 81, 0
11, 78180, Control_c, 10, 64, 127
11, 78180, Note_on_c, 10, 84, 100
11, 78180, Note_on_c, 10, 72, 100
11, 78240, Note_on_c, 10, 72, 0
11, 78240, Note_on_c, 10, 84, 0
11, 78240, Note_on_c, 10, 88, 100
11, 78240, Note_on_c, 10, 76, 100
11, 78300, Note_on_c, 10, 76, 0
11, 78300, Note_on_c, 10, 88, 0
11, 78300, Note_on_c, 10, 91, 100
11, 78300, Note_on_c, 10, 79, 100
11, 78360, Note_on_c, 10, 79, 0
11, 78360, Note_on_c, 10, 91, 0
11, 78360, Note_on_c, 10, 89, 100
11, 78360, Note_on_c, 10, 77, 100
11, 78420, Note_on_c, 10, 77, 0
11, 78420, Note_on_c, 10, 89, 0
11, 78480, Note_on_c, 10, 74, 100
11, 78480, Note_on_c, 10, 86, 100
11, 78510, Control_c, 10, 64, 0
11, 78540, Note_on_c, 10, 86, 0
11, 78540, Note_on_c, 10, 74, 0
11, 78600, Note_on_c, 10, 74, 110
11, 78630, Note_on_c, 10, 74, 0
11, 78630, Note_on_c, 10, 74, 110
11, 78660, Note_on_c, 10, 74, 0
11, 78660, Note_on_c, 10, 74, 110
11, 78690, Note_on_c, 10, 74, 0
11, 78690, Note_on_c, 10, 77, 110
11, 78720, Note_on_c, 10, 77, 0
11, 78720, Note_on_c, 10, 77, 110
11, 78750, Note_on_c, 10, 77, 0
11, 78750, Note_on_c, 10, 77, 110
11, 78780, Note_on_c, 10, 77, 0
11, 78780, Note_on_c, 10, 81, 110
11, 78810, Note_on_c, 10, 81, 0
11, 78810, Note_on_c, 10, 81, 110
11, 78840, Note_on_c, 10, 81, 0
11, 78840, Note_on_c, 10, 81, 110
11, 78870, Note_on_c, 10, 81, 0
11, 78870, Note_on_c, 10, 84, 110
11, 78900, Note_on_c, 10, 84, 0
11, 78900, Note_on_c, 10, 86, 110
11, 79020, Note_on_c, 10, 86, 0
11, 81120, Note_on_c, 10, 69, 100
11, 81180, Note_on_c, 10, 69, 0
11, 81180, Note_on_c, 10, 74, 100
11, 81240, Note_on_c, 10, 74, 0
11, 81240, Note_on_c, 10, 77, 100
11, 81300, Note_on_c, 10, 77, 0
11, 81300, Note_on_c, 10, 81, 100
11, 81360, Note_on_c, 10, 81, 0
11, 81360, Note_on_c, 10, 77, 100
11, 81420, Note_on_c, 10, 77, 0
11, 81420, Note_on_c, 10, 80, 100
11, 81480, Note_on_c, 10, 80, 0
11, 81480, Note_on_c, 10, 76, 100
11, 81540, Note_on_c, 10, 76, 0
11, 81540, Note_on_c, 10, 79, 100
11, 81660, Note_on_c, 10, 79, 0
11, 81660, Note_on_c, 10, 77, 100
11, 81720, Note_on_c, 10, 77, 0
11, 81720, Note_on_c, 10, 86, 100
11, 81720, Note_on_c, 10, 74, 100
11, 81780, Note_on_c, 10, 74, 0
11, 81780, Note_on_c, 10, 86, 0
11, 81780, Note_on_c, 10, 88, 100
11, 81780, Note_on_c, 10, 76, 100
11, 81840, Note_on_c, 10, 76, 0
11, 81840, Note_on_c, 10, 88, 0
11, 81840, Note_on_c, 10, 89, 100
11, 81840, Note_on_c, 10, 77, 100
11, 81900, Note_on_c, 10, 77, 0
11, 81900, Note_on_c, 10, 89, 0
11, 81900, Note_on_c, 10, 79, 100
11, 81900, Note_on_c, 10, 91, 100
11, 81960, Note_on_c, 10, 91, 0
11, 81960, Note_on_c, 10, 79, 0
11, 81960, Note_on_c, 10, 92, 100
11, 81990, Note_on_c, 10, 92, 0
11, 81990, Note_on_c, 10, 80, 100
11, 82020, Note_on_c, 10, 80, 0
11, 82020, Note_on_c, 10, 92, 100
11, 82040, Note_on_c, 10, 92, 0
11, 82040, Note_on_c, 10, 80, 100
11, 82060, Note_on_c, 10, 80, 0
11, 82060, Note_on_c, 10, 92, 100
11, 82080, Note_on_c, 10, 92, 0
11, 82080, Note_on_c, 10, 80, 100
11, 82100, Note_on_c, 10, 80, 0
11, 82100, Note_on_c, 10, 92, 100
11, 82120, Note_on_c, 10, 92, 0
11, 82120, Note_on_c, 10, 80, 100
11, 82140, Note_on_c, 10, 80, 0
11, 82140, Note_on_c, 10, 92, 100
11, 82160, Note_on_c, 10, 92, 0
11, 82160, Note_on_c, 10, 80, 100
11, 82180, Note_on_c, 10, 80, 0
11, 82180, Note_on_c, 10, 92, 100
11, 82200, Note_on_c, 10, 92, 0
11, 82200, Note_on_c, 10, 88, 100
11, 82200, Note_on_c, 10, 80, 100
11, 82220, Note_on_c, 10, 80, 0
11, 82220, Note_on_c, 10, 92, 100
11, 82240, Note_on_c, 10, 92, 0
11, 82260, Note_on_c, 10, 88, 0
11, 82260, Note_on_c, 10, 81, 100
11, 82260, Note_on_c, 10, 93, 100
11, 82380, Note_on_c, 10, 93, 0
11, 82380, Note_on_c, 10, 81, 0
11, 82380, Note_on_c, 10, 93, 100
11, 82380, Note_on_c, 10, 86, 100
11, 82440, Note_on_c, 10, 86, 0
11, 82440, Note_on_c, 10, 93, 0
11, 82440, Note_on_c, 10, 93, 100
11, 82440, Note_on_c, 10, 89, 100
11, 82560, Note_on_c, 10, 89, 0
11, 82560, Note_on_c, 10, 93, 0
11, 82560, Note_on_c, 10, 93, 100
11, 82560, Note_on_c, 10, 86, 100
11, 82620, Note_on_c, 10, 86, 0
11, 82620, Note_on_c, 10, 93, 0
11, 82680, Note_on_c, 10, 86, 100
11, 82680, Note_on_c, 10, 91, 100
11, 82710, Note_on_c, 10, 91, 0
11, 82710, Note_on_c, 10, 89, 100
11, 82740, Note_on_c, 10, 89, 0
11, 82740, Note_on_c, 10, 86, 0
11, 82740, Note_on_c, 10, 81, 100
11, 82770, Note_on_c, 10, 81, 0
11, 82770, Note_on_c, 10, 86, 100
11, 82770, Note_on_c, 10, 91, 100
11, 82800, Note_on_c, 10, 91, 0
11, 82800, Note_on_c, 10, 86, 0
11, 82800, Note_on_c, 10, 84, 100
11, 82800, Note_on_c, 10, 89, 100
11, 82830, Note_on_c, 10, 89, 0
11, 82830, Note_on_c, 10, 84, 0
11, 82830, Note_on_c, 10, 81, 100
11, 82860, Note_on_c, 10, 81, 0
11, 82860, Note_on_c, 10, 84, 100
11, 82860, Note_on_c, 10, 80, 100
11, 82890, Note_on_c, 10, 80, 0
11, 82890, Note_on_c, 10, 84, 0
11, 82890, Note_on_c, 10, 84, 100
11, 82890, Note_on_c, 10, 79, 100
11, 82920, Note_on_c, 10, 79, 0
11, 82920, Note_on_c, 10, 84, 0
11, 82920, Note_on_c, 10, 77, 100
11, 82950, Note_on_c, 10, 77, 0
11, 82950, Note_on_c, 10, 84, 100
11, 82950, Note_on_c, 10, 80, 100
11, 82980, Note_on_c, 10, 80, 0
11, 82980, Note_on_c, 10, 84, 0
11, 82980, Note_on_c, 10, 84, 100
11, 82980, Note_on_c, 10, 79, 100
11, 83010, Note_on_c, 10, 79, 0
11, 83010, Note_on_c, 10, 77, 100
11, 83040, Note_on_c, 10, 77, 0
11, 83040, Note_on_c, 10, 84, 0
11, 83040, Note_on_c, 10, 84, 100
11, 83040, Note_on_c, 10, 79, 100
11, 83070, Note_on_c, 10, 79, 0
11, 83070, Note_on_c, 10, 77, 100
11, 83100, Note_on_c, 10, 77, 0
11, 83100, Note_on_c, 10, 84, 0
11, 83100, Note_on_c, 10, 74, 100
11, 83130, Note_on_c, 10, 74, 0
11, 83130, Note_on_c, 10, 84, 100
11, 83130, Note_on_c, 10, 79, 100
11, 83160, Note_on_c, 10, 79, 0
11, 83160, Note_on_c, 10, 77, 100
11, 83190, Note_on_c, 10, 77, 0
11, 83190, Note_on_c, 10, 84, 0
11, 83190, Note_on_c, 10, 74, 100
11, 83220, Note_on_c, 10, 74, 0
11, 83220, Note_on_c, 10, 72, 100
11, 83250, Note_on_c, 10, 72, 0
11, 83250, Note_on_c, 10, 69, 100
11, 83280, Note_on_c, 10, 69, 0
11, 83280, Note_on_c, 10, 74, 100
11, 83310, Note_on_c, 10, 74, 0
11, 83310, Note_on_c, 10, 72, 100
11, 83340, Note_on_c, 10, 72, 0
11, 83340, Note_on_c, 10, 74, 100
11, 83370, Note_on_c, 10, 74, 0
11, 83370, Note_on_c, 10, 72, 100
11, 83400, Note_on_c, 10, 72, 0
11, 83400, Note_on_c, 10, 69, 100
11, 83430, Note_on_c, 10, 69, 0
11, 83430, Note_on_c, 10, 68, 100
11, 83460, Note_on_c, 10, 68, 0
11, 83460, Note_on_c, 10, 67, 100
11, 83490, Note_on_c, 10, 67, 0
11, 83490, Note_on_c, 10, 65, 100
11, 83520, Note_on_c, 10, 65, 0
11, 83520, Note_on_c, 10, 67, 100
11, 83520, Note_on_c, 10, 72, 100
11, 83550, Note_on_c, 10, 67, 0
11, 83550, Note_on_c, 10, 65, 100
11, 83580, Note_on_c, 10, 65, 0
11, 83580, Note_on_c, 10, 72, 0
11, 83580, Note_on_c, 10, 62, 100
11, 83610, Note_on_c, 10, 62, 0
11, 83610, Note_on_c, 10, 72, 83
11, 83610, Note_on_c, 10, 67, 83
11, 83640, Note_on_c, 10, 67, 0
11, 83640, Note_on_c, 10, 72, 0
11, 83640, Note_on_c, 10, 72, 83
11, 83640, Note_on_c, 10, 65, 83
11, 83670, Note_on_c, 10, 62, 83
11, 83700, Note_on_c, 10, 62, 0
11, 83700, Note_on_c, 10, 65, 0
11, 83700, Note_on_c, 10, 72, 0
11, 83700, Note_on_c, 10, 72, 100
11, 83700, Note_on_c, 10, 65, 100
11, 83820, Note_on_c, 10, 65, 0
11, 83820, Note_on_c, 10, 72, 0
11, 83820, Note_on_c, 10, 72, 100
11, 83820, Note_on_c, 10, 67, 100
11, 83880, Note_on_c, 10, 67, 0
11, 83880, Note_on_c, 10, 62, 100
11, 83940, Note_on_c, 10, 62, 0
11, 83940, Note_on_c, 10, 72, 0
11, 83940, Note_on_c, 10, 72, 100
11, 83940, Note_on_c, 10, 67, 100
11, 84000, Note_on_c, 10, 67, 0
11, 84000, Note_on_c, 10, 72, 0
11, 84060, Note_on_c, 10, 67, 100
11, 84060, Note_on_c, 10, 72, 100
11, 84180, Note_on_c, 10, 72, 0
11, 84180, Note_on_c, 10, 67, 0
11, 84180, Note_on_c, 10, 65, 100
11, 84180, Note_on_c, 10, 72, 100
11, 84240, Note_on_c, 10, 72, 0
11, 84240, Note_on_c, 10, 65, 0
11, 84240, Note_on_c, 10, 67, 100
11, 84240, Note_on_c, 10, 72, 100
11, 84300, Note_on_c, 10, 72, 0
11, 84300, Note_on_c, 10, 67, 0
11, 84360, Note_on_c, 10, 62, 100
11, 84390, Note_on_c, 10, 62, 0
11, 84390, Note_on_c, 10, 67, 100
11, 84420, Note_on_c, 10, 67, 0
11, 84420, Control_c, 10, 101, 0
11, 84420, Control_c, 10, 100, 0
11, 84420, Control_c, 10, 6, 10
11, 84420, Control_c, 10, 38, 127
11, 84420, Note_on_c, 10, 72, 100
11, 84421, Control_c, 10, 101, 0
11, 84421, Control_c, 10, 100, 0
11, 84421, Control_c, 10, 6, 11
11, 84421, Control_c, 10, 38, 127
11, 84421, Pitch_bend_c, 10, 8192
11, 84450, Note_on_c, 10, 72, 0
11, 84450, Note_on_c, 10, 74, 100
11, 84478, Pitch_bend_c, 10, 8320
11, 84480, Note_on_c, 10, 74, 0
11, 84480, Note_on_c, 10, 81, 100
11, 84510, Note_on_c, 10, 81, 0
11, 84510, Note_on_c, 10, 84, 100
11, 84535, Pitch_bend_c, 10, 8448
11, 84540, Note_on_c, 10, 84, 0
11, 84540, Note_on_c, 10, 86, 100
11, 84570, Note_on_c, 10, 86, 0
11, 84570, Note_on_c, 10, 84, 100
11, 84591, Pitch_bend_c, 10, 8576
11, 84600, Note_on_c, 10, 84, 0
11, 84600, Note_on_c, 10, 81, 100
11, 84630, Note_on_c, 10, 81, 0
11, 84630, Note_on_c, 10, 74, 100
11, 84649, Pitch_bend_c, 10, 8704
11, 84660, Note_on_c, 10, 74, 0
11, 84660, Note_on_c, 10, 86, 100
11, 84690, Note_on_c, 10, 86, 0
11, 84690, Note_on_c, 10, 84, 100
11, 84705, Pitch_bend_c, 10, 8832
11, 84720, Note_on_c, 10, 84, 0
11, 84720, Note_on_c, 10, 81, 100
11, 84750, Note_on_c, 10, 81, 0
11, 84750, Note_on_c, 10, 74, 100
11, 84762, Pitch_bend_c, 10, 8960
11, 84780, Note_on_c, 10, 74, 0
11, 84780, Note_on_c, 10, 86, 100
11, 84810, Note_on_c, 10, 86, 0
11, 84810, Note_on_c, 10, 84, 100
11, 84819, Pitch_bend_c, 10, 9088
11, 84840, Note_on_c, 10, 84, 0
11, 84840, Note_on_c, 10, 81, 100
11, 84870, Note_on_c, 10, 81, 0
11, 84870, Note_on_c, 10, 74, 100
11, 84876, Pitch_bend_c, 10, 9216
11, 84900, Note_on_c, 10, 74, 0
11, 84900, Note_on_c, 10, 86, 100
11, 84920, Note_on_c, 10, 86, 0
11, 84920, Note_on_c, 10, 84, 100
11, 84932, Pitch_bend_c, 10, 9344
11, 84940, Note_on_c, 10, 84, 0
11, 84940, Note_on_c, 10, 81, 100
11, 84944, Pitch_bend_c, 10, 9472
11, 84956, Pitch_bend_c, 10, 9600
11, 84960, Note_on_c, 10, 81, 0
11, 84960, Note_on_c, 10, 74, 100
11, 84967, Pitch_bend_c, 10, 9728
11, 84979, Pitch_bend_c, 10, 9856
11, 84980, Note_on_c, 10, 74, 0
11, 84980, Note_on_c, 10, 86, 100
11, 84991, Pitch_bend_c, 10, 9984
11, 85000, Note_on_c, 10, 86, 0
11, 85000, Note_on_c, 10, 84, 100
11, 85002, Pitch_bend_c, 10, 10112
11, 85014, Pitch_bend_c, 10, 10240
11, 85020, Note_on_c, 10, 84, 0
11, 85020, Note_on_c, 10, 81, 100
11, 85024, Pitch_bend_c, 10, 10368
11, 85036, Pitch_bend_c, 10, 10496
11, 85040, Note_on_c, 10, 81, 0
11, 85040, Note_on_c, 10, 74, 100
11, 85048, Pitch_bend_c, 10, 10624
11, 85059, Pitch_bend_c, 10, 10752
11, 85060, Note_on_c, 10, 74, 0
11, 85060, Note_on_c, 10, 86, 100
11, 85071, Pitch_bend_c, 10, 10880
11, 85080, Note_on_c, 10, 86, 0
11, 85080, Note_on_c, 10, 84, 100
11, 85082, Pitch_bend_c, 10, 11008
11, 85094, Pitch_bend_c, 10, 11136
11, 85100, Note_on_c, 10, 84, 0
11, 85100, Note_on_c, 10, 81, 100
11, 85106, Pitch_bend_c, 10, 11264
11, 85117, Pitch_bend_c, 10, 11392
11, 85120, Note_on_c, 10, 81, 0
11, 85120, Note_on_c, 10, 74, 100
11, 85129, Pitch_bend_c, 10, 11520
11, 85140, Note_on_c, 10, 74, 0
11, 85140, Note_on_c, 10, 86, 100
11, 85140, Pitch_bend_c, 10, 11648
11, 85146, Pitch_bend_c, 10, 11776
11, 85152, Pitch_bend_c, 10, 11904
11, 85155, Pitch_bend_c, 10, 11904
11, 85159, Pitch_bend_c, 10, 12032
11, 85160, Note_on_c, 10, 86, 0
11, 85160, Note_on_c, 10, 84, 100
11, 85162, Pitch_bend_c, 10, 12160
11, 85165, Pitch_bend_c, 10, 12288
11, 85168, Pitch_bend_c, 10, 12416
11, 85171, Pitch_bend_c, 10, 12544
11, 85174, Pitch_bend_c, 10, 12672
11, 85177, Pitch_bend_c, 10, 12800
11, 85180, Note_on_c, 10, 84, 0
11, 85180, Pitch_bend_c, 10, 12928
11, 85180, Note_on_c, 10, 81, 100
11, 85183, Pitch_bend_c, 10, 13056
11, 85186, Pitch_bend_c, 10, 13184
11, 85189, Pitch_bend_c, 10, 13312
11, 85192, Pitch_bend_c, 10, 13440
11, 85195, Pitch_bend_c, 10, 13568
11, 85198, Pitch_bend_c, 10, 13696
11, 85200, Note_on_c, 10, 81, 0
11, 85200, Note_on_c, 10, 74, 100
11, 85201, Pitch_bend_c, 10, 13824
11, 85204, Pitch_bend_c, 10, 13952
11, 85207, Pitch_bend_c, 10, 14080
11, 85210, Pitch_bend_c, 10, 14208
11, 85213, Pitch_bend_c, 10, 14336
11, 85215, Note_on_c, 10, 74, 0
11, 85215, Note_on_c, 10, 86, 100
11, 85216, Pitch_bend_c, 10, 14464
11, 85219, Pitch_bend_c, 10, 14592
11, 85222, Pitch_bend_c, 10, 14720
11, 85225, Pitch_bend_c, 10, 14848
11, 85228, Pitch_bend_c, 10, 14976
11, 85230, Note_on_c, 10, 86, 0
11, 85230, Note_on_c, 10, 84, 100
11, 85231, Pitch_bend_c, 10, 15104
11, 85234, Pitch_bend_c, 10, 15232
11, 85237, Pitch_bend_c, 10, 15360
11, 85240, Pitch_bend_c, 10, 15488
11, 85243, Pitch_bend_c, 10, 15616
11, 85245, Note_on_c, 10, 84, 0
11, 85245, Note_on_c, 10, 77, 100
11, 85246, Pitch_bend_c, 10, 15744
11, 85249, Pitch_bend_c, 10, 15872
11, 85252, Pitch_bend_c, 10, 16000
11, 85255, Pitch_bend_c, 10, 16128
11, 85258, Pitch_bend_c, 10, 16256
11, 85260, Note_on_c, 10, 77, 0
11, 85260, Note_on_c, 10, 86, 100
11, 85261, Pitch_bend_c, 10, 16383
11, 85380, Note_on_c, 10, 86, 0
11, 85380, Pitch_bend_c, 10, 8192
11, 85440, Note_on_c, 10, 86, 100
11, 85470, Note_on_c, 10, 86, 0
11, 85470, Note_on_c, 10, 81, 100
11, 85500, Note_on_c, 10, 81, 0
11, 85500, Note_on_c, 10, 77, 100
11, 85530, Note_on_c, 10, 77, 0
11, 85530, Note_on_c, 10, 76, 100
11, 85560, Note_on_c, 10, 76, 0
11, 85560, Note_on_c, 10, 74, 100
11, 85590, Note_on_c, 10, 74, 0
11, 85590, Note_on_c, 10, 77, 100
11, 85620, Note_on_c, 10, 77, 0
11, 85620, Note_on_c, 10, 76, 100
11, 85650, Note_on_c, 10, 76, 0
11, 85650, Note_on_c, 10, 74, 100
11, 85680, Note_on_c, 10, 74, 0
11, 85680, Note_on_c, 10, 72, 100
11, 85710, Note_on_c, 10, 72, 0
11, 85710, Note_on_c, 10, 76, 100
11, 85740, Note_on_c, 10, 76, 0
11, 85740, Note_on_c, 10, 69, 80
11, 85770, Note_on_c, 10, 69, 0
11, 85770, Note_on_c, 10, 65, 80
11, 85800, Note_on_c, 10, 65, 0
11, 85800, Note_on_c, 10, 69, 80
11, 85820, Note_on_c, 10, 69, 0
11, 85820, Note_on_c, 10, 67, 80
11, 85840, Note_on_c, 10, 67, 0
11, 85840, Note_on_c, 10, 65, 80
11, 85860, Note_on_c, 10, 65, 0
11, 85860, Note_on_c, 10, 67, 100
11, 85860, Note_on_c, 10, 72, 100
11, 85980, Note_on_c, 10, 72, 0
11, 85980, Note_on_c, 10, 67, 0
11, 85980, Note_on_c, 10, 65, 100
11, 86040, Note_on_c, 10, 65, 0
11, 86040, Note_on_c, 10, 62, 100
11, 86100, Note_on_c, 10, 62, 0
11, 86100, Note_on_c, 10, 57, 70
11, 86160, Note_on_c, 10, 57, 0
11, 86160, Note_on_c, 10, 69, 100
11, 86160, Note_on_c, 10, 62, 100
11, 86340, Note_on_c, 10, 62, 0
11, 86340, Note_on_c, 10, 69, 0
11, 88860, Program_c, 10, 3
11, 88920, Note_on_c, 10, 76, 70
11, 88920, Note_on_c, 10, 80, 70
11, 88980, Note_on_c, 10, 80, 0
11, 88980, Note_on_c, 10, 76, 0
11, 89040, Note_on_c, 10, 76, 70
11, 89040, Note_on_c, 10, 80, 70
11, 89160, Note_on_c, 10, 80, 0
11, 89160, Note_on_c, 10, 76, 0
11, 89160, Note_on_c, 10, 81, 70
11, 89220, Note_on_c, 10, 81, 0
11, 89220, Note_on_c, 10, 80, 70
11, 89220, Note_on_c, 10, 83, 70
11, 89580, Note_on_c, 10, 83, 0
11, 89580, Note_on_c, 10, 80, 0
11, 89580, Note_on_c, 10, 79, 70
11, 89580, Note_on_c, 10, 86, 70
11, 89700, Note_on_c, 10, 86, 0
11, 89700, Note_on_c, 10, 79, 0
11, 89700, Note_on_c, 10, 79, 70
11, 89700, Note_on_c, 10, 83, 70
11, 89760, Note_on_c, 10, 83, 0
11, 89760, Note_on_c, 10, 79, 0
11, 89760, Note_on_c, 10, 74, 70
11, 89760, Note_on_c, 10, 79, 70
11, 89880, Note_on_c, 10, 79, 0
11, 89880, Note_on_c, 10, 74, 0
11, 89880, Note_on_c, 10, 79, 70
11, 89880, Note_on_c, 10, 83, 70
11, 89940, Note_on_c, 10, 83, 0
11, 89940, Note_on_c, 10, 79, 0
11, 89940, Note_on_c, 10, 78, 70
11, 89940, Note_on_c, 10, 81, 70
11, 90060, Note_on_c, 10, 81, 0
11, 90060, Note_on_c, 10, 78, 0
11, 90060, Note_on_c, 10, 74, 70
11, 90060, Note_on_c, 10, 78, 70
11, 90120, Note_on_c, 10, 78, 0
11, 90120, Note_on_c, 10, 74, 0
11, 90120, Note_on_c, 10, 69, 70
11, 90120, Note_on_c, 10, 74, 70
11, 90300, Note_on_c, 10, 74, 0
11, 90300, Note_on_c, 10, 69, 0
11, 90360, Note_on_c, 10, 76, 70
11, 90360, Note_on_c, 10, 80, 70
11, 90420, Note_on_c, 10, 80, 0
11, 90420, Note_on_c, 10, 76, 0
11, 90480, Note_on_c, 10, 76, 70
11, 90480, Note_on_c, 10, 80, 70
11, 90600, Note_on_c, 10, 80, 0
11, 90600, Note_on_c, 10, 76, 0
11, 90600, Note_on_c, 10, 81, 70
11, 90660, Note_on_c, 10, 81, 0
11, 90660, Note_on_c, 10, 80, 70
11, 90660, Note_on_c, 10, 83, 70
11, 91020, Note_on_c, 10, 83, 0
11, 91020, Note_on_c, 10, 80, 0
11, 91020, Note_on_c, 10, 79, 70
11, 91020, Note_on_c, 10, 86, 70
11, 91140, Note_on_c, 10, 86, 0
11, 91140, Note_on_c, 10, 79, 0
11, 91140, Note_on_c, 10, 79, 70
11, 91140, Note_on_c, 10, 83, 70
11, 91200, Note_on_c, 10, 83, 0
11, 91200, Note_on_c, 10, 79, 0
11, 91200, Note_on_c, 10, 74, 70
11, 91200, Note_on_c, 10, 79, 70
11, 91260, Note_on_c, 10, 79, 0
11, 91260, Note_on_c, 10, 74, 0
11, 91260, Note_on_c, 10, 79, 70
11, 91260, Note_on_c, 10, 83, 70
11, 91320, Note_on_c, 10, 83, 0
11, 91320, Note_on_c, 10, 79, 0
11, 91320, Note_on_c, 10, 78, 70
11, 91320, Note_on_c, 10, 81, 70
11, 91500, Note_on_c, 10, 81, 0
11, 91500, Note_on_c, 10, 78, 0
11, 91680, Note_on_c, 10, 76, 70
11, 91680, Note_on_c, 10, 80, 70
11, 91740, Note_on_c, 10, 80, 0
11, 91740, Note_on_c, 10, 76, 0
11, 91800, Note_on_c, 10, 76, 70
11, 91800, Note_on_c, 10, 80, 70
11, 91920, Note_on_c, 10, 80, 0
11, 91920, Note_on_c, 10, 76, 0
11, 91920, Note_on_c, 10, 81, 70
11, 91980, Note_on_c, 10, 81, 0
11, 91980, Note_on_c, 10, 80, 70
11, 91980, Note_on_c, 10, 83, 70
11, 92280, Note_on_c, 10, 83, 0
11, 92280, Note_on_c, 10, 80, 0
11, 92280, Note_on_c, 10, 84, 70
11, 92280, Note_on_c, 10, 88, 70
11, 92340, Note_on_c, 10, 88, 0
11, 92340, Note_on_c, 10, 84, 0
11, 92340, Note_on_c, 10, 91, 70
11, 92340, Note_on_c, 10, 84, 70
11, 92340, Note_on_c, 10, 79, 70
11, 92460, Note_on_c, 10, 79, 0
11, 92460, Note_on_c, 10, 84, 0
11, 92460, Note_on_c, 10, 91, 0
11, 92460, Note_on_c, 10, 90, 70
11, 92460, Note_on_c, 10, 79, 70
11, 92460, Note_on_c, 10, 78, 70
11, 92520, Note_on_c, 10, 78, 0
11, 92520, Note_on_c, 10, 79, 0
11, 92520, Note_on_c, 10, 90, 0
11, 92520, Note_on_c, 10, 88, 70
11, 92520, Note_on_c, 10, 84, 70
11, 92520, Note_on_c, 10, 76, 70
11, 92640, Note_on_c, 10, 76, 0
11, 92640, Note_on_c, 10, 84, 0
11, 92640, Note_on_c, 10, 88, 0
11, 92640, Note_on_c, 10, 90, 70
11, 92640, Note_on_c, 10, 86, 70
11, 92640, Note_on_c, 10, 78, 70
11, 92700, Note_on_c, 10, 78, 0
11, 92700, Note_on_c, 10, 86, 0
11, 92700, Note_on_c, 10, 90, 0
11, 92700, Note_on_c, 10, 86, 70
11, 92700, Note_on_c, 10, 81, 70
11, 92700, Note_on_c, 10, 74, 70
11, 93060, Note_on_c, 10, 74, 0
11, 93060, Note_on_c, 10, 81, 0
11, 93060, Note_on_c, 10, 86, 0
11, 93060, Note_on_c, 10, 77, 70
11, 93060, Note_on_c, 10, 84, 70
11, 93180, Note_on_c, 10, 84, 0
11, 93180, Note_on_c, 10, 83, 70
11, 93240, Note_on_c, 10, 83, 0
11, 93240, Note_on_c, 10, 77, 0
11, 93240, Note_on_c, 10, 81, 70
11, 93300, Note_on_c, 10, 81, 0
11, 93300, Note_on_c, 10, 83, 70
11, 93360, Note_on_c, 10, 83, 0
11, 93360, Note_on_c, 10, 76, 70
11, 93360, Note_on_c, 10, 79, 70
11, 93540, Note_on_c, 10, 76, 0
11, 93780, Note_on_c, 10, 79, 0
11, 106920, Note_on_c, 10, 79, 70
11, 106980, Note_on_c, 10, 79, 0
11, 106980, Note_on_c, 10, 78, 70
11, 107040, Note_on_c, 10, 78, 0
11, 107040, Note_on_c, 10, 81, 70
11, 107100, Note_on_c, 10, 81, 0
11, 107100, Note_on_c, 10, 79, 70
11, 107160, Note_on_c, 10, 79, 0
11, 107160, Note_on_c, 10, 74, 70
11, 107220, Note_on_c, 10, 74, 0
11, 107220, Note_on_c, 10, 72, 70
11, 107250, Note_on_c, 10, 72, 0
11, 107250, Note_on_c, 10, 74, 70
11, 107280, Note_on_c, 10, 74, 0
11, 107280, Note_on_c, 10, 76, 70
11, 107340, Note_on_c, 10, 76, 0
11, 107340, Note_on_c, 10, 74, 70
11, 107400, Note_on_c, 10, 74, 0
11, 107400, Note_on_c, 10, 69, 70
11, 107460, Note_on_c, 10, 69, 0
11, 107460, Note_on_c, 10, 67, 70
11, 107520, Note_on_c, 10, 74, 70
11, 107580, Note_on_c, 10, 74, 0
11, 107580, Note_on_c, 10, 67, 0
11, 107640, Note_on_c, 10, 72, 70
11, 107700, Note_on_c, 10, 72, 0
11, 107700, Note_on_c, 10, 71, 70
11, 107760, Note_on_c, 10, 71, 0
11, 107760, Note_on_c, 10, 72, 70
11, 107820, Note_on_c, 10, 72, 0
11, 107820, Note_on_c, 10, 71, 70
11, 107880, Note_on_c, 10, 71, 0
11, 107880, Note_on_c, 10, 67, 70
11, 107940, Note_on_c, 10, 67, 0
11, 107940, Note_on_c, 10, 62, 70
11, 108000, Note_on_c, 10, 62, 0
11, 108000, Note_on_c, 10, 67, 70
11, 108060, Note_on_c, 10, 67, 0
11, 108060, Note_on_c, 10, 69, 70
11, 108180, Note_on_c, 10, 69, 0
11, 108180, Note_on_c, 10, 67, 70
11, 108300, Note_on_c, 10, 67, 0
11, 108360, Note_on_c, 10, 69, 70
11, 108390, Note_on_c, 10, 69, 0
11, 108390, Note_on_c, 10, 67, 70
11, 108420, Note_on_c, 10, 67, 0
11, 108420, Note_on_c, 10, 69, 70
11, 108450, Note_on_c, 10, 69, 0
11, 108450, Note_on_c, 10, 67, 70
11, 108480, Note_on_c, 10, 67, 0
11, 108480, Note_on_c, 10, 64, 70
11, 108510, Note_on_c, 10, 64, 0
11, 108510, Note_on_c, 10, 62, 70
11, 108540, Note_on_c, 10, 62, 0
11, 108540, Note_on_c, 10, 67, 70
11, 108570, Note_on_c, 10, 67, 0
11, 108570, Note_on_c, 10, 64, 70
11, 108600, Note_on_c, 10, 64, 0
11, 108600, Note_on_c, 10, 62, 70
11, 108630, Note_on_c, 10, 62, 0
11, 108630, Note_on_c, 10, 59, 70
11, 108660, Note_on_c, 10, 59, 0
11, 108660, Note_on_c, 10, 57, 70
11, 108690, Note_on_c, 10, 57, 0
11, 108720, Note_on_c, 10, 59, 70
11, 108750, Note_on_c, 10, 59, 0
11, 108780, Note_on_c, 10, 55, 70
11, 108900, Note_on_c, 10, 55, 0
11, 109020, Note_on_c, 10, 55, 70
11, 109050, Note_on_c, 10, 55, 0
11, 109050, Note_on_c, 10, 62, 70
11, 109080, Note_on_c, 10, 62, 0
11, 109080, Note_on_c, 10, 67, 70
11, 109110, Note_on_c, 10, 67, 0
11, 109110, Note_on_c, 10, 69, 70
11, 109140, Note_on_c, 10, 69, 0
11, 109140, Note_on_c, 10, 74, 70
11, 109170, Note_on_c, 10, 74, 0
11, 109170, Note_on_c, 10, 69, 70
11, 109200, Note_on_c, 10, 69, 0
11, 109200, Note_on_c, 10, 67, 70
11, 109230, Note_on_c, 10, 67, 0
11, 109230, Note_on_c, 10, 62, 70
11, 109260, Note_on_c, 10, 62, 0
11, 109260, Note_on_c, 10, 57, 70
11, 109290, Note_on_c, 10, 57, 0
11, 109290, Note_on_c, 10, 55, 70
11, 109320, Note_on_c, 10, 55, 0
11, 109320, Note_on_c, 10, 45, 70
11, 109350, Note_on_c, 10, 45, 0
11, 109350, Note_on_c, 10, 43, 70
11, 109380, Note_on_c, 10, 43, 0
11, 109380, Note_on_c, 10, 67, 70
11, 109410, Note_on_c, 10, 67, 0
11, 109410, Note_on_c, 10, 69, 70
11, 109440, Note_on_c, 10, 69, 0
11, 109440, Note_on_c, 10, 74, 70
11, 109470, Note_on_c, 10, 74, 0
11, 109470, Note_on_c, 10, 79, 70
11, 109500, Note_on_c, 10, 79, 0
11, 109500, Note_on_c, 10, 76, 70
11, 109680, Note_on_c, 10, 76, 0
11, 109680, Note_on_c, 10, 74, 70
11, 109800, Note_on_c, 10, 74, 0
11, 109800, Note_on_c, 10, 76, 70
11, 109830, Note_on_c, 10, 76, 0
11, 109830, Note_on_c, 10, 74, 70
11, 109860, Note_on_c, 10, 74, 0
11, 109860, Note_on_c, 10, 76, 70
11, 109890, Note_on_c, 10, 76, 0
11, 109890, Note_on_c, 10, 74, 70
11, 109920, Note_on_c, 10, 74, 0
11, 109920, Note_on_c, 10, 72, 70
11, 109950, Note_on_c, 10, 72, 0
11, 109950, Note_on_c, 10, 71, 70
11, 109980, Note_on_c, 10, 71, 0
11, 109980, Note_on_c, 10, 74, 70
11, 110010, Note_on_c, 10, 74, 0
11, 110010, Note_on_c, 10, 72, 70
11, 110040, Note_on_c, 10, 72, 0
11, 110040, Note_on_c, 10, 71, 70
11, 110070, Note_on_c, 10, 71, 0
11, 110070, Note_on_c, 10, 69, 70
11, 110100, Note_on_c, 10, 69, 0
11, 110100, Note_on_c, 10, 72, 70
11, 110130, Note_on_c, 10, 72, 0
11, 110130, Note_on_c, 10, 71, 70
11, 110160, Note_on_c, 10, 71, 0
11, 110160, Note_on_c, 10, 69, 70
11, 110190, Note_on_c, 10, 69, 0
11, 110190, Note_on_c, 10, 67, 70
11, 110220, Note_on_c, 10, 67, 0
11, 110220, Note_on_c, 10, 71, 70
11, 110250, Note_on_c, 10, 71, 0
11, 110250, Note_on_c, 10, 69, 70
11, 110280, Note_on_c, 10, 69, 0
11, 110280, Note_on_c, 10, 67, 70
11, 110310, Note_on_c, 10, 67, 0
11, 110310, Note_on_c, 10, 64, 70
11, 110340, Note_on_c, 10, 64, 0
11, 110460, Note_on_c, 10, 74, 70
11, 110460, Note_on_c, 10, 79, 70
11, 110520, Note_on_c, 10, 79, 0
11, 110520, Note_on_c, 10, 74, 0
11, 110580, Note_on_c, 10, 74, 70
11, 110580, Note_on_c, 10, 79, 70
11, 110700, Note_on_c, 10, 79, 0
11, 110700, Note_on_c, 10, 74, 0
11, 110700, Note_on_c, 10, 74, 70
11, 110700, Note_on_c, 10, 69, 70
11, 110760, Note_on_c, 10, 69, 0
11, 110760, Note_on_c, 10, 74, 0
11, 110820, Note_on_c, 10, 74, 70
11, 110820, Note_on_c, 10, 69, 70
11, 110940, Note_on_c, 10, 69, 0
11, 110940, Note_on_c, 10, 74, 0
11, 110940, Note_on_c, 10, 71, 70
11, 111000, Note_on_c, 10, 71, 0
11, 111060, Note_on_c, 10, 71, 70
11, 111180, Note_on_c, 10, 71, 0
11, 111240, Note_on_c, 10, 79, 70
11, 111300, Note_on_c, 10, 79, 0
11, 111300, Note_on_c, 10, 78, 70
11, 111360, Note_on_c, 10, 78, 0
11, 111360, Note_on_c, 10, 81, 70
11, 111420, Note_on_c, 10, 81, 0
11, 111420, Note_on_c, 10, 79, 70
11, 111480, Note_on_c, 10, 79, 0
11, 111480, Note_on_c, 10, 74, 70
11, 111540, Note_on_c, 10, 74, 0
11, 111540, Note_on_c, 10, 74, 70
11, 111600, Note_on_c, 10, 74, 0
11, 111600, Note_on_c, 10, 72, 70
11, 111630, Note_on_c, 10, 72, 0
11, 111630, Note_on_c, 10, 74, 70
11, 111660, Note_on_c, 10, 74, 0
11, 111660, Note_on_c, 10, 76, 70
11, 111720, Note_on_c, 10, 76, 0
11, 111720, Note_on_c, 10, 74, 70
11, 111780, Note_on_c, 10, 74, 0
11, 111840, Note_on_c, 10, 67, 70
11, 111870, Note_on_c, 10, 67, 0
11, 111870, Note_on_c, 10, 69, 70
11, 111900, Note_on_c, 10, 69, 0
11, 111900, Note_on_c, 10, 71, 70
11, 111930, Note_on_c, 10, 71, 0
11, 111930, Note_on_c, 10, 74, 70
11, 111960, Note_on_c, 10, 74, 0
11, 111960, Note_on_c, 10, 79, 70
11, 111990, Note_on_c, 10, 79, 0
11, 111990, Note_on_c, 10, 83, 70
11, 112020, Note_on_c, 10, 83, 0
11, 112020, Note_on_c, 10, 79, 70
11, 112020, Note_on_c, 10, 84, 70
11, 112260, Note_on_c, 10, 84, 0
11, 112260, Note_on_c, 10, 79, 0
11, 112260, Note_on_c, 10, 79, 70
11, 112260, Note_on_c, 10, 84, 70
11, 112380, Note_on_c, 10, 84, 0
11, 112380, Note_on_c, 10, 79, 0
11, 112440, Note_on_c, 10, 65, 70
11, 112470, Note_on_c, 10, 65, 0
11, 112470, Note_on_c, 10, 60, 70
11, 112500, Note_on_c, 10, 60, 0
11, 112500, Note_on_c, 10, 72, 70
11, 112530, Note_on_c, 10, 72, 0
11, 112530, Note_on_c, 10, 67, 70
11, 112560, Note_on_c, 10, 67, 0
11, 112560, Note_on_c, 10, 74, 70
11, 112590, Note_on_c, 10, 74, 0
11, 112590, Note_on_c, 10, 62, 70
11, 112620, Note_on_c, 10, 62, 0
11, 112620, Control_c, 10, 64, 127
11, 112620, Note_on_c, 10, 64, 70
11, 112680, Note_on_c, 10, 64, 0
11, 112680, Note_on_c, 10, 72, 70
11, 112740, Note_on_c, 10, 72, 0
11, 112740, Note_on_c, 10, 74, 70
11, 112800, Note_on_c, 10, 74, 0
11, 112800, Note_on_c, 10, 64, 70
11, 112830, Control_c, 10, 64, 0
11, 112860, Note_on_c, 10, 64, 0
11, 113820, Program_c, 10, 1
11, 113820, Note_on_c, 10, 52, 90
11, 113820, Control_c, 10, 64, 127
11, 113820, Note_on_c, 10, 56, 90
11, 113820, Note_on_c, 10, 64, 90
11, 113820, Note_on_c, 10, 68, 90
11, 114000, Note_on_c, 10, 68, 0
11, 114000, Note_on_c, 10, 52, 0
11, 114000, Note_on_c, 10, 56, 0
11, 114000, Note_on_c, 10, 64, 0
11, 114000, Note_on_c, 10, 56, 90
11, 114000, Note_on_c, 10, 59, 90
11, 114000, Note_on_c, 10, 68, 90
11, 114000, Note_on_c, 10, 71, 90
11, 114180, Note_on_c, 10, 71, 0
11, 114180, Note_on_c, 10, 56, 0
11, 114180, Note_on_c, 10, 59, 0
11, 114180, Note_on_c, 10, 68, 0
11, 114180, Note_on_c, 10, 59, 90
11, 114180, Note_on_c, 10, 64, 90
11, 114180, Note_on_c, 10, 71, 90
11, 114180, Note_on_c, 10, 76, 90
11, 114720, Control_c, 10, 64, 0
11, 114780, Note_on_c, 10, 76, 0
11, 114780, Note_on_c, 10, 59, 0
11, 114780, Note_on_c, 10, 64, 0
11, 114780, Note_on_c, 10, 71, 0
11, 114780, Note_on_c, 10, 54, 90
11, 114780, Control_c, 10, 64, 127
11, 114780, Note_on_c, 10, 62, 90
11, 114780, Note_on_c, 10, 66, 90
11, 114780, Note_on_c, 10, 59, 90
11, 114960, Note_on_c, 10, 59, 0
11, 114960, Note_on_c, 10, 54, 0
11, 114960, Note_on_c, 10, 62, 0
11, 114960, Note_on_c, 10, 66, 0
11, 114960, Note_on_c, 10, 59, 90
11, 114960, Note_on_c, 10, 66, 90
11, 114960, Note_on_c, 10, 71, 90
11, 114960, Note_on_c, 10, 62, 90
11, 115140, Note_on_c, 10, 62, 0
11, 115140, Note_on_c, 10, 59, 0
11, 115140, Note_on_c, 10, 66, 0
11, 115140, Note_on_c, 10, 71, 0
11, 115140, Note_on_c, 10, 66, 90
11, 115140, Note_on_c, 10, 71, 90
11, 115140, Note_on_c, 10, 74, 90
11, 115140, Note_on_c, 10, 62, 90
11, 115680, Control_c, 10, 64, 0
11, 115740, Note_on_c, 10, 62, 0
11, 115740, Note_on_c, 10, 66, 0
11, 115740, Note_on_c, 10, 71, 0
11, 115740, Note_on_c, 10, 74, 0
11, 115740, Note_on_c, 10, 56, 90
11, 115740, Note_on_c, 10, 80, 90
11, 115740, Control_c, 10, 64, 127
11, 115740, Note_on_c, 10, 64, 90
11, 115740, Note_on_c, 10, 68, 90
11, 115920, Note_on_c, 10, 68, 0
11, 115920, Note_on_c, 10, 56, 0
11, 115920, Note_on_c, 10, 80, 0
11, 115920, Note_on_c, 10, 64, 0
11, 115920, Note_on_c, 10, 57, 90
11, 115920, Note_on_c, 10, 81, 90
11, 115920, Note_on_c, 10, 64, 90
11, 115920, Note_on_c, 10, 69, 90
11, 116100, Note_on_c, 10, 69, 0
11, 116100, Note_on_c, 10, 57, 0
11, 116100, Note_on_c, 10, 81, 0
11, 116100, Note_on_c, 10, 64, 0
11, 116100, Note_on_c, 10, 59, 90
11, 116100, Note_on_c, 10, 83, 90
11, 116100, Note_on_c, 10, 64, 90
11, 116100, Note_on_c, 10, 71, 90
11, 116160, Control_c, 10, 64, 0
11, 116220, Note_on_c, 10, 71, 0
11, 116220, Note_on_c, 10, 59, 0
11, 116220, Note_on_c, 10, 83, 0
11, 116220, Note_on_c, 10, 64, 0
11, 116220, Note_on_c, 10, 60, 90
11, 116220, Note_on_c, 10, 84, 90
11, 116220, Control_c, 10, 64, 127
11, 116220, Note_on_c, 10, 69, 90
11, 116220, Note_on_c, 10, 72, 90
11, 116400, Note_on_c, 10, 72, 0
11, 116400, Note_on_c, 10, 60, 0
11, 116400, Note_on_c, 10, 84, 0
11, 116400, Note_on_c, 10, 69, 0
11, 116400, Note_on_c, 10, 62, 90
11, 116400, Note_on_c, 10, 86, 90
11, 116400, Note_on_c, 10, 69, 90
11, 116400, Note_on_c, 10, 74, 90
11, 116580, Note_on_c, 10, 74, 0
11, 116580, Note_on_c, 10, 62, 0
11, 116580, Note_on_c, 10, 86, 0
11, 116580, Note_on_c, 10, 69, 0
11, 116580, Note_on_c, 10, 64, 90
11, 116580, Note_on_c, 10, 88, 90
11, 116580, Note_on_c, 10, 69, 90
11, 116580, Note_on_c, 10, 76, 90
11, 116640, Control_c, 10, 64, 0
11, 116700, Note_on_c, 10, 76, 0
11, 116700, Note_on_c, 10, 64, 0
11, 116700, Note_on_c, 10, 88, 0
11, 116700, Note_on_c, 10, 69, 0
11, 116700, Note_on_c, 10, 57, 90
11, 116700, Control_c, 10, 64, 127
11, 116700, Note_on_c, 10, 81, 90
11, 116700, Note_on_c, 10, 66, 90
11, 116700, Note_on_c, 10, 69, 90
11, 116880, Note_on_c, 10, 69, 0
11, 116880, Note_on_c, 10, 57, 0
11, 116880, Note_on_c, 10, 81, 0
11, 116880, Note_on_c, 10, 66, 0
11, 116880, Note_on_c, 10, 55, 90
11, 116880, Note_on_c, 10, 79, 90
11, 116880, Note_on_c, 10, 62, 90
11, 116880, Note_on_c, 10, 67, 90
11, 117060, Note_on_c, 10, 67, 0
11, 117060, Note_on_c, 10, 55, 0
11, 117060, Note_on_c, 10, 79, 0
11, 117060, Note_on_c, 10, 62, 0
11, 117060, Note_on_c, 10, 54, 90
11, 117060, Note_on_c, 10, 78, 90
11, 117060, Note_on_c, 10, 62, 90
11, 117060, Note_on_c, 10, 66, 90
11, 117180, Note_on_c, 10, 66, 0
11, 117180, Note_on_c, 10, 54, 0
11, 117180, Note_on_c, 10, 78, 0
11, 117180, Note_on_c, 10, 62, 0
11, 117180, Note_on_c, 10, 50, 90
11, 117180, Control_c, 10, 64, 0
11, 117180, Note_on_c, 10, 74, 90
11, 117180, Note_on_c, 10, 57, 90
11, 117180, Note_on_c, 10, 62, 90
11, 117660, Note_on_c, 10, 62, 0
11, 117660, Note_on_c, 10, 50, 0
11, 117660, Note_on_c, 10, 74, 0
11, 117660, Note_on_c, 10, 57, 0
11, 117660, Note_on_c, 10, 52, 90
11, 117660, Control_c, 10, 64, 127
11, 117660, Note_on_c, 10, 56, 90
11, 117660, Note_on_c, 10, 64, 90
11, 117660, Note_on_c, 10, 68, 90
11, 117840, Note_on_c, 10, 68, 0
11, 117840, Note_on_c, 10, 52, 0
11, 117840, Note_on_c, 10, 56, 0
11, 117840, Note_on_c, 10, 64, 0
11, 117840, Note_on_c, 10, 56, 90
11, 117840, Note_on_c, 10, 59, 90
11, 117840, Note_on_c, 10, 68, 90
11, 117840, Note_on_c, 10, 71, 90
11, 118020, Note_on_c, 10, 71, 0
11, 118020, Note_on_c, 10, 56, 0
11, 118020, Note_on_c, 10, 59, 0
11, 118020, Note_on_c, 10, 68, 0
11, 118020, Note_on_c, 10, 59, 90
11, 118020, Note_on_c, 10, 64, 90
11, 118020, Note_on_c, 10, 71, 90
11, 118020, Note_on_c, 10, 76, 90
11, 118560, Control_c, 10, 64, 0
11, 118620, Note_on_c, 10, 76, 0
11, 118620, Note_on_c, 10, 59, 0
11, 118620, Note_on_c, 10, 64, 0
11, 118620, Note_on_c, 10, 71, 0
11, 118620, Note_on_c, 10, 54, 90
11, 118620, Control_c, 10, 64, 127
11, 118620, Note_on_c, 10, 62, 90
11, 118620, Note_on_c, 10, 66, 90
11, 118620, Note_on_c, 10, 59, 90
11, 118800, Note_on_c, 10, 59, 0
11, 118800, Note_on_c, 10, 54, 0
11, 118800, Note_on_c, 10, 62, 0
11, 118800, Note_on_c, 10, 66, 0
11, 118800, Note_on_c, 10, 59, 90
11, 118800, Note_on_c, 10, 66, 90
11, 118800, Note_on_c, 10, 71, 90
11, 118800, Note_on_c, 10, 62, 90
11, 118980, Note_on_c, 10, 62, 0
11, 118980, Note_on_c, 10, 59, 0
11, 118980, Note_on_c, 10, 66, 0
11, 118980, Note_on_c, 10, 71, 0
11, 118980, Note_on_c, 10, 66, 90
11, 118980, Note_on_c, 10, 71, 90
11, 118980, Note_on_c, 10, 74, 90
11, 118980, Note_on_c, 10, 62, 90
11, 119460, Note_on_c, 10, 71, 0
11, 119460, Note_on_c, 10, 66, 0
11, 119520, Control_c, 10, 64, 0
11, 119580, Note_on_c, 10, 74, 0
11, 119580, Note_on_c, 10, 62, 0
11, 119580, Note_on_c, 10, 80, 90
11, 119580, Control_c, 10, 64, 127
11, 119580, Note_on_c, 10, 64, 90
11, 119580, Note_on_c, 10, 68, 90
11, 119760, Note_on_c, 10, 68, 0
11, 119760, Note_on_c, 10, 64, 0
11, 119760, Note_on_c, 10, 80, 0
11, 119760, Note_on_c, 10, 81, 90
11, 119760, Note_on_c, 10, 64, 90
11, 119760, Note_on_c, 10, 69, 90
11, 119940, Note_on_c, 10, 69, 0
11, 119940, Note_on_c, 10, 64, 0
11, 119940, Note_on_c, 10, 81, 0
11, 119940, Note_on_c, 10, 83, 90
11, 119940, Note_on_c, 10, 64, 90
11, 119940, Note_on_c, 10, 71, 90
11, 120060, Note_on_c, 10, 71, 0
11, 120060, Note_on_c, 10, 64, 0
11, 120060, Note_on_c, 10, 83, 0
11, 120060, Note_on_c, 10, 84, 90
11, 120060, Control_c, 10, 64, 127
11, 120060, Note_on_c, 10, 69, 90
11, 120060, Note_on_c, 10, 72, 90
11, 120240, Note_on_c, 10, 72, 0
11, 120240, Note_on_c, 10, 69, 0
11, 120240, Note_on_c, 10, 84, 0
11, 120240, Note_on_c, 10, 86, 90
11, 120240, Note_on_c, 10, 69, 90
11, 120240, Note_on_c, 10, 74, 90
11, 120420, Note_on_c, 10, 74, 0
11, 120420, Note_on_c, 10, 69, 0
11, 120420, Note_on_c, 10, 86, 0
11, 120420, Note_on_c, 10, 88, 90
11, 120420, Note_on_c, 10, 69, 90
11, 120420, Note_on_c, 10, 76, 90
11, 120540, Note_on_c, 10, 76, 0
11, 120540, Note_on_c, 10, 69, 0
11, 120540, Note_on_c, 10, 88, 0
11, 120540, Control_c, 10, 64, 127
11, 120540, Note_on_c, 10, 81, 90
11, 120540, Note_on_c, 10, 66, 90
11, 120540, Note_on_c, 10, 69, 90
11, 120720, Note_on_c, 10, 69, 0
11, 120720, Note_on_c, 10, 66, 0
11, 120720, Note_on_c, 10, 81, 0
11, 120720, Note_on_c, 10, 79, 90
11, 120720, Note_on_c, 10, 62, 90
11, 120720, Note_on_c, 10, 67, 90
11, 120780, Control_c, 10, 64, 0
11, 120900, Note_on_c, 10, 67, 0
11, 120900, Note_on_c, 10, 62, 0
11, 120900, Note_on_c, 10, 79, 0
11, 120900, Note_on_c, 10, 78, 90
11, 120900, Note_on_c, 10, 62, 90
11, 120900, Note_on_c, 10, 66, 90
11, 121020, Note_on_c, 10, 66, 0
11, 121020, Note_on_c, 10, 62, 0
11, 121020, Note_on_c, 10, 78, 0
11, 121020, Control_c, 10, 64, 67
11, 121020, Note_on_c, 10, 74, 90
11, 121020, Note_on_c, 10, 57, 90
11, 121020, Note_on_c, 10, 62, 90
11, 121440, Control_c, 10, 64, 0
11, 121500, Note_on_c, 10, 62, 0
11, 121500, Note_on_c, 10, 57, 0
11, 121500, Note_on_c, 10, 74, 0
11, 121500, End_track
12, 0, Start_track
12, 0, MIDI_port, 0
12, 0, Title_t, "Organ"
12, 0, Program_c, 4, 19
12, 3600, Note_on_c, 4, 78, 55
12, 3600, Note_on_c, 4, 69, 55
12, 3600, Note_on_c, 4, 74, 55
12, 4080, Note_on_c, 4, 74, 0
12, 4080, Note_on_c, 4, 69, 0
12, 4080, Note_on_c, 4, 78, 0
12, 4080, Note_on_c, 4, 76, 55
12, 4080, Note_on_c, 4, 67, 55
12, 4080, Note_on_c, 4, 72, 55
12, 4560, Note_on_c, 4, 72, 0
12, 4560, Note_on_c, 4, 67, 0
12, 4560, Note_on_c, 4, 76, 0
12, 4560, Note_on_c, 4, 69, 55
12, 4560, Note_on_c, 4, 74, 55
12, 4560, Note_on_c, 4, 78, 55
12, 4800, Note_on_c, 4, 78, 0
12, 4800, Note_on_c, 4, 74, 0
12, 4800, Note_on_c, 4, 69, 0
12, 4800, Note_on_c, 4, 67, 55
12, 4800, Note_on_c, 4, 69, 55
12, 4800, Note_on_c, 4, 74, 55
12, 5040, Note_on_c, 4, 74, 0
12, 5040, Note_on_c, 4, 69, 0
12, 5040, Note_on_c, 4, 67, 0
12, 5040, Note_on_c, 4, 67, 55
12, 5040, Note_on_c, 4, 72, 55
12, 5040, Note_on_c, 4, 76, 55
12, 5520, Note_on_c, 4, 76, 0
12, 5520, Note_on_c, 4, 72, 0
12, 5520, Note_on_c, 4, 67, 0
12, 5520, Note_on_c, 4, 78, 55
12, 5520, Note_on_c, 4, 69, 55
12, 5520, Note_on_c, 4, 74, 55
12, 6000, Note_on_c, 4, 74, 0
12, 6000, Note_on_c, 4, 69, 0
12, 6000, Note_on_c, 4, 78, 0
12, 6000, Note_on_c, 4, 76, 55
12, 6000, Note_on_c, 4, 67, 55
12, 6000, Note_on_c, 4, 72, 55
12, 6480, Note_on_c, 4, 72, 0
12, 6480, Note_on_c, 4, 67, 0
12, 6480, Note_on_c, 4, 76, 0
12, 6480, Note_on_c, 4, 69, 55
12, 6480, Note_on_c, 4, 74, 55
12, 6480, Note_on_c, 4, 78, 55
12, 6720, Note_on_c, 4, 78, 0
12, 6720, Note_on_c, 4, 74, 0
12, 6720, Note_on_c, 4, 69, 0
12, 6720, Note_on_c, 4, 67, 55
12, 6720, Note_on_c, 4, 69, 55
12, 6720, Note_on_c, 4, 74, 55
12, 6960, Note_on_c, 4, 74, 0
12, 6960, Note_on_c, 4, 69, 0
12, 6960, Note_on_c, 4, 67, 0
12, 6960, Note_on_c, 4, 67, 55
12, 6960, Note_on_c, 4, 72, 55
12, 6960, Note_on_c, 4, 76, 55
12, 7920, Note_on_c, 4, 76, 0
12, 7920, Note_on_c, 4, 72, 0
12, 7920, Note_on_c, 4, 67, 0
12, 19620, Note_on_c, 4, 71, 50
12, 19620, Note_on_c, 4, 76, 50
12, 19740, Note_on_c, 4, 76, 0
12, 19740, Note_on_c, 4, 71, 0
12, 19740, Note_on_c, 4, 72, 50
12, 19740, Note_on_c, 4, 77, 50
12, 19830, Note_on_c, 4, 77, 0
12, 19830, Note_on_c, 4, 72, 0
12, 19860, Note_on_c, 4, 69, 50
12, 19860, Note_on_c, 4, 74, 50
12, 19935, Note_on_c, 4, 74, 0
12, 19935, Note_on_c, 4, 69, 0
12, 19980, Note_on_c, 4, 71, 50
12, 19980, Note_on_c, 4, 76, 50
12, 20160, Note_on_c, 4, 76, 0
12, 20160, Note_on_c, 4, 71, 0
12, 20160, Note_on_c, 4, 66, 50
12, 20160, Note_on_c, 4, 71, 50
12, 20340, Note_on_c, 4, 71, 0
12, 20340, Note_on_c, 4, 66, 0
12, 20340, Note_on_c, 4, 69, 50
12, 20340, Note_on_c, 4, 74, 50
12, 20520, Note_on_c, 4, 74, 0
12, 20520, Note_on_c, 4, 69, 0
12, 20520, Note_on_c, 4, 71, 50
12, 20520, Note_on_c, 4, 76, 50
12, 20610, Note_on_c, 4, 76, 0
12, 20610, Note_on_c, 4, 71, 0
12, 20640, Note_on_c, 4, 72, 50
12, 20640, Note_on_c, 4, 77, 50
12, 20700, Note_on_c, 4, 77, 0
12, 20700, Note_on_c, 4, 72, 0
12, 20700, Note_on_c, 4, 71, 50
12, 20700, Note_on_c, 4, 76, 50
12, 20850, Note_on_c, 4, 76, 0
12, 20850, Note_on_c, 4, 71, 0
12, 20880, Note_on_c, 4, 71, 50
12, 20880, Note_on_c, 4, 76, 50
12, 21000, Note_on_c, 4, 76, 0
12, 21000, Note_on_c, 4, 71, 0
12, 21000, Note_on_c, 4, 72, 50
12, 21000, Note_on_c, 4, 77, 50
12, 21090, Note_on_c, 4, 77, 0
12, 21090, Note_on_c, 4, 72, 0
12, 21120, Note_on_c, 4, 69, 50
12, 21120, Note_on_c, 4, 74, 50
12, 21195, Note_on_c, 4, 74, 0
12, 21195, Note_on_c, 4, 69, 0
12, 21240, Note_on_c, 4, 71, 50
12, 21240, Note_on_c, 4, 76, 50
12, 21420, Note_on_c, 4, 76, 0
12, 21420, Note_on_c, 4, 71, 0
12, 21420, Note_on_c, 4, 66, 50
12, 21420, Note_on_c, 4, 71, 50
12, 21600, Note_on_c, 4, 71, 0
12, 21600, Note_on_c, 4, 66, 0
12, 21600, Note_on_c, 4, 69, 50
12, 21600, Note_on_c, 4, 74, 50
12, 21780, Note_on_c, 4, 74, 0
12, 21780, Note_on_c, 4, 69, 0
12, 21780, Note_on_c, 4, 64, 50
12, 21780, Note_on_c, 4, 69, 50
12, 21840, Note_on_c, 4, 69, 0
12, 21840, Note_on_c, 4, 64, 0
12, 21840, Note_on_c, 4, 63, 50
12, 21840, Note_on_c, 4, 68, 50
12, 21900, Note_on_c, 4, 68, 0
12, 21900, Note_on_c, 4, 63, 0
12, 21900, Note_on_c, 4, 64, 50
12, 21900, Note_on_c, 4, 69, 50
12, 21960, Note_on_c, 4, 69, 0
12, 21960, Note_on_c, 4, 64, 0
12, 21960, Note_on_c, 4, 66, 50
12, 21960, Note_on_c, 4, 71, 50
12, 22020, Note_on_c, 4, 71, 0
12, 22020, Note_on_c, 4, 66, 0
12, 22020, Note_on_c, 4, 64, 50
12, 22020, Note_on_c, 4, 69, 50
12, 22080, Note_on_c, 4, 69, 0
12, 22080, Note_on_c, 4, 64, 0
12, 22080, Note_on_c, 4, 63, 50
12, 22080, Note_on_c, 4, 68, 50
12, 22140, Note_on_c, 4, 68, 0
12, 22140, Note_on_c, 4, 63, 0
12, 22140, Note_on_c, 4, 69, 50
12, 22140, Note_on_c, 4, 74, 50
12, 22200, Note_on_c, 4, 74, 0
12, 22200, Note_on_c, 4, 69, 0
12, 22200, Note_on_c, 4, 71, 50
12, 22200, Note_on_c, 4, 76, 50
12, 22245, Note_on_c, 4, 76, 0
12, 22245, Note_on_c, 4, 71, 0
12, 22260, Note_on_c, 4, 71, 50
12, 22260, Note_on_c, 4, 76, 50
12, 22380, Note_on_c, 4, 76, 0
12, 22380, Note_on_c, 4, 71, 0
12, 22380, Note_on_c, 4, 72, 50
12, 22380, Note_on_c, 4, 77, 50
12, 22470, Note_on_c, 4, 77, 0
12, 22470, Note_on_c, 4, 72, 0
12, 22500, Note_on_c, 4, 69, 50
12, 22500, Note_on_c, 4, 74, 50
12, 22575, Note_on_c, 4, 74, 0
12, 22575, Note_on_c, 4, 69, 0
12, 22620, Note_on_c, 4, 71, 50
12, 22620, Note_on_c, 4, 76, 50
12, 22800, Note_on_c, 4, 76, 0
12, 22800, Note_on_c, 4, 71, 0
12, 22800, Note_on_c, 4, 66, 50
12, 22800, Note_on_c, 4, 71, 50
12, 22980, Note_on_c, 4, 71, 0
12, 22980, Note_on_c, 4, 66, 0
12, 22980, Note_on_c, 4, 69, 50
12, 22980, Note_on_c, 4, 74, 50
12, 23160, Note_on_c, 4, 74, 0
12, 23160, Note_on_c, 4, 69, 0
12, 23160, Note_on_c, 4, 71, 50
12, 23160, Note_on_c, 4, 76, 50
12, 23250, Note_on_c, 4, 76, 0
12, 23250, Note_on_c, 4, 71, 0
12, 23280, Note_on_c, 4, 72, 50
12, 23280, Note_on_c, 4, 77, 50
12, 23340, Note_on_c, 4, 77, 0
12, 23340, Note_on_c, 4, 72, 0
12, 23340, Note_on_c, 4, 71, 50
12, 23340, Note_on_c, 4, 76, 50
12, 23490, Note_on_c, 4, 76, 0
12, 23490, Note_on_c, 4, 71, 0
12, 23520, Note_on_c, 4, 71, 50
12, 23520, Note_on_c, 4, 76, 50
12, 23640, Note_on_c, 4, 76, 0
12, 23640, Note_on_c, 4, 71, 0
12, 23640, Note_on_c, 4, 72, 50
12, 23640, Note_on_c, 4, 77, 50
12, 23730, Note_on_c, 4, 77, 0
12, 23730, Note_on_c, 4, 72, 0
12, 23760, Note_on_c, 4, 69, 50
12, 23760, Note_on_c, 4, 74, 50
12, 23835, Note_on_c, 4, 74, 0
12, 23835, Note_on_c, 4, 69, 0
12, 23880, Note_on_c, 4, 71, 50
12, 23880, Note_on_c, 4, 76, 50
12, 24060, Note_on_c, 4, 76, 0
12, 24060, Note_on_c, 4, 71, 0
12, 24060, Note_on_c, 4, 66, 50
12, 24060, Note_on_c, 4, 71, 50
12, 24240, Note_on_c, 4, 71, 0
12, 24240, Note_on_c, 4, 66, 0
12, 24240, Note_on_c, 4, 69, 50
12, 24240, Note_on_c, 4, 74, 50
12, 24420, Note_on_c, 4, 74, 0
12, 24420, Note_on_c, 4, 69, 0
12, 24480, Note_on_c, 4, 63, 50
12, 24480, Note_on_c, 4, 68, 50
12, 24560, Note_on_c, 4, 68, 0
12, 24560, Note_on_c, 4, 63, 0
12, 24600, Note_on_c, 4, 64, 50
12, 24600, Note_on_c, 4, 69, 50
12, 24660, Note_on_c, 4, 69, 0
12, 24660, Note_on_c, 4, 64, 0
12, 24660, Note_on_c, 4, 66, 50
12, 24660, Note_on_c, 4, 71, 50
12, 24780, Note_on_c, 4, 71, 0
12, 24780, Note_on_c, 4, 66, 0
12, 24840, Note_on_c, 4, 67, 50
12, 24840, Note_on_c, 4, 72, 50
12, 24920, Note_on_c, 4, 72, 0
12, 24920, Note_on_c, 4, 67, 0
12, 24960, Note_on_c, 4, 69, 50
12, 24960, Note_on_c, 4, 74, 50
12, 25020, Note_on_c, 4, 74, 0
12, 25020, Note_on_c, 4, 69, 0
12, 25020, Note_on_c, 4, 71, 50
12, 25020, Note_on_c, 4, 76, 50
12, 25140, Note_on_c, 4, 76, 0
12, 25140, Note_on_c, 4, 71, 0
12, 25200, Note_on_c, 4, 68, 60
12, 25200, Note_on_c, 4, 64, 60
12, 25260, Note_on_c, 4, 64, 0
12, 25260, Note_on_c, 4, 68, 0
12, 25320, Note_on_c, 4, 68, 60
12, 25320, Note_on_c, 4, 64, 60
12, 25440, Note_on_c, 4, 64, 0
12, 25440, Note_on_c, 4, 68, 0
12, 25440, Note_on_c, 4, 64, 60
12, 25440, Note_on_c, 4, 68, 60
12, 25480, Note_on_c, 4, 68, 0
12, 25480, Note_on_c, 4, 64, 0
12, 25500, Note_on_c, 4, 59, 60
12, 25500, Note_on_c, 4, 64, 60
12, 25500, Note_on_c, 4, 68, 60
12, 25860, Note_on_c, 4, 68, 0
12, 25860, Note_on_c, 4, 64, 0
12, 25860, Note_on_c, 4, 59, 0
12, 25860, Note_on_c, 4, 74, 60
12, 25860, Note_on_c, 4, 67, 60
12, 25860, Note_on_c, 4, 60, 60
12, 26220, Note_on_c, 4, 60, 0
12, 26220, Note_on_c, 4, 67, 0
12, 26220, Note_on_c, 4, 74, 0
12, 26220, Note_on_c, 4, 74, 60
12, 26220, Note_on_c, 4, 66, 60
12, 26220, Note_on_c, 4, 62, 60
12, 26220, Note_on_c, 4, 69, 60
12, 26580, Note_on_c, 4, 69, 0
12, 26580, Note_on_c, 4, 74, 0
12, 26580, Note_on_c, 4, 66, 0
12, 26580, Note_on_c, 4, 62, 0
12, 26580, Note_on_c, 4, 59, 60
12, 26580, Note_on_c, 4, 64, 60
12, 26580, Note_on_c, 4, 68, 60
12, 26940, Note_on_c, 4, 68, 0
12, 26940, Note_on_c, 4, 64, 0
12, 26940, Note_on_c, 4, 59, 0
12, 26940, Note_on_c, 4, 57, 60
12, 26940, Note_on_c, 4, 64, 60
12, 26940, Note_on_c, 4, 68, 60
12, 27300, Note_on_c, 4, 68, 0
12, 27300, Note_on_c, 4, 64, 0
12, 27300, Note_on_c, 4, 57, 0
12, 27300, Note_on_c, 4, 74, 60
12, 27300, Note_on_c, 4, 67, 60
12, 27300, Note_on_c, 4, 60, 60
12, 27660, Note_on_c, 4, 60, 0
12, 27660, Note_on_c, 4, 67, 0
12, 27660, Note_on_c, 4, 74, 0
12, 27660, Note_on_c, 4, 74, 60
12, 27660, Note_on_c, 4, 66, 60
12, 27660, Note_on_c, 4, 62, 60
12, 27660, Note_on_c, 4, 69, 60
12, 27720, Note_on_c, 4, 69, 0
12, 27720, Note_on_c, 4, 74, 0
12, 27720, Note_on_c, 4, 66, 0
12, 27720, Note_on_c, 4, 62, 0
12, 27780, Note_on_c, 4, 74, 60
12, 27780, Note_on_c, 4, 66, 60
12, 27780, Note_on_c, 4, 62, 60
12, 27780, Note_on_c, 4, 69, 60
12, 27840, Note_on_c, 4, 69, 0
12, 27840, Note_on_c, 4, 74, 0
12, 27840, Note_on_c, 4, 66, 0
12, 27840, Note_on_c, 4, 62, 0
12, 27900, Note_on_c, 4, 59, 60
12, 27900, Note_on_c, 4, 64, 60
12, 27900, Note_on_c, 4, 68, 60
12, 28260, Note_on_c, 4, 68, 0
12, 28260, Note_on_c, 4, 64, 0
12, 28260, Note_on_c, 4, 59, 0
12, 28260, Note_on_c, 4, 57, 60
12, 28260, Note_on_c, 4, 64, 60
12, 28260, Note_on_c, 4, 68, 60
12, 28620, Note_on_c, 4, 68, 0
12, 28620, Note_on_c, 4, 64, 0
12, 28620, Note_on_c, 4, 57, 0
12, 28620, Note_on_c, 4, 74, 60
12, 28620, Note_on_c, 4, 67, 60
12, 28620, Note_on_c, 4, 60, 60
12, 28980, Note_on_c, 4, 60, 0
12, 28980, Note_on_c, 4, 67, 0
12, 28980, Note_on_c, 4, 74, 0
12, 28980, Note_on_c, 4, 74, 60
12, 28980, Note_on_c, 4, 66, 60
12, 28980, Note_on_c, 4, 62, 60
12, 28980, Note_on_c, 4, 69, 60
12, 29340, Note_on_c, 4, 69, 0
12, 29340, Note_on_c, 4, 74, 0
12, 29340, Note_on_c, 4, 66, 0
12, 29340, Note_on_c, 4, 62, 0
12, 29340, Note_on_c, 4, 72, 60
12, 29340, Note_on_c, 4, 69, 60
12, 29340, Note_on_c, 4, 65, 60
12, 29340, Note_on_c, 4, 60, 60
12, 29391, Note_on_c, 4, 60, 0
12, 29391, Note_on_c, 4, 72, 0
12, 29391, Note_on_c, 4, 69, 0
12, 29391, Note_on_c, 4, 65, 0
12, 29400, Note_on_c, 4, 60, 60
12, 29400, Note_on_c, 4, 65, 60
12, 29400, Note_on_c, 4, 69, 60
12, 29400, Note_on_c, 4, 72, 60
12, 29451, Note_on_c, 4, 72, 0
12, 29451, Note_on_c, 4, 60, 0
12, 29451, Note_on_c, 4, 65, 0
12, 29451, Note_on_c, 4, 69, 0
12, 29520, Note_on_c, 4, 72, 60
12, 29520, Note_on_c, 4, 69, 60
12, 29520, Note_on_c, 4, 65, 60
12, 29520, Note_on_c, 4, 60, 60
12, 29622, Note_on_c, 4, 60, 0
12, 29622, Note_on_c, 4, 72, 0
12, 29622, Note_on_c, 4, 69, 0
12, 29622, Note_on_c, 4, 65, 0
12, 29640, Note_on_c, 4, 60, 60
12, 29640, Note_on_c, 4, 65, 60
12, 29640, Note_on_c, 4, 69, 60
12, 29640, Note_on_c, 4, 72, 60
12, 29691, Note_on_c, 4, 72, 0
12, 29691, Note_on_c, 4, 60, 0
12, 29691, Note_on_c, 4, 65, 0
12, 29691, Note_on_c, 4, 69, 0
12, 29700, Note_on_c, 4, 60, 60
12, 29700, Note_on_c, 4, 64, 60
12, 29700, Note_on_c, 4, 67, 60
12, 29700, Note_on_c, 4, 72, 60
12, 30060, Note_on_c, 4, 72, 0
12, 30060, Note_on_c, 4, 60, 0
12, 30060, Note_on_c, 4, 64, 0
12, 30060, Note_on_c, 4, 67, 0
12, 30120, Note_on_c, 4, 64, 70
12, 30120, Note_on_c, 4, 73, 70
12, 30120, Note_on_c, 4, 61, 70
12, 30240, Note_on_c, 4, 61, 0
12, 30240, Note_on_c, 4, 73, 0
12, 30240, Note_on_c, 4, 64, 0
12, 30240, Note_on_c, 4, 64, 70
12, 30240, Note_on_c, 4, 74, 70
12, 30240, Note_on_c, 4, 62, 70
12, 30360, Note_on_c, 4, 62, 0
12, 30360, Note_on_c, 4, 74, 0
12, 30360, Note_on_c, 4, 64, 0
12, 30360, Note_on_c, 4, 69, 70
12, 30360, Note_on_c, 4, 76, 70
12, 30360, Note_on_c, 4, 64, 70
12, 30430, Note_on_c, 4, 64, 0
12, 30430, Note_on_c, 4, 76, 0
12, 30430, Note_on_c, 4, 69, 0
12, 30480, Note_on_c, 4, 69, 70
12, 30480, Note_on_c, 4, 64, 70
12, 30480, Note_on_c, 4, 76, 70
12, 30660, Note_on_c, 4, 76, 0
12, 30660, Note_on_c, 4, 64, 0
12, 30660, Note_on_c, 4, 69, 0
12, 30660, Note_on_c, 4, 69, 70
12, 30660, Note_on_c, 4, 73, 70
12, 30660, Note_on_c, 4, 76, 70
12, 30660, Note_on_c, 4, 64, 70
12, 30780, Note_on_c, 4, 64, 0
12, 30780, Note_on_c, 4, 69, 0
12, 30780, Note_on_c, 4, 73, 0
12, 30780, Note_on_c, 4, 76, 0
12, 30840, Note_on_c, 4, 67, 70
12, 30840, Note_on_c, 4, 60, 70
12, 30840, Note_on_c, 4, 72, 70
12, 30960, Note_on_c, 4, 72, 0
12, 30960, Note_on_c, 4, 60, 0
12, 30960, Note_on_c, 4, 67, 0
12, 30960, Note_on_c, 4, 67, 70
12, 30960, Note_on_c, 4, 62, 70
12, 30960, Note_on_c, 4, 74, 70
12, 31080, Note_on_c, 4, 74, 0
12, 31080, Note_on_c, 4, 62, 0
12, 31080, Note_on_c, 4, 67, 0
12, 31080, Note_on_c, 4, 72, 70
12, 31080, Note_on_c, 4, 64, 70
12, 31080, Note_on_c, 4, 76, 70
12, 31150, Note_on_c, 4, 76, 0
12, 31150, Note_on_c, 4, 64, 0
12, 31150, Note_on_c, 4, 72, 0
12, 31200, Note_on_c, 4, 69, 70
12, 31200, Note_on_c, 4, 62, 70
12, 31200, Note_on_c, 4, 74, 70
12, 31380, Note_on_c, 4, 74, 0
12, 31380, Note_on_c, 4, 62, 0
12, 31380, Note_on_c, 4, 69, 0
12, 31380, Note_on_c, 4, 69, 70
12, 31380, Note_on_c, 4, 62, 70
12, 31380, Note_on_c, 4, 74, 70
12, 31500, Note_on_c, 4, 74, 0
12, 31500, Note_on_c, 4, 62, 0
12, 31500, Note_on_c, 4, 69, 0
12, 31560, Note_on_c, 4, 64, 70
12, 31560, Note_on_c, 4, 73, 70
12, 31560, Note_on_c, 4, 61, 70
12, 31680, Note_on_c, 4, 61, 0
12, 31680, Note_on_c, 4, 73, 0
12, 31680, Note_on_c, 4, 64, 0
12, 31680, Note_on_c, 4, 64, 70
12, 31680, Note_on_c, 4, 74, 70
12, 31680, Note_on_c, 4, 62, 70
12, 31800, Note_on_c, 4, 62, 0
12, 31800, Note_on_c, 4, 74, 0
12, 31800, Note_on_c, 4, 64, 0
12, 31800, Note_on_c, 4, 69, 70
12, 31800, Note_on_c, 4, 76, 70
12, 31800, Note_on_c, 4, 64, 70
12, 31870, Note_on_c, 4, 64, 0
12, 31870, Note_on_c, 4, 76, 0
12, 31870, Note_on_c, 4, 69, 0
12, 31920, Note_on_c, 4, 69, 70
12, 31920, Note_on_c, 4, 64, 70
12, 31920, Note_on_c, 4, 76, 70
12, 32100, Note_on_c, 4, 76, 0
12, 32100, Note_on_c, 4, 64, 0
12, 32100, Note_on_c, 4, 69, 0
12, 32100, Note_on_c, 4, 69, 70
12, 32100, Note_on_c, 4, 73, 70
12, 32100, Note_on_c, 4, 76, 70
12, 32100, Note_on_c, 4, 64, 70
12, 32220, Note_on_c, 4, 64, 0
12, 32220, Note_on_c, 4, 69, 0
12, 32220, Note_on_c, 4, 73, 0
12, 32220, Note_on_c, 4, 76, 0
12, 32220, Note_on_c, 4, 60, 105
12, 32262, Note_on_c, 4, 60, 0
12, 32280, Note_on_c, 4, 59, 105
12, 32322, Note_on_c, 4, 59, 0
12, 32340, Note_on_c, 4, 57, 105
12, 32382, Note_on_c, 4, 57, 0
12, 32400, Note_on_c, 4, 55, 105
12, 32442, Note_on_c, 4, 55, 0
12, 32460, Note_on_c, 4, 57, 105
12, 32502, Note_on_c, 4, 57, 0
12, 32520, Note_on_c, 4, 59, 105
12, 32562, Note_on_c, 4, 59, 0
12, 32580, Note_on_c, 4, 57, 105
12, 32820, Note_on_c, 4, 57, 0
12, 32880, Note_on_c, 4, 64, 70
12, 32880, Note_on_c, 4, 73, 70
12, 32880, Note_on_c, 4, 61, 70
12, 33000, Note_on_c, 4, 61, 0
12, 33000, Note_on_c, 4, 73, 0
12, 33000, Note_on_c, 4, 64, 0
12, 33000, Note_on_c, 4, 64, 70
12, 33000, Note_on_c, 4, 74, 70
12, 33000, Note_on_c, 4, 62, 70
12, 33120, Note_on_c, 4, 62, 0
12, 33120, Note_on_c, 4, 74, 0
12, 33120, Note_on_c, 4, 64, 0
12, 33120, Note_on_c, 4, 69, 70
12, 33120, Note_on_c, 4, 76, 70
12, 33120, Note_on_c, 4, 64, 70
12, 33190, Note_on_c, 4, 64, 0
12, 33190, Note_on_c, 4, 76, 0
12, 33190, Note_on_c, 4, 69, 0
12, 33240, Note_on_c, 4, 69, 70
12, 33240, Note_on_c, 4, 64, 70
12, 33240, Note_on_c, 4, 76, 70
12, 33420, Note_on_c, 4, 76, 0
12, 33420, Note_on_c, 4, 64, 0
12, 33420, Note_on_c, 4, 69, 0
12, 33420, Note_on_c, 4, 69, 70
12, 33420, Note_on_c, 4, 73, 70
12, 33420, Note_on_c, 4, 76, 70
12, 33420, Note_on_c, 4, 64, 70
12, 33540, Note_on_c, 4, 64, 0
12, 33540, Note_on_c, 4, 69, 0
12, 33540, Note_on_c, 4, 73, 0
12, 33540, Note_on_c, 4, 76, 0
12, 33600, Note_on_c, 4, 67, 70
12, 33600, Note_on_c, 4, 60, 70
12, 33600, Note_on_c, 4, 72, 70
12, 33720, Note_on_c, 4, 72, 0
12, 33720, Note_on_c, 4, 60, 0
12, 33720, Note_on_c, 4, 67, 0
12, 33720, Note_on_c, 4, 67, 70
12, 33720, Note_on_c, 4, 62, 70
12, 33720, Note_on_c, 4, 74, 70
12, 33840, Note_on_c, 4, 74, 0
12, 33840, Note_on_c, 4, 62, 0
12, 33840, Note_on_c, 4, 67, 0
12, 33840, Note_on_c, 4, 72, 70
12, 33840, Note_on_c, 4, 64, 70
12, 33840, Note_on_c, 4, 76, 70
12, 33910, Note_on_c, 4, 76, 0
12, 33910, Note_on_c, 4, 64, 0
12, 33910, Note_on_c, 4, 72, 0
12, 33960, Note_on_c, 4, 69, 70
12, 33960, Note_on_c, 4, 62, 70
12, 33960, Note_on_c, 4, 74, 70
12, 34140, Note_on_c, 4, 74, 0
12, 34140, Note_on_c, 4, 62, 0
12, 34140, Note_on_c, 4, 69, 0
12, 34140, Note_on_c, 4, 69, 70
12, 34140, Note_on_c, 4, 62, 70
12, 34140, Note_on_c, 4, 74, 70
12, 34260, Note_on_c, 4, 74, 0
12, 34260, Note_on_c, 4, 62, 0
12, 34260, Note_on_c, 4, 69, 0
12, 34320, Note_on_c, 4, 69, 70
12, 34320, Note_on_c, 4, 65, 100
12, 34440, Note_on_c, 4, 65, 0
12, 34440, Note_on_c, 4, 69, 0
12, 34440, Note_on_c, 4, 69, 70
12, 34440, Note_on_c, 4, 65, 100
12, 34560, Note_on_c, 4, 65, 0
12, 34560, Note_on_c, 4, 69, 0
12, 34560, Note_on_c, 4, 62, 80
12, 34560, Note_on_c, 4, 71, 80
12, 34560, Note_on_c, 4, 67, 80
12, 34620, Note_on_c, 4, 67, 0
12, 34620, Note_on_c, 4, 71, 0
12, 34620, Note_on_c, 4, 62, 0
12, 34680, Note_on_c, 4, 60, 100
12, 34680, Note_on_c, 4, 65, 100
12, 34680, Note_on_c, 4, 69, 100
12, 34860, Note_on_c, 4, 69, 0
12, 34860, Note_on_c, 4, 65, 0
12, 34860, Note_on_c, 4, 60, 0
12, 34860, Note_on_c, 4, 67, 80
12, 34860, Note_on_c, 4, 74, 70
12, 34860, Note_on_c, 4, 71, 120
12, 34920, Note_on_c, 4, 67, 0
12, 34980, Note_on_c, 4, 71, 0
12, 34980, Note_on_c, 4, 74, 0
12, 34980, Note_on_c, 4, 67, 80
12, 34980, Note_on_c, 4, 64, 80
12, 34980, Note_on_c, 4, 60, 80
12, 34980, Note_on_c, 4, 72, 80
12, 35160, Note_on_c, 4, 72, 0
12, 35160, Note_on_c, 4, 67, 0
12, 35160, Note_on_c, 4, 64, 0
12, 35160, Note_on_c, 4, 60, 0
12, 35160, Note_on_c, 4, 67, 80
12, 35160, Note_on_c, 4, 72, 80
12, 35160, Note_on_c, 4, 64, 80
12, 35160, Note_on_c, 4, 76, 80
12, 35340, Note_on_c, 4, 76, 0
12, 35340, Note_on_c, 4, 67, 0
12, 35340, Note_on_c, 4, 72, 0
12, 35340, Note_on_c, 4, 64, 0
12, 35340, Note_on_c, 4, 69, 80
12, 35340, Note_on_c, 4, 62, 80
12, 35340, Note_on_c, 4, 74, 80
12, 35580, Note_on_c, 4, 74, 0
12, 35580, Note_on_c, 4, 62, 0
12, 35580, Note_on_c, 4, 69, 0
12, 35640, Note_on_c, 4, 68, 60
12, 35640, Note_on_c, 4, 64, 60
12, 35700, Note_on_c, 4, 64, 0
12, 35700, Note_on_c, 4, 68, 0
12, 35760, Note_on_c, 4, 68, 60
12, 35760, Note_on_c, 4, 64, 60
12, 35880, Note_on_c, 4, 64, 0
12, 35880, Note_on_c, 4, 68, 0
12, 35880, Note_on_c, 4, 64, 60
12, 35880, Note_on_c, 4, 68, 60
12, 35920, Note_on_c, 4, 68, 0
12, 35920, Note_on_c, 4, 64, 0
12, 35940, Note_on_c, 4, 59, 60
12, 35940, Note_on_c, 4, 64, 60
12, 35940, Note_on_c, 4, 68, 60
12, 36300, Note_on_c, 4, 68, 0
12, 36300, Note_on_c, 4, 64, 0
12, 36300, Note_on_c, 4, 59, 0
12, 36300, Note_on_c, 4, 74, 60
12, 36300, Note_on_c, 4, 67, 60
12, 36300, Note_on_c, 4, 60, 60
12, 36660, Note_on_c, 4, 60, 0
12, 36660, Note_on_c, 4, 67, 0
12, 36660, Note_on_c, 4, 74, 0
12, 36660, Note_on_c, 4, 74, 60
12, 36660, Note_on_c, 4, 66, 60
12, 36660, Note_on_c, 4, 62, 60
12, 36660, Note_on_c, 4, 69, 60
12, 37020, Note_on_c, 4, 69, 0
12, 37020, Note_on_c, 4, 74, 0
12, 37020, Note_on_c, 4, 66, 0
12, 37020, Note_on_c, 4, 62, 0
12, 37020, Note_on_c, 4, 59, 60
12, 37020, Note_on_c, 4, 64, 60
12, 37020, Note_on_c, 4, 68, 60
12, 37380, Note_on_c, 4, 68, 0
12, 37380, Note_on_c, 4, 64, 0
12, 37380, Note_on_c, 4, 59, 0
12, 37380, Note_on_c, 4, 57, 60
12, 37380, Note_on_c, 4, 64, 60
12, 37380, Note_on_c, 4, 68, 60
12, 37740, Note_on_c, 4, 68, 0
12, 37740, Note_on_c, 4, 64, 0
12, 37740, Note_on_c, 4, 57, 0
12, 37740, Note_on_c, 4, 74, 60
12, 37740, Note_on_c, 4, 67, 60
12, 37740, Note_on_c, 4, 60, 60
12, 38100, Note_on_c, 4, 60, 0
12, 38100, Note_on_c, 4, 67, 0
12, 38100, Note_on_c, 4, 74, 0
12, 38100, Note_on_c, 4, 74, 60
12, 38100, Note_on_c, 4, 66, 60
12, 38100, Note_on_c, 4, 62, 60
12, 38100, Note_on_c, 4, 69, 60
12, 38160, Note_on_c, 4, 69, 0
12, 38160, Note_on_c, 4, 74, 0
12, 38160, Note_on_c, 4, 66, 0
12, 38160, Note_on_c, 4, 62, 0
12, 38220, Note_on_c, 4, 74, 60
12, 38220, Note_on_c, 4, 66, 60
12, 38220, Note_on_c, 4, 62, 60
12, 38220, Note_on_c, 4, 69, 60
12, 38280, Note_on_c, 4, 69, 0
12, 38280, Note_on_c, 4, 74, 0
12, 38280, Note_on_c, 4, 66, 0
12, 38280, Note_on_c, 4, 62, 0
12, 38340, Note_on_c, 4, 59, 60
12, 38340, Note_on_c, 4, 64, 60
12, 38340, Note_on_c, 4, 68, 60
12, 38700, Note_on_c, 4, 68, 0
12, 38700, Note_on_c, 4, 64, 0
12, 38700, Note_on_c, 4, 59, 0
12, 38700, Note_on_c, 4, 57, 60
12, 38700, Note_on_c, 4, 64, 60
12, 38700, Note_on_c, 4, 68, 60
12, 39060, Note_on_c, 4, 68, 0
12, 39060, Note_on_c, 4, 64, 0
12, 39060, Note_on_c, 4, 57, 0
12, 39060, Note_on_c, 4, 74, 60
12, 39060, Note_on_c, 4, 67, 60
12, 39060, Note_on_c, 4, 60, 60
12, 39420, Note_on_c, 4, 60, 0
12, 39420, Note_on_c, 4, 67, 0
12, 39420, Note_on_c, 4, 74, 0
12, 39420, Note_on_c, 4, 74, 60
12, 39420, Note_on_c, 4, 66, 60
12, 39420, Note_on_c, 4, 62, 60
12, 39420, Note_on_c, 4, 69, 60
12, 39780, Note_on_c, 4, 69, 0
12, 39780, Note_on_c, 4, 74, 0
12, 39780, Note_on_c, 4, 66, 0
12, 39780, Note_on_c, 4, 62, 0
12, 39780, Note_on_c, 4, 72, 60
12, 39780, Note_on_c, 4, 69, 60
12, 39780, Note_on_c, 4, 65, 60
12, 39780, Note_on_c, 4, 60, 60
12, 39831, Note_on_c, 4, 60, 0
12, 39831, Note_on_c, 4, 72, 0
12, 39831, Note_on_c, 4, 69, 0
12, 39831, Note_on_c, 4, 65, 0
12, 39840, Note_on_c, 4, 60, 60
12, 39840, Note_on_c, 4, 65, 60
12, 39840, Note_on_c, 4, 69, 60
12, 39840, Note_on_c, 4, 72, 60
12, 39891, Note_on_c, 4, 72, 0
12, 39891, Note_on_c, 4, 60, 0
12, 39891, Note_on_c, 4, 65, 0
12, 39891, Note_on_c, 4, 69, 0
12, 39960, Note_on_c, 4, 72, 60
12, 39960, Note_on_c, 4, 69, 60
12, 39960, Note_on_c, 4, 65, 60
12, 39960, Note_on_c, 4, 60, 60
12, 40062, Note_on_c, 4, 60, 0
12, 40062, Note_on_c, 4, 72, 0
12, 40062, Note_on_c, 4, 69, 0
12, 40062, Note_on_c, 4, 65, 0
12, 40080, Note_on_c, 4, 60, 60
12, 40080, Note_on_c, 4, 65, 60
12, 40080, Note_on_c, 4, 69, 60
12, 40080, Note_on_c, 4, 72, 60
12, 40131, Note_on_c, 4, 72, 0
12, 40131, Note_on_c, 4, 60, 0
12, 40131, Note_on_c, 4, 65, 0
12, 40131, Note_on_c, 4, 69, 0
12, 40140, Note_on_c, 4, 60, 60
12, 40140, Note_on_c, 4, 64, 60
12, 40140, Note_on_c, 4, 67, 60
12, 40140, Note_on_c, 4, 72, 60
12, 40500, Note_on_c, 4, 72, 0
12, 40500, Note_on_c, 4, 60, 0
12, 40500, Note_on_c, 4, 64, 0
12, 40500, Note_on_c, 4, 67, 0
12, 40560, Note_on_c, 4, 64, 55
12, 40560, Note_on_c, 4, 73, 55
12, 40560, Note_on_c, 4, 61, 55
12, 40680, Note_on_c, 4, 61, 0
12, 40680, Note_on_c, 4, 73, 0
12, 40680, Note_on_c, 4, 64, 0
12, 40680, Note_on_c, 4, 64, 55
12, 40680, Note_on_c, 4, 74, 55
12, 40680, Note_on_c, 4, 62, 55
12, 40800, Note_on_c, 4, 62, 0
12, 40800, Note_on_c, 4, 74, 0
12, 40800, Note_on_c, 4, 64, 0
12, 40800, Note_on_c, 4, 69, 55
12, 40800, Note_on_c, 4, 76, 55
12, 40800, Note_on_c, 4, 64, 55
12, 40870, Note_on_c, 4, 64, 0
12, 40870, Note_on_c, 4, 76, 0
12, 40870, Note_on_c, 4, 69, 0
12, 40920, Note_on_c, 4, 69, 55
12, 40920, Note_on_c, 4, 64, 55
12, 40920, Note_on_c, 4, 76, 55
12, 41100, Note_on_c, 4, 76, 0
12, 41100, Note_on_c, 4, 64, 0
12, 41100, Note_on_c, 4, 69, 0
12, 41100, Note_on_c, 4, 69, 55
12, 41100, Note_on_c, 4, 73, 55
12, 41100, Note_on_c, 4, 76, 55
12, 41100, Note_on_c, 4, 64, 55
12, 41220, Note_on_c, 4, 64, 0
12, 41220, Note_on_c, 4, 69, 0
12, 41220, Note_on_c, 4, 73, 0
12, 41220, Note_on_c, 4, 76, 0
12, 41280, Note_on_c, 4, 67, 55
12, 41280, Note_on_c, 4, 60, 55
12, 41280, Note_on_c, 4, 72, 55
12, 41400, Note_on_c, 4, 72, 0
12, 41400, Note_on_c, 4, 60, 0
12, 41400, Note_on_c, 4, 67, 0
12, 41400, Note_on_c, 4, 67, 55
12, 41400, Note_on_c, 4, 62, 55
12, 41400, Note_on_c, 4, 74, 55
12, 41520, Note_on_c, 4, 74, 0
12, 41520, Note_on_c, 4, 62, 0
12, 41520, Note_on_c, 4, 67, 0
12, 41520, Note_on_c, 4, 72, 55
12, 41520, Note_on_c, 4, 64, 55
12, 41520, Note_on_c, 4, 76, 55
12, 41590, Note_on_c, 4, 76, 0
12, 41590, Note_on_c, 4, 64, 0
12, 41590, Note_on_c, 4, 72, 0
12, 41640, Note_on_c, 4, 69, 55
12, 41640, Note_on_c, 4, 62, 55
12, 41640, Note_on_c, 4, 74, 55
12, 41820, Note_on_c, 4, 74, 0
12, 41820, Note_on_c, 4, 62, 0
12, 41820, Note_on_c, 4, 69, 0
12, 41820, Note_on_c, 4, 69, 55
12, 41820, Note_on_c, 4, 62, 55
12, 41820, Note_on_c, 4, 74, 55
12, 41940, Note_on_c, 4, 74, 0
12, 41940, Note_on_c, 4, 62, 0
12, 41940, Note_on_c, 4, 69, 0
12, 42000, Note_on_c, 4, 64, 55
12, 42000, Note_on_c, 4, 73, 55
12, 42000, Note_on_c, 4, 61, 55
12, 42120, Note_on_c, 4, 61, 0
12, 42120, Note_on_c, 4, 73, 0
12, 42120, Note_on_c, 4, 64, 0
12, 42120, Note_on_c, 4, 64, 55
12, 42120, Note_on_c, 4, 74, 55
12, 42120, Note_on_c, 4, 62, 55
12, 42240, Note_on_c, 4, 62, 0
12, 42240, Note_on_c, 4, 74, 0
12, 42240, Note_on_c, 4, 64, 0
12, 42240, Note_on_c, 4, 69, 55
12, 42240, Note_on_c, 4, 76, 55
12, 42240, Note_on_c, 4, 64, 55
12, 42310, Note_on_c, 4, 64, 0
12, 42310, Note_on_c, 4, 76, 0
12, 42310, Note_on_c, 4, 69, 0
12, 42360, Note_on_c, 4, 69, 55
12, 42360, Note_on_c, 4, 64, 55
12, 42360, Note_on_c, 4, 76, 55
12, 42540, Note_on_c, 4, 76, 0
12, 42540, Note_on_c, 4, 64, 0
12, 42540, Note_on_c, 4, 69, 0
12, 42540, Note_on_c, 4, 69, 55
12, 42540, Note_on_c, 4, 73, 55
12, 42540, Note_on_c, 4, 76, 55
12, 42540, Note_on_c, 4, 64, 55
12, 42660, Note_on_c, 4, 64, 0
12, 42660, Note_on_c, 4, 69, 0
12, 42660, Note_on_c, 4, 73, 0
12, 42660, Note_on_c, 4, 76, 0
12, 43320, Note_on_c, 4, 64, 55
12, 43320, Note_on_c, 4, 73, 55
12, 43320, Note_on_c, 4, 61, 55
12, 43440, Note_on_c, 4, 61, 0
12, 43440, Note_on_c, 4, 73, 0
12, 43440, Note_on_c, 4, 64, 0
12, 43440, Note_on_c, 4, 64, 55
12, 43440, Note_on_c, 4, 74, 55
12, 43440, Note_on_c, 4, 62, 55
12, 43560, Note_on_c, 4, 62, 0
12, 43560, Note_on_c, 4, 74, 0
12, 43560, Note_on_c, 4, 64, 0
12, 43560, Note_on_c, 4, 69, 55
12, 43560, Note_on_c, 4, 76, 55
12, 43560, Note_on_c, 4, 64, 55
12, 43630, Note_on_c, 4, 64, 0
12, 43630, Note_on_c, 4, 76, 0
12, 43630, Note_on_c, 4, 69, 0
12, 43680, Note_on_c, 4, 69, 55
12, 43680, Note_on_c, 4, 64, 55
12, 43680, Note_on_c, 4, 76, 55
12, 43860, Note_on_c, 4, 76, 0
12, 43860, Note_on_c, 4, 64, 0
12, 43860, Note_on_c, 4, 69, 0
12, 43860, Note_on_c, 4, 69, 55
12, 43860, Note_on_c, 4, 73, 55
12, 43860, Note_on_c, 4, 76, 55
12, 43860, Note_on_c, 4, 64, 55
12, 43980, Note_on_c, 4, 64, 0
12, 43980, Note_on_c, 4, 69, 0
12, 43980, Note_on_c, 4, 73, 0
12, 43980, Note_on_c, 4, 76, 0
12, 44040, Note_on_c, 4, 67, 55
12, 44040, Note_on_c, 4, 60, 55
12, 44040, Note_on_c, 4, 72, 55
12, 44160, Note_on_c, 4, 72, 0
12, 44160, Note_on_c, 4, 60, 0
12, 44160, Note_on_c, 4, 67, 0
12, 44160, Note_on_c, 4, 67, 55
12, 44160, Note_on_c, 4, 62, 55
12, 44160, Note_on_c, 4, 74, 55
12, 44280, Note_on_c, 4, 74, 0
12, 44280, Note_on_c, 4, 62, 0
12, 44280, Note_on_c, 4, 67, 0
12, 44280, Note_on_c, 4, 72, 55
12, 44280, Note_on_c, 4, 64, 55
12, 44280, Note_on_c, 4, 76, 55
12, 44350, Note_on_c, 4, 76, 0
12, 44350, Note_on_c, 4, 64, 0
12, 44350, Note_on_c, 4, 72, 0
12, 44400, Note_on_c, 4, 69, 55
12, 44400, Note_on_c, 4, 62, 55
12, 44400, Note_on_c, 4, 74, 55
12, 44580, Note_on_c, 4, 74, 0
12, 44580, Note_on_c, 4, 62, 0
12, 44580, Note_on_c, 4, 69, 0
12, 44580, Note_on_c, 4, 69, 55
12, 44580, Note_on_c, 4, 62, 55
12, 44580, Note_on_c, 4, 74, 55
12, 44700, Note_on_c, 4, 74, 0
12, 44700, Note_on_c, 4, 62, 0
12, 44700, Note_on_c, 4, 69, 0
12, 44760, Note_on_c, 4, 69, 55
12, 44760, Note_on_c, 4, 65, 55
12, 44880, Note_on_c, 4, 65, 0
12, 44880, Note_on_c, 4, 69, 0
12, 44880, Note_on_c, 4, 69, 55
12, 44880, Note_on_c, 4, 65, 55
12, 45000, Note_on_c, 4, 65, 0
12, 45000, Note_on_c, 4, 69, 0
12, 45000, Note_on_c, 4, 62, 55
12, 45000, Note_on_c, 4, 71, 55
12, 45000, Note_on_c, 4, 67, 55
12, 45060, Note_on_c, 4, 67, 0
12, 45060, Note_on_c, 4, 71, 0
12, 45060, Note_on_c, 4, 62, 0
12, 45120, Note_on_c, 4, 60, 55
12, 45120, Note_on_c, 4, 65, 55
12, 45120, Note_on_c, 4, 69, 55
12, 45300, Note_on_c, 4, 69, 0
12, 45300, Note_on_c, 4, 65, 0
12, 45300, Note_on_c, 4, 60, 0
12, 45300, Note_on_c, 4, 67, 55
12, 45300, Note_on_c, 4, 74, 55
12, 45300, Note_on_c, 4, 71, 55
12, 45360, Note_on_c, 4, 67, 0
12, 45420, Note_on_c, 4, 71, 0
12, 45420, Note_on_c, 4, 74, 0
12, 45420, Note_on_c, 4, 67, 55
12, 45420, Note_on_c, 4, 64, 55
12, 45420, Note_on_c, 4, 60, 55
12, 45420, Note_on_c, 4, 72, 55
12, 45600, Note_on_c, 4, 72, 0
12, 45600, Note_on_c, 4, 67, 0
12, 45600, Note_on_c, 4, 64, 0
12, 45600, Note_on_c, 4, 60, 0
12, 45600, Note_on_c, 4, 67, 55
12, 45600, Note_on_c, 4, 72, 55
12, 45600, Note_on_c, 4, 64, 55
12, 45600, Note_on_c, 4, 76, 55
12, 45780, Note_on_c, 4, 76, 0
12, 45780, Note_on_c, 4, 67, 0
12, 45780, Note_on_c, 4, 72, 0
12, 45780, Note_on_c, 4, 64, 0
12, 45780, Note_on_c, 4, 69, 55
12, 45780, Note_on_c, 4, 62, 55
12, 45780, Note_on_c, 4, 74, 55
12, 46380, Note_on_c, 4, 74, 0
12, 46380, Note_on_c, 4, 62, 0
12, 46380, Note_on_c, 4, 69, 0
12, 54120, Note_on_c, 4, 71, 50
12, 54120, Note_on_c, 4, 76, 50
12, 54240, Note_on_c, 4, 76, 0
12, 54240, Note_on_c, 4, 71, 0
12, 54240, Note_on_c, 4, 72, 50
12, 54240, Note_on_c, 4, 77, 50
12, 54330, Note_on_c, 4, 77, 0
12, 54330, Note_on_c, 4, 72, 0
12, 54360, Note_on_c, 4, 69, 50
12, 54360, Note_on_c, 4, 74, 50
12, 54435, Note_on_c, 4, 74, 0
12, 54435, Note_on_c, 4, 69, 0
12, 54480, Note_on_c, 4, 71, 50
12, 54480, Note_on_c, 4, 76, 50
12, 54660, Note_on_c, 4, 76, 0
12, 54660, Note_on_c, 4, 71, 0
12, 54660, Note_on_c, 4, 66, 50
12, 54660, Note_on_c, 4, 71, 50
12, 54840, Note_on_c, 4, 71, 0
12, 54840, Note_on_c, 4, 66, 0
12, 54840, Note_on_c, 4, 69, 50
12, 54840, Note_on_c, 4, 74, 50
12, 55020, Note_on_c, 4, 74, 0
12, 55020, Note_on_c, 4, 69, 0
12, 55020, Note_on_c, 4, 71, 50
12, 55020, Note_on_c, 4, 76, 50
12, 55110, Note_on_c, 4, 76, 0
12, 55110, Note_on_c, 4, 71, 0
12, 55140, Note_on_c, 4, 72, 50
12, 55140, Note_on_c, 4, 77, 50
12, 55200, Note_on_c, 4, 77, 0
12, 55200, Note_on_c, 4, 72, 0
12, 55200, Note_on_c, 4, 71, 50
12, 55200, Note_on_c, 4, 76, 50
12, 55350, Note_on_c, 4, 76, 0
12, 55350, Note_on_c, 4, 71, 0
12, 55380, Note_on_c, 4, 71, 50
12, 55380, Note_on_c, 4, 76, 50
12, 55500, Note_on_c, 4, 76, 0
12, 55500, Note_on_c, 4, 71, 0
12, 55500, Note_on_c, 4, 72, 50
12, 55500, Note_on_c, 4, 77, 50
12, 55590, Note_on_c, 4, 77, 0
12, 55590, Note_on_c, 4, 72, 0
12, 55620, Note_on_c, 4, 69, 50
12, 55620, Note_on_c, 4, 74, 50
12, 55695, Note_on_c, 4, 74, 0
12, 55695, Note_on_c, 4, 69, 0
12, 55740, Note_on_c, 4, 71, 50
12, 55740, Note_on_c, 4, 76, 50
12, 55920, Note_on_c, 4, 76, 0
12, 55920, Note_on_c, 4, 71, 0
12, 55920, Note_on_c, 4, 66, 50
12, 55920, Note_on_c, 4, 71, 50
12, 56100, Note_on_c, 4, 71, 0
12, 56100, Note_on_c, 4, 66, 0
12, 56100, Note_on_c, 4, 69, 50
12, 56100, Note_on_c, 4, 74, 50
12, 56280, Note_on_c, 4, 74, 0
12, 56280, Note_on_c, 4, 69, 0
12, 56280, Note_on_c, 4, 64, 50
12, 56280, Note_on_c, 4, 69, 50
12, 56340, Note_on_c, 4, 69, 0
12, 56340, Note_on_c, 4, 64, 0
12, 56340, Note_on_c, 4, 63, 50
12, 56340, Note_on_c, 4, 68, 50
12, 56400, Note_on_c, 4, 68, 0
12, 56400, Note_on_c, 4, 63, 0
12, 56400, Note_on_c, 4, 64, 50
12, 56400, Note_on_c, 4, 69, 50
12, 56460, Note_on_c, 4, 69, 0
12, 56460, Note_on_c, 4, 64, 0
12, 56460, Note_on_c, 4, 66, 50
12, 56460, Note_on_c, 4, 71, 50
12, 56520, Note_on_c, 4, 71, 0
12, 56520, Note_on_c, 4, 66, 0
12, 56520, Note_on_c, 4, 64, 50
12, 56520, Note_on_c, 4, 69, 50
12, 56580, Note_on_c, 4, 69, 0
12, 56580, Note_on_c, 4, 64, 0
12, 56580, Note_on_c, 4, 63, 50
12, 56580, Note_on_c, 4, 68, 50
12, 56640, Note_on_c, 4, 68, 0
12, 56640, Note_on_c, 4, 63, 0
12, 56640, Note_on_c, 4, 69, 50
12, 56640, Note_on_c, 4, 74, 50
12, 56700, Note_on_c, 4, 74, 0
12, 56700, Note_on_c, 4, 69, 0
12, 56700, Note_on_c, 4, 71, 50
12, 56700, Note_on_c, 4, 76, 50
12, 56745, Note_on_c, 4, 76, 0
12, 56745, Note_on_c, 4, 71, 0
12, 56760, Note_on_c, 4, 71, 50
12, 56760, Note_on_c, 4, 76, 50
12, 56880, Note_on_c, 4, 76, 0
12, 56880, Note_on_c, 4, 71, 0
12, 56880, Note_on_c, 4, 72, 50
12, 56880, Note_on_c, 4, 77, 50
12, 56970, Note_on_c, 4, 77, 0
12, 56970, Note_on_c, 4, 72, 0
12, 57000, Note_on_c, 4, 69, 50
12, 57000, Note_on_c, 4, 74, 50
12, 57075, Note_on_c, 4, 74, 0
12, 57075, Note_on_c, 4, 69, 0
12, 57120, Note_on_c, 4, 71, 50
12, 57120, Note_on_c, 4, 76, 50
12, 57300, Note_on_c, 4, 76, 0
12, 57300, Note_on_c, 4, 71, 0
12, 57300, Note_on_c, 4, 66, 50
12, 57300, Note_on_c, 4, 71, 50
12, 57480, Note_on_c, 4, 71, 0
12, 57480, Note_on_c, 4, 66, 0
12, 57480, Note_on_c, 4, 69, 50
12, 57480, Note_on_c, 4, 74, 50
12, 57660, Note_on_c, 4, 74, 0
12, 57660, Note_on_c, 4, 69, 0
12, 57660, Note_on_c, 4, 71, 50
12, 57660, Note_on_c, 4, 76, 50
12, 57750, Note_on_c, 4, 76, 0
12, 57750, Note_on_c, 4, 71, 0
12, 57780, Note_on_c, 4, 72, 50
12, 57780, Note_on_c, 4, 77, 50
12, 57840, Note_on_c, 4, 77, 0
12, 57840, Note_on_c, 4, 72, 0
12, 57840, Note_on_c, 4, 71, 50
12, 57840, Note_on_c, 4, 76, 50
12, 57990, Note_on_c, 4, 76, 0
12, 57990, Note_on_c, 4, 71, 0
12, 58020, Note_on_c, 4, 71, 50
12, 58020, Note_on_c, 4, 76, 50
12, 58140, Note_on_c, 4, 76, 0
12, 58140, Note_on_c, 4, 71, 0
12, 58140, Note_on_c, 4, 72, 50
12, 58140, Note_on_c, 4, 77, 50
12, 58230, Note_on_c, 4, 77, 0
12, 58230, Note_on_c, 4, 72, 0
12, 58260, Note_on_c, 4, 69, 50
12, 58260, Note_on_c, 4, 74, 50
12, 58335, Note_on_c, 4, 74, 0
12, 58335, Note_on_c, 4, 69, 0
12, 58380, Note_on_c, 4, 71, 50
12, 58380, Note_on_c, 4, 76, 50
12, 58560, Note_on_c, 4, 76, 0
12, 58560, Note_on_c, 4, 71, 0
12, 58560, Note_on_c, 4, 66, 50
12, 58560, Note_on_c, 4, 71, 50
12, 58740, Note_on_c, 4, 71, 0
12, 58740, Note_on_c, 4, 66, 0
12, 58740, Note_on_c, 4, 69, 50
12, 58740, Note_on_c, 4, 74, 50
12, 58920, Note_on_c, 4, 74, 0
12, 58920, Note_on_c, 4, 69, 0
12, 58980, Note_on_c, 4, 63, 50
12, 58980, Note_on_c, 4, 68, 50
12, 59060, Note_on_c, 4, 68, 0
12, 59060, Note_on_c, 4, 63, 0
12, 59100, Note_on_c, 4, 64, 50
12, 59100, Note_on_c, 4, 69, 50
12, 59160, Note_on_c, 4, 69, 0
12, 59160, Note_on_c, 4, 64, 0
12, 59160, Note_on_c, 4, 66, 50
12, 59160, Note_on_c, 4, 71, 50
12, 59280, Note_on_c, 4, 71, 0
12, 59280, Note_on_c, 4, 66, 0
12, 59340, Note_on_c, 4, 67, 50
12, 59340, Note_on_c, 4, 72, 50
12, 59420, Note_on_c, 4, 72, 0
12, 59420, Note_on_c, 4, 67, 0
12, 59460, Note_on_c, 4, 69, 50
12, 59460, Note_on_c, 4, 74, 50
12, 59520, Note_on_c, 4, 74, 0
12, 59520, Note_on_c, 4, 69, 0
12, 59520, Note_on_c, 4, 71, 50
12, 59520, Note_on_c, 4, 76, 50
12, 59640, Note_on_c, 4, 76, 0
12, 59640, Note_on_c, 4, 71, 0
12, 88920, Note_on_c, 4, 59, 75
12, 88920, Note_on_c, 4, 80, 75
12, 88920, Note_on_c, 4, 68, 75
12, 88980, Note_on_c, 4, 68, 0
12, 88980, Note_on_c, 4, 80, 0
12, 88980, Note_on_c, 4, 59, 0
12, 89040, Note_on_c, 4, 59, 75
12, 89040, Note_on_c, 4, 80, 75
12, 89040, Note_on_c, 4, 68, 75
12, 89160, Note_on_c, 4, 68, 0
12, 89160, Note_on_c, 4, 80, 0
12, 89160, Note_on_c, 4, 59, 0
12, 89160, Note_on_c, 4, 59, 75
12, 89160, Note_on_c, 4, 81, 75
12, 89160, Note_on_c, 4, 69, 75
12, 89220, Note_on_c, 4, 69, 0
12, 89220, Note_on_c, 4, 81, 0
12, 89220, Note_on_c, 4, 59, 0
12, 89220, Note_on_c, 4, 64, 75
12, 89220, Note_on_c, 4, 83, 75
12, 89220, Note_on_c, 4, 71, 75
12, 89580, Note_on_c, 4, 71, 0
12, 89580, Note_on_c, 4, 83, 0
12, 89580, Note_on_c, 4, 64, 0
12, 89580, Note_on_c, 4, 62, 75
12, 89580, Note_on_c, 4, 86, 75
12, 89580, Note_on_c, 4, 74, 75
12, 89700, Note_on_c, 4, 74, 0
12, 89700, Note_on_c, 4, 86, 0
12, 89700, Note_on_c, 4, 83, 75
12, 89700, Note_on_c, 4, 71, 75
12, 89760, Note_on_c, 4, 71, 0
12, 89760, Note_on_c, 4, 83, 0
12, 89760, Note_on_c, 4, 79, 75
12, 89760, Note_on_c, 4, 67, 75
12, 89880, Note_on_c, 4, 67, 0
12, 89880, Note_on_c, 4, 79, 0
12, 89880, Note_on_c, 4, 83, 75
12, 89880, Note_on_c, 4, 71, 75
12, 89940, Note_on_c, 4, 71, 0
12, 89940, Note_on_c, 4, 83, 0
12, 89940, Note_on_c, 4, 62, 0
12, 89940, Note_on_c, 4, 62, 75
12, 89940, Note_on_c, 4, 81, 75
12, 89940, Note_on_c, 4, 69, 75
12, 90060, Note_on_c, 4, 69, 0
12, 90060, Note_on_c, 4, 81, 0
12, 90060, Note_on_c, 4, 78, 75
12, 90060, Note_on_c, 4, 66, 75
12, 90120, Note_on_c, 4, 66, 0
12, 90120, Note_on_c, 4, 78, 0
12, 90120, Note_on_c, 4, 74, 75
12, 90120, Note_on_c, 4, 62, 75
12, 90300, Note_on_c, 4, 62, 0
12, 90300, Note_on_c, 4, 74, 0
12, 90300, Note_on_c, 4, 62, 0
12, 90360, Note_on_c, 4, 59, 75
12, 90360, Note_on_c, 4, 80, 75
12, 90360, Note_on_c, 4, 68, 75
12, 90420, Note_on_c, 4, 68, 0
12, 90420, Note_on_c, 4, 80, 0
12, 90420, Note_on_c, 4, 59, 0
12, 90480, Note_on_c, 4, 59, 75
12, 90480, Note_on_c, 4, 80, 75
12, 90480, Note_on_c, 4, 68, 75
12, 90600, Note_on_c, 4, 68, 0
12, 90600, Note_on_c, 4, 80, 0
12, 90600, Note_on_c, 4, 59, 0
12, 90600, Note_on_c, 4, 59, 75
12, 90600, Note_on_c, 4, 81, 75
12, 90600, Note_on_c, 4, 69, 75
12, 90660, Note_on_c, 4, 69, 0
12, 90660, Note_on_c, 4, 81, 0
12, 90660, Note_on_c, 4, 59, 0
12, 90660, Note_on_c, 4, 64, 75
12, 90660, Note_on_c, 4, 83, 75
12, 90660, Note_on_c, 4, 71, 75
12, 91020, Note_on_c, 4, 71, 0
12, 91020, Note_on_c, 4, 83, 0
12, 91020, Note_on_c, 4, 64, 0
12, 91020, Note_on_c, 4, 74, 75
12, 91020, Note_on_c, 4, 62, 75
12, 91020, Note_on_c, 4, 86, 75
12, 91140, Note_on_c, 4, 86, 0
12, 91140, Note_on_c, 4, 74, 0
12, 91140, Note_on_c, 4, 71, 75
12, 91140, Note_on_c, 4, 83, 75
12, 91200, Note_on_c, 4, 83, 0
12, 91200, Note_on_c, 4, 71, 0
12, 91200, Note_on_c, 4, 67, 75
12, 91200, Note_on_c, 4, 79, 75
12, 91260, Note_on_c, 4, 79, 0
12, 91260, Note_on_c, 4, 67, 0
12, 91260, Note_on_c, 4, 71, 75
12, 91260, Note_on_c, 4, 83, 75
12, 91320, Note_on_c, 4, 83, 0
12, 91320, Note_on_c, 4, 71, 0
12, 91320, Note_on_c, 4, 69, 75
12, 91320, Note_on_c, 4, 81, 75
12, 91380, Note_on_c, 4, 62, 0
12, 91500, Note_on_c, 4, 81, 0
12, 91500, Note_on_c, 4, 69, 0
12, 91680, Note_on_c, 4, 59, 75
12, 91680, Note_on_c, 4, 80, 75
12, 91680, Note_on_c, 4, 68, 75
12, 91740, Note_on_c, 4, 68, 0
12, 91740, Note_on_c, 4, 80, 0
12, 91740, Note_on_c, 4, 59, 0
12, 91800, Note_on_c, 4, 59, 75
12, 91800, Note_on_c, 4, 80, 75
12, 91800, Note_on_c, 4, 68, 75
12, 91920, Note_on_c, 4, 68, 0
12, 91920, Note_on_c, 4, 80, 0
12, 91920, Note_on_c, 4, 59, 0
12, 91920, Note_on_c, 4, 59, 75
12, 91920, Note_on_c, 4, 81, 75
12, 91920, Note_on_c, 4, 69, 75
12, 91980, Note_on_c, 4, 69, 0
12, 91980, Note_on_c, 4, 81, 0
12, 91980, Note_on_c, 4, 59, 0
12, 91980, Note_on_c, 4, 64, 75
12, 91980, Note_on_c, 4, 71, 75
12, 91980, Note_on_c, 4, 83, 75
12, 92280, Note_on_c, 4, 83, 0
12, 92280, Note_on_c, 4, 71, 0
12, 92280, Note_on_c, 4, 64, 0
12, 92280, Note_on_c, 4, 72, 75
12, 92280, Note_on_c, 4, 88, 75
12, 92340, Note_on_c, 4, 88, 0
12, 92340, Note_on_c, 4, 72, 0
12, 92340, Note_on_c, 4, 76, 75
12, 92340, Note_on_c, 4, 79, 75
12, 92460, Note_on_c, 4, 79, 0
12, 92460, Note_on_c, 4, 78, 75
12, 92520, Note_on_c, 4, 78, 0
12, 92520, Note_on_c, 4, 76, 75
12, 92640, Note_on_c, 4, 76, 0
12, 92640, Note_on_c, 4, 78, 75
12, 92700, Note_on_c, 4, 78, 0
12, 92700, Note_on_c, 4, 76, 0
12, 92700, Note_on_c, 4, 69, 75
12, 92700, Note_on_c, 4, 78, 75
12, 92700, Note_on_c, 4, 74, 75
12, 93060, Note_on_c, 4, 74, 0
12, 93060, Note_on_c, 4, 78, 0
12, 93060, Note_on_c, 4, 69, 0
12, 93060, Note_on_c, 4, 69, 75
12, 93060, Note_on_c, 4, 84, 75
12, 93180, Note_on_c, 4, 84, 0
12, 93180, Note_on_c, 4, 83, 75
12, 93240, Note_on_c, 4, 83, 0
12, 93240, Note_on_c, 4, 81, 75
12, 93300, Note_on_c, 4, 81, 0
12, 93300, Note_on_c, 4, 69, 0
12, 93300, Note_on_c, 4, 83, 75
12, 93360, Note_on_c, 4, 83, 0
12, 93360, Note_on_c, 4, 76, 75
12, 93360, Note_on_c, 4, 67, 75
12, 93360, Note_on_c, 4, 79, 75
12, 93600, Note_on_c, 4, 67, 0
12, 93720, Note_on_c, 4, 76, 0
12, 93780, Note_on_c, 4, 79, 0
12, 93840, Note_on_c, 4, 64, 55
12, 93840, Note_on_c, 4, 73, 55
12, 93840, Note_on_c, 4, 61, 55
12, 93960, Note_on_c, 4, 61, 0
12, 93960, Note_on_c, 4, 73, 0
12, 93960, Note_on_c, 4, 64, 0
12, 93960, Note_on_c, 4, 64, 55
12, 93960, Note_on_c, 4, 74, 55
12, 93960, Note_on_c, 4, 62, 55
12, 94080, Note_on_c, 4, 62, 0
12, 94080, Note_on_c, 4, 74, 0
12, 94080, Note_on_c, 4, 64, 0
12, 94080, Note_on_c, 4, 69, 55
12, 94080, Note_on_c, 4, 76, 55
12, 94080, Note_on_c, 4, 64, 55
12, 94150, Note_on_c, 4, 64, 0
12, 94150, Note_on_c, 4, 76, 0
12, 94150, Note_on_c, 4, 69, 0
12, 94200, Note_on_c, 4, 69, 55
12, 94200, Note_on_c, 4, 64, 55
12, 94200, Note_on_c, 4, 76, 55
12, 94380, Note_on_c, 4, 76, 0
12, 94380, Note_on_c, 4, 64, 0
12, 94380, Note_on_c, 4, 69, 0
12, 94380, Note_on_c, 4, 69, 55
12, 94380, Note_on_c, 4, 73, 55
12, 94380, Note_on_c, 4, 76, 55
12, 94380, Note_on_c, 4, 64, 55
12, 94500, Note_on_c, 4, 64, 0
12, 94500, Note_on_c, 4, 69, 0
12, 94500, Note_on_c, 4, 73, 0
12, 94500, Note_on_c, 4, 76, 0
12, 94560, Note_on_c, 4, 67, 55
12, 94560, Note_on_c, 4, 60, 55
12, 94560, Note_on_c, 4, 72, 55
12, 94680, Note_on_c, 4, 72, 0
12, 94680, Note_on_c, 4, 60, 0
12, 94680, Note_on_c, 4, 67, 0
12, 94680, Note_on_c, 4, 67, 55
12, 94680, Note_on_c, 4, 62, 55
12, 94680, Note_on_c, 4, 74, 55
12, 94800, Note_on_c, 4, 74, 0
12, 94800, Note_on_c, 4, 62, 0
12, 94800, Note_on_c, 4, 67, 0
12, 94800, Note_on_c, 4, 72, 55
12, 94800, Note_on_c, 4, 64, 55
12, 94800, Note_on_c, 4, 76, 55
12, 94870, Note_on_c, 4, 76, 0
12, 94870, Note_on_c, 4, 64, 0
12, 94870, Note_on_c, 4, 72, 0
12, 94920, Note_on_c, 4, 69, 55
12, 94920, Note_on_c, 4, 62, 55
12, 94920, Note_on_c, 4, 74, 55
12, 95100, Note_on_c, 4, 74, 0
12, 95100, Note_on_c, 4, 62, 0
12, 95100, Note_on_c, 4, 69, 0
12, 95100, Note_on_c, 4, 69, 55
12, 95100, Note_on_c, 4, 62, 55
12, 95100, Note_on_c, 4, 74, 55
12, 95220, Note_on_c, 4, 74, 0
12, 95220, Note_on_c, 4, 62, 0
12, 95220, Note_on_c, 4, 69, 0
12, 95280, Note_on_c, 4, 64, 55
12, 95280, Note_on_c, 4, 73, 55
12, 95280, Note_on_c, 4, 61, 55
12, 95400, Note_on_c, 4, 61, 0
12, 95400, Note_on_c, 4, 73, 0
12, 95400, Note_on_c, 4, 64, 0
12, 95400, Note_on_c, 4, 64, 55
12, 95400, Note_on_c, 4, 74, 55
12, 95400, Note_on_c, 4, 62, 55
12, 95520, Note_on_c, 4, 62, 0
12, 95520, Note_on_c, 4, 74, 0
12, 95520, Note_on_c, 4, 64, 0
12, 95520, Note_on_c, 4, 69, 55
12, 95520, Note_on_c, 4, 76, 55
12, 95520, Note_on_c, 4, 64, 55
12, 95590, Note_on_c, 4, 64, 0
12, 95590, Note_on_c, 4, 76, 0
12, 95590, Note_on_c, 4, 69, 0
12, 95640, Note_on_c, 4, 69, 55
12, 95640, Note_on_c, 4, 64, 55
12, 95640, Note_on_c, 4, 76, 55
12, 95820, Note_on_c, 4, 76, 0
12, 95820, Note_on_c, 4, 64, 0
12, 95820, Note_on_c, 4, 69, 0
12, 95820, Note_on_c, 4, 69, 55
12, 95820, Note_on_c, 4, 73, 55
12, 95820, Note_on_c, 4, 76, 55
12, 95820, Note_on_c, 4, 64, 55
12, 95940, Note_on_c, 4, 64, 0
12, 95940, Note_on_c, 4, 69, 0
12, 95940, Note_on_c, 4, 73, 0
12, 95940, Note_on_c, 4, 76, 0
12, 96600, Note_on_c, 4, 64, 55
12, 96600, Note_on_c, 4, 73, 55
12, 96600, Note_on_c, 4, 61, 55
12, 96720, Note_on_c, 4, 61, 0
12, 96720, Note_on_c, 4, 73, 0
12, 96720, Note_on_c, 4, 64, 0
12, 96720, Note_on_c, 4, 64, 55
12, 96720, Note_on_c, 4, 74, 55
12, 96720, Note_on_c, 4, 62, 55
12, 96840, Note_on_c, 4, 62, 0
12, 96840, Note_on_c, 4, 74, 0
12, 96840, Note_on_c, 4, 64, 0
12, 96840, Note_on_c, 4, 69, 55
12, 96840, Note_on_c, 4, 76, 55
12, 96840, Note_on_c, 4, 64, 55
12, 96910, Note_on_c, 4, 64, 0
12, 96910, Note_on_c, 4, 76, 0
12, 96910, Note_on_c, 4, 69, 0
12, 96960, Note_on_c, 4, 69, 55
12, 96960, Note_on_c, 4, 64, 55
12, 96960, Note_on_c, 4, 76, 55
12, 97140, Note_on_c, 4, 76, 0
12, 97140, Note_on_c, 4, 64, 0
12, 97140, Note_on_c, 4, 69, 0
12, 97140, Note_on_c, 4, 69, 55
12, 97140, Note_on_c, 4, 73, 55
12, 97140, Note_on_c, 4, 76, 55
12, 97140, Note_on_c, 4, 64, 55
12, 97260, Note_on_c, 4, 64, 0
12, 97260, Note_on_c, 4, 69, 0
12, 97260, Note_on_c, 4, 73, 0
12, 97260, Note_on_c, 4, 76, 0
12, 97320, Note_on_c, 4, 67, 55
12, 97320, Note_on_c, 4, 60, 55
12, 97320, Note_on_c, 4, 72, 55
12, 97440, Note_on_c, 4, 72, 0
12, 97440, Note_on_c, 4, 60, 0
12, 97440, Note_on_c, 4, 67, 0
12, 97440, Note_on_c, 4, 67, 55
12, 97440, Note_on_c, 4, 62, 55
12, 97440, Note_on_c, 4, 74, 55
12, 97560, Note_on_c, 4, 74, 0
12, 97560, Note_on_c, 4, 62, 0
12, 97560, Note_on_c, 4, 67, 0
12, 97560, Note_on_c, 4, 72, 55
12, 97560, Note_on_c, 4, 64, 55
12, 97560, Note_on_c, 4, 76, 55
12, 97630, Note_on_c, 4, 76, 0
12, 97630, Note_on_c, 4, 64, 0
12, 97630, Note_on_c, 4, 72, 0
12, 97680, Note_on_c, 4, 69, 55
12, 97680, Note_on_c, 4, 62, 55
12, 97680, Note_on_c, 4, 74, 55
12, 97860, Note_on_c, 4, 74, 0
12, 97860, Note_on_c, 4, 62, 0
12, 97860, Note_on_c, 4, 69, 0
12, 97860, Note_on_c, 4, 69, 55
12, 97860, Note_on_c, 4, 62, 55
12, 97860, Note_on_c, 4, 74, 55
12, 97980, Note_on_c, 4, 74, 0
12, 97980, Note_on_c, 4, 62, 0
12, 97980, Note_on_c, 4, 69, 0
12, 98040, Note_on_c, 4, 69, 55
12, 98040, Note_on_c, 4, 65, 55
12, 98160, Note_on_c, 4, 65, 0
12, 98160, Note_on_c, 4, 69, 0
12, 98160, Note_on_c, 4, 69, 55
12, 98160, Note_on_c, 4, 65, 55
12, 98280, Note_on_c, 4, 65, 0
12, 98280, Note_on_c, 4, 69, 0
12, 98280, Note_on_c, 4, 62, 55
12, 98280, Note_on_c, 4, 71, 55
12, 98280, Note_on_c, 4, 67, 55
12, 98340, Note_on_c, 4, 67, 0
12, 98340, Note_on_c, 4, 71, 0
12, 98340, Note_on_c, 4, 62, 0
12, 98400, Note_on_c, 4, 60, 55
12, 98400, Note_on_c, 4, 65, 55
12, 98400, Note_on_c, 4, 69, 55
12, 98580, Note_on_c, 4, 69, 0
12, 98580, Note_on_c, 4, 65, 0
12, 98580, Note_on_c, 4, 60, 0
12, 98580, Note_on_c, 4, 67, 55
12, 98580, Note_on_c, 4, 74, 55
12, 98580, Note_on_c, 4, 71, 55
12, 98640, Note_on_c, 4, 67, 0
12, 98700, Note_on_c, 4, 71, 0
12, 98700, Note_on_c, 4, 74, 0
12, 98700, Note_on_c, 4, 67, 55
12, 98700, Note_on_c, 4, 64, 55
12, 98700, Note_on_c, 4, 60, 55
12, 98700, Note_on_c, 4, 72, 55
12, 98939, Note_on_c, 4, 72, 0
12, 98939, Note_on_c, 4, 67, 0
12, 98939, Note_on_c, 4, 64, 0
12, 98939, Note_on_c, 4, 60, 0
12, 98940, Note_on_c, 4, 67, 55
12, 98940, Note_on_c, 4, 72, 55
12, 98940, Note_on_c, 4, 64, 55
12, 98940, Note_on_c, 4, 76, 55
12, 99179, Note_on_c, 4, 76, 0
12, 99179, Note_on_c, 4, 67, 0
12, 99179, Note_on_c, 4, 72, 0
12, 99179, Note_on_c, 4, 64, 0
12, 99180, Note_on_c, 4, 69, 55
12, 99180, Note_on_c, 4, 62, 55
12, 99180, Note_on_c, 4, 74, 55
12, 99780, Note_on_c, 4, 74, 0
12, 99780, Note_on_c, 4, 62, 0
12, 99780, Note_on_c, 4, 69, 0
12, 106920, Note_on_c, 4, 79, 100
12, 106980, Note_on_c, 4, 79, 0
12, 106980, Note_on_c, 4, 78, 100
12, 107040, Note_on_c, 4, 78, 0
12, 107040, Note_on_c, 4, 81, 100
12, 107100, Note_on_c, 4, 81, 0
12, 107100, Note_on_c, 4, 79, 100
12, 107160, Note_on_c, 4, 79, 0
12, 107160, Note_on_c, 4, 74, 100
12, 107220, Note_on_c, 4, 74, 0
12, 107220, Note_on_c, 4, 72, 100
12, 107250, Note_on_c, 4, 72, 0
12, 107250, Note_on_c, 4, 74, 100
12, 107280, Note_on_c, 4, 74, 0
12, 107280, Note_on_c, 4, 76, 100
12, 107340, Note_on_c, 4, 76, 0
12, 107340, Note_on_c, 4, 74, 100
12, 107400, Note_on_c, 4, 74, 0
12, 107400, Note_on_c, 4, 69, 100
12, 107460, Note_on_c, 4, 69, 0
12, 107460, Note_on_c, 4, 67, 100
12, 107520, Note_on_c, 4, 74, 100
12, 107580, Note_on_c, 4, 74, 0
12, 107580, Note_on_c, 4, 67, 0
12, 107640, Note_on_c, 4, 72, 100
12, 107700, Note_on_c, 4, 72, 0
12, 107700, Note_on_c, 4, 71, 100
12, 107760, Note_on_c, 4, 71, 0
12, 107760, Note_on_c, 4, 72, 100
12, 107820, Note_on_c, 4, 72, 0
12, 107820, Note_on_c, 4, 71, 100
12, 107880, Note_on_c, 4, 71, 0
12, 107880, Note_on_c, 4, 67, 100
12, 107940, Note_on_c, 4, 67, 0
12, 107940, Note_on_c, 4, 62, 100
12, 108000, Note_on_c, 4, 62, 0
12, 108000, Note_on_c, 4, 67, 100
12, 108060, Note_on_c, 4, 67, 0
12, 108060, Note_on_c, 4, 69, 100
12, 108180, Note_on_c, 4, 69, 0
12, 108180, Note_on_c, 4, 67, 100
12, 108300, Note_on_c, 4, 67, 0
12, 108360, Note_on_c, 4, 69, 100
12, 108390, Note_on_c, 4, 69, 0
12, 108390, Note_on_c, 4, 67, 100
12, 108420, Note_on_c, 4, 67, 0
12, 108420, Note_on_c, 4, 69, 100
12, 108450, Note_on_c, 4, 69, 0
12, 108450, Note_on_c, 4, 67, 100
12, 108480, Note_on_c, 4, 67, 0
12, 108480, Note_on_c, 4, 64, 100
12, 108510, Note_on_c, 4, 64, 0
12, 108510, Note_on_c, 4, 62, 100
12, 108540, Note_on_c, 4, 62, 0
12, 108540, Note_on_c, 4, 67, 100
12, 108570, Note_on_c, 4, 67, 0
12, 108570, Note_on_c, 4, 64, 100
12, 108600, Note_on_c, 4, 64, 0
12, 108600, Note_on_c, 4, 62, 100
12, 108630, Note_on_c, 4, 62, 0
12, 108630, Note_on_c, 4, 59, 100
12, 108660, Note_on_c, 4, 59, 0
12, 108660, Note_on_c, 4, 57, 100
12, 108690, Note_on_c, 4, 57, 0
12, 108720, Note_on_c, 4, 59, 100
12, 108750, Note_on_c, 4, 59, 0
12, 108780, Note_on_c, 4, 55, 100
12, 108900, Note_on_c, 4, 55, 0
12, 109020, Note_on_c, 4, 55, 100
12, 109050, Note_on_c, 4, 55, 0
12, 109050, Note_on_c, 4, 62, 100
12, 109080, Note_on_c, 4, 62, 0
12, 109080, Note_on_c, 4, 67, 100
12, 109110, Note_on_c, 4, 67, 0
12, 109110, Note_on_c, 4, 69, 100
12, 109140, Note_on_c, 4, 69, 0
12, 109140, Note_on_c, 4, 74, 100
12, 109170, Note_on_c, 4, 74, 0
12, 109170, Note_on_c, 4, 69, 100
12, 109200, Note_on_c, 4, 69, 0
12, 109200, Note_on_c, 4, 67, 100
12, 109230, Note_on_c, 4, 67, 0
12, 109230, Note_on_c, 4, 62, 100
12, 109260, Note_on_c, 4, 62, 0
12, 109260, Note_on_c, 4, 57, 100
12, 109290, Note_on_c, 4, 57, 0
12, 109290, Note_on_c, 4, 55, 100
12, 109320, Note_on_c, 4, 55, 0
12, 109320, Note_on_c, 4, 45, 100
12, 109350, Note_on_c, 4, 45, 0
12, 109350, Note_on_c, 4, 43, 100
12, 109380, Note_on_c, 4, 43, 0
12, 109380, Note_on_c, 4, 67, 100
12, 109410, Note_on_c, 4, 67, 0
12, 109410, Note_on_c, 4, 69, 100
12, 109440, Note_on_c, 4, 69, 0
12, 109440, Note_on_c, 4, 74, 100
12, 109470, Note_on_c, 4, 74, 0
12, 109470, Note_on_c, 4, 79, 100
12, 109500, Note_on_c, 4, 79, 0
12, 109500, Note_on_c, 4, 76, 100
12, 109680, Note_on_c, 4, 76, 0
12, 109680, Note_on_c, 4, 74, 100
12, 109800, Note_on_c, 4, 74, 0
12, 109800, Note_on_c, 4, 76, 100
12, 109830, Note_on_c, 4, 76, 0
12, 109830, Note_on_c, 4, 74, 100
12, 109860, Note_on_c, 4, 74, 0
12, 109860, Note_on_c, 4, 76, 100
12, 109890, Note_on_c, 4, 76, 0
12, 109890, Note_on_c, 4, 74, 100
12, 109920, Note_on_c, 4, 74, 0
12, 109920, Note_on_c, 4, 72, 100
12, 109950, Note_on_c, 4, 72, 0
12, 109950, Note_on_c, 4, 71, 100
12, 109980, Note_on_c, 4, 71, 0
12, 109980, Note_on_c, 4, 74, 100
12, 110010, Note_on_c, 4, 74, 0
12, 110010, Note_on_c, 4, 72, 100
12, 110040, Note_on_c, 4, 72, 0
12, 110040, Note_on_c, 4, 71, 100
12, 110070, Note_on_c, 4, 71, 0
12, 110070, Note_on_c, 4, 69, 100
12, 110100, Note_on_c, 4, 69, 0
12, 110100, Note_on_c, 4, 72, 100
12, 110130, Note_on_c, 4, 72, 0
12, 110130, Note_on_c, 4, 71, 100
12, 110160, Note_on_c, 4, 71, 0
12, 110160, Note_on_c, 4, 69, 100
12, 110190, Note_on_c, 4, 69, 0
12, 110190, Note_on_c, 4, 67, 100
12, 110220, Note_on_c, 4, 67, 0
12, 110220, Note_on_c, 4, 71, 100
12, 110250, Note_on_c, 4, 71, 0
12, 110250, Note_on_c, 4, 69, 100
12, 110280, Note_on_c, 4, 69, 0
12, 110280, Note_on_c, 4, 67, 100
12, 110310, Note_on_c, 4, 67, 0
12, 110310, Note_on_c, 4, 64, 100
12, 110340, Note_on_c, 4, 64, 0
12, 110460, Note_on_c, 4, 74, 100
12, 110460, Note_on_c, 4, 79, 100
12, 110520, Note_on_c, 4, 79, 0
12, 110520, Note_on_c, 4, 74, 0
12, 110580, Note_on_c, 4, 74, 100
12, 110580, Note_on_c, 4, 79, 100
12, 110700, Note_on_c, 4, 79, 0
12, 110700, Note_on_c, 4, 74, 0
12, 110700, Note_on_c, 4, 74, 100
12, 110700, Note_on_c, 4, 69, 100
12, 110760, Note_on_c, 4, 69, 0
12, 110760, Note_on_c, 4, 74, 0
12, 110820, Note_on_c, 4, 74, 100
12, 110820, Note_on_c, 4, 69, 100
12, 110940, Note_on_c, 4, 69, 0
12, 110940, Note_on_c, 4, 74, 0
12, 110940, Note_on_c, 4, 69, 100
12, 111000, Note_on_c, 4, 69, 0
12, 111060, Note_on_c, 4, 69, 100
12, 111180, Note_on_c, 4, 69, 0
12, 111240, Note_on_c, 4, 79, 100
12, 111300, Note_on_c, 4, 79, 0
12, 111300, Note_on_c, 4, 78, 100
12, 111360, Note_on_c, 4, 78, 0
12, 111360, Note_on_c, 4, 81, 100
12, 111420, Note_on_c, 4, 81, 0
12, 111420, Note_on_c, 4, 79, 100
12, 111480, Note_on_c, 4, 79, 0
12, 111480, Note_on_c, 4, 74, 100
12, 111540, Note_on_c, 4, 74, 0
12, 111540, Note_on_c, 4, 74, 100
12, 111600, Note_on_c, 4, 74, 0
12, 111600, Note_on_c, 4, 72, 100
12, 111630, Note_on_c, 4, 72, 0
12, 111630, Note_on_c, 4, 74, 100
12, 111660, Note_on_c, 4, 74, 0
12, 111660, Note_on_c, 4, 76, 100
12, 111720, Note_on_c, 4, 76, 0
12, 111720, Note_on_c, 4, 74, 100
12, 111780, Note_on_c, 4, 74, 0
12, 111840, Note_on_c, 4, 67, 100
12, 111870, Note_on_c, 4, 67, 0
12, 111870, Note_on_c, 4, 69, 100
12, 111900, Note_on_c, 4, 69, 0
12, 111900, Note_on_c, 4, 71, 100
12, 111930, Note_on_c, 4, 71, 0
12, 111930, Note_on_c, 4, 74, 100
12, 111960, Note_on_c, 4, 74, 0
12, 111960, Note_on_c, 4, 79, 100
12, 111990, Note_on_c, 4, 79, 0
12, 111990, Note_on_c, 4, 83, 100
12, 112020, Note_on_c, 4, 83, 0
12, 112020, Note_on_c, 4, 79, 100
12, 112020, Note_on_c, 4, 84, 100
12, 112260, Note_on_c, 4, 84, 0
12, 112260, Note_on_c, 4, 79, 0
12, 112260, Note_on_c, 4, 79, 100
12, 112260, Note_on_c, 4, 84, 100
12, 112380, Note_on_c, 4, 84, 0
12, 112380, Note_on_c, 4, 79, 0
12, 112470, Note_on_c, 4, 60, 100
12, 112500, Note_on_c, 4, 60, 0
12, 112530, Note_on_c, 4, 67, 100
12, 112560, Note_on_c, 4, 67, 0
12, 112590, Note_on_c, 4, 62, 100
12, 112620, Note_on_c, 4, 62, 0
12, 112620, Note_on_c, 4, 64, 100
12, 112680, Note_on_c, 4, 64, 0
12, 112800, Note_on_c, 4, 64, 100
12, 112860, Note_on_c, 4, 64, 0
12, 112860, Control_c, 4, 64, 127
12, 112860, Note_on_c, 4, 60, 80
12, 112860, Note_on_c, 4, 64, 80
12, 112860, Note_on_c, 4, 67, 80
12, 113040, Note_on_c, 4, 67, 0
12, 113040, Note_on_c, 4, 64, 0
12, 113040, Note_on_c, 4, 60, 0
12, 113040, Note_on_c, 4, 60, 80
12, 113040, Note_on_c, 4, 64, 80
12, 113100, Note_on_c, 4, 64, 0
12, 113100, Note_on_c, 4, 60, 0
12, 113100, Control_c, 4, 64, 0
12, 113100, Note_on_c, 4, 60, 80
12, 113100, Note_on_c, 4, 64, 80
12, 113160, Note_on_c, 4, 64, 0
12, 113160, Note_on_c, 4, 60, 0
12, 113160, Note_on_c, 4, 67, 80
12, 113160, Note_on_c, 4, 76, 80
12, 113220, Note_on_c, 4, 76, 0
12, 113220, Note_on_c, 4, 67, 0
12, 113220, Note_on_c, 4, 62, 80
12, 113220, Control_c, 4, 64, 127
12, 113220, Note_on_c, 4, 66, 80
12, 113220, Note_on_c, 4, 74, 80
12, 113460, Note_on_c, 4, 74, 0
12, 113460, Note_on_c, 4, 66, 0
12, 113460, Note_on_c, 4, 62, 0
12, 113520, Control_c, 4, 64, 0
12, 113520, Note_on_c, 4, 64, 80
12, 113520, Note_on_c, 4, 67, 80
12, 113700, Note_on_c, 4, 67, 0
12, 113700, Note_on_c, 4, 64, 0
12, 113700, Note_on_c, 4, 69, 80
12, 113700, Note_on_c, 4, 66, 80
12, 113820, Note_on_c, 4, 66, 0
12, 113820, Note_on_c, 4, 69, 0
12, 121500, Control_c, 4, 64, 127
12, 121500, Note_on_c, 4, 68, 75
12, 121500, Note_on_c, 4, 71, 75
12, 121500, Note_on_c, 4, 64, 75
12, 121920, Control_c, 4, 64, 0
12, 121980, Note_on_c, 4, 64, 0
12, 121980, Note_on_c, 4, 71, 0
12, 121980, Note_on_c, 4, 68, 0
12, 121980, Control_c, 4, 64, 127
12, 121980, Note_on_c, 4, 66, 75
12, 121980, Note_on_c, 4, 62, 75
12, 121980, Note_on_c, 4, 59, 75
12, 122400, Control_c, 4, 64, 0
12, 122460, Note_on_c, 4, 59, 0
12, 122460, Note_on_c, 4, 62, 0
12, 122460, Note_on_c, 4, 66, 0
12, 122460, Control_c, 4, 64, 127
12, 122460, Note_on_c, 4, 68, 75
12, 122460, Note_on_c, 4, 71, 75
12, 122460, Note_on_c, 4, 64, 75
12, 122880, Control_c, 4, 64, 0
12, 122940, Note_on_c, 4, 64, 0
12, 122940, Note_on_c, 4, 71, 0
12, 122940, Note_on_c, 4, 68, 0
12, 122940, Control_c, 4, 64, 127
12, 122940, Note_on_c, 4, 60, 75
12, 122940, Note_on_c, 4, 64, 75
12, 122940, Note_on_c, 4, 67, 75
12, 123360, Control_c, 4, 64, 0
12, 123420, Note_on_c, 4, 67, 0
12, 123420, Note_on_c, 4, 64, 0
12, 123420, Note_on_c, 4, 60, 0
12, 123420, Control_c, 4, 64, 127
12, 123420, Note_on_c, 4, 62, 75
12, 123420, Note_on_c, 4, 59, 75
12, 123420, Note_on_c, 4, 55, 75
12, 123840, Control_c, 4, 64, 0
12, 123900, Note_on_c, 4, 55, 0
12, 123900, Note_on_c, 4, 59, 0
12, 123900, Note_on_c, 4, 62, 0
12, 123900, Control_c, 4, 64, 127
12, 123900, Note_on_c, 4, 65, 75
12, 123900, Note_on_c, 4, 62, 75
12, 123900, Note_on_c, 4, 58, 75
12, 124320, Control_c, 4, 64, 0
12, 124380, Note_on_c, 4, 58, 0
12, 124380, Note_on_c, 4, 62, 0
12, 124380, Note_on_c, 4, 65, 0
12, 124380, Control_c, 4, 64, 127
12, 124380, Note_on_c, 4, 57, 75
12, 124380, Note_on_c, 4, 65, 75
12, 124380, Note_on_c, 4, 60, 75
12, 124740, Note_on_c, 4, 60, 0
12, 124740, Note_on_c, 4, 65, 0
12, 124740, Note_on_c, 4, 57, 0
12, 124740, Note_on_c, 4, 55, 75
12, 124740, Note_on_c, 4, 67, 75
12, 124740, Note_on_c, 4, 64, 75
12, 124800, Control_c, 4, 64, 0
12, 124860, Note_on_c, 4, 64, 0
12, 124860, Note_on_c, 4, 67, 0
12, 124860, Note_on_c, 4, 55, 0
12, 124860, Control_c, 4, 64, 127
12, 124860, Note_on_c, 4, 57, 75
12, 124860, Note_on_c, 4, 66, 75
12, 124860, Note_on_c, 4, 62, 75
12, 125250, Control_c, 4, 64, 0
12, 125340, Note_on_c, 4, 62, 0
12, 125340, Note_on_c, 4, 66, 0
12, 125340, Note_on_c, 4, 57, 0
12, 129840, Note_on_c, 4, 59, 80
12, 129840, Note_on_c, 4, 64, 80
12, 129840, Note_on_c, 4, 68, 80
12, 130560, Note_on_c, 4, 68, 0
12, 130560, Note_on_c, 4, 64, 0
12, 130560, Note_on_c, 4, 59, 0
12, 130560, Note_on_c, 4, 67, 80
12, 130560, Note_on_c, 4, 64, 80
12, 130560, Note_on_c, 4, 60, 80
12, 131280, Note_on_c, 4, 60, 0
12, 131280, Note_on_c, 4, 64, 0
12, 131280, Note_on_c, 4, 67, 0
12, 131280, Note_on_c, 4, 66, 80
12, 131280, Note_on_c, 4, 69, 80
12, 131280, Note_on_c, 4, 62, 80
12, 132000, Note_on_c, 4, 62, 0
12, 132000, Note_on_c, 4, 69, 0
12, 132000, Note_on_c, 4, 66, 0
12, 132000, Note_on_c, 4, 64, 80
12, 132000, Note_on_c, 4, 69, 80
12, 132000, Note_on_c, 4, 61, 80
12, 132720, Note_on_c, 4, 61, 0
12, 132720, Note_on_c, 4, 69, 0
12, 132720, Note_on_c, 4, 64, 0
12, 132720, Note_on_c, 4, 59, 80
12, 132720, Note_on_c, 4, 64, 80
12, 132720, Note_on_c, 4, 68, 80
12, 133440, Note_on_c, 4, 68, 0
12, 133440, Note_on_c, 4, 64, 0
12, 133440, Note_on_c, 4, 59, 0
12, 133440, Note_on_c, 4, 67, 80
12, 133440, Note_on_c, 4, 64, 80
12, 133440, Note_on_c, 4, 60, 80
12, 134160, Note_on_c, 4, 60, 0
12, 134160, Note_on_c, 4, 64, 0
12, 134160, Note_on_c, 4, 67, 0
12, 134160, Note_on_c, 4, 66, 80
12, 134160, Note_on_c, 4, 69, 80
12, 134160, Note_on_c, 4, 62, 80
12, 134880, Note_on_c, 4, 62, 0
12, 134880, Note_on_c, 4, 69, 0
12, 134880, Note_on_c, 4, 66, 0
12, 134880, Note_on_c, 4, 64, 80
12, 134880, Note_on_c, 4, 69, 80
12, 134880, Note_on_c, 4, 61, 80
12, 135600, Note_on_c, 4, 61, 0
12, 135600, Note_on_c, 4, 69, 0
12, 135600, Note_on_c, 4, 64, 0
12, 135600, Note_on_c, 4, 59, 80
12, 135600, Note_on_c, 4, 64, 80
12, 135600, Note_on_c, 4, 68, 80
12, 136320, Note_on_c, 4, 68, 0
12, 136320, Note_on_c, 4, 64, 0
12, 136320, Note_on_c, 4, 59, 0
12, 136320, Note_on_c, 4, 67, 80
12, 136320, Note_on_c, 4, 64, 80
12, 136320, Note_on_c, 4, 60, 80
12, 137040, Note_on_c, 4, 60, 0
12, 137040, Note_on_c, 4, 64, 0
12, 137040, Note_on_c, 4, 67, 0
12, 137040, Note_on_c, 4, 66, 80
12, 137040, Note_on_c, 4, 69, 80
12, 137040, Note_on_c, 4, 62, 80
12, 137760, Note_on_c, 4, 62, 0
12, 137760, Note_on_c, 4, 69, 0
12, 137760, Note_on_c, 4, 66, 0
12, 137760, Note_on_c, 4, 64, 80
12, 137760, Note_on_c, 4, 69, 80
12, 137760, Note_on_c, 4, 61, 80
12, 138480, Note_on_c, 4, 61, 0
12, 138480, Note_on_c, 4, 69, 0
12, 138480, Note_on_c, 4, 64, 0
12, 138480, Note_on_c, 4, 59, 80
12, 138480, Note_on_c, 4, 64, 80
12, 138480, Note_on_c, 4, 68, 80
12, 139200, Note_on_c, 4, 68, 0
12, 139200, Note_on_c, 4, 64, 0
12, 139200, Note_on_c, 4, 59, 0
12, 139200, Note_on_c, 4, 67, 80
12, 139200, Note_on_c, 4, 64, 80
12, 139200, Note_on_c, 4, 60, 80
12, 139920, Note_on_c, 4, 60, 0
12, 139920, Note_on_c, 4, 64, 0
12, 139920, Note_on_c, 4, 67, 0
12, 139920, Note_on_c, 4, 66, 80
12, 139920, Note_on_c, 4, 69, 80
12, 139920, Note_on_c, 4, 62, 80
12, 140640, Note_on_c, 4, 62, 0
12, 140640, Note_on_c, 4, 69, 0
12, 140640, Note_on_c, 4, 66, 0
12, 140640, Note_on_c, 4, 64, 80
12, 140640, Note_on_c, 4, 69, 80
12, 140640, Note_on_c, 4, 61, 80
12, 141360, Note_on_c, 4, 61, 0
12, 141360, Note_on_c, 4, 69, 0
12, 141360, Note_on_c, 4, 64, 0
12, 141360, Note_on_c, 4, 69, 80
12, 141360, Note_on_c, 4, 66, 80
12, 141360, Note_on_c, 4, 62, 80
12, 141480, Note_on_c, 4, 62, 0
12, 141480, Note_on_c, 4, 66, 0
12, 141480, Note_on_c, 4, 69, 0
12, 141480, Note_on_c, 4, 71, 80
12, 141480, Note_on_c, 4, 59, 80
12, 141480, Note_on_c, 4, 64, 80
12, 141480, Note_on_c, 4, 68, 80
12, 142200, Note_on_c, 4, 68, 0
12, 142200, Note_on_c, 4, 71, 0
12, 142200, Note_on_c, 4, 59, 0
12, 142200, Note_on_c, 4, 64, 0
12, 142200, Note_on_c, 4, 72, 80
12, 142200, Note_on_c, 4, 67, 80
12, 142200, Note_on_c, 4, 64, 80
12, 142200, Note_on_c, 4, 60, 80
12, 142920, Note_on_c, 4, 60, 0
12, 142920, Note_on_c, 4, 72, 0
12, 142920, Note_on_c, 4, 67, 0
12, 142920, Note_on_c, 4, 64, 0
12, 142920, Note_on_c, 4, 74, 80
12, 142920, Note_on_c, 4, 66, 80
12, 142920, Note_on_c, 4, 69, 80
12, 142920, Note_on_c, 4, 62, 80
12, 143640, Note_on_c, 4, 62, 0
12, 143640, Note_on_c, 4, 74, 0
12, 143640, Note_on_c, 4, 66, 0
12, 143640, Note_on_c, 4, 69, 0
12, 143640, Note_on_c, 4, 73, 80
12, 143640, Note_on_c, 4, 64, 80
12, 143640, Note_on_c, 4, 69, 80
12, 143640, Note_on_c, 4, 61, 80
12, 144360, Note_on_c, 4, 61, 0
12, 144360, Note_on_c, 4, 73, 0
12, 144360, Note_on_c, 4, 64, 0
12, 144360, Note_on_c, 4, 69, 0
12, 144360, Note_on_c, 4, 71, 80
12, 144360, Note_on_c, 4, 59, 80
12, 144360, Note_on_c, 4, 64, 80
12, 144360, Note_on_c, 4, 68, 80
12, 145080, Note_on_c, 4, 68, 0
12, 145080, Note_on_c, 4, 71, 0
12, 145080, Note_on_c, 4, 59, 0
12, 145080, Note_on_c, 4, 64, 0
12, 145080, Note_on_c, 4, 72, 80
12, 145080, Note_on_c, 4, 67, 80
12, 145080, Note_on_c, 4, 64, 80
12, 145080, Note_on_c, 4, 60, 80
12, 145800, Note_on_c, 4, 60, 0
12, 145800, Note_on_c, 4, 72, 0
12, 145800, Note_on_c, 4, 67, 0
12, 145800, Note_on_c, 4, 64, 0
12, 145800, Note_on_c, 4, 74, 80
12, 145800, Note_on_c, 4, 66, 80
12, 145800, Note_on_c, 4, 69, 80
12, 145800, Note_on_c, 4, 62, 80
12, 146520, Note_on_c, 4, 62, 0
12, 146520, Note_on_c, 4, 74, 0
12, 146520, Note_on_c, 4, 66, 0
12, 146520, Note_on_c, 4, 69, 0
12, 146520, Note_on_c, 4, 73, 80
12, 146520, Note_on_c, 4, 64, 80
12, 146520, Note_on_c, 4, 69, 80
12, 146520, Note_on_c, 4, 61, 80
12, 147240, Note_on_c, 4, 61, 0
12, 147240, Note_on_c, 4, 73, 0
12, 147240, Note_on_c, 4, 64, 0
12, 147240, Note_on_c, 4, 69, 0
12, 147240, Note_on_c, 4, 74, 80
12, 147240, Note_on_c, 4, 69, 80
12, 147240, Note_on_c, 4, 66, 80
12, 147240, Note_on_c, 4, 62, 80
12, 147360, Note_on_c, 4, 62, 0
12, 147360, Note_on_c, 4, 74, 0
12, 147360, Note_on_c, 4, 69, 0
12, 147360, Note_on_c, 4, 66, 0
12, 147360, Note_on_c, 4, 64, 80
12, 147360, Note_on_c, 4, 68, 80
12, 147360, Note_on_c, 4, 71, 80
12, 147360, Note_on_c, 4, 76, 80
12, 147600, Note_on_c, 4, 76, 0
12, 147600, Note_on_c, 4, 64, 0
12, 147600, Note_on_c, 4, 68, 0
12, 147600, Note_on_c, 4, 71, 0
12, 147600, End_track
13, 0, Start_track
13, 0, MIDI_port, 0
13, 0, Title_t, "Strings"
13, 0, Program_c, 6, 48
13, 15720, Note_on_c, 6, 56, 60
13, 15720, Note_on_c, 6, 68, 60
13, 15810, Note_on_c, 6, 68, 0
13, 15810, Note_on_c, 6, 56, 0
13, 15810, Note_on_c, 6, 59, 60
13, 15810, Note_on_c, 6, 71, 60
13, 15900, Note_on_c, 6, 71, 0
13, 15900, Note_on_c, 6, 59, 0
13, 15900, Note_on_c, 6, 64, 60
13, 15900, Note_on_c, 6, 76, 60
13, 16200, Note_on_c, 6, 76, 0
13, 16200, Note_on_c, 6, 64, 0
13, 16200, Note_on_c, 6, 66, 60
13, 16200, Note_on_c, 6, 54, 60
13, 16290, Note_on_c, 6, 54, 0
13, 16290, Note_on_c, 6, 66, 0
13, 16290, Note_on_c, 6, 59, 60
13, 16290, Note_on_c, 6, 71, 60
13, 16380, Note_on_c, 6, 71, 0
13, 16380, Note_on_c, 6, 59, 0
13, 16380, Note_on_c, 6, 62, 60
13, 16380, Note_on_c, 6, 74, 60
13, 16620, Note_on_c, 6, 74, 0
13, 16620, Note_on_c, 6, 62, 0
13, 16680, Note_on_c, 6, 68, 60
13, 16680, Note_on_c, 6, 56, 60
13, 16770, Note_on_c, 6, 56, 0
13, 16770, Note_on_c, 6, 68, 0
13, 16770, Note_on_c, 6, 69, 60
13, 16770, Note_on_c, 6, 57, 60
13, 16860, Note_on_c, 6, 57, 0
13, 16860, Note_on_c, 6, 69, 0
13, 16860, Note_on_c, 6, 59, 60
13, 16860, Note_on_c, 6, 71, 60
13, 16920, Note_on_c, 6, 71, 0
13, 16920, Note_on_c, 6, 59, 0
13, 16920, Note_on_c, 6, 60, 60
13, 16920, Note_on_c, 6, 72, 60
13, 17010, Note_on_c, 6, 72, 0
13, 17010, Note_on_c, 6, 60, 0
13, 17010, Note_on_c, 6, 62, 60
13, 17010, Note_on_c, 6, 74, 60
13, 17100, Note_on_c, 6, 74, 0
13, 17100, Note_on_c, 6, 62, 0
13, 17100, Note_on_c, 6, 64, 60
13, 17100, Note_on_c, 6, 76, 60
13, 17160, Note_on_c, 6, 76, 0
13, 17160, Note_on_c, 6, 64, 0
13, 17160, Note_on_c, 6, 57, 60
13, 17160, Note_on_c, 6, 69, 60
13, 17640, Note_on_c, 6, 69, 0
13, 17640, Note_on_c, 6, 57, 0
13, 17640, Note_on_c, 6, 56, 60
13, 17640, Note_on_c, 6, 68, 60
13, 17730, Note_on_c, 6, 68, 0
13, 17730, Note_on_c, 6, 56, 0
13, 17730, Note_on_c, 6, 59, 60
13, 17730, Note_on_c, 6, 71, 60
13, 17820, Note_on_c, 6, 71, 0
13, 17820, Note_on_c, 6, 59, 0
13, 17820, Note_on_c, 6, 64, 60
13, 17820, Note_on_c, 6, 76, 60
13, 18120, Note_on_c, 6, 76, 0
13, 18120, Note_on_c, 6, 64, 0
13, 18120, Note_on_c, 6, 66, 60
13, 18120, Note_on_c, 6, 54, 60
13, 18210, Note_on_c, 6, 54, 0
13, 18210, Note_on_c, 6, 66, 0
13, 18210, Note_on_c, 6, 59, 60
13, 18210, Note_on_c, 6, 71, 60
13, 18300, Note_on_c, 6, 71, 0
13, 18300, Note_on_c, 6, 59, 0
13, 18300, Note_on_c, 6, 62, 60
13, 18300, Note_on_c, 6, 74, 60
13, 18540, Note_on_c, 6, 74, 0
13, 18540, Note_on_c, 6, 62, 0
13, 18600, Note_on_c, 6, 68, 60
13, 18600, Note_on_c, 6, 56, 60
13, 18690, Note_on_c, 6, 56, 0
13, 18690, Note_on_c, 6, 68, 0
13, 18690, Note_on_c, 6, 69, 60
13, 18690, Note_on_c, 6, 57, 60
13, 18780, Note_on_c, 6, 57, 0
13, 18780, Note_on_c, 6, 69, 0
13, 18780, Note_on_c, 6, 59, 60
13, 18780, Note_on_c, 6, 71, 60
13, 18840, Note_on_c, 6, 71, 0
13, 18840, Note_on_c, 6, 59, 0
13, 18840, Note_on_c, 6, 60, 60
13, 18840, Note_on_c, 6, 72, 60
13, 18930, Note_on_c, 6, 72, 0
13, 18930, Note_on_c, 6, 60, 0
13, 18930, Note_on_c, 6, 62, 60
13, 18930, Note_on_c, 6, 74, 60
13, 19020, Note_on_c, 6, 74, 0
13, 19020, Note_on_c, 6, 62, 0
13, 19020, Note_on_c, 6, 64, 60
13, 19020, Note_on_c, 6, 76, 60
13, 19080, Note_on_c, 6, 76, 0
13, 19080, Note_on_c, 6, 64, 0
13, 19080, Note_on_c, 6, 57, 60
13, 19080, Note_on_c, 6, 69, 60
13, 19560, Note_on_c, 6, 69, 0
13, 19560, Note_on_c, 6, 57, 0
13, 19560, End_track
14, 0, Start_track
14, 0, MIDI_port, 0
14, 0, Title_t, "Aah"
14, 0, Program_c, 11, 52
14, 98700, Note_on_c, 11, 67, 80
14, 98700, Note_on_c, 11, 64, 80
14, 98700, Note_on_c, 11, 60, 80
14, 98940, Note_on_c, 11, 60, 0
14, 98940, Note_on_c, 11, 64, 0
14, 98940, Note_on_c, 11, 67, 0
14, 98940, Note_on_c, 11, 67, 80
14, 98940, Note_on_c, 11, 64, 80
14, 98940, Note_on_c, 11, 60, 80
14, 99180, Note_on_c, 11, 60, 0
14, 99180, Note_on_c, 11, 64, 0
14, 99180, Note_on_c, 11, 67, 0
14, 99180, Note_on_c, 11, 64, 65
14, 99180, Note_on_c, 11, 57, 70
14, 99180, Note_on_c, 11, 62, 70
14, 99180, Note_on_c, 11, 66, 70
14, 100140, Note_on_c, 11, 66, 0
14, 100140, Note_on_c, 11, 64, 0
14, 100140, Note_on_c, 11, 57, 0
14, 100140, Note_on_c, 11, 62, 0
14, 100140, Note_on_c, 11, 60, 70
14, 100140, Note_on_c, 11, 57, 70
14, 100140, Note_on_c, 11, 64, 70
14, 101100, Note_on_c, 11, 64, 0
14, 101100, Note_on_c, 11, 57, 0
14, 101100, Note_on_c, 11, 60, 0
14, 101100, Note_on_c, 11, 66, 70
14, 101100, Note_on_c, 11, 62, 70
14, 101100, Note_on_c, 11, 57, 70
14, 101580, Note_on_c, 11, 57, 0
14, 101580, Note_on_c, 11, 62, 0
14, 101580, Note_on_c, 11, 66, 0
14, 101580, Note_on_c, 11, 59, 70
14, 101580, Note_on_c, 11, 62, 70
14, 101580, Note_on_c, 11, 64, 60
14, 102060, Note_on_c, 11, 64, 0
14, 102060, Note_on_c, 11, 62, 0
14, 102060, Note_on_c, 11, 59, 0
14, 102060, Note_on_c, 11, 55, 70
14, 102060, Note_on_c, 11, 64, 70
14, 102060, Note_on_c, 11, 60, 70
14, 103020, Note_on_c, 11, 60, 0
14, 103020, Note_on_c, 11, 64, 0
14, 103020, Note_on_c, 11, 55, 0
14, 103020, Note_on_c, 11, 57, 70
14, 103020, Note_on_c, 11, 62, 70
14, 103200, Note_on_c, 11, 62, 0
14, 103200, Note_on_c, 11, 64, 70
14, 103380, Note_on_c, 11, 64, 0
14, 103380, Note_on_c, 11, 62, 70
14, 103380, Note_on_c, 11, 66, 80
14, 103980, Note_on_c, 11, 66, 0
14, 103980, Note_on_c, 11, 62, 0
14, 103980, Note_on_c, 11, 57, 0
14, 103980, Note_on_c, 11, 60, 70
14, 103980, Note_on_c, 11, 57, 70
14, 103980, Note_on_c, 11, 64, 70
14, 104940, Note_on_c, 11, 64, 0
14, 104940, Note_on_c, 11, 57, 0
14, 104940, Note_on_c, 11, 60, 0
14, 104940, Note_on_c, 11, 57, 70
14, 104940, Note_on_c, 11, 66, 70
14, 104940, Note_on_c, 11, 62, 70
14, 105420, Note_on_c, 11, 62, 0
14, 105420, Note_on_c, 11, 66, 0
14, 105420, Note_on_c, 11, 57, 0
14, 105420, Note_on_c, 11, 64, 70
14, 105420, Note_on_c, 11, 59, 70
14, 105420, Note_on_c, 11, 62, 70
14, 105900, Note_on_c, 11, 62, 0
14, 105900, Note_on_c, 11, 59, 0
14, 105900, Note_on_c, 11, 64, 0
14, 105900, Note_on_c, 11, 64, 70
14, 105900, Note_on_c, 11, 55, 70
14, 105900, Note_on_c, 11, 60, 70
14, 106860, Note_on_c, 11, 60, 0
14, 106860, Note_on_c, 11, 55, 0
14, 106860, Note_on_c, 11, 64, 0
14, 113820, Note_on_c, 11, 71, 60
14, 113820, Note_on_c, 11, 68, 60
14, 113820, Note_on_c, 11, 64, 60
14, 114780, Note_on_c, 11, 64, 0
14, 114780, Note_on_c, 11, 68, 0
14, 114780, Note_on_c, 11, 71, 0
14, 114780, Note_on_c, 11, 71, 60
14, 114780, Note_on_c, 11, 59, 60
14, 114780, Note_on_c, 11, 62, 60
14, 114780, Note_on_c, 11, 66, 60
14, 115740, Note_on_c, 11, 66, 0
14, 115740, Note_on_c, 11, 71, 0
14, 115740, Note_on_c, 11, 59, 0
14, 115740, Note_on_c, 11, 62, 0
14, 115740, Note_on_c, 11, 71, 60
14, 115740, Note_on_c, 11, 68, 60
14, 115740, Note_on_c, 11, 64, 60
14, 116220, Note_on_c, 11, 64, 0
14, 116220, Note_on_c, 11, 68, 0
14, 116220, Note_on_c, 11, 71, 0
14, 116220, Note_on_c, 11, 60, 60
14, 116220, Note_on_c, 11, 64, 60
14, 116220, Note_on_c, 11, 72, 60
14, 116220, Note_on_c, 11, 69, 60
14, 116700, Note_on_c, 11, 69, 0
14, 116700, Note_on_c, 11, 60, 0
14, 116700, Note_on_c, 11, 64, 0
14, 116700, Note_on_c, 11, 72, 0
14, 116700, Note_on_c, 11, 57, 60
14, 116700, Note_on_c, 11, 69, 60
14, 116700, Note_on_c, 11, 66, 60
14, 116700, Note_on_c, 11, 62, 60
14, 117660, Note_on_c, 11, 62, 0
14, 117660, Note_on_c, 11, 57, 0
14, 117660, Note_on_c, 11, 69, 0
14, 117660, Note_on_c, 11, 66, 0
14, 117660, Note_on_c, 11, 71, 60
14, 117660, Note_on_c, 11, 68, 60
14, 117660, Note_on_c, 11, 64, 60
14, 118620, Note_on_c, 11, 64, 0
14, 118620, Note_on_c, 11, 68, 0
14, 118620, Note_on_c, 11, 71, 0
14, 118620, Note_on_c, 11, 71, 60
14, 118620, Note_on_c, 11, 59, 60
14, 118620, Note_on_c, 11, 62, 60
14, 118620, Note_on_c, 11, 66, 60
14, 119580, Note_on_c, 11, 66, 0
14, 119580, Note_on_c, 11, 71, 0
14, 119580, Note_on_c, 11, 59, 0
14, 119580, Note_on_c, 11, 62, 0
14, 119580, Note_on_c, 11, 71, 60
14, 119580, Note_on_c, 11, 68, 60
14, 119580, Note_on_c, 11, 64, 60
14, 120060, Note_on_c, 11, 64, 0
14, 120060, Note_on_c, 11, 68, 0
14, 120060, Note_on_c, 11, 71, 0
14, 120060, Note_on_c, 11, 60, 60
14, 120060, Note_on_c, 11, 64, 60
14, 120060, Note_on_c, 11, 72, 60
14, 120060, Note_on_c, 11, 69, 60
14, 120540, Note_on_c, 11, 69, 0
14, 120540, Note_on_c, 11, 60, 0
14, 120540, Note_on_c, 11, 64, 0
14, 120540, Note_on_c, 11, 72, 0
14, 120540, Note_on_c, 11, 57, 60
14, 120540, Note_on_c, 11, 69, 60
14, 120540, Note_on_c, 11, 66, 60
14, 120540, Note_on_c, 11, 62, 60
14, 121500, Note_on_c, 11, 62, 0
14, 121500, Note_on_c, 11, 57, 0
14, 121500, Note_on_c, 11, 69, 0
14, 121500, Note_on_c, 11, 66, 0
14, 125340, Control_c, 11, 64, 127
14, 125340, Note_on_c, 11, 68, 65
14, 125340, Note_on_c, 11, 76, 65
14, 125340, Note_on_c, 11, 71, 65
14, 125340, Note_on_c, 11, 64, 65
14, 125760, Control_c, 11, 64, 0
14, 125820, Note_on_c, 11, 64, 0
14, 125820, Note_on_c, 11, 68, 0
14, 125820, Note_on_c, 11, 76, 0
14, 125820, Note_on_c, 11, 71, 0
14, 125820, Control_c, 11, 64, 127
14, 125820, Note_on_c, 11, 71, 65
14, 125820, Note_on_c, 11, 66, 65
14, 125820, Note_on_c, 11, 62, 65
14, 125820, Note_on_c, 11, 59, 65
14, 126240, Control_c, 11, 64, 0
14, 126300, Note_on_c, 11, 59, 0
14, 126300, Note_on_c, 11, 71, 0
14, 126300, Note_on_c, 11, 66, 0
14, 126300, Note_on_c, 11, 62, 0
14, 126300, Control_c, 11, 64, 127
14, 126300, Note_on_c, 11, 68, 65
14, 126300, Note_on_c, 11, 76, 65
14, 126300, Note_on_c, 11, 71, 65
14, 126300, Note_on_c, 11, 64, 65
14, 126720, Control_c, 11, 64, 0
14, 126780, Note_on_c, 11, 64, 0
14, 126780, Note_on_c, 11, 68, 0
14, 126780, Note_on_c, 11, 76, 0
14, 126780, Note_on_c, 11, 71, 0
14, 126780, Control_c, 11, 64, 127
14, 126780, Note_on_c, 11, 60, 65
14, 126780, Note_on_c, 11, 64, 65
14, 126780, Note_on_c, 11, 67, 65
14, 126780, Note_on_c, 11, 72, 65
14, 127200, Control_c, 11, 64, 0
14, 127260, Note_on_c, 11, 72, 0
14, 127260, Note_on_c, 11, 60, 0
14, 127260, Note_on_c, 11, 64, 0
14, 127260, Note_on_c, 11, 67, 0
14, 127260, Control_c, 11, 64, 127
14, 127260, Note_on_c, 11, 67, 65
14, 127260, Note_on_c, 11, 62, 65
14, 127260, Note_on_c, 11, 59, 65
14, 127260, Note_on_c, 11, 55, 65
14, 127680, Control_c, 11, 64, 0
14, 127740, Note_on_c, 11, 55, 0
14, 127740, Note_on_c, 11, 67, 0
14, 127740, Note_on_c, 11, 62, 0
14, 127740, Note_on_c, 11, 59, 0
14, 127740, Control_c, 11, 64, 127
14, 127740, Note_on_c, 11, 70, 65
14, 127740, Note_on_c, 11, 65, 65
14, 127740, Note_on_c, 11, 62, 65
14, 127740, Note_on_c, 11, 58, 65
14, 128160, Control_c, 11, 64, 0
14, 128220, Note_on_c, 11, 58, 0
14, 128220, Note_on_c, 11, 70, 0
14, 128220, Note_on_c, 11, 65, 0
14, 128220, Note_on_c, 11, 62, 0
14, 128220, Control_c, 11, 64, 127
14, 128220, Note_on_c, 11, 53, 65
14, 128220, Note_on_c, 11, 65, 65
14, 128220, Note_on_c, 11, 60, 65
14, 128220, Note_on_c, 11, 69, 65
14, 128580, Note_on_c, 11, 69, 0
14, 128580, Note_on_c, 11, 53, 0
14, 128580, Note_on_c, 11, 65, 0
14, 128580, Note_on_c, 11, 60, 0
14, 128580, Note_on_c, 11, 55, 65
14, 128580, Note_on_c, 11, 67, 65
14, 128580, Note_on_c, 11, 64, 65
14, 128640, Control_c, 11, 64, 0
14, 128700, Note_on_c, 11, 64, 0
14, 128700, Note_on_c, 11, 67, 0
14, 128700, Note_on_c, 11, 55, 0
14, 128700, Control_c, 11, 64, 127
14, 128700, Note_on_c, 11, 57, 65
14, 128700, Note_on_c, 11, 66, 65
14, 128700, Note_on_c, 11, 69, 65
14, 128700, Note_on_c, 11, 62, 65
14, 129120, Control_c, 11, 64, 0
14, 129180, Note_on_c, 11, 62, 0
14, 129180, Note_on_c, 11, 57, 0
14, 129180, Note_on_c, 11, 66, 0
14, 129180, Note_on_c, 11, 69, 0
14, 129180, Note_on_c, 11, 69, 65
14, 129180, Note_on_c, 11, 66, 65
14, 129180, Note_on_c, 11, 62, 65
14, 129180, Note_on_c, 11, 57, 65
14, 129300, Note_on_c, 11, 57, 0
14, 129300, Note_on_c, 11, 69, 0
14, 129300, Note_on_c, 11, 66, 0
14, 129300, Note_on_c, 11, 62, 0
14, 129300, End_track
15, 0, Start_track
15, 0, MIDI_port, 0
15, 0, Title_t, "Drums"
15, 0, Program_c, 9, 0
15, 3600, Note_on_c, 9, 35, 90
15, 3600, Note_on_c, 9, 49, 90
15, 3660, Note_on_c, 9, 44, 90
15, 3690, Note_on_c, 9, 40, 90
15, 3720, Note_on_c, 9, 44, 0
15, 3720, Note_on_c, 9, 44, 90
15, 3750, Note_on_c, 9, 40, 0
15, 3780, Note_on_c, 9, 44, 0
15, 3780, Note_on_c, 9, 45, 90
15, 3780, Note_on_c, 9, 44, 90
15, 3840, Note_on_c, 9, 44, 0
15, 3840, Note_on_c, 9, 35, 0
15, 3840, Note_on_c, 9, 49, 0
15, 3840, Note_on_c, 9, 45, 0
15, 3840, Note_on_c, 9, 44, 90
15, 3900, Note_on_c, 9, 44, 0
15, 3900, Note_on_c, 9, 44, 90
15, 3960, Note_on_c, 9, 44, 0
15, 3960, Note_on_c, 9, 44, 90
15, 4020, Note_on_c, 9, 44, 0
15, 4020, Note_on_c, 9, 44, 90
15, 4080, Note_on_c, 9, 44, 0
15, 4080, Note_on_c, 9, 35, 90
15, 4080, Note_on_c, 9, 49, 90
15, 4140, Note_on_c, 9, 49, 0
15, 4140, Note_on_c, 9, 35, 0
15, 4140, Note_on_c, 9, 44, 90
15, 4165, Note_on_c, 9, 40, 90
15, 4170, Note_on_c, 9, 40, 90
15, 4195, Note_on_c, 9, 40, 0
15, 4200, Note_on_c, 9, 40, 0
15, 4200, Note_on_c, 9, 44, 0
15, 4200, Note_on_c, 9, 44, 90
15, 4255, Note_on_c, 9, 47, 90
15, 4260, Note_on_c, 9, 44, 0
15, 4260, Note_on_c, 9, 45, 90
15, 4260, Note_on_c, 9, 44, 90
15, 4285, Note_on_c, 9, 47, 0
15, 4316, Note_on_c, 9, 45, 90
15, 4320, Note_on_c, 9, 44, 0
15, 4320, Note_on_c, 9, 45, 0
15, 4320, Note_on_c, 9, 44, 90
15, 4320, Note_on_c, 9, 43, 90
15, 4346, Note_on_c, 9, 45, 0
15, 4380, Note_on_c, 9, 43, 0
15, 4380, Note_on_c, 9, 44, 0
15, 4380, Note_on_c, 9, 44, 90
15, 4440, Note_on_c, 9, 44, 0
15, 4440, Note_on_c, 9, 44, 90
15, 4500, Note_on_c, 9, 44, 0
15, 4500, Note_on_c, 9, 44, 90
15, 4560, Note_on_c, 9, 44, 0
15, 4560, Note_on_c, 9, 35, 90
15, 4560, Note_on_c, 9, 49, 90
15, 4620, Note_on_c, 9, 49, 0
15, 4620, Note_on_c, 9, 35, 0
15, 4620, Note_on_c, 9, 44, 90
15, 4650, Note_on_c, 9, 40, 90
15, 4680, Note_on_c, 9, 44, 0
15, 4680, Note_on_c, 9, 44, 90
15, 4710, Note_on_c, 9, 40, 0
15, 4740, Note_on_c, 9, 44, 0
15, 4740, Note_on_c, 9, 45, 90
15, 4740, Note_on_c, 9, 44, 90
15, 4800, Note_on_c, 9, 44, 0
15, 4800, Note_on_c, 9, 45, 0
15, 4800, Note_on_c, 9, 35, 90
15, 4800, Note_on_c, 9, 57, 90
15, 4800, Note_on_c, 9, 44, 90
15, 4860, Note_on_c, 9, 44, 0
15, 4860, Note_on_c, 9, 57, 0
15, 4860, Note_on_c, 9, 35, 0
15, 4860, Note_on_c, 9, 44, 90
15, 4890, Note_on_c, 9, 40, 90
15, 4905, Note_on_c, 9, 40, 90
15, 4920, Note_on_c, 9, 40, 0
15, 4920, Note_on_c, 9, 44, 0
15, 4920, Note_on_c, 9, 40, 90
15, 4920, Note_on_c, 9, 44, 90
15, 4935, Note_on_c, 9, 40, 0
15, 4950, Note_on_c, 9, 40, 0
15, 4950, Note_on_c, 9, 47, 90
15, 4980, Note_on_c, 9, 47, 0
15, 4980, Note_on_c, 9, 44, 0
15, 4980, Note_on_c, 9, 45, 90
15, 4980, Note_on_c, 9, 44, 90
15, 5010, Note_on_c, 9, 45, 0
15, 5040, Note_on_c, 9, 44, 0
15, 5040, Note_on_c, 9, 44, 90
15, 5040, Note_on_c, 9, 35, 90
15, 5040, Note_on_c, 9, 49, 90
15, 5070, Note_on_c, 9, 49, 0
15, 5100, Note_on_c, 9, 35, 0
15, 5100, Note_on_c, 9, 44, 0
15, 5100, Note_on_c, 9, 44, 90
15, 5160, Note_on_c, 9, 44, 0
15, 5160, Note_on_c, 9, 44, 90
15, 5220, Note_on_c, 9, 44, 0
15, 5220, Note_on_c, 9, 44, 90
15, 5280, Note_on_c, 9, 44, 0
15, 5280, Note_on_c, 9, 44, 90
15, 5340, Note_on_c, 9, 44, 0
15, 5340, Note_on_c, 9, 44, 90
15, 5400, Note_on_c, 9, 44, 0
15, 5400, Note_on_c, 9, 44, 90
15, 5460, Note_on_c, 9, 44, 0
15, 5460, Note_on_c, 9, 44, 90
15, 5520, Note_on_c, 9, 44, 0
15, 5520, Note_on_c, 9, 35, 90
15, 5520, Note_on_c, 9, 49, 90
15, 5550, Note_on_c, 9, 49, 0
15, 5550, Note_on_c, 9, 35, 0
15, 5580, Note_on_c, 9, 44, 90
15, 5606, Note_on_c, 9, 40, 90
15, 5610, Note_on_c, 9, 44, 0
15, 5610, Note_on_c, 9, 40, 90
15, 5636, Note_on_c, 9, 40, 0
15, 5640, Note_on_c, 9, 40, 0
15, 5640, Note_on_c, 9, 44, 90
15, 5670, Note_on_c, 9, 44, 0
15, 5698, Note_on_c, 9, 43, 90
15, 5700, Note_on_c, 9, 41, 90
15, 5700, Note_on_c, 9, 44, 90
15, 5728, Note_on_c, 9, 43, 0
15, 5730, Note_on_c, 9, 44, 0
15, 5730, Note_on_c, 9, 41, 0
15, 5760, Note_on_c, 9, 44, 90
15, 5790, Note_on_c, 9, 44, 0
15, 5820, Note_on_c, 9, 44, 90
15, 5850, Note_on_c, 9, 44, 0
15, 5850, Note_on_c, 9, 40, 90
15, 5865, Note_on_c, 9, 40, 90
15, 5880, Note_on_c, 9, 40, 0
15, 5880, Note_on_c, 9, 44, 90
15, 5880, Note_on_c, 9, 40, 90
15, 5895, Note_on_c, 9, 40, 0
15, 5910, Note_on_c, 9, 40, 0
15, 5910, Note_on_c, 9, 44, 0
15, 5910, Note_on_c, 9, 47, 90
15, 5940, Note_on_c, 9, 47, 0
15, 5940, Note_on_c, 9, 44, 90
15, 5940, Note_on_c, 9, 45, 90
15, 5970, Note_on_c, 9, 45, 0
15, 5970, Note_on_c, 9, 44, 0
15, 5970, Note_on_c, 9, 41, 90
15, 6000, Note_on_c, 9, 41, 0
15, 6000, Note_on_c, 9, 49, 90
15, 6000, Note_on_c, 9, 35, 90
15, 6000, Note_on_c, 9, 44, 90
15, 6030, Note_on_c, 9, 44, 0
15, 6030, Note_on_c, 9, 35, 0
15, 6030, Note_on_c, 9, 49, 0
15, 6060, Note_on_c, 9, 44, 90
15, 6090, Note_on_c, 9, 44, 0
15, 6090, Note_on_c, 9, 40, 90
15, 6120, Note_on_c, 9, 40, 0
15, 6120, Note_on_c, 9, 44, 90
15, 6150, Note_on_c, 9, 44, 0
15, 6176, Note_on_c, 9, 43, 90
15, 6180, Note_on_c, 9, 43, 90
15, 6180, Note_on_c, 9, 44, 90
15, 6206, Note_on_c, 9, 43, 0
15, 6210, Note_on_c, 9, 44, 0
15, 6210, Note_on_c, 9, 43, 0
15, 6237, Note_on_c, 9, 41, 90
15, 6240, Note_on_c, 9, 44, 90
15, 6240, Note_on_c, 9, 41, 90
15, 6267, Note_on_c, 9, 41, 0
15, 6270, Note_on_c, 9, 41, 0
15, 6270, Note_on_c, 9, 44, 0
15, 6300, Note_on_c, 9, 44, 90
15, 6330, Note_on_c, 9, 44, 0
15, 6360, Note_on_c, 9, 44, 90
15, 6390, Note_on_c, 9, 44, 0
15, 6420, Note_on_c, 9, 44, 90
15, 6450, Note_on_c, 9, 44, 0
15, 6480, Note_on_c, 9, 49, 90
15, 6480, Note_on_c, 9, 35, 90
15, 6480, Note_on_c, 9, 44, 90
15, 6510, Note_on_c, 9, 44, 0
15, 6510, Note_on_c, 9, 35, 0
15, 6510, Note_on_c, 9, 49, 0
15, 6540, Note_on_c, 9, 44, 90
15, 6570, Note_on_c, 9, 44, 0
15, 6570, Note_on_c, 9, 40, 90
15, 6600, Note_on_c, 9, 40, 0
15, 6600, Note_on_c, 9, 40, 90
15, 6600, Note_on_c, 9, 44, 90
15, 6630, Note_on_c, 9, 44, 0
15, 6630, Note_on_c, 9, 40, 0
15, 6630, Note_on_c, 9, 47, 90
15, 6660, Note_on_c, 9, 47, 0
15, 6660, Note_on_c, 9, 45, 90
15, 6660, Note_on_c, 9, 44, 90
15, 6690, Note_on_c, 9, 44, 0
15, 6690, Note_on_c, 9, 45, 0
15, 6720, Note_on_c, 9, 49, 90
15, 6720, Note_on_c, 9, 35, 90
15, 6720, Note_on_c, 9, 44, 90
15, 6750, Note_on_c, 9, 44, 0
15, 6750, Note_on_c, 9, 35, 0
15, 6750, Note_on_c, 9, 49, 0
15, 6780, Note_on_c, 9, 44, 90
15, 6810, Note_on_c, 9, 44, 0
15, 6840, Note_on_c, 9, 40, 90
15, 6840, Note_on_c, 9, 44, 90
15, 6870, Note_on_c, 9, 44, 0
15, 6870, Note_on_c, 9, 40, 0
15, 6900, Note_on_c, 9, 43, 90
15, 6900, Note_on_c, 9, 45, 90
15, 6900, Note_on_c, 9, 44, 90
15, 6930, Note_on_c, 9, 44, 0
15, 6930, Note_on_c, 9, 45, 0
15, 6930, Note_on_c, 9, 43, 0
15, 6960, Note_on_c, 9, 49, 90
15, 6960, Note_on_c, 9, 35, 90
15, 6990, Note_on_c, 9, 35, 0
15, 6990, Note_on_c, 9, 49, 0
15, 12240, Note_on_c, 9, 42, 70
15, 12270, Note_on_c, 9, 42, 0
15, 12270, Note_on_c, 9, 42, 70
15, 12300, Note_on_c, 9, 42, 0
15, 12300, Note_on_c, 9, 46, 70
15, 12330, Note_on_c, 9, 46, 0
15, 12360, Note_on_c, 9, 42, 70
15, 12390, Note_on_c, 9, 42, 0
15, 12390, Note_on_c, 9, 42, 70
15, 12420, Note_on_c, 9, 42, 0
15, 12420, Note_on_c, 9, 46, 70
15, 12450, Note_on_c, 9, 46, 0
15, 12480, Note_on_c, 9, 42, 70
15, 12510, Note_on_c, 9, 42, 0
15, 12510, Note_on_c, 9, 42, 70
15, 12540, Note_on_c, 9, 42, 0
15, 12540, Note_on_c, 9, 46, 70
15, 12570, Note_on_c, 9, 46, 0
15, 12600, Note_on_c, 9, 42, 70
15, 12630, Note_on_c, 9, 42, 0
15, 12630, Note_on_c, 9, 42, 70
15, 12660, Note_on_c, 9, 42, 0
15, 12660, Note_on_c, 9, 42, 70
15, 12690, Note_on_c, 9, 42, 0
15, 12690, Note_on_c, 9, 42, 70
15, 12720, Note_on_c, 9, 42, 0
15, 12720, Note_on_c, 9, 46, 70
15, 12750, Note_on_c, 9, 46, 0
15, 12780, Note_on_c, 9, 42, 70
15, 12810, Note_on_c, 9, 42, 0
15, 12810, Note_on_c, 9, 42, 70
15, 12840, Note_on_c, 9, 42, 0
15, 12840, Note_on_c, 9, 46, 70
15, 12870, Note_on_c, 9, 46, 0
15, 12900, Note_on_c, 9, 42, 70
15, 12930, Note_on_c, 9, 42, 0
15, 12930, Note_on_c, 9, 42, 70
15, 12960, Note_on_c, 9, 42, 0
15, 12960, Note_on_c, 9, 46, 70
15, 12990, Note_on_c, 9, 46, 0
15, 13020, Note_on_c, 9, 42, 70
15, 13050, Note_on_c, 9, 42, 0
15, 13050, Note_on_c, 9, 42, 70
15, 13080, Note_on_c, 9, 42, 0
15, 13080, Note_on_c, 9, 42, 70
15, 13110, Note_on_c, 9, 42, 0
15, 13110, Note_on_c, 9, 42, 70
15, 13140, Note_on_c, 9, 42, 0
15, 13140, Note_on_c, 9, 46, 70
15, 13170, Note_on_c, 9, 46, 0
15, 13200, Note_on_c, 9, 42, 70
15, 13230, Note_on_c, 9, 42, 0
15, 13230, Note_on_c, 9, 42, 70
15, 13260, Note_on_c, 9, 42, 0
15, 13260, Note_on_c, 9, 46, 70
15, 13290, Note_on_c, 9, 46, 0
15, 13320, Note_on_c, 9, 42, 70
15, 13350, Note_on_c, 9, 42, 0
15, 13350, Note_on_c, 9, 42, 70
15, 13380, Note_on_c, 9, 42, 0
15, 13380, Note_on_c, 9, 46, 70
15, 13410, Note_on_c, 9, 46, 0
15, 13440, Note_on_c, 9, 42, 70
15, 13470, Note_on_c, 9, 42, 0
15, 13470, Note_on_c, 9, 42, 70
15, 13500, Note_on_c, 9, 42, 0
15, 13500, Note_on_c, 9, 42, 70
15, 13530, Note_on_c, 9, 42, 0
15, 13530, Note_on_c, 9, 42, 70
15, 13560, Note_on_c, 9, 42, 0
15, 13560, Note_on_c, 9, 46, 70
15, 13590, Note_on_c, 9, 46, 0
15, 13620, Note_on_c, 9, 42, 70
15, 13650, Note_on_c, 9, 42, 0
15, 13650, Note_on_c, 9, 42, 70
15, 13680, Note_on_c, 9, 42, 0
15, 13680, Note_on_c, 9, 46, 70
15, 13710, Note_on_c, 9, 46, 0
15, 13740, Note_on_c, 9, 42, 70
15, 13770, Note_on_c, 9, 42, 0
15, 13770, Note_on_c, 9, 42, 70
15, 13800, Note_on_c, 9, 42, 0
15, 13800, Note_on_c, 9, 46, 70
15, 13830, Note_on_c, 9, 46, 0
15, 13860, Note_on_c, 9, 42, 70
15, 13890, Note_on_c, 9, 42, 0
15, 13890, Note_on_c, 9, 42, 70
15, 13920, Note_on_c, 9, 42, 0
15, 13920, Note_on_c, 9, 46, 70
15, 13950, Note_on_c, 9, 46, 0
15, 13980, Note_on_c, 9, 55, 70
15, 13980, Note_on_c, 9, 42, 70
15, 14010, Note_on_c, 9, 42, 0
15, 14010, Note_on_c, 9, 55, 0
15, 14010, Note_on_c, 9, 42, 70
15, 14040, Note_on_c, 9, 42, 0
15, 14040, Note_on_c, 9, 46, 70
15, 14070, Note_on_c, 9, 46, 0
15, 14100, Note_on_c, 9, 42, 70
15, 14130, Note_on_c, 9, 42, 0
15, 14130, Note_on_c, 9, 42, 70
15, 14160, Note_on_c, 9, 42, 0
15, 14160, Note_on_c, 9, 46, 70
15, 14190, Note_on_c, 9, 46, 0
15, 14220, Note_on_c, 9, 42, 70
15, 14250, Note_on_c, 9, 42, 0
15, 14250, Note_on_c, 9, 42, 70
15, 14280, Note_on_c, 9, 42, 0
15, 14280, Note_on_c, 9, 46, 70
15, 14310, Note_on_c, 9, 46, 0
15, 14340, Note_on_c, 9, 42, 70
15, 14370, Note_on_c, 9, 42, 0
15, 14370, Note_on_c, 9, 42, 70
15, 14400, Note_on_c, 9, 42, 0
15, 14400, Note_on_c, 9, 42, 70
15, 14430, Note_on_c, 9, 42, 0
15, 14430, Note_on_c, 9, 42, 70
15, 14460, Note_on_c, 9, 42, 0
15, 14460, Note_on_c, 9, 46, 70
15, 14490, Note_on_c, 9, 46, 0
15, 14520, Note_on_c, 9, 42, 70
15, 14550, Note_on_c, 9, 42, 0
15, 14550, Note_on_c, 9, 42, 70
15, 14580, Note_on_c, 9, 42, 0
15, 14580, Note_on_c, 9, 46, 70
15, 14610, Note_on_c, 9, 46, 0
15, 14640, Note_on_c, 9, 42, 70
15, 14670, Note_on_c, 9, 42, 0
15, 14670, Note_on_c, 9, 42, 70
15, 14700, Note_on_c, 9, 42, 0
15, 14700, Note_on_c, 9, 46, 70
15, 14730, Note_on_c, 9, 46, 0
15, 14760, Note_on_c, 9, 42, 70
15, 14790, Note_on_c, 9, 42, 0
15, 14790, Note_on_c, 9, 42, 70
15, 14820, Note_on_c, 9, 42, 0
15, 14820, Note_on_c, 9, 42, 70
15, 14850, Note_on_c, 9, 42, 0
15, 14850, Note_on_c, 9, 42, 70
15, 14880, Note_on_c, 9, 42, 0
15, 14880, Note_on_c, 9, 46, 70
15, 14910, Note_on_c, 9, 46, 0
15, 14940, Note_on_c, 9, 42, 70
15, 14970, Note_on_c, 9, 42, 0
15, 14970, Note_on_c, 9, 42, 70
15, 15000, Note_on_c, 9, 42, 0
15, 15000, Note_on_c, 9, 46, 70
15, 15030, Note_on_c, 9, 46, 0
15, 15060, Note_on_c, 9, 42, 70
15, 15090, Note_on_c, 9, 42, 0
15, 15090, Note_on_c, 9, 42, 70
15, 15120, Note_on_c, 9, 42, 0
15, 15120, Note_on_c, 9, 46, 70
15, 15150, Note_on_c, 9, 46, 0
15, 15180, Note_on_c, 9, 42, 70
15, 15210, Note_on_c, 9, 42, 0
15, 15210, Note_on_c, 9, 42, 70
15, 15240, Note_on_c, 9, 42, 0
15, 15240, Note_on_c, 9, 42, 70
15, 15270, Note_on_c, 9, 42, 0
15, 15270, Note_on_c, 9, 42, 70
15, 15300, Note_on_c, 9, 42, 0
15, 15300, Note_on_c, 9, 46, 70
15, 15330, Note_on_c, 9, 46, 0
15, 15360, Note_on_c, 9, 42, 70
15, 15390, Note_on_c, 9, 42, 0
15, 15390, Note_on_c, 9, 42, 70
15, 15420, Note_on_c, 9, 42, 0
15, 15420, Note_on_c, 9, 46, 70
15, 15450, Note_on_c, 9, 46, 0
15, 15480, Note_on_c, 9, 42, 70
15, 15510, Note_on_c, 9, 42, 0
15, 15510, Note_on_c, 9, 42, 70
15, 15540, Note_on_c, 9, 42, 0
15, 15540, Note_on_c, 9, 46, 70
15, 15570, Note_on_c, 9, 46, 0
15, 15600, Note_on_c, 9, 42, 70
15, 15630, Note_on_c, 9, 42, 0
15, 15630, Note_on_c, 9, 42, 70
15, 15660, Note_on_c, 9, 42, 0
15, 15660, Note_on_c, 9, 46, 70
15, 15690, Note_on_c, 9, 46, 0
15, 15720, Note_on_c, 9, 55, 80
15, 15720, Note_on_c, 9, 35, 100
15, 15750, Note_on_c, 9, 35, 0
15, 15750, Note_on_c, 9, 55, 0
15, 15750, Note_on_c, 9, 42, 60
15, 15780, Note_on_c, 9, 42, 0
15, 15780, Note_on_c, 9, 42, 60
15, 15810, Note_on_c, 9, 42, 0
15, 15810, Note_on_c, 9, 42, 60
15, 15840, Note_on_c, 9, 42, 0
15, 15840, Note_on_c, 9, 54, 127
15, 15870, Note_on_c, 9, 54, 0
15, 15870, Note_on_c, 9, 42, 60
15, 15900, Note_on_c, 9, 42, 0
15, 15900, Note_on_c, 9, 42, 60
15, 15930, Note_on_c, 9, 42, 0
15, 15930, Note_on_c, 9, 42, 60
15, 15960, Note_on_c, 9, 42, 0
15, 15960, Note_on_c, 9, 42, 100
15, 15990, Note_on_c, 9, 42, 0
15, 15990, Note_on_c, 9, 42, 60
15, 16020, Note_on_c, 9, 42, 0
15, 16020, Note_on_c, 9, 42, 60
15, 16050, Note_on_c, 9, 42, 0
15, 16050, Note_on_c, 9, 42, 60
15, 16080, Note_on_c, 9, 42, 0
15, 16080, Note_on_c, 9, 54, 127
15, 16110, Note_on_c, 9, 54, 0
15, 16110, Note_on_c, 9, 42, 60
15, 16140, Note_on_c, 9, 42, 0
15, 16140, Note_on_c, 9, 42, 60
15, 16170, Note_on_c, 9, 42, 0
15, 16170, Note_on_c, 9, 46, 60
15, 16200, Note_on_c, 9, 46, 0
15, 16200, Note_on_c, 9, 35, 100
15, 16200, Note_on_c, 9, 42, 100
15, 16230, Note_on_c, 9, 42, 0
15, 16230, Note_on_c, 9, 35, 0
15, 16230, Note_on_c, 9, 42, 60
15, 16260, Note_on_c, 9, 42, 0
15, 16260, Note_on_c, 9, 42, 60
15, 16290, Note_on_c, 9, 42, 0
15, 16290, Note_on_c, 9, 42, 60
15, 16320, Note_on_c, 9, 42, 0
15, 16320, Note_on_c, 9, 54, 127
15, 16350, Note_on_c, 9, 54, 0
15, 16350, Note_on_c, 9, 42, 60
15, 16380, Note_on_c, 9, 42, 0
15, 16380, Note_on_c, 9, 42, 60
15, 16410, Note_on_c, 9, 42, 0
15, 16410, Note_on_c, 9, 42, 60
15, 16440, Note_on_c, 9, 42, 0
15, 16440, Note_on_c, 9, 42, 100
15, 16470, Note_on_c, 9, 42, 0
15, 16470, Note_on_c, 9, 42, 60
15, 16500, Note_on_c, 9, 42, 0
15, 16500, Note_on_c, 9, 42, 60
15, 16530, Note_on_c, 9, 42, 0
15, 16530, Note_on_c, 9, 42, 60
15, 16560, Note_on_c, 9, 42, 0
15, 16560, Note_on_c, 9, 54, 127
15, 16590, Note_on_c, 9, 54, 0
15, 16590, Note_on_c, 9, 42, 60
15, 16620, Note_on_c, 9, 42, 0
15, 16620, Note_on_c, 9, 42, 60
15, 16650, Note_on_c, 9, 42, 0
15, 16650, Note_on_c, 9, 46, 60
15, 16680, Note_on_c, 9, 46, 0
15, 16680, Note_on_c, 9, 35, 100
15, 16680, Note_on_c, 9, 42, 100
15, 16710, Note_on_c, 9, 42, 0
15, 16710, Note_on_c, 9, 35, 0
15, 16710, Note_on_c, 9, 42, 60
15, 16740, Note_on_c, 9, 42, 0
15, 16740, Note_on_c, 9, 42, 60
15, 16770, Note_on_c, 9, 42, 0
15, 16770, Note_on_c, 9, 42, 60
15, 16800, Note_on_c, 9, 42, 0
15, 16800, Note_on_c, 9, 54, 127
15, 16830, Note_on_c, 9, 54, 0
15, 16830, Note_on_c, 9, 42, 60
15, 16860, Note_on_c, 9, 42, 0
15, 16860, Note_on_c, 9, 42, 60
15, 16890, Note_on_c, 9, 42, 0
15, 16890, Note_on_c, 9, 42, 60
15, 16920, Note_on_c, 9, 42, 0
15, 16920, Note_on_c, 9, 42, 100
15, 16950, Note_on_c, 9, 42, 0
15, 16950, Note_on_c, 9, 42, 60
15, 16980, Note_on_c, 9, 42, 0
15, 16980, Note_on_c, 9, 42, 60
15, 17010, Note_on_c, 9, 42, 0
15, 17010, Note_on_c, 9, 42, 60
15, 17040, Note_on_c, 9, 42, 0
15, 17040, Note_on_c, 9, 54, 127
15, 17070, Note_on_c, 9, 54, 0
15, 17070, Note_on_c, 9, 42, 60
15, 17100, Note_on_c, 9, 42, 0
15, 17100, Note_on_c, 9, 42, 60
15, 17130, Note_on_c, 9, 42, 0
15, 17130, Note_on_c, 9, 46, 60
15, 17160, Note_on_c, 9, 46, 0
15, 17160, Note_on_c, 9, 35, 100
15, 17160, Note_on_c, 9, 42, 100
15, 17190, Note_on_c, 9, 42, 0
15, 17190, Note_on_c, 9, 35, 0
15, 17190, Note_on_c, 9, 42, 60
15, 17220, Note_on_c, 9, 42, 0
15, 17220, Note_on_c, 9, 42, 60
15, 17250, Note_on_c, 9, 42, 0
15, 17250, Note_on_c, 9, 42, 60
15, 17280, Note_on_c, 9, 42, 0
15, 17280, Note_on_c, 9, 54, 127
15, 17310, Note_on_c, 9, 54, 0
15, 17310, Note_on_c, 9, 42, 60
15, 17340, Note_on_c, 9, 42, 0
15, 17340, Note_on_c, 9, 42, 60
15, 17370, Note_on_c, 9, 42, 0
15, 17370, Note_on_c, 9, 42, 60
15, 17400, Note_on_c, 9, 42, 0
15, 17400, Note_on_c, 9, 42, 100
15, 17430, Note_on_c, 9, 42, 0
15, 17430, Note_on_c, 9, 42, 60
15, 17460, Note_on_c, 9, 42, 0
15, 17460, Note_on_c, 9, 42, 60
15, 17490, Note_on_c, 9, 42, 0
15, 17490, Note_on_c, 9, 42, 60
15, 17520, Note_on_c, 9, 42, 0
15, 17520, Note_on_c, 9, 54, 127
15, 17550, Note_on_c, 9, 54, 0
15, 17550, Note_on_c, 9, 42, 100
15, 17580, Note_on_c, 9, 42, 0
15, 17580, Note_on_c, 9, 42, 100
15, 17610, Note_on_c, 9, 42, 0
15, 17610, Note_on_c, 9, 55, 60
15, 17640, Note_on_c, 9, 55, 0
15, 17640, Note_on_c, 9, 52, 60
15, 17640, Note_on_c, 9, 35, 100
15, 17670, Note_on_c, 9, 35, 0
15, 17670, Note_on_c, 9, 52, 0
15, 17670, Note_on_c, 9, 42, 60
15, 17700, Note_on_c, 9, 42, 0
15, 17700, Note_on_c, 9, 42, 60
15, 17730, Note_on_c, 9, 42, 0
15, 17730, Note_on_c, 9, 42, 60
15, 17760, Note_on_c, 9, 42, 0
15, 17760, Note_on_c, 9, 54, 127
15, 17790, Note_on_c, 9, 54, 0
15, 17790, Note_on_c, 9, 42, 60
15, 17820, Note_on_c, 9, 42, 0
15, 17820, Note_on_c, 9, 42, 60
15, 17850, Note_on_c, 9, 42, 0
15, 17850, Note_on_c, 9, 42, 60
15, 17880, Note_on_c, 9, 42, 0
15, 17880, Note_on_c, 9, 42, 100
15, 17910, Note_on_c, 9, 42, 0
15, 17910, Note_on_c, 9, 42, 60
15, 17940, Note_on_c, 9, 42, 0
15, 17940, Note_on_c, 9, 42, 60
15, 17970, Note_on_c, 9, 42, 0
15, 17970, Note_on_c, 9, 42, 60
15, 18000, Note_on_c, 9, 42, 0
15, 18000, Note_on_c, 9, 54, 127
15, 18030, Note_on_c, 9, 54, 0
15, 18030, Note_on_c, 9, 42, 60
15, 18060, Note_on_c, 9, 42, 0
15, 18060, Note_on_c, 9, 42, 60
15, 18090, Note_on_c, 9, 42, 0
15, 18090, Note_on_c, 9, 46, 60
15, 18120, Note_on_c, 9, 46, 0
15, 18120, Note_on_c, 9, 35, 100
15, 18120, Note_on_c, 9, 42, 100
15, 18150, Note_on_c, 9, 42, 0
15, 18150, Note_on_c, 9, 35, 0
15, 18150, Note_on_c, 9, 42, 60
15, 18180, Note_on_c, 9, 42, 0
15, 18180, Note_on_c, 9, 42, 60
15, 18210, Note_on_c, 9, 42, 0
15, 18210, Note_on_c, 9, 42, 60
15, 18240, Note_on_c, 9, 42, 0
15, 18240, Note_on_c, 9, 54, 127
15, 18270, Note_on_c, 9, 54, 0
15, 18270, Note_on_c, 9, 42, 60
15, 18300, Note_on_c, 9, 42, 0
15, 18300, Note_on_c, 9, 42, 60
15, 18330, Note_on_c, 9, 42, 0
15, 18330, Note_on_c, 9, 42, 60
15, 18360, Note_on_c, 9, 42, 0
15, 18360, Note_on_c, 9, 42, 100
15, 18390, Note_on_c, 9, 42, 0
15, 18390, Note_on_c, 9, 42, 60
15, 18420, Note_on_c, 9, 42, 0
15, 18420, Note_on_c, 9, 42, 60
15, 18450, Note_on_c, 9, 42, 0
15, 18450, Note_on_c, 9, 42, 60
15, 18480, Note_on_c, 9, 42, 0
15, 18480, Note_on_c, 9, 54, 127
15, 18510, Note_on_c, 9, 54, 0
15, 18510, Note_on_c, 9, 42, 60
15, 18540, Note_on_c, 9, 42, 0
15, 18540, Note_on_c, 9, 42, 60
15, 18570, Note_on_c, 9, 42, 0
15, 18570, Note_on_c, 9, 46, 60
15, 18600, Note_on_c, 9, 46, 0
15, 18600, Note_on_c, 9, 35, 100
15, 18600, Note_on_c, 9, 42, 100
15, 18630, Note_on_c, 9, 42, 0
15, 18630, Note_on_c, 9, 35, 0
15, 18630, Note_on_c, 9, 42, 60
15, 18660, Note_on_c, 9, 42, 0
15, 18660, Note_on_c, 9, 42, 60
15, 18690, Note_on_c, 9, 42, 0
15, 18690, Note_on_c, 9, 42, 60
15, 18720, Note_on_c, 9, 42, 0
15, 18720, Note_on_c, 9, 54, 127
15, 18750, Note_on_c, 9, 54, 0
15, 18750, Note_on_c, 9, 42, 60
15, 18780, Note_on_c, 9, 42, 0
15, 18780, Note_on_c, 9, 42, 60
15, 18810, Note_on_c, 9, 42, 0
15, 18810, Note_on_c, 9, 42, 60
15, 18840, Note_on_c, 9, 42, 0
15, 18840, Note_on_c, 9, 42, 100
15, 18870, Note_on_c, 9, 42, 0
15, 18870, Note_on_c, 9, 42, 60
15, 18900, Note_on_c, 9, 42, 0
15, 18900, Note_on_c, 9, 42, 60
15, 18930, Note_on_c, 9, 42, 0
15, 18930, Note_on_c, 9, 42, 60
15, 18960, Note_on_c, 9, 42, 0
15, 18960, Note_on_c, 9, 54, 127
15, 18990, Note_on_c, 9, 54, 0
15, 18990, Note_on_c, 9, 42, 60
15, 19020, Note_on_c, 9, 42, 0
15, 19020, Note_on_c, 9, 42, 60
15, 19050, Note_on_c, 9, 42, 0
15, 19050, Note_on_c, 9, 46, 60
15, 19080, Note_on_c, 9, 46, 0
15, 19080, Note_on_c, 9, 40, 100
15, 19080, Note_on_c, 9, 41, 100
15, 19080, Note_on_c, 9, 35, 100
15, 19110, Note_on_c, 9, 35, 0
15, 19110, Note_on_c, 9, 41, 0
15, 19110, Note_on_c, 9, 40, 0
15, 19110, Note_on_c, 9, 41, 50
15, 19110, Note_on_c, 9, 40, 50
15, 19110, Note_on_c, 9, 35, 50
15, 19140, Note_on_c, 9, 35, 0
15, 19140, Note_on_c, 9, 40, 0
15, 19140, Note_on_c, 9, 41, 0
15, 19140, Note_on_c, 9, 41, 53
15, 19140, Note_on_c, 9, 40, 53
15, 19140, Note_on_c, 9, 35, 53
15, 19170, Note_on_c, 9, 35, 0
15, 19170, Note_on_c, 9, 40, 0
15, 19170, Note_on_c, 9, 41, 0
15, 19170, Note_on_c, 9, 41, 57
15, 19170, Note_on_c, 9, 40, 57
15, 19170, Note_on_c, 9, 35, 57
15, 19200, Note_on_c, 9, 35, 0
15, 19200, Note_on_c, 9, 40, 0
15, 19200, Note_on_c, 9, 41, 0
15, 19200, Note_on_c, 9, 41, 60
15, 19200, Note_on_c, 9, 40, 60
15, 19200, Note_on_c, 9, 35, 60
15, 19230, Note_on_c, 9, 35, 0
15, 19230, Note_on_c, 9, 40, 0
15, 19230, Note_on_c, 9, 41, 0
15, 19230, Note_on_c, 9, 41, 64
15, 19230, Note_on_c, 9, 40, 64
15, 19230, Note_on_c, 9, 35, 64
15, 19260, Note_on_c, 9, 35, 0
15, 19260, Note_on_c, 9, 40, 0
15, 19260, Note_on_c, 9, 41, 0
15, 19260, Note_on_c, 9, 41, 67
15, 19260, Note_on_c, 9, 40, 67
15, 19260, Note_on_c, 9, 35, 67
15, 19290, Note_on_c, 9, 35, 0
15, 19290, Note_on_c, 9, 40, 0
15, 19290, Note_on_c, 9, 41, 0
15, 19290, Note_on_c, 9, 41, 71
15, 19290, Note_on_c, 9, 40, 71
15, 19290, Note_on_c, 9, 35, 71
15, 19320, Note_on_c, 9, 35, 0
15, 19320, Note_on_c, 9, 40, 0
15, 19320, Note_on_c, 9, 41, 0
15, 19320, Note_on_c, 9, 41, 75
15, 19320, Note_on_c, 9, 40, 75
15, 19320, Note_on_c, 9, 35, 75
15, 19350, Note_on_c, 9, 35, 0
15, 19350, Note_on_c, 9, 40, 0
15, 19350, Note_on_c, 9, 41, 0
15, 19350, Note_on_c, 9, 41, 78
15, 19350, Note_on_c, 9, 40, 78
15, 19350, Note_on_c, 9, 35, 78
15, 19380, Note_on_c, 9, 35, 0
15, 19380, Note_on_c, 9, 40, 0
15, 19380, Note_on_c, 9, 41, 0
15, 19380, Note_on_c, 9, 41, 82
15, 19380, Note_on_c, 9, 40, 82
15, 19380, Note_on_c, 9, 35, 82
15, 19410, Note_on_c, 9, 35, 0
15, 19410, Note_on_c, 9, 40, 0
15, 19410, Note_on_c, 9, 41, 0
15, 19410, Note_on_c, 9, 41, 85
15, 19410, Note_on_c, 9, 40, 85
15, 19410, Note_on_c, 9, 35, 85
15, 19440, Note_on_c, 9, 35, 0
15, 19440, Note_on_c, 9, 40, 0
15, 19440, Note_on_c, 9, 41, 0
15, 19440, Note_on_c, 9, 41, 89
15, 19440, Note_on_c, 9, 40, 89
15, 19440, Note_on_c, 9, 35, 89
15, 19470, Note_on_c, 9, 35, 0
15, 19470, Note_on_c, 9, 40, 0
15, 19470, Note_on_c, 9, 41, 0
15, 19470, Note_on_c, 9, 41, 92
15, 19470, Note_on_c, 9, 40, 92
15, 19470, Note_on_c, 9, 35, 92
15, 19500, Note_on_c, 9, 35, 0
15, 19500, Note_on_c, 9, 40, 0
15, 19500, Note_on_c, 9, 41, 0
15, 19500, Note_on_c, 9, 41, 96
15, 19500, Note_on_c, 9, 40, 96
15, 19500, Note_on_c, 9, 35, 96
15, 19530, Note_on_c, 9, 35, 0
15, 19530, Note_on_c, 9, 40, 0
15, 19530, Note_on_c, 9, 41, 0
15, 19530, Note_on_c, 9, 41, 100
15, 19530, Note_on_c, 9, 40, 100
15, 19530, Note_on_c, 9, 35, 100
15, 19560, Note_on_c, 9, 35, 0
15, 19560, Note_on_c, 9, 40, 0
15, 19560, Note_on_c, 9, 41, 0
15, 19560, Note_on_c, 9, 52, 127
15, 19590, Note_on_c, 9, 52, 0
15, 19620, Note_on_c, 9, 35, 100
15, 19650, Note_on_c, 9, 35, 0
15, 19680, Note_on_c, 9, 46, 100
15, 19710, Note_on_c, 9, 46, 0
15, 19740, Note_on_c, 9, 35, 100
15, 19770, Note_on_c, 9, 35, 0
15, 19800, Note_on_c, 9, 46, 100
15, 19800, Note_on_c, 9, 40, 100
15, 19830, Note_on_c, 9, 40, 0
15, 19830, Note_on_c, 9, 46, 0
15, 19920, Note_on_c, 9, 46, 100
15, 19950, Note_on_c, 9, 46, 0
15, 19980, Note_on_c, 9, 35, 100
15, 20010, Note_on_c, 9, 35, 0
15, 20040, Note_on_c, 9, 46, 100
15, 20070, Note_on_c, 9, 46, 0
15, 20160, Note_on_c, 9, 35, 100
15, 20160, Note_on_c, 9, 46, 100
15, 20190, Note_on_c, 9, 46, 0
15, 20190, Note_on_c, 9, 35, 0
15, 20280, Note_on_c, 9, 40, 100
15, 20280, Note_on_c, 9, 46, 100
15, 20310, Note_on_c, 9, 46, 0
15, 20310, Note_on_c, 9, 40, 0
15, 20340, Note_on_c, 9, 35, 100
15, 20370, Note_on_c, 9, 35, 0
15, 20400, Note_on_c, 9, 46, 100
15, 20430, Note_on_c, 9, 46, 0
15, 20520, Note_on_c, 9, 35, 100
15, 20520, Note_on_c, 9, 46, 100
15, 20550, Note_on_c, 9, 46, 0
15, 20550, Note_on_c, 9, 35, 0
15, 20580, Note_on_c, 9, 40, 70
15, 20610, Note_on_c, 9, 40, 0
15, 20640, Note_on_c, 9, 46, 100
15, 20640, Note_on_c, 9, 35, 100
15, 20670, Note_on_c, 9, 35, 0
15, 20670, Note_on_c, 9, 46, 0
15, 20700, Note_on_c, 9, 46, 100
15, 20700, Note_on_c, 9, 35, 100
15, 20730, Note_on_c, 9, 35, 0
15, 20730, Note_on_c, 9, 46, 0
15, 20820, Note_on_c, 9, 46, 100
15, 20850, Note_on_c, 9, 46, 0
15, 20880, Note_on_c, 9, 35, 100
15, 20910, Note_on_c, 9, 35, 0
15, 20940, Note_on_c, 9, 46, 100
15, 20970, Note_on_c, 9, 46, 0
15, 21000, Note_on_c, 9, 35, 100
15, 21030, Note_on_c, 9, 35, 0
15, 21060, Note_on_c, 9, 40, 100
15, 21060, Note_on_c, 9, 46, 100
15, 21090, Note_on_c, 9, 46, 0
15, 21090, Note_on_c, 9, 40, 0
15, 21120, Note_on_c, 9, 35, 100
15, 21150, Note_on_c, 9, 35, 0
15, 21180, Note_on_c, 9, 46, 100
15, 21210, Note_on_c, 9, 46, 0
15, 21240, Note_on_c, 9, 35, 100
15, 21270, Note_on_c, 9, 35, 0
15, 21300, Note_on_c, 9, 46, 100
15, 21330, Note_on_c, 9, 46, 0
15, 21420, Note_on_c, 9, 46, 100
15, 21420, Note_on_c, 9, 35, 100
15, 21450, Note_on_c, 9, 35, 0
15, 21450, Note_on_c, 9, 46, 0
15, 21540, Note_on_c, 9, 46, 100
15, 21540, Note_on_c, 9, 40, 100
15, 21570, Note_on_c, 9, 40, 0
15, 21570, Note_on_c, 9, 46, 0
15, 21600, Note_on_c, 9, 35, 100
15, 21630, Note_on_c, 9, 35, 0
15, 21660, Note_on_c, 9, 46, 100
15, 21690, Note_on_c, 9, 46, 0
15, 21780, Note_on_c, 9, 35, 100
15, 21780, Note_on_c, 9, 46, 100
15, 21810, Note_on_c, 9, 46, 0
15, 21810, Note_on_c, 9, 35, 0
15, 21840, Note_on_c, 9, 40, 80
15, 21870, Note_on_c, 9, 40, 0
15, 21900, Note_on_c, 9, 35, 100
15, 21900, Note_on_c, 9, 46, 100
15, 21930, Note_on_c, 9, 46, 0
15, 21930, Note_on_c, 9, 35, 0
15, 21960, Note_on_c, 9, 40, 80
15, 21990, Note_on_c, 9, 40, 0
15, 22020, Note_on_c, 9, 35, 100
15, 22020, Note_on_c, 9, 46, 100
15, 22050, Note_on_c, 9, 46, 0
15, 22050, Note_on_c, 9, 35, 0
15, 22080, Note_on_c, 9, 40, 80
15, 22110, Note_on_c, 9, 40, 0
15, 22140, Note_on_c, 9, 46, 100
15, 22140, Note_on_c, 9, 35, 100
15, 22170, Note_on_c, 9, 35, 0
15, 22170, Note_on_c, 9, 46, 0
15, 22200, Note_on_c, 9, 55, 70
15, 22200, Note_on_c, 9, 52, 70
15, 22200, Note_on_c, 9, 35, 100
15, 22230, Note_on_c, 9, 35, 0
15, 22230, Note_on_c, 9, 52, 0
15, 22230, Note_on_c, 9, 55, 0
15, 22320, Note_on_c, 9, 46, 100
15, 22350, Note_on_c, 9, 46, 0
15, 22380, Note_on_c, 9, 35, 100
15, 22410, Note_on_c, 9, 35, 0
15, 22440, Note_on_c, 9, 40, 100
15, 22440, Note_on_c, 9, 46, 100
15, 22470, Note_on_c, 9, 46, 0
15, 22470, Note_on_c, 9, 40, 0
15, 22560, Note_on_c, 9, 46, 100
15, 22590, Note_on_c, 9, 46, 0
15, 22620, Note_on_c, 9, 35, 100
15, 22650, Note_on_c, 9, 35, 0
15, 22680, Note_on_c, 9, 46, 100
15, 22710, Note_on_c, 9, 46, 0
15, 22800, Note_on_c, 9, 35, 100
15, 22800, Note_on_c, 9, 46, 100
15, 22830, Note_on_c, 9, 46, 0
15, 22830, Note_on_c, 9, 35, 0
15, 22920, Note_on_c, 9, 40, 100
15, 22920, Note_on_c, 9, 46, 100
15, 22950, Note_on_c, 9, 46, 0
15, 22950, Note_on_c, 9, 40, 0
15, 22980, Note_on_c, 9, 35, 100
15, 23010, Note_on_c, 9, 35, 0
15, 23040, Note_on_c, 9, 46, 100
15, 23070, Note_on_c, 9, 46, 0
15, 23160, Note_on_c, 9, 35, 100
15, 23160, Note_on_c, 9, 46, 100
15, 23190, Note_on_c, 9, 46, 0
15, 23190, Note_on_c, 9, 35, 0
15, 23220, Note_on_c, 9, 40, 70
15, 23250, Note_on_c, 9, 40, 0
15, 23280, Note_on_c, 9, 35, 80
15, 23280, Note_on_c, 9, 46, 100
15, 23310, Note_on_c, 9, 46, 0
15, 23310, Note_on_c, 9, 35, 0
15, 23340, Note_on_c, 9, 35, 100
15, 23340, Note_on_c, 9, 46, 100
15, 23370, Note_on_c, 9, 46, 0
15, 23370, Note_on_c, 9, 35, 0
15, 23460, Note_on_c, 9, 46, 100
15, 23490, Note_on_c, 9, 46, 0
15, 23520, Note_on_c, 9, 35, 100
15, 23550, Note_on_c, 9, 35, 0
15, 23580, Note_on_c, 9, 46, 100
15, 23610, Note_on_c, 9, 46, 0
15, 23640, Note_on_c, 9, 35, 100
15, 23670, Note_on_c, 9, 35, 0
15, 23700, Note_on_c, 9, 46, 100
15, 23700, Note_on_c, 9, 40, 100
15, 23730, Note_on_c, 9, 40, 0
15, 23730, Note_on_c, 9, 46, 0
15, 23820, Note_on_c, 9, 46, 100
15, 23850, Note_on_c, 9, 46, 0
15, 23880, Note_on_c, 9, 35, 100
15, 23910, Note_on_c, 9, 35, 0
15, 23940, Note_on_c, 9, 46, 100
15, 23970, Note_on_c, 9, 46, 0
15, 24060, Note_on_c, 9, 35, 100
15, 24060, Note_on_c, 9, 46, 100
15, 24090, Note_on_c, 9, 46, 0
15, 24090, Note_on_c, 9, 35, 0
15, 24180, Note_on_c, 9, 40, 100
15, 24180, Note_on_c, 9, 46, 100
15, 24210, Note_on_c, 9, 46, 0
15, 24210, Note_on_c, 9, 40, 0
15, 24240, Note_on_c, 9, 35, 100
15, 24270, Note_on_c, 9, 35, 0
15, 24300, Note_on_c, 9, 46, 100
15, 24330, Note_on_c, 9, 46, 0
15, 24420, Note_on_c, 9, 46, 100
15, 24450, Note_on_c, 9, 46, 0
15, 24480, Note_on_c, 9, 40, 100
15, 24510, Note_on_c, 9, 40, 0
15, 24540, Note_on_c, 9, 46, 100
15, 24570, Note_on_c, 9, 46, 0
15, 24600, Note_on_c, 9, 40, 100
15, 24630, Note_on_c, 9, 40, 0
15, 24660, Note_on_c, 9, 40, 100
15, 24690, Note_on_c, 9, 40, 0
15, 24780, Note_on_c, 9, 46, 100
15, 24810, Note_on_c, 9, 46, 0
15, 24840, Note_on_c, 9, 40, 100
15, 24870, Note_on_c, 9, 40, 0
15, 24900, Note_on_c, 9, 46, 100
15, 24930, Note_on_c, 9, 46, 0
15, 24960, Note_on_c, 9, 40, 100
15, 24990, Note_on_c, 9, 40, 0
15, 25020, Note_on_c, 9, 40, 100
15, 25050, Note_on_c, 9, 40, 0
15, 25140, Note_on_c, 9, 35, 75
15, 25140, Note_on_c, 9, 49, 75
15, 25170, Note_on_c, 9, 49, 0
15, 25170, Note_on_c, 9, 35, 0
15, 25200, Note_on_c, 9, 42, 65
15, 25230, Note_on_c, 9, 42, 0
15, 25260, Note_on_c, 9, 42, 65
15, 25290, Note_on_c, 9, 42, 0
15, 25320, Note_on_c, 9, 35, 75
15, 25350, Note_on_c, 9, 35, 0
15, 25380, Note_on_c, 9, 42, 65
15, 25410, Note_on_c, 9, 42, 0
15, 25440, Note_on_c, 9, 35, 75
15, 25470, Note_on_c, 9, 35, 0
15, 25500, Note_on_c, 9, 40, 75
15, 25500, Note_on_c, 9, 42, 75
15, 25530, Note_on_c, 9, 42, 0
15, 25530, Note_on_c, 9, 40, 0
15, 25560, Note_on_c, 9, 42, 65
15, 25590, Note_on_c, 9, 42, 0
15, 25620, Note_on_c, 9, 42, 65
15, 25650, Note_on_c, 9, 42, 0
15, 25680, Note_on_c, 9, 35, 75
15, 25710, Note_on_c, 9, 35, 0
15, 25740, Note_on_c, 9, 42, 65
15, 25770, Note_on_c, 9, 42, 0
15, 25800, Note_on_c, 9, 35, 75
15, 25830, Note_on_c, 9, 35, 0
15, 25860, Note_on_c, 9, 35, 75
15, 25860, Note_on_c, 9, 42, 75
15, 25890, Note_on_c, 9, 42, 0
15, 25890, Note_on_c, 9, 35, 0
15, 25920, Note_on_c, 9, 42, 65
15, 25950, Note_on_c, 9, 42, 0
15, 25980, Note_on_c, 9, 42, 65
15, 26010, Note_on_c, 9, 42, 0
15, 26040, Note_on_c, 9, 35, 75
15, 26070, Note_on_c, 9, 35, 0
15, 26100, Note_on_c, 9, 42, 65
15, 26130, Note_on_c, 9, 42, 0
15, 26160, Note_on_c, 9, 35, 75
15, 26190, Note_on_c, 9, 35, 0
15, 26220, Note_on_c, 9, 42, 75
15, 26220, Note_on_c, 9, 40, 75
15, 26250, Note_on_c, 9, 40, 0
15, 26250, Note_on_c, 9, 42, 0
15, 26280, Note_on_c, 9, 42, 65
15, 26310, Note_on_c, 9, 42, 0
15, 26340, Note_on_c, 9, 42, 65
15, 26370, Note_on_c, 9, 42, 0
15, 26400, Note_on_c, 9, 35, 75
15, 26430, Note_on_c, 9, 35, 0
15, 26460, Note_on_c, 9, 42, 65
15, 26490, Note_on_c, 9, 42, 0
15, 26520, Note_on_c, 9, 35, 75
15, 26550, Note_on_c, 9, 35, 0
15, 26580, Note_on_c, 9, 35, 75
15, 26580, Note_on_c, 9, 49, 75
15, 26610, Note_on_c, 9, 49, 0
15, 26610, Note_on_c, 9, 35, 0
15, 26640, Note_on_c, 9, 42, 65
15, 26670, Note_on_c, 9, 42, 0
15, 26700, Note_on_c, 9, 42, 65
15, 26730, Note_on_c, 9, 42, 0
15, 26760, Note_on_c, 9, 35, 75
15, 26790, Note_on_c, 9, 35, 0
15, 26820, Note_on_c, 9, 42, 65
15, 26850, Note_on_c, 9, 42, 0
15, 26880, Note_on_c, 9, 35, 75
15, 26910, Note_on_c, 9, 35, 0
15, 26940, Note_on_c, 9, 42, 75
15, 26940, Note_on_c, 9, 40, 75
15, 26970, Note_on_c, 9, 40, 0
15, 26970, Note_on_c, 9, 42, 0
15, 27000, Note_on_c, 9, 42, 65
15, 27030, Note_on_c, 9, 42, 0
15, 27060, Note_on_c, 9, 42, 65
15, 27090, Note_on_c, 9, 42, 0
15, 27120, Note_on_c, 9, 35, 75
15, 27150, Note_on_c, 9, 35, 0
15, 27180, Note_on_c, 9, 42, 65
15, 27210, Note_on_c, 9, 42, 0
15, 27240, Note_on_c, 9, 35, 75
15, 27270, Note_on_c, 9, 35, 0
15, 27300, Note_on_c, 9, 42, 75
15, 27300, Note_on_c, 9, 35, 75
15, 27330, Note_on_c, 9, 35, 0
15, 27330, Note_on_c, 9, 42, 0
15, 27360, Note_on_c, 9, 42, 65
15, 27390, Note_on_c, 9, 42, 0
15, 27420, Note_on_c, 9, 42, 65
15, 27450, Note_on_c, 9, 42, 0
15, 27480, Note_on_c, 9, 35, 75
15, 27510, Note_on_c, 9, 35, 0
15, 27540, Note_on_c, 9, 42, 65
15, 27570, Note_on_c, 9, 42, 0
15, 27600, Note_on_c, 9, 35, 75
15, 27630, Note_on_c, 9, 35, 0
15, 27660, Note_on_c, 9, 55, 60
15, 27660, Note_on_c, 9, 40, 100
15, 27690, Note_on_c, 9, 40, 0
15, 27690, Note_on_c, 9, 55, 0
15, 27780, Note_on_c, 9, 57, 50
15, 27780, Note_on_c, 9, 40, 100
15, 27810, Note_on_c, 9, 40, 0
15, 27810, Note_on_c, 9, 57, 0
15, 27900, Note_on_c, 9, 35, 100
15, 27900, Note_on_c, 9, 42, 100
15, 27930, Note_on_c, 9, 42, 0
15, 27930, Note_on_c, 9, 35, 0
15, 27960, Note_on_c, 9, 42, 100
15, 27990, Note_on_c, 9, 42, 0
15, 28020, Note_on_c, 9, 42, 100
15, 28050, Note_on_c, 9, 42, 0
15, 28080, Note_on_c, 9, 35, 100
15, 28110, Note_on_c, 9, 35, 0
15, 28140, Note_on_c, 9, 42, 100
15, 28170, Note_on_c, 9, 42, 0
15, 28200, Note_on_c, 9, 35, 100
15, 28230, Note_on_c, 9, 35, 0
15, 28260, Note_on_c, 9, 42, 100
15, 28260, Note_on_c, 9, 40, 100
15, 28290, Note_on_c, 9, 40, 0
15, 28290, Note_on_c, 9, 42, 0
15, 28320, Note_on_c, 9, 42, 100
15, 28350, Note_on_c, 9, 42, 0
15, 28380, Note_on_c, 9, 42, 100
15, 28410, Note_on_c, 9, 42, 0
15, 28440, Note_on_c, 9, 35, 100
15, 28470, Note_on_c, 9, 35, 0
15, 28500, Note_on_c, 9, 42, 100
15, 28530, Note_on_c, 9, 42, 0
15, 28560, Note_on_c, 9, 35, 100
15, 28590, Note_on_c, 9, 35, 0
15, 28620, Note_on_c, 9, 42, 100
15, 28620, Note_on_c, 9, 35, 100
15, 28650, Note_on_c, 9, 35, 0
15, 28650, Note_on_c, 9, 42, 0
15, 28680, Note_on_c, 9, 42, 100
15, 28710, Note_on_c, 9, 42, 0
15, 28740, Note_on_c, 9, 42, 100
15, 28770, Note_on_c, 9, 42, 0
15, 28800, Note_on_c, 9, 35, 100
15, 28830, Note_on_c, 9, 35, 0
15, 28860, Note_on_c, 9, 42, 100
15, 28890, Note_on_c, 9, 42, 0
15, 28920, Note_on_c, 9, 35, 100
15, 28950, Note_on_c, 9, 35, 0
15, 28980, Note_on_c, 9, 42, 100
15, 28980, Note_on_c, 9, 40, 100
15, 29010, Note_on_c, 9, 40, 0
15, 29010, Note_on_c, 9, 42, 0
15, 29040, Note_on_c, 9, 42, 100
15, 29070, Note_on_c, 9, 42, 0
15, 29100, Note_on_c, 9, 42, 100
15, 29130, Note_on_c, 9, 42, 0
15, 29160, Note_on_c, 9, 35, 100
15, 29190, Note_on_c, 9, 35, 0
15, 29220, Note_on_c, 9, 42, 100
15, 29250, Note_on_c, 9, 42, 0
15, 29280, Note_on_c, 9, 40, 80
15, 29310, Note_on_c, 9, 40, 0
15, 29340, Note_on_c, 9, 35, 100
15, 29340, Note_on_c, 9, 49, 60
15, 29370, Note_on_c, 9, 49, 0
15, 29370, Note_on_c, 9, 35, 0
15, 29400, Note_on_c, 9, 42, 100
15, 29430, Note_on_c, 9, 42, 0
15, 29460, Note_on_c, 9, 42, 100
15, 29490, Note_on_c, 9, 42, 0
15, 29520, Note_on_c, 9, 35, 100
15, 29550, Note_on_c, 9, 35, 0
15, 29580, Note_on_c, 9, 42, 100
15, 29610, Note_on_c, 9, 42, 0
15, 29640, Note_on_c, 9, 35, 100
15, 29670, Note_on_c, 9, 35, 0
15, 29700, Note_on_c, 9, 55, 70
15, 29700, Note_on_c, 9, 40, 100
15, 29730, Note_on_c, 9, 40, 0
15, 29730, Note_on_c, 9, 55, 0
15, 29790, Note_on_c, 9, 40, 80
15, 29820, Note_on_c, 9, 40, 0
15, 29820, Note_on_c, 9, 40, 100
15, 29850, Note_on_c, 9, 40, 0
15, 29880, Note_on_c, 9, 40, 100
15, 29910, Note_on_c, 9, 40, 0
15, 29940, Note_on_c, 9, 40, 100
15, 29970, Note_on_c, 9, 40, 0
15, 30000, Note_on_c, 9, 40, 100
15, 30030, Note_on_c, 9, 40, 0
15, 30060, Note_on_c, 9, 35, 100
15, 30060, Note_on_c, 9, 57, 100
15, 30090, Note_on_c, 9, 57, 0
15, 30090, Note_on_c, 9, 35, 0
15, 30120, Note_on_c, 9, 42, 75
15, 30150, Note_on_c, 9, 42, 0
15, 30180, Note_on_c, 9, 42, 100
15, 30210, Note_on_c, 9, 42, 0
15, 30240, Note_on_c, 9, 35, 100
15, 30240, Note_on_c, 9, 42, 75
15, 30270, Note_on_c, 9, 42, 0
15, 30270, Note_on_c, 9, 35, 0
15, 30300, Note_on_c, 9, 42, 100
15, 30300, Note_on_c, 9, 40, 100
15, 30330, Note_on_c, 9, 40, 0
15, 30330, Note_on_c, 9, 42, 0
15, 30360, Note_on_c, 9, 42, 75
15, 30390, Note_on_c, 9, 42, 0
15, 30420, Note_on_c, 9, 42, 100
15, 30450, Note_on_c, 9, 42, 0
15, 30480, Note_on_c, 9, 35, 100
15, 30510, Note_on_c, 9, 35, 0
15, 30540, Note_on_c, 9, 42, 100
15, 30570, Note_on_c, 9, 42, 0
15, 30600, Note_on_c, 9, 35, 100
15, 30630, Note_on_c, 9, 35, 0
15, 30660, Note_on_c, 9, 40, 100
15, 30660, Note_on_c, 9, 46, 100
15, 30690, Note_on_c, 9, 46, 0
15, 30690, Note_on_c, 9, 40, 0
15, 30780, Note_on_c, 9, 35, 100
15, 30780, Note_on_c, 9, 49, 70
15, 30810, Note_on_c, 9, 49, 0
15, 30810, Note_on_c, 9, 35, 0
15, 30840, Note_on_c, 9, 42, 100
15, 30870, Note_on_c, 9, 42, 0
15, 30900, Note_on_c, 9, 46, 120
15, 30930, Note_on_c, 9, 46, 0
15, 30960, Note_on_c, 9, 35, 100
15, 30990, Note_on_c, 9, 35, 0
15, 31020, Note_on_c, 9, 42, 100
15, 31020, Note_on_c, 9, 40, 100
15, 31050, Note_on_c, 9, 40, 0
15, 31050, Note_on_c, 9, 42, 0
15, 31080, Note_on_c, 9, 42, 100
15, 31110, Note_on_c, 9, 42, 0
15, 31140, Note_on_c, 9, 42, 100
15, 31170, Note_on_c, 9, 42, 0
15, 31200, Note_on_c, 9, 35, 100
15, 31230, Note_on_c, 9, 35, 0
15, 31260, Note_on_c, 9, 42, 100
15, 31290, Note_on_c, 9, 42, 0
15, 31320, Note_on_c, 9, 35, 100
15, 31350, Note_on_c, 9, 35, 0
15, 31380, Note_on_c, 9, 40, 100
15, 31380, Note_on_c, 9, 46, 100
15, 31410, Note_on_c, 9, 46, 0
15, 31410, Note_on_c, 9, 40, 0
15, 31500, Note_on_c, 9, 35, 100
15, 31530, Note_on_c, 9, 35, 0
15, 31560, Note_on_c, 9, 42, 60
15, 31590, Note_on_c, 9, 42, 0
15, 31620, Note_on_c, 9, 42, 100
15, 31650, Note_on_c, 9, 42, 0
15, 31680, Note_on_c, 9, 35, 100
15, 31710, Note_on_c, 9, 35, 0
15, 31740, Note_on_c, 9, 40, 100
15, 31770, Note_on_c, 9, 40, 0
15, 31800, Note_on_c, 9, 42, 100
15, 31830, Note_on_c, 9, 42, 0
15, 31860, Note_on_c, 9, 42, 100
15, 31890, Note_on_c, 9, 42, 0
15, 31920, Note_on_c, 9, 35, 100
15, 31950, Note_on_c, 9, 35, 0
15, 31980, Note_on_c, 9, 42, 100
15, 32010, Note_on_c, 9, 42, 0
15, 32040, Note_on_c, 9, 35, 100
15, 32070, Note_on_c, 9, 35, 0
15, 32100, Note_on_c, 9, 46, 100
15, 32100, Note_on_c, 9, 40, 100
15, 32130, Note_on_c, 9, 40, 0
15, 32130, Note_on_c, 9, 46, 0
15, 32220, Note_on_c, 9, 44, 100
15, 32220, Note_on_c, 9, 40, 100
15, 32250, Note_on_c, 9, 40, 0
15, 32340, Note_on_c, 9, 44, 0
15, 32340, Note_on_c, 9, 44, 100
15, 32370, Note_on_c, 9, 44, 0
15, 32460, Note_on_c, 9, 44, 100
15, 32490, Note_on_c, 9, 44, 0
15, 32520, Note_on_c, 9, 35, 100
15, 32550, Note_on_c, 9, 35, 0
15, 32580, Note_on_c, 9, 52, 80
15, 32580, Note_on_c, 9, 40, 100
15, 32610, Note_on_c, 9, 40, 0
15, 32700, Note_on_c, 9, 52, 0
15, 32700, Note_on_c, 9, 40, 100
15, 32700, Note_on_c, 9, 52, 80
15, 32730, Note_on_c, 9, 40, 0
15, 32820, Note_on_c, 9, 52, 0
15, 32820, Note_on_c, 9, 35, 100
15, 32820, Note_on_c, 9, 57, 100
15, 32850, Note_on_c, 9, 57, 0
15, 32850, Note_on_c, 9, 35, 0
15, 32880, Note_on_c, 9, 42, 75
15, 32910, Note_on_c, 9, 42, 0
15, 32940, Note_on_c, 9, 42, 100
15, 32970, Note_on_c, 9, 42, 0
15, 33000, Note_on_c, 9, 35, 100
15, 33000, Note_on_c, 9, 42, 75
15, 33030, Note_on_c, 9, 42, 0
15, 33030, Note_on_c, 9, 35, 0
15, 33060, Note_on_c, 9, 42, 100
15, 33060, Note_on_c, 9, 40, 100
15, 33090, Note_on_c, 9, 40, 0
15, 33090, Note_on_c, 9, 42, 0
15, 33120, Note_on_c, 9, 42, 75
15, 33150, Note_on_c, 9, 42, 0
15, 33180, Note_on_c, 9, 42, 100
15, 33210, Note_on_c, 9, 42, 0
15, 33240, Note_on_c, 9, 35, 100
15, 33270, Note_on_c, 9, 35, 0
15, 33300, Note_on_c, 9, 42, 100
15, 33330, Note_on_c, 9, 42, 0
15, 33360, Note_on_c, 9, 35, 100
15, 33390, Note_on_c, 9, 35, 0
15, 33420, Note_on_c, 9, 40, 100
15, 33420, Note_on_c, 9, 46, 100
15, 33450, Note_on_c, 9, 46, 0
15, 33450, Note_on_c, 9, 40, 0
15, 33540, Note_on_c, 9, 35, 100
15, 33540, Note_on_c, 9, 49, 70
15, 33570, Note_on_c, 9, 49, 0
15, 33570, Note_on_c, 9, 35, 0
15, 33600, Note_on_c, 9, 42, 100
15, 33630, Note_on_c, 9, 42, 0
15, 33660, Note_on_c, 9, 42, 120
15, 33690, Note_on_c, 9, 42, 0
15, 33720, Note_on_c, 9, 35, 100
15, 33750, Note_on_c, 9, 35, 0
15, 33780, Note_on_c, 9, 42, 100
15, 33780, Note_on_c, 9, 40, 100
15, 33810, Note_on_c, 9, 40, 0
15, 33810, Note_on_c, 9, 42, 0
15, 33840, Note_on_c, 9, 42, 100
15, 33870, Note_on_c, 9, 42, 0
15, 33900, Note_on_c, 9, 42, 100
15, 33930, Note_on_c, 9, 42, 0
15, 33960, Note_on_c, 9, 35, 100
15, 33990, Note_on_c, 9, 35, 0
15, 34020, Note_on_c, 9, 42, 100
15, 34050, Note_on_c, 9, 42, 0
15, 34080, Note_on_c, 9, 35, 100
15, 34110, Note_on_c, 9, 35, 0
15, 34140, Note_on_c, 9, 40, 100
15, 34140, Note_on_c, 9, 46, 100
15, 34170, Note_on_c, 9, 46, 0
15, 34170, Note_on_c, 9, 40, 0
15, 34260, Note_on_c, 9, 44, 120
15, 34260, Note_on_c, 9, 35, 100
15, 34290, Note_on_c, 9, 35, 0
15, 34290, Note_on_c, 9, 44, 0
15, 34320, Note_on_c, 9, 42, 60
15, 34350, Note_on_c, 9, 42, 0
15, 34380, Note_on_c, 9, 42, 100
15, 34410, Note_on_c, 9, 42, 0
15, 34440, Note_on_c, 9, 35, 100
15, 34470, Note_on_c, 9, 35, 0
15, 34500, Note_on_c, 9, 40, 100
15, 34530, Note_on_c, 9, 40, 0
15, 34560, Note_on_c, 9, 42, 100
15, 34590, Note_on_c, 9, 42, 0
15, 34620, Note_on_c, 9, 42, 100
15, 34650, Note_on_c, 9, 42, 0
15, 34680, Note_on_c, 9, 35, 100
15, 34710, Note_on_c, 9, 35, 0
15, 34740, Note_on_c, 9, 42, 100
15, 34770, Note_on_c, 9, 42, 0
15, 34800, Note_on_c, 9, 35, 100
15, 34830, Note_on_c, 9, 35, 0
15, 34860, Note_on_c, 9, 46, 100
15, 34860, Note_on_c, 9, 40, 100
15, 34890, Note_on_c, 9, 40, 0
15, 34890, Note_on_c, 9, 46, 0
15, 34980, Note_on_c, 9, 35, 100
15, 34980, Note_on_c, 9, 49, 100
15, 35010, Note_on_c, 9, 49, 0
15, 35010, Note_on_c, 9, 35, 0
15, 35100, Note_on_c, 9, 40, 100
15, 35130, Note_on_c, 9, 40, 0
15, 35160, Note_on_c, 9, 57, 100
15, 35160, Note_on_c, 9, 35, 100
15, 35190, Note_on_c, 9, 35, 0
15, 35190, Note_on_c, 9, 57, 0
15, 35280, Note_on_c, 9, 35, 100
15, 35310, Note_on_c, 9, 35, 0
15, 35340, Note_on_c, 9, 49, 100
15, 35340, Note_on_c, 9, 35, 100
15, 35370, Note_on_c, 9, 35, 0
15, 35370, Note_on_c, 9, 49, 0
15, 35460, Note_on_c, 9, 40, 100
15, 35490, Note_on_c, 9, 40, 0
15, 35520, Note_on_c, 9, 40, 100
15, 35550, Note_on_c, 9, 40, 0
15, 35580, Note_on_c, 9, 35, 100
15, 35580, Note_on_c, 9, 52, 80
15, 35610, Note_on_c, 9, 52, 0
15, 35610, Note_on_c, 9, 35, 0
15, 35700, Note_on_c, 9, 53, 100
15, 35730, Note_on_c, 9, 53, 0
15, 35760, Note_on_c, 9, 35, 100
15, 35790, Note_on_c, 9, 35, 0
15, 35820, Note_on_c, 9, 53, 100
15, 35850, Note_on_c, 9, 53, 0
15, 35880, Note_on_c, 9, 35, 100
15, 35910, Note_on_c, 9, 35, 0
15, 35940, Note_on_c, 9, 40, 100
15, 35940, Note_on_c, 9, 53, 100
15, 35970, Note_on_c, 9, 53, 0
15, 35970, Note_on_c, 9, 40, 0
15, 36060, Note_on_c, 9, 53, 100
15, 36090, Note_on_c, 9, 53, 0
15, 36120, Note_on_c, 9, 35, 100
15, 36150, Note_on_c, 9, 35, 0
15, 36180, Note_on_c, 9, 53, 100
15, 36210, Note_on_c, 9, 53, 0
15, 36240, Note_on_c, 9, 40, 100
15, 36270, Note_on_c, 9, 40, 0
15, 36300, Note_on_c, 9, 35, 100
15, 36300, Note_on_c, 9, 49, 80
15, 36330, Note_on_c, 9, 49, 0
15, 36330, Note_on_c, 9, 35, 0
15, 36420, Note_on_c, 9, 53, 100
15, 36450, Note_on_c, 9, 53, 0
15, 36480, Note_on_c, 9, 35, 100
15, 36510, Note_on_c, 9, 35, 0
15, 36540, Note_on_c, 9, 53, 100
15, 36570, Note_on_c, 9, 53, 0
15, 36600, Note_on_c, 9, 35, 100
15, 36630, Note_on_c, 9, 35, 0
15, 36660, Note_on_c, 9, 53, 100
15, 36660, Note_on_c, 9, 40, 100
15, 36690, Note_on_c, 9, 40, 0
15, 36690, Note_on_c, 9, 53, 0
15, 36780, Note_on_c, 9, 35, 100
15, 36780, Note_on_c, 9, 53, 100
15, 36810, Note_on_c, 9, 53, 0
15, 36810, Note_on_c, 9, 35, 0
15, 36840, Note_on_c, 9, 35, 100
15, 36870, Note_on_c, 9, 35, 0
15, 36900, Note_on_c, 9, 40, 100
15, 36900, Note_on_c, 9, 53, 100
15, 36930, Note_on_c, 9, 53, 0
15, 36930, Note_on_c, 9, 40, 0
15, 36960, Note_on_c, 9, 40, 100
15, 36990, Note_on_c, 9, 40, 0
15, 37020, Note_on_c, 9, 35, 100
15, 37020, Note_on_c, 9, 57, 80
15, 37050, Note_on_c, 9, 57, 0
15, 37050, Note_on_c, 9, 35, 0
15, 37140, Note_on_c, 9, 53, 100
15, 37170, Note_on_c, 9, 53, 0
15, 37200, Note_on_c, 9, 35, 100
15, 37230, Note_on_c, 9, 35, 0
15, 37260, Note_on_c, 9, 53, 100
15, 37290, Note_on_c, 9, 53, 0
15, 37320, Note_on_c, 9, 35, 100
15, 37350, Note_on_c, 9, 35, 0
15, 37380, Note_on_c, 9, 40, 100
15, 37380, Note_on_c, 9, 53, 100
15, 37410, Note_on_c, 9, 53, 0
15, 37410, Note_on_c, 9, 40, 0
15, 37500, Note_on_c, 9, 53, 100
15, 37530, Note_on_c, 9, 53, 0
15, 37560, Note_on_c, 9, 35, 100
15, 37590, Note_on_c, 9, 35, 0
15, 37620, Note_on_c, 9, 53, 100
15, 37650, Note_on_c, 9, 53, 0
15, 37680, Note_on_c, 9, 35, 100
15, 37710, Note_on_c, 9, 35, 0
15, 37740, Note_on_c, 9, 40, 100
15, 37740, Note_on_c, 9, 53, 100
15, 37770, Note_on_c, 9, 53, 0
15, 37770, Note_on_c, 9, 40, 0
15, 37860, Note_on_c, 9, 53, 100
15, 37890, Note_on_c, 9, 53, 0
15, 37920, Note_on_c, 9, 40, 100
15, 37950, Note_on_c, 9, 40, 0
15, 37980, Note_on_c, 9, 53, 100
15, 38010, Note_on_c, 9, 53, 0
15, 38040, Note_on_c, 9, 35, 100
15, 38070, Note_on_c, 9, 35, 0
15, 38100, Note_on_c, 9, 52, 80
15, 38100, Note_on_c, 9, 40, 100
15, 38130, Note_on_c, 9, 40, 0
15, 38130, Note_on_c, 9, 52, 0
15, 38220, Note_on_c, 9, 52, 80
15, 38220, Note_on_c, 9, 40, 100
15, 38250, Note_on_c, 9, 40, 0
15, 38250, Note_on_c, 9, 52, 0
15, 38340, Note_on_c, 9, 35, 100
15, 38340, Note_on_c, 9, 49, 100
15, 38370, Note_on_c, 9, 49, 0
15, 38370, Note_on_c, 9, 35, 0
15, 38460, Note_on_c, 9, 53, 100
15, 38490, Note_on_c, 9, 53, 0
15, 38520, Note_on_c, 9, 35, 100
15, 38550, Note_on_c, 9, 35, 0
15, 38580, Note_on_c, 9, 53, 100
15, 38610, Note_on_c, 9, 53, 0
15, 38640, Note_on_c, 9, 35, 100
15, 38670, Note_on_c, 9, 35, 0
15, 38700, Note_on_c, 9, 40, 100
15, 38700, Note_on_c, 9, 53, 100
15, 38730, Note_on_c, 9, 53, 0
15, 38730, Note_on_c, 9, 40, 0
15, 38820, Note_on_c, 9, 53, 100
15, 38850, Note_on_c, 9, 53, 0
15, 38880, Note_on_c, 9, 40, 80
15, 38910, Note_on_c, 9, 40, 0
15, 38940, Note_on_c, 9, 53, 100
15, 38970, Note_on_c, 9, 53, 0
15, 39000, Note_on_c, 9, 40, 70
15, 39030, Note_on_c, 9, 40, 0
15, 39060, Note_on_c, 9, 35, 100
15, 39060, Note_on_c, 9, 49, 80
15, 39090, Note_on_c, 9, 49, 0
15, 39090, Note_on_c, 9, 35, 0
15, 39180, Note_on_c, 9, 53, 100
15, 39210, Note_on_c, 9, 53, 0
15, 39240, Note_on_c, 9, 35, 100
15, 39270, Note_on_c, 9, 35, 0
15, 39300, Note_on_c, 9, 53, 100
15, 39330, Note_on_c, 9, 53, 0
15, 39360, Note_on_c, 9, 35, 100
15, 39390, Note_on_c, 9, 35, 0
15, 39420, Note_on_c, 9, 40, 100
15, 39420, Note_on_c, 9, 57, 80
15, 39450, Note_on_c, 9, 57, 0
15, 39450, Note_on_c, 9, 40, 0
15, 39540, Note_on_c, 9, 47, 100
15, 39570, Note_on_c, 9, 47, 0
15, 39600, Note_on_c, 9, 47, 100
15, 39630, Note_on_c, 9, 47, 0
15, 39660, Note_on_c, 9, 45, 100
15, 39690, Note_on_c, 9, 45, 0
15, 39720, Note_on_c, 9, 45, 100
15, 39750, Note_on_c, 9, 45, 0
15, 39780, Note_on_c, 9, 35, 100
15, 39780, Note_on_c, 9, 49, 100
15, 39810, Note_on_c, 9, 49, 0
15, 39810, Note_on_c, 9, 35, 0
15, 39900, Note_on_c, 9, 53, 100
15, 39930, Note_on_c, 9, 53, 0
15, 39960, Note_on_c, 9, 35, 100
15, 39990, Note_on_c, 9, 35, 0
15, 40020, Note_on_c, 9, 53, 100
15, 40050, Note_on_c, 9, 53, 0
15, 40080, Note_on_c, 9, 35, 100
15, 40110, Note_on_c, 9, 35, 0
15, 40140, Note_on_c, 9, 40, 100
15, 40140, Note_on_c, 9, 52, 70
15, 40170, Note_on_c, 9, 52, 0
15, 40170, Note_on_c, 9, 40, 0
15, 40260, Note_on_c, 9, 40, 100
15, 40290, Note_on_c, 9, 40, 0
15, 40320, Note_on_c, 9, 40, 100
15, 40350, Note_on_c, 9, 40, 0
15, 40380, Note_on_c, 9, 40, 100
15, 40410, Note_on_c, 9, 40, 0
15, 40440, Note_on_c, 9, 40, 100
15, 40470, Note_on_c, 9, 40, 0
15, 40500, Note_on_c, 9, 35, 100
15, 40500, Note_on_c, 9, 49, 100
15, 40530, Note_on_c, 9, 49, 0
15, 40530, Note_on_c, 9, 35, 0
15, 40620, Note_on_c, 9, 53, 100
15, 40650, Note_on_c, 9, 53, 0
15, 40680, Note_on_c, 9, 35, 100
15, 40710, Note_on_c, 9, 35, 0
15, 40740, Note_on_c, 9, 40, 100
15, 40740, Note_on_c, 9, 53, 100
15, 40770, Note_on_c, 9, 53, 0
15, 40770, Note_on_c, 9, 40, 0
15, 40860, Note_on_c, 9, 53, 100
15, 40890, Note_on_c, 9, 53, 0
15, 40920, Note_on_c, 9, 35, 100
15, 40950, Note_on_c, 9, 35, 0
15, 40980, Note_on_c, 9, 53, 100
15, 41010, Note_on_c, 9, 53, 0
15, 41040, Note_on_c, 9, 35, 100
15, 41070, Note_on_c, 9, 35, 0
15, 41100, Note_on_c, 9, 40, 100
15, 41100, Note_on_c, 9, 53, 100
15, 41130, Note_on_c, 9, 53, 0
15, 41130, Note_on_c, 9, 40, 0
15, 41160, Note_on_c, 9, 40, 100
15, 41190, Note_on_c, 9, 40, 0
15, 41220, Note_on_c, 9, 35, 100
15, 41220, Note_on_c, 9, 57, 100
15, 41250, Note_on_c, 9, 57, 0
15, 41250, Note_on_c, 9, 35, 0
15, 41340, Note_on_c, 9, 53, 100
15, 41370, Note_on_c, 9, 53, 0
15, 41400, Note_on_c, 9, 35, 100
15, 41430, Note_on_c, 9, 35, 0
15, 41460, Note_on_c, 9, 40, 100
15, 41460, Note_on_c, 9, 53, 100
15, 41490, Note_on_c, 9, 53, 0
15, 41490, Note_on_c, 9, 40, 0
15, 41580, Note_on_c, 9, 53, 100
15, 41610, Note_on_c, 9, 53, 0
15, 41640, Note_on_c, 9, 35, 100
15, 41670, Note_on_c, 9, 35, 0
15, 41700, Note_on_c, 9, 53, 100
15, 41730, Note_on_c, 9, 53, 0
15, 41760, Note_on_c, 9, 35, 100
15, 41790, Note_on_c, 9, 35, 0
15, 41820, Note_on_c, 9, 40, 100
15, 41820, Note_on_c, 9, 52, 100
15, 41850, Note_on_c, 9, 52, 0
15, 41850, Note_on_c, 9, 40, 0
15, 41940, Note_on_c, 9, 35, 100
15, 41940, Note_on_c, 9, 57, 100
15, 41970, Note_on_c, 9, 57, 0
15, 41970, Note_on_c, 9, 35, 0
15, 42060, Note_on_c, 9, 53, 100
15, 42090, Note_on_c, 9, 53, 0
15, 42120, Note_on_c, 9, 35, 100
15, 42150, Note_on_c, 9, 35, 0
15, 42180, Note_on_c, 9, 40, 100
15, 42180, Note_on_c, 9, 53, 100
15, 42210, Note_on_c, 9, 53, 0
15, 42210, Note_on_c, 9, 40, 0
15, 42300, Note_on_c, 9, 53, 100
15, 42330, Note_on_c, 9, 53, 0
15, 42360, Note_on_c, 9, 35, 100
15, 42390, Note_on_c, 9, 35, 0
15, 42420, Note_on_c, 9, 53, 100
15, 42450, Note_on_c, 9, 53, 0
15, 42480, Note_on_c, 9, 35, 100
15, 42510, Note_on_c, 9, 35, 0
15, 42540, Note_on_c, 9, 40, 100
15, 42540, Note_on_c, 9, 52, 100
15, 42570, Note_on_c, 9, 52, 0
15, 42570, Note_on_c, 9, 40, 0
15, 42660, Note_on_c, 9, 57, 100
15, 42660, Note_on_c, 9, 40, 100
15, 42690, Note_on_c, 9, 40, 0
15, 42690, Note_on_c, 9, 57, 0
15, 42780, Note_on_c, 9, 44, 100
15, 42810, Note_on_c, 9, 44, 0
15, 42900, Note_on_c, 9, 44, 100
15, 42930, Note_on_c, 9, 44, 0
15, 42960, Note_on_c, 9, 35, 100
15, 42990, Note_on_c, 9, 35, 0
15, 43020, Note_on_c, 9, 52, 100
15, 43020, Note_on_c, 9, 40, 100
15, 43050, Note_on_c, 9, 40, 0
15, 43050, Note_on_c, 9, 52, 0
15, 43140, Note_on_c, 9, 52, 100
15, 43140, Note_on_c, 9, 40, 100
15, 43170, Note_on_c, 9, 40, 0
15, 43170, Note_on_c, 9, 52, 0
15, 43260, Note_on_c, 9, 35, 100
15, 43260, Note_on_c, 9, 49, 100
15, 43290, Note_on_c, 9, 49, 0
15, 43290, Note_on_c, 9, 35, 0
15, 43380, Note_on_c, 9, 53, 100
15, 43410, Note_on_c, 9, 53, 0
15, 43440, Note_on_c, 9, 35, 100
15, 43470, Note_on_c, 9, 35, 0
15, 43500, Note_on_c, 9, 40, 100
15, 43500, Note_on_c, 9, 53, 100
15, 43530, Note_on_c, 9, 53, 0
15, 43530, Note_on_c, 9, 40, 0
15, 43620, Note_on_c, 9, 53, 100
15, 43650, Note_on_c, 9, 53, 0
15, 43680, Note_on_c, 9, 35, 100
15, 43710, Note_on_c, 9, 35, 0
15, 43740, Note_on_c, 9, 53, 100
15, 43770, Note_on_c, 9, 53, 0
15, 43800, Note_on_c, 9, 35, 100
15, 43830, Note_on_c, 9, 35, 0
15, 43860, Note_on_c, 9, 40, 100
15, 43860, Note_on_c, 9, 53, 100
15, 43890, Note_on_c, 9, 53, 0
15, 43890, Note_on_c, 9, 40, 0
15, 43920, Note_on_c, 9, 40, 100
15, 43950, Note_on_c, 9, 40, 0
15, 43980, Note_on_c, 9, 35, 100
15, 43980, Note_on_c, 9, 57, 100
15, 44010, Note_on_c, 9, 57, 0
15, 44010, Note_on_c, 9, 35, 0
15, 44100, Note_on_c, 9, 53, 100
15, 44130, Note_on_c, 9, 53, 0
15, 44160, Note_on_c, 9, 35, 100
15, 44190, Note_on_c, 9, 35, 0
15, 44220, Note_on_c, 9, 40, 100
15, 44220, Note_on_c, 9, 53, 100
15, 44250, Note_on_c, 9, 53, 0
15, 44250, Note_on_c, 9, 40, 0
15, 44340, Note_on_c, 9, 53, 100
15, 44370, Note_on_c, 9, 53, 0
15, 44400, Note_on_c, 9, 35, 100
15, 44430, Note_on_c, 9, 35, 0
15, 44460, Note_on_c, 9, 53, 100
15, 44490, Note_on_c, 9, 53, 0
15, 44520, Note_on_c, 9, 35, 100
15, 44550, Note_on_c, 9, 35, 0
15, 44580, Note_on_c, 9, 40, 100
15, 44580, Note_on_c, 9, 53, 100
15, 44610, Note_on_c, 9, 53, 0
15, 44610, Note_on_c, 9, 40, 0
15, 44640, Note_on_c, 9, 40, 100
15, 44670, Note_on_c, 9, 40, 0
15, 44700, Note_on_c, 9, 35, 100
15, 44700, Note_on_c, 9, 57, 100
15, 44730, Note_on_c, 9, 57, 0
15, 44730, Note_on_c, 9, 35, 0
15, 44820, Note_on_c, 9, 53, 100
15, 44850, Note_on_c, 9, 53, 0
15, 44880, Note_on_c, 9, 35, 100
15, 44910, Note_on_c, 9, 35, 0
15, 44940, Note_on_c, 9, 40, 100
15, 44940, Note_on_c, 9, 53, 100
15, 44970, Note_on_c, 9, 53, 0
15, 44970, Note_on_c, 9, 40, 0
15, 45060, Note_on_c, 9, 53, 100
15, 45090, Note_on_c, 9, 53, 0
15, 45120, Note_on_c, 9, 35, 100
15, 45150, Note_on_c, 9, 35, 0
15, 45180, Note_on_c, 9, 53, 100
15, 45210, Note_on_c, 9, 53, 0
15, 45240, Note_on_c, 9, 35, 100
15, 45270, Note_on_c, 9, 35, 0
15, 45300, Note_on_c, 9, 40, 100
15, 45300, Note_on_c, 9, 53, 100
15, 45330, Note_on_c, 9, 53, 0
15, 45330, Note_on_c, 9, 40, 0
15, 45360, Note_on_c, 9, 40, 100
15, 45390, Note_on_c, 9, 40, 0
15, 45420, Note_on_c, 9, 35, 100
15, 45420, Note_on_c, 9, 49, 100
15, 45450, Note_on_c, 9, 49, 0
15, 45450, Note_on_c, 9, 35, 0
15, 45540, Note_on_c, 9, 40, 80
15, 45570, Note_on_c, 9, 40, 0
15, 45600, Note_on_c, 9, 57, 100
15, 45600, Note_on_c, 9, 35, 100
15, 45630, Note_on_c, 9, 35, 0
15, 45630, Note_on_c, 9, 57, 0
15, 45720, Note_on_c, 9, 40, 80
15, 45750, Note_on_c, 9, 40, 0
15, 45780, Note_on_c, 9, 55, 100
15, 45780, Note_on_c, 9, 35, 100
15, 45810, Note_on_c, 9, 35, 0
15, 45810, Note_on_c, 9, 55, 0
15, 45900, Note_on_c, 9, 49, 100
15, 45900, Note_on_c, 9, 35, 100
15, 45930, Note_on_c, 9, 35, 0
15, 45930, Note_on_c, 9, 49, 0
15, 45930, Note_on_c, 9, 40, 55
15, 45960, Note_on_c, 9, 40, 0
15, 45960, Note_on_c, 9, 40, 63
15, 45990, Note_on_c, 9, 40, 0
15, 45990, Note_on_c, 9, 40, 71
15, 46020, Note_on_c, 9, 40, 0
15, 46020, Note_on_c, 9, 40, 79
15, 46050, Note_on_c, 9, 40, 0
15, 46080, Note_on_c, 9, 40, 95
15, 46110, Note_on_c, 9, 40, 0
15, 46140, Note_on_c, 9, 40, 100
15, 46170, Note_on_c, 9, 40, 0
15, 46200, Note_on_c, 9, 47, 100
15, 46230, Note_on_c, 9, 47, 0
15, 46260, Note_on_c, 9, 45, 100
15, 46290, Note_on_c, 9, 45, 0
15, 46320, Note_on_c, 9, 41, 100
15, 46350, Note_on_c, 9, 41, 0
15, 46380, Note_on_c, 9, 35, 75
15, 46380, Note_on_c, 9, 49, 75
15, 46410, Note_on_c, 9, 49, 0
15, 46410, Note_on_c, 9, 35, 0
15, 46500, Note_on_c, 9, 51, 75
15, 46530, Note_on_c, 9, 51, 0
15, 46560, Note_on_c, 9, 35, 75
15, 46590, Note_on_c, 9, 35, 0
15, 46620, Note_on_c, 9, 40, 75
15, 46620, Note_on_c, 9, 51, 75
15, 46650, Note_on_c, 9, 51, 0
15, 46650, Note_on_c, 9, 40, 0
15, 46740, Note_on_c, 9, 35, 75
15, 46740, Note_on_c, 9, 51, 75
15, 46770, Note_on_c, 9, 51, 0
15, 46770, Note_on_c, 9, 35, 0
15, 46860, Note_on_c, 9, 51, 75
15, 46890, Note_on_c, 9, 51, 0
15, 46920, Note_on_c, 9, 35, 75
15, 46950, Note_on_c, 9, 35, 0
15, 46980, Note_on_c, 9, 35, 75
15, 46980, Note_on_c, 9, 51, 75
15, 47010, Note_on_c, 9, 51, 0
15, 47010, Note_on_c, 9, 35, 0
15, 47100, Note_on_c, 9, 40, 75
15, 47100, Note_on_c, 9, 51, 75
15, 47130, Note_on_c, 9, 51, 0
15, 47130, Note_on_c, 9, 40, 0
15, 47220, Note_on_c, 9, 35, 75
15, 47220, Note_on_c, 9, 51, 75
15, 47250, Note_on_c, 9, 51, 0
15, 47250, Note_on_c, 9, 35, 0
15, 47340, Note_on_c, 9, 35, 75
15, 47340, Note_on_c, 9, 51, 75
15, 47370, Note_on_c, 9, 51, 0
15, 47370, Note_on_c, 9, 35, 0
15, 47460, Note_on_c, 9, 51, 75
15, 47490, Note_on_c, 9, 51, 0
15, 47520, Note_on_c, 9, 35, 75
15, 47550, Note_on_c, 9, 35, 0
15, 47580, Note_on_c, 9, 40, 75
15, 47580, Note_on_c, 9, 51, 75
15, 47610, Note_on_c, 9, 51, 0
15, 47610, Note_on_c, 9, 40, 0
15, 47700, Note_on_c, 9, 35, 75
15, 47700, Note_on_c, 9, 51, 75
15, 47730, Note_on_c, 9, 51, 0
15, 47730, Note_on_c, 9, 35, 0
15, 47820, Note_on_c, 9, 51, 75
15, 47850, Note_on_c, 9, 51, 0
15, 47880, Note_on_c, 9, 35, 75
15, 47910, Note_on_c, 9, 35, 0
15, 47940, Note_on_c, 9, 35, 75
15, 47940, Note_on_c, 9, 51, 75
15, 47970, Note_on_c, 9, 51, 0
15, 47970, Note_on_c, 9, 35, 0
15, 48060, Note_on_c, 9, 40, 75
15, 48060, Note_on_c, 9, 51, 75
15, 48090, Note_on_c, 9, 51, 0
15, 48090, Note_on_c, 9, 40, 0
15, 48120, Note_on_c, 9, 35, 75
15, 48150, Note_on_c, 9, 35, 0
15, 48180, Note_on_c, 9, 35, 75
15, 48180, Note_on_c, 9, 51, 75
15, 48210, Note_on_c, 9, 51, 0
15, 48210, Note_on_c, 9, 35, 0
15, 48300, Note_on_c, 9, 35, 75
15, 48300, Note_on_c, 9, 51, 75
15, 48330, Note_on_c, 9, 51, 0
15, 48330, Note_on_c, 9, 35, 0
15, 48420, Note_on_c, 9, 51, 75
15, 48450, Note_on_c, 9, 51, 0
15, 48480, Note_on_c, 9, 35, 75
15, 48510, Note_on_c, 9, 35, 0
15, 48540, Note_on_c, 9, 40, 75
15, 48540, Note_on_c, 9, 51, 75
15, 48570, Note_on_c, 9, 51, 0
15, 48570, Note_on_c, 9, 40, 0
15, 48660, Note_on_c, 9, 35, 75
15, 48660, Note_on_c, 9, 51, 75
15, 48690, Note_on_c, 9, 51, 0
15, 48690, Note_on_c, 9, 35, 0
15, 48780, Note_on_c, 9, 35, 75
15, 48780, Note_on_c, 9, 51, 75
15, 48810, Note_on_c, 9, 51, 0
15, 48810, Note_on_c, 9, 35, 0
15, 48900, Note_on_c, 9, 51, 75
15, 48930, Note_on_c, 9, 51, 0
15, 48960, Note_on_c, 9, 35, 75
15, 48990, Note_on_c, 9, 35, 0
15, 49020, Note_on_c, 9, 40, 75
15, 49020, Note_on_c, 9, 51, 75
15, 49050, Note_on_c, 9, 51, 0
15, 49050, Note_on_c, 9, 40, 0
15, 49140, Note_on_c, 9, 35, 75
15, 49140, Note_on_c, 9, 51, 75
15, 49170, Note_on_c, 9, 51, 0
15, 49170, Note_on_c, 9, 35, 0
15, 49260, Note_on_c, 9, 35, 75
15, 49260, Note_on_c, 9, 51, 75
15, 49290, Note_on_c, 9, 51, 0
15, 49290, Note_on_c, 9, 35, 0
15, 49380, Note_on_c, 9, 51, 75
15, 49410, Note_on_c, 9, 51, 0
15, 49440, Note_on_c, 9, 35, 75
15, 49470, Note_on_c, 9, 35, 0
15, 49500, Note_on_c, 9, 40, 75
15, 49500, Note_on_c, 9, 51, 75
15, 49530, Note_on_c, 9, 51, 0
15, 49530, Note_on_c, 9, 40, 0
15, 49620, Note_on_c, 9, 35, 75
15, 49620, Note_on_c, 9, 51, 75
15, 49650, Note_on_c, 9, 51, 0
15, 49650, Note_on_c, 9, 35, 0
15, 49740, Note_on_c, 9, 35, 75
15, 49740, Note_on_c, 9, 51, 75
15, 49770, Note_on_c, 9, 51, 0
15, 49770, Note_on_c, 9, 35, 0
15, 49800, Note_on_c, 9, 40, 75
15, 49830, Note_on_c, 9, 40, 0
15, 49830, Note_on_c, 9, 40, 75
15, 49860, Note_on_c, 9, 40, 0
15, 49860, Note_on_c, 9, 40, 75
15, 49890, Note_on_c, 9, 40, 0
15, 49920, Note_on_c, 9, 40, 75
15, 49950, Note_on_c, 9, 40, 0
15, 49980, Note_on_c, 9, 40, 75
15, 50010, Note_on_c, 9, 40, 0
15, 50040, Note_on_c, 9, 40, 75
15, 50070, Note_on_c, 9, 40, 0
15, 50100, Note_on_c, 9, 57, 75
15, 50100, Note_on_c, 9, 35, 75
15, 50130, Note_on_c, 9, 35, 0
15, 50130, Note_on_c, 9, 57, 0
15, 50160, Note_on_c, 9, 55, 75
15, 50160, Note_on_c, 9, 35, 75
15, 50190, Note_on_c, 9, 35, 0
15, 50190, Note_on_c, 9, 55, 0
15, 50220, Note_on_c, 9, 35, 75
15, 50220, Note_on_c, 9, 49, 75
15, 50250, Note_on_c, 9, 49, 0
15, 50250, Note_on_c, 9, 35, 0
15, 50340, Note_on_c, 9, 51, 75
15, 50370, Note_on_c, 9, 51, 0
15, 50400, Note_on_c, 9, 35, 75
15, 50430, Note_on_c, 9, 35, 0
15, 50460, Note_on_c, 9, 40, 75
15, 50460, Note_on_c, 9, 52, 75
15, 50490, Note_on_c, 9, 52, 0
15, 50490, Note_on_c, 9, 40, 0
15, 50580, Note_on_c, 9, 35, 75
15, 50580, Note_on_c, 9, 51, 75
15, 50610, Note_on_c, 9, 51, 0
15, 50610, Note_on_c, 9, 35, 0
15, 50700, Note_on_c, 9, 51, 75
15, 50730, Note_on_c, 9, 51, 0
15, 50820, Note_on_c, 9, 35, 75
15, 50820, Note_on_c, 9, 51, 75
15, 50850, Note_on_c, 9, 51, 0
15, 50850, Note_on_c, 9, 35, 0
15, 50940, Note_on_c, 9, 40, 75
15, 50940, Note_on_c, 9, 51, 75
15, 50970, Note_on_c, 9, 51, 0
15, 50970, Note_on_c, 9, 40, 0
15, 51000, Note_on_c, 9, 35, 75
15, 51030, Note_on_c, 9, 35, 0
15, 51060, Note_on_c, 9, 35, 75
15, 51060, Note_on_c, 9, 51, 75
15, 51090, Note_on_c, 9, 51, 0
15, 51090, Note_on_c, 9, 35, 0
15, 51180, Note_on_c, 9, 35, 75
15, 51180, Note_on_c, 9, 51, 75
15, 51210, Note_on_c, 9, 51, 0
15, 51210, Note_on_c, 9, 35, 0
15, 51300, Note_on_c, 9, 51, 75
15, 51330, Note_on_c, 9, 51, 0
15, 51360, Note_on_c, 9, 35, 75
15, 51390, Note_on_c, 9, 35, 0
15, 51420, Note_on_c, 9, 40, 75
15, 51420, Note_on_c, 9, 51, 75
15, 51450, Note_on_c, 9, 51, 0
15, 51450, Note_on_c, 9, 40, 0
15, 51540, Note_on_c, 9, 35, 75
15, 51540, Note_on_c, 9, 51, 75
15, 51570, Note_on_c, 9, 51, 0
15, 51570, Note_on_c, 9, 35, 0
15, 51660, Note_on_c, 9, 51, 75
15, 51690, Note_on_c, 9, 51, 0
15, 51720, Note_on_c, 9, 35, 75
15, 51750, Note_on_c, 9, 35, 0
15, 51780, Note_on_c, 9, 51, 75
15, 51810, Note_on_c, 9, 51, 0
15, 51900, Note_on_c, 9, 40, 75
15, 51900, Note_on_c, 9, 51, 75
15, 51930, Note_on_c, 9, 51, 0
15, 51930, Note_on_c, 9, 40, 0
15, 51960, Note_on_c, 9, 35, 75
15, 51990, Note_on_c, 9, 35, 0
15, 52020, Note_on_c, 9, 35, 75
15, 52020, Note_on_c, 9, 51, 75
15, 52050, Note_on_c, 9, 51, 0
15, 52050, Note_on_c, 9, 35, 0
15, 52140, Note_on_c, 9, 35, 75
15, 52140, Note_on_c, 9, 51, 75
15, 52170, Note_on_c, 9, 51, 0
15, 52170, Note_on_c, 9, 35, 0
15, 52260, Note_on_c, 9, 51, 75
15, 52290, Note_on_c, 9, 51, 0
15, 52320, Note_on_c, 9, 35, 75
15, 52350, Note_on_c, 9, 35, 0
15, 52380, Note_on_c, 9, 40, 75
15, 52380, Note_on_c, 9, 51, 75
15, 52410, Note_on_c, 9, 51, 0
15, 52410, Note_on_c, 9, 40, 0
15, 52500, Note_on_c, 9, 35, 75
15, 52500, Note_on_c, 9, 57, 75
15, 52530, Note_on_c, 9, 57, 0
15, 52530, Note_on_c, 9, 35, 0
15, 52620, Note_on_c, 9, 35, 75
15, 52620, Note_on_c, 9, 49, 75
15, 52650, Note_on_c, 9, 49, 0
15, 52650, Note_on_c, 9, 35, 0
15, 52740, Note_on_c, 9, 51, 75
15, 52770, Note_on_c, 9, 51, 0
15, 52800, Note_on_c, 9, 35, 75
15, 52830, Note_on_c, 9, 35, 0
15, 52860, Note_on_c, 9, 40, 75
15, 52860, Note_on_c, 9, 51, 75
15, 52890, Note_on_c, 9, 51, 0
15, 52890, Note_on_c, 9, 40, 0
15, 52980, Note_on_c, 9, 35, 75
15, 52980, Note_on_c, 9, 57, 75
15, 53010, Note_on_c, 9, 57, 0
15, 53010, Note_on_c, 9, 35, 0
15, 53100, Note_on_c, 9, 35, 100
15, 53100, Note_on_c, 9, 49, 100
15, 53130, Note_on_c, 9, 49, 0
15, 53130, Note_on_c, 9, 35, 0
15, 53220, Note_on_c, 9, 40, 35
15, 53220, Note_on_c, 9, 41, 35
15, 53220, Note_on_c, 9, 35, 35
15, 53250, Note_on_c, 9, 35, 0
15, 53250, Note_on_c, 9, 41, 0
15, 53250, Note_on_c, 9, 40, 0
15, 53280, Note_on_c, 9, 40, 39
15, 53280, Note_on_c, 9, 41, 39
15, 53280, Note_on_c, 9, 35, 39
15, 53310, Note_on_c, 9, 35, 0
15, 53310, Note_on_c, 9, 41, 0
15, 53310, Note_on_c, 9, 40, 0
15, 53340, Note_on_c, 9, 40, 44
15, 53340, Note_on_c, 9, 41, 44
15, 53340, Note_on_c, 9, 35, 44
15, 53370, Note_on_c, 9, 35, 0
15, 53370, Note_on_c, 9, 41, 0
15, 53370, Note_on_c, 9, 40, 0
15, 53400, Note_on_c, 9, 40, 48
15, 53400, Note_on_c, 9, 41, 48
15, 53400, Note_on_c, 9, 35, 48
15, 53430, Note_on_c, 9, 35, 0
15, 53430, Note_on_c, 9, 41, 0
15, 53430, Note_on_c, 9, 40, 0
15, 53460, Note_on_c, 9, 40, 53
15, 53460, Note_on_c, 9, 41, 53
15, 53460, Note_on_c, 9, 35, 53
15, 53490, Note_on_c, 9, 35, 0
15, 53490, Note_on_c, 9, 41, 0
15, 53490, Note_on_c, 9, 40, 0
15, 53520, Note_on_c, 9, 40, 58
15, 53520, Note_on_c, 9, 41, 58
15, 53520, Note_on_c, 9, 35, 58
15, 53550, Note_on_c, 9, 35, 0
15, 53550, Note_on_c, 9, 41, 0
15, 53550, Note_on_c, 9, 40, 0
15, 53580, Note_on_c, 9, 40, 62
15, 53580, Note_on_c, 9, 41, 62
15, 53580, Note_on_c, 9, 35, 62
15, 53610, Note_on_c, 9, 35, 0
15, 53610, Note_on_c, 9, 41, 0
15, 53610, Note_on_c, 9, 40, 0
15, 53640, Note_on_c, 9, 40, 67
15, 53640, Note_on_c, 9, 35, 67
15, 53640, Note_on_c, 9, 41, 67
15, 53670, Note_on_c, 9, 41, 0
15, 53670, Note_on_c, 9, 35, 0
15, 53670, Note_on_c, 9, 40, 0
15, 53700, Note_on_c, 9, 40, 71
15, 53700, Note_on_c, 9, 41, 71
15, 53700, Note_on_c, 9, 35, 71
15, 53730, Note_on_c, 9, 35, 0
15, 53730, Note_on_c, 9, 41, 0
15, 53730, Note_on_c, 9, 40, 0
15, 53760, Note_on_c, 9, 40, 76
15, 53760, Note_on_c, 9, 41, 76
15, 53760, Note_on_c, 9, 35, 76
15, 53790, Note_on_c, 9, 35, 0
15, 53790, Note_on_c, 9, 41, 0
15, 53790, Note_on_c, 9, 40, 0
15, 53820, Note_on_c, 9, 40, 81
15, 53820, Note_on_c, 9, 41, 81
15, 53820, Note_on_c, 9, 35, 81
15, 53850, Note_on_c, 9, 35, 0
15, 53850, Note_on_c, 9, 41, 0
15, 53850, Note_on_c, 9, 40, 0
15, 53880, Note_on_c, 9, 40, 85
15, 53880, Note_on_c, 9, 41, 85
15, 53880, Note_on_c, 9, 35, 85
15, 53910, Note_on_c, 9, 35, 0
15, 53910, Note_on_c, 9, 41, 0
15, 53910, Note_on_c, 9, 40, 0
15, 53940, Note_on_c, 9, 40, 90
15, 53940, Note_on_c, 9, 41, 90
15, 53940, Note_on_c, 9, 35, 90
15, 53970, Note_on_c, 9, 35, 0
15, 53970, Note_on_c, 9, 41, 0
15, 53970, Note_on_c, 9, 40, 0
15, 54000, Note_on_c, 9, 40, 95
15, 54000, Note_on_c, 9, 41, 95
15, 54000, Note_on_c, 9, 35, 95
15, 54030, Note_on_c, 9, 35, 0
15, 54030, Note_on_c, 9, 41, 0
15, 54030, Note_on_c, 9, 40, 0
15, 54060, Note_on_c, 9, 52, 127
15, 54090, Note_on_c, 9, 52, 0
15, 54120, Note_on_c, 9, 35, 100
15, 54150, Note_on_c, 9, 35, 0
15, 54180, Note_on_c, 9, 46, 100
15, 54210, Note_on_c, 9, 46, 0
15, 54240, Note_on_c, 9, 35, 100
15, 54270, Note_on_c, 9, 35, 0
15, 54300, Note_on_c, 9, 46, 100
15, 54300, Note_on_c, 9, 40, 100
15, 54330, Note_on_c, 9, 40, 0
15, 54330, Note_on_c, 9, 46, 0
15, 54420, Note_on_c, 9, 46, 100
15, 54450, Note_on_c, 9, 46, 0
15, 54480, Note_on_c, 9, 35, 100
15, 54510, Note_on_c, 9, 35, 0
15, 54540, Note_on_c, 9, 46, 100
15, 54570, Note_on_c, 9, 46, 0
15, 54660, Note_on_c, 9, 35, 100
15, 54660, Note_on_c, 9, 46, 100
15, 54690, Note_on_c, 9, 46, 0
15, 54690, Note_on_c, 9, 35, 0
15, 54780, Note_on_c, 9, 40, 100
15, 54780, Note_on_c, 9, 46, 100
15, 54810, Note_on_c, 9, 46, 0
15, 54810, Note_on_c, 9, 40, 0
15, 54840, Note_on_c, 9, 35, 100
15, 54870, Note_on_c, 9, 35, 0
15, 54900, Note_on_c, 9, 46, 100
15, 54930, Note_on_c, 9, 46, 0
15, 55020, Note_on_c, 9, 35, 100
15, 55020, Note_on_c, 9, 46, 100
15, 55050, Note_on_c, 9, 46, 0
15, 55050, Note_on_c, 9, 35, 0
15, 55080, Note_on_c, 9, 40, 70
15, 55110, Note_on_c, 9, 40, 0
15, 55140, Note_on_c, 9, 46, 100
15, 55140, Note_on_c, 9, 35, 100
15, 55170, Note_on_c, 9, 35, 0
15, 55170, Note_on_c, 9, 46, 0
15, 55200, Note_on_c, 9, 46, 100
15, 55200, Note_on_c, 9, 35, 100
15, 55230, Note_on_c, 9, 35, 0
15, 55230, Note_on_c, 9, 46, 0
15, 55320, Note_on_c, 9, 46, 100
15, 55350, Note_on_c, 9, 46, 0
15, 55380, Note_on_c, 9, 35, 100
15, 55410, Note_on_c, 9, 35, 0
15, 55440, Note_on_c, 9, 46, 100
15, 55470, Note_on_c, 9, 46, 0
15, 55500, Note_on_c, 9, 35, 100
15, 55530, Note_on_c, 9, 35, 0
15, 55560, Note_on_c, 9, 40, 100
15, 55560, Note_on_c, 9, 46, 100
15, 55590, Note_on_c, 9, 46, 0
15, 55590, Note_on_c, 9, 40, 0
15, 55620, Note_on_c, 9, 35, 100
15, 55650, Note_on_c, 9, 35, 0
15, 55680, Note_on_c, 9, 46, 100
15, 55710, Note_on_c, 9, 46, 0
15, 55740, Note_on_c, 9, 35, 100
15, 55770, Note_on_c, 9, 35, 0
15, 55800, Note_on_c, 9, 46, 100
15, 55830, Note_on_c, 9, 46, 0
15, 55920, Note_on_c, 9, 46, 100
15, 55920, Note_on_c, 9, 35, 100
15, 55950, Note_on_c, 9, 35, 0
15, 55950, Note_on_c, 9, 46, 0
15, 56040, Note_on_c, 9, 46, 100
15, 56040, Note_on_c, 9, 40, 100
15, 56070, Note_on_c, 9, 40, 0
15, 56070, Note_on_c, 9, 46, 0
15, 56100, Note_on_c, 9, 35, 100
15, 56130, Note_on_c, 9, 35, 0
15, 56160, Note_on_c, 9, 46, 100
15, 56190, Note_on_c, 9, 46, 0
15, 56280, Note_on_c, 9, 35, 100
15, 56280, Note_on_c, 9, 46, 100
15, 56310, Note_on_c, 9, 46, 0
15, 56310, Note_on_c, 9, 35, 0
15, 56340, Note_on_c, 9, 40, 80
15, 56370, Note_on_c, 9, 40, 0
15, 56400, Note_on_c, 9, 35, 100
15, 56400, Note_on_c, 9, 46, 100
15, 56430, Note_on_c, 9, 46, 0
15, 56430, Note_on_c, 9, 35, 0
15, 56460, Note_on_c, 9, 40, 80
15, 56490, Note_on_c, 9, 40, 0
15, 56520, Note_on_c, 9, 35, 100
15, 56520, Note_on_c, 9, 46, 100
15, 56550, Note_on_c, 9, 46, 0
15, 56550, Note_on_c, 9, 35, 0
15, 56580, Note_on_c, 9, 40, 80
15, 56610, Note_on_c, 9, 40, 0
15, 56640, Note_on_c, 9, 46, 100
15, 56640, Note_on_c, 9, 35, 100
15, 56670, Note_on_c, 9, 35, 0
15, 56670, Note_on_c, 9, 46, 0
15, 56700, Note_on_c, 9, 55, 70
15, 56700, Note_on_c, 9, 52, 70
15, 56700, Note_on_c, 9, 35, 100
15, 56730, Note_on_c, 9, 35, 0
15, 56730, Note_on_c, 9, 52, 0
15, 56730, Note_on_c, 9, 55, 0
15, 56820, Note_on_c, 9, 46, 100
15, 56850, Note_on_c, 9, 46, 0
15, 56880, Note_on_c, 9, 35, 100
15, 56910, Note_on_c, 9, 35, 0
15, 56940, Note_on_c, 9, 40, 100
15, 56940, Note_on_c, 9, 46, 100
15, 56970, Note_on_c, 9, 46, 0
15, 56970, Note_on_c, 9, 40, 0
15, 57060, Note_on_c, 9, 46, 100
15, 57090, Note_on_c, 9, 46, 0
15, 57120, Note_on_c, 9, 35, 100
15, 57150, Note_on_c, 9, 35, 0
15, 57180, Note_on_c, 9, 46, 100
15, 57210, Note_on_c, 9, 46, 0
15, 57300, Note_on_c, 9, 35, 100
15, 57300, Note_on_c, 9, 46, 100
15, 57330, Note_on_c, 9, 46, 0
15, 57330, Note_on_c, 9, 35, 0
15, 57420, Note_on_c, 9, 40, 100
15, 57420, Note_on_c, 9, 46, 100
15, 57450, Note_on_c, 9, 46, 0
15, 57450, Note_on_c, 9, 40, 0
15, 57480, Note_on_c, 9, 35, 100
15, 57510, Note_on_c, 9, 35, 0
15, 57540, Note_on_c, 9, 46, 100
15, 57570, Note_on_c, 9, 46, 0
15, 57660, Note_on_c, 9, 35, 100
15, 57660, Note_on_c, 9, 46, 100
15, 57690, Note_on_c, 9, 46, 0
15, 57690, Note_on_c, 9, 35, 0
15, 57720, Note_on_c, 9, 40, 70
15, 57750, Note_on_c, 9, 40, 0
15, 57780, Note_on_c, 9, 35, 80
15, 57780, Note_on_c, 9, 46, 100
15, 57810, Note_on_c, 9, 46, 0
15, 57810, Note_on_c, 9, 35, 0
15, 57840, Note_on_c, 9, 35, 100
15, 57840, Note_on_c, 9, 46, 100
15, 57870, Note_on_c, 9, 46, 0
15, 57870, Note_on_c, 9, 35, 0
15, 57960, Note_on_c, 9, 46, 100
15, 57990, Note_on_c, 9, 46, 0
15, 58020, Note_on_c, 9, 35, 100
15, 58050, Note_on_c, 9, 35, 0
15, 58080, Note_on_c, 9, 46, 100
15, 58110, Note_on_c, 9, 46, 0
15, 58140, Note_on_c, 9, 35, 100
15, 58170, Note_on_c, 9, 35, 0
15, 58200, Note_on_c, 9, 46, 100
15, 58200, Note_on_c, 9, 40, 100
15, 58230, Note_on_c, 9, 40, 0
15, 58230, Note_on_c, 9, 46, 0
15, 58320, Note_on_c, 9, 46, 100
15, 58350, Note_on_c, 9, 46, 0
15, 58380, Note_on_c, 9, 35, 100
15, 58410, Note_on_c, 9, 35, 0
15, 58440, Note_on_c, 9, 46, 100
15, 58470, Note_on_c, 9, 46, 0
15, 58560, Note_on_c, 9, 35, 100
15, 58560, Note_on_c, 9, 46, 100
15, 58590, Note_on_c, 9, 46, 0
15, 58590, Note_on_c, 9, 35, 0
15, 58680, Note_on_c, 9, 40, 100
15, 58680, Note_on_c, 9, 46, 100
15, 58710, Note_on_c, 9, 46, 0
15, 58710, Note_on_c, 9, 40, 0
15, 58740, Note_on_c, 9, 35, 100
15, 58770, Note_on_c, 9, 35, 0
15, 58800, Note_on_c, 9, 46, 100
15, 58830, Note_on_c, 9, 46, 0
15, 58920, Note_on_c, 9, 46, 100
15, 58950, Note_on_c, 9, 46, 0
15, 58980, Note_on_c, 9, 40, 100
15, 59010, Note_on_c, 9, 40, 0
15, 59040, Note_on_c, 9, 46, 100
15, 59070, Note_on_c, 9, 46, 0
15, 59100, Note_on_c, 9, 40, 100
15, 59130, Note_on_c, 9, 40, 0
15, 59160, Note_on_c, 9, 40, 100
15, 59190, Note_on_c, 9, 40, 0
15, 59280, Note_on_c, 9, 46, 100
15, 59310, Note_on_c, 9, 46, 0
15, 59340, Note_on_c, 9, 40, 100
15, 59370, Note_on_c, 9, 40, 0
15, 59400, Note_on_c, 9, 46, 100
15, 59430, Note_on_c, 9, 46, 0
15, 59460, Note_on_c, 9, 40, 100
15, 59490, Note_on_c, 9, 40, 0
15, 59520, Note_on_c, 9, 40, 100
15, 59550, Note_on_c, 9, 40, 0
15, 59640, Note_on_c, 9, 35, 100
15, 59640, Note_on_c, 9, 49, 100
15, 59670, Note_on_c, 9, 49, 0
15, 59670, Note_on_c, 9, 35, 0
15, 59700, Note_on_c, 9, 53, 100
15, 59730, Note_on_c, 9, 53, 0
15, 59760, Note_on_c, 9, 44, 70
15, 59790, Note_on_c, 9, 44, 0
15, 59820, Note_on_c, 9, 53, 100
15, 59850, Note_on_c, 9, 53, 0
15, 59880, Note_on_c, 9, 44, 70
15, 59910, Note_on_c, 9, 44, 0
15, 59940, Note_on_c, 9, 53, 65
15, 59970, Note_on_c, 9, 53, 0
15, 60000, Note_on_c, 9, 40, 100
15, 60030, Note_on_c, 9, 40, 0
15, 60060, Note_on_c, 9, 53, 100
15, 60090, Note_on_c, 9, 53, 0
15, 60120, Note_on_c, 9, 44, 100
15, 60120, Note_on_c, 9, 53, 100
15, 60150, Note_on_c, 9, 53, 0
15, 60150, Note_on_c, 9, 44, 0
15, 60240, Note_on_c, 9, 44, 100
15, 60240, Note_on_c, 9, 53, 100
15, 60270, Note_on_c, 9, 53, 0
15, 60270, Note_on_c, 9, 44, 0
15, 60360, Note_on_c, 9, 35, 100
15, 60360, Note_on_c, 9, 57, 60
15, 60390, Note_on_c, 9, 57, 0
15, 60390, Note_on_c, 9, 35, 0
15, 60420, Note_on_c, 9, 53, 100
15, 60450, Note_on_c, 9, 53, 0
15, 60480, Note_on_c, 9, 44, 70
15, 60510, Note_on_c, 9, 44, 0
15, 60540, Note_on_c, 9, 53, 100
15, 60570, Note_on_c, 9, 53, 0
15, 60600, Note_on_c, 9, 44, 70
15, 60630, Note_on_c, 9, 44, 0
15, 60660, Note_on_c, 9, 53, 65
15, 60690, Note_on_c, 9, 53, 0
15, 60720, Note_on_c, 9, 40, 100
15, 60750, Note_on_c, 9, 40, 0
15, 60780, Note_on_c, 9, 53, 100
15, 60810, Note_on_c, 9, 53, 0
15, 60840, Note_on_c, 9, 44, 100
15, 60840, Note_on_c, 9, 53, 100
15, 60870, Note_on_c, 9, 53, 0
15, 60870, Note_on_c, 9, 44, 0
15, 60960, Note_on_c, 9, 44, 100
15, 60960, Note_on_c, 9, 53, 100
15, 60990, Note_on_c, 9, 53, 0
15, 60990, Note_on_c, 9, 44, 0
15, 61080, Note_on_c, 9, 49, 60
15, 61080, Note_on_c, 9, 35, 100
15, 61110, Note_on_c, 9, 35, 0
15, 61110, Note_on_c, 9, 49, 0
15, 61140, Note_on_c, 9, 53, 100
15, 61170, Note_on_c, 9, 53, 0
15, 61200, Note_on_c, 9, 44, 70
15, 61230, Note_on_c, 9, 44, 0
15, 61260, Note_on_c, 9, 53, 100
15, 61290, Note_on_c, 9, 53, 0
15, 61320, Note_on_c, 9, 44, 70
15, 61350, Note_on_c, 9, 44, 0
15, 61380, Note_on_c, 9, 53, 65
15, 61410, Note_on_c, 9, 53, 0
15, 61440, Note_on_c, 9, 40, 100
15, 61470, Note_on_c, 9, 40, 0
15, 61500, Note_on_c, 9, 53, 100
15, 61530, Note_on_c, 9, 53, 0
15, 61560, Note_on_c, 9, 44, 100
15, 61560, Note_on_c, 9, 53, 100
15, 61590, Note_on_c, 9, 53, 0
15, 61590, Note_on_c, 9, 44, 0
15, 61680, Note_on_c, 9, 44, 100
15, 61680, Note_on_c, 9, 53, 100
15, 61710, Note_on_c, 9, 53, 0
15, 61710, Note_on_c, 9, 44, 0
15, 61800, Note_on_c, 9, 35, 100
15, 61800, Note_on_c, 9, 57, 60
15, 61830, Note_on_c, 9, 57, 0
15, 61830, Note_on_c, 9, 35, 0
15, 61860, Note_on_c, 9, 53, 100
15, 61890, Note_on_c, 9, 53, 0
15, 61920, Note_on_c, 9, 44, 70
15, 61950, Note_on_c, 9, 44, 0
15, 61980, Note_on_c, 9, 53, 100
15, 62010, Note_on_c, 9, 53, 0
15, 62040, Note_on_c, 9, 44, 70
15, 62070, Note_on_c, 9, 44, 0
15, 62100, Note_on_c, 9, 35, 65
15, 62130, Note_on_c, 9, 35, 0
15, 62160, Note_on_c, 9, 41, 90
15, 62160, Note_on_c, 9, 40, 90
15, 62160, Note_on_c, 9, 35, 90
15, 62190, Note_on_c, 9, 35, 0
15, 62190, Note_on_c, 9, 40, 0
15, 62190, Note_on_c, 9, 41, 0
15, 62520, Note_on_c, 9, 35, 100
15, 62520, Note_on_c, 9, 49, 100
15, 62550, Note_on_c, 9, 49, 0
15, 62550, Note_on_c, 9, 35, 0
15, 62580, Note_on_c, 9, 53, 100
15, 62610, Note_on_c, 9, 53, 0
15, 62640, Note_on_c, 9, 44, 70
15, 62670, Note_on_c, 9, 44, 0
15, 62700, Note_on_c, 9, 53, 100
15, 62730, Note_on_c, 9, 53, 0
15, 62760, Note_on_c, 9, 44, 70
15, 62790, Note_on_c, 9, 44, 0
15, 62820, Note_on_c, 9, 53, 65
15, 62850, Note_on_c, 9, 53, 0
15, 62880, Note_on_c, 9, 40, 100
15, 62910, Note_on_c, 9, 40, 0
15, 62940, Note_on_c, 9, 53, 100
15, 62970, Note_on_c, 9, 53, 0
15, 63000, Note_on_c, 9, 44, 100
15, 63000, Note_on_c, 9, 53, 100
15, 63030, Note_on_c, 9, 53, 0
15, 63030, Note_on_c, 9, 44, 0
15, 63120, Note_on_c, 9, 44, 100
15, 63120, Note_on_c, 9, 53, 100
15, 63150, Note_on_c, 9, 53, 0
15, 63150, Note_on_c, 9, 44, 0
15, 63180, Note_on_c, 9, 46, 100
15, 63210, Note_on_c, 9, 46, 0
15, 63240, Note_on_c, 9, 44, 65
15, 63240, Note_on_c, 9, 35, 100
15, 63240, Note_on_c, 9, 49, 70
15, 63270, Note_on_c, 9, 49, 0
15, 63270, Note_on_c, 9, 35, 0
15, 63270, Note_on_c, 9, 44, 0
15, 63300, Note_on_c, 9, 53, 100
15, 63330, Note_on_c, 9, 53, 0
15, 63360, Note_on_c, 9, 44, 70
15, 63390, Note_on_c, 9, 44, 0
15, 63420, Note_on_c, 9, 53, 100
15, 63450, Note_on_c, 9, 53, 0
15, 63480, Note_on_c, 9, 44, 70
15, 63510, Note_on_c, 9, 44, 0
15, 63540, Note_on_c, 9, 53, 65
15, 63570, Note_on_c, 9, 53, 0
15, 63600, Note_on_c, 9, 40, 100
15, 63630, Note_on_c, 9, 40, 0
15, 63660, Note_on_c, 9, 53, 100
15, 63690, Note_on_c, 9, 53, 0
15, 63720, Note_on_c, 9, 44, 100
15, 63720, Note_on_c, 9, 53, 100
15, 63750, Note_on_c, 9, 53, 0
15, 63750, Note_on_c, 9, 44, 0
15, 63780, Note_on_c, 9, 40, 65
15, 63810, Note_on_c, 9, 40, 0
15, 63840, Note_on_c, 9, 55, 80
15, 63840, Note_on_c, 9, 44, 100
15, 63840, Note_on_c, 9, 53, 100
15, 63870, Note_on_c, 9, 53, 0
15, 63870, Note_on_c, 9, 44, 0
15, 63870, Note_on_c, 9, 55, 0
15, 63900, Note_on_c, 9, 49, 85
15, 63930, Note_on_c, 9, 49, 0
15, 63960, Note_on_c, 9, 52, 90
15, 63960, Note_on_c, 9, 35, 100
15, 63990, Note_on_c, 9, 35, 0
15, 63990, Note_on_c, 9, 52, 0
15, 64020, Note_on_c, 9, 53, 100
15, 64050, Note_on_c, 9, 53, 0
15, 64080, Note_on_c, 9, 44, 70
15, 64110, Note_on_c, 9, 44, 0
15, 64140, Note_on_c, 9, 53, 100
15, 64170, Note_on_c, 9, 53, 0
15, 64200, Note_on_c, 9, 44, 70
15, 64230, Note_on_c, 9, 44, 0
15, 64260, Note_on_c, 9, 53, 65
15, 64290, Note_on_c, 9, 53, 0
15, 64320, Note_on_c, 9, 40, 100
15, 64350, Note_on_c, 9, 40, 0
15, 64380, Note_on_c, 9, 53, 100
15, 64410, Note_on_c, 9, 53, 0
15, 64440, Note_on_c, 9, 44, 100
15, 64440, Note_on_c, 9, 53, 100
15, 64470, Note_on_c, 9, 53, 0
15, 64470, Note_on_c, 9, 44, 0
15, 64560, Note_on_c, 9, 44, 100
15, 64560, Note_on_c, 9, 53, 100
15, 64590, Note_on_c, 9, 53, 0
15, 64590, Note_on_c, 9, 44, 0
15, 64680, Note_on_c, 9, 35, 100
15, 64680, Note_on_c, 9, 49, 100
15, 64710, Note_on_c, 9, 49, 0
15, 64710, Note_on_c, 9, 35, 0
15, 64740, Note_on_c, 9, 53, 100
15, 64770, Note_on_c, 9, 53, 0
15, 64800, Note_on_c, 9, 44, 70
15, 64830, Note_on_c, 9, 44, 0
15, 64860, Note_on_c, 9, 53, 100
15, 64890, Note_on_c, 9, 53, 0
15, 64920, Note_on_c, 9, 44, 70
15, 64950, Note_on_c, 9, 44, 0
15, 64980, Note_on_c, 9, 53, 65
15, 65010, Note_on_c, 9, 53, 0
15, 65040, Note_on_c, 9, 40, 100
15, 65070, Note_on_c, 9, 40, 0
15, 65100, Note_on_c, 9, 53, 100
15, 65130, Note_on_c, 9, 53, 0
15, 65160, Note_on_c, 9, 44, 100
15, 65160, Note_on_c, 9, 53, 100
15, 65190, Note_on_c, 9, 53, 0
15, 65190, Note_on_c, 9, 44, 0
15, 65280, Note_on_c, 9, 44, 100
15, 65280, Note_on_c, 9, 53, 100
15, 65310, Note_on_c, 9, 53, 0
15, 65310, Note_on_c, 9, 44, 0
15, 65400, Note_on_c, 9, 44, 65
15, 65430, Note_on_c, 9, 44, 0
15, 65460, Note_on_c, 9, 40, 60
15, 65490, Note_on_c, 9, 40, 0
15, 65520, Note_on_c, 9, 40, 64
15, 65520, Note_on_c, 9, 44, 65
15, 65550, Note_on_c, 9, 44, 0
15, 65550, Note_on_c, 9, 40, 0
15, 65580, Note_on_c, 9, 40, 68
15, 65610, Note_on_c, 9, 40, 0
15, 65640, Note_on_c, 9, 40, 72
15, 65640, Note_on_c, 9, 44, 65
15, 65670, Note_on_c, 9, 44, 0
15, 65670, Note_on_c, 9, 40, 0
15, 65700, Note_on_c, 9, 40, 76
15, 65730, Note_on_c, 9, 40, 0
15, 65760, Note_on_c, 9, 44, 65
15, 65760, Note_on_c, 9, 40, 80
15, 65790, Note_on_c, 9, 40, 0
15, 65790, Note_on_c, 9, 44, 0
15, 65820, Note_on_c, 9, 40, 84
15, 65850, Note_on_c, 9, 40, 0
15, 65880, Note_on_c, 9, 44, 65
15, 65880, Note_on_c, 9, 40, 88
15, 65910, Note_on_c, 9, 40, 0
15, 65910, Note_on_c, 9, 44, 0
15, 65940, Note_on_c, 9, 40, 92
15, 65970, Note_on_c, 9, 40, 0
15, 66000, Note_on_c, 9, 44, 65
15, 66000, Note_on_c, 9, 40, 96
15, 66030, Note_on_c, 9, 40, 0
15, 66030, Note_on_c, 9, 44, 0
15, 66060, Note_on_c, 9, 40, 100
15, 66090, Note_on_c, 9, 40, 0
15, 66120, Note_on_c, 9, 35, 100
15, 66120, Note_on_c, 9, 49, 100
15, 66150, Note_on_c, 9, 49, 0
15, 66150, Note_on_c, 9, 35, 0
15, 66180, Note_on_c, 9, 53, 100
15, 66210, Note_on_c, 9, 53, 0
15, 66240, Note_on_c, 9, 44, 70
15, 66270, Note_on_c, 9, 44, 0
15, 66300, Note_on_c, 9, 53, 100
15, 66330, Note_on_c, 9, 53, 0
15, 66360, Note_on_c, 9, 44, 70
15, 66390, Note_on_c, 9, 44, 0
15, 66420, Note_on_c, 9, 53, 65
15, 66450, Note_on_c, 9, 53, 0
15, 66480, Note_on_c, 9, 40, 100
15, 66510, Note_on_c, 9, 40, 0
15, 66540, Note_on_c, 9, 53, 100
15, 66570, Note_on_c, 9, 53, 0
15, 66600, Note_on_c, 9, 44, 100
15, 66600, Note_on_c, 9, 53, 100
15, 66630, Note_on_c, 9, 53, 0
15, 66630, Note_on_c, 9, 44, 0
15, 66720, Note_on_c, 9, 44, 100
15, 66720, Note_on_c, 9, 53, 100
15, 66750, Note_on_c, 9, 53, 0
15, 66750, Note_on_c, 9, 44, 0
15, 66780, Note_on_c, 9, 46, 115
15, 66810, Note_on_c, 9, 46, 0
15, 66840, Note_on_c, 9, 44, 65
15, 66840, Note_on_c, 9, 35, 100
15, 66870, Note_on_c, 9, 35, 0
15, 66870, Note_on_c, 9, 44, 0
15, 66900, Note_on_c, 9, 46, 115
15, 66900, Note_on_c, 9, 53, 100
15, 66930, Note_on_c, 9, 53, 0
15, 66930, Note_on_c, 9, 46, 0
15, 66960, Note_on_c, 9, 44, 70
15, 66990, Note_on_c, 9, 44, 0
15, 67020, Note_on_c, 9, 53, 100
15, 67050, Note_on_c, 9, 53, 0
15, 67080, Note_on_c, 9, 44, 70
15, 67110, Note_on_c, 9, 44, 0
15, 67140, Note_on_c, 9, 53, 65
15, 67170, Note_on_c, 9, 53, 0
15, 67200, Note_on_c, 9, 40, 100
15, 67230, Note_on_c, 9, 40, 0
15, 67260, Control_c, 9, 64, 127
15, 67260, Note_on_c, 9, 55, 90
15, 67290, Note_on_c, 9, 55, 0
15, 67290, Note_on_c, 9, 55, 90
15, 67320, Note_on_c, 9, 55, 0
15, 67320, Control_c, 9, 64, 0
15, 67320, Note_on_c, 9, 40, 100
15, 67320, Note_on_c, 9, 44, 100
15, 67320, Note_on_c, 9, 53, 100
15, 67350, Note_on_c, 9, 53, 0
15, 67350, Note_on_c, 9, 44, 0
15, 67350, Note_on_c, 9, 40, 0
15, 67380, Note_on_c, 9, 40, 100
15, 67410, Note_on_c, 9, 40, 0
15, 67440, Note_on_c, 9, 44, 100
15, 67440, Note_on_c, 9, 53, 100
15, 67470, Note_on_c, 9, 53, 0
15, 67470, Note_on_c, 9, 44, 0
15, 67560, Note_on_c, 9, 55, 100
15, 67560, Note_on_c, 9, 35, 100
15, 67590, Note_on_c, 9, 35, 0
15, 67590, Note_on_c, 9, 55, 0
15, 67620, Note_on_c, 9, 52, 127
15, 67620, Note_on_c, 9, 53, 100
15, 67650, Note_on_c, 9, 53, 0
15, 67650, Note_on_c, 9, 52, 0
15, 67680, Note_on_c, 9, 44, 70
15, 67710, Note_on_c, 9, 44, 0
15, 67740, Note_on_c, 9, 53, 100
15, 67770, Note_on_c, 9, 53, 0
15, 67800, Note_on_c, 9, 44, 70
15, 67830, Note_on_c, 9, 44, 0
15, 67860, Note_on_c, 9, 53, 65
15, 67890, Note_on_c, 9, 53, 0
15, 67920, Note_on_c, 9, 40, 100
15, 67950, Note_on_c, 9, 40, 0
15, 67980, Note_on_c, 9, 53, 100
15, 68010, Note_on_c, 9, 53, 0
15, 68040, Note_on_c, 9, 44, 100
15, 68040, Note_on_c, 9, 53, 100
15, 68070, Note_on_c, 9, 53, 0
15, 68070, Note_on_c, 9, 44, 0
15, 68160, Note_on_c, 9, 44, 100
15, 68160, Note_on_c, 9, 53, 100
15, 68190, Note_on_c, 9, 53, 0
15, 68190, Note_on_c, 9, 44, 0
15, 68280, Note_on_c, 9, 35, 100
15, 68280, Note_on_c, 9, 44, 60
15, 68310, Note_on_c, 9, 44, 0
15, 68310, Note_on_c, 9, 35, 0
15, 68340, Note_on_c, 9, 53, 100
15, 68370, Note_on_c, 9, 53, 0
15, 68400, Note_on_c, 9, 44, 70
15, 68430, Note_on_c, 9, 44, 0
15, 68460, Note_on_c, 9, 53, 100
15, 68490, Note_on_c, 9, 53, 0
15, 68520, Note_on_c, 9, 44, 70
15, 68550, Note_on_c, 9, 44, 0
15, 68580, Note_on_c, 9, 53, 65
15, 68610, Note_on_c, 9, 53, 0
15, 68640, Note_on_c, 9, 52, 80
15, 68640, Note_on_c, 9, 40, 100
15, 68670, Note_on_c, 9, 40, 0
15, 68670, Note_on_c, 9, 52, 0
15, 68760, Note_on_c, 9, 53, 100
15, 68790, Note_on_c, 9, 53, 0
15, 68820, Note_on_c, 9, 54, 100
15, 68820, Note_on_c, 9, 55, 70
15, 68850, Note_on_c, 9, 55, 0
15, 68850, Note_on_c, 9, 54, 0
15, 69000, Note_on_c, 9, 35, 100
15, 69000, Note_on_c, 9, 49, 100
15, 69030, Note_on_c, 9, 49, 0
15, 69030, Note_on_c, 9, 35, 0
15, 69060, Note_on_c, 9, 53, 100
15, 69090, Note_on_c, 9, 53, 0
15, 69120, Note_on_c, 9, 44, 70
15, 69150, Note_on_c, 9, 44, 0
15, 69180, Note_on_c, 9, 53, 100
15, 69210, Note_on_c, 9, 53, 0
15, 69240, Note_on_c, 9, 44, 70
15, 69270, Note_on_c, 9, 44, 0
15, 69300, Note_on_c, 9, 53, 65
15, 69330, Note_on_c, 9, 53, 0
15, 69360, Note_on_c, 9, 40, 100
15, 69390, Note_on_c, 9, 40, 0
15, 69420, Note_on_c, 9, 53, 100
15, 69450, Note_on_c, 9, 53, 0
15, 69480, Note_on_c, 9, 44, 100
15, 69480, Note_on_c, 9, 53, 100
15, 69510, Note_on_c, 9, 53, 0
15, 69510, Note_on_c, 9, 44, 0
15, 69600, Note_on_c, 9, 44, 100
15, 69600, Note_on_c, 9, 53, 100
15, 69630, Note_on_c, 9, 53, 0
15, 69630, Note_on_c, 9, 44, 0
15, 69660, Note_on_c, 9, 46, 115
15, 69690, Note_on_c, 9, 46, 0
15, 69720, Note_on_c, 9, 44, 65
15, 69720, Note_on_c, 9, 35, 100
15, 69750, Note_on_c, 9, 35, 0
15, 69750, Note_on_c, 9, 44, 0
15, 69780, Note_on_c, 9, 46, 115
15, 69780, Note_on_c, 9, 53, 100
15, 69810, Note_on_c, 9, 53, 0
15, 69810, Note_on_c, 9, 46, 0
15, 69840, Note_on_c, 9, 44, 70
15, 69870, Note_on_c, 9, 44, 0
15, 69900, Note_on_c, 9, 53, 100
15, 69930, Note_on_c, 9, 53, 0
15, 69960, Note_on_c, 9, 44, 70
15, 69990, Note_on_c, 9, 44, 0
15, 70020, Note_on_c, 9, 53, 65
15, 70050, Note_on_c, 9, 53, 0
15, 70080, Note_on_c, 9, 40, 100
15, 70110, Note_on_c, 9, 40, 0
15, 70140, Control_c, 9, 64, 127
15, 70140, Note_on_c, 9, 55, 90
15, 70170, Note_on_c, 9, 55, 0
15, 70170, Note_on_c, 9, 55, 85
15, 70200, Note_on_c, 9, 55, 0
15, 70200, Control_c, 9, 64, 0
15, 70200, Note_on_c, 9, 40, 100
15, 70200, Note_on_c, 9, 44, 100
15, 70200, Note_on_c, 9, 53, 100
15, 70230, Note_on_c, 9, 53, 0
15, 70230, Note_on_c, 9, 44, 0
15, 70230, Note_on_c, 9, 40, 0
15, 70260, Note_on_c, 9, 40, 100
15, 70290, Note_on_c, 9, 40, 0
15, 70320, Note_on_c, 9, 44, 100
15, 70320, Note_on_c, 9, 53, 100
15, 70350, Note_on_c, 9, 53, 0
15, 70350, Note_on_c, 9, 44, 0
15, 70440, Note_on_c, 9, 55, 100
15, 70440, Note_on_c, 9, 35, 100
15, 70470, Note_on_c, 9, 35, 0
15, 70470, Note_on_c, 9, 55, 0
15, 70500, Note_on_c, 9, 52, 127
15, 70500, Note_on_c, 9, 53, 100
15, 70530, Note_on_c, 9, 53, 0
15, 70530, Note_on_c, 9, 52, 0
15, 70560, Note_on_c, 9, 44, 70
15, 70590, Note_on_c, 9, 44, 0
15, 70620, Note_on_c, 9, 53, 100
15, 70650, Note_on_c, 9, 53, 0
15, 70680, Note_on_c, 9, 44, 70
15, 70710, Note_on_c, 9, 44, 0
15, 70740, Note_on_c, 9, 53, 65
15, 70770, Note_on_c, 9, 53, 0
15, 70800, Note_on_c, 9, 40, 100
15, 70830, Note_on_c, 9, 40, 0
15, 70860, Note_on_c, 9, 53, 100
15, 70890, Note_on_c, 9, 53, 0
15, 70920, Note_on_c, 9, 44, 100
15, 70920, Note_on_c, 9, 53, 100
15, 70950, Note_on_c, 9, 53, 0
15, 70950, Note_on_c, 9, 44, 0
15, 71040, Note_on_c, 9, 44, 100
15, 71040, Note_on_c, 9, 53, 100
15, 71070, Note_on_c, 9, 53, 0
15, 71070, Note_on_c, 9, 44, 0
15, 71160, Note_on_c, 9, 35, 100
15, 71160, Note_on_c, 9, 44, 60
15, 71190, Note_on_c, 9, 44, 0
15, 71190, Note_on_c, 9, 35, 0
15, 71220, Note_on_c, 9, 53, 100
15, 71250, Note_on_c, 9, 53, 0
15, 71280, Note_on_c, 9, 44, 70
15, 71310, Note_on_c, 9, 44, 0
15, 71340, Note_on_c, 9, 53, 100
15, 71370, Note_on_c, 9, 53, 0
15, 71400, Note_on_c, 9, 44, 70
15, 71430, Note_on_c, 9, 44, 0
15, 71460, Note_on_c, 9, 53, 65
15, 71490, Note_on_c, 9, 53, 0
15, 71520, Note_on_c, 9, 44, 80
15, 71520, Note_on_c, 9, 40, 100
15, 71550, Note_on_c, 9, 40, 0
15, 71550, Note_on_c, 9, 44, 0
15, 71580, Note_on_c, 9, 53, 60
15, 71610, Note_on_c, 9, 53, 0
15, 71640, Note_on_c, 9, 53, 80
15, 71640, Note_on_c, 9, 44, 60
15, 71670, Note_on_c, 9, 44, 0
15, 71670, Note_on_c, 9, 53, 0
15, 71760, Note_on_c, 9, 53, 80
15, 71760, Note_on_c, 9, 44, 60
15, 71790, Note_on_c, 9, 44, 0
15, 71790, Note_on_c, 9, 53, 0
15, 71880, Note_on_c, 9, 44, 65
15, 71910, Note_on_c, 9, 44, 0
15, 71940, Note_on_c, 9, 40, 60
15, 71970, Note_on_c, 9, 40, 0
15, 72000, Note_on_c, 9, 40, 64
15, 72000, Note_on_c, 9, 44, 65
15, 72030, Note_on_c, 9, 44, 0
15, 72030, Note_on_c, 9, 40, 0
15, 72060, Note_on_c, 9, 40, 68
15, 72090, Note_on_c, 9, 40, 0
15, 72120, Note_on_c, 9, 40, 72
15, 72120, Note_on_c, 9, 44, 65
15, 72150, Note_on_c, 9, 44, 0
15, 72150, Note_on_c, 9, 40, 0
15, 72180, Note_on_c, 9, 40, 76
15, 72210, Note_on_c, 9, 40, 0
15, 72240, Note_on_c, 9, 44, 65
15, 72240, Note_on_c, 9, 40, 80
15, 72270, Note_on_c, 9, 40, 0
15, 72270, Note_on_c, 9, 44, 0
15, 72300, Note_on_c, 9, 40, 84
15, 72330, Note_on_c, 9, 40, 0
15, 72360, Note_on_c, 9, 44, 65
15, 72360, Note_on_c, 9, 40, 88
15, 72390, Note_on_c, 9, 40, 0
15, 72390, Note_on_c, 9, 44, 0
15, 72420, Note_on_c, 9, 40, 92
15, 72450, Note_on_c, 9, 40, 0
15, 72480, Note_on_c, 9, 44, 65
15, 72480, Note_on_c, 9, 40, 96
15, 72510, Note_on_c, 9, 40, 0
15, 72510, Note_on_c, 9, 44, 0
15, 72540, Note_on_c, 9, 40, 100
15, 72570, Note_on_c, 9, 40, 0
15, 72600, Note_on_c, 9, 40, 80
15, 72630, Note_on_c, 9, 40, 0
15, 72720, Note_on_c, 9, 40, 80
15, 72750, Note_on_c, 9, 40, 0
15, 72750, Note_on_c, 9, 40, 80
15, 72780, Note_on_c, 9, 40, 0
15, 72780, Note_on_c, 9, 40, 80
15, 72810, Note_on_c, 9, 40, 0
15, 72840, Note_on_c, 9, 40, 80
15, 72870, Note_on_c, 9, 40, 0
15, 72900, Note_on_c, 9, 40, 80
15, 72930, Note_on_c, 9, 40, 0
15, 72960, Note_on_c, 9, 40, 80
15, 72990, Note_on_c, 9, 40, 0
15, 73020, Note_on_c, 9, 40, 80
15, 73050, Note_on_c, 9, 40, 0
15, 73050, Note_on_c, 9, 40, 80
15, 73080, Note_on_c, 9, 40, 0
15, 73080, Note_on_c, 9, 40, 80
15, 73110, Note_on_c, 9, 40, 0
15, 73140, Note_on_c, 9, 40, 80
15, 73170, Note_on_c, 9, 40, 0
15, 73200, Note_on_c, 9, 40, 80
15, 73230, Note_on_c, 9, 40, 0
15, 73260, Note_on_c, 9, 40, 80
15, 73285, Note_on_c, 9, 40, 0
15, 73300, Note_on_c, 9, 40, 80
15, 73325, Note_on_c, 9, 40, 0
15, 73340, Note_on_c, 9, 35, 80
15, 73365, Note_on_c, 9, 35, 0
15, 73380, Note_on_c, 9, 48, 80
15, 73405, Note_on_c, 9, 48, 0
15, 73420, Note_on_c, 9, 48, 80
15, 73445, Note_on_c, 9, 48, 0
15, 73460, Note_on_c, 9, 35, 80
15, 73485, Note_on_c, 9, 35, 0
15, 73500, Note_on_c, 9, 35, 80
15, 73500, Note_on_c, 9, 49, 80
15, 73530, Note_on_c, 9, 49, 0
15, 73530, Note_on_c, 9, 35, 0
15, 73620, Note_on_c, 9, 46, 80
15, 73650, Note_on_c, 9, 46, 0
15, 73680, Note_on_c, 9, 35, 80
15, 73710, Note_on_c, 9, 35, 0
15, 73740, Note_on_c, 9, 46, 80
15, 73770, Note_on_c, 9, 46, 0
15, 73860, Note_on_c, 9, 40, 80
15, 73860, Note_on_c, 9, 46, 80
15, 73890, Note_on_c, 9, 46, 0
15, 73890, Note_on_c, 9, 40, 0
15, 73980, Note_on_c, 9, 46, 80
15, 74010, Note_on_c, 9, 46, 0
15, 74040, Note_on_c, 9, 35, 80
15, 74070, Note_on_c, 9, 35, 0
15, 74100, Note_on_c, 9, 46, 80
15, 74130, Note_on_c, 9, 46, 0
15, 74160, Note_on_c, 9, 35, 80
15, 74190, Note_on_c, 9, 35, 0
15, 74220, Note_on_c, 9, 35, 80
15, 74220, Note_on_c, 9, 46, 80
15, 74250, Note_on_c, 9, 46, 0
15, 74250, Note_on_c, 9, 35, 0
15, 74340, Note_on_c, 9, 46, 80
15, 74370, Note_on_c, 9, 46, 0
15, 74400, Note_on_c, 9, 35, 80
15, 74430, Note_on_c, 9, 35, 0
15, 74460, Note_on_c, 9, 46, 80
15, 74490, Note_on_c, 9, 46, 0
15, 74520, Note_on_c, 9, 35, 80
15, 74550, Note_on_c, 9, 35, 0
15, 74580, Note_on_c, 9, 46, 80
15, 74580, Note_on_c, 9, 40, 80
15, 74610, Note_on_c, 9, 40, 0
15, 74610, Note_on_c, 9, 46, 0
15, 74700, Note_on_c, 9, 46, 80
15, 74730, Note_on_c, 9, 46, 0
15, 74760, Note_on_c, 9, 35, 80
15, 74790, Note_on_c, 9, 35, 0
15, 74820, Note_on_c, 9, 46, 80
15, 74850, Note_on_c, 9, 46, 0
15, 74880, Note_on_c, 9, 35, 80
15, 74910, Note_on_c, 9, 35, 0
15, 74940, Note_on_c, 9, 35, 80
15, 74940, Note_on_c, 9, 49, 70
15, 74970, Note_on_c, 9, 49, 0
15, 74970, Note_on_c, 9, 35, 0
15, 75060, Note_on_c, 9, 46, 80
15, 75090, Note_on_c, 9, 46, 0
15, 75120, Note_on_c, 9, 35, 80
15, 75150, Note_on_c, 9, 35, 0
15, 75180, Note_on_c, 9, 46, 80
15, 75210, Note_on_c, 9, 46, 0
15, 75240, Note_on_c, 9, 35, 80
15, 75270, Note_on_c, 9, 35, 0
15, 75300, Note_on_c, 9, 46, 80
15, 75300, Note_on_c, 9, 40, 80
15, 75330, Note_on_c, 9, 40, 0
15, 75330, Note_on_c, 9, 46, 0
15, 75420, Note_on_c, 9, 46, 80
15, 75450, Note_on_c, 9, 46, 0
15, 75480, Note_on_c, 9, 35, 80
15, 75510, Note_on_c, 9, 35, 0
15, 75540, Note_on_c, 9, 46, 80
15, 75570, Note_on_c, 9, 46, 0
15, 75600, Note_on_c, 9, 35, 80
15, 75630, Note_on_c, 9, 35, 0
15, 75660, Note_on_c, 9, 46, 80
15, 75660, Note_on_c, 9, 35, 80
15, 75690, Note_on_c, 9, 35, 0
15, 75690, Note_on_c, 9, 46, 0
15, 75780, Note_on_c, 9, 46, 80
15, 75810, Note_on_c, 9, 46, 0
15, 75840, Note_on_c, 9, 35, 80
15, 75870, Note_on_c, 9, 35, 0
15, 75900, Note_on_c, 9, 46, 80
15, 75930, Note_on_c, 9, 46, 0
15, 75960, Note_on_c, 9, 35, 80
15, 75990, Note_on_c, 9, 35, 0
15, 76010, Note_on_c, 9, 40, 60
15, 76020, Note_on_c, 9, 40, 100
15, 76035, Note_on_c, 9, 40, 0
15, 76040, Note_on_c, 9, 40, 0
15, 76140, Note_on_c, 9, 53, 60
15, 76170, Note_on_c, 9, 53, 0
15, 76260, Note_on_c, 9, 53, 60
15, 76290, Note_on_c, 9, 53, 0
15, 76380, Note_on_c, 9, 35, 80
15, 76380, Note_on_c, 9, 49, 80
15, 76410, Note_on_c, 9, 49, 0
15, 76410, Note_on_c, 9, 35, 0
15, 76500, Note_on_c, 9, 46, 80
15, 76530, Note_on_c, 9, 46, 0
15, 76560, Note_on_c, 9, 35, 80
15, 76590, Note_on_c, 9, 35, 0
15, 76620, Note_on_c, 9, 46, 80
15, 76650, Note_on_c, 9, 46, 0
15, 76740, Note_on_c, 9, 40, 80
15, 76740, Note_on_c, 9, 46, 80
15, 76770, Note_on_c, 9, 46, 0
15, 76770, Note_on_c, 9, 40, 0
15, 76860, Note_on_c, 9, 46, 80
15, 76890, Note_on_c, 9, 46, 0
15, 76920, Note_on_c, 9, 35, 80
15, 76950, Note_on_c, 9, 35, 0
15, 76980, Note_on_c, 9, 46, 80
15, 77010, Note_on_c, 9, 46, 0
15, 77040, Note_on_c, 9, 40, 80
15, 77070, Note_on_c, 9, 40, 0
15, 77100, Note_on_c, 9, 35, 80
15, 77100, Note_on_c, 9, 46, 80
15, 77130, Note_on_c, 9, 46, 0
15, 77130, Note_on_c, 9, 35, 0
15, 77220, Note_on_c, 9, 46, 80
15, 77250, Note_on_c, 9, 46, 0
15, 77280, Note_on_c, 9, 40, 80
15, 77310, Note_on_c, 9, 40, 0
15, 77340, Note_on_c, 9, 46, 80
15, 77370, Note_on_c, 9, 46, 0
15, 77400, Note_on_c, 9, 35, 80
15, 77430, Note_on_c, 9, 35, 0
15, 77460, Note_on_c, 9, 46, 80
15, 77460, Note_on_c, 9, 35, 80
15, 77490, Note_on_c, 9, 35, 0
15, 77490, Note_on_c, 9, 46, 0
15, 77580, Note_on_c, 9, 46, 80
15, 77610, Note_on_c, 9, 46, 0
15, 77640, Note_on_c, 9, 40, 80
15, 77670, Note_on_c, 9, 40, 0
15, 77700, Note_on_c, 9, 46, 80
15, 77730, Note_on_c, 9, 46, 0
15, 77760, Note_on_c, 9, 35, 80
15, 77790, Note_on_c, 9, 35, 0
15, 77820, Note_on_c, 9, 35, 80
15, 77820, Note_on_c, 9, 49, 70
15, 77850, Note_on_c, 9, 49, 0
15, 77850, Note_on_c, 9, 35, 0
15, 77940, Note_on_c, 9, 46, 80
15, 77970, Note_on_c, 9, 46, 0
15, 78000, Note_on_c, 9, 35, 80
15, 78030, Note_on_c, 9, 35, 0
15, 78060, Note_on_c, 9, 46, 80
15, 78090, Note_on_c, 9, 46, 0
15, 78120, Note_on_c, 9, 35, 80
15, 78150, Note_on_c, 9, 35, 0
15, 78180, Note_on_c, 9, 57, 80
15, 78180, Note_on_c, 9, 40, 80
15, 78210, Note_on_c, 9, 40, 0
15, 78210, Note_on_c, 9, 57, 0
15, 78300, Note_on_c, 9, 46, 80
15, 78330, Note_on_c, 9, 46, 0
15, 78360, Note_on_c, 9, 35, 80
15, 78390, Note_on_c, 9, 35, 0
15, 78420, Note_on_c, 9, 46, 80
15, 78450, Note_on_c, 9, 46, 0
15, 78480, Note_on_c, 9, 35, 80
15, 78510, Note_on_c, 9, 35, 0
15, 78540, Note_on_c, 9, 35, 100
15, 78540, Note_on_c, 9, 46, 100
15, 78570, Note_on_c, 9, 46, 0
15, 78570, Note_on_c, 9, 35, 0
15, 78660, Note_on_c, 9, 46, 100
15, 78690, Note_on_c, 9, 46, 0
15, 78720, Note_on_c, 9, 35, 100
15, 78750, Note_on_c, 9, 35, 0
15, 78780, Note_on_c, 9, 46, 100
15, 78810, Note_on_c, 9, 46, 0
15, 78900, Note_on_c, 9, 46, 100
15, 78930, Note_on_c, 9, 46, 0
15, 78960, Note_on_c, 9, 40, 100
15, 78960, Note_on_c, 9, 43, 100
15, 78990, Note_on_c, 9, 43, 0
15, 78990, Note_on_c, 9, 40, 0
15, 79020, Note_on_c, 9, 44, 100
15, 79050, Note_on_c, 9, 44, 0
15, 79080, Note_on_c, 9, 40, 100
15, 79080, Note_on_c, 9, 43, 100
15, 79110, Note_on_c, 9, 43, 0
15, 79110, Note_on_c, 9, 40, 0
15, 79140, Note_on_c, 9, 44, 100
15, 79170, Note_on_c, 9, 44, 0
15, 79200, Note_on_c, 9, 40, 100
15, 79200, Note_on_c, 9, 43, 100
15, 79230, Note_on_c, 9, 43, 0
15, 79230, Note_on_c, 9, 40, 0
15, 79260, Note_on_c, 9, 44, 100
15, 79290, Note_on_c, 9, 44, 0
15, 79320, Note_on_c, 9, 40, 100
15, 79320, Note_on_c, 9, 43, 100
15, 79350, Note_on_c, 9, 43, 0
15, 79350, Note_on_c, 9, 40, 0
15, 79380, Note_on_c, 9, 44, 100
15, 79410, Note_on_c, 9, 44, 0
15, 79440, Note_on_c, 9, 45, 100
15, 79440, Note_on_c, 9, 43, 100
15, 79470, Note_on_c, 9, 43, 0
15, 79470, Note_on_c, 9, 45, 0
15, 79500, Note_on_c, 9, 40, 100
15, 79500, Note_on_c, 9, 43, 100
15, 79500, Note_on_c, 9, 44, 100
15, 79530, Note_on_c, 9, 44, 0
15, 79530, Note_on_c, 9, 43, 0
15, 79530, Note_on_c, 9, 40, 0
15, 79620, Note_on_c, 9, 44, 100
15, 79650, Note_on_c, 9, 44, 0
15, 79680, Note_on_c, 9, 40, 100
15, 79680, Note_on_c, 9, 43, 100
15, 79710, Note_on_c, 9, 43, 0
15, 79710, Note_on_c, 9, 40, 0
15, 79740, Note_on_c, 9, 44, 100
15, 79770, Note_on_c, 9, 44, 0
15, 79800, Note_on_c, 9, 45, 100
15, 79800, Note_on_c, 9, 43, 100
15, 79830, Note_on_c, 9, 43, 0
15, 79830, Note_on_c, 9, 45, 0
15, 79860, Note_on_c, 9, 44, 100
15, 79890, Note_on_c, 9, 44, 0
15, 79920, Note_on_c, 9, 40, 100
15, 79920, Note_on_c, 9, 43, 100
15, 79950, Note_on_c, 9, 43, 0
15, 79950, Note_on_c, 9, 40, 0
15, 79980, Note_on_c, 9, 44, 100
15, 80010, Note_on_c, 9, 44, 0
15, 80040, Note_on_c, 9, 40, 100
15, 80040, Note_on_c, 9, 43, 100
15, 80070, Note_on_c, 9, 43, 0
15, 80070, Note_on_c, 9, 40, 0
15, 80100, Note_on_c, 9, 44, 100
15, 80130, Note_on_c, 9, 44, 0
15, 80160, Note_on_c, 9, 45, 100
15, 80160, Note_on_c, 9, 43, 100
15, 80190, Note_on_c, 9, 43, 0
15, 80190, Note_on_c, 9, 45, 0
15, 80220, Note_on_c, 9, 44, 100
15, 80250, Note_on_c, 9, 44, 0
15, 80280, Note_on_c, 9, 40, 100
15, 80280, Note_on_c, 9, 43, 100
15, 80310, Note_on_c, 9, 43, 0
15, 80310, Note_on_c, 9, 40, 0
15, 80340, Note_on_c, 9, 44, 100
15, 80370, Note_on_c, 9, 44, 0
15, 80400, Note_on_c, 9, 40, 100
15, 80400, Note_on_c, 9, 43, 100
15, 80430, Note_on_c, 9, 43, 0
15, 80430, Note_on_c, 9, 40, 0
15, 80460, Note_on_c, 9, 40, 100
15, 80460, Note_on_c, 9, 43, 100
15, 80460, Note_on_c, 9, 44, 100
15, 80490, Note_on_c, 9, 44, 0
15, 80490, Note_on_c, 9, 43, 0
15, 80490, Note_on_c, 9, 40, 0
15, 80580, Note_on_c, 9, 45, 100
15, 80580, Note_on_c, 9, 43, 100
15, 80580, Note_on_c, 9, 44, 100
15, 80610, Note_on_c, 9, 44, 0
15, 80610, Note_on_c, 9, 43, 0
15, 80610, Note_on_c, 9, 45, 0
15, 80640, Note_on_c, 9, 40, 100
15, 80640, Note_on_c, 9, 43, 100
15, 80670, Note_on_c, 9, 43, 0
15, 80670, Note_on_c, 9, 40, 0
15, 80700, Note_on_c, 9, 44, 100
15, 80730, Note_on_c, 9, 44, 0
15, 80820, Note_on_c, 9, 35, 80
15, 80820, Note_on_c, 9, 49, 80
15, 80850, Note_on_c, 9, 49, 0
15, 80850, Note_on_c, 9, 35, 0
15, 80940, Note_on_c, 9, 46, 80
15, 80970, Note_on_c, 9, 46, 0
15, 81000, Note_on_c, 9, 35, 80
15, 81030, Note_on_c, 9, 35, 0
15, 81060, Note_on_c, 9, 46, 80
15, 81090, Note_on_c, 9, 46, 0
15, 81120, Note_on_c, 9, 35, 80
15, 81150, Note_on_c, 9, 35, 0
15, 81180, Note_on_c, 9, 57, 80
15, 81180, Note_on_c, 9, 40, 80
15, 81210, Note_on_c, 9, 40, 0
15, 81210, Note_on_c, 9, 57, 0
15, 81300, Note_on_c, 9, 46, 80
15, 81330, Note_on_c, 9, 46, 0
15, 81360, Note_on_c, 9, 35, 80
15, 81390, Note_on_c, 9, 35, 0
15, 81420, Note_on_c, 9, 46, 80
15, 81450, Note_on_c, 9, 46, 0
15, 81480, Note_on_c, 9, 35, 80
15, 81510, Note_on_c, 9, 35, 0
15, 81540, Note_on_c, 9, 35, 80
15, 81540, Note_on_c, 9, 49, 80
15, 81570, Note_on_c, 9, 49, 0
15, 81570, Note_on_c, 9, 35, 0
15, 81660, Note_on_c, 9, 55, 80
15, 81690, Note_on_c, 9, 55, 0
15, 81720, Note_on_c, 9, 35, 80
15, 81750, Note_on_c, 9, 35, 0
15, 81780, Note_on_c, 9, 46, 80
15, 81810, Note_on_c, 9, 46, 0
15, 81840, Note_on_c, 9, 35, 80
15, 81870, Note_on_c, 9, 35, 0
15, 81900, Note_on_c, 9, 55, 80
15, 81900, Note_on_c, 9, 40, 80
15, 81930, Note_on_c, 9, 40, 0
15, 81930, Note_on_c, 9, 55, 0
15, 82020, Note_on_c, 9, 46, 80
15, 82050, Note_on_c, 9, 46, 0
15, 82080, Note_on_c, 9, 35, 80
15, 82110, Note_on_c, 9, 35, 0
15, 82140, Note_on_c, 9, 55, 80
15, 82170, Note_on_c, 9, 55, 0
15, 82200, Note_on_c, 9, 35, 80
15, 82230, Note_on_c, 9, 35, 0
15, 82260, Note_on_c, 9, 35, 80
15, 82260, Note_on_c, 9, 46, 80
15, 82290, Note_on_c, 9, 46, 0
15, 82290, Note_on_c, 9, 35, 0
15, 82380, Note_on_c, 9, 55, 80
15, 82410, Note_on_c, 9, 55, 0
15, 82440, Note_on_c, 9, 35, 80
15, 82470, Note_on_c, 9, 35, 0
15, 82500, Note_on_c, 9, 46, 80
15, 82530, Note_on_c, 9, 46, 0
15, 82560, Note_on_c, 9, 35, 80
15, 82590, Note_on_c, 9, 35, 0
15, 82620, Note_on_c, 9, 40, 80
15, 82620, Note_on_c, 9, 55, 80
15, 82650, Note_on_c, 9, 55, 0
15, 82650, Note_on_c, 9, 40, 0
15, 82740, Note_on_c, 9, 46, 80
15, 82770, Note_on_c, 9, 46, 0
15, 82800, Note_on_c, 9, 35, 80
15, 82830, Note_on_c, 9, 35, 0
15, 82860, Note_on_c, 9, 55, 80
15, 82890, Note_on_c, 9, 55, 0
15, 82920, Note_on_c, 9, 35, 80
15, 82950, Note_on_c, 9, 35, 0
15, 82980, Note_on_c, 9, 35, 80
15, 82980, Note_on_c, 9, 46, 80
15, 83010, Note_on_c, 9, 46, 0
15, 83010, Note_on_c, 9, 35, 0
15, 83100, Note_on_c, 9, 55, 80
15, 83130, Note_on_c, 9, 55, 0
15, 83160, Note_on_c, 9, 35, 80
15, 83190, Note_on_c, 9, 35, 0
15, 83220, Note_on_c, 9, 46, 80
15, 83250, Note_on_c, 9, 46, 0
15, 83280, Note_on_c, 9, 35, 80
15, 83310, Note_on_c, 9, 35, 0
15, 83340, Note_on_c, 9, 55, 80
15, 83340, Note_on_c, 9, 40, 80
15, 83370, Note_on_c, 9, 40, 0
15, 83370, Note_on_c, 9, 55, 0
15, 83460, Note_on_c, 9, 44, 80
15, 83490, Note_on_c, 9, 44, 0
15, 83580, Note_on_c, 9, 44, 80
15, 83610, Note_on_c, 9, 44, 0
15, 83700, Note_on_c, 9, 35, 80
15, 83700, Note_on_c, 9, 49, 80
15, 83730, Note_on_c, 9, 49, 0
15, 83730, Note_on_c, 9, 35, 0
15, 83820, Note_on_c, 9, 46, 80
15, 83850, Note_on_c, 9, 46, 0
15, 83880, Note_on_c, 9, 35, 80
15, 83910, Note_on_c, 9, 35, 0
15, 83940, Note_on_c, 9, 46, 80
15, 83970, Note_on_c, 9, 46, 0
15, 84000, Note_on_c, 9, 35, 80
15, 84030, Note_on_c, 9, 35, 0
15, 84060, Note_on_c, 9, 46, 80
15, 84060, Note_on_c, 9, 40, 80
15, 84090, Note_on_c, 9, 40, 0
15, 84090, Note_on_c, 9, 46, 0
15, 84180, Note_on_c, 9, 46, 80
15, 84210, Note_on_c, 9, 46, 0
15, 84240, Note_on_c, 9, 35, 80
15, 84270, Note_on_c, 9, 35, 0
15, 84300, Note_on_c, 9, 46, 80
15, 84330, Note_on_c, 9, 46, 0
15, 84360, Note_on_c, 9, 35, 80
15, 84390, Note_on_c, 9, 35, 0
15, 84420, Note_on_c, 9, 35, 80
15, 84420, Note_on_c, 9, 46, 80
15, 84450, Note_on_c, 9, 46, 0
15, 84450, Note_on_c, 9, 35, 0
15, 84540, Note_on_c, 9, 46, 80
15, 84570, Note_on_c, 9, 46, 0
15, 84600, Note_on_c, 9, 40, 80
15, 84630, Note_on_c, 9, 40, 0
15, 84660, Note_on_c, 9, 46, 80
15, 84690, Note_on_c, 9, 46, 0
15, 84720, Note_on_c, 9, 35, 80
15, 84750, Note_on_c, 9, 35, 0
15, 84780, Note_on_c, 9, 46, 80
15, 84780, Note_on_c, 9, 35, 80
15, 84810, Note_on_c, 9, 35, 0
15, 84810, Note_on_c, 9, 46, 0
15, 84900, Note_on_c, 9, 46, 80
15, 84930, Note_on_c, 9, 46, 0
15, 84960, Note_on_c, 9, 40, 80
15, 84990, Note_on_c, 9, 40, 0
15, 85020, Note_on_c, 9, 46, 80
15, 85050, Note_on_c, 9, 46, 0
15, 85080, Note_on_c, 9, 35, 80
15, 85110, Note_on_c, 9, 35, 0
15, 85140, Note_on_c, 9, 35, 80
15, 85140, Note_on_c, 9, 46, 80
15, 85170, Note_on_c, 9, 46, 0
15, 85170, Note_on_c, 9, 35, 0
15, 85260, Note_on_c, 9, 46, 80
15, 85290, Note_on_c, 9, 46, 0
15, 85320, Note_on_c, 9, 40, 80
15, 85350, Note_on_c, 9, 40, 0
15, 85380, Note_on_c, 9, 46, 80
15, 85410, Note_on_c, 9, 46, 0
15, 85500, Note_on_c, 9, 46, 80
15, 85500, Note_on_c, 9, 35, 80
15, 85530, Note_on_c, 9, 35, 0
15, 85530, Note_on_c, 9, 46, 0
15, 85620, Note_on_c, 9, 46, 80
15, 85650, Note_on_c, 9, 46, 0
15, 85680, Note_on_c, 9, 40, 80
15, 85710, Note_on_c, 9, 40, 0
15, 85740, Note_on_c, 9, 46, 80
15, 85770, Note_on_c, 9, 46, 0
15, 85860, Note_on_c, 9, 35, 80
15, 85860, Note_on_c, 9, 46, 80
15, 85890, Note_on_c, 9, 46, 0
15, 85890, Note_on_c, 9, 35, 0
15, 85980, Note_on_c, 9, 46, 80
15, 86010, Note_on_c, 9, 46, 0
15, 86040, Note_on_c, 9, 40, 80
15, 86070, Note_on_c, 9, 40, 0
15, 86100, Note_on_c, 9, 46, 80
15, 86130, Note_on_c, 9, 46, 0
15, 86220, Note_on_c, 9, 44, 80
15, 86250, Note_on_c, 9, 44, 0
15, 86280, Note_on_c, 9, 40, 80
15, 86310, Note_on_c, 9, 40, 0
15, 86340, Note_on_c, 9, 44, 80
15, 86370, Note_on_c, 9, 44, 0
15, 86400, Note_on_c, 9, 40, 80
15, 86430, Note_on_c, 9, 40, 0
15, 86460, Note_on_c, 9, 44, 80
15, 86490, Note_on_c, 9, 44, 0
15, 86520, Note_on_c, 9, 40, 80
15, 86550, Note_on_c, 9, 40, 0
15, 86580, Note_on_c, 9, 44, 80
15, 86610, Note_on_c, 9, 44, 0
15, 86640, Note_on_c, 9, 40, 80
15, 86670, Note_on_c, 9, 40, 0
15, 86700, Note_on_c, 9, 44, 80
15, 86730, Note_on_c, 9, 44, 0
15, 86760, Note_on_c, 9, 40, 80
15, 86790, Note_on_c, 9, 40, 0
15, 86820, Note_on_c, 9, 44, 80
15, 86820, Note_on_c, 9, 40, 80
15, 86850, Note_on_c, 9, 40, 0
15, 86850, Note_on_c, 9, 44, 0
15, 86940, Note_on_c, 9, 44, 80
15, 86970, Note_on_c, 9, 44, 0
15, 87000, Note_on_c, 9, 40, 80
15, 87030, Note_on_c, 9, 40, 0
15, 87060, Note_on_c, 9, 44, 80
15, 87090, Note_on_c, 9, 44, 0
15, 87120, Note_on_c, 9, 40, 80
15, 87150, Note_on_c, 9, 40, 0
15, 87180, Note_on_c, 9, 44, 80
15, 87210, Note_on_c, 9, 44, 0
15, 87240, Note_on_c, 9, 40, 80
15, 87270, Note_on_c, 9, 40, 0
15, 87300, Note_on_c, 9, 44, 80
15, 87330, Note_on_c, 9, 44, 0
15, 87360, Note_on_c, 9, 40, 80
15, 87390, Note_on_c, 9, 40, 0
15, 87420, Note_on_c, 9, 44, 80
15, 87450, Note_on_c, 9, 44, 0
15, 87480, Note_on_c, 9, 40, 80
15, 87510, Note_on_c, 9, 40, 0
15, 87540, Note_on_c, 9, 44, 80
15, 87570, Note_on_c, 9, 44, 0
15, 87600, Note_on_c, 9, 40, 80
15, 87630, Note_on_c, 9, 40, 0
15, 87660, Note_on_c, 9, 44, 80
15, 87690, Note_on_c, 9, 44, 0
15, 87720, Note_on_c, 9, 40, 80
15, 87750, Note_on_c, 9, 40, 0
15, 87780, Note_on_c, 9, 50, 80
15, 87780, Note_on_c, 9, 44, 80
15, 87780, Note_on_c, 9, 40, 80
15, 87810, Note_on_c, 9, 40, 0
15, 87810, Note_on_c, 9, 44, 0
15, 87810, Note_on_c, 9, 50, 0
15, 87900, Note_on_c, 9, 50, 80
15, 87900, Note_on_c, 9, 44, 80
15, 87900, Note_on_c, 9, 40, 80
15, 87930, Note_on_c, 9, 40, 0
15, 87930, Note_on_c, 9, 44, 0
15, 87930, Note_on_c, 9, 50, 0
15, 87960, Note_on_c, 9, 50, 80
15, 87960, Note_on_c, 9, 40, 80
15, 87990, Note_on_c, 9, 40, 0
15, 87990, Note_on_c, 9, 50, 0
15, 88020, Note_on_c, 9, 44, 80
15, 88050, Note_on_c, 9, 44, 0
15, 88135, Note_on_c, 9, 48, 55
15, 88140, Note_on_c, 9, 44, 80
15, 88140, Note_on_c, 9, 48, 80
15, 88165, Note_on_c, 9, 48, 0
15, 88170, Note_on_c, 9, 48, 0
15, 88170, Note_on_c, 9, 44, 0
15, 88255, Note_on_c, 9, 48, 65
15, 88260, Note_on_c, 9, 44, 80
15, 88260, Note_on_c, 9, 48, 80
15, 88285, Note_on_c, 9, 48, 0
15, 88290, Note_on_c, 9, 48, 0
15, 88290, Note_on_c, 9, 44, 0
15, 88315, Note_on_c, 9, 48, 65
15, 88320, Note_on_c, 9, 48, 80
15, 88345, Note_on_c, 9, 48, 0
15, 88350, Note_on_c, 9, 48, 0
15, 88380, Note_on_c, 9, 44, 80
15, 88410, Note_on_c, 9, 44, 0
15, 88500, Note_on_c, 9, 44, 80
15, 88500, Note_on_c, 9, 54, 127
15, 88500, Note_on_c, 9, 47, 80
15, 88530, Note_on_c, 9, 47, 0
15, 88530, Note_on_c, 9, 54, 0
15, 88530, Note_on_c, 9, 44, 0
15, 88620, Note_on_c, 9, 44, 80
15, 88620, Note_on_c, 9, 54, 127
15, 88620, Note_on_c, 9, 47, 80
15, 88650, Note_on_c, 9, 47, 0
15, 88650, Note_on_c, 9, 54, 0
15, 88650, Note_on_c, 9, 44, 0
15, 88680, Note_on_c, 9, 54, 127
15, 88680, Note_on_c, 9, 47, 80
15, 88710, Note_on_c, 9, 47, 0
15, 88710, Note_on_c, 9, 54, 0
15, 88740, Note_on_c, 9, 44, 100
15, 88770, Note_on_c, 9, 44, 0
15, 88860, Note_on_c, 9, 35, 100
15, 88860, Note_on_c, 9, 57, 100
15, 88890, Note_on_c, 9, 57, 0
15, 88890, Note_on_c, 9, 35, 0
15, 88920, Note_on_c, 9, 42, 100
15, 88950, Note_on_c, 9, 42, 0
15, 88950, Note_on_c, 9, 42, 100
15, 88980, Note_on_c, 9, 42, 0
15, 88980, Note_on_c, 9, 53, 100
15, 89010, Note_on_c, 9, 53, 0
15, 89040, Note_on_c, 9, 40, 100
15, 89070, Note_on_c, 9, 40, 0
15, 89100, Note_on_c, 9, 51, 100
15, 89130, Note_on_c, 9, 51, 0
15, 89160, Note_on_c, 9, 46, 100
15, 89190, Note_on_c, 9, 46, 0
15, 89220, Note_on_c, 9, 51, 100
15, 89220, Note_on_c, 9, 44, 100
15, 89220, Note_on_c, 9, 35, 100
15, 89250, Note_on_c, 9, 35, 0
15, 89250, Note_on_c, 9, 44, 0
15, 89250, Note_on_c, 9, 51, 0
15, 89280, Note_on_c, 9, 42, 100
15, 89310, Note_on_c, 9, 42, 0
15, 89340, Note_on_c, 9, 51, 100
15, 89370, Note_on_c, 9, 51, 0
15, 89400, Note_on_c, 9, 35, 100
15, 89430, Note_on_c, 9, 35, 0
15, 89460, Note_on_c, 9, 40, 100
15, 89460, Note_on_c, 9, 52, 100
15, 89490, Note_on_c, 9, 52, 0
15, 89490, Note_on_c, 9, 40, 0
15, 89580, Note_on_c, 9, 35, 100
15, 89580, Note_on_c, 9, 57, 100
15, 89610, Note_on_c, 9, 57, 0
15, 89610, Note_on_c, 9, 35, 0
15, 89640, Note_on_c, 9, 42, 100
15, 89670, Note_on_c, 9, 42, 0
15, 89670, Note_on_c, 9, 42, 100
15, 89700, Note_on_c, 9, 42, 0
15, 89700, Note_on_c, 9, 53, 100
15, 89730, Note_on_c, 9, 53, 0
15, 89760, Note_on_c, 9, 40, 100
15, 89790, Note_on_c, 9, 40, 0
15, 89820, Note_on_c, 9, 51, 100
15, 89850, Note_on_c, 9, 51, 0
15, 89880, Note_on_c, 9, 46, 100
15, 89910, Note_on_c, 9, 46, 0
15, 89940, Note_on_c, 9, 44, 100
15, 89940, Note_on_c, 9, 35, 100
15, 89940, Note_on_c, 9, 51, 100
15, 89970, Note_on_c, 9, 51, 0
15, 89970, Note_on_c, 9, 35, 0
15, 89970, Note_on_c, 9, 44, 0
15, 90000, Note_on_c, 9, 42, 100
15, 90030, Note_on_c, 9, 42, 0
15, 90060, Note_on_c, 9, 51, 100
15, 90090, Note_on_c, 9, 51, 0
15, 90120, Note_on_c, 9, 35, 100
15, 90150, Note_on_c, 9, 35, 0
15, 90180, Note_on_c, 9, 52, 100
15, 90180, Note_on_c, 9, 40, 100
15, 90210, Note_on_c, 9, 40, 0
15, 90210, Note_on_c, 9, 52, 0
15, 90300, Note_on_c, 9, 35, 100
15, 90300, Note_on_c, 9, 51, 100
15, 90330, Note_on_c, 9, 51, 0
15, 90330, Note_on_c, 9, 35, 0
15, 90360, Note_on_c, 9, 42, 100
15, 90390, Note_on_c, 9, 42, 0
15, 90390, Note_on_c, 9, 42, 100
15, 90420, Note_on_c, 9, 42, 0
15, 90420, Note_on_c, 9, 53, 100
15, 90450, Note_on_c, 9, 53, 0
15, 90480, Note_on_c, 9, 40, 100
15, 90510, Note_on_c, 9, 40, 0
15, 90540, Note_on_c, 9, 51, 100
15, 90570, Note_on_c, 9, 51, 0
15, 90600, Note_on_c, 9, 46, 100
15, 90630, Note_on_c, 9, 46, 0
15, 90660, Note_on_c, 9, 44, 100
15, 90660, Note_on_c, 9, 35, 100
15, 90660, Note_on_c, 9, 51, 100
15, 90690, Note_on_c, 9, 51, 0
15, 90690, Note_on_c, 9, 35, 0
15, 90690, Note_on_c, 9, 44, 0
15, 90720, Note_on_c, 9, 42, 100
15, 90750, Note_on_c, 9, 42, 0
15, 90780, Note_on_c, 9, 51, 100
15, 90810, Note_on_c, 9, 51, 0
15, 90840, Note_on_c, 9, 35, 100
15, 90870, Note_on_c, 9, 35, 0
15, 90900, Note_on_c, 9, 52, 100
15, 90900, Note_on_c, 9, 40, 100
15, 90930, Note_on_c, 9, 40, 0
15, 90930, Note_on_c, 9, 52, 0
15, 91020, Note_on_c, 9, 35, 100
15, 91020, Note_on_c, 9, 42, 100
15, 91050, Note_on_c, 9, 42, 0
15, 91050, Note_on_c, 9, 35, 0
15, 91080, Note_on_c, 9, 42, 100
15, 91110, Note_on_c, 9, 42, 0
15, 91110, Note_on_c, 9, 42, 100
15, 91140, Note_on_c, 9, 42, 0
15, 91140, Note_on_c, 9, 53, 100
15, 91170, Note_on_c, 9, 53, 0
15, 91200, Note_on_c, 9, 40, 100
15, 91230, Note_on_c, 9, 40, 0
15, 91260, Note_on_c, 9, 51, 100
15, 91290, Note_on_c, 9, 51, 0
15, 91320, Note_on_c, 9, 35, 100
15, 91350, Note_on_c, 9, 35, 0
15, 91380, Note_on_c, 9, 57, 100
15, 91380, Note_on_c, 9, 40, 100
15, 91410, Note_on_c, 9, 40, 0
15, 91410, Note_on_c, 9, 57, 0
15, 91500, Note_on_c, 9, 52, 100
15, 91500, Note_on_c, 9, 40, 100
15, 91530, Note_on_c, 9, 40, 0
15, 91530, Note_on_c, 9, 52, 0
15, 91620, Note_on_c, 9, 35, 100
15, 91620, Note_on_c, 9, 57, 100
15, 91650, Note_on_c, 9, 57, 0
15, 91650, Note_on_c, 9, 35, 0
15, 91680, Note_on_c, 9, 42, 100
15, 91710, Note_on_c, 9, 42, 0
15, 91710, Note_on_c, 9, 42, 100
15, 91740, Note_on_c, 9, 42, 0
15, 91740, Note_on_c, 9, 53, 100
15, 91770, Note_on_c, 9, 53, 0
15, 91800, Note_on_c, 9, 40, 100
15, 91830, Note_on_c, 9, 40, 0
15, 91860, Note_on_c, 9, 51, 100
15, 91890, Note_on_c, 9, 51, 0
15, 91920, Note_on_c, 9, 46, 100
15, 91950, Note_on_c, 9, 46, 0
15, 91980, Note_on_c, 9, 35, 100
15, 91980, Note_on_c, 9, 51, 100
15, 92010, Note_on_c, 9, 51, 0
15, 92010, Note_on_c, 9, 35, 0
15, 92040, Note_on_c, 9, 42, 100
15, 92070, Note_on_c, 9, 42, 0
15, 92100, Note_on_c, 9, 51, 100
15, 92130, Note_on_c, 9, 51, 0
15, 92160, Note_on_c, 9, 35, 100
15, 92190, Note_on_c, 9, 35, 0
15, 92220, Note_on_c, 9, 52, 100
15, 92220, Note_on_c, 9, 40, 100
15, 92250, Note_on_c, 9, 40, 0
15, 92250, Note_on_c, 9, 52, 0
15, 92340, Note_on_c, 9, 35, 100
15, 92340, Note_on_c, 9, 57, 100
15, 92370, Note_on_c, 9, 57, 0
15, 92370, Note_on_c, 9, 35, 0
15, 92400, Note_on_c, 9, 42, 100
15, 92430, Note_on_c, 9, 42, 0
15, 92430, Note_on_c, 9, 42, 100
15, 92460, Note_on_c, 9, 42, 0
15, 92460, Note_on_c, 9, 53, 100
15, 92490, Note_on_c, 9, 53, 0
15, 92520, Note_on_c, 9, 40, 100
15, 92550, Note_on_c, 9, 40, 0
15, 92580, Note_on_c, 9, 51, 100
15, 92610, Note_on_c, 9, 51, 0
15, 92640, Note_on_c, 9, 46, 100
15, 92670, Note_on_c, 9, 46, 0
15, 92700, Note_on_c, 9, 35, 100
15, 92700, Note_on_c, 9, 51, 100
15, 92730, Note_on_c, 9, 51, 0
15, 92730, Note_on_c, 9, 35, 0
15, 92760, Note_on_c, 9, 42, 100
15, 92790, Note_on_c, 9, 42, 0
15, 92820, Note_on_c, 9, 51, 100
15, 92850, Note_on_c, 9, 51, 0
15, 92880, Note_on_c, 9, 35, 100
15, 92910, Note_on_c, 9, 35, 0
15, 92940, Note_on_c, 9, 52, 100
15, 92940, Note_on_c, 9, 40, 100
15, 92970, Note_on_c, 9, 40, 0
15, 92970, Note_on_c, 9, 52, 0
15, 93060, Note_on_c, 9, 35, 100
15, 93060, Note_on_c, 9, 57, 100
15, 93090, Note_on_c, 9, 57, 0
15, 93090, Note_on_c, 9, 35, 0
15, 93120, Note_on_c, 9, 42, 100
15, 93150, Note_on_c, 9, 42, 0
15, 93150, Note_on_c, 9, 42, 100
15, 93180, Note_on_c, 9, 42, 0
15, 93180, Note_on_c, 9, 53, 100
15, 93210, Note_on_c, 9, 53, 0
15, 93240, Note_on_c, 9, 40, 100
15, 93270, Note_on_c, 9, 40, 0
15, 93300, Note_on_c, 9, 51, 100
15, 93330, Note_on_c, 9, 51, 0
15, 93360, Note_on_c, 9, 46, 100
15, 93390, Note_on_c, 9, 46, 0
15, 93420, Note_on_c, 9, 35, 100
15, 93420, Note_on_c, 9, 49, 100
15, 93450, Note_on_c, 9, 49, 0
15, 93450, Note_on_c, 9, 35, 0
15, 93540, Note_on_c, 9, 40, 100
15, 93570, Note_on_c, 9, 40, 0
15, 93600, Note_on_c, 9, 40, 100
15, 93630, Note_on_c, 9, 40, 0
15, 93660, Note_on_c, 9, 40, 100
15, 93690, Note_on_c, 9, 40, 0
15, 93720, Note_on_c, 9, 40, 100
15, 93750, Note_on_c, 9, 40, 0
15, 93780, Note_on_c, 9, 35, 127
15, 93780, Note_on_c, 9, 57, 127
15, 93810, Note_on_c, 9, 57, 0
15, 93810, Note_on_c, 9, 35, 0
15, 93960, Note_on_c, 9, 53, 127
15, 93960, Note_on_c, 9, 35, 127
15, 93990, Note_on_c, 9, 35, 0
15, 93990, Note_on_c, 9, 53, 0
15, 94020, Note_on_c, 9, 40, 127
15, 94050, Note_on_c, 9, 40, 0
15, 94080, Note_on_c, 9, 53, 127
15, 94080, Note_on_c, 9, 35, 127
15, 94110, Note_on_c, 9, 35, 0
15, 94110, Note_on_c, 9, 53, 0
15, 94200, Note_on_c, 9, 53, 127
15, 94200, Note_on_c, 9, 35, 127
15, 94230, Note_on_c, 9, 35, 0
15, 94230, Note_on_c, 9, 53, 0
15, 94320, Note_on_c, 9, 35, 127
15, 94350, Note_on_c, 9, 35, 0
15, 94380, Note_on_c, 9, 52, 127
15, 94380, Note_on_c, 9, 40, 127
15, 94410, Note_on_c, 9, 40, 0
15, 94410, Note_on_c, 9, 52, 0
15, 94500, Note_on_c, 9, 35, 127
15, 94500, Note_on_c, 9, 49, 127
15, 94530, Note_on_c, 9, 49, 0
15, 94530, Note_on_c, 9, 35, 0
15, 94620, Note_on_c, 9, 44, 127
15, 94650, Note_on_c, 9, 44, 0
15, 94680, Note_on_c, 9, 35, 127
15, 94680, Note_on_c, 9, 53, 127
15, 94710, Note_on_c, 9, 53, 0
15, 94710, Note_on_c, 9, 35, 0
15, 94740, Note_on_c, 9, 40, 127
15, 94770, Note_on_c, 9, 40, 0
15, 94800, Note_on_c, 9, 35, 127
15, 94800, Note_on_c, 9, 53, 127
15, 94830, Note_on_c, 9, 53, 0
15, 94830, Note_on_c, 9, 35, 0
15, 94920, Note_on_c, 9, 35, 127
15, 94920, Note_on_c, 9, 53, 127
15, 94950, Note_on_c, 9, 53, 0
15, 94950, Note_on_c, 9, 35, 0
15, 95040, Note_on_c, 9, 35, 127
15, 95070, Note_on_c, 9, 35, 0
15, 95090, Note_on_c, 9, 40, 127
15, 95100, Note_on_c, 9, 40, 127
15, 95120, Note_on_c, 9, 40, 0
15, 95130, Note_on_c, 9, 40, 0
15, 95160, Note_on_c, 9, 40, 127
15, 95190, Note_on_c, 9, 40, 0
15, 95220, Note_on_c, 9, 35, 127
15, 95220, Note_on_c, 9, 49, 127
15, 95250, Note_on_c, 9, 49, 0
15, 95250, Note_on_c, 9, 35, 0
15, 95340, Note_on_c, 9, 44, 127
15, 95370, Note_on_c, 9, 44, 0
15, 95400, Note_on_c, 9, 35, 127
15, 95400, Note_on_c, 9, 53, 127
15, 95430, Note_on_c, 9, 53, 0
15, 95430, Note_on_c, 9, 35, 0
15, 95460, Note_on_c, 9, 40, 127
15, 95490, Note_on_c, 9, 40, 0
15, 95520, Note_on_c, 9, 53, 127
15, 95520, Note_on_c, 9, 35, 127
15, 95550, Note_on_c, 9, 35, 0
15, 95550, Note_on_c, 9, 53, 0
15, 95640, Note_on_c, 9, 35, 127
15, 95640, Note_on_c, 9, 53, 127
15, 95670, Note_on_c, 9, 53, 0
15, 95670, Note_on_c, 9, 35, 0
15, 95760, Note_on_c, 9, 35, 127
15, 95790, Note_on_c, 9, 35, 0
15, 95820, Note_on_c, 9, 57, 127
15, 95820, Note_on_c, 9, 40, 127
15, 95850, Note_on_c, 9, 40, 0
15, 95850, Note_on_c, 9, 57, 0
15, 95940, Note_on_c, 9, 40, 127
15, 95940, Note_on_c, 9, 52, 127
15, 95970, Note_on_c, 9, 52, 0
15, 95970, Note_on_c, 9, 40, 0
15, 96060, Note_on_c, 9, 44, 127
15, 96090, Note_on_c, 9, 44, 0
15, 96180, Note_on_c, 9, 44, 127
15, 96210, Note_on_c, 9, 44, 0
15, 96240, Note_on_c, 9, 35, 127
15, 96270, Note_on_c, 9, 35, 0
15, 96300, Note_on_c, 9, 57, 127
15, 96300, Note_on_c, 9, 40, 127
15, 96330, Note_on_c, 9, 40, 0
15, 96330, Note_on_c, 9, 57, 0
15, 96420, Note_on_c, 9, 40, 127
15, 96420, Note_on_c, 9, 57, 127
15, 96450, Note_on_c, 9, 57, 0
15, 96450, Note_on_c, 9, 40, 0
15, 96540, Note_on_c, 9, 35, 127
15, 96540, Note_on_c, 9, 49, 127
15, 96570, Note_on_c, 9, 49, 0
15, 96570, Note_on_c, 9, 35, 0
15, 96720, Note_on_c, 9, 52, 127
15, 96720, Note_on_c, 9, 35, 127
15, 96750, Note_on_c, 9, 35, 0
15, 96750, Note_on_c, 9, 52, 0
15, 96780, Note_on_c, 9, 40, 127
15, 96810, Note_on_c, 9, 40, 0
15, 96840, Note_on_c, 9, 52, 127
15, 96840, Note_on_c, 9, 35, 127
15, 96870, Note_on_c, 9, 35, 0
15, 96870, Note_on_c, 9, 52, 0
15, 96960, Note_on_c, 9, 35, 127
15, 96960, Note_on_c, 9, 52, 127
15, 96990, Note_on_c, 9, 52, 0
15, 96990, Note_on_c, 9, 35, 0
15, 97080, Note_on_c, 9, 35, 127
15, 97110, Note_on_c, 9, 35, 0
15, 97140, Note_on_c, 9, 40, 127
15, 97170, Note_on_c, 9, 40, 0
15, 97200, Note_on_c, 9, 40, 127
15, 97230, Note_on_c, 9, 40, 0
15, 97260, Note_on_c, 9, 35, 127
15, 97260, Note_on_c, 9, 49, 127
15, 97290, Note_on_c, 9, 49, 0
15, 97290, Note_on_c, 9, 35, 0
15, 97440, Note_on_c, 9, 52, 127
15, 97440, Note_on_c, 9, 35, 127
15, 97470, Note_on_c, 9, 35, 0
15, 97470, Note_on_c, 9, 52, 0
15, 97500, Note_on_c, 9, 40, 127
15, 97530, Note_on_c, 9, 40, 0
15, 97560, Note_on_c, 9, 52, 127
15, 97560, Note_on_c, 9, 35, 127
15, 97590, Note_on_c, 9, 35, 0
15, 97590, Note_on_c, 9, 52, 0
15, 97680, Note_on_c, 9, 35, 127
15, 97680, Note_on_c, 9, 52, 127
15, 97710, Note_on_c, 9, 52, 0
15, 97710, Note_on_c, 9, 35, 0
15, 97800, Note_on_c, 9, 35, 127
15, 97830, Note_on_c, 9, 35, 0
15, 97860, Note_on_c, 9, 40, 127
15, 97890, Note_on_c, 9, 40, 0
15, 97920, Note_on_c, 9, 40, 127
15, 97950, Note_on_c, 9, 40, 0
15, 97980, Note_on_c, 9, 35, 127
15, 97980, Note_on_c, 9, 49, 127
15, 98010, Note_on_c, 9, 49, 0
15, 98010, Note_on_c, 9, 35, 0
15, 98160, Note_on_c, 9, 52, 127
15, 98160, Note_on_c, 9, 35, 127
15, 98190, Note_on_c, 9, 35, 0
15, 98190, Note_on_c, 9, 52, 0
15, 98220, Note_on_c, 9, 40, 127
15, 98250, Note_on_c, 9, 40, 0
15, 98280, Note_on_c, 9, 52, 127
15, 98280, Note_on_c, 9, 35, 127
15, 98310, Note_on_c, 9, 35, 0
15, 98310, Note_on_c, 9, 52, 0
15, 98400, Note_on_c, 9, 35, 127
15, 98400, Note_on_c, 9, 52, 127
15, 98430, Note_on_c, 9, 52, 0
15, 98430, Note_on_c, 9, 35, 0
15, 98520, Note_on_c, 9, 35, 127
15, 98550, Note_on_c, 9, 35, 0
15, 98570, Note_on_c, 9, 40, 127
15, 98580, Note_on_c, 9, 40, 127
15, 98600, Note_on_c, 9, 40, 0
15, 98610, Note_on_c, 9, 40, 0
15, 98640, Note_on_c, 9, 35, 127
15, 98670, Note_on_c, 9, 35, 0
15, 98700, Note_on_c, 9, 35, 127
15, 98700, Note_on_c, 9, 57, 127
15, 98730, Note_on_c, 9, 57, 0
15, 98730, Note_on_c, 9, 35, 0
15, 98940, Note_on_c, 9, 35, 127
15, 98940, Note_on_c, 9, 52, 127
15, 98970, Note_on_c, 9, 52, 0
15, 98970, Note_on_c, 9, 35, 0
15, 99180, Note_on_c, 9, 35, 100
15, 99180, Note_on_c, 9, 49, 127
15, 99210, Note_on_c, 9, 49, 0
15, 99210, Note_on_c, 9, 35, 0
15, 99300, Note_on_c, 9, 46, 100
15, 99330, Note_on_c, 9, 46, 0
15, 99420, Note_on_c, 9, 40, 100
15, 99420, Note_on_c, 9, 42, 100
15, 99450, Note_on_c, 9, 42, 0
15, 99450, Note_on_c, 9, 40, 0
15, 99480, Note_on_c, 9, 42, 100
15, 99510, Note_on_c, 9, 42, 0
15, 99540, Note_on_c, 9, 46, 100
15, 99570, Note_on_c, 9, 46, 0
15, 99660, Note_on_c, 9, 42, 100
15, 99690, Note_on_c, 9, 42, 0
15, 99720, Note_on_c, 9, 42, 100
15, 99750, Note_on_c, 9, 42, 0
15, 99750, Note_on_c, 9, 42, 100
15, 99780, Note_on_c, 9, 42, 0
15, 99780, Note_on_c, 9, 46, 100
15, 99810, Note_on_c, 9, 46, 0
15, 99900, Note_on_c, 9, 40, 100
15, 99900, Note_on_c, 9, 42, 100
15, 99930, Note_on_c, 9, 42, 0
15, 99930, Note_on_c, 9, 40, 0
15, 99960, Note_on_c, 9, 42, 100
15, 99990, Note_on_c, 9, 42, 0
15, 99990, Note_on_c, 9, 42, 100
15, 100020, Note_on_c, 9, 42, 0
15, 100020, Note_on_c, 9, 46, 80
15, 100050, Note_on_c, 9, 46, 0
15, 100080, Note_on_c, 9, 46, 100
15, 100110, Note_on_c, 9, 46, 0
15, 100140, Note_on_c, 9, 35, 100
15, 100140, Note_on_c, 9, 49, 127
15, 100170, Note_on_c, 9, 49, 0
15, 100170, Note_on_c, 9, 35, 0
15, 100260, Note_on_c, 9, 46, 100
15, 100290, Note_on_c, 9, 46, 0
15, 100380, Note_on_c, 9, 40, 100
15, 100380, Note_on_c, 9, 42, 100
15, 100410, Note_on_c, 9, 42, 0
15, 100410, Note_on_c, 9, 40, 0
15, 100440, Note_on_c, 9, 42, 100
15, 100470, Note_on_c, 9, 42, 0
15, 100500, Note_on_c, 9, 46, 100
15, 100530, Note_on_c, 9, 46, 0
15, 100620, Note_on_c, 9, 42, 100
15, 100650, Note_on_c, 9, 42, 0
15, 100680, Note_on_c, 9, 42, 100
15, 100710, Note_on_c, 9, 42, 0
15, 100710, Note_on_c, 9, 42, 100
15, 100740, Note_on_c, 9, 42, 0
15, 100740, Note_on_c, 9, 46, 100
15, 100770, Note_on_c, 9, 46, 0
15, 100860, Note_on_c, 9, 40, 100
15, 100860, Note_on_c, 9, 42, 100
15, 100890, Note_on_c, 9, 42, 0
15, 100890, Note_on_c, 9, 40, 0
15, 100920, Note_on_c, 9, 42, 100
15, 100950, Note_on_c, 9, 42, 0
15, 100980, Note_on_c, 9, 46, 80
15, 101010, Note_on_c, 9, 46, 0
15, 101040, Note_on_c, 9, 46, 100
15, 101070, Note_on_c, 9, 46, 0
15, 101100, Note_on_c, 9, 35, 100
15, 101100, Note_on_c, 9, 49, 127
15, 101130, Note_on_c, 9, 49, 0
15, 101130, Note_on_c, 9, 35, 0
15, 101220, Note_on_c, 9, 46, 100
15, 101250, Note_on_c, 9, 46, 0
15, 101340, Note_on_c, 9, 40, 100
15, 101340, Note_on_c, 9, 42, 100
15, 101370, Note_on_c, 9, 42, 0
15, 101370, Note_on_c, 9, 40, 0
15, 101400, Note_on_c, 9, 42, 100
15, 101430, Note_on_c, 9, 42, 0
15, 101460, Note_on_c, 9, 46, 100
15, 101490, Note_on_c, 9, 46, 0
15, 101580, Note_on_c, 9, 42, 100
15, 101610, Note_on_c, 9, 42, 0
15, 101640, Note_on_c, 9, 42, 100
15, 101670, Note_on_c, 9, 42, 0
15, 101670, Note_on_c, 9, 42, 100
15, 101700, Note_on_c, 9, 42, 0
15, 101700, Note_on_c, 9, 46, 100
15, 101730, Note_on_c, 9, 46, 0
15, 101820, Note_on_c, 9, 40, 100
15, 101820, Note_on_c, 9, 42, 100
15, 101850, Note_on_c, 9, 42, 0
15, 101850, Note_on_c, 9, 40, 0
15, 101880, Note_on_c, 9, 42, 100
15, 101910, Note_on_c, 9, 42, 0
15, 101940, Note_on_c, 9, 46, 100
15, 101970, Note_on_c, 9, 46, 0
15, 102000, Note_on_c, 9, 46, 100
15, 102030, Note_on_c, 9, 46, 0
15, 102060, Note_on_c, 9, 35, 100
15, 102060, Note_on_c, 9, 49, 127
15, 102090, Note_on_c, 9, 49, 0
15, 102090, Note_on_c, 9, 35, 0
15, 102180, Note_on_c, 9, 46, 100
15, 102210, Note_on_c, 9, 46, 0
15, 102300, Note_on_c, 9, 40, 100
15, 102300, Note_on_c, 9, 42, 100
15, 102330, Note_on_c, 9, 42, 0
15, 102330, Note_on_c, 9, 40, 0
15, 102360, Note_on_c, 9, 42, 100
15, 102390, Note_on_c, 9, 42, 0
15, 102390, Note_on_c, 9, 42, 100
15, 102420, Note_on_c, 9, 42, 0
15, 102420, Note_on_c, 9, 46, 100
15, 102450, Note_on_c, 9, 46, 0
15, 102540, Note_on_c, 9, 42, 100
15, 102570, Note_on_c, 9, 42, 0
15, 102600, Note_on_c, 9, 42, 100
15, 102630, Note_on_c, 9, 42, 0
15, 102660, Note_on_c, 9, 46, 100
15, 102690, Note_on_c, 9, 46, 0
15, 102780, Note_on_c, 9, 40, 100
15, 102780, Note_on_c, 9, 42, 100
15, 102810, Note_on_c, 9, 42, 0
15, 102810, Note_on_c, 9, 40, 0
15, 102840, Note_on_c, 9, 50, 100
15, 102870, Note_on_c, 9, 50, 0
15, 102870, Note_on_c, 9, 50, 100
15, 102900, Note_on_c, 9, 50, 0
15, 102900, Note_on_c, 9, 50, 100
15, 102930, Note_on_c, 9, 50, 0
15, 102960, Note_on_c, 9, 50, 100
15, 102990, Note_on_c, 9, 50, 0
15, 103020, Note_on_c, 9, 35, 100
15, 103020, Note_on_c, 9, 49, 127
15, 103050, Note_on_c, 9, 49, 0
15, 103050, Note_on_c, 9, 35, 0
15, 103140, Note_on_c, 9, 46, 100
15, 103170, Note_on_c, 9, 46, 0
15, 103260, Note_on_c, 9, 40, 100
15, 103260, Note_on_c, 9, 42, 100
15, 103290, Note_on_c, 9, 42, 0
15, 103290, Note_on_c, 9, 40, 0
15, 103320, Note_on_c, 9, 42, 100
15, 103350, Note_on_c, 9, 42, 0
15, 103380, Note_on_c, 9, 46, 100
15, 103410, Note_on_c, 9, 46, 0
15, 103500, Note_on_c, 9, 42, 100
15, 103530, Note_on_c, 9, 42, 0
15, 103560, Note_on_c, 9, 42, 100
15, 103590, Note_on_c, 9, 42, 0
15, 103590, Note_on_c, 9, 42, 100
15, 103620, Note_on_c, 9, 42, 0
15, 103620, Note_on_c, 9, 46, 100
15, 103650, Note_on_c, 9, 46, 0
15, 103740, Note_on_c, 9, 40, 100
15, 103740, Note_on_c, 9, 42, 100
15, 103770, Note_on_c, 9, 42, 0
15, 103770, Note_on_c, 9, 40, 0
15, 103800, Note_on_c, 9, 42, 100
15, 103830, Note_on_c, 9, 42, 0
15, 103830, Note_on_c, 9, 42, 100
15, 103860, Note_on_c, 9, 42, 0
15, 103860, Note_on_c, 9, 54, 127
15, 103890, Note_on_c, 9, 54, 0
15, 103920, Note_on_c, 9, 55, 100
15, 103950, Note_on_c, 9, 55, 0
15, 103980, Note_on_c, 9, 35, 100
15, 103980, Note_on_c, 9, 49, 77
15, 104010, Note_on_c, 9, 49, 0
15, 104010, Note_on_c, 9, 35, 0
15, 104100, Note_on_c, 9, 46, 100
15, 104130, Note_on_c, 9, 46, 0
15, 104220, Note_on_c, 9, 40, 100
15, 104220, Note_on_c, 9, 42, 100
15, 104250, Note_on_c, 9, 42, 0
15, 104250, Note_on_c, 9, 40, 0
15, 104280, Note_on_c, 9, 42, 100
15, 104310, Note_on_c, 9, 42, 0
15, 104340, Note_on_c, 9, 46, 100
15, 104370, Note_on_c, 9, 46, 0
15, 104460, Note_on_c, 9, 42, 100
15, 104490, Note_on_c, 9, 42, 0
15, 104520, Note_on_c, 9, 42, 100
15, 104550, Note_on_c, 9, 42, 0
15, 104550, Note_on_c, 9, 42, 100
15, 104580, Note_on_c, 9, 42, 0
15, 104580, Note_on_c, 9, 46, 100
15, 104610, Note_on_c, 9, 46, 0
15, 104700, Note_on_c, 9, 40, 100
15, 104700, Note_on_c, 9, 42, 100
15, 104730, Note_on_c, 9, 42, 0
15, 104730, Note_on_c, 9, 40, 0
15, 104760, Note_on_c, 9, 42, 100
15, 104790, Note_on_c, 9, 42, 0
15, 104820, Note_on_c, 9, 46, 100
15, 104850, Note_on_c, 9, 46, 0
15, 104880, Note_on_c, 9, 46, 100
15, 104910, Note_on_c, 9, 46, 0
15, 104940, Note_on_c, 9, 35, 100
15, 104940, Note_on_c, 9, 49, 127
15, 104970, Note_on_c, 9, 49, 0
15, 104970, Note_on_c, 9, 35, 0
15, 105060, Note_on_c, 9, 46, 100
15, 105090, Note_on_c, 9, 46, 0
15, 105180, Note_on_c, 9, 40, 100
15, 105180, Note_on_c, 9, 42, 100
15, 105210, Note_on_c, 9, 42, 0
15, 105210, Note_on_c, 9, 40, 0
15, 105240, Note_on_c, 9, 42, 100
15, 105270, Note_on_c, 9, 42, 0
15, 105300, Note_on_c, 9, 46, 100
15, 105330, Note_on_c, 9, 46, 0
15, 105420, Note_on_c, 9, 35, 100
15, 105420, Note_on_c, 9, 49, 100
15, 105450, Note_on_c, 9, 49, 0
15, 105450, Note_on_c, 9, 35, 0
15, 105480, Note_on_c, 9, 42, 100
15, 105510, Note_on_c, 9, 42, 0
15, 105540, Note_on_c, 9, 46, 100
15, 105570, Note_on_c, 9, 46, 0
15, 105660, Note_on_c, 9, 40, 100
15, 105660, Note_on_c, 9, 42, 100
15, 105690, Note_on_c, 9, 42, 0
15, 105690, Note_on_c, 9, 40, 0
15, 105720, Note_on_c, 9, 42, 100
15, 105750, Note_on_c, 9, 42, 0
15, 105750, Note_on_c, 9, 42, 100
15, 105780, Note_on_c, 9, 42, 0
15, 105780, Note_on_c, 9, 46, 100
15, 105810, Note_on_c, 9, 46, 0
15, 105840, Note_on_c, 9, 46, 100
15, 105870, Note_on_c, 9, 46, 0
15, 105900, Note_on_c, 9, 35, 100
15, 105900, Note_on_c, 9, 57, 100
15, 105930, Note_on_c, 9, 57, 0
15, 105930, Note_on_c, 9, 35, 0
15, 105960, Note_on_c, 9, 42, 100
15, 105990, Note_on_c, 9, 42, 0
15, 106020, Note_on_c, 9, 46, 100
15, 106050, Note_on_c, 9, 46, 0
15, 106140, Note_on_c, 9, 40, 100
15, 106170, Note_on_c, 9, 40, 0
15, 106200, Note_on_c, 9, 42, 70
15, 106230, Note_on_c, 9, 42, 0
15, 106230, Note_on_c, 9, 42, 70
15, 106260, Note_on_c, 9, 42, 0
15, 106260, Note_on_c, 9, 46, 100
15, 106290, Note_on_c, 9, 46, 0
15, 106320, Note_on_c, 9, 46, 100
15, 106350, Note_on_c, 9, 46, 0
15, 106380, Note_on_c, 9, 42, 100
15, 106410, Note_on_c, 9, 42, 0
15, 106410, Note_on_c, 9, 42, 90
15, 106440, Note_on_c, 9, 42, 0
15, 106440, Note_on_c, 9, 42, 83
15, 106470, Note_on_c, 9, 42, 0
15, 106470, Note_on_c, 9, 42, 75
15, 106500, Note_on_c, 9, 42, 0
15, 106500, Note_on_c, 9, 46, 100
15, 106530, Note_on_c, 9, 46, 0
15, 106620, Note_on_c, 9, 40, 100
15, 106650, Note_on_c, 9, 40, 0
15, 106680, Note_on_c, 9, 40, 65
15, 106710, Note_on_c, 9, 40, 0
15, 106740, Note_on_c, 9, 40, 100
15, 106770, Note_on_c, 9, 40, 0
15, 106800, Note_on_c, 9, 40, 100
15, 106830, Note_on_c, 9, 40, 0
15, 106860, Note_on_c, 9, 35, 100
15, 106860, Note_on_c, 9, 49, 100
15, 106890, Note_on_c, 9, 49, 0
15, 106890, Note_on_c, 9, 35, 0
15, 106980, Note_on_c, 9, 52, 100
15, 107010, Note_on_c, 9, 52, 0
15, 107100, Note_on_c, 9, 40, 100
15, 107100, Note_on_c, 9, 51, 100
15, 107130, Note_on_c, 9, 51, 0
15, 107130, Note_on_c, 9, 40, 0
15, 107220, Note_on_c, 9, 52, 100
15, 107250, Note_on_c, 9, 52, 0
15, 107340, Note_on_c, 9, 51, 100
15, 107370, Note_on_c, 9, 51, 0
15, 107460, Note_on_c, 9, 35, 100
15, 107460, Note_on_c, 9, 52, 100
15, 107490, Note_on_c, 9, 52, 0
15, 107490, Note_on_c, 9, 35, 0
15, 107580, Note_on_c, 9, 40, 100
15, 107580, Note_on_c, 9, 51, 100
15, 107610, Note_on_c, 9, 51, 0
15, 107610, Note_on_c, 9, 40, 0
15, 107700, Note_on_c, 9, 35, 100
15, 107700, Note_on_c, 9, 49, 100
15, 107730, Note_on_c, 9, 49, 0
15, 107730, Note_on_c, 9, 35, 0
15, 107820, Note_on_c, 9, 52, 100
15, 107850, Note_on_c, 9, 52, 0
15, 107880, Note_on_c, 9, 35, 100
15, 107910, Note_on_c, 9, 35, 0
15, 107940, Note_on_c, 9, 40, 100
15, 107940, Note_on_c, 9, 51, 100
15, 107970, Note_on_c, 9, 51, 0
15, 107970, Note_on_c, 9, 40, 0
15, 108060, Note_on_c, 9, 52, 100
15, 108090, Note_on_c, 9, 52, 0
15, 108180, Note_on_c, 9, 51, 100
15, 108210, Note_on_c, 9, 51, 0
15, 108300, Note_on_c, 9, 35, 100
15, 108300, Note_on_c, 9, 52, 100
15, 108330, Note_on_c, 9, 52, 0
15, 108330, Note_on_c, 9, 35, 0
15, 108420, Note_on_c, 9, 40, 100
15, 108420, Note_on_c, 9, 51, 100
15, 108450, Note_on_c, 9, 51, 0
15, 108450, Note_on_c, 9, 40, 0
15, 108540, Note_on_c, 9, 35, 100
15, 108540, Note_on_c, 9, 49, 100
15, 108570, Note_on_c, 9, 49, 0
15, 108570, Note_on_c, 9, 35, 0
15, 108660, Note_on_c, 9, 52, 100
15, 108690, Note_on_c, 9, 52, 0
15, 108720, Note_on_c, 9, 35, 100
15, 108750, Note_on_c, 9, 35, 0
15, 108780, Note_on_c, 9, 40, 100
15, 108780, Note_on_c, 9, 51, 100
15, 108810, Note_on_c, 9, 51, 0
15, 108810, Note_on_c, 9, 40, 0
15, 108900, Note_on_c, 9, 52, 100
15, 108930, Note_on_c, 9, 52, 0
15, 109020, Note_on_c, 9, 51, 100
15, 109050, Note_on_c, 9, 51, 0
15, 109140, Note_on_c, 9, 35, 100
15, 109140, Note_on_c, 9, 52, 100
15, 109170, Note_on_c, 9, 52, 0
15, 109170, Note_on_c, 9, 35, 0
15, 109260, Note_on_c, 9, 40, 100
15, 109260, Note_on_c, 9, 51, 100
15, 109290, Note_on_c, 9, 51, 0
15, 109290, Note_on_c, 9, 40, 0
15, 109380, Note_on_c, 9, 35, 100
15, 109380, Note_on_c, 9, 49, 100
15, 109410, Note_on_c, 9, 49, 0
15, 109410, Note_on_c, 9, 35, 0
15, 109500, Note_on_c, 9, 52, 100
15, 109530, Note_on_c, 9, 52, 0
15, 109560, Note_on_c, 9, 35, 100
15, 109590, Note_on_c, 9, 35, 0
15, 109620, Note_on_c, 9, 40, 100
15, 109620, Note_on_c, 9, 51, 100
15, 109650, Note_on_c, 9, 51, 0
15, 109650, Note_on_c, 9, 40, 0
15, 109740, Note_on_c, 9, 52, 100
15, 109770, Note_on_c, 9, 52, 0
15, 109860, Note_on_c, 9, 51, 100
15, 109890, Note_on_c, 9, 51, 0
15, 109920, Note_on_c, 9, 40, 100
15, 109950, Note_on_c, 9, 40, 0
15, 109980, Note_on_c, 9, 52, 100
15, 110010, Note_on_c, 9, 52, 0
15, 110040, Note_on_c, 9, 35, 100
15, 110070, Note_on_c, 9, 35, 0
15, 110100, Note_on_c, 9, 40, 100
15, 110100, Note_on_c, 9, 51, 100
15, 110130, Note_on_c, 9, 51, 0
15, 110130, Note_on_c, 9, 40, 0
15, 110220, Note_on_c, 9, 52, 100
15, 110250, Note_on_c, 9, 52, 0
15, 110340, Note_on_c, 9, 35, 100
15, 110340, Note_on_c, 9, 49, 100
15, 110370, Note_on_c, 9, 49, 0
15, 110370, Note_on_c, 9, 35, 0
15, 110460, Note_on_c, 9, 52, 100
15, 110490, Note_on_c, 9, 52, 0
15, 110520, Note_on_c, 9, 35, 100
15, 110550, Note_on_c, 9, 35, 0
15, 110580, Note_on_c, 9, 40, 100
15, 110580, Note_on_c, 9, 51, 100
15, 110610, Note_on_c, 9, 51, 0
15, 110610, Note_on_c, 9, 40, 0
15, 110700, Note_on_c, 9, 52, 100
15, 110730, Note_on_c, 9, 52, 0
15, 110820, Note_on_c, 9, 51, 100
15, 110850, Note_on_c, 9, 51, 0
15, 110940, Note_on_c, 9, 35, 100
15, 110940, Note_on_c, 9, 52, 100
15, 110970, Note_on_c, 9, 52, 0
15, 110970, Note_on_c, 9, 35, 0
15, 111060, Note_on_c, 9, 40, 100
15, 111060, Note_on_c, 9, 51, 100
15, 111090, Note_on_c, 9, 51, 0
15, 111090, Note_on_c, 9, 40, 0
15, 111180, Note_on_c, 9, 35, 100
15, 111180, Note_on_c, 9, 49, 100
15, 111210, Note_on_c, 9, 49, 0
15, 111210, Note_on_c, 9, 35, 0
15, 111300, Note_on_c, 9, 52, 100
15, 111330, Note_on_c, 9, 52, 0
15, 111360, Note_on_c, 9, 35, 100
15, 111390, Note_on_c, 9, 35, 0
15, 111420, Note_on_c, 9, 40, 100
15, 111420, Note_on_c, 9, 51, 100
15, 111450, Note_on_c, 9, 51, 0
15, 111450, Note_on_c, 9, 40, 0
15, 111540, Note_on_c, 9, 52, 100
15, 111570, Note_on_c, 9, 52, 0
15, 111660, Note_on_c, 9, 51, 100
15, 111690, Note_on_c, 9, 51, 0
15, 111780, Note_on_c, 9, 52, 100
15, 111810, Note_on_c, 9, 52, 0
15, 111900, Note_on_c, 9, 40, 100
15, 111900, Note_on_c, 9, 51, 100
15, 111930, Note_on_c, 9, 51, 0
15, 111930, Note_on_c, 9, 40, 0
15, 112020, Note_on_c, 9, 35, 100
15, 112020, Note_on_c, 9, 49, 100
15, 112050, Note_on_c, 9, 49, 0
15, 112050, Note_on_c, 9, 35, 0
15, 112140, Note_on_c, 9, 52, 100
15, 112170, Note_on_c, 9, 52, 0
15, 112200, Note_on_c, 9, 35, 100
15, 112230, Note_on_c, 9, 35, 0
15, 112260, Note_on_c, 9, 40, 100
15, 112260, Note_on_c, 9, 51, 100
15, 112290, Note_on_c, 9, 51, 0
15, 112290, Note_on_c, 9, 40, 0
15, 112380, Note_on_c, 9, 52, 100
15, 112410, Note_on_c, 9, 52, 0
15, 112500, Note_on_c, 9, 51, 100
15, 112530, Note_on_c, 9, 51, 0
15, 112620, Note_on_c, 9, 35, 100
15, 112620, Note_on_c, 9, 52, 100
15, 112650, Note_on_c, 9, 52, 0
15, 112650, Note_on_c, 9, 35, 0
15, 112740, Note_on_c, 9, 40, 100
15, 112740, Note_on_c, 9, 51, 100
15, 112770, Note_on_c, 9, 51, 0
15, 112770, Note_on_c, 9, 40, 0
15, 112860, Note_on_c, 9, 35, 100
15, 112860, Note_on_c, 9, 49, 100
15, 112890, Note_on_c, 9, 49, 0
15, 112890, Note_on_c, 9, 35, 0
15, 112980, Note_on_c, 9, 52, 100
15, 113010, Note_on_c, 9, 52, 0
15, 113040, Note_on_c, 9, 35, 100
15, 113070, Note_on_c, 9, 35, 0
15, 113100, Note_on_c, 9, 40, 100
15, 113100, Note_on_c, 9, 51, 100
15, 113130, Note_on_c, 9, 51, 0
15, 113130, Note_on_c, 9, 40, 0
15, 113220, Note_on_c, 9, 52, 100
15, 113250, Note_on_c, 9, 52, 0
15, 113340, Note_on_c, 9, 51, 100
15, 113370, Note_on_c, 9, 51, 0
15, 113400, Note_on_c, 9, 40, 100
15, 113430, Note_on_c, 9, 40, 0
15, 113460, Note_on_c, 9, 52, 100
15, 113490, Note_on_c, 9, 52, 0
15, 113520, Note_on_c, 9, 35, 100
15, 113550, Note_on_c, 9, 35, 0
15, 113570, Note_on_c, 9, 40, 100
15, 113580, Note_on_c, 9, 40, 100
15, 113600, Note_on_c, 9, 40, 0
15, 113610, Note_on_c, 9, 40, 0
15, 113640, Note_on_c, 9, 35, 100
15, 113670, Note_on_c, 9, 35, 0
15, 113700, Note_on_c, 9, 40, 100
15, 113730, Note_on_c, 9, 40, 0
15, 113760, Note_on_c, 9, 40, 100
15, 113790, Note_on_c, 9, 40, 0
15, 113820, Note_on_c, 9, 35, 100
15, 113820, Note_on_c, 9, 49, 100
15, 113850, Note_on_c, 9, 49, 0
15, 113850, Note_on_c, 9, 35, 0
15, 113940, Note_on_c, 9, 46, 100
15, 113970, Note_on_c, 9, 46, 0
15, 114000, Note_on_c, 9, 35, 100
15, 114030, Note_on_c, 9, 35, 0
15, 114060, Note_on_c, 9, 40, 100
15, 114060, Note_on_c, 9, 46, 100
15, 114090, Note_on_c, 9, 46, 0
15, 114090, Note_on_c, 9, 40, 0
15, 114180, Note_on_c, 9, 35, 100
15, 114180, Note_on_c, 9, 46, 100
15, 114210, Note_on_c, 9, 46, 0
15, 114210, Note_on_c, 9, 35, 0
15, 114300, Note_on_c, 9, 46, 100
15, 114330, Note_on_c, 9, 46, 0
15, 114360, Note_on_c, 9, 35, 100
15, 114390, Note_on_c, 9, 35, 0
15, 114420, Note_on_c, 9, 35, 100
15, 114420, Note_on_c, 9, 46, 100
15, 114450, Note_on_c, 9, 46, 0
15, 114450, Note_on_c, 9, 35, 0
15, 114540, Note_on_c, 9, 40, 100
15, 114540, Note_on_c, 9, 46, 100
15, 114570, Note_on_c, 9, 46, 0
15, 114570, Note_on_c, 9, 40, 0
15, 114600, Note_on_c, 9, 35, 100
15, 114630, Note_on_c, 9, 35, 0
15, 114660, Note_on_c, 9, 35, 100
15, 114660, Note_on_c, 9, 46, 100
15, 114690, Note_on_c, 9, 46, 0
15, 114690, Note_on_c, 9, 35, 0
15, 114780, Note_on_c, 9, 35, 100
15, 114780, Note_on_c, 9, 49, 100
15, 114810, Note_on_c, 9, 49, 0
15, 114810, Note_on_c, 9, 35, 0
15, 114900, Note_on_c, 9, 46, 100
15, 114930, Note_on_c, 9, 46, 0
15, 114960, Note_on_c, 9, 35, 100
15, 114990, Note_on_c, 9, 35, 0
15, 115020, Note_on_c, 9, 40, 100
15, 115020, Note_on_c, 9, 46, 100
15, 115050, Note_on_c, 9, 46, 0
15, 115050, Note_on_c, 9, 40, 0
15, 115140, Note_on_c, 9, 35, 100
15, 115140, Note_on_c, 9, 46, 100
15, 115170, Note_on_c, 9, 46, 0
15, 115170, Note_on_c, 9, 35, 0
15, 115260, Note_on_c, 9, 46, 100
15, 115290, Note_on_c, 9, 46, 0
15, 115320, Note_on_c, 9, 35, 100
15, 115350, Note_on_c, 9, 35, 0
15, 115380, Note_on_c, 9, 35, 100
15, 115380, Note_on_c, 9, 46, 100
15, 115410, Note_on_c, 9, 46, 0
15, 115410, Note_on_c, 9, 35, 0
15, 115500, Note_on_c, 9, 40, 100
15, 115500, Note_on_c, 9, 46, 100
15, 115530, Note_on_c, 9, 46, 0
15, 115530, Note_on_c, 9, 40, 0
15, 115620, Note_on_c, 9, 35, 100
15, 115620, Note_on_c, 9, 46, 100
15, 115650, Note_on_c, 9, 46, 0
15, 115650, Note_on_c, 9, 35, 0
15, 115740, Note_on_c, 9, 35, 100
15, 115740, Note_on_c, 9, 57, 100
15, 115770, Note_on_c, 9, 57, 0
15, 115770, Note_on_c, 9, 35, 0
15, 115860, Note_on_c, 9, 46, 100
15, 115890, Note_on_c, 9, 46, 0
15, 115920, Note_on_c, 9, 35, 100
15, 115950, Note_on_c, 9, 35, 0
15, 115980, Note_on_c, 9, 40, 100
15, 115980, Note_on_c, 9, 46, 100
15, 116010, Note_on_c, 9, 46, 0
15, 116010, Note_on_c, 9, 40, 0
15, 116100, Note_on_c, 9, 35, 100
15, 116100, Note_on_c, 9, 49, 100
15, 116130, Note_on_c, 9, 49, 0
15, 116130, Note_on_c, 9, 35, 0
15, 116220, Note_on_c, 9, 35, 100
15, 116220, Note_on_c, 9, 57, 100
15, 116250, Note_on_c, 9, 57, 0
15, 116250, Note_on_c, 9, 35, 0
15, 116340, Note_on_c, 9, 46, 100
15, 116370, Note_on_c, 9, 46, 0
15, 116400, Note_on_c, 9, 35, 100
15, 116430, Note_on_c, 9, 35, 0
15, 116460, Note_on_c, 9, 40, 100
15, 116460, Note_on_c, 9, 46, 100
15, 116490, Note_on_c, 9, 46, 0
15, 116490, Note_on_c, 9, 40, 0
15, 116580, Note_on_c, 9, 49, 100
15, 116580, Note_on_c, 9, 35, 100
15, 116610, Note_on_c, 9, 35, 0
15, 116610, Note_on_c, 9, 49, 0
15, 116700, Note_on_c, 9, 35, 100
15, 116700, Note_on_c, 9, 57, 100
15, 116730, Note_on_c, 9, 57, 0
15, 116730, Note_on_c, 9, 35, 0
15, 116820, Note_on_c, 9, 46, 100
15, 116850, Note_on_c, 9, 46, 0
15, 116880, Note_on_c, 9, 35, 100
15, 116910, Note_on_c, 9, 35, 0
15, 116940, Note_on_c, 9, 40, 100
15, 116940, Note_on_c, 9, 46, 100
15, 116970, Note_on_c, 9, 46, 0
15, 116970, Note_on_c, 9, 40, 0
15, 117060, Note_on_c, 9, 35, 100
15, 117060, Note_on_c, 9, 46, 100
15, 117090, Note_on_c, 9, 46, 0
15, 117090, Note_on_c, 9, 35, 0
15, 117180, Note_on_c, 9, 46, 100
15, 117180, Note_on_c, 9, 35, 100
15, 117210, Note_on_c, 9, 35, 0
15, 117210, Note_on_c, 9, 46, 0
15, 117240, Note_on_c, 9, 40, 80
15, 117270, Note_on_c, 9, 40, 0
15, 117270, Note_on_c, 9, 40, 90
15, 117300, Note_on_c, 9, 40, 0
15, 117300, Note_on_c, 9, 40, 100
15, 117330, Note_on_c, 9, 40, 0
15, 117360, Note_on_c, 9, 40, 100
15, 117390, Note_on_c, 9, 40, 0
15, 117420, Note_on_c, 9, 35, 100
15, 117420, Note_on_c, 9, 49, 100
15, 117450, Note_on_c, 9, 49, 0
15, 117450, Note_on_c, 9, 35, 0
15, 117480, Note_on_c, 9, 35, 80
15, 117510, Note_on_c, 9, 35, 0
15, 117540, Note_on_c, 9, 57, 100
15, 117540, Note_on_c, 9, 35, 100
15, 117570, Note_on_c, 9, 35, 0
15, 117570, Note_on_c, 9, 57, 0
15, 117660, Note_on_c, 9, 35, 100
15, 117660, Note_on_c, 9, 49, 100
15, 117690, Note_on_c, 9, 49, 0
15, 117690, Note_on_c, 9, 35, 0
15, 117780, Note_on_c, 9, 46, 100
15, 117810, Note_on_c, 9, 46, 0
15, 117840, Note_on_c, 9, 35, 100
15, 117870, Note_on_c, 9, 35, 0
15, 117900, Note_on_c, 9, 40, 100
15, 117900, Note_on_c, 9, 46, 100
15, 117930, Note_on_c, 9, 46, 0
15, 117930, Note_on_c, 9, 40, 0
15, 118020, Note_on_c, 9, 35, 100
15, 118020, Note_on_c, 9, 57, 100
15, 118050, Note_on_c, 9, 57, 0
15, 118050, Note_on_c, 9, 35, 0
15, 118140, Note_on_c, 9, 46, 100
15, 118170, Note_on_c, 9, 46, 0
15, 118200, Note_on_c, 9, 35, 100
15, 118230, Note_on_c, 9, 35, 0
15, 118260, Note_on_c, 9, 35, 100
15, 118260, Note_on_c, 9, 46, 100
15, 118290, Note_on_c, 9, 46, 0
15, 118290, Note_on_c, 9, 35, 0
15, 118380, Note_on_c, 9, 40, 100
15, 118380, Note_on_c, 9, 46, 100
15, 118410, Note_on_c, 9, 46, 0
15, 118410, Note_on_c, 9, 40, 0
15, 118500, Note_on_c, 9, 46, 100
15, 118530, Note_on_c, 9, 46, 0
15, 118620, Note_on_c, 9, 35, 100
15, 118620, Note_on_c, 9, 57, 100
15, 118650, Note_on_c, 9, 57, 0
15, 118650, Note_on_c, 9, 35, 0
15, 118740, Note_on_c, 9, 46, 100
15, 118770, Note_on_c, 9, 46, 0
15, 118800, Note_on_c, 9, 35, 100
15, 118830, Note_on_c, 9, 35, 0
15, 118860, Note_on_c, 9, 40, 100
15, 118860, Note_on_c, 9, 46, 100
15, 118890, Note_on_c, 9, 46, 0
15, 118890, Note_on_c, 9, 40, 0
15, 118980, Note_on_c, 9, 35, 100
15, 118980, Note_on_c, 9, 49, 100
15, 119010, Note_on_c, 9, 49, 0
15, 119010, Note_on_c, 9, 35, 0
15, 119100, Note_on_c, 9, 46, 100
15, 119130, Note_on_c, 9, 46, 0
15, 119160, Note_on_c, 9, 35, 100
15, 119190, Note_on_c, 9, 35, 0
15, 119220, Note_on_c, 9, 35, 100
15, 119220, Note_on_c, 9, 46, 100
15, 119250, Note_on_c, 9, 46, 0
15, 119250, Note_on_c, 9, 35, 0
15, 119340, Note_on_c, 9, 40, 100
15, 119340, Note_on_c, 9, 46, 100
15, 119370, Note_on_c, 9, 46, 0
15, 119370, Note_on_c, 9, 40, 0
15, 119400, Note_on_c, 9, 35, 100
15, 119430, Note_on_c, 9, 35, 0
15, 119460, Note_on_c, 9, 35, 100
15, 119460, Note_on_c, 9, 46, 100
15, 119490, Note_on_c, 9, 46, 0
15, 119490, Note_on_c, 9, 35, 0
15, 119580, Note_on_c, 9, 35, 100
15, 119580, Note_on_c, 9, 57, 100
15, 119610, Note_on_c, 9, 57, 0
15, 119610, Note_on_c, 9, 35, 0
15, 119700, Note_on_c, 9, 46, 100
15, 119730, Note_on_c, 9, 46, 0
15, 119760, Note_on_c, 9, 35, 100
15, 119790, Note_on_c, 9, 35, 0
15, 119820, Note_on_c, 9, 40, 100
15, 119820, Note_on_c, 9, 46, 100
15, 119850, Note_on_c, 9, 46, 0
15, 119850, Note_on_c, 9, 40, 0
15, 119940, Note_on_c, 9, 49, 100
15, 119940, Note_on_c, 9, 35, 100
15, 119970, Note_on_c, 9, 35, 0
15, 119970, Note_on_c, 9, 49, 0
15, 120060, Note_on_c, 9, 35, 100
15, 120060, Note_on_c, 9, 57, 100
15, 120090, Note_on_c, 9, 57, 0
15, 120090, Note_on_c, 9, 35, 0
15, 120180, Note_on_c, 9, 46, 100
15, 120210, Note_on_c, 9, 46, 0
15, 120240, Note_on_c, 9, 35, 100
15, 120270, Note_on_c, 9, 35, 0
15, 120300, Note_on_c, 9, 40, 100
15, 120300, Note_on_c, 9, 46, 100
15, 120330, Note_on_c, 9, 46, 0
15, 120330, Note_on_c, 9, 40, 0
15, 120420, Note_on_c, 9, 35, 100
15, 120420, Note_on_c, 9, 49, 100
15, 120450, Note_on_c, 9, 49, 0
15, 120450, Note_on_c, 9, 35, 0
15, 120540, Note_on_c, 9, 35, 100
15, 120540, Note_on_c, 9, 57, 100
15, 120570, Note_on_c, 9, 57, 0
15, 120570, Note_on_c, 9, 35, 0
15, 120660, Note_on_c, 9, 46, 100
15, 120690, Note_on_c, 9, 46, 0
15, 120720, Note_on_c, 9, 35, 100
15, 120750, Note_on_c, 9, 35, 0
15, 120780, Note_on_c, 9, 40, 100
15, 120780, Note_on_c, 9, 46, 100
15, 120810, Note_on_c, 9, 46, 0
15, 120810, Note_on_c, 9, 40, 0
15, 120900, Note_on_c, 9, 35, 100
15, 120900, Note_on_c, 9, 46, 100
15, 120930, Note_on_c, 9, 46, 0
15, 120930, Note_on_c, 9, 35, 0
15, 120960, Note_on_c, 9, 35, 100
15, 120990, Note_on_c, 9, 35, 0
15, 121020, Note_on_c, 9, 46, 100
15, 121020, Note_on_c, 9, 40, 100
15, 121050, Note_on_c, 9, 40, 0
15, 121050, Note_on_c, 9, 46, 0
15, 121080, Note_on_c, 9, 40, 80
15, 121110, Note_on_c, 9, 40, 0
15, 121140, Note_on_c, 9, 46, 100
15, 121140, Note_on_c, 9, 35, 100
15, 121170, Note_on_c, 9, 35, 0
15, 121170, Note_on_c, 9, 46, 0
15, 121200, Note_on_c, 9, 35, 100
15, 121230, Note_on_c, 9, 35, 0
15, 121260, Note_on_c, 9, 46, 100
15, 121260, Note_on_c, 9, 40, 100
15, 121290, Note_on_c, 9, 40, 0
15, 121290, Note_on_c, 9, 46, 0
15, 121320, Note_on_c, 9, 40, 80
15, 121350, Note_on_c, 9, 40, 0
15, 121380, Note_on_c, 9, 46, 100
15, 121380, Note_on_c, 9, 35, 100
15, 121410, Note_on_c, 9, 35, 0
15, 121410, Note_on_c, 9, 46, 0
15, 121440, Note_on_c, 9, 35, 100
15, 121470, Note_on_c, 9, 35, 0
15, 121500, Note_on_c, 9, 40, 100
15, 121500, Note_on_c, 9, 57, 100
15, 121530, Note_on_c, 9, 57, 0
15, 121530, Note_on_c, 9, 40, 0
15, 121620, Note_on_c, 9, 51, 100
15, 121650, Note_on_c, 9, 51, 0
15, 121680, Note_on_c, 9, 35, 100
15, 121710, Note_on_c, 9, 35, 0
15, 121740, Note_on_c, 9, 40, 100
15, 121740, Note_on_c, 9, 51, 100
15, 121770, Note_on_c, 9, 51, 0
15, 121770, Note_on_c, 9, 40, 0
15, 121860, Note_on_c, 9, 35, 100
15, 121860, Note_on_c, 9, 51, 100
15, 121890, Note_on_c, 9, 51, 0
15, 121890, Note_on_c, 9, 35, 0
15, 121920, Note_on_c, 9, 35, 100
15, 121950, Note_on_c, 9, 35, 0
15, 121980, Note_on_c, 9, 40, 100
15, 121980, Note_on_c, 9, 49, 100
15, 122010, Note_on_c, 9, 49, 0
15, 122010, Note_on_c, 9, 40, 0
15, 122100, Note_on_c, 9, 51, 100
15, 122130, Note_on_c, 9, 51, 0
15, 122160, Note_on_c, 9, 35, 100
15, 122190, Note_on_c, 9, 35, 0
15, 122220, Note_on_c, 9, 40, 100
15, 122220, Note_on_c, 9, 51, 100
15, 122250, Note_on_c, 9, 51, 0
15, 122250, Note_on_c, 9, 40, 0
15, 122340, Note_on_c, 9, 35, 100
15, 122340, Note_on_c, 9, 51, 100
15, 122370, Note_on_c, 9, 51, 0
15, 122370, Note_on_c, 9, 35, 0
15, 122400, Note_on_c, 9, 35, 100
15, 122430, Note_on_c, 9, 35, 0
15, 122460, Note_on_c, 9, 40, 100
15, 122460, Note_on_c, 9, 57, 100
15, 122490, Note_on_c, 9, 57, 0
15, 122490, Note_on_c, 9, 40, 0
15, 122580, Note_on_c, 9, 51, 100
15, 122610, Note_on_c, 9, 51, 0
15, 122640, Note_on_c, 9, 35, 100
15, 122670, Note_on_c, 9, 35, 0
15, 122700, Note_on_c, 9, 40, 100
15, 122700, Note_on_c, 9, 51, 100
15, 122730, Note_on_c, 9, 51, 0
15, 122730, Note_on_c, 9, 40, 0
15, 122820, Note_on_c, 9, 35, 100
15, 122820, Note_on_c, 9, 49, 100
15, 122850, Note_on_c, 9, 49, 0
15, 122850, Note_on_c, 9, 35, 0
15, 122940, Note_on_c, 9, 40, 100
15, 122940, Note_on_c, 9, 57, 100
15, 122970, Note_on_c, 9, 57, 0
15, 122970, Note_on_c, 9, 40, 0
15, 123060, Note_on_c, 9, 51, 100
15, 123090, Note_on_c, 9, 51, 0
15, 123120, Note_on_c, 9, 35, 100
15, 123150, Note_on_c, 9, 35, 0
15, 123180, Note_on_c, 9, 40, 100
15, 123180, Note_on_c, 9, 51, 100
15, 123210, Note_on_c, 9, 51, 0
15, 123210, Note_on_c, 9, 40, 0
15, 123300, Note_on_c, 9, 35, 100
15, 123300, Note_on_c, 9, 51, 100
15, 123330, Note_on_c, 9, 51, 0
15, 123330, Note_on_c, 9, 35, 0
15, 123360, Note_on_c, 9, 35, 100
15, 123390, Note_on_c, 9, 35, 0
15, 123420, Note_on_c, 9, 40, 100
15, 123420, Note_on_c, 9, 49, 100
15, 123450, Note_on_c, 9, 49, 0
15, 123450, Note_on_c, 9, 40, 0
15, 123540, Note_on_c, 9, 51, 100
15, 123570, Note_on_c, 9, 51, 0
15, 123600, Note_on_c, 9, 35, 100
15, 123630, Note_on_c, 9, 35, 0
15, 123660, Note_on_c, 9, 40, 100
15, 123660, Note_on_c, 9, 51, 100
15, 123690, Note_on_c, 9, 51, 0
15, 123690, Note_on_c, 9, 40, 0
15, 123780, Note_on_c, 9, 35, 100
15, 123780, Note_on_c, 9, 51, 100
15, 123810, Note_on_c, 9, 51, 0
15, 123810, Note_on_c, 9, 35, 0
15, 123840, Note_on_c, 9, 35, 100
15, 123870, Note_on_c, 9, 35, 0
15, 123900, Note_on_c, 9, 40, 100
15, 123900, Note_on_c, 9, 57, 100
15, 123930, Note_on_c, 9, 57, 0
15, 123930, Note_on_c, 9, 40, 0
15, 124020, Note_on_c, 9, 51, 100
15, 124050, Note_on_c, 9, 51, 0
15, 124080, Note_on_c, 9, 35, 100
15, 124110, Note_on_c, 9, 35, 0
15, 124140, Note_on_c, 9, 40, 100
15, 124140, Note_on_c, 9, 51, 100
15, 124170, Note_on_c, 9, 51, 0
15, 124170, Note_on_c, 9, 40, 0
15, 124260, Note_on_c, 9, 35, 100
15, 124260, Note_on_c, 9, 49, 100
15, 124290, Note_on_c, 9, 49, 0
15, 124290, Note_on_c, 9, 35, 0
15, 124380, Note_on_c, 9, 40, 100
15, 124380, Note_on_c, 9, 57, 100
15, 124410, Note_on_c, 9, 57, 0
15, 124410, Note_on_c, 9, 40, 0
15, 124500, Note_on_c, 9, 51, 100
15, 124530, Note_on_c, 9, 51, 0
15, 124560, Note_on_c, 9, 35, 100
15, 124590, Note_on_c, 9, 35, 0
15, 124620, Note_on_c, 9, 40, 100
15, 124620, Note_on_c, 9, 51, 100
15, 124650, Note_on_c, 9, 51, 0
15, 124650, Note_on_c, 9, 40, 0
15, 124740, Note_on_c, 9, 35, 100
15, 124740, Note_on_c, 9, 57, 100
15, 124770, Note_on_c, 9, 57, 0
15, 124770, Note_on_c, 9, 35, 0
15, 124860, Note_on_c, 9, 49, 100
15, 124860, Note_on_c, 9, 35, 100
15, 124890, Note_on_c, 9, 35, 0
15, 124890, Note_on_c, 9, 49, 0
15, 124980, Note_on_c, 9, 40, 100
15, 125010, Note_on_c, 9, 40, 0
15, 125040, Note_on_c, 9, 40, 100
15, 125070, Note_on_c, 9, 40, 0
15, 125100, Note_on_c, 9, 40, 100
15, 125130, Note_on_c, 9, 40, 0
15, 125160, Note_on_c, 9, 40, 100
15, 125190, Note_on_c, 9, 40, 0
15, 125220, Note_on_c, 9, 57, 100
15, 125220, Note_on_c, 9, 35, 100
15, 125250, Note_on_c, 9, 35, 0
15, 125250, Note_on_c, 9, 57, 0
15, 125340, Note_on_c, 9, 40, 100
15, 125340, Note_on_c, 9, 57, 100
15, 125370, Note_on_c, 9, 57, 0
15, 125370, Note_on_c, 9, 40, 0
15, 125460, Note_on_c, 9, 51, 100
15, 125490, Note_on_c, 9, 51, 0
15, 125520, Note_on_c, 9, 35, 100
15, 125550, Note_on_c, 9, 35, 0
15, 125580, Note_on_c, 9, 40, 100
15, 125580, Note_on_c, 9, 51, 100
15, 125610, Note_on_c, 9, 51, 0
15, 125610, Note_on_c, 9, 40, 0
15, 125700, Note_on_c, 9, 35, 100
15, 125700, Note_on_c, 9, 51, 100
15, 125730, Note_on_c, 9, 51, 0
15, 125730, Note_on_c, 9, 35, 0
15, 125760, Note_on_c, 9, 35, 100
15, 125790, Note_on_c, 9, 35, 0
15, 125820, Note_on_c, 9, 40, 100
15, 125820, Note_on_c, 9, 49, 100
15, 125850, Note_on_c, 9, 49, 0
15, 125850, Note_on_c, 9, 40, 0
15, 125940, Note_on_c, 9, 51, 100
15, 125970, Note_on_c, 9, 51, 0
15, 126000, Note_on_c, 9, 35, 100
15, 126030, Note_on_c, 9, 35, 0
15, 126060, Note_on_c, 9, 40, 100
15, 126060, Note_on_c, 9, 51, 100
15, 126090, Note_on_c, 9, 51, 0
15, 126090, Note_on_c, 9, 40, 0
15, 126180, Note_on_c, 9, 35, 100
15, 126180, Note_on_c, 9, 51, 100
15, 126210, Note_on_c, 9, 51, 0
15, 126210, Note_on_c, 9, 35, 0
15, 126240, Note_on_c, 9, 35, 100
15, 126270, Note_on_c, 9, 35, 0
15, 126300, Note_on_c, 9, 40, 100
15, 126300, Note_on_c, 9, 57, 100
15, 126330, Note_on_c, 9, 57, 0
15, 126330, Note_on_c, 9, 40, 0
15, 126420, Note_on_c, 9, 51, 100
15, 126450, Note_on_c, 9, 51, 0
15, 126480, Note_on_c, 9, 35, 100
15, 126510, Note_on_c, 9, 35, 0
15, 126540, Note_on_c, 9, 40, 100
15, 126540, Note_on_c, 9, 51, 100
15, 126570, Note_on_c, 9, 51, 0
15, 126570, Note_on_c, 9, 40, 0
15, 126660, Note_on_c, 9, 35, 100
15, 126660, Note_on_c, 9, 51, 100
15, 126690, Note_on_c, 9, 51, 0
15, 126690, Note_on_c, 9, 35, 0
15, 126720, Note_on_c, 9, 35, 100
15, 126750, Note_on_c, 9, 35, 0
15, 126780, Note_on_c, 9, 40, 100
15, 126780, Note_on_c, 9, 49, 100
15, 126810, Note_on_c, 9, 49, 0
15, 126810, Note_on_c, 9, 40, 0
15, 126900, Note_on_c, 9, 51, 100
15, 126930, Note_on_c, 9, 51, 0
15, 126960, Note_on_c, 9, 35, 100
15, 126990, Note_on_c, 9, 35, 0
15, 127020, Note_on_c, 9, 40, 100
15, 127020, Note_on_c, 9, 51, 100
15, 127050, Note_on_c, 9, 51, 0
15, 127050, Note_on_c, 9, 40, 0
15, 127140, Note_on_c, 9, 35, 100
15, 127140, Note_on_c, 9, 51, 100
15, 127170, Note_on_c, 9, 51, 0
15, 127170, Note_on_c, 9, 35, 0
15, 127200, Note_on_c, 9, 35, 100
15, 127230, Note_on_c, 9, 35, 0
15, 127260, Note_on_c, 9, 40, 100
15, 127260, Note_on_c, 9, 57, 100
15, 127290, Note_on_c, 9, 57, 0
15, 127290, Note_on_c, 9, 40, 0
15, 127380, Note_on_c, 9, 51, 100
15, 127410, Note_on_c, 9, 51, 0
15, 127440, Note_on_c, 9, 35, 100
15, 127470, Note_on_c, 9, 35, 0
15, 127500, Note_on_c, 9, 40, 100
15, 127500, Note_on_c, 9, 51, 100
15, 127530, Note_on_c, 9, 51, 0
15, 127530, Note_on_c, 9, 40, 0
15, 127620, Note_on_c, 9, 35, 100
15, 127620, Note_on_c, 9, 51, 100
15, 127650, Note_on_c, 9, 51, 0
15, 127650, Note_on_c, 9, 35, 0
15, 127680, Note_on_c, 9, 35, 100
15, 127710, Note_on_c, 9, 35, 0
15, 127740, Note_on_c, 9, 40, 100
15, 127740, Note_on_c, 9, 49, 100
15, 127770, Note_on_c, 9, 49, 0
15, 127770, Note_on_c, 9, 40, 0
15, 127860, Note_on_c, 9, 51, 100
15, 127890, Note_on_c, 9, 51, 0
15, 127920, Note_on_c, 9, 35, 100
15, 127950, Note_on_c, 9, 35, 0
15, 127980, Note_on_c, 9, 40, 100
15, 127980, Note_on_c, 9, 51, 100
15, 128010, Note_on_c, 9, 51, 0
15, 128010, Note_on_c, 9, 40, 0
15, 128100, Note_on_c, 9, 35, 100
15, 128100, Note_on_c, 9, 51, 100
15, 128130, Note_on_c, 9, 51, 0
15, 128130, Note_on_c, 9, 35, 0
15, 128160, Note_on_c, 9, 35, 100
15, 128190, Note_on_c, 9, 35, 0
15, 128220, Note_on_c, 9, 40, 100
15, 128220, Note_on_c, 9, 51, 100
15, 128250, Note_on_c, 9, 51, 0
15, 128250, Note_on_c, 9, 40, 0
15, 128280, Note_on_c, 9, 40, 100
15, 128310, Note_on_c, 9, 40, 0
15, 128340, Note_on_c, 9, 51, 100
15, 128370, Note_on_c, 9, 51, 0
15, 128400, Note_on_c, 9, 35, 100
15, 128430, Note_on_c, 9, 35, 0
15, 128460, Note_on_c, 9, 40, 100
15, 128460, Note_on_c, 9, 51, 100
15, 128490, Note_on_c, 9, 51, 0
15, 128490, Note_on_c, 9, 40, 0
15, 128580, Note_on_c, 9, 35, 100
15, 128580, Note_on_c, 9, 49, 100
15, 128610, Note_on_c, 9, 49, 0
15, 128610, Note_on_c, 9, 35, 0
15, 128700, Note_on_c, 9, 35, 100
15, 128700, Note_on_c, 9, 57, 100
15, 128730, Note_on_c, 9, 57, 0
15, 128730, Note_on_c, 9, 35, 0
15, 128820, Note_on_c, 9, 51, 100
15, 128850, Note_on_c, 9, 51, 0
15, 128880, Note_on_c, 9, 35, 100
15, 128910, Note_on_c, 9, 35, 0
15, 128940, Note_on_c, 9, 40, 100
15, 128940, Note_on_c, 9, 51, 100
15, 128970, Note_on_c, 9, 51, 0
15, 128970, Note_on_c, 9, 40, 0
15, 129060, Note_on_c, 9, 51, 100
15, 129090, Note_on_c, 9, 51, 0
15, 129120, Note_on_c, 9, 35, 100
15, 129150, Note_on_c, 9, 35, 0
15, 129180, Note_on_c, 9, 52, 127
15, 129180, Note_on_c, 9, 40, 127
15, 129210, Note_on_c, 9, 40, 0
15, 129210, Note_on_c, 9, 52, 0
15, 129780, Note_on_c, 9, 40, 100
15, 129810, Note_on_c, 9, 40, 0
15, 129840, Note_on_c, 9, 35, 100
15, 129840, Note_on_c, 9, 49, 100
15, 129870, Note_on_c, 9, 49, 0
15, 129870, Note_on_c, 9, 35, 0
15, 129960, Note_on_c, 9, 35, 100
15, 129990, Note_on_c, 9, 35, 0
15, 130020, Note_on_c, 9, 46, 100
15, 130020, Note_on_c, 9, 40, 100
15, 130050, Note_on_c, 9, 40, 0
15, 130050, Note_on_c, 9, 46, 0
15, 130140, Note_on_c, 9, 35, 100
15, 130140, Note_on_c, 9, 46, 100
15, 130170, Note_on_c, 9, 46, 0
15, 130170, Note_on_c, 9, 35, 0
15, 130200, Note_on_c, 9, 35, 100
15, 130230, Note_on_c, 9, 35, 0
15, 130260, Note_on_c, 9, 40, 100
15, 130260, Note_on_c, 9, 46, 100
15, 130290, Note_on_c, 9, 46, 0
15, 130290, Note_on_c, 9, 40, 0
15, 130380, Note_on_c, 9, 35, 100
15, 130380, Note_on_c, 9, 46, 100
15, 130410, Note_on_c, 9, 46, 0
15, 130410, Note_on_c, 9, 35, 0
15, 130440, Note_on_c, 9, 46, 100
15, 130440, Note_on_c, 9, 35, 100
15, 130470, Note_on_c, 9, 35, 0
15, 130470, Note_on_c, 9, 46, 0
15, 130500, Note_on_c, 9, 40, 100
15, 130530, Note_on_c, 9, 40, 0
15, 130560, Note_on_c, 9, 57, 100
15, 130560, Note_on_c, 9, 35, 100
15, 130590, Note_on_c, 9, 35, 0
15, 130590, Note_on_c, 9, 57, 0
15, 130680, Note_on_c, 9, 35, 100
15, 130710, Note_on_c, 9, 35, 0
15, 130740, Note_on_c, 9, 46, 100
15, 130740, Note_on_c, 9, 40, 100
15, 130770, Note_on_c, 9, 40, 0
15, 130770, Note_on_c, 9, 46, 0
15, 130860, Note_on_c, 9, 35, 100
15, 130860, Note_on_c, 9, 46, 100
15, 130890, Note_on_c, 9, 46, 0
15, 130890, Note_on_c, 9, 35, 0
15, 130920, Note_on_c, 9, 35, 100
15, 130950, Note_on_c, 9, 35, 0
15, 130980, Note_on_c, 9, 40, 100
15, 130980, Note_on_c, 9, 46, 100
15, 131010, Note_on_c, 9, 46, 0
15, 131010, Note_on_c, 9, 40, 0
15, 131100, Note_on_c, 9, 35, 100
15, 131100, Note_on_c, 9, 46, 100
15, 131130, Note_on_c, 9, 46, 0
15, 131130, Note_on_c, 9, 35, 0
15, 131160, Note_on_c, 9, 46, 100
15, 131160, Note_on_c, 9, 35, 100
15, 131190, Note_on_c, 9, 35, 0
15, 131190, Note_on_c, 9, 46, 0
15, 131220, Note_on_c, 9, 44, 100
15, 131220, Note_on_c, 9, 40, 100
15, 131250, Note_on_c, 9, 40, 0
15, 131250, Note_on_c, 9, 44, 0
15, 131280, Note_on_c, 9, 57, 100
15, 131280, Note_on_c, 9, 35, 100
15, 131310, Note_on_c, 9, 35, 0
15, 131310, Note_on_c, 9, 57, 0
15, 131400, Note_on_c, 9, 35, 100
15, 131430, Note_on_c, 9, 35, 0
15, 131460, Note_on_c, 9, 46, 100
15, 131460, Note_on_c, 9, 40, 100
15, 131490, Note_on_c, 9, 40, 0
15, 131490, Note_on_c, 9, 46, 0
15, 131580, Note_on_c, 9, 35, 100
15, 131580, Note_on_c, 9, 46, 100
15, 131610, Note_on_c, 9, 46, 0
15, 131610, Note_on_c, 9, 35, 0
15, 131640, Note_on_c, 9, 35, 100
15, 131670, Note_on_c, 9, 35, 0
15, 131700, Note_on_c, 9, 40, 100
15, 131700, Note_on_c, 9, 46, 100
15, 131730, Note_on_c, 9, 46, 0
15, 131730, Note_on_c, 9, 40, 0
15, 131820, Note_on_c, 9, 35, 100
15, 131820, Note_on_c, 9, 46, 100
15, 131850, Note_on_c, 9, 46, 0
15, 131850, Note_on_c, 9, 35, 0
15, 131880, Note_on_c, 9, 46, 100
15, 131880, Note_on_c, 9, 35, 100
15, 131910, Note_on_c, 9, 35, 0
15, 131910, Note_on_c, 9, 46, 0
15, 131940, Note_on_c, 9, 40, 100
15, 131970, Note_on_c, 9, 40, 0
15, 132000, Note_on_c, 9, 57, 100
15, 132000, Note_on_c, 9, 35, 100
15, 132030, Note_on_c, 9, 35, 0
15, 132030, Note_on_c, 9, 57, 0
15, 132120, Note_on_c, 9, 35, 100
15, 132150, Note_on_c, 9, 35, 0
15, 132180, Note_on_c, 9, 46, 100
15, 132180, Note_on_c, 9, 40, 100
15, 132210, Note_on_c, 9, 40, 0
15, 132210, Note_on_c, 9, 46, 0
15, 132300, Note_on_c, 9, 35, 100
15, 132300, Note_on_c, 9, 46, 100
15, 132330, Note_on_c, 9, 46, 0
15, 132330, Note_on_c, 9, 35, 0
15, 132360, Note_on_c, 9, 35, 100
15, 132390, Note_on_c, 9, 35, 0
15, 132420, Note_on_c, 9, 40, 100
15, 132420, Note_on_c, 9, 46, 100
15, 132450, Note_on_c, 9, 46, 0
15, 132450, Note_on_c, 9, 40, 0
15, 132540, Note_on_c, 9, 35, 100
15, 132540, Note_on_c, 9, 46, 100
15, 132570, Note_on_c, 9, 46, 0
15, 132570, Note_on_c, 9, 35, 0
15, 132600, Note_on_c, 9, 46, 100
15, 132600, Note_on_c, 9, 35, 100
15, 132630, Note_on_c, 9, 35, 0
15, 132630, Note_on_c, 9, 46, 0
15, 132630, Note_on_c, 9, 44, 100
15, 132660, Note_on_c, 9, 44, 0
15, 132660, Note_on_c, 9, 40, 100
15, 132690, Note_on_c, 9, 40, 0
15, 132720, Note_on_c, 9, 57, 100
15, 132720, Note_on_c, 9, 35, 100
15, 132750, Note_on_c, 9, 35, 0
15, 132750, Note_on_c, 9, 57, 0
15, 132840, Note_on_c, 9, 35, 100
15, 132870, Note_on_c, 9, 35, 0
15, 132900, Note_on_c, 9, 46, 100
15, 132900, Note_on_c, 9, 40, 100
15, 132930, Note_on_c, 9, 40, 0
15, 132930, Note_on_c, 9, 46, 0
15, 133020, Note_on_c, 9, 35, 100
15, 133020, Note_on_c, 9, 46, 100
15, 133050, Note_on_c, 9, 46, 0
15, 133050, Note_on_c, 9, 35, 0
15, 133080, Note_on_c, 9, 35, 100
15, 133110, Note_on_c, 9, 35, 0
15, 133140, Note_on_c, 9, 40, 100
15, 133140, Note_on_c, 9, 46, 100
15, 133170, Note_on_c, 9, 46, 0
15, 133170, Note_on_c, 9, 40, 0
15, 133260, Note_on_c, 9, 35, 100
15, 133260, Note_on_c, 9, 46, 100
15, 133290, Note_on_c, 9, 46, 0
15, 133290, Note_on_c, 9, 35, 0
15, 133320, Note_on_c, 9, 46, 100
15, 133320, Note_on_c, 9, 35, 100
15, 133350, Note_on_c, 9, 35, 0
15, 133350, Note_on_c, 9, 46, 0
15, 133380, Note_on_c, 9, 40, 100
15, 133410, Note_on_c, 9, 40, 0
15, 133440, Note_on_c, 9, 57, 100
15, 133440, Note_on_c, 9, 35, 100
15, 133470, Note_on_c, 9, 35, 0
15, 133470, Note_on_c, 9, 57, 0
15, 133560, Note_on_c, 9, 35, 100
15, 133590, Note_on_c, 9, 35, 0
15, 133620, Note_on_c, 9, 46, 100
15, 133620, Note_on_c, 9, 40, 100
15, 133650, Note_on_c, 9, 40, 0
15, 133650, Note_on_c, 9, 46, 0
15, 133740, Note_on_c, 9, 35, 100
15, 133740, Note_on_c, 9, 46, 100
15, 133770, Note_on_c, 9, 46, 0
15, 133770, Note_on_c, 9, 35, 0
15, 133800, Note_on_c, 9, 46, 100
15, 133800, Note_on_c, 9, 35, 100
15, 133830, Note_on_c, 9, 35, 0
15, 133830, Note_on_c, 9, 46, 0
15, 133860, Note_on_c, 9, 40, 100
15, 133860, Note_on_c, 9, 44, 100
15, 133890, Note_on_c, 9, 44, 0
15, 133890, Note_on_c, 9, 40, 0
15, 133920, Note_on_c, 9, 46, 100
15, 133920, Note_on_c, 9, 35, 100
15, 133950, Note_on_c, 9, 35, 0
15, 133950, Note_on_c, 9, 46, 0
15, 133980, Note_on_c, 9, 44, 100
15, 134010, Note_on_c, 9, 44, 0
15, 134040, Note_on_c, 9, 46, 100
15, 134040, Note_on_c, 9, 35, 100
15, 134070, Note_on_c, 9, 35, 0
15, 134070, Note_on_c, 9, 46, 0
15, 134100, Note_on_c, 9, 44, 100
15, 134100, Note_on_c, 9, 40, 100
15, 134130, Note_on_c, 9, 40, 0
15, 134130, Note_on_c, 9, 44, 0
15, 134160, Note_on_c, 9, 57, 100
15, 134160, Note_on_c, 9, 35, 100
15, 134190, Note_on_c, 9, 35, 0
15, 134190, Note_on_c, 9, 57, 0
15, 134280, Note_on_c, 9, 35, 100
15, 134310, Note_on_c, 9, 35, 0
15, 134340, Note_on_c, 9, 46, 100
15, 134340, Note_on_c, 9, 40, 100
15, 134370, Note_on_c, 9, 40, 0
15, 134370, Note_on_c, 9, 46, 0
15, 134460, Note_on_c, 9, 35, 100
15, 134460, Note_on_c, 9, 46, 100
15, 134490, Note_on_c, 9, 46, 0
15, 134490, Note_on_c, 9, 35, 0
15, 134520, Note_on_c, 9, 35, 100
15, 134550, Note_on_c, 9, 35, 0
15, 134580, Note_on_c, 9, 40, 100
15, 134580, Note_on_c, 9, 46, 100
15, 134610, Note_on_c, 9, 46, 0
15, 134610, Note_on_c, 9, 40, 0
15, 134700, Note_on_c, 9, 35, 100
15, 134700, Note_on_c, 9, 46, 100
15, 134730, Note_on_c, 9, 46, 0
15, 134730, Note_on_c, 9, 35, 0
15, 134760, Note_on_c, 9, 46, 100
15, 134760, Note_on_c, 9, 35, 100
15, 134790, Note_on_c, 9, 35, 0
15, 134790, Note_on_c, 9, 46, 0
15, 134820, Note_on_c, 9, 44, 100
15, 134820, Note_on_c, 9, 40, 100
15, 134850, Note_on_c, 9, 40, 0
15, 134850, Note_on_c, 9, 44, 0
15, 134880, Note_on_c, 9, 57, 100
15, 134880, Note_on_c, 9, 35, 100
15, 134910, Note_on_c, 9, 35, 0
15, 134910, Note_on_c, 9, 57, 0
15, 135000, Note_on_c, 9, 35, 100
15, 135030, Note_on_c, 9, 35, 0
15, 135060, Note_on_c, 9, 46, 100
15, 135060, Note_on_c, 9, 40, 100
15, 135090, Note_on_c, 9, 40, 0
15, 135090, Note_on_c, 9, 46, 0
15, 135180, Note_on_c, 9, 35, 100
15, 135180, Note_on_c, 9, 46, 100
15, 135210, Note_on_c, 9, 46, 0
15, 135210, Note_on_c, 9, 35, 0
15, 135240, Note_on_c, 9, 35, 100
15, 135270, Note_on_c, 9, 35, 0
15, 135300, Note_on_c, 9, 40, 100
15, 135300, Note_on_c, 9, 46, 100
15, 135330, Note_on_c, 9, 46, 0
15, 135330, Note_on_c, 9, 40, 0
15, 135420, Note_on_c, 9, 40, 100
15, 135450, Note_on_c, 9, 40, 0
15, 135450, Note_on_c, 9, 40, 100
15, 135480, Note_on_c, 9, 40, 0
15, 135480, Note_on_c, 9, 35, 100
15, 135510, Note_on_c, 9, 35, 0
15, 135510, Note_on_c, 9, 35, 100
15, 135530, Note_on_c, 9, 40, 80
15, 135540, Note_on_c, 9, 35, 0
15, 135540, Note_on_c, 9, 40, 100
15, 135560, Note_on_c, 9, 40, 0
15, 135570, Note_on_c, 9, 40, 0
15, 135600, Note_on_c, 9, 49, 100
15, 135600, Note_on_c, 9, 35, 100
15, 135630, Note_on_c, 9, 35, 0
15, 135630, Note_on_c, 9, 49, 0
15, 135720, Note_on_c, 9, 35, 100
15, 135750, Note_on_c, 9, 35, 0
15, 135780, Note_on_c, 9, 40, 100
15, 135780, Note_on_c, 9, 55, 100
15, 135810, Note_on_c, 9, 55, 0
15, 135810, Note_on_c, 9, 40, 0
15, 135900, Note_on_c, 9, 53, 100
15, 135900, Note_on_c, 9, 35, 100
15, 135930, Note_on_c, 9, 35, 0
15, 135930, Note_on_c, 9, 53, 0
15, 135960, Note_on_c, 9, 35, 100
15, 135990, Note_on_c, 9, 35, 0
15, 136020, Note_on_c, 9, 53, 100
15, 136020, Note_on_c, 9, 40, 100
15, 136050, Note_on_c, 9, 40, 0
15, 136050, Note_on_c, 9, 53, 0
15, 136140, Note_on_c, 9, 53, 100
15, 136140, Note_on_c, 9, 35, 100
15, 136170, Note_on_c, 9, 35, 0
15, 136170, Note_on_c, 9, 53, 0
15, 136200, Note_on_c, 9, 53, 100
15, 136200, Note_on_c, 9, 35, 100
15, 136230, Note_on_c, 9, 35, 0
15, 136230, Note_on_c, 9, 53, 0
15, 136260, Note_on_c, 9, 40, 100
15, 136290, Note_on_c, 9, 40, 0
15, 136320, Note_on_c, 9, 52, 100
15, 136320, Note_on_c, 9, 35, 100
15, 136350, Note_on_c, 9, 35, 0
15, 136350, Note_on_c, 9, 52, 0
15, 136440, Note_on_c, 9, 35, 100
15, 136470, Note_on_c, 9, 35, 0
15, 136500, Note_on_c, 9, 40, 100
15, 136500, Note_on_c, 9, 53, 100
15, 136530, Note_on_c, 9, 53, 0
15, 136530, Note_on_c, 9, 40, 0
15, 136620, Note_on_c, 9, 53, 100
15, 136620, Note_on_c, 9, 35, 100
15, 136650, Note_on_c, 9, 35, 0
15, 136650, Note_on_c, 9, 53, 0
15, 136680, Note_on_c, 9, 35, 100
15, 136710, Note_on_c, 9, 35, 0
15, 136740, Note_on_c, 9, 53, 100
15, 136740, Note_on_c, 9, 40, 100
15, 136770, Note_on_c, 9, 40, 0
15, 136770, Note_on_c, 9, 53, 0
15, 136860, Note_on_c, 9, 53, 100
15, 136860, Note_on_c, 9, 35, 100
15, 136890, Note_on_c, 9, 35, 0
15, 136890, Note_on_c, 9, 53, 0
15, 136920, Note_on_c, 9, 53, 100
15, 136920, Note_on_c, 9, 35, 100
15, 136950, Note_on_c, 9, 35, 0
15, 136950, Note_on_c, 9, 53, 0
15, 136980, Note_on_c, 9, 40, 100
15, 137010, Note_on_c, 9, 40, 0
15, 137040, Note_on_c, 9, 52, 100
15, 137040, Note_on_c, 9, 35, 100
15, 137070, Note_on_c, 9, 35, 0
15, 137070, Note_on_c, 9, 52, 0
15, 137160, Note_on_c, 9, 35, 100
15, 137190, Note_on_c, 9, 35, 0
15, 137220, Note_on_c, 9, 40, 100
15, 137220, Note_on_c, 9, 53, 100
15, 137250, Note_on_c, 9, 53, 0
15, 137250, Note_on_c, 9, 40, 0
15, 137340, Note_on_c, 9, 53, 100
15, 137340, Note_on_c, 9, 35, 100
15, 137370, Note_on_c, 9, 35, 0
15, 137370, Note_on_c, 9, 53, 0
15, 137400, Note_on_c, 9, 35, 100
15, 137430, Note_on_c, 9, 35, 0
15, 137460, Note_on_c, 9, 53, 100
15, 137460, Note_on_c, 9, 40, 100
15, 137490, Note_on_c, 9, 40, 0
15, 137490, Note_on_c, 9, 53, 0
15, 137580, Note_on_c, 9, 53, 100
15, 137580, Note_on_c, 9, 35, 100
15, 137610, Note_on_c, 9, 35, 0
15, 137610, Note_on_c, 9, 53, 0
15, 137640, Note_on_c, 9, 53, 100
15, 137640, Note_on_c, 9, 35, 100
15, 137670, Note_on_c, 9, 35, 0
15, 137670, Note_on_c, 9, 53, 0
15, 137700, Note_on_c, 9, 40, 100
15, 137730, Note_on_c, 9, 40, 0
15, 137760, Note_on_c, 9, 52, 100
15, 137760, Note_on_c, 9, 35, 100
15, 137790, Note_on_c, 9, 35, 0
15, 137790, Note_on_c, 9, 52, 0
15, 137880, Note_on_c, 9, 35, 100
15, 137910, Note_on_c, 9, 35, 0
15, 137940, Note_on_c, 9, 40, 100
15, 137940, Note_on_c, 9, 53, 100
15, 137970, Note_on_c, 9, 53, 0
15, 137970, Note_on_c, 9, 40, 0
15, 138000, Note_on_c, 9, 35, 100
15, 138030, Note_on_c, 9, 35, 0
15, 138060, Note_on_c, 9, 53, 100
15, 138060, Note_on_c, 9, 40, 100
15, 138090, Note_on_c, 9, 40, 0
15, 138090, Note_on_c, 9, 53, 0
15, 138120, Note_on_c, 9, 35, 100
15, 138150, Note_on_c, 9, 35, 0
15, 138180, Note_on_c, 9, 53, 100
15, 138180, Note_on_c, 9, 40, 100
15, 138210, Note_on_c, 9, 40, 0
15, 138210, Note_on_c, 9, 53, 0
15, 138240, Note_on_c, 9, 35, 100
15, 138270, Note_on_c, 9, 35, 0
15, 138300, Note_on_c, 9, 53, 100
15, 138300, Note_on_c, 9, 40, 100
15, 138330, Note_on_c, 9, 40, 0
15, 138330, Note_on_c, 9, 53, 0
15, 138360, Note_on_c, 9, 53, 100
15, 138360, Note_on_c, 9, 35, 100
15, 138390, Note_on_c, 9, 35, 0
15, 138390, Note_on_c, 9, 53, 0
15, 138420, Note_on_c, 9, 40, 100
15, 138450, Note_on_c, 9, 40, 0
15, 138480, Note_on_c, 9, 52, 100
15, 138480, Note_on_c, 9, 35, 100
15, 138510, Note_on_c, 9, 35, 0
15, 138510, Note_on_c, 9, 52, 0
15, 138600, Note_on_c, 9, 35, 100
15, 138630, Note_on_c, 9, 35, 0
15, 138660, Note_on_c, 9, 40, 100
15, 138660, Note_on_c, 9, 51, 100
15, 138690, Note_on_c, 9, 51, 0
15, 138690, Note_on_c, 9, 40, 0
15, 138780, Note_on_c, 9, 53, 100
15, 138780, Note_on_c, 9, 35, 100
15, 138810, Note_on_c, 9, 35, 0
15, 138810, Note_on_c, 9, 53, 0
15, 138840, Note_on_c, 9, 35, 100
15, 138870, Note_on_c, 9, 35, 0
15, 138900, Note_on_c, 9, 53, 100
15, 138900, Note_on_c, 9, 40, 100
15, 138930, Note_on_c, 9, 40, 0
15, 138930, Note_on_c, 9, 53, 0
15, 139020, Note_on_c, 9, 53, 100
15, 139020, Note_on_c, 9, 35, 100
15, 139050, Note_on_c, 9, 35, 0
15, 139050, Note_on_c, 9, 53, 0
15, 139080, Note_on_c, 9, 53, 100
15, 139080, Note_on_c, 9, 35, 100
15, 139110, Note_on_c, 9, 35, 0
15, 139110, Note_on_c, 9, 53, 0
15, 139140, Note_on_c, 9, 40, 100
15, 139170, Note_on_c, 9, 40, 0
15, 139200, Note_on_c, 9, 52, 100
15, 139200, Note_on_c, 9, 35, 100
15, 139230, Note_on_c, 9, 35, 0
15, 139230, Note_on_c, 9, 52, 0
15, 139320, Note_on_c, 9, 35, 100
15, 139350, Note_on_c, 9, 35, 0
15, 139380, Note_on_c, 9, 40, 100
15, 139380, Note_on_c, 9, 53, 100
15, 139410, Note_on_c, 9, 53, 0
15, 139410, Note_on_c, 9, 40, 0
15, 139500, Note_on_c, 9, 53, 100
15, 139500, Note_on_c, 9, 35, 100
15, 139530, Note_on_c, 9, 35, 0
15, 139530, Note_on_c, 9, 53, 0
15, 139560, Note_on_c, 9, 35, 100
15, 139590, Note_on_c, 9, 35, 0
15, 139620, Note_on_c, 9, 53, 100
15, 139620, Note_on_c, 9, 40, 100
15, 139650, Note_on_c, 9, 40, 0
15, 139650, Note_on_c, 9, 53, 0
15, 139740, Note_on_c, 9, 53, 100
15, 139740, Note_on_c, 9, 35, 100
15, 139770, Note_on_c, 9, 35, 0
15, 139770, Note_on_c, 9, 53, 0
15, 139800, Note_on_c, 9, 53, 100
15, 139800, Note_on_c, 9, 35, 100
15, 139830, Note_on_c, 9, 35, 0
15, 139830, Note_on_c, 9, 53, 0
15, 139830, Note_on_c, 9, 35, 100
15, 139860, Note_on_c, 9, 35, 0
15, 139860, Note_on_c, 9, 40, 100
15, 139890, Note_on_c, 9, 40, 0
15, 139920, Note_on_c, 9, 52, 100
15, 139920, Note_on_c, 9, 35, 100
15, 139950, Note_on_c, 9, 35, 0
15, 139950, Note_on_c, 9, 52, 0
15, 140040, Note_on_c, 9, 35, 100
15, 140070, Note_on_c, 9, 35, 0
15, 140100, Note_on_c, 9, 40, 100
15, 140100, Note_on_c, 9, 53, 100
15, 140130, Note_on_c, 9, 53, 0
15, 140130, Note_on_c, 9, 40, 0
15, 140220, Note_on_c, 9, 53, 100
15, 140220, Note_on_c, 9, 35, 100
15, 140250, Note_on_c, 9, 35, 0
15, 140250, Note_on_c, 9, 53, 0
15, 140280, Note_on_c, 9, 35, 100
15, 140310, Note_on_c, 9, 35, 0
15, 140340, Note_on_c, 9, 53, 100
15, 140340, Note_on_c, 9, 40, 100
15, 140370, Note_on_c, 9, 40, 0
15, 140370, Note_on_c, 9, 53, 0
15, 140460, Note_on_c, 9, 53, 100
15, 140460, Note_on_c, 9, 35, 100
15, 140490, Note_on_c, 9, 35, 0
15, 140490, Note_on_c, 9, 53, 0
15, 140520, Note_on_c, 9, 53, 100
15, 140520, Note_on_c, 9, 35, 100
15, 140550, Note_on_c, 9, 35, 0
15, 140550, Note_on_c, 9, 53, 0
15, 140580, Note_on_c, 9, 40, 100
15, 140610, Note_on_c, 9, 40, 0
15, 140640, Note_on_c, 9, 52, 100
15, 140640, Note_on_c, 9, 35, 100
15, 140670, Note_on_c, 9, 35, 0
15, 140670, Note_on_c, 9, 52, 0
15, 140760, Note_on_c, 9, 35, 100
15, 140790, Note_on_c, 9, 35, 0
15, 140820, Note_on_c, 9, 40, 100
15, 140820, Note_on_c, 9, 55, 100
15, 140850, Note_on_c, 9, 55, 0
15, 140850, Note_on_c, 9, 40, 0
15, 140940, Note_on_c, 9, 53, 100
15, 140940, Note_on_c, 9, 35, 100
15, 140970, Note_on_c, 9, 35, 0
15, 140970, Note_on_c, 9, 53, 0
15, 141000, Note_on_c, 9, 35, 100
15, 141030, Note_on_c, 9, 35, 0
15, 141060, Note_on_c, 9, 53, 100
15, 141060, Note_on_c, 9, 40, 100
15, 141090, Note_on_c, 9, 40, 0
15, 141090, Note_on_c, 9, 53, 0
15, 141180, Note_on_c, 9, 53, 100
15, 141180, Note_on_c, 9, 35, 100
15, 141210, Note_on_c, 9, 35, 0
15, 141210, Note_on_c, 9, 53, 0
15, 141240, Note_on_c, 9, 53, 100
15, 141240, Note_on_c, 9, 35, 100
15, 141270, Note_on_c, 9, 35, 0
15, 141270, Note_on_c, 9, 53, 0
15, 141300, Note_on_c, 9, 40, 100
15, 141330, Note_on_c, 9, 40, 0
15, 141360, Note_on_c, 9, 57, 100
15, 141360, Note_on_c, 9, 35, 100
15, 141390, Note_on_c, 9, 35, 0
15, 141390, Note_on_c, 9, 57, 0
15, 141480, Note_on_c, 9, 35, 100
15, 141480, Note_on_c, 9, 49, 100
15, 141510, Note_on_c, 9, 49, 0
15, 141510, Note_on_c, 9, 35, 0
15, 141600, Note_on_c, 9, 35, 100
15, 141630, Note_on_c, 9, 35, 0
15, 141660, Note_on_c, 9, 40, 100
15, 141660, Note_on_c, 9, 52, 100
15, 141690, Note_on_c, 9, 52, 0
15, 141690, Note_on_c, 9, 40, 0
15, 141780, Note_on_c, 9, 35, 100
15, 141780, Note_on_c, 9, 52, 100
15, 141810, Note_on_c, 9, 52, 0
15, 141810, Note_on_c, 9, 35, 0
15, 141840, Note_on_c, 9, 35, 100
15, 141870, Note_on_c, 9, 35, 0
15, 141900, Note_on_c, 9, 40, 100
15, 141900, Note_on_c, 9, 52, 100
15, 141930, Note_on_c, 9, 52, 0
15, 141930, Note_on_c, 9, 40, 0
15, 142020, Note_on_c, 9, 35, 100
15, 142020, Note_on_c, 9, 52, 100
15, 142050, Note_on_c, 9, 52, 0
15, 142050, Note_on_c, 9, 35, 0
15, 142080, Note_on_c, 9, 35, 100
15, 142080, Note_on_c, 9, 52, 100
15, 142110, Note_on_c, 9, 52, 0
15, 142110, Note_on_c, 9, 35, 0
15, 142140, Note_on_c, 9, 40, 100
15, 142170, Note_on_c, 9, 40, 0
15, 142200, Note_on_c, 9, 35, 100
15, 142200, Note_on_c, 9, 49, 100
15, 142230, Note_on_c, 9, 49, 0
15, 142230, Note_on_c, 9, 35, 0
15, 142320, Note_on_c, 9, 35, 100
15, 142350, Note_on_c, 9, 35, 0
15, 142380, Note_on_c, 9, 40, 100
15, 142380, Note_on_c, 9, 52, 100
15, 142410, Note_on_c, 9, 52, 0
15, 142410, Note_on_c, 9, 40, 0
15, 142500, Note_on_c, 9, 35, 100
15, 142500, Note_on_c, 9, 52, 100
15, 142530, Note_on_c, 9, 52, 0
15, 142530, Note_on_c, 9, 35, 0
15, 142560, Note_on_c, 9, 35, 100
15, 142590, Note_on_c, 9, 35, 0
15, 142620, Note_on_c, 9, 40, 100
15, 142620, Note_on_c, 9, 52, 100
15, 142650, Note_on_c, 9, 52, 0
15, 142650, Note_on_c, 9, 40, 0
15, 142740, Note_on_c, 9, 35, 100
15, 142740, Note_on_c, 9, 52, 100
15, 142770, Note_on_c, 9, 52, 0
15, 142770, Note_on_c, 9, 35, 0
15, 142800, Note_on_c, 9, 35, 100
15, 142800, Note_on_c, 9, 52, 100
15, 142830, Note_on_c, 9, 52, 0
15, 142830, Note_on_c, 9, 35, 0
15, 142860, Note_on_c, 9, 40, 100
15, 142890, Note_on_c, 9, 40, 0
15, 142920, Note_on_c, 9, 35, 100
15, 142920, Note_on_c, 9, 49, 100
15, 142950, Note_on_c, 9, 49, 0
15, 142950, Note_on_c, 9, 35, 0
15, 143040, Note_on_c, 9, 35, 100
15, 143070, Note_on_c, 9, 35, 0
15, 143100, Note_on_c, 9, 40, 100
15, 143100, Note_on_c, 9, 52, 100
15, 143130, Note_on_c, 9, 52, 0
15, 143130, Note_on_c, 9, 40, 0
15, 143220, Note_on_c, 9, 35, 100
15, 143220, Note_on_c, 9, 52, 100
15, 143250, Note_on_c, 9, 52, 0
15, 143250, Note_on_c, 9, 35, 0
15, 143280, Note_on_c, 9, 35, 100
15, 143310, Note_on_c, 9, 35, 0
15, 143340, Note_on_c, 9, 40, 100
15, 143340, Note_on_c, 9, 52, 100
15, 143370, Note_on_c, 9, 52, 0
15, 143370, Note_on_c, 9, 40, 0
15, 143460, Note_on_c, 9, 35, 100
15, 143460, Note_on_c, 9, 52, 100
15, 143490, Note_on_c, 9, 52, 0
15, 143490, Note_on_c, 9, 35, 0
15, 143520, Note_on_c, 9, 35, 100
15, 143520, Note_on_c, 9, 52, 100
15, 143550, Note_on_c, 9, 52, 0
15, 143550, Note_on_c, 9, 35, 0
15, 143580, Note_on_c, 9, 40, 100
15, 143610, Note_on_c, 9, 40, 0
15, 143640, Note_on_c, 9, 35, 100
15, 143640, Note_on_c, 9, 49, 100
15, 143670, Note_on_c, 9, 49, 0
15, 143670, Note_on_c, 9, 35, 0
15, 143760, Note_on_c, 9, 35, 100
15, 143790, Note_on_c, 9, 35, 0
15, 143820, Note_on_c, 9, 40, 100
15, 143820, Note_on_c, 9, 52, 100
15, 143850, Note_on_c, 9, 52, 0
15, 143850, Note_on_c, 9, 40, 0
15, 143940, Note_on_c, 9, 35, 100
15, 143940, Note_on_c, 9, 52, 100
15, 143970, Note_on_c, 9, 52, 0
15, 143970, Note_on_c, 9, 35, 0
15, 144000, Note_on_c, 9, 35, 100
15, 144030, Note_on_c, 9, 35, 0
15, 144060, Note_on_c, 9, 40, 100
15, 144060, Note_on_c, 9, 52, 100
15, 144090, Note_on_c, 9, 52, 0
15, 144090, Note_on_c, 9, 40, 0
15, 144120, Note_on_c, 9, 35, 100
15, 144150, Note_on_c, 9, 35, 0
15, 144180, Note_on_c, 9, 40, 100
15, 144180, Note_on_c, 9, 52, 100
15, 144210, Note_on_c, 9, 52, 0
15, 144210, Note_on_c, 9, 40, 0
15, 144240, Note_on_c, 9, 35, 100
15, 144270, Note_on_c, 9, 35, 0
15, 144300, Note_on_c, 9, 40, 100
15, 144330, Note_on_c, 9, 40, 0
15, 144360, Note_on_c, 9, 35, 100
15, 144360, Note_on_c, 9, 49, 100
15, 144390, Note_on_c, 9, 49, 0
15, 144390, Note_on_c, 9, 35, 0
15, 144480, Note_on_c, 9, 35, 100
15, 144510, Note_on_c, 9, 35, 0
15, 144540, Note_on_c, 9, 40, 100
15, 144540, Note_on_c, 9, 52, 100
15, 144570, Note_on_c, 9, 52, 0
15, 144570, Note_on_c, 9, 40, 0
15, 144660, Note_on_c, 9, 35, 100
15, 144660, Note_on_c, 9, 52, 100
15, 144690, Note_on_c, 9, 52, 0
15, 144690, Note_on_c, 9, 35, 0
15, 144720, Note_on_c, 9, 35, 100
15, 144750, Note_on_c, 9, 35, 0
15, 144780, Note_on_c, 9, 40, 100
15, 144780, Note_on_c, 9, 52, 100
15, 144810, Note_on_c, 9, 52, 0
15, 144810, Note_on_c, 9, 40, 0
15, 144900, Note_on_c, 9, 35, 100
15, 144900, Note_on_c, 9, 52, 100
15, 144930, Note_on_c, 9, 52, 0
15, 144930, Note_on_c, 9, 35, 0
15, 144960, Note_on_c, 9, 35, 100
15, 144960, Note_on_c, 9, 52, 100
15, 144990, Note_on_c, 9, 52, 0
15, 144990, Note_on_c, 9, 35, 0
15, 145020, Note_on_c, 9, 40, 100
15, 145050, Note_on_c, 9, 40, 0
15, 145080, Note_on_c, 9, 35, 100
15, 145080, Note_on_c, 9, 49, 100
15, 145110, Note_on_c, 9, 49, 0
15, 145110, Note_on_c, 9, 35, 0
15, 145200, Note_on_c, 9, 35, 100
15, 145230, Note_on_c, 9, 35, 0
15, 145260, Note_on_c, 9, 40, 100
15, 145260, Note_on_c, 9, 52, 100
15, 145290, Note_on_c, 9, 52, 0
15, 145290, Note_on_c, 9, 40, 0
15, 145380, Note_on_c, 9, 35, 100
15, 145380, Note_on_c, 9, 52, 100
15, 145410, Note_on_c, 9, 52, 0
15, 145410, Note_on_c, 9, 35, 0
15, 145440, Note_on_c, 9, 35, 100
15, 145470, Note_on_c, 9, 35, 0
15, 145500, Note_on_c, 9, 40, 100
15, 145500, Note_on_c, 9, 52, 100
15, 145530, Note_on_c, 9, 52, 0
15, 145530, Note_on_c, 9, 40, 0
15, 145620, Note_on_c, 9, 35, 100
15, 145620, Note_on_c, 9, 52, 100
15, 145650, Note_on_c, 9, 52, 0
15, 145650, Note_on_c, 9, 35, 0
15, 145680, Note_on_c, 9, 35, 100
15, 145680, Note_on_c, 9, 52, 100
15, 145710, Note_on_c, 9, 52, 0
15, 145710, Note_on_c, 9, 35, 0
15, 145740, Note_on_c, 9, 40, 100
15, 145770, Note_on_c, 9, 40, 0
15, 145800, Note_on_c, 9, 35, 100
15, 145800, Note_on_c, 9, 49, 100
15, 145830, Note_on_c, 9, 49, 0
15, 145830, Note_on_c, 9, 35, 0
15, 145920, Note_on_c, 9, 35, 100
15, 145950, Note_on_c, 9, 35, 0
15, 145980, Note_on_c, 9, 40, 100
15, 145980, Note_on_c, 9, 52, 100
15, 146010, Note_on_c, 9, 52, 0
15, 146010, Note_on_c, 9, 40, 0
15, 146100, Note_on_c, 9, 35, 100
15, 146100, Note_on_c, 9, 52, 100
15, 146130, Note_on_c, 9, 52, 0
15, 146130, Note_on_c, 9, 35, 0
15, 146160, Note_on_c, 9, 35, 100
15, 146190, Note_on_c, 9, 35, 0
15, 146220, Note_on_c, 9, 40, 100
15, 146220, Note_on_c, 9, 52, 100
15, 146250, Note_on_c, 9, 52, 0
15, 146250, Note_on_c, 9, 40, 0
15, 146340, Note_on_c, 9, 35, 100
15, 146340, Note_on_c, 9, 52, 100
15, 146370, Note_on_c, 9, 52, 0
15, 146370, Note_on_c, 9, 35, 0
15, 146400, Note_on_c, 9, 35, 100
15, 146400, Note_on_c, 9, 52, 100
15, 146430, Note_on_c, 9, 52, 0
15, 146430, Note_on_c, 9, 35, 0
15, 146460, Note_on_c, 9, 40, 100
15, 146490, Note_on_c, 9, 40, 0
15, 146520, Note_on_c, 9, 35, 100
15, 146520, Note_on_c, 9, 49, 100
15, 146550, Note_on_c, 9, 49, 0
15, 146550, Note_on_c, 9, 35, 0
15, 146640, Note_on_c, 9, 35, 100
15, 146670, Note_on_c, 9, 35, 0
15, 146700, Note_on_c, 9, 40, 100
15, 146700, Note_on_c, 9, 52, 100
15, 146730, Note_on_c, 9, 52, 0
15, 146730, Note_on_c, 9, 40, 0
15, 146820, Note_on_c, 9, 52, 100
15, 146820, Note_on_c, 9, 35, 100
15, 146850, Note_on_c, 9, 35, 0
15, 146850, Note_on_c, 9, 52, 0
15, 146880, Note_on_c, 9, 35, 100
15, 146910, Note_on_c, 9, 35, 0
15, 146940, Note_on_c, 9, 52, 100
15, 146940, Note_on_c, 9, 40, 100
15, 146970, Note_on_c, 9, 40, 0
15, 146970, Note_on_c, 9, 52, 0
15, 147060, Note_on_c, 9, 52, 100
15, 147060, Note_on_c, 9, 35, 100
15, 147090, Note_on_c, 9, 35, 0
15, 147090, Note_on_c, 9, 52, 0
15, 147120, Note_on_c, 9, 52, 100
15, 147120, Note_on_c, 9, 35, 100
15, 147150, Note_on_c, 9, 35, 0
15, 147150, Note_on_c, 9, 52, 0
15, 147180, Note_on_c, 9, 40, 100
15, 147210, Note_on_c, 9, 40, 0
15, 147240, Note_on_c, 9, 49, 100
15, 147240, Note_on_c, 9, 35, 100
15, 147270, Note_on_c, 9, 35, 0
15, 147270, Note_on_c, 9, 49, 0
15, 147360, Note_on_c, 9, 35, 100
15, 147360, Note_on_c, 9, 57, 100
15, 147390, Note_on_c, 9, 57, 0
15, 147390, Note_on_c, 9, 35, 0
15, 147390, End_track
16, 0, Start_track
16, 0, MIDI_port, 0
16, 0, Title_t, "Percussion"
16, 0, Program_c, 9, 0
16, 67380, Note_on_c, 9, 66, 100
16, 67410, Note_on_c, 9, 66, 0
16, 67410, Note_on_c, 9, 66, 100
16, 67440, Note_on_c, 9, 66, 0
16, 67440, Note_on_c, 9, 65, 100
16, 67470, Note_on_c, 9, 65, 0
16, 67500, Note_on_c, 9, 65, 100
16, 67530, Note_on_c, 9, 65, 0
16, 68880, Note_on_c, 9, 81, 80
16, 69000, Note_on_c, 9, 81, 0
16, 70260, Note_on_c, 9, 66, 100
16, 70290, Note_on_c, 9, 66, 0
16, 70290, Note_on_c, 9, 65, 100
16, 70320, Note_on_c, 9, 65, 0
16, 70320, Note_on_c, 9, 65, 100
16, 70350, Note_on_c, 9, 65, 0
16, 70380, Note_on_c, 9, 65, 100
16, 70410, Note_on_c, 9, 65, 0
16, 77520, Note_on_c, 9, 66, 100
16, 77550, Note_on_c, 9, 66, 0
16, 77550, Note_on_c, 9, 66, 100
16, 77580, Note_on_c, 9, 66, 0
16, 77580, Note_on_c, 9, 65, 100
16, 77610, Note_on_c, 9, 65, 0
16, 77640, Note_on_c, 9, 65, 100
16, 77670, Note_on_c, 9, 65, 0
16, 77700, Note_on_c, 9, 65, 100
16, 77730, Note_on_c, 9, 65, 0
16, 77760, Note_on_c, 9, 66, 100
16, 77790, Note_on_c, 9, 66, 0
16, 77790, End_track
17, 0, Start_track
17, 0, MIDI_port, 0
17, 0, Title_t, "Taiko"
17, 0, Program_c, 7, 116
17, 15810, Note_on_c, 7, 91, 110
17, 15840, Note_on_c, 7, 91, 0
17, 15900, Note_on_c, 7, 79, 110
17, 15930, Note_on_c, 7, 79, 0
17, 16290, Note_on_c, 7, 91, 110
17, 16320, Note_on_c, 7, 91, 0
17, 16380, Note_on_c, 7, 79, 110
17, 16410, Note_on_c, 7, 79, 0
17, 16770, Note_on_c, 7, 91, 110
17, 16800, Note_on_c, 7, 91, 0
17, 16860, Note_on_c, 7, 79, 110
17, 16890, Note_on_c, 7, 79, 0
17, 17010, Note_on_c, 7, 91, 110
17, 17040, Note_on_c, 7, 91, 0
17, 17100, Note_on_c, 7, 79, 110
17, 17130, Note_on_c, 7, 79, 0
17, 17250, Note_on_c, 7, 91, 110
17, 17280, Note_on_c, 7, 91, 0
17, 17340, Note_on_c, 7, 79, 110
17, 17370, Note_on_c, 7, 79, 0
17, 17730, Note_on_c, 7, 91, 110
17, 17760, Note_on_c, 7, 91, 0
17, 17820, Note_on_c, 7, 79, 110
17, 17850, Note_on_c, 7, 79, 0
17, 18210, Note_on_c, 7, 91, 110
17, 18240, Note_on_c, 7, 91, 0
17, 18300, Note_on_c, 7, 79, 110
17, 18330, Note_on_c, 7, 79, 0
17, 18690, Note_on_c, 7, 91, 110
17, 18720, Note_on_c, 7, 91, 0
17, 18780, Note_on_c, 7, 79, 110
17, 18810, Note_on_c, 7, 79, 0
17, 18810, End_track
18, 0, Start_track
18, 0, MIDI_port, 0
18, 0, Title_t, "FX"
18, 0, Program_c, 5, 122
18, 7200, Note_on_c, 5, 91, 1
18, 7200, Note_on_c, 5, 45, 1
18, 7920, Note_on_c, 5, 45, 0
18, 7920, Note_on_c, 5, 91, 0
18, 7920, End_track
0, 0, End_of_file
