0, 0, Header, 1, 3, 120
1, 0, Start_track
1, 0, Title_t, "Bibo no Aozora_Ryuichi Sakamoto"
1, 0, Copyright_t, "Copyright © 2008 by Iris"
1, 0, Text_t, "Ira\012"
1, 0, Text_t, "  \012"
1, 0, MIDI_port, 0
1, 0, System_exclusive, 5, 126, 127, 9, 1, 247
1, 0, Time_signature, 4, 2, 24, 8
1, 0, Key_signature, 0, "major"
1, 0, Tempo, 821918
1, 0, End_track
2, 0, Start_track
2, 0, MIDI_port, 0
2, 0, Title_t, "Track 1"
2, 124, Control_c, 7, 0, 0
2, 125, Control_c, 7, 32, 0
2, 125, Program_c, 7, 0
2, 125, Control_c, 7, 7, 101
2, 484, Control_c, 7, 64, 127
2, 495, Note_on_c, 7, 60, 83
2, 563, Note_on_c, 7, 64, 75
2, 591, Note_on_c, 7, 60, 0
2, 606, Control_c, 7, 64, 1
2, 610, Control_c, 7, 64, 127
2, 615, Note_on_c, 7, 64, 0
2, 634, Note_on_c, 7, 59, 79
2, 678, Note_on_c, 7, 64, 81
2, 722, Control_c, 7, 64, 0
2, 725, Note_on_c, 7, 59, 0
2, 729, Note_on_c, 7, 64, 0
2, 729, Note_on_c, 7, 57, 64
2, 732, Control_c, 7, 64, 127
2, 1339, Note_on_c, 7, 57, 0
2, 1371, Control_c, 7, 64, 0
2, 1381, Control_c, 7, 64, 127
2, 1403, Note_on_c, 7, 57, 98
2, 1458, Note_on_c, 7, 60, 94
2, 1463, Note_on_c, 7, 57, 0
2, 1479, Control_c, 7, 64, 0
2, 1485, Control_c, 7, 64, 127
2, 1498, Note_on_c, 7, 60, 0
2, 1499, Note_on_c, 7, 55, 93
2, 1560, Note_on_c, 7, 55, 0
2, 1562, Note_on_c, 7, 60, 96
2, 1624, Control_c, 7, 64, 0
2, 1629, Note_on_c, 7, 53, 74
2, 1630, Note_on_c, 7, 60, 0
2, 1637, Control_c, 7, 64, 127
2, 1988, Note_on_c, 7, 33, 43
2, 1988, Note_on_c, 7, 26, 59
2, 2255, Note_on_c, 7, 53, 0
2, 2268, Note_on_c, 7, 26, 0
2, 2269, Note_on_c, 7, 33, 0
2, 2307, Control_c, 7, 64, 0
2, 2310, Note_on_c, 7, 65, 86
2, 2320, Control_c, 7, 64, 127
2, 2398, Note_on_c, 7, 69, 85
2, 2403, Note_on_c, 7, 65, 0
2, 2444, Note_on_c, 7, 69, 0
2, 2450, Control_c, 7, 64, 0
2, 2452, Note_on_c, 7, 64, 75
2, 2462, Control_c, 7, 64, 127
2, 2512, Note_on_c, 7, 69, 83
2, 2565, Control_c, 7, 64, 0
2, 2567, Note_on_c, 7, 62, 64
2, 2569, Note_on_c, 7, 64, 0
2, 2572, Note_on_c, 7, 69, 0
2, 2578, Control_c, 7, 64, 127
2, 2937, Note_on_c, 7, 62, 0
2, 2957, Note_on_c, 7, 65, 80
2, 3070, Control_c, 7, 64, 0
2, 3075, Note_on_c, 7, 65, 0
2, 3077, Note_on_c, 7, 64, 77
2, 3081, Control_c, 7, 64, 127
2, 3248, Note_on_c, 7, 64, 0
2, 3255, Note_on_c, 7, 62, 75
2, 3287, Control_c, 7, 64, 0
2, 3295, Control_c, 7, 64, 127
2, 3369, Note_on_c, 7, 65, 69
2, 3388, Note_on_c, 7, 62, 0
2, 3466, Note_on_c, 7, 65, 0
2, 3466, Control_c, 7, 64, 0
2, 3468, Note_on_c, 7, 64, 65
2, 3474, Control_c, 7, 64, 127
2, 3536, Note_on_c, 7, 64, 0
2, 3542, Control_c, 7, 64, 1
2, 3544, Note_on_c, 7, 59, 74
2, 3554, Control_c, 7, 64, 127
2, 3777, Note_on_c, 7, 59, 0
2, 3860, Note_on_c, 7, 91, 58
2, 3860, Note_on_c, 7, 98, 67
2, 3972, Note_on_c, 7, 98, 0
2, 3983, Note_on_c, 7, 91, 0
2, 4011, Note_on_c, 7, 83, 77
2, 4014, Note_on_c, 7, 84, 61
2, 4241, Note_on_c, 7, 84, 0
2, 4242, Note_on_c, 7, 83, 0
2, 4286, Control_c, 7, 64, 0
2, 4292, Note_on_c, 7, 60, 75
2, 4297, Control_c, 7, 64, 127
2, 4354, Note_on_c, 7, 64, 80
2, 4361, Note_on_c, 7, 60, 0
2, 4397, Note_on_c, 7, 64, 0
2, 4402, Control_c, 7, 64, 0
2, 4404, Note_on_c, 7, 59, 74
2, 4411, Control_c, 7, 64, 127
2, 4463, Note_on_c, 7, 64, 75
2, 4506, Note_on_c, 7, 59, 0
2, 4512, Note_on_c, 7, 64, 0
2, 4518, Control_c, 7, 64, 1
2, 4520, Note_on_c, 7, 57, 81
2, 4530, Control_c, 7, 64, 127
2, 5163, Note_on_c, 7, 57, 0
2, 5204, Control_c, 7, 64, 0
2, 5211, Control_c, 7, 64, 127
2, 5236, Note_on_c, 7, 57, 96
2, 5276, Note_on_c, 7, 60, 92
2, 5323, Note_on_c, 7, 60, 0
2, 5324, Note_on_c, 7, 57, 0
2, 5325, Control_c, 7, 64, 1
2, 5331, Control_c, 7, 64, 127
2, 5337, Note_on_c, 7, 55, 87
2, 5394, Note_on_c, 7, 55, 0
2, 5398, Note_on_c, 7, 60, 92
2, 5445, Note_on_c, 7, 60, 0
2, 5452, Control_c, 7, 64, 0
2, 5454, Note_on_c, 7, 53, 62
2, 5461, Control_c, 7, 64, 127
2, 5778, Note_on_c, 7, 53, 0
2, 5805, Note_on_c, 7, 72, 77
2, 5805, Note_on_c, 7, 65, 58
2, 5805, Note_on_c, 7, 76, 59
2, 6164, Note_on_c, 7, 65, 0
2, 6166, Note_on_c, 7, 76, 0
2, 6170, Note_on_c, 7, 72, 0
2, 6182, Control_c, 7, 64, 0
2, 6193, Control_c, 7, 64, 127
2, 6194, Note_on_c, 7, 65, 83
2, 6254, Note_on_c, 7, 69, 89
2, 6268, Note_on_c, 7, 65, 0
2, 6299, Control_c, 7, 64, 1
2, 6308, Control_c, 7, 64, 127
2, 6318, Note_on_c, 7, 69, 0
2, 6323, Note_on_c, 7, 64, 86
2, 6377, Note_on_c, 7, 64, 0
2, 6385, Note_on_c, 7, 69, 83
2, 6421, Control_c, 7, 64, 0
2, 6439, Control_c, 7, 64, 127
2, 6447, Note_on_c, 7, 62, 67
2, 6466, Note_on_c, 7, 69, 0
2, 6743, Note_on_c, 7, 62, 0
2, 6771, Control_c, 7, 64, 0
2, 6775, Note_on_c, 7, 64, 72
2, 6785, Control_c, 7, 64, 127
2, 6829, Control_c, 7, 64, 0
2, 6834, Note_on_c, 7, 64, 0
2, 6834, Note_on_c, 7, 65, 77
2, 6840, Control_c, 7, 64, 127
2, 6887, Control_c, 7, 64, 0
2, 6896, Control_c, 7, 64, 127
2, 6900, Note_on_c, 7, 65, 0
2, 6919, Note_on_c, 7, 65, 77
2, 7206, Note_on_c, 7, 65, 0
2, 7217, Note_on_c, 7, 64, 83
2, 7269, Note_on_c, 7, 59, 67
2, 7303, Note_on_c, 7, 64, 0
2, 7320, Note_on_c, 7, 55, 86
2, 7330, Note_on_c, 7, 59, 0
2, 7361, Control_c, 7, 64, 0
2, 7375, Control_c, 7, 64, 127
2, 7389, Note_on_c, 7, 55, 0
2, 7389, Note_on_c, 7, 57, 91
2, 7722, Control_c, 7, 64, 0
2, 7724, Note_on_c, 7, 57, 0
2, 7735, Control_c, 7, 64, 127
2, 7796, Note_on_c, 7, 55, 86
2, 7851, Note_on_c, 7, 55, 0
2, 7865, Control_c, 7, 64, 0
2, 7870, Note_on_c, 7, 55, 73
2, 7880, Control_c, 7, 64, 127
2, 7926, Note_on_c, 7, 55, 0
2, 7927, Note_on_c, 7, 53, 62
2, 8034, Note_on_c, 7, 60, 67
2, 8060, Note_on_c, 7, 53, 0
2, 8087, Control_c, 7, 64, 0
2, 8101, Control_c, 7, 64, 127
2, 8149, Note_on_c, 7, 60, 0
2, 8216, Note_on_c, 7, 59, 67
2, 8299, Note_on_c, 7, 59, 0
2, 8299, Control_c, 7, 64, 0
2, 8315, Control_c, 7, 64, 127
2, 8334, Note_on_c, 7, 64, 69
2, 8335, Note_on_c, 7, 59, 57
2, 8479, Note_on_c, 7, 59, 0
2, 8482, Note_on_c, 7, 64, 0
2, 8569, Note_on_c, 7, 91, 73
2, 8570, Note_on_c, 7, 88, 68
2, 8622, Note_on_c, 7, 88, 0
2, 8624, Note_on_c, 7, 91, 0
2, 8626, Note_on_c, 7, 89, 75
2, 8626, Note_on_c, 7, 86, 59
2, 8676, Note_on_c, 7, 86, 0
2, 8677, Note_on_c, 7, 89, 0
2, 8682, Note_on_c, 7, 88, 76
2, 8682, Note_on_c, 7, 83, 59
2, 8735, Note_on_c, 7, 88, 0
2, 8736, Note_on_c, 7, 83, 0
2, 8747, Note_on_c, 7, 86, 83
2, 8747, Note_on_c, 7, 81, 60
2, 8810, Note_on_c, 7, 81, 0
2, 8837, Note_on_c, 7, 86, 0
2, 8866, Note_on_c, 7, 88, 77
2, 8868, Note_on_c, 7, 83, 56
2, 8997, Note_on_c, 7, 88, 0
2, 8998, Note_on_c, 7, 83, 0
2, 9055, Control_c, 7, 64, 0
2, 9056, Note_on_c, 7, 64, 73
2, 9068, Control_c, 7, 64, 127
2, 9123, Note_on_c, 7, 64, 0
2, 9134, Note_on_c, 7, 67, 75
2, 9171, Control_c, 7, 64, 1
2, 9188, Control_c, 7, 64, 127
2, 9191, Note_on_c, 7, 62, 86
2, 9212, Note_on_c, 7, 67, 0
2, 9249, Note_on_c, 7, 67, 69
2, 9288, Note_on_c, 7, 62, 0
2, 9294, Control_c, 7, 64, 0
2, 9296, Note_on_c, 7, 67, 0
2, 9305, Control_c, 7, 64, 127
2, 9310, Note_on_c, 7, 60, 80
2, 9431, Note_on_c, 7, 60, 0
2, 9963, Control_c, 7, 64, 0
2, 9969, Note_on_c, 7, 60, 80
2, 9981, Control_c, 7, 64, 127
2, 10039, Note_on_c, 7, 64, 65
2, 10061, Note_on_c, 7, 60, 0
2, 10094, Control_c, 7, 64, 0
2, 10097, Note_on_c, 7, 59, 62
2, 10102, Note_on_c, 7, 64, 0
2, 10104, Control_c, 7, 64, 127
2, 10190, Note_on_c, 7, 64, 66
2, 10255, Note_on_c, 7, 59, 0
2, 10256, Control_c, 7, 64, 0
2, 10259, Note_on_c, 7, 57, 69
2, 10260, Note_on_c, 7, 64, 0
2, 10271, Control_c, 7, 64, 127
2, 10343, Note_on_c, 7, 57, 0
2, 10520, Control_c, 7, 64, 1
2, 10533, Control_c, 7, 64, 127
2, 10655, Note_on_c, 7, 59, 76
2, 10749, Control_c, 7, 64, 0
2, 10750, Note_on_c, 7, 59, 0
2, 10751, Note_on_c, 7, 60, 83
2, 10757, Control_c, 7, 64, 126
2, 10806, Note_on_c, 7, 60, 0
2, 10811, Note_on_c, 7, 62, 86
2, 10825, Control_c, 7, 64, 1
2, 10827, Note_on_c, 7, 62, 0
2, 10829, Note_on_c, 7, 60, 79
2, 10838, Control_c, 7, 64, 127
2, 10994, Note_on_c, 7, 60, 0
2, 10994, Control_c, 7, 64, 0
2, 10998, Note_on_c, 7, 59, 60
2, 11009, Control_c, 7, 64, 127
2, 11054, Note_on_c, 7, 59, 0
2, 11065, Note_on_c, 7, 59, 52
2, 11067, Control_c, 7, 64, 1
2, 11079, Control_c, 7, 64, 127
2, 11135, Note_on_c, 7, 64, 57
2, 11184, Note_on_c, 7, 59, 0
2, 11197, Note_on_c, 7, 64, 0
2, 11198, Note_on_c, 7, 67, 73
2, 11279, Note_on_c, 7, 71, 62
2, 11304, Note_on_c, 7, 67, 0
2, 11349, Note_on_c, 7, 71, 0
2, 11376, Control_c, 7, 64, 0
2, 11381, Note_on_c, 7, 71, 86
2, 11393, Control_c, 7, 64, 126
2, 11570, Note_on_c, 7, 71, 0
2, 11571, Note_on_c, 7, 69, 87
2, 11599, Control_c, 7, 64, 1
2, 11612, Control_c, 7, 64, 126
2, 11631, Note_on_c, 7, 69, 0
2, 11633, Note_on_c, 7, 72, 105
2, 11782, Note_on_c, 7, 72, 0
2, 11790, Note_on_c, 7, 66, 88
2, 11853, Note_on_c, 7, 66, 0
2, 11856, Control_c, 7, 64, 0
2, 11864, Note_on_c, 7, 69, 92
2, 11869, Control_c, 7, 64, 127
2, 12036, Note_on_c, 7, 69, 0
2, 12036, Note_on_c, 7, 67, 95
2, 12110, Control_c, 7, 64, 0
2, 12112, Note_on_c, 7, 67, 0
2, 12115, Note_on_c, 7, 71, 92
2, 12129, Control_c, 7, 64, 127
2, 12254, Note_on_c, 7, 71, 0
2, 12271, Note_on_c, 7, 64, 86
2, 12297, Control_c, 7, 64, 1
2, 12303, Note_on_c, 7, 64, 0
2, 12304, Note_on_c, 7, 66, 85
2, 12313, Control_c, 7, 64, 127
2, 12337, Control_c, 7, 64, 0
2, 12343, Note_on_c, 7, 66, 0
2, 12350, Control_c, 7, 64, 127
2, 12356, Note_on_c, 7, 61, 57
2, 12357, Note_on_c, 7, 67, 101
2, 12449, Note_on_c, 7, 61, 0
2, 12508, Note_on_c, 7, 67, 0
2, 12511, Control_c, 7, 64, 0
2, 12518, Note_on_c, 7, 66, 82
2, 12528, Control_c, 7, 64, 127
2, 12551, Control_c, 7, 64, 0
2, 12559, Control_c, 7, 64, 127
2, 12587, Note_on_c, 7, 60, 80
2, 12634, Note_on_c, 7, 66, 0
2, 12636, Note_on_c, 7, 69, 100
2, 12669, Note_on_c, 7, 60, 0
2, 12692, Note_on_c, 7, 63, 54
2, 12694, Note_on_c, 7, 60, 53
2, 12762, Note_on_c, 7, 69, 0
2, 12762, Note_on_c, 7, 67, 89
2, 12815, Note_on_c, 7, 60, 0
2, 12818, Note_on_c, 7, 63, 0
2, 12836, Control_c, 7, 64, 0
2, 12844, Note_on_c, 7, 67, 0
2, 12844, Note_on_c, 7, 63, 51
2, 12844, Note_on_c, 7, 59, 62
2, 12845, Note_on_c, 7, 66, 69
2, 12847, Control_c, 7, 64, 127
2, 12928, Note_on_c, 7, 59, 0
2, 12931, Note_on_c, 7, 63, 0
2, 12971, Note_on_c, 7, 59, 54
2, 12971, Note_on_c, 7, 63, 46
2, 13050, Note_on_c, 7, 63, 0
2, 13058, Note_on_c, 7, 59, 0
2, 13077, Note_on_c, 7, 59, 53
2, 13077, Note_on_c, 7, 63, 54
2, 13118, Note_on_c, 7, 66, 0
2, 13127, Note_on_c, 7, 63, 0
2, 13130, Note_on_c, 7, 59, 0
2, 13131, Note_on_c, 7, 64, 56
2, 13189, Note_on_c, 7, 64, 0
2, 13191, Note_on_c, 7, 63, 62
2, 13193, Note_on_c, 7, 59, 58
2, 13194, Control_c, 7, 64, 0
2, 13214, Control_c, 7, 64, 127
2, 13249, Note_on_c, 7, 63, 0
2, 13250, Note_on_c, 7, 64, 66
2, 13274, Note_on_c, 7, 59, 0
2, 13314, Note_on_c, 7, 64, 0
2, 13316, Control_c, 7, 64, 0
2, 13320, Note_on_c, 7, 63, 48
2, 13320, Note_on_c, 7, 71, 64
2, 13320, Note_on_c, 7, 59, 54
2, 13331, Control_c, 7, 64, 127
2, 13411, Note_on_c, 7, 63, 0
2, 13417, Note_on_c, 7, 59, 0
2, 13435, Note_on_c, 7, 63, 34
2, 13436, Note_on_c, 7, 59, 42
2, 13524, Note_on_c, 7, 71, 0
2, 13527, Note_on_c, 7, 63, 0
2, 13530, Note_on_c, 7, 59, 0
2, 13544, Control_c, 7, 64, 0
2, 13566, Note_on_c, 7, 72, 81
2, 13575, Control_c, 7, 64, 127
2, 13620, Note_on_c, 7, 76, 86
2, 13626, Note_on_c, 7, 72, 0
2, 13668, Note_on_c, 7, 76, 0
2, 13669, Control_c, 7, 64, 4
2, 13689, Note_on_c, 7, 71, 92
2, 13689, Control_c, 7, 64, 127
2, 13759, Note_on_c, 7, 76, 84
2, 13766, Note_on_c, 7, 71, 0
2, 13791, Control_c, 7, 64, 1
2, 13813, Control_c, 7, 64, 127
2, 13817, Note_on_c, 7, 76, 0
2, 13825, Note_on_c, 7, 69, 94
2, 14120, Note_on_c, 7, 69, 0
2, 14140, Note_on_c, 7, 103, 86
2, 14147, Note_on_c, 7, 100, 69
2, 14158, Note_on_c, 7, 103, 0
2, 14218, Note_on_c, 7, 100, 0
2, 14264, Note_on_c, 7, 83, 58
2, 14267, Note_on_c, 7, 74, 55
2, 14455, Note_on_c, 7, 83, 0
2, 14463, Note_on_c, 7, 74, 0
2, 14468, Control_c, 7, 64, 0
2, 14478, Control_c, 7, 64, 127
2, 14487, Note_on_c, 7, 60, 63
2, 14490, Note_on_c, 7, 64, 60
2, 14495, Note_on_c, 7, 69, 97
2, 14542, Note_on_c, 7, 72, 89
2, 14548, Note_on_c, 7, 64, 0
2, 14548, Note_on_c, 7, 60, 0
2, 14550, Note_on_c, 7, 69, 0
2, 14577, Control_c, 7, 64, 1
2, 14589, Control_c, 7, 64, 127
2, 14594, Note_on_c, 7, 60, 58
2, 14597, Note_on_c, 7, 64, 59
2, 14600, Note_on_c, 7, 72, 0
2, 14600, Note_on_c, 7, 67, 100
2, 14637, Note_on_c, 7, 64, 0
2, 14638, Note_on_c, 7, 60, 0
2, 14660, Note_on_c, 7, 72, 100
2, 14665, Note_on_c, 7, 67, 0
2, 14712, Control_c, 7, 64, 0
2, 14713, Note_on_c, 7, 65, 80
2, 14718, Note_on_c, 7, 72, 0
2, 14724, Control_c, 7, 64, 127
2, 14837, Note_on_c, 7, 57, 56
2, 14839, Note_on_c, 7, 53, 43
2, 14932, Note_on_c, 7, 65, 0
2, 14952, Note_on_c, 7, 53, 0
2, 14957, Note_on_c, 7, 57, 0
2, 15032, Note_on_c, 7, 88, 89
2, 15034, Note_on_c, 7, 79, 61
2, 15120, Note_on_c, 7, 79, 0
2, 15127, Note_on_c, 7, 88, 0
2, 15157, Control_c, 7, 64, 0
2, 15161, Note_on_c, 7, 79, 53
2, 15162, Note_on_c, 7, 72, 67
2, 15162, Note_on_c, 7, 76, 53
2, 15164, Note_on_c, 7, 69, 55
2, 15174, Control_c, 7, 64, 127
2, 15345, Note_on_c, 7, 69, 0
2, 15346, Note_on_c, 7, 72, 0
2, 15350, Note_on_c, 7, 76, 0
2, 15352, Note_on_c, 7, 79, 0
2, 15372, Control_c, 7, 64, 0
2, 15373, Note_on_c, 7, 77, 63
2, 15389, Control_c, 7, 64, 127
2, 15439, Note_on_c, 7, 81, 74
2, 15485, Note_on_c, 7, 77, 0
2, 15488, Note_on_c, 7, 81, 0
2, 15489, Note_on_c, 7, 76, 64
2, 15491, Control_c, 7, 64, 2
2, 15504, Control_c, 7, 64, 127
2, 15541, Note_on_c, 7, 81, 71
2, 15562, Note_on_c, 7, 76, 0
2, 15599, Control_c, 7, 64, 0
2, 15599, Note_on_c, 7, 74, 58
2, 15603, Note_on_c, 7, 81, 0
2, 15615, Control_c, 7, 64, 127
2, 15902, Note_on_c, 7, 74, 0
2, 15912, Note_on_c, 7, 77, 75
2, 15992, Note_on_c, 7, 77, 0
2, 15996, Control_c, 7, 64, 0
2, 15996, Note_on_c, 7, 76, 83
2, 15998, Note_on_c, 7, 65, 59
2, 16013, Control_c, 7, 64, 127
2, 16148, Note_on_c, 7, 76, 0
2, 16149, Note_on_c, 7, 74, 86
2, 16168, Note_on_c, 7, 65, 0
2, 16179, Control_c, 7, 64, 0
2, 16199, Control_c, 7, 64, 127
2, 16210, Note_on_c, 7, 74, 0
2, 16213, Note_on_c, 7, 72, 85
2, 16216, Note_on_c, 7, 68, 64
2, 16265, Note_on_c, 7, 72, 0
2, 16267, Note_on_c, 7, 68, 0
2, 16267, Note_on_c, 7, 77, 90
2, 16350, Note_on_c, 7, 77, 0
2, 16351, Note_on_c, 7, 76, 84
2, 16393, Control_c, 7, 64, 0
2, 16412, Control_c, 7, 64, 127
2, 16415, Note_on_c, 7, 76, 0
2, 16420, Note_on_c, 7, 60, 53
2, 16421, Note_on_c, 7, 71, 77
2, 16421, Note_on_c, 7, 67, 72
2, 16421, Note_on_c, 7, 64, 54
2, 16525, Note_on_c, 7, 60, 0
2, 16530, Note_on_c, 7, 67, 0
2, 16531, Note_on_c, 7, 64, 0
2, 16666, Note_on_c, 7, 71, 0
2, 16684, Note_on_c, 7, 98, 90
2, 16685, Note_on_c, 7, 91, 72
2, 16736, Note_on_c, 7, 91, 0
2, 16742, Note_on_c, 7, 98, 0
2, 16743, Note_on_c, 7, 95, 69
2, 16743, Note_on_c, 7, 88, 69
2, 16802, Note_on_c, 7, 88, 0
2, 16802, Note_on_c, 7, 95, 0
2, 16802, Note_on_c, 7, 84, 59
2, 16831, Note_on_c, 7, 84, 0
2, 16872, Note_on_c, 7, 83, 54
2, 16872, Note_on_c, 7, 88, 56
2, 17046, Note_on_c, 7, 83, 0
2, 17049, Note_on_c, 7, 88, 0
2, 17085, Control_c, 7, 64, 0
2, 17096, Control_c, 7, 64, 127
2, 17096, Note_on_c, 7, 60, 54
2, 17100, Note_on_c, 7, 64, 63
2, 17107, Note_on_c, 7, 67, 55
2, 17109, Note_on_c, 7, 72, 82
2, 17154, Note_on_c, 7, 76, 80
2, 17164, Note_on_c, 7, 60, 0
2, 17168, Note_on_c, 7, 64, 0
2, 17172, Note_on_c, 7, 67, 0
2, 17179, Note_on_c, 7, 72, 0
2, 17199, Control_c, 7, 64, 0
2, 17209, Note_on_c, 7, 71, 58
2, 17210, Note_on_c, 7, 67, 65
2, 17210, Note_on_c, 7, 60, 50
2, 17212, Note_on_c, 7, 64, 64
2, 17213, Control_c, 7, 64, 127
2, 17214, Note_on_c, 7, 76, 0
2, 17263, Note_on_c, 7, 76, 75
2, 17288, Note_on_c, 7, 60, 0
2, 17292, Note_on_c, 7, 64, 0
2, 17299, Note_on_c, 7, 67, 0
2, 17302, Note_on_c, 7, 71, 0
2, 17312, Control_c, 7, 64, 1
2, 17322, Note_on_c, 7, 69, 75
2, 17323, Note_on_c, 7, 60, 53
2, 17325, Note_on_c, 7, 76, 0
2, 17325, Note_on_c, 7, 64, 69
2, 17331, Control_c, 7, 64, 127
2, 17418, Note_on_c, 7, 60, 0
2, 17423, Note_on_c, 7, 64, 0
2, 17443, Note_on_c, 7, 60, 44
2, 17443, Note_on_c, 7, 67, 57
2, 17443, Note_on_c, 7, 64, 49
2, 17585, Note_on_c, 7, 67, 0
2, 17587, Note_on_c, 7, 64, 0
2, 17590, Note_on_c, 7, 60, 0
2, 17620, Note_on_c, 7, 69, 0
2, 17655, Note_on_c, 7, 91, 65
2, 17656, Note_on_c, 7, 84, 69
2, 17743, Note_on_c, 7, 84, 0
2, 17750, Note_on_c, 7, 91, 0
2, 17776, Note_on_c, 7, 81, 73
2, 17779, Note_on_c, 7, 83, 57
2, 17931, Note_on_c, 7, 81, 0
2, 17935, Note_on_c, 7, 83, 0
2, 17993, Control_c, 7, 64, 0
2, 17997, Note_on_c, 7, 60, 67
2, 17999, Note_on_c, 7, 64, 60
2, 18004, Note_on_c, 7, 69, 86
2, 18014, Control_c, 7, 64, 127
2, 18058, Note_on_c, 7, 72, 83
2, 18094, Note_on_c, 7, 60, 0
2, 18096, Note_on_c, 7, 64, 0
2, 18109, Note_on_c, 7, 69, 0
2, 18110, Note_on_c, 7, 72, 0
2, 18110, Control_c, 7, 64, 0
2, 18113, Note_on_c, 7, 67, 89
2, 18113, Note_on_c, 7, 64, 73
2, 18113, Note_on_c, 7, 60, 58
2, 18126, Control_c, 7, 64, 127
2, 18166, Note_on_c, 7, 72, 88
2, 18208, Note_on_c, 7, 64, 0
2, 18212, Note_on_c, 7, 60, 0
2, 18214, Note_on_c, 7, 72, 0
2, 18215, Note_on_c, 7, 67, 0
2, 18216, Control_c, 7, 64, 2
2, 18230, Note_on_c, 7, 65, 75
2, 18230, Note_on_c, 7, 60, 69
2, 18243, Control_c, 7, 64, 127
2, 18280, Note_on_c, 7, 60, 0
2, 18362, Note_on_c, 7, 65, 0
2, 18365, Note_on_c, 7, 60, 38
2, 18367, Note_on_c, 7, 64, 41
2, 18590, Note_on_c, 7, 60, 0
2, 18592, Note_on_c, 7, 64, 0
2, 18668, Control_c, 7, 64, 1
2, 18680, Control_c, 7, 64, 127
2, 18878, Control_c, 7, 64, 0
2, 18891, Note_on_c, 7, 77, 89
2, 18900, Control_c, 7, 64, 127
2, 18964, Note_on_c, 7, 77, 0
2, 18964, Note_on_c, 7, 81, 84
2, 19017, Control_c, 7, 64, 0
2, 19018, Note_on_c, 7, 76, 80
2, 19032, Control_c, 7, 64, 127
2, 19054, Note_on_c, 7, 81, 0
2, 19066, Note_on_c, 7, 76, 0
2, 19071, Note_on_c, 7, 81, 89
2, 19126, Note_on_c, 7, 74, 77
2, 19129, Control_c, 7, 64, 0
2, 19147, Control_c, 7, 64, 127
2, 19153, Note_on_c, 7, 81, 0
2, 19346, Note_on_c, 7, 74, 0
2, 19471, Note_on_c, 7, 76, 77
2, 19527, Note_on_c, 7, 76, 0
2, 19530, Note_on_c, 7, 77, 80
2, 19563, Control_c, 7, 64, 0
2, 19574, Control_c, 7, 64, 127
2, 19597, Note_on_c, 7, 77, 0
2, 19603, Note_on_c, 7, 77, 84
2, 19823, Control_c, 7, 64, 0
2, 19838, Control_c, 7, 64, 127
2, 19870, Note_on_c, 7, 77, 0
2, 19884, Note_on_c, 7, 76, 73
2, 19943, Note_on_c, 7, 71, 57
2, 19977, Note_on_c, 7, 76, 0
2, 19994, Note_on_c, 7, 67, 65
2, 20007, Note_on_c, 7, 71, 0
2, 20043, Control_c, 7, 64, 0
2, 20063, Control_c, 7, 64, 127
2, 20064, Note_on_c, 7, 67, 0
2, 20069, Note_on_c, 7, 64, 57
2, 20070, Note_on_c, 7, 69, 71
2, 20185, Note_on_c, 7, 60, 60
2, 20342, Note_on_c, 7, 60, 0
2, 20375, Control_c, 7, 64, 0
2, 20391, Control_c, 7, 64, 127
2, 20426, Note_on_c, 7, 64, 0
2, 20428, Note_on_c, 7, 69, 0
2, 20469, Note_on_c, 7, 67, 86
2, 20523, Control_c, 7, 64, 0
2, 20538, Control_c, 7, 64, 127
2, 20568, Note_on_c, 7, 67, 0
2, 20594, Note_on_c, 7, 65, 68
2, 20595, Note_on_c, 7, 60, 68
2, 20702, Note_on_c, 7, 72, 86
2, 20737, Note_on_c, 7, 60, 0
2, 20740, Note_on_c, 7, 65, 0
2, 20742, Control_c, 7, 64, 0
2, 20744, Note_on_c, 7, 62, 48
2, 20756, Note_on_c, 7, 65, 56
2, 20761, Control_c, 7, 64, 127
2, 20769, Note_on_c, 7, 68, 67
2, 20887, Note_on_c, 7, 72, 0
2, 20903, Control_c, 7, 64, 1
2, 20904, Note_on_c, 7, 71, 62
2, 20923, Control_c, 7, 64, 127
2, 20942, Note_on_c, 7, 62, 0
2, 20943, Note_on_c, 7, 65, 0
2, 20948, Note_on_c, 7, 68, 0
2, 21037, Note_on_c, 7, 71, 0
2, 21048, Control_c, 7, 64, 0
2, 21050, Note_on_c, 7, 64, 44
2, 21051, Note_on_c, 7, 68, 36
2, 21051, Note_on_c, 7, 71, 55
2, 21067, Control_c, 7, 64, 127
2, 21350, Note_on_c, 7, 64, 0
2, 21352, Note_on_c, 7, 68, 0
2, 21354, Note_on_c, 7, 71, 0
2, 21369, Note_on_c, 7, 56, 90
2, 21370, Control_c, 7, 64, 0
2, 21481, Note_on_c, 7, 57, 91
2, 21482, Note_on_c, 7, 56, 0
2, 21543, Control_c, 7, 64, 0
2, 21551, Note_on_c, 7, 57, 0
2, 21558, Control_c, 7, 64, 127
2, 21574, Note_on_c, 7, 59, 45
2, 21748, Note_on_c, 7, 59, 0
2, 21856, Control_c, 7, 64, 0
2, 21857, Note_on_c, 7, 77, 83
2, 21858, Note_on_c, 7, 72, 69
2, 21873, Control_c, 7, 64, 127
2, 21929, Note_on_c, 7, 77, 0
2, 21929, Note_on_c, 7, 80, 87
2, 21938, Note_on_c, 7, 72, 0
2, 21986, Note_on_c, 7, 80, 0
2, 21986, Note_on_c, 7, 79, 88
2, 21988, Control_c, 7, 64, 1
2, 22008, Control_c, 7, 64, 127
2, 22036, Note_on_c, 7, 75, 85
2, 22045, Note_on_c, 7, 79, 0
2, 22084, Note_on_c, 7, 75, 0
2, 22096, Control_c, 7, 64, 0
2, 22113, Control_c, 7, 64, 127
2, 22129, Note_on_c, 7, 72, 96
2, 22383, Note_on_c, 7, 72, 0
2, 22405, Note_on_c, 7, 70, 76
2, 22499, Note_on_c, 7, 77, 84
2, 22536, Note_on_c, 7, 70, 0
2, 22623, Control_c, 7, 64, 0
2, 22625, Note_on_c, 7, 77, 0
2, 22626, Note_on_c, 7, 72, 79
2, 22645, Control_c, 7, 64, 127
2, 22884, Note_on_c, 7, 72, 0
2, 22911, Note_on_c, 7, 70, 90
2, 22971, Control_c, 7, 64, 0
2, 22992, Control_c, 7, 64, 127
2, 22996, Note_on_c, 7, 70, 0
2, 22998, Note_on_c, 7, 68, 71
2, 23070, Note_on_c, 7, 68, 0
2, 23086, Control_c, 7, 64, 1
2, 23104, Note_on_c, 7, 67, 77
2, 23112, Control_c, 7, 64, 127
2, 23336, Note_on_c, 7, 67, 0
2, 23371, Control_c, 7, 64, 0
2, 23373, Note_on_c, 7, 65, 78
2, 23385, Control_c, 7, 64, 127
2, 23463, Note_on_c, 7, 72, 93
2, 23490, Note_on_c, 7, 65, 0
2, 23522, Note_on_c, 7, 72, 0
2, 23536, Note_on_c, 7, 70, 72
2, 23555, Note_on_c, 7, 68, 61
2, 23559, Note_on_c, 7, 70, 0
2, 23575, Note_on_c, 7, 68, 0
2, 23576, Note_on_c, 7, 67, 72
2, 23578, Control_c, 7, 64, 0
2, 23608, Control_c, 7, 64, 127
2, 23856, Note_on_c, 7, 67, 0
2, 23865, Note_on_c, 7, 68, 83
2, 23866, Control_c, 7, 64, 0
2, 23886, Control_c, 7, 64, 127
2, 23981, Note_on_c, 7, 68, 0
2, 23983, Note_on_c, 7, 70, 91
2, 24033, Control_c, 7, 64, 0
2, 24051, Control_c, 7, 64, 127
2, 24055, Note_on_c, 7, 70, 0
2, 24077, Note_on_c, 7, 67, 59
2, 24077, Note_on_c, 7, 72, 83
2, 24191, Note_on_c, 7, 67, 0
2, 24335, Note_on_c, 7, 72, 0
2, 24342, Note_on_c, 7, 74, 85
2, 24427, Note_on_c, 7, 74, 0
2, 24428, Note_on_c, 7, 77, 92
2, 24465, Note_on_c, 7, 77, 0
2, 24466, Note_on_c, 7, 84, 93
2, 24501, Control_c, 7, 64, 0
2, 24517, Note_on_c, 7, 84, 0
2, 24517, Note_on_c, 7, 80, 83
2, 24519, Control_c, 7, 64, 127
2, 24808, Note_on_c, 7, 80, 0
2, 24814, Note_on_c, 7, 72, 75
2, 24925, Note_on_c, 7, 72, 0
2, 24946, Control_c, 7, 64, 0
2, 24955, Note_on_c, 7, 79, 64
2, 24976, Control_c, 7, 64, 127
2, 25212, Note_on_c, 7, 79, 0
2, 25216, Note_on_c, 7, 77, 87
2, 25228, Note_on_c, 7, 77, 0
2, 25228, Note_on_c, 7, 79, 86
2, 25236, Note_on_c, 7, 77, 67
2, 25240, Note_on_c, 7, 79, 0
2, 25299, Note_on_c, 7, 77, 0
2, 25301, Note_on_c, 7, 76, 83
2, 25303, Control_c, 7, 64, 0
2, 25317, Control_c, 7, 64, 127
2, 25336, Note_on_c, 7, 77, 92
2, 25340, Note_on_c, 7, 76, 0
2, 25360, Control_c, 7, 64, 0
2, 25393, Note_on_c, 7, 77, 0
2, 25397, Note_on_c, 7, 78, 75
2, 25401, Control_c, 7, 64, 127
2, 25696, Note_on_c, 7, 78, 0
2, 25704, Control_c, 7, 64, 1
2, 25707, Note_on_c, 7, 77, 77
2, 25723, Control_c, 7, 64, 127
2, 25827, Note_on_c, 7, 77, 0
2, 25831, Control_c, 7, 64, 0
2, 25832, Note_on_c, 7, 80, 77
2, 25832, Note_on_c, 7, 72, 57
2, 25849, Control_c, 7, 64, 127
2, 26094, Note_on_c, 7, 72, 0
2, 26099, Note_on_c, 7, 80, 0
2, 26103, Note_on_c, 7, 72, 81
2, 26156, Note_on_c, 7, 72, 0
2, 26160, Note_on_c, 7, 73, 89
2, 26214, Note_on_c, 7, 73, 0
2, 26222, Note_on_c, 7, 80, 88
2, 26267, Note_on_c, 7, 80, 0
2, 26269, Control_c, 7, 64, 0
2, 26291, Note_on_c, 7, 70, 61
2, 26292, Control_c, 7, 64, 127
2, 26297, Note_on_c, 7, 82, 96
2, 26297, Note_on_c, 7, 76, 79
2, 26401, Note_on_c, 7, 76, 0
2, 26401, Note_on_c, 7, 70, 0
2, 26415, Note_on_c, 7, 76, 73
2, 26415, Note_on_c, 7, 71, 73
2, 26585, Note_on_c, 7, 71, 0
2, 26585, Note_on_c, 7, 76, 0
2, 26653, Note_on_c, 7, 82, 0
2, 26669, Note_on_c, 7, 80, 81
2, 26720, Note_on_c, 7, 80, 0
2, 26724, Control_c, 7, 64, 1
2, 26739, Note_on_c, 7, 80, 86
2, 26739, Note_on_c, 7, 73, 62
2, 26749, Control_c, 7, 64, 127
2, 26821, Note_on_c, 7, 73, 0
2, 26840, Note_on_c, 7, 73, 45
2, 26983, Note_on_c, 7, 80, 0
2, 26990, Note_on_c, 7, 78, 89
2, 27016, Note_on_c, 7, 73, 0
2, 27072, Note_on_c, 7, 78, 0
2, 27075, Note_on_c, 7, 69, 71
2, 27106, Note_on_c, 7, 73, 83
2, 27119, Note_on_c, 7, 69, 0
2, 27147, Control_c, 7, 64, 0
2, 27151, Note_on_c, 7, 73, 0
2, 27153, Note_on_c, 7, 80, 66
2, 27171, Control_c, 7, 64, 127
2, 27444, Note_on_c, 7, 80, 0
2, 27448, Control_c, 7, 64, 0
2, 27455, Note_on_c, 7, 78, 54
2, 27472, Control_c, 7, 64, 127
2, 27571, Control_c, 7, 64, 0
2, 27580, Note_on_c, 7, 78, 0
2, 27586, Note_on_c, 7, 76, 83
2, 27600, Control_c, 7, 64, 127
2, 27900, Note_on_c, 7, 76, 0
2, 27908, Note_on_c, 7, 75, 63
2, 28013, Note_on_c, 7, 75, 0
2, 28023, Control_c, 7, 64, 1
2, 28026, Note_on_c, 7, 76, 60
2, 28026, Note_on_c, 7, 73, 54
2, 28044, Control_c, 7, 64, 127
2, 28088, Note_on_c, 7, 73, 0
2, 28144, Note_on_c, 7, 73, 33
2, 28321, Note_on_c, 7, 73, 0
2, 28327, Note_on_c, 7, 76, 0
2, 28347, Control_c, 7, 64, 0
2, 28360, Note_on_c, 7, 78, 75
2, 28361, Note_on_c, 7, 73, 57
2, 28371, Control_c, 7, 64, 127
2, 28468, Note_on_c, 7, 73, 0
2, 28468, Note_on_c, 7, 78, 0
2, 28473, Control_c, 7, 64, 0
2, 28478, Note_on_c, 7, 75, 62
2, 28495, Control_c, 7, 64, 127
2, 28747, Control_c, 7, 64, 0
2, 28751, Note_on_c, 7, 73, 75
2, 28752, Note_on_c, 7, 75, 0
2, 28770, Control_c, 7, 64, 127
2, 28863, Control_c, 7, 64, 1
2, 28869, Note_on_c, 7, 75, 83
2, 28882, Control_c, 7, 64, 127
2, 28884, Note_on_c, 7, 73, 0
2, 28937, Note_on_c, 7, 73, 68
2, 28938, Control_c, 7, 64, 0
2, 28942, Note_on_c, 7, 75, 0
2, 28956, Control_c, 7, 64, 127
2, 29065, Note_on_c, 7, 73, 0
2, 29208, Control_c, 7, 64, 0
2, 29227, Control_c, 7, 64, 127
2, 29273, Note_on_c, 7, 68, 48
2, 29274, Note_on_c, 7, 63, 46
2, 29275, Note_on_c, 7, 64, 50
2, 29394, Note_on_c, 7, 64, 0
2, 29394, Note_on_c, 7, 68, 0
2, 29396, Note_on_c, 7, 63, 0
2, 29396, Control_c, 7, 64, 1
2, 29404, Note_on_c, 7, 68, 48
2, 29406, Note_on_c, 7, 64, 49
2, 29406, Note_on_c, 7, 63, 55
2, 29418, Control_c, 7, 64, 127
2, 29505, Note_on_c, 7, 64, 0
2, 29507, Note_on_c, 7, 63, 0
2, 29508, Note_on_c, 7, 68, 0
2, 29523, Note_on_c, 7, 71, 56
2, 29524, Note_on_c, 7, 63, 42
2, 29525, Note_on_c, 7, 68, 45
2, 29525, Note_on_c, 7, 64, 48
2, 29673, Control_c, 7, 64, 0
2, 29696, Control_c, 7, 64, 127
2, 29721, Note_on_c, 7, 63, 0
2, 29725, Note_on_c, 7, 64, 0
2, 29726, Note_on_c, 7, 68, 0
2, 29727, Note_on_c, 7, 71, 0
2, 29741, Note_on_c, 7, 64, 45
2, 29741, Note_on_c, 7, 63, 39
2, 29741, Note_on_c, 7, 68, 39
2, 29741, Note_on_c, 7, 71, 49
2, 29808, Control_c, 7, 64, 0
2, 29832, Control_c, 7, 64, 127
2, 29842, Note_on_c, 7, 68, 0
2, 29844, Note_on_c, 7, 71, 0
2, 29845, Note_on_c, 7, 63, 0
2, 29845, Note_on_c, 7, 64, 0
2, 29866, Note_on_c, 7, 71, 40
2, 29866, Note_on_c, 7, 64, 39
2, 29867, Note_on_c, 7, 68, 34
2, 29867, Note_on_c, 7, 63, 36
2, 29959, Note_on_c, 7, 68, 0
2, 29960, Note_on_c, 7, 71, 0
2, 29960, Note_on_c, 7, 64, 0
2, 29963, Note_on_c, 7, 63, 0
2, 29993, Note_on_c, 7, 68, 31
2, 29993, Note_on_c, 7, 64, 38
2, 29993, Note_on_c, 7, 71, 39
2, 29994, Note_on_c, 7, 63, 37
2, 30119, Note_on_c, 7, 71, 0
2, 30120, Note_on_c, 7, 68, 0
2, 30120, Note_on_c, 7, 64, 0
2, 30121, Note_on_c, 7, 63, 0
2, 30123, Control_c, 7, 64, 1
2, 30147, Note_on_c, 7, 60, 46
2, 30150, Note_on_c, 7, 64, 47
2, 30154, Note_on_c, 7, 67, 47
2, 30159, Note_on_c, 7, 72, 84
2, 30170, Control_c, 7, 64, 127
2, 30210, Note_on_c, 7, 76, 86
2, 30213, Note_on_c, 7, 60, 0
2, 30222, Note_on_c, 7, 64, 0
2, 30229, Note_on_c, 7, 67, 0
2, 30237, Control_c, 7, 64, 0
2, 30243, Note_on_c, 7, 72, 0
2, 30263, Note_on_c, 7, 64, 66
2, 30264, Note_on_c, 7, 76, 0
2, 30264, Control_c, 7, 64, 127
2, 30264, Note_on_c, 7, 71, 82
2, 30313, Note_on_c, 7, 71, 0
2, 30314, Note_on_c, 7, 76, 83
2, 30337, Note_on_c, 7, 64, 0
2, 30337, Control_c, 7, 64, 0
2, 30363, Control_c, 7, 64, 127
2, 30373, Note_on_c, 7, 76, 0
2, 30374, Note_on_c, 7, 64, 65
2, 30374, Note_on_c, 7, 69, 85
2, 30374, Note_on_c, 7, 60, 52
2, 30496, Note_on_c, 7, 60, 0
2, 30501, Note_on_c, 7, 64, 0
2, 30956, Note_on_c, 7, 64, 45
2, 31052, Note_on_c, 7, 69, 0
2, 31070, Note_on_c, 7, 69, 84
2, 31094, Note_on_c, 7, 64, 0
2, 31125, Note_on_c, 7, 69, 0
2, 31130, Note_on_c, 7, 72, 86
2, 31158, Control_c, 7, 64, 0
2, 31171, Control_c, 7, 64, 127
2, 31186, Note_on_c, 7, 67, 81
2, 31187, Note_on_c, 7, 60, 92
2, 31199, Note_on_c, 7, 72, 0
2, 31237, Note_on_c, 7, 72, 90
2, 31243, Note_on_c, 7, 67, 0
2, 31268, Note_on_c, 7, 60, 0
2, 31295, Control_c, 7, 64, 0
2, 31297, Note_on_c, 7, 65, 64
2, 31297, Note_on_c, 7, 57, 58
2, 31297, Note_on_c, 7, 60, 58
2, 31306, Note_on_c, 7, 72, 0
2, 31316, Control_c, 7, 64, 126
2, 31399, Note_on_c, 7, 57, 0
2, 31401, Note_on_c, 7, 60, 0
2, 31408, Note_on_c, 7, 60, 53
2, 31592, Note_on_c, 7, 60, 0
2, 31602, Note_on_c, 7, 60, 52
2, 31706, Note_on_c, 7, 60, 0
2, 31711, Note_on_c, 7, 60, 44
2, 31801, Note_on_c, 7, 60, 0
2, 31823, Note_on_c, 7, 60, 48
2, 31923, Note_on_c, 7, 65, 0
2, 31948, Note_on_c, 7, 77, 75
2, 32006, Note_on_c, 7, 77, 0
2, 32007, Note_on_c, 7, 81, 100
2, 32030, Note_on_c, 7, 60, 0
2, 32039, Control_c, 7, 64, 1
2, 32058, Control_c, 7, 64, 127
2, 32061, Note_on_c, 7, 76, 84
2, 32061, Note_on_c, 7, 69, 62
2, 32073, Note_on_c, 7, 81, 0
2, 32115, Note_on_c, 7, 81, 80
2, 32119, Note_on_c, 7, 76, 0
2, 32154, Note_on_c, 7, 69, 0
2, 32182, Control_c, 7, 64, 0
2, 32185, Note_on_c, 7, 65, 57
2, 32187, Note_on_c, 7, 74, 75
2, 32193, Note_on_c, 7, 81, 0
2, 32206, Control_c, 7, 64, 127
2, 32443, Note_on_c, 7, 65, 0
2, 32528, Note_on_c, 7, 74, 0
2, 32538, Note_on_c, 7, 77, 89
2, 32587, Control_c, 7, 64, 0
2, 32610, Note_on_c, 7, 77, 0
2, 32610, Note_on_c, 7, 76, 86
2, 32619, Control_c, 7, 64, 127
2, 32752, Note_on_c, 7, 74, 78
2, 32753, Note_on_c, 7, 76, 0
2, 32806, Control_c, 7, 64, 0
2, 32823, Control_c, 7, 64, 127
2, 32873, Note_on_c, 7, 74, 0
2, 32874, Note_on_c, 7, 77, 89
2, 32985, Note_on_c, 7, 77, 0
2, 32985, Note_on_c, 7, 76, 77
2, 33038, Note_on_c, 7, 60, 41
2, 33048, Note_on_c, 7, 64, 53
2, 33057, Note_on_c, 7, 76, 0
2, 33057, Note_on_c, 7, 67, 52
2, 33057, Note_on_c, 7, 71, 68
2, 33108, Note_on_c, 7, 60, 0
2, 33568, Note_on_c, 7, 64, 0
2, 33639, Note_on_c, 7, 71, 0
2, 33670, Note_on_c, 7, 67, 0
2, 33689, Control_c, 7, 64, 0
2, 33701, Note_on_c, 7, 67, 60
2, 33702, Note_on_c, 7, 72, 92
2, 33703, Note_on_c, 7, 64, 52
2, 33712, Control_c, 7, 64, 127
2, 33756, Note_on_c, 7, 72, 0
2, 33758, Note_on_c, 7, 76, 93
2, 33781, Control_c, 7, 64, 0
2, 33790, Note_on_c, 7, 67, 0
2, 33794, Note_on_c, 7, 64, 0
2, 33809, Control_c, 7, 64, 127
2, 33815, Note_on_c, 7, 60, 61
2, 33820, Note_on_c, 7, 76, 0
2, 33822, Note_on_c, 7, 71, 90
2, 33825, Note_on_c, 7, 64, 69
2, 33898, Note_on_c, 7, 64, 0
2, 33898, Note_on_c, 7, 71, 0
2, 33898, Note_on_c, 7, 60, 0
2, 33898, Note_on_c, 7, 76, 88
2, 33931, Control_c, 7, 64, 0
2, 33956, Control_c, 7, 64, 127
2, 33961, Note_on_c, 7, 60, 56
2, 33962, Note_on_c, 7, 69, 80
2, 33963, Note_on_c, 7, 76, 0
2, 34038, Note_on_c, 7, 60, 0
2, 34074, Note_on_c, 7, 60, 40
2, 34215, Note_on_c, 7, 60, 0
2, 34262, Note_on_c, 7, 60, 44
2, 34263, Note_on_c, 7, 64, 45
2, 34352, Note_on_c, 7, 64, 0
2, 34355, Note_on_c, 7, 60, 0
2, 34384, Note_on_c, 7, 60, 45
2, 34385, Note_on_c, 7, 64, 44
2, 34460, Note_on_c, 7, 64, 0
2, 34461, Note_on_c, 7, 60, 0
2, 34491, Note_on_c, 7, 60, 41
2, 34491, Note_on_c, 7, 64, 46
2, 34558, Note_on_c, 7, 69, 0
2, 34601, Control_c, 7, 64, 0
2, 34604, Note_on_c, 7, 69, 98
2, 34616, Control_c, 7, 64, 127
2, 34667, Note_on_c, 7, 69, 0
2, 34667, Note_on_c, 7, 72, 102
2, 34668, Note_on_c, 7, 60, 0
2, 34670, Note_on_c, 7, 64, 0
2, 34698, Control_c, 7, 64, 0
2, 34720, Note_on_c, 7, 60, 86
2, 34721, Control_c, 7, 64, 127
2, 34725, Note_on_c, 7, 67, 99
2, 34727, Note_on_c, 7, 72, 0
2, 34776, Note_on_c, 7, 67, 0
2, 34778, Note_on_c, 7, 72, 95
2, 34813, Note_on_c, 7, 60, 0
2, 34833, Control_c, 7, 64, 0
2, 34838, Note_on_c, 7, 72, 0
2, 34840, Note_on_c, 7, 65, 73
2, 34844, Control_c, 7, 64, 127
2, 34958, Note_on_c, 7, 64, 58
2, 34959, Note_on_c, 7, 60, 57
2, 35097, Note_on_c, 7, 60, 0
2, 35103, Note_on_c, 7, 64, 0
2, 35143, Note_on_c, 7, 53, 37
2, 35146, Note_on_c, 7, 60, 47
2, 35146, Note_on_c, 7, 57, 58
2, 35226, Note_on_c, 7, 53, 0
2, 35230, Note_on_c, 7, 57, 0
2, 35231, Note_on_c, 7, 60, 0
2, 35255, Note_on_c, 7, 60, 47
2, 35255, Note_on_c, 7, 57, 57
2, 35258, Note_on_c, 7, 53, 39
2, 35339, Note_on_c, 7, 53, 0
2, 35339, Note_on_c, 7, 57, 0
2, 35341, Note_on_c, 7, 60, 0
2, 35371, Note_on_c, 7, 53, 46
2, 35374, Note_on_c, 7, 60, 52
2, 35374, Note_on_c, 7, 57, 61
2, 35453, Note_on_c, 7, 53, 0
2, 35456, Note_on_c, 7, 65, 0
2, 35462, Note_on_c, 7, 57, 0
2, 35465, Note_on_c, 7, 60, 0
2, 35484, Note_on_c, 7, 69, 67
2, 35486, Note_on_c, 7, 72, 80
2, 35487, Note_on_c, 7, 77, 89
2, 35543, Note_on_c, 7, 77, 0
2, 35544, Note_on_c, 7, 81, 96
2, 35557, Note_on_c, 7, 69, 0
2, 35561, Note_on_c, 7, 72, 0
2, 35598, Note_on_c, 7, 81, 0
2, 35600, Note_on_c, 7, 69, 56
2, 35601, Note_on_c, 7, 76, 94
2, 35659, Note_on_c, 7, 81, 91
2, 35661, Note_on_c, 7, 76, 0
2, 35700, Note_on_c, 7, 69, 0
2, 35719, Note_on_c, 7, 67, 62
2, 35723, Note_on_c, 7, 81, 0
2, 35724, Note_on_c, 7, 74, 82
2, 35808, Note_on_c, 7, 67, 0
2, 36030, Note_on_c, 7, 74, 0
2, 36045, Note_on_c, 7, 76, 105
2, 36096, Note_on_c, 7, 76, 0
2, 36097, Note_on_c, 7, 77, 105
2, 36144, Control_c, 7, 64, 2
2, 36161, Note_on_c, 7, 77, 0
2, 36161, Control_c, 7, 64, 127
2, 36182, Note_on_c, 7, 77, 105
2, 36427, Note_on_c, 7, 77, 0
2, 36428, Note_on_c, 7, 76, 89
2, 36496, Note_on_c, 7, 76, 0
2, 36498, Note_on_c, 7, 71, 88
2, 36554, Note_on_c, 7, 67, 83
2, 36555, Note_on_c, 7, 71, 0
2, 36605, Control_c, 7, 64, 2
2, 36633, Note_on_c, 7, 69, 49
2, 36634, Note_on_c, 7, 67, 0
2, 36652, Control_c, 7, 64, 127
2, 36929, Control_c, 7, 64, 0
2, 36946, Control_c, 7, 64, 127
2, 36978, Note_on_c, 7, 69, 0
2, 36997, Note_on_c, 7, 67, 76
2, 37051, Control_c, 7, 64, 0
2, 37074, Control_c, 7, 64, 127
2, 37120, Note_on_c, 7, 67, 0
2, 37121, Note_on_c, 7, 65, 75
2, 37241, Note_on_c, 7, 65, 0
2, 37242, Note_on_c, 7, 72, 85
2, 37413, Control_c, 7, 64, 2
2, 37415, Note_on_c, 7, 72, 0
2, 37415, Note_on_c, 7, 71, 83
2, 37415, Note_on_c, 7, 65, 58
2, 37416, Note_on_c, 7, 68, 58
2, 37426, Control_c, 7, 64, 127
2, 37528, Note_on_c, 7, 65, 0
2, 37531, Note_on_c, 7, 68, 0
2, 37536, Note_on_c, 7, 71, 0
2, 37539, Control_c, 7, 64, 0
2, 37546, Note_on_c, 7, 64, 76
2, 37546, Note_on_c, 7, 67, 63
2, 37546, Note_on_c, 7, 71, 65
2, 37571, Control_c, 7, 64, 127
2, 37771, Note_on_c, 7, 71, 0
2, 37782, Note_on_c, 7, 91, 72
2, 37782, Note_on_c, 7, 88, 82
2, 37803, Note_on_c, 7, 67, 0
2, 37810, Note_on_c, 7, 64, 0
2, 37838, Note_on_c, 7, 91, 0
2, 37838, Note_on_c, 7, 88, 0
2, 37839, Note_on_c, 7, 89, 69
2, 37839, Note_on_c, 7, 86, 72
2, 37891, Note_on_c, 7, 89, 0
2, 37892, Note_on_c, 7, 86, 0
2, 37892, Note_on_c, 7, 88, 94
2, 37893, Note_on_c, 7, 83, 94
2, 37948, Note_on_c, 7, 83, 0
2, 37948, Note_on_c, 7, 88, 0
2, 37951, Note_on_c, 7, 86, 77
2, 37951, Note_on_c, 7, 81, 65
2, 38052, Note_on_c, 7, 86, 0
2, 38055, Note_on_c, 7, 81, 0
2, 38057, Note_on_c, 7, 88, 82
2, 38061, Note_on_c, 7, 83, 49
2, 38218, Note_on_c, 7, 83, 0
2, 38218, Note_on_c, 7, 88, 0
2, 38225, Control_c, 7, 64, 0
2, 38232, Note_on_c, 7, 76, 75
2, 38234, Note_on_c, 7, 71, 55
2, 38234, Note_on_c, 7, 67, 60
2, 38246, Control_c, 7, 64, 127
2, 38289, Note_on_c, 7, 76, 0
2, 38290, Note_on_c, 7, 79, 82
2, 38306, Note_on_c, 7, 67, 0
2, 38309, Note_on_c, 7, 71, 0
2, 38326, Control_c, 7, 64, 0
2, 38345, Note_on_c, 7, 67, 54
2, 38347, Note_on_c, 7, 79, 0
2, 38350, Note_on_c, 7, 74, 85
2, 38354, Control_c, 7, 64, 127
2, 38407, Note_on_c, 7, 74, 0
2, 38408, Note_on_c, 7, 79, 85
2, 38438, Note_on_c, 7, 67, 0
2, 38442, Control_c, 7, 64, 0
2, 38462, Note_on_c, 7, 64, 56
2, 38465, Control_c, 7, 64, 127
2, 38468, Note_on_c, 7, 79, 0
2, 38469, Note_on_c, 7, 72, 87
2, 38469, Note_on_c, 7, 67, 58
2, 38564, Note_on_c, 7, 64, 0
2, 38568, Note_on_c, 7, 67, 0
2, 38584, Note_on_c, 7, 60, 48
2, 38584, Note_on_c, 7, 64, 47
2, 38747, Note_on_c, 7, 64, 0
2, 38750, Note_on_c, 7, 60, 0
2, 38763, Note_on_c, 7, 60, 48
2, 38764, Note_on_c, 7, 64, 45
2, 38867, Note_on_c, 7, 60, 0
2, 38871, Note_on_c, 7, 64, 0
2, 38879, Note_on_c, 7, 60, 48
2, 38879, Note_on_c, 7, 64, 45
2, 38982, Note_on_c, 7, 60, 0
2, 38986, Note_on_c, 7, 64, 0
2, 38998, Note_on_c, 7, 60, 48
2, 38998, Note_on_c, 7, 64, 45
2, 39045, Note_on_c, 7, 72, 0
2, 39086, Control_c, 7, 64, 0
2, 39087, Note_on_c, 7, 60, 0
2, 39091, Note_on_c, 7, 64, 0
2, 39102, Control_c, 7, 64, 127
2, 39112, Note_on_c, 7, 72, 95
2, 39113, Note_on_c, 7, 67, 89
2, 39115, Note_on_c, 7, 64, 62
2, 39115, Note_on_c, 7, 60, 57
2, 39175, Note_on_c, 7, 72, 0
2, 39177, Note_on_c, 7, 76, 93
2, 39196, Note_on_c, 7, 60, 0
2, 39201, Note_on_c, 7, 64, 0
2, 39206, Note_on_c, 7, 67, 0
2, 39209, Control_c, 7, 64, 0
2, 39222, Control_c, 7, 64, 127
2, 39231, Note_on_c, 7, 76, 0
2, 39234, Note_on_c, 7, 71, 91
2, 39234, Note_on_c, 7, 60, 59
2, 39234, Note_on_c, 7, 67, 92
2, 39293, Note_on_c, 7, 71, 0
2, 39296, Note_on_c, 7, 76, 93
2, 39326, Note_on_c, 7, 60, 0
2, 39329, Note_on_c, 7, 67, 0
2, 39371, Control_c, 7, 64, 1
2, 39372, Note_on_c, 7, 76, 0
2, 39372, Note_on_c, 7, 66, 48
2, 39373, Note_on_c, 7, 60, 51
2, 39373, Note_on_c, 7, 69, 92
2, 39389, Control_c, 7, 64, 127
2, 39476, Note_on_c, 7, 60, 0
2, 39493, Note_on_c, 7, 60, 48
2, 39660, Note_on_c, 7, 60, 0
2, 39663, Control_c, 7, 64, 1
2, 39680, Note_on_c, 7, 66, 0
2, 39680, Control_c, 7, 64, 127
2, 39687, Note_on_c, 7, 60, 56
2, 39691, Note_on_c, 7, 63, 65
2, 39692, Note_on_c, 7, 69, 0
2, 39702, Note_on_c, 7, 66, 48
2, 39709, Note_on_c, 7, 71, 86
2, 39762, Note_on_c, 7, 71, 0
2, 39764, Note_on_c, 7, 72, 112
2, 39792, Control_c, 7, 64, 0
2, 39800, Note_on_c, 7, 60, 0
2, 39800, Note_on_c, 7, 63, 0
2, 39806, Note_on_c, 7, 72, 0
2, 39807, Note_on_c, 7, 66, 0
2, 39809, Control_c, 7, 64, 126
2, 39813, Note_on_c, 7, 60, 64
2, 39816, Note_on_c, 7, 74, 111
2, 39817, Note_on_c, 7, 63, 71
2, 39825, Note_on_c, 7, 66, 54
2, 39829, Note_on_c, 7, 74, 0
2, 39829, Note_on_c, 7, 72, 107
2, 39914, Note_on_c, 7, 60, 0
2, 39915, Note_on_c, 7, 63, 0
2, 39918, Note_on_c, 7, 66, 0
2, 39920, Note_on_c, 7, 63, 57
2, 39980, Control_c, 7, 64, 0
2, 39981, Note_on_c, 7, 72, 0
2, 39982, Note_on_c, 7, 71, 93
2, 39999, Control_c, 7, 64, 127
2, 40024, Note_on_c, 7, 63, 0
2, 40042, Note_on_c, 7, 67, 86
2, 40043, Note_on_c, 7, 62, 55
2, 40046, Control_c, 7, 64, 0
2, 40061, Control_c, 7, 64, 127
2, 40092, Note_on_c, 7, 71, 0
2, 40096, Note_on_c, 7, 76, 105
2, 40130, Note_on_c, 7, 62, 0
2, 40135, Note_on_c, 7, 67, 0
2, 40154, Note_on_c, 7, 76, 0
2, 40154, Note_on_c, 7, 79, 108
2, 40227, Note_on_c, 7, 79, 0
2, 40227, Note_on_c, 7, 83, 112
2, 40294, Note_on_c, 7, 83, 0
2, 40306, Control_c, 7, 64, 0
2, 40316, Note_on_c, 7, 83, 115
2, 40332, Control_c, 7, 64, 127
2, 40500, Note_on_c, 7, 83, 0
2, 40501, Note_on_c, 7, 81, 107
2, 40548, Control_c, 7, 64, 0
2, 40568, Note_on_c, 7, 81, 0
2, 40569, Note_on_c, 7, 84, 113
2, 40570, Note_on_c, 7, 76, 75
2, 40574, Control_c, 7, 64, 127
2, 40663, Note_on_c, 7, 76, 0
2, 40701, Note_on_c, 7, 84, 0
2, 40724, Note_on_c, 7, 78, 100
2, 40756, Control_c, 7, 64, 0
2, 40773, Note_on_c, 7, 71, 58
2, 40781, Control_c, 7, 64, 127
2, 40787, Note_on_c, 7, 74, 75
2, 40795, Note_on_c, 7, 78, 0
2, 40797, Note_on_c, 7, 81, 104
2, 40891, Note_on_c, 7, 74, 0
2, 40893, Note_on_c, 7, 71, 0
2, 40897, Note_on_c, 7, 71, 55
2, 40897, Note_on_c, 7, 74, 75
2, 40948, Note_on_c, 7, 81, 0
2, 40950, Note_on_c, 7, 79, 95
2, 40977, Note_on_c, 7, 71, 0
2, 40982, Note_on_c, 7, 74, 0
2, 40983, Control_c, 7, 64, 0
2, 41002, Control_c, 7, 64, 127
2, 41003, Note_on_c, 7, 72, 92
2, 41013, Note_on_c, 7, 76, 75
2, 41024, Note_on_c, 7, 79, 0
2, 41026, Note_on_c, 7, 83, 106
2, 41111, Note_on_c, 7, 76, 0
2, 41112, Note_on_c, 7, 72, 0
2, 41135, Note_on_c, 7, 76, 50
2, 41136, Note_on_c, 7, 72, 62
2, 41150, Note_on_c, 7, 83, 0
2, 41154, Note_on_c, 7, 76, 0
2, 41166, Note_on_c, 7, 76, 96
2, 41195, Note_on_c, 7, 76, 0
2, 41196, Note_on_c, 7, 78, 110
2, 41214, Note_on_c, 7, 72, 0
2, 41221, Control_c, 7, 64, 3
2, 41242, Note_on_c, 7, 70, 65
2, 41248, Note_on_c, 7, 79, 106
2, 41249, Note_on_c, 7, 78, 0
2, 41253, Note_on_c, 7, 73, 80
2, 41269, Control_c, 7, 64, 127
2, 41335, Note_on_c, 7, 73, 0
2, 41335, Note_on_c, 7, 70, 0
2, 41355, Note_on_c, 7, 70, 49
2, 41356, Note_on_c, 7, 73, 57
2, 41405, Note_on_c, 7, 79, 0
2, 41405, Note_on_c, 7, 78, 94
2, 41458, Note_on_c, 7, 70, 0
2, 41459, Note_on_c, 7, 73, 0
2, 41465, Control_c, 7, 64, 0
2, 41474, Note_on_c, 7, 72, 83
2, 41475, Note_on_c, 7, 69, 80
2, 41487, Control_c, 7, 64, 127
2, 41530, Note_on_c, 7, 78, 0
2, 41530, Note_on_c, 7, 81, 92
2, 41567, Note_on_c, 7, 72, 0
2, 41568, Note_on_c, 7, 69, 0
2, 41595, Note_on_c, 7, 72, 62
2, 41597, Note_on_c, 7, 69, 69
2, 41661, Note_on_c, 7, 81, 0
2, 41662, Note_on_c, 7, 79, 85
2, 41740, Note_on_c, 7, 69, 0
2, 41742, Note_on_c, 7, 72, 0
2, 41754, Control_c, 7, 64, 1
2, 41759, Note_on_c, 7, 79, 0
2, 41759, Note_on_c, 7, 68, 50
2, 41759, Note_on_c, 7, 78, 80
2, 41759, Note_on_c, 7, 71, 75
2, 41776, Control_c, 7, 64, 127
2, 41999, Note_on_c, 7, 68, 0
2, 42001, Note_on_c, 7, 71, 0
2, 42030, Note_on_c, 7, 78, 0
2, 42035, Control_c, 7, 64, 1
2, 42038, Note_on_c, 7, 76, 86
2, 42050, Control_c, 7, 64, 127
2, 42094, Note_on_c, 7, 76, 0
2, 42096, Note_on_c, 7, 75, 88
2, 42153, Note_on_c, 7, 75, 0
2, 42153, Control_c, 7, 64, 0
2, 42153, Note_on_c, 7, 76, 91
2, 42172, Control_c, 7, 64, 127
2, 42210, Control_c, 7, 64, 0
2, 42222, Note_on_c, 7, 76, 0
2, 42222, Note_on_c, 7, 83, 95
2, 42236, Control_c, 7, 64, 127
2, 42466, Note_on_c, 7, 83, 0
2, 42479, Note_on_c, 7, 90, 88
2, 42529, Control_c, 7, 64, 1
2, 42548, Control_c, 7, 64, 127
2, 42553, Note_on_c, 7, 90, 0
2, 42553, Note_on_c, 7, 87, 83
2, 42590, Note_on_c, 7, 87, 0
2, 42590, Note_on_c, 7, 88, 82
2, 42643, Control_c, 7, 64, 0
2, 42649, Note_on_c, 7, 88, 0
2, 42649, Note_on_c, 7, 95, 93
2, 42666, Control_c, 7, 64, 127
2, 42888, Note_on_c, 7, 95, 0
2, 42906, Note_on_c, 7, 100, 80
2, 42909, Note_on_c, 7, 102, 100
2, 42918, Note_on_c, 7, 100, 0
2, 42967, Control_c, 7, 64, 0
2, 42980, Note_on_c, 7, 102, 0
2, 42980, Note_on_c, 7, 99, 88
2, 42988, Control_c, 7, 64, 127
2, 43039, Note_on_c, 7, 99, 0
2, 43039, Note_on_c, 7, 100, 84
2, 43085, Control_c, 7, 64, 0
2, 43090, Note_on_c, 7, 100, 0
2, 43090, Note_on_c, 7, 107, 90
2, 43103, Control_c, 7, 64, 127
2, 45419, Note_on_c, 7, 107, 0
2, 45601, Control_c, 7, 64, 0
2, 45601, End_track
3, 0, Start_track
3, 0, MIDI_port, 0
3, 0, Title_t, "Track 1"
3, 124, Control_c, 7, 0, 0
3, 125, Control_c, 7, 32, 0
3, 125, Program_c, 7, 0
3, 125, Control_c, 7, 7, 101
3, 480, Note_on_c, 7, 45, 67
3, 484, Control_c, 7, 64, 127
3, 486, Note_on_c, 7, 52, 49
3, 491, Note_on_c, 7, 55, 58
3, 586, Note_on_c, 7, 52, 0
3, 588, Note_on_c, 7, 55, 0
3, 588, Note_on_c, 7, 45, 0
3, 606, Control_c, 7, 64, 1
3, 608, Note_on_c, 7, 43, 61
3, 610, Control_c, 7, 64, 127
3, 618, Note_on_c, 7, 48, 49
3, 623, Note_on_c, 7, 52, 44
3, 628, Note_on_c, 7, 55, 48
3, 713, Note_on_c, 7, 48, 0
3, 713, Note_on_c, 7, 43, 0
3, 721, Note_on_c, 7, 52, 0
3, 722, Control_c, 7, 64, 0
3, 724, Note_on_c, 7, 55, 0
3, 730, Note_on_c, 7, 41, 43
3, 730, Note_on_c, 7, 53, 49
3, 731, Note_on_c, 7, 52, 49
3, 731, Note_on_c, 7, 48, 49
3, 731, Note_on_c, 7, 45, 49
3, 732, Control_c, 7, 64, 127
3, 904, Note_on_c, 7, 29, 49
3, 911, Note_on_c, 7, 48, 0
3, 912, Note_on_c, 7, 45, 0
3, 916, Note_on_c, 7, 41, 0
3, 1116, Note_on_c, 7, 29, 0
3, 1317, Note_on_c, 7, 52, 0
3, 1322, Note_on_c, 7, 53, 0
3, 1371, Control_c, 7, 64, 0
3, 1378, Note_on_c, 7, 41, 73
3, 1381, Control_c, 7, 64, 127
3, 1387, Note_on_c, 7, 48, 53
3, 1397, Note_on_c, 7, 52, 67
3, 1457, Note_on_c, 7, 48, 0
3, 1457, Note_on_c, 7, 41, 0
3, 1462, Note_on_c, 7, 52, 0
3, 1479, Control_c, 7, 64, 0
3, 1480, Note_on_c, 7, 40, 64
3, 1485, Control_c, 7, 64, 127
3, 1487, Note_on_c, 7, 47, 58
3, 1493, Note_on_c, 7, 52, 64
3, 1598, Note_on_c, 7, 47, 0
3, 1600, Note_on_c, 7, 40, 0
3, 1602, Note_on_c, 7, 52, 0
3, 1624, Control_c, 7, 64, 0
3, 1631, Note_on_c, 7, 38, 58
3, 1637, Control_c, 7, 64, 127
3, 1700, Note_on_c, 7, 45, 52
3, 1767, Note_on_c, 7, 48, 48
3, 1768, Note_on_c, 7, 50, 48
3, 1918, Note_on_c, 7, 50, 0
3, 1969, Note_on_c, 7, 45, 0
3, 1972, Note_on_c, 7, 38, 0
3, 1988, Note_on_c, 7, 33, 43
3, 1988, Note_on_c, 7, 26, 59
3, 2008, Note_on_c, 7, 48, 0
3, 2268, Note_on_c, 7, 26, 0
3, 2269, Note_on_c, 7, 33, 0
3, 2307, Control_c, 7, 64, 0
3, 2310, Note_on_c, 7, 50, 61
3, 2311, Note_on_c, 7, 57, 50
3, 2311, Note_on_c, 7, 60, 47
3, 2313, Note_on_c, 7, 62, 58
3, 2320, Control_c, 7, 64, 127
3, 2419, Note_on_c, 7, 60, 0
3, 2440, Note_on_c, 7, 62, 0
3, 2445, Note_on_c, 7, 57, 0
3, 2445, Note_on_c, 7, 50, 0
3, 2450, Control_c, 7, 64, 0
3, 2452, Note_on_c, 7, 48, 52
3, 2452, Note_on_c, 7, 59, 58
3, 2453, Note_on_c, 7, 60, 57
3, 2462, Control_c, 7, 64, 127
3, 2564, Note_on_c, 7, 60, 0
3, 2565, Control_c, 7, 64, 0
3, 2566, Note_on_c, 7, 57, 89
3, 2567, Note_on_c, 7, 46, 58
3, 2571, Note_on_c, 7, 59, 0
3, 2573, Note_on_c, 7, 48, 0
3, 2578, Control_c, 7, 64, 127
3, 2623, Note_on_c, 7, 53, 69
3, 2634, Note_on_c, 7, 57, 0
3, 2690, Note_on_c, 7, 55, 61
3, 2693, Note_on_c, 7, 57, 48
3, 2934, Note_on_c, 7, 53, 0
3, 2939, Note_on_c, 7, 46, 0
3, 2939, Note_on_c, 7, 55, 0
3, 2942, Note_on_c, 7, 57, 0
3, 3070, Control_c, 7, 64, 0
3, 3072, Note_on_c, 7, 47, 58
3, 3078, Note_on_c, 7, 57, 59
3, 3079, Note_on_c, 7, 53, 56
3, 3081, Control_c, 7, 64, 127
3, 3287, Control_c, 7, 64, 0
3, 3288, Note_on_c, 7, 40, 78
3, 3293, Note_on_c, 7, 53, 0
3, 3294, Note_on_c, 7, 57, 0
3, 3295, Control_c, 7, 64, 127
3, 3298, Note_on_c, 7, 47, 0
3, 3304, Note_on_c, 7, 50, 52
3, 3319, Note_on_c, 7, 56, 69
3, 3466, Control_c, 7, 64, 0
3, 3474, Control_c, 7, 64, 127
3, 3501, Note_on_c, 7, 56, 0
3, 3503, Note_on_c, 7, 40, 0
3, 3504, Note_on_c, 7, 50, 0
3, 3542, Control_c, 7, 64, 1
3, 3544, Note_on_c, 7, 45, 65
3, 3546, Note_on_c, 7, 55, 53
3, 3554, Control_c, 7, 64, 127
3, 3598, Note_on_c, 7, 48, 62
3, 3612, Note_on_c, 7, 55, 0
3, 3653, Note_on_c, 7, 55, 58
3, 3655, Note_on_c, 7, 52, 46
3, 4211, Note_on_c, 7, 55, 0
3, 4211, Note_on_c, 7, 48, 0
3, 4213, Note_on_c, 7, 52, 0
3, 4216, Note_on_c, 7, 45, 0
3, 4286, Control_c, 7, 64, 0
3, 4292, Note_on_c, 7, 45, 63
3, 4293, Note_on_c, 7, 57, 63
3, 4293, Note_on_c, 7, 55, 59
3, 4293, Note_on_c, 7, 52, 64
3, 4297, Control_c, 7, 64, 127
3, 4385, Note_on_c, 7, 52, 0
3, 4391, Note_on_c, 7, 57, 0
3, 4392, Note_on_c, 7, 55, 0
3, 4392, Note_on_c, 7, 45, 0
3, 4402, Control_c, 7, 64, 0
3, 4404, Note_on_c, 7, 43, 55
3, 4404, Note_on_c, 7, 48, 49
3, 4404, Note_on_c, 7, 55, 49
3, 4405, Note_on_c, 7, 52, 52
3, 4411, Control_c, 7, 64, 127
3, 4500, Note_on_c, 7, 55, 0
3, 4502, Note_on_c, 7, 52, 0
3, 4502, Note_on_c, 7, 43, 0
3, 4507, Note_on_c, 7, 48, 0
3, 4518, Control_c, 7, 64, 1
3, 4521, Note_on_c, 7, 41, 62
3, 4530, Control_c, 7, 64, 127
3, 4574, Note_on_c, 7, 48, 59
3, 4630, Note_on_c, 7, 52, 61
3, 4631, Note_on_c, 7, 55, 49
3, 4811, Note_on_c, 7, 52, 0
3, 4815, Note_on_c, 7, 55, 0
3, 4822, Note_on_c, 7, 48, 0
3, 4822, Note_on_c, 7, 41, 0
3, 4827, Note_on_c, 7, 36, 55
3, 4962, Note_on_c, 7, 29, 42
3, 5182, Note_on_c, 7, 29, 0
3, 5204, Control_c, 7, 64, 0
3, 5205, Note_on_c, 7, 36, 0
3, 5207, Note_on_c, 7, 41, 59
3, 5211, Control_c, 7, 64, 127
3, 5218, Note_on_c, 7, 48, 54
3, 5231, Note_on_c, 7, 53, 67
3, 5323, Note_on_c, 7, 48, 0
3, 5325, Note_on_c, 7, 41, 0
3, 5325, Control_c, 7, 64, 1
3, 5327, Note_on_c, 7, 53, 0
3, 5327, Note_on_c, 7, 40, 55
3, 5330, Note_on_c, 7, 48, 52
3, 5331, Control_c, 7, 64, 127
3, 5333, Note_on_c, 7, 50, 56
3, 5451, Note_on_c, 7, 50, 0
3, 5452, Control_c, 7, 64, 0
3, 5454, Note_on_c, 7, 48, 0
3, 5456, Note_on_c, 7, 40, 0
3, 5456, Note_on_c, 7, 38, 70
3, 5461, Control_c, 7, 64, 127
3, 5513, Note_on_c, 7, 45, 61
3, 5586, Note_on_c, 7, 50, 57
3, 5587, Note_on_c, 7, 48, 52
3, 5787, Note_on_c, 7, 50, 0
3, 5788, Note_on_c, 7, 48, 0
3, 5908, Note_on_c, 7, 38, 0
3, 5909, Note_on_c, 7, 45, 0
3, 5950, Note_on_c, 7, 26, 49
3, 6170, Note_on_c, 7, 26, 0
3, 6182, Control_c, 7, 64, 0
3, 6184, Note_on_c, 7, 50, 69
3, 6193, Note_on_c, 7, 57, 64
3, 6193, Note_on_c, 7, 60, 56
3, 6193, Control_c, 7, 64, 127
3, 6194, Note_on_c, 7, 62, 55
3, 6255, Note_on_c, 7, 50, 0
3, 6276, Note_on_c, 7, 60, 0
3, 6299, Control_c, 7, 64, 1
3, 6302, Note_on_c, 7, 48, 76
3, 6308, Control_c, 7, 64, 127
3, 6313, Note_on_c, 7, 57, 0
3, 6315, Note_on_c, 7, 62, 0
3, 6379, Note_on_c, 7, 48, 0
3, 6421, Control_c, 7, 64, 0
3, 6424, Note_on_c, 7, 47, 71
3, 6439, Control_c, 7, 64, 127
3, 6500, Note_on_c, 7, 57, 64
3, 6563, Note_on_c, 7, 59, 54
3, 6745, Note_on_c, 7, 59, 0
3, 6771, Control_c, 7, 64, 0
3, 6785, Control_c, 7, 64, 127
3, 6829, Control_c, 7, 64, 0
3, 6834, Note_on_c, 7, 47, 0
3, 6835, Note_on_c, 7, 57, 0
3, 6840, Control_c, 7, 64, 127
3, 6887, Control_c, 7, 64, 0
3, 6888, Note_on_c, 7, 48, 53
3, 6896, Note_on_c, 7, 55, 53
3, 6896, Control_c, 7, 64, 127
3, 6904, Note_on_c, 7, 59, 43
3, 7113, Note_on_c, 7, 59, 0
3, 7116, Note_on_c, 7, 55, 0
3, 7117, Note_on_c, 7, 48, 0
3, 7145, Note_on_c, 7, 36, 63
3, 7314, Note_on_c, 7, 36, 0
3, 7361, Control_c, 7, 64, 0
3, 7363, Note_on_c, 7, 41, 64
3, 7375, Control_c, 7, 64, 127
3, 7446, Note_on_c, 7, 48, 60
3, 7460, Note_on_c, 7, 41, 0
3, 7510, Note_on_c, 7, 52, 59
3, 7512, Note_on_c, 7, 55, 83
3, 7697, Note_on_c, 7, 55, 0
3, 7702, Note_on_c, 7, 48, 0
3, 7704, Note_on_c, 7, 52, 0
3, 7722, Control_c, 7, 64, 0
3, 7726, Note_on_c, 7, 40, 69
3, 7726, Note_on_c, 7, 48, 57
3, 7726, Note_on_c, 7, 50, 57
3, 7735, Control_c, 7, 64, 127
3, 7849, Note_on_c, 7, 40, 0
3, 7850, Note_on_c, 7, 50, 0
3, 7850, Note_on_c, 7, 48, 0
3, 7865, Control_c, 7, 64, 0
3, 7868, Note_on_c, 7, 38, 45
3, 7868, Note_on_c, 7, 48, 52
3, 7868, Note_on_c, 7, 45, 64
3, 7880, Control_c, 7, 64, 127
3, 8086, Note_on_c, 7, 48, 0
3, 8087, Note_on_c, 7, 45, 0
3, 8087, Control_c, 7, 64, 0
3, 8089, Note_on_c, 7, 38, 0
3, 8091, Note_on_c, 7, 56, 58
3, 8091, Note_on_c, 7, 53, 50
3, 8091, Note_on_c, 7, 50, 53
3, 8092, Note_on_c, 7, 43, 58
3, 8101, Control_c, 7, 64, 127
3, 8231, Note_on_c, 7, 53, 0
3, 8232, Note_on_c, 7, 56, 0
3, 8240, Note_on_c, 7, 50, 0
3, 8256, Note_on_c, 7, 43, 0
3, 8299, Control_c, 7, 64, 0
3, 8302, Note_on_c, 7, 36, 64
3, 8315, Control_c, 7, 64, 127
3, 8335, Note_on_c, 7, 48, 52
3, 8335, Note_on_c, 7, 59, 57
3, 8336, Note_on_c, 7, 52, 55
3, 8391, Note_on_c, 7, 43, 61
3, 8453, Note_on_c, 7, 50, 48
3, 8467, Note_on_c, 7, 52, 0
3, 8478, Note_on_c, 7, 48, 0
3, 8479, Note_on_c, 7, 59, 0
3, 8481, Note_on_c, 7, 36, 0
3, 8927, Note_on_c, 7, 43, 0
3, 8935, Note_on_c, 7, 50, 0
3, 9055, Control_c, 7, 64, 0
3, 9056, Note_on_c, 7, 48, 57
3, 9056, Note_on_c, 7, 59, 61
3, 9058, Note_on_c, 7, 55, 80
3, 9068, Control_c, 7, 64, 127
3, 9116, Note_on_c, 7, 48, 0
3, 9121, Note_on_c, 7, 59, 0
3, 9165, Note_on_c, 7, 55, 0
3, 9170, Note_on_c, 7, 47, 73
3, 9171, Control_c, 7, 64, 1
3, 9188, Control_c, 7, 64, 127
3, 9189, Note_on_c, 7, 57, 77
3, 9190, Note_on_c, 7, 59, 61
3, 9282, Note_on_c, 7, 47, 0
3, 9288, Note_on_c, 7, 59, 0
3, 9290, Note_on_c, 7, 57, 0
3, 9294, Control_c, 7, 64, 0
3, 9294, Note_on_c, 7, 45, 63
3, 9305, Control_c, 7, 64, 127
3, 9362, Note_on_c, 7, 52, 64
3, 9435, Note_on_c, 7, 59, 62
3, 9436, Note_on_c, 7, 55, 58
3, 9662, Note_on_c, 7, 45, 0
3, 9674, Note_on_c, 7, 52, 0
3, 9730, Note_on_c, 7, 33, 35
3, 9730, Note_on_c, 7, 40, 39
3, 9731, Note_on_c, 7, 45, 49
3, 9913, Note_on_c, 7, 55, 0
3, 9925, Note_on_c, 7, 59, 0
3, 9936, Note_on_c, 7, 40, 0
3, 9936, Note_on_c, 7, 45, 0
3, 9937, Note_on_c, 7, 33, 0
3, 9963, Control_c, 7, 64, 0
3, 9967, Note_on_c, 7, 45, 53
3, 9968, Note_on_c, 7, 52, 71
3, 9969, Note_on_c, 7, 55, 80
3, 9981, Control_c, 7, 64, 127
3, 10073, Note_on_c, 7, 55, 0
3, 10079, Note_on_c, 7, 52, 0
3, 10080, Note_on_c, 7, 45, 0
3, 10094, Control_c, 7, 64, 0
3, 10097, Note_on_c, 7, 52, 49
3, 10097, Note_on_c, 7, 55, 51
3, 10098, Note_on_c, 7, 48, 50
3, 10100, Note_on_c, 7, 43, 60
3, 10104, Control_c, 7, 64, 127
3, 10248, Note_on_c, 7, 55, 0
3, 10251, Note_on_c, 7, 48, 0
3, 10253, Note_on_c, 7, 52, 0
3, 10256, Control_c, 7, 64, 0
3, 10261, Note_on_c, 7, 43, 0
3, 10261, Note_on_c, 7, 42, 57
3, 10271, Control_c, 7, 64, 127
3, 10323, Note_on_c, 7, 52, 53
3, 10387, Note_on_c, 7, 57, 58
3, 10498, Note_on_c, 7, 42, 0
3, 10520, Control_c, 7, 64, 1
3, 10523, Note_on_c, 7, 42, 75
3, 10524, Note_on_c, 7, 52, 0
3, 10533, Control_c, 7, 64, 127
3, 10538, Note_on_c, 7, 57, 0
3, 10594, Note_on_c, 7, 51, 72
3, 10657, Note_on_c, 7, 57, 56
3, 10749, Control_c, 7, 64, 0
3, 10757, Control_c, 7, 64, 126
3, 10786, Note_on_c, 7, 42, 0
3, 10787, Note_on_c, 7, 43, 67
3, 10810, Note_on_c, 7, 57, 0
3, 10825, Control_c, 7, 64, 1
3, 10838, Control_c, 7, 64, 127
3, 10844, Note_on_c, 7, 51, 0
3, 10870, Note_on_c, 7, 51, 71
3, 10931, Note_on_c, 7, 54, 62
3, 10994, Control_c, 7, 64, 0
3, 11009, Control_c, 7, 64, 127
3, 11035, Note_on_c, 7, 51, 0
3, 11035, Note_on_c, 7, 43, 0
3, 11040, Note_on_c, 7, 54, 0
3, 11065, Note_on_c, 7, 43, 55
3, 11067, Control_c, 7, 64, 1
3, 11079, Control_c, 7, 64, 127
3, 11136, Note_on_c, 7, 52, 54
3, 11200, Note_on_c, 7, 55, 46
3, 11337, Note_on_c, 7, 55, 0
3, 11359, Note_on_c, 7, 43, 0
3, 11361, Note_on_c, 7, 52, 0
3, 11376, Control_c, 7, 64, 0
3, 11382, Note_on_c, 7, 64, 43
3, 11382, Note_on_c, 7, 55, 32
3, 11382, Note_on_c, 7, 57, 50
3, 11383, Note_on_c, 7, 60, 44
3, 11393, Control_c, 7, 64, 126
3, 11471, Note_on_c, 7, 55, 0
3, 11473, Note_on_c, 7, 64, 0
3, 11475, Note_on_c, 7, 57, 0
3, 11475, Note_on_c, 7, 60, 0
3, 11518, Note_on_c, 7, 55, 36
3, 11520, Note_on_c, 7, 57, 55
3, 11520, Note_on_c, 7, 60, 47
3, 11520, Note_on_c, 7, 64, 47
3, 11581, Note_on_c, 7, 55, 0
3, 11586, Note_on_c, 7, 57, 0
3, 11588, Note_on_c, 7, 60, 0
3, 11595, Note_on_c, 7, 64, 0
3, 11599, Control_c, 7, 64, 1
3, 11604, Note_on_c, 7, 54, 62
3, 11612, Control_c, 7, 64, 126
3, 11619, Note_on_c, 7, 57, 56
3, 11635, Note_on_c, 7, 60, 56
3, 11635, Note_on_c, 7, 64, 58
3, 11704, Note_on_c, 7, 64, 0
3, 11706, Note_on_c, 7, 54, 0
3, 11706, Note_on_c, 7, 57, 0
3, 11708, Note_on_c, 7, 60, 0
3, 11738, Note_on_c, 7, 54, 44
3, 11739, Note_on_c, 7, 60, 54
3, 11739, Note_on_c, 7, 64, 52
3, 11741, Note_on_c, 7, 57, 55
3, 11807, Note_on_c, 7, 60, 0
3, 11810, Note_on_c, 7, 64, 0
3, 11811, Note_on_c, 7, 54, 0
3, 11811, Note_on_c, 7, 57, 0
3, 11856, Control_c, 7, 64, 0
3, 11862, Note_on_c, 7, 57, 64
3, 11862, Note_on_c, 7, 59, 49
3, 11867, Note_on_c, 7, 66, 42
3, 11869, Control_c, 7, 64, 127
3, 11873, Note_on_c, 7, 62, 48
3, 11961, Note_on_c, 7, 59, 0
3, 11961, Note_on_c, 7, 57, 0
3, 11980, Note_on_c, 7, 57, 62
3, 11981, Note_on_c, 7, 66, 0
3, 11981, Note_on_c, 7, 59, 58
3, 11984, Note_on_c, 7, 62, 0
3, 12061, Note_on_c, 7, 59, 0
3, 12062, Note_on_c, 7, 57, 0
3, 12110, Control_c, 7, 64, 0
3, 12115, Note_on_c, 7, 64, 57
3, 12116, Note_on_c, 7, 55, 49
3, 12116, Note_on_c, 7, 60, 51
3, 12116, Note_on_c, 7, 59, 62
3, 12129, Control_c, 7, 64, 127
3, 12177, Note_on_c, 7, 55, 0
3, 12178, Note_on_c, 7, 59, 0
3, 12182, Note_on_c, 7, 60, 0
3, 12232, Note_on_c, 7, 59, 58
3, 12234, Note_on_c, 7, 55, 51
3, 12260, Note_on_c, 7, 64, 0
3, 12297, Control_c, 7, 64, 1
3, 12313, Control_c, 7, 64, 127
3, 12337, Control_c, 7, 64, 0
3, 12339, Note_on_c, 7, 46, 65
3, 12342, Note_on_c, 7, 59, 0
3, 12345, Note_on_c, 7, 55, 0
3, 12350, Note_on_c, 7, 52, 54
3, 12350, Control_c, 7, 64, 127
3, 12353, Note_on_c, 7, 55, 60
3, 12356, Note_on_c, 7, 58, 51
3, 12427, Note_on_c, 7, 52, 0
3, 12428, Note_on_c, 7, 55, 0
3, 12440, Note_on_c, 7, 58, 0
3, 12451, Note_on_c, 7, 46, 0
3, 12470, Note_on_c, 7, 58, 45
3, 12471, Note_on_c, 7, 55, 62
3, 12472, Note_on_c, 7, 52, 45
3, 12511, Control_c, 7, 64, 0
3, 12528, Control_c, 7, 64, 127
3, 12547, Note_on_c, 7, 52, 0
3, 12551, Control_c, 7, 64, 0
3, 12551, Note_on_c, 7, 45, 76
3, 12552, Note_on_c, 7, 55, 0
3, 12553, Note_on_c, 7, 58, 0
3, 12559, Control_c, 7, 64, 127
3, 12565, Note_on_c, 7, 51, 55
3, 12577, Note_on_c, 7, 54, 65
3, 12652, Note_on_c, 7, 54, 0
3, 12660, Note_on_c, 7, 51, 0
3, 12663, Note_on_c, 7, 45, 0
3, 12692, Note_on_c, 7, 57, 69
3, 12692, Note_on_c, 7, 54, 69
3, 12817, Note_on_c, 7, 54, 0
3, 12820, Note_on_c, 7, 57, 0
3, 12836, Control_c, 7, 64, 0
3, 12845, Note_on_c, 7, 52, 55
3, 12845, Note_on_c, 7, 56, 50
3, 12845, Note_on_c, 7, 44, 44
3, 12847, Control_c, 7, 64, 127
3, 12928, Note_on_c, 7, 56, 0
3, 12937, Note_on_c, 7, 44, 0
3, 12942, Note_on_c, 7, 52, 0
3, 12972, Note_on_c, 7, 52, 52
3, 12972, Note_on_c, 7, 56, 37
3, 12972, Note_on_c, 7, 44, 37
3, 13057, Note_on_c, 7, 56, 0
3, 13061, Note_on_c, 7, 44, 0
3, 13063, Note_on_c, 7, 52, 0
3, 13076, Note_on_c, 7, 44, 36
3, 13077, Note_on_c, 7, 52, 52
3, 13078, Note_on_c, 7, 56, 42
3, 13123, Note_on_c, 7, 44, 0
3, 13126, Note_on_c, 7, 52, 0
3, 13129, Note_on_c, 7, 56, 0
3, 13194, Control_c, 7, 64, 0
3, 13194, Note_on_c, 7, 56, 45
3, 13194, Note_on_c, 7, 52, 46
3, 13196, Note_on_c, 7, 44, 37
3, 13214, Control_c, 7, 64, 127
3, 13269, Note_on_c, 7, 44, 0
3, 13270, Note_on_c, 7, 56, 0
3, 13275, Note_on_c, 7, 52, 0
3, 13316, Control_c, 7, 64, 0
3, 13320, Note_on_c, 7, 44, 39
3, 13320, Note_on_c, 7, 56, 42
3, 13321, Note_on_c, 7, 52, 45
3, 13331, Control_c, 7, 64, 127
3, 13415, Note_on_c, 7, 56, 0
3, 13415, Note_on_c, 7, 44, 0
3, 13421, Note_on_c, 7, 52, 0
3, 13434, Note_on_c, 7, 56, 40
3, 13435, Note_on_c, 7, 44, 29
3, 13436, Note_on_c, 7, 52, 45
3, 13522, Note_on_c, 7, 44, 0
3, 13523, Note_on_c, 7, 56, 0
3, 13528, Note_on_c, 7, 52, 0
3, 13544, Control_c, 7, 64, 0
3, 13545, Note_on_c, 7, 57, 57
3, 13566, Note_on_c, 7, 60, 36
3, 13566, Note_on_c, 7, 64, 51
3, 13567, Note_on_c, 7, 67, 58
3, 13575, Control_c, 7, 64, 127
3, 13640, Note_on_c, 7, 67, 0
3, 13650, Note_on_c, 7, 64, 0
3, 13655, Note_on_c, 7, 60, 0
3, 13667, Note_on_c, 7, 57, 0
3, 13668, Note_on_c, 7, 55, 49
3, 13669, Control_c, 7, 64, 4
3, 13672, Note_on_c, 7, 59, 59
3, 13680, Note_on_c, 7, 60, 52
3, 13683, Note_on_c, 7, 67, 56
3, 13688, Note_on_c, 7, 64, 53
3, 13689, Control_c, 7, 64, 127
3, 13757, Note_on_c, 7, 64, 0
3, 13758, Note_on_c, 7, 60, 0
3, 13758, Note_on_c, 7, 59, 0
3, 13764, Note_on_c, 7, 55, 0
3, 13772, Note_on_c, 7, 67, 0
3, 13791, Control_c, 7, 64, 1
3, 13792, Note_on_c, 7, 53, 59
3, 13796, Note_on_c, 7, 57, 46
3, 13801, Note_on_c, 7, 60, 46
3, 13805, Note_on_c, 7, 64, 58
3, 13813, Control_c, 7, 64, 127
3, 13922, Note_on_c, 7, 60, 0
3, 13928, Note_on_c, 7, 57, 0
3, 13935, Note_on_c, 7, 53, 0
3, 13938, Note_on_c, 7, 41, 52
3, 13939, Note_on_c, 7, 48, 49
3, 14100, Note_on_c, 7, 64, 0
3, 14420, Note_on_c, 7, 48, 0
3, 14422, Note_on_c, 7, 41, 0
3, 14468, Control_c, 7, 64, 0
3, 14473, Note_on_c, 7, 41, 66
3, 14477, Note_on_c, 7, 48, 58
3, 14478, Control_c, 7, 64, 127
3, 14481, Note_on_c, 7, 53, 54
3, 14484, Note_on_c, 7, 57, 52
3, 14504, Note_on_c, 7, 57, 0
3, 14545, Note_on_c, 7, 53, 0
3, 14552, Note_on_c, 7, 48, 0
3, 14562, Note_on_c, 7, 41, 0
3, 14577, Control_c, 7, 64, 1
3, 14578, Note_on_c, 7, 40, 71
3, 14583, Note_on_c, 7, 48, 53
3, 14588, Note_on_c, 7, 52, 54
3, 14589, Control_c, 7, 64, 127
3, 14590, Note_on_c, 7, 55, 57
3, 14632, Note_on_c, 7, 52, 0
3, 14638, Note_on_c, 7, 55, 0
3, 14643, Note_on_c, 7, 48, 0
3, 14648, Note_on_c, 7, 40, 0
3, 14712, Control_c, 7, 64, 0
3, 14714, Note_on_c, 7, 38, 60
3, 14724, Control_c, 7, 64, 127
3, 14763, Note_on_c, 7, 45, 64
3, 14935, Note_on_c, 7, 45, 0
3, 14943, Note_on_c, 7, 38, 0
3, 15157, Control_c, 7, 64, 0
3, 15161, Note_on_c, 7, 57, 57
3, 15162, Note_on_c, 7, 50, 34
3, 15163, Note_on_c, 7, 60, 44
3, 15164, Note_on_c, 7, 53, 34
3, 15174, Control_c, 7, 64, 127
3, 15348, Note_on_c, 7, 53, 0
3, 15349, Note_on_c, 7, 57, 0
3, 15350, Note_on_c, 7, 60, 0
3, 15352, Note_on_c, 7, 50, 0
3, 15372, Control_c, 7, 64, 0
3, 15375, Note_on_c, 7, 62, 56
3, 15375, Note_on_c, 7, 69, 67
3, 15375, Note_on_c, 7, 74, 69
3, 15377, Note_on_c, 7, 72, 75
3, 15389, Control_c, 7, 64, 127
3, 15482, Note_on_c, 7, 62, 0
3, 15490, Note_on_c, 7, 60, 61
3, 15491, Control_c, 7, 64, 2
3, 15504, Control_c, 7, 64, 127
3, 15575, Note_on_c, 7, 69, 0
3, 15579, Note_on_c, 7, 72, 0
3, 15584, Note_on_c, 7, 74, 0
3, 15599, Control_c, 7, 64, 0
3, 15600, Note_on_c, 7, 58, 44
3, 15611, Note_on_c, 7, 60, 0
3, 15615, Control_c, 7, 64, 127
3, 15661, Note_on_c, 7, 62, 50
3, 15720, Note_on_c, 7, 69, 62
3, 15722, Note_on_c, 7, 65, 43
3, 15894, Note_on_c, 7, 65, 0
3, 15894, Note_on_c, 7, 69, 0
3, 15894, Note_on_c, 7, 58, 0
3, 15898, Note_on_c, 7, 62, 0
3, 15996, Control_c, 7, 64, 0
3, 16000, Note_on_c, 7, 47, 58
3, 16013, Control_c, 7, 64, 127
3, 16068, Note_on_c, 7, 57, 56
3, 16172, Note_on_c, 7, 57, 0
3, 16172, Note_on_c, 7, 47, 0
3, 16179, Control_c, 7, 64, 0
3, 16187, Note_on_c, 7, 52, 51
3, 16199, Control_c, 7, 64, 127
3, 16201, Note_on_c, 7, 62, 49
3, 16264, Note_on_c, 7, 62, 0
3, 16277, Note_on_c, 7, 52, 0
3, 16393, Control_c, 7, 64, 0
3, 16396, Note_on_c, 7, 45, 70
3, 16407, Note_on_c, 7, 55, 53
3, 16412, Control_c, 7, 64, 127
3, 16519, Note_on_c, 7, 55, 0
3, 16534, Note_on_c, 7, 45, 0
3, 16540, Note_on_c, 7, 45, 48
3, 16541, Note_on_c, 7, 40, 45
3, 16542, Note_on_c, 7, 33, 40
3, 16695, Note_on_c, 7, 33, 0
3, 16697, Note_on_c, 7, 45, 0
3, 16698, Note_on_c, 7, 40, 0
3, 17085, Control_c, 7, 64, 0
3, 17087, Note_on_c, 7, 45, 54
3, 17092, Note_on_c, 7, 55, 72
3, 17096, Control_c, 7, 64, 127
3, 17150, Note_on_c, 7, 55, 0
3, 17150, Note_on_c, 7, 45, 0
3, 17199, Control_c, 7, 64, 0
3, 17202, Note_on_c, 7, 43, 48
3, 17210, Note_on_c, 7, 55, 52
3, 17213, Control_c, 7, 64, 127
3, 17281, Note_on_c, 7, 43, 0
3, 17288, Note_on_c, 7, 55, 0
3, 17312, Control_c, 7, 64, 1
3, 17313, Note_on_c, 7, 41, 60
3, 17313, Note_on_c, 7, 48, 60
3, 17314, Note_on_c, 7, 53, 44
3, 17331, Control_c, 7, 64, 127
3, 17441, Note_on_c, 7, 57, 57
3, 17466, Note_on_c, 7, 48, 0
3, 17466, Note_on_c, 7, 41, 0
3, 17468, Note_on_c, 7, 53, 0
3, 17590, Note_on_c, 7, 57, 0
3, 17993, Control_c, 7, 64, 0
3, 17997, Note_on_c, 7, 41, 48
3, 17998, Note_on_c, 7, 53, 45
3, 17999, Note_on_c, 7, 48, 58
3, 18014, Control_c, 7, 64, 127
3, 18092, Note_on_c, 7, 53, 0
3, 18092, Note_on_c, 7, 41, 0
3, 18094, Note_on_c, 7, 48, 0
3, 18110, Control_c, 7, 64, 0
3, 18112, Note_on_c, 7, 52, 56
3, 18114, Note_on_c, 7, 40, 60
3, 18126, Control_c, 7, 64, 127
3, 18202, Note_on_c, 7, 40, 0
3, 18211, Note_on_c, 7, 52, 0
3, 18216, Note_on_c, 7, 38, 78
3, 18216, Control_c, 7, 64, 2
3, 18243, Control_c, 7, 64, 127
3, 18286, Note_on_c, 7, 45, 63
3, 18319, Note_on_c, 7, 38, 0
3, 18367, Note_on_c, 7, 57, 51
3, 18369, Note_on_c, 7, 53, 43
3, 18483, Note_on_c, 7, 45, 0
3, 18583, Note_on_c, 7, 57, 0
3, 18594, Note_on_c, 7, 53, 0
3, 18668, Control_c, 7, 64, 1
3, 18673, Note_on_c, 7, 50, 62
3, 18680, Control_c, 7, 64, 127
3, 18729, Note_on_c, 7, 57, 62
3, 18791, Note_on_c, 7, 60, 69
3, 18792, Note_on_c, 7, 50, 0
3, 18803, Note_on_c, 7, 57, 0
3, 18878, Control_c, 7, 64, 0
3, 18879, Note_on_c, 7, 69, 65
3, 18881, Note_on_c, 7, 62, 48
3, 18885, Note_on_c, 7, 72, 65
3, 18892, Note_on_c, 7, 60, 0
3, 18900, Control_c, 7, 64, 127
3, 19001, Note_on_c, 7, 72, 0
3, 19008, Note_on_c, 7, 62, 0
3, 19012, Note_on_c, 7, 69, 0
3, 19017, Note_on_c, 7, 60, 53
3, 19017, Control_c, 7, 64, 0
3, 19032, Control_c, 7, 64, 127
3, 19126, Note_on_c, 7, 60, 0
3, 19129, Control_c, 7, 64, 0
3, 19131, Note_on_c, 7, 59, 57
3, 19147, Control_c, 7, 64, 127
3, 19185, Note_on_c, 7, 62, 55
3, 19251, Note_on_c, 7, 67, 62
3, 19347, Note_on_c, 7, 59, 0
3, 19356, Note_on_c, 7, 62, 0
3, 19361, Note_on_c, 7, 67, 0
3, 19361, Note_on_c, 7, 59, 46
3, 19420, Note_on_c, 7, 62, 53
3, 19497, Note_on_c, 7, 59, 0
3, 19503, Note_on_c, 7, 62, 0
3, 19563, Control_c, 7, 64, 0
3, 19565, Note_on_c, 7, 48, 65
3, 19574, Control_c, 7, 64, 127
3, 19661, Note_on_c, 7, 56, 50
3, 19726, Note_on_c, 7, 59, 53
3, 19809, Note_on_c, 7, 48, 0
3, 19821, Note_on_c, 7, 48, 50
3, 19823, Control_c, 7, 64, 0
3, 19825, Note_on_c, 7, 56, 0
3, 19832, Note_on_c, 7, 59, 0
3, 19838, Control_c, 7, 64, 127
3, 19889, Note_on_c, 7, 55, 54
3, 19954, Note_on_c, 7, 48, 0
3, 19970, Note_on_c, 7, 55, 0
3, 20043, Control_c, 7, 64, 0
3, 20045, Note_on_c, 7, 41, 68
3, 20063, Control_c, 7, 64, 127
3, 20120, Note_on_c, 7, 48, 60
3, 20186, Note_on_c, 7, 57, 73
3, 20186, Note_on_c, 7, 55, 62
3, 20216, Note_on_c, 7, 41, 0
3, 20291, Note_on_c, 7, 48, 0
3, 20345, Note_on_c, 7, 57, 0
3, 20347, Note_on_c, 7, 55, 0
3, 20375, Control_c, 7, 64, 0
3, 20379, Note_on_c, 7, 40, 60
3, 20388, Note_on_c, 7, 48, 53
3, 20391, Control_c, 7, 64, 127
3, 20400, Note_on_c, 7, 50, 65
3, 20499, Note_on_c, 7, 50, 0
3, 20499, Note_on_c, 7, 48, 0
3, 20503, Note_on_c, 7, 40, 0
3, 20523, Control_c, 7, 64, 0
3, 20525, Note_on_c, 7, 38, 79
3, 20538, Control_c, 7, 64, 127
3, 20659, Note_on_c, 7, 53, 60
3, 20677, Note_on_c, 7, 38, 0
3, 20742, Control_c, 7, 64, 0
3, 20748, Note_on_c, 7, 53, 0
3, 20751, Note_on_c, 7, 43, 51
3, 20757, Note_on_c, 7, 53, 55
3, 20761, Control_c, 7, 64, 127
3, 20903, Control_c, 7, 64, 1
3, 20923, Control_c, 7, 64, 127
3, 20993, Note_on_c, 7, 53, 0
3, 20997, Note_on_c, 7, 43, 0
3, 21048, Control_c, 7, 64, 0
3, 21049, Note_on_c, 7, 48, 45
3, 21050, Note_on_c, 7, 59, 42
3, 21052, Note_on_c, 7, 36, 43
3, 21067, Control_c, 7, 64, 127
3, 21168, Note_on_c, 7, 52, 44
3, 21200, Note_on_c, 7, 48, 0
3, 21201, Note_on_c, 7, 36, 0
3, 21318, Note_on_c, 7, 52, 0
3, 21352, Note_on_c, 7, 59, 0
3, 21370, Control_c, 7, 64, 0
3, 21543, Control_c, 7, 64, 0
3, 21546, Note_on_c, 7, 48, 80
3, 21552, Note_on_c, 7, 52, 57
3, 21558, Control_c, 7, 64, 127
3, 21563, Note_on_c, 7, 56, 83
3, 21678, Note_on_c, 7, 56, 0
3, 21679, Note_on_c, 7, 48, 0
3, 21681, Note_on_c, 7, 52, 0
3, 21691, Note_on_c, 7, 48, 53
3, 21691, Note_on_c, 7, 52, 47
3, 21691, Note_on_c, 7, 56, 65
3, 21808, Note_on_c, 7, 52, 0
3, 21812, Note_on_c, 7, 56, 0
3, 21845, Note_on_c, 7, 48, 0
3, 21856, Control_c, 7, 64, 0
3, 21857, Note_on_c, 7, 61, 45
3, 21857, Note_on_c, 7, 68, 47
3, 21873, Control_c, 7, 64, 127
3, 21928, Note_on_c, 7, 61, 0
3, 21951, Note_on_c, 7, 68, 0
3, 21986, Note_on_c, 7, 70, 58
3, 21987, Note_on_c, 7, 60, 75
3, 21988, Control_c, 7, 64, 1
3, 22008, Control_c, 7, 64, 127
3, 22088, Note_on_c, 7, 70, 0
3, 22091, Note_on_c, 7, 60, 0
3, 22096, Control_c, 7, 64, 0
3, 22097, Note_on_c, 7, 58, 63
3, 22098, Note_on_c, 7, 61, 37
3, 22098, Note_on_c, 7, 68, 60
3, 22113, Control_c, 7, 64, 127
3, 22219, Note_on_c, 7, 61, 0
3, 22222, Note_on_c, 7, 58, 0
3, 22225, Note_on_c, 7, 68, 0
3, 22237, Note_on_c, 7, 58, 35
3, 22237, Note_on_c, 7, 68, 48
3, 22238, Note_on_c, 7, 61, 33
3, 22442, Note_on_c, 7, 61, 0
3, 22443, Note_on_c, 7, 68, 0
3, 22452, Note_on_c, 7, 58, 0
3, 22467, Note_on_c, 7, 68, 55
3, 22468, Note_on_c, 7, 58, 44
3, 22469, Note_on_c, 7, 61, 26
3, 22603, Note_on_c, 7, 61, 0
3, 22611, Note_on_c, 7, 68, 0
3, 22616, Note_on_c, 7, 58, 0
3, 22623, Control_c, 7, 64, 0
3, 22626, Note_on_c, 7, 55, 55
3, 22626, Note_on_c, 7, 67, 58
3, 22626, Note_on_c, 7, 61, 43
3, 22645, Control_c, 7, 64, 127
3, 22739, Note_on_c, 7, 55, 0
3, 22744, Note_on_c, 7, 67, 0
3, 22746, Note_on_c, 7, 61, 0
3, 22759, Note_on_c, 7, 67, 57
3, 22760, Note_on_c, 7, 61, 32
3, 22760, Note_on_c, 7, 55, 51
3, 22955, Note_on_c, 7, 61, 0
3, 22956, Note_on_c, 7, 67, 0
3, 22958, Note_on_c, 7, 55, 0
3, 22971, Control_c, 7, 64, 0
3, 22976, Note_on_c, 7, 55, 53
3, 22976, Note_on_c, 7, 67, 59
3, 22977, Note_on_c, 7, 61, 43
3, 22992, Control_c, 7, 64, 127
3, 23049, Note_on_c, 7, 67, 0
3, 23067, Note_on_c, 7, 61, 0
3, 23078, Note_on_c, 7, 55, 0
3, 23086, Control_c, 7, 64, 1
3, 23089, Note_on_c, 7, 56, 58
3, 23094, Note_on_c, 7, 60, 43
3, 23098, Note_on_c, 7, 63, 40
3, 23112, Control_c, 7, 64, 127
3, 23207, Note_on_c, 7, 56, 0
3, 23211, Note_on_c, 7, 60, 0
3, 23215, Note_on_c, 7, 63, 0
3, 23225, Note_on_c, 7, 56, 54
3, 23226, Note_on_c, 7, 60, 56
3, 23226, Note_on_c, 7, 63, 39
3, 23371, Control_c, 7, 64, 0
3, 23385, Control_c, 7, 64, 127
3, 23405, Note_on_c, 7, 63, 0
3, 23406, Note_on_c, 7, 60, 0
3, 23407, Note_on_c, 7, 56, 0
3, 23430, Note_on_c, 7, 63, 60
3, 23430, Note_on_c, 7, 56, 60
3, 23430, Note_on_c, 7, 60, 60
3, 23558, Note_on_c, 7, 60, 0
3, 23558, Note_on_c, 7, 63, 0
3, 23568, Note_on_c, 7, 56, 0
3, 23577, Note_on_c, 7, 49, 49
3, 23577, Note_on_c, 7, 60, 60
3, 23578, Control_c, 7, 64, 0
3, 23579, Note_on_c, 7, 53, 52
3, 23608, Control_c, 7, 64, 127
3, 23675, Note_on_c, 7, 60, 0
3, 23677, Note_on_c, 7, 53, 0
3, 23680, Note_on_c, 7, 49, 0
3, 23691, Note_on_c, 7, 53, 53
3, 23691, Note_on_c, 7, 49, 60
3, 23692, Note_on_c, 7, 60, 67
3, 23866, Control_c, 7, 64, 0
3, 23886, Control_c, 7, 64, 127
3, 23918, Note_on_c, 7, 49, 0
3, 23920, Note_on_c, 7, 60, 0
3, 23920, Note_on_c, 7, 53, 0
3, 23927, Note_on_c, 7, 49, 57
3, 23928, Note_on_c, 7, 53, 69
3, 23928, Note_on_c, 7, 60, 53
3, 24025, Note_on_c, 7, 60, 0
3, 24025, Note_on_c, 7, 53, 0
3, 24025, Note_on_c, 7, 49, 0
3, 24033, Control_c, 7, 64, 0
3, 24038, Note_on_c, 7, 55, 64
3, 24046, Note_on_c, 7, 58, 56
3, 24051, Control_c, 7, 64, 127
3, 24055, Note_on_c, 7, 61, 62
3, 24067, Note_on_c, 7, 65, 61
3, 24167, Note_on_c, 7, 65, 0
3, 24169, Note_on_c, 7, 61, 0
3, 24171, Note_on_c, 7, 58, 0
3, 24173, Note_on_c, 7, 55, 0
3, 24188, Note_on_c, 7, 55, 58
3, 24188, Note_on_c, 7, 58, 44
3, 24189, Note_on_c, 7, 61, 43
3, 24189, Note_on_c, 7, 65, 58
3, 24388, Note_on_c, 7, 58, 0
3, 24388, Note_on_c, 7, 55, 0
3, 24390, Note_on_c, 7, 61, 0
3, 24392, Note_on_c, 7, 65, 0
3, 24401, Note_on_c, 7, 55, 65
3, 24401, Note_on_c, 7, 58, 46
3, 24401, Note_on_c, 7, 65, 65
3, 24402, Note_on_c, 7, 61, 44
3, 24489, Note_on_c, 7, 58, 0
3, 24489, Note_on_c, 7, 55, 0
3, 24490, Note_on_c, 7, 61, 0
3, 24494, Note_on_c, 7, 65, 0
3, 24501, Control_c, 7, 64, 0
3, 24503, Note_on_c, 7, 60, 61
3, 24517, Note_on_c, 7, 64, 67
3, 24517, Note_on_c, 7, 70, 57
3, 24519, Control_c, 7, 64, 127
3, 24593, Note_on_c, 7, 64, 0
3, 24597, Note_on_c, 7, 70, 0
3, 24600, Note_on_c, 7, 60, 0
3, 24620, Note_on_c, 7, 70, 38
3, 24620, Note_on_c, 7, 64, 54
3, 24620, Note_on_c, 7, 60, 48
3, 24795, Note_on_c, 7, 64, 0
3, 24798, Note_on_c, 7, 60, 0
3, 24805, Note_on_c, 7, 70, 0
3, 24814, Note_on_c, 7, 60, 54
3, 24814, Note_on_c, 7, 64, 61
3, 24815, Note_on_c, 7, 70, 43
3, 24935, Note_on_c, 7, 70, 0
3, 24935, Note_on_c, 7, 64, 0
3, 24946, Note_on_c, 7, 60, 0
3, 24946, Control_c, 7, 64, 0
3, 24956, Note_on_c, 7, 58, 44
3, 24956, Note_on_c, 7, 63, 41
3, 24956, Note_on_c, 7, 60, 33
3, 24956, Note_on_c, 7, 67, 44
3, 24976, Control_c, 7, 64, 127
3, 25053, Note_on_c, 7, 58, 0
3, 25054, Note_on_c, 7, 60, 0
3, 25059, Note_on_c, 7, 63, 0
3, 25060, Note_on_c, 7, 67, 0
3, 25075, Note_on_c, 7, 60, 46
3, 25075, Note_on_c, 7, 67, 57
3, 25075, Note_on_c, 7, 58, 38
3, 25075, Note_on_c, 7, 63, 44
3, 25273, Note_on_c, 7, 60, 0
3, 25274, Note_on_c, 7, 63, 0
3, 25274, Note_on_c, 7, 58, 0
3, 25278, Note_on_c, 7, 67, 0
3, 25286, Note_on_c, 7, 58, 44
3, 25286, Note_on_c, 7, 63, 40
3, 25287, Note_on_c, 7, 60, 42
3, 25287, Note_on_c, 7, 67, 57
3, 25303, Control_c, 7, 64, 0
3, 25317, Control_c, 7, 64, 127
3, 25358, Note_on_c, 7, 60, 0
3, 25358, Note_on_c, 7, 63, 0
3, 25359, Note_on_c, 7, 67, 0
3, 25359, Note_on_c, 7, 57, 56
3, 25360, Note_on_c, 7, 58, 0
3, 25360, Control_c, 7, 64, 0
3, 25369, Note_on_c, 7, 61, 48
3, 25380, Note_on_c, 7, 63, 55
3, 25388, Note_on_c, 7, 66, 35
3, 25401, Control_c, 7, 64, 127
3, 25463, Note_on_c, 7, 66, 0
3, 25466, Note_on_c, 7, 63, 0
3, 25472, Note_on_c, 7, 57, 0
3, 25473, Note_on_c, 7, 61, 0
3, 25499, Note_on_c, 7, 57, 57
3, 25499, Note_on_c, 7, 61, 37
3, 25499, Note_on_c, 7, 66, 34
3, 25499, Note_on_c, 7, 63, 35
3, 25688, Note_on_c, 7, 57, 0
3, 25690, Note_on_c, 7, 61, 0
3, 25693, Note_on_c, 7, 66, 0
3, 25694, Note_on_c, 7, 63, 0
3, 25704, Control_c, 7, 64, 1
3, 25706, Note_on_c, 7, 57, 59
3, 25707, Note_on_c, 7, 66, 41
3, 25707, Note_on_c, 7, 61, 38
3, 25707, Note_on_c, 7, 63, 40
3, 25723, Control_c, 7, 64, 127
3, 25822, Note_on_c, 7, 63, 0
3, 25822, Note_on_c, 7, 61, 0
3, 25825, Note_on_c, 7, 57, 0
3, 25827, Note_on_c, 7, 66, 0
3, 25831, Control_c, 7, 64, 0
3, 25832, Note_on_c, 7, 68, 49
3, 25832, Note_on_c, 7, 58, 49
3, 25833, Note_on_c, 7, 61, 36
3, 25849, Control_c, 7, 64, 127
3, 25938, Note_on_c, 7, 58, 0
3, 25941, Note_on_c, 7, 61, 0
3, 25941, Note_on_c, 7, 68, 0
3, 25951, Note_on_c, 7, 58, 41
3, 25952, Note_on_c, 7, 61, 35
3, 25952, Note_on_c, 7, 68, 51
3, 26141, Note_on_c, 7, 68, 0
3, 26141, Note_on_c, 7, 61, 0
3, 26146, Note_on_c, 7, 58, 0
3, 26161, Note_on_c, 7, 68, 58
3, 26161, Note_on_c, 7, 58, 69
3, 26161, Note_on_c, 7, 61, 42
3, 26264, Note_on_c, 7, 68, 0
3, 26267, Note_on_c, 7, 58, 0
3, 26268, Note_on_c, 7, 61, 0
3, 26269, Control_c, 7, 64, 0
3, 26273, Note_on_c, 7, 59, 65
3, 26279, Note_on_c, 7, 62, 47
3, 26284, Note_on_c, 7, 67, 54
3, 26292, Control_c, 7, 64, 127
3, 26353, Note_on_c, 7, 59, 0
3, 26372, Note_on_c, 7, 67, 0
3, 26373, Note_on_c, 7, 62, 0
3, 26414, Note_on_c, 7, 59, 58
3, 26415, Note_on_c, 7, 62, 57
3, 26415, Note_on_c, 7, 67, 73
3, 26415, Note_on_c, 7, 71, 73
3, 26585, Note_on_c, 7, 71, 0
3, 26585, Note_on_c, 7, 67, 0
3, 26585, Note_on_c, 7, 62, 0
3, 26590, Note_on_c, 7, 59, 0
3, 26611, Note_on_c, 7, 62, 39
3, 26611, Note_on_c, 7, 59, 45
3, 26611, Note_on_c, 7, 67, 53
3, 26612, Note_on_c, 7, 70, 36
3, 26719, Note_on_c, 7, 59, 0
3, 26723, Note_on_c, 7, 70, 0
3, 26723, Note_on_c, 7, 67, 0
3, 26724, Control_c, 7, 64, 1
3, 26727, Note_on_c, 7, 62, 0
3, 26730, Note_on_c, 7, 57, 69
3, 26733, Note_on_c, 7, 61, 49
3, 26734, Note_on_c, 7, 68, 52
3, 26749, Control_c, 7, 64, 127
3, 26824, Note_on_c, 7, 61, 0
3, 26824, Note_on_c, 7, 57, 0
3, 26828, Note_on_c, 7, 68, 0
3, 26843, Note_on_c, 7, 68, 45
3, 26847, Note_on_c, 7, 57, 53
3, 26847, Note_on_c, 7, 61, 46
3, 27020, Note_on_c, 7, 68, 0
3, 27023, Note_on_c, 7, 61, 0
3, 27029, Note_on_c, 7, 57, 0
3, 27048, Note_on_c, 7, 68, 41
3, 27049, Note_on_c, 7, 57, 58
3, 27049, Note_on_c, 7, 61, 44
3, 27125, Note_on_c, 7, 57, 0
3, 27129, Note_on_c, 7, 68, 0
3, 27130, Note_on_c, 7, 61, 0
3, 27147, Control_c, 7, 64, 0
3, 27152, Note_on_c, 7, 57, 53
3, 27152, Note_on_c, 7, 68, 39
3, 27153, Note_on_c, 7, 61, 38
3, 27171, Control_c, 7, 64, 127
3, 27246, Note_on_c, 7, 57, 0
3, 27247, Note_on_c, 7, 68, 0
3, 27250, Note_on_c, 7, 61, 0
3, 27264, Note_on_c, 7, 68, 33
3, 27265, Note_on_c, 7, 61, 33
3, 27265, Note_on_c, 7, 57, 56
3, 27429, Note_on_c, 7, 57, 0
3, 27434, Note_on_c, 7, 61, 0
3, 27437, Note_on_c, 7, 68, 0
3, 27448, Control_c, 7, 64, 0
3, 27454, Note_on_c, 7, 68, 37
3, 27454, Note_on_c, 7, 57, 48
3, 27455, Note_on_c, 7, 61, 42
3, 27455, Note_on_c, 7, 64, 59
3, 27472, Control_c, 7, 64, 127
3, 27553, Note_on_c, 7, 57, 0
3, 27555, Note_on_c, 7, 61, 0
3, 27559, Note_on_c, 7, 68, 0
3, 27561, Note_on_c, 7, 64, 0
3, 27571, Control_c, 7, 64, 0
3, 27577, Note_on_c, 7, 54, 48
3, 27583, Note_on_c, 7, 57, 42
3, 27584, Note_on_c, 7, 61, 42
3, 27585, Note_on_c, 7, 64, 46
3, 27600, Control_c, 7, 64, 127
3, 27671, Note_on_c, 7, 54, 0
3, 27677, Note_on_c, 7, 64, 0
3, 27680, Note_on_c, 7, 57, 0
3, 27681, Note_on_c, 7, 61, 0
3, 27707, Note_on_c, 7, 64, 47
3, 27707, Note_on_c, 7, 54, 42
3, 27707, Note_on_c, 7, 57, 60
3, 27707, Note_on_c, 7, 61, 42
3, 27866, Note_on_c, 7, 54, 0
3, 27867, Note_on_c, 7, 57, 0
3, 27872, Note_on_c, 7, 64, 0
3, 27872, Note_on_c, 7, 61, 0
3, 27908, Note_on_c, 7, 61, 38
3, 27909, Note_on_c, 7, 57, 69
3, 27995, Note_on_c, 7, 57, 0
3, 27995, Note_on_c, 7, 61, 0
3, 28023, Control_c, 7, 64, 1
3, 28026, Note_on_c, 7, 66, 44
3, 28026, Note_on_c, 7, 71, 47
3, 28026, Note_on_c, 7, 59, 57
3, 28026, Note_on_c, 7, 69, 65
3, 28044, Control_c, 7, 64, 127
3, 28089, Note_on_c, 7, 71, 0
3, 28093, Note_on_c, 7, 66, 0
3, 28093, Note_on_c, 7, 69, 0
3, 28143, Note_on_c, 7, 66, 40
3, 28144, Note_on_c, 7, 69, 48
3, 28144, Note_on_c, 7, 71, 40
3, 28320, Note_on_c, 7, 69, 0
3, 28320, Note_on_c, 7, 66, 0
3, 28323, Note_on_c, 7, 59, 0
3, 28325, Note_on_c, 7, 71, 0
3, 28343, Note_on_c, 7, 59, 56
3, 28343, Note_on_c, 7, 66, 37
3, 28347, Control_c, 7, 64, 0
3, 28360, Note_on_c, 7, 69, 46
3, 28371, Control_c, 7, 64, 127
3, 28461, Note_on_c, 7, 69, 0
3, 28465, Note_on_c, 7, 66, 0
3, 28471, Note_on_c, 7, 59, 0
3, 28473, Control_c, 7, 64, 0
3, 28479, Note_on_c, 7, 64, 59
3, 28480, Note_on_c, 7, 71, 45
3, 28480, Note_on_c, 7, 68, 37
3, 28482, Note_on_c, 7, 63, 47
3, 28495, Control_c, 7, 64, 127
3, 28586, Note_on_c, 7, 64, 0
3, 28587, Note_on_c, 7, 63, 0
3, 28587, Note_on_c, 7, 68, 0
3, 28590, Note_on_c, 7, 71, 0
3, 28602, Note_on_c, 7, 63, 47
3, 28602, Note_on_c, 7, 64, 50
3, 28602, Note_on_c, 7, 71, 43
3, 28603, Note_on_c, 7, 68, 43
3, 28747, Control_c, 7, 64, 0
3, 28770, Control_c, 7, 64, 127
3, 28801, Note_on_c, 7, 71, 0
3, 28804, Note_on_c, 7, 68, 0
3, 28805, Note_on_c, 7, 64, 0
3, 28805, Note_on_c, 7, 63, 0
3, 28820, Note_on_c, 7, 63, 42
3, 28820, Note_on_c, 7, 64, 58
3, 28820, Note_on_c, 7, 68, 42
3, 28863, Control_c, 7, 64, 1
3, 28882, Control_c, 7, 64, 127
3, 28927, Note_on_c, 7, 68, 0
3, 28927, Note_on_c, 7, 64, 0
3, 28927, Note_on_c, 7, 63, 0
3, 28938, Control_c, 7, 64, 0
3, 28938, Note_on_c, 7, 68, 49
3, 28939, Note_on_c, 7, 63, 43
3, 28939, Note_on_c, 7, 64, 53
3, 28956, Control_c, 7, 64, 127
3, 29040, Note_on_c, 7, 63, 0
3, 29041, Note_on_c, 7, 64, 0
3, 29041, Note_on_c, 7, 68, 0
3, 29054, Note_on_c, 7, 64, 55
3, 29054, Note_on_c, 7, 63, 44
3, 29055, Note_on_c, 7, 68, 43
3, 29208, Control_c, 7, 64, 0
3, 29210, Note_on_c, 7, 59, 80
3, 29227, Control_c, 7, 64, 127
3, 29259, Note_on_c, 7, 63, 0
3, 29259, Note_on_c, 7, 64, 0
3, 29261, Note_on_c, 7, 68, 0
3, 29300, Note_on_c, 7, 59, 0
3, 29302, Note_on_c, 7, 56, 70
3, 29396, Control_c, 7, 64, 1
3, 29403, Note_on_c, 7, 56, 0
3, 29404, Note_on_c, 7, 51, 60
3, 29418, Control_c, 7, 64, 127
3, 29668, Note_on_c, 7, 51, 0
3, 29673, Control_c, 7, 64, 0
3, 29675, Note_on_c, 7, 49, 63
3, 29696, Control_c, 7, 64, 127
3, 29807, Note_on_c, 7, 49, 0
3, 29808, Control_c, 7, 64, 0
3, 29811, Note_on_c, 7, 51, 65
3, 29832, Control_c, 7, 64, 127
3, 30116, Note_on_c, 7, 51, 0
3, 30123, Control_c, 7, 64, 1
3, 30146, Note_on_c, 7, 45, 65
3, 30146, Note_on_c, 7, 57, 49
3, 30147, Note_on_c, 7, 52, 52
3, 30170, Control_c, 7, 64, 127
3, 30217, Note_on_c, 7, 57, 0
3, 30217, Note_on_c, 7, 45, 0
3, 30220, Note_on_c, 7, 52, 0
3, 30237, Control_c, 7, 64, 0
3, 30240, Note_on_c, 7, 43, 73
3, 30263, Note_on_c, 7, 55, 62
3, 30264, Control_c, 7, 64, 127
3, 30325, Note_on_c, 7, 43, 0
3, 30332, Note_on_c, 7, 55, 0
3, 30337, Control_c, 7, 64, 0
3, 30340, Note_on_c, 7, 41, 69
3, 30363, Control_c, 7, 64, 127
3, 30375, Note_on_c, 7, 57, 59
3, 30375, Note_on_c, 7, 53, 56
3, 30477, Note_on_c, 7, 41, 0
3, 30485, Note_on_c, 7, 53, 0
3, 30494, Note_on_c, 7, 57, 0
3, 30500, Note_on_c, 7, 41, 55
3, 30501, Note_on_c, 7, 48, 61
3, 30502, Note_on_c, 7, 53, 53
3, 30699, Note_on_c, 7, 41, 0
3, 30704, Note_on_c, 7, 48, 0
3, 30709, Note_on_c, 7, 53, 0
3, 30717, Note_on_c, 7, 41, 51
3, 30717, Note_on_c, 7, 57, 58
3, 30717, Note_on_c, 7, 53, 36
3, 30718, Note_on_c, 7, 48, 45
3, 30798, Note_on_c, 7, 57, 0
3, 30798, Note_on_c, 7, 41, 0
3, 30802, Note_on_c, 7, 53, 0
3, 30803, Note_on_c, 7, 48, 0
3, 30828, Note_on_c, 7, 41, 46
3, 30829, Note_on_c, 7, 53, 34
3, 30829, Note_on_c, 7, 57, 53
3, 30829, Note_on_c, 7, 48, 42
3, 30930, Note_on_c, 7, 41, 0
3, 30932, Note_on_c, 7, 48, 0
3, 30937, Note_on_c, 7, 53, 0
3, 30940, Note_on_c, 7, 57, 0
3, 30956, Note_on_c, 7, 53, 37
3, 30956, Note_on_c, 7, 57, 57
3, 30956, Note_on_c, 7, 41, 55
3, 30956, Note_on_c, 7, 48, 53
3, 31088, Note_on_c, 7, 48, 0
3, 31090, Note_on_c, 7, 53, 0
3, 31091, Note_on_c, 7, 41, 0
3, 31092, Note_on_c, 7, 57, 0
3, 31158, Control_c, 7, 64, 0
3, 31161, Note_on_c, 7, 40, 61
3, 31171, Control_c, 7, 64, 127
3, 31173, Note_on_c, 7, 48, 65
3, 31183, Note_on_c, 7, 50, 57
3, 31244, Note_on_c, 7, 40, 0
3, 31249, Note_on_c, 7, 50, 0
3, 31250, Note_on_c, 7, 48, 0
3, 31295, Control_c, 7, 64, 0
3, 31295, Note_on_c, 7, 38, 55
3, 31297, Note_on_c, 7, 57, 58
3, 31297, Note_on_c, 7, 52, 42
3, 31316, Control_c, 7, 64, 126
3, 31399, Note_on_c, 7, 57, 0
3, 31402, Note_on_c, 7, 38, 0
3, 31406, Note_on_c, 7, 52, 0
3, 31409, Note_on_c, 7, 52, 44
3, 31587, Note_on_c, 7, 52, 0
3, 31600, Note_on_c, 7, 38, 52
3, 31602, Note_on_c, 7, 52, 37
3, 31701, Note_on_c, 7, 52, 0
3, 31703, Note_on_c, 7, 38, 0
3, 31711, Note_on_c, 7, 38, 69
3, 31712, Note_on_c, 7, 53, 42
3, 31809, Note_on_c, 7, 53, 0
3, 31823, Note_on_c, 7, 53, 43
3, 31966, Note_on_c, 7, 38, 0
3, 32025, Note_on_c, 7, 53, 0
3, 32039, Control_c, 7, 64, 1
3, 32043, Note_on_c, 7, 48, 49
3, 32054, Note_on_c, 7, 57, 57
3, 32058, Control_c, 7, 64, 127
3, 32062, Note_on_c, 7, 60, 46
3, 32130, Note_on_c, 7, 60, 0
3, 32131, Note_on_c, 7, 57, 0
3, 32132, Note_on_c, 7, 48, 0
3, 32182, Control_c, 7, 64, 0
3, 32185, Note_on_c, 7, 46, 55
3, 32188, Note_on_c, 7, 57, 65
3, 32206, Control_c, 7, 64, 127
3, 32462, Note_on_c, 7, 57, 0
3, 32464, Note_on_c, 7, 46, 0
3, 32486, Note_on_c, 7, 46, 60
3, 32487, Note_on_c, 7, 57, 64
3, 32572, Note_on_c, 7, 46, 0
3, 32583, Note_on_c, 7, 57, 0
3, 32587, Control_c, 7, 64, 0
3, 32596, Note_on_c, 7, 59, 55
3, 32596, Note_on_c, 7, 57, 60
3, 32596, Note_on_c, 7, 47, 47
3, 32619, Control_c, 7, 64, 127
3, 32676, Note_on_c, 7, 57, 0
3, 32678, Note_on_c, 7, 47, 0
3, 32678, Note_on_c, 7, 59, 0
3, 32703, Note_on_c, 7, 47, 46
3, 32703, Note_on_c, 7, 59, 55
3, 32704, Note_on_c, 7, 57, 62
3, 32806, Control_c, 7, 64, 0
3, 32809, Note_on_c, 7, 57, 0
3, 32812, Note_on_c, 7, 59, 0
3, 32812, Note_on_c, 7, 47, 0
3, 32812, Note_on_c, 7, 56, 49
3, 32812, Note_on_c, 7, 52, 61
3, 32823, Control_c, 7, 64, 127
3, 32899, Note_on_c, 7, 52, 0
3, 32903, Note_on_c, 7, 56, 0
3, 32930, Note_on_c, 7, 56, 44
3, 32930, Note_on_c, 7, 52, 55
3, 33013, Note_on_c, 7, 52, 0
3, 33026, Control_c, 7, 64, 0
3, 33028, Note_on_c, 7, 45, 52
3, 33033, Note_on_c, 7, 56, 0
3, 33035, Note_on_c, 7, 52, 41
3, 33046, Note_on_c, 7, 55, 54
3, 33050, Control_c, 7, 64, 127
3, 33114, Note_on_c, 7, 55, 0
3, 33165, Note_on_c, 7, 60, 49
3, 33165, Note_on_c, 7, 55, 55
3, 33166, Note_on_c, 7, 62, 47
3, 33295, Note_on_c, 7, 60, 0
3, 33297, Note_on_c, 7, 62, 0
3, 33301, Note_on_c, 7, 55, 0
3, 33306, Note_on_c, 7, 52, 0
3, 33352, Note_on_c, 7, 60, 45
3, 33353, Note_on_c, 7, 55, 57
3, 33353, Note_on_c, 7, 62, 39
3, 33353, Note_on_c, 7, 52, 52
3, 33412, Note_on_c, 7, 60, 0
3, 33417, Note_on_c, 7, 62, 0
3, 33421, Note_on_c, 7, 55, 0
3, 33423, Note_on_c, 7, 52, 0
3, 33464, Note_on_c, 7, 52, 44
3, 33464, Note_on_c, 7, 62, 49
3, 33464, Note_on_c, 7, 55, 56
3, 33465, Note_on_c, 7, 60, 44
3, 33523, Note_on_c, 7, 60, 0
3, 33529, Note_on_c, 7, 52, 0
3, 33531, Note_on_c, 7, 62, 0
3, 33534, Note_on_c, 7, 55, 0
3, 33583, Note_on_c, 7, 64, 44
3, 33584, Note_on_c, 7, 60, 46
3, 33585, Note_on_c, 7, 52, 41
3, 33586, Note_on_c, 7, 55, 55
3, 33681, Note_on_c, 7, 60, 0
3, 33682, Note_on_c, 7, 64, 0
3, 33684, Note_on_c, 7, 55, 0
3, 33685, Note_on_c, 7, 52, 0
3, 33689, Control_c, 7, 64, 0
3, 33695, Note_on_c, 7, 45, 0
3, 33712, Control_c, 7, 64, 127
3, 33781, Control_c, 7, 64, 0
3, 33786, Note_on_c, 7, 43, 57
3, 33795, Note_on_c, 7, 48, 57
3, 33802, Note_on_c, 7, 52, 45
3, 33805, Note_on_c, 7, 55, 75
3, 33809, Control_c, 7, 64, 127
3, 33890, Note_on_c, 7, 48, 0
3, 33891, Note_on_c, 7, 52, 0
3, 33894, Note_on_c, 7, 55, 0
3, 33895, Note_on_c, 7, 43, 0
3, 33931, Control_c, 7, 64, 0
3, 33939, Note_on_c, 7, 41, 58
3, 33948, Note_on_c, 7, 48, 52
3, 33951, Note_on_c, 7, 52, 49
3, 33956, Control_c, 7, 64, 127
3, 33957, Note_on_c, 7, 57, 73
3, 34024, Note_on_c, 7, 48, 0
3, 34028, Note_on_c, 7, 52, 0
3, 34038, Note_on_c, 7, 57, 0
3, 34074, Note_on_c, 7, 48, 43
3, 34075, Note_on_c, 7, 52, 45
3, 34075, Note_on_c, 7, 57, 54
3, 34211, Note_on_c, 7, 48, 0
3, 34215, Note_on_c, 7, 57, 0
3, 34215, Note_on_c, 7, 52, 0
3, 34260, Note_on_c, 7, 52, 38
3, 34262, Note_on_c, 7, 48, 41
3, 34263, Note_on_c, 7, 57, 46
3, 34356, Note_on_c, 7, 57, 0
3, 34356, Note_on_c, 7, 48, 0
3, 34362, Note_on_c, 7, 52, 0
3, 34384, Note_on_c, 7, 57, 49
3, 34385, Note_on_c, 7, 48, 46
3, 34385, Note_on_c, 7, 52, 43
3, 34462, Note_on_c, 7, 57, 0
3, 34465, Note_on_c, 7, 48, 0
3, 34470, Note_on_c, 7, 52, 0
3, 34490, Note_on_c, 7, 48, 47
3, 34490, Note_on_c, 7, 52, 48
3, 34492, Note_on_c, 7, 57, 47
3, 34601, Control_c, 7, 64, 0
3, 34616, Control_c, 7, 64, 127
3, 34666, Note_on_c, 7, 57, 0
3, 34668, Note_on_c, 7, 48, 0
3, 34669, Note_on_c, 7, 41, 0
3, 34671, Note_on_c, 7, 52, 0
3, 34698, Control_c, 7, 64, 0
3, 34705, Note_on_c, 7, 40, 65
3, 34714, Note_on_c, 7, 50, 53
3, 34721, Control_c, 7, 64, 127
3, 34806, Note_on_c, 7, 50, 0
3, 34807, Note_on_c, 7, 40, 0
3, 34830, Note_on_c, 7, 38, 96
3, 34833, Control_c, 7, 64, 0
3, 34844, Control_c, 7, 64, 127
3, 34894, Note_on_c, 7, 45, 58
3, 34912, Note_on_c, 7, 38, 0
3, 34959, Note_on_c, 7, 57, 73
3, 34961, Note_on_c, 7, 53, 55
3, 35089, Note_on_c, 7, 45, 0
3, 35094, Note_on_c, 7, 57, 0
3, 35108, Note_on_c, 7, 53, 0
3, 35142, Note_on_c, 7, 38, 50
3, 35147, Note_on_c, 7, 45, 48
3, 35226, Note_on_c, 7, 38, 0
3, 35235, Note_on_c, 7, 45, 0
3, 35257, Note_on_c, 7, 45, 47
3, 35258, Note_on_c, 7, 38, 58
3, 35341, Note_on_c, 7, 38, 0
3, 35343, Note_on_c, 7, 45, 0
3, 35364, Note_on_c, 7, 38, 48
3, 35368, Note_on_c, 7, 45, 48
3, 35453, Note_on_c, 7, 45, 0
3, 35461, Note_on_c, 7, 38, 0
3, 35487, Control_c, 7, 64, 0
3, 35504, Control_c, 7, 64, 127
3, 35587, Control_c, 7, 64, 1
3, 35589, Note_on_c, 7, 48, 49
3, 35593, Note_on_c, 7, 57, 50
3, 35594, Note_on_c, 7, 60, 52
3, 35607, Control_c, 7, 64, 127
3, 35690, Note_on_c, 7, 57, 0
3, 35697, Note_on_c, 7, 48, 0
3, 35698, Note_on_c, 7, 60, 0
3, 35707, Control_c, 7, 64, 0
3, 35710, Note_on_c, 7, 47, 60
3, 35714, Note_on_c, 7, 57, 45
3, 35722, Control_c, 7, 64, 127
3, 35816, Note_on_c, 7, 47, 0
3, 35817, Note_on_c, 7, 57, 0
3, 35826, Note_on_c, 7, 57, 39
3, 35827, Note_on_c, 7, 47, 59
3, 35827, Note_on_c, 7, 55, 70
3, 35997, Note_on_c, 7, 47, 0
3, 35999, Note_on_c, 7, 55, 0
3, 36002, Note_on_c, 7, 57, 0
3, 36025, Note_on_c, 7, 57, 39
3, 36026, Note_on_c, 7, 47, 59
3, 36026, Note_on_c, 7, 55, 70
3, 36124, Note_on_c, 7, 47, 0
3, 36126, Note_on_c, 7, 55, 0
3, 36129, Note_on_c, 7, 57, 0
3, 36139, Note_on_c, 7, 56, 47
3, 36139, Note_on_c, 7, 48, 48
3, 36140, Note_on_c, 7, 59, 48
3, 36144, Control_c, 7, 64, 2
3, 36161, Control_c, 7, 64, 127
3, 36253, Note_on_c, 7, 48, 0
3, 36253, Note_on_c, 7, 56, 0
3, 36255, Note_on_c, 7, 59, 0
3, 36277, Note_on_c, 7, 56, 49
3, 36277, Note_on_c, 7, 59, 52
3, 36278, Note_on_c, 7, 48, 56
3, 36463, Note_on_c, 7, 48, 0
3, 36467, Note_on_c, 7, 56, 0
3, 36471, Note_on_c, 7, 59, 0
3, 36482, Note_on_c, 7, 59, 39
3, 36483, Note_on_c, 7, 48, 59
3, 36483, Note_on_c, 7, 55, 70
3, 36586, Note_on_c, 7, 48, 0
3, 36588, Note_on_c, 7, 55, 0
3, 36591, Note_on_c, 7, 59, 0
3, 36605, Control_c, 7, 64, 2
3, 36612, Note_on_c, 7, 55, 57
3, 36612, Note_on_c, 7, 60, 46
3, 36612, Note_on_c, 7, 53, 48
3, 36612, Note_on_c, 7, 64, 58
3, 36652, Control_c, 7, 64, 127
3, 36726, Note_on_c, 7, 53, 0
3, 36726, Note_on_c, 7, 60, 0
3, 36727, Note_on_c, 7, 64, 0
3, 36731, Note_on_c, 7, 55, 0
3, 36743, Note_on_c, 7, 53, 52
3, 36743, Note_on_c, 7, 55, 55
3, 36743, Note_on_c, 7, 64, 58
3, 36743, Note_on_c, 7, 60, 51
3, 36926, Note_on_c, 7, 53, 0
3, 36927, Note_on_c, 7, 55, 0
3, 36927, Note_on_c, 7, 60, 0
3, 36928, Note_on_c, 7, 64, 0
3, 36929, Control_c, 7, 64, 0
3, 36936, Note_on_c, 7, 55, 57
3, 36936, Note_on_c, 7, 60, 46
3, 36937, Note_on_c, 7, 52, 48
3, 36937, Note_on_c, 7, 62, 58
3, 36946, Control_c, 7, 64, 127
3, 37050, Note_on_c, 7, 52, 0
3, 37051, Note_on_c, 7, 62, 0
3, 37051, Note_on_c, 7, 60, 0
3, 37051, Control_c, 7, 64, 0
3, 37056, Note_on_c, 7, 55, 0
3, 37061, Note_on_c, 7, 57, 75
3, 37061, Note_on_c, 7, 53, 54
3, 37061, Note_on_c, 7, 50, 53
3, 37062, Note_on_c, 7, 60, 52
3, 37074, Control_c, 7, 64, 127
3, 37153, Note_on_c, 7, 60, 0
3, 37153, Note_on_c, 7, 53, 0
3, 37154, Note_on_c, 7, 50, 0
3, 37154, Note_on_c, 7, 57, 0
3, 37177, Note_on_c, 7, 57, 56
3, 37177, Note_on_c, 7, 50, 52
3, 37177, Note_on_c, 7, 60, 42
3, 37179, Note_on_c, 7, 53, 53
3, 37399, Note_on_c, 7, 60, 0
3, 37401, Note_on_c, 7, 57, 0
3, 37401, Note_on_c, 7, 50, 0
3, 37405, Note_on_c, 7, 53, 0
3, 37413, Control_c, 7, 64, 2
3, 37415, Note_on_c, 7, 62, 53
3, 37416, Note_on_c, 7, 55, 61
3, 37426, Control_c, 7, 64, 127
3, 37520, Note_on_c, 7, 62, 0
3, 37527, Note_on_c, 7, 55, 0
3, 37539, Control_c, 7, 64, 0
3, 37546, Note_on_c, 7, 59, 53
3, 37546, Note_on_c, 7, 48, 57
3, 37546, Note_on_c, 7, 55, 65
3, 37571, Control_c, 7, 64, 127
3, 37624, Note_on_c, 7, 48, 0
3, 37626, Note_on_c, 7, 55, 0
3, 37629, Note_on_c, 7, 59, 0
3, 37670, Note_on_c, 7, 48, 44
3, 37670, Note_on_c, 7, 60, 49
3, 37670, Note_on_c, 7, 55, 67
3, 37868, Note_on_c, 7, 55, 0
3, 37869, Note_on_c, 7, 48, 0
3, 37871, Note_on_c, 7, 60, 0
3, 37886, Control_c, 7, 64, 0
3, 37889, Note_on_c, 7, 48, 52
3, 37889, Note_on_c, 7, 52, 58
3, 37889, Note_on_c, 7, 59, 49
3, 37889, Note_on_c, 7, 55, 57
3, 37912, Control_c, 7, 64, 127
3, 37995, Note_on_c, 7, 55, 0
3, 37996, Note_on_c, 7, 48, 0
3, 37996, Note_on_c, 7, 52, 0
3, 37997, Note_on_c, 7, 59, 0
3, 38003, Note_on_c, 7, 59, 53
3, 38003, Note_on_c, 7, 52, 49
3, 38003, Note_on_c, 7, 55, 53
3, 38003, Note_on_c, 7, 48, 47
3, 38052, Control_c, 7, 64, 0
3, 38077, Control_c, 7, 64, 127
3, 38109, Note_on_c, 7, 55, 0
3, 38109, Note_on_c, 7, 59, 0
3, 38110, Note_on_c, 7, 52, 0
3, 38112, Note_on_c, 7, 48, 0
3, 38121, Note_on_c, 7, 48, 52
3, 38122, Note_on_c, 7, 52, 49
3, 38122, Note_on_c, 7, 55, 50
3, 38123, Note_on_c, 7, 59, 49
3, 38225, Control_c, 7, 64, 0
3, 38246, Control_c, 7, 64, 127
3, 38323, Note_on_c, 7, 55, 0
3, 38323, Note_on_c, 7, 48, 0
3, 38324, Note_on_c, 7, 52, 0
3, 38324, Note_on_c, 7, 59, 0
3, 38326, Control_c, 7, 64, 0
3, 38334, Note_on_c, 7, 47, 69
3, 38341, Note_on_c, 7, 57, 59
3, 38354, Control_c, 7, 64, 127
3, 38433, Note_on_c, 7, 57, 0
3, 38434, Note_on_c, 7, 47, 0
3, 38442, Control_c, 7, 64, 0
3, 38446, Note_on_c, 7, 45, 68
3, 38456, Note_on_c, 7, 55, 52
3, 38465, Control_c, 7, 64, 127
3, 38565, Note_on_c, 7, 55, 0
3, 38570, Note_on_c, 7, 45, 0
3, 38585, Note_on_c, 7, 55, 48
3, 38746, Note_on_c, 7, 55, 0
3, 38763, Note_on_c, 7, 55, 40
3, 38764, Note_on_c, 7, 59, 49
3, 38868, Note_on_c, 7, 59, 0
3, 38871, Note_on_c, 7, 55, 0
3, 38878, Note_on_c, 7, 55, 40
3, 38879, Note_on_c, 7, 59, 49
3, 38983, Note_on_c, 7, 59, 0
3, 38986, Note_on_c, 7, 55, 0
3, 38997, Note_on_c, 7, 55, 40
3, 38998, Note_on_c, 7, 59, 49
3, 39086, Control_c, 7, 64, 0
3, 39088, Note_on_c, 7, 59, 0
3, 39089, Note_on_c, 7, 45, 78
3, 39091, Note_on_c, 7, 55, 0
3, 39102, Control_c, 7, 64, 127
3, 39114, Note_on_c, 7, 57, 86
3, 39198, Note_on_c, 7, 45, 0
3, 39199, Note_on_c, 7, 57, 0
3, 39209, Control_c, 7, 64, 0
3, 39212, Note_on_c, 7, 43, 52
3, 39218, Note_on_c, 7, 48, 44
3, 39222, Control_c, 7, 64, 127
3, 39224, Note_on_c, 7, 52, 49
3, 39228, Note_on_c, 7, 55, 55
3, 39321, Note_on_c, 7, 43, 0
3, 39322, Note_on_c, 7, 52, 0
3, 39324, Note_on_c, 7, 55, 0
3, 39325, Note_on_c, 7, 48, 0
3, 39371, Control_c, 7, 64, 1
3, 39373, Note_on_c, 7, 42, 45
3, 39373, Note_on_c, 7, 54, 53
3, 39373, Note_on_c, 7, 48, 65
3, 39389, Control_c, 7, 64, 127
3, 39466, Note_on_c, 7, 42, 0
3, 39469, Note_on_c, 7, 54, 0
3, 39470, Note_on_c, 7, 48, 0
3, 39495, Note_on_c, 7, 48, 61
3, 39495, Note_on_c, 7, 54, 48
3, 39497, Note_on_c, 7, 42, 49
3, 39641, Note_on_c, 7, 42, 0
3, 39657, Note_on_c, 7, 48, 0
3, 39662, Note_on_c, 7, 54, 0
3, 39663, Control_c, 7, 64, 1
3, 39665, Note_on_c, 7, 42, 60
3, 39678, Note_on_c, 7, 48, 75
3, 39680, Control_c, 7, 64, 127
3, 39688, Note_on_c, 7, 51, 69
3, 39695, Note_on_c, 7, 54, 59
3, 39766, Note_on_c, 7, 42, 0
3, 39792, Control_c, 7, 64, 0
3, 39794, Note_on_c, 7, 48, 0
3, 39794, Note_on_c, 7, 51, 0
3, 39798, Note_on_c, 7, 43, 62
3, 39803, Note_on_c, 7, 54, 0
3, 39807, Note_on_c, 7, 51, 60
3, 39809, Control_c, 7, 64, 126
3, 39819, Note_on_c, 7, 54, 60
3, 39825, Note_on_c, 7, 66, 54
3, 39829, Note_on_c, 7, 72, 107
3, 39910, Note_on_c, 7, 51, 0
3, 39915, Note_on_c, 7, 54, 0
3, 39918, Note_on_c, 7, 66, 0
3, 39920, Note_on_c, 7, 54, 46
3, 39922, Note_on_c, 7, 51, 56
3, 39980, Control_c, 7, 64, 0
3, 39981, Note_on_c, 7, 72, 0
3, 39999, Control_c, 7, 64, 127
3, 40010, Note_on_c, 7, 43, 0
3, 40025, Note_on_c, 7, 54, 0
3, 40029, Note_on_c, 7, 51, 0
3, 40043, Note_on_c, 7, 52, 57
3, 40044, Note_on_c, 7, 43, 64
3, 40044, Note_on_c, 7, 55, 62
3, 40046, Control_c, 7, 64, 0
3, 40061, Control_c, 7, 64, 127
3, 40142, Note_on_c, 7, 52, 0
3, 40148, Note_on_c, 7, 55, 0
3, 40158, Note_on_c, 7, 55, 74
3, 40159, Note_on_c, 7, 43, 0
3, 40293, Note_on_c, 7, 55, 0
3, 40306, Control_c, 7, 64, 0
3, 40315, Note_on_c, 7, 57, 69
3, 40316, Note_on_c, 7, 64, 69
3, 40316, Note_on_c, 7, 67, 80
3, 40316, Note_on_c, 7, 60, 58
3, 40332, Control_c, 7, 64, 127
3, 40433, Note_on_c, 7, 60, 0
3, 40433, Note_on_c, 7, 57, 0
3, 40434, Note_on_c, 7, 64, 0
3, 40435, Note_on_c, 7, 67, 0
3, 40449, Note_on_c, 7, 60, 75
3, 40449, Note_on_c, 7, 67, 92
3, 40449, Note_on_c, 7, 64, 69
3, 40449, Note_on_c, 7, 57, 86
3, 40538, Note_on_c, 7, 60, 0
3, 40544, Note_on_c, 7, 57, 0
3, 40548, Control_c, 7, 64, 0
3, 40551, Note_on_c, 7, 62, 61
3, 40552, Note_on_c, 7, 67, 0
3, 40552, Note_on_c, 7, 60, 56
3, 40556, Note_on_c, 7, 64, 0
3, 40562, Note_on_c, 7, 66, 48
3, 40564, Note_on_c, 7, 69, 100
3, 40565, Note_on_c, 7, 72, 86
3, 40574, Control_c, 7, 64, 127
3, 40661, Note_on_c, 7, 72, 0
3, 40662, Note_on_c, 7, 60, 0
3, 40662, Note_on_c, 7, 69, 0
3, 40663, Note_on_c, 7, 66, 0
3, 40664, Note_on_c, 7, 62, 0
3, 40674, Note_on_c, 7, 60, 56
3, 40674, Note_on_c, 7, 62, 64
3, 40674, Note_on_c, 7, 72, 60
3, 40674, Note_on_c, 7, 66, 46
3, 40674, Note_on_c, 7, 76, 48
3, 40674, Note_on_c, 7, 69, 69
3, 40746, Note_on_c, 7, 60, 0
3, 40750, Note_on_c, 7, 62, 0
3, 40756, Control_c, 7, 64, 0
3, 40765, Note_on_c, 7, 69, 0
3, 40766, Note_on_c, 7, 66, 0
3, 40766, Note_on_c, 7, 72, 0
3, 40767, Note_on_c, 7, 59, 64
3, 40768, Note_on_c, 7, 62, 67
3, 40774, Note_on_c, 7, 76, 0
3, 40779, Note_on_c, 7, 66, 47
3, 40781, Control_c, 7, 64, 127
3, 40784, Note_on_c, 7, 69, 75
3, 40885, Note_on_c, 7, 69, 0
3, 40886, Note_on_c, 7, 59, 0
3, 40887, Note_on_c, 7, 62, 0
3, 40888, Note_on_c, 7, 66, 0
3, 40898, Note_on_c, 7, 69, 89
3, 40899, Note_on_c, 7, 59, 60
3, 40899, Note_on_c, 7, 62, 73
3, 40899, Note_on_c, 7, 66, 49
3, 40963, Note_on_c, 7, 69, 0
3, 40968, Note_on_c, 7, 66, 0
3, 40971, Note_on_c, 7, 62, 0
3, 40975, Note_on_c, 7, 59, 0
3, 40983, Control_c, 7, 64, 0
3, 40985, Note_on_c, 7, 60, 46
3, 40985, Note_on_c, 7, 64, 64
3, 40995, Note_on_c, 7, 67, 65
3, 41002, Control_c, 7, 64, 127
3, 41005, Note_on_c, 7, 71, 61
3, 41107, Note_on_c, 7, 60, 0
3, 41108, Note_on_c, 7, 64, 0
3, 41108, Note_on_c, 7, 67, 0
3, 41109, Note_on_c, 7, 71, 0
3, 41135, Note_on_c, 7, 60, 56
3, 41135, Note_on_c, 7, 64, 59
3, 41136, Note_on_c, 7, 67, 58
3, 41136, Note_on_c, 7, 71, 41
3, 41214, Note_on_c, 7, 71, 0
3, 41214, Note_on_c, 7, 67, 0
3, 41214, Note_on_c, 7, 64, 0
3, 41218, Note_on_c, 7, 60, 0
3, 41221, Control_c, 7, 64, 3
3, 41224, Note_on_c, 7, 61, 53
3, 41224, Note_on_c, 7, 58, 51
3, 41234, Note_on_c, 7, 64, 52
3, 41240, Note_on_c, 7, 67, 65
3, 41269, Control_c, 7, 64, 127
3, 41328, Note_on_c, 7, 58, 0
3, 41331, Note_on_c, 7, 61, 0
3, 41332, Note_on_c, 7, 64, 0
3, 41332, Note_on_c, 7, 67, 0
3, 41355, Note_on_c, 7, 58, 57
3, 41355, Note_on_c, 7, 61, 49
3, 41355, Note_on_c, 7, 64, 75
3, 41356, Note_on_c, 7, 67, 64
3, 41456, Note_on_c, 7, 58, 0
3, 41457, Note_on_c, 7, 64, 0
3, 41458, Note_on_c, 7, 61, 0
3, 41459, Note_on_c, 7, 67, 0
3, 41465, Control_c, 7, 64, 0
3, 41474, Note_on_c, 7, 63, 33
3, 41475, Note_on_c, 7, 66, 34
3, 41475, Note_on_c, 7, 60, 51
3, 41476, Note_on_c, 7, 57, 55
3, 41487, Control_c, 7, 64, 127
3, 41565, Note_on_c, 7, 63, 0
3, 41568, Note_on_c, 7, 57, 0
3, 41569, Note_on_c, 7, 60, 0
3, 41571, Note_on_c, 7, 66, 0
3, 41593, Note_on_c, 7, 57, 73
3, 41594, Note_on_c, 7, 60, 59
3, 41594, Note_on_c, 7, 63, 37
3, 41594, Note_on_c, 7, 66, 33
3, 41736, Note_on_c, 7, 66, 0
3, 41738, Note_on_c, 7, 63, 0
3, 41740, Note_on_c, 7, 60, 0
3, 41745, Note_on_c, 7, 57, 0
3, 41754, Control_c, 7, 64, 1
3, 41759, Note_on_c, 7, 59, 55
3, 41759, Note_on_c, 7, 63, 45
3, 41759, Note_on_c, 7, 56, 56
3, 41759, Note_on_c, 7, 64, 49
3, 41776, Control_c, 7, 64, 127
3, 41873, Note_on_c, 7, 56, 0
3, 41875, Note_on_c, 7, 63, 0
3, 41876, Note_on_c, 7, 64, 0
3, 41878, Note_on_c, 7, 59, 0
3, 41885, Note_on_c, 7, 56, 49
3, 41885, Note_on_c, 7, 63, 46
3, 41885, Note_on_c, 7, 59, 48
3, 41885, Note_on_c, 7, 64, 49
3, 42035, Control_c, 7, 64, 1
3, 42050, Control_c, 7, 64, 127
3, 42071, Note_on_c, 7, 56, 0
3, 42072, Note_on_c, 7, 63, 0
3, 42072, Note_on_c, 7, 64, 0
3, 42073, Note_on_c, 7, 59, 0
3, 42095, Note_on_c, 7, 63, 44
3, 42095, Note_on_c, 7, 59, 57
3, 42096, Note_on_c, 7, 56, 44
3, 42096, Note_on_c, 7, 64, 46
3, 42153, Control_c, 7, 64, 0
3, 42172, Control_c, 7, 64, 127
3, 42189, Note_on_c, 7, 63, 0
3, 42192, Note_on_c, 7, 59, 0
3, 42192, Note_on_c, 7, 64, 0
3, 42193, Note_on_c, 7, 56, 0
3, 42210, Control_c, 7, 64, 0
3, 42216, Note_on_c, 7, 63, 49
3, 42217, Note_on_c, 7, 59, 62
3, 42217, Note_on_c, 7, 56, 51
3, 42217, Note_on_c, 7, 64, 52
3, 42236, Control_c, 7, 64, 127
3, 42308, Note_on_c, 7, 63, 0
3, 42309, Note_on_c, 7, 56, 0
3, 42311, Note_on_c, 7, 59, 0
3, 42312, Note_on_c, 7, 64, 0
3, 42335, Note_on_c, 7, 63, 50
3, 42335, Note_on_c, 7, 59, 67
3, 42336, Note_on_c, 7, 56, 53
3, 42336, Note_on_c, 7, 64, 52
3, 42503, Note_on_c, 7, 63, 0
3, 42505, Note_on_c, 7, 59, 0
3, 42505, Note_on_c, 7, 56, 0
3, 42508, Note_on_c, 7, 64, 0
3, 42529, Control_c, 7, 64, 1
3, 42530, Note_on_c, 7, 56, 46
3, 42530, Note_on_c, 7, 59, 56
3, 42531, Note_on_c, 7, 63, 42
3, 42531, Note_on_c, 7, 64, 39
3, 42548, Control_c, 7, 64, 127
3, 42590, Note_on_c, 7, 56, 0
3, 42594, Note_on_c, 7, 59, 0
3, 42595, Note_on_c, 7, 63, 0
3, 42596, Note_on_c, 7, 64, 0
3, 42643, Control_c, 7, 64, 0
3, 42649, Note_on_c, 7, 56, 44
3, 42649, Note_on_c, 7, 63, 41
3, 42649, Note_on_c, 7, 64, 47
3, 42649, Note_on_c, 7, 59, 60
3, 42666, Control_c, 7, 64, 127
3, 42713, Note_on_c, 7, 56, 0
3, 42717, Note_on_c, 7, 63, 0
3, 42718, Note_on_c, 7, 64, 0
3, 42718, Note_on_c, 7, 59, 0
3, 42761, Note_on_c, 7, 63, 37
3, 42762, Note_on_c, 7, 59, 55
3, 42762, Note_on_c, 7, 64, 39
3, 42762, Note_on_c, 7, 56, 39
3, 42909, Note_on_c, 7, 56, 0
3, 42913, Note_on_c, 7, 63, 0
3, 42913, Note_on_c, 7, 59, 0
3, 42915, Note_on_c, 7, 64, 0
3, 42967, Control_c, 7, 64, 0
3, 42970, Note_on_c, 7, 59, 50
3, 42971, Note_on_c, 7, 64, 37
3, 42971, Note_on_c, 7, 63, 33
3, 42971, Note_on_c, 7, 56, 34
3, 42988, Control_c, 7, 64, 127
3, 43040, Note_on_c, 7, 56, 0
3, 43043, Note_on_c, 7, 63, 0
3, 43045, Note_on_c, 7, 59, 0
3, 43046, Note_on_c, 7, 64, 0
3, 43085, Control_c, 7, 64, 0
3, 43090, Note_on_c, 7, 64, 52
3, 43090, Note_on_c, 7, 56, 37
3, 43090, Note_on_c, 7, 63, 37
3, 43090, Note_on_c, 7, 59, 52
3, 43103, Control_c, 7, 64, 127
3, 43156, Note_on_c, 7, 56, 0
3, 43157, Note_on_c, 7, 59, 0
3, 43157, Note_on_c, 7, 63, 0
3, 43166, Note_on_c, 7, 64, 0
3, 43225, Note_on_c, 7, 56, 35
3, 43225, Note_on_c, 7, 63, 34
3, 43225, Note_on_c, 7, 64, 32
3, 43225, Note_on_c, 7, 59, 50
3, 43385, Note_on_c, 7, 63, 0
3, 43385, Note_on_c, 7, 56, 0
3, 43387, Note_on_c, 7, 64, 0
3, 43388, Note_on_c, 7, 59, 0
3, 43451, Note_on_c, 7, 59, 44
3, 43452, Note_on_c, 7, 64, 32
3, 43452, Note_on_c, 7, 56, 31
3, 43452, Note_on_c, 7, 63, 28
3, 43525, Note_on_c, 7, 56, 0
3, 43530, Note_on_c, 7, 63, 0
3, 43530, Note_on_c, 7, 59, 0
3, 43532, Note_on_c, 7, 64, 0
3, 43569, Note_on_c, 7, 59, 47
3, 43570, Note_on_c, 7, 56, 29
3, 43570, Note_on_c, 7, 63, 35
3, 43570, Note_on_c, 7, 64, 40
3, 43635, Note_on_c, 7, 56, 0
3, 43637, Note_on_c, 7, 63, 0
3, 43639, Note_on_c, 7, 59, 0
3, 43640, Note_on_c, 7, 64, 0
3, 43699, Note_on_c, 7, 63, 33
3, 43699, Note_on_c, 7, 64, 35
3, 43699, Note_on_c, 7, 56, 41
3, 43700, Note_on_c, 7, 59, 48
3, 43862, Note_on_c, 7, 56, 0
3, 43864, Note_on_c, 7, 63, 0
3, 43864, Note_on_c, 7, 64, 0
3, 43865, Note_on_c, 7, 59, 0
3, 43940, Note_on_c, 7, 63, 34
3, 43940, Note_on_c, 7, 56, 38
3, 43940, Note_on_c, 7, 64, 40
3, 43940, Note_on_c, 7, 59, 46
3, 44033, Note_on_c, 7, 56, 0
3, 44037, Note_on_c, 7, 59, 0
3, 44038, Note_on_c, 7, 63, 0
3, 44040, Note_on_c, 7, 64, 0
3, 44070, Note_on_c, 7, 59, 32
3, 44070, Note_on_c, 7, 63, 23
3, 44070, Note_on_c, 7, 64, 24
3, 44070, Note_on_c, 7, 56, 23
3, 44138, Note_on_c, 7, 56, 0
3, 44143, Note_on_c, 7, 59, 0
3, 44144, Note_on_c, 7, 63, 0
3, 44149, Note_on_c, 7, 64, 0
3, 44221, Note_on_c, 7, 56, 23
3, 44221, Note_on_c, 7, 64, 31
3, 44222, Note_on_c, 7, 59, 44
3, 44222, Note_on_c, 7, 63, 26
3, 44404, Note_on_c, 7, 56, 0
3, 44406, Note_on_c, 7, 64, 0
3, 44406, Note_on_c, 7, 63, 0
3, 44410, Note_on_c, 7, 59, 0
3, 44486, Note_on_c, 7, 59, 20
3, 44486, Note_on_c, 7, 56, 17
3, 44486, Note_on_c, 7, 64, 24
3, 44486, Note_on_c, 7, 63, 20
3, 45360, Note_on_c, 7, 63, 0
3, 45360, Note_on_c, 7, 59, 0
3, 45360, Note_on_c, 7, 56, 0
3, 45360, Note_on_c, 7, 64, 0
3, 45601, Control_c, 7, 64, 0
3, 45601, End_track
0, 0, End_of_file
