0, 0, Header, 1, 14, 480
1, 0, Start_track
1, 0, Text_t, "Generated by NoteWorthy 1.0"
1, 0, Tempo, 384615
1, 0, Time_signature, 4, 2, 24, 8
1, 0, Key_signature, 0, "major"
1, 48000, Tempo, 405405
1, 54480, Tempo, 384615
1, 55680, Tempo, 405405
1, 62160, Tempo, 384615
1, 63360, Tempo, 405405
1, 69840, Tempo, 384615
1, 124800, Tempo, 405405
1, 131272, Tempo, 384615
1, 132480, Tempo, 405405
1, 138952, Tempo, 384615
1, 140160, Tempo, 405405
1, 146632, Tempo, 384615
1, 146632, End_track
2, 0, Start_track
2, 0, Title_t, "MELODY"
2, 0, MIDI_port, 0
2, 0, Channel_prefix, 0
2, 0, Control_c, 0, 7, 127
2, 0, Control_c, 0, 10, 64
2, 0, Program_c, 0, 39
2, 15840, Control_c, 0, 93, 127
2, 15840, Control_c, 0, 91, 127
2, 15840, Note_on_c, 0, 59, 120
2, 16480, Note_off_c, 0, 59, 64
2, 16560, Note_on_c, 0, 57, 120
2, 16795, Note_off_c, 0, 57, 64
2, 16800, Note_on_c, 0, 57, 120
2, 17200, Note_off_c, 0, 57, 64
2, 17280, Note_on_c, 0, 57, 120
2, 17680, Note_off_c, 0, 57, 64
2, 17760, Note_on_c, 0, 57, 120
2, 18160, Note_off_c, 0, 57, 64
2, 18240, Note_on_c, 0, 57, 120
2, 18475, Note_off_c, 0, 57, 64
2, 18480, Note_on_c, 0, 55, 120
2, 18715, Note_off_c, 0, 55, 64
2, 18720, Note_on_c, 0, 52, 120
2, 18955, Note_off_c, 0, 52, 64
2, 18960, Note_on_c, 0, 50, 120
2, 19195, Note_off_c, 0, 50, 64
2, 19440, Note_on_c, 0, 59, 120
2, 19675, Note_off_c, 0, 59, 64
2, 19680, Note_on_c, 0, 59, 120
2, 19915, Note_off_c, 0, 59, 64
2, 19920, Note_on_c, 0, 59, 120
2, 20560, Note_off_c, 0, 59, 64
2, 20640, Note_on_c, 0, 57, 120
2, 20875, Note_off_c, 0, 57, 64
2, 20880, Note_on_c, 0, 57, 120
2, 21115, Note_off_c, 0, 57, 64
2, 21120, Note_on_c, 0, 57, 120
2, 21600, Note_off_c, 0, 57, 80
2, 21600, Note_on_c, 0, 57, 120
2, 22000, Note_off_c, 0, 57, 64
2, 22080, Note_on_c, 0, 57, 120
2, 22315, Note_off_c, 0, 57, 64
2, 22320, Note_on_c, 0, 55, 120
2, 22555, Note_off_c, 0, 55, 64
2, 22560, Note_on_c, 0, 52, 120
2, 22795, Note_off_c, 0, 52, 64
2, 22800, Note_on_c, 0, 62, 120
2, 23035, Note_off_c, 0, 62, 64
2, 23040, Note_on_c, 0, 57, 120
2, 23275, Note_off_c, 0, 57, 64
2, 23280, Note_on_c, 0, 59, 120
2, 23920, Note_off_c, 0, 59, 64
2, 24240, Note_on_c, 0, 57, 120
2, 24475, Note_off_c, 0, 57, 64
2, 24480, Note_on_c, 0, 57, 120
2, 24715, Note_off_c, 0, 57, 64
2, 24720, Note_on_c, 0, 57, 120
2, 24955, Note_off_c, 0, 57, 64
2, 24960, Note_on_c, 0, 57, 120
2, 25360, Note_off_c, 0, 57, 64
2, 25440, Note_on_c, 0, 57, 120
2, 25675, Note_off_c, 0, 57, 64
2, 25680, Note_on_c, 0, 57, 120
2, 25915, Note_off_c, 0, 57, 64
2, 25920, Note_on_c, 0, 57, 120
2, 26155, Note_off_c, 0, 57, 64
2, 26160, Note_on_c, 0, 55, 120
2, 26395, Note_off_c, 0, 55, 64
2, 26400, Note_on_c, 0, 52, 120
2, 26635, Note_off_c, 0, 52, 64
2, 26640, Note_on_c, 0, 59, 120
2, 26875, Note_off_c, 0, 59, 64
2, 26880, Note_on_c, 0, 59, 120
2, 27280, Note_off_c, 0, 59, 64
2, 27360, Note_on_c, 0, 59, 120
2, 27595, Note_off_c, 0, 59, 64
2, 27600, Note_on_c, 0, 59, 120
2, 27835, Note_off_c, 0, 59, 64
2, 27840, Note_on_c, 0, 59, 120
2, 28075, Note_off_c, 0, 59, 64
2, 28080, Note_on_c, 0, 57, 120
2, 28315, Note_off_c, 0, 57, 64
2, 28320, Note_on_c, 0, 55, 120
2, 28555, Note_off_c, 0, 55, 64
2, 28560, Note_on_c, 0, 57, 120
2, 29035, Note_off_c, 0, 57, 64
2, 29040, Note_on_c, 0, 55, 120
2, 29680, Note_off_c, 0, 55, 64
2, 31200, Note_on_c, 0, 59, 120
2, 31840, Note_off_c, 0, 59, 64
2, 31920, Note_on_c, 0, 57, 120
2, 32155, Note_off_c, 0, 57, 64
2, 32160, Note_on_c, 0, 57, 120
2, 32395, Note_off_c, 0, 57, 64
2, 32400, Note_on_c, 0, 57, 120
2, 32635, Note_off_c, 0, 57, 64
2, 32640, Note_on_c, 0, 57, 120
2, 32875, Note_off_c, 0, 57, 64
2, 32880, Note_on_c, 0, 57, 120
2, 33115, Note_off_c, 0, 57, 64
2, 33120, Note_on_c, 0, 57, 120
2, 33355, Note_off_c, 0, 57, 64
2, 33360, Note_on_c, 0, 57, 120
2, 33595, Note_off_c, 0, 57, 64
2, 33600, Note_on_c, 0, 57, 120
2, 33835, Note_off_c, 0, 57, 64
2, 33840, Note_on_c, 0, 55, 120
2, 34075, Note_off_c, 0, 55, 64
2, 34080, Note_on_c, 0, 52, 120
2, 34315, Note_off_c, 0, 52, 64
2, 34320, Note_on_c, 0, 50, 120
2, 34555, Note_off_c, 0, 50, 64
2, 34560, Note_on_c, 0, 59, 120
2, 34795, Note_off_c, 0, 59, 64
2, 34800, Note_on_c, 0, 59, 120
2, 35275, Note_off_c, 0, 59, 64
2, 35280, Note_on_c, 0, 59, 120
2, 35755, Note_off_c, 0, 59, 64
2, 35760, Note_on_c, 0, 57, 120
2, 35995, Note_off_c, 0, 57, 64
2, 36000, Note_on_c, 0, 57, 120
2, 36235, Note_off_c, 0, 57, 64
2, 36240, Note_on_c, 0, 57, 120
2, 36475, Note_off_c, 0, 57, 64
2, 36480, Note_on_c, 0, 57, 120
2, 36880, Note_off_c, 0, 57, 64
2, 36960, Note_on_c, 0, 57, 120
2, 37360, Note_off_c, 0, 57, 64
2, 37440, Note_on_c, 0, 57, 120
2, 37675, Note_off_c, 0, 57, 64
2, 37680, Note_on_c, 0, 55, 120
2, 37915, Note_off_c, 0, 55, 64
2, 37920, Note_on_c, 0, 52, 120
2, 38155, Note_off_c, 0, 52, 64
2, 38160, Note_on_c, 0, 62, 120
2, 38635, Note_off_c, 0, 62, 64
2, 38640, Note_on_c, 0, 59, 120
2, 39280, Note_off_c, 0, 59, 64
2, 39600, Note_on_c, 0, 57, 120
2, 39835, Note_off_c, 0, 57, 64
2, 39840, Note_on_c, 0, 57, 120
2, 40075, Note_off_c, 0, 57, 64
2, 40080, Note_on_c, 0, 57, 120
2, 40315, Note_off_c, 0, 57, 64
2, 40320, Note_on_c, 0, 57, 120
2, 40720, Note_off_c, 0, 57, 64
2, 40800, Note_on_c, 0, 57, 120
2, 41035, Note_off_c, 0, 57, 64
2, 41040, Note_on_c, 0, 57, 120
2, 41275, Note_off_c, 0, 57, 64
2, 41280, Note_on_c, 0, 57, 120
2, 41515, Note_off_c, 0, 57, 64
2, 41520, Note_on_c, 0, 55, 120
2, 41755, Note_off_c, 0, 55, 64
2, 41760, Note_on_c, 0, 52, 120
2, 41995, Note_off_c, 0, 52, 64
2, 42000, Note_on_c, 0, 59, 120
2, 42640, Note_off_c, 0, 59, 64
2, 42720, Note_on_c, 0, 59, 120
2, 43120, Note_off_c, 0, 59, 64
2, 43200, Note_on_c, 0, 59, 120
2, 43435, Note_off_c, 0, 59, 64
2, 43440, Note_on_c, 0, 57, 120
2, 43675, Note_off_c, 0, 57, 64
2, 43680, Note_on_c, 0, 55, 120
2, 43915, Note_off_c, 0, 55, 64
2, 43920, Note_on_c, 0, 57, 120
2, 44395, Note_off_c, 0, 57, 64
2, 44400, Note_on_c, 0, 55, 120
2, 45040, Note_off_c, 0, 55, 64
2, 46320, Note_on_c, 0, 59, 120
2, 46555, Note_off_c, 0, 59, 64
2, 46560, Note_on_c, 0, 59, 120
2, 46795, Note_off_c, 0, 59, 64
2, 46800, Note_on_c, 0, 59, 120
2, 47035, Note_off_c, 0, 59, 64
2, 47040, Note_on_c, 0, 59, 120
2, 47275, Note_off_c, 0, 59, 64
2, 47280, Note_on_c, 0, 59, 120
2, 47515, Note_off_c, 0, 59, 64
2, 47520, Note_on_c, 0, 59, 120
2, 47755, Note_off_c, 0, 59, 64
2, 47760, Note_on_c, 0, 59, 120
2, 47995, Note_off_c, 0, 59, 64
2, 48000, Note_on_c, 0, 59, 120
2, 48640, Note_off_c, 0, 59, 64
2, 48720, Note_on_c, 0, 57, 120
2, 48955, Note_off_c, 0, 57, 64
2, 49440, Note_on_c, 0, 59, 120
2, 50155, Note_off_c, 0, 59, 64
2, 50160, Note_on_c, 0, 57, 120
2, 50395, Note_off_c, 0, 57, 64
2, 50640, Note_on_c, 0, 57, 120
2, 50875, Note_off_c, 0, 57, 64
2, 50880, Note_on_c, 0, 62, 120
2, 51280, Note_off_c, 0, 62, 64
2, 51360, Note_on_c, 0, 60, 120
2, 51760, Note_off_c, 0, 60, 64
2, 51840, Note_on_c, 0, 59, 120
2, 52240, Note_off_c, 0, 59, 64
2, 52320, Note_on_c, 0, 60, 120
2, 52555, Note_off_c, 0, 60, 64
2, 52560, Note_on_c, 0, 59, 120
2, 53035, Note_off_c, 0, 59, 64
2, 53040, Note_on_c, 0, 60, 120
2, 53275, Note_off_c, 0, 60, 64
2, 53280, Note_on_c, 0, 59, 120
2, 53515, Note_off_c, 0, 59, 64
2, 53520, Note_on_c, 0, 57, 120
2, 54160, Note_off_c, 0, 57, 64
2, 54480, Note_on_c, 0, 59, 120
2, 54715, Note_off_c, 0, 59, 64
2, 54720, Note_on_c, 0, 59, 120
2, 54955, Note_off_c, 0, 59, 64
2, 54960, Note_on_c, 0, 59, 120
2, 55195, Note_off_c, 0, 59, 64
2, 55200, Note_on_c, 0, 59, 120
2, 55435, Note_off_c, 0, 59, 64
2, 55440, Note_on_c, 0, 59, 120
2, 55675, Note_off_c, 0, 59, 64
2, 55680, Note_on_c, 0, 59, 120
2, 56320, Note_off_c, 0, 59, 64
2, 56400, Note_on_c, 0, 57, 120
2, 56635, Note_off_c, 0, 57, 64
2, 57120, Note_on_c, 0, 59, 120
2, 57835, Note_off_c, 0, 59, 64
2, 57840, Note_on_c, 0, 57, 120
2, 58480, Note_off_c, 0, 57, 64
2, 58560, Note_on_c, 0, 62, 120
2, 58960, Note_off_c, 0, 62, 64
2, 59040, Note_on_c, 0, 60, 120
2, 59440, Note_off_c, 0, 60, 64
2, 59520, Note_on_c, 0, 59, 120
2, 59920, Note_off_c, 0, 59, 64
2, 60000, Note_on_c, 0, 60, 120
2, 60235, Note_off_c, 0, 60, 64
2, 60240, Note_on_c, 0, 59, 120
2, 60715, Note_off_c, 0, 59, 64
2, 60720, Note_on_c, 0, 57, 120
2, 61195, Note_off_c, 0, 57, 64
2, 61200, Note_on_c, 0, 57, 120
2, 61435, Note_off_c, 0, 57, 64
2, 61440, Note_on_c, 0, 55, 120
2, 61840, Note_off_c, 0, 55, 64
2, 62160, Note_on_c, 0, 59, 120
2, 62395, Note_off_c, 0, 59, 64
2, 62400, Note_on_c, 0, 59, 120
2, 62635, Note_off_c, 0, 59, 64
2, 62640, Note_on_c, 0, 59, 120
2, 62875, Note_off_c, 0, 59, 64
2, 62880, Note_on_c, 0, 59, 120
2, 63115, Note_off_c, 0, 59, 64
2, 63120, Note_on_c, 0, 59, 120
2, 63355, Note_off_c, 0, 59, 64
2, 63360, Note_on_c, 0, 59, 120
2, 64000, Note_off_c, 0, 59, 64
2, 64080, Note_on_c, 0, 57, 120
2, 64315, Note_off_c, 0, 57, 64
2, 64800, Note_on_c, 0, 59, 120
2, 65515, Note_off_c, 0, 59, 64
2, 65520, Note_on_c, 0, 57, 120
2, 65755, Note_off_c, 0, 57, 64
2, 66000, Note_on_c, 0, 57, 120
2, 66235, Note_off_c, 0, 57, 64
2, 66240, Note_on_c, 0, 62, 120
2, 66640, Note_off_c, 0, 62, 64
2, 66720, Note_on_c, 0, 60, 120
2, 67120, Note_off_c, 0, 60, 64
2, 67200, Note_on_c, 0, 59, 120
2, 67600, Note_off_c, 0, 59, 64
2, 67680, Note_on_c, 0, 60, 120
2, 67915, Note_off_c, 0, 60, 64
2, 67920, Note_on_c, 0, 59, 120
2, 68395, Note_off_c, 0, 59, 64
2, 68400, Note_on_c, 0, 60, 120
2, 68635, Note_off_c, 0, 60, 64
2, 68640, Note_on_c, 0, 59, 120
2, 68875, Note_off_c, 0, 59, 64
2, 68880, Note_on_c, 0, 57, 120
2, 69520, Note_off_c, 0, 57, 64
2, 69840, Note_on_c, 0, 57, 120
2, 70075, Note_off_c, 0, 57, 64
2, 70080, Note_on_c, 0, 57, 120
2, 70315, Note_off_c, 0, 57, 64
2, 70320, Note_on_c, 0, 57, 120
2, 70555, Note_off_c, 0, 57, 64
2, 70560, Note_on_c, 0, 57, 120
2, 70795, Note_off_c, 0, 57, 64
2, 70800, Note_on_c, 0, 57, 120
2, 71035, Note_off_c, 0, 57, 64
2, 71040, Note_on_c, 0, 57, 120
2, 71680, Note_off_c, 0, 57, 64
2, 71760, Note_on_c, 0, 55, 120
2, 71995, Note_off_c, 0, 55, 64
2, 72480, Note_on_c, 0, 57, 120
2, 73195, Note_off_c, 0, 57, 64
2, 73200, Note_on_c, 0, 55, 120
2, 73435, Note_off_c, 0, 55, 64
2, 73680, Note_on_c, 0, 55, 120
2, 73915, Note_off_c, 0, 55, 64
2, 73920, Note_on_c, 0, 57, 120
2, 74155, Note_off_c, 0, 57, 64
2, 74160, Note_on_c, 0, 59, 120
2, 74395, Note_off_c, 0, 59, 64
2, 74400, Note_on_c, 0, 59, 120
2, 74635, Note_off_c, 0, 59, 64
2, 74640, Note_on_c, 0, 59, 120
2, 74875, Note_off_c, 0, 59, 64
2, 74880, Note_on_c, 0, 59, 120
2, 75520, Note_off_c, 0, 59, 64
2, 75600, Note_on_c, 0, 57, 120
2, 75835, Note_off_c, 0, 57, 64
2, 76320, Note_on_c, 0, 59, 120
2, 77035, Note_off_c, 0, 59, 64
2, 77040, Note_on_c, 0, 57, 120
2, 77680, Note_off_c, 0, 57, 64
2, 77760, Note_on_c, 0, 59, 120
2, 77995, Note_off_c, 0, 59, 64
2, 78000, Note_on_c, 0, 57, 120
2, 78235, Note_off_c, 0, 57, 64
2, 78240, Note_on_c, 0, 55, 120
2, 78475, Note_off_c, 0, 55, 64
2, 78480, Note_on_c, 0, 57, 120
2, 78955, Note_off_c, 0, 57, 64
2, 78960, Note_on_c, 0, 55, 120
2, 79600, Note_off_c, 0, 55, 64
2, 92640, Note_on_c, 0, 59, 120
2, 93480, Note_off_c, 0, 59, 64
2, 93600, Note_on_c, 0, 57, 120
2, 93835, Note_off_c, 0, 57, 64
2, 93840, Note_on_c, 0, 57, 120
2, 94075, Note_off_c, 0, 57, 64
2, 94080, Note_on_c, 0, 57, 120
2, 94480, Note_off_c, 0, 57, 64
2, 94560, Note_on_c, 0, 57, 120
2, 94960, Note_off_c, 0, 57, 64
2, 95040, Note_on_c, 0, 57, 120
2, 95275, Note_off_c, 0, 57, 64
2, 95280, Note_on_c, 0, 55, 120
2, 95515, Note_off_c, 0, 55, 64
2, 95520, Note_on_c, 0, 52, 120
2, 95755, Note_off_c, 0, 52, 64
2, 95760, Note_on_c, 0, 50, 120
2, 95995, Note_off_c, 0, 50, 64
2, 96240, Note_on_c, 0, 59, 120
2, 96475, Note_off_c, 0, 59, 64
2, 96480, Note_on_c, 0, 59, 120
2, 96715, Note_off_c, 0, 59, 64
2, 96720, Note_on_c, 0, 59, 120
2, 97360, Note_off_c, 0, 59, 64
2, 97440, Note_on_c, 0, 57, 120
2, 97675, Note_off_c, 0, 57, 64
2, 97680, Note_on_c, 0, 57, 120
2, 97915, Note_off_c, 0, 57, 64
2, 97920, Note_on_c, 0, 57, 120
2, 98320, Note_off_c, 0, 57, 64
2, 98400, Note_on_c, 0, 57, 120
2, 98800, Note_off_c, 0, 57, 64
2, 98880, Note_on_c, 0, 57, 120
2, 99115, Note_off_c, 0, 57, 64
2, 99120, Note_on_c, 0, 55, 120
2, 99355, Note_off_c, 0, 55, 64
2, 99360, Note_on_c, 0, 52, 120
2, 99595, Note_off_c, 0, 52, 64
2, 99600, Note_on_c, 0, 62, 120
2, 99835, Note_off_c, 0, 62, 64
2, 99840, Note_on_c, 0, 57, 120
2, 100075, Note_off_c, 0, 57, 64
2, 100080, Note_on_c, 0, 59, 120
2, 100720, Note_off_c, 0, 59, 64
2, 101040, Note_on_c, 0, 57, 120
2, 101275, Note_off_c, 0, 57, 64
2, 101280, Note_on_c, 0, 57, 120
2, 101515, Note_off_c, 0, 57, 64
2, 101520, Note_on_c, 0, 57, 120
2, 101755, Note_off_c, 0, 57, 64
2, 101760, Note_on_c, 0, 57, 120
2, 102160, Note_off_c, 0, 57, 64
2, 102240, Note_on_c, 0, 57, 120
2, 102475, Note_off_c, 0, 57, 64
2, 102480, Note_on_c, 0, 57, 120
2, 102715, Note_off_c, 0, 57, 64
2, 102720, Note_on_c, 0, 57, 120
2, 102955, Note_off_c, 0, 57, 64
2, 102960, Note_on_c, 0, 55, 120
2, 103195, Note_off_c, 0, 55, 64
2, 103200, Note_on_c, 0, 52, 120
2, 103435, Note_off_c, 0, 52, 64
2, 103440, Note_on_c, 0, 59, 120
2, 103675, Note_off_c, 0, 59, 64
2, 103680, Note_on_c, 0, 59, 120
2, 104080, Note_off_c, 0, 59, 64
2, 104160, Note_on_c, 0, 59, 120
2, 104395, Note_off_c, 0, 59, 64
2, 104400, Note_on_c, 0, 59, 120
2, 104635, Note_off_c, 0, 59, 64
2, 104640, Note_on_c, 0, 59, 120
2, 104875, Note_off_c, 0, 59, 64
2, 104880, Note_on_c, 0, 57, 120
2, 105115, Note_off_c, 0, 57, 64
2, 105120, Note_on_c, 0, 55, 120
2, 105355, Note_off_c, 0, 55, 64
2, 105360, Note_on_c, 0, 57, 120
2, 105835, Note_off_c, 0, 57, 64
2, 105840, Note_on_c, 0, 55, 120
2, 106480, Note_off_c, 0, 55, 64
2, 108000, Note_on_c, 0, 59, 120
2, 108640, Note_off_c, 0, 59, 64
2, 108720, Note_on_c, 0, 57, 120
2, 108955, Note_off_c, 0, 57, 64
2, 108960, Note_on_c, 0, 57, 120
2, 109195, Note_off_c, 0, 57, 64
2, 109200, Note_on_c, 0, 57, 120
2, 109435, Note_off_c, 0, 57, 64
2, 109440, Note_on_c, 0, 57, 120
2, 109675, Note_off_c, 0, 57, 64
2, 109680, Note_on_c, 0, 57, 120
2, 109915, Note_off_c, 0, 57, 64
2, 109920, Note_on_c, 0, 57, 120
2, 110155, Note_off_c, 0, 57, 64
2, 110160, Note_on_c, 0, 57, 120
2, 110395, Note_off_c, 0, 57, 64
2, 110400, Note_on_c, 0, 57, 120
2, 110635, Note_off_c, 0, 57, 64
2, 110640, Note_on_c, 0, 55, 120
2, 110875, Note_off_c, 0, 55, 64
2, 110880, Note_on_c, 0, 52, 120
2, 111115, Note_off_c, 0, 52, 64
2, 111120, Note_on_c, 0, 50, 120
2, 111355, Note_off_c, 0, 50, 64
2, 111360, Note_on_c, 0, 59, 120
2, 111595, Note_off_c, 0, 59, 64
2, 111600, Note_on_c, 0, 59, 120
2, 112075, Note_off_c, 0, 59, 64
2, 112080, Note_on_c, 0, 59, 120
2, 112555, Note_off_c, 0, 59, 64
2, 112560, Note_on_c, 0, 57, 120
2, 112795, Note_off_c, 0, 57, 64
2, 112800, Note_on_c, 0, 57, 120
2, 113035, Note_off_c, 0, 57, 64
2, 113040, Note_on_c, 0, 57, 120
2, 113275, Note_off_c, 0, 57, 64
2, 113280, Note_on_c, 0, 57, 120
2, 113680, Note_off_c, 0, 57, 64
2, 113760, Note_on_c, 0, 57, 120
2, 114160, Note_off_c, 0, 57, 64
2, 114240, Note_on_c, 0, 57, 120
2, 114475, Note_off_c, 0, 57, 64
2, 114480, Note_on_c, 0, 55, 120
2, 114715, Note_off_c, 0, 55, 64
2, 114720, Note_on_c, 0, 52, 120
2, 114955, Note_off_c, 0, 52, 64
2, 114960, Note_on_c, 0, 62, 120
2, 115435, Note_off_c, 0, 62, 64
2, 115440, Note_on_c, 0, 59, 120
2, 116080, Note_off_c, 0, 59, 64
2, 116400, Note_on_c, 0, 57, 120
2, 116635, Note_off_c, 0, 57, 64
2, 116640, Note_on_c, 0, 57, 120
2, 116875, Note_off_c, 0, 57, 64
2, 116880, Note_on_c, 0, 57, 120
2, 117115, Note_off_c, 0, 57, 64
2, 117120, Note_on_c, 0, 57, 120
2, 117520, Note_off_c, 0, 57, 64
2, 117600, Note_on_c, 0, 57, 120
2, 117835, Note_off_c, 0, 57, 64
2, 117840, Note_on_c, 0, 57, 120
2, 118075, Note_off_c, 0, 57, 64
2, 118080, Note_on_c, 0, 57, 120
2, 118315, Note_off_c, 0, 57, 64
2, 118320, Note_on_c, 0, 55, 120
2, 118555, Note_off_c, 0, 55, 64
2, 118560, Note_on_c, 0, 52, 120
2, 118795, Note_off_c, 0, 52, 64
2, 118800, Note_on_c, 0, 59, 120
2, 119440, Note_off_c, 0, 59, 64
2, 119520, Note_on_c, 0, 59, 120
2, 119920, Note_off_c, 0, 59, 64
2, 120000, Note_on_c, 0, 59, 120
2, 120235, Note_off_c, 0, 59, 64
2, 120240, Note_on_c, 0, 57, 120
2, 120475, Note_off_c, 0, 57, 64
2, 120480, Note_on_c, 0, 55, 120
2, 120715, Note_off_c, 0, 55, 64
2, 120720, Note_on_c, 0, 57, 120
2, 121195, Note_off_c, 0, 57, 64
2, 121200, Note_on_c, 0, 55, 120
2, 121840, Note_off_c, 0, 55, 64
2, 123120, Note_on_c, 0, 59, 120
2, 123355, Note_off_c, 0, 59, 64
2, 123360, Note_on_c, 0, 59, 120
2, 123595, Note_off_c, 0, 59, 64
2, 123600, Note_on_c, 0, 59, 120
2, 123835, Note_off_c, 0, 59, 64
2, 123840, Note_on_c, 0, 59, 120
2, 124075, Note_off_c, 0, 59, 64
2, 124080, Note_on_c, 0, 59, 120
2, 124315, Note_off_c, 0, 59, 64
2, 124320, Note_on_c, 0, 59, 120
2, 124555, Note_off_c, 0, 59, 64
2, 124560, Note_on_c, 0, 59, 120
2, 124795, Note_off_c, 0, 59, 64
2, 124800, Note_on_c, 0, 59, 120
2, 125440, Note_off_c, 0, 59, 64
2, 125520, Note_on_c, 0, 57, 120
2, 125755, Note_off_c, 0, 57, 64
2, 126240, Note_on_c, 0, 59, 120
2, 126955, Note_off_c, 0, 59, 64
2, 126960, Note_on_c, 0, 57, 120
2, 127195, Note_off_c, 0, 57, 64
2, 127440, Note_on_c, 0, 57, 120
2, 127675, Note_off_c, 0, 57, 64
2, 127680, Note_on_c, 0, 62, 120
2, 128080, Note_off_c, 0, 62, 64
2, 128160, Note_on_c, 0, 60, 120
2, 128560, Note_off_c, 0, 60, 64
2, 128640, Note_on_c, 0, 59, 120
2, 129040, Note_off_c, 0, 59, 64
2, 129120, Note_on_c, 0, 60, 120
2, 129355, Note_off_c, 0, 60, 64
2, 129360, Note_on_c, 0, 59, 120
2, 129835, Note_off_c, 0, 59, 64
2, 129840, Note_on_c, 0, 60, 120
2, 130075, Note_off_c, 0, 60, 64
2, 130080, Note_on_c, 0, 59, 120
2, 130315, Note_off_c, 0, 59, 64
2, 130320, Note_on_c, 0, 57, 120
2, 130960, Note_off_c, 0, 57, 64
2, 131280, Note_on_c, 0, 59, 120
2, 131515, Note_off_c, 0, 59, 64
2, 131520, Note_on_c, 0, 59, 120
2, 131755, Note_off_c, 0, 59, 64
2, 131760, Note_on_c, 0, 59, 120
2, 131995, Note_off_c, 0, 59, 64
2, 132000, Note_on_c, 0, 59, 120
2, 132235, Note_off_c, 0, 59, 64
2, 132240, Note_on_c, 0, 59, 120
2, 132475, Note_off_c, 0, 59, 64
2, 132480, Note_on_c, 0, 59, 120
2, 133120, Note_off_c, 0, 59, 64
2, 133200, Note_on_c, 0, 57, 120
2, 133435, Note_off_c, 0, 57, 64
2, 133920, Note_on_c, 0, 59, 120
2, 134635, Note_off_c, 0, 59, 64
2, 134640, Note_on_c, 0, 57, 120
2, 135280, Note_off_c, 0, 57, 64
2, 135360, Note_on_c, 0, 62, 120
2, 135760, Note_off_c, 0, 62, 64
2, 135840, Note_on_c, 0, 60, 120
2, 136240, Note_off_c, 0, 60, 64
2, 136320, Note_on_c, 0, 59, 120
2, 136720, Note_off_c, 0, 59, 64
2, 136800, Note_on_c, 0, 60, 120
2, 137035, Note_off_c, 0, 60, 64
2, 137040, Note_on_c, 0, 59, 120
2, 137515, Note_off_c, 0, 59, 64
2, 137520, Note_on_c, 0, 57, 120
2, 137995, Note_off_c, 0, 57, 64
2, 138000, Note_on_c, 0, 57, 120
2, 138235, Note_off_c, 0, 57, 64
2, 138240, Note_on_c, 0, 55, 120
2, 138640, Note_off_c, 0, 55, 64
2, 138960, Note_on_c, 0, 59, 120
2, 139195, Note_off_c, 0, 59, 64
2, 139200, Note_on_c, 0, 59, 120
2, 139435, Note_off_c, 0, 59, 64
2, 139440, Note_on_c, 0, 59, 120
2, 139675, Note_off_c, 0, 59, 64
2, 139680, Note_on_c, 0, 59, 120
2, 139915, Note_off_c, 0, 59, 64
2, 139920, Note_on_c, 0, 59, 120
2, 140155, Note_off_c, 0, 59, 64
2, 140160, Note_on_c, 0, 59, 120
2, 140800, Note_off_c, 0, 59, 64
2, 140880, Note_on_c, 0, 57, 120
2, 141115, Note_off_c, 0, 57, 64
2, 141600, Note_on_c, 0, 59, 120
2, 142315, Note_off_c, 0, 59, 64
2, 142320, Note_on_c, 0, 57, 120
2, 142555, Note_off_c, 0, 57, 64
2, 142800, Note_on_c, 0, 57, 120
2, 143035, Note_off_c, 0, 57, 64
2, 143040, Note_on_c, 0, 62, 120
2, 143440, Note_off_c, 0, 62, 64
2, 143520, Note_on_c, 0, 60, 120
2, 143920, Note_off_c, 0, 60, 64
2, 144000, Note_on_c, 0, 59, 120
2, 144400, Note_off_c, 0, 59, 64
2, 144480, Note_on_c, 0, 60, 120
2, 144715, Note_off_c, 0, 60, 64
2, 144720, Note_on_c, 0, 59, 120
2, 145195, Note_off_c, 0, 59, 64
2, 145200, Note_on_c, 0, 60, 120
2, 145435, Note_off_c, 0, 60, 64
2, 145440, Note_on_c, 0, 59, 120
2, 145675, Note_off_c, 0, 59, 64
2, 145680, Note_on_c, 0, 57, 120
2, 146320, Note_off_c, 0, 57, 64
2, 146640, Note_on_c, 0, 57, 120
2, 146875, Note_off_c, 0, 57, 64
2, 146880, Note_on_c, 0, 57, 120
2, 147115, Note_off_c, 0, 57, 64
2, 147120, Note_on_c, 0, 57, 120
2, 147355, Note_off_c, 0, 57, 64
2, 147360, Note_on_c, 0, 57, 120
2, 147595, Note_off_c, 0, 57, 64
2, 147600, Note_on_c, 0, 57, 120
2, 147835, Note_off_c, 0, 57, 64
2, 147840, Note_on_c, 0, 57, 120
2, 148480, Note_off_c, 0, 57, 64
2, 148560, Note_on_c, 0, 55, 120
2, 148795, Note_off_c, 0, 55, 64
2, 149280, Note_on_c, 0, 57, 120
2, 149995, Note_off_c, 0, 57, 64
2, 150000, Note_on_c, 0, 55, 120
2, 150235, Note_off_c, 0, 55, 64
2, 150480, Note_on_c, 0, 55, 120
2, 150715, Note_off_c, 0, 55, 64
2, 150720, Note_on_c, 0, 57, 120
2, 150955, Note_off_c, 0, 57, 64
2, 150960, Note_on_c, 0, 59, 120
2, 151195, Note_off_c, 0, 59, 64
2, 151200, Note_on_c, 0, 59, 120
2, 151435, Note_off_c, 0, 59, 64
2, 151440, Note_on_c, 0, 59, 120
2, 151675, Note_off_c, 0, 59, 64
2, 151680, Note_on_c, 0, 59, 120
2, 152320, Note_off_c, 0, 59, 64
2, 152400, Note_on_c, 0, 57, 120
2, 152635, Note_off_c, 0, 57, 64
2, 153120, Note_on_c, 0, 59, 120
2, 153835, Note_off_c, 0, 59, 64
2, 153840, Note_on_c, 0, 57, 120
2, 154480, Note_off_c, 0, 57, 64
2, 154560, Note_on_c, 0, 57, 120
2, 154795, Note_off_c, 0, 57, 64
2, 154800, Note_on_c, 0, 59, 120
2, 155440, Note_off_c, 0, 59, 64
2, 156240, Note_on_c, 0, 60, 120
2, 156475, Note_off_c, 0, 60, 64
2, 156720, Note_on_c, 0, 65, 120
2, 156955, Note_off_c, 0, 65, 64
2, 157200, Note_on_c, 0, 62, 120
2, 157435, Note_off_c, 0, 62, 64
2, 157440, Note_on_c, 0, 64, 120
2, 157675, Note_off_c, 0, 64, 64
2, 157680, Note_on_c, 0, 60, 120
2, 157915, Note_off_c, 0, 60, 64
2, 157920, Note_on_c, 0, 62, 120
2, 158155, Note_off_c, 0, 62, 64
2, 158160, Note_on_c, 0, 60, 120
2, 158800, Note_off_c, 0, 60, 64
2, 160080, Note_on_c, 0, 59, 120
2, 160315, Note_off_c, 0, 59, 64
2, 160560, Note_on_c, 0, 64, 120
2, 160795, Note_off_c, 0, 64, 64
2, 161040, Note_on_c, 0, 59, 120
2, 161275, Note_off_c, 0, 59, 64
2, 161280, Note_on_c, 0, 62, 120
2, 161515, Note_off_c, 0, 62, 64
2, 161520, Note_on_c, 0, 57, 120
2, 161755, Note_off_c, 0, 57, 64
2, 161760, Note_on_c, 0, 59, 120
2, 161995, Note_off_c, 0, 59, 64
2, 162000, Note_on_c, 0, 60, 120
2, 162235, Note_off_c, 0, 60, 64
2, 162240, Note_on_c, 0, 59, 120
2, 162475, Note_off_c, 0, 59, 64
2, 162480, Note_on_c, 0, 57, 120
2, 163120, Note_off_c, 0, 57, 64
2, 163440, Note_on_c, 0, 57, 120
2, 163675, Note_off_c, 0, 57, 64
2, 163920, Note_on_c, 0, 60, 120
2, 164155, Note_off_c, 0, 60, 64
2, 164400, Note_on_c, 0, 65, 120
2, 164635, Note_off_c, 0, 65, 64
2, 164880, Note_on_c, 0, 62, 120
2, 165115, Note_off_c, 0, 62, 64
2, 165120, Note_on_c, 0, 64, 120
2, 165355, Note_off_c, 0, 64, 64
2, 165360, Note_on_c, 0, 60, 120
2, 165595, Note_off_c, 0, 60, 64
2, 165600, Note_on_c, 0, 62, 120
2, 165835, Note_off_c, 0, 62, 64
2, 165840, Note_on_c, 0, 60, 120
2, 166480, Note_off_c, 0, 60, 64
2, 167280, Note_on_c, 0, 55, 120
2, 167515, Note_off_c, 0, 55, 64
2, 167760, Note_on_c, 0, 59, 120
2, 167995, Note_off_c, 0, 59, 64
2, 168240, Note_on_c, 0, 64, 120
2, 168475, Note_off_c, 0, 64, 64
2, 168720, Note_on_c, 0, 59, 120
2, 168955, Note_off_c, 0, 59, 64
2, 168960, Note_on_c, 0, 62, 120
2, 169195, Note_off_c, 0, 62, 64
2, 169200, Note_on_c, 0, 57, 120
2, 169840, Note_off_c, 0, 57, 64
2, 170160, Note_on_c, 0, 57, 120
2, 170635, Note_off_c, 0, 57, 64
2, 170640, Note_on_c, 0, 57, 120
2, 171115, Note_off_c, 0, 57, 64
2, 171120, Note_on_c, 0, 57, 120
2, 171595, Note_off_c, 0, 57, 64
2, 171600, Note_on_c, 0, 57, 120
2, 172075, Note_off_c, 0, 57, 64
2, 172080, Note_on_c, 0, 57, 120
2, 172315, Note_off_c, 0, 57, 64
2, 172320, Note_on_c, 0, 55, 120
2, 172555, Note_off_c, 0, 55, 64
2, 172560, Note_on_c, 0, 59, 120
2, 173035, Note_off_c, 0, 59, 64
2, 173040, Note_on_c, 0, 59, 120
2, 173515, Note_off_c, 0, 59, 64
2, 173520, Note_on_c, 0, 59, 120
2, 173995, Note_off_c, 0, 59, 64
2, 174000, Note_on_c, 0, 57, 120
2, 174235, Note_off_c, 0, 57, 64
2, 174240, Note_on_c, 0, 57, 120
2, 174475, Note_off_c, 0, 57, 64
2, 174480, Note_on_c, 0, 57, 120
2, 174955, Note_off_c, 0, 57, 64
2, 174960, Note_on_c, 0, 57, 120
2, 175195, Note_off_c, 0, 57, 64
2, 175200, Note_on_c, 0, 57, 120
2, 175435, Note_off_c, 0, 57, 64
2, 175440, Note_on_c, 0, 57, 120
2, 175675, Note_off_c, 0, 57, 64
2, 175680, Note_on_c, 0, 55, 120
2, 175915, Note_off_c, 0, 55, 64
2, 175920, Note_on_c, 0, 52, 120
2, 176155, Note_off_c, 0, 52, 64
2, 176160, Note_on_c, 0, 62, 120
2, 176395, Note_off_c, 0, 62, 64
2, 176400, Note_on_c, 0, 57, 120
2, 176635, Note_off_c, 0, 57, 64
2, 176640, Note_on_c, 0, 59, 120
2, 177040, Note_off_c, 0, 59, 64
2, 177840, Note_on_c, 0, 62, 120
2, 178075, Note_off_c, 0, 62, 64
2, 178080, Note_on_c, 0, 62, 120
2, 178315, Note_off_c, 0, 62, 64
2, 178320, Note_on_c, 0, 62, 120
2, 178555, Note_off_c, 0, 62, 64
2, 178560, Note_on_c, 0, 64, 120
2, 178795, Note_off_c, 0, 64, 64
2, 178800, Note_on_c, 0, 64, 120
2, 179035, Note_off_c, 0, 64, 64
2, 179040, Note_on_c, 0, 64, 120
2, 179275, Note_off_c, 0, 64, 64
2, 179280, Note_on_c, 0, 64, 120
2, 179755, Note_off_c, 0, 64, 64
2, 179760, Note_on_c, 0, 62, 120
2, 179995, Note_off_c, 0, 62, 64
2, 180000, Note_on_c, 0, 62, 120
2, 180235, Note_off_c, 0, 62, 64
2, 180240, Note_on_c, 0, 62, 120
2, 180475, Note_off_c, 0, 62, 64
2, 180480, Note_on_c, 0, 67, 120
2, 180715, Note_off_c, 0, 67, 64
2, 180720, Note_on_c, 0, 57, 120
2, 180955, Note_off_c, 0, 57, 64
2, 180960, Note_on_c, 0, 57, 120
2, 181195, Note_off_c, 0, 57, 64
2, 181200, Note_on_c, 0, 57, 120
2, 181675, Note_off_c, 0, 57, 64
2, 181680, Note_on_c, 0, 57, 120
2, 181915, Note_off_c, 0, 57, 64
2, 181920, Note_on_c, 0, 57, 120
2, 182155, Note_off_c, 0, 57, 64
2, 182160, Note_on_c, 0, 57, 120
2, 182635, Note_off_c, 0, 57, 64
2, 182640, Note_on_c, 0, 55, 120
2, 183280, Note_off_c, 0, 55, 64
2, 183600, Note_on_c, 0, 59, 120
2, 183835, Note_off_c, 0, 59, 64
2, 183840, Note_on_c, 0, 59, 120
2, 184075, Note_off_c, 0, 59, 64
2, 184080, Note_on_c, 0, 59, 120
2, 184315, Note_off_c, 0, 59, 64
2, 184320, Note_on_c, 0, 59, 120
2, 184555, Note_off_c, 0, 59, 64
2, 184560, Note_on_c, 0, 59, 120
2, 184795, Note_off_c, 0, 59, 64
2, 184800, Note_on_c, 0, 59, 120
2, 185035, Note_off_c, 0, 59, 64
2, 185040, Note_on_c, 0, 59, 120
2, 185275, Note_off_c, 0, 59, 64
2, 185280, Note_on_c, 0, 59, 120
2, 185515, Note_off_c, 0, 59, 64
2, 185520, Note_on_c, 0, 59, 120
2, 185755, Note_off_c, 0, 59, 64
2, 185760, Note_on_c, 0, 59, 120
2, 185995, Note_off_c, 0, 59, 64
2, 186000, Note_on_c, 0, 59, 120
2, 186235, Note_off_c, 0, 59, 64
2, 186240, Note_on_c, 0, 59, 120
2, 186880, Note_off_c, 0, 59, 64
2, 186960, Note_on_c, 0, 57, 120
2, 187195, Note_off_c, 0, 57, 64
2, 193200, Note_on_c, 0, 57, 120
2, 193840, Note_off_c, 0, 57, 64
2, 193920, Note_on_c, 0, 57, 120
2, 194560, Note_off_c, 0, 57, 64
2, 194640, Note_on_c, 0, 55, 120
2, 194875, Note_off_c, 0, 55, 64
2, 201600, Note_on_c, 0, 57, 120
2, 202240, Note_off_c, 0, 57, 64
2, 202320, Note_on_c, 0, 55, 120
2, 202555, Note_off_c, 0, 55, 64
2, 213120, Note_on_c, 0, 59, 120
2, 213760, Note_off_c, 0, 59, 64
2, 213840, Note_on_c, 0, 57, 120
2, 214075, Note_off_c, 0, 57, 64
2, 220080, Note_on_c, 0, 57, 120
2, 220720, Note_off_c, 0, 57, 64
2, 220800, Note_on_c, 0, 57, 120
2, 221440, Note_off_c, 0, 57, 64
2, 221520, Note_on_c, 0, 55, 120
2, 221755, Note_off_c, 0, 55, 64
2, 228480, Note_on_c, 0, 57, 120
2, 229120, Note_off_c, 0, 57, 64
2, 229200, Note_on_c, 0, 55, 120
2, 229435, Note_off_c, 0, 55, 64
2, 240000, Note_on_c, 0, 59, 120
2, 240640, Note_off_c, 0, 59, 64
2, 240720, Note_on_c, 0, 57, 120
2, 240955, Note_off_c, 0, 57, 64
2, 246960, Note_on_c, 0, 57, 120
2, 247600, Note_off_c, 0, 57, 64
2, 247680, Control_c, 0, 7, 120
2, 247680, Note_on_c, 0, 57, 120
2, 248320, Note_off_c, 0, 57, 64
2, 248400, Note_on_c, 0, 55, 120
2, 248635, Note_off_c, 0, 55, 64
2, 249600, Control_c, 0, 7, 110
2, 251520, Control_c, 0, 7, 100
2, 253440, Control_c, 0, 7, 90
2, 255360, Control_c, 0, 7, 80
2, 255360, Note_on_c, 0, 57, 120
2, 256000, Note_off_c, 0, 57, 64
2, 256080, Note_on_c, 0, 55, 120
2, 256315, Note_off_c, 0, 55, 64
2, 257280, Control_c, 0, 7, 70
2, 257280, End_track
3, 0, Start_track
3, 0, Title_t, "MAIN PIANO"
3, 0, MIDI_port, 0
3, 0, Channel_prefix, 1
3, 0, Control_c, 1, 7, 127
3, 0, Control_c, 1, 10, 64
3, 0, Program_c, 1, 0
3, 1920, Control_c, 1, 93, 127
3, 1920, Control_c, 1, 91, 127
3, 1920, Note_on_c, 1, 57, 100
3, 1920, Note_on_c, 1, 62, 100
3, 2320, Note_off_c, 1, 62, 64
3, 2320, Note_off_c, 1, 57, 64
3, 2400, Note_on_c, 1, 57, 100
3, 2400, Note_on_c, 1, 62, 100
3, 2635, Note_off_c, 1, 62, 64
3, 2635, Note_off_c, 1, 57, 64
3, 2640, Note_on_c, 1, 55, 100
3, 2875, Note_off_c, 1, 55, 64
3, 2880, Note_on_c, 1, 57, 100
3, 2880, Note_on_c, 1, 62, 100
3, 3115, Note_off_c, 1, 62, 64
3, 3115, Note_off_c, 1, 57, 64
3, 3120, Note_on_c, 1, 55, 100
3, 3355, Note_off_c, 1, 55, 64
3, 3360, Note_on_c, 1, 52, 100
3, 3595, Note_off_c, 1, 52, 64
3, 3600, Note_on_c, 1, 50, 100
3, 3835, Note_off_c, 1, 50, 64
3, 4080, Note_on_c, 1, 50, 100
3, 4080, Note_on_c, 1, 55, 100
3, 4315, Note_off_c, 1, 55, 64
3, 4315, Note_off_c, 1, 50, 64
3, 4560, Note_on_c, 1, 50, 100
3, 4560, Note_on_c, 1, 55, 100
3, 5640, Note_off_c, 1, 55, 64
3, 5640, Note_off_c, 1, 50, 64
3, 5760, Note_on_c, 1, 57, 100
3, 5760, Note_on_c, 1, 62, 100
3, 6160, Note_off_c, 1, 62, 64
3, 6160, Note_off_c, 1, 57, 64
3, 6240, Note_on_c, 1, 57, 100
3, 6240, Note_on_c, 1, 62, 100
3, 6475, Note_off_c, 1, 62, 64
3, 6475, Note_off_c, 1, 57, 64
3, 6480, Note_on_c, 1, 55, 100
3, 6715, Note_off_c, 1, 55, 64
3, 6720, Note_on_c, 1, 57, 100
3, 6720, Note_on_c, 1, 62, 100
3, 6955, Note_off_c, 1, 62, 64
3, 6955, Note_off_c, 1, 57, 64
3, 6960, Note_on_c, 1, 55, 100
3, 7195, Note_off_c, 1, 55, 64
3, 7200, Note_on_c, 1, 52, 100
3, 7435, Note_off_c, 1, 52, 64
3, 7440, Note_on_c, 1, 50, 100
3, 7675, Note_off_c, 1, 50, 64
3, 7920, Note_on_c, 1, 50, 100
3, 7920, Note_on_c, 1, 55, 100
3, 8155, Note_off_c, 1, 55, 64
3, 8155, Note_off_c, 1, 50, 64
3, 8880, Note_on_c, 1, 50, 100
3, 8880, Note_on_c, 1, 55, 100
3, 9115, Note_off_c, 1, 55, 64
3, 9115, Note_off_c, 1, 50, 64
3, 9600, Note_on_c, 1, 57, 100
3, 9600, Note_on_c, 1, 62, 100
3, 10000, Note_off_c, 1, 62, 64
3, 10000, Note_off_c, 1, 57, 64
3, 10080, Note_on_c, 1, 57, 100
3, 10080, Note_on_c, 1, 62, 100
3, 10315, Note_off_c, 1, 62, 64
3, 10315, Note_off_c, 1, 57, 64
3, 10320, Note_on_c, 1, 55, 100
3, 10555, Note_off_c, 1, 55, 64
3, 10560, Note_on_c, 1, 57, 100
3, 10560, Note_on_c, 1, 62, 100
3, 10795, Note_off_c, 1, 62, 64
3, 10795, Note_off_c, 1, 57, 64
3, 10800, Note_on_c, 1, 55, 100
3, 11035, Note_off_c, 1, 55, 64
3, 11040, Note_on_c, 1, 52, 100
3, 11275, Note_off_c, 1, 52, 64
3, 11280, Note_on_c, 1, 50, 100
3, 11515, Note_off_c, 1, 50, 64
3, 11760, Note_on_c, 1, 61, 100
3, 11760, Note_on_c, 1, 65, 100
3, 11995, Note_off_c, 1, 65, 64
3, 11995, Note_off_c, 1, 61, 64
3, 12000, Note_on_c, 1, 62, 100
3, 12000, Note_on_c, 1, 66, 100
3, 12235, Note_off_c, 1, 66, 64
3, 12235, Note_off_c, 1, 62, 64
3, 12240, Note_on_c, 1, 62, 100
3, 12240, Note_on_c, 1, 66, 100
3, 12240, Note_on_c, 1, 71, 100
3, 13320, Note_off_c, 1, 71, 64
3, 13320, Note_off_c, 1, 66, 64
3, 13320, Note_off_c, 1, 62, 64
3, 13440, Note_on_c, 1, 60, 100
3, 13440, Note_on_c, 1, 64, 100
3, 13440, Note_on_c, 1, 67, 100
3, 14080, Note_off_c, 1, 67, 64
3, 14080, Note_off_c, 1, 64, 64
3, 14080, Note_off_c, 1, 60, 64
3, 14160, Note_on_c, 1, 60, 100
3, 14160, Note_on_c, 1, 65, 100
3, 14160, Note_on_c, 1, 69, 100
3, 14395, Note_off_c, 1, 69, 64
3, 14395, Note_off_c, 1, 65, 64
3, 14395, Note_off_c, 1, 60, 64
3, 14640, Note_on_c, 1, 60, 100
3, 14640, Note_on_c, 1, 65, 100
3, 14640, Note_on_c, 1, 69, 100
3, 15115, Note_off_c, 1, 69, 64
3, 15115, Note_off_c, 1, 65, 64
3, 15115, Note_off_c, 1, 60, 64
3, 15120, Note_on_c, 1, 60, 100
3, 15120, Note_on_c, 1, 65, 100
3, 15120, Note_on_c, 1, 69, 100
3, 15355, Note_off_c, 1, 69, 64
3, 15355, Note_off_c, 1, 65, 64
3, 15355, Note_off_c, 1, 60, 64
3, 15360, Note_on_c, 1, 60, 100
3, 15360, Note_on_c, 1, 64, 100
3, 15360, Note_on_c, 1, 67, 100
3, 15760, Note_off_c, 1, 67, 64
3, 15760, Note_off_c, 1, 64, 64
3, 15760, Note_off_c, 1, 60, 64
3, 17280, Note_on_c, 1, 59, 100
3, 17280, Note_on_c, 1, 64, 100
3, 17280, Note_on_c, 1, 69, 100
3, 17680, Note_off_c, 1, 69, 64
3, 17680, Note_off_c, 1, 64, 64
3, 17680, Note_off_c, 1, 59, 64
3, 17760, Note_on_c, 1, 59, 100
3, 17760, Note_on_c, 1, 64, 100
3, 17760, Note_on_c, 1, 69, 100
3, 18160, Note_off_c, 1, 69, 64
3, 18160, Note_off_c, 1, 64, 64
3, 18160, Note_off_c, 1, 59, 64
3, 18240, Note_on_c, 1, 59, 100
3, 18240, Note_on_c, 1, 64, 100
3, 18240, Note_on_c, 1, 69, 100
3, 18475, Note_off_c, 1, 69, 64
3, 18475, Note_off_c, 1, 64, 64
3, 18475, Note_off_c, 1, 59, 64
3, 18480, Note_on_c, 1, 67, 100
3, 18480, Control_c, 1, 10, 127
3, 18715, Note_off_c, 1, 67, 64
3, 18720, Note_on_c, 1, 64, 100
3, 18720, Control_c, 1, 10, 0
3, 18955, Note_off_c, 1, 64, 64
3, 18960, Note_on_c, 1, 62, 100
3, 18960, Control_c, 1, 10, 127
3, 19195, Note_off_c, 1, 62, 64
3, 19200, Control_c, 1, 10, 64
3, 19440, Note_on_c, 1, 62, 100
3, 19440, Note_on_c, 1, 67, 100
3, 19440, Note_on_c, 1, 71, 100
3, 19675, Note_off_c, 1, 71, 64
3, 19675, Note_off_c, 1, 67, 64
3, 19675, Note_off_c, 1, 62, 64
3, 19680, Note_on_c, 1, 62, 100
3, 19680, Note_on_c, 1, 67, 100
3, 19680, Note_on_c, 1, 71, 100
3, 19915, Note_off_c, 1, 71, 64
3, 19915, Note_off_c, 1, 67, 64
3, 19915, Note_off_c, 1, 62, 64
3, 19920, Note_on_c, 1, 62, 100
3, 19920, Note_on_c, 1, 67, 100
3, 19920, Note_on_c, 1, 71, 100
3, 20560, Note_off_c, 1, 71, 64
3, 20560, Note_off_c, 1, 67, 64
3, 20560, Note_off_c, 1, 62, 64
3, 21120, Control_c, 1, 10, 64
3, 21120, Note_on_c, 1, 59, 100
3, 21120, Note_on_c, 1, 64, 100
3, 21120, Note_on_c, 1, 69, 100
3, 21600, Note_off_c, 1, 69, 80
3, 21600, Note_off_c, 1, 64, 80
3, 21600, Note_off_c, 1, 59, 80
3, 21600, Note_on_c, 1, 59, 100
3, 21600, Note_on_c, 1, 64, 100
3, 21600, Note_on_c, 1, 69, 100
3, 22000, Note_off_c, 1, 69, 64
3, 22000, Note_off_c, 1, 64, 64
3, 22000, Note_off_c, 1, 59, 64
3, 22080, Note_on_c, 1, 59, 100
3, 22080, Note_on_c, 1, 64, 100
3, 22080, Note_on_c, 1, 69, 100
3, 22315, Note_off_c, 1, 69, 64
3, 22315, Note_off_c, 1, 64, 64
3, 22315, Note_off_c, 1, 59, 64
3, 22320, Note_on_c, 1, 67, 100
3, 22320, Control_c, 1, 10, 127
3, 22555, Note_off_c, 1, 67, 64
3, 22560, Note_on_c, 1, 64, 100
3, 22560, Control_c, 1, 10, 0
3, 22795, Note_off_c, 1, 64, 64
3, 22800, Note_on_c, 1, 62, 100
3, 22800, Control_c, 1, 10, 127
3, 23035, Note_off_c, 1, 62, 64
3, 23040, Control_c, 1, 10, 64
3, 23280, Note_on_c, 1, 62, 100
3, 23280, Note_on_c, 1, 67, 100
3, 23280, Note_on_c, 1, 71, 100
3, 23920, Note_off_c, 1, 71, 64
3, 23920, Note_off_c, 1, 67, 64
3, 23920, Note_off_c, 1, 62, 64
3, 24960, Note_on_c, 1, 59, 100
3, 24960, Note_on_c, 1, 64, 100
3, 24960, Note_on_c, 1, 69, 100
3, 25360, Note_off_c, 1, 69, 64
3, 25360, Note_off_c, 1, 64, 64
3, 25360, Note_off_c, 1, 59, 64
3, 25440, Note_on_c, 1, 59, 100
3, 25440, Note_on_c, 1, 64, 100
3, 25440, Note_on_c, 1, 69, 100
3, 25675, Note_off_c, 1, 69, 64
3, 25675, Note_off_c, 1, 64, 64
3, 25675, Note_off_c, 1, 59, 64
3, 25680, Note_on_c, 1, 59, 100
3, 25680, Note_on_c, 1, 64, 100
3, 25680, Note_on_c, 1, 69, 100
3, 25915, Note_off_c, 1, 69, 64
3, 25915, Note_off_c, 1, 64, 64
3, 25915, Note_off_c, 1, 59, 64
3, 25920, Note_on_c, 1, 59, 100
3, 25920, Note_on_c, 1, 64, 100
3, 25920, Note_on_c, 1, 69, 100
3, 26155, Note_off_c, 1, 69, 64
3, 26155, Note_off_c, 1, 64, 64
3, 26155, Note_off_c, 1, 59, 64
3, 26160, Note_on_c, 1, 67, 100
3, 26395, Note_off_c, 1, 67, 64
3, 26400, Note_on_c, 1, 64, 100
3, 26635, Note_off_c, 1, 64, 64
3, 26640, Note_on_c, 1, 62, 100
3, 26640, Note_on_c, 1, 66, 100
3, 26640, Note_on_c, 1, 71, 100
3, 27280, Note_off_c, 1, 71, 64
3, 27280, Note_off_c, 1, 66, 64
3, 27280, Note_off_c, 1, 62, 64
3, 27360, Note_on_c, 1, 62, 100
3, 27360, Note_on_c, 1, 66, 100
3, 27360, Note_on_c, 1, 71, 100
3, 27595, Note_off_c, 1, 71, 64
3, 27595, Note_off_c, 1, 66, 64
3, 27595, Note_off_c, 1, 62, 64
3, 27600, Note_on_c, 1, 62, 100
3, 27600, Note_on_c, 1, 66, 100
3, 27600, Note_on_c, 1, 71, 100
3, 27835, Note_off_c, 1, 71, 64
3, 27835, Note_off_c, 1, 66, 64
3, 27835, Note_off_c, 1, 62, 64
3, 27840, Note_on_c, 1, 62, 100
3, 27840, Note_on_c, 1, 66, 100
3, 27840, Note_on_c, 1, 71, 100
3, 28075, Note_off_c, 1, 71, 64
3, 28075, Note_off_c, 1, 66, 64
3, 28075, Note_off_c, 1, 62, 64
3, 28080, Note_on_c, 1, 69, 100
3, 28080, Control_c, 1, 10, 127
3, 28315, Note_off_c, 1, 69, 64
3, 28320, Note_on_c, 1, 67, 100
3, 28320, Control_c, 1, 10, 0
3, 28555, Note_off_c, 1, 67, 64
3, 28560, Note_on_c, 1, 60, 100
3, 28560, Note_on_c, 1, 65, 100
3, 28560, Note_on_c, 1, 69, 100
3, 28560, Control_c, 1, 10, 127
3, 28795, Note_off_c, 1, 69, 64
3, 28795, Note_off_c, 1, 65, 64
3, 28795, Note_off_c, 1, 60, 64
3, 28800, Note_on_c, 1, 60, 100
3, 28800, Note_on_c, 1, 65, 100
3, 28800, Note_on_c, 1, 69, 100
3, 28800, Control_c, 1, 10, 64
3, 29035, Note_off_c, 1, 69, 64
3, 29035, Note_off_c, 1, 65, 64
3, 29035, Note_off_c, 1, 60, 64
3, 29040, Note_on_c, 1, 60, 100
3, 29040, Note_on_c, 1, 64, 100
3, 29040, Note_on_c, 1, 67, 100
3, 29515, Note_off_c, 1, 67, 64
3, 29515, Note_off_c, 1, 64, 64
3, 29515, Note_off_c, 1, 60, 64
3, 29520, Note_on_c, 1, 60, 100
3, 29520, Note_on_c, 1, 65, 100
3, 29520, Note_on_c, 1, 69, 100
3, 29755, Note_off_c, 1, 69, 64
3, 29755, Note_off_c, 1, 65, 64
3, 29755, Note_off_c, 1, 60, 64
3, 30000, Note_on_c, 1, 60, 100
3, 30000, Note_on_c, 1, 65, 100
3, 30000, Note_on_c, 1, 69, 100
3, 30235, Note_off_c, 1, 69, 64
3, 30235, Note_off_c, 1, 65, 64
3, 30235, Note_off_c, 1, 60, 64
3, 30480, Note_on_c, 1, 60, 100
3, 30480, Note_on_c, 1, 65, 100
3, 30480, Note_on_c, 1, 69, 100
3, 30715, Note_off_c, 1, 69, 64
3, 30715, Note_off_c, 1, 65, 64
3, 30715, Note_off_c, 1, 60, 64
3, 30720, Note_on_c, 1, 60, 100
3, 30720, Note_on_c, 1, 64, 100
3, 30720, Note_on_c, 1, 67, 100
3, 31120, Note_off_c, 1, 67, 64
3, 31120, Note_off_c, 1, 64, 64
3, 31120, Note_off_c, 1, 60, 64
3, 32640, Control_c, 1, 10, 0
3, 32640, Note_on_c, 1, 59, 100
3, 32640, Note_on_c, 1, 64, 100
3, 32640, Note_on_c, 1, 69, 100
3, 32875, Note_off_c, 1, 69, 64
3, 32875, Note_off_c, 1, 64, 64
3, 32875, Note_off_c, 1, 59, 64
3, 32880, Note_on_c, 1, 59, 100
3, 32880, Note_on_c, 1, 64, 100
3, 32880, Note_on_c, 1, 69, 100
3, 33115, Note_off_c, 1, 69, 64
3, 33115, Note_off_c, 1, 64, 64
3, 33115, Note_off_c, 1, 59, 64
3, 33120, Note_on_c, 1, 59, 100
3, 33120, Note_on_c, 1, 64, 100
3, 33120, Note_on_c, 1, 69, 100
3, 33355, Note_off_c, 1, 69, 64
3, 33355, Note_off_c, 1, 64, 64
3, 33355, Note_off_c, 1, 59, 64
3, 33360, Note_on_c, 1, 59, 100
3, 33360, Note_on_c, 1, 64, 100
3, 33360, Note_on_c, 1, 69, 100
3, 33595, Note_off_c, 1, 69, 64
3, 33595, Note_off_c, 1, 64, 64
3, 33595, Note_off_c, 1, 59, 64
3, 33600, Note_on_c, 1, 59, 100
3, 33600, Note_on_c, 1, 64, 100
3, 33600, Note_on_c, 1, 69, 100
3, 33835, Note_off_c, 1, 69, 64
3, 33835, Note_off_c, 1, 64, 64
3, 33835, Note_off_c, 1, 59, 64
3, 33840, Note_on_c, 1, 67, 100
3, 33840, Control_c, 1, 10, 127
3, 34075, Note_off_c, 1, 67, 64
3, 34080, Note_on_c, 1, 64, 100
3, 34080, Control_c, 1, 10, 0
3, 34315, Note_off_c, 1, 64, 64
3, 34320, Note_on_c, 1, 62, 100
3, 34320, Control_c, 1, 10, 127
3, 34555, Note_off_c, 1, 62, 64
3, 34560, Control_c, 1, 10, 64
3, 34560, Note_on_c, 1, 62, 100
3, 34560, Note_on_c, 1, 67, 100
3, 34560, Note_on_c, 1, 71, 100
3, 34560, Control_c, 1, 10, 64
3, 34795, Note_off_c, 1, 71, 64
3, 34795, Note_off_c, 1, 67, 64
3, 34795, Note_off_c, 1, 62, 64
3, 34800, Note_on_c, 1, 62, 100
3, 34800, Note_on_c, 1, 67, 100
3, 34800, Note_on_c, 1, 71, 100
3, 35275, Note_off_c, 1, 71, 64
3, 35275, Note_off_c, 1, 67, 64
3, 35275, Note_off_c, 1, 62, 64
3, 35280, Note_on_c, 1, 62, 100
3, 35280, Note_on_c, 1, 67, 100
3, 35280, Note_on_c, 1, 71, 100
3, 35755, Note_off_c, 1, 71, 64
3, 35755, Note_off_c, 1, 67, 64
3, 35755, Note_off_c, 1, 62, 64
3, 35760, Control_c, 1, 10, 127
3, 35760, Note_on_c, 1, 69, 100
3, 35995, Note_off_c, 1, 69, 64
3, 36000, Control_c, 1, 10, 0
3, 36000, Note_on_c, 1, 69, 100
3, 36235, Note_off_c, 1, 69, 64
3, 36240, Control_c, 1, 10, 127
3, 36240, Note_on_c, 1, 69, 100
3, 36475, Note_off_c, 1, 69, 64
3, 36480, Control_c, 1, 10, 64
3, 36480, Note_on_c, 1, 59, 100
3, 36480, Note_on_c, 1, 64, 100
3, 36480, Note_on_c, 1, 69, 100
3, 36880, Note_off_c, 1, 69, 64
3, 36880, Note_off_c, 1, 64, 64
3, 36880, Note_off_c, 1, 59, 64
3, 36960, Note_on_c, 1, 59, 100
3, 36960, Note_on_c, 1, 64, 100
3, 36960, Note_on_c, 1, 69, 100
3, 37360, Note_off_c, 1, 69, 64
3, 37360, Note_off_c, 1, 64, 64
3, 37360, Note_off_c, 1, 59, 64
3, 37440, Note_on_c, 1, 59, 100
3, 37440, Note_on_c, 1, 64, 100
3, 37440, Note_on_c, 1, 69, 100
3, 37675, Note_off_c, 1, 69, 64
3, 37675, Note_off_c, 1, 64, 64
3, 37675, Note_off_c, 1, 59, 64
3, 37680, Control_c, 1, 10, 127
3, 37680, Note_on_c, 1, 67, 100
3, 37915, Note_off_c, 1, 67, 64
3, 37920, Control_c, 1, 10, 0
3, 37920, Note_on_c, 1, 64, 100
3, 38155, Note_off_c, 1, 64, 64
3, 38160, Control_c, 1, 10, 127
3, 38160, Note_on_c, 1, 74, 100
3, 38395, Note_off_c, 1, 74, 64
3, 38640, Control_c, 1, 10, 64
3, 38640, Note_on_c, 1, 62, 100
3, 38640, Note_on_c, 1, 67, 100
3, 38640, Note_on_c, 1, 71, 100
3, 39280, Note_off_c, 1, 71, 64
3, 39280, Note_off_c, 1, 67, 64
3, 39280, Note_off_c, 1, 62, 64
3, 40320, Note_on_c, 1, 59, 100
3, 40320, Note_on_c, 1, 64, 100
3, 40320, Note_on_c, 1, 69, 100
3, 40720, Note_off_c, 1, 69, 64
3, 40720, Note_off_c, 1, 64, 64
3, 40720, Note_off_c, 1, 59, 64
3, 40800, Note_on_c, 1, 59, 100
3, 40800, Note_on_c, 1, 64, 100
3, 40800, Note_on_c, 1, 69, 100
3, 41035, Note_off_c, 1, 69, 64
3, 41035, Note_off_c, 1, 64, 64
3, 41035, Note_off_c, 1, 59, 64
3, 41040, Note_on_c, 1, 59, 100
3, 41040, Note_on_c, 1, 64, 100
3, 41040, Note_on_c, 1, 69, 100
3, 41275, Note_off_c, 1, 69, 64
3, 41275, Note_off_c, 1, 64, 64
3, 41275, Note_off_c, 1, 59, 64
3, 41280, Note_on_c, 1, 59, 100
3, 41280, Note_on_c, 1, 64, 100
3, 41280, Note_on_c, 1, 69, 100
3, 41515, Note_off_c, 1, 69, 64
3, 41515, Note_off_c, 1, 64, 64
3, 41515, Note_off_c, 1, 59, 64
3, 41520, Control_c, 1, 10, 127
3, 41520, Note_on_c, 1, 67, 100
3, 41755, Note_off_c, 1, 67, 64
3, 41760, Control_c, 1, 10, 0
3, 41760, Note_on_c, 1, 64, 100
3, 41995, Note_off_c, 1, 64, 64
3, 42000, Control_c, 1, 10, 64
3, 42000, Note_on_c, 1, 62, 100
3, 42000, Note_on_c, 1, 66, 100
3, 42000, Note_on_c, 1, 71, 100
3, 42640, Note_off_c, 1, 71, 64
3, 42640, Note_off_c, 1, 66, 64
3, 42640, Note_off_c, 1, 62, 64
3, 42720, Note_on_c, 1, 62, 100
3, 42720, Note_on_c, 1, 66, 100
3, 42720, Note_on_c, 1, 71, 100
3, 43120, Note_off_c, 1, 71, 64
3, 43120, Note_off_c, 1, 66, 64
3, 43120, Note_off_c, 1, 62, 64
3, 43200, Note_on_c, 1, 62, 100
3, 43200, Note_on_c, 1, 66, 100
3, 43200, Note_on_c, 1, 71, 100
3, 43435, Note_off_c, 1, 71, 64
3, 43435, Note_off_c, 1, 66, 64
3, 43435, Note_off_c, 1, 62, 64
3, 43440, Control_c, 1, 10, 127
3, 43440, Note_on_c, 1, 69, 100
3, 43675, Note_off_c, 1, 69, 64
3, 43680, Control_c, 1, 10, 0
3, 43680, Note_on_c, 1, 67, 100
3, 43915, Note_off_c, 1, 67, 64
3, 43920, Control_c, 1, 10, 64
3, 43920, Note_on_c, 1, 60, 100
3, 43920, Note_on_c, 1, 65, 100
3, 43920, Note_on_c, 1, 69, 100
3, 44395, Note_off_c, 1, 69, 64
3, 44395, Note_off_c, 1, 65, 64
3, 44395, Note_off_c, 1, 60, 64
3, 44400, Note_on_c, 1, 60, 100
3, 44400, Note_on_c, 1, 64, 100
3, 44400, Note_on_c, 1, 67, 100
3, 44875, Note_off_c, 1, 67, 64
3, 44875, Note_off_c, 1, 64, 64
3, 44875, Note_off_c, 1, 60, 64
3, 44880, Note_on_c, 1, 60, 100
3, 44880, Note_on_c, 1, 65, 100
3, 44880, Note_on_c, 1, 69, 100
3, 45115, Note_off_c, 1, 69, 64
3, 45115, Note_off_c, 1, 65, 64
3, 45115, Note_off_c, 1, 60, 64
3, 45360, Note_on_c, 1, 60, 100
3, 45360, Note_on_c, 1, 65, 100
3, 45360, Note_on_c, 1, 69, 100
3, 45595, Note_off_c, 1, 69, 64
3, 45595, Note_off_c, 1, 65, 64
3, 45595, Note_off_c, 1, 60, 64
3, 45840, Note_on_c, 1, 60, 100
3, 45840, Note_on_c, 1, 65, 100
3, 45840, Note_on_c, 1, 69, 100
3, 46075, Note_off_c, 1, 69, 64
3, 46075, Note_off_c, 1, 65, 64
3, 46075, Note_off_c, 1, 60, 64
3, 46080, Note_on_c, 1, 60, 100
3, 46080, Note_on_c, 1, 64, 100
3, 46080, Note_on_c, 1, 67, 100
3, 46080, Control_c, 1, 10, 0
3, 46315, Note_off_c, 1, 67, 64
3, 46315, Note_off_c, 1, 64, 64
3, 46315, Note_off_c, 1, 60, 64
3, 46320, Note_on_c, 1, 62, 100
3, 46320, Note_on_c, 1, 67, 100
3, 46320, Note_on_c, 1, 71, 100
3, 46555, Note_off_c, 1, 71, 64
3, 46555, Note_off_c, 1, 67, 64
3, 46555, Note_off_c, 1, 62, 64
3, 46560, Note_on_c, 1, 62, 100
3, 46560, Note_on_c, 1, 67, 100
3, 46560, Note_on_c, 1, 71, 100
3, 46795, Note_off_c, 1, 71, 64
3, 46795, Note_off_c, 1, 67, 64
3, 46795, Note_off_c, 1, 62, 64
3, 46800, Note_on_c, 1, 62, 100
3, 46800, Note_on_c, 1, 67, 100
3, 46800, Note_on_c, 1, 71, 100
3, 47035, Note_off_c, 1, 71, 64
3, 47035, Note_off_c, 1, 67, 64
3, 47035, Note_off_c, 1, 62, 64
3, 47040, Note_on_c, 1, 62, 100
3, 47040, Note_on_c, 1, 67, 100
3, 47040, Note_on_c, 1, 71, 100
3, 47275, Note_off_c, 1, 71, 64
3, 47275, Note_off_c, 1, 67, 64
3, 47275, Note_off_c, 1, 62, 64
3, 47280, Note_on_c, 1, 62, 100
3, 47280, Note_on_c, 1, 67, 100
3, 47280, Note_on_c, 1, 71, 100
3, 47515, Note_off_c, 1, 71, 64
3, 47515, Note_off_c, 1, 67, 64
3, 47515, Note_off_c, 1, 62, 64
3, 47520, Note_on_c, 1, 62, 100
3, 47520, Note_on_c, 1, 67, 100
3, 47520, Note_on_c, 1, 71, 100
3, 47755, Note_off_c, 1, 71, 64
3, 47755, Note_off_c, 1, 67, 64
3, 47755, Note_off_c, 1, 62, 64
3, 47760, Note_on_c, 1, 62, 100
3, 47760, Note_on_c, 1, 67, 100
3, 47760, Note_on_c, 1, 71, 100
3, 47995, Note_off_c, 1, 71, 64
3, 47995, Note_off_c, 1, 67, 64
3, 47995, Note_off_c, 1, 62, 64
3, 48000, Note_on_c, 1, 62, 100
3, 48000, Note_on_c, 1, 67, 100
3, 48000, Note_on_c, 1, 71, 100
3, 48000, Control_c, 1, 10, 64
3, 48640, Note_off_c, 1, 71, 64
3, 48640, Note_off_c, 1, 67, 64
3, 48640, Note_off_c, 1, 62, 64
3, 48720, Note_on_c, 1, 62, 100
3, 48720, Note_on_c, 1, 67, 100
3, 48720, Note_on_c, 1, 71, 100
3, 48955, Note_off_c, 1, 71, 64
3, 48955, Note_off_c, 1, 67, 64
3, 48955, Note_off_c, 1, 62, 64
3, 49440, Note_on_c, 1, 62, 100
3, 49440, Note_on_c, 1, 67, 100
3, 49440, Note_on_c, 1, 71, 100
3, 50155, Note_off_c, 1, 71, 64
3, 50155, Note_off_c, 1, 67, 64
3, 50155, Note_off_c, 1, 62, 64
3, 50160, Note_on_c, 1, 60, 100
3, 50160, Note_on_c, 1, 65, 100
3, 50160, Note_on_c, 1, 69, 100
3, 50395, Note_off_c, 1, 69, 64
3, 50395, Note_off_c, 1, 65, 64
3, 50395, Note_off_c, 1, 60, 64
3, 50640, Note_on_c, 1, 60, 100
3, 50640, Note_on_c, 1, 65, 100
3, 50640, Note_on_c, 1, 69, 100
3, 50875, Note_off_c, 1, 69, 64
3, 50875, Note_off_c, 1, 65, 64
3, 50875, Note_off_c, 1, 60, 64
3, 50880, Note_on_c, 1, 67, 100
3, 50880, Note_on_c, 1, 71, 100
3, 50880, Note_on_c, 1, 74, 100
3, 51280, Note_off_c, 1, 74, 64
3, 51280, Note_off_c, 1, 71, 64
3, 51280, Note_off_c, 1, 67, 64
3, 51360, Note_on_c, 1, 65, 100
3, 51360, Note_on_c, 1, 69, 100
3, 51360, Note_on_c, 1, 72, 100
3, 51760, Note_off_c, 1, 72, 64
3, 51760, Note_off_c, 1, 69, 64
3, 51760, Note_off_c, 1, 65, 64
3, 51840, Note_on_c, 1, 62, 100
3, 51840, Note_on_c, 1, 67, 100
3, 51840, Note_on_c, 1, 71, 100
3, 52240, Note_off_c, 1, 71, 64
3, 52240, Note_off_c, 1, 67, 64
3, 52240, Note_off_c, 1, 62, 64
3, 52320, Note_on_c, 1, 64, 100
3, 52320, Note_on_c, 1, 69, 100
3, 52320, Note_on_c, 1, 72, 100
3, 52555, Note_off_c, 1, 72, 64
3, 52555, Note_off_c, 1, 69, 64
3, 52555, Note_off_c, 1, 64, 64
3, 52560, Note_on_c, 1, 62, 100
3, 52560, Note_on_c, 1, 67, 100
3, 52560, Note_on_c, 1, 71, 100
3, 53035, Note_off_c, 1, 71, 64
3, 53035, Note_off_c, 1, 67, 64
3, 53035, Note_off_c, 1, 62, 64
3, 53040, Note_on_c, 1, 64, 100
3, 53040, Note_on_c, 1, 69, 100
3, 53040, Note_on_c, 1, 72, 100
3, 53275, Note_off_c, 1, 72, 64
3, 53275, Note_off_c, 1, 69, 64
3, 53275, Note_off_c, 1, 64, 64
3, 53280, Note_on_c, 1, 62, 100
3, 53280, Note_on_c, 1, 67, 100
3, 53280, Note_on_c, 1, 71, 100
3, 53515, Note_off_c, 1, 71, 64
3, 53515, Note_off_c, 1, 67, 64
3, 53515, Note_off_c, 1, 62, 64
3, 53520, Note_on_c, 1, 60, 100
3, 53520, Note_on_c, 1, 65, 100
3, 53520, Note_on_c, 1, 69, 100
3, 54160, Note_off_c, 1, 69, 64
3, 54160, Note_off_c, 1, 65, 64
3, 54160, Note_off_c, 1, 60, 64
3, 54480, Note_on_c, 1, 62, 100
3, 54480, Note_on_c, 1, 67, 100
3, 54480, Note_on_c, 1, 71, 100
3, 54715, Note_off_c, 1, 71, 64
3, 54715, Note_off_c, 1, 67, 64
3, 54715, Note_off_c, 1, 62, 64
3, 54720, Note_on_c, 1, 62, 100
3, 54720, Note_on_c, 1, 67, 100
3, 54720, Note_on_c, 1, 71, 100
3, 54955, Note_off_c, 1, 71, 64
3, 54955, Note_off_c, 1, 67, 64
3, 54955, Note_off_c, 1, 62, 64
3, 54960, Note_on_c, 1, 62, 100
3, 54960, Note_on_c, 1, 67, 100
3, 54960, Note_on_c, 1, 71, 100
3, 55195, Note_off_c, 1, 71, 64
3, 55195, Note_off_c, 1, 67, 64
3, 55195, Note_off_c, 1, 62, 64
3, 55200, Note_on_c, 1, 62, 100
3, 55200, Note_on_c, 1, 67, 100
3, 55200, Note_on_c, 1, 71, 100
3, 55435, Note_off_c, 1, 71, 64
3, 55435, Note_off_c, 1, 67, 64
3, 55435, Note_off_c, 1, 62, 64
3, 55440, Note_on_c, 1, 62, 100
3, 55440, Note_on_c, 1, 67, 100
3, 55440, Note_on_c, 1, 71, 100
3, 55675, Note_off_c, 1, 71, 64
3, 55675, Note_off_c, 1, 67, 64
3, 55675, Note_off_c, 1, 62, 64
3, 55680, Note_on_c, 1, 62, 100
3, 55680, Note_on_c, 1, 67, 100
3, 55680, Note_on_c, 1, 71, 100
3, 56320, Note_off_c, 1, 71, 64
3, 56320, Note_off_c, 1, 67, 64
3, 56320, Note_off_c, 1, 62, 64
3, 56400, Note_on_c, 1, 62, 100
3, 56400, Note_on_c, 1, 67, 100
3, 56400, Note_on_c, 1, 71, 100
3, 56635, Note_off_c, 1, 71, 64
3, 56635, Note_off_c, 1, 67, 64
3, 56635, Note_off_c, 1, 62, 64
3, 57120, Note_on_c, 1, 62, 100
3, 57120, Note_on_c, 1, 67, 100
3, 57120, Note_on_c, 1, 71, 100
3, 57835, Note_off_c, 1, 71, 64
3, 57835, Note_off_c, 1, 67, 64
3, 57835, Note_off_c, 1, 62, 64
3, 57840, Note_on_c, 1, 60, 100
3, 57840, Note_on_c, 1, 65, 100
3, 57840, Note_on_c, 1, 69, 100
3, 58480, Note_off_c, 1, 69, 64
3, 58480, Note_off_c, 1, 65, 64
3, 58480, Note_off_c, 1, 60, 64
3, 58560, Note_on_c, 1, 67, 100
3, 58560, Note_on_c, 1, 71, 100
3, 58560, Note_on_c, 1, 74, 100
3, 58960, Note_off_c, 1, 74, 64
3, 58960, Note_off_c, 1, 71, 64
3, 58960, Note_off_c, 1, 67, 64
3, 59040, Note_on_c, 1, 64, 100
3, 59040, Note_on_c, 1, 69, 100
3, 59040, Note_on_c, 1, 72, 100
3, 59440, Note_off_c, 1, 72, 64
3, 59440, Note_off_c, 1, 69, 64
3, 59440, Note_off_c, 1, 64, 64
3, 59520, Note_on_c, 1, 62, 100
3, 59520, Note_on_c, 1, 67, 100
3, 59520, Note_on_c, 1, 71, 100
3, 59920, Note_off_c, 1, 71, 64
3, 59920, Note_off_c, 1, 67, 64
3, 59920, Note_off_c, 1, 62, 64
3, 60000, Note_on_c, 1, 64, 100
3, 60000, Note_on_c, 1, 69, 100
3, 60000, Note_on_c, 1, 72, 100
3, 60235, Note_off_c, 1, 72, 64
3, 60235, Note_off_c, 1, 69, 64
3, 60235, Note_off_c, 1, 64, 64
3, 60240, Note_on_c, 1, 62, 100
3, 60240, Note_on_c, 1, 67, 100
3, 60240, Note_on_c, 1, 71, 100
3, 60715, Note_off_c, 1, 71, 64
3, 60715, Note_off_c, 1, 67, 64
3, 60715, Note_off_c, 1, 62, 64
3, 60720, Note_on_c, 1, 60, 100
3, 60720, Note_on_c, 1, 65, 100
3, 60720, Note_on_c, 1, 69, 100
3, 61195, Note_off_c, 1, 69, 64
3, 61195, Note_off_c, 1, 65, 64
3, 61195, Note_off_c, 1, 60, 64
3, 61200, Note_on_c, 1, 60, 100
3, 61200, Note_on_c, 1, 65, 100
3, 61200, Note_on_c, 1, 69, 100
3, 61435, Note_off_c, 1, 69, 64
3, 61435, Note_off_c, 1, 65, 64
3, 61435, Note_off_c, 1, 60, 64
3, 61440, Note_on_c, 1, 60, 100
3, 61440, Note_on_c, 1, 64, 100
3, 61440, Note_on_c, 1, 67, 100
3, 61840, Note_off_c, 1, 67, 64
3, 61840, Note_off_c, 1, 64, 64
3, 61840, Note_off_c, 1, 60, 64
3, 62160, Note_on_c, 1, 62, 100
3, 62160, Note_on_c, 1, 67, 100
3, 62160, Note_on_c, 1, 71, 100
3, 62395, Note_off_c, 1, 71, 64
3, 62395, Note_off_c, 1, 67, 64
3, 62395, Note_off_c, 1, 62, 64
3, 62400, Note_on_c, 1, 62, 100
3, 62400, Note_on_c, 1, 67, 100
3, 62400, Note_on_c, 1, 71, 100
3, 62635, Note_off_c, 1, 71, 64
3, 62635, Note_off_c, 1, 67, 64
3, 62635, Note_off_c, 1, 62, 64
3, 62640, Note_on_c, 1, 62, 100
3, 62640, Note_on_c, 1, 67, 100
3, 62640, Note_on_c, 1, 71, 100
3, 62875, Note_off_c, 1, 71, 64
3, 62875, Note_off_c, 1, 67, 64
3, 62875, Note_off_c, 1, 62, 64
3, 62880, Note_on_c, 1, 62, 100
3, 62880, Note_on_c, 1, 67, 100
3, 62880, Note_on_c, 1, 71, 100
3, 63115, Note_off_c, 1, 71, 64
3, 63115, Note_off_c, 1, 67, 64
3, 63115, Note_off_c, 1, 62, 64
3, 63120, Note_on_c, 1, 62, 100
3, 63120, Note_on_c, 1, 67, 100
3, 63120, Note_on_c, 1, 71, 100
3, 63355, Note_off_c, 1, 71, 64
3, 63355, Note_off_c, 1, 67, 64
3, 63355, Note_off_c, 1, 62, 64
3, 63360, Note_on_c, 1, 62, 100
3, 63360, Note_on_c, 1, 67, 100
3, 63360, Note_on_c, 1, 71, 100
3, 64000, Note_off_c, 1, 71, 64
3, 64000, Note_off_c, 1, 67, 64
3, 64000, Note_off_c, 1, 62, 64
3, 64080, Note_on_c, 1, 60, 100
3, 64080, Note_on_c, 1, 65, 100
3, 64080, Note_on_c, 1, 69, 100
3, 64315, Note_off_c, 1, 69, 64
3, 64315, Note_off_c, 1, 65, 64
3, 64315, Note_off_c, 1, 60, 64
3, 64800, Note_on_c, 1, 62, 100
3, 64800, Note_on_c, 1, 67, 100
3, 64800, Note_on_c, 1, 71, 100
3, 65515, Note_off_c, 1, 71, 64
3, 65515, Note_off_c, 1, 67, 64
3, 65515, Note_off_c, 1, 62, 64
3, 65520, Note_on_c, 1, 60, 100
3, 65520, Note_on_c, 1, 65, 100
3, 65520, Note_on_c, 1, 69, 100
3, 65755, Note_off_c, 1, 69, 64
3, 65755, Note_off_c, 1, 65, 64
3, 65755, Note_off_c, 1, 60, 64
3, 66000, Note_on_c, 1, 60, 100
3, 66000, Note_on_c, 1, 65, 100
3, 66000, Note_on_c, 1, 69, 100
3, 66235, Note_off_c, 1, 69, 64
3, 66235, Note_off_c, 1, 65, 64
3, 66235, Note_off_c, 1, 60, 64
3, 66240, Note_on_c, 1, 67, 100
3, 66240, Note_on_c, 1, 71, 100
3, 66240, Note_on_c, 1, 74, 100
3, 66640, Note_off_c, 1, 74, 64
3, 66640, Note_off_c, 1, 71, 64
3, 66640, Note_off_c, 1, 67, 64
3, 66720, Note_on_c, 1, 64, 100
3, 66720, Note_on_c, 1, 69, 100
3, 66720, Note_on_c, 1, 72, 100
3, 67120, Note_off_c, 1, 72, 64
3, 67120, Note_off_c, 1, 69, 64
3, 67120, Note_off_c, 1, 64, 64
3, 67200, Note_on_c, 1, 62, 100
3, 67200, Note_on_c, 1, 67, 100
3, 67200, Note_on_c, 1, 71, 100
3, 67600, Note_off_c, 1, 71, 64
3, 67600, Note_off_c, 1, 67, 64
3, 67600, Note_off_c, 1, 62, 64
3, 67680, Note_on_c, 1, 64, 100
3, 67680, Note_on_c, 1, 69, 100
3, 67680, Note_on_c, 1, 72, 100
3, 67915, Note_off_c, 1, 72, 64
3, 67915, Note_off_c, 1, 69, 64
3, 67915, Note_off_c, 1, 64, 64
3, 67920, Note_on_c, 1, 62, 100
3, 67920, Note_on_c, 1, 67, 100
3, 67920, Note_on_c, 1, 71, 100
3, 68395, Note_off_c, 1, 71, 64
3, 68395, Note_off_c, 1, 67, 64
3, 68395, Note_off_c, 1, 62, 64
3, 68400, Note_on_c, 1, 64, 100
3, 68400, Note_on_c, 1, 69, 100
3, 68400, Note_on_c, 1, 72, 100
3, 68635, Note_off_c, 1, 72, 64
3, 68635, Note_off_c, 1, 69, 64
3, 68635, Note_off_c, 1, 64, 64
3, 68640, Note_on_c, 1, 62, 100
3, 68640, Note_on_c, 1, 67, 100
3, 68640, Note_on_c, 1, 71, 100
3, 68875, Note_off_c, 1, 71, 64
3, 68875, Note_off_c, 1, 67, 64
3, 68875, Note_off_c, 1, 62, 64
3, 68880, Note_on_c, 1, 60, 100
3, 68880, Note_on_c, 1, 65, 100
3, 68880, Note_on_c, 1, 69, 100
3, 69520, Note_off_c, 1, 69, 64
3, 69520, Note_off_c, 1, 65, 64
3, 69520, Note_off_c, 1, 60, 64
3, 69840, Note_on_c, 1, 60, 100
3, 69840, Note_on_c, 1, 65, 100
3, 69840, Note_on_c, 1, 69, 100
3, 70075, Note_off_c, 1, 69, 64
3, 70075, Note_off_c, 1, 65, 64
3, 70075, Note_off_c, 1, 60, 64
3, 70080, Note_on_c, 1, 60, 100
3, 70080, Note_on_c, 1, 65, 100
3, 70080, Note_on_c, 1, 69, 100
3, 70315, Note_off_c, 1, 69, 64
3, 70315, Note_off_c, 1, 65, 64
3, 70315, Note_off_c, 1, 60, 64
3, 70320, Note_on_c, 1, 60, 100
3, 70320, Note_on_c, 1, 65, 100
3, 70320, Note_on_c, 1, 69, 100
3, 70555, Note_off_c, 1, 69, 64
3, 70555, Note_off_c, 1, 65, 64
3, 70555, Note_off_c, 1, 60, 64
3, 70560, Note_on_c, 1, 60, 100
3, 70560, Note_on_c, 1, 65, 100
3, 70560, Note_on_c, 1, 69, 100
3, 70795, Note_off_c, 1, 69, 64
3, 70795, Note_off_c, 1, 65, 64
3, 70795, Note_off_c, 1, 60, 64
3, 70800, Note_on_c, 1, 60, 100
3, 70800, Note_on_c, 1, 65, 100
3, 70800, Note_on_c, 1, 69, 100
3, 71035, Note_off_c, 1, 69, 64
3, 71035, Note_off_c, 1, 65, 64
3, 71035, Note_off_c, 1, 60, 64
3, 71040, Note_on_c, 1, 60, 100
3, 71040, Note_on_c, 1, 65, 100
3, 71040, Note_on_c, 1, 69, 100
3, 71680, Note_off_c, 1, 69, 64
3, 71680, Note_off_c, 1, 65, 64
3, 71680, Note_off_c, 1, 60, 64
3, 71760, Note_on_c, 1, 60, 100
3, 71760, Note_on_c, 1, 64, 100
3, 71760, Note_on_c, 1, 67, 100
3, 71995, Note_off_c, 1, 67, 64
3, 71995, Note_off_c, 1, 64, 64
3, 71995, Note_off_c, 1, 60, 64
3, 72480, Note_on_c, 1, 60, 100
3, 72480, Note_on_c, 1, 65, 100
3, 72480, Note_on_c, 1, 69, 100
3, 73195, Note_off_c, 1, 69, 64
3, 73195, Note_off_c, 1, 65, 64
3, 73195, Note_off_c, 1, 60, 64
3, 73200, Note_on_c, 1, 60, 100
3, 73200, Note_on_c, 1, 64, 100
3, 73200, Note_on_c, 1, 67, 100
3, 73435, Note_off_c, 1, 67, 64
3, 73435, Note_off_c, 1, 64, 64
3, 73435, Note_off_c, 1, 60, 64
3, 73680, Note_on_c, 1, 62, 100
3, 73680, Note_on_c, 1, 67, 100
3, 73915, Note_off_c, 1, 67, 64
3, 73915, Note_off_c, 1, 62, 64
3, 73920, Note_on_c, 1, 62, 100
3, 73920, Note_on_c, 1, 69, 100
3, 74155, Note_off_c, 1, 69, 64
3, 74155, Note_off_c, 1, 62, 64
3, 74160, Note_on_c, 1, 62, 100
3, 74160, Note_on_c, 1, 67, 100
3, 74160, Note_on_c, 1, 71, 100
3, 74395, Note_off_c, 1, 71, 64
3, 74395, Note_off_c, 1, 67, 64
3, 74395, Note_off_c, 1, 62, 64
3, 74400, Note_on_c, 1, 62, 100
3, 74400, Note_on_c, 1, 67, 100
3, 74400, Note_on_c, 1, 71, 100
3, 74635, Note_off_c, 1, 71, 64
3, 74635, Note_off_c, 1, 67, 64
3, 74635, Note_off_c, 1, 62, 64
3, 74640, Note_on_c, 1, 62, 100
3, 74640, Note_on_c, 1, 67, 100
3, 74640, Note_on_c, 1, 71, 100
3, 74875, Note_off_c, 1, 71, 64
3, 74875, Note_off_c, 1, 67, 64
3, 74875, Note_off_c, 1, 62, 64
3, 74880, Note_on_c, 1, 62, 100
3, 74880, Note_on_c, 1, 67, 100
3, 74880, Note_on_c, 1, 71, 100
3, 75520, Note_off_c, 1, 71, 64
3, 75520, Note_off_c, 1, 67, 64
3, 75520, Note_off_c, 1, 62, 64
3, 75600, Note_on_c, 1, 62, 100
3, 75600, Note_on_c, 1, 66, 100
3, 75600, Note_on_c, 1, 69, 100
3, 75835, Note_off_c, 1, 69, 64
3, 75835, Note_off_c, 1, 66, 64
3, 75835, Note_off_c, 1, 62, 64
3, 76320, Note_on_c, 1, 62, 100
3, 76320, Note_on_c, 1, 67, 100
3, 76320, Note_on_c, 1, 71, 100
3, 77035, Note_off_c, 1, 71, 64
3, 77035, Note_off_c, 1, 67, 64
3, 77035, Note_off_c, 1, 62, 64
3, 77040, Note_on_c, 1, 62, 100
3, 77040, Note_on_c, 1, 66, 100
3, 77040, Note_on_c, 1, 69, 100
3, 77680, Note_off_c, 1, 69, 64
3, 77680, Note_off_c, 1, 66, 64
3, 77680, Note_off_c, 1, 62, 64
3, 78720, Note_on_c, 1, 57, 100
3, 78720, Note_on_c, 1, 62, 100
3, 79120, Note_off_c, 1, 62, 64
3, 79120, Note_off_c, 1, 57, 64
3, 79200, Note_on_c, 1, 57, 100
3, 79200, Note_on_c, 1, 62, 100
3, 79435, Note_off_c, 1, 62, 64
3, 79435, Note_off_c, 1, 57, 64
3, 79440, Note_on_c, 1, 55, 100
3, 79675, Note_off_c, 1, 55, 64
3, 79680, Note_on_c, 1, 57, 100
3, 79680, Note_on_c, 1, 62, 100
3, 79915, Note_off_c, 1, 62, 64
3, 79915, Note_off_c, 1, 57, 64
3, 79920, Note_on_c, 1, 55, 100
3, 79920, Control_c, 1, 10, 127
3, 80155, Note_off_c, 1, 55, 64
3, 80160, Note_on_c, 1, 52, 100
3, 80160, Control_c, 1, 10, 0
3, 80395, Note_off_c, 1, 52, 64
3, 80400, Note_on_c, 1, 50, 100
3, 80400, Control_c, 1, 10, 127
3, 80635, Note_off_c, 1, 50, 64
3, 80640, Control_c, 1, 10, 64
3, 80880, Note_on_c, 1, 50, 100
3, 80880, Note_on_c, 1, 55, 100
3, 81115, Note_off_c, 1, 55, 64
3, 81115, Note_off_c, 1, 50, 64
3, 81360, Note_on_c, 1, 50, 100
3, 81360, Note_on_c, 1, 55, 100
3, 82440, Note_off_c, 1, 55, 64
3, 82440, Note_off_c, 1, 50, 64
3, 82560, Note_on_c, 1, 57, 100
3, 82560, Note_on_c, 1, 62, 100
3, 82960, Note_off_c, 1, 62, 64
3, 82960, Note_off_c, 1, 57, 64
3, 83040, Note_on_c, 1, 57, 100
3, 83040, Note_on_c, 1, 62, 100
3, 83275, Note_off_c, 1, 62, 64
3, 83275, Note_off_c, 1, 57, 64
3, 83280, Note_on_c, 1, 55, 100
3, 83515, Note_off_c, 1, 55, 64
3, 83520, Note_on_c, 1, 57, 100
3, 83520, Note_on_c, 1, 62, 100
3, 83755, Note_off_c, 1, 62, 64
3, 83755, Note_off_c, 1, 57, 64
3, 83760, Note_on_c, 1, 55, 100
3, 83760, Control_c, 1, 10, 127
3, 83995, Note_off_c, 1, 55, 64
3, 84000, Note_on_c, 1, 52, 100
3, 84000, Control_c, 1, 10, 0
3, 84235, Note_off_c, 1, 52, 64
3, 84240, Note_on_c, 1, 50, 100
3, 84240, Control_c, 1, 10, 127
3, 84475, Note_off_c, 1, 50, 64
3, 84480, Control_c, 1, 10, 64
3, 84720, Note_on_c, 1, 50, 100
3, 84720, Note_on_c, 1, 55, 100
3, 84955, Note_off_c, 1, 55, 64
3, 84955, Note_off_c, 1, 50, 64
3, 85680, Note_on_c, 1, 50, 100
3, 85680, Note_on_c, 1, 55, 100
3, 85915, Note_off_c, 1, 55, 64
3, 85915, Note_off_c, 1, 50, 64
3, 86400, Note_on_c, 1, 57, 100
3, 86400, Note_on_c, 1, 62, 100
3, 86800, Note_off_c, 1, 62, 64
3, 86800, Note_off_c, 1, 57, 64
3, 86880, Note_on_c, 1, 57, 100
3, 86880, Note_on_c, 1, 62, 100
3, 87115, Note_off_c, 1, 62, 64
3, 87115, Note_off_c, 1, 57, 64
3, 87120, Note_on_c, 1, 55, 100
3, 87355, Note_off_c, 1, 55, 64
3, 87360, Note_on_c, 1, 57, 100
3, 87360, Note_on_c, 1, 62, 100
3, 87595, Note_off_c, 1, 62, 64
3, 87595, Note_off_c, 1, 57, 64
3, 87600, Note_on_c, 1, 55, 100
3, 87600, Control_c, 1, 10, 127
3, 87835, Note_off_c, 1, 55, 64
3, 87840, Note_on_c, 1, 52, 100
3, 87840, Control_c, 1, 10, 0
3, 88075, Note_off_c, 1, 52, 64
3, 88080, Note_on_c, 1, 50, 100
3, 88080, Control_c, 1, 10, 127
3, 88315, Note_off_c, 1, 50, 64
3, 88320, Control_c, 1, 10, 0
3, 88320, Control_c, 1, 10, 64
3, 88560, Note_on_c, 1, 61, 100
3, 88560, Note_on_c, 1, 65, 100
3, 88795, Note_off_c, 1, 65, 64
3, 88795, Note_off_c, 1, 61, 64
3, 88800, Note_on_c, 1, 62, 100
3, 88800, Note_on_c, 1, 66, 100
3, 89035, Note_off_c, 1, 66, 64
3, 89035, Note_off_c, 1, 62, 64
3, 89040, Note_on_c, 1, 62, 100
3, 89040, Note_on_c, 1, 66, 100
3, 89040, Note_on_c, 1, 71, 100
3, 90120, Note_off_c, 1, 71, 64
3, 90120, Note_off_c, 1, 66, 64
3, 90120, Note_off_c, 1, 62, 64
3, 90240, Note_on_c, 1, 60, 100
3, 90240, Note_on_c, 1, 64, 100
3, 90240, Note_on_c, 1, 67, 100
3, 90240, Control_c, 1, 10, 64
3, 90880, Note_off_c, 1, 67, 64
3, 90880, Note_off_c, 1, 64, 64
3, 90880, Note_off_c, 1, 60, 64
3, 90960, Note_on_c, 1, 60, 100
3, 90960, Note_on_c, 1, 65, 100
3, 90960, Note_on_c, 1, 69, 100
3, 91195, Note_off_c, 1, 69, 64
3, 91195, Note_off_c, 1, 65, 64
3, 91195, Note_off_c, 1, 60, 64
3, 91440, Note_on_c, 1, 60, 100
3, 91440, Note_on_c, 1, 65, 100
3, 91440, Note_on_c, 1, 69, 100
3, 91915, Note_off_c, 1, 69, 64
3, 91915, Note_off_c, 1, 65, 64
3, 91915, Note_off_c, 1, 60, 64
3, 91920, Note_on_c, 1, 60, 100
3, 91920, Note_on_c, 1, 65, 100
3, 91920, Note_on_c, 1, 69, 100
3, 92155, Note_off_c, 1, 69, 64
3, 92155, Note_off_c, 1, 65, 64
3, 92155, Note_off_c, 1, 60, 64
3, 92160, Note_on_c, 1, 60, 100
3, 92160, Note_on_c, 1, 64, 100
3, 92160, Note_on_c, 1, 67, 100
3, 92560, Note_off_c, 1, 67, 64
3, 92560, Note_off_c, 1, 64, 64
3, 92560, Note_off_c, 1, 60, 64
3, 94080, Note_on_c, 1, 59, 100
3, 94080, Note_on_c, 1, 64, 100
3, 94080, Note_on_c, 1, 69, 100
3, 94480, Note_off_c, 1, 69, 64
3, 94480, Note_off_c, 1, 64, 64
3, 94480, Note_off_c, 1, 59, 64
3, 94560, Note_on_c, 1, 59, 100
3, 94560, Note_on_c, 1, 64, 100
3, 94560, Note_on_c, 1, 69, 100
3, 94960, Note_off_c, 1, 69, 64
3, 94960, Note_off_c, 1, 64, 64
3, 94960, Note_off_c, 1, 59, 64
3, 95040, Note_on_c, 1, 59, 100
3, 95040, Note_on_c, 1, 64, 100
3, 95040, Note_on_c, 1, 69, 100
3, 95275, Note_off_c, 1, 69, 64
3, 95275, Note_off_c, 1, 64, 64
3, 95275, Note_off_c, 1, 59, 64
3, 95280, Note_on_c, 1, 67, 100
3, 95280, Control_c, 1, 10, 127
3, 95515, Note_off_c, 1, 67, 64
3, 95520, Note_on_c, 1, 64, 100
3, 95520, Control_c, 1, 10, 0
3, 95755, Note_off_c, 1, 64, 64
3, 95760, Note_on_c, 1, 62, 100
3, 95760, Control_c, 1, 10, 127
3, 95995, Note_off_c, 1, 62, 64
3, 96000, Control_c, 1, 10, 64
3, 96240, Note_on_c, 1, 62, 100
3, 96240, Note_on_c, 1, 67, 100
3, 96240, Note_on_c, 1, 71, 100
3, 96475, Note_off_c, 1, 71, 64
3, 96475, Note_off_c, 1, 67, 64
3, 96475, Note_off_c, 1, 62, 64
3, 96480, Note_on_c, 1, 62, 100
3, 96480, Note_on_c, 1, 67, 100
3, 96480, Note_on_c, 1, 71, 100
3, 96715, Note_off_c, 1, 71, 64
3, 96715, Note_off_c, 1, 67, 64
3, 96715, Note_off_c, 1, 62, 64
3, 96720, Note_on_c, 1, 62, 100
3, 96720, Note_on_c, 1, 67, 100
3, 96720, Note_on_c, 1, 71, 100
3, 97360, Note_off_c, 1, 71, 64
3, 97360, Note_off_c, 1, 67, 64
3, 97360, Note_off_c, 1, 62, 64
3, 97920, Note_on_c, 1, 59, 100
3, 97920, Note_on_c, 1, 64, 100
3, 97920, Note_on_c, 1, 69, 100
3, 98320, Note_off_c, 1, 69, 64
3, 98320, Note_off_c, 1, 64, 64
3, 98320, Note_off_c, 1, 59, 64
3, 98400, Note_on_c, 1, 59, 100
3, 98400, Note_on_c, 1, 64, 100
3, 98400, Note_on_c, 1, 69, 100
3, 98800, Note_off_c, 1, 69, 64
3, 98800, Note_off_c, 1, 64, 64
3, 98800, Note_off_c, 1, 59, 64
3, 98880, Note_on_c, 1, 59, 100
3, 98880, Note_on_c, 1, 64, 100
3, 98880, Note_on_c, 1, 69, 100
3, 99115, Note_off_c, 1, 69, 64
3, 99115, Note_off_c, 1, 64, 64
3, 99115, Note_off_c, 1, 59, 64
3, 99120, Note_on_c, 1, 67, 100
3, 99120, Control_c, 1, 10, 127
3, 99355, Note_off_c, 1, 67, 64
3, 99360, Note_on_c, 1, 64, 100
3, 99360, Control_c, 1, 10, 0
3, 99595, Note_off_c, 1, 64, 64
3, 99600, Note_on_c, 1, 62, 100
3, 99600, Control_c, 1, 10, 127
3, 99835, Note_off_c, 1, 62, 64
3, 99840, Control_c, 1, 10, 64
3, 100080, Note_on_c, 1, 62, 100
3, 100080, Note_on_c, 1, 67, 100
3, 100080, Note_on_c, 1, 71, 100
3, 100720, Note_off_c, 1, 71, 64
3, 100720, Note_off_c, 1, 67, 64
3, 100720, Note_off_c, 1, 62, 64
3, 101760, Note_on_c, 1, 59, 100
3, 101760, Note_on_c, 1, 64, 100
3, 101760, Note_on_c, 1, 69, 100
3, 102160, Note_off_c, 1, 69, 64
3, 102160, Note_off_c, 1, 64, 64
3, 102160, Note_off_c, 1, 59, 64
3, 102240, Note_on_c, 1, 59, 100
3, 102240, Note_on_c, 1, 64, 100
3, 102240, Note_on_c, 1, 69, 100
3, 102475, Note_off_c, 1, 69, 64
3, 102475, Note_off_c, 1, 64, 64
3, 102475, Note_off_c, 1, 59, 64
3, 102480, Note_on_c, 1, 59, 100
3, 102480, Note_on_c, 1, 64, 100
3, 102480, Note_on_c, 1, 69, 100
3, 102715, Note_off_c, 1, 69, 64
3, 102715, Note_off_c, 1, 64, 64
3, 102715, Note_off_c, 1, 59, 64
3, 102720, Note_on_c, 1, 59, 100
3, 102720, Note_on_c, 1, 64, 100
3, 102720, Note_on_c, 1, 69, 100
3, 102955, Note_off_c, 1, 69, 64
3, 102955, Note_off_c, 1, 64, 64
3, 102955, Note_off_c, 1, 59, 64
3, 102960, Note_on_c, 1, 67, 100
3, 103195, Note_off_c, 1, 67, 64
3, 103200, Note_on_c, 1, 64, 100
3, 103435, Note_off_c, 1, 64, 64
3, 103440, Note_on_c, 1, 62, 100
3, 103440, Note_on_c, 1, 66, 100
3, 103440, Note_on_c, 1, 71, 100
3, 104080, Note_off_c, 1, 71, 64
3, 104080, Note_off_c, 1, 66, 64
3, 104080, Note_off_c, 1, 62, 64
3, 104160, Note_on_c, 1, 62, 100
3, 104160, Note_on_c, 1, 66, 100
3, 104160, Note_on_c, 1, 71, 100
3, 104395, Note_off_c, 1, 71, 64
3, 104395, Note_off_c, 1, 66, 64
3, 104395, Note_off_c, 1, 62, 64
3, 104400, Note_on_c, 1, 62, 100
3, 104400, Note_on_c, 1, 66, 100
3, 104400, Note_on_c, 1, 71, 100
3, 104635, Note_off_c, 1, 71, 64
3, 104635, Note_off_c, 1, 66, 64
3, 104635, Note_off_c, 1, 62, 64
3, 104640, Note_on_c, 1, 62, 100
3, 104640, Note_on_c, 1, 66, 100
3, 104640, Note_on_c, 1, 71, 100
3, 104875, Note_off_c, 1, 71, 64
3, 104875, Note_off_c, 1, 66, 64
3, 104875, Note_off_c, 1, 62, 64
3, 104880, Note_on_c, 1, 69, 100
3, 104880, Control_c, 1, 10, 127
3, 105115, Note_off_c, 1, 69, 64
3, 105120, Note_on_c, 1, 67, 100
3, 105120, Control_c, 1, 10, 0
3, 105355, Note_off_c, 1, 67, 64
3, 105360, Note_on_c, 1, 60, 100
3, 105360, Note_on_c, 1, 65, 100
3, 105360, Note_on_c, 1, 69, 100
3, 105360, Control_c, 1, 10, 127
3, 105595, Note_off_c, 1, 69, 64
3, 105595, Note_off_c, 1, 65, 64
3, 105595, Note_off_c, 1, 60, 64
3, 105600, Note_on_c, 1, 60, 100
3, 105600, Note_on_c, 1, 65, 100
3, 105600, Note_on_c, 1, 69, 100
3, 105600, Control_c, 1, 10, 64
3, 105835, Note_off_c, 1, 69, 64
3, 105835, Note_off_c, 1, 65, 64
3, 105835, Note_off_c, 1, 60, 64
3, 105840, Note_on_c, 1, 60, 100
3, 105840, Note_on_c, 1, 64, 100
3, 105840, Note_on_c, 1, 67, 100
3, 106315, Note_off_c, 1, 67, 64
3, 106315, Note_off_c, 1, 64, 64
3, 106315, Note_off_c, 1, 60, 64
3, 106320, Note_on_c, 1, 60, 100
3, 106320, Note_on_c, 1, 65, 100
3, 106320, Note_on_c, 1, 69, 100
3, 106555, Note_off_c, 1, 69, 64
3, 106555, Note_off_c, 1, 65, 64
3, 106555, Note_off_c, 1, 60, 64
3, 106800, Note_on_c, 1, 60, 100
3, 106800, Note_on_c, 1, 65, 100
3, 106800, Note_on_c, 1, 69, 100
3, 107035, Note_off_c, 1, 69, 64
3, 107035, Note_off_c, 1, 65, 64
3, 107035, Note_off_c, 1, 60, 64
3, 107280, Note_on_c, 1, 60, 100
3, 107280, Note_on_c, 1, 65, 100
3, 107280, Note_on_c, 1, 69, 100
3, 107515, Note_off_c, 1, 69, 64
3, 107515, Note_off_c, 1, 65, 64
3, 107515, Note_off_c, 1, 60, 64
3, 107520, Note_on_c, 1, 60, 100
3, 107520, Note_on_c, 1, 64, 100
3, 107520, Note_on_c, 1, 67, 100
3, 107920, Note_off_c, 1, 67, 64
3, 107920, Note_off_c, 1, 64, 64
3, 107920, Note_off_c, 1, 60, 64
3, 109440, Note_on_c, 1, 59, 100
3, 109440, Note_on_c, 1, 64, 100
3, 109440, Note_on_c, 1, 69, 100
3, 109675, Note_off_c, 1, 69, 64
3, 109675, Note_off_c, 1, 64, 64
3, 109675, Note_off_c, 1, 59, 64
3, 109680, Note_on_c, 1, 59, 100
3, 109680, Note_on_c, 1, 64, 100
3, 109680, Note_on_c, 1, 69, 100
3, 109915, Note_off_c, 1, 69, 64
3, 109915, Note_off_c, 1, 64, 64
3, 109915, Note_off_c, 1, 59, 64
3, 109920, Note_on_c, 1, 59, 100
3, 109920, Note_on_c, 1, 64, 100
3, 109920, Note_on_c, 1, 69, 100
3, 110155, Note_off_c, 1, 69, 64
3, 110155, Note_off_c, 1, 64, 64
3, 110155, Note_off_c, 1, 59, 64
3, 110160, Note_on_c, 1, 59, 100
3, 110160, Note_on_c, 1, 64, 100
3, 110160, Note_on_c, 1, 69, 100
3, 110395, Note_off_c, 1, 69, 64
3, 110395, Note_off_c, 1, 64, 64
3, 110395, Note_off_c, 1, 59, 64
3, 110400, Note_on_c, 1, 59, 100
3, 110400, Note_on_c, 1, 64, 100
3, 110400, Note_on_c, 1, 69, 100
3, 110635, Note_off_c, 1, 69, 64
3, 110635, Note_off_c, 1, 64, 64
3, 110635, Note_off_c, 1, 59, 64
3, 110640, Note_on_c, 1, 67, 100
3, 110640, Control_c, 1, 10, 127
3, 110875, Note_off_c, 1, 67, 64
3, 110880, Note_on_c, 1, 64, 100
3, 110880, Control_c, 1, 10, 0
3, 111115, Note_off_c, 1, 64, 64
3, 111120, Note_on_c, 1, 62, 100
3, 111120, Control_c, 1, 10, 127
3, 111355, Note_off_c, 1, 62, 64
3, 111360, Note_on_c, 1, 62, 100
3, 111360, Note_on_c, 1, 67, 100
3, 111360, Note_on_c, 1, 71, 100
3, 111360, Control_c, 1, 10, 0
3, 111360, Control_c, 1, 10, 64
3, 111595, Note_off_c, 1, 71, 64
3, 111595, Note_off_c, 1, 67, 64
3, 111595, Note_off_c, 1, 62, 64
3, 111600, Note_on_c, 1, 62, 100
3, 111600, Note_on_c, 1, 67, 100
3, 111600, Note_on_c, 1, 71, 100
3, 112075, Note_off_c, 1, 71, 64
3, 112075, Note_off_c, 1, 67, 64
3, 112075, Note_off_c, 1, 62, 64
3, 112080, Note_on_c, 1, 62, 100
3, 112080, Note_on_c, 1, 67, 100
3, 112080, Note_on_c, 1, 71, 100
3, 112555, Note_off_c, 1, 71, 64
3, 112555, Note_off_c, 1, 67, 64
3, 112555, Note_off_c, 1, 62, 64
3, 112560, Note_on_c, 1, 69, 100
3, 112560, Control_c, 1, 10, 127
3, 112795, Note_off_c, 1, 69, 64
3, 112800, Note_on_c, 1, 69, 100
3, 112800, Control_c, 1, 10, 0
3, 113035, Note_off_c, 1, 69, 64
3, 113040, Note_on_c, 1, 69, 100
3, 113040, Control_c, 1, 10, 127
3, 113275, Note_off_c, 1, 69, 64
3, 113280, Note_on_c, 1, 59, 100
3, 113280, Note_on_c, 1, 64, 100
3, 113280, Note_on_c, 1, 69, 100
3, 113280, Control_c, 1, 10, 64
3, 113280, Control_c, 1, 10, 64
3, 113680, Note_off_c, 1, 69, 64
3, 113680, Note_off_c, 1, 64, 64
3, 113680, Note_off_c, 1, 59, 64
3, 113760, Note_on_c, 1, 59, 100
3, 113760, Note_on_c, 1, 64, 100
3, 113760, Note_on_c, 1, 69, 100
3, 114160, Note_off_c, 1, 69, 64
3, 114160, Note_off_c, 1, 64, 64
3, 114160, Note_off_c, 1, 59, 64
3, 114240, Note_on_c, 1, 59, 100
3, 114240, Note_on_c, 1, 64, 100
3, 114240, Note_on_c, 1, 69, 100
3, 114475, Note_off_c, 1, 69, 64
3, 114475, Note_off_c, 1, 64, 64
3, 114475, Note_off_c, 1, 59, 64
3, 114480, Note_on_c, 1, 67, 100
3, 114480, Control_c, 1, 10, 127
3, 114715, Note_off_c, 1, 67, 64
3, 114720, Note_on_c, 1, 64, 100
3, 114720, Control_c, 1, 10, 0
3, 114955, Note_off_c, 1, 64, 64
3, 114960, Note_on_c, 1, 74, 100
3, 114960, Control_c, 1, 10, 127
3, 115195, Note_off_c, 1, 74, 64
3, 115200, Control_c, 1, 10, 64
3, 115440, Note_on_c, 1, 62, 100
3, 115440, Note_on_c, 1, 67, 100
3, 115440, Note_on_c, 1, 71, 100
3, 116080, Note_off_c, 1, 71, 64
3, 116080, Note_off_c, 1, 67, 64
3, 116080, Note_off_c, 1, 62, 64
3, 117120, Note_on_c, 1, 59, 100
3, 117120, Note_on_c, 1, 64, 100
3, 117120, Note_on_c, 1, 69, 100
3, 117520, Note_off_c, 1, 69, 64
3, 117520, Note_off_c, 1, 64, 64
3, 117520, Note_off_c, 1, 59, 64
3, 117600, Note_on_c, 1, 59, 100
3, 117600, Note_on_c, 1, 64, 100
3, 117600, Note_on_c, 1, 69, 100
3, 117835, Note_off_c, 1, 69, 64
3, 117835, Note_off_c, 1, 64, 64
3, 117835, Note_off_c, 1, 59, 64
3, 117840, Note_on_c, 1, 59, 100
3, 117840, Note_on_c, 1, 64, 100
3, 117840, Note_on_c, 1, 69, 100
3, 118075, Note_off_c, 1, 69, 64
3, 118075, Note_off_c, 1, 64, 64
3, 118075, Note_off_c, 1, 59, 64
3, 118080, Note_on_c, 1, 59, 100
3, 118080, Note_on_c, 1, 64, 100
3, 118080, Note_on_c, 1, 69, 100
3, 118315, Note_off_c, 1, 69, 64
3, 118315, Note_off_c, 1, 64, 64
3, 118315, Note_off_c, 1, 59, 64
3, 118320, Note_on_c, 1, 67, 100
3, 118555, Note_off_c, 1, 67, 64
3, 118560, Note_on_c, 1, 64, 100
3, 118795, Note_off_c, 1, 64, 64
3, 118800, Note_on_c, 1, 62, 100
3, 118800, Note_on_c, 1, 66, 100
3, 118800, Note_on_c, 1, 71, 100
3, 119440, Note_off_c, 1, 71, 64
3, 119440, Note_off_c, 1, 66, 64
3, 119440, Note_off_c, 1, 62, 64
3, 119520, Note_on_c, 1, 62, 100
3, 119520, Note_on_c, 1, 66, 100
3, 119520, Note_on_c, 1, 71, 100
3, 119920, Note_off_c, 1, 71, 64
3, 119920, Note_off_c, 1, 66, 64
3, 119920, Note_off_c, 1, 62, 64
3, 120000, Note_on_c, 1, 62, 100
3, 120000, Note_on_c, 1, 66, 100
3, 120000, Note_on_c, 1, 71, 100
3, 120235, Note_off_c, 1, 71, 64
3, 120235, Note_off_c, 1, 66, 64
3, 120235, Note_off_c, 1, 62, 64
3, 120240, Note_on_c, 1, 69, 100
3, 120475, Note_off_c, 1, 69, 64
3, 120480, Note_on_c, 1, 67, 100
3, 120715, Note_off_c, 1, 67, 64
3, 120720, Note_on_c, 1, 60, 100
3, 120720, Note_on_c, 1, 65, 100
3, 120720, Note_on_c, 1, 69, 100
3, 121195, Note_off_c, 1, 69, 64
3, 121195, Note_off_c, 1, 65, 64
3, 121195, Note_off_c, 1, 60, 64
3, 121200, Note_on_c, 1, 60, 100
3, 121200, Note_on_c, 1, 64, 100
3, 121200, Note_on_c, 1, 67, 100
3, 121675, Note_off_c, 1, 67, 64
3, 121675, Note_off_c, 1, 64, 64
3, 121675, Note_off_c, 1, 60, 64
3, 121680, Note_on_c, 1, 60, 100
3, 121680, Note_on_c, 1, 65, 100
3, 121680, Note_on_c, 1, 69, 100
3, 121915, Note_off_c, 1, 69, 64
3, 121915, Note_off_c, 1, 65, 64
3, 121915, Note_off_c, 1, 60, 64
3, 122160, Note_on_c, 1, 60, 100
3, 122160, Note_on_c, 1, 65, 100
3, 122160, Note_on_c, 1, 69, 100
3, 122395, Note_off_c, 1, 69, 64
3, 122395, Note_off_c, 1, 65, 64
3, 122395, Note_off_c, 1, 60, 64
3, 122640, Note_on_c, 1, 60, 100
3, 122640, Note_on_c, 1, 65, 100
3, 122640, Note_on_c, 1, 69, 100
3, 122875, Note_off_c, 1, 69, 64
3, 122875, Note_off_c, 1, 65, 64
3, 122875, Note_off_c, 1, 60, 64
3, 122880, Note_on_c, 1, 60, 100
3, 122880, Note_on_c, 1, 64, 100
3, 122880, Note_on_c, 1, 67, 100
3, 123115, Note_off_c, 1, 67, 64
3, 123115, Note_off_c, 1, 64, 64
3, 123115, Note_off_c, 1, 60, 64
3, 123120, Note_on_c, 1, 62, 100
3, 123120, Note_on_c, 1, 67, 100
3, 123120, Note_on_c, 1, 71, 100
3, 123355, Note_off_c, 1, 71, 64
3, 123355, Note_off_c, 1, 67, 64
3, 123355, Note_off_c, 1, 62, 64
3, 123360, Note_on_c, 1, 62, 100
3, 123360, Note_on_c, 1, 67, 100
3, 123360, Note_on_c, 1, 71, 100
3, 123595, Note_off_c, 1, 71, 64
3, 123595, Note_off_c, 1, 67, 64
3, 123595, Note_off_c, 1, 62, 64
3, 123600, Note_on_c, 1, 62, 100
3, 123600, Note_on_c, 1, 67, 100
3, 123600, Note_on_c, 1, 71, 100
3, 123835, Note_off_c, 1, 71, 64
3, 123835, Note_off_c, 1, 67, 64
3, 123835, Note_off_c, 1, 62, 64
3, 123840, Note_on_c, 1, 62, 100
3, 123840, Note_on_c, 1, 67, 100
3, 123840, Note_on_c, 1, 71, 100
3, 124075, Note_off_c, 1, 71, 64
3, 124075, Note_off_c, 1, 67, 64
3, 124075, Note_off_c, 1, 62, 64
3, 124080, Note_on_c, 1, 62, 100
3, 124080, Note_on_c, 1, 67, 100
3, 124080, Note_on_c, 1, 71, 100
3, 124315, Note_off_c, 1, 71, 64
3, 124315, Note_off_c, 1, 67, 64
3, 124315, Note_off_c, 1, 62, 64
3, 124320, Note_on_c, 1, 62, 100
3, 124320, Note_on_c, 1, 67, 100
3, 124320, Note_on_c, 1, 71, 100
3, 124555, Note_off_c, 1, 71, 64
3, 124555, Note_off_c, 1, 67, 64
3, 124555, Note_off_c, 1, 62, 64
3, 124560, Note_on_c, 1, 62, 100
3, 124560, Note_on_c, 1, 67, 100
3, 124560, Note_on_c, 1, 71, 100
3, 124795, Note_off_c, 1, 71, 64
3, 124795, Note_off_c, 1, 67, 64
3, 124795, Note_off_c, 1, 62, 64
3, 124800, Note_on_c, 1, 62, 100
3, 124800, Note_on_c, 1, 67, 100
3, 124800, Note_on_c, 1, 71, 100
3, 125440, Note_off_c, 1, 71, 64
3, 125440, Note_off_c, 1, 67, 64
3, 125440, Note_off_c, 1, 62, 64
3, 125520, Note_on_c, 1, 62, 100
3, 125520, Note_on_c, 1, 67, 100
3, 125520, Note_on_c, 1, 71, 100
3, 125755, Note_off_c, 1, 71, 64
3, 125755, Note_off_c, 1, 67, 64
3, 125755, Note_off_c, 1, 62, 64
3, 126240, Note_on_c, 1, 62, 100
3, 126240, Note_on_c, 1, 67, 100
3, 126240, Note_on_c, 1, 71, 100
3, 126955, Note_off_c, 1, 71, 64
3, 126955, Note_off_c, 1, 67, 64
3, 126955, Note_off_c, 1, 62, 64
3, 126960, Note_on_c, 1, 60, 100
3, 126960, Note_on_c, 1, 65, 100
3, 126960, Note_on_c, 1, 69, 100
3, 127195, Note_off_c, 1, 69, 64
3, 127195, Note_off_c, 1, 65, 64
3, 127195, Note_off_c, 1, 60, 64
3, 127440, Note_on_c, 1, 60, 100
3, 127440, Note_on_c, 1, 65, 100
3, 127440, Note_on_c, 1, 69, 100
3, 127675, Note_off_c, 1, 69, 64
3, 127675, Note_off_c, 1, 65, 64
3, 127675, Note_off_c, 1, 60, 64
3, 127680, Note_on_c, 1, 67, 100
3, 127680, Note_on_c, 1, 71, 100
3, 127680, Note_on_c, 1, 74, 100
3, 128080, Note_off_c, 1, 74, 64
3, 128080, Note_off_c, 1, 71, 64
3, 128080, Note_off_c, 1, 67, 64
3, 128160, Note_on_c, 1, 65, 100
3, 128160, Note_on_c, 1, 69, 100
3, 128160, Note_on_c, 1, 72, 100
3, 128560, Note_off_c, 1, 72, 64
3, 128560, Note_off_c, 1, 69, 64
3, 128560, Note_off_c, 1, 65, 64
3, 128640, Note_on_c, 1, 62, 100
3, 128640, Note_on_c, 1, 67, 100
3, 128640, Note_on_c, 1, 71, 100
3, 129040, Note_off_c, 1, 71, 64
3, 129040, Note_off_c, 1, 67, 64
3, 129040, Note_off_c, 1, 62, 64
3, 129120, Note_on_c, 1, 64, 100
3, 129120, Note_on_c, 1, 69, 100
3, 129120, Note_on_c, 1, 72, 100
3, 129355, Note_off_c, 1, 72, 64
3, 129355, Note_off_c, 1, 69, 64
3, 129355, Note_off_c, 1, 64, 64
3, 129360, Note_on_c, 1, 62, 100
3, 129360, Note_on_c, 1, 67, 100
3, 129360, Note_on_c, 1, 71, 100
3, 129835, Note_off_c, 1, 71, 64
3, 129835, Note_off_c, 1, 67, 64
3, 129835, Note_off_c, 1, 62, 64
3, 129840, Note_on_c, 1, 64, 100
3, 129840, Note_on_c, 1, 69, 100
3, 129840, Note_on_c, 1, 72, 100
3, 130075, Note_off_c, 1, 72, 64
3, 130075, Note_off_c, 1, 69, 64
3, 130075, Note_off_c, 1, 64, 64
3, 130080, Note_on_c, 1, 62, 100
3, 130080, Note_on_c, 1, 67, 100
3, 130080, Note_on_c, 1, 71, 100
3, 130315, Note_off_c, 1, 71, 64
3, 130315, Note_off_c, 1, 67, 64
3, 130315, Note_off_c, 1, 62, 64
3, 130320, Note_on_c, 1, 60, 100
3, 130320, Note_on_c, 1, 65, 100
3, 130320, Note_on_c, 1, 69, 100
3, 130960, Note_off_c, 1, 69, 64
3, 130960, Note_off_c, 1, 65, 64
3, 130960, Note_off_c, 1, 60, 64
3, 131280, Note_on_c, 1, 62, 100
3, 131280, Note_on_c, 1, 67, 100
3, 131280, Note_on_c, 1, 71, 100
3, 131515, Note_off_c, 1, 71, 64
3, 131515, Note_off_c, 1, 67, 64
3, 131515, Note_off_c, 1, 62, 64
3, 131520, Note_on_c, 1, 62, 100
3, 131520, Note_on_c, 1, 67, 100
3, 131520, Note_on_c, 1, 71, 100
3, 131755, Note_off_c, 1, 71, 64
3, 131755, Note_off_c, 1, 67, 64
3, 131755, Note_off_c, 1, 62, 64
3, 131760, Note_on_c, 1, 62, 100
3, 131760, Note_on_c, 1, 67, 100
3, 131760, Note_on_c, 1, 71, 100
3, 131995, Note_off_c, 1, 71, 64
3, 131995, Note_off_c, 1, 67, 64
3, 131995, Note_off_c, 1, 62, 64
3, 132000, Note_on_c, 1, 62, 100
3, 132000, Note_on_c, 1, 67, 100
3, 132000, Note_on_c, 1, 71, 100
3, 132235, Note_off_c, 1, 71, 64
3, 132235, Note_off_c, 1, 67, 64
3, 132235, Note_off_c, 1, 62, 64
3, 132240, Note_on_c, 1, 62, 100
3, 132240, Note_on_c, 1, 67, 100
3, 132240, Note_on_c, 1, 71, 100
3, 132475, Note_off_c, 1, 71, 64
3, 132475, Note_off_c, 1, 67, 64
3, 132475, Note_off_c, 1, 62, 64
3, 132480, Note_on_c, 1, 62, 100
3, 132480, Note_on_c, 1, 67, 100
3, 132480, Note_on_c, 1, 71, 100
3, 133120, Note_off_c, 1, 71, 64
3, 133120, Note_off_c, 1, 67, 64
3, 133120, Note_off_c, 1, 62, 64
3, 133200, Note_on_c, 1, 62, 100
3, 133200, Note_on_c, 1, 67, 100
3, 133200, Note_on_c, 1, 71, 100
3, 133435, Note_off_c, 1, 71, 64
3, 133435, Note_off_c, 1, 67, 64
3, 133435, Note_off_c, 1, 62, 64
3, 133920, Note_on_c, 1, 62, 100
3, 133920, Note_on_c, 1, 67, 100
3, 133920, Note_on_c, 1, 71, 100
3, 134635, Note_off_c, 1, 71, 64
3, 134635, Note_off_c, 1, 67, 64
3, 134635, Note_off_c, 1, 62, 64
3, 134640, Note_on_c, 1, 60, 100
3, 134640, Note_on_c, 1, 65, 100
3, 134640, Note_on_c, 1, 69, 100
3, 135280, Note_off_c, 1, 69, 64
3, 135280, Note_off_c, 1, 65, 64
3, 135280, Note_off_c, 1, 60, 64
3, 135360, Note_on_c, 1, 67, 100
3, 135360, Note_on_c, 1, 71, 100
3, 135360, Note_on_c, 1, 74, 100
3, 135760, Note_off_c, 1, 74, 64
3, 135760, Note_off_c, 1, 71, 64
3, 135760, Note_off_c, 1, 67, 64
3, 135840, Note_on_c, 1, 64, 100
3, 135840, Note_on_c, 1, 69, 100
3, 135840, Note_on_c, 1, 72, 100
3, 136240, Note_off_c, 1, 72, 64
3, 136240, Note_off_c, 1, 69, 64
3, 136240, Note_off_c, 1, 64, 64
3, 136320, Note_on_c, 1, 62, 100
3, 136320, Note_on_c, 1, 67, 100
3, 136320, Note_on_c, 1, 71, 100
3, 136720, Note_off_c, 1, 71, 64
3, 136720, Note_off_c, 1, 67, 64
3, 136720, Note_off_c, 1, 62, 64
3, 136800, Note_on_c, 1, 64, 100
3, 136800, Note_on_c, 1, 69, 100
3, 136800, Note_on_c, 1, 72, 100
3, 137035, Note_off_c, 1, 72, 64
3, 137035, Note_off_c, 1, 69, 64
3, 137035, Note_off_c, 1, 64, 64
3, 137040, Note_on_c, 1, 62, 100
3, 137040, Note_on_c, 1, 67, 100
3, 137040, Note_on_c, 1, 71, 100
3, 137515, Note_off_c, 1, 71, 64
3, 137515, Note_off_c, 1, 67, 64
3, 137515, Note_off_c, 1, 62, 64
3, 137520, Note_on_c, 1, 60, 100
3, 137520, Note_on_c, 1, 65, 100
3, 137520, Note_on_c, 1, 69, 100
3, 137995, Note_off_c, 1, 69, 64
3, 137995, Note_off_c, 1, 65, 64
3, 137995, Note_off_c, 1, 60, 64
3, 138000, Note_on_c, 1, 60, 100
3, 138000, Note_on_c, 1, 65, 100
3, 138000, Note_on_c, 1, 69, 100
3, 138235, Note_off_c, 1, 69, 64
3, 138235, Note_off_c, 1, 65, 64
3, 138235, Note_off_c, 1, 60, 64
3, 138240, Note_on_c, 1, 60, 100
3, 138240, Note_on_c, 1, 64, 100
3, 138240, Note_on_c, 1, 67, 100
3, 138640, Note_off_c, 1, 67, 64
3, 138640, Note_off_c, 1, 64, 64
3, 138640, Note_off_c, 1, 60, 64
3, 138960, Note_on_c, 1, 62, 100
3, 138960, Note_on_c, 1, 67, 100
3, 138960, Note_on_c, 1, 71, 100
3, 139195, Note_off_c, 1, 71, 64
3, 139195, Note_off_c, 1, 67, 64
3, 139195, Note_off_c, 1, 62, 64
3, 139200, Note_on_c, 1, 62, 100
3, 139200, Note_on_c, 1, 67, 100
3, 139200, Note_on_c, 1, 71, 100
3, 139435, Note_off_c, 1, 71, 64
3, 139435, Note_off_c, 1, 67, 64
3, 139435, Note_off_c, 1, 62, 64
3, 139440, Note_on_c, 1, 62, 100
3, 139440, Note_on_c, 1, 67, 100
3, 139440, Note_on_c, 1, 71, 100
3, 139675, Note_off_c, 1, 71, 64
3, 139675, Note_off_c, 1, 67, 64
3, 139675, Note_off_c, 1, 62, 64
3, 139680, Note_on_c, 1, 62, 100
3, 139680, Note_on_c, 1, 67, 100
3, 139680, Note_on_c, 1, 71, 100
3, 139915, Note_off_c, 1, 71, 64
3, 139915, Note_off_c, 1, 67, 64
3, 139915, Note_off_c, 1, 62, 64
3, 139920, Note_on_c, 1, 62, 100
3, 139920, Note_on_c, 1, 67, 100
3, 139920, Note_on_c, 1, 71, 100
3, 140155, Note_off_c, 1, 71, 64
3, 140155, Note_off_c, 1, 67, 64
3, 140155, Note_off_c, 1, 62, 64
3, 140160, Note_on_c, 1, 62, 100
3, 140160, Note_on_c, 1, 67, 100
3, 140160, Note_on_c, 1, 71, 100
3, 140800, Note_off_c, 1, 71, 64
3, 140800, Note_off_c, 1, 67, 64
3, 140800, Note_off_c, 1, 62, 64
3, 140880, Note_on_c, 1, 60, 100
3, 140880, Note_on_c, 1, 65, 100
3, 140880, Note_on_c, 1, 69, 100
3, 141115, Note_off_c, 1, 69, 64
3, 141115, Note_off_c, 1, 65, 64
3, 141115, Note_off_c, 1, 60, 64
3, 141600, Note_on_c, 1, 62, 100
3, 141600, Note_on_c, 1, 67, 100
3, 141600, Note_on_c, 1, 71, 100
3, 142315, Note_off_c, 1, 71, 64
3, 142315, Note_off_c, 1, 67, 64
3, 142315, Note_off_c, 1, 62, 64
3, 142320, Note_on_c, 1, 60, 100
3, 142320, Note_on_c, 1, 65, 100
3, 142320, Note_on_c, 1, 69, 100
3, 142555, Note_off_c, 1, 69, 64
3, 142555, Note_off_c, 1, 65, 64
3, 142555, Note_off_c, 1, 60, 64
3, 142800, Note_on_c, 1, 60, 100
3, 142800, Note_on_c, 1, 65, 100
3, 142800, Note_on_c, 1, 69, 100
3, 143035, Note_off_c, 1, 69, 64
3, 143035, Note_off_c, 1, 65, 64
3, 143035, Note_off_c, 1, 60, 64
3, 143040, Note_on_c, 1, 67, 100
3, 143040, Note_on_c, 1, 71, 100
3, 143040, Note_on_c, 1, 74, 100
3, 143440, Note_off_c, 1, 74, 64
3, 143440, Note_off_c, 1, 71, 64
3, 143440, Note_off_c, 1, 67, 64
3, 143520, Note_on_c, 1, 64, 100
3, 143520, Note_on_c, 1, 69, 100
3, 143520, Note_on_c, 1, 72, 100
3, 143920, Note_off_c, 1, 72, 64
3, 143920, Note_off_c, 1, 69, 64
3, 143920, Note_off_c, 1, 64, 64
3, 144000, Note_on_c, 1, 62, 100
3, 144000, Note_on_c, 1, 67, 100
3, 144000, Note_on_c, 1, 71, 100
3, 144400, Note_off_c, 1, 71, 64
3, 144400, Note_off_c, 1, 67, 64
3, 144400, Note_off_c, 1, 62, 64
3, 144480, Note_on_c, 1, 64, 100
3, 144480, Note_on_c, 1, 69, 100
3, 144480, Note_on_c, 1, 72, 100
3, 144715, Note_off_c, 1, 72, 64
3, 144715, Note_off_c, 1, 69, 64
3, 144715, Note_off_c, 1, 64, 64
3, 144720, Note_on_c, 1, 62, 100
3, 144720, Note_on_c, 1, 67, 100
3, 144720, Note_on_c, 1, 71, 100
3, 145195, Note_off_c, 1, 71, 64
3, 145195, Note_off_c, 1, 67, 64
3, 145195, Note_off_c, 1, 62, 64
3, 145200, Note_on_c, 1, 64, 100
3, 145200, Note_on_c, 1, 69, 100
3, 145200, Note_on_c, 1, 72, 100
3, 145435, Note_off_c, 1, 72, 64
3, 145435, Note_off_c, 1, 69, 64
3, 145435, Note_off_c, 1, 64, 64
3, 145440, Note_on_c, 1, 62, 100
3, 145440, Note_on_c, 1, 67, 100
3, 145440, Note_on_c, 1, 71, 100
3, 145675, Note_off_c, 1, 71, 64
3, 145675, Note_off_c, 1, 67, 64
3, 145675, Note_off_c, 1, 62, 64
3, 145680, Note_on_c, 1, 60, 100
3, 145680, Note_on_c, 1, 65, 100
3, 145680, Note_on_c, 1, 69, 100
3, 146320, Note_off_c, 1, 69, 64
3, 146320, Note_off_c, 1, 65, 64
3, 146320, Note_off_c, 1, 60, 64
3, 146640, Note_on_c, 1, 60, 100
3, 146640, Note_on_c, 1, 65, 100
3, 146640, Note_on_c, 1, 69, 100
3, 146875, Note_off_c, 1, 69, 64
3, 146875, Note_off_c, 1, 65, 64
3, 146875, Note_off_c, 1, 60, 64
3, 146880, Note_on_c, 1, 60, 100
3, 146880, Note_on_c, 1, 65, 100
3, 146880, Note_on_c, 1, 69, 100
3, 147115, Note_off_c, 1, 69, 64
3, 147115, Note_off_c, 1, 65, 64
3, 147115, Note_off_c, 1, 60, 64
3, 147120, Note_on_c, 1, 60, 100
3, 147120, Note_on_c, 1, 65, 100
3, 147120, Note_on_c, 1, 69, 100
3, 147355, Note_off_c, 1, 69, 64
3, 147355, Note_off_c, 1, 65, 64
3, 147355, Note_off_c, 1, 60, 64
3, 147360, Note_on_c, 1, 60, 100
3, 147360, Note_on_c, 1, 65, 100
3, 147360, Note_on_c, 1, 69, 100
3, 147595, Note_off_c, 1, 69, 64
3, 147595, Note_off_c, 1, 65, 64
3, 147595, Note_off_c, 1, 60, 64
3, 147600, Note_on_c, 1, 60, 100
3, 147600, Note_on_c, 1, 65, 100
3, 147600, Note_on_c, 1, 69, 100
3, 147835, Note_off_c, 1, 69, 64
3, 147835, Note_off_c, 1, 65, 64
3, 147835, Note_off_c, 1, 60, 64
3, 147840, Note_on_c, 1, 60, 100
3, 147840, Note_on_c, 1, 65, 100
3, 147840, Note_on_c, 1, 69, 100
3, 148480, Note_off_c, 1, 69, 64
3, 148480, Note_off_c, 1, 65, 64
3, 148480, Note_off_c, 1, 60, 64
3, 148560, Note_on_c, 1, 60, 100
3, 148560, Note_on_c, 1, 64, 100
3, 148560, Note_on_c, 1, 67, 100
3, 148795, Note_off_c, 1, 67, 64
3, 148795, Note_off_c, 1, 64, 64
3, 148795, Note_off_c, 1, 60, 64
3, 149280, Note_on_c, 1, 60, 100
3, 149280, Note_on_c, 1, 65, 100
3, 149280, Note_on_c, 1, 69, 100
3, 149995, Note_off_c, 1, 69, 64
3, 149995, Note_off_c, 1, 65, 64
3, 149995, Note_off_c, 1, 60, 64
3, 150000, Note_on_c, 1, 60, 100
3, 150000, Note_on_c, 1, 64, 100
3, 150000, Note_on_c, 1, 67, 100
3, 150235, Note_off_c, 1, 67, 64
3, 150235, Note_off_c, 1, 64, 64
3, 150235, Note_off_c, 1, 60, 64
3, 150480, Note_on_c, 1, 62, 100
3, 150480, Note_on_c, 1, 67, 100
3, 150715, Note_off_c, 1, 67, 64
3, 150715, Note_off_c, 1, 62, 64
3, 150720, Note_on_c, 1, 62, 100
3, 150720, Note_on_c, 1, 69, 100
3, 150955, Note_off_c, 1, 69, 64
3, 150955, Note_off_c, 1, 62, 64
3, 150960, Note_on_c, 1, 62, 100
3, 150960, Note_on_c, 1, 67, 100
3, 150960, Note_on_c, 1, 71, 100
3, 151195, Note_off_c, 1, 71, 64
3, 151195, Note_off_c, 1, 67, 64
3, 151195, Note_off_c, 1, 62, 64
3, 151200, Note_on_c, 1, 62, 100
3, 151200, Note_on_c, 1, 67, 100
3, 151200, Note_on_c, 1, 71, 100
3, 151435, Note_off_c, 1, 71, 64
3, 151435, Note_off_c, 1, 67, 64
3, 151435, Note_off_c, 1, 62, 64
3, 151440, Note_on_c, 1, 62, 100
3, 151440, Note_on_c, 1, 67, 100
3, 151440, Note_on_c, 1, 71, 100
3, 151675, Note_off_c, 1, 71, 64
3, 151675, Note_off_c, 1, 67, 64
3, 151675, Note_off_c, 1, 62, 64
3, 151680, Note_on_c, 1, 62, 100
3, 151680, Note_on_c, 1, 67, 100
3, 151680, Note_on_c, 1, 71, 100
3, 152320, Note_off_c, 1, 71, 64
3, 152320, Note_off_c, 1, 67, 64
3, 152320, Note_off_c, 1, 62, 64
3, 152400, Note_on_c, 1, 62, 100
3, 152400, Note_on_c, 1, 66, 100
3, 152400, Note_on_c, 1, 69, 100
3, 152635, Note_off_c, 1, 69, 64
3, 152635, Note_off_c, 1, 66, 64
3, 152635, Note_off_c, 1, 62, 64
3, 153120, Note_on_c, 1, 62, 100
3, 153120, Note_on_c, 1, 67, 100
3, 153120, Note_on_c, 1, 71, 100
3, 153835, Note_off_c, 1, 71, 64
3, 153835, Note_off_c, 1, 67, 64
3, 153835, Note_off_c, 1, 62, 64
3, 153840, Note_on_c, 1, 62, 100
3, 153840, Note_on_c, 1, 66, 100
3, 153840, Note_on_c, 1, 69, 100
3, 154480, Note_off_c, 1, 69, 64
3, 154480, Note_off_c, 1, 66, 64
3, 154480, Note_off_c, 1, 62, 64
3, 154560, Note_on_c, 1, 62, 100
3, 154560, Note_on_c, 1, 66, 100
3, 154560, Note_on_c, 1, 69, 100
3, 154795, Note_off_c, 1, 69, 64
3, 154795, Note_off_c, 1, 66, 64
3, 154795, Note_off_c, 1, 62, 64
3, 154800, Note_on_c, 1, 62, 100
3, 154800, Note_on_c, 1, 67, 100
3, 154800, Note_on_c, 1, 71, 100
3, 155440, Note_off_c, 1, 71, 64
3, 155440, Note_off_c, 1, 67, 64
3, 155440, Note_off_c, 1, 62, 64
3, 155520, Control_c, 1, 10, 0
3, 156240, Note_on_c, 1, 65, 100
3, 156240, Note_on_c, 1, 69, 100
3, 156240, Note_on_c, 1, 72, 100
3, 156475, Note_off_c, 1, 72, 64
3, 156475, Note_off_c, 1, 69, 64
3, 156475, Note_off_c, 1, 65, 64
3, 156720, Note_on_c, 1, 69, 100
3, 156720, Note_on_c, 1, 72, 100
3, 156720, Note_on_c, 1, 77, 100
3, 156955, Note_off_c, 1, 77, 64
3, 156955, Note_off_c, 1, 72, 64
3, 156955, Note_off_c, 1, 69, 64
3, 157200, Note_on_c, 1, 74, 100
3, 157435, Note_off_c, 1, 74, 64
3, 157440, Note_on_c, 1, 67, 100
3, 157440, Note_on_c, 1, 76, 100
3, 157675, Note_off_c, 1, 76, 64
3, 157675, Note_off_c, 1, 67, 64
3, 157680, Note_on_c, 1, 72, 100
3, 157915, Note_off_c, 1, 72, 64
3, 157920, Note_on_c, 1, 65, 100
3, 157920, Note_on_c, 1, 74, 100
3, 158155, Note_off_c, 1, 74, 64
3, 158155, Note_off_c, 1, 65, 64
3, 158160, Note_on_c, 1, 64, 100
3, 158160, Note_on_c, 1, 72, 100
3, 158800, Note_off_c, 1, 72, 64
3, 158800, Note_off_c, 1, 64, 64
3, 159360, Control_c, 1, 10, 127
3, 160080, Note_on_c, 1, 62, 100
3, 160080, Note_on_c, 1, 67, 100
3, 160080, Note_on_c, 1, 71, 100
3, 160315, Note_off_c, 1, 71, 64
3, 160315, Note_off_c, 1, 67, 64
3, 160315, Note_off_c, 1, 62, 64
3, 160560, Note_on_c, 1, 67, 100
3, 160560, Note_on_c, 1, 71, 100
3, 160560, Note_on_c, 1, 76, 100
3, 160795, Note_off_c, 1, 76, 64
3, 160795, Note_off_c, 1, 71, 64
3, 160795, Note_off_c, 1, 67, 64
3, 161040, Note_on_c, 1, 71, 100
3, 161275, Note_off_c, 1, 71, 64
3, 161280, Note_on_c, 1, 66, 100
3, 161280, Note_on_c, 1, 74, 100
3, 161680, Note_off_c, 1, 74, 64
3, 161680, Note_off_c, 1, 66, 64
3, 162480, Note_on_c, 1, 62, 100
3, 162480, Note_on_c, 1, 66, 100
3, 162480, Note_on_c, 1, 69, 100
3, 163120, Note_off_c, 1, 69, 64
3, 163120, Note_off_c, 1, 66, 64
3, 163120, Note_off_c, 1, 62, 64
3, 163200, Control_c, 1, 10, 0
3, 163440, Note_on_c, 1, 60, 100
3, 163440, Note_on_c, 1, 65, 100
3, 163440, Note_on_c, 1, 69, 100
3, 163675, Note_off_c, 1, 69, 64
3, 163675, Note_off_c, 1, 65, 64
3, 163675, Note_off_c, 1, 60, 64
3, 163920, Note_on_c, 1, 65, 100
3, 163920, Note_on_c, 1, 69, 100
3, 163920, Note_on_c, 1, 72, 100
3, 164155, Note_off_c, 1, 72, 64
3, 164155, Note_off_c, 1, 69, 64
3, 164155, Note_off_c, 1, 65, 64
3, 164400, Note_on_c, 1, 69, 100
3, 164400, Note_on_c, 1, 72, 100
3, 164400, Note_on_c, 1, 77, 100
3, 164635, Note_off_c, 1, 77, 64
3, 164635, Note_off_c, 1, 72, 64
3, 164635, Note_off_c, 1, 69, 64
3, 164880, Note_on_c, 1, 74, 100
3, 165115, Note_off_c, 1, 74, 64
3, 165120, Note_on_c, 1, 67, 100
3, 165120, Note_on_c, 1, 76, 100
3, 165355, Note_off_c, 1, 76, 64
3, 165355, Note_off_c, 1, 67, 64
3, 165360, Note_on_c, 1, 72, 100
3, 165595, Note_off_c, 1, 72, 64
3, 165600, Note_on_c, 1, 65, 100
3, 165600, Note_on_c, 1, 74, 100
3, 165835, Note_off_c, 1, 74, 64
3, 165835, Note_off_c, 1, 65, 64
3, 165840, Note_on_c, 1, 64, 100
3, 165840, Note_on_c, 1, 72, 100
3, 166480, Note_off_c, 1, 72, 64
3, 166480, Note_off_c, 1, 64, 64
3, 167040, Control_c, 1, 10, 127
3, 167280, Note_on_c, 1, 59, 100
3, 167280, Note_on_c, 1, 62, 100
3, 167280, Note_on_c, 1, 67, 100
3, 167515, Note_off_c, 1, 67, 64
3, 167515, Note_off_c, 1, 62, 64
3, 167515, Note_off_c, 1, 59, 64
3, 167760, Note_on_c, 1, 62, 100
3, 167760, Note_on_c, 1, 67, 100
3, 167760, Note_on_c, 1, 71, 100
3, 167995, Note_off_c, 1, 71, 64
3, 167995, Note_off_c, 1, 67, 64
3, 167995, Note_off_c, 1, 62, 64
3, 168240, Note_on_c, 1, 67, 100
3, 168240, Note_on_c, 1, 71, 100
3, 168240, Note_on_c, 1, 76, 100
3, 168475, Note_off_c, 1, 76, 64
3, 168475, Note_off_c, 1, 71, 64
3, 168475, Note_off_c, 1, 67, 64
3, 168720, Note_on_c, 1, 71, 100
3, 168955, Note_off_c, 1, 71, 64
3, 168960, Note_on_c, 1, 74, 100
3, 169195, Note_off_c, 1, 74, 64
3, 169200, Note_on_c, 1, 62, 100
3, 169200, Note_on_c, 1, 66, 100
3, 169200, Note_on_c, 1, 69, 100
3, 169840, Note_off_c, 1, 69, 64
3, 169840, Note_off_c, 1, 66, 64
3, 169840, Note_off_c, 1, 62, 64
3, 170160, Note_on_c, 1, 62, 100
3, 170160, Note_on_c, 1, 66, 100
3, 170160, Note_on_c, 1, 69, 100
3, 170635, Note_off_c, 1, 69, 64
3, 170635, Note_off_c, 1, 66, 64
3, 170635, Note_off_c, 1, 62, 64
3, 170640, Note_on_c, 1, 59, 100
3, 170640, Note_on_c, 1, 64, 100
3, 170640, Note_on_c, 1, 69, 100
3, 170880, Control_c, 1, 10, 64
3, 171115, Note_off_c, 1, 69, 64
3, 171115, Note_off_c, 1, 64, 64
3, 171115, Note_off_c, 1, 59, 64
3, 171120, Note_on_c, 1, 59, 100
3, 171120, Note_on_c, 1, 64, 100
3, 171120, Note_on_c, 1, 69, 100
3, 171595, Note_off_c, 1, 69, 64
3, 171595, Note_off_c, 1, 64, 64
3, 171595, Note_off_c, 1, 59, 64
3, 171600, Note_on_c, 1, 59, 100
3, 171600, Note_on_c, 1, 64, 100
3, 171600, Note_on_c, 1, 69, 100
3, 172075, Note_off_c, 1, 69, 64
3, 172075, Note_off_c, 1, 64, 64
3, 172075, Note_off_c, 1, 59, 64
3, 172080, Note_on_c, 1, 69, 100
3, 172315, Note_off_c, 1, 69, 64
3, 172320, Note_on_c, 1, 67, 100
3, 172555, Note_off_c, 1, 67, 64
3, 172560, Note_on_c, 1, 62, 100
3, 172560, Note_on_c, 1, 67, 100
3, 172560, Note_on_c, 1, 71, 100
3, 173035, Note_off_c, 1, 71, 64
3, 173035, Note_off_c, 1, 67, 64
3, 173035, Note_off_c, 1, 62, 64
3, 173040, Note_on_c, 1, 62, 100
3, 173040, Note_on_c, 1, 67, 100
3, 173040, Note_on_c, 1, 71, 100
3, 173515, Note_off_c, 1, 71, 64
3, 173515, Note_off_c, 1, 67, 64
3, 173515, Note_off_c, 1, 62, 64
3, 173520, Note_on_c, 1, 62, 100
3, 173520, Note_on_c, 1, 67, 100
3, 173520, Note_on_c, 1, 71, 100
3, 173995, Note_off_c, 1, 71, 64
3, 173995, Note_off_c, 1, 67, 64
3, 173995, Note_off_c, 1, 62, 64
3, 174000, Note_on_c, 1, 69, 100
3, 174235, Note_off_c, 1, 69, 64
3, 174240, Note_on_c, 1, 69, 100
3, 174475, Note_off_c, 1, 69, 64
3, 174480, Note_on_c, 1, 59, 100
3, 174480, Note_on_c, 1, 64, 100
3, 174480, Note_on_c, 1, 69, 100
3, 174955, Note_off_c, 1, 69, 64
3, 174955, Note_off_c, 1, 64, 64
3, 174955, Note_off_c, 1, 59, 64
3, 174960, Note_on_c, 1, 59, 100
3, 174960, Note_on_c, 1, 64, 100
3, 174960, Note_on_c, 1, 69, 100
3, 175195, Note_off_c, 1, 69, 64
3, 175195, Note_off_c, 1, 64, 64
3, 175195, Note_off_c, 1, 59, 64
3, 175200, Note_on_c, 1, 59, 100
3, 175200, Note_on_c, 1, 64, 100
3, 175200, Note_on_c, 1, 69, 100
3, 175435, Note_off_c, 1, 69, 64
3, 175435, Note_off_c, 1, 64, 64
3, 175435, Note_off_c, 1, 59, 64
3, 175440, Note_on_c, 1, 59, 100
3, 175440, Note_on_c, 1, 64, 100
3, 175440, Note_on_c, 1, 69, 100
3, 175675, Note_off_c, 1, 69, 64
3, 175675, Note_off_c, 1, 64, 64
3, 175675, Note_off_c, 1, 59, 64
3, 176640, Note_on_c, 1, 62, 100
3, 176640, Note_on_c, 1, 67, 100
3, 176640, Note_on_c, 1, 71, 100
3, 177040, Note_off_c, 1, 71, 64
3, 177040, Note_off_c, 1, 67, 64
3, 177040, Note_off_c, 1, 62, 64
3, 177840, Note_on_c, 1, 67, 100
3, 177840, Note_on_c, 1, 71, 100
3, 177840, Note_on_c, 1, 74, 100
3, 178075, Note_off_c, 1, 74, 64
3, 178075, Note_off_c, 1, 71, 64
3, 178075, Note_off_c, 1, 67, 64
3, 178080, Note_on_c, 1, 67, 100
3, 178080, Note_on_c, 1, 71, 100
3, 178080, Note_on_c, 1, 74, 100
3, 178315, Note_off_c, 1, 74, 64
3, 178315, Note_off_c, 1, 71, 64
3, 178315, Note_off_c, 1, 67, 64
3, 178320, Note_on_c, 1, 67, 100
3, 178320, Note_on_c, 1, 71, 100
3, 178320, Note_on_c, 1, 74, 100
3, 178555, Note_off_c, 1, 74, 64
3, 178555, Note_off_c, 1, 71, 64
3, 178555, Note_off_c, 1, 67, 64
3, 178560, Note_on_c, 1, 67, 100
3, 178560, Note_on_c, 1, 71, 100
3, 178560, Note_on_c, 1, 76, 100
3, 178795, Note_off_c, 1, 76, 64
3, 178795, Note_off_c, 1, 71, 64
3, 178795, Note_off_c, 1, 67, 64
3, 178800, Note_on_c, 1, 67, 100
3, 178800, Note_on_c, 1, 71, 100
3, 178800, Note_on_c, 1, 76, 100
3, 179035, Note_off_c, 1, 76, 64
3, 179035, Note_off_c, 1, 71, 64
3, 179035, Note_off_c, 1, 67, 64
3, 179040, Note_on_c, 1, 67, 100
3, 179040, Note_on_c, 1, 71, 100
3, 179040, Note_on_c, 1, 76, 100
3, 179275, Note_off_c, 1, 76, 64
3, 179275, Note_off_c, 1, 71, 64
3, 179275, Note_off_c, 1, 67, 64
3, 179280, Note_on_c, 1, 67, 100
3, 179280, Note_on_c, 1, 71, 100
3, 179280, Note_on_c, 1, 76, 100
3, 179755, Note_off_c, 1, 76, 64
3, 179755, Note_off_c, 1, 71, 64
3, 179755, Note_off_c, 1, 67, 64
3, 179760, Note_on_c, 1, 67, 100
3, 179760, Note_on_c, 1, 71, 100
3, 179760, Note_on_c, 1, 74, 100
3, 179995, Note_off_c, 1, 74, 64
3, 179995, Note_off_c, 1, 71, 64
3, 179995, Note_off_c, 1, 67, 64
3, 180000, Note_on_c, 1, 67, 100
3, 180000, Note_on_c, 1, 71, 100
3, 180000, Note_on_c, 1, 74, 100
3, 180235, Note_off_c, 1, 74, 64
3, 180235, Note_off_c, 1, 71, 64
3, 180235, Note_off_c, 1, 67, 64
3, 180240, Note_on_c, 1, 67, 100
3, 180240, Note_on_c, 1, 71, 100
3, 180240, Note_on_c, 1, 74, 100
3, 180475, Note_off_c, 1, 74, 64
3, 180475, Note_off_c, 1, 71, 64
3, 180475, Note_off_c, 1, 67, 64
3, 180480, Note_on_c, 1, 71, 100
3, 180480, Note_on_c, 1, 79, 100
3, 180715, Note_off_c, 1, 79, 64
3, 180715, Note_off_c, 1, 71, 64
3, 180720, Note_on_c, 1, 62, 100
3, 180720, Note_on_c, 1, 66, 100
3, 180720, Note_on_c, 1, 69, 100
3, 180955, Note_off_c, 1, 69, 64
3, 180955, Note_off_c, 1, 66, 64
3, 180955, Note_off_c, 1, 62, 64
3, 180960, Note_on_c, 1, 62, 100
3, 180960, Note_on_c, 1, 66, 100
3, 180960, Note_on_c, 1, 69, 100
3, 181195, Note_off_c, 1, 69, 64
3, 181195, Note_off_c, 1, 66, 64
3, 181195, Note_off_c, 1, 62, 64
3, 181200, Note_on_c, 1, 62, 100
3, 181200, Note_on_c, 1, 66, 100
3, 181200, Note_on_c, 1, 69, 100
3, 181675, Note_off_c, 1, 69, 64
3, 181675, Note_off_c, 1, 66, 64
3, 181675, Note_off_c, 1, 62, 64
3, 181680, Note_on_c, 1, 62, 100
3, 181680, Note_on_c, 1, 66, 100
3, 181680, Note_on_c, 1, 69, 100
3, 181915, Note_off_c, 1, 69, 64
3, 181915, Note_off_c, 1, 66, 64
3, 181915, Note_off_c, 1, 62, 64
3, 181920, Note_on_c, 1, 62, 100
3, 181920, Note_on_c, 1, 66, 100
3, 181920, Note_on_c, 1, 69, 100
3, 182155, Note_off_c, 1, 69, 64
3, 182155, Note_off_c, 1, 66, 64
3, 182155, Note_off_c, 1, 62, 64
3, 182160, Note_on_c, 1, 60, 100
3, 182160, Note_on_c, 1, 65, 100
3, 182160, Note_on_c, 1, 69, 100
3, 182635, Note_off_c, 1, 69, 64
3, 182635, Note_off_c, 1, 65, 64
3, 182635, Note_off_c, 1, 60, 64
3, 182640, Note_on_c, 1, 60, 100
3, 182640, Note_on_c, 1, 64, 100
3, 182640, Note_on_c, 1, 67, 100
3, 183115, Note_off_c, 1, 67, 64
3, 183115, Note_off_c, 1, 64, 64
3, 183115, Note_off_c, 1, 60, 64
3, 183120, Note_on_c, 1, 60, 100
3, 183120, Note_on_c, 1, 65, 100
3, 183120, Note_on_c, 1, 69, 100
3, 183355, Note_off_c, 1, 69, 64
3, 183355, Note_off_c, 1, 65, 64
3, 183355, Note_off_c, 1, 60, 64
3, 183600, Note_on_c, 1, 60, 100
3, 183600, Note_on_c, 1, 65, 100
3, 183600, Note_on_c, 1, 69, 100
3, 184075, Note_off_c, 1, 69, 64
3, 184075, Note_off_c, 1, 65, 64
3, 184075, Note_off_c, 1, 60, 64
3, 184080, Note_on_c, 1, 60, 100
3, 184080, Note_on_c, 1, 65, 100
3, 184080, Note_on_c, 1, 69, 100
3, 184315, Note_off_c, 1, 69, 64
3, 184315, Note_off_c, 1, 65, 64
3, 184315, Note_off_c, 1, 60, 64
3, 184320, Note_on_c, 1, 60, 100
3, 184320, Note_on_c, 1, 64, 100
3, 184320, Note_on_c, 1, 67, 100
3, 184555, Note_off_c, 1, 67, 64
3, 184555, Note_off_c, 1, 64, 64
3, 184555, Note_off_c, 1, 60, 64
3, 184560, Note_on_c, 1, 62, 100
3, 184560, Note_on_c, 1, 67, 100
3, 184560, Note_on_c, 1, 71, 100
3, 184795, Note_off_c, 1, 71, 64
3, 184795, Note_off_c, 1, 67, 64
3, 184795, Note_off_c, 1, 62, 64
3, 184800, Note_on_c, 1, 62, 100
3, 184800, Note_on_c, 1, 67, 100
3, 184800, Note_on_c, 1, 71, 100
3, 185035, Note_off_c, 1, 71, 64
3, 185035, Note_off_c, 1, 67, 64
3, 185035, Note_off_c, 1, 62, 64
3, 185040, Note_on_c, 1, 62, 100
3, 185040, Note_on_c, 1, 67, 100
3, 185040, Note_on_c, 1, 71, 100
3, 185275, Note_off_c, 1, 71, 64
3, 185275, Note_off_c, 1, 67, 64
3, 185275, Note_off_c, 1, 62, 64
3, 185280, Note_on_c, 1, 62, 100
3, 185280, Note_on_c, 1, 67, 100
3, 185280, Note_on_c, 1, 71, 100
3, 185515, Note_off_c, 1, 71, 64
3, 185515, Note_off_c, 1, 67, 64
3, 185515, Note_off_c, 1, 62, 64
3, 185520, Note_on_c, 1, 62, 100
3, 185520, Note_on_c, 1, 67, 100
3, 185520, Note_on_c, 1, 71, 100
3, 185755, Note_off_c, 1, 71, 64
3, 185755, Note_off_c, 1, 67, 64
3, 185755, Note_off_c, 1, 62, 64
3, 185760, Note_on_c, 1, 62, 100
3, 185760, Note_on_c, 1, 67, 100
3, 185760, Note_on_c, 1, 71, 100
3, 185995, Note_off_c, 1, 71, 64
3, 185995, Note_off_c, 1, 67, 64
3, 185995, Note_off_c, 1, 62, 64
3, 186000, Note_on_c, 1, 62, 100
3, 186000, Note_on_c, 1, 67, 100
3, 186000, Note_on_c, 1, 71, 100
3, 186235, Note_off_c, 1, 71, 64
3, 186235, Note_off_c, 1, 67, 64
3, 186235, Note_off_c, 1, 62, 64
3, 186240, Note_on_c, 1, 62, 100
3, 186240, Note_on_c, 1, 67, 100
3, 186240, Note_on_c, 1, 71, 100
3, 186880, Note_off_c, 1, 71, 64
3, 186880, Note_off_c, 1, 67, 64
3, 186880, Note_off_c, 1, 62, 64
3, 186960, Note_on_c, 1, 60, 100
3, 186960, Note_on_c, 1, 65, 100
3, 186960, Note_on_c, 1, 69, 100
3, 187195, Note_off_c, 1, 69, 64
3, 187195, Note_off_c, 1, 65, 64
3, 187195, Note_off_c, 1, 60, 64
3, 187680, Note_on_c, 1, 71, 100
3, 187680, Note_on_c, 1, 67, 100
3, 187680, Note_on_c, 1, 62, 100
3, 188393, Note_off_c, 1, 62, 64
3, 188393, Note_off_c, 1, 67, 64
3, 188393, Note_off_c, 1, 71, 64
3, 188400, Note_on_c, 1, 60, 100
3, 188400, Note_on_c, 1, 65, 100
3, 188400, Note_on_c, 1, 69, 100
3, 188635, Note_off_c, 1, 69, 64
3, 188635, Note_off_c, 1, 65, 64
3, 188635, Note_off_c, 1, 60, 64
3, 189120, Note_on_c, 1, 67, 100
3, 189120, Note_on_c, 1, 71, 100
3, 189120, Note_on_c, 1, 74, 100
3, 189520, Note_off_c, 1, 74, 64
3, 189520, Note_off_c, 1, 71, 64
3, 189520, Note_off_c, 1, 67, 64
3, 189600, Note_on_c, 1, 64, 100
3, 189600, Note_on_c, 1, 69, 100
3, 189600, Note_on_c, 1, 72, 100
3, 190000, Note_off_c, 1, 72, 64
3, 190000, Note_off_c, 1, 69, 64
3, 190000, Note_off_c, 1, 64, 64
3, 190080, Note_on_c, 1, 62, 100
3, 190080, Note_on_c, 1, 67, 100
3, 190080, Note_on_c, 1, 71, 100
3, 190480, Note_off_c, 1, 71, 64
3, 190480, Note_off_c, 1, 67, 64
3, 190480, Note_off_c, 1, 62, 64
3, 190560, Note_on_c, 1, 64, 100
3, 190560, Note_on_c, 1, 69, 100
3, 190560, Note_on_c, 1, 72, 100
3, 190795, Note_off_c, 1, 72, 64
3, 190795, Note_off_c, 1, 69, 64
3, 190795, Note_off_c, 1, 64, 64
3, 190800, Note_on_c, 1, 62, 100
3, 190800, Note_on_c, 1, 67, 100
3, 190800, Note_on_c, 1, 71, 100
3, 191275, Note_off_c, 1, 71, 64
3, 191275, Note_off_c, 1, 67, 64
3, 191275, Note_off_c, 1, 62, 64
3, 191280, Note_on_c, 1, 64, 100
3, 191280, Note_on_c, 1, 69, 100
3, 191280, Note_on_c, 1, 72, 100
3, 191515, Note_off_c, 1, 72, 64
3, 191515, Note_off_c, 1, 69, 64
3, 191515, Note_off_c, 1, 64, 64
3, 191520, Note_on_c, 1, 62, 100
3, 191520, Note_on_c, 1, 67, 100
3, 191520, Note_on_c, 1, 71, 100
3, 191755, Note_off_c, 1, 71, 64
3, 191755, Note_off_c, 1, 67, 64
3, 191755, Note_off_c, 1, 62, 64
3, 191760, Note_on_c, 1, 60, 100
3, 191760, Note_on_c, 1, 65, 100
3, 191760, Note_on_c, 1, 69, 100
3, 192400, Note_off_c, 1, 69, 64
3, 192400, Note_off_c, 1, 65, 64
3, 192400, Note_off_c, 1, 60, 64
3, 192720, Note_on_c, 1, 62, 100
3, 192720, Note_on_c, 1, 67, 100
3, 192720, Note_on_c, 1, 71, 100
3, 192955, Note_off_c, 1, 71, 64
3, 192955, Note_off_c, 1, 67, 64
3, 192955, Note_off_c, 1, 62, 64
3, 192960, Note_on_c, 1, 62, 100
3, 192960, Note_on_c, 1, 67, 100
3, 192960, Note_on_c, 1, 71, 100
3, 193195, Note_off_c, 1, 71, 64
3, 193195, Note_off_c, 1, 67, 64
3, 193195, Note_off_c, 1, 62, 64
3, 193200, Note_on_c, 1, 62, 100
3, 193200, Note_on_c, 1, 67, 100
3, 193200, Note_on_c, 1, 71, 100
3, 193435, Note_off_c, 1, 71, 64
3, 193435, Note_off_c, 1, 67, 64
3, 193435, Note_off_c, 1, 62, 64
3, 193440, Note_on_c, 1, 62, 100
3, 193440, Note_on_c, 1, 67, 100
3, 193440, Note_on_c, 1, 71, 100
3, 193675, Note_off_c, 1, 71, 64
3, 193675, Note_off_c, 1, 67, 64
3, 193675, Note_off_c, 1, 62, 64
3, 193680, Note_on_c, 1, 62, 100
3, 193680, Note_on_c, 1, 67, 100
3, 193680, Note_on_c, 1, 71, 100
3, 193915, Note_off_c, 1, 71, 64
3, 193915, Note_off_c, 1, 67, 64
3, 193915, Note_off_c, 1, 62, 64
3, 193920, Note_on_c, 1, 62, 100
3, 193920, Note_on_c, 1, 67, 100
3, 193920, Note_on_c, 1, 71, 100
3, 194560, Note_off_c, 1, 71, 64
3, 194560, Note_off_c, 1, 67, 64
3, 194560, Note_off_c, 1, 62, 64
3, 194640, Note_on_c, 1, 60, 100
3, 194640, Note_on_c, 1, 65, 100
3, 194640, Note_on_c, 1, 69, 100
3, 195115, Note_off_c, 1, 69, 64
3, 195115, Note_off_c, 1, 65, 64
3, 195115, Note_off_c, 1, 60, 64
3, 195360, Note_on_c, 1, 62, 100
3, 195360, Note_on_c, 1, 67, 100
3, 195360, Note_on_c, 1, 71, 100
3, 196075, Note_off_c, 1, 71, 64
3, 196075, Note_off_c, 1, 67, 64
3, 196075, Note_off_c, 1, 62, 64
3, 196080, Note_on_c, 1, 60, 100
3, 196080, Note_on_c, 1, 65, 100
3, 196080, Note_on_c, 1, 69, 100
3, 196315, Note_off_c, 1, 69, 64
3, 196315, Note_off_c, 1, 65, 64
3, 196315, Note_off_c, 1, 60, 64
3, 196800, Note_on_c, 1, 67, 100
3, 196800, Note_on_c, 1, 71, 100
3, 196800, Note_on_c, 1, 74, 100
3, 197200, Note_off_c, 1, 74, 64
3, 197200, Note_off_c, 1, 71, 64
3, 197200, Note_off_c, 1, 67, 64
3, 197280, Note_on_c, 1, 64, 100
3, 197280, Note_on_c, 1, 69, 100
3, 197280, Note_on_c, 1, 72, 100
3, 197680, Note_off_c, 1, 72, 64
3, 197680, Note_off_c, 1, 69, 64
3, 197680, Note_off_c, 1, 64, 64
3, 197760, Note_on_c, 1, 62, 100
3, 197760, Note_on_c, 1, 67, 100
3, 197760, Note_on_c, 1, 71, 100
3, 198160, Note_off_c, 1, 71, 64
3, 198160, Note_off_c, 1, 67, 64
3, 198160, Note_off_c, 1, 62, 64
3, 198240, Note_on_c, 1, 64, 100
3, 198240, Note_on_c, 1, 69, 100
3, 198240, Note_on_c, 1, 72, 100
3, 198475, Note_off_c, 1, 72, 64
3, 198475, Note_off_c, 1, 69, 64
3, 198475, Note_off_c, 1, 64, 64
3, 198480, Note_on_c, 1, 62, 100
3, 198480, Note_on_c, 1, 67, 100
3, 198480, Note_on_c, 1, 71, 100
3, 198955, Note_off_c, 1, 71, 64
3, 198955, Note_off_c, 1, 67, 64
3, 198955, Note_off_c, 1, 62, 64
3, 198960, Note_on_c, 1, 60, 100
3, 198960, Note_on_c, 1, 65, 100
3, 198960, Note_on_c, 1, 69, 100
3, 199195, Note_off_c, 1, 69, 64
3, 199195, Note_off_c, 1, 65, 64
3, 199195, Note_off_c, 1, 60, 64
3, 199200, Note_on_c, 1, 60, 100
3, 199200, Note_on_c, 1, 65, 100
3, 199200, Note_on_c, 1, 69, 100
3, 199435, Note_off_c, 1, 69, 64
3, 199435, Note_off_c, 1, 65, 64
3, 199435, Note_off_c, 1, 60, 64
3, 199440, Note_on_c, 1, 60, 100
3, 199440, Note_on_c, 1, 64, 100
3, 199440, Note_on_c, 1, 67, 100
3, 200080, Note_off_c, 1, 67, 64
3, 200080, Note_off_c, 1, 64, 64
3, 200080, Note_off_c, 1, 60, 64
3, 200880, Note_on_c, 1, 62, 100
3, 200880, Note_on_c, 1, 67, 100
3, 200880, Note_on_c, 1, 71, 100
3, 201115, Note_off_c, 1, 71, 64
3, 201115, Note_off_c, 1, 67, 64
3, 201115, Note_off_c, 1, 62, 64
3, 201120, Note_on_c, 1, 62, 100
3, 201120, Note_on_c, 1, 67, 100
3, 201120, Note_on_c, 1, 71, 100
3, 201355, Note_off_c, 1, 71, 64
3, 201355, Note_off_c, 1, 67, 64
3, 201355, Note_off_c, 1, 62, 64
3, 201360, Note_on_c, 1, 62, 100
3, 201360, Note_on_c, 1, 67, 100
3, 201360, Note_on_c, 1, 71, 100
3, 201595, Note_off_c, 1, 71, 64
3, 201595, Note_off_c, 1, 67, 64
3, 201595, Note_off_c, 1, 62, 64
3, 201600, Note_on_c, 1, 62, 100
3, 201600, Note_on_c, 1, 67, 100
3, 201600, Note_on_c, 1, 71, 100
3, 201835, Note_off_c, 1, 71, 64
3, 201835, Note_off_c, 1, 67, 64
3, 201835, Note_off_c, 1, 62, 64
3, 201840, Note_on_c, 1, 62, 100
3, 201840, Note_on_c, 1, 67, 100
3, 201840, Note_on_c, 1, 71, 100
3, 202075, Note_off_c, 1, 71, 64
3, 202075, Note_off_c, 1, 67, 64
3, 202075, Note_off_c, 1, 62, 64
3, 202080, Note_on_c, 1, 62, 100
3, 202080, Note_on_c, 1, 67, 100
3, 202080, Note_on_c, 1, 71, 100
3, 202315, Note_off_c, 1, 71, 64
3, 202315, Note_off_c, 1, 67, 64
3, 202315, Note_off_c, 1, 62, 64
3, 202320, Note_on_c, 1, 60, 100
3, 202320, Note_on_c, 1, 65, 100
3, 202320, Note_on_c, 1, 69, 100
3, 202555, Note_off_c, 1, 69, 64
3, 202555, Note_off_c, 1, 65, 64
3, 202555, Note_off_c, 1, 60, 64
3, 202560, Note_on_c, 1, 60, 100
3, 202560, Note_on_c, 1, 65, 100
3, 202560, Note_on_c, 1, 69, 100
3, 202795, Note_off_c, 1, 69, 64
3, 202795, Note_off_c, 1, 65, 64
3, 202795, Note_off_c, 1, 60, 64
3, 202800, Note_on_c, 1, 60, 100
3, 202800, Note_on_c, 1, 65, 100
3, 202800, Note_on_c, 1, 69, 100
3, 203035, Note_off_c, 1, 69, 64
3, 203035, Note_off_c, 1, 65, 64
3, 203035, Note_off_c, 1, 60, 64
3, 203040, Note_on_c, 1, 62, 100
3, 203040, Note_on_c, 1, 67, 100
3, 203040, Note_on_c, 1, 71, 100
3, 203275, Note_off_c, 1, 71, 64
3, 203275, Note_off_c, 1, 67, 64
3, 203275, Note_off_c, 1, 62, 64
3, 203280, Note_on_c, 1, 62, 100
3, 203280, Note_on_c, 1, 67, 100
3, 203280, Note_on_c, 1, 71, 100
3, 203515, Note_off_c, 1, 71, 64
3, 203515, Note_off_c, 1, 67, 64
3, 203515, Note_off_c, 1, 62, 64
3, 203520, Note_on_c, 1, 62, 100
3, 203520, Note_on_c, 1, 67, 100
3, 203520, Note_on_c, 1, 71, 100
3, 203755, Note_off_c, 1, 71, 64
3, 203755, Note_off_c, 1, 67, 64
3, 203755, Note_off_c, 1, 62, 64
3, 203760, Note_on_c, 1, 60, 100
3, 203760, Note_on_c, 1, 65, 100
3, 203760, Note_on_c, 1, 69, 100
3, 203995, Note_off_c, 1, 69, 64
3, 203995, Note_off_c, 1, 65, 64
3, 203995, Note_off_c, 1, 60, 64
3, 204000, Note_on_c, 1, 60, 100
3, 204000, Note_on_c, 1, 65, 100
3, 204000, Note_on_c, 1, 69, 100
3, 204235, Note_off_c, 1, 69, 64
3, 204235, Note_off_c, 1, 65, 64
3, 204235, Note_off_c, 1, 60, 64
3, 204240, Note_on_c, 1, 60, 100
3, 204240, Note_on_c, 1, 65, 100
3, 204240, Note_on_c, 1, 69, 100
3, 204475, Note_off_c, 1, 69, 64
3, 204475, Note_off_c, 1, 65, 64
3, 204475, Note_off_c, 1, 60, 64
3, 204480, Note_on_c, 1, 67, 100
3, 204480, Note_on_c, 1, 71, 100
3, 204480, Note_on_c, 1, 74, 100
3, 204880, Note_off_c, 1, 74, 64
3, 204880, Note_off_c, 1, 71, 64
3, 204880, Note_off_c, 1, 67, 64
3, 204960, Note_on_c, 1, 64, 100
3, 204960, Note_on_c, 1, 69, 100
3, 204960, Note_on_c, 1, 72, 100
3, 205360, Note_off_c, 1, 72, 64
3, 205360, Note_off_c, 1, 69, 64
3, 205360, Note_off_c, 1, 64, 64
3, 205440, Note_on_c, 1, 62, 100
3, 205440, Note_on_c, 1, 67, 100
3, 205440, Note_on_c, 1, 71, 100
3, 205840, Note_off_c, 1, 71, 64
3, 205840, Note_off_c, 1, 67, 64
3, 205840, Note_off_c, 1, 62, 64
3, 205920, Note_on_c, 1, 64, 100
3, 205920, Note_on_c, 1, 69, 100
3, 205920, Note_on_c, 1, 72, 100
3, 206155, Note_off_c, 1, 72, 64
3, 206155, Note_off_c, 1, 69, 64
3, 206155, Note_off_c, 1, 64, 64
3, 206160, Note_on_c, 1, 62, 100
3, 206160, Note_on_c, 1, 67, 100
3, 206160, Note_on_c, 1, 71, 100
3, 206635, Note_off_c, 1, 71, 64
3, 206635, Note_off_c, 1, 67, 64
3, 206635, Note_off_c, 1, 62, 64
3, 206640, Note_on_c, 1, 64, 100
3, 206640, Note_on_c, 1, 69, 100
3, 206640, Note_on_c, 1, 72, 100
3, 206875, Note_off_c, 1, 72, 64
3, 206875, Note_off_c, 1, 69, 64
3, 206875, Note_off_c, 1, 64, 64
3, 206880, Note_on_c, 1, 62, 100
3, 206880, Note_on_c, 1, 67, 100
3, 206880, Note_on_c, 1, 71, 100
3, 207115, Note_off_c, 1, 71, 64
3, 207115, Note_off_c, 1, 67, 64
3, 207115, Note_off_c, 1, 62, 64
3, 207120, Note_on_c, 1, 60, 100
3, 207120, Note_on_c, 1, 65, 100
3, 207120, Note_on_c, 1, 69, 100
3, 207760, Note_off_c, 1, 69, 64
3, 207760, Note_off_c, 1, 65, 64
3, 207760, Note_off_c, 1, 60, 64
3, 208080, Note_on_c, 1, 60, 100
3, 208080, Note_on_c, 1, 65, 100
3, 208080, Note_on_c, 1, 69, 100
3, 208315, Note_off_c, 1, 69, 64
3, 208315, Note_off_c, 1, 65, 64
3, 208315, Note_off_c, 1, 60, 64
3, 208320, Note_on_c, 1, 60, 100
3, 208320, Note_on_c, 1, 65, 100
3, 208320, Note_on_c, 1, 69, 100
3, 208555, Note_off_c, 1, 69, 64
3, 208555, Note_off_c, 1, 65, 64
3, 208555, Note_off_c, 1, 60, 64
3, 208560, Note_on_c, 1, 60, 100
3, 208560, Note_on_c, 1, 65, 100
3, 208560, Note_on_c, 1, 69, 100
3, 208795, Note_off_c, 1, 69, 64
3, 208795, Note_off_c, 1, 65, 64
3, 208795, Note_off_c, 1, 60, 64
3, 208800, Note_on_c, 1, 60, 100
3, 208800, Note_on_c, 1, 65, 100
3, 208800, Note_on_c, 1, 69, 100
3, 209035, Note_off_c, 1, 69, 64
3, 209035, Note_off_c, 1, 65, 64
3, 209035, Note_off_c, 1, 60, 64
3, 209040, Note_on_c, 1, 60, 100
3, 209040, Note_on_c, 1, 65, 100
3, 209040, Note_on_c, 1, 69, 100
3, 209275, Note_off_c, 1, 69, 64
3, 209275, Note_off_c, 1, 65, 64
3, 209275, Note_off_c, 1, 60, 64
3, 209280, Note_on_c, 1, 60, 100
3, 209280, Note_on_c, 1, 65, 100
3, 209280, Note_on_c, 1, 69, 100
3, 209920, Note_off_c, 1, 69, 64
3, 209920, Note_off_c, 1, 65, 64
3, 209920, Note_off_c, 1, 60, 64
3, 210000, Note_on_c, 1, 60, 100
3, 210000, Note_on_c, 1, 64, 100
3, 210000, Note_on_c, 1, 67, 100
3, 210640, Note_off_c, 1, 67, 64
3, 210640, Note_off_c, 1, 64, 64
3, 210640, Note_off_c, 1, 60, 64
3, 210720, Note_on_c, 1, 60, 100
3, 210720, Note_on_c, 1, 65, 100
3, 210720, Note_on_c, 1, 69, 100
3, 211435, Note_off_c, 1, 69, 64
3, 211435, Note_off_c, 1, 65, 64
3, 211435, Note_off_c, 1, 60, 64
3, 211440, Note_on_c, 1, 60, 100
3, 211440, Note_on_c, 1, 64, 100
3, 211440, Note_on_c, 1, 67, 100
3, 213000, Note_off_c, 1, 67, 64
3, 213000, Note_off_c, 1, 64, 64
3, 213000, Note_off_c, 1, 60, 64
3, 213120, Note_on_c, 1, 62, 100
3, 213120, Note_on_c, 1, 67, 100
3, 213120, Note_on_c, 1, 71, 100
3, 213760, Note_off_c, 1, 71, 64
3, 213760, Note_off_c, 1, 67, 64
3, 213760, Note_off_c, 1, 62, 64
3, 213840, Note_on_c, 1, 60, 100
3, 213840, Note_on_c, 1, 65, 100
3, 213840, Note_on_c, 1, 69, 100
3, 214075, Note_off_c, 1, 69, 64
3, 214075, Note_off_c, 1, 65, 64
3, 214075, Note_off_c, 1, 60, 64
3, 214560, Note_on_c, 1, 62, 100
3, 214560, Note_on_c, 1, 67, 100
3, 214560, Note_on_c, 1, 71, 100
3, 214960, Note_off_c, 1, 71, 64
3, 214960, Note_off_c, 1, 67, 64
3, 214960, Note_off_c, 1, 62, 64
3, 215040, Note_on_c, 1, 62, 100
3, 215040, Note_on_c, 1, 67, 100
3, 215040, Note_on_c, 1, 71, 100
3, 215275, Note_off_c, 1, 71, 64
3, 215275, Note_off_c, 1, 67, 64
3, 215275, Note_off_c, 1, 62, 64
3, 215280, Note_on_c, 1, 60, 100
3, 215280, Note_on_c, 1, 65, 100
3, 215280, Note_on_c, 1, 69, 100
3, 215515, Note_off_c, 1, 69, 64
3, 215515, Note_off_c, 1, 65, 64
3, 215515, Note_off_c, 1, 60, 64
3, 216000, Note_on_c, 1, 67, 100
3, 216000, Note_on_c, 1, 71, 100
3, 216000, Note_on_c, 1, 74, 100
3, 216400, Note_off_c, 1, 74, 64
3, 216400, Note_off_c, 1, 71, 64
3, 216400, Note_off_c, 1, 67, 64
3, 216480, Note_on_c, 1, 64, 100
3, 216480, Note_on_c, 1, 69, 100
3, 216480, Note_on_c, 1, 72, 100
3, 216880, Note_off_c, 1, 72, 64
3, 216880, Note_off_c, 1, 69, 64
3, 216880, Note_off_c, 1, 64, 64
3, 216960, Note_on_c, 1, 62, 100
3, 216960, Note_on_c, 1, 67, 100
3, 216960, Note_on_c, 1, 71, 100
3, 217360, Note_off_c, 1, 71, 64
3, 217360, Note_off_c, 1, 67, 64
3, 217360, Note_off_c, 1, 62, 64
3, 217440, Note_on_c, 1, 64, 100
3, 217440, Note_on_c, 1, 69, 100
3, 217440, Note_on_c, 1, 72, 100
3, 217675, Note_off_c, 1, 72, 64
3, 217675, Note_off_c, 1, 69, 64
3, 217675, Note_off_c, 1, 64, 64
3, 217680, Note_on_c, 1, 62, 100
3, 217680, Note_on_c, 1, 67, 100
3, 217680, Note_on_c, 1, 71, 100
3, 218155, Note_off_c, 1, 71, 64
3, 218155, Note_off_c, 1, 67, 64
3, 218155, Note_off_c, 1, 62, 64
3, 218160, Note_on_c, 1, 64, 100
3, 218160, Note_on_c, 1, 69, 100
3, 218160, Note_on_c, 1, 72, 100
3, 218395, Note_off_c, 1, 72, 64
3, 218395, Note_off_c, 1, 69, 64
3, 218395, Note_off_c, 1, 64, 64
3, 218400, Note_on_c, 1, 62, 100
3, 218400, Note_on_c, 1, 67, 100
3, 218400, Note_on_c, 1, 71, 100
3, 218635, Note_off_c, 1, 71, 64
3, 218635, Note_off_c, 1, 67, 64
3, 218635, Note_off_c, 1, 62, 64
3, 218640, Note_on_c, 1, 60, 100
3, 218640, Note_on_c, 1, 65, 100
3, 218640, Note_on_c, 1, 69, 100
3, 219280, Note_off_c, 1, 69, 64
3, 219280, Note_off_c, 1, 65, 64
3, 219280, Note_off_c, 1, 60, 64
3, 219600, Note_on_c, 1, 62, 100
3, 219600, Note_on_c, 1, 67, 100
3, 219600, Note_on_c, 1, 71, 100
3, 219835, Note_off_c, 1, 71, 64
3, 219835, Note_off_c, 1, 67, 64
3, 219835, Note_off_c, 1, 62, 64
3, 219840, Note_on_c, 1, 62, 100
3, 219840, Note_on_c, 1, 67, 100
3, 219840, Note_on_c, 1, 71, 100
3, 220075, Note_off_c, 1, 71, 64
3, 220075, Note_off_c, 1, 67, 64
3, 220075, Note_off_c, 1, 62, 64
3, 220080, Note_on_c, 1, 62, 100
3, 220080, Note_on_c, 1, 67, 100
3, 220080, Note_on_c, 1, 71, 100
3, 220315, Note_off_c, 1, 71, 64
3, 220315, Note_off_c, 1, 67, 64
3, 220315, Note_off_c, 1, 62, 64
3, 220320, Note_on_c, 1, 62, 100
3, 220320, Note_on_c, 1, 67, 100
3, 220320, Note_on_c, 1, 71, 100
3, 220555, Note_off_c, 1, 71, 64
3, 220555, Note_off_c, 1, 67, 64
3, 220555, Note_off_c, 1, 62, 64
3, 220560, Note_on_c, 1, 62, 100
3, 220560, Note_on_c, 1, 67, 100
3, 220560, Note_on_c, 1, 71, 100
3, 220795, Note_off_c, 1, 71, 64
3, 220795, Note_off_c, 1, 67, 64
3, 220795, Note_off_c, 1, 62, 64
3, 220800, Note_on_c, 1, 62, 100
3, 220800, Note_on_c, 1, 67, 100
3, 220800, Note_on_c, 1, 71, 100
3, 221440, Note_off_c, 1, 71, 64
3, 221440, Note_off_c, 1, 67, 64
3, 221440, Note_off_c, 1, 62, 64
3, 221520, Note_on_c, 1, 60, 100
3, 221520, Note_on_c, 1, 65, 100
3, 221520, Note_on_c, 1, 69, 100
3, 221995, Note_off_c, 1, 69, 64
3, 221995, Note_off_c, 1, 65, 64
3, 221995, Note_off_c, 1, 60, 64
3, 222240, Note_on_c, 1, 62, 100
3, 222240, Note_on_c, 1, 67, 100
3, 222240, Note_on_c, 1, 71, 100
3, 222955, Note_off_c, 1, 71, 64
3, 222955, Note_off_c, 1, 67, 64
3, 222955, Note_off_c, 1, 62, 64
3, 222960, Note_on_c, 1, 60, 100
3, 222960, Note_on_c, 1, 65, 100
3, 222960, Note_on_c, 1, 69, 100
3, 223195, Note_off_c, 1, 69, 64
3, 223195, Note_off_c, 1, 65, 64
3, 223195, Note_off_c, 1, 60, 64
3, 223680, Note_on_c, 1, 67, 100
3, 223680, Note_on_c, 1, 71, 100
3, 223680, Note_on_c, 1, 74, 100
3, 224080, Note_off_c, 1, 74, 64
3, 224080, Note_off_c, 1, 71, 64
3, 224080, Note_off_c, 1, 67, 64
3, 224160, Note_on_c, 1, 64, 100
3, 224160, Note_on_c, 1, 69, 100
3, 224160, Note_on_c, 1, 72, 100
3, 224560, Note_off_c, 1, 72, 64
3, 224560, Note_off_c, 1, 69, 64
3, 224560, Note_off_c, 1, 64, 64
3, 224640, Note_on_c, 1, 62, 100
3, 224640, Note_on_c, 1, 67, 100
3, 224640, Note_on_c, 1, 71, 100
3, 225040, Note_off_c, 1, 71, 64
3, 225040, Note_off_c, 1, 67, 64
3, 225040, Note_off_c, 1, 62, 64
3, 225120, Note_on_c, 1, 64, 100
3, 225120, Note_on_c, 1, 69, 100
3, 225120, Note_on_c, 1, 72, 100
3, 225355, Note_off_c, 1, 72, 64
3, 225355, Note_off_c, 1, 69, 64
3, 225355, Note_off_c, 1, 64, 64
3, 225360, Note_on_c, 1, 62, 100
3, 225360, Note_on_c, 1, 67, 100
3, 225360, Note_on_c, 1, 71, 100
3, 225835, Note_off_c, 1, 71, 64
3, 225835, Note_off_c, 1, 67, 64
3, 225835, Note_off_c, 1, 62, 64
3, 225840, Note_on_c, 1, 60, 100
3, 225840, Note_on_c, 1, 65, 100
3, 225840, Note_on_c, 1, 69, 100
3, 226075, Note_off_c, 1, 69, 64
3, 226075, Note_off_c, 1, 65, 64
3, 226075, Note_off_c, 1, 60, 64
3, 226080, Note_on_c, 1, 60, 100
3, 226080, Note_on_c, 1, 65, 100
3, 226080, Note_on_c, 1, 69, 100
3, 226315, Note_off_c, 1, 69, 64
3, 226315, Note_off_c, 1, 65, 64
3, 226315, Note_off_c, 1, 60, 64
3, 226320, Note_on_c, 1, 60, 100
3, 226320, Note_on_c, 1, 64, 100
3, 226320, Note_on_c, 1, 67, 100
3, 226960, Note_off_c, 1, 67, 64
3, 226960, Note_off_c, 1, 64, 64
3, 226960, Note_off_c, 1, 60, 64
3, 227760, Note_on_c, 1, 62, 100
3, 227760, Note_on_c, 1, 67, 100
3, 227760, Note_on_c, 1, 71, 100
3, 227995, Note_off_c, 1, 71, 64
3, 227995, Note_off_c, 1, 67, 64
3, 227995, Note_off_c, 1, 62, 64
3, 228000, Note_on_c, 1, 62, 100
3, 228000, Note_on_c, 1, 67, 100
3, 228000, Note_on_c, 1, 71, 100
3, 228235, Note_off_c, 1, 71, 64
3, 228235, Note_off_c, 1, 67, 64
3, 228235, Note_off_c, 1, 62, 64
3, 228240, Note_on_c, 1, 62, 100
3, 228240, Note_on_c, 1, 67, 100
3, 228240, Note_on_c, 1, 71, 100
3, 228475, Note_off_c, 1, 71, 64
3, 228475, Note_off_c, 1, 67, 64
3, 228475, Note_off_c, 1, 62, 64
3, 228480, Note_on_c, 1, 62, 100
3, 228480, Note_on_c, 1, 67, 100
3, 228480, Note_on_c, 1, 71, 100
3, 228715, Note_off_c, 1, 71, 64
3, 228715, Note_off_c, 1, 67, 64
3, 228715, Note_off_c, 1, 62, 64
3, 228720, Note_on_c, 1, 62, 100
3, 228720, Note_on_c, 1, 67, 100
3, 228720, Note_on_c, 1, 71, 100
3, 228955, Note_off_c, 1, 71, 64
3, 228955, Note_off_c, 1, 67, 64
3, 228955, Note_off_c, 1, 62, 64
3, 228960, Note_on_c, 1, 62, 100
3, 228960, Note_on_c, 1, 67, 100
3, 228960, Note_on_c, 1, 71, 100
3, 229195, Note_off_c, 1, 71, 64
3, 229195, Note_off_c, 1, 67, 64
3, 229195, Note_off_c, 1, 62, 64
3, 229200, Note_on_c, 1, 60, 100
3, 229200, Note_on_c, 1, 65, 100
3, 229200, Note_on_c, 1, 69, 100
3, 229435, Note_off_c, 1, 69, 64
3, 229435, Note_off_c, 1, 65, 64
3, 229435, Note_off_c, 1, 60, 64
3, 229440, Note_on_c, 1, 60, 100
3, 229440, Note_on_c, 1, 65, 100
3, 229440, Note_on_c, 1, 69, 100
3, 229675, Note_off_c, 1, 69, 64
3, 229675, Note_off_c, 1, 65, 64
3, 229675, Note_off_c, 1, 60, 64
3, 229680, Note_on_c, 1, 60, 100
3, 229680, Note_on_c, 1, 65, 100
3, 229680, Note_on_c, 1, 69, 100
3, 229915, Note_off_c, 1, 69, 64
3, 229915, Note_off_c, 1, 65, 64
3, 229915, Note_off_c, 1, 60, 64
3, 229920, Note_on_c, 1, 62, 100
3, 229920, Note_on_c, 1, 67, 100
3, 229920, Note_on_c, 1, 71, 100
3, 230155, Note_off_c, 1, 71, 64
3, 230155, Note_off_c, 1, 67, 64
3, 230155, Note_off_c, 1, 62, 64
3, 230160, Note_on_c, 1, 62, 100
3, 230160, Note_on_c, 1, 67, 100
3, 230160, Note_on_c, 1, 71, 100
3, 230395, Note_off_c, 1, 71, 64
3, 230395, Note_off_c, 1, 67, 64
3, 230395, Note_off_c, 1, 62, 64
3, 230400, Note_on_c, 1, 62, 100
3, 230400, Note_on_c, 1, 67, 100
3, 230400, Note_on_c, 1, 71, 100
3, 230635, Note_off_c, 1, 71, 64
3, 230635, Note_off_c, 1, 67, 64
3, 230635, Note_off_c, 1, 62, 64
3, 230640, Note_on_c, 1, 60, 100
3, 230640, Note_on_c, 1, 65, 100
3, 230640, Note_on_c, 1, 69, 100
3, 230875, Note_off_c, 1, 69, 64
3, 230875, Note_off_c, 1, 65, 64
3, 230875, Note_off_c, 1, 60, 64
3, 230880, Note_on_c, 1, 60, 100
3, 230880, Note_on_c, 1, 65, 100
3, 230880, Note_on_c, 1, 69, 100
3, 231115, Note_off_c, 1, 69, 64
3, 231115, Note_off_c, 1, 65, 64
3, 231115, Note_off_c, 1, 60, 64
3, 231120, Note_on_c, 1, 60, 100
3, 231120, Note_on_c, 1, 65, 100
3, 231120, Note_on_c, 1, 69, 100
3, 231355, Note_off_c, 1, 69, 64
3, 231355, Note_off_c, 1, 65, 64
3, 231355, Note_off_c, 1, 60, 64
3, 231360, Note_on_c, 1, 67, 100
3, 231360, Note_on_c, 1, 71, 100
3, 231360, Note_on_c, 1, 74, 100
3, 231760, Note_off_c, 1, 74, 64
3, 231760, Note_off_c, 1, 71, 64
3, 231760, Note_off_c, 1, 67, 64
3, 231840, Note_on_c, 1, 64, 100
3, 231840, Note_on_c, 1, 69, 100
3, 231840, Note_on_c, 1, 72, 100
3, 232240, Note_off_c, 1, 72, 64
3, 232240, Note_off_c, 1, 69, 64
3, 232240, Note_off_c, 1, 64, 64
3, 232320, Note_on_c, 1, 62, 100
3, 232320, Note_on_c, 1, 67, 100
3, 232320, Note_on_c, 1, 71, 100
3, 232720, Note_off_c, 1, 71, 64
3, 232720, Note_off_c, 1, 67, 64
3, 232720, Note_off_c, 1, 62, 64
3, 232800, Note_on_c, 1, 64, 100
3, 232800, Note_on_c, 1, 69, 100
3, 232800, Note_on_c, 1, 72, 100
3, 233035, Note_off_c, 1, 72, 64
3, 233035, Note_off_c, 1, 69, 64
3, 233035, Note_off_c, 1, 64, 64
3, 233040, Note_on_c, 1, 62, 100
3, 233040, Note_on_c, 1, 67, 100
3, 233040, Note_on_c, 1, 71, 100
3, 233515, Note_off_c, 1, 71, 64
3, 233515, Note_off_c, 1, 67, 64
3, 233515, Note_off_c, 1, 62, 64
3, 233520, Note_on_c, 1, 64, 100
3, 233520, Note_on_c, 1, 69, 100
3, 233520, Note_on_c, 1, 72, 100
3, 233755, Note_off_c, 1, 72, 64
3, 233755, Note_off_c, 1, 69, 64
3, 233755, Note_off_c, 1, 64, 64
3, 233760, Note_on_c, 1, 62, 100
3, 233760, Note_on_c, 1, 67, 100
3, 233760, Note_on_c, 1, 71, 100
3, 233995, Note_off_c, 1, 71, 64
3, 233995, Note_off_c, 1, 67, 64
3, 233995, Note_off_c, 1, 62, 64
3, 234000, Note_on_c, 1, 60, 100
3, 234000, Note_on_c, 1, 65, 100
3, 234000, Note_on_c, 1, 69, 100
3, 234640, Note_off_c, 1, 69, 64
3, 234640, Note_off_c, 1, 65, 64
3, 234640, Note_off_c, 1, 60, 64
3, 234960, Note_on_c, 1, 60, 100
3, 234960, Note_on_c, 1, 65, 100
3, 234960, Note_on_c, 1, 69, 100
3, 235195, Note_off_c, 1, 69, 64
3, 235195, Note_off_c, 1, 65, 64
3, 235195, Note_off_c, 1, 60, 64
3, 235200, Note_on_c, 1, 60, 100
3, 235200, Note_on_c, 1, 65, 100
3, 235200, Note_on_c, 1, 69, 100
3, 235435, Note_off_c, 1, 69, 64
3, 235435, Note_off_c, 1, 65, 64
3, 235435, Note_off_c, 1, 60, 64
3, 235440, Note_on_c, 1, 60, 100
3, 235440, Note_on_c, 1, 65, 100
3, 235440, Note_on_c, 1, 69, 100
3, 235675, Note_off_c, 1, 69, 64
3, 235675, Note_off_c, 1, 65, 64
3, 235675, Note_off_c, 1, 60, 64
3, 235680, Note_on_c, 1, 60, 100
3, 235680, Note_on_c, 1, 65, 100
3, 235680, Note_on_c, 1, 69, 100
3, 235915, Note_off_c, 1, 69, 64
3, 235915, Note_off_c, 1, 65, 64
3, 235915, Note_off_c, 1, 60, 64
3, 235920, Note_on_c, 1, 60, 100
3, 235920, Note_on_c, 1, 65, 100
3, 235920, Note_on_c, 1, 69, 100
3, 236155, Note_off_c, 1, 69, 64
3, 236155, Note_off_c, 1, 65, 64
3, 236155, Note_off_c, 1, 60, 64
3, 236160, Note_on_c, 1, 60, 100
3, 236160, Note_on_c, 1, 65, 100
3, 236160, Note_on_c, 1, 69, 100
3, 236800, Note_off_c, 1, 69, 64
3, 236800, Note_off_c, 1, 65, 64
3, 236800, Note_off_c, 1, 60, 64
3, 236880, Note_on_c, 1, 60, 100
3, 236880, Note_on_c, 1, 64, 100
3, 236880, Note_on_c, 1, 67, 100
3, 237520, Note_off_c, 1, 67, 64
3, 237520, Note_off_c, 1, 64, 64
3, 237520, Note_off_c, 1, 60, 64
3, 237600, Note_on_c, 1, 60, 100
3, 237600, Note_on_c, 1, 65, 100
3, 237600, Note_on_c, 1, 69, 100
3, 238315, Note_off_c, 1, 69, 64
3, 238315, Note_off_c, 1, 65, 64
3, 238315, Note_off_c, 1, 60, 64
3, 238320, Note_on_c, 1, 60, 100
3, 238320, Note_on_c, 1, 64, 100
3, 238320, Note_on_c, 1, 67, 100
3, 239880, Note_off_c, 1, 67, 64
3, 239880, Note_off_c, 1, 64, 64
3, 239880, Note_off_c, 1, 60, 64
3, 240000, Note_on_c, 1, 62, 100
3, 240000, Note_on_c, 1, 67, 100
3, 240000, Note_on_c, 1, 71, 100
3, 240640, Note_off_c, 1, 71, 64
3, 240640, Note_off_c, 1, 67, 64
3, 240640, Note_off_c, 1, 62, 64
3, 240720, Note_on_c, 1, 60, 100
3, 240720, Note_on_c, 1, 65, 100
3, 240720, Note_on_c, 1, 69, 100
3, 240955, Note_off_c, 1, 69, 64
3, 240955, Note_off_c, 1, 65, 64
3, 240955, Note_off_c, 1, 60, 64
3, 241440, Note_on_c, 1, 62, 100
3, 241440, Note_on_c, 1, 67, 100
3, 241440, Note_on_c, 1, 71, 100
3, 241840, Note_off_c, 1, 71, 64
3, 241840, Note_off_c, 1, 67, 64
3, 241840, Note_off_c, 1, 62, 64
3, 241920, Note_on_c, 1, 62, 100
3, 241920, Note_on_c, 1, 67, 100
3, 241920, Note_on_c, 1, 71, 100
3, 242155, Note_off_c, 1, 71, 64
3, 242155, Note_off_c, 1, 67, 64
3, 242155, Note_off_c, 1, 62, 64
3, 242160, Note_on_c, 1, 60, 100
3, 242160, Note_on_c, 1, 65, 100
3, 242160, Note_on_c, 1, 69, 100
3, 242395, Note_off_c, 1, 69, 64
3, 242395, Note_off_c, 1, 65, 64
3, 242395, Note_off_c, 1, 60, 64
3, 242880, Note_on_c, 1, 67, 100
3, 242880, Note_on_c, 1, 71, 100
3, 242880, Note_on_c, 1, 74, 100
3, 243280, Note_off_c, 1, 74, 64
3, 243280, Note_off_c, 1, 71, 64
3, 243280, Note_off_c, 1, 67, 64
3, 243360, Note_on_c, 1, 64, 100
3, 243360, Note_on_c, 1, 69, 100
3, 243360, Note_on_c, 1, 72, 100
3, 243760, Note_off_c, 1, 72, 64
3, 243760, Note_off_c, 1, 69, 64
3, 243760, Note_off_c, 1, 64, 64
3, 243840, Note_on_c, 1, 62, 100
3, 243840, Note_on_c, 1, 67, 100
3, 243840, Note_on_c, 1, 71, 100
3, 244240, Note_off_c, 1, 71, 64
3, 244240, Note_off_c, 1, 67, 64
3, 244240, Note_off_c, 1, 62, 64
3, 244320, Note_on_c, 1, 64, 100
3, 244320, Note_on_c, 1, 69, 100
3, 244320, Note_on_c, 1, 72, 100
3, 244555, Note_off_c, 1, 72, 64
3, 244555, Note_off_c, 1, 69, 64
3, 244555, Note_off_c, 1, 64, 64
3, 244560, Note_on_c, 1, 62, 100
3, 244560, Note_on_c, 1, 67, 100
3, 244560, Note_on_c, 1, 71, 100
3, 245035, Note_off_c, 1, 71, 64
3, 245035, Note_off_c, 1, 67, 64
3, 245035, Note_off_c, 1, 62, 64
3, 245040, Note_on_c, 1, 64, 100
3, 245040, Note_on_c, 1, 69, 100
3, 245040, Note_on_c, 1, 72, 100
3, 245275, Note_off_c, 1, 72, 64
3, 245275, Note_off_c, 1, 69, 64
3, 245275, Note_off_c, 1, 64, 64
3, 245280, Note_on_c, 1, 62, 100
3, 245280, Note_on_c, 1, 67, 100
3, 245280, Note_on_c, 1, 71, 100
3, 245515, Note_off_c, 1, 71, 64
3, 245515, Note_off_c, 1, 67, 64
3, 245515, Note_off_c, 1, 62, 64
3, 245520, Note_on_c, 1, 60, 100
3, 245520, Note_on_c, 1, 65, 100
3, 245520, Note_on_c, 1, 69, 100
3, 246160, Note_off_c, 1, 69, 64
3, 246160, Note_off_c, 1, 65, 64
3, 246160, Note_off_c, 1, 60, 64
3, 246480, Note_on_c, 1, 62, 100
3, 246480, Note_on_c, 1, 67, 100
3, 246480, Note_on_c, 1, 71, 100
3, 246715, Note_off_c, 1, 71, 64
3, 246715, Note_off_c, 1, 67, 64
3, 246715, Note_off_c, 1, 62, 64
3, 246720, Note_on_c, 1, 62, 100
3, 246720, Note_on_c, 1, 67, 100
3, 246720, Note_on_c, 1, 71, 100
3, 246955, Note_off_c, 1, 71, 64
3, 246955, Note_off_c, 1, 67, 64
3, 246955, Note_off_c, 1, 62, 64
3, 246960, Note_on_c, 1, 62, 100
3, 246960, Note_on_c, 1, 67, 100
3, 246960, Note_on_c, 1, 71, 100
3, 247195, Note_off_c, 1, 71, 64
3, 247195, Note_off_c, 1, 67, 64
3, 247195, Note_off_c, 1, 62, 64
3, 247200, Note_on_c, 1, 62, 100
3, 247200, Note_on_c, 1, 67, 100
3, 247200, Note_on_c, 1, 71, 100
3, 247435, Note_off_c, 1, 71, 64
3, 247435, Note_off_c, 1, 67, 64
3, 247435, Note_off_c, 1, 62, 64
3, 247440, Note_on_c, 1, 62, 100
3, 247440, Note_on_c, 1, 67, 100
3, 247440, Note_on_c, 1, 71, 100
3, 247675, Note_off_c, 1, 71, 64
3, 247675, Note_off_c, 1, 67, 64
3, 247675, Note_off_c, 1, 62, 64
3, 247680, Control_c, 1, 7, 120
3, 247680, Note_on_c, 1, 62, 100
3, 247680, Note_on_c, 1, 67, 100
3, 247680, Note_on_c, 1, 71, 100
3, 248320, Note_off_c, 1, 71, 64
3, 248320, Note_off_c, 1, 67, 64
3, 248320, Note_off_c, 1, 62, 64
3, 248400, Note_on_c, 1, 60, 100
3, 248400, Note_on_c, 1, 65, 100
3, 248400, Note_on_c, 1, 69, 100
3, 248875, Note_off_c, 1, 69, 64
3, 248875, Note_off_c, 1, 65, 64
3, 248875, Note_off_c, 1, 60, 64
3, 249120, Note_on_c, 1, 62, 100
3, 249120, Note_on_c, 1, 67, 100
3, 249120, Note_on_c, 1, 71, 100
3, 249360, Control_c, 1, 7, 110
3, 249835, Note_off_c, 1, 71, 64
3, 249835, Note_off_c, 1, 67, 64
3, 249835, Note_off_c, 1, 62, 64
3, 249840, Note_on_c, 1, 60, 100
3, 249840, Note_on_c, 1, 65, 100
3, 249840, Note_on_c, 1, 69, 100
3, 250075, Note_off_c, 1, 69, 64
3, 250075, Note_off_c, 1, 65, 64
3, 250075, Note_off_c, 1, 60, 64
3, 250560, Note_on_c, 1, 67, 100
3, 250560, Note_on_c, 1, 71, 100
3, 250560, Note_on_c, 1, 74, 100
3, 250960, Note_off_c, 1, 74, 64
3, 250960, Note_off_c, 1, 71, 64
3, 250960, Note_off_c, 1, 67, 64
3, 251040, Note_on_c, 1, 64, 100
3, 251040, Note_on_c, 1, 69, 100
3, 251040, Note_on_c, 1, 72, 100
3, 251040, Control_c, 1, 7, 100
3, 251440, Note_off_c, 1, 72, 64
3, 251440, Note_off_c, 1, 69, 64
3, 251440, Note_off_c, 1, 64, 64
3, 251520, Note_on_c, 1, 62, 100
3, 251520, Note_on_c, 1, 67, 100
3, 251520, Note_on_c, 1, 71, 100
3, 251920, Note_off_c, 1, 71, 64
3, 251920, Note_off_c, 1, 67, 64
3, 251920, Note_off_c, 1, 62, 64
3, 252000, Note_on_c, 1, 64, 100
3, 252000, Note_on_c, 1, 69, 100
3, 252000, Note_on_c, 1, 72, 100
3, 252235, Note_off_c, 1, 72, 64
3, 252235, Note_off_c, 1, 69, 64
3, 252235, Note_off_c, 1, 64, 64
3, 252240, Note_on_c, 1, 62, 100
3, 252240, Note_on_c, 1, 67, 100
3, 252240, Note_on_c, 1, 71, 100
3, 252715, Note_off_c, 1, 71, 64
3, 252715, Note_off_c, 1, 67, 64
3, 252715, Note_off_c, 1, 62, 64
3, 252720, Note_on_c, 1, 60, 100
3, 252720, Note_on_c, 1, 65, 100
3, 252720, Note_on_c, 1, 69, 100
3, 252955, Note_off_c, 1, 69, 64
3, 252955, Note_off_c, 1, 65, 64
3, 252955, Note_off_c, 1, 60, 64
3, 252960, Note_on_c, 1, 60, 100
3, 252960, Note_on_c, 1, 65, 100
3, 252960, Note_on_c, 1, 69, 100
3, 253195, Note_off_c, 1, 69, 64
3, 253195, Note_off_c, 1, 65, 64
3, 253195, Note_off_c, 1, 60, 64
3, 253200, Note_on_c, 1, 60, 100
3, 253200, Note_on_c, 1, 64, 100
3, 253200, Note_on_c, 1, 67, 100
3, 253840, Note_off_c, 1, 67, 64
3, 253840, Note_off_c, 1, 64, 64
3, 253840, Note_off_c, 1, 60, 64
3, 254160, Control_c, 1, 7, 90
3, 254640, Note_on_c, 1, 62, 100
3, 254640, Note_on_c, 1, 67, 100
3, 254640, Note_on_c, 1, 71, 100
3, 254875, Note_off_c, 1, 71, 64
3, 254875, Note_off_c, 1, 67, 64
3, 254875, Note_off_c, 1, 62, 64
3, 254880, Note_on_c, 1, 62, 100
3, 254880, Note_on_c, 1, 67, 100
3, 254880, Note_on_c, 1, 71, 100
3, 254880, Control_c, 1, 7, 80
3, 255115, Note_off_c, 1, 71, 64
3, 255115, Note_off_c, 1, 67, 64
3, 255115, Note_off_c, 1, 62, 64
3, 255120, Note_on_c, 1, 62, 100
3, 255120, Note_on_c, 1, 67, 100
3, 255120, Note_on_c, 1, 71, 100
3, 255355, Note_off_c, 1, 71, 64
3, 255355, Note_off_c, 1, 67, 64
3, 255355, Note_off_c, 1, 62, 64
3, 255360, Note_on_c, 1, 62, 100
3, 255360, Note_on_c, 1, 67, 100
3, 255360, Note_on_c, 1, 71, 100
3, 255595, Note_off_c, 1, 71, 64
3, 255595, Note_off_c, 1, 67, 64
3, 255595, Note_off_c, 1, 62, 64
3, 255600, Note_on_c, 1, 62, 100
3, 255600, Note_on_c, 1, 67, 100
3, 255600, Note_on_c, 1, 71, 100
3, 255835, Note_off_c, 1, 71, 64
3, 255835, Note_off_c, 1, 67, 64
3, 255835, Note_off_c, 1, 62, 64
3, 255840, Note_on_c, 1, 62, 100
3, 255840, Note_on_c, 1, 67, 100
3, 255840, Note_on_c, 1, 71, 100
3, 256075, Note_off_c, 1, 71, 64
3, 256075, Note_off_c, 1, 67, 64
3, 256075, Note_off_c, 1, 62, 64
3, 256080, Note_on_c, 1, 60, 100
3, 256080, Note_on_c, 1, 65, 100
3, 256080, Note_on_c, 1, 69, 100
3, 256315, Note_off_c, 1, 69, 64
3, 256315, Note_off_c, 1, 65, 64
3, 256315, Note_off_c, 1, 60, 64
3, 256320, Note_on_c, 1, 60, 100
3, 256320, Note_on_c, 1, 65, 100
3, 256320, Note_on_c, 1, 69, 100
3, 256555, Note_off_c, 1, 69, 64
3, 256555, Note_off_c, 1, 65, 64
3, 256555, Note_off_c, 1, 60, 64
3, 256560, Note_on_c, 1, 60, 100
3, 256560, Note_on_c, 1, 65, 100
3, 256560, Note_on_c, 1, 69, 100
3, 256795, Note_off_c, 1, 69, 64
3, 256795, Note_off_c, 1, 65, 64
3, 256795, Note_off_c, 1, 60, 64
3, 256800, Note_on_c, 1, 62, 100
3, 256800, Note_on_c, 1, 67, 100
3, 256800, Note_on_c, 1, 71, 100
3, 256800, Control_c, 1, 7, 70
3, 257035, Note_off_c, 1, 71, 64
3, 257035, Note_off_c, 1, 67, 64
3, 257035, Note_off_c, 1, 62, 64
3, 257040, Note_on_c, 1, 62, 100
3, 257040, Note_on_c, 1, 67, 100
3, 257040, Note_on_c, 1, 71, 100
3, 257275, Note_off_c, 1, 71, 64
3, 257275, Note_off_c, 1, 67, 64
3, 257275, Note_off_c, 1, 62, 64
3, 257280, Note_on_c, 1, 62, 100
3, 257280, Note_on_c, 1, 67, 100
3, 257280, Note_on_c, 1, 71, 100
3, 257515, Note_off_c, 1, 71, 64
3, 257515, Note_off_c, 1, 67, 64
3, 257515, Note_off_c, 1, 62, 64
3, 257520, Note_on_c, 1, 60, 100
3, 257520, Note_on_c, 1, 65, 100
3, 257520, Note_on_c, 1, 69, 100
3, 257755, Note_off_c, 1, 69, 64
3, 257755, Note_off_c, 1, 65, 64
3, 257755, Note_off_c, 1, 60, 64
3, 257760, Note_on_c, 1, 60, 100
3, 257760, Note_on_c, 1, 65, 100
3, 257760, Note_on_c, 1, 69, 100
3, 257995, Note_off_c, 1, 69, 64
3, 257995, Note_off_c, 1, 65, 64
3, 257995, Note_off_c, 1, 60, 64
3, 258000, Note_on_c, 1, 60, 100
3, 258000, Note_on_c, 1, 65, 100
3, 258000, Note_on_c, 1, 69, 100
3, 258235, Note_off_c, 1, 69, 64
3, 258235, Note_off_c, 1, 65, 64
3, 258235, Note_off_c, 1, 60, 64
3, 258240, Note_on_c, 1, 67, 100
3, 258240, Note_on_c, 1, 71, 100
3, 258240, Note_on_c, 1, 74, 100
3, 258640, Note_off_c, 1, 74, 64
3, 258640, Note_off_c, 1, 71, 64
3, 258640, Note_off_c, 1, 67, 64
3, 258720, Note_on_c, 1, 64, 100
3, 258720, Note_on_c, 1, 69, 100
3, 258720, Note_on_c, 1, 72, 100
3, 258720, Control_c, 1, 7, 50
3, 259120, Note_off_c, 1, 72, 64
3, 259120, Note_off_c, 1, 69, 64
3, 259120, Note_off_c, 1, 64, 64
3, 259200, Note_on_c, 1, 62, 100
3, 259200, Note_on_c, 1, 67, 100
3, 259200, Note_on_c, 1, 71, 100
3, 259600, Note_off_c, 1, 71, 64
3, 259600, Note_off_c, 1, 67, 64
3, 259600, Note_off_c, 1, 62, 64
3, 259680, Note_on_c, 1, 64, 100
3, 259680, Note_on_c, 1, 69, 100
3, 259680, Note_on_c, 1, 72, 100
3, 259915, Note_off_c, 1, 72, 64
3, 259915, Note_off_c, 1, 69, 64
3, 259915, Note_off_c, 1, 64, 64
3, 259920, Note_on_c, 1, 62, 100
3, 259920, Note_on_c, 1, 67, 100
3, 259920, Note_on_c, 1, 71, 100
3, 260395, Note_off_c, 1, 71, 64
3, 260395, Note_off_c, 1, 67, 64
3, 260395, Note_off_c, 1, 62, 64
3, 260400, Note_on_c, 1, 64, 100
3, 260400, Note_on_c, 1, 69, 100
3, 260400, Note_on_c, 1, 72, 100
3, 260635, Note_off_c, 1, 72, 64
3, 260635, Note_off_c, 1, 69, 64
3, 260635, Note_off_c, 1, 64, 64
3, 260640, Note_on_c, 1, 62, 100
3, 260640, Note_on_c, 1, 67, 100
3, 260640, Note_on_c, 1, 71, 100
3, 260875, Note_off_c, 1, 71, 64
3, 260875, Note_off_c, 1, 67, 64
3, 260875, Note_off_c, 1, 62, 64
3, 260880, Note_on_c, 1, 60, 100
3, 260880, Note_on_c, 1, 65, 100
3, 260880, Note_on_c, 1, 69, 100
3, 261360, Control_c, 1, 7, 30
3, 261520, Note_off_c, 1, 69, 64
3, 261520, Note_off_c, 1, 65, 64
3, 261520, Note_off_c, 1, 60, 64
3, 261840, Note_on_c, 1, 60, 100
3, 261840, Note_on_c, 1, 65, 100
3, 261840, Note_on_c, 1, 69, 100
3, 262075, Note_off_c, 1, 69, 64
3, 262075, Note_off_c, 1, 65, 64
3, 262075, Note_off_c, 1, 60, 64
3, 262080, Note_on_c, 1, 60, 100
3, 262080, Note_on_c, 1, 65, 100
3, 262080, Note_on_c, 1, 69, 100
3, 262315, Note_off_c, 1, 69, 64
3, 262315, Note_off_c, 1, 65, 64
3, 262315, Note_off_c, 1, 60, 64
3, 262320, Note_on_c, 1, 60, 100
3, 262320, Note_on_c, 1, 65, 100
3, 262320, Note_on_c, 1, 69, 100
3, 262555, Note_off_c, 1, 69, 64
3, 262555, Note_off_c, 1, 65, 64
3, 262555, Note_off_c, 1, 60, 64
3, 262560, Note_on_c, 1, 60, 100
3, 262560, Note_on_c, 1, 65, 100
3, 262560, Note_on_c, 1, 69, 100
3, 262560, Control_c, 1, 7, 20
3, 262795, Note_off_c, 1, 69, 64
3, 262795, Note_off_c, 1, 65, 64
3, 262795, Note_off_c, 1, 60, 64
3, 262800, Note_on_c, 1, 60, 100
3, 262800, Note_on_c, 1, 65, 100
3, 262800, Note_on_c, 1, 69, 100
3, 263035, Note_off_c, 1, 69, 64
3, 263035, Note_off_c, 1, 65, 64
3, 263035, Note_off_c, 1, 60, 64
3, 263040, Note_on_c, 1, 60, 100
3, 263040, Note_on_c, 1, 65, 100
3, 263040, Note_on_c, 1, 69, 100
3, 263680, Note_off_c, 1, 69, 64
3, 263680, Note_off_c, 1, 65, 64
3, 263680, Note_off_c, 1, 60, 64
3, 263760, Note_on_c, 1, 60, 100
3, 263760, Note_on_c, 1, 64, 100
3, 263760, Note_on_c, 1, 67, 100
3, 264400, Note_off_c, 1, 67, 64
3, 264400, Note_off_c, 1, 64, 64
3, 264400, Note_off_c, 1, 60, 64
3, 264480, Note_on_c, 1, 60, 100
3, 264480, Note_on_c, 1, 65, 100
3, 264480, Note_on_c, 1, 69, 100
3, 264720, Control_c, 1, 7, 5
3, 265195, Note_off_c, 1, 69, 64
3, 265195, Note_off_c, 1, 65, 64
3, 265195, Note_off_c, 1, 60, 64
3, 265200, Note_on_c, 1, 60, 100
3, 265200, Note_on_c, 1, 64, 100
3, 265200, Note_on_c, 1, 67, 100
3, 266760, Note_off_c, 1, 67, 64
3, 266760, Note_off_c, 1, 64, 64
3, 266760, Note_off_c, 1, 60, 64
3, 266760, End_track
4, 0, Start_track
4, 0, Title_t, "BASS PIANO"
4, 0, MIDI_port, 0
4, 0, Channel_prefix, 2
4, 0, Control_c, 2, 7, 127
4, 0, Control_c, 2, 10, 64
4, 0, Program_c, 2, 0
4, 1920, Control_c, 2, 93, 127
4, 1920, Control_c, 2, 91, 63
4, 1920, Note_on_c, 2, 28, 100
4, 1920, Note_on_c, 2, 40, 100
4, 2320, Note_off_c, 2, 40, 64
4, 2320, Note_off_c, 2, 28, 64
4, 4080, Note_on_c, 2, 31, 100
4, 4080, Note_on_c, 2, 43, 100
4, 4315, Note_off_c, 2, 43, 64
4, 4315, Note_off_c, 2, 31, 64
4, 4560, Note_on_c, 2, 31, 100
4, 4560, Note_on_c, 2, 43, 100
4, 5640, Note_off_c, 2, 43, 64
4, 5640, Note_off_c, 2, 31, 64
4, 5760, Note_on_c, 2, 28, 100
4, 5760, Note_on_c, 2, 40, 100
4, 6160, Note_off_c, 2, 40, 64
4, 6160, Note_off_c, 2, 28, 64
4, 9600, Note_on_c, 2, 28, 100
4, 9600, Note_on_c, 2, 40, 100
4, 10000, Note_off_c, 2, 40, 64
4, 10000, Note_off_c, 2, 28, 64
4, 11520, Note_on_c, 2, 38, 100
4, 11520, Note_on_c, 2, 50, 100
4, 12360, Note_off_c, 2, 50, 64
4, 12360, Note_off_c, 2, 38, 64
4, 12480, Note_on_c, 2, 38, 100
4, 12480, Note_on_c, 2, 50, 100
4, 13320, Note_off_c, 2, 50, 64
4, 13320, Note_off_c, 2, 38, 64
4, 13440, Note_on_c, 2, 36, 100
4, 14635, Note_off_c, 2, 36, 64
4, 14640, Note_on_c, 2, 43, 100
4, 15280, Note_off_c, 2, 43, 64
4, 15360, Note_on_c, 2, 36, 100
4, 15360, Note_on_c, 2, 48, 100
4, 15760, Note_off_c, 2, 48, 64
4, 15760, Note_off_c, 2, 36, 64
4, 17280, Note_on_c, 2, 28, 100
4, 17280, Note_on_c, 2, 40, 100
4, 17680, Note_off_c, 2, 40, 64
4, 17680, Note_off_c, 2, 28, 64
4, 18240, Note_on_c, 2, 28, 100
4, 18240, Note_on_c, 2, 40, 100
4, 18640, Note_off_c, 2, 40, 64
4, 18640, Note_off_c, 2, 28, 64
4, 19440, Note_on_c, 2, 31, 100
4, 19440, Note_on_c, 2, 43, 100
4, 19675, Note_off_c, 2, 43, 64
4, 19675, Note_off_c, 2, 31, 64
4, 19920, Note_on_c, 2, 38, 100
4, 20155, Note_off_c, 2, 38, 64
4, 20160, Note_on_c, 2, 31, 100
4, 20160, Note_on_c, 2, 43, 100
4, 21000, Note_off_c, 2, 43, 64
4, 21000, Note_off_c, 2, 31, 64
4, 21120, Note_on_c, 2, 28, 100
4, 21120, Note_on_c, 2, 40, 100
4, 21600, Note_off_c, 2, 40, 80
4, 21600, Note_off_c, 2, 28, 80
4, 21840, Note_on_c, 2, 35, 100
4, 22075, Note_off_c, 2, 35, 64
4, 22080, Note_on_c, 2, 28, 100
4, 22080, Note_on_c, 2, 40, 100
4, 22480, Note_off_c, 2, 40, 64
4, 22480, Note_off_c, 2, 28, 64
4, 23280, Note_on_c, 2, 31, 100
4, 23280, Note_on_c, 2, 43, 100
4, 23515, Note_off_c, 2, 43, 64
4, 23515, Note_off_c, 2, 31, 64
4, 23760, Note_on_c, 2, 38, 100
4, 23995, Note_off_c, 2, 38, 64
4, 24000, Note_on_c, 2, 31, 100
4, 24000, Note_on_c, 2, 43, 100
4, 24840, Note_off_c, 2, 43, 64
4, 24840, Note_off_c, 2, 31, 64
4, 24960, Note_on_c, 2, 28, 100
4, 24960, Note_on_c, 2, 40, 100
4, 25360, Note_off_c, 2, 40, 64
4, 25360, Note_off_c, 2, 28, 64
4, 25680, Note_on_c, 2, 35, 100
4, 25915, Note_off_c, 2, 35, 64
4, 25920, Note_on_c, 2, 28, 100
4, 25920, Note_on_c, 2, 40, 100
4, 26320, Note_off_c, 2, 40, 64
4, 26320, Note_off_c, 2, 28, 64
4, 26880, Note_on_c, 2, 38, 100
4, 26880, Note_on_c, 2, 50, 100
4, 27115, Note_off_c, 2, 50, 64
4, 27115, Note_off_c, 2, 38, 64
4, 27120, Note_on_c, 2, 38, 100
4, 27120, Note_on_c, 2, 50, 100
4, 27355, Note_off_c, 2, 50, 64
4, 27355, Note_off_c, 2, 38, 64
4, 27360, Note_on_c, 2, 38, 100
4, 27360, Note_on_c, 2, 50, 100
4, 27595, Note_off_c, 2, 50, 64
4, 27595, Note_off_c, 2, 38, 64
4, 27600, Note_on_c, 2, 38, 100
4, 27600, Note_on_c, 2, 50, 100
4, 27835, Note_off_c, 2, 50, 64
4, 27835, Note_off_c, 2, 38, 64
4, 27840, Note_on_c, 2, 38, 100
4, 27840, Note_on_c, 2, 50, 100
4, 28075, Note_off_c, 2, 50, 64
4, 28075, Note_off_c, 2, 38, 64
4, 28080, Note_on_c, 2, 38, 100
4, 28080, Note_on_c, 2, 50, 100
4, 28315, Note_off_c, 2, 50, 64
4, 28315, Note_off_c, 2, 38, 64
4, 28320, Note_on_c, 2, 38, 100
4, 28320, Note_on_c, 2, 50, 100
4, 28555, Note_off_c, 2, 50, 64
4, 28555, Note_off_c, 2, 38, 64
4, 28560, Note_on_c, 2, 38, 100
4, 28560, Note_on_c, 2, 50, 100
4, 28795, Note_off_c, 2, 50, 64
4, 28795, Note_off_c, 2, 38, 64
4, 28800, Note_on_c, 2, 36, 100
4, 28800, Note_on_c, 2, 48, 100
4, 29035, Note_off_c, 2, 48, 64
4, 29035, Note_off_c, 2, 36, 64
4, 29040, Note_on_c, 2, 36, 100
4, 29040, Note_on_c, 2, 48, 100
4, 29275, Note_off_c, 2, 48, 64
4, 29275, Note_off_c, 2, 36, 64
4, 29280, Note_on_c, 2, 36, 100
4, 29280, Note_on_c, 2, 48, 100
4, 29515, Note_off_c, 2, 48, 64
4, 29515, Note_off_c, 2, 36, 64
4, 29520, Note_on_c, 2, 36, 100
4, 29520, Note_on_c, 2, 48, 100
4, 29755, Note_off_c, 2, 48, 64
4, 29755, Note_off_c, 2, 36, 64
4, 29760, Note_on_c, 2, 36, 100
4, 29760, Note_on_c, 2, 48, 100
4, 29995, Note_off_c, 2, 48, 64
4, 29995, Note_off_c, 2, 36, 64
4, 30000, Note_on_c, 2, 36, 100
4, 30000, Note_on_c, 2, 48, 100
4, 30235, Note_off_c, 2, 48, 64
4, 30235, Note_off_c, 2, 36, 64
4, 30240, Note_on_c, 2, 36, 100
4, 30240, Note_on_c, 2, 48, 100
4, 30475, Note_off_c, 2, 48, 64
4, 30475, Note_off_c, 2, 36, 64
4, 30480, Note_on_c, 2, 36, 100
4, 30480, Note_on_c, 2, 48, 100
4, 30715, Note_off_c, 2, 48, 64
4, 30715, Note_off_c, 2, 36, 64
4, 30720, Note_on_c, 2, 36, 100
4, 30720, Note_on_c, 2, 48, 100
4, 31120, Note_off_c, 2, 48, 64
4, 31120, Note_off_c, 2, 36, 64
4, 32640, Note_on_c, 2, 28, 100
4, 32640, Note_on_c, 2, 40, 100
4, 33040, Note_off_c, 2, 40, 64
4, 33040, Note_off_c, 2, 28, 64
4, 33360, Note_on_c, 2, 35, 100
4, 33595, Note_off_c, 2, 35, 64
4, 33600, Note_on_c, 2, 28, 100
4, 33600, Note_on_c, 2, 40, 100
4, 34000, Note_off_c, 2, 40, 64
4, 34000, Note_off_c, 2, 28, 64
4, 34800, Note_on_c, 2, 31, 100
4, 34800, Note_on_c, 2, 43, 100
4, 35035, Note_off_c, 2, 43, 64
4, 35035, Note_off_c, 2, 31, 64
4, 35280, Note_on_c, 2, 38, 100
4, 35515, Note_off_c, 2, 38, 64
4, 35520, Note_on_c, 2, 31, 100
4, 35520, Note_on_c, 2, 43, 100
4, 36360, Note_off_c, 2, 43, 64
4, 36360, Note_off_c, 2, 31, 64
4, 36480, Note_on_c, 2, 28, 100
4, 36480, Note_on_c, 2, 40, 100
4, 36880, Note_off_c, 2, 40, 64
4, 36880, Note_off_c, 2, 28, 64
4, 37200, Note_on_c, 2, 35, 100
4, 37435, Note_off_c, 2, 35, 64
4, 37440, Note_on_c, 2, 28, 100
4, 37440, Note_on_c, 2, 40, 100
4, 37840, Note_off_c, 2, 40, 64
4, 37840, Note_off_c, 2, 28, 64
4, 38640, Note_on_c, 2, 31, 100
4, 38640, Note_on_c, 2, 43, 100
4, 38875, Note_off_c, 2, 43, 64
4, 38875, Note_off_c, 2, 31, 64
4, 39120, Note_on_c, 2, 38, 100
4, 39355, Note_off_c, 2, 38, 64
4, 39360, Note_on_c, 2, 31, 100
4, 39360, Note_on_c, 2, 43, 100
4, 40200, Note_off_c, 2, 43, 64
4, 40200, Note_off_c, 2, 31, 64
4, 40320, Note_on_c, 2, 28, 100
4, 40320, Note_on_c, 2, 40, 100
4, 40720, Note_off_c, 2, 40, 64
4, 40720, Note_off_c, 2, 28, 64
4, 41040, Note_on_c, 2, 35, 100
4, 41275, Note_off_c, 2, 35, 64
4, 41280, Note_on_c, 2, 28, 100
4, 41280, Note_on_c, 2, 40, 100
4, 41680, Note_off_c, 2, 40, 64
4, 41680, Note_off_c, 2, 28, 64
4, 42240, Note_on_c, 2, 38, 100
4, 42240, Note_on_c, 2, 50, 100
4, 42475, Note_off_c, 2, 50, 64
4, 42475, Note_off_c, 2, 38, 64
4, 42480, Note_on_c, 2, 38, 100
4, 42480, Note_on_c, 2, 50, 100
4, 42715, Note_off_c, 2, 50, 64
4, 42715, Note_off_c, 2, 38, 64
4, 42720, Note_on_c, 2, 38, 100
4, 42720, Note_on_c, 2, 50, 100
4, 42955, Note_off_c, 2, 50, 64
4, 42955, Note_off_c, 2, 38, 64
4, 42960, Note_on_c, 2, 38, 100
4, 42960, Note_on_c, 2, 50, 100
4, 43195, Note_off_c, 2, 50, 64
4, 43195, Note_off_c, 2, 38, 64
4, 43200, Note_on_c, 2, 38, 100
4, 43200, Note_on_c, 2, 50, 100
4, 43435, Note_off_c, 2, 50, 64
4, 43435, Note_off_c, 2, 38, 64
4, 43440, Note_on_c, 2, 38, 100
4, 43440, Note_on_c, 2, 50, 100
4, 43675, Note_off_c, 2, 50, 64
4, 43675, Note_off_c, 2, 38, 64
4, 43680, Note_on_c, 2, 38, 100
4, 43680, Note_on_c, 2, 50, 100
4, 43915, Note_off_c, 2, 50, 64
4, 43915, Note_off_c, 2, 38, 64
4, 43920, Note_on_c, 2, 38, 100
4, 43920, Note_on_c, 2, 50, 100
4, 44155, Note_off_c, 2, 50, 64
4, 44155, Note_off_c, 2, 38, 64
4, 44160, Note_on_c, 2, 36, 100
4, 44160, Note_on_c, 2, 48, 100
4, 44395, Note_off_c, 2, 48, 64
4, 44395, Note_off_c, 2, 36, 64
4, 44400, Note_on_c, 2, 36, 100
4, 44400, Note_on_c, 2, 48, 100
4, 44635, Note_off_c, 2, 48, 64
4, 44635, Note_off_c, 2, 36, 64
4, 44640, Note_on_c, 2, 36, 100
4, 44640, Note_on_c, 2, 48, 100
4, 44875, Note_off_c, 2, 48, 64
4, 44875, Note_off_c, 2, 36, 64
4, 44880, Note_on_c, 2, 36, 100
4, 44880, Note_on_c, 2, 48, 100
4, 45115, Note_off_c, 2, 48, 64
4, 45115, Note_off_c, 2, 36, 64
4, 45120, Note_on_c, 2, 36, 100
4, 45120, Note_on_c, 2, 48, 100
4, 45355, Note_off_c, 2, 48, 64
4, 45355, Note_off_c, 2, 36, 64
4, 45360, Note_on_c, 2, 36, 100
4, 45360, Note_on_c, 2, 48, 100
4, 45595, Note_off_c, 2, 48, 64
4, 45595, Note_off_c, 2, 36, 64
4, 45600, Note_on_c, 2, 36, 100
4, 45600, Note_on_c, 2, 48, 100
4, 45835, Note_off_c, 2, 48, 64
4, 45835, Note_off_c, 2, 36, 64
4, 45840, Note_on_c, 2, 36, 100
4, 45840, Note_on_c, 2, 48, 100
4, 46075, Note_off_c, 2, 48, 64
4, 46075, Note_off_c, 2, 36, 64
4, 46080, Note_on_c, 2, 36, 100
4, 46080, Note_on_c, 2, 48, 100
4, 46480, Note_off_c, 2, 48, 64
4, 46480, Note_off_c, 2, 36, 64
4, 48000, Note_on_c, 2, 29, 100
4, 48000, Note_on_c, 2, 41, 100
4, 48000, Control_c, 2, 10, 0
4, 48400, Note_off_c, 2, 41, 64
4, 48400, Note_off_c, 2, 29, 64
4, 48960, Note_on_c, 2, 36, 100
4, 48960, Note_on_c, 2, 48, 100
4, 48960, Control_c, 2, 10, 127
4, 49800, Note_off_c, 2, 48, 64
4, 49800, Note_off_c, 2, 36, 64
4, 49920, Note_on_c, 2, 29, 100
4, 49920, Note_on_c, 2, 41, 100
4, 49920, Control_c, 2, 10, 0
4, 50320, Note_off_c, 2, 41, 64
4, 50320, Note_off_c, 2, 29, 64
4, 50880, Note_on_c, 2, 36, 100
4, 50880, Note_on_c, 2, 48, 100
4, 50880, Control_c, 2, 10, 127
4, 51720, Note_off_c, 2, 48, 64
4, 51720, Note_off_c, 2, 36, 64
4, 51840, Note_on_c, 2, 29, 100
4, 51840, Note_on_c, 2, 41, 100
4, 51840, Control_c, 2, 10, 0
4, 52240, Note_off_c, 2, 41, 64
4, 52240, Note_off_c, 2, 29, 64
4, 52800, Note_on_c, 2, 36, 100
4, 52800, Note_on_c, 2, 48, 100
4, 52800, Control_c, 2, 10, 127
4, 53640, Note_off_c, 2, 48, 64
4, 53640, Note_off_c, 2, 36, 64
4, 53760, Note_on_c, 2, 29, 100
4, 53760, Note_on_c, 2, 41, 100
4, 53760, Control_c, 2, 10, 64
4, 54160, Note_off_c, 2, 41, 64
4, 54160, Note_off_c, 2, 29, 64
4, 54240, Note_on_c, 2, 29, 100
4, 54240, Note_on_c, 2, 41, 100
4, 54640, Note_off_c, 2, 41, 64
4, 54640, Note_off_c, 2, 29, 64
4, 54960, Note_on_c, 2, 36, 100
4, 54960, Note_on_c, 2, 48, 100
4, 55600, Note_off_c, 2, 48, 64
4, 55600, Note_off_c, 2, 36, 64
4, 55680, Note_on_c, 2, 31, 100
4, 55680, Note_on_c, 2, 43, 100
4, 55680, Control_c, 2, 10, 0
4, 56080, Note_off_c, 2, 43, 64
4, 56080, Note_off_c, 2, 31, 64
4, 56640, Note_on_c, 2, 38, 100
4, 56640, Note_on_c, 2, 50, 100
4, 56640, Control_c, 2, 10, 127
4, 57480, Note_off_c, 2, 50, 64
4, 57480, Note_off_c, 2, 38, 64
4, 57600, Note_on_c, 2, 31, 100
4, 57600, Note_on_c, 2, 43, 100
4, 57600, Control_c, 2, 10, 0
4, 58000, Note_off_c, 2, 43, 64
4, 58000, Note_off_c, 2, 31, 64
4, 58560, Note_on_c, 2, 38, 100
4, 58560, Note_on_c, 2, 50, 100
4, 58560, Control_c, 2, 10, 127
4, 59400, Note_off_c, 2, 50, 64
4, 59400, Note_off_c, 2, 38, 64
4, 59520, Note_on_c, 2, 31, 100
4, 59520, Note_on_c, 2, 43, 100
4, 59520, Control_c, 2, 10, 0
4, 59920, Note_off_c, 2, 43, 64
4, 59920, Note_off_c, 2, 31, 64
4, 60480, Note_on_c, 2, 38, 100
4, 60480, Note_on_c, 2, 50, 100
4, 60480, Control_c, 2, 10, 127
4, 61320, Note_off_c, 2, 50, 64
4, 61320, Note_off_c, 2, 38, 64
4, 61680, Note_on_c, 2, 36, 100
4, 61680, Note_on_c, 2, 48, 100
4, 61680, Control_c, 2, 10, 65
4, 61915, Note_off_c, 2, 48, 64
4, 61915, Note_off_c, 2, 36, 64
4, 61920, Note_on_c, 2, 36, 100
4, 61920, Note_on_c, 2, 48, 100
4, 62320, Note_off_c, 2, 48, 64
4, 62320, Note_off_c, 2, 36, 64
4, 62640, Note_on_c, 2, 40, 100
4, 62640, Note_on_c, 2, 52, 100
4, 62875, Note_off_c, 2, 52, 64
4, 62875, Note_off_c, 2, 40, 64
4, 62880, Note_on_c, 2, 40, 100
4, 62880, Note_on_c, 2, 52, 100
4, 63280, Note_off_c, 2, 52, 64
4, 63280, Note_off_c, 2, 40, 64
4, 63360, Note_on_c, 2, 29, 100
4, 63360, Note_on_c, 2, 41, 100
4, 63360, Control_c, 2, 10, 0
4, 63760, Note_off_c, 2, 41, 64
4, 63760, Note_off_c, 2, 29, 64
4, 64320, Note_on_c, 2, 36, 100
4, 64320, Note_on_c, 2, 48, 100
4, 64320, Control_c, 2, 10, 127
4, 65160, Note_off_c, 2, 48, 64
4, 65160, Note_off_c, 2, 36, 64
4, 65280, Note_on_c, 2, 29, 100
4, 65280, Note_on_c, 2, 41, 100
4, 65280, Control_c, 2, 10, 0
4, 65680, Note_off_c, 2, 41, 64
4, 65680, Note_off_c, 2, 29, 64
4, 66240, Note_on_c, 2, 36, 100
4, 66240, Note_on_c, 2, 48, 100
4, 66240, Control_c, 2, 10, 127
4, 67080, Note_off_c, 2, 48, 64
4, 67080, Note_off_c, 2, 36, 64
4, 67200, Note_on_c, 2, 29, 100
4, 67200, Note_on_c, 2, 41, 100
4, 67200, Control_c, 2, 10, 0
4, 67600, Note_off_c, 2, 41, 64
4, 67600, Note_off_c, 2, 29, 64
4, 68160, Note_on_c, 2, 36, 100
4, 68160, Note_on_c, 2, 48, 100
4, 68160, Control_c, 2, 10, 127
4, 69000, Note_off_c, 2, 48, 64
4, 69000, Note_off_c, 2, 36, 64
4, 69120, Note_on_c, 2, 29, 100
4, 69120, Note_on_c, 2, 41, 100
4, 69120, Control_c, 2, 10, 64
4, 69760, Note_off_c, 2, 41, 64
4, 69760, Note_off_c, 2, 29, 64
4, 69840, Note_on_c, 2, 29, 100
4, 69840, Note_on_c, 2, 41, 100
4, 70315, Note_off_c, 2, 41, 64
4, 70315, Note_off_c, 2, 29, 64
4, 70320, Note_on_c, 2, 29, 100
4, 70320, Note_on_c, 2, 41, 100
4, 70555, Note_off_c, 2, 41, 64
4, 70555, Note_off_c, 2, 29, 64
4, 70560, Note_on_c, 2, 33, 100
4, 70560, Note_on_c, 2, 45, 100
4, 70795, Note_off_c, 2, 45, 64
4, 70795, Note_off_c, 2, 33, 64
4, 70800, Note_on_c, 2, 34, 100
4, 70800, Note_on_c, 2, 46, 100
4, 71035, Note_off_c, 2, 46, 64
4, 71035, Note_off_c, 2, 34, 64
4, 71040, Note_on_c, 2, 36, 100
4, 71040, Note_on_c, 2, 48, 100
4, 71275, Note_off_c, 2, 48, 64
4, 71275, Note_off_c, 2, 36, 64
4, 71280, Note_on_c, 2, 36, 100
4, 71280, Note_on_c, 2, 48, 100
4, 71515, Note_off_c, 2, 48, 64
4, 71515, Note_off_c, 2, 36, 64
4, 71520, Note_on_c, 2, 36, 100
4, 71520, Note_on_c, 2, 48, 100
4, 71755, Note_off_c, 2, 48, 64
4, 71755, Note_off_c, 2, 36, 64
4, 71760, Note_on_c, 2, 36, 100
4, 71760, Note_on_c, 2, 48, 100
4, 71995, Note_off_c, 2, 48, 64
4, 71995, Note_off_c, 2, 36, 64
4, 72000, Note_on_c, 2, 36, 100
4, 72000, Note_on_c, 2, 48, 100
4, 72235, Note_off_c, 2, 48, 64
4, 72235, Note_off_c, 2, 36, 64
4, 72240, Note_on_c, 2, 36, 100
4, 72240, Note_on_c, 2, 48, 100
4, 72475, Note_off_c, 2, 48, 64
4, 72475, Note_off_c, 2, 36, 64
4, 72480, Note_on_c, 2, 36, 100
4, 72480, Note_on_c, 2, 48, 100
4, 72715, Note_off_c, 2, 48, 64
4, 72715, Note_off_c, 2, 36, 64
4, 72720, Note_on_c, 2, 36, 100
4, 72720, Note_on_c, 2, 48, 100
4, 72955, Note_off_c, 2, 48, 64
4, 72955, Note_off_c, 2, 36, 64
4, 72960, Note_on_c, 2, 36, 100
4, 72960, Note_on_c, 2, 48, 100
4, 73195, Note_off_c, 2, 48, 64
4, 73195, Note_off_c, 2, 36, 64
4, 73200, Note_on_c, 2, 36, 100
4, 73200, Note_on_c, 2, 48, 100
4, 73435, Note_off_c, 2, 48, 64
4, 73435, Note_off_c, 2, 36, 64
4, 73440, Note_on_c, 2, 36, 100
4, 73440, Note_on_c, 2, 48, 100
4, 73675, Note_off_c, 2, 48, 64
4, 73675, Note_off_c, 2, 36, 64
4, 73680, Note_on_c, 2, 36, 100
4, 73680, Note_on_c, 2, 48, 100
4, 73915, Note_off_c, 2, 48, 64
4, 73915, Note_off_c, 2, 36, 64
4, 73920, Note_on_c, 2, 36, 100
4, 73920, Note_on_c, 2, 48, 100
4, 74155, Note_off_c, 2, 48, 64
4, 74155, Note_off_c, 2, 36, 64
4, 74160, Note_on_c, 2, 36, 100
4, 74160, Note_on_c, 2, 48, 100
4, 74395, Note_off_c, 2, 48, 64
4, 74395, Note_off_c, 2, 36, 64
4, 74400, Note_on_c, 2, 36, 100
4, 74400, Note_on_c, 2, 48, 100
4, 74635, Note_off_c, 2, 48, 64
4, 74635, Note_off_c, 2, 36, 64
4, 74640, Note_on_c, 2, 36, 100
4, 74640, Note_on_c, 2, 48, 100
4, 74875, Note_off_c, 2, 48, 64
4, 74875, Note_off_c, 2, 36, 64
4, 74880, Note_on_c, 2, 38, 100
4, 74880, Note_on_c, 2, 50, 100
4, 75115, Note_off_c, 2, 50, 64
4, 75115, Note_off_c, 2, 38, 64
4, 75120, Note_on_c, 2, 38, 100
4, 75120, Note_on_c, 2, 50, 100
4, 75355, Note_off_c, 2, 50, 64
4, 75355, Note_off_c, 2, 38, 64
4, 75360, Note_on_c, 2, 38, 100
4, 75360, Note_on_c, 2, 50, 100
4, 75595, Note_off_c, 2, 50, 64
4, 75595, Note_off_c, 2, 38, 64
4, 75600, Note_on_c, 2, 38, 100
4, 75600, Note_on_c, 2, 50, 100
4, 75835, Note_off_c, 2, 50, 64
4, 75835, Note_off_c, 2, 38, 64
4, 75840, Note_on_c, 2, 38, 100
4, 75840, Note_on_c, 2, 50, 100
4, 76075, Note_off_c, 2, 50, 64
4, 76075, Note_off_c, 2, 38, 64
4, 76080, Note_on_c, 2, 38, 100
4, 76080, Note_on_c, 2, 50, 100
4, 76315, Note_off_c, 2, 50, 64
4, 76315, Note_off_c, 2, 38, 64
4, 76320, Note_on_c, 2, 38, 100
4, 76320, Note_on_c, 2, 50, 100
4, 76555, Note_off_c, 2, 50, 64
4, 76555, Note_off_c, 2, 38, 64
4, 76560, Note_on_c, 2, 38, 100
4, 76560, Note_on_c, 2, 50, 100
4, 76795, Note_off_c, 2, 50, 64
4, 76795, Note_off_c, 2, 38, 64
4, 76800, Note_on_c, 2, 38, 100
4, 76800, Note_on_c, 2, 50, 100
4, 77035, Note_off_c, 2, 50, 64
4, 77035, Note_off_c, 2, 38, 64
4, 77040, Note_on_c, 2, 38, 100
4, 77040, Note_on_c, 2, 50, 100
4, 77275, Note_off_c, 2, 50, 64
4, 77275, Note_off_c, 2, 38, 64
4, 77280, Note_on_c, 2, 38, 100
4, 77280, Note_on_c, 2, 50, 100
4, 77515, Note_off_c, 2, 50, 64
4, 77515, Note_off_c, 2, 38, 64
4, 77520, Note_on_c, 2, 38, 100
4, 77520, Note_on_c, 2, 50, 100
4, 77755, Note_off_c, 2, 50, 64
4, 77755, Note_off_c, 2, 38, 64
4, 77760, Note_on_c, 2, 38, 100
4, 77760, Note_on_c, 2, 50, 100
4, 77995, Note_off_c, 2, 50, 64
4, 77995, Note_off_c, 2, 38, 64
4, 78000, Note_on_c, 2, 38, 100
4, 78000, Note_on_c, 2, 50, 100
4, 78235, Note_off_c, 2, 50, 64
4, 78235, Note_off_c, 2, 38, 64
4, 78240, Note_on_c, 2, 38, 100
4, 78240, Note_on_c, 2, 50, 100
4, 78475, Note_off_c, 2, 50, 64
4, 78475, Note_off_c, 2, 38, 64
4, 78480, Note_on_c, 2, 38, 100
4, 78480, Note_on_c, 2, 50, 100
4, 78715, Note_off_c, 2, 50, 64
4, 78715, Note_off_c, 2, 38, 64
4, 78720, Note_on_c, 2, 28, 100
4, 78720, Note_on_c, 2, 40, 100
4, 79120, Note_off_c, 2, 40, 64
4, 79120, Note_off_c, 2, 28, 64
4, 80880, Note_on_c, 2, 31, 100
4, 80880, Note_on_c, 2, 43, 100
4, 81115, Note_off_c, 2, 43, 64
4, 81115, Note_off_c, 2, 31, 64
4, 81360, Note_on_c, 2, 31, 100
4, 81360, Note_on_c, 2, 43, 100
4, 82440, Note_off_c, 2, 43, 64
4, 82440, Note_off_c, 2, 31, 64
4, 82560, Note_on_c, 2, 28, 100
4, 82560, Note_on_c, 2, 40, 100
4, 82960, Note_off_c, 2, 40, 64
4, 82960, Note_off_c, 2, 28, 64
4, 86400, Note_on_c, 2, 28, 100
4, 86400, Note_on_c, 2, 40, 100
4, 86800, Note_off_c, 2, 40, 64
4, 86800, Note_off_c, 2, 28, 64
4, 88320, Note_on_c, 2, 38, 100
4, 88320, Note_on_c, 2, 50, 100
4, 89160, Note_off_c, 2, 50, 64
4, 89160, Note_off_c, 2, 38, 64
4, 89280, Note_on_c, 2, 38, 100
4, 89280, Note_on_c, 2, 50, 100
4, 90120, Note_off_c, 2, 50, 64
4, 90120, Note_off_c, 2, 38, 64
4, 90240, Note_on_c, 2, 36, 100
4, 91435, Note_off_c, 2, 36, 64
4, 91440, Note_on_c, 2, 43, 100
4, 92080, Note_off_c, 2, 43, 64
4, 92160, Note_on_c, 2, 36, 100
4, 92160, Note_on_c, 2, 48, 100
4, 92560, Note_off_c, 2, 48, 64
4, 92560, Note_off_c, 2, 36, 64
4, 94080, Note_on_c, 2, 28, 100
4, 94080, Note_on_c, 2, 40, 100
4, 94480, Note_off_c, 2, 40, 64
4, 94480, Note_off_c, 2, 28, 64
4, 95040, Note_on_c, 2, 28, 100
4, 95040, Note_on_c, 2, 40, 100
4, 95440, Note_off_c, 2, 40, 64
4, 95440, Note_off_c, 2, 28, 64
4, 96240, Note_on_c, 2, 31, 100
4, 96240, Note_on_c, 2, 43, 100
4, 96475, Note_off_c, 2, 43, 64
4, 96475, Note_off_c, 2, 31, 64
4, 96720, Note_on_c, 2, 38, 100
4, 96955, Note_off_c, 2, 38, 64
4, 96960, Note_on_c, 2, 31, 100
4, 96960, Note_on_c, 2, 43, 100
4, 97800, Note_off_c, 2, 43, 64
4, 97800, Note_off_c, 2, 31, 64
4, 97920, Note_on_c, 2, 28, 100
4, 97920, Note_on_c, 2, 40, 100
4, 98320, Note_off_c, 2, 40, 64
4, 98320, Note_off_c, 2, 28, 64
4, 98640, Note_on_c, 2, 35, 100
4, 98875, Note_off_c, 2, 35, 64
4, 98880, Note_on_c, 2, 28, 100
4, 98880, Note_on_c, 2, 40, 100
4, 99280, Note_off_c, 2, 40, 64
4, 99280, Note_off_c, 2, 28, 64
4, 100080, Note_on_c, 2, 31, 100
4, 100080, Note_on_c, 2, 43, 100
4, 100315, Note_off_c, 2, 43, 64
4, 100315, Note_off_c, 2, 31, 64
4, 100560, Note_on_c, 2, 38, 100
4, 100795, Note_off_c, 2, 38, 64
4, 100800, Note_on_c, 2, 31, 100
4, 100800, Note_on_c, 2, 43, 100
4, 101640, Note_off_c, 2, 43, 64
4, 101640, Note_off_c, 2, 31, 64
4, 101760, Note_on_c, 2, 28, 100
4, 101760, Note_on_c, 2, 40, 100
4, 102160, Note_off_c, 2, 40, 64
4, 102160, Note_off_c, 2, 28, 64
4, 102480, Note_on_c, 2, 35, 100
4, 102715, Note_off_c, 2, 35, 64
4, 102720, Note_on_c, 2, 28, 100
4, 102720, Note_on_c, 2, 40, 100
4, 103120, Note_off_c, 2, 40, 64
4, 103120, Note_off_c, 2, 28, 64
4, 103680, Note_on_c, 2, 38, 100
4, 103680, Note_on_c, 2, 50, 100
4, 103915, Note_off_c, 2, 50, 64
4, 103915, Note_off_c, 2, 38, 64
4, 103920, Note_on_c, 2, 38, 100
4, 103920, Note_on_c, 2, 50, 100
4, 104155, Note_off_c, 2, 50, 64
4, 104155, Note_off_c, 2, 38, 64
4, 104160, Note_on_c, 2, 38, 100
4, 104160, Note_on_c, 2, 50, 100
4, 104395, Note_off_c, 2, 50, 64
4, 104395, Note_off_c, 2, 38, 64
4, 104400, Note_on_c, 2, 38, 100
4, 104400, Note_on_c, 2, 50, 100
4, 104635, Note_off_c, 2, 50, 64
4, 104635, Note_off_c, 2, 38, 64
4, 104640, Note_on_c, 2, 38, 100
4, 104640, Note_on_c, 2, 50, 100
4, 104875, Note_off_c, 2, 50, 64
4, 104875, Note_off_c, 2, 38, 64
4, 104880, Note_on_c, 2, 38, 100
4, 104880, Note_on_c, 2, 50, 100
4, 105115, Note_off_c, 2, 50, 64
4, 105115, Note_off_c, 2, 38, 64
4, 105120, Note_on_c, 2, 38, 100
4, 105120, Note_on_c, 2, 50, 100
4, 105355, Note_off_c, 2, 50, 64
4, 105355, Note_off_c, 2, 38, 64
4, 105360, Note_on_c, 2, 38, 100
4, 105360, Note_on_c, 2, 50, 100
4, 105595, Note_off_c, 2, 50, 64
4, 105595, Note_off_c, 2, 38, 64
4, 105600, Note_on_c, 2, 36, 100
4, 105600, Note_on_c, 2, 48, 100
4, 105835, Note_off_c, 2, 48, 64
4, 105835, Note_off_c, 2, 36, 64
4, 105840, Note_on_c, 2, 36, 100
4, 105840, Note_on_c, 2, 48, 100
4, 106075, Note_off_c, 2, 48, 64
4, 106075, Note_off_c, 2, 36, 64
4, 106080, Note_on_c, 2, 36, 100
4, 106080, Note_on_c, 2, 48, 100
4, 106315, Note_off_c, 2, 48, 64
4, 106315, Note_off_c, 2, 36, 64
4, 106320, Note_on_c, 2, 36, 100
4, 106320, Note_on_c, 2, 48, 100
4, 106555, Note_off_c, 2, 48, 64
4, 106555, Note_off_c, 2, 36, 64
4, 106560, Note_on_c, 2, 36, 100
4, 106560, Note_on_c, 2, 48, 100
4, 106795, Note_off_c, 2, 48, 64
4, 106795, Note_off_c, 2, 36, 64
4, 106800, Note_on_c, 2, 36, 100
4, 106800, Note_on_c, 2, 48, 100
4, 107035, Note_off_c, 2, 48, 64
4, 107035, Note_off_c, 2, 36, 64
4, 107040, Note_on_c, 2, 36, 100
4, 107040, Note_on_c, 2, 48, 100
4, 107275, Note_off_c, 2, 48, 64
4, 107275, Note_off_c, 2, 36, 64
4, 107280, Note_on_c, 2, 36, 100
4, 107280, Note_on_c, 2, 48, 100
4, 107515, Note_off_c, 2, 48, 64
4, 107515, Note_off_c, 2, 36, 64
4, 107520, Note_on_c, 2, 36, 100
4, 107520, Note_on_c, 2, 48, 100
4, 107920, Note_off_c, 2, 48, 64
4, 107920, Note_off_c, 2, 36, 64
4, 109440, Note_on_c, 2, 28, 100
4, 109440, Note_on_c, 2, 40, 100
4, 109840, Note_off_c, 2, 40, 64
4, 109840, Note_off_c, 2, 28, 64
4, 110160, Note_on_c, 2, 35, 100
4, 110395, Note_off_c, 2, 35, 64
4, 110400, Note_on_c, 2, 28, 100
4, 110400, Note_on_c, 2, 40, 100
4, 110800, Note_off_c, 2, 40, 64
4, 110800, Note_off_c, 2, 28, 64
4, 111600, Note_on_c, 2, 31, 100
4, 111600, Note_on_c, 2, 43, 100
4, 111835, Note_off_c, 2, 43, 64
4, 111835, Note_off_c, 2, 31, 64
4, 112080, Note_on_c, 2, 38, 100
4, 112315, Note_off_c, 2, 38, 64
4, 112320, Note_on_c, 2, 31, 100
4, 112320, Note_on_c, 2, 43, 100
4, 113160, Note_off_c, 2, 43, 64
4, 113160, Note_off_c, 2, 31, 64
4, 113280, Note_on_c, 2, 28, 100
4, 113280, Note_on_c, 2, 40, 100
4, 113680, Note_off_c, 2, 40, 64
4, 113680, Note_off_c, 2, 28, 64
4, 114000, Note_on_c, 2, 35, 100
4, 114235, Note_off_c, 2, 35, 64
4, 114240, Note_on_c, 2, 28, 100
4, 114240, Note_on_c, 2, 40, 100
4, 114640, Note_off_c, 2, 40, 64
4, 114640, Note_off_c, 2, 28, 64
4, 115440, Note_on_c, 2, 31, 100
4, 115440, Note_on_c, 2, 43, 100
4, 115675, Note_off_c, 2, 43, 64
4, 115675, Note_off_c, 2, 31, 64
4, 115920, Note_on_c, 2, 38, 100
4, 116155, Note_off_c, 2, 38, 64
4, 116160, Note_on_c, 2, 31, 100
4, 116160, Note_on_c, 2, 43, 100
4, 117000, Note_off_c, 2, 43, 64
4, 117000, Note_off_c, 2, 31, 64
4, 117120, Note_on_c, 2, 28, 100
4, 117120, Note_on_c, 2, 40, 100
4, 117520, Note_off_c, 2, 40, 64
4, 117520, Note_off_c, 2, 28, 64
4, 117840, Note_on_c, 2, 35, 100
4, 118075, Note_off_c, 2, 35, 64
4, 118080, Note_on_c, 2, 28, 100
4, 118080, Note_on_c, 2, 40, 100
4, 118480, Note_off_c, 2, 40, 64
4, 118480, Note_off_c, 2, 28, 64
4, 119040, Note_on_c, 2, 38, 100
4, 119040, Note_on_c, 2, 50, 100
4, 119275, Note_off_c, 2, 50, 64
4, 119275, Note_off_c, 2, 38, 64
4, 119280, Note_on_c, 2, 38, 100
4, 119280, Note_on_c, 2, 50, 100
4, 119515, Note_off_c, 2, 50, 64
4, 119515, Note_off_c, 2, 38, 64
4, 119520, Note_on_c, 2, 38, 100
4, 119520, Note_on_c, 2, 50, 100
4, 119755, Note_off_c, 2, 50, 64
4, 119755, Note_off_c, 2, 38, 64
4, 119760, Note_on_c, 2, 38, 100
4, 119760, Note_on_c, 2, 50, 100
4, 119995, Note_off_c, 2, 50, 64
4, 119995, Note_off_c, 2, 38, 64
4, 120000, Note_on_c, 2, 38, 100
4, 120000, Note_on_c, 2, 50, 100
4, 120235, Note_off_c, 2, 50, 64
4, 120235, Note_off_c, 2, 38, 64
4, 120240, Note_on_c, 2, 38, 100
4, 120240, Note_on_c, 2, 50, 100
4, 120475, Note_off_c, 2, 50, 64
4, 120475, Note_off_c, 2, 38, 64
4, 120480, Note_on_c, 2, 38, 100
4, 120480, Note_on_c, 2, 50, 100
4, 120715, Note_off_c, 2, 50, 64
4, 120715, Note_off_c, 2, 38, 64
4, 120720, Note_on_c, 2, 38, 100
4, 120720, Note_on_c, 2, 50, 100
4, 120955, Note_off_c, 2, 50, 64
4, 120955, Note_off_c, 2, 38, 64
4, 120960, Note_on_c, 2, 36, 100
4, 120960, Note_on_c, 2, 48, 100
4, 121195, Note_off_c, 2, 48, 64
4, 121195, Note_off_c, 2, 36, 64
4, 121200, Note_on_c, 2, 36, 100
4, 121200, Note_on_c, 2, 48, 100
4, 121435, Note_off_c, 2, 48, 64
4, 121435, Note_off_c, 2, 36, 64
4, 121440, Note_on_c, 2, 36, 100
4, 121440, Note_on_c, 2, 48, 100
4, 121675, Note_off_c, 2, 48, 64
4, 121675, Note_off_c, 2, 36, 64
4, 121680, Note_on_c, 2, 36, 100
4, 121680, Note_on_c, 2, 48, 100
4, 121915, Note_off_c, 2, 48, 64
4, 121915, Note_off_c, 2, 36, 64
4, 121920, Note_on_c, 2, 36, 100
4, 121920, Note_on_c, 2, 48, 100
4, 122155, Note_off_c, 2, 48, 64
4, 122155, Note_off_c, 2, 36, 64
4, 122160, Note_on_c, 2, 36, 100
4, 122160, Note_on_c, 2, 48, 100
4, 122395, Note_off_c, 2, 48, 64
4, 122395, Note_off_c, 2, 36, 64
4, 122400, Note_on_c, 2, 36, 100
4, 122400, Note_on_c, 2, 48, 100
4, 122635, Note_off_c, 2, 48, 64
4, 122635, Note_off_c, 2, 36, 64
4, 122640, Note_on_c, 2, 36, 100
4, 122640, Note_on_c, 2, 48, 100
4, 122875, Note_off_c, 2, 48, 64
4, 122875, Note_off_c, 2, 36, 64
4, 122880, Note_on_c, 2, 36, 100
4, 122880, Note_on_c, 2, 48, 100
4, 123280, Note_off_c, 2, 48, 64
4, 123280, Note_off_c, 2, 36, 64
4, 124800, Note_on_c, 2, 29, 100
4, 124800, Note_on_c, 2, 41, 100
4, 124800, Control_c, 2, 10, 0
4, 125200, Note_off_c, 2, 41, 64
4, 125200, Note_off_c, 2, 29, 64
4, 125760, Note_on_c, 2, 36, 100
4, 125760, Note_on_c, 2, 48, 100
4, 125760, Control_c, 2, 10, 127
4, 126600, Note_off_c, 2, 48, 64
4, 126600, Note_off_c, 2, 36, 64
4, 126720, Note_on_c, 2, 29, 100
4, 126720, Note_on_c, 2, 41, 100
4, 126720, Control_c, 2, 10, 0
4, 127120, Note_off_c, 2, 41, 64
4, 127120, Note_off_c, 2, 29, 64
4, 127680, Note_on_c, 2, 36, 100
4, 127680, Note_on_c, 2, 48, 100
4, 127680, Control_c, 2, 10, 127
4, 128520, Note_off_c, 2, 48, 64
4, 128520, Note_off_c, 2, 36, 64
4, 128640, Note_on_c, 2, 29, 100
4, 128640, Note_on_c, 2, 41, 100
4, 128640, Control_c, 2, 10, 0
4, 129040, Note_off_c, 2, 41, 64
4, 129040, Note_off_c, 2, 29, 64
4, 129600, Note_on_c, 2, 36, 100
4, 129600, Note_on_c, 2, 48, 100
4, 129600, Control_c, 2, 10, 127
4, 130440, Note_off_c, 2, 48, 64
4, 130440, Note_off_c, 2, 36, 64
4, 130560, Note_on_c, 2, 29, 100
4, 130560, Note_on_c, 2, 41, 100
4, 130560, Control_c, 2, 10, 64
4, 130960, Note_off_c, 2, 41, 64
4, 130960, Note_off_c, 2, 29, 64
4, 131040, Note_on_c, 2, 29, 100
4, 131040, Note_on_c, 2, 41, 100
4, 131440, Note_off_c, 2, 41, 64
4, 131440, Note_off_c, 2, 29, 64
4, 131760, Note_on_c, 2, 36, 100
4, 131760, Note_on_c, 2, 48, 100
4, 132400, Note_off_c, 2, 48, 64
4, 132400, Note_off_c, 2, 36, 64
4, 132480, Note_on_c, 2, 31, 100
4, 132480, Note_on_c, 2, 43, 100
4, 132480, Control_c, 2, 10, 0
4, 132880, Note_off_c, 2, 43, 64
4, 132880, Note_off_c, 2, 31, 64
4, 133440, Note_on_c, 2, 38, 100
4, 133440, Note_on_c, 2, 50, 100
4, 133440, Control_c, 2, 10, 127
4, 134280, Note_off_c, 2, 50, 64
4, 134280, Note_off_c, 2, 38, 64
4, 134400, Note_on_c, 2, 31, 100
4, 134400, Note_on_c, 2, 43, 100
4, 134400, Control_c, 2, 10, 0
4, 134800, Note_off_c, 2, 43, 64
4, 134800, Note_off_c, 2, 31, 64
4, 135360, Note_on_c, 2, 38, 100
4, 135360, Note_on_c, 2, 50, 100
4, 135360, Control_c, 2, 10, 127
4, 136200, Note_off_c, 2, 50, 64
4, 136200, Note_off_c, 2, 38, 64
4, 136320, Note_on_c, 2, 31, 100
4, 136320, Note_on_c, 2, 43, 100
4, 136320, Control_c, 2, 10, 0
4, 136720, Note_off_c, 2, 43, 64
4, 136720, Note_off_c, 2, 31, 64
4, 137280, Note_on_c, 2, 38, 100
4, 137280, Note_on_c, 2, 50, 100
4, 137280, Control_c, 2, 10, 127
4, 138120, Note_off_c, 2, 50, 64
4, 138120, Note_off_c, 2, 38, 64
4, 138480, Note_on_c, 2, 36, 100
4, 138480, Note_on_c, 2, 48, 100
4, 138480, Control_c, 2, 10, 65
4, 138715, Note_off_c, 2, 48, 64
4, 138715, Note_off_c, 2, 36, 64
4, 138720, Note_on_c, 2, 36, 100
4, 138720, Note_on_c, 2, 48, 100
4, 139120, Note_off_c, 2, 48, 64
4, 139120, Note_off_c, 2, 36, 64
4, 139440, Note_on_c, 2, 40, 100
4, 139440, Note_on_c, 2, 52, 100
4, 139675, Note_off_c, 2, 52, 64
4, 139675, Note_off_c, 2, 40, 64
4, 139680, Note_on_c, 2, 40, 100
4, 139680, Note_on_c, 2, 52, 100
4, 140080, Note_off_c, 2, 52, 64
4, 140080, Note_off_c, 2, 40, 64
4, 140160, Note_on_c, 2, 29, 100
4, 140160, Note_on_c, 2, 41, 100
4, 140160, Control_c, 2, 10, 0
4, 140560, Note_off_c, 2, 41, 64
4, 140560, Note_off_c, 2, 29, 64
4, 141120, Note_on_c, 2, 36, 100
4, 141120, Note_on_c, 2, 48, 100
4, 141120, Control_c, 2, 10, 127
4, 141960, Note_off_c, 2, 48, 64
4, 141960, Note_off_c, 2, 36, 64
4, 142080, Note_on_c, 2, 29, 100
4, 142080, Note_on_c, 2, 41, 100
4, 142080, Control_c, 2, 10, 0
4, 142480, Note_off_c, 2, 41, 64
4, 142480, Note_off_c, 2, 29, 64
4, 143040, Note_on_c, 2, 36, 100
4, 143040, Note_on_c, 2, 48, 100
4, 143040, Control_c, 2, 10, 127
4, 143880, Note_off_c, 2, 48, 64
4, 143880, Note_off_c, 2, 36, 64
4, 144000, Note_on_c, 2, 29, 100
4, 144000, Note_on_c, 2, 41, 100
4, 144000, Control_c, 2, 10, 0
4, 144400, Note_off_c, 2, 41, 64
4, 144400, Note_off_c, 2, 29, 64
4, 144960, Note_on_c, 2, 36, 100
4, 144960, Note_on_c, 2, 48, 100
4, 144960, Control_c, 2, 10, 127
4, 145800, Note_off_c, 2, 48, 64
4, 145800, Note_off_c, 2, 36, 64
4, 145920, Note_on_c, 2, 29, 100
4, 145920, Note_on_c, 2, 41, 100
4, 145920, Control_c, 2, 10, 64
4, 146560, Note_off_c, 2, 41, 64
4, 146560, Note_off_c, 2, 29, 64
4, 146640, Note_on_c, 2, 29, 100
4, 146640, Note_on_c, 2, 41, 100
4, 147115, Note_off_c, 2, 41, 64
4, 147115, Note_off_c, 2, 29, 64
4, 147120, Note_on_c, 2, 29, 100
4, 147120, Note_on_c, 2, 41, 100
4, 147355, Note_off_c, 2, 41, 64
4, 147355, Note_off_c, 2, 29, 64
4, 147360, Note_on_c, 2, 33, 100
4, 147360, Note_on_c, 2, 45, 100
4, 147595, Note_off_c, 2, 45, 64
4, 147595, Note_off_c, 2, 33, 64
4, 147600, Note_on_c, 2, 34, 100
4, 147600, Note_on_c, 2, 46, 100
4, 147835, Note_off_c, 2, 46, 64
4, 147835, Note_off_c, 2, 34, 64
4, 147840, Note_on_c, 2, 36, 100
4, 147840, Note_on_c, 2, 48, 100
4, 148075, Note_off_c, 2, 48, 64
4, 148075, Note_off_c, 2, 36, 64
4, 148080, Note_on_c, 2, 36, 100
4, 148080, Note_on_c, 2, 48, 100
4, 148315, Note_off_c, 2, 48, 64
4, 148315, Note_off_c, 2, 36, 64
4, 148320, Note_on_c, 2, 36, 100
4, 148320, Note_on_c, 2, 48, 100
4, 148555, Note_off_c, 2, 48, 64
4, 148555, Note_off_c, 2, 36, 64
4, 148560, Note_on_c, 2, 36, 100
4, 148560, Note_on_c, 2, 48, 100
4, 148795, Note_off_c, 2, 48, 64
4, 148795, Note_off_c, 2, 36, 64
4, 148800, Note_on_c, 2, 36, 100
4, 148800, Note_on_c, 2, 48, 100
4, 149035, Note_off_c, 2, 48, 64
4, 149035, Note_off_c, 2, 36, 64
4, 149040, Note_on_c, 2, 36, 100
4, 149040, Note_on_c, 2, 48, 100
4, 149275, Note_off_c, 2, 48, 64
4, 149275, Note_off_c, 2, 36, 64
4, 149280, Note_on_c, 2, 36, 100
4, 149280, Note_on_c, 2, 48, 100
4, 149515, Note_off_c, 2, 48, 64
4, 149515, Note_off_c, 2, 36, 64
4, 149520, Note_on_c, 2, 36, 100
4, 149520, Note_on_c, 2, 48, 100
4, 149755, Note_off_c, 2, 48, 64
4, 149755, Note_off_c, 2, 36, 64
4, 149760, Note_on_c, 2, 36, 100
4, 149760, Note_on_c, 2, 48, 100
4, 149995, Note_off_c, 2, 48, 64
4, 149995, Note_off_c, 2, 36, 64
4, 150000, Note_on_c, 2, 36, 100
4, 150000, Note_on_c, 2, 48, 100
4, 150235, Note_off_c, 2, 48, 64
4, 150235, Note_off_c, 2, 36, 64
4, 150240, Note_on_c, 2, 36, 100
4, 150240, Note_on_c, 2, 48, 100
4, 150475, Note_off_c, 2, 48, 64
4, 150475, Note_off_c, 2, 36, 64
4, 150480, Note_on_c, 2, 36, 100
4, 150480, Note_on_c, 2, 48, 100
4, 150715, Note_off_c, 2, 48, 64
4, 150715, Note_off_c, 2, 36, 64
4, 150720, Note_on_c, 2, 36, 100
4, 150720, Note_on_c, 2, 48, 100
4, 150955, Note_off_c, 2, 48, 64
4, 150955, Note_off_c, 2, 36, 64
4, 150960, Note_on_c, 2, 36, 100
4, 150960, Note_on_c, 2, 48, 100
4, 151195, Note_off_c, 2, 48, 64
4, 151195, Note_off_c, 2, 36, 64
4, 151200, Note_on_c, 2, 36, 100
4, 151200, Note_on_c, 2, 48, 100
4, 151435, Note_off_c, 2, 48, 64
4, 151435, Note_off_c, 2, 36, 64
4, 151440, Note_on_c, 2, 36, 100
4, 151440, Note_on_c, 2, 48, 100
4, 151675, Note_off_c, 2, 48, 64
4, 151675, Note_off_c, 2, 36, 64
4, 151680, Note_on_c, 2, 38, 100
4, 151680, Note_on_c, 2, 50, 100
4, 151915, Note_off_c, 2, 50, 64
4, 151915, Note_off_c, 2, 38, 64
4, 151920, Note_on_c, 2, 38, 100
4, 151920, Note_on_c, 2, 50, 100
4, 152155, Note_off_c, 2, 50, 64
4, 152155, Note_off_c, 2, 38, 64
4, 152160, Note_on_c, 2, 38, 100
4, 152160, Note_on_c, 2, 50, 100
4, 152395, Note_off_c, 2, 50, 64
4, 152395, Note_off_c, 2, 38, 64
4, 152400, Note_on_c, 2, 38, 100
4, 152400, Note_on_c, 2, 50, 100
4, 152635, Note_off_c, 2, 50, 64
4, 152635, Note_off_c, 2, 38, 64
4, 152640, Note_on_c, 2, 38, 100
4, 152640, Note_on_c, 2, 50, 100
4, 152875, Note_off_c, 2, 50, 64
4, 152875, Note_off_c, 2, 38, 64
4, 152880, Note_on_c, 2, 38, 100
4, 152880, Note_on_c, 2, 50, 100
4, 153115, Note_off_c, 2, 50, 64
4, 153115, Note_off_c, 2, 38, 64
4, 153120, Note_on_c, 2, 38, 100
4, 153120, Note_on_c, 2, 50, 100
4, 153355, Note_off_c, 2, 50, 64
4, 153355, Note_off_c, 2, 38, 64
4, 153360, Note_on_c, 2, 38, 100
4, 153360, Note_on_c, 2, 50, 100
4, 153595, Note_off_c, 2, 50, 64
4, 153595, Note_off_c, 2, 38, 64
4, 153600, Note_on_c, 2, 38, 100
4, 153600, Note_on_c, 2, 50, 100
4, 154000, Note_off_c, 2, 50, 64
4, 154000, Note_off_c, 2, 38, 64
4, 154080, Note_on_c, 2, 38, 100
4, 154080, Note_on_c, 2, 50, 100
4, 154480, Note_off_c, 2, 50, 64
4, 154480, Note_off_c, 2, 38, 64
4, 154560, Note_on_c, 2, 38, 100
4, 154560, Note_on_c, 2, 50, 100
4, 155400, Note_off_c, 2, 50, 64
4, 155400, Note_off_c, 2, 38, 64
4, 155520, Note_on_c, 2, 29, 100
4, 155520, Note_on_c, 2, 41, 100
4, 155920, Note_off_c, 2, 41, 64
4, 155920, Note_off_c, 2, 29, 64
4, 156240, Note_on_c, 2, 33, 100
4, 156240, Note_on_c, 2, 45, 100
4, 156475, Note_off_c, 2, 45, 64
4, 156475, Note_off_c, 2, 33, 64
4, 156960, Note_on_c, 2, 36, 100
4, 156960, Note_on_c, 2, 48, 100
4, 157360, Note_off_c, 2, 48, 64
4, 157360, Note_off_c, 2, 36, 64
4, 157920, Note_on_c, 2, 36, 100
4, 157920, Note_on_c, 2, 48, 100
4, 158320, Note_off_c, 2, 48, 64
4, 158320, Note_off_c, 2, 36, 64
4, 158640, Note_on_c, 2, 40, 100
4, 158640, Note_on_c, 2, 52, 100
4, 159280, Note_off_c, 2, 52, 64
4, 159280, Note_off_c, 2, 40, 64
4, 159360, Note_on_c, 2, 31, 100
4, 159360, Note_on_c, 2, 43, 100
4, 159760, Note_off_c, 2, 43, 64
4, 159760, Note_off_c, 2, 31, 64
4, 160080, Note_on_c, 2, 35, 100
4, 160080, Note_on_c, 2, 47, 100
4, 160315, Note_off_c, 2, 47, 64
4, 160315, Note_off_c, 2, 35, 64
4, 160800, Note_on_c, 2, 38, 100
4, 160800, Note_on_c, 2, 50, 100
4, 161200, Note_off_c, 2, 50, 64
4, 161200, Note_off_c, 2, 38, 64
4, 161760, Note_on_c, 2, 26, 100
4, 161760, Note_on_c, 2, 38, 100
4, 162160, Note_off_c, 2, 38, 64
4, 162160, Note_off_c, 2, 26, 64
4, 162480, Note_on_c, 2, 28, 100
4, 162480, Note_on_c, 2, 40, 100
4, 163120, Note_off_c, 2, 40, 64
4, 163120, Note_off_c, 2, 28, 64
4, 163200, Note_on_c, 2, 29, 100
4, 163200, Note_on_c, 2, 41, 100
4, 163600, Note_off_c, 2, 41, 64
4, 163600, Note_off_c, 2, 29, 64
4, 163920, Note_on_c, 2, 33, 100
4, 163920, Note_on_c, 2, 45, 100
4, 164155, Note_off_c, 2, 45, 64
4, 164155, Note_off_c, 2, 33, 64
4, 164640, Note_on_c, 2, 36, 100
4, 164640, Note_on_c, 2, 48, 100
4, 165040, Note_off_c, 2, 48, 64
4, 165040, Note_off_c, 2, 36, 64
4, 165600, Note_on_c, 2, 36, 100
4, 165600, Note_on_c, 2, 48, 100
4, 166000, Note_off_c, 2, 48, 64
4, 166000, Note_off_c, 2, 36, 64
4, 166320, Note_on_c, 2, 40, 100
4, 166320, Note_on_c, 2, 52, 100
4, 166960, Note_off_c, 2, 52, 64
4, 166960, Note_off_c, 2, 40, 64
4, 167040, Note_on_c, 2, 31, 100
4, 167040, Note_on_c, 2, 43, 100
4, 167440, Note_off_c, 2, 43, 64
4, 167440, Note_off_c, 2, 31, 64
4, 167760, Note_on_c, 2, 35, 100
4, 167760, Note_on_c, 2, 47, 100
4, 167995, Note_off_c, 2, 47, 64
4, 167995, Note_off_c, 2, 35, 64
4, 168480, Note_on_c, 2, 38, 100
4, 168480, Note_on_c, 2, 50, 100
4, 168880, Note_off_c, 2, 50, 64
4, 168880, Note_off_c, 2, 38, 64
4, 169200, Note_on_c, 2, 38, 100
4, 169200, Note_on_c, 2, 50, 100
4, 169435, Note_off_c, 2, 50, 64
4, 169435, Note_off_c, 2, 38, 64
4, 169440, Note_on_c, 2, 38, 100
4, 169440, Note_on_c, 2, 50, 100
4, 169675, Note_off_c, 2, 50, 64
4, 169675, Note_off_c, 2, 38, 64
4, 169680, Note_on_c, 2, 38, 100
4, 169680, Note_on_c, 2, 50, 100
4, 169915, Note_off_c, 2, 50, 64
4, 169915, Note_off_c, 2, 38, 64
4, 169920, Note_on_c, 2, 38, 100
4, 169920, Note_on_c, 2, 50, 100
4, 170155, Note_off_c, 2, 50, 64
4, 170155, Note_off_c, 2, 38, 64
4, 170160, Note_on_c, 2, 38, 100
4, 170160, Note_on_c, 2, 50, 100
4, 170395, Note_off_c, 2, 50, 64
4, 170395, Note_off_c, 2, 38, 64
4, 170400, Note_on_c, 2, 38, 100
4, 170400, Note_on_c, 2, 50, 100
4, 170635, Note_off_c, 2, 50, 64
4, 170635, Note_off_c, 2, 38, 64
4, 170640, Note_on_c, 2, 38, 100
4, 170640, Note_on_c, 2, 50, 100
4, 170875, Note_off_c, 2, 50, 64
4, 170875, Note_off_c, 2, 38, 64
4, 170880, Note_on_c, 2, 28, 100
4, 170880, Note_on_c, 2, 40, 100
4, 171280, Note_off_c, 2, 40, 64
4, 171280, Note_off_c, 2, 28, 64
4, 171840, Note_on_c, 2, 28, 100
4, 171840, Note_on_c, 2, 40, 100
4, 172240, Note_off_c, 2, 40, 64
4, 172240, Note_off_c, 2, 28, 64
4, 173040, Note_on_c, 2, 31, 100
4, 173040, Note_on_c, 2, 43, 100
4, 173275, Note_off_c, 2, 43, 64
4, 173275, Note_off_c, 2, 31, 64
4, 173520, Note_on_c, 2, 38, 100
4, 173755, Note_off_c, 2, 38, 64
4, 173760, Note_on_c, 2, 31, 100
4, 173760, Note_on_c, 2, 43, 100
4, 174600, Note_off_c, 2, 43, 64
4, 174600, Note_off_c, 2, 31, 64
4, 174720, Note_on_c, 2, 28, 100
4, 174720, Note_on_c, 2, 40, 100
4, 175120, Note_off_c, 2, 40, 64
4, 175120, Note_off_c, 2, 28, 64
4, 175440, Note_on_c, 2, 35, 100
4, 175675, Note_off_c, 2, 35, 64
4, 175680, Note_on_c, 2, 28, 100
4, 175680, Note_on_c, 2, 40, 100
4, 176080, Note_off_c, 2, 40, 64
4, 176080, Note_off_c, 2, 28, 64
4, 176880, Note_on_c, 2, 31, 100
4, 176880, Note_on_c, 2, 43, 100
4, 177115, Note_off_c, 2, 43, 64
4, 177115, Note_off_c, 2, 31, 64
4, 177360, Note_on_c, 2, 38, 100
4, 177595, Note_off_c, 2, 38, 64
4, 177600, Note_on_c, 2, 31, 100
4, 177600, Note_on_c, 2, 43, 100
4, 178440, Note_off_c, 2, 43, 64
4, 178440, Note_off_c, 2, 31, 64
4, 178560, Note_on_c, 2, 28, 100
4, 178560, Note_on_c, 2, 40, 100
4, 178960, Note_off_c, 2, 40, 64
4, 178960, Note_off_c, 2, 28, 64
4, 179280, Note_on_c, 2, 35, 100
4, 179515, Note_off_c, 2, 35, 64
4, 179520, Note_on_c, 2, 28, 100
4, 179520, Note_on_c, 2, 40, 100
4, 179920, Note_off_c, 2, 40, 64
4, 179920, Note_off_c, 2, 28, 64
4, 180480, Note_on_c, 2, 38, 100
4, 180480, Note_on_c, 2, 50, 100
4, 180715, Note_off_c, 2, 50, 64
4, 180715, Note_off_c, 2, 38, 64
4, 180720, Note_on_c, 2, 38, 100
4, 180720, Note_on_c, 2, 50, 100
4, 180955, Note_off_c, 2, 50, 64
4, 180955, Note_off_c, 2, 38, 64
4, 180960, Note_on_c, 2, 38, 100
4, 180960, Note_on_c, 2, 50, 100
4, 181195, Note_off_c, 2, 50, 64
4, 181195, Note_off_c, 2, 38, 64
4, 181200, Note_on_c, 2, 38, 100
4, 181200, Note_on_c, 2, 50, 100
4, 181435, Note_off_c, 2, 50, 64
4, 181435, Note_off_c, 2, 38, 64
4, 181440, Note_on_c, 2, 38, 100
4, 181440, Note_on_c, 2, 50, 100
4, 181675, Note_off_c, 2, 50, 64
4, 181675, Note_off_c, 2, 38, 64
4, 181680, Note_on_c, 2, 38, 100
4, 181680, Note_on_c, 2, 50, 100
4, 181915, Note_off_c, 2, 50, 64
4, 181915, Note_off_c, 2, 38, 64
4, 181920, Note_on_c, 2, 38, 100
4, 181920, Note_on_c, 2, 50, 100
4, 182155, Note_off_c, 2, 50, 64
4, 182155, Note_off_c, 2, 38, 64
4, 182160, Note_on_c, 2, 38, 100
4, 182160, Note_on_c, 2, 50, 100
4, 182395, Note_off_c, 2, 50, 64
4, 182395, Note_off_c, 2, 38, 64
4, 182400, Note_on_c, 2, 36, 100
4, 182400, Note_on_c, 2, 48, 100
4, 183040, Note_off_c, 2, 48, 64
4, 183040, Note_off_c, 2, 36, 64
4, 183120, Note_on_c, 2, 28, 100
4, 183120, Note_on_c, 2, 40, 100
4, 183355, Note_off_c, 2, 40, 64
4, 183355, Note_off_c, 2, 28, 64
4, 183600, Note_on_c, 2, 31, 100
4, 183600, Note_on_c, 2, 43, 100
4, 184075, Note_off_c, 2, 43, 64
4, 184075, Note_off_c, 2, 31, 64
4, 184080, Note_on_c, 2, 33, 100
4, 184080, Note_on_c, 2, 45, 100
4, 184315, Note_off_c, 2, 45, 64
4, 184315, Note_off_c, 2, 33, 64
4, 184320, Note_on_c, 2, 36, 100
4, 184320, Note_on_c, 2, 48, 100
4, 184720, Note_off_c, 2, 48, 64
4, 184720, Note_off_c, 2, 36, 64
4, 186240, Note_on_c, 2, 29, 100
4, 186240, Note_on_c, 2, 41, 100
4, 186240, Control_c, 2, 10, 0
4, 186640, Note_off_c, 2, 41, 64
4, 186640, Note_off_c, 2, 29, 64
4, 187200, Note_on_c, 2, 36, 100
4, 187200, Note_on_c, 2, 48, 100
4, 187200, Control_c, 2, 10, 127
4, 188040, Note_off_c, 2, 48, 64
4, 188040, Note_off_c, 2, 36, 64
4, 188160, Note_on_c, 2, 29, 100
4, 188160, Note_on_c, 2, 41, 100
4, 188160, Control_c, 2, 10, 0
4, 188560, Note_off_c, 2, 41, 64
4, 188560, Note_off_c, 2, 29, 64
4, 189120, Note_on_c, 2, 36, 100
4, 189120, Note_on_c, 2, 48, 100
4, 189120, Control_c, 2, 10, 127
4, 189960, Note_off_c, 2, 48, 64
4, 189960, Note_off_c, 2, 36, 64
4, 190080, Note_on_c, 2, 29, 100
4, 190080, Note_on_c, 2, 41, 100
4, 190080, Control_c, 2, 10, 0
4, 190480, Note_off_c, 2, 41, 64
4, 190480, Note_off_c, 2, 29, 64
4, 191040, Note_on_c, 2, 36, 100
4, 191040, Note_on_c, 2, 48, 100
4, 191040, Control_c, 2, 10, 127
4, 191880, Note_off_c, 2, 48, 64
4, 191880, Note_off_c, 2, 36, 64
4, 192000, Note_on_c, 2, 29, 100
4, 192000, Note_on_c, 2, 41, 100
4, 192000, Control_c, 2, 10, 64
4, 192400, Note_off_c, 2, 41, 64
4, 192400, Note_off_c, 2, 29, 64
4, 192480, Note_on_c, 2, 29, 100
4, 192480, Note_on_c, 2, 41, 100
4, 192880, Note_off_c, 2, 41, 64
4, 192880, Note_off_c, 2, 29, 64
4, 193200, Note_on_c, 2, 36, 100
4, 193200, Note_on_c, 2, 48, 100
4, 193840, Note_off_c, 2, 48, 64
4, 193840, Note_off_c, 2, 36, 64
4, 193920, Note_on_c, 2, 31, 100
4, 193920, Note_on_c, 2, 43, 100
4, 193920, Control_c, 2, 10, 0
4, 194320, Note_off_c, 2, 43, 64
4, 194320, Note_off_c, 2, 31, 64
4, 194880, Note_on_c, 2, 38, 100
4, 194880, Note_on_c, 2, 50, 100
4, 194880, Control_c, 2, 10, 127
4, 195720, Note_off_c, 2, 50, 64
4, 195720, Note_off_c, 2, 38, 64
4, 195840, Note_on_c, 2, 31, 100
4, 195840, Note_on_c, 2, 43, 100
4, 195840, Control_c, 2, 10, 0
4, 196240, Note_off_c, 2, 43, 64
4, 196240, Note_off_c, 2, 31, 64
4, 196800, Note_on_c, 2, 38, 100
4, 196800, Note_on_c, 2, 50, 100
4, 196800, Control_c, 2, 10, 127
4, 197640, Note_off_c, 2, 50, 64
4, 197640, Note_off_c, 2, 38, 64
4, 197760, Note_on_c, 2, 31, 100
4, 197760, Note_on_c, 2, 43, 100
4, 197760, Control_c, 2, 10, 0
4, 198160, Note_off_c, 2, 43, 64
4, 198160, Note_off_c, 2, 31, 64
4, 198720, Note_on_c, 2, 38, 100
4, 198720, Note_on_c, 2, 50, 100
4, 198720, Control_c, 2, 10, 127
4, 199560, Note_off_c, 2, 50, 64
4, 199560, Note_off_c, 2, 38, 64
4, 199920, Note_on_c, 2, 36, 100
4, 199920, Note_on_c, 2, 48, 100
4, 199920, Control_c, 2, 10, 65
4, 200155, Note_off_c, 2, 48, 64
4, 200155, Note_off_c, 2, 36, 64
4, 200160, Note_on_c, 2, 36, 100
4, 200160, Note_on_c, 2, 48, 100
4, 200560, Note_off_c, 2, 48, 64
4, 200560, Note_off_c, 2, 36, 64
4, 200880, Note_on_c, 2, 40, 100
4, 200880, Note_on_c, 2, 52, 100
4, 201115, Note_off_c, 2, 52, 64
4, 201115, Note_off_c, 2, 40, 64
4, 201120, Note_on_c, 2, 40, 100
4, 201120, Note_on_c, 2, 52, 100
4, 201520, Note_off_c, 2, 52, 64
4, 201520, Note_off_c, 2, 40, 64
4, 201600, Note_on_c, 2, 29, 100
4, 201600, Note_on_c, 2, 41, 100
4, 201600, Control_c, 2, 10, 0
4, 202000, Note_off_c, 2, 41, 64
4, 202000, Note_off_c, 2, 29, 64
4, 202560, Note_on_c, 2, 36, 100
4, 202560, Note_on_c, 2, 48, 100
4, 202560, Control_c, 2, 10, 127
4, 203400, Note_off_c, 2, 48, 64
4, 203400, Note_off_c, 2, 36, 64
4, 203520, Note_on_c, 2, 29, 100
4, 203520, Note_on_c, 2, 41, 100
4, 203520, Control_c, 2, 10, 0
4, 203920, Note_off_c, 2, 41, 64
4, 203920, Note_off_c, 2, 29, 64
4, 204480, Note_on_c, 2, 36, 100
4, 204480, Note_on_c, 2, 48, 100
4, 204480, Control_c, 2, 10, 127
4, 205320, Note_off_c, 2, 48, 64
4, 205320, Note_off_c, 2, 36, 64
4, 205440, Note_on_c, 2, 29, 100
4, 205440, Note_on_c, 2, 41, 100
4, 205440, Control_c, 2, 10, 0
4, 205840, Note_off_c, 2, 41, 64
4, 205840, Note_off_c, 2, 29, 64
4, 206400, Note_on_c, 2, 36, 100
4, 206400, Note_on_c, 2, 48, 100
4, 206400, Control_c, 2, 10, 127
4, 207240, Note_off_c, 2, 48, 64
4, 207240, Note_off_c, 2, 36, 64
4, 207360, Note_on_c, 2, 29, 100
4, 207360, Note_on_c, 2, 41, 100
4, 207360, Control_c, 2, 10, 64
4, 208000, Note_off_c, 2, 41, 64
4, 208000, Note_off_c, 2, 29, 64
4, 208080, Note_on_c, 2, 29, 100
4, 208080, Note_on_c, 2, 41, 100
4, 208315, Note_off_c, 2, 41, 64
4, 208315, Note_off_c, 2, 29, 64
4, 208320, Note_on_c, 2, 29, 100
4, 208320, Note_on_c, 2, 41, 100
4, 208720, Note_off_c, 2, 41, 64
4, 208720, Note_off_c, 2, 29, 64
4, 208800, Note_on_c, 2, 33, 100
4, 208800, Note_on_c, 2, 45, 100
4, 209035, Note_off_c, 2, 45, 64
4, 209035, Note_off_c, 2, 33, 64
4, 209040, Note_on_c, 2, 34, 100
4, 209040, Note_on_c, 2, 46, 100
4, 209275, Note_off_c, 2, 46, 64
4, 209275, Note_off_c, 2, 34, 64
4, 209280, Note_on_c, 2, 36, 100
4, 209280, Note_on_c, 2, 48, 100
4, 209515, Note_off_c, 2, 48, 64
4, 209515, Note_off_c, 2, 36, 64
4, 209520, Note_on_c, 2, 36, 100
4, 209520, Note_on_c, 2, 48, 100
4, 209755, Note_off_c, 2, 48, 64
4, 209755, Note_off_c, 2, 36, 64
4, 209760, Note_on_c, 2, 36, 100
4, 209760, Note_on_c, 2, 48, 100
4, 209995, Note_off_c, 2, 48, 64
4, 209995, Note_off_c, 2, 36, 64
4, 210000, Note_on_c, 2, 36, 100
4, 210000, Note_on_c, 2, 48, 100
4, 210235, Note_off_c, 2, 48, 64
4, 210235, Note_off_c, 2, 36, 64
4, 210240, Note_on_c, 2, 36, 100
4, 210240, Note_on_c, 2, 48, 100
4, 210475, Note_off_c, 2, 48, 64
4, 210475, Note_off_c, 2, 36, 64
4, 210480, Note_on_c, 2, 36, 100
4, 210480, Note_on_c, 2, 48, 100
4, 210715, Note_off_c, 2, 48, 64
4, 210715, Note_off_c, 2, 36, 64
4, 210720, Note_on_c, 2, 36, 100
4, 210720, Note_on_c, 2, 48, 100
4, 210955, Note_off_c, 2, 48, 64
4, 210955, Note_off_c, 2, 36, 64
4, 210960, Note_on_c, 2, 36, 100
4, 210960, Note_on_c, 2, 48, 100
4, 211195, Note_off_c, 2, 48, 64
4, 211195, Note_off_c, 2, 36, 64
4, 211200, Note_on_c, 2, 36, 100
4, 211200, Note_on_c, 2, 48, 100
4, 211435, Note_off_c, 2, 48, 64
4, 211435, Note_off_c, 2, 36, 64
4, 211440, Note_on_c, 2, 36, 100
4, 211440, Note_on_c, 2, 48, 100
4, 211675, Note_off_c, 2, 48, 64
4, 211675, Note_off_c, 2, 36, 64
4, 211680, Note_on_c, 2, 36, 100
4, 211680, Note_on_c, 2, 48, 100
4, 211915, Note_off_c, 2, 48, 64
4, 211915, Note_off_c, 2, 36, 64
4, 211920, Note_on_c, 2, 36, 100
4, 211920, Note_on_c, 2, 48, 100
4, 212155, Note_off_c, 2, 48, 64
4, 212155, Note_off_c, 2, 36, 64
4, 212160, Note_on_c, 2, 36, 100
4, 212160, Note_on_c, 2, 48, 100
4, 212395, Note_off_c, 2, 48, 64
4, 212395, Note_off_c, 2, 36, 64
4, 212400, Note_on_c, 2, 36, 100
4, 212400, Note_on_c, 2, 48, 100
4, 212635, Note_off_c, 2, 48, 64
4, 212635, Note_off_c, 2, 36, 64
4, 212640, Note_on_c, 2, 36, 100
4, 212640, Note_on_c, 2, 48, 100
4, 212875, Note_off_c, 2, 48, 64
4, 212875, Note_off_c, 2, 36, 64
4, 212880, Note_on_c, 2, 36, 100
4, 212880, Note_on_c, 2, 48, 100
4, 213115, Note_off_c, 2, 48, 64
4, 213115, Note_off_c, 2, 36, 64
4, 213120, Note_on_c, 2, 29, 100
4, 213120, Note_on_c, 2, 41, 100
4, 213120, Control_c, 2, 10, 0
4, 213520, Note_off_c, 2, 41, 64
4, 213520, Note_off_c, 2, 29, 64
4, 214080, Note_on_c, 2, 36, 100
4, 214080, Note_on_c, 2, 48, 100
4, 214080, Control_c, 2, 10, 127
4, 214920, Note_off_c, 2, 48, 64
4, 214920, Note_off_c, 2, 36, 64
4, 215040, Note_on_c, 2, 29, 100
4, 215040, Note_on_c, 2, 41, 100
4, 215040, Control_c, 2, 10, 0
4, 215440, Note_off_c, 2, 41, 64
4, 215440, Note_off_c, 2, 29, 64
4, 216000, Note_on_c, 2, 36, 100
4, 216000, Note_on_c, 2, 48, 100
4, 216000, Control_c, 2, 10, 127
4, 216840, Note_off_c, 2, 48, 64
4, 216840, Note_off_c, 2, 36, 64
4, 216960, Note_on_c, 2, 29, 100
4, 216960, Note_on_c, 2, 41, 100
4, 216960, Control_c, 2, 10, 0
4, 217360, Note_off_c, 2, 41, 64
4, 217360, Note_off_c, 2, 29, 64
4, 217920, Note_on_c, 2, 36, 100
4, 217920, Note_on_c, 2, 48, 100
4, 217920, Control_c, 2, 10, 127
4, 218760, Note_off_c, 2, 48, 64
4, 218760, Note_off_c, 2, 36, 64
4, 218880, Note_on_c, 2, 29, 100
4, 218880, Note_on_c, 2, 41, 100
4, 218880, Control_c, 2, 10, 64
4, 219280, Note_off_c, 2, 41, 64
4, 219280, Note_off_c, 2, 29, 64
4, 219360, Note_on_c, 2, 29, 100
4, 219360, Note_on_c, 2, 41, 100
4, 219760, Note_off_c, 2, 41, 64
4, 219760, Note_off_c, 2, 29, 64
4, 220080, Note_on_c, 2, 36, 100
4, 220080, Note_on_c, 2, 48, 100
4, 220720, Note_off_c, 2, 48, 64
4, 220720, Note_off_c, 2, 36, 64
4, 220800, Note_on_c, 2, 31, 100
4, 220800, Note_on_c, 2, 43, 100
4, 220800, Control_c, 2, 10, 0
4, 221200, Note_off_c, 2, 43, 64
4, 221200, Note_off_c, 2, 31, 64
4, 221760, Note_on_c, 2, 38, 100
4, 221760, Note_on_c, 2, 50, 100
4, 221760, Control_c, 2, 10, 127
4, 222600, Note_off_c, 2, 50, 64
4, 222600, Note_off_c, 2, 38, 64
4, 222720, Note_on_c, 2, 31, 100
4, 222720, Note_on_c, 2, 43, 100
4, 222720, Control_c, 2, 10, 0
4, 223120, Note_off_c, 2, 43, 64
4, 223120, Note_off_c, 2, 31, 64
4, 223680, Note_on_c, 2, 38, 100
4, 223680, Note_on_c, 2, 50, 100
4, 223680, Control_c, 2, 10, 127
4, 224520, Note_off_c, 2, 50, 64
4, 224520, Note_off_c, 2, 38, 64
4, 224640, Note_on_c, 2, 31, 100
4, 224640, Note_on_c, 2, 43, 100
4, 224640, Control_c, 2, 10, 0
4, 225040, Note_off_c, 2, 43, 64
4, 225040, Note_off_c, 2, 31, 64
4, 225600, Note_on_c, 2, 38, 100
4, 225600, Note_on_c, 2, 50, 100
4, 225600, Control_c, 2, 10, 127
4, 226440, Note_off_c, 2, 50, 64
4, 226440, Note_off_c, 2, 38, 64
4, 226800, Note_on_c, 2, 36, 100
4, 226800, Note_on_c, 2, 48, 100
4, 226800, Control_c, 2, 10, 65
4, 227035, Note_off_c, 2, 48, 64
4, 227035, Note_off_c, 2, 36, 64
4, 227040, Note_on_c, 2, 36, 100
4, 227040, Note_on_c, 2, 48, 100
4, 227440, Note_off_c, 2, 48, 64
4, 227440, Note_off_c, 2, 36, 64
4, 227760, Note_on_c, 2, 40, 100
4, 227760, Note_on_c, 2, 52, 100
4, 227995, Note_off_c, 2, 52, 64
4, 227995, Note_off_c, 2, 40, 64
4, 228000, Note_on_c, 2, 40, 100
4, 228000, Note_on_c, 2, 52, 100
4, 228400, Note_off_c, 2, 52, 64
4, 228400, Note_off_c, 2, 40, 64
4, 228480, Note_on_c, 2, 29, 100
4, 228480, Note_on_c, 2, 41, 100
4, 228480, Control_c, 2, 10, 0
4, 228880, Note_off_c, 2, 41, 64
4, 228880, Note_off_c, 2, 29, 64
4, 229440, Note_on_c, 2, 36, 100
4, 229440, Note_on_c, 2, 48, 100
4, 229440, Control_c, 2, 10, 127
4, 230280, Note_off_c, 2, 48, 64
4, 230280, Note_off_c, 2, 36, 64
4, 230400, Note_on_c, 2, 29, 100
4, 230400, Note_on_c, 2, 41, 100
4, 230400, Control_c, 2, 10, 0
4, 230800, Note_off_c, 2, 41, 64
4, 230800, Note_off_c, 2, 29, 64
4, 231360, Note_on_c, 2, 36, 100
4, 231360, Note_on_c, 2, 48, 100
4, 231360, Control_c, 2, 10, 127
4, 232200, Note_off_c, 2, 48, 64
4, 232200, Note_off_c, 2, 36, 64
4, 232320, Note_on_c, 2, 29, 100
4, 232320, Note_on_c, 2, 41, 100
4, 232320, Control_c, 2, 10, 0
4, 232720, Note_off_c, 2, 41, 64
4, 232720, Note_off_c, 2, 29, 64
4, 233280, Note_on_c, 2, 36, 100
4, 233280, Note_on_c, 2, 48, 100
4, 233280, Control_c, 2, 10, 127
4, 234120, Note_off_c, 2, 48, 64
4, 234120, Note_off_c, 2, 36, 64
4, 234240, Note_on_c, 2, 29, 100
4, 234240, Note_on_c, 2, 41, 100
4, 234240, Control_c, 2, 10, 64
4, 234880, Note_off_c, 2, 41, 64
4, 234880, Note_off_c, 2, 29, 64
4, 234960, Note_on_c, 2, 29, 100
4, 234960, Note_on_c, 2, 41, 100
4, 235195, Note_off_c, 2, 41, 64
4, 235195, Note_off_c, 2, 29, 64
4, 235200, Note_on_c, 2, 29, 100
4, 235200, Note_on_c, 2, 41, 100
4, 235600, Note_off_c, 2, 41, 64
4, 235600, Note_off_c, 2, 29, 64
4, 235680, Note_on_c, 2, 33, 100
4, 235680, Note_on_c, 2, 45, 100
4, 235915, Note_off_c, 2, 45, 64
4, 235915, Note_off_c, 2, 33, 64
4, 235920, Note_on_c, 2, 34, 100
4, 235920, Note_on_c, 2, 46, 100
4, 236155, Note_off_c, 2, 46, 64
4, 236155, Note_off_c, 2, 34, 64
4, 236160, Note_on_c, 2, 36, 100
4, 236160, Note_on_c, 2, 48, 100
4, 236395, Note_off_c, 2, 48, 64
4, 236395, Note_off_c, 2, 36, 64
4, 236400, Note_on_c, 2, 36, 100
4, 236400, Note_on_c, 2, 48, 100
4, 236635, Note_off_c, 2, 48, 64
4, 236635, Note_off_c, 2, 36, 64
4, 236640, Note_on_c, 2, 36, 100
4, 236640, Note_on_c, 2, 48, 100
4, 236875, Note_off_c, 2, 48, 64
4, 236875, Note_off_c, 2, 36, 64
4, 236880, Note_on_c, 2, 36, 100
4, 236880, Note_on_c, 2, 48, 100
4, 237115, Note_off_c, 2, 48, 64
4, 237115, Note_off_c, 2, 36, 64
4, 237120, Note_on_c, 2, 36, 100
4, 237120, Note_on_c, 2, 48, 100
4, 237355, Note_off_c, 2, 48, 64
4, 237355, Note_off_c, 2, 36, 64
4, 237360, Note_on_c, 2, 36, 100
4, 237360, Note_on_c, 2, 48, 100
4, 237595, Note_off_c, 2, 48, 64
4, 237595, Note_off_c, 2, 36, 64
4, 237600, Note_on_c, 2, 36, 100
4, 237600, Note_on_c, 2, 48, 100
4, 237835, Note_off_c, 2, 48, 64
4, 237835, Note_off_c, 2, 36, 64
4, 237840, Note_on_c, 2, 36, 100
4, 237840, Note_on_c, 2, 48, 100
4, 238075, Note_off_c, 2, 48, 64
4, 238075, Note_off_c, 2, 36, 64
4, 238080, Note_on_c, 2, 36, 100
4, 238080, Note_on_c, 2, 48, 100
4, 238315, Note_off_c, 2, 48, 64
4, 238315, Note_off_c, 2, 36, 64
4, 238320, Note_on_c, 2, 36, 100
4, 238320, Note_on_c, 2, 48, 100
4, 238555, Note_off_c, 2, 48, 64
4, 238555, Note_off_c, 2, 36, 64
4, 238560, Note_on_c, 2, 36, 100
4, 238560, Note_on_c, 2, 48, 100
4, 238795, Note_off_c, 2, 48, 64
4, 238795, Note_off_c, 2, 36, 64
4, 238800, Note_on_c, 2, 36, 100
4, 238800, Note_on_c, 2, 48, 100
4, 239035, Note_off_c, 2, 48, 64
4, 239035, Note_off_c, 2, 36, 64
4, 239040, Note_on_c, 2, 36, 100
4, 239040, Note_on_c, 2, 48, 100
4, 239275, Note_off_c, 2, 48, 64
4, 239275, Note_off_c, 2, 36, 64
4, 239280, Note_on_c, 2, 36, 100
4, 239280, Note_on_c, 2, 48, 100
4, 239515, Note_off_c, 2, 48, 64
4, 239515, Note_off_c, 2, 36, 64
4, 239520, Note_on_c, 2, 36, 100
4, 239520, Note_on_c, 2, 48, 100
4, 239755, Note_off_c, 2, 48, 64
4, 239755, Note_off_c, 2, 36, 64
4, 239760, Note_on_c, 2, 36, 100
4, 239760, Note_on_c, 2, 48, 100
4, 239995, Note_off_c, 2, 48, 64
4, 239995, Note_off_c, 2, 36, 64
4, 240000, Note_on_c, 2, 29, 100
4, 240000, Note_on_c, 2, 41, 100
4, 240000, Control_c, 2, 10, 0
4, 240400, Note_off_c, 2, 41, 64
4, 240400, Note_off_c, 2, 29, 64
4, 240960, Note_on_c, 2, 36, 100
4, 240960, Note_on_c, 2, 48, 100
4, 240960, Control_c, 2, 10, 127
4, 241800, Note_off_c, 2, 48, 64
4, 241800, Note_off_c, 2, 36, 64
4, 241920, Note_on_c, 2, 29, 100
4, 241920, Note_on_c, 2, 41, 100
4, 241920, Control_c, 2, 10, 0
4, 242320, Note_off_c, 2, 41, 64
4, 242320, Note_off_c, 2, 29, 64
4, 242880, Note_on_c, 2, 36, 100
4, 242880, Note_on_c, 2, 48, 100
4, 242880, Control_c, 2, 10, 127
4, 243720, Note_off_c, 2, 48, 64
4, 243720, Note_off_c, 2, 36, 64
4, 243840, Note_on_c, 2, 29, 100
4, 243840, Note_on_c, 2, 41, 100
4, 243840, Control_c, 2, 10, 0
4, 244240, Note_off_c, 2, 41, 64
4, 244240, Note_off_c, 2, 29, 64
4, 244800, Note_on_c, 2, 36, 100
4, 244800, Note_on_c, 2, 48, 100
4, 244800, Control_c, 2, 10, 127
4, 245640, Note_off_c, 2, 48, 64
4, 245640, Note_off_c, 2, 36, 64
4, 245760, Note_on_c, 2, 29, 100
4, 245760, Note_on_c, 2, 41, 100
4, 245760, Control_c, 2, 10, 64
4, 246160, Note_off_c, 2, 41, 64
4, 246160, Note_off_c, 2, 29, 64
4, 246240, Note_on_c, 2, 29, 100
4, 246240, Note_on_c, 2, 41, 100
4, 246640, Note_off_c, 2, 41, 64
4, 246640, Note_off_c, 2, 29, 64
4, 246960, Note_on_c, 2, 36, 100
4, 246960, Note_on_c, 2, 48, 100
4, 247600, Note_off_c, 2, 48, 64
4, 247600, Note_off_c, 2, 36, 64
4, 247680, Note_on_c, 2, 31, 100
4, 247680, Note_on_c, 2, 43, 100
4, 247680, Control_c, 2, 7, 120
4, 247680, Control_c, 2, 10, 0
4, 248080, Note_off_c, 2, 43, 64
4, 248080, Note_off_c, 2, 31, 64
4, 248640, Note_on_c, 2, 38, 100
4, 248640, Note_on_c, 2, 50, 100
4, 248640, Control_c, 2, 10, 127
4, 249360, Control_c, 2, 7, 110
4, 249480, Note_off_c, 2, 50, 64
4, 249480, Note_off_c, 2, 38, 64
4, 249600, Note_on_c, 2, 31, 100
4, 249600, Note_on_c, 2, 43, 100
4, 249600, Control_c, 2, 10, 0
4, 250000, Note_off_c, 2, 43, 64
4, 250000, Note_off_c, 2, 31, 64
4, 250560, Note_on_c, 2, 38, 100
4, 250560, Note_on_c, 2, 50, 100
4, 250560, Control_c, 2, 10, 127
4, 251040, Control_c, 2, 7, 100
4, 251400, Note_off_c, 2, 50, 64
4, 251400, Note_off_c, 2, 38, 64
4, 251520, Note_on_c, 2, 31, 100
4, 251520, Note_on_c, 2, 43, 100
4, 251520, Control_c, 2, 10, 0
4, 251920, Note_off_c, 2, 43, 64
4, 251920, Note_off_c, 2, 31, 64
4, 252480, Note_on_c, 2, 38, 100
4, 252480, Note_on_c, 2, 50, 100
4, 252480, Control_c, 2, 10, 127
4, 253320, Note_off_c, 2, 50, 64
4, 253320, Note_off_c, 2, 38, 64
4, 253680, Note_on_c, 2, 36, 100
4, 253680, Note_on_c, 2, 48, 100
4, 253680, Control_c, 2, 10, 65
4, 253915, Note_off_c, 2, 48, 64
4, 253915, Note_off_c, 2, 36, 64
4, 253920, Note_on_c, 2, 36, 100
4, 253920, Note_on_c, 2, 48, 100
4, 254160, Control_c, 2, 7, 90
4, 254320, Note_off_c, 2, 48, 64
4, 254320, Note_off_c, 2, 36, 64
4, 254640, Note_on_c, 2, 40, 100
4, 254640, Note_on_c, 2, 52, 100
4, 254875, Note_off_c, 2, 52, 64
4, 254875, Note_off_c, 2, 40, 64
4, 254880, Note_on_c, 2, 40, 100
4, 254880, Note_on_c, 2, 52, 100
4, 254880, Control_c, 2, 7, 80
4, 255280, Note_off_c, 2, 52, 64
4, 255280, Note_off_c, 2, 40, 64
4, 255360, Note_on_c, 2, 29, 100
4, 255360, Note_on_c, 2, 41, 100
4, 255360, Control_c, 2, 10, 0
4, 255760, Note_off_c, 2, 41, 64
4, 255760, Note_off_c, 2, 29, 64
4, 256320, Note_on_c, 2, 36, 100
4, 256320, Note_on_c, 2, 48, 100
4, 256320, Control_c, 2, 10, 127
4, 256800, Control_c, 2, 7, 70
4, 257160, Note_off_c, 2, 48, 64
4, 257160, Note_off_c, 2, 36, 64
4, 257280, Note_on_c, 2, 29, 100
4, 257280, Note_on_c, 2, 41, 100
4, 257280, Control_c, 2, 10, 0
4, 257680, Note_off_c, 2, 41, 64
4, 257680, Note_off_c, 2, 29, 64
4, 258240, Note_on_c, 2, 36, 100
4, 258240, Note_on_c, 2, 48, 100
4, 258240, Control_c, 2, 10, 127
4, 258720, Control_c, 2, 7, 50
4, 259080, Note_off_c, 2, 48, 64
4, 259080, Note_off_c, 2, 36, 64
4, 259200, Note_on_c, 2, 29, 100
4, 259200, Note_on_c, 2, 41, 100
4, 259200, Control_c, 2, 10, 0
4, 259600, Note_off_c, 2, 41, 64
4, 259600, Note_off_c, 2, 29, 64
4, 260160, Note_on_c, 2, 36, 100
4, 260160, Note_on_c, 2, 48, 100
4, 260160, Control_c, 2, 10, 127
4, 261000, Note_off_c, 2, 48, 64
4, 261000, Note_off_c, 2, 36, 64
4, 261120, Note_on_c, 2, 29, 100
4, 261120, Note_on_c, 2, 41, 100
4, 261120, Control_c, 2, 10, 64
4, 261360, Control_c, 2, 7, 30
4, 261760, Note_off_c, 2, 41, 64
4, 261760, Note_off_c, 2, 29, 64
4, 261840, Note_on_c, 2, 29, 100
4, 261840, Note_on_c, 2, 41, 100
4, 262075, Note_off_c, 2, 41, 64
4, 262075, Note_off_c, 2, 29, 64
4, 262080, Note_on_c, 2, 29, 100
4, 262080, Note_on_c, 2, 41, 100
4, 262480, Note_off_c, 2, 41, 64
4, 262480, Note_off_c, 2, 29, 64
4, 262560, Note_on_c, 2, 33, 100
4, 262560, Note_on_c, 2, 45, 100
4, 262560, Control_c, 2, 7, 20
4, 262795, Note_off_c, 2, 45, 64
4, 262795, Note_off_c, 2, 33, 64
4, 262800, Note_on_c, 2, 34, 100
4, 262800, Note_on_c, 2, 46, 100
4, 263035, Note_off_c, 2, 46, 64
4, 263035, Note_off_c, 2, 34, 64
4, 263040, Note_on_c, 2, 36, 100
4, 263040, Note_on_c, 2, 48, 100
4, 263275, Note_off_c, 2, 48, 64
4, 263275, Note_off_c, 2, 36, 64
4, 263280, Note_on_c, 2, 36, 100
4, 263280, Note_on_c, 2, 48, 100
4, 263515, Note_off_c, 2, 48, 64
4, 263515, Note_off_c, 2, 36, 64
4, 263520, Note_on_c, 2, 36, 100
4, 263520, Note_on_c, 2, 48, 100
4, 263755, Note_off_c, 2, 48, 64
4, 263755, Note_off_c, 2, 36, 64
4, 263760, Note_on_c, 2, 36, 100
4, 263760, Note_on_c, 2, 48, 100
4, 263995, Note_off_c, 2, 48, 64
4, 263995, Note_off_c, 2, 36, 64
4, 264000, Note_on_c, 2, 36, 100
4, 264000, Note_on_c, 2, 48, 100
4, 264235, Note_off_c, 2, 48, 64
4, 264235, Note_off_c, 2, 36, 64
4, 264240, Note_on_c, 2, 36, 100
4, 264240, Note_on_c, 2, 48, 100
4, 264475, Note_off_c, 2, 48, 64
4, 264475, Note_off_c, 2, 36, 64
4, 264480, Note_on_c, 2, 36, 100
4, 264480, Note_on_c, 2, 48, 100
4, 264715, Note_off_c, 2, 48, 64
4, 264715, Note_off_c, 2, 36, 64
4, 264720, Note_on_c, 2, 36, 100
4, 264720, Note_on_c, 2, 48, 100
4, 264720, Control_c, 2, 7, 5
4, 264955, Note_off_c, 2, 48, 64
4, 264955, Note_off_c, 2, 36, 64
4, 264960, Note_on_c, 2, 36, 100
4, 264960, Note_on_c, 2, 48, 100
4, 265195, Note_off_c, 2, 48, 64
4, 265195, Note_off_c, 2, 36, 64
4, 265200, Note_on_c, 2, 36, 100
4, 265200, Note_on_c, 2, 48, 100
4, 265435, Note_off_c, 2, 48, 64
4, 265435, Note_off_c, 2, 36, 64
4, 265440, Note_on_c, 2, 36, 100
4, 265440, Note_on_c, 2, 48, 100
4, 265675, Note_off_c, 2, 48, 64
4, 265675, Note_off_c, 2, 36, 64
4, 265680, Note_on_c, 2, 36, 100
4, 265680, Note_on_c, 2, 48, 100
4, 265915, Note_off_c, 2, 48, 64
4, 265915, Note_off_c, 2, 36, 64
4, 265920, Note_on_c, 2, 36, 100
4, 265920, Note_on_c, 2, 48, 100
4, 266155, Note_off_c, 2, 48, 64
4, 266155, Note_off_c, 2, 36, 64
4, 266160, Note_on_c, 2, 36, 100
4, 266160, Note_on_c, 2, 48, 100
4, 266395, Note_off_c, 2, 48, 64
4, 266395, Note_off_c, 2, 36, 64
4, 266400, Note_on_c, 2, 36, 100
4, 266400, Note_on_c, 2, 48, 100
4, 266635, Note_off_c, 2, 48, 64
4, 266635, Note_off_c, 2, 36, 64
4, 266640, Note_on_c, 2, 36, 100
4, 266640, Note_on_c, 2, 48, 100
4, 266875, Note_off_c, 2, 48, 64
4, 266875, Note_off_c, 2, 36, 64
4, 266875, End_track
5, 0, Start_track
5, 0, Title_t, "BASS"
5, 0, MIDI_port, 0
5, 0, Channel_prefix, 3
5, 0, Control_c, 3, 7, 127
5, 0, Control_c, 3, 10, 64
5, 0, Program_c, 3, 35
5, 1920, Note_on_c, 3, 28, 90
5, 2320, Note_off_c, 3, 28, 64
5, 4080, Note_on_c, 3, 31, 90
5, 4315, Note_off_c, 3, 31, 64
5, 4560, Note_on_c, 3, 31, 90
5, 5640, Note_off_c, 3, 31, 64
5, 5760, Note_on_c, 3, 28, 90
5, 6160, Note_off_c, 3, 28, 64
5, 7920, Note_on_c, 3, 43, 90
5, 8155, Note_off_c, 3, 43, 64
5, 8160, Note_on_c, 3, 41, 90
5, 8560, Note_off_c, 3, 41, 64
5, 8880, Note_on_c, 3, 38, 90
5, 9115, Note_off_c, 3, 38, 64
5, 9120, Note_on_c, 3, 36, 90
5, 9355, Note_off_c, 3, 36, 64
5, 9360, Note_on_c, 3, 34, 90
5, 9595, Note_off_c, 3, 34, 64
5, 9600, Note_on_c, 3, 28, 90
5, 10000, Note_off_c, 3, 28, 64
5, 11520, Note_on_c, 3, 38, 90
5, 12360, Note_off_c, 3, 38, 64
5, 12480, Note_on_c, 3, 38, 90
5, 13320, Note_off_c, 3, 38, 64
5, 13440, Note_on_c, 3, 36, 90
5, 14635, Note_off_c, 3, 36, 64
5, 14640, Note_on_c, 3, 43, 90
5, 15280, Note_off_c, 3, 43, 64
5, 15360, Note_on_c, 3, 36, 90
5, 15760, Note_off_c, 3, 36, 64
5, 17280, Note_on_c, 3, 28, 90
5, 17680, Note_off_c, 3, 28, 64
5, 18240, Note_on_c, 3, 28, 90
5, 18640, Note_off_c, 3, 28, 64
5, 19440, Note_on_c, 3, 31, 90
5, 19675, Note_off_c, 3, 31, 64
5, 19920, Note_on_c, 3, 38, 90
5, 20155, Note_off_c, 3, 38, 64
5, 20160, Note_on_c, 3, 31, 90
5, 21000, Note_off_c, 3, 31, 64
5, 21120, Note_on_c, 3, 28, 90
5, 21600, Note_off_c, 3, 28, 80
5, 21840, Note_on_c, 3, 35, 90
5, 22075, Note_off_c, 3, 35, 64
5, 22080, Note_on_c, 3, 28, 90
5, 22480, Note_off_c, 3, 28, 64
5, 23280, Note_on_c, 3, 31, 90
5, 23515, Note_off_c, 3, 31, 64
5, 23760, Note_on_c, 3, 38, 90
5, 23995, Note_off_c, 3, 38, 64
5, 24000, Note_on_c, 3, 31, 90
5, 24840, Note_off_c, 3, 31, 64
5, 24960, Note_on_c, 3, 28, 90
5, 25360, Note_off_c, 3, 28, 64
5, 25680, Note_on_c, 3, 35, 90
5, 25915, Note_off_c, 3, 35, 64
5, 25920, Note_on_c, 3, 28, 90
5, 26320, Note_off_c, 3, 28, 64
5, 26880, Note_on_c, 3, 38, 90
5, 27115, Note_off_c, 3, 38, 64
5, 27120, Note_on_c, 3, 38, 90
5, 27355, Note_off_c, 3, 38, 64
5, 27360, Note_on_c, 3, 38, 90
5, 27595, Note_off_c, 3, 38, 64
5, 27600, Note_on_c, 3, 38, 90
5, 27835, Note_off_c, 3, 38, 64
5, 27840, Note_on_c, 3, 38, 90
5, 28075, Note_off_c, 3, 38, 64
5, 28080, Note_on_c, 3, 38, 90
5, 28315, Note_off_c, 3, 38, 64
5, 28320, Note_on_c, 3, 38, 90
5, 28555, Note_off_c, 3, 38, 64
5, 28560, Note_on_c, 3, 38, 90
5, 28795, Note_off_c, 3, 38, 64
5, 28800, Note_on_c, 3, 36, 90
5, 29035, Note_off_c, 3, 36, 64
5, 29040, Note_on_c, 3, 36, 90
5, 29275, Note_off_c, 3, 36, 64
5, 29280, Note_on_c, 3, 36, 90
5, 29515, Note_off_c, 3, 36, 64
5, 29520, Note_on_c, 3, 36, 90
5, 29755, Note_off_c, 3, 36, 64
5, 29760, Note_on_c, 3, 36, 90
5, 29995, Note_off_c, 3, 36, 64
5, 30000, Note_on_c, 3, 36, 90
5, 30235, Note_off_c, 3, 36, 64
5, 30240, Note_on_c, 3, 36, 90
5, 30475, Note_off_c, 3, 36, 64
5, 30480, Note_on_c, 3, 36, 90
5, 30715, Note_off_c, 3, 36, 64
5, 30720, Note_on_c, 3, 36, 90
5, 31120, Note_off_c, 3, 36, 64
5, 32640, Note_on_c, 3, 28, 90
5, 33040, Note_off_c, 3, 28, 64
5, 33360, Note_on_c, 3, 35, 90
5, 33595, Note_off_c, 3, 35, 64
5, 33600, Note_on_c, 3, 28, 90
5, 34000, Note_off_c, 3, 28, 64
5, 34800, Note_on_c, 3, 31, 90
5, 35035, Note_off_c, 3, 31, 64
5, 35280, Note_on_c, 3, 38, 90
5, 35515, Note_off_c, 3, 38, 64
5, 35520, Note_on_c, 3, 31, 90
5, 36360, Note_off_c, 3, 31, 64
5, 36480, Note_on_c, 3, 28, 90
5, 36880, Note_off_c, 3, 28, 64
5, 37200, Note_on_c, 3, 35, 90
5, 37435, Note_off_c, 3, 35, 64
5, 37440, Note_on_c, 3, 28, 90
5, 37840, Note_off_c, 3, 28, 64
5, 38640, Note_on_c, 3, 31, 90
5, 38875, Note_off_c, 3, 31, 64
5, 39120, Note_on_c, 3, 38, 90
5, 39355, Note_off_c, 3, 38, 64
5, 39360, Note_on_c, 3, 31, 90
5, 40200, Note_off_c, 3, 31, 64
5, 40320, Note_on_c, 3, 28, 90
5, 40720, Note_off_c, 3, 28, 64
5, 41040, Note_on_c, 3, 35, 90
5, 41275, Note_off_c, 3, 35, 64
5, 41280, Note_on_c, 3, 28, 90
5, 41680, Note_off_c, 3, 28, 64
5, 42240, Note_on_c, 3, 38, 90
5, 42475, Note_off_c, 3, 38, 64
5, 42480, Note_on_c, 3, 38, 90
5, 42715, Note_off_c, 3, 38, 64
5, 42720, Note_on_c, 3, 38, 90
5, 42955, Note_off_c, 3, 38, 64
5, 42960, Note_on_c, 3, 38, 90
5, 43195, Note_off_c, 3, 38, 64
5, 43200, Note_on_c, 3, 38, 90
5, 43435, Note_off_c, 3, 38, 64
5, 43440, Note_on_c, 3, 38, 90
5, 43675, Note_off_c, 3, 38, 64
5, 43680, Note_on_c, 3, 38, 90
5, 43915, Note_off_c, 3, 38, 64
5, 43920, Note_on_c, 3, 38, 90
5, 44155, Note_off_c, 3, 38, 64
5, 44160, Note_on_c, 3, 36, 90
5, 44395, Note_off_c, 3, 36, 64
5, 44400, Note_on_c, 3, 36, 90
5, 44635, Note_off_c, 3, 36, 64
5, 44640, Note_on_c, 3, 36, 90
5, 44875, Note_off_c, 3, 36, 64
5, 44880, Note_on_c, 3, 36, 90
5, 45115, Note_off_c, 3, 36, 64
5, 45120, Note_on_c, 3, 36, 90
5, 45355, Note_off_c, 3, 36, 64
5, 45360, Note_on_c, 3, 36, 90
5, 45595, Note_off_c, 3, 36, 64
5, 45600, Note_on_c, 3, 36, 90
5, 45835, Note_off_c, 3, 36, 64
5, 45840, Note_on_c, 3, 36, 90
5, 46075, Note_off_c, 3, 36, 64
5, 46080, Note_on_c, 3, 36, 90
5, 46480, Note_off_c, 3, 36, 64
5, 48000, Control_c, 3, 10, 0
5, 48000, Note_on_c, 3, 29, 90
5, 48400, Note_off_c, 3, 29, 64
5, 48960, Control_c, 3, 10, 127
5, 48960, Note_on_c, 3, 36, 90
5, 49800, Note_off_c, 3, 36, 64
5, 49920, Control_c, 3, 10, 0
5, 49920, Note_on_c, 3, 29, 90
5, 50320, Note_off_c, 3, 29, 64
5, 50880, Control_c, 3, 10, 127
5, 50880, Note_on_c, 3, 36, 90
5, 51720, Note_off_c, 3, 36, 64
5, 51840, Control_c, 3, 10, 0
5, 51840, Note_on_c, 3, 29, 90
5, 52240, Note_off_c, 3, 29, 64
5, 52800, Control_c, 3, 10, 127
5, 52800, Note_on_c, 3, 36, 90
5, 53640, Note_off_c, 3, 36, 64
5, 53760, Control_c, 3, 10, 64
5, 53760, Note_on_c, 3, 29, 90
5, 54160, Note_off_c, 3, 29, 64
5, 54240, Note_on_c, 3, 29, 90
5, 54640, Note_off_c, 3, 29, 64
5, 54960, Note_on_c, 3, 36, 90
5, 55600, Note_off_c, 3, 36, 64
5, 55680, Control_c, 3, 10, 0
5, 55680, Note_on_c, 3, 31, 90
5, 56080, Note_off_c, 3, 31, 64
5, 56640, Control_c, 3, 10, 127
5, 56640, Note_on_c, 3, 38, 90
5, 57480, Note_off_c, 3, 38, 64
5, 57600, Control_c, 3, 10, 0
5, 57600, Note_on_c, 3, 31, 90
5, 58000, Note_off_c, 3, 31, 64
5, 58560, Control_c, 3, 10, 127
5, 58560, Note_on_c, 3, 38, 90
5, 59400, Note_off_c, 3, 38, 64
5, 59520, Control_c, 3, 10, 0
5, 59520, Note_on_c, 3, 31, 90
5, 59920, Note_off_c, 3, 31, 64
5, 60480, Control_c, 3, 10, 127
5, 60480, Note_on_c, 3, 38, 90
5, 61320, Note_off_c, 3, 38, 64
5, 61680, Control_c, 3, 10, 65
5, 61680, Note_on_c, 3, 36, 90
5, 61915, Note_off_c, 3, 36, 64
5, 61920, Note_on_c, 3, 36, 90
5, 62320, Note_off_c, 3, 36, 64
5, 62640, Note_on_c, 3, 40, 90
5, 62875, Note_off_c, 3, 40, 64
5, 62880, Note_on_c, 3, 40, 90
5, 63280, Note_off_c, 3, 40, 64
5, 63360, Control_c, 3, 10, 0
5, 63360, Note_on_c, 3, 29, 90
5, 63760, Note_off_c, 3, 29, 64
5, 64320, Control_c, 3, 10, 127
5, 64320, Note_on_c, 3, 36, 90
5, 65160, Note_off_c, 3, 36, 64
5, 65280, Control_c, 3, 10, 0
5, 65280, Note_on_c, 3, 29, 90
5, 65680, Note_off_c, 3, 29, 64
5, 66240, Control_c, 3, 10, 127
5, 66240, Note_on_c, 3, 36, 90
5, 67080, Note_off_c, 3, 36, 64
5, 67200, Control_c, 3, 10, 0
5, 67200, Note_on_c, 3, 29, 90
5, 67600, Note_off_c, 3, 29, 64
5, 68160, Control_c, 3, 10, 127
5, 68160, Note_on_c, 3, 36, 90
5, 69000, Note_off_c, 3, 36, 64
5, 69120, Control_c, 3, 10, 64
5, 69120, Note_on_c, 3, 29, 90
5, 69760, Note_off_c, 3, 29, 64
5, 69840, Note_on_c, 3, 29, 90
5, 70315, Note_off_c, 3, 29, 64
5, 70320, Note_on_c, 3, 29, 90
5, 70555, Note_off_c, 3, 29, 64
5, 70560, Note_on_c, 3, 33, 90
5, 70795, Note_off_c, 3, 33, 64
5, 70800, Note_on_c, 3, 34, 90
5, 71035, Note_off_c, 3, 34, 64
5, 71040, Note_on_c, 3, 36, 90
5, 71275, Note_off_c, 3, 36, 64
5, 71280, Note_on_c, 3, 36, 90
5, 71515, Note_off_c, 3, 36, 64
5, 71520, Note_on_c, 3, 36, 90
5, 71755, Note_off_c, 3, 36, 64
5, 71760, Note_on_c, 3, 36, 90
5, 71995, Note_off_c, 3, 36, 64
5, 72000, Note_on_c, 3, 36, 90
5, 72235, Note_off_c, 3, 36, 64
5, 72240, Note_on_c, 3, 36, 90
5, 72475, Note_off_c, 3, 36, 64
5, 72480, Note_on_c, 3, 36, 90
5, 72715, Note_off_c, 3, 36, 64
5, 72720, Note_on_c, 3, 36, 90
5, 72955, Note_off_c, 3, 36, 64
5, 72960, Note_on_c, 3, 36, 90
5, 73195, Note_off_c, 3, 36, 64
5, 73200, Note_on_c, 3, 36, 90
5, 73435, Note_off_c, 3, 36, 64
5, 73440, Note_on_c, 3, 36, 90
5, 73675, Note_off_c, 3, 36, 64
5, 73680, Note_on_c, 3, 36, 90
5, 73915, Note_off_c, 3, 36, 64
5, 73920, Note_on_c, 3, 36, 90
5, 74155, Note_off_c, 3, 36, 64
5, 74160, Note_on_c, 3, 36, 90
5, 74395, Note_off_c, 3, 36, 64
5, 74400, Note_on_c, 3, 36, 90
5, 74635, Note_off_c, 3, 36, 64
5, 74640, Note_on_c, 3, 36, 90
5, 74875, Note_off_c, 3, 36, 64
5, 74880, Note_on_c, 3, 38, 90
5, 75115, Note_off_c, 3, 38, 64
5, 75120, Note_on_c, 3, 38, 90
5, 75355, Note_off_c, 3, 38, 64
5, 75360, Note_on_c, 3, 38, 90
5, 75595, Note_off_c, 3, 38, 64
5, 75600, Note_on_c, 3, 38, 90
5, 75835, Note_off_c, 3, 38, 64
5, 75840, Note_on_c, 3, 38, 90
5, 76075, Note_off_c, 3, 38, 64
5, 76080, Note_on_c, 3, 38, 90
5, 76315, Note_off_c, 3, 38, 64
5, 76320, Note_on_c, 3, 38, 90
5, 76555, Note_off_c, 3, 38, 64
5, 76560, Note_on_c, 3, 38, 90
5, 76795, Note_off_c, 3, 38, 64
5, 76800, Note_on_c, 3, 38, 90
5, 77035, Note_off_c, 3, 38, 64
5, 77040, Note_on_c, 3, 38, 90
5, 77275, Note_off_c, 3, 38, 64
5, 77280, Note_on_c, 3, 38, 90
5, 77515, Note_off_c, 3, 38, 64
5, 77520, Note_on_c, 3, 38, 90
5, 77755, Note_off_c, 3, 38, 64
5, 77760, Note_on_c, 3, 38, 90
5, 77995, Note_off_c, 3, 38, 64
5, 78000, Note_on_c, 3, 38, 90
5, 78235, Note_off_c, 3, 38, 64
5, 78240, Note_on_c, 3, 38, 90
5, 78475, Note_off_c, 3, 38, 64
5, 78480, Note_on_c, 3, 38, 90
5, 78715, Note_off_c, 3, 38, 64
5, 78720, Note_on_c, 3, 28, 90
5, 79120, Note_off_c, 3, 28, 64
5, 80880, Note_on_c, 3, 31, 90
5, 81115, Note_off_c, 3, 31, 64
5, 81360, Note_on_c, 3, 31, 90
5, 82440, Note_off_c, 3, 31, 64
5, 82560, Note_on_c, 3, 28, 90
5, 82960, Note_off_c, 3, 28, 64
5, 84720, Note_on_c, 3, 43, 90
5, 84955, Note_off_c, 3, 43, 64
5, 84960, Note_on_c, 3, 41, 90
5, 85360, Note_off_c, 3, 41, 64
5, 85680, Note_on_c, 3, 38, 90
5, 85915, Note_off_c, 3, 38, 64
5, 85920, Note_on_c, 3, 36, 90
5, 86155, Note_off_c, 3, 36, 64
5, 86160, Note_on_c, 3, 34, 90
5, 86395, Note_off_c, 3, 34, 64
5, 86400, Note_on_c, 3, 28, 90
5, 86800, Note_off_c, 3, 28, 64
5, 88320, Note_on_c, 3, 38, 90
5, 89160, Note_off_c, 3, 38, 64
5, 89280, Note_on_c, 3, 38, 90
5, 90120, Note_off_c, 3, 38, 64
5, 90240, Note_on_c, 3, 36, 90
5, 91435, Note_off_c, 3, 36, 64
5, 91440, Note_on_c, 3, 43, 90
5, 92080, Note_off_c, 3, 43, 64
5, 92160, Note_on_c, 3, 36, 90
5, 92560, Note_off_c, 3, 36, 64
5, 94080, Note_on_c, 3, 28, 90
5, 94480, Note_off_c, 3, 28, 64
5, 95040, Note_on_c, 3, 28, 90
5, 95440, Note_off_c, 3, 28, 64
5, 96240, Note_on_c, 3, 31, 90
5, 96475, Note_off_c, 3, 31, 64
5, 96720, Note_on_c, 3, 38, 90
5, 96955, Note_off_c, 3, 38, 64
5, 96960, Note_on_c, 3, 31, 90
5, 97800, Note_off_c, 3, 31, 64
5, 97920, Note_on_c, 3, 28, 90
5, 98320, Note_off_c, 3, 28, 64
5, 98640, Note_on_c, 3, 35, 90
5, 98875, Note_off_c, 3, 35, 64
5, 98880, Note_on_c, 3, 28, 90
5, 99280, Note_off_c, 3, 28, 64
5, 100080, Note_on_c, 3, 31, 90
5, 100315, Note_off_c, 3, 31, 64
5, 100560, Note_on_c, 3, 38, 90
5, 100795, Note_off_c, 3, 38, 64
5, 100800, Note_on_c, 3, 31, 90
5, 101640, Note_off_c, 3, 31, 64
5, 101760, Note_on_c, 3, 28, 90
5, 102160, Note_off_c, 3, 28, 64
5, 102480, Note_on_c, 3, 35, 90
5, 102715, Note_off_c, 3, 35, 64
5, 102720, Note_on_c, 3, 28, 90
5, 103120, Note_off_c, 3, 28, 64
5, 103680, Note_on_c, 3, 38, 90
5, 103915, Note_off_c, 3, 38, 64
5, 103920, Note_on_c, 3, 38, 90
5, 104155, Note_off_c, 3, 38, 64
5, 104160, Note_on_c, 3, 38, 90
5, 104395, Note_off_c, 3, 38, 64
5, 104400, Note_on_c, 3, 38, 90
5, 104635, Note_off_c, 3, 38, 64
5, 104640, Note_on_c, 3, 38, 90
5, 104875, Note_off_c, 3, 38, 64
5, 104880, Note_on_c, 3, 38, 90
5, 105115, Note_off_c, 3, 38, 64
5, 105120, Note_on_c, 3, 38, 90
5, 105355, Note_off_c, 3, 38, 64
5, 105360, Note_on_c, 3, 38, 90
5, 105595, Note_off_c, 3, 38, 64
5, 105600, Note_on_c, 3, 36, 90
5, 105835, Note_off_c, 3, 36, 64
5, 105840, Note_on_c, 3, 36, 90
5, 106075, Note_off_c, 3, 36, 64
5, 106080, Note_on_c, 3, 36, 90
5, 106315, Note_off_c, 3, 36, 64
5, 106320, Note_on_c, 3, 36, 90
5, 106555, Note_off_c, 3, 36, 64
5, 106560, Note_on_c, 3, 36, 90
5, 106795, Note_off_c, 3, 36, 64
5, 106800, Note_on_c, 3, 36, 90
5, 107035, Note_off_c, 3, 36, 64
5, 107040, Note_on_c, 3, 36, 90
5, 107275, Note_off_c, 3, 36, 64
5, 107280, Note_on_c, 3, 36, 90
5, 107515, Note_off_c, 3, 36, 64
5, 107520, Note_on_c, 3, 36, 90
5, 107920, Note_off_c, 3, 36, 64
5, 109440, Note_on_c, 3, 28, 90
5, 109840, Note_off_c, 3, 28, 64
5, 110160, Note_on_c, 3, 35, 90
5, 110395, Note_off_c, 3, 35, 64
5, 110400, Note_on_c, 3, 28, 90
5, 110800, Note_off_c, 3, 28, 64
5, 111600, Note_on_c, 3, 31, 90
5, 111835, Note_off_c, 3, 31, 64
5, 112080, Note_on_c, 3, 38, 90
5, 112315, Note_off_c, 3, 38, 64
5, 112320, Note_on_c, 3, 31, 90
5, 113160, Note_off_c, 3, 31, 64
5, 113280, Note_on_c, 3, 28, 90
5, 113680, Note_off_c, 3, 28, 64
5, 114000, Note_on_c, 3, 35, 90
5, 114235, Note_off_c, 3, 35, 64
5, 114240, Note_on_c, 3, 28, 90
5, 114640, Note_off_c, 3, 28, 64
5, 115440, Note_on_c, 3, 31, 90
5, 115675, Note_off_c, 3, 31, 64
5, 115920, Note_on_c, 3, 38, 90
5, 116155, Note_off_c, 3, 38, 64
5, 116160, Note_on_c, 3, 31, 90
5, 117000, Note_off_c, 3, 31, 64
5, 117120, Note_on_c, 3, 28, 90
5, 117520, Note_off_c, 3, 28, 64
5, 117840, Note_on_c, 3, 35, 90
5, 118075, Note_off_c, 3, 35, 64
5, 118080, Note_on_c, 3, 28, 90
5, 118480, Note_off_c, 3, 28, 64
5, 119040, Note_on_c, 3, 38, 90
5, 119275, Note_off_c, 3, 38, 64
5, 119280, Note_on_c, 3, 38, 90
5, 119515, Note_off_c, 3, 38, 64
5, 119520, Note_on_c, 3, 38, 90
5, 119755, Note_off_c, 3, 38, 64
5, 119760, Note_on_c, 3, 38, 90
5, 119995, Note_off_c, 3, 38, 64
5, 120000, Note_on_c, 3, 38, 90
5, 120235, Note_off_c, 3, 38, 64
5, 120240, Note_on_c, 3, 38, 90
5, 120475, Note_off_c, 3, 38, 64
5, 120480, Note_on_c, 3, 38, 90
5, 120715, Note_off_c, 3, 38, 64
5, 120720, Note_on_c, 3, 38, 90
5, 120955, Note_off_c, 3, 38, 64
5, 120960, Note_on_c, 3, 36, 90
5, 121195, Note_off_c, 3, 36, 64
5, 121200, Note_on_c, 3, 36, 90
5, 121435, Note_off_c, 3, 36, 64
5, 121440, Note_on_c, 3, 36, 90
5, 121675, Note_off_c, 3, 36, 64
5, 121680, Note_on_c, 3, 36, 90
5, 121915, Note_off_c, 3, 36, 64
5, 121920, Note_on_c, 3, 36, 90
5, 122155, Note_off_c, 3, 36, 64
5, 122160, Note_on_c, 3, 36, 90
5, 122395, Note_off_c, 3, 36, 64
5, 122400, Note_on_c, 3, 36, 90
5, 122635, Note_off_c, 3, 36, 64
5, 122640, Note_on_c, 3, 36, 90
5, 122875, Note_off_c, 3, 36, 64
5, 122880, Note_on_c, 3, 36, 90
5, 123280, Note_off_c, 3, 36, 64
5, 124800, Note_on_c, 3, 29, 90
5, 124800, Control_c, 3, 10, 0
5, 125200, Note_off_c, 3, 29, 64
5, 125760, Note_on_c, 3, 36, 90
5, 125760, Control_c, 3, 10, 127
5, 126600, Note_off_c, 3, 36, 64
5, 126720, Note_on_c, 3, 29, 90
5, 126720, Control_c, 3, 10, 0
5, 127120, Note_off_c, 3, 29, 64
5, 127680, Note_on_c, 3, 36, 90
5, 127680, Control_c, 3, 10, 127
5, 128520, Note_off_c, 3, 36, 64
5, 128640, Note_on_c, 3, 29, 90
5, 128640, Control_c, 3, 10, 0
5, 129040, Note_off_c, 3, 29, 64
5, 129600, Note_on_c, 3, 36, 90
5, 129600, Control_c, 3, 10, 127
5, 130440, Note_off_c, 3, 36, 64
5, 130560, Note_on_c, 3, 29, 90
5, 130560, Control_c, 3, 10, 64
5, 130960, Note_off_c, 3, 29, 64
5, 131040, Note_on_c, 3, 29, 90
5, 131440, Note_off_c, 3, 29, 64
5, 131760, Note_on_c, 3, 36, 90
5, 132400, Note_off_c, 3, 36, 64
5, 132480, Note_on_c, 3, 31, 90
5, 132480, Control_c, 3, 10, 0
5, 132880, Note_off_c, 3, 31, 64
5, 133440, Note_on_c, 3, 38, 90
5, 133440, Control_c, 3, 10, 127
5, 134280, Note_off_c, 3, 38, 64
5, 134400, Note_on_c, 3, 31, 90
5, 134400, Control_c, 3, 10, 0
5, 134800, Note_off_c, 3, 31, 64
5, 135360, Note_on_c, 3, 38, 90
5, 135360, Control_c, 3, 10, 127
5, 136200, Note_off_c, 3, 38, 64
5, 136320, Note_on_c, 3, 31, 90
5, 136320, Control_c, 3, 10, 0
5, 136720, Note_off_c, 3, 31, 64
5, 137280, Note_on_c, 3, 38, 90
5, 137280, Control_c, 3, 10, 127
5, 138120, Note_off_c, 3, 38, 64
5, 138480, Note_on_c, 3, 36, 90
5, 138480, Control_c, 3, 10, 65
5, 138715, Note_off_c, 3, 36, 64
5, 138720, Note_on_c, 3, 36, 90
5, 139120, Note_off_c, 3, 36, 64
5, 139440, Note_on_c, 3, 40, 90
5, 139675, Note_off_c, 3, 40, 64
5, 139680, Note_on_c, 3, 40, 90
5, 140080, Note_off_c, 3, 40, 64
5, 140160, Note_on_c, 3, 29, 90
5, 140160, Control_c, 3, 10, 0
5, 140560, Note_off_c, 3, 29, 64
5, 141120, Note_on_c, 3, 36, 90
5, 141120, Control_c, 3, 10, 127
5, 141960, Note_off_c, 3, 36, 64
5, 142080, Note_on_c, 3, 29, 90
5, 142080, Control_c, 3, 10, 0
5, 142480, Note_off_c, 3, 29, 64
5, 143040, Note_on_c, 3, 36, 90
5, 143040, Control_c, 3, 10, 127
5, 143880, Note_off_c, 3, 36, 64
5, 144000, Note_on_c, 3, 29, 90
5, 144000, Control_c, 3, 10, 0
5, 144400, Note_off_c, 3, 29, 64
5, 144960, Note_on_c, 3, 36, 90
5, 144960, Control_c, 3, 10, 127
5, 145800, Note_off_c, 3, 36, 64
5, 145920, Note_on_c, 3, 29, 90
5, 145920, Control_c, 3, 10, 64
5, 146560, Note_off_c, 3, 29, 64
5, 146640, Note_on_c, 3, 29, 90
5, 147115, Note_off_c, 3, 29, 64
5, 147120, Note_on_c, 3, 29, 90
5, 147355, Note_off_c, 3, 29, 64
5, 147360, Note_on_c, 3, 33, 90
5, 147595, Note_off_c, 3, 33, 64
5, 147600, Note_on_c, 3, 34, 90
5, 147835, Note_off_c, 3, 34, 64
5, 147840, Note_on_c, 3, 36, 90
5, 148075, Note_off_c, 3, 36, 64
5, 148080, Note_on_c, 3, 36, 90
5, 148315, Note_off_c, 3, 36, 64
5, 148320, Note_on_c, 3, 36, 90
5, 148555, Note_off_c, 3, 36, 64
5, 148560, Note_on_c, 3, 36, 90
5, 148795, Note_off_c, 3, 36, 64
5, 148800, Note_on_c, 3, 36, 90
5, 149035, Note_off_c, 3, 36, 64
5, 149040, Note_on_c, 3, 36, 90
5, 149275, Note_off_c, 3, 36, 64
5, 149280, Note_on_c, 3, 36, 90
5, 149515, Note_off_c, 3, 36, 64
5, 149520, Note_on_c, 3, 36, 90
5, 149755, Note_off_c, 3, 36, 64
5, 149760, Note_on_c, 3, 36, 90
5, 149995, Note_off_c, 3, 36, 64
5, 150000, Note_on_c, 3, 36, 90
5, 150235, Note_off_c, 3, 36, 64
5, 150240, Note_on_c, 3, 36, 90
5, 150475, Note_off_c, 3, 36, 64
5, 150480, Note_on_c, 3, 36, 90
5, 150715, Note_off_c, 3, 36, 64
5, 150720, Note_on_c, 3, 36, 90
5, 150955, Note_off_c, 3, 36, 64
5, 150960, Note_on_c, 3, 36, 90
5, 151195, Note_off_c, 3, 36, 64
5, 151200, Note_on_c, 3, 36, 90
5, 151435, Note_off_c, 3, 36, 64
5, 151440, Note_on_c, 3, 36, 90
5, 151675, Note_off_c, 3, 36, 64
5, 151680, Note_on_c, 3, 38, 90
5, 151915, Note_off_c, 3, 38, 64
5, 151920, Note_on_c, 3, 38, 90
5, 152155, Note_off_c, 3, 38, 64
5, 152160, Note_on_c, 3, 38, 90
5, 152395, Note_off_c, 3, 38, 64
5, 152400, Note_on_c, 3, 38, 90
5, 152635, Note_off_c, 3, 38, 64
5, 152640, Note_on_c, 3, 38, 90
5, 152875, Note_off_c, 3, 38, 64
5, 152880, Note_on_c, 3, 38, 90
5, 153115, Note_off_c, 3, 38, 64
5, 153120, Note_on_c, 3, 38, 90
5, 153355, Note_off_c, 3, 38, 64
5, 153360, Note_on_c, 3, 38, 90
5, 153595, Note_off_c, 3, 38, 64
5, 153600, Note_on_c, 3, 38, 90
5, 154000, Note_off_c, 3, 38, 64
5, 154080, Note_on_c, 3, 38, 90
5, 154480, Note_off_c, 3, 38, 64
5, 154560, Note_on_c, 3, 38, 90
5, 155400, Note_off_c, 3, 38, 64
5, 155520, Note_on_c, 3, 29, 90
5, 155920, Note_off_c, 3, 29, 64
5, 156240, Note_on_c, 3, 33, 90
5, 156475, Note_off_c, 3, 33, 64
5, 156960, Note_on_c, 3, 36, 90
5, 157360, Note_off_c, 3, 36, 64
5, 157920, Note_on_c, 3, 36, 90
5, 158320, Note_off_c, 3, 36, 64
5, 158640, Note_on_c, 3, 40, 90
5, 159280, Note_off_c, 3, 40, 64
5, 159360, Note_on_c, 3, 31, 90
5, 159760, Note_off_c, 3, 31, 64
5, 160080, Note_on_c, 3, 35, 90
5, 160315, Note_off_c, 3, 35, 64
5, 160800, Note_on_c, 3, 38, 90
5, 161200, Note_off_c, 3, 38, 64
5, 161760, Note_on_c, 3, 26, 90
5, 162160, Note_off_c, 3, 26, 64
5, 162480, Note_on_c, 3, 28, 90
5, 163120, Note_off_c, 3, 28, 64
5, 163200, Note_on_c, 3, 29, 90
5, 163600, Note_off_c, 3, 29, 64
5, 163920, Note_on_c, 3, 33, 90
5, 164155, Note_off_c, 3, 33, 64
5, 164640, Note_on_c, 3, 36, 90
5, 165040, Note_off_c, 3, 36, 64
5, 165600, Note_on_c, 3, 36, 90
5, 166000, Note_off_c, 3, 36, 64
5, 166320, Note_on_c, 3, 40, 90
5, 166960, Note_off_c, 3, 40, 64
5, 167040, Note_on_c, 3, 31, 90
5, 167440, Note_off_c, 3, 31, 64
5, 167760, Note_on_c, 3, 35, 90
5, 167995, Note_off_c, 3, 35, 64
5, 168480, Note_on_c, 3, 38, 90
5, 168880, Note_off_c, 3, 38, 64
5, 169200, Note_on_c, 3, 38, 90
5, 169435, Note_off_c, 3, 38, 64
5, 169440, Note_on_c, 3, 38, 90
5, 169675, Note_off_c, 3, 38, 64
5, 169680, Note_on_c, 3, 38, 90
5, 169915, Note_off_c, 3, 38, 64
5, 169920, Note_on_c, 3, 38, 90
5, 170155, Note_off_c, 3, 38, 64
5, 170160, Note_on_c, 3, 38, 90
5, 170395, Note_off_c, 3, 38, 64
5, 170400, Note_on_c, 3, 38, 90
5, 170635, Note_off_c, 3, 38, 64
5, 170640, Note_on_c, 3, 38, 90
5, 170875, Note_off_c, 3, 38, 64
5, 170880, Note_on_c, 3, 28, 90
5, 171280, Note_off_c, 3, 28, 64
5, 171840, Note_on_c, 3, 28, 90
5, 172240, Note_off_c, 3, 28, 64
5, 173040, Note_on_c, 3, 31, 90
5, 173275, Note_off_c, 3, 31, 64
5, 173520, Note_on_c, 3, 38, 90
5, 173755, Note_off_c, 3, 38, 64
5, 173760, Note_on_c, 3, 31, 90
5, 174600, Note_off_c, 3, 31, 64
5, 174720, Note_on_c, 3, 28, 90
5, 175120, Note_off_c, 3, 28, 64
5, 175440, Note_on_c, 3, 35, 90
5, 175675, Note_off_c, 3, 35, 64
5, 175680, Note_on_c, 3, 28, 90
5, 176080, Note_off_c, 3, 28, 64
5, 176880, Note_on_c, 3, 31, 90
5, 177115, Note_off_c, 3, 31, 64
5, 177360, Note_on_c, 3, 38, 90
5, 177595, Note_off_c, 3, 38, 64
5, 177600, Note_on_c, 3, 31, 90
5, 178440, Note_off_c, 3, 31, 64
5, 178560, Note_on_c, 3, 28, 90
5, 178960, Note_off_c, 3, 28, 64
5, 179280, Note_on_c, 3, 35, 90
5, 179515, Note_off_c, 3, 35, 64
5, 179520, Note_on_c, 3, 28, 90
5, 179920, Note_off_c, 3, 28, 64
5, 180480, Note_on_c, 3, 38, 90
5, 180715, Note_off_c, 3, 38, 64
5, 180720, Note_on_c, 3, 38, 90
5, 180955, Note_off_c, 3, 38, 64
5, 180960, Note_on_c, 3, 38, 90
5, 181195, Note_off_c, 3, 38, 64
5, 181200, Note_on_c, 3, 38, 90
5, 181435, Note_off_c, 3, 38, 64
5, 181440, Note_on_c, 3, 38, 90
5, 181675, Note_off_c, 3, 38, 64
5, 181680, Note_on_c, 3, 38, 90
5, 181915, Note_off_c, 3, 38, 64
5, 181920, Note_on_c, 3, 38, 90
5, 182155, Note_off_c, 3, 38, 64
5, 182160, Note_on_c, 3, 38, 90
5, 182395, Note_off_c, 3, 38, 64
5, 182400, Note_on_c, 3, 36, 90
5, 183040, Note_off_c, 3, 36, 64
5, 183120, Note_on_c, 3, 28, 90
5, 183355, Note_off_c, 3, 28, 64
5, 183600, Note_on_c, 3, 31, 90
5, 184075, Note_off_c, 3, 31, 64
5, 184080, Note_on_c, 3, 33, 90
5, 184315, Note_off_c, 3, 33, 64
5, 184320, Note_on_c, 3, 36, 90
5, 184720, Note_off_c, 3, 36, 64
5, 186240, Note_on_c, 3, 29, 90
5, 186240, Control_c, 3, 10, 0
5, 186640, Note_off_c, 3, 29, 64
5, 187200, Note_on_c, 3, 36, 90
5, 187200, Control_c, 3, 10, 127
5, 188040, Note_off_c, 3, 36, 64
5, 188160, Note_on_c, 3, 29, 90
5, 188160, Control_c, 3, 10, 0
5, 188560, Note_off_c, 3, 29, 64
5, 189120, Note_on_c, 3, 36, 90
5, 189120, Control_c, 3, 10, 127
5, 189960, Note_off_c, 3, 36, 64
5, 190080, Note_on_c, 3, 29, 90
5, 190080, Control_c, 3, 10, 0
5, 190480, Note_off_c, 3, 29, 64
5, 191040, Note_on_c, 3, 36, 90
5, 191040, Control_c, 3, 10, 127
5, 191880, Note_off_c, 3, 36, 64
5, 192000, Note_on_c, 3, 29, 90
5, 192000, Control_c, 3, 10, 64
5, 192400, Note_off_c, 3, 29, 64
5, 192480, Note_on_c, 3, 29, 90
5, 192880, Note_off_c, 3, 29, 64
5, 193200, Note_on_c, 3, 36, 90
5, 193840, Note_off_c, 3, 36, 64
5, 193920, Note_on_c, 3, 31, 90
5, 193920, Control_c, 3, 10, 0
5, 194320, Note_off_c, 3, 31, 64
5, 194880, Note_on_c, 3, 38, 90
5, 194880, Control_c, 3, 10, 127
5, 195720, Note_off_c, 3, 38, 64
5, 195840, Note_on_c, 3, 31, 90
5, 195840, Control_c, 3, 10, 0
5, 196240, Note_off_c, 3, 31, 64
5, 196800, Note_on_c, 3, 38, 90
5, 196800, Control_c, 3, 10, 127
5, 197640, Note_off_c, 3, 38, 64
5, 197760, Note_on_c, 3, 31, 90
5, 197760, Control_c, 3, 10, 0
5, 198160, Note_off_c, 3, 31, 64
5, 198720, Note_on_c, 3, 38, 90
5, 198720, Control_c, 3, 10, 127
5, 199560, Note_off_c, 3, 38, 64
5, 199920, Note_on_c, 3, 36, 90
5, 199920, Control_c, 3, 10, 65
5, 200155, Note_off_c, 3, 36, 64
5, 200160, Note_on_c, 3, 36, 90
5, 200560, Note_off_c, 3, 36, 64
5, 200880, Note_on_c, 3, 40, 90
5, 201115, Note_off_c, 3, 40, 64
5, 201120, Note_on_c, 3, 40, 90
5, 201520, Note_off_c, 3, 40, 64
5, 201600, Note_on_c, 3, 29, 90
5, 201600, Control_c, 3, 10, 0
5, 202000, Note_off_c, 3, 29, 64
5, 202560, Note_on_c, 3, 36, 90
5, 202560, Control_c, 3, 10, 127
5, 203400, Note_off_c, 3, 36, 64
5, 203520, Note_on_c, 3, 29, 90
5, 203520, Control_c, 3, 10, 0
5, 203920, Note_off_c, 3, 29, 64
5, 204480, Note_on_c, 3, 36, 90
5, 204480, Control_c, 3, 10, 127
5, 205320, Note_off_c, 3, 36, 64
5, 205440, Note_on_c, 3, 29, 90
5, 205440, Control_c, 3, 10, 0
5, 205840, Note_off_c, 3, 29, 64
5, 206400, Note_on_c, 3, 36, 90
5, 206400, Control_c, 3, 10, 127
5, 207240, Note_off_c, 3, 36, 64
5, 207360, Note_on_c, 3, 29, 90
5, 207360, Control_c, 3, 10, 64
5, 208000, Note_off_c, 3, 29, 64
5, 208080, Note_on_c, 3, 29, 90
5, 208315, Note_off_c, 3, 29, 64
5, 208320, Note_on_c, 3, 29, 90
5, 208720, Note_off_c, 3, 29, 64
5, 208800, Note_on_c, 3, 33, 90
5, 209035, Note_off_c, 3, 33, 64
5, 209040, Note_on_c, 3, 34, 90
5, 209275, Note_off_c, 3, 34, 64
5, 209280, Note_on_c, 3, 36, 90
5, 209515, Note_off_c, 3, 36, 64
5, 209520, Note_on_c, 3, 36, 90
5, 209755, Note_off_c, 3, 36, 64
5, 209760, Note_on_c, 3, 36, 90
5, 209995, Note_off_c, 3, 36, 64
5, 210000, Note_on_c, 3, 36, 90
5, 210235, Note_off_c, 3, 36, 64
5, 210240, Note_on_c, 3, 36, 90
5, 210475, Note_off_c, 3, 36, 64
5, 210480, Note_on_c, 3, 36, 90
5, 210715, Note_off_c, 3, 36, 64
5, 210720, Note_on_c, 3, 36, 90
5, 210955, Note_off_c, 3, 36, 64
5, 210960, Note_on_c, 3, 36, 90
5, 211195, Note_off_c, 3, 36, 64
5, 211200, Note_on_c, 3, 36, 90
5, 211435, Note_off_c, 3, 36, 64
5, 211440, Note_on_c, 3, 36, 90
5, 211675, Note_off_c, 3, 36, 64
5, 211680, Note_on_c, 3, 36, 90
5, 211915, Note_off_c, 3, 36, 64
5, 211920, Note_on_c, 3, 36, 90
5, 212155, Note_off_c, 3, 36, 64
5, 212160, Note_on_c, 3, 36, 90
5, 212395, Note_off_c, 3, 36, 64
5, 212400, Note_on_c, 3, 36, 90
5, 212635, Note_off_c, 3, 36, 64
5, 212640, Note_on_c, 3, 36, 90
5, 212875, Note_off_c, 3, 36, 64
5, 212880, Note_on_c, 3, 36, 90
5, 213115, Note_off_c, 3, 36, 64
5, 213120, Note_on_c, 3, 29, 90
5, 213120, Control_c, 3, 10, 0
5, 213520, Note_off_c, 3, 29, 64
5, 214080, Note_on_c, 3, 36, 90
5, 214080, Control_c, 3, 10, 127
5, 214920, Note_off_c, 3, 36, 64
5, 215040, Note_on_c, 3, 29, 90
5, 215040, Control_c, 3, 10, 0
5, 215440, Note_off_c, 3, 29, 64
5, 216000, Note_on_c, 3, 36, 90
5, 216000, Control_c, 3, 10, 127
5, 216840, Note_off_c, 3, 36, 64
5, 216960, Note_on_c, 3, 29, 90
5, 216960, Control_c, 3, 10, 0
5, 217360, Note_off_c, 3, 29, 64
5, 217920, Note_on_c, 3, 36, 90
5, 217920, Control_c, 3, 10, 127
5, 218760, Note_off_c, 3, 36, 64
5, 218880, Note_on_c, 3, 29, 90
5, 218880, Control_c, 3, 10, 64
5, 219280, Note_off_c, 3, 29, 64
5, 219360, Note_on_c, 3, 29, 90
5, 219760, Note_off_c, 3, 29, 64
5, 220080, Note_on_c, 3, 36, 90
5, 220720, Note_off_c, 3, 36, 64
5, 220800, Note_on_c, 3, 31, 90
5, 220800, Control_c, 3, 10, 0
5, 221200, Note_off_c, 3, 31, 64
5, 221760, Note_on_c, 3, 38, 90
5, 221760, Control_c, 3, 10, 127
5, 222600, Note_off_c, 3, 38, 64
5, 222720, Note_on_c, 3, 31, 90
5, 222720, Control_c, 3, 10, 0
5, 223120, Note_off_c, 3, 31, 64
5, 223680, Note_on_c, 3, 38, 90
5, 223680, Control_c, 3, 10, 127
5, 224520, Note_off_c, 3, 38, 64
5, 224640, Note_on_c, 3, 31, 90
5, 224640, Control_c, 3, 10, 0
5, 225040, Note_off_c, 3, 31, 64
5, 225600, Note_on_c, 3, 38, 90
5, 225600, Control_c, 3, 10, 127
5, 226440, Note_off_c, 3, 38, 64
5, 226800, Note_on_c, 3, 36, 90
5, 226800, Control_c, 3, 10, 65
5, 227035, Note_off_c, 3, 36, 64
5, 227040, Note_on_c, 3, 36, 90
5, 227440, Note_off_c, 3, 36, 64
5, 227760, Note_on_c, 3, 40, 90
5, 227995, Note_off_c, 3, 40, 64
5, 228000, Note_on_c, 3, 40, 90
5, 228400, Note_off_c, 3, 40, 64
5, 228480, Note_on_c, 3, 29, 90
5, 228480, Control_c, 3, 10, 0
5, 228880, Note_off_c, 3, 29, 64
5, 229440, Note_on_c, 3, 36, 90
5, 229440, Control_c, 3, 10, 127
5, 230280, Note_off_c, 3, 36, 64
5, 230400, Note_on_c, 3, 29, 90
5, 230400, Control_c, 3, 10, 0
5, 230800, Note_off_c, 3, 29, 64
5, 231360, Note_on_c, 3, 36, 90
5, 231360, Control_c, 3, 10, 127
5, 232200, Note_off_c, 3, 36, 64
5, 232320, Note_on_c, 3, 29, 90
5, 232320, Control_c, 3, 10, 0
5, 232720, Note_off_c, 3, 29, 64
5, 233280, Note_on_c, 3, 36, 90
5, 233280, Control_c, 3, 10, 127
5, 234120, Note_off_c, 3, 36, 64
5, 234240, Note_on_c, 3, 29, 90
5, 234240, Control_c, 3, 10, 64
5, 234880, Note_off_c, 3, 29, 64
5, 234960, Note_on_c, 3, 29, 90
5, 235195, Note_off_c, 3, 29, 64
5, 235200, Note_on_c, 3, 29, 90
5, 235600, Note_off_c, 3, 29, 64
5, 235680, Note_on_c, 3, 33, 90
5, 235915, Note_off_c, 3, 33, 64
5, 235920, Note_on_c, 3, 34, 90
5, 236155, Note_off_c, 3, 34, 64
5, 236160, Note_on_c, 3, 36, 90
5, 236395, Note_off_c, 3, 36, 64
5, 236400, Note_on_c, 3, 36, 90
5, 236635, Note_off_c, 3, 36, 64
5, 236640, Note_on_c, 3, 36, 90
5, 236875, Note_off_c, 3, 36, 64
5, 236880, Note_on_c, 3, 36, 90
5, 237115, Note_off_c, 3, 36, 64
5, 237120, Note_on_c, 3, 36, 90
5, 237355, Note_off_c, 3, 36, 64
5, 237360, Note_on_c, 3, 36, 90
5, 237595, Note_off_c, 3, 36, 64
5, 237600, Note_on_c, 3, 36, 90
5, 237835, Note_off_c, 3, 36, 64
5, 237840, Note_on_c, 3, 36, 90
5, 238075, Note_off_c, 3, 36, 64
5, 238080, Note_on_c, 3, 36, 90
5, 238315, Note_off_c, 3, 36, 64
5, 238320, Note_on_c, 3, 36, 90
5, 238555, Note_off_c, 3, 36, 64
5, 238560, Note_on_c, 3, 36, 90
5, 238795, Note_off_c, 3, 36, 64
5, 238800, Note_on_c, 3, 36, 90
5, 239035, Note_off_c, 3, 36, 64
5, 239040, Note_on_c, 3, 36, 90
5, 239275, Note_off_c, 3, 36, 64
5, 239280, Note_on_c, 3, 36, 90
5, 239515, Note_off_c, 3, 36, 64
5, 239520, Note_on_c, 3, 36, 90
5, 239755, Note_off_c, 3, 36, 64
5, 239760, Note_on_c, 3, 36, 90
5, 239995, Note_off_c, 3, 36, 64
5, 240000, Note_on_c, 3, 29, 90
5, 240000, Control_c, 3, 10, 0
5, 240400, Note_off_c, 3, 29, 64
5, 240960, Note_on_c, 3, 36, 90
5, 240960, Control_c, 3, 10, 127
5, 241800, Note_off_c, 3, 36, 64
5, 241920, Note_on_c, 3, 29, 90
5, 241920, Control_c, 3, 10, 0
5, 242320, Note_off_c, 3, 29, 64
5, 242880, Note_on_c, 3, 36, 90
5, 242880, Control_c, 3, 10, 127
5, 243720, Note_off_c, 3, 36, 64
5, 243840, Note_on_c, 3, 29, 90
5, 243840, Control_c, 3, 10, 0
5, 244240, Note_off_c, 3, 29, 64
5, 244800, Note_on_c, 3, 36, 90
5, 244800, Control_c, 3, 10, 127
5, 245640, Note_off_c, 3, 36, 64
5, 245760, Note_on_c, 3, 29, 90
5, 245760, Control_c, 3, 10, 64
5, 246160, Note_off_c, 3, 29, 64
5, 246240, Note_on_c, 3, 29, 90
5, 246640, Note_off_c, 3, 29, 64
5, 246960, Note_on_c, 3, 36, 90
5, 247600, Note_off_c, 3, 36, 64
5, 247680, Note_on_c, 3, 31, 90
5, 247680, Control_c, 3, 7, 120
5, 247680, Control_c, 3, 10, 0
5, 248080, Note_off_c, 3, 31, 64
5, 248640, Note_on_c, 3, 38, 90
5, 248640, Control_c, 3, 10, 127
5, 249360, Control_c, 3, 7, 110
5, 249480, Note_off_c, 3, 38, 64
5, 249600, Note_on_c, 3, 31, 90
5, 249600, Control_c, 3, 10, 0
5, 250000, Note_off_c, 3, 31, 64
5, 250560, Note_on_c, 3, 38, 90
5, 250560, Control_c, 3, 10, 127
5, 251040, Control_c, 3, 7, 100
5, 251400, Note_off_c, 3, 38, 64
5, 251520, Note_on_c, 3, 31, 90
5, 251520, Control_c, 3, 10, 0
5, 251920, Note_off_c, 3, 31, 64
5, 252480, Note_on_c, 3, 38, 90
5, 252480, Control_c, 3, 10, 127
5, 253320, Note_off_c, 3, 38, 64
5, 253680, Note_on_c, 3, 36, 90
5, 253680, Control_c, 3, 10, 65
5, 253915, Note_off_c, 3, 36, 64
5, 253920, Note_on_c, 3, 36, 90
5, 254160, Control_c, 3, 7, 90
5, 254320, Note_off_c, 3, 36, 64
5, 254640, Note_on_c, 3, 40, 90
5, 254875, Note_off_c, 3, 40, 64
5, 254880, Note_on_c, 3, 40, 90
5, 254880, Control_c, 3, 7, 80
5, 255280, Note_off_c, 3, 40, 64
5, 255360, Note_on_c, 3, 29, 90
5, 255360, Control_c, 3, 10, 0
5, 255760, Note_off_c, 3, 29, 64
5, 256320, Note_on_c, 3, 36, 90
5, 256320, Control_c, 3, 10, 127
5, 256800, Control_c, 3, 7, 70
5, 257160, Note_off_c, 3, 36, 64
5, 257280, Note_on_c, 3, 29, 90
5, 257280, Control_c, 3, 10, 0
5, 257680, Note_off_c, 3, 29, 64
5, 258240, Note_on_c, 3, 36, 90
5, 258240, Control_c, 3, 10, 127
5, 258720, Control_c, 3, 7, 50
5, 259080, Note_off_c, 3, 36, 64
5, 259200, Note_on_c, 3, 29, 90
5, 259200, Control_c, 3, 10, 0
5, 259600, Note_off_c, 3, 29, 64
5, 260160, Note_on_c, 3, 36, 90
5, 260160, Control_c, 3, 10, 127
5, 261000, Note_off_c, 3, 36, 64
5, 261120, Note_on_c, 3, 29, 90
5, 261120, Control_c, 3, 10, 64
5, 261360, Control_c, 3, 7, 30
5, 261760, Note_off_c, 3, 29, 64
5, 261840, Note_on_c, 3, 29, 90
5, 262075, Note_off_c, 3, 29, 64
5, 262080, Note_on_c, 3, 29, 90
5, 262480, Note_off_c, 3, 29, 64
5, 262560, Note_on_c, 3, 33, 90
5, 262560, Control_c, 3, 7, 20
5, 262795, Note_off_c, 3, 33, 64
5, 262800, Note_on_c, 3, 34, 90
5, 263035, Note_off_c, 3, 34, 64
5, 263040, Note_on_c, 3, 36, 90
5, 263275, Note_off_c, 3, 36, 64
5, 263280, Note_on_c, 3, 36, 90
5, 263515, Note_off_c, 3, 36, 64
5, 263520, Note_on_c, 3, 36, 90
5, 263755, Note_off_c, 3, 36, 64
5, 263760, Note_on_c, 3, 36, 90
5, 263995, Note_off_c, 3, 36, 64
5, 264000, Note_on_c, 3, 36, 90
5, 264235, Note_off_c, 3, 36, 64
5, 264240, Note_on_c, 3, 36, 90
5, 264475, Note_off_c, 3, 36, 64
5, 264480, Note_on_c, 3, 36, 90
5, 264715, Note_off_c, 3, 36, 64
5, 264720, Note_on_c, 3, 36, 90
5, 264720, Control_c, 3, 7, 5
5, 264955, Note_off_c, 3, 36, 64
5, 264960, Note_on_c, 3, 36, 90
5, 265195, Note_off_c, 3, 36, 64
5, 265200, Note_on_c, 3, 36, 90
5, 265435, Note_off_c, 3, 36, 64
5, 265440, Note_on_c, 3, 36, 90
5, 265675, Note_off_c, 3, 36, 64
5, 265680, Note_on_c, 3, 36, 90
5, 265915, Note_off_c, 3, 36, 64
5, 265920, Note_on_c, 3, 36, 90
5, 266155, Note_off_c, 3, 36, 64
5, 266160, Note_on_c, 3, 36, 90
5, 266395, Note_off_c, 3, 36, 64
5, 266400, Note_on_c, 3, 36, 90
5, 266635, Note_off_c, 3, 36, 64
5, 266640, Note_on_c, 3, 36, 90
5, 266875, Note_off_c, 3, 36, 64
5, 266875, End_track
6, 0, Start_track
6, 0, Title_t, "PERSUSSION"
6, 0, MIDI_port, 0
6, 0, Channel_prefix, 9
6, 0, Control_c, 9, 7, 127
6, 0, Control_c, 9, 10, 64
6, 1920, Control_c, 9, 91, 127
6, 1920, Note_on_c, 9, 36, 120
6, 1920, Note_on_c, 9, 49, 120
6, 2160, Note_off_c, 9, 49, 80
6, 2160, Note_off_c, 9, 36, 80
6, 4080, Note_on_c, 9, 55, 120
6, 4080, Note_on_c, 9, 36, 120
6, 4320, Note_off_c, 9, 36, 80
6, 4320, Note_off_c, 9, 55, 80
6, 4560, Note_on_c, 9, 55, 120
6, 4560, Note_on_c, 9, 36, 120
6, 4800, Note_off_c, 9, 36, 80
6, 4800, Note_off_c, 9, 55, 80
6, 5760, Note_on_c, 9, 36, 120
6, 5760, Note_on_c, 9, 49, 120
6, 6000, Note_off_c, 9, 49, 80
6, 6000, Note_off_c, 9, 36, 80
6, 7920, Note_on_c, 9, 55, 120
6, 7920, Note_on_c, 9, 50, 120
6, 7920, Note_on_c, 9, 36, 120
6, 7920, Note_on_c, 9, 40, 127
6, 8160, Note_off_c, 9, 40, 80
6, 8160, Note_off_c, 9, 36, 80
6, 8160, Note_off_c, 9, 50, 80
6, 8160, Note_off_c, 9, 55, 80
6, 8880, Note_on_c, 9, 55, 120
6, 8880, Note_on_c, 9, 50, 120
6, 8880, Note_on_c, 9, 36, 120
6, 8880, Note_on_c, 9, 40, 127
6, 9120, Note_off_c, 9, 40, 80
6, 9120, Note_off_c, 9, 36, 80
6, 9120, Note_off_c, 9, 50, 80
6, 9120, Note_off_c, 9, 55, 80
6, 9600, Note_on_c, 9, 36, 120
6, 9600, Note_on_c, 9, 49, 120
6, 9840, Note_off_c, 9, 49, 80
6, 9840, Note_off_c, 9, 36, 80
6, 13440, Note_on_c, 9, 36, 120
6, 13440, Note_on_c, 9, 49, 120
6, 13680, Note_off_c, 9, 49, 80
6, 13680, Note_off_c, 9, 36, 80
6, 17280, Note_on_c, 9, 55, 120
6, 17280, Note_on_c, 9, 42, 120
6, 17280, Note_on_c, 9, 36, 120
6, 17520, Note_off_c, 9, 36, 80
6, 17520, Note_off_c, 9, 42, 80
6, 17520, Note_off_c, 9, 55, 80
6, 17520, Note_on_c, 9, 42, 120
6, 17760, Note_off_c, 9, 42, 80
6, 17760, Note_on_c, 9, 42, 120
6, 18000, Note_off_c, 9, 42, 80
6, 18000, Note_on_c, 9, 42, 120
6, 18240, Note_off_c, 9, 42, 80
6, 18240, Note_on_c, 9, 42, 120
6, 18240, Note_on_c, 9, 36, 120
6, 18240, Note_on_c, 9, 49, 120
6, 18480, Note_off_c, 9, 49, 80
6, 18480, Note_off_c, 9, 36, 80
6, 18480, Note_off_c, 9, 42, 80
6, 18480, Note_on_c, 9, 42, 120
6, 18720, Note_off_c, 9, 42, 80
6, 18720, Note_on_c, 9, 42, 120
6, 18720, Note_on_c, 9, 46, 120
6, 18960, Note_off_c, 9, 46, 80
6, 18960, Note_off_c, 9, 42, 80
6, 18960, Note_on_c, 9, 42, 120
6, 19200, Note_off_c, 9, 42, 80
6, 19200, Note_on_c, 9, 42, 120
6, 19440, Note_off_c, 9, 42, 80
6, 19440, Note_on_c, 9, 55, 120
6, 19440, Note_on_c, 9, 42, 120
6, 19440, Note_on_c, 9, 36, 120
6, 19680, Note_off_c, 9, 36, 80
6, 19680, Note_off_c, 9, 42, 80
6, 19680, Note_off_c, 9, 55, 80
6, 19680, Note_on_c, 9, 42, 120
6, 19920, Note_off_c, 9, 42, 80
6, 19920, Note_on_c, 9, 42, 120
6, 19920, Note_on_c, 9, 36, 120
6, 19920, Note_on_c, 9, 46, 120
6, 20160, Note_off_c, 9, 46, 80
6, 20160, Note_off_c, 9, 36, 80
6, 20160, Note_off_c, 9, 42, 80
6, 20160, Note_on_c, 9, 42, 120
6, 20400, Note_off_c, 9, 42, 80
6, 20400, Note_on_c, 9, 40, 120
6, 20400, Note_on_c, 9, 42, 120
6, 20640, Note_off_c, 9, 42, 80
6, 20640, Note_off_c, 9, 40, 80
6, 20640, Note_on_c, 9, 42, 120
6, 20880, Note_off_c, 9, 42, 80
6, 20880, Note_on_c, 9, 40, 120
6, 20880, Note_on_c, 9, 42, 120
6, 21120, Note_off_c, 9, 42, 80
6, 21120, Note_off_c, 9, 40, 80
6, 21120, Note_on_c, 9, 55, 120
6, 21120, Note_on_c, 9, 42, 120
6, 21120, Note_on_c, 9, 36, 120
6, 21360, Note_off_c, 9, 36, 80
6, 21360, Note_off_c, 9, 42, 80
6, 21360, Note_off_c, 9, 55, 80
6, 21360, Note_on_c, 9, 42, 120
6, 21600, Note_off_c, 9, 42, 80
6, 21600, Note_on_c, 9, 42, 120
6, 21840, Note_off_c, 9, 42, 80
6, 21840, Note_on_c, 9, 42, 120
6, 22080, Note_off_c, 9, 42, 80
6, 22080, Note_on_c, 9, 55, 120
6, 22080, Note_on_c, 9, 42, 120
6, 22080, Note_on_c, 9, 36, 120
6, 22320, Note_off_c, 9, 36, 80
6, 22320, Note_off_c, 9, 42, 80
6, 22320, Note_off_c, 9, 55, 80
6, 22320, Note_on_c, 9, 42, 120
6, 22560, Note_off_c, 9, 42, 80
6, 22560, Note_on_c, 9, 42, 120
6, 22560, Note_on_c, 9, 46, 120
6, 22800, Note_off_c, 9, 46, 80
6, 22800, Note_off_c, 9, 42, 80
6, 22800, Note_on_c, 9, 42, 120
6, 23040, Note_off_c, 9, 42, 80
6, 23040, Note_on_c, 9, 42, 120
6, 23280, Note_off_c, 9, 42, 80
6, 23280, Note_on_c, 9, 55, 120
6, 23280, Note_on_c, 9, 42, 120
6, 23280, Note_on_c, 9, 36, 120
6, 23520, Note_off_c, 9, 36, 80
6, 23520, Note_off_c, 9, 42, 80
6, 23520, Note_off_c, 9, 55, 80
6, 23520, Note_on_c, 9, 42, 120
6, 23760, Note_off_c, 9, 42, 80
6, 23760, Note_on_c, 9, 55, 120
6, 23760, Note_on_c, 9, 42, 120
6, 23760, Note_on_c, 9, 36, 120
6, 24000, Note_off_c, 9, 36, 80
6, 24000, Note_off_c, 9, 42, 80
6, 24000, Note_off_c, 9, 55, 80
6, 24000, Control_c, 9, 10, 0
6, 24000, Note_on_c, 9, 42, 120
6, 24000, Note_on_c, 9, 50, 120
6, 24240, Note_off_c, 9, 50, 80
6, 24240, Note_off_c, 9, 42, 80
6, 24240, Note_on_c, 9, 42, 120
6, 24240, Note_on_c, 9, 48, 120
6, 24480, Note_off_c, 9, 48, 80
6, 24480, Note_off_c, 9, 42, 80
6, 24480, Control_c, 9, 10, 127
6, 24480, Note_on_c, 9, 42, 120
6, 24480, Note_on_c, 9, 47, 120
6, 24720, Note_off_c, 9, 47, 80
6, 24720, Note_off_c, 9, 42, 80
6, 24720, Note_on_c, 9, 42, 120
6, 24720, Note_on_c, 9, 45, 120
6, 24960, Note_off_c, 9, 45, 80
6, 24960, Note_off_c, 9, 42, 80
6, 24960, Control_c, 9, 10, 64
6, 24960, Note_on_c, 9, 55, 120
6, 24960, Note_on_c, 9, 42, 120
6, 24960, Note_on_c, 9, 36, 120
6, 25200, Note_off_c, 9, 36, 80
6, 25200, Note_off_c, 9, 42, 80
6, 25200, Note_off_c, 9, 55, 80
6, 25200, Note_on_c, 9, 42, 120
6, 25440, Note_off_c, 9, 42, 80
6, 25440, Note_on_c, 9, 42, 120
6, 25680, Note_off_c, 9, 42, 80
6, 25680, Note_on_c, 9, 42, 120
6, 25920, Note_off_c, 9, 42, 80
6, 25920, Note_on_c, 9, 55, 120
6, 25920, Note_on_c, 9, 42, 120
6, 25920, Note_on_c, 9, 36, 120
6, 26160, Note_off_c, 9, 36, 80
6, 26160, Note_off_c, 9, 42, 80
6, 26160, Note_off_c, 9, 55, 80
6, 26160, Note_on_c, 9, 42, 120
6, 26400, Note_off_c, 9, 42, 80
6, 26400, Note_on_c, 9, 42, 120
6, 26640, Note_off_c, 9, 42, 80
6, 26640, Note_on_c, 9, 42, 120
6, 26880, Note_off_c, 9, 42, 80
6, 26880, Note_on_c, 9, 42, 120
6, 27120, Note_off_c, 9, 42, 80
6, 27120, Note_on_c, 9, 42, 120
6, 27360, Note_off_c, 9, 42, 80
6, 27360, Note_on_c, 9, 42, 120
6, 27360, Note_on_c, 9, 55, 120
6, 27360, Note_on_c, 9, 36, 120
6, 27600, Note_off_c, 9, 36, 80
6, 27600, Note_off_c, 9, 55, 80
6, 27600, Note_off_c, 9, 42, 80
6, 27600, Note_on_c, 9, 40, 120
6, 27600, Note_on_c, 9, 42, 120
6, 27600, Note_on_c, 9, 50, 120
6, 27840, Note_off_c, 9, 50, 80
6, 27840, Note_off_c, 9, 42, 80
6, 27840, Note_off_c, 9, 40, 80
6, 27840, Note_on_c, 9, 40, 120
6, 27840, Note_on_c, 9, 42, 120
6, 27840, Note_on_c, 9, 50, 120
6, 28080, Note_off_c, 9, 50, 80
6, 28080, Note_off_c, 9, 42, 80
6, 28080, Note_off_c, 9, 40, 80
6, 28080, Note_on_c, 9, 40, 120
6, 28080, Note_on_c, 9, 42, 120
6, 28080, Note_on_c, 9, 47, 120
6, 28320, Note_off_c, 9, 47, 80
6, 28320, Note_off_c, 9, 42, 80
6, 28320, Note_off_c, 9, 40, 80
6, 28320, Note_on_c, 9, 42, 120
6, 28320, Note_on_c, 9, 40, 120
6, 28320, Note_on_c, 9, 47, 120
6, 28560, Note_off_c, 9, 47, 80
6, 28560, Note_off_c, 9, 40, 80
6, 28560, Note_off_c, 9, 42, 80
6, 28560, Note_on_c, 9, 42, 120
6, 28560, Note_on_c, 9, 40, 120
6, 28560, Note_on_c, 9, 47, 120
6, 28800, Note_off_c, 9, 47, 80
6, 28800, Note_off_c, 9, 40, 80
6, 28800, Note_off_c, 9, 42, 80
6, 28800, Note_on_c, 9, 42, 120
6, 29040, Note_off_c, 9, 42, 80
6, 29040, Note_on_c, 9, 55, 120
6, 29040, Note_on_c, 9, 42, 120
6, 29040, Note_on_c, 9, 36, 120
6, 29280, Note_off_c, 9, 36, 80
6, 29280, Note_off_c, 9, 42, 80
6, 29280, Note_off_c, 9, 55, 80
6, 29280, Note_on_c, 9, 42, 120
6, 29520, Note_off_c, 9, 42, 80
6, 29520, Note_on_c, 9, 42, 120
6, 29520, Note_on_c, 9, 40, 120
6, 29520, Note_on_c, 9, 50, 120
6, 29760, Note_off_c, 9, 50, 80
6, 29760, Note_off_c, 9, 40, 80
6, 29760, Note_off_c, 9, 42, 80
6, 29760, Note_on_c, 9, 42, 120
6, 30000, Note_off_c, 9, 42, 80
6, 30000, Note_on_c, 9, 42, 120
6, 30000, Note_on_c, 9, 40, 120
6, 30000, Note_on_c, 9, 50, 120
6, 30240, Note_off_c, 9, 50, 80
6, 30240, Note_off_c, 9, 40, 80
6, 30240, Note_off_c, 9, 42, 80
6, 30240, Note_on_c, 9, 42, 120
6, 30480, Note_off_c, 9, 42, 80
6, 30480, Note_on_c, 9, 42, 120
6, 30480, Note_on_c, 9, 40, 120
6, 30480, Note_on_c, 9, 50, 120
6, 30720, Note_off_c, 9, 50, 80
6, 30720, Note_off_c, 9, 40, 80
6, 30720, Note_off_c, 9, 42, 80
6, 30720, Note_on_c, 9, 36, 120
6, 30720, Note_on_c, 9, 49, 120
6, 30720, Note_on_c, 9, 46, 120
6, 30960, Note_off_c, 9, 46, 80
6, 30960, Note_off_c, 9, 49, 80
6, 30960, Note_off_c, 9, 36, 80
6, 31920, Note_on_c, 9, 50, 120
6, 32160, Note_off_c, 9, 50, 80
6, 32160, Note_on_c, 9, 37, 120
6, 32400, Note_off_c, 9, 37, 80
6, 32400, Note_on_c, 9, 50, 120
6, 32640, Note_off_c, 9, 50, 80
6, 32640, Note_on_c, 9, 55, 120
6, 32640, Note_on_c, 9, 50, 120
6, 32640, Note_on_c, 9, 42, 120
6, 32640, Note_on_c, 9, 36, 120
6, 32880, Note_off_c, 9, 36, 80
6, 32880, Note_off_c, 9, 42, 80
6, 32880, Note_off_c, 9, 50, 80
6, 32880, Note_off_c, 9, 55, 80
6, 32880, Note_on_c, 9, 48, 120
6, 32880, Note_on_c, 9, 42, 120
6, 33120, Note_off_c, 9, 42, 80
6, 33120, Note_off_c, 9, 48, 80
6, 33120, Note_on_c, 9, 42, 120
6, 33360, Note_off_c, 9, 42, 80
6, 33360, Note_on_c, 9, 48, 120
6, 33360, Note_on_c, 9, 42, 120
6, 33600, Note_off_c, 9, 42, 80
6, 33600, Note_off_c, 9, 48, 80
6, 33600, Note_on_c, 9, 55, 120
6, 33600, Note_on_c, 9, 50, 120
6, 33600, Note_on_c, 9, 42, 120
6, 33600, Note_on_c, 9, 36, 120
6, 33840, Note_off_c, 9, 36, 80
6, 33840, Note_off_c, 9, 42, 80
6, 33840, Note_off_c, 9, 50, 80
6, 33840, Note_off_c, 9, 55, 80
6, 33840, Note_on_c, 9, 42, 120
6, 34080, Note_off_c, 9, 42, 80
6, 34080, Note_on_c, 9, 42, 120
6, 34320, Note_off_c, 9, 42, 80
6, 34320, Note_on_c, 9, 42, 120
6, 34560, Note_off_c, 9, 42, 80
6, 34560, Note_on_c, 9, 42, 120
6, 34800, Note_off_c, 9, 42, 80
6, 34800, Note_on_c, 9, 55, 120
6, 34800, Note_on_c, 9, 42, 120
6, 34800, Note_on_c, 9, 36, 120
6, 35040, Note_off_c, 9, 36, 80
6, 35040, Note_off_c, 9, 42, 80
6, 35040, Note_off_c, 9, 55, 80
6, 35040, Note_on_c, 9, 42, 120
6, 35280, Note_off_c, 9, 42, 80
6, 35280, Note_on_c, 9, 42, 120
6, 35280, Note_on_c, 9, 40, 120
6, 35280, Note_on_c, 9, 55, 120
6, 35280, Note_on_c, 9, 36, 120
6, 35520, Note_off_c, 9, 36, 80
6, 35520, Note_off_c, 9, 55, 80
6, 35520, Note_off_c, 9, 40, 80
6, 35520, Note_off_c, 9, 42, 80
6, 35520, Note_on_c, 9, 42, 120
6, 35760, Note_off_c, 9, 42, 80
6, 35760, Note_on_c, 9, 42, 120
6, 35760, Note_on_c, 9, 40, 120
6, 36000, Note_off_c, 9, 40, 80
6, 36000, Note_off_c, 9, 42, 80
6, 36000, Note_on_c, 9, 42, 120
6, 36240, Note_off_c, 9, 42, 80
6, 36240, Note_on_c, 9, 42, 120
6, 36240, Note_on_c, 9, 40, 120
6, 36480, Note_off_c, 9, 40, 80
6, 36480, Note_off_c, 9, 42, 80
6, 36480, Note_on_c, 9, 55, 120
6, 36480, Note_on_c, 9, 42, 120
6, 36480, Note_on_c, 9, 36, 120
6, 36720, Note_off_c, 9, 36, 80
6, 36720, Note_off_c, 9, 42, 80
6, 36720, Note_off_c, 9, 55, 80
6, 36720, Note_on_c, 9, 42, 120
6, 36960, Note_off_c, 9, 42, 80
6, 36960, Note_on_c, 9, 42, 120
6, 37200, Note_off_c, 9, 42, 80
6, 37200, Note_on_c, 9, 42, 120
6, 37440, Note_off_c, 9, 42, 80
6, 37440, Note_on_c, 9, 55, 120
6, 37440, Note_on_c, 9, 42, 120
6, 37440, Note_on_c, 9, 36, 120
6, 37680, Note_off_c, 9, 36, 80
6, 37680, Note_off_c, 9, 42, 80
6, 37680, Note_off_c, 9, 55, 80
6, 37680, Note_on_c, 9, 42, 120
6, 37680, Note_on_c, 9, 40, 120
6, 37920, Note_off_c, 9, 40, 80
6, 37920, Note_off_c, 9, 42, 80
6, 37920, Note_on_c, 9, 40, 120
6, 38160, Note_off_c, 9, 40, 80
6, 38160, Note_on_c, 9, 42, 120
6, 38160, Note_on_c, 9, 40, 120
6, 38400, Note_off_c, 9, 40, 80
6, 38400, Note_off_c, 9, 42, 80
6, 38400, Note_on_c, 9, 42, 120
6, 38640, Note_off_c, 9, 42, 80
6, 38640, Note_on_c, 9, 55, 120
6, 38640, Note_on_c, 9, 42, 120
6, 38640, Note_on_c, 9, 36, 120
6, 38880, Note_off_c, 9, 36, 80
6, 38880, Note_off_c, 9, 42, 80
6, 38880, Note_off_c, 9, 55, 80
6, 38880, Note_on_c, 9, 42, 120
6, 39120, Note_off_c, 9, 42, 80
6, 39120, Note_on_c, 9, 42, 120
6, 39120, Note_on_c, 9, 55, 120
6, 39120, Note_on_c, 9, 36, 120
6, 39360, Note_off_c, 9, 36, 80
6, 39360, Note_off_c, 9, 55, 80
6, 39360, Note_off_c, 9, 42, 80
6, 39360, Note_on_c, 9, 42, 120
6, 39360, Note_on_c, 9, 42, 120
6, 39600, Note_off_c, 9, 42, 80
6, 39600, Note_off_c, 9, 42, 80
6, 39600, Note_on_c, 9, 42, 120
6, 39600, Note_on_c, 9, 40, 120
6, 39720, Note_off_c, 9, 40, 80
6, 39720, Note_on_c, 9, 40, 120
6, 39840, Note_off_c, 9, 42, 80
6, 39840, Note_off_c, 9, 40, 80
6, 39840, Note_on_c, 9, 42, 120
6, 39840, Note_on_c, 9, 38, 120
6, 39960, Note_off_c, 9, 38, 80
6, 39960, Note_on_c, 9, 38, 120
6, 40080, Note_off_c, 9, 42, 80
6, 40080, Note_off_c, 9, 38, 80
6, 40080, Note_on_c, 9, 42, 120
6, 40080, Note_on_c, 9, 40, 120
6, 40200, Note_off_c, 9, 40, 80
6, 40200, Note_on_c, 9, 40, 120
6, 40320, Note_off_c, 9, 42, 80
6, 40320, Note_off_c, 9, 40, 80
6, 40320, Note_on_c, 9, 42, 120
6, 40320, Note_on_c, 9, 36, 120
6, 40320, Note_on_c, 9, 49, 120
6, 40560, Note_off_c, 9, 49, 80
6, 40560, Note_off_c, 9, 36, 80
6, 40560, Note_off_c, 9, 42, 80
6, 40560, Note_on_c, 9, 42, 120
6, 40800, Note_off_c, 9, 42, 80
6, 40800, Note_on_c, 9, 42, 120
6, 41040, Note_off_c, 9, 42, 80
6, 41040, Note_on_c, 9, 42, 120
6, 41280, Note_off_c, 9, 42, 80
6, 41280, Note_on_c, 9, 42, 120
6, 41280, Note_on_c, 9, 36, 120
6, 41280, Note_on_c, 9, 49, 120
6, 41520, Note_off_c, 9, 49, 80
6, 41520, Note_off_c, 9, 36, 80
6, 41520, Note_off_c, 9, 42, 80
6, 41520, Note_on_c, 9, 42, 120
6, 41760, Note_off_c, 9, 42, 80
6, 41760, Note_on_c, 9, 42, 120
6, 42000, Note_off_c, 9, 42, 80
6, 42000, Note_on_c, 9, 42, 120
6, 42240, Note_off_c, 9, 42, 80
6, 42240, Note_on_c, 9, 42, 120
6, 42240, Note_on_c, 9, 36, 120
6, 42480, Note_off_c, 9, 36, 80
6, 42480, Note_off_c, 9, 42, 80
6, 42480, Note_on_c, 9, 42, 120
6, 42480, Note_on_c, 9, 36, 120
6, 42720, Note_off_c, 9, 36, 80
6, 42720, Note_off_c, 9, 42, 80
6, 42720, Note_on_c, 9, 42, 120
6, 42720, Note_on_c, 9, 36, 120
6, 42960, Note_off_c, 9, 36, 80
6, 42960, Note_off_c, 9, 42, 80
6, 42960, Note_on_c, 9, 42, 120
6, 42960, Note_on_c, 9, 36, 120
6, 43200, Note_off_c, 9, 36, 80
6, 43200, Note_off_c, 9, 42, 80
6, 43200, Note_on_c, 9, 42, 120
6, 43200, Note_on_c, 9, 36, 120
6, 43440, Note_off_c, 9, 36, 80
6, 43440, Note_off_c, 9, 42, 80
6, 43440, Note_on_c, 9, 42, 120
6, 43440, Note_on_c, 9, 36, 120
6, 43680, Note_off_c, 9, 36, 80
6, 43680, Note_off_c, 9, 42, 80
6, 43680, Note_on_c, 9, 42, 120
6, 43680, Note_on_c, 9, 36, 120
6, 43920, Note_off_c, 9, 36, 80
6, 43920, Note_off_c, 9, 42, 80
6, 43920, Note_on_c, 9, 42, 120
6, 43920, Note_on_c, 9, 36, 120
6, 44160, Note_off_c, 9, 36, 80
6, 44160, Note_off_c, 9, 42, 80
6, 44160, Note_on_c, 9, 42, 120
6, 44160, Note_on_c, 9, 36, 120
6, 44400, Note_off_c, 9, 36, 80
6, 44400, Note_off_c, 9, 42, 80
6, 44400, Note_on_c, 9, 42, 120
6, 44400, Note_on_c, 9, 36, 120
6, 44640, Note_off_c, 9, 36, 80
6, 44640, Note_off_c, 9, 42, 80
6, 44640, Note_on_c, 9, 42, 120
6, 44640, Note_on_c, 9, 36, 120
6, 44880, Note_off_c, 9, 36, 80
6, 44880, Note_off_c, 9, 42, 80
6, 44880, Note_on_c, 9, 42, 120
6, 44880, Note_on_c, 9, 36, 120
6, 45120, Note_off_c, 9, 36, 80
6, 45120, Note_off_c, 9, 42, 80
6, 45120, Note_on_c, 9, 42, 120
6, 45120, Note_on_c, 9, 36, 120
6, 45360, Note_off_c, 9, 36, 80
6, 45360, Note_off_c, 9, 42, 80
6, 45360, Note_on_c, 9, 42, 120
6, 45360, Note_on_c, 9, 36, 120
6, 45600, Note_off_c, 9, 36, 80
6, 45600, Note_off_c, 9, 42, 80
6, 45600, Note_on_c, 9, 42, 120
6, 45600, Note_on_c, 9, 36, 120
6, 45840, Note_off_c, 9, 36, 80
6, 45840, Note_off_c, 9, 42, 80
6, 45840, Note_on_c, 9, 42, 120
6, 45840, Note_on_c, 9, 36, 120
6, 46080, Note_off_c, 9, 36, 80
6, 46080, Note_off_c, 9, 42, 80
6, 46080, Note_on_c, 9, 36, 120
6, 46080, Note_on_c, 9, 49, 120
6, 46320, Note_off_c, 9, 49, 80
6, 46320, Note_off_c, 9, 36, 80
6, 48000, Note_on_c, 9, 40, 120
6, 48000, Note_on_c, 9, 36, 120
6, 48240, Note_off_c, 9, 36, 80
6, 48240, Note_off_c, 9, 40, 80
6, 48960, Note_on_c, 9, 36, 120
6, 48960, Note_on_c, 9, 49, 120
6, 49200, Note_off_c, 9, 49, 80
6, 49200, Note_off_c, 9, 36, 80
6, 49920, Note_on_c, 9, 40, 120
6, 49920, Note_on_c, 9, 36, 120
6, 50160, Note_off_c, 9, 36, 80
6, 50160, Note_off_c, 9, 40, 80
6, 50880, Note_on_c, 9, 36, 120
6, 50880, Note_on_c, 9, 49, 120
6, 51120, Note_off_c, 9, 49, 80
6, 51120, Note_off_c, 9, 36, 80
6, 51840, Note_on_c, 9, 40, 120
6, 51840, Note_on_c, 9, 36, 120
6, 52080, Note_off_c, 9, 36, 80
6, 52080, Note_off_c, 9, 40, 80
6, 52800, Note_on_c, 9, 36, 120
6, 52800, Note_on_c, 9, 49, 120
6, 53040, Note_off_c, 9, 49, 80
6, 53040, Note_off_c, 9, 36, 80
6, 53760, Note_on_c, 9, 40, 120
6, 53760, Note_on_c, 9, 36, 120
6, 54000, Note_off_c, 9, 36, 80
6, 54000, Note_off_c, 9, 40, 80
6, 54480, Note_on_c, 9, 38, 120
6, 54720, Note_off_c, 9, 38, 80
6, 54720, Control_c, 9, 10, 0
6, 54720, Note_on_c, 9, 38, 120
6, 54720, Note_on_c, 9, 49, 120
6, 54960, Note_off_c, 9, 49, 80
6, 54960, Note_off_c, 9, 38, 80
6, 54960, Note_on_c, 9, 48, 120
6, 55080, Note_off_c, 9, 48, 80
6, 55080, Note_on_c, 9, 48, 120
6, 55200, Note_off_c, 9, 48, 80
6, 55200, Note_on_c, 9, 47, 120
6, 55320, Note_off_c, 9, 47, 80
6, 55320, Note_on_c, 9, 47, 120
6, 55440, Note_off_c, 9, 47, 80
6, 55440, Note_on_c, 9, 38, 120
6, 55560, Note_off_c, 9, 38, 80
6, 55560, Note_on_c, 9, 38, 120
6, 55680, Note_off_c, 9, 38, 80
6, 55680, Control_c, 9, 10, 64
6, 55680, Note_on_c, 9, 36, 120
6, 55680, Note_on_c, 9, 46, 120
6, 55920, Note_off_c, 9, 46, 80
6, 55920, Note_off_c, 9, 36, 80
6, 56400, Note_on_c, 9, 36, 120
6, 56640, Note_off_c, 9, 36, 80
6, 56640, Note_on_c, 9, 40, 120
6, 56640, Note_on_c, 9, 36, 120
6, 56640, Note_on_c, 9, 49, 120
6, 56880, Note_off_c, 9, 49, 80
6, 56880, Note_off_c, 9, 36, 80
6, 56880, Note_off_c, 9, 40, 80
6, 57600, Note_on_c, 9, 36, 120
6, 57600, Note_on_c, 9, 46, 120
6, 57840, Note_off_c, 9, 46, 80
6, 57840, Note_off_c, 9, 36, 80
6, 57840, Note_on_c, 9, 36, 120
6, 58080, Note_off_c, 9, 36, 80
6, 58320, Note_on_c, 9, 36, 120
6, 58560, Note_off_c, 9, 36, 80
6, 58560, Note_on_c, 9, 40, 120
6, 58560, Note_on_c, 9, 37, 120
6, 58560, Note_on_c, 9, 36, 120
6, 58560, Note_on_c, 9, 49, 120
6, 58800, Note_off_c, 9, 49, 80
6, 58800, Note_off_c, 9, 36, 80
6, 58800, Note_off_c, 9, 37, 80
6, 58800, Note_off_c, 9, 40, 80
6, 59520, Note_on_c, 9, 40, 120
6, 59520, Note_on_c, 9, 36, 120
6, 59520, Note_on_c, 9, 46, 120
6, 59760, Note_off_c, 9, 46, 80
6, 59760, Note_off_c, 9, 36, 80
6, 59760, Note_off_c, 9, 40, 80
6, 60240, Note_on_c, 9, 36, 120
6, 60480, Note_off_c, 9, 36, 80
6, 60480, Note_on_c, 9, 36, 120
6, 60480, Note_on_c, 9, 49, 120
6, 60720, Note_off_c, 9, 49, 80
6, 60720, Note_off_c, 9, 36, 80
6, 61440, Note_on_c, 9, 38, 120
6, 61440, Note_on_c, 9, 51, 120
6, 61440, Note_on_c, 9, 36, 120
6, 61680, Note_off_c, 9, 36, 80
6, 61680, Note_off_c, 9, 51, 80
6, 61680, Note_off_c, 9, 38, 80
6, 61680, Note_on_c, 9, 40, 120
6, 61920, Note_off_c, 9, 40, 80
6, 61920, Note_on_c, 9, 51, 120
6, 61920, Note_on_c, 9, 36, 120
6, 62160, Note_off_c, 9, 36, 80
6, 62160, Note_off_c, 9, 51, 80
6, 62640, Note_on_c, 9, 42, 120
6, 62640, Note_on_c, 9, 36, 120
6, 62640, Note_on_c, 9, 38, 120
6, 62760, Note_off_c, 9, 38, 80
6, 62760, Note_on_c, 9, 38, 120
6, 62880, Note_off_c, 9, 36, 80
6, 62880, Note_off_c, 9, 42, 80
6, 62880, Note_off_c, 9, 38, 80
6, 62880, Note_on_c, 9, 40, 120
6, 62880, Note_on_c, 9, 36, 120
6, 62880, Note_on_c, 9, 49, 120
6, 63120, Note_off_c, 9, 49, 80
6, 63120, Note_off_c, 9, 36, 80
6, 63120, Note_off_c, 9, 40, 80
6, 63360, Note_on_c, 9, 42, 120
6, 63360, Note_on_c, 9, 36, 120
6, 63600, Note_off_c, 9, 36, 80
6, 63600, Note_off_c, 9, 42, 80
6, 64320, Note_on_c, 9, 49, 120
6, 64320, Note_on_c, 9, 36, 120
6, 64560, Note_off_c, 9, 36, 80
6, 64560, Note_off_c, 9, 49, 80
6, 65280, Note_on_c, 9, 36, 120
6, 65280, Note_on_c, 9, 42, 120
6, 65520, Note_off_c, 9, 42, 80
6, 65520, Note_off_c, 9, 36, 80
6, 65520, Note_on_c, 9, 36, 120
6, 65760, Note_off_c, 9, 36, 80
6, 66000, Note_on_c, 9, 36, 120
6, 66240, Note_off_c, 9, 36, 80
6, 66240, Note_on_c, 9, 36, 120
6, 66240, Note_on_c, 9, 49, 120
6, 66240, Note_on_c, 9, 40, 120
6, 66480, Note_off_c, 9, 40, 80
6, 66480, Note_off_c, 9, 49, 80
6, 66480, Note_off_c, 9, 36, 80
6, 67200, Note_on_c, 9, 36, 120
6, 67200, Note_on_c, 9, 42, 120
6, 67440, Note_off_c, 9, 42, 80
6, 67440, Note_off_c, 9, 36, 80
6, 68160, Note_on_c, 9, 36, 120
6, 68160, Note_on_c, 9, 49, 120
6, 68400, Note_off_c, 9, 49, 80
6, 68400, Note_off_c, 9, 36, 80
6, 69120, Note_on_c, 9, 36, 120
6, 69120, Note_on_c, 9, 42, 120
6, 69360, Note_off_c, 9, 42, 80
6, 69360, Note_off_c, 9, 36, 80
6, 69840, Note_on_c, 9, 38, 120
6, 69840, Note_on_c, 9, 36, 120
6, 70080, Note_off_c, 9, 36, 80
6, 70080, Note_off_c, 9, 38, 80
6, 70080, Note_on_c, 9, 38, 120
6, 70080, Note_on_c, 9, 36, 120
6, 70320, Note_off_c, 9, 36, 80
6, 70320, Note_off_c, 9, 38, 80
6, 70320, Note_on_c, 9, 38, 120
6, 70320, Note_on_c, 9, 36, 120
6, 70440, Note_off_c, 9, 38, 80
6, 70440, Note_on_c, 9, 38, 120
6, 70560, Note_off_c, 9, 36, 80
6, 70560, Note_off_c, 9, 38, 80
6, 70560, Note_on_c, 9, 38, 120
6, 70560, Note_on_c, 9, 36, 120
6, 70680, Note_off_c, 9, 38, 80
6, 70680, Note_on_c, 9, 38, 120
6, 70800, Note_off_c, 9, 36, 80
6, 70800, Note_off_c, 9, 38, 80
6, 70800, Note_on_c, 9, 38, 120
6, 70800, Note_on_c, 9, 36, 120
6, 70920, Note_off_c, 9, 38, 80
6, 70920, Note_on_c, 9, 38, 120
6, 71040, Note_off_c, 9, 36, 80
6, 71040, Note_off_c, 9, 38, 80
6, 71040, Note_on_c, 9, 36, 120
6, 71040, Note_on_c, 9, 49, 120
6, 71040, Note_on_c, 9, 42, 120
6, 71280, Note_off_c, 9, 42, 80
6, 71280, Note_off_c, 9, 49, 80
6, 71280, Note_off_c, 9, 36, 80
6, 71280, Note_on_c, 9, 36, 120
6, 71280, Note_on_c, 9, 42, 120
6, 71520, Note_off_c, 9, 42, 80
6, 71520, Note_off_c, 9, 36, 80
6, 71520, Note_on_c, 9, 36, 120
6, 71520, Note_on_c, 9, 42, 120
6, 71760, Note_off_c, 9, 42, 80
6, 71760, Note_off_c, 9, 36, 80
6, 71760, Note_on_c, 9, 36, 120
6, 71760, Note_on_c, 9, 42, 120
6, 72000, Note_off_c, 9, 42, 80
6, 72000, Note_off_c, 9, 36, 80
6, 72000, Note_on_c, 9, 36, 120
6, 72000, Note_on_c, 9, 42, 120
6, 72240, Note_off_c, 9, 42, 80
6, 72240, Note_off_c, 9, 36, 80
6, 72240, Note_on_c, 9, 36, 120
6, 72240, Note_on_c, 9, 42, 120
6, 72480, Note_off_c, 9, 42, 80
6, 72480, Note_off_c, 9, 36, 80
6, 72480, Note_on_c, 9, 36, 120
6, 72480, Note_on_c, 9, 42, 120
6, 72720, Note_off_c, 9, 42, 80
6, 72720, Note_off_c, 9, 36, 80
6, 72720, Note_on_c, 9, 36, 120
6, 72720, Note_on_c, 9, 42, 120
6, 72960, Note_off_c, 9, 42, 80
6, 72960, Note_off_c, 9, 36, 80
6, 72960, Note_on_c, 9, 36, 120
6, 72960, Note_on_c, 9, 42, 120
6, 73200, Note_off_c, 9, 42, 80
6, 73200, Note_off_c, 9, 36, 80
6, 73200, Note_on_c, 9, 36, 120
6, 73200, Note_on_c, 9, 42, 120
6, 73440, Note_off_c, 9, 42, 80
6, 73440, Note_off_c, 9, 36, 80
6, 73440, Note_on_c, 9, 36, 120
6, 73440, Note_on_c, 9, 42, 120
6, 73680, Note_off_c, 9, 42, 80
6, 73680, Note_off_c, 9, 36, 80
6, 73680, Note_on_c, 9, 36, 120
6, 73680, Note_on_c, 9, 42, 120
6, 73920, Note_off_c, 9, 42, 80
6, 73920, Note_off_c, 9, 36, 80
6, 73920, Note_on_c, 9, 36, 120
6, 73920, Note_on_c, 9, 42, 120
6, 74160, Note_off_c, 9, 42, 80
6, 74160, Note_off_c, 9, 36, 80
6, 74160, Note_on_c, 9, 36, 120
6, 74160, Note_on_c, 9, 42, 120
6, 74400, Note_off_c, 9, 42, 80
6, 74400, Note_off_c, 9, 36, 80
6, 74400, Note_on_c, 9, 36, 120
6, 74400, Note_on_c, 9, 42, 120
6, 74640, Note_off_c, 9, 42, 80
6, 74640, Note_off_c, 9, 36, 80
6, 74640, Note_on_c, 9, 36, 120
6, 74640, Note_on_c, 9, 42, 120
6, 74880, Note_off_c, 9, 42, 80
6, 74880, Note_off_c, 9, 36, 80
6, 74880, Note_on_c, 9, 36, 120
6, 74880, Note_on_c, 9, 49, 120
6, 75120, Note_off_c, 9, 49, 80
6, 75120, Note_off_c, 9, 36, 80
6, 75120, Note_on_c, 9, 36, 120
6, 75120, Note_on_c, 9, 46, 120
6, 75360, Note_off_c, 9, 46, 80
6, 75360, Note_off_c, 9, 36, 80
6, 75360, Note_on_c, 9, 36, 120
6, 75360, Note_on_c, 9, 46, 120
6, 75600, Note_off_c, 9, 46, 80
6, 75600, Note_off_c, 9, 36, 80
6, 75600, Note_on_c, 9, 36, 120
6, 75600, Note_on_c, 9, 46, 120
6, 75840, Note_off_c, 9, 46, 80
6, 75840, Note_off_c, 9, 36, 80
6, 75840, Note_on_c, 9, 36, 120
6, 75840, Note_on_c, 9, 46, 120
6, 76080, Note_off_c, 9, 46, 80
6, 76080, Note_off_c, 9, 36, 80
6, 76080, Note_on_c, 9, 36, 120
6, 76080, Note_on_c, 9, 46, 120
6, 76320, Note_off_c, 9, 46, 80
6, 76320, Note_off_c, 9, 36, 80
6, 76320, Note_on_c, 9, 36, 120
6, 76320, Note_on_c, 9, 46, 120
6, 76560, Note_off_c, 9, 46, 80
6, 76560, Note_off_c, 9, 36, 80
6, 76560, Note_on_c, 9, 36, 120
6, 76560, Note_on_c, 9, 46, 120
6, 76800, Note_off_c, 9, 46, 80
6, 76800, Note_off_c, 9, 36, 80
6, 76800, Note_on_c, 9, 36, 120
6, 76800, Note_on_c, 9, 46, 120
6, 77040, Note_off_c, 9, 46, 80
6, 77040, Note_off_c, 9, 36, 80
6, 77040, Note_on_c, 9, 36, 120
6, 77040, Note_on_c, 9, 46, 120
6, 77280, Note_off_c, 9, 46, 80
6, 77280, Note_off_c, 9, 36, 80
6, 77280, Note_on_c, 9, 36, 120
6, 77280, Note_on_c, 9, 46, 120
6, 77520, Note_off_c, 9, 46, 80
6, 77520, Note_off_c, 9, 36, 80
6, 77520, Note_on_c, 9, 36, 120
6, 77520, Note_on_c, 9, 46, 120
6, 77760, Note_off_c, 9, 46, 80
6, 77760, Note_off_c, 9, 36, 80
6, 77760, Note_on_c, 9, 36, 120
6, 77760, Note_on_c, 9, 46, 120
6, 78000, Note_off_c, 9, 46, 80
6, 78000, Note_off_c, 9, 36, 80
6, 78000, Note_on_c, 9, 36, 120
6, 78000, Note_on_c, 9, 46, 120
6, 78240, Note_off_c, 9, 46, 80
6, 78240, Note_off_c, 9, 36, 80
6, 78240, Note_on_c, 9, 36, 120
6, 78240, Note_on_c, 9, 46, 120
6, 78480, Note_off_c, 9, 46, 80
6, 78480, Note_off_c, 9, 36, 80
6, 78480, Note_on_c, 9, 36, 120
6, 78480, Note_on_c, 9, 46, 120
6, 78720, Note_off_c, 9, 46, 80
6, 78720, Note_off_c, 9, 36, 80
6, 78720, Note_on_c, 9, 36, 120
6, 78720, Note_on_c, 9, 49, 120
6, 78960, Note_off_c, 9, 49, 80
6, 78960, Note_off_c, 9, 36, 80
6, 80880, Note_on_c, 9, 55, 120
6, 80880, Note_on_c, 9, 36, 120
6, 81120, Note_off_c, 9, 36, 80
6, 81120, Note_off_c, 9, 55, 80
6, 81360, Note_on_c, 9, 55, 120
6, 81360, Note_on_c, 9, 36, 120
6, 81600, Note_off_c, 9, 36, 80
6, 81600, Note_off_c, 9, 55, 80
6, 82560, Note_on_c, 9, 36, 120
6, 82560, Note_on_c, 9, 49, 120
6, 82800, Note_off_c, 9, 49, 80
6, 82800, Note_off_c, 9, 36, 80
6, 84720, Note_on_c, 9, 55, 120
6, 84720, Note_on_c, 9, 50, 120
6, 84720, Note_on_c, 9, 36, 120
6, 84720, Note_on_c, 9, 40, 127
6, 84960, Note_off_c, 9, 40, 80
6, 84960, Note_off_c, 9, 36, 80
6, 84960, Note_off_c, 9, 50, 80
6, 84960, Note_off_c, 9, 55, 80
6, 85680, Note_on_c, 9, 55, 120
6, 85680, Note_on_c, 9, 50, 120
6, 85680, Note_on_c, 9, 36, 120
6, 85680, Note_on_c, 9, 40, 127
6, 85920, Note_off_c, 9, 40, 80
6, 85920, Note_off_c, 9, 36, 80
6, 85920, Note_off_c, 9, 50, 80
6, 85920, Note_off_c, 9, 55, 80
6, 86400, Note_on_c, 9, 36, 120
6, 86400, Note_on_c, 9, 49, 120
6, 86640, Note_off_c, 9, 49, 80
6, 86640, Note_off_c, 9, 36, 80
6, 90240, Note_on_c, 9, 36, 120
6, 90240, Note_on_c, 9, 49, 120
6, 90480, Note_off_c, 9, 49, 80
6, 90480, Note_off_c, 9, 36, 80
6, 93120, Control_c, 9, 10, 0
6, 93120, Note_on_c, 9, 48, 120
6, 93240, Note_off_c, 9, 48, 80
6, 93240, Note_on_c, 9, 48, 120
6, 93360, Note_off_c, 9, 48, 80
6, 93360, Note_on_c, 9, 47, 120
6, 93480, Note_off_c, 9, 47, 80
6, 93480, Note_on_c, 9, 47, 120
6, 93600, Note_off_c, 9, 47, 80
6, 93600, Note_on_c, 9, 45, 120
6, 93720, Note_off_c, 9, 45, 80
6, 93720, Note_on_c, 9, 45, 120
6, 93840, Note_off_c, 9, 45, 80
6, 93840, Note_on_c, 9, 45, 120
6, 93960, Note_off_c, 9, 45, 80
6, 93960, Note_on_c, 9, 45, 120
6, 94080, Note_off_c, 9, 45, 80
6, 94080, Control_c, 9, 10, 64
6, 94080, Note_on_c, 9, 55, 120
6, 94080, Note_on_c, 9, 42, 120
6, 94080, Note_on_c, 9, 36, 120
6, 94080, Note_on_c, 9, 36, 120
6, 94080, Note_on_c, 9, 49, 120
6, 94320, Note_off_c, 9, 49, 80
6, 94320, Note_off_c, 9, 36, 80
6, 94320, Note_off_c, 9, 36, 80
6, 94320, Note_off_c, 9, 42, 80
6, 94320, Note_off_c, 9, 55, 80
6, 94320, Note_on_c, 9, 42, 120
6, 94560, Note_off_c, 9, 42, 80
6, 94560, Note_on_c, 9, 42, 120
6, 94800, Note_off_c, 9, 42, 80
6, 94800, Note_on_c, 9, 36, 120
6, 94800, Note_on_c, 9, 42, 120
6, 95040, Note_off_c, 9, 42, 80
6, 95040, Note_off_c, 9, 36, 80
6, 95040, Note_on_c, 9, 36, 120
6, 95040, Note_on_c, 9, 40, 120
6, 95040, Note_on_c, 9, 55, 120
6, 95040, Note_on_c, 9, 42, 120
6, 95280, Note_off_c, 9, 42, 80
6, 95280, Note_off_c, 9, 55, 80
6, 95280, Note_off_c, 9, 40, 80
6, 95280, Note_off_c, 9, 36, 80
6, 95280, Note_on_c, 9, 42, 120
6, 95520, Note_off_c, 9, 42, 80
6, 95520, Note_on_c, 9, 42, 120
6, 95760, Note_off_c, 9, 42, 80
6, 95760, Note_on_c, 9, 42, 120
6, 96000, Note_off_c, 9, 42, 80
6, 96000, Note_on_c, 9, 36, 120
6, 96000, Note_on_c, 9, 42, 120
6, 96240, Note_off_c, 9, 42, 80
6, 96240, Note_off_c, 9, 36, 80
6, 96240, Note_on_c, 9, 36, 120
6, 96240, Note_on_c, 9, 55, 120
6, 96240, Note_on_c, 9, 42, 120
6, 96480, Note_off_c, 9, 42, 80
6, 96480, Note_off_c, 9, 55, 80
6, 96480, Note_off_c, 9, 36, 80
6, 96480, Note_on_c, 9, 42, 120
6, 96720, Note_off_c, 9, 42, 80
6, 96720, Note_on_c, 9, 36, 120
6, 96720, Note_on_c, 9, 42, 120
6, 96960, Note_off_c, 9, 42, 80
6, 96960, Note_off_c, 9, 36, 80
6, 96960, Note_on_c, 9, 36, 120
6, 96960, Note_on_c, 9, 40, 120
6, 96960, Note_on_c, 9, 55, 120
6, 96960, Note_on_c, 9, 42, 120
6, 97200, Note_off_c, 9, 42, 80
6, 97200, Note_off_c, 9, 55, 80
6, 97200, Note_off_c, 9, 40, 80
6, 97200, Note_off_c, 9, 36, 80
6, 97200, Note_on_c, 9, 42, 120
6, 97440, Note_off_c, 9, 42, 80
6, 97440, Note_on_c, 9, 42, 120
6, 97680, Note_off_c, 9, 42, 80
6, 97680, Note_on_c, 9, 42, 120
6, 97920, Note_off_c, 9, 42, 80
6, 97920, Note_on_c, 9, 36, 120
6, 97920, Note_on_c, 9, 55, 120
6, 97920, Note_on_c, 9, 42, 120
6, 98160, Note_off_c, 9, 42, 80
6, 98160, Note_off_c, 9, 55, 80
6, 98160, Note_off_c, 9, 36, 80
6, 98160, Note_on_c, 9, 42, 120
6, 98400, Note_off_c, 9, 42, 80
6, 98400, Note_on_c, 9, 42, 120
6, 98640, Note_off_c, 9, 42, 80
6, 98640, Note_on_c, 9, 36, 120
6, 98640, Note_on_c, 9, 42, 120
6, 98880, Note_off_c, 9, 42, 80
6, 98880, Note_off_c, 9, 36, 80
6, 98880, Note_on_c, 9, 36, 120
6, 98880, Note_on_c, 9, 40, 120
6, 98880, Note_on_c, 9, 55, 120
6, 98880, Note_on_c, 9, 42, 120
6, 99120, Note_off_c, 9, 42, 80
6, 99120, Note_off_c, 9, 55, 80
6, 99120, Note_off_c, 9, 40, 80
6, 99120, Note_off_c, 9, 36, 80
6, 99120, Note_on_c, 9, 42, 120
6, 99360, Note_off_c, 9, 42, 80
6, 99360, Note_on_c, 9, 42, 120
6, 99600, Note_off_c, 9, 42, 80
6, 99600, Note_on_c, 9, 42, 120
6, 99840, Note_off_c, 9, 42, 80
6, 99840, Note_on_c, 9, 36, 120
6, 99840, Note_on_c, 9, 55, 120
6, 99840, Note_on_c, 9, 42, 120
6, 100080, Note_off_c, 9, 42, 80
6, 100080, Note_off_c, 9, 55, 80
6, 100080, Note_off_c, 9, 36, 80
6, 100080, Note_on_c, 9, 36, 120
6, 100080, Note_on_c, 9, 42, 120
6, 100320, Note_off_c, 9, 42, 80
6, 100320, Note_off_c, 9, 36, 80
6, 100320, Note_on_c, 9, 42, 120
6, 100560, Note_off_c, 9, 42, 80
6, 100560, Note_on_c, 9, 36, 120
6, 100560, Note_on_c, 9, 42, 120
6, 100800, Note_off_c, 9, 42, 80
6, 100800, Note_off_c, 9, 36, 80
6, 100800, Note_on_c, 9, 36, 120
6, 100800, Note_on_c, 9, 40, 120
6, 100800, Note_on_c, 9, 55, 120
6, 100800, Note_on_c, 9, 42, 120
6, 101040, Note_off_c, 9, 42, 80
6, 101040, Note_off_c, 9, 55, 80
6, 101040, Note_off_c, 9, 40, 80
6, 101040, Note_off_c, 9, 36, 80
6, 101040, Note_on_c, 9, 42, 120
6, 101280, Note_off_c, 9, 42, 80
6, 101280, Note_on_c, 9, 42, 120
6, 101520, Note_off_c, 9, 42, 80
6, 101520, Note_on_c, 9, 42, 120
6, 101760, Note_off_c, 9, 42, 80
6, 101760, Note_on_c, 9, 36, 120
6, 101760, Note_on_c, 9, 42, 120
6, 102000, Note_off_c, 9, 42, 80
6, 102000, Note_off_c, 9, 36, 80
6, 102000, Note_on_c, 9, 36, 120
6, 102000, Note_on_c, 9, 55, 120
6, 102000, Note_on_c, 9, 42, 120
6, 102240, Note_off_c, 9, 42, 80
6, 102240, Note_off_c, 9, 55, 80
6, 102240, Note_off_c, 9, 36, 80
6, 102240, Note_on_c, 9, 42, 120
6, 102480, Note_off_c, 9, 42, 80
6, 102480, Note_on_c, 9, 36, 120
6, 102480, Note_on_c, 9, 42, 120
6, 102720, Note_off_c, 9, 42, 80
6, 102720, Note_off_c, 9, 36, 80
6, 102720, Note_on_c, 9, 36, 120
6, 102720, Note_on_c, 9, 55, 120
6, 102720, Note_on_c, 9, 42, 120
6, 102720, Note_on_c, 9, 40, 120
6, 102960, Note_off_c, 9, 40, 80
6, 102960, Note_off_c, 9, 42, 80
6, 102960, Note_off_c, 9, 55, 80
6, 102960, Note_off_c, 9, 36, 80
6, 102960, Note_on_c, 9, 42, 120
6, 103200, Note_off_c, 9, 42, 80
6, 103200, Note_on_c, 9, 42, 120
6, 103440, Note_off_c, 9, 42, 80
6, 103440, Note_on_c, 9, 42, 120
6, 103680, Note_off_c, 9, 42, 80
6, 103680, Note_on_c, 9, 36, 120
6, 103680, Note_on_c, 9, 42, 120
6, 103920, Note_off_c, 9, 42, 80
6, 103920, Note_off_c, 9, 36, 80
6, 103920, Note_on_c, 9, 36, 120
6, 103920, Note_on_c, 9, 55, 120
6, 103920, Note_on_c, 9, 42, 120
6, 104160, Note_off_c, 9, 42, 80
6, 104160, Note_off_c, 9, 55, 80
6, 104160, Note_off_c, 9, 36, 80
6, 104160, Note_on_c, 9, 42, 120
6, 104400, Note_off_c, 9, 42, 80
6, 104400, Note_on_c, 9, 36, 120
6, 104400, Note_on_c, 9, 42, 120
6, 104640, Note_off_c, 9, 42, 80
6, 104640, Note_off_c, 9, 36, 80
6, 104640, Note_on_c, 9, 36, 120
6, 104640, Note_on_c, 9, 55, 120
6, 104640, Note_on_c, 9, 40, 120
6, 104640, Note_on_c, 9, 42, 120
6, 104880, Note_off_c, 9, 42, 80
6, 104880, Note_off_c, 9, 40, 80
6, 104880, Note_off_c, 9, 55, 80
6, 104880, Note_off_c, 9, 36, 80
6, 104880, Note_on_c, 9, 42, 120
6, 105120, Note_off_c, 9, 42, 80
6, 105120, Note_on_c, 9, 42, 120
6, 105360, Note_off_c, 9, 42, 80
6, 105360, Note_on_c, 9, 42, 120
6, 105600, Note_off_c, 9, 42, 80
6, 105600, Note_on_c, 9, 36, 120
6, 105600, Note_on_c, 9, 42, 120
6, 105840, Note_off_c, 9, 42, 80
6, 105840, Note_off_c, 9, 36, 80
6, 105840, Note_on_c, 9, 36, 120
6, 105840, Note_on_c, 9, 55, 120
6, 105840, Note_on_c, 9, 42, 120
6, 106080, Note_off_c, 9, 42, 80
6, 106080, Note_off_c, 9, 55, 80
6, 106080, Note_off_c, 9, 36, 80
6, 106080, Note_on_c, 9, 42, 120
6, 106320, Note_off_c, 9, 42, 80
6, 106320, Control_c, 9, 10, 0
6, 106320, Note_on_c, 9, 50, 120
6, 106320, Control_c, 9, 10, 67
6, 106320, Note_on_c, 9, 36, 120
6, 106320, Note_on_c, 9, 42, 120
6, 106440, Note_off_c, 9, 50, 80
6, 106440, Control_c, 9, 10, 0
6, 106440, Note_on_c, 9, 50, 120
6, 106560, Note_off_c, 9, 50, 80
6, 106560, Note_off_c, 9, 36, 80
6, 106560, Note_off_c, 9, 42, 80
6, 106560, Note_on_c, 9, 48, 120
6, 106560, Control_c, 9, 10, 66
6, 106560, Note_on_c, 9, 36, 120
6, 106560, Note_on_c, 9, 55, 120
6, 106560, Note_on_c, 9, 42, 120
6, 106680, Note_off_c, 9, 48, 80
6, 106680, Control_c, 9, 10, 0
6, 106680, Note_on_c, 9, 48, 120
6, 106800, Note_off_c, 9, 48, 80
6, 106800, Note_off_c, 9, 36, 80
6, 106800, Note_off_c, 9, 55, 80
6, 106800, Note_off_c, 9, 42, 80
6, 106800, Note_on_c, 9, 47, 120
6, 106800, Control_c, 9, 10, 66
6, 106800, Note_on_c, 9, 42, 120
6, 106920, Note_off_c, 9, 47, 80
6, 106920, Control_c, 9, 10, 0
6, 106920, Note_on_c, 9, 47, 120
6, 107040, Note_off_c, 9, 47, 80
6, 107040, Note_off_c, 9, 42, 80
6, 107040, Note_on_c, 9, 40, 120
6, 107040, Control_c, 9, 10, 66
6, 107040, Note_on_c, 9, 42, 120
6, 107160, Note_off_c, 9, 40, 80
6, 107160, Control_c, 9, 10, 0
6, 107160, Note_on_c, 9, 40, 120
6, 107280, Note_off_c, 9, 40, 80
6, 107280, Note_off_c, 9, 42, 80
6, 107280, Note_on_c, 9, 40, 120
6, 107280, Control_c, 9, 10, 66
6, 107280, Note_on_c, 9, 42, 120
6, 107400, Note_off_c, 9, 40, 80
6, 107400, Control_c, 9, 10, 0
6, 107400, Note_on_c, 9, 40, 120
6, 107520, Note_off_c, 9, 40, 80
6, 107520, Note_off_c, 9, 42, 80
6, 107520, Control_c, 9, 10, 64
6, 107520, Note_on_c, 9, 36, 120
6, 107520, Note_on_c, 9, 49, 120
6, 107760, Note_off_c, 9, 49, 80
6, 107760, Note_off_c, 9, 36, 80
6, 109440, Note_on_c, 9, 36, 120
6, 109440, Note_on_c, 9, 49, 120
6, 109440, Note_on_c, 9, 42, 120
6, 109680, Note_off_c, 9, 42, 80
6, 109680, Note_off_c, 9, 49, 80
6, 109680, Note_off_c, 9, 36, 80
6, 109680, Note_on_c, 9, 42, 120
6, 109920, Note_off_c, 9, 42, 80
6, 109920, Note_on_c, 9, 42, 120
6, 110160, Note_off_c, 9, 42, 80
6, 110160, Note_on_c, 9, 36, 120
6, 110160, Note_on_c, 9, 42, 120
6, 110400, Note_off_c, 9, 42, 80
6, 110400, Note_off_c, 9, 36, 80
6, 110400, Note_on_c, 9, 36, 120
6, 110400, Note_on_c, 9, 49, 120
6, 110400, Note_on_c, 9, 38, 120
6, 110400, Note_on_c, 9, 42, 120
6, 110640, Note_off_c, 9, 42, 80
6, 110640, Note_off_c, 9, 38, 80
6, 110640, Note_off_c, 9, 49, 80
6, 110640, Note_off_c, 9, 36, 80
6, 110640, Note_on_c, 9, 42, 120
6, 110880, Note_off_c, 9, 42, 80
6, 110880, Note_on_c, 9, 42, 120
6, 111120, Note_off_c, 9, 42, 80
6, 111120, Note_on_c, 9, 42, 120
6, 111360, Note_off_c, 9, 42, 80
6, 111360, Note_on_c, 9, 36, 120
6, 111360, Note_on_c, 9, 49, 120
6, 111360, Note_on_c, 9, 42, 120
6, 111600, Note_off_c, 9, 42, 80
6, 111600, Note_off_c, 9, 49, 80
6, 111600, Note_off_c, 9, 36, 80
6, 111600, Note_on_c, 9, 36, 120
6, 111600, Note_on_c, 9, 42, 120
6, 111840, Note_off_c, 9, 42, 80
6, 111840, Note_off_c, 9, 36, 80
6, 111840, Note_on_c, 9, 42, 120
6, 112080, Note_off_c, 9, 42, 80
6, 112080, Note_on_c, 9, 36, 120
6, 112080, Note_on_c, 9, 42, 120
6, 112320, Note_off_c, 9, 42, 80
6, 112320, Note_off_c, 9, 36, 80
6, 112320, Note_on_c, 9, 36, 120
6, 112320, Note_on_c, 9, 49, 120
6, 112320, Note_on_c, 9, 42, 120
6, 112320, Note_on_c, 9, 40, 120
6, 112560, Note_off_c, 9, 40, 80
6, 112560, Note_off_c, 9, 42, 80
6, 112560, Note_off_c, 9, 49, 80
6, 112560, Note_off_c, 9, 36, 80
6, 112560, Note_on_c, 9, 42, 120
6, 112800, Note_off_c, 9, 42, 80
6, 112800, Note_on_c, 9, 42, 120
6, 113040, Note_off_c, 9, 42, 80
6, 113040, Note_on_c, 9, 42, 120
6, 113280, Note_off_c, 9, 42, 80
6, 113280, Note_on_c, 9, 36, 120
6, 113280, Note_on_c, 9, 49, 120
6, 113280, Note_on_c, 9, 42, 120
6, 113520, Note_off_c, 9, 42, 80
6, 113520, Note_off_c, 9, 49, 80
6, 113520, Note_off_c, 9, 36, 80
6, 113520, Note_on_c, 9, 42, 120
6, 113760, Note_off_c, 9, 42, 80
6, 113760, Note_on_c, 9, 42, 120
6, 114000, Note_off_c, 9, 42, 80
6, 114000, Note_on_c, 9, 36, 120
6, 114000, Note_on_c, 9, 42, 120
6, 114240, Note_off_c, 9, 42, 80
6, 114240, Note_off_c, 9, 36, 80
6, 114240, Note_on_c, 9, 36, 120
6, 114240, Note_on_c, 9, 38, 120
6, 114240, Note_on_c, 9, 49, 120
6, 114240, Note_on_c, 9, 42, 120
6, 114480, Note_off_c, 9, 42, 80
6, 114480, Note_off_c, 9, 49, 80
6, 114480, Note_off_c, 9, 38, 80
6, 114480, Note_off_c, 9, 36, 80
6, 114480, Note_on_c, 9, 42, 120
6, 114720, Note_off_c, 9, 42, 80
6, 114720, Note_on_c, 9, 42, 120
6, 114720, Note_on_c, 9, 42, 120
6, 114960, Note_off_c, 9, 42, 80
6, 114960, Note_off_c, 9, 42, 80
6, 114960, Note_on_c, 9, 42, 120
6, 115200, Note_off_c, 9, 42, 80
6, 115200, Note_on_c, 9, 36, 120
6, 115200, Note_on_c, 9, 49, 120
6, 115200, Note_on_c, 9, 42, 120
6, 115440, Note_off_c, 9, 42, 80
6, 115440, Note_off_c, 9, 49, 80
6, 115440, Note_off_c, 9, 36, 80
6, 115440, Note_on_c, 9, 36, 120
6, 115440, Note_on_c, 9, 42, 120
6, 115680, Note_off_c, 9, 42, 80
6, 115680, Note_off_c, 9, 36, 80
6, 115680, Note_on_c, 9, 42, 120
6, 115920, Note_off_c, 9, 42, 80
6, 115920, Note_on_c, 9, 36, 120
6, 115920, Note_on_c, 9, 42, 120
6, 116160, Note_off_c, 9, 42, 80
6, 116160, Note_off_c, 9, 36, 80
6, 116160, Note_on_c, 9, 36, 120
6, 116160, Note_on_c, 9, 49, 120
6, 116160, Note_on_c, 9, 40, 120
6, 116160, Note_on_c, 9, 42, 120
6, 116400, Note_off_c, 9, 42, 80
6, 116400, Note_off_c, 9, 40, 80
6, 116400, Note_off_c, 9, 49, 80
6, 116400, Note_off_c, 9, 36, 80
6, 116400, Note_on_c, 9, 42, 120
6, 116640, Note_off_c, 9, 42, 80
6, 116640, Note_on_c, 9, 42, 120
6, 116880, Note_off_c, 9, 42, 80
6, 116880, Note_on_c, 9, 42, 120
6, 117120, Note_off_c, 9, 42, 80
6, 117120, Note_on_c, 9, 36, 120
6, 117120, Note_on_c, 9, 42, 120
6, 117120, Note_on_c, 9, 49, 120
6, 117360, Note_off_c, 9, 49, 80
6, 117360, Note_off_c, 9, 42, 80
6, 117360, Note_off_c, 9, 36, 80
6, 117360, Note_on_c, 9, 42, 120
6, 117600, Note_off_c, 9, 42, 80
6, 117600, Note_on_c, 9, 42, 120
6, 117840, Note_off_c, 9, 42, 80
6, 117840, Note_on_c, 9, 36, 120
6, 117840, Note_on_c, 9, 42, 120
6, 118080, Note_off_c, 9, 42, 80
6, 118080, Note_off_c, 9, 36, 80
6, 118080, Note_on_c, 9, 36, 120
6, 118080, Note_on_c, 9, 39, 120
6, 118080, Note_on_c, 9, 42, 120
6, 118080, Note_on_c, 9, 49, 120
6, 118320, Note_off_c, 9, 49, 80
6, 118320, Note_off_c, 9, 42, 80
6, 118320, Note_off_c, 9, 39, 80
6, 118320, Note_off_c, 9, 36, 80
6, 118320, Note_on_c, 9, 42, 120
6, 118560, Note_off_c, 9, 42, 80
6, 118560, Note_on_c, 9, 42, 120
6, 118800, Note_off_c, 9, 42, 80
6, 118800, Note_on_c, 9, 42, 120
6, 119040, Note_off_c, 9, 42, 80
6, 119040, Note_on_c, 9, 36, 120
6, 119040, Note_on_c, 9, 42, 120
6, 119280, Note_off_c, 9, 42, 80
6, 119280, Note_off_c, 9, 36, 80
6, 119280, Note_on_c, 9, 36, 120
6, 119280, Note_on_c, 9, 36, 120
6, 119280, Note_on_c, 9, 42, 120
6, 119520, Note_off_c, 9, 42, 80
6, 119520, Note_off_c, 9, 36, 80
6, 119520, Note_off_c, 9, 36, 80
6, 119520, Note_on_c, 9, 36, 120
6, 119520, Note_on_c, 9, 42, 120
6, 119760, Note_off_c, 9, 42, 80
6, 119760, Note_off_c, 9, 36, 80
6, 119760, Note_on_c, 9, 36, 120
6, 119760, Note_on_c, 9, 42, 120
6, 120000, Note_off_c, 9, 42, 80
6, 120000, Note_off_c, 9, 36, 80
6, 120000, Note_on_c, 9, 36, 120
6, 120000, Note_on_c, 9, 42, 120
6, 120240, Note_off_c, 9, 42, 80
6, 120240, Note_off_c, 9, 36, 80
6, 120240, Note_on_c, 9, 36, 120
6, 120240, Note_on_c, 9, 42, 120
6, 120480, Note_off_c, 9, 42, 80
6, 120480, Note_off_c, 9, 36, 80
6, 120480, Note_on_c, 9, 36, 120
6, 120480, Note_on_c, 9, 42, 120
6, 120720, Note_off_c, 9, 42, 80
6, 120720, Note_off_c, 9, 36, 80
6, 120720, Note_on_c, 9, 36, 120
6, 120720, Note_on_c, 9, 42, 120
6, 120960, Note_off_c, 9, 42, 80
6, 120960, Note_off_c, 9, 36, 80
6, 120960, Note_on_c, 9, 36, 120
6, 120960, Note_on_c, 9, 46, 120
6, 121200, Note_off_c, 9, 46, 80
6, 121200, Note_off_c, 9, 36, 80
6, 121200, Note_on_c, 9, 36, 120
6, 121200, Note_on_c, 9, 46, 120
6, 121440, Note_off_c, 9, 46, 80
6, 121440, Note_off_c, 9, 36, 80
6, 121440, Note_on_c, 9, 36, 120
6, 121440, Note_on_c, 9, 46, 120
6, 121680, Note_off_c, 9, 46, 80
6, 121680, Note_off_c, 9, 36, 80
6, 121680, Note_on_c, 9, 36, 120
6, 121680, Note_on_c, 9, 46, 120
6, 121920, Note_off_c, 9, 46, 80
6, 121920, Note_off_c, 9, 36, 80
6, 121920, Note_on_c, 9, 36, 120
6, 121920, Note_on_c, 9, 46, 120
6, 122160, Note_off_c, 9, 46, 80
6, 122160, Note_off_c, 9, 36, 80
6, 122160, Note_on_c, 9, 36, 120
6, 122160, Note_on_c, 9, 46, 120
6, 122400, Note_off_c, 9, 46, 80
6, 122400, Note_off_c, 9, 36, 80
6, 122400, Note_on_c, 9, 36, 120
6, 122400, Note_on_c, 9, 46, 120
6, 122640, Note_off_c, 9, 46, 80
6, 122640, Note_off_c, 9, 36, 80
6, 122640, Note_on_c, 9, 36, 120
6, 122640, Note_on_c, 9, 46, 120
6, 122880, Note_off_c, 9, 46, 80
6, 122880, Note_off_c, 9, 36, 80
6, 122880, Note_on_c, 9, 36, 120
6, 123120, Note_off_c, 9, 36, 80
6, 123120, Note_on_c, 9, 36, 120
6, 123120, Note_on_c, 9, 55, 120
6, 123360, Note_off_c, 9, 55, 80
6, 123360, Note_off_c, 9, 36, 80
6, 123360, Note_on_c, 9, 36, 120
6, 123600, Note_off_c, 9, 36, 80
6, 123600, Note_on_c, 9, 50, 120
6, 123600, Note_on_c, 9, 36, 120
6, 123600, Note_on_c, 9, 42, 120
6, 123600, Control_c, 9, 10, 0
6, 123600, Control_c, 9, 10, 67
6, 123720, Note_off_c, 9, 50, 80
6, 123720, Note_on_c, 9, 50, 120
6, 123720, Control_c, 9, 10, 0
6, 123840, Note_off_c, 9, 36, 80
6, 123840, Note_off_c, 9, 42, 80
6, 123840, Note_off_c, 9, 50, 80
6, 123840, Note_on_c, 9, 48, 120
6, 123840, Note_on_c, 9, 36, 120
6, 123840, Note_on_c, 9, 55, 120
6, 123840, Note_on_c, 9, 42, 120
6, 123840, Control_c, 9, 10, 66
6, 123960, Note_off_c, 9, 48, 80
6, 123960, Note_on_c, 9, 48, 120
6, 123960, Control_c, 9, 10, 0
6, 124080, Note_off_c, 9, 36, 80
6, 124080, Note_off_c, 9, 55, 80
6, 124080, Note_off_c, 9, 42, 80
6, 124080, Note_off_c, 9, 48, 80
6, 124080, Note_on_c, 9, 47, 120
6, 124080, Note_on_c, 9, 36, 120
6, 124080, Note_on_c, 9, 42, 120
6, 124080, Control_c, 9, 10, 66
6, 124200, Note_off_c, 9, 47, 80
6, 124200, Note_on_c, 9, 47, 120
6, 124200, Control_c, 9, 10, 0
6, 124320, Note_off_c, 9, 36, 80
6, 124320, Note_off_c, 9, 42, 80
6, 124320, Note_off_c, 9, 47, 80
6, 124320, Note_on_c, 9, 40, 120
6, 124320, Note_on_c, 9, 36, 120
6, 124320, Note_on_c, 9, 42, 120
6, 124320, Control_c, 9, 10, 66
6, 124440, Note_off_c, 9, 40, 80
6, 124440, Note_on_c, 9, 40, 120
6, 124440, Control_c, 9, 10, 0
6, 124560, Note_off_c, 9, 36, 80
6, 124560, Note_off_c, 9, 42, 80
6, 124560, Note_off_c, 9, 40, 80
6, 124560, Note_on_c, 9, 40, 120
6, 124560, Note_on_c, 9, 36, 120
6, 124560, Note_on_c, 9, 42, 120
6, 124560, Control_c, 9, 10, 66
6, 124680, Note_off_c, 9, 40, 80
6, 124680, Note_on_c, 9, 40, 120
6, 124680, Control_c, 9, 10, 0
6, 124800, Note_off_c, 9, 36, 80
6, 124800, Note_off_c, 9, 42, 80
6, 124800, Note_off_c, 9, 40, 80
6, 124800, Note_on_c, 9, 36, 120
6, 124800, Note_on_c, 9, 42, 120
6, 124800, Control_c, 9, 10, 64
6, 125040, Note_off_c, 9, 42, 80
6, 125040, Note_off_c, 9, 36, 80
6, 125520, Note_on_c, 9, 36, 120
6, 125520, Note_on_c, 9, 42, 120
6, 125760, Note_off_c, 9, 42, 80
6, 125760, Note_off_c, 9, 36, 80
6, 125760, Note_on_c, 9, 36, 120
6, 125760, Note_on_c, 9, 40, 120
6, 125760, Note_on_c, 9, 46, 120
6, 125760, Note_on_c, 9, 49, 120
6, 126000, Note_off_c, 9, 49, 80
6, 126000, Note_off_c, 9, 46, 80
6, 126000, Note_off_c, 9, 40, 80
6, 126000, Note_off_c, 9, 36, 80
6, 126720, Note_on_c, 9, 42, 120
6, 126720, Note_on_c, 9, 36, 120
6, 126960, Note_off_c, 9, 36, 80
6, 126960, Note_off_c, 9, 42, 80
6, 127440, Note_on_c, 9, 36, 120
6, 127440, Note_on_c, 9, 42, 120
6, 127680, Note_off_c, 9, 42, 80
6, 127680, Note_off_c, 9, 36, 80
6, 127680, Note_on_c, 9, 36, 120
6, 127680, Note_on_c, 9, 40, 120
6, 127680, Note_on_c, 9, 46, 120
6, 127680, Note_on_c, 9, 49, 120
6, 127920, Note_off_c, 9, 49, 80
6, 127920, Note_off_c, 9, 46, 80
6, 127920, Note_off_c, 9, 40, 80
6, 127920, Note_off_c, 9, 36, 80
6, 128640, Note_on_c, 9, 42, 120
6, 128640, Note_on_c, 9, 36, 120
6, 128880, Note_off_c, 9, 36, 80
6, 128880, Note_off_c, 9, 42, 80
6, 129360, Note_on_c, 9, 36, 120
6, 129360, Note_on_c, 9, 42, 120
6, 129600, Note_off_c, 9, 42, 80
6, 129600, Note_off_c, 9, 36, 80
6, 129600, Note_on_c, 9, 49, 127
6, 129600, Note_on_c, 9, 36, 120
6, 129600, Note_on_c, 9, 40, 120
6, 129600, Note_on_c, 9, 46, 120
6, 129840, Note_off_c, 9, 46, 80
6, 129840, Note_off_c, 9, 40, 80
6, 129840, Note_off_c, 9, 36, 80
6, 129840, Note_off_c, 9, 49, 80
6, 130560, Note_on_c, 9, 36, 127
6, 130560, Note_on_c, 9, 49, 127
6, 130800, Note_off_c, 9, 49, 80
6, 130800, Note_off_c, 9, 36, 80
6, 131280, Note_on_c, 9, 36, 127
6, 131280, Note_on_c, 9, 40, 127
6, 131520, Note_off_c, 9, 40, 80
6, 131520, Note_off_c, 9, 36, 80
6, 131520, Note_on_c, 9, 36, 127
6, 131520, Note_on_c, 9, 40, 127
6, 131760, Note_off_c, 9, 40, 80
6, 131760, Note_off_c, 9, 36, 80
6, 131760, Note_on_c, 9, 36, 127
6, 131760, Note_on_c, 9, 40, 127
6, 132000, Note_off_c, 9, 40, 80
6, 132000, Note_off_c, 9, 36, 80
6, 132000, Note_on_c, 9, 36, 127
6, 132000, Note_on_c, 9, 40, 127
6, 132000, Note_on_c, 9, 40, 127
6, 132240, Note_off_c, 9, 40, 80
6, 132240, Note_off_c, 9, 40, 80
6, 132240, Note_off_c, 9, 36, 80
6, 132240, Note_on_c, 9, 36, 127
6, 132240, Note_on_c, 9, 40, 127
6, 132480, Note_off_c, 9, 40, 80
6, 132480, Note_off_c, 9, 36, 80
6, 132480, Note_on_c, 9, 42, 127
6, 132480, Note_on_c, 9, 36, 127
6, 132720, Note_off_c, 9, 36, 80
6, 132720, Note_off_c, 9, 42, 80
6, 133200, Note_on_c, 9, 36, 127
6, 133200, Note_on_c, 9, 42, 127
6, 133440, Note_off_c, 9, 42, 80
6, 133440, Note_off_c, 9, 36, 80
6, 133440, Note_on_c, 9, 36, 127
6, 133440, Note_on_c, 9, 40, 127
6, 133440, Note_on_c, 9, 46, 127
6, 133440, Note_on_c, 9, 49, 127
6, 133680, Note_off_c, 9, 49, 80
6, 133680, Note_off_c, 9, 46, 80
6, 133680, Note_off_c, 9, 40, 80
6, 133680, Note_off_c, 9, 36, 80
6, 134400, Note_on_c, 9, 42, 127
6, 134400, Note_on_c, 9, 36, 127
6, 134640, Note_off_c, 9, 36, 80
6, 134640, Note_off_c, 9, 42, 80
6, 135120, Note_on_c, 9, 36, 127
6, 135120, Note_on_c, 9, 42, 127
6, 135360, Note_off_c, 9, 42, 80
6, 135360, Note_off_c, 9, 36, 80
6, 135360, Note_on_c, 9, 36, 127
6, 135360, Note_on_c, 9, 40, 127
6, 135360, Note_on_c, 9, 46, 127
6, 135360, Note_on_c, 9, 49, 127
6, 135600, Note_off_c, 9, 49, 80
6, 135600, Note_off_c, 9, 46, 80
6, 135600, Note_off_c, 9, 40, 80
6, 135600, Note_off_c, 9, 36, 80
6, 136320, Note_on_c, 9, 42, 127
6, 136320, Note_on_c, 9, 36, 127
6, 136560, Note_off_c, 9, 36, 80
6, 136560, Note_off_c, 9, 42, 80
6, 137040, Note_on_c, 9, 36, 127
6, 137040, Note_on_c, 9, 42, 127
6, 137280, Note_off_c, 9, 42, 80
6, 137280, Note_off_c, 9, 36, 80
6, 137280, Note_on_c, 9, 36, 127
6, 137280, Note_on_c, 9, 40, 127
6, 137280, Note_on_c, 9, 46, 127
6, 137280, Note_on_c, 9, 49, 127
6, 137520, Note_off_c, 9, 49, 80
6, 137520, Note_off_c, 9, 46, 80
6, 137520, Note_off_c, 9, 40, 80
6, 137520, Note_off_c, 9, 36, 80
6, 138480, Note_on_c, 9, 36, 127
6, 138480, Note_on_c, 9, 46, 127
6, 138480, Note_on_c, 9, 40, 127
6, 138720, Note_off_c, 9, 40, 80
6, 138720, Note_off_c, 9, 46, 80
6, 138720, Note_off_c, 9, 36, 80
6, 138720, Note_on_c, 9, 36, 127
6, 138720, Note_on_c, 9, 46, 127
6, 138720, Note_on_c, 9, 40, 127
6, 138960, Note_off_c, 9, 40, 80
6, 138960, Note_off_c, 9, 46, 80
6, 138960, Note_off_c, 9, 36, 80
6, 139200, Control_c, 9, 10, 127
6, 139440, Note_on_c, 9, 50, 127
6, 139440, Note_on_c, 9, 36, 127
6, 139560, Note_off_c, 9, 50, 80
6, 139560, Note_on_c, 9, 50, 127
6, 139680, Note_off_c, 9, 50, 80
6, 139680, Note_on_c, 9, 48, 127
6, 139687, Note_off_c, 9, 36, 80
6, 139800, Note_off_c, 9, 48, 80
6, 139800, Note_on_c, 9, 48, 127
6, 139920, Note_off_c, 9, 48, 80
6, 139920, Note_on_c, 9, 48, 127
6, 140040, Note_off_c, 9, 48, 80
6, 140160, Note_on_c, 9, 42, 127
6, 140160, Note_on_c, 9, 36, 127
6, 140160, Control_c, 9, 10, 64
6, 140400, Note_off_c, 9, 36, 80
6, 140400, Note_off_c, 9, 42, 80
6, 140880, Note_on_c, 9, 36, 127
6, 140880, Note_on_c, 9, 42, 127
6, 141120, Note_off_c, 9, 42, 80
6, 141120, Note_off_c, 9, 36, 80
6, 141120, Note_on_c, 9, 36, 127
6, 141120, Note_on_c, 9, 40, 127
6, 141120, Note_on_c, 9, 46, 127
6, 141120, Note_on_c, 9, 49, 127
6, 141360, Note_off_c, 9, 49, 80
6, 141360, Note_off_c, 9, 46, 80
6, 141360, Note_off_c, 9, 40, 80
6, 141360, Note_off_c, 9, 36, 80
6, 142080, Note_on_c, 9, 42, 127
6, 142080, Note_on_c, 9, 36, 127
6, 142320, Note_off_c, 9, 36, 80
6, 142320, Note_off_c, 9, 42, 80
6, 142800, Note_on_c, 9, 36, 127
6, 142800, Note_on_c, 9, 42, 127
6, 143040, Note_off_c, 9, 42, 80
6, 143040, Note_off_c, 9, 36, 80
6, 143040, Note_on_c, 9, 36, 127
6, 143040, Note_on_c, 9, 40, 127
6, 143040, Note_on_c, 9, 46, 127
6, 143040, Note_on_c, 9, 49, 127
6, 143280, Note_off_c, 9, 49, 80
6, 143280, Note_off_c, 9, 46, 80
6, 143280, Note_off_c, 9, 40, 80
6, 143280, Note_off_c, 9, 36, 80
6, 144000, Note_on_c, 9, 42, 127
6, 144000, Note_on_c, 9, 36, 127
6, 144240, Note_off_c, 9, 36, 80
6, 144240, Note_off_c, 9, 42, 80
6, 144240, Note_on_c, 9, 36, 127
6, 144240, Note_on_c, 9, 40, 127
6, 144480, Note_off_c, 9, 40, 80
6, 144480, Note_off_c, 9, 36, 80
6, 144720, Note_on_c, 9, 36, 127
6, 144720, Note_on_c, 9, 42, 127
6, 144960, Note_off_c, 9, 42, 80
6, 144960, Note_off_c, 9, 36, 80
6, 144960, Note_on_c, 9, 36, 127
6, 144960, Note_on_c, 9, 40, 127
6, 144960, Note_on_c, 9, 46, 127
6, 144960, Note_on_c, 9, 49, 127
6, 145200, Note_off_c, 9, 49, 80
6, 145200, Note_off_c, 9, 46, 80
6, 145200, Note_off_c, 9, 40, 80
6, 145200, Note_off_c, 9, 36, 80
6, 145920, Note_on_c, 9, 36, 120
6, 146160, Note_off_c, 9, 36, 80
6, 146160, Note_on_c, 9, 36, 120
6, 146160, Note_on_c, 9, 55, 120
6, 146400, Note_off_c, 9, 55, 80
6, 146400, Note_off_c, 9, 36, 80
6, 146400, Note_on_c, 9, 36, 120
6, 146640, Note_off_c, 9, 36, 80
6, 146640, Note_on_c, 9, 50, 120
6, 146640, Note_on_c, 9, 36, 120
6, 146640, Note_on_c, 9, 42, 120
6, 146640, Control_c, 9, 10, 0
6, 146640, Control_c, 9, 10, 67
6, 146760, Note_off_c, 9, 50, 80
6, 146760, Note_on_c, 9, 50, 120
6, 146760, Control_c, 9, 10, 0
6, 146880, Note_off_c, 9, 36, 80
6, 146880, Note_off_c, 9, 42, 80
6, 146880, Note_off_c, 9, 50, 80
6, 146880, Note_on_c, 9, 48, 120
6, 146880, Note_on_c, 9, 36, 120
6, 146880, Note_on_c, 9, 55, 120
6, 146880, Note_on_c, 9, 42, 120
6, 146880, Control_c, 9, 10, 66
6, 147000, Note_off_c, 9, 48, 80
6, 147000, Note_on_c, 9, 48, 120
6, 147000, Control_c, 9, 10, 0
6, 147120, Note_off_c, 9, 36, 80
6, 147120, Note_off_c, 9, 55, 80
6, 147120, Note_off_c, 9, 42, 80
6, 147120, Note_off_c, 9, 48, 80
6, 147120, Note_on_c, 9, 47, 120
6, 147120, Note_on_c, 9, 36, 120
6, 147120, Note_on_c, 9, 42, 120
6, 147120, Control_c, 9, 10, 66
6, 147240, Note_off_c, 9, 47, 80
6, 147240, Note_on_c, 9, 47, 120
6, 147240, Control_c, 9, 10, 0
6, 147360, Note_off_c, 9, 36, 80
6, 147360, Note_off_c, 9, 42, 80
6, 147360, Note_off_c, 9, 47, 80
6, 147360, Note_on_c, 9, 40, 120
6, 147360, Note_on_c, 9, 36, 120
6, 147360, Note_on_c, 9, 42, 120
6, 147360, Control_c, 9, 10, 66
6, 147480, Note_off_c, 9, 40, 80
6, 147480, Note_on_c, 9, 40, 120
6, 147480, Control_c, 9, 10, 0
6, 147600, Note_off_c, 9, 36, 80
6, 147600, Note_off_c, 9, 42, 80
6, 147600, Note_off_c, 9, 40, 80
6, 147600, Note_on_c, 9, 40, 120
6, 147600, Note_on_c, 9, 36, 120
6, 147600, Note_on_c, 9, 42, 120
6, 147600, Control_c, 9, 10, 66
6, 147720, Note_off_c, 9, 40, 80
6, 147720, Note_on_c, 9, 40, 120
6, 147720, Control_c, 9, 10, 0
6, 147840, Note_off_c, 9, 36, 80
6, 147840, Note_off_c, 9, 42, 80
6, 147840, Note_off_c, 9, 40, 80
6, 147840, Note_on_c, 9, 36, 120
6, 147840, Note_on_c, 9, 42, 120
6, 147840, Control_c, 9, 10, 64
6, 148080, Note_off_c, 9, 42, 80
6, 148080, Note_off_c, 9, 36, 80
6, 148080, Note_on_c, 9, 36, 127
6, 148080, Note_on_c, 9, 42, 127
6, 148320, Note_off_c, 9, 42, 80
6, 148320, Note_off_c, 9, 36, 80
6, 148320, Note_on_c, 9, 36, 127
6, 148320, Note_on_c, 9, 42, 127
6, 148560, Note_off_c, 9, 42, 80
6, 148560, Note_off_c, 9, 36, 80
6, 148560, Note_on_c, 9, 36, 127
6, 148560, Note_on_c, 9, 42, 127
6, 148800, Note_off_c, 9, 42, 80
6, 148800, Note_off_c, 9, 36, 80
6, 148800, Note_on_c, 9, 36, 127
6, 148800, Note_on_c, 9, 42, 127
6, 149040, Note_off_c, 9, 42, 80
6, 149040, Note_off_c, 9, 36, 80
6, 149040, Note_on_c, 9, 36, 127
6, 149040, Note_on_c, 9, 42, 127
6, 149280, Note_off_c, 9, 42, 80
6, 149280, Note_off_c, 9, 36, 80
6, 149280, Note_on_c, 9, 36, 127
6, 149280, Note_on_c, 9, 42, 127
6, 149520, Note_off_c, 9, 42, 80
6, 149520, Note_off_c, 9, 36, 80
6, 149520, Note_on_c, 9, 36, 127
6, 149520, Note_on_c, 9, 42, 127
6, 149760, Note_off_c, 9, 42, 80
6, 149760, Note_off_c, 9, 36, 80
6, 149760, Note_on_c, 9, 36, 127
6, 149760, Note_on_c, 9, 42, 120
6, 149760, Note_on_c, 9, 36, 120
6, 150000, Note_off_c, 9, 36, 80
6, 150000, Note_off_c, 9, 42, 80
6, 150000, Note_off_c, 9, 36, 80
6, 150000, Note_on_c, 9, 36, 127
6, 150000, Note_on_c, 9, 42, 127
6, 150240, Note_off_c, 9, 42, 80
6, 150240, Note_off_c, 9, 36, 80
6, 150240, Note_on_c, 9, 36, 127
6, 150240, Note_on_c, 9, 42, 127
6, 150480, Note_off_c, 9, 42, 80
6, 150480, Note_off_c, 9, 36, 80
6, 150480, Note_on_c, 9, 36, 127
6, 150480, Note_on_c, 9, 42, 127
6, 150720, Note_off_c, 9, 42, 80
6, 150720, Note_off_c, 9, 36, 80
6, 150720, Note_on_c, 9, 36, 127
6, 150720, Note_on_c, 9, 42, 127
6, 150960, Note_off_c, 9, 42, 80
6, 150960, Note_off_c, 9, 36, 80
6, 150960, Note_on_c, 9, 36, 127
6, 150960, Note_on_c, 9, 42, 127
6, 151200, Note_off_c, 9, 42, 80
6, 151200, Note_off_c, 9, 36, 80
6, 151200, Note_on_c, 9, 36, 127
6, 151200, Note_on_c, 9, 42, 127
6, 151440, Note_off_c, 9, 42, 80
6, 151440, Note_off_c, 9, 36, 80
6, 151440, Note_on_c, 9, 36, 127
6, 151440, Note_on_c, 9, 42, 127
6, 151680, Note_off_c, 9, 42, 80
6, 151680, Note_off_c, 9, 36, 80
6, 151680, Note_on_c, 9, 36, 127
6, 151680, Note_on_c, 9, 42, 120
6, 151680, Note_on_c, 9, 36, 120
6, 151920, Note_off_c, 9, 36, 80
6, 151920, Note_off_c, 9, 42, 80
6, 151920, Note_off_c, 9, 36, 80
6, 151920, Note_on_c, 9, 36, 127
6, 151920, Note_on_c, 9, 42, 127
6, 152160, Note_off_c, 9, 42, 80
6, 152160, Note_off_c, 9, 36, 80
6, 152160, Note_on_c, 9, 36, 127
6, 152160, Note_on_c, 9, 42, 127
6, 152400, Note_off_c, 9, 42, 80
6, 152400, Note_off_c, 9, 36, 80
6, 152400, Note_on_c, 9, 36, 127
6, 152400, Note_on_c, 9, 42, 127
6, 152640, Note_off_c, 9, 42, 80
6, 152640, Note_off_c, 9, 36, 80
6, 152640, Note_on_c, 9, 36, 127
6, 152640, Note_on_c, 9, 42, 127
6, 152880, Note_off_c, 9, 42, 80
6, 152880, Note_off_c, 9, 36, 80
6, 152880, Note_on_c, 9, 36, 127
6, 152880, Note_on_c, 9, 42, 127
6, 153120, Note_off_c, 9, 42, 80
6, 153120, Note_off_c, 9, 36, 80
6, 153120, Note_on_c, 9, 36, 127
6, 153120, Note_on_c, 9, 42, 127
6, 153360, Note_off_c, 9, 42, 80
6, 153360, Note_off_c, 9, 36, 80
6, 153360, Note_on_c, 9, 36, 127
6, 153360, Note_on_c, 9, 42, 127
6, 153600, Note_off_c, 9, 42, 80
6, 153600, Note_off_c, 9, 36, 80
6, 153600, Note_on_c, 9, 36, 127
6, 153600, Note_on_c, 9, 36, 120
6, 153600, Note_on_c, 9, 46, 120
6, 153840, Note_off_c, 9, 46, 80
6, 153840, Note_off_c, 9, 36, 80
6, 153840, Note_off_c, 9, 36, 80
6, 153840, Note_on_c, 9, 36, 127
6, 153840, Note_on_c, 9, 46, 127
6, 154080, Note_off_c, 9, 46, 80
6, 154080, Note_off_c, 9, 36, 80
6, 154080, Note_on_c, 9, 36, 127
6, 154080, Note_on_c, 9, 46, 127
6, 154320, Note_off_c, 9, 46, 80
6, 154320, Note_off_c, 9, 36, 80
6, 154320, Note_on_c, 9, 36, 127
6, 154320, Note_on_c, 9, 46, 127
6, 154560, Note_off_c, 9, 46, 80
6, 154560, Note_off_c, 9, 36, 80
6, 154560, Note_on_c, 9, 36, 127
6, 154560, Note_on_c, 9, 46, 127
6, 154800, Note_off_c, 9, 46, 80
6, 154800, Note_off_c, 9, 36, 80
6, 154800, Note_on_c, 9, 36, 127
6, 154800, Note_on_c, 9, 46, 127
6, 155040, Note_off_c, 9, 46, 80
6, 155040, Note_off_c, 9, 36, 80
6, 155040, Note_on_c, 9, 36, 127
6, 155040, Note_on_c, 9, 46, 127
6, 155280, Note_off_c, 9, 46, 80
6, 155280, Note_off_c, 9, 36, 80
6, 155280, Note_on_c, 9, 36, 127
6, 155280, Note_on_c, 9, 46, 127
6, 155520, Note_off_c, 9, 46, 80
6, 155520, Note_off_c, 9, 36, 80
6, 155520, Note_on_c, 9, 36, 127
6, 155520, Note_on_c, 9, 58, 127
6, 155760, Note_off_c, 9, 58, 80
6, 155760, Note_off_c, 9, 36, 80
6, 156240, Note_on_c, 9, 36, 127
6, 156240, Note_on_c, 9, 40, 127
6, 156480, Note_off_c, 9, 40, 80
6, 156480, Note_off_c, 9, 36, 80
6, 156960, Note_on_c, 9, 36, 127
6, 156960, Note_on_c, 9, 40, 127
6, 157200, Note_off_c, 9, 40, 80
6, 157200, Note_off_c, 9, 36, 80
6, 157920, Note_on_c, 9, 36, 127
6, 157920, Note_on_c, 9, 38, 127
6, 158160, Note_off_c, 9, 38, 80
6, 158160, Note_off_c, 9, 36, 80
6, 158640, Note_on_c, 9, 36, 127
6, 158640, Note_on_c, 9, 38, 127
6, 158880, Note_off_c, 9, 38, 80
6, 158880, Note_off_c, 9, 36, 80
6, 159360, Note_on_c, 9, 36, 127
6, 159360, Note_on_c, 9, 42, 127
6, 159600, Note_off_c, 9, 42, 80
6, 159600, Note_off_c, 9, 36, 80
6, 160080, Note_on_c, 9, 36, 127
6, 160080, Note_on_c, 9, 42, 127
6, 160320, Note_off_c, 9, 42, 80
6, 160320, Note_off_c, 9, 36, 80
6, 160800, Note_on_c, 9, 36, 127
6, 160800, Note_on_c, 9, 42, 127
6, 161040, Note_off_c, 9, 42, 80
6, 161040, Note_off_c, 9, 36, 80
6, 161760, Note_on_c, 9, 36, 127
6, 161760, Note_on_c, 9, 40, 127
6, 161760, Note_on_c, 9, 65, 90
6, 162000, Note_off_c, 9, 65, 80
6, 162000, Note_off_c, 9, 40, 80
6, 162000, Note_off_c, 9, 36, 80
6, 162480, Note_on_c, 9, 36, 127
6, 162480, Note_on_c, 9, 40, 127
6, 162480, Note_on_c, 9, 65, 90
6, 162720, Note_off_c, 9, 65, 80
6, 162720, Note_off_c, 9, 40, 80
6, 162720, Note_off_c, 9, 36, 80
6, 163200, Note_on_c, 9, 36, 127
6, 163200, Note_on_c, 9, 62, 127
6, 163440, Note_off_c, 9, 62, 80
6, 163440, Note_off_c, 9, 36, 80
6, 163920, Note_on_c, 9, 36, 127
6, 163920, Note_on_c, 9, 60, 127
6, 164160, Note_off_c, 9, 60, 80
6, 164160, Note_off_c, 9, 36, 80
6, 164640, Note_on_c, 9, 36, 127
6, 164640, Note_on_c, 9, 62, 127
6, 164880, Note_off_c, 9, 62, 80
6, 164880, Note_off_c, 9, 36, 80
6, 165600, Note_on_c, 9, 36, 127
6, 165600, Note_on_c, 9, 84, 127
6, 165600, Note_on_c, 9, 65, 90
6, 165840, Note_off_c, 9, 65, 80
6, 165840, Note_off_c, 9, 84, 80
6, 165840, Note_off_c, 9, 36, 80
6, 166320, Note_on_c, 9, 36, 127
6, 166320, Note_on_c, 9, 82, 127
6, 166320, Note_on_c, 9, 65, 90
6, 166560, Note_off_c, 9, 65, 80
6, 166560, Note_off_c, 9, 82, 80
6, 166560, Note_off_c, 9, 36, 80
6, 167040, Note_on_c, 9, 36, 127
6, 167040, Control_c, 9, 10, 0
6, 167040, Note_on_c, 9, 58, 127
6, 167280, Note_off_c, 9, 58, 80
6, 167280, Note_off_c, 9, 36, 80
6, 167760, Control_c, 9, 10, 64
6, 167760, Note_on_c, 9, 36, 127
6, 168000, Note_off_c, 9, 36, 80
6, 168480, Note_on_c, 9, 36, 127
6, 168720, Note_off_c, 9, 36, 80
6, 169200, Note_on_c, 9, 36, 127
6, 169440, Note_off_c, 9, 36, 80
6, 169440, Note_on_c, 9, 36, 127
6, 169680, Note_off_c, 9, 36, 80
6, 169680, Note_on_c, 9, 36, 127
6, 169920, Note_off_c, 9, 36, 80
6, 169920, Note_on_c, 9, 36, 127
6, 170160, Note_off_c, 9, 36, 80
6, 170160, Control_c, 9, 10, 0
6, 170160, Note_on_c, 9, 36, 127
6, 170160, Note_on_c, 9, 60, 127
6, 170280, Note_off_c, 9, 60, 80
6, 170280, Control_c, 9, 10, 127
6, 170280, Note_on_c, 9, 60, 127
6, 170400, Note_off_c, 9, 60, 80
6, 170400, Note_off_c, 9, 36, 80
6, 170400, Control_c, 9, 10, 0
6, 170400, Note_on_c, 9, 36, 127
6, 170400, Note_on_c, 9, 36, 127
6, 170400, Note_on_c, 9, 60, 127
6, 170520, Note_off_c, 9, 60, 80
6, 170520, Control_c, 9, 10, 127
6, 170520, Note_on_c, 9, 60, 127
6, 170640, Note_off_c, 9, 60, 80
6, 170640, Note_off_c, 9, 36, 80
6, 170640, Note_off_c, 9, 36, 80
6, 170640, Control_c, 9, 10, 0
6, 170640, Note_on_c, 9, 36, 127
6, 170640, Note_on_c, 9, 60, 127
6, 170760, Note_off_c, 9, 60, 80
6, 170880, Note_off_c, 9, 36, 80
6, 170880, Control_c, 9, 10, 64
6, 170880, Note_on_c, 9, 55, 120
6, 170880, Note_on_c, 9, 42, 120
6, 170880, Note_on_c, 9, 36, 120
6, 170880, Note_on_c, 9, 36, 120
6, 170880, Note_on_c, 9, 49, 120
6, 171120, Note_off_c, 9, 49, 80
6, 171120, Note_off_c, 9, 36, 80
6, 171120, Note_off_c, 9, 36, 80
6, 171120, Note_off_c, 9, 42, 80
6, 171120, Note_off_c, 9, 55, 80
6, 171120, Note_on_c, 9, 42, 120
6, 171360, Note_off_c, 9, 42, 80
6, 171360, Note_on_c, 9, 42, 120
6, 171600, Note_off_c, 9, 42, 80
6, 171600, Note_on_c, 9, 36, 120
6, 171600, Note_on_c, 9, 42, 120
6, 171840, Note_off_c, 9, 42, 80
6, 171840, Note_off_c, 9, 36, 80
6, 171840, Note_on_c, 9, 36, 120
6, 171840, Note_on_c, 9, 40, 120
6, 171840, Note_on_c, 9, 55, 120
6, 171840, Note_on_c, 9, 42, 120
6, 172080, Note_off_c, 9, 42, 80
6, 172080, Note_off_c, 9, 55, 80
6, 172080, Note_off_c, 9, 40, 80
6, 172080, Note_off_c, 9, 36, 80
6, 172080, Note_on_c, 9, 42, 120
6, 172320, Note_off_c, 9, 42, 80
6, 172320, Note_on_c, 9, 42, 120
6, 172560, Note_off_c, 9, 42, 80
6, 172560, Note_on_c, 9, 42, 120
6, 172800, Note_off_c, 9, 42, 80
6, 172800, Note_on_c, 9, 36, 120
6, 172800, Note_on_c, 9, 42, 120
6, 173040, Note_off_c, 9, 42, 80
6, 173040, Note_off_c, 9, 36, 80
6, 173040, Note_on_c, 9, 36, 120
6, 173040, Note_on_c, 9, 55, 120
6, 173040, Note_on_c, 9, 42, 120
6, 173280, Note_off_c, 9, 42, 80
6, 173280, Note_off_c, 9, 55, 80
6, 173280, Note_off_c, 9, 36, 80
6, 173280, Note_on_c, 9, 42, 120
6, 173520, Note_off_c, 9, 42, 80
6, 173520, Note_on_c, 9, 36, 120
6, 173520, Note_on_c, 9, 42, 120
6, 173760, Note_off_c, 9, 42, 80
6, 173760, Note_off_c, 9, 36, 80
6, 173760, Note_on_c, 9, 36, 120
6, 173760, Note_on_c, 9, 40, 120
6, 173760, Note_on_c, 9, 55, 120
6, 173760, Note_on_c, 9, 42, 120
6, 174000, Note_off_c, 9, 42, 80
6, 174000, Note_off_c, 9, 55, 80
6, 174000, Note_off_c, 9, 40, 80
6, 174000, Note_off_c, 9, 36, 80
6, 174000, Note_on_c, 9, 42, 120
6, 174240, Note_off_c, 9, 42, 80
6, 174240, Note_on_c, 9, 42, 120
6, 174480, Note_off_c, 9, 42, 80
6, 174480, Note_on_c, 9, 42, 120
6, 174720, Note_off_c, 9, 42, 80
6, 174720, Note_on_c, 9, 36, 120
6, 174720, Note_on_c, 9, 55, 120
6, 174720, Note_on_c, 9, 42, 120
6, 174960, Note_off_c, 9, 42, 80
6, 174960, Note_off_c, 9, 55, 80
6, 174960, Note_off_c, 9, 36, 80
6, 174960, Note_on_c, 9, 42, 120
6, 175200, Note_off_c, 9, 42, 80
6, 175200, Note_on_c, 9, 42, 120
6, 175440, Note_off_c, 9, 42, 80
6, 175440, Note_on_c, 9, 36, 120
6, 175440, Note_on_c, 9, 42, 120
6, 175680, Note_off_c, 9, 42, 80
6, 175680, Note_off_c, 9, 36, 80
6, 175680, Note_on_c, 9, 36, 120
6, 175680, Note_on_c, 9, 40, 120
6, 175680, Note_on_c, 9, 55, 120
6, 175680, Note_on_c, 9, 42, 120
6, 175920, Note_off_c, 9, 42, 80
6, 175920, Note_off_c, 9, 55, 80
6, 175920, Note_off_c, 9, 40, 80
6, 175920, Note_off_c, 9, 36, 80
6, 175920, Note_on_c, 9, 42, 120
6, 176160, Note_off_c, 9, 42, 80
6, 176160, Note_on_c, 9, 42, 120
6, 176400, Note_off_c, 9, 42, 80
6, 176400, Note_on_c, 9, 42, 120
6, 176640, Note_off_c, 9, 42, 80
6, 176640, Note_on_c, 9, 36, 120
6, 176640, Note_on_c, 9, 55, 120
6, 176640, Note_on_c, 9, 42, 120
6, 176880, Note_off_c, 9, 42, 80
6, 176880, Note_off_c, 9, 55, 80
6, 176880, Note_off_c, 9, 36, 80
6, 176880, Note_on_c, 9, 36, 120
6, 176880, Note_on_c, 9, 42, 120
6, 177120, Note_off_c, 9, 42, 80
6, 177120, Note_off_c, 9, 36, 80
6, 177120, Note_on_c, 9, 42, 120
6, 177360, Note_off_c, 9, 42, 80
6, 177360, Note_on_c, 9, 36, 120
6, 177360, Note_on_c, 9, 42, 120
6, 177600, Note_off_c, 9, 42, 80
6, 177600, Note_off_c, 9, 36, 80
6, 177600, Note_on_c, 9, 36, 120
6, 177600, Note_on_c, 9, 40, 120
6, 177600, Note_on_c, 9, 55, 120
6, 177600, Note_on_c, 9, 42, 120
6, 177840, Note_off_c, 9, 42, 80
6, 177840, Note_off_c, 9, 55, 80
6, 177840, Note_off_c, 9, 40, 80
6, 177840, Note_off_c, 9, 36, 80
6, 177840, Note_on_c, 9, 42, 120
6, 178080, Note_off_c, 9, 42, 80
6, 178080, Note_on_c, 9, 42, 120
6, 178320, Note_off_c, 9, 42, 80
6, 178320, Note_on_c, 9, 42, 120
6, 178560, Note_off_c, 9, 42, 80
6, 178560, Note_on_c, 9, 36, 120
6, 178560, Note_on_c, 9, 42, 120
6, 178800, Note_off_c, 9, 42, 80
6, 178800, Note_off_c, 9, 36, 80
6, 178800, Note_on_c, 9, 36, 120
6, 178800, Note_on_c, 9, 55, 120
6, 178800, Note_on_c, 9, 42, 120
6, 179040, Note_off_c, 9, 42, 80
6, 179040, Note_off_c, 9, 55, 80
6, 179040, Note_off_c, 9, 36, 80
6, 179040, Note_on_c, 9, 42, 120
6, 179280, Note_off_c, 9, 42, 80
6, 179280, Note_on_c, 9, 36, 120
6, 179280, Note_on_c, 9, 42, 120
6, 179520, Note_off_c, 9, 42, 80
6, 179520, Note_off_c, 9, 36, 80
6, 179520, Note_on_c, 9, 36, 120
6, 179520, Note_on_c, 9, 55, 120
6, 179520, Note_on_c, 9, 42, 120
6, 179520, Note_on_c, 9, 40, 120
6, 179760, Note_off_c, 9, 40, 80
6, 179760, Note_off_c, 9, 42, 80
6, 179760, Note_off_c, 9, 55, 80
6, 179760, Note_off_c, 9, 36, 80
6, 179760, Note_on_c, 9, 42, 120
6, 180000, Note_off_c, 9, 42, 80
6, 180000, Note_on_c, 9, 42, 120
6, 180240, Note_off_c, 9, 42, 80
6, 180240, Note_on_c, 9, 42, 120
6, 180480, Note_off_c, 9, 42, 80
6, 180480, Note_on_c, 9, 36, 120
6, 180480, Note_on_c, 9, 42, 120
6, 180720, Note_off_c, 9, 42, 80
6, 180720, Note_off_c, 9, 36, 80
6, 180720, Note_on_c, 9, 36, 120
6, 180720, Note_on_c, 9, 55, 120
6, 180720, Note_on_c, 9, 42, 120
6, 180960, Note_off_c, 9, 42, 80
6, 180960, Note_off_c, 9, 55, 80
6, 180960, Note_off_c, 9, 36, 80
6, 180960, Note_on_c, 9, 42, 120
6, 181200, Note_off_c, 9, 42, 80
6, 181200, Note_on_c, 9, 36, 120
6, 181200, Note_on_c, 9, 42, 120
6, 181440, Note_off_c, 9, 42, 80
6, 181440, Note_off_c, 9, 36, 80
6, 181440, Note_on_c, 9, 36, 120
6, 181440, Note_on_c, 9, 55, 120
6, 181440, Note_on_c, 9, 40, 120
6, 181440, Note_on_c, 9, 42, 120
6, 181680, Note_off_c, 9, 42, 80
6, 181680, Note_off_c, 9, 40, 80
6, 181680, Note_off_c, 9, 55, 80
6, 181680, Note_off_c, 9, 36, 80
6, 181680, Note_on_c, 9, 42, 120
6, 181920, Note_off_c, 9, 42, 80
6, 181920, Note_on_c, 9, 42, 120
6, 182160, Note_off_c, 9, 42, 80
6, 182160, Note_on_c, 9, 42, 120
6, 182400, Note_off_c, 9, 42, 80
6, 182400, Note_on_c, 9, 36, 120
6, 182400, Note_on_c, 9, 42, 120
6, 182640, Note_off_c, 9, 42, 80
6, 182640, Note_off_c, 9, 36, 80
6, 182640, Note_on_c, 9, 36, 120
6, 182640, Note_on_c, 9, 55, 120
6, 182640, Note_on_c, 9, 42, 120
6, 182880, Note_off_c, 9, 42, 80
6, 182880, Note_off_c, 9, 55, 80
6, 182880, Note_off_c, 9, 36, 80
6, 182880, Note_on_c, 9, 42, 120
6, 183120, Note_off_c, 9, 42, 80
6, 183120, Note_on_c, 9, 50, 120
6, 183120, Note_on_c, 9, 36, 120
6, 183120, Note_on_c, 9, 42, 120
6, 183240, Note_off_c, 9, 50, 80
6, 183240, Note_on_c, 9, 50, 120
6, 183360, Note_off_c, 9, 36, 80
6, 183360, Note_off_c, 9, 42, 80
6, 183360, Note_off_c, 9, 50, 80
6, 183360, Note_on_c, 9, 48, 120
6, 183360, Note_on_c, 9, 36, 120
6, 183360, Note_on_c, 9, 55, 120
6, 183360, Note_on_c, 9, 42, 120
6, 183480, Note_off_c, 9, 48, 80
6, 183480, Note_on_c, 9, 48, 120
6, 183600, Note_off_c, 9, 36, 80
6, 183600, Note_off_c, 9, 55, 80
6, 183600, Note_off_c, 9, 42, 80
6, 183600, Note_off_c, 9, 48, 80
6, 183600, Note_on_c, 9, 47, 120
6, 183600, Note_on_c, 9, 42, 120
6, 183720, Note_off_c, 9, 47, 80
6, 183720, Note_on_c, 9, 47, 120
6, 183840, Note_off_c, 9, 42, 80
6, 183840, Note_off_c, 9, 47, 80
6, 183840, Note_on_c, 9, 40, 120
6, 183840, Note_on_c, 9, 42, 120
6, 183960, Note_off_c, 9, 40, 80
6, 183960, Note_on_c, 9, 40, 120
6, 184080, Note_off_c, 9, 42, 80
6, 184080, Note_off_c, 9, 40, 80
6, 184080, Note_on_c, 9, 40, 120
6, 184080, Note_on_c, 9, 42, 120
6, 184200, Note_off_c, 9, 40, 80
6, 184200, Note_on_c, 9, 40, 120
6, 184320, Note_off_c, 9, 42, 80
6, 184320, Note_off_c, 9, 40, 80
6, 184320, Note_on_c, 9, 36, 120
6, 184320, Note_on_c, 9, 49, 120
6, 184560, Note_off_c, 9, 49, 80
6, 184560, Note_off_c, 9, 36, 80
6, 186240, Note_on_c, 9, 42, 120
6, 186480, Note_off_c, 9, 42, 80
6, 187200, Note_on_c, 9, 42, 120
6, 187440, Note_off_c, 9, 42, 80
6, 188160, Note_on_c, 9, 42, 120
6, 188400, Note_off_c, 9, 42, 80
6, 189120, Note_on_c, 9, 42, 120
6, 189360, Note_off_c, 9, 42, 80
6, 190080, Note_on_c, 9, 42, 120
6, 190320, Note_off_c, 9, 42, 80
6, 191040, Note_on_c, 9, 42, 120
6, 191280, Note_off_c, 9, 42, 80
6, 192000, Control_c, 9, 10, 0
6, 192000, Note_on_c, 9, 42, 120
6, 192240, Note_off_c, 9, 42, 80
6, 192240, Control_c, 9, 10, 127
6, 192240, Note_on_c, 9, 46, 120
6, 192480, Note_off_c, 9, 46, 80
6, 192480, Control_c, 9, 10, 0
6, 192480, Note_on_c, 9, 42, 120
6, 192720, Note_off_c, 9, 42, 80
6, 192960, Control_c, 9, 10, 127
6, 192960, Note_on_c, 9, 42, 120
6, 193200, Note_off_c, 9, 42, 80
6, 193200, Control_c, 9, 10, 0
6, 193200, Note_on_c, 9, 46, 120
6, 193440, Note_off_c, 9, 46, 80
6, 193920, Control_c, 9, 10, 64
6, 193920, Note_on_c, 9, 42, 120
6, 194160, Note_off_c, 9, 42, 80
6, 194880, Note_on_c, 9, 42, 120
6, 195120, Note_off_c, 9, 42, 80
6, 195840, Note_on_c, 9, 42, 120
6, 196080, Note_off_c, 9, 42, 80
6, 196800, Note_on_c, 9, 42, 120
6, 197040, Note_off_c, 9, 42, 80
6, 197760, Note_on_c, 9, 42, 120
6, 198000, Note_off_c, 9, 42, 80
6, 198720, Note_on_c, 9, 42, 120
6, 198960, Note_off_c, 9, 42, 80
6, 199680, Control_c, 9, 10, 0
6, 199680, Note_on_c, 9, 42, 120
6, 199920, Note_off_c, 9, 42, 80
6, 199920, Control_c, 9, 10, 127
6, 199920, Note_on_c, 9, 46, 120
6, 200160, Note_off_c, 9, 46, 80
6, 200160, Control_c, 9, 10, 0
6, 200160, Note_on_c, 9, 42, 120
6, 200400, Note_off_c, 9, 42, 80
6, 200400, Control_c, 9, 10, 127
6, 200400, Note_on_c, 9, 42, 120
6, 200640, Note_off_c, 9, 42, 80
6, 200640, Control_c, 9, 10, 0
6, 200640, Note_on_c, 9, 46, 120
6, 200880, Note_off_c, 9, 46, 80
6, 201600, Control_c, 9, 10, 64
6, 201600, Note_on_c, 9, 42, 120
6, 201840, Note_off_c, 9, 42, 80
6, 202560, Note_on_c, 9, 42, 120
6, 202800, Note_off_c, 9, 42, 80
6, 203520, Note_on_c, 9, 42, 120
6, 203760, Note_off_c, 9, 42, 80
6, 204480, Note_on_c, 9, 42, 120
6, 204720, Note_off_c, 9, 42, 80
6, 205440, Note_on_c, 9, 42, 120
6, 205680, Note_off_c, 9, 42, 80
6, 206400, Note_on_c, 9, 42, 120
6, 206640, Note_off_c, 9, 42, 80
6, 207360, Note_on_c, 9, 42, 120
6, 207600, Note_off_c, 9, 42, 80
6, 207600, Note_on_c, 9, 46, 120
6, 207840, Note_off_c, 9, 46, 80
6, 207840, Note_on_c, 9, 42, 120
6, 208080, Note_off_c, 9, 42, 80
6, 208080, Note_on_c, 9, 42, 120
6, 208320, Note_off_c, 9, 42, 80
6, 208320, Note_on_c, 9, 46, 120
6, 208560, Note_off_c, 9, 46, 80
6, 208560, Note_on_c, 9, 36, 120
6, 208800, Note_off_c, 9, 36, 80
6, 208800, Note_on_c, 9, 36, 120
6, 209040, Note_off_c, 9, 36, 80
6, 209040, Note_on_c, 9, 36, 120
6, 209280, Note_off_c, 9, 36, 80
6, 209280, Note_on_c, 9, 36, 120
6, 209520, Note_off_c, 9, 36, 80
6, 209520, Note_on_c, 9, 36, 120
6, 209760, Note_off_c, 9, 36, 80
6, 209760, Note_on_c, 9, 36, 120
6, 210000, Note_off_c, 9, 36, 80
6, 210000, Note_on_c, 9, 36, 120
6, 210240, Note_off_c, 9, 36, 80
6, 210240, Note_on_c, 9, 36, 120
6, 210480, Note_off_c, 9, 36, 80
6, 210480, Note_on_c, 9, 36, 120
6, 210720, Note_off_c, 9, 36, 80
6, 210720, Note_on_c, 9, 36, 120
6, 210960, Note_off_c, 9, 36, 80
6, 210960, Note_on_c, 9, 36, 120
6, 211200, Note_off_c, 9, 36, 80
6, 211200, Note_on_c, 9, 36, 120
6, 211440, Note_off_c, 9, 36, 80
6, 211440, Note_on_c, 9, 36, 120
6, 211680, Note_off_c, 9, 36, 80
6, 211680, Note_on_c, 9, 36, 120
6, 211920, Note_off_c, 9, 36, 80
6, 211920, Note_on_c, 9, 36, 120
6, 212160, Note_off_c, 9, 36, 80
6, 212160, Note_on_c, 9, 36, 120
6, 212400, Note_off_c, 9, 36, 80
6, 212400, Note_on_c, 9, 36, 120
6, 212640, Note_off_c, 9, 36, 80
6, 212640, Note_on_c, 9, 36, 120
6, 212880, Note_off_c, 9, 36, 80
6, 212880, Note_on_c, 9, 36, 120
6, 213120, Note_off_c, 9, 36, 80
6, 213120, Note_on_c, 9, 36, 120
6, 213120, Note_on_c, 9, 46, 120
6, 213360, Note_off_c, 9, 46, 80
6, 213360, Note_off_c, 9, 36, 80
6, 214080, Note_on_c, 9, 36, 120
6, 214080, Note_on_c, 9, 51, 120
6, 214320, Note_off_c, 9, 51, 80
6, 214320, Note_off_c, 9, 36, 80
6, 215040, Note_on_c, 9, 36, 120
6, 215040, Note_on_c, 9, 51, 120
6, 215280, Note_off_c, 9, 51, 80
6, 215280, Note_off_c, 9, 36, 80
6, 216000, Note_on_c, 9, 36, 120
6, 216000, Note_on_c, 9, 51, 120
6, 216240, Note_off_c, 9, 51, 80
6, 216240, Note_off_c, 9, 36, 80
6, 216960, Note_on_c, 9, 36, 120
6, 216960, Note_on_c, 9, 51, 120
6, 217200, Note_off_c, 9, 51, 80
6, 217200, Note_off_c, 9, 36, 80
6, 217920, Note_on_c, 9, 36, 120
6, 217920, Note_on_c, 9, 51, 120
6, 218160, Note_off_c, 9, 51, 80
6, 218160, Note_off_c, 9, 36, 80
6, 218880, Note_on_c, 9, 36, 120
6, 218880, Note_on_c, 9, 51, 120
6, 219120, Note_off_c, 9, 51, 80
6, 219120, Note_off_c, 9, 36, 80
6, 219840, Note_on_c, 9, 36, 120
6, 219840, Note_on_c, 9, 51, 120
6, 220080, Note_off_c, 9, 51, 80
6, 220080, Note_off_c, 9, 36, 80
6, 220080, Note_on_c, 9, 46, 120
6, 220320, Note_off_c, 9, 46, 80
6, 220320, Note_on_c, 9, 42, 120
6, 220560, Note_off_c, 9, 42, 80
6, 220560, Note_on_c, 9, 46, 120
6, 220800, Note_off_c, 9, 46, 80
6, 220800, Note_on_c, 9, 36, 120
6, 220800, Note_on_c, 9, 51, 120
6, 221040, Note_off_c, 9, 51, 80
6, 221040, Note_off_c, 9, 36, 80
6, 221760, Note_on_c, 9, 36, 120
6, 221760, Note_on_c, 9, 51, 120
6, 222000, Note_off_c, 9, 51, 80
6, 222000, Note_off_c, 9, 36, 80
6, 222720, Note_on_c, 9, 36, 120
6, 222720, Note_on_c, 9, 51, 120
6, 222960, Note_off_c, 9, 51, 80
6, 222960, Note_off_c, 9, 36, 80
6, 223680, Note_on_c, 9, 36, 120
6, 223680, Note_on_c, 9, 51, 120
6, 223920, Note_off_c, 9, 51, 80
6, 223920, Note_off_c, 9, 36, 80
6, 224640, Note_on_c, 9, 36, 120
6, 224640, Note_on_c, 9, 51, 120
6, 224880, Note_off_c, 9, 51, 80
6, 224880, Note_off_c, 9, 36, 80
6, 225600, Note_on_c, 9, 36, 120
6, 225600, Note_on_c, 9, 51, 120
6, 225840, Note_off_c, 9, 51, 80
6, 225840, Note_off_c, 9, 36, 80
6, 226560, Note_on_c, 9, 36, 120
6, 226560, Note_on_c, 9, 51, 120
6, 226560, Control_c, 9, 10, 0
6, 226800, Note_off_c, 9, 51, 80
6, 226800, Note_off_c, 9, 36, 80
6, 226800, Note_on_c, 9, 46, 120
6, 226800, Control_c, 9, 10, 127
6, 227040, Note_off_c, 9, 46, 80
6, 227040, Note_on_c, 9, 42, 120
6, 227040, Control_c, 9, 10, 0
6, 227280, Note_off_c, 9, 42, 80
6, 227280, Note_on_c, 9, 42, 120
6, 227520, Note_off_c, 9, 42, 80
6, 227520, Note_on_c, 9, 36, 120
6, 227520, Note_on_c, 9, 51, 120
6, 227520, Note_on_c, 9, 46, 120
6, 227520, Control_c, 9, 10, 127
6, 227760, Note_off_c, 9, 46, 80
6, 227760, Note_off_c, 9, 51, 80
6, 227760, Note_off_c, 9, 36, 80
6, 227760, Control_c, 9, 10, 0
6, 228480, Note_on_c, 9, 36, 120
6, 228480, Note_on_c, 9, 51, 120
6, 228480, Control_c, 9, 10, 64
6, 228720, Note_off_c, 9, 51, 80
6, 228720, Note_off_c, 9, 36, 80
6, 229440, Note_on_c, 9, 36, 120
6, 229440, Note_on_c, 9, 51, 120
6, 229680, Note_off_c, 9, 51, 80
6, 229680, Note_off_c, 9, 36, 80
6, 230400, Note_on_c, 9, 36, 120
6, 230400, Note_on_c, 9, 51, 120
6, 230640, Note_off_c, 9, 51, 80
6, 230640, Note_off_c, 9, 36, 80
6, 231360, Note_on_c, 9, 36, 120
6, 231360, Note_on_c, 9, 51, 120
6, 231600, Note_off_c, 9, 51, 80
6, 231600, Note_off_c, 9, 36, 80
6, 232320, Note_on_c, 9, 36, 120
6, 232320, Note_on_c, 9, 51, 120
6, 232560, Note_off_c, 9, 51, 80
6, 232560, Note_off_c, 9, 36, 80
6, 233280, Note_on_c, 9, 36, 120
6, 233280, Note_on_c, 9, 51, 120
6, 233520, Note_off_c, 9, 51, 80
6, 233520, Note_off_c, 9, 36, 80
6, 234240, Note_on_c, 9, 36, 120
6, 234240, Note_on_c, 9, 51, 120
6, 234480, Note_off_c, 9, 51, 80
6, 234480, Note_off_c, 9, 36, 80
6, 235200, Note_on_c, 9, 36, 120
6, 235200, Note_on_c, 9, 51, 120
6, 235200, Control_c, 9, 10, 0
6, 235440, Note_off_c, 9, 51, 80
6, 235440, Note_off_c, 9, 36, 80
6, 235440, Note_on_c, 9, 48, 120
6, 235560, Note_off_c, 9, 48, 80
6, 235560, Note_on_c, 9, 48, 120
6, 235680, Note_off_c, 9, 48, 80
6, 235680, Note_on_c, 9, 47, 120
6, 235680, Note_on_c, 9, 36, 120
6, 235800, Note_off_c, 9, 47, 80
6, 235800, Note_on_c, 9, 47, 120
6, 235920, Note_off_c, 9, 36, 80
6, 235920, Note_off_c, 9, 47, 80
6, 235920, Note_on_c, 9, 47, 120
6, 235920, Note_on_c, 9, 36, 120
6, 236040, Note_off_c, 9, 47, 80
6, 236160, Note_off_c, 9, 36, 80
6, 236160, Note_on_c, 9, 36, 120
6, 236160, Note_on_c, 9, 49, 120
6, 236160, Control_c, 9, 10, 64
6, 236400, Note_off_c, 9, 49, 80
6, 236400, Note_off_c, 9, 36, 80
6, 236400, Note_on_c, 9, 36, 120
6, 236640, Note_off_c, 9, 36, 80
6, 236640, Note_on_c, 9, 36, 120
6, 236880, Note_off_c, 9, 36, 80
6, 236880, Note_on_c, 9, 36, 120
6, 237120, Note_off_c, 9, 36, 80
6, 237120, Note_on_c, 9, 36, 120
6, 237360, Note_off_c, 9, 36, 80
6, 237360, Note_on_c, 9, 36, 120
6, 237600, Note_off_c, 9, 36, 80
6, 237600, Note_on_c, 9, 36, 120
6, 237840, Note_off_c, 9, 36, 80
6, 237840, Note_on_c, 9, 36, 120
6, 238080, Note_off_c, 9, 36, 80
6, 238080, Note_on_c, 9, 36, 120
6, 238320, Note_off_c, 9, 36, 80
6, 238320, Note_on_c, 9, 36, 120
6, 238560, Note_off_c, 9, 36, 80
6, 238560, Note_on_c, 9, 36, 120
6, 238800, Note_off_c, 9, 36, 80
6, 238800, Note_on_c, 9, 36, 120
6, 239040, Note_off_c, 9, 36, 80
6, 239040, Note_on_c, 9, 36, 120
6, 239280, Note_off_c, 9, 36, 80
6, 239280, Note_on_c, 9, 36, 120
6, 239520, Note_off_c, 9, 36, 80
6, 239520, Note_on_c, 9, 36, 120
6, 239760, Note_off_c, 9, 36, 80
6, 239760, Note_on_c, 9, 36, 120
6, 240000, Note_off_c, 9, 36, 80
6, 240000, Note_on_c, 9, 36, 120
6, 240000, Note_on_c, 9, 46, 120
6, 240240, Note_off_c, 9, 46, 80
6, 240240, Note_off_c, 9, 36, 80
6, 240960, Note_on_c, 9, 36, 120
6, 240960, Note_on_c, 9, 51, 120
6, 241200, Note_off_c, 9, 51, 80
6, 241200, Note_off_c, 9, 36, 80
6, 241920, Note_on_c, 9, 36, 120
6, 241920, Note_on_c, 9, 51, 120
6, 242160, Note_off_c, 9, 51, 80
6, 242160, Note_off_c, 9, 36, 80
6, 242880, Note_on_c, 9, 36, 120
6, 242880, Note_on_c, 9, 51, 120
6, 243120, Note_off_c, 9, 51, 80
6, 243120, Note_off_c, 9, 36, 80
6, 243840, Note_on_c, 9, 36, 120
6, 243840, Note_on_c, 9, 51, 120
6, 244080, Note_off_c, 9, 51, 80
6, 244080, Note_off_c, 9, 36, 80
6, 244800, Note_on_c, 9, 36, 120
6, 244800, Note_on_c, 9, 51, 120
6, 245040, Note_off_c, 9, 51, 80
6, 245040, Note_off_c, 9, 36, 80
6, 245760, Note_on_c, 9, 36, 120
6, 245760, Note_on_c, 9, 51, 120
6, 246000, Note_off_c, 9, 51, 80
6, 246000, Note_off_c, 9, 36, 80
6, 246720, Note_on_c, 9, 36, 120
6, 246720, Note_on_c, 9, 51, 120
6, 246960, Note_off_c, 9, 51, 80
6, 246960, Note_off_c, 9, 36, 80
6, 246960, Note_on_c, 9, 46, 120
6, 247200, Note_off_c, 9, 46, 80
6, 247200, Note_on_c, 9, 42, 120
6, 247440, Note_off_c, 9, 42, 80
6, 247440, Note_on_c, 9, 46, 120
6, 247680, Note_off_c, 9, 46, 80
6, 247680, Note_on_c, 9, 36, 120
6, 247680, Note_on_c, 9, 51, 120
6, 247680, Control_c, 9, 7, 120
6, 247920, Note_off_c, 9, 51, 80
6, 247920, Note_off_c, 9, 36, 80
6, 248640, Note_on_c, 9, 36, 120
6, 248640, Note_on_c, 9, 51, 120
6, 248880, Note_off_c, 9, 51, 80
6, 248880, Note_off_c, 9, 36, 80
6, 249360, Control_c, 9, 7, 110
6, 249600, Note_on_c, 9, 36, 120
6, 249600, Note_on_c, 9, 51, 120
6, 249840, Note_off_c, 9, 51, 80
6, 249840, Note_off_c, 9, 36, 80
6, 250560, Note_on_c, 9, 36, 120
6, 250560, Note_on_c, 9, 51, 120
6, 250800, Note_off_c, 9, 51, 80
6, 250800, Note_off_c, 9, 36, 80
6, 251040, Control_c, 9, 7, 100
6, 251520, Note_on_c, 9, 36, 120
6, 251520, Note_on_c, 9, 51, 120
6, 251760, Note_off_c, 9, 51, 80
6, 251760, Note_off_c, 9, 36, 80
6, 252480, Note_on_c, 9, 36, 120
6, 252480, Note_on_c, 9, 51, 120
6, 252720, Note_off_c, 9, 51, 80
6, 252720, Note_off_c, 9, 36, 80
6, 253440, Note_on_c, 9, 36, 120
6, 253440, Note_on_c, 9, 51, 120
6, 253440, Control_c, 9, 10, 0
6, 253680, Note_off_c, 9, 51, 80
6, 253680, Note_off_c, 9, 36, 80
6, 253680, Note_on_c, 9, 46, 120
6, 253680, Control_c, 9, 10, 127
6, 253920, Note_off_c, 9, 46, 80
6, 253920, Note_on_c, 9, 42, 120
6, 253920, Control_c, 9, 10, 0
6, 254160, Note_off_c, 9, 42, 80
6, 254160, Note_on_c, 9, 42, 120
6, 254160, Control_c, 9, 7, 90
6, 254400, Note_off_c, 9, 42, 80
6, 254400, Note_on_c, 9, 36, 120
6, 254400, Note_on_c, 9, 51, 120
6, 254400, Note_on_c, 9, 46, 120
6, 254400, Control_c, 9, 10, 127
6, 254640, Note_off_c, 9, 46, 80
6, 254640, Note_off_c, 9, 51, 80
6, 254640, Note_off_c, 9, 36, 80
6, 254640, Control_c, 9, 10, 0
6, 254880, Control_c, 9, 7, 80
6, 255360, Note_on_c, 9, 36, 120
6, 255360, Note_on_c, 9, 51, 120
6, 255360, Control_c, 9, 10, 64
6, 255600, Note_off_c, 9, 51, 80
6, 255600, Note_off_c, 9, 36, 80
6, 256320, Note_on_c, 9, 36, 120
6, 256320, Note_on_c, 9, 51, 120
6, 256560, Note_off_c, 9, 51, 80
6, 256560, Note_off_c, 9, 36, 80
6, 256800, Control_c, 9, 7, 70
6, 257280, Note_on_c, 9, 36, 120
6, 257280, Note_on_c, 9, 51, 120
6, 257520, Note_off_c, 9, 51, 80
6, 257520, Note_off_c, 9, 36, 80
6, 258240, Note_on_c, 9, 36, 120
6, 258240, Note_on_c, 9, 51, 120
6, 258480, Note_off_c, 9, 51, 80
6, 258480, Note_off_c, 9, 36, 80
6, 258720, Control_c, 9, 7, 50
6, 259200, Note_on_c, 9, 36, 120
6, 259200, Note_on_c, 9, 51, 120
6, 259440, Note_off_c, 9, 51, 80
6, 259440, Note_off_c, 9, 36, 80
6, 260160, Note_on_c, 9, 36, 120
6, 260160, Note_on_c, 9, 51, 120
6, 260400, Note_off_c, 9, 51, 80
6, 260400, Note_off_c, 9, 36, 80
6, 261120, Note_on_c, 9, 36, 120
6, 261120, Note_on_c, 9, 51, 120
6, 261360, Note_off_c, 9, 51, 80
6, 261360, Note_off_c, 9, 36, 80
6, 261360, Control_c, 9, 7, 30
6, 262080, Note_on_c, 9, 36, 120
6, 262080, Note_on_c, 9, 51, 120
6, 262320, Note_off_c, 9, 51, 80
6, 262320, Note_off_c, 9, 36, 80
6, 262320, Note_on_c, 9, 48, 120
6, 262440, Note_off_c, 9, 48, 80
6, 262440, Note_on_c, 9, 48, 120
6, 262560, Note_off_c, 9, 48, 80
6, 262560, Note_on_c, 9, 47, 120
6, 262560, Note_on_c, 9, 36, 120
6, 262560, Control_c, 9, 7, 20
6, 262680, Note_off_c, 9, 47, 80
6, 262680, Note_on_c, 9, 47, 120
6, 262800, Note_off_c, 9, 36, 80
6, 262800, Note_off_c, 9, 47, 80
6, 262800, Note_on_c, 9, 47, 120
6, 262800, Note_on_c, 9, 36, 120
6, 262920, Note_off_c, 9, 47, 80
6, 263040, Note_off_c, 9, 36, 80
6, 263040, Note_on_c, 9, 36, 120
6, 263040, Note_on_c, 9, 49, 120
6, 263280, Note_off_c, 9, 49, 80
6, 263280, Note_off_c, 9, 36, 80
6, 263280, Note_on_c, 9, 36, 120
6, 263520, Note_off_c, 9, 36, 80
6, 263520, Note_on_c, 9, 36, 120
6, 263760, Note_off_c, 9, 36, 80
6, 263760, Note_on_c, 9, 36, 120
6, 264000, Note_off_c, 9, 36, 80
6, 264000, Note_on_c, 9, 36, 120
6, 264240, Note_off_c, 9, 36, 80
6, 264240, Note_on_c, 9, 36, 120
6, 264480, Note_off_c, 9, 36, 80
6, 264480, Note_on_c, 9, 36, 120
6, 264720, Note_off_c, 9, 36, 80
6, 264720, Note_on_c, 9, 36, 120
6, 264720, Control_c, 9, 7, 5
6, 264960, Note_off_c, 9, 36, 80
6, 264960, Note_on_c, 9, 36, 120
6, 265200, Note_off_c, 9, 36, 80
6, 265200, Note_on_c, 9, 36, 120
6, 265440, Note_off_c, 9, 36, 80
6, 265440, Note_on_c, 9, 36, 120
6, 265680, Note_off_c, 9, 36, 80
6, 265680, Note_on_c, 9, 36, 120
6, 265920, Note_off_c, 9, 36, 80
6, 265920, Note_on_c, 9, 36, 120
6, 266160, Note_off_c, 9, 36, 80
6, 266160, Note_on_c, 9, 36, 120
6, 266400, Note_off_c, 9, 36, 80
6, 266400, Note_on_c, 9, 36, 120
6, 266640, Note_off_c, 9, 36, 80
6, 266640, Note_on_c, 9, 36, 120
6, 266880, Note_off_c, 9, 36, 80
6, 266880, End_track
7, 0, Start_track
7, 0, Title_t, "ROCK GUITAR"
7, 0, MIDI_port, 0
7, 0, Channel_prefix, 4
7, 0, Control_c, 4, 7, 127
7, 0, Control_c, 4, 10, 127
7, 0, Program_c, 4, 30
7, 1920, Note_on_c, 4, 62, 70
7, 1920, Control_c, 4, 10, 127
7, 1920, Control_c, 4, 93, 127
7, 1920, Control_c, 4, 91, 127
7, 1920, Note_on_c, 4, 50, 70
7, 1920, Note_on_c, 4, 57, 70
7, 2320, Note_off_c, 4, 57, 64
7, 2320, Note_off_c, 4, 50, 64
7, 2400, Note_off_c, 4, 62, 80
7, 2400, Note_on_c, 4, 57, 70
7, 2400, Note_on_c, 4, 50, 70
7, 2635, Note_off_c, 4, 50, 64
7, 2635, Note_off_c, 4, 57, 64
7, 2640, Note_on_c, 4, 55, 70
7, 2875, Note_off_c, 4, 55, 64
7, 2880, Note_on_c, 4, 57, 70
7, 2880, Note_on_c, 4, 62, 70
7, 3115, Note_off_c, 4, 62, 64
7, 3115, Note_off_c, 4, 57, 64
7, 3120, Note_on_c, 4, 55, 70
7, 3355, Note_off_c, 4, 55, 64
7, 3360, Note_on_c, 4, 52, 70
7, 3595, Note_off_c, 4, 52, 64
7, 3600, Note_on_c, 4, 50, 70
7, 3835, Note_off_c, 4, 50, 64
7, 4080, Note_on_c, 4, 59, 70
7, 4080, Note_on_c, 4, 55, 70
7, 4080, Note_on_c, 4, 62, 70
7, 4315, Note_off_c, 4, 55, 64
7, 4315, Note_off_c, 4, 59, 64
7, 4320, Note_off_c, 4, 62, 80
7, 4560, Control_c, 4, 1, 127
7, 4560, Note_on_c, 4, 55, 70
7, 4560, Note_on_c, 4, 59, 70
7, 4560, Note_on_c, 4, 62, 70
7, 5520, Note_off_c, 4, 62, 80
7, 5640, Note_off_c, 4, 59, 64
7, 5640, Note_off_c, 4, 55, 64
7, 5760, Control_c, 4, 1, 0
7, 5760, Note_on_c, 4, 57, 70
7, 5760, Note_on_c, 4, 50, 70
7, 6160, Note_off_c, 4, 50, 64
7, 6160, Note_off_c, 4, 57, 64
7, 6240, Note_on_c, 4, 57, 70
7, 6240, Note_on_c, 4, 50, 70
7, 6475, Note_off_c, 4, 50, 64
7, 6475, Note_off_c, 4, 57, 64
7, 6480, Note_on_c, 4, 55, 70
7, 6715, Note_off_c, 4, 55, 64
7, 6720, Note_on_c, 4, 57, 70
7, 6720, Note_on_c, 4, 62, 70
7, 6955, Note_off_c, 4, 62, 64
7, 6955, Note_off_c, 4, 57, 64
7, 6960, Note_on_c, 4, 55, 70
7, 7195, Note_off_c, 4, 55, 64
7, 7200, Note_on_c, 4, 52, 70
7, 7435, Note_off_c, 4, 52, 64
7, 7440, Note_on_c, 4, 50, 70
7, 7675, Note_off_c, 4, 50, 64
7, 7920, Note_on_c, 4, 59, 80
7, 7920, Note_on_c, 4, 55, 80
7, 7920, Note_on_c, 4, 50, 80
7, 8155, Note_off_c, 4, 50, 64
7, 8155, Note_off_c, 4, 55, 64
7, 8160, Note_off_c, 4, 59, 80
7, 8880, Note_on_c, 4, 50, 80
7, 8880, Note_on_c, 4, 55, 80
7, 8880, Note_on_c, 4, 59, 80
7, 9115, Note_off_c, 4, 55, 64
7, 9115, Note_off_c, 4, 50, 64
7, 9120, Note_off_c, 4, 59, 80
7, 9600, Note_on_c, 4, 57, 70
7, 9600, Note_on_c, 4, 50, 70
7, 10000, Note_off_c, 4, 50, 64
7, 10000, Note_off_c, 4, 57, 64
7, 10080, Note_on_c, 4, 57, 70
7, 10080, Note_on_c, 4, 50, 70
7, 10315, Note_off_c, 4, 50, 64
7, 10315, Note_off_c, 4, 57, 64
7, 10320, Note_on_c, 4, 55, 70
7, 10555, Note_off_c, 4, 55, 64
7, 10560, Note_on_c, 4, 57, 70
7, 10560, Note_on_c, 4, 62, 70
7, 10795, Note_off_c, 4, 62, 64
7, 10795, Note_off_c, 4, 57, 64
7, 10800, Note_on_c, 4, 55, 70
7, 11035, Note_off_c, 4, 55, 64
7, 11040, Note_on_c, 4, 52, 70
7, 11275, Note_off_c, 4, 52, 64
7, 11280, Note_on_c, 4, 50, 70
7, 11515, Note_off_c, 4, 50, 64
7, 11760, Note_on_c, 4, 61, 70
7, 11760, Note_on_c, 4, 65, 70
7, 11995, Note_off_c, 4, 65, 64
7, 11995, Note_off_c, 4, 61, 64
7, 12000, Note_on_c, 4, 62, 70
7, 12000, Note_on_c, 4, 66, 70
7, 12060, Note_off_c, 4, 66, 64
7, 12060, Note_off_c, 4, 62, 64
7, 12060, Note_on_c, 4, 67, 50
7, 12060, Note_on_c, 4, 63, 50
7, 12120, Note_on_c, 4, 68, 50
7, 12120, Note_on_c, 4, 64, 50
7, 12150, Note_off_c, 4, 63, 80
7, 12150, Note_off_c, 4, 67, 80
7, 12180, Note_on_c, 4, 69, 50
7, 12180, Note_on_c, 4, 65, 50
7, 12210, Note_off_c, 4, 68, 80
7, 12210, Note_off_c, 4, 64, 80
7, 12240, Note_on_c, 4, 62, 70
7, 12240, Note_on_c, 4, 66, 70
7, 12240, Note_on_c, 4, 71, 70
7, 12240, Note_on_c, 4, 70, 50
7, 12270, Note_off_c, 4, 69, 80
7, 12270, Note_off_c, 4, 65, 80
7, 12330, Note_off_c, 4, 70, 80
7, 13320, Note_off_c, 4, 62, 64
7, 13320, Note_off_c, 4, 66, 64
7, 13320, Note_off_c, 4, 71, 64
7, 13440, Note_on_c, 4, 60, 70
7, 13440, Note_on_c, 4, 64, 70
7, 13440, Note_on_c, 4, 55, 70
7, 14080, Note_off_c, 4, 55, 64
7, 14080, Note_off_c, 4, 64, 64
7, 14080, Note_off_c, 4, 60, 64
7, 14160, Note_on_c, 4, 60, 70
7, 14160, Note_on_c, 4, 65, 70
7, 14160, Note_on_c, 4, 69, 70
7, 14395, Note_off_c, 4, 69, 64
7, 14395, Note_off_c, 4, 65, 64
7, 14395, Note_off_c, 4, 60, 64
7, 14640, Note_on_c, 4, 60, 70
7, 14640, Note_on_c, 4, 65, 70
7, 14640, Note_on_c, 4, 57, 70
7, 15115, Note_off_c, 4, 57, 64
7, 15115, Note_off_c, 4, 65, 64
7, 15115, Note_off_c, 4, 60, 64
7, 15120, Note_on_c, 4, 60, 70
7, 15120, Note_on_c, 4, 65, 70
7, 15120, Note_on_c, 4, 57, 70
7, 15355, Note_off_c, 4, 57, 64
7, 15355, Note_off_c, 4, 65, 64
7, 15355, Note_off_c, 4, 60, 64
7, 15360, Note_on_c, 4, 60, 70
7, 15360, Note_on_c, 4, 64, 70
7, 15360, Note_on_c, 4, 55, 70
7, 15760, Note_off_c, 4, 55, 64
7, 15760, Note_off_c, 4, 64, 64
7, 15760, Note_off_c, 4, 60, 64
7, 17280, Note_on_c, 4, 59, 60
7, 17280, Note_on_c, 4, 64, 60
7, 17280, Note_on_c, 4, 57, 60
7, 17680, Note_off_c, 4, 57, 64
7, 17680, Note_off_c, 4, 64, 64
7, 17680, Note_off_c, 4, 59, 64
7, 18240, Note_on_c, 4, 59, 60
7, 18240, Note_on_c, 4, 64, 60
7, 18240, Note_on_c, 4, 57, 60
7, 18720, Note_off_c, 4, 57, 80
7, 18720, Note_off_c, 4, 64, 80
7, 18720, Note_off_c, 4, 59, 80
7, 19440, Note_on_c, 4, 67, 60
7, 19440, Note_on_c, 4, 62, 60
7, 19440, Note_on_c, 4, 59, 60
7, 19675, Note_off_c, 4, 59, 64
7, 19675, Note_off_c, 4, 62, 64
7, 19675, Note_off_c, 4, 67, 64
7, 19920, Control_c, 4, 1, 127
7, 19920, Note_on_c, 4, 67, 60
7, 19920, Note_on_c, 4, 62, 60
7, 19920, Note_on_c, 4, 59, 60
7, 20647, Note_off_c, 4, 59, 64
7, 20647, Note_off_c, 4, 62, 64
7, 20647, Note_off_c, 4, 67, 64
7, 21120, Control_c, 4, 1, 0
7, 21120, Note_on_c, 4, 64, 60
7, 21120, Note_on_c, 4, 59, 60
7, 21120, Note_on_c, 4, 57, 60
7, 21520, Note_off_c, 4, 57, 64
7, 21520, Note_off_c, 4, 59, 64
7, 21520, Note_off_c, 4, 64, 64
7, 22080, Note_on_c, 4, 59, 60
7, 22080, Note_on_c, 4, 64, 60
7, 22080, Note_on_c, 4, 57, 60
7, 22315, Note_off_c, 4, 57, 64
7, 22315, Note_off_c, 4, 64, 64
7, 22315, Note_off_c, 4, 59, 64
7, 23280, Note_on_c, 4, 62, 64
7, 23280, Note_on_c, 4, 59, 64
7, 23280, Note_on_c, 4, 55, 64
7, 24007, Note_off_c, 4, 55, 64
7, 24007, Note_off_c, 4, 59, 64
7, 24007, Note_off_c, 4, 62, 64
7, 24960, Note_on_c, 4, 59, 70
7, 24960, Note_on_c, 4, 64, 70
7, 24960, Note_on_c, 4, 69, 70
7, 25360, Note_off_c, 4, 69, 64
7, 25360, Note_off_c, 4, 64, 64
7, 25360, Note_off_c, 4, 59, 64
7, 25920, Note_on_c, 4, 69, 70
7, 25920, Note_on_c, 4, 64, 70
7, 25920, Note_on_c, 4, 59, 70
7, 26155, Note_off_c, 4, 59, 64
7, 26155, Note_off_c, 4, 64, 64
7, 26155, Note_off_c, 4, 69, 64
7, 26400, Note_on_c, 4, 59, 60
7, 26400, Note_on_c, 4, 64, 60
7, 26400, Note_on_c, 4, 69, 60
7, 26520, Note_off_c, 4, 69, 80
7, 26520, Note_off_c, 4, 64, 80
7, 26520, Note_off_c, 4, 59, 80
7, 26520, Note_on_c, 4, 70, 60
7, 26520, Note_on_c, 4, 60, 60
7, 26520, Note_on_c, 4, 65, 60
7, 26640, Note_off_c, 4, 65, 80
7, 26640, Note_off_c, 4, 60, 80
7, 26640, Note_off_c, 4, 70, 80
7, 26640, Note_on_c, 4, 62, 70
7, 26640, Note_on_c, 4, 66, 70
7, 26640, Note_on_c, 4, 71, 70
7, 27280, Note_off_c, 4, 71, 64
7, 27280, Note_off_c, 4, 66, 64
7, 27280, Note_off_c, 4, 62, 64
7, 27360, Note_on_c, 4, 62, 60
7, 27360, Note_on_c, 4, 66, 60
7, 27360, Note_on_c, 4, 71, 60
7, 27595, Note_off_c, 4, 71, 64
7, 27595, Note_off_c, 4, 66, 64
7, 27595, Note_off_c, 4, 62, 64
7, 27600, Note_on_c, 4, 62, 60
7, 27600, Note_on_c, 4, 66, 60
7, 27600, Note_on_c, 4, 71, 60
7, 27835, Note_off_c, 4, 71, 64
7, 27835, Note_off_c, 4, 66, 64
7, 27835, Note_off_c, 4, 62, 64
7, 27840, Note_on_c, 4, 62, 60
7, 27840, Note_on_c, 4, 66, 60
7, 27840, Note_on_c, 4, 71, 60
7, 28075, Note_off_c, 4, 71, 64
7, 28075, Note_off_c, 4, 66, 64
7, 28075, Note_off_c, 4, 62, 64
7, 28080, Note_on_c, 4, 62, 60
7, 28080, Note_on_c, 4, 66, 60
7, 28080, Note_on_c, 4, 71, 60
7, 28320, Note_off_c, 4, 71, 80
7, 28320, Note_off_c, 4, 66, 80
7, 28320, Note_off_c, 4, 62, 80
7, 28320, Note_on_c, 4, 71, 60
7, 28320, Note_on_c, 4, 66, 60
7, 28320, Note_on_c, 4, 62, 60
7, 28560, Note_off_c, 4, 62, 80
7, 28560, Note_off_c, 4, 66, 80
7, 28560, Note_off_c, 4, 71, 80
7, 28560, Note_on_c, 4, 60, 60
7, 28560, Note_on_c, 4, 65, 60
7, 28560, Note_on_c, 4, 69, 60
7, 28795, Note_off_c, 4, 69, 64
7, 28795, Note_off_c, 4, 65, 64
7, 28795, Note_off_c, 4, 60, 64
7, 28800, Note_on_c, 4, 60, 70
7, 28800, Note_on_c, 4, 65, 70
7, 28800, Note_on_c, 4, 69, 70
7, 29035, Note_off_c, 4, 69, 64
7, 29035, Note_off_c, 4, 65, 64
7, 29035, Note_off_c, 4, 60, 64
7, 29040, Note_on_c, 4, 60, 70
7, 29040, Note_on_c, 4, 64, 70
7, 29040, Note_on_c, 4, 67, 70
7, 29515, Note_off_c, 4, 67, 64
7, 29515, Note_off_c, 4, 64, 64
7, 29515, Note_off_c, 4, 60, 64
7, 29520, Note_on_c, 4, 60, 80
7, 29520, Note_on_c, 4, 65, 80
7, 29520, Note_on_c, 4, 69, 80
7, 29755, Note_off_c, 4, 69, 64
7, 29755, Note_off_c, 4, 65, 64
7, 29755, Note_off_c, 4, 60, 64
7, 30000, Note_on_c, 4, 60, 80
7, 30000, Note_on_c, 4, 65, 80
7, 30000, Note_on_c, 4, 69, 80
7, 30235, Note_off_c, 4, 69, 64
7, 30235, Note_off_c, 4, 65, 64
7, 30235, Note_off_c, 4, 60, 64
7, 30480, Note_on_c, 4, 60, 80
7, 30480, Note_on_c, 4, 65, 80
7, 30480, Note_on_c, 4, 69, 80
7, 30715, Note_off_c, 4, 69, 64
7, 30715, Note_off_c, 4, 65, 64
7, 30715, Note_off_c, 4, 60, 64
7, 30720, Note_on_c, 4, 60, 80
7, 30720, Note_on_c, 4, 64, 80
7, 30720, Note_on_c, 4, 67, 80
7, 31120, Note_off_c, 4, 67, 64
7, 31120, Note_off_c, 4, 64, 64
7, 31120, Note_off_c, 4, 60, 64
7, 32640, Note_on_c, 4, 59, 64
7, 32640, Note_on_c, 4, 64, 64
7, 32640, Note_on_c, 4, 69, 64
7, 32875, Note_off_c, 4, 69, 64
7, 32875, Note_off_c, 4, 64, 64
7, 32875, Note_off_c, 4, 59, 64
7, 33600, Note_on_c, 4, 59, 64
7, 33600, Note_on_c, 4, 64, 64
7, 33600, Note_on_c, 4, 69, 64
7, 33835, Note_off_c, 4, 69, 64
7, 33835, Note_off_c, 4, 64, 64
7, 33835, Note_off_c, 4, 59, 64
7, 34800, Note_on_c, 4, 67, 64
7, 34800, Note_on_c, 4, 62, 64
7, 34800, Note_on_c, 4, 59, 64
7, 35035, Note_off_c, 4, 59, 64
7, 35035, Note_off_c, 4, 62, 64
7, 35035, Note_off_c, 4, 67, 64
7, 35280, Control_c, 4, 1, 127
7, 35280, Note_on_c, 4, 67, 64
7, 35280, Note_on_c, 4, 62, 64
7, 35280, Note_on_c, 4, 59, 64
7, 36007, Note_off_c, 4, 59, 64
7, 36007, Note_off_c, 4, 62, 64
7, 36007, Note_off_c, 4, 67, 64
7, 36480, Control_c, 4, 1, 0
7, 36480, Note_on_c, 4, 59, 64
7, 36480, Note_on_c, 4, 64, 64
7, 36480, Note_on_c, 4, 69, 64
7, 36880, Note_off_c, 4, 69, 64
7, 36880, Note_off_c, 4, 64, 64
7, 36880, Note_off_c, 4, 59, 64
7, 37440, Note_on_c, 4, 59, 64
7, 37440, Note_on_c, 4, 64, 64
7, 37440, Note_on_c, 4, 69, 64
7, 37675, Note_off_c, 4, 69, 64
7, 37675, Note_off_c, 4, 64, 64
7, 37675, Note_off_c, 4, 59, 64
7, 38640, Control_c, 4, 1, 127
7, 38640, Note_on_c, 4, 67, 64
7, 38640, Note_on_c, 4, 62, 64
7, 38640, Note_on_c, 4, 59, 64
7, 39367, Note_off_c, 4, 59, 64
7, 39367, Note_off_c, 4, 62, 64
7, 39367, Note_off_c, 4, 67, 64
7, 40320, Control_c, 4, 1, 0
7, 40320, Note_on_c, 4, 59, 70
7, 40320, Note_on_c, 4, 64, 70
7, 40320, Note_on_c, 4, 57, 70
7, 40720, Note_off_c, 4, 57, 64
7, 40720, Note_off_c, 4, 64, 64
7, 40720, Note_off_c, 4, 59, 64
7, 41280, Note_on_c, 4, 59, 70
7, 41280, Note_on_c, 4, 64, 70
7, 41280, Note_on_c, 4, 57, 70
7, 41515, Note_off_c, 4, 57, 64
7, 41515, Note_off_c, 4, 64, 64
7, 41515, Note_off_c, 4, 59, 64
7, 41520, Note_on_c, 4, 65, 60
7, 41520, Note_on_c, 4, 60, 60
7, 41550, Note_on_c, 4, 59, 60
7, 41580, Note_off_c, 4, 60, 80
7, 41580, Note_off_c, 4, 65, 80
7, 41580, Note_on_c, 4, 66, 60
7, 41580, Note_on_c, 4, 61, 60
7, 41610, Note_off_c, 4, 59, 80
7, 41640, Note_off_c, 4, 66, 80
7, 41640, Note_off_c, 4, 61, 80
7, 41670, Note_on_c, 4, 67, 60
7, 41670, Note_on_c, 4, 62, 60
7, 41670, Note_on_c, 4, 60, 60
7, 41730, Note_off_c, 4, 60, 80
7, 41730, Note_off_c, 4, 62, 80
7, 41730, Note_off_c, 4, 67, 80
7, 41730, Note_on_c, 4, 63, 60
7, 41760, Note_on_c, 4, 68, 60
7, 41760, Note_on_c, 4, 61, 60
7, 41790, Note_off_c, 4, 63, 80
7, 41790, Note_on_c, 4, 64, 60
7, 41820, Note_off_c, 4, 68, 80
7, 41820, Note_off_c, 4, 61, 80
7, 41850, Note_off_c, 4, 64, 80
7, 41850, Note_on_c, 4, 69, 60
7, 41850, Note_on_c, 4, 65, 60
7, 41850, Note_on_c, 4, 61, 60
7, 41910, Note_off_c, 4, 61, 80
7, 41910, Note_off_c, 4, 65, 80
7, 41910, Note_off_c, 4, 69, 80
7, 41940, Note_on_c, 4, 70, 60
7, 41940, Note_on_c, 4, 65, 60
7, 41940, Note_on_c, 4, 62, 60
7, 42000, Note_off_c, 4, 62, 80
7, 42000, Note_off_c, 4, 65, 80
7, 42000, Note_off_c, 4, 70, 80
7, 42000, Note_on_c, 4, 62, 70
7, 42000, Note_on_c, 4, 66, 70
7, 42000, Note_on_c, 4, 71, 70
7, 42640, Note_off_c, 4, 71, 64
7, 42640, Note_off_c, 4, 66, 64
7, 42640, Note_off_c, 4, 62, 64
7, 42720, Note_on_c, 4, 66, 64
7, 42720, Note_on_c, 4, 62, 64
7, 42720, Note_on_c, 4, 59, 64
7, 42960, Note_off_c, 4, 59, 80
7, 42960, Note_off_c, 4, 62, 80
7, 42960, Note_off_c, 4, 66, 80
7, 42960, Note_on_c, 4, 66, 64
7, 42960, Note_on_c, 4, 62, 64
7, 42960, Note_on_c, 4, 59, 64
7, 43200, Note_off_c, 4, 59, 80
7, 43200, Note_off_c, 4, 62, 80
7, 43200, Note_off_c, 4, 66, 80
7, 43200, Note_on_c, 4, 62, 64
7, 43200, Note_on_c, 4, 66, 64
7, 43200, Note_on_c, 4, 59, 64
7, 43435, Note_off_c, 4, 59, 64
7, 43435, Note_off_c, 4, 66, 64
7, 43435, Note_off_c, 4, 62, 64
7, 43920, Note_on_c, 4, 60, 80
7, 43920, Note_on_c, 4, 65, 80
7, 43920, Note_on_c, 4, 69, 80
7, 44395, Note_off_c, 4, 69, 64
7, 44395, Note_off_c, 4, 65, 64
7, 44395, Note_off_c, 4, 60, 64
7, 44400, Note_on_c, 4, 60, 80
7, 44400, Note_on_c, 4, 64, 80
7, 44400, Note_on_c, 4, 67, 80
7, 44875, Note_off_c, 4, 67, 64
7, 44875, Note_off_c, 4, 64, 64
7, 44875, Note_off_c, 4, 60, 64
7, 44880, Note_on_c, 4, 60, 80
7, 44880, Note_on_c, 4, 65, 80
7, 44880, Note_on_c, 4, 69, 80
7, 45115, Note_off_c, 4, 69, 64
7, 45115, Note_off_c, 4, 65, 64
7, 45115, Note_off_c, 4, 60, 64
7, 45360, Note_on_c, 4, 60, 80
7, 45360, Note_on_c, 4, 65, 80
7, 45360, Note_on_c, 4, 69, 80
7, 45595, Note_off_c, 4, 69, 64
7, 45595, Note_off_c, 4, 65, 64
7, 45595, Note_off_c, 4, 60, 64
7, 45840, Note_on_c, 4, 60, 80
7, 45840, Note_on_c, 4, 65, 80
7, 45840, Note_on_c, 4, 69, 80
7, 46075, Note_off_c, 4, 69, 64
7, 46075, Note_off_c, 4, 65, 64
7, 46075, Note_off_c, 4, 60, 64
7, 46080, Note_on_c, 4, 60, 80
7, 46080, Note_on_c, 4, 64, 80
7, 46080, Note_on_c, 4, 67, 80
7, 46315, Note_off_c, 4, 67, 64
7, 46315, Note_off_c, 4, 64, 64
7, 46315, Note_off_c, 4, 60, 64
7, 48000, Note_on_c, 4, 53, 90
7, 48000, Control_c, 4, 10, 0
7, 48480, Note_off_c, 4, 53, 80
7, 48960, Control_c, 4, 1, 127
7, 48960, Note_on_c, 4, 60, 90
7, 48960, Control_c, 4, 10, 127
7, 49920, Note_off_c, 4, 60, 80
7, 49920, Control_c, 4, 1, 0
7, 49920, Note_on_c, 4, 53, 90
7, 49920, Control_c, 4, 10, 0
7, 50400, Note_off_c, 4, 53, 80
7, 50880, Control_c, 4, 1, 127
7, 50880, Note_on_c, 4, 60, 90
7, 50880, Control_c, 4, 10, 127
7, 51840, Note_off_c, 4, 60, 80
7, 51840, Note_on_c, 4, 53, 90
7, 51840, Control_c, 4, 10, 0
7, 52320, Note_off_c, 4, 53, 80
7, 52800, Note_on_c, 4, 60, 90
7, 52800, Control_c, 4, 10, 127
7, 53760, Note_off_c, 4, 60, 80
7, 53760, Control_c, 4, 10, 64
7, 54000, Control_c, 4, 1, 0
7, 54480, Note_on_c, 4, 62, 64
7, 54480, Note_on_c, 4, 67, 64
7, 54480, Note_on_c, 4, 59, 64
7, 54715, Note_off_c, 4, 59, 64
7, 54715, Note_off_c, 4, 67, 64
7, 54715, Note_off_c, 4, 62, 64
7, 54720, Note_on_c, 4, 67, 64
7, 54720, Note_on_c, 4, 62, 64
7, 54720, Note_on_c, 4, 59, 64
7, 54955, Note_off_c, 4, 59, 64
7, 54955, Note_off_c, 4, 62, 64
7, 54955, Note_off_c, 4, 67, 64
7, 54960, Note_on_c, 4, 59, 64
7, 54960, Note_on_c, 4, 62, 64
7, 54960, Note_on_c, 4, 67, 64
7, 55200, Note_off_c, 4, 67, 80
7, 55200, Note_off_c, 4, 62, 80
7, 55200, Note_off_c, 4, 59, 80
7, 55200, Note_on_c, 4, 67, 64
7, 55200, Note_on_c, 4, 62, 64
7, 55200, Note_on_c, 4, 59, 64
7, 55440, Note_off_c, 4, 59, 80
7, 55440, Note_off_c, 4, 62, 80
7, 55440, Note_off_c, 4, 67, 80
7, 55440, Note_on_c, 4, 67, 64
7, 55440, Note_on_c, 4, 62, 64
7, 55440, Note_on_c, 4, 59, 64
7, 55680, Note_off_c, 4, 59, 80
7, 55680, Note_off_c, 4, 62, 80
7, 55680, Note_off_c, 4, 67, 80
7, 55680, Note_on_c, 4, 55, 64
7, 55680, Control_c, 4, 10, 0
7, 56160, Note_off_c, 4, 55, 80
7, 56640, Control_c, 4, 1, 127
7, 56640, Note_on_c, 4, 62, 90
7, 56640, Control_c, 4, 10, 127
7, 57600, Note_off_c, 4, 62, 80
7, 57600, Control_c, 4, 1, 0
7, 57600, Note_on_c, 4, 55, 90
7, 57600, Control_c, 4, 10, 0
7, 58080, Note_off_c, 4, 55, 80
7, 58560, Control_c, 4, 1, 127
7, 58560, Note_on_c, 4, 62, 90
7, 58560, Control_c, 4, 10, 127
7, 59520, Note_off_c, 4, 62, 80
7, 59520, Control_c, 4, 1, 0
7, 59520, Note_on_c, 4, 55, 90
7, 59520, Control_c, 4, 10, 0
7, 60000, Note_off_c, 4, 55, 80
7, 60480, Control_c, 4, 1, 127
7, 60480, Note_on_c, 4, 62, 90
7, 60480, Control_c, 4, 10, 127
7, 61360, Control_c, 4, 1, 0
7, 61440, Note_off_c, 4, 62, 80
7, 61680, Note_on_c, 4, 60, 70
7, 61680, Note_on_c, 4, 64, 70
7, 61680, Note_on_c, 4, 55, 70
7, 61680, Control_c, 4, 10, 65
7, 61920, Note_off_c, 4, 55, 80
7, 61920, Note_off_c, 4, 64, 80
7, 61920, Note_off_c, 4, 60, 80
7, 61920, Note_on_c, 4, 64, 70
7, 61920, Note_on_c, 4, 60, 70
7, 61920, Note_on_c, 4, 55, 70
7, 62400, Note_off_c, 4, 55, 80
7, 62400, Note_off_c, 4, 60, 80
7, 62400, Note_off_c, 4, 64, 80
7, 62640, Control_c, 4, 10, 0
7, 62640, Note_on_c, 4, 55, 70
7, 62640, Note_on_c, 4, 59, 70
7, 62640, Note_on_c, 4, 62, 70
7, 62880, Note_off_c, 4, 62, 80
7, 62880, Note_off_c, 4, 59, 80
7, 62880, Note_off_c, 4, 55, 80
7, 62880, Control_c, 4, 10, 127
7, 62880, Note_on_c, 4, 55, 70
7, 62880, Note_on_c, 4, 59, 70
7, 62880, Note_on_c, 4, 62, 70
7, 63360, Note_off_c, 4, 62, 80
7, 63360, Note_off_c, 4, 59, 80
7, 63360, Note_off_c, 4, 55, 80
7, 63360, Note_on_c, 4, 53, 90
7, 63360, Control_c, 4, 10, 0
7, 63840, Note_off_c, 4, 53, 80
7, 64320, Control_c, 4, 1, 127
7, 64320, Note_on_c, 4, 60, 90
7, 64320, Control_c, 4, 10, 127
7, 65280, Note_off_c, 4, 60, 80
7, 65280, Control_c, 4, 1, 0
7, 65280, Note_on_c, 4, 53, 90
7, 65280, Control_c, 4, 10, 0
7, 65760, Note_off_c, 4, 53, 80
7, 66240, Control_c, 4, 1, 127
7, 66240, Note_on_c, 4, 60, 90
7, 66240, Control_c, 4, 10, 127
7, 67200, Note_off_c, 4, 60, 80
7, 67200, Control_c, 4, 1, 0
7, 67200, Note_on_c, 4, 53, 90
7, 67200, Control_c, 4, 10, 0
7, 67680, Note_off_c, 4, 53, 80
7, 68160, Control_c, 4, 1, 127
7, 68160, Note_on_c, 4, 60, 90
7, 68160, Control_c, 4, 10, 127
7, 69120, Note_off_c, 4, 60, 80
7, 69840, Control_c, 4, 1, 0
7, 69840, Note_on_c, 4, 53, 64
7, 69840, Note_on_c, 4, 60, 64
7, 69840, Note_on_c, 4, 57, 64
7, 70080, Note_off_c, 4, 57, 80
7, 70080, Note_off_c, 4, 60, 80
7, 70080, Note_off_c, 4, 53, 80
7, 70080, Note_on_c, 4, 53, 64
7, 70080, Note_on_c, 4, 60, 64
7, 70080, Note_on_c, 4, 57, 64
7, 70320, Note_off_c, 4, 57, 80
7, 70320, Note_off_c, 4, 60, 80
7, 70320, Note_off_c, 4, 53, 80
7, 70320, Note_on_c, 4, 60, 64
7, 70320, Note_on_c, 4, 53, 64
7, 70320, Note_on_c, 4, 57, 64
7, 70560, Note_off_c, 4, 57, 80
7, 70560, Note_off_c, 4, 53, 80
7, 70560, Note_off_c, 4, 60, 80
7, 70560, Note_on_c, 4, 53, 64
7, 70560, Note_on_c, 4, 60, 64
7, 70560, Note_on_c, 4, 57, 64
7, 70800, Note_off_c, 4, 57, 80
7, 70800, Note_off_c, 4, 60, 80
7, 70800, Note_off_c, 4, 53, 80
7, 70800, Note_on_c, 4, 60, 64
7, 70800, Note_on_c, 4, 53, 64
7, 70800, Note_on_c, 4, 57, 64
7, 71040, Note_off_c, 4, 57, 80
7, 71040, Note_off_c, 4, 53, 80
7, 71040, Note_off_c, 4, 60, 80
7, 71040, Note_on_c, 4, 65, 64
7, 71040, Note_on_c, 4, 60, 64
7, 71040, Note_on_c, 4, 57, 64
7, 71280, Note_off_c, 4, 57, 80
7, 71280, Note_off_c, 4, 60, 80
7, 71280, Note_off_c, 4, 65, 80
7, 71760, Note_on_c, 4, 60, 70
7, 71760, Note_on_c, 4, 64, 70
7, 71760, Note_on_c, 4, 55, 70
7, 71995, Note_off_c, 4, 55, 64
7, 71995, Note_off_c, 4, 64, 64
7, 71995, Note_off_c, 4, 60, 64
7, 72480, Note_on_c, 4, 60, 70
7, 72480, Note_on_c, 4, 65, 70
7, 72480, Note_on_c, 4, 57, 70
7, 73195, Note_off_c, 4, 57, 64
7, 73195, Note_off_c, 4, 65, 64
7, 73195, Note_off_c, 4, 60, 64
7, 73200, Note_on_c, 4, 60, 70
7, 73200, Note_on_c, 4, 64, 70
7, 73200, Note_on_c, 4, 55, 70
7, 73435, Note_off_c, 4, 55, 64
7, 73435, Note_off_c, 4, 64, 64
7, 73435, Note_off_c, 4, 60, 64
7, 73680, Note_on_c, 4, 62, 70
7, 73680, Note_on_c, 4, 67, 70
7, 73915, Note_off_c, 4, 67, 64
7, 73915, Note_off_c, 4, 62, 64
7, 73920, Note_on_c, 4, 62, 70
7, 73920, Note_on_c, 4, 67, 70
7, 74155, Note_off_c, 4, 67, 64
7, 74155, Note_off_c, 4, 62, 64
7, 74160, Note_on_c, 4, 62, 70
7, 74160, Note_on_c, 4, 67, 70
7, 74160, Note_on_c, 4, 59, 70
7, 74395, Note_off_c, 4, 59, 64
7, 74395, Note_off_c, 4, 67, 64
7, 74395, Note_off_c, 4, 62, 64
7, 74400, Note_on_c, 4, 62, 70
7, 74400, Note_on_c, 4, 67, 70
7, 74400, Note_on_c, 4, 59, 70
7, 74635, Note_off_c, 4, 59, 64
7, 74635, Note_off_c, 4, 67, 64
7, 74635, Note_off_c, 4, 62, 64
7, 74640, Note_on_c, 4, 62, 70
7, 74640, Note_on_c, 4, 67, 70
7, 74640, Note_on_c, 4, 59, 70
7, 74875, Note_off_c, 4, 59, 64
7, 74875, Note_off_c, 4, 67, 64
7, 74875, Note_off_c, 4, 62, 64
7, 74880, Note_on_c, 4, 67, 70
7, 74880, Note_on_c, 4, 62, 70
7, 74880, Note_on_c, 4, 59, 70
7, 75520, Note_off_c, 4, 59, 64
7, 75520, Note_off_c, 4, 62, 64
7, 75520, Note_off_c, 4, 67, 64
7, 75600, Note_on_c, 4, 62, 70
7, 75600, Note_on_c, 4, 66, 70
7, 75600, Note_on_c, 4, 57, 70
7, 75835, Note_off_c, 4, 57, 64
7, 75835, Note_off_c, 4, 66, 64
7, 75835, Note_off_c, 4, 62, 64
7, 76320, Note_on_c, 4, 62, 70
7, 76320, Note_on_c, 4, 67, 70
7, 76320, Note_on_c, 4, 59, 70
7, 77035, Note_off_c, 4, 59, 64
7, 77035, Note_off_c, 4, 67, 64
7, 77035, Note_off_c, 4, 62, 64
7, 77040, Note_on_c, 4, 66, 70
7, 77040, Note_on_c, 4, 62, 70
7, 77040, Note_on_c, 4, 57, 70
7, 77287, Note_off_c, 4, 57, 64
7, 77287, Note_off_c, 4, 62, 64
7, 77287, Note_off_c, 4, 66, 64
7, 78720, Note_on_c, 4, 57, 80
7, 78720, Note_on_c, 4, 50, 80
7, 79120, Note_off_c, 4, 50, 64
7, 79120, Note_off_c, 4, 57, 64
7, 79200, Note_on_c, 4, 57, 80
7, 79200, Note_on_c, 4, 62, 80
7, 79435, Note_off_c, 4, 62, 64
7, 79435, Note_off_c, 4, 57, 64
7, 79440, Note_on_c, 4, 55, 80
7, 79675, Note_off_c, 4, 55, 64
7, 79680, Note_on_c, 4, 57, 80
7, 79680, Note_on_c, 4, 62, 80
7, 79915, Note_off_c, 4, 62, 64
7, 79915, Note_off_c, 4, 57, 64
7, 79920, Note_on_c, 4, 55, 80
7, 80155, Note_off_c, 4, 55, 64
7, 80160, Note_on_c, 4, 52, 80
7, 80395, Note_off_c, 4, 52, 64
7, 80400, Note_on_c, 4, 50, 80
7, 80635, Note_off_c, 4, 50, 64
7, 80880, Note_on_c, 4, 55, 80
7, 80880, Note_on_c, 4, 59, 80
7, 81115, Note_off_c, 4, 59, 64
7, 81115, Note_off_c, 4, 55, 64
7, 81360, Note_on_c, 4, 55, 80
7, 81360, Note_on_c, 4, 59, 80
7, 82440, Note_off_c, 4, 59, 64
7, 82440, Note_off_c, 4, 55, 64
7, 82560, Note_on_c, 4, 57, 80
7, 82560, Note_on_c, 4, 62, 80
7, 82960, Note_off_c, 4, 62, 64
7, 82960, Note_off_c, 4, 57, 64
7, 83040, Note_on_c, 4, 57, 80
7, 83040, Note_on_c, 4, 62, 80
7, 83275, Note_off_c, 4, 62, 64
7, 83275, Note_off_c, 4, 57, 64
7, 83280, Note_on_c, 4, 55, 80
7, 83515, Note_off_c, 4, 55, 64
7, 83520, Note_on_c, 4, 57, 80
7, 83520, Note_on_c, 4, 62, 80
7, 83755, Note_off_c, 4, 62, 64
7, 83755, Note_off_c, 4, 57, 64
7, 83760, Note_on_c, 4, 55, 80
7, 83995, Note_off_c, 4, 55, 64
7, 84000, Note_on_c, 4, 52, 80
7, 84235, Note_off_c, 4, 52, 64
7, 84240, Note_on_c, 4, 50, 80
7, 84475, Note_off_c, 4, 50, 64
7, 84720, Note_on_c, 4, 50, 100
7, 84720, Note_on_c, 4, 55, 100
7, 84720, Note_on_c, 4, 59, 90
7, 84955, Note_off_c, 4, 55, 64
7, 84955, Note_off_c, 4, 50, 64
7, 84960, Note_off_c, 4, 59, 80
7, 85680, Note_on_c, 4, 50, 100
7, 85680, Note_on_c, 4, 55, 100
7, 85680, Note_on_c, 4, 59, 90
7, 85915, Note_off_c, 4, 55, 64
7, 85915, Note_off_c, 4, 50, 64
7, 85920, Note_off_c, 4, 59, 80
7, 86400, Note_on_c, 4, 50, 80
7, 86400, Note_on_c, 4, 57, 80
7, 86800, Note_off_c, 4, 57, 64
7, 86800, Note_off_c, 4, 50, 64
7, 86880, Note_on_c, 4, 57, 80
7, 86880, Note_on_c, 4, 50, 80
7, 87115, Note_off_c, 4, 50, 64
7, 87115, Note_off_c, 4, 57, 64
7, 87120, Note_on_c, 4, 55, 80
7, 87355, Note_off_c, 4, 55, 64
7, 87360, Note_on_c, 4, 57, 80
7, 87360, Note_on_c, 4, 62, 80
7, 87595, Note_off_c, 4, 62, 64
7, 87595, Note_off_c, 4, 57, 64
7, 87600, Note_on_c, 4, 55, 80
7, 87835, Note_off_c, 4, 55, 64
7, 87840, Note_on_c, 4, 52, 80
7, 88075, Note_off_c, 4, 52, 64
7, 88080, Note_on_c, 4, 50, 80
7, 88315, Note_off_c, 4, 50, 64
7, 88560, Note_on_c, 4, 61, 70
7, 88560, Note_on_c, 4, 65, 70
7, 88795, Note_off_c, 4, 65, 64
7, 88795, Note_off_c, 4, 61, 64
7, 88800, Note_on_c, 4, 62, 70
7, 88800, Note_on_c, 4, 66, 70
7, 88860, Note_off_c, 4, 66, 64
7, 88860, Note_off_c, 4, 62, 64
7, 88860, Note_on_c, 4, 67, 50
7, 88860, Note_on_c, 4, 63, 50
7, 88920, Note_on_c, 4, 68, 50
7, 88920, Note_on_c, 4, 64, 50
7, 88950, Note_off_c, 4, 63, 80
7, 88950, Note_off_c, 4, 67, 80
7, 88980, Note_on_c, 4, 69, 50
7, 88980, Note_on_c, 4, 65, 50
7, 89010, Note_off_c, 4, 68, 80
7, 89010, Note_off_c, 4, 64, 80
7, 89040, Note_on_c, 4, 62, 70
7, 89040, Note_on_c, 4, 66, 70
7, 89040, Note_on_c, 4, 71, 70
7, 89040, Note_on_c, 4, 70, 50
7, 89070, Note_off_c, 4, 69, 80
7, 89070, Note_off_c, 4, 65, 80
7, 89130, Note_off_c, 4, 70, 80
7, 90120, Note_off_c, 4, 62, 64
7, 90120, Note_off_c, 4, 66, 64
7, 90120, Note_off_c, 4, 71, 64
7, 90240, Note_on_c, 4, 60, 80
7, 90240, Note_on_c, 4, 64, 80
7, 90240, Note_on_c, 4, 55, 80
7, 90880, Note_off_c, 4, 55, 64
7, 90880, Note_off_c, 4, 64, 64
7, 90880, Note_off_c, 4, 60, 64
7, 90960, Note_on_c, 4, 60, 80
7, 90960, Note_on_c, 4, 65, 80
7, 90960, Note_on_c, 4, 57, 80
7, 91195, Note_off_c, 4, 57, 64
7, 91195, Note_off_c, 4, 65, 64
7, 91195, Note_off_c, 4, 60, 64
7, 91440, Note_on_c, 4, 60, 80
7, 91440, Note_on_c, 4, 65, 80
7, 91440, Note_on_c, 4, 57, 80
7, 91915, Note_off_c, 4, 57, 64
7, 91915, Note_off_c, 4, 65, 64
7, 91915, Note_off_c, 4, 60, 64
7, 91920, Note_on_c, 4, 60, 80
7, 91920, Note_on_c, 4, 65, 80
7, 91920, Note_on_c, 4, 57, 80
7, 92155, Note_off_c, 4, 57, 64
7, 92155, Note_off_c, 4, 65, 64
7, 92155, Note_off_c, 4, 60, 64
7, 92160, Note_on_c, 4, 60, 80
7, 92160, Note_on_c, 4, 64, 80
7, 92160, Note_on_c, 4, 55, 80
7, 92560, Note_off_c, 4, 55, 64
7, 92560, Note_off_c, 4, 64, 64
7, 92560, Note_off_c, 4, 60, 64
7, 94080, Note_on_c, 4, 59, 64
7, 94080, Note_on_c, 4, 64, 64
7, 94080, Note_on_c, 4, 57, 64
7, 94480, Note_off_c, 4, 57, 64
7, 94480, Note_off_c, 4, 64, 64
7, 94480, Note_off_c, 4, 59, 64
7, 95040, Note_on_c, 4, 64, 64
7, 95040, Note_on_c, 4, 59, 64
7, 95040, Note_on_c, 4, 57, 64
7, 95280, Note_off_c, 4, 57, 64
7, 95280, Note_off_c, 4, 59, 64
7, 95280, Note_off_c, 4, 64, 64
7, 96240, Note_on_c, 4, 62, 64
7, 96240, Note_on_c, 4, 67, 64
7, 96240, Note_on_c, 4, 59, 64
7, 96475, Note_off_c, 4, 59, 64
7, 96475, Note_off_c, 4, 67, 64
7, 96475, Note_off_c, 4, 62, 64
7, 96720, Note_on_c, 4, 62, 64
7, 96720, Note_on_c, 4, 67, 64
7, 96720, Note_on_c, 4, 59, 64
7, 97360, Note_off_c, 4, 59, 64
7, 97360, Note_off_c, 4, 67, 64
7, 97360, Note_off_c, 4, 62, 64
7, 97920, Note_on_c, 4, 59, 64
7, 97920, Note_on_c, 4, 64, 64
7, 97920, Note_on_c, 4, 57, 64
7, 98320, Note_off_c, 4, 57, 64
7, 98320, Note_off_c, 4, 64, 64
7, 98320, Note_off_c, 4, 59, 64
7, 98880, Note_on_c, 4, 59, 64
7, 98880, Note_on_c, 4, 64, 64
7, 98880, Note_on_c, 4, 57, 64
7, 99115, Note_off_c, 4, 57, 64
7, 99115, Note_off_c, 4, 64, 64
7, 99115, Note_off_c, 4, 59, 64
7, 100080, Note_on_c, 4, 62, 64
7, 100080, Note_on_c, 4, 67, 64
7, 100080, Note_on_c, 4, 59, 64
7, 100720, Note_off_c, 4, 59, 64
7, 100720, Note_off_c, 4, 67, 64
7, 100720, Note_off_c, 4, 62, 64
7, 101760, Note_on_c, 4, 59, 64
7, 101760, Note_on_c, 4, 64, 64
7, 101760, Note_on_c, 4, 69, 64
7, 102160, Note_off_c, 4, 69, 64
7, 102160, Note_off_c, 4, 64, 64
7, 102160, Note_off_c, 4, 59, 64
7, 102240, Note_on_c, 4, 59, 64
7, 102240, Note_on_c, 4, 64, 64
7, 102240, Note_on_c, 4, 69, 64
7, 102475, Note_off_c, 4, 69, 64
7, 102475, Note_off_c, 4, 64, 64
7, 102475, Note_off_c, 4, 59, 64
7, 102480, Note_on_c, 4, 59, 64
7, 102480, Note_on_c, 4, 64, 64
7, 102480, Note_on_c, 4, 69, 64
7, 102715, Note_off_c, 4, 69, 64
7, 102715, Note_off_c, 4, 64, 64
7, 102715, Note_off_c, 4, 59, 64
7, 102720, Note_on_c, 4, 59, 64
7, 102720, Note_on_c, 4, 64, 64
7, 102720, Note_on_c, 4, 69, 64
7, 102955, Note_off_c, 4, 69, 64
7, 102955, Note_off_c, 4, 64, 64
7, 102955, Note_off_c, 4, 59, 64
7, 103440, Note_on_c, 4, 62, 64
7, 103440, Note_on_c, 4, 66, 64
7, 103440, Note_on_c, 4, 71, 64
7, 104080, Note_off_c, 4, 71, 64
7, 104080, Note_off_c, 4, 66, 64
7, 104080, Note_off_c, 4, 62, 64
7, 104160, Note_on_c, 4, 62, 64
7, 104160, Note_on_c, 4, 66, 64
7, 104160, Note_on_c, 4, 71, 64
7, 104395, Note_off_c, 4, 71, 64
7, 104395, Note_off_c, 4, 66, 64
7, 104395, Note_off_c, 4, 62, 64
7, 104400, Note_on_c, 4, 62, 64
7, 104400, Note_on_c, 4, 66, 64
7, 104400, Note_on_c, 4, 71, 64
7, 104635, Note_off_c, 4, 71, 64
7, 104635, Note_off_c, 4, 66, 64
7, 104635, Note_off_c, 4, 62, 64
7, 104640, Note_on_c, 4, 62, 64
7, 104640, Note_on_c, 4, 66, 64
7, 104640, Note_on_c, 4, 71, 64
7, 104875, Note_off_c, 4, 71, 64
7, 104875, Note_off_c, 4, 66, 64
7, 104875, Note_off_c, 4, 62, 64
7, 104880, Note_on_c, 4, 69, 64
7, 105115, Note_off_c, 4, 69, 64
7, 105120, Note_on_c, 4, 67, 64
7, 105355, Note_off_c, 4, 67, 64
7, 105360, Note_on_c, 4, 60, 80
7, 105360, Note_on_c, 4, 65, 80
7, 105360, Note_on_c, 4, 69, 80
7, 105595, Note_off_c, 4, 69, 64
7, 105595, Note_off_c, 4, 65, 64
7, 105595, Note_off_c, 4, 60, 64
7, 105600, Note_on_c, 4, 60, 80
7, 105600, Note_on_c, 4, 65, 80
7, 105600, Note_on_c, 4, 69, 80
7, 105835, Note_off_c, 4, 69, 64
7, 105835, Note_off_c, 4, 65, 64
7, 105835, Note_off_c, 4, 60, 64
7, 105840, Note_on_c, 4, 60, 80
7, 105840, Note_on_c, 4, 64, 80
7, 105840, Note_on_c, 4, 67, 80
7, 106315, Note_off_c, 4, 67, 64
7, 106315, Note_off_c, 4, 64, 64
7, 106315, Note_off_c, 4, 60, 64
7, 106320, Note_on_c, 4, 60, 80
7, 106320, Note_on_c, 4, 65, 80
7, 106320, Note_on_c, 4, 69, 80
7, 106555, Note_off_c, 4, 69, 64
7, 106555, Note_off_c, 4, 65, 64
7, 106555, Note_off_c, 4, 60, 64
7, 106800, Note_on_c, 4, 60, 80
7, 106800, Note_on_c, 4, 65, 80
7, 106800, Note_on_c, 4, 69, 80
7, 107035, Note_off_c, 4, 69, 64
7, 107035, Note_off_c, 4, 65, 64
7, 107035, Note_off_c, 4, 60, 64
7, 107280, Note_on_c, 4, 60, 80
7, 107280, Note_on_c, 4, 65, 80
7, 107280, Note_on_c, 4, 69, 80
7, 107515, Note_off_c, 4, 69, 64
7, 107515, Note_off_c, 4, 65, 64
7, 107515, Note_off_c, 4, 60, 64
7, 107520, Note_on_c, 4, 60, 80
7, 107520, Note_on_c, 4, 64, 80
7, 107520, Note_on_c, 4, 67, 80
7, 107920, Note_off_c, 4, 67, 64
7, 107920, Note_off_c, 4, 64, 64
7, 107920, Note_off_c, 4, 60, 64
7, 109440, Note_on_c, 4, 59, 64
7, 109440, Note_on_c, 4, 64, 64
7, 109440, Note_on_c, 4, 69, 64
7, 109675, Note_off_c, 4, 69, 64
7, 109675, Note_off_c, 4, 64, 64
7, 109675, Note_off_c, 4, 59, 64
7, 110400, Note_on_c, 4, 59, 64
7, 110400, Note_on_c, 4, 64, 64
7, 110400, Note_on_c, 4, 69, 64
7, 110635, Note_off_c, 4, 69, 64
7, 110635, Note_off_c, 4, 64, 64
7, 110635, Note_off_c, 4, 59, 64
7, 111600, Note_on_c, 4, 67, 64
7, 111600, Note_on_c, 4, 62, 64
7, 111600, Note_on_c, 4, 59, 64
7, 111835, Note_off_c, 4, 59, 64
7, 111835, Note_off_c, 4, 62, 64
7, 111835, Note_off_c, 4, 67, 64
7, 112080, Control_c, 4, 1, 127
7, 112080, Note_on_c, 4, 67, 64
7, 112080, Note_on_c, 4, 62, 64
7, 112080, Note_on_c, 4, 59, 64
7, 112807, Note_off_c, 4, 59, 64
7, 112807, Note_off_c, 4, 62, 64
7, 112807, Note_off_c, 4, 67, 64
7, 113280, Control_c, 4, 1, 0
7, 113280, Note_on_c, 4, 59, 64
7, 113280, Note_on_c, 4, 64, 64
7, 113280, Note_on_c, 4, 69, 64
7, 113680, Note_off_c, 4, 69, 64
7, 113680, Note_off_c, 4, 64, 64
7, 113680, Note_off_c, 4, 59, 64
7, 114240, Note_on_c, 4, 59, 64
7, 114240, Note_on_c, 4, 64, 64
7, 114240, Note_on_c, 4, 69, 64
7, 114475, Note_off_c, 4, 69, 64
7, 114475, Note_off_c, 4, 64, 64
7, 114475, Note_off_c, 4, 59, 64
7, 115440, Control_c, 4, 1, 127
7, 115440, Note_on_c, 4, 67, 64
7, 115440, Note_on_c, 4, 62, 64
7, 115440, Note_on_c, 4, 59, 64
7, 116167, Note_off_c, 4, 59, 64
7, 116167, Note_off_c, 4, 62, 64
7, 116167, Note_off_c, 4, 67, 64
7, 117120, Control_c, 4, 1, 0
7, 117120, Note_on_c, 4, 59, 70
7, 117120, Note_on_c, 4, 64, 70
7, 117120, Note_on_c, 4, 57, 70
7, 117520, Note_off_c, 4, 57, 64
7, 117520, Note_off_c, 4, 64, 64
7, 117520, Note_off_c, 4, 59, 64
7, 118080, Note_on_c, 4, 59, 70
7, 118080, Note_on_c, 4, 64, 70
7, 118080, Note_on_c, 4, 57, 70
7, 118315, Note_off_c, 4, 57, 64
7, 118315, Note_off_c, 4, 64, 64
7, 118315, Note_off_c, 4, 59, 64
7, 118320, Note_on_c, 4, 65, 60
7, 118320, Note_on_c, 4, 60, 60
7, 118350, Note_on_c, 4, 59, 60
7, 118380, Note_off_c, 4, 60, 80
7, 118380, Note_off_c, 4, 65, 80
7, 118380, Note_on_c, 4, 66, 60
7, 118380, Note_on_c, 4, 61, 60
7, 118410, Note_off_c, 4, 59, 80
7, 118440, Note_off_c, 4, 66, 80
7, 118440, Note_off_c, 4, 61, 80
7, 118470, Note_on_c, 4, 67, 60
7, 118470, Note_on_c, 4, 62, 60
7, 118470, Note_on_c, 4, 60, 60
7, 118530, Note_off_c, 4, 60, 80
7, 118530, Note_off_c, 4, 62, 80
7, 118530, Note_off_c, 4, 67, 80
7, 118530, Note_on_c, 4, 63, 60
7, 118560, Note_on_c, 4, 68, 60
7, 118560, Note_on_c, 4, 61, 60
7, 118590, Note_off_c, 4, 63, 80
7, 118590, Note_on_c, 4, 64, 60
7, 118620, Note_off_c, 4, 68, 80
7, 118620, Note_off_c, 4, 61, 80
7, 118650, Note_off_c, 4, 64, 80
7, 118650, Note_on_c, 4, 69, 60
7, 118650, Note_on_c, 4, 65, 60
7, 118650, Note_on_c, 4, 61, 60
7, 118710, Note_off_c, 4, 61, 80
7, 118710, Note_off_c, 4, 65, 80
7, 118710, Note_off_c, 4, 69, 80
7, 118740, Note_on_c, 4, 70, 60
7, 118740, Note_on_c, 4, 65, 60
7, 118740, Note_on_c, 4, 62, 60
7, 118800, Note_off_c, 4, 62, 80
7, 118800, Note_off_c, 4, 65, 80
7, 118800, Note_off_c, 4, 70, 80
7, 118800, Note_on_c, 4, 62, 70
7, 118800, Note_on_c, 4, 66, 70
7, 118800, Note_on_c, 4, 71, 70
7, 119440, Note_off_c, 4, 71, 64
7, 119440, Note_off_c, 4, 66, 64
7, 119440, Note_off_c, 4, 62, 64
7, 119520, Note_on_c, 4, 66, 60
7, 119520, Note_on_c, 4, 62, 60
7, 119520, Note_on_c, 4, 59, 60
7, 119760, Note_off_c, 4, 59, 80
7, 119760, Note_off_c, 4, 62, 80
7, 119760, Note_off_c, 4, 66, 80
7, 119760, Note_on_c, 4, 66, 60
7, 119760, Note_on_c, 4, 62, 60
7, 119760, Note_on_c, 4, 59, 60
7, 120000, Note_off_c, 4, 59, 80
7, 120000, Note_off_c, 4, 62, 80
7, 120000, Note_off_c, 4, 66, 80
7, 120000, Note_on_c, 4, 62, 60
7, 120000, Note_on_c, 4, 66, 60
7, 120000, Note_on_c, 4, 59, 60
7, 120235, Note_off_c, 4, 59, 64
7, 120235, Note_off_c, 4, 66, 64
7, 120235, Note_off_c, 4, 62, 64
7, 120720, Note_on_c, 4, 60, 64
7, 120720, Note_on_c, 4, 65, 64
7, 120720, Note_on_c, 4, 69, 64
7, 121195, Note_off_c, 4, 69, 64
7, 121195, Note_off_c, 4, 65, 64
7, 121195, Note_off_c, 4, 60, 64
7, 121200, Note_on_c, 4, 60, 64
7, 121200, Note_on_c, 4, 64, 64
7, 121200, Note_on_c, 4, 67, 64
7, 121675, Note_off_c, 4, 67, 64
7, 121675, Note_off_c, 4, 64, 64
7, 121675, Note_off_c, 4, 60, 64
7, 121680, Note_on_c, 4, 60, 64
7, 121680, Note_on_c, 4, 65, 64
7, 121680, Note_on_c, 4, 69, 64
7, 121915, Note_off_c, 4, 69, 64
7, 121915, Note_off_c, 4, 65, 64
7, 121915, Note_off_c, 4, 60, 64
7, 122160, Note_on_c, 4, 60, 80
7, 122160, Note_on_c, 4, 65, 80
7, 122160, Note_on_c, 4, 69, 80
7, 122395, Note_off_c, 4, 69, 64
7, 122395, Note_off_c, 4, 65, 64
7, 122395, Note_off_c, 4, 60, 64
7, 122640, Note_on_c, 4, 60, 80
7, 122640, Note_on_c, 4, 65, 80
7, 122640, Note_on_c, 4, 69, 80
7, 122875, Note_off_c, 4, 69, 64
7, 122875, Note_off_c, 4, 65, 64
7, 122875, Note_off_c, 4, 60, 64
7, 122880, Note_on_c, 4, 60, 80
7, 122880, Note_on_c, 4, 64, 80
7, 122880, Note_on_c, 4, 67, 80
7, 123115, Note_off_c, 4, 67, 64
7, 123115, Note_off_c, 4, 64, 64
7, 123115, Note_off_c, 4, 60, 64
7, 124800, Note_on_c, 4, 53, 90
7, 124800, Control_c, 4, 10, 0
7, 125280, Note_off_c, 4, 53, 80
7, 125760, Control_c, 4, 1, 127
7, 125760, Note_on_c, 4, 60, 90
7, 125760, Control_c, 4, 10, 127
7, 126720, Note_off_c, 4, 60, 80
7, 126720, Control_c, 4, 1, 0
7, 126720, Note_on_c, 4, 53, 90
7, 126720, Control_c, 4, 10, 0
7, 127200, Note_off_c, 4, 53, 80
7, 127680, Control_c, 4, 1, 127
7, 127680, Note_on_c, 4, 60, 90
7, 127680, Control_c, 4, 10, 127
7, 128640, Note_off_c, 4, 60, 80
7, 128640, Note_on_c, 4, 53, 90
7, 128640, Control_c, 4, 10, 0
7, 129120, Note_off_c, 4, 53, 80
7, 129600, Note_on_c, 4, 60, 90
7, 129600, Control_c, 4, 10, 127
7, 130560, Note_off_c, 4, 60, 80
7, 130560, Control_c, 4, 10, 64
7, 130800, Control_c, 4, 1, 0
7, 131280, Note_on_c, 4, 62, 60
7, 131280, Note_on_c, 4, 67, 60
7, 131280, Note_on_c, 4, 59, 60
7, 131515, Note_off_c, 4, 59, 64
7, 131515, Note_off_c, 4, 67, 64
7, 131515, Note_off_c, 4, 62, 64
7, 131520, Note_on_c, 4, 67, 60
7, 131520, Note_on_c, 4, 62, 60
7, 131520, Note_on_c, 4, 59, 60
7, 131755, Note_off_c, 4, 59, 64
7, 131755, Note_off_c, 4, 62, 64
7, 131755, Note_off_c, 4, 67, 64
7, 131760, Note_on_c, 4, 59, 60
7, 131760, Note_on_c, 4, 62, 60
7, 131760, Note_on_c, 4, 67, 60
7, 132000, Note_off_c, 4, 67, 80
7, 132000, Note_off_c, 4, 62, 80
7, 132000, Note_off_c, 4, 59, 80
7, 132000, Note_on_c, 4, 67, 60
7, 132000, Note_on_c, 4, 62, 60
7, 132000, Note_on_c, 4, 59, 60
7, 132240, Note_off_c, 4, 59, 80
7, 132240, Note_off_c, 4, 62, 80
7, 132240, Note_off_c, 4, 67, 80
7, 132240, Note_on_c, 4, 67, 60
7, 132240, Note_on_c, 4, 62, 60
7, 132240, Note_on_c, 4, 59, 60
7, 132480, Note_off_c, 4, 59, 80
7, 132480, Note_off_c, 4, 62, 80
7, 132480, Note_off_c, 4, 67, 80
7, 132480, Note_on_c, 4, 55, 60
7, 132480, Control_c, 4, 10, 0
7, 132960, Note_off_c, 4, 55, 80
7, 133440, Control_c, 4, 1, 127
7, 133440, Note_on_c, 4, 62, 90
7, 133440, Control_c, 4, 10, 127
7, 134400, Note_off_c, 4, 62, 80
7, 134400, Control_c, 4, 1, 0
7, 134400, Note_on_c, 4, 55, 90
7, 134400, Control_c, 4, 10, 0
7, 134880, Note_off_c, 4, 55, 80
7, 135360, Control_c, 4, 1, 127
7, 135360, Note_on_c, 4, 62, 90
7, 135360, Control_c, 4, 10, 127
7, 136320, Note_off_c, 4, 62, 80
7, 136320, Control_c, 4, 1, 0
7, 136320, Note_on_c, 4, 55, 90
7, 136320, Control_c, 4, 10, 0
7, 136800, Note_off_c, 4, 55, 80
7, 137280, Control_c, 4, 1, 127
7, 137280, Note_on_c, 4, 62, 90
7, 137280, Control_c, 4, 10, 127
7, 138160, Control_c, 4, 1, 0
7, 138240, Note_off_c, 4, 62, 80
7, 138480, Note_on_c, 4, 60, 80
7, 138480, Note_on_c, 4, 64, 80
7, 138480, Note_on_c, 4, 55, 80
7, 138480, Control_c, 4, 10, 65
7, 138720, Note_off_c, 4, 55, 80
7, 138720, Note_off_c, 4, 64, 80
7, 138720, Note_off_c, 4, 60, 80
7, 138720, Note_on_c, 4, 64, 80
7, 138720, Note_on_c, 4, 60, 80
7, 138720, Note_on_c, 4, 55, 80
7, 139200, Note_off_c, 4, 55, 80
7, 139200, Note_off_c, 4, 60, 80
7, 139200, Note_off_c, 4, 64, 80
7, 139440, Note_on_c, 4, 55, 80
7, 139440, Note_on_c, 4, 59, 80
7, 139440, Note_on_c, 4, 62, 80
7, 139680, Note_off_c, 4, 62, 80
7, 139680, Note_off_c, 4, 59, 80
7, 139680, Note_off_c, 4, 55, 80
7, 139680, Note_on_c, 4, 55, 80
7, 139680, Note_on_c, 4, 59, 80
7, 139680, Note_on_c, 4, 62, 80
7, 140160, Note_off_c, 4, 62, 80
7, 140160, Note_off_c, 4, 59, 80
7, 140160, Note_off_c, 4, 55, 80
7, 140160, Note_on_c, 4, 53, 80
7, 140160, Control_c, 4, 10, 0
7, 140640, Note_off_c, 4, 53, 80
7, 141120, Control_c, 4, 1, 127
7, 141120, Note_on_c, 4, 60, 90
7, 141120, Control_c, 4, 10, 127
7, 142080, Note_off_c, 4, 60, 80
7, 142080, Control_c, 4, 1, 0
7, 142080, Note_on_c, 4, 53, 90
7, 142080, Control_c, 4, 10, 0
7, 142560, Note_off_c, 4, 53, 80
7, 143040, Control_c, 4, 1, 127
7, 143040, Note_on_c, 4, 60, 90
7, 143040, Control_c, 4, 10, 127
7, 144000, Note_off_c, 4, 60, 80
7, 144000, Control_c, 4, 1, 0
7, 144000, Note_on_c, 4, 53, 90
7, 144000, Control_c, 4, 10, 0
7, 144480, Note_off_c, 4, 53, 80
7, 144960, Control_c, 4, 1, 127
7, 144960, Note_on_c, 4, 60, 90
7, 144960, Control_c, 4, 10, 127
7, 145920, Note_off_c, 4, 60, 80
7, 146640, Control_c, 4, 1, 0
7, 146640, Note_on_c, 4, 53, 80
7, 146640, Note_on_c, 4, 60, 80
7, 146640, Note_on_c, 4, 57, 80
7, 146880, Note_off_c, 4, 57, 80
7, 146880, Note_off_c, 4, 60, 80
7, 146880, Note_off_c, 4, 53, 80
7, 146880, Note_on_c, 4, 53, 80
7, 146880, Note_on_c, 4, 60, 80
7, 146880, Note_on_c, 4, 57, 80
7, 147120, Note_off_c, 4, 57, 80
7, 147120, Note_off_c, 4, 60, 80
7, 147120, Note_off_c, 4, 53, 80
7, 147120, Note_on_c, 4, 60, 80
7, 147120, Note_on_c, 4, 53, 80
7, 147120, Note_on_c, 4, 57, 80
7, 147360, Note_off_c, 4, 57, 80
7, 147360, Note_off_c, 4, 53, 80
7, 147360, Note_off_c, 4, 60, 80
7, 147360, Note_on_c, 4, 53, 80
7, 147360, Note_on_c, 4, 60, 80
7, 147360, Note_on_c, 4, 57, 80
7, 147600, Note_off_c, 4, 57, 80
7, 147600, Note_off_c, 4, 60, 80
7, 147600, Note_off_c, 4, 53, 80
7, 147600, Note_on_c, 4, 60, 80
7, 147600, Note_on_c, 4, 53, 80
7, 147600, Note_on_c, 4, 57, 80
7, 147840, Note_off_c, 4, 57, 80
7, 147840, Note_off_c, 4, 53, 80
7, 147840, Note_off_c, 4, 60, 80
7, 147840, Note_on_c, 4, 65, 90
7, 147840, Note_on_c, 4, 60, 90
7, 147840, Note_on_c, 4, 57, 90
7, 148080, Note_off_c, 4, 57, 80
7, 148080, Note_off_c, 4, 60, 80
7, 148080, Note_off_c, 4, 65, 80
7, 148560, Note_on_c, 4, 60, 70
7, 148560, Note_on_c, 4, 64, 70
7, 148560, Note_on_c, 4, 55, 70
7, 148795, Note_off_c, 4, 55, 64
7, 148795, Note_off_c, 4, 64, 64
7, 148795, Note_off_c, 4, 60, 64
7, 149280, Note_on_c, 4, 60, 70
7, 149280, Note_on_c, 4, 65, 70
7, 149280, Note_on_c, 4, 57, 70
7, 149995, Note_off_c, 4, 57, 64
7, 149995, Note_off_c, 4, 65, 64
7, 149995, Note_off_c, 4, 60, 64
7, 150000, Note_on_c, 4, 60, 70
7, 150000, Note_on_c, 4, 64, 70
7, 150000, Note_on_c, 4, 55, 70
7, 150235, Note_off_c, 4, 55, 64
7, 150235, Note_off_c, 4, 64, 64
7, 150235, Note_off_c, 4, 60, 64
7, 150480, Note_on_c, 4, 62, 70
7, 150480, Note_on_c, 4, 67, 70
7, 150715, Note_off_c, 4, 67, 64
7, 150715, Note_off_c, 4, 62, 64
7, 150720, Note_on_c, 4, 62, 70
7, 150720, Note_on_c, 4, 67, 70
7, 150955, Note_off_c, 4, 67, 64
7, 150955, Note_off_c, 4, 62, 64
7, 150960, Note_on_c, 4, 62, 70
7, 150960, Note_on_c, 4, 67, 70
7, 150960, Note_on_c, 4, 59, 70
7, 151195, Note_off_c, 4, 59, 64
7, 151195, Note_off_c, 4, 67, 64
7, 151195, Note_off_c, 4, 62, 64
7, 151200, Note_on_c, 4, 62, 70
7, 151200, Note_on_c, 4, 67, 70
7, 151200, Note_on_c, 4, 59, 70
7, 151435, Note_off_c, 4, 59, 64
7, 151435, Note_off_c, 4, 67, 64
7, 151435, Note_off_c, 4, 62, 64
7, 151440, Note_on_c, 4, 62, 70
7, 151440, Note_on_c, 4, 67, 70
7, 151440, Note_on_c, 4, 59, 70
7, 151675, Note_off_c, 4, 59, 64
7, 151675, Note_off_c, 4, 67, 64
7, 151675, Note_off_c, 4, 62, 64
7, 151680, Note_on_c, 4, 62, 70
7, 151680, Note_on_c, 4, 67, 70
7, 151680, Note_on_c, 4, 59, 70
7, 152320, Note_off_c, 4, 59, 64
7, 152320, Note_off_c, 4, 67, 64
7, 152320, Note_off_c, 4, 62, 64
7, 152400, Note_on_c, 4, 62, 70
7, 152400, Note_on_c, 4, 66, 70
7, 152400, Note_on_c, 4, 57, 70
7, 152635, Note_off_c, 4, 57, 64
7, 152635, Note_off_c, 4, 66, 64
7, 152635, Note_off_c, 4, 62, 64
7, 153120, Note_on_c, 4, 62, 70
7, 153120, Note_on_c, 4, 67, 70
7, 153120, Note_on_c, 4, 59, 70
7, 153835, Note_off_c, 4, 59, 64
7, 153835, Note_off_c, 4, 67, 64
7, 153835, Note_off_c, 4, 62, 64
7, 153840, Note_on_c, 4, 66, 90
7, 153840, Note_on_c, 4, 62, 90
7, 153840, Note_on_c, 4, 57, 90
7, 154080, Note_off_c, 4, 57, 80
7, 154080, Note_off_c, 4, 62, 80
7, 154080, Note_off_c, 4, 66, 80
7, 170880, Note_on_c, 4, 64, 64
7, 170880, Note_on_c, 4, 59, 64
7, 170880, Note_on_c, 4, 57, 64
7, 171120, Note_off_c, 4, 57, 64
7, 171120, Note_off_c, 4, 59, 64
7, 171120, Note_off_c, 4, 64, 64
7, 171120, Note_on_c, 4, 64, 64
7, 171120, Note_on_c, 4, 59, 64
7, 171120, Note_on_c, 4, 57, 64
7, 171360, Note_off_c, 4, 57, 80
7, 171360, Note_off_c, 4, 59, 80
7, 171360, Note_off_c, 4, 64, 80
7, 171840, Note_on_c, 4, 64, 64
7, 171840, Note_on_c, 4, 59, 64
7, 171840, Note_on_c, 4, 57, 64
7, 172080, Note_off_c, 4, 57, 80
7, 172080, Note_off_c, 4, 59, 80
7, 172080, Note_off_c, 4, 64, 80
7, 173040, Note_on_c, 4, 59, 64
7, 173040, Note_on_c, 4, 67, 64
7, 173040, Note_on_c, 4, 62, 64
7, 173287, Note_off_c, 4, 62, 64
7, 173287, Note_off_c, 4, 67, 64
7, 173287, Note_off_c, 4, 59, 64
7, 173760, Control_c, 4, 1, 127
7, 173760, Note_on_c, 4, 67, 64
7, 173760, Note_on_c, 4, 62, 64
7, 173760, Note_on_c, 4, 59, 64
7, 174240, Control_c, 4, 1, 0
7, 174473, Note_off_c, 4, 59, 64
7, 174473, Note_off_c, 4, 62, 64
7, 174473, Note_off_c, 4, 67, 64
7, 174720, Note_on_c, 4, 64, 64
7, 174720, Note_on_c, 4, 59, 64
7, 174720, Note_on_c, 4, 57, 64
7, 174955, Note_off_c, 4, 57, 64
7, 174955, Note_off_c, 4, 59, 64
7, 174955, Note_off_c, 4, 64, 64
7, 174960, Note_on_c, 4, 64, 64
7, 174960, Note_on_c, 4, 59, 64
7, 174960, Note_on_c, 4, 57, 64
7, 175195, Note_off_c, 4, 57, 64
7, 175195, Note_off_c, 4, 59, 64
7, 175195, Note_off_c, 4, 64, 64
7, 175680, Note_on_c, 4, 64, 64
7, 175680, Note_on_c, 4, 59, 64
7, 175680, Note_on_c, 4, 57, 64
7, 175915, Note_off_c, 4, 57, 64
7, 175915, Note_off_c, 4, 59, 64
7, 175915, Note_off_c, 4, 64, 64
7, 176880, Control_c, 4, 1, 127
7, 176880, Note_on_c, 4, 67, 64
7, 176880, Note_on_c, 4, 62, 64
7, 176880, Note_on_c, 4, 59, 64
7, 177607, Note_off_c, 4, 59, 64
7, 177607, Note_off_c, 4, 62, 64
7, 177607, Note_off_c, 4, 67, 64
7, 178080, Control_c, 4, 1, 0
7, 178560, Note_on_c, 4, 67, 64
7, 178560, Note_on_c, 4, 64, 64
7, 178560, Note_on_c, 4, 59, 64
7, 178795, Note_off_c, 4, 59, 64
7, 178795, Note_off_c, 4, 64, 64
7, 178795, Note_off_c, 4, 67, 64
7, 178800, Note_on_c, 4, 67, 64
7, 178800, Note_on_c, 4, 64, 64
7, 178800, Note_on_c, 4, 59, 64
7, 179035, Note_off_c, 4, 59, 64
7, 179035, Note_off_c, 4, 64, 64
7, 179035, Note_off_c, 4, 67, 64
7, 179280, Note_on_c, 4, 67, 64
7, 179280, Note_on_c, 4, 64, 64
7, 179280, Note_on_c, 4, 59, 64
7, 180007, Note_off_c, 4, 59, 64
7, 180007, Note_off_c, 4, 64, 64
7, 180007, Note_off_c, 4, 67, 64
7, 180480, Note_on_c, 4, 57, 70
7, 180480, Note_on_c, 4, 62, 70
7, 180480, Note_on_c, 4, 66, 70
7, 180715, Note_off_c, 4, 66, 64
7, 180715, Note_off_c, 4, 62, 64
7, 180715, Note_off_c, 4, 57, 64
7, 180720, Note_on_c, 4, 57, 70
7, 180720, Note_on_c, 4, 62, 70
7, 180720, Note_on_c, 4, 66, 70
7, 180955, Note_off_c, 4, 66, 64
7, 180955, Note_off_c, 4, 62, 64
7, 180955, Note_off_c, 4, 57, 64
7, 181200, Note_on_c, 4, 66, 64
7, 181200, Note_on_c, 4, 62, 64
7, 181200, Note_on_c, 4, 57, 64
7, 181435, Note_off_c, 4, 57, 64
7, 181435, Note_off_c, 4, 62, 64
7, 181435, Note_off_c, 4, 66, 64
7, 181680, Note_on_c, 4, 62, 64
7, 181680, Note_on_c, 4, 66, 64
7, 181680, Note_on_c, 4, 57, 64
7, 181915, Note_off_c, 4, 57, 64
7, 181915, Note_off_c, 4, 66, 64
7, 181915, Note_off_c, 4, 62, 64
7, 182160, Note_on_c, 4, 67, 64
7, 182160, Note_on_c, 4, 64, 64
7, 182160, Note_on_c, 4, 60, 64
7, 182640, Note_off_c, 4, 60, 64
7, 182640, Note_off_c, 4, 64, 64
7, 182640, Note_off_c, 4, 67, 64
7, 182640, Note_on_c, 4, 67, 70
7, 182640, Note_on_c, 4, 64, 70
7, 182640, Note_on_c, 4, 60, 70
7, 182880, Note_off_c, 4, 60, 80
7, 182880, Note_off_c, 4, 64, 80
7, 182880, Note_off_c, 4, 67, 80
7, 183120, Note_on_c, 4, 60, 64
7, 183120, Note_on_c, 4, 65, 64
7, 183120, Note_on_c, 4, 69, 64
7, 183355, Note_off_c, 4, 69, 64
7, 183355, Note_off_c, 4, 65, 64
7, 183355, Note_off_c, 4, 60, 64
7, 183600, Note_on_c, 4, 60, 90
7, 183600, Note_on_c, 4, 65, 90
7, 183600, Note_on_c, 4, 69, 90
7, 184075, Note_off_c, 4, 69, 64
7, 184075, Note_off_c, 4, 65, 64
7, 184075, Note_off_c, 4, 60, 64
7, 184080, Note_on_c, 4, 60, 90
7, 184080, Note_on_c, 4, 65, 90
7, 184080, Note_on_c, 4, 69, 90
7, 184315, Note_off_c, 4, 69, 64
7, 184315, Note_off_c, 4, 65, 64
7, 184315, Note_off_c, 4, 60, 64
7, 184320, Note_on_c, 4, 60, 90
7, 184320, Note_on_c, 4, 64, 90
7, 184320, Note_on_c, 4, 67, 90
7, 184555, Note_off_c, 4, 67, 64
7, 184555, Note_off_c, 4, 64, 64
7, 184555, Note_off_c, 4, 60, 64
7, 240000, Control_c, 4, 10, 0
7, 240000, Note_on_c, 4, 53, 70
7, 240240, Note_off_c, 4, 53, 80
7, 240960, Control_c, 4, 1, 127
7, 240960, Note_on_c, 4, 60, 70
7, 240960, Control_c, 4, 10, 127
7, 241920, Note_off_c, 4, 60, 80
7, 241920, Control_c, 4, 10, 0
7, 241920, Control_c, 4, 1, 0
7, 241920, Note_on_c, 4, 53, 70
7, 242633, Note_off_c, 4, 53, 80
7, 242880, Note_on_c, 4, 59, 70
7, 242880, Control_c, 4, 10, 127
7, 243360, Note_off_c, 4, 59, 80
7, 243360, Note_on_c, 4, 60, 70
7, 243840, Note_off_c, 4, 60, 80
7, 243840, Note_on_c, 4, 62, 70
7, 243840, Control_c, 4, 10, 0
7, 244320, Note_off_c, 4, 62, 80
7, 244320, Note_on_c, 4, 60, 70
7, 244560, Note_off_c, 4, 60, 80
7, 244800, Note_on_c, 4, 59, 70
7, 244800, Control_c, 4, 10, 127
7, 245040, Note_off_c, 4, 59, 80
7, 245040, Note_on_c, 4, 60, 70
7, 245280, Note_off_c, 4, 60, 80
7, 245280, Control_c, 4, 1, 127
7, 245280, Note_on_c, 4, 59, 70
7, 245760, Control_c, 4, 10, 64
7, 246473, Note_off_c, 4, 59, 80
7, 247680, Control_c, 4, 1, 0
7, 247680, Note_on_c, 4, 55, 70
7, 247680, Control_c, 4, 7, 120
7, 247680, Control_c, 4, 10, 0
7, 248160, Note_off_c, 4, 55, 80
7, 248640, Control_c, 4, 1, 127
7, 248640, Note_on_c, 4, 62, 70
7, 248640, Control_c, 4, 10, 127
7, 249360, Control_c, 4, 7, 110
7, 249600, Note_off_c, 4, 62, 80
7, 249600, Control_c, 4, 10, 0
7, 249600, Control_c, 4, 1, 0
7, 249600, Note_on_c, 4, 55, 70
7, 250080, Note_off_c, 4, 55, 80
7, 250560, Note_on_c, 4, 59, 70
7, 250560, Control_c, 4, 10, 127
7, 251040, Note_off_c, 4, 59, 80
7, 251040, Note_on_c, 4, 60, 70
7, 251040, Control_c, 4, 7, 100
7, 251520, Note_off_c, 4, 60, 80
7, 251520, Note_on_c, 4, 62, 70
7, 251520, Control_c, 4, 10, 0
7, 252000, Note_off_c, 4, 62, 80
7, 252000, Note_on_c, 4, 60, 70
7, 252240, Note_off_c, 4, 60, 80
7, 252480, Note_on_c, 4, 59, 70
7, 252480, Control_c, 4, 10, 127
7, 252720, Note_off_c, 4, 59, 80
7, 252720, Note_on_c, 4, 60, 70
7, 252960, Note_off_c, 4, 60, 80
7, 252960, Control_c, 4, 1, 127
7, 252960, Note_on_c, 4, 59, 70
7, 253680, Control_c, 4, 10, 65
7, 254160, Control_c, 4, 7, 90
7, 254400, Note_off_c, 4, 59, 80
7, 254880, Control_c, 4, 7, 80
7, 255360, Control_c, 4, 1, 0
7, 255360, Note_on_c, 4, 53, 70
7, 255360, Control_c, 4, 10, 0
7, 255600, Note_off_c, 4, 53, 80
7, 256320, Control_c, 4, 1, 127
7, 256320, Note_on_c, 4, 60, 70
7, 256320, Control_c, 4, 10, 127
7, 256800, Control_c, 4, 7, 70
7, 257280, Note_off_c, 4, 60, 80
7, 257280, Control_c, 4, 10, 0
7, 257280, Control_c, 4, 1, 0
7, 257280, Note_on_c, 4, 53, 70
7, 257993, Note_off_c, 4, 53, 80
7, 258240, Note_on_c, 4, 59, 70
7, 258240, Control_c, 4, 10, 127
7, 258720, Note_off_c, 4, 59, 80
7, 258720, Control_c, 4, 7, 50
7, 258720, Note_on_c, 4, 60, 70
7, 259200, Note_off_c, 4, 60, 80
7, 259200, Note_on_c, 4, 62, 70
7, 259200, Control_c, 4, 10, 0
7, 259680, Note_off_c, 4, 62, 80
7, 259680, Note_on_c, 4, 60, 70
7, 259920, Note_off_c, 4, 60, 80
7, 260160, Note_on_c, 4, 59, 70
7, 260160, Control_c, 4, 10, 127
7, 260400, Note_off_c, 4, 59, 80
7, 260400, Note_on_c, 4, 60, 70
7, 260640, Note_off_c, 4, 60, 80
7, 260640, Control_c, 4, 1, 127
7, 260640, Note_on_c, 4, 59, 70
7, 261360, Control_c, 4, 7, 30
7, 261833, Note_off_c, 4, 59, 80
7, 262560, Control_c, 4, 7, 20
7, 264720, Control_c, 4, 7, 5
7, 264720, End_track
8, 0, Start_track
8, 0, Title_t, """BIG SHOT"""
8, 0, MIDI_port, 0
8, 0, Channel_prefix, 6
8, 0, Control_c, 6, 10, 64
8, 0, End_track
9, 0, Start_track
9, 0, Title_t, "Copyright 1978 by"
9, 0, MIDI_port, 0
9, 0, Channel_prefix, 7
9, 0, Control_c, 7, 10, 64
9, 0, End_track
10, 0, Start_track
10, 0, Title_t, "Billy Joel"
10, 0, MIDI_port, 0
10, 0, Channel_prefix, 8
10, 0, Control_c, 8, 10, 64
10, 0, End_track
11, 0, Start_track
11, 0, Title_t, "This arrangement by"
11, 0, MIDI_port, 0
11, 0, Channel_prefix, 11
11, 0, Control_c, 11, 10, 64
11, 0, End_track
12, 0, Start_track
12, 0, Title_t, "Rich Henninger"
12, 0, MIDI_port, 0
12, 0, Channel_prefix, 12
12, 0, Control_c, 12, 10, 64
12, 0, End_track
13, 0, Start_track
13, 0, Title_t, "w/SoundBlaster AWE32"
13, 0, MIDI_port, 0
13, 0, Channel_prefix, 13
13, 0, Control_c, 13, 10, 64
13, 0, End_track
14, 0, Start_track
14, 0, Title_t, "richlaur@ptdprolog.net"
14, 0, MIDI_port, 0
14, 0, Channel_prefix, 14
14, 0, Control_c, 14, 10, 64
14, 0, End_track
0, 0, End_of_file
