0, 0, Header, 1, 2, 960
1, 0, Start_track
1, 0, Control_c, 0, 101, 0
1, 0, Control_c, 0, 100, 0
1, 0, Control_c, 0, 6, 12
1, 0, Control_c, 0, 38, 0
1, 0, Control_c, 1, 101, 0
1, 0, Control_c, 1, 100, 0
1, 0, Control_c, 1, 6, 12
1, 0, Control_c, 1, 38, 0
1, 0, Control_c, 2, 101, 0
1, 0, Control_c, 2, 100, 0
1, 0, Control_c, 2, 6, 12
1, 0, Control_c, 2, 38, 0
1, 0, Control_c, 3, 101, 0
1, 0, Control_c, 3, 100, 0
1, 0, Control_c, 3, 6, 12
1, 0, Control_c, 3, 38, 0
1, 0, Control_c, 4, 101, 0
1, 0, Control_c, 4, 100, 0
1, 0, Control_c, 4, 6, 12
1, 0, Control_c, 4, 38, 0
1, 0, Control_c, 5, 101, 0
1, 0, Control_c, 5, 100, 0
1, 0, Control_c, 5, 6, 12
1, 0, Control_c, 5, 38, 0
1, 0, Control_c, 6, 101, 0
1, 0, Control_c, 6, 100, 0
1, 0, Control_c, 6, 6, 12
1, 0, Control_c, 6, 38, 0
1, 0, Control_c, 7, 101, 0
1, 0, Control_c, 7, 100, 0
1, 0, Control_c, 7, 6, 12
1, 0, Control_c, 7, 38, 0
1, 0, Control_c, 8, 101, 0
1, 0, Control_c, 8, 100, 0
1, 0, Control_c, 8, 6, 12
1, 0, Control_c, 8, 38, 0
1, 0, Control_c, 9, 101, 0
1, 0, Control_c, 9, 100, 0
1, 0, Control_c, 9, 6, 12
1, 0, Control_c, 9, 38, 0
1, 0, Control_c, 10, 101, 0
1, 0, Control_c, 10, 100, 0
1, 0, Control_c, 10, 6, 12
1, 0, Control_c, 10, 38, 0
1, 0, Control_c, 11, 101, 0
1, 0, Control_c, 11, 100, 0
1, 0, Control_c, 11, 6, 12
1, 0, Control_c, 11, 38, 0
1, 0, Control_c, 12, 101, 0
1, 0, Control_c, 12, 100, 0
1, 0, Control_c, 12, 6, 12
1, 0, Control_c, 12, 38, 0
1, 0, Control_c, 13, 101, 0
1, 0, Control_c, 13, 100, 0
1, 0, Control_c, 13, 6, 12
1, 0, Control_c, 13, 38, 0
1, 0, Control_c, 14, 101, 0
1, 0, Control_c, 14, 100, 0
1, 0, Control_c, 14, 6, 12
1, 0, Control_c, 14, 38, 0
1, 0, Control_c, 15, 101, 0
1, 0, Control_c, 15, 100, 0
1, 0, Control_c, 15, 6, 12
1, 0, Control_c, 15, 38, 0
1, 0, Time_signature, 4, 2, 24, 8
1, 0, Tempo, 508474
1, 0, End_track
2, 0, Start_track
2, 0, Pitch_bend_c, 0, 8192
2, 0, Control_c, 0, 7, 103
2, 0, Control_c, 0, 10, 63
2, 0, Control_c, 0, 93, 0
2, 0, Control_c, 0, 91, 0
2, 0, Control_c, 0, 95, 0
2, 0, Control_c, 0, 92, 0
2, 0, Control_c, 0, 11, 127
2, 0, Program_c, 0, 25
2, 0, Control_c, 1, 7, 103
2, 0, Control_c, 1, 10, 63
2, 0, Control_c, 1, 93, 0
2, 0, Control_c, 1, 91, 0
2, 0, Control_c, 1, 95, 0
2, 0, Control_c, 1, 92, 0
2, 0, Control_c, 1, 11, 127
2, 0, Program_c, 1, 25
2, 0, Note_on_c, 0, 73, 79
2, 0, Note_on_c, 0, 66, 79
2, 0, Note_on_c, 0, 64, 79
2, 0, Note_on_c, 0, 57, 79
2, 640, Note_off_c, 0, 73, 79
2, 640, Note_off_c, 0, 66, 79
2, 640, Note_off_c, 0, 64, 79
2, 640, Note_off_c, 0, 57, 79
2, 960, Note_on_c, 0, 73, 79
2, 960, Note_on_c, 0, 67, 79
2, 960, Note_on_c, 0, 64, 79
2, 960, Note_on_c, 0, 58, 79
2, 1600, Note_off_c, 0, 73, 79
2, 1600, Note_off_c, 0, 67, 79
2, 1600, Note_off_c, 0, 64, 79
2, 1600, Note_off_c, 0, 58, 79
2, 1920, Note_on_c, 0, 74, 79
2, 1920, Note_on_c, 0, 68, 79
2, 1920, Note_on_c, 0, 66, 79
2, 1920, Note_on_c, 0, 59, 79
2, 2560, Note_off_c, 0, 74, 79
2, 2560, Note_off_c, 0, 68, 79
2, 2560, Note_off_c, 0, 66, 79
2, 2560, Note_off_c, 0, 59, 79
2, 2880, Note_on_c, 0, 75, 79
2, 2880, Note_on_c, 0, 69, 79
2, 2880, Note_on_c, 0, 66, 79
2, 2880, Note_on_c, 0, 60, 79
2, 3520, Note_off_c, 0, 75, 79
2, 3520, Note_off_c, 0, 69, 79
2, 3520, Note_off_c, 0, 66, 79
2, 3520, Note_off_c, 0, 60, 79
2, 3840, Note_on_c, 0, 76, 79
2, 3840, Note_on_c, 0, 69, 79
2, 3840, Note_on_c, 0, 64, 79
2, 3840, Note_on_c, 0, 61, 79
2, 4480, Note_off_c, 0, 76, 79
2, 4480, Note_off_c, 0, 69, 79
2, 4480, Note_off_c, 0, 64, 79
2, 4480, Note_off_c, 0, 61, 79
2, 4800, Note_on_c, 0, 76, 79
2, 4800, Note_on_c, 0, 70, 79
2, 4800, Note_on_c, 0, 67, 79
2, 4800, Note_on_c, 0, 61, 79
2, 5440, Note_off_c, 0, 76, 79
2, 5440, Note_off_c, 0, 70, 79
2, 5440, Note_off_c, 0, 67, 79
2, 5440, Note_off_c, 0, 61, 79
2, 5760, Note_on_c, 0, 76, 79
2, 5760, Note_on_c, 0, 59, 79
2, 5760, Note_on_c, 0, 66, 79
2, 5760, Note_on_c, 0, 62, 79
2, 7680, Note_off_c, 0, 76, 79
2, 7680, Note_off_c, 0, 59, 79
2, 7680, Note_off_c, 0, 66, 79
2, 7680, Note_off_c, 0, 62, 79
2, 8640, Note_on_c, 0, 64, 95
2, 9280, Note_off_c, 0, 64, 95
2, 9600, Note_on_c, 0, 63, 95
2, 10240, Note_off_c, 0, 63, 95
2, 10560, Note_on_c, 0, 62, 95
2, 11200, Note_off_c, 0, 62, 95
2, 11520, Note_on_c, 0, 61, 95
2, 11520, Note_on_c, 0, 45, 95
2, 12480, Note_off_c, 0, 61, 95
2, 12480, Note_off_c, 0, 45, 95
2, 12480, Note_on_c, 0, 57, 95
2, 13440, Note_off_c, 0, 57, 95
2, 13440, Note_on_c, 0, 66, 95
2, 13440, Note_on_c, 0, 46, 95
2, 14080, Note_off_c, 0, 66, 95
2, 14080, Note_off_c, 0, 46, 95
2, 14080, Note_on_c, 0, 64, 70
2, 14400, Note_off_c, 0, 64, 70
2, 14400, Note_on_c, 0, 61, 95
2, 14400, Note_on_c, 0, 55, 95
2, 15040, Note_off_c, 0, 61, 95
2, 15040, Note_off_c, 0, 55, 95
2, 15040, Note_on_c, 0, 62, 95
2, 15360, Note_off_c, 0, 62, 95
2, 15360, Note_on_c, 0, 47, 95
2, 16320, Note_off_c, 0, 47, 95
2, 16320, Note_on_c, 0, 56, 95
2, 17280, Note_off_c, 0, 56, 95
2, 17280, Note_on_c, 0, 68, 95
2, 17280, Note_on_c, 0, 48, 95
2, 17920, Note_off_c, 0, 68, 95
2, 17920, Note_off_c, 0, 48, 95
2, 17920, Note_on_c, 0, 66, 70
2, 18240, Note_off_c, 0, 66, 70
2, 18240, Note_on_c, 0, 63, 95
2, 18240, Note_on_c, 0, 57, 95
2, 18880, Note_off_c, 0, 63, 95
2, 18880, Note_off_c, 0, 57, 95
2, 18880, Note_on_c, 0, 64, 95
2, 19200, Note_off_c, 0, 64, 95
2, 19200, Note_on_c, 0, 49, 95
2, 20160, Note_off_c, 0, 49, 95
2, 20160, Note_on_c, 0, 61, 95
2, 21120, Note_off_c, 0, 61, 95
2, 21120, Note_on_c, 0, 69, 95
2, 21120, Note_on_c, 0, 49, 95
2, 21760, Note_off_c, 0, 69, 95
2, 21760, Note_off_c, 0, 49, 95
2, 21760, Note_on_c, 0, 68, 70
2, 22080, Note_off_c, 0, 68, 70
2, 22080, Note_on_c, 0, 65, 95
2, 22080, Note_on_c, 0, 56, 95
2, 22720, Note_off_c, 0, 65, 95
2, 22720, Note_off_c, 0, 56, 95
2, 22720, Note_on_c, 0, 66, 95
2, 23040, Note_on_c, 0, 50, 95
2, 24960, Note_off_c, 0, 66, 95
2, 24960, Note_off_c, 0, 50, 95
2, 24960, Note_on_c, 0, 71, 95
2, 24960, Note_on_c, 0, 66, 47
2, 24960, Note_on_c, 0, 63, 95
2, 24960, Note_on_c, 0, 59, 47
2, 25600, Note_off_c, 0, 71, 95
2, 25600, Note_off_c, 0, 66, 47
2, 25600, Note_off_c, 0, 63, 95
2, 25600, Note_off_c, 0, 59, 47
2, 25920, Note_on_c, 0, 69, 95
2, 25920, Note_on_c, 0, 66, 95
2, 26560, Note_off_c, 0, 69, 95
2, 26560, Note_off_c, 0, 66, 95
2, 26880, Note_on_c, 0, 68, 95
2, 26880, Note_on_c, 0, 44, 95
2, 27520, Note_off_c, 0, 68, 95
2, 27520, Note_off_c, 0, 44, 95
2, 27520, Note_on_c, 0, 62, 95
2, 27840, Note_off_c, 0, 62, 95
2, 27840, Note_on_c, 0, 66, 95
2, 27840, Note_on_c, 0, 54, 95
2, 28480, Note_off_c, 0, 66, 95
2, 28480, Note_off_c, 0, 54, 95
2, 28480, Note_on_c, 0, 68, 95
2, 28800, Note_off_c, 0, 68, 95
2, 28800, Note_on_c, 0, 44, 95
2, 29760, Note_off_c, 0, 44, 95
2, 29760, Note_on_c, 0, 62, 95
2, 29760, Note_on_c, 0, 54, 95
2, 30720, Note_off_c, 0, 62, 95
2, 30720, Note_off_c, 0, 54, 95
2, 30720, Note_on_c, 0, 40, 95
2, 31680, Note_off_c, 0, 40, 95
2, 31680, Note_on_c, 0, 64, 95
2, 31680, Note_on_c, 0, 55, 95
2, 32320, Note_off_c, 0, 64, 95
2, 32320, Note_off_c, 0, 55, 95
2, 32320, Note_on_c, 0, 66, 95
2, 32640, Note_off_c, 0, 66, 95
2, 32640, Note_on_c, 0, 68, 95
2, 32640, Note_on_c, 0, 40, 95
2, 33280, Note_off_c, 0, 68, 95
2, 33280, Note_off_c, 0, 40, 95
2, 33280, Note_on_c, 0, 69, 95
2, 33600, Note_off_c, 0, 69, 95
2, 33600, Note_on_c, 0, 71, 95
2, 33600, Note_on_c, 0, 50, 95
2, 34560, Note_off_c, 0, 71, 95
2, 34560, Note_off_c, 0, 50, 95
2, 34560, Note_on_c, 0, 69, 95
2, 34560, Note_on_c, 0, 45, 95
2, 35520, Note_off_c, 0, 69, 95
2, 35520, Note_off_c, 0, 45, 95
2, 35520, Note_on_c, 0, 61, 95
2, 35520, Note_on_c, 0, 57, 95
2, 36480, Note_off_c, 0, 61, 95
2, 36480, Note_off_c, 0, 57, 95
2, 36480, Note_on_c, 0, 69, 95
2, 36480, Note_on_c, 0, 40, 95
2, 37120, Note_off_c, 0, 69, 95
2, 37120, Note_off_c, 0, 40, 95
2, 37120, Note_on_c, 0, 68, 95
2, 37440, Note_off_c, 0, 68, 95
2, 37440, Note_on_c, 0, 66, 95
2, 37440, Note_on_c, 0, 57, 95
2, 38080, Note_off_c, 0, 66, 95
2, 38080, Note_off_c, 0, 57, 95
2, 38080, Note_on_c, 0, 64, 95
2, 38400, Note_off_c, 0, 64, 95
2, 38400, Note_on_c, 0, 62, 95
2, 38400, Note_on_c, 0, 40, 95
2, 39360, Note_off_c, 0, 62, 95
2, 39360, Note_off_c, 0, 40, 95
2, 39360, Note_on_c, 0, 64, 95
2, 40000, Note_off_c, 0, 64, 95
2, 40320, Note_on_c, 0, 63, 95
2, 40960, Note_off_c, 0, 63, 95
2, 41280, Note_on_c, 0, 62, 95
2, 41920, Note_off_c, 0, 62, 95
2, 42240, Note_on_c, 0, 61, 95
2, 42240, Note_on_c, 0, 45, 95
2, 43200, Note_off_c, 0, 61, 95
2, 43200, Note_off_c, 0, 45, 95
2, 43200, Note_on_c, 0, 57, 95
2, 44160, Note_off_c, 0, 57, 95
2, 44160, Note_on_c, 0, 66, 95
2, 44160, Note_on_c, 0, 46, 95
2, 44800, Note_off_c, 0, 66, 95
2, 44800, Note_off_c, 0, 46, 95
2, 44800, Note_on_c, 0, 64, 70
2, 45120, Note_off_c, 0, 64, 70
2, 45120, Note_on_c, 0, 61, 95
2, 45120, Note_on_c, 0, 55, 95
2, 45760, Note_off_c, 0, 61, 95
2, 45760, Note_off_c, 0, 55, 95
2, 45760, Note_on_c, 0, 62, 95
2, 46080, Note_off_c, 0, 62, 95
2, 46080, Note_on_c, 0, 47, 95
2, 47040, Note_off_c, 0, 47, 95
2, 47040, Note_on_c, 0, 56, 95
2, 48000, Note_off_c, 0, 56, 95
2, 48000, Note_on_c, 0, 68, 95
2, 48000, Note_on_c, 0, 48, 95
2, 48640, Note_off_c, 0, 68, 95
2, 48640, Note_off_c, 0, 48, 95
2, 48640, Note_on_c, 0, 66, 70
2, 48960, Note_off_c, 0, 66, 70
2, 48960, Note_on_c, 0, 63, 95
2, 48960, Note_on_c, 0, 57, 95
2, 49600, Note_off_c, 0, 63, 95
2, 49600, Note_off_c, 0, 57, 95
2, 49600, Note_on_c, 0, 64, 95
2, 49920, Note_off_c, 0, 64, 95
2, 49920, Note_on_c, 0, 49, 95
2, 50880, Note_off_c, 0, 49, 95
2, 50880, Note_on_c, 0, 61, 95
2, 51840, Note_off_c, 0, 61, 95
2, 51840, Note_on_c, 0, 69, 95
2, 51840, Note_on_c, 0, 49, 95
2, 52480, Note_off_c, 0, 69, 95
2, 52480, Note_off_c, 0, 49, 95
2, 52480, Note_on_c, 0, 68, 70
2, 52800, Note_off_c, 0, 68, 70
2, 52800, Note_on_c, 0, 65, 95
2, 52800, Note_on_c, 0, 56, 95
2, 53440, Note_off_c, 0, 65, 95
2, 53440, Note_off_c, 0, 56, 95
2, 53440, Note_on_c, 0, 66, 95
2, 53760, Note_on_c, 0, 50, 95
2, 55680, Note_off_c, 0, 66, 95
2, 55680, Note_off_c, 0, 50, 95
2, 55680, Note_on_c, 0, 71, 95
2, 55680, Note_on_c, 0, 66, 47
2, 55680, Note_on_c, 0, 63, 95
2, 55680, Note_on_c, 0, 59, 47
2, 56320, Note_off_c, 0, 71, 95
2, 56320, Note_off_c, 0, 66, 47
2, 56320, Note_off_c, 0, 63, 95
2, 56320, Note_off_c, 0, 59, 47
2, 56640, Note_on_c, 0, 69, 95
2, 56640, Note_on_c, 0, 66, 95
2, 57280, Note_off_c, 0, 69, 95
2, 57280, Note_off_c, 0, 66, 95
2, 57600, Note_on_c, 0, 68, 95
2, 57600, Note_on_c, 0, 44, 95
2, 58240, Note_off_c, 0, 68, 95
2, 58240, Note_off_c, 0, 44, 95
2, 58240, Note_on_c, 0, 62, 95
2, 58560, Note_off_c, 0, 62, 95
2, 58560, Note_on_c, 0, 66, 95
2, 58560, Note_on_c, 0, 54, 95
2, 59200, Note_off_c, 0, 66, 95
2, 59200, Note_off_c, 0, 54, 95
2, 59200, Note_on_c, 0, 68, 95
2, 59520, Note_off_c, 0, 68, 95
2, 59520, Note_on_c, 0, 44, 95
2, 60480, Note_off_c, 0, 44, 95
2, 60480, Note_on_c, 0, 62, 95
2, 60480, Note_on_c, 0, 54, 95
2, 61440, Note_off_c, 0, 62, 95
2, 61440, Note_off_c, 0, 54, 95
2, 61440, Note_on_c, 0, 40, 95
2, 62400, Note_off_c, 0, 40, 95
2, 62400, Note_on_c, 0, 64, 95
2, 62400, Note_on_c, 0, 55, 95
2, 63040, Note_off_c, 0, 64, 95
2, 63040, Note_off_c, 0, 55, 95
2, 63040, Note_on_c, 0, 66, 95
2, 63360, Note_off_c, 0, 66, 95
2, 63360, Note_on_c, 0, 68, 95
2, 63360, Note_on_c, 0, 40, 95
2, 64000, Note_off_c, 0, 68, 95
2, 64000, Note_off_c, 0, 40, 95
2, 64000, Note_on_c, 0, 69, 95
2, 64320, Note_off_c, 0, 69, 95
2, 64320, Note_on_c, 0, 71, 95
2, 64320, Note_on_c, 0, 50, 95
2, 65280, Note_off_c, 0, 71, 95
2, 65280, Note_off_c, 0, 50, 95
2, 65280, Note_on_c, 0, 69, 95
2, 65280, Note_on_c, 0, 45, 95
2, 66240, Note_off_c, 0, 69, 95
2, 66240, Note_off_c, 0, 45, 95
2, 66240, Note_on_c, 0, 57, 95
2, 66880, Note_off_c, 0, 57, 95
2, 66880, Note_on_c, 0, 61, 95
2, 67200, Note_off_c, 0, 61, 95
2, 67200, Note_on_c, 0, 40, 95
2, 67840, Note_off_c, 0, 40, 95
2, 67840, Note_on_c, 0, 64, 95
2, 68160, Note_off_c, 0, 64, 95
2, 68160, Note_on_c, 0, 57, 95
2, 68800, Note_off_c, 0, 57, 95
2, 68800, Note_on_c, 0, 69, 95
2, 69120, Note_off_c, 0, 69, 95
2, 69120, Note_on_c, 0, 45, 95
2, 70080, Note_off_c, 0, 45, 95
2, 70080, Note_on_c, 0, 61, 95
2, 70080, Note_on_c, 0, 57, 95
2, 71040, Note_off_c, 0, 61, 95
2, 71040, Note_off_c, 0, 57, 95
2, 71040, Note_on_c, 0, 45, 95
2, 72000, Note_off_c, 0, 45, 95
2, 72000, Note_on_c, 0, 61, 95
2, 72000, Note_on_c, 0, 57, 95
2, 72960, Note_off_c, 0, 61, 95
2, 72960, Note_off_c, 0, 57, 95
2, 72960, Note_on_c, 0, 49, 79
2, 73920, Note_off_c, 0, 49, 79
2, 73920, Note_on_c, 0, 73, 79
2, 73920, Note_on_c, 0, 68, 79
2, 73920, Note_on_c, 0, 65, 79
2, 73920, Note_on_c, 0, 59, 79
2, 74880, Note_off_c, 0, 73, 79
2, 74880, Note_off_c, 0, 68, 79
2, 74880, Note_off_c, 0, 65, 79
2, 74880, Note_off_c, 0, 59, 79
2, 74880, Note_on_c, 0, 71, 79
2, 74880, Note_on_c, 0, 56, 79
2, 75520, Note_off_c, 0, 71, 79
2, 75520, Note_off_c, 0, 56, 79
2, 75520, Note_on_c, 0, 68, 95
2, 75840, Note_off_c, 0, 68, 95
2, 75840, Note_on_c, 0, 71, 95
2, 75840, Note_on_c, 0, 59, 95
2, 76480, Note_off_c, 0, 71, 95
2, 76480, Note_off_c, 0, 59, 95
2, 76480, Note_on_c, 0, 68, 95
2, 76800, Note_off_c, 0, 68, 95
2, 76800, Note_on_c, 0, 49, 79
2, 77760, Note_off_c, 0, 49, 79
2, 77760, Note_on_c, 0, 65, 95
2, 77760, Note_on_c, 0, 59, 95
2, 78720, Note_off_c, 0, 65, 95
2, 78720, Note_off_c, 0, 59, 95
2, 78720, Note_on_c, 0, 71, 79
2, 78720, Note_on_c, 0, 56, 79
2, 79360, Note_off_c, 0, 71, 79
2, 79360, Note_off_c, 0, 56, 79
2, 79360, Note_on_c, 0, 68, 95
2, 79680, Note_off_c, 0, 68, 95
2, 79680, Note_on_c, 0, 71, 79
2, 79680, Note_on_c, 0, 59, 79
2, 80320, Note_off_c, 0, 71, 79
2, 80320, Note_off_c, 0, 59, 79
2, 80320, Note_on_c, 0, 68, 111
2, 80640, Note_off_c, 0, 68, 111
2, 80640, Note_on_c, 0, 49, 95
2, 81280, Note_off_c, 0, 49, 95
2, 81280, Note_on_c, 0, 65, 95
2, 81600, Note_off_c, 0, 65, 95
2, 81600, Note_on_c, 0, 59, 95
2, 82240, Note_off_c, 0, 59, 95
2, 82240, Note_on_c, 0, 68, 95
2, 82560, Note_off_c, 0, 68, 95
2, 82560, Note_on_c, 0, 56, 95
2, 83520, Note_off_c, 0, 56, 95
2, 83520, Note_on_c, 0, 65, 95
2, 83520, Note_on_c, 0, 59, 95
2, 84480, Note_off_c, 0, 65, 95
2, 84480, Note_off_c, 0, 59, 95
2, 84480, Note_on_c, 0, 49, 95
2, 85440, Note_off_c, 0, 49, 95
2, 85440, Note_on_c, 0, 73, 95
2, 85440, Note_on_c, 0, 59, 95
2, 86080, Note_off_c, 0, 73, 95
2, 86080, Note_off_c, 0, 59, 95
2, 86080, Note_on_c, 0, 65, 95
2, 86400, Note_off_c, 0, 65, 95
2, 86400, Note_on_c, 0, 68, 95
2, 86400, Note_on_c, 0, 56, 95
2, 87040, Note_off_c, 0, 68, 95
2, 87040, Note_off_c, 0, 56, 95
2, 87040, Note_on_c, 0, 73, 95
2, 87360, Note_off_c, 0, 73, 95
2, 87360, Note_on_c, 0, 59, 95
2, 88320, Note_off_c, 0, 59, 95
2, 88320, Note_on_c, 0, 73, 95
2, 88320, Note_on_c, 0, 46, 95
2, 89280, Note_off_c, 0, 73, 95
2, 89280, Note_off_c, 0, 46, 95
2, 89280, Note_on_c, 0, 61, 95
2, 89280, Note_on_c, 0, 58, 95
2, 90240, Note_off_c, 0, 61, 95
2, 90240, Note_off_c, 0, 58, 95
2, 90240, Note_on_c, 0, 70, 95
2, 90240, Note_on_c, 0, 46, 95
2, 90880, Note_off_c, 0, 70, 95
2, 90880, Note_off_c, 0, 46, 95
2, 90880, Note_on_c, 0, 66, 95
2, 91200, Note_off_c, 0, 66, 95
2, 91200, Note_on_c, 0, 70, 95
2, 91200, Note_on_c, 0, 58, 95
2, 91840, Note_off_c, 0, 70, 95
2, 91840, Note_off_c, 0, 58, 95
2, 91840, Note_on_c, 0, 66, 95
2, 92160, Note_off_c, 0, 66, 95
2, 92160, Note_on_c, 0, 47, 95
2, 92800, Note_off_c, 0, 47, 95
2, 92800, Note_on_c, 0, 63, 95
2, 93120, Note_off_c, 0, 63, 95
2, 93120, Note_on_c, 0, 57, 95
2, 93760, Note_off_c, 0, 57, 95
2, 93760, Note_on_c, 0, 66, 95
2, 94080, Note_off_c, 0, 66, 95
2, 94080, Note_on_c, 0, 54, 95
2, 95040, Note_off_c, 0, 54, 95
2, 95040, Note_on_c, 0, 63, 95
2, 95040, Note_on_c, 0, 57, 95
2, 96000, Note_off_c, 0, 63, 95
2, 96000, Note_off_c, 0, 57, 95
2, 96000, Note_on_c, 0, 40, 95
2, 97440, Note_off_c, 0, 40, 95
2, 97600, Note_on_c, 0, 64, 95
2, 97920, Note_off_c, 0, 64, 95
2, 97920, Note_on_c, 0, 63, 95
2, 98880, Note_off_c, 0, 63, 95
2, 98880, Note_on_c, 0, 62, 95
2, 99840, Note_off_c, 0, 62, 95
2, 99840, Note_on_c, 0, 61, 95
2, 99840, Note_on_c, 0, 45, 95
2, 100800, Note_off_c, 0, 61, 95
2, 100800, Note_off_c, 0, 45, 95
2, 100800, Note_on_c, 0, 57, 95
2, 101760, Note_off_c, 0, 57, 95
2, 101760, Note_on_c, 0, 66, 95
2, 101760, Note_on_c, 0, 46, 95
2, 102400, Note_off_c, 0, 66, 95
2, 102400, Note_off_c, 0, 46, 95
2, 102400, Note_on_c, 0, 64, 70
2, 102720, Note_off_c, 0, 64, 70
2, 102720, Note_on_c, 0, 61, 95
2, 102720, Note_on_c, 0, 55, 95
2, 103360, Note_off_c, 0, 61, 95
2, 103360, Note_off_c, 0, 55, 95
2, 103360, Note_on_c, 0, 62, 95
2, 103680, Note_off_c, 0, 62, 95
2, 103680, Note_on_c, 0, 47, 95
2, 104640, Note_off_c, 0, 47, 95
2, 104640, Note_on_c, 0, 56, 95
2, 105600, Note_off_c, 0, 56, 95
2, 105600, Note_on_c, 0, 68, 95
2, 105600, Note_on_c, 0, 48, 95
2, 106240, Note_off_c, 0, 68, 95
2, 106240, Note_off_c, 0, 48, 95
2, 106240, Note_on_c, 0, 66, 70
2, 106560, Note_off_c, 0, 66, 70
2, 106560, Note_on_c, 0, 63, 95
2, 106560, Note_on_c, 0, 57, 95
2, 107200, Note_off_c, 0, 63, 95
2, 107200, Note_off_c, 0, 57, 95
2, 107200, Note_on_c, 0, 64, 95
2, 107520, Note_off_c, 0, 64, 95
2, 107520, Note_on_c, 0, 49, 95
2, 108480, Note_off_c, 0, 49, 95
2, 108480, Note_on_c, 0, 61, 95
2, 109440, Note_off_c, 0, 61, 95
2, 109440, Note_on_c, 0, 69, 95
2, 109440, Note_on_c, 0, 49, 95
2, 110080, Note_off_c, 0, 69, 95
2, 110080, Note_off_c, 0, 49, 95
2, 110080, Note_on_c, 0, 68, 70
2, 110400, Note_off_c, 0, 68, 70
2, 110400, Note_on_c, 0, 65, 95
2, 110400, Note_on_c, 0, 56, 95
2, 111040, Note_off_c, 0, 65, 95
2, 111040, Note_off_c, 0, 56, 95
2, 111040, Note_on_c, 0, 66, 95
2, 111360, Note_on_c, 0, 50, 95
2, 113280, Note_off_c, 0, 66, 95
2, 113280, Note_off_c, 0, 50, 95
2, 113280, Note_on_c, 0, 71, 95
2, 113280, Note_on_c, 0, 66, 47
2, 113280, Note_on_c, 0, 63, 95
2, 113280, Note_on_c, 0, 59, 47
2, 113920, Note_off_c, 0, 71, 95
2, 113920, Note_off_c, 0, 66, 47
2, 113920, Note_off_c, 0, 63, 95
2, 113920, Note_off_c, 0, 59, 47
2, 114240, Note_on_c, 0, 69, 95
2, 114240, Note_on_c, 0, 66, 95
2, 114880, Note_off_c, 0, 69, 95
2, 114880, Note_off_c, 0, 66, 95
2, 115200, Note_on_c, 0, 68, 95
2, 115200, Note_on_c, 0, 44, 95
2, 115840, Note_off_c, 0, 68, 95
2, 115840, Note_off_c, 0, 44, 95
2, 115840, Note_on_c, 0, 62, 95
2, 116160, Note_off_c, 0, 62, 95
2, 116160, Note_on_c, 0, 66, 95
2, 116160, Note_on_c, 0, 54, 95
2, 116800, Note_off_c, 0, 66, 95
2, 116800, Note_off_c, 0, 54, 95
2, 116800, Note_on_c, 0, 68, 95
2, 117120, Note_off_c, 0, 68, 95
2, 117120, Note_on_c, 0, 44, 95
2, 118080, Note_off_c, 0, 44, 95
2, 118080, Note_on_c, 0, 62, 95
2, 118080, Note_on_c, 0, 54, 95
2, 119040, Note_off_c, 0, 62, 95
2, 119040, Note_off_c, 0, 54, 95
2, 119040, Note_on_c, 0, 40, 95
2, 120000, Note_off_c, 0, 40, 95
2, 120000, Note_on_c, 0, 64, 95
2, 120000, Note_on_c, 0, 55, 95
2, 120640, Note_off_c, 0, 64, 95
2, 120640, Note_off_c, 0, 55, 95
2, 120640, Note_on_c, 0, 66, 95
2, 120960, Note_off_c, 0, 66, 95
2, 120960, Note_on_c, 0, 68, 95
2, 120960, Note_on_c, 0, 40, 95
2, 121600, Note_off_c, 0, 68, 95
2, 121600, Note_off_c, 0, 40, 95
2, 121600, Note_on_c, 0, 69, 95
2, 121920, Note_off_c, 0, 69, 95
2, 121920, Note_on_c, 0, 71, 95
2, 121920, Note_on_c, 0, 50, 95
2, 122880, Note_off_c, 0, 71, 95
2, 122880, Note_off_c, 0, 50, 95
2, 122880, Note_on_c, 0, 69, 95
2, 122880, Note_on_c, 0, 45, 95
2, 123840, Note_off_c, 0, 69, 95
2, 123840, Note_off_c, 0, 45, 95
2, 123840, Note_on_c, 0, 57, 95
2, 124480, Note_off_c, 0, 57, 95
2, 124480, Note_on_c, 0, 61, 95
2, 124800, Note_off_c, 0, 61, 95
2, 124800, Note_on_c, 0, 40, 95
2, 125440, Note_off_c, 0, 40, 95
2, 125440, Note_on_c, 0, 64, 95
2, 125760, Note_off_c, 0, 64, 95
2, 125760, Note_on_c, 0, 57, 95
2, 126400, Note_off_c, 0, 57, 95
2, 126400, Note_on_c, 0, 69, 95
2, 126720, Note_off_c, 0, 69, 95
2, 126720, Note_on_c, 0, 45, 95
2, 127360, Note_off_c, 0, 45, 95
2, 127680, Note_on_c, 0, 69, 95
2, 127680, Note_on_c, 0, 64, 95
2, 127680, Note_on_c, 0, 61, 95
2, 127680, Note_on_c, 0, 45, 95
2, 128320, Note_off_c, 0, 69, 95
2, 128320, Note_off_c, 0, 64, 95
2, 128320, Note_off_c, 0, 61, 95
2, 128320, Note_off_c, 0, 45, 95
2, 128640, Note_on_c, 0, 68, 95
2, 128640, Note_on_c, 0, 63, 95
2, 128640, Note_on_c, 0, 60, 95
2, 128640, Note_on_c, 0, 44, 95
2, 129280, Note_off_c, 0, 68, 95
2, 129280, Note_off_c, 0, 63, 95
2, 129280, Note_off_c, 0, 60, 95
2, 129280, Note_off_c, 0, 44, 95
2, 129600, Note_on_c, 0, 67, 95
2, 129600, Note_on_c, 0, 62, 95
2, 129600, Note_on_c, 0, 59, 95
2, 129600, Note_on_c, 0, 43, 95
2, 130240, Note_off_c, 0, 67, 95
2, 130240, Note_off_c, 0, 62, 95
2, 130240, Note_off_c, 0, 59, 95
2, 130240, Note_off_c, 0, 43, 95
2, 130560, Note_on_c, 0, 66, 95
2, 130560, Note_on_c, 0, 42, 95
2, 131200, Note_off_c, 0, 66, 95
2, 131200, Note_off_c, 0, 42, 95
2, 131200, Note_on_c, 0, 58, 95
2, 131520, Note_off_c, 0, 58, 95
2, 131520, Note_on_c, 0, 61, 95
2, 131520, Note_on_c, 0, 52, 95
2, 132160, Note_off_c, 0, 61, 95
2, 132160, Note_off_c, 0, 52, 95
2, 132160, Note_on_c, 0, 66, 95
2, 132480, Note_off_c, 0, 66, 95
2, 132480, Note_on_c, 0, 49, 95
2, 133120, Note_off_c, 0, 49, 95
2, 133440, Note_on_c, 1, 42, 95
2, 133560, Pitch_bend_c, 1, 8576
2, 133680, Pitch_bend_c, 1, 8960
2, 133800, Pitch_bend_c, 1, 9472
2, 133920, Pitch_bend_c, 1, 9856
2, 134040, Pitch_bend_c, 1, 10368
2, 134160, Pitch_bend_c, 1, 10752
2, 134280, Pitch_bend_c, 1, 11264
2, 134400, Pitch_bend_c, 1, 11648
2, 134400, Pitch_bend_c, 1, 8192
2, 134400, Note_off_c, 1, 42, 95
2, 134400, Note_on_c, 0, 47, 95
2, 135360, Note_off_c, 0, 47, 95
2, 135360, Note_on_c, 0, 69, 95
2, 135360, Note_on_c, 0, 57, 95
2, 136000, Note_off_c, 0, 69, 95
2, 136000, Note_off_c, 0, 57, 95
2, 136000, Note_on_c, 0, 63, 95
2, 136320, Note_off_c, 0, 63, 95
2, 136320, Note_on_c, 0, 69, 95
2, 136320, Note_on_c, 0, 54, 95
2, 136960, Note_off_c, 0, 69, 95
2, 136960, Note_off_c, 0, 54, 95
2, 136960, Note_on_c, 0, 66, 95
2, 137280, Note_off_c, 0, 66, 95
2, 137280, Note_on_c, 0, 57, 95
2, 138240, Note_off_c, 0, 57, 95
2, 138240, Note_on_c, 0, 40, 95
2, 138880, Note_off_c, 0, 40, 95
2, 138880, Note_on_c, 0, 62, 95
2, 139200, Note_off_c, 0, 62, 95
2, 139200, Note_on_c, 0, 64, 95
2, 139200, Note_on_c, 0, 56, 95
2, 139840, Note_off_c, 0, 64, 95
2, 139840, Note_off_c, 0, 56, 95
2, 139840, Note_on_c, 0, 62, 95
2, 140160, Note_off_c, 0, 62, 95
2, 140160, Note_on_c, 0, 72, 95
2, 140160, Note_on_c, 0, 40, 95
2, 140800, Note_off_c, 0, 72, 95
2, 140800, Note_off_c, 0, 40, 95
2, 140800, Note_on_c, 0, 64, 95
2, 141120, Note_off_c, 0, 64, 95
2, 141120, Note_on_c, 0, 66, 95
2, 141120, Note_on_c, 0, 56, 95
2, 141760, Note_off_c, 0, 66, 95
2, 141760, Note_off_c, 0, 56, 95
2, 141760, Note_on_c, 0, 69, 95
2, 141760, Note_on_c, 0, 64, 95
2, 141760, Note_on_c, 0, 61, 95
2, 142080, Note_off_c, 0, 69, 95
2, 142080, Note_off_c, 0, 64, 95
2, 142080, Note_off_c, 0, 61, 95
2, 142080, Note_on_c, 0, 45, 95
2, 143040, Note_off_c, 0, 45, 95
2, 143040, Note_on_c, 0, 64, 95
2, 143040, Note_on_c, 0, 59, 95
2, 143040, Note_on_c, 0, 60, 95
2, 143040, Note_on_c, 0, 54, 95
2, 143680, Note_off_c, 0, 64, 95
2, 143680, Note_off_c, 0, 59, 95
2, 143680, Note_off_c, 0, 60, 95
2, 143680, Note_off_c, 0, 54, 95
2, 144000, Note_on_c, 0, 64, 95
2, 144000, Note_on_c, 0, 59, 95
2, 144000, Note_on_c, 0, 61, 95
2, 144000, Note_on_c, 0, 55, 95
2, 144640, Note_off_c, 0, 64, 95
2, 144640, Note_off_c, 0, 59, 95
2, 144640, Note_off_c, 0, 61, 95
2, 144640, Note_off_c, 0, 55, 95
2, 144960, Note_on_c, 0, 64, 95
2, 144960, Note_on_c, 0, 68, 95
2, 144960, Note_on_c, 0, 63, 95
2, 144960, Note_on_c, 0, 60, 95
2, 145600, Note_off_c, 0, 64, 95
2, 145600, Note_off_c, 0, 68, 95
2, 145600, Note_off_c, 0, 63, 95
2, 145600, Note_off_c, 0, 60, 95
2, 145920, Note_on_c, 0, 64, 95
2, 145920, Note_on_c, 0, 69, 95
2, 145920, Note_on_c, 0, 64, 95
2, 145920, Note_on_c, 0, 61, 95
2, 146560, Note_off_c, 0, 64, 95
2, 146560, Note_off_c, 0, 69, 95
2, 146560, Note_off_c, 0, 64, 95
2, 146560, Note_off_c, 0, 61, 95
2, 146560, Note_on_c, 0, 45, 95
2, 146880, Note_off_c, 0, 45, 95
2, 146880, Note_on_c, 0, 64, 95
2, 146880, Note_on_c, 0, 59, 95
2, 146880, Note_on_c, 0, 66, 95
2, 146880, Note_on_c, 0, 60, 95
2, 147520, Note_off_c, 0, 64, 95
2, 147520, Note_off_c, 0, 59, 95
2, 147520, Note_off_c, 0, 66, 95
2, 147520, Note_off_c, 0, 60, 95
2, 147520, Note_on_c, 0, 64, 95
2, 147520, Note_on_c, 0, 59, 95
2, 147520, Note_on_c, 0, 67, 95
2, 147520, Note_on_c, 0, 61, 95
2, 149760, Note_off_c, 0, 64, 95
2, 149760, Note_off_c, 0, 59, 95
2, 149760, Note_off_c, 0, 67, 95
2, 149760, Note_off_c, 0, 61, 95
2, 149760, End_track
0, 0, End_of_file
