0, 0, Header, 1, 6, 1024
1, 0, Start_track
1, 0, Time_signature, 4, 2, 24, 8
1, 0, Key_signature, 0, "major"
1, 0, Tempo, 428571
1, 4096, Time_signature, 4, 2, 24, 8
1, 4096, Key_signature, 0, "major"
1, 8192, Time_signature, 4, 2, 24, 8
1, 8192, Key_signature, 0, "major"
1, 12288, Time_signature, 4, 2, 24, 8
1, 12288, Key_signature, 0, "major"
1, 16384, Time_signature, 4, 2, 24, 8
1, 16384, Key_signature, 0, "major"
1, 20480, Time_signature, 4, 2, 24, 8
1, 20480, Key_signature, 0, "major"
1, 24576, Time_signature, 4, 2, 24, 8
1, 24576, Key_signature, 0, "major"
1, 28672, Time_signature, 4, 2, 24, 8
1, 28672, Key_signature, 0, "major"
1, 32768, Time_signature, 4, 2, 24, 8
1, 32768, Key_signature, 0, "major"
1, 36864, Time_signature, 4, 2, 24, 8
1, 36864, Key_signature, 0, "major"
1, 40960, Time_signature, 4, 2, 24, 8
1, 40960, Key_signature, 0, "major"
1, 45056, Time_signature, 4, 2, 24, 8
1, 45056, Key_signature, 0, "major"
1, 49152, Time_signature, 4, 2, 24, 8
1, 49152, Key_signature, 0, "major"
1, 53248, Time_signature, 4, 2, 24, 8
1, 53248, Key_signature, 0, "major"
1, 57344, Time_signature, 4, 2, 24, 8
1, 57344, Key_signature, 0, "major"
1, 61440, Time_signature, 4, 2, 24, 8
1, 61440, Key_signature, 0, "major"
1, 65536, Time_signature, 4, 2, 24, 8
1, 65536, Key_signature, 0, "major"
1, 69632, Time_signature, 4, 2, 24, 8
1, 69632, Key_signature, 0, "major"
1, 73728, Time_signature, 4, 2, 24, 8
1, 73728, Key_signature, 0, "major"
1, 77824, Time_signature, 4, 2, 24, 8
1, 77824, Key_signature, 0, "major"
1, 81920, Time_signature, 4, 2, 24, 8
1, 81920, Key_signature, 0, "major"
1, 86016, Time_signature, 4, 2, 24, 8
1, 86016, Key_signature, 0, "major"
1, 90112, Time_signature, 4, 2, 24, 8
1, 90112, Key_signature, 0, "major"
1, 94208, Time_signature, 4, 2, 24, 8
1, 94208, Key_signature, 0, "major"
1, 98304, Time_signature, 4, 2, 24, 8
1, 98304, Key_signature, 0, "major"
1, 102400, Time_signature, 4, 2, 24, 8
1, 102400, Key_signature, 0, "major"
1, 106496, Time_signature, 4, 2, 24, 8
1, 106496, Key_signature, 0, "major"
1, 110592, Time_signature, 4, 2, 24, 8
1, 110592, Key_signature, 0, "major"
1, 114688, Time_signature, 4, 2, 24, 8
1, 114688, Key_signature, 0, "major"
1, 118784, Time_signature, 4, 2, 24, 8
1, 118784, Key_signature, 0, "major"
1, 122880, Time_signature, 4, 2, 24, 8
1, 122880, Key_signature, 0, "major"
1, 126976, Time_signature, 4, 2, 24, 8
1, 126976, Key_signature, 0, "major"
1, 131072, Time_signature, 4, 2, 24, 8
1, 131072, Key_signature, 0, "major"
1, 135168, Time_signature, 4, 2, 24, 8
1, 135168, Key_signature, 0, "major"
1, 139264, Time_signature, 4, 2, 24, 8
1, 139264, Key_signature, 0, "major"
1, 143360, Time_signature, 4, 2, 24, 8
1, 143360, Key_signature, 0, "major"
1, 147456, Time_signature, 4, 2, 24, 8
1, 147456, Key_signature, 0, "major"
1, 151552, Time_signature, 4, 2, 24, 8
1, 151552, Key_signature, 0, "major"
1, 155648, Time_signature, 4, 2, 24, 8
1, 155648, Key_signature, 0, "major"
1, 159744, Time_signature, 4, 2, 24, 8
1, 159744, Key_signature, 0, "major"
1, 163840, Time_signature, 4, 2, 24, 8
1, 163840, Key_signature, 0, "major"
1, 167936, Time_signature, 4, 2, 24, 8
1, 167936, Key_signature, 0, "major"
1, 172032, Time_signature, 4, 2, 24, 8
1, 172032, Key_signature, 0, "major"
1, 176128, Time_signature, 4, 2, 24, 8
1, 176128, Key_signature, 0, "major"
1, 180224, Time_signature, 4, 2, 24, 8
1, 180224, Key_signature, 0, "major"
1, 184320, Time_signature, 4, 2, 24, 8
1, 184320, Key_signature, 0, "major"
1, 188416, Time_signature, 4, 2, 24, 8
1, 188416, Key_signature, 0, "major"
1, 192512, Time_signature, 4, 2, 24, 8
1, 192512, Key_signature, 0, "major"
1, 196608, Time_signature, 4, 2, 24, 8
1, 196608, Key_signature, 0, "major"
1, 200704, Time_signature, 4, 2, 24, 8
1, 200704, Key_signature, 0, "major"
1, 204800, Time_signature, 4, 2, 24, 8
1, 204800, Key_signature, 0, "major"
1, 208896, Time_signature, 4, 2, 24, 8
1, 208896, Key_signature, 0, "major"
1, 212992, Time_signature, 4, 2, 24, 8
1, 212992, Key_signature, 0, "major"
1, 217088, Time_signature, 4, 2, 24, 8
1, 217088, Key_signature, 0, "major"
1, 221184, Time_signature, 4, 2, 24, 8
1, 221184, Key_signature, 0, "major"
1, 225280, Time_signature, 4, 2, 24, 8
1, 225280, Key_signature, 0, "major"
1, 229376, Time_signature, 4, 2, 24, 8
1, 229376, Key_signature, 0, "major"
1, 233472, Time_signature, 4, 2, 24, 8
1, 233472, Key_signature, 0, "major"
1, 237568, Time_signature, 4, 2, 24, 8
1, 237568, Key_signature, 0, "major"
1, 241664, Time_signature, 4, 2, 24, 8
1, 241664, Key_signature, 0, "major"
1, 245760, Time_signature, 4, 2, 24, 8
1, 245760, Key_signature, 0, "major"
1, 249856, Time_signature, 4, 2, 24, 8
1, 249856, Key_signature, 0, "major"
1, 253952, Time_signature, 4, 2, 24, 8
1, 253952, Key_signature, 0, "major"
1, 258048, Time_signature, 4, 2, 24, 8
1, 258048, Key_signature, 0, "major"
1, 262144, Time_signature, 4, 2, 24, 8
1, 262144, Key_signature, 0, "major"
1, 266240, Time_signature, 4, 2, 24, 8
1, 266240, Key_signature, 0, "major"
1, 270336, Time_signature, 4, 2, 24, 8
1, 270336, Key_signature, 0, "major"
1, 274432, Time_signature, 4, 2, 24, 8
1, 274432, Key_signature, 0, "major"
1, 278528, Time_signature, 4, 2, 24, 8
1, 278528, Key_signature, 0, "major"
1, 282624, Time_signature, 4, 2, 24, 8
1, 282624, Key_signature, 0, "major"
1, 286720, Time_signature, 4, 2, 24, 8
1, 286720, Key_signature, 0, "major"
1, 290816, Time_signature, 4, 2, 24, 8
1, 290816, Key_signature, 0, "major"
1, 294912, Time_signature, 4, 2, 24, 8
1, 294912, Key_signature, 0, "major"
1, 299008, Time_signature, 4, 2, 24, 8
1, 299008, Key_signature, 0, "major"
1, 303104, Time_signature, 4, 2, 24, 8
1, 303104, Key_signature, 0, "major"
1, 307200, Time_signature, 4, 2, 24, 8
1, 307200, Key_signature, 0, "major"
1, 311296, Time_signature, 4, 2, 24, 8
1, 311296, Key_signature, 0, "major"
1, 315392, Time_signature, 4, 2, 24, 8
1, 315392, Key_signature, 0, "major"
1, 319488, Time_signature, 4, 2, 24, 8
1, 319488, Key_signature, 0, "major"
1, 323584, Time_signature, 4, 2, 24, 8
1, 323584, Key_signature, 0, "major"
1, 327680, Time_signature, 4, 2, 24, 8
1, 327680, Key_signature, 0, "major"
1, 331776, Time_signature, 4, 2, 24, 8
1, 331776, Key_signature, 0, "major"
1, 335872, Time_signature, 4, 2, 24, 8
1, 335872, Key_signature, 0, "major"
1, 339968, Time_signature, 4, 2, 24, 8
1, 339968, Key_signature, 0, "major"
1, 344064, Time_signature, 4, 2, 24, 8
1, 344064, Key_signature, 0, "major"
1, 348160, Time_signature, 4, 2, 24, 8
1, 348160, Key_signature, 0, "major"
1, 352256, Time_signature, 4, 2, 24, 8
1, 352256, Key_signature, 0, "major"
1, 356352, Time_signature, 4, 2, 24, 8
1, 356352, Key_signature, 0, "major"
1, 360448, Time_signature, 4, 2, 24, 8
1, 360448, Key_signature, 0, "major"
1, 364544, Time_signature, 4, 2, 24, 8
1, 364544, Key_signature, 0, "major"
1, 368640, Time_signature, 4, 2, 24, 8
1, 368640, Key_signature, 0, "major"
1, 372736, Time_signature, 4, 2, 24, 8
1, 372736, Key_signature, 0, "major"
1, 376832, Time_signature, 4, 2, 24, 8
1, 376832, Key_signature, 0, "major"
1, 380928, Time_signature, 4, 2, 24, 8
1, 380928, Key_signature, 0, "major"
1, 385024, Time_signature, 4, 2, 24, 8
1, 385024, Key_signature, 0, "major"
1, 389120, Time_signature, 4, 2, 24, 8
1, 389120, Key_signature, 0, "major"
1, 393216, Time_signature, 4, 2, 24, 8
1, 393216, Key_signature, 0, "major"
1, 397312, Time_signature, 4, 2, 24, 8
1, 397312, Key_signature, 0, "major"
1, 401408, Time_signature, 4, 2, 24, 8
1, 401408, Key_signature, 0, "major"
1, 405504, Time_signature, 4, 2, 24, 8
1, 405504, Key_signature, 0, "major"
1, 409600, Time_signature, 4, 2, 24, 8
1, 409600, Key_signature, 0, "major"
1, 413696, Time_signature, 4, 2, 24, 8
1, 413696, Key_signature, 0, "major"
1, 417793, End_track
2, 0, Start_track
2, 0, Title_t, "Grand Piano"
2, 0, Program_c, 0, 90
2, 0, Program_c, 0, 90
2, 0, Note_on_c, 0, 71, 45
2, 4096, Program_c, 0, 90
2, 4096, Note_off_c, 0, 71, 0
2, 4096, Note_on_c, 0, 78, 45
2, 4608, Note_off_c, 0, 78, 0
2, 4608, Note_on_c, 0, 78, 45
2, 5120, Note_off_c, 0, 78, 0
2, 5120, Note_on_c, 0, 73, 45
2, 5888, Note_off_c, 0, 73, 0
2, 5888, Note_on_c, 0, 71, 45
2, 6144, Note_off_c, 0, 71, 0
2, 6144, Note_on_c, 0, 81, 45
2, 7424, Note_off_c, 0, 81, 0
2, 7424, Note_on_c, 0, 84, 45
2, 7680, Note_off_c, 0, 84, 0
2, 7680, Note_on_c, 0, 79, 45
2, 8192, Program_c, 0, 90
2, 8192, Note_off_c, 0, 79, 0
2, 8192, Note_on_c, 0, 76, 45
2, 8448, Note_off_c, 0, 76, 0
2, 8448, Note_on_c, 0, 81, 45
2, 8704, Note_off_c, 0, 81, 0
2, 8704, Note_on_c, 0, 81, 45
2, 12288, Program_c, 0, 90
2, 12288, Note_off_c, 0, 81, 0
2, 12800, Note_on_c, 0, 76, 45
2, 13056, Note_off_c, 0, 76, 0
2, 13056, Note_on_c, 0, 81, 45
2, 13312, Note_off_c, 0, 81, 0
2, 13312, Note_on_c, 0, 81, 45
2, 15872, Note_off_c, 0, 81, 0
2, 15872, Note_on_c, 0, 78, 45
2, 16384, Program_c, 0, 90
2, 16384, Note_off_c, 0, 78, 0
2, 16384, Note_on_c, 0, 79, 45
2, 16725, Note_off_c, 0, 79, 0
2, 16725, Note_on_c, 0, 84, 45
2, 17067, Note_off_c, 0, 84, 0
2, 17067, Note_on_c, 0, 77, 45
2, 17408, Note_off_c, 0, 77, 0
2, 17408, Note_on_c, 0, 81, 45
2, 20480, Program_c, 0, 90
2, 20480, Note_off_c, 0, 81, 0
2, 20480, Note_on_c, 0, 76, 45
2, 21163, Note_off_c, 0, 76, 0
2, 21163, Note_on_c, 0, 74, 45
2, 21504, Note_off_c, 0, 74, 0
2, 21504, Note_on_c, 0, 84, 45
2, 24576, Program_c, 0, 90
2, 26368, Note_off_c, 0, 84, 0
2, 26368, Note_on_c, 0, 84, 45
2, 26624, Note_off_c, 0, 84, 0
2, 26624, Note_on_c, 0, 81, 45
2, 28160, Note_off_c, 0, 81, 0
2, 28160, Note_on_c, 0, 79, 45
2, 28672, Program_c, 0, 90
2, 29696, Note_off_c, 0, 79, 0
2, 29696, Note_on_c, 0, 77, 45
2, 31232, Note_off_c, 0, 77, 0
2, 31232, Note_on_c, 0, 74, 45
2, 32768, Program_c, 0, 90
2, 32768, Note_off_c, 0, 74, 0
2, 32768, Note_on_c, 0, 73, 45
2, 34304, Note_off_c, 0, 73, 0
2, 34304, Note_on_c, 0, 74, 45
2, 34560, Note_off_c, 0, 74, 0
2, 34560, Note_on_c, 0, 79, 45
2, 34816, Note_off_c, 0, 79, 0
2, 34816, Note_on_c, 0, 76, 45
2, 36864, Program_c, 0, 90
2, 40960, Program_c, 0, 90
2, 45056, Program_c, 0, 90
2, 48128, Note_off_c, 0, 76, 0
2, 49152, Program_c, 0, 90
2, 49152, Note_on_c, 0, 72, 45
2, 49664, Note_off_c, 0, 72, 0
2, 49664, Note_on_c, 0, 76, 45
2, 50176, Note_off_c, 0, 76, 0
2, 50176, Note_on_c, 0, 74, 45
2, 50688, Note_off_c, 0, 74, 0
2, 50688, Note_on_c, 0, 77, 45
2, 51200, Note_off_c, 0, 77, 0
2, 51200, Note_on_c, 0, 76, 45
2, 51712, Note_off_c, 0, 76, 0
2, 51712, Note_on_c, 0, 67, 45
2, 52224, Note_off_c, 0, 67, 0
2, 52224, Note_on_c, 0, 77, 45
2, 52736, Note_off_c, 0, 77, 0
2, 52736, Note_on_c, 0, 74, 45
2, 53248, Program_c, 0, 90
2, 53248, Note_off_c, 0, 74, 0
2, 53248, Note_on_c, 0, 81, 45
2, 53931, Note_off_c, 0, 81, 0
2, 53931, Note_on_c, 0, 84, 45
2, 54613, Note_off_c, 0, 84, 0
2, 54613, Note_on_c, 0, 76, 45
2, 55296, Note_off_c, 0, 76, 0
2, 55296, Note_on_c, 0, 76, 45
2, 55706, Note_off_c, 0, 76, 0
2, 55706, Note_on_c, 0, 77, 45
2, 56115, Note_off_c, 0, 77, 0
2, 56115, Note_on_c, 0, 76, 45
2, 56525, Note_off_c, 0, 76, 0
2, 56525, Note_on_c, 0, 74, 45
2, 56934, Note_off_c, 0, 74, 0
2, 56934, Note_on_c, 0, 69, 45
2, 57344, Program_c, 0, 90
2, 57344, Note_off_c, 0, 69, 0
2, 57344, Note_on_c, 0, 70, 45
2, 57637, Note_off_c, 0, 70, 0
2, 57637, Note_on_c, 0, 72, 45
2, 57929, Note_off_c, 0, 72, 0
2, 57929, Note_on_c, 0, 72, 45
2, 58222, Note_off_c, 0, 72, 0
2, 58222, Note_on_c, 0, 74, 45
2, 58514, Note_off_c, 0, 74, 0
2, 58514, Note_on_c, 0, 74, 45
2, 58807, Note_off_c, 0, 74, 0
2, 58807, Note_on_c, 0, 76, 45
2, 59099, Note_off_c, 0, 76, 0
2, 59099, Note_on_c, 0, 77, 45
2, 59392, Note_off_c, 0, 77, 0
2, 59392, Note_on_c, 0, 81, 45
2, 59685, Note_off_c, 0, 81, 0
2, 59685, Note_on_c, 0, 67, 45
2, 59977, Note_off_c, 0, 67, 0
2, 59977, Note_on_c, 0, 67, 45
2, 60270, Note_off_c, 0, 67, 0
2, 60270, Note_on_c, 0, 74, 45
2, 60562, Note_off_c, 0, 74, 0
2, 60562, Note_on_c, 0, 65, 45
2, 60855, Note_off_c, 0, 65, 0
2, 60855, Note_on_c, 0, 65, 45
2, 61147, Note_off_c, 0, 65, 0
2, 61147, Note_on_c, 0, 64, 45
2, 61440, Program_c, 0, 90
2, 61440, Note_off_c, 0, 64, 0
2, 61440, Note_on_c, 0, 67, 45
2, 65536, Program_c, 0, 90
2, 69632, Program_c, 0, 90
2, 69632, Note_off_c, 0, 67, 0
2, 70656, Note_on_c, 0, 71, 45
2, 71168, Note_off_c, 0, 71, 0
2, 71168, Note_on_c, 0, 73, 45
2, 71680, Note_off_c, 0, 73, 0
2, 71680, Note_on_c, 0, 73, 45
2, 72363, Note_off_c, 0, 73, 0
2, 72363, Note_on_c, 0, 71, 45
2, 73045, Note_off_c, 0, 71, 0
2, 73045, Note_on_c, 0, 74, 45
2, 73728, Program_c, 0, 90
2, 73728, Note_off_c, 0, 74, 0
2, 73728, Note_on_c, 0, 77, 45
2, 74411, Note_off_c, 0, 77, 0
2, 74411, Note_on_c, 0, 69, 45
2, 75093, Note_off_c, 0, 69, 0
2, 75093, Note_on_c, 0, 69, 45
2, 75776, Note_off_c, 0, 69, 0
2, 75776, Note_on_c, 0, 70, 45
2, 77312, Note_off_c, 0, 70, 0
2, 77312, Note_on_c, 0, 73, 45
2, 77824, Program_c, 0, 90
2, 77824, Note_off_c, 0, 73, 0
2, 77824, Note_on_c, 0, 76, 45
2, 78507, Note_off_c, 0, 76, 0
2, 78507, Note_on_c, 0, 81, 45
2, 79189, Note_off_c, 0, 81, 0
2, 79189, Note_on_c, 0, 82, 45
2, 79872, Note_off_c, 0, 82, 0
2, 79872, Note_on_c, 0, 77, 45
2, 80555, Note_off_c, 0, 77, 0
2, 80555, Note_on_c, 0, 72, 45
2, 81237, Note_off_c, 0, 72, 0
2, 81237, Note_on_c, 0, 67, 45
2, 81920, Program_c, 0, 90
2, 81920, Note_off_c, 0, 67, 0
2, 81920, Note_on_c, 0, 69, 45
2, 86016, Program_c, 0, 90
2, 87040, Note_off_c, 0, 69, 0
2, 87040, Note_on_c, 0, 81, 45
2, 90112, Program_c, 0, 90
2, 92160, Note_off_c, 0, 81, 0
2, 92160, Note_on_c, 0, 81, 45
2, 94208, Program_c, 0, 90
2, 97280, Note_off_c, 0, 81, 0
2, 97280, Note_on_c, 0, 69, 45
2, 98304, Program_c, 0, 90
2, 102400, Program_c, 0, 90
2, 102400, Note_off_c, 0, 69, 0
2, 102400, Note_on_c, 0, 83, 45
2, 106496, Program_c, 0, 90
2, 107520, Note_off_c, 0, 83, 0
2, 107520, Note_on_c, 0, 73, 45
2, 110592, Program_c, 0, 90
2, 112640, Note_off_c, 0, 73, 0
2, 112640, Note_on_c, 0, 76, 45
2, 114688, Program_c, 0, 90
2, 117760, Note_off_c, 0, 76, 0
2, 117760, Note_on_c, 0, 73, 45
2, 118784, Program_c, 0, 90
2, 121856, Note_off_c, 0, 73, 0
2, 122880, Program_c, 0, 90
2, 122880, Note_on_c, 0, 71, 45
2, 123392, Note_off_c, 0, 71, 0
2, 123392, Note_on_c, 0, 72, 45
2, 123904, Note_off_c, 0, 72, 0
2, 123904, Note_on_c, 0, 72, 45
2, 124245, Note_off_c, 0, 72, 0
2, 124245, Note_on_c, 0, 69, 45
2, 124587, Note_off_c, 0, 69, 0
2, 124587, Note_on_c, 0, 74, 45
2, 124928, Note_off_c, 0, 74, 0
2, 124928, Note_on_c, 0, 75, 45
2, 125338, Note_off_c, 0, 75, 0
2, 125338, Note_on_c, 0, 67, 45
2, 125747, Note_off_c, 0, 67, 0
2, 125747, Note_on_c, 0, 67, 45
2, 126157, Note_off_c, 0, 67, 0
2, 126157, Note_on_c, 0, 69, 45
2, 126566, Note_off_c, 0, 69, 0
2, 126566, Note_on_c, 0, 65, 45
2, 126976, Program_c, 0, 90
2, 126976, Note_off_c, 0, 65, 0
2, 126976, Note_on_c, 0, 64, 45
2, 127659, Note_off_c, 0, 64, 0
2, 127659, Note_on_c, 0, 67, 45
2, 128341, Note_off_c, 0, 67, 0
2, 128341, Note_on_c, 0, 67, 45
2, 129024, Note_off_c, 0, 67, 0
2, 129024, Note_on_c, 0, 65, 45
2, 129707, Note_off_c, 0, 65, 0
2, 129707, Note_on_c, 0, 65, 45
2, 130389, Note_off_c, 0, 65, 0
2, 130389, Note_on_c, 0, 74, 45
2, 131072, Program_c, 0, 90
2, 131072, Note_off_c, 0, 74, 0
2, 131072, Note_on_c, 0, 73, 45
2, 135168, Program_c, 0, 90
2, 139264, Program_c, 0, 90
2, 143360, Program_c, 0, 90
2, 146432, Note_off_c, 0, 73, 0
2, 147456, Program_c, 0, 90
2, 147456, Note_on_c, 0, 83, 45
2, 148736, Note_off_c, 0, 83, 0
2, 148736, Note_on_c, 0, 81, 45
2, 148992, Note_off_c, 0, 81, 0
2, 148992, Note_on_c, 0, 80, 45
2, 149248, Note_off_c, 0, 80, 0
2, 149248, Note_on_c, 0, 86, 45
2, 149504, Note_off_c, 0, 86, 0
2, 149504, Note_on_c, 0, 76, 45
2, 149845, Note_off_c, 0, 76, 0
2, 149845, Note_on_c, 0, 83, 45
2, 150187, Note_off_c, 0, 83, 0
2, 150187, Note_on_c, 0, 81, 45
2, 150528, Note_off_c, 0, 81, 0
2, 150528, Note_on_c, 0, 85, 45
2, 150733, Note_off_c, 0, 85, 0
2, 150733, Note_on_c, 0, 81, 45
2, 150938, Note_off_c, 0, 81, 0
2, 150938, Note_on_c, 0, 81, 45
2, 151142, Note_off_c, 0, 81, 0
2, 151142, Note_on_c, 0, 83, 45
2, 151347, Note_off_c, 0, 83, 0
2, 151347, Note_on_c, 0, 80, 45
2, 151552, Program_c, 0, 90
2, 151552, Note_off_c, 0, 80, 0
2, 152064, Note_on_c, 0, 85, 45
2, 152576, Note_off_c, 0, 85, 0
2, 152576, Note_on_c, 0, 78, 45
2, 152917, Note_off_c, 0, 78, 0
2, 152917, Note_on_c, 0, 83, 45
2, 153259, Note_off_c, 0, 83, 0
2, 153259, Note_on_c, 0, 80, 45
2, 153600, Note_off_c, 0, 80, 0
2, 153600, Note_on_c, 0, 92, 45
2, 154010, Note_off_c, 0, 92, 0
2, 154010, Note_on_c, 0, 90, 45
2, 154419, Note_off_c, 0, 90, 0
2, 154419, Note_on_c, 0, 85, 45
2, 154829, Note_off_c, 0, 85, 0
2, 154829, Note_on_c, 0, 88, 45
2, 155238, Note_off_c, 0, 88, 0
2, 155238, Note_on_c, 0, 78, 45
2, 155648, Program_c, 0, 90
2, 155648, Note_off_c, 0, 78, 0
2, 155648, Note_on_c, 0, 92, 45
2, 156058, Note_off_c, 0, 92, 0
2, 156058, Note_on_c, 0, 90, 45
2, 156467, Note_off_c, 0, 90, 0
2, 156467, Note_on_c, 0, 85, 45
2, 156877, Note_off_c, 0, 85, 0
2, 156877, Note_on_c, 0, 88, 45
2, 157286, Note_off_c, 0, 88, 0
2, 157286, Note_on_c, 0, 78, 45
2, 159744, Program_c, 0, 90
2, 163840, Program_c, 0, 90
2, 166912, Note_off_c, 0, 78, 0
2, 167936, Program_c, 0, 90
2, 167936, Note_on_c, 0, 80, 45
2, 168192, Note_off_c, 0, 80, 0
2, 168192, Note_on_c, 0, 81, 45
2, 168448, Note_off_c, 0, 81, 0
2, 168448, Note_on_c, 0, 80, 45
2, 168960, Note_off_c, 0, 80, 0
2, 168960, Note_on_c, 0, 80, 45
2, 169216, Note_off_c, 0, 80, 0
2, 169216, Note_on_c, 0, 81, 45
2, 169472, Note_off_c, 0, 81, 0
2, 169472, Note_on_c, 0, 80, 45
2, 169984, Note_off_c, 0, 80, 0
2, 169984, Note_on_c, 0, 80, 45
2, 170496, Note_off_c, 0, 80, 0
2, 170496, Note_on_c, 0, 71, 45
2, 170752, Note_off_c, 0, 71, 0
2, 170752, Note_on_c, 0, 81, 45
2, 171008, Note_off_c, 0, 81, 0
2, 171008, Note_on_c, 0, 78, 45
2, 171264, Note_off_c, 0, 78, 0
2, 171264, Note_on_c, 0, 73, 45
2, 171520, Note_off_c, 0, 73, 0
2, 171520, Note_on_c, 0, 83, 45
2, 171776, Note_off_c, 0, 83, 0
2, 171776, Note_on_c, 0, 78, 45
2, 172032, Program_c, 0, 90
2, 172032, Note_off_c, 0, 78, 0
2, 172032, Note_on_c, 0, 80, 45
2, 172288, Note_off_c, 0, 80, 0
2, 172288, Note_on_c, 0, 76, 45
2, 172544, Note_off_c, 0, 76, 0
2, 172544, Note_on_c, 0, 76, 45
2, 172800, Note_off_c, 0, 76, 0
2, 172800, Note_on_c, 0, 73, 45
2, 173056, Note_off_c, 0, 73, 0
2, 173056, Note_on_c, 0, 78, 45
2, 173312, Note_off_c, 0, 78, 0
2, 173312, Note_on_c, 0, 80, 45
2, 173568, Note_off_c, 0, 80, 0
2, 173568, Note_on_c, 0, 80, 45
2, 173824, Note_off_c, 0, 80, 0
2, 173824, Note_on_c, 0, 83, 45
2, 174080, Note_off_c, 0, 83, 0
2, 174080, Note_on_c, 0, 81, 45
2, 174336, Note_off_c, 0, 81, 0
2, 174336, Note_on_c, 0, 80, 45
2, 174592, Note_off_c, 0, 80, 0
2, 174592, Note_on_c, 0, 80, 45
2, 174848, Note_off_c, 0, 80, 0
2, 174848, Note_on_c, 0, 83, 45
2, 175104, Note_off_c, 0, 83, 0
2, 175104, Note_on_c, 0, 78, 45
2, 175360, Note_off_c, 0, 78, 0
2, 175360, Note_on_c, 0, 66, 45
2, 175616, Note_off_c, 0, 66, 0
2, 175616, Note_on_c, 0, 66, 45
2, 175872, Note_off_c, 0, 66, 0
2, 175872, Note_on_c, 0, 71, 45
2, 176128, Program_c, 0, 90
2, 176128, Note_off_c, 0, 71, 0
2, 176128, Note_on_c, 0, 73, 45
2, 176384, Note_off_c, 0, 73, 0
2, 176384, Note_on_c, 0, 69, 45
2, 176640, Note_off_c, 0, 69, 0
2, 176640, Note_on_c, 0, 71, 45
2, 176896, Note_off_c, 0, 71, 0
2, 176896, Note_on_c, 0, 76, 45
2, 177152, Note_off_c, 0, 76, 0
2, 177152, Note_on_c, 0, 80, 45
2, 177408, Note_off_c, 0, 80, 0
2, 177408, Note_on_c, 0, 66, 45
2, 177664, Note_off_c, 0, 66, 0
2, 177664, Note_on_c, 0, 71, 45
2, 177920, Note_off_c, 0, 71, 0
2, 177920, Note_on_c, 0, 73, 45
2, 178176, Note_off_c, 0, 73, 0
2, 178176, Note_on_c, 0, 74, 45
2, 178432, Note_off_c, 0, 74, 0
2, 178432, Note_on_c, 0, 81, 45
2, 178688, Note_off_c, 0, 81, 0
2, 178688, Note_on_c, 0, 78, 45
2, 178944, Note_off_c, 0, 78, 0
2, 178944, Note_on_c, 0, 76, 45
2, 179200, Note_off_c, 0, 76, 0
2, 179200, Note_on_c, 0, 78, 45
2, 179456, Note_off_c, 0, 78, 0
2, 179456, Note_on_c, 0, 80, 45
2, 179712, Note_off_c, 0, 80, 0
2, 179712, Note_on_c, 0, 76, 45
2, 179968, Note_off_c, 0, 76, 0
2, 179968, Note_on_c, 0, 71, 45
2, 180224, Program_c, 0, 90
2, 180224, Note_off_c, 0, 71, 0
2, 181248, Note_on_c, 0, 78, 45
2, 181504, Note_off_c, 0, 78, 0
2, 181504, Note_on_c, 0, 80, 45
2, 181760, Note_off_c, 0, 80, 0
2, 181760, Note_on_c, 0, 76, 45
2, 182016, Note_off_c, 0, 76, 0
2, 182016, Note_on_c, 0, 71, 45
2, 182272, Note_off_c, 0, 71, 0
2, 184320, Program_c, 0, 90
2, 184320, Note_on_c, 0, 78, 45
2, 184576, Note_off_c, 0, 78, 0
2, 184576, Note_on_c, 0, 80, 45
2, 184832, Note_off_c, 0, 80, 0
2, 184832, Note_on_c, 0, 76, 45
2, 185088, Note_off_c, 0, 76, 0
2, 185088, Note_on_c, 0, 71, 45
2, 185344, Note_off_c, 0, 71, 0
2, 187392, Note_on_c, 0, 78, 45
2, 187648, Note_off_c, 0, 78, 0
2, 187648, Note_on_c, 0, 80, 45
2, 187904, Note_off_c, 0, 80, 0
2, 187904, Note_on_c, 0, 76, 45
2, 188160, Note_off_c, 0, 76, 0
2, 188160, Note_on_c, 0, 71, 45
2, 188416, Program_c, 0, 90
2, 188416, Note_off_c, 0, 71, 0
2, 188416, Note_on_c, 0, 81, 45
2, 190336, Note_on_c, 0, 81, 45
2, 190464, Note_off_c, 0, 81, 0
2, 190464, Note_off_c, 0, 81, 0
2, 190464, Note_on_c, 0, 80, 45
2, 190976, Note_off_c, 0, 80, 0
2, 191488, Note_on_c, 0, 78, 45
2, 192000, Note_off_c, 0, 78, 0
2, 192512, Program_c, 0, 90
2, 192512, Note_on_c, 0, 88, 45
2, 193097, Note_off_c, 0, 88, 0
2, 193097, Note_on_c, 0, 78, 45
2, 193682, Note_off_c, 0, 78, 0
2, 193682, Note_on_c, 0, 78, 45
2, 193975, Note_off_c, 0, 78, 0
2, 193975, Note_on_c, 0, 83, 45
2, 194267, Note_off_c, 0, 83, 0
2, 194267, Note_on_c, 0, 80, 45
2, 194560, Note_off_c, 0, 80, 0
2, 194560, Note_on_c, 0, 85, 45
2, 195072, Note_off_c, 0, 85, 0
2, 195072, Note_on_c, 0, 83, 45
2, 195584, Note_off_c, 0, 83, 0
2, 195584, Note_on_c, 0, 83, 45
2, 196096, Note_off_c, 0, 83, 0
2, 196096, Note_on_c, 0, 81, 45
2, 196608, Program_c, 0, 90
2, 196608, Note_off_c, 0, 81, 0
2, 196608, Note_on_c, 0, 80, 45
2, 198144, Note_off_c, 0, 80, 0
2, 198144, Note_on_c, 0, 81, 45
2, 198528, Note_on_c, 0, 81, 45
2, 198656, Note_off_c, 0, 81, 0
2, 198656, Note_off_c, 0, 81, 0
2, 198656, Note_on_c, 0, 78, 45
2, 199339, Note_off_c, 0, 78, 0
2, 199339, Note_on_c, 0, 76, 45
2, 200021, Note_off_c, 0, 76, 0
2, 200021, Note_on_c, 0, 76, 45
2, 200704, Program_c, 0, 90
2, 200704, Note_off_c, 0, 76, 0
2, 200704, Note_on_c, 0, 78, 45
2, 202752, Note_off_c, 0, 78, 0
2, 202752, Note_on_c, 0, 66, 45
2, 203008, Note_off_c, 0, 66, 0
2, 203008, Note_on_c, 0, 71, 45
2, 203264, Note_off_c, 0, 71, 0
2, 203264, Note_on_c, 0, 71, 45
2, 203520, Note_off_c, 0, 71, 0
2, 203520, Note_on_c, 0, 69, 45
2, 203776, Note_off_c, 0, 69, 0
2, 203776, Note_on_c, 0, 71, 45
2, 204800, Program_c, 0, 90
2, 205056, Note_off_c, 0, 71, 0
2, 205056, Note_on_c, 0, 73, 45
2, 205312, Note_off_c, 0, 73, 0
2, 205312, Note_on_c, 0, 71, 45
2, 205824, Note_off_c, 0, 71, 0
2, 205824, Note_on_c, 0, 66, 45
2, 207360, Note_off_c, 0, 66, 0
2, 207360, Note_on_c, 0, 68, 45
2, 208384, Note_off_c, 0, 68, 0
2, 208384, Note_on_c, 0, 59, 45
2, 208896, Program_c, 0, 90
2, 208896, Note_off_c, 0, 59, 0
2, 208896, Note_on_c, 0, 60, 45
2, 209579, Note_off_c, 0, 60, 0
2, 209579, Note_on_c, 0, 70, 45
2, 210261, Note_off_c, 0, 70, 0
2, 210261, Note_on_c, 0, 65, 45
2, 210944, Note_off_c, 0, 65, 0
2, 210944, Note_on_c, 0, 75, 45
2, 212992, Program_c, 0, 90
2, 212992, Note_off_c, 0, 75, 0
2, 212992, Note_on_c, 0, 73, 45
2, 213675, Note_off_c, 0, 73, 0
2, 213675, Note_on_c, 0, 70, 45
2, 214016, Note_off_c, 0, 70, 0
2, 214016, Note_on_c, 0, 72, 45
2, 217088, Program_c, 0, 90
2, 217856, Note_off_c, 0, 72, 0
2, 217856, Note_on_c, 0, 75, 45
2, 218112, Note_off_c, 0, 75, 0
2, 218112, Note_on_c, 0, 68, 45
2, 219136, Note_off_c, 0, 68, 0
2, 219136, Note_on_c, 0, 73, 45
2, 219819, Note_off_c, 0, 73, 0
2, 219819, Note_on_c, 0, 78, 45
2, 220501, Note_off_c, 0, 78, 0
2, 220501, Note_on_c, 0, 70, 45
2, 221184, Program_c, 0, 90
2, 221184, Note_off_c, 0, 70, 0
2, 221184, Note_on_c, 0, 75, 45
2, 221696, Note_off_c, 0, 75, 0
2, 221696, Note_on_c, 0, 73, 45
2, 221952, Note_off_c, 0, 73, 0
2, 221952, Note_on_c, 0, 77, 45
2, 222208, Note_off_c, 0, 77, 0
2, 222208, Note_on_c, 0, 72, 45
2, 225280, Program_c, 0, 90
2, 225280, Note_off_c, 0, 72, 0
2, 225280, Note_on_c, 0, 72, 45
2, 225792, Note_off_c, 0, 72, 0
2, 225792, Note_on_c, 0, 76, 45
2, 226304, Note_off_c, 0, 76, 0
2, 226304, Note_on_c, 0, 74, 45
2, 226816, Note_off_c, 0, 74, 0
2, 226816, Note_on_c, 0, 77, 45
2, 227328, Note_off_c, 0, 77, 0
2, 227328, Note_on_c, 0, 76, 45
2, 227840, Note_off_c, 0, 76, 0
2, 227840, Note_on_c, 0, 67, 45
2, 228352, Note_off_c, 0, 67, 0
2, 228352, Note_on_c, 0, 77, 45
2, 228864, Note_off_c, 0, 77, 0
2, 228864, Note_on_c, 0, 74, 45
2, 229376, Program_c, 0, 90
2, 229376, Note_off_c, 0, 74, 0
2, 229376, Note_on_c, 0, 81, 45
2, 230059, Note_off_c, 0, 81, 0
2, 230059, Note_on_c, 0, 84, 45
2, 230741, Note_off_c, 0, 84, 0
2, 230741, Note_on_c, 0, 76, 45
2, 231424, Note_off_c, 0, 76, 0
2, 231424, Note_on_c, 0, 76, 45
2, 231834, Note_off_c, 0, 76, 0
2, 231834, Note_on_c, 0, 77, 45
2, 232243, Note_off_c, 0, 77, 0
2, 232243, Note_on_c, 0, 76, 45
2, 232653, Note_off_c, 0, 76, 0
2, 232653, Note_on_c, 0, 74, 45
2, 233062, Note_off_c, 0, 74, 0
2, 233062, Note_on_c, 0, 69, 45
2, 233472, Program_c, 0, 90
2, 233472, Note_off_c, 0, 69, 0
2, 233472, Note_on_c, 0, 71, 45
2, 233765, Note_off_c, 0, 71, 0
2, 233765, Note_on_c, 0, 72, 45
2, 234057, Note_off_c, 0, 72, 0
2, 234057, Note_on_c, 0, 72, 45
2, 234350, Note_off_c, 0, 72, 0
2, 234350, Note_on_c, 0, 74, 45
2, 234642, Note_off_c, 0, 74, 0
2, 234642, Note_on_c, 0, 74, 45
2, 234935, Note_off_c, 0, 74, 0
2, 234935, Note_on_c, 0, 76, 45
2, 235227, Note_off_c, 0, 76, 0
2, 235227, Note_on_c, 0, 77, 45
2, 235520, Note_off_c, 0, 77, 0
2, 235520, Note_on_c, 0, 81, 45
2, 235813, Note_off_c, 0, 81, 0
2, 235813, Note_on_c, 0, 67, 45
2, 236105, Note_off_c, 0, 67, 0
2, 236105, Note_on_c, 0, 67, 45
2, 236398, Note_off_c, 0, 67, 0
2, 236398, Note_on_c, 0, 74, 45
2, 236690, Note_off_c, 0, 74, 0
2, 236690, Note_on_c, 0, 65, 45
2, 236983, Note_off_c, 0, 65, 0
2, 236983, Note_on_c, 0, 65, 45
2, 237275, Note_off_c, 0, 65, 0
2, 237275, Note_on_c, 0, 64, 45
2, 237568, Program_c, 0, 90
2, 237568, Note_off_c, 0, 64, 0
2, 237568, Note_on_c, 0, 67, 45
2, 241664, Program_c, 0, 90
2, 245760, Program_c, 0, 90
2, 245760, Note_off_c, 0, 67, 0
2, 246784, Note_on_c, 0, 71, 45
2, 247296, Note_off_c, 0, 71, 0
2, 247296, Note_on_c, 0, 73, 45
2, 247808, Note_off_c, 0, 73, 0
2, 247808, Note_on_c, 0, 73, 45
2, 248491, Note_off_c, 0, 73, 0
2, 248491, Note_on_c, 0, 71, 45
2, 249173, Note_off_c, 0, 71, 0
2, 249173, Note_on_c, 0, 74, 45
2, 249856, Program_c, 0, 90
2, 249856, Note_off_c, 0, 74, 0
2, 249856, Note_on_c, 0, 77, 45
2, 250539, Note_off_c, 0, 77, 0
2, 250539, Note_on_c, 0, 69, 45
2, 251221, Note_off_c, 0, 69, 0
2, 251221, Note_on_c, 0, 69, 45
2, 251904, Note_off_c, 0, 69, 0
2, 251904, Note_on_c, 0, 70, 45
2, 253440, Note_off_c, 0, 70, 0
2, 253440, Note_on_c, 0, 73, 45
2, 253952, Program_c, 0, 90
2, 253952, Note_off_c, 0, 73, 0
2, 253952, Note_on_c, 0, 76, 45
2, 254635, Note_off_c, 0, 76, 0
2, 254635, Note_on_c, 0, 81, 45
2, 255317, Note_off_c, 0, 81, 0
2, 255317, Note_on_c, 0, 82, 45
2, 256000, Note_off_c, 0, 82, 0
2, 256000, Note_on_c, 0, 77, 45
2, 256683, Note_off_c, 0, 77, 0
2, 256683, Note_on_c, 0, 72, 45
2, 257365, Note_off_c, 0, 72, 0
2, 257365, Note_on_c, 0, 67, 45
2, 258048, Program_c, 0, 90
2, 258048, Note_off_c, 0, 67, 0
2, 258048, Note_on_c, 0, 69, 45
2, 262144, Program_c, 0, 90
2, 263168, Note_off_c, 0, 69, 0
2, 263168, Note_on_c, 0, 81, 45
2, 266240, Program_c, 0, 90
2, 268288, Note_off_c, 0, 81, 0
2, 268288, Note_on_c, 0, 81, 45
2, 270336, Program_c, 0, 90
2, 273408, Note_off_c, 0, 81, 0
2, 273408, Note_on_c, 0, 69, 45
2, 274432, Program_c, 0, 90
2, 278528, Program_c, 0, 90
2, 278528, Note_off_c, 0, 69, 0
2, 278528, Note_on_c, 0, 83, 45
2, 282624, Program_c, 0, 90
2, 283648, Note_off_c, 0, 83, 0
2, 283648, Note_on_c, 0, 73, 45
2, 286720, Program_c, 0, 90
2, 288768, Note_off_c, 0, 73, 0
2, 288768, Note_on_c, 0, 76, 45
2, 290816, Program_c, 0, 90
2, 293888, Note_off_c, 0, 76, 0
2, 293888, Note_on_c, 0, 73, 45
2, 294912, Program_c, 0, 90
2, 299008, Program_c, 0, 90
2, 299008, Note_off_c, 0, 73, 0
2, 299008, Note_on_c, 0, 71, 45
2, 299520, Note_off_c, 0, 71, 0
2, 299520, Note_on_c, 0, 72, 45
2, 300032, Note_off_c, 0, 72, 0
2, 300032, Note_on_c, 0, 72, 45
2, 300373, Note_off_c, 0, 72, 0
2, 300373, Note_on_c, 0, 69, 45
2, 300715, Note_off_c, 0, 69, 0
2, 300715, Note_on_c, 0, 74, 45
2, 301056, Note_off_c, 0, 74, 0
2, 301056, Note_on_c, 0, 75, 45
2, 301466, Note_off_c, 0, 75, 0
2, 301466, Note_on_c, 0, 67, 45
2, 301875, Note_off_c, 0, 67, 0
2, 301875, Note_on_c, 0, 67, 45
2, 302285, Note_off_c, 0, 67, 0
2, 302285, Note_on_c, 0, 69, 45
2, 302694, Note_off_c, 0, 69, 0
2, 302694, Note_on_c, 0, 65, 45
2, 303104, Program_c, 0, 90
2, 303104, Note_off_c, 0, 65, 0
2, 303104, Note_on_c, 0, 64, 45
2, 303787, Note_off_c, 0, 64, 0
2, 303787, Note_on_c, 0, 67, 45
2, 304469, Note_off_c, 0, 67, 0
2, 304469, Note_on_c, 0, 67, 45
2, 305152, Note_off_c, 0, 67, 0
2, 305152, Note_on_c, 0, 65, 45
2, 305835, Note_off_c, 0, 65, 0
2, 305835, Note_on_c, 0, 65, 45
2, 306517, Note_off_c, 0, 65, 0
2, 306517, Note_on_c, 0, 70, 45
2, 307200, Program_c, 0, 90
2, 307200, Note_off_c, 0, 70, 0
2, 307200, Note_on_c, 0, 71, 45
2, 311296, Program_c, 0, 90
2, 315392, Program_c, 0, 90
2, 319488, Program_c, 0, 90
2, 323584, Program_c, 0, 90
2, 323584, Note_off_c, 0, 71, 0
2, 323584, Note_on_c, 0, 69, 45
2, 324608, Note_off_c, 0, 69, 0
2, 324608, Note_on_c, 0, 69, 45
2, 324864, Note_off_c, 0, 69, 0
2, 324864, Note_on_c, 0, 67, 45
2, 325120, Note_off_c, 0, 67, 0
2, 325120, Note_on_c, 0, 66, 45
2, 325376, Note_off_c, 0, 66, 0
2, 325376, Note_on_c, 0, 72, 45
2, 325632, Note_off_c, 0, 72, 0
2, 325632, Note_on_c, 0, 62, 45
2, 325973, Note_off_c, 0, 62, 0
2, 325973, Note_on_c, 0, 69, 45
2, 326315, Note_off_c, 0, 69, 0
2, 326315, Note_on_c, 0, 67, 45
2, 326656, Note_off_c, 0, 67, 0
2, 326656, Note_on_c, 0, 71, 45
2, 326861, Note_off_c, 0, 71, 0
2, 326861, Note_on_c, 0, 67, 45
2, 327066, Note_off_c, 0, 67, 0
2, 327066, Note_on_c, 0, 67, 45
2, 327270, Note_off_c, 0, 67, 0
2, 327270, Note_on_c, 0, 69, 45
2, 327475, Note_off_c, 0, 69, 0
2, 327475, Note_on_c, 0, 66, 45
2, 327680, Program_c, 0, 90
2, 327680, Note_off_c, 0, 66, 0
2, 328192, Note_on_c, 0, 71, 45
2, 328704, Note_off_c, 0, 71, 0
2, 328704, Note_on_c, 0, 64, 45
2, 329045, Note_off_c, 0, 64, 0
2, 329045, Note_on_c, 0, 69, 45
2, 329387, Note_off_c, 0, 69, 0
2, 329387, Note_on_c, 0, 66, 45
2, 329728, Note_off_c, 0, 66, 0
2, 329728, Note_on_c, 0, 78, 45
2, 330138, Note_off_c, 0, 78, 0
2, 330138, Note_on_c, 0, 76, 45
2, 330547, Note_off_c, 0, 76, 0
2, 330547, Note_on_c, 0, 71, 45
2, 330957, Note_off_c, 0, 71, 0
2, 330957, Note_on_c, 0, 74, 45
2, 331366, Note_off_c, 0, 74, 0
2, 331366, Note_on_c, 0, 64, 45
2, 331776, Program_c, 0, 90
2, 331776, Note_off_c, 0, 64, 0
2, 331776, Note_on_c, 0, 78, 45
2, 332186, Note_off_c, 0, 78, 0
2, 332186, Note_on_c, 0, 76, 45
2, 332595, Note_off_c, 0, 76, 0
2, 332595, Note_on_c, 0, 71, 45
2, 333005, Note_off_c, 0, 71, 0
2, 333005, Note_on_c, 0, 74, 45
2, 333414, Note_off_c, 0, 74, 0
2, 333414, Note_on_c, 0, 64, 45
2, 333824, Note_off_c, 0, 64, 0
2, 333824, Note_on_c, 0, 64, 45
2, 335872, Program_c, 0, 90
2, 339968, Program_c, 0, 90
2, 344064, Program_c, 0, 90
2, 344064, Note_off_c, 0, 64, 0
2, 344474, Note_on_c, 0, 66, 45
2, 344883, Note_off_c, 0, 66, 0
2, 344883, Note_on_c, 0, 67, 45
2, 345293, Note_off_c, 0, 67, 0
2, 345293, Note_on_c, 0, 72, 45
2, 345702, Note_off_c, 0, 72, 0
2, 345702, Note_on_c, 0, 71, 45
2, 346112, Note_off_c, 0, 71, 0
2, 346112, Note_on_c, 0, 78, 45
2, 346522, Note_off_c, 0, 78, 0
2, 346522, Note_on_c, 0, 79, 45
2, 346931, Note_off_c, 0, 79, 0
2, 346931, Note_on_c, 0, 76, 45
2, 347341, Note_off_c, 0, 76, 0
2, 347341, Note_on_c, 0, 81, 45
2, 347750, Note_off_c, 0, 81, 0
2, 347750, Note_on_c, 0, 78, 45
2, 348160, Program_c, 0, 90
2, 348160, Note_off_c, 0, 78, 0
2, 348160, Note_on_c, 0, 79, 45
2, 348672, Note_off_c, 0, 79, 0
2, 348672, Note_on_c, 0, 78, 45
2, 349184, Note_off_c, 0, 78, 0
2, 349184, Note_on_c, 0, 78, 45
2, 349696, Note_off_c, 0, 78, 0
2, 349696, Note_on_c, 0, 76, 45
2, 350208, Note_off_c, 0, 76, 0
2, 350208, Note_on_c, 0, 86, 45
2, 350394, Note_off_c, 0, 86, 0
2, 350394, Note_on_c, 0, 81, 45
2, 350580, Note_off_c, 0, 81, 0
2, 350580, Note_on_c, 0, 81, 45
2, 350767, Note_off_c, 0, 81, 0
2, 350767, Note_on_c, 0, 83, 45
2, 350953, Note_off_c, 0, 83, 0
2, 350953, Note_on_c, 0, 84, 45
2, 351139, Note_off_c, 0, 84, 0
2, 351139, Note_on_c, 0, 88, 45
2, 351325, Note_off_c, 0, 88, 0
2, 351325, Note_on_c, 0, 83, 45
2, 351511, Note_off_c, 0, 83, 0
2, 351511, Note_on_c, 0, 83, 45
2, 351698, Note_off_c, 0, 83, 0
2, 351698, Note_on_c, 0, 84, 45
2, 351884, Note_off_c, 0, 84, 0
2, 351884, Note_on_c, 0, 74, 45
2, 352070, Note_off_c, 0, 74, 0
2, 352070, Note_on_c, 0, 81, 45
2, 352256, Program_c, 0, 90
2, 352256, Note_off_c, 0, 81, 0
2, 352256, Note_on_c, 0, 83, 45
2, 352442, Note_off_c, 0, 83, 0
2, 352442, Note_on_c, 0, 76, 45
2, 352628, Note_off_c, 0, 76, 0
2, 352628, Note_on_c, 0, 76, 45
2, 352815, Note_off_c, 0, 76, 0
2, 352815, Note_on_c, 0, 79, 45
2, 353001, Note_off_c, 0, 79, 0
2, 353001, Note_on_c, 0, 79, 45
2, 353187, Note_off_c, 0, 79, 0
2, 353187, Note_on_c, 0, 86, 45
2, 353373, Note_off_c, 0, 86, 0
2, 353373, Note_on_c, 0, 78, 45
2, 353559, Note_off_c, 0, 78, 0
2, 353559, Note_on_c, 0, 78, 45
2, 353746, Note_off_c, 0, 78, 0
2, 353746, Note_on_c, 0, 81, 45
2, 353932, Note_off_c, 0, 81, 0
2, 353932, Note_on_c, 0, 76, 45
2, 354118, Note_off_c, 0, 76, 0
2, 354118, Note_on_c, 0, 71, 45
2, 354304, Note_off_c, 0, 71, 0
2, 354304, Note_on_c, 0, 81, 45
2, 354987, Note_off_c, 0, 81, 0
2, 354987, Note_on_c, 0, 72, 45
2, 355669, Note_off_c, 0, 72, 0
2, 355669, Note_on_c, 0, 72, 45
2, 356352, Program_c, 0, 90
2, 356352, Note_off_c, 0, 72, 0
2, 356352, Note_on_c, 0, 79, 45
2, 360448, Program_c, 0, 90
2, 360448, Note_off_c, 0, 79, 0
2, 361472, Note_on_c, 0, 75, 45
2, 362496, Note_off_c, 0, 75, 0
2, 362496, Note_on_c, 0, 82, 45
2, 363179, Note_off_c, 0, 82, 0
2, 363179, Note_on_c, 0, 80, 45
2, 363861, Note_off_c, 0, 80, 0
2, 363861, Note_on_c, 0, 77, 45
2, 364544, Program_c, 0, 90
2, 364544, Note_off_c, 0, 77, 0
2, 364544, Note_on_c, 0, 77, 45
2, 364954, Note_off_c, 0, 77, 0
2, 364954, Note_on_c, 0, 79, 45
2, 365363, Note_off_c, 0, 79, 0
2, 365363, Note_on_c, 0, 75, 45
2, 365773, Note_off_c, 0, 75, 0
2, 365773, Note_on_c, 0, 70, 45
2, 366182, Note_off_c, 0, 70, 0
2, 366182, Note_on_c, 0, 80, 45
2, 366592, Note_off_c, 0, 80, 0
2, 366592, Note_on_c, 0, 84, 45
2, 366933, Note_off_c, 0, 84, 0
2, 366933, Note_on_c, 0, 82, 45
2, 367275, Note_off_c, 0, 82, 0
2, 367275, Note_on_c, 0, 82, 45
2, 367616, Note_off_c, 0, 82, 0
2, 367616, Note_on_c, 0, 80, 45
2, 367957, Note_off_c, 0, 80, 0
2, 367957, Note_on_c, 0, 80, 45
2, 368299, Note_off_c, 0, 80, 0
2, 368299, Note_on_c, 0, 77, 45
2, 368640, Program_c, 0, 90
2, 368640, Note_off_c, 0, 77, 0
2, 368640, Note_on_c, 0, 82, 45
2, 369012, Note_off_c, 0, 82, 0
2, 369012, Note_on_c, 0, 78, 45
2, 369385, Note_off_c, 0, 78, 0
2, 369385, Note_on_c, 0, 78, 45
2, 369757, Note_off_c, 0, 78, 0
2, 369757, Note_on_c, 0, 80, 45
2, 370129, Note_off_c, 0, 80, 0
2, 370129, Note_on_c, 0, 77, 45
2, 370502, Note_off_c, 0, 77, 0
2, 370502, Note_on_c, 0, 73, 45
2, 370874, Note_off_c, 0, 73, 0
2, 370874, Note_on_c, 0, 73, 45
2, 371247, Note_off_c, 0, 73, 0
2, 371247, Note_on_c, 0, 75, 45
2, 371619, Note_off_c, 0, 75, 0
2, 371619, Note_on_c, 0, 71, 45
2, 371991, Note_off_c, 0, 71, 0
2, 371991, Note_on_c, 0, 80, 45
2, 372364, Note_off_c, 0, 80, 0
2, 372364, Note_on_c, 0, 77, 45
2, 372736, Program_c, 0, 90
2, 372736, Note_off_c, 0, 77, 0
2, 372736, Note_on_c, 0, 77, 45
2, 373108, Note_off_c, 0, 77, 0
2, 373108, Note_on_c, 0, 75, 45
2, 373481, Note_off_c, 0, 75, 0
2, 373481, Note_on_c, 0, 78, 45
2, 373853, Note_off_c, 0, 78, 0
2, 373853, Note_on_c, 0, 77, 45
2, 374225, Note_off_c, 0, 77, 0
2, 374225, Note_on_c, 0, 73, 45
2, 374598, Note_off_c, 0, 73, 0
2, 374598, Note_on_c, 0, 75, 45
2, 374970, Note_off_c, 0, 75, 0
2, 374970, Note_on_c, 0, 80, 45
2, 375343, Note_off_c, 0, 80, 0
2, 375343, Note_on_c, 0, 73, 45
2, 375715, Note_off_c, 0, 73, 0
2, 375715, Note_on_c, 0, 78, 45
2, 376087, Note_off_c, 0, 78, 0
2, 376087, Note_on_c, 0, 65, 45
2, 376460, Note_off_c, 0, 65, 0
2, 376460, Note_on_c, 0, 71, 45
2, 376832, Program_c, 0, 90
2, 376832, Note_off_c, 0, 71, 0
2, 376832, Note_on_c, 0, 68, 45
2, 380928, Program_c, 0, 90
2, 385024, Note_off_c, 0, 68, 0
2, 385024, Note_on_c, 0, 82, 45
2, 385396, Note_off_c, 0, 82, 0
2, 385396, Note_on_c, 0, 78, 45
2, 385769, Note_off_c, 0, 78, 0
2, 385769, Note_on_c, 0, 78, 45
2, 386141, Note_off_c, 0, 78, 0
2, 386141, Note_on_c, 0, 80, 45
2, 386513, Note_off_c, 0, 80, 0
2, 386513, Note_on_c, 0, 77, 45
2, 386886, Note_off_c, 0, 77, 0
2, 386886, Note_on_c, 0, 73, 45
2, 387258, Note_off_c, 0, 73, 0
2, 387258, Note_on_c, 0, 73, 45
2, 387631, Note_off_c, 0, 73, 0
2, 387631, Note_on_c, 0, 75, 45
2, 388003, Note_off_c, 0, 75, 0
2, 388003, Note_on_c, 0, 71, 45
2, 388375, Note_off_c, 0, 71, 0
2, 388375, Note_on_c, 0, 80, 45
2, 388748, Note_off_c, 0, 80, 0
2, 388748, Note_on_c, 0, 77, 45
2, 389120, Note_off_c, 0, 77, 0
2, 389120, Note_on_c, 0, 77, 45
2, 389492, Note_off_c, 0, 77, 0
2, 389492, Note_on_c, 0, 75, 45
2, 389865, Note_off_c, 0, 75, 0
2, 389865, Note_on_c, 0, 78, 45
2, 390237, Note_off_c, 0, 78, 0
2, 390237, Note_on_c, 0, 77, 45
2, 390609, Note_off_c, 0, 77, 0
2, 390609, Note_on_c, 0, 73, 45
2, 390982, Note_off_c, 0, 73, 0
2, 390982, Note_on_c, 0, 75, 45
2, 391354, Note_off_c, 0, 75, 0
2, 391354, Note_on_c, 0, 80, 45
2, 391727, Note_off_c, 0, 80, 0
2, 391727, Note_on_c, 0, 73, 45
2, 392099, Note_off_c, 0, 73, 0
2, 392099, Note_on_c, 0, 78, 45
2, 392471, Note_off_c, 0, 78, 0
2, 392471, Note_on_c, 0, 65, 45
2, 392844, Note_off_c, 0, 65, 0
2, 392844, Note_on_c, 0, 71, 45
2, 393216, Note_off_c, 0, 71, 0
2, 393216, Note_on_c, 0, 68, 45
2, 401408, Program_c, 0, 90
2, 401408, Note_off_c, 0, 68, 0
2, 401408, Note_on_c, 0, 82, 45
2, 401780, Note_off_c, 0, 82, 0
2, 401780, Note_on_c, 0, 78, 45
2, 402153, Note_off_c, 0, 78, 0
2, 402153, Note_on_c, 0, 78, 45
2, 402525, Note_off_c, 0, 78, 0
2, 402525, Note_on_c, 0, 80, 45
2, 402897, Note_off_c, 0, 80, 0
2, 402897, Note_on_c, 0, 77, 45
2, 403270, Note_off_c, 0, 77, 0
2, 403270, Note_on_c, 0, 73, 45
2, 403642, Note_off_c, 0, 73, 0
2, 403642, Note_on_c, 0, 73, 45
2, 404015, Note_off_c, 0, 73, 0
2, 404015, Note_on_c, 0, 75, 45
2, 404387, Note_off_c, 0, 75, 0
2, 404387, Note_on_c, 0, 71, 45
2, 404759, Note_off_c, 0, 71, 0
2, 404759, Note_on_c, 0, 80, 45
2, 405132, Note_off_c, 0, 80, 0
2, 405132, Note_on_c, 0, 77, 45
2, 405504, Program_c, 0, 90
2, 405504, Note_off_c, 0, 77, 0
2, 405504, Note_on_c, 0, 77, 45
2, 405876, Note_off_c, 0, 77, 0
2, 405876, Note_on_c, 0, 75, 45
2, 406249, Note_off_c, 0, 75, 0
2, 406249, Note_on_c, 0, 78, 45
2, 406621, Note_off_c, 0, 78, 0
2, 406621, Note_on_c, 0, 77, 45
2, 406993, Note_off_c, 0, 77, 0
2, 406993, Note_on_c, 0, 73, 45
2, 407366, Note_off_c, 0, 73, 0
2, 407366, Note_on_c, 0, 75, 45
2, 407738, Note_off_c, 0, 75, 0
2, 407738, Note_on_c, 0, 80, 45
2, 408111, Note_off_c, 0, 80, 0
2, 408111, Note_on_c, 0, 73, 45
2, 408483, Note_off_c, 0, 73, 0
2, 408483, Note_on_c, 0, 78, 45
2, 408855, Note_off_c, 0, 78, 0
2, 408855, Note_on_c, 0, 65, 45
2, 409228, Note_off_c, 0, 65, 0
2, 409228, Note_on_c, 0, 71, 45
2, 409600, Program_c, 0, 90
2, 409600, Note_off_c, 0, 71, 0
2, 409600, Note_on_c, 0, 52, 45
2, 409600, Note_on_c, 0, 56, 45
2, 409600, Note_on_c, 0, 59, 45
2, 409600, Note_on_c, 0, 64, 45
2, 409600, Note_on_c, 0, 68, 45
2, 413696, Program_c, 0, 90
2, 417792, Note_off_c, 0, 52, 0
2, 417792, Note_off_c, 0, 56, 0
2, 417792, Note_off_c, 0, 59, 0
2, 417792, Note_off_c, 0, 64, 0
2, 417792, Note_off_c, 0, 68, 0
2, 417793, End_track
3, 0, Start_track
3, 0, Title_t, "Acoustic Bass"
3, 0, Program_c, 2, 63
3, 0, Program_c, 2, 63
3, 0, Note_on_c, 2, 43, 55
3, 256, Note_off_c, 2, 43, 0
3, 256, Note_on_c, 2, 43, 55
3, 512, Note_off_c, 2, 43, 0
3, 1536, Note_on_c, 2, 43, 55
3, 1792, Note_off_c, 2, 43, 0
3, 1792, Note_on_c, 2, 43, 55
3, 2048, Note_off_c, 2, 43, 0
3, 4096, Program_c, 2, 63
3, 4096, Note_on_c, 2, 43, 55
3, 4352, Note_off_c, 2, 43, 0
3, 4352, Note_on_c, 2, 43, 55
3, 4608, Note_off_c, 2, 43, 0
3, 5632, Note_on_c, 2, 43, 55
3, 5888, Note_off_c, 2, 43, 0
3, 5888, Note_on_c, 2, 43, 55
3, 6144, Note_off_c, 2, 43, 0
3, 8192, Program_c, 2, 63
3, 8192, Note_on_c, 2, 43, 55
3, 8448, Note_off_c, 2, 43, 0
3, 8448, Note_on_c, 2, 43, 55
3, 8704, Note_off_c, 2, 43, 0
3, 9728, Note_on_c, 2, 43, 55
3, 9984, Note_off_c, 2, 43, 0
3, 9984, Note_on_c, 2, 43, 55
3, 10240, Note_off_c, 2, 43, 0
3, 12288, Program_c, 2, 63
3, 12288, Note_on_c, 2, 43, 55
3, 12544, Note_off_c, 2, 43, 0
3, 12544, Note_on_c, 2, 43, 55
3, 12800, Note_off_c, 2, 43, 0
3, 13824, Note_on_c, 2, 43, 55
3, 14080, Note_off_c, 2, 43, 0
3, 14080, Note_on_c, 2, 43, 55
3, 14336, Note_off_c, 2, 43, 0
3, 16384, Program_c, 2, 63
3, 16384, Note_on_c, 2, 46, 55
3, 16640, Note_off_c, 2, 46, 0
3, 16640, Note_on_c, 2, 46, 55
3, 16896, Note_off_c, 2, 46, 0
3, 17920, Note_on_c, 2, 46, 55
3, 18176, Note_off_c, 2, 46, 0
3, 18176, Note_on_c, 2, 46, 55
3, 18432, Note_off_c, 2, 46, 0
3, 20480, Program_c, 2, 63
3, 20480, Note_on_c, 2, 46, 55
3, 20736, Note_off_c, 2, 46, 0
3, 20736, Note_on_c, 2, 46, 55
3, 20992, Note_off_c, 2, 46, 0
3, 22016, Note_on_c, 2, 46, 55
3, 22272, Note_off_c, 2, 46, 0
3, 22272, Note_on_c, 2, 46, 55
3, 22528, Note_off_c, 2, 46, 0
3, 24576, Program_c, 2, 63
3, 24576, Note_on_c, 2, 46, 55
3, 24832, Note_off_c, 2, 46, 0
3, 24832, Note_on_c, 2, 46, 55
3, 25088, Note_off_c, 2, 46, 0
3, 26496, Note_on_c, 2, 60, 55
3, 26624, Note_off_c, 2, 60, 0
3, 26624, Note_on_c, 2, 57, 55
3, 28160, Note_off_c, 2, 57, 0
3, 28160, Note_on_c, 2, 55, 55
3, 28672, Program_c, 2, 63
3, 29696, Note_off_c, 2, 55, 0
3, 29696, Note_on_c, 2, 53, 55
3, 31232, Note_off_c, 2, 53, 0
3, 31232, Note_on_c, 2, 50, 55
3, 32768, Program_c, 2, 63
3, 32768, Note_off_c, 2, 50, 0
3, 32768, Note_on_c, 2, 43, 55
3, 33024, Note_off_c, 2, 43, 0
3, 33024, Note_on_c, 2, 43, 55
3, 33280, Note_off_c, 2, 43, 0
3, 34304, Note_on_c, 2, 43, 55
3, 34560, Note_off_c, 2, 43, 0
3, 34560, Note_on_c, 2, 43, 55
3, 34816, Note_off_c, 2, 43, 0
3, 36864, Program_c, 2, 63
3, 36864, Note_on_c, 2, 43, 55
3, 37120, Note_off_c, 2, 43, 0
3, 37120, Note_on_c, 2, 43, 55
3, 37376, Note_off_c, 2, 43, 0
3, 38400, Note_on_c, 2, 43, 55
3, 38656, Note_off_c, 2, 43, 0
3, 38656, Note_on_c, 2, 43, 55
3, 38912, Note_off_c, 2, 43, 0
3, 40960, Program_c, 2, 63
3, 40960, Note_on_c, 2, 43, 55
3, 41216, Note_off_c, 2, 43, 0
3, 41216, Note_on_c, 2, 43, 55
3, 41472, Note_off_c, 2, 43, 0
3, 42496, Note_on_c, 2, 43, 55
3, 42752, Note_off_c, 2, 43, 0
3, 42752, Note_on_c, 2, 43, 55
3, 43008, Note_off_c, 2, 43, 0
3, 45056, Program_c, 2, 63
3, 45056, Note_on_c, 2, 43, 55
3, 45312, Note_off_c, 2, 43, 0
3, 45312, Note_on_c, 2, 43, 55
3, 45568, Note_off_c, 2, 43, 0
3, 46592, Note_on_c, 2, 43, 55
3, 46848, Note_off_c, 2, 43, 0
3, 46848, Note_on_c, 2, 43, 55
3, 47104, Note_off_c, 2, 43, 0
3, 49152, Program_c, 2, 63
3, 49152, Note_on_c, 2, 46, 55
3, 49664, Note_off_c, 2, 46, 0
3, 49664, Note_on_c, 2, 46, 55
3, 50688, Note_off_c, 2, 46, 0
3, 50688, Note_on_c, 2, 46, 55
3, 51712, Note_off_c, 2, 46, 0
3, 51712, Note_on_c, 2, 46, 55
3, 53248, Program_c, 2, 63
3, 57344, Program_c, 2, 63
3, 57344, Note_off_c, 2, 46, 0
3, 57344, Note_on_c, 2, 46, 55
3, 57637, Note_off_c, 2, 46, 0
3, 57637, Note_on_c, 2, 48, 55
3, 57929, Note_off_c, 2, 48, 0
3, 57929, Note_on_c, 2, 48, 55
3, 58222, Note_off_c, 2, 48, 0
3, 58222, Note_on_c, 2, 50, 55
3, 58514, Note_off_c, 2, 50, 0
3, 58514, Note_on_c, 2, 50, 55
3, 58807, Note_off_c, 2, 50, 0
3, 58807, Note_on_c, 2, 52, 55
3, 59099, Note_off_c, 2, 52, 0
3, 59099, Note_on_c, 2, 53, 55
3, 59392, Note_off_c, 2, 53, 0
3, 59392, Note_on_c, 2, 57, 55
3, 59685, Note_off_c, 2, 57, 0
3, 59685, Note_on_c, 2, 43, 55
3, 59977, Note_off_c, 2, 43, 0
3, 59977, Note_on_c, 2, 43, 55
3, 60270, Note_off_c, 2, 43, 0
3, 60270, Note_on_c, 2, 50, 55
3, 60562, Note_off_c, 2, 50, 0
3, 60562, Note_on_c, 2, 41, 55
3, 60855, Note_off_c, 2, 41, 0
3, 60855, Note_on_c, 2, 41, 55
3, 61147, Note_off_c, 2, 41, 0
3, 61147, Note_on_c, 2, 40, 55
3, 61440, Program_c, 2, 63
3, 61440, Note_off_c, 2, 40, 0
3, 61440, Note_on_c, 2, 46, 55
3, 61696, Note_off_c, 2, 46, 0
3, 61696, Note_on_c, 2, 46, 55
3, 61952, Note_off_c, 2, 46, 0
3, 62976, Note_on_c, 2, 46, 55
3, 63232, Note_off_c, 2, 46, 0
3, 63232, Note_on_c, 2, 46, 55
3, 63488, Note_off_c, 2, 46, 0
3, 64000, Note_on_c, 2, 46, 55
3, 64512, Note_off_c, 2, 46, 0
3, 64512, Note_on_c, 2, 45, 55
3, 65024, Note_off_c, 2, 45, 0
3, 65024, Note_on_c, 2, 44, 55
3, 65536, Program_c, 2, 63
3, 65536, Note_off_c, 2, 44, 0
3, 65536, Note_on_c, 2, 43, 55
3, 65792, Note_off_c, 2, 43, 0
3, 65792, Note_on_c, 2, 43, 55
3, 66048, Note_off_c, 2, 43, 0
3, 67072, Note_on_c, 2, 43, 55
3, 67328, Note_off_c, 2, 43, 0
3, 67328, Note_on_c, 2, 43, 55
3, 67584, Note_off_c, 2, 43, 0
3, 69632, Program_c, 2, 63
3, 69632, Note_on_c, 2, 43, 55
3, 69888, Note_off_c, 2, 43, 0
3, 69888, Note_on_c, 2, 43, 55
3, 70144, Note_off_c, 2, 43, 0
3, 71168, Note_on_c, 2, 43, 55
3, 71424, Note_off_c, 2, 43, 0
3, 71424, Note_on_c, 2, 43, 55
3, 71680, Note_off_c, 2, 43, 0
3, 73045, Note_on_c, 2, 50, 55
3, 73728, Program_c, 2, 63
3, 73728, Note_off_c, 2, 50, 0
3, 73728, Note_on_c, 2, 53, 55
3, 74411, Note_off_c, 2, 53, 0
3, 74411, Note_on_c, 2, 45, 55
3, 75093, Note_off_c, 2, 45, 0
3, 75093, Note_on_c, 2, 45, 55
3, 75776, Note_off_c, 2, 45, 0
3, 75776, Note_on_c, 2, 46, 55
3, 77312, Note_off_c, 2, 46, 0
3, 77312, Note_on_c, 2, 49, 55
3, 77824, Program_c, 2, 63
3, 77824, Note_off_c, 2, 49, 0
3, 77824, Note_on_c, 2, 52, 55
3, 78507, Note_off_c, 2, 52, 0
3, 78507, Note_on_c, 2, 57, 55
3, 79189, Note_off_c, 2, 57, 0
3, 79189, Note_on_c, 2, 58, 55
3, 79872, Note_off_c, 2, 58, 0
3, 79872, Note_on_c, 2, 53, 55
3, 80555, Note_off_c, 2, 53, 0
3, 80555, Note_on_c, 2, 48, 55
3, 81237, Note_off_c, 2, 48, 0
3, 81237, Note_on_c, 2, 43, 55
3, 81920, Program_c, 2, 63
3, 81920, Note_off_c, 2, 43, 0
3, 81920, Note_on_c, 2, 45, 55
3, 82176, Note_off_c, 2, 45, 0
3, 82176, Note_on_c, 2, 46, 55
3, 82432, Note_off_c, 2, 46, 0
3, 82432, Note_on_c, 2, 46, 55
3, 82688, Note_off_c, 2, 46, 0
3, 82688, Note_on_c, 2, 46, 55
3, 82944, Note_off_c, 2, 46, 0
3, 82944, Note_on_c, 2, 46, 55
3, 83456, Note_off_c, 2, 46, 0
3, 84480, Note_on_c, 2, 46, 55
3, 85504, Note_off_c, 2, 46, 0
3, 85504, Note_on_c, 2, 41, 55
3, 85760, Note_off_c, 2, 41, 0
3, 85760, Note_on_c, 2, 41, 55
3, 86016, Program_c, 2, 63
3, 86016, Note_off_c, 2, 41, 0
3, 86016, Note_on_c, 2, 46, 55
3, 86272, Note_off_c, 2, 46, 0
3, 86272, Note_on_c, 2, 46, 55
3, 86528, Note_off_c, 2, 46, 0
3, 87552, Note_on_c, 2, 46, 55
3, 87808, Note_off_c, 2, 46, 0
3, 87808, Note_on_c, 2, 46, 55
3, 88064, Note_off_c, 2, 46, 0
3, 89600, Note_on_c, 2, 41, 55
3, 89856, Note_off_c, 2, 41, 0
3, 89856, Note_on_c, 2, 43, 55
3, 90112, Program_c, 2, 63
3, 90112, Note_off_c, 2, 43, 0
3, 90112, Note_on_c, 2, 45, 55
3, 90368, Note_off_c, 2, 45, 0
3, 90368, Note_on_c, 2, 46, 55
3, 90624, Note_off_c, 2, 46, 0
3, 90624, Note_on_c, 2, 46, 55
3, 90880, Note_off_c, 2, 46, 0
3, 90880, Note_on_c, 2, 46, 55
3, 91136, Note_off_c, 2, 46, 0
3, 91136, Note_on_c, 2, 46, 55
3, 91648, Note_off_c, 2, 46, 0
3, 92672, Note_on_c, 2, 46, 55
3, 93696, Note_off_c, 2, 46, 0
3, 93696, Note_on_c, 2, 41, 55
3, 93952, Note_off_c, 2, 41, 0
3, 93952, Note_on_c, 2, 41, 55
3, 94208, Program_c, 2, 63
3, 94208, Note_off_c, 2, 41, 0
3, 94208, Note_on_c, 2, 46, 55
3, 94464, Note_off_c, 2, 46, 0
3, 94464, Note_on_c, 2, 46, 55
3, 94720, Note_off_c, 2, 46, 0
3, 95744, Note_on_c, 2, 46, 55
3, 96000, Note_off_c, 2, 46, 0
3, 96000, Note_on_c, 2, 46, 55
3, 96256, Note_off_c, 2, 46, 0
3, 96768, Note_on_c, 2, 46, 55
3, 97280, Note_off_c, 2, 46, 0
3, 97280, Note_on_c, 2, 45, 55
3, 97792, Note_off_c, 2, 45, 0
3, 97792, Note_on_c, 2, 44, 55
3, 98304, Program_c, 2, 63
3, 98304, Note_off_c, 2, 44, 0
3, 98304, Note_on_c, 2, 43, 55
3, 98560, Note_off_c, 2, 43, 0
3, 98560, Note_on_c, 2, 43, 55
3, 98816, Note_off_c, 2, 43, 0
3, 99840, Note_on_c, 2, 43, 55
3, 100096, Note_off_c, 2, 43, 0
3, 100096, Note_on_c, 2, 43, 55
3, 100352, Note_off_c, 2, 43, 0
3, 101888, Note_on_c, 2, 38, 55
3, 102144, Note_off_c, 2, 38, 0
3, 102144, Note_on_c, 2, 40, 55
3, 102400, Program_c, 2, 63
3, 102400, Note_off_c, 2, 40, 0
3, 102400, Note_on_c, 2, 43, 55
3, 102656, Note_off_c, 2, 43, 0
3, 102656, Note_on_c, 2, 43, 55
3, 102912, Note_off_c, 2, 43, 0
3, 103936, Note_on_c, 2, 43, 55
3, 104192, Note_off_c, 2, 43, 0
3, 104192, Note_on_c, 2, 43, 55
3, 104448, Note_off_c, 2, 43, 0
3, 105984, Note_on_c, 2, 50, 55
3, 106240, Note_off_c, 2, 50, 0
3, 106240, Note_on_c, 2, 50, 55
3, 106496, Program_c, 2, 63
3, 106496, Note_off_c, 2, 50, 0
3, 106496, Note_on_c, 2, 43, 55
3, 106752, Note_off_c, 2, 43, 0
3, 106752, Note_on_c, 2, 43, 55
3, 107008, Note_off_c, 2, 43, 0
3, 108032, Note_on_c, 2, 43, 55
3, 108288, Note_off_c, 2, 43, 0
3, 108288, Note_on_c, 2, 43, 55
3, 108544, Note_off_c, 2, 43, 0
3, 110080, Note_on_c, 2, 38, 55
3, 110336, Note_off_c, 2, 38, 0
3, 110336, Note_on_c, 2, 40, 55
3, 110592, Program_c, 2, 63
3, 110592, Note_off_c, 2, 40, 0
3, 110592, Note_on_c, 2, 43, 55
3, 110848, Note_off_c, 2, 43, 0
3, 110848, Note_on_c, 2, 43, 55
3, 111104, Note_off_c, 2, 43, 0
3, 112128, Note_on_c, 2, 43, 55
3, 112384, Note_off_c, 2, 43, 0
3, 112384, Note_on_c, 2, 43, 55
3, 112640, Note_off_c, 2, 43, 0
3, 113152, Note_on_c, 2, 43, 55
3, 113664, Note_off_c, 2, 43, 0
3, 113664, Note_on_c, 2, 44, 55
3, 114176, Note_off_c, 2, 44, 0
3, 114176, Note_on_c, 2, 45, 55
3, 114688, Program_c, 2, 63
3, 114688, Note_off_c, 2, 45, 0
3, 114688, Note_on_c, 2, 46, 55
3, 114944, Note_off_c, 2, 46, 0
3, 114944, Note_on_c, 2, 46, 55
3, 115200, Note_off_c, 2, 46, 0
3, 116224, Note_on_c, 2, 46, 55
3, 116480, Note_off_c, 2, 46, 0
3, 116480, Note_on_c, 2, 46, 55
3, 116736, Note_off_c, 2, 46, 0
3, 118272, Note_on_c, 2, 41, 55
3, 118528, Note_off_c, 2, 41, 0
3, 118528, Note_on_c, 2, 43, 55
3, 118784, Program_c, 2, 63
3, 118784, Note_off_c, 2, 43, 0
3, 118784, Note_on_c, 2, 45, 55
3, 119040, Note_off_c, 2, 45, 0
3, 119040, Note_on_c, 2, 46, 55
3, 119296, Note_off_c, 2, 46, 0
3, 119296, Note_on_c, 2, 46, 55
3, 119552, Note_off_c, 2, 46, 0
3, 119552, Note_on_c, 2, 46, 55
3, 119808, Note_off_c, 2, 46, 0
3, 119808, Note_on_c, 2, 46, 55
3, 120320, Note_off_c, 2, 46, 0
3, 121344, Note_on_c, 2, 48, 55
3, 122368, Note_off_c, 2, 48, 0
3, 122368, Note_on_c, 2, 50, 55
3, 122880, Program_c, 2, 63
3, 122880, Note_off_c, 2, 50, 0
3, 122880, Note_on_c, 2, 47, 55
3, 123392, Note_off_c, 2, 47, 0
3, 123392, Note_on_c, 2, 48, 55
3, 123904, Note_off_c, 2, 48, 0
3, 123904, Note_on_c, 2, 48, 55
3, 124245, Note_off_c, 2, 48, 0
3, 124245, Note_on_c, 2, 45, 55
3, 124587, Note_off_c, 2, 45, 0
3, 124587, Note_on_c, 2, 50, 55
3, 124928, Note_off_c, 2, 50, 0
3, 124928, Note_on_c, 2, 51, 55
3, 125338, Note_off_c, 2, 51, 0
3, 125338, Note_on_c, 2, 43, 55
3, 125747, Note_off_c, 2, 43, 0
3, 125747, Note_on_c, 2, 43, 55
3, 126157, Note_off_c, 2, 43, 0
3, 126157, Note_on_c, 2, 45, 55
3, 126566, Note_off_c, 2, 45, 0
3, 126566, Note_on_c, 2, 41, 55
3, 126976, Program_c, 2, 100
3, 126976, Note_off_c, 2, 41, 0
3, 126976, Note_on_c, 2, 40, 55
3, 127659, Note_off_c, 2, 40, 0
3, 127659, Note_on_c, 2, 43, 55
3, 128341, Note_off_c, 2, 43, 0
3, 128341, Note_on_c, 2, 43, 55
3, 129024, Note_off_c, 2, 43, 0
3, 129024, Note_on_c, 2, 41, 55
3, 129707, Note_off_c, 2, 41, 0
3, 129707, Note_on_c, 2, 41, 55
3, 130389, Note_off_c, 2, 41, 0
3, 130389, Note_on_c, 2, 50, 55
3, 131072, Program_c, 2, 63
3, 131072, Note_off_c, 2, 50, 0
3, 131072, Note_on_c, 2, 38, 55
3, 132864, Note_off_c, 2, 38, 0
3, 132864, Note_on_c, 2, 45, 55
3, 132992, Note_off_c, 2, 45, 0
3, 132992, Note_on_c, 2, 45, 55
3, 133120, Note_off_c, 2, 45, 0
3, 133120, Note_on_c, 2, 38, 55
3, 134656, Note_off_c, 2, 38, 0
3, 134656, Note_on_c, 2, 40, 55
3, 135168, Program_c, 2, 63
3, 135168, Note_off_c, 2, 40, 0
3, 135168, Note_on_c, 2, 38, 55
3, 136960, Note_off_c, 2, 38, 0
3, 136960, Note_on_c, 2, 45, 55
3, 137088, Note_off_c, 2, 45, 0
3, 137088, Note_on_c, 2, 45, 55
3, 137216, Note_off_c, 2, 45, 0
3, 137216, Note_on_c, 2, 38, 55
3, 138752, Note_off_c, 2, 38, 0
3, 138752, Note_on_c, 2, 40, 55
3, 139264, Program_c, 2, 63
3, 139264, Note_off_c, 2, 40, 0
3, 139264, Note_on_c, 2, 38, 55
3, 141056, Note_off_c, 2, 38, 0
3, 141056, Note_on_c, 2, 45, 55
3, 141184, Note_off_c, 2, 45, 0
3, 141184, Note_on_c, 2, 45, 55
3, 141312, Note_off_c, 2, 45, 0
3, 141312, Note_on_c, 2, 38, 55
3, 142848, Note_off_c, 2, 38, 0
3, 142848, Note_on_c, 2, 40, 55
3, 143360, Program_c, 2, 63
3, 143360, Note_off_c, 2, 40, 0
3, 143360, Note_on_c, 2, 38, 55
3, 145152, Note_off_c, 2, 38, 0
3, 145152, Note_on_c, 2, 45, 55
3, 145280, Note_off_c, 2, 45, 0
3, 145280, Note_on_c, 2, 45, 55
3, 145408, Note_off_c, 2, 45, 0
3, 145408, Note_on_c, 2, 38, 55
3, 146944, Note_off_c, 2, 38, 0
3, 146944, Note_on_c, 2, 40, 55
3, 147456, Program_c, 2, 63
3, 147456, Note_off_c, 2, 40, 0
3, 147456, Note_on_c, 2, 38, 55
3, 147712, Note_off_c, 2, 38, 0
3, 147712, Note_on_c, 2, 38, 55
3, 147968, Note_off_c, 2, 38, 0
3, 148992, Note_on_c, 2, 38, 55
3, 149248, Note_off_c, 2, 38, 0
3, 149248, Note_on_c, 2, 38, 55
3, 149504, Note_off_c, 2, 38, 0
3, 151552, Program_c, 2, 63
3, 151552, Note_on_c, 2, 38, 55
3, 151808, Note_off_c, 2, 38, 0
3, 151808, Note_on_c, 2, 38, 55
3, 152064, Note_off_c, 2, 38, 0
3, 153088, Note_on_c, 2, 38, 55
3, 153344, Note_off_c, 2, 38, 0
3, 153344, Note_on_c, 2, 38, 55
3, 153600, Note_off_c, 2, 38, 0
3, 155648, Program_c, 2, 63
3, 155648, Note_on_c, 2, 38, 55
3, 155904, Note_off_c, 2, 38, 0
3, 155904, Note_on_c, 2, 38, 55
3, 156160, Note_off_c, 2, 38, 0
3, 157184, Note_on_c, 2, 38, 55
3, 157440, Note_off_c, 2, 38, 0
3, 157440, Note_on_c, 2, 38, 55
3, 157696, Note_off_c, 2, 38, 0
3, 159744, Program_c, 2, 63
3, 159744, Note_on_c, 2, 38, 55
3, 160000, Note_off_c, 2, 38, 0
3, 160000, Note_on_c, 2, 38, 55
3, 160256, Note_off_c, 2, 38, 0
3, 161280, Note_on_c, 2, 38, 55
3, 161536, Note_off_c, 2, 38, 0
3, 161536, Note_on_c, 2, 38, 55
3, 161792, Note_off_c, 2, 38, 0
3, 163840, Program_c, 2, 63
3, 163840, Note_on_c, 2, 38, 55
3, 164096, Note_off_c, 2, 38, 0
3, 164096, Note_on_c, 2, 38, 55
3, 164352, Note_off_c, 2, 38, 0
3, 165376, Note_on_c, 2, 38, 55
3, 165632, Note_off_c, 2, 38, 0
3, 165632, Note_on_c, 2, 38, 55
3, 165888, Note_off_c, 2, 38, 0
3, 167936, Program_c, 2, 63
3, 167936, Note_on_c, 2, 56, 55
3, 168192, Note_off_c, 2, 56, 0
3, 168192, Note_on_c, 2, 57, 55
3, 168448, Note_off_c, 2, 57, 0
3, 168448, Note_on_c, 2, 56, 55
3, 168960, Note_off_c, 2, 56, 0
3, 168960, Note_on_c, 2, 56, 55
3, 169216, Note_off_c, 2, 56, 0
3, 169216, Note_on_c, 2, 57, 55
3, 169472, Note_off_c, 2, 57, 0
3, 169472, Note_on_c, 2, 54, 55
3, 169984, Note_off_c, 2, 54, 0
3, 169984, Note_on_c, 2, 56, 55
3, 170496, Note_off_c, 2, 56, 0
3, 170496, Note_on_c, 2, 47, 55
3, 170752, Note_off_c, 2, 47, 0
3, 170752, Note_on_c, 2, 57, 55
3, 171008, Note_off_c, 2, 57, 0
3, 171008, Note_on_c, 2, 54, 55
3, 171264, Note_off_c, 2, 54, 0
3, 171264, Note_on_c, 2, 49, 55
3, 171520, Note_off_c, 2, 49, 0
3, 171520, Note_on_c, 2, 59, 55
3, 171776, Note_off_c, 2, 59, 0
3, 171776, Note_on_c, 2, 54, 55
3, 172032, Program_c, 2, 63
3, 172032, Note_off_c, 2, 54, 0
3, 172032, Note_on_c, 2, 56, 55
3, 172288, Note_off_c, 2, 56, 0
3, 172288, Note_on_c, 2, 52, 55
3, 172544, Note_off_c, 2, 52, 0
3, 172544, Note_on_c, 2, 52, 55
3, 172800, Note_off_c, 2, 52, 0
3, 172800, Note_on_c, 2, 49, 55
3, 173056, Note_off_c, 2, 49, 0
3, 173056, Note_on_c, 2, 54, 55
3, 173312, Note_off_c, 2, 54, 0
3, 173312, Note_on_c, 2, 56, 55
3, 173568, Note_off_c, 2, 56, 0
3, 173568, Note_on_c, 2, 56, 55
3, 173824, Note_off_c, 2, 56, 0
3, 173824, Note_on_c, 2, 59, 55
3, 174080, Note_off_c, 2, 59, 0
3, 174080, Note_on_c, 2, 57, 55
3, 174336, Note_off_c, 2, 57, 0
3, 174336, Note_on_c, 2, 56, 55
3, 174592, Note_off_c, 2, 56, 0
3, 174592, Note_on_c, 2, 56, 55
3, 174848, Note_off_c, 2, 56, 0
3, 174848, Note_on_c, 2, 59, 55
3, 175104, Note_off_c, 2, 59, 0
3, 175104, Note_on_c, 2, 54, 55
3, 175360, Note_off_c, 2, 54, 0
3, 175360, Note_on_c, 2, 42, 55
3, 175616, Note_off_c, 2, 42, 0
3, 175616, Note_on_c, 2, 42, 55
3, 175872, Note_off_c, 2, 42, 0
3, 175872, Note_on_c, 2, 47, 55
3, 176128, Program_c, 2, 63
3, 176128, Note_off_c, 2, 47, 0
3, 176128, Note_on_c, 2, 49, 55
3, 176384, Note_off_c, 2, 49, 0
3, 176384, Note_on_c, 2, 45, 55
3, 176640, Note_off_c, 2, 45, 0
3, 176640, Note_on_c, 2, 47, 55
3, 176896, Note_off_c, 2, 47, 0
3, 176896, Note_on_c, 2, 52, 55
3, 177152, Note_off_c, 2, 52, 0
3, 177152, Note_on_c, 2, 56, 55
3, 177408, Note_off_c, 2, 56, 0
3, 177408, Note_on_c, 2, 42, 55
3, 177664, Note_off_c, 2, 42, 0
3, 177664, Note_on_c, 2, 47, 55
3, 177920, Note_off_c, 2, 47, 0
3, 177920, Note_on_c, 2, 49, 55
3, 178176, Note_off_c, 2, 49, 0
3, 178176, Note_on_c, 2, 50, 55
3, 178432, Note_off_c, 2, 50, 0
3, 178432, Note_on_c, 2, 57, 55
3, 178688, Note_off_c, 2, 57, 0
3, 178688, Note_on_c, 2, 54, 55
3, 178944, Note_off_c, 2, 54, 0
3, 178944, Note_on_c, 2, 52, 55
3, 179200, Note_off_c, 2, 52, 0
3, 179200, Note_on_c, 2, 54, 55
3, 179456, Note_off_c, 2, 54, 0
3, 179456, Note_on_c, 2, 56, 55
3, 179712, Note_off_c, 2, 56, 0
3, 179712, Note_on_c, 2, 52, 55
3, 179968, Note_off_c, 2, 52, 0
3, 179968, Note_on_c, 2, 47, 55
3, 180224, Program_c, 2, 63
3, 180224, Note_off_c, 2, 47, 0
3, 181248, Note_on_c, 2, 54, 55
3, 181504, Note_off_c, 2, 54, 0
3, 181504, Note_on_c, 2, 56, 55
3, 181760, Note_off_c, 2, 56, 0
3, 181760, Note_on_c, 2, 52, 55
3, 182016, Note_off_c, 2, 52, 0
3, 182016, Note_on_c, 2, 47, 55
3, 182272, Note_off_c, 2, 47, 0
3, 184320, Program_c, 2, 63
3, 184320, Note_on_c, 2, 54, 55
3, 184576, Note_off_c, 2, 54, 0
3, 184576, Note_on_c, 2, 56, 55
3, 184832, Note_off_c, 2, 56, 0
3, 184832, Note_on_c, 2, 52, 55
3, 185088, Note_off_c, 2, 52, 0
3, 185088, Note_on_c, 2, 47, 55
3, 185344, Note_off_c, 2, 47, 0
3, 187392, Note_on_c, 2, 54, 55
3, 187648, Note_off_c, 2, 54, 0
3, 187648, Note_on_c, 2, 56, 55
3, 187904, Note_off_c, 2, 56, 0
3, 187904, Note_on_c, 2, 52, 55
3, 188160, Note_off_c, 2, 52, 0
3, 188160, Note_on_c, 2, 47, 55
3, 188416, Program_c, 2, 63
3, 188416, Note_off_c, 2, 47, 0
3, 188416, Note_on_c, 2, 38, 55
3, 188672, Note_off_c, 2, 38, 0
3, 188672, Note_on_c, 2, 38, 55
3, 188928, Note_off_c, 2, 38, 0
3, 189952, Note_on_c, 2, 38, 55
3, 190208, Note_off_c, 2, 38, 0
3, 190208, Note_on_c, 2, 38, 55
3, 190464, Note_off_c, 2, 38, 0
3, 192512, Program_c, 2, 63
3, 192512, Note_on_c, 2, 38, 55
3, 192768, Note_off_c, 2, 38, 0
3, 192768, Note_on_c, 2, 38, 55
3, 193024, Note_off_c, 2, 38, 0
3, 194048, Note_on_c, 2, 38, 55
3, 194304, Note_off_c, 2, 38, 0
3, 194304, Note_on_c, 2, 38, 55
3, 194560, Note_off_c, 2, 38, 0
3, 196608, Program_c, 2, 63
3, 196608, Note_on_c, 2, 38, 55
3, 196864, Note_off_c, 2, 38, 0
3, 196864, Note_on_c, 2, 38, 55
3, 197120, Note_off_c, 2, 38, 0
3, 198144, Note_on_c, 2, 38, 55
3, 198400, Note_off_c, 2, 38, 0
3, 198400, Note_on_c, 2, 38, 55
3, 198656, Note_off_c, 2, 38, 0
3, 200704, Program_c, 2, 63
3, 200704, Note_on_c, 2, 38, 55
3, 200960, Note_off_c, 2, 38, 0
3, 200960, Note_on_c, 2, 38, 55
3, 201216, Note_off_c, 2, 38, 0
3, 202240, Note_on_c, 2, 38, 55
3, 202496, Note_off_c, 2, 38, 0
3, 202496, Note_on_c, 2, 38, 55
3, 202752, Note_off_c, 2, 38, 0
3, 202752, Note_on_c, 2, 42, 55
3, 203008, Note_off_c, 2, 42, 0
3, 203008, Note_on_c, 2, 47, 55
3, 203264, Note_off_c, 2, 47, 0
3, 203264, Note_on_c, 2, 47, 55
3, 203520, Note_off_c, 2, 47, 0
3, 203520, Note_on_c, 2, 45, 55
3, 203776, Note_off_c, 2, 45, 0
3, 203776, Note_on_c, 2, 47, 55
3, 204800, Program_c, 2, 63
3, 205056, Note_off_c, 2, 47, 0
3, 205056, Note_on_c, 2, 49, 55
3, 205312, Note_off_c, 2, 49, 0
3, 205312, Note_on_c, 2, 47, 55
3, 205824, Note_off_c, 2, 47, 0
3, 205824, Note_on_c, 2, 42, 55
3, 207360, Note_off_c, 2, 42, 0
3, 207360, Note_on_c, 2, 44, 55
3, 208384, Note_off_c, 2, 44, 0
3, 208384, Note_on_c, 2, 35, 55
3, 208896, Program_c, 2, 63
3, 208896, Note_off_c, 2, 35, 0
3, 208896, Note_on_c, 2, 42, 55
3, 209152, Note_off_c, 2, 42, 0
3, 209152, Note_on_c, 2, 42, 55
3, 209408, Note_off_c, 2, 42, 0
3, 210432, Note_on_c, 2, 42, 55
3, 210688, Note_off_c, 2, 42, 0
3, 210688, Note_on_c, 2, 42, 55
3, 210944, Note_off_c, 2, 42, 0
3, 212992, Program_c, 2, 63
3, 212992, Note_on_c, 2, 42, 55
3, 213248, Note_off_c, 2, 42, 0
3, 213248, Note_on_c, 2, 42, 55
3, 213504, Note_off_c, 2, 42, 0
3, 214528, Note_on_c, 2, 42, 55
3, 214784, Note_off_c, 2, 42, 0
3, 214784, Note_on_c, 2, 42, 55
3, 215040, Note_off_c, 2, 42, 0
3, 217088, Program_c, 2, 63
3, 217088, Note_on_c, 2, 42, 55
3, 217344, Note_off_c, 2, 42, 0
3, 217344, Note_on_c, 2, 42, 55
3, 217600, Note_off_c, 2, 42, 0
3, 218112, Note_on_c, 2, 44, 55
3, 219136, Note_off_c, 2, 44, 0
3, 219136, Note_on_c, 2, 49, 55
3, 219819, Note_off_c, 2, 49, 0
3, 219819, Note_on_c, 2, 54, 55
3, 220501, Note_off_c, 2, 54, 0
3, 220501, Note_on_c, 2, 46, 55
3, 221184, Program_c, 2, 63
3, 221184, Note_off_c, 2, 46, 0
3, 221184, Note_on_c, 2, 51, 55
3, 221696, Note_off_c, 2, 51, 0
3, 221696, Note_on_c, 2, 49, 55
3, 221952, Note_off_c, 2, 49, 0
3, 221952, Note_on_c, 2, 53, 55
3, 222208, Note_off_c, 2, 53, 0
3, 222208, Note_on_c, 2, 48, 55
3, 225280, Program_c, 2, 63
3, 225280, Note_off_c, 2, 48, 0
3, 225280, Note_on_c, 2, 48, 55
3, 225792, Note_off_c, 2, 48, 0
3, 225792, Note_on_c, 2, 52, 55
3, 226304, Note_off_c, 2, 52, 0
3, 226304, Note_on_c, 2, 50, 55
3, 226816, Note_off_c, 2, 50, 0
3, 226816, Note_on_c, 2, 53, 55
3, 227328, Note_off_c, 2, 53, 0
3, 227328, Note_on_c, 2, 52, 55
3, 227840, Note_off_c, 2, 52, 0
3, 227840, Note_on_c, 2, 43, 55
3, 228352, Note_off_c, 2, 43, 0
3, 228352, Note_on_c, 2, 53, 55
3, 228864, Note_off_c, 2, 53, 0
3, 228864, Note_on_c, 2, 50, 55
3, 229376, Program_c, 2, 63
3, 229376, Note_off_c, 2, 50, 0
3, 229376, Note_on_c, 2, 57, 55
3, 230059, Note_off_c, 2, 57, 0
3, 230059, Note_on_c, 2, 60, 55
3, 230741, Note_off_c, 2, 60, 0
3, 230741, Note_on_c, 2, 52, 55
3, 231424, Note_off_c, 2, 52, 0
3, 231424, Note_on_c, 2, 52, 55
3, 231834, Note_off_c, 2, 52, 0
3, 231834, Note_on_c, 2, 53, 55
3, 232243, Note_off_c, 2, 53, 0
3, 232243, Note_on_c, 2, 52, 55
3, 232653, Note_off_c, 2, 52, 0
3, 232653, Note_on_c, 2, 50, 55
3, 233062, Note_off_c, 2, 50, 0
3, 233062, Note_on_c, 2, 45, 55
3, 233472, Program_c, 2, 63
3, 233472, Note_off_c, 2, 45, 0
3, 233472, Note_on_c, 2, 47, 55
3, 233765, Note_off_c, 2, 47, 0
3, 233765, Note_on_c, 2, 48, 55
3, 234057, Note_off_c, 2, 48, 0
3, 234057, Note_on_c, 2, 48, 55
3, 234350, Note_off_c, 2, 48, 0
3, 234350, Note_on_c, 2, 50, 55
3, 234642, Note_off_c, 2, 50, 0
3, 234642, Note_on_c, 2, 50, 55
3, 234935, Note_off_c, 2, 50, 0
3, 234935, Note_on_c, 2, 52, 55
3, 235227, Note_off_c, 2, 52, 0
3, 235227, Note_on_c, 2, 53, 55
3, 235520, Note_off_c, 2, 53, 0
3, 235520, Note_on_c, 2, 57, 55
3, 235813, Note_off_c, 2, 57, 0
3, 235813, Note_on_c, 2, 43, 55
3, 236105, Note_off_c, 2, 43, 0
3, 236105, Note_on_c, 2, 43, 55
3, 236398, Note_off_c, 2, 43, 0
3, 236398, Note_on_c, 2, 50, 55
3, 236690, Note_off_c, 2, 50, 0
3, 236690, Note_on_c, 2, 41, 55
3, 236983, Note_off_c, 2, 41, 0
3, 236983, Note_on_c, 2, 41, 55
3, 237275, Note_off_c, 2, 41, 0
3, 237275, Note_on_c, 2, 40, 55
3, 237568, Program_c, 2, 63
3, 237568, Note_off_c, 2, 40, 0
3, 237568, Note_on_c, 2, 46, 55
3, 237824, Note_off_c, 2, 46, 0
3, 237824, Note_on_c, 2, 46, 55
3, 238080, Note_off_c, 2, 46, 0
3, 239104, Note_on_c, 2, 46, 55
3, 239360, Note_off_c, 2, 46, 0
3, 239360, Note_on_c, 2, 46, 55
3, 239616, Note_off_c, 2, 46, 0
3, 240128, Note_on_c, 2, 46, 55
3, 240640, Note_off_c, 2, 46, 0
3, 240640, Note_on_c, 2, 45, 55
3, 241152, Note_off_c, 2, 45, 0
3, 241152, Note_on_c, 2, 44, 55
3, 241664, Program_c, 2, 63
3, 241664, Note_off_c, 2, 44, 0
3, 241664, Note_on_c, 2, 43, 55
3, 241920, Note_off_c, 2, 43, 0
3, 241920, Note_on_c, 2, 43, 55
3, 242176, Note_off_c, 2, 43, 0
3, 243200, Note_on_c, 2, 43, 55
3, 243456, Note_off_c, 2, 43, 0
3, 243456, Note_on_c, 2, 43, 55
3, 243712, Note_off_c, 2, 43, 0
3, 245760, Program_c, 2, 63
3, 245760, Note_on_c, 2, 43, 55
3, 246016, Note_off_c, 2, 43, 0
3, 246016, Note_on_c, 2, 43, 55
3, 246272, Note_off_c, 2, 43, 0
3, 247296, Note_on_c, 2, 43, 55
3, 247552, Note_off_c, 2, 43, 0
3, 247552, Note_on_c, 2, 43, 55
3, 247808, Note_off_c, 2, 43, 0
3, 249173, Note_on_c, 2, 50, 55
3, 249856, Program_c, 2, 63
3, 249856, Note_off_c, 2, 50, 0
3, 249856, Note_on_c, 2, 53, 55
3, 250539, Note_off_c, 2, 53, 0
3, 250539, Note_on_c, 2, 45, 55
3, 251221, Note_off_c, 2, 45, 0
3, 251221, Note_on_c, 2, 45, 55
3, 251904, Note_off_c, 2, 45, 0
3, 251904, Note_on_c, 2, 46, 55
3, 253440, Note_off_c, 2, 46, 0
3, 253440, Note_on_c, 2, 49, 55
3, 253952, Program_c, 2, 63
3, 253952, Note_off_c, 2, 49, 0
3, 253952, Note_on_c, 2, 52, 55
3, 254635, Note_off_c, 2, 52, 0
3, 254635, Note_on_c, 2, 57, 55
3, 255317, Note_off_c, 2, 57, 0
3, 255317, Note_on_c, 2, 58, 55
3, 256000, Note_off_c, 2, 58, 0
3, 256000, Note_on_c, 2, 53, 55
3, 256683, Note_off_c, 2, 53, 0
3, 256683, Note_on_c, 2, 48, 55
3, 257365, Note_off_c, 2, 48, 0
3, 257365, Note_on_c, 2, 43, 55
3, 258048, Program_c, 2, 63
3, 258048, Note_off_c, 2, 43, 0
3, 258048, Note_on_c, 2, 46, 55
3, 258304, Note_off_c, 2, 46, 0
3, 258304, Note_on_c, 2, 46, 55
3, 258560, Note_off_c, 2, 46, 0
3, 259584, Note_on_c, 2, 46, 55
3, 259840, Note_off_c, 2, 46, 0
3, 259840, Note_on_c, 2, 46, 55
3, 260096, Note_off_c, 2, 46, 0
3, 261632, Note_on_c, 2, 41, 55
3, 261888, Note_off_c, 2, 41, 0
3, 261888, Note_on_c, 2, 43, 55
3, 262144, Program_c, 2, 63
3, 262144, Note_off_c, 2, 43, 0
3, 262144, Note_on_c, 2, 46, 55
3, 262400, Note_off_c, 2, 46, 0
3, 262400, Note_on_c, 2, 46, 55
3, 262656, Note_off_c, 2, 46, 0
3, 263680, Note_on_c, 2, 46, 55
3, 263936, Note_off_c, 2, 46, 0
3, 263936, Note_on_c, 2, 46, 55
3, 264192, Note_off_c, 2, 46, 0
3, 265728, Note_on_c, 2, 53, 55
3, 265984, Note_off_c, 2, 53, 0
3, 265984, Note_on_c, 2, 53, 55
3, 266240, Program_c, 2, 63
3, 266240, Note_off_c, 2, 53, 0
3, 266240, Note_on_c, 2, 46, 55
3, 266496, Note_off_c, 2, 46, 0
3, 266496, Note_on_c, 2, 46, 55
3, 266752, Note_off_c, 2, 46, 0
3, 267776, Note_on_c, 2, 46, 55
3, 268032, Note_off_c, 2, 46, 0
3, 268032, Note_on_c, 2, 46, 55
3, 268288, Note_off_c, 2, 46, 0
3, 269824, Note_on_c, 2, 41, 55
3, 270080, Note_off_c, 2, 41, 0
3, 270080, Note_on_c, 2, 43, 55
3, 270336, Program_c, 2, 63
3, 270336, Note_off_c, 2, 43, 0
3, 270336, Note_on_c, 2, 46, 55
3, 270592, Note_off_c, 2, 46, 0
3, 270592, Note_on_c, 2, 46, 55
3, 270848, Note_off_c, 2, 46, 0
3, 271872, Note_on_c, 2, 46, 55
3, 272128, Note_off_c, 2, 46, 0
3, 272128, Note_on_c, 2, 46, 55
3, 272384, Note_off_c, 2, 46, 0
3, 272896, Note_on_c, 2, 46, 55
3, 273408, Note_off_c, 2, 46, 0
3, 273408, Note_on_c, 2, 45, 55
3, 273920, Note_off_c, 2, 45, 0
3, 273920, Note_on_c, 2, 44, 55
3, 274432, Program_c, 2, 63
3, 274432, Note_off_c, 2, 44, 0
3, 274432, Note_on_c, 2, 43, 55
3, 274688, Note_off_c, 2, 43, 0
3, 274688, Note_on_c, 2, 43, 55
3, 274944, Note_off_c, 2, 43, 0
3, 275968, Note_on_c, 2, 43, 55
3, 276224, Note_off_c, 2, 43, 0
3, 276224, Note_on_c, 2, 43, 55
3, 276480, Note_off_c, 2, 43, 0
3, 278016, Note_on_c, 2, 38, 55
3, 278272, Note_off_c, 2, 38, 0
3, 278272, Note_on_c, 2, 40, 55
3, 278528, Program_c, 2, 63
3, 278528, Note_off_c, 2, 40, 0
3, 278528, Note_on_c, 2, 43, 55
3, 278784, Note_off_c, 2, 43, 0
3, 278784, Note_on_c, 2, 43, 55
3, 279040, Note_off_c, 2, 43, 0
3, 280064, Note_on_c, 2, 43, 55
3, 280320, Note_off_c, 2, 43, 0
3, 280320, Note_on_c, 2, 43, 55
3, 280576, Note_off_c, 2, 43, 0
3, 282112, Note_on_c, 2, 50, 55
3, 282368, Note_off_c, 2, 50, 0
3, 282368, Note_on_c, 2, 50, 55
3, 282624, Program_c, 2, 63
3, 282624, Note_off_c, 2, 50, 0
3, 282624, Note_on_c, 2, 43, 55
3, 282880, Note_off_c, 2, 43, 0
3, 282880, Note_on_c, 2, 43, 55
3, 283136, Note_off_c, 2, 43, 0
3, 284160, Note_on_c, 2, 43, 55
3, 284416, Note_off_c, 2, 43, 0
3, 284416, Note_on_c, 2, 43, 55
3, 284672, Note_off_c, 2, 43, 0
3, 286208, Note_on_c, 2, 38, 55
3, 286464, Note_off_c, 2, 38, 0
3, 286464, Note_on_c, 2, 40, 55
3, 286720, Program_c, 2, 63
3, 286720, Note_off_c, 2, 40, 0
3, 286720, Note_on_c, 2, 43, 55
3, 286976, Note_off_c, 2, 43, 0
3, 286976, Note_on_c, 2, 43, 55
3, 287232, Note_off_c, 2, 43, 0
3, 288256, Note_on_c, 2, 43, 55
3, 288512, Note_off_c, 2, 43, 0
3, 288512, Note_on_c, 2, 43, 55
3, 288768, Note_off_c, 2, 43, 0
3, 289280, Note_on_c, 2, 43, 55
3, 289792, Note_off_c, 2, 43, 0
3, 289792, Note_on_c, 2, 44, 55
3, 290304, Note_off_c, 2, 44, 0
3, 290304, Note_on_c, 2, 45, 55
3, 290816, Program_c, 2, 63
3, 290816, Note_off_c, 2, 45, 0
3, 290816, Note_on_c, 2, 46, 55
3, 291072, Note_off_c, 2, 46, 0
3, 291072, Note_on_c, 2, 46, 55
3, 291328, Note_off_c, 2, 46, 0
3, 292352, Note_on_c, 2, 46, 55
3, 292608, Note_off_c, 2, 46, 0
3, 292608, Note_on_c, 2, 46, 55
3, 292864, Note_off_c, 2, 46, 0
3, 294400, Note_on_c, 2, 41, 55
3, 294656, Note_off_c, 2, 41, 0
3, 294656, Note_on_c, 2, 43, 55
3, 294912, Program_c, 2, 63
3, 294912, Note_off_c, 2, 43, 0
3, 294912, Note_on_c, 2, 46, 55
3, 295168, Note_off_c, 2, 46, 0
3, 295168, Note_on_c, 2, 46, 55
3, 295424, Note_off_c, 2, 46, 0
3, 296448, Note_on_c, 2, 46, 55
3, 296704, Note_off_c, 2, 46, 0
3, 296704, Note_on_c, 2, 46, 55
3, 296960, Note_off_c, 2, 46, 0
3, 299008, Program_c, 2, 63
3, 299008, Note_on_c, 2, 47, 55
3, 299520, Note_off_c, 2, 47, 0
3, 299520, Note_on_c, 2, 48, 55
3, 300032, Note_off_c, 2, 48, 0
3, 300032, Note_on_c, 2, 48, 55
3, 300373, Note_off_c, 2, 48, 0
3, 300373, Note_on_c, 2, 45, 55
3, 300715, Note_off_c, 2, 45, 0
3, 300715, Note_on_c, 2, 50, 55
3, 301056, Note_off_c, 2, 50, 0
3, 301056, Note_on_c, 2, 51, 55
3, 301466, Note_off_c, 2, 51, 0
3, 301466, Note_on_c, 2, 43, 55
3, 301875, Note_off_c, 2, 43, 0
3, 301875, Note_on_c, 2, 43, 55
3, 302285, Note_off_c, 2, 43, 0
3, 302285, Note_on_c, 2, 45, 55
3, 302694, Note_off_c, 2, 45, 0
3, 302694, Note_on_c, 2, 41, 55
3, 303104, Program_c, 2, 63
3, 303104, Note_off_c, 2, 41, 0
3, 303104, Note_on_c, 2, 40, 55
3, 303787, Note_off_c, 2, 40, 0
3, 303787, Note_on_c, 2, 43, 55
3, 304469, Note_off_c, 2, 43, 0
3, 304469, Note_on_c, 2, 43, 55
3, 305152, Note_off_c, 2, 43, 0
3, 305152, Note_on_c, 2, 41, 55
3, 305835, Note_off_c, 2, 41, 0
3, 305835, Note_on_c, 2, 41, 55
3, 306517, Note_off_c, 2, 41, 0
3, 306517, Note_on_c, 2, 46, 55
3, 307200, Program_c, 2, 63
3, 307200, Note_off_c, 2, 46, 0
3, 307200, Note_on_c, 2, 48, 55
3, 307456, Note_off_c, 2, 48, 0
3, 307456, Note_on_c, 2, 48, 55
3, 307712, Note_off_c, 2, 48, 0
3, 308736, Note_on_c, 2, 48, 55
3, 308992, Note_off_c, 2, 48, 0
3, 308992, Note_on_c, 2, 48, 55
3, 309248, Note_off_c, 2, 48, 0
3, 311296, Program_c, 2, 63
3, 311296, Note_on_c, 2, 48, 55
3, 311552, Note_off_c, 2, 48, 0
3, 311552, Note_on_c, 2, 48, 55
3, 311808, Note_off_c, 2, 48, 0
3, 312832, Note_on_c, 2, 48, 55
3, 313088, Note_off_c, 2, 48, 0
3, 313088, Note_on_c, 2, 48, 55
3, 313344, Note_off_c, 2, 48, 0
3, 315392, Program_c, 2, 63
3, 315392, Note_on_c, 2, 48, 55
3, 315648, Note_off_c, 2, 48, 0
3, 315648, Note_on_c, 2, 48, 55
3, 315904, Note_off_c, 2, 48, 0
3, 316928, Note_on_c, 2, 48, 55
3, 317184, Note_off_c, 2, 48, 0
3, 317184, Note_on_c, 2, 48, 55
3, 317440, Note_off_c, 2, 48, 0
3, 319488, Program_c, 2, 63
3, 319488, Note_on_c, 2, 48, 55
3, 319744, Note_off_c, 2, 48, 0
3, 319744, Note_on_c, 2, 48, 55
3, 320000, Note_off_c, 2, 48, 0
3, 321024, Note_on_c, 2, 48, 55
3, 321280, Note_off_c, 2, 48, 0
3, 321280, Note_on_c, 2, 48, 55
3, 321536, Note_off_c, 2, 48, 0
3, 323584, Program_c, 2, 63
3, 323584, Note_on_c, 2, 36, 55
3, 323840, Note_off_c, 2, 36, 0
3, 323840, Note_on_c, 2, 36, 55
3, 324096, Note_off_c, 2, 36, 0
3, 325120, Note_on_c, 2, 36, 55
3, 325376, Note_off_c, 2, 36, 0
3, 325376, Note_on_c, 2, 36, 55
3, 325632, Note_off_c, 2, 36, 0
3, 327680, Program_c, 2, 63
3, 327680, Note_on_c, 2, 36, 55
3, 327936, Note_off_c, 2, 36, 0
3, 327936, Note_on_c, 2, 36, 55
3, 328192, Note_off_c, 2, 36, 0
3, 329216, Note_on_c, 2, 36, 55
3, 329472, Note_off_c, 2, 36, 0
3, 329472, Note_on_c, 2, 36, 55
3, 329728, Note_off_c, 2, 36, 0
3, 331776, Program_c, 2, 63
3, 331776, Note_on_c, 2, 36, 55
3, 332032, Note_off_c, 2, 36, 0
3, 332032, Note_on_c, 2, 36, 55
3, 332288, Note_off_c, 2, 36, 0
3, 333312, Note_on_c, 2, 36, 55
3, 333568, Note_off_c, 2, 36, 0
3, 333568, Note_on_c, 2, 36, 55
3, 333824, Note_off_c, 2, 36, 0
3, 335872, Program_c, 2, 63
3, 335872, Note_on_c, 2, 36, 55
3, 336128, Note_off_c, 2, 36, 0
3, 336128, Note_on_c, 2, 36, 55
3, 336384, Note_off_c, 2, 36, 0
3, 337408, Note_on_c, 2, 36, 55
3, 337664, Note_off_c, 2, 36, 0
3, 337664, Note_on_c, 2, 36, 55
3, 337920, Note_off_c, 2, 36, 0
3, 339968, Program_c, 2, 63
3, 339968, Note_on_c, 2, 36, 55
3, 340224, Note_off_c, 2, 36, 0
3, 340224, Note_on_c, 2, 36, 55
3, 340480, Note_off_c, 2, 36, 0
3, 341504, Note_on_c, 2, 36, 55
3, 341760, Note_off_c, 2, 36, 0
3, 341760, Note_on_c, 2, 36, 55
3, 342016, Note_off_c, 2, 36, 0
3, 344064, Program_c, 2, 63
3, 344064, Note_on_c, 2, 36, 55
3, 344320, Note_off_c, 2, 36, 0
3, 344320, Note_on_c, 2, 36, 55
3, 344576, Note_off_c, 2, 36, 0
3, 345600, Note_on_c, 2, 36, 55
3, 345856, Note_off_c, 2, 36, 0
3, 345856, Note_on_c, 2, 36, 55
3, 346112, Note_off_c, 2, 36, 0
3, 348160, Program_c, 2, 63
3, 348160, Note_on_c, 2, 36, 55
3, 348416, Note_off_c, 2, 36, 0
3, 348416, Note_on_c, 2, 36, 55
3, 348672, Note_off_c, 2, 36, 0
3, 349696, Note_on_c, 2, 36, 55
3, 349952, Note_off_c, 2, 36, 0
3, 349952, Note_on_c, 2, 36, 55
3, 350208, Note_off_c, 2, 36, 0
3, 350208, Note_on_c, 2, 50, 55
3, 350394, Note_off_c, 2, 50, 0
3, 350394, Note_on_c, 2, 45, 55
3, 350580, Note_off_c, 2, 45, 0
3, 350580, Note_on_c, 2, 45, 55
3, 350767, Note_off_c, 2, 45, 0
3, 350767, Note_on_c, 2, 47, 55
3, 350953, Note_off_c, 2, 47, 0
3, 350953, Note_on_c, 2, 48, 55
3, 351139, Note_off_c, 2, 48, 0
3, 351139, Note_on_c, 2, 52, 55
3, 351325, Note_off_c, 2, 52, 0
3, 351325, Note_on_c, 2, 47, 55
3, 351511, Note_off_c, 2, 47, 0
3, 351511, Note_on_c, 2, 47, 55
3, 351698, Note_off_c, 2, 47, 0
3, 351698, Note_on_c, 2, 48, 55
3, 351884, Note_off_c, 2, 48, 0
3, 351884, Note_on_c, 2, 38, 55
3, 352070, Note_off_c, 2, 38, 0
3, 352070, Note_on_c, 2, 45, 55
3, 352256, Program_c, 2, 63
3, 352256, Note_off_c, 2, 45, 0
3, 352256, Note_on_c, 2, 47, 55
3, 352442, Note_off_c, 2, 47, 0
3, 352442, Note_on_c, 2, 40, 55
3, 352628, Note_off_c, 2, 40, 0
3, 352628, Note_on_c, 2, 40, 55
3, 352815, Note_off_c, 2, 40, 0
3, 352815, Note_on_c, 2, 43, 55
3, 353001, Note_off_c, 2, 43, 0
3, 353001, Note_on_c, 2, 43, 55
3, 353187, Note_off_c, 2, 43, 0
3, 353187, Note_on_c, 2, 50, 55
3, 353373, Note_off_c, 2, 50, 0
3, 353373, Note_on_c, 2, 42, 55
3, 353559, Note_off_c, 2, 42, 0
3, 353559, Note_on_c, 2, 42, 55
3, 353746, Note_off_c, 2, 42, 0
3, 353746, Note_on_c, 2, 45, 55
3, 353932, Note_off_c, 2, 45, 0
3, 353932, Note_on_c, 2, 40, 55
3, 354118, Note_off_c, 2, 40, 0
3, 354118, Note_on_c, 2, 35, 55
3, 354304, Note_off_c, 2, 35, 0
3, 354304, Note_on_c, 2, 45, 55
3, 354987, Note_off_c, 2, 45, 0
3, 354987, Note_on_c, 2, 48, 55
3, 355669, Note_off_c, 2, 48, 0
3, 355669, Note_on_c, 2, 48, 55
3, 356352, Program_c, 2, 63
3, 356352, Note_off_c, 2, 48, 0
3, 356352, Note_on_c, 2, 36, 55
3, 356608, Note_off_c, 2, 36, 0
3, 356608, Note_on_c, 2, 36, 55
3, 356864, Note_off_c, 2, 36, 0
3, 357888, Note_on_c, 2, 36, 55
3, 358144, Note_off_c, 2, 36, 0
3, 358144, Note_on_c, 2, 36, 55
3, 358400, Note_off_c, 2, 36, 0
3, 360448, Program_c, 2, 63
3, 360448, Note_on_c, 2, 37, 55
3, 360704, Note_off_c, 2, 37, 0
3, 360704, Note_on_c, 2, 37, 55
3, 360960, Note_off_c, 2, 37, 0
3, 361984, Note_on_c, 2, 37, 55
3, 362240, Note_off_c, 2, 37, 0
3, 362240, Note_on_c, 2, 37, 55
3, 362496, Note_off_c, 2, 37, 0
3, 364544, Program_c, 2, 63
3, 364544, Note_on_c, 2, 37, 55
3, 364800, Note_off_c, 2, 37, 0
3, 364800, Note_on_c, 2, 37, 55
3, 365056, Note_off_c, 2, 37, 0
3, 366080, Note_on_c, 2, 37, 55
3, 366336, Note_off_c, 2, 37, 0
3, 366336, Note_on_c, 2, 37, 55
3, 366592, Note_off_c, 2, 37, 0
3, 368640, Program_c, 2, 63
3, 368640, Note_on_c, 2, 58, 55
3, 369012, Note_off_c, 2, 58, 0
3, 369012, Note_on_c, 2, 54, 55
3, 369385, Note_off_c, 2, 54, 0
3, 369385, Note_on_c, 2, 54, 55
3, 369757, Note_off_c, 2, 54, 0
3, 369757, Note_on_c, 2, 56, 55
3, 370129, Note_off_c, 2, 56, 0
3, 370129, Note_on_c, 2, 53, 55
3, 370502, Note_off_c, 2, 53, 0
3, 370502, Note_on_c, 2, 49, 55
3, 370874, Note_off_c, 2, 49, 0
3, 370874, Note_on_c, 2, 49, 55
3, 371247, Note_off_c, 2, 49, 0
3, 371247, Note_on_c, 2, 51, 55
3, 371619, Note_off_c, 2, 51, 0
3, 371619, Note_on_c, 2, 47, 55
3, 371991, Note_off_c, 2, 47, 0
3, 371991, Note_on_c, 2, 56, 55
3, 372364, Note_off_c, 2, 56, 0
3, 372364, Note_on_c, 2, 53, 55
3, 372736, Program_c, 2, 63
3, 372736, Note_off_c, 2, 53, 0
3, 372736, Note_on_c, 2, 53, 55
3, 373108, Note_off_c, 2, 53, 0
3, 373108, Note_on_c, 2, 51, 55
3, 373481, Note_off_c, 2, 51, 0
3, 373481, Note_on_c, 2, 54, 55
3, 373853, Note_off_c, 2, 54, 0
3, 373853, Note_on_c, 2, 53, 55
3, 374225, Note_off_c, 2, 53, 0
3, 374225, Note_on_c, 2, 49, 55
3, 374598, Note_off_c, 2, 49, 0
3, 374598, Note_on_c, 2, 51, 55
3, 374970, Note_off_c, 2, 51, 0
3, 374970, Note_on_c, 2, 56, 55
3, 375343, Note_off_c, 2, 56, 0
3, 375343, Note_on_c, 2, 49, 55
3, 375715, Note_off_c, 2, 49, 0
3, 375715, Note_on_c, 2, 54, 55
3, 376087, Note_off_c, 2, 54, 0
3, 376087, Note_on_c, 2, 41, 55
3, 376460, Note_off_c, 2, 41, 0
3, 376460, Note_on_c, 2, 47, 55
3, 376832, Program_c, 2, 63
3, 376832, Note_off_c, 2, 47, 0
3, 376832, Note_on_c, 2, 44, 55
3, 377088, Note_off_c, 2, 44, 0
3, 377088, Note_on_c, 2, 44, 55
3, 377344, Note_off_c, 2, 44, 0
3, 378368, Note_on_c, 2, 44, 55
3, 378624, Note_off_c, 2, 44, 0
3, 378624, Note_on_c, 2, 44, 55
3, 378880, Note_off_c, 2, 44, 0
3, 380928, Program_c, 2, 63
3, 380928, Note_on_c, 2, 44, 55
3, 381184, Note_off_c, 2, 44, 0
3, 381184, Note_on_c, 2, 44, 55
3, 381440, Note_off_c, 2, 44, 0
3, 382464, Note_on_c, 2, 44, 55
3, 382720, Note_off_c, 2, 44, 0
3, 382720, Note_on_c, 2, 44, 55
3, 382976, Note_off_c, 2, 44, 0
3, 385024, Note_on_c, 2, 58, 55
3, 385396, Note_off_c, 2, 58, 0
3, 385396, Note_on_c, 2, 54, 55
3, 385769, Note_off_c, 2, 54, 0
3, 385769, Note_on_c, 2, 54, 55
3, 386141, Note_off_c, 2, 54, 0
3, 386141, Note_on_c, 2, 56, 55
3, 386513, Note_off_c, 2, 56, 0
3, 386513, Note_on_c, 2, 53, 55
3, 386886, Note_off_c, 2, 53, 0
3, 386886, Note_on_c, 2, 49, 55
3, 387258, Note_off_c, 2, 49, 0
3, 387258, Note_on_c, 2, 49, 55
3, 387631, Note_off_c, 2, 49, 0
3, 387631, Note_on_c, 2, 51, 55
3, 388003, Note_off_c, 2, 51, 0
3, 388003, Note_on_c, 2, 47, 55
3, 388375, Note_off_c, 2, 47, 0
3, 388375, Note_on_c, 2, 56, 55
3, 388748, Note_off_c, 2, 56, 0
3, 388748, Note_on_c, 2, 53, 55
3, 389120, Note_off_c, 2, 53, 0
3, 389120, Note_on_c, 2, 53, 55
3, 389492, Note_off_c, 2, 53, 0
3, 389492, Note_on_c, 2, 51, 55
3, 389865, Note_off_c, 2, 51, 0
3, 389865, Note_on_c, 2, 54, 55
3, 390237, Note_off_c, 2, 54, 0
3, 390237, Note_on_c, 2, 53, 55
3, 390609, Note_off_c, 2, 53, 0
3, 390609, Note_on_c, 2, 49, 55
3, 390982, Note_off_c, 2, 49, 0
3, 390982, Note_on_c, 2, 51, 55
3, 391354, Note_off_c, 2, 51, 0
3, 391354, Note_on_c, 2, 56, 55
3, 391727, Note_off_c, 2, 56, 0
3, 391727, Note_on_c, 2, 49, 55
3, 392099, Note_off_c, 2, 49, 0
3, 392099, Note_on_c, 2, 54, 55
3, 392471, Note_off_c, 2, 54, 0
3, 392471, Note_on_c, 2, 41, 55
3, 392844, Note_off_c, 2, 41, 0
3, 392844, Note_on_c, 2, 47, 55
3, 393216, Note_off_c, 2, 47, 0
3, 393216, Note_on_c, 2, 44, 55
3, 393472, Note_off_c, 2, 44, 0
3, 393472, Note_on_c, 2, 44, 55
3, 393728, Note_off_c, 2, 44, 0
3, 394752, Note_on_c, 2, 44, 55
3, 395008, Note_off_c, 2, 44, 0
3, 395008, Note_on_c, 2, 44, 55
3, 395264, Note_off_c, 2, 44, 0
3, 397312, Note_on_c, 2, 44, 55
3, 397568, Note_off_c, 2, 44, 0
3, 397568, Note_on_c, 2, 44, 55
3, 397824, Note_off_c, 2, 44, 0
3, 398848, Note_on_c, 2, 44, 55
3, 399104, Note_off_c, 2, 44, 0
3, 399104, Note_on_c, 2, 44, 55
3, 399360, Note_off_c, 2, 44, 0
3, 401408, Program_c, 2, 63
3, 401408, Note_on_c, 2, 58, 55
3, 401780, Note_off_c, 2, 58, 0
3, 401780, Note_on_c, 2, 54, 55
3, 402153, Note_off_c, 2, 54, 0
3, 402153, Note_on_c, 2, 54, 55
3, 402525, Note_off_c, 2, 54, 0
3, 402525, Note_on_c, 2, 56, 55
3, 402897, Note_off_c, 2, 56, 0
3, 402897, Note_on_c, 2, 53, 55
3, 403270, Note_off_c, 2, 53, 0
3, 403270, Note_on_c, 2, 49, 55
3, 403642, Note_off_c, 2, 49, 0
3, 403642, Note_on_c, 2, 49, 55
3, 404015, Note_off_c, 2, 49, 0
3, 404015, Note_on_c, 2, 51, 55
3, 404387, Note_off_c, 2, 51, 0
3, 404387, Note_on_c, 2, 47, 55
3, 404759, Note_off_c, 2, 47, 0
3, 404759, Note_on_c, 2, 56, 55
3, 405132, Note_off_c, 2, 56, 0
3, 405132, Note_on_c, 2, 53, 55
3, 405504, Program_c, 2, 63
3, 405504, Note_off_c, 2, 53, 0
3, 405504, Note_on_c, 2, 53, 55
3, 405876, Note_off_c, 2, 53, 0
3, 405876, Note_on_c, 2, 51, 55
3, 406249, Note_off_c, 2, 51, 0
3, 406249, Note_on_c, 2, 54, 55
3, 406621, Note_off_c, 2, 54, 0
3, 406621, Note_on_c, 2, 53, 55
3, 406993, Note_off_c, 2, 53, 0
3, 406993, Note_on_c, 2, 49, 55
3, 407366, Note_off_c, 2, 49, 0
3, 407366, Note_on_c, 2, 51, 55
3, 407738, Note_off_c, 2, 51, 0
3, 407738, Note_on_c, 2, 56, 55
3, 408111, Note_off_c, 2, 56, 0
3, 408111, Note_on_c, 2, 49, 55
3, 408483, Note_off_c, 2, 49, 0
3, 408483, Note_on_c, 2, 54, 55
3, 408855, Note_off_c, 2, 54, 0
3, 408855, Note_on_c, 2, 41, 55
3, 409228, Note_off_c, 2, 41, 0
3, 409228, Note_on_c, 2, 47, 55
3, 409600, Program_c, 2, 63
3, 409600, Note_off_c, 2, 47, 0
3, 409600, Note_on_c, 2, 40, 55
3, 413696, Program_c, 2, 63
3, 417792, Note_off_c, 2, 40, 0
3, 417793, End_track
4, 0, Start_track
4, 0, Title_t, "Jazz Guitar"
4, 0, Program_c, 5, 62
4, 0, Program_c, 5, 100
4, 0, Note_on_c, 5, 71, 50
4, 4096, Program_c, 5, 100
4, 4096, Note_off_c, 5, 71, 0
4, 4096, Note_on_c, 5, 78, 50
4, 4608, Note_off_c, 5, 78, 0
4, 4608, Note_on_c, 5, 78, 50
4, 5120, Note_off_c, 5, 78, 0
4, 5120, Note_on_c, 5, 73, 50
4, 5888, Note_off_c, 5, 73, 0
4, 5888, Note_on_c, 5, 71, 50
4, 6144, Note_off_c, 5, 71, 0
4, 6144, Note_on_c, 5, 81, 50
4, 7424, Note_off_c, 5, 81, 0
4, 7424, Note_on_c, 5, 84, 50
4, 7680, Note_off_c, 5, 84, 0
4, 7680, Note_on_c, 5, 79, 50
4, 8192, Program_c, 5, 100
4, 8192, Note_off_c, 5, 79, 0
4, 8192, Note_on_c, 5, 76, 50
4, 8448, Note_off_c, 5, 76, 0
4, 8448, Note_on_c, 5, 81, 50
4, 8704, Note_off_c, 5, 81, 0
4, 8704, Note_on_c, 5, 81, 50
4, 12288, Program_c, 5, 100
4, 12288, Note_off_c, 5, 81, 0
4, 12800, Note_on_c, 5, 76, 50
4, 13056, Note_off_c, 5, 76, 0
4, 13056, Note_on_c, 5, 81, 50
4, 13312, Note_off_c, 5, 81, 0
4, 13312, Note_on_c, 5, 81, 50
4, 15872, Note_off_c, 5, 81, 0
4, 15872, Note_on_c, 5, 78, 50
4, 16384, Program_c, 5, 100
4, 16384, Note_off_c, 5, 78, 0
4, 16384, Note_on_c, 5, 79, 50
4, 16725, Note_off_c, 5, 79, 0
4, 16725, Note_on_c, 5, 84, 50
4, 17067, Note_off_c, 5, 84, 0
4, 17067, Note_on_c, 5, 77, 50
4, 17408, Note_off_c, 5, 77, 0
4, 17408, Note_on_c, 5, 81, 50
4, 20480, Program_c, 5, 100
4, 20480, Note_off_c, 5, 81, 0
4, 20480, Note_on_c, 5, 76, 50
4, 21163, Note_off_c, 5, 76, 0
4, 21163, Note_on_c, 5, 74, 50
4, 21504, Note_off_c, 5, 74, 0
4, 21504, Note_on_c, 5, 84, 50
4, 24576, Program_c, 5, 100
4, 26368, Note_off_c, 5, 84, 0
4, 26368, Note_on_c, 5, 84, 50
4, 26624, Note_off_c, 5, 84, 0
4, 26624, Note_on_c, 5, 81, 50
4, 28160, Note_off_c, 5, 81, 0
4, 28160, Note_on_c, 5, 79, 50
4, 28672, Program_c, 5, 100
4, 29696, Note_off_c, 5, 79, 0
4, 29696, Note_on_c, 5, 77, 50
4, 31232, Note_off_c, 5, 77, 0
4, 31232, Note_on_c, 5, 74, 50
4, 32768, Program_c, 5, 100
4, 32768, Note_off_c, 5, 74, 0
4, 32768, Note_on_c, 5, 73, 50
4, 34304, Note_off_c, 5, 73, 0
4, 34304, Note_on_c, 5, 74, 50
4, 34560, Note_off_c, 5, 74, 0
4, 34560, Note_on_c, 5, 79, 50
4, 34816, Note_off_c, 5, 79, 0
4, 34816, Note_on_c, 5, 76, 50
4, 36864, Program_c, 5, 100
4, 40960, Program_c, 5, 100
4, 45056, Program_c, 5, 100
4, 48128, Note_off_c, 5, 76, 0
4, 49152, Program_c, 5, 100
4, 49152, Note_on_c, 5, 72, 50
4, 49664, Note_off_c, 5, 72, 0
4, 49664, Note_on_c, 5, 76, 50
4, 50176, Note_off_c, 5, 76, 0
4, 50176, Note_on_c, 5, 74, 50
4, 50688, Note_off_c, 5, 74, 0
4, 50688, Note_on_c, 5, 77, 50
4, 51200, Note_off_c, 5, 77, 0
4, 51200, Note_on_c, 5, 76, 50
4, 51712, Note_off_c, 5, 76, 0
4, 51712, Note_on_c, 5, 67, 50
4, 52224, Note_off_c, 5, 67, 0
4, 52224, Note_on_c, 5, 77, 50
4, 52736, Note_off_c, 5, 77, 0
4, 52736, Note_on_c, 5, 74, 50
4, 53248, Program_c, 5, 100
4, 53248, Note_off_c, 5, 74, 0
4, 53248, Note_on_c, 5, 81, 50
4, 53931, Note_off_c, 5, 81, 0
4, 53931, Note_on_c, 5, 84, 50
4, 54613, Note_off_c, 5, 84, 0
4, 54613, Note_on_c, 5, 76, 50
4, 55296, Note_off_c, 5, 76, 0
4, 55296, Note_on_c, 5, 76, 50
4, 55706, Note_off_c, 5, 76, 0
4, 55706, Note_on_c, 5, 77, 50
4, 56115, Note_off_c, 5, 77, 0
4, 56115, Note_on_c, 5, 76, 50
4, 56525, Note_off_c, 5, 76, 0
4, 56525, Note_on_c, 5, 74, 50
4, 56934, Note_off_c, 5, 74, 0
4, 56934, Note_on_c, 5, 69, 50
4, 57344, Program_c, 5, 100
4, 57344, Note_off_c, 5, 69, 0
4, 57344, Note_on_c, 5, 70, 50
4, 57637, Note_off_c, 5, 70, 0
4, 57637, Note_on_c, 5, 72, 50
4, 57929, Note_off_c, 5, 72, 0
4, 57929, Note_on_c, 5, 72, 50
4, 58222, Note_off_c, 5, 72, 0
4, 58222, Note_on_c, 5, 74, 50
4, 58514, Note_off_c, 5, 74, 0
4, 58514, Note_on_c, 5, 74, 50
4, 58807, Note_off_c, 5, 74, 0
4, 58807, Note_on_c, 5, 76, 50
4, 59099, Note_off_c, 5, 76, 0
4, 59099, Note_on_c, 5, 77, 50
4, 59392, Note_off_c, 5, 77, 0
4, 59392, Note_on_c, 5, 81, 50
4, 59685, Note_off_c, 5, 81, 0
4, 59685, Note_on_c, 5, 67, 50
4, 59977, Note_off_c, 5, 67, 0
4, 59977, Note_on_c, 5, 67, 50
4, 60270, Note_off_c, 5, 67, 0
4, 60270, Note_on_c, 5, 74, 50
4, 60562, Note_off_c, 5, 74, 0
4, 60562, Note_on_c, 5, 65, 50
4, 60855, Note_off_c, 5, 65, 0
4, 60855, Note_on_c, 5, 65, 50
4, 61147, Note_off_c, 5, 65, 0
4, 61147, Note_on_c, 5, 64, 50
4, 61440, Program_c, 5, 100
4, 61440, Note_off_c, 5, 64, 0
4, 61440, Note_on_c, 5, 67, 50
4, 65536, Program_c, 5, 100
4, 69632, Program_c, 5, 100
4, 69632, Note_off_c, 5, 67, 0
4, 70656, Note_on_c, 5, 71, 50
4, 71168, Note_off_c, 5, 71, 0
4, 71168, Note_on_c, 5, 73, 50
4, 71680, Note_off_c, 5, 73, 0
4, 71680, Note_on_c, 5, 73, 50
4, 72363, Note_off_c, 5, 73, 0
4, 72363, Note_on_c, 5, 71, 50
4, 73045, Note_off_c, 5, 71, 0
4, 73045, Note_on_c, 5, 74, 50
4, 73728, Program_c, 5, 100
4, 73728, Note_off_c, 5, 74, 0
4, 73728, Note_on_c, 5, 77, 50
4, 74411, Note_off_c, 5, 77, 0
4, 74411, Note_on_c, 5, 69, 50
4, 75093, Note_off_c, 5, 69, 0
4, 75093, Note_on_c, 5, 69, 50
4, 75776, Note_off_c, 5, 69, 0
4, 75776, Note_on_c, 5, 70, 50
4, 77312, Note_off_c, 5, 70, 0
4, 77312, Note_on_c, 5, 73, 50
4, 77824, Program_c, 5, 100
4, 77824, Note_off_c, 5, 73, 0
4, 77824, Note_on_c, 5, 76, 50
4, 78507, Note_off_c, 5, 76, 0
4, 78507, Note_on_c, 5, 81, 50
4, 79189, Note_off_c, 5, 81, 0
4, 79189, Note_on_c, 5, 82, 50
4, 79872, Note_off_c, 5, 82, 0
4, 79872, Note_on_c, 5, 77, 50
4, 80555, Note_off_c, 5, 77, 0
4, 80555, Note_on_c, 5, 72, 50
4, 81237, Note_off_c, 5, 72, 0
4, 81237, Note_on_c, 5, 67, 50
4, 81920, Program_c, 5, 100
4, 81920, Note_off_c, 5, 67, 0
4, 81920, Note_on_c, 5, 69, 50
4, 86016, Program_c, 5, 100
4, 87040, Note_off_c, 5, 69, 0
4, 87040, Note_on_c, 5, 81, 50
4, 90112, Program_c, 5, 100
4, 92160, Note_off_c, 5, 81, 0
4, 92160, Note_on_c, 5, 81, 50
4, 94208, Program_c, 5, 100
4, 97280, Note_off_c, 5, 81, 0
4, 97280, Note_on_c, 5, 69, 50
4, 98304, Program_c, 5, 100
4, 102400, Program_c, 5, 100
4, 102400, Note_off_c, 5, 69, 0
4, 102400, Note_on_c, 5, 83, 50
4, 106496, Program_c, 5, 100
4, 107520, Note_off_c, 5, 83, 0
4, 107520, Note_on_c, 5, 73, 50
4, 110592, Program_c, 5, 100
4, 112640, Note_off_c, 5, 73, 0
4, 112640, Note_on_c, 5, 76, 50
4, 114688, Program_c, 5, 100
4, 117760, Note_off_c, 5, 76, 0
4, 117760, Note_on_c, 5, 73, 50
4, 118784, Program_c, 5, 100
4, 121856, Note_off_c, 5, 73, 0
4, 122880, Program_c, 5, 100
4, 122880, Note_on_c, 5, 71, 50
4, 123392, Note_off_c, 5, 71, 0
4, 123392, Note_on_c, 5, 72, 50
4, 123904, Note_off_c, 5, 72, 0
4, 123904, Note_on_c, 5, 72, 50
4, 124245, Note_off_c, 5, 72, 0
4, 124245, Note_on_c, 5, 69, 50
4, 124587, Note_off_c, 5, 69, 0
4, 124587, Note_on_c, 5, 74, 50
4, 124928, Note_off_c, 5, 74, 0
4, 124928, Note_on_c, 5, 75, 50
4, 125338, Note_off_c, 5, 75, 0
4, 125338, Note_on_c, 5, 67, 50
4, 125747, Note_off_c, 5, 67, 0
4, 125747, Note_on_c, 5, 67, 50
4, 126157, Note_off_c, 5, 67, 0
4, 126157, Note_on_c, 5, 69, 50
4, 126566, Note_off_c, 5, 69, 0
4, 126566, Note_on_c, 5, 65, 50
4, 126976, Program_c, 5, 100
4, 126976, Note_off_c, 5, 65, 0
4, 126976, Note_on_c, 5, 64, 50
4, 127659, Note_off_c, 5, 64, 0
4, 127659, Note_on_c, 5, 67, 50
4, 128341, Note_off_c, 5, 67, 0
4, 128341, Note_on_c, 5, 67, 50
4, 129024, Note_off_c, 5, 67, 0
4, 129024, Note_on_c, 5, 65, 50
4, 129707, Note_off_c, 5, 65, 0
4, 129707, Note_on_c, 5, 65, 50
4, 130389, Note_off_c, 5, 65, 0
4, 130389, Note_on_c, 5, 74, 50
4, 131072, Program_c, 5, 100
4, 131072, Note_off_c, 5, 74, 0
4, 131072, Note_on_c, 5, 73, 50
4, 135168, Program_c, 5, 100
4, 139264, Program_c, 5, 100
4, 143360, Program_c, 5, 100
4, 146432, Note_off_c, 5, 73, 0
4, 147456, Program_c, 5, 100
4, 147456, Note_on_c, 5, 83, 50
4, 148736, Note_off_c, 5, 83, 0
4, 148736, Note_on_c, 5, 81, 50
4, 148992, Note_off_c, 5, 81, 0
4, 148992, Note_on_c, 5, 80, 50
4, 149248, Note_off_c, 5, 80, 0
4, 149248, Note_on_c, 5, 86, 50
4, 149504, Note_off_c, 5, 86, 0
4, 149504, Note_on_c, 5, 76, 50
4, 149845, Note_off_c, 5, 76, 0
4, 149845, Note_on_c, 5, 83, 50
4, 150187, Note_off_c, 5, 83, 0
4, 150187, Note_on_c, 5, 81, 50
4, 150528, Note_off_c, 5, 81, 0
4, 150528, Note_on_c, 5, 85, 50
4, 150733, Note_off_c, 5, 85, 0
4, 150733, Note_on_c, 5, 81, 50
4, 150938, Note_off_c, 5, 81, 0
4, 150938, Note_on_c, 5, 81, 50
4, 151142, Note_off_c, 5, 81, 0
4, 151142, Note_on_c, 5, 83, 50
4, 151347, Note_off_c, 5, 83, 0
4, 151347, Note_on_c, 5, 80, 50
4, 151552, Program_c, 5, 100
4, 151552, Note_off_c, 5, 80, 0
4, 152064, Note_on_c, 5, 85, 50
4, 152576, Note_off_c, 5, 85, 0
4, 152576, Note_on_c, 5, 78, 50
4, 152917, Note_off_c, 5, 78, 0
4, 152917, Note_on_c, 5, 83, 50
4, 153259, Note_off_c, 5, 83, 0
4, 153259, Note_on_c, 5, 80, 50
4, 153600, Note_off_c, 5, 80, 0
4, 153600, Note_on_c, 5, 92, 50
4, 154010, Note_off_c, 5, 92, 0
4, 154010, Note_on_c, 5, 90, 50
4, 154419, Note_off_c, 5, 90, 0
4, 154419, Note_on_c, 5, 85, 50
4, 154829, Note_off_c, 5, 85, 0
4, 154829, Note_on_c, 5, 88, 50
4, 155238, Note_off_c, 5, 88, 0
4, 155238, Note_on_c, 5, 78, 50
4, 155648, Program_c, 5, 100
4, 155648, Note_off_c, 5, 78, 0
4, 155648, Note_on_c, 5, 92, 50
4, 156058, Note_off_c, 5, 92, 0
4, 156058, Note_on_c, 5, 90, 50
4, 156467, Note_off_c, 5, 90, 0
4, 156467, Note_on_c, 5, 85, 50
4, 156877, Note_off_c, 5, 85, 0
4, 156877, Note_on_c, 5, 88, 50
4, 157286, Note_off_c, 5, 88, 0
4, 157286, Note_on_c, 5, 78, 50
4, 159744, Program_c, 5, 100
4, 163840, Program_c, 5, 100
4, 166912, Note_off_c, 5, 78, 0
4, 167936, Program_c, 5, 100
4, 167936, Note_on_c, 5, 80, 50
4, 168192, Note_off_c, 5, 80, 0
4, 168192, Note_on_c, 5, 81, 50
4, 168448, Note_off_c, 5, 81, 0
4, 168448, Note_on_c, 5, 80, 50
4, 168960, Note_off_c, 5, 80, 0
4, 168960, Note_on_c, 5, 80, 50
4, 169216, Note_off_c, 5, 80, 0
4, 169216, Note_on_c, 5, 81, 50
4, 169472, Note_off_c, 5, 81, 0
4, 169472, Note_on_c, 5, 80, 50
4, 169984, Note_off_c, 5, 80, 0
4, 169984, Note_on_c, 5, 80, 50
4, 170496, Note_off_c, 5, 80, 0
4, 170496, Note_on_c, 5, 71, 50
4, 170752, Note_off_c, 5, 71, 0
4, 170752, Note_on_c, 5, 81, 50
4, 171008, Note_off_c, 5, 81, 0
4, 171008, Note_on_c, 5, 78, 50
4, 171264, Note_off_c, 5, 78, 0
4, 171264, Note_on_c, 5, 73, 50
4, 171520, Note_off_c, 5, 73, 0
4, 171520, Note_on_c, 5, 83, 50
4, 171776, Note_off_c, 5, 83, 0
4, 171776, Note_on_c, 5, 78, 50
4, 172032, Program_c, 5, 100
4, 172032, Note_off_c, 5, 78, 0
4, 172032, Note_on_c, 5, 80, 50
4, 172288, Note_off_c, 5, 80, 0
4, 172288, Note_on_c, 5, 76, 50
4, 172544, Note_off_c, 5, 76, 0
4, 172544, Note_on_c, 5, 76, 50
4, 172800, Note_off_c, 5, 76, 0
4, 172800, Note_on_c, 5, 73, 50
4, 173056, Note_off_c, 5, 73, 0
4, 173056, Note_on_c, 5, 78, 50
4, 173312, Note_off_c, 5, 78, 0
4, 173312, Note_on_c, 5, 80, 50
4, 173568, Note_off_c, 5, 80, 0
4, 173568, Note_on_c, 5, 80, 50
4, 173824, Note_off_c, 5, 80, 0
4, 173824, Note_on_c, 5, 83, 50
4, 174080, Note_off_c, 5, 83, 0
4, 174080, Note_on_c, 5, 81, 50
4, 174336, Note_off_c, 5, 81, 0
4, 174336, Note_on_c, 5, 80, 50
4, 174592, Note_off_c, 5, 80, 0
4, 174592, Note_on_c, 5, 80, 50
4, 174848, Note_off_c, 5, 80, 0
4, 174848, Note_on_c, 5, 83, 50
4, 175104, Note_off_c, 5, 83, 0
4, 175104, Note_on_c, 5, 78, 50
4, 175360, Note_off_c, 5, 78, 0
4, 175360, Note_on_c, 5, 66, 50
4, 175616, Note_off_c, 5, 66, 0
4, 175616, Note_on_c, 5, 66, 50
4, 175872, Note_off_c, 5, 66, 0
4, 175872, Note_on_c, 5, 71, 50
4, 176128, Program_c, 5, 100
4, 176128, Note_off_c, 5, 71, 0
4, 176128, Note_on_c, 5, 73, 50
4, 176384, Note_off_c, 5, 73, 0
4, 176384, Note_on_c, 5, 69, 50
4, 176640, Note_off_c, 5, 69, 0
4, 176640, Note_on_c, 5, 71, 50
4, 176896, Note_off_c, 5, 71, 0
4, 176896, Note_on_c, 5, 76, 50
4, 177152, Note_off_c, 5, 76, 0
4, 177152, Note_on_c, 5, 80, 50
4, 177408, Note_off_c, 5, 80, 0
4, 177408, Note_on_c, 5, 66, 50
4, 177664, Note_off_c, 5, 66, 0
4, 177664, Note_on_c, 5, 71, 50
4, 177920, Note_off_c, 5, 71, 0
4, 177920, Note_on_c, 5, 73, 50
4, 178176, Note_off_c, 5, 73, 0
4, 178176, Note_on_c, 5, 74, 50
4, 178432, Note_off_c, 5, 74, 0
4, 178432, Note_on_c, 5, 81, 50
4, 178688, Note_off_c, 5, 81, 0
4, 178688, Note_on_c, 5, 78, 50
4, 178944, Note_off_c, 5, 78, 0
4, 178944, Note_on_c, 5, 76, 50
4, 179200, Note_off_c, 5, 76, 0
4, 179200, Note_on_c, 5, 78, 50
4, 179456, Note_off_c, 5, 78, 0
4, 179456, Note_on_c, 5, 80, 50
4, 179712, Note_off_c, 5, 80, 0
4, 179712, Note_on_c, 5, 76, 50
4, 179968, Note_off_c, 5, 76, 0
4, 179968, Note_on_c, 5, 71, 50
4, 180224, Program_c, 5, 100
4, 180224, Note_off_c, 5, 71, 0
4, 181248, Note_on_c, 5, 78, 50
4, 181504, Note_off_c, 5, 78, 0
4, 181504, Note_on_c, 5, 80, 50
4, 181760, Note_off_c, 5, 80, 0
4, 181760, Note_on_c, 5, 76, 50
4, 182016, Note_off_c, 5, 76, 0
4, 182016, Note_on_c, 5, 71, 50
4, 182272, Note_off_c, 5, 71, 0
4, 184320, Program_c, 5, 100
4, 184320, Note_on_c, 5, 78, 50
4, 184576, Note_off_c, 5, 78, 0
4, 184576, Note_on_c, 5, 80, 50
4, 184832, Note_off_c, 5, 80, 0
4, 184832, Note_on_c, 5, 76, 50
4, 185088, Note_off_c, 5, 76, 0
4, 185088, Note_on_c, 5, 71, 50
4, 185344, Note_off_c, 5, 71, 0
4, 187392, Note_on_c, 5, 78, 50
4, 187648, Note_off_c, 5, 78, 0
4, 187648, Note_on_c, 5, 80, 50
4, 187904, Note_off_c, 5, 80, 0
4, 187904, Note_on_c, 5, 76, 50
4, 188160, Note_off_c, 5, 76, 0
4, 188160, Note_on_c, 5, 71, 50
4, 188416, Program_c, 5, 100
4, 188416, Note_off_c, 5, 71, 0
4, 188416, Note_on_c, 5, 81, 50
4, 190336, Note_on_c, 5, 81, 50
4, 190464, Note_off_c, 5, 81, 0
4, 190464, Note_off_c, 5, 81, 0
4, 190464, Note_on_c, 5, 80, 50
4, 190976, Note_off_c, 5, 80, 0
4, 191488, Note_on_c, 5, 78, 50
4, 192000, Note_off_c, 5, 78, 0
4, 192512, Program_c, 5, 100
4, 192512, Note_on_c, 5, 88, 50
4, 193097, Note_off_c, 5, 88, 0
4, 193097, Note_on_c, 5, 78, 50
4, 193682, Note_off_c, 5, 78, 0
4, 193682, Note_on_c, 5, 78, 50
4, 193975, Note_off_c, 5, 78, 0
4, 193975, Note_on_c, 5, 83, 50
4, 194267, Note_off_c, 5, 83, 0
4, 194267, Note_on_c, 5, 80, 50
4, 194560, Note_off_c, 5, 80, 0
4, 194560, Note_on_c, 5, 85, 50
4, 195072, Note_off_c, 5, 85, 0
4, 195072, Note_on_c, 5, 83, 50
4, 195584, Note_off_c, 5, 83, 0
4, 195584, Note_on_c, 5, 83, 50
4, 196096, Note_off_c, 5, 83, 0
4, 196096, Note_on_c, 5, 81, 50
4, 196608, Program_c, 5, 100
4, 196608, Note_off_c, 5, 81, 0
4, 196608, Note_on_c, 5, 80, 50
4, 198144, Note_off_c, 5, 80, 0
4, 198144, Note_on_c, 5, 81, 50
4, 198528, Note_on_c, 5, 81, 50
4, 198656, Note_off_c, 5, 81, 0
4, 198656, Note_off_c, 5, 81, 0
4, 198656, Note_on_c, 5, 78, 50
4, 199339, Note_off_c, 5, 78, 0
4, 199339, Note_on_c, 5, 76, 50
4, 200021, Note_off_c, 5, 76, 0
4, 200021, Note_on_c, 5, 76, 50
4, 200704, Program_c, 5, 100
4, 200704, Note_off_c, 5, 76, 0
4, 200704, Note_on_c, 5, 78, 50
4, 202752, Note_off_c, 5, 78, 0
4, 202752, Note_on_c, 5, 66, 50
4, 203008, Note_off_c, 5, 66, 0
4, 203008, Note_on_c, 5, 71, 50
4, 203264, Note_off_c, 5, 71, 0
4, 203264, Note_on_c, 5, 71, 50
4, 203520, Note_off_c, 5, 71, 0
4, 203520, Note_on_c, 5, 69, 50
4, 203776, Note_off_c, 5, 69, 0
4, 203776, Note_on_c, 5, 71, 50
4, 204800, Program_c, 5, 100
4, 205056, Note_off_c, 5, 71, 0
4, 205056, Note_on_c, 5, 73, 50
4, 205312, Note_off_c, 5, 73, 0
4, 205312, Note_on_c, 5, 71, 50
4, 205824, Note_off_c, 5, 71, 0
4, 205824, Note_on_c, 5, 66, 50
4, 207360, Note_off_c, 5, 66, 0
4, 207360, Note_on_c, 5, 68, 50
4, 208384, Note_off_c, 5, 68, 0
4, 208384, Note_on_c, 5, 59, 50
4, 208896, Program_c, 5, 100
4, 208896, Note_off_c, 5, 59, 0
4, 208896, Note_on_c, 5, 60, 50
4, 209579, Note_off_c, 5, 60, 0
4, 209579, Note_on_c, 5, 70, 50
4, 210261, Note_off_c, 5, 70, 0
4, 210261, Note_on_c, 5, 65, 50
4, 210944, Note_off_c, 5, 65, 0
4, 210944, Note_on_c, 5, 75, 50
4, 212992, Program_c, 5, 100
4, 212992, Note_off_c, 5, 75, 0
4, 212992, Note_on_c, 5, 73, 50
4, 213675, Note_off_c, 5, 73, 0
4, 213675, Note_on_c, 5, 70, 50
4, 214016, Note_off_c, 5, 70, 0
4, 214016, Note_on_c, 5, 72, 50
4, 217088, Program_c, 5, 100
4, 217856, Note_off_c, 5, 72, 0
4, 217856, Note_on_c, 5, 75, 50
4, 218112, Note_off_c, 5, 75, 0
4, 218112, Note_on_c, 5, 68, 50
4, 219136, Note_off_c, 5, 68, 0
4, 219136, Note_on_c, 5, 73, 50
4, 219819, Note_off_c, 5, 73, 0
4, 219819, Note_on_c, 5, 78, 50
4, 220501, Note_off_c, 5, 78, 0
4, 220501, Note_on_c, 5, 70, 50
4, 221184, Program_c, 5, 100
4, 221184, Note_off_c, 5, 70, 0
4, 221184, Note_on_c, 5, 75, 50
4, 221696, Note_off_c, 5, 75, 0
4, 221696, Note_on_c, 5, 73, 50
4, 221952, Note_off_c, 5, 73, 0
4, 221952, Note_on_c, 5, 77, 50
4, 222208, Note_off_c, 5, 77, 0
4, 222208, Note_on_c, 5, 72, 50
4, 225280, Program_c, 5, 100
4, 225280, Note_off_c, 5, 72, 0
4, 225280, Note_on_c, 5, 72, 50
4, 225792, Note_off_c, 5, 72, 0
4, 225792, Note_on_c, 5, 76, 50
4, 226304, Note_off_c, 5, 76, 0
4, 226304, Note_on_c, 5, 74, 50
4, 226816, Note_off_c, 5, 74, 0
4, 226816, Note_on_c, 5, 77, 50
4, 227328, Note_off_c, 5, 77, 0
4, 227328, Note_on_c, 5, 76, 50
4, 227840, Note_off_c, 5, 76, 0
4, 227840, Note_on_c, 5, 67, 50
4, 228352, Note_off_c, 5, 67, 0
4, 228352, Note_on_c, 5, 77, 50
4, 228864, Note_off_c, 5, 77, 0
4, 228864, Note_on_c, 5, 74, 50
4, 229376, Program_c, 5, 100
4, 229376, Note_off_c, 5, 74, 0
4, 229376, Note_on_c, 5, 81, 50
4, 230059, Note_off_c, 5, 81, 0
4, 230059, Note_on_c, 5, 84, 50
4, 230741, Note_off_c, 5, 84, 0
4, 230741, Note_on_c, 5, 76, 50
4, 231424, Note_off_c, 5, 76, 0
4, 231424, Note_on_c, 5, 76, 50
4, 231834, Note_off_c, 5, 76, 0
4, 231834, Note_on_c, 5, 77, 50
4, 232243, Note_off_c, 5, 77, 0
4, 232243, Note_on_c, 5, 76, 50
4, 232653, Note_off_c, 5, 76, 0
4, 232653, Note_on_c, 5, 74, 50
4, 233062, Note_off_c, 5, 74, 0
4, 233062, Note_on_c, 5, 69, 50
4, 233472, Program_c, 5, 100
4, 233472, Note_off_c, 5, 69, 0
4, 233472, Note_on_c, 5, 71, 50
4, 233765, Note_off_c, 5, 71, 0
4, 233765, Note_on_c, 5, 72, 50
4, 234057, Note_off_c, 5, 72, 0
4, 234057, Note_on_c, 5, 72, 50
4, 234350, Note_off_c, 5, 72, 0
4, 234350, Note_on_c, 5, 74, 50
4, 234642, Note_off_c, 5, 74, 0
4, 234642, Note_on_c, 5, 74, 50
4, 234935, Note_off_c, 5, 74, 0
4, 234935, Note_on_c, 5, 76, 50
4, 235227, Note_off_c, 5, 76, 0
4, 235227, Note_on_c, 5, 77, 50
4, 235520, Note_off_c, 5, 77, 0
4, 235520, Note_on_c, 5, 81, 50
4, 235813, Note_off_c, 5, 81, 0
4, 235813, Note_on_c, 5, 67, 50
4, 236105, Note_off_c, 5, 67, 0
4, 236105, Note_on_c, 5, 67, 50
4, 236398, Note_off_c, 5, 67, 0
4, 236398, Note_on_c, 5, 74, 50
4, 236690, Note_off_c, 5, 74, 0
4, 236690, Note_on_c, 5, 65, 50
4, 236983, Note_off_c, 5, 65, 0
4, 236983, Note_on_c, 5, 65, 50
4, 237275, Note_off_c, 5, 65, 0
4, 237275, Note_on_c, 5, 64, 50
4, 237568, Program_c, 5, 100
4, 237568, Note_off_c, 5, 64, 0
4, 237568, Note_on_c, 5, 67, 50
4, 241664, Program_c, 5, 100
4, 245760, Program_c, 5, 100
4, 245760, Note_off_c, 5, 67, 0
4, 246784, Note_on_c, 5, 71, 50
4, 247296, Note_off_c, 5, 71, 0
4, 247296, Note_on_c, 5, 73, 50
4, 247808, Note_off_c, 5, 73, 0
4, 247808, Note_on_c, 5, 73, 50
4, 248491, Note_off_c, 5, 73, 0
4, 248491, Note_on_c, 5, 71, 50
4, 249173, Note_off_c, 5, 71, 0
4, 249173, Note_on_c, 5, 74, 50
4, 249856, Program_c, 5, 100
4, 249856, Note_off_c, 5, 74, 0
4, 249856, Note_on_c, 5, 77, 50
4, 250539, Note_off_c, 5, 77, 0
4, 250539, Note_on_c, 5, 69, 50
4, 251221, Note_off_c, 5, 69, 0
4, 251221, Note_on_c, 5, 69, 50
4, 251904, Note_off_c, 5, 69, 0
4, 251904, Note_on_c, 5, 70, 50
4, 253440, Note_off_c, 5, 70, 0
4, 253440, Note_on_c, 5, 73, 50
4, 253952, Program_c, 5, 100
4, 253952, Note_off_c, 5, 73, 0
4, 253952, Note_on_c, 5, 76, 50
4, 254635, Note_off_c, 5, 76, 0
4, 254635, Note_on_c, 5, 81, 50
4, 255317, Note_off_c, 5, 81, 0
4, 255317, Note_on_c, 5, 82, 50
4, 256000, Note_off_c, 5, 82, 0
4, 256000, Note_on_c, 5, 77, 50
4, 256683, Note_off_c, 5, 77, 0
4, 256683, Note_on_c, 5, 72, 50
4, 257365, Note_off_c, 5, 72, 0
4, 257365, Note_on_c, 5, 67, 50
4, 258048, Program_c, 5, 100
4, 258048, Note_off_c, 5, 67, 0
4, 258048, Note_on_c, 5, 69, 50
4, 262144, Program_c, 5, 100
4, 263168, Note_off_c, 5, 69, 0
4, 263168, Note_on_c, 5, 81, 50
4, 266240, Program_c, 5, 100
4, 268288, Note_off_c, 5, 81, 0
4, 268288, Note_on_c, 5, 81, 50
4, 270336, Program_c, 5, 100
4, 273408, Note_off_c, 5, 81, 0
4, 273408, Note_on_c, 5, 69, 50
4, 274432, Program_c, 5, 100
4, 278528, Program_c, 5, 100
4, 278528, Note_off_c, 5, 69, 0
4, 278528, Note_on_c, 5, 83, 50
4, 282624, Program_c, 5, 100
4, 283648, Note_off_c, 5, 83, 0
4, 283648, Note_on_c, 5, 73, 50
4, 286720, Program_c, 5, 100
4, 288768, Note_off_c, 5, 73, 0
4, 288768, Note_on_c, 5, 76, 50
4, 290816, Program_c, 5, 100
4, 293888, Note_off_c, 5, 76, 0
4, 293888, Note_on_c, 5, 73, 50
4, 294912, Program_c, 5, 100
4, 299008, Program_c, 5, 100
4, 299008, Note_off_c, 5, 73, 0
4, 299008, Note_on_c, 5, 71, 50
4, 299520, Note_off_c, 5, 71, 0
4, 299520, Note_on_c, 5, 72, 50
4, 300032, Note_off_c, 5, 72, 0
4, 300032, Note_on_c, 5, 72, 50
4, 300373, Note_off_c, 5, 72, 0
4, 300373, Note_on_c, 5, 69, 50
4, 300715, Note_off_c, 5, 69, 0
4, 300715, Note_on_c, 5, 74, 50
4, 301056, Note_off_c, 5, 74, 0
4, 301056, Note_on_c, 5, 75, 50
4, 301466, Note_off_c, 5, 75, 0
4, 301466, Note_on_c, 5, 67, 50
4, 301875, Note_off_c, 5, 67, 0
4, 301875, Note_on_c, 5, 67, 50
4, 302285, Note_off_c, 5, 67, 0
4, 302285, Note_on_c, 5, 69, 50
4, 302694, Note_off_c, 5, 69, 0
4, 302694, Note_on_c, 5, 65, 50
4, 303104, Program_c, 5, 100
4, 303104, Note_off_c, 5, 65, 0
4, 303104, Note_on_c, 5, 64, 50
4, 303787, Note_off_c, 5, 64, 0
4, 303787, Note_on_c, 5, 67, 50
4, 304469, Note_off_c, 5, 67, 0
4, 304469, Note_on_c, 5, 67, 50
4, 305152, Note_off_c, 5, 67, 0
4, 305152, Note_on_c, 5, 65, 50
4, 305835, Note_off_c, 5, 65, 0
4, 305835, Note_on_c, 5, 65, 50
4, 306517, Note_off_c, 5, 65, 0
4, 306517, Note_on_c, 5, 70, 50
4, 307200, Program_c, 5, 100
4, 307200, Note_off_c, 5, 70, 0
4, 307200, Note_on_c, 5, 71, 50
4, 311296, Program_c, 5, 100
4, 315392, Program_c, 5, 100
4, 319488, Program_c, 5, 100
4, 323584, Program_c, 5, 100
4, 323584, Note_off_c, 5, 71, 0
4, 323584, Note_on_c, 5, 69, 50
4, 324608, Note_off_c, 5, 69, 0
4, 324608, Note_on_c, 5, 69, 50
4, 324864, Note_off_c, 5, 69, 0
4, 324864, Note_on_c, 5, 67, 50
4, 325120, Note_off_c, 5, 67, 0
4, 325120, Note_on_c, 5, 66, 50
4, 325376, Note_off_c, 5, 66, 0
4, 325376, Note_on_c, 5, 72, 50
4, 325632, Note_off_c, 5, 72, 0
4, 325632, Note_on_c, 5, 62, 50
4, 325973, Note_off_c, 5, 62, 0
4, 325973, Note_on_c, 5, 69, 50
4, 326315, Note_off_c, 5, 69, 0
4, 326315, Note_on_c, 5, 67, 50
4, 326656, Note_off_c, 5, 67, 0
4, 326656, Note_on_c, 5, 71, 50
4, 326861, Note_off_c, 5, 71, 0
4, 326861, Note_on_c, 5, 67, 50
4, 327066, Note_off_c, 5, 67, 0
4, 327066, Note_on_c, 5, 67, 50
4, 327270, Note_off_c, 5, 67, 0
4, 327270, Note_on_c, 5, 69, 50
4, 327475, Note_off_c, 5, 69, 0
4, 327475, Note_on_c, 5, 66, 50
4, 327680, Program_c, 5, 100
4, 327680, Note_off_c, 5, 66, 0
4, 328192, Note_on_c, 5, 71, 50
4, 328704, Note_off_c, 5, 71, 0
4, 328704, Note_on_c, 5, 64, 50
4, 329045, Note_off_c, 5, 64, 0
4, 329045, Note_on_c, 5, 69, 50
4, 329387, Note_off_c, 5, 69, 0
4, 329387, Note_on_c, 5, 66, 50
4, 329728, Note_off_c, 5, 66, 0
4, 329728, Note_on_c, 5, 78, 50
4, 330138, Note_off_c, 5, 78, 0
4, 330138, Note_on_c, 5, 76, 50
4, 330547, Note_off_c, 5, 76, 0
4, 330547, Note_on_c, 5, 71, 50
4, 330957, Note_off_c, 5, 71, 0
4, 330957, Note_on_c, 5, 74, 50
4, 331366, Note_off_c, 5, 74, 0
4, 331366, Note_on_c, 5, 64, 50
4, 331776, Program_c, 5, 100
4, 331776, Note_off_c, 5, 64, 0
4, 331776, Note_on_c, 5, 78, 50
4, 332186, Note_off_c, 5, 78, 0
4, 332186, Note_on_c, 5, 76, 50
4, 332595, Note_off_c, 5, 76, 0
4, 332595, Note_on_c, 5, 71, 50
4, 333005, Note_off_c, 5, 71, 0
4, 333005, Note_on_c, 5, 74, 50
4, 333414, Note_off_c, 5, 74, 0
4, 333414, Note_on_c, 5, 64, 50
4, 333824, Note_off_c, 5, 64, 0
4, 333824, Note_on_c, 5, 64, 50
4, 335872, Program_c, 5, 100
4, 339968, Program_c, 5, 100
4, 344064, Program_c, 5, 100
4, 344064, Note_off_c, 5, 64, 0
4, 344474, Note_on_c, 5, 66, 50
4, 344883, Note_off_c, 5, 66, 0
4, 344883, Note_on_c, 5, 67, 50
4, 345293, Note_off_c, 5, 67, 0
4, 345293, Note_on_c, 5, 72, 50
4, 345702, Note_off_c, 5, 72, 0
4, 345702, Note_on_c, 5, 71, 50
4, 346112, Note_off_c, 5, 71, 0
4, 346112, Note_on_c, 5, 78, 50
4, 346522, Note_off_c, 5, 78, 0
4, 346522, Note_on_c, 5, 79, 50
4, 346931, Note_off_c, 5, 79, 0
4, 346931, Note_on_c, 5, 76, 50
4, 347341, Note_off_c, 5, 76, 0
4, 347341, Note_on_c, 5, 81, 50
4, 347750, Note_off_c, 5, 81, 0
4, 347750, Note_on_c, 5, 78, 50
4, 348160, Program_c, 5, 100
4, 348160, Note_off_c, 5, 78, 0
4, 348160, Note_on_c, 5, 79, 50
4, 348672, Note_off_c, 5, 79, 0
4, 348672, Note_on_c, 5, 78, 50
4, 349184, Note_off_c, 5, 78, 0
4, 349184, Note_on_c, 5, 78, 50
4, 349696, Note_off_c, 5, 78, 0
4, 349696, Note_on_c, 5, 76, 50
4, 350208, Note_off_c, 5, 76, 0
4, 350208, Note_on_c, 5, 86, 50
4, 350394, Note_off_c, 5, 86, 0
4, 350394, Note_on_c, 5, 81, 50
4, 350580, Note_off_c, 5, 81, 0
4, 350580, Note_on_c, 5, 81, 50
4, 350767, Note_off_c, 5, 81, 0
4, 350767, Note_on_c, 5, 83, 50
4, 350953, Note_off_c, 5, 83, 0
4, 350953, Note_on_c, 5, 84, 50
4, 351139, Note_off_c, 5, 84, 0
4, 351139, Note_on_c, 5, 88, 50
4, 351325, Note_off_c, 5, 88, 0
4, 351325, Note_on_c, 5, 83, 50
4, 351511, Note_off_c, 5, 83, 0
4, 351511, Note_on_c, 5, 83, 50
4, 351698, Note_off_c, 5, 83, 0
4, 351698, Note_on_c, 5, 84, 50
4, 351884, Note_off_c, 5, 84, 0
4, 351884, Note_on_c, 5, 74, 50
4, 352070, Note_off_c, 5, 74, 0
4, 352070, Note_on_c, 5, 81, 50
4, 352256, Program_c, 5, 100
4, 352256, Note_off_c, 5, 81, 0
4, 352256, Note_on_c, 5, 83, 50
4, 352442, Note_off_c, 5, 83, 0
4, 352442, Note_on_c, 5, 76, 50
4, 352628, Note_off_c, 5, 76, 0
4, 352628, Note_on_c, 5, 76, 50
4, 352815, Note_off_c, 5, 76, 0
4, 352815, Note_on_c, 5, 79, 50
4, 353001, Note_off_c, 5, 79, 0
4, 353001, Note_on_c, 5, 79, 50
4, 353187, Note_off_c, 5, 79, 0
4, 353187, Note_on_c, 5, 86, 50
4, 353373, Note_off_c, 5, 86, 0
4, 353373, Note_on_c, 5, 78, 50
4, 353559, Note_off_c, 5, 78, 0
4, 353559, Note_on_c, 5, 78, 50
4, 353746, Note_off_c, 5, 78, 0
4, 353746, Note_on_c, 5, 81, 50
4, 353932, Note_off_c, 5, 81, 0
4, 353932, Note_on_c, 5, 76, 50
4, 354118, Note_off_c, 5, 76, 0
4, 354118, Note_on_c, 5, 71, 50
4, 354304, Note_off_c, 5, 71, 0
4, 354304, Note_on_c, 5, 81, 50
4, 354987, Note_off_c, 5, 81, 0
4, 354987, Note_on_c, 5, 72, 50
4, 355669, Note_off_c, 5, 72, 0
4, 355669, Note_on_c, 5, 72, 50
4, 356352, Program_c, 5, 100
4, 356352, Note_off_c, 5, 72, 0
4, 356352, Note_on_c, 5, 79, 50
4, 360448, Program_c, 5, 100
4, 360448, Note_off_c, 5, 79, 0
4, 361472, Note_on_c, 5, 75, 50
4, 362496, Note_off_c, 5, 75, 0
4, 362496, Note_on_c, 5, 82, 50
4, 363179, Note_off_c, 5, 82, 0
4, 363179, Note_on_c, 5, 80, 50
4, 363861, Note_off_c, 5, 80, 0
4, 363861, Note_on_c, 5, 77, 50
4, 364544, Program_c, 5, 100
4, 364544, Note_off_c, 5, 77, 0
4, 364544, Note_on_c, 5, 77, 50
4, 364954, Note_off_c, 5, 77, 0
4, 364954, Note_on_c, 5, 79, 50
4, 365363, Note_off_c, 5, 79, 0
4, 365363, Note_on_c, 5, 75, 50
4, 365773, Note_off_c, 5, 75, 0
4, 365773, Note_on_c, 5, 70, 50
4, 366182, Note_off_c, 5, 70, 0
4, 366182, Note_on_c, 5, 80, 50
4, 366592, Note_off_c, 5, 80, 0
4, 366592, Note_on_c, 5, 84, 50
4, 366933, Note_off_c, 5, 84, 0
4, 366933, Note_on_c, 5, 82, 50
4, 367275, Note_off_c, 5, 82, 0
4, 367275, Note_on_c, 5, 82, 50
4, 367616, Note_off_c, 5, 82, 0
4, 367616, Note_on_c, 5, 80, 50
4, 367957, Note_off_c, 5, 80, 0
4, 367957, Note_on_c, 5, 80, 50
4, 368299, Note_off_c, 5, 80, 0
4, 368299, Note_on_c, 5, 77, 50
4, 368640, Program_c, 5, 100
4, 368640, Note_off_c, 5, 77, 0
4, 368640, Note_on_c, 5, 82, 50
4, 369012, Note_off_c, 5, 82, 0
4, 369012, Note_on_c, 5, 78, 50
4, 369385, Note_off_c, 5, 78, 0
4, 369385, Note_on_c, 5, 78, 50
4, 369757, Note_off_c, 5, 78, 0
4, 369757, Note_on_c, 5, 80, 50
4, 370129, Note_off_c, 5, 80, 0
4, 370129, Note_on_c, 5, 77, 50
4, 370502, Note_off_c, 5, 77, 0
4, 370502, Note_on_c, 5, 73, 50
4, 370874, Note_off_c, 5, 73, 0
4, 370874, Note_on_c, 5, 73, 50
4, 371247, Note_off_c, 5, 73, 0
4, 371247, Note_on_c, 5, 75, 50
4, 371619, Note_off_c, 5, 75, 0
4, 371619, Note_on_c, 5, 71, 50
4, 371991, Note_off_c, 5, 71, 0
4, 371991, Note_on_c, 5, 80, 50
4, 372364, Note_off_c, 5, 80, 0
4, 372364, Note_on_c, 5, 77, 50
4, 372736, Program_c, 5, 100
4, 372736, Note_off_c, 5, 77, 0
4, 372736, Note_on_c, 5, 77, 50
4, 373108, Note_off_c, 5, 77, 0
4, 373108, Note_on_c, 5, 75, 50
4, 373481, Note_off_c, 5, 75, 0
4, 373481, Note_on_c, 5, 78, 50
4, 373853, Note_off_c, 5, 78, 0
4, 373853, Note_on_c, 5, 77, 50
4, 374225, Note_off_c, 5, 77, 0
4, 374225, Note_on_c, 5, 73, 50
4, 374598, Note_off_c, 5, 73, 0
4, 374598, Note_on_c, 5, 75, 50
4, 374970, Note_off_c, 5, 75, 0
4, 374970, Note_on_c, 5, 80, 50
4, 375343, Note_off_c, 5, 80, 0
4, 375343, Note_on_c, 5, 73, 50
4, 375715, Note_off_c, 5, 73, 0
4, 375715, Note_on_c, 5, 78, 50
4, 376087, Note_off_c, 5, 78, 0
4, 376087, Note_on_c, 5, 65, 50
4, 376460, Note_off_c, 5, 65, 0
4, 376460, Note_on_c, 5, 71, 50
4, 376832, Program_c, 5, 100
4, 376832, Note_off_c, 5, 71, 0
4, 376832, Note_on_c, 5, 68, 50
4, 380928, Program_c, 5, 100
4, 385024, Note_off_c, 5, 68, 0
4, 385024, Note_on_c, 5, 82, 50
4, 385396, Note_off_c, 5, 82, 0
4, 385396, Note_on_c, 5, 78, 50
4, 385769, Note_off_c, 5, 78, 0
4, 385769, Note_on_c, 5, 78, 50
4, 386141, Note_off_c, 5, 78, 0
4, 386141, Note_on_c, 5, 80, 50
4, 386513, Note_off_c, 5, 80, 0
4, 386513, Note_on_c, 5, 77, 50
4, 386886, Note_off_c, 5, 77, 0
4, 386886, Note_on_c, 5, 73, 50
4, 387258, Note_off_c, 5, 73, 0
4, 387258, Note_on_c, 5, 73, 50
4, 387631, Note_off_c, 5, 73, 0
4, 387631, Note_on_c, 5, 75, 50
4, 388003, Note_off_c, 5, 75, 0
4, 388003, Note_on_c, 5, 71, 50
4, 388375, Note_off_c, 5, 71, 0
4, 388375, Note_on_c, 5, 80, 50
4, 388748, Note_off_c, 5, 80, 0
4, 388748, Note_on_c, 5, 77, 50
4, 389120, Note_off_c, 5, 77, 0
4, 389120, Note_on_c, 5, 77, 50
4, 389492, Note_off_c, 5, 77, 0
4, 389492, Note_on_c, 5, 75, 50
4, 389865, Note_off_c, 5, 75, 0
4, 389865, Note_on_c, 5, 78, 50
4, 390237, Note_off_c, 5, 78, 0
4, 390237, Note_on_c, 5, 77, 50
4, 390609, Note_off_c, 5, 77, 0
4, 390609, Note_on_c, 5, 73, 50
4, 390982, Note_off_c, 5, 73, 0
4, 390982, Note_on_c, 5, 75, 50
4, 391354, Note_off_c, 5, 75, 0
4, 391354, Note_on_c, 5, 80, 50
4, 391727, Note_off_c, 5, 80, 0
4, 391727, Note_on_c, 5, 73, 50
4, 392099, Note_off_c, 5, 73, 0
4, 392099, Note_on_c, 5, 78, 50
4, 392471, Note_off_c, 5, 78, 0
4, 392471, Note_on_c, 5, 65, 50
4, 392844, Note_off_c, 5, 65, 0
4, 392844, Note_on_c, 5, 71, 50
4, 393216, Note_off_c, 5, 71, 0
4, 393216, Note_on_c, 5, 68, 50
4, 401408, Program_c, 5, 100
4, 401408, Note_off_c, 5, 68, 0
4, 401408, Note_on_c, 5, 82, 50
4, 401780, Note_off_c, 5, 82, 0
4, 401780, Note_on_c, 5, 78, 50
4, 402153, Note_off_c, 5, 78, 0
4, 402153, Note_on_c, 5, 78, 50
4, 402525, Note_off_c, 5, 78, 0
4, 402525, Note_on_c, 5, 80, 50
4, 402897, Note_off_c, 5, 80, 0
4, 402897, Note_on_c, 5, 77, 50
4, 403270, Note_off_c, 5, 77, 0
4, 403270, Note_on_c, 5, 73, 50
4, 403642, Note_off_c, 5, 73, 0
4, 403642, Note_on_c, 5, 73, 50
4, 404015, Note_off_c, 5, 73, 0
4, 404015, Note_on_c, 5, 75, 50
4, 404387, Note_off_c, 5, 75, 0
4, 404387, Note_on_c, 5, 71, 50
4, 404759, Note_off_c, 5, 71, 0
4, 404759, Note_on_c, 5, 80, 50
4, 405132, Note_off_c, 5, 80, 0
4, 405132, Note_on_c, 5, 77, 50
4, 405504, Program_c, 5, 100
4, 405504, Note_off_c, 5, 77, 0
4, 405504, Note_on_c, 5, 77, 50
4, 405876, Note_off_c, 5, 77, 0
4, 405876, Note_on_c, 5, 75, 50
4, 406249, Note_off_c, 5, 75, 0
4, 406249, Note_on_c, 5, 78, 50
4, 406621, Note_off_c, 5, 78, 0
4, 406621, Note_on_c, 5, 77, 50
4, 406993, Note_off_c, 5, 77, 0
4, 406993, Note_on_c, 5, 73, 50
4, 407366, Note_off_c, 5, 73, 0
4, 407366, Note_on_c, 5, 75, 50
4, 407738, Note_off_c, 5, 75, 0
4, 407738, Note_on_c, 5, 80, 50
4, 408111, Note_off_c, 5, 80, 0
4, 408111, Note_on_c, 5, 73, 50
4, 408483, Note_off_c, 5, 73, 0
4, 408483, Note_on_c, 5, 78, 50
4, 408855, Note_off_c, 5, 78, 0
4, 408855, Note_on_c, 5, 65, 50
4, 409228, Note_off_c, 5, 65, 0
4, 409228, Note_on_c, 5, 71, 50
4, 409600, Program_c, 5, 100
4, 409600, Note_off_c, 5, 71, 0
4, 409600, Note_on_c, 5, 59, 50
4, 413696, Program_c, 5, 100
4, 417792, Note_off_c, 5, 59, 0
4, 417793, End_track
5, 0, Start_track
5, 0, Title_t, "Percussion"
5, 0, Program_c, 1, 11
5, 0, Program_c, 1, 12
5, 0, Note_on_c, 1, 71, 50
5, 128, Note_off_c, 1, 71, 0
5, 128, Note_on_c, 1, 71, 50
5, 256, Note_off_c, 1, 71, 0
5, 256, Note_on_c, 1, 71, 50
5, 384, Note_off_c, 1, 71, 0
5, 384, Note_on_c, 1, 71, 50
5, 512, Note_off_c, 1, 71, 0
5, 512, Note_on_c, 1, 71, 50
5, 640, Note_off_c, 1, 71, 0
5, 640, Note_on_c, 1, 71, 50
5, 768, Note_off_c, 1, 71, 0
5, 768, Note_on_c, 1, 71, 50
5, 896, Note_off_c, 1, 71, 0
5, 896, Note_on_c, 1, 71, 50
5, 1024, Note_off_c, 1, 71, 0
5, 1024, Note_on_c, 1, 71, 50
5, 1152, Note_off_c, 1, 71, 0
5, 1152, Note_on_c, 1, 71, 50
5, 1280, Note_off_c, 1, 71, 0
5, 1280, Note_on_c, 1, 71, 50
5, 1408, Note_off_c, 1, 71, 0
5, 1408, Note_on_c, 1, 71, 50
5, 1536, Note_off_c, 1, 71, 0
5, 1536, Note_on_c, 1, 71, 50
5, 1664, Note_off_c, 1, 71, 0
5, 1664, Note_on_c, 1, 71, 50
5, 1792, Note_off_c, 1, 71, 0
5, 1792, Note_on_c, 1, 71, 50
5, 1920, Note_off_c, 1, 71, 0
5, 1920, Note_on_c, 1, 71, 50
5, 2048, Note_off_c, 1, 71, 0
5, 2048, Note_on_c, 1, 71, 50
5, 2176, Note_off_c, 1, 71, 0
5, 2176, Note_on_c, 1, 71, 50
5, 2304, Note_off_c, 1, 71, 0
5, 2304, Note_on_c, 1, 71, 50
5, 2432, Note_off_c, 1, 71, 0
5, 2432, Note_on_c, 1, 71, 50
5, 2560, Note_off_c, 1, 71, 0
5, 2560, Note_on_c, 1, 71, 50
5, 2688, Note_off_c, 1, 71, 0
5, 2688, Note_on_c, 1, 71, 50
5, 2816, Note_off_c, 1, 71, 0
5, 2816, Note_on_c, 1, 71, 50
5, 2944, Note_off_c, 1, 71, 0
5, 2944, Note_on_c, 1, 71, 50
5, 3072, Note_off_c, 1, 71, 0
5, 3072, Note_on_c, 1, 71, 50
5, 3200, Note_off_c, 1, 71, 0
5, 3200, Note_on_c, 1, 71, 50
5, 3328, Note_off_c, 1, 71, 0
5, 3328, Note_on_c, 1, 71, 50
5, 3456, Note_off_c, 1, 71, 0
5, 3456, Note_on_c, 1, 71, 50
5, 3584, Note_off_c, 1, 71, 0
5, 3584, Note_on_c, 1, 71, 50
5, 3712, Note_off_c, 1, 71, 0
5, 3712, Note_on_c, 1, 71, 50
5, 3840, Note_off_c, 1, 71, 0
5, 3840, Note_on_c, 1, 71, 50
5, 3968, Note_off_c, 1, 71, 0
5, 3968, Note_on_c, 1, 71, 50
5, 3968, Note_on_c, 1, 76, 50
5, 4096, Program_c, 1, 12
5, 4096, Note_off_c, 1, 71, 0
5, 4096, Note_off_c, 1, 76, 0
5, 4096, Note_on_c, 1, 78, 50
5, 4608, Note_off_c, 1, 78, 0
5, 4608, Note_on_c, 1, 78, 50
5, 5120, Note_off_c, 1, 78, 0
5, 5120, Note_on_c, 1, 73, 50
5, 5888, Note_off_c, 1, 73, 0
5, 5888, Note_on_c, 1, 71, 50
5, 6144, Note_off_c, 1, 71, 0
5, 6144, Note_on_c, 1, 81, 50
5, 7424, Note_off_c, 1, 81, 0
5, 7424, Note_on_c, 1, 84, 50
5, 7680, Note_off_c, 1, 84, 0
5, 7680, Note_on_c, 1, 79, 50
5, 8192, Program_c, 1, 12
5, 8192, Note_off_c, 1, 79, 0
5, 8192, Note_on_c, 1, 76, 50
5, 8448, Note_off_c, 1, 76, 0
5, 8448, Note_on_c, 1, 81, 50
5, 8704, Note_off_c, 1, 81, 0
5, 8704, Note_on_c, 1, 81, 50
5, 9344, Note_off_c, 1, 81, 0
5, 9344, Note_on_c, 1, 81, 50
5, 9472, Note_off_c, 1, 81, 0
5, 9472, Note_on_c, 1, 81, 50
5, 9600, Note_off_c, 1, 81, 0
5, 9600, Note_on_c, 1, 81, 50
5, 9728, Note_off_c, 1, 81, 0
5, 9728, Note_on_c, 1, 81, 50
5, 9856, Note_off_c, 1, 81, 0
5, 9856, Note_on_c, 1, 81, 50
5, 9984, Note_off_c, 1, 81, 0
5, 9984, Note_on_c, 1, 81, 50
5, 10112, Note_off_c, 1, 81, 0
5, 10112, Note_on_c, 1, 81, 50
5, 10240, Note_off_c, 1, 81, 0
5, 10240, Note_on_c, 1, 81, 50
5, 10368, Note_off_c, 1, 81, 0
5, 10368, Note_on_c, 1, 81, 50
5, 10496, Note_off_c, 1, 81, 0
5, 10496, Note_on_c, 1, 81, 50
5, 10624, Note_off_c, 1, 81, 0
5, 10624, Note_on_c, 1, 81, 50
5, 10752, Note_off_c, 1, 81, 0
5, 10752, Note_on_c, 1, 81, 50
5, 10880, Note_off_c, 1, 81, 0
5, 10880, Note_on_c, 1, 81, 50
5, 11008, Note_off_c, 1, 81, 0
5, 11008, Note_on_c, 1, 81, 50
5, 11136, Note_off_c, 1, 81, 0
5, 11136, Note_on_c, 1, 81, 50
5, 11264, Note_off_c, 1, 81, 0
5, 11264, Note_on_c, 1, 81, 50
5, 11392, Note_off_c, 1, 81, 0
5, 11392, Note_on_c, 1, 81, 50
5, 11520, Note_off_c, 1, 81, 0
5, 11520, Note_on_c, 1, 81, 50
5, 11648, Note_off_c, 1, 81, 0
5, 11648, Note_on_c, 1, 81, 50
5, 11776, Note_off_c, 1, 81, 0
5, 11776, Note_on_c, 1, 81, 50
5, 11904, Note_off_c, 1, 81, 0
5, 11904, Note_on_c, 1, 81, 50
5, 12032, Note_off_c, 1, 81, 0
5, 12032, Note_on_c, 1, 81, 50
5, 12160, Note_off_c, 1, 81, 0
5, 12160, Note_on_c, 1, 81, 50
5, 12288, Program_c, 1, 12
5, 12288, Note_off_c, 1, 81, 0
5, 12800, Note_on_c, 1, 76, 50
5, 13056, Note_off_c, 1, 76, 0
5, 13056, Note_on_c, 1, 81, 50
5, 13312, Note_off_c, 1, 81, 0
5, 13312, Note_on_c, 1, 81, 50
5, 13440, Note_off_c, 1, 81, 0
5, 13440, Note_on_c, 1, 81, 50
5, 13568, Note_off_c, 1, 81, 0
5, 13568, Note_on_c, 1, 81, 50
5, 13696, Note_off_c, 1, 81, 0
5, 13696, Note_on_c, 1, 81, 50
5, 13824, Note_off_c, 1, 81, 0
5, 13824, Note_on_c, 1, 81, 50
5, 13952, Note_off_c, 1, 81, 0
5, 13952, Note_on_c, 1, 81, 50
5, 14080, Note_off_c, 1, 81, 0
5, 14080, Note_on_c, 1, 81, 50
5, 14208, Note_off_c, 1, 81, 0
5, 14208, Note_on_c, 1, 81, 50
5, 14336, Note_off_c, 1, 81, 0
5, 14336, Note_on_c, 1, 81, 50
5, 14464, Note_off_c, 1, 81, 0
5, 14464, Note_on_c, 1, 81, 50
5, 14592, Note_off_c, 1, 81, 0
5, 14592, Note_on_c, 1, 81, 50
5, 14720, Note_off_c, 1, 81, 0
5, 14720, Note_on_c, 1, 81, 50
5, 14848, Note_off_c, 1, 81, 0
5, 14848, Note_on_c, 1, 81, 50
5, 14976, Note_off_c, 1, 81, 0
5, 14976, Note_on_c, 1, 81, 50
5, 15104, Note_off_c, 1, 81, 0
5, 15104, Note_on_c, 1, 81, 50
5, 15232, Note_off_c, 1, 81, 0
5, 15232, Note_on_c, 1, 81, 50
5, 15360, Note_off_c, 1, 81, 0
5, 15360, Note_on_c, 1, 81, 50
5, 15872, Note_off_c, 1, 81, 0
5, 15872, Note_on_c, 1, 78, 50
5, 16384, Program_c, 1, 12
5, 16384, Note_off_c, 1, 78, 0
5, 16384, Note_on_c, 1, 79, 50
5, 16725, Note_off_c, 1, 79, 0
5, 16725, Note_on_c, 1, 84, 50
5, 17067, Note_off_c, 1, 84, 0
5, 17067, Note_on_c, 1, 77, 50
5, 17408, Note_off_c, 1, 77, 0
5, 17408, Note_on_c, 1, 81, 50
5, 17536, Note_off_c, 1, 81, 0
5, 17536, Note_on_c, 1, 81, 50
5, 17664, Note_off_c, 1, 81, 0
5, 17664, Note_on_c, 1, 81, 50
5, 17792, Note_off_c, 1, 81, 0
5, 17792, Note_on_c, 1, 81, 50
5, 17920, Note_off_c, 1, 81, 0
5, 17920, Note_on_c, 1, 81, 50
5, 18048, Note_off_c, 1, 81, 0
5, 18048, Note_on_c, 1, 81, 50
5, 18176, Note_off_c, 1, 81, 0
5, 18176, Note_on_c, 1, 81, 50
5, 18304, Note_off_c, 1, 81, 0
5, 18304, Note_on_c, 1, 81, 50
5, 18432, Note_off_c, 1, 81, 0
5, 18432, Note_on_c, 1, 81, 50
5, 18560, Note_off_c, 1, 81, 0
5, 18560, Note_on_c, 1, 81, 50
5, 18688, Note_off_c, 1, 81, 0
5, 18688, Note_on_c, 1, 81, 50
5, 18816, Note_off_c, 1, 81, 0
5, 18816, Note_on_c, 1, 81, 50
5, 18944, Note_off_c, 1, 81, 0
5, 18944, Note_on_c, 1, 81, 50
5, 19072, Note_off_c, 1, 81, 0
5, 19072, Note_on_c, 1, 81, 50
5, 19200, Note_off_c, 1, 81, 0
5, 19200, Note_on_c, 1, 81, 50
5, 19328, Note_off_c, 1, 81, 0
5, 19328, Note_on_c, 1, 81, 50
5, 19456, Note_off_c, 1, 81, 0
5, 19456, Note_on_c, 1, 81, 50
5, 19584, Note_off_c, 1, 81, 0
5, 19584, Note_on_c, 1, 81, 50
5, 19712, Note_off_c, 1, 81, 0
5, 19712, Note_on_c, 1, 81, 50
5, 19840, Note_off_c, 1, 81, 0
5, 19840, Note_on_c, 1, 81, 50
5, 19968, Note_off_c, 1, 81, 0
5, 19968, Note_on_c, 1, 81, 50
5, 20096, Note_off_c, 1, 81, 0
5, 20096, Note_on_c, 1, 81, 50
5, 20224, Note_off_c, 1, 81, 0
5, 20224, Note_on_c, 1, 81, 50
5, 20352, Note_off_c, 1, 81, 0
5, 20352, Note_on_c, 1, 81, 50
5, 20352, Note_on_c, 1, 81, 50
5, 20480, Program_c, 1, 12
5, 20480, Note_off_c, 1, 81, 0
5, 20480, Note_off_c, 1, 81, 0
5, 20480, Note_on_c, 1, 76, 50
5, 21163, Note_off_c, 1, 76, 0
5, 21163, Note_on_c, 1, 74, 50
5, 21504, Note_off_c, 1, 74, 0
5, 21504, Note_on_c, 1, 84, 50
5, 21632, Note_off_c, 1, 84, 0
5, 21632, Note_on_c, 1, 84, 50
5, 21760, Note_off_c, 1, 84, 0
5, 21760, Note_on_c, 1, 84, 50
5, 21888, Note_off_c, 1, 84, 0
5, 21888, Note_on_c, 1, 84, 50
5, 22016, Note_off_c, 1, 84, 0
5, 22016, Note_on_c, 1, 84, 50
5, 22144, Note_off_c, 1, 84, 0
5, 22144, Note_on_c, 1, 84, 50
5, 22272, Note_off_c, 1, 84, 0
5, 22272, Note_on_c, 1, 84, 50
5, 22400, Note_off_c, 1, 84, 0
5, 22400, Note_on_c, 1, 84, 50
5, 22528, Note_off_c, 1, 84, 0
5, 22528, Note_on_c, 1, 84, 50
5, 22656, Note_off_c, 1, 84, 0
5, 22656, Note_on_c, 1, 84, 50
5, 22784, Note_off_c, 1, 84, 0
5, 22784, Note_on_c, 1, 84, 50
5, 22912, Note_off_c, 1, 84, 0
5, 22912, Note_on_c, 1, 84, 50
5, 23040, Note_off_c, 1, 84, 0
5, 23040, Note_on_c, 1, 84, 50
5, 23168, Note_off_c, 1, 84, 0
5, 23168, Note_on_c, 1, 84, 50
5, 23296, Note_off_c, 1, 84, 0
5, 23296, Note_on_c, 1, 84, 50
5, 23424, Note_off_c, 1, 84, 0
5, 23424, Note_on_c, 1, 84, 50
5, 23552, Note_off_c, 1, 84, 0
5, 23552, Note_on_c, 1, 84, 50
5, 23680, Note_off_c, 1, 84, 0
5, 23680, Note_on_c, 1, 84, 50
5, 23808, Note_off_c, 1, 84, 0
5, 23808, Note_on_c, 1, 84, 50
5, 23936, Note_off_c, 1, 84, 0
5, 23936, Note_on_c, 1, 84, 50
5, 24064, Note_off_c, 1, 84, 0
5, 24064, Note_on_c, 1, 84, 50
5, 24192, Note_off_c, 1, 84, 0
5, 24192, Note_on_c, 1, 84, 50
5, 24320, Note_off_c, 1, 84, 0
5, 24320, Note_on_c, 1, 84, 50
5, 24448, Note_off_c, 1, 84, 0
5, 24448, Note_on_c, 1, 84, 50
5, 24576, Program_c, 1, 12
5, 24576, Note_off_c, 1, 84, 0
5, 24576, Note_on_c, 1, 84, 50
5, 24832, Note_off_c, 1, 84, 0
5, 24832, Note_on_c, 1, 84, 50
5, 24960, Note_off_c, 1, 84, 0
5, 24960, Note_on_c, 1, 84, 50
5, 25088, Note_off_c, 1, 84, 0
5, 25088, Note_on_c, 1, 84, 50
5, 25216, Note_off_c, 1, 84, 0
5, 25216, Note_on_c, 1, 84, 50
5, 25344, Note_off_c, 1, 84, 0
5, 25344, Note_on_c, 1, 84, 50
5, 25472, Note_off_c, 1, 84, 0
5, 25472, Note_on_c, 1, 84, 50
5, 25600, Note_off_c, 1, 84, 0
5, 25600, Note_on_c, 1, 84, 50
5, 25728, Note_off_c, 1, 84, 0
5, 25728, Note_on_c, 1, 84, 50
5, 25856, Note_off_c, 1, 84, 0
5, 25856, Note_on_c, 1, 84, 50
5, 25984, Note_off_c, 1, 84, 0
5, 25984, Note_on_c, 1, 84, 50
5, 26368, Note_off_c, 1, 84, 0
5, 26368, Note_on_c, 1, 84, 50
5, 26624, Note_off_c, 1, 84, 0
5, 26624, Note_on_c, 1, 81, 50
5, 26752, Note_off_c, 1, 81, 0
5, 26752, Note_on_c, 1, 81, 50
5, 26880, Note_off_c, 1, 81, 0
5, 26880, Note_on_c, 1, 81, 50
5, 27008, Note_off_c, 1, 81, 0
5, 27008, Note_on_c, 1, 81, 50
5, 27136, Note_off_c, 1, 81, 0
5, 27136, Note_on_c, 1, 81, 50
5, 27264, Note_off_c, 1, 81, 0
5, 27264, Note_on_c, 1, 81, 50
5, 27392, Note_off_c, 1, 81, 0
5, 27392, Note_on_c, 1, 81, 50
5, 27520, Note_off_c, 1, 81, 0
5, 27520, Note_on_c, 1, 81, 50
5, 27648, Note_off_c, 1, 81, 0
5, 27648, Note_on_c, 1, 81, 50
5, 27776, Note_off_c, 1, 81, 0
5, 27776, Note_on_c, 1, 81, 50
5, 27904, Note_off_c, 1, 81, 0
5, 27904, Note_on_c, 1, 81, 50
5, 28032, Note_off_c, 1, 81, 0
5, 28032, Note_on_c, 1, 81, 50
5, 28160, Note_off_c, 1, 81, 0
5, 28160, Note_on_c, 1, 79, 50
5, 28288, Note_off_c, 1, 79, 0
5, 28288, Note_on_c, 1, 79, 50
5, 28416, Note_off_c, 1, 79, 0
5, 28416, Note_on_c, 1, 79, 50
5, 28544, Note_off_c, 1, 79, 0
5, 28544, Note_on_c, 1, 79, 50
5, 28672, Program_c, 1, 12
5, 28672, Note_off_c, 1, 79, 0
5, 28672, Note_on_c, 1, 79, 50
5, 28800, Note_off_c, 1, 79, 0
5, 28800, Note_on_c, 1, 79, 50
5, 28928, Note_off_c, 1, 79, 0
5, 28928, Note_on_c, 1, 79, 50
5, 29056, Note_off_c, 1, 79, 0
5, 29056, Note_on_c, 1, 79, 50
5, 29184, Note_off_c, 1, 79, 0
5, 29184, Note_on_c, 1, 79, 50
5, 29312, Note_off_c, 1, 79, 0
5, 29312, Note_on_c, 1, 79, 50
5, 29440, Note_off_c, 1, 79, 0
5, 29440, Note_on_c, 1, 79, 50
5, 29568, Note_off_c, 1, 79, 0
5, 29568, Note_on_c, 1, 79, 50
5, 29696, Note_off_c, 1, 79, 0
5, 29696, Note_on_c, 1, 77, 50
5, 29824, Note_off_c, 1, 77, 0
5, 29824, Note_on_c, 1, 77, 50
5, 29952, Note_off_c, 1, 77, 0
5, 29952, Note_on_c, 1, 77, 50
5, 30080, Note_off_c, 1, 77, 0
5, 30080, Note_on_c, 1, 77, 50
5, 30208, Note_off_c, 1, 77, 0
5, 30208, Note_on_c, 1, 77, 50
5, 30336, Note_off_c, 1, 77, 0
5, 30336, Note_on_c, 1, 77, 50
5, 30464, Note_off_c, 1, 77, 0
5, 30464, Note_on_c, 1, 77, 50
5, 30592, Note_off_c, 1, 77, 0
5, 30592, Note_on_c, 1, 77, 50
5, 30720, Note_off_c, 1, 77, 0
5, 30720, Note_on_c, 1, 77, 50
5, 30848, Note_off_c, 1, 77, 0
5, 30848, Note_on_c, 1, 77, 50
5, 30976, Note_off_c, 1, 77, 0
5, 30976, Note_on_c, 1, 77, 50
5, 31104, Note_off_c, 1, 77, 0
5, 31104, Note_on_c, 1, 77, 50
5, 31232, Note_off_c, 1, 77, 0
5, 31232, Note_on_c, 1, 74, 50
5, 31360, Note_off_c, 1, 74, 0
5, 31360, Note_on_c, 1, 74, 50
5, 31488, Note_off_c, 1, 74, 0
5, 31488, Note_on_c, 1, 74, 50
5, 31616, Note_off_c, 1, 74, 0
5, 31616, Note_on_c, 1, 74, 50
5, 31744, Note_off_c, 1, 74, 0
5, 31744, Note_on_c, 1, 74, 50
5, 31872, Note_off_c, 1, 74, 0
5, 31872, Note_on_c, 1, 74, 50
5, 32000, Note_off_c, 1, 74, 0
5, 32000, Note_on_c, 1, 74, 50
5, 32128, Note_off_c, 1, 74, 0
5, 32128, Note_on_c, 1, 74, 50
5, 32256, Note_off_c, 1, 74, 0
5, 32256, Note_on_c, 1, 74, 50
5, 32384, Note_off_c, 1, 74, 0
5, 32384, Note_on_c, 1, 74, 50
5, 32512, Note_off_c, 1, 74, 0
5, 32512, Note_on_c, 1, 74, 50
5, 32640, Note_off_c, 1, 74, 0
5, 32640, Note_on_c, 1, 74, 50
5, 32768, Program_c, 1, 12
5, 32768, Note_off_c, 1, 74, 0
5, 32768, Note_on_c, 1, 73, 50
5, 34304, Note_off_c, 1, 73, 0
5, 34304, Note_on_c, 1, 74, 50
5, 34560, Note_off_c, 1, 74, 0
5, 34560, Note_on_c, 1, 79, 50
5, 34816, Note_off_c, 1, 79, 0
5, 34816, Note_on_c, 1, 76, 50
5, 34944, Note_off_c, 1, 76, 0
5, 34944, Note_on_c, 1, 76, 50
5, 35072, Note_off_c, 1, 76, 0
5, 35072, Note_on_c, 1, 76, 50
5, 35200, Note_off_c, 1, 76, 0
5, 35200, Note_on_c, 1, 76, 50
5, 35328, Note_off_c, 1, 76, 0
5, 35328, Note_on_c, 1, 76, 50
5, 35456, Note_off_c, 1, 76, 0
5, 35456, Note_on_c, 1, 76, 50
5, 35584, Note_off_c, 1, 76, 0
5, 35584, Note_on_c, 1, 76, 50
5, 35712, Note_off_c, 1, 76, 0
5, 35712, Note_on_c, 1, 76, 50
5, 35840, Note_off_c, 1, 76, 0
5, 35840, Note_on_c, 1, 76, 50
5, 35968, Note_off_c, 1, 76, 0
5, 35968, Note_on_c, 1, 76, 50
5, 36096, Note_off_c, 1, 76, 0
5, 36096, Note_on_c, 1, 76, 50
5, 36224, Note_off_c, 1, 76, 0
5, 36224, Note_on_c, 1, 76, 50
5, 36352, Note_off_c, 1, 76, 0
5, 36352, Note_on_c, 1, 76, 50
5, 36480, Note_off_c, 1, 76, 0
5, 36480, Note_on_c, 1, 76, 50
5, 36608, Note_off_c, 1, 76, 0
5, 36608, Note_on_c, 1, 76, 50
5, 36736, Note_off_c, 1, 76, 0
5, 36736, Note_on_c, 1, 76, 50
5, 36864, Program_c, 1, 12
5, 36864, Note_off_c, 1, 76, 0
5, 36864, Note_on_c, 1, 76, 50
5, 36992, Note_off_c, 1, 76, 0
5, 36992, Note_on_c, 1, 76, 50
5, 37120, Note_off_c, 1, 76, 0
5, 37120, Note_on_c, 1, 76, 50
5, 37248, Note_off_c, 1, 76, 0
5, 37248, Note_on_c, 1, 76, 50
5, 37376, Note_off_c, 1, 76, 0
5, 37376, Note_on_c, 1, 76, 50
5, 37504, Note_off_c, 1, 76, 0
5, 37504, Note_on_c, 1, 76, 50
5, 37632, Note_off_c, 1, 76, 0
5, 37632, Note_on_c, 1, 76, 50
5, 37760, Note_off_c, 1, 76, 0
5, 37760, Note_on_c, 1, 76, 50
5, 37888, Note_off_c, 1, 76, 0
5, 37888, Note_on_c, 1, 76, 50
5, 38016, Note_off_c, 1, 76, 0
5, 38016, Note_on_c, 1, 76, 50
5, 38144, Note_off_c, 1, 76, 0
5, 38144, Note_on_c, 1, 76, 50
5, 38272, Note_off_c, 1, 76, 0
5, 38272, Note_on_c, 1, 76, 50
5, 38400, Note_off_c, 1, 76, 0
5, 38400, Note_on_c, 1, 76, 50
5, 38528, Note_off_c, 1, 76, 0
5, 38528, Note_on_c, 1, 76, 50
5, 38656, Note_off_c, 1, 76, 0
5, 38656, Note_on_c, 1, 76, 50
5, 38784, Note_off_c, 1, 76, 0
5, 38784, Note_on_c, 1, 76, 50
5, 38912, Note_off_c, 1, 76, 0
5, 38912, Note_on_c, 1, 76, 50
5, 39040, Note_off_c, 1, 76, 0
5, 39040, Note_on_c, 1, 76, 50
5, 39168, Note_off_c, 1, 76, 0
5, 39168, Note_on_c, 1, 76, 50
5, 39296, Note_off_c, 1, 76, 0
5, 39296, Note_on_c, 1, 76, 50
5, 39424, Note_off_c, 1, 76, 0
5, 39424, Note_on_c, 1, 76, 50
5, 39552, Note_off_c, 1, 76, 0
5, 39552, Note_on_c, 1, 76, 50
5, 39680, Note_off_c, 1, 76, 0
5, 39680, Note_on_c, 1, 76, 50
5, 39808, Note_off_c, 1, 76, 0
5, 39808, Note_on_c, 1, 76, 50
5, 39936, Note_off_c, 1, 76, 0
5, 39936, Note_on_c, 1, 76, 50
5, 40064, Note_off_c, 1, 76, 0
5, 40064, Note_on_c, 1, 76, 50
5, 40192, Note_off_c, 1, 76, 0
5, 40192, Note_on_c, 1, 76, 50
5, 40320, Note_off_c, 1, 76, 0
5, 40320, Note_on_c, 1, 76, 50
5, 40448, Note_off_c, 1, 76, 0
5, 40448, Note_on_c, 1, 76, 50
5, 40576, Note_off_c, 1, 76, 0
5, 40576, Note_on_c, 1, 76, 50
5, 40704, Note_off_c, 1, 76, 0
5, 40704, Note_on_c, 1, 76, 50
5, 40832, Note_off_c, 1, 76, 0
5, 40832, Note_on_c, 1, 76, 50
5, 40960, Program_c, 1, 12
5, 40960, Note_off_c, 1, 76, 0
5, 40960, Note_on_c, 1, 76, 50
5, 41088, Note_off_c, 1, 76, 0
5, 41088, Note_on_c, 1, 76, 50
5, 41216, Note_off_c, 1, 76, 0
5, 41216, Note_on_c, 1, 76, 50
5, 41344, Note_off_c, 1, 76, 0
5, 41344, Note_on_c, 1, 76, 50
5, 41472, Note_off_c, 1, 76, 0
5, 41472, Note_on_c, 1, 76, 50
5, 41600, Note_off_c, 1, 76, 0
5, 41600, Note_on_c, 1, 76, 50
5, 41728, Note_off_c, 1, 76, 0
5, 41728, Note_on_c, 1, 76, 50
5, 41856, Note_off_c, 1, 76, 0
5, 41856, Note_on_c, 1, 76, 50
5, 41984, Note_off_c, 1, 76, 0
5, 41984, Note_on_c, 1, 76, 50
5, 42112, Note_off_c, 1, 76, 0
5, 42112, Note_on_c, 1, 76, 50
5, 42240, Note_off_c, 1, 76, 0
5, 42240, Note_on_c, 1, 76, 50
5, 42368, Note_off_c, 1, 76, 0
5, 42368, Note_on_c, 1, 76, 50
5, 42496, Note_off_c, 1, 76, 0
5, 42496, Note_on_c, 1, 76, 50
5, 42624, Note_off_c, 1, 76, 0
5, 42624, Note_on_c, 1, 76, 50
5, 42752, Note_off_c, 1, 76, 0
5, 42752, Note_on_c, 1, 76, 50
5, 42880, Note_off_c, 1, 76, 0
5, 42880, Note_on_c, 1, 76, 50
5, 43008, Note_off_c, 1, 76, 0
5, 43008, Note_on_c, 1, 76, 50
5, 43136, Note_off_c, 1, 76, 0
5, 43136, Note_on_c, 1, 76, 50
5, 43264, Note_off_c, 1, 76, 0
5, 43264, Note_on_c, 1, 76, 50
5, 43392, Note_off_c, 1, 76, 0
5, 43392, Note_on_c, 1, 76, 50
5, 43520, Note_off_c, 1, 76, 0
5, 43520, Note_on_c, 1, 76, 50
5, 43648, Note_off_c, 1, 76, 0
5, 43648, Note_on_c, 1, 76, 50
5, 43776, Note_off_c, 1, 76, 0
5, 43776, Note_on_c, 1, 76, 50
5, 43904, Note_off_c, 1, 76, 0
5, 43904, Note_on_c, 1, 76, 50
5, 44032, Note_off_c, 1, 76, 0
5, 44032, Note_on_c, 1, 76, 50
5, 44160, Note_off_c, 1, 76, 0
5, 44160, Note_on_c, 1, 76, 50
5, 44288, Note_off_c, 1, 76, 0
5, 44288, Note_on_c, 1, 76, 50
5, 44416, Note_off_c, 1, 76, 0
5, 44416, Note_on_c, 1, 76, 50
5, 44544, Note_off_c, 1, 76, 0
5, 44544, Note_on_c, 1, 76, 50
5, 44672, Note_off_c, 1, 76, 0
5, 44672, Note_on_c, 1, 76, 50
5, 44800, Note_off_c, 1, 76, 0
5, 44800, Note_on_c, 1, 76, 50
5, 44928, Note_off_c, 1, 76, 0
5, 44928, Note_on_c, 1, 76, 50
5, 45056, Program_c, 1, 12
5, 45056, Note_off_c, 1, 76, 0
5, 45056, Note_on_c, 1, 76, 50
5, 45184, Note_off_c, 1, 76, 0
5, 45184, Note_on_c, 1, 76, 50
5, 45312, Note_off_c, 1, 76, 0
5, 45312, Note_on_c, 1, 76, 50
5, 45440, Note_off_c, 1, 76, 0
5, 45440, Note_on_c, 1, 76, 50
5, 45568, Note_off_c, 1, 76, 0
5, 45568, Note_on_c, 1, 76, 50
5, 45696, Note_off_c, 1, 76, 0
5, 45696, Note_on_c, 1, 76, 50
5, 45824, Note_off_c, 1, 76, 0
5, 45824, Note_on_c, 1, 76, 50
5, 45952, Note_off_c, 1, 76, 0
5, 45952, Note_on_c, 1, 76, 50
5, 46080, Note_off_c, 1, 76, 0
5, 46080, Note_on_c, 1, 76, 50
5, 46208, Note_off_c, 1, 76, 0
5, 46208, Note_on_c, 1, 76, 50
5, 46336, Note_off_c, 1, 76, 0
5, 46336, Note_on_c, 1, 76, 50
5, 46464, Note_off_c, 1, 76, 0
5, 46464, Note_on_c, 1, 76, 50
5, 46592, Note_off_c, 1, 76, 0
5, 46592, Note_on_c, 1, 76, 50
5, 46720, Note_off_c, 1, 76, 0
5, 46720, Note_on_c, 1, 76, 50
5, 46848, Note_off_c, 1, 76, 0
5, 46848, Note_on_c, 1, 76, 50
5, 46976, Note_off_c, 1, 76, 0
5, 46976, Note_on_c, 1, 76, 50
5, 47104, Note_off_c, 1, 76, 0
5, 47104, Note_on_c, 1, 76, 50
5, 47232, Note_off_c, 1, 76, 0
5, 47232, Note_on_c, 1, 76, 50
5, 47360, Note_off_c, 1, 76, 0
5, 47360, Note_on_c, 1, 76, 50
5, 47488, Note_off_c, 1, 76, 0
5, 47488, Note_on_c, 1, 76, 50
5, 47616, Note_off_c, 1, 76, 0
5, 47616, Note_on_c, 1, 76, 50
5, 47744, Note_off_c, 1, 76, 0
5, 47744, Note_on_c, 1, 76, 50
5, 47872, Note_off_c, 1, 76, 0
5, 47872, Note_on_c, 1, 76, 50
5, 48000, Note_off_c, 1, 76, 0
5, 48000, Note_on_c, 1, 76, 50
5, 48128, Note_off_c, 1, 76, 0
5, 49152, Program_c, 1, 12
5, 49152, Note_on_c, 1, 72, 50
5, 49664, Note_off_c, 1, 72, 0
5, 49664, Note_on_c, 1, 76, 50
5, 50176, Note_off_c, 1, 76, 0
5, 50176, Note_on_c, 1, 74, 50
5, 50688, Note_off_c, 1, 74, 0
5, 50688, Note_on_c, 1, 77, 50
5, 51200, Note_off_c, 1, 77, 0
5, 51200, Note_on_c, 1, 76, 50
5, 51712, Note_off_c, 1, 76, 0
5, 51712, Note_on_c, 1, 67, 50
5, 52224, Note_off_c, 1, 67, 0
5, 52224, Note_on_c, 1, 77, 50
5, 52736, Note_off_c, 1, 77, 0
5, 52736, Note_on_c, 1, 74, 50
5, 53248, Program_c, 1, 12
5, 53248, Note_off_c, 1, 74, 0
5, 53248, Note_on_c, 1, 81, 50
5, 53931, Note_off_c, 1, 81, 0
5, 53931, Note_on_c, 1, 84, 50
5, 54613, Note_off_c, 1, 84, 0
5, 54613, Note_on_c, 1, 76, 50
5, 55296, Note_off_c, 1, 76, 0
5, 55296, Note_on_c, 1, 76, 50
5, 55706, Note_off_c, 1, 76, 0
5, 55706, Note_on_c, 1, 77, 50
5, 56115, Note_off_c, 1, 77, 0
5, 56115, Note_on_c, 1, 76, 50
5, 56525, Note_off_c, 1, 76, 0
5, 56525, Note_on_c, 1, 74, 50
5, 56934, Note_off_c, 1, 74, 0
5, 56934, Note_on_c, 1, 69, 50
5, 57344, Program_c, 1, 12
5, 57344, Note_off_c, 1, 69, 0
5, 57344, Note_on_c, 1, 70, 50
5, 57637, Note_off_c, 1, 70, 0
5, 57637, Note_on_c, 1, 72, 50
5, 57929, Note_off_c, 1, 72, 0
5, 57929, Note_on_c, 1, 72, 50
5, 58222, Note_off_c, 1, 72, 0
5, 58222, Note_on_c, 1, 74, 50
5, 58514, Note_off_c, 1, 74, 0
5, 58514, Note_on_c, 1, 74, 50
5, 58807, Note_off_c, 1, 74, 0
5, 58807, Note_on_c, 1, 76, 50
5, 59099, Note_off_c, 1, 76, 0
5, 59099, Note_on_c, 1, 77, 50
5, 59392, Note_off_c, 1, 77, 0
5, 59392, Note_on_c, 1, 81, 50
5, 59685, Note_off_c, 1, 81, 0
5, 59685, Note_on_c, 1, 67, 50
5, 59977, Note_off_c, 1, 67, 0
5, 59977, Note_on_c, 1, 67, 50
5, 60270, Note_off_c, 1, 67, 0
5, 60270, Note_on_c, 1, 74, 50
5, 60562, Note_off_c, 1, 74, 0
5, 60562, Note_on_c, 1, 65, 50
5, 60855, Note_off_c, 1, 65, 0
5, 60855, Note_on_c, 1, 65, 50
5, 61147, Note_off_c, 1, 65, 0
5, 61147, Note_on_c, 1, 64, 50
5, 61440, Program_c, 1, 12
5, 61440, Note_off_c, 1, 64, 0
5, 61440, Note_on_c, 1, 67, 50
5, 61568, Note_off_c, 1, 67, 0
5, 61568, Note_on_c, 1, 67, 50
5, 61696, Note_off_c, 1, 67, 0
5, 61696, Note_on_c, 1, 67, 50
5, 61824, Note_off_c, 1, 67, 0
5, 61824, Note_on_c, 1, 67, 50
5, 61952, Note_off_c, 1, 67, 0
5, 61952, Note_on_c, 1, 67, 50
5, 62080, Note_off_c, 1, 67, 0
5, 62080, Note_on_c, 1, 67, 50
5, 62208, Note_off_c, 1, 67, 0
5, 62208, Note_on_c, 1, 67, 50
5, 62336, Note_off_c, 1, 67, 0
5, 62336, Note_on_c, 1, 67, 50
5, 62464, Note_off_c, 1, 67, 0
5, 62464, Note_on_c, 1, 67, 50
5, 62592, Note_off_c, 1, 67, 0
5, 62592, Note_on_c, 1, 67, 50
5, 62720, Note_off_c, 1, 67, 0
5, 62720, Note_on_c, 1, 67, 50
5, 62848, Note_off_c, 1, 67, 0
5, 62848, Note_on_c, 1, 67, 50
5, 62976, Note_off_c, 1, 67, 0
5, 62976, Note_on_c, 1, 67, 50
5, 63104, Note_off_c, 1, 67, 0
5, 63104, Note_on_c, 1, 67, 50
5, 63232, Note_off_c, 1, 67, 0
5, 63232, Note_on_c, 1, 67, 50
5, 63360, Note_off_c, 1, 67, 0
5, 63360, Note_on_c, 1, 67, 50
5, 63488, Note_off_c, 1, 67, 0
5, 63488, Note_on_c, 1, 67, 50
5, 63616, Note_off_c, 1, 67, 0
5, 63616, Note_on_c, 1, 67, 50
5, 63744, Note_off_c, 1, 67, 0
5, 63744, Note_on_c, 1, 67, 50
5, 63872, Note_off_c, 1, 67, 0
5, 63872, Note_on_c, 1, 67, 50
5, 64000, Note_off_c, 1, 67, 0
5, 64000, Note_on_c, 1, 67, 50
5, 64128, Note_off_c, 1, 67, 0
5, 64128, Note_on_c, 1, 67, 50
5, 64256, Note_off_c, 1, 67, 0
5, 64256, Note_on_c, 1, 67, 50
5, 64384, Note_off_c, 1, 67, 0
5, 64384, Note_on_c, 1, 67, 50
5, 64512, Note_off_c, 1, 67, 0
5, 64512, Note_on_c, 1, 67, 50
5, 64640, Note_off_c, 1, 67, 0
5, 64640, Note_on_c, 1, 67, 50
5, 64768, Note_off_c, 1, 67, 0
5, 64768, Note_on_c, 1, 67, 50
5, 64896, Note_off_c, 1, 67, 0
5, 64896, Note_on_c, 1, 67, 50
5, 65024, Note_off_c, 1, 67, 0
5, 65024, Note_on_c, 1, 67, 50
5, 65152, Note_off_c, 1, 67, 0
5, 65152, Note_on_c, 1, 67, 50
5, 65280, Note_off_c, 1, 67, 0
5, 65280, Note_on_c, 1, 67, 50
5, 65408, Note_off_c, 1, 67, 0
5, 65408, Note_on_c, 1, 67, 50
5, 65536, Program_c, 1, 12
5, 65536, Note_off_c, 1, 67, 0
5, 65536, Note_on_c, 1, 67, 50
5, 65664, Note_off_c, 1, 67, 0
5, 65664, Note_on_c, 1, 67, 50
5, 65792, Note_off_c, 1, 67, 0
5, 65792, Note_on_c, 1, 67, 50
5, 65920, Note_off_c, 1, 67, 0
5, 65920, Note_on_c, 1, 67, 50
5, 66048, Note_off_c, 1, 67, 0
5, 66048, Note_on_c, 1, 67, 50
5, 66176, Note_off_c, 1, 67, 0
5, 66176, Note_on_c, 1, 67, 50
5, 66304, Note_off_c, 1, 67, 0
5, 66304, Note_on_c, 1, 67, 50
5, 66432, Note_off_c, 1, 67, 0
5, 66432, Note_on_c, 1, 67, 50
5, 66560, Note_off_c, 1, 67, 0
5, 66560, Note_on_c, 1, 67, 50
5, 66688, Note_off_c, 1, 67, 0
5, 66688, Note_on_c, 1, 67, 50
5, 66816, Note_off_c, 1, 67, 0
5, 66816, Note_on_c, 1, 67, 50
5, 66944, Note_off_c, 1, 67, 0
5, 66944, Note_on_c, 1, 67, 50
5, 67072, Note_off_c, 1, 67, 0
5, 67072, Note_on_c, 1, 67, 50
5, 67200, Note_off_c, 1, 67, 0
5, 67200, Note_on_c, 1, 67, 50
5, 67328, Note_off_c, 1, 67, 0
5, 67328, Note_on_c, 1, 67, 50
5, 67456, Note_off_c, 1, 67, 0
5, 67456, Note_on_c, 1, 67, 50
5, 67584, Note_off_c, 1, 67, 0
5, 67584, Note_on_c, 1, 67, 50
5, 67712, Note_off_c, 1, 67, 0
5, 67712, Note_on_c, 1, 67, 50
5, 67840, Note_off_c, 1, 67, 0
5, 67840, Note_on_c, 1, 67, 50
5, 67968, Note_off_c, 1, 67, 0
5, 67968, Note_on_c, 1, 67, 50
5, 68096, Note_off_c, 1, 67, 0
5, 68096, Note_on_c, 1, 67, 50
5, 68224, Note_off_c, 1, 67, 0
5, 68224, Note_on_c, 1, 67, 50
5, 68352, Note_off_c, 1, 67, 0
5, 68352, Note_on_c, 1, 67, 50
5, 68480, Note_off_c, 1, 67, 0
5, 68480, Note_on_c, 1, 67, 50
5, 68608, Note_off_c, 1, 67, 0
5, 68608, Note_on_c, 1, 67, 50
5, 68736, Note_off_c, 1, 67, 0
5, 68736, Note_on_c, 1, 67, 50
5, 68864, Note_off_c, 1, 67, 0
5, 68864, Note_on_c, 1, 67, 50
5, 68992, Note_off_c, 1, 67, 0
5, 68992, Note_on_c, 1, 67, 50
5, 69120, Note_off_c, 1, 67, 0
5, 69120, Note_on_c, 1, 67, 50
5, 69248, Note_off_c, 1, 67, 0
5, 69248, Note_on_c, 1, 67, 50
5, 69376, Note_off_c, 1, 67, 0
5, 69376, Note_on_c, 1, 67, 50
5, 69504, Note_off_c, 1, 67, 0
5, 69504, Note_on_c, 1, 67, 50
5, 69632, Program_c, 1, 12
5, 69632, Note_off_c, 1, 67, 0
5, 70656, Note_on_c, 1, 71, 50
5, 71168, Note_off_c, 1, 71, 0
5, 71168, Note_on_c, 1, 73, 50
5, 71680, Note_off_c, 1, 73, 0
5, 71680, Note_on_c, 1, 73, 50
5, 72363, Note_off_c, 1, 73, 0
5, 72363, Note_on_c, 1, 71, 50
5, 73045, Note_off_c, 1, 71, 0
5, 73045, Note_on_c, 1, 74, 50
5, 73728, Program_c, 1, 12
5, 73728, Note_off_c, 1, 74, 0
5, 73728, Note_on_c, 1, 77, 50
5, 74411, Note_off_c, 1, 77, 0
5, 74411, Note_on_c, 1, 69, 50
5, 75093, Note_off_c, 1, 69, 0
5, 75093, Note_on_c, 1, 69, 50
5, 75776, Note_off_c, 1, 69, 0
5, 75776, Note_on_c, 1, 70, 50
5, 77312, Note_off_c, 1, 70, 0
5, 77312, Note_on_c, 1, 73, 50
5, 77824, Program_c, 1, 12
5, 77824, Note_off_c, 1, 73, 0
5, 77824, Note_on_c, 1, 76, 50
5, 78507, Note_off_c, 1, 76, 0
5, 78507, Note_on_c, 1, 81, 50
5, 79189, Note_off_c, 1, 81, 0
5, 79189, Note_on_c, 1, 82, 50
5, 79872, Note_off_c, 1, 82, 0
5, 79872, Note_on_c, 1, 77, 50
5, 80555, Note_off_c, 1, 77, 0
5, 80555, Note_on_c, 1, 72, 50
5, 81237, Note_off_c, 1, 72, 0
5, 81237, Note_on_c, 1, 67, 50
5, 81920, Program_c, 1, 12
5, 81920, Note_off_c, 1, 67, 0
5, 81920, Note_on_c, 1, 69, 50
5, 82048, Note_off_c, 1, 69, 0
5, 82048, Note_on_c, 1, 69, 50
5, 82176, Note_off_c, 1, 69, 0
5, 82176, Note_on_c, 1, 69, 50
5, 82304, Note_off_c, 1, 69, 0
5, 82304, Note_on_c, 1, 69, 50
5, 82432, Note_off_c, 1, 69, 0
5, 82432, Note_on_c, 1, 69, 50
5, 82560, Note_off_c, 1, 69, 0
5, 82560, Note_on_c, 1, 69, 50
5, 82688, Note_off_c, 1, 69, 0
5, 82688, Note_on_c, 1, 69, 50
5, 82816, Note_off_c, 1, 69, 0
5, 82816, Note_on_c, 1, 69, 50
5, 82944, Note_off_c, 1, 69, 0
5, 82944, Note_on_c, 1, 69, 50
5, 83072, Note_off_c, 1, 69, 0
5, 83072, Note_on_c, 1, 69, 50
5, 83200, Note_off_c, 1, 69, 0
5, 83200, Note_on_c, 1, 69, 50
5, 83328, Note_off_c, 1, 69, 0
5, 83328, Note_on_c, 1, 69, 50
5, 83456, Note_off_c, 1, 69, 0
5, 83456, Note_on_c, 1, 69, 50
5, 83584, Note_off_c, 1, 69, 0
5, 83584, Note_on_c, 1, 69, 50
5, 83712, Note_off_c, 1, 69, 0
5, 83712, Note_on_c, 1, 69, 50
5, 83840, Note_off_c, 1, 69, 0
5, 83840, Note_on_c, 1, 69, 50
5, 83968, Note_off_c, 1, 69, 0
5, 83968, Note_on_c, 1, 69, 50
5, 84096, Note_off_c, 1, 69, 0
5, 84096, Note_on_c, 1, 69, 50
5, 84224, Note_off_c, 1, 69, 0
5, 84224, Note_on_c, 1, 69, 50
5, 84352, Note_off_c, 1, 69, 0
5, 84352, Note_on_c, 1, 69, 50
5, 84480, Note_off_c, 1, 69, 0
5, 84480, Note_on_c, 1, 69, 50
5, 84608, Note_off_c, 1, 69, 0
5, 84608, Note_on_c, 1, 69, 50
5, 84736, Note_off_c, 1, 69, 0
5, 84736, Note_on_c, 1, 69, 50
5, 84864, Note_off_c, 1, 69, 0
5, 84864, Note_on_c, 1, 69, 50
5, 84992, Note_off_c, 1, 69, 0
5, 84992, Note_on_c, 1, 69, 50
5, 85120, Note_off_c, 1, 69, 0
5, 85120, Note_on_c, 1, 69, 50
5, 85248, Note_off_c, 1, 69, 0
5, 85248, Note_on_c, 1, 69, 50
5, 85376, Note_off_c, 1, 69, 0
5, 85376, Note_on_c, 1, 69, 50
5, 85504, Note_off_c, 1, 69, 0
5, 85504, Note_on_c, 1, 69, 50
5, 85632, Note_off_c, 1, 69, 0
5, 85632, Note_on_c, 1, 69, 50
5, 85760, Note_off_c, 1, 69, 0
5, 85760, Note_on_c, 1, 69, 50
5, 85888, Note_off_c, 1, 69, 0
5, 85888, Note_on_c, 1, 69, 50
5, 86016, Program_c, 1, 12
5, 86016, Note_off_c, 1, 69, 0
5, 86016, Note_on_c, 1, 69, 50
5, 86144, Note_off_c, 1, 69, 0
5, 86144, Note_on_c, 1, 69, 50
5, 86272, Note_off_c, 1, 69, 0
5, 86272, Note_on_c, 1, 69, 50
5, 86400, Note_off_c, 1, 69, 0
5, 86400, Note_on_c, 1, 69, 50
5, 86528, Note_off_c, 1, 69, 0
5, 86528, Note_on_c, 1, 69, 50
5, 86656, Note_off_c, 1, 69, 0
5, 86656, Note_on_c, 1, 69, 50
5, 86784, Note_off_c, 1, 69, 0
5, 86784, Note_on_c, 1, 69, 50
5, 86912, Note_off_c, 1, 69, 0
5, 86912, Note_on_c, 1, 69, 50
5, 87040, Note_off_c, 1, 69, 0
5, 87040, Note_on_c, 1, 81, 50
5, 87168, Note_off_c, 1, 81, 0
5, 87168, Note_on_c, 1, 81, 50
5, 87296, Note_off_c, 1, 81, 0
5, 87296, Note_on_c, 1, 81, 50
5, 87424, Note_off_c, 1, 81, 0
5, 87424, Note_on_c, 1, 81, 50
5, 87552, Note_off_c, 1, 81, 0
5, 87552, Note_on_c, 1, 81, 50
5, 87680, Note_off_c, 1, 81, 0
5, 87680, Note_on_c, 1, 81, 50
5, 87808, Note_off_c, 1, 81, 0
5, 87808, Note_on_c, 1, 81, 50
5, 87936, Note_off_c, 1, 81, 0
5, 87936, Note_on_c, 1, 81, 50
5, 88064, Note_off_c, 1, 81, 0
5, 88064, Note_on_c, 1, 81, 50
5, 88192, Note_off_c, 1, 81, 0
5, 88192, Note_on_c, 1, 81, 50
5, 88320, Note_off_c, 1, 81, 0
5, 88320, Note_on_c, 1, 81, 50
5, 88448, Note_off_c, 1, 81, 0
5, 88448, Note_on_c, 1, 81, 50
5, 88576, Note_off_c, 1, 81, 0
5, 88576, Note_on_c, 1, 81, 50
5, 88704, Note_off_c, 1, 81, 0
5, 88704, Note_on_c, 1, 81, 50
5, 88832, Note_off_c, 1, 81, 0
5, 88832, Note_on_c, 1, 81, 50
5, 88960, Note_off_c, 1, 81, 0
5, 88960, Note_on_c, 1, 81, 50
5, 89088, Note_off_c, 1, 81, 0
5, 89088, Note_on_c, 1, 81, 50
5, 89216, Note_off_c, 1, 81, 0
5, 89216, Note_on_c, 1, 81, 50
5, 89344, Note_off_c, 1, 81, 0
5, 89344, Note_on_c, 1, 81, 50
5, 89472, Note_off_c, 1, 81, 0
5, 89472, Note_on_c, 1, 81, 50
5, 89600, Note_off_c, 1, 81, 0
5, 89600, Note_on_c, 1, 81, 50
5, 89728, Note_off_c, 1, 81, 0
5, 89728, Note_on_c, 1, 81, 50
5, 89856, Note_off_c, 1, 81, 0
5, 89856, Note_on_c, 1, 81, 50
5, 89984, Note_off_c, 1, 81, 0
5, 89984, Note_on_c, 1, 81, 50
5, 90112, Program_c, 1, 12
5, 90112, Note_off_c, 1, 81, 0
5, 90112, Note_on_c, 1, 81, 50
5, 90240, Note_off_c, 1, 81, 0
5, 90240, Note_on_c, 1, 81, 50
5, 90368, Note_off_c, 1, 81, 0
5, 90368, Note_on_c, 1, 81, 50
5, 90496, Note_off_c, 1, 81, 0
5, 90496, Note_on_c, 1, 81, 50
5, 90624, Note_off_c, 1, 81, 0
5, 90624, Note_on_c, 1, 81, 50
5, 90752, Note_off_c, 1, 81, 0
5, 90752, Note_on_c, 1, 81, 50
5, 90880, Note_off_c, 1, 81, 0
5, 90880, Note_on_c, 1, 81, 50
5, 91008, Note_off_c, 1, 81, 0
5, 91008, Note_on_c, 1, 81, 50
5, 91136, Note_off_c, 1, 81, 0
5, 91136, Note_on_c, 1, 81, 50
5, 91264, Note_off_c, 1, 81, 0
5, 91264, Note_on_c, 1, 81, 50
5, 91392, Note_off_c, 1, 81, 0
5, 91392, Note_on_c, 1, 81, 50
5, 91520, Note_off_c, 1, 81, 0
5, 91520, Note_on_c, 1, 81, 50
5, 91648, Note_off_c, 1, 81, 0
5, 91648, Note_on_c, 1, 81, 50
5, 92160, Note_off_c, 1, 81, 0
5, 92160, Note_on_c, 1, 81, 50
5, 92288, Note_off_c, 1, 81, 0
5, 92288, Note_on_c, 1, 81, 50
5, 92416, Note_off_c, 1, 81, 0
5, 92416, Note_on_c, 1, 81, 50
5, 92544, Note_off_c, 1, 81, 0
5, 92544, Note_on_c, 1, 81, 50
5, 92672, Note_off_c, 1, 81, 0
5, 92672, Note_on_c, 1, 81, 50
5, 92800, Note_off_c, 1, 81, 0
5, 92800, Note_on_c, 1, 81, 50
5, 92928, Note_off_c, 1, 81, 0
5, 92928, Note_on_c, 1, 81, 50
5, 93056, Note_off_c, 1, 81, 0
5, 93056, Note_on_c, 1, 81, 50
5, 93184, Note_off_c, 1, 81, 0
5, 93184, Note_on_c, 1, 81, 50
5, 93312, Note_off_c, 1, 81, 0
5, 93312, Note_on_c, 1, 81, 50
5, 93440, Note_off_c, 1, 81, 0
5, 93440, Note_on_c, 1, 81, 50
5, 93568, Note_off_c, 1, 81, 0
5, 93568, Note_on_c, 1, 81, 50
5, 93696, Note_off_c, 1, 81, 0
5, 93696, Note_on_c, 1, 81, 50
5, 93824, Note_off_c, 1, 81, 0
5, 93824, Note_on_c, 1, 81, 50
5, 93952, Note_off_c, 1, 81, 0
5, 93952, Note_on_c, 1, 81, 50
5, 94080, Note_off_c, 1, 81, 0
5, 94080, Note_on_c, 1, 81, 50
5, 94208, Program_c, 1, 12
5, 94208, Note_off_c, 1, 81, 0
5, 94208, Note_on_c, 1, 81, 50
5, 94336, Note_off_c, 1, 81, 0
5, 94336, Note_on_c, 1, 81, 50
5, 94464, Note_off_c, 1, 81, 0
5, 94464, Note_on_c, 1, 81, 50
5, 94592, Note_off_c, 1, 81, 0
5, 94592, Note_on_c, 1, 81, 50
5, 94720, Note_off_c, 1, 81, 0
5, 94720, Note_on_c, 1, 81, 50
5, 94848, Note_off_c, 1, 81, 0
5, 94848, Note_on_c, 1, 81, 50
5, 94976, Note_off_c, 1, 81, 0
5, 94976, Note_on_c, 1, 81, 50
5, 95104, Note_off_c, 1, 81, 0
5, 95104, Note_on_c, 1, 81, 50
5, 95232, Note_off_c, 1, 81, 0
5, 95232, Note_on_c, 1, 81, 50
5, 95360, Note_off_c, 1, 81, 0
5, 95360, Note_on_c, 1, 81, 50
5, 95488, Note_off_c, 1, 81, 0
5, 95488, Note_on_c, 1, 81, 50
5, 95616, Note_off_c, 1, 81, 0
5, 95616, Note_on_c, 1, 81, 50
5, 95744, Note_off_c, 1, 81, 0
5, 95744, Note_on_c, 1, 81, 50
5, 95872, Note_off_c, 1, 81, 0
5, 95872, Note_on_c, 1, 81, 50
5, 96000, Note_off_c, 1, 81, 0
5, 96000, Note_on_c, 1, 81, 50
5, 96128, Note_off_c, 1, 81, 0
5, 96128, Note_on_c, 1, 81, 50
5, 96256, Note_off_c, 1, 81, 0
5, 96256, Note_on_c, 1, 81, 50
5, 96384, Note_off_c, 1, 81, 0
5, 96384, Note_on_c, 1, 81, 50
5, 96512, Note_off_c, 1, 81, 0
5, 96512, Note_on_c, 1, 81, 50
5, 96640, Note_off_c, 1, 81, 0
5, 96640, Note_on_c, 1, 81, 50
5, 96768, Note_off_c, 1, 81, 0
5, 97280, Note_on_c, 1, 69, 50
5, 97408, Note_off_c, 1, 69, 0
5, 97408, Note_on_c, 1, 69, 50
5, 97536, Note_off_c, 1, 69, 0
5, 97536, Note_on_c, 1, 69, 50
5, 97664, Note_off_c, 1, 69, 0
5, 97664, Note_on_c, 1, 69, 50
5, 97792, Note_off_c, 1, 69, 0
5, 97792, Note_on_c, 1, 69, 50
5, 97920, Note_off_c, 1, 69, 0
5, 97920, Note_on_c, 1, 69, 50
5, 98048, Note_off_c, 1, 69, 0
5, 98048, Note_on_c, 1, 69, 50
5, 98176, Note_off_c, 1, 69, 0
5, 98176, Note_on_c, 1, 69, 50
5, 98304, Program_c, 1, 12
5, 98304, Note_off_c, 1, 69, 0
5, 98304, Note_on_c, 1, 69, 50
5, 98432, Note_off_c, 1, 69, 0
5, 98432, Note_on_c, 1, 69, 50
5, 98560, Note_off_c, 1, 69, 0
5, 98560, Note_on_c, 1, 69, 50
5, 98688, Note_off_c, 1, 69, 0
5, 98688, Note_on_c, 1, 69, 50
5, 98816, Note_off_c, 1, 69, 0
5, 98816, Note_on_c, 1, 69, 50
5, 98944, Note_off_c, 1, 69, 0
5, 98944, Note_on_c, 1, 69, 50
5, 99072, Note_off_c, 1, 69, 0
5, 99072, Note_on_c, 1, 69, 50
5, 99200, Note_off_c, 1, 69, 0
5, 99200, Note_on_c, 1, 69, 50
5, 99328, Note_off_c, 1, 69, 0
5, 99328, Note_on_c, 1, 69, 50
5, 99456, Note_off_c, 1, 69, 0
5, 99456, Note_on_c, 1, 69, 50
5, 99584, Note_off_c, 1, 69, 0
5, 99584, Note_on_c, 1, 69, 50
5, 99712, Note_off_c, 1, 69, 0
5, 99712, Note_on_c, 1, 69, 50
5, 99840, Note_off_c, 1, 69, 0
5, 99840, Note_on_c, 1, 69, 50
5, 99968, Note_off_c, 1, 69, 0
5, 99968, Note_on_c, 1, 69, 50
5, 100096, Note_off_c, 1, 69, 0
5, 100096, Note_on_c, 1, 69, 50
5, 100224, Note_off_c, 1, 69, 0
5, 100224, Note_on_c, 1, 69, 50
5, 100352, Note_off_c, 1, 69, 0
5, 100352, Note_on_c, 1, 69, 50
5, 100480, Note_off_c, 1, 69, 0
5, 100480, Note_on_c, 1, 69, 50
5, 100608, Note_off_c, 1, 69, 0
5, 100608, Note_on_c, 1, 69, 50
5, 100736, Note_off_c, 1, 69, 0
5, 100736, Note_on_c, 1, 69, 50
5, 100864, Note_off_c, 1, 69, 0
5, 100864, Note_on_c, 1, 69, 50
5, 100992, Note_off_c, 1, 69, 0
5, 100992, Note_on_c, 1, 69, 50
5, 101120, Note_off_c, 1, 69, 0
5, 101120, Note_on_c, 1, 69, 50
5, 101248, Note_off_c, 1, 69, 0
5, 101248, Note_on_c, 1, 69, 50
5, 101376, Note_off_c, 1, 69, 0
5, 101376, Note_on_c, 1, 69, 50
5, 101504, Note_off_c, 1, 69, 0
5, 101504, Note_on_c, 1, 71, 50
5, 101632, Note_off_c, 1, 71, 0
5, 101632, Note_on_c, 1, 72, 50
5, 101760, Note_off_c, 1, 72, 0
5, 101760, Note_on_c, 1, 74, 50
5, 101888, Note_off_c, 1, 74, 0
5, 101888, Note_on_c, 1, 76, 50
5, 102016, Note_off_c, 1, 76, 0
5, 102016, Note_on_c, 1, 77, 50
5, 102144, Note_off_c, 1, 77, 0
5, 102144, Note_on_c, 1, 79, 50
5, 102272, Note_off_c, 1, 79, 0
5, 102272, Note_on_c, 1, 81, 50
5, 102400, Program_c, 1, 12
5, 102400, Note_off_c, 1, 81, 0
5, 102400, Note_on_c, 1, 83, 50
5, 102528, Note_off_c, 1, 83, 0
5, 102528, Note_on_c, 1, 83, 50
5, 102656, Note_off_c, 1, 83, 0
5, 102656, Note_on_c, 1, 83, 50
5, 102784, Note_off_c, 1, 83, 0
5, 102784, Note_on_c, 1, 83, 50
5, 102912, Note_off_c, 1, 83, 0
5, 102912, Note_on_c, 1, 83, 50
5, 103040, Note_off_c, 1, 83, 0
5, 103040, Note_on_c, 1, 83, 50
5, 103168, Note_off_c, 1, 83, 0
5, 103168, Note_on_c, 1, 83, 50
5, 103296, Note_off_c, 1, 83, 0
5, 103296, Note_on_c, 1, 83, 50
5, 103424, Note_off_c, 1, 83, 0
5, 103424, Note_on_c, 1, 83, 50
5, 103552, Note_off_c, 1, 83, 0
5, 103552, Note_on_c, 1, 83, 50
5, 103680, Note_off_c, 1, 83, 0
5, 103680, Note_on_c, 1, 83, 50
5, 103808, Note_off_c, 1, 83, 0
5, 103808, Note_on_c, 1, 83, 50
5, 103936, Note_off_c, 1, 83, 0
5, 103936, Note_on_c, 1, 83, 50
5, 104064, Note_off_c, 1, 83, 0
5, 104064, Note_on_c, 1, 83, 50
5, 104192, Note_off_c, 1, 83, 0
5, 104192, Note_on_c, 1, 83, 50
5, 104320, Note_off_c, 1, 83, 0
5, 104320, Note_on_c, 1, 83, 50
5, 104448, Note_off_c, 1, 83, 0
5, 104448, Note_on_c, 1, 83, 50
5, 104576, Note_off_c, 1, 83, 0
5, 104576, Note_on_c, 1, 83, 50
5, 104704, Note_off_c, 1, 83, 0
5, 104704, Note_on_c, 1, 83, 50
5, 104832, Note_off_c, 1, 83, 0
5, 104832, Note_on_c, 1, 83, 50
5, 104960, Note_off_c, 1, 83, 0
5, 104960, Note_on_c, 1, 83, 50
5, 105088, Note_off_c, 1, 83, 0
5, 105088, Note_on_c, 1, 83, 50
5, 105216, Note_off_c, 1, 83, 0
5, 105216, Note_on_c, 1, 83, 50
5, 105344, Note_off_c, 1, 83, 0
5, 105344, Note_on_c, 1, 83, 50
5, 105472, Note_off_c, 1, 83, 0
5, 105472, Note_on_c, 1, 83, 50
5, 105600, Note_off_c, 1, 83, 0
5, 105600, Note_on_c, 1, 83, 50
5, 105728, Note_off_c, 1, 83, 0
5, 105728, Note_on_c, 1, 83, 50
5, 105856, Note_off_c, 1, 83, 0
5, 105856, Note_on_c, 1, 83, 50
5, 105984, Note_off_c, 1, 83, 0
5, 105984, Note_on_c, 1, 83, 50
5, 106112, Note_off_c, 1, 83, 0
5, 106112, Note_on_c, 1, 83, 50
5, 106240, Note_off_c, 1, 83, 0
5, 106240, Note_on_c, 1, 83, 50
5, 106368, Note_off_c, 1, 83, 0
5, 106368, Note_on_c, 1, 83, 50
5, 106496, Program_c, 1, 12
5, 106496, Note_off_c, 1, 83, 0
5, 106496, Note_on_c, 1, 83, 50
5, 106624, Note_off_c, 1, 83, 0
5, 106624, Note_on_c, 1, 83, 50
5, 106752, Note_off_c, 1, 83, 0
5, 106752, Note_on_c, 1, 83, 50
5, 106880, Note_off_c, 1, 83, 0
5, 106880, Note_on_c, 1, 83, 50
5, 107008, Note_off_c, 1, 83, 0
5, 107008, Note_on_c, 1, 83, 50
5, 107520, Note_off_c, 1, 83, 0
5, 107520, Note_on_c, 1, 73, 50
5, 107648, Note_off_c, 1, 73, 0
5, 107648, Note_on_c, 1, 73, 50
5, 107776, Note_off_c, 1, 73, 0
5, 107776, Note_on_c, 1, 73, 50
5, 107904, Note_off_c, 1, 73, 0
5, 107904, Note_on_c, 1, 73, 50
5, 108032, Note_off_c, 1, 73, 0
5, 108032, Note_on_c, 1, 73, 50
5, 108160, Note_off_c, 1, 73, 0
5, 108160, Note_on_c, 1, 73, 50
5, 108288, Note_off_c, 1, 73, 0
5, 108288, Note_on_c, 1, 73, 50
5, 108416, Note_off_c, 1, 73, 0
5, 108416, Note_on_c, 1, 73, 50
5, 108544, Note_off_c, 1, 73, 0
5, 108544, Note_on_c, 1, 73, 50
5, 108672, Note_off_c, 1, 73, 0
5, 108672, Note_on_c, 1, 73, 50
5, 108800, Note_off_c, 1, 73, 0
5, 108800, Note_on_c, 1, 73, 50
5, 108928, Note_off_c, 1, 73, 0
5, 108928, Note_on_c, 1, 73, 50
5, 109056, Note_off_c, 1, 73, 0
5, 109056, Note_on_c, 1, 73, 50
5, 109184, Note_off_c, 1, 73, 0
5, 109184, Note_on_c, 1, 73, 50
5, 109312, Note_off_c, 1, 73, 0
5, 109312, Note_on_c, 1, 73, 50
5, 109440, Note_off_c, 1, 73, 0
5, 109440, Note_on_c, 1, 73, 50
5, 109568, Note_off_c, 1, 73, 0
5, 109568, Note_on_c, 1, 73, 50
5, 109696, Note_off_c, 1, 73, 0
5, 109696, Note_on_c, 1, 73, 50
5, 109824, Note_off_c, 1, 73, 0
5, 109824, Note_on_c, 1, 73, 50
5, 109952, Note_off_c, 1, 73, 0
5, 109952, Note_on_c, 1, 73, 50
5, 110080, Note_off_c, 1, 73, 0
5, 110080, Note_on_c, 1, 73, 50
5, 110208, Note_off_c, 1, 73, 0
5, 110208, Note_on_c, 1, 73, 50
5, 110336, Note_off_c, 1, 73, 0
5, 110336, Note_on_c, 1, 73, 50
5, 110464, Note_off_c, 1, 73, 0
5, 110464, Note_on_c, 1, 73, 50
5, 110592, Program_c, 1, 12
5, 110592, Note_off_c, 1, 73, 0
5, 110592, Note_on_c, 1, 73, 50
5, 110720, Note_off_c, 1, 73, 0
5, 110720, Note_on_c, 1, 73, 50
5, 110848, Note_off_c, 1, 73, 0
5, 110848, Note_on_c, 1, 73, 50
5, 110976, Note_off_c, 1, 73, 0
5, 110976, Note_on_c, 1, 73, 50
5, 111104, Note_off_c, 1, 73, 0
5, 111104, Note_on_c, 1, 73, 50
5, 111232, Note_off_c, 1, 73, 0
5, 111232, Note_on_c, 1, 73, 50
5, 111360, Note_off_c, 1, 73, 0
5, 111360, Note_on_c, 1, 73, 50
5, 111488, Note_off_c, 1, 73, 0
5, 111488, Note_on_c, 1, 73, 50
5, 111616, Note_off_c, 1, 73, 0
5, 111616, Note_on_c, 1, 73, 50
5, 111744, Note_off_c, 1, 73, 0
5, 111744, Note_on_c, 1, 73, 50
5, 111872, Note_off_c, 1, 73, 0
5, 111872, Note_on_c, 1, 73, 50
5, 112000, Note_off_c, 1, 73, 0
5, 112000, Note_on_c, 1, 73, 50
5, 112128, Note_off_c, 1, 73, 0
5, 112128, Note_on_c, 1, 73, 50
5, 112256, Note_off_c, 1, 73, 0
5, 112256, Note_on_c, 1, 73, 50
5, 112384, Note_off_c, 1, 73, 0
5, 112384, Note_on_c, 1, 73, 50
5, 112512, Note_off_c, 1, 73, 0
5, 112512, Note_on_c, 1, 73, 50
5, 112640, Note_off_c, 1, 73, 0
5, 112640, Note_on_c, 1, 76, 50
5, 112768, Note_off_c, 1, 76, 0
5, 112768, Note_on_c, 1, 76, 50
5, 112896, Note_off_c, 1, 76, 0
5, 112896, Note_on_c, 1, 76, 50
5, 113024, Note_off_c, 1, 76, 0
5, 113024, Note_on_c, 1, 76, 50
5, 113152, Note_off_c, 1, 76, 0
5, 113152, Note_on_c, 1, 76, 50
5, 113280, Note_off_c, 1, 76, 0
5, 113280, Note_on_c, 1, 76, 50
5, 113408, Note_off_c, 1, 76, 0
5, 113408, Note_on_c, 1, 76, 50
5, 113536, Note_off_c, 1, 76, 0
5, 113536, Note_on_c, 1, 76, 50
5, 113664, Note_off_c, 1, 76, 0
5, 113664, Note_on_c, 1, 76, 50
5, 113792, Note_off_c, 1, 76, 0
5, 113792, Note_on_c, 1, 76, 50
5, 113920, Note_off_c, 1, 76, 0
5, 113920, Note_on_c, 1, 76, 50
5, 114048, Note_off_c, 1, 76, 0
5, 114048, Note_on_c, 1, 76, 50
5, 114176, Note_off_c, 1, 76, 0
5, 114176, Note_on_c, 1, 76, 50
5, 114304, Note_off_c, 1, 76, 0
5, 114304, Note_on_c, 1, 76, 50
5, 114432, Note_off_c, 1, 76, 0
5, 114432, Note_on_c, 1, 76, 50
5, 114560, Note_off_c, 1, 76, 0
5, 114560, Note_on_c, 1, 76, 50
5, 114688, Program_c, 1, 12
5, 114688, Note_off_c, 1, 76, 0
5, 114688, Note_on_c, 1, 76, 50
5, 114816, Note_off_c, 1, 76, 0
5, 114816, Note_on_c, 1, 76, 50
5, 114944, Note_off_c, 1, 76, 0
5, 114944, Note_on_c, 1, 76, 50
5, 115072, Note_off_c, 1, 76, 0
5, 115072, Note_on_c, 1, 76, 50
5, 115200, Note_off_c, 1, 76, 0
5, 115200, Note_on_c, 1, 76, 50
5, 115328, Note_off_c, 1, 76, 0
5, 115328, Note_on_c, 1, 76, 50
5, 115456, Note_off_c, 1, 76, 0
5, 115456, Note_on_c, 1, 76, 50
5, 115584, Note_off_c, 1, 76, 0
5, 115584, Note_on_c, 1, 76, 50
5, 115712, Note_off_c, 1, 76, 0
5, 115712, Note_on_c, 1, 76, 50
5, 115840, Note_off_c, 1, 76, 0
5, 115840, Note_on_c, 1, 76, 50
5, 115968, Note_off_c, 1, 76, 0
5, 115968, Note_on_c, 1, 76, 50
5, 116096, Note_off_c, 1, 76, 0
5, 116096, Note_on_c, 1, 76, 50
5, 116224, Note_off_c, 1, 76, 0
5, 116224, Note_on_c, 1, 76, 50
5, 116352, Note_off_c, 1, 76, 0
5, 116352, Note_on_c, 1, 76, 50
5, 116480, Note_off_c, 1, 76, 0
5, 116480, Note_on_c, 1, 76, 50
5, 116608, Note_off_c, 1, 76, 0
5, 116608, Note_on_c, 1, 76, 50
5, 116736, Note_off_c, 1, 76, 0
5, 116736, Note_on_c, 1, 76, 50
5, 116864, Note_off_c, 1, 76, 0
5, 116864, Note_on_c, 1, 76, 50
5, 116992, Note_off_c, 1, 76, 0
5, 116992, Note_on_c, 1, 76, 50
5, 117120, Note_off_c, 1, 76, 0
5, 117120, Note_on_c, 1, 76, 50
5, 117248, Note_off_c, 1, 76, 0
5, 117248, Note_on_c, 1, 76, 50
5, 117376, Note_off_c, 1, 76, 0
5, 117376, Note_on_c, 1, 76, 50
5, 117504, Note_off_c, 1, 76, 0
5, 117504, Note_on_c, 1, 76, 50
5, 117632, Note_off_c, 1, 76, 0
5, 117632, Note_on_c, 1, 76, 50
5, 117760, Note_off_c, 1, 76, 0
5, 117760, Note_on_c, 1, 73, 50
5, 117888, Note_off_c, 1, 73, 0
5, 117888, Note_on_c, 1, 73, 50
5, 118016, Note_off_c, 1, 73, 0
5, 118016, Note_on_c, 1, 73, 50
5, 118144, Note_off_c, 1, 73, 0
5, 118144, Note_on_c, 1, 73, 50
5, 118272, Note_off_c, 1, 73, 0
5, 118272, Note_on_c, 1, 73, 50
5, 118400, Note_off_c, 1, 73, 0
5, 118400, Note_on_c, 1, 73, 50
5, 118528, Note_off_c, 1, 73, 0
5, 118528, Note_on_c, 1, 73, 50
5, 118656, Note_off_c, 1, 73, 0
5, 118656, Note_on_c, 1, 73, 50
5, 118784, Program_c, 1, 12
5, 118784, Note_off_c, 1, 73, 0
5, 118784, Note_on_c, 1, 73, 50
5, 118912, Note_off_c, 1, 73, 0
5, 118912, Note_on_c, 1, 73, 50
5, 119040, Note_off_c, 1, 73, 0
5, 119040, Note_on_c, 1, 73, 50
5, 119168, Note_off_c, 1, 73, 0
5, 119168, Note_on_c, 1, 73, 50
5, 119296, Note_off_c, 1, 73, 0
5, 119296, Note_on_c, 1, 73, 50
5, 119424, Note_off_c, 1, 73, 0
5, 119424, Note_on_c, 1, 73, 50
5, 119552, Note_off_c, 1, 73, 0
5, 119552, Note_on_c, 1, 73, 50
5, 119680, Note_off_c, 1, 73, 0
5, 119680, Note_on_c, 1, 73, 50
5, 119808, Note_off_c, 1, 73, 0
5, 119808, Note_on_c, 1, 73, 50
5, 119936, Note_off_c, 1, 73, 0
5, 119936, Note_on_c, 1, 73, 50
5, 120064, Note_off_c, 1, 73, 0
5, 120064, Note_on_c, 1, 73, 50
5, 120192, Note_off_c, 1, 73, 0
5, 120192, Note_on_c, 1, 73, 50
5, 120320, Note_off_c, 1, 73, 0
5, 120320, Note_on_c, 1, 73, 50
5, 120448, Note_off_c, 1, 73, 0
5, 120448, Note_on_c, 1, 73, 50
5, 120576, Note_off_c, 1, 73, 0
5, 120576, Note_on_c, 1, 73, 50
5, 120704, Note_off_c, 1, 73, 0
5, 120704, Note_on_c, 1, 73, 50
5, 120832, Note_off_c, 1, 73, 0
5, 120832, Note_on_c, 1, 73, 50
5, 120960, Note_off_c, 1, 73, 0
5, 120960, Note_on_c, 1, 73, 50
5, 121088, Note_off_c, 1, 73, 0
5, 121088, Note_on_c, 1, 73, 50
5, 121216, Note_off_c, 1, 73, 0
5, 121216, Note_on_c, 1, 73, 50
5, 121344, Note_off_c, 1, 73, 0
5, 121344, Note_on_c, 1, 73, 50
5, 121472, Note_off_c, 1, 73, 0
5, 121472, Note_on_c, 1, 73, 50
5, 121600, Note_off_c, 1, 73, 0
5, 121600, Note_on_c, 1, 73, 50
5, 121728, Note_off_c, 1, 73, 0
5, 121728, Note_on_c, 1, 73, 50
5, 121856, Note_off_c, 1, 73, 0
5, 122880, Program_c, 1, 12
5, 122880, Note_on_c, 1, 71, 50
5, 123392, Note_off_c, 1, 71, 0
5, 123392, Note_on_c, 1, 72, 50
5, 123904, Note_off_c, 1, 72, 0
5, 123904, Note_on_c, 1, 72, 50
5, 124245, Note_off_c, 1, 72, 0
5, 124245, Note_on_c, 1, 69, 50
5, 124587, Note_off_c, 1, 69, 0
5, 124587, Note_on_c, 1, 74, 50
5, 124928, Note_off_c, 1, 74, 0
5, 124928, Note_on_c, 1, 75, 50
5, 125338, Note_off_c, 1, 75, 0
5, 125338, Note_on_c, 1, 67, 50
5, 125747, Note_off_c, 1, 67, 0
5, 125747, Note_on_c, 1, 67, 50
5, 126157, Note_off_c, 1, 67, 0
5, 126157, Note_on_c, 1, 69, 50
5, 126566, Note_off_c, 1, 69, 0
5, 126566, Note_on_c, 1, 65, 50
5, 126976, Program_c, 1, 12
5, 126976, Note_off_c, 1, 65, 0
5, 126976, Note_on_c, 1, 64, 50
5, 127659, Note_off_c, 1, 64, 0
5, 127659, Note_on_c, 1, 67, 50
5, 128341, Note_off_c, 1, 67, 0
5, 128341, Note_on_c, 1, 67, 50
5, 129024, Note_off_c, 1, 67, 0
5, 129024, Note_on_c, 1, 65, 50
5, 129707, Note_off_c, 1, 65, 0
5, 129707, Note_on_c, 1, 65, 50
5, 130389, Note_off_c, 1, 65, 0
5, 130389, Note_on_c, 1, 74, 50
5, 131072, Program_c, 1, 12
5, 131072, Note_off_c, 1, 74, 0
5, 131072, Note_on_c, 1, 73, 50
5, 131200, Note_off_c, 1, 73, 0
5, 131200, Note_on_c, 1, 73, 50
5, 131328, Note_off_c, 1, 73, 0
5, 131328, Note_on_c, 1, 73, 50
5, 131456, Note_off_c, 1, 73, 0
5, 131456, Note_on_c, 1, 73, 50
5, 131584, Note_off_c, 1, 73, 0
5, 131584, Note_on_c, 1, 73, 50
5, 131712, Note_off_c, 1, 73, 0
5, 131712, Note_on_c, 1, 73, 50
5, 131840, Note_off_c, 1, 73, 0
5, 131840, Note_on_c, 1, 73, 50
5, 131968, Note_off_c, 1, 73, 0
5, 131968, Note_on_c, 1, 73, 50
5, 132096, Note_off_c, 1, 73, 0
5, 132096, Note_on_c, 1, 73, 50
5, 132224, Note_off_c, 1, 73, 0
5, 132224, Note_on_c, 1, 73, 50
5, 132352, Note_off_c, 1, 73, 0
5, 132352, Note_on_c, 1, 73, 50
5, 132480, Note_off_c, 1, 73, 0
5, 132480, Note_on_c, 1, 73, 50
5, 132608, Note_off_c, 1, 73, 0
5, 132608, Note_on_c, 1, 73, 50
5, 132736, Note_off_c, 1, 73, 0
5, 132736, Note_on_c, 1, 73, 50
5, 132864, Note_off_c, 1, 73, 0
5, 132864, Note_on_c, 1, 73, 50
5, 132992, Note_off_c, 1, 73, 0
5, 132992, Note_on_c, 1, 73, 50
5, 133120, Note_off_c, 1, 73, 0
5, 133120, Note_on_c, 1, 73, 50
5, 133248, Note_off_c, 1, 73, 0
5, 133248, Note_on_c, 1, 73, 50
5, 133376, Note_off_c, 1, 73, 0
5, 133376, Note_on_c, 1, 73, 50
5, 133504, Note_off_c, 1, 73, 0
5, 133504, Note_on_c, 1, 73, 50
5, 133632, Note_off_c, 1, 73, 0
5, 133632, Note_on_c, 1, 73, 50
5, 133760, Note_off_c, 1, 73, 0
5, 133760, Note_on_c, 1, 73, 50
5, 133888, Note_off_c, 1, 73, 0
5, 133888, Note_on_c, 1, 73, 50
5, 134016, Note_off_c, 1, 73, 0
5, 134016, Note_on_c, 1, 73, 50
5, 134144, Note_off_c, 1, 73, 0
5, 134144, Note_on_c, 1, 73, 50
5, 134272, Note_off_c, 1, 73, 0
5, 134272, Note_on_c, 1, 73, 50
5, 134400, Note_off_c, 1, 73, 0
5, 134400, Note_on_c, 1, 73, 50
5, 134528, Note_off_c, 1, 73, 0
5, 134528, Note_on_c, 1, 73, 50
5, 134656, Note_off_c, 1, 73, 0
5, 134656, Note_on_c, 1, 73, 50
5, 134784, Note_off_c, 1, 73, 0
5, 134784, Note_on_c, 1, 73, 50
5, 134912, Note_off_c, 1, 73, 0
5, 134912, Note_on_c, 1, 73, 50
5, 135040, Note_off_c, 1, 73, 0
5, 135040, Note_on_c, 1, 73, 50
5, 135168, Program_c, 1, 12
5, 135168, Note_off_c, 1, 73, 0
5, 135168, Note_on_c, 1, 73, 50
5, 135296, Note_off_c, 1, 73, 0
5, 135296, Note_on_c, 1, 73, 50
5, 135424, Note_off_c, 1, 73, 0
5, 135424, Note_on_c, 1, 73, 50
5, 135552, Note_off_c, 1, 73, 0
5, 135552, Note_on_c, 1, 73, 50
5, 135680, Note_off_c, 1, 73, 0
5, 135680, Note_on_c, 1, 73, 50
5, 135808, Note_off_c, 1, 73, 0
5, 135808, Note_on_c, 1, 73, 50
5, 135936, Note_off_c, 1, 73, 0
5, 135936, Note_on_c, 1, 73, 50
5, 136064, Note_off_c, 1, 73, 0
5, 136064, Note_on_c, 1, 73, 50
5, 136192, Note_off_c, 1, 73, 0
5, 136192, Note_on_c, 1, 73, 50
5, 136320, Note_off_c, 1, 73, 0
5, 136320, Note_on_c, 1, 73, 50
5, 136448, Note_off_c, 1, 73, 0
5, 136448, Note_on_c, 1, 73, 50
5, 136576, Note_off_c, 1, 73, 0
5, 136576, Note_on_c, 1, 73, 50
5, 136704, Note_off_c, 1, 73, 0
5, 136704, Note_on_c, 1, 73, 50
5, 136832, Note_off_c, 1, 73, 0
5, 136832, Note_on_c, 1, 73, 50
5, 136960, Note_off_c, 1, 73, 0
5, 136960, Note_on_c, 1, 73, 50
5, 137088, Note_off_c, 1, 73, 0
5, 137088, Note_on_c, 1, 73, 50
5, 137216, Note_off_c, 1, 73, 0
5, 137216, Note_on_c, 1, 73, 50
5, 137344, Note_off_c, 1, 73, 0
5, 137344, Note_on_c, 1, 73, 50
5, 137472, Note_off_c, 1, 73, 0
5, 137472, Note_on_c, 1, 73, 50
5, 137600, Note_off_c, 1, 73, 0
5, 137600, Note_on_c, 1, 73, 50
5, 137728, Note_off_c, 1, 73, 0
5, 137728, Note_on_c, 1, 73, 50
5, 137856, Note_off_c, 1, 73, 0
5, 137856, Note_on_c, 1, 73, 50
5, 137984, Note_off_c, 1, 73, 0
5, 137984, Note_on_c, 1, 73, 50
5, 138112, Note_off_c, 1, 73, 0
5, 138112, Note_on_c, 1, 73, 50
5, 138240, Note_off_c, 1, 73, 0
5, 138240, Note_on_c, 1, 73, 50
5, 138368, Note_off_c, 1, 73, 0
5, 138368, Note_on_c, 1, 73, 50
5, 138496, Note_off_c, 1, 73, 0
5, 138496, Note_on_c, 1, 73, 50
5, 138624, Note_off_c, 1, 73, 0
5, 138624, Note_on_c, 1, 73, 50
5, 138752, Note_off_c, 1, 73, 0
5, 138752, Note_on_c, 1, 73, 50
5, 138880, Note_off_c, 1, 73, 0
5, 138880, Note_on_c, 1, 73, 50
5, 139008, Note_off_c, 1, 73, 0
5, 139008, Note_on_c, 1, 73, 50
5, 139136, Note_off_c, 1, 73, 0
5, 139136, Note_on_c, 1, 73, 50
5, 139264, Program_c, 1, 12
5, 139264, Note_off_c, 1, 73, 0
5, 139264, Note_on_c, 1, 73, 50
5, 139392, Note_off_c, 1, 73, 0
5, 139392, Note_on_c, 1, 73, 50
5, 139520, Note_off_c, 1, 73, 0
5, 139520, Note_on_c, 1, 73, 50
5, 139648, Note_off_c, 1, 73, 0
5, 139648, Note_on_c, 1, 73, 50
5, 139776, Note_off_c, 1, 73, 0
5, 139776, Note_on_c, 1, 73, 50
5, 139904, Note_off_c, 1, 73, 0
5, 139904, Note_on_c, 1, 73, 50
5, 140032, Note_off_c, 1, 73, 0
5, 140032, Note_on_c, 1, 73, 50
5, 140160, Note_off_c, 1, 73, 0
5, 140160, Note_on_c, 1, 73, 50
5, 140288, Note_off_c, 1, 73, 0
5, 140288, Note_on_c, 1, 73, 50
5, 140416, Note_off_c, 1, 73, 0
5, 140416, Note_on_c, 1, 73, 50
5, 140544, Note_off_c, 1, 73, 0
5, 140544, Note_on_c, 1, 73, 50
5, 140672, Note_off_c, 1, 73, 0
5, 140672, Note_on_c, 1, 73, 50
5, 140800, Note_off_c, 1, 73, 0
5, 140800, Note_on_c, 1, 73, 50
5, 140928, Note_off_c, 1, 73, 0
5, 140928, Note_on_c, 1, 73, 50
5, 141056, Note_off_c, 1, 73, 0
5, 141056, Note_on_c, 1, 73, 50
5, 141184, Note_off_c, 1, 73, 0
5, 141184, Note_on_c, 1, 73, 50
5, 141312, Note_off_c, 1, 73, 0
5, 141312, Note_on_c, 1, 73, 50
5, 141440, Note_off_c, 1, 73, 0
5, 141440, Note_on_c, 1, 73, 50
5, 141568, Note_off_c, 1, 73, 0
5, 141568, Note_on_c, 1, 73, 50
5, 141696, Note_off_c, 1, 73, 0
5, 141696, Note_on_c, 1, 73, 50
5, 141824, Note_off_c, 1, 73, 0
5, 141824, Note_on_c, 1, 73, 50
5, 141952, Note_off_c, 1, 73, 0
5, 141952, Note_on_c, 1, 73, 50
5, 142080, Note_off_c, 1, 73, 0
5, 142080, Note_on_c, 1, 73, 50
5, 142208, Note_off_c, 1, 73, 0
5, 142208, Note_on_c, 1, 73, 50
5, 142336, Note_off_c, 1, 73, 0
5, 142336, Note_on_c, 1, 73, 50
5, 142464, Note_off_c, 1, 73, 0
5, 142464, Note_on_c, 1, 73, 50
5, 142592, Note_off_c, 1, 73, 0
5, 142592, Note_on_c, 1, 73, 50
5, 142720, Note_off_c, 1, 73, 0
5, 142720, Note_on_c, 1, 73, 50
5, 142848, Note_off_c, 1, 73, 0
5, 142848, Note_on_c, 1, 73, 50
5, 142976, Note_off_c, 1, 73, 0
5, 142976, Note_on_c, 1, 73, 50
5, 143104, Note_off_c, 1, 73, 0
5, 143104, Note_on_c, 1, 73, 50
5, 143232, Note_off_c, 1, 73, 0
5, 143232, Note_on_c, 1, 73, 50
5, 143360, Program_c, 1, 12
5, 143360, Note_off_c, 1, 73, 0
5, 143360, Note_on_c, 1, 73, 50
5, 143488, Note_off_c, 1, 73, 0
5, 143488, Note_on_c, 1, 73, 50
5, 143616, Note_off_c, 1, 73, 0
5, 143616, Note_on_c, 1, 73, 50
5, 143744, Note_off_c, 1, 73, 0
5, 143744, Note_on_c, 1, 73, 50
5, 143872, Note_off_c, 1, 73, 0
5, 143872, Note_on_c, 1, 73, 50
5, 144000, Note_off_c, 1, 73, 0
5, 144000, Note_on_c, 1, 73, 50
5, 144128, Note_off_c, 1, 73, 0
5, 144128, Note_on_c, 1, 73, 50
5, 144256, Note_off_c, 1, 73, 0
5, 144256, Note_on_c, 1, 73, 50
5, 144384, Note_off_c, 1, 73, 0
5, 144384, Note_on_c, 1, 73, 50
5, 144512, Note_off_c, 1, 73, 0
5, 144512, Note_on_c, 1, 73, 50
5, 144640, Note_off_c, 1, 73, 0
5, 144640, Note_on_c, 1, 73, 50
5, 144768, Note_off_c, 1, 73, 0
5, 144768, Note_on_c, 1, 73, 50
5, 144896, Note_off_c, 1, 73, 0
5, 144896, Note_on_c, 1, 73, 50
5, 145024, Note_off_c, 1, 73, 0
5, 145024, Note_on_c, 1, 73, 50
5, 145152, Note_off_c, 1, 73, 0
5, 145152, Note_on_c, 1, 73, 50
5, 145280, Note_off_c, 1, 73, 0
5, 145280, Note_on_c, 1, 73, 50
5, 145408, Note_off_c, 1, 73, 0
5, 145408, Note_on_c, 1, 73, 50
5, 145536, Note_off_c, 1, 73, 0
5, 145536, Note_on_c, 1, 73, 50
5, 145664, Note_off_c, 1, 73, 0
5, 145664, Note_on_c, 1, 73, 50
5, 145792, Note_off_c, 1, 73, 0
5, 145792, Note_on_c, 1, 73, 50
5, 145920, Note_off_c, 1, 73, 0
5, 145920, Note_on_c, 1, 73, 50
5, 146048, Note_off_c, 1, 73, 0
5, 146048, Note_on_c, 1, 73, 50
5, 146176, Note_off_c, 1, 73, 0
5, 146176, Note_on_c, 1, 73, 50
5, 146304, Note_off_c, 1, 73, 0
5, 146304, Note_on_c, 1, 73, 50
5, 146432, Note_off_c, 1, 73, 0
5, 147456, Program_c, 1, 12
5, 147456, Note_on_c, 1, 83, 50
5, 148736, Note_off_c, 1, 83, 0
5, 148736, Note_on_c, 1, 81, 50
5, 148992, Note_off_c, 1, 81, 0
5, 148992, Note_on_c, 1, 80, 50
5, 149248, Note_off_c, 1, 80, 0
5, 149248, Note_on_c, 1, 86, 50
5, 149504, Note_off_c, 1, 86, 0
5, 149504, Note_on_c, 1, 76, 50
5, 149845, Note_off_c, 1, 76, 0
5, 149845, Note_on_c, 1, 83, 50
5, 150187, Note_off_c, 1, 83, 0
5, 150187, Note_on_c, 1, 81, 50
5, 150528, Note_off_c, 1, 81, 0
5, 150528, Note_on_c, 1, 85, 50
5, 150733, Note_off_c, 1, 85, 0
5, 150733, Note_on_c, 1, 81, 50
5, 150938, Note_off_c, 1, 81, 0
5, 150938, Note_on_c, 1, 81, 50
5, 151142, Note_off_c, 1, 81, 0
5, 151142, Note_on_c, 1, 83, 50
5, 151347, Note_off_c, 1, 83, 0
5, 151347, Note_on_c, 1, 80, 50
5, 151552, Program_c, 1, 12
5, 151552, Note_off_c, 1, 80, 0
5, 152064, Note_on_c, 1, 85, 50
5, 152576, Note_off_c, 1, 85, 0
5, 152576, Note_on_c, 1, 78, 50
5, 152917, Note_off_c, 1, 78, 0
5, 152917, Note_on_c, 1, 83, 50
5, 153259, Note_off_c, 1, 83, 0
5, 153259, Note_on_c, 1, 80, 50
5, 153600, Note_off_c, 1, 80, 0
5, 153600, Note_on_c, 1, 92, 50
5, 154010, Note_off_c, 1, 92, 0
5, 154010, Note_on_c, 1, 90, 50
5, 154419, Note_off_c, 1, 90, 0
5, 154419, Note_on_c, 1, 85, 50
5, 154829, Note_off_c, 1, 85, 0
5, 154829, Note_on_c, 1, 88, 50
5, 155238, Note_off_c, 1, 88, 0
5, 155238, Note_on_c, 1, 78, 50
5, 155648, Program_c, 1, 12
5, 155648, Note_off_c, 1, 78, 0
5, 155648, Note_on_c, 1, 92, 50
5, 156058, Note_off_c, 1, 92, 0
5, 156058, Note_on_c, 1, 90, 50
5, 156467, Note_off_c, 1, 90, 0
5, 156467, Note_on_c, 1, 85, 50
5, 156877, Note_off_c, 1, 85, 0
5, 156877, Note_on_c, 1, 88, 50
5, 157286, Note_off_c, 1, 88, 0
5, 157286, Note_on_c, 1, 78, 50
5, 157824, Note_off_c, 1, 78, 0
5, 157824, Note_on_c, 1, 78, 50
5, 157952, Note_off_c, 1, 78, 0
5, 157952, Note_on_c, 1, 78, 50
5, 158080, Note_off_c, 1, 78, 0
5, 158080, Note_on_c, 1, 78, 50
5, 158208, Note_off_c, 1, 78, 0
5, 158208, Note_on_c, 1, 78, 50
5, 158336, Note_off_c, 1, 78, 0
5, 158336, Note_on_c, 1, 78, 50
5, 158464, Note_off_c, 1, 78, 0
5, 158464, Note_on_c, 1, 78, 50
5, 158592, Note_off_c, 1, 78, 0
5, 158592, Note_on_c, 1, 78, 50
5, 158720, Note_off_c, 1, 78, 0
5, 158720, Note_on_c, 1, 78, 50
5, 158848, Note_off_c, 1, 78, 0
5, 158848, Note_on_c, 1, 78, 50
5, 158976, Note_off_c, 1, 78, 0
5, 158976, Note_on_c, 1, 78, 50
5, 159104, Note_off_c, 1, 78, 0
5, 159104, Note_on_c, 1, 78, 50
5, 159232, Note_off_c, 1, 78, 0
5, 159232, Note_on_c, 1, 78, 50
5, 159360, Note_off_c, 1, 78, 0
5, 159360, Note_on_c, 1, 78, 50
5, 159488, Note_off_c, 1, 78, 0
5, 159488, Note_on_c, 1, 78, 50
5, 159616, Note_off_c, 1, 78, 0
5, 159616, Note_on_c, 1, 78, 50
5, 159744, Program_c, 1, 12
5, 159744, Note_off_c, 1, 78, 0
5, 159744, Note_on_c, 1, 78, 50
5, 159872, Note_off_c, 1, 78, 0
5, 159872, Note_on_c, 1, 78, 50
5, 160000, Note_off_c, 1, 78, 0
5, 160000, Note_on_c, 1, 78, 50
5, 160128, Note_off_c, 1, 78, 0
5, 160128, Note_on_c, 1, 78, 50
5, 160256, Note_off_c, 1, 78, 0
5, 160256, Note_on_c, 1, 78, 50
5, 160384, Note_off_c, 1, 78, 0
5, 160384, Note_on_c, 1, 78, 50
5, 160512, Note_off_c, 1, 78, 0
5, 160512, Note_on_c, 1, 78, 50
5, 160640, Note_off_c, 1, 78, 0
5, 160640, Note_on_c, 1, 78, 50
5, 160768, Note_off_c, 1, 78, 0
5, 160768, Note_on_c, 1, 78, 50
5, 160896, Note_off_c, 1, 78, 0
5, 160896, Note_on_c, 1, 78, 50
5, 161024, Note_off_c, 1, 78, 0
5, 161024, Note_on_c, 1, 78, 50
5, 161152, Note_off_c, 1, 78, 0
5, 161152, Note_on_c, 1, 78, 50
5, 161280, Note_off_c, 1, 78, 0
5, 161280, Note_on_c, 1, 78, 50
5, 161408, Note_off_c, 1, 78, 0
5, 161408, Note_on_c, 1, 78, 50
5, 161536, Note_off_c, 1, 78, 0
5, 161536, Note_on_c, 1, 78, 50
5, 161664, Note_off_c, 1, 78, 0
5, 161664, Note_on_c, 1, 78, 50
5, 161792, Note_off_c, 1, 78, 0
5, 161792, Note_on_c, 1, 78, 50
5, 161920, Note_off_c, 1, 78, 0
5, 161920, Note_on_c, 1, 78, 50
5, 162048, Note_off_c, 1, 78, 0
5, 162048, Note_on_c, 1, 78, 50
5, 162176, Note_off_c, 1, 78, 0
5, 162176, Note_on_c, 1, 78, 50
5, 162304, Note_off_c, 1, 78, 0
5, 162304, Note_on_c, 1, 78, 50
5, 162432, Note_off_c, 1, 78, 0
5, 162432, Note_on_c, 1, 78, 50
5, 162560, Note_off_c, 1, 78, 0
5, 162560, Note_on_c, 1, 78, 50
5, 162688, Note_off_c, 1, 78, 0
5, 162688, Note_on_c, 1, 78, 50
5, 162816, Note_off_c, 1, 78, 0
5, 162816, Note_on_c, 1, 78, 50
5, 162944, Note_off_c, 1, 78, 0
5, 162944, Note_on_c, 1, 78, 50
5, 163072, Note_off_c, 1, 78, 0
5, 163072, Note_on_c, 1, 78, 50
5, 163200, Note_off_c, 1, 78, 0
5, 163200, Note_on_c, 1, 78, 50
5, 163328, Note_off_c, 1, 78, 0
5, 163328, Note_on_c, 1, 78, 50
5, 163456, Note_off_c, 1, 78, 0
5, 163456, Note_on_c, 1, 78, 50
5, 163584, Note_off_c, 1, 78, 0
5, 163584, Note_on_c, 1, 78, 50
5, 163712, Note_off_c, 1, 78, 0
5, 163712, Note_on_c, 1, 78, 50
5, 163840, Program_c, 1, 12
5, 163840, Note_off_c, 1, 78, 0
5, 163840, Note_on_c, 1, 78, 50
5, 163968, Note_off_c, 1, 78, 0
5, 163968, Note_on_c, 1, 78, 50
5, 164096, Note_off_c, 1, 78, 0
5, 164096, Note_on_c, 1, 78, 50
5, 164224, Note_off_c, 1, 78, 0
5, 164224, Note_on_c, 1, 78, 50
5, 164352, Note_off_c, 1, 78, 0
5, 164352, Note_on_c, 1, 78, 50
5, 164480, Note_off_c, 1, 78, 0
5, 164480, Note_on_c, 1, 78, 50
5, 164608, Note_off_c, 1, 78, 0
5, 164608, Note_on_c, 1, 78, 50
5, 164736, Note_off_c, 1, 78, 0
5, 164736, Note_on_c, 1, 78, 50
5, 164864, Note_off_c, 1, 78, 0
5, 164864, Note_on_c, 1, 78, 50
5, 164992, Note_off_c, 1, 78, 0
5, 164992, Note_on_c, 1, 78, 50
5, 165120, Note_off_c, 1, 78, 0
5, 165120, Note_on_c, 1, 78, 50
5, 165248, Note_off_c, 1, 78, 0
5, 165248, Note_on_c, 1, 78, 50
5, 165376, Note_off_c, 1, 78, 0
5, 165376, Note_on_c, 1, 78, 50
5, 165504, Note_off_c, 1, 78, 0
5, 165504, Note_on_c, 1, 78, 50
5, 165632, Note_off_c, 1, 78, 0
5, 165632, Note_on_c, 1, 78, 50
5, 165760, Note_off_c, 1, 78, 0
5, 165760, Note_on_c, 1, 78, 50
5, 165888, Note_off_c, 1, 78, 0
5, 165888, Note_on_c, 1, 78, 50
5, 166016, Note_off_c, 1, 78, 0
5, 166016, Note_on_c, 1, 78, 50
5, 166144, Note_off_c, 1, 78, 0
5, 166144, Note_on_c, 1, 78, 50
5, 166272, Note_off_c, 1, 78, 0
5, 166272, Note_on_c, 1, 78, 50
5, 166400, Note_off_c, 1, 78, 0
5, 166400, Note_on_c, 1, 78, 50
5, 166528, Note_off_c, 1, 78, 0
5, 166528, Note_on_c, 1, 78, 50
5, 166656, Note_off_c, 1, 78, 0
5, 166656, Note_on_c, 1, 78, 50
5, 166784, Note_off_c, 1, 78, 0
5, 166784, Note_on_c, 1, 78, 50
5, 166912, Note_off_c, 1, 78, 0
5, 167936, Program_c, 1, 12
5, 167936, Note_on_c, 1, 80, 50
5, 168192, Note_off_c, 1, 80, 0
5, 168192, Note_on_c, 1, 81, 50
5, 168448, Note_off_c, 1, 81, 0
5, 168448, Note_on_c, 1, 80, 50
5, 168960, Note_off_c, 1, 80, 0
5, 168960, Note_on_c, 1, 80, 50
5, 169216, Note_off_c, 1, 80, 0
5, 169216, Note_on_c, 1, 81, 50
5, 169472, Note_off_c, 1, 81, 0
5, 169472, Note_on_c, 1, 80, 50
5, 169984, Note_off_c, 1, 80, 0
5, 169984, Note_on_c, 1, 80, 50
5, 170496, Note_off_c, 1, 80, 0
5, 170496, Note_on_c, 1, 71, 50
5, 170752, Note_off_c, 1, 71, 0
5, 170752, Note_on_c, 1, 81, 50
5, 171008, Note_off_c, 1, 81, 0
5, 171008, Note_on_c, 1, 78, 50
5, 171264, Note_off_c, 1, 78, 0
5, 171264, Note_on_c, 1, 73, 50
5, 171520, Note_off_c, 1, 73, 0
5, 171520, Note_on_c, 1, 83, 50
5, 171776, Note_off_c, 1, 83, 0
5, 171776, Note_on_c, 1, 78, 50
5, 172032, Program_c, 1, 12
5, 172032, Note_off_c, 1, 78, 0
5, 172032, Note_on_c, 1, 80, 50
5, 172288, Note_off_c, 1, 80, 0
5, 172288, Note_on_c, 1, 76, 50
5, 172544, Note_off_c, 1, 76, 0
5, 172544, Note_on_c, 1, 76, 50
5, 172800, Note_off_c, 1, 76, 0
5, 172800, Note_on_c, 1, 73, 50
5, 173056, Note_off_c, 1, 73, 0
5, 173056, Note_on_c, 1, 78, 50
5, 173312, Note_off_c, 1, 78, 0
5, 173312, Note_on_c, 1, 80, 50
5, 173568, Note_off_c, 1, 80, 0
5, 173568, Note_on_c, 1, 80, 50
5, 173824, Note_off_c, 1, 80, 0
5, 173824, Note_on_c, 1, 83, 50
5, 174080, Note_off_c, 1, 83, 0
5, 174080, Note_on_c, 1, 81, 50
5, 174336, Note_off_c, 1, 81, 0
5, 174336, Note_on_c, 1, 80, 50
5, 174592, Note_off_c, 1, 80, 0
5, 174592, Note_on_c, 1, 80, 50
5, 174848, Note_off_c, 1, 80, 0
5, 174848, Note_on_c, 1, 83, 50
5, 175104, Note_off_c, 1, 83, 0
5, 175104, Note_on_c, 1, 78, 50
5, 175360, Note_off_c, 1, 78, 0
5, 175360, Note_on_c, 1, 66, 50
5, 175616, Note_off_c, 1, 66, 0
5, 175616, Note_on_c, 1, 66, 50
5, 175872, Note_off_c, 1, 66, 0
5, 175872, Note_on_c, 1, 71, 50
5, 176128, Program_c, 1, 12
5, 176128, Note_off_c, 1, 71, 0
5, 176128, Note_on_c, 1, 73, 50
5, 176384, Note_off_c, 1, 73, 0
5, 176384, Note_on_c, 1, 69, 50
5, 176640, Note_off_c, 1, 69, 0
5, 176640, Note_on_c, 1, 71, 50
5, 176896, Note_off_c, 1, 71, 0
5, 176896, Note_on_c, 1, 76, 50
5, 177152, Note_off_c, 1, 76, 0
5, 177152, Note_on_c, 1, 80, 50
5, 177408, Note_off_c, 1, 80, 0
5, 177408, Note_on_c, 1, 66, 50
5, 177664, Note_off_c, 1, 66, 0
5, 177664, Note_on_c, 1, 71, 50
5, 177920, Note_off_c, 1, 71, 0
5, 177920, Note_on_c, 1, 73, 50
5, 178176, Note_off_c, 1, 73, 0
5, 178176, Note_on_c, 1, 74, 50
5, 178432, Note_off_c, 1, 74, 0
5, 178432, Note_on_c, 1, 81, 50
5, 178688, Note_off_c, 1, 81, 0
5, 178688, Note_on_c, 1, 78, 50
5, 178944, Note_off_c, 1, 78, 0
5, 178944, Note_on_c, 1, 76, 50
5, 179200, Note_off_c, 1, 76, 0
5, 179200, Note_on_c, 1, 78, 50
5, 179456, Note_off_c, 1, 78, 0
5, 179456, Note_on_c, 1, 80, 50
5, 179712, Note_off_c, 1, 80, 0
5, 179712, Note_on_c, 1, 76, 50
5, 179968, Note_off_c, 1, 76, 0
5, 179968, Note_on_c, 1, 71, 50
5, 180224, Program_c, 1, 12
5, 180224, Note_off_c, 1, 71, 0
5, 181248, Note_on_c, 1, 78, 50
5, 181504, Note_off_c, 1, 78, 0
5, 181504, Note_on_c, 1, 80, 50
5, 181760, Note_off_c, 1, 80, 0
5, 181760, Note_on_c, 1, 76, 50
5, 182016, Note_off_c, 1, 76, 0
5, 182016, Note_on_c, 1, 71, 50
5, 182272, Note_off_c, 1, 71, 0
5, 184320, Program_c, 1, 12
5, 184320, Note_on_c, 1, 78, 50
5, 184576, Note_off_c, 1, 78, 0
5, 184576, Note_on_c, 1, 80, 50
5, 184832, Note_off_c, 1, 80, 0
5, 184832, Note_on_c, 1, 76, 50
5, 185088, Note_off_c, 1, 76, 0
5, 185088, Note_on_c, 1, 71, 50
5, 185344, Note_off_c, 1, 71, 0
5, 187392, Note_on_c, 1, 78, 50
5, 187648, Note_off_c, 1, 78, 0
5, 187648, Note_on_c, 1, 80, 50
5, 187904, Note_off_c, 1, 80, 0
5, 187904, Note_on_c, 1, 76, 50
5, 188160, Note_off_c, 1, 76, 0
5, 188160, Note_on_c, 1, 71, 50
5, 188416, Program_c, 1, 12
5, 188416, Note_off_c, 1, 71, 0
5, 188416, Note_on_c, 1, 81, 50
5, 190336, Note_on_c, 1, 81, 50
5, 190464, Note_off_c, 1, 81, 0
5, 190464, Note_off_c, 1, 81, 0
5, 190464, Note_on_c, 1, 80, 50
5, 190976, Note_off_c, 1, 80, 0
5, 191488, Note_on_c, 1, 78, 50
5, 192000, Note_off_c, 1, 78, 0
5, 192512, Program_c, 1, 12
5, 192512, Note_on_c, 1, 88, 50
5, 193097, Note_off_c, 1, 88, 0
5, 193097, Note_on_c, 1, 78, 50
5, 193682, Note_off_c, 1, 78, 0
5, 193682, Note_on_c, 1, 78, 50
5, 193975, Note_off_c, 1, 78, 0
5, 193975, Note_on_c, 1, 83, 50
5, 194267, Note_off_c, 1, 83, 0
5, 194267, Note_on_c, 1, 80, 50
5, 194560, Note_off_c, 1, 80, 0
5, 194560, Note_on_c, 1, 85, 50
5, 195072, Note_off_c, 1, 85, 0
5, 195072, Note_on_c, 1, 83, 50
5, 195584, Note_off_c, 1, 83, 0
5, 195584, Note_on_c, 1, 83, 50
5, 196096, Note_off_c, 1, 83, 0
5, 196096, Note_on_c, 1, 81, 50
5, 196608, Program_c, 1, 12
5, 196608, Note_off_c, 1, 81, 0
5, 196608, Note_on_c, 1, 80, 50
5, 198144, Note_off_c, 1, 80, 0
5, 198144, Note_on_c, 1, 81, 50
5, 198528, Note_on_c, 1, 81, 50
5, 198656, Note_off_c, 1, 81, 0
5, 198656, Note_off_c, 1, 81, 0
5, 198656, Note_on_c, 1, 78, 50
5, 199339, Note_off_c, 1, 78, 0
5, 199339, Note_on_c, 1, 76, 50
5, 200021, Note_off_c, 1, 76, 0
5, 200021, Note_on_c, 1, 76, 50
5, 200704, Program_c, 1, 12
5, 200704, Note_off_c, 1, 76, 0
5, 200704, Note_on_c, 1, 78, 50
5, 200832, Note_off_c, 1, 78, 0
5, 200832, Note_on_c, 1, 78, 50
5, 200960, Note_off_c, 1, 78, 0
5, 200960, Note_on_c, 1, 78, 50
5, 201088, Note_off_c, 1, 78, 0
5, 201088, Note_on_c, 1, 78, 50
5, 201216, Note_off_c, 1, 78, 0
5, 201216, Note_on_c, 1, 78, 50
5, 201344, Note_off_c, 1, 78, 0
5, 201344, Note_on_c, 1, 78, 50
5, 201472, Note_off_c, 1, 78, 0
5, 201472, Note_on_c, 1, 78, 50
5, 201600, Note_off_c, 1, 78, 0
5, 201600, Note_on_c, 1, 78, 50
5, 201728, Note_off_c, 1, 78, 0
5, 201728, Note_on_c, 1, 78, 50
5, 201856, Note_off_c, 1, 78, 0
5, 201856, Note_on_c, 1, 78, 50
5, 201984, Note_off_c, 1, 78, 0
5, 201984, Note_on_c, 1, 78, 50
5, 202112, Note_off_c, 1, 78, 0
5, 202112, Note_on_c, 1, 78, 50
5, 202240, Note_off_c, 1, 78, 0
5, 202240, Note_on_c, 1, 78, 50
5, 202368, Note_off_c, 1, 78, 0
5, 202368, Note_on_c, 1, 78, 50
5, 202496, Note_off_c, 1, 78, 0
5, 202496, Note_on_c, 1, 78, 50
5, 202624, Note_off_c, 1, 78, 0
5, 202624, Note_on_c, 1, 78, 50
5, 202752, Note_off_c, 1, 78, 0
5, 202752, Note_on_c, 1, 66, 50
5, 203008, Note_off_c, 1, 66, 0
5, 203008, Note_on_c, 1, 71, 50
5, 203264, Note_off_c, 1, 71, 0
5, 203264, Note_on_c, 1, 71, 50
5, 203520, Note_off_c, 1, 71, 0
5, 203520, Note_on_c, 1, 69, 50
5, 203776, Note_off_c, 1, 69, 0
5, 203776, Note_on_c, 1, 71, 50
5, 204800, Program_c, 1, 12
5, 205056, Note_off_c, 1, 71, 0
5, 205056, Note_on_c, 1, 73, 50
5, 205312, Note_off_c, 1, 73, 0
5, 205312, Note_on_c, 1, 71, 50
5, 205824, Note_off_c, 1, 71, 0
5, 205824, Note_on_c, 1, 66, 50
5, 207360, Note_off_c, 1, 66, 0
5, 207360, Note_on_c, 1, 68, 50
5, 208384, Note_off_c, 1, 68, 0
5, 208384, Note_on_c, 1, 59, 50
5, 208896, Program_c, 1, 12
5, 208896, Note_off_c, 1, 59, 0
5, 208896, Note_on_c, 1, 60, 50
5, 209579, Note_off_c, 1, 60, 0
5, 209579, Note_on_c, 1, 70, 50
5, 210261, Note_off_c, 1, 70, 0
5, 210261, Note_on_c, 1, 65, 50
5, 210944, Note_off_c, 1, 65, 0
5, 210944, Note_on_c, 1, 75, 50
5, 211072, Note_off_c, 1, 75, 0
5, 211072, Note_on_c, 1, 75, 50
5, 211200, Note_off_c, 1, 75, 0
5, 211200, Note_on_c, 1, 75, 50
5, 211328, Note_off_c, 1, 75, 0
5, 211328, Note_on_c, 1, 75, 50
5, 211456, Note_off_c, 1, 75, 0
5, 211456, Note_on_c, 1, 75, 50
5, 211584, Note_off_c, 1, 75, 0
5, 211584, Note_on_c, 1, 75, 50
5, 211712, Note_off_c, 1, 75, 0
5, 211712, Note_on_c, 1, 75, 50
5, 211840, Note_off_c, 1, 75, 0
5, 211840, Note_on_c, 1, 75, 50
5, 211968, Note_off_c, 1, 75, 0
5, 211968, Note_on_c, 1, 75, 50
5, 212096, Note_off_c, 1, 75, 0
5, 212096, Note_on_c, 1, 75, 50
5, 212224, Note_off_c, 1, 75, 0
5, 212224, Note_on_c, 1, 75, 50
5, 212352, Note_off_c, 1, 75, 0
5, 212352, Note_on_c, 1, 75, 50
5, 212480, Note_off_c, 1, 75, 0
5, 212480, Note_on_c, 1, 75, 50
5, 212608, Note_off_c, 1, 75, 0
5, 212608, Note_on_c, 1, 75, 50
5, 212736, Note_off_c, 1, 75, 0
5, 212736, Note_on_c, 1, 75, 50
5, 212864, Note_off_c, 1, 75, 0
5, 212864, Note_on_c, 1, 75, 50
5, 212992, Program_c, 1, 12
5, 212992, Note_off_c, 1, 75, 0
5, 212992, Note_on_c, 1, 73, 50
5, 213675, Note_off_c, 1, 73, 0
5, 213675, Note_on_c, 1, 70, 50
5, 214016, Note_off_c, 1, 70, 0
5, 214016, Note_on_c, 1, 72, 50
5, 214144, Note_off_c, 1, 72, 0
5, 214144, Note_on_c, 1, 72, 50
5, 214272, Note_off_c, 1, 72, 0
5, 214272, Note_on_c, 1, 72, 50
5, 214400, Note_off_c, 1, 72, 0
5, 214400, Note_on_c, 1, 72, 50
5, 214528, Note_off_c, 1, 72, 0
5, 214528, Note_on_c, 1, 72, 50
5, 214656, Note_off_c, 1, 72, 0
5, 214656, Note_on_c, 1, 72, 50
5, 214784, Note_off_c, 1, 72, 0
5, 214784, Note_on_c, 1, 72, 50
5, 214912, Note_off_c, 1, 72, 0
5, 214912, Note_on_c, 1, 72, 50
5, 215040, Note_off_c, 1, 72, 0
5, 215040, Note_on_c, 1, 72, 50
5, 215168, Note_off_c, 1, 72, 0
5, 215168, Note_on_c, 1, 72, 50
5, 215296, Note_off_c, 1, 72, 0
5, 215296, Note_on_c, 1, 72, 50
5, 215424, Note_off_c, 1, 72, 0
5, 215424, Note_on_c, 1, 72, 50
5, 215552, Note_off_c, 1, 72, 0
5, 215552, Note_on_c, 1, 72, 50
5, 215680, Note_off_c, 1, 72, 0
5, 215680, Note_on_c, 1, 72, 50
5, 215808, Note_off_c, 1, 72, 0
5, 215808, Note_on_c, 1, 72, 50
5, 215936, Note_off_c, 1, 72, 0
5, 215936, Note_on_c, 1, 72, 50
5, 216064, Note_off_c, 1, 72, 0
5, 216064, Note_on_c, 1, 72, 50
5, 216192, Note_off_c, 1, 72, 0
5, 216192, Note_on_c, 1, 72, 50
5, 216320, Note_off_c, 1, 72, 0
5, 216320, Note_on_c, 1, 72, 50
5, 216448, Note_off_c, 1, 72, 0
5, 216448, Note_on_c, 1, 72, 50
5, 216576, Note_off_c, 1, 72, 0
5, 216576, Note_on_c, 1, 72, 50
5, 216704, Note_off_c, 1, 72, 0
5, 216704, Note_on_c, 1, 72, 50
5, 216832, Note_off_c, 1, 72, 0
5, 216832, Note_on_c, 1, 72, 50
5, 216960, Note_off_c, 1, 72, 0
5, 216960, Note_on_c, 1, 72, 50
5, 217088, Program_c, 1, 12
5, 217088, Note_off_c, 1, 72, 0
5, 217088, Note_on_c, 1, 72, 50
5, 217856, Note_off_c, 1, 72, 0
5, 217856, Note_on_c, 1, 75, 50
5, 218112, Note_off_c, 1, 75, 0
5, 218112, Note_on_c, 1, 68, 50
5, 219136, Note_off_c, 1, 68, 0
5, 219136, Note_on_c, 1, 73, 50
5, 219819, Note_off_c, 1, 73, 0
5, 219819, Note_on_c, 1, 78, 50
5, 220501, Note_off_c, 1, 78, 0
5, 220501, Note_on_c, 1, 70, 50
5, 221184, Program_c, 1, 12
5, 221184, Note_off_c, 1, 70, 0
5, 221184, Note_on_c, 1, 75, 50
5, 221696, Note_off_c, 1, 75, 0
5, 221696, Note_on_c, 1, 73, 50
5, 221952, Note_off_c, 1, 73, 0
5, 221952, Note_on_c, 1, 77, 50
5, 222208, Note_off_c, 1, 77, 0
5, 222208, Note_on_c, 1, 72, 50
5, 222336, Note_off_c, 1, 72, 0
5, 222336, Note_on_c, 1, 72, 50
5, 222464, Note_off_c, 1, 72, 0
5, 222464, Note_on_c, 1, 72, 50
5, 222592, Note_off_c, 1, 72, 0
5, 222592, Note_on_c, 1, 72, 50
5, 222720, Note_off_c, 1, 72, 0
5, 222720, Note_on_c, 1, 72, 50
5, 222848, Note_off_c, 1, 72, 0
5, 222848, Note_on_c, 1, 72, 50
5, 222976, Note_off_c, 1, 72, 0
5, 222976, Note_on_c, 1, 72, 50
5, 223104, Note_off_c, 1, 72, 0
5, 223104, Note_on_c, 1, 72, 50
5, 223232, Note_off_c, 1, 72, 0
5, 223232, Note_on_c, 1, 72, 50
5, 223360, Note_off_c, 1, 72, 0
5, 223360, Note_on_c, 1, 72, 50
5, 223488, Note_off_c, 1, 72, 0
5, 223488, Note_on_c, 1, 72, 50
5, 223616, Note_off_c, 1, 72, 0
5, 223616, Note_on_c, 1, 72, 50
5, 223744, Note_off_c, 1, 72, 0
5, 223744, Note_on_c, 1, 72, 50
5, 223872, Note_off_c, 1, 72, 0
5, 223872, Note_on_c, 1, 72, 50
5, 224000, Note_off_c, 1, 72, 0
5, 224000, Note_on_c, 1, 72, 50
5, 224128, Note_off_c, 1, 72, 0
5, 224128, Note_on_c, 1, 72, 50
5, 224256, Note_off_c, 1, 72, 0
5, 224256, Note_on_c, 1, 72, 50
5, 224384, Note_off_c, 1, 72, 0
5, 224384, Note_on_c, 1, 72, 50
5, 224512, Note_off_c, 1, 72, 0
5, 224512, Note_on_c, 1, 72, 50
5, 224640, Note_off_c, 1, 72, 0
5, 224640, Note_on_c, 1, 72, 50
5, 224768, Note_off_c, 1, 72, 0
5, 224768, Note_on_c, 1, 72, 50
5, 224896, Note_off_c, 1, 72, 0
5, 224896, Note_on_c, 1, 72, 50
5, 225024, Note_off_c, 1, 72, 0
5, 225024, Note_on_c, 1, 72, 50
5, 225152, Note_off_c, 1, 72, 0
5, 225152, Note_on_c, 1, 72, 50
5, 225280, Program_c, 1, 12
5, 225280, Note_off_c, 1, 72, 0
5, 225280, Note_on_c, 1, 72, 50
5, 225792, Note_off_c, 1, 72, 0
5, 225792, Note_on_c, 1, 76, 50
5, 226304, Note_off_c, 1, 76, 0
5, 226304, Note_on_c, 1, 74, 50
5, 226816, Note_off_c, 1, 74, 0
5, 226816, Note_on_c, 1, 77, 50
5, 227328, Note_off_c, 1, 77, 0
5, 227328, Note_on_c, 1, 76, 50
5, 227840, Note_off_c, 1, 76, 0
5, 227840, Note_on_c, 1, 67, 50
5, 228352, Note_off_c, 1, 67, 0
5, 228352, Note_on_c, 1, 77, 50
5, 228864, Note_off_c, 1, 77, 0
5, 228864, Note_on_c, 1, 74, 50
5, 229376, Program_c, 1, 12
5, 229376, Note_off_c, 1, 74, 0
5, 229376, Note_on_c, 1, 81, 50
5, 230059, Note_off_c, 1, 81, 0
5, 230059, Note_on_c, 1, 84, 50
5, 230741, Note_off_c, 1, 84, 0
5, 230741, Note_on_c, 1, 76, 50
5, 231424, Note_off_c, 1, 76, 0
5, 231424, Note_on_c, 1, 76, 50
5, 231834, Note_off_c, 1, 76, 0
5, 231834, Note_on_c, 1, 77, 50
5, 232243, Note_off_c, 1, 77, 0
5, 232243, Note_on_c, 1, 76, 50
5, 232653, Note_off_c, 1, 76, 0
5, 232653, Note_on_c, 1, 74, 50
5, 233062, Note_off_c, 1, 74, 0
5, 233062, Note_on_c, 1, 69, 50
5, 233472, Program_c, 1, 12
5, 233472, Note_off_c, 1, 69, 0
5, 233472, Note_on_c, 1, 71, 50
5, 233765, Note_off_c, 1, 71, 0
5, 233765, Note_on_c, 1, 72, 50
5, 234057, Note_off_c, 1, 72, 0
5, 234057, Note_on_c, 1, 72, 50
5, 234350, Note_off_c, 1, 72, 0
5, 234350, Note_on_c, 1, 74, 50
5, 234642, Note_off_c, 1, 74, 0
5, 234642, Note_on_c, 1, 74, 50
5, 234935, Note_off_c, 1, 74, 0
5, 234935, Note_on_c, 1, 76, 50
5, 235227, Note_off_c, 1, 76, 0
5, 235227, Note_on_c, 1, 77, 50
5, 235520, Note_off_c, 1, 77, 0
5, 235520, Note_on_c, 1, 81, 50
5, 235813, Note_off_c, 1, 81, 0
5, 235813, Note_on_c, 1, 67, 50
5, 236105, Note_off_c, 1, 67, 0
5, 236105, Note_on_c, 1, 67, 50
5, 236398, Note_off_c, 1, 67, 0
5, 236398, Note_on_c, 1, 74, 50
5, 236690, Note_off_c, 1, 74, 0
5, 236690, Note_on_c, 1, 65, 50
5, 236983, Note_off_c, 1, 65, 0
5, 236983, Note_on_c, 1, 65, 50
5, 237275, Note_off_c, 1, 65, 0
5, 237275, Note_on_c, 1, 64, 50
5, 237568, Program_c, 1, 12
5, 237568, Note_off_c, 1, 64, 0
5, 237568, Note_on_c, 1, 67, 50
5, 237696, Note_off_c, 1, 67, 0
5, 237696, Note_on_c, 1, 67, 50
5, 237824, Note_off_c, 1, 67, 0
5, 237824, Note_on_c, 1, 67, 50
5, 237952, Note_off_c, 1, 67, 0
5, 237952, Note_on_c, 1, 67, 50
5, 238080, Note_off_c, 1, 67, 0
5, 238080, Note_on_c, 1, 67, 50
5, 238208, Note_off_c, 1, 67, 0
5, 238208, Note_on_c, 1, 67, 50
5, 238336, Note_off_c, 1, 67, 0
5, 238336, Note_on_c, 1, 67, 50
5, 238464, Note_off_c, 1, 67, 0
5, 238464, Note_on_c, 1, 67, 50
5, 238592, Note_off_c, 1, 67, 0
5, 238592, Note_on_c, 1, 67, 50
5, 238720, Note_off_c, 1, 67, 0
5, 238720, Note_on_c, 1, 67, 50
5, 238848, Note_off_c, 1, 67, 0
5, 238848, Note_on_c, 1, 67, 50
5, 238976, Note_off_c, 1, 67, 0
5, 238976, Note_on_c, 1, 67, 50
5, 239104, Note_off_c, 1, 67, 0
5, 239104, Note_on_c, 1, 67, 50
5, 239232, Note_off_c, 1, 67, 0
5, 239232, Note_on_c, 1, 67, 50
5, 239360, Note_off_c, 1, 67, 0
5, 239360, Note_on_c, 1, 67, 50
5, 239488, Note_off_c, 1, 67, 0
5, 239488, Note_on_c, 1, 67, 50
5, 239616, Note_off_c, 1, 67, 0
5, 239616, Note_on_c, 1, 67, 50
5, 239744, Note_off_c, 1, 67, 0
5, 239744, Note_on_c, 1, 67, 50
5, 239872, Note_off_c, 1, 67, 0
5, 239872, Note_on_c, 1, 67, 50
5, 240000, Note_off_c, 1, 67, 0
5, 240000, Note_on_c, 1, 67, 50
5, 240128, Note_off_c, 1, 67, 0
5, 240128, Note_on_c, 1, 67, 50
5, 240256, Note_off_c, 1, 67, 0
5, 240256, Note_on_c, 1, 67, 50
5, 240384, Note_off_c, 1, 67, 0
5, 240384, Note_on_c, 1, 67, 50
5, 240512, Note_off_c, 1, 67, 0
5, 240512, Note_on_c, 1, 67, 50
5, 240640, Note_off_c, 1, 67, 0
5, 240640, Note_on_c, 1, 67, 50
5, 240768, Note_off_c, 1, 67, 0
5, 240768, Note_on_c, 1, 67, 50
5, 240896, Note_off_c, 1, 67, 0
5, 240896, Note_on_c, 1, 67, 50
5, 241024, Note_off_c, 1, 67, 0
5, 241024, Note_on_c, 1, 67, 50
5, 241152, Note_off_c, 1, 67, 0
5, 241152, Note_on_c, 1, 67, 50
5, 241280, Note_off_c, 1, 67, 0
5, 241280, Note_on_c, 1, 67, 50
5, 241408, Note_off_c, 1, 67, 0
5, 241408, Note_on_c, 1, 67, 50
5, 241536, Note_off_c, 1, 67, 0
5, 241536, Note_on_c, 1, 67, 50
5, 241664, Program_c, 1, 12
5, 241664, Note_off_c, 1, 67, 0
5, 241664, Note_on_c, 1, 67, 50
5, 241792, Note_off_c, 1, 67, 0
5, 241792, Note_on_c, 1, 67, 50
5, 241920, Note_off_c, 1, 67, 0
5, 241920, Note_on_c, 1, 67, 50
5, 242048, Note_off_c, 1, 67, 0
5, 242048, Note_on_c, 1, 67, 50
5, 242176, Note_off_c, 1, 67, 0
5, 242176, Note_on_c, 1, 67, 50
5, 242304, Note_off_c, 1, 67, 0
5, 242304, Note_on_c, 1, 67, 50
5, 242432, Note_off_c, 1, 67, 0
5, 242432, Note_on_c, 1, 67, 50
5, 242560, Note_off_c, 1, 67, 0
5, 242560, Note_on_c, 1, 67, 50
5, 242688, Note_off_c, 1, 67, 0
5, 242688, Note_on_c, 1, 67, 50
5, 242816, Note_off_c, 1, 67, 0
5, 242816, Note_on_c, 1, 67, 50
5, 242944, Note_off_c, 1, 67, 0
5, 242944, Note_on_c, 1, 67, 50
5, 243072, Note_off_c, 1, 67, 0
5, 243072, Note_on_c, 1, 67, 50
5, 243200, Note_off_c, 1, 67, 0
5, 243200, Note_on_c, 1, 67, 50
5, 243328, Note_off_c, 1, 67, 0
5, 243328, Note_on_c, 1, 67, 50
5, 243456, Note_off_c, 1, 67, 0
5, 243456, Note_on_c, 1, 67, 50
5, 243584, Note_off_c, 1, 67, 0
5, 243584, Note_on_c, 1, 67, 50
5, 243712, Note_off_c, 1, 67, 0
5, 243712, Note_on_c, 1, 67, 50
5, 243840, Note_off_c, 1, 67, 0
5, 243840, Note_on_c, 1, 67, 50
5, 243968, Note_off_c, 1, 67, 0
5, 243968, Note_on_c, 1, 67, 50
5, 244096, Note_off_c, 1, 67, 0
5, 244096, Note_on_c, 1, 67, 50
5, 244224, Note_off_c, 1, 67, 0
5, 244224, Note_on_c, 1, 67, 50
5, 244352, Note_off_c, 1, 67, 0
5, 244352, Note_on_c, 1, 67, 50
5, 244480, Note_off_c, 1, 67, 0
5, 244480, Note_on_c, 1, 67, 50
5, 244608, Note_off_c, 1, 67, 0
5, 244608, Note_on_c, 1, 67, 50
5, 244736, Note_off_c, 1, 67, 0
5, 244736, Note_on_c, 1, 67, 50
5, 244864, Note_off_c, 1, 67, 0
5, 244864, Note_on_c, 1, 67, 50
5, 244992, Note_off_c, 1, 67, 0
5, 244992, Note_on_c, 1, 67, 50
5, 245120, Note_off_c, 1, 67, 0
5, 245120, Note_on_c, 1, 67, 50
5, 245248, Note_off_c, 1, 67, 0
5, 245248, Note_on_c, 1, 67, 50
5, 245376, Note_off_c, 1, 67, 0
5, 245376, Note_on_c, 1, 67, 50
5, 245504, Note_off_c, 1, 67, 0
5, 245504, Note_on_c, 1, 67, 50
5, 245632, Note_off_c, 1, 67, 0
5, 245632, Note_on_c, 1, 67, 50
5, 245760, Program_c, 1, 12
5, 245760, Note_off_c, 1, 67, 0
5, 246784, Note_on_c, 1, 71, 50
5, 247296, Note_off_c, 1, 71, 0
5, 247296, Note_on_c, 1, 73, 50
5, 247808, Note_off_c, 1, 73, 0
5, 247808, Note_on_c, 1, 73, 50
5, 248491, Note_off_c, 1, 73, 0
5, 248491, Note_on_c, 1, 71, 50
5, 249173, Note_off_c, 1, 71, 0
5, 249173, Note_on_c, 1, 74, 50
5, 249856, Program_c, 1, 12
5, 249856, Note_off_c, 1, 74, 0
5, 249856, Note_on_c, 1, 77, 50
5, 250539, Note_off_c, 1, 77, 0
5, 250539, Note_on_c, 1, 69, 50
5, 251221, Note_off_c, 1, 69, 0
5, 251221, Note_on_c, 1, 69, 50
5, 251904, Note_off_c, 1, 69, 0
5, 251904, Note_on_c, 1, 70, 50
5, 253440, Note_off_c, 1, 70, 0
5, 253440, Note_on_c, 1, 73, 50
5, 253952, Program_c, 1, 12
5, 253952, Note_off_c, 1, 73, 0
5, 253952, Note_on_c, 1, 76, 50
5, 254635, Note_off_c, 1, 76, 0
5, 254635, Note_on_c, 1, 81, 50
5, 255317, Note_off_c, 1, 81, 0
5, 255317, Note_on_c, 1, 82, 50
5, 256000, Note_off_c, 1, 82, 0
5, 256000, Note_on_c, 1, 77, 50
5, 256683, Note_off_c, 1, 77, 0
5, 256683, Note_on_c, 1, 72, 50
5, 257365, Note_off_c, 1, 72, 0
5, 257365, Note_on_c, 1, 67, 50
5, 258048, Program_c, 1, 12
5, 258048, Note_off_c, 1, 67, 0
5, 258048, Note_on_c, 1, 69, 50
5, 258176, Note_off_c, 1, 69, 0
5, 258176, Note_on_c, 1, 69, 50
5, 258304, Note_off_c, 1, 69, 0
5, 258304, Note_on_c, 1, 69, 50
5, 258432, Note_off_c, 1, 69, 0
5, 258432, Note_on_c, 1, 69, 50
5, 258560, Note_off_c, 1, 69, 0
5, 258560, Note_on_c, 1, 69, 50
5, 258688, Note_off_c, 1, 69, 0
5, 258688, Note_on_c, 1, 69, 50
5, 258816, Note_off_c, 1, 69, 0
5, 258816, Note_on_c, 1, 69, 50
5, 258944, Note_off_c, 1, 69, 0
5, 258944, Note_on_c, 1, 69, 50
5, 259072, Note_off_c, 1, 69, 0
5, 259072, Note_on_c, 1, 69, 50
5, 259200, Note_off_c, 1, 69, 0
5, 259200, Note_on_c, 1, 69, 50
5, 259328, Note_off_c, 1, 69, 0
5, 259328, Note_on_c, 1, 69, 50
5, 259456, Note_off_c, 1, 69, 0
5, 259456, Note_on_c, 1, 69, 50
5, 259584, Note_off_c, 1, 69, 0
5, 259584, Note_on_c, 1, 69, 50
5, 259712, Note_off_c, 1, 69, 0
5, 259712, Note_on_c, 1, 69, 50
5, 259840, Note_off_c, 1, 69, 0
5, 259840, Note_on_c, 1, 69, 50
5, 259968, Note_off_c, 1, 69, 0
5, 259968, Note_on_c, 1, 69, 50
5, 260096, Note_off_c, 1, 69, 0
5, 260096, Note_on_c, 1, 69, 50
5, 260224, Note_off_c, 1, 69, 0
5, 260224, Note_on_c, 1, 69, 50
5, 260352, Note_off_c, 1, 69, 0
5, 260352, Note_on_c, 1, 69, 50
5, 260480, Note_off_c, 1, 69, 0
5, 260480, Note_on_c, 1, 69, 50
5, 260608, Note_off_c, 1, 69, 0
5, 260608, Note_on_c, 1, 69, 50
5, 260736, Note_off_c, 1, 69, 0
5, 260736, Note_on_c, 1, 69, 50
5, 260864, Note_off_c, 1, 69, 0
5, 260864, Note_on_c, 1, 69, 50
5, 260992, Note_off_c, 1, 69, 0
5, 260992, Note_on_c, 1, 69, 50
5, 261120, Note_off_c, 1, 69, 0
5, 261120, Note_on_c, 1, 69, 50
5, 261248, Note_off_c, 1, 69, 0
5, 261248, Note_on_c, 1, 69, 50
5, 261376, Note_off_c, 1, 69, 0
5, 261376, Note_on_c, 1, 69, 50
5, 261504, Note_off_c, 1, 69, 0
5, 261504, Note_on_c, 1, 69, 50
5, 261632, Note_off_c, 1, 69, 0
5, 261632, Note_on_c, 1, 69, 50
5, 261760, Note_off_c, 1, 69, 0
5, 261760, Note_on_c, 1, 69, 50
5, 261888, Note_off_c, 1, 69, 0
5, 261888, Note_on_c, 1, 69, 50
5, 262016, Note_off_c, 1, 69, 0
5, 262016, Note_on_c, 1, 69, 50
5, 262144, Program_c, 1, 12
5, 262144, Note_off_c, 1, 69, 0
5, 262144, Note_on_c, 1, 69, 50
5, 262272, Note_off_c, 1, 69, 0
5, 262272, Note_on_c, 1, 69, 50
5, 262400, Note_off_c, 1, 69, 0
5, 262400, Note_on_c, 1, 69, 50
5, 262528, Note_off_c, 1, 69, 0
5, 262528, Note_on_c, 1, 69, 50
5, 262656, Note_off_c, 1, 69, 0
5, 262656, Note_on_c, 1, 69, 50
5, 262784, Note_off_c, 1, 69, 0
5, 262784, Note_on_c, 1, 69, 50
5, 262912, Note_off_c, 1, 69, 0
5, 262912, Note_on_c, 1, 69, 50
5, 263040, Note_off_c, 1, 69, 0
5, 263040, Note_on_c, 1, 69, 50
5, 263168, Note_off_c, 1, 69, 0
5, 263168, Note_on_c, 1, 81, 50
5, 263296, Note_off_c, 1, 81, 0
5, 263296, Note_on_c, 1, 81, 50
5, 263424, Note_off_c, 1, 81, 0
5, 263424, Note_on_c, 1, 81, 50
5, 263552, Note_off_c, 1, 81, 0
5, 263552, Note_on_c, 1, 81, 50
5, 263680, Note_off_c, 1, 81, 0
5, 263680, Note_on_c, 1, 81, 50
5, 263808, Note_off_c, 1, 81, 0
5, 263808, Note_on_c, 1, 81, 50
5, 263936, Note_off_c, 1, 81, 0
5, 263936, Note_on_c, 1, 81, 50
5, 264064, Note_off_c, 1, 81, 0
5, 264064, Note_on_c, 1, 81, 50
5, 264192, Note_off_c, 1, 81, 0
5, 264192, Note_on_c, 1, 81, 50
5, 264320, Note_off_c, 1, 81, 0
5, 264320, Note_on_c, 1, 81, 50
5, 264448, Note_off_c, 1, 81, 0
5, 264448, Note_on_c, 1, 81, 50
5, 264576, Note_off_c, 1, 81, 0
5, 264576, Note_on_c, 1, 81, 50
5, 264704, Note_off_c, 1, 81, 0
5, 264704, Note_on_c, 1, 81, 50
5, 264832, Note_off_c, 1, 81, 0
5, 264832, Note_on_c, 1, 81, 50
5, 264960, Note_off_c, 1, 81, 0
5, 264960, Note_on_c, 1, 81, 50
5, 265088, Note_off_c, 1, 81, 0
5, 265088, Note_on_c, 1, 81, 50
5, 265216, Note_off_c, 1, 81, 0
5, 265216, Note_on_c, 1, 81, 50
5, 265344, Note_off_c, 1, 81, 0
5, 265344, Note_on_c, 1, 81, 50
5, 265472, Note_off_c, 1, 81, 0
5, 265472, Note_on_c, 1, 81, 50
5, 265600, Note_off_c, 1, 81, 0
5, 265600, Note_on_c, 1, 81, 50
5, 265728, Note_off_c, 1, 81, 0
5, 265728, Note_on_c, 1, 81, 50
5, 265856, Note_off_c, 1, 81, 0
5, 265856, Note_on_c, 1, 81, 50
5, 265984, Note_off_c, 1, 81, 0
5, 265984, Note_on_c, 1, 81, 50
5, 266112, Note_off_c, 1, 81, 0
5, 266112, Note_on_c, 1, 81, 50
5, 266240, Program_c, 1, 12
5, 266240, Note_off_c, 1, 81, 0
5, 266240, Note_on_c, 1, 81, 50
5, 266368, Note_off_c, 1, 81, 0
5, 266368, Note_on_c, 1, 81, 50
5, 266496, Note_off_c, 1, 81, 0
5, 266496, Note_on_c, 1, 81, 50
5, 266624, Note_off_c, 1, 81, 0
5, 266624, Note_on_c, 1, 81, 50
5, 266752, Note_off_c, 1, 81, 0
5, 266752, Note_on_c, 1, 81, 50
5, 266880, Note_off_c, 1, 81, 0
5, 266880, Note_on_c, 1, 81, 50
5, 267008, Note_off_c, 1, 81, 0
5, 267008, Note_on_c, 1, 81, 50
5, 267136, Note_off_c, 1, 81, 0
5, 267136, Note_on_c, 1, 81, 50
5, 267264, Note_off_c, 1, 81, 0
5, 267264, Note_on_c, 1, 81, 50
5, 267392, Note_off_c, 1, 81, 0
5, 267392, Note_on_c, 1, 81, 50
5, 267520, Note_off_c, 1, 81, 0
5, 267520, Note_on_c, 1, 81, 50
5, 267648, Note_off_c, 1, 81, 0
5, 267648, Note_on_c, 1, 81, 50
5, 267776, Note_off_c, 1, 81, 0
5, 267776, Note_on_c, 1, 81, 50
5, 268288, Note_off_c, 1, 81, 0
5, 268288, Note_on_c, 1, 81, 50
5, 268416, Note_off_c, 1, 81, 0
5, 268416, Note_on_c, 1, 81, 50
5, 268544, Note_off_c, 1, 81, 0
5, 268544, Note_on_c, 1, 81, 50
5, 268672, Note_off_c, 1, 81, 0
5, 268672, Note_on_c, 1, 81, 50
5, 268800, Note_off_c, 1, 81, 0
5, 268800, Note_on_c, 1, 81, 50
5, 268928, Note_off_c, 1, 81, 0
5, 268928, Note_on_c, 1, 81, 50
5, 269056, Note_off_c, 1, 81, 0
5, 269056, Note_on_c, 1, 81, 50
5, 269184, Note_off_c, 1, 81, 0
5, 269184, Note_on_c, 1, 81, 50
5, 269312, Note_off_c, 1, 81, 0
5, 269312, Note_on_c, 1, 81, 50
5, 269440, Note_off_c, 1, 81, 0
5, 269440, Note_on_c, 1, 81, 50
5, 269568, Note_off_c, 1, 81, 0
5, 269568, Note_on_c, 1, 81, 50
5, 269696, Note_off_c, 1, 81, 0
5, 269696, Note_on_c, 1, 81, 50
5, 269824, Note_off_c, 1, 81, 0
5, 269824, Note_on_c, 1, 81, 50
5, 269952, Note_off_c, 1, 81, 0
5, 269952, Note_on_c, 1, 81, 50
5, 270080, Note_off_c, 1, 81, 0
5, 270080, Note_on_c, 1, 81, 50
5, 270208, Note_off_c, 1, 81, 0
5, 270208, Note_on_c, 1, 81, 50
5, 270336, Program_c, 1, 12
5, 270336, Note_off_c, 1, 81, 0
5, 270336, Note_on_c, 1, 81, 50
5, 270464, Note_off_c, 1, 81, 0
5, 270464, Note_on_c, 1, 81, 50
5, 270592, Note_off_c, 1, 81, 0
5, 270592, Note_on_c, 1, 81, 50
5, 270720, Note_off_c, 1, 81, 0
5, 270720, Note_on_c, 1, 81, 50
5, 270848, Note_off_c, 1, 81, 0
5, 270848, Note_on_c, 1, 81, 50
5, 270976, Note_off_c, 1, 81, 0
5, 270976, Note_on_c, 1, 81, 50
5, 271104, Note_off_c, 1, 81, 0
5, 271104, Note_on_c, 1, 81, 50
5, 271232, Note_off_c, 1, 81, 0
5, 271232, Note_on_c, 1, 81, 50
5, 271360, Note_off_c, 1, 81, 0
5, 271360, Note_on_c, 1, 81, 50
5, 271488, Note_off_c, 1, 81, 0
5, 271488, Note_on_c, 1, 81, 50
5, 271616, Note_off_c, 1, 81, 0
5, 271616, Note_on_c, 1, 81, 50
5, 271744, Note_off_c, 1, 81, 0
5, 271744, Note_on_c, 1, 81, 50
5, 271872, Note_off_c, 1, 81, 0
5, 271872, Note_on_c, 1, 81, 50
5, 272000, Note_off_c, 1, 81, 0
5, 272000, Note_on_c, 1, 81, 50
5, 272128, Note_off_c, 1, 81, 0
5, 272128, Note_on_c, 1, 81, 50
5, 272256, Note_off_c, 1, 81, 0
5, 272256, Note_on_c, 1, 81, 50
5, 272384, Note_off_c, 1, 81, 0
5, 272384, Note_on_c, 1, 81, 50
5, 272512, Note_off_c, 1, 81, 0
5, 272512, Note_on_c, 1, 81, 50
5, 272640, Note_off_c, 1, 81, 0
5, 272640, Note_on_c, 1, 81, 50
5, 272768, Note_off_c, 1, 81, 0
5, 272768, Note_on_c, 1, 81, 50
5, 272896, Note_off_c, 1, 81, 0
5, 273408, Note_on_c, 1, 69, 50
5, 273536, Note_off_c, 1, 69, 0
5, 273536, Note_on_c, 1, 69, 50
5, 273664, Note_off_c, 1, 69, 0
5, 273664, Note_on_c, 1, 69, 50
5, 273792, Note_off_c, 1, 69, 0
5, 273792, Note_on_c, 1, 69, 50
5, 273920, Note_off_c, 1, 69, 0
5, 273920, Note_on_c, 1, 69, 50
5, 274048, Note_off_c, 1, 69, 0
5, 274048, Note_on_c, 1, 69, 50
5, 274176, Note_off_c, 1, 69, 0
5, 274176, Note_on_c, 1, 69, 50
5, 274304, Note_off_c, 1, 69, 0
5, 274304, Note_on_c, 1, 69, 50
5, 274432, Program_c, 1, 12
5, 274432, Note_off_c, 1, 69, 0
5, 274432, Note_on_c, 1, 69, 50
5, 274560, Note_off_c, 1, 69, 0
5, 274560, Note_on_c, 1, 69, 50
5, 274688, Note_off_c, 1, 69, 0
5, 274688, Note_on_c, 1, 69, 50
5, 274816, Note_off_c, 1, 69, 0
5, 274816, Note_on_c, 1, 69, 50
5, 274944, Note_off_c, 1, 69, 0
5, 274944, Note_on_c, 1, 69, 50
5, 275072, Note_off_c, 1, 69, 0
5, 275072, Note_on_c, 1, 69, 50
5, 275200, Note_off_c, 1, 69, 0
5, 275200, Note_on_c, 1, 69, 50
5, 275328, Note_off_c, 1, 69, 0
5, 275328, Note_on_c, 1, 69, 50
5, 275456, Note_off_c, 1, 69, 0
5, 275456, Note_on_c, 1, 69, 50
5, 275584, Note_off_c, 1, 69, 0
5, 275584, Note_on_c, 1, 69, 50
5, 275712, Note_off_c, 1, 69, 0
5, 275712, Note_on_c, 1, 69, 50
5, 275840, Note_off_c, 1, 69, 0
5, 275840, Note_on_c, 1, 69, 50
5, 275968, Note_off_c, 1, 69, 0
5, 275968, Note_on_c, 1, 69, 50
5, 276096, Note_off_c, 1, 69, 0
5, 276096, Note_on_c, 1, 69, 50
5, 276224, Note_off_c, 1, 69, 0
5, 276224, Note_on_c, 1, 69, 50
5, 276352, Note_off_c, 1, 69, 0
5, 276352, Note_on_c, 1, 69, 50
5, 276480, Note_off_c, 1, 69, 0
5, 276480, Note_on_c, 1, 69, 50
5, 276608, Note_off_c, 1, 69, 0
5, 276608, Note_on_c, 1, 69, 50
5, 276736, Note_off_c, 1, 69, 0
5, 276736, Note_on_c, 1, 69, 50
5, 276864, Note_off_c, 1, 69, 0
5, 276864, Note_on_c, 1, 69, 50
5, 276992, Note_off_c, 1, 69, 0
5, 276992, Note_on_c, 1, 69, 50
5, 277120, Note_off_c, 1, 69, 0
5, 277120, Note_on_c, 1, 69, 50
5, 277248, Note_off_c, 1, 69, 0
5, 277248, Note_on_c, 1, 69, 50
5, 277376, Note_off_c, 1, 69, 0
5, 277376, Note_on_c, 1, 69, 50
5, 277504, Note_off_c, 1, 69, 0
5, 277504, Note_on_c, 1, 69, 50
5, 277632, Note_off_c, 1, 69, 0
5, 277632, Note_on_c, 1, 71, 50
5, 277760, Note_off_c, 1, 71, 0
5, 277760, Note_on_c, 1, 72, 50
5, 277888, Note_off_c, 1, 72, 0
5, 277888, Note_on_c, 1, 74, 50
5, 278016, Note_off_c, 1, 74, 0
5, 278016, Note_on_c, 1, 76, 50
5, 278144, Note_off_c, 1, 76, 0
5, 278144, Note_on_c, 1, 77, 50
5, 278272, Note_off_c, 1, 77, 0
5, 278272, Note_on_c, 1, 79, 50
5, 278400, Note_off_c, 1, 79, 0
5, 278400, Note_on_c, 1, 81, 50
5, 278528, Program_c, 1, 12
5, 278528, Note_off_c, 1, 81, 0
5, 278528, Note_on_c, 1, 83, 50
5, 278656, Note_off_c, 1, 83, 0
5, 278656, Note_on_c, 1, 83, 50
5, 278784, Note_off_c, 1, 83, 0
5, 278784, Note_on_c, 1, 83, 50
5, 278912, Note_off_c, 1, 83, 0
5, 278912, Note_on_c, 1, 83, 50
5, 279040, Note_off_c, 1, 83, 0
5, 279040, Note_on_c, 1, 83, 50
5, 279168, Note_off_c, 1, 83, 0
5, 279168, Note_on_c, 1, 83, 50
5, 279296, Note_off_c, 1, 83, 0
5, 279296, Note_on_c, 1, 83, 50
5, 279424, Note_off_c, 1, 83, 0
5, 279424, Note_on_c, 1, 83, 50
5, 279552, Note_off_c, 1, 83, 0
5, 279552, Note_on_c, 1, 83, 50
5, 279680, Note_off_c, 1, 83, 0
5, 279680, Note_on_c, 1, 83, 50
5, 279808, Note_off_c, 1, 83, 0
5, 279808, Note_on_c, 1, 83, 50
5, 279936, Note_off_c, 1, 83, 0
5, 279936, Note_on_c, 1, 83, 50
5, 280064, Note_off_c, 1, 83, 0
5, 280064, Note_on_c, 1, 83, 50
5, 280192, Note_off_c, 1, 83, 0
5, 280192, Note_on_c, 1, 83, 50
5, 280320, Note_off_c, 1, 83, 0
5, 280320, Note_on_c, 1, 83, 50
5, 280448, Note_off_c, 1, 83, 0
5, 280448, Note_on_c, 1, 83, 50
5, 280576, Note_off_c, 1, 83, 0
5, 280576, Note_on_c, 1, 83, 50
5, 280704, Note_off_c, 1, 83, 0
5, 280704, Note_on_c, 1, 83, 50
5, 280832, Note_off_c, 1, 83, 0
5, 280832, Note_on_c, 1, 83, 50
5, 280960, Note_off_c, 1, 83, 0
5, 280960, Note_on_c, 1, 83, 50
5, 281088, Note_off_c, 1, 83, 0
5, 281088, Note_on_c, 1, 83, 50
5, 281216, Note_off_c, 1, 83, 0
5, 281216, Note_on_c, 1, 83, 50
5, 281344, Note_off_c, 1, 83, 0
5, 281344, Note_on_c, 1, 83, 50
5, 281472, Note_off_c, 1, 83, 0
5, 281472, Note_on_c, 1, 83, 50
5, 281600, Note_off_c, 1, 83, 0
5, 281600, Note_on_c, 1, 83, 50
5, 281728, Note_off_c, 1, 83, 0
5, 281728, Note_on_c, 1, 83, 50
5, 281856, Note_off_c, 1, 83, 0
5, 281856, Note_on_c, 1, 83, 50
5, 281984, Note_off_c, 1, 83, 0
5, 281984, Note_on_c, 1, 83, 50
5, 282112, Note_off_c, 1, 83, 0
5, 282112, Note_on_c, 1, 83, 50
5, 282240, Note_off_c, 1, 83, 0
5, 282240, Note_on_c, 1, 83, 50
5, 282368, Note_off_c, 1, 83, 0
5, 282368, Note_on_c, 1, 83, 50
5, 282496, Note_off_c, 1, 83, 0
5, 282496, Note_on_c, 1, 83, 50
5, 282624, Program_c, 1, 12
5, 282624, Note_off_c, 1, 83, 0
5, 282624, Note_on_c, 1, 83, 50
5, 282752, Note_off_c, 1, 83, 0
5, 282752, Note_on_c, 1, 83, 50
5, 282880, Note_off_c, 1, 83, 0
5, 282880, Note_on_c, 1, 83, 50
5, 283008, Note_off_c, 1, 83, 0
5, 283008, Note_on_c, 1, 83, 50
5, 283136, Note_off_c, 1, 83, 0
5, 283136, Note_on_c, 1, 83, 50
5, 283648, Note_off_c, 1, 83, 0
5, 283648, Note_on_c, 1, 73, 50
5, 283776, Note_off_c, 1, 73, 0
5, 283776, Note_on_c, 1, 73, 50
5, 283904, Note_off_c, 1, 73, 0
5, 283904, Note_on_c, 1, 73, 50
5, 284032, Note_off_c, 1, 73, 0
5, 284032, Note_on_c, 1, 73, 50
5, 284160, Note_off_c, 1, 73, 0
5, 284160, Note_on_c, 1, 73, 50
5, 284288, Note_off_c, 1, 73, 0
5, 284288, Note_on_c, 1, 73, 50
5, 284416, Note_off_c, 1, 73, 0
5, 284416, Note_on_c, 1, 73, 50
5, 284544, Note_off_c, 1, 73, 0
5, 284544, Note_on_c, 1, 73, 50
5, 284672, Note_off_c, 1, 73, 0
5, 284672, Note_on_c, 1, 73, 50
5, 284800, Note_off_c, 1, 73, 0
5, 284800, Note_on_c, 1, 73, 50
5, 284928, Note_off_c, 1, 73, 0
5, 284928, Note_on_c, 1, 73, 50
5, 285056, Note_off_c, 1, 73, 0
5, 285056, Note_on_c, 1, 73, 50
5, 285184, Note_off_c, 1, 73, 0
5, 285184, Note_on_c, 1, 73, 50
5, 285312, Note_off_c, 1, 73, 0
5, 285312, Note_on_c, 1, 73, 50
5, 285440, Note_off_c, 1, 73, 0
5, 285440, Note_on_c, 1, 73, 50
5, 285568, Note_off_c, 1, 73, 0
5, 285568, Note_on_c, 1, 73, 50
5, 285696, Note_off_c, 1, 73, 0
5, 285696, Note_on_c, 1, 73, 50
5, 285824, Note_off_c, 1, 73, 0
5, 285824, Note_on_c, 1, 73, 50
5, 285952, Note_off_c, 1, 73, 0
5, 285952, Note_on_c, 1, 73, 50
5, 286080, Note_off_c, 1, 73, 0
5, 286080, Note_on_c, 1, 73, 50
5, 286208, Note_off_c, 1, 73, 0
5, 286208, Note_on_c, 1, 73, 50
5, 286336, Note_off_c, 1, 73, 0
5, 286336, Note_on_c, 1, 73, 50
5, 286464, Note_off_c, 1, 73, 0
5, 286464, Note_on_c, 1, 73, 50
5, 286592, Note_off_c, 1, 73, 0
5, 286592, Note_on_c, 1, 73, 50
5, 286720, Program_c, 1, 12
5, 286720, Note_off_c, 1, 73, 0
5, 286720, Note_on_c, 1, 73, 50
5, 286848, Note_off_c, 1, 73, 0
5, 286848, Note_on_c, 1, 73, 50
5, 286976, Note_off_c, 1, 73, 0
5, 286976, Note_on_c, 1, 73, 50
5, 287104, Note_off_c, 1, 73, 0
5, 287104, Note_on_c, 1, 73, 50
5, 287232, Note_off_c, 1, 73, 0
5, 287232, Note_on_c, 1, 73, 50
5, 287360, Note_off_c, 1, 73, 0
5, 287360, Note_on_c, 1, 73, 50
5, 287488, Note_off_c, 1, 73, 0
5, 287488, Note_on_c, 1, 73, 50
5, 287616, Note_off_c, 1, 73, 0
5, 287616, Note_on_c, 1, 73, 50
5, 287744, Note_off_c, 1, 73, 0
5, 287744, Note_on_c, 1, 73, 50
5, 287872, Note_off_c, 1, 73, 0
5, 287872, Note_on_c, 1, 73, 50
5, 288000, Note_off_c, 1, 73, 0
5, 288000, Note_on_c, 1, 73, 50
5, 288128, Note_off_c, 1, 73, 0
5, 288128, Note_on_c, 1, 73, 50
5, 288256, Note_off_c, 1, 73, 0
5, 288256, Note_on_c, 1, 73, 50
5, 288384, Note_off_c, 1, 73, 0
5, 288384, Note_on_c, 1, 73, 50
5, 288512, Note_off_c, 1, 73, 0
5, 288512, Note_on_c, 1, 73, 50
5, 288640, Note_off_c, 1, 73, 0
5, 288640, Note_on_c, 1, 73, 50
5, 288768, Note_off_c, 1, 73, 0
5, 288768, Note_on_c, 1, 76, 50
5, 288896, Note_off_c, 1, 76, 0
5, 288896, Note_on_c, 1, 76, 50
5, 289024, Note_off_c, 1, 76, 0
5, 289024, Note_on_c, 1, 76, 50
5, 289152, Note_off_c, 1, 76, 0
5, 289152, Note_on_c, 1, 76, 50
5, 289280, Note_off_c, 1, 76, 0
5, 289280, Note_on_c, 1, 76, 50
5, 289408, Note_off_c, 1, 76, 0
5, 289408, Note_on_c, 1, 76, 50
5, 289536, Note_off_c, 1, 76, 0
5, 289536, Note_on_c, 1, 76, 50
5, 289664, Note_off_c, 1, 76, 0
5, 289664, Note_on_c, 1, 76, 50
5, 289792, Note_off_c, 1, 76, 0
5, 289792, Note_on_c, 1, 76, 50
5, 289920, Note_off_c, 1, 76, 0
5, 289920, Note_on_c, 1, 76, 50
5, 290048, Note_off_c, 1, 76, 0
5, 290048, Note_on_c, 1, 76, 50
5, 290176, Note_off_c, 1, 76, 0
5, 290176, Note_on_c, 1, 76, 50
5, 290304, Note_off_c, 1, 76, 0
5, 290304, Note_on_c, 1, 76, 50
5, 290432, Note_off_c, 1, 76, 0
5, 290432, Note_on_c, 1, 76, 50
5, 290560, Note_off_c, 1, 76, 0
5, 290560, Note_on_c, 1, 76, 50
5, 290688, Note_off_c, 1, 76, 0
5, 290688, Note_on_c, 1, 76, 50
5, 290816, Program_c, 1, 12
5, 290816, Note_off_c, 1, 76, 0
5, 290816, Note_on_c, 1, 76, 50
5, 290944, Note_off_c, 1, 76, 0
5, 290944, Note_on_c, 1, 76, 50
5, 291072, Note_off_c, 1, 76, 0
5, 291072, Note_on_c, 1, 76, 50
5, 291200, Note_off_c, 1, 76, 0
5, 291200, Note_on_c, 1, 76, 50
5, 291328, Note_off_c, 1, 76, 0
5, 291328, Note_on_c, 1, 76, 50
5, 291456, Note_off_c, 1, 76, 0
5, 291456, Note_on_c, 1, 76, 50
5, 291584, Note_off_c, 1, 76, 0
5, 291584, Note_on_c, 1, 76, 50
5, 291712, Note_off_c, 1, 76, 0
5, 291712, Note_on_c, 1, 76, 50
5, 291840, Note_off_c, 1, 76, 0
5, 291840, Note_on_c, 1, 76, 50
5, 291968, Note_off_c, 1, 76, 0
5, 291968, Note_on_c, 1, 76, 50
5, 292096, Note_off_c, 1, 76, 0
5, 292096, Note_on_c, 1, 76, 50
5, 292224, Note_off_c, 1, 76, 0
5, 292224, Note_on_c, 1, 76, 50
5, 292352, Note_off_c, 1, 76, 0
5, 292352, Note_on_c, 1, 76, 50
5, 292480, Note_off_c, 1, 76, 0
5, 292480, Note_on_c, 1, 76, 50
5, 292608, Note_off_c, 1, 76, 0
5, 292608, Note_on_c, 1, 76, 50
5, 292736, Note_off_c, 1, 76, 0
5, 292736, Note_on_c, 1, 76, 50
5, 292864, Note_off_c, 1, 76, 0
5, 292864, Note_on_c, 1, 76, 50
5, 292992, Note_off_c, 1, 76, 0
5, 292992, Note_on_c, 1, 76, 50
5, 293120, Note_off_c, 1, 76, 0
5, 293120, Note_on_c, 1, 76, 50
5, 293248, Note_off_c, 1, 76, 0
5, 293248, Note_on_c, 1, 76, 50
5, 293376, Note_off_c, 1, 76, 0
5, 293376, Note_on_c, 1, 76, 50
5, 293504, Note_off_c, 1, 76, 0
5, 293504, Note_on_c, 1, 76, 50
5, 293632, Note_off_c, 1, 76, 0
5, 293632, Note_on_c, 1, 76, 50
5, 293760, Note_off_c, 1, 76, 0
5, 293760, Note_on_c, 1, 76, 50
5, 293888, Note_off_c, 1, 76, 0
5, 293888, Note_on_c, 1, 73, 50
5, 294016, Note_off_c, 1, 73, 0
5, 294016, Note_on_c, 1, 73, 50
5, 294144, Note_off_c, 1, 73, 0
5, 294144, Note_on_c, 1, 73, 50
5, 294272, Note_off_c, 1, 73, 0
5, 294272, Note_on_c, 1, 73, 50
5, 294400, Note_off_c, 1, 73, 0
5, 294400, Note_on_c, 1, 73, 50
5, 294528, Note_off_c, 1, 73, 0
5, 294528, Note_on_c, 1, 73, 50
5, 294656, Note_off_c, 1, 73, 0
5, 294656, Note_on_c, 1, 73, 50
5, 294784, Note_off_c, 1, 73, 0
5, 294784, Note_on_c, 1, 73, 50
5, 294912, Program_c, 1, 12
5, 294912, Note_off_c, 1, 73, 0
5, 294912, Note_on_c, 1, 73, 50
5, 295040, Note_off_c, 1, 73, 0
5, 295040, Note_on_c, 1, 73, 50
5, 295168, Note_off_c, 1, 73, 0
5, 295168, Note_on_c, 1, 73, 50
5, 295296, Note_off_c, 1, 73, 0
5, 295296, Note_on_c, 1, 73, 50
5, 295424, Note_off_c, 1, 73, 0
5, 295424, Note_on_c, 1, 73, 50
5, 295552, Note_off_c, 1, 73, 0
5, 295552, Note_on_c, 1, 73, 50
5, 295680, Note_off_c, 1, 73, 0
5, 295680, Note_on_c, 1, 73, 50
5, 295808, Note_off_c, 1, 73, 0
5, 295808, Note_on_c, 1, 73, 50
5, 295936, Note_off_c, 1, 73, 0
5, 295936, Note_on_c, 1, 73, 50
5, 296064, Note_off_c, 1, 73, 0
5, 296064, Note_on_c, 1, 73, 50
5, 296192, Note_off_c, 1, 73, 0
5, 296192, Note_on_c, 1, 73, 50
5, 296320, Note_off_c, 1, 73, 0
5, 296320, Note_on_c, 1, 73, 50
5, 296448, Note_off_c, 1, 73, 0
5, 296448, Note_on_c, 1, 73, 50
5, 296576, Note_off_c, 1, 73, 0
5, 296576, Note_on_c, 1, 73, 50
5, 296704, Note_off_c, 1, 73, 0
5, 296704, Note_on_c, 1, 73, 50
5, 296832, Note_off_c, 1, 73, 0
5, 296832, Note_on_c, 1, 73, 50
5, 296960, Note_off_c, 1, 73, 0
5, 296960, Note_on_c, 1, 73, 50
5, 297088, Note_off_c, 1, 73, 0
5, 297088, Note_on_c, 1, 73, 50
5, 297216, Note_off_c, 1, 73, 0
5, 297216, Note_on_c, 1, 73, 50
5, 297344, Note_off_c, 1, 73, 0
5, 297344, Note_on_c, 1, 73, 50
5, 297472, Note_off_c, 1, 73, 0
5, 297472, Note_on_c, 1, 73, 50
5, 297600, Note_off_c, 1, 73, 0
5, 297600, Note_on_c, 1, 73, 50
5, 297728, Note_off_c, 1, 73, 0
5, 297728, Note_on_c, 1, 73, 50
5, 297856, Note_off_c, 1, 73, 0
5, 297856, Note_on_c, 1, 73, 50
5, 297984, Note_off_c, 1, 73, 0
5, 299008, Program_c, 1, 12
5, 299008, Note_on_c, 1, 71, 50
5, 299520, Note_off_c, 1, 71, 0
5, 299520, Note_on_c, 1, 72, 50
5, 300032, Note_off_c, 1, 72, 0
5, 300032, Note_on_c, 1, 72, 50
5, 300373, Note_off_c, 1, 72, 0
5, 300373, Note_on_c, 1, 69, 50
5, 300715, Note_off_c, 1, 69, 0
5, 300715, Note_on_c, 1, 74, 50
5, 301056, Note_off_c, 1, 74, 0
5, 301056, Note_on_c, 1, 75, 50
5, 301466, Note_off_c, 1, 75, 0
5, 301466, Note_on_c, 1, 67, 50
5, 301875, Note_off_c, 1, 67, 0
5, 301875, Note_on_c, 1, 67, 50
5, 302285, Note_off_c, 1, 67, 0
5, 302285, Note_on_c, 1, 69, 50
5, 302694, Note_off_c, 1, 69, 0
5, 302694, Note_on_c, 1, 65, 50
5, 303104, Program_c, 1, 12
5, 303104, Note_off_c, 1, 65, 0
5, 303104, Note_on_c, 1, 64, 50
5, 303787, Note_off_c, 1, 64, 0
5, 303787, Note_on_c, 1, 67, 50
5, 304469, Note_off_c, 1, 67, 0
5, 304469, Note_on_c, 1, 67, 50
5, 305152, Note_off_c, 1, 67, 0
5, 305152, Note_on_c, 1, 65, 50
5, 305835, Note_off_c, 1, 65, 0
5, 305835, Note_on_c, 1, 65, 50
5, 306517, Note_off_c, 1, 65, 0
5, 306517, Note_on_c, 1, 70, 50
5, 307200, Program_c, 1, 12
5, 307200, Note_off_c, 1, 70, 0
5, 307200, Note_on_c, 1, 71, 50
5, 307328, Note_off_c, 1, 71, 0
5, 307328, Note_on_c, 1, 71, 50
5, 307456, Note_off_c, 1, 71, 0
5, 307456, Note_on_c, 1, 71, 50
5, 307584, Note_off_c, 1, 71, 0
5, 307584, Note_on_c, 1, 71, 50
5, 307712, Note_off_c, 1, 71, 0
5, 307712, Note_on_c, 1, 71, 50
5, 307840, Note_off_c, 1, 71, 0
5, 307840, Note_on_c, 1, 71, 50
5, 307968, Note_off_c, 1, 71, 0
5, 307968, Note_on_c, 1, 71, 50
5, 308096, Note_off_c, 1, 71, 0
5, 308096, Note_on_c, 1, 71, 50
5, 308224, Note_off_c, 1, 71, 0
5, 308224, Note_on_c, 1, 71, 50
5, 308352, Note_off_c, 1, 71, 0
5, 308352, Note_on_c, 1, 71, 50
5, 308480, Note_off_c, 1, 71, 0
5, 308480, Note_on_c, 1, 71, 50
5, 308608, Note_off_c, 1, 71, 0
5, 308608, Note_on_c, 1, 71, 50
5, 308736, Note_off_c, 1, 71, 0
5, 308736, Note_on_c, 1, 71, 50
5, 308864, Note_off_c, 1, 71, 0
5, 308864, Note_on_c, 1, 71, 50
5, 308992, Note_off_c, 1, 71, 0
5, 308992, Note_on_c, 1, 71, 50
5, 309120, Note_off_c, 1, 71, 0
5, 309120, Note_on_c, 1, 71, 50
5, 309248, Note_off_c, 1, 71, 0
5, 309248, Note_on_c, 1, 71, 50
5, 309376, Note_off_c, 1, 71, 0
5, 309376, Note_on_c, 1, 71, 50
5, 309504, Note_off_c, 1, 71, 0
5, 309504, Note_on_c, 1, 71, 50
5, 309632, Note_off_c, 1, 71, 0
5, 309632, Note_on_c, 1, 71, 50
5, 309760, Note_off_c, 1, 71, 0
5, 309760, Note_on_c, 1, 71, 50
5, 309888, Note_off_c, 1, 71, 0
5, 309888, Note_on_c, 1, 71, 50
5, 310016, Note_off_c, 1, 71, 0
5, 310016, Note_on_c, 1, 71, 50
5, 310144, Note_off_c, 1, 71, 0
5, 310144, Note_on_c, 1, 71, 50
5, 310272, Note_off_c, 1, 71, 0
5, 310272, Note_on_c, 1, 71, 50
5, 310400, Note_off_c, 1, 71, 0
5, 310400, Note_on_c, 1, 71, 50
5, 310528, Note_off_c, 1, 71, 0
5, 310528, Note_on_c, 1, 71, 50
5, 310656, Note_off_c, 1, 71, 0
5, 310656, Note_on_c, 1, 71, 50
5, 310784, Note_off_c, 1, 71, 0
5, 310784, Note_on_c, 1, 71, 50
5, 310912, Note_off_c, 1, 71, 0
5, 310912, Note_on_c, 1, 71, 50
5, 311040, Note_off_c, 1, 71, 0
5, 311040, Note_on_c, 1, 71, 50
5, 311168, Note_off_c, 1, 71, 0
5, 311168, Note_on_c, 1, 71, 50
5, 311296, Program_c, 1, 12
5, 311296, Note_off_c, 1, 71, 0
5, 311296, Note_on_c, 1, 71, 50
5, 311424, Note_off_c, 1, 71, 0
5, 311424, Note_on_c, 1, 71, 50
5, 311552, Note_off_c, 1, 71, 0
5, 311552, Note_on_c, 1, 71, 50
5, 311680, Note_off_c, 1, 71, 0
5, 311680, Note_on_c, 1, 71, 50
5, 311808, Note_off_c, 1, 71, 0
5, 311808, Note_on_c, 1, 71, 50
5, 311936, Note_off_c, 1, 71, 0
5, 311936, Note_on_c, 1, 71, 50
5, 312064, Note_off_c, 1, 71, 0
5, 312064, Note_on_c, 1, 71, 50
5, 312192, Note_off_c, 1, 71, 0
5, 312192, Note_on_c, 1, 71, 50
5, 312320, Note_off_c, 1, 71, 0
5, 312320, Note_on_c, 1, 71, 50
5, 312448, Note_off_c, 1, 71, 0
5, 312448, Note_on_c, 1, 71, 50
5, 312576, Note_off_c, 1, 71, 0
5, 312576, Note_on_c, 1, 71, 50
5, 312704, Note_off_c, 1, 71, 0
5, 312704, Note_on_c, 1, 71, 50
5, 312832, Note_off_c, 1, 71, 0
5, 312832, Note_on_c, 1, 71, 50
5, 312960, Note_off_c, 1, 71, 0
5, 312960, Note_on_c, 1, 71, 50
5, 313088, Note_off_c, 1, 71, 0
5, 313088, Note_on_c, 1, 71, 50
5, 313216, Note_off_c, 1, 71, 0
5, 313216, Note_on_c, 1, 71, 50
5, 313344, Note_off_c, 1, 71, 0
5, 313344, Note_on_c, 1, 71, 50
5, 313472, Note_off_c, 1, 71, 0
5, 313472, Note_on_c, 1, 71, 50
5, 313600, Note_off_c, 1, 71, 0
5, 313600, Note_on_c, 1, 71, 50
5, 313728, Note_off_c, 1, 71, 0
5, 313728, Note_on_c, 1, 71, 50
5, 313856, Note_off_c, 1, 71, 0
5, 313856, Note_on_c, 1, 71, 50
5, 313984, Note_off_c, 1, 71, 0
5, 313984, Note_on_c, 1, 71, 50
5, 314112, Note_off_c, 1, 71, 0
5, 314112, Note_on_c, 1, 71, 50
5, 314240, Note_off_c, 1, 71, 0
5, 314240, Note_on_c, 1, 71, 50
5, 314368, Note_off_c, 1, 71, 0
5, 314368, Note_on_c, 1, 71, 50
5, 314496, Note_off_c, 1, 71, 0
5, 314496, Note_on_c, 1, 71, 50
5, 314624, Note_off_c, 1, 71, 0
5, 314624, Note_on_c, 1, 71, 50
5, 314752, Note_off_c, 1, 71, 0
5, 314752, Note_on_c, 1, 71, 50
5, 314880, Note_off_c, 1, 71, 0
5, 314880, Note_on_c, 1, 71, 50
5, 315008, Note_off_c, 1, 71, 0
5, 315008, Note_on_c, 1, 71, 50
5, 315136, Note_off_c, 1, 71, 0
5, 315136, Note_on_c, 1, 71, 50
5, 315264, Note_off_c, 1, 71, 0
5, 315264, Note_on_c, 1, 71, 50
5, 315392, Program_c, 1, 12
5, 315392, Note_off_c, 1, 71, 0
5, 315392, Note_on_c, 1, 71, 50
5, 315520, Note_off_c, 1, 71, 0
5, 315520, Note_on_c, 1, 71, 50
5, 315648, Note_off_c, 1, 71, 0
5, 315648, Note_on_c, 1, 71, 50
5, 315776, Note_off_c, 1, 71, 0
5, 315776, Note_on_c, 1, 71, 50
5, 315904, Note_off_c, 1, 71, 0
5, 315904, Note_on_c, 1, 71, 50
5, 316032, Note_off_c, 1, 71, 0
5, 316032, Note_on_c, 1, 71, 50
5, 316160, Note_off_c, 1, 71, 0
5, 316160, Note_on_c, 1, 71, 50
5, 316288, Note_off_c, 1, 71, 0
5, 316288, Note_on_c, 1, 71, 50
5, 316416, Note_off_c, 1, 71, 0
5, 316416, Note_on_c, 1, 71, 50
5, 316544, Note_off_c, 1, 71, 0
5, 316544, Note_on_c, 1, 71, 50
5, 316672, Note_off_c, 1, 71, 0
5, 316672, Note_on_c, 1, 71, 50
5, 316800, Note_off_c, 1, 71, 0
5, 316800, Note_on_c, 1, 71, 50
5, 316928, Note_off_c, 1, 71, 0
5, 316928, Note_on_c, 1, 71, 50
5, 317056, Note_off_c, 1, 71, 0
5, 317056, Note_on_c, 1, 71, 50
5, 317184, Note_off_c, 1, 71, 0
5, 317184, Note_on_c, 1, 71, 50
5, 317312, Note_off_c, 1, 71, 0
5, 317312, Note_on_c, 1, 71, 50
5, 317440, Note_off_c, 1, 71, 0
5, 317440, Note_on_c, 1, 71, 50
5, 317568, Note_off_c, 1, 71, 0
5, 317568, Note_on_c, 1, 71, 50
5, 317696, Note_off_c, 1, 71, 0
5, 317696, Note_on_c, 1, 71, 50
5, 317824, Note_off_c, 1, 71, 0
5, 317824, Note_on_c, 1, 71, 50
5, 317952, Note_off_c, 1, 71, 0
5, 317952, Note_on_c, 1, 71, 50
5, 318080, Note_off_c, 1, 71, 0
5, 318080, Note_on_c, 1, 71, 50
5, 318208, Note_off_c, 1, 71, 0
5, 318208, Note_on_c, 1, 71, 50
5, 318336, Note_off_c, 1, 71, 0
5, 318336, Note_on_c, 1, 71, 50
5, 318464, Note_off_c, 1, 71, 0
5, 318464, Note_on_c, 1, 71, 50
5, 318592, Note_off_c, 1, 71, 0
5, 318592, Note_on_c, 1, 71, 50
5, 318720, Note_off_c, 1, 71, 0
5, 318720, Note_on_c, 1, 71, 50
5, 318848, Note_off_c, 1, 71, 0
5, 318848, Note_on_c, 1, 71, 50
5, 318976, Note_off_c, 1, 71, 0
5, 318976, Note_on_c, 1, 71, 50
5, 319104, Note_off_c, 1, 71, 0
5, 319104, Note_on_c, 1, 71, 50
5, 319232, Note_off_c, 1, 71, 0
5, 319232, Note_on_c, 1, 71, 50
5, 319360, Note_off_c, 1, 71, 0
5, 319360, Note_on_c, 1, 71, 50
5, 319488, Program_c, 1, 12
5, 319488, Note_off_c, 1, 71, 0
5, 319488, Note_on_c, 1, 71, 50
5, 319616, Note_off_c, 1, 71, 0
5, 319616, Note_on_c, 1, 71, 50
5, 319744, Note_off_c, 1, 71, 0
5, 319744, Note_on_c, 1, 71, 50
5, 319872, Note_off_c, 1, 71, 0
5, 319872, Note_on_c, 1, 71, 50
5, 320000, Note_off_c, 1, 71, 0
5, 320000, Note_on_c, 1, 71, 50
5, 320128, Note_off_c, 1, 71, 0
5, 320128, Note_on_c, 1, 71, 50
5, 320256, Note_off_c, 1, 71, 0
5, 320256, Note_on_c, 1, 71, 50
5, 320384, Note_off_c, 1, 71, 0
5, 320384, Note_on_c, 1, 71, 50
5, 320512, Note_off_c, 1, 71, 0
5, 320512, Note_on_c, 1, 71, 50
5, 320640, Note_off_c, 1, 71, 0
5, 320640, Note_on_c, 1, 71, 50
5, 320768, Note_off_c, 1, 71, 0
5, 320768, Note_on_c, 1, 71, 50
5, 320896, Note_off_c, 1, 71, 0
5, 320896, Note_on_c, 1, 71, 50
5, 321024, Note_off_c, 1, 71, 0
5, 321024, Note_on_c, 1, 71, 50
5, 321152, Note_off_c, 1, 71, 0
5, 321152, Note_on_c, 1, 71, 50
5, 321280, Note_off_c, 1, 71, 0
5, 321280, Note_on_c, 1, 71, 50
5, 321408, Note_off_c, 1, 71, 0
5, 321408, Note_on_c, 1, 71, 50
5, 321536, Note_off_c, 1, 71, 0
5, 321536, Note_on_c, 1, 71, 50
5, 321664, Note_off_c, 1, 71, 0
5, 321664, Note_on_c, 1, 71, 50
5, 321792, Note_off_c, 1, 71, 0
5, 321792, Note_on_c, 1, 71, 50
5, 321920, Note_off_c, 1, 71, 0
5, 321920, Note_on_c, 1, 71, 50
5, 322048, Note_off_c, 1, 71, 0
5, 322048, Note_on_c, 1, 71, 50
5, 322176, Note_off_c, 1, 71, 0
5, 322176, Note_on_c, 1, 71, 50
5, 322304, Note_off_c, 1, 71, 0
5, 322304, Note_on_c, 1, 71, 50
5, 322432, Note_off_c, 1, 71, 0
5, 323584, Program_c, 1, 12
5, 323584, Note_on_c, 1, 69, 50
5, 324608, Note_off_c, 1, 69, 0
5, 324608, Note_on_c, 1, 69, 50
5, 324864, Note_off_c, 1, 69, 0
5, 324864, Note_on_c, 1, 67, 50
5, 325120, Note_off_c, 1, 67, 0
5, 325120, Note_on_c, 1, 66, 50
5, 325376, Note_off_c, 1, 66, 0
5, 325376, Note_on_c, 1, 72, 50
5, 325632, Note_off_c, 1, 72, 0
5, 325632, Note_on_c, 1, 62, 50
5, 325973, Note_off_c, 1, 62, 0
5, 325973, Note_on_c, 1, 69, 50
5, 326315, Note_off_c, 1, 69, 0
5, 326315, Note_on_c, 1, 67, 50
5, 326656, Note_off_c, 1, 67, 0
5, 326656, Note_on_c, 1, 71, 50
5, 326861, Note_off_c, 1, 71, 0
5, 326861, Note_on_c, 1, 67, 50
5, 327066, Note_off_c, 1, 67, 0
5, 327066, Note_on_c, 1, 67, 50
5, 327270, Note_off_c, 1, 67, 0
5, 327270, Note_on_c, 1, 69, 50
5, 327475, Note_off_c, 1, 69, 0
5, 327475, Note_on_c, 1, 66, 50
5, 327680, Program_c, 1, 12
5, 327680, Note_off_c, 1, 66, 0
5, 328192, Note_on_c, 1, 71, 50
5, 328704, Note_off_c, 1, 71, 0
5, 328704, Note_on_c, 1, 64, 50
5, 329045, Note_off_c, 1, 64, 0
5, 329045, Note_on_c, 1, 69, 50
5, 329387, Note_off_c, 1, 69, 0
5, 329387, Note_on_c, 1, 66, 50
5, 329728, Note_off_c, 1, 66, 0
5, 329728, Note_on_c, 1, 78, 50
5, 330138, Note_off_c, 1, 78, 0
5, 330138, Note_on_c, 1, 76, 50
5, 330547, Note_off_c, 1, 76, 0
5, 330547, Note_on_c, 1, 71, 50
5, 330957, Note_off_c, 1, 71, 0
5, 330957, Note_on_c, 1, 74, 50
5, 331366, Note_off_c, 1, 74, 0
5, 331366, Note_on_c, 1, 64, 50
5, 331776, Program_c, 1, 12
5, 331776, Note_off_c, 1, 64, 0
5, 331776, Note_on_c, 1, 78, 50
5, 332186, Note_off_c, 1, 78, 0
5, 332186, Note_on_c, 1, 76, 50
5, 332595, Note_off_c, 1, 76, 0
5, 332595, Note_on_c, 1, 71, 50
5, 333005, Note_off_c, 1, 71, 0
5, 333005, Note_on_c, 1, 74, 50
5, 333414, Note_off_c, 1, 74, 0
5, 333414, Note_on_c, 1, 64, 50
5, 333824, Note_off_c, 1, 64, 0
5, 333824, Note_on_c, 1, 64, 50
5, 333952, Note_off_c, 1, 64, 0
5, 333952, Note_on_c, 1, 64, 50
5, 334080, Note_off_c, 1, 64, 0
5, 334080, Note_on_c, 1, 64, 50
5, 334208, Note_off_c, 1, 64, 0
5, 334208, Note_on_c, 1, 64, 50
5, 334336, Note_off_c, 1, 64, 0
5, 334336, Note_on_c, 1, 64, 50
5, 334464, Note_off_c, 1, 64, 0
5, 334464, Note_on_c, 1, 64, 50
5, 334592, Note_off_c, 1, 64, 0
5, 334592, Note_on_c, 1, 64, 50
5, 334720, Note_off_c, 1, 64, 0
5, 334720, Note_on_c, 1, 64, 50
5, 334848, Note_off_c, 1, 64, 0
5, 334848, Note_on_c, 1, 64, 50
5, 334976, Note_off_c, 1, 64, 0
5, 334976, Note_on_c, 1, 64, 50
5, 335104, Note_off_c, 1, 64, 0
5, 335104, Note_on_c, 1, 64, 50
5, 335232, Note_off_c, 1, 64, 0
5, 335232, Note_on_c, 1, 64, 50
5, 335360, Note_off_c, 1, 64, 0
5, 335360, Note_on_c, 1, 64, 50
5, 335488, Note_off_c, 1, 64, 0
5, 335488, Note_on_c, 1, 64, 50
5, 335616, Note_off_c, 1, 64, 0
5, 335616, Note_on_c, 1, 64, 50
5, 335744, Note_off_c, 1, 64, 0
5, 335744, Note_on_c, 1, 64, 50
5, 335872, Program_c, 1, 12
5, 335872, Note_off_c, 1, 64, 0
5, 335872, Note_on_c, 1, 64, 50
5, 336000, Note_off_c, 1, 64, 0
5, 336000, Note_on_c, 1, 64, 50
5, 336128, Note_off_c, 1, 64, 0
5, 336128, Note_on_c, 1, 64, 50
5, 336256, Note_off_c, 1, 64, 0
5, 336256, Note_on_c, 1, 64, 50
5, 336384, Note_off_c, 1, 64, 0
5, 336384, Note_on_c, 1, 64, 50
5, 336512, Note_off_c, 1, 64, 0
5, 336512, Note_on_c, 1, 64, 50
5, 336640, Note_off_c, 1, 64, 0
5, 336640, Note_on_c, 1, 64, 50
5, 336768, Note_off_c, 1, 64, 0
5, 336768, Note_on_c, 1, 64, 50
5, 336896, Note_off_c, 1, 64, 0
5, 336896, Note_on_c, 1, 64, 50
5, 337024, Note_off_c, 1, 64, 0
5, 337024, Note_on_c, 1, 64, 50
5, 337152, Note_off_c, 1, 64, 0
5, 337152, Note_on_c, 1, 64, 50
5, 337280, Note_off_c, 1, 64, 0
5, 337280, Note_on_c, 1, 64, 50
5, 337408, Note_off_c, 1, 64, 0
5, 337408, Note_on_c, 1, 64, 50
5, 337536, Note_off_c, 1, 64, 0
5, 337536, Note_on_c, 1, 64, 50
5, 337664, Note_off_c, 1, 64, 0
5, 337664, Note_on_c, 1, 64, 50
5, 337792, Note_off_c, 1, 64, 0
5, 337792, Note_on_c, 1, 64, 50
5, 337920, Note_off_c, 1, 64, 0
5, 337920, Note_on_c, 1, 64, 50
5, 338048, Note_off_c, 1, 64, 0
5, 338048, Note_on_c, 1, 64, 50
5, 338176, Note_off_c, 1, 64, 0
5, 338176, Note_on_c, 1, 64, 50
5, 338304, Note_off_c, 1, 64, 0
5, 338304, Note_on_c, 1, 64, 50
5, 338432, Note_off_c, 1, 64, 0
5, 338432, Note_on_c, 1, 64, 50
5, 338560, Note_off_c, 1, 64, 0
5, 338560, Note_on_c, 1, 64, 50
5, 338688, Note_off_c, 1, 64, 0
5, 338688, Note_on_c, 1, 64, 50
5, 338816, Note_off_c, 1, 64, 0
5, 338816, Note_on_c, 1, 64, 50
5, 338944, Note_off_c, 1, 64, 0
5, 338944, Note_on_c, 1, 64, 50
5, 339072, Note_off_c, 1, 64, 0
5, 339072, Note_on_c, 1, 64, 50
5, 339200, Note_off_c, 1, 64, 0
5, 339200, Note_on_c, 1, 64, 50
5, 339328, Note_off_c, 1, 64, 0
5, 339328, Note_on_c, 1, 64, 50
5, 339456, Note_off_c, 1, 64, 0
5, 339456, Note_on_c, 1, 64, 50
5, 339584, Note_off_c, 1, 64, 0
5, 339584, Note_on_c, 1, 64, 50
5, 339712, Note_off_c, 1, 64, 0
5, 339712, Note_on_c, 1, 64, 50
5, 339840, Note_off_c, 1, 64, 0
5, 339840, Note_on_c, 1, 64, 50
5, 339968, Program_c, 1, 12
5, 339968, Note_off_c, 1, 64, 0
5, 339968, Note_on_c, 1, 64, 50
5, 340096, Note_off_c, 1, 64, 0
5, 340096, Note_on_c, 1, 64, 50
5, 340224, Note_off_c, 1, 64, 0
5, 340224, Note_on_c, 1, 64, 50
5, 340352, Note_off_c, 1, 64, 0
5, 340352, Note_on_c, 1, 64, 50
5, 340480, Note_off_c, 1, 64, 0
5, 340480, Note_on_c, 1, 64, 50
5, 340608, Note_off_c, 1, 64, 0
5, 340608, Note_on_c, 1, 64, 50
5, 340736, Note_off_c, 1, 64, 0
5, 340736, Note_on_c, 1, 64, 50
5, 340864, Note_off_c, 1, 64, 0
5, 340864, Note_on_c, 1, 64, 50
5, 340992, Note_off_c, 1, 64, 0
5, 340992, Note_on_c, 1, 64, 50
5, 341120, Note_off_c, 1, 64, 0
5, 341120, Note_on_c, 1, 64, 50
5, 341248, Note_off_c, 1, 64, 0
5, 341248, Note_on_c, 1, 64, 50
5, 341376, Note_off_c, 1, 64, 0
5, 341376, Note_on_c, 1, 64, 50
5, 341504, Note_off_c, 1, 64, 0
5, 341504, Note_on_c, 1, 64, 50
5, 341632, Note_off_c, 1, 64, 0
5, 341632, Note_on_c, 1, 64, 50
5, 341760, Note_off_c, 1, 64, 0
5, 341760, Note_on_c, 1, 64, 50
5, 341888, Note_off_c, 1, 64, 0
5, 341888, Note_on_c, 1, 64, 50
5, 342016, Note_off_c, 1, 64, 0
5, 342016, Note_on_c, 1, 64, 50
5, 342144, Note_off_c, 1, 64, 0
5, 342144, Note_on_c, 1, 64, 50
5, 342272, Note_off_c, 1, 64, 0
5, 342272, Note_on_c, 1, 64, 50
5, 342400, Note_off_c, 1, 64, 0
5, 342400, Note_on_c, 1, 64, 50
5, 342528, Note_off_c, 1, 64, 0
5, 342528, Note_on_c, 1, 64, 50
5, 342656, Note_off_c, 1, 64, 0
5, 342656, Note_on_c, 1, 64, 50
5, 342784, Note_off_c, 1, 64, 0
5, 342784, Note_on_c, 1, 64, 50
5, 342912, Note_off_c, 1, 64, 0
5, 342912, Note_on_c, 1, 64, 50
5, 343040, Note_off_c, 1, 64, 0
5, 344064, Program_c, 1, 12
5, 344474, Note_on_c, 1, 66, 50
5, 344883, Note_off_c, 1, 66, 0
5, 344883, Note_on_c, 1, 67, 50
5, 345293, Note_off_c, 1, 67, 0
5, 345293, Note_on_c, 1, 72, 50
5, 345702, Note_off_c, 1, 72, 0
5, 345702, Note_on_c, 1, 71, 50
5, 346112, Note_off_c, 1, 71, 0
5, 346112, Note_on_c, 1, 78, 50
5, 346522, Note_off_c, 1, 78, 0
5, 346522, Note_on_c, 1, 79, 50
5, 346931, Note_off_c, 1, 79, 0
5, 346931, Note_on_c, 1, 76, 50
5, 347341, Note_off_c, 1, 76, 0
5, 347341, Note_on_c, 1, 81, 50
5, 347750, Note_off_c, 1, 81, 0
5, 347750, Note_on_c, 1, 78, 50
5, 348160, Program_c, 1, 12
5, 348160, Note_off_c, 1, 78, 0
5, 348160, Note_on_c, 1, 79, 50
5, 348672, Note_off_c, 1, 79, 0
5, 348672, Note_on_c, 1, 78, 50
5, 349184, Note_off_c, 1, 78, 0
5, 349184, Note_on_c, 1, 78, 50
5, 349696, Note_off_c, 1, 78, 0
5, 349696, Note_on_c, 1, 76, 50
5, 350208, Note_off_c, 1, 76, 0
5, 350208, Note_on_c, 1, 86, 50
5, 350394, Note_off_c, 1, 86, 0
5, 350394, Note_on_c, 1, 81, 50
5, 350580, Note_off_c, 1, 81, 0
5, 350580, Note_on_c, 1, 81, 50
5, 350767, Note_off_c, 1, 81, 0
5, 350767, Note_on_c, 1, 83, 50
5, 350953, Note_off_c, 1, 83, 0
5, 350953, Note_on_c, 1, 84, 50
5, 351139, Note_off_c, 1, 84, 0
5, 351139, Note_on_c, 1, 88, 50
5, 351325, Note_off_c, 1, 88, 0
5, 351325, Note_on_c, 1, 83, 50
5, 351511, Note_off_c, 1, 83, 0
5, 351511, Note_on_c, 1, 83, 50
5, 351698, Note_off_c, 1, 83, 0
5, 351698, Note_on_c, 1, 84, 50
5, 351884, Note_off_c, 1, 84, 0
5, 351884, Note_on_c, 1, 74, 50
5, 352070, Note_off_c, 1, 74, 0
5, 352070, Note_on_c, 1, 81, 50
5, 352256, Program_c, 1, 12
5, 352256, Note_off_c, 1, 81, 0
5, 352256, Note_on_c, 1, 83, 50
5, 352442, Note_off_c, 1, 83, 0
5, 352442, Note_on_c, 1, 76, 50
5, 352628, Note_off_c, 1, 76, 0
5, 352628, Note_on_c, 1, 76, 50
5, 352815, Note_off_c, 1, 76, 0
5, 352815, Note_on_c, 1, 79, 50
5, 353001, Note_off_c, 1, 79, 0
5, 353001, Note_on_c, 1, 79, 50
5, 353187, Note_off_c, 1, 79, 0
5, 353187, Note_on_c, 1, 86, 50
5, 353373, Note_off_c, 1, 86, 0
5, 353373, Note_on_c, 1, 78, 50
5, 353559, Note_off_c, 1, 78, 0
5, 353559, Note_on_c, 1, 78, 50
5, 353746, Note_off_c, 1, 78, 0
5, 353746, Note_on_c, 1, 81, 50
5, 353932, Note_off_c, 1, 81, 0
5, 353932, Note_on_c, 1, 76, 50
5, 354118, Note_off_c, 1, 76, 0
5, 354118, Note_on_c, 1, 71, 50
5, 354304, Note_off_c, 1, 71, 0
5, 354304, Note_on_c, 1, 81, 50
5, 354987, Note_off_c, 1, 81, 0
5, 354987, Note_on_c, 1, 72, 50
5, 355669, Note_off_c, 1, 72, 0
5, 355669, Note_on_c, 1, 72, 50
5, 356352, Program_c, 1, 12
5, 356352, Note_off_c, 1, 72, 0
5, 356352, Note_on_c, 1, 79, 50
5, 356480, Note_off_c, 1, 79, 0
5, 356480, Note_on_c, 1, 79, 50
5, 356608, Note_off_c, 1, 79, 0
5, 356608, Note_on_c, 1, 79, 50
5, 356736, Note_off_c, 1, 79, 0
5, 356736, Note_on_c, 1, 79, 50
5, 356864, Note_off_c, 1, 79, 0
5, 356864, Note_on_c, 1, 79, 50
5, 356992, Note_off_c, 1, 79, 0
5, 356992, Note_on_c, 1, 79, 50
5, 357120, Note_off_c, 1, 79, 0
5, 357120, Note_on_c, 1, 79, 50
5, 357248, Note_off_c, 1, 79, 0
5, 357248, Note_on_c, 1, 79, 50
5, 357376, Note_off_c, 1, 79, 0
5, 357376, Note_on_c, 1, 79, 50
5, 357504, Note_off_c, 1, 79, 0
5, 357504, Note_on_c, 1, 79, 50
5, 357632, Note_off_c, 1, 79, 0
5, 357632, Note_on_c, 1, 79, 50
5, 357760, Note_off_c, 1, 79, 0
5, 357760, Note_on_c, 1, 79, 50
5, 357888, Note_off_c, 1, 79, 0
5, 357888, Note_on_c, 1, 79, 50
5, 358016, Note_off_c, 1, 79, 0
5, 358016, Note_on_c, 1, 79, 50
5, 358144, Note_off_c, 1, 79, 0
5, 358144, Note_on_c, 1, 79, 50
5, 358272, Note_off_c, 1, 79, 0
5, 358272, Note_on_c, 1, 79, 50
5, 358400, Note_off_c, 1, 79, 0
5, 358400, Note_on_c, 1, 79, 50
5, 358528, Note_off_c, 1, 79, 0
5, 358528, Note_on_c, 1, 79, 50
5, 358656, Note_off_c, 1, 79, 0
5, 358656, Note_on_c, 1, 79, 50
5, 358784, Note_off_c, 1, 79, 0
5, 358784, Note_on_c, 1, 79, 50
5, 358912, Note_off_c, 1, 79, 0
5, 358912, Note_on_c, 1, 79, 50
5, 359040, Note_off_c, 1, 79, 0
5, 359040, Note_on_c, 1, 79, 50
5, 359168, Note_off_c, 1, 79, 0
5, 359168, Note_on_c, 1, 79, 50
5, 359296, Note_off_c, 1, 79, 0
5, 359296, Note_on_c, 1, 79, 50
5, 359424, Note_off_c, 1, 79, 0
5, 359424, Note_on_c, 1, 79, 50
5, 359552, Note_off_c, 1, 79, 0
5, 359552, Note_on_c, 1, 79, 50
5, 359680, Note_off_c, 1, 79, 0
5, 359680, Note_on_c, 1, 79, 50
5, 359808, Note_off_c, 1, 79, 0
5, 359808, Note_on_c, 1, 79, 50
5, 359936, Note_off_c, 1, 79, 0
5, 359936, Note_on_c, 1, 79, 50
5, 360064, Note_off_c, 1, 79, 0
5, 360064, Note_on_c, 1, 79, 50
5, 360192, Note_off_c, 1, 79, 0
5, 360192, Note_on_c, 1, 79, 50
5, 360320, Note_off_c, 1, 79, 0
5, 360320, Note_on_c, 1, 79, 50
5, 360448, Program_c, 1, 12
5, 360448, Note_off_c, 1, 79, 0
5, 361472, Note_on_c, 1, 75, 50
5, 362496, Note_off_c, 1, 75, 0
5, 362496, Note_on_c, 1, 82, 50
5, 363179, Note_off_c, 1, 82, 0
5, 363179, Note_on_c, 1, 80, 50
5, 363861, Note_off_c, 1, 80, 0
5, 363861, Note_on_c, 1, 77, 50
5, 364544, Program_c, 1, 12
5, 364544, Note_off_c, 1, 77, 0
5, 364544, Note_on_c, 1, 77, 50
5, 364954, Note_off_c, 1, 77, 0
5, 364954, Note_on_c, 1, 79, 50
5, 365363, Note_off_c, 1, 79, 0
5, 365363, Note_on_c, 1, 75, 50
5, 365773, Note_off_c, 1, 75, 0
5, 365773, Note_on_c, 1, 70, 50
5, 366182, Note_off_c, 1, 70, 0
5, 366182, Note_on_c, 1, 80, 50
5, 366592, Note_off_c, 1, 80, 0
5, 366592, Note_on_c, 1, 84, 50
5, 366933, Note_off_c, 1, 84, 0
5, 366933, Note_on_c, 1, 82, 50
5, 367275, Note_off_c, 1, 82, 0
5, 367275, Note_on_c, 1, 82, 50
5, 367616, Note_off_c, 1, 82, 0
5, 367616, Note_on_c, 1, 80, 50
5, 367957, Note_off_c, 1, 80, 0
5, 367957, Note_on_c, 1, 80, 50
5, 368299, Note_off_c, 1, 80, 0
5, 368299, Note_on_c, 1, 77, 50
5, 368640, Program_c, 1, 12
5, 368640, Note_off_c, 1, 77, 0
5, 368640, Note_on_c, 1, 82, 50
5, 369012, Note_off_c, 1, 82, 0
5, 369012, Note_on_c, 1, 78, 50
5, 369385, Note_off_c, 1, 78, 0
5, 369385, Note_on_c, 1, 78, 50
5, 369757, Note_off_c, 1, 78, 0
5, 369757, Note_on_c, 1, 80, 50
5, 370129, Note_off_c, 1, 80, 0
5, 370129, Note_on_c, 1, 77, 50
5, 370502, Note_off_c, 1, 77, 0
5, 370502, Note_on_c, 1, 73, 50
5, 370874, Note_off_c, 1, 73, 0
5, 370874, Note_on_c, 1, 73, 50
5, 371247, Note_off_c, 1, 73, 0
5, 371247, Note_on_c, 1, 75, 50
5, 371619, Note_off_c, 1, 75, 0
5, 371619, Note_on_c, 1, 71, 50
5, 371991, Note_off_c, 1, 71, 0
5, 371991, Note_on_c, 1, 80, 50
5, 372364, Note_off_c, 1, 80, 0
5, 372364, Note_on_c, 1, 77, 50
5, 372736, Program_c, 1, 12
5, 372736, Note_off_c, 1, 77, 0
5, 372736, Note_on_c, 1, 77, 50
5, 373108, Note_off_c, 1, 77, 0
5, 373108, Note_on_c, 1, 75, 50
5, 373481, Note_off_c, 1, 75, 0
5, 373481, Note_on_c, 1, 78, 50
5, 373853, Note_off_c, 1, 78, 0
5, 373853, Note_on_c, 1, 77, 50
5, 374225, Note_off_c, 1, 77, 0
5, 374225, Note_on_c, 1, 73, 50
5, 374598, Note_off_c, 1, 73, 0
5, 374598, Note_on_c, 1, 75, 50
5, 374970, Note_off_c, 1, 75, 0
5, 374970, Note_on_c, 1, 80, 50
5, 375343, Note_off_c, 1, 80, 0
5, 375343, Note_on_c, 1, 73, 50
5, 375715, Note_off_c, 1, 73, 0
5, 375715, Note_on_c, 1, 78, 50
5, 376087, Note_off_c, 1, 78, 0
5, 376087, Note_on_c, 1, 65, 50
5, 376460, Note_off_c, 1, 65, 0
5, 376460, Note_on_c, 1, 71, 50
5, 376832, Program_c, 1, 12
5, 376832, Note_off_c, 1, 71, 0
5, 376832, Note_on_c, 1, 68, 50
5, 376960, Note_off_c, 1, 68, 0
5, 376960, Note_on_c, 1, 68, 50
5, 377088, Note_off_c, 1, 68, 0
5, 377088, Note_on_c, 1, 68, 50
5, 377216, Note_off_c, 1, 68, 0
5, 377216, Note_on_c, 1, 68, 50
5, 377344, Note_off_c, 1, 68, 0
5, 377344, Note_on_c, 1, 68, 50
5, 377472, Note_off_c, 1, 68, 0
5, 377472, Note_on_c, 1, 68, 50
5, 377600, Note_off_c, 1, 68, 0
5, 377600, Note_on_c, 1, 68, 50
5, 377728, Note_off_c, 1, 68, 0
5, 377728, Note_on_c, 1, 68, 50
5, 377856, Note_off_c, 1, 68, 0
5, 377856, Note_on_c, 1, 68, 50
5, 377984, Note_off_c, 1, 68, 0
5, 377984, Note_on_c, 1, 68, 50
5, 378112, Note_off_c, 1, 68, 0
5, 378112, Note_on_c, 1, 68, 50
5, 378240, Note_off_c, 1, 68, 0
5, 378240, Note_on_c, 1, 68, 50
5, 378368, Note_off_c, 1, 68, 0
5, 378368, Note_on_c, 1, 68, 50
5, 378496, Note_off_c, 1, 68, 0
5, 378496, Note_on_c, 1, 68, 50
5, 378624, Note_off_c, 1, 68, 0
5, 378624, Note_on_c, 1, 68, 50
5, 378752, Note_off_c, 1, 68, 0
5, 378752, Note_on_c, 1, 68, 50
5, 378880, Note_off_c, 1, 68, 0
5, 378880, Note_on_c, 1, 68, 50
5, 379008, Note_off_c, 1, 68, 0
5, 379008, Note_on_c, 1, 68, 50
5, 379136, Note_off_c, 1, 68, 0
5, 379136, Note_on_c, 1, 68, 50
5, 379264, Note_off_c, 1, 68, 0
5, 379264, Note_on_c, 1, 68, 50
5, 379392, Note_off_c, 1, 68, 0
5, 379392, Note_on_c, 1, 68, 50
5, 379520, Note_off_c, 1, 68, 0
5, 379520, Note_on_c, 1, 68, 50
5, 379648, Note_off_c, 1, 68, 0
5, 379648, Note_on_c, 1, 68, 50
5, 379776, Note_off_c, 1, 68, 0
5, 379776, Note_on_c, 1, 68, 50
5, 379904, Note_off_c, 1, 68, 0
5, 379904, Note_on_c, 1, 68, 50
5, 380032, Note_off_c, 1, 68, 0
5, 380032, Note_on_c, 1, 68, 50
5, 380160, Note_off_c, 1, 68, 0
5, 380160, Note_on_c, 1, 68, 50
5, 380288, Note_off_c, 1, 68, 0
5, 380288, Note_on_c, 1, 68, 50
5, 380416, Note_off_c, 1, 68, 0
5, 380416, Note_on_c, 1, 68, 50
5, 380544, Note_off_c, 1, 68, 0
5, 380544, Note_on_c, 1, 68, 50
5, 380672, Note_off_c, 1, 68, 0
5, 380672, Note_on_c, 1, 68, 50
5, 380800, Note_off_c, 1, 68, 0
5, 380800, Note_on_c, 1, 68, 50
5, 380928, Program_c, 1, 12
5, 380928, Note_off_c, 1, 68, 0
5, 380928, Note_on_c, 1, 68, 50
5, 381056, Note_off_c, 1, 68, 0
5, 381056, Note_on_c, 1, 68, 50
5, 381184, Note_off_c, 1, 68, 0
5, 381184, Note_on_c, 1, 68, 50
5, 381312, Note_off_c, 1, 68, 0
5, 381312, Note_on_c, 1, 68, 50
5, 381440, Note_off_c, 1, 68, 0
5, 381440, Note_on_c, 1, 68, 50
5, 381568, Note_off_c, 1, 68, 0
5, 381568, Note_on_c, 1, 68, 50
5, 381696, Note_off_c, 1, 68, 0
5, 381696, Note_on_c, 1, 68, 50
5, 381824, Note_off_c, 1, 68, 0
5, 381824, Note_on_c, 1, 68, 50
5, 381952, Note_off_c, 1, 68, 0
5, 381952, Note_on_c, 1, 68, 50
5, 382080, Note_off_c, 1, 68, 0
5, 382080, Note_on_c, 1, 68, 50
5, 382208, Note_off_c, 1, 68, 0
5, 382208, Note_on_c, 1, 68, 50
5, 382336, Note_off_c, 1, 68, 0
5, 382336, Note_on_c, 1, 68, 50
5, 382464, Note_off_c, 1, 68, 0
5, 382464, Note_on_c, 1, 68, 50
5, 382592, Note_off_c, 1, 68, 0
5, 382592, Note_on_c, 1, 68, 50
5, 382720, Note_off_c, 1, 68, 0
5, 382720, Note_on_c, 1, 68, 50
5, 382848, Note_off_c, 1, 68, 0
5, 382848, Note_on_c, 1, 68, 50
5, 382976, Note_off_c, 1, 68, 0
5, 382976, Note_on_c, 1, 68, 50
5, 383104, Note_off_c, 1, 68, 0
5, 383104, Note_on_c, 1, 68, 50
5, 383232, Note_off_c, 1, 68, 0
5, 383232, Note_on_c, 1, 68, 50
5, 383360, Note_off_c, 1, 68, 0
5, 383360, Note_on_c, 1, 68, 50
5, 383488, Note_off_c, 1, 68, 0
5, 383488, Note_on_c, 1, 68, 50
5, 383616, Note_off_c, 1, 68, 0
5, 383616, Note_on_c, 1, 68, 50
5, 383744, Note_off_c, 1, 68, 0
5, 383744, Note_on_c, 1, 68, 50
5, 383872, Note_off_c, 1, 68, 0
5, 383872, Note_on_c, 1, 68, 50
5, 384000, Note_off_c, 1, 68, 0
5, 384000, Note_on_c, 1, 68, 50
5, 384128, Note_off_c, 1, 68, 0
5, 384128, Note_on_c, 1, 68, 50
5, 384256, Note_off_c, 1, 68, 0
5, 384256, Note_on_c, 1, 68, 50
5, 384384, Note_off_c, 1, 68, 0
5, 384384, Note_on_c, 1, 68, 50
5, 384512, Note_off_c, 1, 68, 0
5, 384512, Note_on_c, 1, 68, 50
5, 384640, Note_off_c, 1, 68, 0
5, 384640, Note_on_c, 1, 68, 50
5, 384768, Note_off_c, 1, 68, 0
5, 384768, Note_on_c, 1, 68, 50
5, 384896, Note_off_c, 1, 68, 0
5, 384896, Note_on_c, 1, 68, 50
5, 385024, Note_off_c, 1, 68, 0
5, 385024, Note_on_c, 1, 82, 50
5, 385396, Note_off_c, 1, 82, 0
5, 385396, Note_on_c, 1, 78, 50
5, 385769, Note_off_c, 1, 78, 0
5, 385769, Note_on_c, 1, 78, 50
5, 386141, Note_off_c, 1, 78, 0
5, 386141, Note_on_c, 1, 80, 50
5, 386513, Note_off_c, 1, 80, 0
5, 386513, Note_on_c, 1, 77, 50
5, 386886, Note_off_c, 1, 77, 0
5, 386886, Note_on_c, 1, 73, 50
5, 387258, Note_off_c, 1, 73, 0
5, 387258, Note_on_c, 1, 73, 50
5, 387631, Note_off_c, 1, 73, 0
5, 387631, Note_on_c, 1, 75, 50
5, 388003, Note_off_c, 1, 75, 0
5, 388003, Note_on_c, 1, 71, 50
5, 388375, Note_off_c, 1, 71, 0
5, 388375, Note_on_c, 1, 80, 50
5, 388748, Note_off_c, 1, 80, 0
5, 388748, Note_on_c, 1, 77, 50
5, 389120, Note_off_c, 1, 77, 0
5, 389120, Note_on_c, 1, 77, 50
5, 389492, Note_off_c, 1, 77, 0
5, 389492, Note_on_c, 1, 75, 50
5, 389865, Note_off_c, 1, 75, 0
5, 389865, Note_on_c, 1, 78, 50
5, 390237, Note_off_c, 1, 78, 0
5, 390237, Note_on_c, 1, 77, 50
5, 390609, Note_off_c, 1, 77, 0
5, 390609, Note_on_c, 1, 73, 50
5, 390982, Note_off_c, 1, 73, 0
5, 390982, Note_on_c, 1, 75, 50
5, 391354, Note_off_c, 1, 75, 0
5, 391354, Note_on_c, 1, 80, 50
5, 391727, Note_off_c, 1, 80, 0
5, 391727, Note_on_c, 1, 73, 50
5, 392099, Note_off_c, 1, 73, 0
5, 392099, Note_on_c, 1, 78, 50
5, 392471, Note_off_c, 1, 78, 0
5, 392471, Note_on_c, 1, 65, 50
5, 392844, Note_off_c, 1, 65, 0
5, 392844, Note_on_c, 1, 71, 50
5, 393216, Note_off_c, 1, 71, 0
5, 393216, Note_on_c, 1, 68, 50
5, 393344, Note_off_c, 1, 68, 0
5, 393344, Note_on_c, 1, 68, 50
5, 393472, Note_off_c, 1, 68, 0
5, 393472, Note_on_c, 1, 68, 50
5, 393600, Note_off_c, 1, 68, 0
5, 393600, Note_on_c, 1, 68, 50
5, 393728, Note_off_c, 1, 68, 0
5, 393728, Note_on_c, 1, 68, 50
5, 393856, Note_off_c, 1, 68, 0
5, 393856, Note_on_c, 1, 68, 50
5, 393984, Note_off_c, 1, 68, 0
5, 393984, Note_on_c, 1, 68, 50
5, 394112, Note_off_c, 1, 68, 0
5, 394112, Note_on_c, 1, 68, 50
5, 394240, Note_off_c, 1, 68, 0
5, 394240, Note_on_c, 1, 68, 50
5, 394368, Note_off_c, 1, 68, 0
5, 394368, Note_on_c, 1, 68, 50
5, 394496, Note_off_c, 1, 68, 0
5, 394496, Note_on_c, 1, 68, 50
5, 394624, Note_off_c, 1, 68, 0
5, 394624, Note_on_c, 1, 68, 50
5, 394752, Note_off_c, 1, 68, 0
5, 394752, Note_on_c, 1, 68, 50
5, 394880, Note_off_c, 1, 68, 0
5, 394880, Note_on_c, 1, 68, 50
5, 395008, Note_off_c, 1, 68, 0
5, 395008, Note_on_c, 1, 68, 50
5, 395136, Note_off_c, 1, 68, 0
5, 395136, Note_on_c, 1, 68, 50
5, 395264, Note_off_c, 1, 68, 0
5, 395264, Note_on_c, 1, 68, 50
5, 395392, Note_off_c, 1, 68, 0
5, 395392, Note_on_c, 1, 68, 50
5, 395520, Note_off_c, 1, 68, 0
5, 395520, Note_on_c, 1, 68, 50
5, 395648, Note_off_c, 1, 68, 0
5, 395648, Note_on_c, 1, 68, 50
5, 395776, Note_off_c, 1, 68, 0
5, 395776, Note_on_c, 1, 68, 50
5, 395904, Note_off_c, 1, 68, 0
5, 395904, Note_on_c, 1, 68, 50
5, 396032, Note_off_c, 1, 68, 0
5, 396032, Note_on_c, 1, 68, 50
5, 396160, Note_off_c, 1, 68, 0
5, 396160, Note_on_c, 1, 68, 50
5, 396288, Note_off_c, 1, 68, 0
5, 396288, Note_on_c, 1, 68, 50
5, 396416, Note_off_c, 1, 68, 0
5, 396416, Note_on_c, 1, 68, 50
5, 396544, Note_off_c, 1, 68, 0
5, 396544, Note_on_c, 1, 68, 50
5, 396672, Note_off_c, 1, 68, 0
5, 396672, Note_on_c, 1, 68, 50
5, 396800, Note_off_c, 1, 68, 0
5, 396800, Note_on_c, 1, 68, 50
5, 396928, Note_off_c, 1, 68, 0
5, 396928, Note_on_c, 1, 68, 50
5, 397056, Note_off_c, 1, 68, 0
5, 397056, Note_on_c, 1, 68, 50
5, 397184, Note_off_c, 1, 68, 0
5, 397184, Note_on_c, 1, 68, 50
5, 397312, Note_off_c, 1, 68, 0
5, 397312, Note_on_c, 1, 68, 50
5, 397440, Note_off_c, 1, 68, 0
5, 397440, Note_on_c, 1, 68, 50
5, 397568, Note_off_c, 1, 68, 0
5, 397568, Note_on_c, 1, 68, 50
5, 397696, Note_off_c, 1, 68, 0
5, 397696, Note_on_c, 1, 68, 50
5, 397824, Note_off_c, 1, 68, 0
5, 397824, Note_on_c, 1, 68, 50
5, 397952, Note_off_c, 1, 68, 0
5, 397952, Note_on_c, 1, 68, 50
5, 398080, Note_off_c, 1, 68, 0
5, 398080, Note_on_c, 1, 68, 50
5, 398208, Note_off_c, 1, 68, 0
5, 398208, Note_on_c, 1, 68, 50
5, 398336, Note_off_c, 1, 68, 0
5, 398336, Note_on_c, 1, 68, 50
5, 398464, Note_off_c, 1, 68, 0
5, 398464, Note_on_c, 1, 68, 50
5, 398592, Note_off_c, 1, 68, 0
5, 398592, Note_on_c, 1, 68, 50
5, 398720, Note_off_c, 1, 68, 0
5, 398720, Note_on_c, 1, 68, 50
5, 398848, Note_off_c, 1, 68, 0
5, 398848, Note_on_c, 1, 68, 50
5, 398976, Note_off_c, 1, 68, 0
5, 398976, Note_on_c, 1, 68, 50
5, 399104, Note_off_c, 1, 68, 0
5, 399104, Note_on_c, 1, 68, 50
5, 399232, Note_off_c, 1, 68, 0
5, 399232, Note_on_c, 1, 68, 50
5, 399360, Note_off_c, 1, 68, 0
5, 399360, Note_on_c, 1, 68, 50
5, 399488, Note_off_c, 1, 68, 0
5, 399488, Note_on_c, 1, 68, 50
5, 399616, Note_off_c, 1, 68, 0
5, 399616, Note_on_c, 1, 68, 50
5, 399744, Note_off_c, 1, 68, 0
5, 399744, Note_on_c, 1, 68, 50
5, 399872, Note_off_c, 1, 68, 0
5, 399872, Note_on_c, 1, 68, 50
5, 400000, Note_off_c, 1, 68, 0
5, 400000, Note_on_c, 1, 68, 50
5, 400128, Note_off_c, 1, 68, 0
5, 400128, Note_on_c, 1, 68, 50
5, 400256, Note_off_c, 1, 68, 0
5, 400256, Note_on_c, 1, 68, 50
5, 400384, Note_off_c, 1, 68, 0
5, 400384, Note_on_c, 1, 68, 50
5, 400512, Note_off_c, 1, 68, 0
5, 400512, Note_on_c, 1, 68, 50
5, 400640, Note_off_c, 1, 68, 0
5, 400640, Note_on_c, 1, 68, 50
5, 400768, Note_off_c, 1, 68, 0
5, 400768, Note_on_c, 1, 68, 50
5, 400896, Note_off_c, 1, 68, 0
5, 400896, Note_on_c, 1, 68, 50
5, 401024, Note_off_c, 1, 68, 0
5, 401024, Note_on_c, 1, 68, 50
5, 401152, Note_off_c, 1, 68, 0
5, 401152, Note_on_c, 1, 68, 50
5, 401280, Note_off_c, 1, 68, 0
5, 401280, Note_on_c, 1, 68, 50
5, 401408, Program_c, 1, 12
5, 401408, Note_off_c, 1, 68, 0
5, 401408, Note_on_c, 1, 82, 50
5, 401780, Note_off_c, 1, 82, 0
5, 401780, Note_on_c, 1, 78, 50
5, 402153, Note_off_c, 1, 78, 0
5, 402153, Note_on_c, 1, 78, 50
5, 402525, Note_off_c, 1, 78, 0
5, 402525, Note_on_c, 1, 80, 50
5, 402897, Note_off_c, 1, 80, 0
5, 402897, Note_on_c, 1, 77, 50
5, 403270, Note_off_c, 1, 77, 0
5, 403270, Note_on_c, 1, 73, 50
5, 403642, Note_off_c, 1, 73, 0
5, 403642, Note_on_c, 1, 73, 50
5, 404015, Note_off_c, 1, 73, 0
5, 404015, Note_on_c, 1, 75, 50
5, 404387, Note_off_c, 1, 75, 0
5, 404387, Note_on_c, 1, 71, 50
5, 404759, Note_off_c, 1, 71, 0
5, 404759, Note_on_c, 1, 80, 50
5, 405132, Note_off_c, 1, 80, 0
5, 405132, Note_on_c, 1, 77, 50
5, 405504, Program_c, 1, 12
5, 405504, Note_off_c, 1, 77, 0
5, 405504, Note_on_c, 1, 77, 50
5, 405876, Note_off_c, 1, 77, 0
5, 405876, Note_on_c, 1, 75, 50
5, 406249, Note_off_c, 1, 75, 0
5, 406249, Note_on_c, 1, 78, 50
5, 406621, Note_off_c, 1, 78, 0
5, 406621, Note_on_c, 1, 77, 50
5, 406993, Note_off_c, 1, 77, 0
5, 406993, Note_on_c, 1, 73, 50
5, 407366, Note_off_c, 1, 73, 0
5, 407366, Note_on_c, 1, 75, 50
5, 407738, Note_off_c, 1, 75, 0
5, 407738, Note_on_c, 1, 80, 50
5, 408111, Note_off_c, 1, 80, 0
5, 408111, Note_on_c, 1, 73, 50
5, 408483, Note_off_c, 1, 73, 0
5, 408483, Note_on_c, 1, 78, 50
5, 408855, Note_off_c, 1, 78, 0
5, 408855, Note_on_c, 1, 65, 50
5, 409228, Note_off_c, 1, 65, 0
5, 409228, Note_on_c, 1, 71, 50
5, 409600, Program_c, 1, 12
5, 409600, Note_off_c, 1, 71, 0
5, 409600, Note_on_c, 1, 68, 50
5, 409728, Note_off_c, 1, 68, 0
5, 409728, Note_on_c, 1, 68, 50
5, 409856, Note_off_c, 1, 68, 0
5, 409856, Note_on_c, 1, 68, 50
5, 409984, Note_off_c, 1, 68, 0
5, 409984, Note_on_c, 1, 68, 50
5, 410112, Note_off_c, 1, 68, 0
5, 410112, Note_on_c, 1, 68, 50
5, 410240, Note_off_c, 1, 68, 0
5, 410240, Note_on_c, 1, 68, 50
5, 410368, Note_off_c, 1, 68, 0
5, 410368, Note_on_c, 1, 68, 50
5, 410496, Note_off_c, 1, 68, 0
5, 410496, Note_on_c, 1, 68, 50
5, 410624, Note_off_c, 1, 68, 0
5, 410624, Note_on_c, 1, 68, 50
5, 410752, Note_off_c, 1, 68, 0
5, 410752, Note_on_c, 1, 68, 50
5, 410880, Note_off_c, 1, 68, 0
5, 410880, Note_on_c, 1, 68, 50
5, 411008, Note_off_c, 1, 68, 0
5, 411008, Note_on_c, 1, 68, 50
5, 411136, Note_off_c, 1, 68, 0
5, 411136, Note_on_c, 1, 68, 50
5, 411264, Note_off_c, 1, 68, 0
5, 411264, Note_on_c, 1, 68, 50
5, 411392, Note_off_c, 1, 68, 0
5, 411392, Note_on_c, 1, 68, 50
5, 411520, Note_off_c, 1, 68, 0
5, 411520, Note_on_c, 1, 68, 50
5, 411648, Note_off_c, 1, 68, 0
5, 411648, Note_on_c, 1, 68, 50
5, 411776, Note_off_c, 1, 68, 0
5, 411776, Note_on_c, 1, 68, 50
5, 411904, Note_off_c, 1, 68, 0
5, 411904, Note_on_c, 1, 68, 50
5, 412032, Note_off_c, 1, 68, 0
5, 412032, Note_on_c, 1, 68, 50
5, 412160, Note_off_c, 1, 68, 0
5, 412160, Note_on_c, 1, 68, 50
5, 412288, Note_off_c, 1, 68, 0
5, 412288, Note_on_c, 1, 68, 50
5, 412416, Note_off_c, 1, 68, 0
5, 412416, Note_on_c, 1, 68, 50
5, 412544, Note_off_c, 1, 68, 0
5, 412544, Note_on_c, 1, 68, 50
5, 412672, Note_off_c, 1, 68, 0
5, 412672, Note_on_c, 1, 68, 50
5, 412800, Note_off_c, 1, 68, 0
5, 412800, Note_on_c, 1, 68, 50
5, 412928, Note_off_c, 1, 68, 0
5, 412928, Note_on_c, 1, 68, 50
5, 413056, Note_off_c, 1, 68, 0
5, 413056, Note_on_c, 1, 68, 50
5, 413184, Note_off_c, 1, 68, 0
5, 413184, Note_on_c, 1, 68, 50
5, 413312, Note_off_c, 1, 68, 0
5, 413312, Note_on_c, 1, 68, 50
5, 413440, Note_off_c, 1, 68, 0
5, 413440, Note_on_c, 1, 68, 50
5, 413568, Note_off_c, 1, 68, 0
5, 413568, Note_on_c, 1, 68, 50
5, 413696, Program_c, 1, 12
5, 413696, Note_off_c, 1, 68, 0
5, 413696, Note_on_c, 1, 68, 50
5, 417792, Note_off_c, 1, 68, 0
5, 417793, End_track
6, 0, Start_track
6, 0, Title_t, "Drums"
6, 0, Program_c, 9, 0
6, 0, Note_on_c, 9, 46, 64
6, 0, Note_on_c, 9, 36, 110
6, 256, Note_off_c, 9, 36, 0
6, 256, Note_on_c, 9, 36, 110
6, 512, Note_off_c, 9, 36, 0
6, 1024, Note_off_c, 9, 46, 0
6, 1024, Note_on_c, 9, 46, 64
6, 1536, Note_on_c, 9, 36, 110
6, 1792, Note_off_c, 9, 36, 0
6, 1792, Note_on_c, 9, 36, 110
6, 2048, Note_off_c, 9, 46, 0
6, 2048, Note_on_c, 9, 46, 64
6, 2048, Note_off_c, 9, 36, 0
6, 3072, Note_off_c, 9, 46, 0
6, 3072, Note_on_c, 9, 46, 64
6, 3072, Note_on_c, 9, 38, 90
6, 4096, Note_off_c, 9, 46, 0
6, 4096, Note_off_c, 9, 38, 0
6, 4096, Note_on_c, 9, 46, 64
6, 4096, Note_on_c, 9, 36, 110
6, 4608, Note_off_c, 9, 36, 0
6, 4608, Note_on_c, 9, 36, 110
6, 5120, Note_off_c, 9, 46, 0
6, 5120, Note_on_c, 9, 46, 64
6, 5120, Note_off_c, 9, 36, 0
6, 5120, Note_on_c, 9, 38, 90
6, 5888, Note_off_c, 9, 38, 0
6, 5888, Note_on_c, 9, 36, 110
6, 6144, Note_off_c, 9, 46, 0
6, 6144, Note_on_c, 9, 46, 64
6, 6144, Note_off_c, 9, 36, 0
6, 6144, Note_on_c, 9, 36, 110
6, 7168, Note_off_c, 9, 46, 0
6, 7168, Note_on_c, 9, 46, 64
6, 7552, Note_on_c, 9, 38, 90
6, 7680, Note_off_c, 9, 36, 0
6, 7680, Note_off_c, 9, 38, 0
6, 7680, Note_on_c, 9, 38, 90
6, 8192, Note_off_c, 9, 46, 0
6, 8192, Note_off_c, 9, 38, 0
6, 8192, Note_on_c, 9, 46, 64
6, 8192, Note_on_c, 9, 36, 110
6, 8448, Note_off_c, 9, 36, 0
6, 8448, Note_on_c, 9, 36, 110
6, 8704, Note_off_c, 9, 36, 0
6, 8704, Note_on_c, 9, 38, 90
6, 9216, Note_off_c, 9, 46, 0
6, 9216, Note_on_c, 9, 46, 64
6, 9728, Note_off_c, 9, 38, 0
6, 9728, Note_on_c, 9, 36, 110
6, 9984, Note_off_c, 9, 36, 0
6, 9984, Note_on_c, 9, 36, 110
6, 10240, Note_off_c, 9, 46, 0
6, 10240, Note_on_c, 9, 46, 64
6, 10240, Note_off_c, 9, 36, 0
6, 11264, Note_off_c, 9, 46, 0
6, 11264, Note_on_c, 9, 46, 64
6, 11264, Note_on_c, 9, 38, 90
6, 12288, Note_off_c, 9, 46, 0
6, 12288, Note_off_c, 9, 38, 0
6, 12288, Note_on_c, 9, 46, 64
6, 12288, Note_on_c, 9, 36, 110
6, 12544, Note_off_c, 9, 36, 0
6, 12544, Note_on_c, 9, 36, 110
6, 12800, Note_off_c, 9, 36, 0
6, 13312, Note_off_c, 9, 46, 0
6, 13312, Note_on_c, 9, 46, 64
6, 13824, Note_on_c, 9, 36, 110
6, 14080, Note_off_c, 9, 36, 0
6, 14080, Note_on_c, 9, 36, 110
6, 14336, Note_off_c, 9, 46, 0
6, 14336, Note_on_c, 9, 46, 64
6, 14336, Note_off_c, 9, 36, 0
6, 15360, Note_off_c, 9, 46, 0
6, 15360, Note_on_c, 9, 46, 64
6, 15360, Note_on_c, 9, 38, 90
6, 15872, Note_off_c, 9, 38, 0
6, 15872, Note_on_c, 9, 36, 110
6, 16384, Note_off_c, 9, 46, 0
6, 16384, Note_off_c, 9, 36, 0
6, 16384, Note_on_c, 9, 46, 64
6, 16384, Note_on_c, 9, 36, 110
6, 16725, Note_off_c, 9, 36, 0
6, 16725, Note_on_c, 9, 36, 110
6, 17067, Note_off_c, 9, 36, 0
6, 17067, Note_on_c, 9, 36, 110
6, 17408, Note_off_c, 9, 46, 0
6, 17408, Note_on_c, 9, 46, 64
6, 17408, Note_off_c, 9, 36, 0
6, 17408, Note_on_c, 9, 38, 90
6, 17920, Note_off_c, 9, 38, 0
6, 17920, Note_on_c, 9, 36, 110
6, 18176, Note_off_c, 9, 36, 0
6, 18176, Note_on_c, 9, 36, 110
6, 18432, Note_off_c, 9, 46, 0
6, 18432, Note_on_c, 9, 46, 64
6, 18432, Note_off_c, 9, 36, 0
6, 19456, Note_off_c, 9, 46, 0
6, 19456, Note_on_c, 9, 46, 64
6, 19456, Note_on_c, 9, 38, 90
6, 20480, Note_off_c, 9, 46, 0
6, 20480, Note_off_c, 9, 38, 0
6, 20480, Note_on_c, 9, 46, 64
6, 20480, Note_on_c, 9, 36, 110
6, 20736, Note_off_c, 9, 36, 0
6, 20736, Note_on_c, 9, 36, 110
6, 20992, Note_off_c, 9, 36, 0
6, 21504, Note_off_c, 9, 46, 0
6, 21504, Note_on_c, 9, 46, 64
6, 22016, Note_on_c, 9, 36, 110
6, 22272, Note_off_c, 9, 36, 0
6, 22272, Note_on_c, 9, 36, 110
6, 22528, Note_off_c, 9, 46, 0
6, 22528, Note_on_c, 9, 46, 64
6, 22528, Note_off_c, 9, 36, 0
6, 23552, Note_off_c, 9, 46, 0
6, 23552, Note_on_c, 9, 46, 64
6, 23552, Note_on_c, 9, 38, 90
6, 24576, Note_off_c, 9, 46, 0
6, 24576, Note_off_c, 9, 38, 0
6, 24576, Note_on_c, 9, 46, 64
6, 24576, Note_on_c, 9, 36, 110
6, 24832, Note_off_c, 9, 36, 0
6, 24832, Note_on_c, 9, 36, 110
6, 25088, Note_off_c, 9, 36, 0
6, 25600, Note_off_c, 9, 46, 0
6, 25600, Note_on_c, 9, 46, 64
6, 26112, Note_on_c, 9, 36, 110
6, 26368, Note_off_c, 9, 36, 0
6, 26368, Note_on_c, 9, 36, 110
6, 26624, Note_off_c, 9, 46, 0
6, 26624, Note_on_c, 9, 50, 64
6, 26624, Note_off_c, 9, 36, 0
6, 26624, Note_on_c, 9, 44, 64
6, 26752, Note_off_c, 9, 50, 0
6, 26752, Note_on_c, 9, 50, 64
6, 26880, Note_off_c, 9, 50, 0
6, 26880, Note_on_c, 9, 50, 64
6, 27008, Note_off_c, 9, 50, 0
6, 27008, Note_on_c, 9, 50, 64
6, 27136, Note_off_c, 9, 50, 0
6, 27136, Note_on_c, 9, 50, 64
6, 27264, Note_off_c, 9, 50, 0
6, 27264, Note_on_c, 9, 50, 64
6, 27392, Note_off_c, 9, 50, 0
6, 27392, Note_on_c, 9, 50, 64
6, 27520, Note_off_c, 9, 50, 0
6, 27520, Note_on_c, 9, 50, 64
6, 27648, Note_off_c, 9, 50, 0
6, 27648, Note_on_c, 9, 50, 64
6, 27648, Note_off_c, 9, 44, 0
6, 27648, Note_on_c, 9, 44, 64
6, 27776, Note_off_c, 9, 50, 0
6, 27776, Note_on_c, 9, 50, 64
6, 27904, Note_off_c, 9, 50, 0
6, 27904, Note_on_c, 9, 50, 64
6, 28032, Note_off_c, 9, 50, 0
6, 28032, Note_on_c, 9, 50, 64
6, 28160, Note_off_c, 9, 50, 0
6, 28160, Note_on_c, 9, 48, 64
6, 28288, Note_off_c, 9, 48, 0
6, 28288, Note_on_c, 9, 48, 64
6, 28416, Note_off_c, 9, 48, 0
6, 28416, Note_on_c, 9, 48, 64
6, 28544, Note_off_c, 9, 48, 0
6, 28544, Note_on_c, 9, 48, 64
6, 28672, Note_off_c, 9, 48, 0
6, 28672, Note_off_c, 9, 44, 0
6, 28672, Note_on_c, 9, 48, 64
6, 28672, Note_on_c, 9, 44, 64
6, 28800, Note_off_c, 9, 48, 0
6, 28800, Note_on_c, 9, 48, 64
6, 28928, Note_off_c, 9, 48, 0
6, 28928, Note_on_c, 9, 48, 64
6, 29056, Note_off_c, 9, 48, 0
6, 29056, Note_on_c, 9, 48, 64
6, 29184, Note_off_c, 9, 48, 0
6, 29184, Note_on_c, 9, 48, 64
6, 29312, Note_off_c, 9, 48, 0
6, 29312, Note_on_c, 9, 48, 64
6, 29440, Note_off_c, 9, 48, 0
6, 29440, Note_on_c, 9, 48, 64
6, 29568, Note_off_c, 9, 48, 0
6, 29568, Note_on_c, 9, 48, 64
6, 29696, Note_off_c, 9, 48, 0
6, 29696, Note_on_c, 9, 45, 64
6, 29696, Note_off_c, 9, 44, 0
6, 29696, Note_on_c, 9, 44, 64
6, 29824, Note_off_c, 9, 45, 0
6, 29824, Note_on_c, 9, 45, 64
6, 29952, Note_off_c, 9, 45, 0
6, 29952, Note_on_c, 9, 45, 64
6, 30080, Note_off_c, 9, 45, 0
6, 30080, Note_on_c, 9, 45, 64
6, 30208, Note_off_c, 9, 45, 0
6, 30208, Note_on_c, 9, 45, 64
6, 30336, Note_off_c, 9, 45, 0
6, 30336, Note_on_c, 9, 45, 64
6, 30464, Note_off_c, 9, 45, 0
6, 30464, Note_on_c, 9, 45, 64
6, 30592, Note_off_c, 9, 45, 0
6, 30592, Note_on_c, 9, 45, 64
6, 30720, Note_off_c, 9, 45, 0
6, 30720, Note_on_c, 9, 45, 64
6, 30720, Note_off_c, 9, 44, 0
6, 30720, Note_on_c, 9, 44, 64
6, 30848, Note_off_c, 9, 45, 0
6, 30848, Note_on_c, 9, 45, 64
6, 30976, Note_off_c, 9, 45, 0
6, 30976, Note_on_c, 9, 43, 64
6, 31104, Note_off_c, 9, 43, 0
6, 31104, Note_on_c, 9, 43, 64
6, 31232, Note_off_c, 9, 43, 0
6, 31232, Note_on_c, 9, 43, 64
6, 31360, Note_off_c, 9, 43, 0
6, 31360, Note_on_c, 9, 43, 64
6, 31488, Note_off_c, 9, 43, 0
6, 31488, Note_on_c, 9, 43, 64
6, 31616, Note_off_c, 9, 43, 0
6, 31616, Note_on_c, 9, 43, 64
6, 31744, Note_off_c, 9, 43, 0
6, 31744, Note_on_c, 9, 43, 64
6, 31744, Note_off_c, 9, 44, 0
6, 31744, Note_on_c, 9, 44, 64
6, 31872, Note_off_c, 9, 43, 0
6, 31872, Note_on_c, 9, 43, 64
6, 32000, Note_off_c, 9, 43, 0
6, 32000, Note_on_c, 9, 43, 64
6, 32128, Note_off_c, 9, 43, 0
6, 32128, Note_on_c, 9, 43, 64
6, 32256, Note_off_c, 9, 43, 0
6, 32256, Note_on_c, 9, 43, 64
6, 32384, Note_off_c, 9, 43, 0
6, 32384, Note_on_c, 9, 43, 64
6, 32512, Note_off_c, 9, 43, 0
6, 32768, Note_off_c, 9, 44, 0
6, 32768, Note_on_c, 9, 46, 64
6, 32768, Note_on_c, 9, 36, 110
6, 33024, Note_off_c, 9, 36, 0
6, 33024, Note_on_c, 9, 36, 110
6, 33280, Note_off_c, 9, 36, 0
6, 33792, Note_off_c, 9, 46, 0
6, 33792, Note_on_c, 9, 46, 64
6, 33792, Note_on_c, 9, 38, 90
6, 34304, Note_off_c, 9, 38, 0
6, 34304, Note_on_c, 9, 36, 110
6, 34560, Note_off_c, 9, 36, 0
6, 34560, Note_on_c, 9, 36, 110
6, 34816, Note_off_c, 9, 46, 0
6, 34816, Note_on_c, 9, 46, 64
6, 34816, Note_off_c, 9, 36, 0
6, 35840, Note_off_c, 9, 46, 0
6, 35840, Note_on_c, 9, 46, 64
6, 35840, Note_on_c, 9, 38, 90
6, 36352, Note_off_c, 9, 38, 0
6, 36352, Note_on_c, 9, 36, 110
6, 36608, Note_off_c, 9, 36, 0
6, 36608, Note_on_c, 9, 36, 110
6, 36864, Note_off_c, 9, 46, 0
6, 36864, Note_off_c, 9, 36, 0
6, 36864, Note_on_c, 9, 46, 64
6, 36864, Note_on_c, 9, 36, 110
6, 37120, Note_off_c, 9, 36, 0
6, 37120, Note_on_c, 9, 36, 110
6, 37376, Note_off_c, 9, 36, 0
6, 37888, Note_off_c, 9, 46, 0
6, 37888, Note_on_c, 9, 46, 64
6, 37888, Note_on_c, 9, 38, 90
6, 38400, Note_off_c, 9, 38, 0
6, 38400, Note_on_c, 9, 36, 110
6, 38656, Note_off_c, 9, 36, 0
6, 38656, Note_on_c, 9, 36, 110
6, 38912, Note_off_c, 9, 46, 0
6, 38912, Note_on_c, 9, 46, 64
6, 38912, Note_off_c, 9, 36, 0
6, 39936, Note_off_c, 9, 46, 0
6, 39936, Note_on_c, 9, 46, 64
6, 39936, Note_on_c, 9, 38, 90
6, 40448, Note_off_c, 9, 38, 0
6, 40448, Note_on_c, 9, 36, 110
6, 40704, Note_off_c, 9, 36, 0
6, 40704, Note_on_c, 9, 36, 110
6, 40960, Note_off_c, 9, 46, 0
6, 40960, Note_off_c, 9, 36, 0
6, 40960, Note_on_c, 9, 46, 64
6, 40960, Note_on_c, 9, 36, 110
6, 41216, Note_off_c, 9, 36, 0
6, 41216, Note_on_c, 9, 36, 110
6, 41472, Note_off_c, 9, 36, 0
6, 41984, Note_off_c, 9, 46, 0
6, 41984, Note_on_c, 9, 46, 64
6, 41984, Note_on_c, 9, 38, 90
6, 42496, Note_off_c, 9, 38, 0
6, 42496, Note_on_c, 9, 36, 110
6, 42752, Note_off_c, 9, 36, 0
6, 42752, Note_on_c, 9, 36, 110
6, 43008, Note_off_c, 9, 46, 0
6, 43008, Note_on_c, 9, 46, 64
6, 43008, Note_off_c, 9, 36, 0
6, 44032, Note_off_c, 9, 46, 0
6, 44032, Note_on_c, 9, 46, 64
6, 44032, Note_on_c, 9, 38, 90
6, 44544, Note_off_c, 9, 38, 0
6, 44544, Note_on_c, 9, 36, 110
6, 44800, Note_off_c, 9, 36, 0
6, 44800, Note_on_c, 9, 36, 110
6, 45056, Note_off_c, 9, 46, 0
6, 45056, Note_off_c, 9, 36, 0
6, 45056, Note_on_c, 9, 46, 64
6, 45056, Note_on_c, 9, 36, 110
6, 45312, Note_off_c, 9, 36, 0
6, 45312, Note_on_c, 9, 36, 110
6, 45568, Note_off_c, 9, 36, 0
6, 46080, Note_off_c, 9, 46, 0
6, 46080, Note_on_c, 9, 46, 64
6, 46080, Note_on_c, 9, 38, 90
6, 46592, Note_off_c, 9, 38, 0
6, 46592, Note_on_c, 9, 36, 110
6, 46848, Note_off_c, 9, 36, 0
6, 46848, Note_on_c, 9, 36, 110
6, 47104, Note_off_c, 9, 46, 0
6, 47104, Note_on_c, 9, 46, 64
6, 47104, Note_off_c, 9, 36, 0
6, 48128, Note_off_c, 9, 46, 0
6, 48128, Note_on_c, 9, 46, 64
6, 48128, Note_on_c, 9, 38, 90
6, 48640, Note_off_c, 9, 38, 0
6, 48640, Note_on_c, 9, 36, 110
6, 48896, Note_off_c, 9, 36, 0
6, 48896, Note_on_c, 9, 36, 110
6, 49152, Note_off_c, 9, 46, 0
6, 49152, Note_off_c, 9, 36, 0
6, 49152, Note_on_c, 9, 36, 110
6, 49664, Note_on_c, 9, 46, 64
6, 49664, Note_off_c, 9, 36, 0
6, 49664, Note_on_c, 9, 38, 90
6, 50176, Note_off_c, 9, 46, 0
6, 50176, Note_off_c, 9, 38, 0
6, 50176, Note_on_c, 9, 43, 64
6, 50688, Note_off_c, 9, 43, 0
6, 50688, Note_on_c, 9, 36, 110
6, 51200, Note_on_c, 9, 51, 120
6, 51200, Note_off_c, 9, 36, 0
6, 51200, Note_on_c, 9, 36, 110
6, 51712, Note_off_c, 9, 36, 0
6, 51712, Note_on_c, 9, 36, 110
6, 52224, Note_off_c, 9, 36, 0
6, 52224, Note_on_c, 9, 36, 110
6, 52736, Note_off_c, 9, 36, 0
6, 52736, Note_on_c, 9, 36, 110
6, 53248, Note_off_c, 9, 51, 0
6, 53248, Note_off_c, 9, 36, 0
6, 53248, Note_on_c, 9, 52, 64
6, 53248, Note_on_c, 9, 48, 64
6, 53931, Note_off_c, 9, 48, 0
6, 53931, Note_on_c, 9, 45, 64
6, 54272, Note_off_c, 9, 52, 0
6, 54272, Note_on_c, 9, 52, 64
6, 54613, Note_off_c, 9, 45, 0
6, 54613, Note_on_c, 9, 43, 64
6, 55168, Note_on_c, 9, 38, 90
6, 55296, Note_off_c, 9, 52, 0
6, 55296, Note_off_c, 9, 43, 0
6, 55296, Note_off_c, 9, 38, 0
6, 55296, Note_on_c, 9, 38, 90
6, 55706, Note_off_c, 9, 38, 0
6, 55706, Note_on_c, 9, 50, 64
6, 56115, Note_off_c, 9, 50, 0
6, 56115, Note_on_c, 9, 48, 64
6, 56320, Note_on_c, 9, 52, 64
6, 56525, Note_off_c, 9, 48, 0
6, 56525, Note_on_c, 9, 45, 64
6, 56934, Note_off_c, 9, 45, 0
6, 56934, Note_on_c, 9, 43, 64
6, 57344, Note_off_c, 9, 52, 0
6, 57344, Note_off_c, 9, 43, 0
6, 57344, Note_on_c, 9, 46, 64
6, 57344, Note_on_c, 9, 36, 110
6, 57637, Note_off_c, 9, 36, 0
6, 57637, Note_on_c, 9, 48, 64
6, 57929, Note_off_c, 9, 48, 0
6, 57929, Note_on_c, 9, 45, 64
6, 58222, Note_off_c, 9, 45, 0
6, 58222, Note_on_c, 9, 43, 64
6, 58368, Note_off_c, 9, 46, 0
6, 58368, Note_on_c, 9, 46, 64
6, 58514, Note_off_c, 9, 43, 0
6, 58514, Note_on_c, 9, 36, 110
6, 58807, Note_off_c, 9, 36, 0
6, 58807, Note_on_c, 9, 36, 110
6, 59099, Note_off_c, 9, 36, 0
6, 59099, Note_on_c, 9, 48, 64
6, 59392, Note_off_c, 9, 46, 0
6, 59392, Note_on_c, 9, 46, 64
6, 59392, Note_off_c, 9, 48, 0
6, 59392, Note_on_c, 9, 45, 64
6, 59685, Note_off_c, 9, 45, 0
6, 59685, Note_on_c, 9, 43, 64
6, 59977, Note_off_c, 9, 43, 0
6, 59977, Note_on_c, 9, 36, 110
6, 60270, Note_off_c, 9, 36, 0
6, 60270, Note_on_c, 9, 36, 110
6, 60416, Note_off_c, 9, 46, 0
6, 60416, Note_on_c, 9, 46, 64
6, 60562, Note_off_c, 9, 36, 0
6, 60562, Note_on_c, 9, 48, 64
6, 60855, Note_off_c, 9, 48, 0
6, 60855, Note_on_c, 9, 45, 64
6, 61147, Note_off_c, 9, 45, 0
6, 61147, Note_on_c, 9, 43, 64
6, 61440, Note_off_c, 9, 46, 0
6, 61440, Note_off_c, 9, 43, 0
6, 61440, Note_on_c, 9, 51, 64
6, 61440, Note_on_c, 9, 49, 64
6, 61440, Note_on_c, 9, 36, 110
6, 62464, Note_off_c, 9, 51, 0
6, 62464, Note_off_c, 9, 49, 0
6, 62464, Note_on_c, 9, 43, 64
6, 62464, Note_off_c, 9, 36, 0
6, 62464, Note_on_c, 9, 44, 64
6, 62592, Note_off_c, 9, 43, 0
6, 62592, Note_on_c, 9, 43, 64
6, 62720, Note_off_c, 9, 43, 0
6, 62720, Note_on_c, 9, 43, 64
6, 62848, Note_off_c, 9, 43, 0
6, 62848, Note_on_c, 9, 43, 64
6, 62976, Note_off_c, 9, 43, 0
6, 62976, Note_on_c, 9, 43, 64
6, 63104, Note_off_c, 9, 43, 0
6, 63104, Note_on_c, 9, 43, 64
6, 63232, Note_off_c, 9, 43, 0
6, 63232, Note_on_c, 9, 43, 64
6, 63360, Note_off_c, 9, 43, 0
6, 63360, Note_on_c, 9, 43, 64
6, 63488, Note_off_c, 9, 43, 0
6, 63488, Note_on_c, 9, 43, 64
6, 63488, Note_off_c, 9, 44, 0
6, 63488, Note_on_c, 9, 44, 64
6, 63616, Note_off_c, 9, 43, 0
6, 63616, Note_on_c, 9, 43, 64
6, 63744, Note_off_c, 9, 43, 0
6, 63744, Note_on_c, 9, 43, 64
6, 63872, Note_off_c, 9, 43, 0
6, 63872, Note_on_c, 9, 43, 64
6, 64000, Note_off_c, 9, 43, 0
6, 64000, Note_on_c, 9, 48, 64
6, 64512, Note_off_c, 9, 48, 0
6, 64512, Note_on_c, 9, 45, 64
6, 64512, Note_off_c, 9, 44, 0
6, 64512, Note_on_c, 9, 44, 64
6, 65024, Note_off_c, 9, 45, 0
6, 65024, Note_on_c, 9, 43, 64
6, 65536, Note_off_c, 9, 43, 0
6, 65536, Note_off_c, 9, 44, 0
6, 65536, Note_on_c, 9, 46, 64
6, 65536, Note_on_c, 9, 49, 64
6, 65536, Note_on_c, 9, 52, 64
6, 65536, Note_on_c, 9, 36, 110
6, 65792, Note_off_c, 9, 36, 0
6, 65792, Note_on_c, 9, 36, 110
6, 66048, Note_off_c, 9, 36, 0
6, 66560, Note_off_c, 9, 46, 0
6, 66560, Note_off_c, 9, 49, 0
6, 66560, Note_off_c, 9, 52, 0
6, 66560, Note_on_c, 9, 46, 64
6, 67072, Note_on_c, 9, 36, 110
6, 67328, Note_off_c, 9, 36, 0
6, 67328, Note_on_c, 9, 36, 110
6, 67584, Note_off_c, 9, 46, 0
6, 67584, Note_on_c, 9, 46, 64
6, 67584, Note_off_c, 9, 36, 0
6, 68608, Note_off_c, 9, 46, 0
6, 68608, Note_on_c, 9, 46, 64
6, 68608, Note_on_c, 9, 38, 90
6, 69632, Note_off_c, 9, 46, 0
6, 69632, Note_off_c, 9, 38, 0
6, 69632, Note_on_c, 9, 46, 64
6, 69632, Note_on_c, 9, 36, 110
6, 69888, Note_off_c, 9, 36, 0
6, 69888, Note_on_c, 9, 36, 110
6, 70144, Note_off_c, 9, 36, 0
6, 70656, Note_off_c, 9, 46, 0
6, 70656, Note_on_c, 9, 46, 64
6, 71168, Note_on_c, 9, 36, 110
6, 71424, Note_off_c, 9, 36, 0
6, 71424, Note_on_c, 9, 36, 110
6, 71680, Note_off_c, 9, 46, 0
6, 71680, Note_on_c, 9, 46, 64
6, 71680, Note_off_c, 9, 36, 0
6, 72704, Note_off_c, 9, 46, 0
6, 72704, Note_on_c, 9, 46, 64
6, 72704, Note_on_c, 9, 38, 90
6, 73216, Note_off_c, 9, 38, 0
6, 73216, Note_on_c, 9, 36, 110
6, 73728, Note_off_c, 9, 46, 0
6, 73728, Note_off_c, 9, 36, 0
6, 73728, Note_on_c, 9, 38, 90
6, 73728, Note_on_c, 9, 44, 64
6, 73813, Note_off_c, 9, 38, 0
6, 73813, Note_on_c, 9, 38, 90
6, 73899, Note_off_c, 9, 38, 0
6, 73899, Note_on_c, 9, 38, 90
6, 73984, Note_off_c, 9, 38, 0
6, 73984, Note_on_c, 9, 38, 90
6, 74069, Note_off_c, 9, 38, 0
6, 74069, Note_on_c, 9, 38, 90
6, 74155, Note_off_c, 9, 38, 0
6, 74155, Note_on_c, 9, 38, 90
6, 74240, Note_off_c, 9, 38, 0
6, 74240, Note_on_c, 9, 38, 90
6, 74325, Note_off_c, 9, 38, 0
6, 74325, Note_on_c, 9, 38, 90
6, 74411, Note_off_c, 9, 38, 0
6, 74752, Note_off_c, 9, 44, 0
6, 74752, Note_on_c, 9, 44, 64
6, 75093, Note_on_c, 9, 36, 64
6, 75776, Note_off_c, 9, 36, 0
6, 75776, Note_on_c, 9, 36, 64
6, 75776, Note_off_c, 9, 44, 0
6, 75776, Note_on_c, 9, 51, 64
6, 75776, Note_on_c, 9, 49, 64
6, 76800, Note_off_c, 9, 36, 0
6, 76800, Note_on_c, 9, 38, 90
6, 77312, Note_off_c, 9, 38, 0
6, 77312, Note_on_c, 9, 36, 64
6, 77824, Note_off_c, 9, 36, 0
6, 77824, Note_off_c, 9, 51, 0
6, 77824, Note_off_c, 9, 49, 0
6, 77824, Note_on_c, 9, 36, 110
6, 77824, Note_on_c, 9, 46, 64
6, 78507, Note_off_c, 9, 36, 0
6, 78507, Note_off_c, 9, 46, 0
6, 78507, Note_on_c, 9, 44, 64
6, 78507, Note_on_c, 9, 48, 64
6, 79189, Note_off_c, 9, 44, 0
6, 79189, Note_off_c, 9, 48, 0
6, 79189, Note_on_c, 9, 43, 64
6, 79189, Note_on_c, 9, 46, 64
6, 79872, Note_off_c, 9, 43, 0
6, 79872, Note_off_c, 9, 46, 0
6, 79872, Note_on_c, 9, 44, 64
6, 79872, Note_on_c, 9, 48, 64
6, 80555, Note_off_c, 9, 44, 0
6, 80555, Note_off_c, 9, 48, 0
6, 80555, Note_on_c, 9, 43, 64
6, 80555, Note_on_c, 9, 46, 64
6, 81237, Note_off_c, 9, 43, 0
6, 81237, Note_off_c, 9, 46, 0
6, 81237, Note_on_c, 9, 44, 64
6, 81237, Note_on_c, 9, 48, 64
6, 81920, Note_off_c, 9, 44, 0
6, 81920, Note_off_c, 9, 48, 0
6, 81920, Note_on_c, 9, 46, 64
6, 81920, Note_on_c, 9, 36, 110
6, 82176, Note_off_c, 9, 36, 0
6, 82176, Note_on_c, 9, 36, 110
6, 82432, Note_off_c, 9, 36, 0
6, 82944, Note_off_c, 9, 46, 0
6, 82944, Note_on_c, 9, 46, 64
6, 82944, Note_on_c, 9, 38, 90
6, 83456, Note_off_c, 9, 38, 0
6, 83456, Note_on_c, 9, 36, 110
6, 83712, Note_off_c, 9, 36, 0
6, 83712, Note_on_c, 9, 36, 110
6, 83968, Note_off_c, 9, 46, 0
6, 83968, Note_on_c, 9, 46, 64
6, 83968, Note_off_c, 9, 36, 0
6, 84992, Note_off_c, 9, 46, 0
6, 84992, Note_on_c, 9, 46, 64
6, 84992, Note_on_c, 9, 38, 90
6, 85504, Note_off_c, 9, 38, 0
6, 85504, Note_on_c, 9, 36, 110
6, 85760, Note_off_c, 9, 36, 0
6, 85760, Note_on_c, 9, 36, 110
6, 86016, Note_off_c, 9, 46, 0
6, 86016, Note_off_c, 9, 36, 0
6, 86016, Note_on_c, 9, 46, 64
6, 86016, Note_on_c, 9, 36, 110
6, 86272, Note_off_c, 9, 36, 0
6, 86272, Note_on_c, 9, 36, 110
6, 86528, Note_off_c, 9, 36, 0
6, 87040, Note_off_c, 9, 46, 0
6, 87040, Note_on_c, 9, 46, 64
6, 87040, Note_on_c, 9, 38, 90
6, 87552, Note_off_c, 9, 38, 0
6, 87552, Note_on_c, 9, 36, 110
6, 87808, Note_off_c, 9, 36, 0
6, 87808, Note_on_c, 9, 36, 110
6, 88064, Note_off_c, 9, 46, 0
6, 88064, Note_on_c, 9, 46, 64
6, 88064, Note_off_c, 9, 36, 0
6, 89088, Note_off_c, 9, 46, 0
6, 89088, Note_on_c, 9, 46, 64
6, 89088, Note_on_c, 9, 38, 90
6, 89600, Note_off_c, 9, 38, 0
6, 89600, Note_on_c, 9, 36, 110
6, 89856, Note_off_c, 9, 36, 0
6, 89856, Note_on_c, 9, 36, 110
6, 90112, Note_off_c, 9, 46, 0
6, 90112, Note_off_c, 9, 36, 0
6, 90112, Note_on_c, 9, 46, 64
6, 90112, Note_on_c, 9, 36, 110
6, 90368, Note_off_c, 9, 36, 0
6, 90368, Note_on_c, 9, 36, 110
6, 90624, Note_off_c, 9, 36, 0
6, 91136, Note_off_c, 9, 46, 0
6, 91136, Note_on_c, 9, 46, 64
6, 91136, Note_on_c, 9, 38, 90
6, 91648, Note_off_c, 9, 38, 0
6, 91648, Note_on_c, 9, 36, 110
6, 91904, Note_off_c, 9, 36, 0
6, 91904, Note_on_c, 9, 36, 110
6, 92160, Note_off_c, 9, 46, 0
6, 92160, Note_on_c, 9, 46, 64
6, 92160, Note_off_c, 9, 36, 0
6, 93184, Note_off_c, 9, 46, 0
6, 93184, Note_on_c, 9, 46, 64
6, 93184, Note_on_c, 9, 38, 90
6, 93696, Note_off_c, 9, 38, 0
6, 93696, Note_on_c, 9, 36, 110
6, 93952, Note_off_c, 9, 36, 0
6, 93952, Note_on_c, 9, 36, 110
6, 94208, Note_off_c, 9, 46, 0
6, 94208, Note_off_c, 9, 36, 0
6, 94208, Note_on_c, 9, 46, 64
6, 94208, Note_on_c, 9, 36, 110
6, 94464, Note_off_c, 9, 36, 0
6, 94464, Note_on_c, 9, 36, 110
6, 94720, Note_off_c, 9, 36, 0
6, 95232, Note_off_c, 9, 46, 0
6, 95232, Note_on_c, 9, 46, 64
6, 95232, Note_on_c, 9, 38, 90
6, 95744, Note_off_c, 9, 38, 0
6, 95744, Note_on_c, 9, 36, 110
6, 96000, Note_off_c, 9, 36, 0
6, 96000, Note_on_c, 9, 36, 110
6, 96256, Note_off_c, 9, 46, 0
6, 96256, Note_on_c, 9, 46, 64
6, 96256, Note_off_c, 9, 36, 0
6, 97280, Note_off_c, 9, 46, 0
6, 97280, Note_on_c, 9, 46, 64
6, 97280, Note_on_c, 9, 38, 90
6, 97792, Note_off_c, 9, 38, 0
6, 97792, Note_on_c, 9, 36, 110
6, 98048, Note_off_c, 9, 36, 0
6, 98048, Note_on_c, 9, 36, 110
6, 98304, Note_off_c, 9, 46, 0
6, 98304, Note_off_c, 9, 36, 0
6, 98304, Note_on_c, 9, 46, 64
6, 98304, Note_on_c, 9, 36, 110
6, 98560, Note_off_c, 9, 36, 0
6, 98560, Note_on_c, 9, 36, 110
6, 98816, Note_off_c, 9, 36, 0
6, 99328, Note_off_c, 9, 46, 0
6, 99328, Note_on_c, 9, 46, 64
6, 99328, Note_on_c, 9, 38, 90
6, 99840, Note_off_c, 9, 38, 0
6, 99840, Note_on_c, 9, 36, 110
6, 100096, Note_off_c, 9, 36, 0
6, 100096, Note_on_c, 9, 36, 110
6, 100352, Note_off_c, 9, 46, 0
6, 100352, Note_on_c, 9, 46, 64
6, 100352, Note_off_c, 9, 36, 0
6, 101376, Note_off_c, 9, 46, 0
6, 101376, Note_on_c, 9, 46, 64
6, 101376, Note_on_c, 9, 38, 90
6, 101888, Note_off_c, 9, 38, 0
6, 101888, Note_on_c, 9, 36, 110
6, 102144, Note_off_c, 9, 36, 0
6, 102144, Note_on_c, 9, 36, 110
6, 102400, Note_off_c, 9, 46, 0
6, 102400, Note_off_c, 9, 36, 0
6, 102400, Note_on_c, 9, 46, 64
6, 102400, Note_on_c, 9, 36, 110
6, 102656, Note_off_c, 9, 36, 0
6, 102656, Note_on_c, 9, 36, 110
6, 102912, Note_off_c, 9, 36, 0
6, 103424, Note_off_c, 9, 46, 0
6, 103424, Note_on_c, 9, 46, 64
6, 103424, Note_on_c, 9, 38, 90
6, 103936, Note_off_c, 9, 38, 0
6, 103936, Note_on_c, 9, 36, 110
6, 104192, Note_off_c, 9, 36, 0
6, 104192, Note_on_c, 9, 36, 110
6, 104448, Note_off_c, 9, 46, 0
6, 104448, Note_on_c, 9, 46, 64
6, 104448, Note_off_c, 9, 36, 0
6, 105472, Note_off_c, 9, 46, 0
6, 105472, Note_on_c, 9, 46, 64
6, 105472, Note_on_c, 9, 38, 90
6, 105984, Note_off_c, 9, 38, 0
6, 105984, Note_on_c, 9, 36, 110
6, 106240, Note_off_c, 9, 36, 0
6, 106240, Note_on_c, 9, 36, 110
6, 106496, Note_off_c, 9, 46, 0
6, 106496, Note_off_c, 9, 36, 0
6, 106496, Note_on_c, 9, 46, 64
6, 106496, Note_on_c, 9, 36, 110
6, 106752, Note_off_c, 9, 36, 0
6, 106752, Note_on_c, 9, 36, 110
6, 107008, Note_off_c, 9, 36, 0
6, 107520, Note_off_c, 9, 46, 0
6, 107520, Note_on_c, 9, 46, 64
6, 107520, Note_on_c, 9, 38, 90
6, 108032, Note_off_c, 9, 38, 0
6, 108032, Note_on_c, 9, 36, 110
6, 108288, Note_off_c, 9, 36, 0
6, 108288, Note_on_c, 9, 36, 110
6, 108544, Note_off_c, 9, 46, 0
6, 108544, Note_on_c, 9, 46, 64
6, 108544, Note_off_c, 9, 36, 0
6, 109568, Note_off_c, 9, 46, 0
6, 109568, Note_on_c, 9, 46, 64
6, 109568, Note_on_c, 9, 38, 90
6, 110080, Note_off_c, 9, 38, 0
6, 110080, Note_on_c, 9, 36, 110
6, 110336, Note_off_c, 9, 36, 0
6, 110336, Note_on_c, 9, 36, 110
6, 110592, Note_off_c, 9, 46, 0
6, 110592, Note_off_c, 9, 36, 0
6, 110592, Note_on_c, 9, 46, 64
6, 110592, Note_on_c, 9, 36, 110
6, 110848, Note_off_c, 9, 36, 0
6, 110848, Note_on_c, 9, 36, 110
6, 111104, Note_off_c, 9, 36, 0
6, 111616, Note_off_c, 9, 46, 0
6, 111616, Note_on_c, 9, 46, 64
6, 111616, Note_on_c, 9, 38, 90
6, 112128, Note_off_c, 9, 38, 0
6, 112128, Note_on_c, 9, 36, 110
6, 112384, Note_off_c, 9, 36, 0
6, 112384, Note_on_c, 9, 36, 110
6, 112640, Note_off_c, 9, 46, 0
6, 112640, Note_on_c, 9, 46, 64
6, 112640, Note_off_c, 9, 36, 0
6, 113664, Note_off_c, 9, 46, 0
6, 113664, Note_on_c, 9, 46, 64
6, 113664, Note_on_c, 9, 38, 90
6, 114176, Note_off_c, 9, 38, 0
6, 114176, Note_on_c, 9, 36, 110
6, 114432, Note_off_c, 9, 36, 0
6, 114432, Note_on_c, 9, 36, 110
6, 114688, Note_off_c, 9, 46, 0
6, 114688, Note_off_c, 9, 36, 0
6, 114688, Note_on_c, 9, 46, 64
6, 114688, Note_on_c, 9, 36, 110
6, 114944, Note_off_c, 9, 36, 0
6, 114944, Note_on_c, 9, 36, 110
6, 115200, Note_off_c, 9, 36, 0
6, 115712, Note_off_c, 9, 46, 0
6, 115712, Note_on_c, 9, 46, 64
6, 115712, Note_on_c, 9, 38, 90
6, 116224, Note_off_c, 9, 38, 0
6, 116224, Note_on_c, 9, 36, 110
6, 116480, Note_off_c, 9, 36, 0
6, 116480, Note_on_c, 9, 36, 110
6, 116736, Note_off_c, 9, 46, 0
6, 116736, Note_on_c, 9, 46, 64
6, 116736, Note_off_c, 9, 36, 0
6, 117760, Note_off_c, 9, 46, 0
6, 117760, Note_on_c, 9, 46, 64
6, 117760, Note_on_c, 9, 38, 90
6, 118272, Note_off_c, 9, 38, 0
6, 118272, Note_on_c, 9, 36, 110
6, 118528, Note_off_c, 9, 36, 0
6, 118528, Note_on_c, 9, 36, 110
6, 118784, Note_off_c, 9, 46, 0
6, 118784, Note_off_c, 9, 36, 0
6, 118784, Note_on_c, 9, 46, 64
6, 118784, Note_on_c, 9, 36, 110
6, 119040, Note_off_c, 9, 36, 0
6, 119040, Note_on_c, 9, 36, 110
6, 119296, Note_off_c, 9, 36, 0
6, 119808, Note_off_c, 9, 46, 0
6, 119808, Note_on_c, 9, 46, 64
6, 119808, Note_on_c, 9, 38, 90
6, 120320, Note_off_c, 9, 38, 0
6, 120320, Note_on_c, 9, 36, 110
6, 120576, Note_off_c, 9, 36, 0
6, 120576, Note_on_c, 9, 36, 110
6, 120832, Note_off_c, 9, 46, 0
6, 120832, Note_on_c, 9, 46, 64
6, 120832, Note_off_c, 9, 36, 0
6, 121856, Note_off_c, 9, 46, 0
6, 121856, Note_on_c, 9, 46, 64
6, 121856, Note_on_c, 9, 38, 90
6, 122368, Note_off_c, 9, 38, 0
6, 122368, Note_on_c, 9, 36, 110
6, 122624, Note_off_c, 9, 36, 0
6, 122624, Note_on_c, 9, 36, 110
6, 122880, Program_c, 9, 95
6, 122880, Note_off_c, 9, 46, 0
6, 122880, Note_off_c, 9, 36, 0
6, 122880, Note_on_c, 9, 38, 90
6, 122880, Note_on_c, 9, 44, 80
6, 123392, Note_off_c, 9, 38, 0
6, 123392, Note_on_c, 9, 36, 110
6, 123904, Note_off_c, 9, 36, 0
6, 123904, Note_on_c, 9, 38, 90
6, 123904, Note_off_c, 9, 44, 0
6, 123904, Note_on_c, 9, 44, 80
6, 124245, Note_off_c, 9, 38, 0
6, 124245, Note_on_c, 9, 36, 110
6, 124587, Note_off_c, 9, 36, 0
6, 124587, Note_on_c, 9, 38, 90
6, 124928, Note_off_c, 9, 38, 0
6, 124928, Note_on_c, 9, 50, 64
6, 124928, Note_off_c, 9, 44, 0
6, 124928, Note_on_c, 9, 44, 80
6, 125338, Note_off_c, 9, 50, 0
6, 125338, Note_on_c, 9, 38, 90
6, 125747, Note_off_c, 9, 38, 0
6, 125747, Note_on_c, 9, 48, 64
6, 125952, Note_off_c, 9, 44, 0
6, 125952, Note_on_c, 9, 44, 80
6, 126157, Note_off_c, 9, 48, 0
6, 126157, Note_on_c, 9, 45, 64
6, 126566, Note_off_c, 9, 45, 0
6, 126566, Note_on_c, 9, 43, 64
6, 126976, Note_off_c, 9, 43, 0
6, 126976, Note_off_c, 9, 44, 0
6, 126976, Note_on_c, 9, 36, 110
6, 126976, Note_on_c, 9, 46, 64
6, 127659, Note_off_c, 9, 36, 0
6, 127659, Note_off_c, 9, 46, 0
6, 127659, Note_on_c, 9, 44, 64
6, 127659, Note_on_c, 9, 48, 64
6, 128341, Note_off_c, 9, 44, 0
6, 128341, Note_off_c, 9, 48, 0
6, 128341, Note_on_c, 9, 43, 64
6, 128341, Note_on_c, 9, 46, 64
6, 129024, Note_off_c, 9, 43, 0
6, 129024, Note_off_c, 9, 46, 0
6, 129024, Note_on_c, 9, 44, 64
6, 129024, Note_on_c, 9, 48, 64
6, 129707, Note_off_c, 9, 44, 0
6, 129707, Note_off_c, 9, 48, 0
6, 129707, Note_on_c, 9, 43, 64
6, 129707, Note_on_c, 9, 46, 64
6, 130389, Note_off_c, 9, 43, 0
6, 130389, Note_off_c, 9, 46, 0
6, 130389, Note_on_c, 9, 44, 64
6, 130389, Note_on_c, 9, 48, 64
6, 131072, Note_off_c, 9, 44, 0
6, 131072, Note_off_c, 9, 48, 0
6, 131072, Note_on_c, 9, 48, 64
6, 131072, Note_on_c, 9, 44, 64
6, 131328, Note_off_c, 9, 48, 0
6, 131328, Note_on_c, 9, 38, 90
6, 131584, Note_off_c, 9, 38, 0
6, 131584, Note_on_c, 9, 43, 64
6, 131840, Note_off_c, 9, 43, 0
6, 131840, Note_on_c, 9, 46, 64
6, 132096, Note_off_c, 9, 46, 0
6, 132096, Note_on_c, 9, 45, 64
6, 132096, Note_off_c, 9, 44, 0
6, 132096, Note_on_c, 9, 44, 64
6, 132279, Note_off_c, 9, 45, 0
6, 132279, Note_on_c, 9, 43, 64
6, 132462, Note_off_c, 9, 43, 0
6, 132462, Note_on_c, 9, 46, 64
6, 132645, Note_off_c, 9, 46, 0
6, 132645, Note_on_c, 9, 56, 64
6, 132827, Note_off_c, 9, 56, 0
6, 132827, Note_on_c, 9, 56, 64
6, 133010, Note_off_c, 9, 56, 0
6, 133010, Note_on_c, 9, 48, 64
6, 133120, Note_off_c, 9, 44, 0
6, 133120, Note_on_c, 9, 44, 64
6, 133193, Note_off_c, 9, 48, 0
6, 133193, Note_on_c, 9, 38, 90
6, 133376, Note_off_c, 9, 38, 0
6, 133376, Note_on_c, 9, 43, 64
6, 133632, Note_off_c, 9, 43, 0
6, 133632, Note_on_c, 9, 50, 64
6, 133888, Note_off_c, 9, 50, 0
6, 133888, Note_on_c, 9, 48, 64
6, 134144, Note_off_c, 9, 48, 0
6, 134144, Note_on_c, 9, 38, 90
6, 134144, Note_off_c, 9, 44, 0
6, 134144, Note_on_c, 9, 44, 64
6, 134400, Note_off_c, 9, 38, 0
6, 134400, Note_on_c, 9, 48, 64
6, 134656, Note_off_c, 9, 48, 0
6, 134656, Note_on_c, 9, 43, 64
6, 134912, Note_off_c, 9, 43, 0
6, 134912, Note_on_c, 9, 41, 64
6, 135168, Note_off_c, 9, 41, 0
6, 135168, Note_off_c, 9, 44, 0
6, 135168, Note_on_c, 9, 56, 64
6, 135168, Note_on_c, 9, 44, 64
6, 135424, Note_off_c, 9, 56, 0
6, 135424, Note_on_c, 9, 45, 64
6, 135680, Note_off_c, 9, 45, 0
6, 135680, Note_on_c, 9, 48, 64
6, 135936, Note_off_c, 9, 48, 0
6, 135936, Note_on_c, 9, 56, 64
6, 136192, Note_off_c, 9, 56, 0
6, 136192, Note_on_c, 9, 56, 64
6, 136192, Note_off_c, 9, 44, 0
6, 136192, Note_on_c, 9, 44, 64
6, 136448, Note_off_c, 9, 56, 0
6, 136448, Note_on_c, 9, 45, 64
6, 136704, Note_off_c, 9, 45, 0
6, 136704, Note_on_c, 9, 48, 64
6, 136960, Note_off_c, 9, 48, 0
6, 136960, Note_on_c, 9, 45, 64
6, 137216, Note_off_c, 9, 45, 0
6, 137216, Note_on_c, 9, 38, 90
6, 137216, Note_off_c, 9, 44, 0
6, 137216, Note_on_c, 9, 44, 64
6, 137472, Note_off_c, 9, 38, 0
6, 137472, Note_on_c, 9, 43, 64
6, 137728, Note_off_c, 9, 43, 0
6, 137728, Note_on_c, 9, 41, 64
6, 137984, Note_off_c, 9, 41, 0
6, 137984, Note_on_c, 9, 48, 64
6, 138240, Note_off_c, 9, 48, 0
6, 138240, Note_on_c, 9, 43, 64
6, 138240, Note_off_c, 9, 44, 0
6, 138240, Note_on_c, 9, 44, 64
6, 138496, Note_off_c, 9, 43, 0
6, 138496, Note_on_c, 9, 41, 64
6, 138752, Note_off_c, 9, 41, 0
6, 138752, Note_on_c, 9, 45, 64
6, 139008, Note_off_c, 9, 45, 0
6, 139008, Note_on_c, 9, 48, 64
6, 139264, Note_off_c, 9, 48, 0
6, 139264, Note_off_c, 9, 44, 0
6, 139264, Note_on_c, 9, 38, 90
6, 139264, Note_on_c, 9, 44, 64
6, 139674, Note_off_c, 9, 38, 0
6, 139674, Note_on_c, 9, 36, 110
6, 140083, Note_off_c, 9, 36, 0
6, 140083, Note_on_c, 9, 48, 64
6, 140288, Note_off_c, 9, 44, 0
6, 140288, Note_on_c, 9, 44, 64
6, 140493, Note_off_c, 9, 48, 0
6, 140493, Note_on_c, 9, 43, 64
6, 140902, Note_off_c, 9, 43, 0
6, 140902, Note_on_c, 9, 41, 64
6, 141312, Note_off_c, 9, 41, 0
6, 141312, Note_on_c, 9, 38, 90
6, 141312, Note_off_c, 9, 44, 0
6, 141312, Note_on_c, 9, 44, 64
6, 141722, Note_off_c, 9, 38, 0
6, 141722, Note_on_c, 9, 36, 110
6, 142131, Note_off_c, 9, 36, 0
6, 142131, Note_on_c, 9, 48, 64
6, 142336, Note_off_c, 9, 44, 0
6, 142336, Note_on_c, 9, 44, 64
6, 142541, Note_off_c, 9, 48, 0
6, 142541, Note_on_c, 9, 43, 64
6, 142950, Note_off_c, 9, 43, 0
6, 142950, Note_on_c, 9, 41, 64
6, 143360, Note_off_c, 9, 41, 0
6, 143360, Note_off_c, 9, 44, 0
6, 143360, Note_on_c, 9, 36, 110
6, 143360, Note_on_c, 9, 44, 64
6, 144384, Note_off_c, 9, 36, 0
6, 144384, Note_on_c, 9, 38, 90
6, 144384, Note_off_c, 9, 44, 0
6, 144384, Note_on_c, 9, 44, 64
6, 144512, Note_off_c, 9, 38, 0
6, 144512, Note_on_c, 9, 38, 90
6, 144640, Note_off_c, 9, 38, 0
6, 144640, Note_on_c, 9, 38, 90
6, 144768, Note_off_c, 9, 38, 0
6, 144768, Note_on_c, 9, 38, 90
6, 144896, Note_off_c, 9, 38, 0
6, 144896, Note_on_c, 9, 38, 90
6, 145024, Note_off_c, 9, 38, 0
6, 145024, Note_on_c, 9, 38, 90
6, 145152, Note_off_c, 9, 38, 0
6, 145152, Note_on_c, 9, 38, 90
6, 145280, Note_off_c, 9, 38, 0
6, 145280, Note_on_c, 9, 38, 90
6, 145408, Note_off_c, 9, 38, 0
6, 145408, Note_on_c, 9, 38, 90
6, 145408, Note_off_c, 9, 44, 0
6, 145408, Note_on_c, 9, 44, 64
6, 145536, Note_off_c, 9, 38, 0
6, 145536, Note_on_c, 9, 38, 90
6, 145664, Note_off_c, 9, 38, 0
6, 145664, Note_on_c, 9, 38, 90
6, 145792, Note_off_c, 9, 38, 0
6, 145792, Note_on_c, 9, 38, 90
6, 145920, Note_off_c, 9, 38, 0
6, 146432, Note_on_c, 9, 38, 90
6, 146432, Note_off_c, 9, 44, 0
6, 146432, Note_on_c, 9, 44, 64
6, 147456, Note_off_c, 9, 38, 0
6, 147456, Note_off_c, 9, 44, 0
6, 147456, Note_on_c, 9, 46, 64
6, 147456, Note_on_c, 9, 36, 110
6, 147712, Note_off_c, 9, 36, 0
6, 147712, Note_on_c, 9, 36, 110
6, 147968, Note_off_c, 9, 36, 0
6, 148480, Note_off_c, 9, 46, 0
6, 148480, Note_on_c, 9, 46, 64
6, 148992, Note_on_c, 9, 36, 110
6, 149248, Note_off_c, 9, 36, 0
6, 149248, Note_on_c, 9, 36, 110
6, 149504, Note_off_c, 9, 46, 0
6, 149504, Note_on_c, 9, 46, 64
6, 149504, Note_off_c, 9, 36, 0
6, 150528, Note_off_c, 9, 46, 0
6, 150528, Note_on_c, 9, 46, 64
6, 150528, Note_on_c, 9, 38, 90
6, 151552, Note_off_c, 9, 46, 0
6, 151552, Note_off_c, 9, 38, 0
6, 151552, Note_on_c, 9, 46, 64
6, 151552, Note_on_c, 9, 36, 110
6, 151808, Note_off_c, 9, 36, 0
6, 151808, Note_on_c, 9, 36, 110
6, 152064, Note_off_c, 9, 36, 0
6, 152576, Note_off_c, 9, 46, 0
6, 152576, Note_on_c, 9, 46, 64
6, 153088, Note_on_c, 9, 36, 110
6, 153344, Note_off_c, 9, 36, 0
6, 153344, Note_on_c, 9, 36, 110
6, 153600, Note_off_c, 9, 46, 0
6, 153600, Note_on_c, 9, 46, 64
6, 153600, Note_off_c, 9, 36, 0
6, 154624, Note_off_c, 9, 46, 0
6, 154624, Note_on_c, 9, 46, 64
6, 154624, Note_on_c, 9, 38, 90
6, 155648, Note_off_c, 9, 46, 0
6, 155648, Note_off_c, 9, 38, 0
6, 155648, Note_on_c, 9, 46, 64
6, 155648, Note_on_c, 9, 36, 110
6, 155904, Note_off_c, 9, 36, 0
6, 155904, Note_on_c, 9, 36, 110
6, 156160, Note_off_c, 9, 36, 0
6, 156672, Note_off_c, 9, 46, 0
6, 156672, Note_on_c, 9, 46, 64
6, 157184, Note_on_c, 9, 36, 110
6, 157440, Note_off_c, 9, 36, 0
6, 157440, Note_on_c, 9, 36, 110
6, 157696, Note_off_c, 9, 46, 0
6, 157696, Note_on_c, 9, 46, 64
6, 157696, Note_off_c, 9, 36, 0
6, 158720, Note_off_c, 9, 46, 0
6, 158720, Note_on_c, 9, 46, 64
6, 158720, Note_on_c, 9, 38, 90
6, 159744, Note_off_c, 9, 46, 0
6, 159744, Note_off_c, 9, 38, 0
6, 159744, Note_on_c, 9, 46, 64
6, 159744, Note_on_c, 9, 36, 110
6, 160000, Note_off_c, 9, 36, 0
6, 160000, Note_on_c, 9, 36, 110
6, 160256, Note_off_c, 9, 36, 0
6, 160768, Note_off_c, 9, 46, 0
6, 160768, Note_on_c, 9, 46, 64
6, 161280, Note_on_c, 9, 36, 110
6, 161536, Note_off_c, 9, 36, 0
6, 161536, Note_on_c, 9, 36, 110
6, 161792, Note_off_c, 9, 46, 0
6, 161792, Note_on_c, 9, 46, 64
6, 161792, Note_off_c, 9, 36, 0
6, 162816, Note_off_c, 9, 46, 0
6, 162816, Note_on_c, 9, 46, 64
6, 162816, Note_on_c, 9, 38, 90
6, 163840, Note_off_c, 9, 46, 0
6, 163840, Note_off_c, 9, 38, 0
6, 163840, Note_on_c, 9, 46, 64
6, 163840, Note_on_c, 9, 36, 110
6, 164096, Note_off_c, 9, 36, 0
6, 164096, Note_on_c, 9, 36, 110
6, 164352, Note_off_c, 9, 36, 0
6, 164864, Note_off_c, 9, 46, 0
6, 164864, Note_on_c, 9, 46, 64
6, 165376, Note_on_c, 9, 36, 110
6, 165632, Note_off_c, 9, 36, 0
6, 165632, Note_on_c, 9, 36, 110
6, 165888, Note_off_c, 9, 46, 0
6, 165888, Note_on_c, 9, 46, 64
6, 165888, Note_off_c, 9, 36, 0
6, 166912, Note_off_c, 9, 46, 0
6, 166912, Note_on_c, 9, 46, 64
6, 166912, Note_on_c, 9, 38, 90
6, 167936, Note_off_c, 9, 46, 0
6, 167936, Note_off_c, 9, 38, 0
6, 167936, Note_on_c, 9, 48, 64
6, 167936, Note_on_c, 9, 44, 64
6, 168192, Note_off_c, 9, 48, 0
6, 168192, Note_on_c, 9, 50, 64
6, 168448, Note_off_c, 9, 50, 0
6, 168448, Note_on_c, 9, 36, 110
6, 168960, Note_off_c, 9, 36, 0
6, 168960, Note_on_c, 9, 48, 64
6, 168960, Note_off_c, 9, 44, 0
6, 168960, Note_on_c, 9, 44, 64
6, 169216, Note_off_c, 9, 48, 0
6, 169216, Note_on_c, 9, 50, 64
6, 169472, Note_off_c, 9, 50, 0
6, 169472, Note_on_c, 9, 36, 110
6, 169984, Note_off_c, 9, 36, 0
6, 169984, Note_on_c, 9, 38, 90
6, 169984, Note_off_c, 9, 44, 0
6, 169984, Note_on_c, 9, 44, 64
6, 170496, Note_off_c, 9, 38, 0
6, 170496, Note_on_c, 9, 48, 64
6, 170752, Note_off_c, 9, 48, 0
6, 170752, Note_on_c, 9, 45, 64
6, 171008, Note_off_c, 9, 45, 0
6, 171008, Note_on_c, 9, 38, 90
6, 171008, Note_off_c, 9, 44, 0
6, 171008, Note_on_c, 9, 44, 64
6, 171264, Note_off_c, 9, 38, 0
6, 171264, Note_on_c, 9, 50, 64
6, 171520, Note_off_c, 9, 50, 0
6, 171520, Note_on_c, 9, 48, 64
6, 171776, Note_off_c, 9, 48, 0
6, 171776, Note_on_c, 9, 45, 64
6, 172032, Note_off_c, 9, 45, 0
6, 172032, Note_off_c, 9, 44, 0
6, 172032, Note_on_c, 9, 50, 64
6, 172032, Note_on_c, 9, 44, 64
6, 172288, Note_off_c, 9, 50, 0
6, 172288, Note_on_c, 9, 48, 64
6, 172544, Note_off_c, 9, 48, 0
6, 172544, Note_on_c, 9, 45, 64
6, 172800, Note_off_c, 9, 45, 0
6, 172800, Note_on_c, 9, 43, 64
6, 173056, Note_off_c, 9, 43, 0
6, 173056, Note_on_c, 9, 36, 110
6, 173056, Note_off_c, 9, 44, 0
6, 173056, Note_on_c, 9, 44, 64
6, 173312, Note_off_c, 9, 36, 0
6, 173312, Note_on_c, 9, 48, 64
6, 173568, Note_off_c, 9, 48, 0
6, 173568, Note_on_c, 9, 43, 64
6, 173824, Note_off_c, 9, 43, 0
6, 173824, Note_on_c, 9, 36, 110
6, 174080, Note_off_c, 9, 36, 0
6, 174080, Note_on_c, 9, 48, 64
6, 174080, Note_off_c, 9, 44, 0
6, 174080, Note_on_c, 9, 44, 64
6, 174336, Note_off_c, 9, 48, 0
6, 174336, Note_on_c, 9, 50, 64
6, 174592, Note_off_c, 9, 50, 0
6, 174592, Note_on_c, 9, 36, 110
6, 174848, Note_off_c, 9, 36, 0
6, 174848, Note_on_c, 9, 45, 64
6, 175104, Note_off_c, 9, 45, 0
6, 175104, Note_on_c, 9, 43, 64
6, 175104, Note_off_c, 9, 44, 0
6, 175104, Note_on_c, 9, 44, 64
6, 175360, Note_off_c, 9, 43, 0
6, 175360, Note_on_c, 9, 36, 110
6, 175616, Note_off_c, 9, 36, 0
6, 175616, Note_on_c, 9, 45, 64
6, 175872, Note_off_c, 9, 45, 0
6, 175872, Note_on_c, 9, 48, 64
6, 176128, Note_off_c, 9, 48, 0
6, 176128, Note_off_c, 9, 44, 0
6, 176128, Note_on_c, 9, 43, 64
6, 176128, Note_on_c, 9, 44, 64
6, 176384, Note_off_c, 9, 43, 0
6, 176384, Note_on_c, 9, 36, 110
6, 176640, Note_off_c, 9, 36, 0
6, 176640, Note_on_c, 9, 50, 64
6, 176896, Note_off_c, 9, 50, 0
6, 176896, Note_on_c, 9, 45, 64
6, 177152, Note_off_c, 9, 45, 0
6, 177152, Note_on_c, 9, 48, 64
6, 177152, Note_off_c, 9, 44, 0
6, 177152, Note_on_c, 9, 44, 64
6, 177408, Note_off_c, 9, 48, 0
6, 177408, Note_on_c, 9, 50, 64
6, 177664, Note_off_c, 9, 50, 0
6, 177664, Note_on_c, 9, 43, 64
6, 177920, Note_off_c, 9, 43, 0
6, 177920, Note_on_c, 9, 36, 110
6, 178176, Note_off_c, 9, 36, 0
6, 178176, Note_on_c, 9, 36, 110
6, 178176, Note_off_c, 9, 44, 0
6, 178176, Note_on_c, 9, 44, 64
6, 178432, Note_off_c, 9, 36, 0
6, 178432, Note_on_c, 9, 50, 64
6, 178688, Note_off_c, 9, 50, 0
6, 178688, Note_on_c, 9, 45, 64
6, 178944, Note_off_c, 9, 45, 0
6, 178944, Note_on_c, 9, 43, 64
6, 179200, Note_off_c, 9, 43, 0
6, 179200, Note_on_c, 9, 38, 90
6, 179200, Note_off_c, 9, 44, 0
6, 179200, Note_on_c, 9, 44, 64
6, 179456, Note_off_c, 9, 38, 0
6, 179456, Note_on_c, 9, 50, 64
6, 179712, Note_off_c, 9, 50, 0
6, 179712, Note_on_c, 9, 43, 64
6, 179968, Note_off_c, 9, 43, 0
6, 179968, Note_on_c, 9, 36, 110
6, 180224, Note_off_c, 9, 36, 0
6, 180224, Note_off_c, 9, 44, 0
6, 180224, Note_on_c, 9, 44, 64
6, 181248, Note_on_c, 9, 38, 90
6, 181248, Note_off_c, 9, 44, 0
6, 181248, Note_on_c, 9, 44, 64
6, 181504, Note_off_c, 9, 38, 0
6, 181504, Note_on_c, 9, 50, 64
6, 181760, Note_off_c, 9, 50, 0
6, 181760, Note_on_c, 9, 43, 64
6, 182016, Note_off_c, 9, 43, 0
6, 182016, Note_on_c, 9, 36, 110
6, 182272, Note_off_c, 9, 36, 0
6, 182272, Note_off_c, 9, 44, 0
6, 182272, Note_on_c, 9, 44, 64
6, 183296, Note_off_c, 9, 44, 0
6, 183296, Note_on_c, 9, 44, 64
6, 184320, Note_off_c, 9, 44, 0
6, 184320, Note_on_c, 9, 38, 90
6, 184320, Note_on_c, 9, 44, 64
6, 184576, Note_off_c, 9, 38, 0
6, 184576, Note_on_c, 9, 50, 64
6, 184832, Note_off_c, 9, 50, 0
6, 184832, Note_on_c, 9, 43, 64
6, 185088, Note_off_c, 9, 43, 0
6, 185088, Note_on_c, 9, 36, 110
6, 185344, Note_off_c, 9, 36, 0
6, 185344, Note_off_c, 9, 44, 0
6, 185344, Note_on_c, 9, 44, 64
6, 186368, Note_off_c, 9, 44, 0
6, 186368, Note_on_c, 9, 44, 64
6, 187392, Note_on_c, 9, 38, 90
6, 187392, Note_off_c, 9, 44, 0
6, 187392, Note_on_c, 9, 44, 64
6, 187648, Note_off_c, 9, 38, 0
6, 187648, Note_on_c, 9, 38, 90
6, 187904, Note_off_c, 9, 38, 0
6, 187904, Note_on_c, 9, 43, 64
6, 188160, Note_off_c, 9, 43, 0
6, 188160, Note_on_c, 9, 36, 110
6, 188416, Note_off_c, 9, 36, 0
6, 188416, Note_off_c, 9, 44, 0
6, 188416, Note_on_c, 9, 46, 64
6, 188416, Note_on_c, 9, 36, 110
6, 189440, Note_off_c, 9, 46, 0
6, 189440, Note_on_c, 9, 46, 64
6, 189440, Note_off_c, 9, 36, 0
6, 189440, Note_on_c, 9, 38, 90
6, 190464, Note_off_c, 9, 38, 0
6, 190464, Note_on_c, 9, 36, 110
6, 190464, Note_on_c, 9, 48, 64
6, 191488, Note_off_c, 9, 36, 0
6, 191488, Note_off_c, 9, 48, 0
6, 191488, Note_on_c, 9, 36, 110
6, 191488, Note_on_c, 9, 43, 64
6, 192512, Note_off_c, 9, 46, 0
6, 192512, Note_off_c, 9, 36, 0
6, 192512, Note_off_c, 9, 43, 0
6, 192512, Note_on_c, 9, 46, 64
6, 192512, Note_on_c, 9, 36, 110
6, 193536, Note_off_c, 9, 46, 0
6, 193536, Note_on_c, 9, 46, 64
6, 193536, Note_off_c, 9, 36, 0
6, 193536, Note_on_c, 9, 38, 90
6, 194176, Note_on_c, 9, 38, 90
6, 194304, Note_off_c, 9, 38, 0
6, 194304, Note_on_c, 9, 38, 90
6, 194432, Note_off_c, 9, 38, 0
6, 194432, Note_on_c, 9, 38, 90
6, 194560, Note_off_c, 9, 38, 0
6, 194560, Note_off_c, 9, 38, 0
6, 194560, Note_on_c, 9, 38, 90
6, 195072, Note_off_c, 9, 38, 0
6, 195072, Note_on_c, 9, 36, 110
6, 195584, Note_off_c, 9, 46, 0
6, 195584, Note_on_c, 9, 52, 64
6, 195584, Note_off_c, 9, 36, 0
6, 195584, Note_on_c, 9, 43, 64
6, 196096, Note_off_c, 9, 43, 0
6, 196096, Note_on_c, 9, 36, 110
6, 196608, Note_off_c, 9, 52, 0
6, 196608, Note_off_c, 9, 36, 0
6, 196608, Note_on_c, 9, 46, 64
6, 196608, Note_on_c, 9, 36, 110
6, 197632, Note_off_c, 9, 46, 0
6, 197632, Note_on_c, 9, 46, 64
6, 197632, Note_off_c, 9, 36, 0
6, 197632, Note_on_c, 9, 38, 90
6, 198144, Note_off_c, 9, 38, 0
6, 198144, Note_on_c, 9, 36, 110
6, 198656, Note_off_c, 9, 46, 0
6, 198656, Note_on_c, 9, 46, 64
6, 198656, Note_off_c, 9, 36, 0
6, 198656, Note_on_c, 9, 38, 90
6, 199339, Note_off_c, 9, 38, 0
6, 199339, Note_on_c, 9, 36, 110
6, 199680, Note_off_c, 9, 46, 0
6, 199680, Note_on_c, 9, 46, 64
6, 200021, Note_off_c, 9, 36, 0
6, 200021, Note_on_c, 9, 36, 110
6, 200704, Note_off_c, 9, 46, 0
6, 200704, Note_off_c, 9, 36, 0
6, 200704, Note_on_c, 9, 46, 64
6, 200704, Note_on_c, 9, 36, 110
6, 200960, Note_off_c, 9, 46, 0
6, 200960, Note_on_c, 9, 46, 64
6, 200960, Note_off_c, 9, 36, 0
6, 200960, Note_on_c, 9, 36, 110
6, 201216, Note_off_c, 9, 46, 0
6, 201216, Note_on_c, 9, 46, 64
6, 201216, Note_off_c, 9, 36, 0
6, 201216, Note_on_c, 9, 36, 110
6, 201472, Note_off_c, 9, 46, 0
6, 201472, Note_on_c, 9, 46, 64
6, 201472, Note_off_c, 9, 36, 0
6, 201472, Note_on_c, 9, 36, 110
6, 201728, Note_off_c, 9, 46, 0
6, 201728, Note_off_c, 9, 36, 0
6, 201728, Note_on_c, 9, 38, 90
6, 201984, Note_off_c, 9, 38, 0
6, 201984, Note_on_c, 9, 38, 90
6, 202240, Note_off_c, 9, 38, 0
6, 202240, Note_on_c, 9, 38, 90
6, 202496, Note_off_c, 9, 38, 0
6, 202496, Note_on_c, 9, 38, 90
6, 202752, Note_on_c, 9, 46, 64
6, 202752, Note_off_c, 9, 38, 0
6, 202752, Note_on_c, 9, 36, 110
6, 203008, Note_off_c, 9, 36, 0
6, 203008, Note_on_c, 9, 38, 90
6, 203264, Note_off_c, 9, 38, 0
6, 203264, Note_on_c, 9, 38, 90
6, 203520, Note_off_c, 9, 38, 0
6, 203520, Note_on_c, 9, 36, 110
6, 203776, Note_off_c, 9, 46, 0
6, 203776, Note_on_c, 9, 51, 64
6, 203776, Note_on_c, 9, 49, 64
6, 203776, Note_off_c, 9, 36, 0
6, 203776, Note_on_c, 9, 36, 110
6, 205056, Note_off_c, 9, 36, 0
6, 205056, Note_on_c, 9, 45, 64
6, 205312, Note_off_c, 9, 45, 0
6, 205312, Note_on_c, 9, 43, 64
6, 205568, Note_off_c, 9, 43, 0
6, 205568, Note_on_c, 9, 36, 110
6, 205824, Note_off_c, 9, 51, 0
6, 205824, Note_off_c, 9, 49, 0
6, 205824, Note_on_c, 9, 46, 64
6, 205824, Note_off_c, 9, 36, 0
6, 205824, Note_on_c, 9, 36, 110
6, 206848, Note_off_c, 9, 46, 0
6, 206848, Note_on_c, 9, 46, 64
6, 207360, Note_off_c, 9, 36, 0
6, 207360, Note_on_c, 9, 36, 110
6, 207872, Note_off_c, 9, 46, 0
6, 207872, Note_on_c, 9, 46, 64
6, 207872, Note_off_c, 9, 36, 0
6, 207872, Note_on_c, 9, 38, 90
6, 208384, Note_off_c, 9, 38, 0
6, 208384, Note_on_c, 9, 36, 110
6, 208896, Note_off_c, 9, 46, 0
6, 208896, Note_off_c, 9, 36, 0
6, 208896, Note_on_c, 9, 46, 64
6, 208896, Note_on_c, 9, 36, 110
6, 209152, Note_off_c, 9, 36, 0
6, 209152, Note_on_c, 9, 36, 110
6, 209408, Note_off_c, 9, 36, 0
6, 209579, Note_off_c, 9, 46, 0
6, 209579, Note_on_c, 9, 46, 64
6, 209920, Note_on_c, 9, 38, 90
6, 210261, Note_off_c, 9, 46, 0
6, 210261, Note_on_c, 9, 46, 64
6, 210432, Note_off_c, 9, 38, 0
6, 210432, Note_on_c, 9, 36, 110
6, 210688, Note_off_c, 9, 36, 0
6, 210688, Note_on_c, 9, 36, 110
6, 210944, Note_off_c, 9, 46, 0
6, 210944, Note_on_c, 9, 46, 64
6, 210944, Note_off_c, 9, 36, 0
6, 211627, Note_off_c, 9, 46, 0
6, 211627, Note_on_c, 9, 46, 64
6, 211627, Note_on_c, 9, 36, 110
6, 211968, Note_off_c, 9, 36, 0
6, 211968, Note_on_c, 9, 38, 90
6, 212309, Note_off_c, 9, 46, 0
6, 212309, Note_on_c, 9, 46, 64
6, 212309, Note_off_c, 9, 38, 0
6, 212309, Note_on_c, 9, 36, 110
6, 212651, Note_off_c, 9, 36, 0
6, 212651, Note_on_c, 9, 56, 64
6, 212992, Note_off_c, 9, 46, 0
6, 212992, Note_off_c, 9, 56, 0
6, 212992, Note_on_c, 9, 46, 64
6, 212992, Note_on_c, 9, 36, 110
6, 213248, Note_off_c, 9, 36, 0
6, 213248, Note_on_c, 9, 36, 110
6, 213504, Note_off_c, 9, 36, 0
6, 213675, Note_off_c, 9, 46, 0
6, 213675, Note_on_c, 9, 46, 64
6, 214016, Note_on_c, 9, 38, 90
6, 214357, Note_off_c, 9, 46, 0
6, 214357, Note_on_c, 9, 46, 64
6, 214528, Note_off_c, 9, 38, 0
6, 214528, Note_on_c, 9, 36, 110
6, 214784, Note_off_c, 9, 36, 0
6, 214784, Note_on_c, 9, 36, 110
6, 215040, Note_off_c, 9, 46, 0
6, 215040, Note_on_c, 9, 46, 64
6, 215040, Note_off_c, 9, 36, 0
6, 215723, Note_off_c, 9, 46, 0
6, 215723, Note_on_c, 9, 46, 64
6, 215723, Note_on_c, 9, 36, 110
6, 216064, Note_off_c, 9, 36, 0
6, 216064, Note_on_c, 9, 38, 90
6, 216405, Note_off_c, 9, 46, 0
6, 216405, Note_on_c, 9, 46, 64
6, 216405, Note_off_c, 9, 38, 0
6, 216405, Note_on_c, 9, 36, 110
6, 216747, Note_off_c, 9, 36, 0
6, 216747, Note_on_c, 9, 56, 64
6, 217088, Note_off_c, 9, 46, 0
6, 217088, Note_off_c, 9, 56, 0
6, 217088, Note_on_c, 9, 46, 64
6, 217088, Note_on_c, 9, 36, 110
6, 217344, Note_off_c, 9, 36, 0
6, 217344, Note_on_c, 9, 36, 110
6, 217600, Note_off_c, 9, 36, 0
6, 217771, Note_off_c, 9, 46, 0
6, 217771, Note_on_c, 9, 46, 64
6, 218112, Note_on_c, 9, 38, 90
6, 218453, Note_off_c, 9, 46, 0
6, 218453, Note_on_c, 9, 46, 64
6, 218624, Note_off_c, 9, 38, 0
6, 218624, Note_on_c, 9, 36, 110
6, 218880, Note_off_c, 9, 36, 0
6, 218880, Note_on_c, 9, 36, 110
6, 219136, Note_off_c, 9, 46, 0
6, 219136, Note_on_c, 9, 46, 64
6, 219136, Note_off_c, 9, 36, 0
6, 219819, Note_off_c, 9, 46, 0
6, 219819, Note_on_c, 9, 46, 64
6, 219819, Note_on_c, 9, 36, 110
6, 220160, Note_off_c, 9, 36, 0
6, 220160, Note_on_c, 9, 38, 90
6, 220501, Note_off_c, 9, 46, 0
6, 220501, Note_on_c, 9, 46, 64
6, 220501, Note_off_c, 9, 38, 0
6, 220501, Note_on_c, 9, 36, 110
6, 220843, Note_off_c, 9, 36, 0
6, 220843, Note_on_c, 9, 56, 64
6, 221184, Program_c, 9, 95
6, 221184, Note_off_c, 9, 46, 0
6, 221184, Note_off_c, 9, 56, 0
6, 221184, Note_on_c, 9, 38, 90
6, 221184, Note_on_c, 9, 44, 64
6, 221696, Note_off_c, 9, 38, 0
6, 221696, Note_on_c, 9, 36, 110
6, 221952, Note_off_c, 9, 36, 0
6, 221952, Note_on_c, 9, 38, 90
6, 222208, Note_off_c, 9, 38, 0
6, 222208, Note_on_c, 9, 43, 64
6, 222208, Note_off_c, 9, 44, 0
6, 222208, Note_on_c, 9, 36, 110
6, 222336, Note_off_c, 9, 43, 0
6, 222336, Note_on_c, 9, 43, 64
6, 222464, Note_off_c, 9, 43, 0
6, 222464, Note_on_c, 9, 43, 64
6, 222592, Note_off_c, 9, 43, 0
6, 222592, Note_on_c, 9, 43, 64
6, 222720, Note_off_c, 9, 43, 0
6, 222720, Note_on_c, 9, 43, 64
6, 222848, Note_off_c, 9, 43, 0
6, 222848, Note_on_c, 9, 43, 64
6, 222976, Note_off_c, 9, 43, 0
6, 222976, Note_on_c, 9, 43, 64
6, 223104, Note_off_c, 9, 43, 0
6, 223104, Note_on_c, 9, 43, 64
6, 223232, Note_off_c, 9, 43, 0
6, 223232, Note_on_c, 9, 43, 64
6, 223232, Note_off_c, 9, 36, 0
6, 223232, Note_on_c, 9, 44, 64
6, 223360, Note_off_c, 9, 43, 0
6, 223360, Note_on_c, 9, 43, 64
6, 223488, Note_off_c, 9, 43, 0
6, 223488, Note_on_c, 9, 43, 64
6, 223616, Note_off_c, 9, 43, 0
6, 223616, Note_on_c, 9, 43, 64
6, 223744, Note_off_c, 9, 43, 0
6, 223744, Note_on_c, 9, 43, 64
6, 223872, Note_off_c, 9, 43, 0
6, 223872, Note_on_c, 9, 43, 64
6, 224000, Note_off_c, 9, 43, 0
6, 224000, Note_on_c, 9, 43, 64
6, 224128, Note_off_c, 9, 43, 0
6, 224128, Note_on_c, 9, 43, 64
6, 224256, Note_off_c, 9, 43, 0
6, 224256, Note_on_c, 9, 43, 64
6, 224256, Note_off_c, 9, 44, 0
6, 224256, Note_on_c, 9, 44, 64
6, 224256, Note_on_c, 9, 36, 110
6, 224384, Note_off_c, 9, 43, 0
6, 224384, Note_on_c, 9, 43, 64
6, 224512, Note_off_c, 9, 43, 0
6, 224512, Note_on_c, 9, 43, 64
6, 224640, Note_off_c, 9, 43, 0
6, 224640, Note_on_c, 9, 43, 64
6, 224768, Note_off_c, 9, 43, 0
6, 224768, Note_on_c, 9, 43, 64
6, 224896, Note_off_c, 9, 43, 0
6, 224896, Note_on_c, 9, 43, 64
6, 225024, Note_off_c, 9, 43, 0
6, 225024, Note_on_c, 9, 43, 64
6, 225152, Note_off_c, 9, 43, 0
6, 225152, Note_on_c, 9, 43, 64
6, 225280, Note_off_c, 9, 43, 0
6, 225280, Note_off_c, 9, 44, 0
6, 225280, Note_off_c, 9, 36, 0
6, 225280, Note_on_c, 9, 36, 110
6, 225792, Note_on_c, 9, 46, 64
6, 225792, Note_off_c, 9, 36, 0
6, 225792, Note_on_c, 9, 38, 90
6, 226304, Note_off_c, 9, 46, 0
6, 226304, Note_off_c, 9, 38, 0
6, 226304, Note_on_c, 9, 43, 50
6, 226816, Note_off_c, 9, 43, 0
6, 226816, Note_on_c, 9, 36, 110
6, 227328, Note_on_c, 9, 51, 120
6, 227328, Note_off_c, 9, 36, 0
6, 227328, Note_on_c, 9, 36, 110
6, 227840, Note_off_c, 9, 36, 0
6, 227840, Note_on_c, 9, 36, 110
6, 228352, Note_off_c, 9, 36, 0
6, 228352, Note_on_c, 9, 36, 110
6, 228864, Note_off_c, 9, 36, 0
6, 228864, Note_on_c, 9, 36, 110
6, 229376, Note_off_c, 9, 51, 0
6, 229376, Note_off_c, 9, 36, 0
6, 229376, Note_on_c, 9, 52, 64
6, 229376, Note_on_c, 9, 48, 50
6, 230059, Note_off_c, 9, 48, 0
6, 230059, Note_on_c, 9, 45, 50
6, 230400, Note_off_c, 9, 52, 0
6, 230400, Note_on_c, 9, 52, 64
6, 230741, Note_off_c, 9, 45, 0
6, 230741, Note_on_c, 9, 43, 50
6, 231296, Note_on_c, 9, 38, 90
6, 231424, Note_off_c, 9, 52, 0
6, 231424, Note_off_c, 9, 43, 0
6, 231424, Note_off_c, 9, 38, 0
6, 231424, Note_on_c, 9, 38, 90
6, 231834, Note_off_c, 9, 38, 0
6, 231834, Note_on_c, 9, 50, 50
6, 232243, Note_off_c, 9, 50, 0
6, 232243, Note_on_c, 9, 48, 50
6, 232448, Note_on_c, 9, 52, 64
6, 232653, Note_off_c, 9, 48, 0
6, 232653, Note_on_c, 9, 45, 50
6, 233062, Note_off_c, 9, 45, 0
6, 233062, Note_on_c, 9, 43, 50
6, 233472, Note_off_c, 9, 52, 0
6, 233472, Note_off_c, 9, 43, 0
6, 233472, Note_on_c, 9, 46, 64
6, 233472, Note_on_c, 9, 36, 110
6, 233765, Note_off_c, 9, 36, 0
6, 233765, Note_on_c, 9, 48, 50
6, 234057, Note_off_c, 9, 48, 0
6, 234057, Note_on_c, 9, 45, 50
6, 234350, Note_off_c, 9, 45, 0
6, 234350, Note_on_c, 9, 43, 50
6, 234496, Note_off_c, 9, 46, 0
6, 234496, Note_on_c, 9, 46, 64
6, 234642, Note_off_c, 9, 43, 0
6, 234642, Note_on_c, 9, 36, 110
6, 234935, Note_off_c, 9, 36, 0
6, 234935, Note_on_c, 9, 36, 110
6, 235227, Note_off_c, 9, 36, 0
6, 235227, Note_on_c, 9, 48, 50
6, 235520, Note_off_c, 9, 46, 0
6, 235520, Note_on_c, 9, 46, 64
6, 235520, Note_off_c, 9, 48, 0
6, 235520, Note_on_c, 9, 45, 50
6, 235813, Note_off_c, 9, 45, 0
6, 235813, Note_on_c, 9, 43, 50
6, 236105, Note_off_c, 9, 43, 0
6, 236105, Note_on_c, 9, 36, 110
6, 236398, Note_off_c, 9, 36, 0
6, 236398, Note_on_c, 9, 36, 110
6, 236544, Note_off_c, 9, 46, 0
6, 236544, Note_on_c, 9, 46, 64
6, 236690, Note_off_c, 9, 36, 0
6, 236690, Note_on_c, 9, 48, 50
6, 236983, Note_off_c, 9, 48, 0
6, 236983, Note_on_c, 9, 45, 50
6, 237275, Note_off_c, 9, 45, 0
6, 237275, Note_on_c, 9, 43, 50
6, 237568, Note_off_c, 9, 46, 0
6, 237568, Note_off_c, 9, 43, 0
6, 237568, Note_on_c, 9, 51, 64
6, 237568, Note_on_c, 9, 49, 64
6, 237568, Note_on_c, 9, 36, 110
6, 238592, Note_off_c, 9, 51, 0
6, 238592, Note_off_c, 9, 49, 0
6, 238592, Note_on_c, 9, 43, 64
6, 238592, Note_off_c, 9, 36, 0
6, 238592, Note_on_c, 9, 44, 64
6, 238720, Note_off_c, 9, 43, 0
6, 238720, Note_on_c, 9, 43, 64
6, 238848, Note_off_c, 9, 43, 0
6, 238848, Note_on_c, 9, 43, 64
6, 238976, Note_off_c, 9, 43, 0
6, 238976, Note_on_c, 9, 43, 64
6, 239104, Note_off_c, 9, 43, 0
6, 239104, Note_on_c, 9, 43, 64
6, 239232, Note_off_c, 9, 43, 0
6, 239232, Note_on_c, 9, 43, 64
6, 239360, Note_off_c, 9, 43, 0
6, 239360, Note_on_c, 9, 43, 64
6, 239488, Note_off_c, 9, 43, 0
6, 239488, Note_on_c, 9, 43, 64
6, 239616, Note_off_c, 9, 43, 0
6, 239616, Note_on_c, 9, 43, 64
6, 239616, Note_off_c, 9, 44, 0
6, 239616, Note_on_c, 9, 44, 64
6, 239744, Note_off_c, 9, 43, 0
6, 239744, Note_on_c, 9, 43, 64
6, 239872, Note_off_c, 9, 43, 0
6, 239872, Note_on_c, 9, 43, 64
6, 240000, Note_off_c, 9, 43, 0
6, 240000, Note_on_c, 9, 43, 64
6, 240128, Note_off_c, 9, 43, 0
6, 240128, Note_on_c, 9, 48, 64
6, 240640, Note_off_c, 9, 48, 0
6, 240640, Note_on_c, 9, 45, 64
6, 240640, Note_off_c, 9, 44, 0
6, 240640, Note_on_c, 9, 44, 64
6, 241152, Note_off_c, 9, 45, 0
6, 241152, Note_on_c, 9, 43, 64
6, 241664, Note_off_c, 9, 43, 0
6, 241664, Note_off_c, 9, 44, 0
6, 241664, Note_on_c, 9, 46, 64
6, 241664, Note_on_c, 9, 49, 64
6, 241664, Note_on_c, 9, 52, 64
6, 241664, Note_on_c, 9, 36, 110
6, 241920, Note_off_c, 9, 36, 0
6, 241920, Note_on_c, 9, 36, 110
6, 242176, Note_off_c, 9, 36, 0
6, 242688, Note_off_c, 9, 46, 0
6, 242688, Note_off_c, 9, 49, 0
6, 242688, Note_off_c, 9, 52, 0
6, 242688, Note_on_c, 9, 46, 64
6, 243200, Note_on_c, 9, 36, 110
6, 243456, Note_off_c, 9, 36, 0
6, 243456, Note_on_c, 9, 36, 110
6, 243712, Note_off_c, 9, 46, 0
6, 243712, Note_on_c, 9, 46, 64
6, 243712, Note_off_c, 9, 36, 0
6, 244736, Note_off_c, 9, 46, 0
6, 244736, Note_on_c, 9, 46, 64
6, 244736, Note_on_c, 9, 38, 90
6, 245760, Note_off_c, 9, 46, 0
6, 245760, Note_off_c, 9, 38, 0
6, 245760, Note_on_c, 9, 46, 64
6, 245760, Note_on_c, 9, 36, 110
6, 246016, Note_off_c, 9, 36, 0
6, 246016, Note_on_c, 9, 36, 110
6, 246272, Note_off_c, 9, 36, 0
6, 246784, Note_off_c, 9, 46, 0
6, 246784, Note_on_c, 9, 46, 64
6, 247296, Note_on_c, 9, 36, 110
6, 247552, Note_off_c, 9, 36, 0
6, 247552, Note_on_c, 9, 36, 110
6, 247808, Note_off_c, 9, 46, 0
6, 247808, Note_on_c, 9, 46, 64
6, 247808, Note_off_c, 9, 36, 0
6, 248832, Note_off_c, 9, 46, 0
6, 248832, Note_on_c, 9, 46, 64
6, 248832, Note_on_c, 9, 38, 90
6, 249344, Note_off_c, 9, 38, 0
6, 249344, Note_on_c, 9, 36, 110
6, 249856, Note_off_c, 9, 46, 0
6, 249856, Note_off_c, 9, 36, 0
6, 249856, Note_on_c, 9, 38, 90
6, 249856, Note_on_c, 9, 44, 64
6, 249941, Note_off_c, 9, 38, 0
6, 249941, Note_on_c, 9, 38, 90
6, 250027, Note_off_c, 9, 38, 0
6, 250027, Note_on_c, 9, 38, 90
6, 250112, Note_off_c, 9, 38, 0
6, 250112, Note_on_c, 9, 38, 90
6, 250197, Note_off_c, 9, 38, 0
6, 250197, Note_on_c, 9, 38, 90
6, 250283, Note_off_c, 9, 38, 0
6, 250283, Note_on_c, 9, 38, 90
6, 250368, Note_off_c, 9, 38, 0
6, 250368, Note_on_c, 9, 38, 90
6, 250453, Note_off_c, 9, 38, 0
6, 250453, Note_on_c, 9, 38, 90
6, 250539, Note_off_c, 9, 38, 0
6, 250880, Note_off_c, 9, 44, 0
6, 250880, Note_on_c, 9, 44, 64
6, 251221, Note_on_c, 9, 36, 64
6, 251904, Note_off_c, 9, 36, 0
6, 251904, Note_on_c, 9, 36, 64
6, 251904, Note_off_c, 9, 44, 0
6, 251904, Note_on_c, 9, 51, 64
6, 251904, Note_on_c, 9, 49, 64
6, 252928, Note_off_c, 9, 36, 0
6, 252928, Note_on_c, 9, 38, 90
6, 253440, Note_off_c, 9, 38, 0
6, 253440, Note_on_c, 9, 36, 64
6, 253952, Note_off_c, 9, 36, 0
6, 253952, Note_off_c, 9, 51, 0
6, 253952, Note_off_c, 9, 49, 0
6, 253952, Note_on_c, 9, 36, 110
6, 253952, Note_on_c, 9, 46, 64
6, 254635, Note_off_c, 9, 36, 0
6, 254635, Note_off_c, 9, 46, 0
6, 254635, Note_on_c, 9, 44, 64
6, 254635, Note_on_c, 9, 48, 64
6, 255317, Note_off_c, 9, 44, 0
6, 255317, Note_off_c, 9, 48, 0
6, 255317, Note_on_c, 9, 43, 64
6, 255317, Note_on_c, 9, 46, 64
6, 256000, Note_off_c, 9, 43, 0
6, 256000, Note_off_c, 9, 46, 0
6, 256000, Note_on_c, 9, 44, 64
6, 256000, Note_on_c, 9, 48, 64
6, 256683, Note_off_c, 9, 44, 0
6, 256683, Note_off_c, 9, 48, 0
6, 256683, Note_on_c, 9, 43, 64
6, 256683, Note_on_c, 9, 46, 64
6, 257365, Note_off_c, 9, 43, 0
6, 257365, Note_off_c, 9, 46, 0
6, 257365, Note_on_c, 9, 44, 64
6, 257365, Note_on_c, 9, 48, 64
6, 258048, Note_off_c, 9, 44, 0
6, 258048, Note_off_c, 9, 48, 0
6, 258048, Note_on_c, 9, 46, 64
6, 258048, Note_on_c, 9, 36, 110
6, 258304, Note_off_c, 9, 36, 0
6, 258304, Note_on_c, 9, 36, 110
6, 258560, Note_off_c, 9, 36, 0
6, 259072, Note_off_c, 9, 46, 0
6, 259072, Note_on_c, 9, 46, 64
6, 259072, Note_on_c, 9, 38, 90
6, 259584, Note_off_c, 9, 38, 0
6, 259584, Note_on_c, 9, 36, 110
6, 259840, Note_off_c, 9, 36, 0
6, 259840, Note_on_c, 9, 36, 110
6, 260096, Note_off_c, 9, 46, 0
6, 260096, Note_on_c, 9, 46, 64
6, 260096, Note_off_c, 9, 36, 0
6, 261120, Note_off_c, 9, 46, 0
6, 261120, Note_on_c, 9, 46, 64
6, 261120, Note_on_c, 9, 38, 90
6, 261632, Note_off_c, 9, 38, 0
6, 261632, Note_on_c, 9, 36, 110
6, 261888, Note_off_c, 9, 36, 0
6, 261888, Note_on_c, 9, 36, 110
6, 262144, Note_off_c, 9, 46, 0
6, 262144, Note_off_c, 9, 36, 0
6, 262144, Note_on_c, 9, 46, 64
6, 262144, Note_on_c, 9, 36, 110
6, 262400, Note_off_c, 9, 36, 0
6, 262400, Note_on_c, 9, 36, 110
6, 262656, Note_off_c, 9, 36, 0
6, 263168, Note_off_c, 9, 46, 0
6, 263168, Note_on_c, 9, 46, 64
6, 263168, Note_on_c, 9, 38, 90
6, 263680, Note_off_c, 9, 38, 0
6, 263680, Note_on_c, 9, 36, 110
6, 263936, Note_off_c, 9, 36, 0
6, 263936, Note_on_c, 9, 36, 110
6, 264192, Note_off_c, 9, 46, 0
6, 264192, Note_on_c, 9, 46, 64
6, 264192, Note_off_c, 9, 36, 0
6, 265216, Note_off_c, 9, 46, 0
6, 265216, Note_on_c, 9, 46, 64
6, 265216, Note_on_c, 9, 38, 90
6, 265728, Note_off_c, 9, 38, 0
6, 265728, Note_on_c, 9, 36, 110
6, 265984, Note_off_c, 9, 36, 0
6, 265984, Note_on_c, 9, 36, 110
6, 266240, Note_off_c, 9, 46, 0
6, 266240, Note_off_c, 9, 36, 0
6, 266240, Note_on_c, 9, 46, 64
6, 266240, Note_on_c, 9, 36, 110
6, 266496, Note_off_c, 9, 36, 0
6, 266496, Note_on_c, 9, 36, 110
6, 266752, Note_off_c, 9, 36, 0
6, 267264, Note_off_c, 9, 46, 0
6, 267264, Note_on_c, 9, 46, 64
6, 267264, Note_on_c, 9, 38, 90
6, 267776, Note_off_c, 9, 38, 0
6, 267776, Note_on_c, 9, 36, 110
6, 268032, Note_off_c, 9, 36, 0
6, 268032, Note_on_c, 9, 36, 110
6, 268288, Note_off_c, 9, 46, 0
6, 268288, Note_on_c, 9, 46, 64
6, 268288, Note_off_c, 9, 36, 0
6, 269312, Note_off_c, 9, 46, 0
6, 269312, Note_on_c, 9, 46, 64
6, 269312, Note_on_c, 9, 38, 90
6, 269824, Note_off_c, 9, 38, 0
6, 269824, Note_on_c, 9, 36, 110
6, 270080, Note_off_c, 9, 36, 0
6, 270080, Note_on_c, 9, 36, 110
6, 270336, Note_off_c, 9, 46, 0
6, 270336, Note_off_c, 9, 36, 0
6, 270336, Note_on_c, 9, 46, 64
6, 270336, Note_on_c, 9, 36, 110
6, 270592, Note_off_c, 9, 36, 0
6, 270592, Note_on_c, 9, 36, 110
6, 270848, Note_off_c, 9, 36, 0
6, 271360, Note_off_c, 9, 46, 0
6, 271360, Note_on_c, 9, 46, 64
6, 271360, Note_on_c, 9, 38, 90
6, 271872, Note_off_c, 9, 38, 0
6, 271872, Note_on_c, 9, 36, 110
6, 272128, Note_off_c, 9, 36, 0
6, 272128, Note_on_c, 9, 36, 110
6, 272384, Note_off_c, 9, 46, 0
6, 272384, Note_on_c, 9, 46, 64
6, 272384, Note_off_c, 9, 36, 0
6, 273408, Note_off_c, 9, 46, 0
6, 273408, Note_on_c, 9, 46, 64
6, 273408, Note_on_c, 9, 38, 90
6, 273920, Note_off_c, 9, 38, 0
6, 273920, Note_on_c, 9, 36, 110
6, 274176, Note_off_c, 9, 36, 0
6, 274176, Note_on_c, 9, 36, 110
6, 274432, Note_off_c, 9, 46, 0
6, 274432, Note_off_c, 9, 36, 0
6, 274432, Note_on_c, 9, 46, 64
6, 274432, Note_on_c, 9, 36, 110
6, 274688, Note_off_c, 9, 36, 0
6, 274688, Note_on_c, 9, 36, 110
6, 274944, Note_off_c, 9, 36, 0
6, 275456, Note_off_c, 9, 46, 0
6, 275456, Note_on_c, 9, 46, 64
6, 275456, Note_on_c, 9, 38, 90
6, 275968, Note_off_c, 9, 38, 0
6, 275968, Note_on_c, 9, 36, 110
6, 276224, Note_off_c, 9, 36, 0
6, 276224, Note_on_c, 9, 36, 110
6, 276480, Note_off_c, 9, 46, 0
6, 276480, Note_on_c, 9, 46, 64
6, 276480, Note_off_c, 9, 36, 0
6, 277504, Note_off_c, 9, 46, 0
6, 277504, Note_on_c, 9, 46, 64
6, 277504, Note_on_c, 9, 38, 90
6, 278016, Note_off_c, 9, 38, 0
6, 278016, Note_on_c, 9, 36, 110
6, 278272, Note_off_c, 9, 36, 0
6, 278272, Note_on_c, 9, 36, 110
6, 278528, Note_off_c, 9, 46, 0
6, 278528, Note_off_c, 9, 36, 0
6, 278528, Note_on_c, 9, 46, 64
6, 278528, Note_on_c, 9, 36, 110
6, 278784, Note_off_c, 9, 36, 0
6, 278784, Note_on_c, 9, 36, 110
6, 279040, Note_off_c, 9, 36, 0
6, 279552, Note_off_c, 9, 46, 0
6, 279552, Note_on_c, 9, 46, 64
6, 279552, Note_on_c, 9, 38, 90
6, 280064, Note_off_c, 9, 38, 0
6, 280064, Note_on_c, 9, 36, 110
6, 280320, Note_off_c, 9, 36, 0
6, 280320, Note_on_c, 9, 36, 110
6, 280576, Note_off_c, 9, 46, 0
6, 280576, Note_on_c, 9, 46, 64
6, 280576, Note_off_c, 9, 36, 0
6, 281600, Note_off_c, 9, 46, 0
6, 281600, Note_on_c, 9, 46, 64
6, 281600, Note_on_c, 9, 38, 90
6, 282112, Note_off_c, 9, 38, 0
6, 282112, Note_on_c, 9, 36, 110
6, 282368, Note_off_c, 9, 36, 0
6, 282368, Note_on_c, 9, 36, 110
6, 282624, Note_off_c, 9, 46, 0
6, 282624, Note_off_c, 9, 36, 0
6, 282624, Note_on_c, 9, 46, 64
6, 282624, Note_on_c, 9, 36, 110
6, 282880, Note_off_c, 9, 36, 0
6, 282880, Note_on_c, 9, 36, 110
6, 283136, Note_off_c, 9, 36, 0
6, 283648, Note_off_c, 9, 46, 0
6, 283648, Note_on_c, 9, 46, 64
6, 283648, Note_on_c, 9, 38, 90
6, 284160, Note_off_c, 9, 38, 0
6, 284160, Note_on_c, 9, 36, 110
6, 284416, Note_off_c, 9, 36, 0
6, 284416, Note_on_c, 9, 36, 110
6, 284672, Note_off_c, 9, 46, 0
6, 284672, Note_on_c, 9, 46, 64
6, 284672, Note_off_c, 9, 36, 0
6, 285696, Note_off_c, 9, 46, 0
6, 285696, Note_on_c, 9, 46, 64
6, 285696, Note_on_c, 9, 38, 90
6, 286208, Note_off_c, 9, 38, 0
6, 286208, Note_on_c, 9, 36, 110
6, 286464, Note_off_c, 9, 36, 0
6, 286464, Note_on_c, 9, 36, 110
6, 286720, Note_off_c, 9, 46, 0
6, 286720, Note_off_c, 9, 36, 0
6, 286720, Note_on_c, 9, 46, 64
6, 286720, Note_on_c, 9, 36, 110
6, 286976, Note_off_c, 9, 36, 0
6, 286976, Note_on_c, 9, 36, 110
6, 287232, Note_off_c, 9, 36, 0
6, 287744, Note_off_c, 9, 46, 0
6, 287744, Note_on_c, 9, 46, 64
6, 287744, Note_on_c, 9, 38, 90
6, 288256, Note_off_c, 9, 38, 0
6, 288256, Note_on_c, 9, 36, 110
6, 288512, Note_off_c, 9, 36, 0
6, 288512, Note_on_c, 9, 36, 110
6, 288768, Note_off_c, 9, 46, 0
6, 288768, Note_on_c, 9, 46, 64
6, 288768, Note_off_c, 9, 36, 0
6, 289792, Note_off_c, 9, 46, 0
6, 289792, Note_on_c, 9, 46, 64
6, 289792, Note_on_c, 9, 38, 90
6, 290304, Note_off_c, 9, 38, 0
6, 290304, Note_on_c, 9, 36, 110
6, 290560, Note_off_c, 9, 36, 0
6, 290560, Note_on_c, 9, 36, 110
6, 290816, Note_off_c, 9, 46, 0
6, 290816, Note_off_c, 9, 36, 0
6, 290816, Note_on_c, 9, 46, 64
6, 290816, Note_on_c, 9, 36, 110
6, 291072, Note_off_c, 9, 36, 0
6, 291072, Note_on_c, 9, 36, 110
6, 291328, Note_off_c, 9, 36, 0
6, 291840, Note_off_c, 9, 46, 0
6, 291840, Note_on_c, 9, 46, 64
6, 291840, Note_on_c, 9, 38, 90
6, 292352, Note_off_c, 9, 38, 0
6, 292352, Note_on_c, 9, 36, 110
6, 292608, Note_off_c, 9, 36, 0
6, 292608, Note_on_c, 9, 36, 110
6, 292864, Note_off_c, 9, 46, 0
6, 292864, Note_on_c, 9, 46, 64
6, 292864, Note_off_c, 9, 36, 0
6, 293888, Note_off_c, 9, 46, 0
6, 293888, Note_on_c, 9, 46, 64
6, 293888, Note_on_c, 9, 38, 90
6, 294400, Note_off_c, 9, 38, 0
6, 294400, Note_on_c, 9, 36, 110
6, 294656, Note_off_c, 9, 36, 0
6, 294656, Note_on_c, 9, 36, 110
6, 294912, Note_off_c, 9, 46, 0
6, 294912, Note_off_c, 9, 36, 0
6, 294912, Note_on_c, 9, 46, 64
6, 294912, Note_on_c, 9, 36, 110
6, 295168, Note_off_c, 9, 36, 0
6, 295168, Note_on_c, 9, 36, 110
6, 295424, Note_off_c, 9, 36, 0
6, 295936, Note_off_c, 9, 46, 0
6, 295936, Note_on_c, 9, 46, 64
6, 295936, Note_on_c, 9, 38, 90
6, 296448, Note_off_c, 9, 38, 0
6, 296448, Note_on_c, 9, 36, 110
6, 296704, Note_off_c, 9, 36, 0
6, 296704, Note_on_c, 9, 36, 110
6, 296960, Note_off_c, 9, 46, 0
6, 296960, Note_on_c, 9, 46, 64
6, 296960, Note_off_c, 9, 36, 0
6, 297984, Note_off_c, 9, 46, 0
6, 297984, Note_on_c, 9, 46, 64
6, 297984, Note_on_c, 9, 38, 90
6, 298496, Note_off_c, 9, 38, 0
6, 298496, Note_on_c, 9, 36, 110
6, 298752, Note_off_c, 9, 36, 0
6, 298752, Note_on_c, 9, 36, 110
6, 299008, Note_off_c, 9, 46, 0
6, 299008, Note_off_c, 9, 36, 0
6, 299008, Note_on_c, 9, 38, 90
6, 299008, Note_on_c, 9, 44, 80
6, 299520, Note_off_c, 9, 38, 0
6, 299520, Note_on_c, 9, 36, 110
6, 300032, Note_off_c, 9, 36, 0
6, 300032, Note_on_c, 9, 38, 90
6, 300032, Note_off_c, 9, 44, 0
6, 300032, Note_on_c, 9, 44, 80
6, 300373, Note_off_c, 9, 38, 0
6, 300373, Note_on_c, 9, 36, 110
6, 300715, Note_off_c, 9, 36, 0
6, 300715, Note_on_c, 9, 38, 90
6, 301056, Note_off_c, 9, 38, 0
6, 301056, Note_on_c, 9, 50, 64
6, 301056, Note_off_c, 9, 44, 0
6, 301056, Note_on_c, 9, 44, 80
6, 301466, Note_off_c, 9, 50, 0
6, 301466, Note_on_c, 9, 38, 90
6, 301875, Note_off_c, 9, 38, 0
6, 301875, Note_on_c, 9, 48, 64
6, 302080, Note_off_c, 9, 44, 0
6, 302080, Note_on_c, 9, 44, 80
6, 302285, Note_off_c, 9, 48, 0
6, 302285, Note_on_c, 9, 45, 64
6, 302694, Note_off_c, 9, 45, 0
6, 302694, Note_on_c, 9, 43, 64
6, 303104, Note_off_c, 9, 43, 0
6, 303104, Note_off_c, 9, 44, 0
6, 303104, Note_on_c, 9, 36, 110
6, 303104, Note_on_c, 9, 46, 64
6, 303787, Note_off_c, 9, 36, 0
6, 303787, Note_off_c, 9, 46, 0
6, 303787, Note_on_c, 9, 44, 64
6, 303787, Note_on_c, 9, 48, 64
6, 304469, Note_off_c, 9, 44, 0
6, 304469, Note_off_c, 9, 48, 0
6, 304469, Note_on_c, 9, 43, 64
6, 304469, Note_on_c, 9, 46, 64
6, 305152, Note_off_c, 9, 43, 0
6, 305152, Note_off_c, 9, 46, 0
6, 305152, Note_on_c, 9, 44, 64
6, 305152, Note_on_c, 9, 48, 64
6, 305835, Note_off_c, 9, 44, 0
6, 305835, Note_off_c, 9, 48, 0
6, 305835, Note_on_c, 9, 43, 64
6, 305835, Note_on_c, 9, 46, 64
6, 306517, Note_off_c, 9, 43, 0
6, 306517, Note_off_c, 9, 46, 0
6, 306517, Note_on_c, 9, 44, 64
6, 306517, Note_on_c, 9, 48, 64
6, 307200, Note_off_c, 9, 44, 0
6, 307200, Note_off_c, 9, 48, 0
6, 307200, Note_on_c, 9, 48, 64
6, 307200, Note_on_c, 9, 44, 64
6, 307456, Note_off_c, 9, 48, 0
6, 307456, Note_on_c, 9, 38, 90
6, 307712, Note_off_c, 9, 38, 0
6, 307712, Note_on_c, 9, 43, 64
6, 307968, Note_off_c, 9, 43, 0
6, 307968, Note_on_c, 9, 46, 64
6, 308224, Note_off_c, 9, 46, 0
6, 308224, Note_on_c, 9, 45, 64
6, 308224, Note_off_c, 9, 44, 0
6, 308224, Note_on_c, 9, 44, 64
6, 308407, Note_off_c, 9, 45, 0
6, 308407, Note_on_c, 9, 43, 64
6, 308590, Note_off_c, 9, 43, 0
6, 308590, Note_on_c, 9, 46, 64
6, 308773, Note_off_c, 9, 46, 0
6, 308773, Note_on_c, 9, 56, 64
6, 308955, Note_off_c, 9, 56, 0
6, 308955, Note_on_c, 9, 56, 64
6, 309138, Note_off_c, 9, 56, 0
6, 309138, Note_on_c, 9, 48, 64
6, 309248, Note_off_c, 9, 44, 0
6, 309248, Note_on_c, 9, 44, 64
6, 309321, Note_off_c, 9, 48, 0
6, 309321, Note_on_c, 9, 38, 90
6, 309504, Note_off_c, 9, 38, 0
6, 309504, Note_on_c, 9, 43, 64
6, 309760, Note_off_c, 9, 43, 0
6, 309760, Note_on_c, 9, 50, 64
6, 310016, Note_off_c, 9, 50, 0
6, 310016, Note_on_c, 9, 48, 64
6, 310272, Note_off_c, 9, 48, 0
6, 310272, Note_on_c, 9, 38, 90
6, 310272, Note_off_c, 9, 44, 0
6, 310272, Note_on_c, 9, 44, 64
6, 310528, Note_off_c, 9, 38, 0
6, 310528, Note_on_c, 9, 48, 64
6, 310784, Note_off_c, 9, 48, 0
6, 310784, Note_on_c, 9, 43, 64
6, 311040, Note_off_c, 9, 43, 0
6, 311040, Note_on_c, 9, 41, 64
6, 311296, Note_off_c, 9, 41, 0
6, 311296, Note_off_c, 9, 44, 0
6, 311296, Note_on_c, 9, 56, 64
6, 311296, Note_on_c, 9, 44, 64
6, 311552, Note_off_c, 9, 56, 0
6, 311552, Note_on_c, 9, 45, 64
6, 311808, Note_off_c, 9, 45, 0
6, 311808, Note_on_c, 9, 48, 64
6, 312064, Note_off_c, 9, 48, 0
6, 312064, Note_on_c, 9, 56, 64
6, 312320, Note_off_c, 9, 56, 0
6, 312320, Note_on_c, 9, 56, 64
6, 312320, Note_off_c, 9, 44, 0
6, 312320, Note_on_c, 9, 44, 64
6, 312576, Note_off_c, 9, 56, 0
6, 312576, Note_on_c, 9, 45, 64
6, 312832, Note_off_c, 9, 45, 0
6, 312832, Note_on_c, 9, 48, 64
6, 313088, Note_off_c, 9, 48, 0
6, 313088, Note_on_c, 9, 45, 64
6, 313344, Note_off_c, 9, 45, 0
6, 313344, Note_on_c, 9, 38, 90
6, 313344, Note_off_c, 9, 44, 0
6, 313344, Note_on_c, 9, 44, 64
6, 313600, Note_off_c, 9, 38, 0
6, 313600, Note_on_c, 9, 43, 64
6, 313856, Note_off_c, 9, 43, 0
6, 313856, Note_on_c, 9, 41, 64
6, 314112, Note_off_c, 9, 41, 0
6, 314112, Note_on_c, 9, 48, 64
6, 314368, Note_off_c, 9, 48, 0
6, 314368, Note_on_c, 9, 43, 64
6, 314368, Note_off_c, 9, 44, 0
6, 314368, Note_on_c, 9, 44, 64
6, 314624, Note_off_c, 9, 43, 0
6, 314624, Note_on_c, 9, 41, 64
6, 314880, Note_off_c, 9, 41, 0
6, 314880, Note_on_c, 9, 45, 64
6, 315136, Note_off_c, 9, 45, 0
6, 315136, Note_on_c, 9, 48, 64
6, 315392, Note_off_c, 9, 48, 0
6, 315392, Note_off_c, 9, 44, 0
6, 315392, Note_on_c, 9, 38, 90
6, 315392, Note_on_c, 9, 44, 64
6, 315802, Note_off_c, 9, 38, 0
6, 315802, Note_on_c, 9, 36, 110
6, 316211, Note_off_c, 9, 36, 0
6, 316211, Note_on_c, 9, 48, 64
6, 316416, Note_off_c, 9, 44, 0
6, 316416, Note_on_c, 9, 44, 64
6, 316621, Note_off_c, 9, 48, 0
6, 316621, Note_on_c, 9, 43, 64
6, 317030, Note_off_c, 9, 43, 0
6, 317030, Note_on_c, 9, 41, 64
6, 317440, Note_off_c, 9, 41, 0
6, 317440, Note_on_c, 9, 38, 90
6, 317440, Note_off_c, 9, 44, 0
6, 317440, Note_on_c, 9, 44, 64
6, 317850, Note_off_c, 9, 38, 0
6, 317850, Note_on_c, 9, 36, 110
6, 318259, Note_off_c, 9, 36, 0
6, 318259, Note_on_c, 9, 48, 64
6, 318464, Note_off_c, 9, 44, 0
6, 318464, Note_on_c, 9, 44, 64
6, 318669, Note_off_c, 9, 48, 0
6, 318669, Note_on_c, 9, 43, 64
6, 319078, Note_off_c, 9, 43, 0
6, 319078, Note_on_c, 9, 41, 64
6, 319488, Note_off_c, 9, 41, 0
6, 319488, Note_off_c, 9, 44, 0
6, 319488, Note_on_c, 9, 36, 110
6, 319488, Note_on_c, 9, 44, 64
6, 320512, Note_off_c, 9, 36, 0
6, 320512, Note_on_c, 9, 38, 90
6, 320512, Note_off_c, 9, 44, 0
6, 320512, Note_on_c, 9, 44, 64
6, 320640, Note_off_c, 9, 38, 0
6, 320640, Note_on_c, 9, 38, 90
6, 320768, Note_off_c, 9, 38, 0
6, 320768, Note_on_c, 9, 38, 90
6, 320896, Note_off_c, 9, 38, 0
6, 320896, Note_on_c, 9, 38, 90
6, 321024, Note_off_c, 9, 38, 0
6, 321024, Note_on_c, 9, 38, 90
6, 321152, Note_off_c, 9, 38, 0
6, 321152, Note_on_c, 9, 38, 90
6, 321280, Note_off_c, 9, 38, 0
6, 321280, Note_on_c, 9, 38, 90
6, 321408, Note_off_c, 9, 38, 0
6, 321408, Note_on_c, 9, 38, 90
6, 321536, Note_off_c, 9, 38, 0
6, 321536, Note_on_c, 9, 38, 90
6, 321536, Note_off_c, 9, 44, 0
6, 321536, Note_on_c, 9, 44, 64
6, 321664, Note_off_c, 9, 38, 0
6, 321664, Note_on_c, 9, 38, 90
6, 321792, Note_off_c, 9, 38, 0
6, 321792, Note_on_c, 9, 38, 90
6, 321920, Note_off_c, 9, 38, 0
6, 321920, Note_on_c, 9, 38, 90
6, 322048, Note_off_c, 9, 38, 0
6, 322560, Note_on_c, 9, 38, 90
6, 322560, Note_off_c, 9, 44, 0
6, 322560, Note_on_c, 9, 44, 64
6, 323584, Note_off_c, 9, 38, 0
6, 323584, Note_off_c, 9, 44, 0
6, 323584, Note_on_c, 9, 51, 90
6, 323584, Note_on_c, 9, 36, 110
6, 323840, Note_off_c, 9, 36, 0
6, 323840, Note_on_c, 9, 36, 110
6, 324096, Note_off_c, 9, 36, 0
6, 324608, Note_off_c, 9, 51, 0
6, 325120, Note_on_c, 9, 36, 110
6, 325376, Note_off_c, 9, 36, 0
6, 325376, Note_on_c, 9, 36, 110
6, 325632, Note_on_c, 9, 51, 90
6, 325632, Note_off_c, 9, 36, 0
6, 326144, Note_off_c, 9, 51, 0
6, 326144, Note_on_c, 9, 51, 90
6, 326656, Note_off_c, 9, 51, 0
6, 326656, Note_on_c, 9, 56, 64
6, 326656, Note_on_c, 9, 38, 90
6, 327168, Note_off_c, 9, 56, 0
6, 327168, Note_off_c, 9, 38, 0
6, 327168, Note_on_c, 9, 36, 110
6, 327680, Note_off_c, 9, 36, 0
6, 327680, Note_on_c, 9, 51, 90
6, 327680, Note_on_c, 9, 36, 110
6, 327936, Note_off_c, 9, 36, 0
6, 327936, Note_on_c, 9, 36, 110
6, 328192, Note_off_c, 9, 36, 0
6, 328704, Note_off_c, 9, 51, 0
6, 329216, Note_on_c, 9, 36, 110
6, 329472, Note_off_c, 9, 36, 0
6, 329472, Note_on_c, 9, 36, 110
6, 329728, Note_on_c, 9, 51, 90
6, 329728, Note_off_c, 9, 36, 0
6, 330240, Note_off_c, 9, 51, 0
6, 330240, Note_on_c, 9, 51, 90
6, 330752, Note_off_c, 9, 51, 0
6, 330752, Note_on_c, 9, 56, 64
6, 330752, Note_on_c, 9, 38, 90
6, 331264, Note_off_c, 9, 56, 0
6, 331264, Note_off_c, 9, 38, 0
6, 331264, Note_on_c, 9, 36, 110
6, 331776, Note_off_c, 9, 36, 0
6, 331776, Note_on_c, 9, 51, 90
6, 331776, Note_on_c, 9, 36, 110
6, 332032, Note_off_c, 9, 36, 0
6, 332032, Note_on_c, 9, 36, 110
6, 332288, Note_off_c, 9, 36, 0
6, 332800, Note_off_c, 9, 51, 0
6, 333312, Note_on_c, 9, 36, 110
6, 333568, Note_off_c, 9, 36, 0
6, 333568, Note_on_c, 9, 36, 110
6, 333824, Note_on_c, 9, 51, 90
6, 333824, Note_off_c, 9, 36, 0
6, 334336, Note_off_c, 9, 51, 0
6, 334336, Note_on_c, 9, 51, 90
6, 334848, Note_off_c, 9, 51, 0
6, 334848, Note_on_c, 9, 56, 64
6, 334848, Note_on_c, 9, 38, 90
6, 335360, Note_off_c, 9, 56, 0
6, 335360, Note_off_c, 9, 38, 0
6, 335360, Note_on_c, 9, 36, 110
6, 335872, Note_off_c, 9, 36, 0
6, 335872, Note_on_c, 9, 43, 50
6, 335872, Note_on_c, 9, 44, 64
6, 336000, Note_off_c, 9, 43, 0
6, 336000, Note_on_c, 9, 43, 50
6, 336128, Note_off_c, 9, 43, 0
6, 336128, Note_on_c, 9, 43, 50
6, 336256, Note_off_c, 9, 43, 0
6, 336256, Note_on_c, 9, 43, 50
6, 336384, Note_off_c, 9, 43, 0
6, 336384, Note_on_c, 9, 43, 50
6, 336512, Note_off_c, 9, 43, 0
6, 336512, Note_on_c, 9, 43, 50
6, 336640, Note_off_c, 9, 43, 0
6, 336640, Note_on_c, 9, 43, 50
6, 336768, Note_off_c, 9, 43, 0
6, 336768, Note_on_c, 9, 43, 50
6, 336896, Note_off_c, 9, 43, 0
6, 336896, Note_on_c, 9, 43, 50
6, 336896, Note_off_c, 9, 44, 0
6, 336896, Note_on_c, 9, 44, 64
6, 337024, Note_off_c, 9, 43, 0
6, 337024, Note_on_c, 9, 43, 50
6, 337152, Note_off_c, 9, 43, 0
6, 337152, Note_on_c, 9, 43, 50
6, 337280, Note_off_c, 9, 43, 0
6, 337280, Note_on_c, 9, 43, 50
6, 337408, Note_off_c, 9, 43, 0
6, 337408, Note_on_c, 9, 43, 50
6, 337536, Note_off_c, 9, 43, 0
6, 337536, Note_on_c, 9, 43, 50
6, 337664, Note_off_c, 9, 43, 0
6, 337664, Note_on_c, 9, 43, 50
6, 337792, Note_off_c, 9, 43, 0
6, 337792, Note_on_c, 9, 43, 50
6, 337920, Note_off_c, 9, 43, 0
6, 337920, Note_on_c, 9, 43, 50
6, 337920, Note_off_c, 9, 44, 0
6, 337920, Note_on_c, 9, 44, 64
6, 338048, Note_off_c, 9, 43, 0
6, 338048, Note_on_c, 9, 43, 50
6, 338176, Note_off_c, 9, 43, 0
6, 338176, Note_on_c, 9, 43, 50
6, 338304, Note_off_c, 9, 43, 0
6, 338304, Note_on_c, 9, 43, 50
6, 338432, Note_off_c, 9, 43, 0
6, 338432, Note_on_c, 9, 43, 50
6, 338560, Note_off_c, 9, 43, 0
6, 338560, Note_on_c, 9, 43, 50
6, 338688, Note_off_c, 9, 43, 0
6, 338688, Note_on_c, 9, 43, 50
6, 338816, Note_off_c, 9, 43, 0
6, 338816, Note_on_c, 9, 43, 50
6, 338944, Note_off_c, 9, 43, 0
6, 338944, Note_on_c, 9, 43, 50
6, 338944, Note_off_c, 9, 44, 0
6, 338944, Note_on_c, 9, 44, 64
6, 339072, Note_off_c, 9, 43, 0
6, 339072, Note_on_c, 9, 43, 50
6, 339200, Note_off_c, 9, 43, 0
6, 339200, Note_on_c, 9, 43, 50
6, 339328, Note_off_c, 9, 43, 0
6, 339328, Note_on_c, 9, 43, 50
6, 339456, Note_off_c, 9, 43, 0
6, 339456, Note_on_c, 9, 43, 50
6, 339584, Note_off_c, 9, 43, 0
6, 339584, Note_on_c, 9, 43, 50
6, 339712, Note_off_c, 9, 43, 0
6, 339712, Note_on_c, 9, 43, 50
6, 339840, Note_off_c, 9, 43, 0
6, 339840, Note_on_c, 9, 43, 50
6, 339968, Note_off_c, 9, 43, 0
6, 339968, Note_off_c, 9, 44, 0
6, 339968, Note_on_c, 9, 41, 50
6, 339968, Note_on_c, 9, 44, 64
6, 340096, Note_off_c, 9, 41, 0
6, 340096, Note_on_c, 9, 41, 50
6, 340224, Note_off_c, 9, 41, 0
6, 340224, Note_on_c, 9, 41, 50
6, 340352, Note_off_c, 9, 41, 0
6, 340352, Note_on_c, 9, 41, 50
6, 340480, Note_off_c, 9, 41, 0
6, 340480, Note_on_c, 9, 41, 50
6, 340608, Note_off_c, 9, 41, 0
6, 340608, Note_on_c, 9, 41, 50
6, 340736, Note_off_c, 9, 41, 0
6, 340736, Note_on_c, 9, 41, 50
6, 340864, Note_off_c, 9, 41, 0
6, 340864, Note_on_c, 9, 41, 50
6, 340992, Note_off_c, 9, 41, 0
6, 340992, Note_on_c, 9, 41, 50
6, 340992, Note_off_c, 9, 44, 0
6, 340992, Note_on_c, 9, 44, 64
6, 341120, Note_off_c, 9, 41, 0
6, 341120, Note_on_c, 9, 41, 50
6, 341248, Note_off_c, 9, 41, 0
6, 341248, Note_on_c, 9, 41, 50
6, 341376, Note_off_c, 9, 41, 0
6, 341376, Note_on_c, 9, 41, 50
6, 341504, Note_off_c, 9, 41, 0
6, 341504, Note_on_c, 9, 41, 50
6, 341632, Note_off_c, 9, 41, 0
6, 341632, Note_on_c, 9, 41, 50
6, 341760, Note_off_c, 9, 41, 0
6, 341760, Note_on_c, 9, 41, 50
6, 341888, Note_off_c, 9, 41, 0
6, 341888, Note_on_c, 9, 41, 50
6, 342016, Note_off_c, 9, 41, 0
6, 342016, Note_on_c, 9, 41, 50
6, 342016, Note_off_c, 9, 44, 0
6, 342016, Note_on_c, 9, 44, 64
6, 342144, Note_off_c, 9, 41, 0
6, 342144, Note_on_c, 9, 41, 50
6, 342272, Note_off_c, 9, 41, 0
6, 342272, Note_on_c, 9, 41, 50
6, 342400, Note_off_c, 9, 41, 0
6, 342400, Note_on_c, 9, 41, 50
6, 342528, Note_off_c, 9, 41, 0
6, 342528, Note_on_c, 9, 41, 50
6, 342656, Note_off_c, 9, 41, 0
6, 342656, Note_on_c, 9, 41, 50
6, 342784, Note_off_c, 9, 41, 0
6, 342784, Note_on_c, 9, 41, 50
6, 342912, Note_off_c, 9, 41, 0
6, 342912, Note_on_c, 9, 41, 50
6, 343040, Note_off_c, 9, 41, 0
6, 343040, Note_on_c, 9, 38, 90
6, 343040, Note_off_c, 9, 44, 0
6, 343040, Note_on_c, 9, 44, 64
6, 344064, Note_off_c, 9, 38, 0
6, 344064, Note_off_c, 9, 44, 0
6, 344064, Note_on_c, 9, 51, 64
6, 344064, Note_on_c, 9, 49, 64
6, 344064, Note_on_c, 9, 36, 64
6, 345088, Note_off_c, 9, 51, 0
6, 345088, Note_off_c, 9, 49, 0
6, 345088, Note_on_c, 9, 51, 64
6, 345088, Note_on_c, 9, 49, 64
6, 345088, Note_off_c, 9, 36, 0
6, 345088, Note_on_c, 9, 38, 90
6, 345856, Note_off_c, 9, 38, 0
6, 345856, Note_on_c, 9, 36, 64
6, 346112, Note_off_c, 9, 51, 0
6, 346112, Note_off_c, 9, 49, 0
6, 346112, Note_on_c, 9, 51, 64
6, 346112, Note_on_c, 9, 49, 64
6, 346112, Note_off_c, 9, 36, 0
6, 346112, Note_on_c, 9, 36, 64
6, 347136, Note_off_c, 9, 51, 0
6, 347136, Note_off_c, 9, 49, 0
6, 347136, Note_on_c, 9, 51, 64
6, 347136, Note_on_c, 9, 49, 64
6, 347136, Note_off_c, 9, 36, 0
6, 347136, Note_on_c, 9, 38, 90
6, 348160, Program_c, 9, 95
6, 348160, Note_off_c, 9, 51, 0
6, 348160, Note_off_c, 9, 49, 0
6, 348160, Note_off_c, 9, 38, 0
6, 348160, Note_on_c, 9, 36, 110
6, 348160, Note_on_c, 9, 44, 64
6, 348672, Note_off_c, 9, 36, 0
6, 348672, Note_on_c, 9, 36, 110
6, 349184, Note_off_c, 9, 36, 0
6, 349184, Note_on_c, 9, 36, 110
6, 349184, Note_off_c, 9, 44, 0
6, 349184, Note_on_c, 9, 44, 64
6, 349696, Note_off_c, 9, 36, 0
6, 349696, Note_on_c, 9, 36, 110
6, 350208, Note_off_c, 9, 36, 0
6, 350208, Note_on_c, 9, 38, 90
6, 350208, Note_off_c, 9, 44, 0
6, 350208, Note_on_c, 9, 44, 64
6, 350394, Note_off_c, 9, 38, 0
6, 350394, Note_on_c, 9, 38, 90
6, 350580, Note_off_c, 9, 38, 0
6, 350580, Note_on_c, 9, 38, 90
6, 350767, Note_off_c, 9, 38, 0
6, 350767, Note_on_c, 9, 38, 90
6, 350953, Note_off_c, 9, 38, 0
6, 350953, Note_on_c, 9, 38, 90
6, 351139, Note_off_c, 9, 38, 0
6, 351139, Note_on_c, 9, 38, 90
6, 351232, Note_off_c, 9, 44, 0
6, 351232, Note_on_c, 9, 44, 64
6, 351325, Note_off_c, 9, 38, 0
6, 351325, Note_on_c, 9, 38, 90
6, 351511, Note_off_c, 9, 38, 0
6, 351511, Note_on_c, 9, 38, 90
6, 351698, Note_off_c, 9, 38, 0
6, 351698, Note_on_c, 9, 38, 90
6, 351884, Note_off_c, 9, 38, 0
6, 351884, Note_on_c, 9, 43, 64
6, 352070, Note_off_c, 9, 43, 0
6, 352070, Note_on_c, 9, 38, 90
6, 352256, Program_c, 9, 95
6, 352256, Note_off_c, 9, 38, 0
6, 352256, Note_off_c, 9, 44, 0
6, 352256, Note_on_c, 9, 50, 64
6, 352256, Note_on_c, 9, 44, 64
6, 352442, Note_off_c, 9, 50, 0
6, 352442, Note_on_c, 9, 38, 90
6, 352628, Note_off_c, 9, 38, 0
6, 352628, Note_on_c, 9, 48, 64
6, 352815, Note_off_c, 9, 48, 0
6, 352815, Note_on_c, 9, 38, 90
6, 353001, Note_off_c, 9, 38, 0
6, 353001, Note_on_c, 9, 43, 64
6, 353187, Note_off_c, 9, 43, 0
6, 353187, Note_on_c, 9, 50, 64
6, 353280, Note_off_c, 9, 44, 0
6, 353280, Note_on_c, 9, 44, 64
6, 353373, Note_off_c, 9, 50, 0
6, 353373, Note_on_c, 9, 38, 90
6, 353559, Note_off_c, 9, 38, 0
6, 353559, Note_on_c, 9, 48, 64
6, 353746, Note_off_c, 9, 48, 0
6, 353746, Note_on_c, 9, 38, 90
6, 353932, Note_off_c, 9, 38, 0
6, 353932, Note_on_c, 9, 43, 64
6, 354118, Note_off_c, 9, 43, 0
6, 354118, Note_on_c, 9, 41, 64
6, 354304, Note_off_c, 9, 41, 0
6, 354304, Note_on_c, 9, 36, 110
6, 354304, Note_off_c, 9, 44, 0
6, 354304, Note_on_c, 9, 44, 64
6, 354987, Note_off_c, 9, 36, 0
6, 354987, Note_on_c, 9, 36, 110
6, 355328, Note_off_c, 9, 44, 0
6, 355328, Note_on_c, 9, 44, 64
6, 355669, Note_off_c, 9, 36, 0
6, 355669, Note_on_c, 9, 36, 110
6, 356352, Note_off_c, 9, 36, 0
6, 356352, Note_off_c, 9, 44, 0
6, 356352, Note_on_c, 9, 46, 64
6, 356352, Note_on_c, 9, 36, 110
6, 356608, Note_off_c, 9, 36, 0
6, 356608, Note_on_c, 9, 36, 110
6, 356864, Note_off_c, 9, 36, 0
6, 357376, Note_off_c, 9, 46, 0
6, 357376, Note_on_c, 9, 46, 64
6, 357888, Note_on_c, 9, 36, 110
6, 358144, Note_off_c, 9, 36, 0
6, 358144, Note_on_c, 9, 36, 110
6, 358400, Note_off_c, 9, 46, 0
6, 358400, Note_on_c, 9, 46, 64
6, 358400, Note_off_c, 9, 36, 0
6, 359424, Note_off_c, 9, 46, 0
6, 359424, Note_on_c, 9, 46, 64
6, 359424, Note_on_c, 9, 38, 90
6, 360448, Note_off_c, 9, 46, 0
6, 360448, Note_off_c, 9, 38, 0
6, 360448, Note_on_c, 9, 46, 64
6, 360448, Note_on_c, 9, 36, 110
6, 360704, Note_off_c, 9, 36, 0
6, 360704, Note_on_c, 9, 36, 110
6, 360960, Note_off_c, 9, 36, 0
6, 361472, Note_off_c, 9, 46, 0
6, 361472, Note_on_c, 9, 46, 64
6, 361472, Note_on_c, 9, 38, 90
6, 361984, Note_off_c, 9, 38, 0
6, 361984, Note_on_c, 9, 36, 110
6, 362240, Note_off_c, 9, 36, 0
6, 362240, Note_on_c, 9, 36, 110
6, 362496, Note_off_c, 9, 46, 0
6, 362496, Note_on_c, 9, 46, 64
6, 362496, Note_off_c, 9, 36, 0
6, 363520, Note_off_c, 9, 46, 0
6, 363520, Note_on_c, 9, 46, 64
6, 363520, Note_on_c, 9, 38, 90
6, 363648, Note_off_c, 9, 38, 0
6, 363648, Note_on_c, 9, 38, 90
6, 363776, Note_off_c, 9, 38, 0
6, 363776, Note_on_c, 9, 38, 90
6, 363904, Note_off_c, 9, 38, 0
6, 363904, Note_on_c, 9, 38, 90
6, 364032, Note_off_c, 9, 38, 0
6, 364032, Note_on_c, 9, 38, 90
6, 364160, Note_off_c, 9, 38, 0
6, 364160, Note_on_c, 9, 38, 90
6, 364288, Note_off_c, 9, 38, 0
6, 364288, Note_on_c, 9, 38, 90
6, 364416, Note_off_c, 9, 38, 0
6, 364416, Note_on_c, 9, 38, 90
6, 364544, Note_off_c, 9, 46, 0
6, 364544, Note_off_c, 9, 38, 0
6, 364544, Note_on_c, 9, 46, 64
6, 364544, Note_on_c, 9, 36, 110
6, 364800, Note_off_c, 9, 36, 0
6, 364800, Note_on_c, 9, 36, 110
6, 365056, Note_off_c, 9, 36, 0
6, 365568, Note_off_c, 9, 46, 0
6, 365568, Note_on_c, 9, 46, 64
6, 365568, Note_on_c, 9, 38, 90
6, 366080, Note_off_c, 9, 38, 0
6, 366080, Note_on_c, 9, 36, 110
6, 366336, Note_off_c, 9, 36, 0
6, 366336, Note_on_c, 9, 36, 110
6, 366592, Note_off_c, 9, 46, 0
6, 366592, Note_on_c, 9, 46, 64
6, 366592, Note_off_c, 9, 36, 0
6, 367616, Note_off_c, 9, 46, 0
6, 367616, Note_on_c, 9, 46, 64
6, 367616, Note_on_c, 9, 38, 90
6, 367744, Note_off_c, 9, 38, 0
6, 367744, Note_on_c, 9, 38, 90
6, 367872, Note_off_c, 9, 38, 0
6, 367872, Note_on_c, 9, 38, 90
6, 368000, Note_off_c, 9, 38, 0
6, 368000, Note_on_c, 9, 38, 90
6, 368128, Note_off_c, 9, 38, 0
6, 368128, Note_on_c, 9, 38, 90
6, 368256, Note_off_c, 9, 38, 0
6, 368256, Note_on_c, 9, 38, 90
6, 368384, Note_off_c, 9, 38, 0
6, 368384, Note_on_c, 9, 38, 90
6, 368512, Note_off_c, 9, 38, 0
6, 368512, Note_on_c, 9, 38, 90
6, 368640, Program_c, 9, 95
6, 368640, Note_off_c, 9, 46, 0
6, 368640, Note_off_c, 9, 38, 0
6, 368640, Note_on_c, 9, 50, 64
6, 368640, Note_on_c, 9, 44, 80
6, 369012, Note_off_c, 9, 50, 0
6, 369012, Note_on_c, 9, 45, 64
6, 369385, Note_off_c, 9, 45, 0
6, 369385, Note_on_c, 9, 43, 64
6, 369664, Note_off_c, 9, 44, 0
6, 369664, Note_on_c, 9, 44, 80
6, 369757, Note_off_c, 9, 43, 0
6, 369757, Note_on_c, 9, 38, 90
6, 370129, Note_off_c, 9, 38, 0
6, 370129, Note_on_c, 9, 48, 64
6, 370502, Note_off_c, 9, 48, 0
6, 370502, Note_on_c, 9, 43, 64
6, 370688, Note_off_c, 9, 44, 0
6, 370688, Note_on_c, 9, 44, 80
6, 370874, Note_off_c, 9, 43, 0
6, 370874, Note_on_c, 9, 48, 64
6, 371247, Note_off_c, 9, 48, 0
6, 371247, Note_on_c, 9, 36, 64
6, 371619, Note_off_c, 9, 36, 0
6, 371619, Note_on_c, 9, 38, 90
6, 371712, Note_off_c, 9, 44, 0
6, 371712, Note_on_c, 9, 44, 80
6, 371991, Note_off_c, 9, 38, 0
6, 371991, Note_on_c, 9, 43, 64
6, 372364, Note_off_c, 9, 43, 0
6, 372364, Note_on_c, 9, 36, 64
6, 372736, Program_c, 9, 95
6, 372736, Note_off_c, 9, 36, 0
6, 372736, Note_off_c, 9, 44, 0
6, 372736, Note_on_c, 9, 45, 64
6, 372736, Note_on_c, 9, 44, 80
6, 373108, Note_off_c, 9, 45, 0
6, 373108, Note_on_c, 9, 36, 64
6, 373481, Note_off_c, 9, 36, 0
6, 373481, Note_on_c, 9, 50, 64
6, 373760, Note_off_c, 9, 44, 0
6, 373760, Note_on_c, 9, 44, 80
6, 373853, Note_off_c, 9, 50, 0
6, 373853, Note_on_c, 9, 36, 64
6, 374225, Note_off_c, 9, 36, 0
6, 374225, Note_on_c, 9, 43, 64
6, 374598, Note_off_c, 9, 43, 0
6, 374598, Note_on_c, 9, 48, 64
6, 374784, Note_off_c, 9, 44, 0
6, 374784, Note_on_c, 9, 44, 80
6, 374970, Note_off_c, 9, 48, 0
6, 374970, Note_on_c, 9, 38, 90
6, 375343, Note_off_c, 9, 38, 0
6, 375343, Note_on_c, 9, 36, 64
6, 375715, Note_off_c, 9, 36, 0
6, 375715, Note_on_c, 9, 50, 64
6, 375808, Note_off_c, 9, 44, 0
6, 375808, Note_on_c, 9, 44, 80
6, 376087, Note_off_c, 9, 50, 0
6, 376087, Note_on_c, 9, 45, 64
6, 376460, Note_off_c, 9, 45, 0
6, 376460, Note_on_c, 9, 43, 64
6, 376832, Note_off_c, 9, 43, 0
6, 376832, Note_off_c, 9, 44, 0
6, 376832, Note_on_c, 9, 46, 64
6, 376832, Note_on_c, 9, 36, 110
6, 377088, Note_off_c, 9, 36, 0
6, 377088, Note_on_c, 9, 36, 110
6, 377344, Note_off_c, 9, 36, 0
6, 377856, Note_off_c, 9, 46, 0
6, 377856, Note_on_c, 9, 46, 64
6, 377856, Note_on_c, 9, 38, 90
6, 378368, Note_off_c, 9, 38, 0
6, 378368, Note_on_c, 9, 36, 110
6, 378624, Note_off_c, 9, 36, 0
6, 378624, Note_on_c, 9, 36, 110
6, 378880, Note_off_c, 9, 46, 0
6, 378880, Note_on_c, 9, 46, 64
6, 378880, Note_off_c, 9, 36, 0
6, 379904, Note_off_c, 9, 46, 0
6, 379904, Note_on_c, 9, 46, 64
6, 379904, Note_on_c, 9, 38, 90
6, 380928, Note_off_c, 9, 46, 0
6, 380928, Note_off_c, 9, 38, 0
6, 380928, Note_on_c, 9, 46, 64
6, 380928, Note_on_c, 9, 36, 110
6, 381184, Note_off_c, 9, 36, 0
6, 381184, Note_on_c, 9, 36, 110
6, 381440, Note_off_c, 9, 36, 0
6, 381952, Note_off_c, 9, 46, 0
6, 381952, Note_on_c, 9, 46, 64
6, 381952, Note_on_c, 9, 38, 90
6, 382464, Note_off_c, 9, 38, 0
6, 382464, Note_on_c, 9, 36, 110
6, 382720, Note_off_c, 9, 36, 0
6, 382720, Note_on_c, 9, 36, 110
6, 382976, Note_off_c, 9, 46, 0
6, 382976, Note_on_c, 9, 46, 64
6, 382976, Note_off_c, 9, 36, 0
6, 384000, Note_off_c, 9, 46, 0
6, 384000, Note_on_c, 9, 46, 64
6, 384000, Note_on_c, 9, 38, 90
6, 385024, Note_off_c, 9, 46, 0
6, 385024, Note_off_c, 9, 38, 0
6, 385024, Note_on_c, 9, 50, 64
6, 385024, Note_on_c, 9, 44, 80
6, 385396, Note_off_c, 9, 50, 0
6, 385396, Note_on_c, 9, 45, 64
6, 385769, Note_off_c, 9, 45, 0
6, 385769, Note_on_c, 9, 43, 64
6, 386048, Note_off_c, 9, 44, 0
6, 386048, Note_on_c, 9, 44, 80
6, 386141, Note_off_c, 9, 43, 0
6, 386141, Note_on_c, 9, 38, 90
6, 386513, Note_off_c, 9, 38, 0
6, 386513, Note_on_c, 9, 48, 64
6, 386886, Note_off_c, 9, 48, 0
6, 386886, Note_on_c, 9, 43, 64
6, 387072, Note_off_c, 9, 44, 0
6, 387072, Note_on_c, 9, 44, 80
6, 387258, Note_off_c, 9, 43, 0
6, 387258, Note_on_c, 9, 48, 64
6, 387631, Note_off_c, 9, 48, 0
6, 387631, Note_on_c, 9, 36, 64
6, 388003, Note_off_c, 9, 36, 0
6, 388003, Note_on_c, 9, 38, 90
6, 388096, Note_off_c, 9, 44, 0
6, 388096, Note_on_c, 9, 44, 80
6, 388375, Note_off_c, 9, 38, 0
6, 388375, Note_on_c, 9, 43, 64
6, 388748, Note_off_c, 9, 43, 0
6, 388748, Note_on_c, 9, 36, 64
6, 389120, Note_off_c, 9, 36, 0
6, 389120, Note_off_c, 9, 44, 0
6, 389120, Note_on_c, 9, 45, 64
6, 389120, Note_on_c, 9, 44, 80
6, 389492, Note_off_c, 9, 45, 0
6, 389492, Note_on_c, 9, 36, 64
6, 389865, Note_off_c, 9, 36, 0
6, 389865, Note_on_c, 9, 50, 64
6, 390144, Note_off_c, 9, 44, 0
6, 390144, Note_on_c, 9, 44, 80
6, 390237, Note_off_c, 9, 50, 0
6, 390237, Note_on_c, 9, 36, 64
6, 390609, Note_off_c, 9, 36, 0
6, 390609, Note_on_c, 9, 43, 64
6, 390982, Note_off_c, 9, 43, 0
6, 390982, Note_on_c, 9, 48, 64
6, 391168, Note_off_c, 9, 44, 0
6, 391168, Note_on_c, 9, 44, 80
6, 391354, Note_off_c, 9, 48, 0
6, 391354, Note_on_c, 9, 38, 90
6, 391727, Note_off_c, 9, 38, 0
6, 391727, Note_on_c, 9, 36, 64
6, 392099, Note_off_c, 9, 36, 0
6, 392099, Note_on_c, 9, 50, 64
6, 392192, Note_off_c, 9, 44, 0
6, 392192, Note_on_c, 9, 44, 80
6, 392471, Note_off_c, 9, 50, 0
6, 392471, Note_on_c, 9, 45, 64
6, 392844, Note_off_c, 9, 45, 0
6, 392844, Note_on_c, 9, 43, 64
6, 393216, Note_off_c, 9, 43, 0
6, 393216, Note_off_c, 9, 44, 0
6, 393216, Note_on_c, 9, 46, 64
6, 393216, Note_on_c, 9, 36, 110
6, 393472, Note_off_c, 9, 36, 0
6, 393472, Note_on_c, 9, 36, 110
6, 393728, Note_off_c, 9, 36, 0
6, 394240, Note_off_c, 9, 46, 0
6, 394240, Note_on_c, 9, 46, 64
6, 394240, Note_on_c, 9, 38, 90
6, 394752, Note_off_c, 9, 38, 0
6, 394752, Note_on_c, 9, 36, 110
6, 395008, Note_off_c, 9, 36, 0
6, 395008, Note_on_c, 9, 36, 110
6, 395264, Note_off_c, 9, 46, 0
6, 395264, Note_on_c, 9, 46, 64
6, 395264, Note_off_c, 9, 36, 0
6, 396288, Note_off_c, 9, 46, 0
6, 396288, Note_on_c, 9, 46, 64
6, 396288, Note_on_c, 9, 38, 90
6, 397312, Note_off_c, 9, 46, 0
6, 397312, Note_off_c, 9, 38, 0
6, 397312, Note_on_c, 9, 46, 64
6, 397312, Note_on_c, 9, 36, 110
6, 397568, Note_off_c, 9, 36, 0
6, 397568, Note_on_c, 9, 36, 110
6, 397824, Note_off_c, 9, 36, 0
6, 398336, Note_off_c, 9, 46, 0
6, 398336, Note_on_c, 9, 46, 64
6, 398336, Note_on_c, 9, 38, 90
6, 398848, Note_off_c, 9, 38, 0
6, 398848, Note_on_c, 9, 36, 110
6, 399104, Note_off_c, 9, 36, 0
6, 399104, Note_on_c, 9, 36, 110
6, 399360, Note_off_c, 9, 46, 0
6, 399360, Note_on_c, 9, 46, 64
6, 399360, Note_off_c, 9, 36, 0
6, 400384, Note_off_c, 9, 46, 0
6, 400384, Note_on_c, 9, 46, 64
6, 400384, Note_on_c, 9, 38, 90
6, 401408, Note_off_c, 9, 46, 0
6, 401408, Note_off_c, 9, 38, 0
6, 401408, Note_on_c, 9, 50, 64
6, 401408, Note_on_c, 9, 44, 80
6, 401780, Note_off_c, 9, 50, 0
6, 401780, Note_on_c, 9, 45, 64
6, 402153, Note_off_c, 9, 45, 0
6, 402153, Note_on_c, 9, 43, 64
6, 402432, Note_off_c, 9, 44, 0
6, 402432, Note_on_c, 9, 44, 80
6, 402525, Note_off_c, 9, 43, 0
6, 402525, Note_on_c, 9, 38, 90
6, 402897, Note_off_c, 9, 38, 0
6, 402897, Note_on_c, 9, 48, 64
6, 403270, Note_off_c, 9, 48, 0
6, 403270, Note_on_c, 9, 43, 64
6, 403456, Note_off_c, 9, 44, 0
6, 403456, Note_on_c, 9, 44, 80
6, 403642, Note_off_c, 9, 43, 0
6, 403642, Note_on_c, 9, 48, 64
6, 404015, Note_off_c, 9, 48, 0
6, 404015, Note_on_c, 9, 36, 64
6, 404387, Note_off_c, 9, 36, 0
6, 404387, Note_on_c, 9, 38, 90
6, 404480, Note_off_c, 9, 44, 0
6, 404480, Note_on_c, 9, 44, 80
6, 404759, Note_off_c, 9, 38, 0
6, 404759, Note_on_c, 9, 43, 64
6, 405132, Note_off_c, 9, 43, 0
6, 405132, Note_on_c, 9, 36, 64
6, 405504, Note_off_c, 9, 36, 0
6, 405504, Note_off_c, 9, 44, 0
6, 405504, Note_on_c, 9, 45, 64
6, 405504, Note_on_c, 9, 44, 80
6, 405876, Note_off_c, 9, 45, 0
6, 405876, Note_on_c, 9, 36, 64
6, 406249, Note_off_c, 9, 36, 0
6, 406249, Note_on_c, 9, 50, 64
6, 406528, Note_off_c, 9, 44, 0
6, 406528, Note_on_c, 9, 44, 80
6, 406621, Note_off_c, 9, 50, 0
6, 406621, Note_on_c, 9, 36, 64
6, 406993, Note_off_c, 9, 36, 0
6, 406993, Note_on_c, 9, 43, 64
6, 407366, Note_off_c, 9, 43, 0
6, 407366, Note_on_c, 9, 48, 64
6, 407552, Note_off_c, 9, 44, 0
6, 407552, Note_on_c, 9, 44, 80
6, 407738, Note_off_c, 9, 48, 0
6, 407738, Note_on_c, 9, 38, 90
6, 408111, Note_off_c, 9, 38, 0
6, 408111, Note_on_c, 9, 36, 64
6, 408483, Note_off_c, 9, 36, 0
6, 408483, Note_on_c, 9, 50, 64
6, 408576, Note_off_c, 9, 44, 0
6, 408576, Note_on_c, 9, 44, 80
6, 408855, Note_off_c, 9, 50, 0
6, 408855, Note_on_c, 9, 45, 64
6, 409228, Note_off_c, 9, 45, 0
6, 409228, Note_on_c, 9, 43, 64
6, 409600, Note_off_c, 9, 43, 0
6, 409600, Note_off_c, 9, 44, 0
6, 409600, Note_on_c, 9, 46, 64
6, 409600, Note_on_c, 9, 51, 64
6, 409600, Note_on_c, 9, 49, 64
6, 409600, Note_on_c, 9, 36, 64
6, 411648, Note_off_c, 9, 46, 0
6, 411648, Note_off_c, 9, 51, 0
6, 411648, Note_off_c, 9, 49, 0
6, 411648, Note_on_c, 9, 46, 64
6, 411776, Note_off_c, 9, 46, 0
6, 411776, Note_on_c, 9, 46, 64
6, 411904, Note_off_c, 9, 46, 0
6, 411904, Note_on_c, 9, 46, 64
6, 412032, Note_off_c, 9, 46, 0
6, 412032, Note_on_c, 9, 46, 64
6, 412160, Note_off_c, 9, 46, 0
6, 412160, Note_on_c, 9, 46, 64
6, 412288, Note_off_c, 9, 46, 0
6, 412288, Note_on_c, 9, 46, 64
6, 412416, Note_off_c, 9, 46, 0
6, 412416, Note_on_c, 9, 46, 64
6, 412544, Note_off_c, 9, 46, 0
6, 412544, Note_on_c, 9, 46, 64
6, 412672, Note_off_c, 9, 46, 0
6, 412672, Note_on_c, 9, 46, 64
6, 412800, Note_off_c, 9, 46, 0
6, 412800, Note_on_c, 9, 46, 64
6, 412928, Note_off_c, 9, 46, 0
6, 412928, Note_on_c, 9, 46, 64
6, 413056, Note_off_c, 9, 46, 0
6, 413056, Note_on_c, 9, 46, 64
6, 413184, Note_off_c, 9, 46, 0
6, 413184, Note_on_c, 9, 46, 64
6, 413312, Note_off_c, 9, 46, 0
6, 413312, Note_on_c, 9, 46, 64
6, 413440, Note_off_c, 9, 46, 0
6, 413440, Note_on_c, 9, 46, 64
6, 413568, Note_off_c, 9, 46, 0
6, 413568, Note_on_c, 9, 46, 64
6, 413696, Note_off_c, 9, 46, 0
6, 413696, Note_off_c, 9, 36, 0
6, 413696, Note_on_c, 9, 46, 64
6, 415744, Note_off_c, 9, 46, 0
6, 417793, End_track
0, 0, End_of_file
