0, 0, Header, 1, 11, 240
1, 0, Start_track
1, 0, Sequencer_specific, 10, 0, 0, 91, 35, 2, 0, 3, 0, 51, 0
1, 0, MIDI_port, 0
1, 0, Text_t, """Bleed To Love Her"" - Fleetwood Mac - The Dance"
1, 0, Text_t, "Sequenced by: Bill G. aka. johansbach@geocities.com"
1, 0, Copyright_t, "Copyright October 22, 1998"
1, 0, Copyright_t, "Distribute Freely but do not modify this file for broadcast of any form."
1, 0, Time_signature, 4, 2, 24, 8
1, 0, Tempo, 363636
1, 0, End_track
2, 0, Start_track
2, 0, Title_t, "English Horn"
2, 0, MIDI_port, 0
2, 0, Program_c, 0, 69
2, 0, Control_c, 0, 7, 127
2, 16320, Note_on_c, 0, 52, 60
2, 16559, Note_on_c, 0, 52, 0
2, 16560, Note_on_c, 0, 52, 60
2, 16679, Note_on_c, 0, 52, 0
2, 16680, Note_on_c, 0, 52, 60
2, 16799, Note_on_c, 0, 52, 0
2, 16800, Note_on_c, 0, 52, 60
2, 16919, Note_on_c, 0, 52, 0
2, 16920, Note_on_c, 0, 52, 60
2, 17159, Note_on_c, 0, 52, 0
2, 17160, Note_on_c, 0, 52, 60
2, 17279, Note_on_c, 0, 52, 0
2, 17280, Note_on_c, 0, 53, 60
2, 17519, Note_on_c, 0, 53, 0
2, 17520, Note_on_c, 0, 53, 60
2, 17639, Note_on_c, 0, 53, 0
2, 17640, Note_on_c, 0, 53, 60
2, 17760, Note_on_c, 0, 53, 60
2, 17878, Note_on_c, 0, 53, 0
2, 18239, Note_on_c, 0, 53, 0
2, 19920, Note_on_c, 0, 48, 60
2, 20039, Note_on_c, 0, 48, 0
2, 20040, Note_on_c, 0, 48, 60
2, 20159, Note_on_c, 0, 48, 0
2, 20160, Note_on_c, 0, 48, 60
2, 20399, Note_on_c, 0, 48, 0
2, 20400, Note_on_c, 0, 48, 60
2, 20519, Note_on_c, 0, 48, 0
2, 20520, Note_on_c, 0, 50, 60
2, 20639, Note_on_c, 0, 50, 0
2, 20640, Note_on_c, 0, 50, 60
2, 20759, Note_on_c, 0, 50, 0
2, 20760, Note_on_c, 0, 48, 60
2, 20879, Note_on_c, 0, 48, 0
2, 20880, Note_on_c, 0, 50, 60
2, 21119, Note_on_c, 0, 50, 0
2, 21120, Note_on_c, 0, 47, 60
2, 21359, Note_on_c, 0, 47, 0
2, 24000, Note_on_c, 0, 52, 60
2, 24239, Note_on_c, 0, 52, 0
2, 24240, Note_on_c, 0, 52, 60
2, 24359, Note_on_c, 0, 52, 0
2, 24360, Note_on_c, 0, 52, 60
2, 24479, Note_on_c, 0, 52, 0
2, 24480, Note_on_c, 0, 52, 60
2, 24599, Note_on_c, 0, 52, 0
2, 24600, Note_on_c, 0, 52, 60
2, 24839, Note_on_c, 0, 52, 0
2, 24840, Note_on_c, 0, 52, 60
2, 25079, Note_on_c, 0, 52, 0
2, 25200, Note_on_c, 0, 50, 60
2, 25319, Note_on_c, 0, 50, 0
2, 25320, Note_on_c, 0, 50, 60
2, 25439, Note_on_c, 0, 50, 0
2, 25440, Note_on_c, 0, 50, 60
2, 25919, Note_on_c, 0, 50, 0
2, 27720, Note_on_c, 0, 48, 60
2, 27839, Note_on_c, 0, 48, 0
2, 27840, Note_on_c, 0, 48, 60
2, 27959, Note_on_c, 0, 48, 0
2, 27960, Note_on_c, 0, 48, 60
2, 28019, Note_on_c, 0, 48, 0
2, 28200, Note_on_c, 0, 52, 60
2, 28259, Note_on_c, 0, 52, 0
2, 28320, Note_on_c, 0, 52, 60
2, 28349, Note_on_c, 0, 52, 0
2, 28440, Note_on_c, 0, 45, 60
2, 28469, Note_on_c, 0, 45, 0
2, 28680, Note_on_c, 0, 47, 60
2, 28859, Note_on_c, 0, 47, 0
2, 28860, Note_on_c, 0, 47, 60
2, 29579, Note_on_c, 0, 47, 0
2, 31920, Note_on_c, 0, 48, 60
2, 32039, Note_on_c, 0, 48, 0
2, 32040, Note_on_c, 0, 50, 60
2, 32159, Note_on_c, 0, 50, 0
2, 32160, Note_on_c, 0, 50, 60
2, 32279, Note_on_c, 0, 50, 0
2, 32280, Note_on_c, 0, 48, 60
2, 32644, Note_on_c, 0, 48, 0
2, 33600, Note_on_c, 0, 53, 60
2, 33839, Note_on_c, 0, 53, 0
2, 33840, Note_on_c, 0, 52, 60
2, 33959, Note_on_c, 0, 52, 0
2, 33960, Note_on_c, 0, 52, 60
2, 34079, Note_on_c, 0, 52, 0
2, 34080, Note_on_c, 0, 52, 60
2, 34199, Note_on_c, 0, 52, 0
2, 34200, Note_on_c, 0, 52, 60
2, 35159, Note_on_c, 0, 52, 0
2, 35760, Note_on_c, 0, 60, 60
2, 35999, Note_on_c, 0, 60, 0
2, 36000, Note_on_c, 0, 60, 60
2, 36119, Note_on_c, 0, 60, 0
2, 36120, Note_on_c, 0, 64, 60
2, 36479, Note_on_c, 0, 64, 0
2, 37440, Note_on_c, 0, 65, 60
2, 37679, Note_on_c, 0, 65, 0
2, 37680, Note_on_c, 0, 64, 60
2, 37799, Note_on_c, 0, 64, 0
2, 37800, Note_on_c, 0, 59, 60
2, 37919, Note_on_c, 0, 59, 0
2, 37920, Note_on_c, 0, 59, 60
2, 38039, Note_on_c, 0, 59, 0
2, 38040, Note_on_c, 0, 60, 60
2, 39179, Note_on_c, 0, 60, 0
2, 39600, Note_on_c, 0, 60, 60
2, 39719, Note_on_c, 0, 60, 0
2, 39720, Note_on_c, 0, 59, 60
2, 39839, Note_on_c, 0, 59, 0
2, 39840, Note_on_c, 0, 59, 60
2, 39959, Note_on_c, 0, 59, 0
2, 39960, Note_on_c, 0, 59, 60
2, 40319, Note_on_c, 0, 59, 0
2, 41280, Note_on_c, 0, 53, 60
2, 41519, Note_on_c, 0, 53, 0
2, 41520, Note_on_c, 0, 52, 60
2, 41639, Note_on_c, 0, 52, 0
2, 41640, Note_on_c, 0, 52, 60
2, 41759, Note_on_c, 0, 52, 0
2, 41760, Note_on_c, 0, 52, 60
2, 41879, Note_on_c, 0, 52, 0
2, 41880, Note_on_c, 0, 57, 60
2, 43199, Note_on_c, 0, 57, 0
2, 47040, Note_on_c, 0, 52, 60
2, 47279, Note_on_c, 0, 52, 0
2, 47280, Note_on_c, 0, 52, 60
2, 47399, Note_on_c, 0, 52, 0
2, 47400, Note_on_c, 0, 52, 60
2, 47519, Note_on_c, 0, 52, 0
2, 47520, Note_on_c, 0, 52, 60
2, 47639, Note_on_c, 0, 52, 0
2, 47640, Note_on_c, 0, 52, 60
2, 47879, Note_on_c, 0, 52, 0
2, 47880, Note_on_c, 0, 52, 60
2, 47999, Note_on_c, 0, 52, 0
2, 48000, Note_on_c, 0, 53, 60
2, 48239, Note_on_c, 0, 53, 0
2, 48240, Note_on_c, 0, 53, 60
2, 48359, Note_on_c, 0, 53, 0
2, 48360, Note_on_c, 0, 53, 60
2, 48480, Note_on_c, 0, 53, 60
2, 48598, Note_on_c, 0, 53, 0
2, 48598, Note_on_c, 0, 53, 0
2, 50640, Note_on_c, 0, 48, 60
2, 50759, Note_on_c, 0, 48, 0
2, 50760, Note_on_c, 0, 48, 60
2, 50879, Note_on_c, 0, 48, 0
2, 50880, Note_on_c, 0, 48, 60
2, 51119, Note_on_c, 0, 48, 0
2, 51120, Note_on_c, 0, 48, 60
2, 51239, Note_on_c, 0, 48, 0
2, 51240, Note_on_c, 0, 50, 60
2, 51359, Note_on_c, 0, 50, 0
2, 51360, Note_on_c, 0, 50, 60
2, 51479, Note_on_c, 0, 50, 0
2, 51480, Note_on_c, 0, 48, 60
2, 51599, Note_on_c, 0, 48, 0
2, 51600, Note_on_c, 0, 50, 60
2, 51839, Note_on_c, 0, 50, 0
2, 51840, Note_on_c, 0, 47, 60
2, 52079, Note_on_c, 0, 47, 0
2, 54720, Note_on_c, 0, 52, 60
2, 54959, Note_on_c, 0, 52, 0
2, 54960, Note_on_c, 0, 52, 60
2, 55079, Note_on_c, 0, 52, 0
2, 55080, Note_on_c, 0, 52, 60
2, 55199, Note_on_c, 0, 52, 0
2, 55200, Note_on_c, 0, 52, 60
2, 55319, Note_on_c, 0, 52, 0
2, 55320, Note_on_c, 0, 52, 60
2, 55559, Note_on_c, 0, 52, 0
2, 55560, Note_on_c, 0, 52, 60
2, 55799, Note_on_c, 0, 52, 0
2, 55920, Note_on_c, 0, 50, 60
2, 56039, Note_on_c, 0, 50, 0
2, 56040, Note_on_c, 0, 50, 60
2, 56159, Note_on_c, 0, 50, 0
2, 56160, Note_on_c, 0, 50, 60
2, 56639, Note_on_c, 0, 50, 0
2, 58440, Note_on_c, 0, 48, 60
2, 58559, Note_on_c, 0, 48, 0
2, 58560, Note_on_c, 0, 48, 60
2, 58679, Note_on_c, 0, 48, 0
2, 58680, Note_on_c, 0, 48, 60
2, 58739, Note_on_c, 0, 48, 0
2, 58920, Note_on_c, 0, 52, 60
2, 58979, Note_on_c, 0, 52, 0
2, 59040, Note_on_c, 0, 52, 60
2, 59069, Note_on_c, 0, 52, 0
2, 59160, Note_on_c, 0, 45, 60
2, 59189, Note_on_c, 0, 45, 0
2, 59400, Note_on_c, 0, 47, 60
2, 59579, Note_on_c, 0, 47, 0
2, 59580, Note_on_c, 0, 47, 60
2, 60299, Note_on_c, 0, 47, 0
2, 62640, Note_on_c, 0, 48, 60
2, 62759, Note_on_c, 0, 48, 0
2, 62760, Note_on_c, 0, 50, 60
2, 62879, Note_on_c, 0, 50, 0
2, 62880, Note_on_c, 0, 50, 60
2, 62999, Note_on_c, 0, 50, 0
2, 63000, Note_on_c, 0, 48, 60
2, 63364, Note_on_c, 0, 48, 0
2, 64320, Note_on_c, 0, 53, 60
2, 64559, Note_on_c, 0, 53, 0
2, 64560, Note_on_c, 0, 52, 60
2, 64679, Note_on_c, 0, 52, 0
2, 64680, Note_on_c, 0, 52, 60
2, 64799, Note_on_c, 0, 52, 0
2, 64800, Note_on_c, 0, 52, 60
2, 64919, Note_on_c, 0, 52, 0
2, 64920, Note_on_c, 0, 52, 60
2, 65879, Note_on_c, 0, 52, 0
2, 66480, Note_on_c, 0, 60, 60
2, 66719, Note_on_c, 0, 60, 0
2, 66720, Note_on_c, 0, 60, 60
2, 66839, Note_on_c, 0, 60, 0
2, 66840, Note_on_c, 0, 64, 60
2, 67199, Note_on_c, 0, 64, 0
2, 68160, Note_on_c, 0, 65, 60
2, 68399, Note_on_c, 0, 65, 0
2, 68400, Note_on_c, 0, 64, 60
2, 68519, Note_on_c, 0, 64, 0
2, 68520, Note_on_c, 0, 59, 60
2, 68639, Note_on_c, 0, 59, 0
2, 68640, Note_on_c, 0, 59, 60
2, 68759, Note_on_c, 0, 59, 0
2, 68760, Note_on_c, 0, 60, 60
2, 69899, Note_on_c, 0, 60, 0
2, 70320, Note_on_c, 0, 60, 60
2, 70439, Note_on_c, 0, 60, 0
2, 70440, Note_on_c, 0, 59, 60
2, 70559, Note_on_c, 0, 59, 0
2, 70560, Note_on_c, 0, 59, 60
2, 70679, Note_on_c, 0, 59, 0
2, 70680, Note_on_c, 0, 59, 60
2, 71039, Note_on_c, 0, 59, 0
2, 72000, Note_on_c, 0, 53, 60
2, 72239, Note_on_c, 0, 53, 0
2, 72240, Note_on_c, 0, 52, 60
2, 72359, Note_on_c, 0, 52, 0
2, 72360, Note_on_c, 0, 52, 60
2, 72479, Note_on_c, 0, 52, 0
2, 72480, Note_on_c, 0, 52, 60
2, 72599, Note_on_c, 0, 52, 0
2, 72600, Note_on_c, 0, 57, 60
2, 73919, Note_on_c, 0, 57, 0
2, 76800, Note_on_c, 0, 67, 60
2, 76919, Note_on_c, 0, 67, 0
2, 76920, Note_on_c, 0, 67, 60
2, 77039, Note_on_c, 0, 67, 0
2, 77040, Note_on_c, 0, 69, 60
2, 77159, Note_on_c, 0, 69, 0
2, 77160, Note_on_c, 0, 71, 60
2, 77279, Note_on_c, 0, 71, 0
2, 77280, Note_on_c, 0, 71, 60
2, 77399, Note_on_c, 0, 71, 0
2, 77400, Note_on_c, 0, 69, 60
2, 77639, Note_on_c, 0, 69, 0
2, 77640, Note_on_c, 0, 67, 60
2, 77779, Note_on_c, 0, 67, 0
2, 77880, Note_on_c, 0, 69, 60
2, 78119, Note_on_c, 0, 69, 0
2, 78120, Note_on_c, 0, 71, 60
2, 78239, Note_on_c, 0, 71, 0
2, 78240, Note_on_c, 0, 71, 60
2, 78719, Note_on_c, 0, 71, 0
2, 80640, Note_on_c, 0, 67, 60
2, 80879, Note_on_c, 0, 67, 0
2, 80880, Note_on_c, 0, 69, 60
2, 80999, Note_on_c, 0, 69, 0
2, 81000, Note_on_c, 0, 71, 60
2, 81119, Note_on_c, 0, 71, 0
2, 81120, Note_on_c, 0, 71, 60
2, 81239, Note_on_c, 0, 71, 0
2, 81240, Note_on_c, 0, 69, 60
2, 81479, Note_on_c, 0, 69, 0
2, 81480, Note_on_c, 0, 67, 60
2, 81599, Note_on_c, 0, 67, 0
2, 81600, Note_on_c, 0, 67, 60
2, 81719, Note_on_c, 0, 67, 0
2, 81720, Note_on_c, 0, 69, 60
2, 81959, Note_on_c, 0, 69, 0
2, 81960, Note_on_c, 0, 71, 60
2, 82079, Note_on_c, 0, 71, 0
2, 82080, Note_on_c, 0, 71, 60
2, 82559, Note_on_c, 0, 71, 0
2, 84480, Note_on_c, 0, 67, 60
2, 84599, Note_on_c, 0, 67, 0
2, 84600, Note_on_c, 0, 67, 60
2, 84719, Note_on_c, 0, 67, 0
2, 84720, Note_on_c, 0, 69, 60
2, 84839, Note_on_c, 0, 69, 0
2, 84840, Note_on_c, 0, 71, 60
2, 84959, Note_on_c, 0, 71, 0
2, 84960, Note_on_c, 0, 71, 60
2, 85079, Note_on_c, 0, 71, 0
2, 85080, Note_on_c, 0, 69, 60
2, 85319, Note_on_c, 0, 69, 0
2, 85320, Note_on_c, 0, 67, 60
2, 85459, Note_on_c, 0, 67, 0
2, 85560, Note_on_c, 0, 69, 60
2, 85799, Note_on_c, 0, 69, 0
2, 85800, Note_on_c, 0, 71, 60
2, 85919, Note_on_c, 0, 71, 0
2, 85920, Note_on_c, 0, 71, 60
2, 86399, Note_on_c, 0, 71, 0
2, 88320, Note_on_c, 0, 69, 60
2, 88439, Note_on_c, 0, 69, 0
2, 88440, Note_on_c, 0, 71, 60
2, 88679, Note_on_c, 0, 71, 0
2, 88680, Note_on_c, 0, 71, 60
2, 88799, Note_on_c, 0, 71, 0
2, 88800, Note_on_c, 0, 71, 60
2, 88919, Note_on_c, 0, 71, 0
2, 88920, Note_on_c, 0, 69, 60
2, 89039, Note_on_c, 0, 69, 0
2, 89040, Note_on_c, 0, 69, 60
2, 89159, Note_on_c, 0, 69, 0
2, 89160, Note_on_c, 0, 69, 60
2, 89279, Note_on_c, 0, 69, 0
2, 89280, Note_on_c, 0, 67, 60
2, 89399, Note_on_c, 0, 67, 0
2, 89400, Note_on_c, 0, 71, 60
2, 89639, Note_on_c, 0, 71, 0
2, 89640, Note_on_c, 0, 71, 60
2, 89759, Note_on_c, 0, 71, 0
2, 89760, Note_on_c, 0, 71, 60
2, 90239, Note_on_c, 0, 71, 0
2, 90240, Note_on_c, 0, 71, 60
2, 90719, Note_on_c, 0, 71, 0
2, 90720, Note_on_c, 0, 71, 60
2, 90839, Note_on_c, 0, 71, 0
2, 90840, Note_on_c, 0, 72, 60
2, 90959, Note_on_c, 0, 72, 0
2, 90960, Note_on_c, 0, 71, 60
2, 91079, Note_on_c, 0, 71, 0
2, 91080, Note_on_c, 0, 69, 60
2, 91199, Note_on_c, 0, 69, 0
2, 91200, Note_on_c, 0, 65, 60
2, 91319, Note_on_c, 0, 65, 0
2, 91320, Note_on_c, 0, 64, 60
2, 91679, Note_on_c, 0, 64, 0
2, 91680, Note_on_c, 0, 64, 60
2, 91799, Note_on_c, 0, 64, 0
2, 91800, Note_on_c, 0, 60, 60
2, 91919, Note_on_c, 0, 60, 0
2, 91920, Note_on_c, 0, 59, 60
2, 92039, Note_on_c, 0, 59, 0
2, 92040, Note_on_c, 0, 57, 60
2, 92159, Note_on_c, 0, 57, 0
2, 93360, Note_on_c, 0, 48, 60
2, 93479, Note_on_c, 0, 48, 0
2, 93480, Note_on_c, 0, 50, 60
2, 93599, Note_on_c, 0, 50, 0
2, 93600, Note_on_c, 0, 50, 60
2, 93719, Note_on_c, 0, 50, 0
2, 93720, Note_on_c, 0, 48, 60
2, 94084, Note_on_c, 0, 48, 0
2, 95040, Note_on_c, 0, 53, 60
2, 95279, Note_on_c, 0, 53, 0
2, 95280, Note_on_c, 0, 52, 60
2, 95399, Note_on_c, 0, 52, 0
2, 95400, Note_on_c, 0, 52, 60
2, 95519, Note_on_c, 0, 52, 0
2, 95520, Note_on_c, 0, 52, 60
2, 95639, Note_on_c, 0, 52, 0
2, 95640, Note_on_c, 0, 52, 60
2, 96599, Note_on_c, 0, 52, 0
2, 97200, Note_on_c, 0, 60, 60
2, 97439, Note_on_c, 0, 60, 0
2, 97440, Note_on_c, 0, 60, 60
2, 97559, Note_on_c, 0, 60, 0
2, 97560, Note_on_c, 0, 64, 60
2, 97919, Note_on_c, 0, 64, 0
2, 98880, Note_on_c, 0, 65, 60
2, 99119, Note_on_c, 0, 65, 0
2, 99120, Note_on_c, 0, 64, 60
2, 99239, Note_on_c, 0, 64, 0
2, 99240, Note_on_c, 0, 59, 60
2, 99359, Note_on_c, 0, 59, 0
2, 99360, Note_on_c, 0, 59, 60
2, 99479, Note_on_c, 0, 59, 0
2, 99480, Note_on_c, 0, 60, 60
2, 100619, Note_on_c, 0, 60, 0
2, 101040, Note_on_c, 0, 60, 60
2, 101159, Note_on_c, 0, 60, 0
2, 101160, Note_on_c, 0, 59, 60
2, 101279, Note_on_c, 0, 59, 0
2, 101280, Note_on_c, 0, 59, 60
2, 101399, Note_on_c, 0, 59, 0
2, 101400, Note_on_c, 0, 59, 60
2, 101759, Note_on_c, 0, 59, 0
2, 102720, Note_on_c, 0, 53, 60
2, 102959, Note_on_c, 0, 53, 0
2, 102960, Note_on_c, 0, 52, 60
2, 103079, Note_on_c, 0, 52, 0
2, 103080, Note_on_c, 0, 52, 60
2, 103199, Note_on_c, 0, 52, 0
2, 103200, Note_on_c, 0, 52, 60
2, 103319, Note_on_c, 0, 52, 0
2, 103320, Note_on_c, 0, 57, 60
2, 104639, Note_on_c, 0, 57, 0
2, 106560, Note_on_c, 0, 53, 60
2, 106799, Note_on_c, 0, 53, 0
2, 106800, Note_on_c, 0, 52, 60
2, 106919, Note_on_c, 0, 52, 0
2, 106920, Note_on_c, 0, 52, 60
2, 107039, Note_on_c, 0, 52, 0
2, 107040, Note_on_c, 0, 52, 60
2, 107159, Note_on_c, 0, 52, 0
2, 107160, Note_on_c, 0, 57, 60
2, 109439, Note_on_c, 0, 57, 0
2, 110400, Note_on_c, 0, 69, 60
2, 110879, Note_on_c, 0, 69, 0
2, 110880, Note_on_c, 0, 65, 60
2, 111359, Note_on_c, 0, 65, 0
2, 111360, Note_on_c, 0, 64, 60
2, 114239, Note_on_c, 0, 64, 0
2, 114240, Note_on_c, 0, 69, 60
2, 114719, Note_on_c, 0, 69, 0
2, 114720, Note_on_c, 0, 65, 60
2, 115199, Note_on_c, 0, 65, 0
2, 115200, Note_on_c, 0, 64, 60
2, 118079, Note_on_c, 0, 64, 0
2, 118080, Note_on_c, 0, 69, 60
2, 118559, Note_on_c, 0, 69, 0
2, 118560, Note_on_c, 0, 65, 60
2, 119039, Note_on_c, 0, 65, 0
2, 119040, Note_on_c, 0, 64, 60
2, 122879, Note_on_c, 0, 64, 0
2, 122879, End_track
3, 0, Start_track
3, 0, Title_t, "Steel Guitar"
3, 0, MIDI_port, 0
3, 0, Program_c, 1, 25
3, 120, Note_on_c, 1, 57, 60
3, 239, Note_on_c, 1, 57, 0
3, 240, Note_on_c, 1, 69, 60
3, 479, Note_on_c, 1, 69, 0
3, 480, Note_on_c, 1, 57, 60
3, 599, Note_on_c, 1, 57, 0
3, 600, Note_on_c, 1, 69, 60
3, 839, Note_on_c, 1, 69, 0
3, 840, Note_on_c, 1, 69, 60
3, 959, Note_on_c, 1, 69, 0
3, 1080, Note_on_c, 1, 57, 60
3, 1199, Note_on_c, 1, 57, 0
3, 1200, Note_on_c, 1, 69, 60
3, 1320, Note_on_c, 1, 57, 60
3, 1439, Note_on_c, 1, 69, 0
3, 1439, Note_on_c, 1, 57, 0
3, 1560, Note_on_c, 1, 69, 60
3, 1799, Note_on_c, 1, 69, 0
3, 1800, Note_on_c, 1, 67, 60
3, 1919, Note_on_c, 1, 67, 0
3, 2040, Note_on_c, 1, 57, 60
3, 2159, Note_on_c, 1, 57, 0
3, 2160, Note_on_c, 1, 67, 60
3, 2399, Note_on_c, 1, 67, 0
3, 2400, Note_on_c, 1, 57, 60
3, 2519, Note_on_c, 1, 57, 0
3, 2520, Note_on_c, 1, 67, 60
3, 2759, Note_on_c, 1, 67, 0
3, 2760, Note_on_c, 1, 65, 60
3, 2879, Note_on_c, 1, 65, 0
3, 3000, Note_on_c, 1, 57, 60
3, 3119, Note_on_c, 1, 57, 0
3, 3120, Note_on_c, 1, 65, 60
3, 3240, Note_on_c, 1, 57, 60
3, 3359, Note_on_c, 1, 65, 0
3, 3359, Note_on_c, 1, 57, 0
3, 3480, Note_on_c, 1, 65, 60
3, 3599, Note_on_c, 1, 65, 0
3, 3720, Note_on_c, 1, 64, 60
3, 3839, Note_on_c, 1, 64, 0
3, 3960, Note_on_c, 1, 57, 60
3, 4079, Note_on_c, 1, 57, 0
3, 4080, Note_on_c, 1, 64, 60
3, 4319, Note_on_c, 1, 64, 0
3, 4320, Note_on_c, 1, 57, 60
3, 4439, Note_on_c, 1, 57, 0
3, 4440, Note_on_c, 1, 65, 60
3, 4799, Note_on_c, 1, 65, 0
3, 4920, Note_on_c, 1, 57, 60
3, 5039, Note_on_c, 1, 57, 0
3, 5040, Note_on_c, 1, 64, 60
3, 5279, Note_on_c, 1, 64, 0
3, 5280, Note_on_c, 1, 57, 60
3, 5399, Note_on_c, 1, 57, 0
3, 5400, Note_on_c, 1, 64, 60
3, 5759, Note_on_c, 1, 64, 0
3, 5880, Note_on_c, 1, 57, 60
3, 5999, Note_on_c, 1, 57, 0
3, 6000, Note_on_c, 1, 64, 60
3, 6239, Note_on_c, 1, 64, 0
3, 6240, Note_on_c, 1, 57, 60
3, 6359, Note_on_c, 1, 57, 0
3, 6360, Note_on_c, 1, 64, 60
3, 6719, Note_on_c, 1, 64, 0
3, 6840, Note_on_c, 1, 57, 60
3, 6959, Note_on_c, 1, 57, 0
3, 6960, Note_on_c, 1, 64, 60
3, 7199, Note_on_c, 1, 64, 0
3, 7200, Note_on_c, 1, 57, 60
3, 7319, Note_on_c, 1, 57, 0
3, 7320, Note_on_c, 1, 64, 60
3, 7679, Note_on_c, 1, 64, 0
3, 7800, Note_on_c, 1, 57, 60
3, 7919, Note_on_c, 1, 57, 0
3, 7920, Note_on_c, 1, 69, 60
3, 8159, Note_on_c, 1, 69, 0
3, 8160, Note_on_c, 1, 57, 60
3, 8279, Note_on_c, 1, 57, 0
3, 8280, Note_on_c, 1, 69, 60
3, 8519, Note_on_c, 1, 69, 0
3, 8520, Note_on_c, 1, 69, 60
3, 8639, Note_on_c, 1, 69, 0
3, 8760, Note_on_c, 1, 57, 60
3, 8879, Note_on_c, 1, 57, 0
3, 8880, Note_on_c, 1, 69, 60
3, 9000, Note_on_c, 1, 57, 60
3, 9119, Note_on_c, 1, 69, 0
3, 9119, Note_on_c, 1, 57, 0
3, 9240, Note_on_c, 1, 69, 60
3, 9479, Note_on_c, 1, 69, 0
3, 9480, Note_on_c, 1, 67, 60
3, 9599, Note_on_c, 1, 67, 0
3, 9720, Note_on_c, 1, 57, 60
3, 9839, Note_on_c, 1, 57, 0
3, 9840, Note_on_c, 1, 67, 60
3, 10079, Note_on_c, 1, 67, 0
3, 10080, Note_on_c, 1, 57, 60
3, 10199, Note_on_c, 1, 57, 0
3, 10200, Note_on_c, 1, 67, 60
3, 10439, Note_on_c, 1, 67, 0
3, 10440, Note_on_c, 1, 65, 60
3, 10559, Note_on_c, 1, 65, 0
3, 10680, Note_on_c, 1, 57, 60
3, 10799, Note_on_c, 1, 57, 0
3, 10800, Note_on_c, 1, 65, 60
3, 10920, Note_on_c, 1, 57, 60
3, 11039, Note_on_c, 1, 65, 0
3, 11039, Note_on_c, 1, 57, 0
3, 11160, Note_on_c, 1, 65, 60
3, 11279, Note_on_c, 1, 65, 0
3, 11400, Note_on_c, 1, 64, 60
3, 11519, Note_on_c, 1, 64, 0
3, 11640, Note_on_c, 1, 57, 60
3, 11759, Note_on_c, 1, 57, 0
3, 11760, Note_on_c, 1, 64, 60
3, 11999, Note_on_c, 1, 64, 0
3, 12000, Note_on_c, 1, 57, 60
3, 12119, Note_on_c, 1, 57, 0
3, 12120, Note_on_c, 1, 65, 60
3, 12479, Note_on_c, 1, 65, 0
3, 12600, Note_on_c, 1, 57, 60
3, 12719, Note_on_c, 1, 57, 0
3, 12720, Note_on_c, 1, 64, 60
3, 12959, Note_on_c, 1, 64, 0
3, 12960, Note_on_c, 1, 57, 60
3, 13079, Note_on_c, 1, 57, 0
3, 13080, Note_on_c, 1, 64, 60
3, 13439, Note_on_c, 1, 64, 0
3, 13560, Note_on_c, 1, 57, 60
3, 13679, Note_on_c, 1, 57, 0
3, 13680, Note_on_c, 1, 64, 60
3, 13919, Note_on_c, 1, 64, 0
3, 13920, Note_on_c, 1, 57, 60
3, 14039, Note_on_c, 1, 57, 0
3, 14040, Note_on_c, 1, 64, 60
3, 14399, Note_on_c, 1, 64, 0
3, 14520, Note_on_c, 1, 57, 60
3, 14639, Note_on_c, 1, 57, 0
3, 14640, Note_on_c, 1, 64, 60
3, 14879, Note_on_c, 1, 64, 0
3, 14880, Note_on_c, 1, 57, 60
3, 14999, Note_on_c, 1, 57, 0
3, 15000, Note_on_c, 1, 64, 60
3, 15359, Note_on_c, 1, 64, 0
3, 15480, Note_on_c, 1, 57, 60
3, 15599, Note_on_c, 1, 57, 0
3, 15600, Note_on_c, 1, 69, 60
3, 15839, Note_on_c, 1, 69, 0
3, 15840, Note_on_c, 1, 57, 60
3, 15959, Note_on_c, 1, 57, 0
3, 15960, Note_on_c, 1, 69, 60
3, 16199, Note_on_c, 1, 69, 0
3, 16200, Note_on_c, 1, 69, 60
3, 16319, Note_on_c, 1, 69, 0
3, 16320, Note_on_c, 1, 76, 60
3, 16320, Note_on_c, 1, 72, 60
3, 16320, Note_on_c, 1, 69, 60
3, 16559, Note_on_c, 1, 76, 0
3, 16559, Note_on_c, 1, 72, 0
3, 16559, Note_on_c, 1, 69, 0
3, 16560, Note_on_c, 1, 69, 60
3, 16560, Note_on_c, 1, 72, 60
3, 16560, Note_on_c, 1, 76, 60
3, 16679, Note_on_c, 1, 69, 0
3, 16679, Note_on_c, 1, 72, 0
3, 16679, Note_on_c, 1, 76, 0
3, 16680, Note_on_c, 1, 76, 60
3, 16680, Note_on_c, 1, 72, 60
3, 16680, Note_on_c, 1, 69, 60
3, 16799, Note_on_c, 1, 76, 0
3, 16799, Note_on_c, 1, 72, 0
3, 16799, Note_on_c, 1, 69, 0
3, 16800, Note_on_c, 1, 69, 60
3, 16800, Note_on_c, 1, 72, 60
3, 16800, Note_on_c, 1, 76, 60
3, 16919, Note_on_c, 1, 69, 0
3, 16919, Note_on_c, 1, 72, 0
3, 16919, Note_on_c, 1, 76, 0
3, 16920, Note_on_c, 1, 69, 60
3, 16920, Note_on_c, 1, 72, 60
3, 16920, Note_on_c, 1, 76, 60
3, 17159, Note_on_c, 1, 69, 0
3, 17159, Note_on_c, 1, 72, 0
3, 17159, Note_on_c, 1, 76, 0
3, 17220, Note_on_c, 1, 69, 60
3, 17220, Note_on_c, 1, 74, 60
3, 17220, Note_on_c, 1, 77, 60
3, 17459, Note_on_c, 1, 69, 0
3, 17459, Note_on_c, 1, 74, 0
3, 17459, Note_on_c, 1, 77, 0
3, 17520, Note_on_c, 1, 69, 60
3, 17520, Note_on_c, 1, 74, 60
3, 17520, Note_on_c, 1, 76, 60
3, 17639, Note_on_c, 1, 69, 0
3, 17639, Note_on_c, 1, 74, 0
3, 17639, Note_on_c, 1, 76, 0
3, 17640, Note_on_c, 1, 69, 60
3, 17640, Note_on_c, 1, 76, 60
3, 17640, Note_on_c, 1, 74, 60
3, 17759, Note_on_c, 1, 69, 0
3, 17759, Note_on_c, 1, 76, 0
3, 17759, Note_on_c, 1, 74, 0
3, 17760, Note_on_c, 1, 69, 60
3, 17760, Note_on_c, 1, 74, 60
3, 17760, Note_on_c, 1, 76, 60
3, 18120, Note_on_c, 1, 65, 60
3, 18179, Note_on_c, 1, 69, 0
3, 18179, Note_on_c, 1, 74, 0
3, 18179, Note_on_c, 1, 76, 0
3, 18239, Note_on_c, 1, 65, 0
3, 18360, Note_on_c, 1, 53, 60
3, 18479, Note_on_c, 1, 53, 0
3, 18480, Note_on_c, 1, 65, 60
3, 18719, Note_on_c, 1, 65, 0
3, 18720, Note_on_c, 1, 53, 60
3, 18839, Note_on_c, 1, 53, 0
3, 18840, Note_on_c, 1, 65, 60
3, 19079, Note_on_c, 1, 65, 0
3, 19080, Note_on_c, 1, 64, 60
3, 19199, Note_on_c, 1, 64, 0
3, 19320, Note_on_c, 1, 53, 60
3, 19439, Note_on_c, 1, 53, 0
3, 19440, Note_on_c, 1, 69, 60
3, 19679, Note_on_c, 1, 69, 0
3, 19680, Note_on_c, 1, 53, 60
3, 19799, Note_on_c, 1, 53, 0
3, 19800, Note_on_c, 1, 69, 60
3, 19919, Note_on_c, 1, 69, 0
3, 19920, Note_on_c, 1, 64, 60
3, 19920, Note_on_c, 1, 69, 60
3, 19920, Note_on_c, 1, 72, 60
3, 20039, Note_on_c, 1, 64, 0
3, 20039, Note_on_c, 1, 69, 0
3, 20039, Note_on_c, 1, 72, 0
3, 20040, Note_on_c, 1, 64, 60
3, 20040, Note_on_c, 1, 72, 60
3, 20040, Note_on_c, 1, 69, 60
3, 20159, Note_on_c, 1, 64, 0
3, 20159, Note_on_c, 1, 72, 0
3, 20159, Note_on_c, 1, 69, 0
3, 20160, Note_on_c, 1, 64, 60
3, 20160, Note_on_c, 1, 69, 60
3, 20160, Note_on_c, 1, 72, 60
3, 20399, Note_on_c, 1, 64, 0
3, 20399, Note_on_c, 1, 69, 0
3, 20399, Note_on_c, 1, 72, 0
3, 20400, Note_on_c, 1, 72, 60
3, 20400, Note_on_c, 1, 69, 60
3, 20400, Note_on_c, 1, 64, 60
3, 20519, Note_on_c, 1, 72, 0
3, 20519, Note_on_c, 1, 69, 0
3, 20519, Note_on_c, 1, 64, 0
3, 20520, Note_on_c, 1, 74, 60
3, 20520, Note_on_c, 1, 69, 60
3, 20520, Note_on_c, 1, 64, 60
3, 20639, Note_on_c, 1, 74, 0
3, 20639, Note_on_c, 1, 69, 0
3, 20639, Note_on_c, 1, 64, 0
3, 20640, Note_on_c, 1, 64, 60
3, 20640, Note_on_c, 1, 69, 60
3, 20640, Note_on_c, 1, 74, 60
3, 20759, Note_on_c, 1, 64, 0
3, 20759, Note_on_c, 1, 69, 0
3, 20759, Note_on_c, 1, 74, 0
3, 20760, Note_on_c, 1, 72, 60
3, 20879, Note_on_c, 1, 72, 0
3, 20880, Note_on_c, 1, 64, 60
3, 20880, Note_on_c, 1, 69, 60
3, 20880, Note_on_c, 1, 74, 60
3, 21119, Note_on_c, 1, 64, 0
3, 21119, Note_on_c, 1, 69, 0
3, 21119, Note_on_c, 1, 74, 0
3, 21120, Note_on_c, 1, 62, 60
3, 21120, Note_on_c, 1, 65, 60
3, 21120, Note_on_c, 1, 71, 60
3, 21359, Note_on_c, 1, 62, 0
3, 21359, Note_on_c, 1, 65, 0
3, 21359, Note_on_c, 1, 71, 0
3, 21360, Note_on_c, 1, 64, 60
3, 21599, Note_on_c, 1, 64, 0
3, 21600, Note_on_c, 1, 53, 60
3, 21719, Note_on_c, 1, 53, 0
3, 21720, Note_on_c, 1, 64, 60
3, 22079, Note_on_c, 1, 64, 0
3, 22200, Note_on_c, 1, 53, 60
3, 22319, Note_on_c, 1, 53, 0
3, 22320, Note_on_c, 1, 64, 60
3, 22559, Note_on_c, 1, 64, 0
3, 22560, Note_on_c, 1, 53, 60
3, 22679, Note_on_c, 1, 53, 0
3, 22680, Note_on_c, 1, 64, 60
3, 23039, Note_on_c, 1, 64, 0
3, 23160, Note_on_c, 1, 53, 60
3, 23279, Note_on_c, 1, 53, 0
3, 23280, Note_on_c, 1, 69, 60
3, 23519, Note_on_c, 1, 69, 0
3, 23520, Note_on_c, 1, 53, 60
3, 23639, Note_on_c, 1, 53, 0
3, 23640, Note_on_c, 1, 69, 60
3, 23879, Note_on_c, 1, 69, 0
3, 23880, Note_on_c, 1, 69, 60
3, 23999, Note_on_c, 1, 69, 0
3, 24000, Note_on_c, 1, 76, 60
3, 24000, Note_on_c, 1, 72, 60
3, 24000, Note_on_c, 1, 69, 60
3, 24239, Note_on_c, 1, 76, 0
3, 24239, Note_on_c, 1, 72, 0
3, 24239, Note_on_c, 1, 69, 0
3, 24240, Note_on_c, 1, 69, 60
3, 24240, Note_on_c, 1, 72, 60
3, 24240, Note_on_c, 1, 76, 60
3, 24359, Note_on_c, 1, 69, 0
3, 24359, Note_on_c, 1, 72, 0
3, 24359, Note_on_c, 1, 76, 0
3, 24360, Note_on_c, 1, 76, 60
3, 24360, Note_on_c, 1, 72, 60
3, 24360, Note_on_c, 1, 69, 60
3, 24480, Note_on_c, 1, 76, 60
3, 24480, Note_on_c, 1, 72, 60
3, 24480, Note_on_c, 1, 69, 60
3, 24579, Note_on_c, 1, 76, 0
3, 24579, Note_on_c, 1, 72, 0
3, 24579, Note_on_c, 1, 69, 0
3, 24599, Note_on_c, 1, 76, 0
3, 24599, Note_on_c, 1, 72, 0
3, 24599, Note_on_c, 1, 69, 0
3, 24600, Note_on_c, 1, 76, 60
3, 24600, Note_on_c, 1, 72, 60
3, 24600, Note_on_c, 1, 69, 60
3, 24839, Note_on_c, 1, 76, 0
3, 24839, Note_on_c, 1, 72, 0
3, 24839, Note_on_c, 1, 69, 0
3, 24840, Note_on_c, 1, 69, 60
3, 24840, Note_on_c, 1, 74, 60
3, 24840, Note_on_c, 1, 77, 60
3, 25079, Note_on_c, 1, 69, 0
3, 25079, Note_on_c, 1, 74, 0
3, 25079, Note_on_c, 1, 77, 0
3, 25200, Note_on_c, 1, 76, 60
3, 25319, Note_on_c, 1, 76, 0
3, 25320, Note_on_c, 1, 76, 60
3, 25320, Note_on_c, 1, 69, 60
3, 25320, Note_on_c, 1, 65, 60
3, 25439, Note_on_c, 1, 76, 0
3, 25439, Note_on_c, 1, 69, 0
3, 25439, Note_on_c, 1, 65, 0
3, 25440, Note_on_c, 1, 65, 60
3, 25440, Note_on_c, 1, 69, 60
3, 25440, Note_on_c, 1, 76, 60
3, 25559, Note_on_c, 1, 65, 0
3, 25559, Note_on_c, 1, 69, 0
3, 25559, Note_on_c, 1, 76, 0
3, 25560, Note_on_c, 1, 67, 60
3, 25679, Note_on_c, 1, 67, 0
3, 25800, Note_on_c, 1, 65, 60
3, 25919, Note_on_c, 1, 65, 0
3, 26040, Note_on_c, 1, 53, 60
3, 26159, Note_on_c, 1, 53, 0
3, 26160, Note_on_c, 1, 65, 60
3, 26399, Note_on_c, 1, 65, 0
3, 26400, Note_on_c, 1, 53, 60
3, 26519, Note_on_c, 1, 53, 0
3, 26520, Note_on_c, 1, 65, 60
3, 26759, Note_on_c, 1, 65, 0
3, 26760, Note_on_c, 1, 64, 60
3, 26879, Note_on_c, 1, 64, 0
3, 27000, Note_on_c, 1, 57, 60
3, 27119, Note_on_c, 1, 57, 0
3, 27120, Note_on_c, 1, 64, 60
3, 27359, Note_on_c, 1, 64, 0
3, 27360, Note_on_c, 1, 57, 60
3, 27479, Note_on_c, 1, 57, 0
3, 27480, Note_on_c, 1, 64, 60
3, 27719, Note_on_c, 1, 64, 0
3, 27720, Note_on_c, 1, 72, 60
3, 27839, Note_on_c, 1, 72, 0
3, 27840, Note_on_c, 1, 64, 60
3, 27840, Note_on_c, 1, 69, 60
3, 27840, Note_on_c, 1, 72, 60
3, 27959, Note_on_c, 1, 64, 0
3, 27959, Note_on_c, 1, 69, 0
3, 27959, Note_on_c, 1, 72, 0
3, 27960, Note_on_c, 1, 64, 60
3, 27960, Note_on_c, 1, 69, 60
3, 27960, Note_on_c, 1, 72, 60
3, 28199, Note_on_c, 1, 64, 0
3, 28199, Note_on_c, 1, 69, 0
3, 28199, Note_on_c, 1, 72, 0
3, 28200, Note_on_c, 1, 76, 60
3, 28200, Note_on_c, 1, 69, 60
3, 28200, Note_on_c, 1, 64, 60
3, 28259, Note_on_c, 1, 76, 0
3, 28259, Note_on_c, 1, 69, 0
3, 28259, Note_on_c, 1, 64, 0
3, 28320, Note_on_c, 1, 76, 60
3, 28320, Note_on_c, 1, 69, 60
3, 28320, Note_on_c, 1, 64, 60
3, 28379, Note_on_c, 1, 76, 0
3, 28379, Note_on_c, 1, 69, 0
3, 28379, Note_on_c, 1, 64, 0
3, 28440, Note_on_c, 1, 72, 60
3, 28440, Note_on_c, 1, 64, 60
3, 28499, Note_on_c, 1, 72, 0
3, 28499, Note_on_c, 1, 64, 0
3, 28680, Note_on_c, 1, 62, 60
3, 28680, Note_on_c, 1, 65, 60
3, 28680, Note_on_c, 1, 71, 60
3, 28859, Note_on_c, 1, 62, 0
3, 28859, Note_on_c, 1, 65, 0
3, 28859, Note_on_c, 1, 71, 0
3, 28920, Note_on_c, 1, 62, 60
3, 28920, Note_on_c, 1, 65, 60
3, 28920, Note_on_c, 1, 71, 60
3, 29279, Note_on_c, 1, 62, 0
3, 29279, Note_on_c, 1, 65, 0
3, 29279, Note_on_c, 1, 71, 0
3, 29280, Note_on_c, 1, 53, 60
3, 29399, Note_on_c, 1, 53, 0
3, 29400, Note_on_c, 1, 64, 60
3, 29759, Note_on_c, 1, 64, 0
3, 29880, Note_on_c, 1, 53, 60
3, 29999, Note_on_c, 1, 53, 0
3, 30000, Note_on_c, 1, 64, 60
3, 30239, Note_on_c, 1, 64, 0
3, 30240, Note_on_c, 1, 53, 60
3, 30359, Note_on_c, 1, 53, 0
3, 30360, Note_on_c, 1, 64, 60
3, 30719, Note_on_c, 1, 64, 0
3, 30840, Note_on_c, 1, 57, 60
3, 30959, Note_on_c, 1, 57, 0
3, 30960, Note_on_c, 1, 60, 60
3, 31199, Note_on_c, 1, 60, 0
3, 31200, Note_on_c, 1, 57, 60
3, 31319, Note_on_c, 1, 57, 0
3, 31320, Note_on_c, 1, 59, 60
3, 31560, Note_on_c, 1, 60, 60
3, 31679, Note_on_c, 1, 59, 0
3, 31799, Note_on_c, 1, 60, 0
3, 31920, Note_on_c, 1, 64, 60
3, 31920, Note_on_c, 1, 72, 60
3, 32039, Note_on_c, 1, 64, 0
3, 32039, Note_on_c, 1, 72, 0
3, 32040, Note_on_c, 1, 71, 60
3, 32040, Note_on_c, 1, 62, 60
3, 32159, Note_on_c, 1, 71, 0
3, 32159, Note_on_c, 1, 62, 0
3, 32160, Note_on_c, 1, 62, 60
3, 32160, Note_on_c, 1, 71, 60
3, 32279, Note_on_c, 1, 62, 0
3, 32279, Note_on_c, 1, 71, 0
3, 32280, Note_on_c, 1, 60, 60
3, 32280, Note_on_c, 1, 69, 60
3, 32639, Note_on_c, 1, 60, 0
3, 32639, Note_on_c, 1, 69, 0
3, 32640, Note_on_c, 1, 62, 60
3, 32640, Note_on_c, 1, 65, 60
3, 32759, Note_on_c, 1, 62, 0
3, 32759, Note_on_c, 1, 65, 0
3, 32760, Note_on_c, 1, 53, 60
3, 32879, Note_on_c, 1, 53, 0
3, 32880, Note_on_c, 1, 60, 60
3, 33119, Note_on_c, 1, 60, 0
3, 33120, Note_on_c, 1, 53, 60
3, 33239, Note_on_c, 1, 53, 0
3, 33240, Note_on_c, 1, 59, 60
3, 33599, Note_on_c, 1, 59, 0
3, 33600, Note_on_c, 1, 65, 60
3, 33600, Note_on_c, 1, 62, 60
3, 33600, Note_on_c, 1, 57, 60
3, 33839, Note_on_c, 1, 65, 0
3, 33839, Note_on_c, 1, 62, 0
3, 33839, Note_on_c, 1, 57, 0
3, 33840, Note_on_c, 1, 64, 60
3, 33840, Note_on_c, 1, 59, 60
3, 33840, Note_on_c, 1, 55, 60
3, 33959, Note_on_c, 1, 64, 0
3, 33959, Note_on_c, 1, 59, 0
3, 33959, Note_on_c, 1, 55, 0
3, 33960, Note_on_c, 1, 64, 60
3, 33960, Note_on_c, 1, 59, 60
3, 33960, Note_on_c, 1, 55, 60
3, 34079, Note_on_c, 1, 64, 0
3, 34079, Note_on_c, 1, 59, 0
3, 34079, Note_on_c, 1, 55, 0
3, 34080, Note_on_c, 1, 64, 60
3, 34080, Note_on_c, 1, 59, 60
3, 34080, Note_on_c, 1, 55, 60
3, 34199, Note_on_c, 1, 64, 0
3, 34199, Note_on_c, 1, 59, 0
3, 34199, Note_on_c, 1, 55, 0
3, 34200, Note_on_c, 1, 64, 60
3, 34200, Note_on_c, 1, 60, 60
3, 34200, Note_on_c, 1, 57, 60
3, 34559, Note_on_c, 1, 64, 0
3, 34559, Note_on_c, 1, 60, 0
3, 34559, Note_on_c, 1, 57, 0
3, 34680, Note_on_c, 1, 57, 60
3, 34799, Note_on_c, 1, 57, 0
3, 34800, Note_on_c, 1, 60, 60
3, 35039, Note_on_c, 1, 60, 0
3, 35040, Note_on_c, 1, 57, 60
3, 35159, Note_on_c, 1, 57, 0
3, 35160, Note_on_c, 1, 60, 60
3, 35399, Note_on_c, 1, 60, 0
3, 35400, Note_on_c, 1, 60, 60
3, 35639, Note_on_c, 1, 60, 0
3, 35760, Note_on_c, 1, 64, 60
3, 35760, Note_on_c, 1, 69, 60
3, 35760, Note_on_c, 1, 72, 60
3, 35880, Note_on_c, 1, 64, 60
3, 35880, Note_on_c, 1, 69, 60
3, 35880, Note_on_c, 1, 72, 60
3, 35999, Note_on_c, 1, 64, 0
3, 35999, Note_on_c, 1, 69, 0
3, 35999, Note_on_c, 1, 72, 0
3, 35999, Note_on_c, 1, 64, 0
3, 35999, Note_on_c, 1, 69, 0
3, 35999, Note_on_c, 1, 72, 0
3, 36120, Note_on_c, 1, 76, 60
3, 36120, Note_on_c, 1, 72, 60
3, 36120, Note_on_c, 1, 69, 60
3, 36479, Note_on_c, 1, 76, 0
3, 36479, Note_on_c, 1, 72, 0
3, 36479, Note_on_c, 1, 69, 0
3, 36480, Note_on_c, 1, 77, 60
3, 36480, Note_on_c, 1, 74, 60
3, 36480, Note_on_c, 1, 69, 60
3, 36599, Note_on_c, 1, 77, 0
3, 36599, Note_on_c, 1, 74, 0
3, 36599, Note_on_c, 1, 69, 0
3, 36600, Note_on_c, 1, 65, 60
3, 36719, Note_on_c, 1, 65, 0
3, 36720, Note_on_c, 1, 72, 60
3, 36959, Note_on_c, 1, 72, 0
3, 36960, Note_on_c, 1, 65, 60
3, 37079, Note_on_c, 1, 65, 0
3, 37080, Note_on_c, 1, 74, 60
3, 37439, Note_on_c, 1, 74, 0
3, 37440, Note_on_c, 1, 77, 60
3, 37440, Note_on_c, 1, 74, 60
3, 37440, Note_on_c, 1, 69, 60
3, 37679, Note_on_c, 1, 77, 0
3, 37679, Note_on_c, 1, 74, 0
3, 37679, Note_on_c, 1, 69, 0
3, 37680, Note_on_c, 1, 76, 60
3, 37680, Note_on_c, 1, 71, 60
3, 37680, Note_on_c, 1, 67, 60
3, 37799, Note_on_c, 1, 76, 0
3, 37799, Note_on_c, 1, 71, 0
3, 37799, Note_on_c, 1, 67, 0
3, 37800, Note_on_c, 1, 64, 60
3, 37800, Note_on_c, 1, 67, 60
3, 37800, Note_on_c, 1, 71, 60
3, 37919, Note_on_c, 1, 64, 0
3, 37919, Note_on_c, 1, 67, 0
3, 37919, Note_on_c, 1, 71, 0
3, 37920, Note_on_c, 1, 64, 60
3, 37920, Note_on_c, 1, 67, 60
3, 37920, Note_on_c, 1, 71, 60
3, 38039, Note_on_c, 1, 64, 0
3, 38039, Note_on_c, 1, 67, 0
3, 38039, Note_on_c, 1, 71, 0
3, 38040, Note_on_c, 1, 64, 60
3, 38040, Note_on_c, 1, 69, 60
3, 38040, Note_on_c, 1, 72, 60
3, 38399, Note_on_c, 1, 64, 0
3, 38399, Note_on_c, 1, 69, 0
3, 38399, Note_on_c, 1, 72, 0
3, 38520, Note_on_c, 1, 57, 60
3, 38639, Note_on_c, 1, 57, 0
3, 38640, Note_on_c, 1, 60, 60
3, 38879, Note_on_c, 1, 60, 0
3, 38880, Note_on_c, 1, 57, 60
3, 38999, Note_on_c, 1, 57, 0
3, 39000, Note_on_c, 1, 59, 60
3, 39239, Note_on_c, 1, 59, 0
3, 39240, Note_on_c, 1, 60, 60
3, 39419, Note_on_c, 1, 60, 0
3, 39600, Note_on_c, 1, 64, 60
3, 39600, Note_on_c, 1, 72, 60
3, 39719, Note_on_c, 1, 64, 0
3, 39719, Note_on_c, 1, 72, 0
3, 39720, Note_on_c, 1, 62, 60
3, 39720, Note_on_c, 1, 71, 60
3, 39839, Note_on_c, 1, 62, 0
3, 39839, Note_on_c, 1, 71, 0
3, 39840, Note_on_c, 1, 62, 60
3, 39840, Note_on_c, 1, 71, 60
3, 39959, Note_on_c, 1, 62, 0
3, 39959, Note_on_c, 1, 71, 0
3, 39960, Note_on_c, 1, 60, 60
3, 39960, Note_on_c, 1, 69, 60
3, 40319, Note_on_c, 1, 60, 0
3, 40319, Note_on_c, 1, 69, 0
3, 40320, Note_on_c, 1, 65, 60
3, 40320, Note_on_c, 1, 62, 60
3, 40439, Note_on_c, 1, 65, 0
3, 40439, Note_on_c, 1, 62, 0
3, 40440, Note_on_c, 1, 53, 60
3, 40559, Note_on_c, 1, 53, 0
3, 40560, Note_on_c, 1, 60, 60
3, 40799, Note_on_c, 1, 60, 0
3, 40800, Note_on_c, 1, 53, 60
3, 40919, Note_on_c, 1, 53, 0
3, 40920, Note_on_c, 1, 59, 60
3, 41279, Note_on_c, 1, 59, 0
3, 41280, Note_on_c, 1, 65, 60
3, 41280, Note_on_c, 1, 62, 60
3, 41280, Note_on_c, 1, 57, 60
3, 41519, Note_on_c, 1, 65, 0
3, 41519, Note_on_c, 1, 62, 0
3, 41519, Note_on_c, 1, 57, 0
3, 41520, Note_on_c, 1, 64, 60
3, 41520, Note_on_c, 1, 59, 60
3, 41520, Note_on_c, 1, 55, 60
3, 41639, Note_on_c, 1, 64, 0
3, 41639, Note_on_c, 1, 59, 0
3, 41639, Note_on_c, 1, 55, 0
3, 41640, Note_on_c, 1, 55, 60
3, 41640, Note_on_c, 1, 59, 60
3, 41640, Note_on_c, 1, 64, 60
3, 41759, Note_on_c, 1, 55, 0
3, 41759, Note_on_c, 1, 59, 0
3, 41759, Note_on_c, 1, 64, 0
3, 41760, Note_on_c, 1, 64, 60
3, 41760, Note_on_c, 1, 59, 60
3, 41760, Note_on_c, 1, 55, 60
3, 41879, Note_on_c, 1, 64, 0
3, 41879, Note_on_c, 1, 59, 0
3, 41879, Note_on_c, 1, 55, 0
3, 41880, Note_on_c, 1, 64, 60
3, 41880, Note_on_c, 1, 69, 60
3, 41880, Note_on_c, 1, 72, 60
3, 42249, Note_on_c, 1, 64, 0
3, 42249, Note_on_c, 1, 69, 0
3, 42249, Note_on_c, 1, 72, 0
3, 42360, Note_on_c, 1, 57, 60
3, 42479, Note_on_c, 1, 57, 0
3, 42480, Note_on_c, 1, 64, 60
3, 42719, Note_on_c, 1, 64, 0
3, 42720, Note_on_c, 1, 57, 60
3, 42839, Note_on_c, 1, 57, 0
3, 42840, Note_on_c, 1, 64, 60
3, 43209, Note_on_c, 1, 64, 0
3, 43320, Note_on_c, 1, 57, 60
3, 43439, Note_on_c, 1, 57, 0
3, 43440, Note_on_c, 1, 64, 60
3, 43679, Note_on_c, 1, 64, 0
3, 43680, Note_on_c, 1, 57, 60
3, 43799, Note_on_c, 1, 57, 0
3, 43800, Note_on_c, 1, 64, 60
3, 44169, Note_on_c, 1, 64, 0
3, 44280, Note_on_c, 1, 57, 60
3, 44399, Note_on_c, 1, 57, 0
3, 44400, Note_on_c, 1, 64, 60
3, 44639, Note_on_c, 1, 64, 0
3, 44640, Note_on_c, 1, 57, 60
3, 44759, Note_on_c, 1, 57, 0
3, 44760, Note_on_c, 1, 64, 60
3, 45129, Note_on_c, 1, 64, 0
3, 45240, Note_on_c, 1, 55, 60
3, 45359, Note_on_c, 1, 55, 0
3, 45360, Note_on_c, 1, 64, 60
3, 45599, Note_on_c, 1, 64, 0
3, 45600, Note_on_c, 1, 55, 60
3, 45719, Note_on_c, 1, 55, 0
3, 45720, Note_on_c, 1, 64, 60
3, 46089, Note_on_c, 1, 64, 0
3, 46200, Note_on_c, 1, 57, 60
3, 46319, Note_on_c, 1, 57, 0
3, 46320, Note_on_c, 1, 69, 60
3, 46559, Note_on_c, 1, 69, 0
3, 46560, Note_on_c, 1, 57, 60
3, 46679, Note_on_c, 1, 57, 0
3, 46680, Note_on_c, 1, 69, 60
3, 46919, Note_on_c, 1, 69, 0
3, 46920, Note_on_c, 1, 69, 60
3, 47039, Note_on_c, 1, 69, 0
3, 47040, Note_on_c, 1, 76, 60
3, 47040, Note_on_c, 1, 72, 60
3, 47040, Note_on_c, 1, 69, 60
3, 47279, Note_on_c, 1, 76, 0
3, 47279, Note_on_c, 1, 72, 0
3, 47279, Note_on_c, 1, 69, 0
3, 47280, Note_on_c, 1, 69, 60
3, 47280, Note_on_c, 1, 72, 60
3, 47280, Note_on_c, 1, 76, 60
3, 47399, Note_on_c, 1, 69, 0
3, 47399, Note_on_c, 1, 72, 0
3, 47399, Note_on_c, 1, 76, 0
3, 47400, Note_on_c, 1, 76, 60
3, 47400, Note_on_c, 1, 72, 60
3, 47400, Note_on_c, 1, 69, 60
3, 47519, Note_on_c, 1, 76, 0
3, 47519, Note_on_c, 1, 72, 0
3, 47519, Note_on_c, 1, 69, 0
3, 47520, Note_on_c, 1, 69, 60
3, 47520, Note_on_c, 1, 72, 60
3, 47520, Note_on_c, 1, 76, 60
3, 47639, Note_on_c, 1, 69, 0
3, 47639, Note_on_c, 1, 72, 0
3, 47639, Note_on_c, 1, 76, 0
3, 47640, Note_on_c, 1, 69, 60
3, 47640, Note_on_c, 1, 72, 60
3, 47640, Note_on_c, 1, 76, 60
3, 47879, Note_on_c, 1, 69, 0
3, 47879, Note_on_c, 1, 72, 0
3, 47879, Note_on_c, 1, 76, 0
3, 47940, Note_on_c, 1, 69, 60
3, 47940, Note_on_c, 1, 74, 60
3, 47940, Note_on_c, 1, 77, 60
3, 48179, Note_on_c, 1, 69, 0
3, 48179, Note_on_c, 1, 74, 0
3, 48179, Note_on_c, 1, 77, 0
3, 48240, Note_on_c, 1, 69, 60
3, 48240, Note_on_c, 1, 74, 60
3, 48240, Note_on_c, 1, 76, 60
3, 48359, Note_on_c, 1, 69, 0
3, 48359, Note_on_c, 1, 74, 0
3, 48359, Note_on_c, 1, 76, 0
3, 48360, Note_on_c, 1, 69, 60
3, 48360, Note_on_c, 1, 76, 60
3, 48360, Note_on_c, 1, 74, 60
3, 48479, Note_on_c, 1, 69, 0
3, 48479, Note_on_c, 1, 76, 0
3, 48479, Note_on_c, 1, 74, 0
3, 48480, Note_on_c, 1, 69, 60
3, 48480, Note_on_c, 1, 74, 60
3, 48480, Note_on_c, 1, 76, 60
3, 48840, Note_on_c, 1, 65, 60
3, 48899, Note_on_c, 1, 69, 0
3, 48899, Note_on_c, 1, 74, 0
3, 48899, Note_on_c, 1, 76, 0
3, 48959, Note_on_c, 1, 65, 0
3, 49080, Note_on_c, 1, 53, 60
3, 49199, Note_on_c, 1, 53, 0
3, 49200, Note_on_c, 1, 65, 60
3, 49439, Note_on_c, 1, 65, 0
3, 49440, Note_on_c, 1, 53, 60
3, 49559, Note_on_c, 1, 53, 0
3, 49560, Note_on_c, 1, 65, 60
3, 49799, Note_on_c, 1, 65, 0
3, 49800, Note_on_c, 1, 64, 60
3, 49919, Note_on_c, 1, 64, 0
3, 50040, Note_on_c, 1, 53, 60
3, 50159, Note_on_c, 1, 53, 0
3, 50160, Note_on_c, 1, 69, 60
3, 50399, Note_on_c, 1, 69, 0
3, 50400, Note_on_c, 1, 53, 60
3, 50519, Note_on_c, 1, 53, 0
3, 50520, Note_on_c, 1, 69, 60
3, 50639, Note_on_c, 1, 69, 0
3, 50640, Note_on_c, 1, 64, 60
3, 50640, Note_on_c, 1, 69, 60
3, 50640, Note_on_c, 1, 72, 60
3, 50759, Note_on_c, 1, 64, 0
3, 50759, Note_on_c, 1, 69, 0
3, 50759, Note_on_c, 1, 72, 0
3, 50760, Note_on_c, 1, 64, 60
3, 50760, Note_on_c, 1, 72, 60
3, 50760, Note_on_c, 1, 69, 60
3, 50879, Note_on_c, 1, 64, 0
3, 50879, Note_on_c, 1, 72, 0
3, 50879, Note_on_c, 1, 69, 0
3, 50880, Note_on_c, 1, 64, 60
3, 50880, Note_on_c, 1, 69, 60
3, 50880, Note_on_c, 1, 72, 60
3, 51119, Note_on_c, 1, 64, 0
3, 51119, Note_on_c, 1, 69, 0
3, 51119, Note_on_c, 1, 72, 0
3, 51120, Note_on_c, 1, 72, 60
3, 51120, Note_on_c, 1, 69, 60
3, 51120, Note_on_c, 1, 64, 60
3, 51239, Note_on_c, 1, 72, 0
3, 51239, Note_on_c, 1, 69, 0
3, 51239, Note_on_c, 1, 64, 0
3, 51240, Note_on_c, 1, 74, 60
3, 51240, Note_on_c, 1, 69, 60
3, 51240, Note_on_c, 1, 64, 60
3, 51359, Note_on_c, 1, 74, 0
3, 51359, Note_on_c, 1, 69, 0
3, 51359, Note_on_c, 1, 64, 0
3, 51360, Note_on_c, 1, 64, 60
3, 51360, Note_on_c, 1, 69, 60
3, 51360, Note_on_c, 1, 74, 60
3, 51479, Note_on_c, 1, 64, 0
3, 51479, Note_on_c, 1, 69, 0
3, 51479, Note_on_c, 1, 74, 0
3, 51480, Note_on_c, 1, 72, 60
3, 51599, Note_on_c, 1, 72, 0
3, 51600, Note_on_c, 1, 64, 60
3, 51600, Note_on_c, 1, 69, 60
3, 51600, Note_on_c, 1, 74, 60
3, 51839, Note_on_c, 1, 64, 0
3, 51839, Note_on_c, 1, 69, 0
3, 51839, Note_on_c, 1, 74, 0
3, 51840, Note_on_c, 1, 62, 60
3, 51840, Note_on_c, 1, 65, 60
3, 51840, Note_on_c, 1, 71, 60
3, 52079, Note_on_c, 1, 62, 0
3, 52079, Note_on_c, 1, 65, 0
3, 52079, Note_on_c, 1, 71, 0
3, 52080, Note_on_c, 1, 64, 60
3, 52319, Note_on_c, 1, 64, 0
3, 52320, Note_on_c, 1, 53, 60
3, 52439, Note_on_c, 1, 53, 0
3, 52440, Note_on_c, 1, 64, 60
3, 52799, Note_on_c, 1, 64, 0
3, 52920, Note_on_c, 1, 53, 60
3, 53039, Note_on_c, 1, 53, 0
3, 53040, Note_on_c, 1, 64, 60
3, 53279, Note_on_c, 1, 64, 0
3, 53280, Note_on_c, 1, 53, 60
3, 53399, Note_on_c, 1, 53, 0
3, 53400, Note_on_c, 1, 64, 60
3, 53759, Note_on_c, 1, 64, 0
3, 53880, Note_on_c, 1, 53, 60
3, 53999, Note_on_c, 1, 53, 0
3, 54000, Note_on_c, 1, 69, 60
3, 54239, Note_on_c, 1, 69, 0
3, 54240, Note_on_c, 1, 53, 60
3, 54359, Note_on_c, 1, 53, 0
3, 54360, Note_on_c, 1, 69, 60
3, 54599, Note_on_c, 1, 69, 0
3, 54600, Note_on_c, 1, 69, 60
3, 54719, Note_on_c, 1, 69, 0
3, 54720, Note_on_c, 1, 76, 60
3, 54720, Note_on_c, 1, 72, 60
3, 54720, Note_on_c, 1, 69, 60
3, 54959, Note_on_c, 1, 76, 0
3, 54959, Note_on_c, 1, 72, 0
3, 54959, Note_on_c, 1, 69, 0
3, 54960, Note_on_c, 1, 69, 60
3, 54960, Note_on_c, 1, 72, 60
3, 54960, Note_on_c, 1, 76, 60
3, 55079, Note_on_c, 1, 69, 0
3, 55079, Note_on_c, 1, 72, 0
3, 55079, Note_on_c, 1, 76, 0
3, 55080, Note_on_c, 1, 76, 60
3, 55080, Note_on_c, 1, 72, 60
3, 55080, Note_on_c, 1, 69, 60
3, 55200, Note_on_c, 1, 76, 60
3, 55200, Note_on_c, 1, 72, 60
3, 55200, Note_on_c, 1, 69, 60
3, 55299, Note_on_c, 1, 76, 0
3, 55299, Note_on_c, 1, 72, 0
3, 55299, Note_on_c, 1, 69, 0
3, 55299, Note_on_c, 1, 76, 0
3, 55299, Note_on_c, 1, 72, 0
3, 55299, Note_on_c, 1, 69, 0
3, 55320, Note_on_c, 1, 76, 60
3, 55320, Note_on_c, 1, 72, 60
3, 55320, Note_on_c, 1, 69, 60
3, 55559, Note_on_c, 1, 76, 0
3, 55559, Note_on_c, 1, 72, 0
3, 55559, Note_on_c, 1, 69, 0
3, 55560, Note_on_c, 1, 69, 60
3, 55560, Note_on_c, 1, 74, 60
3, 55560, Note_on_c, 1, 77, 60
3, 55799, Note_on_c, 1, 69, 0
3, 55799, Note_on_c, 1, 74, 0
3, 55799, Note_on_c, 1, 77, 0
3, 55920, Note_on_c, 1, 76, 60
3, 56039, Note_on_c, 1, 76, 0
3, 56040, Note_on_c, 1, 76, 60
3, 56040, Note_on_c, 1, 69, 60
3, 56040, Note_on_c, 1, 65, 60
3, 56159, Note_on_c, 1, 76, 0
3, 56159, Note_on_c, 1, 69, 0
3, 56159, Note_on_c, 1, 65, 0
3, 56160, Note_on_c, 1, 65, 60
3, 56160, Note_on_c, 1, 69, 60
3, 56160, Note_on_c, 1, 76, 60
3, 56279, Note_on_c, 1, 65, 0
3, 56279, Note_on_c, 1, 69, 0
3, 56279, Note_on_c, 1, 76, 0
3, 56280, Note_on_c, 1, 67, 60
3, 56399, Note_on_c, 1, 67, 0
3, 56520, Note_on_c, 1, 65, 60
3, 56639, Note_on_c, 1, 65, 0
3, 56760, Note_on_c, 1, 53, 60
3, 56879, Note_on_c, 1, 53, 0
3, 56880, Note_on_c, 1, 65, 60
3, 57119, Note_on_c, 1, 65, 0
3, 57120, Note_on_c, 1, 53, 60
3, 57239, Note_on_c, 1, 53, 0
3, 57240, Note_on_c, 1, 65, 60
3, 57479, Note_on_c, 1, 65, 0
3, 57480, Note_on_c, 1, 64, 60
3, 57599, Note_on_c, 1, 64, 0
3, 57720, Note_on_c, 1, 57, 60
3, 57839, Note_on_c, 1, 57, 0
3, 57840, Note_on_c, 1, 64, 60
3, 58079, Note_on_c, 1, 64, 0
3, 58080, Note_on_c, 1, 57, 60
3, 58199, Note_on_c, 1, 57, 0
3, 58200, Note_on_c, 1, 64, 60
3, 58439, Note_on_c, 1, 64, 0
3, 58440, Note_on_c, 1, 72, 60
3, 58559, Note_on_c, 1, 72, 0
3, 58560, Note_on_c, 1, 64, 60
3, 58560, Note_on_c, 1, 69, 60
3, 58560, Note_on_c, 1, 72, 60
3, 58679, Note_on_c, 1, 64, 0
3, 58679, Note_on_c, 1, 69, 0
3, 58679, Note_on_c, 1, 72, 0
3, 58680, Note_on_c, 1, 64, 60
3, 58680, Note_on_c, 1, 69, 60
3, 58680, Note_on_c, 1, 72, 60
3, 58919, Note_on_c, 1, 64, 0
3, 58919, Note_on_c, 1, 69, 0
3, 58919, Note_on_c, 1, 72, 0
3, 58920, Note_on_c, 1, 76, 60
3, 58920, Note_on_c, 1, 69, 60
3, 58920, Note_on_c, 1, 64, 60
3, 58979, Note_on_c, 1, 76, 0
3, 58979, Note_on_c, 1, 69, 0
3, 58979, Note_on_c, 1, 64, 0
3, 59040, Note_on_c, 1, 76, 60
3, 59040, Note_on_c, 1, 69, 60
3, 59040, Note_on_c, 1, 64, 60
3, 59099, Note_on_c, 1, 76, 0
3, 59099, Note_on_c, 1, 69, 0
3, 59099, Note_on_c, 1, 64, 0
3, 59160, Note_on_c, 1, 72, 60
3, 59160, Note_on_c, 1, 64, 60
3, 59219, Note_on_c, 1, 72, 0
3, 59219, Note_on_c, 1, 64, 0
3, 59400, Note_on_c, 1, 62, 60
3, 59400, Note_on_c, 1, 65, 60
3, 59400, Note_on_c, 1, 71, 60
3, 59579, Note_on_c, 1, 62, 0
3, 59579, Note_on_c, 1, 65, 0
3, 59579, Note_on_c, 1, 71, 0
3, 59640, Note_on_c, 1, 62, 60
3, 59640, Note_on_c, 1, 65, 60
3, 59640, Note_on_c, 1, 71, 60
3, 59999, Note_on_c, 1, 62, 0
3, 59999, Note_on_c, 1, 65, 0
3, 59999, Note_on_c, 1, 71, 0
3, 60000, Note_on_c, 1, 53, 60
3, 60119, Note_on_c, 1, 53, 0
3, 60120, Note_on_c, 1, 64, 60
3, 60479, Note_on_c, 1, 64, 0
3, 60600, Note_on_c, 1, 53, 60
3, 60719, Note_on_c, 1, 53, 0
3, 60720, Note_on_c, 1, 64, 60
3, 60959, Note_on_c, 1, 64, 0
3, 60960, Note_on_c, 1, 53, 60
3, 61079, Note_on_c, 1, 53, 0
3, 61080, Note_on_c, 1, 64, 60
3, 61439, Note_on_c, 1, 64, 0
3, 61560, Note_on_c, 1, 57, 60
3, 61679, Note_on_c, 1, 57, 0
3, 61680, Note_on_c, 1, 60, 60
3, 61919, Note_on_c, 1, 60, 0
3, 61920, Note_on_c, 1, 57, 60
3, 62039, Note_on_c, 1, 57, 0
3, 62040, Note_on_c, 1, 59, 60
3, 62280, Note_on_c, 1, 60, 60
3, 62399, Note_on_c, 1, 59, 0
3, 62519, Note_on_c, 1, 60, 0
3, 62640, Note_on_c, 1, 64, 60
3, 62640, Note_on_c, 1, 72, 60
3, 62759, Note_on_c, 1, 64, 0
3, 62759, Note_on_c, 1, 72, 0
3, 62760, Note_on_c, 1, 71, 60
3, 62760, Note_on_c, 1, 62, 60
3, 62879, Note_on_c, 1, 71, 0
3, 62879, Note_on_c, 1, 62, 0
3, 62880, Note_on_c, 1, 62, 60
3, 62880, Note_on_c, 1, 71, 60
3, 62999, Note_on_c, 1, 62, 0
3, 62999, Note_on_c, 1, 71, 0
3, 63000, Note_on_c, 1, 60, 60
3, 63000, Note_on_c, 1, 69, 60
3, 63359, Note_on_c, 1, 60, 0
3, 63359, Note_on_c, 1, 69, 0
3, 63360, Note_on_c, 1, 62, 60
3, 63360, Note_on_c, 1, 65, 60
3, 63479, Note_on_c, 1, 62, 0
3, 63479, Note_on_c, 1, 65, 0
3, 63480, Note_on_c, 1, 53, 60
3, 63599, Note_on_c, 1, 53, 0
3, 63600, Note_on_c, 1, 60, 60
3, 63839, Note_on_c, 1, 60, 0
3, 63840, Note_on_c, 1, 53, 60
3, 63959, Note_on_c, 1, 53, 0
3, 63960, Note_on_c, 1, 59, 60
3, 64319, Note_on_c, 1, 59, 0
3, 64320, Note_on_c, 1, 65, 60
3, 64320, Note_on_c, 1, 62, 60
3, 64320, Note_on_c, 1, 57, 60
3, 64559, Note_on_c, 1, 65, 0
3, 64559, Note_on_c, 1, 62, 0
3, 64559, Note_on_c, 1, 57, 0
3, 64560, Note_on_c, 1, 64, 60
3, 64560, Note_on_c, 1, 59, 60
3, 64560, Note_on_c, 1, 55, 60
3, 64679, Note_on_c, 1, 64, 0
3, 64679, Note_on_c, 1, 59, 0
3, 64679, Note_on_c, 1, 55, 0
3, 64680, Note_on_c, 1, 64, 60
3, 64680, Note_on_c, 1, 59, 60
3, 64680, Note_on_c, 1, 55, 60
3, 64799, Note_on_c, 1, 64, 0
3, 64799, Note_on_c, 1, 59, 0
3, 64799, Note_on_c, 1, 55, 0
3, 64800, Note_on_c, 1, 64, 60
3, 64800, Note_on_c, 1, 59, 60
3, 64800, Note_on_c, 1, 55, 60
3, 64919, Note_on_c, 1, 64, 0
3, 64919, Note_on_c, 1, 59, 0
3, 64919, Note_on_c, 1, 55, 0
3, 64920, Note_on_c, 1, 64, 60
3, 64920, Note_on_c, 1, 60, 60
3, 64920, Note_on_c, 1, 57, 60
3, 65279, Note_on_c, 1, 64, 0
3, 65279, Note_on_c, 1, 60, 0
3, 65279, Note_on_c, 1, 57, 0
3, 65400, Note_on_c, 1, 57, 60
3, 65519, Note_on_c, 1, 57, 0
3, 65520, Note_on_c, 1, 60, 60
3, 65759, Note_on_c, 1, 60, 0
3, 65760, Note_on_c, 1, 57, 60
3, 65879, Note_on_c, 1, 57, 0
3, 65880, Note_on_c, 1, 60, 60
3, 66119, Note_on_c, 1, 60, 0
3, 66120, Note_on_c, 1, 60, 60
3, 66359, Note_on_c, 1, 60, 0
3, 66480, Note_on_c, 1, 64, 60
3, 66480, Note_on_c, 1, 69, 60
3, 66480, Note_on_c, 1, 72, 60
3, 66600, Note_on_c, 1, 64, 60
3, 66600, Note_on_c, 1, 69, 60
3, 66600, Note_on_c, 1, 72, 60
3, 66719, Note_on_c, 1, 64, 0
3, 66719, Note_on_c, 1, 69, 0
3, 66719, Note_on_c, 1, 72, 0
3, 66719, Note_on_c, 1, 64, 0
3, 66719, Note_on_c, 1, 69, 0
3, 66719, Note_on_c, 1, 72, 0
3, 66840, Note_on_c, 1, 76, 60
3, 66840, Note_on_c, 1, 72, 60
3, 66840, Note_on_c, 1, 69, 60
3, 67199, Note_on_c, 1, 76, 0
3, 67199, Note_on_c, 1, 72, 0
3, 67199, Note_on_c, 1, 69, 0
3, 67200, Note_on_c, 1, 77, 60
3, 67200, Note_on_c, 1, 74, 60
3, 67200, Note_on_c, 1, 69, 60
3, 67319, Note_on_c, 1, 77, 0
3, 67319, Note_on_c, 1, 74, 0
3, 67319, Note_on_c, 1, 69, 0
3, 67320, Note_on_c, 1, 65, 60
3, 67439, Note_on_c, 1, 65, 0
3, 67440, Note_on_c, 1, 72, 60
3, 67679, Note_on_c, 1, 72, 0
3, 67680, Note_on_c, 1, 65, 60
3, 67799, Note_on_c, 1, 65, 0
3, 67800, Note_on_c, 1, 74, 60
3, 68159, Note_on_c, 1, 74, 0
3, 68160, Note_on_c, 1, 77, 60
3, 68160, Note_on_c, 1, 74, 60
3, 68160, Note_on_c, 1, 69, 60
3, 68399, Note_on_c, 1, 77, 0
3, 68399, Note_on_c, 1, 74, 0
3, 68399, Note_on_c, 1, 69, 0
3, 68400, Note_on_c, 1, 76, 60
3, 68400, Note_on_c, 1, 71, 60
3, 68400, Note_on_c, 1, 67, 60
3, 68519, Note_on_c, 1, 76, 0
3, 68519, Note_on_c, 1, 71, 0
3, 68519, Note_on_c, 1, 67, 0
3, 68520, Note_on_c, 1, 64, 60
3, 68520, Note_on_c, 1, 67, 60
3, 68520, Note_on_c, 1, 71, 60
3, 68639, Note_on_c, 1, 64, 0
3, 68639, Note_on_c, 1, 67, 0
3, 68639, Note_on_c, 1, 71, 0
3, 68640, Note_on_c, 1, 64, 60
3, 68640, Note_on_c, 1, 67, 60
3, 68640, Note_on_c, 1, 71, 60
3, 68759, Note_on_c, 1, 64, 0
3, 68759, Note_on_c, 1, 67, 0
3, 68759, Note_on_c, 1, 71, 0
3, 68760, Note_on_c, 1, 64, 60
3, 68760, Note_on_c, 1, 69, 60
3, 68760, Note_on_c, 1, 72, 60
3, 69119, Note_on_c, 1, 64, 0
3, 69119, Note_on_c, 1, 69, 0
3, 69119, Note_on_c, 1, 72, 0
3, 69240, Note_on_c, 1, 57, 60
3, 69359, Note_on_c, 1, 57, 0
3, 69360, Note_on_c, 1, 60, 60
3, 69599, Note_on_c, 1, 60, 0
3, 69600, Note_on_c, 1, 57, 60
3, 69719, Note_on_c, 1, 57, 0
3, 69720, Note_on_c, 1, 59, 60
3, 69959, Note_on_c, 1, 59, 0
3, 69960, Note_on_c, 1, 60, 60
3, 70139, Note_on_c, 1, 60, 0
3, 70320, Note_on_c, 1, 64, 60
3, 70320, Note_on_c, 1, 72, 60
3, 70439, Note_on_c, 1, 64, 0
3, 70439, Note_on_c, 1, 72, 0
3, 70440, Note_on_c, 1, 62, 60
3, 70440, Note_on_c, 1, 71, 60
3, 70559, Note_on_c, 1, 62, 0
3, 70559, Note_on_c, 1, 71, 0
3, 70560, Note_on_c, 1, 62, 60
3, 70560, Note_on_c, 1, 71, 60
3, 70679, Note_on_c, 1, 62, 0
3, 70679, Note_on_c, 1, 71, 0
3, 70680, Note_on_c, 1, 60, 60
3, 70680, Note_on_c, 1, 69, 60
3, 71039, Note_on_c, 1, 60, 0
3, 71039, Note_on_c, 1, 69, 0
3, 71040, Note_on_c, 1, 65, 60
3, 71040, Note_on_c, 1, 62, 60
3, 71159, Note_on_c, 1, 65, 0
3, 71159, Note_on_c, 1, 62, 0
3, 71160, Note_on_c, 1, 53, 60
3, 71279, Note_on_c, 1, 53, 0
3, 71280, Note_on_c, 1, 60, 60
3, 71519, Note_on_c, 1, 60, 0
3, 71520, Note_on_c, 1, 53, 60
3, 71639, Note_on_c, 1, 53, 0
3, 71640, Note_on_c, 1, 59, 60
3, 71999, Note_on_c, 1, 59, 0
3, 72000, Note_on_c, 1, 65, 60
3, 72000, Note_on_c, 1, 62, 60
3, 72000, Note_on_c, 1, 57, 60
3, 72239, Note_on_c, 1, 65, 0
3, 72239, Note_on_c, 1, 62, 0
3, 72239, Note_on_c, 1, 57, 0
3, 72240, Note_on_c, 1, 64, 60
3, 72240, Note_on_c, 1, 59, 60
3, 72240, Note_on_c, 1, 55, 60
3, 72359, Note_on_c, 1, 64, 0
3, 72359, Note_on_c, 1, 59, 0
3, 72359, Note_on_c, 1, 55, 0
3, 72360, Note_on_c, 1, 55, 60
3, 72360, Note_on_c, 1, 59, 60
3, 72360, Note_on_c, 1, 64, 60
3, 72479, Note_on_c, 1, 55, 0
3, 72479, Note_on_c, 1, 59, 0
3, 72479, Note_on_c, 1, 64, 0
3, 72480, Note_on_c, 1, 64, 60
3, 72480, Note_on_c, 1, 59, 60
3, 72480, Note_on_c, 1, 55, 60
3, 72599, Note_on_c, 1, 64, 0
3, 72599, Note_on_c, 1, 59, 0
3, 72599, Note_on_c, 1, 55, 0
3, 72600, Note_on_c, 1, 64, 60
3, 72600, Note_on_c, 1, 69, 60
3, 72600, Note_on_c, 1, 72, 60
3, 72969, Note_on_c, 1, 64, 0
3, 72969, Note_on_c, 1, 69, 0
3, 72969, Note_on_c, 1, 72, 0
3, 73080, Note_on_c, 1, 57, 60
3, 73199, Note_on_c, 1, 57, 0
3, 73200, Note_on_c, 1, 64, 60
3, 73439, Note_on_c, 1, 64, 0
3, 73440, Note_on_c, 1, 57, 60
3, 73559, Note_on_c, 1, 57, 0
3, 73560, Note_on_c, 1, 64, 60
3, 73929, Note_on_c, 1, 64, 0
3, 74040, Note_on_c, 1, 57, 60
3, 74159, Note_on_c, 1, 57, 0
3, 74160, Note_on_c, 1, 64, 60
3, 74399, Note_on_c, 1, 64, 0
3, 74400, Note_on_c, 1, 57, 60
3, 74519, Note_on_c, 1, 57, 0
3, 74520, Note_on_c, 1, 64, 60
3, 74889, Note_on_c, 1, 64, 0
3, 75000, Note_on_c, 1, 57, 60
3, 75119, Note_on_c, 1, 57, 0
3, 75120, Note_on_c, 1, 64, 60
3, 75359, Note_on_c, 1, 64, 0
3, 75360, Note_on_c, 1, 57, 60
3, 75479, Note_on_c, 1, 57, 0
3, 75480, Note_on_c, 1, 64, 60
3, 75849, Note_on_c, 1, 64, 0
3, 75960, Note_on_c, 1, 55, 60
3, 76079, Note_on_c, 1, 55, 0
3, 76080, Note_on_c, 1, 64, 60
3, 76319, Note_on_c, 1, 64, 0
3, 76320, Note_on_c, 1, 55, 60
3, 76439, Note_on_c, 1, 55, 0
3, 76440, Note_on_c, 1, 64, 60
3, 76800, Note_on_c, 1, 79, 60
3, 76800, Note_on_c, 1, 76, 60
3, 76800, Note_on_c, 1, 72, 60
3, 76809, Note_on_c, 1, 64, 0
3, 76920, Note_on_c, 1, 79, 60
3, 76920, Note_on_c, 1, 76, 60
3, 76920, Note_on_c, 1, 72, 60
3, 76979, Note_on_c, 1, 79, 0
3, 76979, Note_on_c, 1, 76, 0
3, 76979, Note_on_c, 1, 72, 0
3, 77040, Note_on_c, 1, 72, 60
3, 77040, Note_on_c, 1, 76, 60
3, 77040, Note_on_c, 1, 81, 60
3, 77099, Note_on_c, 1, 79, 0
3, 77099, Note_on_c, 1, 76, 0
3, 77099, Note_on_c, 1, 72, 0
3, 77160, Note_on_c, 1, 72, 60
3, 77160, Note_on_c, 1, 76, 60
3, 77160, Note_on_c, 1, 83, 60
3, 77219, Note_on_c, 1, 72, 0
3, 77219, Note_on_c, 1, 76, 0
3, 77219, Note_on_c, 1, 81, 0
3, 77280, Note_on_c, 1, 72, 60
3, 77280, Note_on_c, 1, 76, 60
3, 77280, Note_on_c, 1, 83, 60
3, 77339, Note_on_c, 1, 72, 0
3, 77339, Note_on_c, 1, 76, 0
3, 77339, Note_on_c, 1, 83, 0
3, 77400, Note_on_c, 1, 72, 60
3, 77400, Note_on_c, 1, 76, 60
3, 77400, Note_on_c, 1, 81, 60
3, 77459, Note_on_c, 1, 72, 0
3, 77459, Note_on_c, 1, 76, 0
3, 77459, Note_on_c, 1, 83, 0
3, 77639, Note_on_c, 1, 72, 0
3, 77639, Note_on_c, 1, 76, 0
3, 77639, Note_on_c, 1, 81, 0
3, 77640, Note_on_c, 1, 72, 60
3, 77640, Note_on_c, 1, 76, 60
3, 77640, Note_on_c, 1, 79, 60
3, 77819, Note_on_c, 1, 72, 0
3, 77819, Note_on_c, 1, 76, 0
3, 77819, Note_on_c, 1, 79, 0
3, 77880, Note_on_c, 1, 72, 60
3, 77880, Note_on_c, 1, 76, 60
3, 77880, Note_on_c, 1, 81, 60
3, 78119, Note_on_c, 1, 72, 0
3, 78119, Note_on_c, 1, 76, 0
3, 78119, Note_on_c, 1, 81, 0
3, 78120, Note_on_c, 1, 72, 60
3, 78120, Note_on_c, 1, 76, 60
3, 78120, Note_on_c, 1, 83, 60
3, 78239, Note_on_c, 1, 72, 0
3, 78239, Note_on_c, 1, 76, 0
3, 78239, Note_on_c, 1, 83, 0
3, 78240, Note_on_c, 1, 72, 60
3, 78240, Note_on_c, 1, 76, 60
3, 78240, Note_on_c, 1, 83, 60
3, 78719, Note_on_c, 1, 72, 0
3, 78719, Note_on_c, 1, 76, 0
3, 78719, Note_on_c, 1, 83, 0
3, 78840, Note_on_c, 1, 62, 60
3, 78959, Note_on_c, 1, 62, 0
3, 78960, Note_on_c, 1, 69, 60
3, 79199, Note_on_c, 1, 69, 0
3, 79200, Note_on_c, 1, 62, 60
3, 79319, Note_on_c, 1, 62, 0
3, 79320, Note_on_c, 1, 69, 60
3, 79689, Note_on_c, 1, 69, 0
3, 79800, Note_on_c, 1, 59, 60
3, 79919, Note_on_c, 1, 59, 0
3, 79920, Note_on_c, 1, 67, 60
3, 80159, Note_on_c, 1, 67, 0
3, 80160, Note_on_c, 1, 59, 60
3, 80279, Note_on_c, 1, 59, 0
3, 80280, Note_on_c, 1, 67, 60
3, 80640, Note_on_c, 1, 72, 60
3, 80640, Note_on_c, 1, 76, 60
3, 80640, Note_on_c, 1, 79, 60
3, 80649, Note_on_c, 1, 67, 0
3, 80879, Note_on_c, 1, 72, 0
3, 80879, Note_on_c, 1, 76, 0
3, 80879, Note_on_c, 1, 79, 0
3, 80880, Note_on_c, 1, 72, 60
3, 80880, Note_on_c, 1, 76, 60
3, 80880, Note_on_c, 1, 81, 60
3, 80999, Note_on_c, 1, 72, 0
3, 80999, Note_on_c, 1, 76, 0
3, 80999, Note_on_c, 1, 81, 0
3, 81000, Note_on_c, 1, 72, 60
3, 81000, Note_on_c, 1, 76, 60
3, 81000, Note_on_c, 1, 83, 60
3, 81119, Note_on_c, 1, 72, 0
3, 81119, Note_on_c, 1, 76, 0
3, 81119, Note_on_c, 1, 83, 0
3, 81120, Note_on_c, 1, 72, 60
3, 81120, Note_on_c, 1, 76, 60
3, 81120, Note_on_c, 1, 83, 60
3, 81239, Note_on_c, 1, 72, 0
3, 81239, Note_on_c, 1, 76, 0
3, 81239, Note_on_c, 1, 83, 0
3, 81240, Note_on_c, 1, 72, 60
3, 81240, Note_on_c, 1, 76, 60
3, 81240, Note_on_c, 1, 81, 60
3, 81359, Note_on_c, 1, 72, 0
3, 81359, Note_on_c, 1, 76, 0
3, 81359, Note_on_c, 1, 81, 0
3, 81480, Note_on_c, 1, 79, 60
3, 81480, Note_on_c, 1, 76, 60
3, 81480, Note_on_c, 1, 72, 60
3, 81599, Note_on_c, 1, 79, 0
3, 81599, Note_on_c, 1, 76, 0
3, 81599, Note_on_c, 1, 72, 0
3, 81600, Note_on_c, 1, 72, 60
3, 81600, Note_on_c, 1, 76, 60
3, 81600, Note_on_c, 1, 79, 60
3, 81719, Note_on_c, 1, 72, 0
3, 81719, Note_on_c, 1, 76, 0
3, 81719, Note_on_c, 1, 79, 0
3, 81720, Note_on_c, 1, 72, 60
3, 81720, Note_on_c, 1, 76, 60
3, 81720, Note_on_c, 1, 81, 60
3, 81959, Note_on_c, 1, 72, 0
3, 81959, Note_on_c, 1, 76, 0
3, 81959, Note_on_c, 1, 81, 0
3, 81960, Note_on_c, 1, 72, 60
3, 81960, Note_on_c, 1, 76, 60
3, 81960, Note_on_c, 1, 83, 60
3, 82079, Note_on_c, 1, 72, 0
3, 82079, Note_on_c, 1, 76, 0
3, 82079, Note_on_c, 1, 83, 0
3, 82080, Note_on_c, 1, 72, 60
3, 82080, Note_on_c, 1, 76, 60
3, 82080, Note_on_c, 1, 83, 60
3, 82559, Note_on_c, 1, 72, 0
3, 82559, Note_on_c, 1, 76, 0
3, 82559, Note_on_c, 1, 83, 0
3, 82680, Note_on_c, 1, 62, 60
3, 82799, Note_on_c, 1, 62, 0
3, 82800, Note_on_c, 1, 69, 60
3, 83039, Note_on_c, 1, 69, 0
3, 83040, Note_on_c, 1, 62, 60
3, 83159, Note_on_c, 1, 62, 0
3, 83160, Note_on_c, 1, 69, 60
3, 83529, Note_on_c, 1, 69, 0
3, 83640, Note_on_c, 1, 59, 60
3, 83759, Note_on_c, 1, 59, 0
3, 83760, Note_on_c, 1, 67, 60
3, 83999, Note_on_c, 1, 67, 0
3, 84000, Note_on_c, 1, 59, 60
3, 84119, Note_on_c, 1, 59, 0
3, 84120, Note_on_c, 1, 67, 60
3, 84480, Note_on_c, 1, 79, 60
3, 84480, Note_on_c, 1, 76, 60
3, 84480, Note_on_c, 1, 72, 60
3, 84489, Note_on_c, 1, 67, 0
3, 84600, Note_on_c, 1, 79, 60
3, 84600, Note_on_c, 1, 76, 60
3, 84600, Note_on_c, 1, 72, 60
3, 84659, Note_on_c, 1, 79, 0
3, 84659, Note_on_c, 1, 76, 0
3, 84659, Note_on_c, 1, 72, 0
3, 84659, Note_on_c, 1, 79, 0
3, 84659, Note_on_c, 1, 76, 0
3, 84659, Note_on_c, 1, 72, 0
3, 84720, Note_on_c, 1, 72, 60
3, 84720, Note_on_c, 1, 76, 60
3, 84720, Note_on_c, 1, 81, 60
3, 84779, Note_on_c, 1, 72, 0
3, 84779, Note_on_c, 1, 76, 0
3, 84840, Note_on_c, 1, 72, 60
3, 84840, Note_on_c, 1, 76, 60
3, 84840, Note_on_c, 1, 83, 60
3, 84899, Note_on_c, 1, 81, 0
3, 84899, Note_on_c, 1, 72, 0
3, 84899, Note_on_c, 1, 76, 0
3, 84960, Note_on_c, 1, 72, 60
3, 84960, Note_on_c, 1, 76, 60
3, 84960, Note_on_c, 1, 83, 60
3, 85019, Note_on_c, 1, 83, 0
3, 85019, Note_on_c, 1, 72, 0
3, 85019, Note_on_c, 1, 76, 0
3, 85019, Note_on_c, 1, 83, 0
3, 85080, Note_on_c, 1, 72, 60
3, 85080, Note_on_c, 1, 76, 60
3, 85080, Note_on_c, 1, 81, 60
3, 85139, Note_on_c, 1, 72, 0
3, 85139, Note_on_c, 1, 76, 0
3, 85319, Note_on_c, 1, 81, 0
3, 85320, Note_on_c, 1, 72, 60
3, 85320, Note_on_c, 1, 76, 60
3, 85320, Note_on_c, 1, 79, 60
3, 85499, Note_on_c, 1, 72, 0
3, 85499, Note_on_c, 1, 76, 0
3, 85499, Note_on_c, 1, 79, 0
3, 85560, Note_on_c, 1, 72, 60
3, 85560, Note_on_c, 1, 76, 60
3, 85560, Note_on_c, 1, 81, 60
3, 85799, Note_on_c, 1, 72, 0
3, 85799, Note_on_c, 1, 76, 0
3, 85799, Note_on_c, 1, 81, 0
3, 85800, Note_on_c, 1, 72, 60
3, 85800, Note_on_c, 1, 76, 60
3, 85800, Note_on_c, 1, 83, 60
3, 85919, Note_on_c, 1, 72, 0
3, 85919, Note_on_c, 1, 76, 0
3, 85919, Note_on_c, 1, 83, 0
3, 85920, Note_on_c, 1, 72, 60
3, 85920, Note_on_c, 1, 76, 60
3, 85920, Note_on_c, 1, 83, 60
3, 86399, Note_on_c, 1, 72, 0
3, 86399, Note_on_c, 1, 76, 0
3, 86399, Note_on_c, 1, 83, 0
3, 86520, Note_on_c, 1, 62, 60
3, 86639, Note_on_c, 1, 62, 0
3, 86640, Note_on_c, 1, 69, 60
3, 86879, Note_on_c, 1, 69, 0
3, 86880, Note_on_c, 1, 62, 60
3, 86999, Note_on_c, 1, 62, 0
3, 87000, Note_on_c, 1, 69, 60
3, 87369, Note_on_c, 1, 69, 0
3, 87480, Note_on_c, 1, 59, 60
3, 87599, Note_on_c, 1, 59, 0
3, 87600, Note_on_c, 1, 67, 60
3, 87839, Note_on_c, 1, 67, 0
3, 87840, Note_on_c, 1, 59, 60
3, 87959, Note_on_c, 1, 59, 0
3, 87960, Note_on_c, 1, 67, 60
3, 88320, Note_on_c, 1, 72, 60
3, 88320, Note_on_c, 1, 76, 60
3, 88320, Note_on_c, 1, 81, 60
3, 88329, Note_on_c, 1, 67, 0
3, 88439, Note_on_c, 1, 72, 0
3, 88439, Note_on_c, 1, 76, 0
3, 88439, Note_on_c, 1, 81, 0
3, 88440, Note_on_c, 1, 72, 60
3, 88440, Note_on_c, 1, 76, 60
3, 88440, Note_on_c, 1, 83, 60
3, 88679, Note_on_c, 1, 72, 0
3, 88679, Note_on_c, 1, 76, 0
3, 88679, Note_on_c, 1, 83, 0
3, 88680, Note_on_c, 1, 72, 60
3, 88680, Note_on_c, 1, 76, 60
3, 88680, Note_on_c, 1, 83, 60
3, 88799, Note_on_c, 1, 72, 0
3, 88799, Note_on_c, 1, 76, 0
3, 88799, Note_on_c, 1, 83, 0
3, 88800, Note_on_c, 1, 72, 60
3, 88800, Note_on_c, 1, 76, 60
3, 88800, Note_on_c, 1, 83, 60
3, 88919, Note_on_c, 1, 72, 0
3, 88919, Note_on_c, 1, 76, 0
3, 88919, Note_on_c, 1, 83, 0
3, 88920, Note_on_c, 1, 72, 60
3, 88920, Note_on_c, 1, 76, 60
3, 88920, Note_on_c, 1, 81, 60
3, 89039, Note_on_c, 1, 72, 0
3, 89039, Note_on_c, 1, 76, 0
3, 89039, Note_on_c, 1, 81, 0
3, 89040, Note_on_c, 1, 72, 60
3, 89040, Note_on_c, 1, 76, 60
3, 89040, Note_on_c, 1, 81, 60
3, 89159, Note_on_c, 1, 72, 0
3, 89159, Note_on_c, 1, 76, 0
3, 89159, Note_on_c, 1, 81, 0
3, 89160, Note_on_c, 1, 72, 60
3, 89160, Note_on_c, 1, 76, 60
3, 89160, Note_on_c, 1, 81, 60
3, 89279, Note_on_c, 1, 72, 0
3, 89279, Note_on_c, 1, 76, 0
3, 89279, Note_on_c, 1, 81, 0
3, 89280, Note_on_c, 1, 72, 60
3, 89280, Note_on_c, 1, 76, 60
3, 89280, Note_on_c, 1, 79, 60
3, 89399, Note_on_c, 1, 72, 0
3, 89399, Note_on_c, 1, 76, 0
3, 89399, Note_on_c, 1, 79, 0
3, 89400, Note_on_c, 1, 72, 60
3, 89400, Note_on_c, 1, 76, 60
3, 89400, Note_on_c, 1, 83, 60
3, 89639, Note_on_c, 1, 72, 0
3, 89639, Note_on_c, 1, 76, 0
3, 89639, Note_on_c, 1, 83, 0
3, 89640, Note_on_c, 1, 72, 60
3, 89640, Note_on_c, 1, 76, 60
3, 89640, Note_on_c, 1, 83, 60
3, 89759, Note_on_c, 1, 72, 0
3, 89759, Note_on_c, 1, 76, 0
3, 89759, Note_on_c, 1, 83, 0
3, 89760, Note_on_c, 1, 72, 60
3, 89760, Note_on_c, 1, 76, 60
3, 89760, Note_on_c, 1, 83, 60
3, 90239, Note_on_c, 1, 72, 0
3, 90239, Note_on_c, 1, 76, 0
3, 90239, Note_on_c, 1, 83, 0
3, 90360, Note_on_c, 1, 62, 60
3, 90479, Note_on_c, 1, 62, 0
3, 90480, Note_on_c, 1, 69, 60
3, 90719, Note_on_c, 1, 69, 0
3, 90720, Note_on_c, 1, 62, 60
3, 90839, Note_on_c, 1, 62, 0
3, 90840, Note_on_c, 1, 69, 60
3, 91209, Note_on_c, 1, 69, 0
3, 91320, Note_on_c, 1, 59, 60
3, 91439, Note_on_c, 1, 59, 0
3, 91440, Note_on_c, 1, 67, 60
3, 91679, Note_on_c, 1, 67, 0
3, 91680, Note_on_c, 1, 59, 60
3, 91799, Note_on_c, 1, 59, 0
3, 91800, Note_on_c, 1, 67, 60
3, 92169, Note_on_c, 1, 67, 0
3, 92280, Note_on_c, 1, 57, 60
3, 92399, Note_on_c, 1, 57, 0
3, 92400, Note_on_c, 1, 60, 60
3, 92639, Note_on_c, 1, 60, 0
3, 92640, Note_on_c, 1, 57, 60
3, 92759, Note_on_c, 1, 57, 0
3, 92760, Note_on_c, 1, 59, 60
3, 93000, Note_on_c, 1, 60, 60
3, 93119, Note_on_c, 1, 59, 0
3, 93239, Note_on_c, 1, 60, 0
3, 93360, Note_on_c, 1, 64, 60
3, 93360, Note_on_c, 1, 72, 60
3, 93479, Note_on_c, 1, 64, 0
3, 93479, Note_on_c, 1, 72, 0
3, 93480, Note_on_c, 1, 71, 60
3, 93480, Note_on_c, 1, 62, 60
3, 93599, Note_on_c, 1, 71, 0
3, 93599, Note_on_c, 1, 62, 0
3, 93600, Note_on_c, 1, 62, 60
3, 93600, Note_on_c, 1, 71, 60
3, 93719, Note_on_c, 1, 62, 0
3, 93719, Note_on_c, 1, 71, 0
3, 93720, Note_on_c, 1, 60, 60
3, 93720, Note_on_c, 1, 69, 60
3, 94079, Note_on_c, 1, 60, 0
3, 94079, Note_on_c, 1, 69, 0
3, 94080, Note_on_c, 1, 62, 60
3, 94080, Note_on_c, 1, 65, 60
3, 94199, Note_on_c, 1, 62, 0
3, 94199, Note_on_c, 1, 65, 0
3, 94200, Note_on_c, 1, 53, 60
3, 94319, Note_on_c, 1, 53, 0
3, 94320, Note_on_c, 1, 60, 60
3, 94559, Note_on_c, 1, 60, 0
3, 94560, Note_on_c, 1, 53, 60
3, 94679, Note_on_c, 1, 53, 0
3, 94680, Note_on_c, 1, 59, 60
3, 95039, Note_on_c, 1, 59, 0
3, 95040, Note_on_c, 1, 65, 60
3, 95040, Note_on_c, 1, 62, 60
3, 95040, Note_on_c, 1, 57, 60
3, 95279, Note_on_c, 1, 65, 0
3, 95279, Note_on_c, 1, 62, 0
3, 95279, Note_on_c, 1, 57, 0
3, 95280, Note_on_c, 1, 64, 60
3, 95280, Note_on_c, 1, 59, 60
3, 95280, Note_on_c, 1, 55, 60
3, 95399, Note_on_c, 1, 64, 0
3, 95399, Note_on_c, 1, 59, 0
3, 95399, Note_on_c, 1, 55, 0
3, 95400, Note_on_c, 1, 64, 60
3, 95400, Note_on_c, 1, 59, 60
3, 95400, Note_on_c, 1, 55, 60
3, 95519, Note_on_c, 1, 64, 0
3, 95519, Note_on_c, 1, 59, 0
3, 95519, Note_on_c, 1, 55, 0
3, 95520, Note_on_c, 1, 64, 60
3, 95520, Note_on_c, 1, 59, 60
3, 95520, Note_on_c, 1, 55, 60
3, 95639, Note_on_c, 1, 64, 0
3, 95639, Note_on_c, 1, 59, 0
3, 95639, Note_on_c, 1, 55, 0
3, 95640, Note_on_c, 1, 64, 60
3, 95640, Note_on_c, 1, 60, 60
3, 95640, Note_on_c, 1, 57, 60
3, 95999, Note_on_c, 1, 64, 0
3, 95999, Note_on_c, 1, 60, 0
3, 95999, Note_on_c, 1, 57, 0
3, 96120, Note_on_c, 1, 57, 60
3, 96239, Note_on_c, 1, 57, 0
3, 96240, Note_on_c, 1, 60, 60
3, 96479, Note_on_c, 1, 60, 0
3, 96480, Note_on_c, 1, 57, 60
3, 96599, Note_on_c, 1, 57, 0
3, 96600, Note_on_c, 1, 60, 60
3, 96839, Note_on_c, 1, 60, 0
3, 96840, Note_on_c, 1, 60, 60
3, 97079, Note_on_c, 1, 60, 0
3, 97200, Note_on_c, 1, 64, 60
3, 97200, Note_on_c, 1, 69, 60
3, 97200, Note_on_c, 1, 72, 60
3, 97320, Note_on_c, 1, 64, 60
3, 97320, Note_on_c, 1, 69, 60
3, 97320, Note_on_c, 1, 72, 60
3, 97439, Note_on_c, 1, 64, 0
3, 97439, Note_on_c, 1, 69, 0
3, 97439, Note_on_c, 1, 72, 0
3, 97439, Note_on_c, 1, 64, 0
3, 97439, Note_on_c, 1, 69, 0
3, 97439, Note_on_c, 1, 72, 0
3, 97560, Note_on_c, 1, 76, 60
3, 97560, Note_on_c, 1, 72, 60
3, 97560, Note_on_c, 1, 69, 60
3, 97919, Note_on_c, 1, 76, 0
3, 97919, Note_on_c, 1, 72, 0
3, 97919, Note_on_c, 1, 69, 0
3, 97920, Note_on_c, 1, 77, 60
3, 97920, Note_on_c, 1, 74, 60
3, 97920, Note_on_c, 1, 69, 60
3, 98039, Note_on_c, 1, 77, 0
3, 98039, Note_on_c, 1, 74, 0
3, 98039, Note_on_c, 1, 69, 0
3, 98040, Note_on_c, 1, 65, 60
3, 98159, Note_on_c, 1, 65, 0
3, 98160, Note_on_c, 1, 72, 60
3, 98399, Note_on_c, 1, 72, 0
3, 98400, Note_on_c, 1, 65, 60
3, 98519, Note_on_c, 1, 65, 0
3, 98520, Note_on_c, 1, 74, 60
3, 98879, Note_on_c, 1, 74, 0
3, 98880, Note_on_c, 1, 77, 60
3, 98880, Note_on_c, 1, 74, 60
3, 98880, Note_on_c, 1, 69, 60
3, 99119, Note_on_c, 1, 77, 0
3, 99119, Note_on_c, 1, 74, 0
3, 99119, Note_on_c, 1, 69, 0
3, 99120, Note_on_c, 1, 76, 60
3, 99120, Note_on_c, 1, 71, 60
3, 99120, Note_on_c, 1, 67, 60
3, 99239, Note_on_c, 1, 76, 0
3, 99239, Note_on_c, 1, 71, 0
3, 99239, Note_on_c, 1, 67, 0
3, 99240, Note_on_c, 1, 64, 60
3, 99240, Note_on_c, 1, 67, 60
3, 99240, Note_on_c, 1, 71, 60
3, 99359, Note_on_c, 1, 64, 0
3, 99359, Note_on_c, 1, 67, 0
3, 99359, Note_on_c, 1, 71, 0
3, 99360, Note_on_c, 1, 64, 60
3, 99360, Note_on_c, 1, 67, 60
3, 99360, Note_on_c, 1, 71, 60
3, 99479, Note_on_c, 1, 64, 0
3, 99479, Note_on_c, 1, 67, 0
3, 99479, Note_on_c, 1, 71, 0
3, 99480, Note_on_c, 1, 64, 60
3, 99480, Note_on_c, 1, 69, 60
3, 99480, Note_on_c, 1, 72, 60
3, 99839, Note_on_c, 1, 64, 0
3, 99839, Note_on_c, 1, 69, 0
3, 99839, Note_on_c, 1, 72, 0
3, 99960, Note_on_c, 1, 57, 60
3, 100079, Note_on_c, 1, 57, 0
3, 100080, Note_on_c, 1, 60, 60
3, 100319, Note_on_c, 1, 60, 0
3, 100320, Note_on_c, 1, 57, 60
3, 100439, Note_on_c, 1, 57, 0
3, 100440, Note_on_c, 1, 59, 60
3, 100679, Note_on_c, 1, 59, 0
3, 100680, Note_on_c, 1, 60, 60
3, 100859, Note_on_c, 1, 60, 0
3, 101040, Note_on_c, 1, 64, 60
3, 101040, Note_on_c, 1, 72, 60
3, 101159, Note_on_c, 1, 64, 0
3, 101159, Note_on_c, 1, 72, 0
3, 101160, Note_on_c, 1, 62, 60
3, 101160, Note_on_c, 1, 71, 60
3, 101279, Note_on_c, 1, 62, 0
3, 101279, Note_on_c, 1, 71, 0
3, 101280, Note_on_c, 1, 62, 60
3, 101280, Note_on_c, 1, 71, 60
3, 101399, Note_on_c, 1, 62, 0
3, 101399, Note_on_c, 1, 71, 0
3, 101400, Note_on_c, 1, 60, 60
3, 101400, Note_on_c, 1, 69, 60
3, 101759, Note_on_c, 1, 60, 0
3, 101759, Note_on_c, 1, 69, 0
3, 101760, Note_on_c, 1, 65, 60
3, 101760, Note_on_c, 1, 62, 60
3, 101879, Note_on_c, 1, 65, 0
3, 101879, Note_on_c, 1, 62, 0
3, 101880, Note_on_c, 1, 53, 60
3, 101999, Note_on_c, 1, 53, 0
3, 102000, Note_on_c, 1, 60, 60
3, 102239, Note_on_c, 1, 60, 0
3, 102240, Note_on_c, 1, 53, 60
3, 102359, Note_on_c, 1, 53, 0
3, 102360, Note_on_c, 1, 59, 60
3, 102719, Note_on_c, 1, 59, 0
3, 102720, Note_on_c, 1, 65, 60
3, 102720, Note_on_c, 1, 62, 60
3, 102720, Note_on_c, 1, 57, 60
3, 102959, Note_on_c, 1, 65, 0
3, 102959, Note_on_c, 1, 62, 0
3, 102959, Note_on_c, 1, 57, 0
3, 102960, Note_on_c, 1, 64, 60
3, 102960, Note_on_c, 1, 59, 60
3, 102960, Note_on_c, 1, 55, 60
3, 103079, Note_on_c, 1, 64, 0
3, 103079, Note_on_c, 1, 59, 0
3, 103079, Note_on_c, 1, 55, 0
3, 103080, Note_on_c, 1, 55, 60
3, 103080, Note_on_c, 1, 59, 60
3, 103080, Note_on_c, 1, 64, 60
3, 103199, Note_on_c, 1, 55, 0
3, 103199, Note_on_c, 1, 59, 0
3, 103199, Note_on_c, 1, 64, 0
3, 103200, Note_on_c, 1, 64, 60
3, 103200, Note_on_c, 1, 59, 60
3, 103200, Note_on_c, 1, 55, 60
3, 103319, Note_on_c, 1, 64, 0
3, 103319, Note_on_c, 1, 59, 0
3, 103319, Note_on_c, 1, 55, 0
3, 103320, Note_on_c, 1, 64, 60
3, 103320, Note_on_c, 1, 69, 60
3, 103320, Note_on_c, 1, 72, 60
3, 103689, Note_on_c, 1, 64, 0
3, 103689, Note_on_c, 1, 69, 0
3, 103689, Note_on_c, 1, 72, 0
3, 103800, Note_on_c, 1, 57, 60
3, 103919, Note_on_c, 1, 57, 0
3, 103920, Note_on_c, 1, 64, 60
3, 104159, Note_on_c, 1, 64, 0
3, 104160, Note_on_c, 1, 57, 60
3, 104279, Note_on_c, 1, 57, 0
3, 104280, Note_on_c, 1, 64, 60
3, 104649, Note_on_c, 1, 64, 0
3, 104760, Note_on_c, 1, 57, 60
3, 104879, Note_on_c, 1, 57, 0
3, 104880, Note_on_c, 1, 64, 60
3, 105119, Note_on_c, 1, 64, 0
3, 105120, Note_on_c, 1, 57, 60
3, 105239, Note_on_c, 1, 57, 0
3, 105240, Note_on_c, 1, 64, 60
3, 105609, Note_on_c, 1, 64, 0
3, 105720, Note_on_c, 1, 57, 60
3, 105839, Note_on_c, 1, 57, 0
3, 105840, Note_on_c, 1, 64, 60
3, 106079, Note_on_c, 1, 64, 0
3, 106080, Note_on_c, 1, 57, 60
3, 106199, Note_on_c, 1, 57, 0
3, 106200, Note_on_c, 1, 64, 60
3, 106560, Note_on_c, 1, 65, 60
3, 106560, Note_on_c, 1, 62, 60
3, 106560, Note_on_c, 1, 57, 60
3, 106569, Note_on_c, 1, 64, 0
3, 106799, Note_on_c, 1, 65, 0
3, 106799, Note_on_c, 1, 62, 0
3, 106799, Note_on_c, 1, 57, 0
3, 106800, Note_on_c, 1, 64, 60
3, 106800, Note_on_c, 1, 59, 60
3, 106800, Note_on_c, 1, 55, 60
3, 106919, Note_on_c, 1, 64, 0
3, 106919, Note_on_c, 1, 59, 0
3, 106919, Note_on_c, 1, 55, 0
3, 106920, Note_on_c, 1, 55, 60
3, 106920, Note_on_c, 1, 59, 60
3, 106920, Note_on_c, 1, 64, 60
3, 107039, Note_on_c, 1, 55, 0
3, 107039, Note_on_c, 1, 59, 0
3, 107039, Note_on_c, 1, 64, 0
3, 107040, Note_on_c, 1, 64, 60
3, 107040, Note_on_c, 1, 59, 60
3, 107040, Note_on_c, 1, 55, 60
3, 107159, Note_on_c, 1, 64, 0
3, 107159, Note_on_c, 1, 59, 0
3, 107159, Note_on_c, 1, 55, 0
3, 107160, Note_on_c, 1, 69, 60
3, 107160, Note_on_c, 1, 64, 60
3, 107160, Note_on_c, 1, 57, 60
3, 107519, Note_on_c, 1, 69, 0
3, 107519, Note_on_c, 1, 64, 0
3, 107519, Note_on_c, 1, 57, 0
3, 107640, Note_on_c, 1, 57, 60
3, 107759, Note_on_c, 1, 57, 0
3, 107760, Note_on_c, 1, 64, 60
3, 107999, Note_on_c, 1, 64, 0
3, 108000, Note_on_c, 1, 57, 60
3, 108119, Note_on_c, 1, 57, 0
3, 108120, Note_on_c, 1, 64, 60
3, 108479, Note_on_c, 1, 64, 0
3, 108600, Note_on_c, 1, 57, 60
3, 108719, Note_on_c, 1, 57, 0
3, 108720, Note_on_c, 1, 64, 60
3, 108959, Note_on_c, 1, 64, 0
3, 108960, Note_on_c, 1, 57, 60
3, 109079, Note_on_c, 1, 57, 0
3, 109080, Note_on_c, 1, 64, 60
3, 109439, Note_on_c, 1, 64, 0
3, 109560, Note_on_c, 1, 57, 60
3, 109679, Note_on_c, 1, 57, 0
3, 109680, Note_on_c, 1, 64, 60
3, 109919, Note_on_c, 1, 64, 0
3, 109920, Note_on_c, 1, 57, 60
3, 110039, Note_on_c, 1, 57, 0
3, 110040, Note_on_c, 1, 64, 60
3, 110399, Note_on_c, 1, 64, 0
3, 110520, Note_on_c, 1, 53, 60
3, 110639, Note_on_c, 1, 53, 0
3, 110640, Note_on_c, 1, 64, 60
3, 110879, Note_on_c, 1, 64, 0
3, 110880, Note_on_c, 1, 57, 60
3, 110999, Note_on_c, 1, 57, 0
3, 111000, Note_on_c, 1, 64, 60
3, 111359, Note_on_c, 1, 64, 0
3, 111480, Note_on_c, 1, 53, 60
3, 111599, Note_on_c, 1, 53, 0
3, 111600, Note_on_c, 1, 64, 60
3, 111839, Note_on_c, 1, 64, 0
3, 111840, Note_on_c, 1, 57, 60
3, 111959, Note_on_c, 1, 57, 0
3, 111960, Note_on_c, 1, 64, 60
3, 112319, Note_on_c, 1, 64, 0
3, 112440, Note_on_c, 1, 57, 60
3, 112559, Note_on_c, 1, 57, 0
3, 112560, Note_on_c, 1, 64, 60
3, 112799, Note_on_c, 1, 64, 0
3, 112800, Note_on_c, 1, 57, 60
3, 112919, Note_on_c, 1, 57, 0
3, 112920, Note_on_c, 1, 64, 60
3, 113279, Note_on_c, 1, 64, 0
3, 113400, Note_on_c, 1, 57, 60
3, 113519, Note_on_c, 1, 57, 0
3, 113520, Note_on_c, 1, 64, 60
3, 113759, Note_on_c, 1, 64, 0
3, 113760, Note_on_c, 1, 57, 60
3, 113879, Note_on_c, 1, 57, 0
3, 113880, Note_on_c, 1, 64, 60
3, 114239, Note_on_c, 1, 64, 0
3, 114360, Note_on_c, 1, 53, 60
3, 114479, Note_on_c, 1, 53, 0
3, 114480, Note_on_c, 1, 64, 60
3, 114719, Note_on_c, 1, 64, 0
3, 114720, Note_on_c, 1, 57, 60
3, 114839, Note_on_c, 1, 57, 0
3, 114840, Note_on_c, 1, 64, 60
3, 115199, Note_on_c, 1, 64, 0
3, 115320, Note_on_c, 1, 53, 60
3, 115439, Note_on_c, 1, 53, 0
3, 115440, Note_on_c, 1, 64, 60
3, 115679, Note_on_c, 1, 64, 0
3, 115680, Note_on_c, 1, 57, 60
3, 115799, Note_on_c, 1, 57, 0
3, 115800, Note_on_c, 1, 64, 60
3, 116159, Note_on_c, 1, 64, 0
3, 116280, Note_on_c, 1, 57, 60
3, 116399, Note_on_c, 1, 57, 0
3, 116400, Note_on_c, 1, 64, 60
3, 116639, Note_on_c, 1, 64, 0
3, 116640, Note_on_c, 1, 57, 60
3, 116759, Note_on_c, 1, 57, 0
3, 116760, Note_on_c, 1, 64, 60
3, 117119, Note_on_c, 1, 64, 0
3, 117240, Note_on_c, 1, 57, 60
3, 117359, Note_on_c, 1, 57, 0
3, 117360, Note_on_c, 1, 64, 60
3, 117599, Note_on_c, 1, 64, 0
3, 117600, Note_on_c, 1, 57, 60
3, 117719, Note_on_c, 1, 57, 0
3, 117720, Note_on_c, 1, 64, 60
3, 118079, Note_on_c, 1, 64, 0
3, 118200, Note_on_c, 1, 53, 60
3, 118319, Note_on_c, 1, 53, 0
3, 118320, Note_on_c, 1, 64, 60
3, 118559, Note_on_c, 1, 64, 0
3, 118560, Note_on_c, 1, 57, 60
3, 118679, Note_on_c, 1, 57, 0
3, 118680, Note_on_c, 1, 64, 60
3, 119039, Note_on_c, 1, 64, 0
3, 119160, Note_on_c, 1, 53, 60
3, 119279, Note_on_c, 1, 53, 0
3, 119280, Note_on_c, 1, 64, 60
3, 119519, Note_on_c, 1, 64, 0
3, 119520, Note_on_c, 1, 57, 60
3, 119639, Note_on_c, 1, 57, 0
3, 119640, Note_on_c, 1, 64, 60
3, 119999, Note_on_c, 1, 64, 0
3, 120120, Note_on_c, 1, 57, 60
3, 120239, Note_on_c, 1, 57, 0
3, 120240, Note_on_c, 1, 64, 60
3, 120479, Note_on_c, 1, 64, 0
3, 120480, Note_on_c, 1, 57, 60
3, 120599, Note_on_c, 1, 57, 0
3, 120600, Note_on_c, 1, 64, 60
3, 120959, Note_on_c, 1, 64, 0
3, 121080, Note_on_c, 1, 57, 60
3, 121199, Note_on_c, 1, 57, 0
3, 121200, Note_on_c, 1, 64, 60
3, 121439, Note_on_c, 1, 64, 0
3, 121440, Note_on_c, 1, 57, 60
3, 121559, Note_on_c, 1, 57, 0
3, 121560, Note_on_c, 1, 64, 60
3, 121919, Note_on_c, 1, 64, 0
3, 122040, Note_on_c, 1, 57, 60
3, 122159, Note_on_c, 1, 57, 0
3, 122160, Note_on_c, 1, 64, 60
3, 122399, Note_on_c, 1, 64, 0
3, 122400, Note_on_c, 1, 57, 60
3, 122519, Note_on_c, 1, 57, 0
3, 122520, Note_on_c, 1, 64, 60
3, 122879, Note_on_c, 1, 64, 0
3, 122880, Note_on_c, 1, 69, 60
3, 122880, Note_on_c, 1, 64, 60
3, 122880, Note_on_c, 1, 57, 60
3, 124799, Note_on_c, 1, 69, 0
3, 124799, Note_on_c, 1, 64, 0
3, 124799, Note_on_c, 1, 57, 0
3, 124799, End_track
4, 0, Start_track
4, 0, Title_t, "Finger Bass"
4, 0, MIDI_port, 0
4, 0, Program_c, 2, 33
4, 0, Control_c, 2, 7, 127
4, 0, Note_on_c, 2, 45, 60
4, 358, Note_on_c, 2, 45, 0
4, 360, Note_on_c, 2, 45, 60
4, 478, Note_on_c, 2, 45, 0
4, 480, Note_on_c, 2, 45, 60
4, 718, Note_on_c, 2, 45, 0
4, 720, Note_on_c, 2, 45, 60
4, 958, Note_on_c, 2, 45, 0
4, 960, Note_on_c, 2, 45, 60
4, 1318, Note_on_c, 2, 45, 0
4, 1320, Note_on_c, 2, 45, 60
4, 1438, Note_on_c, 2, 45, 0
4, 1440, Note_on_c, 2, 45, 60
4, 1678, Note_on_c, 2, 45, 0
4, 1680, Note_on_c, 2, 45, 60
4, 1918, Note_on_c, 2, 45, 0
4, 1920, Note_on_c, 2, 50, 60
4, 2278, Note_on_c, 2, 50, 0
4, 2280, Note_on_c, 2, 50, 60
4, 2398, Note_on_c, 2, 50, 0
4, 2400, Note_on_c, 2, 50, 60
4, 2638, Note_on_c, 2, 50, 0
4, 2640, Note_on_c, 2, 50, 60
4, 2878, Note_on_c, 2, 50, 0
4, 2880, Note_on_c, 2, 48, 60
4, 3238, Note_on_c, 2, 48, 0
4, 3240, Note_on_c, 2, 48, 60
4, 3358, Note_on_c, 2, 48, 0
4, 3360, Note_on_c, 2, 48, 60
4, 3598, Note_on_c, 2, 48, 0
4, 3600, Note_on_c, 2, 48, 60
4, 3838, Note_on_c, 2, 48, 0
4, 3840, Note_on_c, 2, 45, 60
4, 4198, Note_on_c, 2, 45, 0
4, 4200, Note_on_c, 2, 45, 60
4, 4318, Note_on_c, 2, 45, 0
4, 4320, Note_on_c, 2, 45, 60
4, 4558, Note_on_c, 2, 45, 0
4, 4560, Note_on_c, 2, 45, 60
4, 4798, Note_on_c, 2, 45, 0
4, 4800, Note_on_c, 2, 48, 60
4, 5158, Note_on_c, 2, 48, 0
4, 5160, Note_on_c, 2, 48, 60
4, 5278, Note_on_c, 2, 48, 0
4, 5280, Note_on_c, 2, 48, 60
4, 5518, Note_on_c, 2, 48, 0
4, 5520, Note_on_c, 2, 48, 60
4, 5758, Note_on_c, 2, 48, 0
4, 5760, Note_on_c, 2, 50, 60
4, 6118, Note_on_c, 2, 50, 0
4, 6120, Note_on_c, 2, 50, 60
4, 6238, Note_on_c, 2, 50, 0
4, 6240, Note_on_c, 2, 50, 60
4, 6478, Note_on_c, 2, 50, 0
4, 6480, Note_on_c, 2, 48, 60
4, 6598, Note_on_c, 2, 48, 0
4, 6600, Note_on_c, 2, 47, 60
4, 6718, Note_on_c, 2, 47, 0
4, 6720, Note_on_c, 2, 40, 60
4, 7078, Note_on_c, 2, 40, 0
4, 7080, Note_on_c, 2, 40, 60
4, 7198, Note_on_c, 2, 40, 0
4, 7200, Note_on_c, 2, 40, 60
4, 7438, Note_on_c, 2, 40, 0
4, 7440, Note_on_c, 2, 40, 60
4, 7678, Note_on_c, 2, 40, 0
4, 7680, Note_on_c, 2, 45, 60
4, 8038, Note_on_c, 2, 45, 0
4, 8040, Note_on_c, 2, 45, 60
4, 8158, Note_on_c, 2, 45, 0
4, 8160, Note_on_c, 2, 45, 60
4, 8398, Note_on_c, 2, 45, 0
4, 8400, Note_on_c, 2, 45, 60
4, 8638, Note_on_c, 2, 45, 0
4, 8640, Note_on_c, 2, 45, 60
4, 8999, Note_on_c, 2, 45, 0
4, 9000, Note_on_c, 2, 45, 60
4, 9118, Note_on_c, 2, 45, 0
4, 9120, Note_on_c, 2, 45, 60
4, 9358, Note_on_c, 2, 45, 0
4, 9360, Note_on_c, 2, 45, 60
4, 9598, Note_on_c, 2, 45, 0
4, 9600, Note_on_c, 2, 50, 60
4, 9958, Note_on_c, 2, 50, 0
4, 9960, Note_on_c, 2, 50, 60
4, 10078, Note_on_c, 2, 50, 0
4, 10080, Note_on_c, 2, 50, 60
4, 10318, Note_on_c, 2, 50, 0
4, 10320, Note_on_c, 2, 50, 60
4, 10558, Note_on_c, 2, 50, 0
4, 10560, Note_on_c, 2, 48, 60
4, 10918, Note_on_c, 2, 48, 0
4, 10920, Note_on_c, 2, 48, 60
4, 11038, Note_on_c, 2, 48, 0
4, 11040, Note_on_c, 2, 48, 60
4, 11278, Note_on_c, 2, 48, 0
4, 11280, Note_on_c, 2, 48, 60
4, 11518, Note_on_c, 2, 48, 0
4, 11520, Note_on_c, 2, 45, 60
4, 11878, Note_on_c, 2, 45, 0
4, 11880, Note_on_c, 2, 45, 60
4, 11998, Note_on_c, 2, 45, 0
4, 12000, Note_on_c, 2, 45, 60
4, 12238, Note_on_c, 2, 45, 0
4, 12240, Note_on_c, 2, 45, 60
4, 12478, Note_on_c, 2, 45, 0
4, 12480, Note_on_c, 2, 48, 60
4, 12838, Note_on_c, 2, 48, 0
4, 12840, Note_on_c, 2, 48, 60
4, 12958, Note_on_c, 2, 48, 0
4, 12960, Note_on_c, 2, 48, 60
4, 13198, Note_on_c, 2, 48, 0
4, 13200, Note_on_c, 2, 48, 60
4, 13438, Note_on_c, 2, 48, 0
4, 13440, Note_on_c, 2, 50, 60
4, 13798, Note_on_c, 2, 50, 0
4, 13800, Note_on_c, 2, 50, 60
4, 13918, Note_on_c, 2, 50, 0
4, 13920, Note_on_c, 2, 50, 60
4, 14158, Note_on_c, 2, 50, 0
4, 14160, Note_on_c, 2, 48, 60
4, 14278, Note_on_c, 2, 48, 0
4, 14280, Note_on_c, 2, 47, 60
4, 14398, Note_on_c, 2, 47, 0
4, 14400, Note_on_c, 2, 40, 60
4, 14758, Note_on_c, 2, 40, 0
4, 14760, Note_on_c, 2, 40, 60
4, 14878, Note_on_c, 2, 40, 0
4, 14880, Note_on_c, 2, 40, 60
4, 15118, Note_on_c, 2, 40, 0
4, 15120, Note_on_c, 2, 40, 60
4, 15358, Note_on_c, 2, 40, 0
4, 15360, Note_on_c, 2, 45, 60
4, 15719, Note_on_c, 2, 45, 0
4, 15720, Note_on_c, 2, 45, 60
4, 15839, Note_on_c, 2, 45, 0
4, 15840, Note_on_c, 2, 45, 60
4, 16079, Note_on_c, 2, 45, 0
4, 16080, Note_on_c, 2, 45, 60
4, 16319, Note_on_c, 2, 45, 0
4, 16320, Note_on_c, 2, 45, 60
4, 16679, Note_on_c, 2, 45, 0
4, 16680, Note_on_c, 2, 45, 60
4, 16799, Note_on_c, 2, 45, 0
4, 16800, Note_on_c, 2, 45, 60
4, 17039, Note_on_c, 2, 45, 0
4, 17040, Note_on_c, 2, 45, 60
4, 17279, Note_on_c, 2, 45, 0
4, 17280, Note_on_c, 2, 50, 60
4, 17639, Note_on_c, 2, 50, 0
4, 17640, Note_on_c, 2, 50, 60
4, 17759, Note_on_c, 2, 50, 0
4, 17760, Note_on_c, 2, 50, 60
4, 17999, Note_on_c, 2, 50, 0
4, 18000, Note_on_c, 2, 50, 60
4, 18239, Note_on_c, 2, 50, 0
4, 18240, Note_on_c, 2, 52, 60
4, 18599, Note_on_c, 2, 52, 0
4, 18600, Note_on_c, 2, 52, 60
4, 18719, Note_on_c, 2, 52, 0
4, 18720, Note_on_c, 2, 52, 60
4, 18959, Note_on_c, 2, 52, 0
4, 18960, Note_on_c, 2, 52, 60
4, 19199, Note_on_c, 2, 52, 0
4, 19200, Note_on_c, 2, 45, 60
4, 19559, Note_on_c, 2, 45, 0
4, 19560, Note_on_c, 2, 45, 60
4, 19679, Note_on_c, 2, 45, 0
4, 19680, Note_on_c, 2, 45, 60
4, 19919, Note_on_c, 2, 45, 0
4, 19920, Note_on_c, 2, 45, 60
4, 20159, Note_on_c, 2, 45, 0
4, 20160, Note_on_c, 2, 48, 60
4, 20519, Note_on_c, 2, 48, 0
4, 20520, Note_on_c, 2, 48, 60
4, 20639, Note_on_c, 2, 48, 0
4, 20640, Note_on_c, 2, 48, 60
4, 20879, Note_on_c, 2, 48, 0
4, 20880, Note_on_c, 2, 48, 60
4, 20999, Note_on_c, 2, 48, 0
4, 21120, Note_on_c, 2, 50, 60
4, 21479, Note_on_c, 2, 50, 0
4, 21480, Note_on_c, 2, 50, 60
4, 21599, Note_on_c, 2, 50, 0
4, 21600, Note_on_c, 2, 50, 60
4, 21839, Note_on_c, 2, 50, 0
4, 21840, Note_on_c, 2, 48, 60
4, 21960, Note_on_c, 2, 47, 60
4, 22079, Note_on_c, 2, 48, 0
4, 22079, Note_on_c, 2, 47, 0
4, 22080, Note_on_c, 2, 40, 60
4, 22439, Note_on_c, 2, 40, 0
4, 22440, Note_on_c, 2, 40, 60
4, 22559, Note_on_c, 2, 40, 0
4, 22560, Note_on_c, 2, 40, 60
4, 22799, Note_on_c, 2, 40, 0
4, 22800, Note_on_c, 2, 40, 60
4, 23039, Note_on_c, 2, 40, 0
4, 23040, Note_on_c, 2, 45, 60
4, 23399, Note_on_c, 2, 45, 0
4, 23400, Note_on_c, 2, 45, 60
4, 23519, Note_on_c, 2, 45, 0
4, 23520, Note_on_c, 2, 45, 60
4, 23759, Note_on_c, 2, 45, 0
4, 23760, Note_on_c, 2, 45, 60
4, 23999, Note_on_c, 2, 45, 0
4, 24000, Note_on_c, 2, 45, 60
4, 24359, Note_on_c, 2, 45, 0
4, 24360, Note_on_c, 2, 45, 60
4, 24479, Note_on_c, 2, 45, 0
4, 24480, Note_on_c, 2, 45, 60
4, 24719, Note_on_c, 2, 45, 0
4, 24720, Note_on_c, 2, 45, 60
4, 24959, Note_on_c, 2, 45, 0
4, 24960, Note_on_c, 2, 50, 60
4, 25319, Note_on_c, 2, 50, 0
4, 25320, Note_on_c, 2, 50, 60
4, 25439, Note_on_c, 2, 50, 0
4, 25440, Note_on_c, 2, 50, 60
4, 25679, Note_on_c, 2, 50, 0
4, 25680, Note_on_c, 2, 50, 60
4, 25919, Note_on_c, 2, 50, 0
4, 25920, Note_on_c, 2, 52, 60
4, 26279, Note_on_c, 2, 52, 0
4, 26280, Note_on_c, 2, 52, 60
4, 26399, Note_on_c, 2, 52, 0
4, 26400, Note_on_c, 2, 52, 60
4, 26639, Note_on_c, 2, 52, 0
4, 26640, Note_on_c, 2, 52, 60
4, 26879, Note_on_c, 2, 52, 0
4, 26880, Note_on_c, 2, 45, 60
4, 27239, Note_on_c, 2, 45, 0
4, 27240, Note_on_c, 2, 45, 60
4, 27359, Note_on_c, 2, 45, 0
4, 27360, Note_on_c, 2, 45, 60
4, 27599, Note_on_c, 2, 45, 0
4, 27600, Note_on_c, 2, 45, 60
4, 27839, Note_on_c, 2, 45, 0
4, 27840, Note_on_c, 2, 48, 60
4, 28199, Note_on_c, 2, 48, 0
4, 28200, Note_on_c, 2, 48, 60
4, 28319, Note_on_c, 2, 48, 0
4, 28320, Note_on_c, 2, 48, 60
4, 28559, Note_on_c, 2, 48, 0
4, 28560, Note_on_c, 2, 48, 60
4, 28679, Note_on_c, 2, 48, 0
4, 28800, Note_on_c, 2, 50, 60
4, 29159, Note_on_c, 2, 50, 0
4, 29160, Note_on_c, 2, 50, 60
4, 29279, Note_on_c, 2, 50, 0
4, 29280, Note_on_c, 2, 50, 60
4, 29519, Note_on_c, 2, 50, 0
4, 29520, Note_on_c, 2, 48, 60
4, 29640, Note_on_c, 2, 47, 60
4, 29759, Note_on_c, 2, 48, 0
4, 29759, Note_on_c, 2, 47, 0
4, 29760, Note_on_c, 2, 40, 60
4, 30119, Note_on_c, 2, 40, 0
4, 30120, Note_on_c, 2, 40, 60
4, 30239, Note_on_c, 2, 40, 0
4, 30240, Note_on_c, 2, 40, 60
4, 30479, Note_on_c, 2, 40, 0
4, 30480, Note_on_c, 2, 40, 60
4, 30719, Note_on_c, 2, 40, 0
4, 30720, Note_on_c, 2, 45, 60
4, 31079, Note_on_c, 2, 45, 0
4, 31080, Note_on_c, 2, 45, 60
4, 31199, Note_on_c, 2, 45, 0
4, 31200, Note_on_c, 2, 45, 60
4, 31439, Note_on_c, 2, 45, 0
4, 31440, Note_on_c, 2, 45, 60
4, 31679, Note_on_c, 2, 45, 0
4, 31680, Note_on_c, 2, 45, 60
4, 32039, Note_on_c, 2, 45, 0
4, 32040, Note_on_c, 2, 47, 60
4, 32159, Note_on_c, 2, 47, 0
4, 32160, Note_on_c, 2, 47, 60
4, 32399, Note_on_c, 2, 47, 0
4, 32400, Note_on_c, 2, 48, 60
4, 32519, Note_on_c, 2, 48, 0
4, 32640, Note_on_c, 2, 50, 60
4, 32999, Note_on_c, 2, 50, 0
4, 33000, Note_on_c, 2, 50, 60
4, 33119, Note_on_c, 2, 50, 0
4, 33120, Note_on_c, 2, 50, 60
4, 33359, Note_on_c, 2, 50, 0
4, 33360, Note_on_c, 2, 48, 60
4, 33480, Note_on_c, 2, 47, 60
4, 33599, Note_on_c, 2, 48, 0
4, 33599, Note_on_c, 2, 47, 0
4, 33600, Note_on_c, 2, 40, 60
4, 33959, Note_on_c, 2, 40, 0
4, 33960, Note_on_c, 2, 41, 60
4, 34079, Note_on_c, 2, 41, 0
4, 34080, Note_on_c, 2, 41, 60
4, 34319, Note_on_c, 2, 41, 0
4, 34320, Note_on_c, 2, 45, 60
4, 34559, Note_on_c, 2, 45, 0
4, 34560, Note_on_c, 2, 45, 60
4, 34919, Note_on_c, 2, 45, 0
4, 34920, Note_on_c, 2, 45, 60
4, 35039, Note_on_c, 2, 45, 0
4, 35040, Note_on_c, 2, 45, 60
4, 35279, Note_on_c, 2, 45, 0
4, 35280, Note_on_c, 2, 45, 60
4, 35519, Note_on_c, 2, 45, 0
4, 35520, Note_on_c, 2, 45, 60
4, 35879, Note_on_c, 2, 45, 0
4, 35880, Note_on_c, 2, 47, 60
4, 35999, Note_on_c, 2, 47, 0
4, 36000, Note_on_c, 2, 47, 60
4, 36239, Note_on_c, 2, 47, 0
4, 36240, Note_on_c, 2, 48, 60
4, 36359, Note_on_c, 2, 48, 0
4, 36480, Note_on_c, 2, 50, 60
4, 36839, Note_on_c, 2, 50, 0
4, 36840, Note_on_c, 2, 50, 60
4, 36959, Note_on_c, 2, 50, 0
4, 36960, Note_on_c, 2, 50, 60
4, 37199, Note_on_c, 2, 50, 0
4, 37200, Note_on_c, 2, 48, 60
4, 37320, Note_on_c, 2, 47, 60
4, 37439, Note_on_c, 2, 48, 0
4, 37439, Note_on_c, 2, 47, 0
4, 37440, Note_on_c, 2, 40, 60
4, 37799, Note_on_c, 2, 40, 0
4, 37800, Note_on_c, 2, 41, 60
4, 37919, Note_on_c, 2, 41, 0
4, 37920, Note_on_c, 2, 41, 60
4, 38159, Note_on_c, 2, 41, 0
4, 38160, Note_on_c, 2, 45, 60
4, 38399, Note_on_c, 2, 45, 0
4, 38400, Note_on_c, 2, 45, 60
4, 38759, Note_on_c, 2, 45, 0
4, 38760, Note_on_c, 2, 45, 60
4, 38879, Note_on_c, 2, 45, 0
4, 38880, Note_on_c, 2, 45, 60
4, 39119, Note_on_c, 2, 45, 0
4, 39120, Note_on_c, 2, 48, 60
4, 39359, Note_on_c, 2, 48, 0
4, 39360, Note_on_c, 2, 45, 60
4, 39719, Note_on_c, 2, 45, 0
4, 39720, Note_on_c, 2, 47, 60
4, 39839, Note_on_c, 2, 47, 0
4, 39840, Note_on_c, 2, 47, 60
4, 40079, Note_on_c, 2, 47, 0
4, 40080, Note_on_c, 2, 48, 60
4, 40199, Note_on_c, 2, 48, 0
4, 40320, Note_on_c, 2, 50, 60
4, 40679, Note_on_c, 2, 50, 0
4, 40680, Note_on_c, 2, 50, 60
4, 40799, Note_on_c, 2, 50, 0
4, 40800, Note_on_c, 2, 50, 60
4, 41039, Note_on_c, 2, 50, 0
4, 41040, Note_on_c, 2, 48, 60
4, 41160, Note_on_c, 2, 47, 60
4, 41279, Note_on_c, 2, 48, 0
4, 41279, Note_on_c, 2, 47, 0
4, 41280, Note_on_c, 2, 40, 60
4, 41639, Note_on_c, 2, 40, 0
4, 41640, Note_on_c, 2, 41, 60
4, 41759, Note_on_c, 2, 41, 0
4, 41760, Note_on_c, 2, 41, 60
4, 41999, Note_on_c, 2, 41, 0
4, 42000, Note_on_c, 2, 45, 60
4, 42239, Note_on_c, 2, 45, 0
4, 42240, Note_on_c, 2, 45, 60
4, 42599, Note_on_c, 2, 45, 0
4, 42600, Note_on_c, 2, 45, 60
4, 42719, Note_on_c, 2, 45, 0
4, 42720, Note_on_c, 2, 45, 60
4, 42959, Note_on_c, 2, 45, 0
4, 42960, Note_on_c, 2, 45, 60
4, 43199, Note_on_c, 2, 45, 0
4, 43200, Note_on_c, 2, 45, 60
4, 43559, Note_on_c, 2, 45, 0
4, 43560, Note_on_c, 2, 47, 60
4, 43679, Note_on_c, 2, 47, 0
4, 43680, Note_on_c, 2, 47, 60
4, 43919, Note_on_c, 2, 47, 0
4, 43920, Note_on_c, 2, 48, 60
4, 44039, Note_on_c, 2, 48, 0
4, 44160, Note_on_c, 2, 50, 60
4, 44519, Note_on_c, 2, 50, 0
4, 44520, Note_on_c, 2, 50, 60
4, 44639, Note_on_c, 2, 50, 0
4, 44640, Note_on_c, 2, 50, 60
4, 44879, Note_on_c, 2, 50, 0
4, 44880, Note_on_c, 2, 48, 60
4, 45000, Note_on_c, 2, 47, 60
4, 45119, Note_on_c, 2, 48, 0
4, 45119, Note_on_c, 2, 47, 0
4, 45120, Note_on_c, 2, 40, 60
4, 45480, Note_on_c, 2, 41, 60
4, 45539, Note_on_c, 2, 40, 0
4, 45599, Note_on_c, 2, 41, 0
4, 45600, Note_on_c, 2, 41, 60
4, 45839, Note_on_c, 2, 41, 0
4, 45840, Note_on_c, 2, 45, 60
4, 46079, Note_on_c, 2, 45, 0
4, 46080, Note_on_c, 2, 45, 60
4, 46439, Note_on_c, 2, 45, 0
4, 46440, Note_on_c, 2, 45, 60
4, 46559, Note_on_c, 2, 45, 0
4, 46560, Note_on_c, 2, 45, 60
4, 46799, Note_on_c, 2, 45, 0
4, 46800, Note_on_c, 2, 45, 60
4, 47039, Note_on_c, 2, 45, 0
4, 47040, Note_on_c, 2, 45, 60
4, 47399, Note_on_c, 2, 45, 0
4, 47400, Note_on_c, 2, 45, 60
4, 47519, Note_on_c, 2, 45, 0
4, 47520, Note_on_c, 2, 45, 60
4, 47759, Note_on_c, 2, 45, 0
4, 47760, Note_on_c, 2, 45, 60
4, 47999, Note_on_c, 2, 45, 0
4, 48000, Note_on_c, 2, 50, 60
4, 48359, Note_on_c, 2, 50, 0
4, 48360, Note_on_c, 2, 50, 60
4, 48479, Note_on_c, 2, 50, 0
4, 48480, Note_on_c, 2, 50, 60
4, 48719, Note_on_c, 2, 50, 0
4, 48720, Note_on_c, 2, 50, 60
4, 48959, Note_on_c, 2, 50, 0
4, 48960, Note_on_c, 2, 52, 60
4, 49319, Note_on_c, 2, 52, 0
4, 49320, Note_on_c, 2, 52, 60
4, 49439, Note_on_c, 2, 52, 0
4, 49440, Note_on_c, 2, 52, 60
4, 49679, Note_on_c, 2, 52, 0
4, 49680, Note_on_c, 2, 52, 60
4, 49919, Note_on_c, 2, 52, 0
4, 49920, Note_on_c, 2, 45, 60
4, 50279, Note_on_c, 2, 45, 0
4, 50280, Note_on_c, 2, 45, 60
4, 50399, Note_on_c, 2, 45, 0
4, 50400, Note_on_c, 2, 45, 60
4, 50639, Note_on_c, 2, 45, 0
4, 50640, Note_on_c, 2, 45, 60
4, 50879, Note_on_c, 2, 45, 0
4, 50880, Note_on_c, 2, 48, 60
4, 51239, Note_on_c, 2, 48, 0
4, 51240, Note_on_c, 2, 48, 60
4, 51359, Note_on_c, 2, 48, 0
4, 51360, Note_on_c, 2, 48, 60
4, 51599, Note_on_c, 2, 48, 0
4, 51600, Note_on_c, 2, 48, 60
4, 51719, Note_on_c, 2, 48, 0
4, 51840, Note_on_c, 2, 50, 60
4, 52199, Note_on_c, 2, 50, 0
4, 52200, Note_on_c, 2, 50, 60
4, 52319, Note_on_c, 2, 50, 0
4, 52320, Note_on_c, 2, 50, 60
4, 52559, Note_on_c, 2, 50, 0
4, 52560, Note_on_c, 2, 48, 60
4, 52680, Note_on_c, 2, 47, 60
4, 52799, Note_on_c, 2, 48, 0
4, 52799, Note_on_c, 2, 47, 0
4, 52800, Note_on_c, 2, 40, 60
4, 53159, Note_on_c, 2, 40, 0
4, 53160, Note_on_c, 2, 40, 60
4, 53279, Note_on_c, 2, 40, 0
4, 53280, Note_on_c, 2, 40, 60
4, 53519, Note_on_c, 2, 40, 0
4, 53520, Note_on_c, 2, 40, 60
4, 53759, Note_on_c, 2, 40, 0
4, 53760, Note_on_c, 2, 45, 60
4, 54119, Note_on_c, 2, 45, 0
4, 54120, Note_on_c, 2, 45, 60
4, 54239, Note_on_c, 2, 45, 0
4, 54240, Note_on_c, 2, 45, 60
4, 54479, Note_on_c, 2, 45, 0
4, 54480, Note_on_c, 2, 45, 60
4, 54719, Note_on_c, 2, 45, 0
4, 54720, Note_on_c, 2, 45, 60
4, 55079, Note_on_c, 2, 45, 0
4, 55080, Note_on_c, 2, 45, 60
4, 55199, Note_on_c, 2, 45, 0
4, 55200, Note_on_c, 2, 45, 60
4, 55439, Note_on_c, 2, 45, 0
4, 55440, Note_on_c, 2, 45, 60
4, 55679, Note_on_c, 2, 45, 0
4, 55680, Note_on_c, 2, 50, 60
4, 56039, Note_on_c, 2, 50, 0
4, 56040, Note_on_c, 2, 50, 60
4, 56159, Note_on_c, 2, 50, 0
4, 56160, Note_on_c, 2, 50, 60
4, 56399, Note_on_c, 2, 50, 0
4, 56400, Note_on_c, 2, 50, 60
4, 56639, Note_on_c, 2, 50, 0
4, 56640, Note_on_c, 2, 52, 60
4, 56999, Note_on_c, 2, 52, 0
4, 57000, Note_on_c, 2, 52, 60
4, 57119, Note_on_c, 2, 52, 0
4, 57120, Note_on_c, 2, 52, 60
4, 57359, Note_on_c, 2, 52, 0
4, 57360, Note_on_c, 2, 52, 60
4, 57599, Note_on_c, 2, 52, 0
4, 57600, Note_on_c, 2, 45, 60
4, 57959, Note_on_c, 2, 45, 0
4, 57960, Note_on_c, 2, 45, 60
4, 58079, Note_on_c, 2, 45, 0
4, 58080, Note_on_c, 2, 45, 60
4, 58319, Note_on_c, 2, 45, 0
4, 58320, Note_on_c, 2, 45, 60
4, 58559, Note_on_c, 2, 45, 0
4, 58560, Note_on_c, 2, 48, 60
4, 58919, Note_on_c, 2, 48, 0
4, 58920, Note_on_c, 2, 48, 60
4, 59039, Note_on_c, 2, 48, 0
4, 59040, Note_on_c, 2, 48, 60
4, 59279, Note_on_c, 2, 48, 0
4, 59280, Note_on_c, 2, 48, 60
4, 59399, Note_on_c, 2, 48, 0
4, 59520, Note_on_c, 2, 50, 60
4, 59879, Note_on_c, 2, 50, 0
4, 59880, Note_on_c, 2, 50, 60
4, 59999, Note_on_c, 2, 50, 0
4, 60000, Note_on_c, 2, 50, 60
4, 60239, Note_on_c, 2, 50, 0
4, 60240, Note_on_c, 2, 48, 60
4, 60360, Note_on_c, 2, 47, 60
4, 60479, Note_on_c, 2, 48, 0
4, 60479, Note_on_c, 2, 47, 0
4, 60480, Note_on_c, 2, 40, 60
4, 60839, Note_on_c, 2, 40, 0
4, 60840, Note_on_c, 2, 40, 60
4, 60959, Note_on_c, 2, 40, 0
4, 60960, Note_on_c, 2, 40, 60
4, 61199, Note_on_c, 2, 40, 0
4, 61200, Note_on_c, 2, 40, 60
4, 61439, Note_on_c, 2, 40, 0
4, 61440, Note_on_c, 2, 45, 60
4, 61799, Note_on_c, 2, 45, 0
4, 61800, Note_on_c, 2, 45, 60
4, 61919, Note_on_c, 2, 45, 0
4, 61920, Note_on_c, 2, 45, 60
4, 62159, Note_on_c, 2, 45, 0
4, 62160, Note_on_c, 2, 45, 60
4, 62399, Note_on_c, 2, 45, 0
4, 62400, Note_on_c, 2, 45, 60
4, 62759, Note_on_c, 2, 45, 0
4, 62760, Note_on_c, 2, 47, 60
4, 62879, Note_on_c, 2, 47, 0
4, 62880, Note_on_c, 2, 47, 60
4, 63119, Note_on_c, 2, 47, 0
4, 63120, Note_on_c, 2, 48, 60
4, 63239, Note_on_c, 2, 48, 0
4, 63360, Note_on_c, 2, 50, 60
4, 63719, Note_on_c, 2, 50, 0
4, 63720, Note_on_c, 2, 50, 60
4, 63839, Note_on_c, 2, 50, 0
4, 63840, Note_on_c, 2, 50, 60
4, 64079, Note_on_c, 2, 50, 0
4, 64080, Note_on_c, 2, 48, 60
4, 64200, Note_on_c, 2, 47, 60
4, 64319, Note_on_c, 2, 48, 0
4, 64319, Note_on_c, 2, 47, 0
4, 64320, Note_on_c, 2, 40, 60
4, 64679, Note_on_c, 2, 40, 0
4, 64680, Note_on_c, 2, 41, 60
4, 64799, Note_on_c, 2, 41, 0
4, 64800, Note_on_c, 2, 41, 60
4, 65039, Note_on_c, 2, 41, 0
4, 65040, Note_on_c, 2, 45, 60
4, 65279, Note_on_c, 2, 45, 0
4, 65280, Note_on_c, 2, 45, 60
4, 65639, Note_on_c, 2, 45, 0
4, 65640, Note_on_c, 2, 45, 60
4, 65759, Note_on_c, 2, 45, 0
4, 65760, Note_on_c, 2, 45, 60
4, 65999, Note_on_c, 2, 45, 0
4, 66000, Note_on_c, 2, 45, 60
4, 66239, Note_on_c, 2, 45, 0
4, 66240, Note_on_c, 2, 45, 60
4, 66599, Note_on_c, 2, 45, 0
4, 66600, Note_on_c, 2, 47, 60
4, 66719, Note_on_c, 2, 47, 0
4, 66720, Note_on_c, 2, 47, 60
4, 66959, Note_on_c, 2, 47, 0
4, 66960, Note_on_c, 2, 48, 60
4, 67079, Note_on_c, 2, 48, 0
4, 67200, Note_on_c, 2, 50, 60
4, 67559, Note_on_c, 2, 50, 0
4, 67560, Note_on_c, 2, 50, 60
4, 67679, Note_on_c, 2, 50, 0
4, 67680, Note_on_c, 2, 50, 60
4, 67919, Note_on_c, 2, 50, 0
4, 67920, Note_on_c, 2, 48, 60
4, 68040, Note_on_c, 2, 47, 60
4, 68159, Note_on_c, 2, 48, 0
4, 68159, Note_on_c, 2, 47, 0
4, 68160, Note_on_c, 2, 40, 60
4, 68519, Note_on_c, 2, 40, 0
4, 68520, Note_on_c, 2, 41, 60
4, 68639, Note_on_c, 2, 41, 0
4, 68640, Note_on_c, 2, 41, 60
4, 68879, Note_on_c, 2, 41, 0
4, 68880, Note_on_c, 2, 45, 60
4, 69119, Note_on_c, 2, 45, 0
4, 69120, Note_on_c, 2, 45, 60
4, 69479, Note_on_c, 2, 45, 0
4, 69480, Note_on_c, 2, 45, 60
4, 69599, Note_on_c, 2, 45, 0
4, 69600, Note_on_c, 2, 45, 60
4, 69839, Note_on_c, 2, 45, 0
4, 69840, Note_on_c, 2, 48, 60
4, 70079, Note_on_c, 2, 48, 0
4, 70080, Note_on_c, 2, 45, 60
4, 70439, Note_on_c, 2, 45, 0
4, 70440, Note_on_c, 2, 47, 60
4, 70559, Note_on_c, 2, 47, 0
4, 70560, Note_on_c, 2, 47, 60
4, 70799, Note_on_c, 2, 47, 0
4, 70800, Note_on_c, 2, 48, 60
4, 70919, Note_on_c, 2, 48, 0
4, 71040, Note_on_c, 2, 50, 60
4, 71399, Note_on_c, 2, 50, 0
4, 71400, Note_on_c, 2, 50, 60
4, 71519, Note_on_c, 2, 50, 0
4, 71520, Note_on_c, 2, 50, 60
4, 71759, Note_on_c, 2, 50, 0
4, 71760, Note_on_c, 2, 48, 60
4, 71880, Note_on_c, 2, 47, 60
4, 71999, Note_on_c, 2, 48, 0
4, 71999, Note_on_c, 2, 47, 0
4, 72000, Note_on_c, 2, 40, 60
4, 72359, Note_on_c, 2, 40, 0
4, 72360, Note_on_c, 2, 41, 60
4, 72479, Note_on_c, 2, 41, 0
4, 72480, Note_on_c, 2, 41, 60
4, 72719, Note_on_c, 2, 41, 0
4, 72720, Note_on_c, 2, 45, 60
4, 72959, Note_on_c, 2, 45, 0
4, 72960, Note_on_c, 2, 45, 60
4, 73319, Note_on_c, 2, 45, 0
4, 73320, Note_on_c, 2, 45, 60
4, 73439, Note_on_c, 2, 45, 0
4, 73440, Note_on_c, 2, 45, 60
4, 73679, Note_on_c, 2, 45, 0
4, 73680, Note_on_c, 2, 45, 60
4, 73919, Note_on_c, 2, 45, 0
4, 73920, Note_on_c, 2, 45, 60
4, 74279, Note_on_c, 2, 45, 0
4, 74280, Note_on_c, 2, 47, 60
4, 74399, Note_on_c, 2, 47, 0
4, 74400, Note_on_c, 2, 47, 60
4, 74639, Note_on_c, 2, 47, 0
4, 74640, Note_on_c, 2, 48, 60
4, 74759, Note_on_c, 2, 48, 0
4, 74880, Note_on_c, 2, 50, 60
4, 75239, Note_on_c, 2, 50, 0
4, 75240, Note_on_c, 2, 50, 60
4, 75359, Note_on_c, 2, 50, 0
4, 75360, Note_on_c, 2, 50, 60
4, 75599, Note_on_c, 2, 50, 0
4, 75600, Note_on_c, 2, 48, 60
4, 75720, Note_on_c, 2, 47, 60
4, 75839, Note_on_c, 2, 48, 0
4, 75839, Note_on_c, 2, 47, 0
4, 75840, Note_on_c, 2, 40, 60
4, 76200, Note_on_c, 2, 41, 60
4, 76259, Note_on_c, 2, 40, 0
4, 76319, Note_on_c, 2, 41, 0
4, 76320, Note_on_c, 2, 41, 60
4, 76559, Note_on_c, 2, 41, 0
4, 76560, Note_on_c, 2, 45, 60
4, 76799, Note_on_c, 2, 45, 0
4, 76800, Note_on_c, 2, 45, 60
4, 77159, Note_on_c, 2, 45, 0
4, 77160, Note_on_c, 2, 45, 60
4, 77279, Note_on_c, 2, 45, 0
4, 77280, Note_on_c, 2, 45, 60
4, 77519, Note_on_c, 2, 45, 0
4, 77520, Note_on_c, 2, 45, 60
4, 77759, Note_on_c, 2, 45, 0
4, 77760, Note_on_c, 2, 48, 60
4, 78119, Note_on_c, 2, 48, 0
4, 78120, Note_on_c, 2, 48, 60
4, 78239, Note_on_c, 2, 48, 0
4, 78240, Note_on_c, 2, 48, 60
4, 78479, Note_on_c, 2, 48, 0
4, 78480, Note_on_c, 2, 48, 60
4, 78719, Note_on_c, 2, 48, 0
4, 78720, Note_on_c, 2, 50, 60
4, 79079, Note_on_c, 2, 50, 0
4, 79080, Note_on_c, 2, 50, 60
4, 79199, Note_on_c, 2, 50, 0
4, 79200, Note_on_c, 2, 50, 60
4, 79439, Note_on_c, 2, 50, 0
4, 79440, Note_on_c, 2, 50, 60
4, 79679, Note_on_c, 2, 50, 0
4, 79680, Note_on_c, 2, 52, 60
4, 80039, Note_on_c, 2, 52, 0
4, 80040, Note_on_c, 2, 52, 60
4, 80159, Note_on_c, 2, 52, 0
4, 80160, Note_on_c, 2, 52, 60
4, 80399, Note_on_c, 2, 52, 0
4, 80400, Note_on_c, 2, 52, 60
4, 80639, Note_on_c, 2, 52, 0
4, 80640, Note_on_c, 2, 45, 60
4, 80999, Note_on_c, 2, 45, 0
4, 81000, Note_on_c, 2, 45, 60
4, 81119, Note_on_c, 2, 45, 0
4, 81120, Note_on_c, 2, 45, 60
4, 81359, Note_on_c, 2, 45, 0
4, 81360, Note_on_c, 2, 45, 60
4, 81599, Note_on_c, 2, 45, 0
4, 81600, Note_on_c, 2, 48, 60
4, 81959, Note_on_c, 2, 48, 0
4, 81960, Note_on_c, 2, 48, 60
4, 82079, Note_on_c, 2, 48, 0
4, 82080, Note_on_c, 2, 48, 60
4, 82319, Note_on_c, 2, 48, 0
4, 82320, Note_on_c, 2, 48, 60
4, 82559, Note_on_c, 2, 48, 0
4, 82560, Note_on_c, 2, 50, 60
4, 82919, Note_on_c, 2, 50, 0
4, 82920, Note_on_c, 2, 50, 60
4, 83039, Note_on_c, 2, 50, 0
4, 83040, Note_on_c, 2, 50, 60
4, 83279, Note_on_c, 2, 50, 0
4, 83280, Note_on_c, 2, 50, 60
4, 83519, Note_on_c, 2, 50, 0
4, 83520, Note_on_c, 2, 52, 60
4, 83879, Note_on_c, 2, 52, 0
4, 83880, Note_on_c, 2, 52, 60
4, 83999, Note_on_c, 2, 52, 0
4, 84000, Note_on_c, 2, 52, 60
4, 84239, Note_on_c, 2, 52, 0
4, 84240, Note_on_c, 2, 52, 60
4, 84479, Note_on_c, 2, 52, 0
4, 84480, Note_on_c, 2, 45, 60
4, 84839, Note_on_c, 2, 45, 0
4, 84840, Note_on_c, 2, 45, 60
4, 84959, Note_on_c, 2, 45, 0
4, 84960, Note_on_c, 2, 45, 60
4, 85199, Note_on_c, 2, 45, 0
4, 85200, Note_on_c, 2, 45, 60
4, 85439, Note_on_c, 2, 45, 0
4, 85440, Note_on_c, 2, 48, 60
4, 85799, Note_on_c, 2, 48, 0
4, 85800, Note_on_c, 2, 48, 60
4, 85919, Note_on_c, 2, 48, 0
4, 85920, Note_on_c, 2, 48, 60
4, 86159, Note_on_c, 2, 48, 0
4, 86160, Note_on_c, 2, 48, 60
4, 86399, Note_on_c, 2, 48, 0
4, 86400, Note_on_c, 2, 50, 60
4, 86759, Note_on_c, 2, 50, 0
4, 86760, Note_on_c, 2, 50, 60
4, 86879, Note_on_c, 2, 50, 0
4, 86880, Note_on_c, 2, 50, 60
4, 87119, Note_on_c, 2, 50, 0
4, 87120, Note_on_c, 2, 50, 60
4, 87359, Note_on_c, 2, 50, 0
4, 87360, Note_on_c, 2, 52, 60
4, 87719, Note_on_c, 2, 52, 0
4, 87720, Note_on_c, 2, 52, 60
4, 87839, Note_on_c, 2, 52, 0
4, 87840, Note_on_c, 2, 52, 60
4, 88079, Note_on_c, 2, 52, 0
4, 88080, Note_on_c, 2, 52, 60
4, 88319, Note_on_c, 2, 52, 0
4, 88320, Note_on_c, 2, 45, 60
4, 88679, Note_on_c, 2, 45, 0
4, 88680, Note_on_c, 2, 45, 60
4, 88799, Note_on_c, 2, 45, 0
4, 88800, Note_on_c, 2, 45, 60
4, 89039, Note_on_c, 2, 45, 0
4, 89040, Note_on_c, 2, 45, 60
4, 89279, Note_on_c, 2, 45, 0
4, 89280, Note_on_c, 2, 48, 60
4, 89639, Note_on_c, 2, 48, 0
4, 89640, Note_on_c, 2, 48, 60
4, 89759, Note_on_c, 2, 48, 0
4, 89760, Note_on_c, 2, 48, 60
4, 89999, Note_on_c, 2, 48, 0
4, 90000, Note_on_c, 2, 48, 60
4, 90239, Note_on_c, 2, 48, 0
4, 90240, Note_on_c, 2, 50, 60
4, 90599, Note_on_c, 2, 50, 0
4, 90600, Note_on_c, 2, 50, 60
4, 90719, Note_on_c, 2, 50, 0
4, 90720, Note_on_c, 2, 50, 60
4, 90959, Note_on_c, 2, 50, 0
4, 90960, Note_on_c, 2, 50, 60
4, 91199, Note_on_c, 2, 50, 0
4, 91200, Note_on_c, 2, 52, 60
4, 91559, Note_on_c, 2, 52, 0
4, 91560, Note_on_c, 2, 52, 60
4, 91679, Note_on_c, 2, 52, 0
4, 91680, Note_on_c, 2, 52, 60
4, 91919, Note_on_c, 2, 52, 0
4, 91920, Note_on_c, 2, 52, 60
4, 92159, Note_on_c, 2, 52, 0
4, 92160, Note_on_c, 2, 45, 60
4, 92519, Note_on_c, 2, 45, 0
4, 92520, Note_on_c, 2, 45, 60
4, 92639, Note_on_c, 2, 45, 0
4, 92640, Note_on_c, 2, 45, 60
4, 92879, Note_on_c, 2, 45, 0
4, 92880, Note_on_c, 2, 45, 60
4, 93119, Note_on_c, 2, 45, 0
4, 93120, Note_on_c, 2, 45, 60
4, 93479, Note_on_c, 2, 45, 0
4, 93480, Note_on_c, 2, 47, 60
4, 93599, Note_on_c, 2, 47, 0
4, 93600, Note_on_c, 2, 47, 60
4, 93839, Note_on_c, 2, 47, 0
4, 93840, Note_on_c, 2, 48, 60
4, 93959, Note_on_c, 2, 48, 0
4, 94080, Note_on_c, 2, 50, 60
4, 94439, Note_on_c, 2, 50, 0
4, 94440, Note_on_c, 2, 50, 60
4, 94559, Note_on_c, 2, 50, 0
4, 94560, Note_on_c, 2, 50, 60
4, 94799, Note_on_c, 2, 50, 0
4, 94800, Note_on_c, 2, 48, 60
4, 94920, Note_on_c, 2, 47, 60
4, 95039, Note_on_c, 2, 48, 0
4, 95039, Note_on_c, 2, 47, 0
4, 95040, Note_on_c, 2, 40, 60
4, 95399, Note_on_c, 2, 40, 0
4, 95400, Note_on_c, 2, 41, 60
4, 95519, Note_on_c, 2, 41, 0
4, 95520, Note_on_c, 2, 41, 60
4, 95759, Note_on_c, 2, 41, 0
4, 95760, Note_on_c, 2, 45, 60
4, 95999, Note_on_c, 2, 45, 0
4, 96000, Note_on_c, 2, 45, 60
4, 96359, Note_on_c, 2, 45, 0
4, 96360, Note_on_c, 2, 45, 60
4, 96479, Note_on_c, 2, 45, 0
4, 96480, Note_on_c, 2, 45, 60
4, 96719, Note_on_c, 2, 45, 0
4, 96720, Note_on_c, 2, 45, 60
4, 96959, Note_on_c, 2, 45, 0
4, 96960, Note_on_c, 2, 45, 60
4, 97319, Note_on_c, 2, 45, 0
4, 97320, Note_on_c, 2, 47, 60
4, 97439, Note_on_c, 2, 47, 0
4, 97440, Note_on_c, 2, 47, 60
4, 97679, Note_on_c, 2, 47, 0
4, 97680, Note_on_c, 2, 48, 60
4, 97799, Note_on_c, 2, 48, 0
4, 97920, Note_on_c, 2, 50, 60
4, 98279, Note_on_c, 2, 50, 0
4, 98280, Note_on_c, 2, 50, 60
4, 98399, Note_on_c, 2, 50, 0
4, 98400, Note_on_c, 2, 50, 60
4, 98639, Note_on_c, 2, 50, 0
4, 98640, Note_on_c, 2, 48, 60
4, 98760, Note_on_c, 2, 47, 60
4, 98879, Note_on_c, 2, 48, 0
4, 98879, Note_on_c, 2, 47, 0
4, 98880, Note_on_c, 2, 40, 60
4, 99239, Note_on_c, 2, 40, 0
4, 99240, Note_on_c, 2, 41, 60
4, 99359, Note_on_c, 2, 41, 0
4, 99360, Note_on_c, 2, 41, 60
4, 99599, Note_on_c, 2, 41, 0
4, 99600, Note_on_c, 2, 45, 60
4, 99839, Note_on_c, 2, 45, 0
4, 99840, Note_on_c, 2, 45, 60
4, 100199, Note_on_c, 2, 45, 0
4, 100200, Note_on_c, 2, 45, 60
4, 100319, Note_on_c, 2, 45, 0
4, 100320, Note_on_c, 2, 45, 60
4, 100559, Note_on_c, 2, 45, 0
4, 100560, Note_on_c, 2, 48, 60
4, 100799, Note_on_c, 2, 48, 0
4, 100800, Note_on_c, 2, 45, 60
4, 101159, Note_on_c, 2, 45, 0
4, 101160, Note_on_c, 2, 47, 60
4, 101279, Note_on_c, 2, 47, 0
4, 101280, Note_on_c, 2, 47, 60
4, 101519, Note_on_c, 2, 47, 0
4, 101520, Note_on_c, 2, 48, 60
4, 101639, Note_on_c, 2, 48, 0
4, 101760, Note_on_c, 2, 50, 60
4, 102119, Note_on_c, 2, 50, 0
4, 102120, Note_on_c, 2, 50, 60
4, 102239, Note_on_c, 2, 50, 0
4, 102240, Note_on_c, 2, 50, 60
4, 102479, Note_on_c, 2, 50, 0
4, 102480, Note_on_c, 2, 48, 60
4, 102600, Note_on_c, 2, 47, 60
4, 102719, Note_on_c, 2, 48, 0
4, 102719, Note_on_c, 2, 47, 0
4, 102720, Note_on_c, 2, 40, 60
4, 103079, Note_on_c, 2, 40, 0
4, 103080, Note_on_c, 2, 41, 60
4, 103199, Note_on_c, 2, 41, 0
4, 103200, Note_on_c, 2, 41, 60
4, 103439, Note_on_c, 2, 41, 0
4, 103440, Note_on_c, 2, 45, 60
4, 103679, Note_on_c, 2, 45, 0
4, 103680, Note_on_c, 2, 45, 60
4, 104039, Note_on_c, 2, 45, 0
4, 104040, Note_on_c, 2, 45, 60
4, 104159, Note_on_c, 2, 45, 0
4, 104160, Note_on_c, 2, 45, 60
4, 104399, Note_on_c, 2, 45, 0
4, 104400, Note_on_c, 2, 45, 60
4, 104639, Note_on_c, 2, 45, 0
4, 104640, Note_on_c, 2, 45, 60
4, 104999, Note_on_c, 2, 45, 0
4, 105000, Note_on_c, 2, 47, 60
4, 105119, Note_on_c, 2, 47, 0
4, 105120, Note_on_c, 2, 47, 60
4, 105359, Note_on_c, 2, 47, 0
4, 105360, Note_on_c, 2, 48, 60
4, 105479, Note_on_c, 2, 48, 0
4, 105600, Note_on_c, 2, 50, 60
4, 105959, Note_on_c, 2, 50, 0
4, 105960, Note_on_c, 2, 50, 60
4, 106079, Note_on_c, 2, 50, 0
4, 106080, Note_on_c, 2, 50, 60
4, 106319, Note_on_c, 2, 50, 0
4, 106320, Note_on_c, 2, 48, 60
4, 106440, Note_on_c, 2, 47, 60
4, 106559, Note_on_c, 2, 48, 0
4, 106559, Note_on_c, 2, 47, 0
4, 106560, Note_on_c, 2, 40, 60
4, 106919, Note_on_c, 2, 40, 0
4, 106920, Note_on_c, 2, 40, 60
4, 107039, Note_on_c, 2, 40, 0
4, 107040, Note_on_c, 2, 40, 60
4, 107279, Note_on_c, 2, 40, 0
4, 107280, Note_on_c, 2, 40, 60
4, 107519, Note_on_c, 2, 40, 0
4, 107520, Note_on_c, 2, 45, 60
4, 107879, Note_on_c, 2, 45, 0
4, 107880, Note_on_c, 2, 45, 60
4, 107999, Note_on_c, 2, 45, 0
4, 108000, Note_on_c, 2, 45, 60
4, 108239, Note_on_c, 2, 45, 0
4, 108240, Note_on_c, 2, 45, 60
4, 108479, Note_on_c, 2, 45, 0
4, 108480, Note_on_c, 2, 45, 60
4, 108839, Note_on_c, 2, 45, 0
4, 108840, Note_on_c, 2, 47, 60
4, 108959, Note_on_c, 2, 47, 0
4, 108960, Note_on_c, 2, 47, 60
4, 109199, Note_on_c, 2, 47, 0
4, 109200, Note_on_c, 2, 48, 60
4, 109439, Note_on_c, 2, 48, 0
4, 109440, Note_on_c, 2, 50, 60
4, 109799, Note_on_c, 2, 50, 0
4, 109800, Note_on_c, 2, 50, 60
4, 109919, Note_on_c, 2, 50, 0
4, 109920, Note_on_c, 2, 50, 60
4, 110159, Note_on_c, 2, 50, 0
4, 110160, Note_on_c, 2, 48, 60
4, 110279, Note_on_c, 2, 48, 0
4, 110280, Note_on_c, 2, 47, 60
4, 110399, Note_on_c, 2, 47, 0
4, 110400, Note_on_c, 2, 40, 60
4, 110759, Note_on_c, 2, 40, 0
4, 110760, Note_on_c, 2, 41, 60
4, 110879, Note_on_c, 2, 41, 0
4, 110880, Note_on_c, 2, 41, 60
4, 111119, Note_on_c, 2, 41, 0
4, 111120, Note_on_c, 2, 45, 60
4, 111359, Note_on_c, 2, 45, 0
4, 111360, Note_on_c, 2, 45, 60
4, 111719, Note_on_c, 2, 45, 0
4, 111720, Note_on_c, 2, 45, 60
4, 111839, Note_on_c, 2, 45, 0
4, 111840, Note_on_c, 2, 45, 60
4, 112079, Note_on_c, 2, 45, 0
4, 112080, Note_on_c, 2, 45, 60
4, 112319, Note_on_c, 2, 45, 0
4, 112320, Note_on_c, 2, 45, 60
4, 112679, Note_on_c, 2, 45, 0
4, 112680, Note_on_c, 2, 47, 60
4, 112799, Note_on_c, 2, 47, 0
4, 112800, Note_on_c, 2, 47, 60
4, 113039, Note_on_c, 2, 47, 0
4, 113040, Note_on_c, 2, 48, 60
4, 113279, Note_on_c, 2, 48, 0
4, 113280, Note_on_c, 2, 50, 60
4, 113639, Note_on_c, 2, 50, 0
4, 113640, Note_on_c, 2, 50, 60
4, 113759, Note_on_c, 2, 50, 0
4, 113760, Note_on_c, 2, 50, 60
4, 113880, Note_on_c, 2, 48, 60
4, 113999, Note_on_c, 2, 50, 0
4, 113999, Note_on_c, 2, 48, 0
4, 114120, Note_on_c, 2, 47, 60
4, 114239, Note_on_c, 2, 47, 0
4, 114240, Note_on_c, 2, 40, 60
4, 114599, Note_on_c, 2, 40, 0
4, 114600, Note_on_c, 2, 41, 60
4, 114719, Note_on_c, 2, 41, 0
4, 114720, Note_on_c, 2, 41, 60
4, 114959, Note_on_c, 2, 41, 0
4, 114960, Note_on_c, 2, 45, 60
4, 115199, Note_on_c, 2, 45, 0
4, 115200, Note_on_c, 2, 45, 60
4, 115559, Note_on_c, 2, 45, 0
4, 115560, Note_on_c, 2, 45, 60
4, 115679, Note_on_c, 2, 45, 0
4, 115680, Note_on_c, 2, 45, 60
4, 115919, Note_on_c, 2, 45, 0
4, 115920, Note_on_c, 2, 45, 60
4, 116159, Note_on_c, 2, 45, 0
4, 116160, Note_on_c, 2, 45, 60
4, 116519, Note_on_c, 2, 45, 0
4, 116520, Note_on_c, 2, 47, 60
4, 116639, Note_on_c, 2, 47, 0
4, 116640, Note_on_c, 2, 47, 60
4, 116879, Note_on_c, 2, 47, 0
4, 116880, Note_on_c, 2, 48, 60
4, 117119, Note_on_c, 2, 48, 0
4, 117120, Note_on_c, 2, 50, 60
4, 117479, Note_on_c, 2, 50, 0
4, 117480, Note_on_c, 2, 50, 60
4, 117599, Note_on_c, 2, 50, 0
4, 117600, Note_on_c, 2, 50, 60
4, 117720, Note_on_c, 2, 48, 60
4, 117839, Note_on_c, 2, 50, 0
4, 117839, Note_on_c, 2, 48, 0
4, 117960, Note_on_c, 2, 47, 60
4, 118079, Note_on_c, 2, 47, 0
4, 118080, Note_on_c, 2, 40, 60
4, 118439, Note_on_c, 2, 40, 0
4, 118440, Note_on_c, 2, 41, 60
4, 118559, Note_on_c, 2, 41, 0
4, 118560, Note_on_c, 2, 41, 60
4, 118799, Note_on_c, 2, 41, 0
4, 118800, Note_on_c, 2, 45, 60
4, 119039, Note_on_c, 2, 45, 0
4, 119040, Note_on_c, 2, 45, 60
4, 119399, Note_on_c, 2, 45, 0
4, 119400, Note_on_c, 2, 45, 60
4, 119519, Note_on_c, 2, 45, 0
4, 119520, Note_on_c, 2, 45, 60
4, 119759, Note_on_c, 2, 45, 0
4, 119760, Note_on_c, 2, 45, 60
4, 119999, Note_on_c, 2, 45, 0
4, 120000, Note_on_c, 2, 45, 60
4, 120359, Note_on_c, 2, 45, 0
4, 120360, Note_on_c, 2, 47, 60
4, 120479, Note_on_c, 2, 47, 0
4, 120480, Note_on_c, 2, 47, 60
4, 120719, Note_on_c, 2, 47, 0
4, 120720, Note_on_c, 2, 48, 60
4, 120959, Note_on_c, 2, 48, 0
4, 120960, Note_on_c, 2, 50, 60
4, 121319, Note_on_c, 2, 50, 0
4, 121320, Note_on_c, 2, 50, 60
4, 121439, Note_on_c, 2, 50, 0
4, 121440, Note_on_c, 2, 50, 60
4, 121559, Note_on_c, 2, 50, 0
4, 121680, Note_on_c, 2, 48, 60
4, 121799, Note_on_c, 2, 48, 0
4, 121800, Note_on_c, 2, 47, 60
4, 121919, Note_on_c, 2, 47, 0
4, 121920, Note_on_c, 2, 40, 60
4, 122279, Note_on_c, 2, 40, 0
4, 122280, Note_on_c, 2, 40, 60
4, 122399, Note_on_c, 2, 40, 0
4, 122400, Note_on_c, 2, 40, 60
4, 122639, Note_on_c, 2, 40, 0
4, 122640, Note_on_c, 2, 40, 60
4, 122879, Note_on_c, 2, 40, 0
4, 122880, Note_on_c, 2, 45, 60
4, 123839, Note_on_c, 2, 45, 0
4, 123839, End_track
5, 0, Start_track
5, 0, Title_t, "Acoustic Guitar"
5, 0, MIDI_port, 0
5, 0, Program_c, 3, 24
5, 0, Control_c, 3, 7, 70
5, 0, Control_c, 3, 1, 127
5, 0, Note_on_c, 3, 45, 127
5, 959, Note_on_c, 3, 45, 0
5, 1920, Note_on_c, 3, 50, 127
5, 2879, Note_on_c, 3, 50, 0
5, 2880, Note_on_c, 3, 52, 127
5, 3839, Note_on_c, 3, 52, 0
5, 3840, Note_on_c, 3, 45, 90
5, 4799, Note_on_c, 3, 45, 0
5, 4800, Note_on_c, 3, 45, 90
5, 4800, Note_on_c, 3, 48, 90
5, 5759, Note_on_c, 3, 45, 0
5, 5759, Note_on_c, 3, 48, 0
5, 5760, Note_on_c, 3, 50, 127
5, 6719, Note_on_c, 3, 50, 0
5, 6720, Note_on_c, 3, 40, 127
5, 7679, Note_on_c, 3, 40, 0
5, 7680, Note_on_c, 3, 45, 127
5, 8639, Note_on_c, 3, 45, 0
5, 9600, Note_on_c, 3, 50, 127
5, 10559, Note_on_c, 3, 50, 0
5, 10560, Note_on_c, 3, 52, 127
5, 11519, Note_on_c, 3, 52, 0
5, 11520, Note_on_c, 3, 45, 127
5, 12479, Note_on_c, 3, 45, 0
5, 12480, Note_on_c, 3, 45, 90
5, 12480, Note_on_c, 3, 48, 90
5, 13439, Note_on_c, 3, 45, 0
5, 13439, Note_on_c, 3, 48, 0
5, 13440, Note_on_c, 3, 50, 127
5, 14399, Note_on_c, 3, 50, 0
5, 14400, Note_on_c, 3, 40, 127
5, 15359, Note_on_c, 3, 40, 0
5, 15360, Note_on_c, 3, 45, 127
5, 16319, Note_on_c, 3, 45, 0
5, 17280, Note_on_c, 3, 50, 127
5, 18239, Note_on_c, 3, 50, 0
5, 18240, Note_on_c, 3, 52, 127
5, 19199, Note_on_c, 3, 52, 0
5, 19200, Note_on_c, 3, 45, 127
5, 20159, Note_on_c, 3, 45, 0
5, 20160, Note_on_c, 3, 45, 90
5, 20160, Note_on_c, 3, 48, 90
5, 21119, Note_on_c, 3, 45, 0
5, 21119, Note_on_c, 3, 48, 0
5, 21120, Note_on_c, 3, 50, 127
5, 22079, Note_on_c, 3, 50, 0
5, 22080, Note_on_c, 3, 40, 127
5, 23039, Note_on_c, 3, 40, 0
5, 23040, Note_on_c, 3, 45, 127
5, 23999, Note_on_c, 3, 45, 0
5, 24960, Note_on_c, 3, 50, 127
5, 25919, Note_on_c, 3, 50, 0
5, 25920, Note_on_c, 3, 52, 127
5, 26879, Note_on_c, 3, 52, 0
5, 26880, Note_on_c, 3, 45, 127
5, 27839, Note_on_c, 3, 45, 0
5, 27840, Note_on_c, 3, 45, 90
5, 27840, Note_on_c, 3, 48, 90
5, 28799, Note_on_c, 3, 45, 0
5, 28799, Note_on_c, 3, 48, 0
5, 28800, Note_on_c, 3, 50, 127
5, 29759, Note_on_c, 3, 50, 0
5, 29760, Note_on_c, 3, 40, 127
5, 30719, Note_on_c, 3, 40, 0
5, 30720, Note_on_c, 3, 45, 127
5, 31679, Note_on_c, 3, 45, 0
5, 32640, Note_on_c, 3, 50, 127
5, 33599, Note_on_c, 3, 50, 0
5, 33600, Note_on_c, 3, 40, 127
5, 34559, Note_on_c, 3, 40, 0
5, 34560, Note_on_c, 3, 45, 127
5, 35519, Note_on_c, 3, 45, 0
5, 36480, Note_on_c, 3, 50, 127
5, 37439, Note_on_c, 3, 50, 0
5, 37440, Note_on_c, 3, 40, 127
5, 38399, Note_on_c, 3, 40, 0
5, 38400, Note_on_c, 3, 45, 127
5, 39359, Note_on_c, 3, 45, 0
5, 40320, Note_on_c, 3, 50, 127
5, 41279, Note_on_c, 3, 50, 0
5, 41280, Note_on_c, 3, 40, 127
5, 42239, Note_on_c, 3, 40, 0
5, 42240, Note_on_c, 3, 45, 127
5, 43199, Note_on_c, 3, 45, 0
5, 44160, Note_on_c, 3, 50, 127
5, 45119, Note_on_c, 3, 50, 0
5, 45120, Note_on_c, 3, 40, 127
5, 46079, Note_on_c, 3, 40, 0
5, 46080, Note_on_c, 3, 45, 127
5, 47039, Note_on_c, 3, 45, 0
5, 48000, Note_on_c, 3, 50, 127
5, 48959, Note_on_c, 3, 50, 0
5, 48960, Note_on_c, 3, 52, 127
5, 49919, Note_on_c, 3, 52, 0
5, 49920, Note_on_c, 3, 45, 127
5, 50879, Note_on_c, 3, 45, 0
5, 50880, Note_on_c, 3, 45, 90
5, 50880, Note_on_c, 3, 48, 90
5, 51839, Note_on_c, 3, 45, 0
5, 51839, Note_on_c, 3, 48, 0
5, 51840, Note_on_c, 3, 50, 127
5, 52799, Note_on_c, 3, 50, 0
5, 52800, Note_on_c, 3, 40, 127
5, 53759, Note_on_c, 3, 40, 0
5, 53760, Note_on_c, 3, 45, 127
5, 54719, Note_on_c, 3, 45, 0
5, 55680, Note_on_c, 3, 50, 127
5, 56639, Note_on_c, 3, 50, 0
5, 56640, Note_on_c, 3, 52, 127
5, 57599, Note_on_c, 3, 52, 0
5, 57600, Note_on_c, 3, 45, 127
5, 58559, Note_on_c, 3, 45, 0
5, 58560, Note_on_c, 3, 45, 90
5, 58560, Note_on_c, 3, 48, 90
5, 59519, Note_on_c, 3, 45, 0
5, 59519, Note_on_c, 3, 48, 0
5, 59520, Note_on_c, 3, 50, 127
5, 60479, Note_on_c, 3, 50, 0
5, 60480, Note_on_c, 3, 40, 127
5, 61439, Note_on_c, 3, 40, 0
5, 61440, Note_on_c, 3, 45, 127
5, 62399, Note_on_c, 3, 45, 0
5, 63360, Note_on_c, 3, 50, 127
5, 64319, Note_on_c, 3, 50, 0
5, 64320, Note_on_c, 3, 40, 127
5, 65279, Note_on_c, 3, 40, 0
5, 65280, Note_on_c, 3, 45, 127
5, 66239, Note_on_c, 3, 45, 0
5, 67200, Note_on_c, 3, 50, 127
5, 68159, Note_on_c, 3, 50, 0
5, 68160, Note_on_c, 3, 40, 127
5, 69119, Note_on_c, 3, 40, 0
5, 69120, Note_on_c, 3, 45, 127
5, 70079, Note_on_c, 3, 45, 0
5, 71040, Note_on_c, 3, 50, 127
5, 71999, Note_on_c, 3, 50, 0
5, 72000, Note_on_c, 3, 40, 127
5, 72959, Note_on_c, 3, 40, 0
5, 72960, Note_on_c, 3, 45, 127
5, 73919, Note_on_c, 3, 45, 0
5, 74880, Note_on_c, 3, 50, 127
5, 75839, Note_on_c, 3, 50, 0
5, 75840, Note_on_c, 3, 40, 127
5, 76799, Note_on_c, 3, 40, 0
5, 76800, Note_on_c, 3, 45, 127
5, 77759, Note_on_c, 3, 45, 0
5, 77760, Note_on_c, 3, 45, 90
5, 77760, Note_on_c, 3, 48, 90
5, 78719, Note_on_c, 3, 45, 0
5, 78719, Note_on_c, 3, 48, 0
5, 78720, Note_on_c, 3, 50, 127
5, 79679, Note_on_c, 3, 50, 0
5, 79680, Note_on_c, 3, 52, 127
5, 80639, Note_on_c, 3, 52, 0
5, 80640, Note_on_c, 3, 45, 127
5, 81599, Note_on_c, 3, 45, 0
5, 81600, Note_on_c, 3, 45, 90
5, 81600, Note_on_c, 3, 48, 90
5, 82559, Note_on_c, 3, 45, 0
5, 82559, Note_on_c, 3, 48, 0
5, 82560, Note_on_c, 3, 50, 127
5, 83519, Note_on_c, 3, 50, 0
5, 83520, Note_on_c, 3, 52, 127
5, 84479, Note_on_c, 3, 52, 0
5, 84480, Note_on_c, 3, 45, 127
5, 85439, Note_on_c, 3, 45, 0
5, 85440, Note_on_c, 3, 45, 90
5, 85440, Note_on_c, 3, 48, 90
5, 86399, Note_on_c, 3, 45, 0
5, 86399, Note_on_c, 3, 48, 0
5, 86400, Note_on_c, 3, 50, 127
5, 87359, Note_on_c, 3, 50, 0
5, 87360, Note_on_c, 3, 52, 127
5, 88319, Note_on_c, 3, 52, 0
5, 88320, Note_on_c, 3, 45, 127
5, 89279, Note_on_c, 3, 45, 0
5, 89280, Note_on_c, 3, 45, 90
5, 89280, Note_on_c, 3, 48, 90
5, 90239, Note_on_c, 3, 45, 0
5, 90239, Note_on_c, 3, 48, 0
5, 90240, Note_on_c, 3, 50, 127
5, 91199, Note_on_c, 3, 50, 0
5, 91200, Note_on_c, 3, 52, 127
5, 92159, Note_on_c, 3, 52, 0
5, 92160, Note_on_c, 3, 45, 127
5, 93119, Note_on_c, 3, 45, 0
5, 94080, Note_on_c, 3, 50, 127
5, 95039, Note_on_c, 3, 50, 0
5, 95040, Note_on_c, 3, 40, 127
5, 95999, Note_on_c, 3, 40, 0
5, 96000, Note_on_c, 3, 45, 127
5, 96959, Note_on_c, 3, 45, 0
5, 97920, Note_on_c, 3, 50, 127
5, 98879, Note_on_c, 3, 50, 0
5, 98880, Note_on_c, 3, 40, 127
5, 99839, Note_on_c, 3, 40, 0
5, 99840, Note_on_c, 3, 45, 127
5, 100079, Note_on_c, 3, 45, 0
5, 101760, Note_on_c, 3, 50, 127
5, 101879, Note_on_c, 3, 50, 0
5, 102720, Note_on_c, 3, 40, 127
5, 102959, Note_on_c, 3, 40, 0
5, 103680, Note_on_c, 3, 45, 127
5, 103919, Note_on_c, 3, 45, 0
5, 105600, Note_on_c, 3, 50, 127
5, 105839, Note_on_c, 3, 50, 0
5, 106560, Note_on_c, 3, 40, 127
5, 107519, Note_on_c, 3, 40, 0
5, 107520, Note_on_c, 3, 45, 127
5, 108479, Note_on_c, 3, 45, 0
5, 109440, Note_on_c, 3, 50, 127
5, 110399, Note_on_c, 3, 50, 0
5, 110400, Note_on_c, 3, 40, 127
5, 111359, Note_on_c, 3, 40, 0
5, 111360, Note_on_c, 3, 45, 127
5, 112319, Note_on_c, 3, 45, 0
5, 113280, Note_on_c, 3, 50, 127
5, 114239, Note_on_c, 3, 50, 0
5, 114240, Note_on_c, 3, 40, 127
5, 115199, Note_on_c, 3, 40, 0
5, 115200, Note_on_c, 3, 45, 127
5, 116159, Note_on_c, 3, 45, 0
5, 117120, Note_on_c, 3, 50, 127
5, 118079, Note_on_c, 3, 50, 0
5, 118080, Note_on_c, 3, 40, 127
5, 119039, Note_on_c, 3, 40, 0
5, 119040, Note_on_c, 3, 45, 127
5, 119999, Note_on_c, 3, 45, 0
5, 120960, Note_on_c, 3, 50, 127
5, 121919, Note_on_c, 3, 50, 0
5, 121920, Note_on_c, 3, 40, 127
5, 122879, Note_on_c, 3, 40, 0
5, 122880, Note_on_c, 3, 45, 127
5, 123839, Note_on_c, 3, 45, 0
5, 123839, End_track
6, 0, Start_track
6, 0, Title_t, "Brass & Lead"
6, 0, MIDI_port, 0
6, 0, Program_c, 4, 87
6, 0, Control_c, 4, 7, 127
6, 16320, Note_on_c, 4, 52, 60
6, 16559, Note_on_c, 4, 52, 0
6, 16560, Note_on_c, 4, 52, 60
6, 16679, Note_on_c, 4, 52, 0
6, 16680, Note_on_c, 4, 52, 60
6, 16799, Note_on_c, 4, 52, 0
6, 16800, Note_on_c, 4, 52, 60
6, 16919, Note_on_c, 4, 52, 0
6, 16920, Note_on_c, 4, 52, 60
6, 17159, Note_on_c, 4, 52, 0
6, 17160, Note_on_c, 4, 52, 60
6, 17279, Note_on_c, 4, 52, 0
6, 17280, Note_on_c, 4, 53, 60
6, 17519, Note_on_c, 4, 53, 0
6, 17520, Note_on_c, 4, 53, 60
6, 17639, Note_on_c, 4, 53, 0
6, 17640, Note_on_c, 4, 53, 60
6, 17760, Note_on_c, 4, 53, 60
6, 17878, Note_on_c, 4, 53, 0
6, 17878, Note_on_c, 4, 53, 0
6, 19920, Note_on_c, 4, 48, 60
6, 20039, Note_on_c, 4, 48, 0
6, 20040, Note_on_c, 4, 48, 60
6, 20159, Note_on_c, 4, 48, 0
6, 20160, Note_on_c, 4, 48, 60
6, 20399, Note_on_c, 4, 48, 0
6, 20400, Note_on_c, 4, 48, 60
6, 20519, Note_on_c, 4, 48, 0
6, 20520, Note_on_c, 4, 50, 60
6, 20639, Note_on_c, 4, 50, 0
6, 20640, Note_on_c, 4, 50, 60
6, 20759, Note_on_c, 4, 50, 0
6, 20760, Note_on_c, 4, 48, 60
6, 20879, Note_on_c, 4, 48, 0
6, 20880, Note_on_c, 4, 50, 60
6, 21119, Note_on_c, 4, 50, 0
6, 21120, Note_on_c, 4, 47, 60
6, 21359, Note_on_c, 4, 47, 0
6, 24000, Note_on_c, 4, 52, 60
6, 24239, Note_on_c, 4, 52, 0
6, 24240, Note_on_c, 4, 52, 60
6, 24359, Note_on_c, 4, 52, 0
6, 24360, Note_on_c, 4, 52, 60
6, 24479, Note_on_c, 4, 52, 0
6, 24480, Note_on_c, 4, 52, 60
6, 24599, Note_on_c, 4, 52, 0
6, 24600, Note_on_c, 4, 52, 60
6, 24839, Note_on_c, 4, 52, 0
6, 24840, Note_on_c, 4, 52, 60
6, 25079, Note_on_c, 4, 52, 0
6, 25200, Note_on_c, 4, 50, 60
6, 25319, Note_on_c, 4, 50, 0
6, 25320, Note_on_c, 4, 50, 60
6, 25439, Note_on_c, 4, 50, 0
6, 25440, Note_on_c, 4, 50, 60
6, 25919, Note_on_c, 4, 50, 0
6, 27720, Note_on_c, 4, 48, 60
6, 27839, Note_on_c, 4, 48, 0
6, 27840, Note_on_c, 4, 48, 60
6, 27959, Note_on_c, 4, 48, 0
6, 27960, Note_on_c, 4, 48, 60
6, 28019, Note_on_c, 4, 48, 0
6, 28200, Note_on_c, 4, 52, 60
6, 28259, Note_on_c, 4, 52, 0
6, 28320, Note_on_c, 4, 52, 60
6, 28349, Note_on_c, 4, 52, 0
6, 28440, Note_on_c, 4, 45, 60
6, 28469, Note_on_c, 4, 45, 0
6, 28680, Note_on_c, 4, 47, 60
6, 28859, Note_on_c, 4, 47, 0
6, 28860, Note_on_c, 4, 47, 60
6, 29579, Note_on_c, 4, 47, 0
6, 31920, Note_on_c, 4, 48, 60
6, 32039, Note_on_c, 4, 48, 0
6, 32040, Note_on_c, 4, 50, 60
6, 32159, Note_on_c, 4, 50, 0
6, 32160, Note_on_c, 4, 50, 60
6, 32279, Note_on_c, 4, 50, 0
6, 32280, Note_on_c, 4, 48, 60
6, 32644, Note_on_c, 4, 48, 0
6, 33600, Note_on_c, 4, 53, 60
6, 33839, Note_on_c, 4, 53, 0
6, 33840, Note_on_c, 4, 52, 60
6, 33959, Note_on_c, 4, 52, 0
6, 33960, Note_on_c, 4, 52, 60
6, 34079, Note_on_c, 4, 52, 0
6, 34080, Note_on_c, 4, 52, 60
6, 34199, Note_on_c, 4, 52, 0
6, 34200, Note_on_c, 4, 52, 60
6, 35159, Note_on_c, 4, 52, 0
6, 35760, Note_on_c, 4, 60, 60
6, 35999, Note_on_c, 4, 60, 0
6, 36000, Note_on_c, 4, 60, 60
6, 36119, Note_on_c, 4, 60, 0
6, 36120, Note_on_c, 4, 64, 60
6, 36479, Note_on_c, 4, 64, 0
6, 37440, Note_on_c, 4, 65, 60
6, 37679, Note_on_c, 4, 65, 0
6, 37680, Note_on_c, 4, 64, 60
6, 37799, Note_on_c, 4, 64, 0
6, 37800, Note_on_c, 4, 59, 60
6, 37919, Note_on_c, 4, 59, 0
6, 37920, Note_on_c, 4, 59, 60
6, 38039, Note_on_c, 4, 59, 0
6, 38040, Note_on_c, 4, 60, 60
6, 39179, Note_on_c, 4, 60, 0
6, 39600, Note_on_c, 4, 60, 60
6, 39719, Note_on_c, 4, 60, 0
6, 39720, Note_on_c, 4, 59, 60
6, 39839, Note_on_c, 4, 59, 0
6, 39840, Note_on_c, 4, 59, 60
6, 39959, Note_on_c, 4, 59, 0
6, 39960, Note_on_c, 4, 59, 60
6, 40319, Note_on_c, 4, 59, 0
6, 41280, Note_on_c, 4, 53, 60
6, 41519, Note_on_c, 4, 53, 0
6, 41520, Note_on_c, 4, 52, 60
6, 41639, Note_on_c, 4, 52, 0
6, 41640, Note_on_c, 4, 52, 60
6, 41759, Note_on_c, 4, 52, 0
6, 41760, Note_on_c, 4, 52, 60
6, 41879, Note_on_c, 4, 52, 0
6, 41880, Note_on_c, 4, 57, 60
6, 43199, Note_on_c, 4, 57, 0
6, 47040, Note_on_c, 4, 52, 60
6, 47279, Note_on_c, 4, 52, 0
6, 47280, Note_on_c, 4, 52, 60
6, 47399, Note_on_c, 4, 52, 0
6, 47400, Note_on_c, 4, 52, 60
6, 47519, Note_on_c, 4, 52, 0
6, 47520, Note_on_c, 4, 52, 60
6, 47639, Note_on_c, 4, 52, 0
6, 47640, Note_on_c, 4, 52, 60
6, 47879, Note_on_c, 4, 52, 0
6, 47880, Note_on_c, 4, 52, 60
6, 47999, Note_on_c, 4, 52, 0
6, 48000, Note_on_c, 4, 53, 60
6, 48239, Note_on_c, 4, 53, 0
6, 48240, Note_on_c, 4, 53, 60
6, 48359, Note_on_c, 4, 53, 0
6, 48360, Note_on_c, 4, 53, 60
6, 48480, Note_on_c, 4, 53, 60
6, 48598, Note_on_c, 4, 53, 0
6, 48598, Note_on_c, 4, 53, 0
6, 50640, Note_on_c, 4, 48, 60
6, 50759, Note_on_c, 4, 48, 0
6, 50760, Note_on_c, 4, 48, 60
6, 50879, Note_on_c, 4, 48, 0
6, 50880, Note_on_c, 4, 48, 60
6, 51119, Note_on_c, 4, 48, 0
6, 51120, Note_on_c, 4, 48, 60
6, 51239, Note_on_c, 4, 48, 0
6, 51240, Note_on_c, 4, 50, 60
6, 51359, Note_on_c, 4, 50, 0
6, 51360, Note_on_c, 4, 50, 60
6, 51479, Note_on_c, 4, 50, 0
6, 51480, Note_on_c, 4, 48, 60
6, 51599, Note_on_c, 4, 48, 0
6, 51600, Note_on_c, 4, 50, 60
6, 51839, Note_on_c, 4, 50, 0
6, 51840, Note_on_c, 4, 47, 60
6, 52079, Note_on_c, 4, 47, 0
6, 54720, Note_on_c, 4, 52, 60
6, 54959, Note_on_c, 4, 52, 0
6, 54960, Note_on_c, 4, 52, 60
6, 55079, Note_on_c, 4, 52, 0
6, 55080, Note_on_c, 4, 52, 60
6, 55199, Note_on_c, 4, 52, 0
6, 55200, Note_on_c, 4, 52, 60
6, 55319, Note_on_c, 4, 52, 0
6, 55320, Note_on_c, 4, 52, 60
6, 55559, Note_on_c, 4, 52, 0
6, 55560, Note_on_c, 4, 52, 60
6, 55799, Note_on_c, 4, 52, 0
6, 55920, Note_on_c, 4, 50, 60
6, 56039, Note_on_c, 4, 50, 0
6, 56040, Note_on_c, 4, 50, 60
6, 56159, Note_on_c, 4, 50, 0
6, 56160, Note_on_c, 4, 50, 60
6, 56639, Note_on_c, 4, 50, 0
6, 58440, Note_on_c, 4, 48, 60
6, 58559, Note_on_c, 4, 48, 0
6, 58560, Note_on_c, 4, 48, 60
6, 58679, Note_on_c, 4, 48, 0
6, 58680, Note_on_c, 4, 48, 60
6, 58739, Note_on_c, 4, 48, 0
6, 58920, Note_on_c, 4, 52, 60
6, 58979, Note_on_c, 4, 52, 0
6, 59040, Note_on_c, 4, 52, 60
6, 59069, Note_on_c, 4, 52, 0
6, 59160, Note_on_c, 4, 45, 60
6, 59189, Note_on_c, 4, 45, 0
6, 59400, Note_on_c, 4, 47, 60
6, 59579, Note_on_c, 4, 47, 0
6, 59580, Note_on_c, 4, 47, 60
6, 60299, Note_on_c, 4, 47, 0
6, 62640, Note_on_c, 4, 48, 60
6, 62759, Note_on_c, 4, 48, 0
6, 62760, Note_on_c, 4, 50, 60
6, 62879, Note_on_c, 4, 50, 0
6, 62880, Note_on_c, 4, 50, 60
6, 62999, Note_on_c, 4, 50, 0
6, 63000, Note_on_c, 4, 48, 60
6, 63364, Note_on_c, 4, 48, 0
6, 64320, Note_on_c, 4, 53, 60
6, 64559, Note_on_c, 4, 53, 0
6, 64560, Note_on_c, 4, 52, 60
6, 64679, Note_on_c, 4, 52, 0
6, 64680, Note_on_c, 4, 52, 60
6, 64799, Note_on_c, 4, 52, 0
6, 64800, Note_on_c, 4, 52, 60
6, 64919, Note_on_c, 4, 52, 0
6, 64920, Note_on_c, 4, 52, 60
6, 65879, Note_on_c, 4, 52, 0
6, 66480, Note_on_c, 4, 60, 60
6, 66719, Note_on_c, 4, 60, 0
6, 66720, Note_on_c, 4, 60, 60
6, 66839, Note_on_c, 4, 60, 0
6, 66840, Note_on_c, 4, 64, 60
6, 67199, Note_on_c, 4, 64, 0
6, 68160, Note_on_c, 4, 65, 60
6, 68399, Note_on_c, 4, 65, 0
6, 68400, Note_on_c, 4, 64, 60
6, 68519, Note_on_c, 4, 64, 0
6, 68520, Note_on_c, 4, 59, 60
6, 68639, Note_on_c, 4, 59, 0
6, 68640, Note_on_c, 4, 59, 60
6, 68759, Note_on_c, 4, 59, 0
6, 68760, Note_on_c, 4, 60, 60
6, 69899, Note_on_c, 4, 60, 0
6, 70320, Note_on_c, 4, 60, 60
6, 70439, Note_on_c, 4, 60, 0
6, 70440, Note_on_c, 4, 59, 60
6, 70559, Note_on_c, 4, 59, 0
6, 70560, Note_on_c, 4, 59, 60
6, 70679, Note_on_c, 4, 59, 0
6, 70680, Note_on_c, 4, 59, 60
6, 71039, Note_on_c, 4, 59, 0
6, 72000, Note_on_c, 4, 53, 60
6, 72239, Note_on_c, 4, 53, 0
6, 72240, Note_on_c, 4, 52, 60
6, 72359, Note_on_c, 4, 52, 0
6, 72360, Note_on_c, 4, 52, 60
6, 72479, Note_on_c, 4, 52, 0
6, 72480, Note_on_c, 4, 52, 60
6, 72599, Note_on_c, 4, 52, 0
6, 72600, Note_on_c, 4, 57, 60
6, 73919, Note_on_c, 4, 57, 0
6, 76800, Note_on_c, 4, 67, 60
6, 76919, Note_on_c, 4, 67, 0
6, 76920, Note_on_c, 4, 67, 60
6, 77039, Note_on_c, 4, 67, 0
6, 77040, Note_on_c, 4, 69, 60
6, 77159, Note_on_c, 4, 69, 0
6, 77160, Note_on_c, 4, 71, 60
6, 77279, Note_on_c, 4, 71, 0
6, 77280, Note_on_c, 4, 71, 60
6, 77399, Note_on_c, 4, 71, 0
6, 77400, Note_on_c, 4, 69, 60
6, 77639, Note_on_c, 4, 69, 0
6, 77640, Note_on_c, 4, 67, 60
6, 77779, Note_on_c, 4, 67, 0
6, 77880, Note_on_c, 4, 69, 60
6, 78119, Note_on_c, 4, 69, 0
6, 78120, Note_on_c, 4, 71, 60
6, 78239, Note_on_c, 4, 71, 0
6, 78240, Note_on_c, 4, 71, 60
6, 78719, Note_on_c, 4, 71, 0
6, 80640, Note_on_c, 4, 67, 60
6, 80879, Note_on_c, 4, 67, 0
6, 80880, Note_on_c, 4, 69, 60
6, 80999, Note_on_c, 4, 69, 0
6, 81000, Note_on_c, 4, 71, 60
6, 81119, Note_on_c, 4, 71, 0
6, 81120, Note_on_c, 4, 71, 60
6, 81239, Note_on_c, 4, 71, 0
6, 81240, Note_on_c, 4, 69, 60
6, 81479, Note_on_c, 4, 69, 0
6, 81480, Note_on_c, 4, 67, 60
6, 81599, Note_on_c, 4, 67, 0
6, 81600, Note_on_c, 4, 67, 60
6, 81719, Note_on_c, 4, 67, 0
6, 81720, Note_on_c, 4, 69, 60
6, 81959, Note_on_c, 4, 69, 0
6, 81960, Note_on_c, 4, 71, 60
6, 82079, Note_on_c, 4, 71, 0
6, 82080, Note_on_c, 4, 71, 60
6, 82559, Note_on_c, 4, 71, 0
6, 84480, Note_on_c, 4, 67, 60
6, 84599, Note_on_c, 4, 67, 0
6, 84600, Note_on_c, 4, 67, 60
6, 84719, Note_on_c, 4, 67, 0
6, 84720, Note_on_c, 4, 69, 60
6, 84839, Note_on_c, 4, 69, 0
6, 84840, Note_on_c, 4, 71, 60
6, 84959, Note_on_c, 4, 71, 0
6, 84960, Note_on_c, 4, 71, 60
6, 85079, Note_on_c, 4, 71, 0
6, 85080, Note_on_c, 4, 69, 60
6, 85319, Note_on_c, 4, 69, 0
6, 85320, Note_on_c, 4, 67, 60
6, 85459, Note_on_c, 4, 67, 0
6, 85560, Note_on_c, 4, 69, 60
6, 85799, Note_on_c, 4, 69, 0
6, 85800, Note_on_c, 4, 71, 60
6, 85919, Note_on_c, 4, 71, 0
6, 85920, Note_on_c, 4, 71, 60
6, 86399, Note_on_c, 4, 71, 0
6, 88320, Note_on_c, 4, 69, 60
6, 88439, Note_on_c, 4, 69, 0
6, 88440, Note_on_c, 4, 71, 60
6, 88679, Note_on_c, 4, 71, 0
6, 88680, Note_on_c, 4, 71, 60
6, 88799, Note_on_c, 4, 71, 0
6, 88800, Note_on_c, 4, 71, 60
6, 88919, Note_on_c, 4, 71, 0
6, 88920, Note_on_c, 4, 69, 60
6, 89039, Note_on_c, 4, 69, 0
6, 89040, Note_on_c, 4, 69, 60
6, 89159, Note_on_c, 4, 69, 0
6, 89160, Note_on_c, 4, 69, 60
6, 89279, Note_on_c, 4, 69, 0
6, 89280, Note_on_c, 4, 67, 60
6, 89399, Note_on_c, 4, 67, 0
6, 89400, Note_on_c, 4, 71, 60
6, 89639, Note_on_c, 4, 71, 0
6, 89640, Note_on_c, 4, 71, 60
6, 89759, Note_on_c, 4, 71, 0
6, 89760, Note_on_c, 4, 71, 60
6, 90239, Note_on_c, 4, 71, 0
6, 90240, Note_on_c, 4, 71, 60
6, 90719, Note_on_c, 4, 71, 0
6, 90720, Note_on_c, 4, 71, 60
6, 90839, Note_on_c, 4, 71, 0
6, 90840, Note_on_c, 4, 72, 60
6, 90959, Note_on_c, 4, 72, 0
6, 90960, Note_on_c, 4, 71, 60
6, 91079, Note_on_c, 4, 71, 0
6, 91080, Note_on_c, 4, 69, 60
6, 91199, Note_on_c, 4, 69, 0
6, 91200, Note_on_c, 4, 65, 60
6, 91319, Note_on_c, 4, 65, 0
6, 91320, Note_on_c, 4, 64, 60
6, 91679, Note_on_c, 4, 64, 0
6, 91680, Note_on_c, 4, 64, 60
6, 91799, Note_on_c, 4, 64, 0
6, 91800, Note_on_c, 4, 60, 60
6, 91919, Note_on_c, 4, 60, 0
6, 91920, Note_on_c, 4, 59, 60
6, 92039, Note_on_c, 4, 59, 0
6, 92040, Note_on_c, 4, 57, 60
6, 92159, Note_on_c, 4, 57, 0
6, 93360, Note_on_c, 4, 48, 60
6, 93479, Note_on_c, 4, 48, 0
6, 93480, Note_on_c, 4, 50, 60
6, 93599, Note_on_c, 4, 50, 0
6, 93600, Note_on_c, 4, 50, 60
6, 93719, Note_on_c, 4, 50, 0
6, 93720, Note_on_c, 4, 48, 60
6, 94084, Note_on_c, 4, 48, 0
6, 95040, Note_on_c, 4, 53, 60
6, 95279, Note_on_c, 4, 53, 0
6, 95280, Note_on_c, 4, 52, 60
6, 95399, Note_on_c, 4, 52, 0
6, 95400, Note_on_c, 4, 52, 60
6, 95519, Note_on_c, 4, 52, 0
6, 95520, Note_on_c, 4, 52, 60
6, 95639, Note_on_c, 4, 52, 0
6, 95640, Note_on_c, 4, 52, 60
6, 96599, Note_on_c, 4, 52, 0
6, 97200, Note_on_c, 4, 60, 60
6, 97439, Note_on_c, 4, 60, 0
6, 97440, Note_on_c, 4, 60, 60
6, 97559, Note_on_c, 4, 60, 0
6, 97560, Note_on_c, 4, 64, 60
6, 97919, Note_on_c, 4, 64, 0
6, 98880, Note_on_c, 4, 65, 60
6, 99119, Note_on_c, 4, 65, 0
6, 99120, Note_on_c, 4, 64, 60
6, 99239, Note_on_c, 4, 64, 0
6, 99240, Note_on_c, 4, 59, 60
6, 99359, Note_on_c, 4, 59, 0
6, 99360, Note_on_c, 4, 59, 60
6, 99479, Note_on_c, 4, 59, 0
6, 99480, Note_on_c, 4, 60, 60
6, 100619, Note_on_c, 4, 60, 0
6, 101040, Note_on_c, 4, 60, 60
6, 101159, Note_on_c, 4, 60, 0
6, 101160, Note_on_c, 4, 59, 60
6, 101279, Note_on_c, 4, 59, 0
6, 101280, Note_on_c, 4, 59, 60
6, 101399, Note_on_c, 4, 59, 0
6, 101400, Note_on_c, 4, 59, 60
6, 101759, Note_on_c, 4, 59, 0
6, 102720, Note_on_c, 4, 53, 60
6, 102959, Note_on_c, 4, 53, 0
6, 102960, Note_on_c, 4, 52, 60
6, 103079, Note_on_c, 4, 52, 0
6, 103080, Note_on_c, 4, 52, 60
6, 103199, Note_on_c, 4, 52, 0
6, 103200, Note_on_c, 4, 52, 60
6, 103319, Note_on_c, 4, 52, 0
6, 103320, Note_on_c, 4, 57, 60
6, 104639, Note_on_c, 4, 57, 0
6, 106560, Note_on_c, 4, 53, 60
6, 106799, Note_on_c, 4, 53, 0
6, 106800, Note_on_c, 4, 52, 60
6, 106919, Note_on_c, 4, 52, 0
6, 106920, Note_on_c, 4, 52, 60
6, 107039, Note_on_c, 4, 52, 0
6, 107040, Note_on_c, 4, 52, 60
6, 107159, Note_on_c, 4, 52, 0
6, 107160, Note_on_c, 4, 57, 60
6, 109439, Note_on_c, 4, 57, 0
6, 110400, Note_on_c, 4, 69, 60
6, 110879, Note_on_c, 4, 69, 0
6, 110880, Note_on_c, 4, 65, 60
6, 111359, Note_on_c, 4, 65, 0
6, 111360, Note_on_c, 4, 64, 60
6, 114239, Note_on_c, 4, 64, 0
6, 114240, Note_on_c, 4, 69, 60
6, 114719, Note_on_c, 4, 69, 0
6, 114720, Note_on_c, 4, 65, 60
6, 115199, Note_on_c, 4, 65, 0
6, 115200, Note_on_c, 4, 64, 60
6, 118079, Note_on_c, 4, 64, 0
6, 118080, Note_on_c, 4, 69, 60
6, 118559, Note_on_c, 4, 69, 0
6, 118560, Note_on_c, 4, 65, 60
6, 119039, Note_on_c, 4, 65, 0
6, 119040, Note_on_c, 4, 64, 60
6, 122879, Note_on_c, 4, 64, 0
6, 122879, End_track
7, 0, Start_track
7, 0, MIDI_port, 0
7, 0, End_track
8, 0, Start_track
8, 0, MIDI_port, 0
8, 0, End_track
9, 0, Start_track
9, 0, MIDI_port, 0
9, 0, End_track
10, 0, Start_track
10, 0, Title_t, "Shamisen"
10, 0, MIDI_port, 0
10, 0, Control_c, 8, 7, 127
10, 0, Program_c, 8, 106
10, 53040, Note_on_c, 8, 43, 60
10, 53159, Note_on_c, 8, 43, 0
10, 53160, Note_on_c, 8, 47, 60
10, 53279, Note_on_c, 8, 47, 0
10, 53280, Note_on_c, 8, 47, 60
10, 53399, Note_on_c, 8, 47, 0
10, 53400, Note_on_c, 8, 50, 60
10, 53519, Note_on_c, 8, 50, 0
10, 53520, Note_on_c, 8, 53, 60
10, 53639, Note_on_c, 8, 53, 0
10, 53640, Note_on_c, 8, 57, 60
10, 53759, Note_on_c, 8, 57, 0
10, 53759, End_track
11, 0, Start_track
11, 0, Title_t, "Percussion"
11, 0, MIDI_port, 0
11, 6600, Note_on_c, 9, 40, 127
11, 6629, Note_on_c, 9, 40, 0
11, 6720, Control_c, 9, 7, 127
11, 6720, Note_on_c, 9, 35, 127
11, 6720, Note_on_c, 9, 36, 127
11, 6839, Note_on_c, 9, 35, 0
11, 6839, Note_on_c, 9, 36, 0
11, 6960, Note_on_c, 9, 40, 60
11, 7079, Note_on_c, 9, 40, 0
11, 7200, Note_on_c, 9, 35, 60
11, 7200, Note_on_c, 9, 36, 60
11, 7319, Note_on_c, 9, 35, 0
11, 7319, Note_on_c, 9, 36, 0
11, 7320, Note_on_c, 9, 40, 60
11, 7439, Note_on_c, 9, 40, 0
11, 7440, Note_on_c, 9, 36, 60
11, 7440, Note_on_c, 9, 35, 60
11, 7559, Note_on_c, 9, 36, 0
11, 7559, Note_on_c, 9, 35, 0
11, 7560, Note_on_c, 9, 35, 60
11, 7560, Note_on_c, 9, 36, 60
11, 7560, Note_on_c, 9, 40, 60
11, 7590, Note_on_c, 9, 52, 30
11, 7609, Note_on_c, 9, 52, 0
11, 7679, Note_on_c, 9, 35, 0
11, 7679, Note_on_c, 9, 36, 0
11, 7679, Note_on_c, 9, 40, 0
11, 7680, Note_on_c, 9, 35, 60
11, 7680, Note_on_c, 9, 57, 35
11, 7680, Note_on_c, 9, 69, 60
11, 7739, Note_on_c, 9, 57, 0
11, 7799, Note_on_c, 9, 69, 0
11, 7800, Note_on_c, 9, 69, 30
11, 7919, Note_on_c, 9, 35, 0
11, 7919, Note_on_c, 9, 69, 0
11, 7920, Note_on_c, 9, 69, 60
11, 8039, Note_on_c, 9, 69, 0
11, 8040, Note_on_c, 9, 69, 30
11, 8159, Note_on_c, 9, 69, 0
11, 8160, Note_on_c, 9, 40, 60
11, 8160, Note_on_c, 9, 69, 60
11, 8279, Note_on_c, 9, 69, 0
11, 8280, Note_on_c, 9, 69, 30
11, 8399, Note_on_c, 9, 40, 0
11, 8399, Note_on_c, 9, 69, 0
11, 8400, Note_on_c, 9, 69, 60
11, 8519, Note_on_c, 9, 69, 0
11, 8520, Note_on_c, 9, 69, 30
11, 8639, Note_on_c, 9, 69, 0
11, 8640, Note_on_c, 9, 69, 60
11, 8640, Note_on_c, 9, 35, 60
11, 8640, Note_on_c, 9, 36, 60
11, 8759, Note_on_c, 9, 69, 0
11, 8760, Note_on_c, 9, 69, 30
11, 8879, Note_on_c, 9, 35, 0
11, 8879, Note_on_c, 9, 36, 0
11, 8879, Note_on_c, 9, 69, 0
11, 8880, Note_on_c, 9, 69, 60
11, 8999, Note_on_c, 9, 69, 0
11, 9000, Note_on_c, 9, 69, 30
11, 9119, Note_on_c, 9, 69, 0
11, 9120, Note_on_c, 9, 69, 60
11, 9120, Note_on_c, 9, 40, 60
11, 9239, Note_on_c, 9, 69, 0
11, 9240, Note_on_c, 9, 69, 30
11, 9359, Note_on_c, 9, 40, 0
11, 9359, Note_on_c, 9, 69, 0
11, 9360, Note_on_c, 9, 69, 60
11, 9479, Note_on_c, 9, 69, 0
11, 9480, Note_on_c, 9, 69, 30
11, 9599, Note_on_c, 9, 69, 0
11, 9600, Note_on_c, 9, 69, 60
11, 9600, Note_on_c, 9, 35, 60
11, 9600, Note_on_c, 9, 36, 60
11, 9719, Note_on_c, 9, 69, 0
11, 9720, Note_on_c, 9, 69, 30
11, 9839, Note_on_c, 9, 35, 0
11, 9839, Note_on_c, 9, 36, 0
11, 9839, Note_on_c, 9, 69, 0
11, 9840, Note_on_c, 9, 69, 60
11, 9959, Note_on_c, 9, 69, 0
11, 9960, Note_on_c, 9, 69, 30
11, 10079, Note_on_c, 9, 69, 0
11, 10080, Note_on_c, 9, 69, 60
11, 10080, Note_on_c, 9, 40, 60
11, 10199, Note_on_c, 9, 69, 0
11, 10200, Note_on_c, 9, 69, 30
11, 10319, Note_on_c, 9, 40, 0
11, 10319, Note_on_c, 9, 69, 0
11, 10320, Note_on_c, 9, 69, 60
11, 10439, Note_on_c, 9, 69, 0
11, 10440, Note_on_c, 9, 69, 30
11, 10559, Note_on_c, 9, 69, 0
11, 10560, Note_on_c, 9, 69, 60
11, 10560, Note_on_c, 9, 35, 60
11, 10560, Note_on_c, 9, 36, 60
11, 10679, Note_on_c, 9, 69, 0
11, 10680, Note_on_c, 9, 69, 30
11, 10799, Note_on_c, 9, 35, 0
11, 10799, Note_on_c, 9, 36, 0
11, 10799, Note_on_c, 9, 69, 0
11, 10800, Note_on_c, 9, 69, 60
11, 10919, Note_on_c, 9, 69, 0
11, 10920, Note_on_c, 9, 69, 30
11, 11039, Note_on_c, 9, 69, 0
11, 11040, Note_on_c, 9, 69, 60
11, 11040, Note_on_c, 9, 40, 60
11, 11159, Note_on_c, 9, 69, 0
11, 11160, Note_on_c, 9, 69, 30
11, 11279, Note_on_c, 9, 40, 0
11, 11279, Note_on_c, 9, 69, 0
11, 11280, Note_on_c, 9, 69, 60
11, 11399, Note_on_c, 9, 69, 0
11, 11400, Note_on_c, 9, 69, 30
11, 11519, Note_on_c, 9, 69, 0
11, 11520, Note_on_c, 9, 69, 60
11, 11520, Note_on_c, 9, 35, 60
11, 11520, Note_on_c, 9, 36, 60
11, 11639, Note_on_c, 9, 69, 0
11, 11640, Note_on_c, 9, 69, 30
11, 11759, Note_on_c, 9, 35, 0
11, 11759, Note_on_c, 9, 36, 0
11, 11759, Note_on_c, 9, 69, 0
11, 11760, Note_on_c, 9, 69, 60
11, 11879, Note_on_c, 9, 69, 0
11, 11880, Note_on_c, 9, 69, 30
11, 11999, Note_on_c, 9, 69, 0
11, 12000, Note_on_c, 9, 69, 60
11, 12000, Note_on_c, 9, 40, 60
11, 12119, Note_on_c, 9, 69, 0
11, 12120, Note_on_c, 9, 69, 30
11, 12239, Note_on_c, 9, 40, 0
11, 12239, Note_on_c, 9, 69, 0
11, 12240, Note_on_c, 9, 69, 60
11, 12359, Note_on_c, 9, 69, 0
11, 12360, Note_on_c, 9, 69, 30
11, 12479, Note_on_c, 9, 69, 0
11, 12480, Note_on_c, 9, 69, 60
11, 12480, Note_on_c, 9, 35, 60
11, 12480, Note_on_c, 9, 36, 60
11, 12599, Note_on_c, 9, 69, 0
11, 12600, Note_on_c, 9, 69, 30
11, 12719, Note_on_c, 9, 35, 0
11, 12719, Note_on_c, 9, 36, 0
11, 12719, Note_on_c, 9, 69, 0
11, 12720, Note_on_c, 9, 69, 60
11, 12839, Note_on_c, 9, 69, 0
11, 12840, Note_on_c, 9, 69, 30
11, 12959, Note_on_c, 9, 69, 0
11, 12960, Note_on_c, 9, 69, 60
11, 12960, Note_on_c, 9, 40, 60
11, 13079, Note_on_c, 9, 69, 0
11, 13080, Note_on_c, 9, 69, 30
11, 13199, Note_on_c, 9, 40, 0
11, 13199, Note_on_c, 9, 69, 0
11, 13200, Note_on_c, 9, 69, 60
11, 13319, Note_on_c, 9, 69, 0
11, 13320, Note_on_c, 9, 69, 30
11, 13439, Note_on_c, 9, 69, 0
11, 13440, Note_on_c, 9, 69, 60
11, 13440, Note_on_c, 9, 35, 60
11, 13440, Note_on_c, 9, 36, 60
11, 13559, Note_on_c, 9, 69, 0
11, 13560, Note_on_c, 9, 69, 30
11, 13679, Note_on_c, 9, 35, 0
11, 13679, Note_on_c, 9, 36, 0
11, 13679, Note_on_c, 9, 69, 0
11, 13680, Note_on_c, 9, 69, 60
11, 13799, Note_on_c, 9, 69, 0
11, 13800, Note_on_c, 9, 69, 30
11, 13919, Note_on_c, 9, 69, 0
11, 13920, Note_on_c, 9, 69, 60
11, 13920, Note_on_c, 9, 40, 60
11, 14039, Note_on_c, 9, 69, 0
11, 14040, Note_on_c, 9, 69, 30
11, 14159, Note_on_c, 9, 40, 0
11, 14159, Note_on_c, 9, 69, 0
11, 14160, Note_on_c, 9, 69, 60
11, 14279, Note_on_c, 9, 69, 0
11, 14280, Note_on_c, 9, 69, 30
11, 14280, Note_on_c, 9, 36, 60
11, 14280, Note_on_c, 9, 35, 60
11, 14399, Note_on_c, 9, 69, 0
11, 14399, Note_on_c, 9, 36, 0
11, 14399, Note_on_c, 9, 35, 0
11, 14400, Note_on_c, 9, 69, 60
11, 14400, Note_on_c, 9, 35, 60
11, 14400, Note_on_c, 9, 36, 60
11, 14519, Note_on_c, 9, 69, 0
11, 14520, Note_on_c, 9, 69, 30
11, 14639, Note_on_c, 9, 35, 0
11, 14639, Note_on_c, 9, 36, 0
11, 14639, Note_on_c, 9, 69, 0
11, 14640, Note_on_c, 9, 69, 60
11, 14759, Note_on_c, 9, 69, 0
11, 14760, Note_on_c, 9, 69, 30
11, 14879, Note_on_c, 9, 69, 0
11, 14880, Note_on_c, 9, 69, 60
11, 14880, Note_on_c, 9, 40, 60
11, 14999, Note_on_c, 9, 69, 0
11, 15000, Note_on_c, 9, 69, 30
11, 15119, Note_on_c, 9, 40, 0
11, 15119, Note_on_c, 9, 69, 0
11, 15120, Note_on_c, 9, 69, 60
11, 15239, Note_on_c, 9, 69, 0
11, 15240, Note_on_c, 9, 69, 30
11, 15359, Note_on_c, 9, 69, 0
11, 15360, Note_on_c, 9, 69, 60
11, 15360, Note_on_c, 9, 35, 60
11, 15360, Note_on_c, 9, 36, 60
11, 15479, Note_on_c, 9, 69, 0
11, 15480, Note_on_c, 9, 69, 30
11, 15599, Note_on_c, 9, 35, 0
11, 15599, Note_on_c, 9, 36, 0
11, 15599, Note_on_c, 9, 69, 0
11, 15600, Note_on_c, 9, 69, 60
11, 15719, Note_on_c, 9, 69, 0
11, 15720, Note_on_c, 9, 69, 30
11, 15839, Note_on_c, 9, 69, 0
11, 15840, Note_on_c, 9, 69, 60
11, 15840, Note_on_c, 9, 40, 60
11, 15959, Note_on_c, 9, 69, 0
11, 15960, Note_on_c, 9, 69, 30
11, 16079, Note_on_c, 9, 40, 0
11, 16079, Note_on_c, 9, 69, 0
11, 16080, Note_on_c, 9, 69, 60
11, 16199, Note_on_c, 9, 69, 0
11, 16200, Note_on_c, 9, 69, 30
11, 16319, Note_on_c, 9, 69, 0
11, 16320, Note_on_c, 9, 69, 60
11, 16320, Note_on_c, 9, 35, 60
11, 16320, Note_on_c, 9, 36, 60
11, 16439, Note_on_c, 9, 69, 0
11, 16440, Note_on_c, 9, 69, 30
11, 16559, Note_on_c, 9, 35, 0
11, 16559, Note_on_c, 9, 36, 0
11, 16559, Note_on_c, 9, 69, 0
11, 16560, Note_on_c, 9, 69, 60
11, 16679, Note_on_c, 9, 69, 0
11, 16680, Note_on_c, 9, 69, 30
11, 16799, Note_on_c, 9, 69, 0
11, 16800, Note_on_c, 9, 69, 60
11, 16800, Note_on_c, 9, 40, 60
11, 16919, Note_on_c, 9, 69, 0
11, 16920, Note_on_c, 9, 69, 30
11, 17039, Note_on_c, 9, 40, 0
11, 17039, Note_on_c, 9, 69, 0
11, 17040, Note_on_c, 9, 69, 60
11, 17159, Note_on_c, 9, 69, 0
11, 17160, Note_on_c, 9, 69, 30
11, 17279, Note_on_c, 9, 69, 0
11, 17280, Note_on_c, 9, 69, 60
11, 17280, Note_on_c, 9, 35, 60
11, 17280, Note_on_c, 9, 36, 60
11, 17399, Note_on_c, 9, 69, 0
11, 17400, Note_on_c, 9, 69, 30
11, 17519, Note_on_c, 9, 35, 0
11, 17519, Note_on_c, 9, 36, 0
11, 17519, Note_on_c, 9, 69, 0
11, 17520, Note_on_c, 9, 69, 60
11, 17639, Note_on_c, 9, 69, 0
11, 17640, Note_on_c, 9, 69, 30
11, 17759, Note_on_c, 9, 69, 0
11, 17760, Note_on_c, 9, 69, 60
11, 17760, Note_on_c, 9, 40, 60
11, 17879, Note_on_c, 9, 69, 0
11, 17880, Note_on_c, 9, 69, 30
11, 17999, Note_on_c, 9, 40, 0
11, 17999, Note_on_c, 9, 69, 0
11, 18000, Note_on_c, 9, 69, 60
11, 18119, Note_on_c, 9, 69, 0
11, 18120, Note_on_c, 9, 69, 30
11, 18239, Note_on_c, 9, 69, 0
11, 18240, Note_on_c, 9, 69, 60
11, 18240, Note_on_c, 9, 35, 60
11, 18240, Note_on_c, 9, 36, 60
11, 18359, Note_on_c, 9, 69, 0
11, 18360, Note_on_c, 9, 69, 30
11, 18479, Note_on_c, 9, 35, 0
11, 18479, Note_on_c, 9, 36, 0
11, 18479, Note_on_c, 9, 69, 0
11, 18480, Note_on_c, 9, 69, 60
11, 18599, Note_on_c, 9, 69, 0
11, 18600, Note_on_c, 9, 69, 30
11, 18719, Note_on_c, 9, 69, 0
11, 18720, Note_on_c, 9, 69, 60
11, 18720, Note_on_c, 9, 40, 60
11, 18839, Note_on_c, 9, 69, 0
11, 18840, Note_on_c, 9, 69, 30
11, 18959, Note_on_c, 9, 40, 0
11, 18959, Note_on_c, 9, 69, 0
11, 18960, Note_on_c, 9, 69, 60
11, 19079, Note_on_c, 9, 69, 0
11, 19080, Note_on_c, 9, 69, 30
11, 19199, Note_on_c, 9, 69, 0
11, 19200, Note_on_c, 9, 69, 60
11, 19200, Note_on_c, 9, 35, 60
11, 19200, Note_on_c, 9, 36, 60
11, 19319, Note_on_c, 9, 69, 0
11, 19320, Note_on_c, 9, 69, 30
11, 19439, Note_on_c, 9, 35, 0
11, 19439, Note_on_c, 9, 36, 0
11, 19439, Note_on_c, 9, 69, 0
11, 19440, Note_on_c, 9, 69, 60
11, 19559, Note_on_c, 9, 69, 0
11, 19560, Note_on_c, 9, 69, 30
11, 19679, Note_on_c, 9, 69, 0
11, 19680, Note_on_c, 9, 69, 60
11, 19680, Note_on_c, 9, 40, 60
11, 19799, Note_on_c, 9, 69, 0
11, 19800, Note_on_c, 9, 69, 30
11, 19919, Note_on_c, 9, 40, 0
11, 19919, Note_on_c, 9, 69, 0
11, 19920, Note_on_c, 9, 69, 60
11, 20039, Note_on_c, 9, 69, 0
11, 20040, Note_on_c, 9, 69, 30
11, 20040, Note_on_c, 9, 35, 60
11, 20040, Note_on_c, 9, 36, 60
11, 20099, Note_on_c, 9, 35, 0
11, 20099, Note_on_c, 9, 36, 0
11, 20159, Note_on_c, 9, 69, 0
11, 20160, Note_on_c, 9, 69, 60
11, 20160, Note_on_c, 9, 35, 60
11, 20160, Note_on_c, 9, 36, 60
11, 20279, Note_on_c, 9, 69, 0
11, 20280, Note_on_c, 9, 69, 30
11, 20399, Note_on_c, 9, 35, 0
11, 20399, Note_on_c, 9, 36, 0
11, 20399, Note_on_c, 9, 69, 0
11, 20400, Note_on_c, 9, 69, 60
11, 20519, Note_on_c, 9, 69, 0
11, 20520, Note_on_c, 9, 69, 30
11, 20639, Note_on_c, 9, 69, 0
11, 20640, Note_on_c, 9, 69, 60
11, 20640, Note_on_c, 9, 40, 60
11, 20759, Note_on_c, 9, 69, 0
11, 20760, Note_on_c, 9, 69, 30
11, 20879, Note_on_c, 9, 40, 0
11, 20879, Note_on_c, 9, 69, 0
11, 20880, Note_on_c, 9, 69, 60
11, 20999, Note_on_c, 9, 69, 0
11, 21000, Note_on_c, 9, 69, 30
11, 21119, Note_on_c, 9, 69, 0
11, 21120, Note_on_c, 9, 69, 60
11, 21120, Note_on_c, 9, 35, 60
11, 21120, Note_on_c, 9, 36, 60
11, 21239, Note_on_c, 9, 69, 0
11, 21240, Note_on_c, 9, 69, 30
11, 21359, Note_on_c, 9, 35, 0
11, 21359, Note_on_c, 9, 36, 0
11, 21359, Note_on_c, 9, 69, 0
11, 21360, Note_on_c, 9, 69, 60
11, 21479, Note_on_c, 9, 69, 0
11, 21480, Note_on_c, 9, 69, 30
11, 21599, Note_on_c, 9, 69, 0
11, 21600, Note_on_c, 9, 69, 60
11, 21600, Note_on_c, 9, 40, 60
11, 21719, Note_on_c, 9, 69, 0
11, 21720, Note_on_c, 9, 69, 30
11, 21839, Note_on_c, 9, 40, 0
11, 21839, Note_on_c, 9, 69, 0
11, 21840, Note_on_c, 9, 69, 60
11, 21959, Note_on_c, 9, 69, 0
11, 21960, Note_on_c, 9, 69, 30
11, 21960, Note_on_c, 9, 36, 60
11, 22079, Note_on_c, 9, 69, 0
11, 22079, Note_on_c, 9, 36, 0
11, 22080, Note_on_c, 9, 69, 60
11, 22080, Note_on_c, 9, 35, 60
11, 22080, Note_on_c, 9, 36, 60
11, 22199, Note_on_c, 9, 69, 0
11, 22200, Note_on_c, 9, 69, 30
11, 22319, Note_on_c, 9, 35, 0
11, 22319, Note_on_c, 9, 36, 0
11, 22319, Note_on_c, 9, 69, 0
11, 22320, Note_on_c, 9, 69, 60
11, 22439, Note_on_c, 9, 69, 0
11, 22440, Note_on_c, 9, 69, 30
11, 22559, Note_on_c, 9, 69, 0
11, 22560, Note_on_c, 9, 69, 60
11, 22560, Note_on_c, 9, 40, 60
11, 22679, Note_on_c, 9, 69, 0
11, 22680, Note_on_c, 9, 69, 30
11, 22799, Note_on_c, 9, 40, 0
11, 22799, Note_on_c, 9, 69, 0
11, 22800, Note_on_c, 9, 69, 60
11, 22919, Note_on_c, 9, 69, 0
11, 22920, Note_on_c, 9, 69, 30
11, 23039, Note_on_c, 9, 69, 0
11, 23040, Note_on_c, 9, 69, 60
11, 23040, Note_on_c, 9, 35, 60
11, 23040, Note_on_c, 9, 36, 60
11, 23159, Note_on_c, 9, 69, 0
11, 23160, Note_on_c, 9, 69, 30
11, 23279, Note_on_c, 9, 35, 0
11, 23279, Note_on_c, 9, 36, 0
11, 23279, Note_on_c, 9, 69, 0
11, 23280, Note_on_c, 9, 69, 60
11, 23399, Note_on_c, 9, 69, 0
11, 23400, Note_on_c, 9, 69, 30
11, 23519, Note_on_c, 9, 69, 0
11, 23520, Note_on_c, 9, 69, 60
11, 23520, Note_on_c, 9, 40, 60
11, 23639, Note_on_c, 9, 69, 0
11, 23640, Note_on_c, 9, 69, 30
11, 23759, Note_on_c, 9, 40, 0
11, 23759, Note_on_c, 9, 69, 0
11, 23760, Note_on_c, 9, 69, 60
11, 23879, Note_on_c, 9, 69, 0
11, 23880, Note_on_c, 9, 69, 30
11, 23999, Note_on_c, 9, 69, 0
11, 24000, Note_on_c, 9, 69, 60
11, 24000, Note_on_c, 9, 35, 60
11, 24000, Note_on_c, 9, 36, 60
11, 24119, Note_on_c, 9, 69, 0
11, 24120, Note_on_c, 9, 69, 30
11, 24239, Note_on_c, 9, 35, 0
11, 24239, Note_on_c, 9, 36, 0
11, 24239, Note_on_c, 9, 69, 0
11, 24240, Note_on_c, 9, 69, 60
11, 24359, Note_on_c, 9, 69, 0
11, 24360, Note_on_c, 9, 69, 30
11, 24479, Note_on_c, 9, 69, 0
11, 24480, Note_on_c, 9, 69, 60
11, 24480, Note_on_c, 9, 40, 60
11, 24599, Note_on_c, 9, 69, 0
11, 24600, Note_on_c, 9, 69, 30
11, 24719, Note_on_c, 9, 40, 0
11, 24719, Note_on_c, 9, 69, 0
11, 24720, Note_on_c, 9, 69, 60
11, 24839, Note_on_c, 9, 69, 0
11, 24840, Note_on_c, 9, 69, 30
11, 24959, Note_on_c, 9, 69, 0
11, 24960, Note_on_c, 9, 69, 60
11, 24960, Note_on_c, 9, 35, 60
11, 24960, Note_on_c, 9, 36, 60
11, 25079, Note_on_c, 9, 69, 0
11, 25080, Note_on_c, 9, 69, 30
11, 25199, Note_on_c, 9, 35, 0
11, 25199, Note_on_c, 9, 36, 0
11, 25199, Note_on_c, 9, 69, 0
11, 25200, Note_on_c, 9, 69, 60
11, 25319, Note_on_c, 9, 69, 0
11, 25320, Note_on_c, 9, 69, 30
11, 25439, Note_on_c, 9, 69, 0
11, 25440, Note_on_c, 9, 69, 60
11, 25440, Note_on_c, 9, 40, 60
11, 25559, Note_on_c, 9, 69, 0
11, 25560, Note_on_c, 9, 69, 30
11, 25679, Note_on_c, 9, 40, 0
11, 25679, Note_on_c, 9, 69, 0
11, 25680, Note_on_c, 9, 69, 60
11, 25799, Note_on_c, 9, 69, 0
11, 25800, Note_on_c, 9, 69, 30
11, 25919, Note_on_c, 9, 69, 0
11, 25920, Note_on_c, 9, 69, 60
11, 25920, Note_on_c, 9, 35, 60
11, 25920, Note_on_c, 9, 36, 60
11, 26039, Note_on_c, 9, 69, 0
11, 26040, Note_on_c, 9, 69, 30
11, 26159, Note_on_c, 9, 35, 0
11, 26159, Note_on_c, 9, 36, 0
11, 26159, Note_on_c, 9, 69, 0
11, 26160, Note_on_c, 9, 69, 60
11, 26279, Note_on_c, 9, 69, 0
11, 26280, Note_on_c, 9, 69, 30
11, 26399, Note_on_c, 9, 69, 0
11, 26400, Note_on_c, 9, 69, 60
11, 26400, Note_on_c, 9, 40, 60
11, 26519, Note_on_c, 9, 69, 0
11, 26520, Note_on_c, 9, 69, 30
11, 26639, Note_on_c, 9, 40, 0
11, 26639, Note_on_c, 9, 69, 0
11, 26640, Note_on_c, 9, 69, 60
11, 26759, Note_on_c, 9, 69, 0
11, 26760, Note_on_c, 9, 69, 30
11, 26879, Note_on_c, 9, 69, 0
11, 26880, Note_on_c, 9, 69, 60
11, 26880, Note_on_c, 9, 35, 60
11, 26880, Note_on_c, 9, 36, 60
11, 26999, Note_on_c, 9, 69, 0
11, 27000, Note_on_c, 9, 69, 30
11, 27119, Note_on_c, 9, 35, 0
11, 27119, Note_on_c, 9, 36, 0
11, 27119, Note_on_c, 9, 69, 0
11, 27120, Note_on_c, 9, 69, 60
11, 27239, Note_on_c, 9, 69, 0
11, 27240, Note_on_c, 9, 69, 30
11, 27359, Note_on_c, 9, 69, 0
11, 27360, Note_on_c, 9, 69, 60
11, 27360, Note_on_c, 9, 40, 60
11, 27479, Note_on_c, 9, 69, 0
11, 27480, Note_on_c, 9, 69, 30
11, 27599, Note_on_c, 9, 40, 0
11, 27599, Note_on_c, 9, 69, 0
11, 27600, Note_on_c, 9, 69, 60
11, 27719, Note_on_c, 9, 69, 0
11, 27720, Note_on_c, 9, 69, 30
11, 27839, Note_on_c, 9, 69, 0
11, 27840, Note_on_c, 9, 69, 60
11, 27840, Note_on_c, 9, 35, 60
11, 27840, Note_on_c, 9, 36, 60
11, 27959, Note_on_c, 9, 69, 0
11, 27960, Note_on_c, 9, 69, 30
11, 28079, Note_on_c, 9, 35, 0
11, 28079, Note_on_c, 9, 36, 0
11, 28079, Note_on_c, 9, 69, 0
11, 28080, Note_on_c, 9, 69, 60
11, 28199, Note_on_c, 9, 69, 0
11, 28200, Note_on_c, 9, 69, 30
11, 28319, Note_on_c, 9, 69, 0
11, 28320, Note_on_c, 9, 69, 60
11, 28320, Note_on_c, 9, 40, 60
11, 28439, Note_on_c, 9, 69, 0
11, 28440, Note_on_c, 9, 69, 30
11, 28559, Note_on_c, 9, 40, 0
11, 28559, Note_on_c, 9, 69, 0
11, 28560, Note_on_c, 9, 69, 60
11, 28679, Note_on_c, 9, 69, 0
11, 28680, Note_on_c, 9, 69, 30
11, 28799, Note_on_c, 9, 69, 0
11, 28800, Note_on_c, 9, 69, 60
11, 28800, Note_on_c, 9, 35, 60
11, 28800, Note_on_c, 9, 36, 60
11, 28919, Note_on_c, 9, 69, 0
11, 28920, Note_on_c, 9, 69, 30
11, 29039, Note_on_c, 9, 35, 0
11, 29039, Note_on_c, 9, 36, 0
11, 29039, Note_on_c, 9, 69, 0
11, 29040, Note_on_c, 9, 69, 60
11, 29159, Note_on_c, 9, 69, 0
11, 29160, Note_on_c, 9, 69, 30
11, 29279, Note_on_c, 9, 69, 0
11, 29280, Note_on_c, 9, 69, 60
11, 29280, Note_on_c, 9, 40, 60
11, 29399, Note_on_c, 9, 69, 0
11, 29400, Note_on_c, 9, 69, 30
11, 29519, Note_on_c, 9, 40, 0
11, 29519, Note_on_c, 9, 69, 0
11, 29520, Note_on_c, 9, 69, 60
11, 29639, Note_on_c, 9, 69, 0
11, 29640, Note_on_c, 9, 69, 30
11, 29640, Note_on_c, 9, 36, 60
11, 29640, Note_on_c, 9, 35, 60
11, 29759, Note_on_c, 9, 69, 0
11, 29759, Note_on_c, 9, 36, 0
11, 29759, Note_on_c, 9, 35, 0
11, 29760, Note_on_c, 9, 69, 60
11, 29760, Note_on_c, 9, 35, 60
11, 29760, Note_on_c, 9, 36, 60
11, 29879, Note_on_c, 9, 69, 0
11, 29880, Note_on_c, 9, 69, 30
11, 29999, Note_on_c, 9, 35, 0
11, 29999, Note_on_c, 9, 36, 0
11, 29999, Note_on_c, 9, 69, 0
11, 30000, Note_on_c, 9, 69, 60
11, 30119, Note_on_c, 9, 69, 0
11, 30120, Note_on_c, 9, 69, 30
11, 30239, Note_on_c, 9, 69, 0
11, 30240, Note_on_c, 9, 69, 60
11, 30240, Note_on_c, 9, 40, 60
11, 30359, Note_on_c, 9, 69, 0
11, 30360, Note_on_c, 9, 69, 30
11, 30479, Note_on_c, 9, 40, 0
11, 30479, Note_on_c, 9, 69, 0
11, 30480, Note_on_c, 9, 69, 60
11, 30599, Note_on_c, 9, 69, 0
11, 30600, Note_on_c, 9, 69, 30
11, 30719, Note_on_c, 9, 69, 0
11, 30720, Note_on_c, 9, 69, 60
11, 30720, Note_on_c, 9, 35, 60
11, 30720, Note_on_c, 9, 36, 60
11, 30839, Note_on_c, 9, 69, 0
11, 30840, Note_on_c, 9, 69, 30
11, 30959, Note_on_c, 9, 35, 0
11, 30959, Note_on_c, 9, 36, 0
11, 30959, Note_on_c, 9, 69, 0
11, 30960, Note_on_c, 9, 69, 60
11, 31079, Note_on_c, 9, 69, 0
11, 31080, Note_on_c, 9, 69, 30
11, 31199, Note_on_c, 9, 69, 0
11, 31200, Note_on_c, 9, 69, 60
11, 31200, Note_on_c, 9, 40, 60
11, 31319, Note_on_c, 9, 69, 0
11, 31320, Note_on_c, 9, 69, 30
11, 31439, Note_on_c, 9, 40, 0
11, 31439, Note_on_c, 9, 69, 0
11, 31440, Note_on_c, 9, 69, 60
11, 31559, Note_on_c, 9, 69, 0
11, 31560, Note_on_c, 9, 69, 30
11, 31679, Note_on_c, 9, 69, 0
11, 31680, Note_on_c, 9, 69, 60
11, 31680, Note_on_c, 9, 35, 60
11, 31680, Note_on_c, 9, 36, 60
11, 31799, Note_on_c, 9, 69, 0
11, 31800, Note_on_c, 9, 69, 30
11, 31919, Note_on_c, 9, 35, 0
11, 31919, Note_on_c, 9, 36, 0
11, 31919, Note_on_c, 9, 69, 0
11, 31920, Note_on_c, 9, 69, 60
11, 31920, Note_on_c, 9, 45, 60
11, 32039, Note_on_c, 9, 69, 0
11, 32039, Note_on_c, 9, 45, 0
11, 32040, Note_on_c, 9, 69, 30
11, 32040, Note_on_c, 9, 45, 60
11, 32159, Note_on_c, 9, 69, 0
11, 32159, Note_on_c, 9, 45, 0
11, 32160, Note_on_c, 9, 69, 60
11, 32160, Note_on_c, 9, 40, 60
11, 32279, Note_on_c, 9, 69, 0
11, 32280, Note_on_c, 9, 69, 30
11, 32280, Note_on_c, 9, 41, 60
11, 32399, Note_on_c, 9, 40, 0
11, 32399, Note_on_c, 9, 69, 0
11, 32399, Note_on_c, 9, 41, 0
11, 32400, Note_on_c, 9, 69, 60
11, 32400, Note_on_c, 9, 41, 60
11, 32519, Note_on_c, 9, 69, 0
11, 32519, Note_on_c, 9, 41, 0
11, 32520, Note_on_c, 9, 69, 30
11, 32520, Note_on_c, 9, 41, 60
11, 32520, Note_on_c, 9, 35, 60
11, 32520, Note_on_c, 9, 36, 60
11, 32639, Note_on_c, 9, 69, 0
11, 32639, Note_on_c, 9, 41, 0
11, 32639, Note_on_c, 9, 35, 0
11, 32639, Note_on_c, 9, 36, 0
11, 32640, Note_on_c, 9, 69, 60
11, 32640, Note_on_c, 9, 35, 60
11, 32640, Note_on_c, 9, 36, 60
11, 32759, Note_on_c, 9, 69, 0
11, 32760, Note_on_c, 9, 69, 30
11, 32879, Note_on_c, 9, 35, 0
11, 32879, Note_on_c, 9, 36, 0
11, 32879, Note_on_c, 9, 69, 0
11, 32880, Note_on_c, 9, 69, 60
11, 32999, Note_on_c, 9, 69, 0
11, 33000, Note_on_c, 9, 69, 30
11, 33119, Note_on_c, 9, 69, 0
11, 33120, Note_on_c, 9, 69, 60
11, 33120, Note_on_c, 9, 40, 60
11, 33239, Note_on_c, 9, 69, 0
11, 33240, Note_on_c, 9, 69, 30
11, 33359, Note_on_c, 9, 40, 0
11, 33359, Note_on_c, 9, 69, 0
11, 33360, Note_on_c, 9, 69, 60
11, 33479, Note_on_c, 9, 69, 0
11, 33480, Note_on_c, 9, 69, 30
11, 33480, Note_on_c, 9, 36, 60
11, 33480, Note_on_c, 9, 35, 60
11, 33599, Note_on_c, 9, 69, 0
11, 33599, Note_on_c, 9, 36, 0
11, 33599, Note_on_c, 9, 35, 0
11, 33600, Note_on_c, 9, 69, 60
11, 33600, Note_on_c, 9, 35, 60
11, 33600, Note_on_c, 9, 36, 60
11, 33719, Note_on_c, 9, 69, 0
11, 33720, Note_on_c, 9, 69, 30
11, 33839, Note_on_c, 9, 35, 0
11, 33839, Note_on_c, 9, 36, 0
11, 33839, Note_on_c, 9, 69, 0
11, 33840, Note_on_c, 9, 69, 60
11, 33959, Note_on_c, 9, 69, 0
11, 33960, Note_on_c, 9, 69, 30
11, 34079, Note_on_c, 9, 69, 0
11, 34080, Note_on_c, 9, 69, 60
11, 34080, Note_on_c, 9, 40, 60
11, 34199, Note_on_c, 9, 69, 0
11, 34200, Note_on_c, 9, 69, 30
11, 34319, Note_on_c, 9, 40, 0
11, 34319, Note_on_c, 9, 69, 0
11, 34320, Note_on_c, 9, 69, 60
11, 34439, Note_on_c, 9, 69, 0
11, 34440, Note_on_c, 9, 69, 30
11, 34559, Note_on_c, 9, 69, 0
11, 34560, Note_on_c, 9, 69, 60
11, 34560, Note_on_c, 9, 35, 60
11, 34560, Note_on_c, 9, 36, 60
11, 34679, Note_on_c, 9, 69, 0
11, 34680, Note_on_c, 9, 69, 30
11, 34799, Note_on_c, 9, 35, 0
11, 34799, Note_on_c, 9, 36, 0
11, 34799, Note_on_c, 9, 69, 0
11, 34800, Note_on_c, 9, 69, 60
11, 34919, Note_on_c, 9, 69, 0
11, 34920, Note_on_c, 9, 69, 30
11, 35039, Note_on_c, 9, 69, 0
11, 35040, Note_on_c, 9, 69, 60
11, 35040, Note_on_c, 9, 40, 60
11, 35159, Note_on_c, 9, 69, 0
11, 35160, Note_on_c, 9, 69, 30
11, 35279, Note_on_c, 9, 40, 0
11, 35279, Note_on_c, 9, 69, 0
11, 35280, Note_on_c, 9, 69, 60
11, 35399, Note_on_c, 9, 69, 0
11, 35400, Note_on_c, 9, 69, 30
11, 35519, Note_on_c, 9, 69, 0
11, 35520, Note_on_c, 9, 69, 60
11, 35520, Note_on_c, 9, 35, 60
11, 35520, Note_on_c, 9, 36, 60
11, 35639, Note_on_c, 9, 69, 0
11, 35640, Note_on_c, 9, 69, 30
11, 35759, Note_on_c, 9, 35, 0
11, 35759, Note_on_c, 9, 36, 0
11, 35759, Note_on_c, 9, 69, 0
11, 35760, Note_on_c, 9, 69, 60
11, 35879, Note_on_c, 9, 69, 0
11, 35880, Note_on_c, 9, 69, 30
11, 35999, Note_on_c, 9, 69, 0
11, 36000, Note_on_c, 9, 69, 60
11, 36000, Note_on_c, 9, 40, 60
11, 36119, Note_on_c, 9, 69, 0
11, 36120, Note_on_c, 9, 69, 30
11, 36239, Note_on_c, 9, 40, 0
11, 36239, Note_on_c, 9, 69, 0
11, 36240, Note_on_c, 9, 69, 60
11, 36359, Note_on_c, 9, 69, 0
11, 36360, Note_on_c, 9, 69, 30
11, 36479, Note_on_c, 9, 69, 0
11, 36480, Note_on_c, 9, 69, 60
11, 36480, Note_on_c, 9, 35, 60
11, 36480, Note_on_c, 9, 36, 60
11, 36599, Note_on_c, 9, 69, 0
11, 36600, Note_on_c, 9, 69, 30
11, 36719, Note_on_c, 9, 35, 0
11, 36719, Note_on_c, 9, 36, 0
11, 36719, Note_on_c, 9, 69, 0
11, 36720, Note_on_c, 9, 69, 60
11, 36839, Note_on_c, 9, 69, 0
11, 36840, Note_on_c, 9, 69, 30
11, 36959, Note_on_c, 9, 69, 0
11, 36960, Note_on_c, 9, 69, 60
11, 36960, Note_on_c, 9, 40, 60
11, 37079, Note_on_c, 9, 69, 0
11, 37080, Note_on_c, 9, 69, 30
11, 37199, Note_on_c, 9, 40, 0
11, 37199, Note_on_c, 9, 69, 0
11, 37200, Note_on_c, 9, 69, 60
11, 37319, Note_on_c, 9, 69, 0
11, 37320, Note_on_c, 9, 69, 30
11, 37320, Note_on_c, 9, 36, 60
11, 37320, Note_on_c, 9, 35, 60
11, 37439, Note_on_c, 9, 69, 0
11, 37439, Note_on_c, 9, 36, 0
11, 37439, Note_on_c, 9, 35, 0
11, 37440, Note_on_c, 9, 69, 60
11, 37440, Note_on_c, 9, 35, 60
11, 37440, Note_on_c, 9, 36, 60
11, 37559, Note_on_c, 9, 69, 0
11, 37560, Note_on_c, 9, 69, 30
11, 37679, Note_on_c, 9, 35, 0
11, 37679, Note_on_c, 9, 36, 0
11, 37679, Note_on_c, 9, 69, 0
11, 37680, Note_on_c, 9, 69, 60
11, 37799, Note_on_c, 9, 69, 0
11, 37800, Note_on_c, 9, 69, 30
11, 37919, Note_on_c, 9, 69, 0
11, 37920, Note_on_c, 9, 69, 60
11, 37920, Note_on_c, 9, 40, 60
11, 38039, Note_on_c, 9, 69, 0
11, 38040, Note_on_c, 9, 69, 30
11, 38159, Note_on_c, 9, 40, 0
11, 38159, Note_on_c, 9, 69, 0
11, 38160, Note_on_c, 9, 69, 60
11, 38279, Note_on_c, 9, 69, 0
11, 38280, Note_on_c, 9, 69, 30
11, 38399, Note_on_c, 9, 69, 0
11, 38400, Note_on_c, 9, 69, 60
11, 38400, Note_on_c, 9, 35, 60
11, 38400, Note_on_c, 9, 36, 60
11, 38519, Note_on_c, 9, 69, 0
11, 38520, Note_on_c, 9, 69, 30
11, 38639, Note_on_c, 9, 35, 0
11, 38639, Note_on_c, 9, 36, 0
11, 38639, Note_on_c, 9, 69, 0
11, 38640, Note_on_c, 9, 69, 60
11, 38759, Note_on_c, 9, 69, 0
11, 38760, Note_on_c, 9, 69, 30
11, 38879, Note_on_c, 9, 69, 0
11, 38880, Note_on_c, 9, 69, 60
11, 38880, Note_on_c, 9, 40, 60
11, 38999, Note_on_c, 9, 69, 0
11, 39000, Note_on_c, 9, 69, 30
11, 39119, Note_on_c, 9, 40, 0
11, 39119, Note_on_c, 9, 69, 0
11, 39120, Note_on_c, 9, 69, 60
11, 39239, Note_on_c, 9, 69, 0
11, 39240, Note_on_c, 9, 69, 30
11, 39359, Note_on_c, 9, 69, 0
11, 39360, Note_on_c, 9, 69, 60
11, 39360, Note_on_c, 9, 35, 60
11, 39360, Note_on_c, 9, 36, 60
11, 39479, Note_on_c, 9, 69, 0
11, 39480, Note_on_c, 9, 69, 30
11, 39599, Note_on_c, 9, 35, 0
11, 39599, Note_on_c, 9, 36, 0
11, 39599, Note_on_c, 9, 69, 0
11, 39600, Note_on_c, 9, 69, 60
11, 39719, Note_on_c, 9, 69, 0
11, 39720, Note_on_c, 9, 69, 30
11, 39839, Note_on_c, 9, 69, 0
11, 39840, Note_on_c, 9, 69, 60
11, 39840, Note_on_c, 9, 40, 60
11, 39959, Note_on_c, 9, 69, 0
11, 39960, Note_on_c, 9, 69, 30
11, 40079, Note_on_c, 9, 40, 0
11, 40079, Note_on_c, 9, 69, 0
11, 40080, Note_on_c, 9, 69, 60
11, 40199, Note_on_c, 9, 69, 0
11, 40200, Note_on_c, 9, 69, 30
11, 40319, Note_on_c, 9, 69, 0
11, 40320, Note_on_c, 9, 69, 60
11, 40320, Note_on_c, 9, 35, 60
11, 40320, Note_on_c, 9, 36, 60
11, 40439, Note_on_c, 9, 69, 0
11, 40440, Note_on_c, 9, 69, 30
11, 40559, Note_on_c, 9, 35, 0
11, 40559, Note_on_c, 9, 36, 0
11, 40559, Note_on_c, 9, 69, 0
11, 40560, Note_on_c, 9, 69, 60
11, 40679, Note_on_c, 9, 69, 0
11, 40680, Note_on_c, 9, 69, 30
11, 40799, Note_on_c, 9, 69, 0
11, 40800, Note_on_c, 9, 69, 60
11, 40800, Note_on_c, 9, 40, 60
11, 40919, Note_on_c, 9, 69, 0
11, 40920, Note_on_c, 9, 69, 30
11, 41039, Note_on_c, 9, 40, 0
11, 41039, Note_on_c, 9, 69, 0
11, 41040, Note_on_c, 9, 69, 60
11, 41159, Note_on_c, 9, 69, 0
11, 41160, Note_on_c, 9, 69, 30
11, 41160, Note_on_c, 9, 35, 60
11, 41160, Note_on_c, 9, 36, 60
11, 41279, Note_on_c, 9, 69, 0
11, 41279, Note_on_c, 9, 35, 0
11, 41279, Note_on_c, 9, 36, 0
11, 41280, Note_on_c, 9, 69, 60
11, 41280, Note_on_c, 9, 35, 60
11, 41280, Note_on_c, 9, 36, 60
11, 41399, Note_on_c, 9, 69, 0
11, 41400, Note_on_c, 9, 69, 30
11, 41519, Note_on_c, 9, 35, 0
11, 41519, Note_on_c, 9, 36, 0
11, 41519, Note_on_c, 9, 69, 0
11, 41520, Note_on_c, 9, 69, 60
11, 41639, Note_on_c, 9, 69, 0
11, 41640, Note_on_c, 9, 69, 30
11, 41759, Note_on_c, 9, 69, 0
11, 41760, Note_on_c, 9, 69, 60
11, 41760, Note_on_c, 9, 40, 60
11, 41879, Note_on_c, 9, 69, 0
11, 41880, Note_on_c, 9, 69, 30
11, 41999, Note_on_c, 9, 40, 0
11, 41999, Note_on_c, 9, 69, 0
11, 42000, Note_on_c, 9, 69, 60
11, 42119, Note_on_c, 9, 69, 0
11, 42120, Note_on_c, 9, 69, 30
11, 42239, Note_on_c, 9, 69, 0
11, 42240, Note_on_c, 9, 69, 60
11, 42240, Note_on_c, 9, 35, 60
11, 42240, Note_on_c, 9, 36, 60
11, 42359, Note_on_c, 9, 69, 0
11, 42360, Note_on_c, 9, 69, 30
11, 42479, Note_on_c, 9, 35, 0
11, 42479, Note_on_c, 9, 36, 0
11, 42479, Note_on_c, 9, 69, 0
11, 42480, Note_on_c, 9, 69, 60
11, 42599, Note_on_c, 9, 69, 0
11, 42600, Note_on_c, 9, 69, 30
11, 42719, Note_on_c, 9, 69, 0
11, 42720, Note_on_c, 9, 69, 60
11, 42720, Note_on_c, 9, 40, 60
11, 42839, Note_on_c, 9, 69, 0
11, 42840, Note_on_c, 9, 69, 30
11, 42959, Note_on_c, 9, 40, 0
11, 42959, Note_on_c, 9, 69, 0
11, 42960, Note_on_c, 9, 69, 60
11, 43079, Note_on_c, 9, 69, 0
11, 43080, Note_on_c, 9, 69, 30
11, 43199, Note_on_c, 9, 69, 0
11, 43200, Note_on_c, 9, 69, 60
11, 43200, Note_on_c, 9, 35, 60
11, 43200, Note_on_c, 9, 36, 60
11, 43319, Note_on_c, 9, 69, 0
11, 43320, Note_on_c, 9, 69, 30
11, 43439, Note_on_c, 9, 35, 0
11, 43439, Note_on_c, 9, 36, 0
11, 43439, Note_on_c, 9, 69, 0
11, 43440, Note_on_c, 9, 69, 60
11, 43559, Note_on_c, 9, 69, 0
11, 43560, Note_on_c, 9, 69, 30
11, 43679, Note_on_c, 9, 69, 0
11, 43680, Note_on_c, 9, 69, 60
11, 43680, Note_on_c, 9, 40, 60
11, 43799, Note_on_c, 9, 69, 0
11, 43800, Note_on_c, 9, 69, 30
11, 43919, Note_on_c, 9, 40, 0
11, 43919, Note_on_c, 9, 69, 0
11, 43920, Note_on_c, 9, 69, 60
11, 44039, Note_on_c, 9, 69, 0
11, 44040, Note_on_c, 9, 69, 30
11, 44159, Note_on_c, 9, 69, 0
11, 44160, Note_on_c, 9, 69, 60
11, 44160, Note_on_c, 9, 35, 60
11, 44160, Note_on_c, 9, 36, 60
11, 44279, Note_on_c, 9, 69, 0
11, 44280, Note_on_c, 9, 69, 30
11, 44399, Note_on_c, 9, 35, 0
11, 44399, Note_on_c, 9, 36, 0
11, 44399, Note_on_c, 9, 69, 0
11, 44400, Note_on_c, 9, 69, 60
11, 44519, Note_on_c, 9, 69, 0
11, 44520, Note_on_c, 9, 69, 30
11, 44639, Note_on_c, 9, 69, 0
11, 44640, Note_on_c, 9, 69, 60
11, 44640, Note_on_c, 9, 40, 60
11, 44759, Note_on_c, 9, 69, 0
11, 44760, Note_on_c, 9, 69, 30
11, 44879, Note_on_c, 9, 40, 0
11, 44879, Note_on_c, 9, 69, 0
11, 44880, Note_on_c, 9, 69, 60
11, 44999, Note_on_c, 9, 69, 0
11, 45000, Note_on_c, 9, 69, 30
11, 45000, Note_on_c, 9, 35, 60
11, 45000, Note_on_c, 9, 36, 60
11, 45119, Note_on_c, 9, 69, 0
11, 45119, Note_on_c, 9, 35, 0
11, 45119, Note_on_c, 9, 36, 0
11, 45120, Note_on_c, 9, 69, 60
11, 45120, Note_on_c, 9, 35, 60
11, 45120, Note_on_c, 9, 36, 60
11, 45120, Note_on_c, 9, 50, 100
11, 45120, Note_on_c, 9, 50, 60
11, 45120, Note_on_c, 9, 55, 60
11, 45179, Note_on_c, 9, 50, 0
11, 45179, Note_on_c, 9, 55, 0
11, 45239, Note_on_c, 9, 69, 0
11, 45239, Note_on_c, 9, 50, 0
11, 45240, Note_on_c, 9, 69, 30
11, 45240, Note_on_c, 9, 50, 60
11, 45240, Note_on_c, 9, 50, 60
11, 45299, Note_on_c, 9, 50, 0
11, 45299, Note_on_c, 9, 50, 0
11, 45359, Note_on_c, 9, 35, 0
11, 45359, Note_on_c, 9, 36, 0
11, 45359, Note_on_c, 9, 69, 0
11, 45360, Note_on_c, 9, 69, 60
11, 45360, Note_on_c, 9, 48, 60
11, 45360, Note_on_c, 9, 48, 60
11, 45419, Note_on_c, 9, 48, 0
11, 45479, Note_on_c, 9, 69, 0
11, 45479, Note_on_c, 9, 48, 0
11, 45480, Note_on_c, 9, 55, 60
11, 45480, Note_on_c, 9, 69, 30
11, 45480, Note_on_c, 9, 48, 60
11, 45480, Note_on_c, 9, 48, 60
11, 45539, Note_on_c, 9, 55, 0
11, 45539, Note_on_c, 9, 48, 0
11, 45599, Note_on_c, 9, 69, 0
11, 45599, Note_on_c, 9, 48, 0
11, 45600, Note_on_c, 9, 69, 60
11, 45600, Note_on_c, 9, 47, 60
11, 45600, Note_on_c, 9, 47, 60
11, 45659, Note_on_c, 9, 47, 0
11, 45719, Note_on_c, 9, 69, 0
11, 45720, Note_on_c, 9, 69, 30
11, 45720, Note_on_c, 9, 47, 100
11, 45720, Note_on_c, 9, 47, 60
11, 45779, Note_on_c, 9, 47, 0
11, 45839, Note_on_c, 9, 69, 0
11, 45839, Note_on_c, 9, 47, 0
11, 45839, Note_on_c, 9, 47, 0
11, 45840, Note_on_c, 9, 69, 60
11, 45840, Note_on_c, 9, 43, 60
11, 45840, Note_on_c, 9, 43, 60
11, 45899, Note_on_c, 9, 43, 0
11, 45959, Note_on_c, 9, 69, 0
11, 45959, Note_on_c, 9, 43, 0
11, 45960, Note_on_c, 9, 43, 60
11, 45960, Note_on_c, 9, 69, 30
11, 45960, Note_on_c, 9, 43, 60
11, 46019, Note_on_c, 9, 43, 0
11, 46079, Note_on_c, 9, 69, 0
11, 46079, Note_on_c, 9, 43, 0
11, 46080, Note_on_c, 9, 69, 60
11, 46080, Note_on_c, 9, 35, 60
11, 46080, Note_on_c, 9, 36, 60
11, 46199, Note_on_c, 9, 69, 0
11, 46200, Note_on_c, 9, 69, 30
11, 46319, Note_on_c, 9, 35, 0
11, 46319, Note_on_c, 9, 36, 0
11, 46319, Note_on_c, 9, 69, 0
11, 46320, Note_on_c, 9, 69, 60
11, 46439, Note_on_c, 9, 69, 0
11, 46440, Note_on_c, 9, 69, 30
11, 46559, Note_on_c, 9, 69, 0
11, 46560, Note_on_c, 9, 69, 60
11, 46560, Note_on_c, 9, 40, 60
11, 46679, Note_on_c, 9, 69, 0
11, 46680, Note_on_c, 9, 69, 30
11, 46799, Note_on_c, 9, 40, 0
11, 46799, Note_on_c, 9, 69, 0
11, 46800, Note_on_c, 9, 69, 60
11, 46919, Note_on_c, 9, 69, 0
11, 46920, Note_on_c, 9, 69, 30
11, 47039, Note_on_c, 9, 69, 0
11, 47040, Note_on_c, 9, 69, 60
11, 47040, Note_on_c, 9, 35, 60
11, 47040, Note_on_c, 9, 36, 60
11, 47159, Note_on_c, 9, 69, 0
11, 47160, Note_on_c, 9, 69, 30
11, 47279, Note_on_c, 9, 35, 0
11, 47279, Note_on_c, 9, 36, 0
11, 47279, Note_on_c, 9, 69, 0
11, 47280, Note_on_c, 9, 69, 60
11, 47399, Note_on_c, 9, 69, 0
11, 47400, Note_on_c, 9, 69, 30
11, 47519, Note_on_c, 9, 69, 0
11, 47520, Note_on_c, 9, 69, 60
11, 47520, Note_on_c, 9, 40, 60
11, 47639, Note_on_c, 9, 69, 0
11, 47640, Note_on_c, 9, 69, 30
11, 47759, Note_on_c, 9, 40, 0
11, 47759, Note_on_c, 9, 69, 0
11, 47760, Note_on_c, 9, 69, 60
11, 47879, Note_on_c, 9, 69, 0
11, 47880, Note_on_c, 9, 69, 30
11, 47999, Note_on_c, 9, 69, 0
11, 48000, Note_on_c, 9, 69, 60
11, 48000, Note_on_c, 9, 35, 60
11, 48000, Note_on_c, 9, 36, 60
11, 48119, Note_on_c, 9, 69, 0
11, 48120, Note_on_c, 9, 69, 30
11, 48239, Note_on_c, 9, 35, 0
11, 48239, Note_on_c, 9, 36, 0
11, 48239, Note_on_c, 9, 69, 0
11, 48240, Note_on_c, 9, 69, 60
11, 48359, Note_on_c, 9, 69, 0
11, 48360, Note_on_c, 9, 69, 30
11, 48479, Note_on_c, 9, 69, 0
11, 48480, Note_on_c, 9, 69, 60
11, 48480, Note_on_c, 9, 40, 60
11, 48599, Note_on_c, 9, 69, 0
11, 48600, Note_on_c, 9, 69, 30
11, 48719, Note_on_c, 9, 40, 0
11, 48719, Note_on_c, 9, 69, 0
11, 48720, Note_on_c, 9, 69, 60
11, 48839, Note_on_c, 9, 69, 0
11, 48840, Note_on_c, 9, 69, 30
11, 48959, Note_on_c, 9, 69, 0
11, 48960, Note_on_c, 9, 69, 60
11, 48960, Note_on_c, 9, 35, 60
11, 48960, Note_on_c, 9, 36, 60
11, 49079, Note_on_c, 9, 69, 0
11, 49080, Note_on_c, 9, 69, 30
11, 49199, Note_on_c, 9, 35, 0
11, 49199, Note_on_c, 9, 36, 0
11, 49199, Note_on_c, 9, 69, 0
11, 49200, Note_on_c, 9, 69, 60
11, 49319, Note_on_c, 9, 69, 0
11, 49320, Note_on_c, 9, 69, 30
11, 49439, Note_on_c, 9, 69, 0
11, 49440, Note_on_c, 9, 69, 60
11, 49440, Note_on_c, 9, 40, 60
11, 49559, Note_on_c, 9, 69, 0
11, 49560, Note_on_c, 9, 69, 30
11, 49679, Note_on_c, 9, 40, 0
11, 49679, Note_on_c, 9, 69, 0
11, 49680, Note_on_c, 9, 69, 60
11, 49799, Note_on_c, 9, 69, 0
11, 49800, Note_on_c, 9, 69, 30
11, 49919, Note_on_c, 9, 69, 0
11, 49920, Note_on_c, 9, 69, 60
11, 49920, Note_on_c, 9, 35, 60
11, 49920, Note_on_c, 9, 36, 60
11, 50039, Note_on_c, 9, 69, 0
11, 50040, Note_on_c, 9, 69, 30
11, 50159, Note_on_c, 9, 35, 0
11, 50159, Note_on_c, 9, 36, 0
11, 50159, Note_on_c, 9, 69, 0
11, 50160, Note_on_c, 9, 69, 60
11, 50279, Note_on_c, 9, 69, 0
11, 50280, Note_on_c, 9, 69, 30
11, 50399, Note_on_c, 9, 69, 0
11, 50400, Note_on_c, 9, 69, 60
11, 50400, Note_on_c, 9, 40, 60
11, 50519, Note_on_c, 9, 69, 0
11, 50520, Note_on_c, 9, 69, 30
11, 50639, Note_on_c, 9, 40, 0
11, 50639, Note_on_c, 9, 69, 0
11, 50640, Note_on_c, 9, 69, 60
11, 50759, Note_on_c, 9, 69, 0
11, 50760, Note_on_c, 9, 69, 30
11, 50879, Note_on_c, 9, 69, 0
11, 50880, Note_on_c, 9, 69, 60
11, 50880, Note_on_c, 9, 35, 60
11, 50880, Note_on_c, 9, 36, 60
11, 50999, Note_on_c, 9, 69, 0
11, 51000, Note_on_c, 9, 69, 30
11, 51119, Note_on_c, 9, 35, 0
11, 51119, Note_on_c, 9, 36, 0
11, 51119, Note_on_c, 9, 69, 0
11, 51120, Note_on_c, 9, 69, 60
11, 51239, Note_on_c, 9, 69, 0
11, 51240, Note_on_c, 9, 69, 30
11, 51359, Note_on_c, 9, 69, 0
11, 51360, Note_on_c, 9, 69, 60
11, 51360, Note_on_c, 9, 40, 60
11, 51479, Note_on_c, 9, 69, 0
11, 51480, Note_on_c, 9, 69, 30
11, 51599, Note_on_c, 9, 40, 0
11, 51599, Note_on_c, 9, 69, 0
11, 51600, Note_on_c, 9, 69, 60
11, 51719, Note_on_c, 9, 69, 0
11, 51720, Note_on_c, 9, 69, 30
11, 51839, Note_on_c, 9, 69, 0
11, 51840, Note_on_c, 9, 69, 60
11, 51840, Note_on_c, 9, 35, 60
11, 51840, Note_on_c, 9, 36, 60
11, 51959, Note_on_c, 9, 69, 0
11, 51959, Note_on_c, 9, 35, 0
11, 51959, Note_on_c, 9, 36, 0
11, 51960, Note_on_c, 9, 69, 30
11, 52079, Note_on_c, 9, 69, 0
11, 52080, Note_on_c, 9, 69, 60
11, 52199, Note_on_c, 9, 69, 0
11, 52200, Note_on_c, 9, 69, 30
11, 52319, Note_on_c, 9, 69, 0
11, 52320, Note_on_c, 9, 69, 60
11, 52320, Note_on_c, 9, 40, 60
11, 52439, Note_on_c, 9, 69, 0
11, 52439, Note_on_c, 9, 40, 0
11, 52440, Note_on_c, 9, 69, 30
11, 52559, Note_on_c, 9, 69, 0
11, 52560, Note_on_c, 9, 69, 60
11, 52679, Note_on_c, 9, 69, 0
11, 52680, Note_on_c, 9, 69, 30
11, 52680, Note_on_c, 9, 35, 60
11, 52680, Note_on_c, 9, 36, 60
11, 52799, Note_on_c, 9, 69, 0
11, 52799, Note_on_c, 9, 35, 0
11, 52799, Note_on_c, 9, 36, 0
11, 52800, Note_on_c, 9, 69, 60
11, 52800, Note_on_c, 9, 35, 60
11, 52800, Note_on_c, 9, 36, 60
11, 52919, Note_on_c, 9, 69, 0
11, 52919, Note_on_c, 9, 35, 0
11, 52919, Note_on_c, 9, 36, 0
11, 52920, Note_on_c, 9, 50, 60
11, 52920, Note_on_c, 9, 69, 30
11, 52920, Note_on_c, 9, 50, 60
11, 53039, Note_on_c, 9, 50, 0
11, 53039, Note_on_c, 9, 69, 0
11, 53039, Note_on_c, 9, 50, 0
11, 53040, Note_on_c, 9, 48, 60
11, 53040, Note_on_c, 9, 69, 60
11, 53040, Note_on_c, 9, 48, 60
11, 53159, Note_on_c, 9, 48, 0
11, 53159, Note_on_c, 9, 69, 0
11, 53159, Note_on_c, 9, 48, 0
11, 53160, Note_on_c, 9, 47, 60
11, 53160, Note_on_c, 9, 69, 30
11, 53160, Note_on_c, 9, 47, 60
11, 53279, Note_on_c, 9, 47, 0
11, 53279, Note_on_c, 9, 69, 0
11, 53279, Note_on_c, 9, 47, 0
11, 53280, Note_on_c, 9, 45, 60
11, 53280, Note_on_c, 9, 69, 60
11, 53280, Note_on_c, 9, 45, 60
11, 53399, Note_on_c, 9, 45, 0
11, 53399, Note_on_c, 9, 69, 0
11, 53399, Note_on_c, 9, 45, 0
11, 53400, Note_on_c, 9, 43, 60
11, 53400, Note_on_c, 9, 69, 30
11, 53400, Note_on_c, 9, 43, 60
11, 53519, Note_on_c, 9, 43, 0
11, 53519, Note_on_c, 9, 69, 0
11, 53519, Note_on_c, 9, 43, 0
11, 53520, Note_on_c, 9, 41, 60
11, 53520, Note_on_c, 9, 69, 60
11, 53520, Note_on_c, 9, 41, 60
11, 53639, Note_on_c, 9, 41, 0
11, 53639, Note_on_c, 9, 69, 0
11, 53639, Note_on_c, 9, 41, 0
11, 53640, Note_on_c, 9, 36, 60
11, 53640, Note_on_c, 9, 41, 60
11, 53640, Note_on_c, 9, 69, 30
11, 53759, Note_on_c, 9, 36, 0
11, 53759, Note_on_c, 9, 41, 0
11, 53759, Note_on_c, 9, 69, 0
11, 53760, Note_on_c, 9, 69, 60
11, 53760, Note_on_c, 9, 35, 60
11, 53760, Note_on_c, 9, 36, 60
11, 53879, Note_on_c, 9, 69, 0
11, 53879, Note_on_c, 9, 35, 0
11, 53879, Note_on_c, 9, 36, 0
11, 53880, Note_on_c, 9, 69, 30
11, 53999, Note_on_c, 9, 69, 0
11, 54000, Note_on_c, 9, 69, 60
11, 54119, Note_on_c, 9, 69, 0
11, 54120, Note_on_c, 9, 69, 30
11, 54239, Note_on_c, 9, 69, 0
11, 54240, Note_on_c, 9, 69, 60
11, 54240, Note_on_c, 9, 40, 60
11, 54359, Note_on_c, 9, 69, 0
11, 54359, Note_on_c, 9, 40, 0
11, 54360, Note_on_c, 9, 69, 30
11, 54479, Note_on_c, 9, 69, 0
11, 54480, Note_on_c, 9, 69, 60
11, 54599, Note_on_c, 9, 69, 0
11, 54600, Note_on_c, 9, 69, 30
11, 54719, Note_on_c, 9, 69, 0
11, 54720, Note_on_c, 9, 69, 60
11, 54720, Note_on_c, 9, 35, 60
11, 54720, Note_on_c, 9, 36, 60
11, 54839, Note_on_c, 9, 69, 0
11, 54840, Note_on_c, 9, 69, 30
11, 54959, Note_on_c, 9, 35, 0
11, 54959, Note_on_c, 9, 36, 0
11, 54959, Note_on_c, 9, 69, 0
11, 54960, Note_on_c, 9, 69, 60
11, 55079, Note_on_c, 9, 69, 0
11, 55080, Note_on_c, 9, 69, 30
11, 55199, Note_on_c, 9, 69, 0
11, 55200, Note_on_c, 9, 69, 60
11, 55200, Note_on_c, 9, 40, 60
11, 55319, Note_on_c, 9, 69, 0
11, 55320, Note_on_c, 9, 69, 30
11, 55439, Note_on_c, 9, 40, 0
11, 55439, Note_on_c, 9, 69, 0
11, 55440, Note_on_c, 9, 69, 60
11, 55559, Note_on_c, 9, 69, 0
11, 55560, Note_on_c, 9, 69, 30
11, 55679, Note_on_c, 9, 69, 0
11, 55680, Note_on_c, 9, 69, 60
11, 55680, Note_on_c, 9, 35, 60
11, 55680, Note_on_c, 9, 36, 60
11, 55799, Note_on_c, 9, 69, 0
11, 55800, Note_on_c, 9, 69, 30
11, 55919, Note_on_c, 9, 35, 0
11, 55919, Note_on_c, 9, 36, 0
11, 55919, Note_on_c, 9, 69, 0
11, 55920, Note_on_c, 9, 69, 60
11, 56039, Note_on_c, 9, 69, 0
11, 56040, Note_on_c, 9, 69, 30
11, 56159, Note_on_c, 9, 69, 0
11, 56160, Note_on_c, 9, 69, 60
11, 56160, Note_on_c, 9, 40, 60
11, 56279, Note_on_c, 9, 69, 0
11, 56280, Note_on_c, 9, 69, 30
11, 56399, Note_on_c, 9, 40, 0
11, 56399, Note_on_c, 9, 69, 0
11, 56400, Note_on_c, 9, 69, 60
11, 56519, Note_on_c, 9, 69, 0
11, 56520, Note_on_c, 9, 69, 30
11, 56639, Note_on_c, 9, 69, 0
11, 56640, Note_on_c, 9, 69, 60
11, 56640, Note_on_c, 9, 35, 60
11, 56640, Note_on_c, 9, 36, 60
11, 56759, Note_on_c, 9, 69, 0
11, 56760, Note_on_c, 9, 69, 30
11, 56879, Note_on_c, 9, 35, 0
11, 56879, Note_on_c, 9, 36, 0
11, 56879, Note_on_c, 9, 69, 0
11, 56880, Note_on_c, 9, 69, 60
11, 56999, Note_on_c, 9, 69, 0
11, 57000, Note_on_c, 9, 69, 30
11, 57119, Note_on_c, 9, 69, 0
11, 57120, Note_on_c, 9, 69, 60
11, 57120, Note_on_c, 9, 40, 60
11, 57239, Note_on_c, 9, 69, 0
11, 57240, Note_on_c, 9, 69, 30
11, 57359, Note_on_c, 9, 40, 0
11, 57359, Note_on_c, 9, 69, 0
11, 57360, Note_on_c, 9, 69, 60
11, 57479, Note_on_c, 9, 69, 0
11, 57480, Note_on_c, 9, 69, 30
11, 57599, Note_on_c, 9, 69, 0
11, 57600, Note_on_c, 9, 69, 60
11, 57600, Note_on_c, 9, 35, 60
11, 57600, Note_on_c, 9, 36, 60
11, 57719, Note_on_c, 9, 69, 0
11, 57720, Note_on_c, 9, 69, 30
11, 57839, Note_on_c, 9, 35, 0
11, 57839, Note_on_c, 9, 36, 0
11, 57839, Note_on_c, 9, 69, 0
11, 57840, Note_on_c, 9, 69, 60
11, 57959, Note_on_c, 9, 69, 0
11, 57960, Note_on_c, 9, 69, 30
11, 58079, Note_on_c, 9, 69, 0
11, 58080, Note_on_c, 9, 69, 60
11, 58080, Note_on_c, 9, 40, 60
11, 58199, Note_on_c, 9, 69, 0
11, 58200, Note_on_c, 9, 69, 30
11, 58319, Note_on_c, 9, 40, 0
11, 58319, Note_on_c, 9, 69, 0
11, 58320, Note_on_c, 9, 69, 60
11, 58439, Note_on_c, 9, 69, 0
11, 58440, Note_on_c, 9, 69, 30
11, 58559, Note_on_c, 9, 69, 0
11, 58560, Note_on_c, 9, 69, 60
11, 58560, Note_on_c, 9, 35, 60
11, 58560, Note_on_c, 9, 36, 60
11, 58679, Note_on_c, 9, 69, 0
11, 58680, Note_on_c, 9, 69, 30
11, 58799, Note_on_c, 9, 35, 0
11, 58799, Note_on_c, 9, 36, 0
11, 58799, Note_on_c, 9, 69, 0
11, 58800, Note_on_c, 9, 69, 60
11, 58919, Note_on_c, 9, 69, 0
11, 58920, Note_on_c, 9, 69, 30
11, 59039, Note_on_c, 9, 69, 0
11, 59040, Note_on_c, 9, 69, 60
11, 59040, Note_on_c, 9, 40, 60
11, 59159, Note_on_c, 9, 69, 0
11, 59160, Note_on_c, 9, 69, 30
11, 59279, Note_on_c, 9, 40, 0
11, 59279, Note_on_c, 9, 69, 0
11, 59280, Note_on_c, 9, 69, 60
11, 59399, Note_on_c, 9, 69, 0
11, 59400, Note_on_c, 9, 69, 30
11, 59519, Note_on_c, 9, 69, 0
11, 59520, Note_on_c, 9, 69, 60
11, 59520, Note_on_c, 9, 35, 60
11, 59520, Note_on_c, 9, 36, 60
11, 59639, Note_on_c, 9, 69, 0
11, 59640, Note_on_c, 9, 69, 30
11, 59759, Note_on_c, 9, 35, 0
11, 59759, Note_on_c, 9, 36, 0
11, 59759, Note_on_c, 9, 69, 0
11, 59760, Note_on_c, 9, 69, 60
11, 59879, Note_on_c, 9, 69, 0
11, 59880, Note_on_c, 9, 69, 30
11, 59999, Note_on_c, 9, 69, 0
11, 60000, Note_on_c, 9, 69, 60
11, 60000, Note_on_c, 9, 40, 60
11, 60119, Note_on_c, 9, 69, 0
11, 60120, Note_on_c, 9, 69, 30
11, 60239, Note_on_c, 9, 40, 0
11, 60239, Note_on_c, 9, 69, 0
11, 60240, Note_on_c, 9, 69, 60
11, 60359, Note_on_c, 9, 69, 0
11, 60360, Note_on_c, 9, 69, 30
11, 60360, Note_on_c, 9, 36, 60
11, 60360, Note_on_c, 9, 35, 60
11, 60479, Note_on_c, 9, 69, 0
11, 60479, Note_on_c, 9, 36, 0
11, 60479, Note_on_c, 9, 35, 0
11, 60480, Note_on_c, 9, 69, 60
11, 60480, Note_on_c, 9, 35, 60
11, 60480, Note_on_c, 9, 36, 60
11, 60599, Note_on_c, 9, 69, 0
11, 60600, Note_on_c, 9, 69, 30
11, 60600, Note_on_c, 9, 48, 60
11, 60600, Note_on_c, 9, 48, 60
11, 60719, Note_on_c, 9, 35, 0
11, 60719, Note_on_c, 9, 36, 0
11, 60719, Note_on_c, 9, 69, 0
11, 60719, Note_on_c, 9, 48, 0
11, 60719, Note_on_c, 9, 48, 0
11, 60720, Note_on_c, 9, 69, 60
11, 60720, Note_on_c, 9, 47, 60
11, 60720, Note_on_c, 9, 47, 60
11, 60839, Note_on_c, 9, 69, 0
11, 60839, Note_on_c, 9, 47, 0
11, 60839, Note_on_c, 9, 47, 0
11, 60840, Note_on_c, 9, 69, 30
11, 60840, Note_on_c, 9, 45, 60
11, 60840, Note_on_c, 9, 45, 60
11, 60959, Note_on_c, 9, 69, 0
11, 60959, Note_on_c, 9, 45, 0
11, 60959, Note_on_c, 9, 45, 0
11, 60960, Note_on_c, 9, 69, 60
11, 60960, Note_on_c, 9, 43, 60
11, 60960, Note_on_c, 9, 43, 60
11, 61079, Note_on_c, 9, 69, 0
11, 61079, Note_on_c, 9, 43, 0
11, 61080, Note_on_c, 9, 69, 30
11, 61080, Note_on_c, 9, 43, 60
11, 61080, Note_on_c, 9, 43, 60
11, 61199, Note_on_c, 9, 43, 0
11, 61199, Note_on_c, 9, 69, 0
11, 61199, Note_on_c, 9, 43, 0
11, 61199, Note_on_c, 9, 43, 0
11, 61200, Note_on_c, 9, 69, 60
11, 61200, Note_on_c, 9, 43, 60
11, 61200, Note_on_c, 9, 43, 60
11, 61319, Note_on_c, 9, 69, 0
11, 61319, Note_on_c, 9, 43, 0
11, 61319, Note_on_c, 9, 43, 0
11, 61320, Note_on_c, 9, 69, 30
11, 61320, Note_on_c, 9, 43, 60
11, 61320, Note_on_c, 9, 43, 60
11, 61439, Note_on_c, 9, 69, 0
11, 61439, Note_on_c, 9, 43, 0
11, 61439, Note_on_c, 9, 43, 0
11, 61440, Note_on_c, 9, 69, 60
11, 61440, Note_on_c, 9, 35, 60
11, 61440, Note_on_c, 9, 36, 60
11, 61440, Note_on_c, 9, 57, 50
11, 61559, Note_on_c, 9, 69, 0
11, 61559, Note_on_c, 9, 57, 0
11, 61560, Note_on_c, 9, 69, 30
11, 61679, Note_on_c, 9, 35, 0
11, 61679, Note_on_c, 9, 36, 0
11, 61679, Note_on_c, 9, 69, 0
11, 61680, Note_on_c, 9, 69, 60
11, 61799, Note_on_c, 9, 69, 0
11, 61800, Note_on_c, 9, 69, 30
11, 61919, Note_on_c, 9, 69, 0
11, 61920, Note_on_c, 9, 69, 60
11, 61920, Note_on_c, 9, 40, 60
11, 62039, Note_on_c, 9, 69, 0
11, 62040, Note_on_c, 9, 69, 30
11, 62159, Note_on_c, 9, 40, 0
11, 62159, Note_on_c, 9, 69, 0
11, 62160, Note_on_c, 9, 69, 60
11, 62279, Note_on_c, 9, 69, 0
11, 62280, Note_on_c, 9, 69, 30
11, 62399, Note_on_c, 9, 69, 0
11, 62400, Note_on_c, 9, 69, 60
11, 62400, Note_on_c, 9, 35, 60
11, 62400, Note_on_c, 9, 36, 60
11, 62519, Note_on_c, 9, 69, 0
11, 62520, Note_on_c, 9, 69, 30
11, 62639, Note_on_c, 9, 35, 0
11, 62639, Note_on_c, 9, 36, 0
11, 62639, Note_on_c, 9, 69, 0
11, 62640, Note_on_c, 9, 69, 60
11, 62759, Note_on_c, 9, 69, 0
11, 62760, Note_on_c, 9, 69, 30
11, 62879, Note_on_c, 9, 69, 0
11, 62880, Note_on_c, 9, 69, 60
11, 62880, Note_on_c, 9, 40, 60
11, 62999, Note_on_c, 9, 69, 0
11, 63000, Note_on_c, 9, 69, 30
11, 63119, Note_on_c, 9, 40, 0
11, 63119, Note_on_c, 9, 69, 0
11, 63120, Note_on_c, 9, 69, 60
11, 63239, Note_on_c, 9, 69, 0
11, 63240, Note_on_c, 9, 69, 30
11, 63359, Note_on_c, 9, 69, 0
11, 63360, Note_on_c, 9, 69, 60
11, 63360, Note_on_c, 9, 35, 60
11, 63360, Note_on_c, 9, 36, 60
11, 63479, Note_on_c, 9, 69, 0
11, 63480, Note_on_c, 9, 69, 30
11, 63599, Note_on_c, 9, 35, 0
11, 63599, Note_on_c, 9, 36, 0
11, 63599, Note_on_c, 9, 69, 0
11, 63600, Note_on_c, 9, 69, 60
11, 63719, Note_on_c, 9, 69, 0
11, 63720, Note_on_c, 9, 69, 30
11, 63839, Note_on_c, 9, 69, 0
11, 63840, Note_on_c, 9, 69, 60
11, 63840, Note_on_c, 9, 40, 60
11, 63959, Note_on_c, 9, 69, 0
11, 63960, Note_on_c, 9, 69, 30
11, 64079, Note_on_c, 9, 40, 0
11, 64079, Note_on_c, 9, 69, 0
11, 64080, Note_on_c, 9, 69, 60
11, 64199, Note_on_c, 9, 69, 0
11, 64200, Note_on_c, 9, 69, 30
11, 64200, Note_on_c, 9, 35, 60
11, 64200, Note_on_c, 9, 36, 60
11, 64319, Note_on_c, 9, 69, 0
11, 64319, Note_on_c, 9, 35, 0
11, 64319, Note_on_c, 9, 36, 0
11, 64320, Note_on_c, 9, 69, 60
11, 64320, Note_on_c, 9, 35, 60
11, 64320, Note_on_c, 9, 36, 60
11, 64439, Note_on_c, 9, 69, 0
11, 64440, Note_on_c, 9, 69, 30
11, 64559, Note_on_c, 9, 35, 0
11, 64559, Note_on_c, 9, 36, 0
11, 64559, Note_on_c, 9, 69, 0
11, 64560, Note_on_c, 9, 69, 60
11, 64679, Note_on_c, 9, 69, 0
11, 64680, Note_on_c, 9, 69, 30
11, 64799, Note_on_c, 9, 69, 0
11, 64800, Note_on_c, 9, 69, 60
11, 64800, Note_on_c, 9, 40, 60
11, 64919, Note_on_c, 9, 69, 0
11, 64920, Note_on_c, 9, 69, 30
11, 65039, Note_on_c, 9, 40, 0
11, 65039, Note_on_c, 9, 69, 0
11, 65040, Note_on_c, 9, 69, 60
11, 65159, Note_on_c, 9, 69, 0
11, 65160, Note_on_c, 9, 69, 30
11, 65279, Note_on_c, 9, 69, 0
11, 65280, Note_on_c, 9, 69, 60
11, 65280, Note_on_c, 9, 35, 60
11, 65280, Note_on_c, 9, 36, 60
11, 65399, Note_on_c, 9, 69, 0
11, 65400, Note_on_c, 9, 69, 30
11, 65519, Note_on_c, 9, 35, 0
11, 65519, Note_on_c, 9, 36, 0
11, 65519, Note_on_c, 9, 69, 0
11, 65520, Note_on_c, 9, 69, 60
11, 65639, Note_on_c, 9, 69, 0
11, 65640, Note_on_c, 9, 69, 30
11, 65759, Note_on_c, 9, 69, 0
11, 65760, Note_on_c, 9, 69, 60
11, 65760, Note_on_c, 9, 40, 60
11, 65879, Note_on_c, 9, 69, 0
11, 65880, Note_on_c, 9, 69, 30
11, 65999, Note_on_c, 9, 40, 0
11, 65999, Note_on_c, 9, 69, 0
11, 66000, Note_on_c, 9, 69, 60
11, 66119, Note_on_c, 9, 69, 0
11, 66120, Note_on_c, 9, 69, 30
11, 66239, Note_on_c, 9, 69, 0
11, 66240, Note_on_c, 9, 69, 60
11, 66240, Note_on_c, 9, 35, 60
11, 66240, Note_on_c, 9, 36, 60
11, 66359, Note_on_c, 9, 69, 0
11, 66360, Note_on_c, 9, 69, 30
11, 66479, Note_on_c, 9, 35, 0
11, 66479, Note_on_c, 9, 36, 0
11, 66479, Note_on_c, 9, 69, 0
11, 66480, Note_on_c, 9, 69, 60
11, 66599, Note_on_c, 9, 69, 0
11, 66600, Note_on_c, 9, 69, 30
11, 66719, Note_on_c, 9, 69, 0
11, 66720, Note_on_c, 9, 69, 60
11, 66720, Note_on_c, 9, 40, 60
11, 66839, Note_on_c, 9, 69, 0
11, 66840, Note_on_c, 9, 69, 30
11, 66959, Note_on_c, 9, 40, 0
11, 66959, Note_on_c, 9, 69, 0
11, 66960, Note_on_c, 9, 69, 60
11, 67079, Note_on_c, 9, 69, 0
11, 67080, Note_on_c, 9, 69, 30
11, 67199, Note_on_c, 9, 69, 0
11, 67200, Note_on_c, 9, 69, 60
11, 67200, Note_on_c, 9, 35, 60
11, 67200, Note_on_c, 9, 36, 60
11, 67319, Note_on_c, 9, 69, 0
11, 67320, Note_on_c, 9, 69, 30
11, 67439, Note_on_c, 9, 35, 0
11, 67439, Note_on_c, 9, 36, 0
11, 67439, Note_on_c, 9, 69, 0
11, 67440, Note_on_c, 9, 69, 60
11, 67559, Note_on_c, 9, 69, 0
11, 67560, Note_on_c, 9, 69, 30
11, 67679, Note_on_c, 9, 69, 0
11, 67680, Note_on_c, 9, 69, 60
11, 67680, Note_on_c, 9, 40, 60
11, 67799, Note_on_c, 9, 69, 0
11, 67800, Note_on_c, 9, 69, 30
11, 67919, Note_on_c, 9, 40, 0
11, 67919, Note_on_c, 9, 69, 0
11, 67920, Note_on_c, 9, 69, 60
11, 68039, Note_on_c, 9, 69, 0
11, 68040, Note_on_c, 9, 69, 30
11, 68040, Note_on_c, 9, 35, 60
11, 68040, Note_on_c, 9, 36, 60
11, 68159, Note_on_c, 9, 69, 0
11, 68159, Note_on_c, 9, 35, 0
11, 68159, Note_on_c, 9, 36, 0
11, 68160, Note_on_c, 9, 69, 60
11, 68160, Note_on_c, 9, 35, 60
11, 68160, Note_on_c, 9, 36, 60
11, 68160, Note_on_c, 9, 48, 60
11, 68279, Note_on_c, 9, 69, 0
11, 68279, Note_on_c, 9, 48, 0
11, 68280, Note_on_c, 9, 69, 30
11, 68280, Note_on_c, 9, 48, 60
11, 68399, Note_on_c, 9, 35, 0
11, 68399, Note_on_c, 9, 36, 0
11, 68399, Note_on_c, 9, 69, 0
11, 68399, Note_on_c, 9, 48, 0
11, 68400, Note_on_c, 9, 69, 60
11, 68400, Note_on_c, 9, 47, 60
11, 68519, Note_on_c, 9, 69, 0
11, 68519, Note_on_c, 9, 47, 0
11, 68520, Note_on_c, 9, 69, 30
11, 68520, Note_on_c, 9, 47, 60
11, 68639, Note_on_c, 9, 69, 0
11, 68639, Note_on_c, 9, 47, 0
11, 68640, Note_on_c, 9, 69, 60
11, 68640, Note_on_c, 9, 40, 60
11, 68640, Note_on_c, 9, 45, 60
11, 68759, Note_on_c, 9, 69, 0
11, 68759, Note_on_c, 9, 45, 0
11, 68760, Note_on_c, 9, 69, 30
11, 68760, Note_on_c, 9, 45, 60
11, 68879, Note_on_c, 9, 40, 0
11, 68879, Note_on_c, 9, 69, 0
11, 68879, Note_on_c, 9, 45, 0
11, 68880, Note_on_c, 9, 69, 60
11, 68880, Note_on_c, 9, 43, 60
11, 68999, Note_on_c, 9, 69, 0
11, 68999, Note_on_c, 9, 43, 0
11, 69000, Note_on_c, 9, 69, 30
11, 69000, Note_on_c, 9, 43, 60
11, 69119, Note_on_c, 9, 69, 0
11, 69119, Note_on_c, 9, 43, 0
11, 69120, Note_on_c, 9, 69, 60
11, 69120, Note_on_c, 9, 35, 60
11, 69120, Note_on_c, 9, 36, 60
11, 69239, Note_on_c, 9, 69, 0
11, 69240, Note_on_c, 9, 69, 30
11, 69359, Note_on_c, 9, 35, 0
11, 69359, Note_on_c, 9, 36, 0
11, 69359, Note_on_c, 9, 69, 0
11, 69360, Note_on_c, 9, 69, 60
11, 69479, Note_on_c, 9, 69, 0
11, 69480, Note_on_c, 9, 69, 30
11, 69599, Note_on_c, 9, 69, 0
11, 69600, Note_on_c, 9, 69, 60
11, 69600, Note_on_c, 9, 40, 60
11, 69719, Note_on_c, 9, 69, 0
11, 69720, Note_on_c, 9, 69, 30
11, 69839, Note_on_c, 9, 40, 0
11, 69839, Note_on_c, 9, 69, 0
11, 69840, Note_on_c, 9, 69, 60
11, 69959, Note_on_c, 9, 69, 0
11, 69960, Note_on_c, 9, 69, 30
11, 70079, Note_on_c, 9, 69, 0
11, 70080, Note_on_c, 9, 69, 60
11, 70080, Note_on_c, 9, 35, 60
11, 70080, Note_on_c, 9, 36, 60
11, 70199, Note_on_c, 9, 69, 0
11, 70200, Note_on_c, 9, 69, 30
11, 70319, Note_on_c, 9, 35, 0
11, 70319, Note_on_c, 9, 36, 0
11, 70319, Note_on_c, 9, 69, 0
11, 70320, Note_on_c, 9, 69, 60
11, 70439, Note_on_c, 9, 69, 0
11, 70440, Note_on_c, 9, 69, 30
11, 70559, Note_on_c, 9, 69, 0
11, 70560, Note_on_c, 9, 69, 60
11, 70560, Note_on_c, 9, 40, 60
11, 70679, Note_on_c, 9, 69, 0
11, 70680, Note_on_c, 9, 69, 30
11, 70799, Note_on_c, 9, 40, 0
11, 70799, Note_on_c, 9, 69, 0
11, 70800, Note_on_c, 9, 69, 60
11, 70919, Note_on_c, 9, 69, 0
11, 70920, Note_on_c, 9, 69, 30
11, 71039, Note_on_c, 9, 69, 0
11, 71040, Note_on_c, 9, 69, 60
11, 71040, Note_on_c, 9, 35, 60
11, 71040, Note_on_c, 9, 36, 60
11, 71159, Note_on_c, 9, 69, 0
11, 71160, Note_on_c, 9, 69, 30
11, 71279, Note_on_c, 9, 35, 0
11, 71279, Note_on_c, 9, 36, 0
11, 71279, Note_on_c, 9, 69, 0
11, 71280, Note_on_c, 9, 69, 60
11, 71399, Note_on_c, 9, 69, 0
11, 71400, Note_on_c, 9, 69, 30
11, 71519, Note_on_c, 9, 69, 0
11, 71520, Note_on_c, 9, 69, 60
11, 71520, Note_on_c, 9, 40, 60
11, 71639, Note_on_c, 9, 69, 0
11, 71640, Note_on_c, 9, 69, 30
11, 71759, Note_on_c, 9, 40, 0
11, 71759, Note_on_c, 9, 69, 0
11, 71760, Note_on_c, 9, 69, 60
11, 71879, Note_on_c, 9, 69, 0
11, 71880, Note_on_c, 9, 69, 30
11, 71880, Note_on_c, 9, 35, 60
11, 71880, Note_on_c, 9, 36, 60
11, 71999, Note_on_c, 9, 69, 0
11, 71999, Note_on_c, 9, 35, 0
11, 71999, Note_on_c, 9, 36, 0
11, 72000, Note_on_c, 9, 69, 60
11, 72000, Note_on_c, 9, 35, 60
11, 72000, Note_on_c, 9, 36, 60
11, 72119, Note_on_c, 9, 69, 0
11, 72120, Note_on_c, 9, 69, 30
11, 72239, Note_on_c, 9, 35, 0
11, 72239, Note_on_c, 9, 36, 0
11, 72239, Note_on_c, 9, 69, 0
11, 72240, Note_on_c, 9, 69, 60
11, 72359, Note_on_c, 9, 69, 0
11, 72360, Note_on_c, 9, 69, 30
11, 72479, Note_on_c, 9, 69, 0
11, 72480, Note_on_c, 9, 69, 60
11, 72480, Note_on_c, 9, 40, 60
11, 72599, Note_on_c, 9, 69, 0
11, 72600, Note_on_c, 9, 69, 30
11, 72719, Note_on_c, 9, 40, 0
11, 72719, Note_on_c, 9, 69, 0
11, 72720, Note_on_c, 9, 69, 60
11, 72839, Note_on_c, 9, 69, 0
11, 72840, Note_on_c, 9, 69, 30
11, 72959, Note_on_c, 9, 69, 0
11, 72960, Note_on_c, 9, 69, 60
11, 72960, Note_on_c, 9, 35, 60
11, 72960, Note_on_c, 9, 36, 60
11, 73079, Note_on_c, 9, 69, 0
11, 73080, Note_on_c, 9, 69, 30
11, 73199, Note_on_c, 9, 35, 0
11, 73199, Note_on_c, 9, 36, 0
11, 73199, Note_on_c, 9, 69, 0
11, 73200, Note_on_c, 9, 69, 60
11, 73319, Note_on_c, 9, 69, 0
11, 73320, Note_on_c, 9, 69, 30
11, 73439, Note_on_c, 9, 69, 0
11, 73440, Note_on_c, 9, 69, 60
11, 73440, Note_on_c, 9, 40, 60
11, 73559, Note_on_c, 9, 69, 0
11, 73560, Note_on_c, 9, 69, 30
11, 73679, Note_on_c, 9, 40, 0
11, 73679, Note_on_c, 9, 69, 0
11, 73680, Note_on_c, 9, 69, 60
11, 73799, Note_on_c, 9, 69, 0
11, 73800, Note_on_c, 9, 69, 30
11, 73919, Note_on_c, 9, 69, 0
11, 73920, Note_on_c, 9, 69, 60
11, 73920, Note_on_c, 9, 35, 60
11, 73920, Note_on_c, 9, 36, 60
11, 74039, Note_on_c, 9, 69, 0
11, 74040, Note_on_c, 9, 69, 30
11, 74159, Note_on_c, 9, 35, 0
11, 74159, Note_on_c, 9, 36, 0
11, 74159, Note_on_c, 9, 69, 0
11, 74160, Note_on_c, 9, 69, 60
11, 74279, Note_on_c, 9, 69, 0
11, 74280, Note_on_c, 9, 69, 30
11, 74399, Note_on_c, 9, 69, 0
11, 74400, Note_on_c, 9, 69, 60
11, 74400, Note_on_c, 9, 40, 60
11, 74519, Note_on_c, 9, 69, 0
11, 74520, Note_on_c, 9, 69, 30
11, 74639, Note_on_c, 9, 40, 0
11, 74639, Note_on_c, 9, 69, 0
11, 74640, Note_on_c, 9, 69, 60
11, 74759, Note_on_c, 9, 69, 0
11, 74760, Note_on_c, 9, 69, 30
11, 74879, Note_on_c, 9, 69, 0
11, 74880, Note_on_c, 9, 69, 60
11, 74880, Note_on_c, 9, 35, 60
11, 74880, Note_on_c, 9, 36, 60
11, 74999, Note_on_c, 9, 69, 0
11, 75000, Note_on_c, 9, 69, 30
11, 75119, Note_on_c, 9, 35, 0
11, 75119, Note_on_c, 9, 36, 0
11, 75119, Note_on_c, 9, 69, 0
11, 75120, Note_on_c, 9, 69, 60
11, 75239, Note_on_c, 9, 69, 0
11, 75240, Note_on_c, 9, 69, 30
11, 75359, Note_on_c, 9, 69, 0
11, 75360, Note_on_c, 9, 69, 60
11, 75360, Note_on_c, 9, 40, 60
11, 75479, Note_on_c, 9, 69, 0
11, 75480, Note_on_c, 9, 69, 30
11, 75599, Note_on_c, 9, 40, 0
11, 75599, Note_on_c, 9, 69, 0
11, 75600, Note_on_c, 9, 69, 60
11, 75719, Note_on_c, 9, 69, 0
11, 75720, Note_on_c, 9, 69, 30
11, 75720, Note_on_c, 9, 35, 60
11, 75720, Note_on_c, 9, 36, 60
11, 75839, Note_on_c, 9, 69, 0
11, 75839, Note_on_c, 9, 35, 0
11, 75839, Note_on_c, 9, 36, 0
11, 75840, Note_on_c, 9, 69, 60
11, 75840, Note_on_c, 9, 35, 60
11, 75840, Note_on_c, 9, 36, 60
11, 75840, Note_on_c, 9, 50, 60
11, 75959, Note_on_c, 9, 69, 0
11, 75959, Note_on_c, 9, 50, 0
11, 75960, Note_on_c, 9, 69, 30
11, 75960, Note_on_c, 9, 48, 60
11, 76079, Note_on_c, 9, 35, 0
11, 76079, Note_on_c, 9, 36, 0
11, 76079, Note_on_c, 9, 69, 0
11, 76079, Note_on_c, 9, 48, 0
11, 76080, Note_on_c, 9, 69, 60
11, 76080, Note_on_c, 9, 47, 60
11, 76199, Note_on_c, 9, 69, 0
11, 76199, Note_on_c, 9, 47, 0
11, 76200, Note_on_c, 9, 69, 30
11, 76200, Note_on_c, 9, 45, 60
11, 76319, Note_on_c, 9, 69, 0
11, 76319, Note_on_c, 9, 45, 0
11, 76320, Note_on_c, 9, 69, 60
11, 76320, Note_on_c, 9, 41, 60
11, 76439, Note_on_c, 9, 69, 0
11, 76440, Note_on_c, 9, 69, 30
11, 76440, Note_on_c, 9, 41, 60
11, 76559, Note_on_c, 9, 41, 0
11, 76559, Note_on_c, 9, 69, 0
11, 76559, Note_on_c, 9, 41, 0
11, 76560, Note_on_c, 9, 69, 60
11, 76560, Note_on_c, 9, 41, 60
11, 76679, Note_on_c, 9, 69, 0
11, 76679, Note_on_c, 9, 41, 0
11, 76680, Note_on_c, 9, 69, 30
11, 76680, Note_on_c, 9, 41, 60
11, 76799, Note_on_c, 9, 69, 0
11, 76799, Note_on_c, 9, 41, 0
11, 76800, Note_on_c, 9, 69, 60
11, 76800, Note_on_c, 9, 35, 60
11, 76800, Note_on_c, 9, 36, 60
11, 76800, Note_on_c, 9, 57, 60
11, 76919, Note_on_c, 9, 69, 0
11, 76919, Note_on_c, 9, 57, 0
11, 76920, Note_on_c, 9, 69, 30
11, 77039, Note_on_c, 9, 35, 0
11, 77039, Note_on_c, 9, 36, 0
11, 77039, Note_on_c, 9, 69, 0
11, 77040, Note_on_c, 9, 69, 60
11, 77159, Note_on_c, 9, 69, 0
11, 77160, Note_on_c, 9, 69, 30
11, 77279, Note_on_c, 9, 69, 0
11, 77280, Note_on_c, 9, 69, 60
11, 77280, Note_on_c, 9, 40, 60
11, 77399, Note_on_c, 9, 69, 0
11, 77400, Note_on_c, 9, 69, 30
11, 77519, Note_on_c, 9, 40, 0
11, 77519, Note_on_c, 9, 69, 0
11, 77520, Note_on_c, 9, 69, 60
11, 77639, Note_on_c, 9, 69, 0
11, 77640, Note_on_c, 9, 69, 30
11, 77759, Note_on_c, 9, 69, 0
11, 77760, Note_on_c, 9, 69, 60
11, 77760, Note_on_c, 9, 35, 60
11, 77760, Note_on_c, 9, 36, 60
11, 77879, Note_on_c, 9, 69, 0
11, 77880, Note_on_c, 9, 69, 30
11, 77999, Note_on_c, 9, 35, 0
11, 77999, Note_on_c, 9, 36, 0
11, 77999, Note_on_c, 9, 69, 0
11, 78000, Note_on_c, 9, 69, 60
11, 78119, Note_on_c, 9, 69, 0
11, 78120, Note_on_c, 9, 69, 30
11, 78239, Note_on_c, 9, 69, 0
11, 78240, Note_on_c, 9, 69, 60
11, 78240, Note_on_c, 9, 40, 60
11, 78359, Note_on_c, 9, 69, 0
11, 78360, Note_on_c, 9, 69, 30
11, 78479, Note_on_c, 9, 40, 0
11, 78479, Note_on_c, 9, 69, 0
11, 78480, Note_on_c, 9, 69, 60
11, 78599, Note_on_c, 9, 69, 0
11, 78600, Note_on_c, 9, 69, 30
11, 78719, Note_on_c, 9, 69, 0
11, 78720, Note_on_c, 9, 69, 60
11, 78720, Note_on_c, 9, 35, 60
11, 78720, Note_on_c, 9, 36, 60
11, 78839, Note_on_c, 9, 69, 0
11, 78840, Note_on_c, 9, 69, 30
11, 78959, Note_on_c, 9, 35, 0
11, 78959, Note_on_c, 9, 36, 0
11, 78959, Note_on_c, 9, 69, 0
11, 78960, Note_on_c, 9, 69, 60
11, 79079, Note_on_c, 9, 69, 0
11, 79080, Note_on_c, 9, 69, 30
11, 79199, Note_on_c, 9, 69, 0
11, 79200, Note_on_c, 9, 69, 60
11, 79200, Note_on_c, 9, 40, 60
11, 79319, Note_on_c, 9, 69, 0
11, 79320, Note_on_c, 9, 69, 30
11, 79439, Note_on_c, 9, 40, 0
11, 79439, Note_on_c, 9, 69, 0
11, 79440, Note_on_c, 9, 69, 60
11, 79559, Note_on_c, 9, 69, 0
11, 79560, Note_on_c, 9, 69, 30
11, 79679, Note_on_c, 9, 69, 0
11, 79680, Note_on_c, 9, 69, 60
11, 79680, Note_on_c, 9, 36, 60
11, 79680, Note_on_c, 9, 35, 60
11, 79680, Note_on_c, 9, 33, 60
11, 79799, Note_on_c, 9, 69, 0
11, 79799, Note_on_c, 9, 35, 0
11, 79799, Note_on_c, 9, 33, 0
11, 79800, Note_on_c, 9, 69, 30
11, 79800, Note_on_c, 9, 33, 60
11, 79859, Note_on_c, 9, 33, 0
11, 79919, Note_on_c, 9, 36, 0
11, 79919, Note_on_c, 9, 69, 0
11, 79920, Note_on_c, 9, 69, 60
11, 79920, Note_on_c, 9, 33, 60
11, 80039, Note_on_c, 9, 69, 0
11, 80039, Note_on_c, 9, 33, 0
11, 80040, Note_on_c, 9, 69, 30
11, 80040, Note_on_c, 9, 40, 60
11, 80159, Note_on_c, 9, 69, 0
11, 80159, Note_on_c, 9, 40, 0
11, 80160, Note_on_c, 9, 69, 60
11, 80160, Note_on_c, 9, 45, 60
11, 80279, Note_on_c, 9, 69, 0
11, 80280, Note_on_c, 9, 69, 30
11, 80280, Note_on_c, 9, 38, 60
11, 80399, Note_on_c, 9, 45, 0
11, 80399, Note_on_c, 9, 69, 0
11, 80399, Note_on_c, 9, 38, 0
11, 80400, Note_on_c, 9, 69, 60
11, 80400, Note_on_c, 9, 43, 60
11, 80519, Note_on_c, 9, 69, 0
11, 80519, Note_on_c, 9, 43, 0
11, 80520, Note_on_c, 9, 69, 30
11, 80520, Note_on_c, 9, 41, 60
11, 80639, Note_on_c, 9, 69, 0
11, 80639, Note_on_c, 9, 41, 0
11, 80640, Note_on_c, 9, 69, 60
11, 80640, Note_on_c, 9, 35, 60
11, 80640, Note_on_c, 9, 36, 60
11, 80759, Note_on_c, 9, 69, 0
11, 80760, Note_on_c, 9, 69, 30
11, 80879, Note_on_c, 9, 35, 0
11, 80879, Note_on_c, 9, 36, 0
11, 80879, Note_on_c, 9, 69, 0
11, 80880, Note_on_c, 9, 69, 60
11, 80999, Note_on_c, 9, 69, 0
11, 81000, Note_on_c, 9, 69, 30
11, 81119, Note_on_c, 9, 69, 0
11, 81120, Note_on_c, 9, 69, 60
11, 81120, Note_on_c, 9, 40, 60
11, 81239, Note_on_c, 9, 69, 0
11, 81240, Note_on_c, 9, 69, 30
11, 81359, Note_on_c, 9, 40, 0
11, 81359, Note_on_c, 9, 69, 0
11, 81360, Note_on_c, 9, 69, 60
11, 81479, Note_on_c, 9, 69, 0
11, 81480, Note_on_c, 9, 69, 30
11, 81599, Note_on_c, 9, 69, 0
11, 81600, Note_on_c, 9, 69, 60
11, 81600, Note_on_c, 9, 35, 60
11, 81600, Note_on_c, 9, 36, 60
11, 81719, Note_on_c, 9, 69, 0
11, 81720, Note_on_c, 9, 69, 30
11, 81839, Note_on_c, 9, 35, 0
11, 81839, Note_on_c, 9, 36, 0
11, 81839, Note_on_c, 9, 69, 0
11, 81840, Note_on_c, 9, 69, 60
11, 81959, Note_on_c, 9, 69, 0
11, 81960, Note_on_c, 9, 69, 30
11, 82079, Note_on_c, 9, 69, 0
11, 82080, Note_on_c, 9, 69, 60
11, 82080, Note_on_c, 9, 40, 60
11, 82199, Note_on_c, 9, 69, 0
11, 82200, Note_on_c, 9, 69, 30
11, 82319, Note_on_c, 9, 40, 0
11, 82319, Note_on_c, 9, 69, 0
11, 82320, Note_on_c, 9, 69, 60
11, 82439, Note_on_c, 9, 69, 0
11, 82440, Note_on_c, 9, 69, 30
11, 82559, Note_on_c, 9, 69, 0
11, 82560, Note_on_c, 9, 69, 60
11, 82560, Note_on_c, 9, 35, 60
11, 82560, Note_on_c, 9, 36, 60
11, 82679, Note_on_c, 9, 69, 0
11, 82680, Note_on_c, 9, 69, 30
11, 82799, Note_on_c, 9, 35, 0
11, 82799, Note_on_c, 9, 36, 0
11, 82799, Note_on_c, 9, 69, 0
11, 82800, Note_on_c, 9, 69, 60
11, 82919, Note_on_c, 9, 69, 0
11, 82920, Note_on_c, 9, 69, 30
11, 83039, Note_on_c, 9, 69, 0
11, 83040, Note_on_c, 9, 69, 60
11, 83040, Note_on_c, 9, 45, 60
11, 83159, Note_on_c, 9, 69, 0
11, 83159, Note_on_c, 9, 45, 0
11, 83160, Note_on_c, 9, 69, 30
11, 83160, Note_on_c, 9, 36, 60
11, 83279, Note_on_c, 9, 69, 0
11, 83280, Note_on_c, 9, 69, 60
11, 83399, Note_on_c, 9, 69, 0
11, 83400, Note_on_c, 9, 69, 30
11, 83519, Note_on_c, 9, 36, 0
11, 83519, Note_on_c, 9, 69, 0
11, 83520, Note_on_c, 9, 69, 60
11, 83520, Note_on_c, 9, 35, 60
11, 83520, Note_on_c, 9, 36, 60
11, 83520, Note_on_c, 9, 50, 60
11, 83639, Note_on_c, 9, 69, 0
11, 83639, Note_on_c, 9, 50, 0
11, 83640, Note_on_c, 9, 69, 30
11, 83640, Note_on_c, 9, 50, 60
11, 83759, Note_on_c, 9, 35, 0
11, 83759, Note_on_c, 9, 36, 0
11, 83759, Note_on_c, 9, 69, 0
11, 83759, Note_on_c, 9, 50, 0
11, 83760, Note_on_c, 9, 69, 60
11, 83760, Note_on_c, 9, 48, 60
11, 83879, Note_on_c, 9, 69, 0
11, 83879, Note_on_c, 9, 48, 0
11, 83880, Note_on_c, 9, 69, 30
11, 83880, Note_on_c, 9, 48, 60
11, 83999, Note_on_c, 9, 69, 0
11, 83999, Note_on_c, 9, 48, 0
11, 84000, Note_on_c, 9, 69, 60
11, 84000, Note_on_c, 9, 40, 60
11, 84119, Note_on_c, 9, 69, 0
11, 84119, Note_on_c, 9, 40, 0
11, 84120, Note_on_c, 9, 69, 30
11, 84120, Note_on_c, 9, 45, 60
11, 84239, Note_on_c, 9, 69, 0
11, 84239, Note_on_c, 9, 45, 0
11, 84240, Note_on_c, 9, 69, 60
11, 84240, Note_on_c, 9, 40, 60
11, 84359, Note_on_c, 9, 69, 0
11, 84359, Note_on_c, 9, 40, 0
11, 84360, Note_on_c, 9, 69, 30
11, 84360, Note_on_c, 9, 45, 60
11, 84479, Note_on_c, 9, 69, 0
11, 84479, Note_on_c, 9, 45, 0
11, 84480, Note_on_c, 9, 69, 60
11, 84480, Note_on_c, 9, 35, 60
11, 84480, Note_on_c, 9, 36, 60
11, 84599, Note_on_c, 9, 69, 0
11, 84600, Note_on_c, 9, 69, 30
11, 84719, Note_on_c, 9, 35, 0
11, 84719, Note_on_c, 9, 36, 0
11, 84719, Note_on_c, 9, 69, 0
11, 84720, Note_on_c, 9, 69, 60
11, 84839, Note_on_c, 9, 69, 0
11, 84840, Note_on_c, 9, 69, 30
11, 84959, Note_on_c, 9, 69, 0
11, 84960, Note_on_c, 9, 69, 60
11, 84960, Note_on_c, 9, 40, 60
11, 85079, Note_on_c, 9, 69, 0
11, 85080, Note_on_c, 9, 69, 30
11, 85199, Note_on_c, 9, 40, 0
11, 85199, Note_on_c, 9, 69, 0
11, 85200, Note_on_c, 9, 69, 60
11, 85319, Note_on_c, 9, 69, 0
11, 85320, Note_on_c, 9, 69, 30
11, 85439, Note_on_c, 9, 69, 0
11, 85440, Note_on_c, 9, 69, 60
11, 85440, Note_on_c, 9, 35, 60
11, 85440, Note_on_c, 9, 36, 60
11, 85559, Note_on_c, 9, 69, 0
11, 85560, Note_on_c, 9, 69, 30
11, 85679, Note_on_c, 9, 35, 0
11, 85679, Note_on_c, 9, 36, 0
11, 85679, Note_on_c, 9, 69, 0
11, 85680, Note_on_c, 9, 69, 60
11, 85799, Note_on_c, 9, 69, 0
11, 85800, Note_on_c, 9, 69, 30
11, 85919, Note_on_c, 9, 69, 0
11, 85920, Note_on_c, 9, 69, 60
11, 85920, Note_on_c, 9, 40, 60
11, 86039, Note_on_c, 9, 69, 0
11, 86040, Note_on_c, 9, 69, 30
11, 86159, Note_on_c, 9, 40, 0
11, 86159, Note_on_c, 9, 69, 0
11, 86160, Note_on_c, 9, 69, 60
11, 86279, Note_on_c, 9, 69, 0
11, 86280, Note_on_c, 9, 69, 30
11, 86399, Note_on_c, 9, 69, 0
11, 86400, Note_on_c, 9, 69, 60
11, 86400, Note_on_c, 9, 35, 60
11, 86400, Note_on_c, 9, 36, 60
11, 86519, Note_on_c, 9, 69, 0
11, 86520, Note_on_c, 9, 69, 30
11, 86639, Note_on_c, 9, 35, 0
11, 86639, Note_on_c, 9, 36, 0
11, 86639, Note_on_c, 9, 69, 0
11, 86640, Note_on_c, 9, 69, 60
11, 86759, Note_on_c, 9, 69, 0
11, 86760, Note_on_c, 9, 69, 30
11, 86879, Note_on_c, 9, 69, 0
11, 86880, Note_on_c, 9, 69, 60
11, 86880, Note_on_c, 9, 40, 60
11, 86999, Note_on_c, 9, 69, 0
11, 87000, Note_on_c, 9, 69, 30
11, 87119, Note_on_c, 9, 40, 0
11, 87119, Note_on_c, 9, 69, 0
11, 87120, Note_on_c, 9, 69, 60
11, 87239, Note_on_c, 9, 69, 0
11, 87240, Note_on_c, 9, 69, 30
11, 87359, Note_on_c, 9, 69, 0
11, 87360, Note_on_c, 9, 69, 60
11, 87360, Note_on_c, 9, 35, 60
11, 87360, Note_on_c, 9, 36, 60
11, 87479, Note_on_c, 9, 69, 0
11, 87480, Note_on_c, 9, 69, 30
11, 87599, Note_on_c, 9, 35, 0
11, 87599, Note_on_c, 9, 36, 0
11, 87599, Note_on_c, 9, 69, 0
11, 87600, Note_on_c, 9, 69, 60
11, 87719, Note_on_c, 9, 69, 0
11, 87720, Note_on_c, 9, 69, 30
11, 87839, Note_on_c, 9, 69, 0
11, 87840, Note_on_c, 9, 69, 60
11, 87840, Note_on_c, 9, 40, 60
11, 87959, Note_on_c, 9, 69, 0
11, 87960, Note_on_c, 9, 69, 30
11, 88079, Note_on_c, 9, 40, 0
11, 88079, Note_on_c, 9, 69, 0
11, 88080, Note_on_c, 9, 69, 60
11, 88199, Note_on_c, 9, 69, 0
11, 88200, Note_on_c, 9, 69, 30
11, 88319, Note_on_c, 9, 69, 0
11, 88320, Note_on_c, 9, 69, 60
11, 88320, Note_on_c, 9, 35, 60
11, 88320, Note_on_c, 9, 36, 60
11, 88439, Note_on_c, 9, 69, 0
11, 88440, Note_on_c, 9, 69, 30
11, 88559, Note_on_c, 9, 35, 0
11, 88559, Note_on_c, 9, 36, 0
11, 88559, Note_on_c, 9, 69, 0
11, 88560, Note_on_c, 9, 69, 60
11, 88679, Note_on_c, 9, 69, 0
11, 88680, Note_on_c, 9, 69, 30
11, 88799, Note_on_c, 9, 69, 0
11, 88800, Note_on_c, 9, 69, 60
11, 88800, Note_on_c, 9, 40, 60
11, 88919, Note_on_c, 9, 69, 0
11, 88920, Note_on_c, 9, 69, 30
11, 89039, Note_on_c, 9, 40, 0
11, 89039, Note_on_c, 9, 69, 0
11, 89040, Note_on_c, 9, 69, 60
11, 89159, Note_on_c, 9, 69, 0
11, 89160, Note_on_c, 9, 69, 30
11, 89279, Note_on_c, 9, 69, 0
11, 89280, Note_on_c, 9, 69, 60
11, 89280, Note_on_c, 9, 35, 60
11, 89280, Note_on_c, 9, 36, 60
11, 89399, Note_on_c, 9, 69, 0
11, 89400, Note_on_c, 9, 69, 30
11, 89519, Note_on_c, 9, 35, 0
11, 89519, Note_on_c, 9, 36, 0
11, 89519, Note_on_c, 9, 69, 0
11, 89520, Note_on_c, 9, 69, 60
11, 89639, Note_on_c, 9, 69, 0
11, 89640, Note_on_c, 9, 69, 30
11, 89759, Note_on_c, 9, 69, 0
11, 89760, Note_on_c, 9, 69, 60
11, 89760, Note_on_c, 9, 40, 60
11, 89879, Note_on_c, 9, 69, 0
11, 89880, Note_on_c, 9, 69, 30
11, 89999, Note_on_c, 9, 40, 0
11, 89999, Note_on_c, 9, 69, 0
11, 90000, Note_on_c, 9, 69, 60
11, 90119, Note_on_c, 9, 69, 0
11, 90120, Note_on_c, 9, 69, 30
11, 90239, Note_on_c, 9, 69, 0
11, 90240, Note_on_c, 9, 69, 60
11, 90240, Note_on_c, 9, 35, 60
11, 90240, Note_on_c, 9, 36, 60
11, 90359, Note_on_c, 9, 69, 0
11, 90360, Note_on_c, 9, 69, 30
11, 90479, Note_on_c, 9, 35, 0
11, 90479, Note_on_c, 9, 36, 0
11, 90479, Note_on_c, 9, 69, 0
11, 90480, Note_on_c, 9, 69, 60
11, 90599, Note_on_c, 9, 69, 0
11, 90600, Note_on_c, 9, 69, 30
11, 90719, Note_on_c, 9, 69, 0
11, 90720, Note_on_c, 9, 69, 60
11, 90720, Note_on_c, 9, 40, 60
11, 90839, Note_on_c, 9, 69, 0
11, 90840, Note_on_c, 9, 69, 30
11, 90959, Note_on_c, 9, 40, 0
11, 90959, Note_on_c, 9, 69, 0
11, 90960, Note_on_c, 9, 69, 60
11, 91079, Note_on_c, 9, 69, 0
11, 91080, Note_on_c, 9, 69, 30
11, 91199, Note_on_c, 9, 69, 0
11, 91200, Note_on_c, 9, 69, 60
11, 91200, Note_on_c, 9, 35, 60
11, 91200, Note_on_c, 9, 36, 60
11, 91200, Note_on_c, 9, 40, 60
11, 91319, Note_on_c, 9, 69, 0
11, 91319, Note_on_c, 9, 40, 0
11, 91320, Note_on_c, 9, 69, 30
11, 91320, Note_on_c, 9, 40, 60
11, 91439, Note_on_c, 9, 35, 0
11, 91439, Note_on_c, 9, 36, 0
11, 91439, Note_on_c, 9, 69, 0
11, 91439, Note_on_c, 9, 40, 0
11, 91440, Note_on_c, 9, 69, 60
11, 91440, Note_on_c, 9, 48, 60
11, 91440, Note_on_c, 9, 48, 60
11, 91440, Note_on_c, 9, 45, 60
11, 91559, Note_on_c, 9, 69, 0
11, 91559, Note_on_c, 9, 48, 0
11, 91559, Note_on_c, 9, 48, 0
11, 91559, Note_on_c, 9, 45, 0
11, 91560, Note_on_c, 9, 69, 30
11, 91560, Note_on_c, 9, 48, 60
11, 91560, Note_on_c, 9, 48, 60
11, 91560, Note_on_c, 9, 45, 60
11, 91679, Note_on_c, 9, 69, 0
11, 91679, Note_on_c, 9, 48, 0
11, 91679, Note_on_c, 9, 48, 0
11, 91679, Note_on_c, 9, 45, 0
11, 91680, Note_on_c, 9, 69, 60
11, 91680, Note_on_c, 9, 47, 60
11, 91680, Note_on_c, 9, 47, 60
11, 91680, Note_on_c, 9, 43, 60
11, 91799, Note_on_c, 9, 69, 0
11, 91799, Note_on_c, 9, 47, 0
11, 91799, Note_on_c, 9, 43, 0
11, 91800, Note_on_c, 9, 69, 30
11, 91800, Note_on_c, 9, 47, 60
11, 91800, Note_on_c, 9, 47, 60
11, 91800, Note_on_c, 9, 43, 60
11, 91919, Note_on_c, 9, 47, 0
11, 91919, Note_on_c, 9, 69, 0
11, 91919, Note_on_c, 9, 47, 0
11, 91919, Note_on_c, 9, 47, 0
11, 91919, Note_on_c, 9, 43, 0
11, 91920, Note_on_c, 9, 69, 60
11, 91920, Note_on_c, 9, 41, 60
11, 91920, Note_on_c, 9, 41, 60
11, 91920, Note_on_c, 9, 48, 60
11, 91920, Note_on_c, 9, 35, 60
11, 92039, Note_on_c, 9, 69, 0
11, 92039, Note_on_c, 9, 41, 0
11, 92039, Note_on_c, 9, 41, 0
11, 92039, Note_on_c, 9, 48, 0
11, 92039, Note_on_c, 9, 35, 0
11, 92040, Note_on_c, 9, 69, 30
11, 92040, Note_on_c, 9, 41, 60
11, 92040, Note_on_c, 9, 41, 60
11, 92040, Note_on_c, 9, 48, 60
11, 92040, Note_on_c, 9, 35, 60
11, 92159, Note_on_c, 9, 69, 0
11, 92159, Note_on_c, 9, 41, 0
11, 92159, Note_on_c, 9, 41, 0
11, 92159, Note_on_c, 9, 48, 0
11, 92159, Note_on_c, 9, 35, 0
11, 92160, Note_on_c, 9, 69, 60
11, 92160, Note_on_c, 9, 35, 60
11, 92160, Note_on_c, 9, 36, 60
11, 92279, Note_on_c, 9, 69, 0
11, 92280, Note_on_c, 9, 69, 30
11, 92399, Note_on_c, 9, 35, 0
11, 92399, Note_on_c, 9, 36, 0
11, 92399, Note_on_c, 9, 69, 0
11, 92400, Note_on_c, 9, 69, 60
11, 92519, Note_on_c, 9, 69, 0
11, 92520, Note_on_c, 9, 69, 30
11, 92639, Note_on_c, 9, 69, 0
11, 92640, Note_on_c, 9, 69, 60
11, 92640, Note_on_c, 9, 40, 60
11, 92759, Note_on_c, 9, 69, 0
11, 92760, Note_on_c, 9, 69, 30
11, 92879, Note_on_c, 9, 40, 0
11, 92879, Note_on_c, 9, 69, 0
11, 92880, Note_on_c, 9, 69, 60
11, 92999, Note_on_c, 9, 69, 0
11, 93000, Note_on_c, 9, 69, 30
11, 93119, Note_on_c, 9, 69, 0
11, 93120, Note_on_c, 9, 69, 60
11, 93120, Note_on_c, 9, 35, 60
11, 93120, Note_on_c, 9, 36, 60
11, 93239, Note_on_c, 9, 69, 0
11, 93240, Note_on_c, 9, 69, 30
11, 93359, Note_on_c, 9, 35, 0
11, 93359, Note_on_c, 9, 36, 0
11, 93359, Note_on_c, 9, 69, 0
11, 93360, Note_on_c, 9, 69, 60
11, 93479, Note_on_c, 9, 69, 0
11, 93480, Note_on_c, 9, 69, 30
11, 93599, Note_on_c, 9, 69, 0
11, 93600, Note_on_c, 9, 69, 60
11, 93600, Note_on_c, 9, 40, 60
11, 93719, Note_on_c, 9, 69, 0
11, 93720, Note_on_c, 9, 69, 30
11, 93839, Note_on_c, 9, 40, 0
11, 93839, Note_on_c, 9, 69, 0
11, 93840, Note_on_c, 9, 69, 60
11, 93959, Note_on_c, 9, 69, 0
11, 93960, Note_on_c, 9, 69, 30
11, 94079, Note_on_c, 9, 69, 0
11, 94080, Note_on_c, 9, 69, 60
11, 94080, Note_on_c, 9, 35, 60
11, 94080, Note_on_c, 9, 36, 60
11, 94199, Note_on_c, 9, 69, 0
11, 94200, Note_on_c, 9, 69, 30
11, 94319, Note_on_c, 9, 35, 0
11, 94319, Note_on_c, 9, 36, 0
11, 94319, Note_on_c, 9, 69, 0
11, 94320, Note_on_c, 9, 69, 60
11, 94439, Note_on_c, 9, 69, 0
11, 94440, Note_on_c, 9, 69, 30
11, 94559, Note_on_c, 9, 69, 0
11, 94560, Note_on_c, 9, 69, 60
11, 94560, Note_on_c, 9, 40, 60
11, 94679, Note_on_c, 9, 69, 0
11, 94680, Note_on_c, 9, 69, 30
11, 94799, Note_on_c, 9, 40, 0
11, 94799, Note_on_c, 9, 69, 0
11, 94800, Note_on_c, 9, 69, 60
11, 94919, Note_on_c, 9, 69, 0
11, 94920, Note_on_c, 9, 69, 30
11, 94920, Note_on_c, 9, 36, 60
11, 94920, Note_on_c, 9, 35, 60
11, 95039, Note_on_c, 9, 69, 0
11, 95039, Note_on_c, 9, 36, 0
11, 95039, Note_on_c, 9, 35, 0
11, 95040, Note_on_c, 9, 69, 60
11, 95040, Note_on_c, 9, 35, 60
11, 95040, Note_on_c, 9, 36, 60
11, 95159, Note_on_c, 9, 69, 0
11, 95160, Note_on_c, 9, 69, 30
11, 95279, Note_on_c, 9, 35, 0
11, 95279, Note_on_c, 9, 36, 0
11, 95279, Note_on_c, 9, 69, 0
11, 95280, Note_on_c, 9, 69, 60
11, 95399, Note_on_c, 9, 69, 0
11, 95400, Note_on_c, 9, 69, 30
11, 95519, Note_on_c, 9, 69, 0
11, 95520, Note_on_c, 9, 69, 60
11, 95520, Note_on_c, 9, 40, 60
11, 95639, Note_on_c, 9, 69, 0
11, 95640, Note_on_c, 9, 69, 30
11, 95759, Note_on_c, 9, 40, 0
11, 95759, Note_on_c, 9, 69, 0
11, 95760, Note_on_c, 9, 69, 60
11, 95879, Note_on_c, 9, 69, 0
11, 95880, Note_on_c, 9, 69, 30
11, 95999, Note_on_c, 9, 69, 0
11, 96000, Note_on_c, 9, 69, 60
11, 96000, Note_on_c, 9, 35, 60
11, 96000, Note_on_c, 9, 36, 60
11, 96119, Note_on_c, 9, 69, 0
11, 96120, Note_on_c, 9, 69, 30
11, 96239, Note_on_c, 9, 35, 0
11, 96239, Note_on_c, 9, 36, 0
11, 96239, Note_on_c, 9, 69, 0
11, 96240, Note_on_c, 9, 69, 60
11, 96359, Note_on_c, 9, 69, 0
11, 96360, Note_on_c, 9, 69, 30
11, 96479, Note_on_c, 9, 69, 0
11, 96480, Note_on_c, 9, 69, 60
11, 96480, Note_on_c, 9, 40, 60
11, 96599, Note_on_c, 9, 69, 0
11, 96600, Note_on_c, 9, 69, 30
11, 96719, Note_on_c, 9, 40, 0
11, 96719, Note_on_c, 9, 69, 0
11, 96720, Note_on_c, 9, 69, 60
11, 96839, Note_on_c, 9, 69, 0
11, 96840, Note_on_c, 9, 69, 30
11, 96959, Note_on_c, 9, 69, 0
11, 96960, Note_on_c, 9, 69, 60
11, 96960, Note_on_c, 9, 35, 60
11, 96960, Note_on_c, 9, 36, 60
11, 97079, Note_on_c, 9, 69, 0
11, 97080, Note_on_c, 9, 69, 30
11, 97199, Note_on_c, 9, 35, 0
11, 97199, Note_on_c, 9, 36, 0
11, 97199, Note_on_c, 9, 69, 0
11, 97200, Note_on_c, 9, 69, 60
11, 97319, Note_on_c, 9, 69, 0
11, 97320, Note_on_c, 9, 69, 30
11, 97439, Note_on_c, 9, 69, 0
11, 97440, Note_on_c, 9, 69, 60
11, 97440, Note_on_c, 9, 40, 60
11, 97559, Note_on_c, 9, 69, 0
11, 97560, Note_on_c, 9, 69, 30
11, 97679, Note_on_c, 9, 40, 0
11, 97679, Note_on_c, 9, 69, 0
11, 97680, Note_on_c, 9, 69, 60
11, 97799, Note_on_c, 9, 69, 0
11, 97800, Note_on_c, 9, 69, 30
11, 97919, Note_on_c, 9, 69, 0
11, 97920, Note_on_c, 9, 69, 60
11, 97920, Note_on_c, 9, 35, 60
11, 97920, Note_on_c, 9, 36, 60
11, 98039, Note_on_c, 9, 69, 0
11, 98040, Note_on_c, 9, 69, 30
11, 98159, Note_on_c, 9, 35, 0
11, 98159, Note_on_c, 9, 36, 0
11, 98159, Note_on_c, 9, 69, 0
11, 98160, Note_on_c, 9, 69, 60
11, 98279, Note_on_c, 9, 69, 0
11, 98280, Note_on_c, 9, 69, 30
11, 98399, Note_on_c, 9, 69, 0
11, 98400, Note_on_c, 9, 69, 60
11, 98400, Note_on_c, 9, 40, 60
11, 98519, Note_on_c, 9, 69, 0
11, 98520, Note_on_c, 9, 69, 30
11, 98639, Note_on_c, 9, 40, 0
11, 98639, Note_on_c, 9, 69, 0
11, 98640, Note_on_c, 9, 69, 60
11, 98759, Note_on_c, 9, 69, 0
11, 98760, Note_on_c, 9, 69, 30
11, 98760, Note_on_c, 9, 36, 60
11, 98760, Note_on_c, 9, 35, 60
11, 98879, Note_on_c, 9, 69, 0
11, 98879, Note_on_c, 9, 36, 0
11, 98879, Note_on_c, 9, 35, 0
11, 98880, Note_on_c, 9, 69, 60
11, 98880, Note_on_c, 9, 35, 60
11, 98880, Note_on_c, 9, 36, 60
11, 98999, Note_on_c, 9, 69, 0
11, 99000, Note_on_c, 9, 69, 30
11, 99119, Note_on_c, 9, 35, 0
11, 99119, Note_on_c, 9, 36, 0
11, 99119, Note_on_c, 9, 69, 0
11, 99120, Note_on_c, 9, 69, 60
11, 99239, Note_on_c, 9, 69, 0
11, 99240, Note_on_c, 9, 69, 30
11, 99359, Note_on_c, 9, 69, 0
11, 99360, Note_on_c, 9, 69, 60
11, 99360, Note_on_c, 9, 40, 60
11, 99479, Note_on_c, 9, 69, 0
11, 99480, Note_on_c, 9, 69, 30
11, 99599, Note_on_c, 9, 40, 0
11, 99599, Note_on_c, 9, 69, 0
11, 99600, Note_on_c, 9, 69, 60
11, 99719, Note_on_c, 9, 69, 0
11, 99720, Note_on_c, 9, 69, 30
11, 99839, Note_on_c, 9, 69, 0
11, 99840, Note_on_c, 9, 69, 60
11, 99840, Note_on_c, 9, 35, 60
11, 99840, Note_on_c, 9, 36, 60
11, 99959, Note_on_c, 9, 69, 0
11, 99960, Note_on_c, 9, 69, 30
11, 100079, Note_on_c, 9, 35, 0
11, 100079, Note_on_c, 9, 36, 0
11, 100079, Note_on_c, 9, 69, 0
11, 100080, Note_on_c, 9, 69, 60
11, 100199, Note_on_c, 9, 69, 0
11, 100200, Note_on_c, 9, 69, 30
11, 100319, Note_on_c, 9, 69, 0
11, 100320, Note_on_c, 9, 69, 60
11, 100320, Note_on_c, 9, 40, 60
11, 100439, Note_on_c, 9, 69, 0
11, 100440, Note_on_c, 9, 69, 30
11, 100559, Note_on_c, 9, 40, 0
11, 100559, Note_on_c, 9, 69, 0
11, 100560, Note_on_c, 9, 69, 60
11, 100679, Note_on_c, 9, 69, 0
11, 100680, Note_on_c, 9, 69, 30
11, 100799, Note_on_c, 9, 69, 0
11, 100800, Note_on_c, 9, 69, 60
11, 100800, Note_on_c, 9, 35, 60
11, 100800, Note_on_c, 9, 36, 60
11, 100919, Note_on_c, 9, 69, 0
11, 100920, Note_on_c, 9, 69, 30
11, 101039, Note_on_c, 9, 35, 0
11, 101039, Note_on_c, 9, 36, 0
11, 101039, Note_on_c, 9, 69, 0
11, 101040, Note_on_c, 9, 69, 60
11, 101159, Note_on_c, 9, 69, 0
11, 101160, Note_on_c, 9, 69, 30
11, 101279, Note_on_c, 9, 69, 0
11, 101280, Note_on_c, 9, 69, 60
11, 101280, Note_on_c, 9, 40, 60
11, 101399, Note_on_c, 9, 69, 0
11, 101400, Note_on_c, 9, 69, 30
11, 101519, Note_on_c, 9, 40, 0
11, 101519, Note_on_c, 9, 69, 0
11, 101520, Note_on_c, 9, 69, 60
11, 101639, Note_on_c, 9, 69, 0
11, 101640, Note_on_c, 9, 69, 30
11, 101759, Note_on_c, 9, 69, 0
11, 101760, Note_on_c, 9, 69, 60
11, 101760, Note_on_c, 9, 35, 60
11, 101760, Note_on_c, 9, 36, 60
11, 101879, Note_on_c, 9, 69, 0
11, 101880, Note_on_c, 9, 69, 30
11, 101999, Note_on_c, 9, 35, 0
11, 101999, Note_on_c, 9, 36, 0
11, 101999, Note_on_c, 9, 69, 0
11, 102000, Note_on_c, 9, 69, 60
11, 102119, Note_on_c, 9, 69, 0
11, 102120, Note_on_c, 9, 69, 30
11, 102239, Note_on_c, 9, 69, 0
11, 102240, Note_on_c, 9, 69, 60
11, 102240, Note_on_c, 9, 40, 60
11, 102359, Note_on_c, 9, 69, 0
11, 102360, Note_on_c, 9, 69, 30
11, 102479, Note_on_c, 9, 40, 0
11, 102479, Note_on_c, 9, 69, 0
11, 102480, Note_on_c, 9, 69, 60
11, 102599, Note_on_c, 9, 69, 0
11, 102600, Note_on_c, 9, 69, 30
11, 102600, Note_on_c, 9, 35, 60
11, 102600, Note_on_c, 9, 36, 60
11, 102719, Note_on_c, 9, 69, 0
11, 102719, Note_on_c, 9, 35, 0
11, 102719, Note_on_c, 9, 36, 0
11, 102720, Note_on_c, 9, 69, 60
11, 102720, Note_on_c, 9, 35, 60
11, 102720, Note_on_c, 9, 36, 60
11, 102839, Note_on_c, 9, 69, 0
11, 102840, Note_on_c, 9, 69, 30
11, 102959, Note_on_c, 9, 35, 0
11, 102959, Note_on_c, 9, 36, 0
11, 102959, Note_on_c, 9, 69, 0
11, 102960, Note_on_c, 9, 69, 60
11, 103079, Note_on_c, 9, 69, 0
11, 103080, Note_on_c, 9, 69, 30
11, 103199, Note_on_c, 9, 69, 0
11, 103200, Note_on_c, 9, 69, 60
11, 103200, Note_on_c, 9, 40, 60
11, 103319, Note_on_c, 9, 69, 0
11, 103320, Note_on_c, 9, 69, 30
11, 103439, Note_on_c, 9, 40, 0
11, 103439, Note_on_c, 9, 69, 0
11, 103440, Note_on_c, 9, 69, 60
11, 103559, Note_on_c, 9, 69, 0
11, 103560, Note_on_c, 9, 69, 30
11, 103679, Note_on_c, 9, 69, 0
11, 103680, Note_on_c, 9, 69, 60
11, 103680, Note_on_c, 9, 35, 60
11, 103680, Note_on_c, 9, 36, 60
11, 103799, Note_on_c, 9, 69, 0
11, 103800, Note_on_c, 9, 69, 30
11, 103919, Note_on_c, 9, 35, 0
11, 103919, Note_on_c, 9, 36, 0
11, 103919, Note_on_c, 9, 69, 0
11, 103920, Note_on_c, 9, 69, 60
11, 104039, Note_on_c, 9, 69, 0
11, 104040, Note_on_c, 9, 69, 30
11, 104159, Note_on_c, 9, 69, 0
11, 104160, Note_on_c, 9, 69, 60
11, 104160, Note_on_c, 9, 40, 60
11, 104279, Note_on_c, 9, 69, 0
11, 104280, Note_on_c, 9, 69, 30
11, 104399, Note_on_c, 9, 40, 0
11, 104399, Note_on_c, 9, 69, 0
11, 104400, Note_on_c, 9, 69, 60
11, 104519, Note_on_c, 9, 69, 0
11, 104520, Note_on_c, 9, 69, 30
11, 104639, Note_on_c, 9, 69, 0
11, 104640, Note_on_c, 9, 69, 60
11, 104640, Note_on_c, 9, 35, 60
11, 104640, Note_on_c, 9, 36, 60
11, 104759, Note_on_c, 9, 69, 0
11, 104760, Note_on_c, 9, 69, 30
11, 104879, Note_on_c, 9, 35, 0
11, 104879, Note_on_c, 9, 36, 0
11, 104879, Note_on_c, 9, 69, 0
11, 104880, Note_on_c, 9, 69, 60
11, 104999, Note_on_c, 9, 69, 0
11, 105000, Note_on_c, 9, 69, 30
11, 105119, Note_on_c, 9, 69, 0
11, 105120, Note_on_c, 9, 69, 60
11, 105120, Note_on_c, 9, 40, 60
11, 105239, Note_on_c, 9, 69, 0
11, 105240, Note_on_c, 9, 69, 30
11, 105359, Note_on_c, 9, 40, 0
11, 105359, Note_on_c, 9, 69, 0
11, 105360, Note_on_c, 9, 69, 60
11, 105479, Note_on_c, 9, 69, 0
11, 105480, Note_on_c, 9, 69, 30
11, 105599, Note_on_c, 9, 69, 0
11, 105600, Note_on_c, 9, 69, 60
11, 105600, Note_on_c, 9, 35, 60
11, 105600, Note_on_c, 9, 36, 60
11, 105719, Note_on_c, 9, 69, 0
11, 105720, Note_on_c, 9, 69, 30
11, 105839, Note_on_c, 9, 35, 0
11, 105839, Note_on_c, 9, 36, 0
11, 105839, Note_on_c, 9, 69, 0
11, 105840, Note_on_c, 9, 69, 60
11, 105959, Note_on_c, 9, 69, 0
11, 105960, Note_on_c, 9, 69, 30
11, 106079, Note_on_c, 9, 69, 0
11, 106080, Note_on_c, 9, 69, 60
11, 106080, Note_on_c, 9, 40, 60
11, 106199, Note_on_c, 9, 69, 0
11, 106200, Note_on_c, 9, 69, 30
11, 106319, Note_on_c, 9, 40, 0
11, 106319, Note_on_c, 9, 69, 0
11, 106320, Note_on_c, 9, 69, 60
11, 106439, Note_on_c, 9, 69, 0
11, 106440, Note_on_c, 9, 69, 30
11, 106440, Note_on_c, 9, 35, 60
11, 106440, Note_on_c, 9, 36, 60
11, 106559, Note_on_c, 9, 69, 0
11, 106559, Note_on_c, 9, 35, 0
11, 106559, Note_on_c, 9, 36, 0
11, 106560, Note_on_c, 9, 69, 60
11, 106560, Note_on_c, 9, 35, 60
11, 106560, Note_on_c, 9, 36, 60
11, 106560, Note_on_c, 9, 40, 60
11, 106679, Note_on_c, 9, 69, 0
11, 106679, Note_on_c, 9, 40, 0
11, 106680, Note_on_c, 9, 69, 30
11, 106680, Note_on_c, 9, 48, 60
11, 106799, Note_on_c, 9, 35, 0
11, 106799, Note_on_c, 9, 36, 0
11, 106799, Note_on_c, 9, 69, 0
11, 106799, Note_on_c, 9, 48, 0
11, 106800, Note_on_c, 9, 69, 60
11, 106800, Note_on_c, 9, 40, 60
11, 106919, Note_on_c, 9, 69, 0
11, 106919, Note_on_c, 9, 40, 0
11, 106920, Note_on_c, 9, 69, 30
11, 106920, Note_on_c, 9, 48, 60
11, 107039, Note_on_c, 9, 69, 0
11, 107039, Note_on_c, 9, 48, 0
11, 107040, Note_on_c, 9, 69, 60
11, 107040, Note_on_c, 9, 45, 60
11, 107159, Note_on_c, 9, 69, 0
11, 107160, Note_on_c, 9, 69, 30
11, 107160, Note_on_c, 9, 45, 60
11, 107279, Note_on_c, 9, 45, 0
11, 107279, Note_on_c, 9, 69, 0
11, 107279, Note_on_c, 9, 45, 0
11, 107280, Note_on_c, 9, 69, 60
11, 107280, Note_on_c, 9, 41, 60
11, 107399, Note_on_c, 9, 69, 0
11, 107399, Note_on_c, 9, 41, 0
11, 107400, Note_on_c, 9, 69, 30
11, 107400, Note_on_c, 9, 41, 60
11, 107519, Note_on_c, 9, 69, 0
11, 107519, Note_on_c, 9, 41, 0
11, 107520, Note_on_c, 9, 69, 60
11, 107520, Note_on_c, 9, 35, 60
11, 107520, Note_on_c, 9, 36, 60
11, 107639, Note_on_c, 9, 69, 0
11, 107640, Note_on_c, 9, 69, 30
11, 107759, Note_on_c, 9, 35, 0
11, 107759, Note_on_c, 9, 36, 0
11, 107759, Note_on_c, 9, 69, 0
11, 107760, Note_on_c, 9, 69, 60
11, 107879, Note_on_c, 9, 69, 0
11, 107880, Note_on_c, 9, 69, 30
11, 107999, Note_on_c, 9, 69, 0
11, 108000, Note_on_c, 9, 69, 60
11, 108000, Note_on_c, 9, 40, 60
11, 108119, Note_on_c, 9, 69, 0
11, 108120, Note_on_c, 9, 69, 30
11, 108239, Note_on_c, 9, 40, 0
11, 108239, Note_on_c, 9, 69, 0
11, 108240, Note_on_c, 9, 69, 60
11, 108359, Note_on_c, 9, 69, 0
11, 108360, Note_on_c, 9, 69, 30
11, 108479, Note_on_c, 9, 69, 0
11, 108480, Note_on_c, 9, 69, 60
11, 108480, Note_on_c, 9, 35, 60
11, 108480, Note_on_c, 9, 36, 60
11, 108599, Note_on_c, 9, 69, 0
11, 108600, Note_on_c, 9, 69, 30
11, 108719, Note_on_c, 9, 35, 0
11, 108719, Note_on_c, 9, 36, 0
11, 108719, Note_on_c, 9, 69, 0
11, 108720, Note_on_c, 9, 69, 60
11, 108839, Note_on_c, 9, 69, 0
11, 108840, Note_on_c, 9, 69, 30
11, 108959, Note_on_c, 9, 69, 0
11, 108960, Note_on_c, 9, 69, 60
11, 108960, Note_on_c, 9, 40, 60
11, 109079, Note_on_c, 9, 69, 0
11, 109080, Note_on_c, 9, 69, 30
11, 109199, Note_on_c, 9, 40, 0
11, 109199, Note_on_c, 9, 69, 0
11, 109200, Note_on_c, 9, 69, 60
11, 109319, Note_on_c, 9, 69, 0
11, 109320, Note_on_c, 9, 69, 30
11, 109439, Note_on_c, 9, 69, 0
11, 109440, Note_on_c, 9, 69, 60
11, 109440, Note_on_c, 9, 35, 60
11, 109440, Note_on_c, 9, 36, 60
11, 109559, Note_on_c, 9, 69, 0
11, 109560, Note_on_c, 9, 69, 30
11, 109679, Note_on_c, 9, 35, 0
11, 109679, Note_on_c, 9, 36, 0
11, 109679, Note_on_c, 9, 69, 0
11, 109680, Note_on_c, 9, 69, 60
11, 109799, Note_on_c, 9, 69, 0
11, 109800, Note_on_c, 9, 69, 30
11, 109919, Note_on_c, 9, 69, 0
11, 109920, Note_on_c, 9, 69, 60
11, 109920, Note_on_c, 9, 40, 60
11, 110039, Note_on_c, 9, 69, 0
11, 110040, Note_on_c, 9, 69, 30
11, 110159, Note_on_c, 9, 40, 0
11, 110159, Note_on_c, 9, 69, 0
11, 110160, Note_on_c, 9, 69, 60
11, 110279, Note_on_c, 9, 69, 0
11, 110280, Note_on_c, 9, 69, 30
11, 110280, Note_on_c, 9, 36, 60
11, 110280, Note_on_c, 9, 35, 60
11, 110399, Note_on_c, 9, 69, 0
11, 110399, Note_on_c, 9, 36, 0
11, 110399, Note_on_c, 9, 35, 0
11, 110400, Note_on_c, 9, 69, 60
11, 110400, Note_on_c, 9, 35, 60
11, 110400, Note_on_c, 9, 36, 60
11, 110400, Note_on_c, 9, 47, 60
11, 110519, Note_on_c, 9, 69, 0
11, 110519, Note_on_c, 9, 47, 0
11, 110520, Note_on_c, 9, 69, 30
11, 110520, Note_on_c, 9, 47, 60
11, 110639, Note_on_c, 9, 35, 0
11, 110639, Note_on_c, 9, 36, 0
11, 110639, Note_on_c, 9, 69, 0
11, 110639, Note_on_c, 9, 47, 0
11, 110640, Note_on_c, 9, 69, 60
11, 110640, Note_on_c, 9, 45, 60
11, 110759, Note_on_c, 9, 69, 0
11, 110759, Note_on_c, 9, 45, 0
11, 110760, Note_on_c, 9, 69, 30
11, 110760, Note_on_c, 9, 45, 60
11, 110879, Note_on_c, 9, 69, 0
11, 110879, Note_on_c, 9, 45, 0
11, 110880, Note_on_c, 9, 69, 60
11, 110880, Note_on_c, 9, 43, 60
11, 110999, Note_on_c, 9, 69, 0
11, 111000, Note_on_c, 9, 69, 30
11, 111000, Note_on_c, 9, 43, 60
11, 111119, Note_on_c, 9, 43, 0
11, 111119, Note_on_c, 9, 69, 0
11, 111119, Note_on_c, 9, 43, 0
11, 111120, Note_on_c, 9, 69, 60
11, 111120, Note_on_c, 9, 41, 60
11, 111239, Note_on_c, 9, 69, 0
11, 111239, Note_on_c, 9, 41, 0
11, 111240, Note_on_c, 9, 69, 30
11, 111240, Note_on_c, 9, 41, 60
11, 111359, Note_on_c, 9, 69, 0
11, 111359, Note_on_c, 9, 41, 0
11, 111360, Note_on_c, 9, 69, 60
11, 111360, Note_on_c, 9, 35, 60
11, 111360, Note_on_c, 9, 36, 60
11, 111479, Note_on_c, 9, 69, 0
11, 111480, Note_on_c, 9, 69, 30
11, 111599, Note_on_c, 9, 35, 0
11, 111599, Note_on_c, 9, 36, 0
11, 111599, Note_on_c, 9, 69, 0
11, 111600, Note_on_c, 9, 69, 60
11, 111719, Note_on_c, 9, 69, 0
11, 111720, Note_on_c, 9, 69, 30
11, 111839, Note_on_c, 9, 69, 0
11, 111840, Note_on_c, 9, 69, 60
11, 111840, Note_on_c, 9, 40, 60
11, 111959, Note_on_c, 9, 69, 0
11, 111960, Note_on_c, 9, 69, 30
11, 112079, Note_on_c, 9, 40, 0
11, 112079, Note_on_c, 9, 69, 0
11, 112080, Note_on_c, 9, 69, 60
11, 112199, Note_on_c, 9, 69, 0
11, 112200, Note_on_c, 9, 69, 30
11, 112319, Note_on_c, 9, 69, 0
11, 112320, Note_on_c, 9, 69, 60
11, 112320, Note_on_c, 9, 35, 60
11, 112320, Note_on_c, 9, 36, 60
11, 112439, Note_on_c, 9, 69, 0
11, 112440, Note_on_c, 9, 69, 30
11, 112559, Note_on_c, 9, 35, 0
11, 112559, Note_on_c, 9, 36, 0
11, 112559, Note_on_c, 9, 69, 0
11, 112560, Note_on_c, 9, 69, 60
11, 112679, Note_on_c, 9, 69, 0
11, 112680, Note_on_c, 9, 69, 30
11, 112799, Note_on_c, 9, 69, 0
11, 112800, Note_on_c, 9, 69, 60
11, 112800, Note_on_c, 9, 40, 60
11, 112919, Note_on_c, 9, 69, 0
11, 112920, Note_on_c, 9, 69, 30
11, 113039, Note_on_c, 9, 40, 0
11, 113039, Note_on_c, 9, 69, 0
11, 113040, Note_on_c, 9, 69, 60
11, 113159, Note_on_c, 9, 69, 0
11, 113160, Note_on_c, 9, 69, 30
11, 113279, Note_on_c, 9, 69, 0
11, 113280, Note_on_c, 9, 69, 60
11, 113280, Note_on_c, 9, 35, 60
11, 113280, Note_on_c, 9, 36, 60
11, 113399, Note_on_c, 9, 69, 0
11, 113400, Note_on_c, 9, 69, 30
11, 113519, Note_on_c, 9, 35, 0
11, 113519, Note_on_c, 9, 36, 0
11, 113519, Note_on_c, 9, 69, 0
11, 113520, Note_on_c, 9, 69, 60
11, 113639, Note_on_c, 9, 69, 0
11, 113640, Note_on_c, 9, 69, 30
11, 113759, Note_on_c, 9, 69, 0
11, 113760, Note_on_c, 9, 69, 60
11, 113760, Note_on_c, 9, 40, 60
11, 113879, Note_on_c, 9, 69, 0
11, 113880, Note_on_c, 9, 69, 30
11, 113999, Note_on_c, 9, 40, 0
11, 113999, Note_on_c, 9, 69, 0
11, 114000, Note_on_c, 9, 69, 60
11, 114119, Note_on_c, 9, 69, 0
11, 114120, Note_on_c, 9, 69, 30
11, 114239, Note_on_c, 9, 69, 0
11, 114240, Note_on_c, 9, 69, 60
11, 114240, Note_on_c, 9, 35, 60
11, 114240, Note_on_c, 9, 36, 60
11, 114240, Note_on_c, 9, 48, 60
11, 114359, Note_on_c, 9, 69, 0
11, 114359, Note_on_c, 9, 48, 0
11, 114360, Note_on_c, 9, 69, 30
11, 114360, Note_on_c, 9, 48, 60
11, 114479, Note_on_c, 9, 35, 0
11, 114479, Note_on_c, 9, 36, 0
11, 114479, Note_on_c, 9, 69, 0
11, 114479, Note_on_c, 9, 48, 0
11, 114480, Note_on_c, 9, 69, 60
11, 114480, Note_on_c, 9, 47, 60
11, 114599, Note_on_c, 9, 69, 0
11, 114599, Note_on_c, 9, 47, 0
11, 114600, Note_on_c, 9, 69, 30
11, 114600, Note_on_c, 9, 47, 60
11, 114719, Note_on_c, 9, 69, 0
11, 114719, Note_on_c, 9, 47, 0
11, 114720, Note_on_c, 9, 69, 60
11, 114720, Note_on_c, 9, 45, 60
11, 114839, Note_on_c, 9, 69, 0
11, 114840, Note_on_c, 9, 69, 30
11, 114840, Note_on_c, 9, 45, 60
11, 114959, Note_on_c, 9, 45, 0
11, 114959, Note_on_c, 9, 69, 0
11, 114959, Note_on_c, 9, 45, 0
11, 114960, Note_on_c, 9, 69, 60
11, 114960, Note_on_c, 9, 41, 60
11, 115079, Note_on_c, 9, 69, 0
11, 115079, Note_on_c, 9, 41, 0
11, 115080, Note_on_c, 9, 69, 30
11, 115080, Note_on_c, 9, 41, 60
11, 115199, Note_on_c, 9, 69, 0
11, 115199, Note_on_c, 9, 41, 0
11, 115200, Note_on_c, 9, 69, 60
11, 115200, Note_on_c, 9, 35, 60
11, 115200, Note_on_c, 9, 36, 60
11, 115319, Note_on_c, 9, 69, 0
11, 115320, Note_on_c, 9, 69, 30
11, 115439, Note_on_c, 9, 35, 0
11, 115439, Note_on_c, 9, 36, 0
11, 115439, Note_on_c, 9, 69, 0
11, 115440, Note_on_c, 9, 69, 60
11, 115559, Note_on_c, 9, 69, 0
11, 115560, Note_on_c, 9, 69, 30
11, 115679, Note_on_c, 9, 69, 0
11, 115680, Note_on_c, 9, 69, 60
11, 115680, Note_on_c, 9, 40, 60
11, 115799, Note_on_c, 9, 69, 0
11, 115800, Note_on_c, 9, 69, 30
11, 115919, Note_on_c, 9, 40, 0
11, 115919, Note_on_c, 9, 69, 0
11, 115920, Note_on_c, 9, 69, 60
11, 116039, Note_on_c, 9, 69, 0
11, 116040, Note_on_c, 9, 69, 30
11, 116159, Note_on_c, 9, 69, 0
11, 116160, Note_on_c, 9, 69, 60
11, 116160, Note_on_c, 9, 35, 60
11, 116160, Note_on_c, 9, 36, 60
11, 116279, Note_on_c, 9, 69, 0
11, 116280, Note_on_c, 9, 69, 30
11, 116399, Note_on_c, 9, 35, 0
11, 116399, Note_on_c, 9, 36, 0
11, 116399, Note_on_c, 9, 69, 0
11, 116400, Note_on_c, 9, 69, 60
11, 116519, Note_on_c, 9, 69, 0
11, 116520, Note_on_c, 9, 69, 30
11, 116639, Note_on_c, 9, 69, 0
11, 116640, Note_on_c, 9, 69, 60
11, 116640, Note_on_c, 9, 40, 60
11, 116759, Note_on_c, 9, 69, 0
11, 116760, Note_on_c, 9, 69, 30
11, 116879, Note_on_c, 9, 40, 0
11, 116879, Note_on_c, 9, 69, 0
11, 116880, Note_on_c, 9, 69, 60
11, 116999, Note_on_c, 9, 69, 0
11, 117000, Note_on_c, 9, 69, 30
11, 117119, Note_on_c, 9, 69, 0
11, 117120, Note_on_c, 9, 69, 60
11, 117120, Note_on_c, 9, 35, 60
11, 117120, Note_on_c, 9, 36, 60
11, 117239, Note_on_c, 9, 69, 0
11, 117240, Note_on_c, 9, 69, 30
11, 117359, Note_on_c, 9, 35, 0
11, 117359, Note_on_c, 9, 36, 0
11, 117359, Note_on_c, 9, 69, 0
11, 117360, Note_on_c, 9, 69, 60
11, 117479, Note_on_c, 9, 69, 0
11, 117480, Note_on_c, 9, 69, 30
11, 117599, Note_on_c, 9, 69, 0
11, 117600, Note_on_c, 9, 69, 60
11, 117600, Note_on_c, 9, 40, 60
11, 117719, Note_on_c, 9, 69, 0
11, 117720, Note_on_c, 9, 69, 30
11, 117839, Note_on_c, 9, 40, 0
11, 117839, Note_on_c, 9, 69, 0
11, 117840, Note_on_c, 9, 69, 60
11, 117959, Note_on_c, 9, 69, 0
11, 117960, Note_on_c, 9, 69, 30
11, 118079, Note_on_c, 9, 69, 0
11, 118080, Note_on_c, 9, 69, 60
11, 118080, Note_on_c, 9, 35, 60
11, 118080, Note_on_c, 9, 36, 60
11, 118080, Note_on_c, 9, 48, 60
11, 118199, Note_on_c, 9, 69, 0
11, 118199, Note_on_c, 9, 48, 0
11, 118200, Note_on_c, 9, 69, 30
11, 118200, Note_on_c, 9, 48, 60
11, 118319, Note_on_c, 9, 35, 0
11, 118319, Note_on_c, 9, 36, 0
11, 118319, Note_on_c, 9, 69, 0
11, 118319, Note_on_c, 9, 48, 0
11, 118320, Note_on_c, 9, 69, 60
11, 118439, Note_on_c, 9, 69, 0
11, 118440, Note_on_c, 9, 69, 30
11, 118440, Note_on_c, 9, 45, 60
11, 118559, Note_on_c, 9, 69, 0
11, 118559, Note_on_c, 9, 45, 0
11, 118560, Note_on_c, 9, 69, 60
11, 118560, Note_on_c, 9, 43, 60
11, 118679, Note_on_c, 9, 69, 0
11, 118680, Note_on_c, 9, 69, 30
11, 118680, Note_on_c, 9, 43, 60
11, 118799, Note_on_c, 9, 43, 0
11, 118799, Note_on_c, 9, 69, 0
11, 118799, Note_on_c, 9, 43, 0
11, 118800, Note_on_c, 9, 69, 60
11, 118800, Note_on_c, 9, 41, 60
11, 118919, Note_on_c, 9, 69, 0
11, 118919, Note_on_c, 9, 41, 0
11, 118920, Note_on_c, 9, 69, 30
11, 118920, Note_on_c, 9, 41, 60
11, 119039, Note_on_c, 9, 69, 0
11, 119039, Note_on_c, 9, 41, 0
11, 119040, Note_on_c, 9, 69, 60
11, 119040, Note_on_c, 9, 35, 60
11, 119040, Note_on_c, 9, 36, 60
11, 119159, Note_on_c, 9, 69, 0
11, 119160, Note_on_c, 9, 69, 30
11, 119279, Note_on_c, 9, 35, 0
11, 119279, Note_on_c, 9, 36, 0
11, 119279, Note_on_c, 9, 69, 0
11, 119280, Note_on_c, 9, 69, 60
11, 119399, Note_on_c, 9, 69, 0
11, 119400, Note_on_c, 9, 69, 30
11, 119519, Note_on_c, 9, 69, 0
11, 119520, Note_on_c, 9, 69, 60
11, 119520, Note_on_c, 9, 40, 60
11, 119639, Note_on_c, 9, 69, 0
11, 119640, Note_on_c, 9, 69, 30
11, 119759, Note_on_c, 9, 40, 0
11, 119759, Note_on_c, 9, 69, 0
11, 119760, Note_on_c, 9, 69, 60
11, 119879, Note_on_c, 9, 69, 0
11, 119880, Note_on_c, 9, 69, 30
11, 119999, Note_on_c, 9, 69, 0
11, 120000, Note_on_c, 9, 69, 60
11, 120000, Note_on_c, 9, 35, 60
11, 120000, Note_on_c, 9, 36, 60
11, 120119, Note_on_c, 9, 69, 0
11, 120120, Note_on_c, 9, 69, 30
11, 120239, Note_on_c, 9, 35, 0
11, 120239, Note_on_c, 9, 36, 0
11, 120239, Note_on_c, 9, 69, 0
11, 120240, Note_on_c, 9, 69, 60
11, 120359, Note_on_c, 9, 69, 0
11, 120360, Note_on_c, 9, 69, 30
11, 120479, Note_on_c, 9, 69, 0
11, 120480, Note_on_c, 9, 69, 60
11, 120480, Note_on_c, 9, 40, 60
11, 120599, Note_on_c, 9, 69, 0
11, 120600, Note_on_c, 9, 69, 30
11, 120719, Note_on_c, 9, 40, 0
11, 120719, Note_on_c, 9, 69, 0
11, 120720, Note_on_c, 9, 69, 60
11, 120839, Note_on_c, 9, 69, 0
11, 120840, Note_on_c, 9, 69, 30
11, 120959, Note_on_c, 9, 69, 0
11, 120960, Note_on_c, 9, 69, 60
11, 120960, Note_on_c, 9, 35, 60
11, 120960, Note_on_c, 9, 36, 60
11, 121079, Note_on_c, 9, 69, 0
11, 121080, Note_on_c, 9, 69, 30
11, 121199, Note_on_c, 9, 35, 0
11, 121199, Note_on_c, 9, 36, 0
11, 121199, Note_on_c, 9, 69, 0
11, 121200, Note_on_c, 9, 69, 60
11, 121319, Note_on_c, 9, 69, 0
11, 121320, Note_on_c, 9, 69, 30
11, 121439, Note_on_c, 9, 69, 0
11, 121440, Note_on_c, 9, 69, 60
11, 121440, Note_on_c, 9, 40, 60
11, 121559, Note_on_c, 9, 69, 0
11, 121560, Note_on_c, 9, 69, 30
11, 121679, Note_on_c, 9, 40, 0
11, 121679, Note_on_c, 9, 69, 0
11, 121680, Note_on_c, 9, 69, 60
11, 121799, Note_on_c, 9, 69, 0
11, 121800, Note_on_c, 9, 69, 30
11, 121800, Note_on_c, 9, 35, 60
11, 121800, Note_on_c, 9, 36, 60
11, 121919, Note_on_c, 9, 69, 0
11, 121919, Note_on_c, 9, 35, 0
11, 121919, Note_on_c, 9, 36, 0
11, 121920, Note_on_c, 9, 69, 60
11, 121920, Note_on_c, 9, 35, 60
11, 121920, Note_on_c, 9, 36, 60
11, 122039, Note_on_c, 9, 69, 0
11, 122040, Note_on_c, 9, 69, 30
11, 122159, Note_on_c, 9, 35, 0
11, 122159, Note_on_c, 9, 36, 0
11, 122159, Note_on_c, 9, 69, 0
11, 122160, Note_on_c, 9, 69, 60
11, 122279, Note_on_c, 9, 69, 0
11, 122280, Note_on_c, 9, 69, 30
11, 122399, Note_on_c, 9, 69, 0
11, 122400, Note_on_c, 9, 69, 60
11, 122400, Note_on_c, 9, 40, 60
11, 122519, Note_on_c, 9, 69, 0
11, 122520, Note_on_c, 9, 69, 30
11, 122639, Note_on_c, 9, 40, 0
11, 122639, Note_on_c, 9, 69, 0
11, 122640, Note_on_c, 9, 69, 60
11, 122759, Note_on_c, 9, 69, 0
11, 122760, Note_on_c, 9, 69, 30
11, 122879, Note_on_c, 9, 69, 0
11, 124200, Note_on_c, 9, 35, 60
11, 124200, Note_on_c, 9, 36, 60
11, 124200, Note_on_c, 9, 40, 60
11, 124260, Note_on_c, 9, 45, 60
11, 124260, Note_on_c, 9, 50, 60
11, 124319, Note_on_c, 9, 35, 0
11, 124319, Note_on_c, 9, 36, 0
11, 124319, Note_on_c, 9, 40, 0
11, 124379, Note_on_c, 9, 45, 0
11, 124379, Note_on_c, 9, 50, 0
11, 124379, End_track
0, 0, End_of_file
