0, 0, Header, 1, 11, 384
1, 0, Start_track
1, 0, Time_signature, 4, 2, 96, 8
1, 0, Sequencer_specific, 3, 0, 0, 65
1, 0, Tempo, 500000
1, 0, End_track
2, 0, Start_track
2, 0, Title_t, "VOICE"
2, 0, Control_c, 0, 0, 0
2, 0, Program_c, 0, 1
2, 0, Control_c, 0, 91, 127
2, 0, Control_c, 0, 93, 123
2, 0, Key_signature, -3, "major"
2, 7680, Note_on_c, 0, 70, 103
2, 8192, Note_off_c, 0, 70, 65
2, 8448, Note_on_c, 0, 70, 103
2, 8704, Note_off_c, 0, 70, 65
2, 8832, Note_on_c, 0, 70, 103
2, 9088, Note_off_c, 0, 70, 65
2, 9216, Note_on_c, 0, 72, 103
2, 9728, Note_off_c, 0, 72, 65
2, 9984, Note_on_c, 0, 70, 103
2, 10240, Note_off_c, 0, 70, 65
2, 10368, Note_on_c, 0, 68, 103
2, 10624, Note_off_c, 0, 68, 65
2, 10752, Note_on_c, 0, 70, 103
2, 11264, Note_off_c, 0, 70, 65
2, 11520, Note_on_c, 0, 67, 103
2, 11776, Note_off_c, 0, 67, 65
2, 11904, Note_on_c, 0, 65, 103
2, 12160, Note_off_c, 0, 65, 65
2, 12288, Note_on_c, 0, 63, 103
2, 13056, Note_off_c, 0, 63, 65
2, 13440, Note_on_c, 0, 67, 103
2, 13696, Note_off_c, 0, 67, 65
2, 13824, Note_on_c, 0, 70, 103
2, 14336, Note_off_c, 0, 70, 65
2, 14592, Note_on_c, 0, 70, 103
2, 14848, Note_off_c, 0, 70, 65
2, 14976, Note_on_c, 0, 70, 103
2, 15232, Note_off_c, 0, 70, 65
2, 15360, Note_on_c, 0, 72, 103
2, 15872, Note_off_c, 0, 72, 65
2, 16128, Note_on_c, 0, 70, 103
2, 16384, Note_off_c, 0, 70, 65
2, 16512, Note_on_c, 0, 68, 103
2, 16768, Note_off_c, 0, 68, 65
2, 16896, Note_on_c, 0, 70, 103
2, 17924, Note_off_c, 0, 70, 65
2, 18432, Note_on_c, 0, 70, 103
2, 18944, Note_off_c, 0, 70, 65
2, 19968, Note_on_c, 0, 70, 103
2, 20480, Note_off_c, 0, 70, 65
2, 20736, Note_on_c, 0, 70, 103
2, 20992, Note_off_c, 0, 70, 65
2, 21120, Note_on_c, 0, 70, 103
2, 21376, Note_off_c, 0, 70, 65
2, 21504, Note_on_c, 0, 72, 103
2, 22016, Note_off_c, 0, 72, 65
2, 22272, Note_on_c, 0, 70, 103
2, 22528, Note_off_c, 0, 70, 65
2, 22656, Note_on_c, 0, 68, 103
2, 22912, Note_off_c, 0, 68, 65
2, 23040, Note_on_c, 0, 70, 103
2, 23552, Note_off_c, 0, 70, 65
2, 23808, Note_on_c, 0, 67, 103
2, 24064, Note_off_c, 0, 67, 65
2, 24192, Note_on_c, 0, 65, 103
2, 24448, Note_off_c, 0, 65, 65
2, 24576, Note_on_c, 0, 63, 103
2, 25344, Note_off_c, 0, 63, 65
2, 25728, Note_on_c, 0, 67, 103
2, 25984, Note_off_c, 0, 67, 65
2, 26112, Note_on_c, 0, 70, 103
2, 26624, Note_off_c, 0, 70, 65
2, 26880, Note_on_c, 0, 70, 103
2, 27136, Note_off_c, 0, 70, 65
2, 27264, Note_on_c, 0, 67, 103
2, 27520, Note_off_c, 0, 67, 65
2, 27648, Note_on_c, 0, 68, 103
2, 28160, Note_off_c, 0, 68, 65
2, 28416, Note_on_c, 0, 68, 103
2, 28672, Note_off_c, 0, 68, 65
2, 28800, Note_on_c, 0, 67, 103
2, 29056, Note_off_c, 0, 67, 65
2, 29184, Note_on_c, 0, 65, 103
2, 30212, Note_off_c, 0, 65, 65
2, 30720, Note_on_c, 0, 65, 103
2, 31232, Note_off_c, 0, 65, 65
2, 31488, Note_on_c, 0, 67, 103
2, 31744, Note_off_c, 0, 67, 65
2, 31872, Note_on_c, 0, 68, 103
2, 32128, Note_off_c, 0, 68, 65
2, 32256, Note_on_c, 0, 70, 103
2, 32768, Note_off_c, 0, 70, 65
2, 33024, Note_on_c, 0, 70, 103
2, 33280, Note_off_c, 0, 70, 65
2, 33408, Note_on_c, 0, 70, 103
2, 33664, Note_off_c, 0, 70, 65
2, 33792, Note_on_c, 0, 72, 103
2, 34304, Note_off_c, 0, 72, 65
2, 34560, Note_on_c, 0, 70, 103
2, 34816, Note_off_c, 0, 70, 65
2, 34944, Note_on_c, 0, 68, 103
2, 35200, Note_off_c, 0, 68, 65
2, 35328, Note_on_c, 0, 70, 103
2, 35456, Note_off_c, 0, 70, 65
2, 36096, Note_on_c, 0, 67, 103
2, 36352, Note_off_c, 0, 67, 65
2, 36480, Note_on_c, 0, 65, 103
2, 36736, Note_off_c, 0, 65, 65
2, 36864, Note_on_c, 0, 63, 103
2, 37632, Note_off_c, 0, 63, 65
2, 38016, Note_on_c, 0, 67, 103
2, 38272, Note_off_c, 0, 67, 65
2, 38400, Note_on_c, 0, 70, 103
2, 38912, Note_off_c, 0, 70, 65
2, 39168, Note_on_c, 0, 70, 103
2, 39424, Note_off_c, 0, 70, 65
2, 39552, Note_on_c, 0, 70, 103
2, 39808, Note_off_c, 0, 70, 65
2, 39936, Note_on_c, 0, 72, 103
2, 40448, Note_off_c, 0, 72, 65
2, 40704, Note_on_c, 0, 70, 103
2, 40960, Note_off_c, 0, 70, 65
2, 41088, Note_on_c, 0, 68, 103
2, 41344, Note_off_c, 0, 68, 65
2, 41472, Note_on_c, 0, 70, 103
2, 42500, Note_off_c, 0, 70, 65
2, 43008, Note_on_c, 0, 70, 103
2, 43776, Note_off_c, 0, 70, 65
2, 44160, Note_on_c, 0, 67, 103
2, 44416, Note_off_c, 0, 67, 65
2, 44544, Note_on_c, 0, 68, 103
2, 45056, Note_off_c, 0, 68, 65
2, 45312, Note_on_c, 0, 68, 103
2, 45568, Note_off_c, 0, 68, 65
2, 45696, Note_on_c, 0, 67, 103
2, 45952, Note_off_c, 0, 67, 65
2, 46080, Note_on_c, 0, 65, 103
2, 46848, Note_off_c, 0, 65, 65
2, 47232, Note_on_c, 0, 65, 103
2, 47488, Note_off_c, 0, 65, 65
2, 47616, Note_on_c, 0, 67, 103
2, 48000, Note_on_c, 0, 67, 103
2, 48128, Note_off_c, 0, 67, 65
2, 48256, Note_off_c, 0, 67, 65
2, 48384, Note_on_c, 0, 67, 103
2, 48640, Note_off_c, 0, 67, 65
2, 48768, Note_on_c, 0, 65, 103
2, 49024, Note_off_c, 0, 65, 65
2, 49152, Note_on_c, 0, 63, 103
2, 49920, Note_off_c, 0, 63, 65
2, 50304, Note_on_c, 0, 67, 103
2, 50560, Note_off_c, 0, 67, 65
2, 50688, Note_on_c, 0, 68, 103
2, 51200, Note_off_c, 0, 68, 65
2, 51456, Note_on_c, 0, 68, 103
2, 51712, Note_off_c, 0, 68, 65
2, 51840, Note_on_c, 0, 67, 103
2, 52096, Note_off_c, 0, 67, 65
2, 52224, Note_on_c, 0, 65, 103
2, 52608, Note_on_c, 0, 65, 103
2, 52736, Note_off_c, 0, 65, 65
2, 52992, Note_off_c, 0, 65, 65
2, 52992, Note_on_c, 0, 63, 103
2, 53248, Note_off_c, 0, 63, 65
2, 53376, Note_on_c, 0, 62, 103
2, 53632, Note_off_c, 0, 62, 65
2, 53760, Note_on_c, 0, 63, 103
2, 54788, Note_off_c, 0, 63, 65
2, 55296, Note_on_c, 0, 70, 103
2, 55808, Note_off_c, 0, 70, 65
2, 56064, Note_on_c, 0, 70, 103
2, 56320, Note_off_c, 0, 70, 65
2, 56448, Note_on_c, 0, 70, 103
2, 56704, Note_off_c, 0, 70, 65
2, 56832, Note_on_c, 0, 72, 103
2, 57344, Note_off_c, 0, 72, 65
2, 57600, Note_on_c, 0, 70, 103
2, 57856, Note_off_c, 0, 70, 65
2, 57984, Note_on_c, 0, 68, 103
2, 58240, Note_off_c, 0, 68, 65
2, 58368, Note_on_c, 0, 70, 103
2, 58880, Note_off_c, 0, 70, 65
2, 59136, Note_on_c, 0, 67, 103
2, 59392, Note_off_c, 0, 67, 65
2, 59520, Note_on_c, 0, 65, 103
2, 59776, Note_off_c, 0, 65, 65
2, 59904, Note_on_c, 0, 63, 103
2, 60672, Note_off_c, 0, 63, 65
2, 61056, Note_on_c, 0, 67, 103
2, 61312, Note_off_c, 0, 67, 65
2, 61440, Note_on_c, 0, 70, 103
2, 61952, Note_off_c, 0, 70, 65
2, 62208, Note_on_c, 0, 70, 103
2, 62464, Note_off_c, 0, 70, 65
2, 62592, Note_on_c, 0, 70, 103
2, 62848, Note_off_c, 0, 70, 65
2, 62976, Note_on_c, 0, 72, 103
2, 63488, Note_off_c, 0, 72, 65
2, 63744, Note_on_c, 0, 70, 103
2, 64000, Note_off_c, 0, 70, 65
2, 64128, Note_on_c, 0, 68, 103
2, 64384, Note_off_c, 0, 68, 65
2, 64512, Note_on_c, 0, 70, 103
2, 65540, Note_off_c, 0, 70, 65
2, 66048, Note_on_c, 0, 70, 103
2, 66560, Note_off_c, 0, 70, 65
2, 67584, Note_on_c, 0, 70, 103
2, 68096, Note_off_c, 0, 70, 65
2, 68352, Note_on_c, 0, 70, 103
2, 68608, Note_off_c, 0, 70, 65
2, 68736, Note_on_c, 0, 70, 103
2, 68992, Note_off_c, 0, 70, 65
2, 69120, Note_on_c, 0, 72, 103
2, 69632, Note_off_c, 0, 72, 65
2, 69888, Note_on_c, 0, 70, 103
2, 70144, Note_off_c, 0, 70, 65
2, 70272, Note_on_c, 0, 68, 103
2, 70528, Note_off_c, 0, 68, 65
2, 70656, Note_on_c, 0, 70, 103
2, 71168, Note_off_c, 0, 70, 65
2, 71424, Note_on_c, 0, 67, 103
2, 71680, Note_off_c, 0, 67, 65
2, 71808, Note_on_c, 0, 65, 103
2, 72064, Note_off_c, 0, 65, 65
2, 72192, Note_on_c, 0, 63, 103
2, 72960, Note_off_c, 0, 63, 65
2, 73344, Note_on_c, 0, 67, 103
2, 73600, Note_off_c, 0, 67, 65
2, 73728, Note_on_c, 0, 70, 103
2, 74240, Note_off_c, 0, 70, 65
2, 74496, Note_on_c, 0, 70, 103
2, 74752, Note_off_c, 0, 70, 65
2, 74880, Note_on_c, 0, 67, 103
2, 75136, Note_off_c, 0, 67, 65
2, 75264, Note_on_c, 0, 68, 103
2, 75776, Note_off_c, 0, 68, 65
2, 76032, Note_on_c, 0, 68, 103
2, 76288, Note_off_c, 0, 68, 65
2, 76416, Note_on_c, 0, 67, 103
2, 76672, Note_off_c, 0, 67, 65
2, 76800, Note_on_c, 0, 65, 103
2, 77828, Note_off_c, 0, 65, 65
2, 78336, Note_on_c, 0, 65, 103
2, 78848, Note_off_c, 0, 65, 65
2, 79104, Note_on_c, 0, 67, 103
2, 79360, Note_off_c, 0, 67, 65
2, 79488, Note_on_c, 0, 68, 103
2, 79744, Note_off_c, 0, 68, 65
2, 79872, Note_on_c, 0, 70, 103
2, 80384, Note_off_c, 0, 70, 65
2, 80640, Note_on_c, 0, 70, 103
2, 80896, Note_off_c, 0, 70, 65
2, 81024, Note_on_c, 0, 70, 103
2, 81280, Note_off_c, 0, 70, 65
2, 81408, Note_on_c, 0, 72, 103
2, 81920, Note_off_c, 0, 72, 65
2, 82176, Note_on_c, 0, 70, 103
2, 82432, Note_off_c, 0, 70, 65
2, 82560, Note_on_c, 0, 68, 103
2, 82816, Note_off_c, 0, 68, 65
2, 82944, Note_on_c, 0, 70, 103
2, 83072, Note_off_c, 0, 70, 65
2, 83712, Note_on_c, 0, 67, 103
2, 83968, Note_off_c, 0, 67, 65
2, 84096, Note_on_c, 0, 65, 103
2, 84352, Note_off_c, 0, 65, 65
2, 84480, Note_on_c, 0, 63, 103
2, 85248, Note_off_c, 0, 63, 65
2, 85632, Note_on_c, 0, 67, 103
2, 85888, Note_off_c, 0, 67, 65
2, 86016, Note_on_c, 0, 70, 103
2, 86528, Note_off_c, 0, 70, 65
2, 86784, Note_on_c, 0, 70, 103
2, 87040, Note_off_c, 0, 70, 65
2, 87168, Note_on_c, 0, 70, 103
2, 87424, Note_off_c, 0, 70, 65
2, 87552, Note_on_c, 0, 72, 103
2, 88064, Note_off_c, 0, 72, 65
2, 88320, Note_on_c, 0, 70, 103
2, 88576, Note_off_c, 0, 70, 65
2, 88704, Note_on_c, 0, 68, 103
2, 88960, Note_off_c, 0, 68, 65
2, 89088, Note_on_c, 0, 70, 103
2, 90116, Note_off_c, 0, 70, 65
2, 90624, Note_on_c, 0, 70, 103
2, 91392, Note_off_c, 0, 70, 65
2, 91776, Note_on_c, 0, 67, 103
2, 92032, Note_off_c, 0, 67, 65
2, 92160, Note_on_c, 0, 68, 103
2, 92672, Note_off_c, 0, 68, 65
2, 92928, Note_on_c, 0, 68, 103
2, 93184, Note_off_c, 0, 68, 65
2, 93312, Note_on_c, 0, 67, 103
2, 93568, Note_off_c, 0, 67, 65
2, 93696, Note_on_c, 0, 65, 103
2, 94464, Note_off_c, 0, 65, 65
2, 94848, Note_on_c, 0, 65, 103
2, 95104, Note_off_c, 0, 65, 65
2, 95232, Note_on_c, 0, 67, 103
2, 95616, Note_on_c, 0, 67, 103
2, 95744, Note_off_c, 0, 67, 65
2, 95872, Note_off_c, 0, 67, 65
2, 96000, Note_on_c, 0, 67, 103
2, 96256, Note_off_c, 0, 67, 65
2, 96384, Note_on_c, 0, 65, 103
2, 96640, Note_off_c, 0, 65, 65
2, 96768, Note_on_c, 0, 63, 103
2, 97536, Note_off_c, 0, 63, 65
2, 97920, Note_on_c, 0, 67, 103
2, 98176, Note_off_c, 0, 67, 65
2, 98304, Note_on_c, 0, 68, 103
2, 98816, Note_off_c, 0, 68, 65
2, 99072, Note_on_c, 0, 68, 103
2, 99328, Note_off_c, 0, 68, 65
2, 99456, Note_on_c, 0, 67, 103
2, 99712, Note_off_c, 0, 67, 65
2, 99840, Note_on_c, 0, 65, 103
2, 100224, Note_on_c, 0, 65, 103
2, 100352, Note_off_c, 0, 65, 65
2, 100608, Note_off_c, 0, 65, 65
2, 100608, Note_on_c, 0, 63, 103
2, 100864, Note_off_c, 0, 63, 65
2, 100992, Note_on_c, 0, 62, 103
2, 101248, Note_off_c, 0, 62, 65
2, 101376, Note_on_c, 0, 63, 103
2, 102404, Note_off_c, 0, 63, 65
2, 102912, Note_on_c, 0, 63, 103
2, 103940, Note_off_c, 0, 63, 65
2, 104448, Note_on_c, 0, 63, 103
2, 105476, Note_off_c, 0, 63, 65
2, 105984, Note_on_c, 0, 63, 103
2, 106752, Note_off_c, 0, 63, 65
2, 107136, Note_on_c, 0, 67, 103
2, 107392, Note_off_c, 0, 67, 65
2, 107520, Note_on_c, 0, 68, 103
2, 108032, Note_off_c, 0, 68, 65
2, 108288, Note_on_c, 0, 68, 103
2, 108544, Note_off_c, 0, 68, 65
2, 108672, Note_on_c, 0, 67, 103
2, 108928, Note_off_c, 0, 67, 65
2, 109056, Note_on_c, 0, 65, 103
2, 109312, Note_off_c, 0, 65, 65
2, 109440, Note_on_c, 0, 65, 103
2, 110208, Note_off_c, 0, 65, 65
2, 110592, Note_on_c, 0, 65, 103
2, 111104, Note_off_c, 0, 65, 65
2, 111360, Note_on_c, 0, 63, 103
2, 111616, Note_off_c, 0, 63, 65
2, 111744, Note_on_c, 0, 62, 103
2, 112000, Note_off_c, 0, 62, 65
2, 112128, Note_on_c, 0, 63, 103
2, 113156, Note_off_c, 0, 63, 65
2, 113156, End_track
3, 0, Start_track
3, 0, Title_t, "GUITAR"
3, 0, Control_c, 1, 0, 0
3, 0, Program_c, 1, 25
3, 0, Control_c, 1, 91, 124
3, 0, Control_c, 1, 93, 123
3, 0, Key_signature, -3, "major"
3, 1152, Note_on_c, 1, 67, 112
3, 1408, Note_off_c, 1, 67, 71
3, 1536, Note_on_c, 1, 68, 112
3, 1536, Note_on_c, 1, 60, 112
3, 2048, Note_off_c, 1, 68, 71
3, 2048, Note_off_c, 1, 60, 71
3, 2304, Note_on_c, 1, 68, 112
3, 2304, Note_on_c, 1, 60, 112
3, 2560, Note_off_c, 1, 68, 71
3, 2560, Note_off_c, 1, 60, 71
3, 2688, Note_on_c, 1, 67, 112
3, 2688, Note_on_c, 1, 58, 112
3, 2944, Note_off_c, 1, 67, 71
3, 2944, Note_off_c, 1, 58, 71
3, 3072, Note_on_c, 1, 56, 112
3, 3072, Note_on_c, 1, 65, 112
3, 3328, Note_off_c, 1, 65, 71
3, 3456, Note_on_c, 1, 65, 112
3, 3840, Note_off_c, 1, 65, 71
3, 3840, Note_on_c, 1, 63, 112
3, 4096, Note_off_c, 1, 63, 71
3, 4100, Note_off_c, 1, 56, 71
3, 4224, Note_on_c, 1, 62, 112
3, 4480, Note_off_c, 1, 62, 71
3, 4608, Note_on_c, 1, 63, 112
3, 4608, Note_on_c, 1, 55, 112
3, 5636, Note_off_c, 1, 63, 71
3, 5636, Note_off_c, 1, 55, 71
3, 6144, Note_on_c, 1, 63, 112
3, 6528, Note_on_c, 1, 58, 112
3, 6528, Note_on_c, 1, 55, 112
3, 6784, Note_off_c, 1, 58, 71
3, 6784, Note_off_c, 1, 55, 71
3, 7172, Note_off_c, 1, 63, 71
3, 7296, Note_on_c, 1, 58, 112
3, 7296, Note_on_c, 1, 55, 112
3, 7552, Note_off_c, 1, 58, 71
3, 7552, Note_off_c, 1, 55, 71
3, 7680, Note_on_c, 1, 70, 112
3, 8064, Note_on_c, 1, 67, 112
3, 8064, Note_on_c, 1, 63, 112
3, 8064, Note_on_c, 1, 58, 112
3, 8192, Note_off_c, 1, 70, 71
3, 8320, Note_off_c, 1, 67, 71
3, 8320, Note_off_c, 1, 63, 71
3, 8320, Note_off_c, 1, 58, 71
3, 8448, Note_on_c, 1, 70, 112
3, 8704, Note_off_c, 1, 70, 71
3, 8832, Note_on_c, 1, 70, 112
3, 8832, Note_on_c, 1, 67, 112
3, 8832, Note_on_c, 1, 63, 112
3, 8832, Note_on_c, 1, 58, 112
3, 9088, Note_off_c, 1, 70, 71
3, 9088, Note_off_c, 1, 67, 71
3, 9088, Note_off_c, 1, 63, 71
3, 9088, Note_off_c, 1, 58, 71
3, 9216, Note_on_c, 1, 72, 112
3, 9600, Note_on_c, 1, 68, 112
3, 9600, Note_on_c, 1, 63, 112
3, 9600, Note_on_c, 1, 60, 112
3, 9728, Note_off_c, 1, 72, 71
3, 9856, Note_off_c, 1, 68, 71
3, 9856, Note_off_c, 1, 63, 71
3, 9856, Note_off_c, 1, 60, 71
3, 9984, Note_on_c, 1, 70, 112
3, 10240, Note_off_c, 1, 70, 71
3, 10368, Note_on_c, 1, 68, 112
3, 10368, Note_on_c, 1, 63, 112
3, 10368, Note_on_c, 1, 60, 112
3, 10624, Note_off_c, 1, 68, 71
3, 10624, Note_off_c, 1, 63, 71
3, 10624, Note_off_c, 1, 60, 71
3, 10752, Note_on_c, 1, 70, 112
3, 11136, Note_on_c, 1, 67, 112
3, 11136, Note_on_c, 1, 63, 112
3, 11136, Note_on_c, 1, 58, 112
3, 11264, Note_off_c, 1, 70, 71
3, 11392, Note_off_c, 1, 67, 71
3, 11392, Note_off_c, 1, 63, 71
3, 11392, Note_off_c, 1, 58, 71
3, 11520, Note_on_c, 1, 67, 112
3, 11776, Note_off_c, 1, 67, 71
3, 11904, Note_on_c, 1, 65, 112
3, 11904, Note_on_c, 1, 58, 112
3, 11904, Note_on_c, 1, 55, 112
3, 12160, Note_off_c, 1, 65, 71
3, 12160, Note_off_c, 1, 58, 71
3, 12160, Note_off_c, 1, 55, 71
3, 12288, Note_on_c, 1, 63, 112
3, 12672, Note_on_c, 1, 58, 112
3, 12672, Note_on_c, 1, 55, 112
3, 12928, Note_off_c, 1, 58, 71
3, 12928, Note_off_c, 1, 55, 71
3, 13056, Note_off_c, 1, 63, 71
3, 13440, Note_on_c, 1, 67, 112
3, 13440, Note_on_c, 1, 58, 112
3, 13440, Note_on_c, 1, 55, 112
3, 13696, Note_off_c, 1, 67, 71
3, 13696, Note_off_c, 1, 58, 71
3, 13696, Note_off_c, 1, 55, 71
3, 13824, Note_on_c, 1, 70, 112
3, 14208, Note_on_c, 1, 67, 112
3, 14208, Note_on_c, 1, 63, 112
3, 14208, Note_on_c, 1, 58, 112
3, 14464, Note_off_c, 1, 67, 71
3, 14464, Note_off_c, 1, 63, 71
3, 14464, Note_off_c, 1, 58, 71
3, 14592, Note_off_c, 1, 70, 71
3, 14976, Note_on_c, 1, 70, 112
3, 14976, Note_on_c, 1, 67, 112
3, 14976, Note_on_c, 1, 63, 112
3, 14976, Note_on_c, 1, 58, 112
3, 15232, Note_off_c, 1, 70, 71
3, 15232, Note_off_c, 1, 67, 71
3, 15232, Note_off_c, 1, 63, 71
3, 15232, Note_off_c, 1, 58, 71
3, 15360, Note_on_c, 1, 72, 112
3, 15744, Note_on_c, 1, 68, 112
3, 15744, Note_on_c, 1, 63, 112
3, 15744, Note_on_c, 1, 60, 112
3, 15872, Note_off_c, 1, 72, 71
3, 16000, Note_off_c, 1, 68, 71
3, 16000, Note_off_c, 1, 63, 71
3, 16000, Note_off_c, 1, 60, 71
3, 16128, Note_on_c, 1, 70, 112
3, 16384, Note_off_c, 1, 70, 71
3, 16512, Note_on_c, 1, 68, 112
3, 16512, Note_on_c, 1, 63, 112
3, 16512, Note_on_c, 1, 60, 112
3, 16768, Note_off_c, 1, 68, 71
3, 16768, Note_off_c, 1, 63, 71
3, 16768, Note_off_c, 1, 60, 71
3, 16896, Note_on_c, 1, 70, 112
3, 17280, Note_on_c, 1, 67, 112
3, 17280, Note_on_c, 1, 63, 112
3, 17280, Note_on_c, 1, 58, 112
3, 17536, Note_off_c, 1, 67, 71
3, 17536, Note_off_c, 1, 63, 71
3, 17536, Note_off_c, 1, 58, 71
3, 17924, Note_off_c, 1, 70, 71
3, 18048, Note_on_c, 1, 67, 112
3, 18048, Note_on_c, 1, 63, 112
3, 18048, Note_on_c, 1, 58, 112
3, 18304, Note_off_c, 1, 67, 71
3, 18304, Note_off_c, 1, 63, 71
3, 18304, Note_off_c, 1, 58, 71
3, 18432, Note_on_c, 1, 70, 112
3, 18816, Note_on_c, 1, 68, 112
3, 18816, Note_on_c, 1, 62, 112
3, 18816, Note_on_c, 1, 58, 112
3, 18944, Note_off_c, 1, 70, 71
3, 19072, Note_off_c, 1, 68, 71
3, 19072, Note_off_c, 1, 62, 71
3, 19072, Note_off_c, 1, 58, 71
3, 19200, Note_on_c, 1, 67, 112
3, 19456, Note_off_c, 1, 67, 71
3, 19584, Note_on_c, 1, 62, 112
3, 19584, Note_on_c, 1, 58, 112
3, 19584, Note_on_c, 1, 68, 112
3, 19840, Note_off_c, 1, 62, 71
3, 19840, Note_off_c, 1, 58, 71
3, 19840, Note_off_c, 1, 68, 71
3, 19968, Note_on_c, 1, 70, 112
3, 20352, Note_on_c, 1, 67, 112
3, 20352, Note_on_c, 1, 63, 112
3, 20352, Note_on_c, 1, 58, 112
3, 20480, Note_off_c, 1, 70, 71
3, 20608, Note_off_c, 1, 67, 71
3, 20608, Note_off_c, 1, 63, 71
3, 20608, Note_off_c, 1, 58, 71
3, 20736, Note_on_c, 1, 70, 112
3, 20992, Note_off_c, 1, 70, 71
3, 21120, Note_on_c, 1, 67, 112
3, 21120, Note_on_c, 1, 63, 112
3, 21120, Note_on_c, 1, 58, 112
3, 21120, Note_on_c, 1, 70, 112
3, 21376, Note_off_c, 1, 67, 71
3, 21376, Note_off_c, 1, 63, 71
3, 21376, Note_off_c, 1, 58, 71
3, 21376, Note_off_c, 1, 70, 71
3, 21504, Note_on_c, 1, 72, 112
3, 21760, Note_off_c, 1, 72, 71
3, 21888, Note_on_c, 1, 68, 112
3, 21888, Note_on_c, 1, 63, 112
3, 21888, Note_on_c, 1, 60, 112
3, 22144, Note_off_c, 1, 68, 71
3, 22144, Note_off_c, 1, 63, 71
3, 22144, Note_off_c, 1, 60, 71
3, 22272, Note_on_c, 1, 70, 112
3, 22528, Note_off_c, 1, 70, 71
3, 22656, Note_on_c, 1, 68, 112
3, 22656, Note_on_c, 1, 63, 112
3, 22656, Note_on_c, 1, 60, 112
3, 22912, Note_off_c, 1, 68, 71
3, 22912, Note_off_c, 1, 63, 71
3, 22912, Note_off_c, 1, 60, 71
3, 23040, Note_on_c, 1, 70, 112
3, 23296, Note_off_c, 1, 70, 71
3, 23424, Note_on_c, 1, 67, 112
3, 23424, Note_on_c, 1, 63, 112
3, 23424, Note_on_c, 1, 58, 112
3, 23680, Note_off_c, 1, 67, 71
3, 23680, Note_off_c, 1, 63, 71
3, 23680, Note_off_c, 1, 58, 71
3, 23808, Note_on_c, 1, 67, 112
3, 24064, Note_off_c, 1, 67, 71
3, 24192, Note_on_c, 1, 65, 112
3, 24192, Note_on_c, 1, 58, 112
3, 24192, Note_on_c, 1, 55, 112
3, 24448, Note_off_c, 1, 65, 71
3, 24448, Note_off_c, 1, 58, 71
3, 24448, Note_off_c, 1, 55, 71
3, 24576, Note_on_c, 1, 63, 112
3, 24960, Note_on_c, 1, 58, 112
3, 24960, Note_on_c, 1, 55, 112
3, 25216, Note_off_c, 1, 58, 71
3, 25216, Note_off_c, 1, 55, 71
3, 25344, Note_off_c, 1, 63, 71
3, 25728, Note_on_c, 1, 67, 112
3, 25728, Note_on_c, 1, 58, 112
3, 25728, Note_on_c, 1, 55, 112
3, 25984, Note_off_c, 1, 67, 71
3, 25984, Note_off_c, 1, 58, 71
3, 25984, Note_off_c, 1, 55, 71
3, 26112, Note_on_c, 1, 70, 112
3, 26496, Note_on_c, 1, 67, 112
3, 26496, Note_on_c, 1, 63, 112
3, 26496, Note_on_c, 1, 58, 112
3, 26752, Note_off_c, 1, 67, 71
3, 26752, Note_off_c, 1, 63, 71
3, 26752, Note_off_c, 1, 58, 71
3, 26880, Note_off_c, 1, 70, 71
3, 27264, Note_on_c, 1, 67, 112
3, 27264, Note_on_c, 1, 63, 112
3, 27264, Note_on_c, 1, 58, 112
3, 27520, Note_off_c, 1, 67, 71
3, 27520, Note_off_c, 1, 63, 71
3, 27520, Note_off_c, 1, 58, 71
3, 27648, Note_on_c, 1, 72, 112
3, 28032, Note_on_c, 1, 63, 112
3, 28032, Note_on_c, 1, 60, 112
3, 28160, Note_off_c, 1, 72, 71
3, 28288, Note_off_c, 1, 63, 71
3, 28288, Note_off_c, 1, 60, 71
3, 28416, Note_on_c, 1, 68, 112
3, 28672, Note_off_c, 1, 68, 71
3, 28800, Note_on_c, 1, 67, 112
3, 28800, Note_on_c, 1, 63, 112
3, 28800, Note_on_c, 1, 60, 112
3, 29056, Note_off_c, 1, 67, 71
3, 29056, Note_off_c, 1, 63, 71
3, 29056, Note_off_c, 1, 60, 71
3, 29184, Note_on_c, 1, 65, 112
3, 29568, Note_on_c, 1, 58, 112
3, 29568, Note_on_c, 1, 62, 112
3, 29824, Note_off_c, 1, 58, 71
3, 29824, Note_off_c, 1, 62, 71
3, 30212, Note_off_c, 1, 65, 71
3, 30336, Note_on_c, 1, 62, 112
3, 30336, Note_on_c, 1, 58, 112
3, 30592, Note_off_c, 1, 62, 71
3, 30592, Note_off_c, 1, 58, 71
3, 30720, Note_on_c, 1, 65, 112
3, 31104, Note_on_c, 1, 58, 112
3, 31104, Note_on_c, 1, 62, 112
3, 31232, Note_off_c, 1, 65, 71
3, 31360, Note_off_c, 1, 58, 71
3, 31360, Note_off_c, 1, 62, 71
3, 31488, Note_on_c, 1, 67, 112
3, 31744, Note_off_c, 1, 67, 71
3, 31872, Note_on_c, 1, 58, 112
3, 31872, Note_on_c, 1, 62, 112
3, 31872, Note_on_c, 1, 68, 112
3, 32128, Note_off_c, 1, 58, 71
3, 32128, Note_off_c, 1, 62, 71
3, 32128, Note_off_c, 1, 68, 71
3, 32256, Note_on_c, 1, 70, 112
3, 32640, Note_on_c, 1, 67, 112
3, 32640, Note_on_c, 1, 63, 112
3, 32640, Note_on_c, 1, 58, 112
3, 32768, Note_off_c, 1, 70, 71
3, 32896, Note_off_c, 1, 67, 71
3, 32896, Note_off_c, 1, 63, 71
3, 32896, Note_off_c, 1, 58, 71
3, 33024, Note_on_c, 1, 70, 112
3, 33280, Note_off_c, 1, 70, 71
3, 33408, Note_on_c, 1, 70, 112
3, 33408, Note_on_c, 1, 67, 112
3, 33408, Note_on_c, 1, 63, 112
3, 33408, Note_on_c, 1, 58, 112
3, 33664, Note_off_c, 1, 70, 71
3, 33664, Note_off_c, 1, 67, 71
3, 33664, Note_off_c, 1, 63, 71
3, 33664, Note_off_c, 1, 58, 71
3, 33792, Note_on_c, 1, 72, 112
3, 34176, Note_on_c, 1, 68, 112
3, 34176, Note_on_c, 1, 63, 112
3, 34176, Note_on_c, 1, 60, 112
3, 34304, Note_off_c, 1, 72, 71
3, 34432, Note_off_c, 1, 68, 71
3, 34432, Note_off_c, 1, 63, 71
3, 34432, Note_off_c, 1, 60, 71
3, 34560, Note_on_c, 1, 70, 112
3, 34816, Note_off_c, 1, 70, 71
3, 34944, Note_on_c, 1, 68, 112
3, 34944, Note_on_c, 1, 63, 112
3, 34944, Note_on_c, 1, 60, 112
3, 35200, Note_off_c, 1, 68, 71
3, 35200, Note_off_c, 1, 63, 71
3, 35200, Note_off_c, 1, 60, 71
3, 35328, Note_on_c, 1, 70, 112
3, 35712, Note_on_c, 1, 67, 112
3, 35712, Note_on_c, 1, 63, 112
3, 35712, Note_on_c, 1, 58, 112
3, 35840, Note_off_c, 1, 70, 71
3, 35968, Note_off_c, 1, 67, 71
3, 35968, Note_off_c, 1, 63, 71
3, 35968, Note_off_c, 1, 58, 71
3, 36096, Note_on_c, 1, 67, 112
3, 36352, Note_off_c, 1, 67, 71
3, 36480, Note_on_c, 1, 65, 112
3, 36480, Note_on_c, 1, 58, 112
3, 36480, Note_on_c, 1, 55, 112
3, 36736, Note_off_c, 1, 65, 71
3, 36736, Note_off_c, 1, 58, 71
3, 36736, Note_off_c, 1, 55, 71
3, 36864, Note_on_c, 1, 63, 112
3, 37248, Note_on_c, 1, 58, 112
3, 37248, Note_on_c, 1, 55, 112
3, 37504, Note_off_c, 1, 58, 71
3, 37504, Note_off_c, 1, 55, 71
3, 37632, Note_off_c, 1, 63, 71
3, 38016, Note_on_c, 1, 67, 112
3, 38016, Note_on_c, 1, 58, 112
3, 38016, Note_on_c, 1, 55, 112
3, 38272, Note_off_c, 1, 67, 71
3, 38272, Note_off_c, 1, 58, 71
3, 38272, Note_off_c, 1, 55, 71
3, 38400, Note_on_c, 1, 70, 112
3, 38784, Note_on_c, 1, 67, 112
3, 38784, Note_on_c, 1, 63, 112
3, 38784, Note_on_c, 1, 58, 112
3, 38912, Note_off_c, 1, 70, 71
3, 39040, Note_off_c, 1, 67, 71
3, 39040, Note_off_c, 1, 63, 71
3, 39040, Note_off_c, 1, 58, 71
3, 39168, Note_on_c, 1, 70, 112
3, 39424, Note_off_c, 1, 70, 71
3, 39552, Note_on_c, 1, 70, 112
3, 39552, Note_on_c, 1, 67, 112
3, 39552, Note_on_c, 1, 63, 112
3, 39552, Note_on_c, 1, 58, 112
3, 39808, Note_off_c, 1, 70, 71
3, 39808, Note_off_c, 1, 67, 71
3, 39808, Note_off_c, 1, 63, 71
3, 39808, Note_off_c, 1, 58, 71
3, 39936, Note_on_c, 1, 72, 112
3, 40320, Note_on_c, 1, 68, 112
3, 40320, Note_on_c, 1, 63, 112
3, 40320, Note_on_c, 1, 60, 112
3, 40448, Note_off_c, 1, 72, 71
3, 40576, Note_off_c, 1, 68, 71
3, 40576, Note_off_c, 1, 63, 71
3, 40576, Note_off_c, 1, 60, 71
3, 40704, Note_on_c, 1, 70, 112
3, 40960, Note_off_c, 1, 70, 71
3, 41088, Note_on_c, 1, 68, 112
3, 41088, Note_on_c, 1, 63, 112
3, 41088, Note_on_c, 1, 60, 112
3, 41344, Note_off_c, 1, 68, 71
3, 41344, Note_off_c, 1, 63, 71
3, 41344, Note_off_c, 1, 60, 71
3, 41472, Note_on_c, 1, 70, 112
3, 41856, Note_on_c, 1, 67, 112
3, 41856, Note_on_c, 1, 63, 112
3, 41856, Note_on_c, 1, 58, 112
3, 42112, Note_off_c, 1, 67, 71
3, 42112, Note_off_c, 1, 63, 71
3, 42112, Note_off_c, 1, 58, 71
3, 42500, Note_off_c, 1, 70, 71
3, 42624, Note_on_c, 1, 67, 112
3, 42624, Note_on_c, 1, 63, 112
3, 42624, Note_on_c, 1, 58, 112
3, 42880, Note_off_c, 1, 67, 71
3, 42880, Note_off_c, 1, 63, 71
3, 42880, Note_off_c, 1, 58, 71
3, 43008, Note_on_c, 1, 70, 112
3, 43392, Note_on_c, 1, 67, 112
3, 43392, Note_on_c, 1, 63, 112
3, 43392, Note_on_c, 1, 58, 112
3, 43648, Note_off_c, 1, 67, 71
3, 43648, Note_off_c, 1, 63, 71
3, 43648, Note_off_c, 1, 58, 71
3, 43776, Note_off_c, 1, 70, 71
3, 44160, Note_on_c, 1, 67, 112
3, 44160, Note_on_c, 1, 67, 112
3, 44160, Note_on_c, 1, 63, 112
3, 44160, Note_on_c, 1, 58, 112
3, 44416, Note_off_c, 1, 67, 71
3, 44416, Note_off_c, 1, 67, 71
3, 44416, Note_off_c, 1, 63, 71
3, 44416, Note_off_c, 1, 58, 71
3, 44544, Note_on_c, 1, 68, 112
3, 44928, Note_on_c, 1, 63, 112
3, 44928, Note_on_c, 1, 60, 112
3, 45056, Note_off_c, 1, 68, 71
3, 45184, Note_off_c, 1, 63, 71
3, 45184, Note_off_c, 1, 60, 71
3, 45312, Note_on_c, 1, 68, 112
3, 45568, Note_off_c, 1, 68, 71
3, 45696, Note_on_c, 1, 67, 112
3, 45696, Note_on_c, 1, 63, 112
3, 45696, Note_on_c, 1, 60, 112
3, 45952, Note_off_c, 1, 67, 71
3, 45952, Note_off_c, 1, 63, 71
3, 45952, Note_off_c, 1, 60, 71
3, 46080, Note_on_c, 1, 65, 112
3, 46464, Note_on_c, 1, 63, 112
3, 46464, Note_on_c, 1, 58, 112
3, 46720, Note_off_c, 1, 63, 71
3, 46720, Note_off_c, 1, 58, 71
3, 46848, Note_off_c, 1, 65, 71
3, 47232, Note_on_c, 1, 65, 112
3, 47232, Note_on_c, 1, 62, 112
3, 47232, Note_on_c, 1, 56, 112
3, 47488, Note_off_c, 1, 65, 71
3, 47488, Note_off_c, 1, 62, 71
3, 47488, Note_off_c, 1, 56, 71
3, 47616, Note_on_c, 1, 67, 112
3, 48000, Note_on_c, 1, 63, 112
3, 48000, Note_on_c, 1, 60, 112
3, 48000, Note_on_c, 1, 67, 112
3, 48128, Note_off_c, 1, 67, 71
3, 48256, Note_off_c, 1, 63, 71
3, 48256, Note_off_c, 1, 60, 71
3, 48256, Note_off_c, 1, 67, 71
3, 48384, Note_on_c, 1, 67, 112
3, 48640, Note_off_c, 1, 67, 71
3, 48768, Note_on_c, 1, 65, 112
3, 48768, Note_on_c, 1, 62, 112
3, 48768, Note_on_c, 1, 55, 112
3, 49024, Note_off_c, 1, 65, 71
3, 49024, Note_off_c, 1, 62, 71
3, 49024, Note_off_c, 1, 55, 71
3, 49152, Note_on_c, 1, 63, 112
3, 49536, Note_on_c, 1, 58, 112
3, 49536, Note_on_c, 1, 55, 112
3, 49792, Note_off_c, 1, 58, 71
3, 49792, Note_off_c, 1, 55, 71
3, 49920, Note_off_c, 1, 63, 71
3, 50304, Note_on_c, 1, 67, 112
3, 50304, Note_on_c, 1, 63, 112
3, 50304, Note_on_c, 1, 55, 112
3, 50560, Note_off_c, 1, 67, 71
3, 50560, Note_off_c, 1, 63, 71
3, 50560, Note_off_c, 1, 55, 71
3, 50688, Note_on_c, 1, 68, 112
3, 51072, Note_on_c, 1, 62, 112
3, 51072, Note_on_c, 1, 58, 112
3, 51200, Note_off_c, 1, 68, 71
3, 51328, Note_off_c, 1, 62, 71
3, 51328, Note_off_c, 1, 58, 71
3, 51456, Note_on_c, 1, 68, 112
3, 51712, Note_off_c, 1, 68, 71
3, 51840, Note_on_c, 1, 67, 112
3, 51840, Note_on_c, 1, 63, 112
3, 51840, Note_on_c, 1, 60, 112
3, 52096, Note_off_c, 1, 67, 71
3, 52096, Note_off_c, 1, 63, 71
3, 52096, Note_off_c, 1, 60, 71
3, 52224, Note_on_c, 1, 65, 112
3, 52608, Note_on_c, 1, 62, 112
3, 52608, Note_on_c, 1, 56, 112
3, 52608, Note_on_c, 1, 65, 112
3, 52736, Note_off_c, 1, 65, 71
3, 52864, Note_off_c, 1, 62, 71
3, 52864, Note_off_c, 1, 56, 71
3, 52992, Note_off_c, 1, 65, 71
3, 52992, Note_on_c, 1, 63, 112
3, 53248, Note_off_c, 1, 63, 71
3, 53376, Note_on_c, 1, 62, 112
3, 53376, Note_on_c, 1, 56, 112
3, 53632, Note_off_c, 1, 62, 71
3, 53632, Note_off_c, 1, 56, 71
3, 53760, Note_on_c, 1, 63, 112
3, 54144, Note_on_c, 1, 58, 112
3, 54144, Note_on_c, 1, 55, 112
3, 54400, Note_off_c, 1, 58, 71
3, 54400, Note_off_c, 1, 55, 71
3, 54788, Note_off_c, 1, 63, 71
3, 54912, Note_on_c, 1, 58, 112
3, 54912, Note_on_c, 1, 55, 112
3, 55168, Note_off_c, 1, 58, 71
3, 55168, Note_off_c, 1, 55, 71
3, 55296, Note_on_c, 1, 70, 112
3, 55680, Note_on_c, 1, 67, 112
3, 55680, Note_on_c, 1, 63, 112
3, 55680, Note_on_c, 1, 58, 112
3, 55808, Note_off_c, 1, 70, 71
3, 55936, Note_off_c, 1, 67, 71
3, 55936, Note_off_c, 1, 63, 71
3, 55936, Note_off_c, 1, 58, 71
3, 56064, Note_on_c, 1, 70, 112
3, 56320, Note_off_c, 1, 70, 71
3, 56448, Note_on_c, 1, 70, 112
3, 56448, Note_on_c, 1, 67, 112
3, 56448, Note_on_c, 1, 63, 112
3, 56448, Note_on_c, 1, 58, 112
3, 56704, Note_off_c, 1, 70, 71
3, 56704, Note_off_c, 1, 67, 71
3, 56704, Note_off_c, 1, 63, 71
3, 56704, Note_off_c, 1, 58, 71
3, 56832, Note_on_c, 1, 72, 112
3, 57216, Note_on_c, 1, 68, 112
3, 57216, Note_on_c, 1, 63, 112
3, 57216, Note_on_c, 1, 60, 112
3, 57344, Note_off_c, 1, 72, 71
3, 57472, Note_off_c, 1, 68, 71
3, 57472, Note_off_c, 1, 63, 71
3, 57472, Note_off_c, 1, 60, 71
3, 57600, Note_on_c, 1, 70, 112
3, 57856, Note_off_c, 1, 70, 71
3, 57984, Note_on_c, 1, 68, 112
3, 57984, Note_on_c, 1, 63, 112
3, 57984, Note_on_c, 1, 60, 112
3, 58240, Note_off_c, 1, 68, 71
3, 58240, Note_off_c, 1, 63, 71
3, 58240, Note_off_c, 1, 60, 71
3, 58368, Note_on_c, 1, 70, 112
3, 58752, Note_on_c, 1, 67, 112
3, 58752, Note_on_c, 1, 63, 112
3, 58752, Note_on_c, 1, 58, 112
3, 58880, Note_off_c, 1, 70, 71
3, 59008, Note_off_c, 1, 67, 71
3, 59008, Note_off_c, 1, 63, 71
3, 59008, Note_off_c, 1, 58, 71
3, 59136, Note_on_c, 1, 67, 112
3, 59392, Note_off_c, 1, 67, 71
3, 59520, Note_on_c, 1, 65, 112
3, 59520, Note_on_c, 1, 58, 112
3, 59520, Note_on_c, 1, 55, 112
3, 59776, Note_off_c, 1, 65, 71
3, 59776, Note_off_c, 1, 58, 71
3, 59776, Note_off_c, 1, 55, 71
3, 59904, Note_on_c, 1, 63, 112
3, 60288, Note_on_c, 1, 58, 112
3, 60288, Note_on_c, 1, 55, 112
3, 60544, Note_off_c, 1, 58, 71
3, 60544, Note_off_c, 1, 55, 71
3, 60672, Note_off_c, 1, 63, 71
3, 61056, Note_on_c, 1, 67, 112
3, 61056, Note_on_c, 1, 58, 112
3, 61056, Note_on_c, 1, 55, 112
3, 61312, Note_off_c, 1, 67, 71
3, 61312, Note_off_c, 1, 58, 71
3, 61312, Note_off_c, 1, 55, 71
3, 61440, Note_on_c, 1, 70, 112
3, 61824, Note_on_c, 1, 67, 112
3, 61824, Note_on_c, 1, 63, 112
3, 61824, Note_on_c, 1, 58, 112
3, 62080, Note_off_c, 1, 67, 71
3, 62080, Note_off_c, 1, 63, 71
3, 62080, Note_off_c, 1, 58, 71
3, 62208, Note_off_c, 1, 70, 71
3, 62592, Note_on_c, 1, 70, 112
3, 62592, Note_on_c, 1, 67, 112
3, 62592, Note_on_c, 1, 63, 112
3, 62592, Note_on_c, 1, 58, 112
3, 62848, Note_off_c, 1, 70, 71
3, 62848, Note_off_c, 1, 67, 71
3, 62848, Note_off_c, 1, 63, 71
3, 62848, Note_off_c, 1, 58, 71
3, 62976, Note_on_c, 1, 72, 112
3, 63360, Note_on_c, 1, 68, 112
3, 63360, Note_on_c, 1, 63, 112
3, 63360, Note_on_c, 1, 60, 112
3, 63488, Note_off_c, 1, 72, 71
3, 63616, Note_off_c, 1, 68, 71
3, 63616, Note_off_c, 1, 63, 71
3, 63616, Note_off_c, 1, 60, 71
3, 63744, Note_on_c, 1, 70, 112
3, 64000, Note_off_c, 1, 70, 71
3, 64128, Note_on_c, 1, 68, 112
3, 64128, Note_on_c, 1, 63, 112
3, 64128, Note_on_c, 1, 60, 112
3, 64384, Note_off_c, 1, 68, 71
3, 64384, Note_off_c, 1, 63, 71
3, 64384, Note_off_c, 1, 60, 71
3, 64512, Note_on_c, 1, 70, 112
3, 64896, Note_on_c, 1, 67, 112
3, 64896, Note_on_c, 1, 63, 112
3, 64896, Note_on_c, 1, 58, 112
3, 65152, Note_off_c, 1, 67, 71
3, 65152, Note_off_c, 1, 63, 71
3, 65152, Note_off_c, 1, 58, 71
3, 65540, Note_off_c, 1, 70, 71
3, 65664, Note_on_c, 1, 67, 112
3, 65664, Note_on_c, 1, 63, 112
3, 65664, Note_on_c, 1, 58, 112
3, 65920, Note_off_c, 1, 67, 71
3, 65920, Note_off_c, 1, 63, 71
3, 65920, Note_off_c, 1, 58, 71
3, 66048, Note_on_c, 1, 70, 112
3, 66432, Note_on_c, 1, 68, 112
3, 66432, Note_on_c, 1, 62, 112
3, 66432, Note_on_c, 1, 58, 112
3, 66560, Note_off_c, 1, 70, 71
3, 66688, Note_off_c, 1, 68, 71
3, 66688, Note_off_c, 1, 62, 71
3, 66688, Note_off_c, 1, 58, 71
3, 66816, Note_on_c, 1, 67, 112
3, 67072, Note_off_c, 1, 67, 71
3, 67200, Note_on_c, 1, 62, 112
3, 67200, Note_on_c, 1, 58, 112
3, 67200, Note_on_c, 1, 68, 112
3, 67456, Note_off_c, 1, 62, 71
3, 67456, Note_off_c, 1, 58, 71
3, 67456, Note_off_c, 1, 68, 71
3, 67584, Note_on_c, 1, 70, 112
3, 67968, Note_on_c, 1, 67, 112
3, 67968, Note_on_c, 1, 63, 112
3, 67968, Note_on_c, 1, 58, 112
3, 68096, Note_off_c, 1, 70, 71
3, 68224, Note_off_c, 1, 67, 71
3, 68224, Note_off_c, 1, 63, 71
3, 68224, Note_off_c, 1, 58, 71
3, 68352, Note_on_c, 1, 70, 112
3, 68608, Note_off_c, 1, 70, 71
3, 68736, Note_on_c, 1, 67, 112
3, 68736, Note_on_c, 1, 63, 112
3, 68736, Note_on_c, 1, 58, 112
3, 68736, Note_on_c, 1, 70, 112
3, 68992, Note_off_c, 1, 67, 71
3, 68992, Note_off_c, 1, 63, 71
3, 68992, Note_off_c, 1, 58, 71
3, 68992, Note_off_c, 1, 70, 71
3, 69120, Note_on_c, 1, 72, 112
3, 69376, Note_off_c, 1, 72, 71
3, 69504, Note_on_c, 1, 68, 112
3, 69504, Note_on_c, 1, 63, 112
3, 69504, Note_on_c, 1, 60, 112
3, 69760, Note_off_c, 1, 68, 71
3, 69760, Note_off_c, 1, 63, 71
3, 69760, Note_off_c, 1, 60, 71
3, 69888, Note_on_c, 1, 70, 112
3, 70144, Note_off_c, 1, 70, 71
3, 70272, Note_on_c, 1, 68, 112
3, 70272, Note_on_c, 1, 63, 112
3, 70272, Note_on_c, 1, 60, 112
3, 70528, Note_off_c, 1, 68, 71
3, 70528, Note_off_c, 1, 63, 71
3, 70528, Note_off_c, 1, 60, 71
3, 70656, Note_on_c, 1, 70, 112
3, 70912, Note_off_c, 1, 70, 71
3, 71040, Note_on_c, 1, 67, 112
3, 71040, Note_on_c, 1, 63, 112
3, 71040, Note_on_c, 1, 58, 112
3, 71296, Note_off_c, 1, 67, 71
3, 71296, Note_off_c, 1, 63, 71
3, 71296, Note_off_c, 1, 58, 71
3, 71424, Note_on_c, 1, 67, 112
3, 71680, Note_off_c, 1, 67, 71
3, 71808, Note_on_c, 1, 65, 112
3, 71808, Note_on_c, 1, 58, 112
3, 71808, Note_on_c, 1, 55, 112
3, 72064, Note_off_c, 1, 65, 71
3, 72064, Note_off_c, 1, 58, 71
3, 72064, Note_off_c, 1, 55, 71
3, 72192, Note_on_c, 1, 63, 112
3, 72576, Note_on_c, 1, 58, 112
3, 72576, Note_on_c, 1, 55, 112
3, 72832, Note_off_c, 1, 58, 71
3, 72832, Note_off_c, 1, 55, 71
3, 72960, Note_off_c, 1, 63, 71
3, 73344, Note_on_c, 1, 67, 112
3, 73344, Note_on_c, 1, 58, 112
3, 73344, Note_on_c, 1, 55, 112
3, 73600, Note_off_c, 1, 67, 71
3, 73600, Note_off_c, 1, 58, 71
3, 73600, Note_off_c, 1, 55, 71
3, 73728, Note_on_c, 1, 70, 112
3, 74112, Note_on_c, 1, 67, 112
3, 74112, Note_on_c, 1, 63, 112
3, 74112, Note_on_c, 1, 58, 112
3, 74368, Note_off_c, 1, 67, 71
3, 74368, Note_off_c, 1, 63, 71
3, 74368, Note_off_c, 1, 58, 71
3, 74496, Note_off_c, 1, 70, 71
3, 74880, Note_on_c, 1, 67, 112
3, 74880, Note_on_c, 1, 63, 112
3, 74880, Note_on_c, 1, 58, 112
3, 75136, Note_off_c, 1, 67, 71
3, 75136, Note_off_c, 1, 63, 71
3, 75136, Note_off_c, 1, 58, 71
3, 75264, Note_on_c, 1, 72, 112
3, 75648, Note_on_c, 1, 63, 112
3, 75648, Note_on_c, 1, 60, 112
3, 75776, Note_off_c, 1, 72, 71
3, 75904, Note_off_c, 1, 63, 71
3, 75904, Note_off_c, 1, 60, 71
3, 76032, Note_on_c, 1, 68, 112
3, 76288, Note_off_c, 1, 68, 71
3, 76416, Note_on_c, 1, 67, 112
3, 76416, Note_on_c, 1, 63, 112
3, 76416, Note_on_c, 1, 60, 112
3, 76672, Note_off_c, 1, 67, 71
3, 76672, Note_off_c, 1, 63, 71
3, 76672, Note_off_c, 1, 60, 71
3, 76800, Note_on_c, 1, 65, 112
3, 77184, Note_on_c, 1, 58, 112
3, 77184, Note_on_c, 1, 62, 112
3, 77440, Note_off_c, 1, 58, 71
3, 77440, Note_off_c, 1, 62, 71
3, 77828, Note_off_c, 1, 65, 71
3, 77952, Note_on_c, 1, 62, 112
3, 77952, Note_on_c, 1, 58, 112
3, 78208, Note_off_c, 1, 62, 71
3, 78208, Note_off_c, 1, 58, 71
3, 78336, Note_on_c, 1, 65, 112
3, 78720, Note_on_c, 1, 58, 112
3, 78720, Note_on_c, 1, 62, 112
3, 78848, Note_off_c, 1, 65, 71
3, 78976, Note_off_c, 1, 58, 71
3, 78976, Note_off_c, 1, 62, 71
3, 79104, Note_on_c, 1, 67, 112
3, 79360, Note_off_c, 1, 67, 71
3, 79488, Note_on_c, 1, 58, 112
3, 79488, Note_on_c, 1, 62, 112
3, 79488, Note_on_c, 1, 68, 112
3, 79744, Note_off_c, 1, 58, 71
3, 79744, Note_off_c, 1, 62, 71
3, 79744, Note_off_c, 1, 68, 71
3, 79872, Note_on_c, 1, 70, 112
3, 80256, Note_on_c, 1, 67, 112
3, 80256, Note_on_c, 1, 63, 112
3, 80256, Note_on_c, 1, 58, 112
3, 80384, Note_off_c, 1, 70, 71
3, 80512, Note_off_c, 1, 67, 71
3, 80512, Note_off_c, 1, 63, 71
3, 80512, Note_off_c, 1, 58, 71
3, 80640, Note_on_c, 1, 70, 112
3, 80896, Note_off_c, 1, 70, 71
3, 81024, Note_on_c, 1, 70, 112
3, 81024, Note_on_c, 1, 67, 112
3, 81024, Note_on_c, 1, 63, 112
3, 81024, Note_on_c, 1, 58, 112
3, 81280, Note_off_c, 1, 70, 71
3, 81280, Note_off_c, 1, 67, 71
3, 81280, Note_off_c, 1, 63, 71
3, 81280, Note_off_c, 1, 58, 71
3, 81408, Note_on_c, 1, 72, 112
3, 81792, Note_on_c, 1, 68, 112
3, 81792, Note_on_c, 1, 63, 112
3, 81792, Note_on_c, 1, 60, 112
3, 81920, Note_off_c, 1, 72, 71
3, 82048, Note_off_c, 1, 68, 71
3, 82048, Note_off_c, 1, 63, 71
3, 82048, Note_off_c, 1, 60, 71
3, 82176, Note_on_c, 1, 70, 112
3, 82432, Note_off_c, 1, 70, 71
3, 82560, Note_on_c, 1, 68, 112
3, 82560, Note_on_c, 1, 63, 112
3, 82560, Note_on_c, 1, 60, 112
3, 82816, Note_off_c, 1, 68, 71
3, 82816, Note_off_c, 1, 63, 71
3, 82816, Note_off_c, 1, 60, 71
3, 82944, Note_on_c, 1, 70, 112
3, 83328, Note_on_c, 1, 67, 112
3, 83328, Note_on_c, 1, 63, 112
3, 83328, Note_on_c, 1, 58, 112
3, 83456, Note_off_c, 1, 70, 71
3, 83584, Note_off_c, 1, 67, 71
3, 83584, Note_off_c, 1, 63, 71
3, 83584, Note_off_c, 1, 58, 71
3, 83712, Note_on_c, 1, 67, 112
3, 83968, Note_off_c, 1, 67, 71
3, 84096, Note_on_c, 1, 65, 112
3, 84096, Note_on_c, 1, 58, 112
3, 84096, Note_on_c, 1, 55, 112
3, 84352, Note_off_c, 1, 65, 71
3, 84352, Note_off_c, 1, 58, 71
3, 84352, Note_off_c, 1, 55, 71
3, 84480, Note_on_c, 1, 63, 112
3, 84864, Note_on_c, 1, 58, 112
3, 84864, Note_on_c, 1, 55, 112
3, 85120, Note_off_c, 1, 58, 71
3, 85120, Note_off_c, 1, 55, 71
3, 85248, Note_off_c, 1, 63, 71
3, 85632, Note_on_c, 1, 67, 112
3, 85632, Note_on_c, 1, 58, 112
3, 85632, Note_on_c, 1, 55, 112
3, 85888, Note_off_c, 1, 67, 71
3, 85888, Note_off_c, 1, 58, 71
3, 85888, Note_off_c, 1, 55, 71
3, 86016, Note_on_c, 1, 70, 112
3, 86400, Note_on_c, 1, 67, 112
3, 86400, Note_on_c, 1, 63, 112
3, 86400, Note_on_c, 1, 58, 112
3, 86528, Note_off_c, 1, 70, 71
3, 86656, Note_off_c, 1, 67, 71
3, 86656, Note_off_c, 1, 63, 71
3, 86656, Note_off_c, 1, 58, 71
3, 86784, Note_on_c, 1, 70, 112
3, 87040, Note_off_c, 1, 70, 71
3, 87168, Note_on_c, 1, 70, 112
3, 87168, Note_on_c, 1, 67, 112
3, 87168, Note_on_c, 1, 63, 112
3, 87168, Note_on_c, 1, 58, 112
3, 87424, Note_off_c, 1, 70, 71
3, 87424, Note_off_c, 1, 67, 71
3, 87424, Note_off_c, 1, 63, 71
3, 87424, Note_off_c, 1, 58, 71
3, 87552, Note_on_c, 1, 72, 112
3, 87936, Note_on_c, 1, 68, 112
3, 87936, Note_on_c, 1, 63, 112
3, 87936, Note_on_c, 1, 60, 112
3, 88064, Note_off_c, 1, 72, 71
3, 88192, Note_off_c, 1, 68, 71
3, 88192, Note_off_c, 1, 63, 71
3, 88192, Note_off_c, 1, 60, 71
3, 88320, Note_on_c, 1, 70, 112
3, 88576, Note_off_c, 1, 70, 71
3, 88704, Note_on_c, 1, 68, 112
3, 88704, Note_on_c, 1, 63, 112
3, 88704, Note_on_c, 1, 60, 112
3, 88960, Note_off_c, 1, 68, 71
3, 88960, Note_off_c, 1, 63, 71
3, 88960, Note_off_c, 1, 60, 71
3, 89088, Note_on_c, 1, 70, 112
3, 89472, Note_on_c, 1, 67, 112
3, 89472, Note_on_c, 1, 63, 112
3, 89472, Note_on_c, 1, 58, 112
3, 89728, Note_off_c, 1, 67, 71
3, 89728, Note_off_c, 1, 63, 71
3, 89728, Note_off_c, 1, 58, 71
3, 90116, Note_off_c, 1, 70, 71
3, 90240, Note_on_c, 1, 67, 112
3, 90240, Note_on_c, 1, 63, 112
3, 90240, Note_on_c, 1, 58, 112
3, 90496, Note_off_c, 1, 67, 71
3, 90496, Note_off_c, 1, 63, 71
3, 90496, Note_off_c, 1, 58, 71
3, 90624, Note_on_c, 1, 70, 112
3, 91008, Note_on_c, 1, 67, 112
3, 91008, Note_on_c, 1, 63, 112
3, 91008, Note_on_c, 1, 58, 112
3, 91264, Note_off_c, 1, 67, 71
3, 91264, Note_off_c, 1, 63, 71
3, 91264, Note_off_c, 1, 58, 71
3, 91392, Note_off_c, 1, 70, 71
3, 91776, Note_on_c, 1, 67, 112
3, 91776, Note_on_c, 1, 67, 112
3, 91776, Note_on_c, 1, 63, 112
3, 91776, Note_on_c, 1, 58, 112
3, 92032, Note_off_c, 1, 67, 71
3, 92032, Note_off_c, 1, 67, 71
3, 92032, Note_off_c, 1, 63, 71
3, 92032, Note_off_c, 1, 58, 71
3, 92160, Note_on_c, 1, 68, 112
3, 92544, Note_on_c, 1, 63, 112
3, 92544, Note_on_c, 1, 60, 112
3, 92672, Note_off_c, 1, 68, 71
3, 92800, Note_off_c, 1, 63, 71
3, 92800, Note_off_c, 1, 60, 71
3, 92928, Note_on_c, 1, 68, 112
3, 93184, Note_off_c, 1, 68, 71
3, 93312, Note_on_c, 1, 67, 112
3, 93312, Note_on_c, 1, 63, 112
3, 93312, Note_on_c, 1, 60, 112
3, 93568, Note_off_c, 1, 67, 71
3, 93568, Note_off_c, 1, 63, 71
3, 93568, Note_off_c, 1, 60, 71
3, 93696, Note_on_c, 1, 65, 112
3, 94080, Note_on_c, 1, 63, 112
3, 94080, Note_on_c, 1, 58, 112
3, 94336, Note_off_c, 1, 63, 71
3, 94336, Note_off_c, 1, 58, 71
3, 94464, Note_off_c, 1, 65, 71
3, 94848, Note_on_c, 1, 65, 112
3, 94848, Note_on_c, 1, 62, 112
3, 94848, Note_on_c, 1, 56, 112
3, 95104, Note_off_c, 1, 65, 71
3, 95104, Note_off_c, 1, 62, 71
3, 95104, Note_off_c, 1, 56, 71
3, 95232, Note_on_c, 1, 67, 112
3, 95616, Note_on_c, 1, 63, 112
3, 95616, Note_on_c, 1, 60, 112
3, 95616, Note_on_c, 1, 67, 112
3, 95744, Note_off_c, 1, 67, 71
3, 95872, Note_off_c, 1, 63, 71
3, 95872, Note_off_c, 1, 60, 71
3, 95872, Note_off_c, 1, 67, 71
3, 96000, Note_on_c, 1, 67, 112
3, 96256, Note_off_c, 1, 67, 71
3, 96384, Note_on_c, 1, 65, 112
3, 96384, Note_on_c, 1, 62, 112
3, 96384, Note_on_c, 1, 55, 112
3, 96640, Note_off_c, 1, 65, 71
3, 96640, Note_off_c, 1, 62, 71
3, 96640, Note_off_c, 1, 55, 71
3, 96768, Note_on_c, 1, 63, 112
3, 97152, Note_on_c, 1, 58, 112
3, 97152, Note_on_c, 1, 55, 112
3, 97408, Note_off_c, 1, 58, 71
3, 97408, Note_off_c, 1, 55, 71
3, 97536, Note_off_c, 1, 63, 71
3, 97920, Note_on_c, 1, 67, 112
3, 97920, Note_on_c, 1, 63, 112
3, 97920, Note_on_c, 1, 55, 112
3, 98176, Note_off_c, 1, 67, 71
3, 98176, Note_off_c, 1, 63, 71
3, 98176, Note_off_c, 1, 55, 71
3, 98304, Note_on_c, 1, 68, 112
3, 98688, Note_on_c, 1, 62, 112
3, 98688, Note_on_c, 1, 58, 112
3, 98816, Note_off_c, 1, 68, 71
3, 98944, Note_off_c, 1, 62, 71
3, 98944, Note_off_c, 1, 58, 71
3, 99072, Note_on_c, 1, 68, 112
3, 99328, Note_off_c, 1, 68, 71
3, 99456, Note_on_c, 1, 67, 112
3, 99456, Note_on_c, 1, 63, 112
3, 99456, Note_on_c, 1, 60, 112
3, 99712, Note_off_c, 1, 67, 71
3, 99712, Note_off_c, 1, 63, 71
3, 99712, Note_off_c, 1, 60, 71
3, 99840, Note_on_c, 1, 65, 112
3, 100224, Note_on_c, 1, 62, 112
3, 100224, Note_on_c, 1, 56, 112
3, 100224, Note_on_c, 1, 65, 112
3, 100352, Note_off_c, 1, 65, 71
3, 100480, Note_off_c, 1, 62, 71
3, 100480, Note_off_c, 1, 56, 71
3, 100608, Note_off_c, 1, 65, 71
3, 100608, Note_on_c, 1, 63, 112
3, 100864, Note_off_c, 1, 63, 71
3, 100992, Note_on_c, 1, 62, 112
3, 100992, Note_on_c, 1, 56, 112
3, 101248, Note_off_c, 1, 62, 71
3, 101248, Note_off_c, 1, 56, 71
3, 101376, Note_on_c, 1, 63, 112
3, 101760, Note_on_c, 1, 58, 112
3, 101760, Note_on_c, 1, 55, 112
3, 102016, Note_off_c, 1, 58, 71
3, 102016, Note_off_c, 1, 55, 71
3, 102404, Note_off_c, 1, 63, 71
3, 102528, Note_on_c, 1, 58, 112
3, 102528, Note_on_c, 1, 55, 112
3, 102784, Note_off_c, 1, 58, 71
3, 102784, Note_off_c, 1, 55, 71
3, 102912, Note_on_c, 1, 63, 112
3, 103296, Note_on_c, 1, 58, 112
3, 103296, Note_on_c, 1, 55, 112
3, 103552, Note_off_c, 1, 58, 71
3, 103552, Note_off_c, 1, 55, 71
3, 103940, Note_off_c, 1, 63, 71
3, 104064, Note_on_c, 1, 58, 112
3, 104064, Note_on_c, 1, 55, 112
3, 104320, Note_off_c, 1, 58, 71
3, 104320, Note_off_c, 1, 55, 71
3, 104448, Note_on_c, 1, 63, 112
3, 104832, Note_on_c, 1, 58, 112
3, 104832, Note_on_c, 1, 55, 112
3, 105088, Note_off_c, 1, 58, 71
3, 105088, Note_off_c, 1, 55, 71
3, 105476, Note_off_c, 1, 63, 71
3, 105600, Note_on_c, 1, 58, 112
3, 105600, Note_on_c, 1, 55, 112
3, 105856, Note_off_c, 1, 58, 71
3, 105856, Note_off_c, 1, 55, 71
3, 105984, Note_on_c, 1, 63, 112
3, 106368, Note_on_c, 1, 58, 112
3, 106368, Note_on_c, 1, 55, 112
3, 106624, Note_off_c, 1, 58, 71
3, 106624, Note_off_c, 1, 55, 71
3, 106752, Note_off_c, 1, 63, 71
3, 107136, Note_on_c, 1, 67, 112
3, 107136, Note_on_c, 1, 63, 112
3, 107136, Note_on_c, 1, 55, 112
3, 107392, Note_off_c, 1, 67, 71
3, 107392, Note_off_c, 1, 63, 71
3, 107392, Note_off_c, 1, 55, 71
3, 107520, Note_on_c, 1, 68, 112
3, 107904, Note_on_c, 1, 63, 112
3, 107904, Note_on_c, 1, 60, 112
3, 108032, Note_off_c, 1, 68, 71
3, 108160, Note_off_c, 1, 63, 71
3, 108160, Note_off_c, 1, 60, 71
3, 108288, Note_on_c, 1, 68, 112
3, 108544, Note_off_c, 1, 68, 71
3, 108672, Note_on_c, 1, 67, 112
3, 108672, Note_on_c, 1, 63, 112
3, 108672, Note_on_c, 1, 60, 112
3, 108928, Note_off_c, 1, 67, 71
3, 108928, Note_off_c, 1, 63, 71
3, 108928, Note_off_c, 1, 60, 71
3, 109056, Note_on_c, 1, 65, 112
3, 109312, Note_off_c, 1, 65, 71
3, 109440, Note_on_c, 1, 65, 112
3, 109440, Note_on_c, 1, 62, 112
3, 110208, Note_off_c, 1, 65, 71
3, 110208, Note_off_c, 1, 62, 71
3, 110592, Note_on_c, 1, 65, 112
3, 110592, Note_on_c, 1, 62, 112
3, 111104, Note_off_c, 1, 65, 71
3, 111104, Note_off_c, 1, 62, 71
3, 111360, Note_on_c, 1, 63, 112
3, 111360, Note_on_c, 1, 60, 112
3, 111616, Note_off_c, 1, 63, 71
3, 111616, Note_off_c, 1, 60, 71
3, 111744, Note_on_c, 1, 62, 112
3, 111744, Note_on_c, 1, 58, 112
3, 112000, Note_off_c, 1, 62, 71
3, 112000, Note_off_c, 1, 58, 71
3, 112128, Note_on_c, 1, 63, 112
3, 112128, Note_on_c, 1, 55, 112
3, 113156, Note_off_c, 1, 63, 71
3, 113156, Note_off_c, 1, 55, 71
3, 113156, End_track
4, 0, Start_track
4, 0, Title_t, "BASS"
4, 0, Control_c, 2, 0, 0
4, 0, Program_c, 2, 33
4, 0, Control_c, 2, 91, 127
4, 0, Control_c, 2, 93, 127
4, 0, Key_signature, -3, "major"
4, 1536, Note_on_c, 2, 44, 112
4, 2564, Note_off_c, 2, 44, 71
4, 3072, Note_on_c, 2, 46, 112
4, 3584, Note_off_c, 2, 46, 71
4, 3840, Note_on_c, 2, 53, 112
4, 4096, Note_off_c, 2, 53, 71
4, 4224, Note_on_c, 2, 46, 112
4, 4480, Note_off_c, 2, 46, 71
4, 4608, Note_on_c, 2, 39, 112
4, 4992, Note_off_c, 2, 39, 71
4, 4992, Note_on_c, 2, 48, 112
4, 5120, Note_off_c, 2, 48, 71
4, 5376, Note_on_c, 2, 46, 112
4, 5632, Note_off_c, 2, 46, 71
4, 5760, Note_on_c, 2, 48, 112
4, 6016, Note_off_c, 2, 48, 71
4, 6144, Note_on_c, 2, 39, 112
4, 6528, Note_off_c, 2, 39, 71
4, 6912, Note_on_c, 2, 46, 112
4, 7168, Note_off_c, 2, 46, 71
4, 7680, Note_on_c, 2, 51, 112
4, 7936, Note_off_c, 2, 51, 71
4, 8448, Note_on_c, 2, 46, 112
4, 8704, Note_off_c, 2, 46, 71
4, 8832, Note_on_c, 2, 51, 112
4, 9088, Note_off_c, 2, 51, 71
4, 9216, Note_on_c, 2, 44, 112
4, 9472, Note_off_c, 2, 44, 71
4, 9984, Note_on_c, 2, 51, 112
4, 10240, Note_off_c, 2, 51, 71
4, 10752, Note_on_c, 2, 51, 112
4, 11008, Note_off_c, 2, 51, 71
4, 11520, Note_on_c, 2, 46, 112
4, 11776, Note_off_c, 2, 46, 71
4, 12288, Note_on_c, 2, 51, 112
4, 12544, Note_off_c, 2, 51, 71
4, 13056, Note_on_c, 2, 46, 112
4, 13312, Note_off_c, 2, 46, 71
4, 13824, Note_on_c, 2, 51, 112
4, 14080, Note_off_c, 2, 51, 71
4, 14592, Note_on_c, 2, 46, 112
4, 14848, Note_off_c, 2, 46, 71
4, 14976, Note_on_c, 2, 51, 112
4, 15232, Note_off_c, 2, 51, 71
4, 15360, Note_on_c, 2, 44, 112
4, 15616, Note_off_c, 2, 44, 71
4, 16128, Note_on_c, 2, 51, 112
4, 16384, Note_off_c, 2, 51, 71
4, 16896, Note_on_c, 2, 51, 112
4, 17152, Note_off_c, 2, 51, 71
4, 17664, Note_on_c, 2, 46, 112
4, 17920, Note_off_c, 2, 46, 71
4, 18432, Note_on_c, 2, 53, 112
4, 18688, Note_off_c, 2, 53, 71
4, 19200, Note_on_c, 2, 46, 112
4, 19456, Note_off_c, 2, 46, 71
4, 19968, Note_on_c, 2, 51, 112
4, 20224, Note_off_c, 2, 51, 71
4, 20736, Note_on_c, 2, 46, 112
4, 20992, Note_off_c, 2, 46, 71
4, 21120, Note_on_c, 2, 51, 112
4, 21376, Note_off_c, 2, 51, 71
4, 21504, Note_on_c, 2, 44, 112
4, 21760, Note_off_c, 2, 44, 71
4, 22272, Note_on_c, 2, 51, 112
4, 22528, Note_off_c, 2, 51, 71
4, 23040, Note_on_c, 2, 51, 112
4, 23296, Note_off_c, 2, 51, 71
4, 23808, Note_on_c, 2, 46, 112
4, 24064, Note_off_c, 2, 46, 71
4, 24576, Note_on_c, 2, 51, 112
4, 24832, Note_off_c, 2, 51, 71
4, 25344, Note_on_c, 2, 46, 112
4, 25600, Note_off_c, 2, 46, 71
4, 26112, Note_on_c, 2, 51, 112
4, 26368, Note_off_c, 2, 51, 71
4, 26880, Note_on_c, 2, 46, 112
4, 27136, Note_off_c, 2, 46, 71
4, 27264, Note_on_c, 2, 51, 112
4, 27520, Note_off_c, 2, 51, 71
4, 28032, Note_on_c, 2, 44, 112
4, 28288, Note_off_c, 2, 44, 71
4, 28800, Note_on_c, 2, 48, 112
4, 29056, Note_off_c, 2, 48, 71
4, 29184, Note_on_c, 2, 46, 112
4, 29696, Note_off_c, 2, 46, 71
4, 29952, Note_on_c, 2, 46, 112
4, 30336, Note_off_c, 2, 46, 71
4, 30528, Note_on_c, 2, 48, 112
4, 30656, Note_off_c, 2, 48, 71
4, 30720, Note_on_c, 2, 46, 112
4, 30976, Note_off_c, 2, 46, 71
4, 31104, Note_on_c, 2, 44, 112
4, 31360, Note_off_c, 2, 44, 71
4, 31488, Note_on_c, 2, 43, 112
4, 31744, Note_off_c, 2, 43, 71
4, 31872, Note_on_c, 2, 41, 112
4, 32128, Note_off_c, 2, 41, 71
4, 32256, Note_on_c, 2, 39, 112
4, 32512, Note_off_c, 2, 39, 71
4, 33024, Note_on_c, 2, 46, 112
4, 33280, Note_off_c, 2, 46, 71
4, 33408, Note_on_c, 2, 39, 112
4, 33664, Note_off_c, 2, 39, 71
4, 33792, Note_on_c, 2, 44, 112
4, 34048, Note_off_c, 2, 44, 71
4, 34560, Note_on_c, 2, 51, 112
4, 34816, Note_off_c, 2, 51, 71
4, 35328, Note_on_c, 2, 51, 112
4, 35584, Note_off_c, 2, 51, 71
4, 36096, Note_on_c, 2, 46, 112
4, 36352, Note_off_c, 2, 46, 71
4, 36864, Note_on_c, 2, 51, 112
4, 37120, Note_off_c, 2, 51, 71
4, 37632, Note_on_c, 2, 46, 112
4, 37888, Note_off_c, 2, 46, 71
4, 38400, Note_on_c, 2, 51, 112
4, 38656, Note_off_c, 2, 51, 71
4, 39168, Note_on_c, 2, 46, 112
4, 39424, Note_off_c, 2, 46, 71
4, 39552, Note_on_c, 2, 51, 112
4, 39808, Note_off_c, 2, 51, 71
4, 39936, Note_on_c, 2, 44, 112
4, 40192, Note_off_c, 2, 44, 71
4, 40704, Note_on_c, 2, 51, 112
4, 40960, Note_off_c, 2, 51, 71
4, 41472, Note_on_c, 2, 51, 112
4, 41728, Note_off_c, 2, 51, 71
4, 42240, Note_on_c, 2, 46, 112
4, 42496, Note_off_c, 2, 46, 71
4, 43008, Note_on_c, 2, 51, 112
4, 43264, Note_off_c, 2, 51, 71
4, 43776, Note_on_c, 2, 55, 112
4, 44032, Note_off_c, 2, 55, 71
4, 44160, Note_on_c, 2, 51, 112
4, 44416, Note_off_c, 2, 51, 71
4, 44544, Note_on_c, 2, 44, 112
4, 44800, Note_off_c, 2, 44, 71
4, 45312, Note_on_c, 2, 48, 112
4, 45568, Note_off_c, 2, 48, 71
4, 46080, Note_on_c, 2, 46, 112
4, 46336, Note_off_c, 2, 46, 71
4, 46848, Note_on_c, 2, 53, 112
4, 47104, Note_off_c, 2, 53, 71
4, 47232, Note_on_c, 2, 46, 112
4, 47488, Note_off_c, 2, 46, 71
4, 47616, Note_on_c, 2, 39, 112
4, 47872, Note_off_c, 2, 39, 71
4, 48384, Note_on_c, 2, 46, 112
4, 48640, Note_off_c, 2, 46, 71
4, 49152, Note_on_c, 2, 39, 112
4, 49408, Note_off_c, 2, 39, 71
4, 49920, Note_on_c, 2, 43, 112
4, 50176, Note_off_c, 2, 43, 71
4, 50304, Note_on_c, 2, 46, 112
4, 50560, Note_off_c, 2, 46, 71
4, 51072, Note_on_c, 2, 44, 112
4, 51328, Note_off_c, 2, 44, 71
4, 51840, Note_on_c, 2, 48, 112
4, 52096, Note_off_c, 2, 48, 71
4, 52224, Note_on_c, 2, 46, 112
4, 52480, Note_off_c, 2, 46, 71
4, 52992, Note_on_c, 2, 53, 112
4, 53248, Note_off_c, 2, 53, 71
4, 53376, Note_on_c, 2, 46, 112
4, 53632, Note_off_c, 2, 46, 71
4, 53760, Note_on_c, 2, 39, 112
4, 54144, Note_off_c, 2, 39, 71
4, 54336, Note_on_c, 2, 48, 112
4, 54464, Note_off_c, 2, 48, 71
4, 54528, Note_on_c, 2, 46, 112
4, 54784, Note_off_c, 2, 46, 71
4, 54912, Note_on_c, 2, 48, 112
4, 55168, Note_off_c, 2, 48, 71
4, 55296, Note_on_c, 2, 51, 112
4, 55552, Note_off_c, 2, 51, 71
4, 56064, Note_on_c, 2, 46, 112
4, 56320, Note_off_c, 2, 46, 71
4, 56448, Note_on_c, 2, 51, 112
4, 56704, Note_off_c, 2, 51, 71
4, 56832, Note_on_c, 2, 44, 112
4, 57088, Note_off_c, 2, 44, 71
4, 57600, Note_on_c, 2, 51, 112
4, 57856, Note_off_c, 2, 51, 71
4, 58368, Note_on_c, 2, 51, 112
4, 58624, Note_off_c, 2, 51, 71
4, 59136, Note_on_c, 2, 46, 112
4, 59392, Note_off_c, 2, 46, 71
4, 59904, Note_on_c, 2, 51, 112
4, 60160, Note_off_c, 2, 51, 71
4, 60672, Note_on_c, 2, 46, 112
4, 60928, Note_off_c, 2, 46, 71
4, 61440, Note_on_c, 2, 51, 112
4, 61696, Note_off_c, 2, 51, 71
4, 62208, Note_on_c, 2, 46, 112
4, 62464, Note_off_c, 2, 46, 71
4, 62592, Note_on_c, 2, 51, 112
4, 62848, Note_off_c, 2, 51, 71
4, 62976, Note_on_c, 2, 44, 112
4, 63232, Note_off_c, 2, 44, 71
4, 63744, Note_on_c, 2, 51, 112
4, 64000, Note_off_c, 2, 51, 71
4, 64512, Note_on_c, 2, 51, 112
4, 64768, Note_off_c, 2, 51, 71
4, 65280, Note_on_c, 2, 46, 112
4, 65536, Note_off_c, 2, 46, 71
4, 66048, Note_on_c, 2, 53, 112
4, 66304, Note_off_c, 2, 53, 71
4, 66816, Note_on_c, 2, 46, 112
4, 67072, Note_off_c, 2, 46, 71
4, 67584, Note_on_c, 2, 51, 112
4, 67840, Note_off_c, 2, 51, 71
4, 68352, Note_on_c, 2, 46, 112
4, 68608, Note_off_c, 2, 46, 71
4, 68736, Note_on_c, 2, 51, 112
4, 68992, Note_off_c, 2, 51, 71
4, 69120, Note_on_c, 2, 44, 112
4, 69376, Note_off_c, 2, 44, 71
4, 69888, Note_on_c, 2, 51, 112
4, 70144, Note_off_c, 2, 51, 71
4, 70656, Note_on_c, 2, 51, 112
4, 70912, Note_off_c, 2, 51, 71
4, 71424, Note_on_c, 2, 46, 112
4, 71680, Note_off_c, 2, 46, 71
4, 72192, Note_on_c, 2, 51, 112
4, 72448, Note_off_c, 2, 51, 71
4, 72960, Note_on_c, 2, 46, 112
4, 73216, Note_off_c, 2, 46, 71
4, 73728, Note_on_c, 2, 51, 112
4, 73984, Note_off_c, 2, 51, 71
4, 74496, Note_on_c, 2, 46, 112
4, 74752, Note_off_c, 2, 46, 71
4, 74880, Note_on_c, 2, 51, 112
4, 75136, Note_off_c, 2, 51, 71
4, 75648, Note_on_c, 2, 44, 112
4, 75904, Note_off_c, 2, 44, 71
4, 76416, Note_on_c, 2, 48, 112
4, 76672, Note_off_c, 2, 48, 71
4, 76800, Note_on_c, 2, 46, 112
4, 77312, Note_off_c, 2, 46, 71
4, 77568, Note_on_c, 2, 46, 112
4, 77952, Note_off_c, 2, 46, 71
4, 78144, Note_on_c, 2, 48, 112
4, 78272, Note_off_c, 2, 48, 71
4, 78336, Note_on_c, 2, 46, 112
4, 78592, Note_off_c, 2, 46, 71
4, 78720, Note_on_c, 2, 44, 112
4, 78976, Note_off_c, 2, 44, 71
4, 79104, Note_on_c, 2, 43, 112
4, 79360, Note_off_c, 2, 43, 71
4, 79488, Note_on_c, 2, 41, 112
4, 79744, Note_off_c, 2, 41, 71
4, 79872, Note_on_c, 2, 39, 112
4, 80128, Note_off_c, 2, 39, 71
4, 80640, Note_on_c, 2, 46, 112
4, 80896, Note_off_c, 2, 46, 71
4, 81024, Note_on_c, 2, 39, 112
4, 81280, Note_off_c, 2, 39, 71
4, 81408, Note_on_c, 2, 44, 112
4, 81664, Note_off_c, 2, 44, 71
4, 82176, Note_on_c, 2, 51, 112
4, 82432, Note_off_c, 2, 51, 71
4, 82944, Note_on_c, 2, 51, 112
4, 83200, Note_off_c, 2, 51, 71
4, 83712, Note_on_c, 2, 46, 112
4, 83968, Note_off_c, 2, 46, 71
4, 84480, Note_on_c, 2, 51, 112
4, 84736, Note_off_c, 2, 51, 71
4, 85248, Note_on_c, 2, 46, 112
4, 85504, Note_off_c, 2, 46, 71
4, 86016, Note_on_c, 2, 51, 112
4, 86272, Note_off_c, 2, 51, 71
4, 86784, Note_on_c, 2, 46, 112
4, 87040, Note_off_c, 2, 46, 71
4, 87168, Note_on_c, 2, 51, 112
4, 87424, Note_off_c, 2, 51, 71
4, 87552, Note_on_c, 2, 44, 112
4, 87808, Note_off_c, 2, 44, 71
4, 88320, Note_on_c, 2, 51, 112
4, 88576, Note_off_c, 2, 51, 71
4, 89088, Note_on_c, 2, 51, 112
4, 89344, Note_off_c, 2, 51, 71
4, 89856, Note_on_c, 2, 46, 112
4, 90112, Note_off_c, 2, 46, 71
4, 90624, Note_on_c, 2, 51, 112
4, 90880, Note_off_c, 2, 51, 71
4, 91392, Note_on_c, 2, 55, 112
4, 91648, Note_off_c, 2, 55, 71
4, 91776, Note_on_c, 2, 51, 112
4, 92032, Note_off_c, 2, 51, 71
4, 92160, Note_on_c, 2, 44, 112
4, 92416, Note_off_c, 2, 44, 71
4, 92928, Note_on_c, 2, 48, 112
4, 93184, Note_off_c, 2, 48, 71
4, 93696, Note_on_c, 2, 46, 112
4, 93952, Note_off_c, 2, 46, 71
4, 94464, Note_on_c, 2, 53, 112
4, 94720, Note_off_c, 2, 53, 71
4, 94848, Note_on_c, 2, 46, 112
4, 95104, Note_off_c, 2, 46, 71
4, 95232, Note_on_c, 2, 39, 112
4, 95488, Note_off_c, 2, 39, 71
4, 96000, Note_on_c, 2, 46, 112
4, 96256, Note_off_c, 2, 46, 71
4, 96768, Note_on_c, 2, 39, 112
4, 97024, Note_off_c, 2, 39, 71
4, 97536, Note_on_c, 2, 43, 112
4, 97792, Note_off_c, 2, 43, 71
4, 97920, Note_on_c, 2, 46, 112
4, 98176, Note_off_c, 2, 46, 71
4, 98688, Note_on_c, 2, 44, 112
4, 98944, Note_off_c, 2, 44, 71
4, 99456, Note_on_c, 2, 48, 112
4, 99712, Note_off_c, 2, 48, 71
4, 99840, Note_on_c, 2, 46, 112
4, 100096, Note_off_c, 2, 46, 71
4, 100608, Note_on_c, 2, 53, 112
4, 100864, Note_off_c, 2, 53, 71
4, 100992, Note_on_c, 2, 46, 112
4, 101248, Note_off_c, 2, 46, 71
4, 101376, Note_on_c, 2, 39, 112
4, 101760, Note_off_c, 2, 39, 71
4, 101952, Note_on_c, 2, 48, 112
4, 102080, Note_off_c, 2, 48, 71
4, 102144, Note_on_c, 2, 46, 112
4, 102400, Note_off_c, 2, 46, 71
4, 102528, Note_on_c, 2, 48, 112
4, 102784, Note_off_c, 2, 48, 71
4, 102912, Note_on_c, 2, 39, 112
4, 103168, Note_off_c, 2, 39, 71
4, 103680, Note_on_c, 2, 46, 112
4, 103936, Note_off_c, 2, 46, 71
4, 104448, Note_on_c, 2, 39, 112
4, 104832, Note_off_c, 2, 39, 71
4, 105024, Note_on_c, 2, 48, 112
4, 105152, Note_off_c, 2, 48, 71
4, 105216, Note_on_c, 2, 46, 112
4, 105472, Note_off_c, 2, 46, 71
4, 105600, Note_on_c, 2, 48, 112
4, 105856, Note_off_c, 2, 48, 71
4, 105984, Note_on_c, 2, 39, 112
4, 106240, Note_off_c, 2, 39, 71
4, 106752, Note_on_c, 2, 46, 112
4, 107008, Note_off_c, 2, 46, 71
4, 107520, Note_on_c, 2, 44, 112
4, 107776, Note_off_c, 2, 44, 71
4, 108288, Note_on_c, 2, 48, 112
4, 108544, Note_off_c, 2, 48, 71
4, 109056, Note_on_c, 2, 46, 112
4, 109440, Note_on_c, 2, 56, 112
4, 109696, Note_off_c, 2, 56, 71
4, 109824, Note_on_c, 2, 55, 112
4, 110080, Note_off_c, 2, 55, 71
4, 110084, Note_off_c, 2, 46, 71
4, 110208, Note_on_c, 2, 56, 112
4, 110464, Note_off_c, 2, 56, 71
4, 110592, Note_on_c, 2, 46, 112
4, 110592, Note_on_c, 2, 58, 112
4, 110848, Note_off_c, 2, 58, 71
4, 110976, Note_on_c, 2, 56, 112
4, 111620, Note_off_c, 2, 46, 71
4, 111744, Note_off_c, 2, 56, 71
4, 112128, Note_on_c, 2, 39, 112
4, 113156, Note_off_c, 2, 39, 71
4, 113156, End_track
5, 0, Start_track
5, 0, Title_t, "BLOWIN' IN THE WIND"
5, 0, Key_signature, 0, "major"
5, 0, End_track
6, 0, Start_track
6, 0, Title_t, "DONE BY"
6, 0, Key_signature, 0, "major"
6, 0, End_track
7, 0, Start_track
7, 0, Title_t, "ANFLPRO"
7, 0, Key_signature, 0, "major"
7, 0, End_track
8, 0, Start_track
8, 0, Key_signature, 0, "major"
8, 0, End_track
9, 0, Start_track
9, 0, Key_signature, 0, "major"
9, 0, End_track
10, 0, Start_track
10, 0, Key_signature, 0, "major"
10, 0, End_track
11, 0, Start_track
11, 0, Key_signature, 0, "major"
11, 0, End_track
0, 0, End_of_file
