0, 0, Header, 1, 10, 384
1, 0, Start_track
1, 0, Time_signature, 4, 2, 24, 8
1, 0, Tempo, 588230
1, 95232, End_track
2, 0, Start_track
2, 0, Title_t, "A.PIANO 1"
2, 1536, System_exclusive, 5, 126, 127, 9, 1, 247
2, 1928, Program_c, 0, 0
2, 1932, Control_c, 0, 7, 105
2, 1932, Control_c, 0, 10, 57
2, 1932, Control_c, 0, 11, 127
2, 1936, Control_c, 0, 91, 45
2, 1936, Control_c, 0, 93, 0
2, 3448, Note_on_c, 0, 65, 127
2, 3452, Control_c, 0, 1, 0
2, 3452, Pitch_bend_c, 0, 8192
2, 3452, Note_on_c, 0, 58, 97
2, 3452, Note_on_c, 0, 62, 109
2, 3540, Note_off_c, 0, 62, 64
2, 3544, Note_off_c, 0, 58, 64
2, 3576, Note_on_c, 0, 70, 105
2, 3604, Note_off_c, 0, 65, 64
2, 3696, Note_off_c, 0, 70, 64
2, 3704, Note_on_c, 0, 65, 126
2, 3704, Note_on_c, 0, 62, 103
2, 3704, Note_on_c, 0, 58, 103
2, 3776, Note_off_c, 0, 65, 64
2, 3800, Note_off_c, 0, 62, 64
2, 3816, Note_off_c, 0, 58, 64
2, 3832, Note_on_c, 0, 64, 122
2, 3836, Note_on_c, 0, 61, 107
2, 3840, Note_on_c, 0, 58, 98
2, 3940, Note_off_c, 0, 58, 64
2, 3940, Note_off_c, 0, 61, 64
2, 3964, Note_on_c, 0, 70, 121
2, 3980, Note_off_c, 0, 64, 64
2, 4088, Note_off_c, 0, 70, 64
2, 4088, Note_on_c, 0, 61, 114
2, 4088, Note_on_c, 0, 64, 117
2, 4088, Note_on_c, 0, 58, 103
2, 4164, Note_off_c, 0, 64, 64
2, 4172, Note_off_c, 0, 61, 64
2, 4200, Note_off_c, 0, 58, 64
2, 4216, Note_on_c, 0, 58, 101
2, 4220, Note_on_c, 0, 60, 114
2, 4224, Note_on_c, 0, 63, 127
2, 4312, Note_off_c, 0, 60, 64
2, 4312, Note_off_c, 0, 58, 64
2, 4352, Note_on_c, 0, 70, 127
2, 4376, Note_off_c, 0, 63, 64
2, 4472, Note_on_c, 0, 60, 113
2, 4472, Note_on_c, 0, 63, 102
2, 4472, Note_on_c, 0, 58, 103
2, 4508, Note_off_c, 0, 70, 64
2, 4568, Note_off_c, 0, 60, 64
2, 4572, Note_off_c, 0, 58, 64
2, 4584, Note_off_c, 0, 63, 64
2, 4604, Note_on_c, 0, 62, 122
2, 4608, Note_on_c, 0, 58, 110
2, 4688, Note_off_c, 0, 62, 64
2, 4692, Note_off_c, 0, 58, 64
2, 4860, Note_on_c, 0, 41, 109
2, 4860, Note_on_c, 0, 53, 101
2, 4860, Note_on_c, 0, 65, 122
2, 4944, Note_off_c, 0, 65, 64
2, 4944, Note_off_c, 0, 53, 64
2, 4944, Note_off_c, 0, 41, 64
2, 4992, Note_on_c, 0, 53, 98
2, 4992, Note_on_c, 0, 41, 107
2, 4996, Note_on_c, 0, 65, 119
2, 5092, Note_off_c, 0, 41, 64
2, 5096, Note_off_c, 0, 53, 64
2, 5116, Note_off_c, 0, 65, 64
2, 5244, Note_on_c, 0, 65, 109
2, 5244, Note_on_c, 0, 53, 98
2, 5244, Note_on_c, 0, 41, 108
2, 5328, Note_off_c, 0, 53, 64
2, 5328, Note_off_c, 0, 65, 64
2, 5332, Note_off_c, 0, 41, 64
2, 5372, Note_on_c, 0, 53, 97
2, 5372, Note_on_c, 0, 41, 103
2, 5376, Note_on_c, 0, 65, 120
2, 5464, Note_off_c, 0, 41, 64
2, 5468, Note_off_c, 0, 53, 64
2, 5496, Note_off_c, 0, 65, 64
2, 5624, Note_on_c, 0, 65, 104
2, 5624, Note_on_c, 0, 53, 96
2, 5624, Note_on_c, 0, 41, 104
2, 5696, Note_off_c, 0, 53, 64
2, 5704, Note_off_c, 0, 41, 64
2, 5712, Note_off_c, 0, 65, 64
2, 5752, Note_on_c, 0, 53, 95
2, 5752, Note_on_c, 0, 41, 99
2, 5752, Note_on_c, 0, 65, 113
2, 5860, Note_off_c, 0, 41, 64
2, 5860, Note_off_c, 0, 53, 64
2, 5888, Note_off_c, 0, 65, 64
2, 6008, Note_on_c, 0, 65, 109
2, 6008, Note_on_c, 0, 53, 90
2, 6008, Note_on_c, 0, 41, 104
2, 6096, Note_off_c, 0, 65, 64
2, 6112, Note_off_c, 0, 41, 64
2, 6112, Note_off_c, 0, 53, 64
2, 6144, Note_on_c, 0, 62, 85
2, 6144, Note_on_c, 0, 70, 102
2, 6144, Note_on_c, 0, 65, 100
2, 6152, Note_off_c, 0, 65, 64
2, 6160, Note_off_c, 0, 70, 64
2, 6160, Note_off_c, 0, 62, 64
2, 6264, Note_on_c, 0, 70, 70
2, 6264, Note_on_c, 0, 62, 67
2, 6268, Note_on_c, 0, 65, 77
2, 6304, Note_off_c, 0, 65, 64
2, 6304, Note_off_c, 0, 70, 64
2, 6312, Note_off_c, 0, 62, 64
2, 6400, Note_on_c, 0, 62, 78
2, 6400, Note_on_c, 0, 70, 89
2, 6400, Note_on_c, 0, 65, 97
2, 6428, Note_off_c, 0, 65, 64
2, 6428, Note_off_c, 0, 70, 64
2, 6432, Note_off_c, 0, 62, 64
2, 6524, Note_on_c, 0, 70, 101
2, 6524, Note_on_c, 0, 62, 82
2, 6524, Note_on_c, 0, 65, 100
2, 6560, Note_off_c, 0, 65, 64
2, 6564, Note_off_c, 0, 62, 64
2, 6564, Note_off_c, 0, 70, 64
2, 6652, Note_on_c, 0, 70, 79
2, 6652, Note_on_c, 0, 65, 85
2, 6656, Note_on_c, 0, 62, 73
2, 6688, Note_off_c, 0, 62, 64
2, 6688, Note_off_c, 0, 65, 64
2, 6688, Note_off_c, 0, 70, 64
2, 6780, Note_on_c, 0, 70, 84
2, 6780, Note_on_c, 0, 65, 87
2, 6780, Note_on_c, 0, 62, 72
2, 6816, Note_off_c, 0, 65, 64
2, 6820, Note_off_c, 0, 62, 64
2, 6820, Note_off_c, 0, 70, 64
2, 6908, Note_on_c, 0, 70, 98
2, 6908, Note_on_c, 0, 65, 96
2, 6908, Note_on_c, 0, 62, 79
2, 6944, Note_off_c, 0, 65, 64
2, 6948, Note_off_c, 0, 62, 64
2, 6948, Note_off_c, 0, 70, 64
2, 7036, Note_on_c, 0, 70, 88
2, 7036, Note_on_c, 0, 62, 75
2, 7036, Note_on_c, 0, 65, 90
2, 7072, Note_off_c, 0, 65, 64
2, 7076, Note_off_c, 0, 62, 64
2, 7076, Note_off_c, 0, 70, 64
2, 7168, Note_on_c, 0, 70, 101
2, 7168, Note_on_c, 0, 62, 79
2, 7168, Note_on_c, 0, 65, 95
2, 7200, Note_off_c, 0, 65, 64
2, 7204, Note_off_c, 0, 62, 64
2, 7208, Note_off_c, 0, 70, 64
2, 7292, Note_on_c, 0, 70, 95
2, 7296, Note_on_c, 0, 62, 77
2, 7296, Note_on_c, 0, 65, 90
2, 7336, Note_off_c, 0, 65, 64
2, 7336, Note_off_c, 0, 62, 64
2, 7336, Note_off_c, 0, 70, 64
2, 7420, Note_on_c, 0, 70, 96
2, 7420, Note_on_c, 0, 65, 90
2, 7420, Note_on_c, 0, 62, 73
2, 7456, Note_off_c, 0, 65, 64
2, 7464, Note_off_c, 0, 62, 64
2, 7464, Note_off_c, 0, 70, 64
2, 7548, Note_on_c, 0, 65, 87
2, 7548, Note_on_c, 0, 62, 71
2, 7592, Note_off_c, 0, 62, 64
2, 7592, Note_off_c, 0, 65, 64
2, 7672, Note_on_c, 0, 62, 87
2, 7676, Note_on_c, 0, 65, 104
2, 7676, Note_on_c, 0, 68, 91
2, 7712, Note_off_c, 0, 68, 64
2, 7712, Note_off_c, 0, 65, 64
2, 7720, Note_off_c, 0, 62, 64
2, 7800, Note_on_c, 0, 62, 67
2, 7804, Note_on_c, 0, 68, 71
2, 7804, Note_on_c, 0, 65, 75
2, 7832, Note_off_c, 0, 65, 64
2, 7836, Note_off_c, 0, 68, 64
2, 7844, Note_off_c, 0, 62, 64
2, 7928, Note_on_c, 0, 62, 76
2, 7928, Note_on_c, 0, 68, 83
2, 7928, Note_on_c, 0, 65, 87
2, 7960, Note_off_c, 0, 65, 64
2, 7964, Note_off_c, 0, 68, 64
2, 7972, Note_off_c, 0, 62, 64
2, 8056, Note_on_c, 0, 62, 70
2, 8056, Note_on_c, 0, 68, 75
2, 8056, Note_on_c, 0, 65, 79
2, 8092, Note_off_c, 0, 65, 64
2, 8096, Note_off_c, 0, 68, 64
2, 8100, Note_off_c, 0, 62, 64
2, 8184, Note_on_c, 0, 62, 78
2, 8184, Note_on_c, 0, 68, 85
2, 8184, Note_on_c, 0, 65, 91
2, 8216, Note_off_c, 0, 65, 64
2, 8220, Note_off_c, 0, 68, 64
2, 8224, Note_off_c, 0, 62, 64
2, 8312, Note_on_c, 0, 62, 76
2, 8312, Note_on_c, 0, 68, 81
2, 8312, Note_on_c, 0, 65, 88
2, 8344, Note_off_c, 0, 65, 64
2, 8348, Note_off_c, 0, 68, 64
2, 8352, Note_off_c, 0, 62, 64
2, 8440, Note_on_c, 0, 62, 80
2, 8440, Note_on_c, 0, 68, 88
2, 8444, Note_on_c, 0, 65, 95
2, 8476, Note_off_c, 0, 65, 64
2, 8476, Note_off_c, 0, 68, 64
2, 8480, Note_off_c, 0, 62, 64
2, 8572, Note_on_c, 0, 62, 78
2, 8572, Note_on_c, 0, 68, 84
2, 8572, Note_on_c, 0, 65, 94
2, 8604, Note_off_c, 0, 65, 64
2, 8604, Note_off_c, 0, 68, 64
2, 8608, Note_off_c, 0, 62, 64
2, 8700, Note_on_c, 0, 62, 68
2, 8700, Note_on_c, 0, 65, 81
2, 8700, Note_on_c, 0, 68, 74
2, 8732, Note_off_c, 0, 68, 64
2, 8732, Note_off_c, 0, 65, 64
2, 8744, Note_off_c, 0, 62, 64
2, 8828, Note_on_c, 0, 62, 76
2, 8828, Note_on_c, 0, 65, 90
2, 8828, Note_on_c, 0, 68, 80
2, 8864, Note_off_c, 0, 68, 64
2, 8868, Note_off_c, 0, 65, 64
2, 8872, Note_off_c, 0, 62, 64
2, 8952, Note_on_c, 0, 62, 70
2, 8952, Note_on_c, 0, 65, 82
2, 8952, Note_on_c, 0, 68, 75
2, 8992, Note_off_c, 0, 65, 64
2, 8996, Note_off_c, 0, 68, 64
2, 9000, Note_off_c, 0, 62, 64
2, 9080, Note_on_c, 0, 68, 80
2, 9080, Note_on_c, 0, 62, 71
2, 9080, Note_on_c, 0, 65, 83
2, 9112, Note_off_c, 0, 65, 64
2, 9112, Note_off_c, 0, 62, 64
2, 9116, Note_off_c, 0, 68, 64
2, 9208, Note_on_c, 0, 70, 91
2, 9208, Note_on_c, 0, 63, 89
2, 9212, Note_on_c, 0, 67, 79
2, 9228, Note_off_c, 0, 67, 64
2, 9264, Note_off_c, 0, 63, 64
2, 9264, Note_off_c, 0, 70, 64
2, 9336, Note_on_c, 0, 63, 83
2, 9336, Note_on_c, 0, 70, 75
2, 9336, Note_on_c, 0, 67, 91
2, 9376, Note_off_c, 0, 70, 64
2, 9380, Note_off_c, 0, 67, 64
2, 9392, Note_off_c, 0, 63, 64
2, 9464, Note_on_c, 0, 63, 73
2, 9464, Note_on_c, 0, 67, 82
2, 9464, Note_on_c, 0, 70, 61
2, 9504, Note_off_c, 0, 70, 64
2, 9512, Note_off_c, 0, 67, 64
2, 9516, Note_off_c, 0, 63, 64
2, 9592, Note_on_c, 0, 63, 78
2, 9592, Note_on_c, 0, 67, 87
2, 9592, Note_on_c, 0, 70, 70
2, 9628, Note_off_c, 0, 67, 64
2, 9632, Note_off_c, 0, 70, 64
2, 9640, Note_off_c, 0, 63, 64
2, 9720, Note_on_c, 0, 63, 78
2, 9720, Note_on_c, 0, 70, 73
2, 9720, Note_on_c, 0, 67, 85
2, 9752, Note_off_c, 0, 67, 64
2, 9752, Note_off_c, 0, 70, 64
2, 9760, Note_off_c, 0, 63, 64
2, 9848, Note_on_c, 0, 63, 78
2, 9848, Note_on_c, 0, 70, 69
2, 9848, Note_on_c, 0, 67, 87
2, 9880, Note_off_c, 0, 67, 64
2, 9880, Note_off_c, 0, 70, 64
2, 9892, Note_off_c, 0, 63, 64
2, 9976, Note_on_c, 0, 63, 81
2, 9976, Note_on_c, 0, 70, 78
2, 9976, Note_on_c, 0, 67, 91
2, 10012, Note_off_c, 0, 67, 64
2, 10012, Note_off_c, 0, 70, 64
2, 10016, Note_off_c, 0, 63, 64
2, 10104, Note_on_c, 0, 63, 83
2, 10104, Note_on_c, 0, 70, 78
2, 10104, Note_on_c, 0, 67, 90
2, 10136, Note_off_c, 0, 67, 64
2, 10136, Note_off_c, 0, 70, 64
2, 10144, Note_off_c, 0, 63, 64
2, 10232, Note_on_c, 0, 63, 76
2, 10232, Note_on_c, 0, 70, 68
2, 10232, Note_on_c, 0, 67, 87
2, 10264, Note_off_c, 0, 67, 64
2, 10264, Note_off_c, 0, 70, 64
2, 10272, Note_off_c, 0, 63, 64
2, 10360, Note_on_c, 0, 63, 84
2, 10360, Note_on_c, 0, 70, 78
2, 10360, Note_on_c, 0, 67, 96
2, 10392, Note_off_c, 0, 67, 64
2, 10392, Note_off_c, 0, 70, 64
2, 10408, Note_off_c, 0, 63, 64
2, 10488, Note_on_c, 0, 63, 81
2, 10488, Note_on_c, 0, 70, 71
2, 10492, Note_on_c, 0, 67, 90
2, 10520, Note_off_c, 0, 67, 64
2, 10520, Note_off_c, 0, 70, 64
2, 10536, Note_off_c, 0, 63, 64
2, 10620, Note_on_c, 0, 63, 84
2, 10620, Note_on_c, 0, 70, 84
2, 10624, Note_on_c, 0, 67, 96
2, 10648, Note_off_c, 0, 67, 64
2, 10652, Note_off_c, 0, 70, 64
2, 10656, Note_off_c, 0, 63, 64
2, 10748, Note_on_c, 0, 70, 102
2, 10748, Note_on_c, 0, 62, 97
2, 10748, Note_on_c, 0, 65, 98
2, 10780, Note_off_c, 0, 65, 64
2, 10788, Note_off_c, 0, 70, 64
2, 10792, Note_off_c, 0, 62, 64
2, 10872, Note_on_c, 0, 70, 89
2, 10876, Note_on_c, 0, 62, 77
2, 10876, Note_on_c, 0, 65, 85
2, 10908, Note_off_c, 0, 65, 64
2, 10916, Note_off_c, 0, 62, 64
2, 10916, Note_off_c, 0, 70, 64
2, 11000, Note_on_c, 0, 70, 85
2, 11000, Note_on_c, 0, 62, 73
2, 11004, Note_on_c, 0, 65, 81
2, 11032, Note_off_c, 0, 65, 64
2, 11040, Note_off_c, 0, 70, 64
2, 11048, Note_off_c, 0, 62, 64
2, 11128, Note_on_c, 0, 70, 96
2, 11128, Note_on_c, 0, 62, 81
2, 11132, Note_on_c, 0, 65, 85
2, 11164, Note_off_c, 0, 65, 64
2, 11172, Note_off_c, 0, 70, 64
2, 11176, Note_off_c, 0, 62, 64
2, 11256, Note_on_c, 0, 70, 89
2, 11256, Note_on_c, 0, 62, 81
2, 11256, Note_on_c, 0, 65, 87
2, 11288, Note_off_c, 0, 65, 64
2, 11292, Note_off_c, 0, 70, 64
2, 11296, Note_off_c, 0, 62, 64
2, 11384, Note_on_c, 0, 70, 98
2, 11384, Note_on_c, 0, 62, 85
2, 11384, Note_on_c, 0, 65, 95
2, 11416, Note_off_c, 0, 65, 64
2, 11428, Note_off_c, 0, 70, 64
2, 11432, Note_off_c, 0, 62, 64
2, 11512, Note_on_c, 0, 70, 84
2, 11512, Note_on_c, 0, 62, 79
2, 11512, Note_on_c, 0, 65, 90
2, 11548, Note_off_c, 0, 65, 64
2, 11556, Note_off_c, 0, 70, 64
2, 11560, Note_off_c, 0, 62, 64
2, 11640, Note_on_c, 0, 70, 84
2, 11640, Note_on_c, 0, 62, 79
2, 11644, Note_on_c, 0, 65, 87
2, 11676, Note_off_c, 0, 65, 64
2, 11684, Note_off_c, 0, 70, 64
2, 11688, Note_off_c, 0, 62, 64
2, 11768, Note_on_c, 0, 62, 82
2, 11768, Note_on_c, 0, 70, 87
2, 11772, Note_on_c, 0, 65, 91
2, 11804, Note_off_c, 0, 65, 64
2, 11804, Note_off_c, 0, 70, 64
2, 11808, Note_off_c, 0, 62, 64
2, 11900, Note_on_c, 0, 62, 83
2, 11900, Note_on_c, 0, 70, 94
2, 11900, Note_on_c, 0, 65, 93
2, 11928, Note_off_c, 0, 65, 64
2, 11928, Note_off_c, 0, 70, 64
2, 11932, Note_off_c, 0, 62, 64
2, 12028, Note_on_c, 0, 70, 99
2, 12028, Note_on_c, 0, 62, 85
2, 12028, Note_on_c, 0, 65, 97
2, 12056, Note_off_c, 0, 65, 64
2, 12056, Note_off_c, 0, 70, 64
2, 12060, Note_off_c, 0, 62, 64
2, 12156, Note_on_c, 0, 70, 89
2, 12156, Note_on_c, 0, 62, 79
2, 12156, Note_on_c, 0, 65, 90
2, 12188, Note_off_c, 0, 65, 64
2, 12196, Note_off_c, 0, 62, 64
2, 12196, Note_off_c, 0, 70, 64
2, 12284, Note_on_c, 0, 70, 104
2, 12284, Note_on_c, 0, 62, 87
2, 12284, Note_on_c, 0, 65, 100
2, 12320, Note_off_c, 0, 65, 64
2, 12328, Note_off_c, 0, 62, 64
2, 12328, Note_off_c, 0, 70, 64
2, 12412, Note_on_c, 0, 70, 89
2, 12412, Note_on_c, 0, 62, 78
2, 12412, Note_on_c, 0, 65, 90
2, 12448, Note_off_c, 0, 65, 64
2, 12452, Note_off_c, 0, 62, 64
2, 12452, Note_off_c, 0, 70, 64
2, 12536, Note_on_c, 0, 70, 87
2, 12536, Note_on_c, 0, 62, 74
2, 12536, Note_on_c, 0, 65, 85
2, 12568, Note_off_c, 0, 65, 64
2, 12572, Note_off_c, 0, 62, 64
2, 12576, Note_off_c, 0, 70, 64
2, 12664, Note_on_c, 0, 70, 89
2, 12664, Note_on_c, 0, 62, 77
2, 12664, Note_on_c, 0, 65, 90
2, 12700, Note_off_c, 0, 65, 64
2, 12700, Note_off_c, 0, 70, 64
2, 12704, Note_off_c, 0, 62, 64
2, 12792, Note_on_c, 0, 70, 84
2, 12792, Note_on_c, 0, 62, 76
2, 12792, Note_on_c, 0, 65, 83
2, 12824, Note_off_c, 0, 65, 64
2, 12828, Note_off_c, 0, 70, 64
2, 12832, Note_off_c, 0, 62, 64
2, 12920, Note_on_c, 0, 70, 89
2, 12920, Note_on_c, 0, 62, 79
2, 12920, Note_on_c, 0, 65, 89
2, 12952, Note_off_c, 0, 65, 64
2, 12952, Note_off_c, 0, 70, 64
2, 12956, Note_off_c, 0, 62, 64
2, 13048, Note_on_c, 0, 70, 99
2, 13048, Note_on_c, 0, 62, 80
2, 13048, Note_on_c, 0, 65, 90
2, 13080, Note_off_c, 0, 65, 64
2, 13080, Note_off_c, 0, 62, 64
2, 13084, Note_off_c, 0, 70, 64
2, 13176, Note_on_c, 0, 70, 91
2, 13176, Note_on_c, 0, 65, 86
2, 13176, Note_on_c, 0, 62, 70
2, 13208, Note_off_c, 0, 62, 64
2, 13208, Note_off_c, 0, 65, 64
2, 13212, Note_off_c, 0, 70, 64
2, 13304, Note_on_c, 0, 70, 98
2, 13304, Note_on_c, 0, 62, 76
2, 13304, Note_on_c, 0, 65, 87
2, 13336, Note_off_c, 0, 65, 64
2, 13336, Note_off_c, 0, 62, 64
2, 13340, Note_off_c, 0, 70, 64
2, 13432, Note_on_c, 0, 70, 101
2, 13432, Note_on_c, 0, 62, 79
2, 13432, Note_on_c, 0, 65, 91
2, 13464, Note_off_c, 0, 65, 64
2, 13464, Note_off_c, 0, 62, 64
2, 13468, Note_off_c, 0, 70, 64
2, 13560, Note_on_c, 0, 70, 102
2, 13560, Note_on_c, 0, 62, 74
2, 13560, Note_on_c, 0, 65, 89
2, 13592, Note_off_c, 0, 65, 64
2, 13596, Note_off_c, 0, 62, 64
2, 13604, Note_off_c, 0, 70, 64
2, 13688, Note_on_c, 0, 70, 102
2, 13692, Note_on_c, 0, 62, 78
2, 13692, Note_on_c, 0, 65, 90
2, 13724, Note_off_c, 0, 65, 64
2, 13728, Note_off_c, 0, 62, 64
2, 13728, Note_off_c, 0, 70, 64
2, 13820, Note_on_c, 0, 70, 98
2, 13820, Note_on_c, 0, 62, 79
2, 13820, Note_on_c, 0, 65, 91
2, 13856, Note_off_c, 0, 65, 64
2, 13864, Note_off_c, 0, 62, 64
2, 13864, Note_off_c, 0, 70, 64
2, 13948, Note_on_c, 0, 70, 84
2, 13948, Note_on_c, 0, 65, 84
2, 13948, Note_on_c, 0, 62, 75
2, 13980, Note_off_c, 0, 62, 64
2, 13980, Note_off_c, 0, 65, 64
2, 13984, Note_off_c, 0, 70, 64
2, 14076, Note_on_c, 0, 70, 91
2, 14076, Note_on_c, 0, 62, 77
2, 14076, Note_on_c, 0, 65, 88
2, 14108, Note_off_c, 0, 65, 64
2, 14112, Note_off_c, 0, 62, 64
2, 14116, Note_off_c, 0, 70, 64
2, 14204, Note_on_c, 0, 70, 95
2, 14204, Note_on_c, 0, 62, 77
2, 14208, Note_on_c, 0, 65, 91
2, 14244, Note_off_c, 0, 65, 64
2, 14248, Note_off_c, 0, 62, 64
2, 14248, Note_off_c, 0, 70, 64
2, 14328, Note_on_c, 0, 70, 95
2, 14332, Note_on_c, 0, 62, 78
2, 14332, Note_on_c, 0, 65, 90
2, 14364, Note_off_c, 0, 65, 64
2, 14372, Note_off_c, 0, 62, 64
2, 14372, Note_off_c, 0, 70, 64
2, 14460, Note_on_c, 0, 70, 94
2, 14460, Note_on_c, 0, 62, 76
2, 14460, Note_on_c, 0, 65, 90
2, 14492, Note_off_c, 0, 65, 64
2, 14500, Note_off_c, 0, 62, 64
2, 14500, Note_off_c, 0, 70, 64
2, 14584, Note_on_c, 0, 70, 87
2, 14584, Note_on_c, 0, 62, 75
2, 14588, Note_on_c, 0, 65, 88
2, 14628, Note_off_c, 0, 65, 64
2, 14628, Note_off_c, 0, 70, 64
2, 14632, Note_off_c, 0, 62, 64
2, 14712, Note_on_c, 0, 70, 85
2, 14712, Note_on_c, 0, 62, 75
2, 14716, Note_on_c, 0, 65, 87
2, 14748, Note_off_c, 0, 65, 64
2, 14752, Note_off_c, 0, 70, 64
2, 14756, Note_off_c, 0, 62, 64
2, 14840, Note_on_c, 0, 70, 98
2, 14840, Note_on_c, 0, 62, 81
2, 14844, Note_on_c, 0, 65, 94
2, 14872, Note_off_c, 0, 65, 64
2, 14876, Note_off_c, 0, 62, 64
2, 14876, Note_off_c, 0, 70, 64
2, 14968, Note_on_c, 0, 70, 95
2, 14968, Note_on_c, 0, 62, 77
2, 14972, Note_on_c, 0, 65, 87
2, 15016, Note_off_c, 0, 65, 64
2, 15016, Note_off_c, 0, 62, 64
2, 15016, Note_off_c, 0, 70, 64
2, 15096, Note_on_c, 0, 70, 99
2, 15096, Note_on_c, 0, 62, 78
2, 15096, Note_on_c, 0, 65, 85
2, 15128, Note_off_c, 0, 65, 64
2, 15136, Note_off_c, 0, 62, 64
2, 15144, Note_off_c, 0, 70, 64
2, 15224, Note_on_c, 0, 70, 104
2, 15224, Note_on_c, 0, 62, 81
2, 15224, Note_on_c, 0, 65, 96
2, 15260, Note_off_c, 0, 65, 64
2, 15260, Note_off_c, 0, 62, 64
2, 15268, Note_off_c, 0, 70, 64
2, 15352, Note_on_c, 0, 65, 77
2, 15352, Note_on_c, 0, 72, 80
2, 15356, Note_on_c, 0, 69, 78
2, 15400, Note_off_c, 0, 69, 64
2, 15400, Note_off_c, 0, 72, 64
2, 15400, Note_off_c, 0, 65, 64
2, 15484, Note_on_c, 0, 65, 79
2, 15484, Note_on_c, 0, 72, 87
2, 15484, Note_on_c, 0, 69, 85
2, 15516, Note_off_c, 0, 69, 64
2, 15520, Note_off_c, 0, 72, 64
2, 15520, Note_off_c, 0, 65, 64
2, 15608, Note_on_c, 0, 65, 74
2, 15608, Note_on_c, 0, 72, 77
2, 15612, Note_on_c, 0, 69, 80
2, 15648, Note_off_c, 0, 69, 64
2, 15648, Note_off_c, 0, 72, 64
2, 15648, Note_off_c, 0, 65, 64
2, 15740, Note_on_c, 0, 72, 87
2, 15740, Note_on_c, 0, 65, 77
2, 15740, Note_on_c, 0, 69, 85
2, 15780, Note_off_c, 0, 69, 64
2, 15780, Note_off_c, 0, 65, 64
2, 15780, Note_off_c, 0, 72, 64
2, 15864, Note_on_c, 0, 65, 82
2, 15864, Note_on_c, 0, 72, 89
2, 15868, Note_on_c, 0, 69, 89
2, 15904, Note_off_c, 0, 69, 64
2, 15904, Note_off_c, 0, 72, 64
2, 15908, Note_off_c, 0, 65, 64
2, 15992, Note_on_c, 0, 72, 90
2, 15992, Note_on_c, 0, 69, 87
2, 15992, Note_on_c, 0, 65, 79
2, 16036, Note_off_c, 0, 65, 64
2, 16036, Note_off_c, 0, 69, 64
2, 16040, Note_off_c, 0, 72, 64
2, 16120, Note_on_c, 0, 72, 82
2, 16120, Note_on_c, 0, 69, 81
2, 16120, Note_on_c, 0, 65, 74
2, 16164, Note_off_c, 0, 65, 64
2, 16164, Note_off_c, 0, 69, 64
2, 16168, Note_off_c, 0, 72, 64
2, 16248, Note_on_c, 0, 72, 86
2, 16248, Note_on_c, 0, 69, 83
2, 16248, Note_on_c, 0, 65, 77
2, 16284, Note_off_c, 0, 65, 64
2, 16284, Note_off_c, 0, 69, 64
2, 16292, Note_off_c, 0, 72, 64
2, 16376, Note_on_c, 0, 72, 90
2, 16376, Note_on_c, 0, 65, 81
2, 16376, Note_on_c, 0, 69, 86
2, 16416, Note_off_c, 0, 69, 64
2, 16416, Note_off_c, 0, 65, 64
2, 16416, Note_off_c, 0, 72, 64
2, 16504, Note_on_c, 0, 72, 87
2, 16504, Note_on_c, 0, 69, 85
2, 16504, Note_on_c, 0, 65, 77
2, 16548, Note_off_c, 0, 65, 64
2, 16548, Note_off_c, 0, 69, 64
2, 16548, Note_off_c, 0, 72, 64
2, 16632, Note_on_c, 0, 72, 83
2, 16636, Note_on_c, 0, 65, 76
2, 16636, Note_on_c, 0, 69, 83
2, 16668, Note_off_c, 0, 69, 64
2, 16668, Note_off_c, 0, 65, 64
2, 16672, Note_off_c, 0, 72, 64
2, 16760, Note_on_c, 0, 69, 85
2, 16760, Note_on_c, 0, 65, 78
2, 16760, Note_on_c, 0, 72, 83
2, 16796, Note_off_c, 0, 72, 64
2, 16796, Note_off_c, 0, 69, 64
2, 16800, Note_off_c, 0, 65, 64
2, 16888, Note_on_c, 0, 72, 95
2, 16888, Note_on_c, 0, 65, 83
2, 16888, Note_on_c, 0, 69, 92
2, 16928, Note_off_c, 0, 69, 64
2, 16928, Note_off_c, 0, 65, 64
2, 16928, Note_off_c, 0, 72, 64
2, 17016, Note_on_c, 0, 69, 79
2, 17016, Note_on_c, 0, 65, 72
2, 17016, Note_on_c, 0, 72, 74
2, 17052, Note_off_c, 0, 72, 64
2, 17052, Note_off_c, 0, 65, 64
2, 17052, Note_off_c, 0, 69, 64
2, 17144, Note_on_c, 0, 69, 87
2, 17144, Note_on_c, 0, 72, 88
2, 17144, Note_on_c, 0, 65, 78
2, 17176, Note_off_c, 0, 65, 64
2, 17176, Note_off_c, 0, 72, 64
2, 17180, Note_off_c, 0, 69, 64
2, 17272, Note_on_c, 0, 72, 92
2, 17272, Note_on_c, 0, 69, 90
2, 17272, Note_on_c, 0, 65, 82
2, 17308, Note_off_c, 0, 65, 64
2, 17308, Note_off_c, 0, 69, 64
2, 17308, Note_off_c, 0, 72, 64
2, 17400, Note_on_c, 0, 69, 83
2, 17400, Note_on_c, 0, 72, 81
2, 17400, Note_on_c, 0, 65, 75
2, 17436, Note_off_c, 0, 65, 64
2, 17436, Note_off_c, 0, 72, 64
2, 17436, Note_off_c, 0, 69, 64
2, 17528, Note_on_c, 0, 69, 88
2, 17528, Note_on_c, 0, 65, 81
2, 17528, Note_on_c, 0, 72, 89
2, 17568, Note_off_c, 0, 65, 64
2, 17568, Note_off_c, 0, 69, 64
2, 17572, Note_off_c, 0, 72, 64
2, 17656, Note_on_c, 0, 72, 95
2, 17656, Note_on_c, 0, 65, 83
2, 17656, Note_on_c, 0, 69, 90
2, 17692, Note_off_c, 0, 69, 64
2, 17700, Note_off_c, 0, 65, 64
2, 17700, Note_off_c, 0, 72, 64
2, 17784, Note_on_c, 0, 65, 82
2, 17784, Note_on_c, 0, 72, 85
2, 17784, Note_on_c, 0, 69, 87
2, 17816, Note_off_c, 0, 69, 64
2, 17816, Note_off_c, 0, 72, 64
2, 17820, Note_off_c, 0, 65, 64
2, 17912, Note_on_c, 0, 72, 90
2, 17912, Note_on_c, 0, 65, 82
2, 17912, Note_on_c, 0, 69, 89
2, 17948, Note_off_c, 0, 69, 64
2, 17948, Note_off_c, 0, 65, 64
2, 17948, Note_off_c, 0, 72, 64
2, 18040, Note_on_c, 0, 72, 97
2, 18040, Note_on_c, 0, 65, 84
2, 18044, Note_on_c, 0, 69, 91
2, 18080, Note_off_c, 0, 69, 64
2, 18080, Note_off_c, 0, 65, 64
2, 18080, Note_off_c, 0, 72, 64
2, 18168, Note_on_c, 0, 72, 98
2, 18168, Note_on_c, 0, 69, 95
2, 18168, Note_on_c, 0, 65, 87
2, 18204, Note_off_c, 0, 65, 64
2, 18204, Note_off_c, 0, 69, 64
2, 18212, Note_off_c, 0, 72, 64
2, 18296, Note_on_c, 0, 72, 101
2, 18296, Note_on_c, 0, 65, 90
2, 18300, Note_on_c, 0, 69, 97
2, 18336, Note_off_c, 0, 69, 64
2, 18336, Note_off_c, 0, 65, 64
2, 18336, Note_off_c, 0, 72, 64
2, 18436, Note_on_c, 0, 62, 96
2, 18436, Note_on_c, 0, 70, 98
2, 18436, Note_on_c, 0, 65, 97
2, 18472, Note_off_c, 0, 65, 64
2, 18472, Note_off_c, 0, 70, 64
2, 18472, Note_off_c, 0, 62, 64
2, 18556, Note_on_c, 0, 65, 87
2, 18556, Note_on_c, 0, 62, 76
2, 18556, Note_on_c, 0, 70, 82
2, 18600, Note_off_c, 0, 70, 64
2, 18600, Note_off_c, 0, 62, 64
2, 18600, Note_off_c, 0, 65, 64
2, 18684, Note_on_c, 0, 65, 87
2, 18684, Note_on_c, 0, 70, 85
2, 18684, Note_on_c, 0, 62, 78
2, 18724, Note_off_c, 0, 70, 64
2, 18728, Note_off_c, 0, 62, 64
2, 18728, Note_off_c, 0, 65, 64
2, 18808, Note_on_c, 0, 65, 85
2, 18812, Note_on_c, 0, 70, 85
2, 18812, Note_on_c, 0, 62, 79
2, 18852, Note_off_c, 0, 62, 64
2, 18852, Note_off_c, 0, 70, 64
2, 18852, Note_off_c, 0, 65, 64
2, 18936, Note_on_c, 0, 65, 85
2, 18936, Note_on_c, 0, 62, 77
2, 18936, Note_on_c, 0, 70, 87
2, 18972, Note_off_c, 0, 65, 64
2, 18976, Note_off_c, 0, 70, 64
2, 18976, Note_off_c, 0, 62, 64
2, 19064, Note_on_c, 0, 70, 85
2, 19064, Note_on_c, 0, 62, 76
2, 19064, Note_on_c, 0, 65, 84
2, 19104, Note_off_c, 0, 65, 64
2, 19108, Note_off_c, 0, 62, 64
2, 19108, Note_off_c, 0, 70, 64
2, 19192, Note_on_c, 0, 70, 89
2, 19192, Note_on_c, 0, 62, 79
2, 19192, Note_on_c, 0, 65, 85
2, 19228, Note_off_c, 0, 65, 64
2, 19232, Note_off_c, 0, 62, 64
2, 19236, Note_off_c, 0, 70, 64
2, 19320, Note_on_c, 0, 62, 78
2, 19320, Note_on_c, 0, 70, 87
2, 19320, Note_on_c, 0, 65, 79
2, 19352, Note_off_c, 0, 65, 64
2, 19360, Note_off_c, 0, 70, 64
2, 19364, Note_off_c, 0, 62, 64
2, 19448, Note_on_c, 0, 62, 82
2, 19448, Note_on_c, 0, 70, 94
2, 19448, Note_on_c, 0, 65, 84
2, 19480, Note_off_c, 0, 65, 64
2, 19488, Note_off_c, 0, 70, 64
2, 19492, Note_off_c, 0, 62, 64
2, 19576, Note_on_c, 0, 62, 79
2, 19576, Note_on_c, 0, 70, 92
2, 19576, Note_on_c, 0, 65, 84
2, 19612, Note_off_c, 0, 65, 64
2, 19624, Note_off_c, 0, 70, 64
2, 19624, Note_off_c, 0, 62, 64
2, 19704, Note_on_c, 0, 70, 80
2, 19704, Note_on_c, 0, 62, 70
2, 19708, Note_on_c, 0, 65, 79
2, 19744, Note_off_c, 0, 65, 64
2, 19748, Note_off_c, 0, 70, 64
2, 19752, Note_off_c, 0, 62, 64
2, 19836, Note_on_c, 0, 70, 98
2, 19836, Note_on_c, 0, 62, 87
2, 19836, Note_on_c, 0, 65, 91
2, 19872, Note_off_c, 0, 65, 64
2, 19872, Note_off_c, 0, 62, 64
2, 19872, Note_off_c, 0, 70, 64
2, 19964, Note_on_c, 0, 65, 92
2, 19964, Note_on_c, 0, 62, 84
2, 19964, Note_on_c, 0, 68, 88
2, 20000, Note_off_c, 0, 68, 64
2, 20004, Note_off_c, 0, 62, 64
2, 20004, Note_off_c, 0, 65, 64
2, 20088, Note_on_c, 0, 68, 84
2, 20092, Note_on_c, 0, 62, 79
2, 20092, Note_on_c, 0, 65, 85
2, 20124, Note_off_c, 0, 65, 64
2, 20132, Note_off_c, 0, 62, 64
2, 20132, Note_off_c, 0, 68, 64
2, 20216, Note_on_c, 0, 62, 79
2, 20216, Note_on_c, 0, 68, 82
2, 20216, Note_on_c, 0, 65, 85
2, 20248, Note_off_c, 0, 65, 64
2, 20256, Note_off_c, 0, 68, 64
2, 20260, Note_off_c, 0, 62, 64
2, 20344, Note_on_c, 0, 62, 85
2, 20344, Note_on_c, 0, 68, 88
2, 20348, Note_on_c, 0, 65, 89
2, 20376, Note_off_c, 0, 65, 64
2, 20380, Note_off_c, 0, 68, 64
2, 20380, Note_off_c, 0, 62, 64
2, 20472, Note_on_c, 0, 62, 84
2, 20472, Note_on_c, 0, 68, 89
2, 20476, Note_on_c, 0, 65, 88
2, 20504, Note_off_c, 0, 65, 64
2, 20504, Note_off_c, 0, 68, 64
2, 20508, Note_off_c, 0, 62, 64
2, 20600, Note_on_c, 0, 62, 84
2, 20600, Note_on_c, 0, 68, 89
2, 20600, Note_on_c, 0, 65, 90
2, 20632, Note_off_c, 0, 65, 64
2, 20632, Note_off_c, 0, 68, 64
2, 20636, Note_off_c, 0, 62, 64
2, 20732, Note_on_c, 0, 68, 89
2, 20732, Note_on_c, 0, 62, 83
2, 20732, Note_on_c, 0, 65, 90
2, 20764, Note_off_c, 0, 65, 64
2, 20764, Note_off_c, 0, 68, 64
2, 20768, Note_off_c, 0, 62, 64
2, 20860, Note_on_c, 0, 68, 84
2, 20860, Note_on_c, 0, 62, 81
2, 20860, Note_on_c, 0, 65, 87
2, 20892, Note_off_c, 0, 65, 64
2, 20900, Note_off_c, 0, 62, 64
2, 20900, Note_off_c, 0, 68, 64
2, 20992, Note_on_c, 0, 68, 92
2, 20992, Note_on_c, 0, 62, 87
2, 20992, Note_on_c, 0, 65, 93
2, 21024, Note_off_c, 0, 65, 64
2, 21024, Note_off_c, 0, 62, 64
2, 21024, Note_off_c, 0, 68, 64
2, 21120, Note_on_c, 0, 62, 84
2, 21120, Note_on_c, 0, 68, 89
2, 21120, Note_on_c, 0, 65, 90
2, 21156, Note_off_c, 0, 65, 64
2, 21156, Note_off_c, 0, 68, 64
2, 21160, Note_off_c, 0, 62, 64
2, 21248, Note_on_c, 0, 62, 90
2, 21248, Note_on_c, 0, 68, 94
2, 21252, Note_on_c, 0, 65, 95
2, 21284, Note_off_c, 0, 65, 64
2, 21284, Note_off_c, 0, 68, 64
2, 21288, Note_off_c, 0, 62, 64
2, 21372, Note_on_c, 0, 68, 96
2, 21376, Note_on_c, 0, 62, 79
2, 21376, Note_on_c, 0, 65, 87
2, 21400, Note_off_c, 0, 65, 64
2, 21400, Note_off_c, 0, 62, 64
2, 21412, Note_off_c, 0, 68, 64
2, 21504, Note_on_c, 0, 63, 92
2, 21508, Note_on_c, 0, 70, 90
2, 21508, Note_on_c, 0, 67, 96
2, 21532, Note_off_c, 0, 67, 64
2, 21532, Note_off_c, 0, 70, 64
2, 21540, Note_off_c, 0, 63, 64
2, 21628, Note_on_c, 0, 70, 85
2, 21632, Note_on_c, 0, 67, 90
2, 21632, Note_on_c, 0, 63, 67
2, 21664, Note_off_c, 0, 67, 64
2, 21668, Note_off_c, 0, 70, 64
2, 21672, Note_off_c, 0, 63, 64
2, 21756, Note_on_c, 0, 63, 89
2, 21756, Note_on_c, 0, 70, 90
2, 21756, Note_on_c, 0, 67, 102
2, 21788, Note_off_c, 0, 67, 64
2, 21788, Note_off_c, 0, 70, 64
2, 21800, Note_off_c, 0, 63, 64
2, 21880, Note_on_c, 0, 63, 77
2, 21880, Note_on_c, 0, 70, 82
2, 21880, Note_on_c, 0, 67, 90
2, 21912, Note_off_c, 0, 67, 64
2, 21916, Note_off_c, 0, 70, 64
2, 21928, Note_off_c, 0, 63, 64
2, 22008, Note_on_c, 0, 63, 81
2, 22008, Note_on_c, 0, 70, 88
2, 22008, Note_on_c, 0, 67, 93
2, 22036, Note_off_c, 0, 67, 64
2, 22044, Note_off_c, 0, 70, 64
2, 22052, Note_off_c, 0, 63, 64
2, 22136, Note_on_c, 0, 63, 77
2, 22136, Note_on_c, 0, 70, 78
2, 22136, Note_on_c, 0, 67, 89
2, 22172, Note_off_c, 0, 67, 64
2, 22172, Note_off_c, 0, 70, 64
2, 22184, Note_off_c, 0, 63, 64
2, 22264, Note_on_c, 0, 63, 79
2, 22264, Note_on_c, 0, 70, 75
2, 22264, Note_on_c, 0, 67, 90
2, 22300, Note_off_c, 0, 67, 64
2, 22300, Note_off_c, 0, 70, 64
2, 22312, Note_off_c, 0, 63, 64
2, 22392, Note_on_c, 0, 70, 78
2, 22392, Note_on_c, 0, 67, 90
2, 22392, Note_on_c, 0, 63, 70
2, 22424, Note_off_c, 0, 63, 64
2, 22424, Note_off_c, 0, 67, 64
2, 22424, Note_off_c, 0, 70, 64
2, 22520, Note_on_c, 0, 70, 89
2, 22520, Note_on_c, 0, 63, 79
2, 22520, Note_on_c, 0, 67, 97
2, 22552, Note_off_c, 0, 67, 64
2, 22556, Note_off_c, 0, 63, 64
2, 22556, Note_off_c, 0, 70, 64
2, 22648, Note_on_c, 0, 63, 78
2, 22648, Note_on_c, 0, 70, 85
2, 22648, Note_on_c, 0, 67, 93
2, 22684, Note_off_c, 0, 67, 64
2, 22688, Note_off_c, 0, 70, 64
2, 22692, Note_off_c, 0, 63, 64
2, 22776, Note_on_c, 0, 63, 84
2, 22776, Note_on_c, 0, 70, 78
2, 22776, Note_on_c, 0, 67, 90
2, 22808, Note_off_c, 0, 67, 64
2, 22808, Note_off_c, 0, 70, 64
2, 22824, Note_off_c, 0, 63, 64
2, 22904, Note_on_c, 0, 63, 95
2, 22904, Note_on_c, 0, 67, 107
2, 22904, Note_on_c, 0, 70, 91
2, 22940, Note_off_c, 0, 70, 64
2, 22940, Note_off_c, 0, 67, 64
2, 22944, Note_off_c, 0, 63, 64
2, 23032, Note_on_c, 0, 62, 90
2, 23032, Note_on_c, 0, 70, 95
2, 23032, Note_on_c, 0, 65, 96
2, 23060, Note_off_c, 0, 65, 64
2, 23072, Note_off_c, 0, 70, 64
2, 23080, Note_off_c, 0, 62, 64
2, 23164, Note_on_c, 0, 62, 79
2, 23164, Note_on_c, 0, 65, 89
2, 23164, Note_on_c, 0, 70, 84
2, 23204, Note_off_c, 0, 70, 64
2, 23204, Note_off_c, 0, 65, 64
2, 23208, Note_off_c, 0, 62, 64
2, 23288, Note_on_c, 0, 62, 77
2, 23288, Note_on_c, 0, 70, 84
2, 23288, Note_on_c, 0, 65, 85
2, 23332, Note_off_c, 0, 65, 64
2, 23332, Note_off_c, 0, 70, 64
2, 23336, Note_off_c, 0, 62, 64
2, 23416, Note_on_c, 0, 62, 85
2, 23420, Note_on_c, 0, 65, 93
2, 23420, Note_on_c, 0, 70, 88
2, 23460, Note_off_c, 0, 70, 64
2, 23460, Note_off_c, 0, 65, 64
2, 23464, Note_off_c, 0, 62, 64
2, 23544, Note_on_c, 0, 62, 79
2, 23544, Note_on_c, 0, 70, 88
2, 23544, Note_on_c, 0, 65, 91
2, 23584, Note_off_c, 0, 65, 64
2, 23584, Note_off_c, 0, 70, 64
2, 23588, Note_off_c, 0, 62, 64
2, 23672, Note_on_c, 0, 62, 82
2, 23672, Note_on_c, 0, 65, 90
2, 23672, Note_on_c, 0, 70, 85
2, 23712, Note_off_c, 0, 70, 64
2, 23712, Note_off_c, 0, 65, 64
2, 23716, Note_off_c, 0, 62, 64
2, 23800, Note_on_c, 0, 62, 82
2, 23800, Note_on_c, 0, 70, 87
2, 23800, Note_on_c, 0, 65, 90
2, 23836, Note_off_c, 0, 65, 64
2, 23836, Note_off_c, 0, 70, 64
2, 23840, Note_off_c, 0, 62, 64
2, 23928, Note_on_c, 0, 70, 80
2, 23928, Note_on_c, 0, 65, 83
2, 23928, Note_on_c, 0, 62, 73
2, 23964, Note_off_c, 0, 65, 64
2, 23968, Note_off_c, 0, 62, 64
2, 23972, Note_off_c, 0, 70, 64
2, 24056, Note_on_c, 0, 62, 80
2, 24056, Note_on_c, 0, 70, 88
2, 24056, Note_on_c, 0, 65, 90
2, 24092, Note_off_c, 0, 65, 64
2, 24092, Note_off_c, 0, 70, 64
2, 24092, Note_off_c, 0, 62, 64
2, 24188, Note_on_c, 0, 70, 89
2, 24188, Note_on_c, 0, 65, 90
2, 24188, Note_on_c, 0, 62, 82
2, 24220, Note_off_c, 0, 62, 64
2, 24224, Note_off_c, 0, 65, 64
2, 24228, Note_off_c, 0, 70, 64
2, 24316, Note_on_c, 0, 70, 89
2, 24316, Note_on_c, 0, 65, 87
2, 24316, Note_on_c, 0, 62, 81
2, 24348, Note_off_c, 0, 62, 64
2, 24348, Note_off_c, 0, 65, 64
2, 24356, Note_off_c, 0, 70, 64
2, 24440, Note_on_c, 0, 70, 88
2, 24440, Note_on_c, 0, 65, 87
2, 24440, Note_on_c, 0, 62, 79
2, 24476, Note_off_c, 0, 65, 64
2, 24480, Note_off_c, 0, 62, 64
2, 24480, Note_off_c, 0, 70, 64
2, 24568, Note_on_c, 0, 62, 79
2, 24568, Note_on_c, 0, 70, 85
2, 24568, Note_on_c, 0, 65, 87
2, 24608, Note_off_c, 0, 65, 64
2, 24612, Note_off_c, 0, 70, 64
2, 24616, Note_off_c, 0, 62, 64
2, 24696, Note_on_c, 0, 62, 67
2, 24696, Note_on_c, 0, 70, 64
2, 24696, Note_on_c, 0, 65, 70
2, 24732, Note_off_c, 0, 65, 64
2, 24740, Note_off_c, 0, 70, 64
2, 24740, Note_off_c, 0, 62, 64
2, 24828, Note_on_c, 0, 70, 90
2, 24828, Note_on_c, 0, 65, 90
2, 24828, Note_on_c, 0, 62, 80
2, 24864, Note_off_c, 0, 62, 64
2, 24868, Note_off_c, 0, 65, 64
2, 24868, Note_off_c, 0, 70, 64
2, 24960, Note_on_c, 0, 70, 85
2, 24960, Note_on_c, 0, 65, 87
2, 24960, Note_on_c, 0, 62, 77
2, 25000, Note_off_c, 0, 62, 64
2, 25000, Note_off_c, 0, 65, 64
2, 25000, Note_off_c, 0, 70, 64
2, 25080, Note_on_c, 0, 70, 78
2, 25084, Note_on_c, 0, 65, 81
2, 25084, Note_on_c, 0, 62, 71
2, 25128, Note_off_c, 0, 62, 64
2, 25128, Note_off_c, 0, 65, 64
2, 25128, Note_off_c, 0, 70, 64
2, 25212, Note_on_c, 0, 70, 76
2, 25212, Note_on_c, 0, 62, 70
2, 25212, Note_on_c, 0, 65, 79
2, 25252, Note_off_c, 0, 65, 64
2, 25252, Note_off_c, 0, 70, 64
2, 25256, Note_off_c, 0, 62, 64
2, 25336, Note_on_c, 0, 70, 84
2, 25336, Note_on_c, 0, 62, 76
2, 25336, Note_on_c, 0, 65, 86
2, 25380, Note_off_c, 0, 65, 64
2, 25384, Note_off_c, 0, 62, 64
2, 25384, Note_off_c, 0, 70, 64
2, 25464, Note_on_c, 0, 70, 83
2, 25464, Note_on_c, 0, 62, 72
2, 25464, Note_on_c, 0, 65, 84
2, 25504, Note_off_c, 0, 65, 64
2, 25508, Note_off_c, 0, 62, 64
2, 25508, Note_off_c, 0, 70, 64
2, 25592, Note_on_c, 0, 70, 84
2, 25592, Note_on_c, 0, 62, 76
2, 25592, Note_on_c, 0, 65, 85
2, 25632, Note_off_c, 0, 65, 64
2, 25636, Note_off_c, 0, 62, 64
2, 25636, Note_off_c, 0, 70, 64
2, 25724, Note_on_c, 0, 70, 90
2, 25724, Note_on_c, 0, 65, 90
2, 25724, Note_on_c, 0, 62, 83
2, 25764, Note_off_c, 0, 62, 64
2, 25764, Note_off_c, 0, 65, 64
2, 25764, Note_off_c, 0, 70, 64
2, 25848, Note_on_c, 0, 62, 79
2, 25848, Note_on_c, 0, 70, 89
2, 25848, Note_on_c, 0, 65, 89
2, 25892, Note_off_c, 0, 65, 64
2, 25892, Note_off_c, 0, 70, 64
2, 25900, Note_off_c, 0, 62, 64
2, 25976, Note_on_c, 0, 65, 82
2, 25976, Note_on_c, 0, 70, 84
2, 25976, Note_on_c, 0, 62, 80
2, 26016, Note_off_c, 0, 62, 64
2, 26020, Note_off_c, 0, 70, 64
2, 26020, Note_off_c, 0, 65, 64
2, 26108, Note_on_c, 0, 65, 93
2, 26108, Note_on_c, 0, 72, 108
2, 26108, Note_on_c, 0, 69, 97
2, 26144, Note_off_c, 0, 69, 64
2, 26148, Note_off_c, 0, 65, 64
2, 26152, Note_off_c, 0, 72, 64
2, 26236, Note_on_c, 0, 72, 92
2, 26236, Note_on_c, 0, 65, 85
2, 26240, Note_on_c, 0, 69, 90
2, 26276, Note_off_c, 0, 69, 64
2, 26280, Note_off_c, 0, 65, 64
2, 26280, Note_off_c, 0, 72, 64
2, 26364, Note_on_c, 0, 72, 82
2, 26364, Note_on_c, 0, 65, 76
2, 26364, Note_on_c, 0, 69, 82
2, 26404, Note_off_c, 0, 69, 64
2, 26404, Note_off_c, 0, 65, 64
2, 26404, Note_off_c, 0, 72, 64
2, 26488, Note_on_c, 0, 65, 77
2, 26488, Note_on_c, 0, 69, 82
2, 26488, Note_on_c, 0, 72, 81
2, 26532, Note_off_c, 0, 72, 64
2, 26536, Note_off_c, 0, 69, 64
2, 26536, Note_off_c, 0, 65, 64
2, 26616, Note_on_c, 0, 65, 82
2, 26616, Note_on_c, 0, 69, 88
2, 26616, Note_on_c, 0, 72, 86
2, 26656, Note_off_c, 0, 72, 64
2, 26656, Note_off_c, 0, 69, 64
2, 26664, Note_off_c, 0, 65, 64
2, 26744, Note_on_c, 0, 65, 77
2, 26744, Note_on_c, 0, 72, 85
2, 26744, Note_on_c, 0, 69, 87
2, 26788, Note_off_c, 0, 69, 64
2, 26788, Note_off_c, 0, 72, 64
2, 26792, Note_off_c, 0, 65, 64
2, 26872, Note_on_c, 0, 65, 90
2, 26872, Note_on_c, 0, 72, 96
2, 26876, Note_on_c, 0, 69, 95
2, 26908, Note_off_c, 0, 69, 64
2, 26912, Note_off_c, 0, 72, 64
2, 26912, Note_off_c, 0, 65, 64
2, 27000, Note_on_c, 0, 65, 83
2, 27000, Note_on_c, 0, 72, 92
2, 27000, Note_on_c, 0, 69, 90
2, 27040, Note_off_c, 0, 69, 64
2, 27040, Note_off_c, 0, 72, 64
2, 27048, Note_off_c, 0, 65, 64
2, 27128, Note_on_c, 0, 65, 87
2, 27128, Note_on_c, 0, 72, 97
2, 27128, Note_on_c, 0, 69, 94
2, 27164, Note_off_c, 0, 69, 64
2, 27172, Note_off_c, 0, 72, 64
2, 27172, Note_off_c, 0, 65, 64
2, 27256, Note_on_c, 0, 65, 87
2, 27256, Note_on_c, 0, 72, 96
2, 27256, Note_on_c, 0, 69, 90
2, 27296, Note_off_c, 0, 69, 64
2, 27300, Note_off_c, 0, 72, 64
2, 27304, Note_off_c, 0, 65, 64
2, 27384, Note_on_c, 0, 65, 86
2, 27384, Note_on_c, 0, 72, 96
2, 27384, Note_on_c, 0, 69, 90
2, 27424, Note_off_c, 0, 69, 64
2, 27424, Note_off_c, 0, 72, 64
2, 27428, Note_off_c, 0, 65, 64
2, 27512, Note_on_c, 0, 65, 90
2, 27512, Note_on_c, 0, 72, 98
2, 27512, Note_on_c, 0, 69, 97
2, 27544, Note_off_c, 0, 69, 64
2, 27544, Note_off_c, 0, 72, 64
2, 27556, Note_off_c, 0, 65, 64
2, 27644, Note_on_c, 0, 62, 91
2, 27644, Note_on_c, 0, 70, 101
2, 27644, Note_on_c, 0, 65, 100
2, 27680, Note_off_c, 0, 65, 64
2, 27684, Note_off_c, 0, 70, 64
2, 27688, Note_off_c, 0, 62, 64
2, 27772, Note_on_c, 0, 70, 85
2, 27772, Note_on_c, 0, 62, 78
2, 27772, Note_on_c, 0, 65, 85
2, 27812, Note_off_c, 0, 65, 64
2, 27816, Note_off_c, 0, 62, 64
2, 27816, Note_off_c, 0, 70, 64
2, 27900, Note_on_c, 0, 62, 77
2, 27900, Note_on_c, 0, 70, 84
2, 27900, Note_on_c, 0, 65, 87
2, 27936, Note_off_c, 0, 65, 64
2, 27936, Note_off_c, 0, 70, 64
2, 27940, Note_off_c, 0, 62, 64
2, 28028, Note_on_c, 0, 70, 87
2, 28028, Note_on_c, 0, 62, 80
2, 28028, Note_on_c, 0, 65, 89
2, 28064, Note_off_c, 0, 65, 64
2, 28068, Note_off_c, 0, 62, 64
2, 28068, Note_off_c, 0, 70, 64
2, 28152, Note_on_c, 0, 62, 77
2, 28152, Note_on_c, 0, 70, 84
2, 28152, Note_on_c, 0, 65, 87
2, 28192, Note_off_c, 0, 65, 64
2, 28196, Note_off_c, 0, 70, 64
2, 28200, Note_off_c, 0, 62, 64
2, 28280, Note_on_c, 0, 70, 82
2, 28280, Note_on_c, 0, 62, 74
2, 28280, Note_on_c, 0, 65, 85
2, 28320, Note_off_c, 0, 65, 64
2, 28320, Note_off_c, 0, 70, 64
2, 28324, Note_off_c, 0, 62, 64
2, 28408, Note_on_c, 0, 70, 87
2, 28408, Note_on_c, 0, 62, 74
2, 28408, Note_on_c, 0, 65, 85
2, 28440, Note_off_c, 0, 65, 64
2, 28448, Note_off_c, 0, 62, 64
2, 28448, Note_off_c, 0, 70, 64
2, 28536, Note_on_c, 0, 70, 87
2, 28536, Note_on_c, 0, 62, 81
2, 28536, Note_on_c, 0, 65, 85
2, 28568, Note_off_c, 0, 65, 64
2, 28572, Note_off_c, 0, 62, 64
2, 28576, Note_off_c, 0, 70, 64
2, 28664, Note_on_c, 0, 70, 84
2, 28664, Note_on_c, 0, 65, 83
2, 28664, Note_on_c, 0, 62, 74
2, 28704, Note_off_c, 0, 65, 64
2, 28704, Note_off_c, 0, 70, 64
2, 28708, Note_off_c, 0, 62, 64
2, 28792, Note_on_c, 0, 70, 89
2, 28792, Note_on_c, 0, 62, 80
2, 28792, Note_on_c, 0, 65, 87
2, 28828, Note_off_c, 0, 65, 64
2, 28832, Note_off_c, 0, 62, 64
2, 28836, Note_off_c, 0, 70, 64
2, 28920, Note_on_c, 0, 70, 88
2, 28920, Note_on_c, 0, 62, 79
2, 28920, Note_on_c, 0, 65, 85
2, 28952, Note_off_c, 0, 65, 64
2, 28956, Note_off_c, 0, 70, 64
2, 28960, Note_off_c, 0, 62, 64
2, 29048, Note_on_c, 0, 70, 94
2, 29048, Note_on_c, 0, 62, 84
2, 29048, Note_on_c, 0, 65, 89
2, 29080, Note_off_c, 0, 65, 64
2, 29084, Note_off_c, 0, 70, 64
2, 29088, Note_off_c, 0, 62, 64
2, 29176, Note_on_c, 0, 70, 95
2, 29176, Note_on_c, 0, 62, 87
2, 29176, Note_on_c, 0, 65, 94
2, 29208, Note_off_c, 0, 65, 64
2, 29216, Note_off_c, 0, 62, 64
2, 29216, Note_off_c, 0, 70, 64
2, 29304, Note_on_c, 0, 70, 91
2, 29304, Note_on_c, 0, 62, 82
2, 29304, Note_on_c, 0, 65, 88
2, 29336, Note_off_c, 0, 65, 64
2, 29336, Note_off_c, 0, 70, 64
2, 29340, Note_off_c, 0, 62, 64
2, 29432, Note_on_c, 0, 70, 89
2, 29432, Note_on_c, 0, 62, 81
2, 29432, Note_on_c, 0, 65, 90
2, 29464, Note_off_c, 0, 65, 64
2, 29464, Note_off_c, 0, 62, 64
2, 29464, Note_off_c, 0, 70, 64
2, 29560, Note_on_c, 0, 62, 81
2, 29560, Note_on_c, 0, 70, 88
2, 29560, Note_on_c, 0, 65, 88
2, 29592, Note_off_c, 0, 65, 64
2, 29592, Note_off_c, 0, 70, 64
2, 29592, Note_off_c, 0, 62, 64
2, 29688, Note_on_c, 0, 62, 79
2, 29688, Note_on_c, 0, 70, 84
2, 29688, Note_on_c, 0, 65, 90
2, 29716, Note_off_c, 0, 70, 64
2, 29720, Note_off_c, 0, 65, 64
2, 29724, Note_off_c, 0, 62, 64
2, 29816, Note_on_c, 0, 70, 89
2, 29816, Note_on_c, 0, 62, 82
2, 29816, Note_on_c, 0, 65, 91
2, 29844, Note_off_c, 0, 65, 64
2, 29848, Note_off_c, 0, 62, 64
2, 29848, Note_off_c, 0, 70, 64
2, 29944, Note_on_c, 0, 62, 82
2, 29944, Note_on_c, 0, 70, 92
2, 29944, Note_on_c, 0, 65, 90
2, 29976, Note_off_c, 0, 65, 64
2, 29976, Note_off_c, 0, 70, 64
2, 29976, Note_off_c, 0, 62, 64
2, 30072, Note_on_c, 0, 70, 84
2, 30072, Note_on_c, 0, 62, 78
2, 30072, Note_on_c, 0, 65, 90
2, 30104, Note_off_c, 0, 65, 64
2, 30104, Note_off_c, 0, 70, 64
2, 30108, Note_off_c, 0, 62, 64
2, 30200, Note_on_c, 0, 62, 79
2, 30200, Note_on_c, 0, 70, 87
2, 30200, Note_on_c, 0, 65, 87
2, 30228, Note_off_c, 0, 65, 64
2, 30228, Note_off_c, 0, 70, 64
2, 30232, Note_off_c, 0, 62, 64
2, 30328, Note_on_c, 0, 70, 91
2, 30328, Note_on_c, 0, 62, 81
2, 30328, Note_on_c, 0, 65, 90
2, 30360, Note_off_c, 0, 65, 64
2, 30360, Note_off_c, 0, 70, 64
2, 30364, Note_off_c, 0, 62, 64
2, 30456, Note_on_c, 0, 62, 86
2, 30456, Note_on_c, 0, 70, 94
2, 30456, Note_on_c, 0, 65, 94
2, 30488, Note_off_c, 0, 65, 64
2, 30488, Note_off_c, 0, 70, 64
2, 30496, Note_off_c, 0, 62, 64
2, 30584, Note_on_c, 0, 70, 96
2, 30584, Note_on_c, 0, 62, 86
2, 30584, Note_on_c, 0, 65, 93
2, 30616, Note_off_c, 0, 65, 64
2, 30616, Note_off_c, 0, 62, 64
2, 30616, Note_off_c, 0, 70, 64
2, 30712, Note_on_c, 0, 70, 101
2, 30712, Note_on_c, 0, 63, 95
2, 30716, Note_on_c, 0, 67, 87
2, 30736, Note_off_c, 0, 67, 64
2, 30744, Note_off_c, 0, 70, 64
2, 30748, Note_off_c, 0, 63, 64
2, 30840, Note_on_c, 0, 63, 73
2, 30844, Note_on_c, 0, 67, 81
2, 30844, Note_on_c, 0, 70, 57
2, 30876, Note_off_c, 0, 70, 64
2, 30884, Note_off_c, 0, 67, 64
2, 30888, Note_off_c, 0, 63, 64
2, 30972, Note_on_c, 0, 63, 75
2, 30972, Note_on_c, 0, 67, 85
2, 30976, Note_on_c, 0, 70, 66
2, 31008, Note_off_c, 0, 70, 64
2, 31008, Note_off_c, 0, 67, 64
2, 31016, Note_off_c, 0, 63, 64
2, 31096, Note_on_c, 0, 63, 94
2, 31100, Note_on_c, 0, 70, 90
2, 31100, Note_on_c, 0, 67, 98
2, 31128, Note_off_c, 0, 67, 64
2, 31128, Note_off_c, 0, 70, 64
2, 31136, Note_off_c, 0, 63, 64
2, 31224, Note_on_c, 0, 63, 71
2, 31224, Note_on_c, 0, 67, 87
2, 31228, Note_on_c, 0, 70, 60
2, 31256, Note_off_c, 0, 70, 64
2, 31256, Note_off_c, 0, 67, 64
2, 31260, Note_off_c, 0, 63, 64
2, 31352, Note_on_c, 0, 63, 84
2, 31352, Note_on_c, 0, 67, 97
2, 31352, Note_on_c, 0, 70, 77
2, 31384, Note_off_c, 0, 70, 64
2, 31384, Note_off_c, 0, 67, 64
2, 31384, Note_off_c, 0, 63, 64
2, 31480, Note_on_c, 0, 63, 85
2, 31480, Note_on_c, 0, 70, 82
2, 31480, Note_on_c, 0, 67, 98
2, 31512, Note_off_c, 0, 67, 64
2, 31512, Note_off_c, 0, 70, 64
2, 31520, Note_off_c, 0, 63, 64
2, 31612, Note_on_c, 0, 63, 92
2, 31612, Note_on_c, 0, 67, 102
2, 31612, Note_on_c, 0, 70, 84
2, 31640, Note_off_c, 0, 70, 64
2, 31640, Note_off_c, 0, 67, 64
2, 31640, Note_off_c, 0, 63, 64
2, 31736, Note_on_c, 0, 63, 84
2, 31740, Note_on_c, 0, 70, 82
2, 31740, Note_on_c, 0, 67, 97
2, 31768, Note_off_c, 0, 67, 64
2, 31768, Note_off_c, 0, 70, 64
2, 31772, Note_off_c, 0, 63, 64
2, 31864, Note_on_c, 0, 63, 88
2, 31864, Note_on_c, 0, 70, 91
2, 31864, Note_on_c, 0, 67, 103
2, 31904, Note_off_c, 0, 67, 64
2, 31908, Note_off_c, 0, 70, 64
2, 31912, Note_off_c, 0, 63, 64
2, 31992, Note_on_c, 0, 63, 84
2, 31992, Note_on_c, 0, 67, 97
2, 31992, Note_on_c, 0, 70, 81
2, 32028, Note_off_c, 0, 70, 64
2, 32028, Note_off_c, 0, 67, 64
2, 32040, Note_off_c, 0, 63, 64
2, 32120, Note_on_c, 0, 63, 84
2, 32120, Note_on_c, 0, 67, 97
2, 32120, Note_on_c, 0, 70, 83
2, 32156, Note_off_c, 0, 70, 64
2, 32160, Note_off_c, 0, 67, 64
2, 32164, Note_off_c, 0, 63, 64
2, 32248, Note_on_c, 0, 67, 104
2, 32248, Note_on_c, 0, 64, 97
2, 32248, Note_on_c, 0, 70, 91
2, 32272, Note_off_c, 0, 70, 64
2, 32284, Note_off_c, 0, 64, 64
2, 32288, Note_off_c, 0, 67, 64
2, 32376, Note_on_c, 0, 67, 98
2, 32376, Note_on_c, 0, 70, 98
2, 32376, Note_on_c, 0, 64, 87
2, 32408, Note_off_c, 0, 64, 64
2, 32412, Note_off_c, 0, 70, 64
2, 32412, Note_off_c, 0, 67, 64
2, 32504, Note_on_c, 0, 70, 88
2, 32504, Note_on_c, 0, 67, 95
2, 32504, Note_on_c, 0, 64, 87
2, 32540, Note_off_c, 0, 64, 64
2, 32544, Note_off_c, 0, 67, 64
2, 32544, Note_off_c, 0, 70, 64
2, 32628, Note_on_c, 0, 70, 92
2, 32632, Note_on_c, 0, 67, 92
2, 32632, Note_on_c, 0, 64, 81
2, 32668, Note_off_c, 0, 64, 64
2, 32676, Note_off_c, 0, 67, 64
2, 32680, Note_off_c, 0, 70, 64
2, 32760, Note_on_c, 0, 70, 89
2, 32760, Note_on_c, 0, 67, 96
2, 32760, Note_on_c, 0, 64, 84
2, 32796, Note_off_c, 0, 64, 64
2, 32800, Note_off_c, 0, 70, 64
2, 32804, Note_off_c, 0, 67, 64
2, 32888, Note_on_c, 0, 70, 89
2, 32888, Note_on_c, 0, 67, 96
2, 32888, Note_on_c, 0, 64, 83
2, 32920, Note_off_c, 0, 64, 64
2, 32928, Note_off_c, 0, 67, 64
2, 32928, Note_off_c, 0, 70, 64
2, 33016, Note_on_c, 0, 70, 96
2, 33016, Note_on_c, 0, 67, 97
2, 33016, Note_on_c, 0, 64, 85
2, 33048, Note_off_c, 0, 64, 64
2, 33056, Note_off_c, 0, 67, 64
2, 33060, Note_off_c, 0, 70, 64
2, 33144, Note_on_c, 0, 70, 98
2, 33144, Note_on_c, 0, 64, 82
2, 33144, Note_on_c, 0, 67, 91
2, 33176, Note_off_c, 0, 67, 64
2, 33176, Note_off_c, 0, 64, 64
2, 33184, Note_off_c, 0, 70, 64
2, 33272, Note_on_c, 0, 70, 84
2, 33272, Note_on_c, 0, 64, 75
2, 33272, Note_on_c, 0, 67, 85
2, 33304, Note_off_c, 0, 67, 64
2, 33304, Note_off_c, 0, 64, 64
2, 33308, Note_off_c, 0, 70, 64
2, 33400, Note_on_c, 0, 70, 94
2, 33400, Note_on_c, 0, 67, 93
2, 33400, Note_on_c, 0, 64, 85
2, 33432, Note_off_c, 0, 64, 64
2, 33436, Note_off_c, 0, 67, 64
2, 33440, Note_off_c, 0, 70, 64
2, 33528, Note_on_c, 0, 70, 90
2, 33528, Note_on_c, 0, 67, 93
2, 33528, Note_on_c, 0, 64, 81
2, 33560, Note_off_c, 0, 64, 64
2, 33560, Note_off_c, 0, 67, 64
2, 33564, Note_off_c, 0, 70, 64
2, 33656, Note_on_c, 0, 70, 73
2, 33656, Note_on_c, 0, 67, 84
2, 33656, Note_on_c, 0, 64, 77
2, 33696, Note_off_c, 0, 64, 64
2, 33700, Note_off_c, 0, 70, 64
2, 33704, Note_off_c, 0, 67, 64
2, 33788, Note_on_c, 0, 62, 98
2, 33788, Note_on_c, 0, 70, 114
2, 33788, Note_on_c, 0, 65, 104
2, 33816, Note_off_c, 0, 65, 64
2, 33828, Note_off_c, 0, 70, 64
2, 33828, Note_off_c, 0, 62, 64
2, 33916, Note_on_c, 0, 62, 85
2, 33916, Note_on_c, 0, 70, 99
2, 33920, Note_on_c, 0, 65, 85
2, 33948, Note_off_c, 0, 65, 64
2, 33956, Note_off_c, 0, 70, 64
2, 33960, Note_off_c, 0, 62, 64
2, 34044, Note_on_c, 0, 62, 84
2, 34044, Note_on_c, 0, 70, 96
2, 34044, Note_on_c, 0, 65, 95
2, 34076, Note_off_c, 0, 65, 64
2, 34084, Note_off_c, 0, 70, 64
2, 34088, Note_off_c, 0, 62, 64
2, 34172, Note_on_c, 0, 70, 94
2, 34172, Note_on_c, 0, 62, 82
2, 34172, Note_on_c, 0, 65, 92
2, 34200, Note_off_c, 0, 65, 64
2, 34212, Note_off_c, 0, 62, 64
2, 34212, Note_off_c, 0, 70, 64
2, 34300, Note_on_c, 0, 70, 99
2, 34300, Note_on_c, 0, 62, 85
2, 34300, Note_on_c, 0, 65, 94
2, 34332, Note_off_c, 0, 65, 64
2, 34336, Note_off_c, 0, 62, 64
2, 34336, Note_off_c, 0, 70, 64
2, 34428, Note_on_c, 0, 70, 87
2, 34428, Note_on_c, 0, 62, 78
2, 34428, Note_on_c, 0, 65, 88
2, 34460, Note_off_c, 0, 65, 64
2, 34468, Note_off_c, 0, 62, 64
2, 34468, Note_off_c, 0, 70, 64
2, 34552, Note_on_c, 0, 70, 101
2, 34552, Note_on_c, 0, 62, 82
2, 34556, Note_on_c, 0, 65, 91
2, 34592, Note_off_c, 0, 65, 64
2, 34596, Note_off_c, 0, 62, 64
2, 34600, Note_off_c, 0, 70, 64
2, 34680, Note_on_c, 0, 70, 83
2, 34680, Note_on_c, 0, 65, 85
2, 34680, Note_on_c, 0, 62, 71
2, 34724, Note_off_c, 0, 62, 64
2, 34724, Note_off_c, 0, 65, 64
2, 34724, Note_off_c, 0, 70, 64
2, 34808, Note_on_c, 0, 70, 101
2, 34808, Note_on_c, 0, 65, 94
2, 34808, Note_on_c, 0, 62, 82
2, 34848, Note_off_c, 0, 62, 64
2, 34848, Note_off_c, 0, 65, 64
2, 34852, Note_off_c, 0, 70, 64
2, 34936, Note_on_c, 0, 70, 85
2, 34936, Note_on_c, 0, 62, 73
2, 34936, Note_on_c, 0, 65, 86
2, 34980, Note_off_c, 0, 65, 64
2, 34984, Note_off_c, 0, 62, 64
2, 34984, Note_off_c, 0, 70, 64
2, 35064, Note_on_c, 0, 70, 92
2, 35064, Note_on_c, 0, 65, 89
2, 35064, Note_on_c, 0, 62, 75
2, 35108, Note_off_c, 0, 65, 64
2, 35112, Note_off_c, 0, 62, 64
2, 35112, Note_off_c, 0, 70, 64
2, 35192, Note_on_c, 0, 70, 96
2, 35192, Note_on_c, 0, 65, 89
2, 35192, Note_on_c, 0, 62, 73
2, 35232, Note_off_c, 0, 65, 64
2, 35236, Note_off_c, 0, 62, 64
2, 35240, Note_off_c, 0, 70, 64
2, 35320, Note_on_c, 0, 65, 94
2, 35320, Note_on_c, 0, 68, 95
2, 35320, Note_on_c, 0, 62, 78
2, 35356, Note_off_c, 0, 62, 64
2, 35356, Note_off_c, 0, 65, 64
2, 35364, Note_off_c, 0, 68, 64
2, 35448, Note_on_c, 0, 65, 91
2, 35448, Note_on_c, 0, 68, 84
2, 35448, Note_on_c, 0, 62, 77
2, 35484, Note_off_c, 0, 68, 64
2, 35484, Note_off_c, 0, 65, 64
2, 35488, Note_off_c, 0, 62, 64
2, 35580, Note_on_c, 0, 62, 85
2, 35580, Note_on_c, 0, 65, 100
2, 35580, Note_on_c, 0, 68, 92
2, 35608, Note_off_c, 0, 68, 64
2, 35608, Note_off_c, 0, 65, 64
2, 35612, Note_off_c, 0, 62, 64
2, 35708, Note_on_c, 0, 65, 96
2, 35708, Note_on_c, 0, 68, 92
2, 35708, Note_on_c, 0, 62, 78
2, 35736, Note_off_c, 0, 68, 64
2, 35740, Note_off_c, 0, 62, 64
2, 35744, Note_off_c, 0, 65, 64
2, 35836, Note_on_c, 0, 68, 81
2, 35836, Note_on_c, 0, 62, 74
2, 35836, Note_on_c, 0, 65, 87
2, 35868, Note_off_c, 0, 65, 64
2, 35868, Note_off_c, 0, 68, 64
2, 35872, Note_off_c, 0, 62, 64
2, 35964, Note_on_c, 0, 68, 87
2, 35964, Note_on_c, 0, 62, 77
2, 35964, Note_on_c, 0, 65, 90
2, 35996, Note_off_c, 0, 65, 64
2, 36000, Note_off_c, 0, 62, 64
2, 36000, Note_off_c, 0, 68, 64
2, 36088, Note_on_c, 0, 68, 88
2, 36088, Note_on_c, 0, 62, 79
2, 36088, Note_on_c, 0, 65, 93
2, 36120, Note_off_c, 0, 65, 64
2, 36120, Note_off_c, 0, 62, 64
2, 36120, Note_off_c, 0, 68, 64
2, 36216, Note_on_c, 0, 62, 79
2, 36216, Note_on_c, 0, 68, 84
2, 36216, Note_on_c, 0, 65, 91
2, 36248, Note_off_c, 0, 65, 64
2, 36248, Note_off_c, 0, 68, 64
2, 36252, Note_off_c, 0, 62, 64
2, 36344, Note_on_c, 0, 62, 77
2, 36344, Note_on_c, 0, 68, 84
2, 36344, Note_on_c, 0, 65, 87
2, 36376, Note_off_c, 0, 65, 64
2, 36380, Note_off_c, 0, 68, 64
2, 36384, Note_off_c, 0, 62, 64
2, 36472, Note_on_c, 0, 68, 83
2, 36472, Note_on_c, 0, 62, 77
2, 36472, Note_on_c, 0, 65, 87
2, 36504, Note_off_c, 0, 65, 64
2, 36508, Note_off_c, 0, 68, 64
2, 36512, Note_off_c, 0, 62, 64
2, 36600, Note_on_c, 0, 68, 78
2, 36600, Note_on_c, 0, 65, 84
2, 36600, Note_on_c, 0, 62, 75
2, 36636, Note_off_c, 0, 62, 64
2, 36636, Note_off_c, 0, 65, 64
2, 36636, Note_off_c, 0, 68, 64
2, 36728, Note_on_c, 0, 62, 90
2, 36728, Note_on_c, 0, 68, 99
2, 36728, Note_on_c, 0, 65, 100
2, 36756, Note_off_c, 0, 65, 64
2, 36760, Note_off_c, 0, 68, 64
2, 36760, Note_off_c, 0, 62, 64
2, 36856, Note_on_c, 0, 70, 99
2, 36856, Note_on_c, 0, 63, 92
2, 36856, Note_on_c, 0, 67, 90
2, 36884, Note_off_c, 0, 67, 64
2, 36900, Note_off_c, 0, 63, 64
2, 36904, Note_off_c, 0, 70, 64
2, 36984, Note_on_c, 0, 63, 83
2, 36984, Note_on_c, 0, 67, 92
2, 36984, Note_on_c, 0, 70, 76
2, 37032, Note_off_c, 0, 70, 64
2, 37032, Note_off_c, 0, 67, 64
2, 37032, Note_off_c, 0, 63, 64
2, 37112, Note_on_c, 0, 70, 84
2, 37112, Note_on_c, 0, 63, 77
2, 37112, Note_on_c, 0, 67, 93
2, 37152, Note_off_c, 0, 67, 64
2, 37156, Note_off_c, 0, 70, 64
2, 37160, Note_off_c, 0, 63, 64
2, 37240, Note_on_c, 0, 63, 84
2, 37240, Note_on_c, 0, 70, 85
2, 37240, Note_on_c, 0, 67, 95
2, 37276, Note_off_c, 0, 67, 64
2, 37276, Note_off_c, 0, 70, 64
2, 37284, Note_off_c, 0, 63, 64
2, 37368, Note_on_c, 0, 63, 78
2, 37368, Note_on_c, 0, 67, 92
2, 37368, Note_on_c, 0, 70, 74
2, 37404, Note_off_c, 0, 70, 64
2, 37408, Note_off_c, 0, 67, 64
2, 37412, Note_off_c, 0, 63, 64
2, 37496, Note_on_c, 0, 63, 84
2, 37496, Note_on_c, 0, 67, 98
2, 37496, Note_on_c, 0, 70, 78
2, 37524, Note_off_c, 0, 70, 64
2, 37528, Note_off_c, 0, 67, 64
2, 37532, Note_off_c, 0, 63, 64
2, 37624, Note_on_c, 0, 63, 81
2, 37624, Note_on_c, 0, 70, 83
2, 37624, Note_on_c, 0, 67, 97
2, 37660, Note_off_c, 0, 67, 64
2, 37660, Note_off_c, 0, 70, 64
2, 37664, Note_off_c, 0, 63, 64
2, 37752, Note_on_c, 0, 63, 81
2, 37752, Note_on_c, 0, 70, 78
2, 37752, Note_on_c, 0, 67, 95
2, 37788, Note_off_c, 0, 67, 64
2, 37788, Note_off_c, 0, 70, 64
2, 37792, Note_off_c, 0, 63, 64
2, 37880, Note_on_c, 0, 63, 88
2, 37880, Note_on_c, 0, 70, 81
2, 37880, Note_on_c, 0, 67, 97
2, 37912, Note_off_c, 0, 67, 64
2, 37912, Note_off_c, 0, 70, 64
2, 37916, Note_off_c, 0, 63, 64
2, 38008, Note_on_c, 0, 63, 79
2, 38008, Note_on_c, 0, 70, 71
2, 38008, Note_on_c, 0, 67, 83
2, 38040, Note_off_c, 0, 67, 64
2, 38044, Note_off_c, 0, 70, 64
2, 38052, Note_off_c, 0, 63, 64
2, 38136, Note_on_c, 0, 63, 96
2, 38140, Note_on_c, 0, 70, 87
2, 38140, Note_on_c, 0, 67, 103
2, 38168, Note_off_c, 0, 67, 64
2, 38168, Note_off_c, 0, 70, 64
2, 38180, Note_off_c, 0, 63, 64
2, 38264, Note_on_c, 0, 63, 95
2, 38264, Note_on_c, 0, 70, 91
2, 38268, Note_on_c, 0, 67, 104
2, 38308, Note_off_c, 0, 67, 64
2, 38308, Note_off_c, 0, 70, 64
2, 38312, Note_off_c, 0, 63, 64
2, 38392, Note_on_c, 0, 67, 90
2, 38392, Note_on_c, 0, 70, 91
2, 38392, Note_on_c, 0, 64, 90
2, 38428, Note_off_c, 0, 70, 64
2, 38436, Note_off_c, 0, 64, 64
2, 38436, Note_off_c, 0, 67, 64
2, 38520, Note_on_c, 0, 64, 81
2, 38524, Note_on_c, 0, 70, 75
2, 38524, Note_on_c, 0, 67, 83
2, 38568, Note_off_c, 0, 67, 64
2, 38568, Note_off_c, 0, 70, 64
2, 38568, Note_off_c, 0, 64, 64
2, 38652, Note_on_c, 0, 70, 76
2, 38652, Note_on_c, 0, 64, 78
2, 38652, Note_on_c, 0, 67, 82
2, 38696, Note_off_c, 0, 67, 64
2, 38696, Note_off_c, 0, 64, 64
2, 38696, Note_off_c, 0, 70, 64
2, 38776, Note_on_c, 0, 70, 88
2, 38776, Note_on_c, 0, 67, 89
2, 38780, Note_on_c, 0, 64, 87
2, 38820, Note_off_c, 0, 64, 64
2, 38820, Note_off_c, 0, 67, 64
2, 38820, Note_off_c, 0, 70, 64
2, 38904, Note_on_c, 0, 67, 85
2, 38904, Note_on_c, 0, 70, 83
2, 38908, Note_on_c, 0, 64, 83
2, 38944, Note_off_c, 0, 70, 64
2, 38948, Note_off_c, 0, 64, 64
2, 38948, Note_off_c, 0, 67, 64
2, 39032, Note_on_c, 0, 67, 92
2, 39032, Note_on_c, 0, 70, 94
2, 39032, Note_on_c, 0, 64, 84
2, 39072, Note_off_c, 0, 64, 64
2, 39072, Note_off_c, 0, 70, 64
2, 39080, Note_off_c, 0, 67, 64
2, 39160, Note_on_c, 0, 70, 95
2, 39160, Note_on_c, 0, 67, 93
2, 39160, Note_on_c, 0, 64, 87
2, 39204, Note_off_c, 0, 64, 64
2, 39204, Note_off_c, 0, 67, 64
2, 39204, Note_off_c, 0, 70, 64
2, 39288, Note_on_c, 0, 70, 87
2, 39288, Note_on_c, 0, 67, 88
2, 39288, Note_on_c, 0, 64, 83
2, 39320, Note_off_c, 0, 70, 64
2, 39324, Note_off_c, 0, 64, 64
2, 39324, Note_off_c, 0, 67, 64
2, 39416, Note_on_c, 0, 70, 87
2, 39416, Note_on_c, 0, 67, 86
2, 39416, Note_on_c, 0, 64, 82
2, 39452, Note_off_c, 0, 67, 64
2, 39452, Note_off_c, 0, 70, 64
2, 39456, Note_off_c, 0, 64, 64
2, 39544, Note_on_c, 0, 70, 84
2, 39544, Note_on_c, 0, 67, 86
2, 39544, Note_on_c, 0, 64, 81
2, 39584, Note_off_c, 0, 64, 64
2, 39584, Note_off_c, 0, 67, 64
2, 39584, Note_off_c, 0, 70, 64
2, 39672, Note_on_c, 0, 70, 76
2, 39672, Note_on_c, 0, 67, 79
2, 39672, Note_on_c, 0, 64, 76
2, 39708, Note_off_c, 0, 64, 64
2, 39712, Note_off_c, 0, 70, 64
2, 39716, Note_off_c, 0, 67, 64
2, 39800, Note_on_c, 0, 70, 84
2, 39800, Note_on_c, 0, 64, 74
2, 39800, Note_on_c, 0, 67, 83
2, 39836, Note_off_c, 0, 67, 64
2, 39840, Note_off_c, 0, 64, 64
2, 39848, Note_off_c, 0, 70, 64
2, 39928, Note_on_c, 0, 69, 97
2, 39928, Note_on_c, 0, 65, 84
2, 39928, Note_on_c, 0, 72, 85
2, 39964, Note_off_c, 0, 72, 64
2, 39968, Note_off_c, 0, 65, 64
2, 39972, Note_off_c, 0, 69, 64
2, 40056, Note_on_c, 0, 69, 78
2, 40056, Note_on_c, 0, 65, 69
2, 40056, Note_on_c, 0, 72, 76
2, 40096, Note_off_c, 0, 72, 64
2, 40100, Note_off_c, 0, 65, 64
2, 40104, Note_off_c, 0, 69, 64
2, 40184, Note_on_c, 0, 69, 79
2, 40184, Note_on_c, 0, 65, 79
2, 40184, Note_on_c, 0, 72, 79
2, 40216, Note_off_c, 0, 72, 64
2, 40220, Note_off_c, 0, 65, 64
2, 40224, Note_off_c, 0, 69, 64
2, 40312, Note_on_c, 0, 69, 84
2, 40312, Note_on_c, 0, 65, 79
2, 40312, Note_on_c, 0, 72, 84
2, 40348, Note_off_c, 0, 72, 64
2, 40352, Note_off_c, 0, 65, 64
2, 40352, Note_off_c, 0, 69, 64
2, 40440, Note_on_c, 0, 69, 85
2, 40440, Note_on_c, 0, 65, 79
2, 40440, Note_on_c, 0, 72, 84
2, 40476, Note_off_c, 0, 72, 64
2, 40480, Note_off_c, 0, 69, 64
2, 40484, Note_off_c, 0, 65, 64
2, 40568, Note_on_c, 0, 69, 79
2, 40568, Note_on_c, 0, 65, 75
2, 40568, Note_on_c, 0, 72, 76
2, 40600, Note_off_c, 0, 72, 64
2, 40608, Note_off_c, 0, 65, 64
2, 40608, Note_off_c, 0, 69, 64
2, 40696, Note_on_c, 0, 69, 85
2, 40696, Note_on_c, 0, 65, 79
2, 40696, Note_on_c, 0, 72, 83
2, 40732, Note_off_c, 0, 72, 64
2, 40736, Note_off_c, 0, 65, 64
2, 40736, Note_off_c, 0, 69, 64
2, 40824, Note_on_c, 0, 69, 78
2, 40824, Note_on_c, 0, 65, 74
2, 40824, Note_on_c, 0, 72, 75
2, 40856, Note_off_c, 0, 72, 64
2, 40860, Note_off_c, 0, 65, 64
2, 40860, Note_off_c, 0, 69, 64
2, 40952, Note_on_c, 0, 69, 81
2, 40952, Note_on_c, 0, 65, 76
2, 40952, Note_on_c, 0, 72, 78
2, 40988, Note_off_c, 0, 72, 64
2, 40992, Note_off_c, 0, 65, 64
2, 40992, Note_off_c, 0, 69, 64
2, 41080, Note_on_c, 0, 69, 85
2, 41080, Note_on_c, 0, 72, 85
2, 41080, Note_on_c, 0, 65, 79
2, 41116, Note_off_c, 0, 65, 64
2, 41120, Note_off_c, 0, 72, 64
2, 41120, Note_off_c, 0, 69, 64
2, 41208, Note_on_c, 0, 69, 83
2, 41208, Note_on_c, 0, 72, 83
2, 41208, Note_on_c, 0, 65, 77
2, 41244, Note_off_c, 0, 65, 64
2, 41248, Note_off_c, 0, 72, 64
2, 41248, Note_off_c, 0, 69, 64
2, 41336, Note_on_c, 0, 69, 87
2, 41336, Note_on_c, 0, 72, 85
2, 41336, Note_on_c, 0, 65, 79
2, 41368, Note_off_c, 0, 72, 64
2, 41372, Note_off_c, 0, 65, 64
2, 41372, Note_off_c, 0, 69, 64
2, 41464, Note_on_c, 0, 69, 93
2, 41464, Note_on_c, 0, 72, 94
2, 41464, Note_on_c, 0, 65, 87
2, 41500, Note_off_c, 0, 65, 64
2, 41500, Note_off_c, 0, 72, 64
2, 41500, Note_off_c, 0, 69, 64
2, 41592, Note_on_c, 0, 69, 85
2, 41592, Note_on_c, 0, 72, 83
2, 41592, Note_on_c, 0, 65, 77
2, 41628, Note_off_c, 0, 65, 64
2, 41628, Note_off_c, 0, 72, 64
2, 41628, Note_off_c, 0, 69, 64
2, 41720, Note_on_c, 0, 72, 94
2, 41720, Note_on_c, 0, 69, 90
2, 41720, Note_on_c, 0, 65, 84
2, 41756, Note_off_c, 0, 65, 64
2, 41756, Note_off_c, 0, 69, 64
2, 41756, Note_off_c, 0, 72, 64
2, 41848, Note_on_c, 0, 72, 91
2, 41848, Note_on_c, 0, 63, 96
2, 41884, Note_off_c, 0, 63, 64
2, 41896, Note_off_c, 0, 72, 64
2, 41976, Note_on_c, 0, 63, 87
2, 41976, Note_on_c, 0, 72, 104
2, 42016, Note_off_c, 0, 72, 64
2, 42020, Note_off_c, 0, 63, 64
2, 42104, Note_on_c, 0, 63, 88
2, 42104, Note_on_c, 0, 72, 105
2, 42148, Note_off_c, 0, 72, 64
2, 42152, Note_off_c, 0, 63, 64
2, 42236, Note_on_c, 0, 72, 97
2, 42236, Note_on_c, 0, 65, 88
2, 42240, Note_on_c, 0, 69, 90
2, 42276, Note_off_c, 0, 69, 64
2, 42276, Note_off_c, 0, 65, 64
2, 42280, Note_off_c, 0, 72, 64
2, 42364, Note_on_c, 0, 72, 96
2, 42364, Note_on_c, 0, 65, 87
2, 42364, Note_on_c, 0, 69, 93
2, 42400, Note_off_c, 0, 69, 64
2, 42400, Note_off_c, 0, 65, 64
2, 42404, Note_off_c, 0, 72, 64
2, 42488, Note_on_c, 0, 65, 83
2, 42488, Note_on_c, 0, 72, 85
2, 42488, Note_on_c, 0, 69, 85
2, 42524, Note_off_c, 0, 69, 64
2, 42524, Note_off_c, 0, 72, 64
2, 42528, Note_off_c, 0, 65, 64
2, 42616, Note_on_c, 0, 69, 97
2, 42616, Note_on_c, 0, 65, 87
2, 42620, Note_on_c, 0, 72, 78
2, 42632, Note_off_c, 0, 72, 64
2, 42664, Note_off_c, 0, 65, 64
2, 42664, Note_off_c, 0, 69, 64
2, 42744, Note_on_c, 0, 69, 86
2, 42744, Note_on_c, 0, 65, 78
2, 42792, Note_off_c, 0, 65, 64
2, 42792, Note_off_c, 0, 69, 64
2, 42876, Note_on_c, 0, 69, 102
2, 42876, Note_on_c, 0, 65, 85
2, 42904, Note_off_c, 0, 65, 64
2, 42908, Note_off_c, 0, 69, 64
2, 43008, Note_on_c, 0, 70, 89
2, 43008, Note_on_c, 0, 62, 81
2, 43012, Note_on_c, 0, 65, 93
2, 43056, Note_off_c, 0, 70, 64
2, 43060, Note_off_c, 0, 65, 64
2, 43068, Note_off_c, 0, 62, 64
2, 43132, Note_on_c, 0, 62, 69
2, 43132, Note_on_c, 0, 65, 73
2, 43132, Note_on_c, 0, 70, 75
2, 43176, Note_off_c, 0, 70, 64
2, 43176, Note_off_c, 0, 65, 64
2, 43184, Note_off_c, 0, 62, 64
2, 43260, Note_on_c, 0, 62, 77
2, 43260, Note_on_c, 0, 65, 94
2, 43260, Note_on_c, 0, 70, 88
2, 43300, Note_off_c, 0, 70, 64
2, 43304, Note_off_c, 0, 65, 64
2, 43308, Note_off_c, 0, 62, 64
2, 43388, Note_on_c, 0, 62, 82
2, 43388, Note_on_c, 0, 65, 97
2, 43388, Note_on_c, 0, 70, 98
2, 43428, Note_off_c, 0, 70, 64
2, 43428, Note_off_c, 0, 65, 64
2, 43432, Note_off_c, 0, 62, 64
2, 43512, Note_on_c, 0, 70, 87
2, 43512, Note_on_c, 0, 62, 78
2, 43512, Note_on_c, 0, 65, 89
2, 43548, Note_off_c, 0, 65, 64
2, 43552, Note_off_c, 0, 70, 64
2, 43556, Note_off_c, 0, 62, 64
2, 43640, Note_on_c, 0, 62, 81
2, 43640, Note_on_c, 0, 70, 96
2, 43640, Note_on_c, 0, 65, 97
2, 43672, Note_off_c, 0, 65, 64
2, 43680, Note_off_c, 0, 70, 64
2, 43680, Note_off_c, 0, 62, 64
2, 43768, Note_on_c, 0, 62, 85
2, 43768, Note_on_c, 0, 70, 98
2, 43768, Note_on_c, 0, 65, 101
2, 43804, Note_off_c, 0, 65, 64
2, 43804, Note_off_c, 0, 70, 64
2, 43808, Note_off_c, 0, 62, 64
2, 43896, Note_on_c, 0, 62, 76
2, 43896, Note_on_c, 0, 70, 79
2, 43896, Note_on_c, 0, 65, 87
2, 43928, Note_off_c, 0, 65, 64
2, 43932, Note_off_c, 0, 70, 64
2, 43936, Note_off_c, 0, 62, 64
2, 44024, Note_on_c, 0, 62, 82
2, 44024, Note_on_c, 0, 70, 94
2, 44024, Note_on_c, 0, 65, 97
2, 44056, Note_off_c, 0, 65, 64
2, 44056, Note_off_c, 0, 70, 64
2, 44064, Note_off_c, 0, 62, 64
2, 44152, Note_on_c, 0, 70, 89
2, 44152, Note_on_c, 0, 62, 77
2, 44152, Note_on_c, 0, 65, 91
2, 44188, Note_off_c, 0, 65, 64
2, 44196, Note_off_c, 0, 62, 64
2, 44196, Note_off_c, 0, 70, 64
2, 44280, Note_on_c, 0, 65, 90
2, 44280, Note_on_c, 0, 70, 92
2, 44280, Note_on_c, 0, 62, 77
2, 44320, Note_off_c, 0, 62, 64
2, 44320, Note_off_c, 0, 65, 64
2, 44324, Note_off_c, 0, 70, 64
2, 44408, Note_on_c, 0, 70, 95
2, 44408, Note_on_c, 0, 65, 87
2, 44408, Note_on_c, 0, 62, 77
2, 44448, Note_off_c, 0, 62, 64
2, 44448, Note_off_c, 0, 65, 64
2, 44452, Note_off_c, 0, 70, 64
2, 44536, Note_on_c, 0, 65, 100
2, 44536, Note_on_c, 0, 62, 80
2, 44536, Note_on_c, 0, 68, 92
2, 44572, Note_off_c, 0, 68, 64
2, 44576, Note_off_c, 0, 62, 64
2, 44580, Note_off_c, 0, 65, 64
2, 44664, Note_on_c, 0, 68, 84
2, 44664, Note_on_c, 0, 65, 85
2, 44664, Note_on_c, 0, 62, 77
2, 44700, Note_off_c, 0, 62, 64
2, 44704, Note_off_c, 0, 65, 64
2, 44704, Note_off_c, 0, 68, 64
2, 44792, Note_on_c, 0, 65, 90
2, 44792, Note_on_c, 0, 68, 85
2, 44792, Note_on_c, 0, 62, 78
2, 44828, Note_off_c, 0, 68, 64
2, 44828, Note_off_c, 0, 65, 64
2, 44832, Note_off_c, 0, 62, 64
2, 44920, Note_on_c, 0, 65, 91
2, 44920, Note_on_c, 0, 62, 81
2, 44920, Note_on_c, 0, 68, 88
2, 44952, Note_off_c, 0, 65, 64
2, 44956, Note_off_c, 0, 68, 64
2, 44956, Note_off_c, 0, 62, 64
2, 45048, Note_on_c, 0, 62, 82
2, 45048, Note_on_c, 0, 68, 89
2, 45048, Note_on_c, 0, 65, 90
2, 45084, Note_off_c, 0, 65, 64
2, 45084, Note_off_c, 0, 68, 64
2, 45088, Note_off_c, 0, 62, 64
2, 45176, Note_on_c, 0, 62, 82
2, 45176, Note_on_c, 0, 68, 89
2, 45176, Note_on_c, 0, 65, 92
2, 45208, Note_off_c, 0, 65, 64
2, 45208, Note_off_c, 0, 68, 64
2, 45216, Note_off_c, 0, 62, 64
2, 45304, Note_on_c, 0, 62, 78
2, 45304, Note_on_c, 0, 65, 90
2, 45304, Note_on_c, 0, 68, 84
2, 45336, Note_off_c, 0, 68, 64
2, 45340, Note_off_c, 0, 65, 64
2, 45344, Note_off_c, 0, 62, 64
2, 45432, Note_on_c, 0, 62, 81
2, 45432, Note_on_c, 0, 68, 85
2, 45432, Note_on_c, 0, 65, 92
2, 45468, Note_off_c, 0, 65, 64
2, 45468, Note_off_c, 0, 68, 64
2, 45472, Note_off_c, 0, 62, 64
2, 45560, Note_on_c, 0, 68, 84
2, 45560, Note_on_c, 0, 65, 87
2, 45564, Note_on_c, 0, 62, 74
2, 45596, Note_off_c, 0, 62, 64
2, 45596, Note_off_c, 0, 65, 64
2, 45596, Note_off_c, 0, 68, 64
2, 45688, Note_on_c, 0, 65, 97
2, 45692, Note_on_c, 0, 68, 88
2, 45692, Note_on_c, 0, 62, 82
2, 45724, Note_off_c, 0, 68, 64
2, 45724, Note_off_c, 0, 65, 64
2, 45728, Note_off_c, 0, 62, 64
2, 45816, Note_on_c, 0, 65, 91
2, 45816, Note_on_c, 0, 62, 78
2, 45816, Note_on_c, 0, 68, 84
2, 45856, Note_off_c, 0, 68, 64
2, 45856, Note_off_c, 0, 65, 64
2, 45860, Note_off_c, 0, 62, 64
2, 45944, Note_on_c, 0, 68, 83
2, 45944, Note_on_c, 0, 65, 82
2, 45944, Note_on_c, 0, 62, 74
2, 45976, Note_off_c, 0, 62, 64
2, 45976, Note_off_c, 0, 65, 64
2, 45980, Note_off_c, 0, 68, 64
2, 46068, Note_on_c, 0, 70, 84
2, 46072, Note_on_c, 0, 61, 75
2, 46072, Note_on_c, 0, 67, 84
2, 46092, Note_off_c, 0, 61, 64
2, 46120, Note_off_c, 0, 67, 64
2, 46124, Note_off_c, 0, 70, 64
2, 46196, Note_on_c, 0, 70, 91
2, 46200, Note_on_c, 0, 61, 96
2, 46200, Note_on_c, 0, 67, 96
2, 46236, Note_off_c, 0, 67, 64
2, 46248, Note_off_c, 0, 61, 64
2, 46248, Note_off_c, 0, 70, 64
2, 46328, Note_on_c, 0, 70, 84
2, 46328, Note_on_c, 0, 61, 82
2, 46328, Note_on_c, 0, 67, 92
2, 46360, Note_off_c, 0, 67, 64
2, 46372, Note_off_c, 0, 70, 64
2, 46376, Note_off_c, 0, 61, 64
2, 46456, Note_on_c, 0, 61, 90
2, 46456, Note_on_c, 0, 70, 89
2, 46456, Note_on_c, 0, 67, 95
2, 46488, Note_off_c, 0, 67, 64
2, 46488, Note_off_c, 0, 70, 64
2, 46504, Note_off_c, 0, 61, 64
2, 46580, Note_on_c, 0, 61, 73
2, 46584, Note_on_c, 0, 70, 70
2, 46584, Note_on_c, 0, 67, 83
2, 46616, Note_off_c, 0, 67, 64
2, 46620, Note_off_c, 0, 70, 64
2, 46628, Note_off_c, 0, 61, 64
2, 46712, Note_on_c, 0, 61, 89
2, 46712, Note_on_c, 0, 70, 78
2, 46712, Note_on_c, 0, 67, 97
2, 46744, Note_off_c, 0, 67, 64
2, 46744, Note_off_c, 0, 70, 64
2, 46748, Note_off_c, 0, 61, 64
2, 46840, Note_on_c, 0, 61, 84
2, 46840, Note_on_c, 0, 70, 82
2, 46840, Note_on_c, 0, 67, 89
2, 46872, Note_off_c, 0, 67, 64
2, 46872, Note_off_c, 0, 70, 64
2, 46880, Note_off_c, 0, 61, 64
2, 46968, Note_on_c, 0, 61, 88
2, 46968, Note_on_c, 0, 70, 84
2, 46968, Note_on_c, 0, 67, 97
2, 47000, Note_off_c, 0, 67, 64
2, 47000, Note_off_c, 0, 70, 64
2, 47004, Note_off_c, 0, 61, 64
2, 47096, Note_on_c, 0, 70, 90
2, 47096, Note_on_c, 0, 61, 88
2, 47096, Note_on_c, 0, 67, 95
2, 47132, Note_off_c, 0, 67, 64
2, 47144, Note_off_c, 0, 61, 64
2, 47144, Note_off_c, 0, 70, 64
2, 47220, Note_on_c, 0, 70, 78
2, 47224, Note_on_c, 0, 61, 70
2, 47224, Note_on_c, 0, 67, 90
2, 47256, Note_off_c, 0, 67, 64
2, 47264, Note_off_c, 0, 70, 64
2, 47268, Note_off_c, 0, 61, 64
2, 47352, Note_on_c, 0, 61, 90
2, 47352, Note_on_c, 0, 70, 87
2, 47352, Note_on_c, 0, 67, 97
2, 47384, Note_off_c, 0, 67, 64
2, 47388, Note_off_c, 0, 70, 64
2, 47400, Note_off_c, 0, 61, 64
2, 47476, Note_on_c, 0, 61, 84
2, 47476, Note_on_c, 0, 70, 81
2, 47476, Note_on_c, 0, 67, 97
2, 47512, Note_off_c, 0, 70, 64
2, 47512, Note_off_c, 0, 61, 64
2, 47516, Note_off_c, 0, 67, 64
2, 47608, Note_on_c, 0, 62, 77
2, 47608, Note_on_c, 0, 65, 90
2, 47608, Note_on_c, 0, 70, 83
2, 47644, Note_off_c, 0, 70, 64
2, 47644, Note_off_c, 0, 65, 64
2, 47652, Note_off_c, 0, 62, 64
2, 47736, Note_on_c, 0, 62, 79
2, 47736, Note_on_c, 0, 70, 84
2, 47736, Note_on_c, 0, 65, 90
2, 47768, Note_off_c, 0, 65, 64
2, 47772, Note_off_c, 0, 70, 64
2, 47784, Note_off_c, 0, 62, 64
2, 47864, Note_on_c, 0, 70, 94
2, 47864, Note_on_c, 0, 62, 82
2, 47864, Note_on_c, 0, 65, 87
2, 47896, Note_off_c, 0, 65, 64
2, 47900, Note_off_c, 0, 70, 64
2, 47908, Note_off_c, 0, 62, 64
2, 47992, Note_on_c, 0, 62, 74
2, 47992, Note_on_c, 0, 65, 90
2, 47992, Note_on_c, 0, 70, 83
2, 48024, Note_off_c, 0, 65, 64
2, 48028, Note_off_c, 0, 70, 64
2, 48032, Note_off_c, 0, 62, 64
2, 48120, Note_on_c, 0, 62, 83
2, 48120, Note_on_c, 0, 70, 91
2, 48120, Note_on_c, 0, 65, 97
2, 48152, Note_off_c, 0, 65, 64
2, 48152, Note_off_c, 0, 70, 64
2, 48156, Note_off_c, 0, 62, 64
2, 48248, Note_on_c, 0, 70, 89
2, 48248, Note_on_c, 0, 62, 79
2, 48248, Note_on_c, 0, 65, 91
2, 48280, Note_off_c, 0, 65, 64
2, 48280, Note_off_c, 0, 70, 64
2, 48284, Note_off_c, 0, 62, 64
2, 48376, Note_on_c, 0, 70, 102
2, 48376, Note_on_c, 0, 62, 84
2, 48376, Note_on_c, 0, 65, 93
2, 48408, Note_off_c, 0, 65, 64
2, 48412, Note_off_c, 0, 70, 64
2, 48416, Note_off_c, 0, 62, 64
2, 48504, Note_on_c, 0, 62, 79
2, 48504, Note_on_c, 0, 70, 84
2, 48504, Note_on_c, 0, 65, 90
2, 48536, Note_off_c, 0, 65, 64
2, 48540, Note_off_c, 0, 70, 64
2, 48544, Note_off_c, 0, 62, 64
2, 48632, Note_on_c, 0, 70, 101
2, 48632, Note_on_c, 0, 62, 85
2, 48632, Note_on_c, 0, 65, 96
2, 48664, Note_off_c, 0, 65, 64
2, 48664, Note_off_c, 0, 70, 64
2, 48668, Note_off_c, 0, 62, 64
2, 48760, Note_on_c, 0, 62, 82
2, 48760, Note_on_c, 0, 70, 94
2, 48760, Note_on_c, 0, 65, 96
2, 48792, Note_off_c, 0, 65, 64
2, 48796, Note_off_c, 0, 70, 64
2, 48800, Note_off_c, 0, 62, 64
2, 48888, Note_on_c, 0, 62, 81
2, 48888, Note_on_c, 0, 70, 92
2, 48892, Note_on_c, 0, 65, 94
2, 48920, Note_off_c, 0, 65, 64
2, 48928, Note_off_c, 0, 70, 64
2, 48932, Note_off_c, 0, 62, 64
2, 49016, Note_on_c, 0, 70, 84
2, 49016, Note_on_c, 0, 62, 79
2, 49020, Note_on_c, 0, 65, 88
2, 49048, Note_off_c, 0, 65, 64
2, 49052, Note_off_c, 0, 70, 64
2, 49056, Note_off_c, 0, 62, 64
2, 49144, Note_on_c, 0, 70, 102
2, 49144, Note_on_c, 0, 62, 87
2, 49144, Note_on_c, 0, 65, 97
2, 49176, Note_off_c, 0, 65, 64
2, 49188, Note_off_c, 0, 62, 64
2, 49188, Note_off_c, 0, 70, 64
2, 49272, Note_on_c, 0, 70, 96
2, 49272, Note_on_c, 0, 62, 83
2, 49272, Note_on_c, 0, 65, 95
2, 49304, Note_off_c, 0, 65, 64
2, 49312, Note_off_c, 0, 62, 64
2, 49312, Note_off_c, 0, 70, 64
2, 49400, Note_on_c, 0, 70, 98
2, 49400, Note_on_c, 0, 62, 78
2, 49400, Note_on_c, 0, 65, 92
2, 49432, Note_off_c, 0, 65, 64
2, 49440, Note_off_c, 0, 62, 64
2, 49440, Note_off_c, 0, 70, 64
2, 49524, Note_on_c, 0, 70, 92
2, 49524, Note_on_c, 0, 62, 78
2, 49528, Note_on_c, 0, 65, 92
2, 49560, Note_off_c, 0, 65, 64
2, 49568, Note_off_c, 0, 62, 64
2, 49568, Note_off_c, 0, 70, 64
2, 49652, Note_on_c, 0, 70, 85
2, 49652, Note_on_c, 0, 62, 76
2, 49656, Note_on_c, 0, 65, 87
2, 49688, Note_off_c, 0, 65, 64
2, 49692, Note_off_c, 0, 62, 64
2, 49692, Note_off_c, 0, 70, 64
2, 49784, Note_on_c, 0, 70, 90
2, 49784, Note_on_c, 0, 65, 90
2, 49784, Note_on_c, 0, 62, 78
2, 49820, Note_off_c, 0, 65, 64
2, 49824, Note_off_c, 0, 70, 64
2, 49828, Note_off_c, 0, 62, 64
2, 49912, Note_on_c, 0, 70, 84
2, 49912, Note_on_c, 0, 62, 75
2, 49912, Note_on_c, 0, 65, 89
2, 49944, Note_off_c, 0, 65, 64
2, 49948, Note_off_c, 0, 62, 64
2, 49948, Note_off_c, 0, 70, 64
2, 50040, Note_on_c, 0, 70, 90
2, 50040, Note_on_c, 0, 62, 72
2, 50040, Note_on_c, 0, 65, 84
2, 50072, Note_off_c, 0, 65, 64
2, 50080, Note_off_c, 0, 62, 64
2, 50084, Note_off_c, 0, 70, 64
2, 50168, Note_on_c, 0, 70, 87
2, 50168, Note_on_c, 0, 62, 76
2, 50168, Note_on_c, 0, 65, 91
2, 50200, Note_off_c, 0, 65, 64
2, 50208, Note_off_c, 0, 62, 64
2, 50208, Note_off_c, 0, 70, 64
2, 50296, Note_on_c, 0, 70, 99
2, 50296, Note_on_c, 0, 62, 79
2, 50296, Note_on_c, 0, 65, 89
2, 50332, Note_off_c, 0, 65, 64
2, 50340, Note_off_c, 0, 62, 64
2, 50344, Note_off_c, 0, 70, 64
2, 50424, Note_on_c, 0, 70, 95
2, 50424, Note_on_c, 0, 62, 77
2, 50424, Note_on_c, 0, 65, 93
2, 50456, Note_off_c, 0, 65, 64
2, 50464, Note_off_c, 0, 62, 64
2, 50464, Note_off_c, 0, 70, 64
2, 50552, Note_on_c, 0, 70, 106
2, 50552, Note_on_c, 0, 62, 85
2, 50552, Note_on_c, 0, 65, 103
2, 50580, Note_off_c, 0, 65, 64
2, 50584, Note_off_c, 0, 62, 64
2, 50584, Note_off_c, 0, 70, 64
2, 50680, Note_on_c, 0, 65, 87
2, 50684, Note_on_c, 0, 69, 90
2, 50684, Note_on_c, 0, 72, 96
2, 50716, Note_off_c, 0, 69, 64
2, 50724, Note_off_c, 0, 72, 64
2, 50724, Note_off_c, 0, 65, 64
2, 50812, Note_on_c, 0, 65, 83
2, 50812, Note_on_c, 0, 72, 89
2, 50812, Note_on_c, 0, 69, 88
2, 50848, Note_off_c, 0, 69, 64
2, 50852, Note_off_c, 0, 72, 64
2, 50852, Note_off_c, 0, 65, 64
2, 50940, Note_on_c, 0, 72, 88
2, 50940, Note_on_c, 0, 65, 79
2, 50940, Note_on_c, 0, 69, 87
2, 50976, Note_off_c, 0, 69, 64
2, 50980, Note_off_c, 0, 65, 64
2, 50980, Note_off_c, 0, 72, 64
2, 51064, Note_on_c, 0, 72, 97
2, 51064, Note_on_c, 0, 65, 82
2, 51068, Note_on_c, 0, 69, 91
2, 51104, Note_off_c, 0, 69, 64
2, 51108, Note_off_c, 0, 65, 64
2, 51108, Note_off_c, 0, 72, 64
2, 51192, Note_on_c, 0, 72, 87
2, 51196, Note_on_c, 0, 65, 77
2, 51196, Note_on_c, 0, 69, 87
2, 51232, Note_off_c, 0, 69, 64
2, 51232, Note_off_c, 0, 65, 64
2, 51232, Note_off_c, 0, 72, 64
2, 51320, Note_on_c, 0, 72, 90
2, 51320, Note_on_c, 0, 65, 81
2, 51324, Note_on_c, 0, 69, 90
2, 51360, Note_off_c, 0, 69, 64
2, 51360, Note_off_c, 0, 72, 64
2, 51364, Note_off_c, 0, 65, 64
2, 51448, Note_on_c, 0, 65, 84
2, 51448, Note_on_c, 0, 72, 93
2, 51448, Note_on_c, 0, 69, 90
2, 51484, Note_off_c, 0, 69, 64
2, 51484, Note_off_c, 0, 72, 64
2, 51492, Note_off_c, 0, 65, 64
2, 51576, Note_on_c, 0, 65, 80
2, 51580, Note_on_c, 0, 72, 85
2, 51580, Note_on_c, 0, 69, 87
2, 51608, Note_off_c, 0, 69, 64
2, 51608, Note_off_c, 0, 72, 64
2, 51608, Note_off_c, 0, 65, 64
2, 51704, Note_on_c, 0, 72, 88
2, 51704, Note_on_c, 0, 65, 82
2, 51704, Note_on_c, 0, 69, 87
2, 51736, Note_off_c, 0, 69, 64
2, 51740, Note_off_c, 0, 65, 64
2, 51740, Note_off_c, 0, 72, 64
2, 51832, Note_on_c, 0, 72, 97
2, 51832, Note_on_c, 0, 65, 83
2, 51832, Note_on_c, 0, 69, 93
2, 51872, Note_off_c, 0, 69, 64
2, 51872, Note_off_c, 0, 65, 64
2, 51876, Note_off_c, 0, 72, 64
2, 51960, Note_on_c, 0, 72, 83
2, 51960, Note_on_c, 0, 65, 71
2, 51960, Note_on_c, 0, 69, 85
2, 51996, Note_off_c, 0, 69, 64
2, 52000, Note_off_c, 0, 65, 64
2, 52000, Note_off_c, 0, 72, 64
2, 52084, Note_on_c, 0, 72, 85
2, 52084, Note_on_c, 0, 65, 78
2, 52088, Note_on_c, 0, 69, 92
2, 52120, Note_off_c, 0, 69, 64
2, 52124, Note_off_c, 0, 65, 64
2, 52124, Note_off_c, 0, 72, 64
2, 52216, Note_on_c, 0, 62, 83
2, 52216, Note_on_c, 0, 65, 97
2, 52216, Note_on_c, 0, 70, 90
2, 52248, Note_off_c, 0, 70, 64
2, 52248, Note_off_c, 0, 65, 64
2, 52252, Note_off_c, 0, 62, 64
2, 52344, Note_on_c, 0, 70, 87
2, 52344, Note_on_c, 0, 65, 83
2, 52344, Note_on_c, 0, 62, 77
2, 52376, Note_off_c, 0, 65, 64
2, 52380, Note_off_c, 0, 62, 64
2, 52384, Note_off_c, 0, 70, 64
2, 52472, Note_on_c, 0, 70, 78
2, 52472, Note_on_c, 0, 65, 82
2, 52472, Note_on_c, 0, 62, 77
2, 52512, Note_off_c, 0, 65, 64
2, 52516, Note_off_c, 0, 62, 64
2, 52516, Note_off_c, 0, 70, 64
2, 52600, Note_on_c, 0, 70, 94
2, 52600, Note_on_c, 0, 62, 84
2, 52600, Note_on_c, 0, 65, 96
2, 52632, Note_off_c, 0, 65, 64
2, 52636, Note_off_c, 0, 70, 64
2, 52640, Note_off_c, 0, 62, 64
2, 52728, Note_on_c, 0, 70, 79
2, 52728, Note_on_c, 0, 65, 83
2, 52728, Note_on_c, 0, 62, 74
2, 52764, Note_off_c, 0, 62, 64
2, 52768, Note_off_c, 0, 65, 64
2, 52768, Note_off_c, 0, 70, 64
2, 52856, Note_on_c, 0, 62, 81
2, 52856, Note_on_c, 0, 70, 82
2, 52856, Note_on_c, 0, 65, 87
2, 52888, Note_off_c, 0, 65, 64
2, 52892, Note_off_c, 0, 70, 64
2, 52896, Note_off_c, 0, 62, 64
2, 52984, Note_on_c, 0, 70, 82
2, 52984, Note_on_c, 0, 62, 81
2, 52984, Note_on_c, 0, 65, 85
2, 53016, Note_off_c, 0, 65, 64
2, 53024, Note_off_c, 0, 62, 64
2, 53024, Note_off_c, 0, 70, 64
2, 53112, Note_on_c, 0, 62, 78
2, 53112, Note_on_c, 0, 70, 80
2, 53112, Note_on_c, 0, 65, 86
2, 53148, Note_off_c, 0, 65, 64
2, 53152, Note_off_c, 0, 70, 64
2, 53152, Note_off_c, 0, 62, 64
2, 53240, Note_on_c, 0, 62, 82
2, 53240, Note_on_c, 0, 70, 89
2, 53240, Note_on_c, 0, 65, 90
2, 53272, Note_off_c, 0, 65, 64
2, 53276, Note_off_c, 0, 70, 64
2, 53276, Note_off_c, 0, 62, 64
2, 53368, Note_on_c, 0, 65, 90
2, 53368, Note_on_c, 0, 70, 87
2, 53368, Note_on_c, 0, 62, 80
2, 53408, Note_off_c, 0, 65, 64
2, 53412, Note_off_c, 0, 62, 64
2, 53412, Note_off_c, 0, 70, 64
2, 53496, Note_on_c, 0, 65, 87
2, 53496, Note_on_c, 0, 62, 79
2, 53496, Note_on_c, 0, 70, 82
2, 53540, Note_off_c, 0, 70, 64
2, 53540, Note_off_c, 0, 62, 64
2, 53540, Note_off_c, 0, 65, 64
2, 53624, Note_on_c, 0, 62, 82
2, 53624, Note_on_c, 0, 70, 92
2, 53624, Note_on_c, 0, 65, 89
2, 53656, Note_off_c, 0, 65, 64
2, 53656, Note_off_c, 0, 62, 64
2, 53664, Note_off_c, 0, 70, 64
2, 53752, Note_on_c, 0, 65, 87
2, 53752, Note_on_c, 0, 72, 95
2, 53752, Note_on_c, 0, 69, 91
2, 53792, Note_off_c, 0, 69, 64
2, 53796, Note_off_c, 0, 72, 64
2, 53796, Note_off_c, 0, 65, 64
2, 53880, Note_on_c, 0, 72, 91
2, 53880, Note_on_c, 0, 65, 85
2, 53880, Note_on_c, 0, 69, 87
2, 53912, Note_off_c, 0, 69, 64
2, 53920, Note_off_c, 0, 65, 64
2, 53924, Note_off_c, 0, 72, 64
2, 54008, Note_on_c, 0, 65, 84
2, 54008, Note_on_c, 0, 72, 92
2, 54008, Note_on_c, 0, 69, 87
2, 54040, Note_off_c, 0, 69, 64
2, 54048, Note_off_c, 0, 72, 64
2, 54048, Note_off_c, 0, 65, 64
2, 54132, Note_on_c, 0, 65, 79
2, 54132, Note_on_c, 0, 69, 87
2, 54136, Note_on_c, 0, 72, 85
2, 54172, Note_off_c, 0, 69, 64
2, 54176, Note_off_c, 0, 72, 64
2, 54180, Note_off_c, 0, 65, 64
2, 54260, Note_on_c, 0, 65, 82
2, 54264, Note_on_c, 0, 72, 83
2, 54264, Note_on_c, 0, 69, 85
2, 54296, Note_off_c, 0, 69, 64
2, 54300, Note_off_c, 0, 72, 64
2, 54300, Note_off_c, 0, 65, 64
2, 54392, Note_on_c, 0, 65, 82
2, 54392, Note_on_c, 0, 69, 81
2, 54392, Note_on_c, 0, 72, 80
2, 54424, Note_off_c, 0, 69, 64
2, 54428, Note_off_c, 0, 72, 64
2, 54428, Note_off_c, 0, 65, 64
2, 54516, Note_on_c, 0, 65, 85
2, 54520, Note_on_c, 0, 72, 87
2, 54520, Note_on_c, 0, 69, 87
2, 54552, Note_off_c, 0, 69, 64
2, 54556, Note_off_c, 0, 72, 64
2, 54560, Note_off_c, 0, 65, 64
2, 54648, Note_on_c, 0, 65, 83
2, 54648, Note_on_c, 0, 72, 83
2, 54648, Note_on_c, 0, 69, 85
2, 54680, Note_off_c, 0, 69, 64
2, 54684, Note_off_c, 0, 72, 64
2, 54684, Note_off_c, 0, 65, 64
2, 54776, Note_on_c, 0, 65, 86
2, 54776, Note_on_c, 0, 72, 87
2, 54776, Note_on_c, 0, 69, 89
2, 54808, Note_off_c, 0, 69, 64
2, 54812, Note_off_c, 0, 72, 64
2, 54812, Note_off_c, 0, 65, 64
2, 54904, Note_on_c, 0, 65, 82
2, 54904, Note_on_c, 0, 72, 82
2, 54904, Note_on_c, 0, 69, 87
2, 54940, Note_off_c, 0, 69, 64
2, 54944, Note_off_c, 0, 72, 64
2, 54944, Note_off_c, 0, 65, 64
2, 55032, Note_on_c, 0, 65, 75
2, 55032, Note_on_c, 0, 72, 73
2, 55032, Note_on_c, 0, 69, 85
2, 55072, Note_off_c, 0, 69, 64
2, 55072, Note_off_c, 0, 72, 64
2, 55076, Note_off_c, 0, 65, 64
2, 55156, Note_on_c, 0, 72, 87
2, 55156, Note_on_c, 0, 65, 84
2, 55160, Note_on_c, 0, 69, 88
2, 55192, Note_off_c, 0, 69, 64
2, 55196, Note_off_c, 0, 65, 64
2, 55196, Note_off_c, 0, 72, 64
2, 55304, Note_on_c, 0, 65, 97
2, 55304, Note_on_c, 0, 70, 99
2, 55304, Note_on_c, 0, 62, 85
2, 55332, Note_off_c, 0, 65, 64
2, 55336, Note_off_c, 0, 62, 64
2, 55336, Note_off_c, 0, 70, 64
2, 55420, Note_on_c, 0, 62, 75
2, 55420, Note_on_c, 0, 70, 76
2, 55428, Note_on_c, 0, 65, 81
2, 55460, Note_off_c, 0, 65, 64
2, 55464, Note_off_c, 0, 70, 64
2, 55464, Note_off_c, 0, 62, 64
2, 55548, Note_on_c, 0, 70, 94
2, 55552, Note_on_c, 0, 62, 74
2, 55552, Note_on_c, 0, 65, 89
2, 55584, Note_off_c, 0, 65, 64
2, 55588, Note_off_c, 0, 62, 64
2, 55588, Note_off_c, 0, 70, 64
2, 55672, Note_on_c, 0, 70, 96
2, 55672, Note_on_c, 0, 62, 79
2, 55672, Note_on_c, 0, 65, 92
2, 55708, Note_off_c, 0, 65, 64
2, 55712, Note_off_c, 0, 62, 64
2, 55716, Note_off_c, 0, 70, 64
2, 55800, Note_on_c, 0, 70, 74
2, 55800, Note_on_c, 0, 62, 67
2, 55800, Note_on_c, 0, 65, 81
2, 55836, Note_off_c, 0, 65, 64
2, 55844, Note_off_c, 0, 62, 64
2, 55844, Note_off_c, 0, 70, 64
2, 55928, Note_on_c, 0, 70, 88
2, 55928, Note_on_c, 0, 62, 77
2, 55928, Note_on_c, 0, 65, 90
2, 55960, Note_off_c, 0, 65, 64
2, 55964, Note_off_c, 0, 62, 64
2, 55964, Note_off_c, 0, 70, 64
2, 56056, Note_on_c, 0, 70, 91
2, 56056, Note_on_c, 0, 62, 76
2, 56056, Note_on_c, 0, 65, 87
2, 56088, Note_off_c, 0, 65, 64
2, 56096, Note_off_c, 0, 62, 64
2, 56100, Note_off_c, 0, 70, 64
2, 56184, Note_on_c, 0, 70, 84
2, 56184, Note_on_c, 0, 65, 83
2, 56184, Note_on_c, 0, 62, 72
2, 56220, Note_off_c, 0, 65, 64
2, 56224, Note_off_c, 0, 62, 64
2, 56228, Note_off_c, 0, 70, 64
2, 56312, Note_on_c, 0, 70, 91
2, 56312, Note_on_c, 0, 62, 77
2, 56316, Note_on_c, 0, 65, 85
2, 56344, Note_off_c, 0, 65, 64
2, 56356, Note_off_c, 0, 62, 64
2, 56360, Note_off_c, 0, 70, 64
2, 56440, Note_on_c, 0, 70, 102
2, 56440, Note_on_c, 0, 62, 83
2, 56444, Note_on_c, 0, 65, 93
2, 56476, Note_off_c, 0, 65, 64
2, 56484, Note_off_c, 0, 62, 64
2, 56484, Note_off_c, 0, 70, 64
2, 56568, Note_on_c, 0, 70, 92
2, 56568, Note_on_c, 0, 62, 78
2, 56568, Note_on_c, 0, 65, 87
2, 56604, Note_off_c, 0, 65, 64
2, 56612, Note_off_c, 0, 62, 64
2, 56616, Note_off_c, 0, 70, 64
2, 56696, Note_on_c, 0, 70, 101
2, 56696, Note_on_c, 0, 62, 83
2, 56696, Note_on_c, 0, 65, 90
2, 56728, Note_off_c, 0, 65, 64
2, 56740, Note_off_c, 0, 62, 64
2, 56744, Note_off_c, 0, 70, 64
2, 56824, Note_on_c, 0, 65, 92
2, 56824, Note_on_c, 0, 68, 88
2, 56824, Note_on_c, 0, 62, 76
2, 56864, Note_off_c, 0, 68, 64
2, 56864, Note_off_c, 0, 65, 64
2, 56868, Note_off_c, 0, 62, 64
2, 56952, Note_on_c, 0, 68, 89
2, 56952, Note_on_c, 0, 62, 82
2, 56952, Note_on_c, 0, 65, 92
2, 56984, Note_off_c, 0, 65, 64
2, 56988, Note_off_c, 0, 62, 64
2, 56988, Note_off_c, 0, 68, 64
2, 57080, Note_on_c, 0, 65, 87
2, 57080, Note_on_c, 0, 62, 73
2, 57080, Note_on_c, 0, 68, 78
2, 57116, Note_off_c, 0, 68, 64
2, 57116, Note_off_c, 0, 65, 64
2, 57120, Note_off_c, 0, 62, 64
2, 57208, Note_on_c, 0, 62, 79
2, 57208, Note_on_c, 0, 68, 84
2, 57208, Note_on_c, 0, 65, 90
2, 57244, Note_off_c, 0, 65, 64
2, 57248, Note_off_c, 0, 68, 64
2, 57252, Note_off_c, 0, 62, 64
2, 57336, Note_on_c, 0, 68, 78
2, 57336, Note_on_c, 0, 62, 72
2, 57336, Note_on_c, 0, 65, 81
2, 57368, Note_off_c, 0, 65, 64
2, 57372, Note_off_c, 0, 62, 64
2, 57372, Note_off_c, 0, 68, 64
2, 57460, Note_on_c, 0, 62, 76
2, 57460, Note_on_c, 0, 68, 81
2, 57464, Note_on_c, 0, 65, 88
2, 57496, Note_off_c, 0, 65, 64
2, 57496, Note_off_c, 0, 68, 64
2, 57500, Note_off_c, 0, 62, 64
2, 57592, Note_on_c, 0, 68, 88
2, 57592, Note_on_c, 0, 62, 82
2, 57592, Note_on_c, 0, 65, 91
2, 57624, Note_off_c, 0, 65, 64
2, 57628, Note_off_c, 0, 62, 64
2, 57628, Note_off_c, 0, 68, 64
2, 57720, Note_on_c, 0, 68, 80
2, 57720, Note_on_c, 0, 65, 80
2, 57720, Note_on_c, 0, 62, 72
2, 57752, Note_off_c, 0, 65, 64
2, 57756, Note_off_c, 0, 62, 64
2, 57756, Note_off_c, 0, 68, 64
2, 57848, Note_on_c, 0, 68, 85
2, 57848, Note_on_c, 0, 65, 88
2, 57848, Note_on_c, 0, 62, 77
2, 57880, Note_off_c, 0, 62, 64
2, 57884, Note_off_c, 0, 65, 64
2, 57888, Note_off_c, 0, 68, 64
2, 57976, Note_on_c, 0, 68, 84
2, 57976, Note_on_c, 0, 62, 78
2, 57976, Note_on_c, 0, 65, 89
2, 58012, Note_off_c, 0, 65, 64
2, 58016, Note_off_c, 0, 62, 64
2, 58016, Note_off_c, 0, 68, 64
2, 58104, Note_on_c, 0, 62, 77
2, 58104, Note_on_c, 0, 68, 84
2, 58104, Note_on_c, 0, 65, 91
2, 58140, Note_off_c, 0, 65, 64
2, 58144, Note_off_c, 0, 68, 64
2, 58144, Note_off_c, 0, 62, 64
2, 58232, Note_on_c, 0, 68, 91
2, 58232, Note_on_c, 0, 62, 85
2, 58232, Note_on_c, 0, 65, 92
2, 58264, Note_off_c, 0, 65, 64
2, 58264, Note_off_c, 0, 62, 64
2, 58268, Note_off_c, 0, 68, 64
2, 58360, Note_on_c, 0, 70, 101
2, 58360, Note_on_c, 0, 63, 95
2, 58364, Note_on_c, 0, 67, 87
2, 58384, Note_off_c, 0, 67, 64
2, 58396, Note_off_c, 0, 63, 64
2, 58396, Note_off_c, 0, 70, 64
2, 58488, Note_on_c, 0, 63, 71
2, 58488, Note_on_c, 0, 70, 78
2, 58488, Note_on_c, 0, 67, 77
2, 58520, Note_off_c, 0, 67, 64
2, 58536, Note_off_c, 0, 70, 64
2, 58536, Note_off_c, 0, 63, 64
2, 58612, Note_on_c, 0, 63, 73
2, 58616, Note_on_c, 0, 70, 63
2, 58616, Note_on_c, 0, 67, 85
2, 58656, Note_off_c, 0, 67, 64
2, 58660, Note_off_c, 0, 70, 64
2, 58664, Note_off_c, 0, 63, 64
2, 58740, Note_on_c, 0, 63, 73
2, 58744, Note_on_c, 0, 70, 59
2, 58744, Note_on_c, 0, 67, 90
2, 58784, Note_off_c, 0, 67, 64
2, 58792, Note_off_c, 0, 70, 64
2, 58792, Note_off_c, 0, 63, 64
2, 58872, Note_on_c, 0, 63, 83
2, 58872, Note_on_c, 0, 70, 84
2, 58872, Note_on_c, 0, 67, 96
2, 58904, Note_off_c, 0, 67, 64
2, 58912, Note_off_c, 0, 70, 64
2, 58916, Note_off_c, 0, 63, 64
2, 59000, Note_on_c, 0, 63, 90
2, 59000, Note_on_c, 0, 70, 87
2, 59000, Note_on_c, 0, 67, 100
2, 59028, Note_off_c, 0, 67, 64
2, 59036, Note_off_c, 0, 70, 64
2, 59044, Note_off_c, 0, 63, 64
2, 59124, Note_on_c, 0, 63, 77
2, 59124, Note_on_c, 0, 70, 75
2, 59128, Note_on_c, 0, 67, 87
2, 59160, Note_off_c, 0, 67, 64
2, 59164, Note_off_c, 0, 70, 64
2, 59172, Note_off_c, 0, 63, 64
2, 59256, Note_on_c, 0, 63, 78
2, 59256, Note_on_c, 0, 70, 77
2, 59256, Note_on_c, 0, 67, 97
2, 59288, Note_off_c, 0, 67, 64
2, 59292, Note_off_c, 0, 70, 64
2, 59296, Note_off_c, 0, 63, 64
2, 59384, Note_on_c, 0, 70, 71
2, 59384, Note_on_c, 0, 63, 73
2, 59384, Note_on_c, 0, 67, 84
2, 59416, Note_off_c, 0, 67, 64
2, 59420, Note_off_c, 0, 70, 64
2, 59424, Note_off_c, 0, 63, 64
2, 59512, Note_on_c, 0, 63, 96
2, 59512, Note_on_c, 0, 70, 99
2, 59512, Note_on_c, 0, 67, 105
2, 59544, Note_off_c, 0, 67, 64
2, 59544, Note_off_c, 0, 70, 64
2, 59552, Note_off_c, 0, 63, 64
2, 59640, Note_on_c, 0, 63, 75
2, 59640, Note_on_c, 0, 70, 70
2, 59640, Note_on_c, 0, 67, 85
2, 59676, Note_off_c, 0, 67, 64
2, 59684, Note_off_c, 0, 70, 64
2, 59688, Note_off_c, 0, 63, 64
2, 59768, Note_on_c, 0, 63, 84
2, 59768, Note_on_c, 0, 70, 84
2, 59768, Note_on_c, 0, 67, 97
2, 59800, Note_off_c, 0, 63, 64
2, 59804, Note_off_c, 0, 67, 64
2, 59804, Note_off_c, 0, 70, 64
2, 59896, Note_on_c, 0, 62, 85
2, 59896, Note_on_c, 0, 70, 96
2, 59896, Note_on_c, 0, 65, 98
2, 59928, Note_off_c, 0, 65, 64
2, 59928, Note_off_c, 0, 70, 64
2, 59932, Note_off_c, 0, 62, 64
2, 60024, Note_on_c, 0, 70, 94
2, 60024, Note_on_c, 0, 62, 79
2, 60024, Note_on_c, 0, 65, 93
2, 60056, Note_off_c, 0, 65, 64
2, 60056, Note_off_c, 0, 62, 64
2, 60056, Note_off_c, 0, 70, 64
2, 60152, Note_on_c, 0, 62, 77
2, 60152, Note_on_c, 0, 65, 90
2, 60152, Note_on_c, 0, 70, 84
2, 60188, Note_off_c, 0, 70, 64
2, 60188, Note_off_c, 0, 65, 64
2, 60192, Note_off_c, 0, 62, 64
2, 60280, Note_on_c, 0, 62, 81
2, 60280, Note_on_c, 0, 70, 92
2, 60280, Note_on_c, 0, 65, 94
2, 60316, Note_off_c, 0, 65, 64
2, 60320, Note_off_c, 0, 70, 64
2, 60324, Note_off_c, 0, 62, 64
2, 60408, Note_on_c, 0, 62, 78
2, 60408, Note_on_c, 0, 70, 84
2, 60408, Note_on_c, 0, 65, 88
2, 60444, Note_off_c, 0, 65, 64
2, 60448, Note_off_c, 0, 70, 64
2, 60452, Note_off_c, 0, 62, 64
2, 60536, Note_on_c, 0, 70, 88
2, 60536, Note_on_c, 0, 62, 76
2, 60536, Note_on_c, 0, 65, 88
2, 60572, Note_off_c, 0, 65, 64
2, 60576, Note_off_c, 0, 62, 64
2, 60576, Note_off_c, 0, 70, 64
2, 60664, Note_on_c, 0, 62, 75
2, 60664, Note_on_c, 0, 65, 88
2, 60664, Note_on_c, 0, 70, 75
2, 60700, Note_off_c, 0, 70, 64
2, 60700, Note_off_c, 0, 65, 64
2, 60708, Note_off_c, 0, 62, 64
2, 60792, Note_on_c, 0, 62, 76
2, 60792, Note_on_c, 0, 70, 83
2, 60792, Note_on_c, 0, 65, 90
2, 60828, Note_off_c, 0, 65, 64
2, 60828, Note_off_c, 0, 70, 64
2, 60832, Note_off_c, 0, 62, 64
2, 60920, Note_on_c, 0, 62, 77
2, 60920, Note_on_c, 0, 65, 90
2, 60920, Note_on_c, 0, 70, 75
2, 60952, Note_off_c, 0, 70, 64
2, 60952, Note_off_c, 0, 65, 64
2, 60964, Note_off_c, 0, 62, 64
2, 61048, Note_on_c, 0, 70, 89
2, 61048, Note_on_c, 0, 62, 81
2, 61048, Note_on_c, 0, 65, 94
2, 61080, Note_off_c, 0, 65, 64
2, 61080, Note_off_c, 0, 70, 64
2, 61084, Note_off_c, 0, 62, 64
2, 61176, Note_on_c, 0, 62, 72
2, 61176, Note_on_c, 0, 70, 74
2, 61176, Note_on_c, 0, 65, 85
2, 61208, Note_off_c, 0, 65, 64
2, 61212, Note_off_c, 0, 70, 64
2, 61212, Note_off_c, 0, 62, 64
2, 61304, Note_on_c, 0, 70, 95
2, 61304, Note_on_c, 0, 62, 78
2, 61304, Note_on_c, 0, 65, 91
2, 61336, Note_off_c, 0, 65, 64
2, 61336, Note_off_c, 0, 62, 64
2, 61340, Note_off_c, 0, 70, 64
2, 61432, Note_on_c, 0, 70, 98
2, 61432, Note_on_c, 0, 62, 79
2, 61432, Note_on_c, 0, 65, 95
2, 61468, Note_off_c, 0, 65, 64
2, 61476, Note_off_c, 0, 62, 64
2, 61476, Note_off_c, 0, 70, 64
2, 61560, Note_on_c, 0, 70, 84
2, 61560, Note_on_c, 0, 62, 76
2, 61560, Note_on_c, 0, 65, 87
2, 61588, Note_off_c, 0, 65, 64
2, 61592, Note_off_c, 0, 70, 64
2, 61596, Note_off_c, 0, 62, 64
2, 61688, Note_on_c, 0, 70, 95
2, 61688, Note_on_c, 0, 62, 74
2, 61688, Note_on_c, 0, 65, 88
2, 61720, Note_off_c, 0, 65, 64
2, 61724, Note_off_c, 0, 70, 64
2, 61728, Note_off_c, 0, 62, 64
2, 61816, Note_on_c, 0, 70, 90
2, 61816, Note_on_c, 0, 62, 79
2, 61816, Note_on_c, 0, 65, 92
2, 61852, Note_off_c, 0, 65, 64
2, 61856, Note_off_c, 0, 62, 64
2, 61856, Note_off_c, 0, 70, 64
2, 61944, Note_on_c, 0, 62, 76
2, 61944, Note_on_c, 0, 70, 87
2, 61944, Note_on_c, 0, 65, 89
2, 61976, Note_off_c, 0, 65, 64
2, 61980, Note_off_c, 0, 70, 64
2, 61980, Note_off_c, 0, 62, 64
2, 62072, Note_on_c, 0, 70, 85
2, 62072, Note_on_c, 0, 62, 71
2, 62072, Note_on_c, 0, 65, 85
2, 62104, Note_off_c, 0, 65, 64
2, 62108, Note_off_c, 0, 62, 64
2, 62112, Note_off_c, 0, 70, 64
2, 62200, Note_on_c, 0, 70, 96
2, 62200, Note_on_c, 0, 62, 77
2, 62200, Note_on_c, 0, 65, 90
2, 62232, Note_off_c, 0, 65, 64
2, 62232, Note_off_c, 0, 62, 64
2, 62236, Note_off_c, 0, 70, 64
2, 62328, Note_on_c, 0, 70, 92
2, 62328, Note_on_c, 0, 62, 77
2, 62328, Note_on_c, 0, 65, 90
2, 62356, Note_off_c, 0, 65, 64
2, 62360, Note_off_c, 0, 62, 64
2, 62360, Note_off_c, 0, 70, 64
2, 62456, Note_on_c, 0, 70, 92
2, 62456, Note_on_c, 0, 62, 75
2, 62456, Note_on_c, 0, 65, 86
2, 62484, Note_off_c, 0, 65, 64
2, 62488, Note_off_c, 0, 62, 64
2, 62488, Note_off_c, 0, 70, 64
2, 62584, Note_on_c, 0, 70, 91
2, 62584, Note_on_c, 0, 62, 79
2, 62584, Note_on_c, 0, 65, 88
2, 62616, Note_off_c, 0, 65, 64
2, 62616, Note_off_c, 0, 70, 64
2, 62620, Note_off_c, 0, 62, 64
2, 62712, Note_on_c, 0, 62, 81
2, 62712, Note_on_c, 0, 70, 94
2, 62712, Note_on_c, 0, 65, 93
2, 62748, Note_off_c, 0, 65, 64
2, 62752, Note_off_c, 0, 70, 64
2, 62752, Note_off_c, 0, 62, 64
2, 62840, Note_on_c, 0, 70, 104
2, 62840, Note_on_c, 0, 62, 87
2, 62840, Note_on_c, 0, 65, 98
2, 62868, Note_off_c, 0, 65, 64
2, 62868, Note_off_c, 0, 70, 64
2, 62872, Note_off_c, 0, 62, 64
2, 62968, Note_on_c, 0, 65, 82
2, 62968, Note_on_c, 0, 69, 83
2, 62968, Note_on_c, 0, 72, 89
2, 63000, Note_off_c, 0, 69, 64
2, 63004, Note_off_c, 0, 65, 64
2, 63008, Note_off_c, 0, 72, 64
2, 63096, Note_on_c, 0, 72, 90
2, 63096, Note_on_c, 0, 65, 85
2, 63096, Note_on_c, 0, 69, 90
2, 63128, Note_off_c, 0, 69, 64
2, 63128, Note_off_c, 0, 65, 64
2, 63132, Note_off_c, 0, 72, 64
2, 63228, Note_on_c, 0, 65, 81
2, 63228, Note_on_c, 0, 72, 80
2, 63232, Note_on_c, 0, 69, 81
2, 63260, Note_off_c, 0, 69, 64
2, 63264, Note_off_c, 0, 72, 64
2, 63264, Note_off_c, 0, 65, 64
2, 63356, Note_on_c, 0, 72, 84
2, 63360, Note_on_c, 0, 69, 84
2, 63360, Note_on_c, 0, 65, 79
2, 63392, Note_off_c, 0, 65, 64
2, 63392, Note_off_c, 0, 69, 64
2, 63392, Note_off_c, 0, 72, 64
2, 63484, Note_on_c, 0, 72, 92
2, 63484, Note_on_c, 0, 65, 83
2, 63484, Note_on_c, 0, 69, 90
2, 63516, Note_off_c, 0, 69, 64
2, 63520, Note_off_c, 0, 65, 64
2, 63520, Note_off_c, 0, 72, 64
2, 63612, Note_on_c, 0, 72, 90
2, 63612, Note_on_c, 0, 65, 83
2, 63612, Note_on_c, 0, 69, 91
2, 63648, Note_off_c, 0, 69, 64
2, 63648, Note_off_c, 0, 65, 64
2, 63648, Note_off_c, 0, 72, 64
2, 63736, Note_on_c, 0, 72, 89
2, 63740, Note_on_c, 0, 69, 87
2, 63740, Note_on_c, 0, 65, 82
2, 63772, Note_off_c, 0, 65, 64
2, 63772, Note_off_c, 0, 69, 64
2, 63776, Note_off_c, 0, 72, 64
2, 63864, Note_on_c, 0, 72, 85
2, 63864, Note_on_c, 0, 69, 84
2, 63864, Note_on_c, 0, 65, 77
2, 63900, Note_off_c, 0, 65, 64
2, 63900, Note_off_c, 0, 69, 64
2, 63904, Note_off_c, 0, 72, 64
2, 63992, Note_on_c, 0, 72, 86
2, 63992, Note_on_c, 0, 69, 84
2, 63992, Note_on_c, 0, 65, 77
2, 64032, Note_off_c, 0, 65, 64
2, 64036, Note_off_c, 0, 69, 64
2, 64040, Note_off_c, 0, 72, 64
2, 64120, Note_on_c, 0, 72, 86
2, 64120, Note_on_c, 0, 69, 83
2, 64120, Note_on_c, 0, 65, 77
2, 64164, Note_off_c, 0, 65, 64
2, 64164, Note_off_c, 0, 69, 64
2, 64164, Note_off_c, 0, 72, 64
2, 64248, Note_on_c, 0, 72, 89
2, 64248, Note_on_c, 0, 65, 79
2, 64248, Note_on_c, 0, 69, 85
2, 64288, Note_off_c, 0, 69, 64
2, 64288, Note_off_c, 0, 65, 64
2, 64288, Note_off_c, 0, 72, 64
2, 64376, Note_on_c, 0, 72, 89
2, 64376, Note_on_c, 0, 65, 81
2, 64376, Note_on_c, 0, 69, 91
2, 64408, Note_off_c, 0, 69, 64
2, 64408, Note_off_c, 0, 65, 64
2, 64416, Note_off_c, 0, 72, 64
2, 64504, Note_on_c, 0, 62, 87
2, 64504, Note_on_c, 0, 65, 93
2, 64504, Note_on_c, 0, 70, 91
2, 64536, Note_off_c, 0, 70, 64
2, 64536, Note_off_c, 0, 65, 64
2, 64540, Note_off_c, 0, 62, 64
2, 64632, Note_on_c, 0, 70, 88
2, 64632, Note_on_c, 0, 62, 76
2, 64632, Note_on_c, 0, 65, 85
2, 64664, Note_off_c, 0, 65, 64
2, 64668, Note_off_c, 0, 62, 64
2, 64668, Note_off_c, 0, 70, 64
2, 64760, Note_on_c, 0, 70, 84
2, 64760, Note_on_c, 0, 65, 83
2, 64760, Note_on_c, 0, 62, 76
2, 64792, Note_off_c, 0, 62, 64
2, 64792, Note_off_c, 0, 70, 64
2, 64796, Note_off_c, 0, 65, 64
2, 64888, Note_on_c, 0, 62, 77
2, 64888, Note_on_c, 0, 70, 84
2, 64888, Note_on_c, 0, 65, 85
2, 64924, Note_off_c, 0, 65, 64
2, 64928, Note_off_c, 0, 70, 64
2, 64932, Note_off_c, 0, 62, 64
2, 65012, Note_on_c, 0, 70, 90
2, 65012, Note_on_c, 0, 62, 80
2, 65012, Note_on_c, 0, 65, 87
2, 65048, Note_off_c, 0, 65, 64
2, 65048, Note_off_c, 0, 62, 64
2, 65048, Note_off_c, 0, 70, 64
2, 65140, Note_on_c, 0, 70, 88
2, 65140, Note_on_c, 0, 62, 81
2, 65140, Note_on_c, 0, 65, 85
2, 65176, Note_off_c, 0, 65, 64
2, 65176, Note_off_c, 0, 62, 64
2, 65176, Note_off_c, 0, 70, 64
2, 65272, Note_on_c, 0, 70, 85
2, 65272, Note_on_c, 0, 62, 78
2, 65272, Note_on_c, 0, 65, 85
2, 65304, Note_off_c, 0, 65, 64
2, 65304, Note_off_c, 0, 62, 64
2, 65304, Note_off_c, 0, 70, 64
2, 65400, Note_on_c, 0, 70, 85
2, 65400, Note_on_c, 0, 65, 81
2, 65400, Note_on_c, 0, 62, 73
2, 65432, Note_off_c, 0, 62, 64
2, 65432, Note_off_c, 0, 65, 64
2, 65436, Note_off_c, 0, 70, 64
2, 65528, Note_on_c, 0, 70, 85
2, 65528, Note_on_c, 0, 65, 85
2, 65528, Note_on_c, 0, 62, 79
2, 65560, Note_off_c, 0, 62, 64
2, 65560, Note_off_c, 0, 65, 64
2, 65560, Note_off_c, 0, 70, 64
2, 65656, Note_on_c, 0, 70, 84
2, 65656, Note_on_c, 0, 62, 84
2, 65656, Note_on_c, 0, 65, 84
2, 65688, Note_off_c, 0, 65, 64
2, 65688, Note_off_c, 0, 70, 64
2, 65696, Note_off_c, 0, 62, 64
2, 65784, Note_on_c, 0, 70, 89
2, 65784, Note_on_c, 0, 62, 85
2, 65784, Note_on_c, 0, 65, 85
2, 65812, Note_off_c, 0, 65, 64
2, 65816, Note_off_c, 0, 70, 64
2, 65824, Note_off_c, 0, 62, 64
2, 65912, Note_on_c, 0, 62, 83
2, 65912, Note_on_c, 0, 70, 84
2, 65912, Note_on_c, 0, 65, 87
2, 65940, Note_off_c, 0, 70, 64
2, 65944, Note_off_c, 0, 65, 64
2, 65948, Note_off_c, 0, 62, 64
2, 66040, Note_on_c, 0, 62, 83
2, 66040, Note_on_c, 0, 70, 88
2, 66040, Note_on_c, 0, 65, 90
2, 66072, Note_off_c, 0, 65, 64
2, 66072, Note_off_c, 0, 70, 64
2, 66076, Note_off_c, 0, 62, 64
2, 66168, Note_on_c, 0, 70, 84
2, 66168, Note_on_c, 0, 62, 77
2, 66168, Note_on_c, 0, 65, 86
2, 66200, Note_off_c, 0, 65, 64
2, 66200, Note_off_c, 0, 62, 64
2, 66200, Note_off_c, 0, 70, 64
2, 66296, Note_on_c, 0, 70, 88
2, 66296, Note_on_c, 0, 62, 81
2, 66296, Note_on_c, 0, 65, 87
2, 66324, Note_off_c, 0, 65, 64
2, 66324, Note_off_c, 0, 70, 64
2, 66328, Note_off_c, 0, 62, 64
2, 66424, Note_on_c, 0, 70, 89
2, 66424, Note_on_c, 0, 65, 87
2, 66424, Note_on_c, 0, 62, 78
2, 66456, Note_off_c, 0, 62, 64
2, 66456, Note_off_c, 0, 65, 64
2, 66456, Note_off_c, 0, 70, 64
2, 66552, Note_on_c, 0, 70, 85
2, 66552, Note_on_c, 0, 62, 79
2, 66552, Note_on_c, 0, 65, 87
2, 66580, Note_off_c, 0, 70, 64
2, 66584, Note_off_c, 0, 65, 64
2, 66584, Note_off_c, 0, 62, 64
2, 66680, Note_on_c, 0, 70, 88
2, 66680, Note_on_c, 0, 62, 83
2, 66680, Note_on_c, 0, 65, 89
2, 66708, Note_off_c, 0, 65, 64
2, 66712, Note_off_c, 0, 62, 64
2, 66712, Note_off_c, 0, 70, 64
2, 66808, Note_on_c, 0, 70, 84
2, 66808, Note_on_c, 0, 62, 78
2, 66808, Note_on_c, 0, 65, 85
2, 66836, Note_off_c, 0, 70, 64
2, 66840, Note_off_c, 0, 65, 64
2, 66840, Note_off_c, 0, 62, 64
2, 66936, Note_on_c, 0, 70, 89
2, 66936, Note_on_c, 0, 62, 85
2, 66936, Note_on_c, 0, 65, 90
2, 66964, Note_off_c, 0, 65, 64
2, 66964, Note_off_c, 0, 70, 64
2, 66968, Note_off_c, 0, 62, 64
2, 67064, Note_on_c, 0, 70, 88
2, 67064, Note_on_c, 0, 62, 83
2, 67064, Note_on_c, 0, 65, 91
2, 67092, Note_off_c, 0, 70, 64
2, 67096, Note_off_c, 0, 65, 64
2, 67096, Note_off_c, 0, 62, 64
2, 67192, Note_on_c, 0, 70, 88
2, 67192, Note_on_c, 0, 62, 81
2, 67192, Note_on_c, 0, 65, 91
2, 67224, Note_off_c, 0, 65, 64
2, 67224, Note_off_c, 0, 70, 64
2, 67228, Note_off_c, 0, 62, 64
2, 67320, Note_on_c, 0, 70, 96
2, 67320, Note_on_c, 0, 62, 88
2, 67320, Note_on_c, 0, 65, 97
2, 67352, Note_off_c, 0, 65, 64
2, 67352, Note_off_c, 0, 70, 64
2, 67356, Note_off_c, 0, 62, 64
2, 67448, Note_on_c, 0, 70, 98
2, 67448, Note_on_c, 0, 62, 87
2, 67448, Note_on_c, 0, 65, 97
2, 67472, Note_off_c, 0, 65, 64
2, 67476, Note_off_c, 0, 62, 64
2, 67476, Note_off_c, 0, 70, 64
2, 67576, Note_on_c, 0, 63, 95
2, 67576, Note_on_c, 0, 70, 102
2, 67576, Note_on_c, 0, 67, 97
2, 67612, Note_off_c, 0, 67, 64
2, 67620, Note_off_c, 0, 70, 64
2, 67620, Note_off_c, 0, 63, 64
2, 67704, Note_on_c, 0, 70, 83
2, 67704, Note_on_c, 0, 63, 83
2, 67704, Note_on_c, 0, 67, 92
2, 67736, Note_off_c, 0, 67, 64
2, 67736, Note_off_c, 0, 63, 64
2, 67740, Note_off_c, 0, 70, 64
2, 67832, Note_on_c, 0, 70, 87
2, 67832, Note_on_c, 0, 63, 82
2, 67832, Note_on_c, 0, 67, 97
2, 67860, Note_off_c, 0, 67, 64
2, 67868, Note_off_c, 0, 63, 64
2, 67868, Note_off_c, 0, 70, 64
2, 67960, Note_on_c, 0, 63, 88
2, 67960, Note_on_c, 0, 70, 84
2, 67960, Note_on_c, 0, 67, 100
2, 67988, Note_off_c, 0, 67, 64
2, 67992, Note_off_c, 0, 70, 64
2, 67992, Note_off_c, 0, 63, 64
2, 68088, Note_on_c, 0, 63, 77
2, 68088, Note_on_c, 0, 70, 54
2, 68088, Note_on_c, 0, 67, 83
2, 68112, Note_off_c, 0, 67, 64
2, 68116, Note_off_c, 0, 70, 64
2, 68124, Note_off_c, 0, 63, 64
2, 68212, Note_on_c, 0, 63, 84
2, 68216, Note_on_c, 0, 67, 97
2, 68216, Note_on_c, 0, 70, 73
2, 68240, Note_off_c, 0, 70, 64
2, 68244, Note_off_c, 0, 67, 64
2, 68248, Note_off_c, 0, 63, 64
2, 68340, Note_on_c, 0, 63, 85
2, 68340, Note_on_c, 0, 70, 84
2, 68344, Note_on_c, 0, 67, 98
2, 68372, Note_off_c, 0, 67, 64
2, 68376, Note_off_c, 0, 70, 64
2, 68376, Note_off_c, 0, 63, 64
2, 68472, Note_on_c, 0, 63, 82
2, 68472, Note_on_c, 0, 70, 73
2, 68472, Note_on_c, 0, 67, 94
2, 68500, Note_off_c, 0, 67, 64
2, 68500, Note_off_c, 0, 70, 64
2, 68504, Note_off_c, 0, 63, 64
2, 68600, Note_on_c, 0, 63, 87
2, 68600, Note_on_c, 0, 70, 79
2, 68600, Note_on_c, 0, 67, 95
2, 68632, Note_off_c, 0, 67, 64
2, 68632, Note_off_c, 0, 70, 64
2, 68632, Note_off_c, 0, 63, 64
2, 68728, Note_on_c, 0, 63, 98
2, 68728, Note_on_c, 0, 70, 88
2, 68728, Note_on_c, 0, 67, 103
2, 68756, Note_off_c, 0, 67, 64
2, 68760, Note_off_c, 0, 70, 64
2, 68760, Note_off_c, 0, 63, 64
2, 68856, Note_on_c, 0, 63, 89
2, 68856, Note_on_c, 0, 70, 78
2, 68856, Note_on_c, 0, 67, 97
2, 68884, Note_off_c, 0, 67, 64
2, 68888, Note_off_c, 0, 70, 64
2, 68888, Note_off_c, 0, 63, 64
2, 68984, Note_on_c, 0, 63, 102
2, 68984, Note_on_c, 0, 70, 96
2, 68984, Note_on_c, 0, 67, 107
2, 69012, Note_off_c, 0, 67, 64
2, 69016, Note_off_c, 0, 63, 64
2, 69020, Note_off_c, 0, 70, 64
2, 69112, Note_on_c, 0, 70, 84
2, 69112, Note_on_c, 0, 67, 94
2, 69112, Note_on_c, 0, 64, 88
2, 69144, Note_off_c, 0, 64, 64
2, 69144, Note_off_c, 0, 67, 64
2, 69148, Note_off_c, 0, 70, 64
2, 69240, Note_on_c, 0, 70, 71
2, 69240, Note_on_c, 0, 64, 78
2, 69240, Note_on_c, 0, 67, 81
2, 69276, Note_off_c, 0, 67, 64
2, 69276, Note_off_c, 0, 64, 64
2, 69276, Note_off_c, 0, 70, 64
2, 69368, Note_on_c, 0, 70, 92
2, 69368, Note_on_c, 0, 64, 85
2, 69368, Note_on_c, 0, 67, 90
2, 69400, Note_off_c, 0, 67, 64
2, 69404, Note_off_c, 0, 64, 64
2, 69404, Note_off_c, 0, 70, 64
2, 69496, Note_on_c, 0, 70, 99
2, 69496, Note_on_c, 0, 64, 93
2, 69496, Note_on_c, 0, 67, 101
2, 69528, Note_off_c, 0, 67, 64
2, 69528, Note_off_c, 0, 64, 64
2, 69536, Note_off_c, 0, 70, 64
2, 69624, Note_on_c, 0, 70, 101
2, 69624, Note_on_c, 0, 64, 87
2, 69624, Note_on_c, 0, 67, 97
2, 69656, Note_off_c, 0, 67, 64
2, 69656, Note_off_c, 0, 64, 64
2, 69664, Note_off_c, 0, 70, 64
2, 69752, Note_on_c, 0, 70, 101
2, 69752, Note_on_c, 0, 64, 91
2, 69752, Note_on_c, 0, 67, 100
2, 69784, Note_off_c, 0, 67, 64
2, 69788, Note_off_c, 0, 64, 64
2, 69792, Note_off_c, 0, 70, 64
2, 69880, Note_on_c, 0, 70, 104
2, 69880, Note_on_c, 0, 64, 96
2, 69880, Note_on_c, 0, 67, 102
2, 69912, Note_off_c, 0, 67, 64
2, 69912, Note_off_c, 0, 64, 64
2, 69916, Note_off_c, 0, 70, 64
2, 70008, Note_on_c, 0, 70, 88
2, 70008, Note_on_c, 0, 67, 88
2, 70008, Note_on_c, 0, 64, 77
2, 70036, Note_off_c, 0, 64, 64
2, 70040, Note_off_c, 0, 67, 64
2, 70040, Note_off_c, 0, 70, 64
2, 70136, Note_on_c, 0, 70, 92
2, 70136, Note_on_c, 0, 67, 94
2, 70136, Note_on_c, 0, 64, 86
2, 70168, Note_off_c, 0, 64, 64
2, 70168, Note_off_c, 0, 67, 64
2, 70168, Note_off_c, 0, 70, 64
2, 70264, Note_on_c, 0, 70, 88
2, 70264, Note_on_c, 0, 67, 91
2, 70264, Note_on_c, 0, 64, 83
2, 70296, Note_off_c, 0, 64, 64
2, 70296, Note_off_c, 0, 67, 64
2, 70296, Note_off_c, 0, 70, 64
2, 70392, Note_on_c, 0, 70, 98
2, 70392, Note_on_c, 0, 67, 101
2, 70392, Note_on_c, 0, 64, 91
2, 70424, Note_off_c, 0, 64, 64
2, 70424, Note_off_c, 0, 67, 64
2, 70424, Note_off_c, 0, 70, 64
2, 70520, Note_on_c, 0, 70, 94
2, 70520, Note_on_c, 0, 67, 95
2, 70520, Note_on_c, 0, 64, 84
2, 70548, Note_off_c, 0, 64, 64
2, 70552, Note_off_c, 0, 67, 64
2, 70552, Note_off_c, 0, 70, 64
2, 70648, Note_on_c, 0, 62, 97
2, 70648, Note_on_c, 0, 65, 104
2, 70652, Note_on_c, 0, 70, 95
2, 70676, Note_off_c, 0, 65, 64
2, 70680, Note_off_c, 0, 70, 64
2, 70684, Note_off_c, 0, 62, 64
2, 70776, Note_on_c, 0, 70, 101
2, 70776, Note_on_c, 0, 62, 86
2, 70784, Note_on_c, 0, 65, 85
2, 70804, Note_off_c, 0, 65, 64
2, 70816, Note_off_c, 0, 62, 64
2, 70816, Note_off_c, 0, 70, 64
2, 70904, Note_on_c, 0, 70, 99
2, 70904, Note_on_c, 0, 62, 88
2, 70908, Note_on_c, 0, 65, 95
2, 70936, Note_off_c, 0, 65, 64
2, 70944, Note_off_c, 0, 62, 64
2, 70944, Note_off_c, 0, 70, 64
2, 71032, Note_on_c, 0, 62, 83
2, 71032, Note_on_c, 0, 70, 94
2, 71032, Note_on_c, 0, 65, 95
2, 71064, Note_off_c, 0, 65, 64
2, 71068, Note_off_c, 0, 70, 64
2, 71072, Note_off_c, 0, 62, 64
2, 71160, Note_on_c, 0, 70, 101
2, 71160, Note_on_c, 0, 62, 87
2, 71160, Note_on_c, 0, 65, 97
2, 71192, Note_off_c, 0, 65, 64
2, 71196, Note_off_c, 0, 62, 64
2, 71196, Note_off_c, 0, 70, 64
2, 71288, Note_on_c, 0, 70, 98
2, 71288, Note_on_c, 0, 62, 85
2, 71288, Note_on_c, 0, 65, 91
2, 71320, Note_off_c, 0, 65, 64
2, 71324, Note_off_c, 0, 70, 64
2, 71328, Note_off_c, 0, 62, 64
2, 71416, Note_on_c, 0, 70, 96
2, 71416, Note_on_c, 0, 62, 89
2, 71416, Note_on_c, 0, 65, 97
2, 71444, Note_off_c, 0, 65, 64
2, 71448, Note_off_c, 0, 70, 64
2, 71452, Note_off_c, 0, 62, 64
2, 71548, Note_on_c, 0, 70, 89
2, 71548, Note_on_c, 0, 62, 79
2, 71548, Note_on_c, 0, 65, 91
2, 71576, Note_off_c, 0, 65, 64
2, 71576, Note_off_c, 0, 62, 64
2, 71576, Note_off_c, 0, 70, 64
2, 71672, Note_on_c, 0, 70, 94
2, 71672, Note_on_c, 0, 62, 81
2, 71672, Note_on_c, 0, 65, 90
2, 71704, Note_off_c, 0, 65, 64
2, 71704, Note_off_c, 0, 62, 64
2, 71704, Note_off_c, 0, 70, 64
2, 71800, Note_on_c, 0, 70, 96
2, 71800, Note_on_c, 0, 62, 84
2, 71800, Note_on_c, 0, 65, 95
2, 71832, Note_off_c, 0, 65, 64
2, 71832, Note_off_c, 0, 62, 64
2, 71836, Note_off_c, 0, 70, 64
2, 71928, Note_on_c, 0, 70, 88
2, 71928, Note_on_c, 0, 62, 81
2, 71928, Note_on_c, 0, 65, 89
2, 71964, Note_off_c, 0, 65, 64
2, 71968, Note_off_c, 0, 62, 64
2, 71968, Note_off_c, 0, 70, 64
2, 72056, Note_on_c, 0, 70, 101
2, 72056, Note_on_c, 0, 62, 87
2, 72056, Note_on_c, 0, 65, 98
2, 72088, Note_off_c, 0, 65, 64
2, 72092, Note_off_c, 0, 62, 64
2, 72092, Note_off_c, 0, 70, 64
2, 72184, Note_on_c, 0, 70, 96
2, 72184, Note_on_c, 0, 62, 83
2, 72184, Note_on_c, 0, 65, 96
2, 72216, Note_off_c, 0, 65, 64
2, 72216, Note_off_c, 0, 62, 64
2, 72220, Note_off_c, 0, 70, 64
2, 72312, Note_on_c, 0, 70, 91
2, 72312, Note_on_c, 0, 62, 73
2, 72312, Note_on_c, 0, 65, 87
2, 72344, Note_off_c, 0, 65, 64
2, 72344, Note_off_c, 0, 62, 64
2, 72344, Note_off_c, 0, 70, 64
2, 72440, Note_on_c, 0, 70, 99
2, 72440, Note_on_c, 0, 62, 81
2, 72440, Note_on_c, 0, 65, 92
2, 72472, Note_off_c, 0, 65, 64
2, 72472, Note_off_c, 0, 62, 64
2, 72476, Note_off_c, 0, 70, 64
2, 72568, Note_on_c, 0, 70, 98
2, 72568, Note_on_c, 0, 62, 79
2, 72568, Note_on_c, 0, 65, 92
2, 72604, Note_off_c, 0, 65, 64
2, 72604, Note_off_c, 0, 62, 64
2, 72608, Note_off_c, 0, 70, 64
2, 72696, Note_on_c, 0, 70, 90
2, 72696, Note_on_c, 0, 65, 87
2, 72696, Note_on_c, 0, 62, 73
2, 72736, Note_off_c, 0, 62, 64
2, 72736, Note_off_c, 0, 65, 64
2, 72744, Note_off_c, 0, 70, 64
2, 72824, Note_on_c, 0, 70, 101
2, 72824, Note_on_c, 0, 62, 76
2, 72824, Note_on_c, 0, 65, 93
2, 72856, Note_off_c, 0, 65, 64
2, 72860, Note_off_c, 0, 62, 64
2, 72864, Note_off_c, 0, 70, 64
2, 72952, Note_on_c, 0, 65, 97
2, 72952, Note_on_c, 0, 62, 79
2, 72952, Note_on_c, 0, 68, 85
2, 72984, Note_off_c, 0, 68, 64
2, 72984, Note_off_c, 0, 65, 64
2, 72988, Note_off_c, 0, 62, 64
2, 73080, Note_on_c, 0, 68, 84
2, 73080, Note_on_c, 0, 62, 78
2, 73080, Note_on_c, 0, 65, 91
2, 73112, Note_off_c, 0, 65, 64
2, 73112, Note_off_c, 0, 68, 64
2, 73116, Note_off_c, 0, 62, 64
2, 73208, Note_on_c, 0, 62, 82
2, 73208, Note_on_c, 0, 65, 97
2, 73208, Note_on_c, 0, 68, 84
2, 73236, Note_off_c, 0, 68, 64
2, 73240, Note_off_c, 0, 65, 64
2, 73240, Note_off_c, 0, 62, 64
2, 73336, Note_on_c, 0, 62, 79
2, 73336, Note_on_c, 0, 65, 93
2, 73336, Note_on_c, 0, 68, 84
2, 73368, Note_off_c, 0, 68, 64
2, 73368, Note_off_c, 0, 65, 64
2, 73372, Note_off_c, 0, 62, 64
2, 73464, Note_on_c, 0, 62, 81
2, 73464, Note_on_c, 0, 65, 96
2, 73464, Note_on_c, 0, 68, 85
2, 73492, Note_off_c, 0, 68, 64
2, 73496, Note_off_c, 0, 65, 64
2, 73496, Note_off_c, 0, 62, 64
2, 73592, Note_on_c, 0, 68, 95
2, 73592, Note_on_c, 0, 65, 101
2, 73592, Note_on_c, 0, 62, 87
2, 73620, Note_off_c, 0, 62, 64
2, 73620, Note_off_c, 0, 65, 64
2, 73620, Note_off_c, 0, 68, 64
2, 73720, Note_on_c, 0, 70, 94
2, 73720, Note_on_c, 0, 63, 84
2, 73724, Note_on_c, 0, 67, 87
2, 73744, Note_off_c, 0, 67, 64
2, 73752, Note_off_c, 0, 63, 64
2, 73756, Note_off_c, 0, 70, 64
2, 73848, Note_on_c, 0, 63, 95
2, 73848, Note_on_c, 0, 70, 90
2, 73848, Note_on_c, 0, 67, 102
2, 73880, Note_off_c, 0, 67, 64
2, 73880, Note_off_c, 0, 70, 64
2, 73880, Note_off_c, 0, 63, 64
2, 73976, Note_on_c, 0, 70, 75
2, 73976, Note_on_c, 0, 63, 79
2, 73976, Note_on_c, 0, 67, 94
2, 74004, Note_off_c, 0, 67, 64
2, 74004, Note_off_c, 0, 70, 64
2, 74008, Note_off_c, 0, 63, 64
2, 74100, Note_on_c, 0, 63, 85
2, 74100, Note_on_c, 0, 70, 83
2, 74100, Note_on_c, 0, 67, 100
2, 74128, Note_off_c, 0, 67, 64
2, 74128, Note_off_c, 0, 70, 64
2, 74128, Note_off_c, 0, 63, 64
2, 74228, Note_on_c, 0, 70, 89
2, 74228, Note_on_c, 0, 63, 87
2, 74228, Note_on_c, 0, 67, 97
2, 74252, Note_off_c, 0, 67, 64
2, 74260, Note_off_c, 0, 63, 64
2, 74260, Note_off_c, 0, 70, 64
2, 74352, Note_on_c, 0, 70, 91
2, 74352, Note_on_c, 0, 63, 87
2, 74352, Note_on_c, 0, 67, 98
2, 74380, Note_off_c, 0, 67, 64
2, 74380, Note_off_c, 0, 63, 64
2, 74388, Note_off_c, 0, 70, 64
2, 74484, Note_on_c, 0, 70, 89
2, 74484, Note_on_c, 0, 63, 84
2, 74488, Note_on_c, 0, 67, 96
2, 74508, Note_off_c, 0, 67, 64
2, 74516, Note_off_c, 0, 63, 64
2, 74520, Note_off_c, 0, 70, 64
2, 74616, Note_on_c, 0, 70, 88
2, 74616, Note_on_c, 0, 63, 84
2, 74616, Note_on_c, 0, 67, 95
2, 74640, Note_off_c, 0, 67, 64
2, 74644, Note_off_c, 0, 63, 64
2, 74644, Note_off_c, 0, 70, 64
2, 74744, Note_on_c, 0, 70, 83
2, 74744, Note_on_c, 0, 63, 78
2, 74744, Note_on_c, 0, 67, 89
2, 74768, Note_off_c, 0, 67, 64
2, 74776, Note_off_c, 0, 63, 64
2, 74776, Note_off_c, 0, 70, 64
2, 74872, Note_on_c, 0, 63, 94
2, 74872, Note_on_c, 0, 70, 91
2, 74872, Note_on_c, 0, 67, 98
2, 74892, Note_off_c, 0, 67, 64
2, 74900, Note_off_c, 0, 70, 64
2, 74904, Note_off_c, 0, 63, 64
2, 75000, Note_on_c, 0, 63, 92
2, 75000, Note_on_c, 0, 70, 95
2, 75000, Note_on_c, 0, 67, 101
2, 75028, Note_off_c, 0, 67, 64
2, 75032, Note_off_c, 0, 70, 64
2, 75032, Note_off_c, 0, 63, 64
2, 75128, Note_on_c, 0, 70, 95
2, 75128, Note_on_c, 0, 63, 99
2, 75128, Note_on_c, 0, 67, 101
2, 75160, Note_off_c, 0, 67, 64
2, 75160, Note_off_c, 0, 63, 64
2, 75160, Note_off_c, 0, 70, 64
2, 75256, Note_on_c, 0, 70, 90
2, 75256, Note_on_c, 0, 64, 79
2, 75260, Note_on_c, 0, 67, 69
2, 75280, Note_off_c, 0, 67, 64
2, 75288, Note_off_c, 0, 64, 64
2, 75296, Note_off_c, 0, 70, 64
2, 75384, Note_on_c, 0, 70, 94
2, 75384, Note_on_c, 0, 67, 98
2, 75384, Note_on_c, 0, 64, 92
2, 75416, Note_off_c, 0, 64, 64
2, 75416, Note_off_c, 0, 67, 64
2, 75416, Note_off_c, 0, 70, 64
2, 75512, Note_on_c, 0, 70, 94
2, 75512, Note_on_c, 0, 67, 98
2, 75512, Note_on_c, 0, 64, 89
2, 75544, Note_off_c, 0, 64, 64
2, 75548, Note_off_c, 0, 67, 64
2, 75548, Note_off_c, 0, 70, 64
2, 75640, Note_on_c, 0, 70, 98
2, 75640, Note_on_c, 0, 67, 102
2, 75640, Note_on_c, 0, 64, 95
2, 75672, Note_off_c, 0, 64, 64
2, 75672, Note_off_c, 0, 67, 64
2, 75676, Note_off_c, 0, 70, 64
2, 75768, Note_on_c, 0, 70, 92
2, 75768, Note_on_c, 0, 64, 92
2, 75768, Note_on_c, 0, 67, 94
2, 75800, Note_off_c, 0, 67, 64
2, 75800, Note_off_c, 0, 70, 64
2, 75804, Note_off_c, 0, 64, 64
2, 75896, Note_on_c, 0, 70, 89
2, 75896, Note_on_c, 0, 64, 90
2, 75896, Note_on_c, 0, 67, 95
2, 75928, Note_off_c, 0, 67, 64
2, 75928, Note_off_c, 0, 70, 64
2, 75932, Note_off_c, 0, 64, 64
2, 76024, Note_on_c, 0, 70, 88
2, 76024, Note_on_c, 0, 64, 87
2, 76024, Note_on_c, 0, 67, 90
2, 76056, Note_off_c, 0, 67, 64
2, 76056, Note_off_c, 0, 64, 64
2, 76056, Note_off_c, 0, 70, 64
2, 76152, Note_on_c, 0, 70, 88
2, 76152, Note_on_c, 0, 64, 86
2, 76152, Note_on_c, 0, 67, 93
2, 76184, Note_off_c, 0, 67, 64
2, 76184, Note_off_c, 0, 70, 64
2, 76188, Note_off_c, 0, 64, 64
2, 76280, Note_on_c, 0, 64, 93
2, 76280, Note_on_c, 0, 70, 92
2, 76280, Note_on_c, 0, 67, 101
2, 76312, Note_off_c, 0, 67, 64
2, 76312, Note_off_c, 0, 70, 64
2, 76312, Note_off_c, 0, 64, 64
2, 76408, Note_on_c, 0, 70, 92
2, 76408, Note_on_c, 0, 64, 90
2, 76408, Note_on_c, 0, 67, 101
2, 76440, Note_off_c, 0, 67, 64
2, 76440, Note_off_c, 0, 64, 64
2, 76440, Note_off_c, 0, 70, 64
2, 76536, Note_on_c, 0, 67, 102
2, 76536, Note_on_c, 0, 70, 95
2, 76536, Note_on_c, 0, 64, 86
2, 76568, Note_off_c, 0, 64, 64
2, 76572, Note_off_c, 0, 70, 64
2, 76572, Note_off_c, 0, 67, 64
2, 76664, Note_on_c, 0, 64, 93
2, 76664, Note_on_c, 0, 70, 96
2, 76664, Note_on_c, 0, 67, 96
2, 76696, Note_off_c, 0, 67, 64
2, 76696, Note_off_c, 0, 70, 64
2, 76696, Note_off_c, 0, 64, 64
2, 76792, Note_on_c, 0, 69, 96
2, 76792, Note_on_c, 0, 65, 95
2, 76792, Note_on_c, 0, 72, 96
2, 76820, Note_off_c, 0, 72, 64
2, 76824, Note_off_c, 0, 69, 64
2, 76828, Note_off_c, 0, 65, 64
2, 76920, Note_on_c, 0, 65, 83
2, 76920, Note_on_c, 0, 69, 87
2, 76920, Note_on_c, 0, 72, 88
2, 76960, Note_off_c, 0, 72, 64
2, 76960, Note_off_c, 0, 69, 64
2, 76960, Note_off_c, 0, 65, 64
2, 77048, Note_on_c, 0, 69, 87
2, 77048, Note_on_c, 0, 72, 82
2, 77048, Note_on_c, 0, 65, 79
2, 77080, Note_off_c, 0, 65, 64
2, 77080, Note_off_c, 0, 72, 64
2, 77080, Note_off_c, 0, 69, 64
2, 77176, Note_on_c, 0, 69, 90
2, 77176, Note_on_c, 0, 72, 89
2, 77176, Note_on_c, 0, 65, 82
2, 77208, Note_off_c, 0, 65, 64
2, 77208, Note_off_c, 0, 72, 64
2, 77208, Note_off_c, 0, 69, 64
2, 77304, Note_on_c, 0, 69, 87
2, 77304, Note_on_c, 0, 72, 86
2, 77304, Note_on_c, 0, 65, 81
2, 77336, Note_off_c, 0, 65, 64
2, 77336, Note_off_c, 0, 72, 64
2, 77340, Note_off_c, 0, 69, 64
2, 77432, Note_on_c, 0, 72, 90
2, 77432, Note_on_c, 0, 69, 92
2, 77432, Note_on_c, 0, 65, 85
2, 77464, Note_off_c, 0, 65, 64
2, 77464, Note_off_c, 0, 69, 64
2, 77464, Note_off_c, 0, 72, 64
2, 77560, Note_on_c, 0, 72, 90
2, 77560, Note_on_c, 0, 69, 91
2, 77560, Note_on_c, 0, 65, 83
2, 77592, Note_off_c, 0, 65, 64
2, 77592, Note_off_c, 0, 69, 64
2, 77592, Note_off_c, 0, 72, 64
2, 77688, Note_on_c, 0, 69, 89
2, 77688, Note_on_c, 0, 72, 87
2, 77688, Note_on_c, 0, 65, 81
2, 77720, Note_off_c, 0, 65, 64
2, 77720, Note_off_c, 0, 72, 64
2, 77720, Note_off_c, 0, 69, 64
2, 77816, Note_on_c, 0, 69, 90
2, 77816, Note_on_c, 0, 72, 88
2, 77816, Note_on_c, 0, 65, 81
2, 77848, Note_off_c, 0, 65, 64
2, 77848, Note_off_c, 0, 72, 64
2, 77848, Note_off_c, 0, 69, 64
2, 77944, Note_on_c, 0, 72, 90
2, 77944, Note_on_c, 0, 69, 90
2, 77944, Note_on_c, 0, 65, 81
2, 77972, Note_off_c, 0, 65, 64
2, 77972, Note_off_c, 0, 69, 64
2, 77976, Note_off_c, 0, 72, 64
2, 78072, Note_on_c, 0, 72, 85
2, 78072, Note_on_c, 0, 69, 87
2, 78072, Note_on_c, 0, 65, 74
2, 78096, Note_off_c, 0, 65, 64
2, 78100, Note_off_c, 0, 69, 64
2, 78104, Note_off_c, 0, 72, 64
2, 78200, Note_on_c, 0, 72, 92
2, 78200, Note_on_c, 0, 69, 93
2, 78200, Note_on_c, 0, 65, 81
2, 78228, Note_off_c, 0, 65, 64
2, 78232, Note_off_c, 0, 69, 64
2, 78232, Note_off_c, 0, 72, 64
2, 78328, Note_on_c, 0, 72, 89
2, 78328, Note_on_c, 0, 69, 91
2, 78328, Note_on_c, 0, 65, 81
2, 78360, Note_off_c, 0, 65, 64
2, 78360, Note_off_c, 0, 69, 64
2, 78360, Note_off_c, 0, 72, 64
2, 78456, Note_on_c, 0, 69, 90
2, 78456, Note_on_c, 0, 72, 87
2, 78456, Note_on_c, 0, 65, 80
2, 78488, Note_off_c, 0, 65, 64
2, 78488, Note_off_c, 0, 72, 64
2, 78492, Note_off_c, 0, 69, 64
2, 78584, Note_on_c, 0, 69, 89
2, 78584, Note_on_c, 0, 65, 81
2, 78584, Note_on_c, 0, 72, 83
2, 78616, Note_off_c, 0, 72, 64
2, 78616, Note_off_c, 0, 65, 64
2, 78616, Note_off_c, 0, 69, 64
2, 78712, Note_on_c, 0, 69, 95
2, 78712, Note_on_c, 0, 65, 86
2, 78712, Note_on_c, 0, 72, 90
2, 78744, Note_off_c, 0, 72, 64
2, 78744, Note_off_c, 0, 65, 64
2, 78744, Note_off_c, 0, 69, 64
2, 78840, Note_on_c, 0, 72, 90
2, 78840, Note_on_c, 0, 69, 91
2, 78840, Note_on_c, 0, 65, 82
2, 78872, Note_off_c, 0, 65, 64
2, 78872, Note_off_c, 0, 69, 64
2, 78872, Note_off_c, 0, 72, 64
2, 78968, Note_on_c, 0, 72, 83
2, 78968, Note_on_c, 0, 69, 87
2, 78968, Note_on_c, 0, 65, 77
2, 79000, Note_off_c, 0, 65, 64
2, 79004, Note_off_c, 0, 69, 64
2, 79004, Note_off_c, 0, 72, 64
2, 79096, Note_on_c, 0, 72, 91
2, 79096, Note_on_c, 0, 69, 94
2, 79096, Note_on_c, 0, 65, 85
2, 79128, Note_off_c, 0, 65, 64
2, 79128, Note_off_c, 0, 69, 64
2, 79128, Note_off_c, 0, 72, 64
2, 79224, Note_on_c, 0, 72, 90
2, 79224, Note_on_c, 0, 69, 93
2, 79228, Note_on_c, 0, 65, 82
2, 79256, Note_off_c, 0, 65, 64
2, 79256, Note_off_c, 0, 69, 64
2, 79256, Note_off_c, 0, 72, 64
2, 79352, Note_on_c, 0, 72, 94
2, 79352, Note_on_c, 0, 69, 94
2, 79352, Note_on_c, 0, 65, 83
2, 79384, Note_off_c, 0, 65, 64
2, 79384, Note_off_c, 0, 69, 64
2, 79384, Note_off_c, 0, 72, 64
2, 79480, Note_on_c, 0, 69, 91
2, 79480, Note_on_c, 0, 72, 90
2, 79480, Note_on_c, 0, 65, 81
2, 79512, Note_off_c, 0, 65, 64
2, 79512, Note_off_c, 0, 72, 64
2, 79516, Note_off_c, 0, 69, 64
2, 79608, Note_on_c, 0, 72, 87
2, 79608, Note_on_c, 0, 69, 88
2, 79608, Note_on_c, 0, 65, 78
2, 79644, Note_off_c, 0, 65, 64
2, 79644, Note_off_c, 0, 69, 64
2, 79648, Note_off_c, 0, 72, 64
2, 79736, Note_on_c, 0, 69, 98
2, 79736, Note_on_c, 0, 72, 97
2, 79736, Note_on_c, 0, 65, 87
2, 79764, Note_off_c, 0, 72, 64
2, 79768, Note_off_c, 0, 65, 64
2, 79768, Note_off_c, 0, 69, 64
2, 79864, Note_on_c, 0, 62, 81
2, 79864, Note_on_c, 0, 70, 85
2, 79868, Note_on_c, 0, 65, 84
2, 79896, Note_off_c, 0, 65, 64
2, 79896, Note_off_c, 0, 70, 64
2, 79904, Note_off_c, 0, 62, 64
2, 79992, Note_on_c, 0, 62, 83
2, 79992, Note_on_c, 0, 70, 94
2, 79992, Note_on_c, 0, 65, 93
2, 80024, Note_off_c, 0, 70, 64
2, 80028, Note_off_c, 0, 65, 64
2, 80032, Note_off_c, 0, 62, 64
2, 80120, Note_on_c, 0, 62, 82
2, 80120, Note_on_c, 0, 70, 90
2, 80120, Note_on_c, 0, 65, 92
2, 80152, Note_off_c, 0, 65, 64
2, 80156, Note_off_c, 0, 70, 64
2, 80156, Note_off_c, 0, 62, 64
2, 80248, Note_on_c, 0, 62, 90
2, 80248, Note_on_c, 0, 70, 92
2, 80248, Note_on_c, 0, 65, 95
2, 80280, Note_off_c, 0, 65, 64
2, 80280, Note_off_c, 0, 70, 64
2, 80288, Note_off_c, 0, 62, 64
2, 80376, Note_on_c, 0, 62, 82
2, 80376, Note_on_c, 0, 70, 84
2, 80376, Note_on_c, 0, 65, 87
2, 80404, Note_off_c, 0, 70, 64
2, 80408, Note_off_c, 0, 65, 64
2, 80412, Note_off_c, 0, 62, 64
2, 80504, Note_on_c, 0, 62, 87
2, 80504, Note_on_c, 0, 70, 88
2, 80504, Note_on_c, 0, 65, 89
2, 80536, Note_off_c, 0, 65, 64
2, 80536, Note_off_c, 0, 70, 64
2, 80540, Note_off_c, 0, 62, 64
2, 80632, Note_on_c, 0, 62, 89
2, 80632, Note_on_c, 0, 70, 91
2, 80632, Note_on_c, 0, 65, 93
2, 80660, Note_off_c, 0, 70, 64
2, 80664, Note_off_c, 0, 65, 64
2, 80672, Note_off_c, 0, 62, 64
2, 80760, Note_on_c, 0, 62, 83
2, 80760, Note_on_c, 0, 70, 85
2, 80760, Note_on_c, 0, 65, 88
2, 80792, Note_off_c, 0, 65, 64
2, 80792, Note_off_c, 0, 70, 64
2, 80796, Note_off_c, 0, 62, 64
2, 80888, Note_on_c, 0, 62, 80
2, 80888, Note_on_c, 0, 70, 82
2, 80888, Note_on_c, 0, 65, 87
2, 80916, Note_off_c, 0, 70, 64
2, 80920, Note_off_c, 0, 65, 64
2, 80920, Note_off_c, 0, 62, 64
2, 81016, Note_on_c, 0, 62, 86
2, 81016, Note_on_c, 0, 70, 89
2, 81016, Note_on_c, 0, 65, 88
2, 81048, Note_off_c, 0, 65, 64
2, 81048, Note_off_c, 0, 70, 64
2, 81056, Note_off_c, 0, 62, 64
2, 81144, Note_on_c, 0, 62, 86
2, 81144, Note_on_c, 0, 70, 91
2, 81144, Note_on_c, 0, 65, 91
2, 81176, Note_off_c, 0, 65, 64
2, 81176, Note_off_c, 0, 70, 64
2, 81180, Note_off_c, 0, 62, 64
2, 81272, Note_on_c, 0, 70, 90
2, 81272, Note_on_c, 0, 62, 85
2, 81272, Note_on_c, 0, 65, 89
2, 81304, Note_off_c, 0, 65, 64
2, 81304, Note_off_c, 0, 62, 64
2, 81304, Note_off_c, 0, 70, 64
2, 81400, Note_on_c, 0, 70, 91
2, 81400, Note_on_c, 0, 62, 83
2, 81400, Note_on_c, 0, 65, 87
2, 81432, Note_off_c, 0, 65, 64
2, 81432, Note_off_c, 0, 62, 64
2, 81432, Note_off_c, 0, 70, 64
2, 81528, Note_on_c, 0, 70, 90
2, 81528, Note_on_c, 0, 62, 83
2, 81528, Note_on_c, 0, 65, 87
2, 81556, Note_off_c, 0, 65, 64
2, 81560, Note_off_c, 0, 62, 64
2, 81560, Note_off_c, 0, 70, 64
2, 81656, Note_on_c, 0, 62, 86
2, 81656, Note_on_c, 0, 70, 91
2, 81656, Note_on_c, 0, 65, 90
2, 81688, Note_off_c, 0, 65, 64
2, 81688, Note_off_c, 0, 70, 64
2, 81692, Note_off_c, 0, 62, 64
2, 81784, Note_on_c, 0, 70, 96
2, 81784, Note_on_c, 0, 62, 88
2, 81784, Note_on_c, 0, 65, 91
2, 81816, Note_off_c, 0, 65, 64
2, 81824, Note_off_c, 0, 62, 64
2, 81824, Note_off_c, 0, 70, 64
2, 81912, Note_on_c, 0, 70, 91
2, 81912, Note_on_c, 0, 62, 83
2, 81912, Note_on_c, 0, 65, 87
2, 81944, Note_off_c, 0, 65, 64
2, 81944, Note_off_c, 0, 70, 64
2, 81952, Note_off_c, 0, 62, 64
2, 82040, Note_on_c, 0, 70, 88
2, 82044, Note_on_c, 0, 62, 79
2, 82044, Note_on_c, 0, 65, 82
2, 82068, Note_off_c, 0, 65, 64
2, 82072, Note_off_c, 0, 62, 64
2, 82072, Note_off_c, 0, 70, 64
2, 82168, Note_on_c, 0, 70, 99
2, 82172, Note_on_c, 0, 62, 90
2, 82172, Note_on_c, 0, 65, 91
2, 82204, Note_off_c, 0, 65, 64
2, 82208, Note_off_c, 0, 62, 64
2, 82208, Note_off_c, 0, 70, 64
2, 82296, Note_on_c, 0, 65, 98
2, 82296, Note_on_c, 0, 62, 84
2, 82296, Note_on_c, 0, 68, 77
2, 82316, Note_off_c, 0, 68, 64
2, 82328, Note_off_c, 0, 62, 64
2, 82332, Note_off_c, 0, 65, 64
2, 82424, Note_on_c, 0, 62, 85
2, 82424, Note_on_c, 0, 65, 97
2, 82424, Note_on_c, 0, 68, 90
2, 82456, Note_off_c, 0, 68, 64
2, 82456, Note_off_c, 0, 65, 64
2, 82464, Note_off_c, 0, 62, 64
2, 82556, Note_on_c, 0, 68, 94
2, 82556, Note_on_c, 0, 62, 88
2, 82560, Note_on_c, 0, 65, 95
2, 82584, Note_off_c, 0, 65, 64
2, 82584, Note_off_c, 0, 68, 64
2, 82592, Note_off_c, 0, 62, 64
2, 82684, Note_on_c, 0, 68, 92
2, 82684, Note_on_c, 0, 62, 87
2, 82684, Note_on_c, 0, 65, 93
2, 82712, Note_off_c, 0, 65, 64
2, 82716, Note_off_c, 0, 68, 64
2, 82720, Note_off_c, 0, 62, 64
2, 82812, Note_on_c, 0, 68, 98
2, 82812, Note_on_c, 0, 62, 91
2, 82812, Note_on_c, 0, 65, 97
2, 82840, Note_off_c, 0, 65, 64
2, 82840, Note_off_c, 0, 62, 64
2, 82840, Note_off_c, 0, 68, 64
2, 82936, Note_on_c, 0, 67, 84
2, 82936, Note_on_c, 0, 63, 91
2, 82940, Note_on_c, 0, 70, 91
2, 82960, Note_off_c, 0, 67, 64
2, 82972, Note_off_c, 0, 63, 64
2, 82976, Note_off_c, 0, 70, 64
2, 83064, Note_on_c, 0, 63, 87
2, 83064, Note_on_c, 0, 70, 101
2, 83064, Note_on_c, 0, 67, 104
2, 83096, Note_off_c, 0, 67, 64
2, 83104, Note_off_c, 0, 70, 64
2, 83108, Note_off_c, 0, 63, 64
2, 83192, Note_on_c, 0, 63, 84
2, 83192, Note_on_c, 0, 70, 82
2, 83192, Note_on_c, 0, 67, 103
2, 83228, Note_off_c, 0, 70, 64
2, 83232, Note_off_c, 0, 67, 64
2, 83240, Note_off_c, 0, 63, 64
2, 83320, Note_on_c, 0, 63, 81
2, 83320, Note_on_c, 0, 70, 84
2, 83320, Note_on_c, 0, 67, 103
2, 83352, Note_off_c, 0, 67, 64
2, 83352, Note_off_c, 0, 70, 64
2, 83360, Note_off_c, 0, 63, 64
2, 83448, Note_on_c, 0, 63, 84
2, 83448, Note_on_c, 0, 70, 91
2, 83448, Note_on_c, 0, 67, 103
2, 83476, Note_off_c, 0, 67, 64
2, 83484, Note_off_c, 0, 70, 64
2, 83492, Note_off_c, 0, 63, 64
2, 83576, Note_on_c, 0, 63, 85
2, 83576, Note_on_c, 0, 70, 92
2, 83576, Note_on_c, 0, 67, 102
2, 83604, Note_off_c, 0, 67, 64
2, 83608, Note_off_c, 0, 70, 64
2, 83612, Note_off_c, 0, 63, 64
2, 83704, Note_on_c, 0, 63, 92
2, 83704, Note_on_c, 0, 70, 98
2, 83704, Note_on_c, 0, 67, 108
2, 83724, Note_off_c, 0, 67, 64
2, 83736, Note_off_c, 0, 70, 64
2, 83736, Note_off_c, 0, 63, 64
2, 83832, Note_on_c, 0, 63, 79
2, 83832, Note_on_c, 0, 70, 84
2, 83832, Note_on_c, 0, 67, 97
2, 83860, Note_off_c, 0, 67, 64
2, 83864, Note_off_c, 0, 70, 64
2, 83868, Note_off_c, 0, 63, 64
2, 83960, Note_on_c, 0, 63, 84
2, 83960, Note_on_c, 0, 70, 85
2, 83960, Note_on_c, 0, 67, 101
2, 83988, Note_off_c, 0, 67, 64
2, 83992, Note_off_c, 0, 70, 64
2, 83992, Note_off_c, 0, 63, 64
2, 84088, Note_on_c, 0, 70, 95
2, 84088, Note_on_c, 0, 63, 91
2, 84088, Note_on_c, 0, 67, 102
2, 84112, Note_off_c, 0, 67, 64
2, 84120, Note_off_c, 0, 63, 64
2, 84124, Note_off_c, 0, 70, 64
2, 84216, Note_on_c, 0, 63, 95
2, 84216, Note_on_c, 0, 70, 92
2, 84216, Note_on_c, 0, 67, 104
2, 84240, Note_off_c, 0, 67, 64
2, 84248, Note_off_c, 0, 70, 64
2, 84248, Note_off_c, 0, 63, 64
2, 84344, Note_on_c, 0, 63, 90
2, 84344, Note_on_c, 0, 70, 95
2, 84344, Note_on_c, 0, 67, 103
2, 84372, Note_off_c, 0, 67, 64
2, 84380, Note_off_c, 0, 70, 64
2, 84380, Note_off_c, 0, 63, 64
2, 84472, Note_on_c, 0, 70, 99
2, 84472, Note_on_c, 0, 62, 88
2, 84472, Note_on_c, 0, 65, 91
2, 84500, Note_off_c, 0, 65, 64
2, 84504, Note_off_c, 0, 62, 64
2, 84512, Note_off_c, 0, 70, 64
2, 84600, Note_on_c, 0, 70, 95
2, 84600, Note_on_c, 0, 62, 88
2, 84600, Note_on_c, 0, 65, 95
2, 84632, Note_off_c, 0, 70, 64
2, 84636, Note_off_c, 0, 65, 64
2, 84636, Note_off_c, 0, 62, 64
2, 84728, Note_on_c, 0, 70, 91
2, 84728, Note_on_c, 0, 62, 86
2, 84728, Note_on_c, 0, 65, 90
2, 84764, Note_off_c, 0, 65, 64
2, 84764, Note_off_c, 0, 62, 64
2, 84764, Note_off_c, 0, 70, 64
2, 84856, Note_on_c, 0, 62, 87
2, 84856, Note_on_c, 0, 70, 90
2, 84856, Note_on_c, 0, 65, 92
2, 84896, Note_off_c, 0, 65, 64
2, 84896, Note_off_c, 0, 70, 64
2, 84896, Note_off_c, 0, 62, 64
2, 84984, Note_on_c, 0, 70, 90
2, 84984, Note_on_c, 0, 65, 89
2, 84984, Note_on_c, 0, 62, 82
2, 85020, Note_off_c, 0, 62, 64
2, 85020, Note_off_c, 0, 65, 64
2, 85020, Note_off_c, 0, 70, 64
2, 85112, Note_on_c, 0, 70, 90
2, 85112, Note_on_c, 0, 62, 86
2, 85112, Note_on_c, 0, 65, 90
2, 85144, Note_off_c, 0, 70, 64
2, 85148, Note_off_c, 0, 65, 64
2, 85152, Note_off_c, 0, 62, 64
2, 85240, Note_on_c, 0, 70, 83
2, 85240, Note_on_c, 0, 65, 85
2, 85240, Note_on_c, 0, 62, 78
2, 85272, Note_off_c, 0, 70, 64
2, 85276, Note_off_c, 0, 62, 64
2, 85276, Note_off_c, 0, 65, 64
2, 85368, Note_on_c, 0, 62, 87
2, 85368, Note_on_c, 0, 70, 91
2, 85368, Note_on_c, 0, 65, 94
2, 85400, Note_off_c, 0, 65, 64
2, 85400, Note_off_c, 0, 70, 64
2, 85404, Note_off_c, 0, 62, 64
2, 85496, Note_on_c, 0, 62, 81
2, 85496, Note_on_c, 0, 70, 85
2, 85496, Note_on_c, 0, 65, 82
2, 85528, Note_off_c, 0, 65, 64
2, 85528, Note_off_c, 0, 70, 64
2, 85540, Note_off_c, 0, 62, 64
2, 85624, Note_on_c, 0, 70, 88
2, 85624, Note_on_c, 0, 65, 88
2, 85624, Note_on_c, 0, 62, 80
2, 85660, Note_off_c, 0, 65, 64
2, 85660, Note_off_c, 0, 70, 64
2, 85664, Note_off_c, 0, 62, 64
2, 85752, Note_on_c, 0, 70, 90
2, 85752, Note_on_c, 0, 65, 90
2, 85752, Note_on_c, 0, 62, 81
2, 85784, Note_off_c, 0, 70, 64
2, 85788, Note_off_c, 0, 62, 64
2, 85788, Note_off_c, 0, 65, 64
2, 85880, Note_on_c, 0, 70, 94
2, 85880, Note_on_c, 0, 62, 85
2, 85880, Note_on_c, 0, 65, 93
2, 85912, Note_off_c, 0, 65, 64
2, 85912, Note_off_c, 0, 62, 64
2, 85912, Note_off_c, 0, 70, 64
2, 86008, Note_on_c, 0, 70, 98
2, 86008, Note_on_c, 0, 62, 90
2, 86008, Note_on_c, 0, 65, 96
2, 86040, Note_off_c, 0, 65, 64
2, 86044, Note_off_c, 0, 62, 64
2, 86044, Note_off_c, 0, 70, 64
2, 86136, Note_on_c, 0, 70, 91
2, 86136, Note_on_c, 0, 62, 82
2, 86136, Note_on_c, 0, 65, 89
2, 86168, Note_off_c, 0, 65, 64
2, 86168, Note_off_c, 0, 70, 64
2, 86176, Note_off_c, 0, 62, 64
2, 86264, Note_on_c, 0, 70, 70
2, 86264, Note_on_c, 0, 62, 66
2, 86268, Note_on_c, 0, 65, 73
2, 86308, Note_off_c, 0, 65, 64
2, 86312, Note_off_c, 0, 62, 64
2, 86312, Note_off_c, 0, 70, 64
2, 86392, Note_on_c, 0, 70, 89
2, 86392, Note_on_c, 0, 62, 82
2, 86392, Note_on_c, 0, 65, 90
2, 86432, Note_off_c, 0, 65, 64
2, 86432, Note_off_c, 0, 70, 64
2, 86436, Note_off_c, 0, 62, 64
2, 86520, Note_on_c, 0, 70, 87
2, 86520, Note_on_c, 0, 62, 81
2, 86520, Note_on_c, 0, 65, 90
2, 86548, Note_off_c, 0, 70, 64
2, 86552, Note_off_c, 0, 65, 64
2, 86556, Note_off_c, 0, 62, 64
2, 86648, Note_on_c, 0, 62, 78
2, 86648, Note_on_c, 0, 70, 85
2, 86648, Note_on_c, 0, 65, 89
2, 86680, Note_off_c, 0, 65, 64
2, 86680, Note_off_c, 0, 70, 64
2, 86688, Note_off_c, 0, 62, 64
2, 86776, Note_on_c, 0, 70, 91
2, 86776, Note_on_c, 0, 62, 82
2, 86776, Note_on_c, 0, 65, 90
2, 86808, Note_off_c, 0, 65, 64
2, 86808, Note_off_c, 0, 70, 64
2, 86812, Note_off_c, 0, 62, 64
2, 86904, Note_on_c, 0, 70, 87
2, 86904, Note_on_c, 0, 65, 89
2, 86904, Note_on_c, 0, 62, 81
2, 86936, Note_off_c, 0, 62, 64
2, 86936, Note_off_c, 0, 65, 64
2, 86936, Note_off_c, 0, 70, 64
2, 87032, Note_on_c, 0, 70, 90
2, 87032, Note_on_c, 0, 62, 85
2, 87032, Note_on_c, 0, 65, 88
2, 87064, Note_off_c, 0, 65, 64
2, 87068, Note_off_c, 0, 62, 64
2, 87068, Note_off_c, 0, 70, 64
2, 87160, Note_on_c, 0, 62, 89
2, 87160, Note_on_c, 0, 70, 95
2, 87160, Note_on_c, 0, 65, 96
2, 87196, Note_off_c, 0, 65, 64
2, 87200, Note_off_c, 0, 70, 64
2, 87204, Note_off_c, 0, 62, 64
2, 87288, Note_on_c, 0, 70, 84
2, 87288, Note_on_c, 0, 65, 85
2, 87288, Note_on_c, 0, 62, 79
2, 87328, Note_off_c, 0, 65, 64
2, 87332, Note_off_c, 0, 62, 64
2, 87336, Note_off_c, 0, 70, 64
2, 87416, Note_on_c, 0, 62, 87
2, 87416, Note_on_c, 0, 65, 98
2, 87416, Note_on_c, 0, 70, 96
2, 87448, Note_off_c, 0, 65, 64
2, 87448, Note_off_c, 0, 62, 64
2, 87452, Note_off_c, 0, 70, 64
2, 87548, Note_on_c, 0, 72, 101
2, 87548, Note_on_c, 0, 65, 87
2, 87548, Note_on_c, 0, 69, 92
2, 87584, Note_off_c, 0, 69, 64
2, 87588, Note_off_c, 0, 65, 64
2, 87592, Note_off_c, 0, 72, 64
2, 87672, Note_on_c, 0, 65, 87
2, 87672, Note_on_c, 0, 72, 92
2, 87676, Note_on_c, 0, 69, 90
2, 87704, Note_off_c, 0, 69, 64
2, 87708, Note_off_c, 0, 72, 64
2, 87708, Note_off_c, 0, 65, 64
2, 87800, Note_on_c, 0, 65, 87
2, 87800, Note_on_c, 0, 72, 91
2, 87800, Note_on_c, 0, 69, 91
2, 87836, Note_off_c, 0, 69, 64
2, 87836, Note_off_c, 0, 72, 64
2, 87840, Note_off_c, 0, 65, 64
2, 87928, Note_on_c, 0, 65, 86
2, 87928, Note_on_c, 0, 72, 94
2, 87928, Note_on_c, 0, 69, 93
2, 87964, Note_off_c, 0, 69, 64
2, 87968, Note_off_c, 0, 72, 64
2, 87968, Note_off_c, 0, 65, 64
2, 88056, Note_on_c, 0, 72, 91
2, 88056, Note_on_c, 0, 65, 83
2, 88056, Note_on_c, 0, 69, 90
2, 88088, Note_off_c, 0, 69, 64
2, 88092, Note_off_c, 0, 65, 64
2, 88092, Note_off_c, 0, 72, 64
2, 88184, Note_on_c, 0, 72, 92
2, 88184, Note_on_c, 0, 65, 85
2, 88184, Note_on_c, 0, 69, 89
2, 88216, Note_off_c, 0, 69, 64
2, 88220, Note_off_c, 0, 65, 64
2, 88220, Note_off_c, 0, 72, 64
2, 88312, Note_on_c, 0, 72, 90
2, 88312, Note_on_c, 0, 65, 84
2, 88312, Note_on_c, 0, 69, 89
2, 88344, Note_off_c, 0, 69, 64
2, 88348, Note_off_c, 0, 65, 64
2, 88352, Note_off_c, 0, 72, 64
2, 88440, Note_on_c, 0, 72, 90
2, 88440, Note_on_c, 0, 65, 83
2, 88440, Note_on_c, 0, 69, 89
2, 88472, Note_off_c, 0, 69, 64
2, 88476, Note_off_c, 0, 65, 64
2, 88476, Note_off_c, 0, 72, 64
2, 88568, Note_on_c, 0, 72, 93
2, 88568, Note_on_c, 0, 65, 87
2, 88568, Note_on_c, 0, 69, 90
2, 88600, Note_off_c, 0, 69, 64
2, 88604, Note_off_c, 0, 65, 64
2, 88604, Note_off_c, 0, 72, 64
2, 88696, Note_on_c, 0, 72, 92
2, 88696, Note_on_c, 0, 65, 86
2, 88696, Note_on_c, 0, 69, 90
2, 88732, Note_off_c, 0, 69, 64
2, 88736, Note_off_c, 0, 65, 64
2, 88736, Note_off_c, 0, 72, 64
2, 88824, Note_on_c, 0, 72, 95
2, 88824, Note_on_c, 0, 65, 88
2, 88824, Note_on_c, 0, 69, 90
2, 88860, Note_off_c, 0, 69, 64
2, 88868, Note_off_c, 0, 65, 64
2, 88868, Note_off_c, 0, 72, 64
2, 88952, Note_on_c, 0, 65, 84
2, 88952, Note_on_c, 0, 72, 87
2, 88952, Note_on_c, 0, 69, 92
2, 88980, Note_off_c, 0, 72, 64
2, 88984, Note_off_c, 0, 69, 64
2, 88988, Note_off_c, 0, 65, 64
2, 89080, Note_on_c, 0, 70, 95
2, 89080, Note_on_c, 0, 62, 92
2, 89080, Note_on_c, 0, 65, 90
2, 89088, Note_on_c, 0, 46, 75
2, 89144, Note_off_c, 0, 65, 64
2, 89144, Note_off_c, 0, 62, 64
2, 89144, Note_off_c, 0, 70, 64
2, 89212, Note_off_c, 0, 46, 64
2, 89340, Note_on_c, 0, 46, 89
2, 89468, Note_off_c, 0, 46, 64
2, 89468, Note_on_c, 0, 62, 91
2, 89468, Note_on_c, 0, 50, 91
2, 89596, Note_off_c, 0, 50, 64
2, 89604, Note_off_c, 0, 62, 64
2, 89720, Note_on_c, 0, 62, 81
2, 89720, Note_on_c, 0, 50, 89
2, 89848, Note_on_c, 0, 51, 84
2, 89856, Note_off_c, 0, 50, 64
2, 89860, Note_on_c, 0, 63, 92
2, 89884, Note_off_c, 0, 62, 64
2, 89964, Note_off_c, 0, 63, 64
2, 89988, Note_off_c, 0, 51, 64
2, 90100, Note_on_c, 0, 63, 84
2, 90108, Note_on_c, 0, 51, 85
2, 90228, Note_off_c, 0, 51, 64
2, 90228, Note_off_c, 0, 63, 64
2, 90232, Note_on_c, 0, 64, 96
2, 90232, Note_on_c, 0, 52, 97
2, 90332, Note_off_c, 0, 52, 64
2, 90340, Note_off_c, 0, 64, 64
2, 90484, Note_on_c, 0, 52, 90
2, 90488, Note_on_c, 0, 64, 96
2, 90584, Note_off_c, 0, 64, 64
2, 90620, Note_on_c, 0, 53, 90
2, 90624, Note_on_c, 0, 65, 101
2, 90632, Note_off_c, 0, 52, 64
2, 90856, Note_off_c, 0, 65, 64
2, 90864, Note_on_c, 0, 67, 100
2, 90868, Note_off_c, 0, 53, 64
2, 90872, Note_on_c, 0, 55, 91
2, 90992, Note_off_c, 0, 67, 64
2, 91004, Note_on_c, 0, 69, 98
2, 91004, Note_on_c, 0, 57, 91
2, 91028, Note_off_c, 0, 55, 64
2, 91180, Note_off_c, 0, 69, 64
2, 91256, Note_off_c, 0, 57, 64
2, 91256, Note_on_c, 0, 58, 92
2, 91256, Note_on_c, 0, 70, 121
2, 91320, Note_off_c, 0, 70, 64
2, 91368, Note_off_c, 0, 58, 64
2, 91772, Note_on_c, 0, 70, 110
2, 91772, Note_on_c, 0, 65, 112
2, 91772, Note_on_c, 0, 62, 103
2, 91776, Note_on_c, 0, 46, 95
2, 92984, Note_off_c, 0, 46, 64
2, 93316, Note_off_c, 0, 65, 64
2, 93320, Note_off_c, 0, 62, 64
2, 93320, Note_off_c, 0, 70, 64
2, 95232, End_track
3, 0, Start_track
3, 0, Title_t, "ACOU BASS"
3, 1948, Program_c, 1, 32
3, 1952, Control_c, 1, 7, 105
3, 1952, Control_c, 1, 10, 64
3, 1952, Control_c, 1, 11, 127
3, 1956, Control_c, 1, 91, 10
3, 1956, Control_c, 1, 93, 10
3, 6152, Note_on_c, 1, 34, 103
3, 6156, Control_c, 1, 1, 0
3, 6156, Pitch_bend_c, 1, 8192
3, 6336, Note_off_c, 1, 34, 64
3, 6776, Note_on_c, 1, 37, 94
3, 6908, Note_off_c, 1, 37, 64
3, 6908, Note_on_c, 1, 38, 100
3, 7292, Note_off_c, 1, 38, 64
3, 7296, Note_on_c, 1, 41, 97
3, 7508, Note_off_c, 1, 41, 64
3, 7672, Note_on_c, 1, 34, 100
3, 7832, Note_off_c, 1, 34, 64
3, 8312, Note_on_c, 1, 37, 104
3, 8444, Note_on_c, 1, 38, 100
3, 8460, Note_off_c, 1, 37, 64
3, 8828, Note_on_c, 1, 41, 99
3, 8840, Note_off_c, 1, 38, 64
3, 9016, Note_off_c, 1, 41, 64
3, 9212, Note_on_c, 1, 39, 97
3, 9384, Note_off_c, 1, 39, 64
3, 9848, Note_on_c, 1, 42, 98
3, 9980, Note_on_c, 1, 43, 100
3, 9992, Note_off_c, 1, 42, 64
3, 10364, Note_on_c, 1, 46, 94
3, 10376, Note_off_c, 1, 43, 64
3, 10528, Note_off_c, 1, 46, 64
3, 10748, Note_on_c, 1, 34, 97
3, 10916, Note_off_c, 1, 34, 64
3, 11388, Note_on_c, 1, 37, 97
3, 11516, Note_on_c, 1, 38, 99
3, 11536, Note_off_c, 1, 37, 64
3, 11904, Note_on_c, 1, 41, 94
3, 11912, Note_off_c, 1, 38, 64
3, 12100, Note_off_c, 1, 41, 64
3, 12280, Note_on_c, 1, 34, 98
3, 12424, Note_off_c, 1, 34, 64
3, 12920, Note_on_c, 1, 37, 93
3, 13048, Note_on_c, 1, 38, 96
3, 13064, Note_off_c, 1, 37, 64
3, 13440, Note_on_c, 1, 41, 97
3, 13480, Note_off_c, 1, 38, 64
3, 13668, Note_off_c, 1, 41, 64
3, 13816, Note_on_c, 1, 34, 94
3, 14008, Note_off_c, 1, 34, 64
3, 14456, Note_on_c, 1, 37, 94
3, 14584, Note_off_c, 1, 37, 64
3, 14584, Note_on_c, 1, 38, 96
3, 14968, Note_on_c, 1, 41, 95
3, 15012, Note_off_c, 1, 38, 64
3, 15220, Note_off_c, 1, 41, 64
3, 15360, Note_on_c, 1, 29, 98
3, 15540, Note_off_c, 1, 29, 64
3, 16000, Note_on_c, 1, 32, 96
3, 16132, Note_off_c, 1, 32, 64
3, 16132, Note_on_c, 1, 33, 97
3, 16508, Note_on_c, 1, 36, 95
3, 16520, Note_off_c, 1, 33, 64
3, 16772, Note_off_c, 1, 36, 64
3, 16900, Note_on_c, 1, 29, 94
3, 17116, Note_off_c, 1, 29, 64
3, 17532, Note_on_c, 1, 32, 97
3, 17672, Note_off_c, 1, 32, 64
3, 17672, Note_on_c, 1, 33, 96
3, 18052, Note_on_c, 1, 36, 99
3, 18064, Note_off_c, 1, 33, 64
3, 18264, Note_off_c, 1, 36, 64
3, 18424, Note_on_c, 1, 34, 96
3, 18584, Note_off_c, 1, 34, 64
3, 19064, Note_on_c, 1, 37, 96
3, 19196, Note_on_c, 1, 38, 96
3, 19212, Note_off_c, 1, 37, 64
3, 19584, Note_on_c, 1, 41, 95
3, 19608, Note_off_c, 1, 38, 64
3, 19832, Note_off_c, 1, 41, 64
3, 19964, Note_on_c, 1, 34, 96
3, 20112, Note_off_c, 1, 34, 64
3, 20600, Note_on_c, 1, 37, 95
3, 20736, Note_on_c, 1, 38, 97
3, 20764, Note_off_c, 1, 37, 64
3, 21116, Note_on_c, 1, 41, 95
3, 21128, Note_off_c, 1, 38, 64
3, 21400, Note_off_c, 1, 41, 64
3, 21504, Note_on_c, 1, 39, 95
3, 21676, Note_off_c, 1, 39, 64
3, 22136, Note_on_c, 1, 42, 95
3, 22268, Note_on_c, 1, 43, 100
3, 22296, Note_off_c, 1, 42, 64
3, 22656, Note_on_c, 1, 46, 91
3, 22680, Note_off_c, 1, 43, 64
3, 22852, Note_off_c, 1, 46, 64
3, 23044, Note_on_c, 1, 34, 96
3, 23188, Note_off_c, 1, 34, 64
3, 23672, Note_on_c, 1, 37, 93
3, 23808, Note_on_c, 1, 38, 96
3, 23836, Note_off_c, 1, 37, 64
3, 24184, Note_on_c, 1, 41, 92
3, 24196, Note_off_c, 1, 38, 64
3, 24384, Note_off_c, 1, 41, 64
3, 24568, Note_on_c, 1, 34, 96
3, 24748, Note_off_c, 1, 34, 64
3, 25208, Note_on_c, 1, 37, 96
3, 25348, Note_on_c, 1, 38, 99
3, 25380, Note_off_c, 1, 37, 64
3, 25720, Note_on_c, 1, 41, 90
3, 25744, Note_off_c, 1, 38, 64
3, 25952, Note_off_c, 1, 41, 64
3, 26108, Note_on_c, 1, 29, 100
3, 26312, Note_off_c, 1, 29, 64
3, 26748, Note_on_c, 1, 32, 93
3, 26888, Note_on_c, 1, 33, 98
3, 26908, Note_off_c, 1, 32, 64
3, 27256, Note_off_c, 1, 33, 64
3, 27260, Note_on_c, 1, 36, 94
3, 27480, Note_off_c, 1, 36, 64
3, 27644, Note_on_c, 1, 34, 93
3, 27828, Note_off_c, 1, 34, 64
3, 28268, Note_on_c, 1, 37, 97
3, 28408, Note_on_c, 1, 38, 100
3, 28440, Note_off_c, 1, 37, 64
3, 28792, Note_on_c, 1, 41, 94
3, 28824, Note_off_c, 1, 38, 64
3, 29064, Note_off_c, 1, 41, 64
3, 29172, Note_on_c, 1, 34, 92
3, 29244, Note_off_c, 1, 34, 64
3, 29300, Note_on_c, 1, 34, 89
3, 29364, Note_off_c, 1, 34, 64
3, 29424, Note_on_c, 1, 34, 90
3, 29496, Note_off_c, 1, 34, 64
3, 29556, Note_on_c, 1, 34, 91
3, 29624, Note_off_c, 1, 34, 64
3, 29680, Note_on_c, 1, 34, 93
3, 29756, Note_off_c, 1, 34, 64
3, 29812, Note_on_c, 1, 34, 90
3, 29884, Note_off_c, 1, 34, 64
3, 29944, Note_on_c, 1, 34, 93
3, 30024, Note_off_c, 1, 34, 64
3, 30072, Note_on_c, 1, 34, 95
3, 30144, Note_off_c, 1, 34, 64
3, 30196, Note_on_c, 1, 34, 95
3, 30268, Note_off_c, 1, 34, 64
3, 30328, Note_on_c, 1, 34, 96
3, 30452, Note_off_c, 1, 34, 64
3, 30456, Note_on_c, 1, 36, 96
3, 30588, Note_on_c, 1, 38, 93
3, 30596, Note_off_c, 1, 36, 64
3, 30676, Note_off_c, 1, 38, 64
3, 30720, Note_on_c, 1, 39, 93
3, 30848, Note_off_c, 1, 39, 64
3, 30968, Note_on_c, 1, 39, 95
3, 31112, Note_on_c, 1, 43, 100
3, 31140, Note_off_c, 1, 39, 64
3, 31220, Note_off_c, 1, 43, 64
3, 31364, Note_on_c, 1, 43, 97
3, 31488, Note_on_c, 1, 46, 93
3, 31492, Note_off_c, 1, 43, 64
3, 31608, Note_off_c, 1, 46, 64
3, 31736, Note_on_c, 1, 46, 89
3, 31876, Note_on_c, 1, 48, 96
3, 31892, Note_off_c, 1, 46, 64
3, 31976, Note_off_c, 1, 48, 64
3, 32124, Note_on_c, 1, 48, 94
3, 32260, Note_on_c, 1, 49, 91
3, 32264, Note_off_c, 1, 48, 64
3, 32372, Note_off_c, 1, 49, 64
3, 32504, Note_on_c, 1, 49, 93
3, 32632, Note_on_c, 1, 46, 93
3, 32656, Note_off_c, 1, 49, 64
3, 32736, Note_off_c, 1, 46, 64
3, 32876, Note_on_c, 1, 46, 91
3, 33012, Note_on_c, 1, 43, 95
3, 33024, Note_off_c, 1, 46, 64
3, 33136, Note_off_c, 1, 43, 64
3, 33260, Note_on_c, 1, 43, 82
3, 33412, Note_on_c, 1, 40, 100
3, 33440, Note_off_c, 1, 43, 64
3, 33532, Note_off_c, 1, 40, 64
3, 33660, Note_on_c, 1, 40, 96
3, 33780, Note_off_c, 1, 40, 64
3, 33792, Note_on_c, 1, 34, 93
3, 33888, Note_off_c, 1, 34, 64
3, 34040, Note_on_c, 1, 34, 95
3, 34180, Note_on_c, 1, 38, 98
3, 34212, Note_off_c, 1, 34, 64
3, 34288, Note_off_c, 1, 38, 64
3, 34424, Note_on_c, 1, 38, 96
3, 34552, Note_on_c, 1, 41, 96
3, 34568, Note_off_c, 1, 38, 64
3, 34668, Note_off_c, 1, 41, 64
3, 34816, Note_on_c, 1, 41, 97
3, 34952, Note_on_c, 1, 43, 96
3, 34964, Note_off_c, 1, 41, 64
3, 35036, Note_off_c, 1, 43, 64
3, 35196, Note_on_c, 1, 43, 87
3, 35324, Note_on_c, 1, 46, 95
3, 35356, Note_off_c, 1, 43, 64
3, 35432, Note_off_c, 1, 46, 64
3, 35576, Note_on_c, 1, 46, 89
3, 35708, Note_on_c, 1, 43, 94
3, 35724, Note_off_c, 1, 46, 64
3, 35820, Note_off_c, 1, 43, 64
3, 35960, Note_on_c, 1, 43, 90
3, 36088, Note_on_c, 1, 41, 92
3, 36108, Note_off_c, 1, 43, 64
3, 36196, Note_off_c, 1, 41, 64
3, 36344, Note_on_c, 1, 41, 96
3, 36468, Note_on_c, 1, 38, 95
3, 36488, Note_off_c, 1, 41, 64
3, 36564, Note_off_c, 1, 38, 64
3, 36724, Note_on_c, 1, 38, 96
3, 36808, Note_off_c, 1, 38, 64
3, 36872, Note_on_c, 1, 39, 97
3, 36984, Note_off_c, 1, 39, 64
3, 37108, Note_on_c, 1, 39, 90
3, 37244, Note_on_c, 1, 46, 92
3, 37276, Note_off_c, 1, 39, 64
3, 37356, Note_off_c, 1, 46, 64
3, 37500, Note_on_c, 1, 46, 95
3, 37640, Note_on_c, 1, 43, 100
3, 37656, Note_off_c, 1, 46, 64
3, 37740, Note_off_c, 1, 43, 64
3, 37892, Note_on_c, 1, 43, 100
3, 38020, Note_on_c, 1, 39, 98
3, 38044, Note_off_c, 1, 43, 64
3, 38140, Note_off_c, 1, 39, 64
3, 38264, Note_on_c, 1, 39, 88
3, 38396, Note_on_c, 1, 40, 102
3, 38464, Note_off_c, 1, 39, 64
3, 38520, Note_off_c, 1, 40, 64
3, 38644, Note_on_c, 1, 40, 99
3, 38792, Note_on_c, 1, 46, 95
3, 38828, Note_off_c, 1, 40, 64
3, 38912, Note_off_c, 1, 46, 64
3, 39032, Note_on_c, 1, 46, 91
3, 39164, Note_on_c, 1, 43, 100
3, 39180, Note_off_c, 1, 46, 64
3, 39300, Note_off_c, 1, 43, 64
3, 39412, Note_on_c, 1, 43, 96
3, 39556, Note_on_c, 1, 40, 99
3, 39584, Note_off_c, 1, 43, 64
3, 39640, Note_off_c, 1, 40, 64
3, 39800, Note_on_c, 1, 40, 94
3, 39928, Note_on_c, 1, 41, 97
3, 39948, Note_off_c, 1, 40, 64
3, 40072, Note_off_c, 1, 41, 64
3, 40180, Note_on_c, 1, 41, 98
3, 40312, Note_on_c, 1, 45, 92
3, 40344, Note_off_c, 1, 41, 64
3, 40428, Note_off_c, 1, 45, 64
3, 40568, Note_on_c, 1, 45, 91
3, 40704, Note_on_c, 1, 48, 93
3, 40716, Note_off_c, 1, 45, 64
3, 40820, Note_off_c, 1, 48, 64
3, 40952, Note_on_c, 1, 48, 95
3, 41088, Note_on_c, 1, 45, 96
3, 41116, Note_off_c, 1, 48, 64
3, 41204, Note_off_c, 1, 45, 64
3, 41332, Note_on_c, 1, 45, 92
3, 41464, Note_on_c, 1, 41, 96
3, 41492, Note_off_c, 1, 45, 64
3, 41576, Note_off_c, 1, 41, 64
3, 41720, Note_on_c, 1, 41, 96
3, 41848, Note_on_c, 1, 39, 97
3, 41880, Note_off_c, 1, 41, 64
3, 41960, Note_off_c, 1, 39, 64
3, 42104, Note_on_c, 1, 39, 95
3, 42236, Note_on_c, 1, 38, 99
3, 42264, Note_off_c, 1, 39, 64
3, 42336, Note_off_c, 1, 38, 64
3, 42484, Note_on_c, 1, 38, 99
3, 42616, Note_on_c, 1, 36, 96
3, 42644, Note_off_c, 1, 38, 64
3, 42748, Note_off_c, 1, 36, 64
3, 42864, Note_on_c, 1, 36, 95
3, 42960, Note_off_c, 1, 36, 64
3, 43008, Note_on_c, 1, 34, 98
3, 43140, Note_off_c, 1, 34, 64
3, 43640, Note_on_c, 1, 37, 93
3, 43768, Note_on_c, 1, 38, 95
3, 43800, Note_off_c, 1, 37, 64
3, 44152, Note_on_c, 1, 41, 92
3, 44164, Note_off_c, 1, 38, 64
3, 44404, Note_off_c, 1, 41, 64
3, 44532, Note_on_c, 1, 34, 91
3, 44716, Note_off_c, 1, 34, 64
3, 45176, Note_on_c, 1, 37, 96
3, 45308, Note_on_c, 1, 38, 96
3, 45336, Note_off_c, 1, 37, 64
3, 45692, Note_on_c, 1, 41, 95
3, 45716, Note_off_c, 1, 38, 64
3, 45896, Note_off_c, 1, 41, 64
3, 46072, Note_on_c, 1, 39, 95
3, 46216, Note_off_c, 1, 39, 64
3, 46708, Note_on_c, 1, 42, 95
3, 46840, Note_on_c, 1, 43, 96
3, 46856, Note_off_c, 1, 42, 64
3, 47228, Note_on_c, 1, 46, 94
3, 47252, Note_off_c, 1, 43, 64
3, 47408, Note_off_c, 1, 46, 64
3, 47608, Note_on_c, 1, 34, 97
3, 47752, Note_off_c, 1, 34, 64
3, 48248, Note_on_c, 1, 37, 95
3, 48380, Note_on_c, 1, 38, 94
3, 48408, Note_off_c, 1, 37, 64
3, 48768, Note_on_c, 1, 41, 93
3, 48780, Note_off_c, 1, 38, 64
3, 48980, Note_off_c, 1, 41, 64
3, 49152, Note_on_c, 1, 34, 96
3, 49276, Note_off_c, 1, 34, 64
3, 49784, Note_on_c, 1, 37, 93
3, 49912, Note_on_c, 1, 38, 98
3, 49932, Note_off_c, 1, 37, 64
3, 50312, Note_on_c, 1, 41, 94
3, 50332, Note_off_c, 1, 38, 64
3, 50512, Note_off_c, 1, 41, 64
3, 50684, Note_on_c, 1, 41, 94
3, 50852, Note_off_c, 1, 41, 64
3, 51316, Note_on_c, 1, 44, 88
3, 51448, Note_on_c, 1, 45, 97
3, 51464, Note_off_c, 1, 44, 64
3, 51836, Note_on_c, 1, 48, 98
3, 51864, Note_off_c, 1, 45, 64
3, 52004, Note_off_c, 1, 48, 64
3, 52216, Note_on_c, 1, 34, 97
3, 52360, Note_off_c, 1, 34, 64
3, 52856, Note_on_c, 1, 37, 95
3, 52984, Note_on_c, 1, 38, 96
3, 53000, Note_off_c, 1, 37, 64
3, 53372, Note_on_c, 1, 41, 95
3, 53400, Note_off_c, 1, 38, 64
3, 53576, Note_off_c, 1, 41, 64
3, 53752, Note_on_c, 1, 41, 92
3, 53916, Note_off_c, 1, 41, 64
3, 54392, Note_on_c, 1, 44, 90
3, 54528, Note_on_c, 1, 45, 98
3, 54552, Note_off_c, 1, 44, 64
3, 54892, Note_off_c, 1, 45, 64
3, 54904, Note_on_c, 1, 48, 98
3, 55092, Note_off_c, 1, 48, 64
3, 55296, Note_on_c, 1, 34, 94
3, 55456, Note_off_c, 1, 34, 64
3, 55928, Note_on_c, 1, 37, 94
3, 56060, Note_on_c, 1, 38, 100
3, 56088, Note_off_c, 1, 37, 64
3, 56444, Note_on_c, 1, 41, 90
3, 56456, Note_off_c, 1, 38, 64
3, 56716, Note_off_c, 1, 41, 64
3, 56824, Note_on_c, 1, 34, 93
3, 57016, Note_off_c, 1, 34, 64
3, 57464, Note_on_c, 1, 37, 95
3, 57604, Note_on_c, 1, 38, 98
3, 57624, Note_off_c, 1, 37, 64
3, 57976, Note_off_c, 1, 38, 64
3, 57976, Note_on_c, 1, 41, 95
3, 58200, Note_off_c, 1, 41, 64
3, 58360, Note_on_c, 1, 39, 96
3, 58520, Note_off_c, 1, 39, 64
3, 59000, Note_on_c, 1, 42, 97
3, 59136, Note_on_c, 1, 43, 93
3, 59152, Note_off_c, 1, 42, 64
3, 59512, Note_on_c, 1, 46, 90
3, 59524, Note_off_c, 1, 43, 64
3, 59736, Note_off_c, 1, 46, 64
3, 59896, Note_on_c, 1, 34, 93
3, 60048, Note_off_c, 1, 34, 64
3, 60540, Note_on_c, 1, 37, 99
3, 60676, Note_on_c, 1, 38, 96
3, 60688, Note_off_c, 1, 37, 64
3, 61064, Note_on_c, 1, 41, 95
3, 61076, Note_off_c, 1, 38, 64
3, 61264, Note_off_c, 1, 41, 64
3, 61448, Note_on_c, 1, 34, 97
3, 61604, Note_off_c, 1, 34, 64
3, 62064, Note_on_c, 1, 37, 95
3, 62200, Note_on_c, 1, 38, 95
3, 62228, Note_off_c, 1, 37, 64
3, 62568, Note_off_c, 1, 38, 64
3, 62576, Note_on_c, 1, 41, 93
3, 62836, Note_off_c, 1, 41, 64
3, 62968, Note_on_c, 1, 29, 97
3, 63140, Note_off_c, 1, 29, 64
3, 63600, Note_on_c, 1, 32, 93
3, 63736, Note_on_c, 1, 33, 96
3, 63756, Note_off_c, 1, 32, 64
3, 64112, Note_off_c, 1, 33, 64
3, 64116, Note_on_c, 1, 36, 91
3, 64312, Note_off_c, 1, 36, 64
3, 64524, Note_on_c, 1, 34, 96
3, 64692, Note_off_c, 1, 34, 64
3, 65148, Note_on_c, 1, 37, 95
3, 65276, Note_on_c, 1, 38, 96
3, 65296, Note_off_c, 1, 37, 64
3, 65656, Note_on_c, 1, 41, 94
3, 65672, Note_off_c, 1, 38, 64
3, 65828, Note_off_c, 1, 41, 64
3, 66048, Note_on_c, 1, 34, 84
3, 66096, Note_off_c, 1, 34, 64
3, 66164, Note_on_c, 1, 34, 86
3, 66236, Note_off_c, 1, 34, 64
3, 66296, Note_on_c, 1, 34, 85
3, 66368, Note_off_c, 1, 34, 64
3, 66424, Note_on_c, 1, 34, 89
3, 66500, Note_off_c, 1, 34, 64
3, 66552, Note_on_c, 1, 34, 90
3, 66632, Note_off_c, 1, 34, 64
3, 66680, Note_on_c, 1, 34, 88
3, 66756, Note_off_c, 1, 34, 64
3, 66812, Note_on_c, 1, 34, 88
3, 66892, Note_off_c, 1, 34, 64
3, 66936, Note_on_c, 1, 34, 87
3, 67016, Note_off_c, 1, 34, 64
3, 67064, Note_on_c, 1, 34, 93
3, 67136, Note_off_c, 1, 34, 64
3, 67192, Note_on_c, 1, 34, 90
3, 67320, Note_on_c, 1, 36, 94
3, 67360, Note_off_c, 1, 34, 64
3, 67436, Note_off_c, 1, 36, 64
3, 67444, Note_on_c, 1, 38, 96
3, 67584, Note_on_c, 1, 39, 93
3, 67588, Note_off_c, 1, 38, 64
3, 67688, Note_off_c, 1, 39, 64
3, 67832, Note_on_c, 1, 39, 93
3, 67972, Note_on_c, 1, 43, 95
3, 68004, Note_off_c, 1, 39, 64
3, 68080, Note_off_c, 1, 43, 64
3, 68228, Note_on_c, 1, 43, 94
3, 68356, Note_on_c, 1, 46, 93
3, 68376, Note_off_c, 1, 43, 64
3, 68472, Note_off_c, 1, 46, 64
3, 68604, Note_on_c, 1, 46, 91
3, 68740, Note_on_c, 1, 48, 95
3, 68752, Note_off_c, 1, 46, 64
3, 68844, Note_off_c, 1, 48, 64
3, 68988, Note_on_c, 1, 48, 92
3, 69116, Note_on_c, 1, 49, 93
3, 69144, Note_off_c, 1, 48, 64
3, 69240, Note_off_c, 1, 49, 64
3, 69372, Note_on_c, 1, 49, 92
3, 69500, Note_on_c, 1, 46, 93
3, 69536, Note_off_c, 1, 49, 64
3, 69612, Note_off_c, 1, 46, 64
3, 69752, Note_on_c, 1, 46, 89
3, 69880, Note_on_c, 1, 43, 97
3, 69892, Note_off_c, 1, 46, 64
3, 69996, Note_off_c, 1, 43, 64
3, 70136, Note_on_c, 1, 43, 81
3, 70272, Note_on_c, 1, 40, 100
3, 70304, Note_off_c, 1, 43, 64
3, 70396, Note_off_c, 1, 40, 64
3, 70524, Note_on_c, 1, 40, 96
3, 70648, Note_off_c, 1, 40, 64
3, 70656, Note_on_c, 1, 34, 91
3, 70776, Note_off_c, 1, 34, 64
3, 70908, Note_on_c, 1, 34, 92
3, 71044, Note_on_c, 1, 38, 97
3, 71068, Note_off_c, 1, 34, 64
3, 71160, Note_off_c, 1, 38, 64
3, 71292, Note_on_c, 1, 38, 97
3, 71416, Note_on_c, 1, 41, 94
3, 71424, Note_off_c, 1, 38, 64
3, 71540, Note_off_c, 1, 41, 64
3, 71672, Note_on_c, 1, 41, 93
3, 71804, Note_on_c, 1, 43, 92
3, 71832, Note_off_c, 1, 41, 64
3, 71944, Note_off_c, 1, 43, 64
3, 72056, Note_on_c, 1, 43, 93
3, 72188, Note_on_c, 1, 46, 90
3, 72232, Note_off_c, 1, 43, 64
3, 72320, Note_off_c, 1, 46, 64
3, 72440, Note_on_c, 1, 46, 87
3, 72568, Note_on_c, 1, 43, 85
3, 72580, Note_off_c, 1, 46, 64
3, 72728, Note_off_c, 1, 43, 64
3, 72824, Note_on_c, 1, 43, 94
3, 72956, Note_on_c, 1, 41, 95
3, 72980, Note_off_c, 1, 43, 64
3, 73068, Note_off_c, 1, 41, 64
3, 73216, Note_on_c, 1, 41, 95
3, 73352, Note_on_c, 1, 38, 97
3, 73368, Note_off_c, 1, 41, 64
3, 73464, Note_off_c, 1, 38, 64
3, 73596, Note_on_c, 1, 38, 97
3, 73720, Note_on_c, 1, 39, 94
3, 73740, Note_off_c, 1, 38, 64
3, 73816, Note_off_c, 1, 39, 64
3, 73976, Note_on_c, 1, 39, 96
3, 74100, Note_on_c, 1, 46, 82
3, 74120, Note_off_c, 1, 39, 64
3, 74216, Note_off_c, 1, 46, 64
3, 74360, Note_on_c, 1, 46, 89
3, 74488, Note_on_c, 1, 43, 97
3, 74512, Note_off_c, 1, 46, 64
3, 74604, Note_off_c, 1, 43, 64
3, 74744, Note_on_c, 1, 43, 92
3, 74884, Note_on_c, 1, 39, 95
3, 74916, Note_off_c, 1, 43, 64
3, 75000, Note_off_c, 1, 39, 64
3, 75128, Note_on_c, 1, 39, 89
3, 75260, Note_on_c, 1, 40, 99
3, 75312, Note_off_c, 1, 39, 64
3, 75356, Note_off_c, 1, 40, 64
3, 75512, Note_on_c, 1, 40, 98
3, 75652, Note_on_c, 1, 46, 83
3, 75688, Note_off_c, 1, 40, 64
3, 75764, Note_off_c, 1, 46, 64
3, 75896, Note_on_c, 1, 46, 93
3, 76028, Note_on_c, 1, 43, 96
3, 76056, Note_off_c, 1, 46, 64
3, 76148, Note_off_c, 1, 43, 64
3, 76284, Note_on_c, 1, 43, 94
3, 76416, Note_on_c, 1, 40, 98
3, 76444, Note_off_c, 1, 43, 64
3, 76528, Note_off_c, 1, 40, 64
3, 76664, Note_on_c, 1, 40, 95
3, 76796, Note_on_c, 1, 41, 95
3, 76820, Note_off_c, 1, 40, 64
3, 76920, Note_off_c, 1, 41, 64
3, 77044, Note_on_c, 1, 41, 95
3, 77176, Note_on_c, 1, 45, 85
3, 77212, Note_off_c, 1, 41, 64
3, 77284, Note_off_c, 1, 45, 64
3, 77428, Note_on_c, 1, 45, 94
3, 77564, Note_on_c, 1, 48, 93
3, 77604, Note_off_c, 1, 45, 64
3, 77672, Note_off_c, 1, 48, 64
3, 77812, Note_on_c, 1, 48, 95
3, 77948, Note_on_c, 1, 45, 94
3, 77992, Note_off_c, 1, 48, 64
3, 78064, Note_off_c, 1, 45, 64
3, 78196, Note_on_c, 1, 45, 91
3, 78328, Note_on_c, 1, 41, 95
3, 78360, Note_off_c, 1, 45, 64
3, 78440, Note_off_c, 1, 41, 64
3, 78580, Note_on_c, 1, 41, 94
3, 78716, Note_on_c, 1, 39, 97
3, 78764, Note_off_c, 1, 41, 64
3, 78816, Note_off_c, 1, 39, 64
3, 78968, Note_on_c, 1, 39, 97
3, 79100, Note_on_c, 1, 38, 99
3, 79124, Note_off_c, 1, 39, 64
3, 79216, Note_off_c, 1, 38, 64
3, 79352, Note_on_c, 1, 38, 94
3, 79492, Note_on_c, 1, 36, 100
3, 79524, Note_off_c, 1, 38, 64
3, 79608, Note_off_c, 1, 36, 64
3, 79724, Note_on_c, 1, 36, 94
3, 79876, Note_on_c, 1, 34, 97
3, 79928, Note_off_c, 1, 36, 64
3, 79996, Note_off_c, 1, 34, 64
3, 80500, Note_on_c, 1, 37, 93
3, 80632, Note_on_c, 1, 38, 99
3, 80660, Note_off_c, 1, 37, 64
3, 81016, Note_on_c, 1, 41, 95
3, 81036, Note_off_c, 1, 38, 64
3, 81244, Note_off_c, 1, 41, 64
3, 81400, Note_on_c, 1, 34, 95
3, 81532, Note_off_c, 1, 34, 64
3, 82040, Note_on_c, 1, 37, 93
3, 82168, Note_on_c, 1, 38, 96
3, 82200, Note_off_c, 1, 37, 64
3, 82552, Note_on_c, 1, 41, 94
3, 82560, Note_off_c, 1, 38, 64
3, 82760, Note_off_c, 1, 41, 64
3, 82936, Note_on_c, 1, 39, 95
3, 83096, Note_off_c, 1, 39, 64
3, 83572, Note_on_c, 1, 42, 91
3, 83704, Note_on_c, 1, 43, 96
3, 83736, Note_off_c, 1, 42, 64
3, 84088, Note_on_c, 1, 46, 90
3, 84092, Note_off_c, 1, 43, 64
3, 84284, Note_off_c, 1, 46, 64
3, 84472, Note_on_c, 1, 34, 94
3, 84636, Note_off_c, 1, 34, 64
3, 85124, Note_on_c, 1, 37, 95
3, 85244, Note_on_c, 1, 38, 97
3, 85264, Note_off_c, 1, 37, 64
3, 85628, Note_on_c, 1, 41, 93
3, 85644, Note_off_c, 1, 38, 64
3, 85812, Note_off_c, 1, 41, 64
3, 86008, Note_on_c, 1, 34, 93
3, 86144, Note_off_c, 1, 34, 64
3, 86648, Note_on_c, 1, 37, 96
3, 86788, Note_on_c, 1, 38, 96
3, 86808, Note_off_c, 1, 37, 64
3, 87164, Note_on_c, 1, 41, 94
3, 87176, Note_off_c, 1, 38, 64
3, 87344, Note_off_c, 1, 41, 64
3, 87548, Note_on_c, 1, 41, 98
3, 87696, Note_off_c, 1, 41, 64
3, 88184, Note_on_c, 1, 44, 90
3, 88316, Note_on_c, 1, 45, 96
3, 88352, Note_off_c, 1, 44, 64
3, 88696, Note_on_c, 1, 48, 93
3, 88708, Note_off_c, 1, 45, 64
3, 88864, Note_off_c, 1, 48, 64
3, 89088, Note_on_c, 1, 34, 97
3, 89188, Note_off_c, 1, 34, 64
3, 89336, Note_on_c, 1, 34, 93
3, 89472, Note_on_c, 1, 38, 97
3, 89500, Note_off_c, 1, 34, 64
3, 89840, Note_off_c, 1, 38, 64
3, 89848, Note_on_c, 1, 39, 95
3, 90220, Note_off_c, 1, 39, 64
3, 90232, Note_on_c, 1, 40, 96
3, 90612, Note_off_c, 1, 40, 64
3, 90616, Note_on_c, 1, 41, 93
3, 90868, Note_on_c, 1, 43, 98
3, 90872, Note_off_c, 1, 41, 64
3, 91000, Note_on_c, 1, 45, 94
3, 91044, Note_off_c, 1, 43, 64
3, 91252, Note_off_c, 1, 45, 64
3, 91252, Note_on_c, 1, 46, 95
3, 91408, Note_off_c, 1, 46, 64
3, 91756, Note_on_c, 1, 34, 100
3, 93688, Note_off_c, 1, 34, 64
3, 95232, End_track
4, 0, Start_track
4, 0, Title_t, "JAZZ GTR"
4, 1968, Program_c, 2, 26
4, 1972, Control_c, 2, 7, 105
4, 1972, Control_c, 2, 10, 102
4, 1972, Control_c, 2, 11, 127
4, 1976, Control_c, 2, 91, 45
4, 1976, Control_c, 2, 93, 12
4, 6136, Note_on_c, 2, 46, 104
4, 6140, Control_c, 2, 1, 0
4, 6140, Pitch_bend_c, 2, 8192
4, 6276, Note_off_c, 2, 46, 64
4, 6772, Note_on_c, 2, 49, 102
4, 6900, Note_on_c, 2, 50, 112
4, 6916, Note_off_c, 2, 49, 64
4, 7300, Note_on_c, 2, 53, 101
4, 7332, Note_off_c, 2, 50, 64
4, 7576, Note_off_c, 2, 53, 64
4, 7676, Note_on_c, 2, 46, 101
4, 7820, Note_off_c, 2, 46, 64
4, 8324, Note_on_c, 2, 49, 104
4, 8444, Note_on_c, 2, 50, 107
4, 8456, Note_off_c, 2, 49, 64
4, 8836, Note_on_c, 2, 53, 107
4, 8856, Note_off_c, 2, 50, 64
4, 9032, Note_off_c, 2, 53, 64
4, 9208, Note_on_c, 2, 51, 106
4, 9344, Note_off_c, 2, 51, 64
4, 9848, Note_on_c, 2, 54, 104
4, 9992, Note_on_c, 2, 55, 111
4, 10024, Note_off_c, 2, 54, 64
4, 10360, Note_off_c, 2, 55, 64
4, 10360, Note_on_c, 2, 58, 102
4, 10552, Note_off_c, 2, 58, 64
4, 10744, Note_on_c, 2, 46, 100
4, 10916, Note_off_c, 2, 46, 64
4, 11384, Note_on_c, 2, 49, 93
4, 11520, Note_on_c, 2, 50, 104
4, 11548, Note_off_c, 2, 49, 64
4, 11908, Note_on_c, 2, 53, 97
4, 11936, Note_off_c, 2, 50, 64
4, 12156, Note_off_c, 2, 53, 64
4, 12280, Note_on_c, 2, 46, 95
4, 12452, Note_off_c, 2, 46, 64
4, 12920, Note_on_c, 2, 49, 99
4, 13052, Note_on_c, 2, 50, 99
4, 13076, Note_off_c, 2, 49, 64
4, 13436, Note_on_c, 2, 53, 95
4, 13452, Note_off_c, 2, 50, 64
4, 13688, Note_off_c, 2, 53, 64
4, 13816, Note_on_c, 2, 46, 104
4, 14004, Note_off_c, 2, 46, 64
4, 14456, Note_on_c, 2, 49, 100
4, 14596, Note_on_c, 2, 50, 101
4, 14616, Note_off_c, 2, 49, 64
4, 14972, Note_on_c, 2, 53, 100
4, 14988, Note_off_c, 2, 50, 64
4, 15160, Note_off_c, 2, 53, 64
4, 15352, Note_on_c, 2, 53, 100
4, 15524, Note_off_c, 2, 53, 64
4, 15992, Note_on_c, 2, 56, 99
4, 16128, Note_on_c, 2, 57, 100
4, 16136, Note_off_c, 2, 56, 64
4, 16508, Note_on_c, 2, 60, 97
4, 16516, Note_off_c, 2, 57, 64
4, 16728, Note_off_c, 2, 60, 64
4, 16892, Note_on_c, 2, 53, 98
4, 17064, Note_off_c, 2, 53, 64
4, 17528, Note_on_c, 2, 56, 93
4, 17660, Note_on_c, 2, 57, 95
4, 17676, Note_off_c, 2, 56, 64
4, 18044, Note_on_c, 2, 60, 97
4, 18076, Note_off_c, 2, 57, 64
4, 18212, Note_off_c, 2, 60, 64
4, 18428, Note_on_c, 2, 46, 101
4, 18592, Note_off_c, 2, 46, 64
4, 19068, Note_on_c, 2, 49, 101
4, 19196, Note_on_c, 2, 50, 100
4, 19208, Note_off_c, 2, 49, 64
4, 19584, Note_on_c, 2, 53, 99
4, 19592, Note_off_c, 2, 50, 64
4, 19832, Note_off_c, 2, 53, 64
4, 19972, Note_on_c, 2, 46, 98
4, 20136, Note_off_c, 2, 46, 64
4, 20600, Note_on_c, 2, 49, 98
4, 20728, Note_on_c, 2, 50, 104
4, 20732, Note_off_c, 2, 49, 64
4, 21112, Note_on_c, 2, 53, 97
4, 21128, Note_off_c, 2, 50, 64
4, 21336, Note_off_c, 2, 53, 64
4, 21496, Note_on_c, 2, 51, 100
4, 21656, Note_off_c, 2, 51, 64
4, 22136, Note_on_c, 2, 54, 106
4, 22272, Note_on_c, 2, 55, 102
4, 22284, Note_off_c, 2, 54, 64
4, 22656, Note_on_c, 2, 58, 92
4, 22680, Note_off_c, 2, 55, 64
4, 22856, Note_off_c, 2, 58, 64
4, 23044, Note_on_c, 2, 46, 104
4, 23208, Note_off_c, 2, 46, 64
4, 23672, Note_on_c, 2, 49, 99
4, 23804, Note_on_c, 2, 50, 95
4, 23820, Note_off_c, 2, 49, 64
4, 24188, Note_on_c, 2, 53, 101
4, 24216, Note_off_c, 2, 50, 64
4, 24424, Note_off_c, 2, 53, 64
4, 24568, Note_on_c, 2, 46, 99
4, 24728, Note_off_c, 2, 46, 64
4, 25212, Note_on_c, 2, 49, 101
4, 25352, Note_on_c, 2, 50, 97
4, 25356, Note_off_c, 2, 49, 64
4, 25724, Note_on_c, 2, 53, 100
4, 25744, Note_off_c, 2, 50, 64
4, 25960, Note_off_c, 2, 53, 64
4, 26104, Note_on_c, 2, 53, 102
4, 26280, Note_off_c, 2, 53, 64
4, 26744, Note_on_c, 2, 56, 94
4, 26884, Note_on_c, 2, 57, 95
4, 26908, Note_off_c, 2, 56, 64
4, 27260, Note_on_c, 2, 60, 102
4, 27288, Note_off_c, 2, 57, 64
4, 27468, Note_off_c, 2, 60, 64
4, 27648, Note_on_c, 2, 46, 98
4, 27788, Note_off_c, 2, 46, 64
4, 28284, Note_on_c, 2, 49, 94
4, 28424, Note_on_c, 2, 50, 107
4, 28432, Note_off_c, 2, 49, 64
4, 28792, Note_on_c, 2, 53, 107
4, 28812, Note_off_c, 2, 50, 64
4, 29044, Note_off_c, 2, 53, 64
4, 29196, Note_on_c, 2, 46, 65
4, 29220, Note_off_c, 2, 46, 64
4, 29304, Note_on_c, 2, 46, 93
4, 29304, Note_on_c, 2, 50, 95
4, 29352, Note_off_c, 2, 50, 64
4, 29364, Note_off_c, 2, 46, 64
4, 29428, Note_on_c, 2, 50, 92
4, 29432, Note_on_c, 2, 46, 74
4, 29472, Note_off_c, 2, 46, 64
4, 29484, Note_off_c, 2, 50, 64
4, 29560, Note_on_c, 2, 50, 89
4, 29560, Note_on_c, 2, 46, 77
4, 29624, Note_off_c, 2, 46, 64
4, 29628, Note_off_c, 2, 50, 64
4, 29688, Note_on_c, 2, 50, 93
4, 29688, Note_on_c, 2, 46, 83
4, 29740, Note_off_c, 2, 46, 64
4, 29748, Note_off_c, 2, 50, 64
4, 29816, Note_on_c, 2, 50, 100
4, 29820, Note_on_c, 2, 46, 89
4, 29864, Note_off_c, 2, 46, 64
4, 29876, Note_off_c, 2, 50, 64
4, 29944, Note_on_c, 2, 50, 107
4, 29948, Note_on_c, 2, 46, 92
4, 29992, Note_off_c, 2, 46, 64
4, 30008, Note_off_c, 2, 50, 64
4, 30072, Note_on_c, 2, 50, 98
4, 30072, Note_on_c, 2, 46, 87
4, 30120, Note_off_c, 2, 46, 64
4, 30136, Note_off_c, 2, 50, 64
4, 30200, Note_on_c, 2, 50, 100
4, 30200, Note_on_c, 2, 46, 85
4, 30260, Note_off_c, 2, 46, 64
4, 30268, Note_off_c, 2, 50, 64
4, 30328, Note_on_c, 2, 46, 98
4, 30468, Note_on_c, 2, 48, 110
4, 30508, Note_off_c, 2, 46, 64
4, 30596, Note_on_c, 2, 50, 108
4, 30600, Note_off_c, 2, 48, 64
4, 30712, Note_off_c, 2, 50, 64
4, 30720, Note_on_c, 2, 51, 95
4, 30788, Note_off_c, 2, 51, 64
4, 30960, Note_on_c, 2, 51, 99
4, 31112, Note_on_c, 2, 55, 107
4, 31160, Note_off_c, 2, 51, 64
4, 31220, Note_off_c, 2, 55, 64
4, 31368, Note_on_c, 2, 55, 107
4, 31496, Note_on_c, 2, 58, 93
4, 31512, Note_off_c, 2, 55, 64
4, 31616, Note_off_c, 2, 58, 64
4, 31752, Note_on_c, 2, 58, 105
4, 31880, Note_on_c, 2, 55, 107
4, 31912, Note_off_c, 2, 58, 64
4, 31992, Note_off_c, 2, 55, 64
4, 32132, Note_on_c, 2, 55, 101
4, 32264, Note_off_c, 2, 55, 64
4, 32264, Note_on_c, 2, 52, 104
4, 32360, Note_off_c, 2, 52, 64
4, 32504, Note_on_c, 2, 52, 111
4, 32636, Note_off_c, 2, 52, 64
4, 32636, Note_on_c, 2, 55, 100
4, 32740, Note_off_c, 2, 55, 64
4, 32888, Note_on_c, 2, 55, 102
4, 33024, Note_on_c, 2, 58, 94
4, 33028, Note_off_c, 2, 55, 64
4, 33152, Note_off_c, 2, 58, 64
4, 33276, Note_on_c, 2, 58, 102
4, 33416, Note_on_c, 2, 55, 110
4, 33432, Note_off_c, 2, 58, 64
4, 33532, Note_off_c, 2, 55, 64
4, 33656, Note_on_c, 2, 55, 100
4, 33736, Note_off_c, 2, 55, 64
4, 33796, Note_on_c, 2, 46, 112
4, 33864, Note_off_c, 2, 46, 64
4, 34036, Note_on_c, 2, 46, 83
4, 34168, Note_on_c, 2, 50, 110
4, 34196, Note_off_c, 2, 46, 64
4, 34264, Note_off_c, 2, 50, 64
4, 34424, Note_on_c, 2, 50, 107
4, 34564, Note_on_c, 2, 53, 100
4, 34584, Note_off_c, 2, 50, 64
4, 34668, Note_off_c, 2, 53, 64
4, 34812, Note_on_c, 2, 53, 102
4, 34952, Note_on_c, 2, 50, 105
4, 34976, Note_off_c, 2, 53, 64
4, 35044, Note_off_c, 2, 50, 64
4, 35196, Note_on_c, 2, 50, 104
4, 35336, Note_on_c, 2, 46, 93
4, 35368, Note_off_c, 2, 50, 64
4, 35460, Note_off_c, 2, 46, 64
4, 35576, Note_on_c, 2, 46, 91
4, 35716, Note_on_c, 2, 50, 106
4, 35740, Note_off_c, 2, 46, 64
4, 35832, Note_off_c, 2, 50, 64
4, 35968, Note_on_c, 2, 50, 107
4, 36104, Note_on_c, 2, 53, 100
4, 36112, Note_off_c, 2, 50, 64
4, 36220, Note_off_c, 2, 53, 64
4, 36356, Note_on_c, 2, 53, 103
4, 36488, Note_on_c, 2, 50, 107
4, 36536, Note_off_c, 2, 53, 64
4, 36584, Note_off_c, 2, 50, 64
4, 36728, Note_on_c, 2, 50, 105
4, 36860, Note_on_c, 2, 51, 106
4, 36876, Note_off_c, 2, 50, 64
4, 36952, Note_off_c, 2, 51, 64
4, 37108, Note_on_c, 2, 51, 94
4, 37224, Note_off_c, 2, 51, 64
4, 37240, Note_on_c, 2, 55, 98
4, 37336, Note_off_c, 2, 55, 64
4, 37496, Note_on_c, 2, 55, 98
4, 37628, Note_on_c, 2, 58, 101
4, 37644, Note_off_c, 2, 55, 64
4, 37740, Note_off_c, 2, 58, 64
4, 37880, Note_on_c, 2, 58, 102
4, 38020, Note_on_c, 2, 55, 100
4, 38040, Note_off_c, 2, 58, 64
4, 38116, Note_off_c, 2, 55, 64
4, 38268, Note_on_c, 2, 55, 100
4, 38400, Note_on_c, 2, 52, 102
4, 38436, Note_off_c, 2, 55, 64
4, 38504, Note_off_c, 2, 52, 64
4, 38648, Note_on_c, 2, 52, 101
4, 38784, Note_on_c, 2, 55, 104
4, 38792, Note_off_c, 2, 52, 64
4, 38884, Note_off_c, 2, 55, 64
4, 39032, Note_on_c, 2, 55, 105
4, 39176, Note_on_c, 2, 58, 105
4, 39216, Note_off_c, 2, 55, 64
4, 39256, Note_off_c, 2, 58, 64
4, 39416, Note_on_c, 2, 58, 105
4, 39560, Note_on_c, 2, 55, 100
4, 39580, Note_off_c, 2, 58, 64
4, 39648, Note_off_c, 2, 55, 64
4, 39800, Note_on_c, 2, 55, 99
4, 39916, Note_off_c, 2, 55, 64
4, 39932, Note_on_c, 2, 53, 82
4, 39936, Note_on_c, 2, 52, 91
4, 39984, Note_off_c, 2, 52, 64
4, 40052, Note_off_c, 2, 53, 64
4, 40180, Note_on_c, 2, 53, 97
4, 40312, Note_on_c, 2, 57, 102
4, 40328, Note_off_c, 2, 53, 64
4, 40432, Note_off_c, 2, 57, 64
4, 40568, Note_on_c, 2, 57, 97
4, 40712, Note_on_c, 2, 60, 100
4, 40740, Note_off_c, 2, 57, 64
4, 40828, Note_off_c, 2, 60, 64
4, 40952, Note_on_c, 2, 60, 107
4, 41100, Note_on_c, 2, 57, 103
4, 41144, Note_off_c, 2, 60, 64
4, 41196, Note_off_c, 2, 57, 64
4, 41340, Note_on_c, 2, 57, 97
4, 41452, Note_off_c, 2, 57, 64
4, 41464, Note_on_c, 2, 53, 100
4, 41568, Note_off_c, 2, 53, 64
4, 41720, Note_on_c, 2, 53, 102
4, 41852, Note_on_c, 2, 51, 106
4, 41900, Note_off_c, 2, 53, 64
4, 41956, Note_off_c, 2, 51, 64
4, 42104, Note_on_c, 2, 51, 101
4, 42236, Note_on_c, 2, 50, 107
4, 42244, Note_off_c, 2, 51, 64
4, 42332, Note_off_c, 2, 50, 64
4, 42492, Note_on_c, 2, 50, 107
4, 42632, Note_on_c, 2, 48, 108
4, 42668, Note_off_c, 2, 50, 64
4, 42716, Note_off_c, 2, 48, 64
4, 42876, Note_on_c, 2, 48, 111
4, 43008, Note_off_c, 2, 48, 64
4, 43008, Note_on_c, 2, 46, 105
4, 43120, Note_off_c, 2, 46, 64
4, 43640, Note_on_c, 2, 49, 94
4, 43776, Note_on_c, 2, 50, 111
4, 43788, Note_off_c, 2, 49, 64
4, 44156, Note_on_c, 2, 53, 100
4, 44164, Note_off_c, 2, 50, 64
4, 44384, Note_off_c, 2, 53, 64
4, 44536, Note_on_c, 2, 46, 94
4, 44688, Note_off_c, 2, 46, 64
4, 45176, Note_on_c, 2, 49, 101
4, 45304, Note_on_c, 2, 50, 102
4, 45336, Note_off_c, 2, 49, 64
4, 45696, Note_on_c, 2, 53, 101
4, 45716, Note_off_c, 2, 50, 64
4, 45880, Note_off_c, 2, 53, 64
4, 46072, Note_on_c, 2, 51, 95
4, 46232, Note_off_c, 2, 51, 64
4, 46716, Note_on_c, 2, 54, 104
4, 46840, Note_on_c, 2, 56, 80
4, 46852, Note_on_c, 2, 55, 100
4, 46864, Note_off_c, 2, 54, 64
4, 46888, Note_off_c, 2, 56, 64
4, 47228, Note_on_c, 2, 58, 94
4, 47264, Note_off_c, 2, 55, 64
4, 47396, Note_off_c, 2, 58, 64
4, 47608, Note_on_c, 2, 46, 97
4, 47752, Note_off_c, 2, 46, 64
4, 48244, Note_on_c, 2, 49, 94
4, 48376, Note_on_c, 2, 50, 96
4, 48388, Note_off_c, 2, 49, 64
4, 48760, Note_on_c, 2, 53, 92
4, 48772, Note_off_c, 2, 50, 64
4, 48980, Note_off_c, 2, 53, 64
4, 49140, Note_on_c, 2, 46, 98
4, 49300, Note_off_c, 2, 46, 64
4, 49780, Note_on_c, 2, 49, 102
4, 49916, Note_on_c, 2, 50, 94
4, 49932, Note_off_c, 2, 49, 64
4, 50304, Note_on_c, 2, 53, 100
4, 50320, Note_off_c, 2, 50, 64
4, 50472, Note_off_c, 2, 53, 64
4, 50680, Note_on_c, 2, 53, 100
4, 50864, Note_off_c, 2, 53, 64
4, 51320, Note_on_c, 2, 56, 91
4, 51452, Note_on_c, 2, 57, 99
4, 51480, Note_off_c, 2, 56, 64
4, 51828, Note_on_c, 2, 60, 95
4, 51836, Note_off_c, 2, 57, 64
4, 52000, Note_off_c, 2, 60, 64
4, 52224, Note_on_c, 2, 46, 99
4, 52396, Note_off_c, 2, 46, 64
4, 52856, Note_on_c, 2, 49, 97
4, 52988, Note_on_c, 2, 50, 107
4, 53000, Note_off_c, 2, 49, 64
4, 53368, Note_on_c, 2, 53, 101
4, 53380, Note_off_c, 2, 50, 64
4, 53604, Note_off_c, 2, 53, 64
4, 53768, Note_on_c, 2, 53, 102
4, 53944, Note_off_c, 2, 53, 64
4, 54392, Note_on_c, 2, 56, 99
4, 54528, Note_on_c, 2, 57, 101
4, 54536, Note_off_c, 2, 56, 64
4, 54908, Note_on_c, 2, 60, 97
4, 54916, Note_off_c, 2, 57, 64
4, 55108, Note_off_c, 2, 60, 64
4, 55296, Note_on_c, 2, 46, 109
4, 55448, Note_off_c, 2, 46, 64
4, 55928, Note_on_c, 2, 49, 98
4, 56060, Note_off_c, 2, 49, 64
4, 56060, Note_on_c, 2, 50, 110
4, 56448, Note_on_c, 2, 53, 100
4, 56472, Note_off_c, 2, 50, 64
4, 56704, Note_off_c, 2, 53, 64
4, 56828, Note_on_c, 2, 46, 102
4, 56988, Note_off_c, 2, 46, 64
4, 57464, Note_on_c, 2, 49, 111
4, 57608, Note_on_c, 2, 50, 104
4, 57620, Note_off_c, 2, 49, 64
4, 57976, Note_off_c, 2, 50, 64
4, 57976, Note_on_c, 2, 53, 98
4, 58224, Note_off_c, 2, 53, 64
4, 58360, Note_on_c, 2, 51, 95
4, 58552, Note_off_c, 2, 51, 64
4, 58992, Note_on_c, 2, 54, 99
4, 59128, Note_on_c, 2, 55, 95
4, 59152, Note_off_c, 2, 54, 64
4, 59512, Note_on_c, 2, 58, 104
4, 59540, Note_off_c, 2, 55, 64
4, 59728, Note_off_c, 2, 58, 64
4, 59900, Note_on_c, 2, 46, 100
4, 60064, Note_off_c, 2, 46, 64
4, 60536, Note_on_c, 2, 49, 98
4, 60680, Note_on_c, 2, 50, 106
4, 60700, Note_off_c, 2, 49, 64
4, 61052, Note_on_c, 2, 53, 91
4, 61056, Note_off_c, 2, 50, 64
4, 61292, Note_off_c, 2, 53, 64
4, 61432, Note_on_c, 2, 46, 97
4, 61600, Note_off_c, 2, 46, 64
4, 62072, Note_on_c, 2, 49, 100
4, 62216, Note_on_c, 2, 50, 101
4, 62228, Note_off_c, 2, 49, 64
4, 62596, Note_on_c, 2, 53, 100
4, 62608, Note_off_c, 2, 50, 64
4, 62836, Note_off_c, 2, 53, 64
4, 62968, Note_on_c, 2, 53, 102
4, 63180, Note_off_c, 2, 53, 64
4, 63612, Note_on_c, 2, 56, 100
4, 63752, Note_on_c, 2, 57, 100
4, 63764, Note_off_c, 2, 56, 64
4, 64120, Note_off_c, 2, 57, 64
4, 64120, Note_on_c, 2, 60, 95
4, 64296, Note_off_c, 2, 60, 64
4, 64512, Note_on_c, 2, 46, 105
4, 64652, Note_off_c, 2, 46, 64
4, 65144, Note_on_c, 2, 49, 102
4, 65280, Note_on_c, 2, 50, 107
4, 65288, Note_off_c, 2, 49, 64
4, 65660, Note_on_c, 2, 53, 111
4, 65688, Note_off_c, 2, 50, 64
4, 65896, Note_off_c, 2, 53, 64
4, 66040, Note_on_c, 2, 50, 96
4, 66040, Note_on_c, 2, 46, 82
4, 66104, Note_off_c, 2, 46, 64
4, 66104, Note_off_c, 2, 50, 64
4, 66168, Note_on_c, 2, 46, 89
4, 66168, Note_on_c, 2, 50, 97
4, 66220, Note_off_c, 2, 50, 64
4, 66220, Note_off_c, 2, 46, 64
4, 66296, Note_on_c, 2, 50, 106
4, 66296, Note_on_c, 2, 46, 94
4, 66344, Note_off_c, 2, 46, 64
4, 66352, Note_off_c, 2, 50, 64
4, 66424, Note_on_c, 2, 50, 106
4, 66424, Note_on_c, 2, 46, 92
4, 66476, Note_off_c, 2, 46, 64
4, 66484, Note_off_c, 2, 50, 64
4, 66552, Note_on_c, 2, 50, 104
4, 66552, Note_on_c, 2, 46, 93
4, 66600, Note_off_c, 2, 46, 64
4, 66608, Note_off_c, 2, 50, 64
4, 66680, Note_on_c, 2, 50, 111
4, 66680, Note_on_c, 2, 46, 97
4, 66728, Note_off_c, 2, 46, 64
4, 66736, Note_off_c, 2, 50, 64
4, 66808, Note_on_c, 2, 46, 97
4, 66808, Note_on_c, 2, 50, 107
4, 66860, Note_off_c, 2, 50, 64
4, 66860, Note_off_c, 2, 46, 64
4, 66936, Note_on_c, 2, 50, 108
4, 66936, Note_on_c, 2, 46, 99
4, 66988, Note_off_c, 2, 46, 64
4, 66988, Note_off_c, 2, 50, 64
4, 67068, Note_on_c, 2, 50, 113
4, 67068, Note_on_c, 2, 46, 101
4, 67116, Note_off_c, 2, 46, 64
4, 67124, Note_off_c, 2, 50, 64
4, 67192, Note_on_c, 2, 46, 106
4, 67324, Note_on_c, 2, 48, 110
4, 67376, Note_off_c, 2, 46, 64
4, 67448, Note_on_c, 2, 50, 115
4, 67452, Note_off_c, 2, 48, 64
4, 67528, Note_off_c, 2, 50, 64
4, 67584, Note_on_c, 2, 51, 95
4, 67704, Note_off_c, 2, 51, 64
4, 67832, Note_on_c, 2, 51, 99
4, 67964, Note_on_c, 2, 55, 102
4, 68000, Note_off_c, 2, 51, 64
4, 68092, Note_off_c, 2, 55, 64
4, 68216, Note_on_c, 2, 55, 97
4, 68340, Note_on_c, 2, 58, 88
4, 68368, Note_off_c, 2, 55, 64
4, 68472, Note_off_c, 2, 58, 64
4, 68596, Note_on_c, 2, 58, 93
4, 68728, Note_on_c, 2, 55, 102
4, 68768, Note_off_c, 2, 58, 64
4, 68844, Note_off_c, 2, 55, 64
4, 68980, Note_on_c, 2, 55, 102
4, 69112, Note_on_c, 2, 52, 100
4, 69160, Note_off_c, 2, 55, 64
4, 69224, Note_off_c, 2, 52, 64
4, 69364, Note_on_c, 2, 52, 107
4, 69496, Note_on_c, 2, 55, 97
4, 69512, Note_off_c, 2, 52, 64
4, 69612, Note_off_c, 2, 55, 64
4, 69752, Note_on_c, 2, 55, 100
4, 69880, Note_on_c, 2, 58, 85
4, 69908, Note_off_c, 2, 55, 64
4, 70016, Note_off_c, 2, 58, 64
4, 70136, Note_on_c, 2, 58, 91
4, 70264, Note_on_c, 2, 55, 103
4, 70296, Note_off_c, 2, 58, 64
4, 70384, Note_off_c, 2, 55, 64
4, 70520, Note_on_c, 2, 55, 96
4, 70652, Note_on_c, 2, 46, 98
4, 70672, Note_off_c, 2, 55, 64
4, 70784, Note_off_c, 2, 46, 64
4, 70904, Note_on_c, 2, 46, 104
4, 71044, Note_on_c, 2, 50, 107
4, 71080, Note_off_c, 2, 46, 64
4, 71144, Note_off_c, 2, 50, 64
4, 71288, Note_on_c, 2, 50, 103
4, 71420, Note_on_c, 2, 53, 97
4, 71428, Note_off_c, 2, 50, 64
4, 71544, Note_off_c, 2, 53, 64
4, 71672, Note_on_c, 2, 53, 99
4, 71816, Note_on_c, 2, 50, 102
4, 71820, Note_off_c, 2, 53, 64
4, 71916, Note_off_c, 2, 50, 64
4, 72056, Note_on_c, 2, 50, 100
4, 72184, Note_on_c, 2, 46, 91
4, 72212, Note_off_c, 2, 50, 64
4, 72312, Note_off_c, 2, 46, 64
4, 72436, Note_on_c, 2, 46, 88
4, 72568, Note_on_c, 2, 50, 100
4, 72600, Note_off_c, 2, 46, 64
4, 72672, Note_off_c, 2, 50, 64
4, 72820, Note_on_c, 2, 50, 102
4, 72956, Note_on_c, 2, 53, 96
4, 72968, Note_off_c, 2, 50, 64
4, 73072, Note_off_c, 2, 53, 64
4, 73208, Note_on_c, 2, 53, 97
4, 73340, Note_on_c, 2, 50, 102
4, 73384, Note_off_c, 2, 53, 64
4, 73432, Note_off_c, 2, 50, 64
4, 73592, Note_on_c, 2, 50, 100
4, 73728, Note_on_c, 2, 51, 104
4, 73740, Note_off_c, 2, 50, 64
4, 73800, Note_off_c, 2, 51, 64
4, 73976, Note_on_c, 2, 51, 97
4, 74104, Note_off_c, 2, 51, 64
4, 74104, Note_on_c, 2, 55, 93
4, 74232, Note_off_c, 2, 55, 64
4, 74360, Note_on_c, 2, 55, 101
4, 74504, Note_on_c, 2, 58, 100
4, 74552, Note_off_c, 2, 55, 64
4, 74612, Note_off_c, 2, 58, 64
4, 74744, Note_on_c, 2, 58, 101
4, 74872, Note_on_c, 2, 55, 90
4, 74876, Note_off_c, 2, 58, 64
4, 74972, Note_off_c, 2, 55, 64
4, 75128, Note_on_c, 2, 55, 96
4, 75260, Note_on_c, 2, 52, 102
4, 75280, Note_off_c, 2, 55, 64
4, 75376, Note_off_c, 2, 52, 64
4, 75512, Note_on_c, 2, 52, 97
4, 75644, Note_off_c, 2, 52, 64
4, 75644, Note_on_c, 2, 55, 100
4, 75744, Note_off_c, 2, 55, 64
4, 75892, Note_on_c, 2, 55, 100
4, 76024, Note_on_c, 2, 58, 109
4, 76072, Note_off_c, 2, 55, 64
4, 76132, Note_off_c, 2, 58, 64
4, 76280, Note_on_c, 2, 58, 100
4, 76408, Note_on_c, 2, 55, 100
4, 76416, Note_off_c, 2, 58, 64
4, 76512, Note_off_c, 2, 55, 64
4, 76660, Note_on_c, 2, 55, 104
4, 76788, Note_on_c, 2, 53, 100
4, 76824, Note_off_c, 2, 55, 64
4, 76904, Note_off_c, 2, 53, 64
4, 77044, Note_on_c, 2, 53, 94
4, 77176, Note_on_c, 2, 57, 100
4, 77212, Note_off_c, 2, 53, 64
4, 77288, Note_off_c, 2, 57, 64
4, 77428, Note_on_c, 2, 57, 97
4, 77564, Note_on_c, 2, 60, 101
4, 77600, Note_off_c, 2, 57, 64
4, 77668, Note_off_c, 2, 60, 64
4, 77816, Note_on_c, 2, 60, 100
4, 77944, Note_on_c, 2, 57, 97
4, 77976, Note_off_c, 2, 60, 64
4, 78060, Note_off_c, 2, 57, 64
4, 78196, Note_on_c, 2, 57, 89
4, 78332, Note_on_c, 2, 53, 102
4, 78368, Note_off_c, 2, 57, 64
4, 78436, Note_off_c, 2, 53, 64
4, 78580, Note_on_c, 2, 53, 99
4, 78712, Note_on_c, 2, 51, 100
4, 78756, Note_off_c, 2, 53, 64
4, 78808, Note_off_c, 2, 51, 64
4, 78968, Note_on_c, 2, 51, 102
4, 79096, Note_off_c, 2, 51, 64
4, 79096, Note_on_c, 2, 50, 100
4, 79192, Note_off_c, 2, 50, 64
4, 79352, Note_on_c, 2, 50, 105
4, 79484, Note_on_c, 2, 48, 97
4, 79528, Note_off_c, 2, 50, 64
4, 79576, Note_off_c, 2, 48, 64
4, 79736, Note_on_c, 2, 48, 107
4, 79848, Note_off_c, 2, 48, 64
4, 79864, Note_on_c, 2, 46, 97
4, 80000, Note_off_c, 2, 46, 64
4, 80500, Note_on_c, 2, 49, 104
4, 80632, Note_on_c, 2, 50, 105
4, 80640, Note_off_c, 2, 49, 64
4, 81016, Note_off_c, 2, 50, 64
4, 81016, Note_on_c, 2, 53, 94
4, 81304, Note_off_c, 2, 53, 64
4, 81400, Note_on_c, 2, 46, 98
4, 81560, Note_off_c, 2, 46, 64
4, 82036, Note_on_c, 2, 49, 100
4, 82168, Note_on_c, 2, 50, 104
4, 82192, Note_off_c, 2, 49, 64
4, 82552, Note_on_c, 2, 53, 97
4, 82564, Note_off_c, 2, 50, 64
4, 82760, Note_off_c, 2, 53, 64
4, 82936, Note_on_c, 2, 51, 100
4, 83104, Note_off_c, 2, 51, 64
4, 83572, Note_on_c, 2, 54, 101
4, 83708, Note_on_c, 2, 55, 101
4, 83740, Note_off_c, 2, 54, 64
4, 84100, Note_on_c, 2, 58, 89
4, 84136, Note_off_c, 2, 55, 64
4, 84292, Note_off_c, 2, 58, 64
4, 84476, Note_on_c, 2, 46, 94
4, 84636, Note_off_c, 2, 46, 64
4, 85108, Note_on_c, 2, 49, 97
4, 85236, Note_on_c, 2, 50, 92
4, 85256, Note_off_c, 2, 49, 64
4, 85640, Note_on_c, 2, 53, 97
4, 85660, Note_off_c, 2, 50, 64
4, 85868, Note_off_c, 2, 53, 64
4, 86008, Note_on_c, 2, 46, 95
4, 86164, Note_off_c, 2, 46, 64
4, 86648, Note_on_c, 2, 49, 97
4, 86780, Note_on_c, 2, 50, 97
4, 86804, Note_off_c, 2, 49, 64
4, 87164, Note_off_c, 2, 50, 64
4, 87164, Note_on_c, 2, 53, 100
4, 87400, Note_off_c, 2, 53, 64
4, 87544, Note_on_c, 2, 53, 100
4, 87720, Note_off_c, 2, 53, 64
4, 88188, Note_on_c, 2, 56, 93
4, 88328, Note_on_c, 2, 57, 100
4, 88344, Note_off_c, 2, 56, 64
4, 88700, Note_on_c, 2, 60, 93
4, 88704, Note_off_c, 2, 57, 64
4, 88868, Note_off_c, 2, 60, 64
4, 89092, Note_on_c, 2, 46, 98
4, 89460, Note_off_c, 2, 46, 64
4, 89464, Note_on_c, 2, 50, 107
4, 89848, Note_on_c, 2, 51, 98
4, 89852, Note_off_c, 2, 50, 64
4, 90232, Note_on_c, 2, 52, 100
4, 90248, Note_off_c, 2, 51, 64
4, 90604, Note_off_c, 2, 52, 64
4, 90616, Note_on_c, 2, 53, 100
4, 90868, Note_on_c, 2, 55, 100
4, 90904, Note_off_c, 2, 53, 64
4, 91008, Note_on_c, 2, 57, 97
4, 91048, Note_off_c, 2, 55, 64
4, 91256, Note_on_c, 2, 58, 94
4, 91264, Note_off_c, 2, 57, 64
4, 91428, Note_off_c, 2, 58, 64
4, 91772, Note_on_c, 2, 50, 88
4, 91772, Note_on_c, 2, 56, 80
4, 91776, Note_on_c, 2, 53, 99
4, 91776, Note_on_c, 2, 60, 91
4, 93648, Note_off_c, 2, 60, 0
4, 93696, Note_off_c, 2, 53, 64
4, 93724, Note_off_c, 2, 50, 0
4, 93740, Note_off_c, 2, 56, 0
4, 95232, End_track
5, 0, Start_track
5, 0, Title_t, "MELODY"
5, 1988, Program_c, 3, 18
5, 1992, Control_c, 3, 7, 105
5, 1992, Control_c, 3, 10, 70
5, 1992, Control_c, 3, 11, 127
5, 1996, Control_c, 3, 91, 65
5, 1996, Control_c, 3, 93, 0
5, 6012, Note_on_c, 3, 81, 127
5, 6016, Control_c, 3, 1, 0
5, 6016, Pitch_bend_c, 3, 8192
5, 6148, Note_on_c, 3, 82, 122
5, 6180, Note_off_c, 3, 81, 64
5, 6384, Note_off_c, 3, 82, 64
5, 6396, Note_on_c, 3, 77, 124
5, 6584, Note_off_c, 3, 77, 64
5, 6780, Note_on_c, 3, 82, 127
5, 6908, Note_on_c, 3, 77, 124
5, 6916, Note_off_c, 3, 82, 64
5, 7144, Note_on_c, 3, 82, 123
5, 7160, Note_off_c, 3, 77, 64
5, 7288, Note_on_c, 3, 74, 124
5, 7316, Note_off_c, 3, 82, 64
5, 7396, Note_on_c, 3, 82, 118
5, 7436, Note_off_c, 3, 74, 64
5, 7520, Note_off_c, 3, 82, 64
5, 7528, Note_on_c, 3, 68, 127
5, 7656, Note_off_c, 3, 68, 64
5, 9072, Note_on_c, 3, 82, 126
5, 9200, Note_off_c, 3, 82, 64
5, 9204, Note_on_c, 3, 84, 127
5, 9448, Note_on_c, 3, 85, 122
5, 9464, Note_off_c, 3, 84, 64
5, 9548, Note_off_c, 3, 85, 64
5, 9716, Note_on_c, 3, 85, 127
5, 9832, Note_on_c, 3, 82, 113
5, 9840, Note_off_c, 3, 85, 64
5, 9920, Note_off_c, 3, 82, 64
5, 9964, Note_on_c, 3, 85, 127
5, 10184, Note_off_c, 3, 85, 64
5, 10220, Note_on_c, 3, 85, 127
5, 10576, Note_off_c, 3, 85, 64
5, 10592, Note_on_c, 3, 82, 123
5, 10868, Note_off_c, 3, 82, 64
5, 11764, Note_on_c, 3, 85, 127
5, 11952, Note_off_c, 3, 85, 64
5, 12012, Note_on_c, 3, 84, 127
5, 12216, Note_off_c, 3, 84, 64
5, 12280, Note_on_c, 3, 82, 124
5, 12520, Note_off_c, 3, 82, 64
5, 12528, Note_on_c, 3, 77, 122
5, 12664, Note_off_c, 3, 77, 64
5, 13304, Note_on_c, 3, 85, 127
5, 13504, Note_off_c, 3, 85, 64
5, 13552, Note_on_c, 3, 84, 127
5, 13736, Note_off_c, 3, 84, 64
5, 13816, Note_on_c, 3, 82, 125
5, 14076, Note_off_c, 3, 82, 64
5, 14076, Note_on_c, 3, 77, 120
5, 14184, Note_off_c, 3, 77, 64
5, 14824, Note_on_c, 3, 81, 127
5, 14956, Note_on_c, 3, 82, 127
5, 14972, Note_off_c, 3, 81, 64
5, 15184, Note_off_c, 3, 82, 64
5, 15200, Note_on_c, 3, 84, 122
5, 15432, Note_off_c, 3, 84, 64
5, 15492, Note_on_c, 3, 84, 124
5, 15552, Note_off_c, 3, 84, 64
5, 15604, Note_on_c, 3, 84, 127
5, 15732, Note_off_c, 3, 84, 64
5, 15736, Note_on_c, 3, 81, 126
5, 15908, Note_off_c, 3, 81, 64
5, 16736, Note_on_c, 3, 79, 127
5, 16868, Note_on_c, 3, 77, 126
5, 16872, Note_off_c, 3, 79, 64
5, 17112, Note_off_c, 3, 77, 64
5, 17896, Note_on_c, 3, 77, 119
5, 18028, Note_on_c, 3, 85, 126
5, 18044, Note_off_c, 3, 77, 64
5, 18268, Note_off_c, 3, 85, 64
5, 18284, Note_on_c, 3, 84, 122
5, 18416, Note_on_c, 3, 82, 122
5, 18428, Note_off_c, 3, 84, 64
5, 18604, Note_on_c, 3, 77, 120
5, 18612, Note_off_c, 3, 82, 64
5, 18744, Note_off_c, 3, 77, 64
5, 19048, Note_on_c, 3, 81, 126
5, 19192, Note_on_c, 3, 82, 124
5, 19200, Note_off_c, 3, 81, 64
5, 19448, Note_off_c, 3, 82, 64
5, 19456, Note_on_c, 3, 84, 123
5, 19568, Note_on_c, 3, 82, 122
5, 19624, Note_off_c, 3, 84, 64
5, 19788, Note_on_c, 3, 86, 125
5, 19808, Note_off_c, 3, 82, 64
5, 19864, Note_on_c, 3, 84, 121
5, 19880, Note_off_c, 3, 86, 64
5, 19944, Note_off_c, 3, 84, 64
5, 19944, Note_on_c, 3, 86, 126
5, 20088, Note_off_c, 3, 86, 64
5, 20984, Note_on_c, 3, 82, 122
5, 21080, Note_off_c, 3, 82, 64
5, 21108, Note_on_c, 3, 84, 127
5, 21208, Note_on_c, 3, 82, 114
5, 21232, Note_off_c, 3, 84, 64
5, 21336, Note_on_c, 3, 85, 124
5, 21352, Note_off_c, 3, 82, 64
5, 21460, Note_on_c, 3, 82, 113
5, 21464, Note_off_c, 3, 85, 64
5, 21632, Note_off_c, 3, 82, 64
5, 22000, Note_on_c, 3, 79, 127
5, 22120, Note_off_c, 3, 79, 64
5, 22120, Note_on_c, 3, 82, 125
5, 22244, Note_off_c, 3, 82, 64
5, 22248, Note_on_c, 3, 85, 124
5, 22344, Note_off_c, 3, 85, 64
5, 22384, Note_on_c, 3, 85, 125
5, 22460, Note_off_c, 3, 85, 64
5, 22508, Note_on_c, 3, 85, 127
5, 22616, Note_off_c, 3, 85, 64
5, 22632, Note_on_c, 3, 84, 127
5, 22760, Note_on_c, 3, 82, 122
5, 22768, Note_off_c, 3, 84, 64
5, 22928, Note_off_c, 3, 82, 64
5, 24440, Note_on_c, 3, 82, 116
5, 24496, Note_off_c, 3, 82, 64
5, 24568, Note_on_c, 3, 85, 126
5, 24808, Note_off_c, 3, 85, 64
5, 24808, Note_on_c, 3, 86, 122
5, 24920, Note_off_c, 3, 86, 64
5, 25084, Note_on_c, 3, 85, 127
5, 25192, Note_off_c, 3, 85, 64
5, 25208, Note_on_c, 3, 82, 123
5, 25320, Note_off_c, 3, 82, 64
5, 25348, Note_on_c, 3, 85, 127
5, 25724, Note_off_c, 3, 85, 64
5, 25848, Note_on_c, 3, 82, 127
5, 25940, Note_off_c, 3, 82, 64
5, 25980, Note_on_c, 3, 82, 127
5, 26104, Note_off_c, 3, 82, 64
5, 26116, Note_on_c, 3, 77, 125
5, 26240, Note_off_c, 3, 77, 64
5, 26744, Note_on_c, 3, 77, 127
5, 26848, Note_off_c, 3, 77, 64
5, 26872, Note_on_c, 3, 81, 127
5, 26968, Note_off_c, 3, 81, 64
5, 27000, Note_on_c, 3, 81, 124
5, 27088, Note_off_c, 3, 81, 64
5, 27128, Note_on_c, 3, 81, 127
5, 27232, Note_off_c, 3, 81, 64
5, 27260, Note_on_c, 3, 79, 127
5, 27512, Note_off_c, 3, 79, 64
5, 27520, Note_on_c, 3, 77, 127
5, 27632, Note_on_c, 3, 70, 123
5, 27644, Note_off_c, 3, 77, 64
5, 27856, Note_off_c, 3, 70, 64
5, 30320, Note_on_c, 3, 85, 127
5, 30440, Note_off_c, 3, 85, 64
5, 30440, Note_on_c, 3, 82, 123
5, 30572, Note_on_c, 3, 84, 126
5, 30592, Note_off_c, 3, 82, 64
5, 30712, Note_on_c, 3, 82, 122
5, 30728, Note_off_c, 3, 84, 64
5, 30824, Note_off_c, 3, 82, 64
5, 30844, Note_on_c, 3, 82, 125
5, 30996, Note_off_c, 3, 82, 64
5, 31488, Note_on_c, 3, 85, 127
5, 31724, Note_off_c, 3, 85, 64
5, 31876, Note_on_c, 3, 85, 127
5, 31988, Note_on_c, 3, 82, 125
5, 31992, Note_off_c, 3, 85, 64
5, 32120, Note_on_c, 3, 84, 126
5, 32136, Note_off_c, 3, 82, 64
5, 32244, Note_on_c, 3, 82, 125
5, 32252, Note_off_c, 3, 84, 64
5, 32360, Note_off_c, 3, 82, 64
5, 32384, Note_on_c, 3, 82, 125
5, 32520, Note_off_c, 3, 82, 64
5, 33272, Note_on_c, 3, 85, 127
5, 33488, Note_off_c, 3, 85, 64
5, 33516, Note_on_c, 3, 84, 127
5, 33752, Note_off_c, 3, 84, 64
5, 33792, Note_on_c, 3, 82, 127
5, 34012, Note_off_c, 3, 82, 64
5, 34028, Note_on_c, 3, 77, 126
5, 34272, Note_off_c, 3, 77, 64
5, 34288, Note_on_c, 3, 79, 127
5, 34552, Note_off_c, 3, 79, 64
5, 34568, Note_on_c, 3, 82, 127
5, 34808, Note_off_c, 3, 82, 64
5, 34820, Note_on_c, 3, 77, 121
5, 34936, Note_off_c, 3, 77, 64
5, 34944, Note_on_c, 3, 79, 127
5, 35128, Note_off_c, 3, 79, 64
5, 35176, Note_on_c, 3, 79, 127
5, 35320, Note_off_c, 3, 79, 64
5, 35320, Note_on_c, 3, 77, 127
5, 35488, Note_off_c, 3, 77, 64
5, 36464, Note_on_c, 3, 85, 125
5, 36728, Note_off_c, 3, 85, 64
5, 36728, Note_on_c, 3, 84, 126
5, 36860, Note_on_c, 3, 82, 126
5, 36876, Note_off_c, 3, 84, 64
5, 36976, Note_off_c, 3, 82, 64
5, 37000, Note_on_c, 3, 82, 125
5, 37140, Note_off_c, 3, 82, 64
5, 38004, Note_on_c, 3, 85, 127
5, 38264, Note_off_c, 3, 85, 64
5, 38272, Note_on_c, 3, 84, 125
5, 38388, Note_on_c, 3, 82, 124
5, 38400, Note_off_c, 3, 84, 64
5, 38504, Note_off_c, 3, 82, 64
5, 38524, Note_on_c, 3, 82, 125
5, 38656, Note_off_c, 3, 82, 64
5, 39660, Note_on_c, 3, 79, 127
5, 39784, Note_on_c, 3, 82, 120
5, 39800, Note_off_c, 3, 79, 64
5, 39920, Note_on_c, 3, 84, 127
5, 39932, Note_off_c, 3, 82, 64
5, 40136, Note_off_c, 3, 84, 64
5, 40176, Note_on_c, 3, 84, 123
5, 40280, Note_off_c, 3, 84, 64
5, 40320, Note_on_c, 3, 84, 127
5, 40520, Note_off_c, 3, 84, 64
5, 40568, Note_on_c, 3, 84, 127
5, 40808, Note_off_c, 3, 84, 64
5, 40832, Note_on_c, 3, 84, 127
5, 41316, Note_off_c, 3, 84, 64
5, 41332, Note_on_c, 3, 79, 126
5, 41464, Note_on_c, 3, 77, 127
5, 41472, Note_off_c, 3, 79, 64
5, 41612, Note_off_c, 3, 77, 64
5, 42484, Note_on_c, 3, 79, 127
5, 42624, Note_on_c, 3, 82, 127
5, 42644, Note_off_c, 3, 79, 64
5, 42884, Note_on_c, 3, 79, 124
5, 42888, Note_off_c, 3, 82, 64
5, 43000, Note_on_c, 3, 82, 127
5, 43024, Note_off_c, 3, 79, 64
5, 43152, Note_off_c, 3, 82, 64
5, 43256, Note_on_c, 3, 82, 127
5, 43376, Note_on_c, 3, 79, 125
5, 43380, Note_off_c, 3, 82, 64
5, 43624, Note_on_c, 3, 77, 118
5, 43640, Note_off_c, 3, 79, 64
5, 43756, Note_off_c, 3, 77, 64
5, 43760, Note_on_c, 3, 82, 125
5, 43992, Note_off_c, 3, 82, 64
5, 44156, Note_on_c, 3, 79, 127
5, 44412, Note_on_c, 3, 77, 123
5, 44420, Note_off_c, 3, 79, 64
5, 44540, Note_on_c, 3, 74, 124
5, 44560, Note_off_c, 3, 77, 64
5, 44708, Note_off_c, 3, 74, 64
5, 45944, Note_on_c, 3, 79, 121
5, 46056, Note_off_c, 3, 79, 64
5, 46064, Note_on_c, 3, 82, 124
5, 46180, Note_on_c, 3, 85, 125
5, 46192, Note_off_c, 3, 82, 64
5, 46264, Note_off_c, 3, 85, 64
5, 46304, Note_on_c, 3, 85, 125
5, 46432, Note_off_c, 3, 85, 64
5, 46576, Note_on_c, 3, 79, 123
5, 46692, Note_off_c, 3, 79, 64
5, 46696, Note_on_c, 3, 82, 122
5, 46776, Note_off_c, 3, 82, 64
5, 46824, Note_on_c, 3, 85, 127
5, 47208, Note_off_c, 3, 85, 64
5, 47336, Note_on_c, 3, 84, 124
5, 47464, Note_on_c, 3, 82, 124
5, 47480, Note_off_c, 3, 84, 64
5, 47568, Note_off_c, 3, 82, 64
5, 47600, Note_on_c, 3, 82, 127
5, 47744, Note_off_c, 3, 82, 64
5, 48880, Note_on_c, 3, 77, 127
5, 48996, Note_on_c, 3, 82, 121
5, 49024, Note_off_c, 3, 77, 64
5, 49128, Note_off_c, 3, 82, 64
5, 49136, Note_on_c, 3, 86, 121
5, 49288, Note_off_c, 3, 86, 64
5, 49772, Note_on_c, 3, 82, 125
5, 50164, Note_off_c, 3, 82, 64
5, 50172, Note_on_c, 3, 86, 126
5, 50268, Note_off_c, 3, 86, 64
5, 50312, Note_on_c, 3, 86, 127
5, 50540, Note_off_c, 3, 86, 64
5, 50548, Note_on_c, 3, 77, 127
5, 50712, Note_off_c, 3, 77, 64
5, 51316, Note_on_c, 3, 77, 127
5, 51568, Note_off_c, 3, 77, 64
5, 51576, Note_on_c, 3, 81, 122
5, 51692, Note_on_c, 3, 77, 123
5, 51704, Note_off_c, 3, 81, 64
5, 51784, Note_off_c, 3, 77, 64
5, 51816, Note_on_c, 3, 77, 127
5, 51912, Note_off_c, 3, 77, 64
5, 51948, Note_on_c, 3, 77, 124
5, 52172, Note_off_c, 3, 77, 64
5, 67196, Note_on_c, 3, 85, 127
5, 67316, Note_on_c, 3, 82, 127
5, 67320, Note_off_c, 3, 85, 64
5, 67444, Note_on_c, 3, 84, 124
5, 67464, Note_off_c, 3, 82, 64
5, 67576, Note_on_c, 3, 82, 127
5, 67588, Note_off_c, 3, 84, 64
5, 67688, Note_off_c, 3, 82, 64
5, 67704, Note_on_c, 3, 82, 123
5, 67832, Note_off_c, 3, 82, 64
5, 68356, Note_on_c, 3, 85, 125
5, 68560, Note_off_c, 3, 85, 64
5, 68732, Note_on_c, 3, 85, 122
5, 68868, Note_off_c, 3, 85, 64
5, 68868, Note_on_c, 3, 82, 123
5, 68984, Note_on_c, 3, 84, 126
5, 69000, Note_off_c, 3, 82, 64
5, 69112, Note_on_c, 3, 82, 125
5, 69128, Note_off_c, 3, 84, 64
5, 69224, Note_off_c, 3, 82, 64
5, 69248, Note_on_c, 3, 82, 125
5, 69364, Note_off_c, 3, 82, 64
5, 70128, Note_on_c, 3, 85, 127
5, 70360, Note_off_c, 3, 85, 64
5, 70376, Note_on_c, 3, 84, 127
5, 70648, Note_off_c, 3, 84, 64
5, 70652, Note_on_c, 3, 82, 125
5, 70904, Note_off_c, 3, 82, 64
5, 70908, Note_on_c, 3, 77, 127
5, 71152, Note_off_c, 3, 77, 64
5, 71160, Note_on_c, 3, 79, 127
5, 71396, Note_off_c, 3, 79, 64
5, 71412, Note_on_c, 3, 82, 126
5, 71680, Note_on_c, 3, 77, 121
5, 71684, Note_off_c, 3, 82, 64
5, 71808, Note_off_c, 3, 77, 64
5, 71808, Note_on_c, 3, 79, 127
5, 71992, Note_off_c, 3, 79, 64
5, 72056, Note_on_c, 3, 79, 126
5, 72188, Note_on_c, 3, 77, 125
5, 72192, Note_off_c, 3, 79, 64
5, 72372, Note_off_c, 3, 77, 64
5, 73324, Note_on_c, 3, 85, 122
5, 73596, Note_on_c, 3, 84, 125
5, 73600, Note_off_c, 3, 85, 64
5, 73728, Note_on_c, 3, 82, 123
5, 73740, Note_off_c, 3, 84, 64
5, 73836, Note_off_c, 3, 82, 64
5, 73864, Note_on_c, 3, 82, 121
5, 73992, Note_off_c, 3, 82, 64
5, 74872, Note_on_c, 3, 85, 127
5, 75132, Note_on_c, 3, 84, 125
5, 75136, Note_off_c, 3, 85, 64
5, 75260, Note_on_c, 3, 82, 125
5, 75272, Note_off_c, 3, 84, 64
5, 75368, Note_off_c, 3, 82, 64
5, 75396, Note_on_c, 3, 82, 124
5, 75536, Note_off_c, 3, 82, 64
5, 76528, Note_on_c, 3, 79, 127
5, 76652, Note_on_c, 3, 82, 122
5, 76672, Note_off_c, 3, 79, 64
5, 76788, Note_off_c, 3, 82, 64
5, 76788, Note_on_c, 3, 84, 125
5, 76956, Note_off_c, 3, 84, 64
5, 77032, Note_on_c, 3, 84, 127
5, 77140, Note_off_c, 3, 84, 64
5, 77176, Note_on_c, 3, 84, 127
5, 77340, Note_off_c, 3, 84, 64
5, 77424, Note_on_c, 3, 84, 127
5, 77704, Note_off_c, 3, 84, 64
5, 77784, Note_on_c, 3, 84, 127
5, 78152, Note_off_c, 3, 84, 64
5, 78208, Note_on_c, 3, 79, 127
5, 78332, Note_off_c, 3, 79, 64
5, 78340, Note_on_c, 3, 77, 126
5, 78464, Note_off_c, 3, 77, 64
5, 79336, Note_on_c, 3, 79, 127
5, 79472, Note_on_c, 3, 82, 125
5, 79480, Note_off_c, 3, 79, 64
5, 79740, Note_off_c, 3, 82, 64
5, 79740, Note_on_c, 3, 79, 117
5, 79864, Note_on_c, 3, 82, 120
5, 79880, Note_off_c, 3, 79, 64
5, 80076, Note_off_c, 3, 82, 64
5, 80124, Note_on_c, 3, 82, 119
5, 80252, Note_off_c, 3, 82, 64
5, 80256, Note_on_c, 3, 79, 121
5, 80516, Note_off_c, 3, 79, 64
5, 80516, Note_on_c, 3, 77, 118
5, 80632, Note_off_c, 3, 77, 64
5, 80640, Note_on_c, 3, 82, 119
5, 80872, Note_off_c, 3, 82, 64
5, 81024, Note_on_c, 3, 79, 123
5, 81260, Note_off_c, 3, 79, 64
5, 81264, Note_on_c, 3, 77, 119
5, 81396, Note_on_c, 3, 74, 119
5, 81416, Note_off_c, 3, 77, 64
5, 81560, Note_off_c, 3, 74, 64
5, 82808, Note_on_c, 3, 79, 123
5, 82928, Note_on_c, 3, 82, 124
5, 82948, Note_off_c, 3, 79, 64
5, 83048, Note_on_c, 3, 85, 124
5, 83064, Note_off_c, 3, 82, 64
5, 83128, Note_off_c, 3, 85, 64
5, 83172, Note_on_c, 3, 85, 127
5, 83272, Note_off_c, 3, 85, 64
5, 83448, Note_on_c, 3, 79, 122
5, 83556, Note_off_c, 3, 79, 64
5, 83560, Note_on_c, 3, 82, 122
5, 83676, Note_off_c, 3, 82, 64
5, 83692, Note_on_c, 3, 85, 127
5, 84120, Note_off_c, 3, 85, 64
5, 84204, Note_on_c, 3, 84, 127
5, 84332, Note_on_c, 3, 82, 124
5, 84348, Note_off_c, 3, 84, 64
5, 84432, Note_off_c, 3, 82, 64
5, 84464, Note_on_c, 3, 82, 125
5, 84576, Note_off_c, 3, 82, 64
5, 85748, Note_on_c, 3, 77, 127
5, 85868, Note_on_c, 3, 82, 125
5, 85884, Note_off_c, 3, 77, 64
5, 86008, Note_on_c, 3, 86, 127
5, 86020, Note_off_c, 3, 82, 64
5, 86152, Note_off_c, 3, 86, 64
5, 86648, Note_on_c, 3, 82, 127
5, 87028, Note_on_c, 3, 86, 125
5, 87032, Note_off_c, 3, 82, 64
5, 87140, Note_off_c, 3, 86, 64
5, 87172, Note_on_c, 3, 86, 127
5, 87400, Note_off_c, 3, 86, 64
5, 87408, Note_on_c, 3, 77, 126
5, 87568, Note_off_c, 3, 77, 64
5, 88164, Note_on_c, 3, 77, 127
5, 88548, Note_on_c, 3, 81, 123
5, 88568, Note_off_c, 3, 77, 64
5, 88688, Note_on_c, 3, 84, 127
5, 88700, Note_off_c, 3, 81, 64
5, 88872, Note_off_c, 3, 84, 64
5, 88940, Note_on_c, 3, 84, 127
5, 89084, Note_off_c, 3, 84, 64
5, 89092, Note_on_c, 3, 82, 127
5, 89384, Note_off_c, 3, 82, 64
5, 95232, End_track
6, 0, Start_track
6, 0, Title_t, "TENOR SAX"
6, 2008, Program_c, 5, 66
6, 2012, Control_c, 5, 7, 105
6, 2012, Control_c, 5, 10, 64
6, 2012, Control_c, 5, 11, 127
6, 2016, Control_c, 5, 91, 50
6, 2016, Control_c, 5, 93, 5
6, 55168, Note_on_c, 5, 53, 119
6, 55168, Pitch_bend_c, 5, 8192
6, 55172, Control_c, 5, 1, 0
6, 55172, Pitch_bend_c, 5, 8352
6, 55176, Pitch_bend_c, 5, 8224
6, 55180, Pitch_bend_c, 5, 8192
6, 55184, Pitch_bend_c, 5, 8000
6, 55216, Pitch_bend_c, 5, 8064
6, 55224, Pitch_bend_c, 5, 8128
6, 55240, Pitch_bend_c, 5, 8096
6, 55256, Pitch_bend_c, 5, 8032
6, 55272, Pitch_bend_c, 5, 8000
6, 55280, Pitch_bend_c, 5, 7488
6, 55288, Pitch_bend_c, 5, 6848
6, 55296, Pitch_bend_c, 5, 8096
6, 55300, Note_off_c, 5, 53, 64
6, 55320, Note_on_c, 5, 58, 127
6, 55320, Pitch_bend_c, 5, 8256
6, 55328, Pitch_bend_c, 5, 8288
6, 55372, Pitch_bend_c, 5, 8256
6, 55396, Pitch_bend_c, 5, 8224
6, 55448, Pitch_bend_c, 5, 8192
6, 55456, Pitch_bend_c, 5, 8224
6, 55556, Pitch_bend_c, 5, 8256
6, 55572, Pitch_bend_c, 5, 8224
6, 55624, Pitch_bend_c, 5, 8256
6, 55632, Pitch_bend_c, 5, 8288
6, 55664, Pitch_bend_c, 5, 8256
6, 55696, Pitch_bend_c, 5, 8288
6, 55704, Pitch_bend_c, 5, 8320
6, 55716, Pitch_bend_c, 5, 8352
6, 55736, Pitch_bend_c, 5, 8288
6, 55748, Pitch_bend_c, 5, 8224
6, 55756, Pitch_bend_c, 5, 8192
6, 55768, Pitch_bend_c, 5, 8160
6, 55776, Pitch_bend_c, 5, 8192
6, 55788, Pitch_bend_c, 5, 8224
6, 55800, Pitch_bend_c, 5, 8256
6, 55808, Pitch_bend_c, 5, 8288
6, 55840, Pitch_bend_c, 5, 8256
6, 55928, Pitch_bend_c, 5, 8224
6, 56040, Pitch_bend_c, 5, 8256
6, 56048, Pitch_bend_c, 5, 8192
6, 56056, Note_off_c, 5, 58, 64
6, 56056, Pitch_bend_c, 5, 8288
6, 56088, Pitch_bend_c, 5, 8192
6, 56092, Note_on_c, 5, 55, 124
6, 56156, Pitch_bend_c, 5, 8160
6, 56200, Pitch_bend_c, 5, 8192
6, 56244, Pitch_bend_c, 5, 8160
6, 56312, Pitch_bend_c, 5, 8192
6, 56360, Pitch_bend_c, 5, 8160
6, 56376, Pitch_bend_c, 5, 8192
6, 56396, Pitch_bend_c, 5, 8160
6, 56424, Pitch_bend_c, 5, 8128
6, 56468, Pitch_bend_c, 5, 8160
6, 56508, Pitch_bend_c, 5, 8128
6, 56532, Pitch_bend_c, 5, 8160
6, 56564, Pitch_bend_c, 5, 8128
6, 56664, Note_off_c, 5, 55, 64
6, 56668, Pitch_bend_c, 5, 10176
6, 56696, Note_on_c, 5, 53, 114
6, 56696, Pitch_bend_c, 5, 8416
6, 56716, Pitch_bend_c, 5, 8352
6, 56748, Pitch_bend_c, 5, 8320
6, 56792, Pitch_bend_c, 5, 8288
6, 56820, Pitch_bend_c, 5, 8256
6, 56828, Note_off_c, 5, 53, 64
6, 56828, Pitch_bend_c, 5, 8352
6, 56852, Pitch_bend_c, 5, 8192
6, 56856, Note_on_c, 5, 50, 120
6, 56860, Pitch_bend_c, 5, 8160
6, 56888, Pitch_bend_c, 5, 8096
6, 56948, Pitch_bend_c, 5, 8128
6, 56968, Pitch_bend_c, 5, 8160
6, 56980, Pitch_bend_c, 5, 8096
6, 56984, Pitch_bend_c, 5, 8064
6, 57000, Pitch_bend_c, 5, 8032
6, 57008, Pitch_bend_c, 5, 8064
6, 57016, Pitch_bend_c, 5, 8096
6, 57060, Pitch_bend_c, 5, 8064
6, 57072, Pitch_bend_c, 5, 8032
6, 57144, Pitch_bend_c, 5, 8000
6, 57160, Pitch_bend_c, 5, 7968
6, 57184, Pitch_bend_c, 5, 8000
6, 57220, Pitch_bend_c, 5, 7968
6, 57228, Pitch_bend_c, 5, 7936
6, 57240, Pitch_bend_c, 5, 7904
6, 57280, Pitch_bend_c, 5, 7936
6, 57300, Pitch_bend_c, 5, 7968
6, 57312, Pitch_bend_c, 5, 8000
6, 57340, Pitch_bend_c, 5, 7968
6, 57364, Pitch_bend_c, 5, 7936
6, 57404, Pitch_bend_c, 5, 7904
6, 57424, Pitch_bend_c, 5, 8000
6, 57432, Pitch_bend_c, 5, 8032
6, 57436, Note_off_c, 5, 50, 64
6, 57444, Pitch_bend_c, 5, 8192
6, 57448, Note_on_c, 5, 48, 111
6, 57448, Pitch_bend_c, 5, 8160
6, 57456, Pitch_bend_c, 5, 8192
6, 57460, Pitch_bend_c, 5, 8224
6, 57492, Pitch_bend_c, 5, 8256
6, 57512, Pitch_bend_c, 5, 8320
6, 57544, Pitch_bend_c, 5, 8256
6, 57556, Pitch_bend_c, 5, 8224
6, 57568, Pitch_bend_c, 5, 8192
6, 57576, Pitch_bend_c, 5, 8096
6, 57588, Pitch_bend_c, 5, 7968
6, 57592, Note_off_c, 5, 48, 64
6, 57592, Pitch_bend_c, 5, 8256
6, 57612, Pitch_bend_c, 5, 8192
6, 57620, Note_on_c, 5, 46, 104
6, 57624, Pitch_bend_c, 5, 7872
6, 57628, Pitch_bend_c, 5, 8032
6, 57632, Pitch_bend_c, 5, 8256
6, 57644, Pitch_bend_c, 5, 8352
6, 57656, Pitch_bend_c, 5, 8384
6, 57664, Pitch_bend_c, 5, 8416
6, 57696, Pitch_bend_c, 5, 8384
6, 57704, Pitch_bend_c, 5, 8416
6, 57716, Pitch_bend_c, 5, 8384
6, 57724, Pitch_bend_c, 5, 8320
6, 57736, Pitch_bend_c, 5, 8224
6, 57748, Pitch_bend_c, 5, 8128
6, 57760, Pitch_bend_c, 5, 8000
6, 57768, Pitch_bend_c, 5, 7840
6, 57772, Note_off_c, 5, 46, 64
6, 57772, Pitch_bend_c, 5, 8320
6, 58236, Pitch_bend_c, 5, 8192
6, 58240, Note_on_c, 5, 46, 94
6, 58244, Pitch_bend_c, 5, 8032
6, 58248, Pitch_bend_c, 5, 8224
6, 58264, Pitch_bend_c, 5, 8256
6, 58292, Pitch_bend_c, 5, 8224
6, 58300, Pitch_bend_c, 5, 8192
6, 58324, Pitch_bend_c, 5, 8128
6, 58332, Pitch_bend_c, 5, 8064
6, 58352, Pitch_bend_c, 5, 8032
6, 58364, Pitch_bend_c, 5, 8000
6, 58376, Pitch_bend_c, 5, 8032
6, 58384, Pitch_bend_c, 5, 8000
6, 58392, Note_off_c, 5, 46, 64
6, 58392, Note_on_c, 5, 51, 127
6, 58392, Pitch_bend_c, 5, 8416
6, 58400, Pitch_bend_c, 5, 8096
6, 58408, Pitch_bend_c, 5, 8320
6, 58420, Pitch_bend_c, 5, 8256
6, 58428, Pitch_bend_c, 5, 8192
6, 58448, Pitch_bend_c, 5, 8160
6, 58472, Pitch_bend_c, 5, 8128
6, 58480, Pitch_bend_c, 5, 8064
6, 58524, Pitch_bend_c, 5, 8000
6, 58544, Pitch_bend_c, 5, 7936
6, 58596, Pitch_bend_c, 5, 7968
6, 58616, Pitch_bend_c, 5, 8000
6, 58648, Pitch_bend_c, 5, 7968
6, 58660, Pitch_bend_c, 5, 7936
6, 58824, Pitch_bend_c, 5, 7904
6, 58844, Pitch_bend_c, 5, 7872
6, 58896, Pitch_bend_c, 5, 7904
6, 58908, Pitch_bend_c, 5, 7936
6, 58928, Pitch_bend_c, 5, 7904
6, 58952, Pitch_bend_c, 5, 7936
6, 59112, Note_off_c, 5, 51, 64
6, 59124, Pitch_bend_c, 5, 8192
6, 59128, Note_on_c, 5, 51, 125
6, 59128, Pitch_bend_c, 5, 8064
6, 59136, Pitch_bend_c, 5, 8032
6, 59144, Pitch_bend_c, 5, 8000
6, 59156, Pitch_bend_c, 5, 8032
6, 59164, Pitch_bend_c, 5, 8000
6, 59176, Pitch_bend_c, 5, 7936
6, 59200, Pitch_bend_c, 5, 7904
6, 59208, Pitch_bend_c, 5, 7936
6, 59220, Pitch_bend_c, 5, 8000
6, 59252, Pitch_bend_c, 5, 7968
6, 59260, Pitch_bend_c, 5, 7936
6, 59280, Pitch_bend_c, 5, 7840
6, 59292, Pitch_bend_c, 5, 7680
6, 59300, Pitch_bend_c, 5, 7488
6, 59312, Note_off_c, 5, 51, 64
6, 59312, Pitch_bend_c, 5, 7936
6, 59768, Pitch_bend_c, 5, 8192
6, 59772, Note_on_c, 5, 51, 127
6, 59776, Pitch_bend_c, 5, 8256
6, 59780, Pitch_bend_c, 5, 8192
6, 59784, Pitch_bend_c, 5, 8128
6, 59788, Pitch_bend_c, 5, 8160
6, 59800, Pitch_bend_c, 5, 8096
6, 59808, Pitch_bend_c, 5, 8064
6, 59832, Pitch_bend_c, 5, 8000
6, 59844, Pitch_bend_c, 5, 8064
6, 59864, Pitch_bend_c, 5, 8032
6, 59876, Pitch_bend_c, 5, 8128
6, 59884, Pitch_bend_c, 5, 8256
6, 59896, Pitch_bend_c, 5, 8416
6, 59908, Pitch_bend_c, 5, 8512
6, 59916, Pitch_bend_c, 5, 8192
6, 59920, Note_on_c, 5, 48, 116
6, 59936, Note_off_c, 5, 51, 64
6, 59988, Pitch_bend_c, 5, 8384
6, 60000, Pitch_bend_c, 5, 8320
6, 60008, Pitch_bend_c, 5, 8224
6, 60020, Pitch_bend_c, 5, 8192
6, 60024, Note_off_c, 5, 48, 64
6, 60048, Note_on_c, 5, 46, 106
6, 60056, Pitch_bend_c, 5, 8256
6, 60072, Pitch_bend_c, 5, 8288
6, 60088, Pitch_bend_c, 5, 8256
6, 60096, Pitch_bend_c, 5, 8224
6, 60108, Pitch_bend_c, 5, 8192
6, 60116, Pitch_bend_c, 5, 8128
6, 60148, Pitch_bend_c, 5, 8096
6, 60160, Pitch_bend_c, 5, 8064
6, 60184, Pitch_bend_c, 5, 8000
6, 60192, Pitch_bend_c, 5, 7968
6, 60212, Pitch_bend_c, 5, 7936
6, 60232, Pitch_bend_c, 5, 7904
6, 60244, Pitch_bend_c, 5, 7872
6, 60264, Pitch_bend_c, 5, 7840
6, 60276, Pitch_bend_c, 5, 7872
6, 60308, Pitch_bend_c, 5, 7936
6, 60328, Pitch_bend_c, 5, 7968
6, 60344, Pitch_bend_c, 5, 7936
6, 60360, Pitch_bend_c, 5, 7904
6, 60364, Pitch_bend_c, 5, 7840
6, 60396, Pitch_bend_c, 5, 7872
6, 60408, Pitch_bend_c, 5, 7936
6, 60420, Pitch_bend_c, 5, 7968
6, 60440, Pitch_bend_c, 5, 8000
6, 60452, Pitch_bend_c, 5, 7968
6, 60472, Pitch_bend_c, 5, 7936
6, 60492, Pitch_bend_c, 5, 7904
6, 60512, Pitch_bend_c, 5, 7936
6, 60544, Pitch_bend_c, 5, 7904
6, 60552, Pitch_bend_c, 5, 7872
6, 60564, Pitch_bend_c, 5, 7840
6, 60584, Pitch_bend_c, 5, 7872
6, 60604, Pitch_bend_c, 5, 7904
6, 60616, Pitch_bend_c, 5, 7936
6, 60664, Pitch_bend_c, 5, 7904
6, 60680, Pitch_bend_c, 5, 7936
6, 60740, Pitch_bend_c, 5, 7904
6, 60812, Pitch_bend_c, 5, 7872
6, 60836, Pitch_bend_c, 5, 7840
6, 60868, Pitch_bend_c, 5, 7872
6, 60928, Pitch_bend_c, 5, 7904
6, 60968, Pitch_bend_c, 5, 7872
6, 60980, Pitch_bend_c, 5, 7840
6, 60984, Note_off_c, 5, 46, 64
6, 60984, Pitch_bend_c, 5, 7872
6, 61280, Pitch_bend_c, 5, 8192
6, 61432, Note_on_c, 5, 58, 127
6, 61432, Pitch_bend_c, 5, 8320
6, 61436, Pitch_bend_c, 5, 8352
6, 61452, Pitch_bend_c, 5, 8320
6, 61496, Pitch_bend_c, 5, 8288
6, 61528, Pitch_bend_c, 5, 8256
6, 61536, Pitch_bend_c, 5, 8224
6, 61548, Pitch_bend_c, 5, 8192
6, 61560, Pitch_bend_c, 5, 8160
6, 61568, Pitch_bend_c, 5, 8064
6, 61600, Pitch_bend_c, 5, 8096
6, 61608, Pitch_bend_c, 5, 8160
6, 61628, Pitch_bend_c, 5, 8192
6, 61640, Pitch_bend_c, 5, 8160
6, 61652, Pitch_bend_c, 5, 8096
6, 61660, Pitch_bend_c, 5, 8064
6, 61680, Pitch_bend_c, 5, 8096
6, 61692, Pitch_bend_c, 5, 8192
6, 61704, Pitch_bend_c, 5, 8224
6, 61712, Pitch_bend_c, 5, 8256
6, 61736, Pitch_bend_c, 5, 8224
6, 61744, Pitch_bend_c, 5, 8192
6, 61752, Pitch_bend_c, 5, 8160
6, 61764, Pitch_bend_c, 5, 8128
6, 61772, Pitch_bend_c, 5, 8160
6, 61784, Pitch_bend_c, 5, 8192
6, 61804, Pitch_bend_c, 5, 8224
6, 61816, Pitch_bend_c, 5, 8256
6, 61828, Pitch_bend_c, 5, 8224
6, 61848, Pitch_bend_c, 5, 8192
6, 61944, Pitch_bend_c, 5, 8224
6, 61964, Pitch_bend_c, 5, 8256
6, 61976, Pitch_bend_c, 5, 8288
6, 62056, Pitch_bend_c, 5, 8320
6, 62108, Pitch_bend_c, 5, 8352
6, 62132, Pitch_bend_c, 5, 8384
6, 62140, Pitch_bend_c, 5, 8448
6, 62152, Pitch_bend_c, 5, 8480
6, 62160, Note_off_c, 5, 58, 64
6, 62208, Pitch_bend_c, 5, 8192
6, 62216, Note_on_c, 5, 55, 127
6, 62368, Pitch_bend_c, 5, 8160
6, 62392, Pitch_bend_c, 5, 8128
6, 62408, Pitch_bend_c, 5, 8160
6, 62428, Pitch_bend_c, 5, 8192
6, 62548, Pitch_bend_c, 5, 8160
6, 62608, Pitch_bend_c, 5, 8192
6, 62668, Pitch_bend_c, 5, 8160
6, 62720, Pitch_bend_c, 5, 8128
6, 62760, Pitch_bend_c, 5, 8160
6, 62768, Note_off_c, 5, 55, 64
6, 62824, Note_on_c, 5, 53, 113
6, 62824, Pitch_bend_c, 5, 8672
6, 62828, Pitch_bend_c, 5, 8544
6, 62920, Pitch_bend_c, 5, 8448
6, 62936, Pitch_bend_c, 5, 8224
6, 62944, Pitch_bend_c, 5, 8032
6, 62948, Pitch_bend_c, 5, 8544
6, 62952, Note_off_c, 5, 53, 64
6, 62964, Pitch_bend_c, 5, 8192
6, 62968, Note_on_c, 5, 50, 127
6, 62984, Pitch_bend_c, 5, 8224
6, 62996, Pitch_bend_c, 5, 8192
6, 63048, Pitch_bend_c, 5, 8128
6, 63068, Pitch_bend_c, 5, 8096
6, 63092, Pitch_bend_c, 5, 8128
6, 63100, Pitch_bend_c, 5, 8096
6, 63196, Pitch_bend_c, 5, 8064
6, 63208, Pitch_bend_c, 5, 8032
6, 63220, Pitch_bend_c, 5, 8064
6, 63260, Pitch_bend_c, 5, 8032
6, 63272, Pitch_bend_c, 5, 8000
6, 63336, Pitch_bend_c, 5, 7968
6, 63348, Pitch_bend_c, 5, 7936
6, 63368, Pitch_bend_c, 5, 7904
6, 63380, Pitch_bend_c, 5, 7936
6, 63408, Pitch_bend_c, 5, 7968
6, 63420, Pitch_bend_c, 5, 8000
6, 63440, Pitch_bend_c, 5, 8032
6, 63448, Pitch_bend_c, 5, 8000
6, 63544, Pitch_bend_c, 5, 7968
6, 63568, Pitch_bend_c, 5, 8000
6, 63576, Pitch_bend_c, 5, 8032
6, 63608, Pitch_bend_c, 5, 7968
6, 63620, Pitch_bend_c, 5, 7712
6, 63628, Pitch_bend_c, 5, 7488
6, 63640, Note_off_c, 5, 50, 64
6, 63640, Pitch_bend_c, 5, 8032
6, 63740, Pitch_bend_c, 5, 8192
6, 63744, Note_on_c, 5, 48, 101
6, 63744, Pitch_bend_c, 5, 8128
6, 63752, Pitch_bend_c, 5, 8000
6, 63756, Pitch_bend_c, 5, 7968
6, 63768, Pitch_bend_c, 5, 7936
6, 63776, Pitch_bend_c, 5, 7968
6, 63800, Pitch_bend_c, 5, 8000
6, 63812, Pitch_bend_c, 5, 8032
6, 63820, Pitch_bend_c, 5, 8064
6, 63832, Pitch_bend_c, 5, 8032
6, 63868, Pitch_bend_c, 5, 7968
6, 63900, Pitch_bend_c, 5, 7904
6, 63912, Pitch_bend_c, 5, 7744
6, 63924, Note_off_c, 5, 48, 64
6, 63924, Pitch_bend_c, 5, 8032
6, 64504, Pitch_bend_c, 5, 8192
6, 64512, Note_on_c, 5, 46, 106
6, 64512, Pitch_bend_c, 5, 8000
6, 64516, Pitch_bend_c, 5, 7872
6, 64524, Pitch_bend_c, 5, 7936
6, 64536, Pitch_bend_c, 5, 8000
6, 64544, Pitch_bend_c, 5, 8032
6, 64556, Pitch_bend_c, 5, 8096
6, 64568, Pitch_bend_c, 5, 8032
6, 64584, Pitch_bend_c, 5, 8000
6, 64608, Pitch_bend_c, 5, 8032
6, 64636, Pitch_bend_c, 5, 7968
6, 64648, Pitch_bend_c, 5, 7904
6, 64660, Pitch_bend_c, 5, 7840
6, 64688, Pitch_bend_c, 5, 7904
6, 64700, Pitch_bend_c, 5, 7968
6, 64724, Pitch_bend_c, 5, 7936
6, 64732, Pitch_bend_c, 5, 7904
6, 64744, Pitch_bend_c, 5, 7872
6, 64776, Pitch_bend_c, 5, 7840
6, 64784, Pitch_bend_c, 5, 7872
6, 64804, Pitch_bend_c, 5, 7840
6, 64836, Pitch_bend_c, 5, 7808
6, 64844, Pitch_bend_c, 5, 7776
6, 64868, Pitch_bend_c, 5, 7744
6, 64876, Pitch_bend_c, 5, 7776
6, 64888, Pitch_bend_c, 5, 7840
6, 64896, Pitch_bend_c, 5, 7872
6, 64920, Pitch_bend_c, 5, 7904
6, 64928, Pitch_bend_c, 5, 7872
6, 64936, Pitch_bend_c, 5, 7904
6, 64980, Pitch_bend_c, 5, 7872
6, 65000, Pitch_bend_c, 5, 7840
6, 65044, Pitch_bend_c, 5, 7808
6, 65052, Pitch_bend_c, 5, 7776
6, 65084, Pitch_bend_c, 5, 7808
6, 65096, Note_off_c, 5, 46, 64
6, 65096, Pitch_bend_c, 5, 7840
6, 65128, Note_on_c, 5, 48, 110
6, 65128, Pitch_bend_c, 5, 8192
6, 65136, Pitch_bend_c, 5, 8096
6, 65140, Pitch_bend_c, 5, 8192
6, 65156, Pitch_bend_c, 5, 8160
6, 65176, Pitch_bend_c, 5, 8128
6, 65196, Pitch_bend_c, 5, 8096
6, 65208, Pitch_bend_c, 5, 8192
6, 65208, Note_on_c, 5, 50, 125
6, 65212, Note_off_c, 5, 48, 64
6, 65216, Pitch_bend_c, 5, 8128
6, 65220, Pitch_bend_c, 5, 8096
6, 65232, Pitch_bend_c, 5, 8000
6, 65240, Pitch_bend_c, 5, 7968
6, 65272, Pitch_bend_c, 5, 7872
6, 65284, Note_off_c, 5, 50, 64
6, 65300, Pitch_bend_c, 5, 8192
6, 65304, Note_on_c, 5, 53, 120
6, 65304, Pitch_bend_c, 5, 8256
6, 65328, Pitch_bend_c, 5, 8224
6, 65360, Pitch_bend_c, 5, 8192
6, 65384, Pitch_bend_c, 5, 8128
6, 65388, Pitch_bend_c, 5, 8096
6, 65412, Pitch_bend_c, 5, 8128
6, 65432, Pitch_bend_c, 5, 8096
6, 65592, Pitch_bend_c, 5, 8064
6, 65600, Pitch_bend_c, 5, 8032
6, 65652, Pitch_bend_c, 5, 8064
6, 65660, Pitch_bend_c, 5, 8096
6, 65704, Pitch_bend_c, 5, 8064
6, 65784, Pitch_bend_c, 5, 8096
6, 65828, Note_off_c, 5, 53, 64
6, 65872, Pitch_bend_c, 5, 8192
6, 65876, Note_on_c, 5, 50, 114
6, 65880, Pitch_bend_c, 5, 8064
6, 65884, Pitch_bend_c, 5, 8032
6, 65900, Pitch_bend_c, 5, 8000
6, 65944, Pitch_bend_c, 5, 7904
6, 65948, Pitch_bend_c, 5, 8192
6, 65948, Note_on_c, 5, 48, 113
6, 65964, Note_off_c, 5, 50, 64
6, 65976, Pitch_bend_c, 5, 8160
6, 66008, Pitch_bend_c, 5, 8256
6, 66016, Note_off_c, 5, 48, 64
6, 66044, Pitch_bend_c, 5, 8192
6, 66052, Note_on_c, 5, 46, 114
6, 66056, Pitch_bend_c, 5, 8128
6, 66060, Pitch_bend_c, 5, 8096
6, 66064, Pitch_bend_c, 5, 8192
6, 66100, Pitch_bend_c, 5, 8128
6, 66132, Pitch_bend_c, 5, 8064
6, 66152, Pitch_bend_c, 5, 8032
6, 66160, Pitch_bend_c, 5, 7968
6, 66184, Pitch_bend_c, 5, 8000
6, 66192, Pitch_bend_c, 5, 7968
6, 66200, Pitch_bend_c, 5, 8000
6, 66216, Pitch_bend_c, 5, 7968
6, 66244, Pitch_bend_c, 5, 7936
6, 66252, Pitch_bend_c, 5, 7968
6, 66276, Pitch_bend_c, 5, 7936
6, 66296, Pitch_bend_c, 5, 7904
6, 66328, Pitch_bend_c, 5, 7936
6, 66348, Pitch_bend_c, 5, 7968
6, 66360, Pitch_bend_c, 5, 7936
6, 66380, Pitch_bend_c, 5, 7904
6, 66408, Pitch_bend_c, 5, 7872
6, 66420, Pitch_bend_c, 5, 7904
6, 66432, Pitch_bend_c, 5, 7872
6, 66440, Pitch_bend_c, 5, 7808
6, 66460, Pitch_bend_c, 5, 7776
6, 66472, Pitch_bend_c, 5, 7744
6, 66492, Pitch_bend_c, 5, 7776
6, 66504, Pitch_bend_c, 5, 7840
6, 66512, Pitch_bend_c, 5, 7872
6, 66524, Pitch_bend_c, 5, 7936
6, 66536, Pitch_bend_c, 5, 7904
6, 66552, Pitch_bend_c, 5, 7872
6, 66596, Pitch_bend_c, 5, 7904
6, 66616, Pitch_bend_c, 5, 7872
6, 66636, Pitch_bend_c, 5, 7840
6, 66712, Pitch_bend_c, 5, 7808
6, 66760, Pitch_bend_c, 5, 7872
6, 66764, Note_off_c, 5, 46, 64
6, 66764, Pitch_bend_c, 5, 8192
6, 95232, End_track
7, 0, Start_track
7, 0, Title_t, "TRUMPET"
7, 2028, Program_c, 6, 56
7, 2032, Control_c, 6, 7, 105
7, 2032, Control_c, 6, 10, 60
7, 2032, Control_c, 6, 11, 127
7, 2036, Control_c, 6, 91, 60
7, 2036, Control_c, 6, 93, 0
7, 30868, Note_on_c, 6, 70, 113
7, 30868, Pitch_bend_c, 6, 8064
7, 30872, Control_c, 6, 1, 0
7, 30872, Pitch_bend_c, 6, 8096
7, 30876, Pitch_bend_c, 6, 8128
7, 30900, Pitch_bend_c, 6, 8064
7, 30904, Pitch_bend_c, 6, 8032
7, 30920, Pitch_bend_c, 6, 7840
7, 30928, Note_off_c, 6, 70, 64
7, 30928, Pitch_bend_c, 6, 8128
7, 30988, Pitch_bend_c, 6, 8192
7, 30992, Note_on_c, 6, 70, 109
7, 30996, Pitch_bend_c, 6, 7968
7, 31000, Pitch_bend_c, 6, 8000
7, 31016, Pitch_bend_c, 6, 7968
7, 31048, Pitch_bend_c, 6, 7904
7, 31056, Note_off_c, 6, 70, 64
7, 31056, Pitch_bend_c, 6, 8000
7, 31112, Pitch_bend_c, 6, 8192
7, 31120, Note_on_c, 6, 70, 115
7, 31120, Pitch_bend_c, 6, 7968
7, 31124, Pitch_bend_c, 6, 8000
7, 31140, Pitch_bend_c, 6, 7936
7, 31172, Pitch_bend_c, 6, 7872
7, 31180, Note_off_c, 6, 70, 64
7, 31180, Pitch_bend_c, 6, 7968
7, 31236, Pitch_bend_c, 6, 8192
7, 31240, Note_on_c, 6, 70, 119
7, 31240, Pitch_bend_c, 6, 8032
7, 31272, Pitch_bend_c, 6, 8064
7, 31280, Pitch_bend_c, 6, 8096
7, 31288, Pitch_bend_c, 6, 8032
7, 31304, Pitch_bend_c, 6, 7872
7, 31312, Note_off_c, 6, 70, 64
7, 31312, Pitch_bend_c, 6, 8032
7, 31360, Pitch_bend_c, 6, 8192
7, 31364, Note_on_c, 6, 70, 119
7, 31364, Pitch_bend_c, 6, 8064
7, 31368, Pitch_bend_c, 6, 8032
7, 31416, Pitch_bend_c, 6, 8064
7, 31424, Pitch_bend_c, 6, 8000
7, 31432, Pitch_bend_c, 6, 7904
7, 31440, Note_off_c, 6, 70, 64
7, 31440, Pitch_bend_c, 6, 8064
7, 31484, Pitch_bend_c, 6, 8192
7, 31488, Note_on_c, 6, 70, 119
7, 31488, Pitch_bend_c, 6, 8064
7, 31492, Pitch_bend_c, 6, 8032
7, 31540, Pitch_bend_c, 6, 8064
7, 31552, Pitch_bend_c, 6, 8096
7, 31560, Pitch_bend_c, 6, 8032
7, 31572, Pitch_bend_c, 6, 7936
7, 31576, Note_off_c, 6, 70, 64
7, 31576, Pitch_bend_c, 6, 8032
7, 31608, Pitch_bend_c, 6, 8192
7, 31612, Note_on_c, 6, 70, 119
7, 31612, Pitch_bend_c, 6, 8096
7, 31644, Pitch_bend_c, 6, 8064
7, 31688, Pitch_bend_c, 6, 8000
7, 31700, Pitch_bend_c, 6, 7872
7, 31708, Note_off_c, 6, 70, 64
7, 31708, Pitch_bend_c, 6, 8192
7, 31744, Note_on_c, 6, 70, 120
7, 31744, Pitch_bend_c, 6, 8096
7, 31808, Pitch_bend_c, 6, 8128
7, 31816, Pitch_bend_c, 6, 7968
7, 31832, Note_off_c, 6, 70, 64
7, 31832, Pitch_bend_c, 6, 8192
7, 31876, Note_on_c, 6, 70, 120
7, 31880, Pitch_bend_c, 6, 8064
7, 31916, Pitch_bend_c, 6, 8096
7, 31936, Pitch_bend_c, 6, 8000
7, 31948, Note_off_c, 6, 70, 64
7, 31948, Pitch_bend_c, 6, 8192
7, 32004, Note_on_c, 6, 70, 120
7, 32008, Pitch_bend_c, 6, 8032
7, 32012, Pitch_bend_c, 6, 8064
7, 32016, Pitch_bend_c, 6, 8032
7, 32048, Pitch_bend_c, 6, 8064
7, 32056, Pitch_bend_c, 6, 8000
7, 32068, Pitch_bend_c, 6, 7840
7, 32072, Note_off_c, 6, 70, 64
7, 32072, Pitch_bend_c, 6, 8064
7, 32120, Pitch_bend_c, 6, 8192
7, 32124, Note_on_c, 6, 70, 119
7, 32128, Pitch_bend_c, 6, 8064
7, 32168, Pitch_bend_c, 6, 8032
7, 32184, Pitch_bend_c, 6, 8064
7, 32200, Pitch_bend_c, 6, 7904
7, 32208, Pitch_bend_c, 6, 7776
7, 32216, Note_off_c, 6, 70, 64
7, 32216, Pitch_bend_c, 6, 8064
7, 32264, Pitch_bend_c, 6, 8192
7, 32404, Note_on_c, 6, 70, 113
7, 32404, Pitch_bend_c, 6, 8064
7, 32408, Pitch_bend_c, 6, 8096
7, 32412, Pitch_bend_c, 6, 8128
7, 32436, Pitch_bend_c, 6, 8064
7, 32440, Pitch_bend_c, 6, 8032
7, 32456, Pitch_bend_c, 6, 7840
7, 32464, Note_off_c, 6, 70, 64
7, 32464, Pitch_bend_c, 6, 8128
7, 32524, Pitch_bend_c, 6, 8192
7, 32528, Note_on_c, 6, 70, 109
7, 32532, Pitch_bend_c, 6, 7968
7, 32536, Pitch_bend_c, 6, 8000
7, 32552, Pitch_bend_c, 6, 7968
7, 32584, Pitch_bend_c, 6, 7904
7, 32592, Note_off_c, 6, 70, 64
7, 32592, Pitch_bend_c, 6, 8000
7, 32648, Pitch_bend_c, 6, 8192
7, 32656, Note_on_c, 6, 70, 115
7, 32656, Pitch_bend_c, 6, 7968
7, 32660, Pitch_bend_c, 6, 8000
7, 32676, Pitch_bend_c, 6, 7936
7, 32708, Pitch_bend_c, 6, 7872
7, 32716, Note_off_c, 6, 70, 64
7, 32716, Pitch_bend_c, 6, 7968
7, 32772, Pitch_bend_c, 6, 8192
7, 32776, Note_on_c, 6, 70, 119
7, 32776, Pitch_bend_c, 6, 8032
7, 32808, Pitch_bend_c, 6, 8064
7, 32816, Pitch_bend_c, 6, 8096
7, 32824, Pitch_bend_c, 6, 8032
7, 32840, Pitch_bend_c, 6, 7872
7, 32848, Note_off_c, 6, 70, 64
7, 32848, Pitch_bend_c, 6, 8032
7, 32896, Pitch_bend_c, 6, 8192
7, 32900, Note_on_c, 6, 70, 119
7, 32900, Pitch_bend_c, 6, 8064
7, 32904, Pitch_bend_c, 6, 8032
7, 32952, Pitch_bend_c, 6, 8064
7, 32960, Pitch_bend_c, 6, 8000
7, 32968, Pitch_bend_c, 6, 7904
7, 32976, Note_off_c, 6, 70, 64
7, 32976, Pitch_bend_c, 6, 8064
7, 33020, Pitch_bend_c, 6, 8192
7, 33024, Note_on_c, 6, 70, 119
7, 33024, Pitch_bend_c, 6, 8064
7, 33028, Pitch_bend_c, 6, 8032
7, 33076, Pitch_bend_c, 6, 8064
7, 33088, Pitch_bend_c, 6, 8096
7, 33096, Pitch_bend_c, 6, 8032
7, 33108, Pitch_bend_c, 6, 7936
7, 33112, Note_off_c, 6, 70, 64
7, 33112, Pitch_bend_c, 6, 8032
7, 33144, Pitch_bend_c, 6, 8192
7, 33148, Note_on_c, 6, 70, 119
7, 33148, Pitch_bend_c, 6, 8096
7, 33180, Pitch_bend_c, 6, 8064
7, 33224, Pitch_bend_c, 6, 8000
7, 33236, Pitch_bend_c, 6, 7872
7, 33244, Note_off_c, 6, 70, 64
7, 33244, Pitch_bend_c, 6, 8192
7, 33280, Note_on_c, 6, 70, 120
7, 33280, Pitch_bend_c, 6, 8096
7, 33344, Pitch_bend_c, 6, 8128
7, 33352, Pitch_bend_c, 6, 7968
7, 33368, Note_off_c, 6, 70, 64
7, 33368, Pitch_bend_c, 6, 8192
7, 33412, Note_on_c, 6, 70, 120
7, 33416, Pitch_bend_c, 6, 8064
7, 33452, Pitch_bend_c, 6, 8096
7, 33472, Pitch_bend_c, 6, 8000
7, 33484, Note_off_c, 6, 70, 64
7, 33484, Pitch_bend_c, 6, 8192
7, 33540, Note_on_c, 6, 70, 120
7, 33544, Pitch_bend_c, 6, 8032
7, 33548, Pitch_bend_c, 6, 8064
7, 33552, Pitch_bend_c, 6, 8032
7, 33584, Pitch_bend_c, 6, 8064
7, 33592, Pitch_bend_c, 6, 8000
7, 33604, Pitch_bend_c, 6, 7840
7, 33608, Note_off_c, 6, 70, 64
7, 33608, Pitch_bend_c, 6, 8064
7, 33656, Pitch_bend_c, 6, 8192
7, 33660, Note_on_c, 6, 70, 119
7, 33664, Pitch_bend_c, 6, 8064
7, 33704, Pitch_bend_c, 6, 8032
7, 33720, Pitch_bend_c, 6, 8064
7, 33736, Pitch_bend_c, 6, 7904
7, 33744, Pitch_bend_c, 6, 7776
7, 33752, Note_off_c, 6, 70, 64
7, 33752, Pitch_bend_c, 6, 8064
7, 33932, Pitch_bend_c, 6, 8192
7, 33936, Note_on_c, 6, 70, 93
7, 33936, Pitch_bend_c, 6, 8064
7, 33944, Pitch_bend_c, 6, 8096
7, 33964, Pitch_bend_c, 6, 8128
7, 33984, Pitch_bend_c, 6, 7904
7, 33992, Note_off_c, 6, 70, 64
7, 33992, Pitch_bend_c, 6, 8064
7, 34056, Pitch_bend_c, 6, 8192
7, 34060, Note_on_c, 6, 70, 104
7, 34060, Pitch_bend_c, 6, 7968
7, 34068, Pitch_bend_c, 6, 8000
7, 34080, Pitch_bend_c, 6, 8032
7, 34104, Pitch_bend_c, 6, 7936
7, 34116, Pitch_bend_c, 6, 7680
7, 34120, Note_off_c, 6, 70, 64
7, 34120, Pitch_bend_c, 6, 7968
7, 34184, Note_on_c, 6, 70, 111
7, 34184, Pitch_bend_c, 6, 8192
7, 34188, Pitch_bend_c, 6, 7968
7, 34192, Pitch_bend_c, 6, 8000
7, 34208, Pitch_bend_c, 6, 8032
7, 34220, Pitch_bend_c, 6, 7968
7, 34232, Pitch_bend_c, 6, 7744
7, 34240, Pitch_bend_c, 6, 7552
7, 34244, Note_off_c, 6, 70, 64
7, 34244, Pitch_bend_c, 6, 8000
7, 34308, Pitch_bend_c, 6, 8192
7, 34312, Note_on_c, 6, 70, 115
7, 34312, Pitch_bend_c, 6, 8000
7, 34324, Pitch_bend_c, 6, 8032
7, 34344, Pitch_bend_c, 6, 8000
7, 34356, Pitch_bend_c, 6, 7968
7, 34364, Pitch_bend_c, 6, 7936
7, 34376, Pitch_bend_c, 6, 7840
7, 34388, Note_off_c, 6, 70, 64
7, 34388, Pitch_bend_c, 6, 8032
7, 34440, Pitch_bend_c, 6, 8192
7, 34444, Note_on_c, 6, 70, 117
7, 34444, Pitch_bend_c, 6, 8064
7, 34452, Pitch_bend_c, 6, 8096
7, 34488, Pitch_bend_c, 6, 8128
7, 34504, Pitch_bend_c, 6, 7968
7, 34516, Pitch_bend_c, 6, 7776
7, 34520, Note_off_c, 6, 70, 64
7, 34520, Pitch_bend_c, 6, 8064
7, 34564, Pitch_bend_c, 6, 8192
7, 34568, Note_on_c, 6, 70, 118
7, 34568, Pitch_bend_c, 6, 8000
7, 34572, Pitch_bend_c, 6, 8032
7, 34608, Pitch_bend_c, 6, 8064
7, 34616, Pitch_bend_c, 6, 8000
7, 34628, Pitch_bend_c, 6, 7904
7, 34636, Note_off_c, 6, 70, 64
7, 34636, Pitch_bend_c, 6, 8000
7, 34692, Pitch_bend_c, 6, 8192
7, 34696, Note_on_c, 6, 70, 119
7, 34696, Pitch_bend_c, 6, 8032
7, 34708, Pitch_bend_c, 6, 8000
7, 34732, Pitch_bend_c, 6, 8032
7, 34744, Pitch_bend_c, 6, 8064
7, 34752, Pitch_bend_c, 6, 7808
7, 34760, Pitch_bend_c, 6, 8000
7, 34764, Note_off_c, 6, 70, 64
7, 34820, Note_on_c, 6, 70, 119
7, 34820, Pitch_bend_c, 6, 8064
7, 34824, Pitch_bend_c, 6, 8032
7, 34872, Pitch_bend_c, 6, 8000
7, 34884, Pitch_bend_c, 6, 7936
7, 34888, Note_off_c, 6, 70, 64
7, 34888, Pitch_bend_c, 6, 8192
7, 34936, Note_on_c, 6, 70, 119
7, 34940, Pitch_bend_c, 6, 8032
7, 34948, Pitch_bend_c, 6, 8000
7, 34988, Pitch_bend_c, 6, 8032
7, 35000, Pitch_bend_c, 6, 8096
7, 35008, Pitch_bend_c, 6, 7872
7, 35020, Pitch_bend_c, 6, 7648
7, 35024, Note_off_c, 6, 70, 64
7, 35024, Pitch_bend_c, 6, 8000
7, 35068, Note_on_c, 6, 70, 120
7, 35120, Pitch_bend_c, 6, 8032
7, 35132, Pitch_bend_c, 6, 7840
7, 35140, Pitch_bend_c, 6, 7680
7, 35144, Note_off_c, 6, 70, 64
7, 35144, Pitch_bend_c, 6, 7968
7, 35204, Note_on_c, 6, 70, 119
7, 35204, Pitch_bend_c, 6, 8192
7, 35208, Pitch_bend_c, 6, 8032
7, 35248, Pitch_bend_c, 6, 8064
7, 35272, Pitch_bend_c, 6, 7904
7, 35280, Pitch_bend_c, 6, 7744
7, 35284, Note_off_c, 6, 70, 64
7, 35284, Pitch_bend_c, 6, 8192
7, 35472, Note_on_c, 6, 70, 94
7, 35472, Pitch_bend_c, 6, 8096
7, 35476, Pitch_bend_c, 6, 8064
7, 35480, Pitch_bend_c, 6, 8096
7, 35512, Pitch_bend_c, 6, 8000
7, 35524, Pitch_bend_c, 6, 7680
7, 35528, Note_off_c, 6, 70, 64
7, 35528, Pitch_bend_c, 6, 8096
7, 35592, Note_on_c, 6, 70, 100
7, 35592, Pitch_bend_c, 6, 8192
7, 35596, Pitch_bend_c, 6, 8000
7, 35600, Pitch_bend_c, 6, 8032
7, 35624, Pitch_bend_c, 6, 8064
7, 35636, Pitch_bend_c, 6, 8032
7, 35644, Pitch_bend_c, 6, 7648
7, 35652, Note_off_c, 6, 70, 64
7, 35652, Pitch_bend_c, 6, 8000
7, 35720, Note_on_c, 6, 70, 110
7, 35720, Pitch_bend_c, 6, 7936
7, 35724, Pitch_bend_c, 6, 7968
7, 35728, Pitch_bend_c, 6, 8000
7, 35764, Pitch_bend_c, 6, 7936
7, 35768, Pitch_bend_c, 6, 7872
7, 35784, Note_off_c, 6, 70, 64
7, 35784, Pitch_bend_c, 6, 7968
7, 35840, Pitch_bend_c, 6, 8192
7, 35844, Note_on_c, 6, 70, 116
7, 35848, Pitch_bend_c, 6, 8000
7, 35880, Pitch_bend_c, 6, 8032
7, 35896, Pitch_bend_c, 6, 7936
7, 35908, Pitch_bend_c, 6, 7776
7, 35912, Pitch_bend_c, 6, 7968
7, 35916, Note_off_c, 6, 70, 64
7, 35972, Pitch_bend_c, 6, 8192
7, 35976, Note_on_c, 6, 70, 119
7, 35976, Pitch_bend_c, 6, 8032
7, 35992, Pitch_bend_c, 6, 8000
7, 36008, Pitch_bend_c, 6, 8032
7, 36016, Pitch_bend_c, 6, 8064
7, 36040, Pitch_bend_c, 6, 7936
7, 36048, Note_off_c, 6, 70, 64
7, 36048, Pitch_bend_c, 6, 8000
7, 36104, Note_on_c, 6, 70, 119
7, 36104, Pitch_bend_c, 6, 8192
7, 36108, Pitch_bend_c, 6, 8032
7, 36112, Pitch_bend_c, 6, 8064
7, 36120, Pitch_bend_c, 6, 8032
7, 36128, Pitch_bend_c, 6, 8064
7, 36152, Pitch_bend_c, 6, 8096
7, 36160, Pitch_bend_c, 6, 7936
7, 36168, Pitch_bend_c, 6, 7744
7, 36176, Note_off_c, 6, 70, 64
7, 36176, Pitch_bend_c, 6, 8032
7, 36224, Pitch_bend_c, 6, 8192
7, 36228, Note_on_c, 6, 70, 119
7, 36232, Pitch_bend_c, 6, 8000
7, 36268, Pitch_bend_c, 6, 8032
7, 36280, Pitch_bend_c, 6, 8064
7, 36292, Pitch_bend_c, 6, 7936
7, 36300, Note_off_c, 6, 70, 64
7, 36300, Pitch_bend_c, 6, 8000
7, 36356, Pitch_bend_c, 6, 8192
7, 36360, Note_on_c, 6, 70, 119
7, 36360, Pitch_bend_c, 6, 8064
7, 36364, Pitch_bend_c, 6, 8032
7, 36368, Pitch_bend_c, 6, 8064
7, 36376, Pitch_bend_c, 6, 8032
7, 36408, Pitch_bend_c, 6, 8064
7, 36420, Pitch_bend_c, 6, 7840
7, 36432, Note_off_c, 6, 70, 64
7, 36432, Pitch_bend_c, 6, 8064
7, 36480, Pitch_bend_c, 6, 8192
7, 36488, Note_on_c, 6, 70, 120
7, 36488, Pitch_bend_c, 6, 7968
7, 36516, Pitch_bend_c, 6, 8000
7, 36528, Pitch_bend_c, 6, 8032
7, 36536, Pitch_bend_c, 6, 8064
7, 36552, Pitch_bend_c, 6, 7904
7, 36556, Pitch_bend_c, 6, 7744
7, 36560, Pitch_bend_c, 6, 8000
7, 36564, Note_off_c, 6, 70, 64
7, 36604, Note_on_c, 6, 70, 119
7, 36616, Pitch_bend_c, 6, 8032
7, 36632, Pitch_bend_c, 6, 8000
7, 36656, Pitch_bend_c, 6, 8032
7, 36668, Pitch_bend_c, 6, 8064
7, 36680, Pitch_bend_c, 6, 8032
7, 36692, Pitch_bend_c, 6, 7776
7, 36700, Note_off_c, 6, 70, 64
7, 36700, Pitch_bend_c, 6, 8000
7, 36736, Pitch_bend_c, 6, 8192
7, 36740, Note_on_c, 6, 70, 119
7, 36740, Pitch_bend_c, 6, 7968
7, 36780, Pitch_bend_c, 6, 8000
7, 36792, Pitch_bend_c, 6, 8032
7, 36800, Pitch_bend_c, 6, 8000
7, 36808, Pitch_bend_c, 6, 7872
7, 36820, Pitch_bend_c, 6, 7712
7, 36824, Note_off_c, 6, 70, 64
7, 36824, Pitch_bend_c, 6, 8000
7, 37008, Pitch_bend_c, 6, 8192
7, 37012, Note_on_c, 6, 70, 98
7, 37012, Pitch_bend_c, 6, 8000
7, 37016, Pitch_bend_c, 6, 8032
7, 37020, Pitch_bend_c, 6, 8064
7, 37024, Pitch_bend_c, 6, 8032
7, 37032, Pitch_bend_c, 6, 8064
7, 37056, Pitch_bend_c, 6, 8032
7, 37064, Pitch_bend_c, 6, 7840
7, 37076, Note_off_c, 6, 70, 64
7, 37076, Pitch_bend_c, 6, 8064
7, 37132, Pitch_bend_c, 6, 8192
7, 37136, Note_on_c, 6, 70, 104
7, 37136, Pitch_bend_c, 6, 7968
7, 37140, Pitch_bend_c, 6, 8000
7, 37144, Pitch_bend_c, 6, 8032
7, 37192, Pitch_bend_c, 6, 7872
7, 37204, Note_off_c, 6, 70, 64
7, 37204, Pitch_bend_c, 6, 8192
7, 37260, Note_on_c, 6, 70, 110
7, 37260, Pitch_bend_c, 6, 7936
7, 37268, Pitch_bend_c, 6, 7968
7, 37272, Pitch_bend_c, 6, 8000
7, 37304, Pitch_bend_c, 6, 7968
7, 37312, Pitch_bend_c, 6, 7840
7, 37320, Pitch_bend_c, 6, 7744
7, 37324, Note_off_c, 6, 70, 64
7, 37324, Pitch_bend_c, 6, 7968
7, 37384, Note_on_c, 6, 70, 118
7, 37384, Pitch_bend_c, 6, 8032
7, 37396, Pitch_bend_c, 6, 8064
7, 37432, Pitch_bend_c, 6, 8096
7, 37436, Pitch_bend_c, 6, 7872
7, 37448, Pitch_bend_c, 6, 7648
7, 37452, Note_off_c, 6, 70, 64
7, 37452, Pitch_bend_c, 6, 8032
7, 37508, Pitch_bend_c, 6, 8192
7, 37512, Note_on_c, 6, 70, 119
7, 37512, Pitch_bend_c, 6, 8032
7, 37528, Pitch_bend_c, 6, 8064
7, 37552, Pitch_bend_c, 6, 8096
7, 37560, Pitch_bend_c, 6, 8000
7, 37576, Pitch_bend_c, 6, 7840
7, 37580, Note_off_c, 6, 70, 64
7, 37580, Pitch_bend_c, 6, 8032
7, 37628, Pitch_bend_c, 6, 8192
7, 37636, Note_on_c, 6, 70, 119
7, 37636, Pitch_bend_c, 6, 8032
7, 37640, Pitch_bend_c, 6, 8064
7, 37644, Pitch_bend_c, 6, 8032
7, 37656, Pitch_bend_c, 6, 8064
7, 37680, Pitch_bend_c, 6, 8096
7, 37688, Pitch_bend_c, 6, 8032
7, 37700, Pitch_bend_c, 6, 7776
7, 37704, Note_off_c, 6, 70, 64
7, 37704, Pitch_bend_c, 6, 8032
7, 37752, Pitch_bend_c, 6, 8192
7, 37756, Note_on_c, 6, 70, 119
7, 37756, Pitch_bend_c, 6, 8064
7, 37820, Pitch_bend_c, 6, 8032
7, 37832, Pitch_bend_c, 6, 7904
7, 37840, Note_off_c, 6, 70, 64
7, 37840, Pitch_bend_c, 6, 8192
7, 37892, Note_on_c, 6, 70, 119
7, 37896, Pitch_bend_c, 6, 8000
7, 37900, Pitch_bend_c, 6, 8032
7, 37904, Pitch_bend_c, 6, 8000
7, 37936, Pitch_bend_c, 6, 8032
7, 37956, Pitch_bend_c, 6, 7872
7, 37964, Note_off_c, 6, 70, 64
7, 37964, Pitch_bend_c, 6, 8032
7, 38016, Note_on_c, 6, 70, 120
7, 38016, Pitch_bend_c, 6, 8000
7, 38040, Pitch_bend_c, 6, 7968
7, 38048, Pitch_bend_c, 6, 8000
7, 38072, Pitch_bend_c, 6, 8064
7, 38080, Pitch_bend_c, 6, 7840
7, 38088, Pitch_bend_c, 6, 7616
7, 38096, Note_off_c, 6, 70, 64
7, 38096, Pitch_bend_c, 6, 7968
7, 38144, Pitch_bend_c, 6, 8192
7, 38148, Note_on_c, 6, 70, 119
7, 38152, Pitch_bend_c, 6, 8064
7, 38172, Pitch_bend_c, 6, 8032
7, 38184, Pitch_bend_c, 6, 8064
7, 38192, Pitch_bend_c, 6, 8096
7, 38204, Pitch_bend_c, 6, 8032
7, 38212, Pitch_bend_c, 6, 7936
7, 38216, Note_off_c, 6, 70, 64
7, 38216, Pitch_bend_c, 6, 8032
7, 38276, Pitch_bend_c, 6, 8192
7, 38280, Note_on_c, 6, 70, 120
7, 38280, Pitch_bend_c, 6, 8032
7, 38328, Pitch_bend_c, 6, 8064
7, 38340, Pitch_bend_c, 6, 8032
7, 38348, Pitch_bend_c, 6, 7712
7, 38360, Pitch_bend_c, 6, 7360
7, 38364, Note_off_c, 6, 70, 64
7, 38364, Pitch_bend_c, 6, 8032
7, 38532, Note_on_c, 6, 70, 95
7, 38536, Pitch_bend_c, 6, 8064
7, 38552, Pitch_bend_c, 6, 8096
7, 38584, Pitch_bend_c, 6, 8064
7, 38592, Pitch_bend_c, 6, 7904
7, 38596, Pitch_bend_c, 6, 8096
7, 38600, Note_off_c, 6, 70, 64
7, 38660, Pitch_bend_c, 6, 8192
7, 38664, Note_on_c, 6, 70, 91
7, 38664, Pitch_bend_c, 6, 8064
7, 38672, Pitch_bend_c, 6, 8096
7, 38712, Pitch_bend_c, 6, 7904
7, 38716, Note_off_c, 6, 70, 64
7, 38716, Pitch_bend_c, 6, 8000
7, 38792, Note_on_c, 6, 70, 113
7, 38792, Pitch_bend_c, 6, 7968
7, 38796, Pitch_bend_c, 6, 8000
7, 38800, Pitch_bend_c, 6, 8032
7, 38812, Pitch_bend_c, 6, 8064
7, 38824, Pitch_bend_c, 6, 8096
7, 38836, Pitch_bend_c, 6, 7872
7, 38844, Pitch_bend_c, 6, 7648
7, 38856, Note_off_c, 6, 70, 64
7, 38856, Pitch_bend_c, 6, 8032
7, 38916, Pitch_bend_c, 6, 8192
7, 38920, Note_on_c, 6, 70, 119
7, 38920, Pitch_bend_c, 6, 8064
7, 38928, Pitch_bend_c, 6, 8096
7, 38960, Pitch_bend_c, 6, 8128
7, 38968, Pitch_bend_c, 6, 8096
7, 38980, Pitch_bend_c, 6, 7680
7, 38992, Note_off_c, 6, 70, 64
7, 38992, Pitch_bend_c, 6, 8096
7, 39040, Pitch_bend_c, 6, 8192
7, 39044, Note_on_c, 6, 70, 119
7, 39044, Pitch_bend_c, 6, 8096
7, 39104, Pitch_bend_c, 6, 8128
7, 39112, Pitch_bend_c, 6, 7776
7, 39124, Pitch_bend_c, 6, 7456
7, 39128, Note_off_c, 6, 70, 64
7, 39128, Pitch_bend_c, 6, 8064
7, 39168, Note_on_c, 6, 70, 119
7, 39168, Pitch_bend_c, 6, 8192
7, 39176, Pitch_bend_c, 6, 8064
7, 39180, Pitch_bend_c, 6, 8032
7, 39184, Pitch_bend_c, 6, 8000
7, 39216, Pitch_bend_c, 6, 8032
7, 39224, Pitch_bend_c, 6, 8064
7, 39236, Pitch_bend_c, 6, 7808
7, 39248, Pitch_bend_c, 6, 7552
7, 39256, Note_off_c, 6, 70, 64
7, 39256, Pitch_bend_c, 6, 8000
7, 39296, Pitch_bend_c, 6, 8192
7, 39300, Note_on_c, 6, 70, 119
7, 39304, Pitch_bend_c, 6, 8064
7, 39320, Pitch_bend_c, 6, 8032
7, 39340, Pitch_bend_c, 6, 8064
7, 39372, Pitch_bend_c, 6, 7808
7, 39380, Pitch_bend_c, 6, 8032
7, 39384, Note_off_c, 6, 70, 64
7, 39428, Pitch_bend_c, 6, 8192
7, 39432, Note_on_c, 6, 70, 119
7, 39432, Pitch_bend_c, 6, 8000
7, 39440, Pitch_bend_c, 6, 8032
7, 39480, Pitch_bend_c, 6, 8064
7, 39496, Pitch_bend_c, 6, 7776
7, 39508, Note_off_c, 6, 70, 64
7, 39508, Pitch_bend_c, 6, 8000
7, 39560, Pitch_bend_c, 6, 8192
7, 39560, Note_on_c, 6, 70, 119
7, 39564, Pitch_bend_c, 6, 8032
7, 39568, Pitch_bend_c, 6, 8000
7, 39572, Pitch_bend_c, 6, 8032
7, 39592, Pitch_bend_c, 6, 8064
7, 39612, Pitch_bend_c, 6, 8096
7, 39624, Pitch_bend_c, 6, 8000
7, 39636, Pitch_bend_c, 6, 8032
7, 39640, Note_off_c, 6, 70, 64
7, 39680, Note_on_c, 6, 70, 120
7, 39736, Pitch_bend_c, 6, 8064
7, 39744, Pitch_bend_c, 6, 8000
7, 39752, Pitch_bend_c, 6, 7936
7, 39764, Note_off_c, 6, 70, 64
7, 39764, Pitch_bend_c, 6, 8192
7, 39812, Note_on_c, 6, 70, 119
7, 39816, Pitch_bend_c, 6, 8032
7, 39820, Pitch_bend_c, 6, 8000
7, 39856, Pitch_bend_c, 6, 8032
7, 39876, Pitch_bend_c, 6, 7840
7, 39884, Pitch_bend_c, 6, 7648
7, 39892, Note_off_c, 6, 70, 64
7, 39892, Pitch_bend_c, 6, 8032
7, 40056, Pitch_bend_c, 6, 8192
7, 40060, Note_on_c, 6, 72, 88
7, 40060, Pitch_bend_c, 6, 8160
7, 40112, Pitch_bend_c, 6, 7968
7, 40120, Note_off_c, 6, 72, 64
7, 40120, Pitch_bend_c, 6, 8224
7, 40184, Pitch_bend_c, 6, 8192
7, 40188, Note_on_c, 6, 72, 98
7, 40188, Pitch_bend_c, 6, 8096
7, 40192, Pitch_bend_c, 6, 8128
7, 40196, Pitch_bend_c, 6, 8192
7, 40200, Pitch_bend_c, 6, 8160
7, 40228, Pitch_bend_c, 6, 8096
7, 40240, Pitch_bend_c, 6, 5952
7, 40248, Note_off_c, 6, 72, 64
7, 40248, Pitch_bend_c, 6, 8160
7, 40324, Pitch_bend_c, 6, 8192
7, 40324, Note_on_c, 6, 72, 100
7, 40328, Pitch_bend_c, 6, 8160
7, 40332, Pitch_bend_c, 6, 8192
7, 40336, Pitch_bend_c, 6, 8160
7, 40344, Pitch_bend_c, 6, 8192
7, 40368, Pitch_bend_c, 6, 8096
7, 40376, Pitch_bend_c, 6, 5056
7, 40380, Note_off_c, 6, 72, 64
7, 40380, Pitch_bend_c, 6, 8192
7, 40456, Note_on_c, 6, 72, 101
7, 40460, Pitch_bend_c, 6, 8128
7, 40464, Pitch_bend_c, 6, 8096
7, 40500, Pitch_bend_c, 6, 8000
7, 40508, Note_off_c, 6, 72, 64
7, 40508, Pitch_bend_c, 6, 8192
7, 40588, Note_on_c, 6, 72, 101
7, 40588, Pitch_bend_c, 6, 8160
7, 40592, Pitch_bend_c, 6, 8128
7, 40596, Pitch_bend_c, 6, 8032
7, 40600, Pitch_bend_c, 6, 8000
7, 40608, Pitch_bend_c, 6, 7968
7, 40632, Pitch_bend_c, 6, 7936
7, 40640, Pitch_bend_c, 6, 7840
7, 40648, Note_off_c, 6, 72, 64
7, 40648, Pitch_bend_c, 6, 8032
7, 40712, Pitch_bend_c, 6, 8192
7, 40720, Note_on_c, 6, 72, 101
7, 40720, Pitch_bend_c, 6, 7936
7, 40752, Pitch_bend_c, 6, 7904
7, 40776, Pitch_bend_c, 6, 7680
7, 40784, Pitch_bend_c, 6, 7936
7, 40788, Note_off_c, 6, 72, 64
7, 40840, Pitch_bend_c, 6, 8192
7, 40848, Note_on_c, 6, 72, 101
7, 40852, Pitch_bend_c, 6, 7904
7, 40876, Pitch_bend_c, 6, 7872
7, 40900, Pitch_bend_c, 6, 7744
7, 40904, Pitch_bend_c, 6, 7616
7, 40920, Note_off_c, 6, 72, 64
7, 40920, Pitch_bend_c, 6, 7936
7, 40960, Pitch_bend_c, 6, 8192
7, 40968, Note_on_c, 6, 72, 101
7, 40968, Pitch_bend_c, 6, 7904
7, 40972, Pitch_bend_c, 6, 7872
7, 40976, Pitch_bend_c, 6, 7904
7, 41016, Pitch_bend_c, 6, 7872
7, 41032, Pitch_bend_c, 6, 7808
7, 41048, Pitch_bend_c, 6, 7584
7, 41056, Pitch_bend_c, 6, 7872
7, 41060, Note_off_c, 6, 72, 64
7, 41096, Pitch_bend_c, 6, 8192
7, 41096, Note_on_c, 6, 72, 103
7, 41104, Pitch_bend_c, 6, 7872
7, 41120, Pitch_bend_c, 6, 7936
7, 41140, Pitch_bend_c, 6, 7872
7, 41148, Pitch_bend_c, 6, 7840
7, 41160, Pitch_bend_c, 6, 7680
7, 41180, Pitch_bend_c, 6, 7744
7, 41192, Pitch_bend_c, 6, 7808
7, 41200, Pitch_bend_c, 6, 7584
7, 41208, Note_off_c, 6, 72, 64
7, 41208, Pitch_bend_c, 6, 7840
7, 41464, Note_on_c, 6, 77, 104
7, 41464, Pitch_bend_c, 6, 8416
7, 41512, Pitch_bend_c, 6, 8480
7, 41520, Pitch_bend_c, 6, 8416
7, 41528, Pitch_bend_c, 6, 8384
7, 41552, Pitch_bend_c, 6, 8288
7, 41560, Pitch_bend_c, 6, 7872
7, 41564, Note_off_c, 6, 77, 64
7, 41564, Pitch_bend_c, 6, 8480
7, 41708, Pitch_bend_c, 6, 8192
7, 41712, Note_on_c, 6, 77, 103
7, 41712, Pitch_bend_c, 6, 8000
7, 41716, Pitch_bend_c, 6, 8096
7, 41720, Pitch_bend_c, 6, 8288
7, 41776, Pitch_bend_c, 6, 8224
7, 41804, Pitch_bend_c, 6, 8064
7, 41816, Note_off_c, 6, 77, 64
7, 41816, Pitch_bend_c, 6, 8288
7, 41852, Pitch_bend_c, 6, 8192
7, 41860, Note_on_c, 6, 75, 111
7, 41860, Pitch_bend_c, 6, 8256
7, 41896, Pitch_bend_c, 6, 8224
7, 41920, Pitch_bend_c, 6, 8192
7, 41948, Pitch_bend_c, 6, 7872
7, 41960, Pitch_bend_c, 6, 7488
7, 41964, Note_off_c, 6, 75, 64
7, 41964, Pitch_bend_c, 6, 8256
7, 42116, Pitch_bend_c, 6, 8192
7, 42120, Note_on_c, 6, 75, 110
7, 42120, Pitch_bend_c, 6, 8128
7, 42124, Pitch_bend_c, 6, 8160
7, 42128, Pitch_bend_c, 6, 8128
7, 42200, Pitch_bend_c, 6, 8160
7, 42212, Pitch_bend_c, 6, 7776
7, 42224, Note_off_c, 6, 75, 64
7, 42224, Pitch_bend_c, 6, 8128
7, 42256, Pitch_bend_c, 6, 8192
7, 42260, Note_on_c, 6, 74, 112
7, 42264, Pitch_bend_c, 6, 8256
7, 42332, Pitch_bend_c, 6, 8192
7, 42352, Pitch_bend_c, 6, 8064
7, 42356, Note_off_c, 6, 74, 64
7, 42356, Pitch_bend_c, 6, 8192
7, 42508, Note_on_c, 6, 74, 111
7, 42616, Note_off_c, 6, 74, 64
7, 42616, Pitch_bend_c, 6, 8320
7, 42640, Pitch_bend_c, 6, 8192
7, 42648, Note_on_c, 6, 72, 101
7, 42648, Pitch_bend_c, 6, 8416
7, 42652, Pitch_bend_c, 6, 8320
7, 42664, Pitch_bend_c, 6, 8288
7, 42676, Pitch_bend_c, 6, 8320
7, 42712, Pitch_bend_c, 6, 8288
7, 42720, Pitch_bend_c, 6, 8224
7, 42728, Pitch_bend_c, 6, 8192
7, 42740, Pitch_bend_c, 6, 8128
7, 42748, Pitch_bend_c, 6, 7584
7, 42752, Note_off_c, 6, 72, 64
7, 42752, Pitch_bend_c, 6, 8288
7, 42864, Pitch_bend_c, 6, 8192
7, 42868, Note_on_c, 6, 72, 101
7, 42872, Pitch_bend_c, 6, 8160
7, 42876, Pitch_bend_c, 6, 8192
7, 42888, Pitch_bend_c, 6, 8160
7, 42908, Pitch_bend_c, 6, 8128
7, 42920, Pitch_bend_c, 6, 8096
7, 42932, Pitch_bend_c, 6, 8000
7, 42940, Pitch_bend_c, 6, 7968
7, 42952, Pitch_bend_c, 6, 7936
7, 42960, Pitch_bend_c, 6, 7968
7, 42972, Pitch_bend_c, 6, 7680
7, 42980, Pitch_bend_c, 6, 8000
7, 42984, Note_off_c, 6, 72, 64
7, 43024, Pitch_bend_c, 6, 8192
7, 43028, Note_on_c, 6, 58, 100
7, 43028, Pitch_bend_c, 6, 7968
7, 43032, Pitch_bend_c, 6, 8192
7, 43092, Pitch_bend_c, 6, 8160
7, 43112, Pitch_bend_c, 6, 8128
7, 43124, Note_off_c, 6, 58, 64
7, 43124, Pitch_bend_c, 6, 8192
7, 43640, Note_on_c, 6, 61, 111
7, 43640, Pitch_bend_c, 6, 8768
7, 43644, Pitch_bend_c, 6, 8128
7, 43672, Pitch_bend_c, 6, 8096
7, 43704, Pitch_bend_c, 6, 8064
7, 43736, Pitch_bend_c, 6, 8032
7, 43748, Pitch_bend_c, 6, 8000
7, 43756, Pitch_bend_c, 6, 7936
7, 43768, Pitch_bend_c, 6, 7968
7, 43776, Pitch_bend_c, 6, 8096
7, 43780, Note_off_c, 6, 61, 64
7, 43792, Pitch_bend_c, 6, 8192
7, 43796, Note_on_c, 6, 62, 103
7, 43796, Pitch_bend_c, 6, 8480
7, 43800, Pitch_bend_c, 6, 8000
7, 43804, Pitch_bend_c, 6, 7968
7, 43816, Pitch_bend_c, 6, 7936
7, 43860, Pitch_bend_c, 6, 7904
7, 43880, Pitch_bend_c, 6, 7872
7, 43888, Pitch_bend_c, 6, 7840
7, 43920, Pitch_bend_c, 6, 7808
7, 43932, Pitch_bend_c, 6, 7840
7, 43944, Pitch_bend_c, 6, 7712
7, 43964, Pitch_bend_c, 6, 7744
7, 43984, Pitch_bend_c, 6, 7840
7, 44012, Pitch_bend_c, 6, 7808
7, 44024, Pitch_bend_c, 6, 7776
7, 44088, Pitch_bend_c, 6, 7808
7, 44096, Pitch_bend_c, 6, 7840
7, 44120, Pitch_bend_c, 6, 7808
7, 44136, Pitch_bend_c, 6, 7712
7, 44144, Note_off_c, 6, 62, 64
7, 44144, Pitch_bend_c, 6, 7776
7, 44156, Note_on_c, 6, 65, 120
7, 44156, Pitch_bend_c, 6, 8160
7, 44160, Pitch_bend_c, 6, 8000
7, 44164, Pitch_bend_c, 6, 7968
7, 44168, Pitch_bend_c, 6, 7936
7, 44244, Pitch_bend_c, 6, 7968
7, 44260, Pitch_bend_c, 6, 8000
7, 44268, Pitch_bend_c, 6, 7904
7, 44280, Pitch_bend_c, 6, 7808
7, 44288, Note_off_c, 6, 65, 64
7, 44288, Pitch_bend_c, 6, 7936
7, 44536, Pitch_bend_c, 6, 8192
7, 44540, Note_on_c, 6, 58, 107
7, 44540, Pitch_bend_c, 6, 8160
7, 44616, Pitch_bend_c, 6, 8128
7, 44636, Pitch_bend_c, 6, 8096
7, 44648, Pitch_bend_c, 6, 7808
7, 44660, Pitch_bend_c, 6, 7488
7, 44664, Note_off_c, 6, 58, 64
7, 44664, Pitch_bend_c, 6, 8128
7, 44928, Pitch_bend_c, 6, 8192
7, 45176, Note_on_c, 6, 61, 109
7, 45180, Pitch_bend_c, 6, 8608
7, 45184, Pitch_bend_c, 6, 8064
7, 45188, Pitch_bend_c, 6, 8096
7, 45192, Pitch_bend_c, 6, 8128
7, 45200, Pitch_bend_c, 6, 8064
7, 45220, Pitch_bend_c, 6, 8032
7, 45252, Pitch_bend_c, 6, 8000
7, 45264, Pitch_bend_c, 6, 7968
7, 45284, Pitch_bend_c, 6, 7936
7, 45292, Pitch_bend_c, 6, 7872
7, 45304, Pitch_bend_c, 6, 8000
7, 45316, Pitch_bend_c, 6, 8128
7, 45320, Note_off_c, 6, 61, 64
7, 45328, Pitch_bend_c, 6, 8192
7, 45332, Note_on_c, 6, 62, 100
7, 45336, Pitch_bend_c, 6, 7872
7, 45340, Pitch_bend_c, 6, 7936
7, 45372, Pitch_bend_c, 6, 7904
7, 45412, Pitch_bend_c, 6, 7872
7, 45456, Pitch_bend_c, 6, 7840
7, 45548, Pitch_bend_c, 6, 7808
7, 45592, Pitch_bend_c, 6, 7840
7, 45640, Pitch_bend_c, 6, 7808
7, 45656, Pitch_bend_c, 6, 7776
7, 45664, Pitch_bend_c, 6, 7648
7, 45672, Note_off_c, 6, 62, 64
7, 45672, Pitch_bend_c, 6, 7840
7, 45692, Pitch_bend_c, 6, 8192
7, 45696, Note_on_c, 6, 65, 120
7, 45704, Pitch_bend_c, 6, 8032
7, 45708, Pitch_bend_c, 6, 8000
7, 45724, Pitch_bend_c, 6, 7968
7, 45752, Pitch_bend_c, 6, 7936
7, 45772, Pitch_bend_c, 6, 7968
7, 45796, Pitch_bend_c, 6, 8000
7, 45804, Pitch_bend_c, 6, 7936
7, 45816, Pitch_bend_c, 6, 7744
7, 45828, Pitch_bend_c, 6, 7584
7, 45832, Note_off_c, 6, 65, 64
7, 45832, Pitch_bend_c, 6, 7968
7, 46076, Pitch_bend_c, 6, 8192
7, 46084, Note_on_c, 6, 63, 104
7, 46088, Pitch_bend_c, 6, 7904
7, 46092, Pitch_bend_c, 6, 7872
7, 46176, Pitch_bend_c, 6, 7840
7, 46184, Pitch_bend_c, 6, 7744
7, 46196, Pitch_bend_c, 6, 7552
7, 46208, Pitch_bend_c, 6, 7264
7, 46216, Note_off_c, 6, 63, 64
7, 46216, Pitch_bend_c, 6, 7872
7, 46708, Pitch_bend_c, 6, 8192
7, 46712, Note_on_c, 6, 66, 117
7, 46712, Pitch_bend_c, 6, 8064
7, 46716, Pitch_bend_c, 6, 8032
7, 46720, Pitch_bend_c, 6, 7968
7, 46724, Pitch_bend_c, 6, 8000
7, 46736, Pitch_bend_c, 6, 8032
7, 46756, Pitch_bend_c, 6, 8064
7, 46764, Pitch_bend_c, 6, 8032
7, 46776, Pitch_bend_c, 6, 7904
7, 46788, Pitch_bend_c, 6, 7712
7, 46796, Pitch_bend_c, 6, 7680
7, 46816, Pitch_bend_c, 6, 7776
7, 46824, Pitch_bend_c, 6, 8192
7, 46840, Note_off_c, 6, 66, 64
7, 46840, Pitch_bend_c, 6, 8384
7, 46856, Pitch_bend_c, 6, 8192
7, 46860, Note_on_c, 6, 67, 107
7, 46864, Pitch_bend_c, 6, 8032
7, 46872, Pitch_bend_c, 6, 8064
7, 46880, Pitch_bend_c, 6, 8032
7, 46944, Pitch_bend_c, 6, 8000
7, 46988, Pitch_bend_c, 6, 8032
7, 47008, Pitch_bend_c, 6, 8064
7, 47020, Pitch_bend_c, 6, 8096
7, 47040, Pitch_bend_c, 6, 8064
7, 47048, Pitch_bend_c, 6, 8032
7, 47064, Pitch_bend_c, 6, 7936
7, 47072, Pitch_bend_c, 6, 7872
7, 47080, Pitch_bend_c, 6, 7840
7, 47104, Pitch_bend_c, 6, 7872
7, 47112, Pitch_bend_c, 6, 7904
7, 47124, Pitch_bend_c, 6, 7936
7, 47132, Pitch_bend_c, 6, 7968
7, 47144, Pitch_bend_c, 6, 8000
7, 47152, Pitch_bend_c, 6, 8032
7, 47184, Pitch_bend_c, 6, 8000
7, 47208, Pitch_bend_c, 6, 7872
7, 47220, Note_off_c, 6, 67, 64
7, 47220, Pitch_bend_c, 6, 7968
7, 47236, Pitch_bend_c, 6, 8192
7, 47240, Note_on_c, 6, 70, 117
7, 47240, Pitch_bend_c, 6, 8128
7, 47280, Pitch_bend_c, 6, 8096
7, 47288, Pitch_bend_c, 6, 7840
7, 47324, Pitch_bend_c, 6, 7872
7, 47336, Pitch_bend_c, 6, 8128
7, 47344, Pitch_bend_c, 6, 8032
7, 47356, Pitch_bend_c, 6, 7904
7, 47364, Note_off_c, 6, 70, 64
7, 47588, Pitch_bend_c, 6, 8192
7, 47592, Note_on_c, 6, 58, 104
7, 47592, Pitch_bend_c, 6, 8096
7, 47596, Pitch_bend_c, 6, 8160
7, 47656, Pitch_bend_c, 6, 8128
7, 47664, Pitch_bend_c, 6, 8192
7, 47684, Pitch_bend_c, 6, 8160
7, 47696, Pitch_bend_c, 6, 8128
7, 47704, Pitch_bend_c, 6, 8064
7, 47716, Pitch_bend_c, 6, 8032
7, 47724, Note_off_c, 6, 58, 64
7, 47724, Pitch_bend_c, 6, 8192
7, 48248, Note_on_c, 6, 61, 113
7, 48248, Pitch_bend_c, 6, 8160
7, 48252, Pitch_bend_c, 6, 7840
7, 48256, Pitch_bend_c, 6, 7392
7, 48264, Pitch_bend_c, 6, 7104
7, 48272, Pitch_bend_c, 6, 7328
7, 48284, Pitch_bend_c, 6, 7520
7, 48296, Pitch_bend_c, 6, 7744
7, 48304, Pitch_bend_c, 6, 7968
7, 48312, Pitch_bend_c, 6, 8000
7, 48324, Pitch_bend_c, 6, 8032
7, 48356, Pitch_bend_c, 6, 8000
7, 48364, Pitch_bend_c, 6, 8064
7, 48376, Note_off_c, 6, 61, 64
7, 48376, Pitch_bend_c, 6, 8128
7, 48396, Pitch_bend_c, 6, 8192
7, 48400, Note_on_c, 6, 62, 93
7, 48404, Pitch_bend_c, 6, 7552
7, 48408, Pitch_bend_c, 6, 7936
7, 48452, Pitch_bend_c, 6, 7904
7, 48472, Pitch_bend_c, 6, 7872
7, 48492, Pitch_bend_c, 6, 7840
7, 48548, Pitch_bend_c, 6, 7872
7, 48556, Pitch_bend_c, 6, 7904
7, 48568, Pitch_bend_c, 6, 7936
7, 48584, Pitch_bend_c, 6, 7968
7, 48600, Pitch_bend_c, 6, 8000
7, 48628, Pitch_bend_c, 6, 8032
7, 48680, Pitch_bend_c, 6, 8000
7, 48712, Pitch_bend_c, 6, 7968
7, 48720, Pitch_bend_c, 6, 7936
7, 48732, Note_off_c, 6, 62, 64
7, 48732, Pitch_bend_c, 6, 8000
7, 48768, Pitch_bend_c, 6, 8192
7, 48776, Note_on_c, 6, 65, 105
7, 48776, Pitch_bend_c, 6, 8096
7, 48792, Pitch_bend_c, 6, 8064
7, 48804, Pitch_bend_c, 6, 7968
7, 48812, Pitch_bend_c, 6, 7936
7, 48824, Pitch_bend_c, 6, 7904
7, 48844, Pitch_bend_c, 6, 7936
7, 48876, Pitch_bend_c, 6, 7968
7, 48920, Note_off_c, 6, 65, 64
7, 49156, Pitch_bend_c, 6, 8192
7, 49160, Note_on_c, 6, 58, 97
7, 49224, Pitch_bend_c, 6, 8224
7, 49236, Pitch_bend_c, 6, 8256
7, 49248, Pitch_bend_c, 6, 8224
7, 49256, Pitch_bend_c, 6, 8192
7, 49264, Note_off_c, 6, 58, 64
7, 49768, Note_on_c, 6, 61, 113
7, 49772, Pitch_bend_c, 6, 8384
7, 49776, Pitch_bend_c, 6, 8064
7, 49780, Pitch_bend_c, 6, 8128
7, 49784, Pitch_bend_c, 6, 8064
7, 49804, Pitch_bend_c, 6, 8032
7, 49816, Pitch_bend_c, 6, 7968
7, 49836, Pitch_bend_c, 6, 8000
7, 49848, Pitch_bend_c, 6, 8032
7, 49860, Pitch_bend_c, 6, 8064
7, 49880, Pitch_bend_c, 6, 8032
7, 49888, Pitch_bend_c, 6, 8128
7, 49900, Pitch_bend_c, 6, 8384
7, 49904, Note_off_c, 6, 61, 64
7, 49912, Pitch_bend_c, 6, 8192
7, 49916, Note_on_c, 6, 62, 95
7, 49924, Pitch_bend_c, 6, 7968
7, 49940, Pitch_bend_c, 6, 7936
7, 49960, Pitch_bend_c, 6, 7904
7, 49980, Pitch_bend_c, 6, 7872
7, 50000, Pitch_bend_c, 6, 7840
7, 50008, Pitch_bend_c, 6, 7808
7, 50024, Pitch_bend_c, 6, 7840
7, 50052, Pitch_bend_c, 6, 7936
7, 50060, Pitch_bend_c, 6, 8000
7, 50072, Pitch_bend_c, 6, 8096
7, 50084, Pitch_bend_c, 6, 8192
7, 50092, Pitch_bend_c, 6, 8256
7, 50124, Pitch_bend_c, 6, 8192
7, 50136, Pitch_bend_c, 6, 8096
7, 50144, Pitch_bend_c, 6, 8000
7, 50152, Pitch_bend_c, 6, 7872
7, 50168, Pitch_bend_c, 6, 7808
7, 50200, Pitch_bend_c, 6, 7840
7, 50260, Pitch_bend_c, 6, 7808
7, 50272, Pitch_bend_c, 6, 7776
7, 50292, Pitch_bend_c, 6, 7648
7, 50296, Note_off_c, 6, 62, 64
7, 50296, Note_on_c, 6, 65, 118
7, 50296, Pitch_bend_c, 6, 8320
7, 50300, Pitch_bend_c, 6, 8128
7, 50304, Pitch_bend_c, 6, 8096
7, 50324, Pitch_bend_c, 6, 8128
7, 50332, Pitch_bend_c, 6, 8096
7, 50344, Pitch_bend_c, 6, 8128
7, 50352, Pitch_bend_c, 6, 8160
7, 50364, Pitch_bend_c, 6, 8064
7, 50376, Pitch_bend_c, 6, 8000
7, 50384, Pitch_bend_c, 6, 7936
7, 50392, Pitch_bend_c, 6, 7840
7, 50404, Pitch_bend_c, 6, 7872
7, 50412, Pitch_bend_c, 6, 7904
7, 50424, Pitch_bend_c, 6, 7872
7, 50436, Pitch_bend_c, 6, 7840
7, 50444, Pitch_bend_c, 6, 7776
7, 50448, Note_off_c, 6, 65, 64
7, 50448, Pitch_bend_c, 6, 7872
7, 50680, Pitch_bend_c, 6, 8192
7, 50684, Note_on_c, 6, 65, 98
7, 50684, Pitch_bend_c, 6, 7680
7, 50688, Pitch_bend_c, 6, 7712
7, 50692, Pitch_bend_c, 6, 7872
7, 50696, Pitch_bend_c, 6, 7904
7, 50704, Pitch_bend_c, 6, 7872
7, 50736, Pitch_bend_c, 6, 7840
7, 50768, Pitch_bend_c, 6, 7808
7, 50788, Pitch_bend_c, 6, 7776
7, 50808, Pitch_bend_c, 6, 7584
7, 50820, Pitch_bend_c, 6, 7392
7, 50828, Note_off_c, 6, 65, 64
7, 50828, Pitch_bend_c, 6, 7808
7, 51304, Pitch_bend_c, 6, 8192
7, 51308, Note_on_c, 6, 68, 115
7, 51312, Pitch_bend_c, 6, 8032
7, 51340, Pitch_bend_c, 6, 8000
7, 51392, Pitch_bend_c, 6, 7968
7, 51424, Pitch_bend_c, 6, 8000
7, 51444, Pitch_bend_c, 6, 8064
7, 51448, Note_off_c, 6, 68, 64
7, 51464, Pitch_bend_c, 6, 8192
7, 51468, Note_on_c, 6, 69, 112
7, 51472, Pitch_bend_c, 6, 8064
7, 51496, Pitch_bend_c, 6, 8096
7, 51532, Pitch_bend_c, 6, 8064
7, 51552, Pitch_bend_c, 6, 8032
7, 51564, Pitch_bend_c, 6, 8000
7, 51572, Pitch_bend_c, 6, 7968
7, 51604, Pitch_bend_c, 6, 8032
7, 51612, Pitch_bend_c, 6, 8096
7, 51624, Pitch_bend_c, 6, 8160
7, 51656, Pitch_bend_c, 6, 8128
7, 51664, Pitch_bend_c, 6, 8064
7, 51676, Pitch_bend_c, 6, 8032
7, 51696, Pitch_bend_c, 6, 8096
7, 51704, Pitch_bend_c, 6, 8192
7, 51720, Pitch_bend_c, 6, 8352
7, 51728, Pitch_bend_c, 6, 8544
7, 51740, Pitch_bend_c, 6, 8640
7, 51748, Pitch_bend_c, 6, 8672
7, 51768, Pitch_bend_c, 6, 8608
7, 51780, Pitch_bend_c, 6, 8480
7, 51788, Pitch_bend_c, 6, 8320
7, 51800, Pitch_bend_c, 6, 8128
7, 51812, Pitch_bend_c, 6, 7808
7, 51816, Note_off_c, 6, 69, 64
7, 51816, Pitch_bend_c, 6, 8608
7, 51844, Pitch_bend_c, 6, 8192
7, 51848, Note_on_c, 6, 72, 113
7, 51848, Pitch_bend_c, 6, 8096
7, 51852, Pitch_bend_c, 6, 8128
7, 51940, Pitch_bend_c, 6, 8160
7, 51968, Pitch_bend_c, 6, 8032
7, 51976, Note_off_c, 6, 72, 64
7, 51976, Pitch_bend_c, 6, 8192
7, 52200, Note_on_c, 6, 58, 104
7, 52200, Pitch_bend_c, 6, 8224
7, 52260, Pitch_bend_c, 6, 8192
7, 52280, Pitch_bend_c, 6, 8160
7, 52292, Pitch_bend_c, 6, 8096
7, 52300, Pitch_bend_c, 6, 7840
7, 52312, Pitch_bend_c, 6, 7584
7, 52316, Note_off_c, 6, 58, 64
7, 52316, Pitch_bend_c, 6, 8192
7, 52836, Note_on_c, 6, 61, 107
7, 52840, Pitch_bend_c, 6, 7968
7, 52844, Pitch_bend_c, 6, 8032
7, 52856, Pitch_bend_c, 6, 8000
7, 52876, Pitch_bend_c, 6, 7968
7, 52900, Pitch_bend_c, 6, 8000
7, 52908, Pitch_bend_c, 6, 7968
7, 52928, Pitch_bend_c, 6, 7936
7, 52940, Pitch_bend_c, 6, 7872
7, 52960, Pitch_bend_c, 6, 7968
7, 52968, Pitch_bend_c, 6, 8096
7, 52980, Pitch_bend_c, 6, 11488
7, 52988, Note_off_c, 6, 61, 64
7, 52988, Note_on_c, 6, 62, 76
7, 52988, Pitch_bend_c, 6, 7712
7, 52992, Pitch_bend_c, 6, 7744
7, 53040, Pitch_bend_c, 6, 7776
7, 53064, Pitch_bend_c, 6, 7808
7, 53072, Pitch_bend_c, 6, 7840
7, 53080, Pitch_bend_c, 6, 7872
7, 53096, Pitch_bend_c, 6, 7904
7, 53104, Pitch_bend_c, 6, 7936
7, 53132, Pitch_bend_c, 6, 8000
7, 53144, Pitch_bend_c, 6, 8064
7, 53160, Pitch_bend_c, 6, 8224
7, 53168, Pitch_bend_c, 6, 8384
7, 53176, Pitch_bend_c, 6, 8544
7, 53188, Pitch_bend_c, 6, 8640
7, 53208, Pitch_bend_c, 6, 8608
7, 53220, Pitch_bend_c, 6, 8512
7, 53232, Pitch_bend_c, 6, 8320
7, 53240, Pitch_bend_c, 6, 8160
7, 53252, Pitch_bend_c, 6, 8000
7, 53260, Pitch_bend_c, 6, 7936
7, 53272, Pitch_bend_c, 6, 7904
7, 53288, Pitch_bend_c, 6, 7872
7, 53304, Pitch_bend_c, 6, 7776
7, 53312, Pitch_bend_c, 6, 7712
7, 53324, Pitch_bend_c, 6, 7648
7, 53332, Pitch_bend_c, 6, 7616
7, 53344, Pitch_bend_c, 6, 7648
7, 53352, Pitch_bend_c, 6, 8192
7, 53356, Note_off_c, 6, 62, 64
7, 53356, Note_on_c, 6, 65, 116
7, 53360, Pitch_bend_c, 6, 8032
7, 53364, Pitch_bend_c, 6, 8096
7, 53380, Pitch_bend_c, 6, 8032
7, 53396, Pitch_bend_c, 6, 8000
7, 53436, Pitch_bend_c, 6, 7968
7, 53448, Pitch_bend_c, 6, 7936
7, 53460, Pitch_bend_c, 6, 7968
7, 53468, Pitch_bend_c, 6, 7936
7, 53480, Pitch_bend_c, 6, 7904
7, 53488, Note_off_c, 6, 65, 64
7, 53760, Note_on_c, 6, 65, 107
7, 53760, Pitch_bend_c, 6, 8064
7, 53792, Pitch_bend_c, 6, 8032
7, 53804, Pitch_bend_c, 6, 8000
7, 53824, Pitch_bend_c, 6, 7968
7, 53860, Pitch_bend_c, 6, 7840
7, 53868, Pitch_bend_c, 6, 7488
7, 53876, Note_off_c, 6, 65, 64
7, 53876, Pitch_bend_c, 6, 8032
7, 54396, Pitch_bend_c, 6, 8192
7, 54404, Note_on_c, 6, 68, 115
7, 54404, Pitch_bend_c, 6, 8160
7, 54432, Pitch_bend_c, 6, 8128
7, 54456, Pitch_bend_c, 6, 8096
7, 54472, Pitch_bend_c, 6, 8064
7, 54496, Pitch_bend_c, 6, 8032
7, 54508, Pitch_bend_c, 6, 8000
7, 54536, Pitch_bend_c, 6, 8032
7, 54540, Note_off_c, 6, 68, 64
7, 54540, Pitch_bend_c, 6, 8096
7, 54544, Pitch_bend_c, 6, 8192
7, 54548, Note_on_c, 6, 69, 104
7, 54552, Pitch_bend_c, 6, 7968
7, 54556, Pitch_bend_c, 6, 8000
7, 54568, Pitch_bend_c, 6, 8032
7, 54588, Pitch_bend_c, 6, 8064
7, 54600, Pitch_bend_c, 6, 8096
7, 54620, Pitch_bend_c, 6, 8128
7, 54644, Pitch_bend_c, 6, 8160
7, 54664, Pitch_bend_c, 6, 8128
7, 54676, Pitch_bend_c, 6, 8096
7, 54680, Pitch_bend_c, 6, 8064
7, 54692, Pitch_bend_c, 6, 8000
7, 54700, Pitch_bend_c, 6, 7968
7, 54712, Pitch_bend_c, 6, 7936
7, 54744, Pitch_bend_c, 6, 7968
7, 54756, Pitch_bend_c, 6, 8000
7, 54764, Pitch_bend_c, 6, 8032
7, 54788, Pitch_bend_c, 6, 8000
7, 54808, Pitch_bend_c, 6, 8032
7, 54816, Pitch_bend_c, 6, 8064
7, 54848, Pitch_bend_c, 6, 8032
7, 54860, Pitch_bend_c, 6, 7968
7, 54872, Pitch_bend_c, 6, 7904
7, 54880, Pitch_bend_c, 6, 7840
7, 54904, Note_off_c, 6, 69, 64
7, 54904, Pitch_bend_c, 6, 8032
7, 54920, Pitch_bend_c, 6, 8192
7, 54924, Note_on_c, 6, 72, 117
7, 54976, Pitch_bend_c, 6, 8160
7, 55016, Pitch_bend_c, 6, 8128
7, 55040, Pitch_bend_c, 6, 8096
7, 55048, Pitch_bend_c, 6, 7872
7, 55060, Pitch_bend_c, 6, 7648
7, 55064, Note_off_c, 6, 72, 64
7, 55064, Pitch_bend_c, 6, 8160
7, 67592, Pitch_bend_c, 6, 8192
7, 67732, Note_on_c, 6, 70, 113
7, 67732, Pitch_bend_c, 6, 8064
7, 67736, Pitch_bend_c, 6, 8096
7, 67740, Pitch_bend_c, 6, 8128
7, 67764, Pitch_bend_c, 6, 8064
7, 67768, Pitch_bend_c, 6, 8032
7, 67784, Pitch_bend_c, 6, 7840
7, 67792, Note_off_c, 6, 70, 64
7, 67792, Pitch_bend_c, 6, 8128
7, 67852, Pitch_bend_c, 6, 8192
7, 67856, Note_on_c, 6, 70, 109
7, 67860, Pitch_bend_c, 6, 7968
7, 67864, Pitch_bend_c, 6, 8000
7, 67880, Pitch_bend_c, 6, 7968
7, 67912, Pitch_bend_c, 6, 7904
7, 67920, Note_off_c, 6, 70, 64
7, 67920, Pitch_bend_c, 6, 8000
7, 67976, Pitch_bend_c, 6, 8192
7, 67984, Note_on_c, 6, 70, 115
7, 67984, Pitch_bend_c, 6, 7968
7, 67988, Pitch_bend_c, 6, 8000
7, 68004, Pitch_bend_c, 6, 7936
7, 68036, Pitch_bend_c, 6, 7872
7, 68044, Note_off_c, 6, 70, 64
7, 68044, Pitch_bend_c, 6, 7968
7, 68100, Pitch_bend_c, 6, 8192
7, 68104, Note_on_c, 6, 70, 119
7, 68104, Pitch_bend_c, 6, 8032
7, 68136, Pitch_bend_c, 6, 8064
7, 68144, Pitch_bend_c, 6, 8096
7, 68152, Pitch_bend_c, 6, 8032
7, 68168, Pitch_bend_c, 6, 7872
7, 68176, Note_off_c, 6, 70, 64
7, 68176, Pitch_bend_c, 6, 8032
7, 68224, Pitch_bend_c, 6, 8192
7, 68228, Note_on_c, 6, 70, 119
7, 68228, Pitch_bend_c, 6, 8064
7, 68232, Pitch_bend_c, 6, 8032
7, 68280, Pitch_bend_c, 6, 8064
7, 68288, Pitch_bend_c, 6, 8000
7, 68296, Pitch_bend_c, 6, 7904
7, 68304, Note_off_c, 6, 70, 64
7, 68304, Pitch_bend_c, 6, 8064
7, 68348, Pitch_bend_c, 6, 8192
7, 68352, Note_on_c, 6, 70, 119
7, 68352, Pitch_bend_c, 6, 8064
7, 68356, Pitch_bend_c, 6, 8032
7, 68404, Pitch_bend_c, 6, 8064
7, 68416, Pitch_bend_c, 6, 8096
7, 68424, Pitch_bend_c, 6, 8032
7, 68436, Pitch_bend_c, 6, 7936
7, 68440, Note_off_c, 6, 70, 64
7, 68440, Pitch_bend_c, 6, 8032
7, 68472, Pitch_bend_c, 6, 8192
7, 68476, Note_on_c, 6, 70, 119
7, 68476, Pitch_bend_c, 6, 8096
7, 68508, Pitch_bend_c, 6, 8064
7, 68552, Pitch_bend_c, 6, 8000
7, 68564, Pitch_bend_c, 6, 7872
7, 68572, Note_off_c, 6, 70, 64
7, 68572, Pitch_bend_c, 6, 8192
7, 68608, Note_on_c, 6, 70, 120
7, 68608, Pitch_bend_c, 6, 8096
7, 68672, Pitch_bend_c, 6, 8128
7, 68680, Pitch_bend_c, 6, 7968
7, 68696, Note_off_c, 6, 70, 64
7, 68696, Pitch_bend_c, 6, 8192
7, 68740, Note_on_c, 6, 70, 120
7, 68744, Pitch_bend_c, 6, 8064
7, 68780, Pitch_bend_c, 6, 8096
7, 68800, Pitch_bend_c, 6, 8000
7, 68812, Note_off_c, 6, 70, 64
7, 68812, Pitch_bend_c, 6, 8192
7, 68868, Note_on_c, 6, 70, 120
7, 68872, Pitch_bend_c, 6, 8032
7, 68876, Pitch_bend_c, 6, 8064
7, 68880, Pitch_bend_c, 6, 8032
7, 68912, Pitch_bend_c, 6, 8064
7, 68920, Pitch_bend_c, 6, 8000
7, 68932, Pitch_bend_c, 6, 7840
7, 68936, Note_off_c, 6, 70, 64
7, 68936, Pitch_bend_c, 6, 8064
7, 68984, Pitch_bend_c, 6, 8192
7, 68988, Note_on_c, 6, 70, 119
7, 68992, Pitch_bend_c, 6, 8064
7, 69032, Pitch_bend_c, 6, 8032
7, 69048, Pitch_bend_c, 6, 8064
7, 69064, Pitch_bend_c, 6, 7904
7, 69072, Pitch_bend_c, 6, 7776
7, 69080, Note_off_c, 6, 70, 64
7, 69080, Pitch_bend_c, 6, 8064
7, 69128, Pitch_bend_c, 6, 8192
7, 69268, Note_on_c, 6, 70, 113
7, 69268, Pitch_bend_c, 6, 8064
7, 69272, Pitch_bend_c, 6, 8096
7, 69276, Pitch_bend_c, 6, 8128
7, 69300, Pitch_bend_c, 6, 8064
7, 69304, Pitch_bend_c, 6, 8032
7, 69320, Pitch_bend_c, 6, 7840
7, 69328, Note_off_c, 6, 70, 64
7, 69328, Pitch_bend_c, 6, 8128
7, 69388, Pitch_bend_c, 6, 8192
7, 69392, Note_on_c, 6, 70, 109
7, 69396, Pitch_bend_c, 6, 7968
7, 69400, Pitch_bend_c, 6, 8000
7, 69416, Pitch_bend_c, 6, 7968
7, 69448, Pitch_bend_c, 6, 7904
7, 69456, Note_off_c, 6, 70, 64
7, 69456, Pitch_bend_c, 6, 8000
7, 69512, Pitch_bend_c, 6, 8192
7, 69520, Note_on_c, 6, 70, 115
7, 69520, Pitch_bend_c, 6, 7968
7, 69524, Pitch_bend_c, 6, 8000
7, 69540, Pitch_bend_c, 6, 7936
7, 69572, Pitch_bend_c, 6, 7872
7, 69580, Note_off_c, 6, 70, 64
7, 69580, Pitch_bend_c, 6, 7968
7, 69636, Pitch_bend_c, 6, 8192
7, 69640, Note_on_c, 6, 70, 119
7, 69640, Pitch_bend_c, 6, 8032
7, 69672, Pitch_bend_c, 6, 8064
7, 69680, Pitch_bend_c, 6, 8096
7, 69688, Pitch_bend_c, 6, 8032
7, 69704, Pitch_bend_c, 6, 7872
7, 69712, Note_off_c, 6, 70, 64
7, 69712, Pitch_bend_c, 6, 8032
7, 69760, Pitch_bend_c, 6, 8192
7, 69764, Note_on_c, 6, 70, 119
7, 69764, Pitch_bend_c, 6, 8064
7, 69768, Pitch_bend_c, 6, 8032
7, 69816, Pitch_bend_c, 6, 8064
7, 69824, Pitch_bend_c, 6, 8000
7, 69832, Pitch_bend_c, 6, 7904
7, 69840, Note_off_c, 6, 70, 64
7, 69840, Pitch_bend_c, 6, 8064
7, 69884, Pitch_bend_c, 6, 8192
7, 69888, Note_on_c, 6, 70, 119
7, 69888, Pitch_bend_c, 6, 8064
7, 69892, Pitch_bend_c, 6, 8032
7, 69940, Pitch_bend_c, 6, 8064
7, 69952, Pitch_bend_c, 6, 8096
7, 69960, Pitch_bend_c, 6, 8032
7, 69972, Pitch_bend_c, 6, 7936
7, 69976, Note_off_c, 6, 70, 64
7, 69976, Pitch_bend_c, 6, 8032
7, 70008, Pitch_bend_c, 6, 8192
7, 70012, Note_on_c, 6, 70, 119
7, 70012, Pitch_bend_c, 6, 8096
7, 70044, Pitch_bend_c, 6, 8064
7, 70088, Pitch_bend_c, 6, 8000
7, 70100, Pitch_bend_c, 6, 7872
7, 70108, Note_off_c, 6, 70, 64
7, 70108, Pitch_bend_c, 6, 8192
7, 70144, Note_on_c, 6, 70, 120
7, 70144, Pitch_bend_c, 6, 8096
7, 70208, Pitch_bend_c, 6, 8128
7, 70216, Pitch_bend_c, 6, 7968
7, 70232, Note_off_c, 6, 70, 64
7, 70232, Pitch_bend_c, 6, 8192
7, 70276, Note_on_c, 6, 70, 120
7, 70280, Pitch_bend_c, 6, 8064
7, 70316, Pitch_bend_c, 6, 8096
7, 70336, Pitch_bend_c, 6, 8000
7, 70348, Note_off_c, 6, 70, 64
7, 70348, Pitch_bend_c, 6, 8192
7, 70404, Note_on_c, 6, 70, 120
7, 70408, Pitch_bend_c, 6, 8032
7, 70412, Pitch_bend_c, 6, 8064
7, 70416, Pitch_bend_c, 6, 8032
7, 70448, Pitch_bend_c, 6, 8064
7, 70456, Pitch_bend_c, 6, 8000
7, 70468, Pitch_bend_c, 6, 7840
7, 70472, Note_off_c, 6, 70, 64
7, 70472, Pitch_bend_c, 6, 8064
7, 70520, Pitch_bend_c, 6, 8192
7, 70524, Note_on_c, 6, 70, 119
7, 70528, Pitch_bend_c, 6, 8064
7, 70568, Pitch_bend_c, 6, 8032
7, 70584, Pitch_bend_c, 6, 8064
7, 70600, Pitch_bend_c, 6, 7904
7, 70608, Pitch_bend_c, 6, 7776
7, 70616, Note_off_c, 6, 70, 64
7, 70616, Pitch_bend_c, 6, 8064
7, 70796, Pitch_bend_c, 6, 8192
7, 70800, Note_on_c, 6, 70, 93
7, 70800, Pitch_bend_c, 6, 8064
7, 70808, Pitch_bend_c, 6, 8096
7, 70828, Pitch_bend_c, 6, 8128
7, 70848, Pitch_bend_c, 6, 7904
7, 70856, Note_off_c, 6, 70, 64
7, 70856, Pitch_bend_c, 6, 8064
7, 70920, Pitch_bend_c, 6, 8192
7, 70924, Note_on_c, 6, 70, 104
7, 70924, Pitch_bend_c, 6, 7968
7, 70932, Pitch_bend_c, 6, 8000
7, 70944, Pitch_bend_c, 6, 8032
7, 70968, Pitch_bend_c, 6, 7936
7, 70980, Pitch_bend_c, 6, 7680
7, 70984, Note_off_c, 6, 70, 64
7, 70984, Pitch_bend_c, 6, 7968
7, 71048, Note_on_c, 6, 70, 111
7, 71048, Pitch_bend_c, 6, 8192
7, 71052, Pitch_bend_c, 6, 7968
7, 71056, Pitch_bend_c, 6, 8000
7, 71072, Pitch_bend_c, 6, 8032
7, 71084, Pitch_bend_c, 6, 7968
7, 71096, Pitch_bend_c, 6, 7744
7, 71104, Pitch_bend_c, 6, 7552
7, 71108, Note_off_c, 6, 70, 64
7, 71108, Pitch_bend_c, 6, 8000
7, 71172, Pitch_bend_c, 6, 8192
7, 71176, Note_on_c, 6, 70, 115
7, 71176, Pitch_bend_c, 6, 8000
7, 71188, Pitch_bend_c, 6, 8032
7, 71208, Pitch_bend_c, 6, 8000
7, 71220, Pitch_bend_c, 6, 7968
7, 71228, Pitch_bend_c, 6, 7936
7, 71240, Pitch_bend_c, 6, 7840
7, 71252, Note_off_c, 6, 70, 64
7, 71252, Pitch_bend_c, 6, 8032
7, 71304, Pitch_bend_c, 6, 8192
7, 71308, Note_on_c, 6, 70, 117
7, 71308, Pitch_bend_c, 6, 8064
7, 71316, Pitch_bend_c, 6, 8096
7, 71352, Pitch_bend_c, 6, 8128
7, 71368, Pitch_bend_c, 6, 7968
7, 71380, Pitch_bend_c, 6, 7776
7, 71384, Note_off_c, 6, 70, 64
7, 71384, Pitch_bend_c, 6, 8064
7, 71428, Pitch_bend_c, 6, 8192
7, 71432, Note_on_c, 6, 70, 118
7, 71432, Pitch_bend_c, 6, 8000
7, 71436, Pitch_bend_c, 6, 8032
7, 71472, Pitch_bend_c, 6, 8064
7, 71480, Pitch_bend_c, 6, 8000
7, 71492, Pitch_bend_c, 6, 7904
7, 71500, Note_off_c, 6, 70, 64
7, 71500, Pitch_bend_c, 6, 8000
7, 71556, Pitch_bend_c, 6, 8192
7, 71560, Note_on_c, 6, 70, 119
7, 71560, Pitch_bend_c, 6, 8032
7, 71572, Pitch_bend_c, 6, 8000
7, 71596, Pitch_bend_c, 6, 8032
7, 71608, Pitch_bend_c, 6, 8064
7, 71616, Pitch_bend_c, 6, 7808
7, 71624, Pitch_bend_c, 6, 8000
7, 71628, Note_off_c, 6, 70, 64
7, 71684, Note_on_c, 6, 70, 119
7, 71684, Pitch_bend_c, 6, 8064
7, 71688, Pitch_bend_c, 6, 8032
7, 71736, Pitch_bend_c, 6, 8000
7, 71748, Pitch_bend_c, 6, 7936
7, 71752, Note_off_c, 6, 70, 64
7, 71752, Pitch_bend_c, 6, 8192
7, 71800, Note_on_c, 6, 70, 119
7, 71804, Pitch_bend_c, 6, 8032
7, 71812, Pitch_bend_c, 6, 8000
7, 71852, Pitch_bend_c, 6, 8032
7, 71864, Pitch_bend_c, 6, 8096
7, 71872, Pitch_bend_c, 6, 7872
7, 71884, Pitch_bend_c, 6, 7648
7, 71888, Note_off_c, 6, 70, 64
7, 71888, Pitch_bend_c, 6, 8000
7, 71932, Note_on_c, 6, 70, 120
7, 71984, Pitch_bend_c, 6, 8032
7, 71996, Pitch_bend_c, 6, 7840
7, 72004, Pitch_bend_c, 6, 7680
7, 72008, Note_off_c, 6, 70, 64
7, 72008, Pitch_bend_c, 6, 7968
7, 72068, Note_on_c, 6, 70, 119
7, 72068, Pitch_bend_c, 6, 8192
7, 72072, Pitch_bend_c, 6, 8032
7, 72112, Pitch_bend_c, 6, 8064
7, 72136, Pitch_bend_c, 6, 7904
7, 72144, Pitch_bend_c, 6, 7744
7, 72148, Note_off_c, 6, 70, 64
7, 72148, Pitch_bend_c, 6, 8192
7, 72336, Note_on_c, 6, 70, 94
7, 72336, Pitch_bend_c, 6, 8096
7, 72340, Pitch_bend_c, 6, 8064
7, 72344, Pitch_bend_c, 6, 8096
7, 72376, Pitch_bend_c, 6, 8000
7, 72388, Pitch_bend_c, 6, 7680
7, 72392, Note_off_c, 6, 70, 64
7, 72392, Pitch_bend_c, 6, 8096
7, 72456, Note_on_c, 6, 70, 100
7, 72456, Pitch_bend_c, 6, 8192
7, 72460, Pitch_bend_c, 6, 8000
7, 72464, Pitch_bend_c, 6, 8032
7, 72488, Pitch_bend_c, 6, 8064
7, 72500, Pitch_bend_c, 6, 8032
7, 72508, Pitch_bend_c, 6, 7648
7, 72516, Note_off_c, 6, 70, 64
7, 72516, Pitch_bend_c, 6, 8000
7, 72584, Note_on_c, 6, 70, 110
7, 72584, Pitch_bend_c, 6, 7936
7, 72588, Pitch_bend_c, 6, 7968
7, 72592, Pitch_bend_c, 6, 8000
7, 72628, Pitch_bend_c, 6, 7936
7, 72632, Pitch_bend_c, 6, 7872
7, 72648, Note_off_c, 6, 70, 64
7, 72648, Pitch_bend_c, 6, 7968
7, 72704, Pitch_bend_c, 6, 8192
7, 72708, Note_on_c, 6, 70, 116
7, 72712, Pitch_bend_c, 6, 8000
7, 72744, Pitch_bend_c, 6, 8032
7, 72760, Pitch_bend_c, 6, 7936
7, 72772, Pitch_bend_c, 6, 7776
7, 72776, Pitch_bend_c, 6, 7968
7, 72780, Note_off_c, 6, 70, 64
7, 72836, Pitch_bend_c, 6, 8192
7, 72840, Note_on_c, 6, 70, 119
7, 72840, Pitch_bend_c, 6, 8032
7, 72856, Pitch_bend_c, 6, 8000
7, 72872, Pitch_bend_c, 6, 8032
7, 72880, Pitch_bend_c, 6, 8064
7, 72904, Pitch_bend_c, 6, 7936
7, 72912, Note_off_c, 6, 70, 64
7, 72912, Pitch_bend_c, 6, 8000
7, 72968, Note_on_c, 6, 70, 119
7, 72968, Pitch_bend_c, 6, 8192
7, 72972, Pitch_bend_c, 6, 8032
7, 72976, Pitch_bend_c, 6, 8064
7, 72984, Pitch_bend_c, 6, 8032
7, 72992, Pitch_bend_c, 6, 8064
7, 73016, Pitch_bend_c, 6, 8096
7, 73024, Pitch_bend_c, 6, 7936
7, 73032, Pitch_bend_c, 6, 7744
7, 73040, Note_off_c, 6, 70, 64
7, 73040, Pitch_bend_c, 6, 8032
7, 73088, Pitch_bend_c, 6, 8192
7, 73092, Note_on_c, 6, 70, 119
7, 73096, Pitch_bend_c, 6, 8000
7, 73132, Pitch_bend_c, 6, 8032
7, 73144, Pitch_bend_c, 6, 8064
7, 73156, Pitch_bend_c, 6, 7936
7, 73164, Note_off_c, 6, 70, 64
7, 73164, Pitch_bend_c, 6, 8000
7, 73220, Pitch_bend_c, 6, 8192
7, 73224, Note_on_c, 6, 70, 119
7, 73224, Pitch_bend_c, 6, 8064
7, 73228, Pitch_bend_c, 6, 8032
7, 73232, Pitch_bend_c, 6, 8064
7, 73240, Pitch_bend_c, 6, 8032
7, 73272, Pitch_bend_c, 6, 8064
7, 73284, Pitch_bend_c, 6, 7840
7, 73296, Note_off_c, 6, 70, 64
7, 73296, Pitch_bend_c, 6, 8064
7, 73344, Pitch_bend_c, 6, 8192
7, 73352, Note_on_c, 6, 70, 120
7, 73352, Pitch_bend_c, 6, 7968
7, 73380, Pitch_bend_c, 6, 8000
7, 73392, Pitch_bend_c, 6, 8032
7, 73400, Pitch_bend_c, 6, 8064
7, 73416, Pitch_bend_c, 6, 7904
7, 73420, Pitch_bend_c, 6, 7744
7, 73424, Pitch_bend_c, 6, 8000
7, 73428, Note_off_c, 6, 70, 64
7, 73468, Note_on_c, 6, 70, 119
7, 73480, Pitch_bend_c, 6, 8032
7, 73496, Pitch_bend_c, 6, 8000
7, 73520, Pitch_bend_c, 6, 8032
7, 73532, Pitch_bend_c, 6, 8064
7, 73544, Pitch_bend_c, 6, 8032
7, 73556, Pitch_bend_c, 6, 7776
7, 73564, Note_off_c, 6, 70, 64
7, 73564, Pitch_bend_c, 6, 8000
7, 73600, Pitch_bend_c, 6, 8192
7, 73604, Note_on_c, 6, 70, 119
7, 73604, Pitch_bend_c, 6, 7968
7, 73644, Pitch_bend_c, 6, 8000
7, 73656, Pitch_bend_c, 6, 8032
7, 73664, Pitch_bend_c, 6, 8000
7, 73672, Pitch_bend_c, 6, 7872
7, 73684, Pitch_bend_c, 6, 7712
7, 73688, Note_off_c, 6, 70, 64
7, 73688, Pitch_bend_c, 6, 8000
7, 73872, Pitch_bend_c, 6, 8192
7, 73876, Note_on_c, 6, 70, 98
7, 73876, Pitch_bend_c, 6, 8000
7, 73880, Pitch_bend_c, 6, 8032
7, 73884, Pitch_bend_c, 6, 8064
7, 73888, Pitch_bend_c, 6, 8032
7, 73896, Pitch_bend_c, 6, 8064
7, 73920, Pitch_bend_c, 6, 8032
7, 73928, Pitch_bend_c, 6, 7840
7, 73940, Note_off_c, 6, 70, 64
7, 73940, Pitch_bend_c, 6, 8064
7, 73996, Pitch_bend_c, 6, 8192
7, 74000, Note_on_c, 6, 70, 104
7, 74000, Pitch_bend_c, 6, 7968
7, 74004, Pitch_bend_c, 6, 8000
7, 74008, Pitch_bend_c, 6, 8032
7, 74056, Pitch_bend_c, 6, 7872
7, 74068, Note_off_c, 6, 70, 64
7, 74068, Pitch_bend_c, 6, 8192
7, 74124, Note_on_c, 6, 70, 110
7, 74124, Pitch_bend_c, 6, 7936
7, 74132, Pitch_bend_c, 6, 7968
7, 74136, Pitch_bend_c, 6, 8000
7, 74168, Pitch_bend_c, 6, 7968
7, 74176, Pitch_bend_c, 6, 7840
7, 74184, Pitch_bend_c, 6, 7744
7, 74188, Note_off_c, 6, 70, 64
7, 74188, Pitch_bend_c, 6, 7968
7, 74248, Note_on_c, 6, 70, 118
7, 74248, Pitch_bend_c, 6, 8032
7, 74260, Pitch_bend_c, 6, 8064
7, 74296, Pitch_bend_c, 6, 8096
7, 74300, Pitch_bend_c, 6, 7872
7, 74312, Pitch_bend_c, 6, 7648
7, 74316, Note_off_c, 6, 70, 64
7, 74316, Pitch_bend_c, 6, 8032
7, 74372, Pitch_bend_c, 6, 8192
7, 74376, Note_on_c, 6, 70, 119
7, 74376, Pitch_bend_c, 6, 8032
7, 74392, Pitch_bend_c, 6, 8064
7, 74416, Pitch_bend_c, 6, 8096
7, 74424, Pitch_bend_c, 6, 8000
7, 74440, Pitch_bend_c, 6, 7840
7, 74444, Note_off_c, 6, 70, 64
7, 74444, Pitch_bend_c, 6, 8032
7, 74492, Pitch_bend_c, 6, 8192
7, 74500, Note_on_c, 6, 70, 119
7, 74500, Pitch_bend_c, 6, 8032
7, 74504, Pitch_bend_c, 6, 8064
7, 74508, Pitch_bend_c, 6, 8032
7, 74520, Pitch_bend_c, 6, 8064
7, 74544, Pitch_bend_c, 6, 8096
7, 74552, Pitch_bend_c, 6, 8032
7, 74564, Pitch_bend_c, 6, 7776
7, 74568, Note_off_c, 6, 70, 64
7, 74568, Pitch_bend_c, 6, 8032
7, 74616, Pitch_bend_c, 6, 8192
7, 74620, Note_on_c, 6, 70, 119
7, 74620, Pitch_bend_c, 6, 8064
7, 74684, Pitch_bend_c, 6, 8032
7, 74696, Pitch_bend_c, 6, 7904
7, 74704, Note_off_c, 6, 70, 64
7, 74704, Pitch_bend_c, 6, 8192
7, 74756, Note_on_c, 6, 70, 119
7, 74760, Pitch_bend_c, 6, 8000
7, 74764, Pitch_bend_c, 6, 8032
7, 74768, Pitch_bend_c, 6, 8000
7, 74800, Pitch_bend_c, 6, 8032
7, 74820, Pitch_bend_c, 6, 7872
7, 74828, Note_off_c, 6, 70, 64
7, 74828, Pitch_bend_c, 6, 8032
7, 74880, Note_on_c, 6, 70, 120
7, 74880, Pitch_bend_c, 6, 8000
7, 74904, Pitch_bend_c, 6, 7968
7, 74912, Pitch_bend_c, 6, 8000
7, 74936, Pitch_bend_c, 6, 8064
7, 74944, Pitch_bend_c, 6, 7840
7, 74952, Pitch_bend_c, 6, 7616
7, 74960, Note_off_c, 6, 70, 64
7, 74960, Pitch_bend_c, 6, 7968
7, 75008, Pitch_bend_c, 6, 8192
7, 75012, Note_on_c, 6, 70, 119
7, 75016, Pitch_bend_c, 6, 8064
7, 75036, Pitch_bend_c, 6, 8032
7, 75048, Pitch_bend_c, 6, 8064
7, 75056, Pitch_bend_c, 6, 8096
7, 75068, Pitch_bend_c, 6, 8032
7, 75076, Pitch_bend_c, 6, 7936
7, 75080, Note_off_c, 6, 70, 64
7, 75080, Pitch_bend_c, 6, 8032
7, 75140, Pitch_bend_c, 6, 8192
7, 75144, Note_on_c, 6, 70, 120
7, 75144, Pitch_bend_c, 6, 8032
7, 75192, Pitch_bend_c, 6, 8064
7, 75204, Pitch_bend_c, 6, 8032
7, 75212, Pitch_bend_c, 6, 7712
7, 75224, Pitch_bend_c, 6, 7360
7, 75228, Note_off_c, 6, 70, 64
7, 75228, Pitch_bend_c, 6, 8032
7, 75396, Note_on_c, 6, 70, 95
7, 75400, Pitch_bend_c, 6, 8064
7, 75416, Pitch_bend_c, 6, 8096
7, 75448, Pitch_bend_c, 6, 8064
7, 75456, Pitch_bend_c, 6, 7904
7, 75460, Pitch_bend_c, 6, 8096
7, 75464, Note_off_c, 6, 70, 64
7, 75524, Pitch_bend_c, 6, 8192
7, 75528, Note_on_c, 6, 70, 91
7, 75528, Pitch_bend_c, 6, 8064
7, 75536, Pitch_bend_c, 6, 8096
7, 75576, Pitch_bend_c, 6, 7904
7, 75580, Note_off_c, 6, 70, 64
7, 75580, Pitch_bend_c, 6, 8000
7, 75656, Note_on_c, 6, 70, 113
7, 75656, Pitch_bend_c, 6, 7968
7, 75660, Pitch_bend_c, 6, 8000
7, 75664, Pitch_bend_c, 6, 8032
7, 75676, Pitch_bend_c, 6, 8064
7, 75688, Pitch_bend_c, 6, 8096
7, 75700, Pitch_bend_c, 6, 7872
7, 75708, Pitch_bend_c, 6, 7648
7, 75720, Note_off_c, 6, 70, 64
7, 75720, Pitch_bend_c, 6, 8032
7, 75780, Pitch_bend_c, 6, 8192
7, 75784, Note_on_c, 6, 70, 119
7, 75784, Pitch_bend_c, 6, 8064
7, 75792, Pitch_bend_c, 6, 8096
7, 75824, Pitch_bend_c, 6, 8128
7, 75832, Pitch_bend_c, 6, 8096
7, 75844, Pitch_bend_c, 6, 7680
7, 75856, Note_off_c, 6, 70, 64
7, 75856, Pitch_bend_c, 6, 8096
7, 75904, Pitch_bend_c, 6, 8192
7, 75908, Note_on_c, 6, 70, 119
7, 75908, Pitch_bend_c, 6, 8096
7, 75968, Pitch_bend_c, 6, 8128
7, 75976, Pitch_bend_c, 6, 7776
7, 75988, Pitch_bend_c, 6, 7456
7, 75992, Note_off_c, 6, 70, 64
7, 75992, Pitch_bend_c, 6, 8064
7, 76032, Note_on_c, 6, 70, 119
7, 76032, Pitch_bend_c, 6, 8192
7, 76040, Pitch_bend_c, 6, 8064
7, 76044, Pitch_bend_c, 6, 8032
7, 76048, Pitch_bend_c, 6, 8000
7, 76080, Pitch_bend_c, 6, 8032
7, 76088, Pitch_bend_c, 6, 8064
7, 76100, Pitch_bend_c, 6, 7808
7, 76112, Pitch_bend_c, 6, 7552
7, 76120, Note_off_c, 6, 70, 64
7, 76120, Pitch_bend_c, 6, 8000
7, 76160, Pitch_bend_c, 6, 8192
7, 76164, Note_on_c, 6, 70, 119
7, 76168, Pitch_bend_c, 6, 8064
7, 76184, Pitch_bend_c, 6, 8032
7, 76204, Pitch_bend_c, 6, 8064
7, 76236, Pitch_bend_c, 6, 7808
7, 76244, Pitch_bend_c, 6, 8032
7, 76248, Note_off_c, 6, 70, 64
7, 76292, Pitch_bend_c, 6, 8192
7, 76296, Note_on_c, 6, 70, 119
7, 76296, Pitch_bend_c, 6, 8000
7, 76304, Pitch_bend_c, 6, 8032
7, 76344, Pitch_bend_c, 6, 8064
7, 76360, Pitch_bend_c, 6, 7776
7, 76372, Note_off_c, 6, 70, 64
7, 76372, Pitch_bend_c, 6, 8000
7, 76424, Pitch_bend_c, 6, 8192
7, 76424, Note_on_c, 6, 70, 119
7, 76428, Pitch_bend_c, 6, 8032
7, 76432, Pitch_bend_c, 6, 8000
7, 76436, Pitch_bend_c, 6, 8032
7, 76456, Pitch_bend_c, 6, 8064
7, 76476, Pitch_bend_c, 6, 8096
7, 76488, Pitch_bend_c, 6, 8000
7, 76500, Pitch_bend_c, 6, 8032
7, 76504, Note_off_c, 6, 70, 64
7, 76544, Note_on_c, 6, 70, 120
7, 76600, Pitch_bend_c, 6, 8064
7, 76608, Pitch_bend_c, 6, 8000
7, 76616, Pitch_bend_c, 6, 7936
7, 76628, Note_off_c, 6, 70, 64
7, 76628, Pitch_bend_c, 6, 8192
7, 76676, Note_on_c, 6, 70, 119
7, 76680, Pitch_bend_c, 6, 8032
7, 76684, Pitch_bend_c, 6, 8000
7, 76720, Pitch_bend_c, 6, 8032
7, 76740, Pitch_bend_c, 6, 7840
7, 76748, Pitch_bend_c, 6, 7648
7, 76756, Note_off_c, 6, 70, 64
7, 76756, Pitch_bend_c, 6, 8032
7, 76920, Pitch_bend_c, 6, 8192
7, 76924, Note_on_c, 6, 72, 88
7, 76924, Pitch_bend_c, 6, 8160
7, 76976, Pitch_bend_c, 6, 7968
7, 76984, Note_off_c, 6, 72, 64
7, 76984, Pitch_bend_c, 6, 8224
7, 77048, Pitch_bend_c, 6, 8192
7, 77052, Note_on_c, 6, 72, 98
7, 77052, Pitch_bend_c, 6, 8096
7, 77056, Pitch_bend_c, 6, 8128
7, 77060, Pitch_bend_c, 6, 8192
7, 77064, Pitch_bend_c, 6, 8160
7, 77092, Pitch_bend_c, 6, 8096
7, 77104, Pitch_bend_c, 6, 5952
7, 77112, Note_off_c, 6, 72, 64
7, 77112, Pitch_bend_c, 6, 8160
7, 77188, Pitch_bend_c, 6, 8192
7, 77188, Note_on_c, 6, 72, 100
7, 77192, Pitch_bend_c, 6, 8160
7, 77196, Pitch_bend_c, 6, 8192
7, 77200, Pitch_bend_c, 6, 8160
7, 77208, Pitch_bend_c, 6, 8192
7, 77232, Pitch_bend_c, 6, 8096
7, 77240, Pitch_bend_c, 6, 5056
7, 77244, Note_off_c, 6, 72, 64
7, 77244, Pitch_bend_c, 6, 8192
7, 77320, Note_on_c, 6, 72, 101
7, 77324, Pitch_bend_c, 6, 8128
7, 77328, Pitch_bend_c, 6, 8096
7, 77364, Pitch_bend_c, 6, 8000
7, 77372, Note_off_c, 6, 72, 64
7, 77372, Pitch_bend_c, 6, 8192
7, 77452, Note_on_c, 6, 72, 101
7, 77452, Pitch_bend_c, 6, 8160
7, 77456, Pitch_bend_c, 6, 8128
7, 77460, Pitch_bend_c, 6, 8032
7, 77464, Pitch_bend_c, 6, 8000
7, 77472, Pitch_bend_c, 6, 7968
7, 77496, Pitch_bend_c, 6, 7936
7, 77504, Pitch_bend_c, 6, 7840
7, 77512, Note_off_c, 6, 72, 64
7, 77512, Pitch_bend_c, 6, 8032
7, 77576, Pitch_bend_c, 6, 8192
7, 77584, Note_on_c, 6, 72, 101
7, 77584, Pitch_bend_c, 6, 7936
7, 77616, Pitch_bend_c, 6, 7904
7, 77640, Pitch_bend_c, 6, 7680
7, 77648, Pitch_bend_c, 6, 7936
7, 77652, Note_off_c, 6, 72, 64
7, 77704, Pitch_bend_c, 6, 8192
7, 77712, Note_on_c, 6, 72, 101
7, 77716, Pitch_bend_c, 6, 7904
7, 77740, Pitch_bend_c, 6, 7872
7, 77764, Pitch_bend_c, 6, 7744
7, 77768, Pitch_bend_c, 6, 7616
7, 77784, Note_off_c, 6, 72, 64
7, 77784, Pitch_bend_c, 6, 7936
7, 77824, Pitch_bend_c, 6, 8192
7, 77832, Note_on_c, 6, 72, 101
7, 77832, Pitch_bend_c, 6, 7904
7, 77836, Pitch_bend_c, 6, 7872
7, 77840, Pitch_bend_c, 6, 7904
7, 77880, Pitch_bend_c, 6, 7872
7, 77896, Pitch_bend_c, 6, 7808
7, 77912, Pitch_bend_c, 6, 7584
7, 77920, Pitch_bend_c, 6, 7872
7, 77924, Note_off_c, 6, 72, 64
7, 77960, Pitch_bend_c, 6, 8192
7, 77960, Note_on_c, 6, 72, 103
7, 77968, Pitch_bend_c, 6, 7872
7, 77984, Pitch_bend_c, 6, 7936
7, 78004, Pitch_bend_c, 6, 7872
7, 78012, Pitch_bend_c, 6, 7840
7, 78024, Pitch_bend_c, 6, 7680
7, 78044, Pitch_bend_c, 6, 7744
7, 78056, Pitch_bend_c, 6, 7808
7, 78064, Pitch_bend_c, 6, 7584
7, 78072, Note_off_c, 6, 72, 64
7, 78072, Pitch_bend_c, 6, 7840
7, 78328, Note_on_c, 6, 77, 104
7, 78328, Pitch_bend_c, 6, 8416
7, 78376, Pitch_bend_c, 6, 8480
7, 78384, Pitch_bend_c, 6, 8416
7, 78392, Pitch_bend_c, 6, 8384
7, 78416, Pitch_bend_c, 6, 8288
7, 78424, Pitch_bend_c, 6, 7872
7, 78428, Note_off_c, 6, 77, 64
7, 78428, Pitch_bend_c, 6, 8480
7, 78572, Pitch_bend_c, 6, 8192
7, 78576, Note_on_c, 6, 77, 103
7, 78576, Pitch_bend_c, 6, 8000
7, 78580, Pitch_bend_c, 6, 8096
7, 78584, Pitch_bend_c, 6, 8288
7, 78640, Pitch_bend_c, 6, 8224
7, 78668, Pitch_bend_c, 6, 8064
7, 78680, Note_off_c, 6, 77, 64
7, 78680, Pitch_bend_c, 6, 8288
7, 78716, Pitch_bend_c, 6, 8192
7, 78724, Note_on_c, 6, 75, 111
7, 78724, Pitch_bend_c, 6, 8256
7, 78760, Pitch_bend_c, 6, 8224
7, 78784, Pitch_bend_c, 6, 8192
7, 78812, Pitch_bend_c, 6, 7872
7, 78824, Pitch_bend_c, 6, 7488
7, 78828, Note_off_c, 6, 75, 64
7, 78828, Pitch_bend_c, 6, 8256
7, 78980, Pitch_bend_c, 6, 8192
7, 78984, Note_on_c, 6, 75, 110
7, 78984, Pitch_bend_c, 6, 8128
7, 78988, Pitch_bend_c, 6, 8160
7, 78992, Pitch_bend_c, 6, 8128
7, 79064, Pitch_bend_c, 6, 8160
7, 79076, Pitch_bend_c, 6, 7776
7, 79088, Note_off_c, 6, 75, 64
7, 79088, Pitch_bend_c, 6, 8128
7, 79120, Pitch_bend_c, 6, 8192
7, 79124, Note_on_c, 6, 74, 112
7, 79128, Pitch_bend_c, 6, 8256
7, 79196, Pitch_bend_c, 6, 8192
7, 79216, Pitch_bend_c, 6, 8064
7, 79220, Note_off_c, 6, 74, 64
7, 79220, Pitch_bend_c, 6, 8192
7, 79372, Note_on_c, 6, 74, 111
7, 79480, Note_off_c, 6, 74, 64
7, 79480, Pitch_bend_c, 6, 8320
7, 79504, Pitch_bend_c, 6, 8192
7, 79512, Note_on_c, 6, 72, 101
7, 79512, Pitch_bend_c, 6, 8416
7, 79516, Pitch_bend_c, 6, 8320
7, 79528, Pitch_bend_c, 6, 8288
7, 79540, Pitch_bend_c, 6, 8320
7, 79576, Pitch_bend_c, 6, 8288
7, 79584, Pitch_bend_c, 6, 8224
7, 79592, Pitch_bend_c, 6, 8192
7, 79604, Pitch_bend_c, 6, 8128
7, 79612, Pitch_bend_c, 6, 7584
7, 79616, Note_off_c, 6, 72, 64
7, 79616, Pitch_bend_c, 6, 8288
7, 79728, Pitch_bend_c, 6, 8192
7, 79732, Note_on_c, 6, 72, 101
7, 79736, Pitch_bend_c, 6, 8160
7, 79740, Pitch_bend_c, 6, 8192
7, 79752, Pitch_bend_c, 6, 8160
7, 79772, Pitch_bend_c, 6, 8128
7, 79784, Pitch_bend_c, 6, 8096
7, 79796, Pitch_bend_c, 6, 8000
7, 79804, Pitch_bend_c, 6, 7968
7, 79816, Pitch_bend_c, 6, 7936
7, 79824, Pitch_bend_c, 6, 7968
7, 79836, Pitch_bend_c, 6, 7680
7, 79844, Pitch_bend_c, 6, 8000
7, 79848, Note_off_c, 6, 72, 64
7, 79888, Pitch_bend_c, 6, 8192
7, 79892, Note_on_c, 6, 58, 100
7, 79892, Pitch_bend_c, 6, 7968
7, 79896, Pitch_bend_c, 6, 8192
7, 79956, Pitch_bend_c, 6, 8160
7, 79976, Pitch_bend_c, 6, 8128
7, 79988, Note_off_c, 6, 58, 64
7, 79988, Pitch_bend_c, 6, 8192
7, 80504, Note_on_c, 6, 61, 111
7, 80504, Pitch_bend_c, 6, 8768
7, 80508, Pitch_bend_c, 6, 8128
7, 80536, Pitch_bend_c, 6, 8096
7, 80568, Pitch_bend_c, 6, 8064
7, 80600, Pitch_bend_c, 6, 8032
7, 80612, Pitch_bend_c, 6, 8000
7, 80620, Pitch_bend_c, 6, 7936
7, 80632, Pitch_bend_c, 6, 7968
7, 80640, Pitch_bend_c, 6, 8096
7, 80644, Note_off_c, 6, 61, 64
7, 80656, Pitch_bend_c, 6, 8192
7, 80660, Note_on_c, 6, 62, 103
7, 80660, Pitch_bend_c, 6, 8480
7, 80664, Pitch_bend_c, 6, 8000
7, 80668, Pitch_bend_c, 6, 7968
7, 80680, Pitch_bend_c, 6, 7936
7, 80724, Pitch_bend_c, 6, 7904
7, 80744, Pitch_bend_c, 6, 7872
7, 80752, Pitch_bend_c, 6, 7840
7, 80784, Pitch_bend_c, 6, 7808
7, 80796, Pitch_bend_c, 6, 7840
7, 80808, Pitch_bend_c, 6, 7712
7, 80828, Pitch_bend_c, 6, 7744
7, 80848, Pitch_bend_c, 6, 7840
7, 80876, Pitch_bend_c, 6, 7808
7, 80888, Pitch_bend_c, 6, 7776
7, 80952, Pitch_bend_c, 6, 7808
7, 80960, Pitch_bend_c, 6, 7840
7, 80984, Pitch_bend_c, 6, 7808
7, 81000, Pitch_bend_c, 6, 7712
7, 81008, Note_off_c, 6, 62, 64
7, 81008, Pitch_bend_c, 6, 7776
7, 81020, Note_on_c, 6, 65, 120
7, 81020, Pitch_bend_c, 6, 8160
7, 81024, Pitch_bend_c, 6, 8000
7, 81028, Pitch_bend_c, 6, 7968
7, 81032, Pitch_bend_c, 6, 7936
7, 81108, Pitch_bend_c, 6, 7968
7, 81124, Pitch_bend_c, 6, 8000
7, 81132, Pitch_bend_c, 6, 7904
7, 81144, Pitch_bend_c, 6, 7808
7, 81152, Note_off_c, 6, 65, 64
7, 81152, Pitch_bend_c, 6, 7936
7, 81400, Pitch_bend_c, 6, 8192
7, 81404, Note_on_c, 6, 58, 107
7, 81404, Pitch_bend_c, 6, 8160
7, 81480, Pitch_bend_c, 6, 8128
7, 81500, Pitch_bend_c, 6, 8096
7, 81512, Pitch_bend_c, 6, 7808
7, 81524, Pitch_bend_c, 6, 7488
7, 81528, Note_off_c, 6, 58, 64
7, 81528, Pitch_bend_c, 6, 8128
7, 81792, Pitch_bend_c, 6, 8192
7, 82040, Note_on_c, 6, 61, 109
7, 82044, Pitch_bend_c, 6, 8608
7, 82048, Pitch_bend_c, 6, 8064
7, 82052, Pitch_bend_c, 6, 8096
7, 82056, Pitch_bend_c, 6, 8128
7, 82064, Pitch_bend_c, 6, 8064
7, 82084, Pitch_bend_c, 6, 8032
7, 82116, Pitch_bend_c, 6, 8000
7, 82128, Pitch_bend_c, 6, 7968
7, 82148, Pitch_bend_c, 6, 7936
7, 82156, Pitch_bend_c, 6, 7872
7, 82168, Pitch_bend_c, 6, 8000
7, 82180, Pitch_bend_c, 6, 8128
7, 82184, Note_off_c, 6, 61, 64
7, 82192, Pitch_bend_c, 6, 8192
7, 82196, Note_on_c, 6, 62, 100
7, 82200, Pitch_bend_c, 6, 7872
7, 82204, Pitch_bend_c, 6, 7936
7, 82236, Pitch_bend_c, 6, 7904
7, 82276, Pitch_bend_c, 6, 7872
7, 82320, Pitch_bend_c, 6, 7840
7, 82412, Pitch_bend_c, 6, 7808
7, 82456, Pitch_bend_c, 6, 7840
7, 82504, Pitch_bend_c, 6, 7808
7, 82520, Pitch_bend_c, 6, 7776
7, 82528, Pitch_bend_c, 6, 7648
7, 82536, Note_off_c, 6, 62, 64
7, 82536, Pitch_bend_c, 6, 7840
7, 82556, Pitch_bend_c, 6, 8192
7, 82560, Note_on_c, 6, 65, 120
7, 82568, Pitch_bend_c, 6, 8032
7, 82572, Pitch_bend_c, 6, 8000
7, 82588, Pitch_bend_c, 6, 7968
7, 82616, Pitch_bend_c, 6, 7936
7, 82636, Pitch_bend_c, 6, 7968
7, 82660, Pitch_bend_c, 6, 8000
7, 82668, Pitch_bend_c, 6, 7936
7, 82680, Pitch_bend_c, 6, 7744
7, 82692, Pitch_bend_c, 6, 7584
7, 82696, Note_off_c, 6, 65, 64
7, 82696, Pitch_bend_c, 6, 7968
7, 82940, Pitch_bend_c, 6, 8192
7, 82948, Note_on_c, 6, 63, 104
7, 82952, Pitch_bend_c, 6, 7904
7, 82956, Pitch_bend_c, 6, 7872
7, 83040, Pitch_bend_c, 6, 7840
7, 83048, Pitch_bend_c, 6, 7744
7, 83060, Pitch_bend_c, 6, 7552
7, 83072, Pitch_bend_c, 6, 7264
7, 83080, Note_off_c, 6, 63, 64
7, 83080, Pitch_bend_c, 6, 7872
7, 83572, Pitch_bend_c, 6, 8192
7, 83576, Note_on_c, 6, 66, 117
7, 83576, Pitch_bend_c, 6, 8064
7, 83580, Pitch_bend_c, 6, 8032
7, 83584, Pitch_bend_c, 6, 7968
7, 83588, Pitch_bend_c, 6, 8000
7, 83600, Pitch_bend_c, 6, 8032
7, 83620, Pitch_bend_c, 6, 8064
7, 83628, Pitch_bend_c, 6, 8032
7, 83640, Pitch_bend_c, 6, 7904
7, 83652, Pitch_bend_c, 6, 7712
7, 83660, Pitch_bend_c, 6, 7680
7, 83680, Pitch_bend_c, 6, 7776
7, 83688, Pitch_bend_c, 6, 8192
7, 83704, Note_off_c, 6, 66, 64
7, 83704, Pitch_bend_c, 6, 8384
7, 83720, Pitch_bend_c, 6, 8192
7, 83724, Note_on_c, 6, 67, 107
7, 83728, Pitch_bend_c, 6, 8032
7, 83736, Pitch_bend_c, 6, 8064
7, 83744, Pitch_bend_c, 6, 8032
7, 83808, Pitch_bend_c, 6, 8000
7, 83852, Pitch_bend_c, 6, 8032
7, 83872, Pitch_bend_c, 6, 8064
7, 83884, Pitch_bend_c, 6, 8096
7, 83904, Pitch_bend_c, 6, 8064
7, 83912, Pitch_bend_c, 6, 8032
7, 83928, Pitch_bend_c, 6, 7936
7, 83936, Pitch_bend_c, 6, 7872
7, 83944, Pitch_bend_c, 6, 7840
7, 83968, Pitch_bend_c, 6, 7872
7, 83976, Pitch_bend_c, 6, 7904
7, 83988, Pitch_bend_c, 6, 7936
7, 83996, Pitch_bend_c, 6, 7968
7, 84008, Pitch_bend_c, 6, 8000
7, 84016, Pitch_bend_c, 6, 8032
7, 84048, Pitch_bend_c, 6, 8000
7, 84072, Pitch_bend_c, 6, 7872
7, 84084, Note_off_c, 6, 67, 64
7, 84084, Pitch_bend_c, 6, 7968
7, 84100, Pitch_bend_c, 6, 8192
7, 84104, Note_on_c, 6, 70, 117
7, 84104, Pitch_bend_c, 6, 8128
7, 84144, Pitch_bend_c, 6, 8096
7, 84152, Pitch_bend_c, 6, 7840
7, 84188, Pitch_bend_c, 6, 7872
7, 84200, Pitch_bend_c, 6, 8128
7, 84208, Pitch_bend_c, 6, 8032
7, 84220, Pitch_bend_c, 6, 7904
7, 84228, Note_off_c, 6, 70, 64
7, 84452, Pitch_bend_c, 6, 8192
7, 84456, Note_on_c, 6, 58, 104
7, 84456, Pitch_bend_c, 6, 8096
7, 84460, Pitch_bend_c, 6, 8160
7, 84520, Pitch_bend_c, 6, 8128
7, 84528, Pitch_bend_c, 6, 8192
7, 84548, Pitch_bend_c, 6, 8160
7, 84560, Pitch_bend_c, 6, 8128
7, 84568, Pitch_bend_c, 6, 8064
7, 84580, Pitch_bend_c, 6, 8032
7, 84588, Note_off_c, 6, 58, 64
7, 84588, Pitch_bend_c, 6, 8192
7, 85112, Note_on_c, 6, 61, 113
7, 85112, Pitch_bend_c, 6, 8160
7, 85116, Pitch_bend_c, 6, 7840
7, 85120, Pitch_bend_c, 6, 7392
7, 85128, Pitch_bend_c, 6, 7104
7, 85136, Pitch_bend_c, 6, 7328
7, 85148, Pitch_bend_c, 6, 7520
7, 85160, Pitch_bend_c, 6, 7744
7, 85168, Pitch_bend_c, 6, 7968
7, 85176, Pitch_bend_c, 6, 8000
7, 85188, Pitch_bend_c, 6, 8032
7, 85220, Pitch_bend_c, 6, 8000
7, 85228, Pitch_bend_c, 6, 8064
7, 85240, Note_off_c, 6, 61, 64
7, 85240, Pitch_bend_c, 6, 8128
7, 85260, Pitch_bend_c, 6, 8192
7, 85264, Note_on_c, 6, 62, 93
7, 85268, Pitch_bend_c, 6, 7552
7, 85272, Pitch_bend_c, 6, 7936
7, 85316, Pitch_bend_c, 6, 7904
7, 85336, Pitch_bend_c, 6, 7872
7, 85356, Pitch_bend_c, 6, 7840
7, 85412, Pitch_bend_c, 6, 7872
7, 85420, Pitch_bend_c, 6, 7904
7, 85432, Pitch_bend_c, 6, 7936
7, 85448, Pitch_bend_c, 6, 7968
7, 85464, Pitch_bend_c, 6, 8000
7, 85492, Pitch_bend_c, 6, 8032
7, 85544, Pitch_bend_c, 6, 8000
7, 85576, Pitch_bend_c, 6, 7968
7, 85584, Pitch_bend_c, 6, 7936
7, 85596, Note_off_c, 6, 62, 64
7, 85596, Pitch_bend_c, 6, 8000
7, 85632, Pitch_bend_c, 6, 8192
7, 85640, Note_on_c, 6, 65, 105
7, 85640, Pitch_bend_c, 6, 8096
7, 85656, Pitch_bend_c, 6, 8064
7, 85668, Pitch_bend_c, 6, 7968
7, 85676, Pitch_bend_c, 6, 7936
7, 85688, Pitch_bend_c, 6, 7904
7, 85708, Pitch_bend_c, 6, 7936
7, 85740, Pitch_bend_c, 6, 7968
7, 85784, Note_off_c, 6, 65, 64
7, 86020, Pitch_bend_c, 6, 8192
7, 86024, Note_on_c, 6, 58, 97
7, 86088, Pitch_bend_c, 6, 8224
7, 86100, Pitch_bend_c, 6, 8256
7, 86112, Pitch_bend_c, 6, 8224
7, 86120, Pitch_bend_c, 6, 8192
7, 86128, Note_off_c, 6, 58, 64
7, 86632, Note_on_c, 6, 61, 113
7, 86636, Pitch_bend_c, 6, 8384
7, 86640, Pitch_bend_c, 6, 8064
7, 86644, Pitch_bend_c, 6, 8128
7, 86648, Pitch_bend_c, 6, 8064
7, 86668, Pitch_bend_c, 6, 8032
7, 86680, Pitch_bend_c, 6, 7968
7, 86700, Pitch_bend_c, 6, 8000
7, 86712, Pitch_bend_c, 6, 8032
7, 86724, Pitch_bend_c, 6, 8064
7, 86744, Pitch_bend_c, 6, 8032
7, 86752, Pitch_bend_c, 6, 8128
7, 86764, Pitch_bend_c, 6, 8384
7, 86768, Note_off_c, 6, 61, 64
7, 86776, Pitch_bend_c, 6, 8192
7, 86780, Note_on_c, 6, 62, 95
7, 86788, Pitch_bend_c, 6, 7968
7, 86804, Pitch_bend_c, 6, 7936
7, 86824, Pitch_bend_c, 6, 7904
7, 86844, Pitch_bend_c, 6, 7872
7, 86864, Pitch_bend_c, 6, 7840
7, 86872, Pitch_bend_c, 6, 7808
7, 86888, Pitch_bend_c, 6, 7840
7, 86916, Pitch_bend_c, 6, 7936
7, 86924, Pitch_bend_c, 6, 8000
7, 86936, Pitch_bend_c, 6, 8096
7, 86948, Pitch_bend_c, 6, 8192
7, 86956, Pitch_bend_c, 6, 8256
7, 86988, Pitch_bend_c, 6, 8192
7, 87000, Pitch_bend_c, 6, 8096
7, 87008, Pitch_bend_c, 6, 8000
7, 87016, Pitch_bend_c, 6, 7872
7, 87032, Pitch_bend_c, 6, 7808
7, 87064, Pitch_bend_c, 6, 7840
7, 87124, Pitch_bend_c, 6, 7808
7, 87136, Pitch_bend_c, 6, 7776
7, 87156, Pitch_bend_c, 6, 7648
7, 87160, Note_off_c, 6, 62, 64
7, 87160, Note_on_c, 6, 65, 118
7, 87160, Pitch_bend_c, 6, 8320
7, 87164, Pitch_bend_c, 6, 8128
7, 87168, Pitch_bend_c, 6, 8096
7, 87188, Pitch_bend_c, 6, 8128
7, 87196, Pitch_bend_c, 6, 8096
7, 87208, Pitch_bend_c, 6, 8128
7, 87216, Pitch_bend_c, 6, 8160
7, 87228, Pitch_bend_c, 6, 8064
7, 87240, Pitch_bend_c, 6, 8000
7, 87248, Pitch_bend_c, 6, 7936
7, 87256, Pitch_bend_c, 6, 7840
7, 87268, Pitch_bend_c, 6, 7872
7, 87276, Pitch_bend_c, 6, 7904
7, 87288, Pitch_bend_c, 6, 7872
7, 87300, Pitch_bend_c, 6, 7840
7, 87308, Pitch_bend_c, 6, 7776
7, 87312, Note_off_c, 6, 65, 64
7, 87312, Pitch_bend_c, 6, 7872
7, 87544, Pitch_bend_c, 6, 8192
7, 87548, Note_on_c, 6, 65, 98
7, 87548, Pitch_bend_c, 6, 7680
7, 87552, Pitch_bend_c, 6, 7712
7, 87556, Pitch_bend_c, 6, 7872
7, 87560, Pitch_bend_c, 6, 7904
7, 87568, Pitch_bend_c, 6, 7872
7, 87600, Pitch_bend_c, 6, 7840
7, 87632, Pitch_bend_c, 6, 7808
7, 87652, Pitch_bend_c, 6, 7776
7, 87672, Pitch_bend_c, 6, 7584
7, 87684, Pitch_bend_c, 6, 7392
7, 87692, Note_off_c, 6, 65, 64
7, 87692, Pitch_bend_c, 6, 7808
7, 88168, Pitch_bend_c, 6, 8192
7, 88172, Note_on_c, 6, 68, 115
7, 88176, Pitch_bend_c, 6, 8032
7, 88204, Pitch_bend_c, 6, 8000
7, 88256, Pitch_bend_c, 6, 7968
7, 88288, Pitch_bend_c, 6, 8000
7, 88308, Pitch_bend_c, 6, 8064
7, 88312, Note_off_c, 6, 68, 64
7, 88328, Pitch_bend_c, 6, 8192
7, 88332, Note_on_c, 6, 69, 112
7, 88336, Pitch_bend_c, 6, 8064
7, 88360, Pitch_bend_c, 6, 8096
7, 88396, Pitch_bend_c, 6, 8064
7, 88416, Pitch_bend_c, 6, 8032
7, 88428, Pitch_bend_c, 6, 8000
7, 88436, Pitch_bend_c, 6, 7968
7, 88468, Pitch_bend_c, 6, 8032
7, 88476, Pitch_bend_c, 6, 8096
7, 88488, Pitch_bend_c, 6, 8160
7, 88520, Pitch_bend_c, 6, 8128
7, 88528, Pitch_bend_c, 6, 8064
7, 88540, Pitch_bend_c, 6, 8032
7, 88560, Pitch_bend_c, 6, 8096
7, 88568, Pitch_bend_c, 6, 8192
7, 88584, Pitch_bend_c, 6, 8352
7, 88592, Pitch_bend_c, 6, 8544
7, 88604, Pitch_bend_c, 6, 8640
7, 88612, Pitch_bend_c, 6, 8672
7, 88632, Pitch_bend_c, 6, 8608
7, 88644, Pitch_bend_c, 6, 8480
7, 88652, Pitch_bend_c, 6, 8320
7, 88664, Pitch_bend_c, 6, 8128
7, 88676, Pitch_bend_c, 6, 7808
7, 88680, Note_off_c, 6, 69, 64
7, 88680, Pitch_bend_c, 6, 8608
7, 88708, Pitch_bend_c, 6, 8192
7, 88712, Note_on_c, 6, 72, 113
7, 88712, Pitch_bend_c, 6, 8096
7, 88716, Pitch_bend_c, 6, 8128
7, 88804, Pitch_bend_c, 6, 8160
7, 88832, Pitch_bend_c, 6, 8032
7, 88840, Note_off_c, 6, 72, 64
7, 88840, Pitch_bend_c, 6, 8192
7, 89064, Note_on_c, 6, 58, 104
7, 89064, Pitch_bend_c, 6, 8224
7, 89068, Pitch_bend_c, 6, 8192
7, 89072, Pitch_bend_c, 6, 8128
7, 89076, Pitch_bend_c, 6, 8064
7, 89080, Pitch_bend_c, 6, 7968
7, 89088, Pitch_bend_c, 6, 8032
7, 89100, Pitch_bend_c, 6, 8064
7, 89112, Pitch_bend_c, 6, 8128
7, 89120, Pitch_bend_c, 6, 8192
7, 89144, Pitch_bend_c, 6, 8224
7, 89152, Pitch_bend_c, 6, 8192
7, 89160, Pitch_bend_c, 6, 8064
7, 89176, Pitch_bend_c, 6, 8032
7, 89192, Pitch_bend_c, 6, 8064
7, 89204, Pitch_bend_c, 6, 8192
7, 89224, Pitch_bend_c, 6, 8128
7, 89232, Note_off_c, 6, 58, 64
7, 89464, Pitch_bend_c, 6, 8192
7, 89472, Note_on_c, 6, 62, 109
7, 89472, Pitch_bend_c, 6, 8768
7, 89476, Pitch_bend_c, 6, 8160
7, 89480, Pitch_bend_c, 6, 8192
7, 89520, Pitch_bend_c, 6, 8224
7, 89528, Pitch_bend_c, 6, 8256
7, 89552, Pitch_bend_c, 6, 8224
7, 89560, Pitch_bend_c, 6, 8192
7, 89612, Pitch_bend_c, 6, 8160
7, 89624, Pitch_bend_c, 6, 8096
7, 89632, Pitch_bend_c, 6, 8032
7, 89656, Pitch_bend_c, 6, 8000
7, 89668, Pitch_bend_c, 6, 7872
7, 89676, Pitch_bend_c, 6, 7744
7, 89680, Pitch_bend_c, 6, 8096
7, 89684, Note_off_c, 6, 62, 64
7, 89868, Pitch_bend_c, 6, 8192
7, 89872, Note_on_c, 6, 63, 111
7, 89880, Pitch_bend_c, 6, 8160
7, 89908, Pitch_bend_c, 6, 8192
7, 89936, Pitch_bend_c, 6, 8256
7, 89992, Pitch_bend_c, 6, 8224
7, 90000, Pitch_bend_c, 6, 8192
7, 90012, Pitch_bend_c, 6, 8160
7, 90024, Pitch_bend_c, 6, 8128
7, 90032, Pitch_bend_c, 6, 8096
7, 90040, Pitch_bend_c, 6, 8064
7, 90052, Pitch_bend_c, 6, 7968
7, 90064, Pitch_bend_c, 6, 7872
7, 90072, Note_off_c, 6, 63, 64
7, 90072, Pitch_bend_c, 6, 8096
7, 90244, Pitch_bend_c, 6, 8192
7, 90248, Note_on_c, 6, 64, 121
7, 90376, Pitch_bend_c, 6, 8160
7, 90428, Pitch_bend_c, 6, 8064
7, 90440, Pitch_bend_c, 6, 7968
7, 90448, Note_off_c, 6, 64, 64
7, 90448, Pitch_bend_c, 6, 8192
7, 90616, Note_on_c, 6, 65, 120
7, 90616, Pitch_bend_c, 6, 8288
7, 90624, Pitch_bend_c, 6, 8256
7, 90660, Pitch_bend_c, 6, 8224
7, 90680, Pitch_bend_c, 6, 8192
7, 90700, Pitch_bend_c, 6, 8160
7, 90712, Pitch_bend_c, 6, 8096
7, 90752, Pitch_bend_c, 6, 8128
7, 90760, Pitch_bend_c, 6, 8160
7, 90772, Pitch_bend_c, 6, 8128
7, 90784, Pitch_bend_c, 6, 8096
7, 90792, Pitch_bend_c, 6, 8000
7, 90804, Pitch_bend_c, 6, 7808
7, 90812, Pitch_bend_c, 6, 7712
7, 90824, Pitch_bend_c, 6, 7552
7, 90836, Note_off_c, 6, 65, 64
7, 90836, Pitch_bend_c, 6, 8096
7, 90864, Pitch_bend_c, 6, 8192
7, 90868, Note_on_c, 6, 67, 113
7, 90932, Pitch_bend_c, 6, 8128
7, 90944, Pitch_bend_c, 6, 8096
7, 90952, Pitch_bend_c, 6, 8032
7, 90984, Pitch_bend_c, 6, 7840
7, 90996, Pitch_bend_c, 6, 7424
7, 91000, Pitch_bend_c, 6, 8032
7, 91004, Note_off_c, 6, 67, 64
7, 91012, Pitch_bend_c, 6, 8192
7, 91016, Note_on_c, 6, 69, 119
7, 91024, Pitch_bend_c, 6, 8224
7, 91048, Pitch_bend_c, 6, 8256
7, 91060, Pitch_bend_c, 6, 8288
7, 91080, Pitch_bend_c, 6, 8256
7, 91112, Pitch_bend_c, 6, 8288
7, 91204, Pitch_bend_c, 6, 8256
7, 91228, Note_off_c, 6, 69, 64
7, 91248, Pitch_bend_c, 6, 8192
7, 91252, Note_on_c, 6, 70, 122
7, 91252, Pitch_bend_c, 6, 8288
7, 91272, Pitch_bend_c, 6, 8256
7, 91304, Pitch_bend_c, 6, 8224
7, 91324, Pitch_bend_c, 6, 8192
7, 91368, Pitch_bend_c, 6, 8160
7, 91388, Pitch_bend_c, 6, 8000
7, 91400, Note_off_c, 6, 70, 64
7, 91400, Pitch_bend_c, 6, 8192
7, 91768, Note_on_c, 6, 77, 109
7, 91768, Pitch_bend_c, 6, 8576
7, 91772, Pitch_bend_c, 6, 8480
7, 91776, Pitch_bend_c, 6, 8416
7, 91780, Pitch_bend_c, 6, 8384
7, 91784, Pitch_bend_c, 6, 8320
7, 91800, Pitch_bend_c, 6, 8384
7, 91880, Pitch_bend_c, 6, 8320
7, 91900, Pitch_bend_c, 6, 8288
7, 91944, Pitch_bend_c, 6, 8224
7, 91976, Pitch_bend_c, 6, 8192
7, 92024, Pitch_bend_c, 6, 8160
7, 92108, Pitch_bend_c, 6, 8096
7, 92128, Pitch_bend_c, 6, 8160
7, 92288, Pitch_bend_c, 6, 8096
7, 92296, Pitch_bend_c, 6, 8160
7, 92360, Pitch_bend_c, 6, 8096
7, 92432, Pitch_bend_c, 6, 8064
7, 92460, Pitch_bend_c, 6, 8000
7, 92628, Pitch_bend_c, 6, 8064
7, 92728, Pitch_bend_c, 6, 8096
7, 93020, Pitch_bend_c, 6, 8160
7, 93032, Pitch_bend_c, 6, 8096
7, 93044, Pitch_bend_c, 6, 8064
7, 93072, Pitch_bend_c, 6, 8096
7, 93084, Pitch_bend_c, 6, 8160
7, 93156, Pitch_bend_c, 6, 8096
7, 93188, Pitch_bend_c, 6, 8160
7, 93196, Pitch_bend_c, 6, 8192
7, 93208, Pitch_bend_c, 6, 8160
7, 93240, Pitch_bend_c, 6, 8096
7, 93272, Pitch_bend_c, 6, 8064
7, 93304, Pitch_bend_c, 6, 8192
7, 93684, Note_off_c, 6, 77, 64
7, 95232, End_track
8, 0, Start_track
8, 0, Title_t, "TENOR SAX"
8, 2048, Program_c, 7, 66
8, 2052, Control_c, 7, 7, 105
8, 2052, Control_c, 7, 10, 32
8, 2052, Control_c, 7, 11, 127
8, 2056, Control_c, 7, 91, 57
8, 2056, Control_c, 7, 93, 0
8, 4852, Note_on_c, 7, 53, 102
8, 4852, Pitch_bend_c, 7, 8096
8, 4856, Control_c, 7, 1, 0
8, 4856, Pitch_bend_c, 7, 8128
8, 4892, Pitch_bend_c, 7, 8096
8, 4916, Pitch_bend_c, 7, 8064
8, 4932, Pitch_bend_c, 7, 7776
8, 4940, Pitch_bend_c, 7, 7520
8, 4944, Note_off_c, 7, 53, 64
8, 4944, Pitch_bend_c, 7, 8128
8, 4984, Pitch_bend_c, 7, 8192
8, 4988, Note_on_c, 7, 53, 100
8, 4992, Pitch_bend_c, 7, 8096
8, 5040, Pitch_bend_c, 7, 8064
8, 5072, Pitch_bend_c, 7, 8032
8, 5092, Pitch_bend_c, 7, 7904
8, 5100, Pitch_bend_c, 7, 7808
8, 5112, Note_off_c, 7, 53, 64
8, 5112, Pitch_bend_c, 7, 8096
8, 5236, Pitch_bend_c, 7, 8192
8, 5240, Note_on_c, 7, 53, 98
8, 5240, Pitch_bend_c, 7, 8064
8, 5304, Pitch_bend_c, 7, 8032
8, 5312, Pitch_bend_c, 7, 7936
8, 5320, Pitch_bend_c, 7, 7680
8, 5336, Note_off_c, 7, 53, 64
8, 5336, Pitch_bend_c, 7, 8064
8, 5384, Pitch_bend_c, 7, 8192
8, 5392, Note_on_c, 7, 53, 106
8, 5392, Pitch_bend_c, 7, 8064
8, 5400, Pitch_bend_c, 7, 8096
8, 5440, Pitch_bend_c, 7, 8064
8, 5464, Pitch_bend_c, 7, 8032
8, 5472, Pitch_bend_c, 7, 8000
8, 5492, Pitch_bend_c, 7, 7808
8, 5508, Pitch_bend_c, 7, 7488
8, 5516, Pitch_bend_c, 7, 7200
8, 5520, Note_off_c, 7, 53, 64
8, 5520, Pitch_bend_c, 7, 8032
8, 5632, Pitch_bend_c, 7, 8192
8, 5640, Note_on_c, 7, 53, 105
8, 5640, Pitch_bend_c, 7, 8064
8, 5644, Pitch_bend_c, 7, 8096
8, 5688, Pitch_bend_c, 7, 8064
8, 5700, Pitch_bend_c, 7, 8032
8, 5708, Pitch_bend_c, 7, 8000
8, 5720, Pitch_bend_c, 7, 7712
8, 5732, Pitch_bend_c, 7, 7424
8, 5736, Note_off_c, 7, 53, 64
8, 5736, Pitch_bend_c, 7, 8064
8, 5788, Pitch_bend_c, 7, 8192
8, 5792, Note_on_c, 7, 53, 107
8, 5792, Pitch_bend_c, 7, 8096
8, 5800, Pitch_bend_c, 7, 8128
8, 5832, Pitch_bend_c, 7, 8096
8, 5844, Pitch_bend_c, 7, 8032
8, 5852, Pitch_bend_c, 7, 7808
8, 5864, Pitch_bend_c, 7, 7584
8, 5876, Note_off_c, 7, 53, 64
8, 5876, Pitch_bend_c, 7, 8096
8, 6012, Pitch_bend_c, 7, 8192
8, 6016, Note_on_c, 7, 53, 100
8, 6020, Pitch_bend_c, 7, 8000
8, 6024, Pitch_bend_c, 7, 8128
8, 6028, Pitch_bend_c, 7, 8160
8, 6056, Pitch_bend_c, 7, 8128
8, 6072, Pitch_bend_c, 7, 8096
8, 6080, Pitch_bend_c, 7, 7968
8, 6088, Pitch_bend_c, 7, 7648
8, 6096, Note_off_c, 7, 53, 64
8, 6096, Pitch_bend_c, 7, 8160
8, 6156, Pitch_bend_c, 7, 8192
8, 6160, Note_on_c, 7, 46, 104
8, 6168, Pitch_bend_c, 7, 8384
8, 6180, Pitch_bend_c, 7, 8352
8, 6188, Pitch_bend_c, 7, 8384
8, 6200, Pitch_bend_c, 7, 8416
8, 6228, Pitch_bend_c, 7, 8384
8, 6244, Pitch_bend_c, 7, 8352
8, 6252, Pitch_bend_c, 7, 8288
8, 6264, Pitch_bend_c, 7, 8192
8, 6272, Pitch_bend_c, 7, 8128
8, 6284, Pitch_bend_c, 7, 7936
8, 6296, Pitch_bend_c, 7, 7776
8, 6304, Pitch_bend_c, 7, 8288
8, 6308, Note_off_c, 7, 46, 64
8, 6772, Pitch_bend_c, 7, 8192
8, 6776, Note_on_c, 7, 49, 120
8, 6780, Pitch_bend_c, 7, 7968
8, 6784, Pitch_bend_c, 7, 8000
8, 6788, Pitch_bend_c, 7, 7968
8, 6792, Pitch_bend_c, 7, 7936
8, 6808, Pitch_bend_c, 7, 8192
8, 6876, Pitch_bend_c, 7, 7936
8, 6888, Pitch_bend_c, 7, 7904
8, 6900, Pitch_bend_c, 7, 7936
8, 6908, Pitch_bend_c, 7, 7968
8, 6916, Note_off_c, 7, 49, 64
8, 6920, Note_on_c, 7, 49, 101
8, 6920, Pitch_bend_c, 7, 11840
8, 6924, Pitch_bend_c, 7, 11904
8, 6932, Pitch_bend_c, 7, 12000
8, 6968, Pitch_bend_c, 7, 12032
8, 6996, Pitch_bend_c, 7, 12000
8, 7008, Pitch_bend_c, 7, 12032
8, 7032, Pitch_bend_c, 7, 12064
8, 7048, Pitch_bend_c, 7, 12032
8, 7060, Pitch_bend_c, 7, 12000
8, 7080, Pitch_bend_c, 7, 11936
8, 7112, Pitch_bend_c, 7, 12000
8, 7124, Pitch_bend_c, 7, 12128
8, 7132, Pitch_bend_c, 7, 12288
8, 7144, Pitch_bend_c, 7, 12416
8, 7152, Pitch_bend_c, 7, 12480
8, 7176, Pitch_bend_c, 7, 12416
8, 7216, Pitch_bend_c, 7, 12448
8, 7248, Pitch_bend_c, 7, 12416
8, 7256, Pitch_bend_c, 7, 12320
8, 7272, Pitch_bend_c, 7, 12160
8, 7280, Pitch_bend_c, 7, 12000
8, 7288, Note_off_c, 7, 49, 64
8, 7288, Pitch_bend_c, 7, 12416
8, 7300, Pitch_bend_c, 7, 8192
8, 7304, Note_on_c, 7, 53, 111
8, 7304, Pitch_bend_c, 7, 8064
8, 7308, Pitch_bend_c, 7, 8128
8, 7324, Pitch_bend_c, 7, 8096
8, 7336, Pitch_bend_c, 7, 8128
8, 7368, Pitch_bend_c, 7, 8096
8, 7400, Pitch_bend_c, 7, 8064
8, 7408, Pitch_bend_c, 7, 8096
8, 7416, Pitch_bend_c, 7, 8064
8, 7440, Pitch_bend_c, 7, 8032
8, 7448, Pitch_bend_c, 7, 7936
8, 7460, Pitch_bend_c, 7, 7776
8, 7468, Pitch_bend_c, 7, 7584
8, 7480, Note_off_c, 7, 53, 64
8, 7480, Pitch_bend_c, 7, 8064
8, 7672, Pitch_bend_c, 7, 8192
8, 7676, Note_on_c, 7, 46, 96
8, 7680, Pitch_bend_c, 7, 8128
8, 7692, Pitch_bend_c, 7, 8096
8, 7712, Pitch_bend_c, 7, 8032
8, 7724, Pitch_bend_c, 7, 8064
8, 7756, Pitch_bend_c, 7, 8160
8, 7768, Pitch_bend_c, 7, 8128
8, 7776, Pitch_bend_c, 7, 8000
8, 7784, Pitch_bend_c, 7, 7904
8, 7796, Pitch_bend_c, 7, 7840
8, 7808, Pitch_bend_c, 7, 7776
8, 7816, Pitch_bend_c, 7, 7808
8, 7828, Pitch_bend_c, 7, 7904
8, 7832, Note_off_c, 7, 46, 64
8, 8312, Pitch_bend_c, 7, 8192
8, 8316, Note_on_c, 7, 49, 115
8, 8316, Pitch_bend_c, 7, 7936
8, 8328, Pitch_bend_c, 7, 7904
8, 8340, Pitch_bend_c, 7, 7936
8, 8380, Pitch_bend_c, 7, 7872
8, 8392, Pitch_bend_c, 7, 7840
8, 8424, Pitch_bend_c, 7, 7872
8, 8432, Pitch_bend_c, 7, 7936
8, 8448, Note_off_c, 7, 49, 64
8, 8460, Pitch_bend_c, 7, 8192
8, 8464, Note_on_c, 7, 50, 98
8, 8468, Pitch_bend_c, 7, 7968
8, 8476, Pitch_bend_c, 7, 8000
8, 8540, Pitch_bend_c, 7, 7872
8, 8584, Pitch_bend_c, 7, 8032
8, 8604, Pitch_bend_c, 7, 8000
8, 8636, Pitch_bend_c, 7, 7968
8, 8664, Pitch_bend_c, 7, 8000
8, 8688, Pitch_bend_c, 7, 8032
8, 8748, Pitch_bend_c, 7, 8000
8, 8768, Pitch_bend_c, 7, 7936
8, 8780, Pitch_bend_c, 7, 7904
8, 8792, Pitch_bend_c, 7, 7648
8, 8800, Pitch_bend_c, 7, 7168
8, 8808, Pitch_bend_c, 7, 6656
8, 8812, Note_off_c, 7, 50, 64
8, 8812, Pitch_bend_c, 7, 7936
8, 8820, Pitch_bend_c, 7, 8192
8, 8824, Note_on_c, 7, 53, 114
8, 8824, Pitch_bend_c, 7, 8160
8, 8828, Pitch_bend_c, 7, 8192
8, 8920, Pitch_bend_c, 7, 8160
8, 8928, Pitch_bend_c, 7, 8128
8, 8936, Pitch_bend_c, 7, 8096
8, 8952, Pitch_bend_c, 7, 8064
8, 8960, Pitch_bend_c, 7, 7904
8, 8968, Pitch_bend_c, 7, 7680
8, 8984, Note_off_c, 7, 53, 64
8, 8984, Pitch_bend_c, 7, 8096
8, 9208, Pitch_bend_c, 7, 8192
8, 9212, Note_on_c, 7, 51, 100
8, 9212, Pitch_bend_c, 7, 7744
8, 9256, Pitch_bend_c, 7, 7776
8, 9264, Pitch_bend_c, 7, 7808
8, 9288, Pitch_bend_c, 7, 7776
8, 9308, Pitch_bend_c, 7, 7744
8, 9320, Pitch_bend_c, 7, 7712
8, 9340, Pitch_bend_c, 7, 7680
8, 9352, Pitch_bend_c, 7, 7488
8, 9356, Pitch_bend_c, 7, 7296
8, 9360, Note_off_c, 7, 51, 64
8, 9360, Pitch_bend_c, 7, 7744
8, 9832, Note_on_c, 7, 54, 114
8, 9832, Pitch_bend_c, 7, 8064
8, 9844, Pitch_bend_c, 7, 8032
8, 9856, Pitch_bend_c, 7, 8064
8, 9880, Pitch_bend_c, 7, 8096
8, 9896, Pitch_bend_c, 7, 7968
8, 9912, Pitch_bend_c, 7, 7712
8, 9920, Pitch_bend_c, 7, 7680
8, 9940, Pitch_bend_c, 7, 7776
8, 9952, Pitch_bend_c, 7, 8032
8, 9960, Pitch_bend_c, 7, 8288
8, 9968, Note_off_c, 7, 54, 64
8, 9980, Pitch_bend_c, 7, 8192
8, 9984, Note_on_c, 7, 55, 92
8, 9984, Pitch_bend_c, 7, 7936
8, 10040, Pitch_bend_c, 7, 7904
8, 10068, Pitch_bend_c, 7, 7936
8, 10080, Pitch_bend_c, 7, 8000
8, 10088, Pitch_bend_c, 7, 8032
8, 10100, Pitch_bend_c, 7, 8096
8, 10108, Pitch_bend_c, 7, 8160
8, 10120, Pitch_bend_c, 7, 8192
8, 10140, Pitch_bend_c, 7, 8288
8, 10152, Pitch_bend_c, 7, 8352
8, 10164, Pitch_bend_c, 7, 8416
8, 10172, Pitch_bend_c, 7, 8448
8, 10196, Pitch_bend_c, 7, 8384
8, 10204, Pitch_bend_c, 7, 8352
8, 10216, Pitch_bend_c, 7, 8288
8, 10224, Pitch_bend_c, 7, 8256
8, 10232, Pitch_bend_c, 7, 8224
8, 10260, Pitch_bend_c, 7, 8192
8, 10280, Pitch_bend_c, 7, 8160
8, 10288, Pitch_bend_c, 7, 8064
8, 10296, Pitch_bend_c, 7, 8032
8, 10308, Pitch_bend_c, 7, 7968
8, 10316, Pitch_bend_c, 7, 7904
8, 10328, Pitch_bend_c, 7, 7872
8, 10344, Note_off_c, 7, 55, 64
8, 10344, Pitch_bend_c, 7, 8064
8, 10352, Pitch_bend_c, 7, 8192
8, 10356, Note_on_c, 7, 58, 116
8, 10356, Pitch_bend_c, 7, 8320
8, 10360, Pitch_bend_c, 7, 8224
8, 10408, Pitch_bend_c, 7, 8192
8, 10492, Pitch_bend_c, 7, 8000
8, 10504, Note_off_c, 7, 58, 64
8, 10504, Pitch_bend_c, 7, 8192
8, 10748, Note_on_c, 7, 46, 92
8, 10760, Pitch_bend_c, 7, 8160
8, 10784, Pitch_bend_c, 7, 8128
8, 10848, Pitch_bend_c, 7, 8000
8, 10860, Pitch_bend_c, 7, 7904
8, 10872, Pitch_bend_c, 7, 7872
8, 10880, Pitch_bend_c, 7, 7840
8, 10888, Note_off_c, 7, 46, 64
8, 10888, Pitch_bend_c, 7, 8128
8, 11384, Pitch_bend_c, 7, 8192
8, 11388, Note_on_c, 7, 49, 122
8, 11388, Pitch_bend_c, 7, 8032
8, 11400, Pitch_bend_c, 7, 7968
8, 11432, Pitch_bend_c, 7, 8000
8, 11444, Pitch_bend_c, 7, 7968
8, 11464, Pitch_bend_c, 7, 7936
8, 11496, Pitch_bend_c, 7, 7776
8, 11504, Pitch_bend_c, 7, 7904
8, 11516, Pitch_bend_c, 7, 8032
8, 11524, Note_off_c, 7, 49, 64
8, 11540, Pitch_bend_c, 7, 8192
8, 11544, Note_on_c, 7, 50, 98
8, 11544, Pitch_bend_c, 7, 7936
8, 11624, Pitch_bend_c, 7, 7968
8, 11636, Pitch_bend_c, 7, 7936
8, 11644, Pitch_bend_c, 7, 7840
8, 11676, Pitch_bend_c, 7, 7872
8, 11688, Pitch_bend_c, 7, 7968
8, 11700, Pitch_bend_c, 7, 8000
8, 11720, Pitch_bend_c, 7, 8032
8, 11728, Pitch_bend_c, 7, 8096
8, 11736, Pitch_bend_c, 7, 8160
8, 11748, Pitch_bend_c, 7, 8192
8, 11760, Pitch_bend_c, 7, 8256
8, 11768, Pitch_bend_c, 7, 8352
8, 11780, Pitch_bend_c, 7, 8384
8, 11792, Pitch_bend_c, 7, 8416
8, 11812, Pitch_bend_c, 7, 8384
8, 11820, Pitch_bend_c, 7, 8320
8, 11832, Pitch_bend_c, 7, 8224
8, 11844, Pitch_bend_c, 7, 8128
8, 11856, Pitch_bend_c, 7, 8000
8, 11864, Pitch_bend_c, 7, 7840
8, 11876, Pitch_bend_c, 7, 7328
8, 11884, Note_off_c, 7, 50, 64
8, 11884, Pitch_bend_c, 7, 8224
8, 11904, Pitch_bend_c, 7, 8192
8, 11908, Note_on_c, 7, 53, 111
8, 11908, Pitch_bend_c, 7, 8064
8, 11912, Pitch_bend_c, 7, 8096
8, 11916, Pitch_bend_c, 7, 8128
8, 11944, Pitch_bend_c, 7, 8096
8, 11992, Pitch_bend_c, 7, 8064
8, 12028, Pitch_bend_c, 7, 7840
8, 12040, Pitch_bend_c, 7, 7456
8, 12048, Pitch_bend_c, 7, 7104
8, 12056, Note_off_c, 7, 53, 64
8, 12056, Pitch_bend_c, 7, 8096
8, 12280, Pitch_bend_c, 7, 8192
8, 12284, Note_on_c, 7, 46, 100
8, 12292, Pitch_bend_c, 7, 8256
8, 12296, Pitch_bend_c, 7, 8192
8, 12320, Pitch_bend_c, 7, 8096
8, 12328, Pitch_bend_c, 7, 8064
8, 12344, Pitch_bend_c, 7, 8032
8, 12360, Pitch_bend_c, 7, 8160
8, 12372, Pitch_bend_c, 7, 8192
8, 12384, Pitch_bend_c, 7, 8128
8, 12392, Pitch_bend_c, 7, 8032
8, 12404, Pitch_bend_c, 7, 7936
8, 12412, Pitch_bend_c, 7, 7872
8, 12424, Pitch_bend_c, 7, 7808
8, 12428, Note_off_c, 7, 46, 64
8, 12428, Pitch_bend_c, 7, 8128
8, 12912, Pitch_bend_c, 7, 8192
8, 12916, Note_on_c, 7, 49, 124
8, 12924, Pitch_bend_c, 7, 8128
8, 12928, Pitch_bend_c, 7, 8096
8, 12932, Pitch_bend_c, 7, 8032
8, 12952, Pitch_bend_c, 7, 8000
8, 12972, Pitch_bend_c, 7, 7968
8, 12992, Pitch_bend_c, 7, 8000
8, 13004, Pitch_bend_c, 7, 7968
8, 13012, Pitch_bend_c, 7, 7936
8, 13024, Pitch_bend_c, 7, 7904
8, 13048, Pitch_bend_c, 7, 7840
8, 13052, Pitch_bend_c, 7, 7776
8, 13060, Note_off_c, 7, 49, 64
8, 13060, Pitch_bend_c, 7, 7968
8, 13064, Note_on_c, 7, 49, 84
8, 13064, Pitch_bend_c, 7, 11520
8, 13072, Pitch_bend_c, 7, 11904
8, 13076, Pitch_bend_c, 7, 12000
8, 13144, Pitch_bend_c, 7, 12032
8, 13160, Pitch_bend_c, 7, 12064
8, 13168, Pitch_bend_c, 7, 12096
8, 13192, Pitch_bend_c, 7, 12160
8, 13220, Pitch_bend_c, 7, 12128
8, 13232, Pitch_bend_c, 7, 12096
8, 13252, Pitch_bend_c, 7, 12160
8, 13264, Pitch_bend_c, 7, 12288
8, 13272, Pitch_bend_c, 7, 12416
8, 13280, Pitch_bend_c, 7, 12544
8, 13292, Pitch_bend_c, 7, 12608
8, 13352, Pitch_bend_c, 7, 12576
8, 13368, Pitch_bend_c, 7, 12544
8, 13384, Pitch_bend_c, 7, 12352
8, 13396, Pitch_bend_c, 7, 9696
8, 13404, Note_off_c, 7, 49, 64
8, 13404, Pitch_bend_c, 7, 12576
8, 13440, Pitch_bend_c, 7, 8192
8, 13444, Note_on_c, 7, 53, 109
8, 13444, Pitch_bend_c, 7, 8064
8, 13448, Pitch_bend_c, 7, 8096
8, 13464, Pitch_bend_c, 7, 8128
8, 13488, Pitch_bend_c, 7, 8096
8, 13560, Pitch_bend_c, 7, 8064
8, 13576, Pitch_bend_c, 7, 7872
8, 13592, Pitch_bend_c, 7, 7584
8, 13600, Pitch_bend_c, 7, 7296
8, 13608, Note_off_c, 7, 53, 64
8, 13608, Pitch_bend_c, 7, 8096
8, 13816, Pitch_bend_c, 7, 8192
8, 13820, Note_on_c, 7, 46, 94
8, 13828, Pitch_bend_c, 7, 8160
8, 13832, Pitch_bend_c, 7, 8096
8, 13836, Pitch_bend_c, 7, 8128
8, 13848, Pitch_bend_c, 7, 8160
8, 13856, Pitch_bend_c, 7, 8096
8, 13868, Pitch_bend_c, 7, 8064
8, 13896, Pitch_bend_c, 7, 8096
8, 13920, Pitch_bend_c, 7, 8032
8, 13928, Pitch_bend_c, 7, 7936
8, 13940, Pitch_bend_c, 7, 7872
8, 13948, Pitch_bend_c, 7, 7808
8, 13960, Pitch_bend_c, 7, 7712
8, 13964, Pitch_bend_c, 7, 8032
8, 13968, Note_off_c, 7, 46, 64
8, 14456, Note_on_c, 7, 49, 115
8, 14456, Pitch_bend_c, 7, 7904
8, 14460, Pitch_bend_c, 7, 7936
8, 14524, Pitch_bend_c, 7, 7872
8, 14536, Pitch_bend_c, 7, 7840
8, 14576, Pitch_bend_c, 7, 7776
8, 14584, Pitch_bend_c, 7, 7744
8, 14588, Note_off_c, 7, 49, 64
8, 14588, Pitch_bend_c, 7, 7840
8, 14596, Pitch_bend_c, 7, 8192
8, 14600, Note_on_c, 7, 50, 100
8, 14604, Pitch_bend_c, 7, 7968
8, 14608, Pitch_bend_c, 7, 7936
8, 14612, Pitch_bend_c, 7, 7968
8, 14632, Pitch_bend_c, 7, 7936
8, 14648, Pitch_bend_c, 7, 7968
8, 14668, Pitch_bend_c, 7, 8000
8, 14680, Pitch_bend_c, 7, 7872
8, 14696, Pitch_bend_c, 7, 7936
8, 14708, Pitch_bend_c, 7, 8000
8, 14716, Pitch_bend_c, 7, 8192
8, 14740, Pitch_bend_c, 7, 8224
8, 14748, Pitch_bend_c, 7, 8192
8, 14824, Pitch_bend_c, 7, 8256
8, 14848, Pitch_bend_c, 7, 8288
8, 14856, Pitch_bend_c, 7, 8320
8, 14888, Pitch_bend_c, 7, 8256
8, 14904, Pitch_bend_c, 7, 6112
8, 14920, Pitch_bend_c, 7, 6624
8, 14928, Pitch_bend_c, 7, 7104
8, 14936, Pitch_bend_c, 7, 7488
8, 14956, Pitch_bend_c, 7, 6976
8, 14964, Note_off_c, 7, 50, 64
8, 14972, Note_on_c, 7, 53, 112
8, 14972, Pitch_bend_c, 7, 8032
8, 14976, Pitch_bend_c, 7, 8096
8, 14984, Pitch_bend_c, 7, 8128
8, 15028, Pitch_bend_c, 7, 8096
8, 15048, Pitch_bend_c, 7, 8064
8, 15100, Pitch_bend_c, 7, 8000
8, 15112, Pitch_bend_c, 7, 7808
8, 15120, Pitch_bend_c, 7, 7424
8, 15132, Note_off_c, 7, 53, 64
8, 15132, Pitch_bend_c, 7, 8096
8, 15368, Pitch_bend_c, 7, 8192
8, 15372, Note_on_c, 7, 53, 101
8, 15372, Pitch_bend_c, 7, 7904
8, 15376, Pitch_bend_c, 7, 7936
8, 15424, Pitch_bend_c, 7, 7904
8, 15452, Pitch_bend_c, 7, 7872
8, 15472, Pitch_bend_c, 7, 7840
8, 15484, Pitch_bend_c, 7, 7808
8, 15496, Pitch_bend_c, 7, 7584
8, 15504, Pitch_bend_c, 7, 7328
8, 15512, Note_off_c, 7, 53, 64
8, 15512, Pitch_bend_c, 7, 7872
8, 16000, Pitch_bend_c, 7, 8192
8, 16004, Note_on_c, 7, 56, 111
8, 16004, Pitch_bend_c, 7, 8064
8, 16008, Pitch_bend_c, 7, 8096
8, 16012, Pitch_bend_c, 7, 8064
8, 16020, Pitch_bend_c, 7, 8096
8, 16040, Pitch_bend_c, 7, 8064
8, 16072, Pitch_bend_c, 7, 8032
8, 16084, Pitch_bend_c, 7, 8064
8, 16092, Pitch_bend_c, 7, 8032
8, 16104, Pitch_bend_c, 7, 8000
8, 16112, Pitch_bend_c, 7, 7936
8, 16120, Pitch_bend_c, 7, 8064
8, 16132, Pitch_bend_c, 7, 12000
8, 16168, Pitch_bend_c, 7, 12032
8, 16204, Pitch_bend_c, 7, 12000
8, 16216, Pitch_bend_c, 7, 11968
8, 16224, Pitch_bend_c, 7, 11936
8, 16248, Pitch_bend_c, 7, 11904
8, 16256, Pitch_bend_c, 7, 11936
8, 16264, Pitch_bend_c, 7, 11968
8, 16280, Pitch_bend_c, 7, 12032
8, 16288, Pitch_bend_c, 7, 12096
8, 16296, Pitch_bend_c, 7, 12128
8, 16308, Pitch_bend_c, 7, 12160
8, 16340, Pitch_bend_c, 7, 12128
8, 16360, Pitch_bend_c, 7, 12096
8, 16412, Pitch_bend_c, 7, 12128
8, 16436, Pitch_bend_c, 7, 12096
8, 16444, Pitch_bend_c, 7, 12032
8, 16456, Pitch_bend_c, 7, 11968
8, 16464, Pitch_bend_c, 7, 11904
8, 16488, Pitch_bend_c, 7, 11936
8, 16496, Pitch_bend_c, 7, 11968
8, 16508, Pitch_bend_c, 7, 12000
8, 16512, Note_off_c, 7, 56, 64
8, 16524, Pitch_bend_c, 7, 8192
8, 16528, Note_on_c, 7, 60, 112
8, 16528, Pitch_bend_c, 7, 8256
8, 16540, Pitch_bend_c, 7, 8224
8, 16552, Pitch_bend_c, 7, 8192
8, 16584, Pitch_bend_c, 7, 8128
8, 16596, Pitch_bend_c, 7, 8096
8, 16608, Pitch_bend_c, 7, 8032
8, 16628, Pitch_bend_c, 7, 8128
8, 16656, Pitch_bend_c, 7, 8160
8, 16664, Pitch_bend_c, 7, 8096
8, 16680, Pitch_bend_c, 7, 7904
8, 16684, Note_off_c, 7, 60, 64
8, 16684, Pitch_bend_c, 7, 8032
8, 16888, Pitch_bend_c, 7, 8192
8, 16896, Note_on_c, 7, 53, 98
8, 16896, Pitch_bend_c, 7, 7840
8, 16900, Pitch_bend_c, 7, 7872
8, 16948, Pitch_bend_c, 7, 7840
8, 16968, Pitch_bend_c, 7, 7808
8, 17016, Pitch_bend_c, 7, 7776
8, 17032, Pitch_bend_c, 7, 7680
8, 17044, Pitch_bend_c, 7, 7424
8, 17052, Note_off_c, 7, 53, 64
8, 17052, Pitch_bend_c, 7, 7808
8, 17536, Pitch_bend_c, 7, 8192
8, 17540, Note_on_c, 7, 56, 112
8, 17544, Pitch_bend_c, 7, 8128
8, 17548, Pitch_bend_c, 7, 8096
8, 17556, Pitch_bend_c, 7, 8128
8, 17560, Pitch_bend_c, 7, 8096
8, 17584, Pitch_bend_c, 7, 8064
8, 17592, Pitch_bend_c, 7, 8032
8, 17616, Pitch_bend_c, 7, 8000
8, 17624, Pitch_bend_c, 7, 7936
8, 17636, Pitch_bend_c, 7, 7872
8, 17644, Pitch_bend_c, 7, 7840
8, 17656, Pitch_bend_c, 7, 7776
8, 17672, Pitch_bend_c, 7, 10688
8, 17680, Pitch_bend_c, 7, 11040
8, 17688, Pitch_bend_c, 7, 11328
8, 17700, Pitch_bend_c, 7, 11680
8, 17708, Pitch_bend_c, 7, 11968
8, 17720, Pitch_bend_c, 7, 12000
8, 17772, Pitch_bend_c, 7, 11968
8, 17784, Pitch_bend_c, 7, 11936
8, 17792, Pitch_bend_c, 7, 11904
8, 17816, Pitch_bend_c, 7, 11936
8, 17824, Pitch_bend_c, 7, 11968
8, 17844, Pitch_bend_c, 7, 12000
8, 17956, Pitch_bend_c, 7, 12032
8, 17976, Pitch_bend_c, 7, 12064
8, 18012, Pitch_bend_c, 7, 12032
8, 18052, Note_off_c, 7, 56, 64
8, 18052, Pitch_bend_c, 7, 12000
8, 18068, Pitch_bend_c, 7, 8192
8, 18072, Note_on_c, 7, 60, 114
8, 18072, Pitch_bend_c, 7, 8288
8, 18076, Pitch_bend_c, 7, 8256
8, 18084, Pitch_bend_c, 7, 8224
8, 18096, Pitch_bend_c, 7, 8256
8, 18104, Pitch_bend_c, 7, 8224
8, 18148, Pitch_bend_c, 7, 8192
8, 18188, Pitch_bend_c, 7, 8160
8, 18200, Pitch_bend_c, 7, 7872
8, 18208, Note_off_c, 7, 60, 64
8, 18208, Pitch_bend_c, 7, 8224
8, 18424, Pitch_bend_c, 7, 8192
8, 18428, Note_on_c, 7, 46, 102
8, 18432, Pitch_bend_c, 7, 8160
8, 18436, Pitch_bend_c, 7, 8224
8, 18444, Pitch_bend_c, 7, 8192
8, 18508, Pitch_bend_c, 7, 8224
8, 18580, Pitch_bend_c, 7, 8192
8, 18596, Note_off_c, 7, 46, 64
8, 19068, Note_on_c, 7, 49, 109
8, 19072, Pitch_bend_c, 7, 8640
8, 19080, Pitch_bend_c, 7, 7808
8, 19084, Pitch_bend_c, 7, 7456
8, 19096, Pitch_bend_c, 7, 7520
8, 19108, Pitch_bend_c, 7, 7680
8, 19120, Pitch_bend_c, 7, 7840
8, 19128, Pitch_bend_c, 7, 8064
8, 19148, Pitch_bend_c, 7, 8096
8, 19160, Pitch_bend_c, 7, 8128
8, 19168, Pitch_bend_c, 7, 8064
8, 19180, Pitch_bend_c, 7, 8032
8, 19200, Pitch_bend_c, 7, 7872
8, 19212, Pitch_bend_c, 7, 11616
8, 19224, Pitch_bend_c, 7, 11680
8, 19232, Pitch_bend_c, 7, 11712
8, 19240, Pitch_bend_c, 7, 11744
8, 19252, Pitch_bend_c, 7, 11776
8, 19260, Pitch_bend_c, 7, 11808
8, 19284, Pitch_bend_c, 7, 11840
8, 19304, Pitch_bend_c, 7, 11808
8, 19320, Pitch_bend_c, 7, 11776
8, 19336, Pitch_bend_c, 7, 11808
8, 19348, Pitch_bend_c, 7, 11840
8, 19368, Pitch_bend_c, 7, 11872
8, 19388, Pitch_bend_c, 7, 11840
8, 19500, Pitch_bend_c, 7, 11872
8, 19552, Pitch_bend_c, 7, 11904
8, 19560, Pitch_bend_c, 7, 11840
8, 19572, Note_off_c, 7, 49, 64
8, 19600, Pitch_bend_c, 7, 8192
8, 19604, Note_on_c, 7, 53, 116
8, 19608, Pitch_bend_c, 7, 8032
8, 19612, Pitch_bend_c, 7, 8000
8, 19616, Pitch_bend_c, 7, 8064
8, 19640, Pitch_bend_c, 7, 8032
8, 19664, Pitch_bend_c, 7, 8000
8, 19716, Pitch_bend_c, 7, 7968
8, 19736, Pitch_bend_c, 7, 7808
8, 19744, Pitch_bend_c, 7, 7712
8, 19756, Pitch_bend_c, 7, 7584
8, 19760, Note_off_c, 7, 53, 64
8, 19760, Pitch_bend_c, 7, 8000
8, 19956, Pitch_bend_c, 7, 8192
8, 19960, Note_on_c, 7, 46, 99
8, 19960, Pitch_bend_c, 7, 8000
8, 19964, Pitch_bend_c, 7, 8160
8, 20004, Pitch_bend_c, 7, 8128
8, 20012, Pitch_bend_c, 7, 8096
8, 20024, Pitch_bend_c, 7, 8128
8, 20036, Pitch_bend_c, 7, 8160
8, 20044, Pitch_bend_c, 7, 8192
8, 20064, Pitch_bend_c, 7, 8128
8, 20076, Pitch_bend_c, 7, 8096
8, 20088, Pitch_bend_c, 7, 8064
8, 20092, Note_off_c, 7, 46, 64
8, 20092, Pitch_bend_c, 7, 8192
8, 20608, Note_on_c, 7, 49, 107
8, 20608, Pitch_bend_c, 7, 8032
8, 20616, Pitch_bend_c, 7, 8064
8, 20632, Pitch_bend_c, 7, 8096
8, 20636, Pitch_bend_c, 7, 8064
8, 20668, Pitch_bend_c, 7, 8096
8, 20680, Pitch_bend_c, 7, 8064
8, 20700, Pitch_bend_c, 7, 8032
8, 20712, Pitch_bend_c, 7, 8000
8, 20724, Pitch_bend_c, 7, 7968
8, 20732, Pitch_bend_c, 7, 8000
8, 20744, Pitch_bend_c, 7, 11904
8, 20792, Pitch_bend_c, 7, 11872
8, 20804, Pitch_bend_c, 7, 11840
8, 20824, Pitch_bend_c, 7, 11808
8, 20844, Pitch_bend_c, 7, 11776
8, 20856, Pitch_bend_c, 7, 11808
8, 20864, Pitch_bend_c, 7, 11840
8, 20872, Pitch_bend_c, 7, 11904
8, 20948, Pitch_bend_c, 7, 11936
8, 20960, Pitch_bend_c, 7, 11968
8, 20968, Pitch_bend_c, 7, 12000
8, 20980, Pitch_bend_c, 7, 12064
8, 21020, Pitch_bend_c, 7, 12032
8, 21044, Pitch_bend_c, 7, 12000
8, 21052, Pitch_bend_c, 7, 11936
8, 21064, Pitch_bend_c, 7, 11904
8, 21076, Pitch_bend_c, 7, 11840
8, 21108, Pitch_bend_c, 7, 11744
8, 21112, Note_off_c, 7, 49, 64
8, 21112, Pitch_bend_c, 7, 11904
8, 21120, Pitch_bend_c, 7, 8192
8, 21128, Note_on_c, 7, 53, 116
8, 21128, Pitch_bend_c, 7, 8096
8, 21160, Pitch_bend_c, 7, 8064
8, 21172, Pitch_bend_c, 7, 8032
8, 21200, Pitch_bend_c, 7, 8064
8, 21208, Pitch_bend_c, 7, 8096
8, 21220, Pitch_bend_c, 7, 8064
8, 21232, Pitch_bend_c, 7, 8032
8, 21240, Pitch_bend_c, 7, 8000
8, 21260, Pitch_bend_c, 7, 7776
8, 21272, Pitch_bend_c, 7, 7584
8, 21284, Note_off_c, 7, 53, 64
8, 21284, Pitch_bend_c, 7, 8000
8, 21512, Pitch_bend_c, 7, 8192
8, 21512, Note_on_c, 7, 51, 94
8, 21516, Pitch_bend_c, 7, 7872
8, 21564, Pitch_bend_c, 7, 7840
8, 21588, Pitch_bend_c, 7, 7808
8, 21608, Pitch_bend_c, 7, 7776
8, 21624, Pitch_bend_c, 7, 7488
8, 21632, Pitch_bend_c, 7, 7232
8, 21640, Note_off_c, 7, 51, 64
8, 21640, Pitch_bend_c, 7, 7840
8, 22152, Note_on_c, 7, 54, 115
8, 22152, Pitch_bend_c, 7, 8192
8, 22156, Pitch_bend_c, 7, 7968
8, 22160, Pitch_bend_c, 7, 8032
8, 22164, Pitch_bend_c, 7, 8000
8, 22180, Pitch_bend_c, 7, 8032
8, 22200, Pitch_bend_c, 7, 7936
8, 22208, Pitch_bend_c, 7, 7904
8, 22220, Pitch_bend_c, 7, 7872
8, 22228, Pitch_bend_c, 7, 7840
8, 22240, Pitch_bend_c, 7, 7904
8, 22260, Pitch_bend_c, 7, 7936
8, 22268, Pitch_bend_c, 7, 7968
8, 22284, Pitch_bend_c, 7, 8000
8, 22296, Pitch_bend_c, 7, 7936
8, 22304, Pitch_bend_c, 7, 7968
8, 22312, Pitch_bend_c, 7, 12000
8, 22364, Pitch_bend_c, 7, 11968
8, 22440, Pitch_bend_c, 7, 12000
8, 22456, Pitch_bend_c, 7, 12032
8, 22468, Pitch_bend_c, 7, 12064
8, 22476, Pitch_bend_c, 7, 12096
8, 22500, Pitch_bend_c, 7, 12128
8, 22512, Pitch_bend_c, 7, 12160
8, 22584, Pitch_bend_c, 7, 12128
8, 22608, Pitch_bend_c, 7, 12096
8, 22660, Pitch_bend_c, 7, 12128
8, 22664, Note_off_c, 7, 54, 64
8, 22676, Pitch_bend_c, 7, 8192
8, 22676, Note_on_c, 7, 58, 112
8, 22680, Pitch_bend_c, 7, 8000
8, 22684, Pitch_bend_c, 7, 8032
8, 22688, Pitch_bend_c, 7, 8064
8, 22696, Pitch_bend_c, 7, 8032
8, 22772, Pitch_bend_c, 7, 8064
8, 22832, Pitch_bend_c, 7, 7872
8, 22840, Pitch_bend_c, 7, 7680
8, 22844, Note_off_c, 7, 58, 64
8, 22844, Pitch_bend_c, 7, 8064
8, 23032, Pitch_bend_c, 7, 8192
8, 23036, Note_on_c, 7, 46, 103
8, 23036, Pitch_bend_c, 7, 8064
8, 23040, Pitch_bend_c, 7, 8128
8, 23044, Pitch_bend_c, 7, 8192
8, 23064, Pitch_bend_c, 7, 8160
8, 23076, Pitch_bend_c, 7, 8192
8, 23108, Pitch_bend_c, 7, 8160
8, 23116, Pitch_bend_c, 7, 8128
8, 23128, Pitch_bend_c, 7, 8096
8, 23172, Pitch_bend_c, 7, 8160
8, 23176, Note_off_c, 7, 46, 64
8, 23664, Pitch_bend_c, 7, 8192
8, 23672, Note_on_c, 7, 49, 110
8, 23672, Pitch_bend_c, 7, 8704
8, 23676, Pitch_bend_c, 7, 8448
8, 23680, Pitch_bend_c, 7, 8096
8, 23696, Pitch_bend_c, 7, 8032
8, 23704, Pitch_bend_c, 7, 7936
8, 23736, Pitch_bend_c, 7, 8000
8, 23748, Pitch_bend_c, 7, 8064
8, 23780, Pitch_bend_c, 7, 8032
8, 23800, Pitch_bend_c, 7, 7968
8, 23808, Pitch_bend_c, 7, 8064
8, 23820, Pitch_bend_c, 7, 11904
8, 23880, Pitch_bend_c, 7, 11872
8, 23900, Pitch_bend_c, 7, 11840
8, 23956, Pitch_bend_c, 7, 11872
8, 23968, Pitch_bend_c, 7, 11904
8, 23988, Pitch_bend_c, 7, 11936
8, 24008, Pitch_bend_c, 7, 11968
8, 24016, Pitch_bend_c, 7, 12000
8, 24084, Pitch_bend_c, 7, 11936
8, 24104, Pitch_bend_c, 7, 11904
8, 24116, Pitch_bend_c, 7, 11840
8, 24152, Pitch_bend_c, 7, 11904
8, 24164, Pitch_bend_c, 7, 11840
8, 24168, Note_off_c, 7, 49, 64
8, 24184, Pitch_bend_c, 7, 8192
8, 24188, Note_on_c, 7, 53, 116
8, 24188, Pitch_bend_c, 7, 8096
8, 24200, Pitch_bend_c, 7, 8064
8, 24220, Pitch_bend_c, 7, 8096
8, 24312, Pitch_bend_c, 7, 8064
8, 24320, Pitch_bend_c, 7, 8032
8, 24332, Pitch_bend_c, 7, 8000
8, 24352, Pitch_bend_c, 7, 7808
8, 24360, Pitch_bend_c, 7, 7680
8, 24368, Note_off_c, 7, 53, 64
8, 24368, Pitch_bend_c, 7, 8032
8, 24576, Pitch_bend_c, 7, 8192
8, 24584, Note_on_c, 7, 46, 101
8, 24584, Pitch_bend_c, 7, 8160
8, 24588, Pitch_bend_c, 7, 8128
8, 24612, Pitch_bend_c, 7, 8096
8, 24664, Pitch_bend_c, 7, 8064
8, 24704, Note_off_c, 7, 46, 64
8, 24704, Pitch_bend_c, 7, 8128
8, 25212, Pitch_bend_c, 7, 8192
8, 25220, Note_on_c, 7, 49, 110
8, 25224, Pitch_bend_c, 7, 7680
8, 25228, Pitch_bend_c, 7, 7520
8, 25232, Pitch_bend_c, 7, 7552
8, 25244, Pitch_bend_c, 7, 7648
8, 25256, Pitch_bend_c, 7, 7776
8, 25268, Pitch_bend_c, 7, 7936
8, 25276, Pitch_bend_c, 7, 8000
8, 25288, Pitch_bend_c, 7, 7968
8, 25296, Pitch_bend_c, 7, 8032
8, 25336, Pitch_bend_c, 7, 8000
8, 25352, Pitch_bend_c, 7, 8064
8, 25360, Pitch_bend_c, 7, 11840
8, 25452, Pitch_bend_c, 7, 11808
8, 25464, Pitch_bend_c, 7, 11776
8, 25492, Pitch_bend_c, 7, 11808
8, 25504, Pitch_bend_c, 7, 11872
8, 25516, Pitch_bend_c, 7, 11904
8, 25572, Pitch_bend_c, 7, 12000
8, 25576, Pitch_bend_c, 7, 12128
8, 25592, Pitch_bend_c, 7, 12288
8, 25600, Pitch_bend_c, 7, 12416
8, 25612, Pitch_bend_c, 7, 12480
8, 25624, Pitch_bend_c, 7, 12448
8, 25632, Pitch_bend_c, 7, 12352
8, 25640, Pitch_bend_c, 7, 12224
8, 25652, Pitch_bend_c, 7, 12064
8, 25660, Pitch_bend_c, 7, 11936
8, 25672, Pitch_bend_c, 7, 11904
8, 25684, Pitch_bend_c, 7, 11872
8, 25736, Note_off_c, 7, 49, 64
8, 25736, Pitch_bend_c, 7, 12064
8, 25740, Pitch_bend_c, 7, 8192
8, 25744, Note_on_c, 7, 53, 116
8, 25744, Pitch_bend_c, 7, 8416
8, 25752, Pitch_bend_c, 7, 8096
8, 25756, Pitch_bend_c, 7, 8160
8, 25760, Pitch_bend_c, 7, 8128
8, 25768, Pitch_bend_c, 7, 8096
8, 25852, Pitch_bend_c, 7, 8064
8, 25864, Pitch_bend_c, 7, 8032
8, 25876, Pitch_bend_c, 7, 7904
8, 25880, Pitch_bend_c, 7, 7616
8, 25896, Note_off_c, 7, 53, 64
8, 25896, Pitch_bend_c, 7, 8064
8, 26128, Pitch_bend_c, 7, 8192
8, 26136, Note_on_c, 7, 53, 98
8, 26136, Pitch_bend_c, 7, 8096
8, 26184, Pitch_bend_c, 7, 8064
8, 26196, Pitch_bend_c, 7, 8032
8, 26204, Pitch_bend_c, 7, 8000
8, 26216, Pitch_bend_c, 7, 7936
8, 26232, Pitch_bend_c, 7, 7904
8, 26240, Pitch_bend_c, 7, 7872
8, 26248, Pitch_bend_c, 7, 7840
8, 26260, Pitch_bend_c, 7, 7552
8, 26268, Pitch_bend_c, 7, 7264
8, 26272, Note_off_c, 7, 53, 64
8, 26272, Pitch_bend_c, 7, 7904
8, 26736, Pitch_bend_c, 7, 8192
8, 26740, Note_on_c, 7, 56, 111
8, 26744, Pitch_bend_c, 7, 8096
8, 26784, Pitch_bend_c, 7, 8064
8, 26800, Pitch_bend_c, 7, 8032
8, 26812, Pitch_bend_c, 7, 8000
8, 26832, Pitch_bend_c, 7, 7968
8, 26844, Pitch_bend_c, 7, 7936
8, 26896, Pitch_bend_c, 7, 12000
8, 26936, Pitch_bend_c, 7, 12032
8, 26960, Pitch_bend_c, 7, 12064
8, 27000, Pitch_bend_c, 7, 12032
8, 27020, Pitch_bend_c, 7, 12000
8, 27032, Pitch_bend_c, 7, 11968
8, 27040, Pitch_bend_c, 7, 11936
8, 27052, Pitch_bend_c, 7, 11904
8, 27072, Pitch_bend_c, 7, 11936
8, 27080, Pitch_bend_c, 7, 11968
8, 27096, Pitch_bend_c, 7, 12000
8, 27152, Pitch_bend_c, 7, 12032
8, 27220, Pitch_bend_c, 7, 12000
8, 27228, Pitch_bend_c, 7, 11968
8, 27240, Pitch_bend_c, 7, 11936
8, 27252, Pitch_bend_c, 7, 11968
8, 27256, Note_off_c, 7, 56, 64
8, 27256, Pitch_bend_c, 7, 12032
8, 27264, Pitch_bend_c, 7, 8192
8, 27272, Note_on_c, 7, 60, 116
8, 27272, Pitch_bend_c, 7, 8160
8, 27276, Pitch_bend_c, 7, 8128
8, 27320, Pitch_bend_c, 7, 8096
8, 27360, Pitch_bend_c, 7, 8128
8, 27384, Pitch_bend_c, 7, 8160
8, 27392, Pitch_bend_c, 7, 8128
8, 27400, Pitch_bend_c, 7, 7904
8, 27408, Note_off_c, 7, 60, 64
8, 27408, Pitch_bend_c, 7, 8096
8, 27648, Note_on_c, 7, 46, 98
8, 27648, Pitch_bend_c, 7, 8192
8, 27656, Pitch_bend_c, 7, 8224
8, 27660, Pitch_bend_c, 7, 8192
8, 27664, Pitch_bend_c, 7, 8160
8, 27688, Pitch_bend_c, 7, 8128
8, 27696, Pitch_bend_c, 7, 8096
8, 27704, Pitch_bend_c, 7, 8032
8, 27736, Pitch_bend_c, 7, 8064
8, 27748, Pitch_bend_c, 7, 7968
8, 27756, Pitch_bend_c, 7, 7872
8, 27768, Pitch_bend_c, 7, 7808
8, 27776, Pitch_bend_c, 7, 7712
8, 27784, Note_off_c, 7, 46, 64
8, 27784, Pitch_bend_c, 7, 8064
8, 28296, Pitch_bend_c, 7, 8192
8, 28300, Note_on_c, 7, 49, 121
8, 28300, Pitch_bend_c, 7, 7936
8, 28304, Pitch_bend_c, 7, 7968
8, 28308, Pitch_bend_c, 7, 8000
8, 28320, Pitch_bend_c, 7, 7968
8, 28352, Pitch_bend_c, 7, 7936
8, 28392, Pitch_bend_c, 7, 7968
8, 28412, Pitch_bend_c, 7, 7936
8, 28424, Pitch_bend_c, 7, 7872
8, 28436, Pitch_bend_c, 7, 7840
8, 28444, Pitch_bend_c, 7, 11936
8, 28456, Pitch_bend_c, 7, 11968
8, 28464, Pitch_bend_c, 7, 12000
8, 28508, Pitch_bend_c, 7, 11968
8, 28520, Pitch_bend_c, 7, 11936
8, 28528, Pitch_bend_c, 7, 11904
8, 28548, Pitch_bend_c, 7, 11872
8, 28560, Pitch_bend_c, 7, 11840
8, 28584, Pitch_bend_c, 7, 11872
8, 28592, Pitch_bend_c, 7, 11904
8, 28600, Pitch_bend_c, 7, 11936
8, 28612, Pitch_bend_c, 7, 11968
8, 28632, Pitch_bend_c, 7, 12000
8, 28676, Pitch_bend_c, 7, 11968
8, 28712, Pitch_bend_c, 7, 11936
8, 28736, Pitch_bend_c, 7, 11904
8, 28744, Pitch_bend_c, 7, 11616
8, 28756, Pitch_bend_c, 7, 11168
8, 28764, Pitch_bend_c, 7, 10752
8, 28772, Pitch_bend_c, 7, 11936
8, 28776, Note_off_c, 7, 49, 64
8, 28792, Note_on_c, 7, 53, 116
8, 28792, Pitch_bend_c, 7, 8128
8, 28872, Pitch_bend_c, 7, 8096
8, 28904, Pitch_bend_c, 7, 8064
8, 28924, Pitch_bend_c, 7, 8096
8, 28936, Pitch_bend_c, 7, 7968
8, 28948, Pitch_bend_c, 7, 7616
8, 28956, Pitch_bend_c, 7, 7232
8, 28968, Note_off_c, 7, 53, 64
8, 28968, Pitch_bend_c, 7, 8096
8, 29184, Pitch_bend_c, 7, 8192
8, 29192, Note_on_c, 7, 46, 94
8, 29192, Pitch_bend_c, 7, 8160
8, 29196, Pitch_bend_c, 7, 8192
8, 29204, Pitch_bend_c, 7, 8096
8, 29224, Pitch_bend_c, 7, 8000
8, 29248, Pitch_bend_c, 7, 7968
8, 29256, Pitch_bend_c, 7, 8000
8, 29268, Pitch_bend_c, 7, 8096
8, 29280, Pitch_bend_c, 7, 8064
8, 29288, Pitch_bend_c, 7, 8032
8, 29300, Pitch_bend_c, 7, 7936
8, 29308, Pitch_bend_c, 7, 7904
8, 29320, Pitch_bend_c, 7, 7808
8, 29332, Pitch_bend_c, 7, 7712
8, 29336, Note_off_c, 7, 46, 64
8, 29336, Pitch_bend_c, 7, 8032
8, 30844, Pitch_bend_c, 7, 8192
8, 30848, Note_on_c, 7, 55, 110
8, 30848, Pitch_bend_c, 7, 7872
8, 30856, Pitch_bend_c, 7, 7968
8, 30884, Pitch_bend_c, 7, 8000
8, 30904, Pitch_bend_c, 7, 7872
8, 30916, Pitch_bend_c, 7, 7712
8, 30920, Note_off_c, 7, 55, 64
8, 30920, Pitch_bend_c, 7, 7936
8, 30964, Pitch_bend_c, 7, 8192
8, 30968, Note_on_c, 7, 55, 108
8, 30968, Pitch_bend_c, 7, 8032
8, 31040, Note_off_c, 7, 55, 64
8, 31040, Pitch_bend_c, 7, 8160
8, 31096, Note_on_c, 7, 54, 115
8, 31096, Pitch_bend_c, 7, 8192
8, 31100, Pitch_bend_c, 7, 11936
8, 31120, Pitch_bend_c, 7, 11968
8, 31132, Pitch_bend_c, 7, 12032
8, 31144, Pitch_bend_c, 7, 12064
8, 31152, Pitch_bend_c, 7, 12096
8, 31160, Pitch_bend_c, 7, 11904
8, 31172, Pitch_bend_c, 7, 11776
8, 31176, Note_off_c, 7, 54, 64
8, 31176, Pitch_bend_c, 7, 12032
8, 31224, Pitch_bend_c, 7, 8192
8, 31228, Note_on_c, 7, 55, 114
8, 31228, Pitch_bend_c, 7, 8032
8, 31236, Pitch_bend_c, 7, 8000
8, 31240, Pitch_bend_c, 7, 7872
8, 31256, Pitch_bend_c, 7, 7904
8, 31268, Pitch_bend_c, 7, 7840
8, 31276, Pitch_bend_c, 7, 7872
8, 31288, Pitch_bend_c, 7, 7968
8, 31304, Pitch_bend_c, 7, 7904
8, 31320, Note_off_c, 7, 55, 64
8, 31320, Pitch_bend_c, 7, 7840
8, 31356, Pitch_bend_c, 7, 8192
8, 31360, Note_on_c, 7, 55, 114
8, 31360, Pitch_bend_c, 7, 7936
8, 31364, Pitch_bend_c, 7, 8032
8, 31368, Pitch_bend_c, 7, 7808
8, 31384, Pitch_bend_c, 7, 7840
8, 31396, Pitch_bend_c, 7, 7872
8, 31404, Pitch_bend_c, 7, 7968
8, 31416, Pitch_bend_c, 7, 8032
8, 31424, Pitch_bend_c, 7, 7968
8, 31436, Pitch_bend_c, 7, 7776
8, 31444, Note_off_c, 7, 55, 64
8, 31444, Pitch_bend_c, 7, 7872
8, 31488, Pitch_bend_c, 7, 8192
8, 31496, Note_on_c, 7, 55, 114
8, 31496, Pitch_bend_c, 7, 8064
8, 31500, Pitch_bend_c, 7, 7936
8, 31508, Pitch_bend_c, 7, 7872
8, 31528, Pitch_bend_c, 7, 7904
8, 31540, Pitch_bend_c, 7, 7936
8, 31544, Pitch_bend_c, 7, 8000
8, 31568, Pitch_bend_c, 7, 7936
8, 31576, Note_off_c, 7, 55, 64
8, 31612, Pitch_bend_c, 7, 8192
8, 31620, Note_on_c, 7, 55, 113
8, 31624, Pitch_bend_c, 7, 7936
8, 31628, Pitch_bend_c, 7, 7872
8, 31632, Pitch_bend_c, 7, 7840
8, 31636, Pitch_bend_c, 7, 7776
8, 31644, Pitch_bend_c, 7, 7808
8, 31656, Pitch_bend_c, 7, 7872
8, 31668, Pitch_bend_c, 7, 7904
8, 31696, Pitch_bend_c, 7, 7872
8, 31704, Note_off_c, 7, 55, 64
8, 31744, Note_on_c, 7, 54, 116
8, 31744, Pitch_bend_c, 7, 10848
8, 31748, Pitch_bend_c, 7, 11392
8, 31752, Pitch_bend_c, 7, 11936
8, 31756, Pitch_bend_c, 7, 12000
8, 31768, Pitch_bend_c, 7, 11872
8, 31792, Pitch_bend_c, 7, 11904
8, 31800, Pitch_bend_c, 7, 11936
8, 31812, Pitch_bend_c, 7, 12096
8, 31820, Pitch_bend_c, 7, 12032
8, 31832, Note_off_c, 7, 54, 64
8, 31832, Pitch_bend_c, 7, 11936
8, 31868, Pitch_bend_c, 7, 8192
8, 31868, Note_on_c, 7, 54, 116
8, 31876, Pitch_bend_c, 7, 10368
8, 31880, Pitch_bend_c, 7, 11776
8, 31896, Pitch_bend_c, 7, 11808
8, 31916, Pitch_bend_c, 7, 11904
8, 31928, Pitch_bend_c, 7, 11936
8, 31944, Pitch_bend_c, 7, 11840
8, 31960, Note_off_c, 7, 54, 64
8, 31960, Pitch_bend_c, 7, 11808
8, 32000, Note_on_c, 7, 55, 114
8, 32000, Pitch_bend_c, 7, 8000
8, 32004, Pitch_bend_c, 7, 7968
8, 32008, Pitch_bend_c, 7, 7712
8, 32044, Pitch_bend_c, 7, 7840
8, 32056, Pitch_bend_c, 7, 7968
8, 32064, Pitch_bend_c, 7, 8032
8, 32076, Pitch_bend_c, 7, 7968
8, 32084, Note_off_c, 7, 55, 64
8, 32124, Pitch_bend_c, 7, 8192
8, 32128, Note_on_c, 7, 55, 113
8, 32128, Pitch_bend_c, 7, 8128
8, 32136, Pitch_bend_c, 7, 8160
8, 32140, Pitch_bend_c, 7, 8192
8, 32164, Pitch_bend_c, 7, 8160
8, 32172, Pitch_bend_c, 7, 8128
8, 32184, Pitch_bend_c, 7, 8096
8, 32204, Pitch_bend_c, 7, 8128
8, 32216, Pitch_bend_c, 7, 8192
8, 32220, Note_off_c, 7, 55, 64
8, 32384, Note_on_c, 7, 55, 110
8, 32384, Pitch_bend_c, 7, 7872
8, 32392, Pitch_bend_c, 7, 7968
8, 32420, Pitch_bend_c, 7, 8000
8, 32440, Pitch_bend_c, 7, 7872
8, 32452, Pitch_bend_c, 7, 7712
8, 32456, Note_off_c, 7, 55, 64
8, 32456, Pitch_bend_c, 7, 7936
8, 32500, Pitch_bend_c, 7, 8192
8, 32504, Note_on_c, 7, 55, 108
8, 32504, Pitch_bend_c, 7, 8032
8, 32576, Note_off_c, 7, 55, 64
8, 32576, Pitch_bend_c, 7, 8160
8, 32632, Note_on_c, 7, 54, 115
8, 32632, Pitch_bend_c, 7, 8192
8, 32636, Pitch_bend_c, 7, 11936
8, 32656, Pitch_bend_c, 7, 11968
8, 32668, Pitch_bend_c, 7, 12032
8, 32680, Pitch_bend_c, 7, 12064
8, 32688, Pitch_bend_c, 7, 12096
8, 32696, Pitch_bend_c, 7, 11904
8, 32708, Pitch_bend_c, 7, 11776
8, 32712, Note_off_c, 7, 54, 64
8, 32712, Pitch_bend_c, 7, 12032
8, 32760, Pitch_bend_c, 7, 8192
8, 32764, Note_on_c, 7, 55, 114
8, 32764, Pitch_bend_c, 7, 8032
8, 32772, Pitch_bend_c, 7, 8000
8, 32776, Pitch_bend_c, 7, 7872
8, 32792, Pitch_bend_c, 7, 7904
8, 32804, Pitch_bend_c, 7, 7840
8, 32812, Pitch_bend_c, 7, 7872
8, 32824, Pitch_bend_c, 7, 7968
8, 32840, Pitch_bend_c, 7, 7904
8, 32856, Note_off_c, 7, 55, 64
8, 32856, Pitch_bend_c, 7, 7840
8, 32892, Pitch_bend_c, 7, 8192
8, 32896, Note_on_c, 7, 55, 114
8, 32896, Pitch_bend_c, 7, 7936
8, 32900, Pitch_bend_c, 7, 8032
8, 32904, Pitch_bend_c, 7, 7808
8, 32920, Pitch_bend_c, 7, 7840
8, 32932, Pitch_bend_c, 7, 7872
8, 32940, Pitch_bend_c, 7, 7968
8, 32952, Pitch_bend_c, 7, 8032
8, 32960, Pitch_bend_c, 7, 7968
8, 32972, Pitch_bend_c, 7, 7776
8, 32980, Note_off_c, 7, 55, 64
8, 32980, Pitch_bend_c, 7, 7872
8, 33024, Pitch_bend_c, 7, 8192
8, 33032, Note_on_c, 7, 55, 114
8, 33032, Pitch_bend_c, 7, 8064
8, 33036, Pitch_bend_c, 7, 7936
8, 33044, Pitch_bend_c, 7, 7872
8, 33064, Pitch_bend_c, 7, 7904
8, 33076, Pitch_bend_c, 7, 7936
8, 33080, Pitch_bend_c, 7, 8000
8, 33104, Pitch_bend_c, 7, 7936
8, 33112, Note_off_c, 7, 55, 64
8, 33148, Pitch_bend_c, 7, 8192
8, 33156, Note_on_c, 7, 55, 113
8, 33160, Pitch_bend_c, 7, 7936
8, 33164, Pitch_bend_c, 7, 7872
8, 33168, Pitch_bend_c, 7, 7840
8, 33172, Pitch_bend_c, 7, 7776
8, 33180, Pitch_bend_c, 7, 7808
8, 33192, Pitch_bend_c, 7, 7872
8, 33204, Pitch_bend_c, 7, 7904
8, 33232, Pitch_bend_c, 7, 7872
8, 33240, Note_off_c, 7, 55, 64
8, 33280, Note_on_c, 7, 54, 116
8, 33280, Pitch_bend_c, 7, 10848
8, 33284, Pitch_bend_c, 7, 11392
8, 33288, Pitch_bend_c, 7, 11936
8, 33292, Pitch_bend_c, 7, 12000
8, 33304, Pitch_bend_c, 7, 11872
8, 33328, Pitch_bend_c, 7, 11904
8, 33336, Pitch_bend_c, 7, 11936
8, 33348, Pitch_bend_c, 7, 12096
8, 33356, Pitch_bend_c, 7, 12032
8, 33368, Note_off_c, 7, 54, 64
8, 33368, Pitch_bend_c, 7, 11936
8, 33404, Pitch_bend_c, 7, 8192
8, 33404, Note_on_c, 7, 54, 116
8, 33412, Pitch_bend_c, 7, 10368
8, 33416, Pitch_bend_c, 7, 11776
8, 33432, Pitch_bend_c, 7, 11808
8, 33452, Pitch_bend_c, 7, 11904
8, 33464, Pitch_bend_c, 7, 11936
8, 33480, Pitch_bend_c, 7, 11840
8, 33496, Note_off_c, 7, 54, 64
8, 33496, Pitch_bend_c, 7, 11808
8, 33536, Note_on_c, 7, 55, 114
8, 33536, Pitch_bend_c, 7, 8000
8, 33540, Pitch_bend_c, 7, 7968
8, 33544, Pitch_bend_c, 7, 7712
8, 33580, Pitch_bend_c, 7, 7840
8, 33592, Pitch_bend_c, 7, 7968
8, 33600, Pitch_bend_c, 7, 8032
8, 33612, Pitch_bend_c, 7, 7968
8, 33620, Note_off_c, 7, 55, 64
8, 33660, Pitch_bend_c, 7, 8192
8, 33664, Note_on_c, 7, 55, 113
8, 33664, Pitch_bend_c, 7, 8128
8, 33672, Pitch_bend_c, 7, 8160
8, 33676, Pitch_bend_c, 7, 8192
8, 33700, Pitch_bend_c, 7, 8160
8, 33708, Pitch_bend_c, 7, 8128
8, 33720, Pitch_bend_c, 7, 8096
8, 33740, Pitch_bend_c, 7, 8128
8, 33752, Pitch_bend_c, 7, 8192
8, 33756, Note_off_c, 7, 55, 64
8, 33912, Note_on_c, 7, 50, 85
8, 33912, Pitch_bend_c, 7, 8064
8, 33916, Pitch_bend_c, 7, 7968
8, 33976, Pitch_bend_c, 7, 7936
8, 33984, Note_off_c, 7, 50, 64
8, 33984, Pitch_bend_c, 7, 8064
8, 34044, Note_on_c, 7, 50, 89
8, 34044, Pitch_bend_c, 7, 8320
8, 34048, Pitch_bend_c, 7, 8096
8, 34056, Pitch_bend_c, 7, 7872
8, 34100, Pitch_bend_c, 7, 7904
8, 34132, Pitch_bend_c, 7, 7872
8, 34140, Pitch_bend_c, 7, 7840
8, 34156, Note_off_c, 7, 50, 64
8, 34156, Pitch_bend_c, 7, 7872
8, 34176, Pitch_bend_c, 7, 8192
8, 34184, Note_on_c, 7, 50, 101
8, 34184, Pitch_bend_c, 7, 8384
8, 34188, Pitch_bend_c, 7, 8000
8, 34192, Pitch_bend_c, 7, 8032
8, 34200, Pitch_bend_c, 7, 8000
8, 34232, Pitch_bend_c, 7, 7776
8, 34244, Note_off_c, 7, 50, 64
8, 34244, Pitch_bend_c, 7, 8000
8, 34304, Pitch_bend_c, 7, 8192
8, 34312, Note_on_c, 7, 50, 106
8, 34312, Pitch_bend_c, 7, 8224
8, 34316, Pitch_bend_c, 7, 8000
8, 34360, Pitch_bend_c, 7, 7936
8, 34372, Note_off_c, 7, 50, 64
8, 34372, Pitch_bend_c, 7, 8224
8, 34440, Pitch_bend_c, 7, 8192
8, 34444, Note_on_c, 7, 50, 103
8, 34448, Pitch_bend_c, 7, 8448
8, 34452, Pitch_bend_c, 7, 8000
8, 34456, Pitch_bend_c, 7, 8032
8, 34464, Pitch_bend_c, 7, 8000
8, 34488, Pitch_bend_c, 7, 7968
8, 34492, Pitch_bend_c, 7, 7840
8, 34504, Pitch_bend_c, 7, 7776
8, 34512, Note_off_c, 7, 50, 64
8, 34512, Pitch_bend_c, 7, 8000
8, 34568, Pitch_bend_c, 7, 8192
8, 34572, Note_on_c, 7, 50, 106
8, 34572, Pitch_bend_c, 7, 8064
8, 34580, Pitch_bend_c, 7, 8032
8, 34624, Pitch_bend_c, 7, 8000
8, 34632, Pitch_bend_c, 7, 7840
8, 34640, Note_off_c, 7, 50, 64
8, 34640, Pitch_bend_c, 7, 8064
8, 34696, Note_on_c, 7, 50, 104
8, 34696, Pitch_bend_c, 7, 8192
8, 34700, Pitch_bend_c, 7, 8448
8, 34704, Pitch_bend_c, 7, 8192
8, 34708, Pitch_bend_c, 7, 8032
8, 34752, Pitch_bend_c, 7, 8000
8, 34760, Pitch_bend_c, 7, 7904
8, 34772, Note_off_c, 7, 50, 64
8, 34772, Pitch_bend_c, 7, 8032
8, 34820, Pitch_bend_c, 7, 8192
8, 34824, Note_on_c, 7, 50, 107
8, 34824, Pitch_bend_c, 7, 8608
8, 34832, Pitch_bend_c, 7, 7936
8, 34840, Pitch_bend_c, 7, 8000
8, 34872, Pitch_bend_c, 7, 8032
8, 34892, Pitch_bend_c, 7, 7776
8, 34904, Note_off_c, 7, 50, 64
8, 34904, Pitch_bend_c, 7, 7936
8, 34952, Note_on_c, 7, 50, 106
8, 34952, Pitch_bend_c, 7, 8832
8, 34956, Pitch_bend_c, 7, 8608
8, 34964, Pitch_bend_c, 7, 8032
8, 35016, Pitch_bend_c, 7, 7872
8, 35028, Pitch_bend_c, 7, 7776
8, 35032, Note_off_c, 7, 50, 64
8, 35032, Pitch_bend_c, 7, 8032
8, 35076, Pitch_bend_c, 7, 8192
8, 35080, Note_on_c, 7, 50, 107
8, 35080, Pitch_bend_c, 7, 8000
8, 35088, Pitch_bend_c, 7, 8032
8, 35136, Pitch_bend_c, 7, 7904
8, 35144, Pitch_bend_c, 7, 7776
8, 35152, Note_off_c, 7, 50, 64
8, 35152, Pitch_bend_c, 7, 8032
8, 35204, Pitch_bend_c, 7, 8192
8, 35208, Note_on_c, 7, 50, 108
8, 35208, Pitch_bend_c, 7, 8096
8, 35232, Pitch_bend_c, 7, 8064
8, 35240, Pitch_bend_c, 7, 8032
8, 35260, Pitch_bend_c, 7, 8000
8, 35272, Pitch_bend_c, 7, 7904
8, 35284, Pitch_bend_c, 7, 7808
8, 35288, Note_off_c, 7, 50, 64
8, 35288, Pitch_bend_c, 7, 8064
8, 35456, Pitch_bend_c, 7, 8192
8, 35464, Note_on_c, 7, 50, 94
8, 35464, Pitch_bend_c, 7, 7968
8, 35480, Pitch_bend_c, 7, 7936
8, 35500, Pitch_bend_c, 7, 7808
8, 35512, Note_off_c, 7, 50, 64
8, 35512, Pitch_bend_c, 7, 7936
8, 35584, Note_on_c, 7, 50, 98
8, 35584, Pitch_bend_c, 7, 8000
8, 35628, Pitch_bend_c, 7, 7968
8, 35640, Pitch_bend_c, 7, 7936
8, 35648, Pitch_bend_c, 7, 7776
8, 35652, Note_off_c, 7, 50, 64
8, 35652, Pitch_bend_c, 7, 8000
8, 35712, Note_on_c, 7, 50, 106
8, 35712, Pitch_bend_c, 7, 8032
8, 35748, Pitch_bend_c, 7, 8000
8, 35756, Pitch_bend_c, 7, 8032
8, 35780, Pitch_bend_c, 7, 7872
8, 35784, Pitch_bend_c, 7, 7776
8, 35788, Note_off_c, 7, 50, 64
8, 35788, Pitch_bend_c, 7, 8032
8, 35840, Note_on_c, 7, 50, 106
8, 35840, Pitch_bend_c, 7, 8256
8, 35844, Pitch_bend_c, 7, 8000
8, 35912, Pitch_bend_c, 7, 7936
8, 35924, Note_off_c, 7, 50, 64
8, 35924, Pitch_bend_c, 7, 8256
8, 35972, Pitch_bend_c, 7, 8192
8, 35976, Note_on_c, 7, 50, 106
8, 35976, Pitch_bend_c, 7, 7968
8, 35980, Pitch_bend_c, 7, 8032
8, 36008, Pitch_bend_c, 7, 8000
8, 36048, Pitch_bend_c, 7, 7872
8, 36056, Note_off_c, 7, 50, 64
8, 36056, Pitch_bend_c, 7, 8000
8, 36104, Pitch_bend_c, 7, 8192
8, 36108, Note_on_c, 7, 50, 107
8, 36108, Pitch_bend_c, 7, 8032
8, 36152, Pitch_bend_c, 7, 8000
8, 36164, Pitch_bend_c, 7, 8032
8, 36176, Pitch_bend_c, 7, 7968
8, 36184, Note_off_c, 7, 50, 64
8, 36184, Pitch_bend_c, 7, 8032
8, 36232, Pitch_bend_c, 7, 8192
8, 36236, Note_on_c, 7, 50, 108
8, 36240, Pitch_bend_c, 7, 8000
8, 36244, Pitch_bend_c, 7, 8032
8, 36288, Pitch_bend_c, 7, 8000
8, 36300, Pitch_bend_c, 7, 7840
8, 36312, Pitch_bend_c, 7, 7648
8, 36320, Note_off_c, 7, 50, 64
8, 36320, Pitch_bend_c, 7, 8032
8, 36360, Pitch_bend_c, 7, 8192
8, 36364, Note_on_c, 7, 50, 107
8, 36368, Pitch_bend_c, 7, 8032
8, 36384, Pitch_bend_c, 7, 8064
8, 36392, Pitch_bend_c, 7, 8032
8, 36404, Pitch_bend_c, 7, 8064
8, 36412, Pitch_bend_c, 7, 8096
8, 36424, Pitch_bend_c, 7, 8064
8, 36436, Pitch_bend_c, 7, 7808
8, 36444, Note_off_c, 7, 50, 64
8, 36444, Pitch_bend_c, 7, 8032
8, 36488, Pitch_bend_c, 7, 8192
8, 36488, Note_on_c, 7, 50, 108
8, 36500, Pitch_bend_c, 7, 8320
8, 36504, Pitch_bend_c, 7, 8192
8, 36532, Pitch_bend_c, 7, 8160
8, 36540, Pitch_bend_c, 7, 8128
8, 36552, Pitch_bend_c, 7, 8096
8, 36560, Pitch_bend_c, 7, 7936
8, 36572, Pitch_bend_c, 7, 7744
8, 36580, Note_off_c, 7, 50, 64
8, 36580, Pitch_bend_c, 7, 8160
8, 36604, Pitch_bend_c, 7, 8192
8, 36616, Note_on_c, 7, 50, 106
8, 36616, Pitch_bend_c, 7, 8832
8, 36620, Pitch_bend_c, 7, 8000
8, 36624, Pitch_bend_c, 7, 8032
8, 36628, Pitch_bend_c, 7, 8064
8, 36632, Pitch_bend_c, 7, 8096
8, 36680, Pitch_bend_c, 7, 8000
8, 36692, Note_off_c, 7, 50, 64
8, 36692, Pitch_bend_c, 7, 8032
8, 36728, Pitch_bend_c, 7, 8192
8, 36736, Note_on_c, 7, 50, 98
8, 36740, Pitch_bend_c, 7, 8704
8, 36744, Pitch_bend_c, 7, 8064
8, 36760, Pitch_bend_c, 7, 8032
8, 36788, Pitch_bend_c, 7, 8000
8, 36808, Pitch_bend_c, 7, 7840
8, 36820, Pitch_bend_c, 7, 7648
8, 36824, Note_off_c, 7, 50, 64
8, 36824, Pitch_bend_c, 7, 8032
8, 36960, Pitch_bend_c, 7, 8192
8, 36964, Note_on_c, 7, 55, 102
8, 36968, Pitch_bend_c, 7, 8032
8, 37028, Pitch_bend_c, 7, 8000
8, 37036, Pitch_bend_c, 7, 5792
8, 37048, Note_off_c, 7, 55, 64
8, 37048, Pitch_bend_c, 7, 8160
8, 37100, Pitch_bend_c, 7, 8192
8, 37104, Note_on_c, 7, 55, 106
8, 37104, Pitch_bend_c, 7, 8128
8, 37108, Pitch_bend_c, 7, 8000
8, 37112, Pitch_bend_c, 7, 8032
8, 37160, Pitch_bend_c, 7, 5888
8, 37168, Note_off_c, 7, 55, 64
8, 37168, Pitch_bend_c, 7, 8256
8, 37240, Pitch_bend_c, 7, 8192
8, 37240, Note_on_c, 7, 55, 112
8, 37248, Pitch_bend_c, 7, 8096
8, 37268, Pitch_bend_c, 7, 8032
8, 37288, Pitch_bend_c, 7, 8000
8, 37296, Pitch_bend_c, 7, 7840
8, 37308, Note_off_c, 7, 55, 64
8, 37308, Pitch_bend_c, 7, 8032
8, 37368, Pitch_bend_c, 7, 8192
8, 37372, Note_on_c, 7, 55, 114
8, 37376, Pitch_bend_c, 7, 8032
8, 37428, Pitch_bend_c, 7, 7872
8, 37440, Pitch_bend_c, 7, 7712
8, 37444, Note_off_c, 7, 55, 64
8, 37444, Pitch_bend_c, 7, 8032
8, 37496, Pitch_bend_c, 7, 8192
8, 37500, Note_on_c, 7, 55, 114
8, 37500, Pitch_bend_c, 7, 8032
8, 37512, Pitch_bend_c, 7, 8000
8, 37536, Pitch_bend_c, 7, 8032
8, 37564, Pitch_bend_c, 7, 7808
8, 37576, Note_off_c, 7, 55, 64
8, 37576, Pitch_bend_c, 7, 8032
8, 37624, Pitch_bend_c, 7, 8192
8, 37636, Note_on_c, 7, 55, 114
8, 37636, Pitch_bend_c, 7, 8032
8, 37696, Pitch_bend_c, 7, 7872
8, 37708, Pitch_bend_c, 7, 7552
8, 37712, Note_off_c, 7, 55, 64
8, 37712, Pitch_bend_c, 7, 8032
8, 37752, Pitch_bend_c, 7, 8192
8, 37756, Note_on_c, 7, 55, 113
8, 37756, Pitch_bend_c, 7, 8032
8, 37780, Pitch_bend_c, 7, 7872
8, 37788, Pitch_bend_c, 7, 7808
8, 37808, Pitch_bend_c, 7, 7776
8, 37820, Pitch_bend_c, 7, 7904
8, 37832, Pitch_bend_c, 7, 7872
8, 37844, Pitch_bend_c, 7, 7808
8, 37852, Pitch_bend_c, 7, 7712
8, 37864, Note_off_c, 7, 55, 64
8, 37864, Pitch_bend_c, 7, 7776
8, 37880, Pitch_bend_c, 7, 8192
8, 37892, Note_on_c, 7, 55, 114
8, 37892, Pitch_bend_c, 7, 8032
8, 37924, Pitch_bend_c, 7, 8064
8, 37932, Pitch_bend_c, 7, 8032
8, 37960, Pitch_bend_c, 7, 7648
8, 37968, Note_off_c, 7, 55, 64
8, 37968, Pitch_bend_c, 7, 8032
8, 38008, Pitch_bend_c, 7, 8192
8, 38020, Note_on_c, 7, 55, 114
8, 38024, Pitch_bend_c, 7, 7904
8, 38028, Pitch_bend_c, 7, 7936
8, 38032, Pitch_bend_c, 7, 7904
8, 38040, Pitch_bend_c, 7, 7936
8, 38072, Pitch_bend_c, 7, 8000
8, 38084, Pitch_bend_c, 7, 7872
8, 38096, Pitch_bend_c, 7, 7776
8, 38100, Pitch_bend_c, 7, 7904
8, 38104, Note_off_c, 7, 55, 64
8, 38136, Pitch_bend_c, 7, 8192
8, 38144, Note_on_c, 7, 55, 113
8, 38144, Pitch_bend_c, 7, 7872
8, 38176, Pitch_bend_c, 7, 7936
8, 38208, Pitch_bend_c, 7, 7968
8, 38216, Pitch_bend_c, 7, 7712
8, 38224, Pitch_bend_c, 7, 7872
8, 38228, Note_off_c, 7, 55, 64
8, 38268, Pitch_bend_c, 7, 8192
8, 38276, Note_on_c, 7, 55, 113
8, 38276, Pitch_bend_c, 7, 7872
8, 38280, Pitch_bend_c, 7, 7968
8, 38344, Pitch_bend_c, 7, 8000
8, 38352, Pitch_bend_c, 7, 7904
8, 38360, Note_off_c, 7, 55, 64
8, 38360, Pitch_bend_c, 7, 7968
8, 38536, Pitch_bend_c, 7, 8192
8, 38540, Note_on_c, 7, 55, 110
8, 38540, Pitch_bend_c, 7, 8032
8, 38596, Pitch_bend_c, 7, 7872
8, 38604, Pitch_bend_c, 7, 8032
8, 38608, Note_off_c, 7, 55, 64
8, 38664, Pitch_bend_c, 7, 8192
8, 38672, Note_on_c, 7, 55, 111
8, 38672, Pitch_bend_c, 7, 8576
8, 38676, Pitch_bend_c, 7, 8128
8, 38680, Pitch_bend_c, 7, 8000
8, 38704, Pitch_bend_c, 7, 8032
8, 38732, Pitch_bend_c, 7, 7968
8, 38744, Note_off_c, 7, 55, 64
8, 38792, Note_on_c, 7, 55, 112
8, 38792, Pitch_bend_c, 7, 8736
8, 38796, Pitch_bend_c, 7, 7968
8, 38800, Pitch_bend_c, 7, 8032
8, 38808, Pitch_bend_c, 7, 8064
8, 38812, Pitch_bend_c, 7, 8032
8, 38824, Pitch_bend_c, 7, 7936
8, 38840, Pitch_bend_c, 7, 7904
8, 38872, Note_off_c, 7, 55, 64
8, 38872, Pitch_bend_c, 7, 8032
8, 38920, Pitch_bend_c, 7, 8192
8, 38924, Note_on_c, 7, 55, 113
8, 38928, Pitch_bend_c, 7, 7904
8, 38936, Pitch_bend_c, 7, 7872
8, 38948, Pitch_bend_c, 7, 7808
8, 38968, Pitch_bend_c, 7, 7872
8, 38980, Pitch_bend_c, 7, 7904
8, 38984, Pitch_bend_c, 7, 7936
8, 39000, Note_off_c, 7, 55, 64
8, 39000, Pitch_bend_c, 7, 7872
8, 39048, Pitch_bend_c, 7, 8192
8, 39052, Note_on_c, 7, 55, 114
8, 39056, Pitch_bend_c, 7, 7904
8, 39072, Pitch_bend_c, 7, 7968
8, 39096, Pitch_bend_c, 7, 8000
8, 39112, Pitch_bend_c, 7, 7872
8, 39124, Pitch_bend_c, 7, 7744
8, 39128, Note_off_c, 7, 55, 64
8, 39128, Pitch_bend_c, 7, 7904
8, 39168, Pitch_bend_c, 7, 8192
8, 39176, Note_on_c, 7, 55, 114
8, 39176, Pitch_bend_c, 7, 7712
8, 39180, Pitch_bend_c, 7, 7808
8, 39196, Pitch_bend_c, 7, 7904
8, 39208, Pitch_bend_c, 7, 8032
8, 39220, Pitch_bend_c, 7, 8000
8, 39236, Pitch_bend_c, 7, 7968
8, 39248, Pitch_bend_c, 7, 7936
8, 39252, Note_off_c, 7, 55, 64
8, 39300, Pitch_bend_c, 7, 8192
8, 39304, Note_on_c, 7, 55, 114
8, 39308, Pitch_bend_c, 7, 7968
8, 39312, Pitch_bend_c, 7, 7552
8, 39324, Pitch_bend_c, 7, 7648
8, 39336, Pitch_bend_c, 7, 7680
8, 39348, Pitch_bend_c, 7, 7840
8, 39356, Pitch_bend_c, 7, 8032
8, 39368, Pitch_bend_c, 7, 7968
8, 39376, Pitch_bend_c, 7, 7936
8, 39380, Note_off_c, 7, 55, 64
8, 39420, Pitch_bend_c, 7, 8192
8, 39428, Note_on_c, 7, 55, 114
8, 39428, Pitch_bend_c, 7, 7872
8, 39432, Pitch_bend_c, 7, 7936
8, 39456, Pitch_bend_c, 7, 7968
8, 39480, Pitch_bend_c, 7, 8000
8, 39492, Pitch_bend_c, 7, 7872
8, 39500, Pitch_bend_c, 7, 7744
8, 39504, Note_off_c, 7, 55, 64
8, 39504, Pitch_bend_c, 7, 7936
8, 39552, Pitch_bend_c, 7, 8192
8, 39556, Note_on_c, 7, 55, 114
8, 39556, Pitch_bend_c, 7, 7936
8, 39560, Pitch_bend_c, 7, 7712
8, 39564, Pitch_bend_c, 7, 7648
8, 39576, Pitch_bend_c, 7, 7712
8, 39588, Pitch_bend_c, 7, 7808
8, 39600, Pitch_bend_c, 7, 7872
8, 39608, Pitch_bend_c, 7, 8032
8, 39620, Pitch_bend_c, 7, 7904
8, 39624, Note_off_c, 7, 55, 64
8, 39672, Pitch_bend_c, 7, 8192
8, 39676, Note_on_c, 7, 55, 113
8, 39676, Pitch_bend_c, 7, 7808
8, 39680, Pitch_bend_c, 7, 7936
8, 39704, Pitch_bend_c, 7, 7968
8, 39716, Pitch_bend_c, 7, 8032
8, 39720, Pitch_bend_c, 7, 8000
8, 39736, Pitch_bend_c, 7, 8032
8, 39744, Pitch_bend_c, 7, 7904
8, 39752, Note_off_c, 7, 55, 64
8, 39752, Pitch_bend_c, 7, 8032
8, 39804, Pitch_bend_c, 7, 8192
8, 39808, Note_on_c, 7, 55, 114
8, 39808, Pitch_bend_c, 7, 7840
8, 39812, Pitch_bend_c, 7, 7936
8, 39816, Pitch_bend_c, 7, 7968
8, 39820, Pitch_bend_c, 7, 7936
8, 39832, Pitch_bend_c, 7, 7968
8, 39844, Pitch_bend_c, 7, 8000
8, 39864, Pitch_bend_c, 7, 7968
8, 39872, Pitch_bend_c, 7, 7872
8, 39884, Note_off_c, 7, 55, 64
8, 39884, Pitch_bend_c, 7, 7968
8, 39912, Pitch_bend_c, 7, 8192
8, 39920, Pitch_bend_c, 7, 7680
8, 39980, Pitch_bend_c, 7, 7712
8, 39992, Pitch_bend_c, 7, 8192
8, 40084, Note_on_c, 7, 57, 110
8, 40084, Pitch_bend_c, 7, 7904
8, 40092, Pitch_bend_c, 7, 7936
8, 40116, Pitch_bend_c, 7, 7968
8, 40136, Pitch_bend_c, 7, 7744
8, 40148, Note_off_c, 7, 57, 64
8, 40148, Pitch_bend_c, 7, 7904
8, 40204, Pitch_bend_c, 7, 8192
8, 40212, Note_on_c, 7, 57, 110
8, 40212, Pitch_bend_c, 7, 8000
8, 40216, Pitch_bend_c, 7, 7968
8, 40232, Pitch_bend_c, 7, 8000
8, 40252, Pitch_bend_c, 7, 7968
8, 40264, Pitch_bend_c, 7, 7872
8, 40272, Pitch_bend_c, 7, 7744
8, 40276, Note_off_c, 7, 57, 64
8, 40276, Pitch_bend_c, 7, 7968
8, 40332, Pitch_bend_c, 7, 8192
8, 40340, Note_on_c, 7, 57, 108
8, 40340, Pitch_bend_c, 7, 8256
8, 40344, Pitch_bend_c, 7, 8000
8, 40380, Pitch_bend_c, 7, 7968
8, 40392, Pitch_bend_c, 7, 7808
8, 40400, Pitch_bend_c, 7, 7648
8, 40408, Note_off_c, 7, 57, 64
8, 40408, Pitch_bend_c, 7, 8096
8, 40456, Pitch_bend_c, 7, 8192
8, 40464, Note_on_c, 7, 57, 108
8, 40464, Pitch_bend_c, 7, 8256
8, 40468, Pitch_bend_c, 7, 8032
8, 40472, Pitch_bend_c, 7, 8000
8, 40516, Pitch_bend_c, 7, 7840
8, 40524, Pitch_bend_c, 7, 7680
8, 40532, Note_off_c, 7, 57, 64
8, 40532, Pitch_bend_c, 7, 8128
8, 40584, Note_on_c, 7, 57, 108
8, 40584, Pitch_bend_c, 7, 8192
8, 40588, Pitch_bend_c, 7, 7968
8, 40592, Pitch_bend_c, 7, 7936
8, 40636, Pitch_bend_c, 7, 7872
8, 40648, Pitch_bend_c, 7, 7712
8, 40660, Note_off_c, 7, 57, 64
8, 40660, Pitch_bend_c, 7, 8192
8, 40716, Note_on_c, 7, 57, 110
8, 40716, Pitch_bend_c, 7, 7936
8, 40732, Pitch_bend_c, 7, 7968
8, 40764, Pitch_bend_c, 7, 8000
8, 40780, Pitch_bend_c, 7, 7872
8, 40788, Note_off_c, 7, 57, 64
8, 40788, Pitch_bend_c, 7, 7904
8, 40836, Pitch_bend_c, 7, 8192
8, 40840, Note_on_c, 7, 57, 107
8, 40840, Pitch_bend_c, 7, 7968
8, 40856, Pitch_bend_c, 7, 7936
8, 40880, Pitch_bend_c, 7, 7904
8, 40900, Pitch_bend_c, 7, 7872
8, 40908, Pitch_bend_c, 7, 7776
8, 40920, Note_off_c, 7, 57, 64
8, 40920, Pitch_bend_c, 7, 7936
8, 40964, Pitch_bend_c, 7, 8192
8, 40968, Note_on_c, 7, 57, 108
8, 40972, Pitch_bend_c, 7, 8032
8, 40976, Pitch_bend_c, 7, 7936
8, 40980, Pitch_bend_c, 7, 7904
8, 41012, Pitch_bend_c, 7, 7936
8, 41020, Pitch_bend_c, 7, 7968
8, 41032, Pitch_bend_c, 7, 7808
8, 41040, Pitch_bend_c, 7, 7680
8, 41048, Note_off_c, 7, 57, 64
8, 41048, Pitch_bend_c, 7, 7904
8, 41092, Pitch_bend_c, 7, 8192
8, 41096, Note_on_c, 7, 57, 107
8, 41096, Pitch_bend_c, 7, 7872
8, 41152, Pitch_bend_c, 7, 7904
8, 41164, Pitch_bend_c, 7, 7744
8, 41176, Note_off_c, 7, 57, 64
8, 41176, Pitch_bend_c, 7, 7936
8, 41488, Pitch_bend_c, 7, 8192
8, 41492, Note_on_c, 7, 53, 115
8, 41496, Pitch_bend_c, 7, 8096
8, 41544, Pitch_bend_c, 7, 8064
8, 41560, Pitch_bend_c, 7, 8032
8, 41568, Pitch_bend_c, 7, 8064
8, 41596, Pitch_bend_c, 7, 8000
8, 41608, Pitch_bend_c, 7, 7872
8, 41620, Pitch_bend_c, 7, 7744
8, 41624, Note_off_c, 7, 53, 64
8, 41624, Pitch_bend_c, 7, 8032
8, 41736, Pitch_bend_c, 7, 8192
8, 41740, Note_on_c, 7, 53, 112
8, 41748, Pitch_bend_c, 7, 8288
8, 41752, Pitch_bend_c, 7, 8096
8, 41756, Pitch_bend_c, 7, 8160
8, 41768, Pitch_bend_c, 7, 8128
8, 41788, Pitch_bend_c, 7, 8096
8, 41820, Pitch_bend_c, 7, 8064
8, 41832, Pitch_bend_c, 7, 8000
8, 41852, Pitch_bend_c, 7, 8096
8, 41864, Note_off_c, 7, 53, 64
8, 41864, Pitch_bend_c, 7, 8160
8, 41880, Note_on_c, 7, 51, 100
8, 41880, Pitch_bend_c, 7, 8064
8, 41892, Pitch_bend_c, 7, 8128
8, 41912, Pitch_bend_c, 7, 8096
8, 41932, Pitch_bend_c, 7, 8064
8, 41952, Pitch_bend_c, 7, 8032
8, 41964, Pitch_bend_c, 7, 8000
8, 41976, Pitch_bend_c, 7, 7936
8, 41984, Pitch_bend_c, 7, 7776
8, 41992, Pitch_bend_c, 7, 7648
8, 41996, Note_off_c, 7, 51, 64
8, 41996, Pitch_bend_c, 7, 8032
8, 42104, Note_on_c, 7, 51, 99
8, 42104, Pitch_bend_c, 7, 7968
8, 42116, Pitch_bend_c, 7, 8000
8, 42160, Pitch_bend_c, 7, 7936
8, 42188, Pitch_bend_c, 7, 7904
8, 42200, Pitch_bend_c, 7, 7872
8, 42212, Pitch_bend_c, 7, 7808
8, 42216, Note_off_c, 7, 51, 64
8, 42216, Pitch_bend_c, 7, 7936
8, 42252, Pitch_bend_c, 7, 8192
8, 42260, Note_on_c, 7, 50, 98
8, 42260, Pitch_bend_c, 7, 8128
8, 42288, Pitch_bend_c, 7, 8096
8, 42308, Pitch_bend_c, 7, 8032
8, 42320, Pitch_bend_c, 7, 8000
8, 42328, Pitch_bend_c, 7, 7968
8, 42340, Pitch_bend_c, 7, 10560
8, 42348, Pitch_bend_c, 7, 7712
8, 42356, Note_off_c, 7, 50, 64
8, 42356, Pitch_bend_c, 7, 8032
8, 42504, Pitch_bend_c, 7, 8192
8, 42512, Note_on_c, 7, 50, 101
8, 42512, Pitch_bend_c, 7, 8480
8, 42516, Pitch_bend_c, 7, 8224
8, 42520, Pitch_bend_c, 7, 8032
8, 42552, Pitch_bend_c, 7, 8000
8, 42600, Pitch_bend_c, 7, 7936
8, 42616, Note_off_c, 7, 50, 64
8, 42616, Pitch_bend_c, 7, 8032
8, 42656, Pitch_bend_c, 7, 8192
8, 42660, Note_on_c, 7, 48, 94
8, 42664, Pitch_bend_c, 7, 8160
8, 42692, Pitch_bend_c, 7, 8192
8, 42748, Pitch_bend_c, 7, 8128
8, 42756, Pitch_bend_c, 7, 7936
8, 42764, Pitch_bend_c, 7, 7808
8, 42768, Note_off_c, 7, 48, 64
8, 42768, Pitch_bend_c, 7, 8192
8, 42884, Note_on_c, 7, 48, 102
8, 42888, Pitch_bend_c, 7, 8000
8, 42952, Pitch_bend_c, 7, 8032
8, 42976, Pitch_bend_c, 7, 8000
8, 42984, Pitch_bend_c, 7, 7968
8, 42996, Pitch_bend_c, 7, 7872
8, 43004, Note_off_c, 7, 48, 64
8, 43004, Pitch_bend_c, 7, 8032
8, 43008, Note_on_c, 7, 46, 106
8, 43012, Pitch_bend_c, 7, 7904
8, 43016, Pitch_bend_c, 7, 8000
8, 43020, Pitch_bend_c, 7, 8032
8, 43028, Pitch_bend_c, 7, 8064
8, 43040, Pitch_bend_c, 7, 8128
8, 43060, Pitch_bend_c, 7, 8192
8, 43088, Pitch_bend_c, 7, 8256
8, 43112, Pitch_bend_c, 7, 8192
8, 43124, Note_off_c, 7, 46, 64
8, 43668, Note_on_c, 7, 49, 104
8, 43668, Pitch_bend_c, 7, 8224
8, 43672, Pitch_bend_c, 7, 8128
8, 43680, Pitch_bend_c, 7, 8160
8, 43700, Pitch_bend_c, 7, 8128
8, 43708, Pitch_bend_c, 7, 8096
8, 43720, Pitch_bend_c, 7, 8064
8, 43740, Pitch_bend_c, 7, 8032
8, 43760, Pitch_bend_c, 7, 8000
8, 43768, Pitch_bend_c, 7, 7968
8, 43784, Pitch_bend_c, 7, 8096
8, 43788, Note_off_c, 7, 49, 64
8, 43804, Pitch_bend_c, 7, 8192
8, 43808, Note_on_c, 7, 50, 97
8, 43816, Pitch_bend_c, 7, 8000
8, 43844, Pitch_bend_c, 7, 7968
8, 43864, Pitch_bend_c, 7, 8000
8, 43896, Pitch_bend_c, 7, 7968
8, 43904, Pitch_bend_c, 7, 7936
8, 43924, Pitch_bend_c, 7, 7904
8, 43932, Pitch_bend_c, 7, 7872
8, 43944, Pitch_bend_c, 7, 7776
8, 43984, Pitch_bend_c, 7, 7840
8, 43992, Pitch_bend_c, 7, 7808
8, 44008, Pitch_bend_c, 7, 7776
8, 44112, Pitch_bend_c, 7, 7808
8, 44156, Note_off_c, 7, 50, 64
8, 44156, Pitch_bend_c, 7, 7776
8, 44176, Pitch_bend_c, 7, 8192
8, 44180, Note_on_c, 7, 53, 112
8, 44180, Pitch_bend_c, 7, 8288
8, 44184, Pitch_bend_c, 7, 8192
8, 44188, Pitch_bend_c, 7, 8160
8, 44192, Pitch_bend_c, 7, 8128
8, 44204, Pitch_bend_c, 7, 8096
8, 44216, Pitch_bend_c, 7, 8064
8, 44248, Pitch_bend_c, 7, 8096
8, 44256, Pitch_bend_c, 7, 8064
8, 44264, Pitch_bend_c, 7, 8000
8, 44308, Pitch_bend_c, 7, 7968
8, 44316, Pitch_bend_c, 7, 7904
8, 44328, Note_off_c, 7, 53, 64
8, 44328, Pitch_bend_c, 7, 8000
8, 44528, Pitch_bend_c, 7, 8192
8, 44532, Note_on_c, 7, 46, 97
8, 44536, Pitch_bend_c, 7, 8224
8, 44540, Pitch_bend_c, 7, 8192
8, 44616, Pitch_bend_c, 7, 8160
8, 44628, Pitch_bend_c, 7, 8128
8, 44648, Pitch_bend_c, 7, 8096
8, 44652, Note_off_c, 7, 46, 64
8, 44652, Pitch_bend_c, 7, 8192
8, 45176, Note_on_c, 7, 49, 95
8, 45176, Pitch_bend_c, 7, 8320
8, 45180, Pitch_bend_c, 7, 8032
8, 45184, Pitch_bend_c, 7, 8064
8, 45224, Pitch_bend_c, 7, 8032
8, 45236, Pitch_bend_c, 7, 8000
8, 45244, Pitch_bend_c, 7, 8032
8, 45256, Pitch_bend_c, 7, 8000
8, 45264, Pitch_bend_c, 7, 7968
8, 45284, Pitch_bend_c, 7, 7936
8, 45304, Pitch_bend_c, 7, 8064
8, 45308, Note_off_c, 7, 49, 64
8, 45320, Note_on_c, 7, 50, 94
8, 45320, Pitch_bend_c, 7, 8192
8, 45324, Pitch_bend_c, 7, 8352
8, 45328, Pitch_bend_c, 7, 7968
8, 45352, Pitch_bend_c, 7, 7936
8, 45416, Pitch_bend_c, 7, 7904
8, 45448, Pitch_bend_c, 7, 7872
8, 45468, Pitch_bend_c, 7, 7840
8, 45516, Pitch_bend_c, 7, 7808
8, 45544, Pitch_bend_c, 7, 7776
8, 45552, Pitch_bend_c, 7, 7808
8, 45584, Pitch_bend_c, 7, 7840
8, 45676, Pitch_bend_c, 7, 7712
8, 45688, Note_off_c, 7, 50, 64
8, 45688, Pitch_bend_c, 7, 7840
8, 45692, Pitch_bend_c, 7, 8192
8, 45696, Note_on_c, 7, 53, 114
8, 45696, Pitch_bend_c, 7, 8640
8, 45704, Pitch_bend_c, 7, 8096
8, 45736, Pitch_bend_c, 7, 8128
8, 45768, Pitch_bend_c, 7, 8096
8, 45780, Pitch_bend_c, 7, 8032
8, 45788, Pitch_bend_c, 7, 8000
8, 45800, Pitch_bend_c, 7, 7968
8, 45808, Pitch_bend_c, 7, 7904
8, 45820, Pitch_bend_c, 7, 7840
8, 45832, Pitch_bend_c, 7, 7744
8, 45840, Pitch_bend_c, 7, 7616
8, 45844, Note_off_c, 7, 53, 64
8, 45844, Pitch_bend_c, 7, 7968
8, 46096, Pitch_bend_c, 7, 8192
8, 46100, Note_on_c, 7, 51, 92
8, 46104, Pitch_bend_c, 7, 7936
8, 46108, Pitch_bend_c, 7, 8000
8, 46120, Pitch_bend_c, 7, 7936
8, 46172, Pitch_bend_c, 7, 7904
8, 46184, Pitch_bend_c, 7, 7872
8, 46204, Pitch_bend_c, 7, 7808
8, 46216, Pitch_bend_c, 7, 7616
8, 46220, Note_off_c, 7, 51, 64
8, 46220, Pitch_bend_c, 7, 7904
8, 46696, Note_on_c, 7, 53, 118
8, 46696, Pitch_bend_c, 7, 8192
8, 46704, Pitch_bend_c, 7, 12096
8, 46712, Pitch_bend_c, 7, 12128
8, 46736, Pitch_bend_c, 7, 12064
8, 46748, Pitch_bend_c, 7, 12032
8, 46792, Pitch_bend_c, 7, 12000
8, 46800, Pitch_bend_c, 7, 11904
8, 46808, Pitch_bend_c, 7, 12032
8, 46824, Pitch_bend_c, 7, 12160
8, 46836, Note_off_c, 7, 53, 64
8, 46840, Pitch_bend_c, 7, 8192
8, 46844, Note_on_c, 7, 55, 104
8, 46852, Pitch_bend_c, 7, 8064
8, 46888, Pitch_bend_c, 7, 8032
8, 46908, Pitch_bend_c, 7, 8000
8, 46932, Pitch_bend_c, 7, 7968
8, 46936, Pitch_bend_c, 7, 8000
8, 46968, Pitch_bend_c, 7, 8032
8, 47208, Note_off_c, 7, 55, 64
8, 47240, Pitch_bend_c, 7, 8192
8, 47244, Note_on_c, 7, 58, 112
8, 47248, Pitch_bend_c, 7, 8096
8, 47252, Pitch_bend_c, 7, 8160
8, 47276, Pitch_bend_c, 7, 8128
8, 47288, Pitch_bend_c, 7, 8000
8, 47304, Pitch_bend_c, 7, 7968
8, 47328, Pitch_bend_c, 7, 8128
8, 47380, Pitch_bend_c, 7, 8160
8, 47388, Pitch_bend_c, 7, 8128
8, 47400, Pitch_bend_c, 7, 8032
8, 47412, Note_off_c, 7, 58, 64
8, 47600, Pitch_bend_c, 7, 8192
8, 47604, Note_on_c, 7, 46, 99
8, 47636, Pitch_bend_c, 7, 8160
8, 47664, Pitch_bend_c, 7, 8128
8, 47688, Pitch_bend_c, 7, 8096
8, 47696, Pitch_bend_c, 7, 8064
8, 47728, Note_off_c, 7, 46, 64
8, 47728, Pitch_bend_c, 7, 8128
8, 48232, Pitch_bend_c, 7, 8192
8, 48236, Note_on_c, 7, 49, 101
8, 48236, Pitch_bend_c, 7, 8352
8, 48240, Pitch_bend_c, 7, 8032
8, 48244, Pitch_bend_c, 7, 8064
8, 48276, Pitch_bend_c, 7, 8032
8, 48284, Pitch_bend_c, 7, 8000
8, 48296, Pitch_bend_c, 7, 8032
8, 48308, Pitch_bend_c, 7, 7968
8, 48328, Pitch_bend_c, 7, 7936
8, 48336, Pitch_bend_c, 7, 7904
8, 48344, Pitch_bend_c, 7, 7872
8, 48360, Pitch_bend_c, 7, 7936
8, 48368, Pitch_bend_c, 7, 8064
8, 48376, Note_off_c, 7, 49, 64
8, 48388, Pitch_bend_c, 7, 8192
8, 48392, Note_on_c, 7, 50, 94
8, 48396, Pitch_bend_c, 7, 7968
8, 48400, Pitch_bend_c, 7, 8000
8, 48428, Pitch_bend_c, 7, 7968
8, 48440, Pitch_bend_c, 7, 7936
8, 48476, Pitch_bend_c, 7, 7904
8, 48488, Pitch_bend_c, 7, 7872
8, 48520, Pitch_bend_c, 7, 7840
8, 48564, Pitch_bend_c, 7, 7872
8, 48600, Pitch_bend_c, 7, 7840
8, 48656, Pitch_bend_c, 7, 7872
8, 48716, Pitch_bend_c, 7, 7840
8, 48748, Pitch_bend_c, 7, 7776
8, 48756, Note_off_c, 7, 50, 64
8, 48756, Pitch_bend_c, 7, 7872
8, 48760, Note_on_c, 7, 53, 115
8, 48760, Pitch_bend_c, 7, 8192
8, 48764, Pitch_bend_c, 7, 8096
8, 48788, Pitch_bend_c, 7, 8032
8, 48808, Pitch_bend_c, 7, 8000
8, 48828, Pitch_bend_c, 7, 8064
8, 48840, Pitch_bend_c, 7, 8032
8, 48860, Pitch_bend_c, 7, 8000
8, 48904, Pitch_bend_c, 7, 7904
8, 48908, Pitch_bend_c, 7, 7840
8, 48920, Pitch_bend_c, 7, 7712
8, 48932, Pitch_bend_c, 7, 7584
8, 48936, Note_off_c, 7, 53, 64
8, 48936, Pitch_bend_c, 7, 8000
8, 49144, Note_on_c, 7, 46, 97
8, 49144, Pitch_bend_c, 7, 8160
8, 49188, Pitch_bend_c, 7, 8128
8, 49208, Pitch_bend_c, 7, 8096
8, 49228, Pitch_bend_c, 7, 8064
8, 49268, Pitch_bend_c, 7, 7776
8, 49276, Note_off_c, 7, 46, 64
8, 49276, Pitch_bend_c, 7, 8096
8, 49760, Pitch_bend_c, 7, 8192
8, 49768, Note_on_c, 7, 49, 98
8, 49768, Pitch_bend_c, 7, 8064
8, 49784, Pitch_bend_c, 7, 8032
8, 49808, Pitch_bend_c, 7, 8000
8, 49816, Pitch_bend_c, 7, 7968
8, 49828, Pitch_bend_c, 7, 8000
8, 49840, Pitch_bend_c, 7, 7968
8, 49848, Pitch_bend_c, 7, 7936
8, 49868, Pitch_bend_c, 7, 7872
8, 49880, Pitch_bend_c, 7, 7968
8, 49888, Pitch_bend_c, 7, 8128
8, 49896, Note_off_c, 7, 49, 64
8, 49912, Note_on_c, 7, 50, 98
8, 49912, Pitch_bend_c, 7, 8352
8, 49916, Pitch_bend_c, 7, 7936
8, 49968, Pitch_bend_c, 7, 7904
8, 50000, Pitch_bend_c, 7, 7872
8, 50008, Pitch_bend_c, 7, 7840
8, 50044, Pitch_bend_c, 7, 7808
8, 50056, Pitch_bend_c, 7, 7840
8, 50068, Pitch_bend_c, 7, 7808
8, 50120, Pitch_bend_c, 7, 7776
8, 50136, Pitch_bend_c, 7, 7744
8, 50172, Pitch_bend_c, 7, 7776
8, 50224, Pitch_bend_c, 7, 7808
8, 50264, Pitch_bend_c, 7, 7776
8, 50276, Pitch_bend_c, 7, 7584
8, 50280, Note_off_c, 7, 50, 64
8, 50280, Pitch_bend_c, 7, 7776
8, 50296, Note_on_c, 7, 53, 112
8, 50296, Pitch_bend_c, 7, 8000
8, 50300, Pitch_bend_c, 7, 8064
8, 50324, Pitch_bend_c, 7, 8032
8, 50344, Pitch_bend_c, 7, 8064
8, 50356, Pitch_bend_c, 7, 8128
8, 50376, Pitch_bend_c, 7, 8096
8, 50400, Pitch_bend_c, 7, 8064
8, 50428, Pitch_bend_c, 7, 8000
8, 50440, Pitch_bend_c, 7, 7904
8, 50452, Note_off_c, 7, 53, 64
8, 50452, Pitch_bend_c, 7, 8096
8, 50688, Pitch_bend_c, 7, 8192
8, 50692, Note_on_c, 7, 53, 100
8, 50692, Pitch_bend_c, 7, 8000
8, 50716, Pitch_bend_c, 7, 7968
8, 50760, Pitch_bend_c, 7, 7936
8, 50768, Pitch_bend_c, 7, 7904
8, 50792, Pitch_bend_c, 7, 7872
8, 50800, Pitch_bend_c, 7, 7840
8, 50808, Pitch_bend_c, 7, 7808
8, 50820, Pitch_bend_c, 7, 7488
8, 50828, Note_off_c, 7, 53, 64
8, 50828, Pitch_bend_c, 7, 7872
8, 51304, Pitch_bend_c, 7, 8192
8, 51308, Note_on_c, 7, 56, 112
8, 51308, Pitch_bend_c, 7, 8064
8, 51312, Pitch_bend_c, 7, 8096
8, 51320, Pitch_bend_c, 7, 8064
8, 51364, Pitch_bend_c, 7, 8032
8, 51384, Pitch_bend_c, 7, 8000
8, 51428, Pitch_bend_c, 7, 8064
8, 51432, Note_off_c, 7, 56, 64
8, 51432, Pitch_bend_c, 7, 8096
8, 51448, Pitch_bend_c, 7, 8192
8, 51456, Note_on_c, 7, 57, 107
8, 51456, Pitch_bend_c, 7, 8128
8, 51464, Pitch_bend_c, 7, 8096
8, 51516, Pitch_bend_c, 7, 8064
8, 51540, Pitch_bend_c, 7, 8096
8, 51560, Pitch_bend_c, 7, 8064
8, 51576, Pitch_bend_c, 7, 8032
8, 51600, Pitch_bend_c, 7, 8000
8, 51620, Pitch_bend_c, 7, 7968
8, 51652, Pitch_bend_c, 7, 7936
8, 51704, Pitch_bend_c, 7, 7904
8, 51736, Pitch_bend_c, 7, 7872
8, 51792, Pitch_bend_c, 7, 7904
8, 51812, Pitch_bend_c, 7, 7936
8, 51820, Pitch_bend_c, 7, 7872
8, 51828, Note_off_c, 7, 57, 64
8, 51828, Pitch_bend_c, 7, 7904
8, 51832, Pitch_bend_c, 7, 8192
8, 51836, Note_on_c, 7, 60, 108
8, 51960, Pitch_bend_c, 7, 8032
8, 51972, Pitch_bend_c, 7, 8192
8, 51976, Note_off_c, 7, 60, 64
8, 52216, Note_on_c, 7, 46, 97
8, 52216, Pitch_bend_c, 7, 8160
8, 52220, Pitch_bend_c, 7, 8256
8, 52264, Pitch_bend_c, 7, 8288
8, 52288, Pitch_bend_c, 7, 8256
8, 52296, Pitch_bend_c, 7, 8224
8, 52312, Pitch_bend_c, 7, 8192
8, 52316, Pitch_bend_c, 7, 8160
8, 52348, Note_off_c, 7, 46, 64
8, 52348, Pitch_bend_c, 7, 8256
8, 52836, Pitch_bend_c, 7, 8192
8, 52840, Note_on_c, 7, 49, 93
8, 52840, Pitch_bend_c, 7, 8448
8, 52844, Pitch_bend_c, 7, 8128
8, 52848, Pitch_bend_c, 7, 7968
8, 52852, Pitch_bend_c, 7, 8032
8, 52884, Pitch_bend_c, 7, 8000
8, 52892, Pitch_bend_c, 7, 7968
8, 52904, Pitch_bend_c, 7, 8000
8, 52912, Pitch_bend_c, 7, 7968
8, 52936, Pitch_bend_c, 7, 7936
8, 52944, Pitch_bend_c, 7, 7904
8, 52964, Pitch_bend_c, 7, 7968
8, 52976, Note_off_c, 7, 49, 64
8, 52976, Pitch_bend_c, 7, 11936
8, 52988, Pitch_bend_c, 7, 8192
8, 53000, Note_on_c, 7, 50, 90
8, 53000, Pitch_bend_c, 7, 8352
8, 53004, Pitch_bend_c, 7, 7936
8, 53008, Pitch_bend_c, 7, 7904
8, 53020, Pitch_bend_c, 7, 7872
8, 53096, Pitch_bend_c, 7, 7840
8, 53112, Pitch_bend_c, 7, 7808
8, 53124, Pitch_bend_c, 7, 7776
8, 53144, Pitch_bend_c, 7, 7744
8, 53164, Pitch_bend_c, 7, 7776
8, 53256, Pitch_bend_c, 7, 7808
8, 53364, Pitch_bend_c, 7, 7744
8, 53368, Note_off_c, 7, 50, 64
8, 53368, Note_on_c, 7, 53, 109
8, 53368, Pitch_bend_c, 7, 8128
8, 53372, Pitch_bend_c, 7, 8096
8, 53392, Pitch_bend_c, 7, 8128
8, 53400, Pitch_bend_c, 7, 8096
8, 53432, Pitch_bend_c, 7, 8064
8, 53452, Pitch_bend_c, 7, 8032
8, 53472, Pitch_bend_c, 7, 8064
8, 53504, Pitch_bend_c, 7, 8000
8, 53512, Pitch_bend_c, 7, 7968
8, 53524, Note_off_c, 7, 53, 64
8, 53768, Pitch_bend_c, 7, 8192
8, 53772, Note_on_c, 7, 53, 97
8, 53776, Pitch_bend_c, 7, 7776
8, 53780, Pitch_bend_c, 7, 8000
8, 53784, Pitch_bend_c, 7, 7936
8, 53828, Pitch_bend_c, 7, 7904
8, 53868, Pitch_bend_c, 7, 7648
8, 53880, Pitch_bend_c, 7, 7424
8, 53884, Note_off_c, 7, 53, 64
8, 53884, Pitch_bend_c, 7, 7936
8, 54380, Pitch_bend_c, 7, 8192
8, 54384, Note_on_c, 7, 56, 104
8, 54388, Pitch_bend_c, 7, 8064
8, 54428, Pitch_bend_c, 7, 8032
8, 54456, Pitch_bend_c, 7, 8000
8, 54496, Pitch_bend_c, 7, 8064
8, 54508, Pitch_bend_c, 7, 8352
8, 54520, Note_off_c, 7, 56, 64
8, 54520, Pitch_bend_c, 7, 12096
8, 54536, Note_on_c, 7, 57, 102
8, 54536, Pitch_bend_c, 7, 8064
8, 54540, Pitch_bend_c, 7, 8032
8, 54588, Pitch_bend_c, 7, 8000
8, 54600, Pitch_bend_c, 7, 7968
8, 54632, Pitch_bend_c, 7, 8000
8, 54652, Pitch_bend_c, 7, 7968
8, 54664, Pitch_bend_c, 7, 7936
8, 54808, Pitch_bend_c, 7, 7904
8, 54816, Pitch_bend_c, 7, 7872
8, 54828, Pitch_bend_c, 7, 7840
8, 54848, Pitch_bend_c, 7, 7808
8, 54868, Pitch_bend_c, 7, 7840
8, 54876, Pitch_bend_c, 7, 7872
8, 54888, Note_off_c, 7, 57, 64
8, 54888, Pitch_bend_c, 7, 7904
8, 54904, Pitch_bend_c, 7, 8192
8, 54908, Note_on_c, 7, 60, 110
8, 55032, Note_off_c, 7, 60, 64
8, 67712, Note_on_c, 7, 55, 110
8, 67712, Pitch_bend_c, 7, 7872
8, 67720, Pitch_bend_c, 7, 7968
8, 67748, Pitch_bend_c, 7, 8000
8, 67768, Pitch_bend_c, 7, 7872
8, 67780, Pitch_bend_c, 7, 7712
8, 67784, Note_off_c, 7, 55, 64
8, 67784, Pitch_bend_c, 7, 7936
8, 67828, Pitch_bend_c, 7, 8192
8, 67832, Note_on_c, 7, 55, 108
8, 67832, Pitch_bend_c, 7, 8032
8, 67904, Note_off_c, 7, 55, 64
8, 67904, Pitch_bend_c, 7, 8160
8, 67960, Note_on_c, 7, 54, 115
8, 67960, Pitch_bend_c, 7, 8192
8, 67964, Pitch_bend_c, 7, 11936
8, 67984, Pitch_bend_c, 7, 11968
8, 67996, Pitch_bend_c, 7, 12032
8, 68008, Pitch_bend_c, 7, 12064
8, 68016, Pitch_bend_c, 7, 12096
8, 68024, Pitch_bend_c, 7, 11904
8, 68036, Pitch_bend_c, 7, 11776
8, 68040, Note_off_c, 7, 54, 64
8, 68040, Pitch_bend_c, 7, 12032
8, 68088, Pitch_bend_c, 7, 8192
8, 68092, Note_on_c, 7, 55, 114
8, 68092, Pitch_bend_c, 7, 8032
8, 68100, Pitch_bend_c, 7, 8000
8, 68104, Pitch_bend_c, 7, 7872
8, 68120, Pitch_bend_c, 7, 7904
8, 68132, Pitch_bend_c, 7, 7840
8, 68140, Pitch_bend_c, 7, 7872
8, 68152, Pitch_bend_c, 7, 7968
8, 68168, Pitch_bend_c, 7, 7904
8, 68184, Note_off_c, 7, 55, 64
8, 68184, Pitch_bend_c, 7, 7840
8, 68220, Pitch_bend_c, 7, 8192
8, 68224, Note_on_c, 7, 55, 114
8, 68224, Pitch_bend_c, 7, 7936
8, 68228, Pitch_bend_c, 7, 8032
8, 68232, Pitch_bend_c, 7, 7808
8, 68248, Pitch_bend_c, 7, 7840
8, 68260, Pitch_bend_c, 7, 7872
8, 68268, Pitch_bend_c, 7, 7968
8, 68280, Pitch_bend_c, 7, 8032
8, 68288, Pitch_bend_c, 7, 7968
8, 68300, Pitch_bend_c, 7, 7776
8, 68308, Note_off_c, 7, 55, 64
8, 68308, Pitch_bend_c, 7, 7872
8, 68352, Pitch_bend_c, 7, 8192
8, 68360, Note_on_c, 7, 55, 114
8, 68360, Pitch_bend_c, 7, 8064
8, 68364, Pitch_bend_c, 7, 7936
8, 68372, Pitch_bend_c, 7, 7872
8, 68392, Pitch_bend_c, 7, 7904
8, 68404, Pitch_bend_c, 7, 7936
8, 68408, Pitch_bend_c, 7, 8000
8, 68432, Pitch_bend_c, 7, 7936
8, 68440, Note_off_c, 7, 55, 64
8, 68476, Pitch_bend_c, 7, 8192
8, 68484, Note_on_c, 7, 55, 113
8, 68488, Pitch_bend_c, 7, 7936
8, 68492, Pitch_bend_c, 7, 7872
8, 68496, Pitch_bend_c, 7, 7840
8, 68500, Pitch_bend_c, 7, 7776
8, 68508, Pitch_bend_c, 7, 7808
8, 68520, Pitch_bend_c, 7, 7872
8, 68532, Pitch_bend_c, 7, 7904
8, 68560, Pitch_bend_c, 7, 7872
8, 68568, Note_off_c, 7, 55, 64
8, 68608, Note_on_c, 7, 54, 116
8, 68608, Pitch_bend_c, 7, 10848
8, 68612, Pitch_bend_c, 7, 11392
8, 68616, Pitch_bend_c, 7, 11936
8, 68620, Pitch_bend_c, 7, 12000
8, 68632, Pitch_bend_c, 7, 11872
8, 68656, Pitch_bend_c, 7, 11904
8, 68664, Pitch_bend_c, 7, 11936
8, 68676, Pitch_bend_c, 7, 12096
8, 68684, Pitch_bend_c, 7, 12032
8, 68696, Note_off_c, 7, 54, 64
8, 68696, Pitch_bend_c, 7, 11936
8, 68732, Pitch_bend_c, 7, 8192
8, 68732, Note_on_c, 7, 54, 116
8, 68740, Pitch_bend_c, 7, 10368
8, 68744, Pitch_bend_c, 7, 11776
8, 68760, Pitch_bend_c, 7, 11808
8, 68780, Pitch_bend_c, 7, 11904
8, 68792, Pitch_bend_c, 7, 11936
8, 68808, Pitch_bend_c, 7, 11840
8, 68824, Note_off_c, 7, 54, 64
8, 68824, Pitch_bend_c, 7, 11808
8, 68864, Note_on_c, 7, 55, 114
8, 68864, Pitch_bend_c, 7, 8000
8, 68868, Pitch_bend_c, 7, 7968
8, 68872, Pitch_bend_c, 7, 7712
8, 68908, Pitch_bend_c, 7, 7840
8, 68920, Pitch_bend_c, 7, 7968
8, 68928, Pitch_bend_c, 7, 8032
8, 68940, Pitch_bend_c, 7, 7968
8, 68948, Note_off_c, 7, 55, 64
8, 68988, Pitch_bend_c, 7, 8192
8, 68992, Note_on_c, 7, 55, 113
8, 68992, Pitch_bend_c, 7, 8128
8, 69000, Pitch_bend_c, 7, 8160
8, 69004, Pitch_bend_c, 7, 8192
8, 69028, Pitch_bend_c, 7, 8160
8, 69036, Pitch_bend_c, 7, 8128
8, 69048, Pitch_bend_c, 7, 8096
8, 69068, Pitch_bend_c, 7, 8128
8, 69080, Pitch_bend_c, 7, 8192
8, 69084, Note_off_c, 7, 55, 64
8, 69248, Note_on_c, 7, 55, 110
8, 69248, Pitch_bend_c, 7, 7872
8, 69256, Pitch_bend_c, 7, 7968
8, 69284, Pitch_bend_c, 7, 8000
8, 69304, Pitch_bend_c, 7, 7872
8, 69316, Pitch_bend_c, 7, 7712
8, 69320, Note_off_c, 7, 55, 64
8, 69320, Pitch_bend_c, 7, 7936
8, 69364, Pitch_bend_c, 7, 8192
8, 69368, Note_on_c, 7, 55, 108
8, 69368, Pitch_bend_c, 7, 8032
8, 69440, Note_off_c, 7, 55, 64
8, 69440, Pitch_bend_c, 7, 8160
8, 69496, Note_on_c, 7, 54, 115
8, 69496, Pitch_bend_c, 7, 8192
8, 69500, Pitch_bend_c, 7, 11936
8, 69520, Pitch_bend_c, 7, 11968
8, 69532, Pitch_bend_c, 7, 12032
8, 69544, Pitch_bend_c, 7, 12064
8, 69552, Pitch_bend_c, 7, 12096
8, 69560, Pitch_bend_c, 7, 11904
8, 69572, Pitch_bend_c, 7, 11776
8, 69576, Note_off_c, 7, 54, 64
8, 69576, Pitch_bend_c, 7, 12032
8, 69624, Pitch_bend_c, 7, 8192
8, 69628, Note_on_c, 7, 55, 114
8, 69628, Pitch_bend_c, 7, 8032
8, 69636, Pitch_bend_c, 7, 8000
8, 69640, Pitch_bend_c, 7, 7872
8, 69656, Pitch_bend_c, 7, 7904
8, 69668, Pitch_bend_c, 7, 7840
8, 69676, Pitch_bend_c, 7, 7872
8, 69688, Pitch_bend_c, 7, 7968
8, 69704, Pitch_bend_c, 7, 7904
8, 69720, Note_off_c, 7, 55, 64
8, 69720, Pitch_bend_c, 7, 7840
8, 69756, Pitch_bend_c, 7, 8192
8, 69760, Note_on_c, 7, 55, 114
8, 69760, Pitch_bend_c, 7, 7936
8, 69764, Pitch_bend_c, 7, 8032
8, 69768, Pitch_bend_c, 7, 7808
8, 69784, Pitch_bend_c, 7, 7840
8, 69796, Pitch_bend_c, 7, 7872
8, 69804, Pitch_bend_c, 7, 7968
8, 69816, Pitch_bend_c, 7, 8032
8, 69824, Pitch_bend_c, 7, 7968
8, 69836, Pitch_bend_c, 7, 7776
8, 69844, Note_off_c, 7, 55, 64
8, 69844, Pitch_bend_c, 7, 7872
8, 69888, Pitch_bend_c, 7, 8192
8, 69896, Note_on_c, 7, 55, 114
8, 69896, Pitch_bend_c, 7, 8064
8, 69900, Pitch_bend_c, 7, 7936
8, 69908, Pitch_bend_c, 7, 7872
8, 69928, Pitch_bend_c, 7, 7904
8, 69940, Pitch_bend_c, 7, 7936
8, 69944, Pitch_bend_c, 7, 8000
8, 69968, Pitch_bend_c, 7, 7936
8, 69976, Note_off_c, 7, 55, 64
8, 70012, Pitch_bend_c, 7, 8192
8, 70020, Note_on_c, 7, 55, 113
8, 70024, Pitch_bend_c, 7, 7936
8, 70028, Pitch_bend_c, 7, 7872
8, 70032, Pitch_bend_c, 7, 7840
8, 70036, Pitch_bend_c, 7, 7776
8, 70044, Pitch_bend_c, 7, 7808
8, 70056, Pitch_bend_c, 7, 7872
8, 70068, Pitch_bend_c, 7, 7904
8, 70096, Pitch_bend_c, 7, 7872
8, 70104, Note_off_c, 7, 55, 64
8, 70144, Note_on_c, 7, 54, 116
8, 70144, Pitch_bend_c, 7, 10848
8, 70148, Pitch_bend_c, 7, 11392
8, 70152, Pitch_bend_c, 7, 11936
8, 70156, Pitch_bend_c, 7, 12000
8, 70168, Pitch_bend_c, 7, 11872
8, 70192, Pitch_bend_c, 7, 11904
8, 70200, Pitch_bend_c, 7, 11936
8, 70212, Pitch_bend_c, 7, 12096
8, 70220, Pitch_bend_c, 7, 12032
8, 70232, Note_off_c, 7, 54, 64
8, 70232, Pitch_bend_c, 7, 11936
8, 70268, Pitch_bend_c, 7, 8192
8, 70268, Note_on_c, 7, 54, 116
8, 70276, Pitch_bend_c, 7, 10368
8, 70280, Pitch_bend_c, 7, 11776
8, 70296, Pitch_bend_c, 7, 11808
8, 70316, Pitch_bend_c, 7, 11904
8, 70328, Pitch_bend_c, 7, 11936
8, 70344, Pitch_bend_c, 7, 11840
8, 70360, Note_off_c, 7, 54, 64
8, 70360, Pitch_bend_c, 7, 11808
8, 70400, Note_on_c, 7, 55, 114
8, 70400, Pitch_bend_c, 7, 8000
8, 70404, Pitch_bend_c, 7, 7968
8, 70408, Pitch_bend_c, 7, 7712
8, 70444, Pitch_bend_c, 7, 7840
8, 70456, Pitch_bend_c, 7, 7968
8, 70464, Pitch_bend_c, 7, 8032
8, 70476, Pitch_bend_c, 7, 7968
8, 70484, Note_off_c, 7, 55, 64
8, 70524, Pitch_bend_c, 7, 8192
8, 70528, Note_on_c, 7, 55, 113
8, 70528, Pitch_bend_c, 7, 8128
8, 70536, Pitch_bend_c, 7, 8160
8, 70540, Pitch_bend_c, 7, 8192
8, 70564, Pitch_bend_c, 7, 8160
8, 70572, Pitch_bend_c, 7, 8128
8, 70584, Pitch_bend_c, 7, 8096
8, 70604, Pitch_bend_c, 7, 8128
8, 70616, Pitch_bend_c, 7, 8192
8, 70620, Note_off_c, 7, 55, 64
8, 70776, Note_on_c, 7, 50, 85
8, 70776, Pitch_bend_c, 7, 8064
8, 70780, Pitch_bend_c, 7, 7968
8, 70840, Pitch_bend_c, 7, 7936
8, 70848, Note_off_c, 7, 50, 64
8, 70848, Pitch_bend_c, 7, 8064
8, 70908, Note_on_c, 7, 50, 89
8, 70908, Pitch_bend_c, 7, 8320
8, 70912, Pitch_bend_c, 7, 8096
8, 70920, Pitch_bend_c, 7, 7872
8, 70964, Pitch_bend_c, 7, 7904
8, 70996, Pitch_bend_c, 7, 7872
8, 71004, Pitch_bend_c, 7, 7840
8, 71020, Note_off_c, 7, 50, 64
8, 71020, Pitch_bend_c, 7, 7872
8, 71040, Pitch_bend_c, 7, 8192
8, 71048, Note_on_c, 7, 50, 101
8, 71048, Pitch_bend_c, 7, 8384
8, 71052, Pitch_bend_c, 7, 8000
8, 71056, Pitch_bend_c, 7, 8032
8, 71064, Pitch_bend_c, 7, 8000
8, 71096, Pitch_bend_c, 7, 7776
8, 71108, Note_off_c, 7, 50, 64
8, 71108, Pitch_bend_c, 7, 8000
8, 71168, Pitch_bend_c, 7, 8192
8, 71176, Note_on_c, 7, 50, 106
8, 71176, Pitch_bend_c, 7, 8224
8, 71180, Pitch_bend_c, 7, 8000
8, 71224, Pitch_bend_c, 7, 7936
8, 71236, Note_off_c, 7, 50, 64
8, 71236, Pitch_bend_c, 7, 8224
8, 71304, Pitch_bend_c, 7, 8192
8, 71308, Note_on_c, 7, 50, 103
8, 71312, Pitch_bend_c, 7, 8448
8, 71316, Pitch_bend_c, 7, 8000
8, 71320, Pitch_bend_c, 7, 8032
8, 71328, Pitch_bend_c, 7, 8000
8, 71352, Pitch_bend_c, 7, 7968
8, 71356, Pitch_bend_c, 7, 7840
8, 71368, Pitch_bend_c, 7, 7776
8, 71376, Note_off_c, 7, 50, 64
8, 71376, Pitch_bend_c, 7, 8000
8, 71432, Pitch_bend_c, 7, 8192
8, 71436, Note_on_c, 7, 50, 106
8, 71436, Pitch_bend_c, 7, 8064
8, 71444, Pitch_bend_c, 7, 8032
8, 71488, Pitch_bend_c, 7, 8000
8, 71496, Pitch_bend_c, 7, 7840
8, 71504, Note_off_c, 7, 50, 64
8, 71504, Pitch_bend_c, 7, 8064
8, 71560, Note_on_c, 7, 50, 104
8, 71560, Pitch_bend_c, 7, 8192
8, 71564, Pitch_bend_c, 7, 8448
8, 71568, Pitch_bend_c, 7, 8192
8, 71572, Pitch_bend_c, 7, 8032
8, 71616, Pitch_bend_c, 7, 8000
8, 71624, Pitch_bend_c, 7, 7904
8, 71636, Note_off_c, 7, 50, 64
8, 71636, Pitch_bend_c, 7, 8032
8, 71684, Pitch_bend_c, 7, 8192
8, 71688, Note_on_c, 7, 50, 107
8, 71688, Pitch_bend_c, 7, 8608
8, 71696, Pitch_bend_c, 7, 7936
8, 71704, Pitch_bend_c, 7, 8000
8, 71736, Pitch_bend_c, 7, 8032
8, 71756, Pitch_bend_c, 7, 7776
8, 71768, Note_off_c, 7, 50, 64
8, 71768, Pitch_bend_c, 7, 7936
8, 71816, Note_on_c, 7, 50, 106
8, 71816, Pitch_bend_c, 7, 8832
8, 71820, Pitch_bend_c, 7, 8608
8, 71828, Pitch_bend_c, 7, 8032
8, 71880, Pitch_bend_c, 7, 7872
8, 71892, Pitch_bend_c, 7, 7776
8, 71896, Note_off_c, 7, 50, 64
8, 71896, Pitch_bend_c, 7, 8032
8, 71940, Pitch_bend_c, 7, 8192
8, 71944, Note_on_c, 7, 50, 107
8, 71944, Pitch_bend_c, 7, 8000
8, 71952, Pitch_bend_c, 7, 8032
8, 72000, Pitch_bend_c, 7, 7904
8, 72008, Pitch_bend_c, 7, 7776
8, 72016, Note_off_c, 7, 50, 64
8, 72016, Pitch_bend_c, 7, 8032
8, 72068, Pitch_bend_c, 7, 8192
8, 72072, Note_on_c, 7, 50, 108
8, 72072, Pitch_bend_c, 7, 8096
8, 72096, Pitch_bend_c, 7, 8064
8, 72104, Pitch_bend_c, 7, 8032
8, 72124, Pitch_bend_c, 7, 8000
8, 72136, Pitch_bend_c, 7, 7904
8, 72148, Pitch_bend_c, 7, 7808
8, 72152, Note_off_c, 7, 50, 64
8, 72152, Pitch_bend_c, 7, 8064
8, 72320, Pitch_bend_c, 7, 8192
8, 72328, Note_on_c, 7, 50, 94
8, 72328, Pitch_bend_c, 7, 7968
8, 72344, Pitch_bend_c, 7, 7936
8, 72364, Pitch_bend_c, 7, 7808
8, 72376, Note_off_c, 7, 50, 64
8, 72376, Pitch_bend_c, 7, 7936
8, 72448, Note_on_c, 7, 50, 98
8, 72448, Pitch_bend_c, 7, 8000
8, 72492, Pitch_bend_c, 7, 7968
8, 72504, Pitch_bend_c, 7, 7936
8, 72512, Pitch_bend_c, 7, 7776
8, 72516, Note_off_c, 7, 50, 64
8, 72516, Pitch_bend_c, 7, 8000
8, 72576, Note_on_c, 7, 50, 106
8, 72576, Pitch_bend_c, 7, 8032
8, 72612, Pitch_bend_c, 7, 8000
8, 72620, Pitch_bend_c, 7, 8032
8, 72644, Pitch_bend_c, 7, 7872
8, 72648, Pitch_bend_c, 7, 7776
8, 72652, Note_off_c, 7, 50, 64
8, 72652, Pitch_bend_c, 7, 8032
8, 72704, Note_on_c, 7, 50, 106
8, 72704, Pitch_bend_c, 7, 8256
8, 72708, Pitch_bend_c, 7, 8000
8, 72776, Pitch_bend_c, 7, 7936
8, 72788, Note_off_c, 7, 50, 64
8, 72788, Pitch_bend_c, 7, 8256
8, 72836, Pitch_bend_c, 7, 8192
8, 72840, Note_on_c, 7, 50, 106
8, 72840, Pitch_bend_c, 7, 7968
8, 72844, Pitch_bend_c, 7, 8032
8, 72872, Pitch_bend_c, 7, 8000
8, 72912, Pitch_bend_c, 7, 7872
8, 72920, Note_off_c, 7, 50, 64
8, 72920, Pitch_bend_c, 7, 8000
8, 72968, Pitch_bend_c, 7, 8192
8, 72972, Note_on_c, 7, 50, 107
8, 72972, Pitch_bend_c, 7, 8032
8, 73016, Pitch_bend_c, 7, 8000
8, 73028, Pitch_bend_c, 7, 8032
8, 73040, Pitch_bend_c, 7, 7968
8, 73048, Note_off_c, 7, 50, 64
8, 73048, Pitch_bend_c, 7, 8032
8, 73096, Pitch_bend_c, 7, 8192
8, 73100, Note_on_c, 7, 50, 108
8, 73104, Pitch_bend_c, 7, 8000
8, 73108, Pitch_bend_c, 7, 8032
8, 73152, Pitch_bend_c, 7, 8000
8, 73164, Pitch_bend_c, 7, 7840
8, 73176, Pitch_bend_c, 7, 7648
8, 73184, Note_off_c, 7, 50, 64
8, 73184, Pitch_bend_c, 7, 8032
8, 73224, Pitch_bend_c, 7, 8192
8, 73228, Note_on_c, 7, 50, 107
8, 73232, Pitch_bend_c, 7, 8032
8, 73248, Pitch_bend_c, 7, 8064
8, 73256, Pitch_bend_c, 7, 8032
8, 73268, Pitch_bend_c, 7, 8064
8, 73276, Pitch_bend_c, 7, 8096
8, 73288, Pitch_bend_c, 7, 8064
8, 73300, Pitch_bend_c, 7, 7808
8, 73308, Note_off_c, 7, 50, 64
8, 73308, Pitch_bend_c, 7, 8032
8, 73352, Pitch_bend_c, 7, 8192
8, 73352, Note_on_c, 7, 50, 108
8, 73364, Pitch_bend_c, 7, 8320
8, 73368, Pitch_bend_c, 7, 8192
8, 73396, Pitch_bend_c, 7, 8160
8, 73404, Pitch_bend_c, 7, 8128
8, 73416, Pitch_bend_c, 7, 8096
8, 73424, Pitch_bend_c, 7, 7936
8, 73436, Pitch_bend_c, 7, 7744
8, 73444, Note_off_c, 7, 50, 64
8, 73444, Pitch_bend_c, 7, 8160
8, 73468, Pitch_bend_c, 7, 8192
8, 73480, Note_on_c, 7, 50, 106
8, 73480, Pitch_bend_c, 7, 8832
8, 73484, Pitch_bend_c, 7, 8000
8, 73488, Pitch_bend_c, 7, 8032
8, 73492, Pitch_bend_c, 7, 8064
8, 73496, Pitch_bend_c, 7, 8096
8, 73544, Pitch_bend_c, 7, 8000
8, 73556, Note_off_c, 7, 50, 64
8, 73556, Pitch_bend_c, 7, 8032
8, 73592, Pitch_bend_c, 7, 8192
8, 73600, Note_on_c, 7, 50, 98
8, 73604, Pitch_bend_c, 7, 8704
8, 73608, Pitch_bend_c, 7, 8064
8, 73624, Pitch_bend_c, 7, 8032
8, 73652, Pitch_bend_c, 7, 8000
8, 73672, Pitch_bend_c, 7, 7840
8, 73684, Pitch_bend_c, 7, 7648
8, 73688, Note_off_c, 7, 50, 64
8, 73688, Pitch_bend_c, 7, 8032
8, 73824, Pitch_bend_c, 7, 8192
8, 73828, Note_on_c, 7, 55, 102
8, 73832, Pitch_bend_c, 7, 8032
8, 73892, Pitch_bend_c, 7, 8000
8, 73900, Pitch_bend_c, 7, 5792
8, 73912, Note_off_c, 7, 55, 64
8, 73912, Pitch_bend_c, 7, 8160
8, 73964, Pitch_bend_c, 7, 8192
8, 73968, Note_on_c, 7, 55, 106
8, 73968, Pitch_bend_c, 7, 8128
8, 73972, Pitch_bend_c, 7, 8000
8, 73976, Pitch_bend_c, 7, 8032
8, 74024, Pitch_bend_c, 7, 5888
8, 74032, Note_off_c, 7, 55, 64
8, 74032, Pitch_bend_c, 7, 8256
8, 74104, Pitch_bend_c, 7, 8192
8, 74104, Note_on_c, 7, 55, 112
8, 74112, Pitch_bend_c, 7, 8096
8, 74132, Pitch_bend_c, 7, 8032
8, 74152, Pitch_bend_c, 7, 8000
8, 74160, Pitch_bend_c, 7, 7840
8, 74172, Note_off_c, 7, 55, 64
8, 74172, Pitch_bend_c, 7, 8032
8, 74232, Pitch_bend_c, 7, 8192
8, 74236, Note_on_c, 7, 55, 114
8, 74240, Pitch_bend_c, 7, 8032
8, 74292, Pitch_bend_c, 7, 7872
8, 74304, Pitch_bend_c, 7, 7712
8, 74308, Note_off_c, 7, 55, 64
8, 74308, Pitch_bend_c, 7, 8032
8, 74360, Pitch_bend_c, 7, 8192
8, 74364, Note_on_c, 7, 55, 114
8, 74364, Pitch_bend_c, 7, 8032
8, 74376, Pitch_bend_c, 7, 8000
8, 74400, Pitch_bend_c, 7, 8032
8, 74428, Pitch_bend_c, 7, 7808
8, 74440, Note_off_c, 7, 55, 64
8, 74440, Pitch_bend_c, 7, 8032
8, 74488, Pitch_bend_c, 7, 8192
8, 74500, Note_on_c, 7, 55, 114
8, 74500, Pitch_bend_c, 7, 8032
8, 74560, Pitch_bend_c, 7, 7872
8, 74572, Pitch_bend_c, 7, 7552
8, 74576, Note_off_c, 7, 55, 64
8, 74576, Pitch_bend_c, 7, 8032
8, 74616, Pitch_bend_c, 7, 8192
8, 74620, Note_on_c, 7, 55, 113
8, 74620, Pitch_bend_c, 7, 8032
8, 74644, Pitch_bend_c, 7, 7872
8, 74652, Pitch_bend_c, 7, 7808
8, 74672, Pitch_bend_c, 7, 7776
8, 74684, Pitch_bend_c, 7, 7904
8, 74696, Pitch_bend_c, 7, 7872
8, 74708, Pitch_bend_c, 7, 7808
8, 74716, Pitch_bend_c, 7, 7712
8, 74728, Note_off_c, 7, 55, 64
8, 74728, Pitch_bend_c, 7, 7776
8, 74744, Pitch_bend_c, 7, 8192
8, 74756, Note_on_c, 7, 55, 114
8, 74756, Pitch_bend_c, 7, 8032
8, 74788, Pitch_bend_c, 7, 8064
8, 74796, Pitch_bend_c, 7, 8032
8, 74824, Pitch_bend_c, 7, 7648
8, 74832, Note_off_c, 7, 55, 64
8, 74832, Pitch_bend_c, 7, 8032
8, 74872, Pitch_bend_c, 7, 8192
8, 74884, Note_on_c, 7, 55, 114
8, 74888, Pitch_bend_c, 7, 7904
8, 74892, Pitch_bend_c, 7, 7936
8, 74896, Pitch_bend_c, 7, 7904
8, 74904, Pitch_bend_c, 7, 7936
8, 74936, Pitch_bend_c, 7, 8000
8, 74948, Pitch_bend_c, 7, 7872
8, 74960, Pitch_bend_c, 7, 7776
8, 74964, Pitch_bend_c, 7, 7904
8, 74968, Note_off_c, 7, 55, 64
8, 75000, Pitch_bend_c, 7, 8192
8, 75008, Note_on_c, 7, 55, 113
8, 75008, Pitch_bend_c, 7, 7872
8, 75040, Pitch_bend_c, 7, 7936
8, 75072, Pitch_bend_c, 7, 7968
8, 75080, Pitch_bend_c, 7, 7712
8, 75088, Pitch_bend_c, 7, 7872
8, 75092, Note_off_c, 7, 55, 64
8, 75132, Pitch_bend_c, 7, 8192
8, 75140, Note_on_c, 7, 55, 113
8, 75140, Pitch_bend_c, 7, 7872
8, 75144, Pitch_bend_c, 7, 7968
8, 75208, Pitch_bend_c, 7, 8000
8, 75216, Pitch_bend_c, 7, 7904
8, 75224, Note_off_c, 7, 55, 64
8, 75224, Pitch_bend_c, 7, 7968
8, 75400, Pitch_bend_c, 7, 8192
8, 75404, Note_on_c, 7, 55, 110
8, 75404, Pitch_bend_c, 7, 8032
8, 75460, Pitch_bend_c, 7, 7872
8, 75468, Pitch_bend_c, 7, 8032
8, 75472, Note_off_c, 7, 55, 64
8, 75528, Pitch_bend_c, 7, 8192
8, 75536, Note_on_c, 7, 55, 111
8, 75536, Pitch_bend_c, 7, 8576
8, 75540, Pitch_bend_c, 7, 8128
8, 75544, Pitch_bend_c, 7, 8000
8, 75568, Pitch_bend_c, 7, 8032
8, 75596, Pitch_bend_c, 7, 7968
8, 75608, Note_off_c, 7, 55, 64
8, 75656, Note_on_c, 7, 55, 112
8, 75656, Pitch_bend_c, 7, 8736
8, 75660, Pitch_bend_c, 7, 7968
8, 75664, Pitch_bend_c, 7, 8032
8, 75672, Pitch_bend_c, 7, 8064
8, 75676, Pitch_bend_c, 7, 8032
8, 75688, Pitch_bend_c, 7, 7936
8, 75704, Pitch_bend_c, 7, 7904
8, 75736, Note_off_c, 7, 55, 64
8, 75736, Pitch_bend_c, 7, 8032
8, 75784, Pitch_bend_c, 7, 8192
8, 75788, Note_on_c, 7, 55, 113
8, 75792, Pitch_bend_c, 7, 7904
8, 75800, Pitch_bend_c, 7, 7872
8, 75812, Pitch_bend_c, 7, 7808
8, 75832, Pitch_bend_c, 7, 7872
8, 75844, Pitch_bend_c, 7, 7904
8, 75848, Pitch_bend_c, 7, 7936
8, 75864, Note_off_c, 7, 55, 64
8, 75864, Pitch_bend_c, 7, 7872
8, 75912, Pitch_bend_c, 7, 8192
8, 75916, Note_on_c, 7, 55, 114
8, 75920, Pitch_bend_c, 7, 7904
8, 75936, Pitch_bend_c, 7, 7968
8, 75960, Pitch_bend_c, 7, 8000
8, 75976, Pitch_bend_c, 7, 7872
8, 75988, Pitch_bend_c, 7, 7744
8, 75992, Note_off_c, 7, 55, 64
8, 75992, Pitch_bend_c, 7, 7904
8, 76032, Pitch_bend_c, 7, 8192
8, 76040, Note_on_c, 7, 55, 114
8, 76040, Pitch_bend_c, 7, 7712
8, 76044, Pitch_bend_c, 7, 7808
8, 76060, Pitch_bend_c, 7, 7904
8, 76072, Pitch_bend_c, 7, 8032
8, 76084, Pitch_bend_c, 7, 8000
8, 76100, Pitch_bend_c, 7, 7968
8, 76112, Pitch_bend_c, 7, 7936
8, 76116, Note_off_c, 7, 55, 64
8, 76164, Pitch_bend_c, 7, 8192
8, 76168, Note_on_c, 7, 55, 114
8, 76172, Pitch_bend_c, 7, 7968
8, 76176, Pitch_bend_c, 7, 7552
8, 76188, Pitch_bend_c, 7, 7648
8, 76200, Pitch_bend_c, 7, 7680
8, 76212, Pitch_bend_c, 7, 7840
8, 76220, Pitch_bend_c, 7, 8032
8, 76232, Pitch_bend_c, 7, 7968
8, 76240, Pitch_bend_c, 7, 7936
8, 76244, Note_off_c, 7, 55, 64
8, 76284, Pitch_bend_c, 7, 8192
8, 76292, Note_on_c, 7, 55, 114
8, 76292, Pitch_bend_c, 7, 7872
8, 76296, Pitch_bend_c, 7, 7936
8, 76320, Pitch_bend_c, 7, 7968
8, 76344, Pitch_bend_c, 7, 8000
8, 76356, Pitch_bend_c, 7, 7872
8, 76364, Pitch_bend_c, 7, 7744
8, 76368, Note_off_c, 7, 55, 64
8, 76368, Pitch_bend_c, 7, 7936
8, 76416, Pitch_bend_c, 7, 8192
8, 76420, Note_on_c, 7, 55, 114
8, 76420, Pitch_bend_c, 7, 7936
8, 76424, Pitch_bend_c, 7, 7712
8, 76428, Pitch_bend_c, 7, 7648
8, 76440, Pitch_bend_c, 7, 7712
8, 76452, Pitch_bend_c, 7, 7808
8, 76464, Pitch_bend_c, 7, 7872
8, 76472, Pitch_bend_c, 7, 8032
8, 76484, Pitch_bend_c, 7, 7904
8, 76488, Note_off_c, 7, 55, 64
8, 76536, Pitch_bend_c, 7, 8192
8, 76540, Note_on_c, 7, 55, 113
8, 76540, Pitch_bend_c, 7, 7808
8, 76544, Pitch_bend_c, 7, 7936
8, 76568, Pitch_bend_c, 7, 7968
8, 76580, Pitch_bend_c, 7, 8032
8, 76584, Pitch_bend_c, 7, 8000
8, 76600, Pitch_bend_c, 7, 8032
8, 76608, Pitch_bend_c, 7, 7904
8, 76616, Note_off_c, 7, 55, 64
8, 76616, Pitch_bend_c, 7, 8032
8, 76668, Pitch_bend_c, 7, 8192
8, 76672, Note_on_c, 7, 55, 114
8, 76672, Pitch_bend_c, 7, 7840
8, 76676, Pitch_bend_c, 7, 7936
8, 76680, Pitch_bend_c, 7, 7968
8, 76684, Pitch_bend_c, 7, 7936
8, 76696, Pitch_bend_c, 7, 7968
8, 76708, Pitch_bend_c, 7, 8000
8, 76728, Pitch_bend_c, 7, 7968
8, 76736, Pitch_bend_c, 7, 7872
8, 76748, Note_off_c, 7, 55, 64
8, 76748, Pitch_bend_c, 7, 7968
8, 76776, Pitch_bend_c, 7, 8192
8, 76784, Pitch_bend_c, 7, 7680
8, 76844, Pitch_bend_c, 7, 7712
8, 76856, Pitch_bend_c, 7, 8192
8, 76948, Note_on_c, 7, 57, 110
8, 76948, Pitch_bend_c, 7, 7904
8, 76956, Pitch_bend_c, 7, 7936
8, 76980, Pitch_bend_c, 7, 7968
8, 77000, Pitch_bend_c, 7, 7744
8, 77012, Note_off_c, 7, 57, 64
8, 77012, Pitch_bend_c, 7, 7904
8, 77068, Pitch_bend_c, 7, 8192
8, 77076, Note_on_c, 7, 57, 110
8, 77076, Pitch_bend_c, 7, 8000
8, 77080, Pitch_bend_c, 7, 7968
8, 77096, Pitch_bend_c, 7, 8000
8, 77116, Pitch_bend_c, 7, 7968
8, 77128, Pitch_bend_c, 7, 7872
8, 77136, Pitch_bend_c, 7, 7744
8, 77140, Note_off_c, 7, 57, 64
8, 77140, Pitch_bend_c, 7, 7968
8, 77196, Pitch_bend_c, 7, 8192
8, 77204, Note_on_c, 7, 57, 108
8, 77204, Pitch_bend_c, 7, 8256
8, 77208, Pitch_bend_c, 7, 8000
8, 77244, Pitch_bend_c, 7, 7968
8, 77256, Pitch_bend_c, 7, 7808
8, 77264, Pitch_bend_c, 7, 7648
8, 77272, Note_off_c, 7, 57, 64
8, 77272, Pitch_bend_c, 7, 8096
8, 77320, Pitch_bend_c, 7, 8192
8, 77328, Note_on_c, 7, 57, 108
8, 77328, Pitch_bend_c, 7, 8256
8, 77332, Pitch_bend_c, 7, 8032
8, 77336, Pitch_bend_c, 7, 8000
8, 77380, Pitch_bend_c, 7, 7840
8, 77388, Pitch_bend_c, 7, 7680
8, 77396, Note_off_c, 7, 57, 64
8, 77396, Pitch_bend_c, 7, 8128
8, 77448, Note_on_c, 7, 57, 108
8, 77448, Pitch_bend_c, 7, 8192
8, 77452, Pitch_bend_c, 7, 7968
8, 77456, Pitch_bend_c, 7, 7936
8, 77500, Pitch_bend_c, 7, 7872
8, 77512, Pitch_bend_c, 7, 7712
8, 77524, Note_off_c, 7, 57, 64
8, 77524, Pitch_bend_c, 7, 8192
8, 77580, Note_on_c, 7, 57, 110
8, 77580, Pitch_bend_c, 7, 7936
8, 77596, Pitch_bend_c, 7, 7968
8, 77628, Pitch_bend_c, 7, 8000
8, 77644, Pitch_bend_c, 7, 7872
8, 77652, Note_off_c, 7, 57, 64
8, 77652, Pitch_bend_c, 7, 7904
8, 77700, Pitch_bend_c, 7, 8192
8, 77704, Note_on_c, 7, 57, 107
8, 77704, Pitch_bend_c, 7, 7968
8, 77720, Pitch_bend_c, 7, 7936
8, 77744, Pitch_bend_c, 7, 7904
8, 77764, Pitch_bend_c, 7, 7872
8, 77772, Pitch_bend_c, 7, 7776
8, 77784, Note_off_c, 7, 57, 64
8, 77784, Pitch_bend_c, 7, 7936
8, 77828, Pitch_bend_c, 7, 8192
8, 77832, Note_on_c, 7, 57, 108
8, 77836, Pitch_bend_c, 7, 8032
8, 77840, Pitch_bend_c, 7, 7936
8, 77844, Pitch_bend_c, 7, 7904
8, 77876, Pitch_bend_c, 7, 7936
8, 77884, Pitch_bend_c, 7, 7968
8, 77896, Pitch_bend_c, 7, 7808
8, 77904, Pitch_bend_c, 7, 7680
8, 77912, Note_off_c, 7, 57, 64
8, 77912, Pitch_bend_c, 7, 7904
8, 77956, Pitch_bend_c, 7, 8192
8, 77960, Note_on_c, 7, 57, 107
8, 77960, Pitch_bend_c, 7, 7872
8, 78016, Pitch_bend_c, 7, 7904
8, 78028, Pitch_bend_c, 7, 7744
8, 78040, Note_off_c, 7, 57, 64
8, 78040, Pitch_bend_c, 7, 7936
8, 78352, Pitch_bend_c, 7, 8192
8, 78356, Note_on_c, 7, 53, 115
8, 78360, Pitch_bend_c, 7, 8096
8, 78408, Pitch_bend_c, 7, 8064
8, 78424, Pitch_bend_c, 7, 8032
8, 78432, Pitch_bend_c, 7, 8064
8, 78460, Pitch_bend_c, 7, 8000
8, 78472, Pitch_bend_c, 7, 7872
8, 78484, Pitch_bend_c, 7, 7744
8, 78488, Note_off_c, 7, 53, 64
8, 78488, Pitch_bend_c, 7, 8032
8, 78600, Pitch_bend_c, 7, 8192
8, 78604, Note_on_c, 7, 53, 112
8, 78612, Pitch_bend_c, 7, 8288
8, 78616, Pitch_bend_c, 7, 8096
8, 78620, Pitch_bend_c, 7, 8160
8, 78632, Pitch_bend_c, 7, 8128
8, 78652, Pitch_bend_c, 7, 8096
8, 78684, Pitch_bend_c, 7, 8064
8, 78696, Pitch_bend_c, 7, 8000
8, 78716, Pitch_bend_c, 7, 8096
8, 78728, Note_off_c, 7, 53, 64
8, 78728, Pitch_bend_c, 7, 8160
8, 78744, Note_on_c, 7, 51, 100
8, 78744, Pitch_bend_c, 7, 8064
8, 78756, Pitch_bend_c, 7, 8128
8, 78776, Pitch_bend_c, 7, 8096
8, 78796, Pitch_bend_c, 7, 8064
8, 78816, Pitch_bend_c, 7, 8032
8, 78828, Pitch_bend_c, 7, 8000
8, 78840, Pitch_bend_c, 7, 7936
8, 78848, Pitch_bend_c, 7, 7776
8, 78856, Pitch_bend_c, 7, 7648
8, 78860, Note_off_c, 7, 51, 64
8, 78860, Pitch_bend_c, 7, 8032
8, 78968, Note_on_c, 7, 51, 99
8, 78968, Pitch_bend_c, 7, 7968
8, 78980, Pitch_bend_c, 7, 8000
8, 79024, Pitch_bend_c, 7, 7936
8, 79052, Pitch_bend_c, 7, 7904
8, 79064, Pitch_bend_c, 7, 7872
8, 79076, Pitch_bend_c, 7, 7808
8, 79080, Note_off_c, 7, 51, 64
8, 79080, Pitch_bend_c, 7, 7936
8, 79116, Pitch_bend_c, 7, 8192
8, 79124, Note_on_c, 7, 50, 98
8, 79124, Pitch_bend_c, 7, 8128
8, 79152, Pitch_bend_c, 7, 8096
8, 79172, Pitch_bend_c, 7, 8032
8, 79184, Pitch_bend_c, 7, 8000
8, 79192, Pitch_bend_c, 7, 7968
8, 79204, Pitch_bend_c, 7, 10560
8, 79212, Pitch_bend_c, 7, 7712
8, 79220, Note_off_c, 7, 50, 64
8, 79220, Pitch_bend_c, 7, 8032
8, 79368, Pitch_bend_c, 7, 8192
8, 79376, Note_on_c, 7, 50, 101
8, 79376, Pitch_bend_c, 7, 8480
8, 79380, Pitch_bend_c, 7, 8224
8, 79384, Pitch_bend_c, 7, 8032
8, 79416, Pitch_bend_c, 7, 8000
8, 79464, Pitch_bend_c, 7, 7936
8, 79480, Note_off_c, 7, 50, 64
8, 79480, Pitch_bend_c, 7, 8032
8, 79520, Pitch_bend_c, 7, 8192
8, 79524, Note_on_c, 7, 48, 94
8, 79528, Pitch_bend_c, 7, 8160
8, 79556, Pitch_bend_c, 7, 8192
8, 79612, Pitch_bend_c, 7, 8128
8, 79620, Pitch_bend_c, 7, 7936
8, 79628, Pitch_bend_c, 7, 7808
8, 79632, Note_off_c, 7, 48, 64
8, 79632, Pitch_bend_c, 7, 8192
8, 79748, Note_on_c, 7, 48, 102
8, 79752, Pitch_bend_c, 7, 8000
8, 79816, Pitch_bend_c, 7, 8032
8, 79840, Pitch_bend_c, 7, 8000
8, 79848, Pitch_bend_c, 7, 7968
8, 79860, Pitch_bend_c, 7, 7872
8, 79868, Note_off_c, 7, 48, 64
8, 79868, Pitch_bend_c, 7, 8032
8, 79872, Note_on_c, 7, 46, 106
8, 79876, Pitch_bend_c, 7, 7904
8, 79880, Pitch_bend_c, 7, 8000
8, 79884, Pitch_bend_c, 7, 8032
8, 79892, Pitch_bend_c, 7, 8064
8, 79904, Pitch_bend_c, 7, 8128
8, 79924, Pitch_bend_c, 7, 8192
8, 79952, Pitch_bend_c, 7, 8256
8, 79976, Pitch_bend_c, 7, 8192
8, 79988, Note_off_c, 7, 46, 64
8, 80532, Note_on_c, 7, 49, 104
8, 80532, Pitch_bend_c, 7, 8224
8, 80536, Pitch_bend_c, 7, 8128
8, 80544, Pitch_bend_c, 7, 8160
8, 80564, Pitch_bend_c, 7, 8128
8, 80572, Pitch_bend_c, 7, 8096
8, 80584, Pitch_bend_c, 7, 8064
8, 80604, Pitch_bend_c, 7, 8032
8, 80624, Pitch_bend_c, 7, 8000
8, 80632, Pitch_bend_c, 7, 7968
8, 80648, Pitch_bend_c, 7, 8096
8, 80652, Note_off_c, 7, 49, 64
8, 80668, Pitch_bend_c, 7, 8192
8, 80672, Note_on_c, 7, 50, 97
8, 80680, Pitch_bend_c, 7, 8000
8, 80708, Pitch_bend_c, 7, 7968
8, 80728, Pitch_bend_c, 7, 8000
8, 80760, Pitch_bend_c, 7, 7968
8, 80768, Pitch_bend_c, 7, 7936
8, 80788, Pitch_bend_c, 7, 7904
8, 80796, Pitch_bend_c, 7, 7872
8, 80808, Pitch_bend_c, 7, 7776
8, 80848, Pitch_bend_c, 7, 7840
8, 80856, Pitch_bend_c, 7, 7808
8, 80872, Pitch_bend_c, 7, 7776
8, 80976, Pitch_bend_c, 7, 7808
8, 81020, Note_off_c, 7, 50, 64
8, 81020, Pitch_bend_c, 7, 7776
8, 81040, Pitch_bend_c, 7, 8192
8, 81044, Note_on_c, 7, 53, 112
8, 81044, Pitch_bend_c, 7, 8288
8, 81048, Pitch_bend_c, 7, 8192
8, 81052, Pitch_bend_c, 7, 8160
8, 81056, Pitch_bend_c, 7, 8128
8, 81068, Pitch_bend_c, 7, 8096
8, 81080, Pitch_bend_c, 7, 8064
8, 81112, Pitch_bend_c, 7, 8096
8, 81120, Pitch_bend_c, 7, 8064
8, 81128, Pitch_bend_c, 7, 8000
8, 81172, Pitch_bend_c, 7, 7968
8, 81180, Pitch_bend_c, 7, 7904
8, 81192, Note_off_c, 7, 53, 64
8, 81192, Pitch_bend_c, 7, 8000
8, 81392, Pitch_bend_c, 7, 8192
8, 81396, Note_on_c, 7, 46, 97
8, 81400, Pitch_bend_c, 7, 8224
8, 81404, Pitch_bend_c, 7, 8192
8, 81480, Pitch_bend_c, 7, 8160
8, 81492, Pitch_bend_c, 7, 8128
8, 81512, Pitch_bend_c, 7, 8096
8, 81516, Note_off_c, 7, 46, 64
8, 81516, Pitch_bend_c, 7, 8192
8, 82040, Note_on_c, 7, 49, 95
8, 82040, Pitch_bend_c, 7, 8320
8, 82044, Pitch_bend_c, 7, 8032
8, 82048, Pitch_bend_c, 7, 8064
8, 82088, Pitch_bend_c, 7, 8032
8, 82100, Pitch_bend_c, 7, 8000
8, 82108, Pitch_bend_c, 7, 8032
8, 82120, Pitch_bend_c, 7, 8000
8, 82128, Pitch_bend_c, 7, 7968
8, 82148, Pitch_bend_c, 7, 7936
8, 82168, Pitch_bend_c, 7, 8064
8, 82172, Note_off_c, 7, 49, 64
8, 82184, Note_on_c, 7, 50, 94
8, 82184, Pitch_bend_c, 7, 8192
8, 82188, Pitch_bend_c, 7, 8352
8, 82192, Pitch_bend_c, 7, 7968
8, 82216, Pitch_bend_c, 7, 7936
8, 82280, Pitch_bend_c, 7, 7904
8, 82312, Pitch_bend_c, 7, 7872
8, 82332, Pitch_bend_c, 7, 7840
8, 82380, Pitch_bend_c, 7, 7808
8, 82408, Pitch_bend_c, 7, 7776
8, 82416, Pitch_bend_c, 7, 7808
8, 82448, Pitch_bend_c, 7, 7840
8, 82540, Pitch_bend_c, 7, 7712
8, 82552, Note_off_c, 7, 50, 64
8, 82552, Pitch_bend_c, 7, 7840
8, 82556, Pitch_bend_c, 7, 8192
8, 82560, Note_on_c, 7, 53, 114
8, 82560, Pitch_bend_c, 7, 8640
8, 82568, Pitch_bend_c, 7, 8096
8, 82600, Pitch_bend_c, 7, 8128
8, 82632, Pitch_bend_c, 7, 8096
8, 82644, Pitch_bend_c, 7, 8032
8, 82652, Pitch_bend_c, 7, 8000
8, 82664, Pitch_bend_c, 7, 7968
8, 82672, Pitch_bend_c, 7, 7904
8, 82684, Pitch_bend_c, 7, 7840
8, 82696, Pitch_bend_c, 7, 7744
8, 82704, Pitch_bend_c, 7, 7616
8, 82708, Note_off_c, 7, 53, 64
8, 82708, Pitch_bend_c, 7, 7968
8, 82960, Pitch_bend_c, 7, 8192
8, 82964, Note_on_c, 7, 51, 92
8, 82968, Pitch_bend_c, 7, 7936
8, 82972, Pitch_bend_c, 7, 8000
8, 82984, Pitch_bend_c, 7, 7936
8, 83036, Pitch_bend_c, 7, 7904
8, 83048, Pitch_bend_c, 7, 7872
8, 83068, Pitch_bend_c, 7, 7808
8, 83080, Pitch_bend_c, 7, 7616
8, 83084, Note_off_c, 7, 51, 64
8, 83084, Pitch_bend_c, 7, 7904
8, 83560, Note_on_c, 7, 53, 118
8, 83560, Pitch_bend_c, 7, 8192
8, 83568, Pitch_bend_c, 7, 12096
8, 83576, Pitch_bend_c, 7, 12128
8, 83600, Pitch_bend_c, 7, 12064
8, 83612, Pitch_bend_c, 7, 12032
8, 83656, Pitch_bend_c, 7, 12000
8, 83664, Pitch_bend_c, 7, 11904
8, 83672, Pitch_bend_c, 7, 12032
8, 83688, Pitch_bend_c, 7, 12160
8, 83700, Note_off_c, 7, 53, 64
8, 83704, Pitch_bend_c, 7, 8192
8, 83708, Note_on_c, 7, 55, 104
8, 83716, Pitch_bend_c, 7, 8064
8, 83752, Pitch_bend_c, 7, 8032
8, 83772, Pitch_bend_c, 7, 8000
8, 83796, Pitch_bend_c, 7, 7968
8, 83800, Pitch_bend_c, 7, 8000
8, 83832, Pitch_bend_c, 7, 8032
8, 84072, Note_off_c, 7, 55, 64
8, 84104, Pitch_bend_c, 7, 8192
8, 84108, Note_on_c, 7, 58, 112
8, 84112, Pitch_bend_c, 7, 8096
8, 84116, Pitch_bend_c, 7, 8160
8, 84140, Pitch_bend_c, 7, 8128
8, 84152, Pitch_bend_c, 7, 8000
8, 84168, Pitch_bend_c, 7, 7968
8, 84192, Pitch_bend_c, 7, 8128
8, 84244, Pitch_bend_c, 7, 8160
8, 84252, Pitch_bend_c, 7, 8128
8, 84264, Pitch_bend_c, 7, 8032
8, 84276, Note_off_c, 7, 58, 64
8, 84464, Pitch_bend_c, 7, 8192
8, 84468, Note_on_c, 7, 46, 99
8, 84500, Pitch_bend_c, 7, 8160
8, 84528, Pitch_bend_c, 7, 8128
8, 84552, Pitch_bend_c, 7, 8096
8, 84560, Pitch_bend_c, 7, 8064
8, 84592, Note_off_c, 7, 46, 64
8, 84592, Pitch_bend_c, 7, 8128
8, 85096, Pitch_bend_c, 7, 8192
8, 85100, Note_on_c, 7, 49, 101
8, 85100, Pitch_bend_c, 7, 8352
8, 85104, Pitch_bend_c, 7, 8032
8, 85108, Pitch_bend_c, 7, 8064
8, 85140, Pitch_bend_c, 7, 8032
8, 85148, Pitch_bend_c, 7, 8000
8, 85160, Pitch_bend_c, 7, 8032
8, 85172, Pitch_bend_c, 7, 7968
8, 85192, Pitch_bend_c, 7, 7936
8, 85200, Pitch_bend_c, 7, 7904
8, 85208, Pitch_bend_c, 7, 7872
8, 85224, Pitch_bend_c, 7, 7936
8, 85232, Pitch_bend_c, 7, 8064
8, 85240, Note_off_c, 7, 49, 64
8, 85252, Pitch_bend_c, 7, 8192
8, 85256, Note_on_c, 7, 50, 94
8, 85260, Pitch_bend_c, 7, 7968
8, 85264, Pitch_bend_c, 7, 8000
8, 85292, Pitch_bend_c, 7, 7968
8, 85304, Pitch_bend_c, 7, 7936
8, 85340, Pitch_bend_c, 7, 7904
8, 85352, Pitch_bend_c, 7, 7872
8, 85384, Pitch_bend_c, 7, 7840
8, 85428, Pitch_bend_c, 7, 7872
8, 85464, Pitch_bend_c, 7, 7840
8, 85520, Pitch_bend_c, 7, 7872
8, 85580, Pitch_bend_c, 7, 7840
8, 85612, Pitch_bend_c, 7, 7776
8, 85620, Note_off_c, 7, 50, 64
8, 85620, Pitch_bend_c, 7, 7872
8, 85624, Note_on_c, 7, 53, 115
8, 85624, Pitch_bend_c, 7, 8192
8, 85628, Pitch_bend_c, 7, 8096
8, 85652, Pitch_bend_c, 7, 8032
8, 85672, Pitch_bend_c, 7, 8000
8, 85692, Pitch_bend_c, 7, 8064
8, 85704, Pitch_bend_c, 7, 8032
8, 85724, Pitch_bend_c, 7, 8000
8, 85768, Pitch_bend_c, 7, 7904
8, 85772, Pitch_bend_c, 7, 7840
8, 85784, Pitch_bend_c, 7, 7712
8, 85796, Pitch_bend_c, 7, 7584
8, 85800, Note_off_c, 7, 53, 64
8, 85800, Pitch_bend_c, 7, 8000
8, 86008, Note_on_c, 7, 46, 97
8, 86008, Pitch_bend_c, 7, 8160
8, 86052, Pitch_bend_c, 7, 8128
8, 86072, Pitch_bend_c, 7, 8096
8, 86092, Pitch_bend_c, 7, 8064
8, 86132, Pitch_bend_c, 7, 7776
8, 86140, Note_off_c, 7, 46, 64
8, 86140, Pitch_bend_c, 7, 8096
8, 86624, Pitch_bend_c, 7, 8192
8, 86632, Note_on_c, 7, 49, 98
8, 86632, Pitch_bend_c, 7, 8064
8, 86648, Pitch_bend_c, 7, 8032
8, 86672, Pitch_bend_c, 7, 8000
8, 86680, Pitch_bend_c, 7, 7968
8, 86692, Pitch_bend_c, 7, 8000
8, 86704, Pitch_bend_c, 7, 7968
8, 86712, Pitch_bend_c, 7, 7936
8, 86732, Pitch_bend_c, 7, 7872
8, 86744, Pitch_bend_c, 7, 7968
8, 86752, Pitch_bend_c, 7, 8128
8, 86760, Note_off_c, 7, 49, 64
8, 86776, Note_on_c, 7, 50, 98
8, 86776, Pitch_bend_c, 7, 8352
8, 86780, Pitch_bend_c, 7, 7936
8, 86832, Pitch_bend_c, 7, 7904
8, 86864, Pitch_bend_c, 7, 7872
8, 86872, Pitch_bend_c, 7, 7840
8, 86908, Pitch_bend_c, 7, 7808
8, 86920, Pitch_bend_c, 7, 7840
8, 86932, Pitch_bend_c, 7, 7808
8, 86984, Pitch_bend_c, 7, 7776
8, 87000, Pitch_bend_c, 7, 7744
8, 87036, Pitch_bend_c, 7, 7776
8, 87088, Pitch_bend_c, 7, 7808
8, 87128, Pitch_bend_c, 7, 7776
8, 87140, Pitch_bend_c, 7, 7584
8, 87144, Note_off_c, 7, 50, 64
8, 87144, Pitch_bend_c, 7, 7776
8, 87160, Note_on_c, 7, 53, 112
8, 87160, Pitch_bend_c, 7, 8000
8, 87164, Pitch_bend_c, 7, 8064
8, 87188, Pitch_bend_c, 7, 8032
8, 87208, Pitch_bend_c, 7, 8064
8, 87220, Pitch_bend_c, 7, 8128
8, 87240, Pitch_bend_c, 7, 8096
8, 87264, Pitch_bend_c, 7, 8064
8, 87292, Pitch_bend_c, 7, 8000
8, 87304, Pitch_bend_c, 7, 7904
8, 87316, Note_off_c, 7, 53, 64
8, 87316, Pitch_bend_c, 7, 8096
8, 87552, Pitch_bend_c, 7, 8192
8, 87556, Note_on_c, 7, 53, 100
8, 87556, Pitch_bend_c, 7, 8000
8, 87580, Pitch_bend_c, 7, 7968
8, 87624, Pitch_bend_c, 7, 7936
8, 87632, Pitch_bend_c, 7, 7904
8, 87656, Pitch_bend_c, 7, 7872
8, 87664, Pitch_bend_c, 7, 7840
8, 87672, Pitch_bend_c, 7, 7808
8, 87684, Pitch_bend_c, 7, 7488
8, 87692, Note_off_c, 7, 53, 64
8, 87692, Pitch_bend_c, 7, 7872
8, 88168, Pitch_bend_c, 7, 8192
8, 88172, Note_on_c, 7, 56, 112
8, 88172, Pitch_bend_c, 7, 8064
8, 88176, Pitch_bend_c, 7, 8096
8, 88184, Pitch_bend_c, 7, 8064
8, 88228, Pitch_bend_c, 7, 8032
8, 88248, Pitch_bend_c, 7, 8000
8, 88292, Pitch_bend_c, 7, 8064
8, 88296, Note_off_c, 7, 56, 64
8, 88296, Pitch_bend_c, 7, 8096
8, 88312, Pitch_bend_c, 7, 8192
8, 88320, Note_on_c, 7, 57, 107
8, 88320, Pitch_bend_c, 7, 8128
8, 88328, Pitch_bend_c, 7, 8096
8, 88380, Pitch_bend_c, 7, 8064
8, 88404, Pitch_bend_c, 7, 8096
8, 88424, Pitch_bend_c, 7, 8064
8, 88440, Pitch_bend_c, 7, 8032
8, 88464, Pitch_bend_c, 7, 8000
8, 88484, Pitch_bend_c, 7, 7968
8, 88516, Pitch_bend_c, 7, 7936
8, 88568, Pitch_bend_c, 7, 7904
8, 88600, Pitch_bend_c, 7, 7872
8, 88656, Pitch_bend_c, 7, 7904
8, 88676, Pitch_bend_c, 7, 7936
8, 88684, Pitch_bend_c, 7, 7872
8, 88692, Note_off_c, 7, 57, 64
8, 88692, Pitch_bend_c, 7, 7904
8, 88696, Pitch_bend_c, 7, 8192
8, 88700, Note_on_c, 7, 60, 108
8, 88824, Pitch_bend_c, 7, 8032
8, 88836, Pitch_bend_c, 7, 8192
8, 88840, Note_off_c, 7, 60, 64
8, 89080, Note_on_c, 7, 46, 97
8, 89080, Pitch_bend_c, 7, 8160
8, 89084, Pitch_bend_c, 7, 8256
8, 89088, Note_on_c, 7, 58, 108
8, 89148, Pitch_bend_c, 7, 8224
8, 89168, Pitch_bend_c, 7, 8192
8, 89212, Note_off_c, 7, 46, 64
8, 89312, Pitch_bend_c, 7, 8064
8, 89320, Pitch_bend_c, 7, 7904
8, 89332, Pitch_bend_c, 7, 8192
8, 89336, Note_off_c, 7, 58, 64
8, 89468, Note_on_c, 7, 62, 103
8, 89468, Pitch_bend_c, 7, 8352
8, 89472, Pitch_bend_c, 7, 8160
8, 89480, Pitch_bend_c, 7, 8192
8, 89524, Pitch_bend_c, 7, 8224
8, 89536, Pitch_bend_c, 7, 8256
8, 89556, Pitch_bend_c, 7, 8224
8, 89568, Pitch_bend_c, 7, 8192
8, 89628, Pitch_bend_c, 7, 8160
8, 89660, Pitch_bend_c, 7, 8128
8, 89672, Pitch_bend_c, 7, 8096
8, 89680, Pitch_bend_c, 7, 8064
8, 89688, Pitch_bend_c, 7, 8032
8, 89704, Pitch_bend_c, 7, 7968
8, 89712, Pitch_bend_c, 7, 7872
8, 89720, Note_off_c, 7, 62, 64
8, 89720, Pitch_bend_c, 7, 8096
8, 89872, Pitch_bend_c, 7, 8192
8, 89876, Note_on_c, 7, 63, 102
8, 89876, Pitch_bend_c, 7, 8000
8, 89880, Pitch_bend_c, 7, 8064
8, 89896, Pitch_bend_c, 7, 8032
8, 89908, Pitch_bend_c, 7, 8064
8, 89928, Pitch_bend_c, 7, 8128
8, 89936, Pitch_bend_c, 7, 8192
8, 89960, Pitch_bend_c, 7, 8256
8, 89968, Pitch_bend_c, 7, 8288
8, 89976, Pitch_bend_c, 7, 8352
8, 89988, Pitch_bend_c, 7, 8416
8, 90020, Pitch_bend_c, 7, 8384
8, 90028, Pitch_bend_c, 7, 8288
8, 90040, Pitch_bend_c, 7, 8192
8, 90052, Pitch_bend_c, 7, 8128
8, 90060, Pitch_bend_c, 7, 8032
8, 90072, Pitch_bend_c, 7, 7872
8, 90084, Note_off_c, 7, 63, 64
8, 90084, Pitch_bend_c, 7, 8192
8, 90252, Note_on_c, 7, 64, 114
8, 90256, Pitch_bend_c, 7, 8160
8, 90260, Pitch_bend_c, 7, 8096
8, 90288, Pitch_bend_c, 7, 8128
8, 90320, Pitch_bend_c, 7, 8160
8, 90348, Pitch_bend_c, 7, 8128
8, 90360, Pitch_bend_c, 7, 8096
8, 90372, Pitch_bend_c, 7, 8064
8, 90380, Pitch_bend_c, 7, 8032
8, 90400, Pitch_bend_c, 7, 8064
8, 90440, Pitch_bend_c, 7, 8032
8, 90448, Pitch_bend_c, 7, 7936
8, 90456, Pitch_bend_c, 7, 7872
8, 90472, Note_off_c, 7, 64, 64
8, 90472, Pitch_bend_c, 7, 8064
8, 90616, Pitch_bend_c, 7, 8192
8, 90616, Note_on_c, 7, 65, 116
8, 90624, Pitch_bend_c, 7, 8416
8, 90628, Pitch_bend_c, 7, 8128
8, 90652, Pitch_bend_c, 7, 8160
8, 90676, Pitch_bend_c, 7, 8192
8, 90696, Pitch_bend_c, 7, 8096
8, 90704, Pitch_bend_c, 7, 8064
8, 90712, Pitch_bend_c, 7, 8032
8, 90728, Pitch_bend_c, 7, 8000
8, 90744, Pitch_bend_c, 7, 8032
8, 90792, Pitch_bend_c, 7, 8000
8, 90824, Pitch_bend_c, 7, 7936
8, 90832, Pitch_bend_c, 7, 7872
8, 90840, Pitch_bend_c, 7, 8032
8, 90844, Note_off_c, 7, 65, 64
8, 90860, Pitch_bend_c, 7, 8192
8, 90864, Note_on_c, 7, 67, 101
8, 90864, Pitch_bend_c, 7, 8320
8, 90868, Pitch_bend_c, 7, 8192
8, 90884, Pitch_bend_c, 7, 8160
8, 90904, Pitch_bend_c, 7, 8128
8, 90916, Pitch_bend_c, 7, 8096
8, 90924, Pitch_bend_c, 7, 8064
8, 90936, Pitch_bend_c, 7, 8032
8, 90956, Pitch_bend_c, 7, 8064
8, 90968, Pitch_bend_c, 7, 8032
8, 90976, Note_off_c, 7, 67, 64
8, 90976, Pitch_bend_c, 7, 8096
8, 91008, Pitch_bend_c, 7, 8192
8, 91012, Note_on_c, 7, 69, 112
8, 91016, Pitch_bend_c, 7, 8256
8, 91048, Pitch_bend_c, 7, 8224
8, 91088, Pitch_bend_c, 7, 8256
8, 91132, Pitch_bend_c, 7, 8224
8, 91152, Pitch_bend_c, 7, 8192
8, 91164, Pitch_bend_c, 7, 8128
8, 91192, Pitch_bend_c, 7, 8160
8, 91204, Pitch_bend_c, 7, 8192
8, 91216, Pitch_bend_c, 7, 8224
8, 91220, Note_off_c, 7, 69, 64
8, 91240, Pitch_bend_c, 7, 8192
8, 91244, Note_on_c, 7, 70, 116
8, 91248, Pitch_bend_c, 7, 8160
8, 91252, Pitch_bend_c, 7, 8224
8, 91264, Pitch_bend_c, 7, 8256
8, 91348, Pitch_bend_c, 7, 8288
8, 91356, Pitch_bend_c, 7, 8320
8, 91380, Pitch_bend_c, 7, 8288
8, 91388, Pitch_bend_c, 7, 8064
8, 91400, Pitch_bend_c, 7, 7744
8, 91404, Note_off_c, 7, 70, 64
8, 91404, Pitch_bend_c, 7, 8288
8, 91780, Pitch_bend_c, 7, 8192
8, 91784, Note_on_c, 7, 70, 119
8, 91784, Pitch_bend_c, 7, 8288
8, 91852, Pitch_bend_c, 7, 8256
8, 91936, Pitch_bend_c, 7, 8224
8, 91968, Pitch_bend_c, 7, 8192
8, 92488, Pitch_bend_c, 7, 8160
8, 92504, Pitch_bend_c, 7, 8128
8, 92520, Pitch_bend_c, 7, 8160
8, 92540, Pitch_bend_c, 7, 8192
8, 92788, Pitch_bend_c, 7, 8160
8, 92904, Pitch_bend_c, 7, 8192
8, 92944, Pitch_bend_c, 7, 8160
8, 92984, Pitch_bend_c, 7, 8192
8, 93036, Pitch_bend_c, 7, 8160
8, 93048, Pitch_bend_c, 7, 8128
8, 93064, Pitch_bend_c, 7, 8160
8, 93080, Pitch_bend_c, 7, 8192
8, 93120, Pitch_bend_c, 7, 8160
8, 93128, Pitch_bend_c, 7, 8192
8, 93224, Pitch_bend_c, 7, 8160
8, 93244, Pitch_bend_c, 7, 8192
8, 93256, Pitch_bend_c, 7, 8160
8, 93268, Pitch_bend_c, 7, 8192
8, 93296, Pitch_bend_c, 7, 8224
8, 93304, Pitch_bend_c, 7, 8192
8, 93336, Pitch_bend_c, 7, 8160
8, 93356, Pitch_bend_c, 7, 8192
8, 93388, Pitch_bend_c, 7, 8224
8, 93412, Pitch_bend_c, 7, 8192
8, 93504, Pitch_bend_c, 7, 8224
8, 93512, Pitch_bend_c, 7, 8192
8, 93576, Pitch_bend_c, 7, 8160
8, 93596, Pitch_bend_c, 7, 8128
8, 93608, Pitch_bend_c, 7, 8160
8, 93620, Pitch_bend_c, 7, 8192
8, 93624, Note_off_c, 7, 70, 64
8, 95232, End_track
9, 0, Start_track
9, 0, Title_t, "DRUMS"
9, 2072, Control_c, 9, 7, 105
9, 2072, Control_c, 9, 11, 127
9, 2076, Control_c, 9, 91, 48
9, 2076, Control_c, 9, 93, 0
9, 4852, Note_on_c, 9, 38, 101
9, 4856, Control_c, 9, 1, 0
9, 4856, Pitch_bend_c, 9, 8192
9, 4872, Note_off_c, 9, 38, 64
9, 4984, Note_on_c, 9, 38, 101
9, 5004, Note_off_c, 9, 38, 64
9, 5244, Note_on_c, 9, 38, 96
9, 5264, Note_off_c, 9, 38, 64
9, 5384, Note_on_c, 9, 38, 88
9, 5400, Note_off_c, 9, 38, 64
9, 5512, Note_on_c, 9, 38, 82
9, 5528, Note_off_c, 9, 38, 64
9, 5640, Note_on_c, 9, 38, 88
9, 5660, Note_off_c, 9, 38, 64
9, 5768, Note_on_c, 9, 38, 105
9, 5788, Note_off_c, 9, 38, 64
9, 5900, Note_on_c, 9, 38, 117
9, 5920, Note_off_c, 9, 38, 64
9, 6028, Note_on_c, 9, 38, 122
9, 6048, Note_off_c, 9, 38, 64
9, 6148, Note_on_c, 9, 51, 98
9, 6152, Note_on_c, 9, 35, 108
9, 6168, Note_off_c, 9, 51, 64
9, 6172, Note_off_c, 9, 35, 64
9, 6280, Note_on_c, 9, 51, 68
9, 6296, Note_off_c, 9, 51, 64
9, 6408, Note_on_c, 9, 51, 67
9, 6424, Note_off_c, 9, 51, 64
9, 6536, Note_on_c, 9, 51, 88
9, 6536, Note_on_c, 9, 38, 117
9, 6552, Note_off_c, 9, 51, 64
9, 6556, Note_off_c, 9, 38, 64
9, 6664, Note_on_c, 9, 51, 77
9, 6680, Note_off_c, 9, 51, 64
9, 6792, Note_on_c, 9, 51, 78
9, 6808, Note_off_c, 9, 51, 64
9, 6920, Note_on_c, 9, 35, 100
9, 6920, Note_on_c, 9, 51, 80
9, 6936, Note_off_c, 9, 35, 64
9, 6940, Note_off_c, 9, 51, 64
9, 7048, Note_on_c, 9, 51, 78
9, 7064, Note_off_c, 9, 51, 64
9, 7172, Note_on_c, 9, 51, 81
9, 7192, Note_off_c, 9, 51, 64
9, 7300, Note_on_c, 9, 51, 98
9, 7304, Note_on_c, 9, 38, 105
9, 7320, Note_off_c, 9, 51, 64
9, 7324, Note_off_c, 9, 38, 64
9, 7428, Note_on_c, 9, 51, 82
9, 7448, Note_off_c, 9, 51, 64
9, 7560, Note_on_c, 9, 51, 86
9, 7576, Note_off_c, 9, 51, 64
9, 7676, Note_on_c, 9, 35, 95
9, 7688, Note_on_c, 9, 51, 87
9, 7696, Note_off_c, 9, 35, 64
9, 7704, Note_off_c, 9, 51, 64
9, 7812, Note_on_c, 9, 51, 80
9, 7832, Note_off_c, 9, 51, 64
9, 7940, Note_on_c, 9, 51, 84
9, 7960, Note_off_c, 9, 51, 64
9, 8068, Note_on_c, 9, 38, 107
9, 8068, Note_on_c, 9, 51, 97
9, 8088, Note_off_c, 9, 51, 64
9, 8088, Note_off_c, 9, 38, 64
9, 8188, Note_on_c, 9, 51, 80
9, 8208, Note_off_c, 9, 51, 64
9, 8316, Note_on_c, 9, 51, 87
9, 8336, Note_off_c, 9, 51, 64
9, 8448, Note_on_c, 9, 35, 97
9, 8448, Note_on_c, 9, 51, 87
9, 8468, Note_off_c, 9, 51, 64
9, 8468, Note_off_c, 9, 35, 64
9, 8580, Note_on_c, 9, 51, 82
9, 8600, Note_off_c, 9, 51, 64
9, 8708, Note_on_c, 9, 51, 83
9, 8728, Note_off_c, 9, 51, 64
9, 8836, Note_on_c, 9, 51, 95
9, 8840, Note_on_c, 9, 38, 106
9, 8856, Note_off_c, 9, 38, 64
9, 8856, Note_off_c, 9, 51, 64
9, 8956, Note_on_c, 9, 51, 87
9, 8976, Note_off_c, 9, 51, 64
9, 9088, Note_on_c, 9, 51, 87
9, 9108, Note_off_c, 9, 51, 64
9, 9220, Note_on_c, 9, 51, 90
9, 9224, Note_on_c, 9, 35, 100
9, 9240, Note_off_c, 9, 35, 64
9, 9240, Note_off_c, 9, 51, 64
9, 9340, Note_on_c, 9, 51, 83
9, 9360, Note_off_c, 9, 51, 64
9, 9464, Note_on_c, 9, 51, 81
9, 9484, Note_off_c, 9, 51, 64
9, 9592, Note_on_c, 9, 51, 95
9, 9604, Note_on_c, 9, 38, 108
9, 9612, Note_off_c, 9, 51, 64
9, 9624, Note_off_c, 9, 38, 64
9, 9720, Note_on_c, 9, 51, 85
9, 9740, Note_off_c, 9, 51, 64
9, 9852, Note_on_c, 9, 51, 87
9, 9872, Note_off_c, 9, 51, 64
9, 9980, Note_on_c, 9, 51, 90
9, 9984, Note_on_c, 9, 35, 100
9, 10000, Note_off_c, 9, 51, 64
9, 10004, Note_off_c, 9, 35, 64
9, 10104, Note_on_c, 9, 51, 80
9, 10124, Note_off_c, 9, 51, 64
9, 10236, Note_on_c, 9, 51, 84
9, 10256, Note_off_c, 9, 51, 64
9, 10364, Note_on_c, 9, 51, 91
9, 10372, Note_on_c, 9, 38, 111
9, 10384, Note_off_c, 9, 51, 64
9, 10392, Note_off_c, 9, 38, 64
9, 10488, Note_on_c, 9, 51, 83
9, 10508, Note_off_c, 9, 51, 64
9, 10624, Note_on_c, 9, 51, 87
9, 10644, Note_off_c, 9, 51, 64
9, 10756, Note_on_c, 9, 35, 96
9, 10760, Note_on_c, 9, 51, 88
9, 10776, Note_off_c, 9, 51, 64
9, 10776, Note_off_c, 9, 35, 64
9, 10888, Note_on_c, 9, 51, 81
9, 10904, Note_off_c, 9, 51, 64
9, 11016, Note_on_c, 9, 51, 87
9, 11036, Note_off_c, 9, 51, 64
9, 11140, Note_on_c, 9, 38, 110
9, 11144, Note_on_c, 9, 51, 92
9, 11160, Note_off_c, 9, 51, 64
9, 11160, Note_off_c, 9, 38, 64
9, 11268, Note_on_c, 9, 51, 87
9, 11288, Note_off_c, 9, 51, 64
9, 11388, Note_on_c, 9, 51, 87
9, 11408, Note_off_c, 9, 51, 64
9, 11516, Note_on_c, 9, 51, 87
9, 11528, Note_on_c, 9, 35, 97
9, 11536, Note_off_c, 9, 51, 64
9, 11544, Note_off_c, 9, 35, 64
9, 11644, Note_on_c, 9, 51, 82
9, 11664, Note_off_c, 9, 51, 64
9, 11772, Note_on_c, 9, 51, 87
9, 11792, Note_off_c, 9, 51, 64
9, 11900, Note_on_c, 9, 51, 94
9, 11912, Note_on_c, 9, 38, 112
9, 11920, Note_off_c, 9, 51, 64
9, 11928, Note_off_c, 9, 38, 64
9, 12028, Note_on_c, 9, 51, 87
9, 12048, Note_off_c, 9, 51, 64
9, 12164, Note_on_c, 9, 51, 87
9, 12184, Note_off_c, 9, 51, 64
9, 12292, Note_on_c, 9, 35, 101
9, 12296, Note_on_c, 9, 51, 88
9, 12312, Note_off_c, 9, 51, 64
9, 12312, Note_off_c, 9, 35, 64
9, 12420, Note_on_c, 9, 51, 84
9, 12440, Note_off_c, 9, 51, 64
9, 12540, Note_on_c, 9, 51, 86
9, 12560, Note_off_c, 9, 51, 64
9, 12668, Note_on_c, 9, 51, 95
9, 12676, Note_on_c, 9, 38, 114
9, 12688, Note_off_c, 9, 51, 64
9, 12696, Note_off_c, 9, 38, 64
9, 12796, Note_on_c, 9, 51, 85
9, 12816, Note_off_c, 9, 51, 64
9, 12924, Note_on_c, 9, 51, 87
9, 12944, Note_off_c, 9, 51, 64
9, 13048, Note_on_c, 9, 51, 87
9, 13064, Note_on_c, 9, 35, 100
9, 13068, Note_off_c, 9, 51, 64
9, 13080, Note_off_c, 9, 35, 64
9, 13176, Note_on_c, 9, 51, 81
9, 13196, Note_off_c, 9, 51, 64
9, 13304, Note_on_c, 9, 51, 85
9, 13324, Note_off_c, 9, 51, 64
9, 13432, Note_on_c, 9, 51, 92
9, 13444, Note_on_c, 9, 38, 106
9, 13452, Note_off_c, 9, 51, 64
9, 13464, Note_off_c, 9, 38, 64
9, 13560, Note_on_c, 9, 51, 87
9, 13580, Note_off_c, 9, 51, 64
9, 13692, Note_on_c, 9, 51, 87
9, 13712, Note_off_c, 9, 51, 64
9, 13820, Note_on_c, 9, 35, 103
9, 13828, Note_on_c, 9, 51, 87
9, 13840, Note_off_c, 9, 35, 64
9, 13848, Note_off_c, 9, 51, 64
9, 13952, Note_on_c, 9, 51, 86
9, 13972, Note_off_c, 9, 51, 64
9, 14080, Note_on_c, 9, 51, 84
9, 14100, Note_off_c, 9, 51, 64
9, 14204, Note_on_c, 9, 38, 104
9, 14204, Note_on_c, 9, 51, 90
9, 14224, Note_off_c, 9, 51, 64
9, 14224, Note_off_c, 9, 38, 64
9, 14332, Note_on_c, 9, 51, 83
9, 14352, Note_off_c, 9, 51, 64
9, 14456, Note_on_c, 9, 51, 86
9, 14476, Note_off_c, 9, 51, 64
9, 14584, Note_on_c, 9, 35, 88
9, 14596, Note_on_c, 9, 51, 87
9, 14604, Note_off_c, 9, 35, 64
9, 14616, Note_off_c, 9, 51, 64
9, 14724, Note_on_c, 9, 51, 81
9, 14744, Note_off_c, 9, 51, 64
9, 14848, Note_on_c, 9, 51, 84
9, 14868, Note_off_c, 9, 51, 64
9, 14972, Note_on_c, 9, 38, 103
9, 14972, Note_on_c, 9, 51, 94
9, 14992, Note_off_c, 9, 51, 64
9, 14992, Note_off_c, 9, 38, 64
9, 15100, Note_on_c, 9, 51, 81
9, 15120, Note_off_c, 9, 51, 64
9, 15240, Note_on_c, 9, 51, 87
9, 15256, Note_off_c, 9, 51, 64
9, 15356, Note_on_c, 9, 35, 100
9, 15368, Note_on_c, 9, 51, 88
9, 15376, Note_off_c, 9, 35, 64
9, 15384, Note_off_c, 9, 51, 64
9, 15496, Note_on_c, 9, 51, 86
9, 15512, Note_off_c, 9, 51, 64
9, 15620, Note_on_c, 9, 51, 83
9, 15640, Note_off_c, 9, 51, 64
9, 15736, Note_on_c, 9, 38, 107
9, 15748, Note_on_c, 9, 51, 88
9, 15756, Note_off_c, 9, 38, 64
9, 15768, Note_off_c, 9, 51, 64
9, 15868, Note_on_c, 9, 51, 85
9, 15888, Note_off_c, 9, 51, 64
9, 16004, Note_on_c, 9, 51, 88
9, 16024, Note_off_c, 9, 51, 64
9, 16124, Note_on_c, 9, 35, 104
9, 16132, Note_on_c, 9, 51, 87
9, 16144, Note_off_c, 9, 35, 64
9, 16152, Note_off_c, 9, 51, 64
9, 16256, Note_on_c, 9, 51, 81
9, 16276, Note_off_c, 9, 51, 64
9, 16380, Note_on_c, 9, 51, 83
9, 16400, Note_off_c, 9, 51, 64
9, 16508, Note_on_c, 9, 51, 87
9, 16520, Note_on_c, 9, 38, 105
9, 16528, Note_off_c, 9, 51, 64
9, 16540, Note_off_c, 9, 38, 64
9, 16636, Note_on_c, 9, 51, 87
9, 16656, Note_off_c, 9, 51, 64
9, 16772, Note_on_c, 9, 51, 90
9, 16792, Note_off_c, 9, 51, 64
9, 16896, Note_on_c, 9, 51, 88
9, 16900, Note_on_c, 9, 35, 104
9, 16916, Note_off_c, 9, 51, 64
9, 16920, Note_off_c, 9, 35, 64
9, 17020, Note_on_c, 9, 51, 82
9, 17040, Note_off_c, 9, 51, 64
9, 17148, Note_on_c, 9, 51, 81
9, 17168, Note_off_c, 9, 51, 64
9, 17276, Note_on_c, 9, 51, 94
9, 17280, Note_on_c, 9, 38, 108
9, 17296, Note_off_c, 9, 51, 64
9, 17300, Note_off_c, 9, 38, 64
9, 17400, Note_on_c, 9, 51, 87
9, 17420, Note_off_c, 9, 51, 64
9, 17528, Note_on_c, 9, 51, 88
9, 17548, Note_off_c, 9, 51, 64
9, 17656, Note_on_c, 9, 51, 88
9, 17664, Note_on_c, 9, 35, 103
9, 17676, Note_off_c, 9, 51, 64
9, 17684, Note_off_c, 9, 35, 64
9, 17784, Note_on_c, 9, 51, 85
9, 17804, Note_off_c, 9, 51, 64
9, 17916, Note_on_c, 9, 51, 83
9, 17936, Note_off_c, 9, 51, 64
9, 18044, Note_on_c, 9, 51, 84
9, 18052, Note_on_c, 9, 38, 114
9, 18064, Note_off_c, 9, 51, 64
9, 18072, Note_off_c, 9, 38, 64
9, 18172, Note_on_c, 9, 51, 87
9, 18192, Note_off_c, 9, 51, 64
9, 18300, Note_on_c, 9, 51, 87
9, 18320, Note_off_c, 9, 51, 64
9, 18424, Note_on_c, 9, 35, 103
9, 18428, Note_on_c, 9, 51, 93
9, 18444, Note_off_c, 9, 35, 64
9, 18448, Note_off_c, 9, 51, 64
9, 18552, Note_on_c, 9, 51, 86
9, 18572, Note_off_c, 9, 51, 64
9, 18684, Note_on_c, 9, 51, 83
9, 18704, Note_off_c, 9, 51, 64
9, 18812, Note_on_c, 9, 38, 112
9, 18816, Note_on_c, 9, 51, 90
9, 18832, Note_off_c, 9, 38, 64
9, 18836, Note_off_c, 9, 51, 64
9, 18940, Note_on_c, 9, 51, 81
9, 18960, Note_off_c, 9, 51, 64
9, 19068, Note_on_c, 9, 51, 86
9, 19088, Note_off_c, 9, 51, 64
9, 19196, Note_on_c, 9, 51, 86
9, 19200, Note_on_c, 9, 35, 103
9, 19216, Note_off_c, 9, 51, 64
9, 19220, Note_off_c, 9, 35, 64
9, 19324, Note_on_c, 9, 51, 84
9, 19344, Note_off_c, 9, 51, 64
9, 19448, Note_on_c, 9, 51, 78
9, 19468, Note_off_c, 9, 51, 64
9, 19580, Note_on_c, 9, 51, 90
9, 19592, Note_on_c, 9, 38, 111
9, 19600, Note_off_c, 9, 51, 64
9, 19608, Note_off_c, 9, 38, 64
9, 19708, Note_on_c, 9, 51, 85
9, 19728, Note_off_c, 9, 51, 64
9, 19840, Note_on_c, 9, 51, 87
9, 19860, Note_off_c, 9, 51, 64
9, 19972, Note_on_c, 9, 35, 101
9, 19976, Note_on_c, 9, 51, 91
9, 19992, Note_off_c, 9, 51, 64
9, 19992, Note_off_c, 9, 35, 64
9, 20104, Note_on_c, 9, 51, 81
9, 20120, Note_off_c, 9, 51, 64
9, 20228, Note_on_c, 9, 51, 82
9, 20248, Note_off_c, 9, 51, 64
9, 20356, Note_on_c, 9, 51, 88
9, 20360, Note_on_c, 9, 38, 112
9, 20376, Note_off_c, 9, 38, 64
9, 20376, Note_off_c, 9, 51, 64
9, 20484, Note_on_c, 9, 51, 83
9, 20504, Note_off_c, 9, 51, 64
9, 20608, Note_on_c, 9, 51, 87
9, 20628, Note_off_c, 9, 51, 64
9, 20732, Note_on_c, 9, 51, 81
9, 20740, Note_on_c, 9, 35, 103
9, 20752, Note_off_c, 9, 51, 64
9, 20760, Note_off_c, 9, 35, 64
9, 20860, Note_on_c, 9, 51, 83
9, 20880, Note_off_c, 9, 51, 64
9, 20988, Note_on_c, 9, 51, 87
9, 21008, Note_off_c, 9, 51, 64
9, 21120, Note_on_c, 9, 38, 110
9, 21120, Note_on_c, 9, 51, 95
9, 21140, Note_off_c, 9, 51, 64
9, 21140, Note_off_c, 9, 38, 64
9, 21248, Note_on_c, 9, 51, 86
9, 21268, Note_off_c, 9, 51, 64
9, 21380, Note_on_c, 9, 51, 87
9, 21400, Note_off_c, 9, 51, 64
9, 21508, Note_on_c, 9, 35, 103
9, 21508, Note_on_c, 9, 51, 90
9, 21528, Note_off_c, 9, 51, 64
9, 21528, Note_off_c, 9, 35, 64
9, 21636, Note_on_c, 9, 51, 85
9, 21656, Note_off_c, 9, 51, 64
9, 21756, Note_on_c, 9, 51, 85
9, 21776, Note_off_c, 9, 51, 64
9, 21888, Note_on_c, 9, 51, 87
9, 21896, Note_on_c, 9, 38, 106
9, 21908, Note_off_c, 9, 51, 64
9, 21912, Note_off_c, 9, 38, 64
9, 22016, Note_on_c, 9, 51, 86
9, 22036, Note_off_c, 9, 51, 64
9, 22144, Note_on_c, 9, 51, 87
9, 22164, Note_off_c, 9, 51, 64
9, 22272, Note_on_c, 9, 51, 87
9, 22276, Note_on_c, 9, 35, 100
9, 22292, Note_off_c, 9, 51, 64
9, 22296, Note_off_c, 9, 35, 64
9, 22400, Note_on_c, 9, 51, 81
9, 22420, Note_off_c, 9, 51, 64
9, 22524, Note_on_c, 9, 51, 84
9, 22544, Note_off_c, 9, 51, 64
9, 22656, Note_on_c, 9, 38, 112
9, 22656, Note_on_c, 9, 51, 92
9, 22676, Note_off_c, 9, 51, 64
9, 22676, Note_off_c, 9, 38, 64
9, 22780, Note_on_c, 9, 51, 84
9, 22800, Note_off_c, 9, 51, 64
9, 22908, Note_on_c, 9, 51, 83
9, 22928, Note_off_c, 9, 51, 64
9, 23036, Note_on_c, 9, 51, 85
9, 23048, Note_on_c, 9, 35, 98
9, 23056, Note_off_c, 9, 51, 64
9, 23064, Note_off_c, 9, 35, 64
9, 23160, Note_on_c, 9, 51, 81
9, 23180, Note_off_c, 9, 51, 64
9, 23288, Note_on_c, 9, 51, 82
9, 23308, Note_off_c, 9, 51, 64
9, 23416, Note_on_c, 9, 51, 87
9, 23428, Note_on_c, 9, 38, 104
9, 23436, Note_off_c, 9, 51, 64
9, 23448, Note_off_c, 9, 38, 64
9, 23544, Note_on_c, 9, 51, 80
9, 23564, Note_off_c, 9, 51, 64
9, 23672, Note_on_c, 9, 51, 82
9, 23692, Note_off_c, 9, 51, 64
9, 23804, Note_on_c, 9, 51, 85
9, 23808, Note_on_c, 9, 35, 96
9, 23824, Note_off_c, 9, 51, 64
9, 23828, Note_off_c, 9, 35, 64
9, 23928, Note_on_c, 9, 51, 79
9, 23948, Note_off_c, 9, 51, 64
9, 24056, Note_on_c, 9, 51, 85
9, 24076, Note_off_c, 9, 51, 64
9, 24184, Note_on_c, 9, 51, 86
9, 24188, Note_on_c, 9, 38, 106
9, 24204, Note_off_c, 9, 51, 64
9, 24208, Note_off_c, 9, 38, 64
9, 24312, Note_on_c, 9, 51, 84
9, 24332, Note_off_c, 9, 51, 64
9, 24444, Note_on_c, 9, 51, 87
9, 24464, Note_off_c, 9, 51, 64
9, 24572, Note_on_c, 9, 35, 100
9, 24580, Note_on_c, 9, 51, 90
9, 24592, Note_off_c, 9, 35, 64
9, 24600, Note_off_c, 9, 51, 64
9, 24708, Note_on_c, 9, 51, 87
9, 24728, Note_off_c, 9, 51, 64
9, 24828, Note_on_c, 9, 51, 87
9, 24848, Note_off_c, 9, 51, 64
9, 24952, Note_on_c, 9, 38, 110
9, 24960, Note_on_c, 9, 51, 92
9, 24972, Note_off_c, 9, 38, 64
9, 24980, Note_off_c, 9, 51, 64
9, 25088, Note_on_c, 9, 51, 87
9, 25108, Note_off_c, 9, 51, 64
9, 25212, Note_on_c, 9, 51, 87
9, 25232, Note_off_c, 9, 51, 64
9, 25340, Note_on_c, 9, 35, 100
9, 25348, Note_on_c, 9, 51, 87
9, 25360, Note_off_c, 9, 35, 64
9, 25368, Note_off_c, 9, 51, 64
9, 25472, Note_on_c, 9, 51, 84
9, 25492, Note_off_c, 9, 51, 64
9, 25596, Note_on_c, 9, 51, 86
9, 25616, Note_off_c, 9, 51, 64
9, 25732, Note_on_c, 9, 51, 87
9, 25736, Note_on_c, 9, 38, 112
9, 25752, Note_off_c, 9, 38, 64
9, 25752, Note_off_c, 9, 51, 64
9, 25860, Note_on_c, 9, 51, 86
9, 25880, Note_off_c, 9, 51, 64
9, 25980, Note_on_c, 9, 51, 85
9, 26000, Note_off_c, 9, 51, 64
9, 26112, Note_on_c, 9, 51, 87
9, 26116, Note_on_c, 9, 35, 100
9, 26132, Note_off_c, 9, 51, 64
9, 26136, Note_off_c, 9, 35, 64
9, 26236, Note_on_c, 9, 51, 78
9, 26256, Note_off_c, 9, 51, 64
9, 26368, Note_on_c, 9, 51, 79
9, 26388, Note_off_c, 9, 51, 64
9, 26488, Note_on_c, 9, 38, 110
9, 26500, Note_on_c, 9, 51, 87
9, 26508, Note_off_c, 9, 38, 64
9, 26520, Note_off_c, 9, 51, 64
9, 26624, Note_on_c, 9, 51, 81
9, 26644, Note_off_c, 9, 51, 64
9, 26752, Note_on_c, 9, 51, 85
9, 26772, Note_off_c, 9, 51, 64
9, 26876, Note_on_c, 9, 51, 87
9, 26884, Note_on_c, 9, 35, 99
9, 26896, Note_off_c, 9, 51, 64
9, 26904, Note_off_c, 9, 35, 64
9, 27004, Note_on_c, 9, 51, 85
9, 27024, Note_off_c, 9, 51, 64
9, 27132, Note_on_c, 9, 51, 86
9, 27152, Note_off_c, 9, 51, 64
9, 27268, Note_on_c, 9, 38, 110
9, 27268, Note_on_c, 9, 51, 88
9, 27288, Note_off_c, 9, 51, 64
9, 27288, Note_off_c, 9, 38, 64
9, 27392, Note_on_c, 9, 51, 82
9, 27412, Note_off_c, 9, 51, 64
9, 27524, Note_on_c, 9, 51, 87
9, 27544, Note_off_c, 9, 51, 64
9, 27652, Note_on_c, 9, 35, 107
9, 27652, Note_on_c, 9, 51, 84
9, 27672, Note_off_c, 9, 51, 64
9, 27672, Note_off_c, 9, 35, 64
9, 27772, Note_on_c, 9, 51, 86
9, 27792, Note_off_c, 9, 51, 64
9, 27900, Note_on_c, 9, 51, 81
9, 27920, Note_off_c, 9, 51, 64
9, 28028, Note_on_c, 9, 38, 114
9, 28028, Note_on_c, 9, 51, 87
9, 28048, Note_off_c, 9, 51, 64
9, 28048, Note_off_c, 9, 38, 64
9, 28152, Note_on_c, 9, 51, 78
9, 28172, Note_off_c, 9, 51, 64
9, 28288, Note_on_c, 9, 51, 87
9, 28308, Note_off_c, 9, 51, 64
9, 28420, Note_on_c, 9, 35, 106
9, 28420, Note_on_c, 9, 51, 87
9, 28440, Note_off_c, 9, 51, 64
9, 28440, Note_off_c, 9, 35, 64
9, 28540, Note_on_c, 9, 51, 87
9, 28560, Note_off_c, 9, 51, 64
9, 28668, Note_on_c, 9, 51, 87
9, 28688, Note_off_c, 9, 51, 64
9, 28796, Note_on_c, 9, 38, 120
9, 28796, Note_on_c, 9, 51, 88
9, 28816, Note_off_c, 9, 51, 64
9, 28816, Note_off_c, 9, 38, 64
9, 28924, Note_on_c, 9, 51, 87
9, 28944, Note_off_c, 9, 51, 64
9, 29060, Note_on_c, 9, 51, 81
9, 29080, Note_off_c, 9, 51, 64
9, 29188, Note_on_c, 9, 51, 92
9, 29208, Note_off_c, 9, 51, 64
9, 29304, Note_on_c, 9, 38, 88
9, 29320, Note_off_c, 9, 38, 64
9, 29432, Note_on_c, 9, 38, 81
9, 29452, Note_off_c, 9, 38, 64
9, 29560, Note_on_c, 9, 38, 79
9, 29580, Note_off_c, 9, 38, 64
9, 29692, Note_on_c, 9, 38, 79
9, 29712, Note_off_c, 9, 38, 64
9, 29820, Note_on_c, 9, 38, 80
9, 29840, Note_off_c, 9, 38, 64
9, 29948, Note_on_c, 9, 38, 82
9, 29968, Note_off_c, 9, 38, 64
9, 30072, Note_on_c, 9, 38, 85
9, 30092, Note_off_c, 9, 38, 64
9, 30204, Note_on_c, 9, 38, 100
9, 30224, Note_off_c, 9, 38, 64
9, 30336, Note_on_c, 9, 38, 98
9, 30356, Note_off_c, 9, 38, 64
9, 30456, Note_on_c, 9, 38, 93
9, 30476, Note_off_c, 9, 38, 64
9, 30588, Note_on_c, 9, 38, 88
9, 30608, Note_off_c, 9, 38, 64
9, 30728, Note_on_c, 9, 38, 100
9, 30744, Note_off_c, 9, 38, 64
9, 30852, Note_on_c, 9, 38, 80
9, 30872, Note_off_c, 9, 38, 64
9, 30984, Note_on_c, 9, 38, 79
9, 31000, Note_off_c, 9, 38, 64
9, 31112, Note_on_c, 9, 38, 80
9, 31128, Note_off_c, 9, 38, 64
9, 31232, Note_on_c, 9, 38, 81
9, 31252, Note_off_c, 9, 38, 64
9, 31352, Note_on_c, 9, 38, 81
9, 31372, Note_off_c, 9, 38, 64
9, 31492, Note_on_c, 9, 38, 84
9, 31512, Note_off_c, 9, 38, 64
9, 31620, Note_on_c, 9, 38, 80
9, 31640, Note_off_c, 9, 38, 64
9, 31748, Note_on_c, 9, 38, 82
9, 31768, Note_off_c, 9, 38, 64
9, 31880, Note_on_c, 9, 38, 90
9, 31896, Note_off_c, 9, 38, 64
9, 32000, Note_on_c, 9, 38, 88
9, 32020, Note_off_c, 9, 38, 64
9, 32128, Note_on_c, 9, 38, 104
9, 32148, Note_off_c, 9, 38, 64
9, 32264, Note_on_c, 9, 38, 97
9, 32280, Note_off_c, 9, 38, 64
9, 32392, Note_on_c, 9, 38, 81
9, 32408, Note_off_c, 9, 38, 64
9, 32520, Note_on_c, 9, 38, 79
9, 32536, Note_off_c, 9, 38, 64
9, 32636, Note_on_c, 9, 38, 79
9, 32656, Note_off_c, 9, 38, 64
9, 32772, Note_on_c, 9, 38, 81
9, 32792, Note_off_c, 9, 38, 64
9, 32900, Note_on_c, 9, 38, 87
9, 32920, Note_off_c, 9, 38, 64
9, 33024, Note_on_c, 9, 38, 88
9, 33044, Note_off_c, 9, 38, 64
9, 33148, Note_on_c, 9, 38, 87
9, 33168, Note_off_c, 9, 38, 64
9, 33276, Note_on_c, 9, 38, 88
9, 33296, Note_off_c, 9, 38, 64
9, 33404, Note_on_c, 9, 38, 94
9, 33424, Note_off_c, 9, 38, 64
9, 33532, Note_on_c, 9, 38, 91
9, 33552, Note_off_c, 9, 38, 64
9, 33656, Note_on_c, 9, 38, 98
9, 33676, Note_off_c, 9, 38, 64
9, 33788, Note_on_c, 9, 38, 88
9, 33808, Note_off_c, 9, 38, 64
9, 33916, Note_on_c, 9, 38, 80
9, 33936, Note_off_c, 9, 38, 64
9, 34044, Note_on_c, 9, 38, 79
9, 34064, Note_off_c, 9, 38, 64
9, 34176, Note_on_c, 9, 38, 80
9, 34196, Note_off_c, 9, 38, 64
9, 34300, Note_on_c, 9, 38, 79
9, 34320, Note_off_c, 9, 38, 64
9, 34424, Note_on_c, 9, 38, 82
9, 34444, Note_off_c, 9, 38, 64
9, 34556, Note_on_c, 9, 38, 82
9, 34576, Note_off_c, 9, 38, 64
9, 34684, Note_on_c, 9, 38, 83
9, 34704, Note_off_c, 9, 38, 64
9, 34812, Note_on_c, 9, 38, 84
9, 34832, Note_off_c, 9, 38, 64
9, 34940, Note_on_c, 9, 38, 84
9, 34960, Note_off_c, 9, 38, 64
9, 35068, Note_on_c, 9, 38, 81
9, 35088, Note_off_c, 9, 38, 64
9, 35204, Note_on_c, 9, 38, 92
9, 35224, Note_off_c, 9, 38, 64
9, 35332, Note_on_c, 9, 38, 104
9, 35352, Note_off_c, 9, 38, 64
9, 35460, Note_on_c, 9, 38, 85
9, 35480, Note_off_c, 9, 38, 64
9, 35588, Note_on_c, 9, 38, 84
9, 35608, Note_off_c, 9, 38, 64
9, 35712, Note_on_c, 9, 38, 84
9, 35732, Note_off_c, 9, 38, 64
9, 35836, Note_on_c, 9, 38, 81
9, 35856, Note_off_c, 9, 38, 64
9, 35972, Note_on_c, 9, 38, 82
9, 35992, Note_off_c, 9, 38, 64
9, 36100, Note_on_c, 9, 38, 88
9, 36120, Note_off_c, 9, 38, 64
9, 36224, Note_on_c, 9, 38, 85
9, 36244, Note_off_c, 9, 38, 64
9, 36356, Note_on_c, 9, 38, 85
9, 36376, Note_off_c, 9, 38, 64
9, 36488, Note_on_c, 9, 38, 90
9, 36504, Note_off_c, 9, 38, 64
9, 36616, Note_on_c, 9, 38, 99
9, 36632, Note_off_c, 9, 38, 64
9, 36744, Note_on_c, 9, 38, 96
9, 36760, Note_off_c, 9, 38, 64
9, 36872, Note_on_c, 9, 38, 100
9, 36888, Note_off_c, 9, 38, 64
9, 36996, Note_on_c, 9, 38, 86
9, 37016, Note_off_c, 9, 38, 64
9, 37124, Note_on_c, 9, 38, 83
9, 37144, Note_off_c, 9, 38, 64
9, 37244, Note_on_c, 9, 38, 82
9, 37264, Note_off_c, 9, 38, 64
9, 37372, Note_on_c, 9, 38, 83
9, 37392, Note_off_c, 9, 38, 64
9, 37500, Note_on_c, 9, 38, 84
9, 37520, Note_off_c, 9, 38, 64
9, 37632, Note_on_c, 9, 38, 93
9, 37652, Note_off_c, 9, 38, 64
9, 37756, Note_on_c, 9, 38, 86
9, 37776, Note_off_c, 9, 38, 64
9, 37884, Note_on_c, 9, 38, 88
9, 37904, Note_off_c, 9, 38, 64
9, 38016, Note_on_c, 9, 38, 86
9, 38036, Note_off_c, 9, 38, 64
9, 38144, Note_on_c, 9, 38, 88
9, 38164, Note_off_c, 9, 38, 64
9, 38268, Note_on_c, 9, 38, 88
9, 38288, Note_off_c, 9, 38, 64
9, 38396, Note_on_c, 9, 38, 100
9, 38416, Note_off_c, 9, 38, 64
9, 38524, Note_on_c, 9, 38, 86
9, 38544, Note_off_c, 9, 38, 64
9, 38652, Note_on_c, 9, 38, 86
9, 38672, Note_off_c, 9, 38, 64
9, 38780, Note_on_c, 9, 38, 80
9, 38800, Note_off_c, 9, 38, 64
9, 38904, Note_on_c, 9, 38, 85
9, 38924, Note_off_c, 9, 38, 64
9, 39036, Note_on_c, 9, 38, 86
9, 39056, Note_off_c, 9, 38, 64
9, 39160, Note_on_c, 9, 38, 88
9, 39180, Note_off_c, 9, 38, 64
9, 39288, Note_on_c, 9, 38, 84
9, 39308, Note_off_c, 9, 38, 64
9, 39420, Note_on_c, 9, 38, 88
9, 39440, Note_off_c, 9, 38, 64
9, 39548, Note_on_c, 9, 38, 88
9, 39568, Note_off_c, 9, 38, 64
9, 39676, Note_on_c, 9, 38, 90
9, 39696, Note_off_c, 9, 38, 64
9, 39804, Note_on_c, 9, 38, 94
9, 39824, Note_off_c, 9, 38, 64
9, 39932, Note_on_c, 9, 38, 101
9, 39952, Note_off_c, 9, 38, 64
9, 40060, Note_on_c, 9, 38, 86
9, 40080, Note_off_c, 9, 38, 64
9, 40188, Note_on_c, 9, 38, 85
9, 40208, Note_off_c, 9, 38, 64
9, 40320, Note_on_c, 9, 38, 87
9, 40340, Note_off_c, 9, 38, 64
9, 40444, Note_on_c, 9, 38, 84
9, 40464, Note_off_c, 9, 38, 64
9, 40568, Note_on_c, 9, 38, 85
9, 40588, Note_off_c, 9, 38, 64
9, 40700, Note_on_c, 9, 38, 91
9, 40720, Note_off_c, 9, 38, 64
9, 40832, Note_on_c, 9, 38, 87
9, 40852, Note_off_c, 9, 38, 64
9, 40968, Note_on_c, 9, 38, 91
9, 40984, Note_off_c, 9, 38, 64
9, 41096, Note_on_c, 9, 38, 99
9, 41112, Note_off_c, 9, 38, 64
9, 41220, Note_on_c, 9, 38, 90
9, 41240, Note_off_c, 9, 38, 64
9, 41352, Note_on_c, 9, 38, 95
9, 41368, Note_off_c, 9, 38, 64
9, 41480, Note_on_c, 9, 38, 105
9, 41496, Note_off_c, 9, 38, 64
9, 41728, Note_on_c, 9, 38, 97
9, 41748, Note_off_c, 9, 38, 64
9, 41864, Note_on_c, 9, 38, 110
9, 41880, Note_off_c, 9, 38, 64
9, 42108, Note_on_c, 9, 38, 95
9, 42128, Note_off_c, 9, 38, 64
9, 42236, Note_on_c, 9, 38, 105
9, 42256, Note_off_c, 9, 38, 64
9, 42368, Note_on_c, 9, 38, 97
9, 42388, Note_off_c, 9, 38, 64
9, 42492, Note_on_c, 9, 38, 111
9, 42512, Note_off_c, 9, 38, 64
9, 42628, Note_on_c, 9, 38, 124
9, 42648, Note_off_c, 9, 38, 64
9, 43004, Note_on_c, 9, 49, 95
9, 43016, Note_on_c, 9, 35, 106
9, 43024, Note_off_c, 9, 49, 64
9, 43036, Note_off_c, 9, 35, 64
9, 43140, Note_on_c, 9, 51, 95
9, 43160, Note_off_c, 9, 51, 64
9, 43272, Note_on_c, 9, 51, 71
9, 43288, Note_off_c, 9, 51, 64
9, 43392, Note_on_c, 9, 38, 112
9, 43392, Note_on_c, 9, 51, 86
9, 43412, Note_off_c, 9, 51, 64
9, 43412, Note_off_c, 9, 38, 64
9, 43524, Note_on_c, 9, 51, 71
9, 43544, Note_off_c, 9, 51, 64
9, 43656, Note_on_c, 9, 51, 70
9, 43672, Note_off_c, 9, 51, 64
9, 43784, Note_on_c, 9, 35, 93
9, 43784, Note_on_c, 9, 51, 67
9, 43800, Note_off_c, 9, 35, 64
9, 43804, Note_off_c, 9, 51, 64
9, 43916, Note_on_c, 9, 51, 62
9, 43936, Note_off_c, 9, 51, 64
9, 44048, Note_on_c, 9, 51, 69
9, 44068, Note_off_c, 9, 51, 64
9, 44168, Note_on_c, 9, 38, 101
9, 44172, Note_on_c, 9, 51, 81
9, 44188, Note_off_c, 9, 38, 64
9, 44192, Note_off_c, 9, 51, 64
9, 44296, Note_on_c, 9, 51, 78
9, 44316, Note_off_c, 9, 51, 64
9, 44424, Note_on_c, 9, 51, 79
9, 44440, Note_off_c, 9, 51, 64
9, 44548, Note_on_c, 9, 35, 95
9, 44548, Note_on_c, 9, 51, 76
9, 44568, Note_off_c, 9, 51, 64
9, 44568, Note_off_c, 9, 35, 64
9, 44676, Note_on_c, 9, 51, 70
9, 44696, Note_off_c, 9, 51, 64
9, 44808, Note_on_c, 9, 51, 70
9, 44824, Note_off_c, 9, 51, 64
9, 44916, Note_on_c, 9, 38, 106
9, 44932, Note_on_c, 9, 51, 75
9, 44936, Note_off_c, 9, 38, 64
9, 44952, Note_off_c, 9, 51, 64
9, 45052, Note_on_c, 9, 51, 70
9, 45072, Note_off_c, 9, 51, 64
9, 45176, Note_on_c, 9, 51, 73
9, 45196, Note_off_c, 9, 51, 64
9, 45296, Note_on_c, 9, 35, 94
9, 45304, Note_on_c, 9, 51, 73
9, 45316, Note_off_c, 9, 35, 64
9, 45324, Note_off_c, 9, 51, 64
9, 45432, Note_on_c, 9, 51, 70
9, 45448, Note_off_c, 9, 51, 64
9, 45560, Note_on_c, 9, 51, 74
9, 45580, Note_off_c, 9, 51, 64
9, 45688, Note_on_c, 9, 51, 78
9, 45692, Note_on_c, 9, 38, 104
9, 45704, Note_off_c, 9, 51, 64
9, 45712, Note_off_c, 9, 38, 64
9, 45816, Note_on_c, 9, 51, 68
9, 45832, Note_off_c, 9, 51, 64
9, 45944, Note_on_c, 9, 51, 71
9, 45964, Note_off_c, 9, 51, 64
9, 46080, Note_on_c, 9, 35, 104
9, 46080, Note_on_c, 9, 51, 80
9, 46100, Note_off_c, 9, 51, 64
9, 46100, Note_off_c, 9, 35, 64
9, 46208, Note_on_c, 9, 51, 76
9, 46228, Note_off_c, 9, 51, 64
9, 46332, Note_on_c, 9, 51, 74
9, 46352, Note_off_c, 9, 51, 64
9, 46456, Note_on_c, 9, 38, 105
9, 46456, Note_on_c, 9, 51, 76
9, 46476, Note_off_c, 9, 51, 64
9, 46476, Note_off_c, 9, 38, 64
9, 46588, Note_on_c, 9, 51, 76
9, 46608, Note_off_c, 9, 51, 64
9, 46712, Note_on_c, 9, 51, 73
9, 46732, Note_off_c, 9, 51, 64
9, 46840, Note_on_c, 9, 35, 98
9, 46840, Note_on_c, 9, 51, 71
9, 46860, Note_off_c, 9, 51, 64
9, 46860, Note_off_c, 9, 35, 64
9, 46968, Note_on_c, 9, 51, 70
9, 46988, Note_off_c, 9, 51, 64
9, 47096, Note_on_c, 9, 51, 77
9, 47116, Note_off_c, 9, 51, 64
9, 47224, Note_on_c, 9, 38, 111
9, 47224, Note_on_c, 9, 51, 76
9, 47244, Note_off_c, 9, 51, 64
9, 47244, Note_off_c, 9, 38, 64
9, 47360, Note_on_c, 9, 51, 76
9, 47380, Note_off_c, 9, 51, 64
9, 47484, Note_on_c, 9, 51, 74
9, 47504, Note_off_c, 9, 51, 64
9, 47608, Note_on_c, 9, 35, 98
9, 47608, Note_on_c, 9, 51, 74
9, 47624, Note_off_c, 9, 35, 64
9, 47628, Note_off_c, 9, 51, 64
9, 47740, Note_on_c, 9, 51, 72
9, 47760, Note_off_c, 9, 51, 64
9, 47864, Note_on_c, 9, 51, 73
9, 47884, Note_off_c, 9, 51, 64
9, 47992, Note_on_c, 9, 38, 103
9, 47992, Note_on_c, 9, 51, 77
9, 48008, Note_off_c, 9, 38, 64
9, 48012, Note_off_c, 9, 51, 64
9, 48120, Note_on_c, 9, 51, 68
9, 48136, Note_off_c, 9, 51, 64
9, 48248, Note_on_c, 9, 51, 69
9, 48268, Note_off_c, 9, 51, 64
9, 48376, Note_on_c, 9, 35, 100
9, 48376, Note_on_c, 9, 51, 71
9, 48396, Note_off_c, 9, 51, 64
9, 48396, Note_off_c, 9, 35, 64
9, 48504, Note_on_c, 9, 51, 67
9, 48524, Note_off_c, 9, 51, 64
9, 48636, Note_on_c, 9, 51, 71
9, 48656, Note_off_c, 9, 51, 64
9, 48764, Note_on_c, 9, 51, 71
9, 48772, Note_on_c, 9, 38, 100
9, 48784, Note_off_c, 9, 51, 64
9, 48792, Note_off_c, 9, 38, 64
9, 48892, Note_on_c, 9, 51, 74
9, 48912, Note_off_c, 9, 51, 64
9, 49020, Note_on_c, 9, 51, 76
9, 49040, Note_off_c, 9, 51, 64
9, 49144, Note_on_c, 9, 35, 97
9, 49156, Note_on_c, 9, 51, 81
9, 49164, Note_off_c, 9, 35, 64
9, 49176, Note_off_c, 9, 51, 64
9, 49276, Note_on_c, 9, 51, 70
9, 49296, Note_off_c, 9, 51, 64
9, 49404, Note_on_c, 9, 51, 69
9, 49424, Note_off_c, 9, 51, 64
9, 49528, Note_on_c, 9, 38, 106
9, 49536, Note_on_c, 9, 51, 81
9, 49548, Note_off_c, 9, 38, 64
9, 49556, Note_off_c, 9, 51, 64
9, 49656, Note_on_c, 9, 51, 71
9, 49676, Note_off_c, 9, 51, 64
9, 49784, Note_on_c, 9, 51, 73
9, 49804, Note_off_c, 9, 51, 64
9, 49912, Note_on_c, 9, 51, 81
9, 49928, Note_on_c, 9, 35, 105
9, 49932, Note_off_c, 9, 51, 64
9, 49944, Note_off_c, 9, 35, 64
9, 50040, Note_on_c, 9, 51, 73
9, 50060, Note_off_c, 9, 51, 64
9, 50172, Note_on_c, 9, 51, 73
9, 50192, Note_off_c, 9, 51, 64
9, 50300, Note_on_c, 9, 38, 103
9, 50300, Note_on_c, 9, 51, 78
9, 50320, Note_off_c, 9, 51, 64
9, 50320, Note_off_c, 9, 38, 64
9, 50424, Note_on_c, 9, 51, 76
9, 50444, Note_off_c, 9, 51, 64
9, 50552, Note_on_c, 9, 51, 79
9, 50572, Note_off_c, 9, 51, 64
9, 50680, Note_on_c, 9, 51, 87
9, 50688, Note_on_c, 9, 35, 100
9, 50700, Note_off_c, 9, 51, 64
9, 50708, Note_off_c, 9, 35, 64
9, 50808, Note_on_c, 9, 51, 78
9, 50828, Note_off_c, 9, 51, 64
9, 50936, Note_on_c, 9, 51, 80
9, 50956, Note_off_c, 9, 51, 64
9, 51064, Note_on_c, 9, 51, 78
9, 51072, Note_on_c, 9, 38, 104
9, 51084, Note_off_c, 9, 51, 64
9, 51092, Note_off_c, 9, 38, 64
9, 51192, Note_on_c, 9, 51, 75
9, 51208, Note_off_c, 9, 51, 64
9, 51320, Note_on_c, 9, 51, 79
9, 51336, Note_off_c, 9, 51, 64
9, 51448, Note_on_c, 9, 51, 78
9, 51456, Note_on_c, 9, 35, 100
9, 51468, Note_off_c, 9, 51, 64
9, 51476, Note_off_c, 9, 35, 64
9, 51576, Note_on_c, 9, 51, 71
9, 51592, Note_off_c, 9, 51, 64
9, 51700, Note_on_c, 9, 51, 71
9, 51720, Note_off_c, 9, 51, 64
9, 51828, Note_on_c, 9, 51, 83
9, 51840, Note_on_c, 9, 38, 108
9, 51848, Note_off_c, 9, 51, 64
9, 51860, Note_off_c, 9, 38, 64
9, 51960, Note_on_c, 9, 51, 88
9, 51976, Note_off_c, 9, 51, 64
9, 52044, Note_on_c, 9, 38, 80
9, 52064, Note_off_c, 9, 38, 64
9, 52120, Note_on_c, 9, 38, 93
9, 52136, Note_off_c, 9, 38, 64
9, 52168, Note_on_c, 9, 38, 111
9, 52188, Note_off_c, 9, 38, 64
9, 52208, Note_on_c, 9, 38, 122
9, 52228, Note_off_c, 9, 38, 64
9, 52344, Note_on_c, 9, 38, 120
9, 52364, Note_off_c, 9, 38, 64
9, 52468, Note_on_c, 9, 38, 97
9, 52488, Note_off_c, 9, 38, 64
9, 52600, Note_on_c, 9, 38, 86
9, 52620, Note_off_c, 9, 38, 64
9, 52732, Note_on_c, 9, 38, 86
9, 52752, Note_off_c, 9, 38, 64
9, 52860, Note_on_c, 9, 38, 87
9, 52880, Note_off_c, 9, 38, 64
9, 52996, Note_on_c, 9, 38, 100
9, 53016, Note_off_c, 9, 38, 64
9, 53124, Note_on_c, 9, 38, 95
9, 53144, Note_off_c, 9, 38, 64
9, 53252, Note_on_c, 9, 38, 93
9, 53272, Note_off_c, 9, 38, 64
9, 53380, Note_on_c, 9, 38, 104
9, 53400, Note_off_c, 9, 38, 64
9, 53512, Note_on_c, 9, 38, 100
9, 53528, Note_off_c, 9, 38, 64
9, 53636, Note_on_c, 9, 38, 100
9, 53656, Note_off_c, 9, 38, 64
9, 53756, Note_on_c, 9, 38, 106
9, 53776, Note_off_c, 9, 38, 64
9, 53884, Note_on_c, 9, 38, 99
9, 53904, Note_off_c, 9, 38, 64
9, 54008, Note_on_c, 9, 38, 101
9, 54028, Note_off_c, 9, 38, 64
9, 54140, Note_on_c, 9, 38, 105
9, 54160, Note_off_c, 9, 38, 64
9, 54264, Note_on_c, 9, 38, 105
9, 54284, Note_off_c, 9, 38, 64
9, 54392, Note_on_c, 9, 38, 107
9, 54412, Note_off_c, 9, 38, 64
9, 54520, Note_on_c, 9, 38, 110
9, 54540, Note_off_c, 9, 38, 64
9, 54648, Note_on_c, 9, 38, 108
9, 54668, Note_off_c, 9, 38, 64
9, 54780, Note_on_c, 9, 38, 112
9, 54800, Note_off_c, 9, 38, 64
9, 54908, Note_on_c, 9, 38, 106
9, 54928, Note_off_c, 9, 38, 64
9, 55044, Note_on_c, 9, 38, 103
9, 55064, Note_off_c, 9, 38, 64
9, 55168, Note_on_c, 9, 38, 114
9, 55188, Note_off_c, 9, 38, 64
9, 55284, Note_on_c, 9, 35, 104
9, 55288, Note_on_c, 9, 49, 81
9, 55304, Note_off_c, 9, 49, 64
9, 55304, Note_off_c, 9, 35, 64
9, 55416, Note_on_c, 9, 51, 78
9, 55436, Note_off_c, 9, 51, 64
9, 55544, Note_on_c, 9, 51, 73
9, 55564, Note_off_c, 9, 51, 64
9, 55676, Note_on_c, 9, 51, 81
9, 55684, Note_on_c, 9, 38, 118
9, 55696, Note_off_c, 9, 51, 64
9, 55704, Note_off_c, 9, 38, 64
9, 55808, Note_on_c, 9, 51, 65
9, 55828, Note_off_c, 9, 51, 64
9, 55944, Note_on_c, 9, 51, 68
9, 55960, Note_off_c, 9, 51, 64
9, 56068, Note_on_c, 9, 35, 99
9, 56068, Note_on_c, 9, 51, 69
9, 56088, Note_off_c, 9, 51, 64
9, 56088, Note_off_c, 9, 35, 64
9, 56188, Note_on_c, 9, 51, 67
9, 56208, Note_off_c, 9, 51, 64
9, 56320, Note_on_c, 9, 51, 72
9, 56340, Note_off_c, 9, 51, 64
9, 56444, Note_on_c, 9, 38, 100
9, 56452, Note_on_c, 9, 51, 76
9, 56464, Note_off_c, 9, 38, 64
9, 56472, Note_off_c, 9, 51, 64
9, 56572, Note_on_c, 9, 51, 70
9, 56592, Note_off_c, 9, 51, 64
9, 56704, Note_on_c, 9, 51, 68
9, 56724, Note_off_c, 9, 51, 64
9, 56828, Note_on_c, 9, 35, 103
9, 56832, Note_on_c, 9, 51, 69
9, 56848, Note_off_c, 9, 35, 64
9, 56852, Note_off_c, 9, 51, 64
9, 56964, Note_on_c, 9, 51, 65
9, 56984, Note_off_c, 9, 51, 64
9, 57092, Note_on_c, 9, 51, 68
9, 57112, Note_off_c, 9, 51, 64
9, 57212, Note_on_c, 9, 38, 111
9, 57212, Note_on_c, 9, 51, 70
9, 57232, Note_off_c, 9, 51, 64
9, 57232, Note_off_c, 9, 38, 64
9, 57336, Note_on_c, 9, 51, 68
9, 57356, Note_off_c, 9, 51, 64
9, 57464, Note_on_c, 9, 51, 70
9, 57484, Note_off_c, 9, 51, 64
9, 57592, Note_on_c, 9, 35, 101
9, 57592, Note_on_c, 9, 51, 74
9, 57612, Note_off_c, 9, 51, 64
9, 57612, Note_off_c, 9, 35, 64
9, 57720, Note_on_c, 9, 51, 71
9, 57740, Note_off_c, 9, 51, 64
9, 57852, Note_on_c, 9, 51, 72
9, 57872, Note_off_c, 9, 51, 64
9, 57980, Note_on_c, 9, 51, 80
9, 57984, Note_on_c, 9, 38, 101
9, 58000, Note_off_c, 9, 51, 64
9, 58004, Note_off_c, 9, 38, 64
9, 58108, Note_on_c, 9, 51, 75
9, 58128, Note_off_c, 9, 51, 64
9, 58236, Note_on_c, 9, 51, 76
9, 58256, Note_off_c, 9, 51, 64
9, 58360, Note_on_c, 9, 35, 97
9, 58364, Note_on_c, 9, 51, 81
9, 58376, Note_off_c, 9, 35, 64
9, 58384, Note_off_c, 9, 51, 64
9, 58492, Note_on_c, 9, 51, 74
9, 58512, Note_off_c, 9, 51, 64
9, 58620, Note_on_c, 9, 51, 77
9, 58640, Note_off_c, 9, 51, 64
9, 58744, Note_on_c, 9, 38, 112
9, 58748, Note_on_c, 9, 51, 83
9, 58764, Note_off_c, 9, 38, 64
9, 58768, Note_off_c, 9, 51, 64
9, 58876, Note_on_c, 9, 51, 78
9, 58896, Note_off_c, 9, 51, 64
9, 59004, Note_on_c, 9, 51, 81
9, 59024, Note_off_c, 9, 51, 64
9, 59128, Note_on_c, 9, 51, 86
9, 59136, Note_on_c, 9, 35, 108
9, 59148, Note_off_c, 9, 51, 64
9, 59156, Note_off_c, 9, 35, 64
9, 59256, Note_on_c, 9, 51, 79
9, 59276, Note_off_c, 9, 51, 64
9, 59384, Note_on_c, 9, 51, 81
9, 59404, Note_off_c, 9, 51, 64
9, 59512, Note_on_c, 9, 51, 84
9, 59524, Note_on_c, 9, 38, 107
9, 59532, Note_off_c, 9, 51, 64
9, 59544, Note_off_c, 9, 38, 64
9, 59640, Note_on_c, 9, 51, 74
9, 59660, Note_off_c, 9, 51, 64
9, 59768, Note_on_c, 9, 51, 78
9, 59788, Note_off_c, 9, 51, 64
9, 59896, Note_on_c, 9, 51, 82
9, 59900, Note_on_c, 9, 35, 110
9, 59916, Note_off_c, 9, 51, 64
9, 59920, Note_off_c, 9, 35, 64
9, 60032, Note_on_c, 9, 51, 81
9, 60052, Note_off_c, 9, 51, 64
9, 60160, Note_on_c, 9, 51, 78
9, 60180, Note_off_c, 9, 51, 64
9, 60288, Note_on_c, 9, 38, 106
9, 60288, Note_on_c, 9, 51, 78
9, 60308, Note_off_c, 9, 51, 64
9, 60308, Note_off_c, 9, 38, 64
9, 60412, Note_on_c, 9, 51, 81
9, 60432, Note_off_c, 9, 51, 64
9, 60540, Note_on_c, 9, 51, 82
9, 60560, Note_off_c, 9, 51, 64
9, 60668, Note_on_c, 9, 51, 86
9, 60672, Note_on_c, 9, 35, 99
9, 60688, Note_off_c, 9, 51, 64
9, 60692, Note_off_c, 9, 35, 64
9, 60792, Note_on_c, 9, 51, 82
9, 60812, Note_off_c, 9, 51, 64
9, 60920, Note_on_c, 9, 51, 81
9, 60940, Note_off_c, 9, 51, 64
9, 61048, Note_on_c, 9, 38, 100
9, 61048, Note_on_c, 9, 51, 85
9, 61068, Note_off_c, 9, 51, 64
9, 61068, Note_off_c, 9, 38, 64
9, 61180, Note_on_c, 9, 51, 78
9, 61200, Note_off_c, 9, 51, 64
9, 61308, Note_on_c, 9, 51, 84
9, 61328, Note_off_c, 9, 51, 64
9, 61436, Note_on_c, 9, 51, 85
9, 61440, Note_on_c, 9, 35, 101
9, 61456, Note_off_c, 9, 51, 64
9, 61460, Note_off_c, 9, 35, 64
9, 61560, Note_on_c, 9, 51, 78
9, 61580, Note_off_c, 9, 51, 64
9, 61688, Note_on_c, 9, 51, 81
9, 61708, Note_off_c, 9, 51, 64
9, 61816, Note_on_c, 9, 51, 78
9, 61820, Note_on_c, 9, 38, 104
9, 61836, Note_off_c, 9, 51, 64
9, 61840, Note_off_c, 9, 38, 64
9, 61944, Note_on_c, 9, 51, 79
9, 61960, Note_off_c, 9, 51, 64
9, 62072, Note_on_c, 9, 51, 83
9, 62092, Note_off_c, 9, 51, 64
9, 62204, Note_on_c, 9, 51, 80
9, 62216, Note_on_c, 9, 35, 100
9, 62224, Note_off_c, 9, 51, 64
9, 62232, Note_off_c, 9, 35, 64
9, 62328, Note_on_c, 9, 51, 78
9, 62348, Note_off_c, 9, 51, 64
9, 62456, Note_on_c, 9, 51, 76
9, 62476, Note_off_c, 9, 51, 64
9, 62584, Note_on_c, 9, 38, 107
9, 62584, Note_on_c, 9, 51, 79
9, 62604, Note_off_c, 9, 51, 64
9, 62604, Note_off_c, 9, 38, 64
9, 62716, Note_on_c, 9, 51, 84
9, 62736, Note_off_c, 9, 51, 64
9, 62844, Note_on_c, 9, 51, 87
9, 62864, Note_off_c, 9, 51, 64
9, 62972, Note_on_c, 9, 35, 99
9, 62972, Note_on_c, 9, 51, 84
9, 62992, Note_off_c, 9, 51, 64
9, 62992, Note_off_c, 9, 35, 64
9, 63096, Note_on_c, 9, 51, 78
9, 63116, Note_off_c, 9, 51, 64
9, 63228, Note_on_c, 9, 51, 79
9, 63248, Note_off_c, 9, 51, 64
9, 63352, Note_on_c, 9, 38, 108
9, 63368, Note_on_c, 9, 51, 83
9, 63372, Note_off_c, 9, 38, 64
9, 63384, Note_off_c, 9, 51, 64
9, 63492, Note_on_c, 9, 51, 79
9, 63512, Note_off_c, 9, 51, 64
9, 63620, Note_on_c, 9, 51, 78
9, 63640, Note_off_c, 9, 51, 64
9, 63740, Note_on_c, 9, 35, 100
9, 63740, Note_on_c, 9, 51, 79
9, 63760, Note_off_c, 9, 51, 64
9, 63760, Note_off_c, 9, 35, 64
9, 63864, Note_on_c, 9, 51, 76
9, 63884, Note_off_c, 9, 51, 64
9, 63992, Note_on_c, 9, 51, 82
9, 64012, Note_off_c, 9, 51, 64
9, 64124, Note_on_c, 9, 38, 100
9, 64128, Note_on_c, 9, 51, 85
9, 64144, Note_off_c, 9, 38, 64
9, 64148, Note_off_c, 9, 51, 64
9, 64256, Note_on_c, 9, 51, 79
9, 64276, Note_off_c, 9, 51, 64
9, 64388, Note_on_c, 9, 51, 81
9, 64408, Note_off_c, 9, 51, 64
9, 64508, Note_on_c, 9, 35, 104
9, 64508, Note_on_c, 9, 51, 82
9, 64528, Note_off_c, 9, 51, 64
9, 64528, Note_off_c, 9, 35, 64
9, 64632, Note_on_c, 9, 51, 76
9, 64652, Note_off_c, 9, 51, 64
9, 64760, Note_on_c, 9, 51, 78
9, 64780, Note_off_c, 9, 51, 64
9, 64896, Note_on_c, 9, 51, 87
9, 64900, Note_on_c, 9, 38, 100
9, 64916, Note_off_c, 9, 51, 64
9, 64920, Note_off_c, 9, 38, 64
9, 65020, Note_on_c, 9, 51, 81
9, 65040, Note_off_c, 9, 51, 64
9, 65144, Note_on_c, 9, 51, 77
9, 65164, Note_off_c, 9, 51, 64
9, 65276, Note_on_c, 9, 35, 101
9, 65276, Note_on_c, 9, 51, 87
9, 65296, Note_off_c, 9, 51, 64
9, 65296, Note_off_c, 9, 35, 64
9, 65404, Note_on_c, 9, 51, 78
9, 65424, Note_off_c, 9, 51, 64
9, 65540, Note_on_c, 9, 51, 80
9, 65560, Note_off_c, 9, 51, 64
9, 65664, Note_on_c, 9, 38, 108
9, 65672, Note_on_c, 9, 51, 83
9, 65684, Note_off_c, 9, 38, 64
9, 65688, Note_off_c, 9, 51, 64
9, 65800, Note_on_c, 9, 51, 83
9, 65816, Note_off_c, 9, 51, 64
9, 65924, Note_on_c, 9, 51, 78
9, 65944, Note_off_c, 9, 51, 64
9, 66052, Note_on_c, 9, 51, 85
9, 66072, Note_off_c, 9, 51, 64
9, 66168, Note_on_c, 9, 38, 77
9, 66188, Note_off_c, 9, 38, 64
9, 66304, Note_on_c, 9, 38, 75
9, 66324, Note_off_c, 9, 38, 64
9, 66436, Note_on_c, 9, 38, 77
9, 66456, Note_off_c, 9, 38, 64
9, 66568, Note_on_c, 9, 38, 78
9, 66584, Note_off_c, 9, 38, 64
9, 66696, Note_on_c, 9, 38, 94
9, 66712, Note_off_c, 9, 38, 64
9, 66824, Note_on_c, 9, 38, 100
9, 66840, Note_off_c, 9, 38, 64
9, 66952, Note_on_c, 9, 38, 98
9, 66968, Note_off_c, 9, 38, 64
9, 67076, Note_on_c, 9, 38, 106
9, 67096, Note_off_c, 9, 38, 64
9, 67208, Note_on_c, 9, 38, 114
9, 67224, Note_off_c, 9, 38, 64
9, 67332, Note_on_c, 9, 38, 103
9, 67352, Note_off_c, 9, 38, 64
9, 67460, Note_on_c, 9, 38, 104
9, 67480, Note_off_c, 9, 38, 64
9, 67592, Note_on_c, 9, 38, 96
9, 67608, Note_off_c, 9, 38, 64
9, 67720, Note_on_c, 9, 38, 80
9, 67736, Note_off_c, 9, 38, 64
9, 67848, Note_on_c, 9, 38, 79
9, 67864, Note_off_c, 9, 38, 64
9, 67976, Note_on_c, 9, 38, 90
9, 67992, Note_off_c, 9, 38, 64
9, 68100, Note_on_c, 9, 38, 83
9, 68120, Note_off_c, 9, 38, 64
9, 68228, Note_on_c, 9, 38, 85
9, 68248, Note_off_c, 9, 38, 64
9, 68360, Note_on_c, 9, 38, 100
9, 68376, Note_off_c, 9, 38, 64
9, 68488, Note_on_c, 9, 38, 85
9, 68504, Note_off_c, 9, 38, 64
9, 68616, Note_on_c, 9, 38, 82
9, 68632, Note_off_c, 9, 38, 64
9, 68744, Note_on_c, 9, 38, 92
9, 68764, Note_off_c, 9, 38, 64
9, 68872, Note_on_c, 9, 38, 84
9, 68888, Note_off_c, 9, 38, 64
9, 69000, Note_on_c, 9, 38, 86
9, 69016, Note_off_c, 9, 38, 64
9, 69128, Note_on_c, 9, 38, 100
9, 69144, Note_off_c, 9, 38, 64
9, 69256, Note_on_c, 9, 38, 85
9, 69272, Note_off_c, 9, 38, 64
9, 69380, Note_on_c, 9, 38, 85
9, 69400, Note_off_c, 9, 38, 64
9, 69500, Note_on_c, 9, 38, 89
9, 69520, Note_off_c, 9, 38, 64
9, 69628, Note_on_c, 9, 38, 88
9, 69648, Note_off_c, 9, 38, 64
9, 69756, Note_on_c, 9, 38, 90
9, 69776, Note_off_c, 9, 38, 64
9, 69888, Note_on_c, 9, 38, 95
9, 69908, Note_off_c, 9, 38, 64
9, 70016, Note_on_c, 9, 38, 89
9, 70036, Note_off_c, 9, 38, 64
9, 70140, Note_on_c, 9, 38, 93
9, 70160, Note_off_c, 9, 38, 64
9, 70272, Note_on_c, 9, 38, 93
9, 70292, Note_off_c, 9, 38, 64
9, 70396, Note_on_c, 9, 38, 92
9, 70416, Note_off_c, 9, 38, 64
9, 70524, Note_on_c, 9, 38, 100
9, 70544, Note_off_c, 9, 38, 64
9, 70652, Note_on_c, 9, 38, 95
9, 70672, Note_off_c, 9, 38, 64
9, 70780, Note_on_c, 9, 38, 86
9, 70800, Note_off_c, 9, 38, 64
9, 70908, Note_on_c, 9, 38, 86
9, 70928, Note_off_c, 9, 38, 64
9, 71040, Note_on_c, 9, 38, 90
9, 71060, Note_off_c, 9, 38, 64
9, 71168, Note_on_c, 9, 38, 82
9, 71188, Note_off_c, 9, 38, 64
9, 71292, Note_on_c, 9, 38, 88
9, 71312, Note_off_c, 9, 38, 64
9, 71428, Note_on_c, 9, 38, 103
9, 71448, Note_off_c, 9, 38, 64
9, 71556, Note_on_c, 9, 38, 90
9, 71576, Note_off_c, 9, 38, 64
9, 71688, Note_on_c, 9, 38, 90
9, 71704, Note_off_c, 9, 38, 64
9, 71812, Note_on_c, 9, 38, 90
9, 71832, Note_off_c, 9, 38, 64
9, 71940, Note_on_c, 9, 38, 93
9, 71960, Note_off_c, 9, 38, 64
9, 72064, Note_on_c, 9, 38, 93
9, 72084, Note_off_c, 9, 38, 64
9, 72200, Note_on_c, 9, 38, 108
9, 72216, Note_off_c, 9, 38, 64
9, 72324, Note_on_c, 9, 38, 88
9, 72344, Note_off_c, 9, 38, 64
9, 72448, Note_on_c, 9, 38, 86
9, 72468, Note_off_c, 9, 38, 64
9, 72572, Note_on_c, 9, 38, 87
9, 72592, Note_off_c, 9, 38, 64
9, 72700, Note_on_c, 9, 38, 90
9, 72720, Note_off_c, 9, 38, 64
9, 72824, Note_on_c, 9, 38, 91
9, 72844, Note_off_c, 9, 38, 64
9, 72956, Note_on_c, 9, 38, 100
9, 72976, Note_off_c, 9, 38, 64
9, 73080, Note_on_c, 9, 38, 88
9, 73100, Note_off_c, 9, 38, 64
9, 73208, Note_on_c, 9, 38, 86
9, 73228, Note_off_c, 9, 38, 64
9, 73344, Note_on_c, 9, 38, 97
9, 73364, Note_off_c, 9, 38, 64
9, 73468, Note_on_c, 9, 38, 92
9, 73488, Note_off_c, 9, 38, 64
9, 73604, Note_on_c, 9, 38, 100
9, 73624, Note_off_c, 9, 38, 64
9, 73736, Note_on_c, 9, 38, 106
9, 73752, Note_off_c, 9, 38, 64
9, 73864, Note_on_c, 9, 38, 90
9, 73880, Note_off_c, 9, 38, 64
9, 73988, Note_on_c, 9, 38, 90
9, 74008, Note_off_c, 9, 38, 64
9, 74108, Note_on_c, 9, 38, 87
9, 74128, Note_off_c, 9, 38, 64
9, 74236, Note_on_c, 9, 38, 88
9, 74256, Note_off_c, 9, 38, 64
9, 74364, Note_on_c, 9, 38, 90
9, 74384, Note_off_c, 9, 38, 64
9, 74492, Note_on_c, 9, 38, 100
9, 74512, Note_off_c, 9, 38, 64
9, 74616, Note_on_c, 9, 38, 85
9, 74636, Note_off_c, 9, 38, 64
9, 74744, Note_on_c, 9, 38, 86
9, 74764, Note_off_c, 9, 38, 64
9, 74872, Note_on_c, 9, 38, 86
9, 74892, Note_off_c, 9, 38, 64
9, 75004, Note_on_c, 9, 38, 89
9, 75024, Note_off_c, 9, 38, 64
9, 75132, Note_on_c, 9, 38, 99
9, 75152, Note_off_c, 9, 38, 64
9, 75264, Note_on_c, 9, 38, 100
9, 75284, Note_off_c, 9, 38, 64
9, 75388, Note_on_c, 9, 38, 87
9, 75408, Note_off_c, 9, 38, 64
9, 75512, Note_on_c, 9, 38, 92
9, 75532, Note_off_c, 9, 38, 64
9, 75640, Note_on_c, 9, 38, 88
9, 75660, Note_off_c, 9, 38, 64
9, 75768, Note_on_c, 9, 38, 88
9, 75788, Note_off_c, 9, 38, 64
9, 75896, Note_on_c, 9, 38, 90
9, 75916, Note_off_c, 9, 38, 64
9, 76028, Note_on_c, 9, 38, 100
9, 76048, Note_off_c, 9, 38, 64
9, 76152, Note_on_c, 9, 38, 85
9, 76172, Note_off_c, 9, 38, 64
9, 76280, Note_on_c, 9, 38, 88
9, 76296, Note_off_c, 9, 38, 64
9, 76408, Note_on_c, 9, 38, 95
9, 76428, Note_off_c, 9, 38, 64
9, 76536, Note_on_c, 9, 38, 95
9, 76556, Note_off_c, 9, 38, 64
9, 76664, Note_on_c, 9, 38, 93
9, 76684, Note_off_c, 9, 38, 64
9, 76792, Note_on_c, 9, 38, 104
9, 76812, Note_off_c, 9, 38, 64
9, 76920, Note_on_c, 9, 38, 90
9, 76940, Note_off_c, 9, 38, 64
9, 77048, Note_on_c, 9, 38, 90
9, 77068, Note_off_c, 9, 38, 64
9, 77176, Note_on_c, 9, 38, 93
9, 77196, Note_off_c, 9, 38, 64
9, 77308, Note_on_c, 9, 38, 86
9, 77328, Note_off_c, 9, 38, 64
9, 77432, Note_on_c, 9, 38, 86
9, 77452, Note_off_c, 9, 38, 64
9, 77564, Note_on_c, 9, 38, 105
9, 77584, Note_off_c, 9, 38, 64
9, 77692, Note_on_c, 9, 38, 93
9, 77712, Note_off_c, 9, 38, 64
9, 77820, Note_on_c, 9, 38, 94
9, 77840, Note_off_c, 9, 38, 64
9, 77948, Note_on_c, 9, 38, 95
9, 77968, Note_off_c, 9, 38, 64
9, 78076, Note_on_c, 9, 38, 92
9, 78096, Note_off_c, 9, 38, 64
9, 78200, Note_on_c, 9, 38, 90
9, 78220, Note_off_c, 9, 38, 64
9, 78332, Note_on_c, 9, 38, 114
9, 78352, Note_off_c, 9, 38, 64
9, 78584, Note_on_c, 9, 38, 93
9, 78604, Note_off_c, 9, 38, 64
9, 78720, Note_on_c, 9, 38, 111
9, 78740, Note_off_c, 9, 38, 64
9, 78976, Note_on_c, 9, 38, 100
9, 78996, Note_off_c, 9, 38, 64
9, 79108, Note_on_c, 9, 38, 105
9, 79128, Note_off_c, 9, 38, 64
9, 79232, Note_on_c, 9, 38, 91
9, 79252, Note_off_c, 9, 38, 64
9, 79356, Note_on_c, 9, 38, 100
9, 79376, Note_off_c, 9, 38, 64
9, 79496, Note_on_c, 9, 38, 124
9, 79512, Note_off_c, 9, 38, 64
9, 79868, Note_on_c, 9, 49, 79
9, 79880, Note_on_c, 9, 35, 101
9, 79888, Note_off_c, 9, 49, 64
9, 79900, Note_off_c, 9, 35, 64
9, 80008, Note_on_c, 9, 51, 80
9, 80024, Note_off_c, 9, 51, 64
9, 80136, Note_on_c, 9, 51, 73
9, 80152, Note_off_c, 9, 51, 64
9, 80264, Note_on_c, 9, 38, 105
9, 80264, Note_on_c, 9, 51, 81
9, 80280, Note_off_c, 9, 51, 64
9, 80280, Note_off_c, 9, 38, 64
9, 80388, Note_on_c, 9, 51, 71
9, 80408, Note_off_c, 9, 51, 64
9, 80520, Note_on_c, 9, 51, 73
9, 80536, Note_off_c, 9, 51, 64
9, 80648, Note_on_c, 9, 51, 69
9, 80648, Note_on_c, 9, 35, 100
9, 80664, Note_off_c, 9, 51, 64
9, 80668, Note_off_c, 9, 35, 64
9, 80776, Note_on_c, 9, 51, 68
9, 80792, Note_off_c, 9, 51, 64
9, 80904, Note_on_c, 9, 51, 73
9, 80920, Note_off_c, 9, 51, 64
9, 81032, Note_on_c, 9, 51, 90
9, 81032, Note_on_c, 9, 38, 103
9, 81048, Note_off_c, 9, 51, 64
9, 81052, Note_off_c, 9, 38, 64
9, 81160, Note_on_c, 9, 51, 74
9, 81176, Note_off_c, 9, 51, 64
9, 81288, Note_on_c, 9, 51, 79
9, 81304, Note_off_c, 9, 51, 64
9, 81408, Note_on_c, 9, 35, 99
9, 81416, Note_on_c, 9, 51, 80
9, 81428, Note_off_c, 9, 35, 64
9, 81432, Note_off_c, 9, 51, 64
9, 81544, Note_on_c, 9, 51, 73
9, 81560, Note_off_c, 9, 51, 64
9, 81672, Note_on_c, 9, 51, 77
9, 81688, Note_off_c, 9, 51, 64
9, 81784, Note_on_c, 9, 38, 105
9, 81796, Note_on_c, 9, 51, 81
9, 81804, Note_off_c, 9, 38, 64
9, 81816, Note_off_c, 9, 51, 64
9, 81916, Note_on_c, 9, 51, 76
9, 81936, Note_off_c, 9, 51, 64
9, 82040, Note_on_c, 9, 51, 78
9, 82060, Note_off_c, 9, 51, 64
9, 82168, Note_on_c, 9, 51, 80
9, 82176, Note_on_c, 9, 35, 101
9, 82188, Note_off_c, 9, 51, 64
9, 82196, Note_off_c, 9, 35, 64
9, 82296, Note_on_c, 9, 51, 77
9, 82316, Note_off_c, 9, 51, 64
9, 82424, Note_on_c, 9, 51, 81
9, 82444, Note_off_c, 9, 51, 64
9, 82552, Note_on_c, 9, 51, 83
9, 82560, Note_on_c, 9, 38, 104
9, 82572, Note_off_c, 9, 51, 64
9, 82580, Note_off_c, 9, 38, 64
9, 82680, Note_on_c, 9, 51, 81
9, 82700, Note_off_c, 9, 51, 64
9, 82808, Note_on_c, 9, 51, 83
9, 82828, Note_off_c, 9, 51, 64
9, 82940, Note_on_c, 9, 35, 100
9, 82940, Note_on_c, 9, 51, 81
9, 82960, Note_off_c, 9, 51, 64
9, 82960, Note_off_c, 9, 35, 64
9, 83068, Note_on_c, 9, 51, 79
9, 83088, Note_off_c, 9, 51, 64
9, 83196, Note_on_c, 9, 51, 79
9, 83216, Note_off_c, 9, 51, 64
9, 83320, Note_on_c, 9, 38, 100
9, 83324, Note_on_c, 9, 51, 81
9, 83340, Note_off_c, 9, 38, 64
9, 83344, Note_off_c, 9, 51, 64
9, 83448, Note_on_c, 9, 51, 77
9, 83468, Note_off_c, 9, 51, 64
9, 83576, Note_on_c, 9, 51, 78
9, 83596, Note_off_c, 9, 51, 64
9, 83704, Note_on_c, 9, 35, 103
9, 83704, Note_on_c, 9, 51, 80
9, 83724, Note_off_c, 9, 51, 64
9, 83724, Note_off_c, 9, 35, 64
9, 83832, Note_on_c, 9, 51, 74
9, 83852, Note_off_c, 9, 51, 64
9, 83960, Note_on_c, 9, 51, 77
9, 83980, Note_off_c, 9, 51, 64
9, 84088, Note_on_c, 9, 38, 108
9, 84088, Note_on_c, 9, 51, 74
9, 84108, Note_off_c, 9, 51, 64
9, 84108, Note_off_c, 9, 38, 64
9, 84220, Note_on_c, 9, 51, 78
9, 84240, Note_off_c, 9, 51, 64
9, 84352, Note_on_c, 9, 51, 82
9, 84372, Note_off_c, 9, 51, 64
9, 84472, Note_on_c, 9, 35, 99
9, 84484, Note_on_c, 9, 51, 81
9, 84492, Note_off_c, 9, 35, 64
9, 84504, Note_off_c, 9, 51, 64
9, 84608, Note_on_c, 9, 51, 80
9, 84628, Note_off_c, 9, 51, 64
9, 84740, Note_on_c, 9, 51, 87
9, 84760, Note_off_c, 9, 51, 64
9, 84856, Note_on_c, 9, 38, 108
9, 84860, Note_on_c, 9, 51, 83
9, 84876, Note_off_c, 9, 38, 64
9, 84880, Note_off_c, 9, 51, 64
9, 84992, Note_on_c, 9, 51, 86
9, 85012, Note_off_c, 9, 51, 64
9, 85116, Note_on_c, 9, 51, 85
9, 85136, Note_off_c, 9, 51, 64
9, 85244, Note_on_c, 9, 51, 87
9, 85252, Note_on_c, 9, 35, 107
9, 85264, Note_off_c, 9, 51, 64
9, 85272, Note_off_c, 9, 35, 64
9, 85372, Note_on_c, 9, 51, 78
9, 85392, Note_off_c, 9, 51, 64
9, 85500, Note_on_c, 9, 51, 78
9, 85520, Note_off_c, 9, 51, 64
9, 85628, Note_on_c, 9, 38, 103
9, 85636, Note_on_c, 9, 51, 84
9, 85648, Note_off_c, 9, 38, 64
9, 85656, Note_off_c, 9, 51, 64
9, 85764, Note_on_c, 9, 51, 79
9, 85784, Note_off_c, 9, 51, 64
9, 85888, Note_on_c, 9, 51, 81
9, 85908, Note_off_c, 9, 51, 64
9, 86020, Note_on_c, 9, 51, 81
9, 86024, Note_on_c, 9, 35, 105
9, 86040, Note_off_c, 9, 35, 64
9, 86040, Note_off_c, 9, 51, 64
9, 86148, Note_on_c, 9, 51, 78
9, 86168, Note_off_c, 9, 51, 64
9, 86280, Note_on_c, 9, 51, 79
9, 86296, Note_off_c, 9, 51, 64
9, 86392, Note_on_c, 9, 38, 103
9, 86408, Note_on_c, 9, 51, 79
9, 86412, Note_off_c, 9, 38, 64
9, 86424, Note_off_c, 9, 51, 64
9, 86532, Note_on_c, 9, 51, 78
9, 86552, Note_off_c, 9, 51, 64
9, 86648, Note_on_c, 9, 51, 74
9, 86668, Note_off_c, 9, 51, 64
9, 86776, Note_on_c, 9, 35, 101
9, 86776, Note_on_c, 9, 51, 81
9, 86796, Note_off_c, 9, 51, 64
9, 86796, Note_off_c, 9, 35, 64
9, 86904, Note_on_c, 9, 51, 81
9, 86924, Note_off_c, 9, 51, 64
9, 87032, Note_on_c, 9, 51, 78
9, 87052, Note_off_c, 9, 51, 64
9, 87160, Note_on_c, 9, 38, 104
9, 87160, Note_on_c, 9, 51, 81
9, 87180, Note_off_c, 9, 51, 64
9, 87180, Note_off_c, 9, 38, 64
9, 87292, Note_on_c, 9, 51, 76
9, 87312, Note_off_c, 9, 51, 64
9, 87420, Note_on_c, 9, 51, 81
9, 87440, Note_off_c, 9, 51, 64
9, 87544, Note_on_c, 9, 35, 101
9, 87548, Note_on_c, 9, 51, 82
9, 87564, Note_off_c, 9, 35, 64
9, 87568, Note_off_c, 9, 51, 64
9, 87676, Note_on_c, 9, 51, 79
9, 87696, Note_off_c, 9, 51, 64
9, 87804, Note_on_c, 9, 51, 77
9, 87824, Note_off_c, 9, 51, 64
9, 87928, Note_on_c, 9, 38, 99
9, 87932, Note_on_c, 9, 51, 78
9, 87944, Note_off_c, 9, 38, 64
9, 87952, Note_off_c, 9, 51, 64
9, 88056, Note_on_c, 9, 51, 78
9, 88076, Note_off_c, 9, 51, 64
9, 88184, Note_on_c, 9, 51, 78
9, 88204, Note_off_c, 9, 51, 64
9, 88312, Note_on_c, 9, 51, 79
9, 88316, Note_on_c, 9, 35, 103
9, 88332, Note_off_c, 9, 51, 64
9, 88336, Note_off_c, 9, 35, 64
9, 88440, Note_on_c, 9, 51, 78
9, 88460, Note_off_c, 9, 51, 64
9, 88568, Note_on_c, 9, 51, 77
9, 88588, Note_off_c, 9, 51, 64
9, 88700, Note_on_c, 9, 51, 80
9, 88704, Note_on_c, 9, 38, 107
9, 88720, Note_off_c, 9, 51, 64
9, 88724, Note_off_c, 9, 38, 64
9, 88836, Note_on_c, 9, 51, 78
9, 88856, Note_off_c, 9, 51, 64
9, 88964, Note_on_c, 9, 51, 84
9, 88984, Note_off_c, 9, 51, 64
9, 89080, Note_on_c, 9, 38, 98
9, 89100, Note_off_c, 9, 38, 64
9, 89348, Note_on_c, 9, 38, 77
9, 89368, Note_off_c, 9, 38, 64
9, 89480, Note_on_c, 9, 38, 92
9, 89496, Note_off_c, 9, 38, 64
9, 89736, Note_on_c, 9, 38, 81
9, 89752, Note_off_c, 9, 38, 64
9, 89864, Note_on_c, 9, 38, 92
9, 89884, Note_off_c, 9, 38, 64
9, 89992, Note_on_c, 9, 38, 78
9, 90008, Note_off_c, 9, 38, 64
9, 90120, Note_on_c, 9, 38, 77
9, 90140, Note_off_c, 9, 38, 64
9, 90248, Note_on_c, 9, 38, 91
9, 90264, Note_off_c, 9, 38, 64
9, 90376, Note_on_c, 9, 38, 88
9, 90392, Note_off_c, 9, 38, 64
9, 90504, Note_on_c, 9, 38, 90
9, 90520, Note_off_c, 9, 38, 64
9, 90624, Note_on_c, 9, 38, 90
9, 90644, Note_off_c, 9, 38, 64
9, 90744, Note_on_c, 9, 38, 90
9, 90764, Note_off_c, 9, 38, 64
9, 90872, Note_on_c, 9, 38, 95
9, 90892, Note_off_c, 9, 38, 64
9, 91008, Note_on_c, 9, 38, 126
9, 91028, Note_off_c, 9, 38, 64
9, 91256, Note_on_c, 9, 38, 118
9, 91276, Note_off_c, 9, 38, 64
9, 91772, Note_on_c, 9, 35, 97
9, 91772, Note_on_c, 9, 38, 100
9, 91772, Note_on_c, 9, 49, 92
9, 91792, Note_off_c, 9, 49, 64
9, 91792, Note_off_c, 9, 38, 64
9, 91792, Note_off_c, 9, 35, 64
9, 93228, Note_on_c, 9, 47, 121
9, 93248, Note_off_c, 9, 47, 64
9, 93264, Note_on_c, 9, 45, 62
9, 93284, Note_off_c, 9, 45, 64
9, 93336, Note_on_c, 9, 41, 94
9, 93356, Note_off_c, 9, 41, 64
9, 93412, Note_on_c, 9, 35, 121
9, 93432, Note_off_c, 9, 35, 64
9, 95232, End_track
10, 0, Start_track
10, 0, Title_t, "GS/RESET"
10, 0, System_exclusive, 10, 65, 16, 66, 18, 64, 0, 127, 0, 65, 247
10, 6144, End_track
0, 0, End_of_file
