0, 0, Header, 1, 7, 384
1, 0, Start_track
1, 0, Marker_t, "Start of pattern\000"
1, 0, Sequencer_specific, 126, 0, 0, 0, 106, 0, 1, 0, 0, 0, 0, 0, 0, 0, 0, 0, 0, 0, 0, 20, 42, 0, 0, 0, 0, 19, 36, 0, 0, 56, 9, 19, 42, 0, 0, 0, 0, 0, 0, 0, 0, 0, 0, 64, 4, 0, 0, 0, 0, 0, 0, 0, 0, 0, 0, 19, 42, 0, 0, 0, 0, 0, 0, 0, 0, 0, 0, 5, 7, 0, 0, 0, 0, 64, 6, 0, 0, 0, 0, 64, 36, 0, 0, 0, 0, 64, 6, 0, 0, 0, 0, 20, 42, 0, 0, 0, 0, 20, 4, 0, 0, 0, 0, 20, 42, 0, 0, 0, 0, 0, 0, 0, 0, 0, 0, 64, 36, 0, 0, 0, 0, 0, 0, 0, 0, 0, 0
1, 0, Sequencer_specific, 126, 0, 0, 0, 106, 0, 1, 19, 42, 0, 0, 0, 0, 0, 0, 0, 0, 0, 0, 49, 41, 0, 0, 0, 0, 64, 6, 0, 0, 0, 0, 64, 4, 0, 0, 0, 0, 64, 24, 0, 0, 0, 0, 20, 42, 0, 0, 0, 0, 19, 4, 0, 0, 0, 0, 46, 11, 0, 0, 0, 0, 0, 0, 0, 0, 0, 0, 20, 4, 0, 0, 0, 0, 0, 0, 0, 0, 0, 0, 20, 11, 0, 0, 0, 0, 0, 0, 0, 0, 0, 0, 20, 36, 0, 0, 0, 0, 64, 24, 0, 0, 0, 0, 64, 36, 0, 0, 0, 0, 64, 24, 0, 0, 0, 0, 19, 42, 0, 0, 0, 0, 20, 36, 0, 0, 0, 0
1, 0, Sequencer_specific, 126, 0, 0, 0, 106, 0, 1, 20, 11, 0, 0, 0, 0, 0, 0, 0, 0, 0, 0, 64, 36, 0, 0, 0, 0, 0, 0, 0, 0, 0, 0, 19, 11, 0, 0, 0, 0, 0, 0, 0, 0, 0, 0, 19, 36, 0, 0, 0, 0, 64, 6, 0, 0, 0, 0, 20, 42, 0, 0, 0, 0, 0, 0, 0, 0, 0, 0, 46, 42, 0, 0, 0, 0, 20, 36, 0, 0, 0, 0, 49, 23, 0, 0, 0, 0, 20, 42, 0, 0, 0, 0, 19, 36, 0, 0, 0, 0, 0, 0, 0, 0, 0, 0, 20, 42, 0, 0, 0, 0, 0, 0, 0, 0, 0, 0, 19, 4, 0, 0, 0, 0, 64, 24, 0, 0, 0, 0
1, 0, Sequencer_specific, 126, 0, 0, 0, 106, 0, 1, 20, 42, 0, 0, 0, 0, 64, 6, 0, 0, 0, 0, 20, 11, 0, 0, 0, 0, 19, 36, 0, 0, 0, 0, 20, 11, 0, 0, 0, 0, 64, 42, 0, 0, 0, 0, 20, 4, 0, 0, 0, 0, 0, 0, 0, 0, 0, 0, 20, 42, 0, 0, 0, 0, 0, 0, 0, 0, 0, 0, 20, 36, 0, 0, 0, 0, 64, 24, 0, 0, 0, 0, 19, 42, 0, 0, 0, 0, 0, 0, 0, 0, 0, 0, 20, 11, 0, 0, 0, 0, 19, 4, 0, 0, 0, 0, 16, 42, 0, 0, 0, 0, 0, 0, 0, 0, 0, 0, 19, 4, 0, 0, 0, 0, 0, 0, 0, 0, 0, 0
1, 0, Sequencer_specific, 126, 0, 0, 0, 106, 0, 1, 19, 42, 0, 0, 0, 0, 0, 0, 0, 0, 0, 0, 20, 36, 0, 0, 0, 0, 64, 6, 0, 0, 0, 0, 64, 4, 0, 0, 0, 0, 64, 6, 0, 0, 0, 0, 19, 11, 0, 0, 0, 0, 19, 4, 0, 0, 0, 0, 19, 11, 0, 0, 0, 0, 0, 0, 0, 0, 0, 0, 64, 4, 0, 0, 0, 0, 0, 0, 0, 0, 0, 0, 19, 11, 0, 0, 0, 0, 0, 0, 0, 0, 0, 0, 19, 4, 0, 0, 0, 0, 64, 6, 0, 0, 0, 0, 19, 11, 0, 0, 0, 0, 0, 0, 0, 0, 0, 0, 16, 11, 0, 0, 0, 0, 19, 4, 0, 0, 0, 0
1, 0, Sequencer_specific, 126, 0, 0, 0, 106, 0, 1, 5, 12, 0, 0, 0, 0, 19, 11, 0, 0, 0, 0, 19, 4, 0, 0, 0, 0, 0, 0, 0, 0, 0, 0, 19, 11, 0, 0, 0, 0, 0, 0, 0, 0, 0, 0, 19, 4, 0, 0, 0, 0, 64, 6, 0, 0, 0, 0, 19, 11, 0, 0, 0, 0, 64, 6, 0, 0, 0, 0, 19, 11, 0, 0, 0, 0, 19, 4, 0, 0, 0, 0, 19, 11, 0, 0, 0, 0, 64, 11, 0, 0, 0, 0, 19, 4, 0, 0, 0, 0, 0, 0, 0, 0, 0, 0, 19, 11, 0, 0, 0, 0, 0, 0, 0, 0, 0, 0, 19, 4, 0, 0, 0, 0, 64, 6, 0, 0, 0, 0
1, 0, Sequencer_specific, 126, 0, 0, 0, 106, 0, 1, 19, 11, 0, 0, 0, 0, 0, 0, 0, 0, 0, 0, 19, 11, 0, 0, 0, 0, 19, 4, 0, 0, 56, 9, 19, 11, 0, 0, 0, 0, 0, 0, 0, 0, 0, 0, 64, 4, 0, 0, 0, 0, 0, 0, 0, 0, 0, 0, 19, 11, 0, 0, 0, 0, 0, 0, 0, 0, 0, 0, 5, 7, 0, 0, 0, 0, 64, 6, 0, 0, 0, 0, 64, 4, 0, 0, 0, 0, 64, 6, 0, 0, 0, 0, 19, 11, 0, 0, 0, 0, 19, 4, 0, 0, 0, 0, 19, 11, 0, 0, 0, 0, 0, 0, 0, 0, 0, 0, 64, 4, 0, 0, 0, 0, 0, 0, 0, 0, 0, 0
1, 0, Sequencer_specific, 54, 0, 0, 0, 106, 0, 1, 19, 11, 0, 0, 0, 0, 0, 0, 0, 0, 0, 0, 5, 7, 0, 0, 0, 0, 64, 6, 0, 0, 0, 0, 64, 4, 0, 0, 0, 0, 64, 6, 0, 0, 0, 0, 16, 11, 0, 0, 0, 0, 16, 11, 0, 0, 0, 0
1, 0, Sequencer_specific, 12, 0, 0, 0, 106, 0, 2, 0, 3, 75, 3, 7, 3
1, 0, Time_signature, 3, 2, 24, 8
1, 0, Tempo, 600000
1, 0, Key_signature, 0, "minor"
1, 1535, Marker_t, "End of pattern\000"
1, 163680, Marker_t, "Start of pattern\000"
1, 164512, Tempo, 631578
1, 166320, Tempo, 705882
1, 167472, Tempo, 857142
1, 168160, Tempo, 1200000
1, 169343, Marker_t, "End of pattern\000"
1, 169343, End_track
2, 0, Start_track
2, 0, Marker_t, "Start of pattern\000"
2, 0, Title_t, "Bass\000"
2, 0, Program_c, 1, 32
2, 0, Control_c, 1, 123, 0
2, 0, Control_c, 1, 91, 40
2, 0, Control_c, 1, 93, 0
2, 0, Control_c, 1, 64, 0
2, 2304, Note_on_c, 1, 34, 83
2, 3302, Note_off_c, 1, 34, 64
2, 3347, Note_on_c, 1, 34, 78
2, 3456, Note_off_c, 1, 34, 64
2, 3456, Note_on_c, 1, 39, 85
2, 4224, Note_off_c, 1, 39, 64
2, 4224, Note_on_c, 1, 44, 85
2, 4608, Note_off_c, 1, 44, 64
2, 4608, Note_on_c, 1, 34, 87
2, 5651, Note_on_c, 1, 29, 85
2, 5676, Note_off_c, 1, 34, 64
2, 5760, Note_on_c, 1, 34, 81
2, 5798, Note_off_c, 1, 29, 64
2, 6720, Note_off_c, 1, 34, 64
2, 6803, Note_on_c, 1, 41, 69
2, 6892, Note_off_c, 1, 41, 64
2, 6912, Note_on_c, 1, 39, 87
2, 7955, Note_on_c, 1, 34, 85
2, 7980, Note_off_c, 1, 39, 64
2, 8064, Note_on_c, 1, 39, 81
2, 8102, Note_off_c, 1, 34, 64
2, 9024, Note_off_c, 1, 39, 64
2, 9107, Note_on_c, 1, 34, 69
2, 9196, Note_off_c, 1, 34, 64
2, 9216, Note_on_c, 1, 34, 87
2, 10259, Note_on_c, 1, 29, 85
2, 10284, Note_off_c, 1, 34, 64
2, 10368, Note_on_c, 1, 34, 81
2, 10406, Note_off_c, 1, 29, 64
2, 11328, Note_off_c, 1, 34, 64
2, 11411, Note_on_c, 1, 41, 69
2, 11500, Note_off_c, 1, 41, 64
2, 11520, Note_on_c, 1, 42, 83
2, 12518, Note_off_c, 1, 42, 64
2, 12563, Note_on_c, 1, 42, 78
2, 12672, Note_off_c, 1, 42, 64
2, 12672, Note_on_c, 1, 41, 85
2, 13660, Note_off_c, 1, 41, 64
2, 13715, Note_on_c, 1, 36, 75
2, 13795, Note_off_c, 1, 36, 64
2, 13824, Note_on_c, 1, 39, 90
2, 14435, Note_off_c, 1, 39, 64
2, 14483, Note_on_c, 1, 46, 71
2, 14976, Note_off_c, 1, 46, 64
2, 14976, Note_on_c, 1, 41, 84
2, 15587, Note_off_c, 1, 41, 64
2, 15635, Note_on_c, 1, 41, 77
2, 16121, Note_off_c, 1, 41, 64
2, 16128, Note_on_c, 1, 34, 86
2, 16512, Note_on_c, 1, 46, 75
2, 16601, Note_off_c, 1, 34, 64
2, 16896, Note_on_c, 1, 41, 72
2, 16950, Note_off_c, 1, 46, 64
2, 17280, Note_off_c, 1, 41, 64
2, 17280, Note_on_c, 1, 39, 78
2, 17664, Note_on_c, 1, 46, 70
2, 17728, Note_off_c, 1, 39, 64
2, 18048, Note_on_c, 1, 42, 83
2, 18160, Note_off_c, 1, 46, 64
2, 18432, Note_off_c, 1, 42, 64
2, 18432, Note_on_c, 1, 34, 88
2, 18816, Note_on_c, 1, 46, 71
2, 18892, Note_off_c, 1, 34, 64
2, 19200, Note_on_c, 1, 41, 72
2, 19289, Note_off_c, 1, 46, 64
2, 19584, Note_off_c, 1, 41, 64
2, 19584, Note_on_c, 1, 46, 86
2, 19868, Note_off_c, 1, 46, 64
2, 19868, Note_on_c, 1, 34, 72
2, 19952, Note_off_c, 1, 34, 64
2, 19968, Note_on_c, 1, 37, 64
2, 20352, Note_on_c, 1, 41, 88
2, 20400, Note_off_c, 1, 37, 64
2, 20736, Note_off_c, 1, 41, 64
2, 20736, Note_on_c, 1, 51, 84
2, 21120, Note_on_c, 1, 46, 73
2, 21196, Note_off_c, 1, 51, 64
2, 21504, Note_on_c, 1, 43, 85
2, 21568, Note_off_c, 1, 46, 64
2, 21888, Note_on_c, 1, 39, 75
2, 21932, Note_off_c, 1, 43, 64
2, 22272, Note_on_c, 1, 43, 79
2, 22313, Note_off_c, 1, 39, 64
2, 22665, Note_off_c, 1, 43, 64
2, 22665, Note_on_c, 1, 46, 76
2, 22992, Note_off_c, 1, 46, 64
2, 23040, Note_on_c, 1, 34, 87
2, 24083, Note_on_c, 1, 29, 85
2, 24108, Note_off_c, 1, 34, 64
2, 24192, Note_on_c, 1, 34, 81
2, 24230, Note_off_c, 1, 29, 64
2, 25152, Note_off_c, 1, 34, 64
2, 25235, Note_on_c, 1, 41, 69
2, 25324, Note_off_c, 1, 41, 64
2, 25344, Note_on_c, 1, 42, 87
2, 25955, Note_off_c, 1, 42, 64
2, 26003, Note_on_c, 1, 37, 68
2, 26496, Note_off_c, 1, 37, 64
2, 26496, Note_on_c, 1, 41, 90
2, 27107, Note_off_c, 1, 41, 64
2, 27155, Note_on_c, 1, 36, 71
2, 27648, Note_off_c, 1, 36, 64
2, 27648, Note_on_c, 1, 39, 84
2, 28259, Note_off_c, 1, 39, 64
2, 28307, Note_on_c, 1, 39, 77
2, 28793, Note_off_c, 1, 39, 64
2, 28800, Note_on_c, 1, 41, 82
2, 29788, Note_off_c, 1, 41, 64
2, 29843, Note_on_c, 1, 36, 72
2, 29923, Note_off_c, 1, 36, 64
2, 29952, Note_on_c, 1, 34, 84
2, 30563, Note_off_c, 1, 34, 64
2, 30611, Note_on_c, 1, 34, 77
2, 31097, Note_off_c, 1, 34, 64
2, 31104, Note_on_c, 1, 39, 83
2, 32102, Note_off_c, 1, 39, 64
2, 32147, Note_on_c, 1, 36, 78
2, 32256, Note_off_c, 1, 36, 64
2, 32256, Note_on_c, 1, 34, 87
2, 33299, Note_on_c, 1, 29, 85
2, 33324, Note_off_c, 1, 34, 64
2, 33408, Note_on_c, 1, 34, 81
2, 33446, Note_off_c, 1, 29, 64
2, 34368, Note_off_c, 1, 34, 64
2, 34451, Note_on_c, 1, 41, 69
2, 34540, Note_off_c, 1, 41, 64
2, 34560, Note_on_c, 1, 39, 87
2, 35603, Note_on_c, 1, 34, 85
2, 35628, Note_off_c, 1, 39, 64
2, 35712, Note_on_c, 1, 39, 81
2, 35750, Note_off_c, 1, 34, 64
2, 36672, Note_off_c, 1, 39, 64
2, 36755, Note_on_c, 1, 34, 69
2, 36844, Note_off_c, 1, 34, 64
2, 36864, Note_on_c, 1, 34, 87
2, 37907, Note_on_c, 1, 29, 85
2, 37932, Note_off_c, 1, 34, 64
2, 38016, Note_on_c, 1, 34, 81
2, 38054, Note_off_c, 1, 29, 64
2, 38976, Note_off_c, 1, 34, 64
2, 39059, Note_on_c, 1, 41, 69
2, 39148, Note_off_c, 1, 41, 64
2, 39168, Note_on_c, 1, 39, 85
2, 40156, Note_off_c, 1, 39, 64
2, 40211, Note_on_c, 1, 46, 75
2, 40291, Note_off_c, 1, 46, 64
2, 40320, Note_on_c, 1, 41, 84
2, 40931, Note_off_c, 1, 41, 64
2, 40979, Note_on_c, 1, 41, 77
2, 41465, Note_off_c, 1, 41, 64
2, 41472, Note_on_c, 1, 39, 90
2, 42083, Note_off_c, 1, 39, 64
2, 42131, Note_on_c, 1, 46, 71
2, 42624, Note_off_c, 1, 46, 64
2, 42624, Note_on_c, 1, 41, 82
2, 42899, Note_off_c, 1, 41, 64
2, 42899, Note_on_c, 1, 41, 86
2, 43008, Note_off_c, 1, 41, 64
2, 43008, Note_on_c, 1, 36, 73
2, 43392, Note_off_c, 1, 36, 64
2, 43392, Note_on_c, 1, 41, 79
2, 43776, Note_off_c, 1, 41, 64
2, 43776, Note_on_c, 1, 34, 83
2, 44774, Note_off_c, 1, 34, 64
2, 44819, Note_on_c, 1, 37, 78
2, 44928, Note_off_c, 1, 37, 64
2, 44928, Note_on_c, 1, 39, 84
2, 45539, Note_off_c, 1, 39, 64
2, 45587, Note_on_c, 1, 27, 77
2, 46073, Note_off_c, 1, 27, 64
2, 46080, Note_on_c, 1, 34, 87
2, 47123, Note_on_c, 1, 29, 85
2, 47148, Note_off_c, 1, 34, 64
2, 47232, Note_on_c, 1, 34, 81
2, 47270, Note_off_c, 1, 29, 64
2, 48192, Note_off_c, 1, 34, 64
2, 48275, Note_on_c, 1, 41, 69
2, 48364, Note_off_c, 1, 41, 64
2, 48384, Note_on_c, 1, 39, 87
2, 49427, Note_on_c, 1, 34, 85
2, 49452, Note_off_c, 1, 39, 64
2, 49536, Note_on_c, 1, 39, 81
2, 49574, Note_off_c, 1, 34, 64
2, 50496, Note_off_c, 1, 39, 64
2, 50579, Note_on_c, 1, 34, 69
2, 50668, Note_off_c, 1, 34, 64
2, 50688, Note_on_c, 1, 34, 87
2, 51731, Note_on_c, 1, 29, 85
2, 51756, Note_off_c, 1, 34, 64
2, 51840, Note_on_c, 1, 34, 81
2, 51878, Note_off_c, 1, 29, 64
2, 52800, Note_off_c, 1, 34, 64
2, 52883, Note_on_c, 1, 41, 69
2, 52972, Note_off_c, 1, 41, 64
2, 52992, Note_on_c, 1, 39, 83
2, 53990, Note_off_c, 1, 39, 64
2, 54035, Note_on_c, 1, 39, 78
2, 54144, Note_off_c, 1, 39, 64
2, 54144, Note_on_c, 1, 41, 83
2, 55142, Note_off_c, 1, 41, 64
2, 55187, Note_on_c, 1, 29, 78
2, 55296, Note_off_c, 1, 29, 64
2, 55296, Note_on_c, 1, 34, 87
2, 56339, Note_on_c, 1, 29, 85
2, 56364, Note_off_c, 1, 34, 64
2, 56448, Note_on_c, 1, 34, 81
2, 56486, Note_off_c, 1, 29, 64
2, 57408, Note_off_c, 1, 34, 64
2, 57491, Note_on_c, 1, 41, 69
2, 57580, Note_off_c, 1, 41, 64
2, 57600, Note_on_c, 1, 34, 83
2, 58598, Note_off_c, 1, 34, 64
2, 58643, Note_on_c, 1, 34, 78
2, 58752, Note_off_c, 1, 34, 64
2, 58752, Note_on_c, 1, 39, 83
2, 59750, Note_off_c, 1, 39, 64
2, 59795, Note_on_c, 1, 36, 78
2, 59904, Note_off_c, 1, 36, 64
2, 59904, Note_on_c, 1, 35, 90
2, 60515, Note_off_c, 1, 35, 64
2, 60563, Note_on_c, 1, 30, 71
2, 61056, Note_off_c, 1, 30, 64
2, 61056, Note_on_c, 1, 34, 82
2, 61331, Note_off_c, 1, 34, 64
2, 61331, Note_on_c, 1, 34, 86
2, 61440, Note_off_c, 1, 34, 64
2, 61440, Note_on_c, 1, 41, 73
2, 61824, Note_off_c, 1, 41, 64
2, 61824, Note_on_c, 1, 34, 79
2, 62208, Note_off_c, 1, 34, 64
2, 62208, Note_on_c, 1, 39, 87
2, 63251, Note_on_c, 1, 34, 85
2, 63276, Note_off_c, 1, 39, 64
2, 63360, Note_on_c, 1, 39, 81
2, 63398, Note_off_c, 1, 34, 64
2, 64320, Note_off_c, 1, 39, 64
2, 64403, Note_on_c, 1, 34, 69
2, 64492, Note_off_c, 1, 34, 64
2, 64512, Note_on_c, 1, 34, 87
2, 65555, Note_on_c, 1, 29, 85
2, 65580, Note_off_c, 1, 34, 64
2, 65664, Note_on_c, 1, 34, 81
2, 65702, Note_off_c, 1, 29, 64
2, 66624, Note_off_c, 1, 34, 64
2, 66707, Note_on_c, 1, 41, 69
2, 66796, Note_off_c, 1, 41, 64
2, 66816, Note_on_c, 1, 39, 84
2, 67427, Note_off_c, 1, 39, 64
2, 67475, Note_on_c, 1, 39, 77
2, 67961, Note_off_c, 1, 39, 64
2, 67968, Note_on_c, 1, 41, 85
2, 68956, Note_off_c, 1, 41, 64
2, 69011, Note_on_c, 1, 36, 75
2, 69091, Note_off_c, 1, 36, 64
2, 69120, Note_on_c, 1, 34, 90
2, 69731, Note_off_c, 1, 34, 64
2, 69779, Note_on_c, 1, 41, 71
2, 70272, Note_off_c, 1, 41, 64
2, 70272, Note_on_c, 1, 41, 82
2, 70547, Note_off_c, 1, 41, 64
2, 70547, Note_on_c, 1, 41, 86
2, 70656, Note_off_c, 1, 41, 64
2, 70656, Note_on_c, 1, 36, 73
2, 71040, Note_off_c, 1, 36, 64
2, 71040, Note_on_c, 1, 41, 79
2, 71424, Note_off_c, 1, 41, 64
2, 71424, Note_on_c, 1, 34, 78
2, 71808, Note_off_c, 1, 34, 64
2, 71808, Note_on_c, 1, 36, 71
2, 72192, Note_on_c, 1, 37, 84
2, 72268, Note_off_c, 1, 36, 64
2, 72576, Note_off_c, 1, 37, 64
2, 72576, Note_on_c, 1, 39, 82
2, 73564, Note_off_c, 1, 39, 64
2, 73619, Note_on_c, 1, 34, 72
2, 73699, Note_off_c, 1, 34, 64
2, 73728, Note_on_c, 1, 34, 86
2, 74112, Note_off_c, 1, 34, 64
2, 74112, Note_on_c, 1, 41, 73
2, 74505, Note_off_c, 1, 41, 64
2, 74505, Note_on_c, 1, 41, 74
2, 74880, Note_off_c, 1, 41, 64
2, 74880, Note_on_c, 1, 34, 83
2, 75878, Note_off_c, 1, 34, 64
2, 75923, Note_on_c, 1, 34, 78
2, 76032, Note_off_c, 1, 34, 64
2, 76032, Note_on_c, 1, 39, 86
2, 76416, Note_on_c, 1, 46, 80
2, 76438, Note_off_c, 1, 39, 64
2, 76800, Note_on_c, 1, 42, 77
2, 76876, Note_off_c, 1, 46, 64
2, 77184, Note_on_c, 1, 39, 84
2, 77225, Note_off_c, 1, 42, 64
2, 77568, Note_on_c, 1, 41, 77
2, 77619, Note_off_c, 1, 39, 64
2, 77952, Note_on_c, 1, 42, 92
2, 78006, Note_off_c, 1, 41, 64
2, 78252, Note_off_c, 1, 42, 64
2, 78336, Note_on_c, 1, 34, 86
2, 78720, Note_on_c, 1, 41, 80
2, 78742, Note_off_c, 1, 34, 64
2, 79104, Note_on_c, 1, 37, 77
2, 79180, Note_off_c, 1, 41, 64
2, 79488, Note_on_c, 1, 34, 84
2, 79529, Note_off_c, 1, 37, 64
2, 79872, Note_on_c, 1, 36, 77
2, 79923, Note_off_c, 1, 34, 64
2, 80256, Note_on_c, 1, 37, 92
2, 80310, Note_off_c, 1, 36, 64
2, 80556, Note_off_c, 1, 37, 64
2, 80640, Note_on_c, 1, 39, 87
2, 81251, Note_off_c, 1, 39, 64
2, 81299, Note_on_c, 1, 46, 68
2, 81792, Note_off_c, 1, 46, 64
2, 81792, Note_on_c, 1, 41, 87
2, 82403, Note_off_c, 1, 41, 64
2, 82451, Note_on_c, 1, 36, 68
2, 82944, Note_off_c, 1, 36, 64
2, 82944, Note_on_c, 1, 34, 87
2, 83987, Note_on_c, 1, 29, 85
2, 84012, Note_off_c, 1, 34, 64
2, 84096, Note_on_c, 1, 34, 81
2, 84134, Note_off_c, 1, 29, 64
2, 85056, Note_off_c, 1, 34, 64
2, 85139, Note_on_c, 1, 41, 69
2, 85228, Note_off_c, 1, 41, 64
2, 85248, Note_on_c, 1, 34, 84
2, 85859, Note_off_c, 1, 34, 64
2, 85907, Note_on_c, 1, 34, 77
2, 86393, Note_off_c, 1, 34, 64
2, 86400, Note_on_c, 1, 39, 85
2, 87388, Note_off_c, 1, 39, 64
2, 87443, Note_on_c, 1, 34, 75
2, 87523, Note_off_c, 1, 34, 64
2, 87552, Note_on_c, 1, 34, 87
2, 88595, Note_on_c, 1, 29, 85
2, 88620, Note_off_c, 1, 34, 64
2, 88704, Note_on_c, 1, 34, 81
2, 88742, Note_off_c, 1, 29, 64
2, 89664, Note_off_c, 1, 34, 64
2, 89747, Note_on_c, 1, 41, 69
2, 89836, Note_off_c, 1, 41, 64
2, 89856, Note_on_c, 1, 39, 87
2, 90899, Note_on_c, 1, 34, 85
2, 90924, Note_off_c, 1, 39, 64
2, 91008, Note_on_c, 1, 39, 81
2, 91046, Note_off_c, 1, 34, 64
2, 91968, Note_off_c, 1, 39, 64
2, 92051, Note_on_c, 1, 34, 69
2, 92140, Note_off_c, 1, 34, 64
2, 92160, Note_on_c, 1, 34, 87
2, 93203, Note_on_c, 1, 29, 85
2, 93228, Note_off_c, 1, 34, 64
2, 93312, Note_on_c, 1, 34, 81
2, 93350, Note_off_c, 1, 29, 64
2, 94272, Note_off_c, 1, 34, 64
2, 94355, Note_on_c, 1, 41, 69
2, 94444, Note_off_c, 1, 41, 64
2, 94464, Note_on_c, 1, 39, 83
2, 95462, Note_off_c, 1, 39, 64
2, 95507, Note_on_c, 1, 39, 78
2, 95616, Note_off_c, 1, 39, 64
2, 95616, Note_on_c, 1, 41, 84
2, 96227, Note_off_c, 1, 41, 64
2, 96275, Note_on_c, 1, 40, 77
2, 96761, Note_off_c, 1, 40, 64
2, 96768, Note_on_c, 1, 39, 84
2, 97379, Note_off_c, 1, 39, 64
2, 97427, Note_on_c, 1, 40, 77
2, 97913, Note_off_c, 1, 40, 64
2, 97920, Note_on_c, 1, 41, 85
2, 98908, Note_off_c, 1, 41, 64
2, 98963, Note_on_c, 1, 36, 75
2, 99043, Note_off_c, 1, 36, 64
2, 99072, Note_on_c, 1, 34, 85
2, 100060, Note_off_c, 1, 34, 64
2, 100115, Note_on_c, 1, 41, 75
2, 100195, Note_off_c, 1, 41, 64
2, 100224, Note_on_c, 1, 39, 84
2, 100835, Note_off_c, 1, 39, 64
2, 100883, Note_on_c, 1, 39, 77
2, 101369, Note_off_c, 1, 39, 64
2, 101376, Note_on_c, 1, 34, 87
2, 102419, Note_on_c, 1, 29, 85
2, 102444, Note_off_c, 1, 34, 64
2, 102528, Note_on_c, 1, 34, 81
2, 102566, Note_off_c, 1, 29, 64
2, 103488, Note_off_c, 1, 34, 64
2, 103571, Note_on_c, 1, 41, 69
2, 103660, Note_off_c, 1, 41, 64
2, 103680, Note_on_c, 1, 39, 87
2, 104723, Note_on_c, 1, 34, 85
2, 104748, Note_off_c, 1, 39, 64
2, 104832, Note_on_c, 1, 39, 81
2, 104870, Note_off_c, 1, 34, 64
2, 105792, Note_off_c, 1, 39, 64
2, 105875, Note_on_c, 1, 34, 69
2, 105964, Note_off_c, 1, 34, 64
2, 105984, Note_on_c, 1, 34, 87
2, 107027, Note_on_c, 1, 29, 85
2, 107052, Note_off_c, 1, 34, 64
2, 107136, Note_on_c, 1, 34, 81
2, 107174, Note_off_c, 1, 29, 64
2, 108096, Note_off_c, 1, 34, 64
2, 108179, Note_on_c, 1, 41, 69
2, 108268, Note_off_c, 1, 41, 64
2, 108288, Note_on_c, 1, 39, 83
2, 109286, Note_off_c, 1, 39, 64
2, 109331, Note_on_c, 1, 39, 78
2, 109440, Note_off_c, 1, 39, 64
2, 109440, Note_on_c, 1, 41, 83
2, 110438, Note_off_c, 1, 41, 64
2, 110483, Note_on_c, 1, 36, 78
2, 110592, Note_off_c, 1, 36, 64
2, 110592, Note_on_c, 1, 34, 87
2, 111635, Note_on_c, 1, 29, 85
2, 111660, Note_off_c, 1, 34, 64
2, 111744, Note_on_c, 1, 34, 81
2, 111782, Note_off_c, 1, 29, 64
2, 112704, Note_off_c, 1, 34, 64
2, 112787, Note_on_c, 1, 41, 69
2, 112876, Note_off_c, 1, 41, 64
2, 112896, Note_on_c, 1, 34, 90
2, 113507, Note_off_c, 1, 34, 64
2, 113555, Note_on_c, 1, 41, 71
2, 114048, Note_off_c, 1, 41, 64
2, 114048, Note_on_c, 1, 39, 83
2, 115046, Note_off_c, 1, 39, 64
2, 115091, Note_on_c, 1, 39, 78
2, 115200, Note_off_c, 1, 39, 64
2, 115200, Note_on_c, 1, 35, 83
2, 116198, Note_off_c, 1, 35, 64
2, 116243, Note_on_c, 1, 35, 78
2, 116352, Note_off_c, 1, 35, 64
2, 116352, Note_on_c, 1, 34, 82
2, 116627, Note_off_c, 1, 34, 64
2, 116627, Note_on_c, 1, 34, 86
2, 116736, Note_off_c, 1, 34, 64
2, 116736, Note_on_c, 1, 41, 73
2, 117120, Note_off_c, 1, 41, 64
2, 117120, Note_on_c, 1, 37, 79
2, 117504, Note_off_c, 1, 37, 64
2, 117504, Note_on_c, 1, 39, 87
2, 118547, Note_on_c, 1, 34, 85
2, 118572, Note_off_c, 1, 39, 64
2, 118656, Note_on_c, 1, 39, 81
2, 118694, Note_off_c, 1, 34, 64
2, 119616, Note_off_c, 1, 39, 64
2, 119699, Note_on_c, 1, 34, 69
2, 119788, Note_off_c, 1, 34, 64
2, 119808, Note_on_c, 1, 34, 87
2, 120851, Note_on_c, 1, 29, 85
2, 120876, Note_off_c, 1, 34, 64
2, 120960, Note_on_c, 1, 34, 81
2, 120998, Note_off_c, 1, 29, 64
2, 121920, Note_off_c, 1, 34, 64
2, 122003, Note_on_c, 1, 41, 69
2, 122092, Note_off_c, 1, 41, 64
2, 122112, Note_on_c, 1, 39, 90
2, 122723, Note_off_c, 1, 39, 64
2, 122771, Note_on_c, 1, 46, 71
2, 123264, Note_off_c, 1, 46, 64
2, 123264, Note_on_c, 1, 41, 84
2, 123875, Note_off_c, 1, 41, 64
2, 123923, Note_on_c, 1, 41, 77
2, 124409, Note_off_c, 1, 41, 64
2, 124416, Note_on_c, 1, 34, 85
2, 125404, Note_off_c, 1, 34, 64
2, 125459, Note_on_c, 1, 41, 75
2, 125539, Note_off_c, 1, 41, 64
2, 125568, Note_on_c, 1, 41, 82
2, 125843, Note_off_c, 1, 41, 64
2, 125843, Note_on_c, 1, 41, 86
2, 125952, Note_off_c, 1, 41, 64
2, 125952, Note_on_c, 1, 36, 73
2, 126336, Note_off_c, 1, 36, 64
2, 126336, Note_on_c, 1, 41, 79
2, 126720, Note_off_c, 1, 41, 64
2, 126720, Note_on_c, 1, 34, 83
2, 127718, Note_off_c, 1, 34, 64
2, 127763, Note_on_c, 1, 37, 78
2, 127872, Note_off_c, 1, 37, 64
2, 127872, Note_on_c, 1, 39, 90
2, 128483, Note_off_c, 1, 39, 64
2, 128531, Note_on_c, 1, 34, 71
2, 129024, Note_off_c, 1, 34, 64
2, 129024, Note_on_c, 1, 34, 84
2, 130067, Note_on_c, 1, 29, 82
2, 130092, Note_off_c, 1, 34, 64
2, 130176, Note_off_c, 1, 29, 64
2, 130176, Note_on_c, 1, 34, 83
2, 131174, Note_off_c, 1, 34, 64
2, 131219, Note_on_c, 1, 34, 78
2, 131328, Note_off_c, 1, 34, 64
2, 131328, Note_on_c, 1, 39, 87
2, 132371, Note_on_c, 1, 34, 85
2, 132396, Note_off_c, 1, 39, 64
2, 132480, Note_on_c, 1, 39, 81
2, 132518, Note_off_c, 1, 34, 64
2, 133440, Note_off_c, 1, 39, 64
2, 133523, Note_on_c, 1, 34, 69
2, 133612, Note_off_c, 1, 34, 64
2, 133632, Note_on_c, 1, 34, 90
2, 134016, Note_off_c, 1, 34, 64
2, 134016, Note_on_c, 1, 41, 86
2, 134400, Note_on_c, 1, 37, 84
2, 134454, Note_off_c, 1, 41, 64
2, 134784, Note_on_c, 1, 34, 83
2, 134806, Note_off_c, 1, 37, 64
2, 135168, Note_on_c, 1, 37, 86
2, 135177, Note_off_c, 1, 34, 64
2, 135552, Note_on_c, 1, 41, 84
2, 135571, Note_off_c, 1, 37, 64
2, 135868, Note_off_c, 1, 41, 64
2, 135936, Note_on_c, 1, 39, 86
2, 136320, Note_on_c, 1, 51, 75
2, 136409, Note_off_c, 1, 39, 64
2, 136704, Note_on_c, 1, 46, 72
2, 136758, Note_off_c, 1, 51, 64
2, 137088, Note_off_c, 1, 46, 64
2, 137088, Note_on_c, 1, 41, 78
2, 137472, Note_on_c, 1, 48, 70
2, 137536, Note_off_c, 1, 41, 64
2, 137856, Note_on_c, 1, 45, 83
2, 137968, Note_off_c, 1, 48, 64
2, 138240, Note_off_c, 1, 45, 64
2, 138240, Note_on_c, 1, 46, 84
2, 138624, Note_on_c, 1, 41, 73
2, 138700, Note_off_c, 1, 46, 64
2, 139008, Note_on_c, 1, 37, 85
2, 139072, Note_off_c, 1, 41, 64
2, 139392, Note_on_c, 1, 34, 75
2, 139436, Note_off_c, 1, 37, 64
2, 139776, Note_on_c, 1, 37, 79
2, 139817, Note_off_c, 1, 34, 64
2, 140169, Note_off_c, 1, 37, 64
2, 140169, Note_on_c, 1, 41, 76
2, 140496, Note_off_c, 1, 41, 64
2, 140544, Note_on_c, 1, 34, 83
2, 141542, Note_off_c, 1, 34, 64
2, 141587, Note_on_c, 1, 34, 78
2, 141696, Note_off_c, 1, 34, 64
2, 141696, Note_on_c, 1, 39, 85
2, 142464, Note_off_c, 1, 39, 64
2, 142464, Note_on_c, 1, 44, 85
2, 142848, Note_off_c, 1, 44, 64
2, 142848, Note_on_c, 1, 34, 87
2, 143891, Note_on_c, 1, 29, 85
2, 143916, Note_off_c, 1, 34, 64
2, 144000, Note_on_c, 1, 34, 81
2, 144038, Note_off_c, 1, 29, 64
2, 144960, Note_off_c, 1, 34, 64
2, 145043, Note_on_c, 1, 41, 69
2, 145132, Note_off_c, 1, 41, 64
2, 145152, Note_on_c, 1, 39, 87
2, 146195, Note_on_c, 1, 34, 85
2, 146220, Note_off_c, 1, 39, 64
2, 146304, Note_on_c, 1, 39, 81
2, 146342, Note_off_c, 1, 34, 64
2, 147264, Note_off_c, 1, 39, 64
2, 147347, Note_on_c, 1, 34, 69
2, 147436, Note_off_c, 1, 34, 64
2, 147456, Note_on_c, 1, 34, 87
2, 148499, Note_on_c, 1, 29, 85
2, 148524, Note_off_c, 1, 34, 64
2, 148608, Note_on_c, 1, 34, 81
2, 148646, Note_off_c, 1, 29, 64
2, 149568, Note_off_c, 1, 34, 64
2, 149651, Note_on_c, 1, 41, 69
2, 149740, Note_off_c, 1, 41, 64
2, 149760, Note_on_c, 1, 42, 85
2, 150748, Note_off_c, 1, 42, 64
2, 150803, Note_on_c, 1, 37, 75
2, 150883, Note_off_c, 1, 37, 64
2, 150912, Note_on_c, 1, 41, 82
2, 151187, Note_off_c, 1, 41, 64
2, 151187, Note_on_c, 1, 41, 86
2, 151296, Note_off_c, 1, 41, 64
2, 151296, Note_on_c, 1, 36, 73
2, 151680, Note_off_c, 1, 36, 64
2, 151680, Note_on_c, 1, 41, 79
2, 152064, Note_off_c, 1, 41, 64
2, 152064, Note_on_c, 1, 39, 90
2, 152675, Note_off_c, 1, 39, 64
2, 152723, Note_on_c, 1, 46, 71
2, 153216, Note_off_c, 1, 46, 64
2, 153216, Note_on_c, 1, 41, 84
2, 153827, Note_off_c, 1, 41, 64
2, 153875, Note_on_c, 1, 41, 77
2, 154361, Note_off_c, 1, 41, 64
2, 154368, Note_on_c, 1, 34, 71
2, 154752, Note_on_c, 1, 36, 80
2, 154784, Note_off_c, 1, 34, 64
2, 155145, Note_off_c, 1, 36, 64
2, 155145, Note_on_c, 1, 37, 82
2, 155520, Note_off_c, 1, 37, 64
2, 155520, Note_on_c, 1, 39, 90
2, 156131, Note_off_c, 1, 39, 64
2, 156179, Note_on_c, 1, 34, 71
2, 156672, Note_off_c, 1, 34, 64
2, 156672, Note_on_c, 1, 34, 89
2, 156851, Note_off_c, 1, 34, 64
2, 156960, Note_on_c, 1, 34, 71
2, 157056, Note_on_c, 1, 41, 82
2, 157129, Note_off_c, 1, 34, 64
2, 157440, Note_off_c, 1, 41, 64
2, 157440, Note_on_c, 1, 37, 72
2, 157824, Note_on_c, 1, 34, 80
2, 157843, Note_off_c, 1, 37, 64
2, 158208, Note_on_c, 1, 36, 79
2, 158224, Note_off_c, 1, 34, 64
2, 158592, Note_on_c, 1, 37, 71
2, 158611, Note_off_c, 1, 36, 64
2, 158867, Note_off_c, 1, 37, 64
2, 158976, Note_on_c, 1, 39, 90
2, 159360, Note_off_c, 1, 39, 64
2, 159360, Note_on_c, 1, 46, 86
2, 159744, Note_on_c, 1, 43, 84
2, 159798, Note_off_c, 1, 46, 64
2, 160128, Note_on_c, 1, 39, 83
2, 160150, Note_off_c, 1, 43, 64
2, 160512, Note_on_c, 1, 43, 86
2, 160521, Note_off_c, 1, 39, 64
2, 160896, Note_on_c, 1, 46, 84
2, 160915, Note_off_c, 1, 43, 64
2, 161212, Note_off_c, 1, 46, 64
2, 161280, Note_on_c, 1, 34, 89
2, 161459, Note_off_c, 1, 34, 64
2, 161568, Note_on_c, 1, 34, 71
2, 161664, Note_on_c, 1, 41, 82
2, 161737, Note_off_c, 1, 34, 64
2, 162048, Note_off_c, 1, 41, 64
2, 162048, Note_on_c, 1, 37, 72
2, 162432, Note_on_c, 1, 34, 80
2, 162451, Note_off_c, 1, 37, 64
2, 162816, Note_on_c, 1, 36, 79
2, 162832, Note_off_c, 1, 34, 64
2, 163200, Note_on_c, 1, 37, 71
2, 163219, Note_off_c, 1, 36, 64
2, 163475, Note_off_c, 1, 37, 64
2, 163584, Note_on_c, 1, 42, 84
2, 164195, Note_off_c, 1, 42, 64
2, 164243, Note_on_c, 1, 42, 77
2, 164729, Note_off_c, 1, 42, 64
2, 164736, Note_on_c, 1, 41, 84
2, 165779, Note_on_c, 1, 36, 82
2, 165804, Note_off_c, 1, 41, 64
2, 165888, Note_off_c, 1, 36, 64
2, 165888, Note_on_c, 1, 39, 78
2, 166272, Note_on_c, 1, 46, 70
2, 166336, Note_off_c, 1, 39, 64
2, 166656, Note_on_c, 1, 43, 83
2, 166768, Note_off_c, 1, 46, 64
2, 167040, Note_off_c, 1, 43, 64
2, 167040, Note_on_c, 1, 41, 84
2, 167651, Note_off_c, 1, 41, 64
2, 167699, Note_on_c, 1, 41, 77
2, 168185, Note_off_c, 1, 41, 64
2, 168192, Note_on_c, 1, 34, 88
2, 168576, Note_on_c, 1, 46, 71
2, 168652, Note_off_c, 1, 34, 64
2, 168960, Note_on_c, 1, 41, 72
2, 169049, Note_off_c, 1, 46, 64
2, 169344, Note_off_c, 1, 41, 64
2, 169344, Note_on_c, 1, 34, 102
2, 169728, Note_off_c, 1, 34, 64
2, 169729, Marker_t, "End of pattern\000"
2, 169729, End_track
3, 0, Start_track
3, 0, Marker_t, "Start of pattern\000"
3, 0, Title_t, "Drums\000"
3, 0, Program_c, 9, 16
3, 0, Control_c, 9, 123, 0
3, 0, Control_c, 9, 91, 40
3, 0, Control_c, 9, 93, 0
3, 2304, Note_on_c, 9, 59, 102
3, 2388, Note_off_c, 9, 59, 64
3, 2582, Note_on_c, 9, 59, 40
3, 2662, Note_off_c, 9, 59, 64
3, 2688, Note_on_c, 9, 59, 80
3, 2688, Note_on_c, 9, 42, 50
3, 2768, Note_off_c, 9, 42, 64
3, 2768, Note_off_c, 9, 59, 64
3, 2966, Note_on_c, 9, 59, 60
3, 3046, Note_off_c, 9, 59, 64
3, 3072, Note_on_c, 9, 59, 80
3, 3072, Note_on_c, 9, 42, 60
3, 3072, Note_on_c, 9, 37, 24
3, 3152, Note_off_c, 9, 37, 64
3, 3152, Note_off_c, 9, 42, 64
3, 3152, Note_off_c, 9, 59, 64
3, 3350, Note_on_c, 9, 59, 50
3, 3430, Note_off_c, 9, 59, 64
3, 3456, Note_on_c, 9, 59, 80
3, 3536, Note_off_c, 9, 59, 64
3, 3712, Note_on_c, 9, 59, 20
3, 3792, Note_off_c, 9, 59, 64
3, 3840, Note_on_c, 9, 59, 80
3, 3840, Note_on_c, 9, 42, 70
3, 3920, Note_off_c, 9, 42, 64
3, 3920, Note_off_c, 9, 59, 64
3, 4096, Note_on_c, 9, 59, 60
3, 4176, Note_off_c, 9, 59, 64
3, 4224, Note_on_c, 9, 59, 80
3, 4224, Note_on_c, 9, 42, 70
3, 4224, Note_on_c, 9, 37, 50
3, 4304, Note_off_c, 9, 37, 64
3, 4304, Note_off_c, 9, 42, 64
3, 4304, Note_off_c, 9, 59, 64
3, 4480, Note_on_c, 9, 59, 20
3, 4480, Note_on_c, 9, 70, 20
3, 4560, Note_off_c, 9, 70, 64
3, 4560, Note_off_c, 9, 59, 64
3, 4608, Note_on_c, 9, 59, 80
3, 4688, Note_off_c, 9, 59, 64
3, 4864, Note_on_c, 9, 59, 20
3, 4944, Note_off_c, 9, 59, 64
3, 4992, Note_on_c, 9, 59, 80
3, 4992, Note_on_c, 9, 42, 70
3, 5072, Note_off_c, 9, 42, 64
3, 5072, Note_off_c, 9, 59, 64
3, 5248, Note_on_c, 9, 59, 60
3, 5328, Note_off_c, 9, 59, 64
3, 5376, Note_on_c, 9, 59, 80
3, 5376, Note_on_c, 9, 42, 70
3, 5376, Note_on_c, 9, 37, 50
3, 5456, Note_off_c, 9, 37, 64
3, 5456, Note_off_c, 9, 42, 64
3, 5456, Note_off_c, 9, 59, 64
3, 5632, Note_on_c, 9, 59, 20
3, 5632, Note_on_c, 9, 70, 20
3, 5712, Note_off_c, 9, 70, 64
3, 5712, Note_off_c, 9, 59, 64
3, 5760, Note_on_c, 9, 59, 80
3, 5840, Note_off_c, 9, 59, 64
3, 6016, Note_on_c, 9, 59, 54
3, 6096, Note_off_c, 9, 59, 64
3, 6144, Note_on_c, 9, 59, 80
3, 6144, Note_on_c, 9, 42, 70
3, 6224, Note_off_c, 9, 42, 64
3, 6224, Note_off_c, 9, 59, 64
3, 6400, Note_on_c, 9, 59, 60
3, 6480, Note_off_c, 9, 59, 64
3, 6528, Note_on_c, 9, 59, 80
3, 6528, Note_on_c, 9, 42, 70
3, 6528, Note_on_c, 9, 37, 50
3, 6608, Note_off_c, 9, 37, 64
3, 6608, Note_off_c, 9, 42, 64
3, 6608, Note_off_c, 9, 59, 64
3, 6784, Note_on_c, 9, 59, 20
3, 6784, Note_on_c, 9, 70, 20
3, 6864, Note_off_c, 9, 70, 64
3, 6864, Note_off_c, 9, 59, 64
3, 6912, Note_on_c, 9, 59, 80
3, 6992, Note_off_c, 9, 59, 64
3, 7168, Note_on_c, 9, 59, 54
3, 7248, Note_off_c, 9, 59, 64
3, 7296, Note_on_c, 9, 59, 80
3, 7296, Note_on_c, 9, 42, 70
3, 7376, Note_off_c, 9, 42, 64
3, 7376, Note_off_c, 9, 59, 64
3, 7552, Note_on_c, 9, 59, 60
3, 7632, Note_off_c, 9, 59, 64
3, 7680, Note_on_c, 9, 59, 80
3, 7680, Note_on_c, 9, 42, 70
3, 7680, Note_on_c, 9, 37, 50
3, 7760, Note_off_c, 9, 37, 64
3, 7760, Note_off_c, 9, 42, 64
3, 7760, Note_off_c, 9, 59, 64
3, 7824, Channel_aftertouch_c, 0, 0
3, 7936, Note_on_c, 9, 59, 54
3, 7936, Note_on_c, 9, 70, 20
3, 8016, Note_off_c, 9, 70, 64
3, 8016, Note_off_c, 9, 59, 64
3, 8064, Note_on_c, 9, 59, 80
3, 8144, Note_off_c, 9, 59, 64
3, 8320, Note_on_c, 9, 59, 54
3, 8400, Note_off_c, 9, 59, 64
3, 8448, Note_on_c, 9, 59, 80
3, 8448, Note_on_c, 9, 42, 70
3, 8528, Note_off_c, 9, 42, 64
3, 8528, Note_off_c, 9, 59, 64
3, 8704, Note_on_c, 9, 59, 60
3, 8784, Note_off_c, 9, 59, 64
3, 8832, Note_on_c, 9, 59, 80
3, 8832, Note_on_c, 9, 42, 70
3, 8832, Note_on_c, 9, 37, 50
3, 8912, Note_off_c, 9, 37, 64
3, 8912, Note_off_c, 9, 42, 64
3, 8912, Note_off_c, 9, 59, 64
3, 8976, Channel_aftertouch_c, 0, 0
3, 9088, Note_on_c, 9, 59, 54
3, 9088, Note_on_c, 9, 70, 20
3, 9168, Note_off_c, 9, 70, 64
3, 9168, Note_off_c, 9, 59, 64
3, 9216, Note_on_c, 9, 59, 80
3, 9296, Note_off_c, 9, 59, 64
3, 9472, Note_on_c, 9, 59, 20
3, 9552, Note_off_c, 9, 59, 64
3, 9600, Note_on_c, 9, 59, 80
3, 9600, Note_on_c, 9, 42, 70
3, 9680, Note_off_c, 9, 42, 64
3, 9680, Note_off_c, 9, 59, 64
3, 9856, Note_on_c, 9, 59, 60
3, 9936, Note_off_c, 9, 59, 64
3, 9984, Note_on_c, 9, 59, 80
3, 9984, Note_on_c, 9, 42, 70
3, 9984, Note_on_c, 9, 37, 50
3, 10064, Note_off_c, 9, 37, 64
3, 10064, Note_off_c, 9, 42, 64
3, 10064, Note_off_c, 9, 59, 64
3, 10240, Note_on_c, 9, 59, 20
3, 10240, Note_on_c, 9, 70, 20
3, 10320, Note_off_c, 9, 70, 64
3, 10320, Note_off_c, 9, 59, 64
3, 10368, Note_on_c, 9, 59, 80
3, 10448, Note_off_c, 9, 59, 64
3, 10624, Note_on_c, 9, 59, 54
3, 10704, Note_off_c, 9, 59, 64
3, 10752, Note_on_c, 9, 59, 80
3, 10752, Note_on_c, 9, 42, 70
3, 10832, Note_off_c, 9, 42, 64
3, 10832, Note_off_c, 9, 59, 64
3, 11008, Note_on_c, 9, 59, 60
3, 11088, Note_off_c, 9, 59, 64
3, 11136, Note_on_c, 9, 59, 80
3, 11136, Note_on_c, 9, 42, 70
3, 11136, Note_on_c, 9, 37, 50
3, 11216, Note_off_c, 9, 37, 64
3, 11216, Note_off_c, 9, 42, 64
3, 11216, Note_off_c, 9, 59, 64
3, 11392, Note_on_c, 9, 59, 54
3, 11392, Note_on_c, 9, 70, 20
3, 11472, Note_off_c, 9, 70, 64
3, 11472, Note_off_c, 9, 59, 64
3, 11520, Note_on_c, 9, 59, 80
3, 11600, Note_off_c, 9, 59, 64
3, 11798, Note_on_c, 9, 59, 40
3, 11878, Note_off_c, 9, 59, 64
3, 11904, Note_on_c, 9, 59, 80
3, 11904, Note_on_c, 9, 42, 50
3, 11984, Note_off_c, 9, 42, 64
3, 11984, Note_off_c, 9, 59, 64
3, 12182, Note_on_c, 9, 59, 60
3, 12262, Note_off_c, 9, 59, 64
3, 12288, Note_on_c, 9, 59, 80
3, 12288, Note_on_c, 9, 42, 60
3, 12288, Note_on_c, 9, 37, 50
3, 12368, Note_off_c, 9, 37, 64
3, 12368, Note_off_c, 9, 42, 64
3, 12368, Note_off_c, 9, 59, 64
3, 12566, Note_on_c, 9, 59, 50
3, 12646, Note_off_c, 9, 59, 64
3, 12672, Note_on_c, 9, 59, 80
3, 12752, Note_off_c, 9, 59, 64
3, 12928, Note_on_c, 9, 59, 54
3, 13008, Note_off_c, 9, 59, 64
3, 13056, Note_on_c, 9, 59, 80
3, 13056, Note_on_c, 9, 42, 70
3, 13136, Note_off_c, 9, 42, 64
3, 13136, Note_off_c, 9, 59, 64
3, 13312, Note_on_c, 9, 59, 60
3, 13392, Note_off_c, 9, 59, 64
3, 13440, Note_on_c, 9, 59, 80
3, 13440, Note_on_c, 9, 42, 70
3, 13440, Note_on_c, 9, 37, 50
3, 13520, Note_off_c, 9, 37, 64
3, 13520, Note_off_c, 9, 42, 64
3, 13520, Note_off_c, 9, 59, 64
3, 13696, Note_on_c, 9, 59, 54
3, 13696, Note_on_c, 9, 70, 20
3, 13776, Note_off_c, 9, 70, 64
3, 13776, Note_off_c, 9, 59, 64
3, 13824, Note_on_c, 9, 59, 80
3, 13904, Note_off_c, 9, 59, 64
3, 14096, Note_on_c, 9, 59, 20
3, 14176, Note_off_c, 9, 59, 64
3, 14208, Note_on_c, 9, 59, 80
3, 14208, Note_on_c, 9, 42, 50
3, 14288, Note_off_c, 9, 42, 64
3, 14288, Note_off_c, 9, 59, 64
3, 14480, Note_on_c, 9, 59, 60
3, 14560, Note_off_c, 9, 59, 64
3, 14592, Note_on_c, 9, 59, 80
3, 14592, Note_on_c, 9, 42, 60
3, 14592, Note_on_c, 9, 37, 50
3, 14672, Note_off_c, 9, 37, 64
3, 14672, Note_off_c, 9, 42, 64
3, 14672, Note_off_c, 9, 59, 64
3, 14864, Note_on_c, 9, 59, 20
3, 14944, Note_off_c, 9, 59, 64
3, 14976, Note_on_c, 9, 59, 80
3, 15056, Note_off_c, 9, 59, 64
3, 15248, Note_on_c, 9, 59, 90
3, 15328, Note_off_c, 9, 59, 64
3, 15360, Note_on_c, 9, 59, 90
3, 15360, Note_on_c, 9, 42, 50
3, 15440, Note_off_c, 9, 59, 64
3, 15440, Note_off_c, 9, 42, 64
3, 15632, Note_on_c, 9, 59, 60
3, 15712, Note_off_c, 9, 59, 64
3, 15744, Note_on_c, 9, 59, 90
3, 15744, Note_on_c, 9, 42, 60
3, 15744, Note_on_c, 9, 37, 50
3, 15824, Note_off_c, 9, 37, 64
3, 15824, Note_off_c, 9, 42, 64
3, 15824, Note_off_c, 9, 59, 64
3, 15872, Note_on_c, 9, 59, 50
3, 15952, Note_off_c, 9, 59, 64
3, 16016, Note_on_c, 9, 59, 70
3, 16096, Note_off_c, 9, 59, 64
3, 16128, Note_on_c, 9, 59, 80
3, 16208, Note_off_c, 9, 59, 64
3, 16406, Note_on_c, 9, 59, 40
3, 16486, Note_off_c, 9, 59, 64
3, 16512, Note_on_c, 9, 59, 80
3, 16512, Note_on_c, 9, 42, 50
3, 16592, Note_off_c, 9, 42, 64
3, 16592, Note_off_c, 9, 59, 64
3, 16790, Note_on_c, 9, 59, 60
3, 16870, Note_off_c, 9, 59, 64
3, 16896, Note_on_c, 9, 59, 80
3, 16896, Note_on_c, 9, 42, 60
3, 16896, Note_on_c, 9, 37, 50
3, 16976, Note_off_c, 9, 37, 64
3, 16976, Note_off_c, 9, 42, 64
3, 16976, Note_off_c, 9, 59, 64
3, 17174, Note_on_c, 9, 59, 50
3, 17254, Note_off_c, 9, 59, 64
3, 17280, Note_on_c, 9, 59, 80
3, 17360, Note_off_c, 9, 59, 64
3, 17558, Note_on_c, 9, 59, 40
3, 17638, Note_off_c, 9, 59, 64
3, 17664, Note_on_c, 9, 59, 80
3, 17664, Note_on_c, 9, 42, 50
3, 17744, Note_off_c, 9, 42, 64
3, 17744, Note_off_c, 9, 59, 64
3, 17942, Note_on_c, 9, 59, 60
3, 18022, Note_off_c, 9, 59, 64
3, 18048, Note_on_c, 9, 59, 80
3, 18048, Note_on_c, 9, 42, 60
3, 18048, Note_on_c, 9, 37, 50
3, 18128, Note_off_c, 9, 37, 64
3, 18128, Note_off_c, 9, 42, 64
3, 18128, Note_off_c, 9, 59, 64
3, 18326, Note_on_c, 9, 59, 50
3, 18406, Note_off_c, 9, 59, 64
3, 18432, Note_on_c, 9, 59, 80
3, 18512, Note_off_c, 9, 59, 64
3, 18704, Note_on_c, 9, 59, 90
3, 18784, Note_off_c, 9, 59, 64
3, 18816, Note_on_c, 9, 59, 90
3, 18816, Note_on_c, 9, 42, 50
3, 18896, Note_off_c, 9, 59, 64
3, 18896, Note_off_c, 9, 42, 64
3, 19088, Note_on_c, 9, 59, 60
3, 19168, Note_off_c, 9, 59, 64
3, 19200, Note_on_c, 9, 59, 90
3, 19200, Note_on_c, 9, 42, 60
3, 19200, Note_on_c, 9, 37, 50
3, 19280, Note_off_c, 9, 37, 64
3, 19280, Note_off_c, 9, 42, 64
3, 19280, Note_off_c, 9, 59, 64
3, 19472, Note_on_c, 9, 59, 20
3, 19552, Note_off_c, 9, 59, 64
3, 19584, Note_on_c, 9, 59, 80
3, 19664, Note_off_c, 9, 59, 64
3, 19840, Note_on_c, 9, 59, 54
3, 19920, Note_off_c, 9, 59, 64
3, 19968, Note_on_c, 9, 59, 80
3, 19968, Note_on_c, 9, 42, 70
3, 20048, Note_off_c, 9, 42, 64
3, 20048, Note_off_c, 9, 59, 64
3, 20224, Note_on_c, 9, 59, 60
3, 20304, Note_off_c, 9, 59, 64
3, 20352, Note_on_c, 9, 59, 80
3, 20352, Note_on_c, 9, 42, 70
3, 20352, Note_on_c, 9, 37, 50
3, 20432, Note_off_c, 9, 37, 64
3, 20432, Note_off_c, 9, 42, 64
3, 20432, Note_off_c, 9, 59, 64
3, 20608, Note_on_c, 9, 59, 54
3, 20608, Note_on_c, 9, 70, 20
3, 20688, Note_off_c, 9, 70, 64
3, 20688, Note_off_c, 9, 59, 64
3, 20736, Note_on_c, 9, 59, 80
3, 20816, Note_off_c, 9, 59, 64
3, 21008, Note_on_c, 9, 59, 90
3, 21088, Note_off_c, 9, 59, 64
3, 21120, Note_on_c, 9, 59, 90
3, 21120, Note_on_c, 9, 42, 50
3, 21200, Note_off_c, 9, 59, 64
3, 21200, Note_off_c, 9, 42, 64
3, 21392, Note_on_c, 9, 59, 60
3, 21472, Note_off_c, 9, 59, 64
3, 21504, Note_on_c, 9, 59, 90
3, 21504, Note_on_c, 9, 42, 60
3, 21504, Note_on_c, 9, 37, 50
3, 21584, Note_off_c, 9, 37, 64
3, 21584, Note_off_c, 9, 42, 64
3, 21584, Note_off_c, 9, 59, 64
3, 21776, Note_on_c, 9, 59, 20
3, 21856, Note_off_c, 9, 59, 64
3, 21888, Note_on_c, 9, 59, 80
3, 21968, Note_off_c, 9, 59, 64
3, 22160, Note_on_c, 9, 59, 20
3, 22240, Note_off_c, 9, 59, 64
3, 22272, Note_on_c, 9, 59, 80
3, 22272, Note_on_c, 9, 42, 50
3, 22352, Note_off_c, 9, 42, 64
3, 22352, Note_off_c, 9, 59, 64
3, 22544, Note_on_c, 9, 59, 60
3, 22624, Note_off_c, 9, 59, 64
3, 22656, Note_on_c, 9, 59, 80
3, 22656, Note_on_c, 9, 42, 60
3, 22656, Note_on_c, 9, 37, 50
3, 22736, Note_off_c, 9, 37, 64
3, 22736, Note_off_c, 9, 42, 64
3, 22736, Note_off_c, 9, 59, 64
3, 22928, Note_on_c, 9, 59, 20
3, 23008, Note_off_c, 9, 59, 64
3, 23040, Note_on_c, 9, 59, 80
3, 23120, Note_off_c, 9, 59, 64
3, 23312, Note_on_c, 9, 59, 90
3, 23392, Note_off_c, 9, 59, 64
3, 23424, Note_on_c, 9, 59, 90
3, 23424, Note_on_c, 9, 42, 50
3, 23504, Note_off_c, 9, 59, 64
3, 23504, Note_off_c, 9, 42, 64
3, 23696, Note_on_c, 9, 59, 60
3, 23776, Note_off_c, 9, 59, 64
3, 23808, Note_on_c, 9, 59, 90
3, 23808, Note_on_c, 9, 42, 60
3, 23808, Note_on_c, 9, 37, 50
3, 23888, Note_off_c, 9, 37, 64
3, 23888, Note_off_c, 9, 42, 64
3, 23888, Note_off_c, 9, 59, 64
3, 24080, Note_on_c, 9, 59, 20
3, 24160, Note_off_c, 9, 59, 64
3, 24192, Note_on_c, 9, 59, 80
3, 24272, Note_off_c, 9, 59, 64
3, 24448, Note_on_c, 9, 59, 20
3, 24528, Note_off_c, 9, 59, 64
3, 24576, Note_on_c, 9, 59, 80
3, 24576, Note_on_c, 9, 42, 70
3, 24656, Note_off_c, 9, 42, 64
3, 24656, Note_off_c, 9, 59, 64
3, 24832, Note_on_c, 9, 59, 60
3, 24912, Note_off_c, 9, 59, 64
3, 24960, Note_on_c, 9, 59, 80
3, 24960, Note_on_c, 9, 42, 70
3, 24960, Note_on_c, 9, 37, 50
3, 25040, Note_off_c, 9, 37, 64
3, 25040, Note_off_c, 9, 42, 64
3, 25040, Note_off_c, 9, 59, 64
3, 25216, Note_on_c, 9, 59, 20
3, 25216, Note_on_c, 9, 70, 20
3, 25296, Note_off_c, 9, 70, 64
3, 25296, Note_off_c, 9, 59, 64
3, 25344, Note_on_c, 9, 59, 80
3, 25424, Note_off_c, 9, 59, 64
3, 25616, Note_on_c, 9, 59, 90
3, 25696, Note_off_c, 9, 59, 64
3, 25728, Note_on_c, 9, 59, 80
3, 25728, Note_on_c, 9, 42, 50
3, 25808, Note_off_c, 9, 59, 64
3, 25808, Note_off_c, 9, 42, 64
3, 26000, Note_on_c, 9, 59, 60
3, 26080, Note_off_c, 9, 59, 64
3, 26112, Note_on_c, 9, 59, 90
3, 26112, Note_on_c, 9, 42, 60
3, 26112, Note_on_c, 9, 37, 50
3, 26192, Note_off_c, 9, 37, 64
3, 26192, Note_off_c, 9, 42, 64
3, 26192, Note_off_c, 9, 59, 64
3, 26384, Note_on_c, 9, 59, 20
3, 26464, Note_off_c, 9, 59, 64
3, 26496, Note_on_c, 9, 59, 80
3, 26576, Note_off_c, 9, 59, 64
3, 26774, Note_on_c, 9, 59, 40
3, 26854, Note_off_c, 9, 59, 64
3, 26880, Note_on_c, 9, 59, 80
3, 26880, Note_on_c, 9, 42, 50
3, 26960, Note_off_c, 9, 42, 64
3, 26960, Note_off_c, 9, 59, 64
3, 27158, Note_on_c, 9, 59, 60
3, 27238, Note_off_c, 9, 59, 64
3, 27264, Note_on_c, 9, 59, 80
3, 27264, Note_on_c, 9, 42, 60
3, 27264, Note_on_c, 9, 37, 50
3, 27344, Note_off_c, 9, 37, 64
3, 27344, Note_off_c, 9, 42, 64
3, 27344, Note_off_c, 9, 59, 64
3, 27542, Note_on_c, 9, 59, 50
3, 27622, Note_off_c, 9, 59, 64
3, 27648, Note_on_c, 9, 59, 80
3, 27728, Note_off_c, 9, 59, 64
3, 27904, Note_on_c, 9, 59, 20
3, 27984, Note_off_c, 9, 59, 64
3, 28032, Note_on_c, 9, 59, 80
3, 28032, Note_on_c, 9, 42, 70
3, 28112, Note_off_c, 9, 42, 64
3, 28112, Note_off_c, 9, 59, 64
3, 28288, Note_on_c, 9, 59, 60
3, 28368, Note_off_c, 9, 59, 64
3, 28416, Note_on_c, 9, 59, 80
3, 28416, Note_on_c, 9, 42, 70
3, 28416, Note_on_c, 9, 37, 50
3, 28496, Note_off_c, 9, 37, 64
3, 28496, Note_off_c, 9, 42, 64
3, 28496, Note_off_c, 9, 59, 64
3, 28672, Note_on_c, 9, 59, 20
3, 28672, Note_on_c, 9, 70, 20
3, 28752, Note_off_c, 9, 70, 64
3, 28752, Note_off_c, 9, 59, 64
3, 28800, Note_on_c, 9, 59, 80
3, 28880, Note_off_c, 9, 59, 64
3, 29072, Note_on_c, 9, 59, 90
3, 29152, Note_off_c, 9, 59, 64
3, 29184, Note_on_c, 9, 42, 50
3, 29264, Note_off_c, 9, 42, 64
3, 29456, Note_on_c, 9, 59, 60
3, 29536, Note_off_c, 9, 59, 64
3, 29568, Note_on_c, 9, 59, 90
3, 29568, Note_on_c, 9, 42, 60
3, 29568, Note_on_c, 9, 37, 50
3, 29648, Note_off_c, 9, 37, 64
3, 29648, Note_off_c, 9, 42, 64
3, 29648, Note_off_c, 9, 59, 64
3, 29696, Note_on_c, 9, 59, 50
3, 29776, Note_off_c, 9, 59, 64
3, 29840, Note_on_c, 9, 59, 70
3, 29920, Note_off_c, 9, 59, 64
3, 29952, Note_on_c, 9, 59, 80
3, 30032, Note_off_c, 9, 59, 64
3, 30224, Note_on_c, 9, 59, 90
3, 30304, Note_off_c, 9, 59, 64
3, 30336, Note_on_c, 9, 42, 50
3, 30416, Note_off_c, 9, 42, 64
3, 30608, Note_on_c, 9, 59, 60
3, 30688, Note_off_c, 9, 59, 64
3, 30720, Note_on_c, 9, 59, 90
3, 30720, Note_on_c, 9, 42, 60
3, 30720, Note_on_c, 9, 37, 50
3, 30800, Note_off_c, 9, 37, 64
3, 30800, Note_off_c, 9, 42, 64
3, 30800, Note_off_c, 9, 59, 64
3, 30992, Note_on_c, 9, 59, 20
3, 31072, Note_off_c, 9, 59, 64
3, 31104, Note_on_c, 9, 59, 80
3, 31184, Note_off_c, 9, 59, 64
3, 31360, Note_on_c, 9, 59, 20
3, 31440, Note_off_c, 9, 59, 64
3, 31488, Note_on_c, 9, 59, 80
3, 31488, Note_on_c, 9, 42, 70
3, 31568, Note_off_c, 9, 42, 64
3, 31568, Note_off_c, 9, 59, 64
3, 31744, Note_on_c, 9, 59, 60
3, 31824, Note_off_c, 9, 59, 64
3, 31872, Note_on_c, 9, 59, 80
3, 31872, Note_on_c, 9, 42, 70
3, 31872, Note_on_c, 9, 37, 50
3, 31952, Note_off_c, 9, 37, 64
3, 31952, Note_off_c, 9, 42, 64
3, 31952, Note_off_c, 9, 59, 64
3, 32128, Note_on_c, 9, 59, 54
3, 32128, Note_on_c, 9, 70, 20
3, 32208, Note_off_c, 9, 70, 64
3, 32208, Note_off_c, 9, 59, 64
3, 32256, Note_on_c, 9, 59, 80
3, 32336, Note_off_c, 9, 59, 64
3, 32528, Note_on_c, 9, 59, 20
3, 32608, Note_off_c, 9, 59, 64
3, 32640, Note_on_c, 9, 59, 80
3, 32640, Note_on_c, 9, 42, 50
3, 32720, Note_off_c, 9, 42, 64
3, 32720, Note_off_c, 9, 59, 64
3, 32912, Note_on_c, 9, 59, 60
3, 32992, Note_off_c, 9, 59, 64
3, 33024, Note_on_c, 9, 59, 80
3, 33024, Note_on_c, 9, 42, 60
3, 33024, Note_on_c, 9, 37, 50
3, 33104, Note_off_c, 9, 37, 64
3, 33104, Note_off_c, 9, 42, 64
3, 33104, Note_off_c, 9, 59, 64
3, 33296, Note_on_c, 9, 59, 20
3, 33376, Note_off_c, 9, 59, 64
3, 33408, Note_on_c, 9, 59, 80
3, 33488, Note_off_c, 9, 59, 64
3, 33680, Note_on_c, 9, 59, 20
3, 33760, Note_off_c, 9, 59, 64
3, 33792, Note_on_c, 9, 59, 80
3, 33792, Note_on_c, 9, 42, 50
3, 33872, Note_off_c, 9, 42, 64
3, 33872, Note_off_c, 9, 59, 64
3, 34064, Note_on_c, 9, 59, 60
3, 34144, Note_off_c, 9, 59, 64
3, 34176, Note_on_c, 9, 59, 80
3, 34176, Note_on_c, 9, 42, 60
3, 34176, Note_on_c, 9, 37, 50
3, 34256, Note_off_c, 9, 37, 64
3, 34256, Note_off_c, 9, 42, 64
3, 34256, Note_off_c, 9, 59, 64
3, 34448, Note_on_c, 9, 59, 20
3, 34528, Note_off_c, 9, 59, 64
3, 34560, Note_on_c, 9, 59, 80
3, 34640, Note_off_c, 9, 59, 64
3, 34838, Note_on_c, 9, 59, 40
3, 34918, Note_off_c, 9, 59, 64
3, 34944, Note_on_c, 9, 59, 80
3, 34944, Note_on_c, 9, 42, 50
3, 35024, Note_off_c, 9, 42, 64
3, 35024, Note_off_c, 9, 59, 64
3, 35222, Note_on_c, 9, 59, 60
3, 35302, Note_off_c, 9, 59, 64
3, 35328, Note_on_c, 9, 59, 80
3, 35328, Note_on_c, 9, 42, 60
3, 35328, Note_on_c, 9, 37, 50
3, 35408, Note_off_c, 9, 37, 64
3, 35408, Note_off_c, 9, 42, 64
3, 35408, Note_off_c, 9, 59, 64
3, 35606, Note_on_c, 9, 59, 50
3, 35686, Note_off_c, 9, 59, 64
3, 35712, Note_on_c, 9, 59, 80
3, 35792, Note_off_c, 9, 59, 64
3, 35968, Note_on_c, 9, 59, 20
3, 36048, Note_off_c, 9, 59, 64
3, 36096, Note_on_c, 9, 59, 80
3, 36096, Note_on_c, 9, 42, 70
3, 36176, Note_off_c, 9, 42, 64
3, 36176, Note_off_c, 9, 59, 64
3, 36352, Note_on_c, 9, 59, 60
3, 36432, Note_off_c, 9, 59, 64
3, 36480, Note_on_c, 9, 59, 80
3, 36480, Note_on_c, 9, 42, 70
3, 36480, Note_on_c, 9, 37, 50
3, 36560, Note_off_c, 9, 37, 64
3, 36560, Note_off_c, 9, 42, 64
3, 36560, Note_off_c, 9, 59, 64
3, 36736, Note_on_c, 9, 59, 20
3, 36736, Note_on_c, 9, 70, 20
3, 36816, Note_off_c, 9, 70, 64
3, 36816, Note_off_c, 9, 59, 64
3, 36864, Note_on_c, 9, 59, 80
3, 36944, Note_off_c, 9, 59, 64
3, 37136, Note_on_c, 9, 59, 90
3, 37216, Note_off_c, 9, 59, 64
3, 37248, Note_on_c, 9, 42, 50
3, 37328, Note_off_c, 9, 42, 64
3, 37520, Note_on_c, 9, 59, 60
3, 37600, Note_off_c, 9, 59, 64
3, 37632, Note_on_c, 9, 59, 90
3, 37632, Note_on_c, 9, 42, 60
3, 37632, Note_on_c, 9, 37, 50
3, 37712, Note_off_c, 9, 37, 64
3, 37712, Note_off_c, 9, 42, 64
3, 37712, Note_off_c, 9, 59, 64
3, 37904, Note_on_c, 9, 59, 20
3, 37984, Note_off_c, 9, 59, 64
3, 38016, Note_on_c, 9, 59, 80
3, 38096, Note_off_c, 9, 59, 64
3, 38288, Note_on_c, 9, 59, 90
3, 38368, Note_off_c, 9, 59, 64
3, 38400, Note_on_c, 9, 42, 50
3, 38480, Note_off_c, 9, 42, 64
3, 38672, Note_on_c, 9, 59, 60
3, 38752, Note_off_c, 9, 59, 64
3, 38784, Note_on_c, 9, 59, 90
3, 38784, Note_on_c, 9, 42, 60
3, 38784, Note_on_c, 9, 37, 50
3, 38864, Note_off_c, 9, 37, 64
3, 38864, Note_off_c, 9, 42, 64
3, 38864, Note_off_c, 9, 59, 64
3, 38912, Note_on_c, 9, 59, 50
3, 38992, Note_off_c, 9, 59, 64
3, 39056, Note_on_c, 9, 59, 70
3, 39136, Note_off_c, 9, 59, 64
3, 39168, Note_on_c, 9, 59, 80
3, 39168, Note_on_c, 9, 49, 24
3, 39248, Note_off_c, 9, 49, 64
3, 39248, Note_off_c, 9, 59, 64
3, 39424, Note_on_c, 9, 59, 20
3, 39424, Note_on_c, 9, 70, 20
3, 39504, Note_off_c, 9, 70, 64
3, 39504, Note_off_c, 9, 59, 64
3, 39552, Note_on_c, 9, 59, 80
3, 39552, Note_on_c, 9, 42, 70
3, 39632, Note_off_c, 9, 42, 64
3, 39632, Note_off_c, 9, 59, 64
3, 39808, Note_on_c, 9, 59, 60
3, 39888, Note_off_c, 9, 59, 64
3, 39936, Note_on_c, 9, 59, 80
3, 39936, Note_on_c, 9, 42, 70
3, 39936, Note_on_c, 9, 37, 50
3, 40016, Note_off_c, 9, 37, 64
3, 40016, Note_off_c, 9, 42, 64
3, 40016, Note_off_c, 9, 59, 64
3, 40192, Note_on_c, 9, 59, 20
3, 40272, Note_off_c, 9, 59, 64
3, 40320, Note_on_c, 9, 59, 80
3, 40400, Note_off_c, 9, 59, 64
3, 40598, Note_on_c, 9, 59, 40
3, 40678, Note_off_c, 9, 59, 64
3, 40704, Note_on_c, 9, 59, 80
3, 40704, Note_on_c, 9, 42, 50
3, 40784, Note_off_c, 9, 42, 64
3, 40784, Note_off_c, 9, 59, 64
3, 40982, Note_on_c, 9, 59, 60
3, 41062, Note_off_c, 9, 59, 64
3, 41088, Note_on_c, 9, 59, 80
3, 41088, Note_on_c, 9, 42, 60
3, 41088, Note_on_c, 9, 37, 50
3, 41168, Note_off_c, 9, 37, 64
3, 41168, Note_off_c, 9, 42, 64
3, 41168, Note_off_c, 9, 59, 64
3, 41366, Note_on_c, 9, 59, 50
3, 41446, Note_off_c, 9, 59, 64
3, 41472, Note_on_c, 9, 59, 80
3, 41552, Note_off_c, 9, 59, 64
3, 41744, Note_on_c, 9, 59, 20
3, 41824, Note_off_c, 9, 59, 64
3, 41856, Note_on_c, 9, 59, 80
3, 41856, Note_on_c, 9, 42, 50
3, 41936, Note_off_c, 9, 42, 64
3, 41936, Note_off_c, 9, 59, 64
3, 42128, Note_on_c, 9, 59, 60
3, 42208, Note_off_c, 9, 59, 64
3, 42240, Note_on_c, 9, 59, 80
3, 42240, Note_on_c, 9, 42, 60
3, 42240, Note_on_c, 9, 37, 50
3, 42320, Note_off_c, 9, 37, 64
3, 42320, Note_off_c, 9, 42, 64
3, 42320, Note_off_c, 9, 59, 64
3, 42512, Note_on_c, 9, 59, 20
3, 42592, Note_off_c, 9, 59, 64
3, 42624, Note_on_c, 9, 59, 80
3, 42704, Note_off_c, 9, 59, 64
3, 42896, Note_on_c, 9, 59, 90
3, 42976, Note_off_c, 9, 59, 64
3, 43008, Note_on_c, 9, 42, 50
3, 43088, Note_off_c, 9, 42, 64
3, 43280, Note_on_c, 9, 59, 90
3, 43360, Note_off_c, 9, 59, 64
3, 43392, Note_on_c, 9, 59, 20
3, 43392, Note_on_c, 9, 42, 60
3, 43392, Note_on_c, 9, 37, 50
3, 43472, Note_off_c, 9, 37, 64
3, 43472, Note_off_c, 9, 42, 64
3, 43472, Note_off_c, 9, 59, 64
3, 43520, Note_on_c, 9, 59, 30
3, 43600, Note_off_c, 9, 59, 64
3, 43664, Note_on_c, 9, 59, 80
3, 43744, Note_off_c, 9, 59, 64
3, 43776, Note_on_c, 9, 59, 80
3, 43856, Note_off_c, 9, 59, 64
3, 44032, Note_on_c, 9, 59, 20
3, 44112, Note_off_c, 9, 59, 64
3, 44160, Note_on_c, 9, 59, 80
3, 44160, Note_on_c, 9, 42, 70
3, 44240, Note_off_c, 9, 42, 64
3, 44240, Note_off_c, 9, 59, 64
3, 44416, Note_on_c, 9, 59, 60
3, 44496, Note_off_c, 9, 59, 64
3, 44544, Note_on_c, 9, 59, 80
3, 44544, Note_on_c, 9, 42, 70
3, 44544, Note_on_c, 9, 37, 50
3, 44624, Note_off_c, 9, 37, 64
3, 44624, Note_off_c, 9, 42, 64
3, 44624, Note_off_c, 9, 59, 64
3, 44800, Note_on_c, 9, 59, 54
3, 44800, Note_on_c, 9, 70, 20
3, 44880, Note_off_c, 9, 70, 64
3, 44880, Note_off_c, 9, 59, 64
3, 44928, Note_on_c, 9, 59, 80
3, 45008, Note_off_c, 9, 59, 64
3, 45200, Note_on_c, 9, 59, 90
3, 45280, Note_off_c, 9, 59, 64
3, 45312, Note_on_c, 9, 42, 50
3, 45392, Note_off_c, 9, 42, 64
3, 45584, Note_on_c, 9, 59, 60
3, 45664, Note_off_c, 9, 59, 64
3, 45696, Note_on_c, 9, 59, 90
3, 45696, Note_on_c, 9, 42, 60
3, 45696, Note_on_c, 9, 37, 50
3, 45776, Note_off_c, 9, 37, 64
3, 45776, Note_off_c, 9, 42, 64
3, 45776, Note_off_c, 9, 59, 64
3, 45968, Note_on_c, 9, 59, 20
3, 46048, Note_off_c, 9, 59, 64
3, 46080, Note_on_c, 9, 59, 80
3, 46160, Note_off_c, 9, 59, 64
3, 46352, Note_on_c, 9, 59, 20
3, 46432, Note_off_c, 9, 59, 64
3, 46464, Note_on_c, 9, 59, 80
3, 46464, Note_on_c, 9, 42, 50
3, 46544, Note_off_c, 9, 42, 64
3, 46544, Note_off_c, 9, 59, 64
3, 46736, Note_on_c, 9, 59, 60
3, 46816, Note_off_c, 9, 59, 64
3, 46848, Note_on_c, 9, 59, 80
3, 46848, Note_on_c, 9, 42, 60
3, 46848, Note_on_c, 9, 37, 50
3, 46928, Note_off_c, 9, 37, 64
3, 46928, Note_off_c, 9, 42, 64
3, 46928, Note_off_c, 9, 59, 64
3, 47120, Note_on_c, 9, 59, 20
3, 47200, Note_off_c, 9, 59, 64
3, 47232, Note_on_c, 9, 59, 80
3, 47312, Note_off_c, 9, 59, 64
3, 47488, Note_on_c, 9, 59, 20
3, 47568, Note_off_c, 9, 59, 64
3, 47616, Note_on_c, 9, 59, 80
3, 47616, Note_on_c, 9, 42, 70
3, 47696, Note_off_c, 9, 42, 64
3, 47696, Note_off_c, 9, 59, 64
3, 47872, Note_on_c, 9, 59, 60
3, 47952, Note_off_c, 9, 59, 64
3, 48000, Note_on_c, 9, 59, 80
3, 48000, Note_on_c, 9, 42, 70
3, 48000, Note_on_c, 9, 37, 50
3, 48080, Note_off_c, 9, 37, 64
3, 48080, Note_off_c, 9, 42, 64
3, 48080, Note_off_c, 9, 59, 64
3, 48256, Note_on_c, 9, 59, 20
3, 48256, Note_on_c, 9, 70, 20
3, 48336, Note_off_c, 9, 70, 64
3, 48336, Note_off_c, 9, 59, 64
3, 48384, Note_on_c, 9, 59, 80
3, 48464, Note_off_c, 9, 59, 64
3, 48640, Note_on_c, 9, 59, 54
3, 48720, Note_off_c, 9, 59, 64
3, 48768, Note_on_c, 9, 59, 80
3, 48768, Note_on_c, 9, 42, 70
3, 48848, Note_off_c, 9, 42, 64
3, 48848, Note_off_c, 9, 59, 64
3, 49024, Note_on_c, 9, 59, 60
3, 49104, Note_off_c, 9, 59, 64
3, 49152, Note_on_c, 9, 59, 80
3, 49152, Note_on_c, 9, 42, 70
3, 49152, Note_on_c, 9, 37, 50
3, 49232, Note_off_c, 9, 37, 64
3, 49232, Note_off_c, 9, 42, 64
3, 49232, Note_off_c, 9, 59, 64
3, 49408, Note_on_c, 9, 59, 20
3, 49408, Note_on_c, 9, 70, 20
3, 49488, Note_off_c, 9, 70, 64
3, 49488, Note_off_c, 9, 59, 64
3, 49536, Note_on_c, 9, 59, 80
3, 49616, Note_off_c, 9, 59, 64
3, 49792, Note_on_c, 9, 59, 54
3, 49872, Note_off_c, 9, 59, 64
3, 49920, Note_on_c, 9, 59, 80
3, 49920, Note_on_c, 9, 42, 70
3, 50000, Note_off_c, 9, 42, 64
3, 50000, Note_off_c, 9, 59, 64
3, 50176, Note_on_c, 9, 59, 60
3, 50256, Note_off_c, 9, 59, 64
3, 50304, Note_on_c, 9, 59, 80
3, 50304, Note_on_c, 9, 42, 70
3, 50304, Note_on_c, 9, 37, 50
3, 50384, Note_off_c, 9, 37, 64
3, 50384, Note_off_c, 9, 42, 64
3, 50384, Note_off_c, 9, 59, 64
3, 50560, Note_on_c, 9, 59, 20
3, 50560, Note_on_c, 9, 70, 20
3, 50640, Note_off_c, 9, 70, 64
3, 50640, Note_off_c, 9, 59, 64
3, 50688, Note_on_c, 9, 59, 80
3, 50768, Note_off_c, 9, 59, 64
3, 50960, Note_on_c, 9, 59, 20
3, 51040, Note_off_c, 9, 59, 64
3, 51072, Note_on_c, 9, 59, 80
3, 51072, Note_on_c, 9, 42, 50
3, 51152, Note_off_c, 9, 42, 64
3, 51152, Note_off_c, 9, 59, 64
3, 51344, Note_on_c, 9, 59, 60
3, 51424, Note_off_c, 9, 59, 64
3, 51456, Note_on_c, 9, 59, 80
3, 51456, Note_on_c, 9, 42, 60
3, 51456, Note_on_c, 9, 37, 50
3, 51536, Note_off_c, 9, 37, 64
3, 51536, Note_off_c, 9, 42, 64
3, 51536, Note_off_c, 9, 59, 64
3, 51728, Note_on_c, 9, 59, 20
3, 51808, Note_off_c, 9, 59, 64
3, 51840, Note_on_c, 9, 59, 80
3, 51920, Note_off_c, 9, 59, 64
3, 52112, Note_on_c, 9, 59, 90
3, 52192, Note_off_c, 9, 59, 64
3, 52224, Note_on_c, 9, 42, 50
3, 52304, Note_off_c, 9, 42, 64
3, 52496, Note_on_c, 9, 59, 60
3, 52576, Note_off_c, 9, 59, 64
3, 52608, Note_on_c, 9, 59, 90
3, 52608, Note_on_c, 9, 42, 60
3, 52608, Note_on_c, 9, 37, 50
3, 52688, Note_off_c, 9, 37, 64
3, 52688, Note_off_c, 9, 42, 64
3, 52688, Note_off_c, 9, 59, 64
3, 52880, Note_on_c, 9, 59, 20
3, 52960, Note_off_c, 9, 59, 64
3, 52992, Note_on_c, 9, 59, 80
3, 53072, Note_off_c, 9, 59, 64
3, 53264, Note_on_c, 9, 59, 20
3, 53344, Note_off_c, 9, 59, 64
3, 53376, Note_on_c, 9, 59, 80
3, 53376, Note_on_c, 9, 42, 50
3, 53456, Note_off_c, 9, 42, 64
3, 53456, Note_off_c, 9, 59, 64
3, 53648, Note_on_c, 9, 59, 60
3, 53728, Note_off_c, 9, 59, 64
3, 53760, Note_on_c, 9, 59, 80
3, 53760, Note_on_c, 9, 42, 60
3, 53760, Note_on_c, 9, 37, 50
3, 53840, Note_off_c, 9, 37, 64
3, 53840, Note_off_c, 9, 42, 64
3, 53840, Note_off_c, 9, 59, 64
3, 54032, Note_on_c, 9, 59, 20
3, 54112, Note_off_c, 9, 59, 64
3, 54144, Note_on_c, 9, 59, 80
3, 54224, Note_off_c, 9, 59, 64
3, 54422, Note_on_c, 9, 59, 40
3, 54502, Note_off_c, 9, 59, 64
3, 54528, Note_on_c, 9, 59, 80
3, 54528, Note_on_c, 9, 42, 50
3, 54608, Note_off_c, 9, 42, 64
3, 54608, Note_off_c, 9, 59, 64
3, 54806, Note_on_c, 9, 59, 60
3, 54886, Note_off_c, 9, 59, 64
3, 54912, Note_on_c, 9, 59, 80
3, 54912, Note_on_c, 9, 42, 60
3, 54912, Note_on_c, 9, 37, 50
3, 54992, Note_off_c, 9, 37, 64
3, 54992, Note_off_c, 9, 42, 64
3, 54992, Note_off_c, 9, 59, 64
3, 55190, Note_on_c, 9, 59, 50
3, 55270, Note_off_c, 9, 59, 64
3, 55296, Note_on_c, 9, 59, 80
3, 55376, Note_off_c, 9, 59, 64
3, 55568, Note_on_c, 9, 59, 90
3, 55648, Note_off_c, 9, 59, 64
3, 55680, Note_on_c, 9, 42, 50
3, 55760, Note_off_c, 9, 42, 64
3, 55952, Note_on_c, 9, 59, 60
3, 56032, Note_off_c, 9, 59, 64
3, 56064, Note_on_c, 9, 59, 90
3, 56064, Note_on_c, 9, 42, 60
3, 56064, Note_on_c, 9, 37, 50
3, 56144, Note_off_c, 9, 37, 64
3, 56144, Note_off_c, 9, 42, 64
3, 56144, Note_off_c, 9, 59, 64
3, 56336, Note_on_c, 9, 59, 20
3, 56416, Note_off_c, 9, 59, 64
3, 56448, Note_on_c, 9, 59, 80
3, 56528, Note_off_c, 9, 59, 64
3, 56720, Note_on_c, 9, 59, 90
3, 56800, Note_off_c, 9, 59, 64
3, 56832, Note_on_c, 9, 42, 50
3, 56912, Note_off_c, 9, 42, 64
3, 57104, Note_on_c, 9, 59, 90
3, 57184, Note_off_c, 9, 59, 64
3, 57216, Note_on_c, 9, 59, 20
3, 57216, Note_on_c, 9, 42, 60
3, 57216, Note_on_c, 9, 37, 50
3, 57296, Note_off_c, 9, 37, 64
3, 57296, Note_off_c, 9, 42, 64
3, 57296, Note_off_c, 9, 59, 64
3, 57344, Note_on_c, 9, 59, 30
3, 57424, Note_off_c, 9, 59, 64
3, 57488, Note_on_c, 9, 59, 80
3, 57568, Note_off_c, 9, 59, 64
3, 57600, Note_on_c, 9, 59, 80
3, 57680, Note_off_c, 9, 59, 64
3, 57872, Note_on_c, 9, 59, 20
3, 57952, Note_off_c, 9, 59, 64
3, 57984, Note_on_c, 9, 59, 80
3, 57984, Note_on_c, 9, 42, 50
3, 58064, Note_off_c, 9, 42, 64
3, 58064, Note_off_c, 9, 59, 64
3, 58256, Note_on_c, 9, 59, 60
3, 58336, Note_off_c, 9, 59, 64
3, 58368, Note_on_c, 9, 59, 80
3, 58368, Note_on_c, 9, 42, 60
3, 58368, Note_on_c, 9, 37, 50
3, 58448, Note_off_c, 9, 37, 64
3, 58448, Note_off_c, 9, 42, 64
3, 58448, Note_off_c, 9, 59, 64
3, 58640, Note_on_c, 9, 59, 20
3, 58720, Note_off_c, 9, 59, 64
3, 58752, Note_on_c, 9, 59, 80
3, 58832, Note_off_c, 9, 59, 64
3, 59008, Note_on_c, 9, 59, 20
3, 59088, Note_off_c, 9, 59, 64
3, 59136, Note_on_c, 9, 59, 80
3, 59136, Note_on_c, 9, 42, 70
3, 59216, Note_off_c, 9, 42, 64
3, 59216, Note_off_c, 9, 59, 64
3, 59392, Note_on_c, 9, 59, 60
3, 59472, Note_off_c, 9, 59, 64
3, 59520, Note_on_c, 9, 59, 80
3, 59520, Note_on_c, 9, 42, 70
3, 59520, Note_on_c, 9, 37, 50
3, 59600, Note_off_c, 9, 37, 64
3, 59600, Note_off_c, 9, 42, 64
3, 59600, Note_off_c, 9, 59, 64
3, 59776, Note_on_c, 9, 59, 54
3, 59776, Note_on_c, 9, 70, 20
3, 59856, Note_off_c, 9, 70, 64
3, 59856, Note_off_c, 9, 59, 64
3, 59904, Note_on_c, 9, 59, 80
3, 59984, Note_off_c, 9, 59, 64
3, 60182, Note_on_c, 9, 59, 40
3, 60262, Note_off_c, 9, 59, 64
3, 60288, Note_on_c, 9, 59, 80
3, 60288, Note_on_c, 9, 42, 50
3, 60368, Note_off_c, 9, 42, 64
3, 60368, Note_off_c, 9, 59, 64
3, 60566, Note_on_c, 9, 59, 60
3, 60646, Note_off_c, 9, 59, 64
3, 60672, Note_on_c, 9, 59, 80
3, 60672, Note_on_c, 9, 42, 60
3, 60672, Note_on_c, 9, 37, 50
3, 60752, Note_off_c, 9, 37, 64
3, 60752, Note_off_c, 9, 42, 64
3, 60752, Note_off_c, 9, 59, 64
3, 60950, Note_on_c, 9, 59, 50
3, 61030, Note_off_c, 9, 59, 64
3, 61056, Note_on_c, 9, 59, 90
3, 61136, Note_off_c, 9, 59, 64
3, 61334, Note_on_c, 9, 59, 30
3, 61414, Note_off_c, 9, 59, 64
3, 61440, Note_on_c, 9, 42, 50
3, 61520, Note_off_c, 9, 42, 64
3, 61718, Note_on_c, 9, 59, 90
3, 61798, Note_off_c, 9, 59, 64
3, 61824, Note_on_c, 9, 42, 60
3, 61824, Note_on_c, 9, 37, 50
3, 61904, Note_off_c, 9, 37, 64
3, 61904, Note_off_c, 9, 42, 64
3, 62102, Note_on_c, 9, 59, 80
3, 62182, Note_off_c, 9, 59, 64
3, 62208, Note_on_c, 9, 59, 80
3, 62288, Note_off_c, 9, 59, 64
3, 62480, Note_on_c, 9, 59, 20
3, 62560, Note_off_c, 9, 59, 64
3, 62592, Note_on_c, 9, 59, 80
3, 62592, Note_on_c, 9, 42, 50
3, 62672, Note_off_c, 9, 42, 64
3, 62672, Note_off_c, 9, 59, 64
3, 62864, Note_on_c, 9, 59, 60
3, 62944, Note_off_c, 9, 59, 64
3, 62976, Note_on_c, 9, 59, 80
3, 62976, Note_on_c, 9, 42, 60
3, 62976, Note_on_c, 9, 37, 50
3, 63056, Note_off_c, 9, 37, 64
3, 63056, Note_off_c, 9, 42, 64
3, 63056, Note_off_c, 9, 59, 64
3, 63248, Note_on_c, 9, 59, 20
3, 63328, Note_off_c, 9, 59, 64
3, 63360, Note_on_c, 9, 59, 80
3, 63440, Note_off_c, 9, 59, 64
3, 63638, Note_on_c, 9, 59, 40
3, 63718, Note_off_c, 9, 59, 64
3, 63744, Note_on_c, 9, 59, 80
3, 63744, Note_on_c, 9, 42, 50
3, 63824, Note_off_c, 9, 42, 64
3, 63824, Note_off_c, 9, 59, 64
3, 64022, Note_on_c, 9, 59, 60
3, 64102, Note_off_c, 9, 59, 64
3, 64128, Note_on_c, 9, 59, 80
3, 64128, Note_on_c, 9, 42, 60
3, 64128, Note_on_c, 9, 37, 50
3, 64208, Note_off_c, 9, 37, 64
3, 64208, Note_off_c, 9, 42, 64
3, 64208, Note_off_c, 9, 59, 64
3, 64406, Note_on_c, 9, 59, 50
3, 64486, Note_off_c, 9, 59, 64
3, 64512, Note_on_c, 9, 59, 80
3, 64592, Note_off_c, 9, 59, 64
3, 64784, Note_on_c, 9, 59, 20
3, 64864, Note_off_c, 9, 59, 64
3, 64896, Note_on_c, 9, 59, 80
3, 64896, Note_on_c, 9, 42, 50
3, 64976, Note_off_c, 9, 42, 64
3, 64976, Note_off_c, 9, 59, 64
3, 65168, Note_on_c, 9, 59, 60
3, 65248, Note_off_c, 9, 59, 64
3, 65280, Note_on_c, 9, 59, 80
3, 65280, Note_on_c, 9, 42, 60
3, 65280, Note_on_c, 9, 37, 50
3, 65360, Note_off_c, 9, 37, 64
3, 65360, Note_off_c, 9, 42, 64
3, 65360, Note_off_c, 9, 59, 64
3, 65552, Note_on_c, 9, 59, 20
3, 65632, Note_off_c, 9, 59, 64
3, 65664, Note_on_c, 9, 59, 80
3, 65744, Note_off_c, 9, 59, 64
3, 65920, Note_on_c, 9, 59, 20
3, 66000, Note_off_c, 9, 59, 64
3, 66048, Note_on_c, 9, 59, 80
3, 66048, Note_on_c, 9, 42, 70
3, 66128, Note_off_c, 9, 42, 64
3, 66128, Note_off_c, 9, 59, 64
3, 66304, Note_on_c, 9, 59, 60
3, 66384, Note_off_c, 9, 59, 64
3, 66432, Note_on_c, 9, 59, 80
3, 66432, Note_on_c, 9, 42, 70
3, 66432, Note_on_c, 9, 37, 50
3, 66512, Note_off_c, 9, 37, 64
3, 66512, Note_off_c, 9, 42, 64
3, 66512, Note_off_c, 9, 59, 64
3, 66688, Note_on_c, 9, 59, 54
3, 66688, Note_on_c, 9, 70, 20
3, 66768, Note_off_c, 9, 70, 64
3, 66768, Note_off_c, 9, 59, 64
3, 66816, Note_on_c, 9, 59, 80
3, 66896, Note_off_c, 9, 59, 64
3, 67088, Note_on_c, 9, 59, 20
3, 67168, Note_off_c, 9, 59, 64
3, 67200, Note_on_c, 9, 59, 80
3, 67200, Note_on_c, 9, 42, 50
3, 67280, Note_off_c, 9, 42, 64
3, 67280, Note_off_c, 9, 59, 64
3, 67472, Note_on_c, 9, 59, 60
3, 67552, Note_off_c, 9, 59, 64
3, 67584, Note_on_c, 9, 59, 80
3, 67584, Note_on_c, 9, 42, 60
3, 67584, Note_on_c, 9, 37, 50
3, 67664, Note_off_c, 9, 37, 64
3, 67664, Note_off_c, 9, 42, 64
3, 67664, Note_off_c, 9, 59, 64
3, 67856, Note_on_c, 9, 59, 20
3, 67936, Note_off_c, 9, 59, 64
3, 67968, Note_on_c, 9, 59, 80
3, 68048, Note_off_c, 9, 59, 64
3, 68240, Note_on_c, 9, 59, 90
3, 68320, Note_off_c, 9, 59, 64
3, 68352, Note_on_c, 9, 42, 50
3, 68432, Note_off_c, 9, 42, 64
3, 68624, Note_on_c, 9, 59, 60
3, 68704, Note_off_c, 9, 59, 64
3, 68736, Note_on_c, 9, 59, 90
3, 68736, Note_on_c, 9, 42, 60
3, 68736, Note_on_c, 9, 37, 50
3, 68816, Note_off_c, 9, 37, 64
3, 68816, Note_off_c, 9, 42, 64
3, 68816, Note_off_c, 9, 59, 64
3, 69008, Note_on_c, 9, 59, 20
3, 69088, Note_off_c, 9, 59, 64
3, 69120, Note_on_c, 9, 59, 80
3, 69200, Note_off_c, 9, 59, 64
3, 69392, Note_on_c, 9, 59, 90
3, 69472, Note_off_c, 9, 59, 64
3, 69504, Note_on_c, 9, 42, 50
3, 69584, Note_off_c, 9, 42, 64
3, 69776, Note_on_c, 9, 59, 60
3, 69856, Note_off_c, 9, 59, 64
3, 69888, Note_on_c, 9, 59, 90
3, 69888, Note_on_c, 9, 42, 60
3, 69888, Note_on_c, 9, 37, 50
3, 69968, Note_off_c, 9, 37, 64
3, 69968, Note_off_c, 9, 42, 64
3, 69968, Note_off_c, 9, 59, 64
3, 70160, Note_on_c, 9, 59, 20
3, 70240, Note_off_c, 9, 59, 64
3, 70272, Note_on_c, 9, 59, 80
3, 70352, Note_off_c, 9, 59, 64
3, 70544, Note_on_c, 9, 59, 90
3, 70624, Note_off_c, 9, 59, 64
3, 70656, Note_on_c, 9, 42, 50
3, 70736, Note_off_c, 9, 42, 64
3, 70928, Note_on_c, 9, 59, 90
3, 71008, Note_off_c, 9, 59, 64
3, 71040, Note_on_c, 9, 59, 20
3, 71040, Note_on_c, 9, 42, 60
3, 71040, Note_on_c, 9, 37, 50
3, 71120, Note_off_c, 9, 37, 64
3, 71120, Note_off_c, 9, 42, 64
3, 71120, Note_off_c, 9, 59, 64
3, 71168, Note_on_c, 9, 59, 30
3, 71248, Note_off_c, 9, 59, 64
3, 71312, Note_on_c, 9, 59, 80
3, 71392, Note_off_c, 9, 59, 64
3, 71424, Note_on_c, 9, 59, 80
3, 71504, Note_off_c, 9, 59, 64
3, 71702, Note_on_c, 9, 59, 40
3, 71782, Note_off_c, 9, 59, 64
3, 71808, Note_on_c, 9, 59, 80
3, 71808, Note_on_c, 9, 42, 50
3, 71888, Note_off_c, 9, 42, 64
3, 71888, Note_off_c, 9, 59, 64
3, 72086, Note_on_c, 9, 59, 60
3, 72166, Note_off_c, 9, 59, 64
3, 72192, Note_on_c, 9, 59, 80
3, 72192, Note_on_c, 9, 42, 60
3, 72192, Note_on_c, 9, 37, 50
3, 72272, Note_off_c, 9, 37, 64
3, 72272, Note_off_c, 9, 42, 64
3, 72272, Note_off_c, 9, 59, 64
3, 72470, Note_on_c, 9, 59, 50
3, 72550, Note_off_c, 9, 59, 64
3, 72576, Note_on_c, 9, 59, 80
3, 72656, Note_off_c, 9, 59, 64
3, 72848, Note_on_c, 9, 59, 90
3, 72928, Note_off_c, 9, 59, 64
3, 72960, Note_on_c, 9, 42, 50
3, 73040, Note_off_c, 9, 42, 64
3, 73232, Note_on_c, 9, 59, 60
3, 73312, Note_off_c, 9, 59, 64
3, 73344, Note_on_c, 9, 59, 90
3, 73344, Note_on_c, 9, 42, 60
3, 73344, Note_on_c, 9, 37, 50
3, 73424, Note_off_c, 9, 37, 64
3, 73424, Note_off_c, 9, 42, 64
3, 73424, Note_off_c, 9, 59, 64
3, 73616, Note_on_c, 9, 59, 20
3, 73696, Note_off_c, 9, 59, 64
3, 73728, Note_on_c, 9, 59, 80
3, 73808, Note_off_c, 9, 59, 64
3, 73984, Note_on_c, 9, 59, 20
3, 74064, Note_off_c, 9, 59, 64
3, 74112, Note_on_c, 9, 59, 80
3, 74112, Note_on_c, 9, 42, 70
3, 74192, Note_off_c, 9, 42, 64
3, 74192, Note_off_c, 9, 59, 64
3, 74368, Note_on_c, 9, 59, 60
3, 74448, Note_off_c, 9, 59, 64
3, 74496, Note_on_c, 9, 59, 80
3, 74496, Note_on_c, 9, 42, 70
3, 74496, Note_on_c, 9, 37, 50
3, 74576, Note_off_c, 9, 37, 64
3, 74576, Note_off_c, 9, 42, 64
3, 74576, Note_off_c, 9, 59, 64
3, 74752, Note_on_c, 9, 59, 54
3, 74752, Note_on_c, 9, 70, 20
3, 74832, Note_off_c, 9, 70, 64
3, 74832, Note_off_c, 9, 59, 64
3, 74880, Note_on_c, 9, 59, 80
3, 74960, Note_off_c, 9, 59, 64
3, 75136, Note_on_c, 9, 59, 54
3, 75216, Note_off_c, 9, 59, 64
3, 75264, Note_on_c, 9, 59, 80
3, 75264, Note_on_c, 9, 42, 70
3, 75344, Note_off_c, 9, 42, 64
3, 75344, Note_off_c, 9, 59, 64
3, 75520, Note_on_c, 9, 59, 60
3, 75600, Note_off_c, 9, 59, 64
3, 75648, Note_on_c, 9, 59, 80
3, 75648, Note_on_c, 9, 42, 70
3, 75648, Note_on_c, 9, 37, 50
3, 75728, Note_off_c, 9, 37, 64
3, 75728, Note_off_c, 9, 42, 64
3, 75728, Note_off_c, 9, 59, 64
3, 75904, Note_on_c, 9, 59, 20
3, 75904, Note_on_c, 9, 70, 20
3, 75984, Note_off_c, 9, 70, 64
3, 75984, Note_off_c, 9, 59, 64
3, 76032, Note_on_c, 9, 59, 80
3, 76112, Note_off_c, 9, 59, 64
3, 76304, Note_on_c, 9, 59, 90
3, 76384, Note_off_c, 9, 59, 64
3, 76416, Note_on_c, 9, 42, 50
3, 76496, Note_off_c, 9, 42, 64
3, 76688, Note_on_c, 9, 59, 60
3, 76768, Note_off_c, 9, 59, 64
3, 76800, Note_on_c, 9, 59, 90
3, 76800, Note_on_c, 9, 42, 60
3, 76800, Note_on_c, 9, 37, 50
3, 76880, Note_off_c, 9, 37, 64
3, 76880, Note_off_c, 9, 42, 64
3, 76880, Note_off_c, 9, 59, 64
3, 77072, Note_on_c, 9, 59, 20
3, 77152, Note_off_c, 9, 59, 64
3, 77184, Note_on_c, 9, 59, 80
3, 77264, Note_off_c, 9, 59, 64
3, 77456, Note_on_c, 9, 59, 90
3, 77536, Note_off_c, 9, 59, 64
3, 77568, Note_on_c, 9, 42, 50
3, 77648, Note_off_c, 9, 42, 64
3, 77840, Note_on_c, 9, 59, 60
3, 77920, Note_off_c, 9, 59, 64
3, 77952, Note_on_c, 9, 59, 90
3, 77952, Note_on_c, 9, 42, 60
3, 77952, Note_on_c, 9, 37, 50
3, 78032, Note_off_c, 9, 37, 64
3, 78032, Note_off_c, 9, 42, 64
3, 78032, Note_off_c, 9, 59, 64
3, 78224, Note_on_c, 9, 59, 20
3, 78304, Note_off_c, 9, 59, 64
3, 78336, Note_on_c, 9, 59, 80
3, 78416, Note_off_c, 9, 59, 64
3, 78592, Note_on_c, 9, 59, 54
3, 78672, Note_off_c, 9, 59, 64
3, 78720, Note_on_c, 9, 59, 80
3, 78720, Note_on_c, 9, 42, 70
3, 78800, Note_off_c, 9, 42, 64
3, 78800, Note_off_c, 9, 59, 64
3, 78976, Note_on_c, 9, 59, 60
3, 79056, Note_off_c, 9, 59, 64
3, 79104, Note_on_c, 9, 59, 80
3, 79104, Note_on_c, 9, 42, 70
3, 79104, Note_on_c, 9, 37, 50
3, 79184, Note_off_c, 9, 37, 64
3, 79184, Note_off_c, 9, 42, 64
3, 79184, Note_off_c, 9, 59, 64
3, 79360, Note_on_c, 9, 59, 20
3, 79360, Note_on_c, 9, 70, 20
3, 79440, Note_off_c, 9, 70, 64
3, 79440, Note_off_c, 9, 59, 64
3, 79488, Note_on_c, 9, 59, 80
3, 79568, Note_off_c, 9, 59, 64
3, 79766, Note_on_c, 9, 59, 40
3, 79846, Note_off_c, 9, 59, 64
3, 79872, Note_on_c, 9, 59, 80
3, 79872, Note_on_c, 9, 42, 50
3, 79952, Note_off_c, 9, 42, 64
3, 79952, Note_off_c, 9, 59, 64
3, 80150, Note_on_c, 9, 59, 60
3, 80230, Note_off_c, 9, 59, 64
3, 80256, Note_on_c, 9, 59, 80
3, 80256, Note_on_c, 9, 42, 60
3, 80256, Note_on_c, 9, 37, 50
3, 80336, Note_off_c, 9, 37, 64
3, 80336, Note_off_c, 9, 42, 64
3, 80336, Note_off_c, 9, 59, 64
3, 80534, Note_on_c, 9, 59, 50
3, 80614, Note_off_c, 9, 59, 64
3, 80640, Note_on_c, 9, 59, 80
3, 80720, Note_off_c, 9, 59, 64
3, 80918, Note_on_c, 9, 59, 40
3, 80998, Note_off_c, 9, 59, 64
3, 81024, Note_on_c, 9, 59, 80
3, 81024, Note_on_c, 9, 42, 50
3, 81104, Note_off_c, 9, 42, 64
3, 81104, Note_off_c, 9, 59, 64
3, 81302, Note_on_c, 9, 59, 60
3, 81382, Note_off_c, 9, 59, 64
3, 81408, Note_on_c, 9, 59, 80
3, 81408, Note_on_c, 9, 42, 60
3, 81408, Note_on_c, 9, 37, 50
3, 81488, Note_off_c, 9, 37, 64
3, 81488, Note_off_c, 9, 42, 64
3, 81488, Note_off_c, 9, 59, 64
3, 81686, Note_on_c, 9, 59, 50
3, 81766, Note_off_c, 9, 59, 64
3, 81792, Note_on_c, 9, 59, 80
3, 81872, Note_off_c, 9, 59, 64
3, 82048, Note_on_c, 9, 59, 20
3, 82128, Note_off_c, 9, 59, 64
3, 82176, Note_on_c, 9, 59, 80
3, 82176, Note_on_c, 9, 42, 70
3, 82256, Note_off_c, 9, 42, 64
3, 82256, Note_off_c, 9, 59, 64
3, 82432, Note_on_c, 9, 59, 60
3, 82512, Note_off_c, 9, 59, 64
3, 82560, Note_on_c, 9, 59, 80
3, 82560, Note_on_c, 9, 42, 70
3, 82560, Note_on_c, 9, 37, 50
3, 82640, Note_off_c, 9, 37, 64
3, 82640, Note_off_c, 9, 42, 64
3, 82640, Note_off_c, 9, 59, 64
3, 82816, Note_on_c, 9, 59, 54
3, 82816, Note_on_c, 9, 70, 20
3, 82896, Note_off_c, 9, 70, 64
3, 82896, Note_off_c, 9, 59, 64
3, 82944, Note_on_c, 9, 59, 80
3, 83024, Note_off_c, 9, 59, 64
3, 83222, Note_on_c, 9, 59, 40
3, 83302, Note_off_c, 9, 59, 64
3, 83328, Note_on_c, 9, 59, 80
3, 83328, Note_on_c, 9, 42, 50
3, 83408, Note_off_c, 9, 42, 64
3, 83408, Note_off_c, 9, 59, 64
3, 83606, Note_on_c, 9, 59, 60
3, 83686, Note_off_c, 9, 59, 64
3, 83712, Note_on_c, 9, 59, 80
3, 83712, Note_on_c, 9, 42, 60
3, 83712, Note_on_c, 9, 37, 50
3, 83792, Note_off_c, 9, 37, 64
3, 83792, Note_off_c, 9, 42, 64
3, 83792, Note_off_c, 9, 59, 64
3, 83990, Note_on_c, 9, 59, 50
3, 84070, Note_off_c, 9, 59, 64
3, 84096, Note_on_c, 9, 59, 80
3, 84176, Note_off_c, 9, 59, 64
3, 84368, Note_on_c, 9, 59, 90
3, 84448, Note_off_c, 9, 59, 64
3, 84480, Note_on_c, 9, 42, 50
3, 84560, Note_off_c, 9, 42, 64
3, 84752, Note_on_c, 9, 59, 60
3, 84832, Note_off_c, 9, 59, 64
3, 84864, Note_on_c, 9, 59, 90
3, 84864, Note_on_c, 9, 42, 60
3, 84864, Note_on_c, 9, 37, 50
3, 84944, Note_off_c, 9, 37, 64
3, 84944, Note_off_c, 9, 42, 64
3, 84944, Note_off_c, 9, 59, 64
3, 84992, Note_on_c, 9, 59, 50
3, 85072, Note_off_c, 9, 59, 64
3, 85136, Note_on_c, 9, 59, 70
3, 85216, Note_off_c, 9, 59, 64
3, 85248, Note_on_c, 9, 59, 80
3, 85248, Note_on_c, 9, 49, 24
3, 85328, Note_off_c, 9, 49, 64
3, 85328, Note_off_c, 9, 59, 64
3, 85504, Note_on_c, 9, 59, 20
3, 85504, Note_on_c, 9, 70, 20
3, 85584, Note_off_c, 9, 70, 64
3, 85584, Note_off_c, 9, 59, 64
3, 85632, Note_on_c, 9, 59, 80
3, 85632, Note_on_c, 9, 42, 70
3, 85712, Note_off_c, 9, 42, 64
3, 85712, Note_off_c, 9, 59, 64
3, 85888, Note_on_c, 9, 59, 60
3, 85968, Note_off_c, 9, 59, 64
3, 86016, Note_on_c, 9, 59, 80
3, 86016, Note_on_c, 9, 42, 70
3, 86016, Note_on_c, 9, 37, 50
3, 86096, Note_off_c, 9, 37, 64
3, 86096, Note_off_c, 9, 42, 64
3, 86096, Note_off_c, 9, 59, 64
3, 86272, Note_on_c, 9, 59, 20
3, 86352, Note_off_c, 9, 59, 64
3, 86400, Note_on_c, 9, 59, 80
3, 86480, Note_off_c, 9, 59, 64
3, 86672, Note_on_c, 9, 59, 20
3, 86752, Note_off_c, 9, 59, 64
3, 86784, Note_on_c, 9, 59, 80
3, 86784, Note_on_c, 9, 42, 50
3, 86864, Note_off_c, 9, 42, 64
3, 86864, Note_off_c, 9, 59, 64
3, 87056, Note_on_c, 9, 59, 60
3, 87136, Note_off_c, 9, 59, 64
3, 87168, Note_on_c, 9, 59, 80
3, 87168, Note_on_c, 9, 42, 60
3, 87168, Note_on_c, 9, 37, 50
3, 87248, Note_off_c, 9, 37, 64
3, 87248, Note_off_c, 9, 42, 64
3, 87248, Note_off_c, 9, 59, 64
3, 87440, Note_on_c, 9, 59, 20
3, 87520, Note_off_c, 9, 59, 64
3, 87552, Note_on_c, 9, 59, 80
3, 87632, Note_off_c, 9, 59, 64
3, 87830, Note_on_c, 9, 59, 40
3, 87910, Note_off_c, 9, 59, 64
3, 87936, Note_on_c, 9, 59, 80
3, 87936, Note_on_c, 9, 42, 50
3, 88016, Note_off_c, 9, 42, 64
3, 88016, Note_off_c, 9, 59, 64
3, 88214, Note_on_c, 9, 59, 60
3, 88294, Note_off_c, 9, 59, 64
3, 88320, Note_on_c, 9, 59, 80
3, 88320, Note_on_c, 9, 42, 60
3, 88320, Note_on_c, 9, 37, 50
3, 88400, Note_off_c, 9, 37, 64
3, 88400, Note_off_c, 9, 42, 64
3, 88400, Note_off_c, 9, 59, 64
3, 88598, Note_on_c, 9, 59, 50
3, 88678, Note_off_c, 9, 59, 64
3, 88704, Note_on_c, 9, 59, 90
3, 88784, Note_off_c, 9, 59, 64
3, 88982, Note_on_c, 9, 59, 30
3, 89062, Note_off_c, 9, 59, 64
3, 89088, Note_on_c, 9, 42, 50
3, 89168, Note_off_c, 9, 42, 64
3, 89366, Note_on_c, 9, 59, 90
3, 89446, Note_off_c, 9, 59, 64
3, 89472, Note_on_c, 9, 42, 60
3, 89472, Note_on_c, 9, 37, 50
3, 89552, Note_off_c, 9, 37, 64
3, 89552, Note_off_c, 9, 42, 64
3, 89750, Note_on_c, 9, 59, 80
3, 89830, Note_off_c, 9, 59, 64
3, 89856, Note_on_c, 9, 59, 80
3, 89936, Note_off_c, 9, 59, 64
3, 90128, Note_on_c, 9, 59, 90
3, 90208, Note_off_c, 9, 59, 64
3, 90240, Note_on_c, 9, 42, 50
3, 90320, Note_off_c, 9, 42, 64
3, 90512, Note_on_c, 9, 59, 60
3, 90592, Note_off_c, 9, 59, 64
3, 90624, Note_on_c, 9, 59, 90
3, 90624, Note_on_c, 9, 42, 60
3, 90624, Note_on_c, 9, 37, 50
3, 90704, Note_off_c, 9, 37, 64
3, 90704, Note_off_c, 9, 42, 64
3, 90704, Note_off_c, 9, 59, 64
3, 90896, Note_on_c, 9, 59, 20
3, 90976, Note_off_c, 9, 59, 64
3, 91008, Note_on_c, 9, 59, 80
3, 91088, Note_off_c, 9, 59, 64
3, 91280, Note_on_c, 9, 59, 20
3, 91360, Note_off_c, 9, 59, 64
3, 91392, Note_on_c, 9, 59, 80
3, 91392, Note_on_c, 9, 42, 50
3, 91472, Note_off_c, 9, 42, 64
3, 91472, Note_off_c, 9, 59, 64
3, 91664, Note_on_c, 9, 59, 60
3, 91744, Note_off_c, 9, 59, 64
3, 91776, Note_on_c, 9, 59, 80
3, 91776, Note_on_c, 9, 42, 60
3, 91776, Note_on_c, 9, 37, 50
3, 91856, Note_off_c, 9, 37, 64
3, 91856, Note_off_c, 9, 42, 64
3, 91856, Note_off_c, 9, 59, 64
3, 92048, Note_on_c, 9, 59, 20
3, 92128, Note_off_c, 9, 59, 64
3, 92160, Note_on_c, 9, 59, 80
3, 92240, Note_off_c, 9, 59, 64
3, 92432, Note_on_c, 9, 59, 90
3, 92512, Note_off_c, 9, 59, 64
3, 92544, Note_on_c, 9, 42, 50
3, 92624, Note_off_c, 9, 42, 64
3, 92816, Note_on_c, 9, 59, 60
3, 92896, Note_off_c, 9, 59, 64
3, 92928, Note_on_c, 9, 59, 90
3, 92928, Note_on_c, 9, 42, 60
3, 92928, Note_on_c, 9, 37, 50
3, 93008, Note_off_c, 9, 37, 64
3, 93008, Note_off_c, 9, 42, 64
3, 93008, Note_off_c, 9, 59, 64
3, 93200, Note_on_c, 9, 59, 20
3, 93280, Note_off_c, 9, 59, 64
3, 93312, Note_on_c, 9, 59, 80
3, 93392, Note_off_c, 9, 59, 64
3, 93584, Note_on_c, 9, 59, 90
3, 93664, Note_off_c, 9, 59, 64
3, 93696, Note_on_c, 9, 42, 50
3, 93776, Note_off_c, 9, 42, 64
3, 93968, Note_on_c, 9, 59, 60
3, 94048, Note_off_c, 9, 59, 64
3, 94080, Note_on_c, 9, 59, 90
3, 94080, Note_on_c, 9, 42, 60
3, 94080, Note_on_c, 9, 37, 50
3, 94160, Note_off_c, 9, 37, 64
3, 94160, Note_off_c, 9, 42, 64
3, 94160, Note_off_c, 9, 59, 64
3, 94208, Note_on_c, 9, 59, 50
3, 94288, Note_off_c, 9, 59, 64
3, 94352, Note_on_c, 9, 59, 70
3, 94432, Note_off_c, 9, 59, 64
3, 94464, Note_on_c, 9, 59, 80
3, 94544, Note_off_c, 9, 59, 64
3, 94736, Note_on_c, 9, 59, 20
3, 94816, Note_off_c, 9, 59, 64
3, 94848, Note_on_c, 9, 59, 80
3, 94848, Note_on_c, 9, 42, 50
3, 94928, Note_off_c, 9, 42, 64
3, 94928, Note_off_c, 9, 59, 64
3, 95120, Note_on_c, 9, 59, 60
3, 95200, Note_off_c, 9, 59, 64
3, 95232, Note_on_c, 9, 59, 80
3, 95232, Note_on_c, 9, 42, 60
3, 95232, Note_on_c, 9, 37, 50
3, 95312, Note_off_c, 9, 37, 64
3, 95312, Note_off_c, 9, 42, 64
3, 95312, Note_off_c, 9, 59, 64
3, 95504, Note_on_c, 9, 59, 20
3, 95584, Note_off_c, 9, 59, 64
3, 95616, Note_on_c, 9, 59, 80
3, 95696, Note_off_c, 9, 59, 64
3, 95888, Note_on_c, 9, 59, 90
3, 95968, Note_off_c, 9, 59, 64
3, 96000, Note_on_c, 9, 42, 50
3, 96080, Note_off_c, 9, 42, 64
3, 96272, Note_on_c, 9, 59, 60
3, 96352, Note_off_c, 9, 59, 64
3, 96384, Note_on_c, 9, 59, 90
3, 96384, Note_on_c, 9, 42, 60
3, 96384, Note_on_c, 9, 37, 50
3, 96464, Note_off_c, 9, 37, 64
3, 96464, Note_off_c, 9, 42, 64
3, 96464, Note_off_c, 9, 59, 64
3, 96656, Note_on_c, 9, 59, 20
3, 96736, Note_off_c, 9, 59, 64
3, 96768, Note_on_c, 9, 59, 80
3, 96848, Note_off_c, 9, 59, 64
3, 97046, Note_on_c, 9, 59, 40
3, 97126, Note_off_c, 9, 59, 64
3, 97152, Note_on_c, 9, 59, 80
3, 97152, Note_on_c, 9, 42, 50
3, 97232, Note_off_c, 9, 42, 64
3, 97232, Note_off_c, 9, 59, 64
3, 97430, Note_on_c, 9, 59, 60
3, 97510, Note_off_c, 9, 59, 64
3, 97536, Note_on_c, 9, 59, 80
3, 97536, Note_on_c, 9, 42, 60
3, 97536, Note_on_c, 9, 37, 50
3, 97616, Note_off_c, 9, 37, 64
3, 97616, Note_off_c, 9, 42, 64
3, 97616, Note_off_c, 9, 59, 64
3, 97814, Note_on_c, 9, 59, 50
3, 97894, Note_off_c, 9, 59, 64
3, 97920, Note_on_c, 9, 59, 80
3, 98000, Note_off_c, 9, 59, 64
3, 98192, Note_on_c, 9, 59, 90
3, 98272, Note_off_c, 9, 59, 64
3, 98304, Note_on_c, 9, 42, 50
3, 98384, Note_off_c, 9, 42, 64
3, 98576, Note_on_c, 9, 59, 90
3, 98656, Note_off_c, 9, 59, 64
3, 98688, Note_on_c, 9, 59, 20
3, 98688, Note_on_c, 9, 42, 60
3, 98688, Note_on_c, 9, 37, 50
3, 98768, Note_off_c, 9, 37, 64
3, 98768, Note_off_c, 9, 42, 64
3, 98768, Note_off_c, 9, 59, 64
3, 98816, Note_on_c, 9, 59, 30
3, 98896, Note_off_c, 9, 59, 64
3, 98960, Note_on_c, 9, 59, 80
3, 99040, Note_off_c, 9, 59, 64
3, 99072, Note_on_c, 9, 59, 80
3, 99072, Note_on_c, 9, 49, 24
3, 99152, Note_off_c, 9, 49, 64
3, 99152, Note_off_c, 9, 59, 64
3, 99328, Note_on_c, 9, 59, 20
3, 99328, Note_on_c, 9, 70, 20
3, 99408, Note_off_c, 9, 70, 64
3, 99408, Note_off_c, 9, 59, 64
3, 99456, Note_on_c, 9, 59, 80
3, 99456, Note_on_c, 9, 42, 70
3, 99536, Note_off_c, 9, 42, 64
3, 99536, Note_off_c, 9, 59, 64
3, 99712, Note_on_c, 9, 59, 60
3, 99792, Note_off_c, 9, 59, 64
3, 99840, Note_on_c, 9, 59, 80
3, 99840, Note_on_c, 9, 42, 70
3, 99840, Note_on_c, 9, 37, 50
3, 99920, Note_off_c, 9, 37, 64
3, 99920, Note_off_c, 9, 42, 64
3, 99920, Note_off_c, 9, 59, 64
3, 100096, Note_on_c, 9, 59, 20
3, 100176, Note_off_c, 9, 59, 64
3, 100224, Note_on_c, 9, 59, 80
3, 100304, Note_off_c, 9, 59, 64
3, 100502, Note_on_c, 9, 59, 40
3, 100582, Note_off_c, 9, 59, 64
3, 100608, Note_on_c, 9, 59, 80
3, 100608, Note_on_c, 9, 42, 50
3, 100688, Note_off_c, 9, 42, 64
3, 100688, Note_off_c, 9, 59, 64
3, 100886, Note_on_c, 9, 59, 60
3, 100966, Note_off_c, 9, 59, 64
3, 100992, Note_on_c, 9, 59, 80
3, 100992, Note_on_c, 9, 42, 60
3, 100992, Note_on_c, 9, 37, 50
3, 101072, Note_off_c, 9, 37, 64
3, 101072, Note_off_c, 9, 42, 64
3, 101072, Note_off_c, 9, 59, 64
3, 101270, Note_on_c, 9, 59, 50
3, 101350, Note_off_c, 9, 59, 64
3, 101376, Note_on_c, 9, 59, 80
3, 101456, Note_off_c, 9, 59, 64
3, 101632, Note_on_c, 9, 59, 54
3, 101712, Note_off_c, 9, 59, 64
3, 101760, Note_on_c, 9, 59, 80
3, 101760, Note_on_c, 9, 42, 70
3, 101840, Note_off_c, 9, 42, 64
3, 101840, Note_off_c, 9, 59, 64
3, 102016, Note_on_c, 9, 59, 60
3, 102096, Note_off_c, 9, 59, 64
3, 102144, Note_on_c, 9, 59, 80
3, 102144, Note_on_c, 9, 42, 70
3, 102144, Note_on_c, 9, 37, 50
3, 102224, Note_off_c, 9, 37, 64
3, 102224, Note_off_c, 9, 42, 64
3, 102224, Note_off_c, 9, 59, 64
3, 102400, Note_on_c, 9, 59, 20
3, 102400, Note_on_c, 9, 70, 20
3, 102480, Note_off_c, 9, 70, 64
3, 102480, Note_off_c, 9, 59, 64
3, 102528, Note_on_c, 9, 59, 80
3, 102608, Note_off_c, 9, 59, 64
3, 102800, Note_on_c, 9, 59, 20
3, 102880, Note_off_c, 9, 59, 64
3, 102912, Note_on_c, 9, 59, 80
3, 102912, Note_on_c, 9, 42, 50
3, 102992, Note_off_c, 9, 42, 64
3, 102992, Note_off_c, 9, 59, 64
3, 103184, Note_on_c, 9, 59, 60
3, 103264, Note_off_c, 9, 59, 64
3, 103296, Note_on_c, 9, 59, 80
3, 103296, Note_on_c, 9, 42, 60
3, 103296, Note_on_c, 9, 37, 50
3, 103376, Note_off_c, 9, 37, 64
3, 103376, Note_off_c, 9, 42, 64
3, 103376, Note_off_c, 9, 59, 64
3, 103568, Note_on_c, 9, 59, 20
3, 103648, Note_off_c, 9, 59, 64
3, 103680, Note_on_c, 9, 59, 80
3, 103760, Note_off_c, 9, 59, 64
3, 103952, Note_on_c, 9, 59, 20
3, 104032, Note_off_c, 9, 59, 64
3, 104064, Note_on_c, 9, 59, 80
3, 104064, Note_on_c, 9, 42, 50
3, 104144, Note_off_c, 9, 42, 64
3, 104144, Note_off_c, 9, 59, 64
3, 104336, Note_on_c, 9, 59, 60
3, 104416, Note_off_c, 9, 59, 64
3, 104448, Note_on_c, 9, 59, 80
3, 104448, Note_on_c, 9, 42, 60
3, 104448, Note_on_c, 9, 37, 50
3, 104528, Note_off_c, 9, 37, 64
3, 104528, Note_off_c, 9, 42, 64
3, 104528, Note_off_c, 9, 59, 64
3, 104720, Note_on_c, 9, 59, 20
3, 104800, Note_off_c, 9, 59, 64
3, 104832, Note_on_c, 9, 59, 80
3, 104912, Note_off_c, 9, 59, 64
3, 105088, Note_on_c, 9, 59, 54
3, 105168, Note_off_c, 9, 59, 64
3, 105216, Note_on_c, 9, 59, 80
3, 105216, Note_on_c, 9, 42, 70
3, 105296, Note_off_c, 9, 42, 64
3, 105296, Note_off_c, 9, 59, 64
3, 105472, Note_on_c, 9, 59, 60
3, 105552, Note_off_c, 9, 59, 64
3, 105600, Note_on_c, 9, 59, 80
3, 105600, Note_on_c, 9, 42, 70
3, 105600, Note_on_c, 9, 37, 50
3, 105680, Note_off_c, 9, 37, 64
3, 105680, Note_off_c, 9, 42, 64
3, 105680, Note_off_c, 9, 59, 64
3, 105856, Note_on_c, 9, 59, 20
3, 105856, Note_on_c, 9, 70, 20
3, 105936, Note_off_c, 9, 70, 64
3, 105936, Note_off_c, 9, 59, 64
3, 105984, Note_on_c, 9, 59, 80
3, 106064, Note_off_c, 9, 59, 64
3, 106256, Note_on_c, 9, 59, 20
3, 106336, Note_off_c, 9, 59, 64
3, 106368, Note_on_c, 9, 59, 80
3, 106368, Note_on_c, 9, 42, 50
3, 106448, Note_off_c, 9, 42, 64
3, 106448, Note_off_c, 9, 59, 64
3, 106640, Note_on_c, 9, 59, 60
3, 106720, Note_off_c, 9, 59, 64
3, 106752, Note_on_c, 9, 59, 80
3, 106752, Note_on_c, 9, 42, 60
3, 106752, Note_on_c, 9, 37, 50
3, 106832, Note_off_c, 9, 37, 64
3, 106832, Note_off_c, 9, 42, 64
3, 106832, Note_off_c, 9, 59, 64
3, 107024, Note_on_c, 9, 59, 20
3, 107104, Note_off_c, 9, 59, 64
3, 107136, Note_on_c, 9, 59, 80
3, 107216, Note_off_c, 9, 59, 64
3, 107408, Note_on_c, 9, 59, 90
3, 107488, Note_off_c, 9, 59, 64
3, 107520, Note_on_c, 9, 42, 50
3, 107600, Note_off_c, 9, 42, 64
3, 107792, Note_on_c, 9, 59, 60
3, 107872, Note_off_c, 9, 59, 64
3, 107904, Note_on_c, 9, 59, 90
3, 107904, Note_on_c, 9, 42, 60
3, 107904, Note_on_c, 9, 37, 50
3, 107984, Note_off_c, 9, 37, 64
3, 107984, Note_off_c, 9, 42, 64
3, 107984, Note_off_c, 9, 59, 64
3, 108176, Note_on_c, 9, 59, 20
3, 108256, Note_off_c, 9, 59, 64
3, 108288, Note_on_c, 9, 59, 80
3, 108368, Note_off_c, 9, 59, 64
3, 108544, Note_on_c, 9, 59, 20
3, 108624, Note_off_c, 9, 59, 64
3, 108672, Note_on_c, 9, 59, 80
3, 108672, Note_on_c, 9, 42, 70
3, 108752, Note_off_c, 9, 42, 64
3, 108752, Note_off_c, 9, 59, 64
3, 108928, Note_on_c, 9, 59, 60
3, 109008, Note_off_c, 9, 59, 64
3, 109056, Note_on_c, 9, 59, 80
3, 109056, Note_on_c, 9, 42, 70
3, 109056, Note_on_c, 9, 37, 50
3, 109136, Note_off_c, 9, 37, 64
3, 109136, Note_off_c, 9, 42, 64
3, 109136, Note_off_c, 9, 59, 64
3, 109312, Note_on_c, 9, 59, 20
3, 109312, Note_on_c, 9, 70, 20
3, 109392, Note_off_c, 9, 70, 64
3, 109392, Note_off_c, 9, 59, 64
3, 109440, Note_on_c, 9, 59, 80
3, 109520, Note_off_c, 9, 59, 64
3, 109696, Note_on_c, 9, 59, 20
3, 109776, Note_off_c, 9, 59, 64
3, 109824, Note_on_c, 9, 59, 80
3, 109824, Note_on_c, 9, 42, 70
3, 109904, Note_off_c, 9, 42, 64
3, 109904, Note_off_c, 9, 59, 64
3, 110080, Note_on_c, 9, 59, 60
3, 110160, Note_off_c, 9, 59, 64
3, 110208, Note_on_c, 9, 59, 80
3, 110208, Note_on_c, 9, 42, 70
3, 110208, Note_on_c, 9, 37, 50
3, 110288, Note_off_c, 9, 37, 64
3, 110288, Note_off_c, 9, 42, 64
3, 110288, Note_off_c, 9, 59, 64
3, 110464, Note_on_c, 9, 59, 20
3, 110464, Note_on_c, 9, 70, 20
3, 110544, Note_off_c, 9, 70, 64
3, 110544, Note_off_c, 9, 59, 64
3, 110592, Note_on_c, 9, 59, 80
3, 110672, Note_off_c, 9, 59, 64
3, 110848, Note_on_c, 9, 59, 54
3, 110928, Note_off_c, 9, 59, 64
3, 110976, Note_on_c, 9, 59, 80
3, 110976, Note_on_c, 9, 42, 70
3, 111056, Note_off_c, 9, 42, 64
3, 111056, Note_off_c, 9, 59, 64
3, 111232, Note_on_c, 9, 59, 60
3, 111312, Note_off_c, 9, 59, 64
3, 111360, Note_on_c, 9, 59, 80
3, 111360, Note_on_c, 9, 42, 70
3, 111360, Note_on_c, 9, 37, 50
3, 111440, Note_off_c, 9, 37, 64
3, 111440, Note_off_c, 9, 42, 64
3, 111440, Note_off_c, 9, 59, 64
3, 111616, Note_on_c, 9, 59, 54
3, 111616, Note_on_c, 9, 70, 20
3, 111696, Note_off_c, 9, 70, 64
3, 111696, Note_off_c, 9, 59, 64
3, 111744, Note_on_c, 9, 59, 80
3, 111824, Note_off_c, 9, 59, 64
3, 112016, Note_on_c, 9, 59, 90
3, 112096, Note_off_c, 9, 59, 64
3, 112128, Note_on_c, 9, 42, 50
3, 112208, Note_off_c, 9, 42, 64
3, 112400, Note_on_c, 9, 59, 90
3, 112480, Note_off_c, 9, 59, 64
3, 112512, Note_on_c, 9, 59, 20
3, 112512, Note_on_c, 9, 42, 60
3, 112512, Note_on_c, 9, 37, 50
3, 112592, Note_off_c, 9, 37, 64
3, 112592, Note_off_c, 9, 42, 64
3, 112592, Note_off_c, 9, 59, 64
3, 112640, Note_on_c, 9, 59, 30
3, 112720, Note_off_c, 9, 59, 64
3, 112784, Note_on_c, 9, 59, 80
3, 112864, Note_off_c, 9, 59, 64
3, 112896, Note_on_c, 9, 59, 80
3, 112896, Note_on_c, 9, 49, 24
3, 112976, Note_off_c, 9, 49, 64
3, 112976, Note_off_c, 9, 59, 64
3, 113152, Note_on_c, 9, 59, 20
3, 113152, Note_on_c, 9, 70, 20
3, 113232, Note_off_c, 9, 70, 64
3, 113232, Note_off_c, 9, 59, 64
3, 113280, Note_on_c, 9, 59, 80
3, 113280, Note_on_c, 9, 42, 70
3, 113360, Note_off_c, 9, 42, 64
3, 113360, Note_off_c, 9, 59, 64
3, 113536, Note_on_c, 9, 59, 60
3, 113616, Note_off_c, 9, 59, 64
3, 113664, Note_on_c, 9, 59, 80
3, 113664, Note_on_c, 9, 42, 70
3, 113664, Note_on_c, 9, 37, 50
3, 113744, Note_off_c, 9, 37, 64
3, 113744, Note_off_c, 9, 42, 64
3, 113744, Note_off_c, 9, 59, 64
3, 113920, Note_on_c, 9, 59, 20
3, 114000, Note_off_c, 9, 59, 64
3, 114048, Note_on_c, 9, 59, 80
3, 114128, Note_off_c, 9, 59, 64
3, 114320, Note_on_c, 9, 59, 20
3, 114400, Note_off_c, 9, 59, 64
3, 114432, Note_on_c, 9, 59, 80
3, 114432, Note_on_c, 9, 42, 50
3, 114512, Note_off_c, 9, 42, 64
3, 114512, Note_off_c, 9, 59, 64
3, 114704, Note_on_c, 9, 59, 60
3, 114784, Note_off_c, 9, 59, 64
3, 114816, Note_on_c, 9, 59, 80
3, 114816, Note_on_c, 9, 42, 60
3, 114816, Note_on_c, 9, 37, 50
3, 114896, Note_off_c, 9, 37, 64
3, 114896, Note_off_c, 9, 42, 64
3, 114896, Note_off_c, 9, 59, 64
3, 115088, Note_on_c, 9, 59, 20
3, 115168, Note_off_c, 9, 59, 64
3, 115200, Note_on_c, 9, 59, 80
3, 115280, Note_off_c, 9, 59, 64
3, 115472, Note_on_c, 9, 59, 90
3, 115552, Note_off_c, 9, 59, 64
3, 115584, Note_on_c, 9, 42, 50
3, 115664, Note_off_c, 9, 42, 64
3, 115856, Note_on_c, 9, 59, 60
3, 115936, Note_off_c, 9, 59, 64
3, 115968, Note_on_c, 9, 59, 90
3, 115968, Note_on_c, 9, 42, 60
3, 115968, Note_on_c, 9, 37, 50
3, 116048, Note_off_c, 9, 37, 64
3, 116048, Note_off_c, 9, 42, 64
3, 116048, Note_off_c, 9, 59, 64
3, 116240, Note_on_c, 9, 59, 20
3, 116320, Note_off_c, 9, 59, 64
3, 116352, Note_on_c, 9, 59, 80
3, 116432, Note_off_c, 9, 59, 64
3, 116624, Note_on_c, 9, 59, 90
3, 116704, Note_off_c, 9, 59, 64
3, 116736, Note_on_c, 9, 42, 50
3, 116816, Note_off_c, 9, 42, 64
3, 117008, Note_on_c, 9, 59, 60
3, 117088, Note_off_c, 9, 59, 64
3, 117120, Note_on_c, 9, 59, 90
3, 117120, Note_on_c, 9, 42, 60
3, 117120, Note_on_c, 9, 37, 50
3, 117200, Note_off_c, 9, 37, 64
3, 117200, Note_off_c, 9, 42, 64
3, 117200, Note_off_c, 9, 59, 64
3, 117392, Note_on_c, 9, 59, 20
3, 117472, Note_off_c, 9, 59, 64
3, 117504, Note_on_c, 9, 59, 80
3, 117584, Note_off_c, 9, 59, 64
3, 117776, Note_on_c, 9, 59, 20
3, 117856, Note_off_c, 9, 59, 64
3, 117888, Note_on_c, 9, 59, 80
3, 117888, Note_on_c, 9, 42, 50
3, 117968, Note_off_c, 9, 42, 64
3, 117968, Note_off_c, 9, 59, 64
3, 118160, Note_on_c, 9, 59, 60
3, 118240, Note_off_c, 9, 59, 64
3, 118272, Note_on_c, 9, 59, 80
3, 118272, Note_on_c, 9, 42, 60
3, 118272, Note_on_c, 9, 37, 50
3, 118352, Note_off_c, 9, 37, 64
3, 118352, Note_off_c, 9, 42, 64
3, 118352, Note_off_c, 9, 59, 64
3, 118544, Note_on_c, 9, 59, 20
3, 118624, Note_off_c, 9, 59, 64
3, 118656, Note_on_c, 9, 59, 80
3, 118736, Note_off_c, 9, 59, 64
3, 118928, Note_on_c, 9, 59, 20
3, 119008, Note_off_c, 9, 59, 64
3, 119040, Note_on_c, 9, 59, 80
3, 119040, Note_on_c, 9, 42, 50
3, 119120, Note_off_c, 9, 42, 64
3, 119120, Note_off_c, 9, 59, 64
3, 119312, Note_on_c, 9, 59, 60
3, 119392, Note_off_c, 9, 59, 64
3, 119424, Note_on_c, 9, 59, 80
3, 119424, Note_on_c, 9, 42, 60
3, 119424, Note_on_c, 9, 37, 50
3, 119504, Note_off_c, 9, 37, 64
3, 119504, Note_off_c, 9, 42, 64
3, 119504, Note_off_c, 9, 59, 64
3, 119696, Note_on_c, 9, 59, 20
3, 119776, Note_off_c, 9, 59, 64
3, 119808, Note_on_c, 9, 59, 80
3, 119888, Note_off_c, 9, 59, 64
3, 120080, Note_on_c, 9, 59, 20
3, 120160, Note_off_c, 9, 59, 64
3, 120192, Note_on_c, 9, 59, 80
3, 120192, Note_on_c, 9, 42, 50
3, 120272, Note_off_c, 9, 42, 64
3, 120272, Note_off_c, 9, 59, 64
3, 120464, Note_on_c, 9, 59, 60
3, 120544, Note_off_c, 9, 59, 64
3, 120576, Note_on_c, 9, 59, 80
3, 120576, Note_on_c, 9, 42, 60
3, 120576, Note_on_c, 9, 37, 50
3, 120656, Note_off_c, 9, 37, 64
3, 120656, Note_off_c, 9, 42, 64
3, 120656, Note_off_c, 9, 59, 64
3, 120848, Note_on_c, 9, 59, 20
3, 120928, Note_off_c, 9, 59, 64
3, 120960, Note_on_c, 9, 59, 90
3, 121040, Note_off_c, 9, 59, 64
3, 121238, Note_on_c, 9, 59, 30
3, 121318, Note_off_c, 9, 59, 64
3, 121344, Note_on_c, 9, 42, 50
3, 121424, Note_off_c, 9, 42, 64
3, 121622, Note_on_c, 9, 59, 90
3, 121702, Note_off_c, 9, 59, 64
3, 121728, Note_on_c, 9, 42, 60
3, 121728, Note_on_c, 9, 37, 50
3, 121808, Note_off_c, 9, 37, 64
3, 121808, Note_off_c, 9, 42, 64
3, 122006, Note_on_c, 9, 59, 80
3, 122086, Note_off_c, 9, 59, 64
3, 122112, Note_on_c, 9, 59, 80
3, 122192, Note_off_c, 9, 59, 64
3, 122384, Note_on_c, 9, 59, 20
3, 122464, Note_off_c, 9, 59, 64
3, 122496, Note_on_c, 9, 59, 80
3, 122496, Note_on_c, 9, 42, 50
3, 122576, Note_off_c, 9, 42, 64
3, 122576, Note_off_c, 9, 59, 64
3, 122768, Note_on_c, 9, 59, 60
3, 122848, Note_off_c, 9, 59, 64
3, 122880, Note_on_c, 9, 59, 80
3, 122880, Note_on_c, 9, 42, 60
3, 122880, Note_on_c, 9, 37, 50
3, 122960, Note_off_c, 9, 37, 64
3, 122960, Note_off_c, 9, 42, 64
3, 122960, Note_off_c, 9, 59, 64
3, 123152, Note_on_c, 9, 59, 20
3, 123232, Note_off_c, 9, 59, 64
3, 123264, Note_on_c, 9, 59, 80
3, 123344, Note_off_c, 9, 59, 64
3, 123536, Note_on_c, 9, 59, 90
3, 123616, Note_off_c, 9, 59, 64
3, 123648, Note_on_c, 9, 42, 50
3, 123728, Note_off_c, 9, 42, 64
3, 123920, Note_on_c, 9, 59, 60
3, 124000, Note_off_c, 9, 59, 64
3, 124032, Note_on_c, 9, 59, 90
3, 124032, Note_on_c, 9, 42, 60
3, 124032, Note_on_c, 9, 37, 50
3, 124112, Note_off_c, 9, 37, 64
3, 124112, Note_off_c, 9, 42, 64
3, 124112, Note_off_c, 9, 59, 64
3, 124304, Note_on_c, 9, 59, 20
3, 124384, Note_off_c, 9, 59, 64
3, 124416, Note_on_c, 9, 59, 80
3, 124496, Note_off_c, 9, 59, 64
3, 124672, Note_on_c, 9, 59, 54
3, 124752, Note_off_c, 9, 59, 64
3, 124800, Note_on_c, 9, 59, 80
3, 124800, Note_on_c, 9, 42, 70
3, 124880, Note_off_c, 9, 42, 64
3, 124880, Note_off_c, 9, 59, 64
3, 125056, Note_on_c, 9, 59, 60
3, 125136, Note_off_c, 9, 59, 64
3, 125184, Note_on_c, 9, 59, 80
3, 125184, Note_on_c, 9, 42, 70
3, 125184, Note_on_c, 9, 37, 50
3, 125264, Note_off_c, 9, 37, 64
3, 125264, Note_off_c, 9, 42, 64
3, 125264, Note_off_c, 9, 59, 64
3, 125440, Note_on_c, 9, 59, 20
3, 125440, Note_on_c, 9, 70, 20
3, 125520, Note_off_c, 9, 70, 64
3, 125520, Note_off_c, 9, 59, 64
3, 125568, Note_on_c, 9, 59, 80
3, 125648, Note_off_c, 9, 59, 64
3, 125840, Note_on_c, 9, 59, 90
3, 125920, Note_off_c, 9, 59, 64
3, 125952, Note_on_c, 9, 42, 50
3, 126032, Note_off_c, 9, 42, 64
3, 126224, Note_on_c, 9, 59, 60
3, 126304, Note_off_c, 9, 59, 64
3, 126336, Note_on_c, 9, 59, 90
3, 126336, Note_on_c, 9, 42, 60
3, 126336, Note_on_c, 9, 37, 50
3, 126416, Note_off_c, 9, 37, 64
3, 126416, Note_off_c, 9, 42, 64
3, 126416, Note_off_c, 9, 59, 64
3, 126464, Note_on_c, 9, 59, 50
3, 126544, Note_off_c, 9, 59, 64
3, 126608, Note_on_c, 9, 59, 70
3, 126688, Note_off_c, 9, 59, 64
3, 126720, Note_on_c, 9, 59, 80
3, 126720, Note_on_c, 9, 49, 24
3, 126800, Note_off_c, 9, 49, 64
3, 126800, Note_off_c, 9, 59, 64
3, 126976, Note_on_c, 9, 59, 20
3, 126976, Note_on_c, 9, 70, 20
3, 127056, Note_off_c, 9, 70, 64
3, 127056, Note_off_c, 9, 59, 64
3, 127104, Note_on_c, 9, 59, 80
3, 127104, Note_on_c, 9, 42, 70
3, 127184, Note_off_c, 9, 42, 64
3, 127184, Note_off_c, 9, 59, 64
3, 127360, Note_on_c, 9, 59, 60
3, 127440, Note_off_c, 9, 59, 64
3, 127488, Note_on_c, 9, 59, 80
3, 127488, Note_on_c, 9, 42, 70
3, 127488, Note_on_c, 9, 37, 50
3, 127568, Note_off_c, 9, 37, 64
3, 127568, Note_off_c, 9, 42, 64
3, 127568, Note_off_c, 9, 59, 64
3, 127744, Note_on_c, 9, 59, 20
3, 127824, Note_off_c, 9, 59, 64
3, 127872, Note_on_c, 9, 59, 80
3, 127952, Note_off_c, 9, 59, 64
3, 128144, Note_on_c, 9, 59, 20
3, 128224, Note_off_c, 9, 59, 64
3, 128256, Note_on_c, 9, 59, 80
3, 128256, Note_on_c, 9, 42, 50
3, 128336, Note_off_c, 9, 42, 64
3, 128336, Note_off_c, 9, 59, 64
3, 128528, Note_on_c, 9, 59, 60
3, 128608, Note_off_c, 9, 59, 64
3, 128640, Note_on_c, 9, 59, 80
3, 128640, Note_on_c, 9, 42, 60
3, 128640, Note_on_c, 9, 37, 50
3, 128720, Note_off_c, 9, 37, 64
3, 128720, Note_off_c, 9, 42, 64
3, 128720, Note_off_c, 9, 59, 64
3, 128912, Note_on_c, 9, 59, 20
3, 128992, Note_off_c, 9, 59, 64
3, 129024, Note_on_c, 9, 59, 80
3, 129104, Note_off_c, 9, 59, 64
3, 129296, Note_on_c, 9, 59, 90
3, 129376, Note_off_c, 9, 59, 64
3, 129408, Note_on_c, 9, 42, 50
3, 129488, Note_off_c, 9, 42, 64
3, 129680, Note_on_c, 9, 59, 60
3, 129760, Note_off_c, 9, 59, 64
3, 129792, Note_on_c, 9, 59, 90
3, 129792, Note_on_c, 9, 42, 60
3, 129792, Note_on_c, 9, 37, 50
3, 129872, Note_off_c, 9, 37, 64
3, 129872, Note_off_c, 9, 42, 64
3, 129872, Note_off_c, 9, 59, 64
3, 130064, Note_on_c, 9, 59, 20
3, 130144, Note_off_c, 9, 59, 64
3, 130176, Note_on_c, 9, 59, 80
3, 130256, Note_off_c, 9, 59, 64
3, 130454, Note_on_c, 9, 59, 40
3, 130534, Note_off_c, 9, 59, 64
3, 130560, Note_on_c, 9, 59, 80
3, 130560, Note_on_c, 9, 42, 50
3, 130640, Note_off_c, 9, 42, 64
3, 130640, Note_off_c, 9, 59, 64
3, 130838, Note_on_c, 9, 59, 60
3, 130918, Note_off_c, 9, 59, 64
3, 130944, Note_on_c, 9, 59, 80
3, 130944, Note_on_c, 9, 42, 60
3, 130944, Note_on_c, 9, 37, 50
3, 131024, Note_off_c, 9, 37, 64
3, 131024, Note_off_c, 9, 42, 64
3, 131024, Note_off_c, 9, 59, 64
3, 131222, Note_on_c, 9, 59, 50
3, 131302, Note_off_c, 9, 59, 64
3, 131328, Note_on_c, 9, 59, 80
3, 131408, Note_off_c, 9, 59, 64
3, 131606, Note_on_c, 9, 59, 40
3, 131686, Note_off_c, 9, 59, 64
3, 131712, Note_on_c, 9, 59, 80
3, 131712, Note_on_c, 9, 42, 50
3, 131792, Note_off_c, 9, 42, 64
3, 131792, Note_off_c, 9, 59, 64
3, 131990, Note_on_c, 9, 59, 60
3, 132070, Note_off_c, 9, 59, 64
3, 132096, Note_on_c, 9, 59, 80
3, 132096, Note_on_c, 9, 42, 60
3, 132096, Note_on_c, 9, 37, 50
3, 132176, Note_off_c, 9, 37, 64
3, 132176, Note_off_c, 9, 42, 64
3, 132176, Note_off_c, 9, 59, 64
3, 132374, Note_on_c, 9, 59, 50
3, 132454, Note_off_c, 9, 59, 64
3, 132480, Note_on_c, 9, 59, 90
3, 132560, Note_off_c, 9, 59, 64
3, 132758, Note_on_c, 9, 59, 30
3, 132838, Note_off_c, 9, 59, 64
3, 132864, Note_on_c, 9, 42, 50
3, 132944, Note_off_c, 9, 42, 64
3, 133142, Note_on_c, 9, 59, 90
3, 133222, Note_off_c, 9, 59, 64
3, 133248, Note_on_c, 9, 42, 60
3, 133248, Note_on_c, 9, 37, 50
3, 133328, Note_off_c, 9, 37, 64
3, 133328, Note_off_c, 9, 42, 64
3, 133526, Note_on_c, 9, 59, 80
3, 133606, Note_off_c, 9, 59, 64
3, 133632, Note_on_c, 9, 59, 80
3, 133712, Note_off_c, 9, 59, 64
3, 133904, Note_on_c, 9, 59, 90
3, 133984, Note_off_c, 9, 59, 64
3, 134016, Note_on_c, 9, 42, 50
3, 134096, Note_off_c, 9, 42, 64
3, 134288, Note_on_c, 9, 59, 60
3, 134368, Note_off_c, 9, 59, 64
3, 134400, Note_on_c, 9, 59, 90
3, 134400, Note_on_c, 9, 42, 60
3, 134400, Note_on_c, 9, 37, 50
3, 134480, Note_off_c, 9, 37, 64
3, 134480, Note_off_c, 9, 42, 64
3, 134480, Note_off_c, 9, 59, 64
3, 134672, Note_on_c, 9, 59, 20
3, 134752, Note_off_c, 9, 59, 64
3, 134784, Note_on_c, 9, 59, 80
3, 134864, Note_off_c, 9, 59, 64
3, 135040, Note_on_c, 9, 59, 20
3, 135120, Note_off_c, 9, 59, 64
3, 135168, Note_on_c, 9, 59, 80
3, 135168, Note_on_c, 9, 42, 70
3, 135248, Note_off_c, 9, 42, 64
3, 135248, Note_off_c, 9, 59, 64
3, 135424, Note_on_c, 9, 59, 60
3, 135504, Note_off_c, 9, 59, 64
3, 135552, Note_on_c, 9, 59, 80
3, 135552, Note_on_c, 9, 42, 70
3, 135552, Note_on_c, 9, 37, 50
3, 135632, Note_off_c, 9, 37, 64
3, 135632, Note_off_c, 9, 42, 64
3, 135632, Note_off_c, 9, 59, 64
3, 135808, Note_on_c, 9, 59, 20
3, 135808, Note_on_c, 9, 70, 20
3, 135888, Note_off_c, 9, 70, 64
3, 135888, Note_off_c, 9, 59, 64
3, 135936, Note_on_c, 9, 59, 80
3, 136016, Note_off_c, 9, 59, 64
3, 136214, Note_on_c, 9, 59, 40
3, 136294, Note_off_c, 9, 59, 64
3, 136320, Note_on_c, 9, 59, 80
3, 136320, Note_on_c, 9, 42, 50
3, 136400, Note_off_c, 9, 42, 64
3, 136400, Note_off_c, 9, 59, 64
3, 136598, Note_on_c, 9, 59, 60
3, 136678, Note_off_c, 9, 59, 64
3, 136704, Note_on_c, 9, 59, 80
3, 136704, Note_on_c, 9, 42, 60
3, 136704, Note_on_c, 9, 37, 50
3, 136784, Note_off_c, 9, 37, 64
3, 136784, Note_off_c, 9, 42, 64
3, 136784, Note_off_c, 9, 59, 64
3, 136982, Note_on_c, 9, 59, 50
3, 137062, Note_off_c, 9, 59, 64
3, 137088, Note_on_c, 9, 59, 90
3, 137168, Note_off_c, 9, 59, 64
3, 137366, Note_on_c, 9, 59, 30
3, 137446, Note_off_c, 9, 59, 64
3, 137472, Note_on_c, 9, 42, 50
3, 137552, Note_off_c, 9, 42, 64
3, 137750, Note_on_c, 9, 59, 90
3, 137830, Note_off_c, 9, 59, 64
3, 137856, Note_on_c, 9, 42, 60
3, 137856, Note_on_c, 9, 37, 50
3, 137936, Note_off_c, 9, 37, 64
3, 137936, Note_off_c, 9, 42, 64
3, 138134, Note_on_c, 9, 59, 80
3, 138214, Note_off_c, 9, 59, 64
3, 138240, Note_on_c, 9, 59, 80
3, 138320, Note_off_c, 9, 59, 64
3, 138496, Note_on_c, 9, 59, 20
3, 138576, Note_off_c, 9, 59, 64
3, 138624, Note_on_c, 9, 59, 80
3, 138624, Note_on_c, 9, 42, 70
3, 138704, Note_off_c, 9, 42, 64
3, 138704, Note_off_c, 9, 59, 64
3, 138880, Note_on_c, 9, 59, 60
3, 138960, Note_off_c, 9, 59, 64
3, 139008, Note_on_c, 9, 59, 80
3, 139008, Note_on_c, 9, 42, 70
3, 139008, Note_on_c, 9, 37, 50
3, 139088, Note_off_c, 9, 37, 64
3, 139088, Note_off_c, 9, 42, 64
3, 139088, Note_off_c, 9, 59, 64
3, 139264, Note_on_c, 9, 59, 20
3, 139264, Note_on_c, 9, 70, 20
3, 139344, Note_off_c, 9, 70, 64
3, 139344, Note_off_c, 9, 59, 64
3, 139392, Note_on_c, 9, 59, 80
3, 139472, Note_off_c, 9, 59, 64
3, 139664, Note_on_c, 9, 59, 90
3, 139744, Note_off_c, 9, 59, 64
3, 139776, Note_on_c, 9, 42, 50
3, 139856, Note_off_c, 9, 42, 64
3, 140048, Note_on_c, 9, 59, 60
3, 140128, Note_off_c, 9, 59, 64
3, 140160, Note_on_c, 9, 59, 90
3, 140160, Note_on_c, 9, 42, 60
3, 140160, Note_on_c, 9, 37, 50
3, 140240, Note_off_c, 9, 37, 64
3, 140240, Note_off_c, 9, 42, 64
3, 140240, Note_off_c, 9, 59, 64
3, 140288, Note_on_c, 9, 59, 50
3, 140368, Note_off_c, 9, 59, 64
3, 140432, Note_on_c, 9, 59, 70
3, 140512, Note_off_c, 9, 59, 64
3, 140544, Note_on_c, 9, 59, 80
3, 140624, Note_off_c, 9, 59, 64
3, 140800, Note_on_c, 9, 59, 20
3, 140880, Note_off_c, 9, 59, 64
3, 140928, Note_on_c, 9, 59, 80
3, 140928, Note_on_c, 9, 42, 70
3, 141008, Note_off_c, 9, 42, 64
3, 141008, Note_off_c, 9, 59, 64
3, 141184, Note_on_c, 9, 59, 60
3, 141264, Note_off_c, 9, 59, 64
3, 141312, Note_on_c, 9, 59, 80
3, 141312, Note_on_c, 9, 42, 70
3, 141312, Note_on_c, 9, 37, 50
3, 141392, Note_off_c, 9, 37, 64
3, 141392, Note_off_c, 9, 42, 64
3, 141392, Note_off_c, 9, 59, 64
3, 141568, Note_on_c, 9, 59, 54
3, 141568, Note_on_c, 9, 70, 20
3, 141648, Note_off_c, 9, 70, 64
3, 141648, Note_off_c, 9, 59, 64
3, 141696, Note_on_c, 9, 59, 90
3, 141776, Note_off_c, 9, 59, 64
3, 141974, Note_on_c, 9, 59, 30
3, 142054, Note_off_c, 9, 59, 64
3, 142080, Note_on_c, 9, 42, 50
3, 142160, Note_off_c, 9, 42, 64
3, 142358, Note_on_c, 9, 59, 90
3, 142438, Note_off_c, 9, 59, 64
3, 142464, Note_on_c, 9, 42, 60
3, 142464, Note_on_c, 9, 37, 50
3, 142544, Note_off_c, 9, 37, 64
3, 142544, Note_off_c, 9, 42, 64
3, 142742, Note_on_c, 9, 59, 80
3, 142822, Note_off_c, 9, 59, 64
3, 142848, Note_on_c, 9, 59, 80
3, 142928, Note_off_c, 9, 59, 64
3, 143120, Note_on_c, 9, 59, 90
3, 143200, Note_off_c, 9, 59, 64
3, 143232, Note_on_c, 9, 42, 50
3, 143312, Note_off_c, 9, 42, 64
3, 143504, Note_on_c, 9, 59, 60
3, 143584, Note_off_c, 9, 59, 64
3, 143616, Note_on_c, 9, 59, 90
3, 143616, Note_on_c, 9, 42, 60
3, 143616, Note_on_c, 9, 37, 50
3, 143696, Note_off_c, 9, 37, 64
3, 143696, Note_off_c, 9, 42, 64
3, 143696, Note_off_c, 9, 59, 64
3, 143888, Note_on_c, 9, 59, 20
3, 143968, Note_off_c, 9, 59, 64
3, 144000, Note_on_c, 9, 59, 80
3, 144080, Note_off_c, 9, 59, 64
3, 144272, Note_on_c, 9, 59, 20
3, 144352, Note_off_c, 9, 59, 64
3, 144384, Note_on_c, 9, 59, 80
3, 144384, Note_on_c, 9, 42, 50
3, 144464, Note_off_c, 9, 42, 64
3, 144464, Note_off_c, 9, 59, 64
3, 144656, Note_on_c, 9, 59, 60
3, 144736, Note_off_c, 9, 59, 64
3, 144768, Note_on_c, 9, 59, 80
3, 144768, Note_on_c, 9, 42, 60
3, 144768, Note_on_c, 9, 37, 50
3, 144848, Note_off_c, 9, 37, 64
3, 144848, Note_off_c, 9, 42, 64
3, 144848, Note_off_c, 9, 59, 64
3, 145040, Note_on_c, 9, 59, 20
3, 145120, Note_off_c, 9, 59, 64
3, 145152, Note_on_c, 9, 59, 80
3, 145232, Note_off_c, 9, 59, 64
3, 145430, Note_on_c, 9, 59, 40
3, 145510, Note_off_c, 9, 59, 64
3, 145536, Note_on_c, 9, 59, 80
3, 145536, Note_on_c, 9, 42, 50
3, 145616, Note_off_c, 9, 42, 64
3, 145616, Note_off_c, 9, 59, 64
3, 145814, Note_on_c, 9, 59, 60
3, 145894, Note_off_c, 9, 59, 64
3, 145920, Note_on_c, 9, 59, 80
3, 145920, Note_on_c, 9, 42, 60
3, 145920, Note_on_c, 9, 37, 50
3, 146000, Note_off_c, 9, 37, 64
3, 146000, Note_off_c, 9, 42, 64
3, 146000, Note_off_c, 9, 59, 64
3, 146198, Note_on_c, 9, 59, 50
3, 146278, Note_off_c, 9, 59, 64
3, 146304, Note_on_c, 9, 59, 80
3, 146384, Note_off_c, 9, 59, 64
3, 146576, Note_on_c, 9, 59, 90
3, 146656, Note_off_c, 9, 59, 64
3, 146688, Note_on_c, 9, 42, 50
3, 146768, Note_off_c, 9, 42, 64
3, 146960, Note_on_c, 9, 59, 60
3, 147040, Note_off_c, 9, 59, 64
3, 147072, Note_on_c, 9, 59, 90
3, 147072, Note_on_c, 9, 42, 60
3, 147072, Note_on_c, 9, 37, 50
3, 147152, Note_off_c, 9, 37, 64
3, 147152, Note_off_c, 9, 42, 64
3, 147152, Note_off_c, 9, 59, 64
3, 147200, Note_on_c, 9, 59, 50
3, 147280, Note_off_c, 9, 59, 64
3, 147344, Note_on_c, 9, 59, 70
3, 147424, Note_off_c, 9, 59, 64
3, 147456, Note_on_c, 9, 59, 80
3, 147536, Note_off_c, 9, 59, 64
3, 147728, Note_on_c, 9, 59, 90
3, 147808, Note_off_c, 9, 59, 64
3, 147840, Note_on_c, 9, 42, 50
3, 147920, Note_off_c, 9, 42, 64
3, 148112, Note_on_c, 9, 59, 60
3, 148192, Note_off_c, 9, 59, 64
3, 148224, Note_on_c, 9, 59, 90
3, 148224, Note_on_c, 9, 42, 60
3, 148224, Note_on_c, 9, 37, 50
3, 148304, Note_off_c, 9, 37, 64
3, 148304, Note_off_c, 9, 42, 64
3, 148304, Note_off_c, 9, 59, 64
3, 148496, Note_on_c, 9, 59, 20
3, 148576, Note_off_c, 9, 59, 64
3, 148608, Note_on_c, 9, 59, 80
3, 148688, Note_off_c, 9, 59, 64
3, 148886, Note_on_c, 9, 59, 40
3, 148966, Note_off_c, 9, 59, 64
3, 148992, Note_on_c, 9, 59, 80
3, 148992, Note_on_c, 9, 42, 50
3, 149072, Note_off_c, 9, 42, 64
3, 149072, Note_off_c, 9, 59, 64
3, 149270, Note_on_c, 9, 59, 60
3, 149350, Note_off_c, 9, 59, 64
3, 149376, Note_on_c, 9, 59, 80
3, 149376, Note_on_c, 9, 42, 60
3, 149376, Note_on_c, 9, 37, 50
3, 149456, Note_off_c, 9, 37, 64
3, 149456, Note_off_c, 9, 42, 64
3, 149456, Note_off_c, 9, 59, 64
3, 149654, Note_on_c, 9, 59, 50
3, 149734, Note_off_c, 9, 59, 64
3, 149760, Note_on_c, 9, 59, 80
3, 149840, Note_off_c, 9, 59, 64
3, 150032, Note_on_c, 9, 59, 90
3, 150112, Note_off_c, 9, 59, 64
3, 150144, Note_on_c, 9, 42, 50
3, 150224, Note_off_c, 9, 42, 64
3, 150416, Note_on_c, 9, 59, 60
3, 150496, Note_off_c, 9, 59, 64
3, 150528, Note_on_c, 9, 59, 90
3, 150528, Note_on_c, 9, 42, 60
3, 150528, Note_on_c, 9, 37, 50
3, 150608, Note_off_c, 9, 37, 64
3, 150608, Note_off_c, 9, 42, 64
3, 150608, Note_off_c, 9, 59, 64
3, 150800, Note_on_c, 9, 59, 20
3, 150880, Note_off_c, 9, 59, 64
3, 150912, Note_on_c, 9, 59, 80
3, 150992, Note_off_c, 9, 59, 64
3, 151184, Note_on_c, 9, 59, 20
3, 151264, Note_off_c, 9, 59, 64
3, 151296, Note_on_c, 9, 59, 80
3, 151296, Note_on_c, 9, 42, 50
3, 151376, Note_off_c, 9, 42, 64
3, 151376, Note_off_c, 9, 59, 64
3, 151568, Note_on_c, 9, 59, 60
3, 151648, Note_off_c, 9, 59, 64
3, 151680, Note_on_c, 9, 59, 80
3, 151680, Note_on_c, 9, 42, 60
3, 151680, Note_on_c, 9, 37, 50
3, 151760, Note_off_c, 9, 37, 64
3, 151760, Note_off_c, 9, 42, 64
3, 151760, Note_off_c, 9, 59, 64
3, 151952, Note_on_c, 9, 59, 20
3, 152032, Note_off_c, 9, 59, 64
3, 152064, Note_on_c, 9, 59, 80
3, 152144, Note_off_c, 9, 59, 64
3, 152336, Note_on_c, 9, 59, 90
3, 152416, Note_off_c, 9, 59, 64
3, 152448, Note_on_c, 9, 42, 50
3, 152528, Note_off_c, 9, 42, 64
3, 152720, Note_on_c, 9, 59, 60
3, 152800, Note_off_c, 9, 59, 64
3, 152832, Note_on_c, 9, 59, 90
3, 152832, Note_on_c, 9, 42, 60
3, 152832, Note_on_c, 9, 37, 50
3, 152912, Note_off_c, 9, 37, 64
3, 152912, Note_off_c, 9, 42, 64
3, 152912, Note_off_c, 9, 59, 64
3, 153104, Note_on_c, 9, 59, 20
3, 153184, Note_off_c, 9, 59, 64
3, 153216, Note_on_c, 9, 59, 80
3, 153296, Note_off_c, 9, 59, 64
3, 153488, Note_on_c, 9, 59, 90
3, 153568, Note_off_c, 9, 59, 64
3, 153600, Note_on_c, 9, 42, 50
3, 153680, Note_off_c, 9, 42, 64
3, 153872, Note_on_c, 9, 59, 60
3, 153952, Note_off_c, 9, 59, 64
3, 153984, Note_on_c, 9, 59, 90
3, 153984, Note_on_c, 9, 42, 60
3, 153984, Note_on_c, 9, 37, 50
3, 154064, Note_off_c, 9, 37, 64
3, 154064, Note_off_c, 9, 42, 64
3, 154064, Note_off_c, 9, 59, 64
3, 154112, Note_on_c, 9, 59, 50
3, 154192, Note_off_c, 9, 59, 64
3, 154256, Note_on_c, 9, 59, 70
3, 154336, Note_off_c, 9, 59, 64
3, 154368, Note_on_c, 9, 59, 80
3, 154368, Note_on_c, 9, 49, 24
3, 154448, Note_off_c, 9, 49, 64
3, 154448, Note_off_c, 9, 59, 64
3, 154624, Note_on_c, 9, 59, 20
3, 154624, Note_on_c, 9, 70, 20
3, 154704, Note_off_c, 9, 70, 64
3, 154704, Note_off_c, 9, 59, 64
3, 154752, Note_on_c, 9, 59, 80
3, 154752, Note_on_c, 9, 42, 70
3, 154832, Note_off_c, 9, 42, 64
3, 154832, Note_off_c, 9, 59, 64
3, 155008, Note_on_c, 9, 59, 60
3, 155088, Note_off_c, 9, 59, 64
3, 155136, Note_on_c, 9, 59, 80
3, 155136, Note_on_c, 9, 42, 70
3, 155136, Note_on_c, 9, 37, 50
3, 155216, Note_off_c, 9, 37, 64
3, 155216, Note_off_c, 9, 42, 64
3, 155216, Note_off_c, 9, 59, 64
3, 155392, Note_on_c, 9, 59, 20
3, 155472, Note_off_c, 9, 59, 64
3, 155520, Note_on_c, 9, 59, 80
3, 155600, Note_off_c, 9, 59, 64
3, 155792, Note_on_c, 9, 59, 90
3, 155872, Note_off_c, 9, 59, 64
3, 155904, Note_on_c, 9, 42, 50
3, 155984, Note_off_c, 9, 42, 64
3, 156176, Note_on_c, 9, 59, 60
3, 156256, Note_off_c, 9, 59, 64
3, 156288, Note_on_c, 9, 59, 90
3, 156288, Note_on_c, 9, 42, 60
3, 156288, Note_on_c, 9, 37, 50
3, 156368, Note_off_c, 9, 37, 64
3, 156368, Note_off_c, 9, 42, 64
3, 156368, Note_off_c, 9, 59, 64
3, 156560, Note_on_c, 9, 59, 20
3, 156640, Note_off_c, 9, 59, 64
3, 156672, Note_on_c, 9, 59, 80
3, 156752, Note_off_c, 9, 59, 64
3, 156950, Note_on_c, 9, 59, 40
3, 157030, Note_off_c, 9, 59, 64
3, 157056, Note_on_c, 9, 59, 80
3, 157056, Note_on_c, 9, 42, 50
3, 157136, Note_off_c, 9, 42, 64
3, 157136, Note_off_c, 9, 59, 64
3, 157334, Note_on_c, 9, 59, 60
3, 157414, Note_off_c, 9, 59, 64
3, 157440, Note_on_c, 9, 59, 80
3, 157440, Note_on_c, 9, 42, 60
3, 157440, Note_on_c, 9, 37, 50
3, 157520, Note_off_c, 9, 37, 64
3, 157520, Note_off_c, 9, 42, 64
3, 157520, Note_off_c, 9, 59, 64
3, 157718, Note_on_c, 9, 59, 50
3, 157798, Note_off_c, 9, 59, 64
3, 157824, Note_on_c, 9, 59, 90
3, 157904, Note_off_c, 9, 59, 64
3, 158102, Note_on_c, 9, 59, 30
3, 158182, Note_off_c, 9, 59, 64
3, 158208, Note_on_c, 9, 42, 50
3, 158288, Note_off_c, 9, 42, 64
3, 158486, Note_on_c, 9, 59, 90
3, 158566, Note_off_c, 9, 59, 64
3, 158592, Note_on_c, 9, 42, 60
3, 158592, Note_on_c, 9, 37, 50
3, 158672, Note_off_c, 9, 37, 64
3, 158672, Note_off_c, 9, 42, 64
3, 158870, Note_on_c, 9, 59, 80
3, 158950, Note_off_c, 9, 59, 64
3, 158976, Note_on_c, 9, 59, 80
3, 159056, Note_off_c, 9, 59, 64
3, 159232, Note_on_c, 9, 59, 54
3, 159312, Note_off_c, 9, 59, 64
3, 159360, Note_on_c, 9, 59, 80
3, 159360, Note_on_c, 9, 42, 70
3, 159440, Note_off_c, 9, 42, 64
3, 159440, Note_off_c, 9, 59, 64
3, 159616, Note_on_c, 9, 59, 60
3, 159696, Note_off_c, 9, 59, 64
3, 159744, Note_on_c, 9, 59, 80
3, 159744, Note_on_c, 9, 42, 70
3, 159744, Note_on_c, 9, 37, 50
3, 159824, Note_off_c, 9, 37, 64
3, 159824, Note_off_c, 9, 42, 64
3, 159824, Note_off_c, 9, 59, 64
3, 160000, Note_on_c, 9, 59, 20
3, 160000, Note_on_c, 9, 70, 20
3, 160080, Note_off_c, 9, 70, 64
3, 160080, Note_off_c, 9, 59, 64
3, 160128, Note_on_c, 9, 59, 90
3, 160208, Note_off_c, 9, 59, 64
3, 160406, Note_on_c, 9, 59, 30
3, 160486, Note_off_c, 9, 59, 64
3, 160512, Note_on_c, 9, 42, 50
3, 160592, Note_off_c, 9, 42, 64
3, 160790, Note_on_c, 9, 59, 90
3, 160870, Note_off_c, 9, 59, 64
3, 160896, Note_on_c, 9, 42, 60
3, 160896, Note_on_c, 9, 37, 50
3, 160976, Note_off_c, 9, 37, 64
3, 160976, Note_off_c, 9, 42, 64
3, 161174, Note_on_c, 9, 59, 80
3, 161254, Note_off_c, 9, 59, 64
3, 161280, Note_on_c, 9, 59, 80
3, 161360, Note_off_c, 9, 59, 64
3, 161536, Note_on_c, 9, 59, 20
3, 161616, Note_off_c, 9, 59, 64
3, 161664, Note_on_c, 9, 59, 80
3, 161664, Note_on_c, 9, 42, 70
3, 161744, Note_off_c, 9, 42, 64
3, 161744, Note_off_c, 9, 59, 64
3, 161920, Note_on_c, 9, 59, 60
3, 162000, Note_off_c, 9, 59, 64
3, 162048, Note_on_c, 9, 59, 80
3, 162048, Note_on_c, 9, 42, 70
3, 162048, Note_on_c, 9, 37, 50
3, 162128, Note_off_c, 9, 37, 64
3, 162128, Note_off_c, 9, 42, 64
3, 162128, Note_off_c, 9, 59, 64
3, 162304, Note_on_c, 9, 59, 20
3, 162304, Note_on_c, 9, 70, 20
3, 162384, Note_off_c, 9, 70, 64
3, 162384, Note_off_c, 9, 59, 64
3, 162432, Note_on_c, 9, 59, 80
3, 162512, Note_off_c, 9, 59, 64
3, 162710, Note_on_c, 9, 59, 40
3, 162790, Note_off_c, 9, 59, 64
3, 162816, Note_on_c, 9, 59, 80
3, 162816, Note_on_c, 9, 42, 50
3, 162896, Note_off_c, 9, 42, 64
3, 162896, Note_off_c, 9, 59, 64
3, 163094, Note_on_c, 9, 59, 60
3, 163174, Note_off_c, 9, 59, 64
3, 163200, Note_on_c, 9, 59, 80
3, 163200, Note_on_c, 9, 42, 60
3, 163200, Note_on_c, 9, 37, 50
3, 163280, Note_off_c, 9, 37, 64
3, 163280, Note_off_c, 9, 42, 64
3, 163280, Note_off_c, 9, 59, 64
3, 163328, Note_on_c, 9, 59, 30
3, 163408, Note_off_c, 9, 59, 64
3, 163478, Note_on_c, 9, 59, 50
3, 163558, Note_off_c, 9, 59, 64
3, 163584, Note_on_c, 9, 59, 80
3, 163664, Note_off_c, 9, 59, 64
3, 163862, Note_on_c, 9, 59, 40
3, 163942, Note_off_c, 9, 59, 64
3, 163968, Note_on_c, 9, 59, 80
3, 163968, Note_on_c, 9, 42, 50
3, 164048, Note_off_c, 9, 42, 64
3, 164048, Note_off_c, 9, 59, 64
3, 164246, Note_on_c, 9, 59, 60
3, 164326, Note_off_c, 9, 59, 64
3, 164352, Note_on_c, 9, 59, 80
3, 164352, Note_on_c, 9, 42, 60
3, 164352, Note_on_c, 9, 37, 50
3, 164432, Note_off_c, 9, 37, 64
3, 164432, Note_off_c, 9, 42, 64
3, 164432, Note_off_c, 9, 59, 64
3, 164630, Note_on_c, 9, 59, 50
3, 164710, Note_off_c, 9, 59, 64
3, 164736, Note_on_c, 9, 59, 80
3, 164816, Note_off_c, 9, 59, 64
3, 165008, Note_on_c, 9, 59, 20
3, 165088, Note_off_c, 9, 59, 64
3, 165120, Note_on_c, 9, 59, 80
3, 165120, Note_on_c, 9, 42, 50
3, 165200, Note_off_c, 9, 42, 64
3, 165200, Note_off_c, 9, 59, 64
3, 165392, Note_on_c, 9, 59, 60
3, 165472, Note_off_c, 9, 59, 64
3, 165504, Note_on_c, 9, 59, 80
3, 165504, Note_on_c, 9, 42, 60
3, 165504, Note_on_c, 9, 37, 50
3, 165584, Note_off_c, 9, 37, 64
3, 165584, Note_off_c, 9, 42, 64
3, 165584, Note_off_c, 9, 59, 64
3, 165776, Note_on_c, 9, 59, 20
3, 165856, Note_off_c, 9, 59, 64
3, 165888, Note_on_c, 9, 59, 80
3, 165968, Note_off_c, 9, 59, 64
3, 166160, Note_on_c, 9, 59, 90
3, 166240, Note_off_c, 9, 59, 64
3, 166272, Note_on_c, 9, 42, 50
3, 166352, Note_off_c, 9, 42, 64
3, 166544, Note_on_c, 9, 59, 60
3, 166624, Note_off_c, 9, 59, 64
3, 166656, Note_on_c, 9, 59, 90
3, 166656, Note_on_c, 9, 42, 60
3, 166656, Note_on_c, 9, 37, 50
3, 166736, Note_off_c, 9, 37, 64
3, 166736, Note_off_c, 9, 42, 64
3, 166736, Note_off_c, 9, 59, 64
3, 166928, Note_on_c, 9, 59, 20
3, 167008, Note_off_c, 9, 59, 64
3, 167040, Note_on_c, 9, 59, 80
3, 167120, Note_off_c, 9, 59, 64
3, 167296, Note_on_c, 9, 59, 20
3, 167376, Note_off_c, 9, 59, 64
3, 167424, Note_on_c, 9, 59, 80
3, 167424, Note_on_c, 9, 42, 70
3, 167504, Note_off_c, 9, 42, 64
3, 167504, Note_off_c, 9, 59, 64
3, 167680, Note_on_c, 9, 59, 60
3, 167760, Note_off_c, 9, 59, 64
3, 167808, Note_on_c, 9, 59, 80
3, 167808, Note_on_c, 9, 42, 70
3, 167808, Note_on_c, 9, 37, 50
3, 167888, Note_off_c, 9, 37, 64
3, 167888, Note_off_c, 9, 42, 64
3, 167888, Note_off_c, 9, 59, 64
3, 168064, Note_on_c, 9, 59, 20
3, 168064, Note_on_c, 9, 70, 20
3, 168144, Note_off_c, 9, 70, 64
3, 168144, Note_off_c, 9, 59, 64
3, 168192, Note_on_c, 9, 59, 80
3, 168272, Note_off_c, 9, 59, 64
3, 169313, Marker_t, "End of pattern\000"
3, 169313, End_track
4, 0, Start_track
4, 0, Marker_t, "Start of pattern\000"
4, 0, Title_t, "Piano\000"
4, 0, Program_c, 2, 0
4, 0, Control_c, 2, 123, 0
4, 0, Control_c, 2, 91, 20
4, 0, Control_c, 2, 93, 0
4, 0, Control_c, 2, 64, 0
4, 85280, Note_on_c, 2, 68, 44
4, 85280, Note_on_c, 2, 65, 44
4, 85280, Note_on_c, 2, 61, 44
4, 85280, Note_on_c, 2, 70, 44
4, 85881, Note_off_c, 2, 70, 64
4, 85881, Note_off_c, 2, 61, 64
4, 85881, Note_off_c, 2, 65, 64
4, 85881, Note_off_c, 2, 68, 64
4, 85881, Note_on_c, 2, 56, 56
4, 85881, Note_on_c, 2, 70, 56
4, 85881, Note_on_c, 2, 61, 56
4, 85881, Note_on_c, 2, 65, 56
4, 86400, Note_off_c, 2, 65, 64
4, 86400, Note_off_c, 2, 61, 64
4, 86400, Note_off_c, 2, 70, 64
4, 86400, Note_off_c, 2, 56, 64
4, 86400, Note_on_c, 2, 61, 54
4, 86400, Note_on_c, 2, 65, 54
4, 86400, Note_on_c, 2, 54, 54
4, 86400, Note_on_c, 2, 70, 54
4, 87443, Note_on_c, 2, 63, 47
4, 87456, Note_off_c, 2, 70, 64
4, 87456, Note_off_c, 2, 54, 64
4, 87456, Note_off_c, 2, 65, 64
4, 87456, Note_off_c, 2, 61, 64
4, 87552, Note_off_c, 2, 63, 64
4, 87552, Note_on_c, 2, 58, 50
4, 87552, Note_on_c, 2, 61, 50
4, 87552, Note_on_c, 2, 65, 50
4, 89830, Note_off_c, 2, 65, 64
4, 89830, Note_off_c, 2, 61, 64
4, 89830, Note_off_c, 2, 58, 64
4, 89856, Note_on_c, 2, 61, 61
4, 89856, Note_on_c, 2, 63, 61
4, 89856, Note_on_c, 2, 54, 61
4, 89856, Note_on_c, 2, 70, 61
4, 91030, Note_off_c, 2, 70, 64
4, 91030, Note_off_c, 2, 54, 64
4, 91030, Note_off_c, 2, 63, 64
4, 91030, Note_off_c, 2, 61, 64
4, 91030, Note_on_c, 2, 66, 37
4, 91030, Note_on_c, 2, 63, 37
4, 91030, Note_on_c, 2, 61, 37
4, 91030, Note_on_c, 2, 70, 37
4, 91580, Note_off_c, 2, 70, 64
4, 91580, Note_off_c, 2, 61, 64
4, 91580, Note_off_c, 2, 63, 64
4, 91580, Note_off_c, 2, 66, 64
4, 91667, Note_on_c, 2, 61, 53
4, 91667, Note_on_c, 2, 63, 53
4, 91667, Note_on_c, 2, 54, 53
4, 91667, Note_on_c, 2, 70, 53
4, 92153, Note_off_c, 2, 70, 64
4, 92153, Note_off_c, 2, 54, 64
4, 92153, Note_off_c, 2, 63, 64
4, 92153, Note_off_c, 2, 61, 64
4, 92160, Note_on_c, 2, 56, 50
4, 92160, Note_on_c, 2, 70, 50
4, 92160, Note_on_c, 2, 61, 50
4, 92160, Note_on_c, 2, 65, 50
4, 94438, Note_off_c, 2, 65, 64
4, 94438, Note_off_c, 2, 61, 64
4, 94438, Note_off_c, 2, 70, 64
4, 94438, Note_off_c, 2, 56, 64
4, 94464, Note_on_c, 2, 63, 49
4, 94464, Note_on_c, 2, 61, 57
4, 94464, Note_on_c, 2, 54, 52
4, 95360, Note_on_c, 2, 65, 34
4, 95430, Note_off_c, 2, 63, 64
4, 95488, Note_off_c, 2, 65, 64
4, 95488, Note_on_c, 2, 66, 58
4, 95600, Note_off_c, 2, 66, 64
4, 95616, Note_off_c, 2, 54, 64
4, 95616, Note_off_c, 2, 61, 64
4, 95616, Note_on_c, 2, 51, 48
4, 95616, Note_on_c, 2, 67, 48
4, 95616, Note_on_c, 2, 57, 48
4, 95616, Note_on_c, 2, 62, 48
4, 95616, Note_on_c, 2, 59, 48
4, 96185, Note_off_c, 2, 59, 64
4, 96185, Note_off_c, 2, 62, 64
4, 96185, Note_off_c, 2, 57, 64
4, 96185, Note_off_c, 2, 67, 64
4, 96185, Note_off_c, 2, 51, 64
4, 96256, Note_on_c, 2, 51, 52
4, 96256, Note_on_c, 2, 67, 52
4, 96256, Note_on_c, 2, 57, 52
4, 96256, Note_on_c, 2, 62, 52
4, 96256, Note_on_c, 2, 59, 52
4, 96768, Note_off_c, 2, 59, 64
4, 96768, Note_off_c, 2, 62, 64
4, 96768, Note_off_c, 2, 57, 64
4, 96768, Note_off_c, 2, 67, 64
4, 96768, Note_off_c, 2, 51, 64
4, 96768, Note_on_c, 2, 61, 50
4, 96768, Note_on_c, 2, 65, 50
4, 96768, Note_on_c, 2, 55, 50
4, 96768, Note_on_c, 2, 72, 50
4, 97920, Note_off_c, 2, 72, 64
4, 97920, Note_off_c, 2, 55, 64
4, 97920, Note_off_c, 2, 65, 64
4, 97920, Note_off_c, 2, 61, 64
4, 97920, Note_on_c, 2, 51, 54
4, 97920, Note_on_c, 2, 67, 54
4, 97920, Note_on_c, 2, 57, 54
4, 97920, Note_on_c, 2, 62, 54
4, 98963, Note_on_c, 2, 65, 47
4, 98976, Note_off_c, 2, 62, 64
4, 98976, Note_off_c, 2, 57, 64
4, 98976, Note_off_c, 2, 67, 64
4, 98976, Note_off_c, 2, 51, 64
4, 99072, Note_off_c, 2, 65, 64
4, 99072, Note_on_c, 2, 56, 61
4, 99072, Note_on_c, 2, 58, 61
4, 99072, Note_on_c, 2, 61, 61
4, 99072, Note_on_c, 2, 65, 61
4, 99731, Note_on_c, 2, 52, 26
4, 99731, Note_on_c, 2, 53, 64
4, 99827, Note_off_c, 2, 52, 64
4, 100224, Note_off_c, 2, 53, 64
4, 100224, Note_off_c, 2, 65, 64
4, 100224, Note_off_c, 2, 61, 64
4, 100224, Note_off_c, 2, 58, 64
4, 100224, Note_off_c, 2, 56, 64
4, 100256, Note_on_c, 2, 66, 44
4, 100256, Note_on_c, 2, 63, 44
4, 100256, Note_on_c, 2, 61, 44
4, 100256, Note_on_c, 2, 70, 44
4, 100857, Note_off_c, 2, 70, 64
4, 100857, Note_off_c, 2, 61, 64
4, 100857, Note_off_c, 2, 63, 64
4, 100857, Note_off_c, 2, 66, 64
4, 100857, Note_on_c, 2, 61, 56
4, 100857, Note_on_c, 2, 63, 56
4, 100857, Note_on_c, 2, 54, 56
4, 100857, Note_on_c, 2, 70, 56
4, 101376, Note_off_c, 2, 70, 64
4, 101376, Note_off_c, 2, 54, 64
4, 101376, Note_off_c, 2, 63, 64
4, 101376, Note_off_c, 2, 61, 64
4, 101376, Note_on_c, 2, 56, 61
4, 101376, Note_on_c, 2, 70, 61
4, 101376, Note_on_c, 2, 61, 61
4, 101376, Note_on_c, 2, 65, 61
4, 102550, Note_off_c, 2, 65, 64
4, 102550, Note_off_c, 2, 61, 64
4, 102550, Note_off_c, 2, 70, 64
4, 102550, Note_off_c, 2, 56, 64
4, 102550, Note_on_c, 2, 68, 37
4, 102550, Note_on_c, 2, 65, 37
4, 102550, Note_on_c, 2, 61, 37
4, 102550, Note_on_c, 2, 70, 37
4, 103100, Note_off_c, 2, 70, 64
4, 103100, Note_off_c, 2, 61, 64
4, 103100, Note_off_c, 2, 65, 64
4, 103100, Note_off_c, 2, 68, 64
4, 103187, Note_on_c, 2, 56, 53
4, 103187, Note_on_c, 2, 70, 53
4, 103187, Note_on_c, 2, 61, 53
4, 103187, Note_on_c, 2, 65, 53
4, 103673, Note_off_c, 2, 65, 64
4, 103673, Note_off_c, 2, 61, 64
4, 103673, Note_off_c, 2, 70, 64
4, 103673, Note_off_c, 2, 56, 64
4, 103680, Note_on_c, 2, 67, 58
4, 103680, Note_on_c, 2, 58, 41
4, 103680, Note_on_c, 2, 63, 47
4, 103680, Note_on_c, 2, 61, 56
4, 105948, Note_off_c, 2, 61, 64
4, 105948, Note_off_c, 2, 63, 64
4, 105948, Note_off_c, 2, 58, 64
4, 105948, Note_off_c, 2, 67, 64
4, 105984, Note_on_c, 2, 56, 61
4, 105984, Note_on_c, 2, 72, 61
4, 105984, Note_on_c, 2, 61, 61
4, 105984, Note_on_c, 2, 65, 61
4, 107158, Note_off_c, 2, 65, 64
4, 107158, Note_off_c, 2, 61, 64
4, 107158, Note_off_c, 2, 72, 64
4, 107158, Note_off_c, 2, 56, 64
4, 107158, Note_on_c, 2, 68, 37
4, 107158, Note_on_c, 2, 65, 37
4, 107158, Note_on_c, 2, 61, 37
4, 107158, Note_on_c, 2, 70, 37
4, 107708, Note_off_c, 2, 70, 64
4, 107708, Note_off_c, 2, 61, 64
4, 107708, Note_off_c, 2, 65, 64
4, 107708, Note_off_c, 2, 68, 64
4, 107795, Note_on_c, 2, 56, 53
4, 107795, Note_on_c, 2, 72, 53
4, 107795, Note_on_c, 2, 61, 53
4, 107795, Note_on_c, 2, 65, 53
4, 108281, Note_off_c, 2, 65, 64
4, 108281, Note_off_c, 2, 61, 64
4, 108281, Note_off_c, 2, 72, 64
4, 108281, Note_off_c, 2, 56, 64
4, 108288, Note_on_c, 2, 61, 50
4, 108288, Note_on_c, 2, 63, 50
4, 108288, Note_on_c, 2, 54, 50
4, 108288, Note_on_c, 2, 70, 50
4, 109440, Note_off_c, 2, 70, 64
4, 109440, Note_off_c, 2, 54, 64
4, 109440, Note_off_c, 2, 63, 64
4, 109440, Note_off_c, 2, 61, 64
4, 109440, Note_on_c, 2, 65, 56
4, 109440, Note_on_c, 2, 57, 66
4, 109440, Note_on_c, 2, 51, 33
4, 109715, Note_on_c, 2, 63, 47
4, 110592, Note_off_c, 2, 63, 64
4, 110592, Note_off_c, 2, 51, 64
4, 110592, Note_off_c, 2, 57, 64
4, 110592, Note_off_c, 2, 65, 64
4, 110592, Note_on_c, 2, 61, 58
4, 110592, Note_on_c, 2, 53, 41
4, 110592, Note_on_c, 2, 58, 47
4, 110592, Note_on_c, 2, 56, 56
4, 112860, Note_off_c, 2, 56, 64
4, 112860, Note_off_c, 2, 58, 64
4, 112860, Note_off_c, 2, 53, 64
4, 112860, Note_off_c, 2, 61, 64
4, 112896, Note_on_c, 2, 58, 50
4, 112896, Note_on_c, 2, 61, 50
4, 112896, Note_on_c, 2, 65, 50
4, 114048, Note_off_c, 2, 65, 64
4, 114048, Note_off_c, 2, 61, 64
4, 114048, Note_off_c, 2, 58, 64
4, 114048, Note_on_c, 2, 63, 49
4, 114048, Note_on_c, 2, 61, 57
4, 114048, Note_on_c, 2, 54, 52
4, 114944, Note_on_c, 2, 65, 34
4, 115014, Note_off_c, 2, 63, 64
4, 115072, Note_off_c, 2, 65, 64
4, 115072, Note_on_c, 2, 66, 58
4, 115184, Note_off_c, 2, 66, 64
4, 115200, Note_off_c, 2, 54, 64
4, 115200, Note_off_c, 2, 61, 64
4, 115232, Note_on_c, 2, 63, 44
4, 115232, Note_on_c, 2, 59, 44
4, 115232, Note_on_c, 2, 56, 44
4, 115232, Note_on_c, 2, 66, 44
4, 115833, Note_off_c, 2, 66, 64
4, 115833, Note_off_c, 2, 56, 64
4, 115833, Note_off_c, 2, 59, 64
4, 115833, Note_off_c, 2, 63, 64
4, 115833, Note_on_c, 2, 56, 56
4, 115833, Note_on_c, 2, 71, 56
4, 115833, Note_on_c, 2, 63, 56
4, 115833, Note_on_c, 2, 66, 56
4, 116352, Note_off_c, 2, 66, 64
4, 116352, Note_off_c, 2, 63, 64
4, 116352, Note_off_c, 2, 71, 64
4, 116352, Note_off_c, 2, 56, 64
4, 116627, Note_on_c, 2, 56, 49
4, 116627, Note_on_c, 2, 70, 49
4, 116627, Note_on_c, 2, 61, 49
4, 116627, Note_on_c, 2, 65, 49
4, 116816, Note_off_c, 2, 65, 64
4, 116816, Note_off_c, 2, 61, 64
4, 116816, Note_off_c, 2, 70, 64
4, 116816, Note_off_c, 2, 56, 64
4, 117011, Note_on_c, 2, 56, 51
4, 117011, Note_on_c, 2, 70, 51
4, 117011, Note_on_c, 2, 61, 51
4, 117011, Note_on_c, 2, 65, 51
4, 117504, Note_off_c, 2, 65, 64
4, 117504, Note_off_c, 2, 61, 64
4, 117504, Note_off_c, 2, 70, 64
4, 117504, Note_off_c, 2, 56, 64
4, 117504, Note_on_c, 2, 66, 58
4, 117504, Note_on_c, 2, 58, 41
4, 117504, Note_on_c, 2, 63, 47
4, 117504, Note_on_c, 2, 61, 56
4, 119772, Note_off_c, 2, 61, 64
4, 119772, Note_off_c, 2, 63, 64
4, 119772, Note_off_c, 2, 58, 64
4, 119772, Note_off_c, 2, 66, 64
4, 119808, Note_on_c, 2, 61, 58
4, 119808, Note_on_c, 2, 53, 41
4, 119808, Note_on_c, 2, 58, 47
4, 119808, Note_on_c, 2, 56, 56
4, 122076, Note_off_c, 2, 56, 64
4, 122076, Note_off_c, 2, 58, 64
4, 122076, Note_off_c, 2, 53, 64
4, 122076, Note_off_c, 2, 61, 64
4, 122112, Note_on_c, 2, 61, 61
4, 122112, Note_on_c, 2, 63, 61
4, 122112, Note_on_c, 2, 54, 61
4, 122112, Note_on_c, 2, 70, 61
4, 122771, Note_on_c, 2, 50, 26
4, 122771, Note_on_c, 2, 51, 64
4, 122867, Note_off_c, 2, 50, 64
4, 123264, Note_off_c, 2, 51, 64
4, 123264, Note_off_c, 2, 70, 64
4, 123264, Note_off_c, 2, 54, 64
4, 123264, Note_off_c, 2, 63, 64
4, 123264, Note_off_c, 2, 61, 64
4, 123264, Note_on_c, 2, 51, 51
4, 123264, Note_on_c, 2, 55, 51
4, 123264, Note_on_c, 2, 57, 51
4, 123264, Note_on_c, 2, 62, 51
4, 123264, Note_on_c, 2, 59, 51
4, 123520, Note_on_c, 2, 53, 54
4, 123644, Note_off_c, 2, 59, 64
4, 123644, Note_off_c, 2, 62, 64
4, 123644, Note_off_c, 2, 57, 64
4, 123644, Note_off_c, 2, 55, 64
4, 123644, Note_off_c, 2, 51, 64
4, 123811, Note_off_c, 2, 53, 64
4, 123904, Note_on_c, 2, 51, 43
4, 123904, Note_on_c, 2, 55, 43
4, 123904, Note_on_c, 2, 57, 43
4, 123904, Note_on_c, 2, 62, 43
4, 123904, Note_on_c, 2, 59, 43
4, 124032, Note_on_c, 2, 53, 55
4, 124416, Note_off_c, 2, 53, 64
4, 124416, Note_off_c, 2, 59, 64
4, 124416, Note_off_c, 2, 62, 64
4, 124416, Note_off_c, 2, 57, 64
4, 124416, Note_off_c, 2, 55, 64
4, 124416, Note_off_c, 2, 51, 64
4, 124416, Note_on_c, 2, 56, 51
4, 124416, Note_on_c, 2, 72, 51
4, 124416, Note_on_c, 2, 61, 51
4, 124416, Note_on_c, 2, 65, 51
4, 124672, Note_on_c, 2, 53, 54
4, 124796, Note_off_c, 2, 65, 64
4, 124796, Note_off_c, 2, 61, 64
4, 124796, Note_off_c, 2, 72, 64
4, 124796, Note_off_c, 2, 56, 64
4, 124963, Note_off_c, 2, 53, 64
4, 125056, Note_on_c, 2, 56, 43
4, 125056, Note_on_c, 2, 72, 43
4, 125056, Note_on_c, 2, 61, 43
4, 125056, Note_on_c, 2, 65, 43
4, 125184, Note_on_c, 2, 53, 55
4, 125568, Note_off_c, 2, 53, 64
4, 125568, Note_off_c, 2, 65, 64
4, 125568, Note_off_c, 2, 61, 64
4, 125568, Note_off_c, 2, 72, 64
4, 125568, Note_off_c, 2, 56, 64
4, 125600, Note_on_c, 2, 65, 44
4, 125600, Note_on_c, 2, 63, 44
4, 125600, Note_on_c, 2, 60, 44
4, 125600, Note_on_c, 2, 69, 44
4, 126201, Note_off_c, 2, 69, 64
4, 126201, Note_off_c, 2, 60, 64
4, 126201, Note_off_c, 2, 63, 64
4, 126201, Note_off_c, 2, 65, 64
4, 126201, Note_on_c, 2, 63, 56
4, 126201, Note_on_c, 2, 67, 56
4, 126201, Note_on_c, 2, 57, 56
4, 126201, Note_on_c, 2, 74, 56
4, 126720, Note_off_c, 2, 74, 64
4, 126720, Note_off_c, 2, 57, 64
4, 126720, Note_off_c, 2, 67, 64
4, 126720, Note_off_c, 2, 63, 64
4, 129024, Note_on_c, 2, 49, 52
4, 130176, Note_off_c, 2, 49, 64
4, 154368, Note_on_c, 2, 49, 52
4, 155520, Note_off_c, 2, 49, 64
4, 170496, Control_c, 2, 64, 0
4, 170497, Marker_t, "End of pattern\000"
4, 170497, End_track
5, 0, Start_track
5, 0, Marker_t, "Start of pattern\000"
5, 0, Title_t, "Guitar\000"
5, 0, Program_c, 6, 24
5, 0, Control_c, 6, 123, 0
5, 0, Control_c, 6, 91, 60
5, 0, Control_c, 6, 93, 0
5, 0, Control_c, 6, 64, 0
5, 2684, Note_on_c, 6, 49, 45
5, 2691, Note_on_c, 6, 56, 50
5, 2700, Control_c, 6, 64, 127
5, 2742, Note_off_c, 6, 56, 64
5, 2774, Note_off_c, 6, 49, 64
5, 3088, Note_on_c, 6, 49, 45
5, 3097, Note_on_c, 6, 56, 63
5, 3136, Note_off_c, 6, 56, 64
5, 3148, Note_off_c, 6, 49, 64
5, 3222, Control_c, 6, 64, 0
5, 3836, Note_on_c, 6, 49, 45
5, 3843, Note_on_c, 6, 54, 50
5, 3852, Control_c, 6, 64, 127
5, 3894, Note_off_c, 6, 54, 64
5, 3926, Note_off_c, 6, 49, 64
5, 4224, Control_c, 6, 64, 0
5, 4992, Note_on_c, 6, 56, 63
5, 4992, Note_on_c, 6, 49, 42
5, 4992, Control_c, 6, 64, 127
5, 5097, Note_off_c, 6, 56, 64
5, 5107, Note_off_c, 6, 49, 64
5, 5376, Note_on_c, 6, 56, 69
5, 5376, Note_on_c, 6, 49, 42
5, 5468, Note_off_c, 6, 56, 64
5, 5491, Note_off_c, 6, 49, 64
5, 5644, Control_c, 6, 64, 0
5, 6028, Note_on_c, 6, 49, 39
5, 6028, Note_on_c, 6, 56, 67
5, 6028, Control_c, 6, 64, 127
5, 6112, Note_off_c, 6, 56, 64
5, 6144, Note_off_c, 6, 49, 64
5, 6272, Control_c, 6, 64, 0
5, 6528, Note_on_c, 6, 56, 53
5, 6528, Note_on_c, 6, 49, 32
5, 6656, Control_c, 6, 64, 127
5, 6697, Note_off_c, 6, 56, 64
5, 6729, Note_off_c, 6, 49, 64
5, 6912, Control_c, 6, 64, 0
5, 7292, Note_on_c, 6, 49, 45
5, 7299, Note_on_c, 6, 55, 50
5, 7308, Control_c, 6, 64, 127
5, 7350, Note_off_c, 6, 55, 64
5, 7382, Note_off_c, 6, 49, 64
5, 7696, Note_on_c, 6, 49, 45
5, 7705, Note_on_c, 6, 55, 63
5, 7744, Note_off_c, 6, 55, 64
5, 7756, Note_off_c, 6, 49, 64
5, 7830, Control_c, 6, 64, 0
5, 8396, Control_c, 6, 64, 127
5, 8470, Note_on_c, 6, 49, 39
5, 8476, Note_on_c, 6, 55, 50
5, 8524, Note_off_c, 6, 55, 64
5, 8537, Note_off_c, 6, 49, 64
5, 8848, Note_on_c, 6, 49, 47
5, 8848, Note_on_c, 6, 55, 67
5, 8899, Note_off_c, 6, 55, 64
5, 8908, Note_off_c, 6, 49, 64
5, 8988, Control_c, 6, 64, 0
5, 9596, Note_on_c, 6, 49, 45
5, 9603, Note_on_c, 6, 56, 50
5, 9612, Control_c, 6, 64, 127
5, 9654, Note_off_c, 6, 56, 64
5, 9686, Note_off_c, 6, 49, 64
5, 10000, Note_on_c, 6, 49, 45
5, 10009, Note_on_c, 6, 56, 63
5, 10048, Note_off_c, 6, 56, 64
5, 10060, Note_off_c, 6, 49, 64
5, 10134, Control_c, 6, 64, 0
5, 10700, Control_c, 6, 64, 127
5, 10774, Note_on_c, 6, 49, 39
5, 10780, Note_on_c, 6, 56, 50
5, 10828, Note_off_c, 6, 56, 64
5, 10841, Note_off_c, 6, 49, 64
5, 11152, Note_on_c, 6, 49, 47
5, 11152, Note_on_c, 6, 56, 67
5, 11203, Note_off_c, 6, 56, 64
5, 11212, Note_off_c, 6, 49, 64
5, 11292, Control_c, 6, 64, 0
5, 11900, Note_on_c, 6, 51, 45
5, 11907, Note_on_c, 6, 58, 50
5, 11916, Control_c, 6, 64, 127
5, 11958, Note_off_c, 6, 58, 64
5, 11990, Note_off_c, 6, 51, 64
5, 12304, Note_on_c, 6, 51, 45
5, 12313, Note_on_c, 6, 58, 63
5, 12352, Note_off_c, 6, 58, 64
5, 12364, Note_off_c, 6, 51, 64
5, 12438, Control_c, 6, 64, 0
5, 12944, Note_on_c, 6, 51, 37
5, 12944, Note_on_c, 6, 57, 53
5, 13440, Note_off_c, 6, 51, 64
5, 13449, Note_off_c, 6, 57, 64
5, 13449, Note_on_c, 6, 57, 61
5, 13449, Note_on_c, 6, 51, 50
5, 13555, Note_off_c, 6, 51, 64
5, 13577, Note_off_c, 6, 57, 64
5, 14204, Note_on_c, 6, 49, 45
5, 14211, Note_on_c, 6, 55, 50
5, 14220, Control_c, 6, 64, 127
5, 14262, Note_off_c, 6, 55, 64
5, 14294, Note_off_c, 6, 49, 64
5, 14608, Note_on_c, 6, 49, 45
5, 14617, Note_on_c, 6, 55, 63
5, 14656, Note_off_c, 6, 55, 64
5, 14668, Note_off_c, 6, 49, 64
5, 14742, Control_c, 6, 64, 0
5, 15248, Note_on_c, 6, 51, 37
5, 15248, Note_on_c, 6, 57, 53
5, 15744, Note_off_c, 6, 51, 64
5, 15753, Note_off_c, 6, 57, 64
5, 15753, Note_on_c, 6, 57, 61
5, 15753, Note_on_c, 6, 51, 50
5, 15859, Note_off_c, 6, 51, 64
5, 15881, Note_off_c, 6, 57, 64
5, 16508, Note_on_c, 6, 49, 45
5, 16515, Note_on_c, 6, 56, 50
5, 16524, Control_c, 6, 64, 127
5, 16566, Note_off_c, 6, 56, 64
5, 16598, Note_off_c, 6, 49, 64
5, 16912, Note_on_c, 6, 49, 45
5, 16921, Note_on_c, 6, 56, 63
5, 16960, Note_off_c, 6, 56, 64
5, 16972, Note_off_c, 6, 49, 64
5, 17046, Control_c, 6, 64, 0
5, 17552, Note_on_c, 6, 49, 37
5, 17552, Note_on_c, 6, 54, 53
5, 18048, Note_off_c, 6, 49, 64
5, 18057, Note_off_c, 6, 54, 64
5, 18057, Note_on_c, 6, 54, 61
5, 18057, Note_on_c, 6, 49, 50
5, 18163, Note_off_c, 6, 49, 64
5, 18185, Note_off_c, 6, 54, 64
5, 18812, Note_on_c, 6, 49, 45
5, 18819, Note_on_c, 6, 56, 50
5, 18828, Control_c, 6, 64, 127
5, 18870, Note_off_c, 6, 56, 64
5, 18902, Note_off_c, 6, 49, 64
5, 19216, Note_on_c, 6, 49, 45
5, 19225, Note_on_c, 6, 56, 63
5, 19264, Note_off_c, 6, 56, 64
5, 19276, Note_off_c, 6, 49, 64
5, 19350, Control_c, 6, 64, 0
5, 19856, Note_on_c, 6, 49, 37
5, 19856, Note_on_c, 6, 56, 53
5, 20352, Note_off_c, 6, 49, 64
5, 20361, Note_off_c, 6, 56, 64
5, 20361, Note_on_c, 6, 56, 61
5, 20361, Note_on_c, 6, 49, 50
5, 20467, Note_off_c, 6, 49, 64
5, 20489, Note_off_c, 6, 56, 64
5, 21116, Note_on_c, 6, 49, 45
5, 21123, Note_on_c, 6, 55, 50
5, 21132, Control_c, 6, 64, 127
5, 21174, Note_off_c, 6, 55, 64
5, 21206, Note_off_c, 6, 49, 64
5, 21520, Note_on_c, 6, 49, 45
5, 21529, Note_on_c, 6, 55, 63
5, 21568, Note_off_c, 6, 55, 64
5, 21580, Note_off_c, 6, 49, 64
5, 21654, Control_c, 6, 64, 0
5, 22220, Control_c, 6, 64, 127
5, 22294, Note_on_c, 6, 49, 39
5, 22300, Note_on_c, 6, 55, 50
5, 22348, Note_off_c, 6, 55, 64
5, 22361, Note_off_c, 6, 49, 64
5, 22672, Note_on_c, 6, 49, 47
5, 22672, Note_on_c, 6, 55, 67
5, 22723, Note_off_c, 6, 55, 64
5, 22732, Note_off_c, 6, 49, 64
5, 22812, Control_c, 6, 64, 0
5, 23420, Note_on_c, 6, 49, 45
5, 23427, Note_on_c, 6, 56, 50
5, 23436, Control_c, 6, 64, 127
5, 23478, Note_off_c, 6, 56, 64
5, 23510, Note_off_c, 6, 49, 64
5, 23824, Note_on_c, 6, 49, 45
5, 23833, Note_on_c, 6, 56, 63
5, 23872, Note_off_c, 6, 56, 64
5, 23884, Note_off_c, 6, 49, 64
5, 23958, Control_c, 6, 64, 0
5, 24524, Control_c, 6, 64, 127
5, 24598, Note_on_c, 6, 49, 39
5, 24604, Note_on_c, 6, 56, 50
5, 24652, Note_off_c, 6, 56, 64
5, 24665, Note_off_c, 6, 49, 64
5, 24976, Note_on_c, 6, 49, 47
5, 24976, Note_on_c, 6, 56, 67
5, 25027, Note_off_c, 6, 56, 64
5, 25036, Note_off_c, 6, 49, 64
5, 25116, Control_c, 6, 64, 0
5, 25724, Note_on_c, 6, 51, 45
5, 25731, Note_on_c, 6, 58, 50
5, 25740, Control_c, 6, 64, 127
5, 25782, Note_off_c, 6, 58, 64
5, 25814, Note_off_c, 6, 51, 64
5, 26128, Note_on_c, 6, 51, 45
5, 26137, Note_on_c, 6, 58, 63
5, 26176, Note_off_c, 6, 58, 64
5, 26188, Note_off_c, 6, 51, 64
5, 26262, Control_c, 6, 64, 0
5, 26768, Note_on_c, 6, 51, 37
5, 26768, Note_on_c, 6, 57, 53
5, 27264, Note_off_c, 6, 51, 64
5, 27273, Note_off_c, 6, 57, 64
5, 27273, Note_on_c, 6, 57, 61
5, 27273, Note_on_c, 6, 51, 50
5, 27379, Note_off_c, 6, 51, 64
5, 27401, Note_off_c, 6, 57, 64
5, 28028, Note_on_c, 6, 49, 45
5, 28035, Note_on_c, 6, 55, 50
5, 28044, Control_c, 6, 64, 127
5, 28086, Note_off_c, 6, 55, 64
5, 28118, Note_off_c, 6, 49, 64
5, 28432, Note_on_c, 6, 49, 45
5, 28441, Note_on_c, 6, 55, 63
5, 28480, Note_off_c, 6, 55, 64
5, 28492, Note_off_c, 6, 49, 64
5, 28566, Control_c, 6, 64, 0
5, 29072, Note_on_c, 6, 51, 37
5, 29072, Note_on_c, 6, 57, 53
5, 29568, Note_off_c, 6, 51, 64
5, 29577, Note_off_c, 6, 57, 64
5, 29577, Note_on_c, 6, 57, 61
5, 29577, Note_on_c, 6, 51, 50
5, 29683, Note_off_c, 6, 51, 64
5, 29705, Note_off_c, 6, 57, 64
5, 30332, Note_on_c, 6, 49, 45
5, 30339, Note_on_c, 6, 56, 50
5, 30348, Control_c, 6, 64, 127
5, 30390, Note_off_c, 6, 56, 64
5, 30422, Note_off_c, 6, 49, 64
5, 30736, Note_on_c, 6, 49, 45
5, 30745, Note_on_c, 6, 56, 63
5, 30784, Note_off_c, 6, 56, 64
5, 30796, Note_off_c, 6, 49, 64
5, 30870, Control_c, 6, 64, 0
5, 31376, Note_on_c, 6, 49, 37
5, 31376, Note_on_c, 6, 54, 53
5, 31872, Note_off_c, 6, 49, 64
5, 31881, Note_off_c, 6, 54, 64
5, 31881, Note_on_c, 6, 54, 61
5, 31881, Note_on_c, 6, 49, 50
5, 31987, Note_off_c, 6, 49, 64
5, 32009, Note_off_c, 6, 54, 64
5, 32636, Note_on_c, 6, 49, 45
5, 32643, Note_on_c, 6, 58, 50
5, 32652, Control_c, 6, 64, 127
5, 32694, Note_off_c, 6, 58, 64
5, 32726, Note_off_c, 6, 49, 64
5, 33040, Note_on_c, 6, 49, 45
5, 33049, Note_on_c, 6, 58, 63
5, 33088, Note_off_c, 6, 58, 64
5, 33100, Note_off_c, 6, 49, 64
5, 33174, Control_c, 6, 64, 0
5, 33740, Control_c, 6, 64, 127
5, 33814, Note_on_c, 6, 49, 39
5, 33820, Note_on_c, 6, 58, 50
5, 33868, Note_off_c, 6, 58, 64
5, 33881, Note_off_c, 6, 49, 64
5, 34192, Note_on_c, 6, 49, 47
5, 34192, Note_on_c, 6, 58, 67
5, 34243, Note_off_c, 6, 58, 64
5, 34252, Note_off_c, 6, 49, 64
5, 34332, Control_c, 6, 64, 0
5, 34940, Note_on_c, 6, 49, 45
5, 34947, Note_on_c, 6, 54, 50
5, 34956, Control_c, 6, 64, 127
5, 34998, Note_off_c, 6, 54, 64
5, 35030, Note_off_c, 6, 49, 64
5, 35344, Note_on_c, 6, 49, 45
5, 35353, Note_on_c, 6, 54, 63
5, 35392, Note_off_c, 6, 54, 64
5, 35404, Note_off_c, 6, 49, 64
5, 35478, Control_c, 6, 64, 0
5, 36044, Control_c, 6, 64, 127
5, 36118, Note_on_c, 6, 49, 39
5, 36124, Note_on_c, 6, 54, 50
5, 36172, Note_off_c, 6, 54, 64
5, 36185, Note_off_c, 6, 49, 64
5, 36496, Note_on_c, 6, 49, 47
5, 36496, Note_on_c, 6, 54, 67
5, 36547, Note_off_c, 6, 54, 64
5, 36556, Note_off_c, 6, 49, 64
5, 36636, Control_c, 6, 64, 0
5, 37248, Note_on_c, 6, 49, 45
5, 37248, Note_on_c, 6, 56, 50
5, 37248, Control_c, 6, 64, 127
5, 37587, Note_off_c, 6, 56, 64
5, 37625, Note_off_c, 6, 49, 64
5, 37632, Note_on_c, 6, 49, 45
5, 37632, Note_on_c, 6, 56, 63
5, 37692, Note_off_c, 6, 56, 64
5, 37692, Note_off_c, 6, 49, 64
5, 37692, Control_c, 6, 64, 0
5, 38400, Control_c, 6, 64, 127
5, 38400, Note_on_c, 6, 49, 39
5, 38400, Note_on_c, 6, 56, 50
5, 38736, Note_off_c, 6, 56, 64
5, 38755, Note_off_c, 6, 49, 64
5, 38784, Note_on_c, 6, 49, 47
5, 38784, Note_on_c, 6, 56, 67
5, 38844, Note_off_c, 6, 56, 64
5, 38844, Note_off_c, 6, 49, 64
5, 38844, Control_c, 6, 64, 0
5, 39548, Note_on_c, 6, 49, 45
5, 39555, Note_on_c, 6, 54, 50
5, 39564, Control_c, 6, 64, 127
5, 39606, Note_off_c, 6, 54, 64
5, 39638, Note_off_c, 6, 49, 64
5, 39952, Note_on_c, 6, 49, 45
5, 39961, Note_on_c, 6, 54, 63
5, 40000, Note_off_c, 6, 54, 64
5, 40012, Note_off_c, 6, 49, 64
5, 40086, Control_c, 6, 64, 0
5, 40592, Note_on_c, 6, 51, 37
5, 40592, Note_on_c, 6, 57, 53
5, 41088, Note_off_c, 6, 51, 64
5, 41097, Note_off_c, 6, 57, 64
5, 41097, Note_on_c, 6, 57, 61
5, 41097, Note_on_c, 6, 51, 50
5, 41203, Note_off_c, 6, 51, 64
5, 41225, Note_off_c, 6, 57, 64
5, 41852, Note_on_c, 6, 49, 45
5, 41859, Note_on_c, 6, 55, 50
5, 41868, Control_c, 6, 64, 127
5, 41910, Note_off_c, 6, 55, 64
5, 41942, Note_off_c, 6, 49, 64
5, 42256, Note_on_c, 6, 49, 45
5, 42265, Note_on_c, 6, 55, 63
5, 42304, Note_off_c, 6, 55, 64
5, 42316, Note_off_c, 6, 49, 64
5, 42390, Control_c, 6, 64, 0
5, 42896, Note_on_c, 6, 51, 37
5, 42896, Note_on_c, 6, 57, 53
5, 43392, Note_off_c, 6, 51, 64
5, 43401, Note_off_c, 6, 57, 64
5, 43401, Note_on_c, 6, 57, 61
5, 43401, Note_on_c, 6, 51, 50
5, 43507, Note_off_c, 6, 51, 64
5, 43529, Note_off_c, 6, 57, 64
5, 44156, Note_on_c, 6, 49, 45
5, 44163, Note_on_c, 6, 56, 50
5, 44172, Control_c, 6, 64, 127
5, 44214, Note_off_c, 6, 56, 64
5, 44246, Note_off_c, 6, 49, 64
5, 44560, Note_on_c, 6, 49, 45
5, 44569, Note_on_c, 6, 56, 63
5, 44608, Note_off_c, 6, 56, 64
5, 44620, Note_off_c, 6, 49, 64
5, 44694, Control_c, 6, 64, 0
5, 45200, Note_on_c, 6, 49, 37
5, 45200, Note_on_c, 6, 54, 53
5, 45696, Note_off_c, 6, 49, 64
5, 45705, Note_off_c, 6, 54, 64
5, 45705, Note_on_c, 6, 54, 61
5, 45705, Note_on_c, 6, 49, 50
5, 45811, Note_off_c, 6, 49, 64
5, 45833, Note_off_c, 6, 54, 64
5, 46464, Note_on_c, 6, 49, 45
5, 46464, Note_on_c, 6, 56, 50
5, 46464, Control_c, 6, 64, 127
5, 46803, Note_off_c, 6, 56, 64
5, 46841, Note_off_c, 6, 49, 64
5, 46848, Note_on_c, 6, 49, 45
5, 46848, Note_on_c, 6, 56, 63
5, 46908, Note_off_c, 6, 56, 64
5, 46908, Note_off_c, 6, 49, 64
5, 46908, Control_c, 6, 64, 0
5, 47616, Control_c, 6, 64, 127
5, 47616, Note_on_c, 6, 49, 39
5, 47616, Note_on_c, 6, 56, 50
5, 47952, Note_off_c, 6, 56, 64
5, 47971, Note_off_c, 6, 49, 64
5, 48000, Note_on_c, 6, 49, 47
5, 48000, Note_on_c, 6, 56, 67
5, 48060, Note_off_c, 6, 56, 64
5, 48060, Note_off_c, 6, 49, 64
5, 48060, Control_c, 6, 64, 0
5, 48764, Note_on_c, 6, 49, 45
5, 48771, Note_on_c, 6, 55, 50
5, 48780, Control_c, 6, 64, 127
5, 48822, Note_off_c, 6, 55, 64
5, 48854, Note_off_c, 6, 49, 64
5, 49168, Note_on_c, 6, 49, 45
5, 49177, Note_on_c, 6, 55, 63
5, 49216, Note_off_c, 6, 55, 64
5, 49228, Note_off_c, 6, 49, 64
5, 49302, Control_c, 6, 64, 0
5, 49868, Control_c, 6, 64, 127
5, 49942, Note_on_c, 6, 49, 39
5, 49948, Note_on_c, 6, 55, 50
5, 49996, Note_off_c, 6, 55, 64
5, 50009, Note_off_c, 6, 49, 64
5, 50320, Note_on_c, 6, 49, 47
5, 50320, Note_on_c, 6, 55, 67
5, 50371, Note_off_c, 6, 55, 64
5, 50380, Note_off_c, 6, 49, 64
5, 50460, Control_c, 6, 64, 0
5, 51072, Note_on_c, 6, 49, 45
5, 51072, Note_on_c, 6, 56, 50
5, 51072, Control_c, 6, 64, 127
5, 51411, Note_off_c, 6, 56, 64
5, 51449, Note_off_c, 6, 49, 64
5, 51456, Note_on_c, 6, 49, 45
5, 51456, Note_on_c, 6, 56, 63
5, 51516, Note_off_c, 6, 56, 64
5, 51516, Note_off_c, 6, 49, 64
5, 51516, Control_c, 6, 64, 0
5, 52224, Control_c, 6, 64, 127
5, 52224, Note_on_c, 6, 49, 39
5, 52224, Note_on_c, 6, 56, 50
5, 52560, Note_off_c, 6, 56, 64
5, 52579, Note_off_c, 6, 49, 64
5, 52608, Note_on_c, 6, 49, 47
5, 52608, Note_on_c, 6, 56, 67
5, 52668, Note_off_c, 6, 56, 64
5, 52668, Note_off_c, 6, 49, 64
5, 52668, Control_c, 6, 64, 0
5, 53372, Note_on_c, 6, 49, 45
5, 53379, Note_on_c, 6, 54, 50
5, 53388, Control_c, 6, 64, 127
5, 53430, Note_off_c, 6, 54, 64
5, 53462, Note_off_c, 6, 49, 64
5, 53776, Note_on_c, 6, 49, 45
5, 53785, Note_on_c, 6, 54, 63
5, 53824, Note_off_c, 6, 54, 64
5, 53836, Note_off_c, 6, 49, 64
5, 53910, Control_c, 6, 64, 0
5, 54416, Note_on_c, 6, 51, 37
5, 54416, Note_on_c, 6, 57, 53
5, 54912, Note_off_c, 6, 51, 64
5, 54921, Note_off_c, 6, 57, 64
5, 54921, Note_on_c, 6, 57, 61
5, 54921, Note_on_c, 6, 51, 50
5, 55027, Note_off_c, 6, 51, 64
5, 55049, Note_off_c, 6, 57, 64
5, 55680, Note_on_c, 6, 49, 45
5, 55680, Note_on_c, 6, 56, 50
5, 55680, Control_c, 6, 64, 127
5, 56019, Note_off_c, 6, 56, 64
5, 56057, Note_off_c, 6, 49, 64
5, 56064, Note_on_c, 6, 49, 45
5, 56064, Note_on_c, 6, 56, 63
5, 56124, Note_off_c, 6, 56, 64
5, 56124, Note_off_c, 6, 49, 64
5, 56124, Control_c, 6, 64, 0
5, 56832, Control_c, 6, 64, 127
5, 56832, Note_on_c, 6, 49, 39
5, 56832, Note_on_c, 6, 56, 50
5, 57168, Note_off_c, 6, 56, 64
5, 57187, Note_off_c, 6, 49, 64
5, 57216, Note_on_c, 6, 49, 47
5, 57216, Note_on_c, 6, 56, 67
5, 57276, Note_off_c, 6, 56, 64
5, 57276, Note_off_c, 6, 49, 64
5, 57276, Control_c, 6, 64, 0
5, 57980, Note_on_c, 6, 49, 45
5, 57987, Note_on_c, 6, 58, 50
5, 57996, Control_c, 6, 64, 127
5, 58038, Note_off_c, 6, 58, 64
5, 58070, Note_off_c, 6, 49, 64
5, 58384, Note_on_c, 6, 49, 45
5, 58393, Note_on_c, 6, 58, 63
5, 58432, Note_off_c, 6, 58, 64
5, 58444, Note_off_c, 6, 49, 64
5, 58518, Control_c, 6, 64, 0
5, 59024, Note_on_c, 6, 49, 37
5, 59024, Note_on_c, 6, 54, 53
5, 59520, Note_off_c, 6, 49, 64
5, 59529, Note_off_c, 6, 54, 64
5, 59529, Note_on_c, 6, 54, 61
5, 59529, Note_on_c, 6, 49, 50
5, 59635, Note_off_c, 6, 49, 64
5, 59657, Note_off_c, 6, 54, 64
5, 60284, Note_on_c, 6, 51, 45
5, 60291, Note_on_c, 6, 56, 50
5, 60300, Control_c, 6, 64, 127
5, 60342, Note_off_c, 6, 56, 64
5, 60374, Note_off_c, 6, 51, 64
5, 60688, Note_on_c, 6, 51, 45
5, 60697, Note_on_c, 6, 56, 63
5, 60736, Note_off_c, 6, 56, 64
5, 60748, Note_off_c, 6, 51, 64
5, 60822, Control_c, 6, 64, 0
5, 61328, Note_on_c, 6, 49, 37
5, 61328, Note_on_c, 6, 56, 53
5, 61824, Note_off_c, 6, 49, 64
5, 61833, Note_off_c, 6, 56, 64
5, 61833, Note_on_c, 6, 56, 61
5, 61833, Note_on_c, 6, 49, 50
5, 61939, Note_off_c, 6, 49, 64
5, 61961, Note_off_c, 6, 56, 64
5, 62588, Note_on_c, 6, 49, 45
5, 62595, Note_on_c, 6, 54, 50
5, 62604, Control_c, 6, 64, 127
5, 62646, Note_off_c, 6, 54, 64
5, 62678, Note_off_c, 6, 49, 64
5, 62992, Note_on_c, 6, 49, 45
5, 63001, Note_on_c, 6, 54, 63
5, 63040, Note_off_c, 6, 54, 64
5, 63052, Note_off_c, 6, 49, 64
5, 63126, Control_c, 6, 64, 0
5, 63692, Control_c, 6, 64, 127
5, 63766, Note_on_c, 6, 49, 39
5, 63772, Note_on_c, 6, 54, 50
5, 63820, Note_off_c, 6, 54, 64
5, 63833, Note_off_c, 6, 49, 64
5, 64144, Note_on_c, 6, 49, 47
5, 64144, Note_on_c, 6, 54, 67
5, 64195, Note_off_c, 6, 54, 64
5, 64204, Note_off_c, 6, 49, 64
5, 64284, Control_c, 6, 64, 0
5, 64896, Note_on_c, 6, 56, 63
5, 64896, Note_on_c, 6, 49, 42
5, 64896, Control_c, 6, 64, 127
5, 65001, Note_off_c, 6, 56, 64
5, 65011, Note_off_c, 6, 49, 64
5, 65280, Note_on_c, 6, 56, 69
5, 65280, Note_on_c, 6, 49, 42
5, 65372, Note_off_c, 6, 56, 64
5, 65395, Note_off_c, 6, 49, 64
5, 65548, Control_c, 6, 64, 0
5, 65932, Note_on_c, 6, 49, 39
5, 65932, Note_on_c, 6, 56, 67
5, 65932, Control_c, 6, 64, 127
5, 66016, Note_off_c, 6, 56, 64
5, 66048, Note_off_c, 6, 49, 64
5, 66176, Control_c, 6, 64, 0
5, 66432, Note_on_c, 6, 56, 53
5, 66432, Note_on_c, 6, 49, 32
5, 66560, Control_c, 6, 64, 127
5, 66601, Note_off_c, 6, 56, 64
5, 66633, Note_off_c, 6, 49, 64
5, 66816, Control_c, 6, 64, 0
5, 67196, Note_on_c, 6, 49, 45
5, 67203, Note_on_c, 6, 54, 50
5, 67212, Control_c, 6, 64, 127
5, 67254, Note_off_c, 6, 54, 64
5, 67286, Note_off_c, 6, 49, 64
5, 67600, Note_on_c, 6, 49, 45
5, 67609, Note_on_c, 6, 54, 63
5, 67648, Note_off_c, 6, 54, 64
5, 67660, Note_off_c, 6, 49, 64
5, 67734, Control_c, 6, 64, 0
5, 68240, Note_on_c, 6, 51, 37
5, 68240, Note_on_c, 6, 57, 53
5, 68736, Note_off_c, 6, 51, 64
5, 68745, Note_off_c, 6, 57, 64
5, 68745, Note_on_c, 6, 57, 61
5, 68745, Note_on_c, 6, 51, 50
5, 68851, Note_off_c, 6, 51, 64
5, 68873, Note_off_c, 6, 57, 64
5, 69500, Note_on_c, 6, 49, 45
5, 69507, Note_on_c, 6, 56, 50
5, 69516, Control_c, 6, 64, 127
5, 69558, Note_off_c, 6, 56, 64
5, 69590, Note_off_c, 6, 49, 64
5, 69904, Note_on_c, 6, 49, 45
5, 69913, Note_on_c, 6, 56, 63
5, 69952, Note_off_c, 6, 56, 64
5, 69964, Note_off_c, 6, 49, 64
5, 70038, Control_c, 6, 64, 0
5, 70544, Note_on_c, 6, 51, 37
5, 70544, Note_on_c, 6, 57, 53
5, 71040, Note_off_c, 6, 51, 64
5, 71049, Note_off_c, 6, 57, 64
5, 71049, Note_on_c, 6, 57, 61
5, 71049, Note_on_c, 6, 51, 50
5, 71155, Note_off_c, 6, 51, 64
5, 71177, Note_off_c, 6, 57, 64
5, 71804, Note_on_c, 6, 49, 45
5, 71811, Note_on_c, 6, 56, 50
5, 71820, Control_c, 6, 64, 127
5, 71862, Note_off_c, 6, 56, 64
5, 71894, Note_off_c, 6, 49, 64
5, 72208, Note_on_c, 6, 49, 45
5, 72217, Note_on_c, 6, 56, 63
5, 72256, Note_off_c, 6, 56, 64
5, 72268, Note_off_c, 6, 49, 64
5, 72342, Control_c, 6, 64, 0
5, 72848, Note_on_c, 6, 49, 37
5, 72848, Note_on_c, 6, 54, 53
5, 73344, Note_off_c, 6, 49, 64
5, 73353, Note_off_c, 6, 54, 64
5, 73353, Note_on_c, 6, 54, 61
5, 73353, Note_on_c, 6, 49, 50
5, 73459, Note_off_c, 6, 49, 64
5, 73481, Note_off_c, 6, 54, 64
5, 74108, Note_on_c, 6, 49, 45
5, 74115, Note_on_c, 6, 56, 50
5, 74124, Control_c, 6, 64, 127
5, 74166, Note_off_c, 6, 56, 64
5, 74198, Note_off_c, 6, 49, 64
5, 74512, Note_on_c, 6, 49, 45
5, 74521, Note_on_c, 6, 56, 63
5, 74560, Note_off_c, 6, 56, 64
5, 74572, Note_off_c, 6, 49, 64
5, 74646, Control_c, 6, 64, 0
5, 75152, Note_on_c, 6, 50, 37
5, 75152, Note_on_c, 6, 56, 53
5, 75648, Note_off_c, 6, 50, 64
5, 75657, Note_off_c, 6, 56, 64
5, 75657, Note_on_c, 6, 56, 61
5, 75657, Note_on_c, 6, 50, 50
5, 75763, Note_off_c, 6, 50, 64
5, 75785, Note_off_c, 6, 56, 64
5, 76412, Note_on_c, 6, 49, 45
5, 76419, Note_on_c, 6, 54, 50
5, 76428, Control_c, 6, 64, 127
5, 76470, Note_off_c, 6, 54, 64
5, 76502, Note_off_c, 6, 49, 64
5, 76816, Note_on_c, 6, 49, 45
5, 76825, Note_on_c, 6, 54, 63
5, 76864, Note_off_c, 6, 54, 64
5, 76876, Note_off_c, 6, 49, 64
5, 76950, Control_c, 6, 64, 0
5, 77516, Control_c, 6, 64, 127
5, 77590, Note_on_c, 6, 49, 39
5, 77596, Note_on_c, 6, 54, 50
5, 77644, Note_off_c, 6, 54, 64
5, 77657, Note_off_c, 6, 49, 64
5, 77968, Note_on_c, 6, 49, 47
5, 77968, Note_on_c, 6, 54, 67
5, 78019, Note_off_c, 6, 54, 64
5, 78028, Note_off_c, 6, 49, 64
5, 78108, Control_c, 6, 64, 0
5, 78716, Note_on_c, 6, 49, 45
5, 78723, Note_on_c, 6, 56, 50
5, 78732, Control_c, 6, 64, 127
5, 78774, Note_off_c, 6, 56, 64
5, 78806, Note_off_c, 6, 49, 64
5, 79120, Note_on_c, 6, 49, 45
5, 79129, Note_on_c, 6, 56, 63
5, 79168, Note_off_c, 6, 56, 64
5, 79180, Note_off_c, 6, 49, 64
5, 79254, Control_c, 6, 64, 0
5, 79820, Control_c, 6, 64, 127
5, 79894, Note_on_c, 6, 49, 39
5, 79900, Note_on_c, 6, 56, 50
5, 79948, Note_off_c, 6, 56, 64
5, 79961, Note_off_c, 6, 49, 64
5, 80272, Note_on_c, 6, 49, 47
5, 80272, Note_on_c, 6, 56, 67
5, 80323, Note_off_c, 6, 56, 64
5, 80332, Note_off_c, 6, 49, 64
5, 80412, Control_c, 6, 64, 0
5, 81020, Note_on_c, 6, 49, 45
5, 81027, Note_on_c, 6, 54, 50
5, 81036, Control_c, 6, 64, 127
5, 81078, Note_off_c, 6, 54, 64
5, 81110, Note_off_c, 6, 49, 64
5, 81424, Note_on_c, 6, 49, 45
5, 81433, Note_on_c, 6, 54, 63
5, 81472, Note_off_c, 6, 54, 64
5, 81484, Note_off_c, 6, 49, 64
5, 81558, Control_c, 6, 64, 0
5, 82064, Note_on_c, 6, 51, 37
5, 82064, Note_on_c, 6, 57, 53
5, 82560, Note_off_c, 6, 51, 64
5, 82569, Note_off_c, 6, 57, 64
5, 82569, Note_on_c, 6, 57, 61
5, 82569, Note_on_c, 6, 51, 50
5, 82675, Note_off_c, 6, 51, 64
5, 82697, Note_off_c, 6, 57, 64
5, 83328, Note_on_c, 6, 49, 45
5, 83328, Note_on_c, 6, 56, 50
5, 83328, Control_c, 6, 64, 127
5, 83667, Note_off_c, 6, 56, 64
5, 83705, Note_off_c, 6, 49, 64
5, 83712, Note_on_c, 6, 49, 45
5, 83712, Note_on_c, 6, 56, 63
5, 83772, Note_off_c, 6, 56, 64
5, 83772, Note_off_c, 6, 49, 64
5, 83772, Control_c, 6, 64, 0
5, 84480, Control_c, 6, 64, 127
5, 84480, Note_on_c, 6, 49, 39
5, 84480, Note_on_c, 6, 56, 50
5, 84816, Note_off_c, 6, 56, 64
5, 84835, Note_off_c, 6, 49, 64
5, 84864, Note_on_c, 6, 49, 47
5, 84864, Note_on_c, 6, 56, 67
5, 84924, Note_off_c, 6, 56, 64
5, 84924, Note_off_c, 6, 49, 64
5, 84924, Control_c, 6, 64, 0
5, 85628, Note_on_c, 6, 49, 45
5, 85635, Note_on_c, 6, 56, 50
5, 85644, Control_c, 6, 64, 127
5, 85686, Note_off_c, 6, 56, 64
5, 85718, Note_off_c, 6, 49, 64
5, 86032, Note_on_c, 6, 49, 45
5, 86041, Note_on_c, 6, 56, 63
5, 86080, Note_off_c, 6, 56, 64
5, 86092, Note_off_c, 6, 49, 64
5, 86166, Control_c, 6, 64, 0
5, 86672, Note_on_c, 6, 49, 37
5, 86672, Note_on_c, 6, 54, 53
5, 87168, Note_off_c, 6, 49, 64
5, 87177, Note_off_c, 6, 54, 64
5, 87177, Note_on_c, 6, 54, 61
5, 87177, Note_on_c, 6, 49, 50
5, 87283, Note_off_c, 6, 49, 64
5, 87305, Note_off_c, 6, 54, 64
5, 87936, Note_on_c, 6, 49, 45
5, 87936, Note_on_c, 6, 58, 50
5, 87936, Control_c, 6, 64, 127
5, 88275, Note_off_c, 6, 58, 64
5, 88313, Note_off_c, 6, 49, 64
5, 88320, Note_on_c, 6, 49, 45
5, 88320, Note_on_c, 6, 58, 63
5, 88380, Note_off_c, 6, 58, 64
5, 88380, Note_off_c, 6, 49, 64
5, 88380, Control_c, 6, 64, 0
5, 89088, Control_c, 6, 64, 127
5, 89088, Note_on_c, 6, 49, 39
5, 89088, Note_on_c, 6, 58, 50
5, 89424, Note_off_c, 6, 58, 64
5, 89443, Note_off_c, 6, 49, 64
5, 89472, Note_on_c, 6, 49, 47
5, 89472, Note_on_c, 6, 58, 67
5, 89532, Note_off_c, 6, 58, 64
5, 89532, Note_off_c, 6, 49, 64
5, 89532, Control_c, 6, 64, 0
5, 90236, Note_on_c, 6, 49, 45
5, 90243, Note_on_c, 6, 54, 50
5, 90252, Control_c, 6, 64, 127
5, 90294, Note_off_c, 6, 54, 64
5, 90326, Note_off_c, 6, 49, 64
5, 90640, Note_on_c, 6, 49, 45
5, 90649, Note_on_c, 6, 54, 63
5, 90688, Note_off_c, 6, 54, 64
5, 90700, Note_off_c, 6, 49, 64
5, 90774, Control_c, 6, 64, 0
5, 91340, Control_c, 6, 64, 127
5, 91414, Note_on_c, 6, 49, 39
5, 91420, Note_on_c, 6, 54, 50
5, 91468, Note_off_c, 6, 54, 64
5, 91481, Note_off_c, 6, 49, 64
5, 91792, Note_on_c, 6, 49, 47
5, 91792, Note_on_c, 6, 54, 67
5, 91843, Note_off_c, 6, 54, 64
5, 91852, Note_off_c, 6, 49, 64
5, 91932, Control_c, 6, 64, 0
5, 92544, Note_on_c, 6, 56, 63
5, 92544, Note_on_c, 6, 49, 42
5, 92544, Control_c, 6, 64, 127
5, 92649, Note_off_c, 6, 56, 64
5, 92659, Note_off_c, 6, 49, 64
5, 92928, Note_on_c, 6, 56, 69
5, 92928, Note_on_c, 6, 49, 42
5, 93020, Note_off_c, 6, 56, 64
5, 93043, Note_off_c, 6, 49, 64
5, 93196, Control_c, 6, 64, 0
5, 93580, Note_on_c, 6, 49, 39
5, 93580, Note_on_c, 6, 56, 67
5, 93580, Control_c, 6, 64, 127
5, 93664, Note_off_c, 6, 56, 64
5, 93696, Note_off_c, 6, 49, 64
5, 93824, Control_c, 6, 64, 0
5, 94080, Note_on_c, 6, 56, 53
5, 94080, Note_on_c, 6, 49, 32
5, 94208, Control_c, 6, 64, 127
5, 94249, Note_off_c, 6, 56, 64
5, 94281, Note_off_c, 6, 49, 64
5, 94464, Control_c, 6, 64, 0
5, 94844, Note_on_c, 6, 49, 45
5, 94851, Note_on_c, 6, 54, 50
5, 94860, Control_c, 6, 64, 127
5, 94902, Note_off_c, 6, 54, 64
5, 94934, Note_off_c, 6, 49, 64
5, 95248, Note_on_c, 6, 49, 45
5, 95257, Note_on_c, 6, 54, 63
5, 95296, Note_off_c, 6, 54, 64
5, 95308, Note_off_c, 6, 49, 64
5, 95382, Control_c, 6, 64, 0
5, 95888, Note_on_c, 6, 51, 37
5, 95888, Note_on_c, 6, 57, 53
5, 96384, Note_off_c, 6, 51, 64
5, 96393, Note_off_c, 6, 57, 64
5, 96393, Note_on_c, 6, 57, 61
5, 96393, Note_on_c, 6, 51, 50
5, 96499, Note_off_c, 6, 51, 64
5, 96521, Note_off_c, 6, 57, 64
5, 97148, Note_on_c, 6, 49, 45
5, 97155, Note_on_c, 6, 55, 50
5, 97164, Control_c, 6, 64, 127
5, 97206, Note_off_c, 6, 55, 64
5, 97238, Note_off_c, 6, 49, 64
5, 97552, Note_on_c, 6, 49, 45
5, 97561, Note_on_c, 6, 55, 63
5, 97600, Note_off_c, 6, 55, 64
5, 97612, Note_off_c, 6, 49, 64
5, 97686, Control_c, 6, 64, 0
5, 98192, Note_on_c, 6, 51, 37
5, 98192, Note_on_c, 6, 57, 53
5, 98688, Note_off_c, 6, 51, 64
5, 98697, Note_off_c, 6, 57, 64
5, 98697, Note_on_c, 6, 57, 61
5, 98697, Note_on_c, 6, 51, 50
5, 98803, Note_off_c, 6, 51, 64
5, 98825, Note_off_c, 6, 57, 64
5, 99452, Note_on_c, 6, 49, 45
5, 99459, Note_on_c, 6, 56, 50
5, 99468, Control_c, 6, 64, 127
5, 99510, Note_off_c, 6, 56, 64
5, 99542, Note_off_c, 6, 49, 64
5, 99856, Note_on_c, 6, 49, 45
5, 99865, Note_on_c, 6, 56, 63
5, 99904, Note_off_c, 6, 56, 64
5, 99916, Note_off_c, 6, 49, 64
5, 99990, Control_c, 6, 64, 0
5, 100496, Note_on_c, 6, 49, 37
5, 100496, Note_on_c, 6, 54, 53
5, 100992, Note_off_c, 6, 49, 64
5, 101001, Note_off_c, 6, 54, 64
5, 101001, Note_on_c, 6, 54, 61
5, 101001, Note_on_c, 6, 49, 50
5, 101107, Note_off_c, 6, 49, 64
5, 101129, Note_off_c, 6, 54, 64
5, 101760, Note_on_c, 6, 49, 45
5, 101760, Note_on_c, 6, 56, 50
5, 101760, Control_c, 6, 64, 127
5, 102099, Note_off_c, 6, 56, 64
5, 102137, Note_off_c, 6, 49, 64
5, 102144, Note_on_c, 6, 49, 45
5, 102144, Note_on_c, 6, 56, 63
5, 102204, Note_off_c, 6, 56, 64
5, 102204, Note_off_c, 6, 49, 64
5, 102204, Control_c, 6, 64, 0
5, 102912, Control_c, 6, 64, 127
5, 102912, Note_on_c, 6, 49, 39
5, 102912, Note_on_c, 6, 56, 50
5, 103248, Note_off_c, 6, 56, 64
5, 103267, Note_off_c, 6, 49, 64
5, 103296, Note_on_c, 6, 49, 47
5, 103296, Note_on_c, 6, 56, 67
5, 103356, Note_off_c, 6, 56, 64
5, 103356, Note_off_c, 6, 49, 64
5, 103356, Control_c, 6, 64, 0
5, 104060, Note_on_c, 6, 49, 45
5, 104067, Note_on_c, 6, 55, 50
5, 104076, Control_c, 6, 64, 127
5, 104118, Note_off_c, 6, 55, 64
5, 104150, Note_off_c, 6, 49, 64
5, 104464, Note_on_c, 6, 49, 45
5, 104473, Note_on_c, 6, 55, 63
5, 104512, Note_off_c, 6, 55, 64
5, 104524, Note_off_c, 6, 49, 64
5, 104598, Control_c, 6, 64, 0
5, 105164, Control_c, 6, 64, 127
5, 105238, Note_on_c, 6, 49, 39
5, 105244, Note_on_c, 6, 55, 50
5, 105292, Note_off_c, 6, 55, 64
5, 105305, Note_off_c, 6, 49, 64
5, 105616, Note_on_c, 6, 49, 47
5, 105616, Note_on_c, 6, 55, 67
5, 105667, Note_off_c, 6, 55, 64
5, 105676, Note_off_c, 6, 49, 64
5, 105756, Control_c, 6, 64, 0
5, 106368, Note_on_c, 6, 56, 63
5, 106368, Note_on_c, 6, 49, 42
5, 106368, Control_c, 6, 64, 127
5, 106473, Note_off_c, 6, 56, 64
5, 106483, Note_off_c, 6, 49, 64
5, 106752, Note_on_c, 6, 56, 69
5, 106752, Note_on_c, 6, 49, 42
5, 106844, Note_off_c, 6, 56, 64
5, 106867, Note_off_c, 6, 49, 64
5, 107020, Control_c, 6, 64, 0
5, 107404, Note_on_c, 6, 49, 39
5, 107404, Note_on_c, 6, 56, 67
5, 107404, Control_c, 6, 64, 127
5, 107488, Note_off_c, 6, 56, 64
5, 107520, Note_off_c, 6, 49, 64
5, 107648, Control_c, 6, 64, 0
5, 107904, Note_on_c, 6, 56, 53
5, 107904, Note_on_c, 6, 49, 32
5, 108032, Control_c, 6, 64, 127
5, 108073, Note_off_c, 6, 56, 64
5, 108105, Note_off_c, 6, 49, 64
5, 108288, Control_c, 6, 64, 0
5, 108668, Note_on_c, 6, 49, 45
5, 108675, Note_on_c, 6, 54, 50
5, 108684, Control_c, 6, 64, 127
5, 108726, Note_off_c, 6, 54, 64
5, 108758, Note_off_c, 6, 49, 64
5, 109072, Note_on_c, 6, 49, 45
5, 109081, Note_on_c, 6, 54, 63
5, 109120, Note_off_c, 6, 54, 64
5, 109132, Note_off_c, 6, 49, 64
5, 109206, Control_c, 6, 64, 0
5, 109712, Note_on_c, 6, 51, 37
5, 109712, Note_on_c, 6, 57, 53
5, 110208, Note_off_c, 6, 51, 64
5, 110217, Note_off_c, 6, 57, 64
5, 110217, Note_on_c, 6, 57, 61
5, 110217, Note_on_c, 6, 51, 50
5, 110323, Note_off_c, 6, 51, 64
5, 110345, Note_off_c, 6, 57, 64
5, 110976, Note_on_c, 6, 49, 45
5, 110976, Note_on_c, 6, 56, 50
5, 110976, Control_c, 6, 64, 127
5, 111315, Note_off_c, 6, 56, 64
5, 111353, Note_off_c, 6, 49, 64
5, 111360, Note_on_c, 6, 49, 45
5, 111360, Note_on_c, 6, 56, 63
5, 111420, Note_off_c, 6, 56, 64
5, 111420, Note_off_c, 6, 49, 64
5, 111420, Control_c, 6, 64, 0
5, 112128, Control_c, 6, 64, 127
5, 112128, Note_on_c, 6, 49, 39
5, 112128, Note_on_c, 6, 56, 50
5, 112464, Note_off_c, 6, 56, 64
5, 112483, Note_off_c, 6, 49, 64
5, 112512, Note_on_c, 6, 49, 47
5, 112512, Note_on_c, 6, 56, 67
5, 112572, Note_off_c, 6, 56, 64
5, 112572, Note_off_c, 6, 49, 64
5, 112572, Control_c, 6, 64, 0
5, 113276, Note_on_c, 6, 49, 45
5, 113283, Note_on_c, 6, 58, 50
5, 113292, Control_c, 6, 64, 127
5, 113334, Note_off_c, 6, 58, 64
5, 113366, Note_off_c, 6, 49, 64
5, 113680, Note_on_c, 6, 49, 45
5, 113689, Note_on_c, 6, 58, 63
5, 113728, Note_off_c, 6, 58, 64
5, 113740, Note_off_c, 6, 49, 64
5, 113814, Control_c, 6, 64, 0
5, 114320, Note_on_c, 6, 49, 37
5, 114320, Note_on_c, 6, 54, 53
5, 114816, Note_off_c, 6, 49, 64
5, 114825, Note_off_c, 6, 54, 64
5, 114825, Note_on_c, 6, 54, 61
5, 114825, Note_on_c, 6, 49, 50
5, 114931, Note_off_c, 6, 49, 64
5, 114953, Note_off_c, 6, 54, 64
5, 115580, Note_on_c, 6, 51, 45
5, 115587, Note_on_c, 6, 56, 50
5, 115596, Control_c, 6, 64, 127
5, 115638, Note_off_c, 6, 56, 64
5, 115670, Note_off_c, 6, 51, 64
5, 115984, Note_on_c, 6, 51, 45
5, 115993, Note_on_c, 6, 56, 63
5, 116032, Note_off_c, 6, 56, 64
5, 116044, Note_off_c, 6, 51, 64
5, 116118, Control_c, 6, 64, 0
5, 116624, Note_on_c, 6, 49, 37
5, 116624, Note_on_c, 6, 56, 53
5, 117120, Note_off_c, 6, 49, 64
5, 117129, Note_off_c, 6, 56, 64
5, 117129, Note_on_c, 6, 56, 61
5, 117129, Note_on_c, 6, 49, 50
5, 117235, Note_off_c, 6, 49, 64
5, 117257, Note_off_c, 6, 56, 64
5, 117884, Note_on_c, 6, 49, 45
5, 117891, Note_on_c, 6, 54, 50
5, 117900, Control_c, 6, 64, 127
5, 117942, Note_off_c, 6, 54, 64
5, 117974, Note_off_c, 6, 49, 64
5, 118288, Note_on_c, 6, 49, 45
5, 118297, Note_on_c, 6, 54, 63
5, 118336, Note_off_c, 6, 54, 64
5, 118348, Note_off_c, 6, 49, 64
5, 118422, Control_c, 6, 64, 0
5, 118988, Control_c, 6, 64, 127
5, 119062, Note_on_c, 6, 49, 39
5, 119068, Note_on_c, 6, 54, 50
5, 119116, Note_off_c, 6, 54, 64
5, 119129, Note_off_c, 6, 49, 64
5, 119440, Note_on_c, 6, 49, 47
5, 119440, Note_on_c, 6, 54, 67
5, 119491, Note_off_c, 6, 54, 64
5, 119500, Note_off_c, 6, 49, 64
5, 119580, Control_c, 6, 64, 0
5, 120192, Note_on_c, 6, 49, 45
5, 120192, Note_on_c, 6, 56, 50
5, 120192, Control_c, 6, 64, 127
5, 120531, Note_off_c, 6, 56, 64
5, 120569, Note_off_c, 6, 49, 64
5, 120576, Note_on_c, 6, 49, 45
5, 120576, Note_on_c, 6, 56, 63
5, 120636, Note_off_c, 6, 56, 64
5, 120636, Note_off_c, 6, 49, 64
5, 120636, Control_c, 6, 64, 0
5, 121344, Control_c, 6, 64, 127
5, 121344, Note_on_c, 6, 49, 39
5, 121344, Note_on_c, 6, 56, 50
5, 121680, Note_off_c, 6, 56, 64
5, 121699, Note_off_c, 6, 49, 64
5, 121728, Note_on_c, 6, 49, 47
5, 121728, Note_on_c, 6, 56, 67
5, 121788, Note_off_c, 6, 56, 64
5, 121788, Note_off_c, 6, 49, 64
5, 121788, Control_c, 6, 64, 0
5, 122492, Note_on_c, 6, 49, 45
5, 122499, Note_on_c, 6, 54, 50
5, 122508, Control_c, 6, 64, 127
5, 122550, Note_off_c, 6, 54, 64
5, 122582, Note_off_c, 6, 49, 64
5, 122896, Note_on_c, 6, 49, 45
5, 122905, Note_on_c, 6, 54, 63
5, 122944, Note_off_c, 6, 54, 64
5, 122956, Note_off_c, 6, 49, 64
5, 123030, Control_c, 6, 64, 0
5, 123536, Note_on_c, 6, 51, 37
5, 123536, Note_on_c, 6, 57, 53
5, 124032, Note_off_c, 6, 51, 64
5, 124041, Note_off_c, 6, 57, 64
5, 124041, Note_on_c, 6, 57, 61
5, 124041, Note_on_c, 6, 51, 50
5, 124147, Note_off_c, 6, 51, 64
5, 124169, Note_off_c, 6, 57, 64
5, 124796, Note_on_c, 6, 49, 45
5, 124803, Note_on_c, 6, 56, 50
5, 124812, Control_c, 6, 64, 127
5, 124854, Note_off_c, 6, 56, 64
5, 124886, Note_off_c, 6, 49, 64
5, 125200, Note_on_c, 6, 49, 45
5, 125209, Note_on_c, 6, 56, 63
5, 125248, Note_off_c, 6, 56, 64
5, 125260, Note_off_c, 6, 49, 64
5, 125334, Control_c, 6, 64, 0
5, 125840, Note_on_c, 6, 51, 37
5, 125840, Note_on_c, 6, 57, 53
5, 126336, Note_off_c, 6, 51, 64
5, 126345, Note_off_c, 6, 57, 64
5, 126345, Note_on_c, 6, 57, 61
5, 126345, Note_on_c, 6, 51, 50
5, 126451, Note_off_c, 6, 51, 64
5, 126473, Note_off_c, 6, 57, 64
5, 127100, Note_on_c, 6, 49, 45
5, 127107, Note_on_c, 6, 56, 50
5, 127116, Control_c, 6, 64, 127
5, 127158, Note_off_c, 6, 56, 64
5, 127190, Note_off_c, 6, 49, 64
5, 127504, Note_on_c, 6, 49, 45
5, 127513, Note_on_c, 6, 56, 63
5, 127552, Note_off_c, 6, 56, 64
5, 127564, Note_off_c, 6, 49, 64
5, 127638, Control_c, 6, 64, 0
5, 128144, Note_on_c, 6, 49, 37
5, 128144, Note_on_c, 6, 54, 53
5, 128640, Note_off_c, 6, 49, 64
5, 128649, Note_off_c, 6, 54, 64
5, 128649, Note_on_c, 6, 54, 61
5, 128649, Note_on_c, 6, 49, 50
5, 128755, Note_off_c, 6, 49, 64
5, 128777, Note_off_c, 6, 54, 64
5, 129404, Note_on_c, 6, 49, 45
5, 129411, Note_on_c, 6, 56, 50
5, 129420, Control_c, 6, 64, 127
5, 129462, Note_off_c, 6, 56, 64
5, 129494, Note_off_c, 6, 49, 64
5, 129808, Note_on_c, 6, 49, 45
5, 129817, Note_on_c, 6, 56, 63
5, 129856, Note_off_c, 6, 56, 64
5, 129868, Note_off_c, 6, 49, 64
5, 129942, Control_c, 6, 64, 0
5, 130448, Note_on_c, 6, 50, 37
5, 130448, Note_on_c, 6, 56, 53
5, 130944, Note_off_c, 6, 50, 64
5, 130953, Note_off_c, 6, 56, 64
5, 130953, Note_on_c, 6, 56, 61
5, 130953, Note_on_c, 6, 50, 50
5, 131059, Note_off_c, 6, 50, 64
5, 131081, Note_off_c, 6, 56, 64
5, 131708, Note_on_c, 6, 49, 45
5, 131715, Note_on_c, 6, 54, 50
5, 131724, Control_c, 6, 64, 127
5, 131766, Note_off_c, 6, 54, 64
5, 131798, Note_off_c, 6, 49, 64
5, 132112, Note_on_c, 6, 49, 45
5, 132121, Note_on_c, 6, 54, 63
5, 132160, Note_off_c, 6, 54, 64
5, 132172, Note_off_c, 6, 49, 64
5, 132246, Control_c, 6, 64, 0
5, 132812, Control_c, 6, 64, 127
5, 132886, Note_on_c, 6, 49, 39
5, 132892, Note_on_c, 6, 54, 50
5, 132940, Note_off_c, 6, 54, 64
5, 132953, Note_off_c, 6, 49, 64
5, 133264, Note_on_c, 6, 49, 47
5, 133264, Note_on_c, 6, 54, 67
5, 133315, Note_off_c, 6, 54, 64
5, 133324, Note_off_c, 6, 49, 64
5, 133404, Control_c, 6, 64, 0
5, 134012, Note_on_c, 6, 49, 45
5, 134019, Note_on_c, 6, 56, 50
5, 134028, Control_c, 6, 64, 127
5, 134070, Note_off_c, 6, 56, 64
5, 134102, Note_off_c, 6, 49, 64
5, 134416, Note_on_c, 6, 49, 45
5, 134425, Note_on_c, 6, 56, 63
5, 134464, Note_off_c, 6, 56, 64
5, 134476, Note_off_c, 6, 49, 64
5, 134550, Control_c, 6, 64, 0
5, 135116, Control_c, 6, 64, 127
5, 135190, Note_on_c, 6, 49, 39
5, 135196, Note_on_c, 6, 56, 50
5, 135244, Note_off_c, 6, 56, 64
5, 135257, Note_off_c, 6, 49, 64
5, 135568, Note_on_c, 6, 49, 47
5, 135568, Note_on_c, 6, 56, 67
5, 135619, Note_off_c, 6, 56, 64
5, 135628, Note_off_c, 6, 49, 64
5, 135708, Control_c, 6, 64, 0
5, 136316, Note_on_c, 6, 49, 45
5, 136323, Note_on_c, 6, 54, 50
5, 136332, Control_c, 6, 64, 127
5, 136374, Note_off_c, 6, 54, 64
5, 136406, Note_off_c, 6, 49, 64
5, 136720, Note_on_c, 6, 49, 45
5, 136729, Note_on_c, 6, 54, 63
5, 136768, Note_off_c, 6, 54, 64
5, 136780, Note_off_c, 6, 49, 64
5, 136854, Control_c, 6, 64, 0
5, 137360, Note_on_c, 6, 51, 37
5, 137360, Note_on_c, 6, 57, 53
5, 137856, Note_off_c, 6, 51, 64
5, 137865, Note_off_c, 6, 57, 64
5, 137865, Note_on_c, 6, 57, 61
5, 137865, Note_on_c, 6, 51, 50
5, 137971, Note_off_c, 6, 51, 64
5, 137993, Note_off_c, 6, 57, 64
5, 138620, Note_on_c, 6, 49, 45
5, 138627, Note_on_c, 6, 56, 50
5, 138636, Control_c, 6, 64, 127
5, 138678, Note_off_c, 6, 56, 64
5, 138710, Note_off_c, 6, 49, 64
5, 139024, Note_on_c, 6, 49, 45
5, 139033, Note_on_c, 6, 56, 63
5, 139072, Note_off_c, 6, 56, 64
5, 139084, Note_off_c, 6, 49, 64
5, 139158, Control_c, 6, 64, 0
5, 139724, Control_c, 6, 64, 127
5, 139798, Note_on_c, 6, 49, 39
5, 139804, Note_on_c, 6, 56, 50
5, 139852, Note_off_c, 6, 56, 64
5, 139865, Note_off_c, 6, 49, 64
5, 140176, Note_on_c, 6, 49, 47
5, 140176, Note_on_c, 6, 56, 67
5, 140227, Note_off_c, 6, 56, 64
5, 140236, Note_off_c, 6, 49, 64
5, 140316, Control_c, 6, 64, 0
5, 140924, Note_on_c, 6, 49, 45
5, 140931, Note_on_c, 6, 56, 50
5, 140940, Control_c, 6, 64, 127
5, 140982, Note_off_c, 6, 56, 64
5, 141014, Note_off_c, 6, 49, 64
5, 141328, Note_on_c, 6, 49, 45
5, 141337, Note_on_c, 6, 56, 63
5, 141376, Note_off_c, 6, 56, 64
5, 141388, Note_off_c, 6, 49, 64
5, 141462, Control_c, 6, 64, 0
5, 142076, Note_on_c, 6, 49, 45
5, 142083, Note_on_c, 6, 54, 50
5, 142092, Control_c, 6, 64, 127
5, 142134, Note_off_c, 6, 54, 64
5, 142166, Note_off_c, 6, 49, 64
5, 142464, Control_c, 6, 64, 0
5, 143228, Note_on_c, 6, 49, 45
5, 143235, Note_on_c, 6, 56, 50
5, 143244, Control_c, 6, 64, 127
5, 143286, Note_off_c, 6, 56, 64
5, 143318, Note_off_c, 6, 49, 64
5, 143632, Note_on_c, 6, 49, 45
5, 143641, Note_on_c, 6, 56, 63
5, 143680, Note_off_c, 6, 56, 64
5, 143692, Note_off_c, 6, 49, 64
5, 143766, Control_c, 6, 64, 0
5, 144332, Control_c, 6, 64, 127
5, 144406, Note_on_c, 6, 49, 39
5, 144412, Note_on_c, 6, 56, 50
5, 144460, Note_off_c, 6, 56, 64
5, 144473, Note_off_c, 6, 49, 64
5, 144784, Note_on_c, 6, 49, 47
5, 144784, Note_on_c, 6, 56, 67
5, 144835, Note_off_c, 6, 56, 64
5, 144844, Note_off_c, 6, 49, 64
5, 144924, Control_c, 6, 64, 0
5, 145532, Note_on_c, 6, 49, 45
5, 145539, Note_on_c, 6, 55, 50
5, 145548, Control_c, 6, 64, 127
5, 145590, Note_off_c, 6, 55, 64
5, 145622, Note_off_c, 6, 49, 64
5, 145936, Note_on_c, 6, 49, 45
5, 145945, Note_on_c, 6, 55, 63
5, 145984, Note_off_c, 6, 55, 64
5, 145996, Note_off_c, 6, 49, 64
5, 146070, Control_c, 6, 64, 0
5, 146636, Control_c, 6, 64, 127
5, 146710, Note_on_c, 6, 49, 39
5, 146716, Note_on_c, 6, 55, 50
5, 146764, Note_off_c, 6, 55, 64
5, 146777, Note_off_c, 6, 49, 64
5, 147088, Note_on_c, 6, 49, 47
5, 147088, Note_on_c, 6, 55, 67
5, 147139, Note_off_c, 6, 55, 64
5, 147148, Note_off_c, 6, 49, 64
5, 147228, Control_c, 6, 64, 0
5, 147836, Note_on_c, 6, 49, 45
5, 147843, Note_on_c, 6, 56, 50
5, 147852, Control_c, 6, 64, 127
5, 147894, Note_off_c, 6, 56, 64
5, 147926, Note_off_c, 6, 49, 64
5, 148240, Note_on_c, 6, 49, 45
5, 148249, Note_on_c, 6, 56, 63
5, 148288, Note_off_c, 6, 56, 64
5, 148300, Note_off_c, 6, 49, 64
5, 148374, Control_c, 6, 64, 0
5, 148940, Control_c, 6, 64, 127
5, 149014, Note_on_c, 6, 49, 39
5, 149020, Note_on_c, 6, 56, 50
5, 149068, Note_off_c, 6, 56, 64
5, 149081, Note_off_c, 6, 49, 64
5, 149392, Note_on_c, 6, 49, 47
5, 149392, Note_on_c, 6, 56, 67
5, 149443, Note_off_c, 6, 56, 64
5, 149452, Note_off_c, 6, 49, 64
5, 149532, Control_c, 6, 64, 0
5, 150140, Note_on_c, 6, 51, 45
5, 150147, Note_on_c, 6, 58, 50
5, 150156, Control_c, 6, 64, 127
5, 150198, Note_off_c, 6, 58, 64
5, 150230, Note_off_c, 6, 51, 64
5, 150544, Note_on_c, 6, 51, 45
5, 150553, Note_on_c, 6, 58, 63
5, 150592, Note_off_c, 6, 58, 64
5, 150604, Note_off_c, 6, 51, 64
5, 150678, Control_c, 6, 64, 0
5, 151184, Note_on_c, 6, 51, 37
5, 151184, Note_on_c, 6, 57, 53
5, 151680, Note_off_c, 6, 51, 64
5, 151689, Note_off_c, 6, 57, 64
5, 151689, Note_on_c, 6, 57, 61
5, 151689, Note_on_c, 6, 51, 50
5, 151795, Note_off_c, 6, 51, 64
5, 151817, Note_off_c, 6, 57, 64
5, 152444, Note_on_c, 6, 49, 45
5, 152451, Note_on_c, 6, 55, 50
5, 152460, Control_c, 6, 64, 127
5, 152502, Note_off_c, 6, 55, 64
5, 152534, Note_off_c, 6, 49, 64
5, 152848, Note_on_c, 6, 49, 45
5, 152857, Note_on_c, 6, 55, 63
5, 152896, Note_off_c, 6, 55, 64
5, 152908, Note_off_c, 6, 49, 64
5, 152982, Control_c, 6, 64, 0
5, 153488, Note_on_c, 6, 51, 37
5, 153488, Note_on_c, 6, 57, 53
5, 153984, Note_off_c, 6, 51, 64
5, 153993, Note_off_c, 6, 57, 64
5, 153993, Note_on_c, 6, 57, 61
5, 153993, Note_on_c, 6, 51, 50
5, 154099, Note_off_c, 6, 51, 64
5, 154121, Note_off_c, 6, 57, 64
5, 154748, Note_on_c, 6, 49, 45
5, 154755, Note_on_c, 6, 56, 50
5, 154764, Control_c, 6, 64, 127
5, 154806, Note_off_c, 6, 56, 64
5, 154838, Note_off_c, 6, 49, 64
5, 155152, Note_on_c, 6, 49, 45
5, 155161, Note_on_c, 6, 56, 63
5, 155200, Note_off_c, 6, 56, 64
5, 155212, Note_off_c, 6, 49, 64
5, 155286, Control_c, 6, 64, 0
5, 155792, Note_on_c, 6, 49, 37
5, 155792, Note_on_c, 6, 54, 53
5, 156288, Note_off_c, 6, 49, 64
5, 156297, Note_off_c, 6, 54, 64
5, 156297, Note_on_c, 6, 54, 61
5, 156297, Note_on_c, 6, 49, 50
5, 156403, Note_off_c, 6, 49, 64
5, 156425, Note_off_c, 6, 54, 64
5, 157052, Note_on_c, 6, 49, 45
5, 157059, Note_on_c, 6, 56, 50
5, 157068, Control_c, 6, 64, 127
5, 157110, Note_off_c, 6, 56, 64
5, 157142, Note_off_c, 6, 49, 64
5, 157456, Note_on_c, 6, 49, 45
5, 157465, Note_on_c, 6, 56, 63
5, 157504, Note_off_c, 6, 56, 64
5, 157516, Note_off_c, 6, 49, 64
5, 157590, Control_c, 6, 64, 0
5, 158156, Control_c, 6, 64, 127
5, 158230, Note_on_c, 6, 49, 39
5, 158236, Note_on_c, 6, 56, 50
5, 158284, Note_off_c, 6, 56, 64
5, 158297, Note_off_c, 6, 49, 64
5, 158608, Note_on_c, 6, 49, 47
5, 158608, Note_on_c, 6, 56, 67
5, 158659, Note_off_c, 6, 56, 64
5, 158668, Note_off_c, 6, 49, 64
5, 158748, Control_c, 6, 64, 0
5, 159356, Note_on_c, 6, 49, 45
5, 159363, Note_on_c, 6, 55, 50
5, 159372, Control_c, 6, 64, 127
5, 159414, Note_off_c, 6, 55, 64
5, 159446, Note_off_c, 6, 49, 64
5, 159760, Note_on_c, 6, 49, 45
5, 159769, Note_on_c, 6, 55, 63
5, 159808, Note_off_c, 6, 55, 64
5, 159820, Note_off_c, 6, 49, 64
5, 159894, Control_c, 6, 64, 0
5, 160460, Control_c, 6, 64, 127
5, 160534, Note_on_c, 6, 49, 39
5, 160540, Note_on_c, 6, 55, 50
5, 160588, Note_off_c, 6, 55, 64
5, 160601, Note_off_c, 6, 49, 64
5, 160912, Note_on_c, 6, 49, 47
5, 160912, Note_on_c, 6, 55, 67
5, 160963, Note_off_c, 6, 55, 64
5, 160972, Note_off_c, 6, 49, 64
5, 161052, Control_c, 6, 64, 0
5, 161664, Note_on_c, 6, 56, 63
5, 161664, Note_on_c, 6, 49, 42
5, 161664, Control_c, 6, 64, 127
5, 161769, Note_off_c, 6, 56, 64
5, 161779, Note_off_c, 6, 49, 64
5, 162048, Note_on_c, 6, 56, 69
5, 162048, Note_on_c, 6, 49, 42
5, 162140, Note_off_c, 6, 56, 64
5, 162163, Note_off_c, 6, 49, 64
5, 162316, Control_c, 6, 64, 0
5, 162700, Note_on_c, 6, 49, 39
5, 162700, Note_on_c, 6, 56, 67
5, 162700, Control_c, 6, 64, 127
5, 162784, Note_off_c, 6, 56, 64
5, 162816, Note_off_c, 6, 49, 64
5, 162944, Control_c, 6, 64, 0
5, 163200, Note_on_c, 6, 56, 53
5, 163200, Note_on_c, 6, 49, 32
5, 163328, Control_c, 6, 64, 127
5, 163369, Note_off_c, 6, 56, 64
5, 163401, Note_off_c, 6, 49, 64
5, 163584, Control_c, 6, 64, 0
5, 163964, Note_on_c, 6, 51, 45
5, 163971, Note_on_c, 6, 58, 50
5, 163980, Control_c, 6, 64, 127
5, 164022, Note_off_c, 6, 58, 64
5, 164054, Note_off_c, 6, 51, 64
5, 164368, Note_on_c, 6, 51, 45
5, 164377, Note_on_c, 6, 58, 63
5, 164416, Note_off_c, 6, 58, 64
5, 164428, Note_off_c, 6, 51, 64
5, 164502, Control_c, 6, 64, 0
5, 165008, Note_on_c, 6, 51, 37
5, 165008, Note_on_c, 6, 57, 53
5, 165504, Note_off_c, 6, 51, 64
5, 165513, Note_off_c, 6, 57, 64
5, 165513, Note_on_c, 6, 57, 61
5, 165513, Note_on_c, 6, 51, 50
5, 165619, Note_off_c, 6, 51, 64
5, 165641, Note_off_c, 6, 57, 64
5, 166268, Note_on_c, 6, 49, 45
5, 166275, Note_on_c, 6, 55, 50
5, 166284, Control_c, 6, 64, 127
5, 166326, Note_off_c, 6, 55, 64
5, 166358, Note_off_c, 6, 49, 64
5, 166672, Note_on_c, 6, 49, 45
5, 166681, Note_on_c, 6, 55, 63
5, 166720, Note_off_c, 6, 55, 64
5, 166732, Note_off_c, 6, 49, 64
5, 166806, Control_c, 6, 64, 0
5, 167312, Note_on_c, 6, 51, 37
5, 167312, Note_on_c, 6, 57, 53
5, 167808, Note_off_c, 6, 51, 64
5, 167817, Note_off_c, 6, 57, 64
5, 167817, Note_on_c, 6, 57, 61
5, 167817, Note_on_c, 6, 51, 50
5, 167923, Note_off_c, 6, 51, 64
5, 167945, Note_off_c, 6, 57, 64
5, 168588, Control_c, 6, 64, 127
5, 169110, Control_c, 6, 64, 0
5, 169728, Control_c, 6, 64, 15
5, 169728, Control_c, 6, 64, 15
5, 170496, Control_c, 6, 64, 0
5, 170497, Marker_t, "End of pattern\000"
5, 170497, End_track
6, 0, Start_track
6, 0, Marker_t, "Start of pattern\000"
6, 0, Title_t, "Piano solo\000"
6, 0, Program_c, 3, 0
6, 0, Control_c, 3, 123, 0
6, 0, Control_c, 3, 91, 40
6, 0, Control_c, 3, 93, 0
6, 2304, Program_c, 0, 0
6, 2304, Note_on_c, 3, 70, 47
6, 2304, Note_on_c, 3, 46, 50
6, 2304, Note_on_c, 3, 53, 48
6, 2688, Note_off_c, 3, 53, 64
6, 2688, Note_off_c, 3, 46, 64
6, 2688, Note_on_c, 3, 56, 70
6, 2688, Note_on_c, 3, 58, 63
6, 2688, Note_on_c, 3, 61, 66
6, 2688, Note_on_c, 3, 66, 63
6, 3072, Note_off_c, 3, 66, 64
6, 3072, Note_off_c, 3, 61, 64
6, 3072, Note_off_c, 3, 58, 64
6, 3072, Note_off_c, 3, 56, 64
6, 3072, Note_on_c, 3, 56, 61
6, 3072, Note_on_c, 3, 58, 55
6, 3072, Note_on_c, 3, 61, 61
6, 3072, Note_on_c, 3, 65, 59
6, 3456, Note_off_c, 3, 65, 64
6, 3456, Note_off_c, 3, 61, 64
6, 3456, Note_off_c, 3, 58, 64
6, 3456, Note_off_c, 3, 56, 64
6, 3456, Note_off_c, 3, 70, 64
6, 3456, Note_on_c, 3, 80, 70
6, 3456, Note_on_c, 3, 39, 38
6, 3456, Note_on_c, 3, 46, 41
6, 3840, Note_off_c, 3, 46, 64
6, 3840, Note_off_c, 3, 39, 64
6, 3840, Note_on_c, 3, 54, 62
6, 3840, Note_on_c, 3, 58, 60
6, 3840, Note_on_c, 3, 61, 58
6, 3840, Note_on_c, 3, 65, 58
6, 4224, Note_off_c, 3, 65, 64
6, 4224, Note_off_c, 3, 61, 64
6, 4224, Note_off_c, 3, 58, 64
6, 4224, Note_off_c, 3, 54, 64
6, 4224, Note_on_c, 3, 54, 53
6, 4224, Note_on_c, 3, 57, 53
6, 4224, Note_on_c, 3, 60, 55
6, 4224, Note_on_c, 3, 64, 51
6, 4608, Note_off_c, 3, 64, 64
6, 4608, Note_off_c, 3, 60, 64
6, 4608, Note_off_c, 3, 57, 64
6, 4608, Note_off_c, 3, 54, 64
6, 4608, Note_off_c, 3, 80, 64
6, 4608, Note_on_c, 3, 81, 90
6, 4608, Note_on_c, 3, 46, 48
6, 4608, Note_on_c, 3, 53, 47
6, 4800, Note_off_c, 3, 81, 64
6, 4800, Note_on_c, 3, 80, 76
6, 4992, Note_off_c, 3, 53, 64
6, 4992, Note_off_c, 3, 46, 64
6, 4992, Note_off_c, 3, 80, 64
6, 4992, Note_on_c, 3, 81, 67
6, 4992, Note_on_c, 3, 53, 52
6, 4992, Note_on_c, 3, 56, 53
6, 4992, Note_on_c, 3, 60, 52
6, 4992, Note_on_c, 3, 63, 52
6, 5184, Note_off_c, 3, 81, 64
6, 5184, Note_on_c, 3, 80, 56
6, 5376, Note_off_c, 3, 63, 64
6, 5376, Note_off_c, 3, 60, 64
6, 5376, Note_off_c, 3, 56, 64
6, 5376, Note_off_c, 3, 53, 64
6, 5376, Note_off_c, 3, 80, 64
6, 5376, Note_on_c, 3, 72, 38
6, 5376, Note_on_c, 3, 53, 49
6, 5376, Note_on_c, 3, 56, 53
6, 5376, Note_on_c, 3, 60, 55
6, 5376, Note_on_c, 3, 63, 51
6, 5760, Note_off_c, 3, 63, 64
6, 5760, Note_off_c, 3, 60, 64
6, 5760, Note_off_c, 3, 56, 64
6, 5760, Note_off_c, 3, 53, 64
6, 5760, Note_on_c, 3, 46, 36
6, 5760, Note_on_c, 3, 53, 39
6, 6144, Note_off_c, 3, 53, 64
6, 6144, Note_off_c, 3, 46, 64
6, 6144, Note_off_c, 3, 72, 64
6, 6144, Note_on_c, 3, 81, 95
6, 6144, Note_on_c, 3, 53, 65
6, 6144, Note_on_c, 3, 56, 65
6, 6144, Note_on_c, 3, 60, 69
6, 6144, Note_on_c, 3, 63, 63
6, 6336, Note_off_c, 3, 81, 64
6, 6336, Note_on_c, 3, 80, 76
6, 6528, Note_off_c, 3, 63, 64
6, 6528, Note_off_c, 3, 60, 64
6, 6528, Note_off_c, 3, 56, 64
6, 6528, Note_off_c, 3, 53, 64
6, 6528, Note_off_c, 3, 80, 64
6, 6528, Note_on_c, 3, 81, 89
6, 6528, Note_on_c, 3, 53, 68
6, 6528, Note_on_c, 3, 56, 66
6, 6528, Note_on_c, 3, 60, 66
6, 6528, Note_on_c, 3, 63, 66
6, 6720, Note_off_c, 3, 81, 64
6, 6720, Note_on_c, 3, 80, 72
6, 6912, Note_off_c, 3, 63, 64
6, 6912, Note_off_c, 3, 60, 64
6, 6912, Note_off_c, 3, 56, 64
6, 6912, Note_off_c, 3, 53, 64
6, 6912, Note_off_c, 3, 80, 64
6, 6912, Note_on_c, 3, 82, 83
6, 6912, Note_on_c, 3, 39, 44
6, 6912, Note_on_c, 3, 46, 48
6, 7104, Note_off_c, 3, 82, 64
6, 7104, Note_on_c, 3, 81, 66
6, 7296, Note_off_c, 3, 46, 64
6, 7296, Note_off_c, 3, 39, 64
6, 7296, Note_off_c, 3, 81, 64
6, 7296, Note_on_c, 3, 82, 61
6, 7296, Note_on_c, 3, 55, 58
6, 7296, Note_on_c, 3, 58, 58
6, 7296, Note_on_c, 3, 61, 52
6, 7296, Note_on_c, 3, 65, 58
6, 7488, Note_off_c, 3, 82, 64
6, 7488, Note_on_c, 3, 81, 52
6, 7680, Note_off_c, 3, 65, 64
6, 7680, Note_off_c, 3, 61, 64
6, 7680, Note_off_c, 3, 58, 64
6, 7680, Note_off_c, 3, 55, 64
6, 7680, Note_off_c, 3, 81, 64
6, 7680, Note_on_c, 3, 73, 37
6, 7680, Note_on_c, 3, 55, 54
6, 7680, Note_on_c, 3, 58, 58
6, 7680, Note_on_c, 3, 61, 57
6, 7680, Note_on_c, 3, 65, 58
6, 8064, Note_off_c, 3, 65, 64
6, 8064, Note_off_c, 3, 61, 64
6, 8064, Note_off_c, 3, 58, 64
6, 8064, Note_off_c, 3, 55, 64
6, 8064, Note_on_c, 3, 39, 37
6, 8064, Note_on_c, 3, 46, 38
6, 8448, Note_off_c, 3, 46, 64
6, 8448, Note_off_c, 3, 39, 64
6, 8448, Note_off_c, 3, 73, 64
6, 8448, Note_on_c, 3, 82, 87
6, 8448, Note_on_c, 3, 55, 68
6, 8448, Note_on_c, 3, 58, 72
6, 8448, Note_on_c, 3, 61, 72
6, 8448, Note_on_c, 3, 65, 70
6, 8640, Note_off_c, 3, 82, 64
6, 8640, Note_on_c, 3, 81, 71
6, 8832, Note_off_c, 3, 65, 64
6, 8832, Note_off_c, 3, 61, 64
6, 8832, Note_off_c, 3, 58, 64
6, 8832, Note_off_c, 3, 55, 64
6, 8832, Note_off_c, 3, 81, 64
6, 8832, Note_on_c, 3, 82, 81
6, 8832, Note_on_c, 3, 55, 68
6, 8832, Note_on_c, 3, 58, 66
6, 8832, Note_on_c, 3, 61, 71
6, 8832, Note_on_c, 3, 65, 71
6, 9024, Note_off_c, 3, 82, 64
6, 9024, Note_on_c, 3, 81, 69
6, 9216, Note_off_c, 3, 65, 64
6, 9216, Note_off_c, 3, 61, 64
6, 9216, Note_off_c, 3, 58, 64
6, 9216, Note_off_c, 3, 55, 64
6, 9216, Note_off_c, 3, 81, 64
6, 9216, Note_on_c, 3, 84, 67
6, 9216, Note_on_c, 3, 46, 37
6, 9216, Note_on_c, 3, 53, 36
6, 9408, Note_off_c, 3, 84, 64
6, 9408, Note_on_c, 3, 85, 66
6, 9600, Note_off_c, 3, 53, 64
6, 9600, Note_off_c, 3, 46, 64
6, 9600, Note_off_c, 3, 85, 64
6, 9600, Note_on_c, 3, 81, 58
6, 9600, Note_on_c, 3, 56, 58
6, 9600, Note_on_c, 3, 58, 55
6, 9600, Note_on_c, 3, 61, 56
6, 9600, Note_on_c, 3, 65, 56
6, 9792, Note_off_c, 3, 81, 64
6, 9792, Note_on_c, 3, 82, 73
6, 9984, Note_off_c, 3, 65, 64
6, 9984, Note_off_c, 3, 61, 64
6, 9984, Note_off_c, 3, 58, 64
6, 9984, Note_off_c, 3, 56, 64
6, 9984, Note_off_c, 3, 82, 64
6, 9984, Note_on_c, 3, 84, 81
6, 9984, Note_on_c, 3, 56, 64
6, 9984, Note_on_c, 3, 58, 66
6, 9984, Note_on_c, 3, 61, 68
6, 9984, Note_on_c, 3, 65, 64
6, 10176, Note_off_c, 3, 84, 64
6, 10176, Note_on_c, 3, 85, 87
6, 10368, Note_off_c, 3, 65, 64
6, 10368, Note_off_c, 3, 61, 64
6, 10368, Note_off_c, 3, 58, 64
6, 10368, Note_off_c, 3, 56, 64
6, 10368, Note_off_c, 3, 85, 64
6, 10368, Note_on_c, 3, 87, 70
6, 10368, Note_on_c, 3, 44, 38
6, 10368, Note_on_c, 3, 53, 37
6, 10560, Note_off_c, 3, 87, 64
6, 10560, Note_on_c, 3, 89, 67
6, 10752, Note_off_c, 3, 53, 64
6, 10752, Note_off_c, 3, 44, 64
6, 10752, Note_off_c, 3, 89, 64
6, 10752, Note_on_c, 3, 84, 54
6, 10752, Note_on_c, 3, 56, 55
6, 10752, Note_on_c, 3, 58, 58
6, 10752, Note_on_c, 3, 61, 55
6, 10752, Note_on_c, 3, 65, 59
6, 10944, Note_off_c, 3, 84, 64
6, 10944, Note_on_c, 3, 85, 69
6, 11136, Note_off_c, 3, 65, 64
6, 11136, Note_off_c, 3, 61, 64
6, 11136, Note_off_c, 3, 58, 64
6, 11136, Note_off_c, 3, 56, 64
6, 11136, Note_off_c, 3, 85, 64
6, 11136, Note_on_c, 3, 87, 85
6, 11136, Note_on_c, 3, 56, 73
6, 11136, Note_on_c, 3, 58, 71
6, 11136, Note_on_c, 3, 61, 73
6, 11136, Note_on_c, 3, 65, 71
6, 11328, Note_off_c, 3, 87, 64
6, 11328, Note_on_c, 3, 89, 81
6, 11520, Note_off_c, 3, 65, 64
6, 11520, Note_off_c, 3, 61, 64
6, 11520, Note_off_c, 3, 58, 64
6, 11520, Note_off_c, 3, 56, 64
6, 11520, Note_off_c, 3, 89, 64
6, 11520, Note_on_c, 3, 90, 90
6, 11520, Note_on_c, 3, 42, 46
6, 11520, Note_on_c, 3, 49, 46
6, 11712, Note_off_c, 3, 90, 64
6, 11712, Note_on_c, 3, 92, 84
6, 11904, Note_off_c, 3, 49, 64
6, 11904, Note_off_c, 3, 42, 64
6, 11904, Note_off_c, 3, 92, 64
6, 11904, Note_on_c, 3, 89, 68
6, 11904, Note_on_c, 3, 58, 68
6, 11904, Note_on_c, 3, 61, 75
6, 11904, Note_on_c, 3, 63, 70
6, 11904, Note_on_c, 3, 68, 72
6, 12288, Note_off_c, 3, 89, 64
6, 12288, Note_on_c, 3, 87, 65
6, 12480, Note_off_c, 3, 87, 64
6, 12480, Note_on_c, 3, 89, 69
6, 12672, Note_off_c, 3, 68, 64
6, 12672, Note_off_c, 3, 63, 64
6, 12672, Note_off_c, 3, 61, 64
6, 12672, Note_off_c, 3, 58, 64
6, 12672, Note_off_c, 3, 89, 64
6, 12672, Note_on_c, 3, 85, 57
6, 12672, Note_on_c, 3, 41, 52
6, 12672, Note_on_c, 3, 48, 57
6, 13056, Note_off_c, 3, 48, 64
6, 13056, Note_off_c, 3, 41, 64
6, 13056, Note_off_c, 3, 85, 64
6, 13056, Note_on_c, 3, 84, 42
6, 13056, Note_on_c, 3, 57, 87
6, 13056, Note_on_c, 3, 60, 79
6, 13056, Note_on_c, 3, 63, 79
6, 13056, Note_on_c, 3, 66, 84
6, 13248, Note_off_c, 3, 84, 64
6, 13248, Note_on_c, 3, 85, 43
6, 13440, Note_off_c, 3, 66, 64
6, 13440, Note_off_c, 3, 85, 64
6, 13440, Note_on_c, 3, 81, 38
6, 13440, Note_on_c, 3, 65, 61
6, 13824, Note_off_c, 3, 65, 64
6, 13824, Note_off_c, 3, 63, 64
6, 13824, Note_off_c, 3, 60, 64
6, 13824, Note_off_c, 3, 57, 64
6, 13824, Note_off_c, 3, 81, 64
6, 13824, Note_on_c, 3, 84, 46
6, 13824, Note_on_c, 3, 39, 37
6, 13824, Note_on_c, 3, 46, 39
6, 14016, Note_off_c, 3, 84, 64
6, 14016, Note_on_c, 3, 82, 39
6, 14073, Note_off_c, 3, 82, 64
6, 14073, Note_on_c, 3, 84, 48
6, 14144, Note_off_c, 3, 84, 64
6, 14147, Note_on_c, 3, 82, 39
6, 14204, Note_off_c, 3, 82, 64
6, 14208, Note_off_c, 3, 46, 64
6, 14208, Note_off_c, 3, 39, 64
6, 14208, Note_on_c, 3, 76, 34
6, 14208, Note_on_c, 3, 55, 54
6, 14208, Note_on_c, 3, 58, 58
6, 14208, Note_on_c, 3, 61, 58
6, 14208, Note_on_c, 3, 66, 54
6, 14592, Note_off_c, 3, 66, 64
6, 14592, Note_off_c, 3, 76, 64
6, 14592, Note_on_c, 3, 75, 36
6, 14592, Note_on_c, 3, 67, 58
6, 14784, Note_off_c, 3, 75, 64
6, 14784, Note_on_c, 3, 73, 33
6, 14976, Note_off_c, 3, 67, 64
6, 14976, Note_off_c, 3, 61, 64
6, 14976, Note_off_c, 3, 58, 64
6, 14976, Note_off_c, 3, 55, 64
6, 14976, Note_off_c, 3, 73, 64
6, 14976, Note_on_c, 3, 75, 43
6, 14976, Note_on_c, 3, 41, 40
6, 14976, Note_on_c, 3, 48, 39
6, 15360, Note_off_c, 3, 48, 64
6, 15360, Note_off_c, 3, 41, 64
6, 15360, Note_off_c, 3, 75, 64
6, 15360, Note_on_c, 3, 75, 36
6, 15360, Note_on_c, 3, 57, 48
6, 15360, Note_on_c, 3, 60, 48
6, 15360, Note_on_c, 3, 63, 49
6, 15360, Note_on_c, 3, 68, 46
6, 15552, Note_off_c, 3, 75, 64
6, 15552, Note_on_c, 3, 73, 29
6, 15744, Note_off_c, 3, 68, 64
6, 15744, Note_off_c, 3, 63, 64
6, 15744, Note_off_c, 3, 60, 64
6, 15744, Note_off_c, 3, 57, 64
6, 15744, Note_off_c, 3, 73, 64
6, 15744, Note_on_c, 3, 69, 26
6, 15744, Note_on_c, 3, 66, 43
6, 15936, Note_off_c, 3, 66, 64
6, 15936, Note_on_c, 3, 65, 37
6, 16128, Note_off_c, 3, 65, 64
6, 16128, Note_off_c, 3, 69, 64
6, 16128, Note_on_c, 3, 70, 41
6, 16128, Note_on_c, 3, 46, 34
6, 16128, Note_on_c, 3, 53, 34
6, 16512, Note_off_c, 3, 53, 64
6, 16512, Note_off_c, 3, 46, 64
6, 16512, Note_on_c, 3, 66, 70
6, 16896, Note_off_c, 3, 66, 64
6, 16896, Note_on_c, 3, 65, 52
6, 17280, Note_off_c, 3, 65, 64
6, 17280, Note_off_c, 3, 70, 64
6, 17280, Note_on_c, 3, 80, 62
6, 17280, Note_on_c, 3, 39, 36
6, 17280, Note_on_c, 3, 46, 36
6, 17664, Note_off_c, 3, 46, 64
6, 17664, Note_off_c, 3, 39, 64
6, 17664, Note_on_c, 3, 65, 70
6, 18048, Note_off_c, 3, 65, 64
6, 18048, Note_on_c, 3, 64, 48
6, 18432, Note_off_c, 3, 64, 64
6, 18432, Note_off_c, 3, 80, 64
6, 18432, Note_on_c, 3, 81, 85
6, 18432, Note_on_c, 3, 46, 47
6, 18432, Note_on_c, 3, 53, 44
6, 18624, Note_off_c, 3, 81, 64
6, 18624, Note_on_c, 3, 80, 75
6, 18816, Note_off_c, 3, 53, 64
6, 18816, Note_off_c, 3, 46, 64
6, 18816, Note_off_c, 3, 80, 64
6, 18816, Note_on_c, 3, 81, 63
6, 18816, Note_on_c, 3, 64, 74
6, 19008, Note_off_c, 3, 81, 64
6, 19008, Note_on_c, 3, 80, 52
6, 19200, Note_off_c, 3, 64, 64
6, 19200, Note_off_c, 3, 80, 64
6, 19200, Note_on_c, 3, 72, 39
6, 19200, Note_on_c, 3, 63, 48
6, 19584, Note_off_c, 3, 63, 64
6, 19584, Note_on_c, 3, 46, 36
6, 19584, Note_on_c, 3, 53, 38
6, 19968, Note_off_c, 3, 53, 64
6, 19968, Note_off_c, 3, 46, 64
6, 19968, Note_off_c, 3, 72, 64
6, 19968, Note_on_c, 3, 81, 92
6, 19968, Note_on_c, 3, 63, 85
6, 20160, Note_off_c, 3, 81, 64
6, 20160, Note_on_c, 3, 80, 76
6, 20352, Note_off_c, 3, 63, 64
6, 20352, Note_off_c, 3, 80, 64
6, 20352, Note_on_c, 3, 81, 81
6, 20352, Note_on_c, 3, 62, 58
6, 20544, Note_off_c, 3, 81, 64
6, 20544, Note_on_c, 3, 80, 65
6, 20736, Note_off_c, 3, 62, 64
6, 20736, Note_off_c, 3, 80, 64
6, 20736, Note_on_c, 3, 82, 83
6, 20736, Note_on_c, 3, 39, 45
6, 20736, Note_on_c, 3, 55, 48
6, 20736, Note_on_c, 3, 46, 47
6, 20928, Note_off_c, 3, 82, 64
6, 20928, Note_on_c, 3, 81, 70
6, 21120, Note_off_c, 3, 46, 64
6, 21120, Note_off_c, 3, 81, 64
6, 21120, Note_on_c, 3, 82, 61
6, 21120, Note_on_c, 3, 46, 34
6, 21312, Note_off_c, 3, 82, 64
6, 21312, Note_on_c, 3, 81, 54
6, 21504, Note_off_c, 3, 46, 64
6, 21504, Note_off_c, 3, 81, 64
6, 21504, Note_on_c, 3, 73, 36
6, 21504, Note_on_c, 3, 46, 33
6, 21888, Note_off_c, 3, 46, 64
6, 21888, Note_on_c, 3, 65, 74
6, 22272, Note_off_c, 3, 73, 64
6, 22272, Note_on_c, 3, 82, 92
6, 22272, Note_on_c, 3, 61, 45
6, 22464, Note_off_c, 3, 82, 64
6, 22464, Note_on_c, 3, 81, 71
6, 22656, Note_off_c, 3, 61, 64
6, 22656, Note_off_c, 3, 81, 64
6, 22656, Note_on_c, 3, 82, 81
6, 22656, Note_on_c, 3, 61, 45
6, 22848, Note_off_c, 3, 82, 64
6, 22848, Note_on_c, 3, 81, 72
6, 23040, Note_off_c, 3, 61, 64
6, 23040, Note_off_c, 3, 65, 64
6, 23040, Note_off_c, 3, 55, 64
6, 23040, Note_off_c, 3, 39, 64
6, 23040, Note_off_c, 3, 81, 64
6, 23040, Note_on_c, 3, 84, 67
6, 23040, Note_on_c, 3, 46, 36
6, 23040, Note_on_c, 3, 53, 36
6, 23040, Note_on_c, 3, 66, 45
6, 23232, Note_off_c, 3, 66, 64
6, 23232, Note_off_c, 3, 84, 64
6, 23232, Note_on_c, 3, 85, 66
6, 23232, Note_on_c, 3, 65, 38
6, 23424, Note_off_c, 3, 65, 64
6, 23424, Note_off_c, 3, 85, 64
6, 23424, Note_on_c, 3, 81, 53
6, 23424, Note_on_c, 3, 66, 44
6, 23616, Note_off_c, 3, 66, 64
6, 23616, Note_off_c, 3, 81, 64
6, 23616, Note_on_c, 3, 82, 76
6, 23616, Note_on_c, 3, 65, 49
6, 23808, Note_off_c, 3, 65, 64
6, 23808, Note_off_c, 3, 82, 64
6, 23808, Note_on_c, 3, 84, 79
6, 23808, Note_on_c, 3, 57, 38
6, 24000, Note_off_c, 3, 57, 64
6, 24000, Note_off_c, 3, 84, 64
6, 24000, Note_on_c, 3, 85, 81
6, 24000, Note_on_c, 3, 61, 44
6, 24192, Note_off_c, 3, 61, 64
6, 24192, Note_off_c, 3, 53, 64
6, 24192, Note_off_c, 3, 46, 64
6, 24192, Note_off_c, 3, 85, 64
6, 24192, Note_on_c, 3, 87, 71
6, 24192, Note_on_c, 3, 44, 38
6, 24192, Note_on_c, 3, 53, 38
6, 24192, Note_on_c, 3, 66, 48
6, 24384, Note_off_c, 3, 66, 64
6, 24384, Note_off_c, 3, 87, 64
6, 24384, Note_on_c, 3, 89, 67
6, 24384, Note_on_c, 3, 65, 40
6, 24576, Note_off_c, 3, 65, 64
6, 24576, Note_off_c, 3, 89, 64
6, 24576, Note_on_c, 3, 84, 54
6, 24576, Note_on_c, 3, 66, 46
6, 24768, Note_off_c, 3, 66, 64
6, 24768, Note_off_c, 3, 84, 64
6, 24768, Note_on_c, 3, 85, 67
6, 24768, Note_on_c, 3, 65, 53
6, 24960, Note_off_c, 3, 65, 64
6, 24960, Note_off_c, 3, 85, 64
6, 24960, Note_on_c, 3, 87, 85
6, 24960, Note_on_c, 3, 63, 43
6, 25152, Note_off_c, 3, 63, 64
6, 25152, Note_off_c, 3, 87, 64
6, 25152, Note_on_c, 3, 89, 81
6, 25152, Note_on_c, 3, 61, 37
6, 25344, Note_on_c, 3, 42, 65
6, 25344, Note_on_c, 3, 60, 102
6, 25344, Note_off_c, 3, 61, 64
6, 25344, Note_off_c, 3, 53, 64
6, 25344, Note_off_c, 3, 44, 64
6, 25344, Note_off_c, 3, 89, 64
6, 25344, Note_on_c, 3, 90, 87
6, 25346, Note_off_c, 0, 60, 64
6, 25348, Note_off_c, 0, 49, 64
6, 25348, Note_off_c, 0, 49, 64
6, 25384, Note_on_c, 3, 49, 65
6, 25432, Note_on_c, 3, 58, 65
6, 25536, Note_off_c, 3, 90, 65
6, 25536, Note_on_c, 3, 92, 84
6, 25536, Note_on_c, 3, 72, 47
6, 25728, Note_off_c, 3, 72, 64
6, 25728, Note_off_c, 3, 92, 64
6, 25728, Note_on_c, 3, 89, 66
6, 25728, Note_on_c, 3, 73, 50
6, 25920, Note_off_c, 3, 73, 64
6, 25920, Note_on_c, 3, 72, 45
6, 26112, Note_off_c, 3, 72, 64
6, 26112, Note_off_c, 3, 89, 64
6, 26112, Note_on_c, 3, 87, 61
6, 26112, Note_on_c, 3, 71, 46
6, 26304, Note_off_c, 3, 71, 64
6, 26304, Note_off_c, 3, 87, 64
6, 26304, Note_on_c, 3, 89, 69
6, 26304, Note_on_c, 3, 70, 39
6, 26461, Note_off_c, 3, 49, 64
6, 26463, Note_off_c, 3, 42, 64
6, 26469, Note_off_c, 3, 58, 64
6, 26495, Note_off_c, 3, 49, 64
6, 26495, Note_off_c, 3, 49, 64
6, 26496, Note_off_c, 3, 70, 64
6, 26496, Note_off_c, 3, 89, 64
6, 26496, Note_on_c, 3, 85, 55
6, 26500, Note_on_c, 3, 53, 78
6, 26544, Note_on_c, 3, 63, 76
6, 26576, Note_on_c, 3, 69, 39
6, 26685, Note_off_c, 3, 69, 64
6, 26688, Note_on_c, 3, 68, 32
6, 26880, Note_off_c, 3, 68, 64
6, 26880, Note_off_c, 3, 85, 64
6, 26880, Note_on_c, 3, 84, 43
6, 26880, Note_on_c, 3, 67, 26
6, 27072, Note_off_c, 3, 67, 64
6, 27072, Note_off_c, 3, 84, 64
6, 27072, Note_on_c, 3, 85, 43
6, 27072, Note_on_c, 3, 66, 24
6, 27264, Note_off_c, 3, 66, 64
6, 27264, Note_off_c, 3, 85, 64
6, 27264, Note_on_c, 3, 81, 35
6, 27264, Note_on_c, 3, 65, 26
6, 27456, Note_off_c, 3, 65, 64
6, 27456, Note_on_c, 3, 64, 25
6, 27613, Note_off_c, 3, 53, 64
6, 27627, Note_off_c, 3, 63, 64
6, 27648, Note_off_c, 3, 64, 64
6, 27648, Note_off_c, 3, 81, 64
6, 27648, Note_on_c, 3, 84, 47
6, 27648, Note_on_c, 3, 46, 45
6, 27696, Note_on_c, 3, 53, 45
6, 27736, Note_on_c, 3, 63, 38
6, 27835, Note_off_c, 3, 63, 64
6, 27840, Note_off_c, 3, 84, 64
6, 27840, Note_on_c, 3, 82, 36
6, 27840, Note_on_c, 3, 62, 26
6, 27897, Note_off_c, 3, 82, 64
6, 27897, Note_on_c, 3, 84, 47
6, 27968, Note_off_c, 3, 84, 64
6, 27971, Note_on_c, 3, 82, 40
6, 28028, Note_off_c, 3, 82, 64
6, 28032, Note_off_c, 3, 62, 64
6, 28032, Note_on_c, 3, 76, 36
6, 28032, Note_on_c, 3, 61, 26
6, 28224, Note_off_c, 3, 61, 64
6, 28224, Note_on_c, 3, 60, 27
6, 28416, Note_off_c, 3, 60, 64
6, 28416, Note_off_c, 3, 76, 64
6, 28416, Note_on_c, 3, 75, 36
6, 28416, Note_on_c, 3, 59, 27
6, 28608, Note_off_c, 3, 59, 64
6, 28608, Note_off_c, 3, 75, 64
6, 28608, Note_on_c, 3, 73, 36
6, 28608, Note_on_c, 3, 58, 26
6, 28755, Note_off_c, 3, 53, 64
6, 28800, Note_off_c, 3, 58, 64
6, 28800, Note_off_c, 3, 46, 64
6, 28800, Note_off_c, 3, 73, 64
6, 28800, Note_on_c, 3, 75, 43
6, 28800, Note_on_c, 3, 48, 36
6, 28800, Note_on_c, 3, 57, 28
6, 28992, Note_off_c, 3, 57, 64
6, 28992, Note_on_c, 3, 56, 24
6, 29184, Note_off_c, 3, 56, 64
6, 29184, Note_off_c, 3, 75, 64
6, 29184, Note_on_c, 3, 75, 32
6, 29184, Note_on_c, 3, 55, 26
6, 29376, Note_off_c, 3, 55, 64
6, 29376, Note_off_c, 3, 75, 64
6, 29376, Note_on_c, 3, 73, 27
6, 29376, Note_on_c, 3, 54, 16
6, 29568, Note_off_c, 3, 54, 64
6, 29568, Note_off_c, 3, 48, 64
6, 29568, Note_off_c, 3, 73, 64
6, 29568, Note_on_c, 3, 69, 25
6, 29568, Note_on_c, 3, 41, 25
6, 29568, Note_on_c, 3, 53, 18
6, 29760, Note_off_c, 3, 53, 64
6, 29760, Note_on_c, 3, 51, 17
6, 29952, Note_off_c, 3, 51, 64
6, 29952, Note_off_c, 3, 41, 64
6, 29952, Note_off_c, 3, 69, 64
6, 29952, Note_on_c, 3, 70, 41
6, 29952, Note_on_c, 3, 34, 50
6, 29952, Note_on_c, 3, 49, 55
6, 30336, Note_off_c, 3, 49, 64
6, 30336, Note_off_c, 3, 34, 64
6, 30336, Note_on_c, 3, 56, 71
6, 30336, Note_on_c, 3, 58, 66
6, 30336, Note_on_c, 3, 61, 66
6, 30720, Note_off_c, 3, 61, 64
6, 30720, Note_off_c, 3, 58, 64
6, 30720, Note_off_c, 3, 56, 64
6, 30720, Note_on_c, 3, 56, 65
6, 30720, Note_on_c, 3, 58, 65
6, 30720, Note_on_c, 3, 61, 65
6, 31104, Note_off_c, 3, 61, 64
6, 31104, Note_off_c, 3, 58, 64
6, 31104, Note_off_c, 3, 56, 64
6, 31104, Note_off_c, 3, 70, 64
6, 31104, Note_on_c, 3, 39, 42
6, 31104, Note_on_c, 3, 46, 43
6, 31488, Note_off_c, 3, 46, 64
6, 31488, Note_off_c, 3, 39, 64
6, 31488, Note_on_c, 3, 66, 64
6, 31488, Note_on_c, 3, 46, 61
6, 31488, Note_on_c, 3, 54, 60
6, 31584, Note_off_c, 3, 66, 64
6, 31584, Note_on_c, 3, 65, 53
6, 31680, Note_off_c, 3, 65, 64
6, 31680, Note_on_c, 3, 63, 51
6, 31776, Note_off_c, 3, 63, 64
6, 31776, Note_on_c, 3, 61, 47
6, 31872, Note_off_c, 3, 61, 64
6, 31872, Note_on_c, 3, 60, 46
6, 31968, Note_off_c, 3, 60, 64
6, 31968, Note_on_c, 3, 61, 56
6, 32064, Note_off_c, 3, 61, 64
6, 32064, Note_on_c, 3, 63, 60
6, 32160, Note_off_c, 3, 63, 64
6, 32160, Note_on_c, 3, 60, 54
6, 32256, Note_off_c, 3, 54, 64
6, 32256, Note_off_c, 3, 46, 64
6, 32256, Note_off_c, 3, 60, 64
6, 32256, Note_on_c, 3, 61, 63
6, 32256, Note_on_c, 3, 34, 40
6, 32352, Note_off_c, 3, 61, 64
6, 32352, Note_on_c, 3, 58, 50
6, 32448, Note_off_c, 3, 58, 64
6, 32640, Note_off_c, 3, 34, 64
6, 32640, Note_on_c, 3, 57, 76
6, 32640, Note_on_c, 3, 49, 61
6, 33024, Note_off_c, 3, 49, 64
6, 33024, Note_on_c, 3, 29, 36
6, 33408, Note_off_c, 3, 29, 64
6, 33408, Note_on_c, 3, 34, 50
6, 33792, Note_off_c, 3, 34, 64
6, 33792, Note_on_c, 3, 49, 70
6, 34176, Note_off_c, 3, 49, 64
6, 34176, Note_on_c, 3, 41, 45
6, 34560, Note_off_c, 3, 41, 64
6, 34560, Note_off_c, 3, 57, 64
6, 34560, Note_on_c, 3, 57, 92
6, 34560, Note_on_c, 3, 39, 43
6, 34656, Note_off_c, 3, 57, 64
6, 34656, Note_on_c, 3, 58, 87
6, 34752, Note_off_c, 3, 58, 64
6, 34752, Note_on_c, 3, 60, 90
6, 34848, Note_off_c, 3, 60, 64
6, 34848, Note_on_c, 3, 61, 95
6, 34944, Note_off_c, 3, 39, 64
6, 34944, Note_off_c, 3, 61, 64
6, 34944, Note_on_c, 3, 63, 98
6, 34944, Note_on_c, 3, 54, 63
6, 35040, Note_off_c, 3, 63, 64
6, 35040, Note_on_c, 3, 65, 87
6, 35136, Note_off_c, 3, 65, 64
6, 35136, Note_on_c, 3, 66, 87
6, 35232, Note_off_c, 3, 66, 64
6, 35232, Note_on_c, 3, 68, 87
6, 35328, Note_off_c, 3, 54, 64
6, 35328, Note_off_c, 3, 68, 64
6, 35328, Note_on_c, 3, 69, 95
6, 35328, Note_on_c, 3, 46, 43
6, 35424, Note_off_c, 3, 69, 64
6, 35424, Note_on_c, 3, 72, 87
6, 35520, Note_off_c, 3, 72, 64
6, 35520, Note_on_c, 3, 77, 120
6, 35616, Note_off_c, 3, 77, 64
6, 35616, Note_on_c, 3, 72, 65
6, 35712, Note_off_c, 3, 46, 64
6, 35712, Note_off_c, 3, 72, 64
6, 35712, Note_on_c, 3, 75, 84
6, 35712, Note_on_c, 3, 39, 45
6, 35712, Note_on_c, 3, 46, 50
6, 35808, Note_off_c, 3, 75, 64
6, 35808, Note_on_c, 3, 73, 89
6, 35904, Note_off_c, 3, 73, 64
6, 36096, Note_off_c, 3, 46, 64
6, 36096, Note_off_c, 3, 39, 64
6, 36096, Note_on_c, 3, 69, 64
6, 36096, Note_on_c, 3, 54, 70
6, 36096, Note_on_c, 3, 61, 71
6, 36192, Note_off_c, 3, 69, 64
6, 36192, Note_on_c, 3, 70, 63
6, 36288, Note_off_c, 3, 70, 64
6, 36288, Note_on_c, 3, 72, 78
6, 36384, Note_off_c, 3, 72, 64
6, 36384, Note_on_c, 3, 69, 61
6, 36480, Note_off_c, 3, 61, 64
6, 36480, Note_off_c, 3, 54, 64
6, 36480, Note_off_c, 3, 69, 64
6, 36480, Note_on_c, 3, 70, 71
6, 36480, Note_on_c, 3, 46, 43
6, 36576, Note_off_c, 3, 70, 64
6, 36576, Note_on_c, 3, 65, 70
6, 36672, Note_off_c, 3, 65, 64
6, 36864, Note_off_c, 3, 46, 64
6, 36864, Note_on_c, 3, 63, 62
6, 36864, Note_on_c, 3, 34, 36
6, 36960, Note_off_c, 3, 63, 64
6, 36960, Note_on_c, 3, 61, 57
6, 37056, Note_off_c, 3, 61, 64
6, 37056, Note_on_c, 3, 58, 47
6, 37152, Note_off_c, 3, 58, 64
6, 37152, Note_on_c, 3, 61, 57
6, 37248, Note_off_c, 3, 34, 64
6, 37248, Note_off_c, 3, 61, 64
6, 37248, Note_on_c, 3, 63, 72
6, 37248, Note_on_c, 3, 41, 51
6, 37344, Note_off_c, 3, 63, 64
6, 37344, Note_on_c, 3, 58, 69
6, 37440, Note_off_c, 3, 58, 64
6, 37632, Note_off_c, 3, 41, 64
6, 37632, Note_on_c, 3, 53, 68
6, 37632, Note_on_c, 3, 41, 46
6, 37728, Note_off_c, 3, 53, 64
6, 37728, Note_on_c, 3, 57, 73
6, 37824, Note_off_c, 3, 57, 64
6, 37824, Note_on_c, 3, 58, 86
6, 37920, Note_off_c, 3, 58, 64
6, 37920, Note_on_c, 3, 53, 57
6, 38016, Note_off_c, 3, 41, 64
6, 38016, Note_off_c, 3, 53, 64
6, 38016, Note_on_c, 3, 57, 78
6, 38016, Note_on_c, 3, 34, 39
6, 38112, Note_off_c, 3, 57, 64
6, 38112, Note_on_c, 3, 58, 101
6, 38208, Note_off_c, 3, 58, 64
6, 38400, Note_off_c, 3, 34, 64
6, 38400, Note_on_c, 3, 60, 64
6, 38400, Note_on_c, 3, 41, 52
6, 38496, Note_off_c, 3, 60, 64
6, 38496, Note_on_c, 3, 61, 65
6, 38592, Note_off_c, 3, 61, 64
6, 38592, Note_on_c, 3, 63, 73
6, 38688, Note_off_c, 3, 63, 64
6, 38688, Note_on_c, 3, 60, 63
6, 38784, Note_off_c, 3, 41, 64
6, 38784, Note_off_c, 3, 60, 64
6, 38784, Note_on_c, 3, 61, 75
6, 38784, Note_on_c, 3, 46, 67
6, 38784, Note_on_c, 3, 56, 66
6, 38880, Note_off_c, 3, 61, 64
6, 38880, Note_on_c, 3, 63, 80
6, 38976, Note_off_c, 3, 63, 64
6, 38976, Note_on_c, 3, 65, 92
6, 39072, Note_off_c, 3, 65, 64
6, 39072, Note_on_c, 3, 66, 90
6, 39168, Note_off_c, 3, 56, 64
6, 39168, Note_off_c, 3, 46, 64
6, 39168, Note_off_c, 3, 66, 64
6, 39168, Note_on_c, 3, 68, 95
6, 39168, Note_on_c, 3, 39, 44
6, 39264, Note_off_c, 3, 68, 64
6, 39264, Note_on_c, 3, 65, 68
6, 39360, Note_off_c, 3, 65, 64
6, 39360, Note_on_c, 3, 66, 79
6, 39456, Note_off_c, 3, 66, 64
6, 39456, Note_on_c, 3, 68, 90
6, 39552, Note_off_c, 3, 39, 64
6, 39552, Note_off_c, 3, 68, 64
6, 39552, Note_on_c, 3, 63, 64
6, 39552, Note_on_c, 3, 54, 65
6, 39936, Note_off_c, 3, 54, 64
6, 39936, Note_off_c, 3, 63, 64
6, 39936, Note_on_c, 3, 63, 68
6, 39936, Note_on_c, 3, 46, 48
6, 40032, Note_off_c, 3, 63, 64
6, 40032, Note_on_c, 3, 65, 77
6, 40128, Note_off_c, 3, 65, 64
6, 40128, Note_on_c, 3, 66, 78
6, 40224, Note_off_c, 3, 66, 64
6, 40224, Note_on_c, 3, 65, 66
6, 40320, Note_off_c, 3, 46, 64
6, 40320, Note_off_c, 3, 65, 64
6, 40320, Note_on_c, 3, 63, 64
6, 40320, Note_on_c, 3, 41, 35
6, 40416, Note_off_c, 3, 63, 64
6, 40416, Note_on_c, 3, 61, 52
6, 40512, Note_off_c, 3, 61, 64
6, 40512, Note_on_c, 3, 60, 50
6, 40608, Note_off_c, 3, 60, 64
6, 40608, Note_on_c, 3, 58, 44
6, 40704, Note_off_c, 3, 41, 64
6, 40704, Note_off_c, 3, 58, 64
6, 40704, Note_on_c, 3, 57, 47
6, 40704, Note_on_c, 3, 51, 57
6, 40800, Note_off_c, 3, 57, 64
6, 40800, Note_on_c, 3, 60, 53
6, 40896, Note_off_c, 3, 60, 64
6, 40896, Note_on_c, 3, 63, 68
6, 40992, Note_off_c, 3, 63, 64
6, 40992, Note_on_c, 3, 66, 81
6, 41088, Note_off_c, 3, 51, 64
6, 41088, Note_off_c, 3, 66, 64
6, 41088, Note_on_c, 3, 65, 74
6, 41088, Note_on_c, 3, 41, 36
6, 41184, Note_off_c, 3, 65, 64
6, 41184, Note_on_c, 3, 63, 59
6, 41280, Note_off_c, 3, 63, 64
6, 41280, Note_on_c, 3, 61, 55
6, 41376, Note_off_c, 3, 61, 64
6, 41376, Note_on_c, 3, 60, 50
6, 41472, Note_off_c, 3, 41, 64
6, 41472, Note_off_c, 3, 60, 64
6, 41472, Note_on_c, 3, 61, 58
6, 41472, Note_on_c, 3, 37, 36
6, 41568, Note_off_c, 3, 61, 64
6, 41568, Note_on_c, 3, 63, 63
6, 41664, Note_off_c, 3, 63, 64
6, 41664, Note_on_c, 3, 58, 51
6, 41856, Note_off_c, 3, 37, 64
6, 41856, Note_on_c, 3, 53, 55
6, 42240, Note_off_c, 3, 53, 64
6, 42240, Note_on_c, 3, 41, 34
6, 42528, Note_off_c, 3, 58, 64
6, 42528, Note_on_c, 3, 58, 92
6, 42624, Note_off_c, 3, 41, 64
6, 42624, Note_off_c, 3, 58, 64
6, 42624, Note_on_c, 3, 61, 95
6, 42624, Note_on_c, 3, 48, 51
6, 42755, Note_off_c, 3, 61, 64
6, 42755, Note_on_c, 3, 63, 90
6, 42873, Note_off_c, 3, 63, 64
6, 42873, Note_on_c, 3, 64, 123
6, 43004, Note_off_c, 3, 64, 64
6, 43008, Note_off_c, 3, 48, 64
6, 43008, Note_on_c, 3, 67, 95
6, 43008, Note_on_c, 3, 58, 70
6, 43139, Note_off_c, 3, 67, 64
6, 43139, Note_on_c, 3, 68, 90
6, 43257, Note_off_c, 3, 68, 64
6, 43257, Note_on_c, 3, 69, 115
6, 43388, Note_off_c, 3, 69, 64
6, 43392, Note_off_c, 3, 58, 64
6, 43392, Note_on_c, 3, 72, 90
6, 43392, Note_on_c, 3, 57, 61
6, 43523, Note_off_c, 3, 72, 64
6, 43523, Note_on_c, 3, 75, 87
6, 43641, Note_off_c, 3, 57, 64
6, 43641, Note_off_c, 3, 75, 64
6, 43641, Note_on_c, 3, 78, 92
6, 43641, Note_on_c, 3, 41, 38
6, 43772, Note_off_c, 3, 41, 64
6, 43772, Note_off_c, 3, 78, 64
6, 43776, Note_on_c, 3, 76, 78
6, 43776, Note_on_c, 3, 46, 49
6, 43872, Note_off_c, 3, 76, 64
6, 43872, Note_on_c, 3, 77, 66
6, 44160, Note_off_c, 3, 46, 64
6, 44160, Note_off_c, 3, 77, 64
6, 44160, Note_on_c, 3, 77, 99
6, 44160, Note_on_c, 3, 56, 67
6, 44160, Note_on_c, 3, 61, 70
6, 44544, Note_off_c, 3, 61, 64
6, 44544, Note_off_c, 3, 56, 64
6, 44544, Note_off_c, 3, 77, 64
6, 44544, Note_on_c, 3, 76, 72
6, 44544, Note_on_c, 3, 46, 41
6, 44614, Note_off_c, 3, 76, 64
6, 44614, Note_on_c, 3, 75, 64
6, 44697, Note_off_c, 3, 75, 64
6, 44697, Note_on_c, 3, 73, 55
6, 44768, Note_off_c, 3, 73, 64
6, 44771, Note_on_c, 3, 70, 46
6, 44854, Note_off_c, 3, 70, 64
6, 44854, Note_on_c, 3, 73, 54
6, 44924, Note_off_c, 3, 73, 64
6, 44928, Note_off_c, 3, 46, 64
6, 44928, Note_on_c, 3, 75, 89
6, 44928, Note_on_c, 3, 39, 36
6, 45312, Note_off_c, 3, 39, 64
6, 45312, Note_off_c, 3, 75, 64
6, 45312, Note_on_c, 3, 54, 58
6, 45312, Note_on_c, 3, 58, 52
6, 45312, Note_on_c, 3, 61, 52
6, 45312, Note_on_c, 3, 65, 58
6, 45696, Note_off_c, 3, 65, 64
6, 45696, Note_off_c, 3, 61, 64
6, 45696, Note_off_c, 3, 58, 64
6, 45696, Note_off_c, 3, 54, 64
6, 45696, Note_on_c, 3, 39, 37
6, 45888, Note_on_c, 3, 70, 62
6, 46080, Note_off_c, 3, 70, 64
6, 46080, Note_off_c, 3, 39, 64
6, 46080, Note_on_c, 3, 75, 83
6, 46080, Note_on_c, 3, 46, 54
6, 46176, Note_off_c, 3, 75, 64
6, 46176, Note_on_c, 3, 76, 76
6, 46176, Note_on_c, 3, 79, 78
6, 46464, Note_off_c, 3, 79, 64
6, 46464, Note_off_c, 3, 46, 64
6, 46464, Note_off_c, 3, 76, 64
6, 46464, Note_on_c, 3, 75, 70
6, 46464, Note_on_c, 3, 53, 70
6, 46464, Note_on_c, 3, 58, 70
6, 46464, Note_on_c, 3, 61, 63
6, 46560, Note_off_c, 3, 75, 64
6, 46560, Note_on_c, 3, 76, 69
6, 46560, Note_on_c, 3, 79, 71
6, 46848, Note_off_c, 3, 79, 64
6, 46848, Note_off_c, 3, 61, 64
6, 46848, Note_off_c, 3, 58, 64
6, 46848, Note_off_c, 3, 53, 64
6, 46848, Note_off_c, 3, 76, 64
6, 46848, Note_on_c, 3, 79, 87
6, 46848, Note_on_c, 3, 46, 40
6, 46905, Note_off_c, 3, 79, 64
6, 46905, Note_on_c, 3, 75, 60
6, 46976, Note_off_c, 3, 75, 64
6, 46979, Note_on_c, 3, 73, 57
6, 47036, Note_off_c, 3, 73, 64
6, 47040, Note_on_c, 3, 70, 39
6, 47232, Note_off_c, 3, 46, 64
6, 47232, Note_off_c, 3, 70, 64
6, 47232, Note_on_c, 3, 73, 52
6, 47232, Note_on_c, 3, 34, 36
6, 47616, Note_off_c, 3, 34, 64
6, 47616, Note_off_c, 3, 73, 64
6, 47616, Note_on_c, 3, 53, 59
6, 47616, Note_on_c, 3, 56, 58
6, 47616, Note_on_c, 3, 61, 55
6, 48000, Note_off_c, 3, 61, 64
6, 48000, Note_off_c, 3, 56, 64
6, 48000, Note_off_c, 3, 53, 64
6, 48000, Note_on_c, 3, 46, 34
6, 48192, Note_on_c, 3, 72, 59
6, 48249, Note_off_c, 3, 72, 64
6, 48249, Note_on_c, 3, 71, 57
6, 48320, Note_off_c, 3, 71, 64
6, 48323, Note_on_c, 3, 70, 47
6, 48380, Note_off_c, 3, 70, 64
6, 48384, Note_off_c, 3, 46, 64
6, 48384, Note_on_c, 3, 69, 63
6, 48384, Note_on_c, 3, 39, 38
6, 48672, Note_off_c, 3, 69, 64
6, 48672, Note_on_c, 3, 70, 57
6, 48768, Note_off_c, 3, 39, 64
6, 48768, Note_off_c, 3, 70, 64
6, 48768, Note_on_c, 3, 72, 57
6, 48768, Note_on_c, 3, 58, 55
6, 48768, Note_on_c, 3, 61, 55
6, 48768, Note_on_c, 3, 65, 56
6, 48768, Note_on_c, 3, 67, 52
6, 48960, Note_off_c, 3, 72, 64
6, 48960, Note_on_c, 3, 72, 64
6, 49017, Note_off_c, 3, 72, 64
6, 49017, Note_on_c, 3, 71, 58
6, 49088, Note_off_c, 3, 71, 64
6, 49091, Note_on_c, 3, 70, 55
6, 49148, Note_off_c, 3, 70, 64
6, 49152, Note_off_c, 3, 67, 64
6, 49152, Note_off_c, 3, 65, 64
6, 49152, Note_off_c, 3, 61, 64
6, 49152, Note_off_c, 3, 58, 64
6, 49152, Note_on_c, 3, 69, 67
6, 49152, Note_on_c, 3, 58, 58
6, 49152, Note_on_c, 3, 61, 58
6, 49152, Note_on_c, 3, 65, 58
6, 49152, Note_on_c, 3, 67, 57
6, 49440, Note_off_c, 3, 69, 64
6, 49440, Note_on_c, 3, 70, 56
6, 49536, Note_off_c, 3, 67, 64
6, 49536, Note_off_c, 3, 65, 64
6, 49536, Note_off_c, 3, 61, 64
6, 49536, Note_off_c, 3, 58, 64
6, 49536, Note_off_c, 3, 70, 64
6, 49536, Note_on_c, 3, 39, 36
6, 49728, Note_on_c, 3, 72, 59
6, 49785, Note_off_c, 3, 72, 64
6, 49785, Note_on_c, 3, 71, 53
6, 49856, Note_off_c, 3, 71, 64
6, 49859, Note_on_c, 3, 70, 52
6, 49916, Note_off_c, 3, 70, 64
6, 49920, Note_off_c, 3, 39, 64
6, 49920, Note_on_c, 3, 69, 51
6, 49920, Note_on_c, 3, 58, 55
6, 49920, Note_on_c, 3, 61, 58
6, 49920, Note_on_c, 3, 65, 55
6, 49920, Note_on_c, 3, 67, 55
6, 50208, Note_off_c, 3, 69, 64
6, 50208, Note_on_c, 3, 70, 55
6, 50304, Note_off_c, 3, 67, 64
6, 50304, Note_off_c, 3, 65, 64
6, 50304, Note_off_c, 3, 61, 64
6, 50304, Note_off_c, 3, 58, 64
6, 50304, Note_off_c, 3, 70, 64
6, 50304, Note_on_c, 3, 72, 68
6, 50304, Note_on_c, 3, 58, 58
6, 50304, Note_on_c, 3, 61, 57
6, 50304, Note_on_c, 3, 65, 54
6, 50304, Note_on_c, 3, 67, 54
6, 50496, Note_off_c, 3, 72, 64
6, 50496, Note_on_c, 3, 72, 64
6, 50553, Note_off_c, 3, 72, 64
6, 50553, Note_on_c, 3, 71, 57
6, 50624, Note_off_c, 3, 71, 64
6, 50627, Note_on_c, 3, 70, 55
6, 50684, Note_off_c, 3, 70, 64
6, 50688, Note_off_c, 3, 67, 64
6, 50688, Note_off_c, 3, 65, 64
6, 50688, Note_off_c, 3, 61, 64
6, 50688, Note_off_c, 3, 58, 64
6, 50688, Note_on_c, 3, 69, 52
6, 50688, Note_on_c, 3, 46, 39
6, 50976, Note_off_c, 3, 69, 64
6, 50976, Note_on_c, 3, 70, 54
6, 51072, Note_off_c, 3, 46, 64
6, 51072, Note_off_c, 3, 70, 64
6, 51072, Note_on_c, 3, 56, 58
6, 51072, Note_on_c, 3, 58, 58
6, 51072, Note_on_c, 3, 61, 55
6, 51072, Note_on_c, 3, 65, 52
6, 51264, Note_on_c, 3, 72, 61
6, 51456, Note_off_c, 3, 65, 64
6, 51456, Note_off_c, 3, 61, 64
6, 51456, Note_off_c, 3, 58, 64
6, 51456, Note_off_c, 3, 56, 64
6, 51456, Note_on_c, 3, 56, 55
6, 51456, Note_on_c, 3, 58, 55
6, 51456, Note_on_c, 3, 61, 57
6, 51456, Note_on_c, 3, 65, 57
6, 51587, Note_off_c, 3, 72, 64
6, 51587, Note_on_c, 3, 72, 84
6, 51622, Note_off_c, 3, 72, 64
6, 51622, Note_on_c, 3, 71, 73
6, 51670, Note_off_c, 3, 71, 64
6, 51670, Note_on_c, 3, 70, 63
6, 51705, Note_off_c, 3, 70, 64
6, 51705, Note_on_c, 3, 69, 64
6, 51836, Note_off_c, 3, 69, 64
6, 51840, Note_off_c, 3, 65, 64
6, 51840, Note_off_c, 3, 61, 64
6, 51840, Note_off_c, 3, 58, 64
6, 51840, Note_off_c, 3, 56, 64
6, 51840, Note_on_c, 3, 70, 69
6, 51840, Note_on_c, 3, 46, 39
6, 52128, Note_off_c, 3, 70, 64
6, 52128, Note_on_c, 3, 72, 75
6, 52224, Note_off_c, 3, 46, 64
6, 52224, Note_off_c, 3, 72, 64
6, 52224, Note_on_c, 3, 72, 76
6, 52224, Note_on_c, 3, 56, 59
6, 52224, Note_on_c, 3, 58, 58
6, 52224, Note_on_c, 3, 61, 56
6, 52224, Note_on_c, 3, 65, 52
6, 52355, Note_off_c, 3, 72, 64
6, 52355, Note_on_c, 3, 72, 75
6, 52390, Note_off_c, 3, 72, 64
6, 52390, Note_on_c, 3, 71, 67
6, 52438, Note_off_c, 3, 71, 64
6, 52438, Note_on_c, 3, 70, 63
6, 52473, Note_off_c, 3, 70, 64
6, 52473, Note_on_c, 3, 69, 52
6, 52604, Note_off_c, 3, 69, 64
6, 52608, Note_off_c, 3, 65, 64
6, 52608, Note_off_c, 3, 61, 64
6, 52608, Note_off_c, 3, 58, 64
6, 52608, Note_off_c, 3, 56, 64
6, 52608, Note_on_c, 3, 70, 62
6, 52608, Note_on_c, 3, 56, 54
6, 52608, Note_on_c, 3, 58, 58
6, 52608, Note_on_c, 3, 61, 57
6, 52608, Note_on_c, 3, 65, 55
6, 52704, Note_off_c, 3, 70, 64
6, 52704, Note_on_c, 3, 72, 71
6, 52800, Note_off_c, 3, 72, 64
6, 52800, Note_on_c, 3, 73, 75
6, 52896, Note_off_c, 3, 73, 64
6, 52896, Note_on_c, 3, 75, 83
6, 52992, Note_off_c, 3, 65, 64
6, 52992, Note_off_c, 3, 61, 64
6, 52992, Note_off_c, 3, 58, 64
6, 52992, Note_off_c, 3, 56, 64
6, 52992, Note_off_c, 3, 75, 64
6, 52992, Note_on_c, 3, 77, 95
6, 52992, Note_on_c, 3, 39, 36
6, 53123, Note_off_c, 3, 77, 64
6, 53123, Note_on_c, 3, 78, 90
6, 53241, Note_off_c, 3, 78, 64
6, 53241, Note_on_c, 3, 80, 87
6, 53372, Note_off_c, 3, 80, 64
6, 53376, Note_off_c, 3, 39, 64
6, 53376, Note_on_c, 3, 77, 78
6, 53376, Note_on_c, 3, 54, 58
6, 53376, Note_on_c, 3, 58, 55
6, 53376, Note_on_c, 3, 61, 58
6, 53376, Note_on_c, 3, 65, 59
6, 53760, Note_off_c, 3, 65, 64
6, 53760, Note_off_c, 3, 61, 64
6, 53760, Note_off_c, 3, 58, 64
6, 53760, Note_off_c, 3, 54, 64
6, 53760, Note_on_c, 3, 54, 55
6, 53760, Note_on_c, 3, 58, 51
6, 53760, Note_on_c, 3, 61, 55
6, 53760, Note_on_c, 3, 65, 57
6, 54144, Note_off_c, 3, 65, 64
6, 54144, Note_off_c, 3, 61, 64
6, 54144, Note_off_c, 3, 58, 64
6, 54144, Note_off_c, 3, 54, 64
6, 54144, Note_on_c, 3, 41, 37
6, 54432, Note_off_c, 3, 77, 64
6, 54432, Note_on_c, 3, 77, 89
6, 54528, Note_off_c, 3, 41, 64
6, 54528, Note_off_c, 3, 77, 64
6, 54528, Note_on_c, 3, 80, 98
6, 54528, Note_on_c, 3, 84, 92
6, 54528, Note_on_c, 3, 57, 56
6, 54528, Note_on_c, 3, 60, 58
6, 54528, Note_on_c, 3, 63, 52
6, 54528, Note_on_c, 3, 68, 56
6, 54659, Note_off_c, 3, 84, 64
6, 54659, Note_off_c, 3, 80, 64
6, 54659, Note_on_c, 3, 77, 64
6, 54777, Note_off_c, 3, 77, 64
6, 54777, Note_on_c, 3, 80, 86
6, 54777, Note_on_c, 3, 84, 89
6, 54908, Note_off_c, 3, 84, 64
6, 54908, Note_off_c, 3, 80, 64
6, 54912, Note_off_c, 3, 68, 64
6, 54912, Note_off_c, 3, 63, 64
6, 54912, Note_off_c, 3, 60, 64
6, 54912, Note_off_c, 3, 57, 64
6, 54912, Note_on_c, 3, 77, 69
6, 54912, Note_on_c, 3, 57, 51
6, 54912, Note_on_c, 3, 60, 58
6, 54912, Note_on_c, 3, 63, 51
6, 54912, Note_on_c, 3, 68, 58
6, 55043, Note_off_c, 3, 77, 64
6, 55043, Note_on_c, 3, 80, 84
6, 55043, Note_on_c, 3, 84, 86
6, 55161, Note_off_c, 3, 84, 64
6, 55161, Note_off_c, 3, 80, 64
6, 55161, Note_on_c, 3, 77, 58
6, 55292, Note_off_c, 3, 77, 64
6, 55296, Note_off_c, 3, 68, 64
6, 55296, Note_off_c, 3, 63, 64
6, 55296, Note_off_c, 3, 60, 64
6, 55296, Note_off_c, 3, 57, 64
6, 55296, Note_on_c, 3, 80, 84
6, 55296, Note_on_c, 3, 84, 87
6, 55296, Note_on_c, 3, 46, 38
6, 55427, Note_off_c, 3, 84, 64
6, 55427, Note_off_c, 3, 80, 64
6, 55427, Note_on_c, 3, 77, 45
6, 55676, Note_off_c, 3, 77, 64
6, 55680, Note_off_c, 3, 46, 64
6, 55680, Note_on_c, 3, 77, 59
6, 55680, Note_on_c, 3, 53, 51
6, 56064, Note_off_c, 3, 53, 64
6, 56064, Note_on_c, 3, 41, 33
6, 56448, Note_off_c, 3, 41, 64
6, 56448, Note_on_c, 3, 46, 49
6, 56448, Note_on_c, 3, 56, 88
6, 56448, Note_on_c, 3, 60, 88
6, 56448, Note_on_c, 3, 63, 85
6, 56832, Note_off_c, 3, 46, 64
6, 57216, Note_off_c, 3, 63, 64
6, 57216, Note_off_c, 3, 60, 64
6, 57216, Note_off_c, 3, 56, 64
6, 57216, Note_on_c, 3, 41, 43
6, 57600, Note_off_c, 3, 41, 64
6, 57600, Note_off_c, 3, 77, 64
6, 57600, Note_on_c, 3, 46, 61
6, 57600, Note_on_c, 3, 54, 60
6, 57984, Note_off_c, 3, 46, 64
6, 57984, Note_on_c, 3, 59, 44
6, 57984, Note_on_c, 3, 63, 48
6, 57984, Note_on_c, 3, 68, 43
6, 58752, Note_off_c, 3, 68, 64
6, 58752, Note_off_c, 3, 63, 64
6, 58752, Note_off_c, 3, 54, 64
6, 58752, Note_off_c, 3, 59, 64
6, 58752, Note_on_c, 3, 39, 47
6, 58752, Note_on_c, 3, 53, 57
6, 59136, Note_off_c, 3, 39, 64
6, 59136, Note_on_c, 3, 58, 48
6, 59136, Note_on_c, 3, 61, 48
6, 59136, Note_on_c, 3, 65, 45
6, 59136, Note_on_c, 3, 54, 66
6, 59904, Note_off_c, 3, 54, 64
6, 59904, Note_off_c, 3, 65, 64
6, 59904, Note_off_c, 3, 61, 64
6, 59904, Note_off_c, 3, 53, 64
6, 59904, Note_off_c, 3, 58, 64
6, 59904, Note_on_c, 3, 46, 49
6, 59904, Note_on_c, 3, 54, 50
6, 59904, Note_on_c, 3, 68, 94
6, 60288, Note_off_c, 3, 46, 64
6, 60288, Note_on_c, 3, 59, 43
6, 60288, Note_on_c, 3, 63, 45
6, 61056, Note_off_c, 3, 63, 64
6, 61056, Note_off_c, 3, 54, 64
6, 61056, Note_off_c, 3, 59, 64
6, 61056, Note_on_c, 3, 46, 47
6, 61056, Note_on_c, 3, 53, 46
6, 61440, Note_off_c, 3, 46, 64
6, 61440, Note_on_c, 3, 58, 47
6, 61440, Note_on_c, 3, 61, 45
6, 61440, Note_on_c, 3, 65, 44
6, 62208, Note_off_c, 3, 65, 64
6, 62208, Note_off_c, 3, 61, 64
6, 62208, Note_off_c, 3, 68, 64
6, 62208, Note_off_c, 3, 53, 64
6, 62208, Note_off_c, 3, 58, 64
6, 62208, Note_on_c, 3, 61, 66
6, 62208, Note_on_c, 3, 65, 66
6, 62208, Note_on_c, 3, 72, 68
6, 62208, Note_on_c, 3, 39, 48
6, 62208, Note_on_c, 3, 56, 52
6, 62400, Note_off_c, 3, 56, 64
6, 62400, Note_off_c, 3, 72, 64
6, 62400, Note_off_c, 3, 65, 64
6, 62400, Note_off_c, 3, 61, 64
6, 62400, Note_on_c, 3, 63, 68
6, 62400, Note_on_c, 3, 66, 68
6, 62400, Note_on_c, 3, 73, 66
6, 62400, Note_on_c, 3, 58, 56
6, 62976, Note_off_c, 3, 39, 64
6, 62976, Note_on_c, 3, 46, 61
6, 63168, Note_off_c, 3, 58, 64
6, 63168, Note_off_c, 3, 73, 64
6, 63168, Note_off_c, 3, 66, 64
6, 63168, Note_off_c, 3, 63, 64
6, 63168, Note_on_c, 3, 61, 55
6, 63168, Note_on_c, 3, 65, 59
6, 63168, Note_on_c, 3, 72, 59
6, 63168, Note_on_c, 3, 56, 55
6, 63360, Note_off_c, 3, 56, 64
6, 63360, Note_off_c, 3, 46, 64
6, 63360, Note_off_c, 3, 72, 64
6, 63360, Note_off_c, 3, 65, 64
6, 63360, Note_off_c, 3, 61, 64
6, 63360, Note_on_c, 3, 63, 55
6, 63360, Note_on_c, 3, 66, 51
6, 63360, Note_on_c, 3, 73, 55
6, 63360, Note_on_c, 3, 39, 47
6, 63360, Note_on_c, 3, 58, 58
6, 63744, Note_off_c, 3, 58, 64
6, 63744, Note_off_c, 3, 73, 64
6, 63744, Note_off_c, 3, 66, 64
6, 63744, Note_off_c, 3, 63, 64
6, 63744, Note_on_c, 3, 61, 47
6, 63744, Note_on_c, 3, 65, 45
6, 63744, Note_on_c, 3, 72, 47
6, 63744, Note_on_c, 3, 56, 47
6, 64128, Note_off_c, 3, 56, 64
6, 64128, Note_off_c, 3, 72, 64
6, 64128, Note_off_c, 3, 65, 64
6, 64128, Note_off_c, 3, 61, 64
6, 64128, Note_on_c, 3, 60, 38
6, 64128, Note_on_c, 3, 63, 41
6, 64128, Note_on_c, 3, 70, 36
6, 64128, Note_on_c, 3, 55, 38
6, 64512, Note_off_c, 3, 55, 64
6, 64512, Note_off_c, 3, 39, 64
6, 64512, Note_off_c, 3, 70, 64
6, 64512, Note_off_c, 3, 63, 64
6, 64512, Note_off_c, 3, 60, 64
6, 64512, Note_on_c, 3, 61, 46
6, 64512, Note_on_c, 3, 65, 46
6, 64512, Note_on_c, 3, 72, 47
6, 64512, Note_on_c, 3, 46, 64
6, 64512, Note_on_c, 3, 56, 58
6, 64896, Note_off_c, 3, 46, 64
6, 64896, Note_on_c, 3, 53, 70
6, 65280, Note_off_c, 3, 53, 64
6, 65280, Note_on_c, 3, 41, 40
6, 65664, Note_off_c, 3, 41, 64
6, 65664, Note_on_c, 3, 34, 36
6, 66048, Note_off_c, 3, 56, 64
6, 66048, Note_off_c, 3, 34, 64
6, 66048, Note_on_c, 3, 56, 69
6, 66432, Note_on_c, 3, 46, 44
6, 66816, Note_off_c, 3, 46, 64
6, 66816, Note_off_c, 3, 56, 64
6, 66816, Note_off_c, 3, 72, 64
6, 66816, Note_off_c, 3, 65, 64
6, 66816, Note_off_c, 3, 61, 64
6, 66816, Note_on_c, 3, 63, 71
6, 66816, Note_on_c, 3, 66, 70
6, 66816, Note_on_c, 3, 73, 70
6, 66816, Note_on_c, 3, 39, 36
6, 66816, Note_on_c, 3, 58, 71
6, 67008, Note_off_c, 3, 58, 64
6, 67008, Note_off_c, 3, 73, 64
6, 67008, Note_off_c, 3, 66, 64
6, 67008, Note_off_c, 3, 63, 64
6, 67008, Note_on_c, 3, 65, 87
6, 67008, Note_on_c, 3, 66, 84
6, 67008, Note_on_c, 3, 70, 84
6, 67008, Note_on_c, 3, 75, 88
6, 67008, Note_on_c, 3, 61, 84
6, 67392, Note_off_c, 3, 61, 64
6, 67392, Note_off_c, 3, 75, 64
6, 67392, Note_off_c, 3, 70, 64
6, 67392, Note_off_c, 3, 66, 64
6, 67392, Note_off_c, 3, 65, 64
6, 67392, Note_on_c, 3, 63, 55
6, 67392, Note_on_c, 3, 66, 60
6, 67392, Note_on_c, 3, 73, 59
6, 67392, Note_on_c, 3, 58, 55
6, 67584, Note_off_c, 3, 58, 64
6, 67584, Note_off_c, 3, 73, 64
6, 67584, Note_off_c, 3, 66, 64
6, 67584, Note_off_c, 3, 63, 64
6, 67584, Note_on_c, 3, 65, 83
6, 67584, Note_on_c, 3, 66, 83
6, 67584, Note_on_c, 3, 70, 83
6, 67584, Note_on_c, 3, 75, 85
6, 67584, Note_on_c, 3, 61, 87
6, 67968, Note_off_c, 3, 39, 64
6, 67968, Note_on_c, 3, 41, 43
6, 68256, Note_off_c, 3, 61, 64
6, 68256, Note_off_c, 3, 75, 64
6, 68256, Note_off_c, 3, 70, 64
6, 68256, Note_off_c, 3, 66, 64
6, 68256, Note_off_c, 3, 65, 64
6, 68256, Note_on_c, 3, 57, 47
6, 68256, Note_on_c, 3, 60, 42
6, 68256, Note_on_c, 3, 66, 44
6, 68256, Note_on_c, 3, 54, 54
6, 68256, Note_on_c, 3, 56, 50
6, 68352, Note_off_c, 3, 56, 64
6, 68352, Note_off_c, 3, 66, 64
6, 68352, Note_off_c, 3, 60, 64
6, 68352, Note_off_c, 3, 57, 64
6, 68352, Note_on_c, 3, 60, 40
6, 68352, Note_on_c, 3, 65, 40
6, 68352, Note_on_c, 3, 57, 59
6, 68736, Note_off_c, 3, 54, 64
6, 68736, Note_off_c, 3, 57, 64
6, 68736, Note_off_c, 3, 65, 64
6, 68736, Note_off_c, 3, 60, 64
6, 68736, Note_on_c, 3, 53, 41
6, 68736, Note_on_c, 3, 55, 39
6, 68736, Note_on_c, 3, 58, 39
6, 68736, Note_on_c, 3, 63, 37
6, 69024, Note_off_c, 3, 63, 64
6, 69024, Note_off_c, 3, 58, 64
6, 69024, Note_off_c, 3, 55, 64
6, 69024, Note_off_c, 3, 53, 64
6, 69024, Note_on_c, 3, 53, 36
6, 69024, Note_on_c, 3, 56, 36
6, 69024, Note_on_c, 3, 58, 34
6, 69024, Note_on_c, 3, 61, 34
6, 69120, Note_off_c, 3, 61, 64
6, 69120, Note_off_c, 3, 41, 64
6, 69120, Note_off_c, 3, 58, 64
6, 69120, Note_off_c, 3, 56, 64
6, 69120, Note_off_c, 3, 53, 64
6, 69120, Note_on_c, 3, 34, 59
6, 69504, Note_off_c, 3, 34, 64
6, 69504, Note_on_c, 3, 66, 93
6, 69504, Note_on_c, 3, 70, 87
6, 69504, Note_on_c, 3, 73, 90
6, 69504, Note_on_c, 3, 77, 98
6, 69696, Note_off_c, 3, 77, 64
6, 69696, Note_off_c, 3, 73, 64
6, 69696, Note_off_c, 3, 70, 64
6, 69696, Note_off_c, 3, 66, 64
6, 69696, Note_on_c, 3, 68, 124
6, 69696, Note_on_c, 3, 75, 127
6, 69696, Note_on_c, 3, 78, 127
6, 69888, Note_on_c, 3, 53, 90
6, 70080, Note_off_c, 3, 78, 64
6, 70080, Note_off_c, 3, 75, 64
6, 70080, Note_off_c, 3, 68, 64
6, 70080, Note_on_c, 3, 66, 109
6, 70080, Note_on_c, 3, 70, 113
6, 70080, Note_on_c, 3, 73, 109
6, 70080, Note_on_c, 3, 77, 113
6, 70272, Note_off_c, 3, 77, 64
6, 70272, Note_off_c, 3, 73, 64
6, 70272, Note_off_c, 3, 70, 64
6, 70272, Note_off_c, 3, 66, 64
6, 70272, Note_on_c, 3, 75, 127
6, 70272, Note_on_c, 3, 78, 127
6, 70272, Note_on_c, 3, 68, 95
6, 70464, Note_off_c, 3, 68, 64
6, 70464, Note_on_c, 3, 69, 127
6, 70656, Note_off_c, 3, 53, 64
6, 70656, Note_off_c, 3, 78, 64
6, 70656, Note_off_c, 3, 75, 64
6, 70656, Note_on_c, 3, 73, 102
6, 70656, Note_on_c, 3, 77, 102
6, 70656, Note_on_c, 3, 41, 64
6, 70944, Note_off_c, 3, 69, 64
6, 70944, Note_off_c, 3, 77, 64
6, 70944, Note_off_c, 3, 73, 64
6, 70944, Note_on_c, 3, 72, 74
6, 70944, Note_on_c, 3, 75, 79
6, 70944, Note_on_c, 3, 65, 93
6, 71040, Note_off_c, 3, 65, 64
6, 71040, Note_off_c, 3, 75, 64
6, 71040, Note_off_c, 3, 72, 64
6, 71040, Note_on_c, 3, 73, 72
6, 71040, Note_on_c, 3, 70, 114
6, 71328, Note_off_c, 3, 73, 64
6, 71328, Note_on_c, 3, 72, 80
6, 71328, Note_on_c, 3, 75, 83
6, 71424, Note_off_c, 3, 41, 64
6, 71424, Note_off_c, 3, 75, 64
6, 71424, Note_off_c, 3, 70, 64
6, 71424, Note_off_c, 3, 72, 64
6, 71424, Note_on_c, 3, 73, 75
6, 71424, Note_on_c, 3, 77, 79
6, 71424, Note_on_c, 3, 34, 50
6, 71424, Note_on_c, 3, 72, 98
6, 71808, Note_off_c, 3, 72, 64
6, 71808, Note_on_c, 3, 70, 78
6, 72192, Note_off_c, 3, 70, 64
6, 72192, Note_off_c, 3, 77, 64
6, 72192, Note_off_c, 3, 73, 64
6, 72192, Note_on_c, 3, 73, 74
6, 72192, Note_on_c, 3, 77, 74
6, 72192, Note_on_c, 3, 69, 69
6, 72576, Note_off_c, 3, 69, 64
6, 72576, Note_off_c, 3, 34, 64
6, 72576, Note_off_c, 3, 77, 64
6, 72576, Note_off_c, 3, 73, 64
6, 72576, Note_on_c, 3, 73, 73
6, 72576, Note_on_c, 3, 77, 73
6, 72576, Note_on_c, 3, 39, 65
6, 72576, Note_on_c, 3, 68, 66
6, 72864, Note_off_c, 3, 68, 64
6, 72864, Note_off_c, 3, 77, 64
6, 72864, Note_off_c, 3, 73, 64
6, 72864, Note_on_c, 3, 70, 59
6, 72864, Note_on_c, 3, 75, 62
6, 72864, Note_on_c, 3, 66, 53
6, 72960, Note_off_c, 3, 66, 64
6, 72960, Note_off_c, 3, 75, 64
6, 72960, Note_on_c, 3, 73, 54
6, 72960, Note_on_c, 3, 65, 54
6, 73248, Note_off_c, 3, 65, 64
6, 73248, Note_on_c, 3, 61, 44
6, 73344, Note_off_c, 3, 61, 64
6, 73344, Note_off_c, 3, 73, 64
6, 73344, Note_off_c, 3, 70, 64
6, 73344, Note_on_c, 3, 68, 50
6, 73344, Note_on_c, 3, 72, 50
6, 73344, Note_on_c, 3, 63, 56
6, 73728, Note_off_c, 3, 63, 64
6, 73728, Note_off_c, 3, 39, 64
6, 73728, Note_off_c, 3, 72, 64
6, 73728, Note_off_c, 3, 68, 64
6, 73728, Note_on_c, 3, 65, 48
6, 73728, Note_on_c, 3, 70, 50
6, 73728, Note_on_c, 3, 46, 106
6, 73728, Note_on_c, 3, 61, 52
6, 74112, Note_off_c, 3, 61, 64
6, 74112, Note_off_c, 3, 70, 64
6, 74112, Note_off_c, 3, 65, 64
6, 74112, Note_on_c, 3, 65, 44
6, 74112, Note_on_c, 3, 70, 48
6, 74112, Note_on_c, 3, 61, 47
6, 74496, Note_off_c, 3, 61, 64
6, 74496, Note_off_c, 3, 70, 64
6, 74496, Note_off_c, 3, 65, 64
6, 74496, Note_on_c, 3, 63, 46
6, 74496, Note_on_c, 3, 68, 45
6, 74496, Note_on_c, 3, 70, 45
6, 74496, Note_on_c, 3, 60, 46
6, 74880, Note_off_c, 3, 60, 64
6, 74880, Note_off_c, 3, 70, 64
6, 74880, Note_off_c, 3, 46, 64
6, 74880, Note_off_c, 3, 68, 64
6, 74880, Note_off_c, 3, 63, 64
6, 74880, Note_on_c, 3, 62, 63
6, 74880, Note_on_c, 3, 66, 69
6, 74880, Note_on_c, 3, 70, 67
6, 74880, Note_on_c, 3, 46, 109
6, 74880, Note_on_c, 3, 59, 59
6, 75168, Note_off_c, 3, 59, 64
6, 75168, Note_off_c, 3, 70, 64
6, 75168, Note_off_c, 3, 66, 64
6, 75168, Note_off_c, 3, 62, 64
6, 75168, Note_on_c, 3, 62, 56
6, 75168, Note_on_c, 3, 65, 56
6, 75168, Note_on_c, 3, 68, 55
6, 75168, Note_on_c, 3, 59, 56
6, 75264, Note_off_c, 3, 68, 64
6, 75264, Note_off_c, 3, 65, 64
6, 75264, Note_off_c, 3, 62, 64
6, 75264, Note_on_c, 3, 63, 50
6, 75264, Note_on_c, 3, 66, 53
6, 75552, Note_off_c, 3, 59, 64
6, 75552, Note_on_c, 3, 54, 72
6, 75648, Note_off_c, 3, 54, 64
6, 75648, Note_off_c, 3, 66, 64
6, 75648, Note_off_c, 3, 63, 64
6, 75648, Note_on_c, 3, 59, 58
6, 75648, Note_on_c, 3, 62, 53
6, 75648, Note_on_c, 3, 65, 54
6, 75648, Note_on_c, 3, 56, 85
6, 75936, Note_off_c, 3, 56, 64
6, 75936, Note_on_c, 3, 54, 69
6, 76032, Note_off_c, 3, 54, 64
6, 76032, Note_off_c, 3, 46, 64
6, 76032, Note_off_c, 3, 65, 64
6, 76032, Note_off_c, 3, 62, 64
6, 76032, Note_off_c, 3, 59, 64
6, 76032, Note_on_c, 3, 58, 48
6, 76032, Note_on_c, 3, 61, 46
6, 76032, Note_on_c, 3, 63, 49
6, 76032, Note_on_c, 3, 39, 69
6, 76416, Note_off_c, 3, 58, 64
6, 76416, Note_off_c, 3, 63, 64
6, 76416, Note_off_c, 3, 61, 64
6, 76416, Note_on_c, 3, 57, 48
6, 76416, Note_on_c, 3, 61, 50
6, 76416, Note_on_c, 3, 63, 44
6, 76800, Note_off_c, 3, 57, 64
6, 76800, Note_off_c, 3, 63, 64
6, 76800, Note_off_c, 3, 61, 64
6, 76800, Note_on_c, 3, 56, 46
6, 76800, Note_on_c, 3, 61, 46
6, 76800, Note_on_c, 3, 63, 45
6, 77184, Note_off_c, 3, 56, 64
6, 77184, Note_off_c, 3, 39, 64
6, 77184, Note_off_c, 3, 63, 64
6, 77184, Note_off_c, 3, 61, 64
6, 77184, Note_on_c, 3, 58, 83
6, 77184, Note_on_c, 3, 61, 85
6, 77184, Note_on_c, 3, 65, 83
6, 77184, Note_on_c, 3, 68, 78
6, 77184, Note_on_c, 3, 39, 109
6, 77184, Note_on_c, 3, 54, 116
6, 77472, Note_off_c, 3, 54, 64
6, 77472, Note_off_c, 3, 39, 64
6, 77472, Note_off_c, 3, 68, 64
6, 77472, Note_off_c, 3, 65, 64
6, 77472, Note_off_c, 3, 61, 64
6, 77472, Note_off_c, 3, 58, 64
6, 77472, Note_on_c, 3, 58, 66
6, 77472, Note_on_c, 3, 63, 63
6, 77472, Note_on_c, 3, 66, 63
6, 77472, Note_on_c, 3, 41, 64
6, 77568, Note_off_c, 3, 41, 64
6, 77568, Note_off_c, 3, 66, 64
6, 77568, Note_off_c, 3, 63, 64
6, 77568, Note_on_c, 3, 61, 62
6, 77568, Note_on_c, 3, 65, 62
6, 77568, Note_on_c, 3, 42, 75
6, 77760, Note_off_c, 3, 42, 64
6, 77760, Note_on_c, 3, 44, 116
6, 77952, Note_off_c, 3, 65, 64
6, 77952, Note_off_c, 3, 61, 64
6, 77952, Note_off_c, 3, 58, 64
6, 77952, Note_on_c, 3, 54, 56
6, 77952, Note_on_c, 3, 63, 54
6, 77952, Note_on_c, 3, 61, 77
6, 78240, Note_off_c, 3, 44, 64
6, 78240, Note_off_c, 3, 61, 64
6, 78240, Note_on_c, 3, 45, 103
6, 78240, Note_on_c, 3, 60, 67
6, 78336, Note_off_c, 3, 60, 64
6, 78336, Note_off_c, 3, 45, 64
6, 78336, Note_off_c, 3, 63, 64
6, 78336, Note_off_c, 3, 54, 64
6, 78336, Note_on_c, 3, 53, 55
6, 78336, Note_on_c, 3, 58, 58
6, 78336, Note_on_c, 3, 61, 58
6, 78336, Note_on_c, 3, 46, 120
6, 78720, Note_off_c, 3, 46, 64
6, 78720, Note_off_c, 3, 61, 64
6, 78720, Note_off_c, 3, 58, 64
6, 78720, Note_off_c, 3, 53, 64
6, 78720, Note_on_c, 3, 61, 68
6, 78720, Note_on_c, 3, 65, 72
6, 78720, Note_on_c, 3, 60, 77
6, 79008, Note_off_c, 3, 60, 64
6, 79008, Note_on_c, 3, 59, 67
6, 79104, Note_off_c, 3, 59, 64
6, 79104, Note_off_c, 3, 65, 64
6, 79104, Note_off_c, 3, 61, 64
6, 79104, Note_on_c, 3, 61, 73
6, 79104, Note_on_c, 3, 65, 75
6, 79104, Note_on_c, 3, 58, 64
6, 79392, Note_off_c, 3, 58, 64
6, 79392, Note_on_c, 3, 57, 54
6, 79488, Note_off_c, 3, 57, 64
6, 79488, Note_on_c, 3, 34, 77
6, 79488, Note_on_c, 3, 56, 58
6, 79776, Note_off_c, 3, 65, 64
6, 79776, Note_off_c, 3, 61, 64
6, 79776, Note_on_c, 3, 61, 87
6, 79776, Note_on_c, 3, 63, 90
6, 79872, Note_off_c, 3, 34, 64
6, 79872, Note_off_c, 3, 63, 64
6, 79872, Note_on_c, 3, 64, 103
6, 80160, Note_off_c, 3, 64, 64
6, 80160, Note_off_c, 3, 61, 64
6, 80160, Note_on_c, 3, 61, 100
6, 80160, Note_on_c, 3, 65, 109
6, 80256, Note_off_c, 3, 56, 64
6, 80256, Note_on_c, 3, 70, 91
6, 80544, Note_off_c, 3, 70, 64
6, 80544, Note_on_c, 3, 73, 102
6, 80640, Note_off_c, 3, 73, 64
6, 80640, Note_off_c, 3, 65, 64
6, 80640, Note_off_c, 3, 61, 64
6, 80640, Note_on_c, 3, 61, 109
6, 80640, Note_on_c, 3, 66, 116
6, 80640, Note_on_c, 3, 70, 109
6, 80640, Note_on_c, 3, 39, 77
6, 80640, Note_on_c, 3, 46, 77
6, 80640, Note_on_c, 3, 75, 109
6, 81024, Note_off_c, 3, 75, 64
6, 81024, Note_on_c, 3, 75, 112
6, 81312, Note_off_c, 3, 75, 64
6, 81312, Note_on_c, 3, 73, 87
6, 81408, Note_off_c, 3, 73, 64
6, 81408, Note_off_c, 3, 70, 64
6, 81408, Note_off_c, 3, 66, 64
6, 81408, Note_off_c, 3, 61, 64
6, 81408, Note_on_c, 3, 70, 74
6, 81539, Note_off_c, 3, 70, 64
6, 81539, Note_on_c, 3, 66, 63
6, 81657, Note_off_c, 3, 66, 64
6, 81657, Note_on_c, 3, 58, 95
6, 81657, Note_on_c, 3, 70, 94
6, 81792, Note_off_c, 3, 46, 64
6, 81792, Note_off_c, 3, 39, 64
6, 81792, Note_on_c, 3, 41, 58
6, 82172, Note_off_c, 3, 70, 64
6, 82172, Note_off_c, 3, 58, 64
6, 82176, Note_off_c, 3, 41, 64
6, 82176, Note_on_c, 3, 41, 89
6, 82176, Note_on_c, 3, 56, 85
6, 82176, Note_on_c, 3, 63, 109
6, 82176, Note_on_c, 3, 70, 116
6, 82368, Note_off_c, 3, 70, 64
6, 82368, Note_off_c, 3, 63, 64
6, 82368, Note_on_c, 3, 68, 84
6, 82425, Note_off_c, 3, 68, 64
6, 82425, Note_on_c, 3, 70, 97
6, 82496, Note_off_c, 3, 70, 64
6, 82499, Note_on_c, 3, 68, 85
6, 82556, Note_off_c, 3, 68, 64
6, 82560, Note_on_c, 3, 65, 75
6, 82691, Note_off_c, 3, 65, 64
6, 82691, Note_on_c, 3, 63, 57
6, 82809, Note_off_c, 3, 63, 64
6, 82809, Note_on_c, 3, 65, 71
6, 82944, Note_off_c, 3, 56, 64
6, 82944, Note_off_c, 3, 41, 64
6, 82944, Note_on_c, 3, 46, 44
6, 82944, Note_on_c, 3, 58, 101
6, 83232, Note_on_c, 3, 61, 57
6, 83232, Note_on_c, 3, 53, 61
6, 83328, Note_off_c, 3, 53, 64
6, 83328, Note_off_c, 3, 61, 64
6, 83328, Note_on_c, 3, 63, 78
6, 83328, Note_on_c, 3, 54, 69
6, 83459, Note_off_c, 3, 54, 64
6, 83459, Note_off_c, 3, 63, 64
6, 83459, Note_on_c, 3, 61, 59
6, 83459, Note_on_c, 3, 53, 56
6, 83577, Note_off_c, 3, 53, 64
6, 83577, Note_off_c, 3, 61, 64
6, 83577, Note_on_c, 3, 63, 74
6, 83577, Note_on_c, 3, 54, 64
6, 83708, Note_off_c, 3, 54, 64
6, 83708, Note_off_c, 3, 63, 64
6, 83712, Note_on_c, 3, 63, 73
6, 83712, Note_on_c, 3, 54, 68
6, 84000, Note_off_c, 3, 54, 64
6, 84000, Note_off_c, 3, 63, 64
6, 84000, Note_on_c, 3, 61, 56
6, 84000, Note_on_c, 3, 53, 58
6, 84092, Note_off_c, 3, 65, 64
6, 84096, Note_off_c, 3, 53, 64
6, 84096, Note_off_c, 3, 61, 64
6, 84096, Note_off_c, 3, 58, 64
6, 84096, Note_off_c, 3, 46, 64
6, 84096, Note_on_c, 3, 58, 54
6, 84096, Note_on_c, 3, 46, 44
6, 84384, Note_off_c, 3, 58, 64
6, 84384, Note_on_c, 3, 61, 63
6, 84384, Note_on_c, 3, 53, 59
6, 84480, Note_off_c, 3, 53, 64
6, 84480, Note_off_c, 3, 61, 64
6, 84480, Note_on_c, 3, 63, 73
6, 84480, Note_on_c, 3, 54, 73
6, 84768, Note_off_c, 3, 54, 64
6, 84768, Note_off_c, 3, 63, 64
6, 84768, Note_on_c, 3, 61, 62
6, 84768, Note_on_c, 3, 53, 62
6, 84864, Note_off_c, 3, 53, 64
6, 84864, Note_off_c, 3, 61, 64
6, 84864, Note_on_c, 3, 63, 70
6, 84864, Note_on_c, 3, 54, 62
6, 85248, Note_off_c, 3, 54, 64
6, 85248, Note_off_c, 3, 46, 64
6, 85248, Note_off_c, 3, 63, 64
6, 85248, Note_on_c, 3, 34, 50
6, 85632, Note_off_c, 3, 34, 64
6, 87552, Note_on_c, 3, 34, 40
6, 87936, Note_off_c, 3, 34, 64
6, 88320, Note_on_c, 3, 29, 36
6, 88704, Note_off_c, 3, 29, 64
6, 88704, Note_on_c, 3, 34, 50
6, 89088, Note_off_c, 3, 34, 64
6, 92160, Note_on_c, 3, 34, 36
6, 92544, Note_off_c, 3, 34, 64
6, 93312, Note_on_c, 3, 34, 39
6, 93696, Note_off_c, 3, 34, 64
6, 95328, Note_on_c, 3, 65, 77
6, 95424, Note_off_c, 3, 65, 64
6, 95424, Note_on_c, 3, 66, 78
6, 95520, Note_off_c, 3, 66, 64
6, 95520, Note_on_c, 3, 65, 66
6, 95616, Note_off_c, 3, 65, 64
6, 95616, Note_on_c, 3, 63, 64
6, 95712, Note_off_c, 3, 63, 64
6, 95712, Note_on_c, 3, 61, 52
6, 95808, Note_off_c, 3, 61, 64
6, 95808, Note_on_c, 3, 60, 50
6, 95904, Note_off_c, 3, 60, 64
6, 95904, Note_on_c, 3, 58, 44
6, 96000, Note_off_c, 3, 58, 64
6, 96000, Note_on_c, 3, 57, 47
6, 96096, Note_off_c, 3, 57, 64
6, 96096, Note_on_c, 3, 60, 53
6, 96192, Note_off_c, 3, 60, 64
6, 96192, Note_on_c, 3, 63, 68
6, 96288, Note_off_c, 3, 63, 64
6, 96288, Note_on_c, 3, 66, 81
6, 96384, Note_off_c, 3, 66, 64
6, 96384, Note_on_c, 3, 65, 74
6, 96480, Note_off_c, 3, 65, 64
6, 96480, Note_on_c, 3, 63, 59
6, 96576, Note_off_c, 3, 63, 64
6, 96576, Note_on_c, 3, 61, 55
6, 96672, Note_off_c, 3, 61, 64
6, 96672, Note_on_c, 3, 60, 50
6, 96768, Note_off_c, 3, 60, 64
6, 96768, Note_on_c, 3, 61, 58
6, 96864, Note_off_c, 3, 61, 64
6, 96864, Note_on_c, 3, 63, 63
6, 96960, Note_off_c, 3, 63, 64
6, 97824, Note_on_c, 3, 58, 92
6, 97920, Note_off_c, 3, 58, 64
6, 97920, Note_on_c, 3, 61, 95
6, 98051, Note_off_c, 3, 61, 64
6, 98051, Note_on_c, 3, 63, 90
6, 98169, Note_off_c, 3, 63, 64
6, 98169, Note_on_c, 3, 64, 123
6, 98300, Note_off_c, 3, 64, 64
6, 98304, Note_on_c, 3, 67, 95
6, 98435, Note_off_c, 3, 67, 64
6, 98435, Note_on_c, 3, 68, 90
6, 98553, Note_off_c, 3, 68, 64
6, 98553, Note_on_c, 3, 69, 115
6, 98684, Note_off_c, 3, 69, 64
6, 98688, Note_on_c, 3, 72, 90
6, 98819, Note_off_c, 3, 72, 64
6, 98819, Note_on_c, 3, 75, 87
6, 98937, Note_off_c, 3, 75, 64
6, 98937, Note_on_c, 3, 78, 92
6, 99068, Note_off_c, 3, 78, 64
6, 99072, Note_on_c, 3, 76, 78
6, 99168, Note_off_c, 3, 76, 64
6, 102528, Note_on_c, 3, 34, 36
6, 102912, Note_off_c, 3, 34, 64
6, 114048, Note_on_c, 3, 39, 47
6, 114432, Note_off_c, 3, 39, 64
6, 117504, Note_on_c, 3, 39, 48
6, 118272, Note_off_c, 3, 39, 64
6, 118656, Note_on_c, 3, 39, 47
6, 119808, Note_off_c, 3, 39, 64
6, 120576, Note_on_c, 3, 41, 40
6, 120960, Note_off_c, 3, 41, 64
6, 120960, Note_on_c, 3, 34, 36
6, 121344, Note_off_c, 3, 34, 64
6, 122112, Note_on_c, 3, 39, 36
6, 123264, Note_off_c, 3, 39, 64
6, 123264, Note_on_c, 3, 41, 43
6, 124416, Note_off_c, 3, 41, 64
6, 124416, Note_on_c, 3, 34, 59
6, 124800, Note_off_c, 3, 34, 64
6, 125952, Note_on_c, 3, 41, 64
6, 126720, Note_off_c, 3, 41, 64
6, 126720, Note_on_c, 3, 73, 75
6, 126720, Note_on_c, 3, 77, 79
6, 126720, Note_on_c, 3, 34, 50
6, 126720, Note_on_c, 3, 72, 98
6, 127104, Note_off_c, 3, 72, 64
6, 127104, Note_on_c, 3, 70, 78
6, 127488, Note_off_c, 3, 70, 64
6, 127488, Note_off_c, 3, 77, 64
6, 127488, Note_off_c, 3, 73, 64
6, 127488, Note_on_c, 3, 73, 74
6, 127488, Note_on_c, 3, 77, 74
6, 127488, Note_on_c, 3, 69, 69
6, 127872, Note_off_c, 3, 69, 64
6, 127872, Note_off_c, 3, 34, 64
6, 127872, Note_off_c, 3, 77, 64
6, 127872, Note_off_c, 3, 73, 64
6, 127872, Note_on_c, 3, 73, 73
6, 127872, Note_on_c, 3, 77, 73
6, 127872, Note_on_c, 3, 39, 65
6, 127872, Note_on_c, 3, 68, 66
6, 128160, Note_off_c, 3, 68, 64
6, 128160, Note_off_c, 3, 77, 64
6, 128160, Note_off_c, 3, 73, 64
6, 128160, Note_on_c, 3, 70, 59
6, 128160, Note_on_c, 3, 75, 62
6, 128160, Note_on_c, 3, 66, 53
6, 128256, Note_off_c, 3, 66, 64
6, 128256, Note_off_c, 3, 75, 64
6, 128256, Note_on_c, 3, 73, 54
6, 128256, Note_on_c, 3, 65, 54
6, 128544, Note_off_c, 3, 65, 64
6, 128544, Note_on_c, 3, 61, 44
6, 128640, Note_off_c, 3, 61, 64
6, 128640, Note_off_c, 3, 73, 64
6, 128640, Note_off_c, 3, 70, 64
6, 128640, Note_on_c, 3, 68, 50
6, 128640, Note_on_c, 3, 72, 50
6, 128640, Note_on_c, 3, 63, 56
6, 129024, Note_off_c, 3, 63, 64
6, 129024, Note_off_c, 3, 39, 64
6, 129024, Note_off_c, 3, 72, 64
6, 129024, Note_off_c, 3, 68, 64
6, 129024, Note_on_c, 3, 65, 48
6, 129024, Note_on_c, 3, 70, 50
6, 129024, Note_on_c, 3, 46, 106
6, 129024, Note_on_c, 3, 61, 52
6, 129408, Note_off_c, 3, 61, 64
6, 129408, Note_off_c, 3, 70, 64
6, 129408, Note_off_c, 3, 65, 64
6, 129408, Note_on_c, 3, 65, 44
6, 129408, Note_on_c, 3, 70, 48
6, 129408, Note_on_c, 3, 61, 47
6, 129792, Note_off_c, 3, 61, 64
6, 129792, Note_off_c, 3, 70, 64
6, 129792, Note_off_c, 3, 65, 64
6, 129792, Note_on_c, 3, 63, 46
6, 129792, Note_on_c, 3, 68, 45
6, 129792, Note_on_c, 3, 70, 45
6, 129792, Note_on_c, 3, 60, 46
6, 130176, Note_off_c, 3, 60, 64
6, 130176, Note_off_c, 3, 70, 64
6, 130176, Note_off_c, 3, 46, 64
6, 130176, Note_off_c, 3, 68, 64
6, 130176, Note_off_c, 3, 63, 64
6, 130176, Note_on_c, 3, 62, 63
6, 130176, Note_on_c, 3, 66, 69
6, 130176, Note_on_c, 3, 70, 67
6, 130176, Note_on_c, 3, 46, 109
6, 130176, Note_on_c, 3, 59, 59
6, 130464, Note_off_c, 3, 59, 64
6, 130464, Note_off_c, 3, 70, 64
6, 130464, Note_off_c, 3, 66, 64
6, 130464, Note_off_c, 3, 62, 64
6, 130464, Note_on_c, 3, 62, 56
6, 130464, Note_on_c, 3, 65, 56
6, 130464, Note_on_c, 3, 68, 55
6, 130464, Note_on_c, 3, 59, 56
6, 130560, Note_off_c, 3, 68, 64
6, 130560, Note_off_c, 3, 65, 64
6, 130560, Note_off_c, 3, 62, 64
6, 130560, Note_on_c, 3, 63, 50
6, 130560, Note_on_c, 3, 66, 53
6, 130848, Note_off_c, 3, 59, 64
6, 130848, Note_on_c, 3, 54, 72
6, 130944, Note_off_c, 3, 54, 64
6, 130944, Note_off_c, 3, 66, 64
6, 130944, Note_off_c, 3, 63, 64
6, 130944, Note_on_c, 3, 59, 58
6, 130944, Note_on_c, 3, 62, 53
6, 130944, Note_on_c, 3, 65, 54
6, 130944, Note_on_c, 3, 56, 85
6, 131232, Note_off_c, 3, 56, 64
6, 131232, Note_on_c, 3, 54, 69
6, 131328, Note_off_c, 3, 54, 64
6, 131328, Note_off_c, 3, 46, 64
6, 131328, Note_off_c, 3, 65, 64
6, 131328, Note_off_c, 3, 62, 64
6, 131328, Note_off_c, 3, 59, 64
6, 131328, Note_on_c, 3, 58, 48
6, 131328, Note_on_c, 3, 61, 46
6, 131328, Note_on_c, 3, 63, 49
6, 131328, Note_on_c, 3, 39, 69
6, 131712, Note_off_c, 3, 58, 64
6, 131712, Note_off_c, 3, 63, 64
6, 131712, Note_off_c, 3, 61, 64
6, 131712, Note_on_c, 3, 57, 48
6, 131712, Note_on_c, 3, 61, 50
6, 131712, Note_on_c, 3, 63, 44
6, 132096, Note_off_c, 3, 57, 64
6, 132096, Note_off_c, 3, 63, 64
6, 132096, Note_off_c, 3, 61, 64
6, 132096, Note_on_c, 3, 56, 46
6, 132096, Note_on_c, 3, 61, 46
6, 132096, Note_on_c, 3, 63, 45
6, 132480, Note_off_c, 3, 56, 64
6, 132480, Note_off_c, 3, 39, 64
6, 132480, Note_off_c, 3, 63, 64
6, 132480, Note_off_c, 3, 61, 64
6, 132480, Note_on_c, 3, 58, 83
6, 132480, Note_on_c, 3, 61, 85
6, 132480, Note_on_c, 3, 65, 83
6, 132480, Note_on_c, 3, 68, 78
6, 132480, Note_on_c, 3, 39, 109
6, 132480, Note_on_c, 3, 54, 116
6, 132768, Note_off_c, 3, 54, 64
6, 132768, Note_off_c, 3, 39, 64
6, 132768, Note_off_c, 3, 68, 64
6, 132768, Note_off_c, 3, 65, 64
6, 132768, Note_off_c, 3, 61, 64
6, 132768, Note_off_c, 3, 58, 64
6, 132768, Note_on_c, 3, 58, 66
6, 132768, Note_on_c, 3, 63, 63
6, 132768, Note_on_c, 3, 66, 63
6, 132768, Note_on_c, 3, 41, 64
6, 132864, Note_off_c, 3, 41, 64
6, 132864, Note_off_c, 3, 66, 64
6, 132864, Note_off_c, 3, 63, 64
6, 132864, Note_on_c, 3, 61, 62
6, 132864, Note_on_c, 3, 65, 62
6, 132864, Note_on_c, 3, 42, 75
6, 133056, Note_off_c, 3, 42, 64
6, 133056, Note_on_c, 3, 44, 116
6, 133248, Note_off_c, 3, 65, 64
6, 133248, Note_off_c, 3, 61, 64
6, 133248, Note_off_c, 3, 58, 64
6, 133248, Note_on_c, 3, 54, 56
6, 133248, Note_on_c, 3, 63, 54
6, 133248, Note_on_c, 3, 61, 77
6, 133536, Note_off_c, 3, 44, 64
6, 133536, Note_off_c, 3, 61, 64
6, 133536, Note_on_c, 3, 45, 103
6, 133536, Note_on_c, 3, 60, 67
6, 133632, Note_off_c, 3, 60, 64
6, 133632, Note_off_c, 3, 45, 64
6, 133632, Note_off_c, 3, 63, 64
6, 133632, Note_off_c, 3, 54, 64
6, 133632, Note_on_c, 3, 53, 55
6, 133632, Note_on_c, 3, 58, 58
6, 133632, Note_on_c, 3, 61, 58
6, 133632, Note_on_c, 3, 46, 120
6, 134016, Note_off_c, 3, 46, 64
6, 134016, Note_off_c, 3, 61, 64
6, 134016, Note_off_c, 3, 58, 64
6, 134016, Note_off_c, 3, 53, 64
6, 134016, Note_on_c, 3, 61, 68
6, 134016, Note_on_c, 3, 65, 72
6, 134016, Note_on_c, 3, 60, 77
6, 134304, Note_off_c, 3, 60, 64
6, 134304, Note_on_c, 3, 59, 67
6, 134400, Note_off_c, 3, 59, 64
6, 134400, Note_off_c, 3, 65, 64
6, 134400, Note_off_c, 3, 61, 64
6, 134400, Note_on_c, 3, 61, 73
6, 134400, Note_on_c, 3, 65, 75
6, 134400, Note_on_c, 3, 58, 64
6, 134688, Note_off_c, 3, 58, 64
6, 134688, Note_on_c, 3, 57, 54
6, 134784, Note_off_c, 3, 57, 64
6, 134784, Note_on_c, 3, 34, 77
6, 134784, Note_on_c, 3, 56, 58
6, 135072, Note_off_c, 3, 65, 64
6, 135072, Note_off_c, 3, 61, 64
6, 135072, Note_on_c, 3, 61, 87
6, 135072, Note_on_c, 3, 63, 90
6, 135168, Note_off_c, 3, 34, 64
6, 135168, Note_off_c, 3, 63, 64
6, 135168, Note_on_c, 3, 64, 103
6, 135456, Note_off_c, 3, 64, 64
6, 135456, Note_off_c, 3, 61, 64
6, 135456, Note_on_c, 3, 61, 100
6, 135456, Note_on_c, 3, 65, 109
6, 135552, Note_off_c, 3, 56, 64
6, 135552, Note_on_c, 3, 70, 91
6, 135840, Note_off_c, 3, 70, 64
6, 135840, Note_on_c, 3, 73, 102
6, 135936, Note_off_c, 3, 73, 64
6, 135936, Note_off_c, 3, 65, 64
6, 135936, Note_off_c, 3, 61, 64
6, 135936, Note_on_c, 3, 61, 109
6, 135936, Note_on_c, 3, 66, 116
6, 135936, Note_on_c, 3, 70, 109
6, 135936, Note_on_c, 3, 39, 77
6, 135936, Note_on_c, 3, 46, 77
6, 135936, Note_on_c, 3, 75, 109
6, 136320, Note_off_c, 3, 75, 64
6, 136320, Note_on_c, 3, 75, 112
6, 136608, Note_off_c, 3, 75, 64
6, 136608, Note_on_c, 3, 73, 87
6, 136704, Note_off_c, 3, 73, 64
6, 136704, Note_off_c, 3, 70, 64
6, 136704, Note_off_c, 3, 66, 64
6, 136704, Note_off_c, 3, 61, 64
6, 136704, Note_on_c, 3, 70, 74
6, 136835, Note_off_c, 3, 70, 64
6, 136835, Note_on_c, 3, 66, 63
6, 136953, Note_off_c, 3, 66, 64
6, 136953, Note_on_c, 3, 58, 95
6, 136953, Note_on_c, 3, 70, 94
6, 137088, Note_off_c, 3, 46, 64
6, 137088, Note_off_c, 3, 39, 64
6, 137088, Note_on_c, 3, 41, 58
6, 137468, Note_off_c, 3, 70, 64
6, 137468, Note_off_c, 3, 58, 64
6, 137472, Note_off_c, 3, 41, 64
6, 137472, Note_on_c, 3, 41, 89
6, 137472, Note_on_c, 3, 56, 85
6, 137472, Note_on_c, 3, 63, 109
6, 137472, Note_on_c, 3, 70, 116
6, 137664, Note_off_c, 3, 70, 64
6, 137664, Note_off_c, 3, 63, 64
6, 137664, Note_on_c, 3, 68, 84
6, 137721, Note_off_c, 3, 68, 64
6, 137721, Note_on_c, 3, 70, 97
6, 137792, Note_off_c, 3, 70, 64
6, 137795, Note_on_c, 3, 68, 85
6, 137852, Note_off_c, 3, 68, 64
6, 137856, Note_on_c, 3, 65, 75
6, 137987, Note_off_c, 3, 65, 64
6, 137987, Note_on_c, 3, 63, 57
6, 138105, Note_off_c, 3, 63, 64
6, 138105, Note_on_c, 3, 65, 71
6, 138240, Note_off_c, 3, 56, 64
6, 138240, Note_off_c, 3, 41, 64
6, 138240, Note_on_c, 3, 46, 44
6, 138240, Note_on_c, 3, 58, 101
6, 138528, Note_on_c, 3, 61, 57
6, 138528, Note_on_c, 3, 53, 61
6, 138624, Note_off_c, 3, 53, 64
6, 138624, Note_off_c, 3, 61, 64
6, 138624, Note_on_c, 3, 63, 78
6, 138624, Note_on_c, 3, 54, 69
6, 138755, Note_off_c, 3, 54, 64
6, 138755, Note_off_c, 3, 63, 64
6, 138755, Note_on_c, 3, 61, 59
6, 138755, Note_on_c, 3, 53, 56
6, 138873, Note_off_c, 3, 53, 64
6, 138873, Note_off_c, 3, 61, 64
6, 138873, Note_on_c, 3, 63, 74
6, 138873, Note_on_c, 3, 54, 64
6, 139004, Note_off_c, 3, 54, 64
6, 139004, Note_off_c, 3, 63, 64
6, 139008, Note_on_c, 3, 63, 73
6, 139008, Note_on_c, 3, 54, 68
6, 139296, Note_off_c, 3, 54, 64
6, 139296, Note_off_c, 3, 63, 64
6, 139296, Note_on_c, 3, 61, 56
6, 139296, Note_on_c, 3, 53, 58
6, 139388, Note_off_c, 3, 65, 64
6, 139392, Note_off_c, 3, 53, 64
6, 139392, Note_off_c, 3, 61, 64
6, 139392, Note_off_c, 3, 58, 64
6, 139392, Note_off_c, 3, 46, 64
6, 139392, Note_on_c, 3, 58, 54
6, 139392, Note_on_c, 3, 46, 44
6, 139680, Note_off_c, 3, 58, 64
6, 139680, Note_on_c, 3, 61, 63
6, 139680, Note_on_c, 3, 53, 59
6, 139776, Note_off_c, 3, 53, 64
6, 139776, Note_off_c, 3, 61, 64
6, 139776, Note_on_c, 3, 63, 73
6, 139776, Note_on_c, 3, 54, 73
6, 140064, Note_off_c, 3, 54, 64
6, 140064, Note_off_c, 3, 63, 64
6, 140064, Note_on_c, 3, 61, 62
6, 140064, Note_on_c, 3, 53, 62
6, 140160, Note_off_c, 3, 53, 64
6, 140160, Note_off_c, 3, 61, 64
6, 140160, Note_on_c, 3, 63, 70
6, 140160, Note_on_c, 3, 54, 62
6, 140544, Note_off_c, 3, 54, 64
6, 140544, Note_off_c, 3, 46, 64
6, 140544, Note_off_c, 3, 63, 64
6, 140544, Note_on_c, 3, 70, 70
6, 140544, Note_on_c, 3, 46, 55
6, 140544, Note_on_c, 3, 53, 60
6, 140928, Note_off_c, 3, 53, 64
6, 140928, Note_off_c, 3, 46, 64
6, 140928, Note_on_c, 3, 56, 66
6, 140928, Note_on_c, 3, 58, 66
6, 140928, Note_on_c, 3, 61, 70
6, 140928, Note_on_c, 3, 66, 63
6, 141312, Note_off_c, 3, 66, 64
6, 141312, Note_off_c, 3, 61, 64
6, 141312, Note_off_c, 3, 58, 64
6, 141312, Note_off_c, 3, 56, 64
6, 141312, Note_on_c, 3, 56, 55
6, 141312, Note_on_c, 3, 58, 58
6, 141312, Note_on_c, 3, 61, 58
6, 141312, Note_on_c, 3, 65, 63
6, 141696, Note_off_c, 3, 65, 64
6, 141696, Note_off_c, 3, 61, 64
6, 141696, Note_off_c, 3, 58, 64
6, 141696, Note_off_c, 3, 56, 64
6, 141696, Note_off_c, 3, 70, 64
6, 141696, Note_on_c, 3, 80, 70
6, 141696, Note_on_c, 3, 39, 39
6, 141696, Note_on_c, 3, 46, 39
6, 142080, Note_off_c, 3, 46, 64
6, 142080, Note_off_c, 3, 39, 64
6, 142080, Note_on_c, 3, 54, 58
6, 142080, Note_on_c, 3, 58, 62
6, 142080, Note_on_c, 3, 61, 62
6, 142080, Note_on_c, 3, 65, 58
6, 142464, Note_off_c, 3, 65, 64
6, 142464, Note_off_c, 3, 61, 64
6, 142464, Note_off_c, 3, 58, 64
6, 142464, Note_off_c, 3, 54, 64
6, 142464, Note_on_c, 3, 54, 51
6, 142464, Note_on_c, 3, 57, 55
6, 142464, Note_on_c, 3, 60, 51
6, 142464, Note_on_c, 3, 64, 55
6, 142848, Note_off_c, 3, 64, 64
6, 142848, Note_off_c, 3, 60, 64
6, 142848, Note_off_c, 3, 57, 64
6, 142848, Note_off_c, 3, 54, 64
6, 142848, Note_off_c, 3, 80, 64
6, 142848, Note_on_c, 3, 81, 90
6, 142848, Note_on_c, 3, 46, 47
6, 142848, Note_on_c, 3, 53, 46
6, 143040, Note_off_c, 3, 81, 64
6, 143040, Note_on_c, 3, 80, 71
6, 143232, Note_off_c, 3, 53, 64
6, 143232, Note_off_c, 3, 46, 64
6, 143232, Note_off_c, 3, 80, 64
6, 143232, Note_on_c, 3, 81, 70
6, 143232, Note_on_c, 3, 53, 55
6, 143232, Note_on_c, 3, 56, 53
6, 143232, Note_on_c, 3, 60, 53
6, 143232, Note_on_c, 3, 63, 57
6, 143424, Note_off_c, 3, 81, 64
6, 143424, Note_on_c, 3, 80, 59
6, 143616, Note_off_c, 3, 63, 64
6, 143616, Note_off_c, 3, 60, 64
6, 143616, Note_off_c, 3, 56, 64
6, 143616, Note_off_c, 3, 53, 64
6, 143616, Note_off_c, 3, 80, 64
6, 143616, Note_on_c, 3, 72, 40
6, 143616, Note_on_c, 3, 53, 55
6, 143616, Note_on_c, 3, 56, 51
6, 143616, Note_on_c, 3, 60, 53
6, 143616, Note_on_c, 3, 63, 56
6, 144000, Note_off_c, 3, 63, 64
6, 144000, Note_off_c, 3, 60, 64
6, 144000, Note_off_c, 3, 56, 64
6, 144000, Note_off_c, 3, 53, 64
6, 144000, Note_on_c, 3, 46, 36
6, 144000, Note_on_c, 3, 53, 39
6, 144384, Note_off_c, 3, 53, 64
6, 144384, Note_off_c, 3, 46, 64
6, 144384, Note_off_c, 3, 72, 64
6, 144384, Note_on_c, 3, 81, 87
6, 144384, Note_on_c, 3, 53, 69
6, 144384, Note_on_c, 3, 56, 63
6, 144384, Note_on_c, 3, 60, 65
6, 144384, Note_on_c, 3, 63, 63
6, 144576, Note_off_c, 3, 81, 64
6, 144576, Note_on_c, 3, 80, 69
6, 144768, Note_off_c, 3, 63, 64
6, 144768, Note_off_c, 3, 60, 64
6, 144768, Note_off_c, 3, 56, 64
6, 144768, Note_off_c, 3, 53, 64
6, 144768, Note_off_c, 3, 80, 64
6, 144768, Note_on_c, 3, 81, 81
6, 144768, Note_on_c, 3, 53, 64
6, 144768, Note_on_c, 3, 56, 71
6, 144768, Note_on_c, 3, 60, 64
6, 144768, Note_on_c, 3, 63, 64
6, 144960, Note_off_c, 3, 81, 64
6, 144960, Note_on_c, 3, 80, 69
6, 145152, Note_off_c, 3, 63, 64
6, 145152, Note_off_c, 3, 60, 64
6, 145152, Note_off_c, 3, 56, 64
6, 145152, Note_off_c, 3, 53, 64
6, 145152, Note_off_c, 3, 80, 64
6, 145152, Note_on_c, 3, 82, 83
6, 145152, Note_on_c, 3, 39, 46
6, 145152, Note_on_c, 3, 46, 44
6, 145344, Note_off_c, 3, 82, 64
6, 145344, Note_on_c, 3, 81, 70
6, 145536, Note_off_c, 3, 46, 64
6, 145536, Note_off_c, 3, 39, 64
6, 145536, Note_off_c, 3, 81, 64
6, 145536, Note_on_c, 3, 82, 59
6, 145536, Note_on_c, 3, 55, 55
6, 145536, Note_on_c, 3, 58, 58
6, 145536, Note_on_c, 3, 61, 58
6, 145536, Note_on_c, 3, 65, 56
6, 145728, Note_off_c, 3, 82, 64
6, 145728, Note_on_c, 3, 81, 55
6, 145920, Note_off_c, 3, 65, 64
6, 145920, Note_off_c, 3, 61, 64
6, 145920, Note_off_c, 3, 58, 64
6, 145920, Note_off_c, 3, 55, 64
6, 145920, Note_off_c, 3, 81, 64
6, 145920, Note_on_c, 3, 73, 34
6, 145920, Note_on_c, 3, 55, 55
6, 145920, Note_on_c, 3, 58, 57
6, 145920, Note_on_c, 3, 61, 55
6, 145920, Note_on_c, 3, 65, 54
6, 146304, Note_off_c, 3, 65, 64
6, 146304, Note_off_c, 3, 61, 64
6, 146304, Note_off_c, 3, 58, 64
6, 146304, Note_off_c, 3, 55, 64
6, 146304, Note_on_c, 3, 39, 37
6, 146304, Note_on_c, 3, 46, 35
6, 146688, Note_off_c, 3, 46, 64
6, 146688, Note_off_c, 3, 39, 64
6, 146688, Note_off_c, 3, 73, 64
6, 146688, Note_on_c, 3, 82, 95
6, 146688, Note_on_c, 3, 55, 72
6, 146688, Note_on_c, 3, 58, 70
6, 146688, Note_on_c, 3, 61, 68
6, 146688, Note_on_c, 3, 65, 70
6, 146880, Note_off_c, 3, 82, 64
6, 146880, Note_on_c, 3, 81, 74
6, 147072, Note_off_c, 3, 65, 64
6, 147072, Note_off_c, 3, 61, 64
6, 147072, Note_off_c, 3, 58, 64
6, 147072, Note_off_c, 3, 55, 64
6, 147072, Note_off_c, 3, 81, 64
6, 147072, Note_on_c, 3, 82, 79
6, 147072, Note_on_c, 3, 55, 64
6, 147072, Note_on_c, 3, 58, 71
6, 147072, Note_on_c, 3, 61, 73
6, 147072, Note_on_c, 3, 65, 64
6, 147264, Note_off_c, 3, 82, 64
6, 147264, Note_on_c, 3, 81, 72
6, 147456, Note_off_c, 3, 65, 64
6, 147456, Note_off_c, 3, 61, 64
6, 147456, Note_off_c, 3, 58, 64
6, 147456, Note_off_c, 3, 55, 64
6, 147456, Note_off_c, 3, 81, 64
6, 147456, Note_on_c, 3, 84, 67
6, 147456, Note_on_c, 3, 46, 36
6, 147456, Note_on_c, 3, 53, 39
6, 147648, Note_off_c, 3, 84, 64
6, 147648, Note_on_c, 3, 85, 70
6, 147840, Note_off_c, 3, 53, 64
6, 147840, Note_off_c, 3, 46, 64
6, 147840, Note_off_c, 3, 85, 64
6, 147840, Note_on_c, 3, 81, 56
6, 147840, Note_on_c, 3, 56, 55
6, 147840, Note_on_c, 3, 58, 55
6, 147840, Note_on_c, 3, 61, 55
6, 147840, Note_on_c, 3, 65, 58
6, 148032, Note_off_c, 3, 81, 64
6, 148032, Note_on_c, 3, 82, 68
6, 148224, Note_off_c, 3, 65, 64
6, 148224, Note_off_c, 3, 61, 64
6, 148224, Note_off_c, 3, 58, 64
6, 148224, Note_off_c, 3, 56, 64
6, 148224, Note_off_c, 3, 82, 64
6, 148224, Note_on_c, 3, 84, 87
6, 148224, Note_on_c, 3, 56, 71
6, 148224, Note_on_c, 3, 58, 68
6, 148224, Note_on_c, 3, 61, 71
6, 148224, Note_on_c, 3, 65, 66
6, 148416, Note_off_c, 3, 84, 64
6, 148416, Note_on_c, 3, 85, 78
6, 148608, Note_off_c, 3, 65, 64
6, 148608, Note_off_c, 3, 61, 64
6, 148608, Note_off_c, 3, 58, 64
6, 148608, Note_off_c, 3, 56, 64
6, 148608, Note_off_c, 3, 85, 64
6, 148608, Note_on_c, 3, 87, 71
6, 148608, Note_on_c, 3, 44, 37
6, 148608, Note_on_c, 3, 53, 37
6, 148800, Note_off_c, 3, 87, 64
6, 148800, Note_on_c, 3, 89, 67
6, 148992, Note_off_c, 3, 53, 64
6, 148992, Note_off_c, 3, 44, 64
6, 148992, Note_off_c, 3, 89, 64
6, 148992, Note_on_c, 3, 84, 57
6, 148992, Note_on_c, 3, 56, 58
6, 148992, Note_on_c, 3, 58, 55
6, 148992, Note_on_c, 3, 61, 56
6, 148992, Note_on_c, 3, 65, 59
6, 149184, Note_off_c, 3, 84, 64
6, 149184, Note_on_c, 3, 85, 71
6, 149376, Note_off_c, 3, 65, 64
6, 149376, Note_off_c, 3, 61, 64
6, 149376, Note_off_c, 3, 58, 64
6, 149376, Note_off_c, 3, 56, 64
6, 149376, Note_off_c, 3, 85, 64
6, 149376, Note_on_c, 3, 87, 77
6, 149376, Note_on_c, 3, 56, 66
6, 149376, Note_on_c, 3, 58, 71
6, 149376, Note_on_c, 3, 61, 71
6, 149376, Note_on_c, 3, 65, 64
6, 149568, Note_off_c, 3, 87, 64
6, 149568, Note_on_c, 3, 89, 87
6, 149760, Note_off_c, 3, 65, 64
6, 149760, Note_off_c, 3, 61, 64
6, 149760, Note_off_c, 3, 58, 64
6, 149760, Note_off_c, 3, 56, 64
6, 149760, Note_off_c, 3, 89, 64
6, 149760, Note_on_c, 3, 90, 87
6, 149760, Note_on_c, 3, 42, 47
6, 149760, Note_on_c, 3, 49, 46
6, 149952, Note_off_c, 3, 90, 64
6, 149952, Note_on_c, 3, 92, 84
6, 150144, Note_off_c, 3, 49, 64
6, 150144, Note_off_c, 3, 42, 64
6, 150144, Note_off_c, 3, 92, 64
6, 150144, Note_on_c, 3, 89, 73
6, 150144, Note_on_c, 3, 58, 72
6, 150144, Note_on_c, 3, 61, 70
6, 150144, Note_on_c, 3, 63, 68
6, 150144, Note_on_c, 3, 68, 72
6, 150528, Note_off_c, 3, 89, 64
6, 150528, Note_on_c, 3, 87, 63
6, 150720, Note_off_c, 3, 87, 64
6, 150720, Note_on_c, 3, 89, 72
6, 150912, Note_off_c, 3, 68, 64
6, 150912, Note_off_c, 3, 63, 64
6, 150912, Note_off_c, 3, 61, 64
6, 150912, Note_off_c, 3, 58, 64
6, 150912, Note_off_c, 3, 89, 64
6, 150912, Note_on_c, 3, 85, 55
6, 150912, Note_on_c, 3, 41, 53
6, 150912, Note_on_c, 3, 48, 57
6, 151296, Note_off_c, 3, 48, 64
6, 151296, Note_off_c, 3, 41, 64
6, 151296, Note_off_c, 3, 85, 64
6, 151296, Note_on_c, 3, 84, 42
6, 151296, Note_on_c, 3, 57, 82
6, 151296, Note_on_c, 3, 60, 84
6, 151296, Note_on_c, 3, 63, 84
6, 151296, Note_on_c, 3, 66, 76
6, 151488, Note_off_c, 3, 84, 64
6, 151488, Note_on_c, 3, 85, 43
6, 151680, Note_off_c, 3, 66, 64
6, 151680, Note_off_c, 3, 85, 64
6, 151680, Note_on_c, 3, 81, 36
6, 151680, Note_on_c, 3, 65, 59
6, 152064, Note_off_c, 3, 65, 64
6, 152064, Note_off_c, 3, 63, 64
6, 152064, Note_off_c, 3, 60, 64
6, 152064, Note_off_c, 3, 57, 64
6, 152064, Note_off_c, 3, 81, 64
6, 152064, Note_on_c, 3, 84, 47
6, 152064, Note_on_c, 3, 39, 40
6, 152064, Note_on_c, 3, 46, 39
6, 152256, Note_off_c, 3, 84, 64
6, 152256, Note_on_c, 3, 82, 39
6, 152313, Note_off_c, 3, 82, 64
6, 152313, Note_on_c, 3, 84, 45
6, 152384, Note_off_c, 3, 84, 64
6, 152387, Note_on_c, 3, 82, 41
6, 152444, Note_off_c, 3, 82, 64
6, 152448, Note_off_c, 3, 46, 64
6, 152448, Note_off_c, 3, 39, 64
6, 152448, Note_on_c, 3, 76, 36
6, 152448, Note_on_c, 3, 55, 60
6, 152448, Note_on_c, 3, 58, 58
6, 152448, Note_on_c, 3, 61, 60
6, 152448, Note_on_c, 3, 66, 60
6, 152832, Note_off_c, 3, 66, 64
6, 152832, Note_off_c, 3, 76, 64
6, 152832, Note_on_c, 3, 75, 38
6, 152832, Note_on_c, 3, 67, 58
6, 153024, Note_off_c, 3, 75, 64
6, 153024, Note_on_c, 3, 73, 34
6, 153216, Note_off_c, 3, 67, 64
6, 153216, Note_off_c, 3, 61, 64
6, 153216, Note_off_c, 3, 58, 64
6, 153216, Note_off_c, 3, 55, 64
6, 153216, Note_off_c, 3, 73, 64
6, 153216, Note_on_c, 3, 75, 43
6, 153216, Note_on_c, 3, 41, 43
6, 153216, Note_on_c, 3, 48, 43
6, 153600, Note_off_c, 3, 48, 64
6, 153600, Note_off_c, 3, 41, 64
6, 153600, Note_off_c, 3, 75, 64
6, 153600, Note_on_c, 3, 75, 31
6, 153600, Note_on_c, 3, 57, 45
6, 153600, Note_on_c, 3, 60, 45
6, 153600, Note_on_c, 3, 63, 46
6, 153600, Note_on_c, 3, 68, 45
6, 153792, Note_off_c, 3, 75, 64
6, 153792, Note_on_c, 3, 73, 29
6, 153984, Note_off_c, 3, 68, 64
6, 153984, Note_off_c, 3, 63, 64
6, 153984, Note_off_c, 3, 60, 64
6, 153984, Note_off_c, 3, 57, 64
6, 153984, Note_off_c, 3, 73, 64
6, 153984, Note_on_c, 3, 69, 26
6, 153984, Note_on_c, 3, 66, 45
6, 154176, Note_off_c, 3, 66, 64
6, 154176, Note_on_c, 3, 65, 34
6, 154368, Note_off_c, 3, 65, 64
6, 154368, Note_off_c, 3, 69, 64
6, 154368, Note_on_c, 3, 70, 42
6, 154368, Note_on_c, 3, 46, 36
6, 154368, Note_on_c, 3, 53, 38
6, 154752, Note_off_c, 3, 53, 64
6, 154752, Note_off_c, 3, 46, 64
6, 154752, Note_on_c, 3, 66, 77
6, 155136, Note_off_c, 3, 66, 64
6, 155136, Note_on_c, 3, 65, 48
6, 155520, Note_off_c, 3, 65, 64
6, 155520, Note_off_c, 3, 70, 64
6, 155520, Note_on_c, 3, 80, 63
6, 155520, Note_on_c, 3, 39, 38
6, 155520, Note_on_c, 3, 46, 36
6, 155904, Note_off_c, 3, 46, 64
6, 155904, Note_off_c, 3, 39, 64
6, 155904, Note_on_c, 3, 65, 77
6, 156288, Note_off_c, 3, 65, 64
6, 156288, Note_on_c, 3, 64, 52
6, 156672, Note_off_c, 3, 64, 64
6, 156672, Note_off_c, 3, 80, 64
6, 156672, Note_on_c, 3, 81, 82
6, 156672, Note_on_c, 3, 46, 46
6, 156672, Note_on_c, 3, 53, 44
6, 156864, Note_off_c, 3, 81, 64
6, 156864, Note_on_c, 3, 80, 66
6, 157056, Note_off_c, 3, 53, 64
6, 157056, Note_off_c, 3, 46, 64
6, 157056, Note_off_c, 3, 80, 64
6, 157056, Note_on_c, 3, 81, 67
6, 157056, Note_on_c, 3, 64, 70
6, 157248, Note_off_c, 3, 81, 64
6, 157248, Note_on_c, 3, 80, 55
6, 157440, Note_off_c, 3, 64, 64
6, 157440, Note_off_c, 3, 80, 64
6, 157440, Note_on_c, 3, 72, 35
6, 157440, Note_on_c, 3, 63, 48
6, 157824, Note_off_c, 3, 63, 64
6, 157824, Note_on_c, 3, 46, 36
6, 157824, Note_on_c, 3, 53, 38
6, 158208, Note_off_c, 3, 53, 64
6, 158208, Note_off_c, 3, 46, 64
6, 158208, Note_off_c, 3, 72, 64
6, 158208, Note_on_c, 3, 81, 90
6, 158208, Note_on_c, 3, 63, 90
6, 158400, Note_off_c, 3, 81, 64
6, 158400, Note_on_c, 3, 80, 74
6, 158592, Note_off_c, 3, 63, 64
6, 158592, Note_off_c, 3, 80, 64
6, 158592, Note_on_c, 3, 81, 87
6, 158592, Note_on_c, 3, 62, 58
6, 158784, Note_off_c, 3, 81, 64
6, 158784, Note_on_c, 3, 80, 72
6, 158976, Note_off_c, 3, 62, 64
6, 158976, Note_off_c, 3, 80, 64
6, 158976, Note_on_c, 3, 82, 83
6, 158976, Note_on_c, 3, 39, 47
6, 158976, Note_on_c, 3, 55, 47
6, 158976, Note_on_c, 3, 46, 50
6, 159168, Note_off_c, 3, 82, 64
6, 159168, Note_on_c, 3, 81, 68
6, 159360, Note_off_c, 3, 46, 64
6, 159360, Note_off_c, 3, 81, 64
6, 159360, Note_on_c, 3, 82, 65
6, 159360, Note_on_c, 3, 46, 34
6, 159552, Note_off_c, 3, 82, 64
6, 159552, Note_on_c, 3, 81, 49
6, 159744, Note_off_c, 3, 46, 64
6, 159744, Note_off_c, 3, 81, 64
6, 159744, Note_on_c, 3, 73, 34
6, 159744, Note_on_c, 3, 46, 35
6, 160128, Note_off_c, 3, 46, 64
6, 160128, Note_on_c, 3, 65, 74
6, 160512, Note_off_c, 3, 73, 64
6, 160512, Note_on_c, 3, 82, 84
6, 160512, Note_on_c, 3, 61, 47
6, 160704, Note_off_c, 3, 82, 64
6, 160704, Note_on_c, 3, 81, 76
6, 160896, Note_off_c, 3, 61, 64
6, 160896, Note_off_c, 3, 81, 64
6, 160896, Note_on_c, 3, 82, 79
6, 160896, Note_on_c, 3, 61, 48
6, 161088, Note_off_c, 3, 82, 64
6, 161088, Note_on_c, 3, 81, 72
6, 161280, Note_off_c, 3, 61, 64
6, 161280, Note_off_c, 3, 65, 64
6, 161280, Note_off_c, 3, 55, 64
6, 161280, Note_off_c, 3, 39, 64
6, 161280, Note_off_c, 3, 81, 64
6, 161280, Note_on_c, 3, 84, 67
6, 161280, Note_on_c, 3, 46, 36
6, 161280, Note_on_c, 3, 53, 38
6, 161280, Note_on_c, 3, 66, 48
6, 161472, Note_off_c, 3, 66, 64
6, 161472, Note_off_c, 3, 84, 64
6, 161472, Note_on_c, 3, 85, 63
6, 161472, Note_on_c, 3, 65, 40
6, 161664, Note_off_c, 3, 65, 64
6, 161664, Note_off_c, 3, 85, 64
6, 161664, Note_on_c, 3, 81, 53
6, 161664, Note_on_c, 3, 66, 45
6, 161856, Note_off_c, 3, 66, 64
6, 161856, Note_off_c, 3, 81, 64
6, 161856, Note_on_c, 3, 82, 68
6, 161856, Note_on_c, 3, 65, 52
6, 162048, Note_off_c, 3, 65, 64
6, 162048, Note_off_c, 3, 82, 64
6, 162048, Note_on_c, 3, 84, 84
6, 162048, Note_on_c, 3, 57, 37
6, 162240, Note_off_c, 3, 57, 64
6, 162240, Note_off_c, 3, 84, 64
6, 162240, Note_on_c, 3, 85, 84
6, 162240, Note_on_c, 3, 61, 48
6, 162432, Note_off_c, 3, 61, 64
6, 162432, Note_off_c, 3, 53, 64
6, 162432, Note_off_c, 3, 46, 64
6, 162432, Note_off_c, 3, 85, 64
6, 162432, Note_on_c, 3, 87, 71
6, 162432, Note_on_c, 3, 44, 38
6, 162432, Note_on_c, 3, 53, 36
6, 162432, Note_on_c, 3, 66, 45
6, 162624, Note_off_c, 3, 66, 64
6, 162624, Note_off_c, 3, 87, 64
6, 162624, Note_on_c, 3, 89, 70
6, 162624, Note_on_c, 3, 65, 38
6, 162816, Note_off_c, 3, 65, 64
6, 162816, Note_off_c, 3, 89, 64
6, 162816, Note_on_c, 3, 84, 54
6, 162816, Note_on_c, 3, 66, 42
6, 163008, Note_off_c, 3, 66, 64
6, 163008, Note_off_c, 3, 84, 64
6, 163008, Note_on_c, 3, 85, 74
6, 163008, Note_on_c, 3, 65, 50
6, 163200, Note_off_c, 3, 65, 64
6, 163200, Note_off_c, 3, 85, 64
6, 163200, Note_on_c, 3, 87, 80
6, 163200, Note_on_c, 3, 63, 48
6, 163392, Note_off_c, 3, 63, 64
6, 163392, Note_off_c, 3, 87, 64
6, 163392, Note_on_c, 3, 89, 84
6, 163392, Note_on_c, 3, 61, 41
6, 163584, Note_off_c, 3, 61, 64
6, 163584, Note_off_c, 3, 53, 64
6, 163584, Note_off_c, 3, 44, 64
6, 163584, Note_off_c, 3, 89, 64
6, 163584, Note_on_c, 3, 90, 87
6, 163584, Note_on_c, 3, 42, 60
6, 163584, Note_on_c, 3, 49, 60
6, 163584, Note_on_c, 3, 58, 62
6, 163776, Note_off_c, 3, 90, 64
6, 163776, Note_on_c, 3, 92, 87
6, 163776, Note_on_c, 3, 72, 44
6, 163968, Note_off_c, 3, 72, 64
6, 163968, Note_off_c, 3, 92, 64
6, 163968, Note_on_c, 3, 89, 66
6, 163968, Note_on_c, 3, 73, 55
6, 164160, Note_off_c, 3, 73, 64
6, 164160, Note_on_c, 3, 72, 47
6, 164352, Note_off_c, 3, 72, 64
6, 164352, Note_off_c, 3, 89, 64
6, 164352, Note_on_c, 3, 87, 65
6, 164352, Note_on_c, 3, 71, 43
6, 164544, Note_off_c, 3, 71, 64
6, 164544, Note_off_c, 3, 87, 64
6, 164544, Note_on_c, 3, 89, 72
6, 164544, Note_on_c, 3, 70, 40
6, 164736, Note_off_c, 3, 70, 64
6, 164736, Note_off_c, 3, 58, 64
6, 164736, Note_off_c, 3, 49, 64
6, 164736, Note_off_c, 3, 42, 64
6, 164736, Note_off_c, 3, 89, 64
6, 164736, Note_on_c, 3, 85, 55
6, 164736, Note_on_c, 3, 53, 81
6, 164736, Note_on_c, 3, 63, 78
6, 164736, Note_on_c, 3, 69, 37
6, 164928, Note_off_c, 3, 69, 64
6, 164928, Note_on_c, 3, 68, 33
6, 165120, Note_off_c, 3, 68, 64
6, 165120, Note_off_c, 3, 85, 64
6, 165120, Note_on_c, 3, 84, 41
6, 165120, Note_on_c, 3, 67, 26
6, 165312, Note_off_c, 3, 67, 64
6, 165312, Note_off_c, 3, 84, 64
6, 165312, Note_on_c, 3, 85, 44
6, 165312, Note_on_c, 3, 66, 25
6, 165504, Note_off_c, 3, 66, 64
6, 165504, Note_off_c, 3, 85, 64
6, 165504, Note_on_c, 3, 81, 38
6, 165504, Note_on_c, 3, 65, 27
6, 165696, Note_off_c, 3, 65, 64
6, 165696, Note_on_c, 3, 64, 26
6, 165888, Note_off_c, 3, 64, 64
6, 165888, Note_off_c, 3, 63, 64
6, 165888, Note_off_c, 3, 53, 64
6, 165888, Note_off_c, 3, 81, 64
6, 165888, Note_on_c, 3, 84, 47
6, 165888, Note_on_c, 3, 46, 44
6, 165888, Note_on_c, 3, 53, 41
6, 165888, Note_on_c, 3, 63, 26
6, 166080, Note_off_c, 3, 63, 64
6, 166080, Note_off_c, 3, 84, 64
6, 166080, Note_on_c, 3, 82, 38
6, 166080, Note_on_c, 3, 62, 25
6, 166137, Note_off_c, 3, 82, 64
6, 166137, Note_on_c, 3, 84, 47
6, 166208, Note_off_c, 3, 84, 64
6, 166211, Note_on_c, 3, 82, 39
6, 166268, Note_off_c, 3, 82, 64
6, 166272, Note_off_c, 3, 62, 64
6, 166272, Note_on_c, 3, 76, 34
6, 166272, Note_on_c, 3, 61, 27
6, 166464, Note_off_c, 3, 61, 64
6, 166464, Note_on_c, 3, 60, 26
6, 166656, Note_off_c, 3, 60, 64
6, 166656, Note_off_c, 3, 76, 64
6, 166656, Note_on_c, 3, 75, 36
6, 166656, Note_on_c, 3, 59, 26
6, 166848, Note_off_c, 3, 59, 64
6, 166848, Note_off_c, 3, 75, 64
6, 166848, Note_on_c, 3, 73, 33
6, 166848, Note_on_c, 3, 58, 26
6, 167040, Note_off_c, 3, 58, 64
6, 167040, Note_off_c, 3, 53, 64
6, 167040, Note_off_c, 3, 46, 64
6, 167040, Note_off_c, 3, 73, 64
6, 167040, Note_on_c, 3, 75, 43
6, 167040, Note_on_c, 3, 48, 36
6, 167040, Note_on_c, 3, 57, 26
6, 167232, Note_off_c, 3, 57, 64
6, 167232, Note_on_c, 3, 56, 25
6, 167424, Note_off_c, 3, 56, 64
6, 167424, Note_off_c, 3, 75, 64
6, 167424, Note_on_c, 3, 75, 36
6, 167424, Note_on_c, 3, 55, 28
6, 167616, Note_off_c, 3, 55, 64
6, 167616, Note_off_c, 3, 75, 64
6, 167616, Note_on_c, 3, 73, 27
6, 167616, Note_on_c, 3, 54, 16
6, 167808, Note_off_c, 3, 54, 64
6, 167808, Note_off_c, 3, 48, 64
6, 167808, Note_off_c, 3, 73, 64
6, 167808, Note_on_c, 3, 69, 25
6, 167808, Note_on_c, 3, 41, 24
6, 167808, Note_on_c, 3, 53, 18
6, 168000, Note_off_c, 3, 53, 64
6, 168000, Note_on_c, 3, 51, 17
6, 168192, Note_on_c, 3, 37, 57
6, 168192, Note_on_c, 3, 65, 41
6, 168192, Note_on_c, 3, 70, 41
6, 168192, Note_on_c, 3, 61, 39
6, 168192, Note_on_c, 3, 58, 41
6, 168192, Note_off_c, 3, 51, 64
6, 168192, Note_off_c, 3, 41, 64
6, 168192, Note_off_c, 3, 69, 64
6, 169226, Note_off_c, 3, 37, 64
6, 169226, Note_off_c, 3, 65, 64
6, 169226, Note_off_c, 3, 70, 64
6, 169226, Note_off_c, 3, 61, 64
6, 169226, Note_off_c, 3, 58, 64
6, 169345, Marker_t, "End of pattern\000"
6, 169345, End_track
7, 0, Start_track
7, 0, Marker_t, "Start of pattern\000"
7, 0, Title_t, "Soloist (BB)\000"
7, 0, Program_c, 7, 11
7, 0, Control_c, 7, 123, 0
7, 0, Control_c, 7, 91, 70
7, 0, Control_c, 7, 93, 5
7, 0, Program_c, 7, 11
7, 86323, Note_on_c, 7, 77, 52
7, 86406, Note_off_c, 7, 77, 64
7, 86416, Note_on_c, 7, 80, 95
7, 86492, Note_off_c, 7, 80, 64
7, 86528, Note_on_c, 7, 78, 89
7, 86614, Note_off_c, 7, 78, 64
7, 86614, Note_on_c, 7, 77, 55
7, 86720, Note_off_c, 7, 77, 64
7, 86723, Note_on_c, 7, 78, 75
7, 86784, Note_off_c, 7, 78, 64
7, 86819, Note_on_c, 7, 85, 96
7, 87254, Note_off_c, 7, 85, 64
7, 87302, Note_on_c, 7, 87, 96
7, 87350, Note_off_c, 7, 87, 64
7, 87372, Note_on_c, 7, 85, 83
7, 87440, Note_off_c, 7, 85, 64
7, 87484, Note_on_c, 7, 82, 86
7, 87539, Note_off_c, 7, 82, 64
7, 87584, Note_on_c, 7, 77, 71
7, 87708, Note_off_c, 7, 77, 64
7, 87760, Note_on_c, 7, 73, 85
7, 87872, Note_off_c, 7, 73, 64
7, 87888, Note_on_c, 7, 72, 72
7, 87980, Note_off_c, 7, 72, 64
7, 88073, Note_on_c, 7, 75, 95
7, 88144, Note_off_c, 7, 75, 64
7, 88169, Note_on_c, 7, 72, 69
7, 88252, Note_off_c, 7, 72, 64
7, 88275, Note_on_c, 7, 73, 88
7, 88329, Note_off_c, 7, 73, 64
7, 88355, Note_on_c, 7, 69, 57
7, 88460, Note_off_c, 7, 69, 64
7, 88460, Note_on_c, 7, 70, 72
7, 88537, Note_off_c, 7, 70, 64
7, 88550, Note_on_c, 7, 71, 70
7, 88614, Note_off_c, 7, 71, 64
7, 88652, Note_on_c, 7, 72, 87
7, 88729, Note_off_c, 7, 72, 64
7, 88739, Note_on_c, 7, 70, 75
7, 88806, Note_off_c, 7, 70, 64
7, 88841, Note_on_c, 7, 68, 90
7, 88902, Note_off_c, 7, 68, 64
7, 88928, Note_on_c, 7, 65, 54
7, 89014, Note_off_c, 7, 65, 64
7, 89030, Note_on_c, 7, 61, 83
7, 89104, Note_off_c, 7, 61, 64
7, 89116, Note_on_c, 7, 60, 55
7, 89225, Note_off_c, 7, 60, 64
7, 89232, Note_on_c, 7, 58, 34
7, 89267, Note_off_c, 7, 58, 64
7, 89296, Note_on_c, 7, 63, 78
7, 89411, Note_off_c, 7, 63, 64
7, 89478, Note_on_c, 7, 58, 47
7, 89603, Note_off_c, 7, 58, 64
7, 90067, Note_on_c, 7, 58, 115
7, 90163, Note_off_c, 7, 58, 64
7, 90185, Note_on_c, 7, 56, 65
7, 90268, Note_off_c, 7, 56, 64
7, 90268, Note_on_c, 7, 54, 75
7, 90355, Note_off_c, 7, 54, 64
7, 90380, Note_on_c, 7, 53, 30
7, 90422, Note_off_c, 7, 53, 64
7, 90451, Note_on_c, 7, 56, 81
7, 90556, Note_off_c, 7, 56, 64
7, 90579, Note_on_c, 7, 53, 44
7, 90640, Note_off_c, 7, 53, 64
7, 90652, Note_on_c, 7, 54, 82
7, 90707, Note_off_c, 7, 54, 64
7, 90752, Note_on_c, 7, 58, 86
7, 90825, Note_off_c, 7, 58, 64
7, 90844, Note_on_c, 7, 61, 39
7, 90896, Note_off_c, 7, 61, 64
7, 90944, Note_on_c, 7, 65, 97
7, 91017, Note_off_c, 7, 65, 64
7, 91036, Note_on_c, 7, 63, 70
7, 91110, Note_off_c, 7, 63, 64
7, 91136, Note_on_c, 7, 65, 91
7, 91184, Note_off_c, 7, 65, 64
7, 91222, Note_on_c, 7, 66, 82
7, 91276, Note_off_c, 7, 66, 64
7, 91312, Note_on_c, 7, 68, 96
7, 91369, Note_off_c, 7, 68, 64
7, 91395, Note_on_c, 7, 69, 71
7, 91452, Note_off_c, 7, 69, 64
7, 91491, Note_on_c, 7, 70, 29
7, 91516, Note_on_c, 7, 69, 70
7, 91539, Note_off_c, 7, 70, 64
7, 91587, Note_on_c, 7, 68, 82
7, 91609, Note_off_c, 7, 69, 64
7, 91657, Note_off_c, 7, 68, 64
7, 91696, Note_on_c, 7, 66, 94
7, 91769, Note_off_c, 7, 66, 64
7, 91782, Note_on_c, 7, 65, 57
7, 91891, Note_on_c, 7, 63, 44
7, 91900, Note_off_c, 7, 65, 64
7, 91942, Note_off_c, 7, 63, 64
7, 91968, Note_on_c, 7, 68, 90
7, 92086, Note_off_c, 7, 68, 64
7, 92108, Note_on_c, 7, 65, 32
7, 92163, Note_off_c, 7, 65, 64
7, 92185, Note_on_c, 7, 70, 36
7, 92240, Note_on_c, 7, 71, 72
7, 92252, Note_off_c, 7, 70, 64
7, 92294, Note_on_c, 7, 72, 84
7, 92304, Note_off_c, 7, 71, 64
7, 92339, Note_off_c, 7, 72, 64
7, 92377, Note_on_c, 7, 70, 68
7, 92451, Note_off_c, 7, 70, 64
7, 92483, Note_on_c, 7, 72, 71
7, 92531, Note_off_c, 7, 72, 64
7, 92556, Note_on_c, 7, 73, 82
7, 92627, Note_off_c, 7, 73, 64
7, 92665, Note_on_c, 7, 75, 72
7, 92726, Note_off_c, 7, 75, 64
7, 92748, Note_on_c, 7, 77, 73
7, 92812, Note_off_c, 7, 77, 64
7, 92864, Note_on_c, 7, 82, 72
7, 92915, Note_off_c, 7, 82, 64
7, 92937, Note_on_c, 7, 77, 77
7, 93280, Note_off_c, 7, 77, 64
7, 93699, Note_on_c, 7, 79, 96
7, 93750, Note_off_c, 7, 79, 64
7, 93750, Note_on_c, 7, 80, 63
7, 93849, Note_off_c, 7, 80, 64
7, 93891, Note_on_c, 7, 79, 85
7, 93952, Note_off_c, 7, 79, 64
7, 94012, Note_on_c, 7, 77, 80
7, 94070, Note_off_c, 7, 77, 64
7, 94083, Note_on_c, 7, 75, 66
7, 94185, Note_off_c, 7, 75, 64
7, 94198, Note_on_c, 7, 73, 62
7, 94262, Note_off_c, 7, 73, 64
7, 94288, Note_on_c, 7, 72, 53
7, 94377, Note_off_c, 7, 72, 64
7, 94403, Note_on_c, 7, 73, 61
7, 94470, Note_off_c, 7, 73, 64
7, 94476, Note_on_c, 7, 75, 84
7, 94547, Note_off_c, 7, 75, 64
7, 94585, Note_on_c, 7, 73, 85
7, 94643, Note_off_c, 7, 73, 64
7, 94668, Note_on_c, 7, 70, 61
7, 94739, Note_off_c, 7, 70, 64
7, 94777, Note_on_c, 7, 66, 83
7, 94838, Note_off_c, 7, 66, 64
7, 94870, Note_on_c, 7, 65, 38
7, 94979, Note_off_c, 7, 65, 64
7, 94979, Note_on_c, 7, 63, 49
7, 95046, Note_on_c, 7, 72, 75
7, 95049, Note_off_c, 7, 63, 64
7, 95164, Note_off_c, 7, 72, 64
7, 95174, Note_on_c, 7, 70, 38
7, 95235, Note_on_c, 7, 72, 69
7, 95251, Note_off_c, 7, 70, 64
7, 95484, Note_off_c, 7, 72, 64
7, 97097, Note_on_c, 7, 69, 75
7, 97190, Note_on_c, 7, 70, 64
7, 97193, Note_off_c, 7, 69, 64
7, 97238, Note_on_c, 7, 71, 60
7, 97264, Note_off_c, 7, 70, 64
7, 97283, Note_on_c, 7, 72, 84
7, 97299, Note_off_c, 7, 71, 64
7, 97344, Note_off_c, 7, 72, 64
7, 97366, Note_on_c, 7, 70, 85
7, 97443, Note_off_c, 7, 70, 64
7, 97478, Note_on_c, 7, 68, 80
7, 97529, Note_off_c, 7, 68, 64
7, 97548, Note_on_c, 7, 67, 57
7, 97676, Note_off_c, 7, 67, 64
7, 99254, Note_on_c, 7, 61, 72
7, 99356, Note_off_c, 7, 61, 64
7, 99379, Note_on_c, 7, 63, 68
7, 99443, Note_off_c, 7, 63, 64
7, 99481, Note_on_c, 7, 65, 62
7, 99552, Note_off_c, 7, 65, 64
7, 99580, Note_on_c, 7, 67, 90
7, 99635, Note_off_c, 7, 67, 64
7, 99676, Note_on_c, 7, 68, 87
7, 99734, Note_off_c, 7, 68, 64
7, 99779, Note_on_c, 7, 70, 90
7, 99830, Note_off_c, 7, 70, 64
7, 99868, Note_on_c, 7, 72, 84
7, 99939, Note_off_c, 7, 72, 64
7, 99968, Note_on_c, 7, 73, 97
7, 100028, Note_off_c, 7, 73, 64
7, 100060, Note_on_c, 7, 75, 84
7, 100131, Note_off_c, 7, 75, 64
7, 100166, Note_on_c, 7, 77, 96
7, 100233, Note_off_c, 7, 77, 64
7, 100262, Note_on_c, 7, 73, 84
7, 100329, Note_off_c, 7, 73, 64
7, 100355, Note_on_c, 7, 70, 73
7, 100419, Note_off_c, 7, 70, 64
7, 100441, Note_on_c, 7, 66, 71
7, 100515, Note_off_c, 7, 66, 64
7, 100544, Note_on_c, 7, 72, 89
7, 100620, Note_off_c, 7, 72, 64
7, 100640, Note_on_c, 7, 68, 54
7, 100710, Note_off_c, 7, 68, 64
7, 100736, Note_on_c, 7, 65, 43
7, 100787, Note_off_c, 7, 65, 64
7, 100816, Note_on_c, 7, 70, 94
7, 100902, Note_off_c, 7, 70, 64
7, 100921, Note_on_c, 7, 66, 68
7, 100998, Note_off_c, 7, 66, 64
7, 101004, Note_on_c, 7, 63, 47
7, 101088, Note_off_c, 7, 63, 64
7, 101116, Note_on_c, 7, 68, 95
7, 101200, Note_off_c, 7, 68, 64
7, 101209, Note_on_c, 7, 65, 48
7, 101321, Note_off_c, 7, 65, 64
7, 101571, Note_on_c, 7, 67, 119
7, 101606, Note_off_c, 7, 67, 64
7, 101760, Note_on_c, 7, 67, 113
7, 101795, Note_off_c, 7, 67, 64
7, 101961, Note_on_c, 7, 67, 107
7, 102147, Note_off_c, 7, 67, 64
7, 102153, Note_on_c, 7, 65, 78
7, 102448, Note_off_c, 7, 65, 64
7, 103040, Note_on_c, 7, 65, 67
7, 103088, Note_off_c, 7, 65, 64
7, 103110, Note_on_c, 7, 63, 58
7, 103200, Note_off_c, 7, 63, 64
7, 103296, Note_on_c, 7, 63, 73
7, 103609, Note_off_c, 7, 63, 64
7, 103612, Note_on_c, 7, 61, 53
7, 103670, Note_off_c, 7, 61, 64
7, 103689, Note_on_c, 7, 60, 89
7, 103776, Note_off_c, 7, 60, 64
7, 103804, Note_on_c, 7, 61, 103
7, 103862, Note_off_c, 7, 61, 64
7, 103897, Note_on_c, 7, 58, 82
7, 103987, Note_off_c, 7, 58, 64
7, 104192, Note_on_c, 7, 53, 72
7, 104246, Note_off_c, 7, 53, 64
7, 104265, Note_on_c, 7, 58, 100
7, 104368, Note_off_c, 7, 58, 64
7, 104448, Note_on_c, 7, 60, 105
7, 104720, Note_off_c, 7, 60, 64
7, 104784, Note_on_c, 7, 58, 104
7, 104832, Note_off_c, 7, 58, 64
7, 104857, Note_on_c, 7, 57, 77
7, 104899, Note_on_c, 7, 58, 72
7, 104915, Note_off_c, 7, 57, 64
7, 105152, Note_on_c, 7, 55, 97
7, 105164, Note_off_c, 7, 58, 64
7, 105424, Note_off_c, 7, 55, 64
7, 105424, Note_on_c, 7, 53, 82
7, 105750, Note_off_c, 7, 53, 64
7, 107046, Note_on_c, 7, 56, 98
7, 107107, Note_off_c, 7, 56, 64
7, 107120, Note_on_c, 7, 57, 34
7, 107171, Note_on_c, 7, 56, 65
7, 107177, Note_off_c, 7, 57, 64
7, 107235, Note_off_c, 7, 56, 64
7, 107235, Note_on_c, 7, 53, 38
7, 107302, Note_off_c, 7, 53, 64
7, 107315, Note_on_c, 7, 54, 74
7, 107408, Note_off_c, 7, 54, 64
7, 107449, Note_on_c, 7, 53, 61
7, 107984, Note_off_c, 7, 53, 64
7, 108470, Note_on_c, 7, 54, 72
7, 108572, Note_off_c, 7, 54, 64
7, 108595, Note_on_c, 7, 56, 68
7, 108659, Note_off_c, 7, 56, 64
7, 108697, Note_on_c, 7, 58, 62
7, 108768, Note_off_c, 7, 58, 64
7, 108796, Note_on_c, 7, 60, 90
7, 108851, Note_off_c, 7, 60, 64
7, 108892, Note_on_c, 7, 61, 87
7, 108950, Note_off_c, 7, 61, 64
7, 108995, Note_on_c, 7, 63, 90
7, 109046, Note_off_c, 7, 63, 64
7, 109084, Note_on_c, 7, 65, 84
7, 109155, Note_off_c, 7, 65, 64
7, 109184, Note_on_c, 7, 66, 97
7, 109244, Note_off_c, 7, 66, 64
7, 109276, Note_on_c, 7, 68, 84
7, 109347, Note_off_c, 7, 68, 64
7, 109382, Note_on_c, 7, 70, 96
7, 109449, Note_off_c, 7, 70, 64
7, 109465, Note_on_c, 7, 72, 65
7, 109561, Note_off_c, 7, 72, 64
7, 109568, Note_on_c, 7, 75, 85
7, 109635, Note_off_c, 7, 75, 64
7, 109654, Note_on_c, 7, 77, 81
7, 109731, Note_off_c, 7, 77, 64
7, 109760, Note_on_c, 7, 78, 103
7, 109827, Note_off_c, 7, 78, 64
7, 109849, Note_on_c, 7, 77, 54
7, 109897, Note_on_c, 7, 76, 71
7, 109907, Note_off_c, 7, 77, 64
7, 109952, Note_on_c, 7, 75, 66
7, 109958, Note_off_c, 7, 76, 64
7, 110016, Note_off_c, 7, 75, 64
7, 110035, Note_on_c, 7, 73, 89
7, 110105, Note_off_c, 7, 73, 64
7, 110147, Note_on_c, 7, 72, 73
7, 110211, Note_off_c, 7, 72, 64
7, 110224, Note_on_c, 7, 70, 57
7, 110313, Note_off_c, 7, 70, 64
7, 110336, Note_on_c, 7, 71, 80
7, 110403, Note_off_c, 7, 71, 64
7, 110412, Note_on_c, 7, 72, 66
7, 110512, Note_off_c, 7, 72, 64
7, 110528, Note_on_c, 7, 75, 91
7, 110659, Note_off_c, 7, 75, 64
7, 110716, Note_on_c, 7, 72, 71
7, 110777, Note_off_c, 7, 72, 64
7, 110790, Note_on_c, 7, 73, 86
7, 110908, Note_off_c, 7, 73, 64
7, 110915, Note_on_c, 7, 65, 56
7, 111340, Note_off_c, 7, 65, 64
7, 111878, Note_on_c, 7, 64, 113
7, 111926, Note_off_c, 7, 64, 64
7, 111964, Note_on_c, 7, 65, 84
7, 112041, Note_off_c, 7, 65, 64
7, 112073, Note_on_c, 7, 70, 96
7, 112118, Note_off_c, 7, 70, 64
7, 112147, Note_on_c, 7, 64, 83
7, 112214, Note_on_c, 7, 63, 70
7, 112217, Note_off_c, 7, 64, 64
7, 112256, Note_off_c, 7, 63, 64
7, 112278, Note_on_c, 7, 61, 75
7, 112320, Note_off_c, 7, 61, 64
7, 112348, Note_on_c, 7, 63, 74
7, 112419, Note_off_c, 7, 63, 64
7, 112460, Note_on_c, 7, 61, 96
7, 112531, Note_off_c, 7, 61, 64
7, 112537, Note_on_c, 7, 60, 61
7, 112704, Note_off_c, 7, 60, 64
7, 112835, Note_on_c, 7, 59, 106
7, 112886, Note_off_c, 7, 59, 64
7, 112921, Note_on_c, 7, 58, 67
7, 113020, Note_off_c, 7, 58, 64
7, 113196, Note_on_c, 7, 57, 95
7, 113248, Note_off_c, 7, 57, 64
7, 113280, Note_on_c, 7, 56, 91
7, 113382, Note_off_c, 7, 56, 64
7, 113593, Note_on_c, 7, 53, 81
7, 113708, Note_off_c, 7, 53, 64
7, 114252, Note_on_c, 7, 58, 105
7, 114307, Note_off_c, 7, 58, 64
7, 114444, Note_on_c, 7, 65, 104
7, 114499, Note_off_c, 7, 65, 64
7, 114643, Note_on_c, 7, 60, 98
7, 115084, Note_off_c, 7, 60, 64
7, 115116, Note_on_c, 7, 58, 73
7, 115171, Note_off_c, 7, 58, 64
7, 115222, Note_on_c, 7, 61, 55
7, 115312, Note_off_c, 7, 61, 64
7, 115344, Note_on_c, 7, 60, 70
7, 115408, Note_off_c, 7, 60, 64
7, 115424, Note_on_c, 7, 59, 55
7, 115686, Note_off_c, 7, 59, 64
7, 115705, Note_on_c, 7, 61, 77
7, 115763, Note_off_c, 7, 61, 64
7, 115798, Note_on_c, 7, 63, 79
7, 115929, Note_off_c, 7, 63, 64
7, 116864, Note_on_c, 7, 60, 80
7, 116912, Note_off_c, 7, 60, 64
7, 116931, Note_on_c, 7, 61, 82
7, 116969, Note_off_c, 7, 61, 64
7, 116998, Note_on_c, 7, 65, 37
7, 117046, Note_off_c, 7, 65, 64
7, 117052, Note_on_c, 7, 68, 77
7, 117075, Note_off_c, 7, 68, 64
7, 117113, Note_on_c, 7, 72, 101
7, 117168, Note_off_c, 7, 72, 64
7, 117251, Note_on_c, 7, 75, 91
7, 117315, Note_on_c, 7, 72, 83
7, 117318, Note_off_c, 7, 75, 64
7, 117462, Note_off_c, 7, 72, 64
7, 117996, Note_on_c, 7, 70, 37
7, 118016, Note_on_c, 7, 68, 66
7, 118032, Note_off_c, 7, 70, 64
7, 118083, Note_off_c, 7, 68, 64
7, 118083, Note_on_c, 7, 65, 51
7, 118188, Note_off_c, 7, 65, 64
7, 118275, Note_on_c, 7, 65, 58
7, 118630, Note_off_c, 7, 65, 64
7, 118790, Note_on_c, 7, 68, 106
7, 118841, Note_off_c, 7, 68, 64
7, 118988, Note_on_c, 7, 61, 89
7, 119132, Note_off_c, 7, 61, 64
7, 119145, Note_on_c, 7, 66, 57
7, 119164, Note_on_c, 7, 67, 78
7, 119196, Note_off_c, 7, 66, 64
7, 119196, Note_on_c, 7, 68, 81
7, 119248, Note_off_c, 7, 67, 64
7, 119270, Note_off_c, 7, 68, 64
7, 119273, Note_on_c, 7, 66, 95
7, 119660, Note_off_c, 7, 66, 64
7, 119811, Note_on_c, 7, 65, 115
7, 119862, Note_off_c, 7, 65, 64
7, 120006, Note_on_c, 7, 70, 106
7, 120070, Note_off_c, 7, 70, 64
7, 120332, Note_on_c, 7, 64, 111
7, 120371, Note_off_c, 7, 64, 64
7, 120416, Note_on_c, 7, 63, 82
7, 120489, Note_off_c, 7, 63, 64
7, 120528, Note_on_c, 7, 61, 95
7, 120560, Note_off_c, 7, 61, 64
7, 120595, Note_on_c, 7, 58, 45
7, 120668, Note_off_c, 7, 58, 64
7, 120780, Note_on_c, 7, 61, 88
7, 120883, Note_off_c, 7, 61, 64
7, 120915, Note_on_c, 7, 58, 61
7, 120963, Note_on_c, 7, 60, 63
7, 120972, Note_off_c, 7, 58, 64
7, 121040, Note_on_c, 7, 58, 53
7, 121046, Note_off_c, 7, 60, 64
7, 121088, Note_on_c, 7, 56, 52
7, 121094, Note_off_c, 7, 58, 64
7, 121142, Note_off_c, 7, 56, 64
7, 121145, Note_on_c, 7, 58, 56
7, 121548, Note_off_c, 7, 58, 64
7, 122246, Note_on_c, 7, 57, 113
7, 122294, Note_off_c, 7, 57, 64
7, 122332, Note_on_c, 7, 58, 84
7, 122409, Note_off_c, 7, 58, 64
7, 122441, Note_on_c, 7, 63, 96
7, 122486, Note_off_c, 7, 63, 64
7, 122515, Note_on_c, 7, 57, 83
7, 122582, Note_on_c, 7, 56, 70
7, 122585, Note_off_c, 7, 57, 64
7, 122624, Note_off_c, 7, 56, 64
7, 122646, Note_on_c, 7, 54, 75
7, 122688, Note_off_c, 7, 54, 64
7, 122716, Note_on_c, 7, 56, 74
7, 122787, Note_off_c, 7, 56, 64
7, 122828, Note_on_c, 7, 54, 96
7, 122899, Note_off_c, 7, 54, 64
7, 122905, Note_on_c, 7, 53, 61
7, 123072, Note_off_c, 7, 53, 64
7, 123280, Note_on_c, 7, 59, 70
7, 123392, Note_off_c, 7, 59, 64
7, 123401, Note_on_c, 7, 60, 83
7, 123478, Note_off_c, 7, 60, 64
7, 123481, Note_on_c, 7, 59, 53
7, 123574, Note_off_c, 7, 59, 64
7, 123590, Note_on_c, 7, 60, 91
7, 123667, Note_off_c, 7, 60, 64
7, 123680, Note_on_c, 7, 59, 62
7, 123766, Note_off_c, 7, 59, 64
7, 123776, Note_on_c, 7, 60, 88
7, 123849, Note_off_c, 7, 60, 64
7, 123862, Note_on_c, 7, 57, 64
7, 124124, Note_off_c, 7, 57, 64
7, 124931, Note_on_c, 7, 56, 63
7, 124966, Note_off_c, 7, 56, 64
7, 124992, Note_on_c, 7, 60, 91
7, 125081, Note_off_c, 7, 60, 64
7, 125184, Note_on_c, 7, 56, 92
7, 125510, Note_off_c, 7, 56, 64
7, 125516, Note_on_c, 7, 53, 45
7, 125564, Note_off_c, 7, 53, 64
7, 125564, Note_on_c, 7, 59, 55
7, 125657, Note_off_c, 7, 59, 64
7, 125683, Note_on_c, 7, 60, 88
7, 125747, Note_off_c, 7, 60, 64
7, 125776, Note_on_c, 7, 63, 63
7, 125878, Note_off_c, 7, 63, 64
7, 125881, Note_on_c, 7, 67, 68
7, 125920, Note_off_c, 7, 67, 64
7, 125968, Note_on_c, 7, 71, 90
7, 126044, Note_off_c, 7, 71, 64
7, 126080, Note_on_c, 7, 72, 100
7, 126131, Note_off_c, 7, 72, 64
7, 126166, Note_on_c, 7, 71, 74
7, 126233, Note_off_c, 7, 71, 64
7, 126272, Note_on_c, 7, 67, 64
7, 126316, Note_off_c, 7, 67, 64
7, 126358, Note_on_c, 7, 63, 78
7, 126412, Note_off_c, 7, 63, 64
7, 126457, Note_on_c, 7, 62, 60
7, 126528, Note_off_c, 7, 62, 64
7, 126544, Note_on_c, 7, 60, 69
7, 126652, Note_off_c, 7, 60, 64
7, 128281, Note_on_c, 7, 58, 90
7, 128339, Note_off_c, 7, 58, 64
7, 128470, Note_on_c, 7, 58, 91
7, 128563, Note_off_c, 7, 58, 64
7, 128860, Note_on_c, 7, 58, 89
7, 128915, Note_off_c, 7, 58, 64
7, 129049, Note_on_c, 7, 60, 74
7, 129132, Note_off_c, 7, 60, 64
7, 129155, Note_on_c, 7, 58, 64
7, 129196, Note_off_c, 7, 58, 64
7, 129260, Note_on_c, 7, 64, 41
7, 129286, Note_off_c, 7, 64, 64
7, 129286, Note_on_c, 7, 65, 62
7, 129331, Note_on_c, 7, 64, 73
7, 129360, Note_off_c, 7, 65, 64
7, 129376, Note_on_c, 7, 62, 71
7, 129392, Note_off_c, 7, 64, 64
7, 129420, Note_off_c, 7, 62, 64
7, 129446, Note_on_c, 7, 63, 87
7, 129529, Note_off_c, 7, 63, 64
7, 129558, Note_on_c, 7, 61, 103
7, 129612, Note_off_c, 7, 61, 64
7, 129651, Note_on_c, 7, 60, 79
7, 129724, Note_off_c, 7, 60, 64
7, 129744, Note_on_c, 7, 58, 77
7, 129801, Note_off_c, 7, 58, 64
7, 129817, Note_on_c, 7, 56, 65
7, 129926, Note_off_c, 7, 56, 64
7, 129926, Note_on_c, 7, 53, 49
7, 129993, Note_off_c, 7, 53, 64
7, 129993, Note_on_c, 7, 55, 61
7, 130076, Note_off_c, 7, 55, 64
7, 130115, Note_on_c, 7, 58, 88
7, 130169, Note_off_c, 7, 58, 64
7, 130182, Note_on_c, 7, 64, 81
7, 130284, Note_off_c, 7, 64, 64
7, 130304, Note_on_c, 7, 65, 72
7, 130371, Note_off_c, 7, 65, 64
7, 130400, Note_on_c, 7, 67, 71
7, 130473, Note_off_c, 7, 67, 64
7, 130502, Note_on_c, 7, 68, 64
7, 130588, Note_off_c, 7, 68, 64
7, 130595, Note_on_c, 7, 70, 66
7, 130662, Note_off_c, 7, 70, 64
7, 130694, Note_on_c, 7, 72, 87
7, 130752, Note_off_c, 7, 72, 64
7, 130787, Note_on_c, 7, 76, 94
7, 130857, Note_off_c, 7, 76, 64
7, 130883, Note_on_c, 7, 74, 87
7, 130953, Note_off_c, 7, 74, 64
7, 130982, Note_on_c, 7, 72, 66
7, 131040, Note_off_c, 7, 72, 64
7, 131081, Note_on_c, 7, 70, 72
7, 131152, Note_off_c, 7, 70, 64
7, 131174, Note_on_c, 7, 68, 48
7, 131251, Note_off_c, 7, 68, 64
7, 131273, Note_on_c, 7, 67, 77
7, 131347, Note_off_c, 7, 67, 64
7, 131363, Note_on_c, 7, 70, 77
7, 131459, Note_off_c, 7, 70, 64
7, 131468, Note_on_c, 7, 65, 65
7, 131516, Note_off_c, 7, 65, 64
7, 131539, Note_on_c, 7, 68, 77
7, 131612, Note_off_c, 7, 68, 64
7, 131651, Note_on_c, 7, 67, 86
7, 131721, Note_off_c, 7, 67, 64
7, 131740, Note_on_c, 7, 66, 77
7, 131811, Note_off_c, 7, 66, 64
7, 131852, Note_on_c, 7, 62, 71
7, 131926, Note_off_c, 7, 62, 64
7, 131929, Note_on_c, 7, 63, 36
7, 131984, Note_on_c, 7, 64, 72
7, 131996, Note_off_c, 7, 63, 64
7, 132038, Note_on_c, 7, 65, 84
7, 132048, Note_off_c, 7, 64, 64
7, 132083, Note_off_c, 7, 65, 64
7, 132121, Note_on_c, 7, 63, 68
7, 132195, Note_off_c, 7, 63, 64
7, 132227, Note_on_c, 7, 65, 71
7, 132275, Note_off_c, 7, 65, 64
7, 132300, Note_on_c, 7, 66, 82
7, 132371, Note_off_c, 7, 66, 64
7, 132409, Note_on_c, 7, 68, 72
7, 132470, Note_off_c, 7, 68, 64
7, 132492, Note_on_c, 7, 70, 73
7, 132556, Note_off_c, 7, 70, 64
7, 132608, Note_on_c, 7, 75, 72
7, 132659, Note_off_c, 7, 75, 64
7, 132681, Note_on_c, 7, 70, 77
7, 133024, Note_off_c, 7, 70, 64
7, 133929, Note_on_c, 7, 71, 87
7, 134000, Note_off_c, 7, 71, 64
7, 134003, Note_on_c, 7, 72, 51
7, 134128, Note_off_c, 7, 72, 64
7, 134150, Note_on_c, 7, 65, 50
7, 134211, Note_off_c, 7, 65, 64
7, 134214, Note_on_c, 7, 71, 77
7, 134268, Note_off_c, 7, 71, 64
7, 134268, Note_on_c, 7, 72, 63
7, 134380, Note_off_c, 7, 72, 64
7, 134396, Note_on_c, 7, 70, 60
7, 134524, Note_off_c, 7, 70, 64
7, 134524, Note_on_c, 7, 65, 43
7, 134835, Note_off_c, 7, 65, 64
7, 137212, Note_on_c, 7, 60, 72
7, 137251, Note_off_c, 7, 60, 64
7, 137267, Note_on_c, 7, 65, 89
7, 137324, Note_off_c, 7, 65, 64
7, 137446, Note_on_c, 7, 68, 92
7, 137488, Note_on_c, 7, 69, 77
7, 137500, Note_off_c, 7, 68, 64
7, 137548, Note_off_c, 7, 69, 64
7, 137664, Note_on_c, 7, 67, 104
7, 137987, Note_on_c, 7, 65, 85
7, 138000, Note_off_c, 7, 67, 64
7, 138176, Note_off_c, 7, 65, 64
7, 138627, Note_on_c, 7, 68, 64
7, 138678, Note_off_c, 7, 68, 64
7, 138691, Note_on_c, 7, 72, 53
7, 138745, Note_on_c, 7, 75, 85
7, 138748, Note_off_c, 7, 72, 64
7, 138816, Note_off_c, 7, 75, 64
7, 138838, Note_on_c, 7, 72, 62
7, 138902, Note_off_c, 7, 72, 64
7, 138937, Note_on_c, 7, 73, 92
7, 138998, Note_off_c, 7, 73, 64
7, 139030, Note_on_c, 7, 77, 79
7, 139107, Note_off_c, 7, 77, 64
7, 139136, Note_on_c, 7, 80, 91
7, 139174, Note_off_c, 7, 80, 64
7, 139235, Note_on_c, 7, 83, 90
7, 139276, Note_off_c, 7, 83, 64
7, 139283, Note_on_c, 7, 84, 83
7, 139379, Note_off_c, 7, 84, 64
7, 139411, Note_on_c, 7, 82, 44
7, 139542, Note_off_c, 7, 82, 64
7, 139600, Note_on_c, 7, 84, 97
7, 139673, Note_off_c, 7, 84, 64
7, 139724, Note_on_c, 7, 82, 74
7, 139792, Note_off_c, 7, 82, 64
7, 139795, Note_on_c, 7, 79, 53
7, 139932, Note_off_c, 7, 79, 64
7, 139977, Note_on_c, 7, 82, 90
7, 140064, Note_off_c, 7, 82, 64
7, 140099, Note_on_c, 7, 79, 69
7, 140163, Note_off_c, 7, 79, 64
7, 140172, Note_on_c, 7, 77, 55
7, 140464, Note_off_c, 7, 77, 64
7, 170241, Marker_t, "End of pattern\000"
7, 170241, End_track
0, 0, End_of_file
