0, 0, Header, 1, 2, 960
1, 0, Start_track
1, 0, Control_c, 0, 101, 0
1, 0, Control_c, 0, 100, 0
1, 0, Control_c, 0, 6, 12
1, 0, Control_c, 0, 38, 0
1, 0, Control_c, 1, 101, 0
1, 0, Control_c, 1, 100, 0
1, 0, Control_c, 1, 6, 12
1, 0, Control_c, 1, 38, 0
1, 0, Control_c, 2, 101, 0
1, 0, Control_c, 2, 100, 0
1, 0, Control_c, 2, 6, 12
1, 0, Control_c, 2, 38, 0
1, 0, Control_c, 3, 101, 0
1, 0, Control_c, 3, 100, 0
1, 0, Control_c, 3, 6, 12
1, 0, Control_c, 3, 38, 0
1, 0, Control_c, 4, 101, 0
1, 0, Control_c, 4, 100, 0
1, 0, Control_c, 4, 6, 12
1, 0, Control_c, 4, 38, 0
1, 0, Control_c, 5, 101, 0
1, 0, Control_c, 5, 100, 0
1, 0, Control_c, 5, 6, 12
1, 0, Control_c, 5, 38, 0
1, 0, Control_c, 6, 101, 0
1, 0, Control_c, 6, 100, 0
1, 0, Control_c, 6, 6, 12
1, 0, Control_c, 6, 38, 0
1, 0, Control_c, 7, 101, 0
1, 0, Control_c, 7, 100, 0
1, 0, Control_c, 7, 6, 12
1, 0, Control_c, 7, 38, 0
1, 0, Control_c, 8, 101, 0
1, 0, Control_c, 8, 100, 0
1, 0, Control_c, 8, 6, 12
1, 0, Control_c, 8, 38, 0
1, 0, Control_c, 9, 101, 0
1, 0, Control_c, 9, 100, 0
1, 0, Control_c, 9, 6, 12
1, 0, Control_c, 9, 38, 0
1, 0, Control_c, 10, 101, 0
1, 0, Control_c, 10, 100, 0
1, 0, Control_c, 10, 6, 12
1, 0, Control_c, 10, 38, 0
1, 0, Control_c, 11, 101, 0
1, 0, Control_c, 11, 100, 0
1, 0, Control_c, 11, 6, 12
1, 0, Control_c, 11, 38, 0
1, 0, Control_c, 12, 101, 0
1, 0, Control_c, 12, 100, 0
1, 0, Control_c, 12, 6, 12
1, 0, Control_c, 12, 38, 0
1, 0, Control_c, 13, 101, 0
1, 0, Control_c, 13, 100, 0
1, 0, Control_c, 13, 6, 12
1, 0, Control_c, 13, 38, 0
1, 0, Control_c, 14, 101, 0
1, 0, Control_c, 14, 100, 0
1, 0, Control_c, 14, 6, 12
1, 0, Control_c, 14, 38, 0
1, 0, Control_c, 15, 101, 0
1, 0, Control_c, 15, 100, 0
1, 0, Control_c, 15, 6, 12
1, 0, Control_c, 15, 38, 0
1, 0, Time_signature, 4, 2, 24, 8
1, 0, Tempo, 400000
1, 34560, Tempo, 434782
1, 34560, End_track
2, 0, Start_track
2, 0, Pitch_bend_c, 0, 8192
2, 0, Control_c, 0, 7, 103
2, 0, Control_c, 0, 10, 63
2, 0, Control_c, 0, 93, 0
2, 0, Control_c, 0, 91, 0
2, 0, Control_c, 0, 95, 0
2, 0, Control_c, 0, 92, 0
2, 0, Control_c, 0, 11, 127
2, 0, Program_c, 0, 27
2, 0, Control_c, 1, 7, 103
2, 0, Control_c, 1, 10, 63
2, 0, Control_c, 1, 93, 0
2, 0, Control_c, 1, 91, 0
2, 0, Control_c, 1, 95, 0
2, 0, Control_c, 1, 92, 0
2, 0, Control_c, 1, 11, 127
2, 0, Program_c, 1, 27
2, 5760, Note_on_c, 0, 57, 95
2, 6000, Note_off_c, 0, 57, 95
2, 6000, Note_on_c, 0, 60, 95
2, 6240, Note_off_c, 0, 60, 95
2, 6240, Note_on_c, 0, 64, 95
2, 6480, Note_off_c, 0, 64, 95
2, 6480, Note_on_c, 0, 69, 95
2, 6720, Note_off_c, 0, 69, 95
2, 6720, Note_on_c, 0, 67, 95
2, 6960, Note_off_c, 0, 67, 95
2, 6960, Note_on_c, 0, 64, 70
2, 7200, Note_off_c, 0, 64, 70
2, 7200, Note_on_c, 0, 62, 95
2, 7440, Note_off_c, 0, 62, 95
2, 7440, Note_on_c, 0, 60, 70
2, 7680, Note_off_c, 0, 60, 70
2, 7680, Note_on_c, 0, 62, 95
2, 8000, Note_off_c, 0, 62, 95
2, 8000, Note_on_c, 0, 60, 95
2, 8320, Note_off_c, 0, 60, 95
2, 8320, Note_on_c, 0, 57, 95
2, 8640, Note_off_c, 0, 57, 95
2, 8640, Note_on_c, 0, 60, 95
2, 8960, Note_off_c, 0, 60, 95
2, 8960, Note_on_c, 0, 59, 95
2, 9280, Note_off_c, 0, 59, 95
2, 9280, Note_on_c, 0, 57, 95
2, 11520, Note_off_c, 0, 57, 95
2, 15360, Note_on_c, 0, 60, 95
2, 15600, Note_off_c, 0, 60, 95
2, 15600, Note_on_c, 0, 65, 95
2, 15840, Note_off_c, 0, 65, 95
2, 15840, Note_on_c, 0, 67, 95
2, 16080, Note_off_c, 0, 67, 95
2, 16080, Note_on_c, 0, 69, 95
2, 16320, Note_off_c, 0, 69, 95
2, 16320, Note_on_c, 0, 72, 95
2, 16560, Note_off_c, 0, 72, 95
2, 16560, Note_on_c, 0, 74, 95
2, 16680, Note_on_c, 1, 74, 95
2, 16800, Note_off_c, 0, 74, 95
2, 16800, Note_off_c, 1, 74, 95
2, 16800, Note_on_c, 1, 77, 95
2, 19200, Note_off_c, 1, 77, 95
2, 21240, Note_on_c, 1, 72, 95
2, 21360, Note_off_c, 1, 72, 95
2, 21360, Note_on_c, 1, 71, 95
2, 21600, Note_off_c, 1, 71, 95
2, 21600, Note_on_c, 0, 69, 95
2, 21840, Note_off_c, 0, 69, 95
2, 21840, Note_on_c, 0, 67, 95
2, 21960, Note_on_c, 1, 65, 95
2, 22080, Note_off_c, 0, 67, 95
2, 22080, Note_off_c, 1, 65, 95
2, 22080, Note_on_c, 1, 66, 95
2, 22560, Note_off_c, 1, 66, 95
2, 22560, Note_on_c, 0, 62, 95
2, 23040, Note_off_c, 0, 62, 95
2, 29640, Note_on_c, 1, 58, 95
2, 29760, Note_off_c, 1, 58, 95
2, 29760, Note_on_c, 1, 59, 95
2, 30240, Note_off_c, 1, 59, 95
2, 30240, Note_on_c, 0, 62, 95
2, 30720, Note_off_c, 0, 62, 95
2, 30720, Note_on_c, 0, 67, 95
2, 31200, Note_off_c, 0, 67, 95
2, 31200, Note_on_c, 0, 69, 95
2, 31560, Note_on_c, 1, 69, 95
2, 31560, Note_on_c, 1, 64, 95
2, 31680, Note_off_c, 0, 69, 95
2, 31680, Note_off_c, 1, 69, 95
2, 31680, Note_on_c, 1, 71, 95
2, 31680, Note_off_c, 1, 64, 95
2, 31680, Note_on_c, 1, 66, 95
2, 32160, Note_off_c, 1, 71, 95
2, 32160, Note_off_c, 1, 66, 95
2, 32160, Note_on_c, 0, 69, 95
2, 32160, Note_on_c, 0, 64, 95
2, 32640, Note_off_c, 0, 69, 95
2, 32640, Note_off_c, 0, 64, 95
2, 32640, Note_on_c, 0, 67, 95
2, 32640, Note_on_c, 0, 63, 95
2, 34560, Note_off_c, 0, 67, 95
2, 34560, Note_off_c, 0, 63, 95
2, 43680, Note_on_c, 1, 67, 95
2, 43800, Pitch_bend_c, 1, 8448
2, 43920, Pitch_bend_c, 1, 8832
2, 44040, Pitch_bend_c, 1, 9216
2, 44160, Pitch_bend_c, 1, 9600
2, 44160, Pitch_bend_c, 1, 8192
2, 44160, Note_off_c, 1, 67, 95
2, 44160, Note_on_c, 0, 69, 95
2, 44640, Note_off_c, 0, 69, 95
2, 44640, Note_on_c, 0, 72, 95
2, 44640, Note_on_c, 0, 69, 95
2, 45120, Note_off_c, 0, 72, 95
2, 45120, Note_off_c, 0, 69, 95
2, 45120, Note_on_c, 0, 72, 95
2, 45120, Note_on_c, 0, 69, 95
2, 45600, Note_off_c, 0, 72, 95
2, 45600, Note_off_c, 0, 69, 95
2, 45600, Note_on_c, 0, 72, 95
2, 45600, Note_on_c, 0, 69, 95
2, 45960, Note_on_c, 1, 68, 95
2, 46080, Note_off_c, 0, 72, 95
2, 46080, Note_off_c, 0, 69, 95
2, 46080, Note_off_c, 1, 68, 95
2, 46080, Note_on_c, 1, 69, 95
2, 46560, Note_off_c, 1, 69, 95
2, 46560, Note_on_c, 0, 71, 95
2, 46920, Note_on_c, 1, 68, 95
2, 47040, Note_off_c, 0, 71, 95
2, 47040, Note_off_c, 1, 68, 95
2, 47040, Note_on_c, 1, 69, 95
2, 47520, Note_off_c, 1, 69, 95
2, 47520, Note_on_c, 0, 71, 95
2, 47880, Note_on_c, 1, 68, 95
2, 48000, Note_off_c, 0, 71, 95
2, 48000, Note_off_c, 1, 68, 95
2, 48000, Note_on_c, 1, 69, 95
2, 48480, Note_off_c, 1, 69, 95
2, 48480, Note_on_c, 0, 71, 95
2, 48960, Note_off_c, 0, 71, 95
2, 48960, Note_on_c, 0, 74, 95
2, 49440, Note_off_c, 0, 74, 95
2, 49440, Note_on_c, 0, 69, 95
2, 49920, Note_off_c, 0, 69, 95
2, 49920, Note_on_c, 0, 72, 95
2, 50880, Note_off_c, 0, 72, 95
2, 50880, Note_on_c, 1, 69, 95
2, 51840, Note_off_c, 1, 69, 95
2, 60960, Pitch_bend_c, 1, 8192
2, 60960, Note_on_c, 1, 65, 95
2, 60981, Pitch_bend_c, 1, 8320
2, 61002, Pitch_bend_c, 1, 8448
2, 61023, Pitch_bend_c, 1, 8576
2, 61044, Pitch_bend_c, 1, 8704
2, 61065, Pitch_bend_c, 1, 8832
2, 61086, Pitch_bend_c, 1, 8960
2, 61107, Pitch_bend_c, 1, 9088
2, 61128, Pitch_bend_c, 1, 9216
2, 61149, Pitch_bend_c, 1, 9344
2, 61170, Pitch_bend_c, 1, 9472
2, 61191, Pitch_bend_c, 1, 9600
2, 61200, Pitch_bend_c, 1, 9600
2, 61440, Pitch_bend_c, 1, 9600
2, 61440, Pitch_bend_c, 1, 8192
2, 61440, Note_off_c, 1, 65, 95
2, 61440, Note_on_c, 0, 68, 95
2, 61920, Note_off_c, 0, 68, 95
2, 61920, Note_on_c, 0, 67, 95
2, 62400, Note_off_c, 0, 67, 95
2, 62400, Note_on_c, 0, 72, 95
2, 62880, Note_off_c, 0, 72, 95
2, 62880, Note_on_c, 0, 67, 95
2, 63360, Note_off_c, 0, 67, 95
2, 63360, Pitch_bend_c, 1, 8192
2, 63360, Note_on_c, 1, 70, 95
2, 63403, Pitch_bend_c, 1, 8320
2, 63446, Pitch_bend_c, 1, 8448
2, 63489, Pitch_bend_c, 1, 8576
2, 63532, Pitch_bend_c, 1, 8704
2, 63575, Pitch_bend_c, 1, 8832
2, 63618, Pitch_bend_c, 1, 8960
2, 63661, Pitch_bend_c, 1, 9088
2, 63704, Pitch_bend_c, 1, 9216
2, 63747, Pitch_bend_c, 1, 9344
2, 63790, Pitch_bend_c, 1, 9472
2, 63833, Pitch_bend_c, 1, 9600
2, 63840, Pitch_bend_c, 1, 9600
2, 64320, Pitch_bend_c, 1, 9600
2, 64320, Pitch_bend_c, 1, 8192
2, 64320, Note_off_c, 1, 70, 95
2, 64320, Note_on_c, 0, 72, 95
2, 64800, Note_off_c, 0, 72, 95
2, 64800, Note_on_c, 0, 70, 95
2, 65280, Note_off_c, 0, 70, 95
2, 65280, Note_on_c, 0, 72, 95
2, 66240, Note_off_c, 0, 72, 95
2, 66240, Note_on_c, 1, 68, 95
2, 67200, Note_off_c, 1, 68, 95
2, 75840, Note_on_c, 0, 50, 95
2, 76320, Note_off_c, 0, 50, 95
2, 76320, Note_on_c, 1, 64, 95
2, 76320, Note_on_c, 1, 60, 95
2, 76440, Pitch_bend_c, 1, 8448
2, 76440, Pitch_bend_c, 1, 8448
2, 76560, Pitch_bend_c, 1, 8832
2, 76560, Pitch_bend_c, 1, 8832
2, 76680, Pitch_bend_c, 1, 9216
2, 76680, Pitch_bend_c, 1, 9216
2, 76800, Pitch_bend_c, 1, 9600
2, 76800, Pitch_bend_c, 1, 8192
2, 76800, Note_off_c, 1, 64, 95
2, 76800, Pitch_bend_c, 1, 9600
2, 76800, Pitch_bend_c, 1, 8192
2, 76800, Note_off_c, 1, 60, 95
2, 76800, Note_on_c, 0, 66, 95
2, 76800, Note_on_c, 0, 62, 95
2, 77280, Note_off_c, 0, 66, 95
2, 77280, Note_off_c, 0, 62, 95
2, 77280, Note_on_c, 0, 70, 95
2, 77760, Note_off_c, 0, 70, 95
2, 77760, Note_on_c, 0, 75, 95
2, 78240, Note_off_c, 0, 75, 95
2, 78240, Pitch_bend_c, 1, 8192
2, 78240, Note_on_c, 1, 76, 95
2, 78305, Pitch_bend_c, 1, 8320
2, 78370, Pitch_bend_c, 1, 8448
2, 78435, Pitch_bend_c, 1, 8576
2, 78500, Pitch_bend_c, 1, 8704
2, 78565, Pitch_bend_c, 1, 8832
2, 78630, Pitch_bend_c, 1, 8960
2, 78695, Pitch_bend_c, 1, 9088
2, 78760, Pitch_bend_c, 1, 9216
2, 78825, Pitch_bend_c, 1, 9344
2, 78890, Pitch_bend_c, 1, 9472
2, 78955, Pitch_bend_c, 1, 9600
2, 78960, Pitch_bend_c, 1, 9600
2, 79680, Pitch_bend_c, 1, 9600
2, 79680, Pitch_bend_c, 1, 8192
2, 79680, Note_off_c, 1, 76, 95
2, 79680, Pitch_bend_c, 1, 8192
2, 79680, Note_on_c, 1, 76, 47
2, 79685, Pitch_bend_c, 1, 8320
2, 79690, Pitch_bend_c, 1, 8448
2, 79695, Pitch_bend_c, 1, 8576
2, 79700, Pitch_bend_c, 1, 8704
2, 79705, Pitch_bend_c, 1, 8832
2, 79710, Pitch_bend_c, 1, 8960
2, 79715, Pitch_bend_c, 1, 9088
2, 79720, Pitch_bend_c, 1, 9216
2, 79725, Pitch_bend_c, 1, 9344
2, 79730, Pitch_bend_c, 1, 9472
2, 79735, Pitch_bend_c, 1, 9600
2, 79740, Pitch_bend_c, 1, 9600
2, 79800, Pitch_bend_c, 1, 9600
2, 79805, Pitch_bend_c, 1, 9472
2, 79810, Pitch_bend_c, 1, 9344
2, 79815, Pitch_bend_c, 1, 9216
2, 79820, Pitch_bend_c, 1, 9088
2, 79825, Pitch_bend_c, 1, 8960
2, 79830, Pitch_bend_c, 1, 8832
2, 79835, Pitch_bend_c, 1, 8704
2, 79840, Pitch_bend_c, 1, 8576
2, 79845, Pitch_bend_c, 1, 8448
2, 79850, Pitch_bend_c, 1, 8320
2, 79855, Pitch_bend_c, 1, 8192
2, 79860, Pitch_bend_c, 1, 8192
2, 79920, Pitch_bend_c, 1, 8192
2, 79920, Pitch_bend_c, 1, 8192
2, 79920, Note_off_c, 1, 76, 47
2, 79920, Note_on_c, 0, 76, 47
2, 80160, Note_off_c, 0, 76, 47
2, 80160, Note_on_c, 0, 74, 70
2, 80640, Note_off_c, 0, 74, 70
2, 80640, Note_on_c, 0, 71, 95
2, 81600, Note_off_c, 0, 71, 95
2, 91200, Pitch_bend_c, 1, 8192
2, 91200, Note_on_c, 1, 70, 95
2, 91221, Pitch_bend_c, 1, 8320
2, 91242, Pitch_bend_c, 1, 8448
2, 91263, Pitch_bend_c, 1, 8576
2, 91284, Pitch_bend_c, 1, 8704
2, 91305, Pitch_bend_c, 1, 8832
2, 91326, Pitch_bend_c, 1, 8960
2, 91347, Pitch_bend_c, 1, 9088
2, 91368, Pitch_bend_c, 1, 9216
2, 91389, Pitch_bend_c, 1, 9344
2, 91410, Pitch_bend_c, 1, 9472
2, 91431, Pitch_bend_c, 1, 9600
2, 91440, Pitch_bend_c, 1, 9600
2, 91680, Pitch_bend_c, 1, 9600
2, 91680, Pitch_bend_c, 1, 8192
2, 91680, Note_off_c, 1, 70, 95
2, 91680, Pitch_bend_c, 1, 8192
2, 91680, Note_on_c, 1, 75, 95
2, 91800, Pitch_bend_c, 1, 8320
2, 91920, Pitch_bend_c, 1, 8448
2, 91920, Pitch_bend_c, 1, 8448
2, 92160, Pitch_bend_c, 1, 8448
2, 92160, Pitch_bend_c, 1, 8192
2, 92160, Note_off_c, 1, 75, 95
2, 92160, Pitch_bend_c, 1, 8192
2, 92160, Note_on_c, 1, 75, 95
2, 92184, Pitch_bend_c, 1, 8320
2, 92208, Pitch_bend_c, 1, 8448
2, 92232, Pitch_bend_c, 1, 8576
2, 92256, Pitch_bend_c, 1, 8704
2, 92280, Pitch_bend_c, 1, 8832
2, 92280, Pitch_bend_c, 1, 8832
2, 92400, Pitch_bend_c, 1, 8832
2, 92424, Pitch_bend_c, 1, 8704
2, 92448, Pitch_bend_c, 1, 8576
2, 92472, Pitch_bend_c, 1, 8448
2, 92496, Pitch_bend_c, 1, 8320
2, 92520, Pitch_bend_c, 1, 8192
2, 92520, Pitch_bend_c, 1, 8192
2, 92640, Pitch_bend_c, 1, 8192
2, 92640, Pitch_bend_c, 1, 8192
2, 92640, Note_off_c, 1, 75, 95
2, 92640, Note_on_c, 0, 75, 95
2, 92640, Note_on_c, 0, 70, 95
2, 94080, Note_off_c, 0, 75, 95
2, 94080, Note_off_c, 0, 70, 95
2, 94080, Note_on_c, 0, 71, 95
2, 94560, Note_off_c, 0, 71, 95
2, 94560, Note_on_c, 0, 72, 70
2, 95040, Note_off_c, 0, 72, 70
2, 95040, Note_on_c, 0, 72, 95
2, 96000, Note_off_c, 0, 72, 95
2, 96000, Note_on_c, 0, 72, 95
2, 96480, Note_off_c, 0, 72, 95
2, 96480, Note_on_c, 0, 70, 95
2, 96960, Note_off_c, 0, 70, 95
2, 96960, Note_on_c, 0, 65, 95
2, 97440, Note_off_c, 0, 65, 95
2, 97440, Note_on_c, 0, 63, 95
2, 97920, Note_off_c, 0, 63, 95
2, 97920, Pitch_bend_c, 1, 8192
2, 97920, Note_on_c, 1, 65, 95
2, 97941, Pitch_bend_c, 1, 8320
2, 97962, Pitch_bend_c, 1, 8448
2, 97983, Pitch_bend_c, 1, 8576
2, 98004, Pitch_bend_c, 1, 8704
2, 98025, Pitch_bend_c, 1, 8832
2, 98046, Pitch_bend_c, 1, 8960
2, 98067, Pitch_bend_c, 1, 9088
2, 98088, Pitch_bend_c, 1, 9216
2, 98109, Pitch_bend_c, 1, 9344
2, 98130, Pitch_bend_c, 1, 9472
2, 98151, Pitch_bend_c, 1, 9600
2, 98160, Pitch_bend_c, 1, 9600
2, 98400, Pitch_bend_c, 1, 9600
2, 98400, Pitch_bend_c, 1, 8192
2, 98400, Note_off_c, 1, 65, 95
2, 98400, Note_on_c, 0, 67, 95
2, 98880, Note_off_c, 0, 67, 95
2, 98880, Pitch_bend_c, 1, 8192
2, 98880, Note_on_c, 1, 65, 95
2, 98885, Pitch_bend_c, 1, 8320
2, 98890, Pitch_bend_c, 1, 8448
2, 98895, Pitch_bend_c, 1, 8576
2, 98900, Pitch_bend_c, 1, 8704
2, 98905, Pitch_bend_c, 1, 8832
2, 98910, Pitch_bend_c, 1, 8960
2, 98915, Pitch_bend_c, 1, 9088
2, 98920, Pitch_bend_c, 1, 9216
2, 98925, Pitch_bend_c, 1, 9344
2, 98930, Pitch_bend_c, 1, 9472
2, 98935, Pitch_bend_c, 1, 9600
2, 98940, Pitch_bend_c, 1, 9600
2, 99000, Pitch_bend_c, 1, 9600
2, 99005, Pitch_bend_c, 1, 9472
2, 99010, Pitch_bend_c, 1, 9344
2, 99015, Pitch_bend_c, 1, 9216
2, 99020, Pitch_bend_c, 1, 9088
2, 99025, Pitch_bend_c, 1, 8960
2, 99030, Pitch_bend_c, 1, 8832
2, 99035, Pitch_bend_c, 1, 8704
2, 99040, Pitch_bend_c, 1, 8576
2, 99045, Pitch_bend_c, 1, 8448
2, 99050, Pitch_bend_c, 1, 8320
2, 99055, Pitch_bend_c, 1, 8192
2, 99060, Pitch_bend_c, 1, 8192
2, 99120, Pitch_bend_c, 1, 8192
2, 99120, Pitch_bend_c, 1, 8192
2, 99120, Note_off_c, 1, 65, 95
2, 99120, Note_on_c, 0, 65, 47
2, 99360, Note_off_c, 0, 65, 47
2, 99360, Note_on_c, 0, 63, 95
2, 99840, Note_off_c, 0, 63, 95
2, 99840, Note_on_c, 1, 60, 95
2, 100000, Pitch_bend_c, 1, 8192
2, 100160, Pitch_bend_c, 1, 8320
2, 100320, Pitch_bend_c, 1, 8192
2, 100480, Pitch_bend_c, 1, 8320
2, 100640, Pitch_bend_c, 1, 8192
2, 100800, Pitch_bend_c, 1, 8320
2, 100800, Pitch_bend_c, 1, 8192
2, 100800, Note_off_c, 1, 60, 95
2, 100800, Note_on_c, 0, 60, 95
2, 101760, Note_off_c, 0, 60, 95
2, 101760, Note_on_c, 0, 60, 95
2, 102240, Note_off_c, 0, 60, 95
2, 102240, Note_on_c, 0, 60, 95
2, 102720, Note_off_c, 0, 60, 95
2, 102720, Note_on_c, 0, 63, 95
2, 103680, Note_off_c, 0, 63, 95
2, 104160, Pitch_bend_c, 1, 8192
2, 104160, Note_on_c, 1, 78, 95
2, 104160, Pitch_bend_c, 1, 8192
2, 104160, Note_on_c, 1, 74, 95
2, 104208, Pitch_bend_c, 1, 8320
2, 104208, Pitch_bend_c, 1, 8320
2, 104256, Pitch_bend_c, 1, 8448
2, 104256, Pitch_bend_c, 1, 8448
2, 104304, Pitch_bend_c, 1, 8576
2, 104304, Pitch_bend_c, 1, 8576
2, 104352, Pitch_bend_c, 1, 8704
2, 104352, Pitch_bend_c, 1, 8704
2, 104400, Pitch_bend_c, 1, 8832
2, 104400, Pitch_bend_c, 1, 8832
2, 104400, Pitch_bend_c, 1, 8832
2, 104400, Pitch_bend_c, 1, 8832
2, 104640, Pitch_bend_c, 1, 8832
2, 104640, Pitch_bend_c, 1, 8192
2, 104640, Note_off_c, 1, 78, 95
2, 104640, Pitch_bend_c, 1, 8832
2, 104640, Pitch_bend_c, 1, 8192
2, 104640, Note_off_c, 1, 74, 95
2, 104640, Pitch_bend_c, 1, 8192
2, 104640, Note_on_c, 1, 78, 95
2, 104640, Pitch_bend_c, 1, 8192
2, 104640, Note_on_c, 1, 74, 95
2, 104688, Pitch_bend_c, 1, 8320
2, 104688, Pitch_bend_c, 1, 8320
2, 104736, Pitch_bend_c, 1, 8448
2, 104736, Pitch_bend_c, 1, 8448
2, 104784, Pitch_bend_c, 1, 8576
2, 104784, Pitch_bend_c, 1, 8576
2, 104832, Pitch_bend_c, 1, 8704
2, 104832, Pitch_bend_c, 1, 8704
2, 104880, Pitch_bend_c, 1, 8832
2, 104880, Pitch_bend_c, 1, 8832
2, 104880, Pitch_bend_c, 1, 8832
2, 104880, Pitch_bend_c, 1, 8832
2, 105120, Pitch_bend_c, 1, 8832
2, 105120, Pitch_bend_c, 1, 8192
2, 105120, Note_off_c, 1, 78, 95
2, 105120, Pitch_bend_c, 1, 8832
2, 105120, Pitch_bend_c, 1, 8192
2, 105120, Note_off_c, 1, 74, 95
2, 105120, Pitch_bend_c, 1, 8192
2, 105120, Note_on_c, 1, 78, 95
2, 105120, Pitch_bend_c, 1, 8192
2, 105120, Note_on_c, 1, 74, 95
2, 105168, Pitch_bend_c, 1, 8320
2, 105168, Pitch_bend_c, 1, 8320
2, 105216, Pitch_bend_c, 1, 8448
2, 105216, Pitch_bend_c, 1, 8448
2, 105264, Pitch_bend_c, 1, 8576
2, 105264, Pitch_bend_c, 1, 8576
2, 105312, Pitch_bend_c, 1, 8704
2, 105312, Pitch_bend_c, 1, 8704
2, 105360, Pitch_bend_c, 1, 8832
2, 105360, Pitch_bend_c, 1, 8832
2, 105360, Pitch_bend_c, 1, 8832
2, 105360, Pitch_bend_c, 1, 8832
2, 105600, Pitch_bend_c, 1, 8832
2, 105600, Pitch_bend_c, 1, 8192
2, 105600, Note_off_c, 1, 78, 95
2, 105600, Pitch_bend_c, 1, 8832
2, 105600, Pitch_bend_c, 1, 8192
2, 105600, Note_off_c, 1, 74, 95
2, 105600, Pitch_bend_c, 1, 8192
2, 105600, Note_on_c, 1, 78, 95
2, 105600, Pitch_bend_c, 1, 8192
2, 105600, Note_on_c, 1, 74, 95
2, 105648, Pitch_bend_c, 1, 8320
2, 105648, Pitch_bend_c, 1, 8320
2, 105696, Pitch_bend_c, 1, 8448
2, 105696, Pitch_bend_c, 1, 8448
2, 105744, Pitch_bend_c, 1, 8576
2, 105744, Pitch_bend_c, 1, 8576
2, 105792, Pitch_bend_c, 1, 8704
2, 105792, Pitch_bend_c, 1, 8704
2, 105840, Pitch_bend_c, 1, 8832
2, 105840, Pitch_bend_c, 1, 8832
2, 105840, Pitch_bend_c, 1, 8832
2, 105840, Pitch_bend_c, 1, 8832
2, 106080, Pitch_bend_c, 1, 8832
2, 106080, Pitch_bend_c, 1, 8192
2, 106080, Note_off_c, 1, 78, 95
2, 106080, Pitch_bend_c, 1, 8832
2, 106080, Pitch_bend_c, 1, 8192
2, 106080, Note_off_c, 1, 74, 95
2, 106080, Pitch_bend_c, 1, 8192
2, 106080, Note_on_c, 1, 78, 95
2, 106080, Pitch_bend_c, 1, 8192
2, 106080, Note_on_c, 1, 74, 95
2, 106128, Pitch_bend_c, 1, 8320
2, 106128, Pitch_bend_c, 1, 8320
2, 106176, Pitch_bend_c, 1, 8448
2, 106176, Pitch_bend_c, 1, 8448
2, 106224, Pitch_bend_c, 1, 8576
2, 106224, Pitch_bend_c, 1, 8576
2, 106272, Pitch_bend_c, 1, 8704
2, 106272, Pitch_bend_c, 1, 8704
2, 106320, Pitch_bend_c, 1, 8832
2, 106320, Pitch_bend_c, 1, 8832
2, 106320, Pitch_bend_c, 1, 8832
2, 106320, Pitch_bend_c, 1, 8832
2, 106560, Pitch_bend_c, 1, 8832
2, 106560, Pitch_bend_c, 1, 8192
2, 106560, Note_off_c, 1, 78, 95
2, 106560, Pitch_bend_c, 1, 8832
2, 106560, Pitch_bend_c, 1, 8192
2, 106560, Note_off_c, 1, 74, 95
2, 106560, Pitch_bend_c, 1, 8192
2, 106560, Note_on_c, 1, 78, 95
2, 106560, Pitch_bend_c, 1, 8192
2, 106560, Note_on_c, 1, 74, 95
2, 106572, Pitch_bend_c, 1, 8320
2, 106572, Pitch_bend_c, 1, 8320
2, 106584, Pitch_bend_c, 1, 8448
2, 106584, Pitch_bend_c, 1, 8448
2, 106596, Pitch_bend_c, 1, 8576
2, 106596, Pitch_bend_c, 1, 8576
2, 106608, Pitch_bend_c, 1, 8704
2, 106608, Pitch_bend_c, 1, 8704
2, 106620, Pitch_bend_c, 1, 8832
2, 106620, Pitch_bend_c, 1, 8832
2, 106620, Pitch_bend_c, 1, 8832
2, 106620, Pitch_bend_c, 1, 8832
2, 106680, Pitch_bend_c, 1, 8832
2, 106680, Pitch_bend_c, 1, 8832
2, 106692, Pitch_bend_c, 1, 8704
2, 106692, Pitch_bend_c, 1, 8704
2, 106704, Pitch_bend_c, 1, 8576
2, 106704, Pitch_bend_c, 1, 8576
2, 106716, Pitch_bend_c, 1, 8448
2, 106716, Pitch_bend_c, 1, 8448
2, 106728, Pitch_bend_c, 1, 8320
2, 106728, Pitch_bend_c, 1, 8320
2, 106740, Pitch_bend_c, 1, 8192
2, 106740, Pitch_bend_c, 1, 8192
2, 106740, Pitch_bend_c, 1, 8192
2, 106740, Pitch_bend_c, 1, 8192
2, 106800, Pitch_bend_c, 1, 8192
2, 106800, Pitch_bend_c, 1, 8192
2, 106800, Note_off_c, 1, 78, 95
2, 106800, Pitch_bend_c, 1, 8192
2, 106800, Pitch_bend_c, 1, 8192
2, 106800, Note_off_c, 1, 74, 95
2, 106800, Note_on_c, 0, 78, 95
2, 106800, Note_on_c, 0, 74, 95
2, 107520, Note_off_c, 0, 78, 95
2, 107520, Note_off_c, 0, 74, 95
2, 107520, Pitch_bend_c, 1, 8192
2, 107520, Note_on_c, 1, 78, 95
2, 107520, Pitch_bend_c, 1, 8192
2, 107520, Note_on_c, 1, 74, 95
2, 107616, Pitch_bend_c, 1, 8320
2, 107616, Pitch_bend_c, 1, 8320
2, 107712, Pitch_bend_c, 1, 8448
2, 107712, Pitch_bend_c, 1, 8448
2, 107808, Pitch_bend_c, 1, 8576
2, 107808, Pitch_bend_c, 1, 8576
2, 107904, Pitch_bend_c, 1, 8704
2, 107904, Pitch_bend_c, 1, 8704
2, 108000, Pitch_bend_c, 1, 8832
2, 108000, Pitch_bend_c, 1, 8832
2, 108000, Pitch_bend_c, 1, 8832
2, 108000, Pitch_bend_c, 1, 8832
2, 108480, Pitch_bend_c, 1, 8832
2, 108480, Pitch_bend_c, 1, 8192
2, 108480, Note_off_c, 1, 78, 95
2, 108480, Pitch_bend_c, 1, 8832
2, 108480, Pitch_bend_c, 1, 8192
2, 108480, Note_off_c, 1, 74, 95
2, 108480, Pitch_bend_c, 1, 8192
2, 108480, Note_on_c, 1, 77, 95
2, 108523, Pitch_bend_c, 1, 8320
2, 108566, Pitch_bend_c, 1, 8448
2, 108609, Pitch_bend_c, 1, 8576
2, 108652, Pitch_bend_c, 1, 8704
2, 108695, Pitch_bend_c, 1, 8832
2, 108738, Pitch_bend_c, 1, 8960
2, 108781, Pitch_bend_c, 1, 9088
2, 108824, Pitch_bend_c, 1, 9216
2, 108867, Pitch_bend_c, 1, 9344
2, 108910, Pitch_bend_c, 1, 9472
2, 108953, Pitch_bend_c, 1, 9600
2, 108960, Pitch_bend_c, 1, 9600
2, 109440, Pitch_bend_c, 1, 9600
2, 109440, Pitch_bend_c, 1, 8192
2, 109440, Note_off_c, 1, 77, 95
2, 109440, Pitch_bend_c, 1, 8192
2, 109440, Note_on_c, 1, 77, 95
2, 109445, Pitch_bend_c, 1, 8320
2, 109450, Pitch_bend_c, 1, 8448
2, 109455, Pitch_bend_c, 1, 8576
2, 109460, Pitch_bend_c, 1, 8704
2, 109465, Pitch_bend_c, 1, 8832
2, 109470, Pitch_bend_c, 1, 8960
2, 109475, Pitch_bend_c, 1, 9088
2, 109480, Pitch_bend_c, 1, 9216
2, 109485, Pitch_bend_c, 1, 9344
2, 109490, Pitch_bend_c, 1, 9472
2, 109495, Pitch_bend_c, 1, 9600
2, 109500, Pitch_bend_c, 1, 9600
2, 109560, Pitch_bend_c, 1, 9600
2, 109565, Pitch_bend_c, 1, 9472
2, 109570, Pitch_bend_c, 1, 9344
2, 109575, Pitch_bend_c, 1, 9216
2, 109580, Pitch_bend_c, 1, 9088
2, 109585, Pitch_bend_c, 1, 8960
2, 109590, Pitch_bend_c, 1, 8832
2, 109595, Pitch_bend_c, 1, 8704
2, 109600, Pitch_bend_c, 1, 8576
2, 109605, Pitch_bend_c, 1, 8448
2, 109610, Pitch_bend_c, 1, 8320
2, 109615, Pitch_bend_c, 1, 8192
2, 109620, Pitch_bend_c, 1, 8192
2, 109680, Pitch_bend_c, 1, 8192
2, 109680, Pitch_bend_c, 1, 8192
2, 109680, Note_off_c, 1, 77, 95
2, 109680, Note_on_c, 0, 77, 47
2, 109920, Note_off_c, 0, 77, 47
2, 109920, Note_on_c, 0, 75, 95
2, 110400, Note_off_c, 0, 75, 95
2, 110400, Note_on_c, 0, 77, 95
2, 110880, Note_off_c, 0, 77, 95
2, 110880, Note_on_c, 0, 75, 95
2, 111360, Note_off_c, 0, 75, 95
2, 111360, Pitch_bend_c, 1, 8192
2, 111360, Note_on_c, 1, 77, 95
2, 111370, Pitch_bend_c, 1, 8320
2, 111380, Pitch_bend_c, 1, 8448
2, 111390, Pitch_bend_c, 1, 8576
2, 111400, Pitch_bend_c, 1, 8704
2, 111410, Pitch_bend_c, 1, 8832
2, 111420, Pitch_bend_c, 1, 8960
2, 111430, Pitch_bend_c, 1, 9088
2, 111440, Pitch_bend_c, 1, 9216
2, 111450, Pitch_bend_c, 1, 9344
2, 111460, Pitch_bend_c, 1, 9472
2, 111470, Pitch_bend_c, 1, 9600
2, 111480, Pitch_bend_c, 1, 9600
2, 111600, Pitch_bend_c, 1, 9600
2, 111610, Pitch_bend_c, 1, 9472
2, 111620, Pitch_bend_c, 1, 9344
2, 111630, Pitch_bend_c, 1, 9216
2, 111640, Pitch_bend_c, 1, 9088
2, 111650, Pitch_bend_c, 1, 8960
2, 111660, Pitch_bend_c, 1, 8832
2, 111670, Pitch_bend_c, 1, 8704
2, 111680, Pitch_bend_c, 1, 8576
2, 111690, Pitch_bend_c, 1, 8448
2, 111700, Pitch_bend_c, 1, 8320
2, 111710, Pitch_bend_c, 1, 8192
2, 111720, Pitch_bend_c, 1, 8192
2, 111840, Pitch_bend_c, 1, 8192
2, 111840, Pitch_bend_c, 1, 8192
2, 111840, Note_off_c, 1, 77, 95
2, 111840, Note_on_c, 0, 77, 47
2, 112320, Note_off_c, 0, 77, 47
2, 112320, Note_on_c, 0, 75, 95
2, 112800, Note_off_c, 0, 75, 95
2, 112800, Note_on_c, 0, 72, 95
2, 113280, Note_off_c, 0, 72, 95
2, 113280, Note_on_c, 0, 77, 95
2, 113760, Note_off_c, 0, 77, 95
2, 113760, Note_on_c, 0, 75, 95
2, 114240, Note_off_c, 0, 75, 95
2, 114240, Note_on_c, 0, 72, 95
2, 115200, Note_off_c, 0, 72, 95
2, 116160, Pitch_bend_c, 1, 8192
2, 116160, Note_on_c, 1, 72, 95
2, 116181, Pitch_bend_c, 1, 8320
2, 116202, Pitch_bend_c, 1, 8448
2, 116223, Pitch_bend_c, 1, 8576
2, 116244, Pitch_bend_c, 1, 8704
2, 116265, Pitch_bend_c, 1, 8832
2, 116286, Pitch_bend_c, 1, 8960
2, 116307, Pitch_bend_c, 1, 9088
2, 116328, Pitch_bend_c, 1, 9216
2, 116349, Pitch_bend_c, 1, 9344
2, 116370, Pitch_bend_c, 1, 9472
2, 116391, Pitch_bend_c, 1, 9600
2, 116400, Pitch_bend_c, 1, 9600
2, 116640, Pitch_bend_c, 1, 9600
2, 116640, Pitch_bend_c, 1, 8192
2, 116640, Note_off_c, 1, 72, 95
2, 116640, Note_on_c, 0, 77, 95
2, 117120, Note_off_c, 0, 77, 95
2, 117120, Pitch_bend_c, 1, 8192
2, 117120, Note_on_c, 1, 72, 47
2, 117130, Pitch_bend_c, 1, 8320
2, 117140, Pitch_bend_c, 1, 8448
2, 117150, Pitch_bend_c, 1, 8576
2, 117160, Pitch_bend_c, 1, 8704
2, 117170, Pitch_bend_c, 1, 8832
2, 117180, Pitch_bend_c, 1, 8960
2, 117190, Pitch_bend_c, 1, 9088
2, 117200, Pitch_bend_c, 1, 9216
2, 117210, Pitch_bend_c, 1, 9344
2, 117220, Pitch_bend_c, 1, 9472
2, 117230, Pitch_bend_c, 1, 9600
2, 117240, Pitch_bend_c, 1, 9600
2, 117360, Pitch_bend_c, 1, 9600
2, 117370, Pitch_bend_c, 1, 9472
2, 117380, Pitch_bend_c, 1, 9344
2, 117390, Pitch_bend_c, 1, 9216
2, 117400, Pitch_bend_c, 1, 9088
2, 117410, Pitch_bend_c, 1, 8960
2, 117420, Pitch_bend_c, 1, 8832
2, 117430, Pitch_bend_c, 1, 8704
2, 117440, Pitch_bend_c, 1, 8576
2, 117450, Pitch_bend_c, 1, 8448
2, 117460, Pitch_bend_c, 1, 8320
2, 117470, Pitch_bend_c, 1, 8192
2, 117480, Pitch_bend_c, 1, 8192
2, 117600, Pitch_bend_c, 1, 8192
2, 117600, Pitch_bend_c, 1, 8192
2, 117600, Note_off_c, 1, 72, 47
2, 117600, Note_on_c, 0, 77, 95
2, 117600, Note_on_c, 0, 72, 47
2, 118080, Note_off_c, 0, 77, 95
2, 118080, Note_off_c, 0, 72, 47
2, 118080, Note_on_c, 0, 70, 95
2, 118560, Note_off_c, 0, 70, 95
2, 118560, Note_on_c, 0, 67, 95
2, 119040, Note_off_c, 0, 67, 95
2, 119040, Pitch_bend_c, 1, 8192
2, 119040, Note_on_c, 1, 72, 95
2, 119061, Pitch_bend_c, 1, 8320
2, 119082, Pitch_bend_c, 1, 8448
2, 119103, Pitch_bend_c, 1, 8576
2, 119124, Pitch_bend_c, 1, 8704
2, 119145, Pitch_bend_c, 1, 8832
2, 119166, Pitch_bend_c, 1, 8960
2, 119187, Pitch_bend_c, 1, 9088
2, 119208, Pitch_bend_c, 1, 9216
2, 119229, Pitch_bend_c, 1, 9344
2, 119250, Pitch_bend_c, 1, 9472
2, 119271, Pitch_bend_c, 1, 9600
2, 119280, Pitch_bend_c, 1, 9600
2, 119520, Pitch_bend_c, 1, 9600
2, 119520, Pitch_bend_c, 1, 8192
2, 119520, Note_off_c, 1, 72, 95
2, 119520, Note_on_c, 0, 72, 95
2, 120000, Note_off_c, 0, 72, 95
2, 120000, Note_on_c, 0, 70, 95
2, 120480, Note_off_c, 0, 70, 95
2, 120480, Note_on_c, 0, 67, 95
2, 121920, Note_off_c, 0, 67, 95
2, 121920, Note_on_c, 1, 67, 95
2, 122880, Note_off_c, 1, 67, 95
2, 131040, Note_on_c, 1, 67, 95
2, 131160, Pitch_bend_c, 1, 8448
2, 131280, Pitch_bend_c, 1, 8832
2, 131400, Pitch_bend_c, 1, 9216
2, 131520, Pitch_bend_c, 1, 9600
2, 131520, Pitch_bend_c, 1, 8192
2, 131520, Note_off_c, 1, 67, 95
2, 131520, Note_on_c, 0, 69, 95
2, 132000, Note_off_c, 0, 69, 95
2, 132000, Note_on_c, 0, 72, 95
2, 132480, Note_off_c, 0, 72, 95
2, 132480, Note_on_c, 0, 72, 95
2, 132960, Note_off_c, 0, 72, 95
2, 132960, Note_on_c, 0, 72, 95
2, 133440, Note_off_c, 0, 72, 95
2, 133440, Note_on_c, 0, 72, 95
2, 134400, Note_off_c, 0, 72, 95
2, 134400, Pitch_bend_c, 1, 8192
2, 134400, Note_on_c, 1, 74, 95
2, 134410, Pitch_bend_c, 1, 8320
2, 134420, Pitch_bend_c, 1, 8448
2, 134430, Pitch_bend_c, 1, 8576
2, 134440, Pitch_bend_c, 1, 8704
2, 134450, Pitch_bend_c, 1, 8832
2, 134460, Pitch_bend_c, 1, 8960
2, 134470, Pitch_bend_c, 1, 9088
2, 134480, Pitch_bend_c, 1, 9216
2, 134490, Pitch_bend_c, 1, 9344
2, 134500, Pitch_bend_c, 1, 9472
2, 134510, Pitch_bend_c, 1, 9600
2, 134520, Pitch_bend_c, 1, 9600
2, 134640, Pitch_bend_c, 1, 9600
2, 134650, Pitch_bend_c, 1, 9472
2, 134660, Pitch_bend_c, 1, 9344
2, 134670, Pitch_bend_c, 1, 9216
2, 134680, Pitch_bend_c, 1, 9088
2, 134690, Pitch_bend_c, 1, 8960
2, 134700, Pitch_bend_c, 1, 8832
2, 134710, Pitch_bend_c, 1, 8704
2, 134720, Pitch_bend_c, 1, 8576
2, 134730, Pitch_bend_c, 1, 8448
2, 134740, Pitch_bend_c, 1, 8320
2, 134750, Pitch_bend_c, 1, 8192
2, 134760, Pitch_bend_c, 1, 8192
2, 134880, Pitch_bend_c, 1, 8192
2, 134880, Pitch_bend_c, 1, 8192
2, 134880, Note_off_c, 1, 74, 95
2, 134880, Note_on_c, 0, 74, 47
2, 135360, Note_off_c, 0, 74, 47
2, 135360, Note_on_c, 0, 72, 95
2, 136320, Note_off_c, 0, 72, 95
2, 136320, Pitch_bend_c, 1, 8192
2, 136320, Note_on_c, 1, 74, 95
2, 136368, Pitch_bend_c, 1, 8320
2, 136416, Pitch_bend_c, 1, 8448
2, 136464, Pitch_bend_c, 1, 8576
2, 136512, Pitch_bend_c, 1, 8704
2, 136560, Pitch_bend_c, 1, 8832
2, 136560, Pitch_bend_c, 1, 8832
2, 136800, Pitch_bend_c, 1, 8832
2, 136800, Pitch_bend_c, 1, 8192
2, 136800, Note_off_c, 1, 74, 95
2, 136800, Note_on_c, 0, 79, 95
2, 137280, Note_off_c, 0, 79, 95
2, 137280, Note_on_c, 0, 74, 47
2, 137760, Note_off_c, 0, 74, 47
2, 137760, Note_on_c, 0, 72, 95
2, 138240, Note_off_c, 0, 72, 95
2, 138240, Note_on_c, 0, 72, 47
2, 139200, Note_off_c, 0, 72, 47
2, 139200, Note_on_c, 1, 60, 95
2, 140160, Note_off_c, 1, 60, 95
2, 149280, Note_on_c, 1, 76, 95
2, 149280, Note_on_c, 1, 72, 95
2, 149400, Pitch_bend_c, 1, 8704
2, 149400, Pitch_bend_c, 1, 8832
2, 149520, Pitch_bend_c, 1, 9216
2, 149520, Pitch_bend_c, 1, 9600
2, 149640, Pitch_bend_c, 1, 9728
2, 149640, Pitch_bend_c, 1, 10240
2, 149760, Pitch_bend_c, 1, 10240
2, 149760, Pitch_bend_c, 1, 8192
2, 149760, Note_off_c, 1, 76, 95
2, 149760, Pitch_bend_c, 1, 11008
2, 149760, Pitch_bend_c, 1, 8192
2, 149760, Note_off_c, 1, 72, 95
2, 149760, Note_on_c, 0, 79, 95
2, 149760, Note_on_c, 0, 76, 95
2, 150240, Note_off_c, 0, 79, 95
2, 150240, Note_off_c, 0, 76, 95
2, 150240, Note_on_c, 1, 79, 95
2, 150240, Note_on_c, 1, 76, 95
2, 150360, Pitch_bend_c, 1, 7936
2, 150360, Pitch_bend_c, 1, 7936
2, 150480, Pitch_bend_c, 1, 7552
2, 150480, Pitch_bend_c, 1, 7552
2, 150600, Pitch_bend_c, 1, 7168
2, 150600, Pitch_bend_c, 1, 7168
2, 150720, Pitch_bend_c, 1, 6784
2, 150720, Pitch_bend_c, 1, 8192
2, 150720, Note_off_c, 1, 79, 95
2, 150720, Pitch_bend_c, 1, 6784
2, 150720, Pitch_bend_c, 1, 8192
2, 150720, Note_off_c, 1, 76, 95
2, 150720, Note_on_c, 0, 77, 95
2, 150720, Note_on_c, 0, 74, 95
2, 151200, Note_off_c, 0, 77, 95
2, 151200, Note_off_c, 0, 74, 95
2, 151200, Note_on_c, 1, 77, 95
2, 151200, Note_on_c, 1, 74, 95
2, 151320, Pitch_bend_c, 1, 8064
2, 151320, Pitch_bend_c, 1, 7936
2, 151440, Pitch_bend_c, 1, 7936
2, 151440, Pitch_bend_c, 1, 7552
2, 151560, Pitch_bend_c, 1, 7680
2, 151560, Pitch_bend_c, 1, 7168
2, 151680, Pitch_bend_c, 1, 7552
2, 151680, Pitch_bend_c, 1, 8192
2, 151680, Note_off_c, 1, 77, 95
2, 151680, Pitch_bend_c, 1, 6784
2, 151680, Pitch_bend_c, 1, 8192
2, 151680, Note_off_c, 1, 74, 95
2, 151680, Note_on_c, 0, 76, 95
2, 151680, Note_on_c, 0, 72, 95
2, 152160, Note_off_c, 0, 76, 95
2, 152160, Note_off_c, 0, 72, 95
2, 152160, Note_on_c, 1, 76, 95
2, 152160, Note_on_c, 1, 72, 95
2, 152280, Pitch_bend_c, 1, 7936
2, 152280, Pitch_bend_c, 1, 7936
2, 152400, Pitch_bend_c, 1, 7552
2, 152400, Pitch_bend_c, 1, 7552
2, 152520, Pitch_bend_c, 1, 7168
2, 152520, Pitch_bend_c, 1, 7168
2, 152640, Pitch_bend_c, 1, 6784
2, 152640, Pitch_bend_c, 1, 8192
2, 152640, Note_off_c, 1, 76, 95
2, 152640, Pitch_bend_c, 1, 6784
2, 152640, Pitch_bend_c, 1, 8192
2, 152640, Note_off_c, 1, 72, 95
2, 152640, Note_on_c, 0, 74, 95
2, 152640, Note_on_c, 0, 70, 95
2, 153120, Note_off_c, 0, 74, 95
2, 153120, Note_off_c, 0, 70, 95
2, 153120, Note_on_c, 1, 74, 95
2, 153120, Note_on_c, 1, 70, 95
2, 153240, Pitch_bend_c, 1, 8448
2, 153240, Pitch_bend_c, 1, 8448
2, 153360, Pitch_bend_c, 1, 8832
2, 153360, Pitch_bend_c, 1, 8832
2, 153480, Pitch_bend_c, 1, 9216
2, 153480, Pitch_bend_c, 1, 9216
2, 153600, Pitch_bend_c, 1, 9600
2, 153600, Pitch_bend_c, 1, 8192
2, 153600, Note_off_c, 1, 74, 95
2, 153600, Pitch_bend_c, 1, 9600
2, 153600, Pitch_bend_c, 1, 8192
2, 153600, Note_off_c, 1, 70, 95
2, 153600, Note_on_c, 0, 76, 95
2, 153600, Note_on_c, 0, 72, 95
2, 155520, Note_off_c, 0, 76, 95
2, 155520, Note_off_c, 0, 72, 95
2, 163200, Pitch_bend_c, 1, 8192
2, 163200, Note_on_c, 1, 76, 95
2, 163243, Pitch_bend_c, 1, 8320
2, 163286, Pitch_bend_c, 1, 8448
2, 163329, Pitch_bend_c, 1, 8576
2, 163372, Pitch_bend_c, 1, 8704
2, 163415, Pitch_bend_c, 1, 8832
2, 163458, Pitch_bend_c, 1, 8960
2, 163501, Pitch_bend_c, 1, 9088
2, 163544, Pitch_bend_c, 1, 9216
2, 163587, Pitch_bend_c, 1, 9344
2, 163630, Pitch_bend_c, 1, 9472
2, 163673, Pitch_bend_c, 1, 9600
2, 163680, Pitch_bend_c, 1, 9600
2, 164160, Pitch_bend_c, 1, 9600
2, 164160, Pitch_bend_c, 1, 8192
2, 164160, Note_off_c, 1, 76, 95
2, 164160, Pitch_bend_c, 1, 8192
2, 164160, Note_on_c, 1, 76, 95
2, 164203, Pitch_bend_c, 1, 8320
2, 164246, Pitch_bend_c, 1, 8448
2, 164289, Pitch_bend_c, 1, 8576
2, 164332, Pitch_bend_c, 1, 8704
2, 164375, Pitch_bend_c, 1, 8832
2, 164418, Pitch_bend_c, 1, 8960
2, 164461, Pitch_bend_c, 1, 9088
2, 164504, Pitch_bend_c, 1, 9216
2, 164547, Pitch_bend_c, 1, 9344
2, 164590, Pitch_bend_c, 1, 9472
2, 164633, Pitch_bend_c, 1, 9600
2, 164640, Pitch_bend_c, 1, 9600
2, 165120, Pitch_bend_c, 1, 9600
2, 165120, Pitch_bend_c, 1, 8192
2, 165120, Note_off_c, 1, 76, 95
2, 165120, Pitch_bend_c, 1, 8192
2, 165120, Note_on_c, 1, 77, 95
2, 165141, Pitch_bend_c, 1, 8320
2, 165162, Pitch_bend_c, 1, 8448
2, 165183, Pitch_bend_c, 1, 8576
2, 165204, Pitch_bend_c, 1, 8704
2, 165225, Pitch_bend_c, 1, 8832
2, 165246, Pitch_bend_c, 1, 8960
2, 165267, Pitch_bend_c, 1, 9088
2, 165288, Pitch_bend_c, 1, 9216
2, 165309, Pitch_bend_c, 1, 9344
2, 165330, Pitch_bend_c, 1, 9472
2, 165351, Pitch_bend_c, 1, 9600
2, 165360, Pitch_bend_c, 1, 9600
2, 165600, Pitch_bend_c, 1, 9600
2, 165600, Pitch_bend_c, 1, 8192
2, 165600, Note_off_c, 1, 77, 95
2, 165600, Pitch_bend_c, 1, 9600
2, 165600, Note_on_c, 1, 76, 95
2, 165760, Pitch_bend_c, 1, 9600
2, 165774, Pitch_bend_c, 1, 9472
2, 165788, Pitch_bend_c, 1, 9344
2, 165802, Pitch_bend_c, 1, 9216
2, 165816, Pitch_bend_c, 1, 9088
2, 165830, Pitch_bend_c, 1, 8960
2, 165844, Pitch_bend_c, 1, 8832
2, 165858, Pitch_bend_c, 1, 8704
2, 165872, Pitch_bend_c, 1, 8576
2, 165886, Pitch_bend_c, 1, 8448
2, 165900, Pitch_bend_c, 1, 8320
2, 165914, Pitch_bend_c, 1, 8192
2, 165920, Pitch_bend_c, 1, 8192
2, 166080, Pitch_bend_c, 1, 8192
2, 166080, Pitch_bend_c, 1, 8192
2, 166080, Note_off_c, 1, 76, 95
2, 166080, Note_on_c, 0, 74, 95
2, 166560, Note_off_c, 0, 74, 95
2, 166560, Note_on_c, 0, 71, 95
2, 167040, Note_off_c, 0, 71, 95
2, 167040, Note_on_c, 0, 74, 95
2, 167520, Note_off_c, 0, 74, 95
2, 167520, Note_on_c, 0, 76, 70
2, 168000, Note_off_c, 0, 76, 70
2, 168000, Note_on_c, 0, 74, 95
2, 168840, Note_on_c, 1, 67, 95
2, 168960, Note_off_c, 0, 74, 95
2, 168960, Note_off_c, 1, 67, 95
2, 168960, Note_on_c, 1, 70, 95
2, 169920, Note_off_c, 1, 70, 95
2, 177600, Pitch_bend_c, 1, 8192
2, 177600, Note_on_c, 1, 73, 95
2, 177600, Pitch_bend_c, 1, 8192
2, 177600, Note_on_c, 1, 69, 95
2, 177730, Pitch_bend_c, 1, 8320
2, 177860, Pitch_bend_c, 1, 8448
2, 177888, Pitch_bend_c, 1, 8320
2, 177990, Pitch_bend_c, 1, 8576
2, 178120, Pitch_bend_c, 1, 8704
2, 178176, Pitch_bend_c, 1, 8448
2, 178250, Pitch_bend_c, 1, 8832
2, 178380, Pitch_bend_c, 1, 8960
2, 178464, Pitch_bend_c, 1, 8576
2, 178510, Pitch_bend_c, 1, 9088
2, 178640, Pitch_bend_c, 1, 9216
2, 178752, Pitch_bend_c, 1, 8704
2, 178770, Pitch_bend_c, 1, 9344
2, 178900, Pitch_bend_c, 1, 9472
2, 179030, Pitch_bend_c, 1, 9600
2, 179040, Pitch_bend_c, 1, 8832
2, 179040, Pitch_bend_c, 1, 8832
2, 179040, Pitch_bend_c, 1, 9600
2, 180480, Pitch_bend_c, 1, 8832
2, 180480, Pitch_bend_c, 1, 8192
2, 180480, Note_off_c, 1, 73, 95
2, 180480, Pitch_bend_c, 1, 9600
2, 180480, Pitch_bend_c, 1, 8192
2, 180480, Note_off_c, 1, 69, 95
2, 180480, Note_on_c, 0, 65, 95
2, 180960, Note_off_c, 0, 65, 95
2, 180960, Note_on_c, 0, 66, 95
2, 181440, Note_off_c, 0, 66, 95
2, 181440, Note_on_c, 0, 69, 95
2, 181920, Note_off_c, 0, 69, 95
2, 181920, Note_on_c, 0, 74, 95
2, 182400, Note_off_c, 0, 74, 95
2, 182880, Pitch_bend_c, 1, 8192
2, 182880, Note_on_c, 1, 72, 95
2, 182945, Pitch_bend_c, 1, 8320
2, 183010, Pitch_bend_c, 1, 8448
2, 183075, Pitch_bend_c, 1, 8576
2, 183140, Pitch_bend_c, 1, 8704
2, 183205, Pitch_bend_c, 1, 8832
2, 183270, Pitch_bend_c, 1, 8960
2, 183335, Pitch_bend_c, 1, 9088
2, 183400, Pitch_bend_c, 1, 9216
2, 183465, Pitch_bend_c, 1, 9344
2, 183530, Pitch_bend_c, 1, 9472
2, 183595, Pitch_bend_c, 1, 9600
2, 183600, Pitch_bend_c, 1, 9600
2, 184320, Pitch_bend_c, 1, 9600
2, 184320, Pitch_bend_c, 1, 8192
2, 184320, Note_off_c, 1, 72, 95
2, 184320, Pitch_bend_c, 1, 8192
2, 184320, Note_on_c, 1, 72, 47
2, 184325, Pitch_bend_c, 1, 8320
2, 184330, Pitch_bend_c, 1, 8448
2, 184335, Pitch_bend_c, 1, 8576
2, 184340, Pitch_bend_c, 1, 8704
2, 184345, Pitch_bend_c, 1, 8832
2, 184350, Pitch_bend_c, 1, 8960
2, 184355, Pitch_bend_c, 1, 9088
2, 184360, Pitch_bend_c, 1, 9216
2, 184365, Pitch_bend_c, 1, 9344
2, 184370, Pitch_bend_c, 1, 9472
2, 184375, Pitch_bend_c, 1, 9600
2, 184380, Pitch_bend_c, 1, 9600
2, 184440, Pitch_bend_c, 1, 9600
2, 184445, Pitch_bend_c, 1, 9472
2, 184450, Pitch_bend_c, 1, 9344
2, 184455, Pitch_bend_c, 1, 9216
2, 184460, Pitch_bend_c, 1, 9088
2, 184465, Pitch_bend_c, 1, 8960
2, 184470, Pitch_bend_c, 1, 8832
2, 184475, Pitch_bend_c, 1, 8704
2, 184480, Pitch_bend_c, 1, 8576
2, 184485, Pitch_bend_c, 1, 8448
2, 184490, Pitch_bend_c, 1, 8320
2, 184495, Pitch_bend_c, 1, 8192
2, 184500, Pitch_bend_c, 1, 8192
2, 184560, Pitch_bend_c, 1, 8192
2, 184560, Pitch_bend_c, 1, 8192
2, 184560, Note_off_c, 1, 72, 47
2, 184560, Note_on_c, 0, 72, 47
2, 184800, Note_off_c, 0, 72, 47
2, 184800, Note_on_c, 0, 72, 95
2, 185280, Note_off_c, 0, 72, 95
2, 185280, Pitch_bend_c, 1, 8192
2, 185280, Note_on_c, 1, 67, 95
2, 185292, Pitch_bend_c, 1, 8320
2, 185304, Pitch_bend_c, 1, 8448
2, 185316, Pitch_bend_c, 1, 8576
2, 185328, Pitch_bend_c, 1, 8704
2, 185340, Pitch_bend_c, 1, 8832
2, 185340, Pitch_bend_c, 1, 8832
2, 185400, Pitch_bend_c, 1, 8832
2, 185412, Pitch_bend_c, 1, 8704
2, 185424, Pitch_bend_c, 1, 8576
2, 185436, Pitch_bend_c, 1, 8448
2, 185448, Pitch_bend_c, 1, 8320
2, 185460, Pitch_bend_c, 1, 8192
2, 185460, Pitch_bend_c, 1, 8192
2, 185520, Pitch_bend_c, 1, 8192
2, 185520, Pitch_bend_c, 1, 8192
2, 185520, Note_off_c, 1, 67, 95
2, 185520, Note_on_c, 0, 67, 47
2, 185760, Note_off_c, 0, 67, 47
2, 185760, Note_on_c, 0, 65, 95
2, 186240, Note_off_c, 0, 65, 95
2, 186240, Note_on_c, 0, 67, 95
2, 186480, Note_off_c, 0, 67, 95
2, 186480, Note_on_c, 0, 65, 95
2, 186720, Note_off_c, 0, 65, 95
2, 186720, Note_on_c, 0, 62, 95
2, 187200, Note_off_c, 0, 62, 95
2, 187200, Note_on_c, 1, 65, 95
2, 187320, Pitch_bend_c, 1, 8448
2, 187440, Pitch_bend_c, 1, 8832
2, 187560, Pitch_bend_c, 1, 9216
2, 187680, Pitch_bend_c, 1, 9600
2, 187800, Pitch_bend_c, 1, 9856
2, 187920, Pitch_bend_c, 1, 10240
2, 188040, Pitch_bend_c, 1, 10624
2, 188160, Pitch_bend_c, 1, 11008
2, 188160, Pitch_bend_c, 1, 8192
2, 188160, Note_off_c, 1, 65, 95
2, 188160, Note_on_c, 0, 69, 95
2, 189120, Note_off_c, 0, 69, 95
2, 189120, Note_on_c, 0, 72, 95
2, 190080, Note_off_c, 0, 72, 95
2, 190080, Note_on_c, 0, 72, 95
2, 190560, Note_off_c, 0, 72, 95
2, 190560, Note_on_c, 0, 74, 95
2, 191040, Note_off_c, 0, 74, 95
2, 191040, Note_on_c, 0, 72, 95
2, 191520, Note_off_c, 0, 72, 95
2, 191520, Pitch_bend_c, 1, 8192
2, 191520, Note_on_c, 1, 79, 95
2, 191563, Pitch_bend_c, 1, 8320
2, 191606, Pitch_bend_c, 1, 8448
2, 191649, Pitch_bend_c, 1, 8576
2, 191692, Pitch_bend_c, 1, 8704
2, 191735, Pitch_bend_c, 1, 8832
2, 191778, Pitch_bend_c, 1, 8960
2, 191821, Pitch_bend_c, 1, 9088
2, 191864, Pitch_bend_c, 1, 9216
2, 191907, Pitch_bend_c, 1, 9344
2, 191950, Pitch_bend_c, 1, 9472
2, 191993, Pitch_bend_c, 1, 9600
2, 192000, Pitch_bend_c, 1, 9600
2, 192480, Pitch_bend_c, 1, 9600
2, 192480, Pitch_bend_c, 1, 8192
2, 192480, Note_off_c, 1, 79, 95
2, 192480, Pitch_bend_c, 1, 8192
2, 192480, Note_on_c, 1, 79, 95
2, 192490, Pitch_bend_c, 1, 8320
2, 192500, Pitch_bend_c, 1, 8448
2, 192510, Pitch_bend_c, 1, 8576
2, 192520, Pitch_bend_c, 1, 8704
2, 192530, Pitch_bend_c, 1, 8832
2, 192540, Pitch_bend_c, 1, 8960
2, 192550, Pitch_bend_c, 1, 9088
2, 192560, Pitch_bend_c, 1, 9216
2, 192570, Pitch_bend_c, 1, 9344
2, 192580, Pitch_bend_c, 1, 9472
2, 192590, Pitch_bend_c, 1, 9600
2, 192600, Pitch_bend_c, 1, 9600
2, 192720, Pitch_bend_c, 1, 9600
2, 192730, Pitch_bend_c, 1, 9472
2, 192740, Pitch_bend_c, 1, 9344
2, 192750, Pitch_bend_c, 1, 9216
2, 192760, Pitch_bend_c, 1, 9088
2, 192770, Pitch_bend_c, 1, 8960
2, 192780, Pitch_bend_c, 1, 8832
2, 192790, Pitch_bend_c, 1, 8704
2, 192800, Pitch_bend_c, 1, 8576
2, 192810, Pitch_bend_c, 1, 8448
2, 192820, Pitch_bend_c, 1, 8320
2, 192830, Pitch_bend_c, 1, 8192
2, 192840, Pitch_bend_c, 1, 8192
2, 192960, Pitch_bend_c, 1, 8192
2, 192960, Pitch_bend_c, 1, 8192
2, 192960, Note_off_c, 1, 79, 95
2, 192960, Note_on_c, 0, 79, 47
2, 193440, Note_off_c, 0, 79, 47
2, 193440, Note_on_c, 0, 77, 95
2, 194880, Note_off_c, 0, 77, 95
2, 194880, Note_on_c, 1, 53, 95
2, 195360, Note_off_c, 1, 53, 95
2, 195360, Note_on_c, 0, 65, 95
2, 195840, Note_off_c, 0, 65, 95
2, 195840, Note_on_c, 0, 66, 95
2, 196320, Note_off_c, 0, 66, 95
2, 196320, Note_on_c, 0, 69, 95
2, 196800, Note_off_c, 0, 69, 95
2, 196800, Note_on_c, 0, 74, 95
2, 197760, Note_off_c, 0, 74, 95
2, 197760, Note_on_c, 1, 67, 95
2, 197880, Pitch_bend_c, 1, 8448
2, 198000, Pitch_bend_c, 1, 8832
2, 198120, Pitch_bend_c, 1, 9216
2, 198240, Pitch_bend_c, 1, 9600
2, 198240, Pitch_bend_c, 1, 8192
2, 198240, Note_off_c, 1, 67, 95
2, 198240, Note_on_c, 0, 69, 95
2, 198720, Note_off_c, 0, 69, 95
2, 198720, Note_on_c, 0, 78, 95
2, 199200, Note_off_c, 0, 78, 95
2, 199200, Note_on_c, 0, 78, 95
2, 199680, Note_off_c, 0, 78, 95
2, 199680, Note_on_c, 1, 78, 95
2, 199680, Note_on_c, 1, 69, 95
2, 199800, Pitch_bend_c, 1, 7936
2, 199800, Pitch_bend_c, 1, 7936
2, 199920, Pitch_bend_c, 1, 7552
2, 199920, Pitch_bend_c, 1, 7552
2, 200040, Pitch_bend_c, 1, 7168
2, 200040, Pitch_bend_c, 1, 7168
2, 200160, Pitch_bend_c, 1, 6784
2, 200160, Pitch_bend_c, 1, 8192
2, 200160, Note_off_c, 1, 78, 95
2, 200160, Pitch_bend_c, 1, 6784
2, 200160, Pitch_bend_c, 1, 8192
2, 200160, Note_off_c, 1, 69, 95
2, 200160, Note_on_c, 0, 76, 95
2, 200160, Note_on_c, 0, 67, 95
2, 200640, Note_off_c, 0, 76, 95
2, 200640, Note_off_c, 0, 67, 95
2, 200640, Note_on_c, 1, 76, 95
2, 200640, Note_on_c, 1, 67, 95
2, 200760, Pitch_bend_c, 1, 7936
2, 200760, Pitch_bend_c, 1, 8064
2, 200880, Pitch_bend_c, 1, 7552
2, 200880, Pitch_bend_c, 1, 7936
2, 201000, Pitch_bend_c, 1, 7168
2, 201000, Pitch_bend_c, 1, 7680
2, 201120, Pitch_bend_c, 1, 6784
2, 201120, Pitch_bend_c, 1, 8192
2, 201120, Note_off_c, 1, 76, 95
2, 201120, Pitch_bend_c, 1, 7552
2, 201120, Pitch_bend_c, 1, 8192
2, 201120, Note_off_c, 1, 67, 95
2, 201120, Note_on_c, 0, 74, 95
2, 201120, Note_on_c, 0, 66, 95
2, 201600, Note_off_c, 0, 74, 95
2, 201600, Note_off_c, 0, 66, 95
2, 201600, Note_on_c, 0, 74, 95
2, 201600, Note_on_c, 0, 66, 95
2, 202080, Note_off_c, 0, 74, 95
2, 202080, Note_off_c, 0, 66, 95
2, 202080, Note_on_c, 0, 72, 95
2, 202080, Note_on_c, 0, 64, 95
2, 202560, Note_off_c, 0, 72, 95
2, 202560, Note_off_c, 0, 64, 95
2, 202560, Note_on_c, 1, 72, 95
2, 202560, Note_on_c, 1, 64, 95
2, 203520, Note_off_c, 1, 72, 95
2, 203520, Note_off_c, 1, 64, 95
2, 204480, Pitch_bend_c, 1, 8192
2, 204480, Note_on_c, 1, 70, 95
2, 204480, Pitch_bend_c, 1, 8192
2, 204480, Note_on_c, 1, 66, 95
2, 204523, Pitch_bend_c, 1, 8320
2, 204523, Pitch_bend_c, 1, 8320
2, 204566, Pitch_bend_c, 1, 8448
2, 204566, Pitch_bend_c, 1, 8448
2, 204609, Pitch_bend_c, 1, 8576
2, 204609, Pitch_bend_c, 1, 8576
2, 204652, Pitch_bend_c, 1, 8704
2, 204652, Pitch_bend_c, 1, 8704
2, 204695, Pitch_bend_c, 1, 8832
2, 204695, Pitch_bend_c, 1, 8832
2, 204738, Pitch_bend_c, 1, 8960
2, 204738, Pitch_bend_c, 1, 8960
2, 204781, Pitch_bend_c, 1, 9088
2, 204781, Pitch_bend_c, 1, 9088
2, 204824, Pitch_bend_c, 1, 9216
2, 204824, Pitch_bend_c, 1, 9216
2, 204867, Pitch_bend_c, 1, 9344
2, 204867, Pitch_bend_c, 1, 9344
2, 204910, Pitch_bend_c, 1, 9472
2, 204910, Pitch_bend_c, 1, 9472
2, 204953, Pitch_bend_c, 1, 9600
2, 204953, Pitch_bend_c, 1, 9600
2, 204960, Pitch_bend_c, 1, 9600
2, 204960, Pitch_bend_c, 1, 9600
2, 205440, Pitch_bend_c, 1, 9600
2, 205440, Pitch_bend_c, 1, 8192
2, 205440, Note_off_c, 1, 70, 95
2, 205440, Pitch_bend_c, 1, 9600
2, 205440, Pitch_bend_c, 1, 8192
2, 205440, Note_off_c, 1, 66, 95
2, 205440, Pitch_bend_c, 1, 8192
2, 205440, Note_on_c, 1, 70, 95
2, 205440, Pitch_bend_c, 1, 8192
2, 205440, Note_on_c, 1, 66, 95
2, 205483, Pitch_bend_c, 1, 8320
2, 205483, Pitch_bend_c, 1, 8320
2, 205526, Pitch_bend_c, 1, 8448
2, 205526, Pitch_bend_c, 1, 8448
2, 205569, Pitch_bend_c, 1, 8576
2, 205569, Pitch_bend_c, 1, 8576
2, 205612, Pitch_bend_c, 1, 8704
2, 205612, Pitch_bend_c, 1, 8704
2, 205655, Pitch_bend_c, 1, 8832
2, 205655, Pitch_bend_c, 1, 8832
2, 205698, Pitch_bend_c, 1, 8960
2, 205698, Pitch_bend_c, 1, 8960
2, 205741, Pitch_bend_c, 1, 9088
2, 205741, Pitch_bend_c, 1, 9088
2, 205784, Pitch_bend_c, 1, 9216
2, 205784, Pitch_bend_c, 1, 9216
2, 205827, Pitch_bend_c, 1, 9344
2, 205827, Pitch_bend_c, 1, 9344
2, 205870, Pitch_bend_c, 1, 9472
2, 205870, Pitch_bend_c, 1, 9472
2, 205913, Pitch_bend_c, 1, 9600
2, 205913, Pitch_bend_c, 1, 9600
2, 205920, Pitch_bend_c, 1, 9600
2, 205920, Pitch_bend_c, 1, 9600
2, 206400, Pitch_bend_c, 1, 9600
2, 206400, Pitch_bend_c, 1, 8192
2, 206400, Note_off_c, 1, 70, 95
2, 206400, Pitch_bend_c, 1, 9600
2, 206400, Pitch_bend_c, 1, 8192
2, 206400, Note_off_c, 1, 66, 95
2, 206400, Note_on_c, 0, 65, 95
2, 206880, Note_off_c, 0, 65, 95
2, 206880, Note_on_c, 0, 62, 95
2, 207360, Note_off_c, 0, 62, 95
2, 207360, Note_on_c, 0, 67, 95
2, 207840, Note_off_c, 0, 67, 95
2, 207840, Note_on_c, 0, 65, 95
2, 208320, Note_off_c, 0, 65, 95
2, 208320, Note_on_c, 0, 65, 95
2, 208800, Note_off_c, 0, 65, 95
2, 208800, Pitch_bend_c, 1, 8192
2, 208800, Note_on_c, 1, 70, 95
2, 208944, Pitch_bend_c, 1, 8320
2, 209088, Pitch_bend_c, 1, 8448
2, 209232, Pitch_bend_c, 1, 8576
2, 209376, Pitch_bend_c, 1, 8704
2, 209520, Pitch_bend_c, 1, 8832
2, 209520, Pitch_bend_c, 1, 8832
2, 210240, Pitch_bend_c, 1, 8832
2, 210240, Pitch_bend_c, 1, 8192
2, 210240, Note_off_c, 1, 70, 95
2, 210240, Note_on_c, 1, 67, 95
2, 211200, Note_off_c, 1, 67, 95
2, 211200, Pitch_bend_c, 1, 8192
2, 211200, Note_on_c, 1, 70, 95
2, 211243, Pitch_bend_c, 1, 8320
2, 211286, Pitch_bend_c, 1, 8448
2, 211329, Pitch_bend_c, 1, 8576
2, 211372, Pitch_bend_c, 1, 8704
2, 211415, Pitch_bend_c, 1, 8832
2, 211458, Pitch_bend_c, 1, 8960
2, 211501, Pitch_bend_c, 1, 9088
2, 211544, Pitch_bend_c, 1, 9216
2, 211587, Pitch_bend_c, 1, 9344
2, 211630, Pitch_bend_c, 1, 9472
2, 211673, Pitch_bend_c, 1, 9600
2, 211680, Pitch_bend_c, 1, 9600
2, 212160, Pitch_bend_c, 1, 9600
2, 212160, Pitch_bend_c, 1, 8192
2, 212160, Note_off_c, 1, 70, 95
2, 212160, Note_on_c, 1, 72, 95
2, 212320, Pitch_bend_c, 1, 8192
2, 212480, Pitch_bend_c, 1, 8320
2, 212640, Pitch_bend_c, 1, 8192
2, 212800, Pitch_bend_c, 1, 8320
2, 212960, Pitch_bend_c, 1, 8192
2, 213120, Pitch_bend_c, 1, 8320
2, 213120, Pitch_bend_c, 1, 8192
2, 213120, Note_off_c, 1, 72, 95
2, 213120, Note_on_c, 1, 72, 95
2, 213280, Pitch_bend_c, 1, 8192
2, 213440, Pitch_bend_c, 1, 8320
2, 213600, Pitch_bend_c, 1, 8192
2, 213760, Pitch_bend_c, 1, 8320
2, 213920, Pitch_bend_c, 1, 8192
2, 214080, Pitch_bend_c, 1, 8320
2, 214080, Pitch_bend_c, 1, 8192
2, 214080, Note_off_c, 1, 72, 95
2, 214080, Note_on_c, 1, 72, 95
2, 214240, Pitch_bend_c, 1, 8192
2, 214400, Pitch_bend_c, 1, 8320
2, 214560, Pitch_bend_c, 1, 8192
2, 214720, Pitch_bend_c, 1, 8320
2, 214880, Pitch_bend_c, 1, 8192
2, 215040, Pitch_bend_c, 1, 8320
2, 215040, Pitch_bend_c, 1, 8192
2, 215040, Note_off_c, 1, 72, 95
2, 215040, Note_on_c, 0, 72, 95
2, 215520, Note_off_c, 0, 72, 95
2, 215520, Note_on_c, 0, 70, 95
2, 216000, Note_off_c, 0, 70, 95
2, 216000, Note_on_c, 0, 72, 95
2, 216480, Note_off_c, 0, 72, 95
2, 216480, Pitch_bend_c, 1, 8192
2, 216480, Note_on_c, 1, 75, 95
2, 216600, Pitch_bend_c, 1, 8320
2, 216720, Pitch_bend_c, 1, 8448
2, 216720, Pitch_bend_c, 1, 8448
2, 216960, Pitch_bend_c, 1, 8448
2, 216960, Pitch_bend_c, 1, 8192
2, 216960, Note_off_c, 1, 75, 95
2, 216960, Note_on_c, 0, 72, 95
2, 217440, Note_off_c, 0, 72, 95
2, 217440, Note_on_c, 0, 70, 95
2, 217920, Note_off_c, 0, 70, 95
2, 217920, Note_on_c, 0, 72, 95
2, 218400, Note_off_c, 0, 72, 95
2, 218400, Note_on_c, 0, 75, 95
2, 218880, Note_off_c, 0, 75, 95
2, 219360, Pitch_bend_c, 1, 8192
2, 219360, Note_on_c, 1, 77, 95
2, 219425, Pitch_bend_c, 1, 8320
2, 219490, Pitch_bend_c, 1, 8448
2, 219555, Pitch_bend_c, 1, 8576
2, 219620, Pitch_bend_c, 1, 8704
2, 219685, Pitch_bend_c, 1, 8832
2, 219750, Pitch_bend_c, 1, 8960
2, 219815, Pitch_bend_c, 1, 9088
2, 219880, Pitch_bend_c, 1, 9216
2, 219945, Pitch_bend_c, 1, 9344
2, 220010, Pitch_bend_c, 1, 9472
2, 220075, Pitch_bend_c, 1, 9600
2, 220080, Pitch_bend_c, 1, 9600
2, 220800, Pitch_bend_c, 1, 9600
2, 220800, Pitch_bend_c, 1, 8192
2, 220800, Note_off_c, 1, 77, 95
2, 220800, Pitch_bend_c, 1, 8192
2, 220800, Note_on_c, 1, 77, 47
2, 220805, Pitch_bend_c, 1, 8320
2, 220810, Pitch_bend_c, 1, 8448
2, 220815, Pitch_bend_c, 1, 8576
2, 220820, Pitch_bend_c, 1, 8704
2, 220825, Pitch_bend_c, 1, 8832
2, 220830, Pitch_bend_c, 1, 8960
2, 220835, Pitch_bend_c, 1, 9088
2, 220840, Pitch_bend_c, 1, 9216
2, 220845, Pitch_bend_c, 1, 9344
2, 220850, Pitch_bend_c, 1, 9472
2, 220855, Pitch_bend_c, 1, 9600
2, 220860, Pitch_bend_c, 1, 9600
2, 220920, Pitch_bend_c, 1, 9600
2, 220925, Pitch_bend_c, 1, 9472
2, 220930, Pitch_bend_c, 1, 9344
2, 220935, Pitch_bend_c, 1, 9216
2, 220940, Pitch_bend_c, 1, 9088
2, 220945, Pitch_bend_c, 1, 8960
2, 220950, Pitch_bend_c, 1, 8832
2, 220955, Pitch_bend_c, 1, 8704
2, 220960, Pitch_bend_c, 1, 8576
2, 220965, Pitch_bend_c, 1, 8448
2, 220970, Pitch_bend_c, 1, 8320
2, 220975, Pitch_bend_c, 1, 8192
2, 220980, Pitch_bend_c, 1, 8192
2, 221040, Pitch_bend_c, 1, 8192
2, 221040, Pitch_bend_c, 1, 8192
2, 221040, Note_off_c, 1, 77, 47
2, 221040, Note_on_c, 0, 77, 47
2, 221280, Note_off_c, 0, 77, 47
2, 221280, Note_on_c, 0, 75, 70
2, 221760, Note_off_c, 0, 75, 70
2, 221760, Note_on_c, 0, 77, 95
2, 222240, Note_off_c, 0, 77, 95
2, 222240, Note_on_c, 0, 75, 95
2, 222720, Note_off_c, 0, 75, 95
2, 223200, Pitch_bend_c, 1, 8192
2, 223200, Note_on_c, 1, 77, 95
2, 223243, Pitch_bend_c, 1, 8320
2, 223286, Pitch_bend_c, 1, 8448
2, 223329, Pitch_bend_c, 1, 8576
2, 223372, Pitch_bend_c, 1, 8704
2, 223415, Pitch_bend_c, 1, 8832
2, 223458, Pitch_bend_c, 1, 8960
2, 223501, Pitch_bend_c, 1, 9088
2, 223544, Pitch_bend_c, 1, 9216
2, 223587, Pitch_bend_c, 1, 9344
2, 223630, Pitch_bend_c, 1, 9472
2, 223673, Pitch_bend_c, 1, 9600
2, 223680, Pitch_bend_c, 1, 9600
2, 224160, Pitch_bend_c, 1, 9600
2, 224160, Pitch_bend_c, 1, 8192
2, 224160, Note_off_c, 1, 77, 95
2, 224160, Pitch_bend_c, 1, 8192
2, 224160, Note_on_c, 1, 77, 95
2, 224181, Pitch_bend_c, 1, 8320
2, 224202, Pitch_bend_c, 1, 8448
2, 224223, Pitch_bend_c, 1, 8576
2, 224244, Pitch_bend_c, 1, 8704
2, 224265, Pitch_bend_c, 1, 8832
2, 224286, Pitch_bend_c, 1, 8960
2, 224307, Pitch_bend_c, 1, 9088
2, 224328, Pitch_bend_c, 1, 9216
2, 224349, Pitch_bend_c, 1, 9344
2, 224370, Pitch_bend_c, 1, 9472
2, 224391, Pitch_bend_c, 1, 9600
2, 224400, Pitch_bend_c, 1, 9600
2, 224640, Pitch_bend_c, 1, 9600
2, 224640, Pitch_bend_c, 1, 8192
2, 224640, Note_off_c, 1, 77, 95
2, 224640, Pitch_bend_c, 1, 8192
2, 224640, Note_on_c, 1, 77, 47
2, 224645, Pitch_bend_c, 1, 8320
2, 224650, Pitch_bend_c, 1, 8448
2, 224655, Pitch_bend_c, 1, 8576
2, 224660, Pitch_bend_c, 1, 8704
2, 224665, Pitch_bend_c, 1, 8832
2, 224670, Pitch_bend_c, 1, 8960
2, 224675, Pitch_bend_c, 1, 9088
2, 224680, Pitch_bend_c, 1, 9216
2, 224685, Pitch_bend_c, 1, 9344
2, 224690, Pitch_bend_c, 1, 9472
2, 224695, Pitch_bend_c, 1, 9600
2, 224700, Pitch_bend_c, 1, 9600
2, 224760, Pitch_bend_c, 1, 9600
2, 224765, Pitch_bend_c, 1, 9472
2, 224770, Pitch_bend_c, 1, 9344
2, 224775, Pitch_bend_c, 1, 9216
2, 224780, Pitch_bend_c, 1, 9088
2, 224785, Pitch_bend_c, 1, 8960
2, 224790, Pitch_bend_c, 1, 8832
2, 224795, Pitch_bend_c, 1, 8704
2, 224800, Pitch_bend_c, 1, 8576
2, 224805, Pitch_bend_c, 1, 8448
2, 224810, Pitch_bend_c, 1, 8320
2, 224815, Pitch_bend_c, 1, 8192
2, 224820, Pitch_bend_c, 1, 8192
2, 224880, Pitch_bend_c, 1, 8192
2, 224880, Pitch_bend_c, 1, 8192
2, 224880, Note_off_c, 1, 77, 47
2, 224880, Note_on_c, 0, 77, 47
2, 225120, Note_off_c, 0, 77, 47
2, 225120, Note_on_c, 0, 75, 70
2, 225600, Note_off_c, 0, 75, 70
2, 225600, Note_on_c, 0, 77, 95
2, 226080, Note_off_c, 0, 77, 95
2, 226080, Note_on_c, 0, 75, 95
2, 226560, Note_off_c, 0, 75, 95
2, 226560, Pitch_bend_c, 1, 8192
2, 226560, Note_on_c, 1, 77, 95
2, 226603, Pitch_bend_c, 1, 8320
2, 226646, Pitch_bend_c, 1, 8448
2, 226689, Pitch_bend_c, 1, 8576
2, 226732, Pitch_bend_c, 1, 8704
2, 226775, Pitch_bend_c, 1, 8832
2, 226818, Pitch_bend_c, 1, 8960
2, 226861, Pitch_bend_c, 1, 9088
2, 226904, Pitch_bend_c, 1, 9216
2, 226947, Pitch_bend_c, 1, 9344
2, 226990, Pitch_bend_c, 1, 9472
2, 227033, Pitch_bend_c, 1, 9600
2, 227040, Pitch_bend_c, 1, 9600
2, 227520, Pitch_bend_c, 1, 9600
2, 227520, Pitch_bend_c, 1, 8192
2, 227520, Note_off_c, 1, 77, 95
2, 227520, Note_on_c, 0, 77, 95
2, 228480, Note_off_c, 0, 77, 95
2, 228480, Note_on_c, 0, 72, 95
2, 229440, Note_off_c, 0, 72, 95
2, 229440, Note_on_c, 0, 72, 95
2, 229920, Note_off_c, 0, 72, 95
2, 229920, Note_on_c, 0, 70, 95
2, 230400, Note_off_c, 0, 70, 95
2, 230880, Pitch_bend_c, 1, 8192
2, 230880, Note_on_c, 1, 77, 95
2, 230885, Pitch_bend_c, 1, 8320
2, 230890, Pitch_bend_c, 1, 8448
2, 230895, Pitch_bend_c, 1, 8576
2, 230900, Pitch_bend_c, 1, 8704
2, 230905, Pitch_bend_c, 1, 8832
2, 230910, Pitch_bend_c, 1, 8960
2, 230915, Pitch_bend_c, 1, 9088
2, 230920, Pitch_bend_c, 1, 9216
2, 230925, Pitch_bend_c, 1, 9344
2, 230930, Pitch_bend_c, 1, 9472
2, 230935, Pitch_bend_c, 1, 9600
2, 230940, Pitch_bend_c, 1, 9600
2, 231000, Pitch_bend_c, 1, 9600
2, 231005, Pitch_bend_c, 1, 9472
2, 231010, Pitch_bend_c, 1, 9344
2, 231015, Pitch_bend_c, 1, 9216
2, 231020, Pitch_bend_c, 1, 9088
2, 231025, Pitch_bend_c, 1, 8960
2, 231030, Pitch_bend_c, 1, 8832
2, 231035, Pitch_bend_c, 1, 8704
2, 231040, Pitch_bend_c, 1, 8576
2, 231045, Pitch_bend_c, 1, 8448
2, 231050, Pitch_bend_c, 1, 8320
2, 231055, Pitch_bend_c, 1, 8192
2, 231060, Pitch_bend_c, 1, 8192
2, 231120, Pitch_bend_c, 1, 8192
2, 231120, Pitch_bend_c, 1, 8192
2, 231120, Note_off_c, 1, 77, 95
2, 231120, Note_on_c, 0, 77, 47
2, 231360, Note_off_c, 0, 77, 47
2, 231360, Note_on_c, 0, 75, 95
2, 231840, Note_off_c, 0, 75, 95
2, 231840, Note_on_c, 0, 72, 95
2, 232320, Note_off_c, 0, 72, 95
2, 232320, Note_on_c, 0, 69, 95
2, 232800, Note_off_c, 0, 69, 95
2, 232800, Note_on_c, 0, 72, 95
2, 233280, Note_off_c, 0, 72, 95
2, 233280, Note_on_c, 0, 75, 95
2, 233760, Note_off_c, 0, 75, 95
2, 233760, Note_on_c, 0, 72, 95
2, 234240, Note_off_c, 0, 72, 95
2, 234240, Note_on_c, 0, 75, 95
2, 234720, Note_off_c, 0, 75, 95
2, 234720, Note_on_c, 0, 76, 95
2, 235200, Note_off_c, 0, 76, 95
2, 235200, Note_on_c, 0, 77, 95
2, 235680, Note_off_c, 0, 77, 95
2, 235680, Note_on_c, 0, 75, 95
2, 236160, Note_off_c, 0, 75, 95
2, 236160, Note_on_c, 0, 76, 95
2, 236640, Note_off_c, 0, 76, 95
2, 236640, Note_on_c, 0, 77, 95
2, 237120, Note_off_c, 0, 77, 95
2, 237120, Pitch_bend_c, 1, 8192
2, 237120, Note_on_c, 1, 77, 95
2, 237130, Pitch_bend_c, 1, 8320
2, 237140, Pitch_bend_c, 1, 8448
2, 237150, Pitch_bend_c, 1, 8576
2, 237160, Pitch_bend_c, 1, 8704
2, 237170, Pitch_bend_c, 1, 8832
2, 237180, Pitch_bend_c, 1, 8960
2, 237190, Pitch_bend_c, 1, 9088
2, 237200, Pitch_bend_c, 1, 9216
2, 237210, Pitch_bend_c, 1, 9344
2, 237220, Pitch_bend_c, 1, 9472
2, 237230, Pitch_bend_c, 1, 9600
2, 237240, Pitch_bend_c, 1, 9600
2, 237360, Pitch_bend_c, 1, 9600
2, 237370, Pitch_bend_c, 1, 9472
2, 237380, Pitch_bend_c, 1, 9344
2, 237390, Pitch_bend_c, 1, 9216
2, 237400, Pitch_bend_c, 1, 9088
2, 237410, Pitch_bend_c, 1, 8960
2, 237420, Pitch_bend_c, 1, 8832
2, 237430, Pitch_bend_c, 1, 8704
2, 237440, Pitch_bend_c, 1, 8576
2, 237450, Pitch_bend_c, 1, 8448
2, 237460, Pitch_bend_c, 1, 8320
2, 237470, Pitch_bend_c, 1, 8192
2, 237480, Pitch_bend_c, 1, 8192
2, 237600, Pitch_bend_c, 1, 8192
2, 237600, Pitch_bend_c, 1, 8192
2, 237600, Note_off_c, 1, 77, 95
2, 237600, Note_on_c, 0, 77, 47
2, 238080, Note_off_c, 0, 77, 47
2, 238080, Note_on_c, 0, 75, 95
2, 238560, Note_off_c, 0, 75, 95
2, 238560, Note_on_c, 0, 77, 95
2, 239040, Note_off_c, 0, 77, 95
2, 239040, Note_on_c, 0, 72, 95
2, 239520, Note_off_c, 0, 72, 95
2, 239520, Note_on_c, 0, 75, 95
2, 240000, Note_off_c, 0, 75, 95
2, 240000, Note_on_c, 0, 72, 95
2, 240480, Note_off_c, 0, 72, 95
2, 240480, Note_on_c, 0, 67, 95
2, 240960, Note_off_c, 0, 67, 95
2, 240960, Note_on_c, 0, 65, 95
2, 241440, Note_off_c, 0, 65, 95
2, 241440, Note_on_c, 0, 63, 95
2, 241920, Note_off_c, 0, 63, 95
2, 241920, Pitch_bend_c, 1, 8192
2, 241920, Note_on_c, 1, 65, 95
2, 241963, Pitch_bend_c, 1, 8320
2, 242006, Pitch_bend_c, 1, 8448
2, 242049, Pitch_bend_c, 1, 8576
2, 242092, Pitch_bend_c, 1, 8704
2, 242135, Pitch_bend_c, 1, 8832
2, 242178, Pitch_bend_c, 1, 8960
2, 242221, Pitch_bend_c, 1, 9088
2, 242264, Pitch_bend_c, 1, 9216
2, 242307, Pitch_bend_c, 1, 9344
2, 242350, Pitch_bend_c, 1, 9472
2, 242393, Pitch_bend_c, 1, 9600
2, 242400, Pitch_bend_c, 1, 9600
2, 242880, Pitch_bend_c, 1, 9600
2, 242880, Pitch_bend_c, 1, 8192
2, 242880, Note_off_c, 1, 65, 95
2, 242880, Note_on_c, 0, 72, 95
2, 243840, Note_off_c, 0, 72, 95
2, 244320, Note_on_c, 0, 65, 95
2, 245280, Note_off_c, 0, 65, 95
2, 245280, Note_on_c, 0, 67, 95
2, 245760, Note_off_c, 0, 67, 95
2, 245760, Pitch_bend_c, 1, 8192
2, 245760, Note_on_c, 1, 65, 95
2, 245781, Pitch_bend_c, 1, 8320
2, 245802, Pitch_bend_c, 1, 8448
2, 245823, Pitch_bend_c, 1, 8576
2, 245844, Pitch_bend_c, 1, 8704
2, 245865, Pitch_bend_c, 1, 8832
2, 245886, Pitch_bend_c, 1, 8960
2, 245907, Pitch_bend_c, 1, 9088
2, 245928, Pitch_bend_c, 1, 9216
2, 245949, Pitch_bend_c, 1, 9344
2, 245970, Pitch_bend_c, 1, 9472
2, 245991, Pitch_bend_c, 1, 9600
2, 246000, Pitch_bend_c, 1, 9600
2, 246240, Pitch_bend_c, 1, 9600
2, 246240, Pitch_bend_c, 1, 8192
2, 246240, Note_off_c, 1, 65, 95
2, 246240, Pitch_bend_c, 1, 8192
2, 246240, Note_on_c, 1, 65, 95
2, 246261, Pitch_bend_c, 1, 8320
2, 246282, Pitch_bend_c, 1, 8448
2, 246303, Pitch_bend_c, 1, 8576
2, 246324, Pitch_bend_c, 1, 8704
2, 246345, Pitch_bend_c, 1, 8832
2, 246366, Pitch_bend_c, 1, 8960
2, 246387, Pitch_bend_c, 1, 9088
2, 246408, Pitch_bend_c, 1, 9216
2, 246429, Pitch_bend_c, 1, 9344
2, 246450, Pitch_bend_c, 1, 9472
2, 246471, Pitch_bend_c, 1, 9600
2, 246480, Pitch_bend_c, 1, 9600
2, 246720, Pitch_bend_c, 1, 9600
2, 246720, Pitch_bend_c, 1, 8192
2, 246720, Note_off_c, 1, 65, 95
2, 246720, Pitch_bend_c, 1, 8192
2, 246720, Note_on_c, 1, 65, 95
2, 246741, Pitch_bend_c, 1, 8320
2, 246762, Pitch_bend_c, 1, 8448
2, 246783, Pitch_bend_c, 1, 8576
2, 246804, Pitch_bend_c, 1, 8704
2, 246825, Pitch_bend_c, 1, 8832
2, 246846, Pitch_bend_c, 1, 8960
2, 246867, Pitch_bend_c, 1, 9088
2, 246888, Pitch_bend_c, 1, 9216
2, 246909, Pitch_bend_c, 1, 9344
2, 246930, Pitch_bend_c, 1, 9472
2, 246951, Pitch_bend_c, 1, 9600
2, 246960, Pitch_bend_c, 1, 9600
2, 247200, Pitch_bend_c, 1, 9600
2, 247200, Pitch_bend_c, 1, 8192
2, 247200, Note_off_c, 1, 65, 95
2, 247200, Pitch_bend_c, 1, 8192
2, 247200, Note_on_c, 1, 65, 95
2, 247221, Pitch_bend_c, 1, 8320
2, 247242, Pitch_bend_c, 1, 8448
2, 247263, Pitch_bend_c, 1, 8576
2, 247284, Pitch_bend_c, 1, 8704
2, 247305, Pitch_bend_c, 1, 8832
2, 247326, Pitch_bend_c, 1, 8960
2, 247347, Pitch_bend_c, 1, 9088
2, 247368, Pitch_bend_c, 1, 9216
2, 247389, Pitch_bend_c, 1, 9344
2, 247410, Pitch_bend_c, 1, 9472
2, 247431, Pitch_bend_c, 1, 9600
2, 247440, Pitch_bend_c, 1, 9600
2, 247680, Pitch_bend_c, 1, 9600
2, 247680, Pitch_bend_c, 1, 8192
2, 247680, Note_off_c, 1, 65, 95
2, 247680, Pitch_bend_c, 1, 8192
2, 247680, Note_on_c, 1, 65, 95
2, 247685, Pitch_bend_c, 1, 8320
2, 247690, Pitch_bend_c, 1, 8448
2, 247695, Pitch_bend_c, 1, 8576
2, 247700, Pitch_bend_c, 1, 8704
2, 247705, Pitch_bend_c, 1, 8832
2, 247710, Pitch_bend_c, 1, 8960
2, 247715, Pitch_bend_c, 1, 9088
2, 247720, Pitch_bend_c, 1, 9216
2, 247725, Pitch_bend_c, 1, 9344
2, 247730, Pitch_bend_c, 1, 9472
2, 247735, Pitch_bend_c, 1, 9600
2, 247740, Pitch_bend_c, 1, 9600
2, 247800, Pitch_bend_c, 1, 9600
2, 247805, Pitch_bend_c, 1, 9472
2, 247810, Pitch_bend_c, 1, 9344
2, 247815, Pitch_bend_c, 1, 9216
2, 247820, Pitch_bend_c, 1, 9088
2, 247825, Pitch_bend_c, 1, 8960
2, 247830, Pitch_bend_c, 1, 8832
2, 247835, Pitch_bend_c, 1, 8704
2, 247840, Pitch_bend_c, 1, 8576
2, 247845, Pitch_bend_c, 1, 8448
2, 247850, Pitch_bend_c, 1, 8320
2, 247855, Pitch_bend_c, 1, 8192
2, 247860, Pitch_bend_c, 1, 8192
2, 247920, Pitch_bend_c, 1, 8192
2, 247920, Pitch_bend_c, 1, 8192
2, 247920, Note_off_c, 1, 65, 95
2, 247920, Note_on_c, 0, 65, 47
2, 248160, Note_off_c, 0, 65, 47
2, 248160, Note_on_c, 0, 63, 70
2, 248640, Note_off_c, 0, 63, 70
2, 248640, Note_on_c, 0, 65, 95
2, 248880, Note_off_c, 0, 65, 95
2, 248880, Note_on_c, 0, 63, 95
2, 249120, Note_off_c, 0, 63, 95
2, 249120, Note_on_c, 0, 60, 95
2, 249600, Note_off_c, 0, 60, 95
2, 249600, Pitch_bend_c, 1, 8192
2, 249600, Note_on_c, 1, 70, 95
2, 249643, Pitch_bend_c, 1, 8320
2, 249686, Pitch_bend_c, 1, 8448
2, 249729, Pitch_bend_c, 1, 8576
2, 249772, Pitch_bend_c, 1, 8704
2, 249815, Pitch_bend_c, 1, 8832
2, 249858, Pitch_bend_c, 1, 8960
2, 249901, Pitch_bend_c, 1, 9088
2, 249944, Pitch_bend_c, 1, 9216
2, 249987, Pitch_bend_c, 1, 9344
2, 250030, Pitch_bend_c, 1, 9472
2, 250073, Pitch_bend_c, 1, 9600
2, 250080, Pitch_bend_c, 1, 9600
2, 250560, Pitch_bend_c, 1, 9600
2, 250560, Pitch_bend_c, 1, 8192
2, 250560, Note_off_c, 1, 70, 95
2, 250560, Pitch_bend_c, 1, 8192
2, 250560, Note_on_c, 1, 70, 95
2, 250603, Pitch_bend_c, 1, 8320
2, 250646, Pitch_bend_c, 1, 8448
2, 250689, Pitch_bend_c, 1, 8576
2, 250732, Pitch_bend_c, 1, 8704
2, 250775, Pitch_bend_c, 1, 8832
2, 250818, Pitch_bend_c, 1, 8960
2, 250861, Pitch_bend_c, 1, 9088
2, 250904, Pitch_bend_c, 1, 9216
2, 250947, Pitch_bend_c, 1, 9344
2, 250990, Pitch_bend_c, 1, 9472
2, 251033, Pitch_bend_c, 1, 9600
2, 251040, Pitch_bend_c, 1, 9600
2, 251520, Pitch_bend_c, 1, 9600
2, 251520, Pitch_bend_c, 1, 8192
2, 251520, Note_off_c, 1, 70, 95
2, 251520, Pitch_bend_c, 1, 8192
2, 251520, Note_on_c, 1, 70, 95
2, 251563, Pitch_bend_c, 1, 8320
2, 251606, Pitch_bend_c, 1, 8448
2, 251649, Pitch_bend_c, 1, 8576
2, 251692, Pitch_bend_c, 1, 8704
2, 251735, Pitch_bend_c, 1, 8832
2, 251778, Pitch_bend_c, 1, 8960
2, 251821, Pitch_bend_c, 1, 9088
2, 251864, Pitch_bend_c, 1, 9216
2, 251907, Pitch_bend_c, 1, 9344
2, 251950, Pitch_bend_c, 1, 9472
2, 251993, Pitch_bend_c, 1, 9600
2, 252000, Pitch_bend_c, 1, 9600
2, 252480, Pitch_bend_c, 1, 9600
2, 252480, Pitch_bend_c, 1, 8192
2, 252480, Note_off_c, 1, 70, 95
2, 252480, Pitch_bend_c, 1, 8192
2, 252480, Note_on_c, 1, 70, 95
2, 252523, Pitch_bend_c, 1, 8320
2, 252566, Pitch_bend_c, 1, 8448
2, 252609, Pitch_bend_c, 1, 8576
2, 252652, Pitch_bend_c, 1, 8704
2, 252695, Pitch_bend_c, 1, 8832
2, 252738, Pitch_bend_c, 1, 8960
2, 252781, Pitch_bend_c, 1, 9088
2, 252824, Pitch_bend_c, 1, 9216
2, 252867, Pitch_bend_c, 1, 9344
2, 252910, Pitch_bend_c, 1, 9472
2, 252953, Pitch_bend_c, 1, 9600
2, 252960, Pitch_bend_c, 1, 9600
2, 253440, Pitch_bend_c, 1, 9600
2, 253440, Pitch_bend_c, 1, 8192
2, 253440, Note_off_c, 1, 70, 95
2, 253440, Pitch_bend_c, 1, 8192
2, 253440, Note_on_c, 1, 70, 95
2, 253450, Pitch_bend_c, 1, 8320
2, 253460, Pitch_bend_c, 1, 8448
2, 253470, Pitch_bend_c, 1, 8576
2, 253480, Pitch_bend_c, 1, 8704
2, 253490, Pitch_bend_c, 1, 8832
2, 253500, Pitch_bend_c, 1, 8960
2, 253510, Pitch_bend_c, 1, 9088
2, 253520, Pitch_bend_c, 1, 9216
2, 253530, Pitch_bend_c, 1, 9344
2, 253540, Pitch_bend_c, 1, 9472
2, 253550, Pitch_bend_c, 1, 9600
2, 253560, Pitch_bend_c, 1, 9600
2, 253680, Pitch_bend_c, 1, 9600
2, 253690, Pitch_bend_c, 1, 9472
2, 253700, Pitch_bend_c, 1, 9344
2, 253710, Pitch_bend_c, 1, 9216
2, 253720, Pitch_bend_c, 1, 9088
2, 253730, Pitch_bend_c, 1, 8960
2, 253740, Pitch_bend_c, 1, 8832
2, 253750, Pitch_bend_c, 1, 8704
2, 253760, Pitch_bend_c, 1, 8576
2, 253770, Pitch_bend_c, 1, 8448
2, 253780, Pitch_bend_c, 1, 8320
2, 253790, Pitch_bend_c, 1, 8192
2, 253800, Pitch_bend_c, 1, 8192
2, 253920, Pitch_bend_c, 1, 8192
2, 253920, Pitch_bend_c, 1, 8192
2, 253920, Note_off_c, 1, 70, 95
2, 253920, Note_on_c, 0, 70, 47
2, 254400, Note_off_c, 0, 70, 47
2, 254400, Note_on_c, 0, 67, 95
2, 254880, Note_off_c, 0, 67, 95
2, 254880, Note_on_c, 0, 64, 95
2, 255360, Note_off_c, 0, 64, 95
2, 255360, Note_on_c, 0, 67, 95
2, 255840, Note_off_c, 0, 67, 95
2, 255840, Pitch_bend_c, 1, 8192
2, 255840, Note_on_c, 1, 63, 95
2, 255960, Pitch_bend_c, 1, 8320
2, 256080, Pitch_bend_c, 1, 8448
2, 256080, Pitch_bend_c, 1, 8448
2, 256320, Pitch_bend_c, 1, 8448
2, 256320, Pitch_bend_c, 1, 8192
2, 256320, Note_off_c, 1, 63, 95
2, 256320, Note_on_c, 0, 60, 95
2, 256800, Note_off_c, 0, 60, 95
2, 256800, Note_on_c, 0, 58, 95
2, 257280, Note_off_c, 0, 58, 95
2, 257280, Note_on_c, 1, 60, 95
2, 257440, Pitch_bend_c, 1, 8192
2, 257600, Pitch_bend_c, 1, 8320
2, 257760, Pitch_bend_c, 1, 8192
2, 257920, Pitch_bend_c, 1, 8320
2, 258080, Pitch_bend_c, 1, 8192
2, 258240, Pitch_bend_c, 1, 8320
2, 258240, Pitch_bend_c, 1, 8192
2, 258240, Note_off_c, 1, 60, 95
2, 258240, Note_on_c, 0, 60, 95
2, 259200, Note_off_c, 0, 60, 95
2, 259200, Note_on_c, 1, 60, 95
2, 259360, Pitch_bend_c, 1, 8192
2, 259520, Pitch_bend_c, 1, 8320
2, 259680, Pitch_bend_c, 1, 8192
2, 259840, Pitch_bend_c, 1, 8320
2, 260000, Pitch_bend_c, 1, 8192
2, 260160, Pitch_bend_c, 1, 8320
2, 260160, Pitch_bend_c, 1, 8192
2, 260160, Note_off_c, 1, 60, 95
2, 260160, Pitch_bend_c, 1, 8192
2, 260160, Note_on_c, 1, 63, 95
2, 260400, Pitch_bend_c, 1, 8320
2, 260640, Pitch_bend_c, 1, 8448
2, 260640, Pitch_bend_c, 1, 8448
2, 261120, Pitch_bend_c, 1, 8448
2, 261120, Pitch_bend_c, 1, 8192
2, 261120, Note_off_c, 1, 63, 95
2, 261600, Pitch_bend_c, 1, 8192
2, 261600, Note_on_c, 1, 65, 95
2, 261610, Pitch_bend_c, 1, 8320
2, 261620, Pitch_bend_c, 1, 8448
2, 261630, Pitch_bend_c, 1, 8576
2, 261640, Pitch_bend_c, 1, 8704
2, 261650, Pitch_bend_c, 1, 8832
2, 261660, Pitch_bend_c, 1, 8960
2, 261670, Pitch_bend_c, 1, 9088
2, 261680, Pitch_bend_c, 1, 9216
2, 261690, Pitch_bend_c, 1, 9344
2, 261700, Pitch_bend_c, 1, 9472
2, 261710, Pitch_bend_c, 1, 9600
2, 261720, Pitch_bend_c, 1, 9600
2, 261840, Pitch_bend_c, 1, 9600
2, 261840, Pitch_bend_c, 1, 8192
2, 261840, Note_off_c, 1, 65, 95
2, 261840, Note_on_c, 0, 70, 95
2, 262080, Note_off_c, 0, 70, 95
2, 262080, Pitch_bend_c, 1, 8192
2, 262080, Note_on_c, 1, 65, 47
2, 262101, Pitch_bend_c, 1, 8320
2, 262122, Pitch_bend_c, 1, 8448
2, 262143, Pitch_bend_c, 1, 8576
2, 262164, Pitch_bend_c, 1, 8704
2, 262185, Pitch_bend_c, 1, 8832
2, 262206, Pitch_bend_c, 1, 8960
2, 262227, Pitch_bend_c, 1, 9088
2, 262248, Pitch_bend_c, 1, 9216
2, 262269, Pitch_bend_c, 1, 9344
2, 262290, Pitch_bend_c, 1, 9472
2, 262311, Pitch_bend_c, 1, 9600
2, 262320, Pitch_bend_c, 1, 9600
2, 262560, Pitch_bend_c, 1, 9600
2, 262560, Pitch_bend_c, 1, 8192
2, 262560, Note_off_c, 1, 65, 47
2, 262560, Note_on_c, 0, 70, 95
2, 263040, Note_off_c, 0, 70, 95
2, 263040, Note_on_c, 0, 65, 47
2, 263520, Note_off_c, 0, 65, 47
2, 263520, Note_on_c, 0, 67, 95
2, 264000, Note_off_c, 0, 67, 95
2, 264000, Note_on_c, 0, 60, 95
2, 264480, Note_off_c, 0, 60, 95
2, 264480, Note_on_c, 0, 58, 95
2, 264960, Note_off_c, 0, 58, 95
2, 264960, Note_on_c, 0, 60, 95
2, 265920, Note_off_c, 0, 60, 95
2, 265920, Note_on_c, 0, 60, 95
2, 266880, Note_off_c, 0, 60, 95
2, 266880, Note_on_c, 0, 60, 95
2, 267840, Note_off_c, 0, 60, 95
2, 267840, Note_on_c, 0, 60, 95
2, 268800, Note_off_c, 0, 60, 95
2, 269280, Pitch_bend_c, 1, 8192
2, 269280, Note_on_c, 1, 77, 95
2, 269301, Pitch_bend_c, 1, 8320
2, 269322, Pitch_bend_c, 1, 8448
2, 269343, Pitch_bend_c, 1, 8576
2, 269364, Pitch_bend_c, 1, 8704
2, 269385, Pitch_bend_c, 1, 8832
2, 269406, Pitch_bend_c, 1, 8960
2, 269427, Pitch_bend_c, 1, 9088
2, 269448, Pitch_bend_c, 1, 9216
2, 269469, Pitch_bend_c, 1, 9344
2, 269490, Pitch_bend_c, 1, 9472
2, 269511, Pitch_bend_c, 1, 9600
2, 269520, Pitch_bend_c, 1, 9600
2, 269760, Pitch_bend_c, 1, 9600
2, 269760, Pitch_bend_c, 1, 8192
2, 269760, Note_off_c, 1, 77, 95
2, 269760, Note_on_c, 0, 77, 47
2, 271680, Note_off_c, 0, 77, 47
2, 271680, Pitch_bend_c, 1, 8192
2, 271680, Note_on_c, 1, 77, 95
2, 271723, Pitch_bend_c, 1, 8320
2, 271766, Pitch_bend_c, 1, 8448
2, 271809, Pitch_bend_c, 1, 8576
2, 271852, Pitch_bend_c, 1, 8704
2, 271895, Pitch_bend_c, 1, 8832
2, 271938, Pitch_bend_c, 1, 8960
2, 271981, Pitch_bend_c, 1, 9088
2, 272024, Pitch_bend_c, 1, 9216
2, 272067, Pitch_bend_c, 1, 9344
2, 272110, Pitch_bend_c, 1, 9472
2, 272153, Pitch_bend_c, 1, 9600
2, 272160, Pitch_bend_c, 1, 9600
2, 272640, Pitch_bend_c, 1, 9600
2, 272640, Pitch_bend_c, 1, 8192
2, 272640, Note_off_c, 1, 77, 95
2, 272640, Note_on_c, 0, 76, 47
2, 273600, Note_off_c, 0, 76, 47
2, 273600, Note_on_c, 0, 72, 95
2, 274080, Note_off_c, 0, 72, 95
2, 274080, Note_on_c, 0, 75, 95
2, 274560, Note_off_c, 0, 75, 95
2, 274560, Note_on_c, 0, 72, 95
2, 275520, Note_off_c, 0, 72, 95
2, 275520, Note_on_c, 0, 72, 95
2, 276000, Note_off_c, 0, 72, 95
2, 276000, Note_on_c, 0, 70, 95
2, 276480, Note_off_c, 0, 70, 95
2, 276480, Note_on_c, 0, 75, 95
2, 276960, Note_off_c, 0, 75, 95
2, 276960, Note_on_c, 0, 72, 95
2, 277440, Note_off_c, 0, 72, 95
2, 277440, Note_on_c, 0, 70, 95
2, 277920, Note_off_c, 0, 70, 95
2, 277920, Pitch_bend_c, 1, 8192
2, 277920, Note_on_c, 1, 75, 95
2, 278040, Pitch_bend_c, 1, 8320
2, 278160, Pitch_bend_c, 1, 8448
2, 278160, Pitch_bend_c, 1, 8448
2, 278400, Pitch_bend_c, 1, 8448
2, 278400, Pitch_bend_c, 1, 8192
2, 278400, Note_off_c, 1, 75, 95
2, 278400, Note_on_c, 0, 72, 95
2, 278880, Note_off_c, 0, 72, 95
2, 278880, Note_on_c, 0, 70, 95
2, 279360, Note_off_c, 0, 70, 95
2, 279360, Note_on_c, 0, 72, 95
2, 279840, Note_off_c, 0, 72, 95
2, 279840, Note_on_c, 0, 72, 95
2, 280320, Note_off_c, 0, 72, 95
2, 280320, Note_on_c, 0, 72, 95
2, 281280, Note_off_c, 0, 72, 95
2, 281280, Note_on_c, 0, 72, 95
2, 281760, Note_off_c, 0, 72, 95
2, 281760, Note_on_c, 0, 70, 95
2, 282240, Note_off_c, 0, 70, 95
2, 282240, Note_on_c, 0, 72, 95
2, 283200, Note_off_c, 0, 72, 95
2, 283200, Note_on_c, 0, 75, 95
2, 283440, Note_off_c, 0, 75, 95
2, 283440, Note_on_c, 0, 72, 95
2, 283680, Note_off_c, 0, 72, 95
2, 284520, Note_on_c, 1, 75, 95
2, 284640, Note_off_c, 1, 75, 95
2, 284640, Note_on_c, 1, 72, 95
2, 285120, Note_off_c, 1, 72, 95
2, 285120, Note_on_c, 0, 75, 95
2, 285360, Note_off_c, 0, 75, 95
2, 285360, Note_on_c, 0, 72, 95
2, 285600, Note_off_c, 0, 72, 95
2, 285600, Note_on_c, 0, 70, 95
2, 285840, Note_off_c, 0, 70, 95
2, 285840, Note_on_c, 0, 72, 95
2, 286080, Note_off_c, 0, 72, 95
2, 286080, Note_on_c, 0, 75, 95
2, 286320, Note_off_c, 0, 75, 95
2, 286320, Note_on_c, 0, 72, 95
2, 286560, Note_off_c, 0, 72, 95
2, 286560, Note_on_c, 0, 70, 95
2, 286800, Note_off_c, 0, 70, 95
2, 286800, Note_on_c, 0, 75, 95
2, 287040, Note_off_c, 0, 75, 95
2, 287040, Note_on_c, 0, 72, 95
2, 287280, Note_off_c, 0, 72, 95
2, 287280, Note_on_c, 0, 75, 95
2, 287520, Note_off_c, 0, 75, 95
2, 287520, Note_on_c, 0, 72, 95
2, 287760, Note_off_c, 0, 72, 95
2, 287760, Note_on_c, 0, 70, 95
2, 288960, Note_off_c, 0, 70, 95
2, 288960, Note_on_c, 0, 72, 95
2, 289920, Note_off_c, 0, 72, 95
2, 289920, Pitch_bend_c, 1, 8192
2, 289920, Note_on_c, 1, 77, 95
2, 289963, Pitch_bend_c, 1, 8320
2, 290006, Pitch_bend_c, 1, 8448
2, 290049, Pitch_bend_c, 1, 8576
2, 290092, Pitch_bend_c, 1, 8704
2, 290135, Pitch_bend_c, 1, 8832
2, 290178, Pitch_bend_c, 1, 8960
2, 290221, Pitch_bend_c, 1, 9088
2, 290264, Pitch_bend_c, 1, 9216
2, 290307, Pitch_bend_c, 1, 9344
2, 290350, Pitch_bend_c, 1, 9472
2, 290393, Pitch_bend_c, 1, 9600
2, 290400, Pitch_bend_c, 1, 9600
2, 290880, Pitch_bend_c, 1, 9600
2, 290880, Pitch_bend_c, 1, 8192
2, 290880, Note_off_c, 1, 77, 95
2, 290880, Pitch_bend_c, 1, 8192
2, 290880, Note_on_c, 1, 77, 95
2, 290901, Pitch_bend_c, 1, 8320
2, 290922, Pitch_bend_c, 1, 8448
2, 290943, Pitch_bend_c, 1, 8576
2, 290964, Pitch_bend_c, 1, 8704
2, 290985, Pitch_bend_c, 1, 8832
2, 291006, Pitch_bend_c, 1, 8960
2, 291027, Pitch_bend_c, 1, 9088
2, 291048, Pitch_bend_c, 1, 9216
2, 291069, Pitch_bend_c, 1, 9344
2, 291090, Pitch_bend_c, 1, 9472
2, 291111, Pitch_bend_c, 1, 9600
2, 291120, Pitch_bend_c, 1, 9600
2, 291360, Pitch_bend_c, 1, 9600
2, 291360, Pitch_bend_c, 1, 8192
2, 291360, Note_off_c, 1, 77, 95
2, 291360, Note_on_c, 0, 77, 95
2, 292320, Note_off_c, 0, 77, 95
2, 292320, Note_on_c, 0, 72, 95
2, 292800, Note_off_c, 0, 72, 95
2, 292800, Note_on_c, 0, 75, 95
2, 293280, Note_off_c, 0, 75, 95
2, 293280, Note_on_c, 0, 70, 95
2, 294240, Note_off_c, 0, 70, 95
2, 294240, Pitch_bend_c, 1, 8192
2, 294240, Note_on_c, 1, 74, 95
2, 294288, Pitch_bend_c, 1, 8320
2, 294336, Pitch_bend_c, 1, 8448
2, 294384, Pitch_bend_c, 1, 8576
2, 294432, Pitch_bend_c, 1, 8704
2, 294480, Pitch_bend_c, 1, 8832
2, 294480, Pitch_bend_c, 1, 8832
2, 294720, Pitch_bend_c, 1, 8832
2, 294720, Pitch_bend_c, 1, 8192
2, 294720, Note_off_c, 1, 74, 95
2, 294720, Note_on_c, 0, 72, 95
2, 294880, Note_off_c, 0, 72, 95
2, 294880, Note_on_c, 0, 74, 95
2, 295040, Note_off_c, 0, 74, 95
2, 295040, Note_on_c, 0, 72, 95
2, 295200, Note_off_c, 0, 72, 95
2, 295200, Note_on_c, 0, 69, 95
2, 295680, Note_off_c, 0, 69, 95
2, 295680, Note_on_c, 1, 72, 95
2, 297600, Note_off_c, 1, 72, 95
2, 298560, Pitch_bend_c, 1, 8192
2, 298560, Note_on_c, 1, 77, 95
2, 298603, Pitch_bend_c, 1, 8320
2, 298646, Pitch_bend_c, 1, 8448
2, 298689, Pitch_bend_c, 1, 8576
2, 298732, Pitch_bend_c, 1, 8704
2, 298775, Pitch_bend_c, 1, 8832
2, 298818, Pitch_bend_c, 1, 8960
2, 298861, Pitch_bend_c, 1, 9088
2, 298904, Pitch_bend_c, 1, 9216
2, 298947, Pitch_bend_c, 1, 9344
2, 298990, Pitch_bend_c, 1, 9472
2, 299033, Pitch_bend_c, 1, 9600
2, 299040, Pitch_bend_c, 1, 9600
2, 299520, Pitch_bend_c, 1, 9600
2, 299520, Pitch_bend_c, 1, 8192
2, 299520, Note_off_c, 1, 77, 95
2, 300000, Note_on_c, 0, 72, 95
2, 300480, Note_off_c, 0, 72, 95
2, 300480, Note_on_c, 0, 75, 95
2, 300960, Note_off_c, 0, 75, 95
2, 300960, Note_on_c, 0, 77, 95
2, 301440, Note_off_c, 0, 77, 95
2, 301440, Note_on_c, 0, 79, 95
2, 301920, Note_off_c, 0, 79, 95
2, 301920, Note_on_c, 0, 72, 95
2, 302400, Note_off_c, 0, 72, 95
2, 302400, Note_on_c, 0, 75, 95
2, 302880, Note_off_c, 0, 75, 95
2, 302880, Pitch_bend_c, 1, 8192
2, 302880, Note_on_c, 1, 77, 95
2, 302901, Pitch_bend_c, 1, 8320
2, 302922, Pitch_bend_c, 1, 8448
2, 302943, Pitch_bend_c, 1, 8576
2, 302964, Pitch_bend_c, 1, 8704
2, 302985, Pitch_bend_c, 1, 8832
2, 303006, Pitch_bend_c, 1, 8960
2, 303027, Pitch_bend_c, 1, 9088
2, 303048, Pitch_bend_c, 1, 9216
2, 303069, Pitch_bend_c, 1, 9344
2, 303090, Pitch_bend_c, 1, 9472
2, 303111, Pitch_bend_c, 1, 9600
2, 303120, Pitch_bend_c, 1, 9600
2, 303360, Pitch_bend_c, 1, 9600
2, 303360, Pitch_bend_c, 1, 8192
2, 303360, Note_off_c, 1, 77, 95
2, 303840, Note_on_c, 0, 75, 95
2, 304320, Note_off_c, 0, 75, 95
2, 304320, Note_on_c, 0, 72, 95
2, 305280, Note_off_c, 0, 72, 95
2, 305280, Note_on_c, 0, 72, 95
2, 306240, Note_off_c, 0, 72, 95
2, 306240, Note_on_c, 0, 70, 95
2, 306720, Note_off_c, 0, 70, 95
2, 306720, Note_on_c, 0, 67, 95
2, 307200, Note_off_c, 0, 67, 95
2, 307200, Note_on_c, 0, 72, 95
2, 307680, Note_off_c, 0, 72, 95
2, 307680, Note_on_c, 0, 70, 95
2, 308160, Note_off_c, 0, 70, 95
2, 308160, Note_on_c, 0, 72, 95
2, 308520, Note_on_c, 1, 66, 95
2, 308640, Note_off_c, 0, 72, 95
2, 308640, Note_off_c, 1, 66, 95
2, 308640, Note_on_c, 1, 65, 95
2, 309600, Note_off_c, 1, 65, 95
2, 309600, Note_on_c, 0, 65, 95
2, 310080, Note_off_c, 0, 65, 95
2, 310080, Note_on_c, 0, 60, 95
2, 310560, Note_off_c, 0, 60, 95
2, 310560, Pitch_bend_c, 1, 8192
2, 310560, Note_on_c, 1, 65, 95
2, 310603, Pitch_bend_c, 1, 8320
2, 310646, Pitch_bend_c, 1, 8448
2, 310689, Pitch_bend_c, 1, 8576
2, 310732, Pitch_bend_c, 1, 8704
2, 310775, Pitch_bend_c, 1, 8832
2, 310818, Pitch_bend_c, 1, 8960
2, 310861, Pitch_bend_c, 1, 9088
2, 310904, Pitch_bend_c, 1, 9216
2, 310947, Pitch_bend_c, 1, 9344
2, 310990, Pitch_bend_c, 1, 9472
2, 311033, Pitch_bend_c, 1, 9600
2, 311040, Pitch_bend_c, 1, 9600
2, 311520, Pitch_bend_c, 1, 9600
2, 311520, Pitch_bend_c, 1, 8192
2, 311520, Note_off_c, 1, 65, 95
2, 311520, Note_on_c, 0, 72, 95
2, 311520, Note_on_c, 0, 67, 95
2, 312000, Note_off_c, 0, 72, 95
2, 312000, Note_off_c, 0, 67, 95
2, 312000, Pitch_bend_c, 1, 8192
2, 312000, Note_on_c, 1, 65, 95
2, 312043, Pitch_bend_c, 1, 8320
2, 312086, Pitch_bend_c, 1, 8448
2, 312129, Pitch_bend_c, 1, 8576
2, 312172, Pitch_bend_c, 1, 8704
2, 312215, Pitch_bend_c, 1, 8832
2, 312258, Pitch_bend_c, 1, 8960
2, 312301, Pitch_bend_c, 1, 9088
2, 312344, Pitch_bend_c, 1, 9216
2, 312387, Pitch_bend_c, 1, 9344
2, 312430, Pitch_bend_c, 1, 9472
2, 312473, Pitch_bend_c, 1, 9600
2, 312480, Pitch_bend_c, 1, 9600
2, 312960, Pitch_bend_c, 1, 9600
2, 312960, Pitch_bend_c, 1, 8192
2, 312960, Note_off_c, 1, 65, 95
2, 312960, Note_on_c, 0, 72, 95
2, 313440, Note_off_c, 0, 72, 95
2, 313440, Pitch_bend_c, 1, 8192
2, 313440, Note_on_c, 1, 65, 95
2, 313483, Pitch_bend_c, 1, 8320
2, 313526, Pitch_bend_c, 1, 8448
2, 313569, Pitch_bend_c, 1, 8576
2, 313612, Pitch_bend_c, 1, 8704
2, 313655, Pitch_bend_c, 1, 8832
2, 313698, Pitch_bend_c, 1, 8960
2, 313741, Pitch_bend_c, 1, 9088
2, 313784, Pitch_bend_c, 1, 9216
2, 313827, Pitch_bend_c, 1, 9344
2, 313870, Pitch_bend_c, 1, 9472
2, 313913, Pitch_bend_c, 1, 9600
2, 313920, Pitch_bend_c, 1, 9600
2, 314400, Pitch_bend_c, 1, 9600
2, 314400, Pitch_bend_c, 1, 8192
2, 314400, Note_off_c, 1, 65, 95
2, 314400, Note_on_c, 0, 72, 95
2, 314400, Note_on_c, 0, 67, 95
2, 314880, Note_off_c, 0, 72, 95
2, 314880, Note_off_c, 0, 67, 95
2, 314880, Pitch_bend_c, 1, 8192
2, 314880, Note_on_c, 1, 65, 95
2, 314901, Pitch_bend_c, 1, 8320
2, 314922, Pitch_bend_c, 1, 8448
2, 314943, Pitch_bend_c, 1, 8576
2, 314964, Pitch_bend_c, 1, 8704
2, 314985, Pitch_bend_c, 1, 8832
2, 315006, Pitch_bend_c, 1, 8960
2, 315027, Pitch_bend_c, 1, 9088
2, 315048, Pitch_bend_c, 1, 9216
2, 315069, Pitch_bend_c, 1, 9344
2, 315090, Pitch_bend_c, 1, 9472
2, 315111, Pitch_bend_c, 1, 9600
2, 315120, Pitch_bend_c, 1, 9600
2, 315360, Pitch_bend_c, 1, 9600
2, 315360, Pitch_bend_c, 1, 8192
2, 315360, Note_off_c, 1, 65, 95
2, 315360, Note_on_c, 0, 67, 95
2, 315840, Note_off_c, 0, 67, 95
2, 315840, Note_on_c, 0, 72, 95
2, 316320, Note_off_c, 0, 72, 95
2, 316320, Note_on_c, 0, 67, 95
2, 316800, Note_off_c, 0, 67, 95
2, 316800, Pitch_bend_c, 1, 8192
2, 316800, Note_on_c, 1, 65, 95
2, 316821, Pitch_bend_c, 1, 8320
2, 316842, Pitch_bend_c, 1, 8448
2, 316863, Pitch_bend_c, 1, 8576
2, 316884, Pitch_bend_c, 1, 8704
2, 316905, Pitch_bend_c, 1, 8832
2, 316926, Pitch_bend_c, 1, 8960
2, 316947, Pitch_bend_c, 1, 9088
2, 316968, Pitch_bend_c, 1, 9216
2, 316989, Pitch_bend_c, 1, 9344
2, 317010, Pitch_bend_c, 1, 9472
2, 317031, Pitch_bend_c, 1, 9600
2, 317040, Pitch_bend_c, 1, 9600
2, 317280, Pitch_bend_c, 1, 9600
2, 317280, Pitch_bend_c, 1, 8192
2, 317280, Note_off_c, 1, 65, 95
2, 317280, Note_on_c, 0, 67, 95
2, 317760, Note_off_c, 0, 67, 95
2, 317760, Note_on_c, 0, 72, 95
2, 318240, Note_off_c, 0, 72, 95
2, 318240, Pitch_bend_c, 1, 8192
2, 318240, Note_on_c, 1, 63, 95
2, 318360, Pitch_bend_c, 1, 8320
2, 318480, Pitch_bend_c, 1, 8448
2, 318480, Pitch_bend_c, 1, 8448
2, 318720, Pitch_bend_c, 1, 8448
2, 318720, Pitch_bend_c, 1, 8192
2, 318720, Note_off_c, 1, 63, 95
2, 318720, Note_on_c, 0, 65, 95
2, 319680, Note_off_c, 0, 65, 95
2, 319680, Note_on_c, 0, 60, 95
2, 320640, Note_off_c, 0, 60, 95
2, 320640, Note_on_c, 0, 60, 95
2, 321600, Note_off_c, 0, 60, 95
2, 321600, Note_on_c, 0, 58, 95
2, 322560, Note_off_c, 0, 58, 95
2, 322560, Pitch_bend_c, 1, 8192
2, 322560, Note_on_c, 1, 70, 95
2, 322570, Pitch_bend_c, 1, 8320
2, 322580, Pitch_bend_c, 1, 8448
2, 322590, Pitch_bend_c, 1, 8576
2, 322600, Pitch_bend_c, 1, 8704
2, 322610, Pitch_bend_c, 1, 8832
2, 322620, Pitch_bend_c, 1, 8960
2, 322630, Pitch_bend_c, 1, 9088
2, 322640, Pitch_bend_c, 1, 9216
2, 322650, Pitch_bend_c, 1, 9344
2, 322660, Pitch_bend_c, 1, 9472
2, 322670, Pitch_bend_c, 1, 9600
2, 322680, Pitch_bend_c, 1, 9600
2, 322800, Pitch_bend_c, 1, 9600
2, 322800, Pitch_bend_c, 1, 8192
2, 322800, Note_off_c, 1, 70, 95
2, 322800, Note_on_c, 0, 72, 95
2, 323280, Note_off_c, 0, 72, 95
2, 323280, Note_on_c, 0, 72, 95
2, 323760, Note_off_c, 0, 72, 95
2, 323760, Note_on_c, 0, 72, 95
2, 324240, Note_off_c, 0, 72, 95
2, 324240, Note_on_c, 0, 72, 95
2, 324720, Note_off_c, 0, 72, 95
2, 324720, Pitch_bend_c, 1, 8192
2, 324720, Note_on_c, 1, 70, 95
2, 324730, Pitch_bend_c, 1, 8320
2, 324740, Pitch_bend_c, 1, 8448
2, 324750, Pitch_bend_c, 1, 8576
2, 324760, Pitch_bend_c, 1, 8704
2, 324770, Pitch_bend_c, 1, 8832
2, 324780, Pitch_bend_c, 1, 8960
2, 324790, Pitch_bend_c, 1, 9088
2, 324800, Pitch_bend_c, 1, 9216
2, 324810, Pitch_bend_c, 1, 9344
2, 324820, Pitch_bend_c, 1, 9472
2, 324830, Pitch_bend_c, 1, 9600
2, 324840, Pitch_bend_c, 1, 9600
2, 324960, Pitch_bend_c, 1, 9600
2, 324960, Pitch_bend_c, 1, 8192
2, 324960, Note_off_c, 1, 70, 95
2, 324960, Note_on_c, 0, 72, 95
2, 325440, Note_off_c, 0, 72, 95
2, 325440, Note_on_c, 0, 72, 95
2, 325920, Note_off_c, 0, 72, 95
2, 325920, Note_on_c, 0, 72, 95
2, 326400, Note_off_c, 0, 72, 95
2, 326400, Note_on_c, 0, 70, 95
2, 326640, Note_off_c, 0, 70, 95
2, 326640, Note_on_c, 0, 72, 95
2, 327120, Note_off_c, 0, 72, 95
2, 327120, Note_on_c, 0, 72, 95
2, 327600, Note_off_c, 0, 72, 95
2, 327600, Note_on_c, 0, 72, 95
2, 328080, Note_off_c, 0, 72, 95
2, 328080, Note_on_c, 0, 72, 95
2, 328560, Note_off_c, 0, 72, 95
2, 328560, Note_on_c, 0, 70, 95
2, 328800, Note_off_c, 0, 70, 95
2, 328800, Note_on_c, 0, 72, 95
2, 329280, Note_off_c, 0, 72, 95
2, 329280, Note_on_c, 0, 72, 95
2, 329760, Note_off_c, 0, 72, 95
2, 329760, Note_on_c, 0, 72, 95
2, 330240, Note_off_c, 0, 72, 95
2, 330240, End_track
0, 0, End_of_file
