0, 0, Header, 1, 5, 960
1, 0, Start_track
1, 0, Control_c, 0, 101, 0
1, 0, Control_c, 0, 100, 0
1, 0, Control_c, 0, 6, 12
1, 0, Control_c, 0, 38, 0
1, 0, Control_c, 1, 101, 0
1, 0, Control_c, 1, 100, 0
1, 0, Control_c, 1, 6, 12
1, 0, Control_c, 1, 38, 0
1, 0, Control_c, 2, 101, 0
1, 0, Control_c, 2, 100, 0
1, 0, Control_c, 2, 6, 12
1, 0, Control_c, 2, 38, 0
1, 0, Control_c, 3, 101, 0
1, 0, Control_c, 3, 100, 0
1, 0, Control_c, 3, 6, 12
1, 0, Control_c, 3, 38, 0
1, 0, Control_c, 4, 101, 0
1, 0, Control_c, 4, 100, 0
1, 0, Control_c, 4, 6, 12
1, 0, Control_c, 4, 38, 0
1, 0, Control_c, 5, 101, 0
1, 0, Control_c, 5, 100, 0
1, 0, Control_c, 5, 6, 12
1, 0, Control_c, 5, 38, 0
1, 0, Control_c, 6, 101, 0
1, 0, Control_c, 6, 100, 0
1, 0, Control_c, 6, 6, 12
1, 0, Control_c, 6, 38, 0
1, 0, Control_c, 7, 101, 0
1, 0, Control_c, 7, 100, 0
1, 0, Control_c, 7, 6, 12
1, 0, Control_c, 7, 38, 0
1, 0, Control_c, 8, 101, 0
1, 0, Control_c, 8, 100, 0
1, 0, Control_c, 8, 6, 12
1, 0, Control_c, 8, 38, 0
1, 0, Control_c, 9, 101, 0
1, 0, Control_c, 9, 100, 0
1, 0, Control_c, 9, 6, 12
1, 0, Control_c, 9, 38, 0
1, 0, Control_c, 10, 101, 0
1, 0, Control_c, 10, 100, 0
1, 0, Control_c, 10, 6, 12
1, 0, Control_c, 10, 38, 0
1, 0, Control_c, 11, 101, 0
1, 0, Control_c, 11, 100, 0
1, 0, Control_c, 11, 6, 12
1, 0, Control_c, 11, 38, 0
1, 0, Control_c, 12, 101, 0
1, 0, Control_c, 12, 100, 0
1, 0, Control_c, 12, 6, 12
1, 0, Control_c, 12, 38, 0
1, 0, Control_c, 13, 101, 0
1, 0, Control_c, 13, 100, 0
1, 0, Control_c, 13, 6, 12
1, 0, Control_c, 13, 38, 0
1, 0, Control_c, 14, 101, 0
1, 0, Control_c, 14, 100, 0
1, 0, Control_c, 14, 6, 12
1, 0, Control_c, 14, 38, 0
1, 0, Control_c, 15, 101, 0
1, 0, Control_c, 15, 100, 0
1, 0, Control_c, 15, 6, 12
1, 0, Control_c, 15, 38, 0
1, 0, Time_signature, 12, 3, 12, 8
1, 0, Tempo, 500000
1, 0, End_track
2, 0, Start_track
2, 0, Pitch_bend_c, 0, 8192
2, 0, Control_c, 0, 7, 63
2, 0, Control_c, 0, 10, 63
2, 0, Control_c, 0, 93, 0
2, 0, Control_c, 0, 91, 127
2, 0, Control_c, 0, 95, 0
2, 0, Control_c, 0, 92, 0
2, 0, Control_c, 0, 11, 127
2, 0, Program_c, 0, 26
2, 0, Control_c, 1, 7, 63
2, 0, Control_c, 1, 10, 63
2, 0, Control_c, 1, 93, 0
2, 0, Control_c, 1, 91, 127
2, 0, Control_c, 1, 95, 0
2, 0, Control_c, 1, 92, 0
2, 0, Control_c, 1, 11, 127
2, 0, Program_c, 1, 26
2, 11520, Note_on_c, 0, 48, 95
2, 12960, Note_off_c, 0, 48, 95
2, 12960, Note_on_c, 1, 48, 95
2, 13080, Pitch_bend_c, 1, 8064
2, 13200, Pitch_bend_c, 1, 7936
2, 13320, Pitch_bend_c, 1, 7680
2, 13440, Pitch_bend_c, 1, 7552
2, 13560, Pitch_bend_c, 1, 7424
2, 13680, Pitch_bend_c, 1, 7168
2, 13800, Pitch_bend_c, 1, 7040
2, 13920, Pitch_bend_c, 1, 6784
2, 14040, Pitch_bend_c, 1, 6656
2, 14160, Pitch_bend_c, 1, 6528
2, 14280, Pitch_bend_c, 1, 6272
2, 14400, Pitch_bend_c, 1, 6144
2, 14400, Pitch_bend_c, 1, 8192
2, 14400, Note_off_c, 1, 48, 95
2, 14400, Note_on_c, 0, 45, 95
2, 15840, Note_off_c, 0, 45, 95
2, 15840, Note_on_c, 1, 52, 95
2, 15960, Pitch_bend_c, 1, 8064
2, 16080, Pitch_bend_c, 1, 7808
2, 16200, Pitch_bend_c, 1, 7552
2, 16320, Pitch_bend_c, 1, 7296
2, 16440, Pitch_bend_c, 1, 7040
2, 16560, Pitch_bend_c, 1, 6784
2, 16680, Pitch_bend_c, 1, 6656
2, 16800, Pitch_bend_c, 1, 6400
2, 16920, Pitch_bend_c, 1, 6144
2, 17040, Pitch_bend_c, 1, 5888
2, 17160, Pitch_bend_c, 1, 5632
2, 17280, Pitch_bend_c, 1, 5376
2, 17280, Pitch_bend_c, 1, 8192
2, 17280, Note_off_c, 1, 52, 95
2, 17280, Note_on_c, 0, 48, 95
2, 18720, Note_off_c, 0, 48, 95
2, 18720, Note_on_c, 1, 48, 95
2, 18840, Pitch_bend_c, 1, 8192
2, 18960, Pitch_bend_c, 1, 8320
2, 19080, Pitch_bend_c, 1, 8448
2, 19200, Pitch_bend_c, 1, 8576
2, 19320, Pitch_bend_c, 1, 8704
2, 19440, Pitch_bend_c, 1, 8832
2, 19560, Pitch_bend_c, 1, 8960
2, 19680, Pitch_bend_c, 1, 9088
2, 19800, Pitch_bend_c, 1, 9216
2, 19920, Pitch_bend_c, 1, 9344
2, 20040, Pitch_bend_c, 1, 9472
2, 20160, Pitch_bend_c, 1, 9600
2, 20160, Pitch_bend_c, 1, 8192
2, 20160, Note_off_c, 1, 48, 95
2, 20160, Note_on_c, 0, 50, 95
2, 21600, Note_off_c, 0, 50, 95
2, 21600, Note_on_c, 1, 50, 95
2, 21720, Pitch_bend_c, 1, 8448
2, 21840, Pitch_bend_c, 1, 8704
2, 21960, Pitch_bend_c, 1, 8960
2, 22080, Pitch_bend_c, 1, 9344
2, 22200, Pitch_bend_c, 1, 9600
2, 22320, Pitch_bend_c, 1, 9856
2, 22440, Pitch_bend_c, 1, 10240
2, 22560, Pitch_bend_c, 1, 10496
2, 22680, Pitch_bend_c, 1, 10752
2, 22800, Pitch_bend_c, 1, 11008
2, 22920, Pitch_bend_c, 1, 11392
2, 23040, Pitch_bend_c, 1, 11648
2, 23040, Pitch_bend_c, 1, 8192
2, 23040, Note_off_c, 1, 50, 95
2, 23040, Note_on_c, 0, 55, 95
2, 24480, Note_off_c, 0, 55, 95
2, 24480, Note_on_c, 1, 55, 95
2, 24600, Pitch_bend_c, 1, 8064
2, 24720, Pitch_bend_c, 1, 7936
2, 24840, Pitch_bend_c, 1, 7680
2, 24960, Pitch_bend_c, 1, 7552
2, 25080, Pitch_bend_c, 1, 7424
2, 25200, Pitch_bend_c, 1, 7168
2, 25320, Pitch_bend_c, 1, 7040
2, 25440, Pitch_bend_c, 1, 6784
2, 25560, Pitch_bend_c, 1, 6656
2, 25680, Pitch_bend_c, 1, 6528
2, 25800, Pitch_bend_c, 1, 6272
2, 25920, Pitch_bend_c, 1, 6144
2, 25920, Pitch_bend_c, 1, 8192
2, 25920, Note_off_c, 1, 55, 95
2, 25920, Note_on_c, 0, 52, 95
2, 27360, Note_off_c, 0, 52, 95
2, 27360, Note_on_c, 1, 52, 95
2, 27480, Pitch_bend_c, 1, 8064
2, 27600, Pitch_bend_c, 1, 7808
2, 27720, Pitch_bend_c, 1, 7552
2, 27840, Pitch_bend_c, 1, 7296
2, 27960, Pitch_bend_c, 1, 7040
2, 28080, Pitch_bend_c, 1, 6784
2, 28200, Pitch_bend_c, 1, 6656
2, 28320, Pitch_bend_c, 1, 6400
2, 28440, Pitch_bend_c, 1, 6144
2, 28560, Pitch_bend_c, 1, 5888
2, 28680, Pitch_bend_c, 1, 5632
2, 28800, Pitch_bend_c, 1, 5376
2, 28800, Pitch_bend_c, 1, 8192
2, 28800, Note_off_c, 1, 52, 95
2, 28800, Note_on_c, 0, 48, 95
2, 30240, Note_off_c, 0, 48, 95
2, 30240, Note_on_c, 1, 48, 95
2, 30360, Pitch_bend_c, 1, 8192
2, 30480, Pitch_bend_c, 1, 8320
2, 30600, Pitch_bend_c, 1, 8448
2, 30720, Pitch_bend_c, 1, 8576
2, 30840, Pitch_bend_c, 1, 8704
2, 30960, Pitch_bend_c, 1, 8832
2, 31080, Pitch_bend_c, 1, 8960
2, 31200, Pitch_bend_c, 1, 9088
2, 31320, Pitch_bend_c, 1, 9216
2, 31440, Pitch_bend_c, 1, 9344
2, 31560, Pitch_bend_c, 1, 9472
2, 31680, Pitch_bend_c, 1, 9600
2, 31680, Pitch_bend_c, 1, 8192
2, 31680, Note_off_c, 1, 48, 95
2, 31680, Note_on_c, 0, 50, 95
2, 33120, Note_off_c, 0, 50, 95
2, 33120, Note_on_c, 1, 50, 95
2, 33240, Pitch_bend_c, 1, 8448
2, 33360, Pitch_bend_c, 1, 8704
2, 33480, Pitch_bend_c, 1, 8960
2, 33600, Pitch_bend_c, 1, 9344
2, 33720, Pitch_bend_c, 1, 9600
2, 33840, Pitch_bend_c, 1, 9856
2, 33960, Pitch_bend_c, 1, 10240
2, 34080, Pitch_bend_c, 1, 10496
2, 34200, Pitch_bend_c, 1, 10752
2, 34320, Pitch_bend_c, 1, 11008
2, 34440, Pitch_bend_c, 1, 11392
2, 34560, Pitch_bend_c, 1, 11648
2, 34560, Pitch_bend_c, 1, 8192
2, 34560, Note_off_c, 1, 50, 95
2, 34560, Note_on_c, 0, 55, 95
2, 36000, Note_off_c, 0, 55, 95
2, 36000, Note_on_c, 1, 55, 95
2, 36120, Pitch_bend_c, 1, 8064
2, 36240, Pitch_bend_c, 1, 7936
2, 36360, Pitch_bend_c, 1, 7680
2, 36480, Pitch_bend_c, 1, 7552
2, 36600, Pitch_bend_c, 1, 7424
2, 36720, Pitch_bend_c, 1, 7168
2, 36840, Pitch_bend_c, 1, 7040
2, 36960, Pitch_bend_c, 1, 6784
2, 37080, Pitch_bend_c, 1, 6656
2, 37200, Pitch_bend_c, 1, 6528
2, 37320, Pitch_bend_c, 1, 6272
2, 37440, Pitch_bend_c, 1, 6144
2, 37440, Pitch_bend_c, 1, 8192
2, 37440, Note_off_c, 1, 55, 95
2, 37440, Note_on_c, 0, 52, 95
2, 38880, Note_off_c, 0, 52, 95
2, 38880, Note_on_c, 1, 52, 95
2, 39000, Pitch_bend_c, 1, 8064
2, 39120, Pitch_bend_c, 1, 7808
2, 39240, Pitch_bend_c, 1, 7552
2, 39360, Pitch_bend_c, 1, 7296
2, 39480, Pitch_bend_c, 1, 7040
2, 39600, Pitch_bend_c, 1, 6784
2, 39720, Pitch_bend_c, 1, 6656
2, 39840, Pitch_bend_c, 1, 6400
2, 39960, Pitch_bend_c, 1, 6144
2, 40080, Pitch_bend_c, 1, 5888
2, 40200, Pitch_bend_c, 1, 5632
2, 40320, Pitch_bend_c, 1, 5376
2, 40320, Pitch_bend_c, 1, 8192
2, 40320, Note_off_c, 1, 52, 95
2, 40320, Note_on_c, 0, 48, 95
2, 41760, Note_off_c, 0, 48, 95
2, 41760, Note_on_c, 1, 48, 95
2, 41880, Pitch_bend_c, 1, 8192
2, 42000, Pitch_bend_c, 1, 8320
2, 42120, Pitch_bend_c, 1, 8448
2, 42240, Pitch_bend_c, 1, 8576
2, 42360, Pitch_bend_c, 1, 8704
2, 42480, Pitch_bend_c, 1, 8832
2, 42600, Pitch_bend_c, 1, 8960
2, 42720, Pitch_bend_c, 1, 9088
2, 42840, Pitch_bend_c, 1, 9216
2, 42960, Pitch_bend_c, 1, 9344
2, 43080, Pitch_bend_c, 1, 9472
2, 43200, Pitch_bend_c, 1, 9600
2, 43200, Pitch_bend_c, 1, 8192
2, 43200, Note_off_c, 1, 48, 95
2, 43200, Note_on_c, 0, 50, 95
2, 44640, Note_off_c, 0, 50, 95
2, 44640, Note_on_c, 1, 50, 95
2, 44760, Pitch_bend_c, 1, 8448
2, 44880, Pitch_bend_c, 1, 8704
2, 45000, Pitch_bend_c, 1, 8960
2, 45120, Pitch_bend_c, 1, 9344
2, 45240, Pitch_bend_c, 1, 9600
2, 45360, Pitch_bend_c, 1, 9856
2, 45480, Pitch_bend_c, 1, 10240
2, 45600, Pitch_bend_c, 1, 10496
2, 45720, Pitch_bend_c, 1, 10752
2, 45840, Pitch_bend_c, 1, 11008
2, 45960, Pitch_bend_c, 1, 11392
2, 46080, Pitch_bend_c, 1, 11648
2, 46080, Pitch_bend_c, 1, 8192
2, 46080, Note_off_c, 1, 50, 95
2, 46080, Note_on_c, 0, 55, 95
2, 47520, Note_off_c, 0, 55, 95
2, 47520, Note_on_c, 1, 55, 95
2, 47640, Pitch_bend_c, 1, 8064
2, 47760, Pitch_bend_c, 1, 7936
2, 47880, Pitch_bend_c, 1, 7680
2, 48000, Pitch_bend_c, 1, 7552
2, 48120, Pitch_bend_c, 1, 7424
2, 48240, Pitch_bend_c, 1, 7168
2, 48360, Pitch_bend_c, 1, 7040
2, 48480, Pitch_bend_c, 1, 6784
2, 48600, Pitch_bend_c, 1, 6656
2, 48720, Pitch_bend_c, 1, 6528
2, 48840, Pitch_bend_c, 1, 6272
2, 48960, Pitch_bend_c, 1, 6144
2, 48960, Pitch_bend_c, 1, 8192
2, 48960, Note_off_c, 1, 55, 95
2, 48960, Note_on_c, 0, 52, 95
2, 50400, Note_off_c, 0, 52, 95
2, 50400, Note_on_c, 1, 52, 95
2, 50520, Pitch_bend_c, 1, 8064
2, 50640, Pitch_bend_c, 1, 7808
2, 50760, Pitch_bend_c, 1, 7552
2, 50880, Pitch_bend_c, 1, 7296
2, 51000, Pitch_bend_c, 1, 7040
2, 51120, Pitch_bend_c, 1, 6784
2, 51240, Pitch_bend_c, 1, 6656
2, 51360, Pitch_bend_c, 1, 6400
2, 51480, Pitch_bend_c, 1, 6144
2, 51600, Pitch_bend_c, 1, 5888
2, 51720, Pitch_bend_c, 1, 5632
2, 51840, Pitch_bend_c, 1, 5376
2, 51840, Pitch_bend_c, 1, 8192
2, 51840, Note_off_c, 1, 52, 95
2, 51840, Note_on_c, 0, 48, 95
2, 53280, Note_off_c, 0, 48, 95
2, 53280, Note_on_c, 1, 48, 95
2, 53400, Pitch_bend_c, 1, 8192
2, 53520, Pitch_bend_c, 1, 8320
2, 53640, Pitch_bend_c, 1, 8448
2, 53760, Pitch_bend_c, 1, 8576
2, 53880, Pitch_bend_c, 1, 8704
2, 54000, Pitch_bend_c, 1, 8832
2, 54120, Pitch_bend_c, 1, 8960
2, 54240, Pitch_bend_c, 1, 9088
2, 54360, Pitch_bend_c, 1, 9216
2, 54480, Pitch_bend_c, 1, 9344
2, 54600, Pitch_bend_c, 1, 9472
2, 54720, Pitch_bend_c, 1, 9600
2, 54720, Pitch_bend_c, 1, 8192
2, 54720, Note_off_c, 1, 48, 95
2, 54720, Note_on_c, 0, 50, 95
2, 55680, Note_off_c, 0, 50, 95
2, 55680, Note_on_c, 1, 57, 95
2, 55688, Note_on_c, 1, 61, 95
2, 55696, Note_on_c, 1, 64, 95
2, 55704, Note_on_c, 1, 69, 95
2, 55800, Pitch_bend_c, 1, 7936
2, 55800, Pitch_bend_c, 1, 7936
2, 55800, Pitch_bend_c, 1, 7936
2, 55800, Pitch_bend_c, 1, 7936
2, 55920, Pitch_bend_c, 1, 7552
2, 55920, Pitch_bend_c, 1, 7552
2, 55920, Pitch_bend_c, 1, 7552
2, 55920, Pitch_bend_c, 1, 7552
2, 56040, Pitch_bend_c, 1, 7168
2, 56040, Pitch_bend_c, 1, 7168
2, 56040, Pitch_bend_c, 1, 7168
2, 56040, Pitch_bend_c, 1, 7168
2, 56160, Pitch_bend_c, 1, 6784
2, 56160, Pitch_bend_c, 1, 8192
2, 56160, Note_off_c, 1, 69, 95
2, 56160, Pitch_bend_c, 1, 6784
2, 56160, Pitch_bend_c, 1, 8192
2, 56160, Note_off_c, 1, 64, 95
2, 56160, Pitch_bend_c, 1, 6784
2, 56160, Pitch_bend_c, 1, 8192
2, 56160, Note_off_c, 1, 61, 95
2, 56160, Pitch_bend_c, 1, 6784
2, 56160, Pitch_bend_c, 1, 8192
2, 56160, Note_off_c, 1, 57, 95
2, 56160, Note_on_c, 0, 67, 95
2, 56160, Note_on_c, 0, 62, 95
2, 56160, Note_on_c, 0, 59, 95
2, 56160, Note_on_c, 0, 55, 95
2, 57120, Note_off_c, 0, 67, 95
2, 57120, Note_off_c, 0, 62, 95
2, 57120, Note_off_c, 0, 59, 95
2, 57120, Note_off_c, 0, 55, 95
2, 57120, Note_on_c, 0, 67, 95
2, 57120, Note_on_c, 0, 62, 95
2, 57180, Note_off_c, 0, 67, 95
2, 57180, Note_off_c, 0, 62, 95
2, 57600, Note_on_c, 0, 48, 95
2, 59040, Note_off_c, 0, 48, 95
2, 59040, Note_on_c, 1, 48, 95
2, 59160, Pitch_bend_c, 1, 8064
2, 59280, Pitch_bend_c, 1, 7936
2, 59400, Pitch_bend_c, 1, 7680
2, 59520, Pitch_bend_c, 1, 7552
2, 59640, Pitch_bend_c, 1, 7424
2, 59760, Pitch_bend_c, 1, 7168
2, 59880, Pitch_bend_c, 1, 7040
2, 60000, Pitch_bend_c, 1, 6784
2, 60120, Pitch_bend_c, 1, 6656
2, 60240, Pitch_bend_c, 1, 6528
2, 60360, Pitch_bend_c, 1, 6272
2, 60480, Pitch_bend_c, 1, 6144
2, 60480, Pitch_bend_c, 1, 8192
2, 60480, Note_off_c, 1, 48, 95
2, 60480, Note_on_c, 0, 45, 95
2, 61920, Note_off_c, 0, 45, 95
2, 61920, Note_on_c, 1, 52, 95
2, 62040, Pitch_bend_c, 1, 8064
2, 62160, Pitch_bend_c, 1, 7808
2, 62280, Pitch_bend_c, 1, 7552
2, 62400, Pitch_bend_c, 1, 7296
2, 62520, Pitch_bend_c, 1, 7040
2, 62640, Pitch_bend_c, 1, 6784
2, 62760, Pitch_bend_c, 1, 6656
2, 62880, Pitch_bend_c, 1, 6400
2, 63000, Pitch_bend_c, 1, 6144
2, 63120, Pitch_bend_c, 1, 5888
2, 63240, Pitch_bend_c, 1, 5632
2, 63360, Pitch_bend_c, 1, 5376
2, 63360, Pitch_bend_c, 1, 8192
2, 63360, Note_off_c, 1, 52, 95
2, 63360, Note_on_c, 0, 48, 95
2, 64800, Note_off_c, 0, 48, 95
2, 64800, Note_on_c, 1, 48, 95
2, 64920, Pitch_bend_c, 1, 8192
2, 65040, Pitch_bend_c, 1, 8320
2, 65160, Pitch_bend_c, 1, 8448
2, 65280, Pitch_bend_c, 1, 8576
2, 65400, Pitch_bend_c, 1, 8704
2, 65520, Pitch_bend_c, 1, 8832
2, 65640, Pitch_bend_c, 1, 8960
2, 65760, Pitch_bend_c, 1, 9088
2, 65880, Pitch_bend_c, 1, 9216
2, 66000, Pitch_bend_c, 1, 9344
2, 66120, Pitch_bend_c, 1, 9472
2, 66240, Pitch_bend_c, 1, 9600
2, 66240, Pitch_bend_c, 1, 8192
2, 66240, Note_off_c, 1, 48, 95
2, 66240, Note_on_c, 0, 50, 95
2, 67680, Note_off_c, 0, 50, 95
2, 67680, Note_on_c, 1, 50, 95
2, 67800, Pitch_bend_c, 1, 8448
2, 67920, Pitch_bend_c, 1, 8704
2, 68040, Pitch_bend_c, 1, 8960
2, 68160, Pitch_bend_c, 1, 9344
2, 68280, Pitch_bend_c, 1, 9600
2, 68400, Pitch_bend_c, 1, 9856
2, 68520, Pitch_bend_c, 1, 10240
2, 68640, Pitch_bend_c, 1, 10496
2, 68760, Pitch_bend_c, 1, 10752
2, 68880, Pitch_bend_c, 1, 11008
2, 69000, Pitch_bend_c, 1, 11392
2, 69120, Pitch_bend_c, 1, 11648
2, 69120, Pitch_bend_c, 1, 8192
2, 69120, Note_off_c, 1, 50, 95
2, 69120, Note_on_c, 0, 55, 95
2, 70560, Note_off_c, 0, 55, 95
2, 70560, Note_on_c, 1, 55, 95
2, 70680, Pitch_bend_c, 1, 8064
2, 70800, Pitch_bend_c, 1, 7936
2, 70920, Pitch_bend_c, 1, 7680
2, 71040, Pitch_bend_c, 1, 7552
2, 71160, Pitch_bend_c, 1, 7424
2, 71280, Pitch_bend_c, 1, 7168
2, 71400, Pitch_bend_c, 1, 7040
2, 71520, Pitch_bend_c, 1, 6784
2, 71640, Pitch_bend_c, 1, 6656
2, 71760, Pitch_bend_c, 1, 6528
2, 71880, Pitch_bend_c, 1, 6272
2, 72000, Pitch_bend_c, 1, 6144
2, 72000, Pitch_bend_c, 1, 8192
2, 72000, Note_off_c, 1, 55, 95
2, 72000, Note_on_c, 0, 52, 95
2, 73440, Note_off_c, 0, 52, 95
2, 73440, Note_on_c, 1, 52, 95
2, 73560, Pitch_bend_c, 1, 8064
2, 73680, Pitch_bend_c, 1, 7808
2, 73800, Pitch_bend_c, 1, 7552
2, 73920, Pitch_bend_c, 1, 7296
2, 74040, Pitch_bend_c, 1, 7040
2, 74160, Pitch_bend_c, 1, 6784
2, 74280, Pitch_bend_c, 1, 6656
2, 74400, Pitch_bend_c, 1, 6400
2, 74520, Pitch_bend_c, 1, 6144
2, 74640, Pitch_bend_c, 1, 5888
2, 74760, Pitch_bend_c, 1, 5632
2, 74880, Pitch_bend_c, 1, 5376
2, 74880, Pitch_bend_c, 1, 8192
2, 74880, Note_off_c, 1, 52, 95
2, 74880, Note_on_c, 0, 48, 95
2, 76320, Note_off_c, 0, 48, 95
2, 76320, Note_on_c, 1, 48, 95
2, 76440, Pitch_bend_c, 1, 8192
2, 76560, Pitch_bend_c, 1, 8320
2, 76680, Pitch_bend_c, 1, 8448
2, 76800, Pitch_bend_c, 1, 8576
2, 76920, Pitch_bend_c, 1, 8704
2, 77040, Pitch_bend_c, 1, 8832
2, 77160, Pitch_bend_c, 1, 8960
2, 77280, Pitch_bend_c, 1, 9088
2, 77400, Pitch_bend_c, 1, 9216
2, 77520, Pitch_bend_c, 1, 9344
2, 77640, Pitch_bend_c, 1, 9472
2, 77760, Pitch_bend_c, 1, 9600
2, 77760, Pitch_bend_c, 1, 8192
2, 77760, Note_off_c, 1, 48, 95
2, 77760, Note_on_c, 0, 50, 95
2, 79200, Note_off_c, 0, 50, 95
2, 79200, Note_on_c, 1, 50, 95
2, 79320, Pitch_bend_c, 1, 8448
2, 79440, Pitch_bend_c, 1, 8704
2, 79560, Pitch_bend_c, 1, 8960
2, 79680, Pitch_bend_c, 1, 9344
2, 79800, Pitch_bend_c, 1, 9600
2, 79920, Pitch_bend_c, 1, 9856
2, 80040, Pitch_bend_c, 1, 10240
2, 80160, Pitch_bend_c, 1, 10496
2, 80280, Pitch_bend_c, 1, 10752
2, 80400, Pitch_bend_c, 1, 11008
2, 80520, Pitch_bend_c, 1, 11392
2, 80640, Pitch_bend_c, 1, 11648
2, 80640, Pitch_bend_c, 1, 8192
2, 80640, Note_off_c, 1, 50, 95
2, 80640, Note_on_c, 0, 55, 95
2, 82080, Note_off_c, 0, 55, 95
2, 82080, Note_on_c, 1, 55, 95
2, 82200, Pitch_bend_c, 1, 8064
2, 82320, Pitch_bend_c, 1, 7936
2, 82440, Pitch_bend_c, 1, 7680
2, 82560, Pitch_bend_c, 1, 7552
2, 82680, Pitch_bend_c, 1, 7424
2, 82800, Pitch_bend_c, 1, 7168
2, 82920, Pitch_bend_c, 1, 7040
2, 83040, Pitch_bend_c, 1, 6784
2, 83160, Pitch_bend_c, 1, 6656
2, 83280, Pitch_bend_c, 1, 6528
2, 83400, Pitch_bend_c, 1, 6272
2, 83520, Pitch_bend_c, 1, 6144
2, 83520, Pitch_bend_c, 1, 8192
2, 83520, Note_off_c, 1, 55, 95
2, 83520, Note_on_c, 0, 52, 95
2, 84960, Note_off_c, 0, 52, 95
2, 84960, Note_on_c, 1, 52, 95
2, 85080, Pitch_bend_c, 1, 8064
2, 85200, Pitch_bend_c, 1, 7808
2, 85320, Pitch_bend_c, 1, 7552
2, 85440, Pitch_bend_c, 1, 7296
2, 85560, Pitch_bend_c, 1, 7040
2, 85680, Pitch_bend_c, 1, 6784
2, 85800, Pitch_bend_c, 1, 6656
2, 85920, Pitch_bend_c, 1, 6400
2, 86040, Pitch_bend_c, 1, 6144
2, 86160, Pitch_bend_c, 1, 5888
2, 86280, Pitch_bend_c, 1, 5632
2, 86400, Pitch_bend_c, 1, 5376
2, 86400, Pitch_bend_c, 1, 8192
2, 86400, Note_off_c, 1, 52, 95
2, 86400, Note_on_c, 0, 48, 95
2, 87840, Note_off_c, 0, 48, 95
2, 87840, Note_on_c, 1, 48, 95
2, 87960, Pitch_bend_c, 1, 8192
2, 88080, Pitch_bend_c, 1, 8320
2, 88200, Pitch_bend_c, 1, 8448
2, 88320, Pitch_bend_c, 1, 8576
2, 88440, Pitch_bend_c, 1, 8704
2, 88560, Pitch_bend_c, 1, 8832
2, 88680, Pitch_bend_c, 1, 8960
2, 88800, Pitch_bend_c, 1, 9088
2, 88920, Pitch_bend_c, 1, 9216
2, 89040, Pitch_bend_c, 1, 9344
2, 89160, Pitch_bend_c, 1, 9472
2, 89280, Pitch_bend_c, 1, 9600
2, 89280, Pitch_bend_c, 1, 8192
2, 89280, Note_off_c, 1, 48, 95
2, 89280, Note_on_c, 0, 50, 95
2, 90720, Note_off_c, 0, 50, 95
2, 90720, Note_on_c, 1, 50, 95
2, 90840, Pitch_bend_c, 1, 8448
2, 90960, Pitch_bend_c, 1, 8704
2, 91080, Pitch_bend_c, 1, 8960
2, 91200, Pitch_bend_c, 1, 9344
2, 91320, Pitch_bend_c, 1, 9600
2, 91440, Pitch_bend_c, 1, 9856
2, 91560, Pitch_bend_c, 1, 10240
2, 91680, Pitch_bend_c, 1, 10496
2, 91800, Pitch_bend_c, 1, 10752
2, 91920, Pitch_bend_c, 1, 11008
2, 92040, Pitch_bend_c, 1, 11392
2, 92160, Pitch_bend_c, 1, 11648
2, 92160, Pitch_bend_c, 1, 8192
2, 92160, Note_off_c, 1, 50, 95
2, 92160, Note_on_c, 0, 55, 95
2, 93600, Note_off_c, 0, 55, 95
2, 93600, Note_on_c, 1, 55, 95
2, 93720, Pitch_bend_c, 1, 8064
2, 93840, Pitch_bend_c, 1, 7936
2, 93960, Pitch_bend_c, 1, 7680
2, 94080, Pitch_bend_c, 1, 7552
2, 94200, Pitch_bend_c, 1, 7424
2, 94320, Pitch_bend_c, 1, 7168
2, 94440, Pitch_bend_c, 1, 7040
2, 94560, Pitch_bend_c, 1, 6784
2, 94680, Pitch_bend_c, 1, 6656
2, 94800, Pitch_bend_c, 1, 6528
2, 94920, Pitch_bend_c, 1, 6272
2, 95040, Pitch_bend_c, 1, 6144
2, 95040, Pitch_bend_c, 1, 8192
2, 95040, Note_off_c, 1, 55, 95
2, 95040, Note_on_c, 0, 52, 95
2, 96480, Note_off_c, 0, 52, 95
2, 96480, Note_on_c, 1, 52, 95
2, 96600, Pitch_bend_c, 1, 8064
2, 96720, Pitch_bend_c, 1, 7808
2, 96840, Pitch_bend_c, 1, 7552
2, 96960, Pitch_bend_c, 1, 7296
2, 97080, Pitch_bend_c, 1, 7040
2, 97200, Pitch_bend_c, 1, 6784
2, 97320, Pitch_bend_c, 1, 6656
2, 97440, Pitch_bend_c, 1, 6400
2, 97560, Pitch_bend_c, 1, 6144
2, 97680, Pitch_bend_c, 1, 5888
2, 97800, Pitch_bend_c, 1, 5632
2, 97920, Pitch_bend_c, 1, 5376
2, 97920, Pitch_bend_c, 1, 8192
2, 97920, Note_off_c, 1, 52, 95
2, 97920, Note_on_c, 0, 48, 95
2, 99360, Note_off_c, 0, 48, 95
2, 99360, Note_on_c, 1, 48, 95
2, 99480, Pitch_bend_c, 1, 8192
2, 99600, Pitch_bend_c, 1, 8320
2, 99720, Pitch_bend_c, 1, 8448
2, 99840, Pitch_bend_c, 1, 8576
2, 99960, Pitch_bend_c, 1, 8704
2, 100080, Pitch_bend_c, 1, 8832
2, 100200, Pitch_bend_c, 1, 8960
2, 100320, Pitch_bend_c, 1, 9088
2, 100440, Pitch_bend_c, 1, 9216
2, 100560, Pitch_bend_c, 1, 9344
2, 100680, Pitch_bend_c, 1, 9472
2, 100800, Pitch_bend_c, 1, 9600
2, 100800, Pitch_bend_c, 1, 8192
2, 100800, Note_off_c, 1, 48, 95
2, 100800, Note_on_c, 0, 50, 95
2, 102240, Note_off_c, 0, 50, 95
2, 102240, Note_on_c, 1, 69, 47
2, 102240, Note_on_c, 1, 64, 47
2, 102240, Note_on_c, 1, 61, 47
2, 102240, Note_on_c, 1, 57, 47
2, 102360, Pitch_bend_c, 1, 7552
2, 102360, Pitch_bend_c, 1, 7552
2, 102360, Pitch_bend_c, 1, 7552
2, 102360, Pitch_bend_c, 1, 7552
2, 102480, Pitch_bend_c, 1, 6784
2, 102480, Pitch_bend_c, 1, 8192
2, 102480, Note_off_c, 1, 69, 47
2, 102480, Pitch_bend_c, 1, 6784
2, 102480, Pitch_bend_c, 1, 8192
2, 102480, Note_off_c, 1, 64, 47
2, 102480, Pitch_bend_c, 1, 6784
2, 102480, Pitch_bend_c, 1, 8192
2, 102480, Note_off_c, 1, 61, 47
2, 102480, Pitch_bend_c, 1, 6784
2, 102480, Pitch_bend_c, 1, 8192
2, 102480, Note_off_c, 1, 57, 47
2, 102480, Note_on_c, 0, 67, 47
2, 102480, Note_on_c, 0, 62, 47
2, 102480, Note_on_c, 0, 59, 47
2, 102480, Note_on_c, 0, 55, 47
2, 102720, Note_off_c, 0, 67, 47
2, 102720, Note_off_c, 0, 62, 47
2, 102720, Note_off_c, 0, 59, 47
2, 102720, Note_off_c, 0, 55, 47
2, 103200, Note_on_c, 1, 58, 95
2, 103320, Pitch_bend_c, 1, 8448
2, 103440, Pitch_bend_c, 1, 8832
2, 103560, Pitch_bend_c, 1, 9216
2, 103680, Pitch_bend_c, 1, 9600
2, 103680, Pitch_bend_c, 1, 8192
2, 103680, Note_off_c, 1, 58, 95
2, 103680, Note_on_c, 0, 60, 95
2, 103680, Note_on_c, 0, 55, 95
2, 105120, Note_off_c, 0, 60, 95
2, 105120, Note_off_c, 0, 55, 95
2, 105120, Note_on_c, 1, 55, 95
2, 105240, Pitch_bend_c, 1, 8064
2, 105360, Pitch_bend_c, 1, 7936
2, 105480, Pitch_bend_c, 1, 7680
2, 105600, Pitch_bend_c, 1, 7552
2, 105720, Pitch_bend_c, 1, 7424
2, 105840, Pitch_bend_c, 1, 7168
2, 105960, Pitch_bend_c, 1, 7040
2, 106080, Pitch_bend_c, 1, 6784
2, 106200, Pitch_bend_c, 1, 6656
2, 106320, Pitch_bend_c, 1, 6528
2, 106440, Pitch_bend_c, 1, 6272
2, 106560, Pitch_bend_c, 1, 6144
2, 106560, Pitch_bend_c, 1, 8192
2, 106560, Note_off_c, 1, 55, 95
2, 106560, Note_on_c, 0, 52, 95
2, 108000, Note_off_c, 0, 52, 95
2, 108000, Note_on_c, 1, 52, 95
2, 108120, Pitch_bend_c, 1, 8064
2, 108240, Pitch_bend_c, 1, 7808
2, 108360, Pitch_bend_c, 1, 7552
2, 108480, Pitch_bend_c, 1, 7296
2, 108600, Pitch_bend_c, 1, 7040
2, 108720, Pitch_bend_c, 1, 6784
2, 108840, Pitch_bend_c, 1, 6656
2, 108960, Pitch_bend_c, 1, 6400
2, 109080, Pitch_bend_c, 1, 6144
2, 109200, Pitch_bend_c, 1, 5888
2, 109320, Pitch_bend_c, 1, 5632
2, 109440, Pitch_bend_c, 1, 5376
2, 109440, Pitch_bend_c, 1, 8192
2, 109440, Note_off_c, 1, 52, 95
2, 109440, Note_on_c, 0, 48, 95
2, 110880, Note_off_c, 0, 48, 95
2, 110880, Note_on_c, 1, 48, 95
2, 111000, Pitch_bend_c, 1, 8192
2, 111120, Pitch_bend_c, 1, 8320
2, 111240, Pitch_bend_c, 1, 8448
2, 111360, Pitch_bend_c, 1, 8576
2, 111480, Pitch_bend_c, 1, 8704
2, 111600, Pitch_bend_c, 1, 8832
2, 111720, Pitch_bend_c, 1, 8960
2, 111840, Pitch_bend_c, 1, 9088
2, 111960, Pitch_bend_c, 1, 9216
2, 112080, Pitch_bend_c, 1, 9344
2, 112200, Pitch_bend_c, 1, 9472
2, 112320, Pitch_bend_c, 1, 9600
2, 112320, Pitch_bend_c, 1, 8192
2, 112320, Note_off_c, 1, 48, 95
2, 112320, Note_on_c, 0, 50, 95
2, 113760, Note_off_c, 0, 50, 95
2, 113760, Note_on_c, 1, 50, 95
2, 113880, Pitch_bend_c, 1, 8448
2, 114000, Pitch_bend_c, 1, 8704
2, 114120, Pitch_bend_c, 1, 8960
2, 114240, Pitch_bend_c, 1, 9344
2, 114360, Pitch_bend_c, 1, 9600
2, 114480, Pitch_bend_c, 1, 9856
2, 114600, Pitch_bend_c, 1, 10240
2, 114720, Pitch_bend_c, 1, 10496
2, 114840, Pitch_bend_c, 1, 10752
2, 114960, Pitch_bend_c, 1, 11008
2, 115080, Pitch_bend_c, 1, 11392
2, 115200, Pitch_bend_c, 1, 11648
2, 115200, Pitch_bend_c, 1, 8192
2, 115200, Note_off_c, 1, 50, 95
2, 115200, Note_on_c, 0, 55, 95
2, 116640, Note_off_c, 0, 55, 95
2, 116640, Note_on_c, 1, 55, 95
2, 116760, Pitch_bend_c, 1, 8064
2, 116880, Pitch_bend_c, 1, 7936
2, 117000, Pitch_bend_c, 1, 7680
2, 117120, Pitch_bend_c, 1, 7552
2, 117240, Pitch_bend_c, 1, 7424
2, 117360, Pitch_bend_c, 1, 7168
2, 117480, Pitch_bend_c, 1, 7040
2, 117600, Pitch_bend_c, 1, 6784
2, 117720, Pitch_bend_c, 1, 6656
2, 117840, Pitch_bend_c, 1, 6528
2, 117960, Pitch_bend_c, 1, 6272
2, 118080, Pitch_bend_c, 1, 6144
2, 118080, Pitch_bend_c, 1, 8192
2, 118080, Note_off_c, 1, 55, 95
2, 118080, Note_on_c, 0, 52, 95
2, 119520, Note_off_c, 0, 52, 95
2, 119520, Note_on_c, 1, 52, 95
2, 119640, Pitch_bend_c, 1, 8064
2, 119760, Pitch_bend_c, 1, 7808
2, 119880, Pitch_bend_c, 1, 7552
2, 120000, Pitch_bend_c, 1, 7296
2, 120120, Pitch_bend_c, 1, 7040
2, 120240, Pitch_bend_c, 1, 6784
2, 120360, Pitch_bend_c, 1, 6656
2, 120480, Pitch_bend_c, 1, 6400
2, 120600, Pitch_bend_c, 1, 6144
2, 120720, Pitch_bend_c, 1, 5888
2, 120840, Pitch_bend_c, 1, 5632
2, 120960, Pitch_bend_c, 1, 5376
2, 120960, Pitch_bend_c, 1, 8192
2, 120960, Note_off_c, 1, 52, 95
2, 120960, Note_on_c, 0, 48, 95
2, 122400, Note_off_c, 0, 48, 95
2, 122400, Note_on_c, 1, 48, 95
2, 122520, Pitch_bend_c, 1, 8192
2, 122640, Pitch_bend_c, 1, 8320
2, 122760, Pitch_bend_c, 1, 8448
2, 122880, Pitch_bend_c, 1, 8576
2, 123000, Pitch_bend_c, 1, 8704
2, 123120, Pitch_bend_c, 1, 8832
2, 123240, Pitch_bend_c, 1, 8960
2, 123360, Pitch_bend_c, 1, 9088
2, 123480, Pitch_bend_c, 1, 9216
2, 123600, Pitch_bend_c, 1, 9344
2, 123720, Pitch_bend_c, 1, 9472
2, 123840, Pitch_bend_c, 1, 9600
2, 123840, Pitch_bend_c, 1, 8192
2, 123840, Note_off_c, 1, 48, 95
2, 123840, Note_on_c, 0, 50, 95
2, 125280, Note_off_c, 0, 50, 95
2, 125280, Note_on_c, 1, 50, 95
2, 125400, Pitch_bend_c, 1, 8448
2, 125520, Pitch_bend_c, 1, 8704
2, 125640, Pitch_bend_c, 1, 8960
2, 125760, Pitch_bend_c, 1, 9344
2, 125880, Pitch_bend_c, 1, 9600
2, 126000, Pitch_bend_c, 1, 9856
2, 126120, Pitch_bend_c, 1, 10240
2, 126240, Pitch_bend_c, 1, 10496
2, 126360, Pitch_bend_c, 1, 10752
2, 126480, Pitch_bend_c, 1, 11008
2, 126600, Pitch_bend_c, 1, 11392
2, 126720, Pitch_bend_c, 1, 11648
2, 126720, Pitch_bend_c, 1, 8192
2, 126720, Note_off_c, 1, 50, 95
2, 126720, Note_on_c, 0, 55, 95
2, 128160, Note_off_c, 0, 55, 95
2, 128160, Note_on_c, 1, 55, 95
2, 128280, Pitch_bend_c, 1, 8064
2, 128400, Pitch_bend_c, 1, 7936
2, 128520, Pitch_bend_c, 1, 7680
2, 128640, Pitch_bend_c, 1, 7552
2, 128760, Pitch_bend_c, 1, 7424
2, 128880, Pitch_bend_c, 1, 7168
2, 129000, Pitch_bend_c, 1, 7040
2, 129120, Pitch_bend_c, 1, 6784
2, 129240, Pitch_bend_c, 1, 6656
2, 129360, Pitch_bend_c, 1, 6528
2, 129480, Pitch_bend_c, 1, 6272
2, 129600, Pitch_bend_c, 1, 6144
2, 129600, Pitch_bend_c, 1, 8192
2, 129600, Note_off_c, 1, 55, 95
2, 129600, Note_on_c, 0, 52, 95
2, 131040, Note_off_c, 0, 52, 95
2, 131040, Note_on_c, 1, 52, 95
2, 131160, Pitch_bend_c, 1, 8064
2, 131280, Pitch_bend_c, 1, 7808
2, 131400, Pitch_bend_c, 1, 7552
2, 131520, Pitch_bend_c, 1, 7296
2, 131640, Pitch_bend_c, 1, 7040
2, 131760, Pitch_bend_c, 1, 6784
2, 131880, Pitch_bend_c, 1, 6656
2, 132000, Pitch_bend_c, 1, 6400
2, 132120, Pitch_bend_c, 1, 6144
2, 132240, Pitch_bend_c, 1, 5888
2, 132360, Pitch_bend_c, 1, 5632
2, 132480, Pitch_bend_c, 1, 5376
2, 132480, Pitch_bend_c, 1, 8192
2, 132480, Note_off_c, 1, 52, 95
2, 132480, Note_on_c, 0, 48, 95
2, 133920, Note_off_c, 0, 48, 95
2, 133920, Note_on_c, 1, 48, 95
2, 134040, Pitch_bend_c, 1, 8192
2, 134160, Pitch_bend_c, 1, 8320
2, 134280, Pitch_bend_c, 1, 8448
2, 134400, Pitch_bend_c, 1, 8576
2, 134520, Pitch_bend_c, 1, 8704
2, 134640, Pitch_bend_c, 1, 8832
2, 134760, Pitch_bend_c, 1, 8960
2, 134880, Pitch_bend_c, 1, 9088
2, 135000, Pitch_bend_c, 1, 9216
2, 135120, Pitch_bend_c, 1, 9344
2, 135240, Pitch_bend_c, 1, 9472
2, 135360, Pitch_bend_c, 1, 9600
2, 135360, Pitch_bend_c, 1, 8192
2, 135360, Note_off_c, 1, 48, 95
2, 135360, Note_on_c, 0, 50, 95
2, 136800, Note_off_c, 0, 50, 95
2, 136800, Note_on_c, 1, 50, 95
2, 136920, Pitch_bend_c, 1, 8448
2, 137040, Pitch_bend_c, 1, 8704
2, 137160, Pitch_bend_c, 1, 8960
2, 137280, Pitch_bend_c, 1, 9344
2, 137400, Pitch_bend_c, 1, 9600
2, 137520, Pitch_bend_c, 1, 9856
2, 137640, Pitch_bend_c, 1, 10240
2, 137760, Pitch_bend_c, 1, 10496
2, 137880, Pitch_bend_c, 1, 10752
2, 138000, Pitch_bend_c, 1, 11008
2, 138120, Pitch_bend_c, 1, 11392
2, 138240, Pitch_bend_c, 1, 11648
2, 138240, Pitch_bend_c, 1, 8192
2, 138240, Note_off_c, 1, 50, 95
2, 138240, Note_on_c, 0, 55, 95
2, 139680, Note_off_c, 0, 55, 95
2, 139680, Note_on_c, 1, 55, 95
2, 139800, Pitch_bend_c, 1, 8064
2, 139920, Pitch_bend_c, 1, 7936
2, 140040, Pitch_bend_c, 1, 7680
2, 140160, Pitch_bend_c, 1, 7552
2, 140280, Pitch_bend_c, 1, 7424
2, 140400, Pitch_bend_c, 1, 7168
2, 140520, Pitch_bend_c, 1, 7040
2, 140640, Pitch_bend_c, 1, 6784
2, 140760, Pitch_bend_c, 1, 6656
2, 140880, Pitch_bend_c, 1, 6528
2, 141000, Pitch_bend_c, 1, 6272
2, 141120, Pitch_bend_c, 1, 6144
2, 141120, Pitch_bend_c, 1, 8192
2, 141120, Note_off_c, 1, 55, 95
2, 141120, Note_on_c, 0, 52, 95
2, 142560, Note_off_c, 0, 52, 95
2, 142560, Note_on_c, 1, 52, 95
2, 142680, Pitch_bend_c, 1, 8064
2, 142800, Pitch_bend_c, 1, 7808
2, 142920, Pitch_bend_c, 1, 7552
2, 143040, Pitch_bend_c, 1, 7296
2, 143160, Pitch_bend_c, 1, 7040
2, 143280, Pitch_bend_c, 1, 6784
2, 143400, Pitch_bend_c, 1, 6656
2, 143520, Pitch_bend_c, 1, 6400
2, 143640, Pitch_bend_c, 1, 6144
2, 143760, Pitch_bend_c, 1, 5888
2, 143880, Pitch_bend_c, 1, 5632
2, 144000, Pitch_bend_c, 1, 5376
2, 144000, Pitch_bend_c, 1, 8192
2, 144000, Note_off_c, 1, 52, 95
2, 144000, Note_on_c, 0, 48, 95
2, 145440, Note_off_c, 0, 48, 95
2, 145440, Note_on_c, 1, 48, 95
2, 145560, Pitch_bend_c, 1, 8192
2, 145680, Pitch_bend_c, 1, 8320
2, 145800, Pitch_bend_c, 1, 8448
2, 145920, Pitch_bend_c, 1, 8576
2, 146040, Pitch_bend_c, 1, 8704
2, 146160, Pitch_bend_c, 1, 8832
2, 146280, Pitch_bend_c, 1, 8960
2, 146400, Pitch_bend_c, 1, 9088
2, 146520, Pitch_bend_c, 1, 9216
2, 146640, Pitch_bend_c, 1, 9344
2, 146760, Pitch_bend_c, 1, 9472
2, 146880, Pitch_bend_c, 1, 9600
2, 146880, Pitch_bend_c, 1, 8192
2, 146880, Note_off_c, 1, 48, 95
2, 146880, Note_on_c, 0, 50, 95
2, 148320, Note_off_c, 0, 50, 95
2, 148320, Note_on_c, 1, 67, 95
2, 148320, Note_on_c, 1, 62, 95
2, 148320, Note_on_c, 1, 59, 95
2, 148320, Note_on_c, 1, 55, 95
2, 148440, Pitch_bend_c, 1, 8448
2, 148440, Pitch_bend_c, 1, 8448
2, 148440, Pitch_bend_c, 1, 8448
2, 148440, Pitch_bend_c, 1, 8448
2, 148560, Pitch_bend_c, 1, 8704
2, 148560, Pitch_bend_c, 1, 8704
2, 148560, Pitch_bend_c, 1, 8704
2, 148560, Pitch_bend_c, 1, 8704
2, 148680, Pitch_bend_c, 1, 8960
2, 148680, Pitch_bend_c, 1, 8960
2, 148680, Pitch_bend_c, 1, 8960
2, 148680, Pitch_bend_c, 1, 8960
2, 148800, Pitch_bend_c, 1, 9344
2, 148800, Pitch_bend_c, 1, 9344
2, 148800, Pitch_bend_c, 1, 9344
2, 148800, Pitch_bend_c, 1, 9344
2, 148920, Pitch_bend_c, 1, 9600
2, 148920, Pitch_bend_c, 1, 9600
2, 148920, Pitch_bend_c, 1, 9600
2, 148920, Pitch_bend_c, 1, 9600
2, 149040, Pitch_bend_c, 1, 9856
2, 149040, Pitch_bend_c, 1, 9856
2, 149040, Pitch_bend_c, 1, 9856
2, 149040, Pitch_bend_c, 1, 9856
2, 149160, Pitch_bend_c, 1, 10240
2, 149160, Pitch_bend_c, 1, 10240
2, 149160, Pitch_bend_c, 1, 10240
2, 149160, Pitch_bend_c, 1, 10240
2, 149280, Pitch_bend_c, 1, 10496
2, 149280, Pitch_bend_c, 1, 10496
2, 149280, Pitch_bend_c, 1, 10496
2, 149280, Pitch_bend_c, 1, 10496
2, 149400, Pitch_bend_c, 1, 10752
2, 149400, Pitch_bend_c, 1, 10752
2, 149400, Pitch_bend_c, 1, 10752
2, 149400, Pitch_bend_c, 1, 10752
2, 149520, Pitch_bend_c, 1, 11008
2, 149520, Pitch_bend_c, 1, 11008
2, 149520, Pitch_bend_c, 1, 11008
2, 149520, Pitch_bend_c, 1, 11008
2, 149640, Pitch_bend_c, 1, 11392
2, 149640, Pitch_bend_c, 1, 11392
2, 149640, Pitch_bend_c, 1, 11392
2, 149640, Pitch_bend_c, 1, 11392
2, 149760, Pitch_bend_c, 1, 11648
2, 149760, Pitch_bend_c, 1, 8192
2, 149760, Note_off_c, 1, 67, 95
2, 149760, Pitch_bend_c, 1, 11648
2, 149760, Pitch_bend_c, 1, 8192
2, 149760, Note_off_c, 1, 62, 95
2, 149760, Pitch_bend_c, 1, 11648
2, 149760, Pitch_bend_c, 1, 8192
2, 149760, Note_off_c, 1, 59, 95
2, 149760, Pitch_bend_c, 1, 11648
2, 149760, Pitch_bend_c, 1, 8192
2, 149760, Note_off_c, 1, 55, 95
2, 149760, Note_on_c, 0, 72, 47
2, 149760, Note_on_c, 0, 67, 47
2, 149760, Note_on_c, 0, 64, 47
2, 149760, Note_on_c, 0, 60, 47
2, 151200, Note_off_c, 0, 72, 47
2, 151200, Note_off_c, 0, 67, 47
2, 151200, Note_off_c, 0, 64, 47
2, 151200, Note_off_c, 0, 60, 47
2, 151200, Note_on_c, 0, 62, 95
2, 151208, Note_on_c, 0, 66, 95
2, 151216, Note_on_c, 0, 69, 47
2, 151224, Note_on_c, 0, 74, 95
2, 151680, Note_off_c, 0, 74, 95
2, 151680, Note_off_c, 0, 69, 47
2, 151680, Note_off_c, 0, 66, 95
2, 151680, Note_off_c, 0, 62, 95
2, 151680, Note_on_c, 1, 60, 95
2, 151682, Note_on_c, 1, 64, 95
2, 151684, Note_on_c, 1, 67, 47
2, 151686, Note_on_c, 0, 72, 95
2, 151800, Pitch_bend_c, 1, 7168
2, 151800, Pitch_bend_c, 1, 7168
2, 151800, Pitch_bend_c, 1, 7168
2, 151920, Note_off_c, 0, 72, 95
2, 151920, Pitch_bend_c, 1, 6144
2, 151920, Pitch_bend_c, 1, 8192
2, 151920, Note_off_c, 1, 67, 47
2, 151920, Pitch_bend_c, 1, 6144
2, 151920, Pitch_bend_c, 1, 8192
2, 151920, Note_off_c, 1, 64, 95
2, 151920, Pitch_bend_c, 1, 6144
2, 151920, Pitch_bend_c, 1, 8192
2, 151920, Note_off_c, 1, 60, 95
2, 151920, Note_on_c, 0, 64, 47
2, 151920, Note_on_c, 0, 61, 95
2, 151920, Note_on_c, 0, 57, 95
2, 152160, Note_off_c, 0, 64, 47
2, 152160, Note_off_c, 0, 61, 95
2, 152160, Note_off_c, 0, 57, 95
2, 152160, Note_on_c, 0, 57, 95
2, 152175, Note_on_c, 0, 61, 95
2, 152190, Note_on_c, 0, 64, 47
2, 152205, Note_on_c, 0, 69, 95
2, 154080, Note_off_c, 0, 69, 95
2, 154080, Note_off_c, 0, 64, 47
2, 154080, Note_off_c, 0, 61, 95
2, 154080, Note_off_c, 0, 57, 95
2, 154080, Note_on_c, 1, 60, 95
2, 154088, Note_on_c, 1, 64, 95
2, 154096, Note_on_c, 1, 67, 47
2, 154104, Note_on_c, 1, 72, 95
2, 154200, Pitch_bend_c, 1, 7680
2, 154200, Pitch_bend_c, 1, 7680
2, 154200, Pitch_bend_c, 1, 7680
2, 154200, Pitch_bend_c, 1, 7680
2, 154320, Pitch_bend_c, 1, 7168
2, 154320, Pitch_bend_c, 1, 7168
2, 154320, Pitch_bend_c, 1, 7168
2, 154320, Pitch_bend_c, 1, 7168
2, 154440, Pitch_bend_c, 1, 6656
2, 154440, Pitch_bend_c, 1, 6656
2, 154440, Pitch_bend_c, 1, 6656
2, 154440, Pitch_bend_c, 1, 6656
2, 154560, Pitch_bend_c, 1, 6144
2, 154560, Pitch_bend_c, 1, 8192
2, 154560, Note_off_c, 1, 72, 95
2, 154560, Pitch_bend_c, 1, 6144
2, 154560, Pitch_bend_c, 1, 8192
2, 154560, Note_off_c, 1, 67, 47
2, 154560, Pitch_bend_c, 1, 6144
2, 154560, Pitch_bend_c, 1, 8192
2, 154560, Note_off_c, 1, 64, 95
2, 154560, Pitch_bend_c, 1, 6144
2, 154560, Pitch_bend_c, 1, 8192
2, 154560, Note_off_c, 1, 60, 95
2, 154560, Note_on_c, 0, 69, 95
2, 154560, Note_on_c, 0, 64, 47
2, 154560, Note_on_c, 0, 61, 95
2, 154560, Note_on_c, 0, 57, 95
2, 155040, Note_off_c, 0, 69, 95
2, 155040, Note_off_c, 0, 64, 47
2, 155040, Note_off_c, 0, 61, 95
2, 155040, Note_off_c, 0, 57, 95
2, 155040, Note_on_c, 0, 53, 95
2, 155055, Note_on_c, 0, 57, 95
2, 155070, Note_on_c, 0, 60, 47
2, 155085, Note_on_c, 0, 65, 47
2, 156960, Note_off_c, 0, 65, 47
2, 156960, Note_off_c, 0, 60, 47
2, 156960, Note_off_c, 0, 57, 95
2, 156960, Note_off_c, 0, 53, 95
2, 156960, Note_on_c, 1, 55, 95
2, 156968, Note_on_c, 1, 59, 95
2, 156976, Note_on_c, 1, 62, 47
2, 156984, Note_on_c, 1, 67, 95
2, 157080, Pitch_bend_c, 1, 7936
2, 157080, Pitch_bend_c, 1, 7936
2, 157080, Pitch_bend_c, 1, 7936
2, 157080, Pitch_bend_c, 1, 7936
2, 157200, Pitch_bend_c, 1, 7552
2, 157200, Pitch_bend_c, 1, 7552
2, 157200, Pitch_bend_c, 1, 7552
2, 157200, Pitch_bend_c, 1, 7552
2, 157320, Pitch_bend_c, 1, 7168
2, 157320, Pitch_bend_c, 1, 7168
2, 157320, Pitch_bend_c, 1, 7168
2, 157320, Pitch_bend_c, 1, 7168
2, 157440, Pitch_bend_c, 1, 6784
2, 157440, Pitch_bend_c, 1, 8192
2, 157440, Note_off_c, 1, 67, 95
2, 157440, Pitch_bend_c, 1, 6784
2, 157440, Pitch_bend_c, 1, 8192
2, 157440, Note_off_c, 1, 62, 47
2, 157440, Pitch_bend_c, 1, 6784
2, 157440, Pitch_bend_c, 1, 8192
2, 157440, Note_off_c, 1, 59, 95
2, 157440, Pitch_bend_c, 1, 6784
2, 157440, Pitch_bend_c, 1, 8192
2, 157440, Note_off_c, 1, 55, 95
2, 157440, Note_on_c, 0, 65, 95
2, 157440, Note_on_c, 0, 60, 47
2, 157440, Note_on_c, 0, 57, 95
2, 157440, Note_on_c, 0, 53, 95
2, 157920, Note_off_c, 0, 65, 95
2, 157920, Note_off_c, 0, 60, 47
2, 157920, Note_off_c, 0, 57, 95
2, 157920, Note_off_c, 0, 53, 95
2, 157920, Note_on_c, 0, 55, 95
2, 157935, Note_on_c, 0, 59, 95
2, 157950, Note_on_c, 0, 62, 47
2, 157965, Note_on_c, 0, 67, 47
2, 158400, Note_off_c, 0, 67, 47
2, 158400, Note_off_c, 0, 62, 47
2, 158400, Note_off_c, 0, 59, 95
2, 158400, Note_off_c, 0, 55, 95
2, 158400, Note_on_c, 0, 55, 95
2, 158415, Note_on_c, 0, 59, 95
2, 158430, Note_on_c, 0, 62, 47
2, 158445, Note_on_c, 0, 67, 47
2, 159360, Note_off_c, 0, 67, 47
2, 159360, Note_off_c, 0, 62, 47
2, 159360, Note_off_c, 0, 59, 95
2, 159360, Note_off_c, 0, 55, 95
2, 159360, Note_on_c, 1, 57, 95
2, 159368, Note_on_c, 1, 61, 95
2, 159376, Note_on_c, 1, 64, 47
2, 159384, Note_on_c, 1, 69, 95
2, 159480, Pitch_bend_c, 1, 7936
2, 159480, Pitch_bend_c, 1, 7936
2, 159480, Pitch_bend_c, 1, 7936
2, 159480, Pitch_bend_c, 1, 7936
2, 159600, Pitch_bend_c, 1, 7552
2, 159600, Pitch_bend_c, 1, 7552
2, 159600, Pitch_bend_c, 1, 7552
2, 159600, Pitch_bend_c, 1, 7552
2, 159720, Pitch_bend_c, 1, 7168
2, 159720, Pitch_bend_c, 1, 7168
2, 159720, Pitch_bend_c, 1, 7168
2, 159720, Pitch_bend_c, 1, 7168
2, 159840, Pitch_bend_c, 1, 6784
2, 159840, Pitch_bend_c, 1, 8192
2, 159840, Note_off_c, 1, 69, 95
2, 159840, Pitch_bend_c, 1, 6784
2, 159840, Pitch_bend_c, 1, 8192
2, 159840, Note_off_c, 1, 64, 47
2, 159840, Pitch_bend_c, 1, 6784
2, 159840, Pitch_bend_c, 1, 8192
2, 159840, Note_off_c, 1, 61, 95
2, 159840, Pitch_bend_c, 1, 6784
2, 159840, Pitch_bend_c, 1, 8192
2, 159840, Note_off_c, 1, 57, 95
2, 159840, Note_on_c, 0, 67, 95
2, 159840, Note_on_c, 0, 62, 47
2, 159840, Note_on_c, 0, 59, 95
2, 159840, Note_on_c, 0, 55, 95
2, 160320, Note_off_c, 0, 67, 95
2, 160320, Note_off_c, 0, 62, 47
2, 160320, Note_off_c, 0, 59, 95
2, 160320, Note_off_c, 0, 55, 95
2, 160320, Note_on_c, 1, 67, 47
2, 160320, Note_on_c, 1, 62, 95
2, 160320, Note_on_c, 1, 59, 95
2, 160320, Note_on_c, 1, 55, 95
2, 160320, Note_on_c, 1, 50, 95
2, 160440, Pitch_bend_c, 1, 8576
2, 160440, Pitch_bend_c, 1, 8576
2, 160560, Pitch_bend_c, 1, 8960
2, 160560, Pitch_bend_c, 1, 8960
2, 160680, Pitch_bend_c, 1, 9472
2, 160680, Pitch_bend_c, 1, 9472
2, 160800, Pitch_bend_c, 1, 9856
2, 160800, Pitch_bend_c, 1, 9856
2, 160920, Pitch_bend_c, 1, 10368
2, 160920, Pitch_bend_c, 1, 10368
2, 161040, Pitch_bend_c, 1, 10752
2, 161040, Pitch_bend_c, 1, 10752
2, 161160, Pitch_bend_c, 1, 11264
2, 161160, Pitch_bend_c, 1, 11264
2, 161280, Note_off_c, 1, 67, 47
2, 161280, Note_off_c, 1, 62, 95
2, 161280, Note_off_c, 1, 59, 95
2, 161280, Pitch_bend_c, 1, 11648
2, 161280, Pitch_bend_c, 1, 8192
2, 161280, Note_off_c, 1, 55, 95
2, 161280, Pitch_bend_c, 1, 11648
2, 161280, Pitch_bend_c, 1, 8192
2, 161280, Note_off_c, 1, 50, 95
2, 161280, Note_on_c, 0, 60, 95
2, 161280, Note_on_c, 0, 55, 95
2, 162720, Note_off_c, 0, 60, 95
2, 162720, Note_off_c, 0, 55, 95
2, 162720, Note_on_c, 1, 55, 95
2, 162840, Pitch_bend_c, 1, 7680
2, 162960, Pitch_bend_c, 1, 7168
2, 163080, Pitch_bend_c, 1, 6656
2, 163200, Pitch_bend_c, 1, 6144
2, 163200, Pitch_bend_c, 1, 8192
2, 163200, Note_off_c, 1, 55, 95
2, 163200, Note_on_c, 0, 52, 95
2, 163680, Note_off_c, 0, 52, 95
2, 163680, Note_on_c, 0, 52, 95
2, 165600, Note_off_c, 0, 52, 95
2, 165600, Note_on_c, 1, 52, 95
2, 165720, Pitch_bend_c, 1, 7552
2, 165840, Pitch_bend_c, 1, 6784
2, 165960, Pitch_bend_c, 1, 6144
2, 166080, Pitch_bend_c, 1, 5376
2, 166080, Pitch_bend_c, 1, 8192
2, 166080, Note_off_c, 1, 52, 95
2, 166080, Note_on_c, 0, 48, 95
2, 168480, Note_off_c, 0, 48, 95
2, 168480, Note_on_c, 1, 48, 95
2, 168600, Pitch_bend_c, 1, 8320
2, 168720, Pitch_bend_c, 1, 8448
2, 168840, Pitch_bend_c, 1, 8704
2, 168960, Pitch_bend_c, 1, 8832
2, 169080, Pitch_bend_c, 1, 8960
2, 169200, Pitch_bend_c, 1, 9216
2, 169320, Pitch_bend_c, 1, 9344
2, 169440, Pitch_bend_c, 1, 9600
2, 169440, Pitch_bend_c, 1, 8192
2, 169440, Note_off_c, 1, 48, 95
2, 169440, Note_on_c, 0, 50, 95
2, 171360, Note_off_c, 0, 50, 95
2, 171360, Note_on_c, 1, 50, 95
2, 171480, Pitch_bend_c, 1, 8448
2, 171600, Pitch_bend_c, 1, 8832
2, 171720, Pitch_bend_c, 1, 9216
2, 171840, Pitch_bend_c, 1, 9600
2, 171840, Pitch_bend_c, 1, 8192
2, 171840, Note_off_c, 1, 50, 95
2, 171840, Note_on_c, 0, 52, 95
2, 172320, Note_off_c, 0, 52, 95
2, 172320, Note_on_c, 1, 52, 95
2, 172440, Pitch_bend_c, 1, 8704
2, 172560, Pitch_bend_c, 1, 9216
2, 172680, Pitch_bend_c, 1, 9728
2, 172800, Pitch_bend_c, 1, 10240
2, 172800, Pitch_bend_c, 1, 8192
2, 172800, Note_off_c, 1, 52, 95
2, 172800, Note_on_c, 0, 55, 95
2, 174240, Note_off_c, 0, 55, 95
2, 174240, Note_on_c, 1, 55, 95
2, 174360, Pitch_bend_c, 1, 7680
2, 174480, Pitch_bend_c, 1, 7168
2, 174600, Pitch_bend_c, 1, 6656
2, 174720, Pitch_bend_c, 1, 6144
2, 174720, Pitch_bend_c, 1, 8192
2, 174720, Note_off_c, 1, 55, 95
2, 174720, Note_on_c, 0, 52, 95
2, 177120, Note_off_c, 0, 52, 95
2, 177120, Note_on_c, 1, 52, 95
2, 177240, Pitch_bend_c, 1, 7936
2, 177360, Pitch_bend_c, 1, 7552
2, 177480, Pitch_bend_c, 1, 7168
2, 177600, Pitch_bend_c, 1, 6784
2, 177720, Pitch_bend_c, 1, 6528
2, 177840, Pitch_bend_c, 1, 6144
2, 177960, Pitch_bend_c, 1, 5760
2, 178080, Pitch_bend_c, 1, 5376
2, 178080, Pitch_bend_c, 1, 8192
2, 178080, Note_off_c, 1, 52, 95
2, 178080, Note_on_c, 0, 48, 95
2, 180000, Note_off_c, 0, 48, 95
2, 180000, Note_on_c, 1, 48, 95
2, 180120, Pitch_bend_c, 1, 8192
2, 180240, Pitch_bend_c, 1, 8320
2, 180360, Pitch_bend_c, 1, 8448
2, 180480, Pitch_bend_c, 1, 8576
2, 180600, Pitch_bend_c, 1, 8704
2, 180720, Pitch_bend_c, 1, 8832
2, 180840, Pitch_bend_c, 1, 8960
2, 180960, Pitch_bend_c, 1, 9088
2, 181080, Pitch_bend_c, 1, 9216
2, 181200, Pitch_bend_c, 1, 9344
2, 181320, Pitch_bend_c, 1, 9472
2, 181440, Pitch_bend_c, 1, 9600
2, 181440, Pitch_bend_c, 1, 8192
2, 181440, Note_off_c, 1, 48, 95
2, 181440, Note_on_c, 0, 50, 95
2, 182880, Note_off_c, 0, 50, 95
2, 182880, Note_on_c, 1, 50, 95
2, 183000, Pitch_bend_c, 1, 8448
2, 183120, Pitch_bend_c, 1, 8832
2, 183240, Pitch_bend_c, 1, 9216
2, 183360, Pitch_bend_c, 1, 9600
2, 183360, Pitch_bend_c, 1, 8192
2, 183360, Note_off_c, 1, 50, 95
2, 183360, Note_on_c, 0, 52, 95
2, 183840, Note_off_c, 0, 52, 95
2, 183840, Note_on_c, 1, 52, 95
2, 183960, Pitch_bend_c, 1, 8704
2, 184080, Pitch_bend_c, 1, 9216
2, 184200, Pitch_bend_c, 1, 9728
2, 184320, Pitch_bend_c, 1, 10240
2, 184320, Pitch_bend_c, 1, 8192
2, 184320, Note_off_c, 1, 52, 95
2, 184320, Note_on_c, 0, 55, 95
2, 185760, Note_off_c, 0, 55, 95
2, 185760, Note_on_c, 1, 55, 95
2, 185880, Pitch_bend_c, 1, 7680
2, 186000, Pitch_bend_c, 1, 7168
2, 186120, Pitch_bend_c, 1, 6656
2, 186240, Pitch_bend_c, 1, 6144
2, 186240, Pitch_bend_c, 1, 8192
2, 186240, Note_off_c, 1, 55, 95
2, 186240, Note_on_c, 0, 52, 95
2, 188640, Note_off_c, 0, 52, 95
2, 188640, Note_on_c, 1, 52, 95
2, 188760, Pitch_bend_c, 1, 7936
2, 188880, Pitch_bend_c, 1, 7552
2, 189000, Pitch_bend_c, 1, 7168
2, 189120, Pitch_bend_c, 1, 6784
2, 189240, Pitch_bend_c, 1, 6528
2, 189360, Pitch_bend_c, 1, 6144
2, 189480, Pitch_bend_c, 1, 5760
2, 189600, Pitch_bend_c, 1, 5376
2, 189600, Pitch_bend_c, 1, 8192
2, 189600, Note_off_c, 1, 52, 95
2, 189600, Note_on_c, 0, 48, 95
2, 191520, Note_off_c, 0, 48, 95
2, 191520, Note_on_c, 1, 48, 95
2, 191640, Pitch_bend_c, 1, 8320
2, 191760, Pitch_bend_c, 1, 8448
2, 191880, Pitch_bend_c, 1, 8704
2, 192000, Pitch_bend_c, 1, 8832
2, 192120, Pitch_bend_c, 1, 8960
2, 192240, Pitch_bend_c, 1, 9216
2, 192360, Pitch_bend_c, 1, 9344
2, 192480, Pitch_bend_c, 1, 9600
2, 192480, Pitch_bend_c, 1, 8192
2, 192480, Note_off_c, 1, 48, 95
2, 192480, Note_on_c, 0, 50, 95
2, 194400, Note_off_c, 0, 50, 95
2, 194400, Note_on_c, 1, 50, 95
2, 194520, Pitch_bend_c, 1, 8448
2, 194640, Pitch_bend_c, 1, 8704
2, 194760, Pitch_bend_c, 1, 8960
2, 194880, Pitch_bend_c, 1, 9344
2, 195000, Pitch_bend_c, 1, 9600
2, 195120, Pitch_bend_c, 1, 9856
2, 195240, Pitch_bend_c, 1, 10240
2, 195360, Pitch_bend_c, 1, 10496
2, 195480, Pitch_bend_c, 1, 10752
2, 195600, Pitch_bend_c, 1, 11008
2, 195720, Pitch_bend_c, 1, 11392
2, 195840, Pitch_bend_c, 1, 11648
2, 195840, Pitch_bend_c, 1, 8192
2, 195840, Note_off_c, 1, 50, 95
2, 195840, Note_on_c, 0, 55, 95
2, 197280, Note_off_c, 0, 55, 95
2, 197280, Note_on_c, 1, 55, 95
2, 197400, Pitch_bend_c, 1, 7680
2, 197520, Pitch_bend_c, 1, 7168
2, 197640, Pitch_bend_c, 1, 6656
2, 197760, Pitch_bend_c, 1, 6144
2, 197760, Pitch_bend_c, 1, 8192
2, 197760, Note_off_c, 1, 55, 95
2, 197760, Note_on_c, 0, 52, 95
2, 200160, Note_off_c, 0, 52, 95
2, 200160, Note_on_c, 1, 52, 95
2, 200280, Pitch_bend_c, 1, 8064
2, 200400, Pitch_bend_c, 1, 7808
2, 200520, Pitch_bend_c, 1, 7552
2, 200640, Pitch_bend_c, 1, 7296
2, 200760, Pitch_bend_c, 1, 7040
2, 200880, Pitch_bend_c, 1, 6784
2, 201000, Pitch_bend_c, 1, 6656
2, 201120, Pitch_bend_c, 1, 6400
2, 201240, Pitch_bend_c, 1, 6144
2, 201360, Pitch_bend_c, 1, 5888
2, 201480, Pitch_bend_c, 1, 5632
2, 201600, Pitch_bend_c, 1, 5376
2, 201600, Pitch_bend_c, 1, 8192
2, 201600, Note_off_c, 1, 52, 95
2, 201600, Note_on_c, 0, 48, 95
2, 203040, Note_off_c, 0, 48, 95
2, 203040, Note_on_c, 1, 48, 95
2, 203160, Pitch_bend_c, 1, 8192
2, 203280, Pitch_bend_c, 1, 8320
2, 203400, Pitch_bend_c, 1, 8448
2, 203520, Pitch_bend_c, 1, 8576
2, 203640, Pitch_bend_c, 1, 8704
2, 203760, Pitch_bend_c, 1, 8832
2, 203880, Pitch_bend_c, 1, 8960
2, 204000, Pitch_bend_c, 1, 9088
2, 204120, Pitch_bend_c, 1, 9216
2, 204240, Pitch_bend_c, 1, 9344
2, 204360, Pitch_bend_c, 1, 9472
2, 204480, Pitch_bend_c, 1, 9600
2, 204480, Pitch_bend_c, 1, 8192
2, 204480, Note_off_c, 1, 48, 95
2, 204480, Note_on_c, 0, 50, 95
2, 206400, Note_off_c, 0, 50, 95
2, 206880, Note_on_c, 1, 65, 95
2, 207000, Pitch_bend_c, 1, 8448
2, 207120, Pitch_bend_c, 1, 8832
2, 207240, Pitch_bend_c, 1, 9216
2, 207360, Pitch_bend_c, 1, 9600
2, 207360, Pitch_bend_c, 1, 8192
2, 207360, Note_off_c, 1, 65, 95
2, 207360, Note_on_c, 0, 67, 95
2, 213120, Note_off_c, 0, 67, 95
2, 214080, Note_on_c, 0, 65, 95
2, 214560, Note_off_c, 0, 65, 95
2, 214560, Note_on_c, 0, 67, 95
2, 215400, Note_on_c, 1, 67, 95
2, 215520, Note_off_c, 0, 67, 95
2, 215520, Note_off_c, 1, 67, 95
2, 215520, Note_on_c, 1, 69, 95
2, 216000, Note_off_c, 1, 69, 95
2, 216000, Note_on_c, 0, 67, 95
2, 216960, Note_off_c, 0, 67, 95
2, 216960, Note_on_c, 1, 67, 95
2, 217080, Pitch_bend_c, 1, 8064
2, 217200, Pitch_bend_c, 1, 7936
2, 217320, Pitch_bend_c, 1, 7680
2, 217440, Pitch_bend_c, 1, 7552
2, 217560, Pitch_bend_c, 1, 7424
2, 217680, Pitch_bend_c, 1, 7168
2, 217800, Pitch_bend_c, 1, 7040
2, 217920, Pitch_bend_c, 1, 6784
2, 217920, Pitch_bend_c, 1, 8192
2, 217920, Note_off_c, 1, 67, 95
2, 217920, Note_on_c, 0, 65, 95
2, 218400, Note_off_c, 0, 65, 95
2, 218400, Note_on_c, 0, 65, 95
2, 218880, Note_off_c, 0, 65, 95
2, 218880, Note_on_c, 0, 67, 95
2, 224640, Note_off_c, 0, 67, 95
2, 225600, Note_on_c, 0, 65, 95
2, 226080, Note_off_c, 0, 65, 95
2, 226080, Note_on_c, 0, 67, 95
2, 226920, Note_on_c, 1, 67, 95
2, 227040, Note_off_c, 0, 67, 95
2, 227040, Note_off_c, 1, 67, 95
2, 227040, Note_on_c, 1, 69, 95
2, 227520, Note_off_c, 1, 69, 95
2, 227520, Note_on_c, 0, 67, 95
2, 228480, Note_off_c, 0, 67, 95
2, 228480, Note_on_c, 1, 67, 95
2, 228600, Pitch_bend_c, 1, 8064
2, 228720, Pitch_bend_c, 1, 7936
2, 228840, Pitch_bend_c, 1, 7680
2, 228960, Pitch_bend_c, 1, 7552
2, 229080, Pitch_bend_c, 1, 7424
2, 229200, Pitch_bend_c, 1, 7168
2, 229320, Pitch_bend_c, 1, 7040
2, 229440, Pitch_bend_c, 1, 6784
2, 229440, Pitch_bend_c, 1, 8192
2, 229440, Note_off_c, 1, 67, 95
2, 229440, Note_on_c, 0, 65, 95
2, 229920, Note_off_c, 0, 65, 95
2, 229920, Note_on_c, 1, 65, 95
2, 230040, Pitch_bend_c, 1, 8448
2, 230160, Pitch_bend_c, 1, 8832
2, 230280, Pitch_bend_c, 1, 9216
2, 230400, Pitch_bend_c, 1, 9600
2, 230400, Pitch_bend_c, 1, 8192
2, 230400, Note_off_c, 1, 65, 95
2, 230400, Note_on_c, 0, 67, 95
2, 230880, Note_off_c, 0, 67, 95
2, 230880, Note_on_c, 1, 65, 95
2, 231000, Pitch_bend_c, 1, 8064
2, 231120, Pitch_bend_c, 1, 7936
2, 231240, Pitch_bend_c, 1, 7680
2, 231360, Pitch_bend_c, 1, 7552
2, 231360, Pitch_bend_c, 1, 8192
2, 231360, Note_off_c, 1, 65, 95
2, 231360, Note_on_c, 0, 64, 95
2, 232320, Note_off_c, 0, 64, 95
2, 232320, Note_on_c, 0, 65, 95
2, 232800, Note_off_c, 0, 65, 95
2, 232800, Note_on_c, 0, 64, 95
2, 233280, Note_off_c, 0, 64, 95
2, 233280, Note_on_c, 0, 60, 95
2, 236160, Note_off_c, 0, 60, 95
2, 237120, Note_on_c, 0, 60, 95
2, 237600, Note_off_c, 0, 60, 95
2, 237600, Note_on_c, 0, 62, 95
2, 238560, Note_off_c, 0, 62, 95
2, 238560, Note_on_c, 0, 64, 95
2, 239040, Note_off_c, 0, 64, 95
2, 239040, Note_on_c, 0, 65, 95
2, 240000, Note_off_c, 0, 65, 95
2, 240000, Note_on_c, 0, 64, 95
2, 241440, Note_off_c, 0, 64, 95
2, 241440, Note_on_c, 0, 62, 95
2, 241920, Note_off_c, 0, 62, 95
2, 241920, Note_on_c, 0, 64, 95
2, 242400, Note_off_c, 0, 64, 95
2, 242400, Note_on_c, 0, 62, 47
2, 242880, Note_off_c, 0, 62, 47
2, 242880, Note_on_c, 0, 60, 95
2, 246720, Note_off_c, 0, 60, 95
2, 247360, Note_on_c, 0, 60, 95
2, 247680, Note_off_c, 0, 60, 95
2, 247680, Note_on_c, 0, 60, 95
2, 248000, Note_off_c, 0, 60, 95
2, 248000, Note_on_c, 0, 60, 95
2, 248320, Note_off_c, 0, 60, 95
2, 248320, Note_on_c, 1, 62, 95
2, 248480, Pitch_bend_c, 1, 8832
2, 248640, Pitch_bend_c, 1, 9600
2, 248640, Pitch_bend_c, 1, 8192
2, 248640, Note_off_c, 1, 62, 95
2, 248640, Note_on_c, 0, 64, 95
2, 248960, Note_off_c, 0, 64, 95
2, 248960, Note_on_c, 0, 64, 95
2, 249280, Note_off_c, 0, 64, 95
2, 249280, Note_on_c, 0, 62, 47
2, 249600, Note_off_c, 0, 62, 47
2, 249600, Note_on_c, 0, 64, 47
2, 249920, Note_off_c, 0, 64, 47
2, 249920, Note_on_c, 0, 62, 47
2, 250240, Note_off_c, 0, 62, 47
2, 250240, Note_on_c, 1, 62, 95
2, 250368, Pitch_bend_c, 1, 7808
2, 250496, Pitch_bend_c, 1, 7424
2, 250624, Pitch_bend_c, 1, 7040
2, 250752, Pitch_bend_c, 1, 6528
2, 250880, Pitch_bend_c, 1, 6144
2, 250880, Pitch_bend_c, 1, 8192
2, 250880, Note_off_c, 1, 62, 95
2, 250880, Note_on_c, 0, 59, 95
2, 252000, Note_off_c, 0, 59, 95
2, 252000, Note_on_c, 0, 60, 95
2, 252480, Note_off_c, 0, 60, 95
2, 252480, Note_on_c, 0, 64, 95
2, 252960, Note_off_c, 0, 64, 95
2, 252960, Note_on_c, 0, 65, 95
2, 253440, Note_off_c, 0, 65, 95
2, 253440, Note_on_c, 0, 67, 95
2, 255840, Note_off_c, 0, 67, 95
2, 255840, Note_on_c, 1, 69, 95
2, 255960, Pitch_bend_c, 1, 10240
2, 255960, Pitch_bend_c, 1, 8192
2, 255960, Note_off_c, 1, 69, 95
2, 255960, Note_on_c, 1, 72, 95
2, 256080, Pitch_bend_c, 1, 7040
2, 256200, Pitch_bend_c, 1, 5888
2, 256320, Pitch_bend_c, 1, 4736
2, 256320, Pitch_bend_c, 1, 8192
2, 256320, Note_off_c, 1, 72, 95
2, 256320, Note_on_c, 0, 67, 95
2, 259200, Note_off_c, 0, 67, 95
2, 260160, Note_on_c, 0, 65, 95
2, 260640, Note_off_c, 0, 65, 95
2, 260640, Note_on_c, 0, 67, 95
2, 261600, Note_off_c, 0, 67, 95
2, 261600, Note_on_c, 0, 69, 95
2, 262080, Note_off_c, 0, 69, 95
2, 262080, Note_on_c, 0, 67, 95
2, 263040, Note_off_c, 0, 67, 95
2, 263040, Note_on_c, 0, 67, 95
2, 264480, Note_off_c, 0, 67, 95
2, 264480, Note_on_c, 0, 65, 95
2, 264960, Note_off_c, 0, 65, 95
2, 264960, Note_on_c, 0, 67, 95
2, 268800, Note_off_c, 0, 67, 95
2, 268800, Note_on_c, 1, 67, 95
2, 268920, Pitch_bend_c, 1, 8832
2, 269040, Pitch_bend_c, 1, 9600
2, 269040, Pitch_bend_c, 1, 8192
2, 269040, Note_off_c, 1, 67, 95
2, 269040, Note_on_c, 0, 69, 95
2, 269280, Note_off_c, 0, 69, 95
2, 269280, Note_on_c, 1, 67, 95
2, 269400, Pitch_bend_c, 1, 7936
2, 269520, Pitch_bend_c, 1, 7552
2, 269640, Pitch_bend_c, 1, 7168
2, 269760, Pitch_bend_c, 1, 6784
2, 269760, Pitch_bend_c, 1, 8192
2, 269760, Note_off_c, 1, 67, 95
2, 269760, Note_on_c, 0, 65, 95
2, 270240, Note_off_c, 0, 65, 95
2, 270240, Note_on_c, 0, 67, 95
2, 270720, Note_off_c, 0, 67, 95
2, 270720, Note_on_c, 0, 65, 95
2, 271680, Note_off_c, 0, 65, 95
2, 271680, Note_on_c, 0, 64, 95
2, 276000, Note_off_c, 0, 64, 95
2, 276000, Note_on_c, 0, 64, 95
2, 276480, Note_off_c, 0, 64, 95
2, 276480, Note_on_c, 0, 65, 95
2, 276960, Note_off_c, 0, 65, 95
2, 276960, Note_on_c, 0, 67, 95
2, 277440, Note_off_c, 0, 67, 95
2, 277440, Note_on_c, 0, 65, 95
2, 277920, Note_off_c, 0, 65, 95
2, 277920, Note_on_c, 0, 64, 95
2, 278400, Note_off_c, 0, 64, 95
2, 278400, Note_on_c, 0, 65, 95
2, 278880, Note_off_c, 0, 65, 95
2, 278880, Note_on_c, 0, 64, 95
2, 279360, Note_off_c, 0, 64, 95
2, 279360, Note_on_c, 0, 60, 95
2, 282240, Note_off_c, 0, 60, 95
2, 283200, Note_on_c, 0, 60, 95
2, 283680, Note_off_c, 0, 60, 95
2, 283680, Note_on_c, 0, 62, 95
2, 284640, Note_off_c, 0, 62, 95
2, 284640, Note_on_c, 0, 64, 95
2, 285120, Note_off_c, 0, 64, 95
2, 285120, Note_on_c, 0, 65, 95
2, 286080, Note_off_c, 0, 65, 95
2, 286080, Note_on_c, 0, 64, 95
2, 287520, Note_off_c, 0, 64, 95
2, 287520, Note_on_c, 0, 62, 95
2, 288000, Note_off_c, 0, 62, 95
2, 288000, Note_on_c, 0, 64, 95
2, 288480, Note_off_c, 0, 64, 95
2, 288480, Note_on_c, 0, 62, 95
2, 288960, Note_off_c, 0, 62, 95
2, 288960, Note_on_c, 0, 60, 95
2, 291840, Note_off_c, 0, 60, 95
2, 291840, Note_on_c, 0, 60, 95
2, 292080, Note_off_c, 0, 60, 95
2, 292080, Note_on_c, 0, 60, 95
2, 292320, Note_off_c, 0, 60, 95
2, 292320, Note_on_c, 0, 62, 95
2, 292560, Note_off_c, 0, 62, 95
2, 292560, Note_on_c, 1, 62, 95
2, 292680, Pitch_bend_c, 1, 8832
2, 292800, Pitch_bend_c, 1, 9600
2, 292800, Pitch_bend_c, 1, 8192
2, 292800, Note_off_c, 1, 62, 95
2, 292800, Note_on_c, 0, 64, 95
2, 293280, Note_off_c, 0, 64, 95
2, 293280, Note_on_c, 0, 64, 95
2, 293760, Note_off_c, 0, 64, 95
2, 293760, Note_on_c, 1, 64, 95
2, 293880, Pitch_bend_c, 1, 8448
2, 294000, Pitch_bend_c, 1, 8832
2, 294000, Pitch_bend_c, 1, 8192
2, 294000, Note_off_c, 1, 64, 95
2, 294000, Note_on_c, 0, 65, 95
2, 294480, Note_off_c, 0, 65, 95
2, 294480, Note_on_c, 1, 64, 95
2, 294600, Pitch_bend_c, 1, 8448
2, 294720, Pitch_bend_c, 1, 8832
2, 294720, Pitch_bend_c, 1, 8192
2, 294720, Note_off_c, 1, 64, 95
2, 294720, Note_on_c, 1, 65, 95
2, 294840, Pitch_bend_c, 1, 7936
2, 294960, Pitch_bend_c, 1, 7552
2, 294960, Pitch_bend_c, 1, 8192
2, 294960, Note_off_c, 1, 65, 95
2, 294960, Note_on_c, 0, 64, 95
2, 295440, Note_off_c, 0, 64, 95
2, 295440, Note_on_c, 1, 62, 95
2, 295560, Pitch_bend_c, 1, 8832
2, 295680, Pitch_bend_c, 1, 9600
2, 295680, Pitch_bend_c, 1, 8192
2, 295680, Note_off_c, 1, 62, 95
2, 295680, Note_on_c, 1, 64, 95
2, 295800, Pitch_bend_c, 1, 7552
2, 295920, Pitch_bend_c, 1, 6784
2, 295920, Pitch_bend_c, 1, 8192
2, 295920, Note_off_c, 1, 64, 95
2, 295920, Note_on_c, 0, 62, 95
2, 296160, Note_off_c, 0, 62, 95
2, 296160, Note_on_c, 1, 62, 95
2, 296280, Pitch_bend_c, 1, 7680
2, 296400, Pitch_bend_c, 1, 7168
2, 296520, Pitch_bend_c, 1, 6656
2, 296640, Pitch_bend_c, 1, 6144
2, 296640, Pitch_bend_c, 1, 8192
2, 296640, Note_off_c, 1, 62, 95
2, 296640, Note_on_c, 0, 59, 95
2, 298080, Note_off_c, 0, 59, 95
2, 298080, Note_on_c, 0, 60, 95
2, 298560, Note_off_c, 0, 60, 95
2, 298560, Note_on_c, 0, 64, 95
2, 299040, Note_off_c, 0, 64, 95
2, 299040, Note_on_c, 0, 65, 95
2, 299520, Note_off_c, 0, 65, 95
2, 299520, Note_on_c, 0, 67, 95
2, 301920, Note_off_c, 0, 67, 95
2, 301920, Note_on_c, 1, 69, 95
2, 302040, Pitch_bend_c, 1, 10240
2, 302040, Pitch_bend_c, 1, 8192
2, 302040, Note_off_c, 1, 69, 95
2, 302040, Note_on_c, 1, 72, 95
2, 302160, Pitch_bend_c, 1, 7040
2, 302280, Pitch_bend_c, 1, 5888
2, 302400, Pitch_bend_c, 1, 4736
2, 302400, Pitch_bend_c, 1, 8192
2, 302400, Note_off_c, 1, 72, 95
2, 302400, Note_on_c, 0, 67, 95
2, 305280, Note_off_c, 0, 67, 95
2, 306240, Note_on_c, 0, 65, 95
2, 306720, Note_off_c, 0, 65, 95
2, 306720, Note_on_c, 0, 67, 95
2, 307680, Note_off_c, 0, 67, 95
2, 307680, Note_on_c, 0, 69, 95
2, 308160, Note_off_c, 0, 69, 95
2, 308160, Note_on_c, 0, 67, 95
2, 309120, Note_off_c, 0, 67, 95
2, 309120, Note_on_c, 0, 67, 95
2, 310560, Note_off_c, 0, 67, 95
2, 310560, Note_on_c, 0, 65, 95
2, 311040, Note_off_c, 0, 65, 95
2, 311040, Note_on_c, 0, 67, 95
2, 314880, Note_off_c, 0, 67, 95
2, 314880, Note_on_c, 1, 67, 95
2, 315000, Pitch_bend_c, 1, 8832
2, 315120, Pitch_bend_c, 1, 9600
2, 315120, Pitch_bend_c, 1, 8192
2, 315120, Note_off_c, 1, 67, 95
2, 315120, Note_on_c, 0, 69, 95
2, 315360, Note_off_c, 0, 69, 95
2, 315360, Note_on_c, 1, 67, 95
2, 315480, Pitch_bend_c, 1, 7936
2, 315600, Pitch_bend_c, 1, 7552
2, 315720, Pitch_bend_c, 1, 7168
2, 315840, Pitch_bend_c, 1, 6784
2, 315840, Pitch_bend_c, 1, 8192
2, 315840, Note_off_c, 1, 67, 95
2, 315840, Note_on_c, 0, 65, 95
2, 316320, Note_off_c, 0, 65, 95
2, 316320, Note_on_c, 0, 67, 95
2, 316800, Note_off_c, 0, 67, 95
2, 316800, Note_on_c, 0, 65, 95
2, 317760, Note_off_c, 0, 65, 95
2, 317760, Note_on_c, 0, 64, 95
2, 322080, Note_off_c, 0, 64, 95
2, 322080, Note_on_c, 0, 64, 95
2, 322560, Note_off_c, 0, 64, 95
2, 322560, Note_on_c, 0, 65, 95
2, 323040, Note_off_c, 0, 65, 95
2, 323040, Note_on_c, 0, 67, 95
2, 323520, Note_off_c, 0, 67, 95
2, 323520, Note_on_c, 0, 65, 95
2, 324000, Note_off_c, 0, 65, 95
2, 324000, Note_on_c, 0, 64, 95
2, 324480, Note_off_c, 0, 64, 95
2, 324480, Note_on_c, 0, 65, 95
2, 324960, Note_off_c, 0, 65, 95
2, 324960, Note_on_c, 0, 64, 95
2, 325440, Note_off_c, 0, 64, 95
2, 325440, Note_on_c, 0, 60, 95
2, 328320, Note_off_c, 0, 60, 95
2, 329280, Note_on_c, 0, 60, 95
2, 329760, Note_off_c, 0, 60, 95
2, 329760, Note_on_c, 0, 62, 95
2, 330720, Note_off_c, 0, 62, 95
2, 330720, Note_on_c, 0, 64, 95
2, 331200, Note_off_c, 0, 64, 95
2, 331200, Note_on_c, 0, 65, 95
2, 332160, Note_off_c, 0, 65, 95
2, 332160, Note_on_c, 0, 64, 95
2, 333600, Note_off_c, 0, 64, 95
2, 333600, Note_on_c, 0, 62, 95
2, 334080, Note_off_c, 0, 62, 95
2, 334080, Note_on_c, 0, 64, 95
2, 334560, Note_off_c, 0, 64, 95
2, 334560, Note_on_c, 1, 62, 95
2, 334680, Pitch_bend_c, 1, 7936
2, 334800, Pitch_bend_c, 1, 7552
2, 334920, Pitch_bend_c, 1, 7168
2, 335040, Pitch_bend_c, 1, 6784
2, 335040, Pitch_bend_c, 1, 8192
2, 335040, Note_off_c, 1, 62, 95
2, 335040, Note_on_c, 0, 60, 95
2, 336960, Note_off_c, 0, 60, 95
2, 337920, Note_on_c, 0, 60, 95
2, 338160, Note_off_c, 0, 60, 95
2, 338160, Note_on_c, 0, 60, 95
2, 338400, Note_off_c, 0, 60, 95
2, 338400, Note_on_c, 0, 62, 95
2, 338640, Note_off_c, 0, 62, 95
2, 338640, Note_on_c, 1, 62, 95
2, 338760, Pitch_bend_c, 1, 8832
2, 338880, Pitch_bend_c, 1, 9600
2, 338880, Pitch_bend_c, 1, 8192
2, 338880, Note_off_c, 1, 62, 95
2, 338880, Note_on_c, 0, 64, 95
2, 339360, Note_off_c, 0, 64, 95
2, 339360, Note_on_c, 0, 64, 95
2, 339840, Note_off_c, 0, 64, 95
2, 339840, Note_on_c, 0, 64, 95
2, 340080, Note_off_c, 0, 64, 95
2, 340080, Note_on_c, 0, 65, 95
2, 340320, Note_off_c, 0, 65, 95
2, 340320, Note_on_c, 0, 64, 95
2, 340560, Note_off_c, 0, 64, 95
2, 340560, Note_on_c, 0, 62, 95
2, 341280, Note_off_c, 0, 62, 95
2, 341280, Note_on_c, 1, 60, 95
2, 341400, Pitch_bend_c, 1, 8832
2, 341520, Pitch_bend_c, 1, 9600
2, 341520, Pitch_bend_c, 1, 8192
2, 341520, Note_off_c, 1, 60, 95
2, 341520, Note_on_c, 1, 62, 95
2, 341640, Pitch_bend_c, 1, 7552
2, 341760, Pitch_bend_c, 1, 6784
2, 341760, Pitch_bend_c, 1, 8192
2, 341760, Note_off_c, 1, 62, 95
2, 341760, Note_on_c, 0, 60, 95
2, 342000, Note_off_c, 0, 60, 95
2, 342000, Note_on_c, 1, 60, 95
2, 342120, Pitch_bend_c, 1, 7936
2, 342240, Pitch_bend_c, 1, 7552
2, 342240, Pitch_bend_c, 1, 8192
2, 342240, Note_off_c, 1, 60, 95
2, 342240, Note_on_c, 0, 59, 95
2, 343200, Note_off_c, 0, 59, 95
2, 343200, Note_on_c, 1, 59, 95
2, 343320, Pitch_bend_c, 1, 8320
2, 343440, Pitch_bend_c, 1, 8448
2, 343560, Pitch_bend_c, 1, 8704
2, 343680, Pitch_bend_c, 1, 8832
2, 343680, Pitch_bend_c, 1, 8192
2, 343680, Note_off_c, 1, 59, 95
2, 343680, Note_on_c, 0, 60, 95
2, 344640, Note_off_c, 0, 60, 95
2, 344640, Note_on_c, 0, 59, 95
2, 345120, Note_off_c, 0, 59, 95
2, 345120, Note_on_c, 1, 60, 95
2, 345240, Pitch_bend_c, 1, 9728
2, 345360, Pitch_bend_c, 1, 11264
2, 345480, Pitch_bend_c, 1, 12928
2, 345600, Pitch_bend_c, 1, 14464
2, 345600, Pitch_bend_c, 1, 8192
2, 345600, Note_off_c, 1, 60, 95
2, 345600, Note_on_c, 0, 69, 95
2, 348000, Note_off_c, 0, 69, 95
2, 348000, Note_on_c, 0, 69, 95
2, 348240, Note_off_c, 0, 69, 95
2, 348240, Note_on_c, 0, 69, 95
2, 348480, Note_off_c, 0, 69, 95
2, 348480, Note_on_c, 0, 69, 95
2, 348720, Note_off_c, 0, 69, 95
2, 348720, Note_on_c, 1, 67, 95
2, 348840, Pitch_bend_c, 1, 7936
2, 348960, Pitch_bend_c, 1, 7552
2, 349080, Pitch_bend_c, 1, 7168
2, 349200, Pitch_bend_c, 1, 6784
2, 349200, Pitch_bend_c, 1, 8192
2, 349200, Note_off_c, 1, 67, 95
2, 349200, Note_on_c, 0, 65, 95
2, 349440, Note_off_c, 0, 65, 95
2, 349440, Note_on_c, 0, 65, 95
2, 349920, Note_off_c, 0, 65, 95
2, 349920, Note_on_c, 0, 67, 95
2, 350160, Note_off_c, 0, 67, 95
2, 350160, Note_on_c, 1, 65, 95
2, 350280, Pitch_bend_c, 1, 8064
2, 350400, Pitch_bend_c, 1, 7936
2, 350520, Pitch_bend_c, 1, 7680
2, 350640, Pitch_bend_c, 1, 7552
2, 350640, Pitch_bend_c, 1, 8192
2, 350640, Note_off_c, 1, 65, 95
2, 350640, Note_on_c, 0, 64, 95
2, 350880, Note_off_c, 0, 64, 95
2, 350880, Note_on_c, 1, 65, 95
2, 351000, Pitch_bend_c, 1, 8064
2, 351120, Pitch_bend_c, 1, 7936
2, 351240, Pitch_bend_c, 1, 7680
2, 351360, Pitch_bend_c, 1, 7552
2, 351360, Pitch_bend_c, 1, 8192
2, 351360, Note_off_c, 1, 65, 95
2, 351360, Note_on_c, 0, 64, 95
2, 351840, Note_off_c, 0, 64, 95
2, 353280, Note_on_c, 0, 64, 47
2, 353600, Note_off_c, 0, 64, 47
2, 353600, Note_on_c, 0, 64, 95
2, 353920, Note_off_c, 0, 64, 95
2, 353920, Note_on_c, 0, 64, 95
2, 354240, Note_off_c, 0, 64, 95
2, 354240, Note_on_c, 0, 65, 95
2, 354560, Note_off_c, 0, 65, 95
2, 354560, Note_on_c, 0, 67, 95
2, 354880, Note_off_c, 0, 67, 95
2, 354880, Note_on_c, 0, 65, 95
2, 355200, Note_off_c, 0, 65, 95
2, 355200, Note_on_c, 1, 64, 95
2, 355360, Pitch_bend_c, 1, 7552
2, 355520, Pitch_bend_c, 1, 6784
2, 355520, Pitch_bend_c, 1, 8192
2, 355520, Note_off_c, 1, 64, 95
2, 355520, Note_on_c, 0, 62, 95
2, 355840, Note_off_c, 0, 62, 95
2, 355840, Pitch_bend_c, 1, 8192
2, 355840, Note_on_c, 1, 62, 95
2, 355906, Pitch_bend_c, 1, 8192
2, 355918, Pitch_bend_c, 1, 8320
2, 355930, Pitch_bend_c, 1, 8448
2, 355942, Pitch_bend_c, 1, 8576
2, 355954, Pitch_bend_c, 1, 8704
2, 355966, Pitch_bend_c, 1, 8832
2, 355978, Pitch_bend_c, 1, 8960
2, 355990, Pitch_bend_c, 1, 9088
2, 356002, Pitch_bend_c, 1, 9216
2, 356014, Pitch_bend_c, 1, 9344
2, 356026, Pitch_bend_c, 1, 9472
2, 356038, Pitch_bend_c, 1, 9600
2, 356040, Pitch_bend_c, 1, 9600
2, 356040, Pitch_bend_c, 1, 9600
2, 356173, Pitch_bend_c, 1, 9600
2, 356197, Pitch_bend_c, 1, 9472
2, 356221, Pitch_bend_c, 1, 9344
2, 356245, Pitch_bend_c, 1, 9216
2, 356269, Pitch_bend_c, 1, 9088
2, 356293, Pitch_bend_c, 1, 8960
2, 356317, Pitch_bend_c, 1, 8832
2, 356341, Pitch_bend_c, 1, 8704
2, 356365, Pitch_bend_c, 1, 8576
2, 356389, Pitch_bend_c, 1, 8448
2, 356413, Pitch_bend_c, 1, 8320
2, 356437, Pitch_bend_c, 1, 8192
2, 356440, Pitch_bend_c, 1, 8192
2, 356640, Pitch_bend_c, 1, 8192
2, 356640, Pitch_bend_c, 1, 8192
2, 356640, Note_off_c, 1, 62, 95
2, 356640, Note_on_c, 0, 60, 47
2, 358560, Note_off_c, 0, 60, 47
2, 358560, Note_on_c, 0, 59, 95
2, 359520, Note_off_c, 0, 59, 95
2, 359520, Note_on_c, 0, 60, 95
2, 362880, Note_off_c, 0, 60, 95
2, 363840, Note_on_c, 0, 48, 95
2, 364080, Note_off_c, 0, 48, 95
2, 364080, Note_on_c, 0, 48, 95
2, 364320, Note_off_c, 0, 48, 95
2, 364320, Note_on_c, 1, 50, 95
2, 364440, Pitch_bend_c, 1, 8448
2, 364560, Pitch_bend_c, 1, 8832
2, 364680, Pitch_bend_c, 1, 9216
2, 364800, Pitch_bend_c, 1, 9600
2, 364800, Pitch_bend_c, 1, 8192
2, 364800, Note_off_c, 1, 50, 95
2, 364800, Note_on_c, 1, 52, 95
2, 364920, Pitch_bend_c, 1, 8320
2, 365040, Pitch_bend_c, 1, 8448
2, 365160, Pitch_bend_c, 1, 8704
2, 365280, Pitch_bend_c, 1, 8832
2, 365280, Pitch_bend_c, 1, 8192
2, 365280, Note_off_c, 1, 52, 95
2, 365280, Note_on_c, 0, 53, 95
2, 365760, Note_off_c, 0, 53, 95
2, 365760, Note_on_c, 0, 53, 47
2, 366000, Note_off_c, 0, 53, 47
2, 366000, Note_on_c, 0, 52, 95
2, 366240, Note_off_c, 0, 52, 95
2, 366240, Note_on_c, 0, 50, 95
2, 367200, Note_off_c, 0, 50, 95
2, 367200, Note_on_c, 0, 50, 95
2, 367440, Note_off_c, 0, 50, 95
2, 367440, Note_on_c, 0, 50, 95
2, 367680, Note_off_c, 0, 50, 95
2, 367680, Note_on_c, 0, 52, 95
2, 368160, Note_off_c, 0, 52, 95
2, 368160, Note_on_c, 1, 53, 95
2, 368280, Pitch_bend_c, 1, 8448
2, 368400, Pitch_bend_c, 1, 8832
2, 368520, Pitch_bend_c, 1, 9216
2, 368640, Pitch_bend_c, 1, 9600
2, 368640, Pitch_bend_c, 1, 8192
2, 368640, Note_off_c, 1, 53, 95
2, 368640, Note_on_c, 0, 55, 95
2, 369120, Note_off_c, 0, 55, 95
2, 369120, Note_on_c, 0, 53, 95
2, 369600, Note_off_c, 0, 53, 95
2, 369600, Note_on_c, 0, 52, 95
2, 371520, Note_off_c, 0, 52, 95
2, 371520, Note_on_c, 0, 52, 95
2, 372000, Note_off_c, 0, 52, 95
2, 372000, Note_on_c, 0, 53, 95
2, 372480, Note_off_c, 0, 53, 95
2, 372480, Note_on_c, 0, 52, 95
2, 372960, Note_off_c, 0, 52, 95
2, 372960, Note_on_c, 0, 50, 95
2, 373920, Note_off_c, 0, 50, 95
2, 373920, Note_on_c, 0, 50, 95
2, 374400, Note_off_c, 0, 50, 95
2, 374400, Note_on_c, 0, 52, 95
2, 374640, Note_off_c, 0, 52, 95
2, 374640, Note_on_c, 0, 50, 95
2, 375360, Note_off_c, 0, 50, 95
2, 375360, Note_on_c, 1, 48, 95
2, 375480, Pitch_bend_c, 1, 8832
2, 375600, Pitch_bend_c, 1, 9600
2, 375600, Pitch_bend_c, 1, 8192
2, 375600, Note_off_c, 1, 48, 95
2, 375600, Note_on_c, 0, 50, 95
2, 375840, Note_off_c, 0, 50, 95
2, 375840, Note_on_c, 0, 48, 95
2, 376320, Note_off_c, 0, 48, 95
2, 376320, Note_on_c, 0, 47, 95
2, 376800, Note_off_c, 0, 47, 95
2, 376800, Note_on_c, 0, 48, 95
2, 377280, Note_off_c, 0, 48, 95
2, 377280, Note_on_c, 0, 50, 95
2, 378240, Note_off_c, 0, 50, 95
2, 378240, Note_on_c, 0, 50, 95
2, 378720, Note_off_c, 0, 50, 95
2, 378720, Note_on_c, 0, 52, 95
2, 378960, Note_off_c, 0, 52, 95
2, 378960, Note_on_c, 0, 50, 95
2, 379680, Note_off_c, 0, 50, 95
2, 379680, Note_on_c, 0, 48, 95
2, 380160, Note_off_c, 0, 48, 95
2, 380160, Note_on_c, 1, 47, 95
2, 380280, Pitch_bend_c, 1, 8320
2, 380400, Pitch_bend_c, 1, 8448
2, 380520, Pitch_bend_c, 1, 8704
2, 380640, Pitch_bend_c, 1, 8832
2, 380640, Pitch_bend_c, 1, 8192
2, 380640, Note_off_c, 1, 47, 95
2, 380640, Note_on_c, 0, 48, 95
2, 385440, Note_off_c, 0, 48, 95
2, 385440, Note_on_c, 0, 48, 95
2, 385680, Note_off_c, 0, 48, 95
2, 385680, Note_on_c, 0, 48, 95
2, 385920, Note_off_c, 0, 48, 95
2, 385920, Note_on_c, 1, 50, 95
2, 386080, Pitch_bend_c, 1, 8832
2, 386240, Pitch_bend_c, 1, 9600
2, 386240, Pitch_bend_c, 1, 8192
2, 386240, Note_off_c, 1, 50, 95
2, 386240, Note_on_c, 0, 52, 95
2, 386560, Note_off_c, 0, 52, 95
2, 386560, Note_on_c, 0, 52, 95
2, 386880, Note_off_c, 0, 52, 95
2, 386880, Note_on_c, 0, 53, 95
2, 387200, Note_off_c, 0, 53, 95
2, 387200, Note_on_c, 0, 52, 95
2, 387520, Note_off_c, 0, 52, 95
2, 387520, Note_on_c, 0, 50, 95
2, 388800, Note_off_c, 0, 50, 95
2, 388800, Note_on_c, 0, 48, 95
2, 390240, Note_off_c, 0, 48, 95
2, 390240, Note_on_c, 1, 57, 95
2, 390240, Note_on_c, 1, 53, 95
2, 390240, Note_on_c, 0, 48, 95
2, 390240, Note_on_c, 0, 41, 95
2, 390360, Pitch_bend_c, 1, 8448
2, 390360, Pitch_bend_c, 1, 8448
2, 390480, Pitch_bend_c, 1, 8832
2, 390480, Pitch_bend_c, 1, 8832
2, 390600, Pitch_bend_c, 1, 9216
2, 390600, Pitch_bend_c, 1, 9216
2, 390720, Pitch_bend_c, 1, 9600
2, 390720, Pitch_bend_c, 1, 8192
2, 390720, Note_off_c, 1, 57, 95
2, 390720, Pitch_bend_c, 1, 9600
2, 390720, Pitch_bend_c, 1, 8192
2, 390720, Note_off_c, 1, 53, 95
2, 390720, Note_off_c, 0, 48, 95
2, 390720, Note_off_c, 0, 41, 95
2, 390720, Note_on_c, 0, 59, 95
2, 390720, Note_on_c, 0, 55, 95
2, 390720, Note_on_c, 0, 50, 95
2, 390720, Note_on_c, 0, 43, 95
2, 390960, Note_off_c, 0, 59, 95
2, 390960, Note_off_c, 0, 55, 95
2, 390960, Note_off_c, 0, 50, 95
2, 390960, Note_off_c, 0, 43, 95
2, 391200, Note_on_c, 1, 59, 95
2, 391200, Note_on_c, 1, 55, 95
2, 391200, Note_on_c, 1, 50, 95
2, 391200, Note_on_c, 1, 43, 95
2, 391320, Pitch_bend_c, 1, 8960
2, 391320, Pitch_bend_c, 1, 8960
2, 391320, Pitch_bend_c, 1, 8960
2, 391320, Pitch_bend_c, 1, 8960
2, 391440, Pitch_bend_c, 1, 9856
2, 391440, Pitch_bend_c, 1, 9856
2, 391440, Pitch_bend_c, 1, 9856
2, 391440, Pitch_bend_c, 1, 9856
2, 391560, Pitch_bend_c, 1, 10752
2, 391560, Pitch_bend_c, 1, 10752
2, 391560, Pitch_bend_c, 1, 10752
2, 391560, Pitch_bend_c, 1, 10752
2, 391680, Pitch_bend_c, 1, 11648
2, 391680, Pitch_bend_c, 1, 8192
2, 391680, Note_off_c, 1, 59, 95
2, 391680, Pitch_bend_c, 1, 11648
2, 391680, Pitch_bend_c, 1, 8192
2, 391680, Note_off_c, 1, 55, 95
2, 391680, Pitch_bend_c, 1, 11648
2, 391680, Pitch_bend_c, 1, 8192
2, 391680, Note_off_c, 1, 50, 95
2, 391680, Pitch_bend_c, 1, 11648
2, 391680, Pitch_bend_c, 1, 8192
2, 391680, Note_off_c, 1, 43, 95
2, 391680, Note_on_c, 0, 64, 95
2, 391680, Note_on_c, 0, 60, 95
2, 391680, Note_on_c, 0, 55, 95
2, 391680, Note_on_c, 0, 48, 95
2, 393120, Note_off_c, 0, 64, 95
2, 393120, Note_off_c, 0, 60, 95
2, 393120, Note_off_c, 0, 55, 95
2, 393120, Note_off_c, 0, 48, 95
2, 393120, Note_on_c, 1, 55, 95
2, 393240, Pitch_bend_c, 1, 8064
2, 393360, Pitch_bend_c, 1, 7936
2, 393480, Pitch_bend_c, 1, 7680
2, 393600, Pitch_bend_c, 1, 7552
2, 393720, Pitch_bend_c, 1, 7424
2, 393840, Pitch_bend_c, 1, 7168
2, 393960, Pitch_bend_c, 1, 7040
2, 394080, Pitch_bend_c, 1, 6784
2, 394200, Pitch_bend_c, 1, 6656
2, 394320, Pitch_bend_c, 1, 6528
2, 394440, Pitch_bend_c, 1, 6272
2, 394560, Pitch_bend_c, 1, 6144
2, 394560, Pitch_bend_c, 1, 8192
2, 394560, Note_off_c, 1, 55, 95
2, 394560, Note_on_c, 0, 52, 95
2, 396000, Note_off_c, 0, 52, 95
2, 396000, Note_on_c, 1, 52, 95
2, 396120, Pitch_bend_c, 1, 8064
2, 396240, Pitch_bend_c, 1, 7808
2, 396360, Pitch_bend_c, 1, 7552
2, 396480, Pitch_bend_c, 1, 7296
2, 396600, Pitch_bend_c, 1, 7040
2, 396720, Pitch_bend_c, 1, 6784
2, 396840, Pitch_bend_c, 1, 6656
2, 396960, Pitch_bend_c, 1, 6400
2, 397080, Pitch_bend_c, 1, 6144
2, 397200, Pitch_bend_c, 1, 5888
2, 397320, Pitch_bend_c, 1, 5632
2, 397440, Pitch_bend_c, 1, 5376
2, 397440, Pitch_bend_c, 1, 8192
2, 397440, Note_off_c, 1, 52, 95
2, 397440, Note_on_c, 0, 48, 95
2, 398880, Note_off_c, 0, 48, 95
2, 398880, Note_on_c, 1, 48, 95
2, 399000, Pitch_bend_c, 1, 8192
2, 399120, Pitch_bend_c, 1, 8320
2, 399240, Pitch_bend_c, 1, 8448
2, 399360, Pitch_bend_c, 1, 8576
2, 399480, Pitch_bend_c, 1, 8704
2, 399600, Pitch_bend_c, 1, 8832
2, 399720, Pitch_bend_c, 1, 8960
2, 399840, Pitch_bend_c, 1, 9088
2, 399960, Pitch_bend_c, 1, 9216
2, 400080, Pitch_bend_c, 1, 9344
2, 400200, Pitch_bend_c, 1, 9472
2, 400320, Pitch_bend_c, 1, 9600
2, 400320, Pitch_bend_c, 1, 8192
2, 400320, Note_off_c, 1, 48, 95
2, 400320, Note_on_c, 0, 50, 95
2, 401760, Note_off_c, 0, 50, 95
2, 401760, Note_on_c, 1, 50, 95
2, 401880, Pitch_bend_c, 1, 8448
2, 402000, Pitch_bend_c, 1, 8704
2, 402120, Pitch_bend_c, 1, 8960
2, 402240, Pitch_bend_c, 1, 9344
2, 402360, Pitch_bend_c, 1, 9600
2, 402480, Pitch_bend_c, 1, 9856
2, 402600, Pitch_bend_c, 1, 10240
2, 402720, Pitch_bend_c, 1, 10496
2, 402840, Pitch_bend_c, 1, 10752
2, 402960, Pitch_bend_c, 1, 11008
2, 403080, Pitch_bend_c, 1, 11392
2, 403200, Pitch_bend_c, 1, 11648
2, 403200, Pitch_bend_c, 1, 8192
2, 403200, Note_off_c, 1, 50, 95
2, 403200, Note_on_c, 0, 55, 95
2, 404640, Note_off_c, 0, 55, 95
2, 404640, Note_on_c, 1, 55, 95
2, 404760, Pitch_bend_c, 1, 8064
2, 404880, Pitch_bend_c, 1, 7936
2, 405000, Pitch_bend_c, 1, 7680
2, 405120, Pitch_bend_c, 1, 7552
2, 405240, Pitch_bend_c, 1, 7424
2, 405360, Pitch_bend_c, 1, 7168
2, 405480, Pitch_bend_c, 1, 7040
2, 405600, Pitch_bend_c, 1, 6784
2, 405720, Pitch_bend_c, 1, 6656
2, 405840, Pitch_bend_c, 1, 6528
2, 405960, Pitch_bend_c, 1, 6272
2, 406080, Pitch_bend_c, 1, 6144
2, 406080, Pitch_bend_c, 1, 8192
2, 406080, Note_off_c, 1, 55, 95
2, 406080, Note_on_c, 0, 52, 95
2, 407520, Note_off_c, 0, 52, 95
2, 407520, Note_on_c, 1, 52, 95
2, 407640, Pitch_bend_c, 1, 8064
2, 407760, Pitch_bend_c, 1, 7808
2, 407880, Pitch_bend_c, 1, 7552
2, 408000, Pitch_bend_c, 1, 7296
2, 408120, Pitch_bend_c, 1, 7040
2, 408240, Pitch_bend_c, 1, 6784
2, 408360, Pitch_bend_c, 1, 6656
2, 408480, Pitch_bend_c, 1, 6400
2, 408600, Pitch_bend_c, 1, 6144
2, 408720, Pitch_bend_c, 1, 5888
2, 408840, Pitch_bend_c, 1, 5632
2, 408960, Pitch_bend_c, 1, 5376
2, 408960, Pitch_bend_c, 1, 8192
2, 408960, Note_off_c, 1, 52, 95
2, 408960, Note_on_c, 0, 48, 95
2, 410400, Note_off_c, 0, 48, 95
2, 410400, Note_on_c, 1, 48, 95
2, 410520, Pitch_bend_c, 1, 8192
2, 410640, Pitch_bend_c, 1, 8320
2, 410760, Pitch_bend_c, 1, 8448
2, 410880, Pitch_bend_c, 1, 8576
2, 411000, Pitch_bend_c, 1, 8704
2, 411120, Pitch_bend_c, 1, 8832
2, 411240, Pitch_bend_c, 1, 8960
2, 411360, Pitch_bend_c, 1, 9088
2, 411480, Pitch_bend_c, 1, 9216
2, 411600, Pitch_bend_c, 1, 9344
2, 411720, Pitch_bend_c, 1, 9472
2, 411840, Pitch_bend_c, 1, 9600
2, 411840, Pitch_bend_c, 1, 8192
2, 411840, Note_off_c, 1, 48, 95
2, 411840, Note_on_c, 0, 50, 95
2, 413280, Note_off_c, 0, 50, 95
2, 413280, Note_on_c, 1, 50, 95
2, 413400, Pitch_bend_c, 1, 8448
2, 413520, Pitch_bend_c, 1, 8704
2, 413640, Pitch_bend_c, 1, 8960
2, 413760, Pitch_bend_c, 1, 9344
2, 413880, Pitch_bend_c, 1, 9600
2, 414000, Pitch_bend_c, 1, 9856
2, 414120, Pitch_bend_c, 1, 10240
2, 414240, Pitch_bend_c, 1, 10496
2, 414360, Pitch_bend_c, 1, 10752
2, 414480, Pitch_bend_c, 1, 11008
2, 414600, Pitch_bend_c, 1, 11392
2, 414720, Pitch_bend_c, 1, 11648
2, 414720, Pitch_bend_c, 1, 8192
2, 414720, Note_off_c, 1, 50, 95
2, 414720, Note_on_c, 0, 55, 95
2, 416160, Note_off_c, 0, 55, 95
2, 416160, Note_on_c, 1, 55, 95
2, 416280, Pitch_bend_c, 1, 8064
2, 416400, Pitch_bend_c, 1, 7936
2, 416520, Pitch_bend_c, 1, 7680
2, 416640, Pitch_bend_c, 1, 7552
2, 416760, Pitch_bend_c, 1, 7424
2, 416880, Pitch_bend_c, 1, 7168
2, 417000, Pitch_bend_c, 1, 7040
2, 417120, Pitch_bend_c, 1, 6784
2, 417240, Pitch_bend_c, 1, 6656
2, 417360, Pitch_bend_c, 1, 6528
2, 417480, Pitch_bend_c, 1, 6272
2, 417600, Pitch_bend_c, 1, 6144
2, 417600, Pitch_bend_c, 1, 8192
2, 417600, Note_off_c, 1, 55, 95
2, 417600, Note_on_c, 0, 52, 95
2, 419040, Note_off_c, 0, 52, 95
2, 419040, Note_on_c, 1, 52, 95
2, 419160, Pitch_bend_c, 1, 8064
2, 419280, Pitch_bend_c, 1, 7808
2, 419400, Pitch_bend_c, 1, 7552
2, 419520, Pitch_bend_c, 1, 7296
2, 419640, Pitch_bend_c, 1, 7040
2, 419760, Pitch_bend_c, 1, 6784
2, 419880, Pitch_bend_c, 1, 6656
2, 420000, Pitch_bend_c, 1, 6400
2, 420120, Pitch_bend_c, 1, 6144
2, 420240, Pitch_bend_c, 1, 5888
2, 420360, Pitch_bend_c, 1, 5632
2, 420480, Pitch_bend_c, 1, 5376
2, 420480, Pitch_bend_c, 1, 8192
2, 420480, Note_off_c, 1, 52, 95
2, 420480, Note_on_c, 0, 48, 95
2, 421920, Note_off_c, 0, 48, 95
2, 421920, Note_on_c, 1, 48, 95
2, 422040, Pitch_bend_c, 1, 8192
2, 422160, Pitch_bend_c, 1, 8320
2, 422280, Pitch_bend_c, 1, 8448
2, 422400, Pitch_bend_c, 1, 8576
2, 422520, Pitch_bend_c, 1, 8704
2, 422640, Pitch_bend_c, 1, 8832
2, 422760, Pitch_bend_c, 1, 8960
2, 422880, Pitch_bend_c, 1, 9088
2, 423000, Pitch_bend_c, 1, 9216
2, 423120, Pitch_bend_c, 1, 9344
2, 423240, Pitch_bend_c, 1, 9472
2, 423360, Pitch_bend_c, 1, 9600
2, 423360, Pitch_bend_c, 1, 8192
2, 423360, Note_off_c, 1, 48, 95
2, 423360, Note_on_c, 0, 50, 95
2, 424800, Note_off_c, 0, 50, 95
2, 424800, Note_on_c, 1, 50, 95
2, 424920, Pitch_bend_c, 1, 8448
2, 425040, Pitch_bend_c, 1, 8704
2, 425160, Pitch_bend_c, 1, 8960
2, 425280, Pitch_bend_c, 1, 9344
2, 425400, Pitch_bend_c, 1, 9600
2, 425520, Pitch_bend_c, 1, 9856
2, 425640, Pitch_bend_c, 1, 10240
2, 425760, Pitch_bend_c, 1, 10496
2, 425880, Pitch_bend_c, 1, 10752
2, 426000, Pitch_bend_c, 1, 11008
2, 426120, Pitch_bend_c, 1, 11392
2, 426240, Pitch_bend_c, 1, 11648
2, 426240, Pitch_bend_c, 1, 8192
2, 426240, Note_off_c, 1, 50, 95
2, 426240, Note_on_c, 0, 55, 95
2, 427680, Note_off_c, 0, 55, 95
2, 427680, Note_on_c, 1, 55, 95
2, 427800, Pitch_bend_c, 1, 8064
2, 427920, Pitch_bend_c, 1, 7936
2, 428040, Pitch_bend_c, 1, 7680
2, 428160, Pitch_bend_c, 1, 7552
2, 428280, Pitch_bend_c, 1, 7424
2, 428400, Pitch_bend_c, 1, 7168
2, 428520, Pitch_bend_c, 1, 7040
2, 428640, Pitch_bend_c, 1, 6784
2, 428760, Pitch_bend_c, 1, 6656
2, 428880, Pitch_bend_c, 1, 6528
2, 429000, Pitch_bend_c, 1, 6272
2, 429120, Pitch_bend_c, 1, 6144
2, 429120, Pitch_bend_c, 1, 8192
2, 429120, Note_off_c, 1, 55, 95
2, 429120, Note_on_c, 0, 52, 95
2, 430560, Note_off_c, 0, 52, 95
2, 430560, Note_on_c, 1, 52, 95
2, 430680, Pitch_bend_c, 1, 8064
2, 430800, Pitch_bend_c, 1, 7808
2, 430920, Pitch_bend_c, 1, 7552
2, 431040, Pitch_bend_c, 1, 7296
2, 431160, Pitch_bend_c, 1, 7040
2, 431280, Pitch_bend_c, 1, 6784
2, 431400, Pitch_bend_c, 1, 6656
2, 431520, Pitch_bend_c, 1, 6400
2, 431640, Pitch_bend_c, 1, 6144
2, 431760, Pitch_bend_c, 1, 5888
2, 431880, Pitch_bend_c, 1, 5632
2, 432000, Pitch_bend_c, 1, 5376
2, 432000, Pitch_bend_c, 1, 8192
2, 432000, Note_off_c, 1, 52, 95
2, 432000, Note_on_c, 0, 48, 95
2, 433440, Note_off_c, 0, 48, 95
2, 433440, Note_on_c, 1, 48, 95
2, 433560, Pitch_bend_c, 1, 8192
2, 433680, Pitch_bend_c, 1, 8320
2, 433800, Pitch_bend_c, 1, 8448
2, 433920, Pitch_bend_c, 1, 8576
2, 434040, Pitch_bend_c, 1, 8704
2, 434160, Pitch_bend_c, 1, 8832
2, 434280, Pitch_bend_c, 1, 8960
2, 434400, Pitch_bend_c, 1, 9088
2, 434520, Pitch_bend_c, 1, 9216
2, 434640, Pitch_bend_c, 1, 9344
2, 434760, Pitch_bend_c, 1, 9472
2, 434880, Pitch_bend_c, 1, 9600
2, 434880, Pitch_bend_c, 1, 8192
2, 434880, Note_off_c, 1, 48, 95
2, 434880, Note_on_c, 0, 50, 95
2, 436320, Note_off_c, 0, 50, 95
2, 436320, Note_on_c, 1, 67, 47
2, 436320, Note_on_c, 1, 62, 47
2, 436320, Note_on_c, 1, 59, 95
2, 436320, Note_on_c, 1, 55, 95
2, 436320, Note_on_c, 1, 50, 95
2, 436320, Note_on_c, 0, 43, 95
2, 436440, Pitch_bend_c, 1, 8448
2, 436440, Pitch_bend_c, 1, 8448
2, 436440, Pitch_bend_c, 1, 8448
2, 436440, Pitch_bend_c, 1, 8448
2, 436440, Pitch_bend_c, 1, 8448
2, 436560, Pitch_bend_c, 1, 8704
2, 436560, Pitch_bend_c, 1, 8704
2, 436560, Pitch_bend_c, 1, 8704
2, 436560, Pitch_bend_c, 1, 8704
2, 436560, Pitch_bend_c, 1, 8704
2, 436680, Pitch_bend_c, 1, 8960
2, 436680, Pitch_bend_c, 1, 8960
2, 436680, Pitch_bend_c, 1, 8960
2, 436680, Pitch_bend_c, 1, 8960
2, 436680, Pitch_bend_c, 1, 8960
2, 436800, Pitch_bend_c, 1, 9344
2, 436800, Pitch_bend_c, 1, 9344
2, 436800, Pitch_bend_c, 1, 9344
2, 436800, Pitch_bend_c, 1, 9344
2, 436800, Pitch_bend_c, 1, 9344
2, 436920, Pitch_bend_c, 1, 9600
2, 436920, Pitch_bend_c, 1, 9600
2, 436920, Pitch_bend_c, 1, 9600
2, 436920, Pitch_bend_c, 1, 9600
2, 436920, Pitch_bend_c, 1, 9600
2, 437040, Pitch_bend_c, 1, 9856
2, 437040, Pitch_bend_c, 1, 9856
2, 437040, Pitch_bend_c, 1, 9856
2, 437040, Pitch_bend_c, 1, 9856
2, 437040, Pitch_bend_c, 1, 9856
2, 437160, Pitch_bend_c, 1, 10240
2, 437160, Pitch_bend_c, 1, 10240
2, 437160, Pitch_bend_c, 1, 10240
2, 437160, Pitch_bend_c, 1, 10240
2, 437160, Pitch_bend_c, 1, 10240
2, 437280, Pitch_bend_c, 1, 10496
2, 437280, Pitch_bend_c, 1, 10496
2, 437280, Pitch_bend_c, 1, 10496
2, 437280, Pitch_bend_c, 1, 10496
2, 437280, Pitch_bend_c, 1, 10496
2, 437400, Pitch_bend_c, 1, 10752
2, 437400, Pitch_bend_c, 1, 10752
2, 437400, Pitch_bend_c, 1, 10752
2, 437400, Pitch_bend_c, 1, 10752
2, 437400, Pitch_bend_c, 1, 10752
2, 437520, Pitch_bend_c, 1, 11008
2, 437520, Pitch_bend_c, 1, 11008
2, 437520, Pitch_bend_c, 1, 11008
2, 437520, Pitch_bend_c, 1, 11008
2, 437520, Pitch_bend_c, 1, 11008
2, 437640, Pitch_bend_c, 1, 11392
2, 437640, Pitch_bend_c, 1, 11392
2, 437640, Pitch_bend_c, 1, 11392
2, 437640, Pitch_bend_c, 1, 11392
2, 437640, Pitch_bend_c, 1, 11392
2, 437760, Pitch_bend_c, 1, 11648
2, 437760, Pitch_bend_c, 1, 8192
2, 437760, Note_off_c, 1, 67, 47
2, 437760, Pitch_bend_c, 1, 11648
2, 437760, Pitch_bend_c, 1, 8192
2, 437760, Note_off_c, 1, 62, 47
2, 437760, Pitch_bend_c, 1, 11648
2, 437760, Pitch_bend_c, 1, 8192
2, 437760, Note_off_c, 1, 59, 95
2, 437760, Pitch_bend_c, 1, 11648
2, 437760, Pitch_bend_c, 1, 8192
2, 437760, Note_off_c, 1, 55, 95
2, 437760, Pitch_bend_c, 1, 11648
2, 437760, Pitch_bend_c, 1, 8192
2, 437760, Note_off_c, 1, 50, 95
2, 437760, Note_off_c, 0, 43, 95
2, 437760, Note_on_c, 0, 72, 47
2, 437760, Note_on_c, 0, 67, 47
2, 437760, Note_on_c, 0, 64, 95
2, 437760, Note_on_c, 0, 60, 95
2, 437760, Note_on_c, 0, 55, 95
2, 437760, Note_on_c, 0, 48, 95
2, 439200, Note_off_c, 0, 72, 47
2, 439200, Note_off_c, 0, 67, 47
2, 439200, Note_off_c, 0, 64, 95
2, 439200, Note_off_c, 0, 60, 95
2, 439200, Note_off_c, 0, 55, 95
2, 439200, Note_off_c, 0, 48, 95
2, 439200, Note_on_c, 1, 74, 95
2, 439200, Note_on_c, 1, 69, 47
2, 439200, Note_on_c, 1, 66, 95
2, 439200, Note_on_c, 1, 62, 95
2, 439320, Pitch_bend_c, 1, 7936
2, 439320, Pitch_bend_c, 1, 7936
2, 439320, Pitch_bend_c, 1, 7936
2, 439320, Pitch_bend_c, 1, 7936
2, 439440, Pitch_bend_c, 1, 7552
2, 439440, Pitch_bend_c, 1, 7552
2, 439440, Pitch_bend_c, 1, 7552
2, 439440, Pitch_bend_c, 1, 7552
2, 439560, Pitch_bend_c, 1, 7168
2, 439560, Pitch_bend_c, 1, 7168
2, 439560, Pitch_bend_c, 1, 7168
2, 439560, Pitch_bend_c, 1, 7168
2, 439680, Pitch_bend_c, 1, 6784
2, 439680, Pitch_bend_c, 1, 8192
2, 439680, Note_off_c, 1, 74, 95
2, 439680, Pitch_bend_c, 1, 6784
2, 439680, Pitch_bend_c, 1, 8192
2, 439680, Note_off_c, 1, 69, 47
2, 439680, Pitch_bend_c, 1, 6784
2, 439680, Pitch_bend_c, 1, 8192
2, 439680, Note_off_c, 1, 66, 95
2, 439680, Pitch_bend_c, 1, 6784
2, 439680, Pitch_bend_c, 1, 8192
2, 439680, Note_off_c, 1, 62, 95
2, 439680, Note_on_c, 0, 72, 95
2, 439680, Note_on_c, 0, 67, 47
2, 439680, Note_on_c, 0, 64, 95
2, 439680, Note_on_c, 0, 60, 95
2, 440160, Note_off_c, 0, 72, 95
2, 440160, Note_off_c, 0, 67, 47
2, 440160, Note_off_c, 0, 64, 95
2, 440160, Note_off_c, 0, 60, 95
2, 440160, Note_on_c, 0, 69, 95
2, 440160, Note_on_c, 0, 64, 47
2, 440160, Note_on_c, 0, 61, 95
2, 440160, Note_on_c, 0, 57, 95
2, 440640, Note_off_c, 0, 64, 47
2, 440640, Note_off_c, 0, 61, 95
2, 440640, Note_off_c, 0, 57, 95
2, 440640, Note_on_c, 0, 61, 95
2, 440640, Note_on_c, 0, 57, 95
2, 440640, Note_on_c, 0, 52, 95
2, 441600, Note_off_c, 0, 61, 95
2, 441600, Note_off_c, 0, 57, 95
2, 441600, Note_off_c, 0, 52, 95
2, 441600, Note_on_c, 0, 61, 95
2, 441600, Note_on_c, 0, 57, 95
2, 441600, Note_on_c, 0, 52, 95
2, 442080, Note_off_c, 0, 69, 95
2, 442080, Note_off_c, 0, 61, 95
2, 442080, Note_off_c, 0, 57, 95
2, 442080, Note_off_c, 0, 52, 95
2, 442080, Note_on_c, 1, 71, 95
2, 442080, Note_on_c, 1, 66, 47
2, 442080, Note_on_c, 1, 63, 95
2, 442080, Note_on_c, 1, 59, 95
2, 442200, Pitch_bend_c, 1, 7936
2, 442200, Pitch_bend_c, 1, 7936
2, 442200, Pitch_bend_c, 1, 7936
2, 442200, Pitch_bend_c, 1, 7936
2, 442320, Pitch_bend_c, 1, 7552
2, 442320, Pitch_bend_c, 1, 7552
2, 442320, Pitch_bend_c, 1, 7552
2, 442320, Pitch_bend_c, 1, 7552
2, 442440, Pitch_bend_c, 1, 7168
2, 442440, Pitch_bend_c, 1, 7168
2, 442440, Pitch_bend_c, 1, 7168
2, 442440, Pitch_bend_c, 1, 7168
2, 442560, Pitch_bend_c, 1, 6784
2, 442560, Pitch_bend_c, 1, 8192
2, 442560, Note_off_c, 1, 71, 95
2, 442560, Pitch_bend_c, 1, 6784
2, 442560, Pitch_bend_c, 1, 8192
2, 442560, Note_off_c, 1, 66, 47
2, 442560, Pitch_bend_c, 1, 6784
2, 442560, Pitch_bend_c, 1, 8192
2, 442560, Note_off_c, 1, 63, 95
2, 442560, Pitch_bend_c, 1, 6784
2, 442560, Pitch_bend_c, 1, 8192
2, 442560, Note_off_c, 1, 59, 95
2, 442560, Note_on_c, 0, 69, 95
2, 442560, Note_on_c, 0, 64, 47
2, 442560, Note_on_c, 0, 61, 95
2, 442560, Note_on_c, 0, 57, 95
2, 443040, Note_off_c, 0, 69, 95
2, 443040, Note_off_c, 0, 64, 47
2, 443040, Note_off_c, 0, 61, 95
2, 443040, Note_off_c, 0, 57, 95
2, 443040, Note_on_c, 0, 65, 95
2, 443040, Note_on_c, 0, 60, 95
2, 443040, Note_on_c, 0, 57, 95
2, 443040, Note_on_c, 0, 53, 95
2, 443520, Note_off_c, 0, 65, 95
2, 443520, Note_off_c, 0, 60, 95
2, 443520, Note_off_c, 0, 57, 95
2, 443520, Note_off_c, 0, 53, 95
2, 443520, Note_on_c, 0, 65, 47
2, 443520, Note_on_c, 0, 60, 95
2, 443520, Note_on_c, 0, 57, 95
2, 443520, Note_on_c, 0, 53, 95
2, 444480, Note_off_c, 0, 65, 47
2, 444480, Note_off_c, 0, 60, 95
2, 444480, Note_off_c, 0, 57, 95
2, 444480, Note_off_c, 0, 53, 95
2, 444480, Note_on_c, 0, 65, 47
2, 444480, Note_on_c, 0, 60, 95
2, 444480, Note_on_c, 0, 57, 95
2, 444480, Note_on_c, 0, 53, 95
2, 444960, Note_off_c, 0, 65, 47
2, 444960, Note_off_c, 0, 60, 95
2, 444960, Note_off_c, 0, 57, 95
2, 444960, Note_off_c, 0, 53, 95
2, 444960, Note_on_c, 1, 67, 95
2, 444960, Note_on_c, 1, 62, 47
2, 444960, Note_on_c, 1, 59, 95
2, 444960, Note_on_c, 1, 55, 95
2, 445080, Pitch_bend_c, 1, 7936
2, 445080, Pitch_bend_c, 1, 7936
2, 445080, Pitch_bend_c, 1, 7936
2, 445080, Pitch_bend_c, 1, 7936
2, 445200, Pitch_bend_c, 1, 7552
2, 445200, Pitch_bend_c, 1, 7552
2, 445200, Pitch_bend_c, 1, 7552
2, 445200, Pitch_bend_c, 1, 7552
2, 445320, Pitch_bend_c, 1, 7168
2, 445320, Pitch_bend_c, 1, 7168
2, 445320, Pitch_bend_c, 1, 7168
2, 445320, Pitch_bend_c, 1, 7168
2, 445440, Pitch_bend_c, 1, 6784
2, 445440, Pitch_bend_c, 1, 8192
2, 445440, Note_off_c, 1, 67, 95
2, 445440, Pitch_bend_c, 1, 6784
2, 445440, Pitch_bend_c, 1, 8192
2, 445440, Note_off_c, 1, 62, 47
2, 445440, Pitch_bend_c, 1, 6784
2, 445440, Pitch_bend_c, 1, 8192
2, 445440, Note_off_c, 1, 59, 95
2, 445440, Pitch_bend_c, 1, 6784
2, 445440, Pitch_bend_c, 1, 8192
2, 445440, Note_off_c, 1, 55, 95
2, 445440, Note_on_c, 0, 65, 95
2, 445440, Note_on_c, 0, 60, 47
2, 445440, Note_on_c, 0, 57, 95
2, 445440, Note_on_c, 0, 53, 95
2, 445920, Note_off_c, 0, 65, 95
2, 445920, Note_off_c, 0, 60, 47
2, 445920, Note_off_c, 0, 57, 95
2, 445920, Note_off_c, 0, 53, 95
2, 445920, Note_on_c, 1, 65, 47
2, 445920, Note_on_c, 1, 60, 95
2, 445920, Note_on_c, 1, 57, 95
2, 445920, Note_on_c, 1, 53, 95
2, 446040, Pitch_bend_c, 1, 8448
2, 446040, Pitch_bend_c, 1, 8448
2, 446040, Pitch_bend_c, 1, 8448
2, 446040, Pitch_bend_c, 1, 8448
2, 446160, Pitch_bend_c, 1, 8832
2, 446160, Pitch_bend_c, 1, 8832
2, 446160, Pitch_bend_c, 1, 8832
2, 446160, Pitch_bend_c, 1, 8832
2, 446280, Pitch_bend_c, 1, 9216
2, 446280, Pitch_bend_c, 1, 9216
2, 446280, Pitch_bend_c, 1, 9216
2, 446280, Pitch_bend_c, 1, 9216
2, 446400, Pitch_bend_c, 1, 9600
2, 446400, Pitch_bend_c, 1, 8192
2, 446400, Note_off_c, 1, 65, 47
2, 446400, Pitch_bend_c, 1, 9600
2, 446400, Pitch_bend_c, 1, 8192
2, 446400, Note_off_c, 1, 60, 95
2, 446400, Pitch_bend_c, 1, 9600
2, 446400, Pitch_bend_c, 1, 8192
2, 446400, Note_off_c, 1, 57, 95
2, 446400, Pitch_bend_c, 1, 9600
2, 446400, Pitch_bend_c, 1, 8192
2, 446400, Note_off_c, 1, 53, 95
2, 446400, Note_on_c, 0, 67, 47
2, 446400, Note_on_c, 0, 62, 95
2, 446400, Note_on_c, 0, 59, 95
2, 446400, Note_on_c, 0, 55, 95
2, 447360, Note_off_c, 0, 67, 47
2, 447360, Note_off_c, 0, 62, 95
2, 447360, Note_off_c, 0, 59, 95
2, 447360, Note_off_c, 0, 55, 95
2, 447360, Note_on_c, 1, 69, 95
2, 447360, Note_on_c, 1, 64, 47
2, 447360, Note_on_c, 1, 61, 95
2, 447360, Note_on_c, 1, 57, 95
2, 447480, Pitch_bend_c, 1, 7936
2, 447480, Pitch_bend_c, 1, 7936
2, 447480, Pitch_bend_c, 1, 7936
2, 447480, Pitch_bend_c, 1, 7936
2, 447600, Pitch_bend_c, 1, 7552
2, 447600, Pitch_bend_c, 1, 7552
2, 447600, Pitch_bend_c, 1, 7552
2, 447600, Pitch_bend_c, 1, 7552
2, 447720, Pitch_bend_c, 1, 7168
2, 447720, Pitch_bend_c, 1, 7168
2, 447720, Pitch_bend_c, 1, 7168
2, 447720, Pitch_bend_c, 1, 7168
2, 447840, Pitch_bend_c, 1, 6784
2, 447840, Pitch_bend_c, 1, 8192
2, 447840, Note_off_c, 1, 69, 95
2, 447840, Pitch_bend_c, 1, 6784
2, 447840, Pitch_bend_c, 1, 8192
2, 447840, Note_off_c, 1, 64, 47
2, 447840, Pitch_bend_c, 1, 6784
2, 447840, Pitch_bend_c, 1, 8192
2, 447840, Note_off_c, 1, 61, 95
2, 447840, Pitch_bend_c, 1, 6784
2, 447840, Pitch_bend_c, 1, 8192
2, 447840, Note_off_c, 1, 57, 95
2, 447840, Note_on_c, 0, 67, 95
2, 447840, Note_on_c, 0, 62, 47
2, 447840, Note_on_c, 0, 59, 95
2, 447840, Note_on_c, 0, 55, 95
2, 448320, Note_off_c, 0, 67, 95
2, 448320, Note_off_c, 0, 62, 47
2, 448320, Note_off_c, 0, 59, 95
2, 448320, Note_off_c, 0, 55, 95
2, 448320, Note_on_c, 0, 67, 47
2, 448320, Note_on_c, 1, 62, 95
2, 448320, Note_on_c, 1, 59, 95
2, 448320, Note_on_c, 1, 55, 95
2, 448320, Note_on_c, 1, 50, 95
2, 448320, Note_on_c, 1, 43, 95
2, 448440, Pitch_bend_c, 1, 8576
2, 448440, Pitch_bend_c, 1, 8576
2, 448440, Pitch_bend_c, 1, 8576
2, 448440, Pitch_bend_c, 1, 8576
2, 448440, Pitch_bend_c, 1, 8576
2, 448560, Pitch_bend_c, 1, 8960
2, 448560, Pitch_bend_c, 1, 8960
2, 448560, Pitch_bend_c, 1, 8960
2, 448560, Pitch_bend_c, 1, 8960
2, 448560, Pitch_bend_c, 1, 8960
2, 448680, Pitch_bend_c, 1, 9472
2, 448680, Pitch_bend_c, 1, 9472
2, 448680, Pitch_bend_c, 1, 9472
2, 448680, Pitch_bend_c, 1, 9472
2, 448680, Pitch_bend_c, 1, 9472
2, 448800, Pitch_bend_c, 1, 9856
2, 448800, Pitch_bend_c, 1, 9856
2, 448800, Pitch_bend_c, 1, 9856
2, 448800, Pitch_bend_c, 1, 9856
2, 448800, Pitch_bend_c, 1, 9856
2, 448920, Pitch_bend_c, 1, 10368
2, 448920, Pitch_bend_c, 1, 10368
2, 448920, Pitch_bend_c, 1, 10368
2, 448920, Pitch_bend_c, 1, 10368
2, 448920, Pitch_bend_c, 1, 10368
2, 449040, Pitch_bend_c, 1, 10752
2, 449040, Pitch_bend_c, 1, 10752
2, 449040, Pitch_bend_c, 1, 10752
2, 449040, Pitch_bend_c, 1, 10752
2, 449040, Pitch_bend_c, 1, 10752
2, 449160, Pitch_bend_c, 1, 11264
2, 449160, Pitch_bend_c, 1, 11264
2, 449160, Pitch_bend_c, 1, 11264
2, 449160, Pitch_bend_c, 1, 11264
2, 449160, Pitch_bend_c, 1, 11264
2, 449280, Note_off_c, 0, 67, 47
2, 449280, Pitch_bend_c, 1, 11648
2, 449280, Pitch_bend_c, 1, 8192
2, 449280, Note_off_c, 1, 62, 95
2, 449280, Pitch_bend_c, 1, 11648
2, 449280, Pitch_bend_c, 1, 8192
2, 449280, Note_off_c, 1, 59, 95
2, 449280, Pitch_bend_c, 1, 11648
2, 449280, Pitch_bend_c, 1, 8192
2, 449280, Note_off_c, 1, 55, 95
2, 449280, Pitch_bend_c, 1, 11648
2, 449280, Pitch_bend_c, 1, 8192
2, 449280, Note_off_c, 1, 50, 95
2, 449280, Pitch_bend_c, 1, 11648
2, 449280, Pitch_bend_c, 1, 8192
2, 449280, Note_off_c, 1, 43, 95
2, 449280, Note_on_c, 0, 72, 47
2, 449280, Note_on_c, 0, 67, 95
2, 449280, Note_on_c, 0, 64, 95
2, 449280, Note_on_c, 0, 60, 95
2, 449280, Note_on_c, 0, 55, 95
2, 449280, Note_on_c, 0, 48, 95
2, 450240, Note_off_c, 0, 72, 47
2, 450240, Note_off_c, 0, 67, 95
2, 450240, Note_off_c, 0, 64, 95
2, 450240, Note_off_c, 0, 60, 95
2, 450240, Note_off_c, 0, 55, 95
2, 450240, Note_off_c, 0, 48, 95
2, 450240, Note_on_c, 0, 64, 95
2, 450240, Note_on_c, 0, 60, 95
2, 450240, Note_on_c, 0, 55, 95
2, 450720, Note_off_c, 0, 64, 95
2, 450720, Note_off_c, 0, 60, 95
2, 450720, Note_off_c, 0, 55, 95
2, 450720, Note_on_c, 0, 74, 95
2, 450720, Note_on_c, 0, 69, 47
2, 450720, Note_on_c, 0, 66, 95
2, 450720, Note_on_c, 0, 62, 95
2, 451200, Note_off_c, 0, 74, 95
2, 451200, Note_off_c, 0, 69, 47
2, 451200, Note_off_c, 0, 66, 95
2, 451200, Note_off_c, 0, 62, 95
2, 451200, Note_on_c, 0, 72, 95
2, 451200, Note_on_c, 0, 67, 47
2, 451200, Note_on_c, 0, 64, 95
2, 451200, Note_on_c, 0, 60, 95
2, 451680, Note_off_c, 0, 72, 95
2, 451680, Note_off_c, 0, 67, 47
2, 451680, Note_off_c, 0, 64, 95
2, 451680, Note_off_c, 0, 60, 95
2, 451680, Note_on_c, 0, 69, 95
2, 451680, Note_on_c, 0, 64, 47
2, 451680, Note_on_c, 0, 61, 95
2, 451680, Note_on_c, 0, 57, 95
2, 452160, Note_off_c, 0, 64, 47
2, 452160, Note_off_c, 0, 61, 95
2, 452160, Note_off_c, 0, 57, 95
2, 452160, Note_on_c, 0, 61, 95
2, 452160, Note_on_c, 0, 57, 95
2, 452160, Note_on_c, 0, 52, 95
2, 453120, Note_off_c, 0, 69, 95
2, 453120, Note_off_c, 0, 61, 95
2, 453120, Note_off_c, 0, 57, 95
2, 453120, Note_off_c, 0, 52, 95
2, 453120, Note_on_c, 0, 69, 47
2, 453120, Note_on_c, 0, 64, 47
2, 453120, Note_on_c, 0, 61, 95
2, 453120, Note_on_c, 0, 57, 95
2, 453120, Note_on_c, 0, 52, 95
2, 453600, Note_off_c, 0, 69, 47
2, 453600, Note_off_c, 0, 64, 47
2, 453600, Note_off_c, 0, 61, 95
2, 453600, Note_off_c, 0, 57, 95
2, 453600, Note_off_c, 0, 52, 95
2, 453600, Note_on_c, 1, 71, 95
2, 453600, Note_on_c, 1, 66, 47
2, 453600, Note_on_c, 1, 63, 95
2, 453600, Note_on_c, 1, 59, 95
2, 453720, Pitch_bend_c, 1, 7936
2, 453720, Pitch_bend_c, 1, 7936
2, 453720, Pitch_bend_c, 1, 7936
2, 453720, Pitch_bend_c, 1, 7936
2, 453840, Pitch_bend_c, 1, 7552
2, 453840, Pitch_bend_c, 1, 7552
2, 453840, Pitch_bend_c, 1, 7552
2, 453840, Pitch_bend_c, 1, 7552
2, 453960, Pitch_bend_c, 1, 7168
2, 453960, Pitch_bend_c, 1, 7168
2, 453960, Pitch_bend_c, 1, 7168
2, 453960, Pitch_bend_c, 1, 7168
2, 454080, Pitch_bend_c, 1, 6784
2, 454080, Pitch_bend_c, 1, 8192
2, 454080, Note_off_c, 1, 71, 95
2, 454080, Pitch_bend_c, 1, 6784
2, 454080, Pitch_bend_c, 1, 8192
2, 454080, Note_off_c, 1, 66, 47
2, 454080, Pitch_bend_c, 1, 6784
2, 454080, Pitch_bend_c, 1, 8192
2, 454080, Note_off_c, 1, 63, 95
2, 454080, Pitch_bend_c, 1, 6784
2, 454080, Pitch_bend_c, 1, 8192
2, 454080, Note_off_c, 1, 59, 95
2, 454080, Note_on_c, 0, 69, 95
2, 454080, Note_on_c, 0, 64, 47
2, 454080, Note_on_c, 0, 61, 95
2, 454080, Note_on_c, 0, 57, 95
2, 454560, Note_off_c, 0, 69, 95
2, 454560, Note_off_c, 0, 64, 47
2, 454560, Note_off_c, 0, 61, 95
2, 454560, Note_off_c, 0, 57, 95
2, 454560, Note_on_c, 0, 65, 95
2, 454560, Note_on_c, 0, 60, 47
2, 454560, Note_on_c, 0, 57, 95
2, 454560, Note_on_c, 0, 53, 95
2, 455040, Note_off_c, 0, 60, 47
2, 455040, Note_off_c, 0, 57, 95
2, 455040, Note_off_c, 0, 53, 95
2, 455040, Note_on_c, 0, 60, 95
2, 455040, Note_on_c, 0, 57, 95
2, 455040, Note_on_c, 0, 53, 95
2, 456000, Note_off_c, 0, 60, 95
2, 456000, Note_off_c, 0, 57, 95
2, 456000, Note_off_c, 0, 53, 95
2, 456000, Note_on_c, 0, 60, 95
2, 456000, Note_on_c, 0, 57, 95
2, 456000, Note_on_c, 0, 53, 95
2, 456480, Note_off_c, 0, 65, 95
2, 456480, Note_off_c, 0, 60, 95
2, 456480, Note_off_c, 0, 57, 95
2, 456480, Note_off_c, 0, 53, 95
2, 456480, Note_on_c, 1, 67, 95
2, 456480, Note_on_c, 1, 62, 47
2, 456480, Note_on_c, 1, 59, 95
2, 456480, Note_on_c, 1, 55, 95
2, 456600, Pitch_bend_c, 1, 7936
2, 456600, Pitch_bend_c, 1, 7936
2, 456600, Pitch_bend_c, 1, 7936
2, 456600, Pitch_bend_c, 1, 7936
2, 456720, Pitch_bend_c, 1, 7552
2, 456720, Pitch_bend_c, 1, 7552
2, 456720, Pitch_bend_c, 1, 7552
2, 456720, Pitch_bend_c, 1, 7552
2, 456840, Pitch_bend_c, 1, 7168
2, 456840, Pitch_bend_c, 1, 7168
2, 456840, Pitch_bend_c, 1, 7168
2, 456840, Pitch_bend_c, 1, 7168
2, 456960, Pitch_bend_c, 1, 6784
2, 456960, Pitch_bend_c, 1, 8192
2, 456960, Note_off_c, 1, 67, 95
2, 456960, Pitch_bend_c, 1, 6784
2, 456960, Pitch_bend_c, 1, 8192
2, 456960, Note_off_c, 1, 62, 47
2, 456960, Pitch_bend_c, 1, 6784
2, 456960, Pitch_bend_c, 1, 8192
2, 456960, Note_off_c, 1, 59, 95
2, 456960, Pitch_bend_c, 1, 6784
2, 456960, Pitch_bend_c, 1, 8192
2, 456960, Note_off_c, 1, 55, 95
2, 456960, Note_on_c, 0, 65, 95
2, 456960, Note_on_c, 0, 60, 47
2, 456960, Note_on_c, 0, 57, 95
2, 456960, Note_on_c, 0, 53, 95
2, 457440, Note_off_c, 0, 65, 95
2, 457440, Note_off_c, 0, 60, 47
2, 457440, Note_off_c, 0, 57, 95
2, 457440, Note_off_c, 0, 53, 95
2, 457440, Note_on_c, 0, 67, 95
2, 457440, Note_on_c, 0, 62, 47
2, 457440, Note_on_c, 0, 59, 95
2, 457440, Note_on_c, 0, 55, 95
2, 457920, Note_off_c, 0, 67, 95
2, 457920, Note_off_c, 0, 62, 47
2, 457920, Note_off_c, 0, 59, 95
2, 457920, Note_off_c, 0, 55, 95
2, 457920, Note_on_c, 0, 67, 47
2, 457920, Note_on_c, 0, 62, 95
2, 457920, Note_on_c, 0, 59, 95
2, 457920, Note_on_c, 0, 55, 95
2, 458400, Note_off_c, 0, 67, 47
2, 458400, Note_off_c, 0, 62, 95
2, 458400, Note_off_c, 0, 59, 95
2, 458400, Note_off_c, 0, 55, 95
2, 458400, Note_on_c, 1, 69, 95
2, 458400, Note_on_c, 1, 64, 47
2, 458400, Note_on_c, 1, 61, 95
2, 458400, Note_on_c, 1, 57, 95
2, 458520, Pitch_bend_c, 1, 7936
2, 458520, Pitch_bend_c, 1, 7936
2, 458520, Pitch_bend_c, 1, 7936
2, 458520, Pitch_bend_c, 1, 7936
2, 458640, Pitch_bend_c, 1, 7552
2, 458640, Pitch_bend_c, 1, 7552
2, 458640, Pitch_bend_c, 1, 7552
2, 458640, Pitch_bend_c, 1, 7552
2, 458760, Pitch_bend_c, 1, 7168
2, 458760, Pitch_bend_c, 1, 7168
2, 458760, Pitch_bend_c, 1, 7168
2, 458760, Pitch_bend_c, 1, 7168
2, 458880, Pitch_bend_c, 1, 6784
2, 458880, Pitch_bend_c, 1, 8192
2, 458880, Note_off_c, 1, 69, 95
2, 458880, Pitch_bend_c, 1, 6784
2, 458880, Pitch_bend_c, 1, 8192
2, 458880, Note_off_c, 1, 64, 47
2, 458880, Pitch_bend_c, 1, 6784
2, 458880, Pitch_bend_c, 1, 8192
2, 458880, Note_off_c, 1, 61, 95
2, 458880, Pitch_bend_c, 1, 6784
2, 458880, Pitch_bend_c, 1, 8192
2, 458880, Note_off_c, 1, 57, 95
2, 458880, Note_on_c, 0, 67, 95
2, 458880, Note_on_c, 0, 62, 47
2, 458880, Note_on_c, 0, 59, 95
2, 458880, Note_on_c, 0, 55, 95
2, 459360, Note_off_c, 0, 67, 95
2, 459360, Note_off_c, 0, 62, 47
2, 459360, Note_off_c, 0, 59, 95
2, 459360, Note_off_c, 0, 55, 95
2, 459360, Note_on_c, 0, 67, 47
2, 459360, Note_on_c, 0, 62, 95
2, 459360, Note_on_c, 0, 59, 95
2, 459360, Note_on_c, 0, 55, 95
2, 460320, Note_off_c, 0, 67, 47
2, 460320, Note_off_c, 0, 62, 95
2, 460320, Note_off_c, 0, 59, 95
2, 460320, Note_off_c, 0, 55, 95
2, 460320, Note_on_c, 1, 67, 47
2, 460320, Note_on_c, 1, 62, 95
2, 460320, Note_on_c, 1, 59, 95
2, 460320, Note_on_c, 1, 55, 95
2, 460320, Note_on_c, 0, 48, 95
2, 460320, Note_on_c, 0, 41, 95
2, 460440, Pitch_bend_c, 1, 8960
2, 460440, Pitch_bend_c, 1, 8960
2, 460440, Pitch_bend_c, 1, 8960
2, 460440, Pitch_bend_c, 1, 8960
2, 460560, Pitch_bend_c, 1, 9856
2, 460560, Pitch_bend_c, 1, 9856
2, 460560, Pitch_bend_c, 1, 9856
2, 460560, Pitch_bend_c, 1, 9856
2, 460680, Pitch_bend_c, 1, 10752
2, 460680, Pitch_bend_c, 1, 10752
2, 460680, Pitch_bend_c, 1, 10752
2, 460680, Pitch_bend_c, 1, 10752
2, 460800, Pitch_bend_c, 1, 11648
2, 460800, Pitch_bend_c, 1, 8192
2, 460800, Note_off_c, 1, 67, 47
2, 460800, Pitch_bend_c, 1, 11648
2, 460800, Pitch_bend_c, 1, 8192
2, 460800, Note_off_c, 1, 62, 95
2, 460800, Pitch_bend_c, 1, 11648
2, 460800, Pitch_bend_c, 1, 8192
2, 460800, Note_off_c, 1, 59, 95
2, 460800, Pitch_bend_c, 1, 11648
2, 460800, Pitch_bend_c, 1, 8192
2, 460800, Note_off_c, 1, 55, 95
2, 460800, Note_off_c, 0, 48, 95
2, 460800, Note_off_c, 0, 41, 95
2, 460800, Note_on_c, 0, 72, 47
2, 460800, Note_on_c, 0, 67, 95
2, 460800, Note_on_c, 0, 64, 95
2, 460800, Note_on_c, 0, 60, 95
2, 460800, Note_on_c, 0, 55, 95
2, 460800, Note_on_c, 0, 48, 95
2, 466560, Note_off_c, 0, 72, 47
2, 466560, Note_off_c, 0, 67, 95
2, 466560, Note_off_c, 0, 64, 95
2, 466560, Note_off_c, 0, 60, 95
2, 466560, Note_off_c, 0, 55, 95
2, 466560, Note_off_c, 0, 48, 95
2, 466560, End_track
3, 0, Start_track
3, 0, Pitch_bend_c, 2, 8192
3, 0, Control_c, 2, 7, 87
3, 0, Control_c, 2, 10, 63
3, 0, Control_c, 2, 93, 15
3, 0, Control_c, 2, 91, 127
3, 0, Control_c, 2, 95, 0
3, 0, Control_c, 2, 92, 0
3, 0, Control_c, 2, 11, 127
3, 0, Program_c, 2, 33
3, 0, Control_c, 3, 7, 87
3, 0, Control_c, 3, 10, 63
3, 0, Control_c, 3, 93, 15
3, 0, Control_c, 3, 91, 127
3, 0, Control_c, 3, 95, 0
3, 0, Control_c, 3, 92, 0
3, 0, Control_c, 3, 11, 127
3, 0, Program_c, 3, 33
3, 0, Note_on_c, 2, 36, 95
3, 720, Note_off_c, 2, 36, 95
3, 720, Note_on_c, 2, 36, 95
3, 1440, Note_off_c, 2, 36, 95
3, 1440, Note_on_c, 3, 48, 95
3, 1560, Pitch_bend_c, 3, 7936
3, 1680, Pitch_bend_c, 3, 7680
3, 1800, Pitch_bend_c, 3, 7424
3, 1920, Pitch_bend_c, 3, 7168
3, 2040, Pitch_bend_c, 3, 6912
3, 2160, Pitch_bend_c, 3, 6656
3, 2280, Pitch_bend_c, 3, 6400
3, 2400, Pitch_bend_c, 3, 6144
3, 2400, Pitch_bend_c, 3, 8192
3, 2400, Note_off_c, 3, 48, 95
3, 2400, Note_on_c, 2, 45, 95
3, 2880, Note_on_c, 2, 33, 95
3, 3840, Note_off_c, 2, 45, 95
3, 3840, Note_off_c, 2, 33, 95
3, 3840, Note_on_c, 2, 33, 95
3, 4320, Note_off_c, 2, 33, 95
3, 4320, Note_on_c, 2, 45, 95
3, 5280, Note_on_c, 3, 33, 95
3, 5400, Pitch_bend_c, 3, 7552
3, 5520, Pitch_bend_c, 3, 6784
3, 5640, Pitch_bend_c, 3, 6144
3, 5760, Note_off_c, 2, 45, 95
3, 5760, Pitch_bend_c, 3, 5376
3, 5760, Pitch_bend_c, 3, 8192
3, 5760, Note_off_c, 3, 33, 95
3, 5760, Note_on_c, 2, 29, 95
3, 6720, Note_off_c, 2, 29, 95
3, 6720, Note_on_c, 2, 29, 95
3, 7200, Note_off_c, 2, 29, 95
3, 7200, Note_on_c, 2, 41, 95
3, 8160, Note_on_c, 3, 29, 95
3, 8280, Pitch_bend_c, 3, 8448
3, 8400, Pitch_bend_c, 3, 8832
3, 8520, Pitch_bend_c, 3, 9216
3, 8640, Note_off_c, 2, 41, 95
3, 8640, Pitch_bend_c, 3, 9600
3, 8640, Pitch_bend_c, 3, 8192
3, 8640, Note_off_c, 3, 29, 95
3, 8640, Note_on_c, 2, 31, 95
3, 9600, Note_off_c, 2, 31, 95
3, 9600, Note_on_c, 2, 31, 95
3, 10080, Note_off_c, 2, 31, 95
3, 10080, Note_on_c, 3, 43, 95
3, 11520, Note_off_c, 3, 43, 95
3, 11520, Note_on_c, 2, 36, 95
3, 12480, Note_off_c, 2, 36, 95
3, 12480, Note_on_c, 2, 36, 95
3, 12960, Note_on_c, 2, 48, 95
3, 13920, Note_off_c, 2, 36, 95
3, 13920, Note_on_c, 3, 36, 95
3, 14040, Pitch_bend_c, 3, 7680
3, 14160, Pitch_bend_c, 3, 7168
3, 14280, Pitch_bend_c, 3, 6656
3, 14400, Note_off_c, 2, 48, 95
3, 14400, Pitch_bend_c, 3, 6144
3, 14400, Pitch_bend_c, 3, 8192
3, 14400, Note_off_c, 3, 36, 95
3, 14400, Note_on_c, 2, 33, 95
3, 15360, Note_off_c, 2, 33, 95
3, 15360, Note_on_c, 2, 33, 95
3, 15840, Note_on_c, 2, 45, 95
3, 16800, Note_off_c, 2, 33, 95
3, 16800, Note_on_c, 3, 33, 95
3, 16920, Pitch_bend_c, 3, 7552
3, 17040, Pitch_bend_c, 3, 6784
3, 17160, Pitch_bend_c, 3, 6144
3, 17280, Note_off_c, 2, 45, 95
3, 17280, Pitch_bend_c, 3, 5376
3, 17280, Pitch_bend_c, 3, 8192
3, 17280, Note_off_c, 3, 33, 95
3, 17280, Note_on_c, 2, 29, 95
3, 18240, Note_off_c, 2, 29, 95
3, 18240, Note_on_c, 2, 29, 95
3, 18720, Note_on_c, 2, 41, 95
3, 19680, Note_off_c, 2, 29, 95
3, 19680, Note_on_c, 3, 29, 95
3, 19800, Pitch_bend_c, 3, 8448
3, 19920, Pitch_bend_c, 3, 8832
3, 20040, Pitch_bend_c, 3, 9216
3, 20160, Note_off_c, 2, 41, 95
3, 20160, Pitch_bend_c, 3, 9600
3, 20160, Pitch_bend_c, 3, 8192
3, 20160, Note_off_c, 3, 29, 95
3, 20160, Note_on_c, 2, 31, 95
3, 21120, Note_off_c, 2, 31, 95
3, 21120, Note_on_c, 2, 31, 95
3, 21600, Note_on_c, 2, 43, 95
3, 22560, Note_off_c, 2, 31, 95
3, 22560, Note_on_c, 3, 31, 95
3, 22680, Pitch_bend_c, 3, 8960
3, 22800, Pitch_bend_c, 3, 9856
3, 22920, Pitch_bend_c, 3, 10752
3, 23040, Note_off_c, 2, 43, 95
3, 23040, Pitch_bend_c, 3, 11648
3, 23040, Pitch_bend_c, 3, 8192
3, 23040, Note_off_c, 3, 31, 95
3, 23040, Note_on_c, 2, 36, 95
3, 24000, Note_off_c, 2, 36, 95
3, 24000, Note_on_c, 2, 36, 95
3, 24480, Note_on_c, 2, 48, 95
3, 25440, Note_off_c, 2, 36, 95
3, 25440, Note_on_c, 3, 36, 95
3, 25560, Pitch_bend_c, 3, 7680
3, 25680, Pitch_bend_c, 3, 7168
3, 25800, Pitch_bend_c, 3, 6656
3, 25920, Note_off_c, 2, 48, 95
3, 25920, Pitch_bend_c, 3, 6144
3, 25920, Pitch_bend_c, 3, 8192
3, 25920, Note_off_c, 3, 36, 95
3, 25920, Note_on_c, 2, 33, 95
3, 26880, Note_off_c, 2, 33, 95
3, 26880, Note_on_c, 2, 33, 95
3, 27360, Note_on_c, 2, 45, 95
3, 28320, Note_off_c, 2, 33, 95
3, 28320, Note_on_c, 3, 33, 95
3, 28440, Pitch_bend_c, 3, 7552
3, 28560, Pitch_bend_c, 3, 6784
3, 28680, Pitch_bend_c, 3, 6144
3, 28800, Note_off_c, 2, 45, 95
3, 28800, Pitch_bend_c, 3, 5376
3, 28800, Pitch_bend_c, 3, 8192
3, 28800, Note_off_c, 3, 33, 95
3, 28800, Note_on_c, 2, 29, 95
3, 29760, Note_off_c, 2, 29, 95
3, 29760, Note_on_c, 2, 29, 95
3, 30240, Note_on_c, 2, 41, 95
3, 31200, Note_off_c, 2, 29, 95
3, 31200, Note_on_c, 3, 29, 95
3, 31320, Pitch_bend_c, 3, 8448
3, 31440, Pitch_bend_c, 3, 8832
3, 31560, Pitch_bend_c, 3, 9216
3, 31680, Note_off_c, 2, 41, 95
3, 31680, Pitch_bend_c, 3, 9600
3, 31680, Pitch_bend_c, 3, 8192
3, 31680, Note_off_c, 3, 29, 95
3, 31680, Note_on_c, 2, 31, 95
3, 32640, Note_off_c, 2, 31, 95
3, 32640, Note_on_c, 2, 31, 95
3, 33120, Note_on_c, 2, 43, 95
3, 34080, Note_off_c, 2, 31, 95
3, 34080, Note_on_c, 2, 31, 95
3, 34560, Note_off_c, 2, 43, 95
3, 34560, Note_off_c, 2, 31, 95
3, 34560, Note_on_c, 2, 36, 95
3, 35520, Note_off_c, 2, 36, 95
3, 35520, Note_on_c, 2, 36, 95
3, 36000, Note_on_c, 2, 48, 95
3, 36960, Note_off_c, 2, 36, 95
3, 36960, Note_on_c, 3, 36, 95
3, 37080, Pitch_bend_c, 3, 7680
3, 37200, Pitch_bend_c, 3, 7168
3, 37320, Pitch_bend_c, 3, 6656
3, 37440, Note_off_c, 2, 48, 95
3, 37440, Pitch_bend_c, 3, 6144
3, 37440, Pitch_bend_c, 3, 8192
3, 37440, Note_off_c, 3, 36, 95
3, 37440, Note_on_c, 2, 33, 95
3, 38400, Note_off_c, 2, 33, 95
3, 38400, Note_on_c, 2, 33, 95
3, 38880, Note_on_c, 2, 45, 95
3, 39840, Note_off_c, 2, 33, 95
3, 39840, Note_on_c, 3, 33, 95
3, 39960, Pitch_bend_c, 3, 7552
3, 40080, Pitch_bend_c, 3, 6784
3, 40200, Pitch_bend_c, 3, 6144
3, 40320, Note_off_c, 2, 45, 95
3, 40320, Pitch_bend_c, 3, 5376
3, 40320, Pitch_bend_c, 3, 8192
3, 40320, Note_off_c, 3, 33, 95
3, 40320, Note_on_c, 2, 29, 95
3, 41280, Note_off_c, 2, 29, 95
3, 41280, Note_on_c, 2, 29, 95
3, 41760, Note_on_c, 2, 41, 95
3, 42720, Note_off_c, 2, 29, 95
3, 42720, Note_on_c, 3, 29, 95
3, 42840, Pitch_bend_c, 3, 8448
3, 42960, Pitch_bend_c, 3, 8832
3, 43080, Pitch_bend_c, 3, 9216
3, 43200, Note_off_c, 2, 41, 95
3, 43200, Pitch_bend_c, 3, 9600
3, 43200, Pitch_bend_c, 3, 8192
3, 43200, Note_off_c, 3, 29, 95
3, 43200, Note_on_c, 2, 31, 95
3, 44160, Note_off_c, 2, 31, 95
3, 44160, Note_on_c, 2, 31, 95
3, 44640, Note_on_c, 2, 43, 95
3, 45600, Note_off_c, 2, 31, 95
3, 45600, Note_on_c, 3, 31, 95
3, 45720, Pitch_bend_c, 3, 8960
3, 45840, Pitch_bend_c, 3, 9856
3, 45960, Pitch_bend_c, 3, 10752
3, 46080, Note_off_c, 2, 43, 95
3, 46080, Pitch_bend_c, 3, 11648
3, 46080, Pitch_bend_c, 3, 8192
3, 46080, Note_off_c, 3, 31, 95
3, 46080, Note_on_c, 2, 36, 95
3, 47040, Note_off_c, 2, 36, 95
3, 47040, Note_on_c, 2, 36, 95
3, 47520, Note_on_c, 2, 48, 95
3, 48480, Note_off_c, 2, 36, 95
3, 48480, Note_on_c, 3, 36, 95
3, 48600, Pitch_bend_c, 3, 7680
3, 48720, Pitch_bend_c, 3, 7168
3, 48840, Pitch_bend_c, 3, 6656
3, 48960, Note_off_c, 2, 48, 95
3, 48960, Pitch_bend_c, 3, 6144
3, 48960, Pitch_bend_c, 3, 8192
3, 48960, Note_off_c, 3, 36, 95
3, 48960, Note_on_c, 2, 33, 95
3, 49920, Note_off_c, 2, 33, 95
3, 49920, Note_on_c, 2, 33, 95
3, 50400, Note_on_c, 2, 45, 95
3, 51360, Note_off_c, 2, 33, 95
3, 51360, Note_on_c, 3, 33, 95
3, 51480, Pitch_bend_c, 3, 7552
3, 51600, Pitch_bend_c, 3, 6784
3, 51720, Pitch_bend_c, 3, 6144
3, 51840, Note_off_c, 2, 45, 95
3, 51840, Pitch_bend_c, 3, 5376
3, 51840, Pitch_bend_c, 3, 8192
3, 51840, Note_off_c, 3, 33, 95
3, 51840, Note_on_c, 2, 29, 95
3, 52800, Note_off_c, 2, 29, 95
3, 52800, Note_on_c, 2, 29, 95
3, 53280, Note_on_c, 2, 41, 95
3, 54240, Note_off_c, 2, 29, 95
3, 54240, Note_on_c, 3, 29, 95
3, 54360, Pitch_bend_c, 3, 8448
3, 54480, Pitch_bend_c, 3, 8832
3, 54600, Pitch_bend_c, 3, 9216
3, 54720, Note_off_c, 2, 41, 95
3, 54720, Pitch_bend_c, 3, 9600
3, 54720, Pitch_bend_c, 3, 8192
3, 54720, Note_off_c, 3, 29, 95
3, 54720, Note_on_c, 2, 31, 95
3, 55680, Note_off_c, 2, 31, 95
3, 55680, Note_on_c, 2, 31, 95
3, 56160, Note_on_c, 2, 43, 95
3, 57120, Note_off_c, 2, 31, 95
3, 57120, Note_on_c, 2, 36, 95
3, 57600, Note_off_c, 2, 43, 95
3, 57600, Note_off_c, 2, 36, 95
3, 57600, Note_on_c, 2, 36, 95
3, 58560, Note_off_c, 2, 36, 95
3, 58560, Note_on_c, 2, 36, 95
3, 59040, Note_off_c, 2, 36, 95
3, 59040, Note_on_c, 2, 36, 95
3, 59100, Note_off_c, 2, 36, 95
3, 59520, Note_on_c, 2, 36, 95
3, 59580, Note_off_c, 2, 36, 95
3, 60000, Note_on_c, 2, 36, 95
3, 60480, Note_off_c, 2, 36, 95
3, 60480, Note_on_c, 2, 33, 95
3, 61440, Note_off_c, 2, 33, 95
3, 61440, Note_on_c, 2, 33, 95
3, 61920, Note_off_c, 2, 33, 95
3, 61920, Note_on_c, 2, 33, 95
3, 61980, Note_off_c, 2, 33, 95
3, 62400, Note_on_c, 2, 33, 95
3, 62460, Note_off_c, 2, 33, 95
3, 62880, Note_on_c, 2, 33, 95
3, 63360, Note_off_c, 2, 33, 95
3, 63360, Note_on_c, 2, 29, 95
3, 64320, Note_off_c, 2, 29, 95
3, 64320, Note_on_c, 2, 29, 95
3, 64800, Note_off_c, 2, 29, 95
3, 64800, Note_on_c, 2, 29, 95
3, 64860, Note_off_c, 2, 29, 95
3, 65280, Note_on_c, 2, 29, 95
3, 65340, Note_off_c, 2, 29, 95
3, 65760, Note_on_c, 2, 29, 95
3, 66240, Note_off_c, 2, 29, 95
3, 66240, Note_on_c, 2, 31, 95
3, 67200, Note_off_c, 2, 31, 95
3, 67200, Note_on_c, 2, 31, 95
3, 67680, Note_off_c, 2, 31, 95
3, 67680, Note_on_c, 2, 31, 95
3, 67740, Note_off_c, 2, 31, 95
3, 68160, Note_on_c, 2, 31, 95
3, 68220, Note_off_c, 2, 31, 95
3, 68640, Note_on_c, 2, 31, 95
3, 69120, Note_off_c, 2, 31, 95
3, 69120, Note_on_c, 2, 36, 95
3, 70080, Note_off_c, 2, 36, 95
3, 70080, Note_on_c, 2, 36, 95
3, 70560, Note_off_c, 2, 36, 95
3, 70560, Note_on_c, 2, 36, 95
3, 70620, Note_off_c, 2, 36, 95
3, 71040, Note_on_c, 2, 36, 95
3, 71100, Note_off_c, 2, 36, 95
3, 71520, Note_on_c, 2, 36, 95
3, 72000, Note_off_c, 2, 36, 95
3, 72000, Note_on_c, 2, 33, 95
3, 72960, Note_off_c, 2, 33, 95
3, 72960, Note_on_c, 2, 33, 95
3, 73440, Note_off_c, 2, 33, 95
3, 73440, Note_on_c, 2, 33, 95
3, 73500, Note_off_c, 2, 33, 95
3, 73920, Note_on_c, 2, 33, 95
3, 73980, Note_off_c, 2, 33, 95
3, 74400, Note_on_c, 2, 33, 95
3, 74880, Note_off_c, 2, 33, 95
3, 74880, Note_on_c, 2, 29, 95
3, 75840, Note_off_c, 2, 29, 95
3, 75840, Note_on_c, 2, 29, 95
3, 76320, Note_off_c, 2, 29, 95
3, 76320, Note_on_c, 2, 29, 95
3, 76380, Note_off_c, 2, 29, 95
3, 76800, Note_on_c, 2, 29, 95
3, 76860, Note_off_c, 2, 29, 95
3, 77280, Note_on_c, 2, 29, 95
3, 77760, Note_off_c, 2, 29, 95
3, 77760, Note_on_c, 2, 31, 95
3, 78720, Note_off_c, 2, 31, 95
3, 78720, Note_on_c, 2, 31, 95
3, 79200, Note_off_c, 2, 31, 95
3, 79200, Note_on_c, 2, 31, 95
3, 79260, Note_off_c, 2, 31, 95
3, 79680, Note_on_c, 2, 31, 95
3, 79740, Note_off_c, 2, 31, 95
3, 80160, Note_on_c, 2, 31, 95
3, 80640, Note_off_c, 2, 31, 95
3, 80640, Note_on_c, 2, 36, 95
3, 81600, Note_off_c, 2, 36, 95
3, 81600, Note_on_c, 2, 36, 95
3, 82080, Note_off_c, 2, 36, 95
3, 82560, Note_on_c, 2, 36, 95
3, 82620, Note_off_c, 2, 36, 95
3, 83040, Note_on_c, 2, 36, 95
3, 83520, Note_off_c, 2, 36, 95
3, 83520, Note_on_c, 2, 33, 95
3, 84480, Note_off_c, 2, 33, 95
3, 84480, Note_on_c, 2, 33, 95
3, 84960, Note_off_c, 2, 33, 95
3, 85440, Note_on_c, 2, 33, 95
3, 85500, Note_off_c, 2, 33, 95
3, 85920, Note_on_c, 2, 33, 95
3, 86400, Note_off_c, 2, 33, 95
3, 86400, Note_on_c, 2, 29, 95
3, 87360, Note_off_c, 2, 29, 95
3, 87360, Note_on_c, 2, 29, 95
3, 87840, Note_off_c, 2, 29, 95
3, 88320, Note_on_c, 2, 29, 95
3, 88380, Note_off_c, 2, 29, 95
3, 88800, Note_on_c, 2, 29, 95
3, 89280, Note_off_c, 2, 29, 95
3, 89280, Note_on_c, 2, 31, 95
3, 90240, Note_off_c, 2, 31, 95
3, 90240, Note_on_c, 2, 31, 95
3, 90720, Note_off_c, 2, 31, 95
3, 91200, Note_on_c, 2, 31, 95
3, 91260, Note_off_c, 2, 31, 95
3, 91680, Note_on_c, 2, 31, 95
3, 92160, Note_off_c, 2, 31, 95
3, 92160, Note_on_c, 2, 36, 95
3, 93120, Note_off_c, 2, 36, 95
3, 93120, Note_on_c, 2, 36, 95
3, 93600, Note_off_c, 2, 36, 95
3, 94560, Note_on_c, 2, 36, 95
3, 95040, Note_off_c, 2, 36, 95
3, 95040, Note_on_c, 2, 33, 95
3, 96000, Note_off_c, 2, 33, 95
3, 96000, Note_on_c, 2, 33, 95
3, 96480, Note_off_c, 2, 33, 95
3, 97440, Note_on_c, 2, 33, 95
3, 97920, Note_off_c, 2, 33, 95
3, 97920, Note_on_c, 2, 29, 95
3, 98880, Note_off_c, 2, 29, 95
3, 98880, Note_on_c, 2, 29, 95
3, 99360, Note_off_c, 2, 29, 95
3, 100320, Note_on_c, 2, 29, 95
3, 100800, Note_off_c, 2, 29, 95
3, 100800, Note_on_c, 2, 31, 95
3, 101760, Note_off_c, 2, 31, 95
3, 101760, Note_on_c, 2, 31, 95
3, 102240, Note_off_c, 2, 31, 95
3, 103200, Note_on_c, 2, 31, 95
3, 103680, Note_off_c, 2, 31, 95
3, 103680, Note_on_c, 2, 36, 95
3, 104640, Note_off_c, 2, 36, 95
3, 104640, Note_on_c, 2, 36, 95
3, 105120, Note_off_c, 2, 36, 95
3, 105120, Note_on_c, 2, 36, 95
3, 105180, Note_off_c, 2, 36, 95
3, 105600, Note_on_c, 2, 36, 95
3, 105660, Note_off_c, 2, 36, 95
3, 106080, Note_on_c, 2, 36, 95
3, 106560, Note_off_c, 2, 36, 95
3, 106560, Note_on_c, 2, 33, 95
3, 107520, Note_off_c, 2, 33, 95
3, 107520, Note_on_c, 2, 33, 95
3, 108000, Note_off_c, 2, 33, 95
3, 108000, Note_on_c, 2, 33, 95
3, 108060, Note_off_c, 2, 33, 95
3, 108480, Note_on_c, 2, 33, 95
3, 108540, Note_off_c, 2, 33, 95
3, 108960, Note_on_c, 2, 33, 95
3, 109440, Note_off_c, 2, 33, 95
3, 109440, Note_on_c, 2, 29, 95
3, 110400, Note_off_c, 2, 29, 95
3, 110400, Note_on_c, 2, 29, 95
3, 110880, Note_off_c, 2, 29, 95
3, 110880, Note_on_c, 2, 29, 95
3, 110940, Note_off_c, 2, 29, 95
3, 111360, Note_on_c, 2, 29, 95
3, 111420, Note_off_c, 2, 29, 95
3, 111840, Note_on_c, 2, 29, 95
3, 112320, Note_off_c, 2, 29, 95
3, 112320, Note_on_c, 2, 31, 95
3, 113280, Note_off_c, 2, 31, 95
3, 113280, Note_on_c, 2, 31, 95
3, 113760, Note_off_c, 2, 31, 95
3, 113760, Note_on_c, 2, 31, 95
3, 113820, Note_off_c, 2, 31, 95
3, 114240, Note_on_c, 2, 31, 95
3, 114300, Note_off_c, 2, 31, 95
3, 114720, Note_on_c, 2, 31, 95
3, 115200, Note_off_c, 2, 31, 95
3, 115200, Note_on_c, 2, 36, 95
3, 116160, Note_off_c, 2, 36, 95
3, 116160, Note_on_c, 2, 36, 95
3, 116640, Note_off_c, 2, 36, 95
3, 116640, Note_on_c, 2, 36, 95
3, 116700, Note_off_c, 2, 36, 95
3, 117120, Note_on_c, 2, 36, 95
3, 117180, Note_off_c, 2, 36, 95
3, 117600, Note_on_c, 2, 36, 95
3, 118080, Note_off_c, 2, 36, 95
3, 118080, Note_on_c, 2, 33, 95
3, 119040, Note_off_c, 2, 33, 95
3, 119040, Note_on_c, 2, 33, 95
3, 119520, Note_off_c, 2, 33, 95
3, 119520, Note_on_c, 2, 33, 95
3, 119580, Note_off_c, 2, 33, 95
3, 120000, Note_on_c, 2, 33, 95
3, 120060, Note_off_c, 2, 33, 95
3, 120480, Note_on_c, 2, 33, 95
3, 120960, Note_off_c, 2, 33, 95
3, 120960, Note_on_c, 2, 29, 95
3, 121920, Note_off_c, 2, 29, 95
3, 121920, Note_on_c, 2, 29, 95
3, 122400, Note_off_c, 2, 29, 95
3, 122400, Note_on_c, 2, 29, 95
3, 122460, Note_off_c, 2, 29, 95
3, 122880, Note_on_c, 2, 29, 95
3, 122940, Note_off_c, 2, 29, 95
3, 123360, Note_on_c, 2, 29, 95
3, 123840, Note_off_c, 2, 29, 95
3, 123840, Note_on_c, 2, 31, 95
3, 124800, Note_off_c, 2, 31, 95
3, 124800, Note_on_c, 2, 31, 95
3, 125280, Note_off_c, 2, 31, 95
3, 125280, Note_on_c, 2, 31, 95
3, 125340, Note_off_c, 2, 31, 95
3, 125760, Note_on_c, 2, 31, 95
3, 125820, Note_off_c, 2, 31, 95
3, 126240, Note_on_c, 2, 31, 95
3, 126720, Note_off_c, 2, 31, 95
3, 126720, Note_on_c, 2, 36, 95
3, 127680, Note_off_c, 2, 36, 95
3, 127680, Note_on_c, 2, 36, 95
3, 128160, Note_off_c, 2, 36, 95
3, 128160, Note_on_c, 2, 36, 95
3, 128220, Note_off_c, 2, 36, 95
3, 128640, Note_on_c, 2, 36, 95
3, 128700, Note_off_c, 2, 36, 95
3, 129120, Note_on_c, 2, 36, 95
3, 129600, Note_off_c, 2, 36, 95
3, 129600, Note_on_c, 2, 33, 95
3, 130560, Note_off_c, 2, 33, 95
3, 130560, Note_on_c, 2, 33, 95
3, 131040, Note_off_c, 2, 33, 95
3, 131040, Note_on_c, 2, 33, 95
3, 131100, Note_off_c, 2, 33, 95
3, 131520, Note_on_c, 2, 33, 95
3, 131580, Note_off_c, 2, 33, 95
3, 132000, Note_on_c, 2, 33, 95
3, 132480, Note_off_c, 2, 33, 95
3, 132480, Note_on_c, 2, 29, 95
3, 133440, Note_off_c, 2, 29, 95
3, 133440, Note_on_c, 2, 29, 95
3, 133920, Note_off_c, 2, 29, 95
3, 133920, Note_on_c, 2, 29, 95
3, 133980, Note_off_c, 2, 29, 95
3, 134400, Note_on_c, 2, 29, 95
3, 134460, Note_off_c, 2, 29, 95
3, 134880, Note_on_c, 2, 29, 95
3, 135360, Note_off_c, 2, 29, 95
3, 135360, Note_on_c, 2, 31, 95
3, 136320, Note_off_c, 2, 31, 95
3, 136320, Note_on_c, 2, 31, 95
3, 136800, Note_off_c, 2, 31, 95
3, 136800, Note_on_c, 2, 31, 95
3, 136860, Note_off_c, 2, 31, 95
3, 137280, Note_on_c, 2, 31, 95
3, 137340, Note_off_c, 2, 31, 95
3, 137760, Note_on_c, 2, 31, 95
3, 138240, Note_off_c, 2, 31, 95
3, 138240, Note_on_c, 2, 36, 95
3, 139200, Note_off_c, 2, 36, 95
3, 139200, Note_on_c, 2, 36, 95
3, 139680, Note_off_c, 2, 36, 95
3, 139680, Note_on_c, 2, 36, 95
3, 139740, Note_off_c, 2, 36, 95
3, 140160, Note_on_c, 2, 36, 95
3, 140220, Note_off_c, 2, 36, 95
3, 140640, Note_on_c, 2, 36, 95
3, 141120, Note_off_c, 2, 36, 95
3, 141120, Note_on_c, 2, 33, 95
3, 142080, Note_off_c, 2, 33, 95
3, 142080, Note_on_c, 2, 33, 95
3, 142560, Note_off_c, 2, 33, 95
3, 142560, Note_on_c, 2, 33, 95
3, 142620, Note_off_c, 2, 33, 95
3, 143040, Note_on_c, 2, 33, 95
3, 143100, Note_off_c, 2, 33, 95
3, 143520, Note_on_c, 2, 33, 95
3, 144000, Note_off_c, 2, 33, 95
3, 144000, Note_on_c, 2, 29, 95
3, 144960, Note_off_c, 2, 29, 95
3, 144960, Note_on_c, 2, 29, 95
3, 145440, Note_off_c, 2, 29, 95
3, 145440, Note_on_c, 2, 29, 95
3, 145500, Note_off_c, 2, 29, 95
3, 145920, Note_on_c, 2, 29, 95
3, 145980, Note_off_c, 2, 29, 95
3, 146400, Note_on_c, 2, 29, 95
3, 146880, Note_off_c, 2, 29, 95
3, 146880, Note_on_c, 2, 31, 95
3, 147840, Note_off_c, 2, 31, 95
3, 147840, Note_on_c, 2, 31, 95
3, 148320, Note_off_c, 2, 31, 95
3, 148320, Note_on_c, 2, 31, 95
3, 148380, Note_off_c, 2, 31, 95
3, 148800, Note_on_c, 2, 31, 95
3, 148860, Note_off_c, 2, 31, 95
3, 149280, Note_on_c, 3, 31, 95
3, 149400, Pitch_bend_c, 3, 8960
3, 149520, Pitch_bend_c, 3, 9856
3, 149640, Pitch_bend_c, 3, 10752
3, 149760, Pitch_bend_c, 3, 11648
3, 149760, Pitch_bend_c, 3, 8192
3, 149760, Note_off_c, 3, 31, 95
3, 149760, Note_on_c, 2, 36, 95
3, 150720, Note_off_c, 2, 36, 95
3, 150720, Note_on_c, 2, 36, 95
3, 151200, Note_off_c, 2, 36, 95
3, 151200, Note_on_c, 2, 36, 95
3, 151260, Note_off_c, 2, 36, 95
3, 151680, Note_on_c, 2, 36, 95
3, 151740, Note_off_c, 2, 36, 95
3, 152160, Note_on_c, 2, 36, 95
3, 152640, Note_off_c, 2, 36, 95
3, 152640, Note_on_c, 2, 33, 95
3, 153600, Note_off_c, 2, 33, 95
3, 153600, Note_on_c, 2, 33, 95
3, 154080, Note_off_c, 2, 33, 95
3, 154080, Note_on_c, 2, 33, 95
3, 154140, Note_off_c, 2, 33, 95
3, 154560, Note_on_c, 2, 33, 95
3, 154620, Note_off_c, 2, 33, 95
3, 155040, Note_on_c, 2, 33, 95
3, 155520, Note_off_c, 2, 33, 95
3, 155520, Note_on_c, 2, 29, 95
3, 156480, Note_off_c, 2, 29, 95
3, 156480, Note_on_c, 2, 29, 95
3, 156960, Note_off_c, 2, 29, 95
3, 156960, Note_on_c, 2, 29, 95
3, 157020, Note_off_c, 2, 29, 95
3, 157440, Note_on_c, 2, 29, 95
3, 157500, Note_off_c, 2, 29, 95
3, 157920, Note_on_c, 2, 29, 95
3, 158400, Note_off_c, 2, 29, 95
3, 158400, Note_on_c, 2, 31, 95
3, 159360, Note_off_c, 2, 31, 95
3, 159360, Note_on_c, 2, 31, 95
3, 159840, Note_off_c, 2, 31, 95
3, 159840, Note_on_c, 2, 31, 95
3, 159900, Note_off_c, 2, 31, 95
3, 160320, Note_on_c, 2, 31, 95
3, 160380, Note_off_c, 2, 31, 95
3, 160800, Note_on_c, 2, 31, 95
3, 161280, Note_off_c, 2, 31, 95
3, 161280, Note_on_c, 2, 36, 95
3, 162240, Note_off_c, 2, 36, 95
3, 162240, Note_on_c, 2, 36, 95
3, 162720, Note_off_c, 2, 36, 95
3, 162720, Note_on_c, 2, 36, 95
3, 162780, Note_off_c, 2, 36, 95
3, 163200, Note_on_c, 2, 36, 95
3, 163260, Note_off_c, 2, 36, 95
3, 163680, Note_on_c, 2, 36, 95
3, 164160, Note_off_c, 2, 36, 95
3, 164160, Note_on_c, 2, 33, 95
3, 165120, Note_off_c, 2, 33, 95
3, 165120, Note_on_c, 2, 33, 95
3, 165600, Note_off_c, 2, 33, 95
3, 165600, Note_on_c, 2, 33, 95
3, 165660, Note_off_c, 2, 33, 95
3, 166080, Note_on_c, 2, 33, 95
3, 166140, Note_off_c, 2, 33, 95
3, 166560, Note_on_c, 2, 33, 95
3, 167040, Note_off_c, 2, 33, 95
3, 167040, Note_on_c, 2, 29, 95
3, 168000, Note_off_c, 2, 29, 95
3, 168000, Note_on_c, 2, 29, 95
3, 168480, Note_off_c, 2, 29, 95
3, 168480, Note_on_c, 2, 29, 95
3, 168540, Note_off_c, 2, 29, 95
3, 168960, Note_on_c, 2, 29, 95
3, 169020, Note_off_c, 2, 29, 95
3, 169440, Note_on_c, 2, 29, 95
3, 169920, Note_off_c, 2, 29, 95
3, 169920, Note_on_c, 2, 31, 95
3, 170880, Note_off_c, 2, 31, 95
3, 170880, Note_on_c, 2, 31, 95
3, 171360, Note_off_c, 2, 31, 95
3, 171360, Note_on_c, 2, 31, 95
3, 171420, Note_off_c, 2, 31, 95
3, 171840, Note_on_c, 2, 31, 95
3, 171900, Note_off_c, 2, 31, 95
3, 172320, Note_on_c, 2, 31, 95
3, 172800, Note_off_c, 2, 31, 95
3, 172800, Note_on_c, 2, 36, 95
3, 173760, Note_off_c, 2, 36, 95
3, 173760, Note_on_c, 2, 36, 95
3, 174240, Note_off_c, 2, 36, 95
3, 174240, Note_on_c, 2, 36, 95
3, 174300, Note_off_c, 2, 36, 95
3, 174720, Note_on_c, 2, 36, 95
3, 174780, Note_off_c, 2, 36, 95
3, 175200, Note_on_c, 2, 36, 95
3, 175680, Note_off_c, 2, 36, 95
3, 175680, Note_on_c, 2, 33, 95
3, 176640, Note_off_c, 2, 33, 95
3, 176640, Note_on_c, 2, 33, 95
3, 177120, Note_off_c, 2, 33, 95
3, 177120, Note_on_c, 2, 33, 95
3, 177180, Note_off_c, 2, 33, 95
3, 177600, Note_on_c, 2, 33, 95
3, 177660, Note_off_c, 2, 33, 95
3, 178080, Note_on_c, 2, 33, 95
3, 178560, Note_off_c, 2, 33, 95
3, 178560, Note_on_c, 2, 29, 95
3, 179520, Note_off_c, 2, 29, 95
3, 179520, Note_on_c, 2, 29, 95
3, 180000, Note_off_c, 2, 29, 95
3, 180000, Note_on_c, 2, 29, 95
3, 180060, Note_off_c, 2, 29, 95
3, 180480, Note_on_c, 2, 29, 95
3, 180540, Note_off_c, 2, 29, 95
3, 180960, Note_on_c, 2, 29, 95
3, 181440, Note_off_c, 2, 29, 95
3, 181440, Note_on_c, 2, 31, 95
3, 182400, Note_off_c, 2, 31, 95
3, 182400, Note_on_c, 2, 31, 95
3, 182880, Note_off_c, 2, 31, 95
3, 182880, Note_on_c, 2, 31, 95
3, 182940, Note_off_c, 2, 31, 95
3, 183360, Note_on_c, 2, 31, 95
3, 183420, Note_off_c, 2, 31, 95
3, 183840, Note_on_c, 2, 31, 95
3, 184320, Note_off_c, 2, 31, 95
3, 184320, Note_on_c, 2, 36, 95
3, 185280, Note_off_c, 2, 36, 95
3, 185280, Note_on_c, 2, 36, 95
3, 185760, Note_off_c, 2, 36, 95
3, 185760, Note_on_c, 2, 36, 95
3, 185820, Note_off_c, 2, 36, 95
3, 186240, Note_on_c, 2, 36, 95
3, 186300, Note_off_c, 2, 36, 95
3, 186720, Note_on_c, 2, 36, 95
3, 187200, Note_off_c, 2, 36, 95
3, 187200, Note_on_c, 2, 33, 95
3, 188160, Note_off_c, 2, 33, 95
3, 188160, Note_on_c, 2, 33, 95
3, 188640, Note_off_c, 2, 33, 95
3, 188640, Note_on_c, 2, 33, 95
3, 188700, Note_off_c, 2, 33, 95
3, 189120, Note_on_c, 2, 33, 95
3, 189180, Note_off_c, 2, 33, 95
3, 189600, Note_on_c, 2, 33, 95
3, 190080, Note_off_c, 2, 33, 95
3, 190080, Note_on_c, 2, 29, 95
3, 191040, Note_off_c, 2, 29, 95
3, 191040, Note_on_c, 2, 29, 95
3, 191520, Note_off_c, 2, 29, 95
3, 191520, Note_on_c, 2, 29, 95
3, 191580, Note_off_c, 2, 29, 95
3, 192000, Note_on_c, 2, 29, 95
3, 192060, Note_off_c, 2, 29, 95
3, 192480, Note_on_c, 2, 29, 95
3, 192960, Note_off_c, 2, 29, 95
3, 192960, Note_on_c, 2, 31, 95
3, 193920, Note_off_c, 2, 31, 95
3, 193920, Note_on_c, 2, 31, 95
3, 194400, Note_off_c, 2, 31, 95
3, 194400, Note_on_c, 2, 31, 95
3, 194460, Note_off_c, 2, 31, 95
3, 194880, Note_on_c, 2, 31, 95
3, 194940, Note_off_c, 2, 31, 95
3, 195360, Note_on_c, 2, 31, 95
3, 195840, Note_off_c, 2, 31, 95
3, 195840, Note_on_c, 2, 36, 95
3, 196800, Note_off_c, 2, 36, 95
3, 196800, Note_on_c, 2, 36, 95
3, 197280, Note_off_c, 2, 36, 95
3, 197280, Note_on_c, 2, 36, 95
3, 197340, Note_off_c, 2, 36, 95
3, 197760, Note_on_c, 2, 36, 95
3, 197820, Note_off_c, 2, 36, 95
3, 198240, Note_on_c, 2, 36, 95
3, 198720, Note_off_c, 2, 36, 95
3, 198720, Note_on_c, 2, 33, 95
3, 199680, Note_off_c, 2, 33, 95
3, 199680, Note_on_c, 2, 33, 95
3, 200160, Note_off_c, 2, 33, 95
3, 200160, Note_on_c, 2, 33, 95
3, 200220, Note_off_c, 2, 33, 95
3, 200640, Note_on_c, 2, 33, 95
3, 200700, Note_off_c, 2, 33, 95
3, 201120, Note_on_c, 2, 33, 95
3, 201600, Note_off_c, 2, 33, 95
3, 201600, Note_on_c, 2, 29, 95
3, 202560, Note_off_c, 2, 29, 95
3, 202560, Note_on_c, 2, 29, 95
3, 203040, Note_off_c, 2, 29, 95
3, 203040, Note_on_c, 2, 29, 95
3, 203100, Note_off_c, 2, 29, 95
3, 203520, Note_on_c, 2, 29, 95
3, 203580, Note_off_c, 2, 29, 95
3, 204000, Note_on_c, 2, 29, 95
3, 204480, Note_off_c, 2, 29, 95
3, 204480, Note_on_c, 2, 31, 95
3, 205440, Note_off_c, 2, 31, 95
3, 205440, Note_on_c, 2, 31, 95
3, 205920, Note_off_c, 2, 31, 95
3, 205920, Note_on_c, 2, 31, 95
3, 205980, Note_off_c, 2, 31, 95
3, 206400, Note_on_c, 2, 31, 95
3, 206460, Note_off_c, 2, 31, 95
3, 206880, Note_on_c, 2, 31, 95
3, 207360, Note_off_c, 2, 31, 95
3, 207360, Note_on_c, 2, 36, 95
3, 208320, Note_off_c, 2, 36, 95
3, 208320, Note_on_c, 2, 36, 95
3, 208800, Note_on_c, 2, 48, 95
3, 209760, Note_off_c, 2, 36, 95
3, 209760, Note_on_c, 3, 36, 95
3, 209880, Pitch_bend_c, 3, 7680
3, 210000, Pitch_bend_c, 3, 7168
3, 210120, Pitch_bend_c, 3, 6656
3, 210240, Note_off_c, 2, 48, 95
3, 210240, Pitch_bend_c, 3, 6144
3, 210240, Pitch_bend_c, 3, 8192
3, 210240, Note_off_c, 3, 36, 95
3, 210240, Note_on_c, 2, 33, 95
3, 211200, Note_off_c, 2, 33, 95
3, 211200, Note_on_c, 2, 33, 95
3, 211680, Note_on_c, 2, 45, 95
3, 212640, Note_off_c, 2, 33, 95
3, 212640, Note_on_c, 3, 33, 95
3, 212760, Pitch_bend_c, 3, 7552
3, 212880, Pitch_bend_c, 3, 6784
3, 213000, Pitch_bend_c, 3, 6144
3, 213120, Note_off_c, 2, 45, 95
3, 213120, Pitch_bend_c, 3, 5376
3, 213120, Pitch_bend_c, 3, 8192
3, 213120, Note_off_c, 3, 33, 95
3, 213120, Note_on_c, 2, 29, 95
3, 214080, Note_off_c, 2, 29, 95
3, 214080, Note_on_c, 2, 29, 95
3, 214560, Note_on_c, 2, 41, 95
3, 215520, Note_off_c, 2, 29, 95
3, 215520, Note_on_c, 3, 29, 95
3, 215640, Pitch_bend_c, 3, 8448
3, 215760, Pitch_bend_c, 3, 8832
3, 215880, Pitch_bend_c, 3, 9216
3, 216000, Note_off_c, 2, 41, 95
3, 216000, Pitch_bend_c, 3, 9600
3, 216000, Pitch_bend_c, 3, 8192
3, 216000, Note_off_c, 3, 29, 95
3, 216000, Note_on_c, 2, 31, 95
3, 216960, Note_off_c, 2, 31, 95
3, 216960, Note_on_c, 2, 31, 95
3, 217440, Note_on_c, 2, 43, 95
3, 218400, Note_off_c, 2, 31, 95
3, 218400, Note_on_c, 3, 31, 95
3, 218520, Pitch_bend_c, 3, 8960
3, 218640, Pitch_bend_c, 3, 9856
3, 218760, Pitch_bend_c, 3, 10752
3, 218880, Note_off_c, 2, 43, 95
3, 218880, Pitch_bend_c, 3, 11648
3, 218880, Pitch_bend_c, 3, 8192
3, 218880, Note_off_c, 3, 31, 95
3, 218880, Note_on_c, 2, 36, 95
3, 219840, Note_off_c, 2, 36, 95
3, 219840, Note_on_c, 2, 36, 95
3, 220320, Note_on_c, 2, 48, 95
3, 221280, Note_off_c, 2, 36, 95
3, 221280, Note_on_c, 3, 36, 95
3, 221400, Pitch_bend_c, 3, 7680
3, 221520, Pitch_bend_c, 3, 7168
3, 221640, Pitch_bend_c, 3, 6656
3, 221760, Note_off_c, 2, 48, 95
3, 221760, Pitch_bend_c, 3, 6144
3, 221760, Pitch_bend_c, 3, 8192
3, 221760, Note_off_c, 3, 36, 95
3, 221760, Note_on_c, 2, 33, 95
3, 222720, Note_off_c, 2, 33, 95
3, 222720, Note_on_c, 2, 33, 95
3, 223200, Note_on_c, 2, 45, 95
3, 224160, Note_off_c, 2, 33, 95
3, 224160, Note_on_c, 3, 33, 95
3, 224280, Pitch_bend_c, 3, 7552
3, 224400, Pitch_bend_c, 3, 6784
3, 224520, Pitch_bend_c, 3, 6144
3, 224640, Note_off_c, 2, 45, 95
3, 224640, Pitch_bend_c, 3, 5376
3, 224640, Pitch_bend_c, 3, 8192
3, 224640, Note_off_c, 3, 33, 95
3, 224640, Note_on_c, 2, 29, 95
3, 225600, Note_off_c, 2, 29, 95
3, 225600, Note_on_c, 2, 29, 95
3, 226080, Note_on_c, 2, 41, 95
3, 227040, Note_off_c, 2, 29, 95
3, 227040, Note_on_c, 3, 29, 95
3, 227160, Pitch_bend_c, 3, 8448
3, 227280, Pitch_bend_c, 3, 8832
3, 227400, Pitch_bend_c, 3, 9216
3, 227520, Note_off_c, 2, 41, 95
3, 227520, Pitch_bend_c, 3, 9600
3, 227520, Pitch_bend_c, 3, 8192
3, 227520, Note_off_c, 3, 29, 95
3, 227520, Note_on_c, 2, 31, 95
3, 228480, Note_off_c, 2, 31, 95
3, 228480, Note_on_c, 2, 31, 95
3, 228960, Note_on_c, 2, 43, 95
3, 229920, Note_off_c, 2, 31, 95
3, 229920, Note_on_c, 3, 31, 95
3, 230040, Pitch_bend_c, 3, 8960
3, 230160, Pitch_bend_c, 3, 9856
3, 230280, Pitch_bend_c, 3, 10752
3, 230400, Note_off_c, 2, 43, 95
3, 230400, Pitch_bend_c, 3, 11648
3, 230400, Pitch_bend_c, 3, 8192
3, 230400, Note_off_c, 3, 31, 95
3, 230400, Note_on_c, 2, 36, 95
3, 231360, Note_off_c, 2, 36, 95
3, 231360, Note_on_c, 2, 36, 95
3, 231840, Note_on_c, 2, 48, 95
3, 232800, Note_off_c, 2, 36, 95
3, 232800, Note_on_c, 3, 36, 95
3, 232920, Pitch_bend_c, 3, 7680
3, 233040, Pitch_bend_c, 3, 7168
3, 233160, Pitch_bend_c, 3, 6656
3, 233280, Note_off_c, 2, 48, 95
3, 233280, Pitch_bend_c, 3, 6144
3, 233280, Pitch_bend_c, 3, 8192
3, 233280, Note_off_c, 3, 36, 95
3, 233280, Note_on_c, 2, 33, 95
3, 234240, Note_off_c, 2, 33, 95
3, 234240, Note_on_c, 2, 33, 95
3, 234720, Note_on_c, 2, 45, 95
3, 235680, Note_off_c, 2, 33, 95
3, 235680, Note_on_c, 3, 33, 95
3, 235800, Pitch_bend_c, 3, 7552
3, 235920, Pitch_bend_c, 3, 6784
3, 236040, Pitch_bend_c, 3, 6144
3, 236160, Note_off_c, 2, 45, 95
3, 236160, Pitch_bend_c, 3, 5376
3, 236160, Pitch_bend_c, 3, 8192
3, 236160, Note_off_c, 3, 33, 95
3, 236160, Note_on_c, 2, 29, 95
3, 237120, Note_off_c, 2, 29, 95
3, 237120, Note_on_c, 2, 29, 95
3, 237600, Note_on_c, 2, 41, 95
3, 238560, Note_off_c, 2, 29, 95
3, 238560, Note_on_c, 3, 29, 95
3, 238680, Pitch_bend_c, 3, 8448
3, 238800, Pitch_bend_c, 3, 8832
3, 238920, Pitch_bend_c, 3, 9216
3, 239040, Note_off_c, 2, 41, 95
3, 239040, Pitch_bend_c, 3, 9600
3, 239040, Pitch_bend_c, 3, 8192
3, 239040, Note_off_c, 3, 29, 95
3, 239040, Note_on_c, 2, 31, 95
3, 240000, Note_off_c, 2, 31, 95
3, 240000, Note_on_c, 2, 31, 95
3, 240480, Note_on_c, 2, 43, 95
3, 241440, Note_off_c, 2, 31, 95
3, 241440, Note_on_c, 3, 31, 95
3, 241560, Pitch_bend_c, 3, 8960
3, 241680, Pitch_bend_c, 3, 9856
3, 241800, Pitch_bend_c, 3, 10752
3, 241920, Note_off_c, 2, 43, 95
3, 241920, Pitch_bend_c, 3, 11648
3, 241920, Pitch_bend_c, 3, 8192
3, 241920, Note_off_c, 3, 31, 95
3, 241920, Note_on_c, 2, 36, 95
3, 242880, Note_off_c, 2, 36, 95
3, 242880, Note_on_c, 2, 36, 95
3, 243360, Note_on_c, 2, 48, 95
3, 244320, Note_off_c, 2, 36, 95
3, 244320, Note_on_c, 3, 36, 95
3, 244440, Pitch_bend_c, 3, 7680
3, 244560, Pitch_bend_c, 3, 7168
3, 244680, Pitch_bend_c, 3, 6656
3, 244800, Note_off_c, 2, 48, 95
3, 244800, Pitch_bend_c, 3, 6144
3, 244800, Pitch_bend_c, 3, 8192
3, 244800, Note_off_c, 3, 36, 95
3, 244800, Note_on_c, 2, 33, 95
3, 245760, Note_off_c, 2, 33, 95
3, 245760, Note_on_c, 2, 33, 95
3, 246240, Note_on_c, 2, 45, 95
3, 247200, Note_off_c, 2, 33, 95
3, 247200, Note_on_c, 3, 33, 95
3, 247320, Pitch_bend_c, 3, 7552
3, 247440, Pitch_bend_c, 3, 6784
3, 247560, Pitch_bend_c, 3, 6144
3, 247680, Note_off_c, 2, 45, 95
3, 247680, Pitch_bend_c, 3, 5376
3, 247680, Pitch_bend_c, 3, 8192
3, 247680, Note_off_c, 3, 33, 95
3, 247680, Note_on_c, 2, 29, 95
3, 248640, Note_off_c, 2, 29, 95
3, 248640, Note_on_c, 2, 29, 95
3, 249120, Note_on_c, 2, 41, 95
3, 250080, Note_off_c, 2, 29, 95
3, 250080, Note_on_c, 3, 29, 95
3, 250200, Pitch_bend_c, 3, 8448
3, 250320, Pitch_bend_c, 3, 8832
3, 250440, Pitch_bend_c, 3, 9216
3, 250560, Note_off_c, 2, 41, 95
3, 250560, Pitch_bend_c, 3, 9600
3, 250560, Pitch_bend_c, 3, 8192
3, 250560, Note_off_c, 3, 29, 95
3, 250560, Note_on_c, 2, 31, 95
3, 251520, Note_off_c, 2, 31, 95
3, 251520, Note_on_c, 2, 31, 95
3, 252000, Note_on_c, 2, 43, 95
3, 252960, Note_off_c, 2, 31, 95
3, 252960, Note_on_c, 3, 31, 95
3, 253080, Pitch_bend_c, 3, 8960
3, 253200, Pitch_bend_c, 3, 9856
3, 253320, Pitch_bend_c, 3, 10752
3, 253440, Note_off_c, 2, 43, 95
3, 253440, Pitch_bend_c, 3, 11648
3, 253440, Pitch_bend_c, 3, 8192
3, 253440, Note_off_c, 3, 31, 95
3, 253440, Note_on_c, 2, 36, 95
3, 254400, Note_off_c, 2, 36, 95
3, 254400, Note_on_c, 2, 36, 95
3, 254880, Note_on_c, 2, 48, 95
3, 255840, Note_off_c, 2, 36, 95
3, 255840, Note_on_c, 3, 36, 95
3, 255960, Pitch_bend_c, 3, 7680
3, 256080, Pitch_bend_c, 3, 7168
3, 256200, Pitch_bend_c, 3, 6656
3, 256320, Note_off_c, 2, 48, 95
3, 256320, Pitch_bend_c, 3, 6144
3, 256320, Pitch_bend_c, 3, 8192
3, 256320, Note_off_c, 3, 36, 95
3, 256320, Note_on_c, 2, 33, 95
3, 257280, Note_off_c, 2, 33, 95
3, 257280, Note_on_c, 2, 33, 95
3, 257760, Note_on_c, 2, 45, 95
3, 258720, Note_off_c, 2, 33, 95
3, 258720, Note_on_c, 3, 33, 95
3, 258840, Pitch_bend_c, 3, 7552
3, 258960, Pitch_bend_c, 3, 6784
3, 259080, Pitch_bend_c, 3, 6144
3, 259200, Note_off_c, 2, 45, 95
3, 259200, Pitch_bend_c, 3, 5376
3, 259200, Pitch_bend_c, 3, 8192
3, 259200, Note_off_c, 3, 33, 95
3, 259200, Note_on_c, 2, 29, 95
3, 260160, Note_off_c, 2, 29, 95
3, 260160, Note_on_c, 2, 29, 95
3, 260640, Note_on_c, 2, 41, 95
3, 261600, Note_off_c, 2, 29, 95
3, 261600, Note_on_c, 3, 29, 95
3, 261720, Pitch_bend_c, 3, 8448
3, 261840, Pitch_bend_c, 3, 8832
3, 261960, Pitch_bend_c, 3, 9216
3, 262080, Note_off_c, 2, 41, 95
3, 262080, Pitch_bend_c, 3, 9600
3, 262080, Pitch_bend_c, 3, 8192
3, 262080, Note_off_c, 3, 29, 95
3, 262080, Note_on_c, 2, 31, 95
3, 263040, Note_off_c, 2, 31, 95
3, 263040, Note_on_c, 2, 31, 95
3, 263520, Note_on_c, 2, 43, 95
3, 264480, Note_off_c, 2, 31, 95
3, 264480, Note_on_c, 3, 31, 95
3, 264600, Pitch_bend_c, 3, 8960
3, 264720, Pitch_bend_c, 3, 9856
3, 264840, Pitch_bend_c, 3, 10752
3, 264960, Note_off_c, 2, 43, 95
3, 264960, Pitch_bend_c, 3, 11648
3, 264960, Pitch_bend_c, 3, 8192
3, 264960, Note_off_c, 3, 31, 95
3, 264960, Note_on_c, 2, 36, 95
3, 265920, Note_off_c, 2, 36, 95
3, 265920, Note_on_c, 2, 36, 95
3, 266400, Note_on_c, 2, 48, 95
3, 267360, Note_off_c, 2, 36, 95
3, 267360, Note_on_c, 3, 36, 95
3, 267480, Pitch_bend_c, 3, 7680
3, 267600, Pitch_bend_c, 3, 7168
3, 267720, Pitch_bend_c, 3, 6656
3, 267840, Note_off_c, 2, 48, 95
3, 267840, Pitch_bend_c, 3, 6144
3, 267840, Pitch_bend_c, 3, 8192
3, 267840, Note_off_c, 3, 36, 95
3, 267840, Note_on_c, 2, 33, 95
3, 268800, Note_off_c, 2, 33, 95
3, 268800, Note_on_c, 2, 33, 95
3, 269280, Note_on_c, 2, 45, 95
3, 270240, Note_off_c, 2, 33, 95
3, 270240, Note_on_c, 3, 33, 95
3, 270360, Pitch_bend_c, 3, 7552
3, 270480, Pitch_bend_c, 3, 6784
3, 270600, Pitch_bend_c, 3, 6144
3, 270720, Note_off_c, 2, 45, 95
3, 270720, Pitch_bend_c, 3, 5376
3, 270720, Pitch_bend_c, 3, 8192
3, 270720, Note_off_c, 3, 33, 95
3, 270720, Note_on_c, 2, 29, 95
3, 271680, Note_off_c, 2, 29, 95
3, 271680, Note_on_c, 2, 29, 95
3, 272160, Note_on_c, 2, 41, 95
3, 273120, Note_off_c, 2, 29, 95
3, 273120, Note_on_c, 3, 29, 95
3, 273240, Pitch_bend_c, 3, 8448
3, 273360, Pitch_bend_c, 3, 8832
3, 273480, Pitch_bend_c, 3, 9216
3, 273600, Note_off_c, 2, 41, 95
3, 273600, Pitch_bend_c, 3, 9600
3, 273600, Pitch_bend_c, 3, 8192
3, 273600, Note_off_c, 3, 29, 95
3, 273600, Note_on_c, 2, 31, 95
3, 274560, Note_off_c, 2, 31, 95
3, 274560, Note_on_c, 2, 31, 95
3, 275040, Note_on_c, 2, 43, 95
3, 276000, Note_off_c, 2, 31, 95
3, 276000, Note_on_c, 3, 31, 95
3, 276120, Pitch_bend_c, 3, 8960
3, 276240, Pitch_bend_c, 3, 9856
3, 276360, Pitch_bend_c, 3, 10752
3, 276480, Note_off_c, 2, 43, 95
3, 276480, Pitch_bend_c, 3, 11648
3, 276480, Pitch_bend_c, 3, 8192
3, 276480, Note_off_c, 3, 31, 95
3, 276480, Note_on_c, 2, 36, 95
3, 277440, Note_off_c, 2, 36, 95
3, 277440, Note_on_c, 2, 36, 95
3, 277920, Note_on_c, 2, 48, 95
3, 278880, Note_off_c, 2, 36, 95
3, 278880, Note_on_c, 3, 36, 95
3, 279000, Pitch_bend_c, 3, 7680
3, 279120, Pitch_bend_c, 3, 7168
3, 279240, Pitch_bend_c, 3, 6656
3, 279360, Note_off_c, 2, 48, 95
3, 279360, Pitch_bend_c, 3, 6144
3, 279360, Pitch_bend_c, 3, 8192
3, 279360, Note_off_c, 3, 36, 95
3, 279360, Note_on_c, 2, 33, 95
3, 280320, Note_off_c, 2, 33, 95
3, 280320, Note_on_c, 2, 33, 95
3, 280800, Note_on_c, 2, 45, 95
3, 281760, Note_off_c, 2, 33, 95
3, 281760, Note_on_c, 3, 33, 95
3, 281880, Pitch_bend_c, 3, 7552
3, 282000, Pitch_bend_c, 3, 6784
3, 282120, Pitch_bend_c, 3, 6144
3, 282240, Note_off_c, 2, 45, 95
3, 282240, Pitch_bend_c, 3, 5376
3, 282240, Pitch_bend_c, 3, 8192
3, 282240, Note_off_c, 3, 33, 95
3, 282240, Note_on_c, 2, 29, 95
3, 283200, Note_off_c, 2, 29, 95
3, 283200, Note_on_c, 2, 29, 95
3, 283680, Note_on_c, 2, 41, 95
3, 284640, Note_off_c, 2, 29, 95
3, 284640, Note_on_c, 3, 29, 95
3, 284760, Pitch_bend_c, 3, 8448
3, 284880, Pitch_bend_c, 3, 8832
3, 285000, Pitch_bend_c, 3, 9216
3, 285120, Note_off_c, 2, 41, 95
3, 285120, Pitch_bend_c, 3, 9600
3, 285120, Pitch_bend_c, 3, 8192
3, 285120, Note_off_c, 3, 29, 95
3, 285120, Note_on_c, 2, 31, 95
3, 286080, Note_off_c, 2, 31, 95
3, 286080, Note_on_c, 2, 31, 95
3, 286560, Note_on_c, 2, 43, 95
3, 287520, Note_off_c, 2, 31, 95
3, 287520, Note_on_c, 3, 31, 95
3, 287640, Pitch_bend_c, 3, 8960
3, 287760, Pitch_bend_c, 3, 9856
3, 287880, Pitch_bend_c, 3, 10752
3, 288000, Note_off_c, 2, 43, 95
3, 288000, Pitch_bend_c, 3, 11648
3, 288000, Pitch_bend_c, 3, 8192
3, 288000, Note_off_c, 3, 31, 95
3, 288000, Note_on_c, 2, 36, 95
3, 288960, Note_off_c, 2, 36, 95
3, 288960, Note_on_c, 2, 36, 95
3, 289440, Note_on_c, 2, 48, 95
3, 290400, Note_off_c, 2, 36, 95
3, 290400, Note_on_c, 3, 36, 95
3, 290520, Pitch_bend_c, 3, 7680
3, 290640, Pitch_bend_c, 3, 7168
3, 290760, Pitch_bend_c, 3, 6656
3, 290880, Note_off_c, 2, 48, 95
3, 290880, Pitch_bend_c, 3, 6144
3, 290880, Pitch_bend_c, 3, 8192
3, 290880, Note_off_c, 3, 36, 95
3, 290880, Note_on_c, 2, 33, 95
3, 291840, Note_off_c, 2, 33, 95
3, 291840, Note_on_c, 2, 33, 95
3, 292320, Note_on_c, 2, 45, 95
3, 293280, Note_off_c, 2, 33, 95
3, 293280, Note_on_c, 3, 33, 95
3, 293400, Pitch_bend_c, 3, 7552
3, 293520, Pitch_bend_c, 3, 6784
3, 293640, Pitch_bend_c, 3, 6144
3, 293760, Note_off_c, 2, 45, 95
3, 293760, Pitch_bend_c, 3, 5376
3, 293760, Pitch_bend_c, 3, 8192
3, 293760, Note_off_c, 3, 33, 95
3, 293760, Note_on_c, 2, 29, 95
3, 294720, Note_off_c, 2, 29, 95
3, 294720, Note_on_c, 2, 29, 95
3, 295200, Note_on_c, 2, 41, 95
3, 296160, Note_off_c, 2, 29, 95
3, 296160, Note_on_c, 3, 29, 95
3, 296280, Pitch_bend_c, 3, 8448
3, 296400, Pitch_bend_c, 3, 8832
3, 296520, Pitch_bend_c, 3, 9216
3, 296640, Note_off_c, 2, 41, 95
3, 296640, Pitch_bend_c, 3, 9600
3, 296640, Pitch_bend_c, 3, 8192
3, 296640, Note_off_c, 3, 29, 95
3, 296640, Note_on_c, 2, 31, 95
3, 297600, Note_off_c, 2, 31, 95
3, 297600, Note_on_c, 2, 31, 95
3, 298080, Note_on_c, 2, 43, 95
3, 299040, Note_off_c, 2, 31, 95
3, 299040, Note_on_c, 3, 31, 95
3, 299160, Pitch_bend_c, 3, 8960
3, 299280, Pitch_bend_c, 3, 9856
3, 299400, Pitch_bend_c, 3, 10752
3, 299520, Note_off_c, 2, 43, 95
3, 299520, Pitch_bend_c, 3, 11648
3, 299520, Pitch_bend_c, 3, 8192
3, 299520, Note_off_c, 3, 31, 95
3, 299520, Note_on_c, 2, 36, 95
3, 300480, Note_off_c, 2, 36, 95
3, 300480, Note_on_c, 2, 36, 95
3, 300960, Note_on_c, 2, 48, 95
3, 301920, Note_off_c, 2, 36, 95
3, 301920, Note_on_c, 3, 36, 95
3, 302040, Pitch_bend_c, 3, 7680
3, 302160, Pitch_bend_c, 3, 7168
3, 302280, Pitch_bend_c, 3, 6656
3, 302400, Note_off_c, 2, 48, 95
3, 302400, Pitch_bend_c, 3, 6144
3, 302400, Pitch_bend_c, 3, 8192
3, 302400, Note_off_c, 3, 36, 95
3, 302400, Note_on_c, 2, 33, 95
3, 303360, Note_off_c, 2, 33, 95
3, 303360, Note_on_c, 2, 33, 95
3, 303840, Note_on_c, 2, 45, 95
3, 304800, Note_off_c, 2, 33, 95
3, 304800, Note_on_c, 3, 33, 95
3, 304920, Pitch_bend_c, 3, 7552
3, 305040, Pitch_bend_c, 3, 6784
3, 305160, Pitch_bend_c, 3, 6144
3, 305280, Note_off_c, 2, 45, 95
3, 305280, Pitch_bend_c, 3, 5376
3, 305280, Pitch_bend_c, 3, 8192
3, 305280, Note_off_c, 3, 33, 95
3, 305280, Note_on_c, 2, 29, 95
3, 306240, Note_off_c, 2, 29, 95
3, 306240, Note_on_c, 2, 29, 95
3, 306720, Note_on_c, 2, 41, 95
3, 307680, Note_off_c, 2, 29, 95
3, 307680, Note_on_c, 3, 29, 95
3, 307800, Pitch_bend_c, 3, 8448
3, 307920, Pitch_bend_c, 3, 8832
3, 308040, Pitch_bend_c, 3, 9216
3, 308160, Note_off_c, 2, 41, 95
3, 308160, Pitch_bend_c, 3, 9600
3, 308160, Pitch_bend_c, 3, 8192
3, 308160, Note_off_c, 3, 29, 95
3, 308160, Note_on_c, 2, 31, 95
3, 309120, Note_off_c, 2, 31, 95
3, 309120, Note_on_c, 2, 31, 95
3, 309600, Note_on_c, 2, 43, 95
3, 310560, Note_off_c, 2, 31, 95
3, 310560, Note_on_c, 3, 31, 95
3, 310680, Pitch_bend_c, 3, 8960
3, 310800, Pitch_bend_c, 3, 9856
3, 310920, Pitch_bend_c, 3, 10752
3, 311040, Note_off_c, 2, 43, 95
3, 311040, Pitch_bend_c, 3, 11648
3, 311040, Pitch_bend_c, 3, 8192
3, 311040, Note_off_c, 3, 31, 95
3, 311040, Note_on_c, 2, 36, 95
3, 312000, Note_off_c, 2, 36, 95
3, 312000, Note_on_c, 2, 36, 95
3, 312480, Note_on_c, 2, 48, 95
3, 313440, Note_off_c, 2, 36, 95
3, 313440, Note_on_c, 3, 36, 95
3, 313560, Pitch_bend_c, 3, 7680
3, 313680, Pitch_bend_c, 3, 7168
3, 313800, Pitch_bend_c, 3, 6656
3, 313920, Note_off_c, 2, 48, 95
3, 313920, Pitch_bend_c, 3, 6144
3, 313920, Pitch_bend_c, 3, 8192
3, 313920, Note_off_c, 3, 36, 95
3, 313920, Note_on_c, 2, 33, 95
3, 314880, Note_off_c, 2, 33, 95
3, 314880, Note_on_c, 2, 33, 95
3, 315360, Note_on_c, 2, 45, 95
3, 316320, Note_off_c, 2, 33, 95
3, 316320, Note_on_c, 3, 33, 95
3, 316440, Pitch_bend_c, 3, 7552
3, 316560, Pitch_bend_c, 3, 6784
3, 316680, Pitch_bend_c, 3, 6144
3, 316800, Note_off_c, 2, 45, 95
3, 316800, Pitch_bend_c, 3, 5376
3, 316800, Pitch_bend_c, 3, 8192
3, 316800, Note_off_c, 3, 33, 95
3, 316800, Note_on_c, 2, 29, 95
3, 317760, Note_off_c, 2, 29, 95
3, 317760, Note_on_c, 2, 29, 95
3, 318240, Note_on_c, 2, 41, 95
3, 319200, Note_off_c, 2, 29, 95
3, 319200, Note_on_c, 3, 29, 95
3, 319320, Pitch_bend_c, 3, 8448
3, 319440, Pitch_bend_c, 3, 8832
3, 319560, Pitch_bend_c, 3, 9216
3, 319680, Note_off_c, 2, 41, 95
3, 319680, Pitch_bend_c, 3, 9600
3, 319680, Pitch_bend_c, 3, 8192
3, 319680, Note_off_c, 3, 29, 95
3, 319680, Note_on_c, 2, 31, 95
3, 320640, Note_off_c, 2, 31, 95
3, 320640, Note_on_c, 2, 31, 95
3, 321120, Note_on_c, 2, 43, 95
3, 322080, Note_off_c, 2, 31, 95
3, 322080, Note_on_c, 3, 31, 95
3, 322200, Pitch_bend_c, 3, 8960
3, 322320, Pitch_bend_c, 3, 9856
3, 322440, Pitch_bend_c, 3, 10752
3, 322560, Note_off_c, 2, 43, 95
3, 322560, Pitch_bend_c, 3, 11648
3, 322560, Pitch_bend_c, 3, 8192
3, 322560, Note_off_c, 3, 31, 95
3, 322560, Note_on_c, 2, 36, 95
3, 323520, Note_off_c, 2, 36, 95
3, 323520, Note_on_c, 2, 36, 95
3, 324000, Note_on_c, 2, 48, 95
3, 324960, Note_off_c, 2, 36, 95
3, 324960, Note_on_c, 3, 36, 95
3, 325080, Pitch_bend_c, 3, 7680
3, 325200, Pitch_bend_c, 3, 7168
3, 325320, Pitch_bend_c, 3, 6656
3, 325440, Note_off_c, 2, 48, 95
3, 325440, Pitch_bend_c, 3, 6144
3, 325440, Pitch_bend_c, 3, 8192
3, 325440, Note_off_c, 3, 36, 95
3, 325440, Note_on_c, 2, 33, 95
3, 326400, Note_off_c, 2, 33, 95
3, 326400, Note_on_c, 2, 33, 95
3, 326880, Note_on_c, 2, 45, 95
3, 327840, Note_off_c, 2, 33, 95
3, 327840, Note_on_c, 3, 33, 95
3, 327960, Pitch_bend_c, 3, 7552
3, 328080, Pitch_bend_c, 3, 6784
3, 328200, Pitch_bend_c, 3, 6144
3, 328320, Note_off_c, 2, 45, 95
3, 328320, Pitch_bend_c, 3, 5376
3, 328320, Pitch_bend_c, 3, 8192
3, 328320, Note_off_c, 3, 33, 95
3, 328320, Note_on_c, 2, 29, 95
3, 329280, Note_off_c, 2, 29, 95
3, 329280, Note_on_c, 2, 29, 95
3, 329760, Note_on_c, 2, 41, 95
3, 330720, Note_off_c, 2, 29, 95
3, 330720, Note_on_c, 3, 29, 95
3, 330840, Pitch_bend_c, 3, 8448
3, 330960, Pitch_bend_c, 3, 8832
3, 331080, Pitch_bend_c, 3, 9216
3, 331200, Note_off_c, 2, 41, 95
3, 331200, Pitch_bend_c, 3, 9600
3, 331200, Pitch_bend_c, 3, 8192
3, 331200, Note_off_c, 3, 29, 95
3, 331200, Note_on_c, 2, 31, 95
3, 332160, Note_off_c, 2, 31, 95
3, 332160, Note_on_c, 2, 31, 95
3, 332640, Note_on_c, 2, 43, 95
3, 333600, Note_off_c, 2, 31, 95
3, 333600, Note_on_c, 3, 31, 95
3, 333720, Pitch_bend_c, 3, 8960
3, 333840, Pitch_bend_c, 3, 9856
3, 333960, Pitch_bend_c, 3, 10752
3, 334080, Note_off_c, 2, 43, 95
3, 334080, Pitch_bend_c, 3, 11648
3, 334080, Pitch_bend_c, 3, 8192
3, 334080, Note_off_c, 3, 31, 95
3, 334080, Note_on_c, 2, 36, 95
3, 335040, Note_off_c, 2, 36, 95
3, 335040, Note_on_c, 2, 36, 95
3, 335520, Note_on_c, 2, 48, 95
3, 336480, Note_off_c, 2, 36, 95
3, 336480, Note_on_c, 3, 36, 95
3, 336600, Pitch_bend_c, 3, 7680
3, 336720, Pitch_bend_c, 3, 7168
3, 336840, Pitch_bend_c, 3, 6656
3, 336960, Note_off_c, 2, 48, 95
3, 336960, Pitch_bend_c, 3, 6144
3, 336960, Pitch_bend_c, 3, 8192
3, 336960, Note_off_c, 3, 36, 95
3, 336960, Note_on_c, 2, 33, 95
3, 337920, Note_off_c, 2, 33, 95
3, 337920, Note_on_c, 2, 33, 95
3, 338400, Note_on_c, 2, 45, 95
3, 339360, Note_off_c, 2, 33, 95
3, 339360, Note_on_c, 3, 33, 95
3, 339480, Pitch_bend_c, 3, 7552
3, 339600, Pitch_bend_c, 3, 6784
3, 339720, Pitch_bend_c, 3, 6144
3, 339840, Note_off_c, 2, 45, 95
3, 339840, Pitch_bend_c, 3, 5376
3, 339840, Pitch_bend_c, 3, 8192
3, 339840, Note_off_c, 3, 33, 95
3, 339840, Note_on_c, 2, 29, 95
3, 340800, Note_off_c, 2, 29, 95
3, 340800, Note_on_c, 2, 29, 95
3, 341280, Note_on_c, 2, 41, 95
3, 342240, Note_off_c, 2, 29, 95
3, 342240, Note_on_c, 3, 29, 95
3, 342360, Pitch_bend_c, 3, 8448
3, 342480, Pitch_bend_c, 3, 8832
3, 342600, Pitch_bend_c, 3, 9216
3, 342720, Note_off_c, 2, 41, 95
3, 342720, Pitch_bend_c, 3, 9600
3, 342720, Pitch_bend_c, 3, 8192
3, 342720, Note_off_c, 3, 29, 95
3, 342720, Note_on_c, 2, 31, 95
3, 343680, Note_off_c, 2, 31, 95
3, 343680, Note_on_c, 2, 31, 95
3, 344160, Note_on_c, 2, 43, 95
3, 345120, Note_off_c, 2, 31, 95
3, 345120, Note_on_c, 3, 31, 95
3, 345240, Pitch_bend_c, 3, 8960
3, 345360, Pitch_bend_c, 3, 9856
3, 345480, Pitch_bend_c, 3, 10752
3, 345600, Note_off_c, 2, 43, 95
3, 345600, Pitch_bend_c, 3, 11648
3, 345600, Pitch_bend_c, 3, 8192
3, 345600, Note_off_c, 3, 31, 95
3, 345600, Note_on_c, 2, 36, 95
3, 346560, Note_off_c, 2, 36, 95
3, 346560, Note_on_c, 2, 36, 95
3, 347040, Note_on_c, 2, 48, 95
3, 348000, Note_off_c, 2, 36, 95
3, 348000, Note_on_c, 3, 36, 95
3, 348120, Pitch_bend_c, 3, 7680
3, 348240, Pitch_bend_c, 3, 7168
3, 348360, Pitch_bend_c, 3, 6656
3, 348480, Note_off_c, 2, 48, 95
3, 348480, Pitch_bend_c, 3, 6144
3, 348480, Pitch_bend_c, 3, 8192
3, 348480, Note_off_c, 3, 36, 95
3, 348480, Note_on_c, 2, 33, 95
3, 349440, Note_off_c, 2, 33, 95
3, 349440, Note_on_c, 2, 33, 95
3, 349920, Note_on_c, 2, 45, 95
3, 350880, Note_off_c, 2, 33, 95
3, 350880, Note_on_c, 3, 33, 95
3, 351000, Pitch_bend_c, 3, 7552
3, 351120, Pitch_bend_c, 3, 6784
3, 351240, Pitch_bend_c, 3, 6144
3, 351360, Note_off_c, 2, 45, 95
3, 351360, Pitch_bend_c, 3, 5376
3, 351360, Pitch_bend_c, 3, 8192
3, 351360, Note_off_c, 3, 33, 95
3, 351360, Note_on_c, 2, 29, 95
3, 352320, Note_off_c, 2, 29, 95
3, 352320, Note_on_c, 2, 29, 95
3, 352800, Note_on_c, 2, 41, 95
3, 353760, Note_off_c, 2, 29, 95
3, 353760, Note_on_c, 3, 29, 95
3, 353880, Pitch_bend_c, 3, 8448
3, 354000, Pitch_bend_c, 3, 8832
3, 354120, Pitch_bend_c, 3, 9216
3, 354240, Note_off_c, 2, 41, 95
3, 354240, Pitch_bend_c, 3, 9600
3, 354240, Pitch_bend_c, 3, 8192
3, 354240, Note_off_c, 3, 29, 95
3, 354240, Note_on_c, 2, 31, 95
3, 355200, Note_off_c, 2, 31, 95
3, 355200, Note_on_c, 2, 31, 95
3, 355680, Note_on_c, 2, 43, 95
3, 356640, Note_off_c, 2, 31, 95
3, 356640, Note_on_c, 3, 31, 95
3, 356760, Pitch_bend_c, 3, 8960
3, 356880, Pitch_bend_c, 3, 9856
3, 357000, Pitch_bend_c, 3, 10752
3, 357120, Note_off_c, 2, 43, 95
3, 357120, Pitch_bend_c, 3, 11648
3, 357120, Pitch_bend_c, 3, 8192
3, 357120, Note_off_c, 3, 31, 95
3, 357120, Note_on_c, 2, 36, 95
3, 358080, Note_off_c, 2, 36, 95
3, 358080, Note_on_c, 2, 36, 95
3, 358560, Note_on_c, 2, 48, 95
3, 359520, Note_off_c, 2, 36, 95
3, 359520, Note_on_c, 3, 36, 95
3, 359640, Pitch_bend_c, 3, 7680
3, 359760, Pitch_bend_c, 3, 7168
3, 359880, Pitch_bend_c, 3, 6656
3, 360000, Note_off_c, 2, 48, 95
3, 360000, Pitch_bend_c, 3, 6144
3, 360000, Pitch_bend_c, 3, 8192
3, 360000, Note_off_c, 3, 36, 95
3, 360000, Note_on_c, 2, 33, 95
3, 360960, Note_off_c, 2, 33, 95
3, 360960, Note_on_c, 2, 33, 95
3, 361440, Note_on_c, 2, 45, 95
3, 362400, Note_off_c, 2, 33, 95
3, 362400, Note_on_c, 3, 33, 95
3, 362520, Pitch_bend_c, 3, 7552
3, 362640, Pitch_bend_c, 3, 6784
3, 362760, Pitch_bend_c, 3, 6144
3, 362880, Note_off_c, 2, 45, 95
3, 362880, Pitch_bend_c, 3, 5376
3, 362880, Pitch_bend_c, 3, 8192
3, 362880, Note_off_c, 3, 33, 95
3, 362880, Note_on_c, 2, 29, 95
3, 363840, Note_off_c, 2, 29, 95
3, 363840, Note_on_c, 2, 29, 95
3, 364320, Note_on_c, 2, 41, 95
3, 365280, Note_off_c, 2, 29, 95
3, 365280, Note_on_c, 3, 29, 95
3, 365400, Pitch_bend_c, 3, 8448
3, 365520, Pitch_bend_c, 3, 8832
3, 365640, Pitch_bend_c, 3, 9216
3, 365760, Note_off_c, 2, 41, 95
3, 365760, Pitch_bend_c, 3, 9600
3, 365760, Pitch_bend_c, 3, 8192
3, 365760, Note_off_c, 3, 29, 95
3, 365760, Note_on_c, 2, 31, 95
3, 366720, Note_off_c, 2, 31, 95
3, 366720, Note_on_c, 2, 31, 95
3, 367200, Note_on_c, 2, 43, 95
3, 368160, Note_off_c, 2, 31, 95
3, 368160, Note_on_c, 3, 31, 95
3, 368280, Pitch_bend_c, 3, 8960
3, 368400, Pitch_bend_c, 3, 9856
3, 368520, Pitch_bend_c, 3, 10752
3, 368640, Note_off_c, 2, 43, 95
3, 368640, Pitch_bend_c, 3, 11648
3, 368640, Pitch_bend_c, 3, 8192
3, 368640, Note_off_c, 3, 31, 95
3, 368640, Note_on_c, 2, 36, 95
3, 369600, Note_off_c, 2, 36, 95
3, 369600, Note_on_c, 2, 36, 95
3, 370080, Note_on_c, 2, 48, 95
3, 371040, Note_off_c, 2, 36, 95
3, 371040, Note_on_c, 3, 36, 95
3, 371160, Pitch_bend_c, 3, 7680
3, 371280, Pitch_bend_c, 3, 7168
3, 371400, Pitch_bend_c, 3, 6656
3, 371520, Note_off_c, 2, 48, 95
3, 371520, Pitch_bend_c, 3, 6144
3, 371520, Pitch_bend_c, 3, 8192
3, 371520, Note_off_c, 3, 36, 95
3, 371520, Note_on_c, 2, 33, 95
3, 372480, Note_off_c, 2, 33, 95
3, 372480, Note_on_c, 2, 33, 95
3, 372960, Note_on_c, 2, 45, 95
3, 373920, Note_off_c, 2, 33, 95
3, 373920, Note_on_c, 3, 33, 95
3, 374040, Pitch_bend_c, 3, 7552
3, 374160, Pitch_bend_c, 3, 6784
3, 374280, Pitch_bend_c, 3, 6144
3, 374400, Note_off_c, 2, 45, 95
3, 374400, Pitch_bend_c, 3, 5376
3, 374400, Pitch_bend_c, 3, 8192
3, 374400, Note_off_c, 3, 33, 95
3, 374400, Note_on_c, 2, 29, 95
3, 375360, Note_off_c, 2, 29, 95
3, 375360, Note_on_c, 2, 29, 95
3, 375840, Note_on_c, 2, 41, 95
3, 376800, Note_off_c, 2, 29, 95
3, 376800, Note_on_c, 3, 29, 95
3, 376920, Pitch_bend_c, 3, 8448
3, 377040, Pitch_bend_c, 3, 8832
3, 377160, Pitch_bend_c, 3, 9216
3, 377280, Note_off_c, 2, 41, 95
3, 377280, Pitch_bend_c, 3, 9600
3, 377280, Pitch_bend_c, 3, 8192
3, 377280, Note_off_c, 3, 29, 95
3, 377280, Note_on_c, 2, 31, 95
3, 378240, Note_off_c, 2, 31, 95
3, 378240, Note_on_c, 2, 31, 95
3, 378720, Note_on_c, 2, 43, 95
3, 379680, Note_off_c, 2, 31, 95
3, 379680, Note_on_c, 3, 31, 95
3, 379800, Pitch_bend_c, 3, 8960
3, 379920, Pitch_bend_c, 3, 9856
3, 380040, Pitch_bend_c, 3, 10752
3, 380160, Note_off_c, 2, 43, 95
3, 380160, Pitch_bend_c, 3, 11648
3, 380160, Pitch_bend_c, 3, 8192
3, 380160, Note_off_c, 3, 31, 95
3, 380160, Note_on_c, 2, 36, 95
3, 381120, Note_off_c, 2, 36, 95
3, 381120, Note_on_c, 2, 36, 95
3, 381600, Note_on_c, 2, 48, 95
3, 382560, Note_off_c, 2, 36, 95
3, 382560, Note_on_c, 3, 36, 95
3, 382680, Pitch_bend_c, 3, 7680
3, 382800, Pitch_bend_c, 3, 7168
3, 382920, Pitch_bend_c, 3, 6656
3, 383040, Note_off_c, 2, 48, 95
3, 383040, Pitch_bend_c, 3, 6144
3, 383040, Pitch_bend_c, 3, 8192
3, 383040, Note_off_c, 3, 36, 95
3, 383040, Note_on_c, 2, 33, 95
3, 384000, Note_off_c, 2, 33, 95
3, 384000, Note_on_c, 2, 33, 95
3, 384480, Note_on_c, 2, 45, 95
3, 385440, Note_off_c, 2, 33, 95
3, 385440, Note_on_c, 3, 33, 95
3, 385560, Pitch_bend_c, 3, 7552
3, 385680, Pitch_bend_c, 3, 6784
3, 385800, Pitch_bend_c, 3, 6144
3, 385920, Note_off_c, 2, 45, 95
3, 385920, Pitch_bend_c, 3, 5376
3, 385920, Pitch_bend_c, 3, 8192
3, 385920, Note_off_c, 3, 33, 95
3, 385920, Note_on_c, 2, 29, 95
3, 386880, Note_off_c, 2, 29, 95
3, 386880, Note_on_c, 2, 29, 95
3, 387360, Note_on_c, 2, 41, 95
3, 388320, Note_off_c, 2, 29, 95
3, 388320, Note_on_c, 3, 29, 95
3, 388440, Pitch_bend_c, 3, 8448
3, 388560, Pitch_bend_c, 3, 8832
3, 388680, Pitch_bend_c, 3, 9216
3, 388800, Note_off_c, 2, 41, 95
3, 388800, Pitch_bend_c, 3, 9600
3, 388800, Pitch_bend_c, 3, 8192
3, 388800, Note_off_c, 3, 29, 95
3, 388800, Note_on_c, 2, 31, 95
3, 389760, Note_off_c, 2, 31, 95
3, 389760, Note_on_c, 2, 31, 95
3, 390240, Note_on_c, 2, 43, 95
3, 391200, Note_off_c, 2, 31, 95
3, 391200, Note_on_c, 3, 31, 95
3, 391320, Pitch_bend_c, 3, 8960
3, 391440, Pitch_bend_c, 3, 9856
3, 391560, Pitch_bend_c, 3, 10752
3, 391680, Note_off_c, 2, 43, 95
3, 391680, Pitch_bend_c, 3, 11648
3, 391680, Pitch_bend_c, 3, 8192
3, 391680, Note_off_c, 3, 31, 95
3, 391680, Note_on_c, 2, 36, 95
3, 392640, Note_off_c, 2, 36, 95
3, 392640, Note_on_c, 2, 36, 95
3, 393120, Note_on_c, 2, 48, 95
3, 394080, Note_off_c, 2, 36, 95
3, 394080, Note_on_c, 3, 36, 95
3, 394200, Pitch_bend_c, 3, 7680
3, 394320, Pitch_bend_c, 3, 7168
3, 394440, Pitch_bend_c, 3, 6656
3, 394560, Note_off_c, 2, 48, 95
3, 394560, Pitch_bend_c, 3, 6144
3, 394560, Pitch_bend_c, 3, 8192
3, 394560, Note_off_c, 3, 36, 95
3, 394560, Note_on_c, 2, 33, 95
3, 395520, Note_off_c, 2, 33, 95
3, 395520, Note_on_c, 2, 33, 95
3, 396000, Note_on_c, 2, 45, 95
3, 396960, Note_off_c, 2, 33, 95
3, 396960, Note_on_c, 3, 33, 95
3, 397080, Pitch_bend_c, 3, 7552
3, 397200, Pitch_bend_c, 3, 6784
3, 397320, Pitch_bend_c, 3, 6144
3, 397440, Note_off_c, 2, 45, 95
3, 397440, Pitch_bend_c, 3, 5376
3, 397440, Pitch_bend_c, 3, 8192
3, 397440, Note_off_c, 3, 33, 95
3, 397440, Note_on_c, 2, 29, 95
3, 398400, Note_off_c, 2, 29, 95
3, 398400, Note_on_c, 2, 29, 95
3, 398880, Note_on_c, 2, 41, 95
3, 399840, Note_off_c, 2, 29, 95
3, 399840, Note_on_c, 3, 29, 95
3, 399960, Pitch_bend_c, 3, 8448
3, 400080, Pitch_bend_c, 3, 8832
3, 400200, Pitch_bend_c, 3, 9216
3, 400320, Note_off_c, 2, 41, 95
3, 400320, Pitch_bend_c, 3, 9600
3, 400320, Pitch_bend_c, 3, 8192
3, 400320, Note_off_c, 3, 29, 95
3, 400320, Note_on_c, 2, 31, 95
3, 401280, Note_off_c, 2, 31, 95
3, 401280, Note_on_c, 2, 31, 95
3, 401760, Note_on_c, 2, 43, 95
3, 402720, Note_off_c, 2, 31, 95
3, 402720, Note_on_c, 3, 31, 95
3, 402840, Pitch_bend_c, 3, 8960
3, 402960, Pitch_bend_c, 3, 9856
3, 403080, Pitch_bend_c, 3, 10752
3, 403200, Note_off_c, 2, 43, 95
3, 403200, Pitch_bend_c, 3, 11648
3, 403200, Pitch_bend_c, 3, 8192
3, 403200, Note_off_c, 3, 31, 95
3, 403200, Note_on_c, 2, 36, 95
3, 404160, Note_off_c, 2, 36, 95
3, 404160, Note_on_c, 2, 36, 95
3, 404640, Note_on_c, 2, 48, 95
3, 405600, Note_off_c, 2, 36, 95
3, 405600, Note_on_c, 3, 36, 95
3, 405720, Pitch_bend_c, 3, 7680
3, 405840, Pitch_bend_c, 3, 7168
3, 405960, Pitch_bend_c, 3, 6656
3, 406080, Note_off_c, 2, 48, 95
3, 406080, Pitch_bend_c, 3, 6144
3, 406080, Pitch_bend_c, 3, 8192
3, 406080, Note_off_c, 3, 36, 95
3, 406080, Note_on_c, 2, 33, 95
3, 407040, Note_off_c, 2, 33, 95
3, 407040, Note_on_c, 2, 33, 95
3, 407520, Note_on_c, 2, 45, 95
3, 408480, Note_off_c, 2, 33, 95
3, 408480, Note_on_c, 3, 33, 95
3, 408600, Pitch_bend_c, 3, 7552
3, 408720, Pitch_bend_c, 3, 6784
3, 408840, Pitch_bend_c, 3, 6144
3, 408960, Note_off_c, 2, 45, 95
3, 408960, Pitch_bend_c, 3, 5376
3, 408960, Pitch_bend_c, 3, 8192
3, 408960, Note_off_c, 3, 33, 95
3, 408960, Note_on_c, 2, 29, 95
3, 409920, Note_off_c, 2, 29, 95
3, 409920, Note_on_c, 2, 29, 95
3, 410400, Note_on_c, 2, 41, 95
3, 411360, Note_off_c, 2, 29, 95
3, 411360, Note_on_c, 3, 29, 95
3, 411480, Pitch_bend_c, 3, 8448
3, 411600, Pitch_bend_c, 3, 8832
3, 411720, Pitch_bend_c, 3, 9216
3, 411840, Note_off_c, 2, 41, 95
3, 411840, Pitch_bend_c, 3, 9600
3, 411840, Pitch_bend_c, 3, 8192
3, 411840, Note_off_c, 3, 29, 95
3, 411840, Note_on_c, 2, 31, 95
3, 412800, Note_off_c, 2, 31, 95
3, 412800, Note_on_c, 2, 31, 95
3, 413280, Note_on_c, 2, 43, 95
3, 414240, Note_off_c, 2, 31, 95
3, 414240, Note_on_c, 3, 31, 95
3, 414360, Pitch_bend_c, 3, 8960
3, 414480, Pitch_bend_c, 3, 9856
3, 414600, Pitch_bend_c, 3, 10752
3, 414720, Note_off_c, 2, 43, 95
3, 414720, Pitch_bend_c, 3, 11648
3, 414720, Pitch_bend_c, 3, 8192
3, 414720, Note_off_c, 3, 31, 95
3, 414720, Note_on_c, 2, 36, 95
3, 415680, Note_off_c, 2, 36, 95
3, 415680, Note_on_c, 2, 36, 95
3, 416160, Note_on_c, 2, 48, 95
3, 417120, Note_off_c, 2, 36, 95
3, 417120, Note_on_c, 3, 36, 95
3, 417240, Pitch_bend_c, 3, 7680
3, 417360, Pitch_bend_c, 3, 7168
3, 417480, Pitch_bend_c, 3, 6656
3, 417600, Note_off_c, 2, 48, 95
3, 417600, Pitch_bend_c, 3, 6144
3, 417600, Pitch_bend_c, 3, 8192
3, 417600, Note_off_c, 3, 36, 95
3, 417600, Note_on_c, 2, 33, 95
3, 418560, Note_off_c, 2, 33, 95
3, 418560, Note_on_c, 2, 33, 95
3, 419040, Note_on_c, 2, 45, 95
3, 420000, Note_off_c, 2, 33, 95
3, 420000, Note_on_c, 3, 33, 95
3, 420120, Pitch_bend_c, 3, 7552
3, 420240, Pitch_bend_c, 3, 6784
3, 420360, Pitch_bend_c, 3, 6144
3, 420480, Note_off_c, 2, 45, 95
3, 420480, Pitch_bend_c, 3, 5376
3, 420480, Pitch_bend_c, 3, 8192
3, 420480, Note_off_c, 3, 33, 95
3, 420480, Note_on_c, 2, 29, 95
3, 421440, Note_off_c, 2, 29, 95
3, 421440, Note_on_c, 2, 29, 95
3, 421920, Note_on_c, 2, 41, 95
3, 422880, Note_off_c, 2, 29, 95
3, 422880, Note_on_c, 3, 29, 95
3, 423000, Pitch_bend_c, 3, 8448
3, 423120, Pitch_bend_c, 3, 8832
3, 423240, Pitch_bend_c, 3, 9216
3, 423360, Note_off_c, 2, 41, 95
3, 423360, Pitch_bend_c, 3, 9600
3, 423360, Pitch_bend_c, 3, 8192
3, 423360, Note_off_c, 3, 29, 95
3, 423360, Note_on_c, 2, 31, 95
3, 424320, Note_off_c, 2, 31, 95
3, 424320, Note_on_c, 2, 31, 95
3, 424800, Note_on_c, 2, 43, 95
3, 425760, Note_off_c, 2, 31, 95
3, 425760, Note_on_c, 3, 31, 95
3, 425880, Pitch_bend_c, 3, 8960
3, 426000, Pitch_bend_c, 3, 9856
3, 426120, Pitch_bend_c, 3, 10752
3, 426240, Note_off_c, 2, 43, 95
3, 426240, Pitch_bend_c, 3, 11648
3, 426240, Pitch_bend_c, 3, 8192
3, 426240, Note_off_c, 3, 31, 95
3, 426240, Note_on_c, 2, 36, 95
3, 427200, Note_off_c, 2, 36, 95
3, 427200, Note_on_c, 2, 36, 95
3, 427680, Note_on_c, 2, 48, 95
3, 428640, Note_off_c, 2, 36, 95
3, 428640, Note_on_c, 3, 36, 95
3, 428760, Pitch_bend_c, 3, 7680
3, 428880, Pitch_bend_c, 3, 7168
3, 429000, Pitch_bend_c, 3, 6656
3, 429120, Note_off_c, 2, 48, 95
3, 429120, Pitch_bend_c, 3, 6144
3, 429120, Pitch_bend_c, 3, 8192
3, 429120, Note_off_c, 3, 36, 95
3, 429120, Note_on_c, 2, 33, 95
3, 430080, Note_off_c, 2, 33, 95
3, 430080, Note_on_c, 2, 33, 95
3, 430560, Note_on_c, 2, 45, 95
3, 431520, Note_off_c, 2, 33, 95
3, 431520, Note_on_c, 3, 33, 95
3, 431640, Pitch_bend_c, 3, 7552
3, 431760, Pitch_bend_c, 3, 6784
3, 431880, Pitch_bend_c, 3, 6144
3, 432000, Note_off_c, 2, 45, 95
3, 432000, Pitch_bend_c, 3, 5376
3, 432000, Pitch_bend_c, 3, 8192
3, 432000, Note_off_c, 3, 33, 95
3, 432000, Note_on_c, 2, 29, 95
3, 432960, Note_off_c, 2, 29, 95
3, 432960, Note_on_c, 2, 29, 95
3, 433440, Note_on_c, 2, 41, 95
3, 434400, Note_off_c, 2, 29, 95
3, 434400, Note_on_c, 3, 29, 95
3, 434520, Pitch_bend_c, 3, 8448
3, 434640, Pitch_bend_c, 3, 8832
3, 434760, Pitch_bend_c, 3, 9216
3, 434880, Note_off_c, 2, 41, 95
3, 434880, Pitch_bend_c, 3, 9600
3, 434880, Pitch_bend_c, 3, 8192
3, 434880, Note_off_c, 3, 29, 95
3, 434880, Note_on_c, 2, 31, 95
3, 435840, Note_off_c, 2, 31, 95
3, 435840, Note_on_c, 2, 31, 95
3, 436320, Note_on_c, 2, 43, 95
3, 437280, Note_off_c, 2, 31, 95
3, 437280, Note_on_c, 2, 31, 95
3, 437760, Note_off_c, 2, 43, 95
3, 437760, Note_off_c, 2, 31, 95
3, 437760, Note_on_c, 2, 36, 95
3, 438720, Note_off_c, 2, 36, 95
3, 438720, Note_on_c, 2, 36, 95
3, 439200, Note_off_c, 2, 36, 95
3, 439200, Note_on_c, 2, 36, 95
3, 439680, Note_off_c, 2, 36, 95
3, 439680, Note_on_c, 2, 36, 95
3, 440160, Note_off_c, 2, 36, 95
3, 440160, Note_on_c, 3, 36, 95
3, 440280, Pitch_bend_c, 3, 8832
3, 440400, Pitch_bend_c, 3, 9600
3, 440520, Pitch_bend_c, 3, 10240
3, 440640, Pitch_bend_c, 3, 11008
3, 440640, Pitch_bend_c, 3, 8192
3, 440640, Note_off_c, 3, 36, 95
3, 440640, Note_on_c, 2, 40, 95
3, 441600, Note_off_c, 2, 40, 95
3, 441600, Note_on_c, 2, 40, 95
3, 442080, Note_off_c, 2, 40, 95
3, 442080, Note_on_c, 2, 40, 95
3, 442560, Note_off_c, 2, 40, 95
3, 442560, Note_on_c, 2, 40, 95
3, 443040, Note_off_c, 2, 40, 95
3, 443040, Note_on_c, 3, 40, 95
3, 443160, Pitch_bend_c, 3, 8320
3, 443280, Pitch_bend_c, 3, 8448
3, 443400, Pitch_bend_c, 3, 8704
3, 443520, Pitch_bend_c, 3, 8832
3, 443520, Pitch_bend_c, 3, 8192
3, 443520, Note_off_c, 3, 40, 95
3, 443520, Note_on_c, 2, 41, 95
3, 444480, Note_off_c, 2, 41, 95
3, 444480, Note_on_c, 2, 41, 95
3, 444960, Note_off_c, 2, 41, 95
3, 444960, Note_on_c, 2, 41, 95
3, 445440, Note_off_c, 2, 41, 95
3, 445440, Note_on_c, 2, 41, 95
3, 445920, Note_off_c, 2, 41, 95
3, 445920, Note_on_c, 3, 41, 95
3, 446040, Pitch_bend_c, 3, 8448
3, 446160, Pitch_bend_c, 3, 8832
3, 446280, Pitch_bend_c, 3, 9216
3, 446400, Pitch_bend_c, 3, 9600
3, 446400, Pitch_bend_c, 3, 8192
3, 446400, Note_off_c, 3, 41, 95
3, 446400, Note_on_c, 2, 43, 95
3, 447360, Note_off_c, 2, 43, 95
3, 447360, Note_on_c, 2, 43, 95
3, 447840, Note_off_c, 2, 43, 95
3, 447840, Note_on_c, 2, 41, 95
3, 448320, Note_off_c, 2, 41, 95
3, 448320, Note_on_c, 2, 43, 95
3, 448800, Note_off_c, 2, 43, 95
3, 448800, Note_on_c, 3, 41, 95
3, 448920, Pitch_bend_c, 3, 7424
3, 449040, Pitch_bend_c, 3, 6528
3, 449160, Pitch_bend_c, 3, 5632
3, 449280, Pitch_bend_c, 3, 4736
3, 449280, Pitch_bend_c, 3, 8192
3, 449280, Note_off_c, 3, 41, 95
3, 449280, Note_on_c, 2, 36, 95
3, 450240, Note_off_c, 2, 36, 95
3, 450240, Note_on_c, 2, 36, 95
3, 450720, Note_off_c, 2, 36, 95
3, 450720, Note_on_c, 2, 36, 95
3, 451680, Note_off_c, 2, 36, 95
3, 451680, Note_on_c, 3, 36, 95
3, 451800, Pitch_bend_c, 3, 8832
3, 451920, Pitch_bend_c, 3, 9600
3, 452040, Pitch_bend_c, 3, 10240
3, 452160, Pitch_bend_c, 3, 11008
3, 452160, Pitch_bend_c, 3, 8192
3, 452160, Note_off_c, 3, 36, 95
3, 452160, Note_on_c, 2, 40, 95
3, 453120, Note_off_c, 2, 40, 95
3, 453120, Note_on_c, 2, 40, 95
3, 453600, Note_off_c, 2, 40, 95
3, 453600, Note_on_c, 2, 40, 95
3, 454080, Note_off_c, 2, 40, 95
3, 454080, Note_on_c, 2, 40, 95
3, 454560, Note_off_c, 2, 40, 95
3, 454560, Note_on_c, 3, 40, 95
3, 454680, Pitch_bend_c, 3, 8320
3, 454800, Pitch_bend_c, 3, 8448
3, 454920, Pitch_bend_c, 3, 8704
3, 455040, Pitch_bend_c, 3, 8832
3, 455040, Pitch_bend_c, 3, 8192
3, 455040, Note_off_c, 3, 40, 95
3, 455040, Note_on_c, 2, 41, 95
3, 456000, Note_off_c, 2, 41, 95
3, 456000, Note_on_c, 2, 41, 95
3, 456480, Note_off_c, 2, 41, 95
3, 456480, Note_on_c, 2, 41, 95
3, 456960, Note_off_c, 2, 41, 95
3, 456960, Note_on_c, 2, 41, 95
3, 457440, Note_off_c, 2, 41, 95
3, 457440, Note_on_c, 3, 41, 95
3, 457560, Pitch_bend_c, 3, 8448
3, 457680, Pitch_bend_c, 3, 8832
3, 457800, Pitch_bend_c, 3, 9216
3, 457920, Pitch_bend_c, 3, 9600
3, 457920, Pitch_bend_c, 3, 8192
3, 457920, Note_off_c, 3, 41, 95
3, 457920, Note_on_c, 2, 43, 95
3, 458880, Note_off_c, 2, 43, 95
3, 458880, Note_on_c, 2, 43, 95
3, 459360, Note_off_c, 2, 43, 95
3, 459360, Note_on_c, 2, 41, 95
3, 459840, Note_off_c, 2, 41, 95
3, 459840, Note_on_c, 2, 43, 95
3, 460320, Note_off_c, 2, 43, 95
3, 460320, Note_on_c, 3, 41, 95
3, 460440, Pitch_bend_c, 3, 7424
3, 460560, Pitch_bend_c, 3, 6528
3, 460680, Pitch_bend_c, 3, 5632
3, 460800, Pitch_bend_c, 3, 4736
3, 460800, Pitch_bend_c, 3, 8192
3, 460800, Note_off_c, 3, 41, 95
3, 460800, Note_on_c, 2, 36, 95
3, 466560, Note_off_c, 2, 36, 95
3, 466560, End_track
4, 0, Start_track
4, 0, Pitch_bend_c, 9, 8192
4, 0, Control_c, 9, 7, 63
4, 0, Control_c, 9, 10, 63
4, 0, Control_c, 9, 93, 0
4, 0, Control_c, 9, 91, 0
4, 0, Control_c, 9, 95, 0
4, 0, Control_c, 9, 92, 0
4, 0, Control_c, 9, 11, 127
4, 0, Program_c, 9, 0
4, 10080, Note_on_c, 9, 46, 95
4, 10200, Note_off_c, 9, 46, 95
4, 10200, Note_on_c, 9, 46, 95
4, 10320, Note_off_c, 9, 46, 95
4, 10320, Note_on_c, 9, 46, 95
4, 10440, Note_off_c, 9, 46, 95
4, 10440, Note_on_c, 9, 46, 95
4, 10560, Note_off_c, 9, 46, 95
4, 10560, Note_on_c, 9, 46, 95
4, 10680, Note_off_c, 9, 46, 95
4, 10680, Note_on_c, 9, 46, 95
4, 10800, Note_off_c, 9, 46, 95
4, 10800, Note_on_c, 9, 46, 95
4, 10920, Note_off_c, 9, 46, 95
4, 10920, Note_on_c, 9, 46, 95
4, 11040, Note_off_c, 9, 46, 95
4, 11040, Note_on_c, 9, 46, 95
4, 11160, Note_off_c, 9, 46, 95
4, 11160, Note_on_c, 9, 46, 95
4, 11280, Note_off_c, 9, 46, 95
4, 11280, Note_on_c, 9, 46, 95
4, 11400, Note_off_c, 9, 46, 95
4, 11400, Note_on_c, 9, 46, 95
4, 11519, Note_off_c, 9, 46, 95
4, 11520, Note_on_c, 9, 44, 95
4, 12000, Note_off_c, 9, 44, 95
4, 12000, Note_on_c, 9, 44, 95
4, 12480, Note_off_c, 9, 44, 95
4, 12480, Note_on_c, 9, 44, 95
4, 12960, Note_off_c, 9, 44, 95
4, 12960, Note_on_c, 9, 44, 127
4, 12960, Note_on_c, 9, 70, 127
4, 13440, Note_off_c, 9, 44, 127
4, 13440, Note_off_c, 9, 70, 127
4, 13440, Note_on_c, 9, 44, 95
4, 13920, Note_off_c, 9, 44, 95
4, 13920, Note_on_c, 9, 44, 95
4, 14400, Note_off_c, 9, 44, 95
4, 14400, Note_on_c, 9, 44, 95
4, 14880, Note_off_c, 9, 44, 95
4, 14880, Note_on_c, 9, 44, 95
4, 15360, Note_off_c, 9, 44, 95
4, 15360, Note_on_c, 9, 44, 95
4, 15840, Note_off_c, 9, 44, 95
4, 15840, Note_on_c, 9, 44, 127
4, 15840, Note_on_c, 9, 70, 127
4, 16320, Note_off_c, 9, 44, 127
4, 16320, Note_off_c, 9, 70, 127
4, 16320, Note_on_c, 9, 44, 95
4, 16800, Note_off_c, 9, 44, 95
4, 16800, Note_on_c, 9, 44, 95
4, 17280, Note_off_c, 9, 44, 95
4, 17280, Note_on_c, 9, 44, 95
4, 17760, Note_off_c, 9, 44, 95
4, 17760, Note_on_c, 9, 44, 95
4, 18240, Note_off_c, 9, 44, 95
4, 18240, Note_on_c, 9, 44, 95
4, 18720, Note_off_c, 9, 44, 95
4, 18720, Note_on_c, 9, 44, 127
4, 18720, Note_on_c, 9, 70, 127
4, 19200, Note_off_c, 9, 44, 127
4, 19200, Note_off_c, 9, 70, 127
4, 19200, Note_on_c, 9, 44, 95
4, 19680, Note_off_c, 9, 44, 95
4, 19680, Note_on_c, 9, 44, 95
4, 19680, Note_on_c, 9, 46, 95
4, 20160, Note_off_c, 9, 44, 95
4, 20160, Note_off_c, 9, 46, 95
4, 20160, Note_on_c, 9, 44, 95
4, 20640, Note_off_c, 9, 44, 95
4, 20640, Note_on_c, 9, 44, 95
4, 21120, Note_off_c, 9, 44, 95
4, 21120, Note_on_c, 9, 44, 95
4, 21600, Note_off_c, 9, 44, 95
4, 21600, Note_on_c, 9, 44, 95
4, 21600, Note_on_c, 9, 70, 95
4, 22080, Note_off_c, 9, 44, 95
4, 22080, Note_off_c, 9, 70, 95
4, 22080, Note_on_c, 9, 44, 95
4, 22080, Note_on_c, 9, 46, 95
4, 22560, Note_off_c, 9, 44, 95
4, 22560, Note_off_c, 9, 46, 95
4, 22560, Note_on_c, 9, 44, 95
4, 23040, Note_off_c, 9, 44, 95
4, 23040, Note_on_c, 9, 44, 95
4, 23520, Note_off_c, 9, 44, 95
4, 23520, Note_on_c, 9, 44, 95
4, 24000, Note_off_c, 9, 44, 95
4, 24000, Note_on_c, 9, 44, 95
4, 24480, Note_off_c, 9, 44, 95
4, 24480, Note_on_c, 9, 44, 127
4, 24480, Note_on_c, 9, 70, 127
4, 24960, Note_off_c, 9, 44, 127
4, 24960, Note_off_c, 9, 70, 127
4, 24960, Note_on_c, 9, 44, 95
4, 25440, Note_off_c, 9, 44, 95
4, 25440, Note_on_c, 9, 44, 95
4, 25920, Note_off_c, 9, 44, 95
4, 25920, Note_on_c, 9, 44, 95
4, 26400, Note_off_c, 9, 44, 95
4, 26400, Note_on_c, 9, 44, 95
4, 26880, Note_off_c, 9, 44, 95
4, 26880, Note_on_c, 9, 44, 95
4, 27360, Note_off_c, 9, 44, 95
4, 27360, Note_on_c, 9, 44, 127
4, 27360, Note_on_c, 9, 70, 127
4, 27840, Note_off_c, 9, 44, 127
4, 27840, Note_off_c, 9, 70, 127
4, 27840, Note_on_c, 9, 44, 95
4, 28320, Note_off_c, 9, 44, 95
4, 28320, Note_on_c, 9, 44, 95
4, 28800, Note_off_c, 9, 44, 95
4, 28800, Note_on_c, 9, 44, 95
4, 29280, Note_off_c, 9, 44, 95
4, 29280, Note_on_c, 9, 44, 95
4, 29760, Note_off_c, 9, 44, 95
4, 29760, Note_on_c, 9, 44, 95
4, 30240, Note_off_c, 9, 44, 95
4, 30240, Note_on_c, 9, 44, 127
4, 30240, Note_on_c, 9, 70, 127
4, 30720, Note_off_c, 9, 44, 127
4, 30720, Note_off_c, 9, 70, 127
4, 30720, Note_on_c, 9, 44, 95
4, 31200, Note_off_c, 9, 44, 95
4, 31200, Note_on_c, 9, 44, 95
4, 31200, Note_on_c, 9, 46, 95
4, 31680, Note_off_c, 9, 44, 95
4, 31680, Note_off_c, 9, 46, 95
4, 31680, Note_on_c, 9, 44, 95
4, 32160, Note_off_c, 9, 44, 95
4, 32160, Note_on_c, 9, 44, 95
4, 32640, Note_off_c, 9, 44, 95
4, 32640, Note_on_c, 9, 44, 95
4, 33120, Note_off_c, 9, 44, 95
4, 33120, Note_on_c, 9, 44, 95
4, 33120, Note_on_c, 9, 70, 95
4, 33600, Note_off_c, 9, 44, 95
4, 33600, Note_off_c, 9, 70, 95
4, 33600, Note_on_c, 9, 44, 95
4, 33600, Note_on_c, 9, 46, 95
4, 34080, Note_off_c, 9, 44, 95
4, 34080, Note_off_c, 9, 46, 95
4, 34080, Note_on_c, 9, 44, 95
4, 34560, Note_off_c, 9, 44, 95
4, 34560, Note_on_c, 9, 44, 95
4, 35040, Note_off_c, 9, 44, 95
4, 35040, Note_on_c, 9, 44, 95
4, 35520, Note_off_c, 9, 44, 95
4, 35520, Note_on_c, 9, 44, 95
4, 36000, Note_off_c, 9, 44, 95
4, 36000, Note_on_c, 9, 44, 127
4, 36000, Note_on_c, 9, 70, 127
4, 36480, Note_off_c, 9, 44, 127
4, 36480, Note_off_c, 9, 70, 127
4, 36480, Note_on_c, 9, 44, 95
4, 36960, Note_off_c, 9, 44, 95
4, 36960, Note_on_c, 9, 44, 95
4, 37440, Note_off_c, 9, 44, 95
4, 37440, Note_on_c, 9, 44, 95
4, 37920, Note_off_c, 9, 44, 95
4, 37920, Note_on_c, 9, 44, 95
4, 38400, Note_off_c, 9, 44, 95
4, 38400, Note_on_c, 9, 44, 95
4, 38880, Note_off_c, 9, 44, 95
4, 38880, Note_on_c, 9, 44, 127
4, 38880, Note_on_c, 9, 70, 127
4, 39360, Note_off_c, 9, 44, 127
4, 39360, Note_off_c, 9, 70, 127
4, 39360, Note_on_c, 9, 44, 95
4, 39840, Note_off_c, 9, 44, 95
4, 39840, Note_on_c, 9, 44, 95
4, 40320, Note_off_c, 9, 44, 95
4, 40320, Note_on_c, 9, 44, 95
4, 40800, Note_off_c, 9, 44, 95
4, 40800, Note_on_c, 9, 44, 95
4, 41280, Note_off_c, 9, 44, 95
4, 41280, Note_on_c, 9, 44, 95
4, 41760, Note_off_c, 9, 44, 95
4, 41760, Note_on_c, 9, 44, 127
4, 41760, Note_on_c, 9, 70, 127
4, 42240, Note_off_c, 9, 44, 127
4, 42240, Note_off_c, 9, 70, 127
4, 42240, Note_on_c, 9, 44, 95
4, 42720, Note_off_c, 9, 44, 95
4, 42720, Note_on_c, 9, 44, 95
4, 42720, Note_on_c, 9, 46, 95
4, 43200, Note_off_c, 9, 44, 95
4, 43200, Note_off_c, 9, 46, 95
4, 43200, Note_on_c, 9, 44, 95
4, 43680, Note_off_c, 9, 44, 95
4, 43680, Note_on_c, 9, 44, 95
4, 44160, Note_off_c, 9, 44, 95
4, 44160, Note_on_c, 9, 44, 95
4, 44640, Note_off_c, 9, 44, 95
4, 44640, Note_on_c, 9, 44, 95
4, 44640, Note_on_c, 9, 70, 95
4, 45120, Note_off_c, 9, 44, 95
4, 45120, Note_off_c, 9, 70, 95
4, 45120, Note_on_c, 9, 44, 95
4, 45120, Note_on_c, 9, 46, 95
4, 45600, Note_off_c, 9, 44, 95
4, 45600, Note_off_c, 9, 46, 95
4, 45600, Note_on_c, 9, 44, 95
4, 46080, Note_off_c, 9, 44, 95
4, 46080, Note_on_c, 9, 44, 95
4, 46560, Note_off_c, 9, 44, 95
4, 46560, Note_on_c, 9, 44, 95
4, 47040, Note_off_c, 9, 44, 95
4, 47040, Note_on_c, 9, 44, 95
4, 47520, Note_off_c, 9, 44, 95
4, 47520, Note_on_c, 9, 44, 127
4, 47520, Note_on_c, 9, 70, 127
4, 48000, Note_off_c, 9, 44, 127
4, 48000, Note_off_c, 9, 70, 127
4, 48000, Note_on_c, 9, 44, 95
4, 48480, Note_off_c, 9, 44, 95
4, 48480, Note_on_c, 9, 44, 95
4, 48960, Note_off_c, 9, 44, 95
4, 48960, Note_on_c, 9, 44, 95
4, 49440, Note_off_c, 9, 44, 95
4, 49440, Note_on_c, 9, 44, 95
4, 49920, Note_off_c, 9, 44, 95
4, 49920, Note_on_c, 9, 44, 95
4, 50400, Note_off_c, 9, 44, 95
4, 50400, Note_on_c, 9, 44, 127
4, 50400, Note_on_c, 9, 70, 127
4, 50880, Note_off_c, 9, 44, 127
4, 50880, Note_off_c, 9, 70, 127
4, 50880, Note_on_c, 9, 44, 95
4, 51360, Note_off_c, 9, 44, 95
4, 51360, Note_on_c, 9, 44, 95
4, 51840, Note_off_c, 9, 44, 95
4, 51840, Note_on_c, 9, 44, 95
4, 52320, Note_off_c, 9, 44, 95
4, 52320, Note_on_c, 9, 44, 95
4, 52800, Note_off_c, 9, 44, 95
4, 52800, Note_on_c, 9, 44, 95
4, 53280, Note_off_c, 9, 44, 95
4, 53280, Note_on_c, 9, 44, 127
4, 53280, Note_on_c, 9, 70, 127
4, 53760, Note_off_c, 9, 44, 127
4, 53760, Note_off_c, 9, 70, 127
4, 53760, Note_on_c, 9, 44, 95
4, 54240, Note_off_c, 9, 44, 95
4, 54240, Note_on_c, 9, 44, 95
4, 54240, Note_on_c, 9, 46, 95
4, 54720, Note_off_c, 9, 44, 95
4, 54720, Note_off_c, 9, 46, 95
4, 54720, Note_on_c, 9, 44, 95
4, 55200, Note_off_c, 9, 44, 95
4, 55200, Note_on_c, 9, 44, 95
4, 55680, Note_off_c, 9, 44, 95
4, 55680, Note_on_c, 9, 44, 95
4, 56160, Note_off_c, 9, 44, 95
4, 56160, Note_on_c, 9, 44, 95
4, 56160, Note_on_c, 9, 70, 95
4, 56640, Note_off_c, 9, 44, 95
4, 56640, Note_off_c, 9, 70, 95
4, 56640, Note_on_c, 9, 44, 95
4, 56640, Note_on_c, 9, 46, 95
4, 57120, Note_off_c, 9, 44, 95
4, 57120, Note_off_c, 9, 46, 95
4, 57120, Note_on_c, 9, 44, 95
4, 57600, Note_off_c, 9, 44, 95
4, 57600, Note_on_c, 9, 44, 95
4, 58080, Note_off_c, 9, 44, 95
4, 58080, Note_on_c, 9, 44, 95
4, 58560, Note_off_c, 9, 44, 95
4, 58560, Note_on_c, 9, 44, 95
4, 59040, Note_off_c, 9, 44, 95
4, 59040, Note_on_c, 9, 44, 127
4, 59040, Note_on_c, 9, 70, 127
4, 59520, Note_off_c, 9, 44, 127
4, 59520, Note_off_c, 9, 70, 127
4, 59520, Note_on_c, 9, 44, 95
4, 60000, Note_off_c, 9, 44, 95
4, 60000, Note_on_c, 9, 44, 95
4, 60480, Note_off_c, 9, 44, 95
4, 60480, Note_on_c, 9, 44, 95
4, 60960, Note_off_c, 9, 44, 95
4, 60960, Note_on_c, 9, 44, 95
4, 61440, Note_off_c, 9, 44, 95
4, 61440, Note_on_c, 9, 44, 95
4, 61920, Note_off_c, 9, 44, 95
4, 61920, Note_on_c, 9, 44, 127
4, 61920, Note_on_c, 9, 70, 127
4, 62400, Note_off_c, 9, 44, 127
4, 62400, Note_off_c, 9, 70, 127
4, 62400, Note_on_c, 9, 44, 95
4, 62880, Note_off_c, 9, 44, 95
4, 62880, Note_on_c, 9, 44, 95
4, 63360, Note_off_c, 9, 44, 95
4, 63360, Note_on_c, 9, 44, 95
4, 63840, Note_off_c, 9, 44, 95
4, 63840, Note_on_c, 9, 44, 95
4, 64320, Note_off_c, 9, 44, 95
4, 64320, Note_on_c, 9, 44, 95
4, 64800, Note_off_c, 9, 44, 95
4, 64800, Note_on_c, 9, 44, 127
4, 64800, Note_on_c, 9, 70, 127
4, 65280, Note_off_c, 9, 44, 127
4, 65280, Note_off_c, 9, 70, 127
4, 65280, Note_on_c, 9, 44, 95
4, 65760, Note_off_c, 9, 44, 95
4, 65760, Note_on_c, 9, 44, 95
4, 65760, Note_on_c, 9, 46, 95
4, 66240, Note_off_c, 9, 44, 95
4, 66240, Note_off_c, 9, 46, 95
4, 66240, Note_on_c, 9, 44, 95
4, 66720, Note_off_c, 9, 44, 95
4, 66720, Note_on_c, 9, 44, 95
4, 67200, Note_off_c, 9, 44, 95
4, 67200, Note_on_c, 9, 44, 95
4, 67680, Note_off_c, 9, 44, 95
4, 67680, Note_on_c, 9, 44, 95
4, 67680, Note_on_c, 9, 70, 95
4, 68160, Note_off_c, 9, 44, 95
4, 68160, Note_off_c, 9, 70, 95
4, 68160, Note_on_c, 9, 44, 95
4, 68160, Note_on_c, 9, 46, 95
4, 68640, Note_off_c, 9, 44, 95
4, 68640, Note_off_c, 9, 46, 95
4, 68640, Note_on_c, 9, 44, 95
4, 69120, Note_off_c, 9, 44, 95
4, 69120, Note_on_c, 9, 44, 95
4, 69600, Note_off_c, 9, 44, 95
4, 69600, Note_on_c, 9, 44, 95
4, 70080, Note_off_c, 9, 44, 95
4, 70080, Note_on_c, 9, 44, 95
4, 70560, Note_off_c, 9, 44, 95
4, 70560, Note_on_c, 9, 44, 127
4, 70560, Note_on_c, 9, 70, 127
4, 71040, Note_off_c, 9, 44, 127
4, 71040, Note_off_c, 9, 70, 127
4, 71040, Note_on_c, 9, 44, 95
4, 71520, Note_off_c, 9, 44, 95
4, 71520, Note_on_c, 9, 44, 95
4, 72000, Note_off_c, 9, 44, 95
4, 72000, Note_on_c, 9, 44, 95
4, 72480, Note_off_c, 9, 44, 95
4, 72480, Note_on_c, 9, 44, 95
4, 72960, Note_off_c, 9, 44, 95
4, 72960, Note_on_c, 9, 44, 95
4, 73440, Note_off_c, 9, 44, 95
4, 73440, Note_on_c, 9, 44, 127
4, 73440, Note_on_c, 9, 70, 127
4, 73920, Note_off_c, 9, 44, 127
4, 73920, Note_off_c, 9, 70, 127
4, 73920, Note_on_c, 9, 44, 95
4, 74400, Note_off_c, 9, 44, 95
4, 74400, Note_on_c, 9, 44, 95
4, 74880, Note_off_c, 9, 44, 95
4, 74880, Note_on_c, 9, 44, 95
4, 75360, Note_off_c, 9, 44, 95
4, 75360, Note_on_c, 9, 44, 95
4, 75840, Note_off_c, 9, 44, 95
4, 75840, Note_on_c, 9, 44, 95
4, 76320, Note_off_c, 9, 44, 95
4, 76320, Note_on_c, 9, 44, 127
4, 76320, Note_on_c, 9, 70, 127
4, 76800, Note_off_c, 9, 44, 127
4, 76800, Note_off_c, 9, 70, 127
4, 76800, Note_on_c, 9, 44, 95
4, 77280, Note_off_c, 9, 44, 95
4, 77280, Note_on_c, 9, 44, 95
4, 77280, Note_on_c, 9, 46, 95
4, 77760, Note_off_c, 9, 44, 95
4, 77760, Note_off_c, 9, 46, 95
4, 77760, Note_on_c, 9, 44, 95
4, 78240, Note_off_c, 9, 44, 95
4, 78240, Note_on_c, 9, 44, 95
4, 78720, Note_off_c, 9, 44, 95
4, 78720, Note_on_c, 9, 44, 95
4, 79200, Note_off_c, 9, 44, 95
4, 79200, Note_on_c, 9, 44, 95
4, 79200, Note_on_c, 9, 70, 95
4, 79680, Note_off_c, 9, 44, 95
4, 79680, Note_off_c, 9, 70, 95
4, 79680, Note_on_c, 9, 44, 95
4, 79680, Note_on_c, 9, 46, 95
4, 80160, Note_off_c, 9, 44, 95
4, 80160, Note_off_c, 9, 46, 95
4, 80160, Note_on_c, 9, 44, 95
4, 80640, Note_off_c, 9, 44, 95
4, 80640, Note_on_c, 9, 44, 95
4, 81120, Note_off_c, 9, 44, 95
4, 81120, Note_on_c, 9, 44, 95
4, 81600, Note_off_c, 9, 44, 95
4, 81600, Note_on_c, 9, 44, 95
4, 82080, Note_off_c, 9, 44, 95
4, 82080, Note_on_c, 9, 44, 127
4, 82080, Note_on_c, 9, 70, 127
4, 82560, Note_off_c, 9, 44, 127
4, 82560, Note_off_c, 9, 70, 127
4, 82560, Note_on_c, 9, 44, 95
4, 83040, Note_off_c, 9, 44, 95
4, 83040, Note_on_c, 9, 44, 95
4, 83520, Note_off_c, 9, 44, 95
4, 83520, Note_on_c, 9, 44, 95
4, 84000, Note_off_c, 9, 44, 95
4, 84000, Note_on_c, 9, 44, 95
4, 84480, Note_off_c, 9, 44, 95
4, 84480, Note_on_c, 9, 44, 95
4, 84960, Note_off_c, 9, 44, 95
4, 84960, Note_on_c, 9, 44, 127
4, 84960, Note_on_c, 9, 70, 127
4, 85440, Note_off_c, 9, 44, 127
4, 85440, Note_off_c, 9, 70, 127
4, 85440, Note_on_c, 9, 44, 95
4, 85920, Note_off_c, 9, 44, 95
4, 85920, Note_on_c, 9, 44, 95
4, 86400, Note_off_c, 9, 44, 95
4, 86400, Note_on_c, 9, 44, 95
4, 86880, Note_off_c, 9, 44, 95
4, 86880, Note_on_c, 9, 44, 95
4, 87360, Note_off_c, 9, 44, 95
4, 87360, Note_on_c, 9, 44, 95
4, 87840, Note_off_c, 9, 44, 95
4, 87840, Note_on_c, 9, 44, 127
4, 87840, Note_on_c, 9, 70, 127
4, 88320, Note_off_c, 9, 44, 127
4, 88320, Note_off_c, 9, 70, 127
4, 88320, Note_on_c, 9, 44, 95
4, 88800, Note_off_c, 9, 44, 95
4, 88800, Note_on_c, 9, 44, 95
4, 88800, Note_on_c, 9, 46, 95
4, 89280, Note_off_c, 9, 44, 95
4, 89280, Note_off_c, 9, 46, 95
4, 89280, Note_on_c, 9, 44, 95
4, 89760, Note_off_c, 9, 44, 95
4, 89760, Note_on_c, 9, 44, 95
4, 90240, Note_off_c, 9, 44, 95
4, 90240, Note_on_c, 9, 44, 95
4, 90720, Note_off_c, 9, 44, 95
4, 90720, Note_on_c, 9, 44, 95
4, 90720, Note_on_c, 9, 70, 95
4, 91200, Note_off_c, 9, 44, 95
4, 91200, Note_off_c, 9, 70, 95
4, 91200, Note_on_c, 9, 44, 95
4, 91200, Note_on_c, 9, 46, 95
4, 91680, Note_off_c, 9, 44, 95
4, 91680, Note_off_c, 9, 46, 95
4, 91680, Note_on_c, 9, 44, 95
4, 92160, Note_off_c, 9, 44, 95
4, 92160, Note_on_c, 9, 44, 95
4, 92640, Note_off_c, 9, 44, 95
4, 92640, Note_on_c, 9, 44, 95
4, 93120, Note_off_c, 9, 44, 95
4, 93120, Note_on_c, 9, 44, 95
4, 93600, Note_off_c, 9, 44, 95
4, 93600, Note_on_c, 9, 44, 127
4, 93600, Note_on_c, 9, 70, 127
4, 94080, Note_off_c, 9, 44, 127
4, 94080, Note_off_c, 9, 70, 127
4, 94080, Note_on_c, 9, 44, 95
4, 94560, Note_off_c, 9, 44, 95
4, 94560, Note_on_c, 9, 44, 95
4, 95040, Note_off_c, 9, 44, 95
4, 95040, Note_on_c, 9, 44, 95
4, 95520, Note_off_c, 9, 44, 95
4, 95520, Note_on_c, 9, 44, 95
4, 96000, Note_off_c, 9, 44, 95
4, 96000, Note_on_c, 9, 44, 95
4, 96480, Note_off_c, 9, 44, 95
4, 96480, Note_on_c, 9, 44, 127
4, 96480, Note_on_c, 9, 70, 127
4, 96960, Note_off_c, 9, 44, 127
4, 96960, Note_off_c, 9, 70, 127
4, 96960, Note_on_c, 9, 44, 95
4, 97440, Note_off_c, 9, 44, 95
4, 97440, Note_on_c, 9, 44, 95
4, 97920, Note_off_c, 9, 44, 95
4, 97920, Note_on_c, 9, 44, 95
4, 98400, Note_off_c, 9, 44, 95
4, 98400, Note_on_c, 9, 44, 95
4, 98880, Note_off_c, 9, 44, 95
4, 98880, Note_on_c, 9, 44, 95
4, 99360, Note_off_c, 9, 44, 95
4, 99360, Note_on_c, 9, 44, 127
4, 99360, Note_on_c, 9, 70, 127
4, 99840, Note_off_c, 9, 44, 127
4, 99840, Note_off_c, 9, 70, 127
4, 99840, Note_on_c, 9, 44, 95
4, 100320, Note_off_c, 9, 44, 95
4, 100320, Note_on_c, 9, 44, 95
4, 100320, Note_on_c, 9, 46, 95
4, 100800, Note_off_c, 9, 44, 95
4, 100800, Note_off_c, 9, 46, 95
4, 100800, Note_on_c, 9, 44, 95
4, 101280, Note_off_c, 9, 44, 95
4, 101280, Note_on_c, 9, 44, 95
4, 101760, Note_off_c, 9, 44, 95
4, 101760, Note_on_c, 9, 44, 95
4, 102240, Note_off_c, 9, 44, 95
4, 102240, Note_on_c, 9, 44, 95
4, 102240, Note_on_c, 9, 70, 95
4, 102720, Note_off_c, 9, 44, 95
4, 102720, Note_off_c, 9, 70, 95
4, 102720, Note_on_c, 9, 44, 95
4, 102720, Note_on_c, 9, 46, 95
4, 103200, Note_off_c, 9, 44, 95
4, 103200, Note_off_c, 9, 46, 95
4, 103200, Note_on_c, 9, 44, 95
4, 103680, Note_off_c, 9, 44, 95
4, 103680, Note_on_c, 9, 44, 95
4, 104160, Note_off_c, 9, 44, 95
4, 104160, Note_on_c, 9, 44, 95
4, 104640, Note_off_c, 9, 44, 95
4, 104640, Note_on_c, 9, 44, 95
4, 105120, Note_off_c, 9, 44, 95
4, 105120, Note_on_c, 9, 44, 127
4, 105120, Note_on_c, 9, 70, 127
4, 105600, Note_off_c, 9, 44, 127
4, 105600, Note_off_c, 9, 70, 127
4, 105600, Note_on_c, 9, 44, 95
4, 106080, Note_off_c, 9, 44, 95
4, 106080, Note_on_c, 9, 44, 95
4, 106560, Note_off_c, 9, 44, 95
4, 106560, Note_on_c, 9, 44, 95
4, 107040, Note_off_c, 9, 44, 95
4, 107040, Note_on_c, 9, 44, 95
4, 107520, Note_off_c, 9, 44, 95
4, 107520, Note_on_c, 9, 44, 95
4, 108000, Note_off_c, 9, 44, 95
4, 108000, Note_on_c, 9, 44, 127
4, 108000, Note_on_c, 9, 70, 127
4, 108480, Note_off_c, 9, 44, 127
4, 108480, Note_off_c, 9, 70, 127
4, 108480, Note_on_c, 9, 44, 95
4, 108960, Note_off_c, 9, 44, 95
4, 108960, Note_on_c, 9, 44, 95
4, 109440, Note_off_c, 9, 44, 95
4, 109440, Note_on_c, 9, 44, 95
4, 109920, Note_off_c, 9, 44, 95
4, 109920, Note_on_c, 9, 44, 95
4, 110400, Note_off_c, 9, 44, 95
4, 110400, Note_on_c, 9, 44, 95
4, 110880, Note_off_c, 9, 44, 95
4, 110880, Note_on_c, 9, 44, 127
4, 110880, Note_on_c, 9, 70, 127
4, 111360, Note_off_c, 9, 44, 127
4, 111360, Note_off_c, 9, 70, 127
4, 111360, Note_on_c, 9, 44, 95
4, 111840, Note_off_c, 9, 44, 95
4, 111840, Note_on_c, 9, 44, 95
4, 111840, Note_on_c, 9, 46, 95
4, 112320, Note_off_c, 9, 44, 95
4, 112320, Note_off_c, 9, 46, 95
4, 112320, Note_on_c, 9, 44, 95
4, 112800, Note_off_c, 9, 44, 95
4, 112800, Note_on_c, 9, 44, 95
4, 113280, Note_off_c, 9, 44, 95
4, 113280, Note_on_c, 9, 44, 95
4, 113760, Note_off_c, 9, 44, 95
4, 113760, Note_on_c, 9, 44, 95
4, 113760, Note_on_c, 9, 70, 95
4, 114240, Note_off_c, 9, 44, 95
4, 114240, Note_off_c, 9, 70, 95
4, 114240, Note_on_c, 9, 44, 95
4, 114240, Note_on_c, 9, 46, 95
4, 114720, Note_off_c, 9, 44, 95
4, 114720, Note_off_c, 9, 46, 95
4, 114720, Note_on_c, 9, 44, 95
4, 115200, Note_off_c, 9, 44, 95
4, 115200, Note_on_c, 9, 44, 95
4, 115680, Note_off_c, 9, 44, 95
4, 115680, Note_on_c, 9, 44, 95
4, 116160, Note_off_c, 9, 44, 95
4, 116160, Note_on_c, 9, 44, 95
4, 116640, Note_off_c, 9, 44, 95
4, 116640, Note_on_c, 9, 44, 127
4, 116640, Note_on_c, 9, 70, 127
4, 117120, Note_off_c, 9, 44, 127
4, 117120, Note_off_c, 9, 70, 127
4, 117120, Note_on_c, 9, 44, 95
4, 117600, Note_off_c, 9, 44, 95
4, 117600, Note_on_c, 9, 44, 95
4, 118080, Note_off_c, 9, 44, 95
4, 118080, Note_on_c, 9, 44, 95
4, 118560, Note_off_c, 9, 44, 95
4, 118560, Note_on_c, 9, 44, 95
4, 119040, Note_off_c, 9, 44, 95
4, 119040, Note_on_c, 9, 44, 95
4, 119520, Note_off_c, 9, 44, 95
4, 119520, Note_on_c, 9, 44, 127
4, 119520, Note_on_c, 9, 70, 127
4, 120000, Note_off_c, 9, 44, 127
4, 120000, Note_off_c, 9, 70, 127
4, 120000, Note_on_c, 9, 44, 95
4, 120480, Note_off_c, 9, 44, 95
4, 120480, Note_on_c, 9, 44, 95
4, 120960, Note_off_c, 9, 44, 95
4, 120960, Note_on_c, 9, 44, 95
4, 121440, Note_off_c, 9, 44, 95
4, 121440, Note_on_c, 9, 44, 95
4, 121920, Note_off_c, 9, 44, 95
4, 121920, Note_on_c, 9, 44, 95
4, 122400, Note_off_c, 9, 44, 95
4, 122400, Note_on_c, 9, 44, 127
4, 122400, Note_on_c, 9, 70, 127
4, 122880, Note_off_c, 9, 44, 127
4, 122880, Note_off_c, 9, 70, 127
4, 122880, Note_on_c, 9, 44, 95
4, 123360, Note_off_c, 9, 44, 95
4, 123360, Note_on_c, 9, 44, 95
4, 123360, Note_on_c, 9, 46, 95
4, 123840, Note_off_c, 9, 44, 95
4, 123840, Note_off_c, 9, 46, 95
4, 123840, Note_on_c, 9, 44, 95
4, 124320, Note_off_c, 9, 44, 95
4, 124320, Note_on_c, 9, 44, 95
4, 124800, Note_off_c, 9, 44, 95
4, 124800, Note_on_c, 9, 44, 95
4, 125280, Note_off_c, 9, 44, 95
4, 125280, Note_on_c, 9, 44, 95
4, 125280, Note_on_c, 9, 70, 95
4, 125760, Note_off_c, 9, 44, 95
4, 125760, Note_off_c, 9, 70, 95
4, 125760, Note_on_c, 9, 44, 95
4, 125760, Note_on_c, 9, 46, 95
4, 126240, Note_off_c, 9, 44, 95
4, 126240, Note_off_c, 9, 46, 95
4, 126240, Note_on_c, 9, 44, 95
4, 126720, Note_off_c, 9, 44, 95
4, 126720, Note_on_c, 9, 44, 95
4, 127200, Note_off_c, 9, 44, 95
4, 127200, Note_on_c, 9, 44, 95
4, 127680, Note_off_c, 9, 44, 95
4, 127680, Note_on_c, 9, 44, 95
4, 128160, Note_off_c, 9, 44, 95
4, 128160, Note_on_c, 9, 44, 127
4, 128160, Note_on_c, 9, 70, 127
4, 128640, Note_off_c, 9, 44, 127
4, 128640, Note_off_c, 9, 70, 127
4, 128640, Note_on_c, 9, 44, 95
4, 129120, Note_off_c, 9, 44, 95
4, 129120, Note_on_c, 9, 44, 95
4, 129600, Note_off_c, 9, 44, 95
4, 129600, Note_on_c, 9, 44, 95
4, 130080, Note_off_c, 9, 44, 95
4, 130080, Note_on_c, 9, 44, 95
4, 130560, Note_off_c, 9, 44, 95
4, 130560, Note_on_c, 9, 44, 95
4, 131040, Note_off_c, 9, 44, 95
4, 131040, Note_on_c, 9, 44, 127
4, 131040, Note_on_c, 9, 70, 127
4, 131520, Note_off_c, 9, 44, 127
4, 131520, Note_off_c, 9, 70, 127
4, 131520, Note_on_c, 9, 44, 95
4, 132000, Note_off_c, 9, 44, 95
4, 132000, Note_on_c, 9, 44, 95
4, 132480, Note_off_c, 9, 44, 95
4, 132480, Note_on_c, 9, 44, 95
4, 132960, Note_off_c, 9, 44, 95
4, 132960, Note_on_c, 9, 44, 95
4, 133440, Note_off_c, 9, 44, 95
4, 133440, Note_on_c, 9, 44, 95
4, 133920, Note_off_c, 9, 44, 95
4, 133920, Note_on_c, 9, 44, 127
4, 133920, Note_on_c, 9, 70, 127
4, 134400, Note_off_c, 9, 44, 127
4, 134400, Note_off_c, 9, 70, 127
4, 134400, Note_on_c, 9, 44, 95
4, 134880, Note_off_c, 9, 44, 95
4, 134880, Note_on_c, 9, 44, 95
4, 134880, Note_on_c, 9, 46, 95
4, 135360, Note_off_c, 9, 44, 95
4, 135360, Note_off_c, 9, 46, 95
4, 135360, Note_on_c, 9, 44, 95
4, 135840, Note_off_c, 9, 44, 95
4, 135840, Note_on_c, 9, 44, 95
4, 136320, Note_off_c, 9, 44, 95
4, 136320, Note_on_c, 9, 44, 95
4, 136800, Note_off_c, 9, 44, 95
4, 136800, Note_on_c, 9, 44, 95
4, 136800, Note_on_c, 9, 70, 95
4, 137280, Note_off_c, 9, 44, 95
4, 137280, Note_off_c, 9, 70, 95
4, 137280, Note_on_c, 9, 44, 95
4, 137280, Note_on_c, 9, 46, 95
4, 137760, Note_off_c, 9, 44, 95
4, 137760, Note_off_c, 9, 46, 95
4, 137760, Note_on_c, 9, 44, 95
4, 138240, Note_off_c, 9, 44, 95
4, 138240, Note_on_c, 9, 44, 95
4, 138720, Note_off_c, 9, 44, 95
4, 138720, Note_on_c, 9, 44, 95
4, 139200, Note_off_c, 9, 44, 95
4, 139200, Note_on_c, 9, 44, 95
4, 139680, Note_off_c, 9, 44, 95
4, 139680, Note_on_c, 9, 44, 127
4, 139680, Note_on_c, 9, 70, 127
4, 140160, Note_off_c, 9, 44, 127
4, 140160, Note_off_c, 9, 70, 127
4, 140160, Note_on_c, 9, 44, 95
4, 140640, Note_off_c, 9, 44, 95
4, 140640, Note_on_c, 9, 44, 95
4, 141120, Note_off_c, 9, 44, 95
4, 141120, Note_on_c, 9, 44, 95
4, 141600, Note_off_c, 9, 44, 95
4, 141600, Note_on_c, 9, 44, 95
4, 142080, Note_off_c, 9, 44, 95
4, 142080, Note_on_c, 9, 44, 95
4, 142560, Note_off_c, 9, 44, 95
4, 142560, Note_on_c, 9, 44, 127
4, 142560, Note_on_c, 9, 70, 127
4, 143040, Note_off_c, 9, 44, 127
4, 143040, Note_off_c, 9, 70, 127
4, 143040, Note_on_c, 9, 44, 95
4, 143520, Note_off_c, 9, 44, 95
4, 143520, Note_on_c, 9, 44, 95
4, 144000, Note_off_c, 9, 44, 95
4, 144000, Note_on_c, 9, 44, 95
4, 144480, Note_off_c, 9, 44, 95
4, 144480, Note_on_c, 9, 44, 95
4, 144960, Note_off_c, 9, 44, 95
4, 144960, Note_on_c, 9, 44, 95
4, 145440, Note_off_c, 9, 44, 95
4, 145440, Note_on_c, 9, 44, 127
4, 145440, Note_on_c, 9, 70, 127
4, 145920, Note_off_c, 9, 44, 127
4, 145920, Note_off_c, 9, 70, 127
4, 145920, Note_on_c, 9, 44, 95
4, 146400, Note_off_c, 9, 44, 95
4, 146400, Note_on_c, 9, 44, 95
4, 146400, Note_on_c, 9, 46, 95
4, 146880, Note_off_c, 9, 44, 95
4, 146880, Note_off_c, 9, 46, 95
4, 146880, Note_on_c, 9, 44, 95
4, 147360, Note_off_c, 9, 44, 95
4, 147360, Note_on_c, 9, 44, 95
4, 147840, Note_off_c, 9, 44, 95
4, 147840, Note_on_c, 9, 44, 95
4, 148320, Note_off_c, 9, 44, 95
4, 148320, Note_on_c, 9, 44, 95
4, 148320, Note_on_c, 9, 70, 95
4, 148800, Note_off_c, 9, 44, 95
4, 148800, Note_off_c, 9, 70, 95
4, 148800, Note_on_c, 9, 44, 95
4, 148800, Note_on_c, 9, 46, 95
4, 149280, Note_off_c, 9, 44, 95
4, 149280, Note_off_c, 9, 46, 95
4, 149280, Note_on_c, 9, 44, 95
4, 149760, Note_off_c, 9, 44, 95
4, 149760, Note_on_c, 9, 44, 95
4, 150240, Note_off_c, 9, 44, 95
4, 150240, Note_on_c, 9, 44, 95
4, 150720, Note_off_c, 9, 44, 95
4, 150720, Note_on_c, 9, 44, 95
4, 151200, Note_off_c, 9, 44, 95
4, 151200, Note_on_c, 9, 44, 127
4, 151200, Note_on_c, 9, 70, 127
4, 151680, Note_off_c, 9, 44, 127
4, 151680, Note_off_c, 9, 70, 127
4, 151680, Note_on_c, 9, 44, 95
4, 152160, Note_off_c, 9, 44, 95
4, 152160, Note_on_c, 9, 44, 95
4, 152640, Note_off_c, 9, 44, 95
4, 152640, Note_on_c, 9, 44, 95
4, 153120, Note_off_c, 9, 44, 95
4, 153120, Note_on_c, 9, 44, 95
4, 153600, Note_off_c, 9, 44, 95
4, 153600, Note_on_c, 9, 44, 95
4, 154080, Note_off_c, 9, 44, 95
4, 154080, Note_on_c, 9, 44, 127
4, 154080, Note_on_c, 9, 70, 127
4, 154560, Note_off_c, 9, 44, 127
4, 154560, Note_off_c, 9, 70, 127
4, 154560, Note_on_c, 9, 44, 95
4, 155040, Note_off_c, 9, 44, 95
4, 155040, Note_on_c, 9, 44, 95
4, 155520, Note_off_c, 9, 44, 95
4, 155520, Note_on_c, 9, 44, 95
4, 156000, Note_off_c, 9, 44, 95
4, 156000, Note_on_c, 9, 44, 95
4, 156480, Note_off_c, 9, 44, 95
4, 156480, Note_on_c, 9, 44, 95
4, 156960, Note_off_c, 9, 44, 95
4, 156960, Note_on_c, 9, 44, 127
4, 156960, Note_on_c, 9, 70, 127
4, 157440, Note_off_c, 9, 44, 127
4, 157440, Note_off_c, 9, 70, 127
4, 157440, Note_on_c, 9, 44, 95
4, 157920, Note_off_c, 9, 44, 95
4, 157920, Note_on_c, 9, 44, 95
4, 157920, Note_on_c, 9, 46, 95
4, 158400, Note_off_c, 9, 44, 95
4, 158400, Note_off_c, 9, 46, 95
4, 158400, Note_on_c, 9, 44, 95
4, 158880, Note_off_c, 9, 44, 95
4, 158880, Note_on_c, 9, 44, 95
4, 159360, Note_off_c, 9, 44, 95
4, 159360, Note_on_c, 9, 44, 95
4, 159840, Note_off_c, 9, 44, 95
4, 159840, Note_on_c, 9, 44, 95
4, 159840, Note_on_c, 9, 70, 95
4, 160320, Note_off_c, 9, 44, 95
4, 160320, Note_off_c, 9, 70, 95
4, 160320, Note_on_c, 9, 44, 95
4, 160320, Note_on_c, 9, 46, 95
4, 160800, Note_off_c, 9, 44, 95
4, 160800, Note_off_c, 9, 46, 95
4, 160800, Note_on_c, 9, 44, 95
4, 161280, Note_off_c, 9, 44, 95
4, 161280, Note_on_c, 9, 44, 95
4, 161760, Note_off_c, 9, 44, 95
4, 161760, Note_on_c, 9, 44, 95
4, 162240, Note_off_c, 9, 44, 95
4, 162240, Note_on_c, 9, 44, 95
4, 162720, Note_off_c, 9, 44, 95
4, 162720, Note_on_c, 9, 44, 127
4, 162720, Note_on_c, 9, 70, 127
4, 163200, Note_off_c, 9, 44, 127
4, 163200, Note_off_c, 9, 70, 127
4, 163200, Note_on_c, 9, 44, 95
4, 163680, Note_off_c, 9, 44, 95
4, 163680, Note_on_c, 9, 44, 95
4, 164160, Note_off_c, 9, 44, 95
4, 164160, Note_on_c, 9, 44, 95
4, 164640, Note_off_c, 9, 44, 95
4, 164640, Note_on_c, 9, 44, 95
4, 165120, Note_off_c, 9, 44, 95
4, 165120, Note_on_c, 9, 44, 95
4, 165600, Note_off_c, 9, 44, 95
4, 165600, Note_on_c, 9, 44, 127
4, 165600, Note_on_c, 9, 70, 127
4, 166080, Note_off_c, 9, 44, 127
4, 166080, Note_off_c, 9, 70, 127
4, 166080, Note_on_c, 9, 44, 95
4, 166560, Note_off_c, 9, 44, 95
4, 166560, Note_on_c, 9, 44, 95
4, 167040, Note_off_c, 9, 44, 95
4, 167040, Note_on_c, 9, 44, 95
4, 167520, Note_off_c, 9, 44, 95
4, 167520, Note_on_c, 9, 44, 95
4, 168000, Note_off_c, 9, 44, 95
4, 168000, Note_on_c, 9, 44, 95
4, 168480, Note_off_c, 9, 44, 95
4, 168480, Note_on_c, 9, 44, 127
4, 168480, Note_on_c, 9, 70, 127
4, 168960, Note_off_c, 9, 44, 127
4, 168960, Note_off_c, 9, 70, 127
4, 168960, Note_on_c, 9, 44, 95
4, 169440, Note_off_c, 9, 44, 95
4, 169440, Note_on_c, 9, 44, 95
4, 169440, Note_on_c, 9, 46, 95
4, 169920, Note_off_c, 9, 44, 95
4, 169920, Note_off_c, 9, 46, 95
4, 169920, Note_on_c, 9, 44, 95
4, 170400, Note_off_c, 9, 44, 95
4, 170400, Note_on_c, 9, 44, 95
4, 170880, Note_off_c, 9, 44, 95
4, 170880, Note_on_c, 9, 44, 95
4, 171360, Note_off_c, 9, 44, 95
4, 171360, Note_on_c, 9, 44, 95
4, 171360, Note_on_c, 9, 70, 95
4, 171840, Note_off_c, 9, 44, 95
4, 171840, Note_off_c, 9, 70, 95
4, 171840, Note_on_c, 9, 44, 95
4, 171840, Note_on_c, 9, 46, 95
4, 172320, Note_off_c, 9, 44, 95
4, 172320, Note_off_c, 9, 46, 95
4, 172320, Note_on_c, 9, 44, 95
4, 172800, Note_off_c, 9, 44, 95
4, 172800, Note_on_c, 9, 44, 95
4, 173280, Note_off_c, 9, 44, 95
4, 173280, Note_on_c, 9, 44, 95
4, 173760, Note_off_c, 9, 44, 95
4, 173760, Note_on_c, 9, 44, 95
4, 174240, Note_off_c, 9, 44, 95
4, 174240, Note_on_c, 9, 44, 127
4, 174240, Note_on_c, 9, 70, 127
4, 174720, Note_off_c, 9, 44, 127
4, 174720, Note_off_c, 9, 70, 127
4, 174720, Note_on_c, 9, 44, 95
4, 175200, Note_off_c, 9, 44, 95
4, 175200, Note_on_c, 9, 44, 95
4, 175680, Note_off_c, 9, 44, 95
4, 175680, Note_on_c, 9, 44, 95
4, 176160, Note_off_c, 9, 44, 95
4, 176160, Note_on_c, 9, 44, 95
4, 176640, Note_off_c, 9, 44, 95
4, 176640, Note_on_c, 9, 44, 95
4, 177120, Note_off_c, 9, 44, 95
4, 177120, Note_on_c, 9, 44, 127
4, 177120, Note_on_c, 9, 70, 127
4, 177600, Note_off_c, 9, 44, 127
4, 177600, Note_off_c, 9, 70, 127
4, 177600, Note_on_c, 9, 44, 95
4, 178080, Note_off_c, 9, 44, 95
4, 178080, Note_on_c, 9, 44, 95
4, 178560, Note_off_c, 9, 44, 95
4, 178560, Note_on_c, 9, 44, 95
4, 179040, Note_off_c, 9, 44, 95
4, 179040, Note_on_c, 9, 44, 95
4, 179520, Note_off_c, 9, 44, 95
4, 179520, Note_on_c, 9, 44, 95
4, 180000, Note_off_c, 9, 44, 95
4, 180000, Note_on_c, 9, 44, 127
4, 180000, Note_on_c, 9, 70, 127
4, 180480, Note_off_c, 9, 44, 127
4, 180480, Note_off_c, 9, 70, 127
4, 180480, Note_on_c, 9, 44, 95
4, 180960, Note_off_c, 9, 44, 95
4, 180960, Note_on_c, 9, 44, 95
4, 180960, Note_on_c, 9, 46, 95
4, 181440, Note_off_c, 9, 44, 95
4, 181440, Note_off_c, 9, 46, 95
4, 181440, Note_on_c, 9, 44, 95
4, 181920, Note_off_c, 9, 44, 95
4, 181920, Note_on_c, 9, 44, 95
4, 182400, Note_off_c, 9, 44, 95
4, 182400, Note_on_c, 9, 44, 95
4, 182880, Note_off_c, 9, 44, 95
4, 182880, Note_on_c, 9, 44, 95
4, 182880, Note_on_c, 9, 70, 95
4, 183360, Note_off_c, 9, 44, 95
4, 183360, Note_off_c, 9, 70, 95
4, 183360, Note_on_c, 9, 44, 95
4, 183360, Note_on_c, 9, 46, 95
4, 183840, Note_off_c, 9, 44, 95
4, 183840, Note_off_c, 9, 46, 95
4, 183840, Note_on_c, 9, 44, 95
4, 184320, Note_off_c, 9, 44, 95
4, 184320, Note_on_c, 9, 44, 95
4, 184800, Note_off_c, 9, 44, 95
4, 184800, Note_on_c, 9, 44, 95
4, 185280, Note_off_c, 9, 44, 95
4, 185280, Note_on_c, 9, 44, 95
4, 185760, Note_off_c, 9, 44, 95
4, 185760, Note_on_c, 9, 44, 127
4, 185760, Note_on_c, 9, 70, 127
4, 186240, Note_off_c, 9, 44, 127
4, 186240, Note_off_c, 9, 70, 127
4, 186240, Note_on_c, 9, 44, 95
4, 186720, Note_off_c, 9, 44, 95
4, 186720, Note_on_c, 9, 44, 95
4, 187200, Note_off_c, 9, 44, 95
4, 187200, Note_on_c, 9, 44, 95
4, 187680, Note_off_c, 9, 44, 95
4, 187680, Note_on_c, 9, 44, 95
4, 188160, Note_off_c, 9, 44, 95
4, 188160, Note_on_c, 9, 44, 95
4, 188640, Note_off_c, 9, 44, 95
4, 188640, Note_on_c, 9, 44, 127
4, 188640, Note_on_c, 9, 70, 127
4, 189120, Note_off_c, 9, 44, 127
4, 189120, Note_off_c, 9, 70, 127
4, 189120, Note_on_c, 9, 44, 95
4, 189600, Note_off_c, 9, 44, 95
4, 189600, Note_on_c, 9, 44, 95
4, 190080, Note_off_c, 9, 44, 95
4, 190080, Note_on_c, 9, 44, 95
4, 190560, Note_off_c, 9, 44, 95
4, 190560, Note_on_c, 9, 44, 95
4, 191040, Note_off_c, 9, 44, 95
4, 191040, Note_on_c, 9, 44, 95
4, 191520, Note_off_c, 9, 44, 95
4, 191520, Note_on_c, 9, 44, 127
4, 191520, Note_on_c, 9, 70, 127
4, 192000, Note_off_c, 9, 44, 127
4, 192000, Note_off_c, 9, 70, 127
4, 192000, Note_on_c, 9, 44, 95
4, 192480, Note_off_c, 9, 44, 95
4, 192480, Note_on_c, 9, 44, 95
4, 192480, Note_on_c, 9, 46, 95
4, 192960, Note_off_c, 9, 44, 95
4, 192960, Note_off_c, 9, 46, 95
4, 192960, Note_on_c, 9, 44, 95
4, 193440, Note_off_c, 9, 44, 95
4, 193440, Note_on_c, 9, 44, 95
4, 193920, Note_off_c, 9, 44, 95
4, 193920, Note_on_c, 9, 44, 95
4, 194400, Note_off_c, 9, 44, 95
4, 194400, Note_on_c, 9, 44, 95
4, 194400, Note_on_c, 9, 70, 95
4, 194880, Note_off_c, 9, 44, 95
4, 194880, Note_off_c, 9, 70, 95
4, 194880, Note_on_c, 9, 44, 95
4, 194880, Note_on_c, 9, 46, 95
4, 195360, Note_off_c, 9, 44, 95
4, 195360, Note_off_c, 9, 46, 95
4, 195360, Note_on_c, 9, 44, 95
4, 195840, Note_off_c, 9, 44, 95
4, 195840, Note_on_c, 9, 44, 95
4, 196320, Note_off_c, 9, 44, 95
4, 196320, Note_on_c, 9, 44, 95
4, 196800, Note_off_c, 9, 44, 95
4, 196800, Note_on_c, 9, 44, 95
4, 197280, Note_off_c, 9, 44, 95
4, 197280, Note_on_c, 9, 44, 127
4, 197280, Note_on_c, 9, 70, 127
4, 197760, Note_off_c, 9, 44, 127
4, 197760, Note_off_c, 9, 70, 127
4, 197760, Note_on_c, 9, 44, 95
4, 198240, Note_off_c, 9, 44, 95
4, 198240, Note_on_c, 9, 44, 95
4, 198720, Note_off_c, 9, 44, 95
4, 198720, Note_on_c, 9, 44, 95
4, 199200, Note_off_c, 9, 44, 95
4, 199200, Note_on_c, 9, 44, 95
4, 199680, Note_off_c, 9, 44, 95
4, 199680, Note_on_c, 9, 44, 95
4, 200160, Note_off_c, 9, 44, 95
4, 200160, Note_on_c, 9, 44, 127
4, 200160, Note_on_c, 9, 70, 127
4, 200640, Note_off_c, 9, 44, 127
4, 200640, Note_off_c, 9, 70, 127
4, 200640, Note_on_c, 9, 44, 95
4, 201120, Note_off_c, 9, 44, 95
4, 201120, Note_on_c, 9, 44, 95
4, 201600, Note_off_c, 9, 44, 95
4, 201600, Note_on_c, 9, 44, 95
4, 202080, Note_off_c, 9, 44, 95
4, 202080, Note_on_c, 9, 44, 95
4, 202560, Note_off_c, 9, 44, 95
4, 202560, Note_on_c, 9, 44, 95
4, 203040, Note_off_c, 9, 44, 95
4, 203040, Note_on_c, 9, 44, 127
4, 203040, Note_on_c, 9, 70, 127
4, 203520, Note_off_c, 9, 44, 127
4, 203520, Note_off_c, 9, 70, 127
4, 203520, Note_on_c, 9, 44, 95
4, 204000, Note_off_c, 9, 44, 95
4, 204000, Note_on_c, 9, 44, 95
4, 204000, Note_on_c, 9, 46, 95
4, 204480, Note_off_c, 9, 44, 95
4, 204480, Note_off_c, 9, 46, 95
4, 204480, Note_on_c, 9, 44, 95
4, 204960, Note_off_c, 9, 44, 95
4, 204960, Note_on_c, 9, 44, 95
4, 205440, Note_off_c, 9, 44, 95
4, 205440, Note_on_c, 9, 44, 95
4, 205920, Note_off_c, 9, 44, 95
4, 205920, Note_on_c, 9, 44, 95
4, 205920, Note_on_c, 9, 70, 95
4, 206400, Note_off_c, 9, 44, 95
4, 206400, Note_off_c, 9, 70, 95
4, 206400, Note_on_c, 9, 44, 95
4, 206400, Note_on_c, 9, 46, 95
4, 206880, Note_off_c, 9, 44, 95
4, 206880, Note_off_c, 9, 46, 95
4, 206880, Note_on_c, 9, 44, 95
4, 207360, Note_off_c, 9, 44, 95
4, 207360, Note_on_c, 9, 44, 95
4, 207840, Note_off_c, 9, 44, 95
4, 207840, Note_on_c, 9, 44, 95
4, 208320, Note_off_c, 9, 44, 95
4, 208320, Note_on_c, 9, 44, 95
4, 208800, Note_off_c, 9, 44, 95
4, 208800, Note_on_c, 9, 44, 127
4, 208800, Note_on_c, 9, 70, 127
4, 209280, Note_off_c, 9, 44, 127
4, 209280, Note_off_c, 9, 70, 127
4, 209280, Note_on_c, 9, 44, 95
4, 209760, Note_off_c, 9, 44, 95
4, 209760, Note_on_c, 9, 44, 95
4, 210240, Note_off_c, 9, 44, 95
4, 210240, Note_on_c, 9, 44, 95
4, 210720, Note_off_c, 9, 44, 95
4, 210720, Note_on_c, 9, 44, 95
4, 211200, Note_off_c, 9, 44, 95
4, 211200, Note_on_c, 9, 44, 95
4, 211680, Note_off_c, 9, 44, 95
4, 211680, Note_on_c, 9, 44, 127
4, 211680, Note_on_c, 9, 70, 127
4, 212160, Note_off_c, 9, 44, 127
4, 212160, Note_off_c, 9, 70, 127
4, 212160, Note_on_c, 9, 44, 95
4, 212640, Note_off_c, 9, 44, 95
4, 212640, Note_on_c, 9, 44, 95
4, 213120, Note_off_c, 9, 44, 95
4, 213120, Note_on_c, 9, 44, 95
4, 213600, Note_off_c, 9, 44, 95
4, 213600, Note_on_c, 9, 44, 95
4, 214080, Note_off_c, 9, 44, 95
4, 214080, Note_on_c, 9, 44, 95
4, 214560, Note_off_c, 9, 44, 95
4, 214560, Note_on_c, 9, 44, 127
4, 214560, Note_on_c, 9, 70, 127
4, 215040, Note_off_c, 9, 44, 127
4, 215040, Note_off_c, 9, 70, 127
4, 215040, Note_on_c, 9, 44, 95
4, 215520, Note_off_c, 9, 44, 95
4, 215520, Note_on_c, 9, 44, 95
4, 215520, Note_on_c, 9, 46, 95
4, 216000, Note_off_c, 9, 44, 95
4, 216000, Note_off_c, 9, 46, 95
4, 216000, Note_on_c, 9, 44, 95
4, 216480, Note_off_c, 9, 44, 95
4, 216480, Note_on_c, 9, 44, 95
4, 216960, Note_off_c, 9, 44, 95
4, 216960, Note_on_c, 9, 44, 95
4, 217440, Note_off_c, 9, 44, 95
4, 217440, Note_on_c, 9, 44, 95
4, 217440, Note_on_c, 9, 70, 95
4, 217920, Note_off_c, 9, 44, 95
4, 217920, Note_off_c, 9, 70, 95
4, 217920, Note_on_c, 9, 44, 95
4, 217920, Note_on_c, 9, 46, 95
4, 218400, Note_off_c, 9, 44, 95
4, 218400, Note_off_c, 9, 46, 95
4, 218400, Note_on_c, 9, 44, 95
4, 218880, Note_off_c, 9, 44, 95
4, 218880, Note_on_c, 9, 44, 95
4, 219360, Note_off_c, 9, 44, 95
4, 219360, Note_on_c, 9, 44, 95
4, 219840, Note_off_c, 9, 44, 95
4, 219840, Note_on_c, 9, 44, 95
4, 220320, Note_off_c, 9, 44, 95
4, 220320, Note_on_c, 9, 44, 127
4, 220320, Note_on_c, 9, 70, 127
4, 220800, Note_off_c, 9, 44, 127
4, 220800, Note_off_c, 9, 70, 127
4, 220800, Note_on_c, 9, 44, 95
4, 221280, Note_off_c, 9, 44, 95
4, 221280, Note_on_c, 9, 44, 95
4, 221760, Note_off_c, 9, 44, 95
4, 221760, Note_on_c, 9, 44, 95
4, 222240, Note_off_c, 9, 44, 95
4, 222240, Note_on_c, 9, 44, 95
4, 222720, Note_off_c, 9, 44, 95
4, 222720, Note_on_c, 9, 44, 95
4, 223200, Note_off_c, 9, 44, 95
4, 223200, Note_on_c, 9, 44, 127
4, 223200, Note_on_c, 9, 70, 127
4, 223680, Note_off_c, 9, 44, 127
4, 223680, Note_off_c, 9, 70, 127
4, 223680, Note_on_c, 9, 44, 95
4, 224160, Note_off_c, 9, 44, 95
4, 224160, Note_on_c, 9, 44, 95
4, 224640, Note_off_c, 9, 44, 95
4, 224640, Note_on_c, 9, 44, 95
4, 225120, Note_off_c, 9, 44, 95
4, 225120, Note_on_c, 9, 44, 95
4, 225600, Note_off_c, 9, 44, 95
4, 225600, Note_on_c, 9, 44, 95
4, 226080, Note_off_c, 9, 44, 95
4, 226080, Note_on_c, 9, 44, 127
4, 226080, Note_on_c, 9, 70, 127
4, 226560, Note_off_c, 9, 44, 127
4, 226560, Note_off_c, 9, 70, 127
4, 226560, Note_on_c, 9, 44, 95
4, 227040, Note_off_c, 9, 44, 95
4, 227040, Note_on_c, 9, 44, 95
4, 227040, Note_on_c, 9, 46, 95
4, 227520, Note_off_c, 9, 44, 95
4, 227520, Note_off_c, 9, 46, 95
4, 227520, Note_on_c, 9, 44, 95
4, 228000, Note_off_c, 9, 44, 95
4, 228000, Note_on_c, 9, 44, 95
4, 228480, Note_off_c, 9, 44, 95
4, 228480, Note_on_c, 9, 44, 95
4, 228960, Note_off_c, 9, 44, 95
4, 228960, Note_on_c, 9, 44, 95
4, 228960, Note_on_c, 9, 70, 95
4, 229440, Note_off_c, 9, 44, 95
4, 229440, Note_off_c, 9, 70, 95
4, 229440, Note_on_c, 9, 44, 95
4, 229440, Note_on_c, 9, 46, 95
4, 229920, Note_off_c, 9, 44, 95
4, 229920, Note_off_c, 9, 46, 95
4, 229920, Note_on_c, 9, 44, 95
4, 230400, Note_off_c, 9, 44, 95
4, 230400, Note_on_c, 9, 44, 95
4, 230880, Note_off_c, 9, 44, 95
4, 230880, Note_on_c, 9, 44, 95
4, 231360, Note_off_c, 9, 44, 95
4, 231360, Note_on_c, 9, 44, 95
4, 231840, Note_off_c, 9, 44, 95
4, 231840, Note_on_c, 9, 44, 127
4, 231840, Note_on_c, 9, 70, 127
4, 232320, Note_off_c, 9, 44, 127
4, 232320, Note_off_c, 9, 70, 127
4, 232320, Note_on_c, 9, 44, 95
4, 232800, Note_off_c, 9, 44, 95
4, 232800, Note_on_c, 9, 44, 95
4, 233280, Note_off_c, 9, 44, 95
4, 233280, Note_on_c, 9, 44, 95
4, 233760, Note_off_c, 9, 44, 95
4, 233760, Note_on_c, 9, 44, 95
4, 234240, Note_off_c, 9, 44, 95
4, 234240, Note_on_c, 9, 44, 95
4, 234720, Note_off_c, 9, 44, 95
4, 234720, Note_on_c, 9, 44, 127
4, 234720, Note_on_c, 9, 70, 127
4, 235200, Note_off_c, 9, 44, 127
4, 235200, Note_off_c, 9, 70, 127
4, 235200, Note_on_c, 9, 44, 95
4, 235680, Note_off_c, 9, 44, 95
4, 235680, Note_on_c, 9, 44, 95
4, 236160, Note_off_c, 9, 44, 95
4, 236160, Note_on_c, 9, 44, 95
4, 236640, Note_off_c, 9, 44, 95
4, 236640, Note_on_c, 9, 44, 95
4, 237120, Note_off_c, 9, 44, 95
4, 237120, Note_on_c, 9, 44, 95
4, 237600, Note_off_c, 9, 44, 95
4, 237600, Note_on_c, 9, 44, 127
4, 237600, Note_on_c, 9, 70, 127
4, 238080, Note_off_c, 9, 44, 127
4, 238080, Note_off_c, 9, 70, 127
4, 238080, Note_on_c, 9, 44, 95
4, 238560, Note_off_c, 9, 44, 95
4, 238560, Note_on_c, 9, 44, 95
4, 238560, Note_on_c, 9, 46, 95
4, 239040, Note_off_c, 9, 44, 95
4, 239040, Note_off_c, 9, 46, 95
4, 239040, Note_on_c, 9, 44, 95
4, 239520, Note_off_c, 9, 44, 95
4, 239520, Note_on_c, 9, 44, 95
4, 240000, Note_off_c, 9, 44, 95
4, 240000, Note_on_c, 9, 44, 95
4, 240480, Note_off_c, 9, 44, 95
4, 240480, Note_on_c, 9, 44, 95
4, 240480, Note_on_c, 9, 70, 95
4, 240960, Note_off_c, 9, 44, 95
4, 240960, Note_off_c, 9, 70, 95
4, 240960, Note_on_c, 9, 44, 95
4, 240960, Note_on_c, 9, 46, 95
4, 241440, Note_off_c, 9, 44, 95
4, 241440, Note_off_c, 9, 46, 95
4, 241440, Note_on_c, 9, 44, 95
4, 241920, Note_off_c, 9, 44, 95
4, 241920, Note_on_c, 9, 44, 95
4, 242400, Note_off_c, 9, 44, 95
4, 242400, Note_on_c, 9, 44, 95
4, 242880, Note_off_c, 9, 44, 95
4, 242880, Note_on_c, 9, 44, 95
4, 243360, Note_off_c, 9, 44, 95
4, 243360, Note_on_c, 9, 44, 127
4, 243360, Note_on_c, 9, 70, 127
4, 243840, Note_off_c, 9, 44, 127
4, 243840, Note_off_c, 9, 70, 127
4, 243840, Note_on_c, 9, 44, 95
4, 244320, Note_off_c, 9, 44, 95
4, 244320, Note_on_c, 9, 44, 95
4, 244800, Note_off_c, 9, 44, 95
4, 244800, Note_on_c, 9, 44, 95
4, 245280, Note_off_c, 9, 44, 95
4, 245280, Note_on_c, 9, 44, 95
4, 245760, Note_off_c, 9, 44, 95
4, 245760, Note_on_c, 9, 44, 95
4, 246240, Note_off_c, 9, 44, 95
4, 246240, Note_on_c, 9, 44, 127
4, 246240, Note_on_c, 9, 70, 127
4, 246720, Note_off_c, 9, 44, 127
4, 246720, Note_off_c, 9, 70, 127
4, 246720, Note_on_c, 9, 44, 95
4, 247200, Note_off_c, 9, 44, 95
4, 247200, Note_on_c, 9, 44, 95
4, 247680, Note_off_c, 9, 44, 95
4, 247680, Note_on_c, 9, 44, 95
4, 248160, Note_off_c, 9, 44, 95
4, 248160, Note_on_c, 9, 44, 95
4, 248640, Note_off_c, 9, 44, 95
4, 248640, Note_on_c, 9, 44, 95
4, 249120, Note_off_c, 9, 44, 95
4, 249120, Note_on_c, 9, 44, 127
4, 249120, Note_on_c, 9, 70, 127
4, 249600, Note_off_c, 9, 44, 127
4, 249600, Note_off_c, 9, 70, 127
4, 249600, Note_on_c, 9, 44, 95
4, 250080, Note_off_c, 9, 44, 95
4, 250080, Note_on_c, 9, 44, 95
4, 250080, Note_on_c, 9, 46, 95
4, 250560, Note_off_c, 9, 44, 95
4, 250560, Note_off_c, 9, 46, 95
4, 250560, Note_on_c, 9, 44, 95
4, 251040, Note_off_c, 9, 44, 95
4, 251040, Note_on_c, 9, 44, 95
4, 251520, Note_off_c, 9, 44, 95
4, 251520, Note_on_c, 9, 44, 95
4, 252000, Note_off_c, 9, 44, 95
4, 252000, Note_on_c, 9, 44, 95
4, 252000, Note_on_c, 9, 70, 95
4, 252480, Note_off_c, 9, 44, 95
4, 252480, Note_off_c, 9, 70, 95
4, 252480, Note_on_c, 9, 44, 95
4, 252480, Note_on_c, 9, 46, 95
4, 252960, Note_off_c, 9, 44, 95
4, 252960, Note_off_c, 9, 46, 95
4, 252960, Note_on_c, 9, 44, 95
4, 253440, Note_off_c, 9, 44, 95
4, 253440, Note_on_c, 9, 44, 95
4, 253920, Note_off_c, 9, 44, 95
4, 253920, Note_on_c, 9, 44, 95
4, 254400, Note_off_c, 9, 44, 95
4, 254400, Note_on_c, 9, 44, 95
4, 254880, Note_off_c, 9, 44, 95
4, 254880, Note_on_c, 9, 44, 127
4, 254880, Note_on_c, 9, 70, 127
4, 255360, Note_off_c, 9, 44, 127
4, 255360, Note_off_c, 9, 70, 127
4, 255360, Note_on_c, 9, 44, 95
4, 255840, Note_off_c, 9, 44, 95
4, 255840, Note_on_c, 9, 44, 95
4, 256320, Note_off_c, 9, 44, 95
4, 256320, Note_on_c, 9, 44, 95
4, 256800, Note_off_c, 9, 44, 95
4, 256800, Note_on_c, 9, 44, 95
4, 257280, Note_off_c, 9, 44, 95
4, 257280, Note_on_c, 9, 44, 95
4, 257760, Note_off_c, 9, 44, 95
4, 257760, Note_on_c, 9, 44, 127
4, 257760, Note_on_c, 9, 70, 127
4, 258240, Note_off_c, 9, 44, 127
4, 258240, Note_off_c, 9, 70, 127
4, 258240, Note_on_c, 9, 44, 95
4, 258720, Note_off_c, 9, 44, 95
4, 258720, Note_on_c, 9, 44, 95
4, 259200, Note_off_c, 9, 44, 95
4, 259200, Note_on_c, 9, 44, 95
4, 259680, Note_off_c, 9, 44, 95
4, 259680, Note_on_c, 9, 44, 95
4, 260160, Note_off_c, 9, 44, 95
4, 260160, Note_on_c, 9, 44, 95
4, 260640, Note_off_c, 9, 44, 95
4, 260640, Note_on_c, 9, 44, 127
4, 260640, Note_on_c, 9, 70, 127
4, 261120, Note_off_c, 9, 44, 127
4, 261120, Note_off_c, 9, 70, 127
4, 261120, Note_on_c, 9, 44, 95
4, 261600, Note_off_c, 9, 44, 95
4, 261600, Note_on_c, 9, 44, 95
4, 261600, Note_on_c, 9, 46, 95
4, 262080, Note_off_c, 9, 44, 95
4, 262080, Note_off_c, 9, 46, 95
4, 262080, Note_on_c, 9, 44, 95
4, 262560, Note_off_c, 9, 44, 95
4, 262560, Note_on_c, 9, 44, 95
4, 263040, Note_off_c, 9, 44, 95
4, 263040, Note_on_c, 9, 44, 95
4, 263520, Note_off_c, 9, 44, 95
4, 263520, Note_on_c, 9, 44, 95
4, 263520, Note_on_c, 9, 70, 95
4, 264000, Note_off_c, 9, 44, 95
4, 264000, Note_off_c, 9, 70, 95
4, 264000, Note_on_c, 9, 44, 95
4, 264000, Note_on_c, 9, 46, 95
4, 264480, Note_off_c, 9, 44, 95
4, 264480, Note_off_c, 9, 46, 95
4, 264480, Note_on_c, 9, 44, 95
4, 264960, Note_off_c, 9, 44, 95
4, 264960, Note_on_c, 9, 44, 95
4, 265440, Note_off_c, 9, 44, 95
4, 265440, Note_on_c, 9, 44, 95
4, 265920, Note_off_c, 9, 44, 95
4, 265920, Note_on_c, 9, 44, 95
4, 266400, Note_off_c, 9, 44, 95
4, 266400, Note_on_c, 9, 44, 127
4, 266400, Note_on_c, 9, 70, 127
4, 266880, Note_off_c, 9, 44, 127
4, 266880, Note_off_c, 9, 70, 127
4, 266880, Note_on_c, 9, 44, 95
4, 267360, Note_off_c, 9, 44, 95
4, 267360, Note_on_c, 9, 44, 95
4, 267840, Note_off_c, 9, 44, 95
4, 267840, Note_on_c, 9, 44, 95
4, 268320, Note_off_c, 9, 44, 95
4, 268320, Note_on_c, 9, 44, 95
4, 268800, Note_off_c, 9, 44, 95
4, 268800, Note_on_c, 9, 44, 95
4, 269280, Note_off_c, 9, 44, 95
4, 269280, Note_on_c, 9, 44, 127
4, 269280, Note_on_c, 9, 70, 127
4, 269760, Note_off_c, 9, 44, 127
4, 269760, Note_off_c, 9, 70, 127
4, 269760, Note_on_c, 9, 44, 95
4, 270240, Note_off_c, 9, 44, 95
4, 270240, Note_on_c, 9, 44, 95
4, 270720, Note_off_c, 9, 44, 95
4, 270720, Note_on_c, 9, 44, 95
4, 271200, Note_off_c, 9, 44, 95
4, 271200, Note_on_c, 9, 44, 95
4, 271680, Note_off_c, 9, 44, 95
4, 271680, Note_on_c, 9, 44, 95
4, 272160, Note_off_c, 9, 44, 95
4, 272160, Note_on_c, 9, 44, 127
4, 272160, Note_on_c, 9, 70, 127
4, 272640, Note_off_c, 9, 44, 127
4, 272640, Note_off_c, 9, 70, 127
4, 272640, Note_on_c, 9, 44, 95
4, 273120, Note_off_c, 9, 44, 95
4, 273120, Note_on_c, 9, 44, 95
4, 273120, Note_on_c, 9, 46, 95
4, 273600, Note_off_c, 9, 44, 95
4, 273600, Note_off_c, 9, 46, 95
4, 273600, Note_on_c, 9, 44, 95
4, 274080, Note_off_c, 9, 44, 95
4, 274080, Note_on_c, 9, 44, 95
4, 274560, Note_off_c, 9, 44, 95
4, 274560, Note_on_c, 9, 44, 95
4, 275040, Note_off_c, 9, 44, 95
4, 275040, Note_on_c, 9, 44, 95
4, 275040, Note_on_c, 9, 70, 95
4, 275520, Note_off_c, 9, 44, 95
4, 275520, Note_off_c, 9, 70, 95
4, 275520, Note_on_c, 9, 44, 95
4, 275520, Note_on_c, 9, 46, 95
4, 276000, Note_off_c, 9, 44, 95
4, 276000, Note_off_c, 9, 46, 95
4, 276000, Note_on_c, 9, 44, 95
4, 276480, Note_off_c, 9, 44, 95
4, 276480, Note_on_c, 9, 44, 95
4, 276960, Note_off_c, 9, 44, 95
4, 276960, Note_on_c, 9, 44, 95
4, 277440, Note_off_c, 9, 44, 95
4, 277440, Note_on_c, 9, 44, 95
4, 277920, Note_off_c, 9, 44, 95
4, 277920, Note_on_c, 9, 44, 127
4, 277920, Note_on_c, 9, 70, 127
4, 278400, Note_off_c, 9, 44, 127
4, 278400, Note_off_c, 9, 70, 127
4, 278400, Note_on_c, 9, 44, 95
4, 278880, Note_off_c, 9, 44, 95
4, 278880, Note_on_c, 9, 44, 95
4, 279360, Note_off_c, 9, 44, 95
4, 279360, Note_on_c, 9, 44, 95
4, 279840, Note_off_c, 9, 44, 95
4, 279840, Note_on_c, 9, 44, 95
4, 280320, Note_off_c, 9, 44, 95
4, 280320, Note_on_c, 9, 44, 95
4, 280800, Note_off_c, 9, 44, 95
4, 280800, Note_on_c, 9, 44, 127
4, 280800, Note_on_c, 9, 70, 127
4, 281280, Note_off_c, 9, 44, 127
4, 281280, Note_off_c, 9, 70, 127
4, 281280, Note_on_c, 9, 44, 95
4, 281760, Note_off_c, 9, 44, 95
4, 281760, Note_on_c, 9, 44, 95
4, 282240, Note_off_c, 9, 44, 95
4, 282240, Note_on_c, 9, 44, 95
4, 282720, Note_off_c, 9, 44, 95
4, 282720, Note_on_c, 9, 44, 95
4, 283200, Note_off_c, 9, 44, 95
4, 283200, Note_on_c, 9, 44, 95
4, 283680, Note_off_c, 9, 44, 95
4, 283680, Note_on_c, 9, 44, 127
4, 283680, Note_on_c, 9, 70, 127
4, 284160, Note_off_c, 9, 44, 127
4, 284160, Note_off_c, 9, 70, 127
4, 284160, Note_on_c, 9, 44, 95
4, 284640, Note_off_c, 9, 44, 95
4, 284640, Note_on_c, 9, 44, 95
4, 284640, Note_on_c, 9, 46, 95
4, 285120, Note_off_c, 9, 44, 95
4, 285120, Note_off_c, 9, 46, 95
4, 285120, Note_on_c, 9, 44, 95
4, 285600, Note_off_c, 9, 44, 95
4, 285600, Note_on_c, 9, 44, 95
4, 286080, Note_off_c, 9, 44, 95
4, 286080, Note_on_c, 9, 44, 95
4, 286560, Note_off_c, 9, 44, 95
4, 286560, Note_on_c, 9, 44, 95
4, 286560, Note_on_c, 9, 70, 95
4, 287040, Note_off_c, 9, 44, 95
4, 287040, Note_off_c, 9, 70, 95
4, 287040, Note_on_c, 9, 44, 95
4, 287040, Note_on_c, 9, 46, 95
4, 287520, Note_off_c, 9, 44, 95
4, 287520, Note_off_c, 9, 46, 95
4, 287520, Note_on_c, 9, 44, 95
4, 288000, Note_off_c, 9, 44, 95
4, 288000, Note_on_c, 9, 44, 95
4, 288480, Note_off_c, 9, 44, 95
4, 288480, Note_on_c, 9, 44, 95
4, 288960, Note_off_c, 9, 44, 95
4, 288960, Note_on_c, 9, 44, 95
4, 289440, Note_off_c, 9, 44, 95
4, 289440, Note_on_c, 9, 44, 127
4, 289440, Note_on_c, 9, 70, 127
4, 289920, Note_off_c, 9, 44, 127
4, 289920, Note_off_c, 9, 70, 127
4, 289920, Note_on_c, 9, 44, 95
4, 290400, Note_off_c, 9, 44, 95
4, 290400, Note_on_c, 9, 44, 95
4, 290880, Note_off_c, 9, 44, 95
4, 290880, Note_on_c, 9, 44, 95
4, 291360, Note_off_c, 9, 44, 95
4, 291360, Note_on_c, 9, 44, 95
4, 291840, Note_off_c, 9, 44, 95
4, 291840, Note_on_c, 9, 44, 95
4, 292320, Note_off_c, 9, 44, 95
4, 292320, Note_on_c, 9, 44, 127
4, 292320, Note_on_c, 9, 70, 127
4, 292800, Note_off_c, 9, 44, 127
4, 292800, Note_off_c, 9, 70, 127
4, 292800, Note_on_c, 9, 44, 95
4, 293280, Note_off_c, 9, 44, 95
4, 293280, Note_on_c, 9, 44, 95
4, 293760, Note_off_c, 9, 44, 95
4, 293760, Note_on_c, 9, 44, 95
4, 294240, Note_off_c, 9, 44, 95
4, 294240, Note_on_c, 9, 44, 95
4, 294720, Note_off_c, 9, 44, 95
4, 294720, Note_on_c, 9, 44, 95
4, 295200, Note_off_c, 9, 44, 95
4, 295200, Note_on_c, 9, 44, 127
4, 295200, Note_on_c, 9, 70, 127
4, 295680, Note_off_c, 9, 44, 127
4, 295680, Note_off_c, 9, 70, 127
4, 295680, Note_on_c, 9, 44, 95
4, 296160, Note_off_c, 9, 44, 95
4, 296160, Note_on_c, 9, 44, 95
4, 296160, Note_on_c, 9, 46, 95
4, 296640, Note_off_c, 9, 44, 95
4, 296640, Note_off_c, 9, 46, 95
4, 296640, Note_on_c, 9, 44, 95
4, 297120, Note_off_c, 9, 44, 95
4, 297120, Note_on_c, 9, 44, 95
4, 297600, Note_off_c, 9, 44, 95
4, 297600, Note_on_c, 9, 44, 95
4, 298080, Note_off_c, 9, 44, 95
4, 298080, Note_on_c, 9, 44, 95
4, 298080, Note_on_c, 9, 70, 95
4, 298560, Note_off_c, 9, 44, 95
4, 298560, Note_off_c, 9, 70, 95
4, 298560, Note_on_c, 9, 44, 95
4, 298560, Note_on_c, 9, 46, 95
4, 299040, Note_off_c, 9, 44, 95
4, 299040, Note_off_c, 9, 46, 95
4, 299040, Note_on_c, 9, 44, 95
4, 299520, Note_off_c, 9, 44, 95
4, 299520, Note_on_c, 9, 44, 95
4, 300000, Note_off_c, 9, 44, 95
4, 300000, Note_on_c, 9, 44, 95
4, 300480, Note_off_c, 9, 44, 95
4, 300480, Note_on_c, 9, 44, 95
4, 300960, Note_off_c, 9, 44, 95
4, 300960, Note_on_c, 9, 44, 127
4, 300960, Note_on_c, 9, 70, 127
4, 301440, Note_off_c, 9, 44, 127
4, 301440, Note_off_c, 9, 70, 127
4, 301440, Note_on_c, 9, 44, 95
4, 301920, Note_off_c, 9, 44, 95
4, 301920, Note_on_c, 9, 44, 95
4, 302400, Note_off_c, 9, 44, 95
4, 302400, Note_on_c, 9, 44, 95
4, 302880, Note_off_c, 9, 44, 95
4, 302880, Note_on_c, 9, 44, 95
4, 303360, Note_off_c, 9, 44, 95
4, 303360, Note_on_c, 9, 44, 95
4, 303840, Note_off_c, 9, 44, 95
4, 303840, Note_on_c, 9, 44, 127
4, 303840, Note_on_c, 9, 70, 127
4, 304320, Note_off_c, 9, 44, 127
4, 304320, Note_off_c, 9, 70, 127
4, 304320, Note_on_c, 9, 44, 95
4, 304800, Note_off_c, 9, 44, 95
4, 304800, Note_on_c, 9, 44, 95
4, 305280, Note_off_c, 9, 44, 95
4, 305280, Note_on_c, 9, 44, 95
4, 305760, Note_off_c, 9, 44, 95
4, 305760, Note_on_c, 9, 44, 95
4, 306240, Note_off_c, 9, 44, 95
4, 306240, Note_on_c, 9, 44, 95
4, 306720, Note_off_c, 9, 44, 95
4, 306720, Note_on_c, 9, 44, 127
4, 306720, Note_on_c, 9, 70, 127
4, 307200, Note_off_c, 9, 44, 127
4, 307200, Note_off_c, 9, 70, 127
4, 307200, Note_on_c, 9, 44, 95
4, 307680, Note_off_c, 9, 44, 95
4, 307680, Note_on_c, 9, 44, 95
4, 307680, Note_on_c, 9, 46, 95
4, 308160, Note_off_c, 9, 44, 95
4, 308160, Note_off_c, 9, 46, 95
4, 308160, Note_on_c, 9, 44, 95
4, 308640, Note_off_c, 9, 44, 95
4, 308640, Note_on_c, 9, 44, 95
4, 309120, Note_off_c, 9, 44, 95
4, 309120, Note_on_c, 9, 44, 95
4, 309600, Note_off_c, 9, 44, 95
4, 309600, Note_on_c, 9, 44, 95
4, 309600, Note_on_c, 9, 70, 95
4, 310080, Note_off_c, 9, 44, 95
4, 310080, Note_off_c, 9, 70, 95
4, 310080, Note_on_c, 9, 44, 95
4, 310080, Note_on_c, 9, 46, 95
4, 310560, Note_off_c, 9, 44, 95
4, 310560, Note_off_c, 9, 46, 95
4, 310560, Note_on_c, 9, 44, 95
4, 311040, Note_off_c, 9, 44, 95
4, 311040, Note_on_c, 9, 44, 95
4, 311520, Note_off_c, 9, 44, 95
4, 311520, Note_on_c, 9, 44, 95
4, 312000, Note_off_c, 9, 44, 95
4, 312000, Note_on_c, 9, 44, 95
4, 312480, Note_off_c, 9, 44, 95
4, 312480, Note_on_c, 9, 44, 127
4, 312480, Note_on_c, 9, 70, 127
4, 312960, Note_off_c, 9, 44, 127
4, 312960, Note_off_c, 9, 70, 127
4, 312960, Note_on_c, 9, 44, 95
4, 313440, Note_off_c, 9, 44, 95
4, 313440, Note_on_c, 9, 44, 95
4, 313920, Note_off_c, 9, 44, 95
4, 313920, Note_on_c, 9, 44, 95
4, 314400, Note_off_c, 9, 44, 95
4, 314400, Note_on_c, 9, 44, 95
4, 314880, Note_off_c, 9, 44, 95
4, 314880, Note_on_c, 9, 44, 95
4, 315360, Note_off_c, 9, 44, 95
4, 315360, Note_on_c, 9, 44, 127
4, 315360, Note_on_c, 9, 70, 127
4, 315840, Note_off_c, 9, 44, 127
4, 315840, Note_off_c, 9, 70, 127
4, 315840, Note_on_c, 9, 44, 95
4, 316320, Note_off_c, 9, 44, 95
4, 316320, Note_on_c, 9, 44, 95
4, 316800, Note_off_c, 9, 44, 95
4, 316800, Note_on_c, 9, 44, 95
4, 317280, Note_off_c, 9, 44, 95
4, 317280, Note_on_c, 9, 44, 95
4, 317760, Note_off_c, 9, 44, 95
4, 317760, Note_on_c, 9, 44, 95
4, 318240, Note_off_c, 9, 44, 95
4, 318240, Note_on_c, 9, 44, 127
4, 318240, Note_on_c, 9, 70, 127
4, 318720, Note_off_c, 9, 44, 127
4, 318720, Note_off_c, 9, 70, 127
4, 318720, Note_on_c, 9, 44, 95
4, 319200, Note_off_c, 9, 44, 95
4, 319200, Note_on_c, 9, 44, 95
4, 319200, Note_on_c, 9, 46, 95
4, 319680, Note_off_c, 9, 44, 95
4, 319680, Note_off_c, 9, 46, 95
4, 319680, Note_on_c, 9, 44, 95
4, 320160, Note_off_c, 9, 44, 95
4, 320160, Note_on_c, 9, 44, 95
4, 320640, Note_off_c, 9, 44, 95
4, 320640, Note_on_c, 9, 44, 95
4, 321120, Note_off_c, 9, 44, 95
4, 321120, Note_on_c, 9, 44, 95
4, 321120, Note_on_c, 9, 70, 95
4, 321600, Note_off_c, 9, 44, 95
4, 321600, Note_off_c, 9, 70, 95
4, 321600, Note_on_c, 9, 44, 95
4, 321600, Note_on_c, 9, 46, 95
4, 322080, Note_off_c, 9, 44, 95
4, 322080, Note_off_c, 9, 46, 95
4, 322080, Note_on_c, 9, 44, 95
4, 322560, Note_off_c, 9, 44, 95
4, 322560, Note_on_c, 9, 44, 95
4, 323040, Note_off_c, 9, 44, 95
4, 323040, Note_on_c, 9, 44, 95
4, 323520, Note_off_c, 9, 44, 95
4, 323520, Note_on_c, 9, 44, 95
4, 324000, Note_off_c, 9, 44, 95
4, 324000, Note_on_c, 9, 44, 127
4, 324000, Note_on_c, 9, 70, 127
4, 324480, Note_off_c, 9, 44, 127
4, 324480, Note_off_c, 9, 70, 127
4, 324480, Note_on_c, 9, 44, 95
4, 324960, Note_off_c, 9, 44, 95
4, 324960, Note_on_c, 9, 44, 95
4, 325440, Note_off_c, 9, 44, 95
4, 325440, Note_on_c, 9, 44, 95
4, 325920, Note_off_c, 9, 44, 95
4, 325920, Note_on_c, 9, 44, 95
4, 326400, Note_off_c, 9, 44, 95
4, 326400, Note_on_c, 9, 44, 95
4, 326880, Note_off_c, 9, 44, 95
4, 326880, Note_on_c, 9, 44, 127
4, 326880, Note_on_c, 9, 70, 127
4, 327360, Note_off_c, 9, 44, 127
4, 327360, Note_off_c, 9, 70, 127
4, 327360, Note_on_c, 9, 44, 95
4, 327840, Note_off_c, 9, 44, 95
4, 327840, Note_on_c, 9, 44, 95
4, 328320, Note_off_c, 9, 44, 95
4, 328320, Note_on_c, 9, 44, 95
4, 328800, Note_off_c, 9, 44, 95
4, 328800, Note_on_c, 9, 44, 95
4, 329280, Note_off_c, 9, 44, 95
4, 329280, Note_on_c, 9, 44, 95
4, 329760, Note_off_c, 9, 44, 95
4, 329760, Note_on_c, 9, 44, 127
4, 329760, Note_on_c, 9, 70, 127
4, 330240, Note_off_c, 9, 44, 127
4, 330240, Note_off_c, 9, 70, 127
4, 330240, Note_on_c, 9, 44, 95
4, 330720, Note_off_c, 9, 44, 95
4, 330720, Note_on_c, 9, 44, 95
4, 330720, Note_on_c, 9, 46, 95
4, 331200, Note_off_c, 9, 44, 95
4, 331200, Note_off_c, 9, 46, 95
4, 331200, Note_on_c, 9, 44, 95
4, 331680, Note_off_c, 9, 44, 95
4, 331680, Note_on_c, 9, 44, 95
4, 332160, Note_off_c, 9, 44, 95
4, 332160, Note_on_c, 9, 44, 95
4, 332640, Note_off_c, 9, 44, 95
4, 332640, Note_on_c, 9, 44, 95
4, 332640, Note_on_c, 9, 70, 95
4, 333120, Note_off_c, 9, 44, 95
4, 333120, Note_off_c, 9, 70, 95
4, 333120, Note_on_c, 9, 44, 95
4, 333120, Note_on_c, 9, 46, 95
4, 333600, Note_off_c, 9, 44, 95
4, 333600, Note_off_c, 9, 46, 95
4, 333600, Note_on_c, 9, 44, 95
4, 334080, Note_off_c, 9, 44, 95
4, 334080, Note_on_c, 9, 44, 95
4, 334560, Note_off_c, 9, 44, 95
4, 334560, Note_on_c, 9, 44, 95
4, 335040, Note_off_c, 9, 44, 95
4, 335040, Note_on_c, 9, 44, 95
4, 335520, Note_off_c, 9, 44, 95
4, 335520, Note_on_c, 9, 44, 127
4, 335520, Note_on_c, 9, 70, 127
4, 336000, Note_off_c, 9, 44, 127
4, 336000, Note_off_c, 9, 70, 127
4, 336000, Note_on_c, 9, 44, 95
4, 336480, Note_off_c, 9, 44, 95
4, 336480, Note_on_c, 9, 44, 95
4, 336960, Note_off_c, 9, 44, 95
4, 336960, Note_on_c, 9, 44, 95
4, 337440, Note_off_c, 9, 44, 95
4, 337440, Note_on_c, 9, 44, 95
4, 337920, Note_off_c, 9, 44, 95
4, 337920, Note_on_c, 9, 44, 95
4, 338400, Note_off_c, 9, 44, 95
4, 338400, Note_on_c, 9, 44, 127
4, 338400, Note_on_c, 9, 70, 127
4, 338880, Note_off_c, 9, 44, 127
4, 338880, Note_off_c, 9, 70, 127
4, 338880, Note_on_c, 9, 44, 95
4, 339360, Note_off_c, 9, 44, 95
4, 339360, Note_on_c, 9, 44, 95
4, 339840, Note_off_c, 9, 44, 95
4, 339840, Note_on_c, 9, 44, 95
4, 340320, Note_off_c, 9, 44, 95
4, 340320, Note_on_c, 9, 44, 95
4, 340800, Note_off_c, 9, 44, 95
4, 340800, Note_on_c, 9, 44, 95
4, 341280, Note_off_c, 9, 44, 95
4, 341280, Note_on_c, 9, 44, 127
4, 341280, Note_on_c, 9, 70, 127
4, 341760, Note_off_c, 9, 44, 127
4, 341760, Note_off_c, 9, 70, 127
4, 341760, Note_on_c, 9, 44, 95
4, 342240, Note_off_c, 9, 44, 95
4, 342240, Note_on_c, 9, 44, 95
4, 342240, Note_on_c, 9, 46, 95
4, 342720, Note_off_c, 9, 44, 95
4, 342720, Note_off_c, 9, 46, 95
4, 342720, Note_on_c, 9, 44, 95
4, 343200, Note_off_c, 9, 44, 95
4, 343200, Note_on_c, 9, 44, 95
4, 343680, Note_off_c, 9, 44, 95
4, 343680, Note_on_c, 9, 44, 95
4, 344160, Note_off_c, 9, 44, 95
4, 344160, Note_on_c, 9, 44, 95
4, 344160, Note_on_c, 9, 70, 95
4, 344640, Note_off_c, 9, 44, 95
4, 344640, Note_off_c, 9, 70, 95
4, 344640, Note_on_c, 9, 44, 95
4, 344640, Note_on_c, 9, 46, 95
4, 345120, Note_off_c, 9, 44, 95
4, 345120, Note_off_c, 9, 46, 95
4, 345120, Note_on_c, 9, 44, 95
4, 345600, Note_off_c, 9, 44, 95
4, 345600, Note_on_c, 9, 44, 95
4, 346080, Note_off_c, 9, 44, 95
4, 346080, Note_on_c, 9, 44, 95
4, 346560, Note_off_c, 9, 44, 95
4, 346560, Note_on_c, 9, 44, 95
4, 347040, Note_off_c, 9, 44, 95
4, 347040, Note_on_c, 9, 44, 127
4, 347040, Note_on_c, 9, 70, 127
4, 347520, Note_off_c, 9, 44, 127
4, 347520, Note_off_c, 9, 70, 127
4, 347520, Note_on_c, 9, 44, 95
4, 348000, Note_off_c, 9, 44, 95
4, 348000, Note_on_c, 9, 44, 95
4, 348480, Note_off_c, 9, 44, 95
4, 348480, Note_on_c, 9, 44, 95
4, 348960, Note_off_c, 9, 44, 95
4, 348960, Note_on_c, 9, 44, 95
4, 349440, Note_off_c, 9, 44, 95
4, 349440, Note_on_c, 9, 44, 95
4, 349920, Note_off_c, 9, 44, 95
4, 349920, Note_on_c, 9, 44, 127
4, 349920, Note_on_c, 9, 70, 127
4, 350400, Note_off_c, 9, 44, 127
4, 350400, Note_off_c, 9, 70, 127
4, 350400, Note_on_c, 9, 44, 95
4, 350880, Note_off_c, 9, 44, 95
4, 350880, Note_on_c, 9, 44, 95
4, 351360, Note_off_c, 9, 44, 95
4, 351360, Note_on_c, 9, 44, 95
4, 351840, Note_off_c, 9, 44, 95
4, 351840, Note_on_c, 9, 44, 95
4, 352320, Note_off_c, 9, 44, 95
4, 352320, Note_on_c, 9, 44, 95
4, 352800, Note_off_c, 9, 44, 95
4, 352800, Note_on_c, 9, 44, 127
4, 352800, Note_on_c, 9, 70, 127
4, 353280, Note_off_c, 9, 44, 127
4, 353280, Note_off_c, 9, 70, 127
4, 353280, Note_on_c, 9, 44, 95
4, 353760, Note_off_c, 9, 44, 95
4, 353760, Note_on_c, 9, 44, 95
4, 353760, Note_on_c, 9, 46, 95
4, 354240, Note_off_c, 9, 44, 95
4, 354240, Note_off_c, 9, 46, 95
4, 354240, Note_on_c, 9, 44, 95
4, 354720, Note_off_c, 9, 44, 95
4, 354720, Note_on_c, 9, 44, 95
4, 355200, Note_off_c, 9, 44, 95
4, 355200, Note_on_c, 9, 44, 95
4, 355680, Note_off_c, 9, 44, 95
4, 355680, Note_on_c, 9, 44, 95
4, 355680, Note_on_c, 9, 70, 95
4, 356160, Note_off_c, 9, 44, 95
4, 356160, Note_off_c, 9, 70, 95
4, 356160, Note_on_c, 9, 44, 95
4, 356160, Note_on_c, 9, 46, 95
4, 356640, Note_off_c, 9, 44, 95
4, 356640, Note_off_c, 9, 46, 95
4, 356640, Note_on_c, 9, 44, 95
4, 357120, Note_off_c, 9, 44, 95
4, 357120, Note_on_c, 9, 44, 95
4, 357600, Note_off_c, 9, 44, 95
4, 357600, Note_on_c, 9, 44, 95
4, 358080, Note_off_c, 9, 44, 95
4, 358080, Note_on_c, 9, 44, 95
4, 358560, Note_off_c, 9, 44, 95
4, 358560, Note_on_c, 9, 44, 127
4, 358560, Note_on_c, 9, 70, 127
4, 359040, Note_off_c, 9, 44, 127
4, 359040, Note_off_c, 9, 70, 127
4, 359040, Note_on_c, 9, 44, 95
4, 359520, Note_off_c, 9, 44, 95
4, 359520, Note_on_c, 9, 44, 95
4, 360000, Note_off_c, 9, 44, 95
4, 360000, Note_on_c, 9, 44, 95
4, 360480, Note_off_c, 9, 44, 95
4, 360480, Note_on_c, 9, 44, 95
4, 360960, Note_off_c, 9, 44, 95
4, 360960, Note_on_c, 9, 44, 95
4, 361440, Note_off_c, 9, 44, 95
4, 361440, Note_on_c, 9, 44, 127
4, 361440, Note_on_c, 9, 70, 127
4, 361920, Note_off_c, 9, 44, 127
4, 361920, Note_off_c, 9, 70, 127
4, 361920, Note_on_c, 9, 44, 95
4, 362400, Note_off_c, 9, 44, 95
4, 362400, Note_on_c, 9, 44, 95
4, 362880, Note_off_c, 9, 44, 95
4, 362880, Note_on_c, 9, 44, 95
4, 363360, Note_off_c, 9, 44, 95
4, 363360, Note_on_c, 9, 44, 95
4, 363840, Note_off_c, 9, 44, 95
4, 363840, Note_on_c, 9, 44, 95
4, 364320, Note_off_c, 9, 44, 95
4, 364320, Note_on_c, 9, 44, 127
4, 364320, Note_on_c, 9, 70, 127
4, 364800, Note_off_c, 9, 44, 127
4, 364800, Note_off_c, 9, 70, 127
4, 364800, Note_on_c, 9, 44, 95
4, 365280, Note_off_c, 9, 44, 95
4, 365280, Note_on_c, 9, 44, 95
4, 365280, Note_on_c, 9, 46, 95
4, 365760, Note_off_c, 9, 44, 95
4, 365760, Note_off_c, 9, 46, 95
4, 365760, Note_on_c, 9, 44, 95
4, 366240, Note_off_c, 9, 44, 95
4, 366240, Note_on_c, 9, 44, 95
4, 366720, Note_off_c, 9, 44, 95
4, 366720, Note_on_c, 9, 44, 95
4, 367200, Note_off_c, 9, 44, 95
4, 367200, Note_on_c, 9, 44, 95
4, 367200, Note_on_c, 9, 70, 95
4, 367680, Note_off_c, 9, 44, 95
4, 367680, Note_off_c, 9, 70, 95
4, 367680, Note_on_c, 9, 44, 95
4, 367680, Note_on_c, 9, 46, 95
4, 368160, Note_off_c, 9, 44, 95
4, 368160, Note_off_c, 9, 46, 95
4, 368160, Note_on_c, 9, 44, 95
4, 368640, Note_off_c, 9, 44, 95
4, 368640, Note_on_c, 9, 44, 95
4, 369120, Note_off_c, 9, 44, 95
4, 369120, Note_on_c, 9, 44, 95
4, 369600, Note_off_c, 9, 44, 95
4, 369600, Note_on_c, 9, 44, 95
4, 370080, Note_off_c, 9, 44, 95
4, 370080, Note_on_c, 9, 44, 127
4, 370080, Note_on_c, 9, 70, 127
4, 370560, Note_off_c, 9, 44, 127
4, 370560, Note_off_c, 9, 70, 127
4, 370560, Note_on_c, 9, 44, 95
4, 371040, Note_off_c, 9, 44, 95
4, 371040, Note_on_c, 9, 44, 95
4, 371520, Note_off_c, 9, 44, 95
4, 371520, Note_on_c, 9, 44, 95
4, 372000, Note_off_c, 9, 44, 95
4, 372000, Note_on_c, 9, 44, 95
4, 372480, Note_off_c, 9, 44, 95
4, 372480, Note_on_c, 9, 44, 95
4, 372960, Note_off_c, 9, 44, 95
4, 372960, Note_on_c, 9, 44, 127
4, 372960, Note_on_c, 9, 70, 127
4, 373440, Note_off_c, 9, 44, 127
4, 373440, Note_off_c, 9, 70, 127
4, 373440, Note_on_c, 9, 44, 95
4, 373920, Note_off_c, 9, 44, 95
4, 373920, Note_on_c, 9, 44, 95
4, 374400, Note_off_c, 9, 44, 95
4, 374400, Note_on_c, 9, 44, 95
4, 374880, Note_off_c, 9, 44, 95
4, 374880, Note_on_c, 9, 44, 95
4, 375360, Note_off_c, 9, 44, 95
4, 375360, Note_on_c, 9, 44, 95
4, 375840, Note_off_c, 9, 44, 95
4, 375840, Note_on_c, 9, 44, 127
4, 375840, Note_on_c, 9, 70, 127
4, 376320, Note_off_c, 9, 44, 127
4, 376320, Note_off_c, 9, 70, 127
4, 376320, Note_on_c, 9, 44, 95
4, 376800, Note_off_c, 9, 44, 95
4, 376800, Note_on_c, 9, 44, 95
4, 376800, Note_on_c, 9, 46, 95
4, 377280, Note_off_c, 9, 44, 95
4, 377280, Note_off_c, 9, 46, 95
4, 377280, Note_on_c, 9, 44, 95
4, 377760, Note_off_c, 9, 44, 95
4, 377760, Note_on_c, 9, 44, 95
4, 378240, Note_off_c, 9, 44, 95
4, 378240, Note_on_c, 9, 44, 95
4, 378720, Note_off_c, 9, 44, 95
4, 378720, Note_on_c, 9, 44, 95
4, 378720, Note_on_c, 9, 70, 95
4, 379200, Note_off_c, 9, 44, 95
4, 379200, Note_off_c, 9, 70, 95
4, 379200, Note_on_c, 9, 44, 95
4, 379200, Note_on_c, 9, 46, 95
4, 379680, Note_off_c, 9, 44, 95
4, 379680, Note_off_c, 9, 46, 95
4, 379680, Note_on_c, 9, 44, 95
4, 380160, Note_off_c, 9, 44, 95
4, 380160, Note_on_c, 9, 44, 95
4, 380640, Note_off_c, 9, 44, 95
4, 380640, Note_on_c, 9, 44, 95
4, 381120, Note_off_c, 9, 44, 95
4, 381120, Note_on_c, 9, 44, 95
4, 381600, Note_off_c, 9, 44, 95
4, 381600, Note_on_c, 9, 44, 127
4, 381600, Note_on_c, 9, 70, 127
4, 382080, Note_off_c, 9, 44, 127
4, 382080, Note_off_c, 9, 70, 127
4, 382080, Note_on_c, 9, 44, 95
4, 382560, Note_off_c, 9, 44, 95
4, 382560, Note_on_c, 9, 44, 95
4, 383040, Note_off_c, 9, 44, 95
4, 383040, Note_on_c, 9, 44, 95
4, 383520, Note_off_c, 9, 44, 95
4, 383520, Note_on_c, 9, 44, 95
4, 384000, Note_off_c, 9, 44, 95
4, 384000, Note_on_c, 9, 44, 95
4, 384480, Note_off_c, 9, 44, 95
4, 384480, Note_on_c, 9, 44, 127
4, 384480, Note_on_c, 9, 70, 127
4, 384960, Note_off_c, 9, 44, 127
4, 384960, Note_off_c, 9, 70, 127
4, 384960, Note_on_c, 9, 44, 95
4, 385440, Note_off_c, 9, 44, 95
4, 385440, Note_on_c, 9, 44, 95
4, 385920, Note_off_c, 9, 44, 95
4, 385920, Note_on_c, 9, 44, 95
4, 386400, Note_off_c, 9, 44, 95
4, 386400, Note_on_c, 9, 44, 95
4, 386880, Note_off_c, 9, 44, 95
4, 386880, Note_on_c, 9, 44, 95
4, 387360, Note_off_c, 9, 44, 95
4, 387360, Note_on_c, 9, 44, 127
4, 387360, Note_on_c, 9, 70, 127
4, 387840, Note_off_c, 9, 44, 127
4, 387840, Note_off_c, 9, 70, 127
4, 387840, Note_on_c, 9, 44, 95
4, 388320, Note_off_c, 9, 44, 95
4, 388320, Note_on_c, 9, 44, 95
4, 388320, Note_on_c, 9, 46, 95
4, 388800, Note_off_c, 9, 44, 95
4, 388800, Note_off_c, 9, 46, 95
4, 388800, Note_on_c, 9, 44, 95
4, 389280, Note_off_c, 9, 44, 95
4, 389280, Note_on_c, 9, 44, 95
4, 389760, Note_off_c, 9, 44, 95
4, 389760, Note_on_c, 9, 44, 95
4, 390240, Note_off_c, 9, 44, 95
4, 390240, Note_on_c, 9, 44, 95
4, 390240, Note_on_c, 9, 70, 95
4, 390720, Note_off_c, 9, 44, 95
4, 390720, Note_off_c, 9, 70, 95
4, 390720, Note_on_c, 9, 44, 95
4, 390720, Note_on_c, 9, 46, 95
4, 391200, Note_off_c, 9, 44, 95
4, 391200, Note_off_c, 9, 46, 95
4, 391200, Note_on_c, 9, 44, 95
4, 391680, Note_off_c, 9, 44, 95
4, 391680, Note_on_c, 9, 44, 95
4, 392160, Note_off_c, 9, 44, 95
4, 392160, Note_on_c, 9, 44, 95
4, 392640, Note_off_c, 9, 44, 95
4, 392640, Note_on_c, 9, 44, 95
4, 393120, Note_off_c, 9, 44, 95
4, 393120, Note_on_c, 9, 44, 127
4, 393120, Note_on_c, 9, 70, 127
4, 393600, Note_off_c, 9, 44, 127
4, 393600, Note_off_c, 9, 70, 127
4, 393600, Note_on_c, 9, 44, 95
4, 394080, Note_off_c, 9, 44, 95
4, 394080, Note_on_c, 9, 44, 95
4, 394560, Note_off_c, 9, 44, 95
4, 394560, Note_on_c, 9, 44, 95
4, 395040, Note_off_c, 9, 44, 95
4, 395040, Note_on_c, 9, 44, 95
4, 395520, Note_off_c, 9, 44, 95
4, 395520, Note_on_c, 9, 44, 95
4, 396000, Note_off_c, 9, 44, 95
4, 396000, Note_on_c, 9, 44, 127
4, 396000, Note_on_c, 9, 70, 127
4, 396480, Note_off_c, 9, 44, 127
4, 396480, Note_off_c, 9, 70, 127
4, 396480, Note_on_c, 9, 44, 95
4, 396960, Note_off_c, 9, 44, 95
4, 396960, Note_on_c, 9, 44, 95
4, 397440, Note_off_c, 9, 44, 95
4, 397440, Note_on_c, 9, 44, 95
4, 397920, Note_off_c, 9, 44, 95
4, 397920, Note_on_c, 9, 44, 95
4, 398400, Note_off_c, 9, 44, 95
4, 398400, Note_on_c, 9, 44, 95
4, 398880, Note_off_c, 9, 44, 95
4, 398880, Note_on_c, 9, 44, 127
4, 398880, Note_on_c, 9, 70, 127
4, 399360, Note_off_c, 9, 44, 127
4, 399360, Note_off_c, 9, 70, 127
4, 399360, Note_on_c, 9, 44, 95
4, 399840, Note_off_c, 9, 44, 95
4, 399840, Note_on_c, 9, 44, 95
4, 399840, Note_on_c, 9, 46, 95
4, 400320, Note_off_c, 9, 44, 95
4, 400320, Note_off_c, 9, 46, 95
4, 400320, Note_on_c, 9, 44, 95
4, 400800, Note_off_c, 9, 44, 95
4, 400800, Note_on_c, 9, 44, 95
4, 401280, Note_off_c, 9, 44, 95
4, 401280, Note_on_c, 9, 44, 95
4, 401760, Note_off_c, 9, 44, 95
4, 401760, Note_on_c, 9, 44, 95
4, 401760, Note_on_c, 9, 70, 95
4, 402240, Note_off_c, 9, 44, 95
4, 402240, Note_off_c, 9, 70, 95
4, 402240, Note_on_c, 9, 44, 95
4, 402240, Note_on_c, 9, 46, 95
4, 402720, Note_off_c, 9, 44, 95
4, 402720, Note_off_c, 9, 46, 95
4, 402720, Note_on_c, 9, 44, 95
4, 403200, Note_off_c, 9, 44, 95
4, 403200, Note_on_c, 9, 44, 95
4, 403680, Note_off_c, 9, 44, 95
4, 403680, Note_on_c, 9, 44, 95
4, 404160, Note_off_c, 9, 44, 95
4, 404160, Note_on_c, 9, 44, 95
4, 404640, Note_off_c, 9, 44, 95
4, 404640, Note_on_c, 9, 44, 127
4, 404640, Note_on_c, 9, 70, 127
4, 405120, Note_off_c, 9, 44, 127
4, 405120, Note_off_c, 9, 70, 127
4, 405120, Note_on_c, 9, 44, 95
4, 405600, Note_off_c, 9, 44, 95
4, 405600, Note_on_c, 9, 44, 95
4, 406080, Note_off_c, 9, 44, 95
4, 406080, Note_on_c, 9, 44, 95
4, 406560, Note_off_c, 9, 44, 95
4, 406560, Note_on_c, 9, 44, 95
4, 407040, Note_off_c, 9, 44, 95
4, 407040, Note_on_c, 9, 44, 95
4, 407520, Note_off_c, 9, 44, 95
4, 407520, Note_on_c, 9, 44, 127
4, 407520, Note_on_c, 9, 70, 127
4, 408000, Note_off_c, 9, 44, 127
4, 408000, Note_off_c, 9, 70, 127
4, 408000, Note_on_c, 9, 44, 95
4, 408480, Note_off_c, 9, 44, 95
4, 408480, Note_on_c, 9, 44, 95
4, 408960, Note_off_c, 9, 44, 95
4, 408960, Note_on_c, 9, 44, 95
4, 409440, Note_off_c, 9, 44, 95
4, 409440, Note_on_c, 9, 44, 95
4, 409920, Note_off_c, 9, 44, 95
4, 409920, Note_on_c, 9, 44, 95
4, 410400, Note_off_c, 9, 44, 95
4, 410400, Note_on_c, 9, 44, 127
4, 410400, Note_on_c, 9, 70, 127
4, 410880, Note_off_c, 9, 44, 127
4, 410880, Note_off_c, 9, 70, 127
4, 410880, Note_on_c, 9, 44, 95
4, 411360, Note_off_c, 9, 44, 95
4, 411360, Note_on_c, 9, 44, 95
4, 411360, Note_on_c, 9, 46, 95
4, 411840, Note_off_c, 9, 44, 95
4, 411840, Note_off_c, 9, 46, 95
4, 411840, Note_on_c, 9, 44, 95
4, 412320, Note_off_c, 9, 44, 95
4, 412320, Note_on_c, 9, 44, 95
4, 412800, Note_off_c, 9, 44, 95
4, 412800, Note_on_c, 9, 44, 95
4, 413280, Note_off_c, 9, 44, 95
4, 413280, Note_on_c, 9, 44, 95
4, 413280, Note_on_c, 9, 70, 95
4, 413760, Note_off_c, 9, 44, 95
4, 413760, Note_off_c, 9, 70, 95
4, 413760, Note_on_c, 9, 44, 95
4, 413760, Note_on_c, 9, 46, 95
4, 414240, Note_off_c, 9, 44, 95
4, 414240, Note_off_c, 9, 46, 95
4, 414240, Note_on_c, 9, 44, 95
4, 414720, Note_off_c, 9, 44, 95
4, 414720, Note_on_c, 9, 44, 95
4, 415200, Note_off_c, 9, 44, 95
4, 415200, Note_on_c, 9, 44, 95
4, 415680, Note_off_c, 9, 44, 95
4, 415680, Note_on_c, 9, 44, 95
4, 416160, Note_off_c, 9, 44, 95
4, 416160, Note_on_c, 9, 44, 127
4, 416160, Note_on_c, 9, 70, 127
4, 416640, Note_off_c, 9, 44, 127
4, 416640, Note_off_c, 9, 70, 127
4, 416640, Note_on_c, 9, 44, 95
4, 417120, Note_off_c, 9, 44, 95
4, 417120, Note_on_c, 9, 44, 95
4, 417600, Note_off_c, 9, 44, 95
4, 417600, Note_on_c, 9, 44, 95
4, 418080, Note_off_c, 9, 44, 95
4, 418080, Note_on_c, 9, 44, 95
4, 418560, Note_off_c, 9, 44, 95
4, 418560, Note_on_c, 9, 44, 95
4, 419040, Note_off_c, 9, 44, 95
4, 419040, Note_on_c, 9, 44, 127
4, 419040, Note_on_c, 9, 70, 127
4, 419520, Note_off_c, 9, 44, 127
4, 419520, Note_off_c, 9, 70, 127
4, 419520, Note_on_c, 9, 44, 95
4, 420000, Note_off_c, 9, 44, 95
4, 420000, Note_on_c, 9, 44, 95
4, 420480, Note_off_c, 9, 44, 95
4, 420480, Note_on_c, 9, 44, 95
4, 420960, Note_off_c, 9, 44, 95
4, 420960, Note_on_c, 9, 44, 95
4, 421440, Note_off_c, 9, 44, 95
4, 421440, Note_on_c, 9, 44, 95
4, 421920, Note_off_c, 9, 44, 95
4, 421920, Note_on_c, 9, 44, 127
4, 421920, Note_on_c, 9, 70, 127
4, 422400, Note_off_c, 9, 44, 127
4, 422400, Note_off_c, 9, 70, 127
4, 422400, Note_on_c, 9, 44, 95
4, 422880, Note_off_c, 9, 44, 95
4, 422880, Note_on_c, 9, 44, 95
4, 422880, Note_on_c, 9, 46, 95
4, 423360, Note_off_c, 9, 44, 95
4, 423360, Note_off_c, 9, 46, 95
4, 423360, Note_on_c, 9, 44, 95
4, 423840, Note_off_c, 9, 44, 95
4, 423840, Note_on_c, 9, 44, 95
4, 424320, Note_off_c, 9, 44, 95
4, 424320, Note_on_c, 9, 44, 95
4, 424800, Note_off_c, 9, 44, 95
4, 424800, Note_on_c, 9, 44, 95
4, 424800, Note_on_c, 9, 70, 95
4, 425280, Note_off_c, 9, 44, 95
4, 425280, Note_off_c, 9, 70, 95
4, 425280, Note_on_c, 9, 44, 95
4, 425280, Note_on_c, 9, 46, 95
4, 425760, Note_off_c, 9, 44, 95
4, 425760, Note_off_c, 9, 46, 95
4, 425760, Note_on_c, 9, 44, 95
4, 426240, Note_off_c, 9, 44, 95
4, 426240, Note_on_c, 9, 44, 95
4, 426720, Note_off_c, 9, 44, 95
4, 426720, Note_on_c, 9, 44, 95
4, 427200, Note_off_c, 9, 44, 95
4, 427200, Note_on_c, 9, 44, 95
4, 427680, Note_off_c, 9, 44, 95
4, 427680, Note_on_c, 9, 44, 127
4, 427680, Note_on_c, 9, 70, 127
4, 428160, Note_off_c, 9, 44, 127
4, 428160, Note_off_c, 9, 70, 127
4, 428160, Note_on_c, 9, 44, 95
4, 428640, Note_off_c, 9, 44, 95
4, 428640, Note_on_c, 9, 44, 95
4, 429120, Note_off_c, 9, 44, 95
4, 429120, Note_on_c, 9, 44, 95
4, 429600, Note_off_c, 9, 44, 95
4, 429600, Note_on_c, 9, 44, 95
4, 430080, Note_off_c, 9, 44, 95
4, 430080, Note_on_c, 9, 44, 95
4, 430560, Note_off_c, 9, 44, 95
4, 430560, Note_on_c, 9, 44, 127
4, 430560, Note_on_c, 9, 70, 127
4, 431040, Note_off_c, 9, 44, 127
4, 431040, Note_off_c, 9, 70, 127
4, 431040, Note_on_c, 9, 44, 95
4, 431520, Note_off_c, 9, 44, 95
4, 431520, Note_on_c, 9, 44, 95
4, 432000, Note_off_c, 9, 44, 95
4, 432000, Note_on_c, 9, 44, 95
4, 432480, Note_off_c, 9, 44, 95
4, 432480, Note_on_c, 9, 44, 95
4, 432960, Note_off_c, 9, 44, 95
4, 432960, Note_on_c, 9, 44, 95
4, 433440, Note_off_c, 9, 44, 95
4, 433440, Note_on_c, 9, 44, 127
4, 433440, Note_on_c, 9, 70, 127
4, 433920, Note_off_c, 9, 44, 127
4, 433920, Note_off_c, 9, 70, 127
4, 433920, Note_on_c, 9, 44, 95
4, 434400, Note_off_c, 9, 44, 95
4, 434400, Note_on_c, 9, 44, 95
4, 434400, Note_on_c, 9, 46, 95
4, 434880, Note_off_c, 9, 44, 95
4, 434880, Note_off_c, 9, 46, 95
4, 434880, Note_on_c, 9, 44, 95
4, 435360, Note_off_c, 9, 44, 95
4, 435360, Note_on_c, 9, 44, 95
4, 435840, Note_off_c, 9, 44, 95
4, 435840, Note_on_c, 9, 44, 95
4, 436320, Note_off_c, 9, 44, 95
4, 436320, Note_on_c, 9, 44, 95
4, 436320, Note_on_c, 9, 70, 95
4, 436800, Note_off_c, 9, 44, 95
4, 436800, Note_off_c, 9, 70, 95
4, 436800, Note_on_c, 9, 44, 95
4, 436800, Note_on_c, 9, 46, 95
4, 437280, Note_off_c, 9, 44, 95
4, 437280, Note_off_c, 9, 46, 95
4, 437280, Note_on_c, 9, 44, 95
4, 437760, Note_off_c, 9, 44, 95
4, 437760, Note_on_c, 9, 44, 95
4, 438240, Note_off_c, 9, 44, 95
4, 438240, Note_on_c, 9, 44, 95
4, 438720, Note_off_c, 9, 44, 95
4, 438720, Note_on_c, 9, 44, 95
4, 439200, Note_off_c, 9, 44, 95
4, 439200, Note_on_c, 9, 44, 127
4, 439200, Note_on_c, 9, 70, 127
4, 439680, Note_off_c, 9, 44, 127
4, 439680, Note_off_c, 9, 70, 127
4, 439680, Note_on_c, 9, 44, 95
4, 440160, Note_off_c, 9, 44, 95
4, 440160, Note_on_c, 9, 44, 95
4, 440640, Note_off_c, 9, 44, 95
4, 440640, Note_on_c, 9, 44, 95
4, 441120, Note_off_c, 9, 44, 95
4, 441120, Note_on_c, 9, 44, 95
4, 441600, Note_off_c, 9, 44, 95
4, 441600, Note_on_c, 9, 44, 95
4, 442080, Note_off_c, 9, 44, 95
4, 442080, Note_on_c, 9, 44, 127
4, 442080, Note_on_c, 9, 70, 127
4, 442560, Note_off_c, 9, 44, 127
4, 442560, Note_off_c, 9, 70, 127
4, 442560, Note_on_c, 9, 44, 95
4, 443040, Note_off_c, 9, 44, 95
4, 443040, Note_on_c, 9, 44, 95
4, 443520, Note_off_c, 9, 44, 95
4, 443520, Note_on_c, 9, 44, 95
4, 444000, Note_off_c, 9, 44, 95
4, 444000, Note_on_c, 9, 44, 95
4, 444480, Note_off_c, 9, 44, 95
4, 444480, Note_on_c, 9, 44, 95
4, 444960, Note_off_c, 9, 44, 95
4, 444960, Note_on_c, 9, 44, 127
4, 444960, Note_on_c, 9, 70, 127
4, 445440, Note_off_c, 9, 44, 127
4, 445440, Note_off_c, 9, 70, 127
4, 445440, Note_on_c, 9, 44, 95
4, 445920, Note_off_c, 9, 44, 95
4, 445920, Note_on_c, 9, 44, 95
4, 445920, Note_on_c, 9, 46, 95
4, 446400, Note_off_c, 9, 44, 95
4, 446400, Note_off_c, 9, 46, 95
4, 446400, Note_on_c, 9, 44, 95
4, 446880, Note_off_c, 9, 44, 95
4, 446880, Note_on_c, 9, 44, 95
4, 447360, Note_off_c, 9, 44, 95
4, 447360, Note_on_c, 9, 44, 95
4, 447840, Note_off_c, 9, 44, 95
4, 447840, Note_on_c, 9, 44, 95
4, 447840, Note_on_c, 9, 70, 95
4, 448320, Note_off_c, 9, 44, 95
4, 448320, Note_off_c, 9, 70, 95
4, 448320, Note_on_c, 9, 44, 95
4, 448320, Note_on_c, 9, 46, 95
4, 448800, Note_off_c, 9, 44, 95
4, 448800, Note_off_c, 9, 46, 95
4, 448800, Note_on_c, 9, 44, 95
4, 449280, Note_off_c, 9, 44, 95
4, 449280, Note_on_c, 9, 44, 95
4, 449760, Note_off_c, 9, 44, 95
4, 449760, Note_on_c, 9, 44, 95
4, 450240, Note_off_c, 9, 44, 95
4, 450240, Note_on_c, 9, 44, 95
4, 450720, Note_off_c, 9, 44, 95
4, 450720, Note_on_c, 9, 44, 127
4, 450720, Note_on_c, 9, 70, 127
4, 451200, Note_off_c, 9, 44, 127
4, 451200, Note_off_c, 9, 70, 127
4, 451200, Note_on_c, 9, 44, 95
4, 451680, Note_off_c, 9, 44, 95
4, 451680, Note_on_c, 9, 44, 95
4, 452160, Note_off_c, 9, 44, 95
4, 452160, Note_on_c, 9, 44, 95
4, 452640, Note_off_c, 9, 44, 95
4, 452640, Note_on_c, 9, 44, 95
4, 453120, Note_off_c, 9, 44, 95
4, 453120, Note_on_c, 9, 44, 95
4, 453600, Note_off_c, 9, 44, 95
4, 453600, Note_on_c, 9, 44, 127
4, 453600, Note_on_c, 9, 70, 127
4, 454080, Note_off_c, 9, 44, 127
4, 454080, Note_off_c, 9, 70, 127
4, 454080, Note_on_c, 9, 44, 95
4, 454560, Note_off_c, 9, 44, 95
4, 454560, Note_on_c, 9, 44, 95
4, 455040, Note_off_c, 9, 44, 95
4, 455040, Note_on_c, 9, 44, 95
4, 455520, Note_off_c, 9, 44, 95
4, 455520, Note_on_c, 9, 44, 95
4, 456000, Note_off_c, 9, 44, 95
4, 456000, Note_on_c, 9, 44, 95
4, 456480, Note_off_c, 9, 44, 95
4, 456480, Note_on_c, 9, 44, 127
4, 456480, Note_on_c, 9, 70, 127
4, 456960, Note_off_c, 9, 44, 127
4, 456960, Note_off_c, 9, 70, 127
4, 456960, Note_on_c, 9, 44, 95
4, 457200, Note_off_c, 9, 44, 95
4, 457200, Note_on_c, 9, 44, 95
4, 457440, Note_off_c, 9, 44, 95
4, 457440, Note_on_c, 9, 44, 95
4, 457440, Note_on_c, 9, 46, 95
4, 457920, Note_off_c, 9, 44, 95
4, 457920, Note_off_c, 9, 46, 95
4, 457920, Note_on_c, 9, 44, 95
4, 458400, Note_off_c, 9, 44, 95
4, 458400, Note_on_c, 9, 44, 95
4, 458640, Note_off_c, 9, 44, 95
4, 458640, Note_on_c, 9, 44, 95
4, 458880, Note_off_c, 9, 44, 95
4, 458880, Note_on_c, 9, 44, 95
4, 459360, Note_off_c, 9, 44, 95
4, 459360, Note_on_c, 9, 44, 95
4, 459360, Note_on_c, 9, 70, 95
4, 459840, Note_off_c, 9, 44, 95
4, 459840, Note_off_c, 9, 70, 95
4, 459840, Note_on_c, 9, 44, 95
4, 459840, Note_on_c, 9, 46, 95
4, 460320, Note_off_c, 9, 44, 95
4, 460320, Note_off_c, 9, 46, 95
4, 460320, Note_on_c, 9, 44, 95
4, 460800, Note_off_c, 9, 44, 95
4, 460800, Note_on_c, 9, 46, 95
4, 461760, Note_off_c, 9, 46, 95
4, 461760, End_track
5, 0, Start_track
5, 0, Pitch_bend_c, 4, 8192
5, 0, Control_c, 4, 7, 71
5, 0, Control_c, 4, 10, 63
5, 0, Control_c, 4, 93, 0
5, 0, Control_c, 4, 91, 0
5, 0, Control_c, 4, 95, 0
5, 0, Control_c, 4, 92, 0
5, 0, Control_c, 4, 11, 127
5, 0, Program_c, 4, 85
5, 0, Control_c, 5, 7, 71
5, 0, Control_c, 5, 10, 63
5, 0, Control_c, 5, 93, 0
5, 0, Control_c, 5, 91, 0
5, 0, Control_c, 5, 95, 0
5, 0, Control_c, 5, 92, 0
5, 0, Control_c, 5, 11, 127
5, 0, Program_c, 5, 85
5, 34560, Note_on_c, 4, 64, 95
5, 36000, Note_off_c, 4, 64, 95
5, 36000, Note_on_c, 4, 62, 95
5, 37440, Note_off_c, 4, 62, 95
5, 37440, Pitch_bend_c, 5, 8192
5, 37440, Note_on_c, 5, 64, 95
5, 37920, Pitch_bend_c, 5, 8192
5, 37927, Pitch_bend_c, 5, 8064
5, 37934, Pitch_bend_c, 5, 7936
5, 37941, Pitch_bend_c, 5, 7808
5, 37948, Pitch_bend_c, 5, 7680
5, 37955, Pitch_bend_c, 5, 7552
5, 37962, Pitch_bend_c, 5, 7424
5, 37969, Pitch_bend_c, 5, 7296
5, 37976, Pitch_bend_c, 5, 7168
5, 37983, Pitch_bend_c, 5, 7040
5, 37990, Pitch_bend_c, 5, 6912
5, 37997, Pitch_bend_c, 5, 6784
5, 38000, Pitch_bend_c, 5, 6784
5, 38160, Pitch_bend_c, 5, 6784
5, 38400, Pitch_bend_c, 5, 6784
5, 38400, Pitch_bend_c, 5, 8192
5, 38400, Note_off_c, 5, 64, 95
5, 38400, Note_on_c, 4, 60, 95
5, 39840, Note_off_c, 4, 60, 95
5, 39840, Note_on_c, 4, 60, 95
5, 40320, Note_off_c, 4, 60, 95
5, 40320, Note_on_c, 4, 65, 95
5, 41280, Note_off_c, 4, 65, 95
5, 41280, Note_on_c, 4, 64, 95
5, 42240, Note_off_c, 4, 64, 95
5, 42240, Note_on_c, 4, 62, 95
5, 42720, Note_off_c, 4, 62, 95
5, 42720, Note_on_c, 4, 60, 95
5, 43200, Note_off_c, 4, 60, 95
5, 43200, Note_on_c, 4, 62, 95
5, 46080, Note_off_c, 4, 62, 95
5, 46080, Note_on_c, 4, 67, 95
5, 47520, Note_off_c, 4, 67, 95
5, 47520, Note_on_c, 4, 65, 95
5, 48960, Note_off_c, 4, 65, 95
5, 48960, Note_on_c, 5, 65, 95
5, 49080, Pitch_bend_c, 5, 8064
5, 49200, Pitch_bend_c, 5, 7936
5, 49320, Pitch_bend_c, 5, 7680
5, 49440, Pitch_bend_c, 5, 7552
5, 49440, Pitch_bend_c, 5, 8192
5, 49440, Note_off_c, 5, 65, 95
5, 49440, Note_on_c, 4, 64, 95
5, 49920, Note_off_c, 4, 64, 95
5, 49920, Note_on_c, 4, 62, 95
5, 50880, Note_off_c, 4, 62, 95
5, 50880, Note_on_c, 4, 60, 95
5, 51360, Note_off_c, 4, 60, 95
5, 51360, Note_on_c, 4, 60, 95
5, 51840, Note_off_c, 4, 60, 95
5, 51840, Note_on_c, 4, 65, 95
5, 52800, Note_off_c, 4, 65, 95
5, 52800, Note_on_c, 4, 64, 95
5, 53760, Note_off_c, 4, 64, 95
5, 53760, Note_on_c, 4, 62, 95
5, 54240, Note_off_c, 4, 62, 95
5, 54240, Note_on_c, 4, 60, 95
5, 54720, Note_off_c, 4, 60, 95
5, 54720, Note_on_c, 4, 62, 95
5, 57120, Note_off_c, 4, 62, 95
5, 57120, Note_on_c, 4, 60, 95
5, 57600, Note_off_c, 4, 60, 95
5, 57600, Note_on_c, 4, 60, 95
5, 60000, Note_off_c, 4, 60, 95
5, 60000, Note_on_c, 4, 60, 95
5, 60480, Note_off_c, 4, 60, 95
5, 60480, Note_on_c, 5, 59, 95
5, 60600, Pitch_bend_c, 5, 8192
5, 60720, Pitch_bend_c, 5, 8320
5, 60840, Pitch_bend_c, 5, 8448
5, 60960, Pitch_bend_c, 5, 8448
5, 61080, Pitch_bend_c, 5, 8576
5, 61200, Pitch_bend_c, 5, 8704
5, 61320, Pitch_bend_c, 5, 8704
5, 61440, Pitch_bend_c, 5, 8832
5, 61440, Pitch_bend_c, 5, 8192
5, 61440, Note_off_c, 5, 59, 95
5, 61440, Note_on_c, 4, 60, 95
5, 62880, Note_off_c, 4, 60, 95
5, 62880, Note_on_c, 4, 60, 95
5, 63360, Note_off_c, 4, 60, 95
5, 63360, Note_on_c, 5, 60, 95
5, 63480, Pitch_bend_c, 5, 7680
5, 63600, Pitch_bend_c, 5, 7168
5, 63720, Pitch_bend_c, 5, 6656
5, 63840, Pitch_bend_c, 5, 6144
5, 63840, Pitch_bend_c, 5, 8192
5, 63840, Note_off_c, 5, 60, 95
5, 63840, Note_on_c, 4, 57, 95
5, 65280, Note_off_c, 4, 57, 95
5, 65280, Note_on_c, 5, 55, 95
5, 65400, Pitch_bend_c, 5, 8448
5, 65520, Pitch_bend_c, 5, 8832
5, 65640, Pitch_bend_c, 5, 9216
5, 65760, Pitch_bend_c, 5, 9600
5, 65760, Pitch_bend_c, 5, 8192
5, 65760, Note_off_c, 5, 55, 95
5, 65760, Note_on_c, 4, 57, 95
5, 66240, Note_off_c, 4, 57, 95
5, 66240, Note_on_c, 4, 55, 95
5, 68640, Note_off_c, 4, 55, 95
5, 68640, Note_on_c, 4, 64, 95
5, 69120, Note_off_c, 4, 64, 95
5, 69120, Note_on_c, 4, 64, 95
5, 70560, Note_off_c, 4, 64, 95
5, 70560, Note_on_c, 4, 62, 95
5, 71520, Note_off_c, 4, 62, 95
5, 71520, Note_on_c, 4, 62, 95
5, 72000, Note_off_c, 4, 62, 95
5, 72000, Note_on_c, 4, 62, 95
5, 72960, Note_off_c, 4, 62, 95
5, 72960, Note_on_c, 4, 64, 95
5, 74400, Note_off_c, 4, 64, 95
5, 74400, Note_on_c, 4, 64, 95
5, 74880, Note_off_c, 4, 64, 95
5, 74880, Note_on_c, 4, 64, 95
5, 76800, Note_off_c, 4, 64, 95
5, 76800, Note_on_c, 4, 62, 95
5, 77280, Note_off_c, 4, 62, 95
5, 77280, Note_on_c, 4, 60, 95
5, 77760, Note_off_c, 4, 60, 95
5, 77760, Note_on_c, 4, 62, 95
5, 80160, Note_off_c, 4, 62, 95
5, 80160, Note_on_c, 4, 62, 95
5, 80640, Note_off_c, 4, 62, 95
5, 80640, Note_on_c, 4, 64, 95
5, 82560, Note_off_c, 4, 64, 95
5, 82560, Note_on_c, 5, 62, 95
5, 82680, Pitch_bend_c, 5, 8448
5, 82800, Pitch_bend_c, 5, 8832
5, 82920, Pitch_bend_c, 5, 9216
5, 83040, Pitch_bend_c, 5, 9600
5, 83040, Pitch_bend_c, 5, 8192
5, 83040, Note_off_c, 5, 62, 95
5, 83040, Note_on_c, 4, 64, 95
5, 83520, Note_off_c, 4, 64, 95
5, 83520, Note_on_c, 5, 67, 95
5, 83640, Pitch_bend_c, 5, 7680
5, 83760, Pitch_bend_c, 5, 7168
5, 83880, Pitch_bend_c, 5, 6656
5, 84000, Pitch_bend_c, 5, 6144
5, 84000, Pitch_bend_c, 5, 8192
5, 84000, Note_off_c, 5, 67, 95
5, 84000, Note_on_c, 4, 64, 95
5, 84480, Note_off_c, 4, 64, 95
5, 84480, Note_on_c, 4, 64, 95
5, 86400, Note_off_c, 4, 64, 95
5, 86400, Note_on_c, 4, 64, 95
5, 87360, Note_off_c, 4, 64, 95
5, 87360, Note_on_c, 4, 62, 95
5, 88800, Note_off_c, 4, 62, 95
5, 88800, Note_on_c, 4, 60, 95
5, 89280, Note_off_c, 4, 60, 95
5, 89280, Note_on_c, 4, 62, 95
5, 91680, Note_off_c, 4, 62, 95
5, 91680, Note_on_c, 4, 55, 95
5, 92160, Note_off_c, 4, 55, 95
5, 92160, Note_on_c, 4, 64, 95
5, 93600, Note_off_c, 4, 64, 95
5, 93600, Note_on_c, 4, 62, 95
5, 95040, Note_off_c, 4, 62, 95
5, 95040, Note_on_c, 5, 64, 95
5, 95160, Pitch_bend_c, 5, 7936
5, 95280, Pitch_bend_c, 5, 7552
5, 95400, Pitch_bend_c, 5, 7168
5, 95520, Pitch_bend_c, 5, 6784
5, 95520, Pitch_bend_c, 5, 8192
5, 95520, Note_off_c, 5, 64, 95
5, 95520, Note_on_c, 4, 62, 95
5, 96000, Note_off_c, 4, 62, 95
5, 96000, Note_on_c, 4, 60, 95
5, 97440, Note_off_c, 4, 60, 95
5, 97440, Note_on_c, 4, 55, 95
5, 97920, Note_off_c, 4, 55, 95
5, 97920, Note_on_c, 4, 57, 95
5, 98400, Note_off_c, 4, 57, 95
5, 98400, Note_on_c, 4, 57, 95
5, 98880, Note_off_c, 4, 57, 95
5, 98880, Note_on_c, 4, 57, 95
5, 99840, Note_off_c, 4, 57, 95
5, 99840, Note_on_c, 4, 55, 95
5, 100320, Note_off_c, 4, 55, 95
5, 100320, Note_on_c, 4, 57, 95
5, 100800, Note_off_c, 4, 57, 95
5, 100800, Note_on_c, 4, 55, 95
5, 103200, Note_off_c, 4, 55, 95
5, 103200, Note_on_c, 4, 55, 95
5, 103680, Note_off_c, 4, 55, 95
5, 103680, Note_on_c, 4, 60, 95
5, 106080, Note_off_c, 4, 60, 95
5, 106080, Note_on_c, 4, 60, 95
5, 106560, Note_off_c, 4, 60, 95
5, 106560, Note_on_c, 5, 59, 95
5, 106680, Pitch_bend_c, 5, 8192
5, 106800, Pitch_bend_c, 5, 8320
5, 106920, Pitch_bend_c, 5, 8448
5, 107040, Pitch_bend_c, 5, 8448
5, 107160, Pitch_bend_c, 5, 8576
5, 107280, Pitch_bend_c, 5, 8704
5, 107400, Pitch_bend_c, 5, 8704
5, 107520, Pitch_bend_c, 5, 8832
5, 107520, Pitch_bend_c, 5, 8192
5, 107520, Note_off_c, 5, 59, 95
5, 107520, Note_on_c, 4, 60, 95
5, 108960, Note_off_c, 4, 60, 95
5, 108960, Note_on_c, 4, 60, 95
5, 109440, Note_off_c, 4, 60, 95
5, 109440, Note_on_c, 5, 60, 95
5, 109560, Pitch_bend_c, 5, 7680
5, 109680, Pitch_bend_c, 5, 7168
5, 109800, Pitch_bend_c, 5, 6656
5, 109920, Pitch_bend_c, 5, 6144
5, 109920, Pitch_bend_c, 5, 8192
5, 109920, Note_off_c, 5, 60, 95
5, 109920, Note_on_c, 4, 57, 95
5, 111360, Note_off_c, 4, 57, 95
5, 111360, Note_on_c, 5, 55, 95
5, 111480, Pitch_bend_c, 5, 8448
5, 111600, Pitch_bend_c, 5, 8832
5, 111720, Pitch_bend_c, 5, 9216
5, 111840, Pitch_bend_c, 5, 9600
5, 111840, Pitch_bend_c, 5, 8192
5, 111840, Note_off_c, 5, 55, 95
5, 111840, Note_on_c, 4, 57, 95
5, 112320, Note_off_c, 4, 57, 95
5, 112320, Note_on_c, 4, 55, 95
5, 114720, Note_off_c, 4, 55, 95
5, 114720, Note_on_c, 4, 64, 95
5, 115200, Note_off_c, 4, 64, 95
5, 115200, Note_on_c, 4, 64, 95
5, 117120, Note_off_c, 4, 64, 95
5, 117120, Note_on_c, 4, 62, 95
5, 117600, Note_off_c, 4, 62, 95
5, 117600, Note_on_c, 4, 62, 95
5, 118080, Note_off_c, 4, 62, 95
5, 118080, Note_on_c, 4, 62, 95
5, 119040, Note_off_c, 4, 62, 95
5, 119040, Note_on_c, 4, 64, 95
5, 120480, Note_off_c, 4, 64, 95
5, 120480, Note_on_c, 4, 64, 95
5, 120960, Note_off_c, 4, 64, 95
5, 120960, Note_on_c, 4, 64, 95
5, 122880, Note_off_c, 4, 64, 95
5, 122880, Note_on_c, 4, 62, 95
5, 123360, Note_off_c, 4, 62, 95
5, 123360, Note_on_c, 4, 60, 95
5, 123840, Note_off_c, 4, 60, 95
5, 123840, Note_on_c, 4, 62, 95
5, 126240, Note_off_c, 4, 62, 95
5, 126240, Note_on_c, 4, 62, 95
5, 126720, Note_off_c, 4, 62, 95
5, 126720, Note_on_c, 4, 64, 95
5, 127680, Note_off_c, 4, 64, 95
5, 127680, Note_on_c, 4, 62, 95
5, 129120, Note_off_c, 4, 62, 95
5, 129120, Note_on_c, 4, 64, 95
5, 129600, Note_off_c, 4, 64, 95
5, 129600, Note_on_c, 4, 67, 95
5, 130080, Note_off_c, 4, 67, 95
5, 130560, Note_on_c, 4, 67, 95
5, 132480, Note_off_c, 4, 67, 95
5, 132480, Note_on_c, 4, 64, 95
5, 133440, Note_off_c, 4, 64, 95
5, 133440, Note_on_c, 4, 62, 95
5, 134880, Note_off_c, 4, 62, 95
5, 134880, Note_on_c, 4, 60, 95
5, 135360, Note_off_c, 4, 60, 95
5, 135360, Note_on_c, 4, 62, 95
5, 137760, Note_off_c, 4, 62, 95
5, 137760, Note_on_c, 4, 55, 95
5, 138240, Note_off_c, 4, 55, 95
5, 138240, Note_on_c, 4, 64, 95
5, 139200, Note_off_c, 4, 64, 95
5, 139200, Note_on_c, 4, 62, 95
5, 140640, Note_off_c, 4, 62, 95
5, 140640, Note_on_c, 4, 60, 95
5, 141120, Note_off_c, 4, 60, 95
5, 141120, Note_on_c, 4, 60, 95
5, 142080, Note_off_c, 4, 60, 95
5, 142080, Note_on_c, 4, 62, 95
5, 143520, Note_off_c, 4, 62, 95
5, 143520, Note_on_c, 4, 60, 95
5, 144000, Note_off_c, 4, 60, 95
5, 144000, Note_on_c, 4, 60, 95
5, 144960, Note_off_c, 4, 60, 95
5, 144960, Note_on_c, 4, 60, 95
5, 146400, Note_off_c, 4, 60, 95
5, 146400, Note_on_c, 4, 60, 95
5, 146880, Note_off_c, 4, 60, 95
5, 146880, Note_on_c, 4, 57, 95
5, 147840, Note_off_c, 4, 57, 95
5, 147840, Note_on_c, 4, 55, 95
5, 149760, Note_off_c, 4, 55, 95
5, 160800, Note_on_c, 4, 60, 95
5, 161280, Note_off_c, 4, 60, 95
5, 161280, Note_on_c, 4, 60, 95
5, 163680, Note_off_c, 4, 60, 95
5, 163680, Note_on_c, 4, 60, 95
5, 164160, Note_off_c, 4, 60, 95
5, 164160, Note_on_c, 5, 59, 95
5, 164280, Pitch_bend_c, 5, 8192
5, 164400, Pitch_bend_c, 5, 8320
5, 164520, Pitch_bend_c, 5, 8448
5, 164640, Pitch_bend_c, 5, 8448
5, 164760, Pitch_bend_c, 5, 8576
5, 164880, Pitch_bend_c, 5, 8704
5, 165000, Pitch_bend_c, 5, 8704
5, 165120, Pitch_bend_c, 5, 8832
5, 165120, Pitch_bend_c, 5, 8192
5, 165120, Note_off_c, 5, 59, 95
5, 165120, Note_on_c, 4, 60, 95
5, 166560, Note_off_c, 4, 60, 95
5, 166560, Note_on_c, 4, 60, 95
5, 167040, Note_off_c, 4, 60, 95
5, 167040, Note_on_c, 5, 60, 95
5, 167160, Pitch_bend_c, 5, 7680
5, 167280, Pitch_bend_c, 5, 7168
5, 167400, Pitch_bend_c, 5, 6656
5, 167520, Pitch_bend_c, 5, 6144
5, 167520, Pitch_bend_c, 5, 8192
5, 167520, Note_off_c, 5, 60, 95
5, 167520, Note_on_c, 4, 57, 95
5, 168960, Note_off_c, 4, 57, 95
5, 168960, Note_on_c, 5, 55, 95
5, 169080, Pitch_bend_c, 5, 8448
5, 169200, Pitch_bend_c, 5, 8832
5, 169320, Pitch_bend_c, 5, 9216
5, 169440, Pitch_bend_c, 5, 9600
5, 169440, Pitch_bend_c, 5, 8192
5, 169440, Note_off_c, 5, 55, 95
5, 169440, Note_on_c, 4, 57, 95
5, 169920, Note_off_c, 4, 57, 95
5, 169920, Note_on_c, 4, 55, 95
5, 172320, Note_off_c, 4, 55, 95
5, 172320, Note_on_c, 4, 64, 95
5, 172800, Note_off_c, 4, 64, 95
5, 172800, Note_on_c, 4, 64, 95
5, 175200, Note_off_c, 4, 64, 95
5, 175200, Note_on_c, 4, 62, 95
5, 175680, Note_off_c, 4, 62, 95
5, 175680, Note_on_c, 4, 62, 95
5, 176640, Note_off_c, 4, 62, 95
5, 176640, Note_on_c, 4, 64, 95
5, 178440, Note_on_c, 5, 62, 95
5, 178560, Note_off_c, 4, 64, 95
5, 178560, Note_off_c, 5, 62, 95
5, 178560, Note_on_c, 5, 64, 95
5, 180480, Note_off_c, 5, 64, 95
5, 180480, Note_on_c, 4, 62, 95
5, 180960, Note_off_c, 4, 62, 95
5, 180960, Note_on_c, 4, 60, 95
5, 181440, Note_off_c, 4, 60, 95
5, 181440, Note_on_c, 4, 62, 95
5, 183840, Note_off_c, 4, 62, 95
5, 183840, Note_on_c, 4, 62, 95
5, 184320, Note_off_c, 4, 62, 95
5, 184320, Note_on_c, 4, 64, 95
5, 185280, Note_off_c, 4, 64, 95
5, 185280, Note_on_c, 4, 62, 95
5, 186720, Note_off_c, 4, 62, 95
5, 186720, Note_on_c, 4, 64, 95
5, 187200, Note_off_c, 4, 64, 95
5, 187200, Note_on_c, 4, 67, 95
5, 188160, Note_off_c, 4, 67, 95
5, 188160, Pitch_bend_c, 5, 8192
5, 188160, Note_on_c, 5, 67, 95
5, 189600, Pitch_bend_c, 5, 8192
5, 189621, Pitch_bend_c, 5, 8064
5, 189642, Pitch_bend_c, 5, 7936
5, 189663, Pitch_bend_c, 5, 7808
5, 189684, Pitch_bend_c, 5, 7680
5, 189705, Pitch_bend_c, 5, 7552
5, 189726, Pitch_bend_c, 5, 7424
5, 189747, Pitch_bend_c, 5, 7296
5, 189768, Pitch_bend_c, 5, 7168
5, 189789, Pitch_bend_c, 5, 7040
5, 189810, Pitch_bend_c, 5, 6912
5, 189831, Pitch_bend_c, 5, 6784
5, 189852, Pitch_bend_c, 5, 6656
5, 189873, Pitch_bend_c, 5, 6528
5, 189894, Pitch_bend_c, 5, 6400
5, 189915, Pitch_bend_c, 5, 6272
5, 189936, Pitch_bend_c, 5, 6144
5, 189957, Pitch_bend_c, 5, 6016
5, 189978, Pitch_bend_c, 5, 5888
5, 189999, Pitch_bend_c, 5, 5760
5, 190020, Pitch_bend_c, 5, 5632
5, 190041, Pitch_bend_c, 5, 5504
5, 190062, Pitch_bend_c, 5, 5376
5, 190080, Pitch_bend_c, 5, 5376
5, 190080, Pitch_bend_c, 5, 8192
5, 190080, Note_off_c, 5, 67, 95
5, 190080, Note_on_c, 5, 64, 95
5, 190200, Pitch_bend_c, 5, 8064
5, 190320, Pitch_bend_c, 5, 7936
5, 190440, Pitch_bend_c, 5, 7680
5, 190560, Pitch_bend_c, 5, 7552
5, 190680, Pitch_bend_c, 5, 7424
5, 190800, Pitch_bend_c, 5, 7168
5, 190920, Pitch_bend_c, 5, 7040
5, 191040, Pitch_bend_c, 5, 6784
5, 191040, Pitch_bend_c, 5, 8192
5, 191040, Note_off_c, 5, 64, 95
5, 191040, Note_on_c, 4, 62, 95
5, 192480, Note_off_c, 4, 62, 95
5, 192480, Note_on_c, 4, 60, 95
5, 192960, Note_off_c, 4, 60, 95
5, 192960, Note_on_c, 4, 62, 95
5, 195360, Note_off_c, 4, 62, 95
5, 195360, Note_on_c, 4, 55, 95
5, 195840, Note_off_c, 4, 55, 95
5, 195840, Note_on_c, 4, 64, 95
5, 197280, Note_off_c, 4, 64, 95
5, 197280, Note_on_c, 4, 62, 95
5, 198720, Note_off_c, 4, 62, 95
5, 198720, Note_on_c, 5, 64, 95
5, 198840, Pitch_bend_c, 5, 7936
5, 198960, Pitch_bend_c, 5, 7552
5, 199080, Pitch_bend_c, 5, 7168
5, 199200, Pitch_bend_c, 5, 6784
5, 199200, Pitch_bend_c, 5, 8192
5, 199200, Note_off_c, 5, 64, 95
5, 199200, Note_on_c, 4, 62, 95
5, 199680, Note_off_c, 4, 62, 95
5, 199680, Note_on_c, 4, 60, 95
5, 201120, Note_off_c, 4, 60, 95
5, 201120, Note_on_c, 4, 55, 95
5, 201600, Note_off_c, 4, 55, 95
5, 201600, Note_on_c, 4, 57, 95
5, 202080, Note_off_c, 4, 57, 95
5, 202080, Note_on_c, 4, 57, 95
5, 202560, Note_off_c, 4, 57, 95
5, 202560, Note_on_c, 4, 57, 95
5, 204000, Note_off_c, 4, 57, 95
5, 204000, Note_on_c, 4, 55, 95
5, 204480, Note_off_c, 4, 55, 95
5, 204480, Note_on_c, 4, 55, 95
5, 205920, Note_off_c, 4, 55, 95
5, 205920, Note_on_c, 4, 55, 95
5, 205980, Note_off_c, 4, 55, 95
5, 252000, Note_on_c, 4, 67, 95
5, 253440, Note_off_c, 4, 67, 95
5, 253440, Pitch_bend_c, 5, 8448
5, 253440, Note_on_c, 5, 66, 95
5, 253626, Pitch_bend_c, 5, 8576
5, 253812, Pitch_bend_c, 5, 8704
5, 253998, Pitch_bend_c, 5, 8832
5, 254000, Pitch_bend_c, 5, 8832
5, 257920, Pitch_bend_c, 5, 8832
5, 258666, Pitch_bend_c, 5, 8704
5, 259412, Pitch_bend_c, 5, 8576
5, 260158, Pitch_bend_c, 5, 8448
5, 260160, Pitch_bend_c, 5, 8448
5, 260160, Pitch_bend_c, 5, 8192
5, 260160, Note_off_c, 5, 66, 95
5, 260160, Note_on_c, 4, 65, 95
5, 260640, Note_off_c, 4, 65, 95
5, 260640, Note_on_c, 4, 67, 95
5, 261600, Note_off_c, 4, 67, 95
5, 261600, Note_on_c, 4, 69, 95
5, 262080, Note_off_c, 4, 69, 95
5, 262080, Note_on_c, 4, 67, 95
5, 263040, Note_off_c, 4, 67, 95
5, 263040, Note_on_c, 4, 67, 95
5, 264480, Note_off_c, 4, 67, 95
5, 264480, Note_on_c, 4, 65, 95
5, 264960, Note_off_c, 4, 65, 95
5, 264960, Note_on_c, 4, 67, 95
5, 269760, Note_off_c, 4, 67, 95
5, 271680, Note_on_c, 4, 62, 95
5, 272160, Note_off_c, 4, 62, 95
5, 272160, Note_on_c, 4, 64, 95
5, 273120, Note_off_c, 4, 64, 95
5, 273120, Note_on_c, 4, 65, 95
5, 273600, Note_off_c, 4, 65, 95
5, 273600, Note_on_c, 4, 64, 95
5, 274560, Note_off_c, 4, 64, 95
5, 274560, Note_on_c, 4, 64, 95
5, 276000, Note_off_c, 4, 64, 95
5, 276000, Note_on_c, 4, 62, 95
5, 276480, Note_off_c, 4, 62, 95
5, 276480, Note_on_c, 4, 64, 95
5, 281280, Note_off_c, 4, 64, 95
5, 283200, Note_on_c, 4, 60, 95
5, 283680, Note_off_c, 4, 60, 95
5, 283680, Note_on_c, 4, 62, 95
5, 284640, Note_off_c, 4, 62, 95
5, 284640, Note_on_c, 4, 64, 95
5, 285120, Note_off_c, 4, 64, 95
5, 285120, Note_on_c, 4, 60, 95
5, 286080, Note_off_c, 4, 60, 95
5, 286080, Pitch_bend_c, 5, 8192
5, 286080, Note_on_c, 5, 60, 95
5, 286920, Pitch_bend_c, 5, 8192
5, 286974, Pitch_bend_c, 5, 8064
5, 287028, Pitch_bend_c, 5, 7936
5, 287082, Pitch_bend_c, 5, 7808
5, 287136, Pitch_bend_c, 5, 7680
5, 287190, Pitch_bend_c, 5, 7552
5, 287244, Pitch_bend_c, 5, 7424
5, 287298, Pitch_bend_c, 5, 7296
5, 287352, Pitch_bend_c, 5, 7168
5, 287406, Pitch_bend_c, 5, 7040
5, 287460, Pitch_bend_c, 5, 6912
5, 287514, Pitch_bend_c, 5, 6784
5, 287520, Pitch_bend_c, 5, 6784
5, 287520, Pitch_bend_c, 5, 8192
5, 287520, Note_off_c, 5, 60, 95
5, 287520, Note_on_c, 5, 57, 95
5, 287640, Pitch_bend_c, 5, 8704
5, 287760, Pitch_bend_c, 5, 9216
5, 287880, Pitch_bend_c, 5, 9728
5, 288000, Pitch_bend_c, 5, 10240
5, 288000, Pitch_bend_c, 5, 8192
5, 288000, Note_off_c, 5, 57, 95
5, 288000, Note_on_c, 4, 60, 95
5, 291840, Note_off_c, 4, 60, 95
5, 298080, Note_on_c, 4, 67, 95
5, 299520, Note_off_c, 4, 67, 95
5, 299520, Pitch_bend_c, 5, 8448
5, 299520, Note_on_c, 5, 66, 95
5, 299706, Pitch_bend_c, 5, 8576
5, 299892, Pitch_bend_c, 5, 8704
5, 300078, Pitch_bend_c, 5, 8832
5, 300080, Pitch_bend_c, 5, 8832
5, 304000, Pitch_bend_c, 5, 8832
5, 304746, Pitch_bend_c, 5, 8704
5, 305492, Pitch_bend_c, 5, 8576
5, 306238, Pitch_bend_c, 5, 8448
5, 306240, Pitch_bend_c, 5, 8448
5, 306240, Pitch_bend_c, 5, 8192
5, 306240, Note_off_c, 5, 66, 95
5, 306240, Note_on_c, 4, 65, 95
5, 306720, Note_off_c, 4, 65, 95
5, 306720, Note_on_c, 4, 67, 95
5, 307680, Note_off_c, 4, 67, 95
5, 307680, Note_on_c, 4, 69, 95
5, 308160, Note_off_c, 4, 69, 95
5, 308160, Note_on_c, 4, 67, 95
5, 309120, Note_off_c, 4, 67, 95
5, 309120, Note_on_c, 4, 67, 95
5, 310560, Note_off_c, 4, 67, 95
5, 310560, Note_on_c, 4, 65, 95
5, 311040, Note_off_c, 4, 65, 95
5, 311040, Note_on_c, 4, 67, 95
5, 316800, Note_off_c, 4, 67, 95
5, 317760, Note_on_c, 4, 62, 95
5, 318240, Note_off_c, 4, 62, 95
5, 318240, Note_on_c, 4, 64, 95
5, 319200, Note_off_c, 4, 64, 95
5, 319200, Note_on_c, 4, 65, 95
5, 319680, Note_off_c, 4, 65, 95
5, 319680, Pitch_bend_c, 5, 8192
5, 319680, Note_on_c, 5, 64, 95
5, 321480, Pitch_bend_c, 5, 8192
5, 321534, Pitch_bend_c, 5, 8064
5, 321588, Pitch_bend_c, 5, 7936
5, 321642, Pitch_bend_c, 5, 7808
5, 321696, Pitch_bend_c, 5, 7680
5, 321750, Pitch_bend_c, 5, 7552
5, 321804, Pitch_bend_c, 5, 7424
5, 321858, Pitch_bend_c, 5, 7296
5, 321912, Pitch_bend_c, 5, 7168
5, 321966, Pitch_bend_c, 5, 7040
5, 322020, Pitch_bend_c, 5, 6912
5, 322074, Pitch_bend_c, 5, 6784
5, 322080, Pitch_bend_c, 5, 6784
5, 322080, Pitch_bend_c, 5, 8192
5, 322080, Note_off_c, 5, 64, 95
5, 322080, Note_on_c, 4, 62, 95
5, 322560, Note_off_c, 4, 62, 95
5, 322560, Note_on_c, 4, 64, 95
5, 323520, Note_off_c, 4, 64, 95
5, 323520, Note_on_c, 4, 64, 95
5, 327840, Note_off_c, 4, 64, 95
5, 329280, Note_on_c, 4, 60, 95
5, 329760, Note_off_c, 4, 60, 95
5, 329760, Note_on_c, 4, 62, 95
5, 330720, Note_off_c, 4, 62, 95
5, 330720, Note_on_c, 4, 64, 95
5, 331200, Note_off_c, 4, 64, 95
5, 331200, Note_on_c, 5, 60, 95
5, 331320, Pitch_bend_c, 5, 7680
5, 331440, Pitch_bend_c, 5, 7168
5, 331560, Pitch_bend_c, 5, 6656
5, 331680, Pitch_bend_c, 5, 6144
5, 331680, Pitch_bend_c, 5, 8192
5, 331680, Note_off_c, 5, 60, 95
5, 331680, Note_on_c, 4, 57, 95
5, 332160, Note_off_c, 4, 57, 95
5, 332160, Note_on_c, 4, 60, 95
5, 333600, Note_off_c, 4, 60, 95
5, 333600, Note_on_c, 4, 57, 95
5, 334080, Note_off_c, 4, 57, 95
5, 334080, Note_on_c, 4, 60, 95
5, 335040, Note_off_c, 4, 60, 95
5, 335040, Note_on_c, 4, 60, 95
5, 337920, Note_off_c, 4, 60, 95
5, 391200, Note_on_c, 4, 55, 95
5, 391680, Note_off_c, 4, 55, 95
5, 391680, Note_on_c, 4, 60, 95
5, 394080, Note_off_c, 4, 60, 95
5, 394080, Note_on_c, 4, 60, 95
5, 394560, Note_off_c, 4, 60, 95
5, 394560, Note_on_c, 5, 59, 95
5, 394680, Pitch_bend_c, 5, 8192
5, 394800, Pitch_bend_c, 5, 8320
5, 394920, Pitch_bend_c, 5, 8448
5, 395040, Pitch_bend_c, 5, 8448
5, 395160, Pitch_bend_c, 5, 8576
5, 395280, Pitch_bend_c, 5, 8704
5, 395400, Pitch_bend_c, 5, 8704
5, 395520, Pitch_bend_c, 5, 8832
5, 395520, Pitch_bend_c, 5, 8192
5, 395520, Note_off_c, 5, 59, 95
5, 395520, Note_on_c, 4, 60, 95
5, 396960, Note_off_c, 4, 60, 95
5, 396960, Note_on_c, 4, 60, 95
5, 397440, Note_off_c, 4, 60, 95
5, 397440, Note_on_c, 5, 60, 95
5, 397560, Pitch_bend_c, 5, 7680
5, 397680, Pitch_bend_c, 5, 7168
5, 397800, Pitch_bend_c, 5, 6656
5, 397920, Pitch_bend_c, 5, 6144
5, 397920, Pitch_bend_c, 5, 8192
5, 397920, Note_off_c, 5, 60, 95
5, 397920, Note_on_c, 4, 57, 95
5, 399360, Note_off_c, 4, 57, 95
5, 399360, Note_on_c, 5, 55, 95
5, 399480, Pitch_bend_c, 5, 8448
5, 399600, Pitch_bend_c, 5, 8832
5, 399720, Pitch_bend_c, 5, 9216
5, 399840, Pitch_bend_c, 5, 9600
5, 399840, Pitch_bend_c, 5, 8192
5, 399840, Note_off_c, 5, 55, 95
5, 399840, Note_on_c, 4, 57, 95
5, 400320, Note_off_c, 4, 57, 95
5, 400320, Note_on_c, 4, 55, 95
5, 402720, Note_off_c, 4, 55, 95
5, 402720, Note_on_c, 4, 64, 95
5, 403200, Note_off_c, 4, 64, 95
5, 403200, Note_on_c, 4, 64, 95
5, 405600, Note_off_c, 4, 64, 95
5, 405600, Note_on_c, 4, 62, 95
5, 406080, Note_off_c, 4, 62, 95
5, 406080, Note_on_c, 5, 62, 95
5, 406200, Pitch_bend_c, 5, 8320
5, 406320, Pitch_bend_c, 5, 8448
5, 406440, Pitch_bend_c, 5, 8704
5, 406560, Pitch_bend_c, 5, 8832
5, 406680, Pitch_bend_c, 5, 8960
5, 406800, Pitch_bend_c, 5, 9216
5, 406920, Pitch_bend_c, 5, 9344
5, 407040, Pitch_bend_c, 5, 9600
5, 407040, Pitch_bend_c, 5, 8192
5, 407040, Note_off_c, 5, 62, 95
5, 407040, Note_on_c, 4, 64, 95
5, 408480, Note_off_c, 4, 64, 95
5, 408480, Note_on_c, 4, 64, 95
5, 408960, Note_off_c, 4, 64, 95
5, 408960, Note_on_c, 4, 64, 95
5, 410880, Note_off_c, 4, 64, 95
5, 410880, Note_on_c, 5, 62, 95
5, 411000, Pitch_bend_c, 5, 7936
5, 411120, Pitch_bend_c, 5, 7552
5, 411240, Pitch_bend_c, 5, 7168
5, 411360, Pitch_bend_c, 5, 6784
5, 411360, Pitch_bend_c, 5, 8192
5, 411360, Note_off_c, 5, 62, 95
5, 411360, Note_on_c, 4, 60, 95
5, 411840, Note_off_c, 4, 60, 95
5, 411840, Note_on_c, 4, 62, 95
5, 414240, Note_off_c, 4, 62, 95
5, 414240, Note_on_c, 4, 62, 95
5, 414720, Note_off_c, 4, 62, 95
5, 414720, Note_on_c, 4, 64, 95
5, 416640, Note_off_c, 4, 64, 95
5, 416640, Note_on_c, 5, 62, 95
5, 416760, Pitch_bend_c, 5, 8448
5, 416880, Pitch_bend_c, 5, 8832
5, 417000, Pitch_bend_c, 5, 9216
5, 417120, Pitch_bend_c, 5, 9600
5, 417120, Pitch_bend_c, 5, 8192
5, 417120, Note_off_c, 5, 62, 95
5, 417120, Note_on_c, 4, 64, 95
5, 417600, Note_off_c, 4, 64, 95
5, 417600, Note_on_c, 5, 67, 95
5, 417720, Pitch_bend_c, 5, 7680
5, 417840, Pitch_bend_c, 5, 7168
5, 417960, Pitch_bend_c, 5, 6656
5, 418080, Pitch_bend_c, 5, 6144
5, 418080, Pitch_bend_c, 5, 8192
5, 418080, Note_off_c, 5, 67, 95
5, 418080, Note_on_c, 4, 64, 95
5, 418560, Note_off_c, 4, 64, 95
5, 418560, Note_on_c, 4, 64, 95
5, 420480, Note_off_c, 4, 64, 95
5, 420480, Note_on_c, 5, 64, 95
5, 420600, Pitch_bend_c, 5, 8064
5, 420720, Pitch_bend_c, 5, 7936
5, 420840, Pitch_bend_c, 5, 7680
5, 420960, Pitch_bend_c, 5, 7552
5, 421080, Pitch_bend_c, 5, 7424
5, 421200, Pitch_bend_c, 5, 7168
5, 421320, Pitch_bend_c, 5, 7040
5, 421440, Pitch_bend_c, 5, 6784
5, 421440, Pitch_bend_c, 5, 8192
5, 421440, Note_off_c, 5, 64, 95
5, 421440, Note_on_c, 4, 62, 95
5, 422880, Note_off_c, 4, 62, 95
5, 422880, Note_on_c, 4, 60, 95
5, 423120, Note_off_c, 4, 60, 95
5, 423120, Note_on_c, 4, 60, 95
5, 423360, Note_off_c, 4, 60, 95
5, 423360, Note_on_c, 4, 62, 95
5, 425760, Note_off_c, 4, 62, 95
5, 425760, Note_on_c, 4, 55, 95
5, 426240, Note_off_c, 4, 55, 95
5, 426240, Note_on_c, 4, 64, 95
5, 427680, Note_off_c, 4, 64, 95
5, 427680, Note_on_c, 4, 62, 95
5, 429120, Note_off_c, 4, 62, 95
5, 429120, Note_on_c, 5, 64, 95
5, 429240, Pitch_bend_c, 5, 7936
5, 429360, Pitch_bend_c, 5, 7552
5, 429480, Pitch_bend_c, 5, 7168
5, 429600, Pitch_bend_c, 5, 6784
5, 429600, Pitch_bend_c, 5, 8192
5, 429600, Note_off_c, 5, 64, 95
5, 429600, Note_on_c, 4, 62, 95
5, 430080, Note_off_c, 4, 62, 95
5, 430080, Note_on_c, 4, 60, 95
5, 431520, Note_off_c, 4, 60, 95
5, 431520, Note_on_c, 4, 55, 95
5, 432000, Note_off_c, 4, 55, 95
5, 432000, Note_on_c, 4, 57, 95
5, 432480, Note_off_c, 4, 57, 95
5, 432480, Note_on_c, 4, 57, 95
5, 432960, Note_off_c, 4, 57, 95
5, 432960, Note_on_c, 4, 57, 95
5, 433920, Note_off_c, 4, 57, 95
5, 433920, Note_on_c, 4, 55, 95
5, 434400, Note_off_c, 4, 55, 95
5, 434400, Note_on_c, 4, 57, 95
5, 434880, Note_off_c, 4, 57, 95
5, 434880, Note_on_c, 4, 55, 95
5, 436800, Note_off_c, 4, 55, 95
5, 436800, End_track
0, 0, End_of_file
