0, 0, Header, 1, 9, 384
1, 0, Start_track
1, 0, Tempo, 631570
1, 0, Time_signature, 4, 2, 24, 8
1, 10752, Time_signature, 2, 2, 24, 8
1, 11520, Time_signature, 4, 2, 24, 8
1, 40704, Time_signature, 2, 2, 24, 8
1, 41472, Time_signature, 4, 2, 24, 8
1, 170496, Time_signature, 2, 2, 24, 8
1, 171264, Time_signature, 4, 2, 24, 8
1, 186624, End_track
2, 0, Start_track
2, 0, Title_t, "Bass guit"
2, 1536, Control_c, 1, 121, 0
2, 1538, Control_c, 1, 0, 0
2, 1540, Control_c, 1, 32, 0
2, 1542, Program_c, 1, 35
2, 1544, Control_c, 1, 11, 127
2, 1554, Control_c, 1, 7, 100
2, 1556, Control_c, 1, 91, 28
2, 1558, Control_c, 1, 93, 41
2, 1560, Control_c, 1, 10, 57
2, 3072, Note_on_c, 1, 28, 107
2, 3840, Note_off_c, 1, 28, 0
2, 3840, Note_on_c, 1, 33, 107
2, 4608, Note_off_c, 1, 33, 0
2, 4608, Note_on_c, 1, 49, 107
2, 4800, Note_off_c, 1, 49, 0
2, 4800, Note_on_c, 1, 47, 107
2, 4992, Note_off_c, 1, 47, 0
2, 4992, Note_on_c, 1, 45, 107
2, 5184, Note_off_c, 1, 45, 0
2, 5184, Note_on_c, 1, 44, 107
2, 6048, Note_off_c, 1, 44, 0
2, 6144, Note_on_c, 1, 28, 107
2, 6912, Note_off_c, 1, 28, 0
2, 6912, Note_on_c, 1, 33, 107
2, 7680, Note_off_c, 1, 33, 0
2, 7680, Note_on_c, 1, 49, 107
2, 7872, Note_off_c, 1, 49, 0
2, 7872, Note_on_c, 1, 47, 107
2, 8064, Note_off_c, 1, 47, 0
2, 8064, Note_on_c, 1, 45, 107
2, 8256, Note_off_c, 1, 45, 0
2, 8256, Note_on_c, 1, 44, 107
2, 9120, Note_off_c, 1, 44, 0
2, 9216, Note_on_c, 1, 44, 107
2, 9600, Note_off_c, 1, 44, 0
2, 9600, Note_on_c, 1, 42, 107
2, 9792, Note_off_c, 1, 42, 0
2, 9792, Note_on_c, 1, 40, 107
2, 9984, Note_off_c, 1, 40, 0
2, 9984, Note_on_c, 1, 38, 107
2, 10752, Note_off_c, 1, 38, 0
2, 10752, Note_on_c, 1, 33, 107
2, 11520, Note_off_c, 1, 33, 0
2, 11520, Note_on_c, 1, 28, 107
2, 13056, Note_off_c, 1, 28, 0
2, 13056, Note_on_c, 1, 28, 107
2, 13824, Note_off_c, 1, 28, 0
2, 13824, Note_on_c, 1, 35, 107
2, 14496, Note_off_c, 1, 35, 0
2, 14592, Note_on_c, 1, 33, 107
2, 15360, Note_off_c, 1, 33, 0
2, 15360, Note_on_c, 1, 28, 107
2, 16128, Note_off_c, 1, 28, 0
2, 16128, Note_on_c, 1, 28, 107
2, 16896, Note_off_c, 1, 28, 0
2, 16896, Note_on_c, 1, 35, 107
2, 17568, Note_off_c, 1, 35, 0
2, 17664, Note_on_c, 1, 33, 107
2, 18336, Note_off_c, 1, 33, 0
2, 18336, Note_on_c, 1, 33, 107
2, 18432, Note_off_c, 1, 33, 0
2, 18432, Note_on_c, 1, 33, 107
2, 19200, Note_off_c, 1, 33, 0
2, 19200, Note_on_c, 1, 33, 107
2, 19968, Note_off_c, 1, 33, 0
2, 19968, Note_on_c, 1, 33, 104
2, 20064, Note_off_c, 1, 33, 0
2, 20064, Note_on_c, 1, 33, 107
2, 20736, Note_off_c, 1, 33, 0
2, 20736, Note_on_c, 1, 28, 107
2, 21216, Note_off_c, 1, 28, 0
2, 21312, Note_on_c, 1, 28, 107
2, 21792, Note_off_c, 1, 28, 0
2, 21888, Note_on_c, 1, 28, 107
2, 22272, Note_off_c, 1, 28, 0
2, 22272, Note_on_c, 1, 35, 107
2, 22560, Note_off_c, 1, 35, 0
2, 22560, Note_on_c, 1, 35, 107
2, 22656, Note_off_c, 1, 35, 0
2, 22848, Note_on_c, 1, 33, 107
2, 23808, Note_off_c, 1, 33, 0
2, 23808, Note_on_c, 1, 28, 107
2, 24576, Note_off_c, 1, 28, 0
2, 24576, Note_on_c, 1, 35, 107
2, 25248, Note_off_c, 1, 35, 0
2, 25344, Note_on_c, 1, 33, 107
2, 26112, Note_off_c, 1, 33, 0
2, 26112, Note_on_c, 1, 28, 107
2, 26880, Note_off_c, 1, 28, 0
2, 26880, Note_on_c, 1, 28, 107
2, 27648, Note_off_c, 1, 28, 0
2, 27648, Note_on_c, 1, 35, 107
2, 28320, Note_off_c, 1, 35, 0
2, 28416, Note_on_c, 1, 33, 107
2, 29088, Note_off_c, 1, 33, 0
2, 29088, Note_on_c, 1, 33, 107
2, 29184, Note_off_c, 1, 33, 0
2, 29184, Note_on_c, 1, 33, 107
2, 29952, Note_off_c, 1, 33, 0
2, 29952, Note_on_c, 1, 33, 107
2, 30720, Note_off_c, 1, 33, 0
2, 30720, Note_on_c, 1, 33, 104
2, 30816, Note_off_c, 1, 33, 0
2, 30816, Note_on_c, 1, 33, 107
2, 31488, Note_off_c, 1, 33, 0
2, 31488, Note_on_c, 1, 28, 107
2, 31968, Note_off_c, 1, 28, 0
2, 32064, Note_on_c, 1, 28, 107
2, 32544, Note_off_c, 1, 28, 0
2, 32640, Note_on_c, 1, 28, 107
2, 33024, Note_off_c, 1, 28, 0
2, 33024, Note_on_c, 1, 33, 107
2, 33312, Note_off_c, 1, 33, 0
2, 33312, Note_on_c, 1, 33, 107
2, 33408, Note_off_c, 1, 33, 0
2, 33600, Note_on_c, 1, 33, 107
2, 33792, Note_on_c, 1, 33, 107
2, 34080, Note_off_c, 1, 33, 0
2, 34080, Note_on_c, 1, 33, 107
2, 34176, Note_off_c, 1, 33, 0
2, 34368, Note_on_c, 1, 33, 107
2, 34560, Note_off_c, 1, 33, 0
2, 34560, Note_off_c, 1, 33, 0
2, 34560, Note_on_c, 1, 35, 107
2, 35232, Note_off_c, 1, 35, 0
2, 35328, Note_on_c, 1, 33, 107
2, 36000, Note_off_c, 1, 33, 0
2, 36096, Note_on_c, 1, 28, 107
2, 36864, Note_off_c, 1, 28, 0
2, 36864, Note_on_c, 1, 33, 107
2, 37632, Note_off_c, 1, 33, 0
2, 37632, Note_on_c, 1, 35, 107
2, 38400, Note_off_c, 1, 35, 0
2, 38400, Note_on_c, 1, 33, 107
2, 39168, Note_off_c, 1, 33, 0
2, 39168, Note_on_c, 1, 28, 107
2, 39936, Note_off_c, 1, 28, 0
2, 39936, Note_on_c, 1, 33, 107
2, 40704, Note_off_c, 1, 33, 0
2, 40704, Note_on_c, 1, 33, 107
2, 41472, Note_off_c, 1, 33, 0
2, 41472, Note_on_c, 1, 30, 107
2, 42924, Note_off_c, 1, 30, 0
2, 43008, Note_on_c, 1, 28, 107
2, 43388, Note_off_c, 1, 28, 0
2, 43584, Note_on_c, 1, 28, 107
2, 43968, Note_off_c, 1, 28, 0
2, 43968, Note_on_c, 1, 28, 107
2, 44112, Note_off_c, 1, 28, 0
2, 44160, Note_on_c, 1, 30, 107
2, 44304, Note_off_c, 1, 30, 0
2, 44352, Note_on_c, 1, 32, 107
2, 44496, Note_off_c, 1, 32, 0
2, 44544, Note_on_c, 1, 33, 107
2, 44928, Note_off_c, 1, 33, 0
2, 45120, Note_on_c, 1, 33, 107
2, 45504, Note_off_c, 1, 33, 0
2, 45504, Note_on_c, 1, 33, 107
2, 45648, Note_off_c, 1, 33, 0
2, 45696, Note_on_c, 1, 32, 107
2, 45840, Note_off_c, 1, 32, 0
2, 45888, Note_on_c, 1, 30, 107
2, 46032, Note_off_c, 1, 30, 0
2, 46080, Note_on_c, 1, 28, 107
2, 46460, Note_off_c, 1, 28, 0
2, 46656, Note_on_c, 1, 28, 107
2, 47040, Note_off_c, 1, 28, 0
2, 47040, Note_on_c, 1, 28, 107
2, 47184, Note_off_c, 1, 28, 0
2, 47232, Note_on_c, 1, 30, 107
2, 47376, Note_off_c, 1, 30, 0
2, 47424, Note_on_c, 1, 32, 107
2, 47568, Note_off_c, 1, 32, 0
2, 47616, Note_on_c, 1, 33, 107
2, 48000, Note_off_c, 1, 33, 0
2, 48192, Note_on_c, 1, 33, 107
2, 48576, Note_off_c, 1, 33, 0
2, 48576, Note_on_c, 1, 33, 107
2, 48720, Note_off_c, 1, 33, 0
2, 48768, Note_on_c, 1, 32, 107
2, 48912, Note_off_c, 1, 32, 0
2, 48960, Note_on_c, 1, 30, 107
2, 49104, Note_off_c, 1, 30, 0
2, 49152, Note_on_c, 1, 28, 107
2, 49532, Note_off_c, 1, 28, 0
2, 49728, Note_on_c, 1, 28, 107
2, 50112, Note_off_c, 1, 28, 0
2, 50112, Note_on_c, 1, 28, 107
2, 50256, Note_off_c, 1, 28, 0
2, 50304, Note_on_c, 1, 30, 107
2, 50448, Note_off_c, 1, 30, 0
2, 50496, Note_on_c, 1, 32, 107
2, 50640, Note_off_c, 1, 32, 0
2, 50688, Note_on_c, 1, 33, 107
2, 51072, Note_off_c, 1, 33, 0
2, 51264, Note_on_c, 1, 33, 107
2, 51648, Note_off_c, 1, 33, 0
2, 51648, Note_on_c, 1, 33, 107
2, 51792, Note_off_c, 1, 33, 0
2, 51840, Note_on_c, 1, 32, 107
2, 51984, Note_off_c, 1, 32, 0
2, 52032, Note_on_c, 1, 30, 107
2, 52176, Note_off_c, 1, 30, 0
2, 52224, Note_on_c, 1, 28, 107
2, 52604, Note_off_c, 1, 28, 0
2, 52800, Note_on_c, 1, 28, 107
2, 53184, Note_off_c, 1, 28, 0
2, 53184, Note_on_c, 1, 28, 107
2, 53328, Note_off_c, 1, 28, 0
2, 53376, Note_on_c, 1, 30, 107
2, 53520, Note_off_c, 1, 30, 0
2, 53568, Note_on_c, 1, 32, 107
2, 53712, Note_off_c, 1, 32, 0
2, 53760, Note_on_c, 1, 33, 107
2, 54144, Note_off_c, 1, 33, 0
2, 54336, Note_on_c, 1, 33, 107
2, 54720, Note_off_c, 1, 33, 0
2, 54720, Note_on_c, 1, 33, 107
2, 54864, Note_off_c, 1, 33, 0
2, 54912, Note_on_c, 1, 32, 107
2, 55056, Note_off_c, 1, 32, 0
2, 55104, Note_on_c, 1, 30, 107
2, 55248, Note_off_c, 1, 30, 0
2, 55296, Note_on_c, 1, 28, 107
2, 55676, Note_off_c, 1, 28, 0
2, 55872, Note_on_c, 1, 28, 107
2, 56256, Note_off_c, 1, 28, 0
2, 56256, Note_on_c, 1, 28, 107
2, 56400, Note_off_c, 1, 28, 0
2, 56448, Note_on_c, 1, 30, 107
2, 56592, Note_off_c, 1, 30, 0
2, 56640, Note_on_c, 1, 32, 107
2, 56784, Note_off_c, 1, 32, 0
2, 56832, Note_on_c, 1, 33, 107
2, 57216, Note_off_c, 1, 33, 0
2, 57408, Note_on_c, 1, 33, 107
2, 57792, Note_off_c, 1, 33, 0
2, 57792, Note_on_c, 1, 33, 107
2, 57936, Note_off_c, 1, 33, 0
2, 57984, Note_on_c, 1, 32, 107
2, 58128, Note_off_c, 1, 32, 0
2, 58176, Note_on_c, 1, 30, 107
2, 58320, Note_off_c, 1, 30, 0
2, 58368, Note_on_c, 1, 28, 107
2, 58748, Note_off_c, 1, 28, 0
2, 58944, Note_on_c, 1, 28, 107
2, 59328, Note_off_c, 1, 28, 0
2, 59328, Note_on_c, 1, 28, 107
2, 59472, Note_off_c, 1, 28, 0
2, 59520, Note_on_c, 1, 30, 107
2, 59664, Note_off_c, 1, 30, 0
2, 59712, Note_on_c, 1, 32, 107
2, 59856, Note_off_c, 1, 32, 0
2, 59904, Note_on_c, 1, 33, 107
2, 60288, Note_off_c, 1, 33, 0
2, 60480, Note_on_c, 1, 33, 107
2, 60864, Note_off_c, 1, 33, 0
2, 60864, Note_on_c, 1, 33, 107
2, 61008, Note_off_c, 1, 33, 0
2, 61056, Note_on_c, 1, 32, 107
2, 61200, Note_off_c, 1, 32, 0
2, 61248, Note_on_c, 1, 30, 107
2, 61392, Note_off_c, 1, 30, 0
2, 61440, Note_on_c, 1, 28, 107
2, 61820, Note_off_c, 1, 28, 0
2, 62016, Note_on_c, 1, 28, 107
2, 62400, Note_off_c, 1, 28, 0
2, 62400, Note_on_c, 1, 28, 107
2, 62544, Note_off_c, 1, 28, 0
2, 62592, Note_on_c, 1, 30, 107
2, 62736, Note_off_c, 1, 30, 0
2, 62784, Note_on_c, 1, 32, 107
2, 62928, Note_off_c, 1, 32, 0
2, 62976, Note_on_c, 1, 33, 107
2, 63360, Note_off_c, 1, 33, 0
2, 63552, Note_on_c, 1, 33, 107
2, 63936, Note_off_c, 1, 33, 0
2, 63936, Note_on_c, 1, 33, 107
2, 64080, Note_off_c, 1, 33, 0
2, 64128, Note_on_c, 1, 32, 107
2, 64272, Note_off_c, 1, 32, 0
2, 64320, Note_on_c, 1, 30, 107
2, 64464, Note_off_c, 1, 30, 0
2, 64512, Note_on_c, 1, 28, 107
2, 64892, Note_off_c, 1, 28, 0
2, 65088, Note_on_c, 1, 28, 107
2, 65472, Note_off_c, 1, 28, 0
2, 65472, Note_on_c, 1, 28, 107
2, 65616, Note_off_c, 1, 28, 0
2, 65664, Note_on_c, 1, 30, 107
2, 65808, Note_off_c, 1, 30, 0
2, 65856, Note_on_c, 1, 32, 107
2, 66000, Note_off_c, 1, 32, 0
2, 66048, Note_on_c, 1, 33, 107
2, 66432, Note_off_c, 1, 33, 0
2, 66624, Note_on_c, 1, 33, 107
2, 67008, Note_off_c, 1, 33, 0
2, 67008, Note_on_c, 1, 33, 107
2, 67152, Note_off_c, 1, 33, 0
2, 67200, Note_on_c, 1, 32, 107
2, 67344, Note_off_c, 1, 32, 0
2, 67392, Note_on_c, 1, 30, 107
2, 67536, Note_off_c, 1, 30, 0
2, 67584, Note_on_c, 1, 28, 107
2, 67964, Note_off_c, 1, 28, 0
2, 68160, Note_on_c, 1, 28, 107
2, 68544, Note_off_c, 1, 28, 0
2, 68544, Note_on_c, 1, 28, 107
2, 68688, Note_off_c, 1, 28, 0
2, 68736, Note_on_c, 1, 30, 107
2, 68880, Note_off_c, 1, 30, 0
2, 68928, Note_on_c, 1, 32, 107
2, 69072, Note_off_c, 1, 32, 0
2, 69120, Note_on_c, 1, 33, 107
2, 69504, Note_off_c, 1, 33, 0
2, 69696, Note_on_c, 1, 33, 107
2, 70080, Note_off_c, 1, 33, 0
2, 70080, Note_on_c, 1, 33, 107
2, 70224, Note_off_c, 1, 33, 0
2, 70272, Note_on_c, 1, 32, 107
2, 70416, Note_off_c, 1, 32, 0
2, 70464, Note_on_c, 1, 30, 107
2, 70608, Note_off_c, 1, 30, 0
2, 70656, Note_on_c, 1, 28, 107
2, 71036, Note_off_c, 1, 28, 0
2, 71232, Note_on_c, 1, 28, 107
2, 71616, Note_off_c, 1, 28, 0
2, 71616, Note_on_c, 1, 28, 107
2, 71760, Note_off_c, 1, 28, 0
2, 71808, Note_on_c, 1, 30, 107
2, 71952, Note_off_c, 1, 30, 0
2, 72000, Note_on_c, 1, 32, 107
2, 72144, Note_off_c, 1, 32, 0
2, 72192, Note_on_c, 1, 33, 107
2, 72576, Note_off_c, 1, 33, 0
2, 72768, Note_on_c, 1, 33, 107
2, 73152, Note_off_c, 1, 33, 0
2, 73152, Note_on_c, 1, 33, 107
2, 73296, Note_off_c, 1, 33, 0
2, 73344, Note_on_c, 1, 32, 107
2, 73488, Note_off_c, 1, 32, 0
2, 73536, Note_on_c, 1, 30, 107
2, 73680, Note_off_c, 1, 30, 0
2, 73728, Note_on_c, 1, 28, 107
2, 74108, Note_off_c, 1, 28, 0
2, 74304, Note_on_c, 1, 28, 107
2, 74688, Note_off_c, 1, 28, 0
2, 74688, Note_on_c, 1, 28, 107
2, 74832, Note_off_c, 1, 28, 0
2, 74880, Note_on_c, 1, 30, 107
2, 75024, Note_off_c, 1, 30, 0
2, 75072, Note_on_c, 1, 32, 107
2, 75216, Note_off_c, 1, 32, 0
2, 75264, Note_on_c, 1, 33, 107
2, 75648, Note_off_c, 1, 33, 0
2, 75840, Note_on_c, 1, 33, 107
2, 76224, Note_off_c, 1, 33, 0
2, 76224, Note_on_c, 1, 33, 107
2, 76368, Note_off_c, 1, 33, 0
2, 76416, Note_on_c, 1, 32, 107
2, 76560, Note_off_c, 1, 32, 0
2, 76608, Note_on_c, 1, 30, 107
2, 76752, Note_off_c, 1, 30, 0
2, 76800, Note_on_c, 1, 28, 107
2, 77180, Note_off_c, 1, 28, 0
2, 77376, Note_on_c, 1, 28, 107
2, 77760, Note_off_c, 1, 28, 0
2, 77760, Note_on_c, 1, 28, 107
2, 77904, Note_off_c, 1, 28, 0
2, 77952, Note_on_c, 1, 30, 107
2, 78096, Note_off_c, 1, 30, 0
2, 78144, Note_on_c, 1, 32, 107
2, 78288, Note_off_c, 1, 32, 0
2, 78336, Note_on_c, 1, 33, 107
2, 78720, Note_off_c, 1, 33, 0
2, 78912, Note_on_c, 1, 33, 107
2, 79296, Note_off_c, 1, 33, 0
2, 79296, Note_on_c, 1, 33, 107
2, 79440, Note_off_c, 1, 33, 0
2, 79488, Note_on_c, 1, 32, 107
2, 79632, Note_off_c, 1, 32, 0
2, 79680, Note_on_c, 1, 30, 107
2, 79824, Note_off_c, 1, 30, 0
2, 79872, Note_on_c, 1, 28, 107
2, 80252, Note_off_c, 1, 28, 0
2, 80448, Note_on_c, 1, 28, 107
2, 80832, Note_off_c, 1, 28, 0
2, 80832, Note_on_c, 1, 28, 107
2, 80976, Note_off_c, 1, 28, 0
2, 81024, Note_on_c, 1, 30, 107
2, 81168, Note_off_c, 1, 30, 0
2, 81216, Note_on_c, 1, 32, 107
2, 81360, Note_off_c, 1, 32, 0
2, 81408, Note_on_c, 1, 33, 107
2, 81792, Note_off_c, 1, 33, 0
2, 81984, Note_on_c, 1, 33, 107
2, 82368, Note_off_c, 1, 33, 0
2, 82368, Note_on_c, 1, 33, 107
2, 82512, Note_off_c, 1, 33, 0
2, 82560, Note_on_c, 1, 32, 107
2, 82704, Note_off_c, 1, 32, 0
2, 82752, Note_on_c, 1, 30, 107
2, 82896, Note_off_c, 1, 30, 0
2, 82944, Note_on_c, 1, 28, 107
2, 83324, Note_off_c, 1, 28, 0
2, 83520, Note_on_c, 1, 28, 107
2, 83904, Note_off_c, 1, 28, 0
2, 83904, Note_on_c, 1, 28, 107
2, 84048, Note_off_c, 1, 28, 0
2, 84096, Note_on_c, 1, 30, 107
2, 84240, Note_off_c, 1, 30, 0
2, 84288, Note_on_c, 1, 32, 107
2, 84432, Note_off_c, 1, 32, 0
2, 84480, Note_on_c, 1, 33, 107
2, 84864, Note_off_c, 1, 33, 0
2, 85056, Note_on_c, 1, 33, 107
2, 85440, Note_off_c, 1, 33, 0
2, 85440, Note_on_c, 1, 33, 107
2, 85584, Note_off_c, 1, 33, 0
2, 85632, Note_on_c, 1, 32, 107
2, 85776, Note_off_c, 1, 32, 0
2, 85824, Note_on_c, 1, 30, 107
2, 85968, Note_off_c, 1, 30, 0
2, 86016, Note_on_c, 1, 28, 107
2, 86396, Note_off_c, 1, 28, 0
2, 86592, Note_on_c, 1, 28, 107
2, 86976, Note_off_c, 1, 28, 0
2, 86976, Note_on_c, 1, 28, 107
2, 87120, Note_off_c, 1, 28, 0
2, 87168, Note_on_c, 1, 30, 107
2, 87312, Note_off_c, 1, 30, 0
2, 87360, Note_on_c, 1, 32, 107
2, 87504, Note_off_c, 1, 32, 0
2, 87552, Note_on_c, 1, 33, 107
2, 87936, Note_off_c, 1, 33, 0
2, 88128, Note_on_c, 1, 33, 107
2, 88512, Note_off_c, 1, 33, 0
2, 88512, Note_on_c, 1, 33, 107
2, 88656, Note_off_c, 1, 33, 0
2, 88704, Note_on_c, 1, 32, 107
2, 88848, Note_off_c, 1, 32, 0
2, 88896, Note_on_c, 1, 30, 107
2, 89040, Note_off_c, 1, 30, 0
2, 89088, Note_on_c, 1, 28, 107
2, 89468, Note_off_c, 1, 28, 0
2, 89664, Note_on_c, 1, 28, 107
2, 90048, Note_off_c, 1, 28, 0
2, 90048, Note_on_c, 1, 28, 107
2, 90192, Note_off_c, 1, 28, 0
2, 90240, Note_on_c, 1, 30, 107
2, 90384, Note_off_c, 1, 30, 0
2, 90432, Note_on_c, 1, 32, 107
2, 90576, Note_off_c, 1, 32, 0
2, 90624, Note_on_c, 1, 33, 107
2, 91008, Note_off_c, 1, 33, 0
2, 91200, Note_on_c, 1, 33, 107
2, 91584, Note_off_c, 1, 33, 0
2, 91584, Note_on_c, 1, 33, 107
2, 91728, Note_off_c, 1, 33, 0
2, 91776, Note_on_c, 1, 32, 107
2, 91920, Note_off_c, 1, 32, 0
2, 91968, Note_on_c, 1, 30, 107
2, 92112, Note_off_c, 1, 30, 0
2, 92160, Note_on_c, 1, 28, 107
2, 92540, Note_off_c, 1, 28, 0
2, 92736, Note_on_c, 1, 28, 107
2, 93120, Note_off_c, 1, 28, 0
2, 93120, Note_on_c, 1, 28, 107
2, 93264, Note_off_c, 1, 28, 0
2, 93312, Note_on_c, 1, 30, 107
2, 93456, Note_off_c, 1, 30, 0
2, 93504, Note_on_c, 1, 32, 107
2, 93648, Note_off_c, 1, 32, 0
2, 93696, Note_on_c, 1, 33, 107
2, 94080, Note_off_c, 1, 33, 0
2, 94272, Note_on_c, 1, 33, 107
2, 94656, Note_off_c, 1, 33, 0
2, 94656, Note_on_c, 1, 33, 107
2, 94800, Note_off_c, 1, 33, 0
2, 94848, Note_on_c, 1, 32, 107
2, 94992, Note_off_c, 1, 32, 0
2, 95040, Note_on_c, 1, 30, 107
2, 95184, Note_off_c, 1, 30, 0
2, 95232, Note_on_c, 1, 28, 107
2, 95612, Note_off_c, 1, 28, 0
2, 95808, Note_on_c, 1, 28, 107
2, 96192, Note_off_c, 1, 28, 0
2, 96192, Note_on_c, 1, 28, 107
2, 96336, Note_off_c, 1, 28, 0
2, 96384, Note_on_c, 1, 30, 107
2, 96528, Note_off_c, 1, 30, 0
2, 96576, Note_on_c, 1, 32, 107
2, 96720, Note_off_c, 1, 32, 0
2, 96768, Note_on_c, 1, 33, 107
2, 97152, Note_off_c, 1, 33, 0
2, 97344, Note_on_c, 1, 33, 107
2, 97728, Note_off_c, 1, 33, 0
2, 97728, Note_on_c, 1, 33, 107
2, 97872, Note_off_c, 1, 33, 0
2, 97920, Note_on_c, 1, 32, 107
2, 98064, Note_off_c, 1, 32, 0
2, 98112, Note_on_c, 1, 30, 107
2, 98256, Note_off_c, 1, 30, 0
2, 98304, Note_on_c, 1, 28, 107
2, 98684, Note_off_c, 1, 28, 0
2, 98880, Note_on_c, 1, 28, 107
2, 99264, Note_off_c, 1, 28, 0
2, 99264, Note_on_c, 1, 28, 107
2, 99408, Note_off_c, 1, 28, 0
2, 99456, Note_on_c, 1, 30, 107
2, 99600, Note_off_c, 1, 30, 0
2, 99648, Note_on_c, 1, 32, 107
2, 99792, Note_off_c, 1, 32, 0
2, 99840, Note_on_c, 1, 33, 107
2, 100224, Note_off_c, 1, 33, 0
2, 100416, Note_on_c, 1, 33, 107
2, 100800, Note_off_c, 1, 33, 0
2, 100800, Note_on_c, 1, 33, 107
2, 100944, Note_off_c, 1, 33, 0
2, 100992, Note_on_c, 1, 32, 107
2, 101136, Note_off_c, 1, 32, 0
2, 101184, Note_on_c, 1, 30, 107
2, 101328, Note_off_c, 1, 30, 0
2, 101376, Note_on_c, 1, 28, 107
2, 101756, Note_off_c, 1, 28, 0
2, 101952, Note_on_c, 1, 28, 107
2, 102336, Note_off_c, 1, 28, 0
2, 102336, Note_on_c, 1, 28, 107
2, 102480, Note_off_c, 1, 28, 0
2, 102528, Note_on_c, 1, 30, 107
2, 102672, Note_off_c, 1, 30, 0
2, 102720, Note_on_c, 1, 32, 107
2, 102864, Note_off_c, 1, 32, 0
2, 102912, Note_on_c, 1, 33, 107
2, 103296, Note_off_c, 1, 33, 0
2, 103488, Note_on_c, 1, 33, 107
2, 103872, Note_off_c, 1, 33, 0
2, 103872, Note_on_c, 1, 33, 107
2, 104016, Note_off_c, 1, 33, 0
2, 104064, Note_on_c, 1, 32, 107
2, 104208, Note_off_c, 1, 32, 0
2, 104256, Note_on_c, 1, 30, 107
2, 104400, Note_off_c, 1, 30, 0
2, 104448, Note_on_c, 1, 28, 107
2, 104828, Note_off_c, 1, 28, 0
2, 105024, Note_on_c, 1, 28, 107
2, 105408, Note_off_c, 1, 28, 0
2, 105408, Note_on_c, 1, 28, 107
2, 105552, Note_off_c, 1, 28, 0
2, 105600, Note_on_c, 1, 30, 107
2, 105744, Note_off_c, 1, 30, 0
2, 105792, Note_on_c, 1, 32, 107
2, 105936, Note_off_c, 1, 32, 0
2, 105984, Note_on_c, 1, 33, 107
2, 106368, Note_off_c, 1, 33, 0
2, 106560, Note_on_c, 1, 33, 107
2, 106944, Note_off_c, 1, 33, 0
2, 106944, Note_on_c, 1, 33, 107
2, 107088, Note_off_c, 1, 33, 0
2, 107136, Note_on_c, 1, 32, 107
2, 107280, Note_off_c, 1, 32, 0
2, 107328, Note_on_c, 1, 30, 107
2, 107472, Note_off_c, 1, 30, 0
2, 107520, Note_on_c, 1, 28, 107
2, 107900, Note_off_c, 1, 28, 0
2, 108096, Note_on_c, 1, 28, 107
2, 108480, Note_off_c, 1, 28, 0
2, 108480, Note_on_c, 1, 28, 107
2, 108624, Note_off_c, 1, 28, 0
2, 108672, Note_on_c, 1, 30, 107
2, 108816, Note_off_c, 1, 30, 0
2, 108864, Note_on_c, 1, 32, 107
2, 109008, Note_off_c, 1, 32, 0
2, 109056, Note_on_c, 1, 33, 107
2, 109440, Note_off_c, 1, 33, 0
2, 109632, Note_on_c, 1, 33, 107
2, 110016, Note_off_c, 1, 33, 0
2, 110016, Note_on_c, 1, 33, 107
2, 110160, Note_off_c, 1, 33, 0
2, 110208, Note_on_c, 1, 32, 107
2, 110352, Note_off_c, 1, 32, 0
2, 110400, Note_on_c, 1, 30, 107
2, 110544, Note_off_c, 1, 30, 0
2, 110592, Note_on_c, 1, 28, 107
2, 110972, Note_off_c, 1, 28, 0
2, 111168, Note_on_c, 1, 28, 107
2, 111552, Note_off_c, 1, 28, 0
2, 111552, Note_on_c, 1, 28, 107
2, 111696, Note_off_c, 1, 28, 0
2, 111744, Note_on_c, 1, 30, 107
2, 111888, Note_off_c, 1, 30, 0
2, 111936, Note_on_c, 1, 32, 107
2, 112080, Note_off_c, 1, 32, 0
2, 112128, Note_on_c, 1, 33, 107
2, 112512, Note_off_c, 1, 33, 0
2, 112704, Note_on_c, 1, 33, 107
2, 113088, Note_off_c, 1, 33, 0
2, 113088, Note_on_c, 1, 33, 107
2, 113232, Note_off_c, 1, 33, 0
2, 113280, Note_on_c, 1, 32, 107
2, 113424, Note_off_c, 1, 32, 0
2, 113472, Note_on_c, 1, 30, 107
2, 113616, Note_off_c, 1, 30, 0
2, 113664, Note_on_c, 1, 28, 107
2, 114044, Note_off_c, 1, 28, 0
2, 114240, Note_on_c, 1, 28, 107
2, 114624, Note_off_c, 1, 28, 0
2, 114624, Note_on_c, 1, 28, 107
2, 114768, Note_off_c, 1, 28, 0
2, 114816, Note_on_c, 1, 30, 107
2, 114960, Note_off_c, 1, 30, 0
2, 115008, Note_on_c, 1, 32, 107
2, 115152, Note_off_c, 1, 32, 0
2, 115200, Note_on_c, 1, 33, 107
2, 115584, Note_off_c, 1, 33, 0
2, 115776, Note_on_c, 1, 33, 107
2, 116160, Note_off_c, 1, 33, 0
2, 116160, Note_on_c, 1, 33, 107
2, 116304, Note_off_c, 1, 33, 0
2, 116352, Note_on_c, 1, 32, 107
2, 116496, Note_off_c, 1, 32, 0
2, 116544, Note_on_c, 1, 30, 107
2, 116688, Note_off_c, 1, 30, 0
2, 116736, Note_on_c, 1, 28, 107
2, 117116, Note_off_c, 1, 28, 0
2, 117312, Note_on_c, 1, 28, 107
2, 117696, Note_off_c, 1, 28, 0
2, 117696, Note_on_c, 1, 28, 107
2, 117840, Note_off_c, 1, 28, 0
2, 117888, Note_on_c, 1, 30, 107
2, 118032, Note_off_c, 1, 30, 0
2, 118080, Note_on_c, 1, 32, 107
2, 118224, Note_off_c, 1, 32, 0
2, 118272, Note_on_c, 1, 33, 107
2, 118656, Note_off_c, 1, 33, 0
2, 118848, Note_on_c, 1, 33, 107
2, 119232, Note_off_c, 1, 33, 0
2, 119232, Note_on_c, 1, 33, 107
2, 119376, Note_off_c, 1, 33, 0
2, 119424, Note_on_c, 1, 32, 107
2, 119568, Note_off_c, 1, 32, 0
2, 119616, Note_on_c, 1, 30, 107
2, 119760, Note_off_c, 1, 30, 0
2, 119808, Note_on_c, 1, 28, 107
2, 120188, Note_off_c, 1, 28, 0
2, 120384, Note_on_c, 1, 28, 107
2, 120768, Note_off_c, 1, 28, 0
2, 120768, Note_on_c, 1, 28, 107
2, 120912, Note_off_c, 1, 28, 0
2, 120960, Note_on_c, 1, 30, 107
2, 121104, Note_off_c, 1, 30, 0
2, 121152, Note_on_c, 1, 32, 107
2, 121296, Note_off_c, 1, 32, 0
2, 121344, Note_on_c, 1, 33, 107
2, 121728, Note_off_c, 1, 33, 0
2, 121920, Note_on_c, 1, 33, 107
2, 122304, Note_off_c, 1, 33, 0
2, 122304, Note_on_c, 1, 33, 107
2, 122448, Note_off_c, 1, 33, 0
2, 122496, Note_on_c, 1, 32, 107
2, 122640, Note_off_c, 1, 32, 0
2, 122688, Note_on_c, 1, 30, 107
2, 122832, Note_off_c, 1, 30, 0
2, 122880, Note_on_c, 1, 28, 107
2, 123260, Note_off_c, 1, 28, 0
2, 123456, Note_on_c, 1, 28, 107
2, 123840, Note_off_c, 1, 28, 0
2, 123840, Note_on_c, 1, 28, 107
2, 123984, Note_off_c, 1, 28, 0
2, 124032, Note_on_c, 1, 30, 107
2, 124176, Note_off_c, 1, 30, 0
2, 124224, Note_on_c, 1, 32, 107
2, 124368, Note_off_c, 1, 32, 0
2, 124416, Note_on_c, 1, 33, 107
2, 124800, Note_off_c, 1, 33, 0
2, 124992, Note_on_c, 1, 33, 107
2, 125376, Note_off_c, 1, 33, 0
2, 125376, Note_on_c, 1, 33, 107
2, 125520, Note_off_c, 1, 33, 0
2, 125568, Note_on_c, 1, 32, 107
2, 125712, Note_off_c, 1, 32, 0
2, 125760, Note_on_c, 1, 30, 107
2, 125904, Note_off_c, 1, 30, 0
2, 125952, Note_on_c, 1, 28, 107
2, 126332, Note_off_c, 1, 28, 0
2, 126528, Note_on_c, 1, 28, 107
2, 126912, Note_off_c, 1, 28, 0
2, 126912, Note_on_c, 1, 28, 107
2, 127056, Note_off_c, 1, 28, 0
2, 127104, Note_on_c, 1, 30, 107
2, 127248, Note_off_c, 1, 30, 0
2, 127296, Note_on_c, 1, 32, 107
2, 127440, Note_off_c, 1, 32, 0
2, 127488, Note_on_c, 1, 33, 107
2, 127872, Note_off_c, 1, 33, 0
2, 128064, Note_on_c, 1, 33, 107
2, 128448, Note_off_c, 1, 33, 0
2, 128448, Note_on_c, 1, 33, 107
2, 128592, Note_off_c, 1, 33, 0
2, 128640, Note_on_c, 1, 32, 107
2, 128784, Note_off_c, 1, 32, 0
2, 128832, Note_on_c, 1, 30, 107
2, 128976, Note_off_c, 1, 30, 0
2, 129024, Note_on_c, 1, 28, 107
2, 129404, Note_off_c, 1, 28, 0
2, 129600, Note_on_c, 1, 28, 107
2, 129984, Note_off_c, 1, 28, 0
2, 129984, Note_on_c, 1, 28, 107
2, 130128, Note_off_c, 1, 28, 0
2, 130176, Note_on_c, 1, 30, 107
2, 130320, Note_off_c, 1, 30, 0
2, 130368, Note_on_c, 1, 32, 107
2, 130512, Note_off_c, 1, 32, 0
2, 130560, Note_on_c, 1, 33, 107
2, 130944, Note_off_c, 1, 33, 0
2, 131136, Note_on_c, 1, 33, 107
2, 131520, Note_off_c, 1, 33, 0
2, 131520, Note_on_c, 1, 33, 107
2, 131664, Note_off_c, 1, 33, 0
2, 131712, Note_on_c, 1, 32, 107
2, 131856, Note_off_c, 1, 32, 0
2, 131904, Note_on_c, 1, 30, 107
2, 132048, Note_off_c, 1, 30, 0
2, 132096, Note_on_c, 1, 28, 107
2, 132476, Note_off_c, 1, 28, 0
2, 132672, Note_on_c, 1, 28, 107
2, 133056, Note_off_c, 1, 28, 0
2, 133056, Note_on_c, 1, 28, 107
2, 133200, Note_off_c, 1, 28, 0
2, 133248, Note_on_c, 1, 30, 107
2, 133392, Note_off_c, 1, 30, 0
2, 133440, Note_on_c, 1, 32, 107
2, 133584, Note_off_c, 1, 32, 0
2, 133632, Note_on_c, 1, 33, 107
2, 134016, Note_off_c, 1, 33, 0
2, 134208, Note_on_c, 1, 33, 107
2, 134592, Note_off_c, 1, 33, 0
2, 134592, Note_on_c, 1, 33, 107
2, 134736, Note_off_c, 1, 33, 0
2, 134784, Note_on_c, 1, 32, 107
2, 134928, Note_off_c, 1, 32, 0
2, 134976, Note_on_c, 1, 30, 107
2, 135120, Note_off_c, 1, 30, 0
2, 135168, Note_on_c, 1, 28, 107
2, 135548, Note_off_c, 1, 28, 0
2, 135744, Note_on_c, 1, 28, 107
2, 136128, Note_off_c, 1, 28, 0
2, 136128, Note_on_c, 1, 28, 107
2, 136272, Note_off_c, 1, 28, 0
2, 136320, Note_on_c, 1, 30, 107
2, 136464, Note_off_c, 1, 30, 0
2, 136512, Note_on_c, 1, 32, 107
2, 136656, Note_off_c, 1, 32, 0
2, 136704, Note_on_c, 1, 33, 107
2, 137088, Note_off_c, 1, 33, 0
2, 137280, Note_on_c, 1, 33, 107
2, 137664, Note_off_c, 1, 33, 0
2, 137664, Note_on_c, 1, 33, 107
2, 137808, Note_off_c, 1, 33, 0
2, 137856, Note_on_c, 1, 32, 107
2, 138000, Note_off_c, 1, 32, 0
2, 138048, Note_on_c, 1, 30, 107
2, 138192, Note_off_c, 1, 30, 0
2, 138240, Note_on_c, 1, 28, 107
2, 138620, Note_off_c, 1, 28, 0
2, 138816, Note_on_c, 1, 28, 107
2, 139200, Note_off_c, 1, 28, 0
2, 139200, Note_on_c, 1, 28, 107
2, 139344, Note_off_c, 1, 28, 0
2, 139392, Note_on_c, 1, 30, 107
2, 139536, Note_off_c, 1, 30, 0
2, 139584, Note_on_c, 1, 32, 107
2, 139728, Note_off_c, 1, 32, 0
2, 139776, Note_on_c, 1, 33, 107
2, 140160, Note_off_c, 1, 33, 0
2, 140352, Note_on_c, 1, 33, 107
2, 140736, Note_off_c, 1, 33, 0
2, 140736, Note_on_c, 1, 33, 107
2, 140880, Note_off_c, 1, 33, 0
2, 140928, Note_on_c, 1, 32, 107
2, 141072, Note_off_c, 1, 32, 0
2, 141120, Note_on_c, 1, 30, 107
2, 141264, Note_off_c, 1, 30, 0
2, 141312, Note_on_c, 1, 28, 107
2, 141692, Note_off_c, 1, 28, 0
2, 141888, Note_on_c, 1, 28, 107
2, 142272, Note_off_c, 1, 28, 0
2, 142272, Note_on_c, 1, 28, 107
2, 142416, Note_off_c, 1, 28, 0
2, 142464, Note_on_c, 1, 30, 107
2, 142608, Note_off_c, 1, 30, 0
2, 142656, Note_on_c, 1, 32, 107
2, 142800, Note_off_c, 1, 32, 0
2, 142848, Note_on_c, 1, 33, 107
2, 143232, Note_off_c, 1, 33, 0
2, 143424, Note_on_c, 1, 33, 107
2, 143808, Note_off_c, 1, 33, 0
2, 143808, Note_on_c, 1, 33, 107
2, 143952, Note_off_c, 1, 33, 0
2, 144000, Note_on_c, 1, 32, 107
2, 144144, Note_off_c, 1, 32, 0
2, 144192, Note_on_c, 1, 30, 107
2, 144336, Note_off_c, 1, 30, 0
2, 144384, Note_on_c, 1, 28, 107
2, 144764, Note_off_c, 1, 28, 0
2, 144960, Note_on_c, 1, 28, 107
2, 145344, Note_off_c, 1, 28, 0
2, 145344, Note_on_c, 1, 28, 107
2, 145488, Note_off_c, 1, 28, 0
2, 145536, Note_on_c, 1, 30, 107
2, 145680, Note_off_c, 1, 30, 0
2, 145728, Note_on_c, 1, 32, 107
2, 145872, Note_off_c, 1, 32, 0
2, 145920, Note_on_c, 1, 33, 107
2, 146304, Note_off_c, 1, 33, 0
2, 146496, Note_on_c, 1, 33, 107
2, 146880, Note_off_c, 1, 33, 0
2, 146880, Note_on_c, 1, 33, 107
2, 147024, Note_off_c, 1, 33, 0
2, 147072, Note_on_c, 1, 32, 107
2, 147216, Note_off_c, 1, 32, 0
2, 147264, Note_on_c, 1, 30, 107
2, 147408, Note_off_c, 1, 30, 0
2, 147456, Note_on_c, 1, 28, 107
2, 147836, Note_off_c, 1, 28, 0
2, 148032, Note_on_c, 1, 28, 107
2, 148416, Note_off_c, 1, 28, 0
2, 148416, Note_on_c, 1, 28, 107
2, 148560, Note_off_c, 1, 28, 0
2, 148608, Note_on_c, 1, 30, 107
2, 148752, Note_off_c, 1, 30, 0
2, 148800, Note_on_c, 1, 32, 107
2, 148944, Note_off_c, 1, 32, 0
2, 148992, Note_on_c, 1, 33, 107
2, 149376, Note_off_c, 1, 33, 0
2, 149568, Note_on_c, 1, 33, 107
2, 149952, Note_off_c, 1, 33, 0
2, 149952, Note_on_c, 1, 33, 107
2, 150096, Note_off_c, 1, 33, 0
2, 150144, Note_on_c, 1, 32, 107
2, 150288, Note_off_c, 1, 32, 0
2, 150336, Note_on_c, 1, 30, 107
2, 150480, Note_off_c, 1, 30, 0
2, 150528, Note_on_c, 1, 28, 107
2, 152064, Note_off_c, 1, 28, 0
2, 152064, Note_on_c, 1, 35, 107
2, 152256, Note_off_c, 1, 35, 0
2, 152352, Note_on_c, 1, 35, 107
2, 152544, Note_off_c, 1, 35, 0
2, 152640, Note_on_c, 1, 33, 107
2, 153408, Note_off_c, 1, 33, 0
2, 153600, Note_on_c, 1, 28, 107
2, 154368, Note_off_c, 1, 28, 0
2, 154368, Note_on_c, 1, 35, 107
2, 155040, Note_off_c, 1, 35, 0
2, 155136, Note_on_c, 1, 33, 107
2, 155904, Note_off_c, 1, 33, 0
2, 155904, Note_on_c, 1, 28, 107
2, 156672, Note_off_c, 1, 28, 0
2, 156672, Note_on_c, 1, 28, 107
2, 157440, Note_off_c, 1, 28, 0
2, 157440, Note_on_c, 1, 35, 107
2, 158112, Note_off_c, 1, 35, 0
2, 158208, Note_on_c, 1, 33, 107
2, 158880, Note_off_c, 1, 33, 0
2, 158880, Note_on_c, 1, 33, 107
2, 158976, Note_off_c, 1, 33, 0
2, 158976, Note_on_c, 1, 33, 107
2, 159744, Note_off_c, 1, 33, 0
2, 159744, Note_on_c, 1, 33, 107
2, 160512, Note_off_c, 1, 33, 0
2, 160512, Note_on_c, 1, 33, 104
2, 160608, Note_off_c, 1, 33, 0
2, 160608, Note_on_c, 1, 33, 107
2, 161280, Note_off_c, 1, 33, 0
2, 161280, Note_on_c, 1, 28, 107
2, 161472, Note_off_c, 1, 28, 0
2, 161568, Note_on_c, 1, 28, 107
2, 161664, Note_off_c, 1, 28, 0
2, 161856, Note_on_c, 1, 28, 107
2, 162336, Note_off_c, 1, 28, 0
2, 162432, Note_on_c, 1, 28, 107
2, 162624, Note_off_c, 1, 28, 0
2, 162624, Note_on_c, 1, 28, 107
2, 162816, Note_off_c, 1, 28, 0
2, 162816, Note_on_c, 1, 33, 107
2, 163104, Note_off_c, 1, 33, 0
2, 163104, Note_on_c, 1, 33, 107
2, 163200, Note_off_c, 1, 33, 0
2, 163392, Note_on_c, 1, 33, 107
2, 163872, Note_off_c, 1, 33, 0
2, 163968, Note_on_c, 1, 33, 107
2, 164160, Note_off_c, 1, 33, 0
2, 164160, Note_on_c, 1, 33, 95
2, 164256, Note_off_c, 1, 33, 0
2, 164256, Note_on_c, 1, 33, 106
2, 164352, Note_off_c, 1, 33, 0
2, 164352, Note_on_c, 1, 35, 107
2, 165024, Note_off_c, 1, 35, 0
2, 165120, Note_on_c, 1, 33, 107
2, 165792, Note_off_c, 1, 33, 0
2, 165888, Note_on_c, 1, 28, 107
2, 166656, Note_off_c, 1, 28, 0
2, 166656, Note_on_c, 1, 33, 107
2, 167424, Note_off_c, 1, 33, 0
2, 167424, Note_on_c, 1, 35, 107
2, 168192, Note_off_c, 1, 35, 0
2, 168192, Note_on_c, 1, 33, 107
2, 168960, Note_off_c, 1, 33, 0
2, 168960, Note_on_c, 1, 28, 107
2, 169728, Note_off_c, 1, 28, 0
2, 169728, Note_on_c, 1, 33, 107
2, 170496, Note_off_c, 1, 33, 0
2, 170496, Note_on_c, 1, 33, 107
2, 171264, Note_off_c, 1, 33, 0
2, 171264, Note_on_c, 1, 30, 107
2, 172800, Note_off_c, 1, 30, 0
2, 172800, Note_on_c, 1, 28, 107
2, 173568, Note_off_c, 1, 28, 0
2, 173568, Note_on_c, 1, 33, 107
2, 174336, Note_off_c, 1, 33, 0
2, 174336, Note_on_c, 1, 49, 107
2, 174528, Note_off_c, 1, 49, 0
2, 174528, Note_on_c, 1, 47, 107
2, 174720, Note_off_c, 1, 47, 0
2, 174720, Note_on_c, 1, 45, 107
2, 174912, Note_off_c, 1, 45, 0
2, 174912, Note_on_c, 1, 44, 107
2, 175776, Note_off_c, 1, 44, 0
2, 175872, Note_on_c, 1, 28, 107
2, 176640, Note_off_c, 1, 28, 0
2, 176640, Note_on_c, 1, 33, 107
2, 177408, Note_off_c, 1, 33, 0
2, 177408, Note_on_c, 1, 49, 107
2, 177600, Note_off_c, 1, 49, 0
2, 177600, Note_on_c, 1, 47, 107
2, 177792, Note_off_c, 1, 47, 0
2, 177792, Note_on_c, 1, 45, 107
2, 177984, Note_off_c, 1, 45, 0
2, 177984, Note_on_c, 1, 44, 107
2, 178848, Note_off_c, 1, 44, 0
2, 178944, Note_on_c, 1, 44, 107
2, 179328, Note_off_c, 1, 44, 0
2, 179328, Note_on_c, 1, 42, 107
2, 179520, Note_off_c, 1, 42, 0
2, 179520, Note_on_c, 1, 40, 107
2, 179712, Note_off_c, 1, 40, 0
2, 179712, Note_on_c, 1, 38, 107
2, 180480, Note_off_c, 1, 38, 0
2, 180480, Note_on_c, 1, 37, 107
2, 181248, Note_off_c, 1, 37, 0
2, 181248, Note_on_c, 1, 33, 107
2, 182016, Note_off_c, 1, 33, 0
2, 182016, Note_on_c, 1, 28, 107
2, 182204, Note_off_c, 1, 28, 0
2, 182208, Note_on_c, 1, 35, 104
2, 182400, Note_off_c, 1, 35, 0
2, 182400, Note_on_c, 1, 40, 107
2, 182592, Note_on_c, 1, 44, 107
2, 182758, Note_off_c, 1, 40, 0
2, 182784, Note_on_c, 1, 52, 107
2, 182832, Note_off_c, 1, 44, 0
2, 183548, Note_off_c, 1, 52, 0
2, 185088, Control_c, 1, 121, 0
2, 185184, Control_c, 1, 11, 127
2, 186624, End_track
3, 0, Start_track
3, 0, Title_t, "vocals"
3, 1536, Control_c, 3, 121, 0
3, 1538, Control_c, 3, 0, 0
3, 1540, Control_c, 3, 32, 0
3, 1542, Program_c, 3, 72
3, 1544, Control_c, 3, 11, 127
3, 1554, Control_c, 3, 7, 100
3, 1556, Control_c, 3, 91, 28
3, 1558, Control_c, 3, 93, 41
3, 1560, Control_c, 3, 10, 57
3, 13056, Note_on_c, 3, 68, 110
3, 13248, Note_off_c, 3, 68, 0
3, 13248, Note_on_c, 3, 71, 110
3, 13344, Note_off_c, 3, 71, 0
3, 13344, Note_on_c, 3, 71, 110
3, 13632, Note_on_c, 3, 71, 110
3, 13724, Note_off_c, 3, 71, 0
3, 13728, Note_off_c, 3, 71, 0
3, 13728, Note_on_c, 3, 73, 110
3, 13824, Note_off_c, 3, 73, 0
3, 13824, Note_on_c, 3, 71, 110
3, 14329, Note_off_c, 3, 71, 0
3, 14784, Note_on_c, 3, 73, 110
3, 14976, Note_off_c, 3, 73, 0
3, 14976, Note_on_c, 3, 71, 110
3, 15168, Note_off_c, 3, 71, 0
3, 15168, Note_on_c, 3, 71, 110
3, 15360, Note_off_c, 3, 71, 0
3, 15360, Note_on_c, 3, 64, 110
3, 15744, Note_off_c, 3, 64, 0
3, 16128, Note_on_c, 3, 68, 110
3, 16224, Note_off_c, 3, 68, 0
3, 16224, Note_on_c, 3, 71, 110
3, 16320, Note_off_c, 3, 71, 0
3, 16416, Note_on_c, 3, 71, 110
3, 16704, Note_on_c, 3, 71, 110
3, 16723, Note_off_c, 3, 71, 0
3, 16800, Note_on_c, 3, 73, 110
3, 16828, Note_off_c, 3, 71, 0
3, 16992, Note_on_c, 3, 71, 110
3, 17033, Note_off_c, 3, 73, 0
3, 17372, Note_off_c, 3, 71, 0
3, 17664, Note_on_c, 3, 73, 110
3, 17760, Note_off_c, 3, 73, 0
3, 17760, Note_on_c, 3, 76, 110
3, 17856, Note_off_c, 3, 76, 0
3, 17952, Note_on_c, 3, 76, 110
3, 18144, Note_off_c, 3, 76, 0
3, 18144, Note_on_c, 3, 73, 110
3, 18240, Note_off_c, 3, 73, 0
3, 18240, Note_on_c, 3, 76, 110
3, 18432, Note_off_c, 3, 76, 0
3, 18432, Note_on_c, 3, 73, 110
3, 18624, Note_off_c, 3, 73, 0
3, 18624, Note_on_c, 3, 71, 110
3, 19008, Note_off_c, 3, 71, 0
3, 19008, Note_on_c, 3, 71, 110
3, 19104, Note_off_c, 3, 71, 0
3, 19104, Note_on_c, 3, 66, 110
3, 19248, Note_off_c, 3, 66, 0
3, 19296, Note_on_c, 3, 64, 110
3, 19872, Note_off_c, 3, 64, 0
3, 19968, Note_on_c, 3, 71, 110
3, 20352, Note_off_c, 3, 71, 0
3, 20352, Note_on_c, 3, 64, 110
3, 20640, Note_off_c, 3, 64, 0
3, 23808, Note_on_c, 3, 68, 110
3, 24000, Note_off_c, 3, 68, 0
3, 24000, Note_on_c, 3, 71, 110
3, 24192, Note_off_c, 3, 71, 0
3, 24192, Note_on_c, 3, 71, 110
3, 24384, Note_off_c, 3, 71, 0
3, 24384, Note_on_c, 3, 71, 110
3, 24480, Note_off_c, 3, 71, 0
3, 24480, Note_on_c, 3, 73, 110
3, 24672, Note_off_c, 3, 73, 0
3, 24672, Note_on_c, 3, 71, 110
3, 24960, Note_off_c, 3, 71, 0
3, 24960, Note_on_c, 3, 68, 110
3, 25152, Note_off_c, 3, 68, 0
3, 25152, Note_on_c, 3, 71, 110
3, 25344, Note_off_c, 3, 71, 0
3, 25344, Note_on_c, 3, 73, 110
3, 25536, Note_off_c, 3, 73, 0
3, 25536, Note_on_c, 3, 76, 110
3, 25632, Note_off_c, 3, 76, 0
3, 25632, Note_on_c, 3, 73, 110
3, 25920, Note_off_c, 3, 73, 0
3, 25920, Note_on_c, 3, 71, 110
3, 26016, Note_off_c, 3, 71, 0
3, 26016, Note_on_c, 3, 68, 110
3, 26064, Note_on_c, 3, 66, 110
3, 26112, Note_off_c, 3, 66, 0
3, 26112, Note_off_c, 3, 68, 0
3, 26112, Note_on_c, 3, 64, 110
3, 26496, Note_off_c, 3, 64, 0
3, 26880, Note_on_c, 3, 68, 110
3, 27072, Note_off_c, 3, 68, 0
3, 27072, Note_on_c, 3, 71, 110
3, 27264, Note_off_c, 3, 71, 0
3, 27264, Note_on_c, 3, 71, 110
3, 27456, Note_off_c, 3, 71, 0
3, 27456, Note_on_c, 3, 71, 110
3, 27545, Note_off_c, 3, 71, 0
3, 27552, Note_on_c, 3, 73, 110
3, 27840, Note_off_c, 3, 73, 0
3, 27840, Note_on_c, 3, 71, 110
3, 28220, Note_off_c, 3, 71, 0
3, 28416, Note_on_c, 3, 73, 110
3, 28608, Note_off_c, 3, 73, 0
3, 28608, Note_on_c, 3, 76, 110
3, 28704, Note_off_c, 3, 76, 0
3, 28704, Note_on_c, 3, 76, 110
3, 28992, Note_off_c, 3, 76, 0
3, 28992, Note_on_c, 3, 76, 110
3, 29184, Note_off_c, 3, 76, 0
3, 29184, Note_on_c, 3, 73, 110
3, 29376, Note_off_c, 3, 73, 0
3, 29376, Note_on_c, 3, 71, 110
3, 29664, Note_off_c, 3, 71, 0
3, 29760, Note_on_c, 3, 71, 110
3, 29856, Note_off_c, 3, 71, 0
3, 29856, Note_on_c, 3, 68, 110
3, 29900, Note_off_c, 3, 68, 0
3, 29904, Note_on_c, 3, 66, 110
3, 29952, Note_off_c, 3, 66, 0
3, 29952, Note_on_c, 3, 64, 110
3, 30716, Note_off_c, 3, 64, 0
3, 34560, Note_on_c, 3, 71, 110
3, 34732, Note_off_c, 3, 71, 0
3, 34752, Note_on_c, 3, 71, 110
3, 35328, Note_off_c, 3, 71, 0
3, 35328, Note_on_c, 3, 73, 110
3, 35712, Note_off_c, 3, 73, 0
3, 35712, Note_on_c, 3, 71, 110
3, 35808, Note_off_c, 3, 71, 0
3, 35808, Note_on_c, 3, 69, 110
3, 36096, Note_off_c, 3, 69, 0
3, 36096, Note_on_c, 3, 73, 110
3, 36288, Note_off_c, 3, 73, 0
3, 36288, Note_on_c, 3, 71, 110
3, 36480, Note_off_c, 3, 71, 0
3, 36480, Note_on_c, 3, 73, 110
3, 36672, Note_off_c, 3, 73, 0
3, 36672, Note_on_c, 3, 71, 110
3, 36768, Note_off_c, 3, 71, 0
3, 36768, Note_on_c, 3, 64, 110
3, 37148, Note_off_c, 3, 64, 0
3, 37632, Note_on_c, 3, 71, 110
3, 37824, Note_off_c, 3, 71, 0
3, 37920, Note_on_c, 3, 71, 110
3, 38016, Note_off_c, 3, 71, 0
3, 38016, Note_on_c, 3, 71, 110
3, 38208, Note_off_c, 3, 71, 0
3, 38208, Note_on_c, 3, 71, 110
3, 38304, Note_off_c, 3, 71, 0
3, 38304, Note_on_c, 3, 73, 110
3, 38576, Note_off_c, 3, 73, 0
3, 38592, Note_on_c, 3, 76, 110
3, 38688, Note_off_c, 3, 76, 0
3, 38688, Note_on_c, 3, 73, 110
3, 38784, Note_off_c, 3, 73, 0
3, 38784, Note_on_c, 3, 71, 110
3, 38976, Note_off_c, 3, 71, 0
3, 38976, Note_on_c, 3, 71, 110
3, 39072, Note_off_c, 3, 71, 0
3, 39072, Note_on_c, 3, 71, 110
3, 39168, Note_off_c, 3, 71, 0
3, 39168, Note_on_c, 3, 73, 110
3, 39360, Note_off_c, 3, 73, 0
3, 39360, Note_on_c, 3, 71, 110
3, 39456, Note_off_c, 3, 71, 0
3, 39456, Note_on_c, 3, 73, 110
3, 39744, Note_off_c, 3, 73, 0
3, 39744, Note_on_c, 3, 71, 110
3, 39936, Note_off_c, 3, 71, 0
3, 39936, Note_on_c, 3, 68, 110
3, 39984, Note_off_c, 3, 68, 0
3, 39984, Note_on_c, 3, 66, 110
3, 40032, Note_off_c, 3, 66, 0
3, 40032, Note_on_c, 3, 64, 110
3, 40320, Note_off_c, 3, 64, 0
3, 40704, Note_on_c, 3, 73, 110
3, 40896, Note_off_c, 3, 73, 0
3, 40896, Note_on_c, 3, 71, 110
3, 40992, Note_off_c, 3, 71, 0
3, 40992, Note_on_c, 3, 66, 110
3, 41280, Note_off_c, 3, 66, 0
3, 41280, Note_on_c, 3, 64, 110
3, 41472, Note_off_c, 3, 64, 0
3, 41472, Note_on_c, 3, 71, 110
3, 42240, Note_off_c, 3, 71, 0
3, 42240, Note_on_c, 3, 68, 110
3, 42336, Note_off_c, 3, 68, 0
3, 42336, Note_on_c, 3, 66, 110
3, 42432, Note_off_c, 3, 66, 0
3, 42432, Note_on_c, 3, 64, 110
3, 42912, Note_off_c, 3, 64, 0
3, 153600, Note_on_c, 3, 68, 110
3, 153792, Note_off_c, 3, 68, 0
3, 153792, Note_on_c, 3, 71, 110
3, 153984, Note_off_c, 3, 71, 0
3, 153984, Note_on_c, 3, 71, 110
3, 154176, Note_off_c, 3, 71, 0
3, 154176, Note_on_c, 3, 71, 110
3, 154272, Note_off_c, 3, 71, 0
3, 154272, Note_on_c, 3, 73, 110
3, 154464, Note_off_c, 3, 73, 0
3, 154464, Note_on_c, 3, 71, 110
3, 154752, Note_off_c, 3, 71, 0
3, 154752, Note_on_c, 3, 68, 110
3, 154944, Note_off_c, 3, 68, 0
3, 154944, Note_on_c, 3, 71, 110
3, 155136, Note_off_c, 3, 71, 0
3, 155136, Note_on_c, 3, 73, 110
3, 155328, Note_off_c, 3, 73, 0
3, 155328, Note_on_c, 3, 76, 110
3, 155424, Note_off_c, 3, 76, 0
3, 155424, Note_on_c, 3, 73, 110
3, 155712, Note_off_c, 3, 73, 0
3, 155712, Note_on_c, 3, 71, 110
3, 155808, Note_off_c, 3, 71, 0
3, 155808, Note_on_c, 3, 68, 110
3, 155856, Note_on_c, 3, 66, 110
3, 155904, Note_off_c, 3, 66, 0
3, 155904, Note_off_c, 3, 68, 0
3, 155904, Note_on_c, 3, 64, 110
3, 156288, Note_off_c, 3, 64, 0
3, 156672, Note_on_c, 3, 68, 110
3, 156864, Note_off_c, 3, 68, 0
3, 156864, Note_on_c, 3, 71, 110
3, 157056, Note_off_c, 3, 71, 0
3, 157056, Note_on_c, 3, 71, 110
3, 157248, Note_off_c, 3, 71, 0
3, 157248, Note_on_c, 3, 71, 110
3, 157337, Note_off_c, 3, 71, 0
3, 157344, Note_on_c, 3, 73, 110
3, 157632, Note_off_c, 3, 73, 0
3, 157632, Note_on_c, 3, 71, 110
3, 158012, Note_off_c, 3, 71, 0
3, 158208, Note_on_c, 3, 73, 110
3, 158400, Note_off_c, 3, 73, 0
3, 158400, Note_on_c, 3, 76, 110
3, 158496, Note_off_c, 3, 76, 0
3, 158496, Note_on_c, 3, 76, 110
3, 158784, Note_off_c, 3, 76, 0
3, 158784, Note_on_c, 3, 76, 110
3, 158976, Note_off_c, 3, 76, 0
3, 158976, Note_on_c, 3, 73, 110
3, 159168, Note_off_c, 3, 73, 0
3, 159168, Note_on_c, 3, 71, 110
3, 159456, Note_off_c, 3, 71, 0
3, 159552, Note_on_c, 3, 71, 110
3, 159648, Note_off_c, 3, 71, 0
3, 159648, Note_on_c, 3, 68, 110
3, 159692, Note_off_c, 3, 68, 0
3, 159696, Note_on_c, 3, 66, 110
3, 159744, Note_off_c, 3, 66, 0
3, 159744, Note_on_c, 3, 64, 110
3, 160508, Note_off_c, 3, 64, 0
3, 164352, Note_on_c, 3, 71, 110
3, 164524, Note_off_c, 3, 71, 0
3, 164544, Note_on_c, 3, 71, 110
3, 165120, Note_off_c, 3, 71, 0
3, 165120, Note_on_c, 3, 73, 110
3, 165504, Note_off_c, 3, 73, 0
3, 165504, Note_on_c, 3, 71, 110
3, 165600, Note_off_c, 3, 71, 0
3, 165600, Note_on_c, 3, 69, 110
3, 165888, Note_off_c, 3, 69, 0
3, 165888, Note_on_c, 3, 73, 110
3, 166080, Note_off_c, 3, 73, 0
3, 166080, Note_on_c, 3, 71, 110
3, 166272, Note_off_c, 3, 71, 0
3, 166272, Note_on_c, 3, 73, 110
3, 166464, Note_off_c, 3, 73, 0
3, 166464, Note_on_c, 3, 71, 110
3, 166560, Note_off_c, 3, 71, 0
3, 166560, Note_on_c, 3, 64, 110
3, 166940, Note_off_c, 3, 64, 0
3, 167424, Note_on_c, 3, 71, 110
3, 167616, Note_off_c, 3, 71, 0
3, 167712, Note_on_c, 3, 71, 110
3, 167808, Note_off_c, 3, 71, 0
3, 167808, Note_on_c, 3, 71, 110
3, 168000, Note_off_c, 3, 71, 0
3, 168000, Note_on_c, 3, 71, 110
3, 168096, Note_off_c, 3, 71, 0
3, 168096, Note_on_c, 3, 73, 110
3, 168368, Note_off_c, 3, 73, 0
3, 168384, Note_on_c, 3, 76, 110
3, 168480, Note_off_c, 3, 76, 0
3, 168480, Note_on_c, 3, 73, 110
3, 168576, Note_off_c, 3, 73, 0
3, 168576, Note_on_c, 3, 71, 110
3, 168768, Note_off_c, 3, 71, 0
3, 168768, Note_on_c, 3, 71, 110
3, 168864, Note_off_c, 3, 71, 0
3, 168864, Note_on_c, 3, 71, 110
3, 168960, Note_off_c, 3, 71, 0
3, 168960, Note_on_c, 3, 73, 110
3, 169152, Note_off_c, 3, 73, 0
3, 169152, Note_on_c, 3, 71, 110
3, 169248, Note_off_c, 3, 71, 0
3, 169248, Note_on_c, 3, 73, 110
3, 169536, Note_off_c, 3, 73, 0
3, 169536, Note_on_c, 3, 71, 110
3, 169728, Note_off_c, 3, 71, 0
3, 169728, Note_on_c, 3, 68, 110
3, 169776, Note_off_c, 3, 68, 0
3, 169776, Note_on_c, 3, 66, 110
3, 169824, Note_off_c, 3, 66, 0
3, 169824, Note_on_c, 3, 64, 110
3, 170112, Note_off_c, 3, 64, 0
3, 170496, Note_on_c, 3, 73, 110
3, 170688, Note_off_c, 3, 73, 0
3, 170688, Note_on_c, 3, 71, 110
3, 170784, Note_off_c, 3, 71, 0
3, 170784, Note_on_c, 3, 66, 110
3, 171072, Note_off_c, 3, 66, 0
3, 171072, Note_on_c, 3, 64, 110
3, 171264, Note_off_c, 3, 64, 0
3, 171264, Note_on_c, 3, 71, 110
3, 172086, Note_on_c, 3, 68, 110
3, 172128, Note_off_c, 3, 71, 0
3, 172758, Note_off_c, 3, 68, 0
3, 172780, Note_on_c, 3, 64, 110
3, 173161, Note_off_c, 3, 64, 0
3, 185088, Control_c, 3, 121, 0
3, 185184, Control_c, 3, 11, 127
3, 186624, End_track
4, 0, Start_track
4, 0, Title_t, "Guitar 1"
4, 1536, Control_c, 4, 121, 0
4, 1538, Control_c, 4, 0, 0
4, 1540, Control_c, 4, 32, 0
4, 1542, Program_c, 4, 29
4, 1544, Control_c, 4, 11, 127
4, 1554, Control_c, 4, 7, 97
4, 1556, Control_c, 4, 91, 58
4, 1558, Control_c, 4, 93, 18
4, 1560, Control_c, 4, 10, 30
4, 3072, Note_on_c, 4, 52, 127
4, 3360, Note_off_c, 4, 52, 0
4, 3360, Note_on_c, 4, 54, 127
4, 3456, Note_off_c, 4, 54, 0
4, 3456, Note_on_c, 4, 56, 127
4, 3552, Note_off_c, 4, 56, 0
4, 3552, Note_on_c, 4, 59, 127
4, 3648, Note_off_c, 4, 59, 0
4, 3648, Note_on_c, 4, 61, 127
4, 3744, Note_off_c, 4, 61, 0
4, 3840, Note_on_c, 4, 64, 127
4, 4128, Note_off_c, 4, 64, 0
4, 4128, Note_on_c, 4, 66, 127
4, 4224, Note_off_c, 4, 66, 0
4, 4224, Note_on_c, 4, 68, 127
4, 4320, Note_off_c, 4, 68, 0
4, 4320, Note_on_c, 4, 71, 127
4, 4416, Note_off_c, 4, 71, 0
4, 4416, Note_on_c, 4, 73, 127
4, 4512, Note_off_c, 4, 73, 0
4, 4608, Note_on_c, 4, 76, 127
4, 4704, Note_off_c, 4, 76, 0
4, 4800, Note_on_c, 4, 73, 127
4, 4896, Note_off_c, 4, 73, 0
4, 4992, Note_on_c, 4, 66, 127
4, 5184, Note_off_c, 4, 66, 0
4, 5184, Note_on_c, 4, 64, 127
4, 5568, Note_off_c, 4, 64, 0
4, 5568, Note_on_c, 4, 64, 127
4, 5664, Note_off_c, 4, 64, 0
4, 5664, Note_on_c, 4, 64, 119
4, 5760, Note_off_c, 4, 64, 0
4, 5760, Note_on_c, 4, 66, 119
4, 5856, Note_off_c, 4, 66, 0
4, 5856, Note_on_c, 4, 64, 119
4, 5952, Note_off_c, 4, 64, 0
4, 5952, Note_on_c, 4, 61, 119
4, 6144, Note_off_c, 4, 61, 0
4, 6144, Note_on_c, 4, 52, 127
4, 6432, Note_off_c, 4, 52, 0
4, 6432, Note_on_c, 4, 54, 127
4, 6528, Note_off_c, 4, 54, 0
4, 6528, Note_on_c, 4, 56, 127
4, 6624, Note_off_c, 4, 56, 0
4, 6624, Note_on_c, 4, 59, 127
4, 6720, Note_off_c, 4, 59, 0
4, 6720, Note_on_c, 4, 61, 127
4, 6912, Note_off_c, 4, 61, 0
4, 6912, Note_on_c, 4, 64, 127
4, 7200, Note_off_c, 4, 64, 0
4, 7200, Note_on_c, 4, 66, 127
4, 7296, Note_off_c, 4, 66, 0
4, 7296, Note_on_c, 4, 68, 127
4, 7392, Note_off_c, 4, 68, 0
4, 7392, Note_on_c, 4, 71, 127
4, 7488, Note_off_c, 4, 71, 0
4, 7488, Note_on_c, 4, 73, 127
4, 7584, Note_off_c, 4, 73, 0
4, 7680, Note_on_c, 4, 76, 127
4, 7776, Note_off_c, 4, 76, 0
4, 7872, Note_on_c, 4, 73, 127
4, 7968, Note_off_c, 4, 73, 0
4, 8064, Note_on_c, 4, 66, 127
4, 8256, Note_off_c, 4, 66, 0
4, 8256, Note_on_c, 4, 64, 127
4, 8640, Note_off_c, 4, 64, 0
4, 9216, Note_on_c, 4, 62, 114
4, 9216, Note_on_c, 4, 66, 114
4, 9312, Note_off_c, 4, 66, 0
4, 9312, Note_off_c, 4, 62, 0
4, 9312, Note_on_c, 4, 64, 114
4, 9312, Note_on_c, 4, 68, 114
4, 9600, Note_off_c, 4, 68, 0
4, 9600, Note_off_c, 4, 64, 0
4, 9600, Note_on_c, 4, 62, 113
4, 9600, Note_on_c, 4, 66, 113
4, 9792, Note_off_c, 4, 66, 0
4, 9792, Note_off_c, 4, 62, 0
4, 9792, Note_on_c, 4, 61, 112
4, 9792, Note_on_c, 4, 64, 112
4, 9984, Note_off_c, 4, 64, 0
4, 9984, Note_off_c, 4, 61, 0
4, 9984, Note_on_c, 4, 66, 112
4, 9984, Note_on_c, 4, 62, 112
4, 10080, Note_off_c, 4, 66, 0
4, 10080, Note_on_c, 4, 66, 112
4, 10176, Note_off_c, 4, 66, 0
4, 10176, Note_off_c, 4, 62, 0
4, 10176, Note_on_c, 4, 69, 112
4, 10560, Note_off_c, 4, 69, 0
4, 10752, Note_on_c, 4, 61, 111
4, 10752, Note_on_c, 4, 64, 111
4, 10848, Note_on_c, 4, 64, 111
4, 10944, Note_off_c, 4, 64, 0
4, 10944, Note_off_c, 4, 64, 0
4, 10944, Note_off_c, 4, 61, 0
4, 10944, Note_on_c, 4, 69, 111
4, 11328, Note_off_c, 4, 69, 0
4, 11520, Note_on_c, 4, 52, 88
4, 11520, Note_on_c, 4, 59, 88
4, 11520, Note_on_c, 4, 64, 88
4, 11520, Note_on_c, 4, 68, 88
4, 13056, Note_off_c, 4, 68, 0
4, 13056, Note_off_c, 4, 64, 0
4, 13056, Note_off_c, 4, 59, 0
4, 13056, Note_off_c, 4, 52, 0
4, 14208, Note_on_c, 4, 71, 91
4, 14400, Note_off_c, 4, 71, 0
4, 14400, Note_on_c, 4, 71, 91
4, 15060, Note_off_c, 4, 71, 0
4, 16128, Note_on_c, 4, 71, 93
4, 16896, Note_off_c, 4, 71, 0
4, 17280, Note_on_c, 4, 71, 94
4, 17472, Note_off_c, 4, 71, 0
4, 20736, Note_on_c, 4, 69, 117
4, 20768, Pitch_bend_c, 4, 8512
4, 20771, Pitch_bend_c, 4, 9248
4, 20777, Pitch_bend_c, 4, 10400
4, 20784, Pitch_bend_c, 4, 12000
4, 20787, Pitch_bend_c, 4, 13728
4, 20793, Pitch_bend_c, 4, 15040
4, 20800, Pitch_bend_c, 4, 15904
4, 20803, Pitch_bend_c, 4, 16383
4, 21024, Note_off_c, 4, 69, 0
4, 21024, Note_on_c, 4, 69, 113
4, 21036, Pitch_bend_c, 4, 16128
4, 21043, Pitch_bend_c, 4, 15488
4, 21049, Pitch_bend_c, 4, 14272
4, 21052, Pitch_bend_c, 4, 12416
4, 21059, Pitch_bend_c, 4, 10592
4, 21062, Pitch_bend_c, 4, 9216
4, 21068, Pitch_bend_c, 4, 8384
4, 21075, Pitch_bend_c, 4, 8192
4, 21312, Note_off_c, 4, 69, 0
4, 21312, Note_on_c, 4, 68, 112
4, 21600, Note_off_c, 4, 68, 0
4, 21600, Note_on_c, 4, 66, 119
4, 21888, Note_off_c, 4, 66, 0
4, 21888, Note_on_c, 4, 64, 111
4, 22080, Note_off_c, 4, 64, 0
4, 22080, Note_on_c, 4, 61, 106
4, 22176, Note_off_c, 4, 61, 0
4, 22272, Note_on_c, 4, 59, 113
4, 22560, Note_off_c, 4, 59, 0
4, 22560, Note_on_c, 4, 59, 108
4, 22617, Pitch_bend_c, 4, 8448
4, 22620, Pitch_bend_c, 4, 9056
4, 22627, Pitch_bend_c, 4, 10016
4, 22633, Pitch_bend_c, 4, 11424
4, 22636, Pitch_bend_c, 4, 13088
4, 22643, Pitch_bend_c, 4, 14528
4, 22649, Pitch_bend_c, 4, 15584
4, 22652, Pitch_bend_c, 4, 16224
4, 22659, Pitch_bend_c, 4, 16383
4, 22668, Note_off_c, 4, 59, 0
4, 22736, Pitch_bend_c, 4, 16128
4, 22742, Pitch_bend_c, 4, 15456
4, 22748, Pitch_bend_c, 4, 14176
4, 22755, Pitch_bend_c, 4, 12128
4, 22758, Pitch_bend_c, 4, 10304
4, 22764, Pitch_bend_c, 4, 8928
4, 22768, Pitch_bend_c, 4, 8192
4, 22848, Note_on_c, 4, 57, 115
4, 23616, Note_off_c, 4, 57, 0
4, 23808, Note_on_c, 4, 66, 88
4, 23808, Note_on_c, 4, 57, 88
4, 23904, Note_off_c, 4, 57, 0
4, 23904, Note_off_c, 4, 66, 0
4, 23904, Note_on_c, 4, 68, 88
4, 23904, Note_on_c, 4, 59, 88
4, 24384, Note_off_c, 4, 59, 0
4, 24384, Note_off_c, 4, 68, 0
4, 24960, Note_on_c, 4, 71, 87
4, 25824, Note_off_c, 4, 71, 0
4, 26304, Note_on_c, 4, 56, 115
4, 26304, Note_on_c, 4, 64, 115
4, 26400, Note_off_c, 4, 64, 0
4, 26400, Note_off_c, 4, 56, 0
4, 26400, Note_on_c, 4, 64, 115
4, 26400, Note_on_c, 4, 56, 115
4, 26496, Note_off_c, 4, 56, 0
4, 26496, Note_off_c, 4, 64, 0
4, 26496, Note_on_c, 4, 54, 115
4, 26592, Note_off_c, 4, 54, 0
4, 26592, Note_on_c, 4, 52, 115
4, 26688, Note_off_c, 4, 52, 0
4, 26784, Note_on_c, 4, 56, 115
4, 26784, Note_on_c, 4, 64, 115
4, 26880, Note_off_c, 4, 64, 0
4, 26880, Note_off_c, 4, 56, 0
4, 26880, Note_on_c, 4, 71, 83
4, 27648, Note_off_c, 4, 71, 0
4, 28032, Note_on_c, 4, 71, 104
4, 28128, Note_off_c, 4, 71, 0
4, 28224, Note_on_c, 4, 71, 89
4, 29184, Note_off_c, 4, 71, 0
4, 31488, Note_on_c, 4, 52, 127
4, 31776, Note_off_c, 4, 52, 0
4, 31776, Note_on_c, 4, 54, 127
4, 32064, Note_off_c, 4, 54, 0
4, 32064, Note_on_c, 4, 56, 127
4, 32352, Note_off_c, 4, 56, 0
4, 32352, Note_on_c, 4, 57, 127
4, 32544, Note_off_c, 4, 57, 0
4, 32544, Note_on_c, 4, 56, 127
4, 32640, Note_off_c, 4, 56, 0
4, 32640, Note_on_c, 4, 59, 127
4, 32736, Note_off_c, 4, 59, 0
4, 32736, Note_on_c, 4, 61, 127
4, 32832, Note_off_c, 4, 61, 0
4, 32832, Note_on_c, 4, 64, 127
4, 33024, Note_off_c, 4, 64, 0
4, 33024, Note_on_c, 4, 68, 127
4, 33312, Note_off_c, 4, 68, 0
4, 33312, Note_on_c, 4, 69, 127
4, 33600, Note_off_c, 4, 69, 0
4, 33600, Note_on_c, 4, 71, 127
4, 33888, Note_off_c, 4, 71, 0
4, 33888, Note_on_c, 4, 73, 127
4, 34176, Note_off_c, 4, 73, 0
4, 34176, Note_on_c, 4, 71, 127
4, 34368, Note_off_c, 4, 71, 0
4, 34368, Note_on_c, 4, 68, 127
4, 34560, Note_off_c, 4, 68, 0
4, 34560, Note_on_c, 4, 66, 127
4, 35328, Note_off_c, 4, 66, 0
4, 35712, Note_on_c, 4, 71, 89
4, 35808, Note_off_c, 4, 71, 0
4, 35904, Note_on_c, 4, 71, 87
4, 36576, Note_off_c, 4, 71, 0
4, 37152, Note_on_c, 4, 71, 115
4, 37248, Note_off_c, 4, 71, 0
4, 37248, Note_on_c, 4, 68, 115
4, 37344, Note_off_c, 4, 68, 0
4, 37344, Note_on_c, 4, 66, 115
4, 37440, Note_off_c, 4, 66, 0
4, 37440, Note_on_c, 4, 64, 115
4, 37536, Note_off_c, 4, 64, 0
4, 37536, Note_on_c, 4, 76, 115
4, 37632, Note_off_c, 4, 76, 0
4, 37632, Note_on_c, 4, 68, 115
4, 37728, Note_off_c, 4, 68, 0
4, 37728, Note_on_c, 4, 66, 89
4, 38208, Note_off_c, 4, 66, 0
4, 38784, Note_on_c, 4, 71, 95
4, 38880, Note_off_c, 4, 71, 0
4, 38976, Note_on_c, 4, 71, 95
4, 39840, Note_off_c, 4, 71, 0
4, 40416, Note_on_c, 4, 71, 115
4, 40512, Note_off_c, 4, 71, 0
4, 40512, Note_on_c, 4, 71, 84
4, 41088, Note_off_c, 4, 71, 0
4, 43008, Note_on_c, 4, 66, 124
4, 43056, Pitch_bend_c, 4, 8256
4, 43059, Pitch_bend_c, 4, 8672
4, 43068, Pitch_bend_c, 4, 9344
4, 43072, Pitch_bend_c, 4, 10304
4, 43078, Pitch_bend_c, 4, 11456
4, 43081, Pitch_bend_c, 4, 12608
4, 43091, Pitch_bend_c, 4, 13792
4, 43091, Pitch_bend_c, 4, 14880
4, 43100, Pitch_bend_c, 4, 15680
4, 43104, Pitch_bend_c, 4, 16160
4, 43110, Pitch_bend_c, 4, 16383
4, 43289, Pitch_bend_c, 4, 16256
4, 43296, Pitch_bend_c, 4, 15872
4, 43299, Pitch_bend_c, 4, 15104
4, 43305, Pitch_bend_c, 4, 13984
4, 43312, Pitch_bend_c, 4, 12512
4, 43321, Pitch_bend_c, 4, 10944
4, 43321, Pitch_bend_c, 4, 9664
4, 43328, Pitch_bend_c, 4, 8768
4, 43328, Pitch_bend_c, 4, 8256
4, 43337, Pitch_bend_c, 4, 8192
4, 43392, Note_off_c, 4, 66, 0
4, 43392, Note_on_c, 4, 64, 111
4, 43488, Note_off_c, 4, 64, 0
4, 43584, Note_on_c, 4, 66, 127
4, 43619, Pitch_bend_c, 4, 8352
4, 43625, Pitch_bend_c, 4, 8800
4, 43628, Pitch_bend_c, 4, 9440
4, 43635, Pitch_bend_c, 4, 10304
4, 43641, Pitch_bend_c, 4, 11232
4, 43644, Pitch_bend_c, 4, 12128
4, 43651, Pitch_bend_c, 4, 13024
4, 43657, Pitch_bend_c, 4, 13952
4, 43660, Pitch_bend_c, 4, 14880
4, 43667, Pitch_bend_c, 4, 15584
4, 43670, Pitch_bend_c, 4, 16064
4, 43676, Pitch_bend_c, 4, 16320
4, 43680, Pitch_bend_c, 4, 16383
4, 43830, Pitch_bend_c, 4, 16160
4, 43836, Pitch_bend_c, 4, 15680
4, 43840, Pitch_bend_c, 4, 14912
4, 43846, Pitch_bend_c, 4, 13792
4, 43852, Pitch_bend_c, 4, 12608
4, 43856, Pitch_bend_c, 4, 11424
4, 43862, Pitch_bend_c, 4, 10368
4, 43868, Pitch_bend_c, 4, 9600
4, 43872, Note_off_c, 4, 66, 0
4, 43872, Note_on_c, 4, 66, 124
4, 43878, Pitch_bend_c, 4, 9152
4, 43884, Pitch_bend_c, 4, 9600
4, 43891, Pitch_bend_c, 4, 10432
4, 43897, Pitch_bend_c, 4, 11552
4, 43900, Pitch_bend_c, 4, 12864
4, 43904, Pitch_bend_c, 4, 14240
4, 43913, Pitch_bend_c, 4, 15296
4, 43916, Pitch_bend_c, 4, 16000
4, 43923, Pitch_bend_c, 4, 16383
4, 43980, Pitch_bend_c, 4, 16064
4, 43980, Pitch_bend_c, 4, 15488
4, 43987, Pitch_bend_c, 4, 14560
4, 43990, Pitch_bend_c, 4, 13280
4, 43996, Pitch_bend_c, 4, 11968
4, 44000, Pitch_bend_c, 4, 10560
4, 44006, Pitch_bend_c, 4, 9472
4, 44012, Pitch_bend_c, 4, 8704
4, 44019, Pitch_bend_c, 4, 8256
4, 44022, Pitch_bend_c, 4, 8192
4, 44064, Note_off_c, 4, 66, 0
4, 44064, Note_on_c, 4, 64, 113
4, 44160, Note_off_c, 4, 64, 0
4, 44160, Note_on_c, 4, 66, 124
4, 44256, Note_off_c, 4, 66, 0
4, 44256, Note_on_c, 4, 64, 111
4, 44352, Note_off_c, 4, 64, 0
4, 44352, Note_on_c, 4, 61, 115
4, 44448, Note_off_c, 4, 61, 0
4, 44448, Note_on_c, 4, 64, 100
4, 44544, Note_off_c, 4, 64, 0
4, 44544, Note_on_c, 4, 66, 127
4, 44832, Note_off_c, 4, 66, 0
4, 44832, Note_on_c, 4, 66, 127
4, 44931, Pitch_bend_c, 4, 8384
4, 44931, Pitch_bend_c, 4, 8928
4, 44940, Pitch_bend_c, 4, 9888
4, 44940, Pitch_bend_c, 4, 11232
4, 44950, Pitch_bend_c, 4, 12864
4, 44953, Pitch_bend_c, 4, 14336
4, 44960, Pitch_bend_c, 4, 15424
4, 44963, Pitch_bend_c, 4, 16128
4, 44972, Pitch_bend_c, 4, 16383
4, 45024, Note_off_c, 4, 66, 0
4, 45030, Pitch_bend_c, 4, 16256
4, 45033, Pitch_bend_c, 4, 15776
4, 45036, Pitch_bend_c, 4, 14784
4, 45046, Pitch_bend_c, 4, 13184
4, 45049, Pitch_bend_c, 4, 11232
4, 45056, Pitch_bend_c, 4, 9664
4, 45062, Pitch_bend_c, 4, 8640
4, 45065, Pitch_bend_c, 4, 8192
4, 45120, Note_on_c, 4, 64, 119
4, 45500, Note_off_c, 4, 64, 0
4, 45504, Note_on_c, 4, 64, 117
4, 45600, Note_off_c, 4, 64, 0
4, 45600, Note_on_c, 4, 64, 113
4, 45696, Note_off_c, 4, 64, 0
4, 45696, Note_on_c, 4, 69, 108
4, 45792, Note_off_c, 4, 69, 0
4, 45792, Note_on_c, 4, 68, 106
4, 45888, Note_off_c, 4, 68, 0
4, 45888, Note_on_c, 4, 66, 109
4, 45984, Note_off_c, 4, 66, 0
4, 45984, Note_on_c, 4, 64, 113
4, 46080, Note_off_c, 4, 64, 0
4, 46080, Note_on_c, 4, 66, 127
4, 46121, Pitch_bend_c, 4, 8480
4, 46128, Pitch_bend_c, 4, 9152
4, 46131, Pitch_bend_c, 4, 10272
4, 46137, Pitch_bend_c, 4, 11776
4, 46140, Pitch_bend_c, 4, 13440
4, 46150, Pitch_bend_c, 4, 14784
4, 46150, Pitch_bend_c, 4, 15744
4, 46160, Pitch_bend_c, 4, 16256
4, 46163, Pitch_bend_c, 4, 16383
4, 46224, Pitch_bend_c, 4, 16096
4, 46230, Pitch_bend_c, 4, 15520
4, 46233, Pitch_bend_c, 4, 14560
4, 46240, Pitch_bend_c, 4, 13216
4, 46243, Pitch_bend_c, 4, 11680
4, 46249, Pitch_bend_c, 4, 10208
4, 46256, Pitch_bend_c, 4, 9152
4, 46262, Pitch_bend_c, 4, 8448
4, 46265, Pitch_bend_c, 4, 8192
4, 46272, Note_off_c, 4, 66, 0
4, 46272, Note_on_c, 4, 66, 115
4, 46284, Pitch_bend_c, 4, 8224
4, 46288, Pitch_bend_c, 4, 8800
4, 46294, Pitch_bend_c, 4, 9856
4, 46297, Pitch_bend_c, 4, 11392
4, 46304, Pitch_bend_c, 4, 13344
4, 46310, Pitch_bend_c, 4, 14816
4, 46316, Pitch_bend_c, 4, 15808
4, 46320, Pitch_bend_c, 4, 16288
4, 46326, Pitch_bend_c, 4, 16383
4, 46515, Pitch_bend_c, 4, 16256
4, 46521, Pitch_bend_c, 4, 15936
4, 46524, Pitch_bend_c, 4, 15328
4, 46531, Pitch_bend_c, 4, 14336
4, 46537, Pitch_bend_c, 4, 12960
4, 46540, Pitch_bend_c, 4, 11392
4, 46544, Pitch_bend_c, 4, 9984
4, 46553, Pitch_bend_c, 4, 8960
4, 46556, Pitch_bend_c, 4, 8352
4, 46560, Note_off_c, 4, 66, 0
4, 46560, Note_on_c, 4, 66, 115
4, 46563, Pitch_bend_c, 4, 8192
4, 46582, Pitch_bend_c, 4, 8704
4, 46585, Pitch_bend_c, 4, 9728
4, 46588, Pitch_bend_c, 4, 11296
4, 46595, Pitch_bend_c, 4, 13312
4, 46601, Pitch_bend_c, 4, 14816
4, 46608, Pitch_bend_c, 4, 15840
4, 46611, Pitch_bend_c, 4, 16383
4, 46662, Pitch_bend_c, 4, 16256
4, 46672, Pitch_bend_c, 4, 15904
4, 46675, Pitch_bend_c, 4, 15264
4, 46681, Pitch_bend_c, 4, 14304
4, 46684, Pitch_bend_c, 4, 13184
4, 46691, Pitch_bend_c, 4, 12096
4, 46694, Pitch_bend_c, 4, 11104
4, 46704, Pitch_bend_c, 4, 10240
4, 46704, Pitch_bend_c, 4, 9536
4, 46713, Pitch_bend_c, 4, 8960
4, 46716, Pitch_bend_c, 4, 8544
4, 46723, Pitch_bend_c, 4, 8320
4, 46726, Pitch_bend_c, 4, 8192
4, 46848, Note_off_c, 4, 66, 0
4, 46848, Note_on_c, 4, 64, 115
4, 47040, Note_off_c, 4, 64, 0
4, 47040, Note_on_c, 4, 64, 119
4, 47232, Note_off_c, 4, 64, 0
4, 47232, Note_on_c, 4, 66, 127
4, 47328, Note_off_c, 4, 66, 0
4, 47328, Note_on_c, 4, 64, 106
4, 47424, Note_off_c, 4, 64, 0
4, 47424, Note_on_c, 4, 61, 119
4, 47520, Note_off_c, 4, 61, 0
4, 47520, Note_on_c, 4, 64, 101
4, 47616, Note_off_c, 4, 64, 0
4, 47616, Note_on_c, 4, 61, 127
4, 47808, Note_off_c, 4, 61, 0
4, 47808, Note_on_c, 4, 57, 124
4, 48096, Note_off_c, 4, 57, 0
4, 48192, Note_on_c, 4, 57, 121
4, 48480, Note_off_c, 4, 57, 0
4, 48480, Note_on_c, 4, 57, 111
4, 48672, Note_off_c, 4, 57, 0
4, 48672, Note_on_c, 4, 59, 115
4, 48768, Note_off_c, 4, 59, 0
4, 48768, Note_on_c, 4, 61, 96
4, 48864, Note_off_c, 4, 61, 0
4, 48864, Note_on_c, 4, 64, 106
4, 48960, Note_off_c, 4, 64, 0
4, 48960, Note_on_c, 4, 66, 112
4, 49056, Note_off_c, 4, 66, 0
4, 49152, Note_on_c, 4, 64, 126
4, 49440, Note_off_c, 4, 64, 0
4, 49440, Note_on_c, 4, 66, 115
4, 49536, Note_off_c, 4, 66, 0
4, 49536, Note_on_c, 4, 68, 112
4, 49632, Note_off_c, 4, 68, 0
4, 49632, Note_on_c, 4, 71, 97
4, 49728, Note_off_c, 4, 71, 0
4, 49728, Note_on_c, 4, 73, 115
4, 50112, Note_off_c, 4, 73, 0
4, 50112, Note_on_c, 4, 71, 127
4, 50208, Note_off_c, 4, 71, 0
4, 50208, Note_on_c, 4, 73, 127
4, 50256, Note_on_c, 4, 74, 127
4, 50304, Note_off_c, 4, 74, 0
4, 50304, Note_off_c, 4, 73, 0
4, 50304, Note_on_c, 4, 76, 127
4, 50400, Note_off_c, 4, 76, 0
4, 50400, Note_on_c, 4, 71, 127
4, 50496, Note_off_c, 4, 71, 0
4, 50496, Note_on_c, 4, 66, 127
4, 50688, Note_off_c, 4, 66, 0
4, 50688, Note_on_c, 4, 64, 127
4, 50976, Note_off_c, 4, 64, 0
4, 50976, Note_on_c, 4, 64, 127
4, 51072, Note_off_c, 4, 64, 0
4, 51072, Note_on_c, 4, 66, 127
4, 51168, Note_off_c, 4, 66, 0
4, 51264, Note_on_c, 4, 64, 127
4, 51552, Note_on_c, 4, 64, 127
4, 51644, Note_off_c, 4, 64, 0
4, 51648, Note_off_c, 4, 64, 0
4, 51648, Note_on_c, 4, 64, 127
4, 51744, Note_on_c, 4, 64, 127
4, 51840, Note_off_c, 4, 64, 0
4, 51840, Note_off_c, 4, 64, 0
4, 51840, Note_on_c, 4, 66, 127
4, 51936, Note_off_c, 4, 66, 0
4, 51936, Note_on_c, 4, 64, 127
4, 52032, Note_off_c, 4, 64, 0
4, 52032, Note_on_c, 4, 61, 127
4, 52128, Note_off_c, 4, 61, 0
4, 52128, Note_on_c, 4, 59, 127
4, 52224, Note_off_c, 4, 59, 0
4, 52224, Note_on_c, 4, 59, 127
4, 52320, Note_off_c, 4, 59, 0
4, 52320, Note_on_c, 4, 61, 127
4, 52416, Note_off_c, 4, 61, 0
4, 52416, Note_on_c, 4, 64, 127
4, 52512, Note_off_c, 4, 64, 0
4, 52512, Note_on_c, 4, 64, 127
4, 52800, Note_off_c, 4, 64, 0
4, 52800, Note_on_c, 4, 64, 127
4, 52896, Note_on_c, 4, 64, 127
4, 52992, Note_off_c, 4, 64, 0
4, 52992, Note_off_c, 4, 64, 0
4, 52992, Note_on_c, 4, 64, 127
4, 53088, Note_off_c, 4, 64, 0
4, 53088, Note_on_c, 4, 66, 127
4, 53280, Note_off_c, 4, 66, 0
4, 53280, Note_on_c, 4, 68, 127
4, 53376, Note_off_c, 4, 68, 0
4, 53376, Note_on_c, 4, 69, 127
4, 53472, Note_off_c, 4, 69, 0
4, 53472, Note_on_c, 4, 68, 127
4, 53664, Note_off_c, 4, 68, 0
4, 53664, Note_on_c, 4, 66, 127
4, 53760, Note_off_c, 4, 66, 0
4, 53760, Note_on_c, 4, 67, 127
4, 53817, Pitch_bend_c, 4, 8448
4, 53827, Pitch_bend_c, 4, 8960
4, 53830, Pitch_bend_c, 4, 9696
4, 53836, Pitch_bend_c, 4, 10720
4, 53843, Pitch_bend_c, 4, 11712
4, 53849, Pitch_bend_c, 4, 12768
4, 53852, Pitch_bend_c, 4, 13888
4, 53859, Pitch_bend_c, 4, 14912
4, 53862, Pitch_bend_c, 4, 15712
4, 53868, Pitch_bend_c, 4, 16192
4, 53875, Pitch_bend_c, 4, 16383
4, 54144, Note_off_c, 4, 67, 0
4, 54188, Pitch_bend_c, 4, 16256
4, 54195, Pitch_bend_c, 4, 15840
4, 54201, Pitch_bend_c, 4, 15104
4, 54204, Pitch_bend_c, 4, 14016
4, 54211, Pitch_bend_c, 4, 12640
4, 54217, Pitch_bend_c, 4, 11168
4, 54220, Pitch_bend_c, 4, 9856
4, 54227, Pitch_bend_c, 4, 8928
4, 54233, Pitch_bend_c, 4, 8352
4, 54236, Pitch_bend_c, 4, 8192
4, 54240, Note_on_c, 4, 66, 127
4, 54304, Pitch_bend_c, 4, 8512
4, 54307, Pitch_bend_c, 4, 9312
4, 54310, Pitch_bend_c, 4, 10560
4, 54320, Pitch_bend_c, 4, 12288
4, 54320, Pitch_bend_c, 4, 14016
4, 54329, Pitch_bend_c, 4, 15232
4, 54332, Pitch_bend_c, 4, 16032
4, 54339, Pitch_bend_c, 4, 16383
4, 54371, Pitch_bend_c, 4, 16288
4, 54377, Pitch_bend_c, 4, 16064
4, 54380, Pitch_bend_c, 4, 15552
4, 54387, Pitch_bend_c, 4, 14752
4, 54393, Pitch_bend_c, 4, 13664
4, 54400, Pitch_bend_c, 4, 12352
4, 54403, Pitch_bend_c, 4, 10848
4, 54409, Pitch_bend_c, 4, 9600
4, 54412, Pitch_bend_c, 4, 8704
4, 54419, Pitch_bend_c, 4, 8192
4, 54432, Note_off_c, 4, 66, 0
4, 54432, Note_on_c, 4, 64, 105
4, 54528, Note_off_c, 4, 64, 0
4, 54528, Note_on_c, 4, 66, 124
4, 54624, Note_off_c, 4, 66, 0
4, 54624, Note_on_c, 4, 64, 101
4, 54720, Note_off_c, 4, 64, 0
4, 54720, Note_on_c, 4, 61, 115
4, 54816, Note_off_c, 4, 61, 0
4, 54816, Note_on_c, 4, 64, 108
4, 55008, Note_off_c, 4, 64, 0
4, 55008, Note_on_c, 4, 64, 124
4, 55104, Note_off_c, 4, 64, 0
4, 55104, Note_on_c, 4, 66, 127
4, 55200, Note_off_c, 4, 66, 0
4, 55200, Note_on_c, 4, 64, 121
4, 55296, Note_off_c, 4, 64, 0
4, 55296, Note_on_c, 4, 66, 127
4, 55347, Pitch_bend_c, 4, 8320
4, 55353, Pitch_bend_c, 4, 8864
4, 55356, Pitch_bend_c, 4, 9728
4, 55363, Pitch_bend_c, 4, 11040
4, 55369, Pitch_bend_c, 4, 12704
4, 55376, Pitch_bend_c, 4, 14240
4, 55379, Pitch_bend_c, 4, 15392
4, 55385, Pitch_bend_c, 4, 16128
4, 55392, Pitch_bend_c, 4, 16383
4, 55456, Pitch_bend_c, 4, 16320
4, 55459, Pitch_bend_c, 4, 16000
4, 55462, Pitch_bend_c, 4, 15392
4, 55468, Pitch_bend_c, 4, 14368
4, 55472, Pitch_bend_c, 4, 12928
4, 55481, Pitch_bend_c, 4, 11200
4, 55484, Pitch_bend_c, 4, 9760
4, 55488, Note_off_c, 4, 66, 0
4, 55488, Note_on_c, 4, 66, 127
4, 55491, Pitch_bend_c, 4, 8736
4, 55494, Pitch_bend_c, 4, 8192
4, 55520, Pitch_bend_c, 4, 8800
4, 55526, Pitch_bend_c, 4, 10016
4, 55526, Pitch_bend_c, 4, 12000
4, 55536, Pitch_bend_c, 4, 14048
4, 55539, Pitch_bend_c, 4, 15488
4, 55545, Pitch_bend_c, 4, 16288
4, 55548, Pitch_bend_c, 4, 16383
4, 55680, Note_off_c, 4, 66, 0
4, 55680, Note_on_c, 4, 66, 127
4, 55702, Pitch_bend_c, 4, 16256
4, 55705, Pitch_bend_c, 4, 15648
4, 55712, Pitch_bend_c, 4, 14368
4, 55715, Pitch_bend_c, 4, 12320
4, 55721, Pitch_bend_c, 4, 10368
4, 55728, Pitch_bend_c, 4, 8960
4, 55734, Pitch_bend_c, 4, 8192
4, 55776, Note_off_c, 4, 66, 0
4, 55776, Note_on_c, 4, 64, 119
4, 55872, Note_off_c, 4, 64, 0
4, 55872, Note_on_c, 4, 61, 108
4, 55968, Note_off_c, 4, 61, 0
4, 55968, Note_on_c, 4, 64, 126
4, 56160, Note_off_c, 4, 64, 0
4, 56160, Note_on_c, 4, 64, 121
4, 56256, Note_off_c, 4, 64, 0
4, 56256, Note_on_c, 4, 66, 127
4, 56352, Note_off_c, 4, 66, 0
4, 56352, Note_on_c, 4, 68, 119
4, 56448, Note_off_c, 4, 68, 0
4, 56448, Note_on_c, 4, 69, 124
4, 56544, Note_off_c, 4, 69, 0
4, 56544, Note_on_c, 4, 68, 127
4, 56640, Note_off_c, 4, 68, 0
4, 56640, Note_on_c, 4, 66, 115
4, 56736, Note_off_c, 4, 66, 0
4, 56736, Note_on_c, 4, 64, 115
4, 56832, Note_off_c, 4, 64, 0
4, 56832, Note_on_c, 4, 69, 115
4, 56928, Note_off_c, 4, 69, 0
4, 57024, Note_on_c, 4, 66, 119
4, 57062, Pitch_bend_c, 4, 8512
4, 57068, Pitch_bend_c, 4, 9280
4, 57072, Pitch_bend_c, 4, 10496
4, 57078, Pitch_bend_c, 4, 12352
4, 57084, Pitch_bend_c, 4, 14048
4, 57088, Pitch_bend_c, 4, 15328
4, 57091, Pitch_bend_c, 4, 16160
4, 57100, Pitch_bend_c, 4, 16383
4, 57308, Pitch_bend_c, 4, 16256
4, 57312, Pitch_bend_c, 4, 15616
4, 57321, Pitch_bend_c, 4, 14176
4, 57321, Pitch_bend_c, 4, 12128
4, 57331, Pitch_bend_c, 4, 10176
4, 57334, Pitch_bend_c, 4, 8800
4, 57340, Pitch_bend_c, 4, 8192
4, 57404, Note_off_c, 4, 66, 0
4, 57408, Note_on_c, 4, 64, 98
4, 57504, Note_off_c, 4, 64, 0
4, 57504, Note_on_c, 4, 61, 124
4, 57600, Note_off_c, 4, 61, 0
4, 57600, Note_on_c, 4, 64, 109
4, 57792, Note_on_c, 4, 64, 115
4, 57888, Note_off_c, 4, 64, 0
4, 57888, Note_on_c, 4, 64, 115
4, 57984, Note_off_c, 4, 64, 0
4, 57984, Note_off_c, 4, 64, 0
4, 57984, Note_on_c, 4, 76, 115
4, 58080, Note_off_c, 4, 76, 0
4, 58080, Note_on_c, 4, 73, 115
4, 58176, Note_off_c, 4, 73, 0
4, 58176, Note_on_c, 4, 71, 115
4, 58272, Note_off_c, 4, 71, 0
4, 58272, Note_on_c, 4, 68, 115
4, 58368, Note_off_c, 4, 68, 0
4, 58368, Note_on_c, 4, 69, 115
4, 58656, Note_off_c, 4, 69, 0
4, 58656, Note_on_c, 4, 68, 115
4, 58752, Note_off_c, 4, 68, 0
4, 58752, Note_on_c, 4, 69, 115
4, 59040, Note_off_c, 4, 69, 0
4, 59040, Note_on_c, 4, 68, 115
4, 59136, Note_off_c, 4, 68, 0
4, 59136, Note_on_c, 4, 69, 115
4, 59232, Note_off_c, 4, 69, 0
4, 59232, Note_on_c, 4, 68, 115
4, 59328, Note_off_c, 4, 68, 0
4, 59424, Note_on_c, 4, 66, 115
4, 59520, Note_off_c, 4, 66, 0
4, 59616, Note_on_c, 4, 64, 115
4, 59808, Note_off_c, 4, 64, 0
4, 59808, Note_on_c, 4, 64, 115
4, 59904, Note_off_c, 4, 64, 0
4, 59904, Note_on_c, 4, 69, 115
4, 60000, Note_off_c, 4, 69, 0
4, 60000, Note_on_c, 4, 68, 115
4, 60096, Note_off_c, 4, 68, 0
4, 60096, Note_on_c, 4, 69, 115
4, 60192, Note_off_c, 4, 69, 0
4, 60192, Note_on_c, 4, 68, 115
4, 60288, Note_off_c, 4, 68, 0
4, 60288, Note_on_c, 4, 66, 115
4, 60384, Note_off_c, 4, 66, 0
4, 60384, Note_on_c, 4, 64, 115
4, 60480, Note_off_c, 4, 64, 0
4, 60576, Note_on_c, 4, 69, 115
4, 60672, Note_off_c, 4, 69, 0
4, 60768, Note_on_c, 4, 68, 115
4, 60864, Note_off_c, 4, 68, 0
4, 60864, Note_on_c, 4, 66, 115
4, 60960, Note_off_c, 4, 66, 0
4, 61056, Note_on_c, 4, 64, 115
4, 61248, Note_off_c, 4, 64, 0
4, 61248, Note_on_c, 4, 66, 115
4, 61344, Note_off_c, 4, 66, 0
4, 61344, Note_on_c, 4, 64, 115
4, 61440, Note_off_c, 4, 64, 0
4, 61440, Note_on_c, 4, 66, 119
4, 61465, Pitch_bend_c, 4, 8480
4, 61468, Pitch_bend_c, 4, 9312
4, 61475, Pitch_bend_c, 4, 10656
4, 61481, Pitch_bend_c, 4, 12640
4, 61488, Pitch_bend_c, 4, 14368
4, 61491, Pitch_bend_c, 4, 15616
4, 61497, Pitch_bend_c, 4, 16288
4, 61500, Pitch_bend_c, 4, 16383
4, 61536, Note_off_c, 4, 66, 0
4, 61548, Pitch_bend_c, 4, 16160
4, 61552, Pitch_bend_c, 4, 15680
4, 61561, Pitch_bend_c, 4, 14880
4, 61568, Pitch_bend_c, 4, 13696
4, 61571, Pitch_bend_c, 4, 12320
4, 61577, Pitch_bend_c, 4, 10752
4, 61580, Pitch_bend_c, 4, 9536
4, 61587, Pitch_bend_c, 4, 8672
4, 61593, Pitch_bend_c, 4, 8192
4, 61632, Note_on_c, 4, 66, 115
4, 61638, Pitch_bend_c, 4, 8832
4, 61638, Pitch_bend_c, 4, 10144
4, 61648, Pitch_bend_c, 4, 12128
4, 61651, Pitch_bend_c, 4, 14176
4, 61657, Pitch_bend_c, 4, 15552
4, 61660, Pitch_bend_c, 4, 16288
4, 61670, Pitch_bend_c, 4, 16383
4, 61884, Pitch_bend_c, 4, 16288
4, 61888, Pitch_bend_c, 4, 15872
4, 61894, Pitch_bend_c, 4, 14976
4, 61900, Pitch_bend_c, 4, 13536
4, 61907, Pitch_bend_c, 4, 11584
4, 61910, Pitch_bend_c, 4, 9952
4, 61916, Pitch_bend_c, 4, 8800
4, 61920, Note_off_c, 4, 66, 0
4, 61920, Note_on_c, 4, 66, 124
4, 61932, Pitch_bend_c, 4, 8192
4, 61939, Pitch_bend_c, 4, 8704
4, 61942, Pitch_bend_c, 4, 9824
4, 61948, Pitch_bend_c, 4, 11648
4, 61952, Pitch_bend_c, 4, 13696
4, 61961, Pitch_bend_c, 4, 15200
4, 61964, Pitch_bend_c, 4, 16128
4, 61971, Pitch_bend_c, 4, 16383
4, 61996, Pitch_bend_c, 4, 16224
4, 62000, Pitch_bend_c, 4, 15776
4, 62009, Pitch_bend_c, 4, 14976
4, 62009, Pitch_bend_c, 4, 13824
4, 62022, Pitch_bend_c, 4, 12416
4, 62022, Pitch_bend_c, 4, 10976
4, 62028, Pitch_bend_c, 4, 9728
4, 62032, Pitch_bend_c, 4, 8864
4, 62041, Pitch_bend_c, 4, 8320
4, 62041, Pitch_bend_c, 4, 8192
4, 62112, Note_off_c, 4, 66, 0
4, 62112, Note_on_c, 4, 64, 106
4, 62208, Note_off_c, 4, 64, 0
4, 62208, Note_on_c, 4, 67, 117
4, 62233, Pitch_bend_c, 4, 8640
4, 62236, Pitch_bend_c, 4, 9568
4, 62243, Pitch_bend_c, 4, 11040
4, 62249, Pitch_bend_c, 4, 13088
4, 62256, Pitch_bend_c, 4, 14688
4, 62259, Pitch_bend_c, 4, 15776
4, 62265, Pitch_bend_c, 4, 16383
4, 62304, Note_off_c, 4, 67, 0
4, 62323, Pitch_bend_c, 4, 16000
4, 62329, Pitch_bend_c, 4, 15232
4, 62329, Pitch_bend_c, 4, 13984
4, 62339, Pitch_bend_c, 4, 12128
4, 62345, Pitch_bend_c, 4, 10400
4, 62348, Pitch_bend_c, 4, 9152
4, 62355, Pitch_bend_c, 4, 8384
4, 62361, Pitch_bend_c, 4, 8192
4, 62400, Note_on_c, 4, 66, 115
4, 62422, Pitch_bend_c, 4, 8448
4, 62432, Pitch_bend_c, 4, 9280
4, 62435, Pitch_bend_c, 4, 10688
4, 62441, Pitch_bend_c, 4, 12704
4, 62444, Pitch_bend_c, 4, 14496
4, 62451, Pitch_bend_c, 4, 15712
4, 62457, Pitch_bend_c, 4, 16383
4, 62540, Pitch_bend_c, 4, 16000
4, 62547, Pitch_bend_c, 4, 15200
4, 62553, Pitch_bend_c, 4, 13792
4, 62556, Pitch_bend_c, 4, 11744
4, 62563, Pitch_bend_c, 4, 10048
4, 62569, Pitch_bend_c, 4, 8800
4, 62572, Pitch_bend_c, 4, 8192
4, 62592, Note_off_c, 4, 66, 0
4, 62592, Note_on_c, 4, 64, 121
4, 62688, Note_off_c, 4, 64, 0
4, 62688, Note_on_c, 4, 61, 106
4, 62784, Note_off_c, 4, 61, 0
4, 62784, Note_on_c, 4, 64, 116
4, 63072, Note_off_c, 4, 64, 0
4, 63072, Note_on_c, 4, 66, 127
4, 63168, Note_off_c, 4, 66, 0
4, 63168, Note_on_c, 4, 64, 127
4, 63264, Note_off_c, 4, 64, 0
4, 63264, Note_on_c, 4, 61, 127
4, 63360, Note_off_c, 4, 61, 0
4, 63360, Note_on_c, 4, 64, 127
4, 63552, Note_off_c, 4, 64, 0
4, 63552, Note_on_c, 4, 64, 127
4, 63648, Note_off_c, 4, 64, 0
4, 63648, Note_on_c, 4, 64, 127
4, 63744, Note_off_c, 4, 64, 0
4, 63744, Note_on_c, 4, 69, 127
4, 63840, Note_off_c, 4, 69, 0
4, 63840, Note_on_c, 4, 68, 127
4, 63936, Note_off_c, 4, 68, 0
4, 63936, Note_on_c, 4, 66, 127
4, 64032, Note_off_c, 4, 66, 0
4, 64032, Note_on_c, 4, 64, 127
4, 64224, Note_off_c, 4, 64, 0
4, 64224, Note_on_c, 4, 64, 127
4, 64320, Note_off_c, 4, 64, 0
4, 64320, Note_on_c, 4, 66, 127
4, 64416, Note_off_c, 4, 66, 0
4, 64416, Note_on_c, 4, 64, 127
4, 64512, Note_off_c, 4, 64, 0
4, 64512, Note_on_c, 4, 68, 127
4, 64704, Note_off_c, 4, 68, 0
4, 64704, Note_on_c, 4, 71, 127
4, 65280, Note_off_c, 4, 71, 0
4, 65280, Note_on_c, 4, 78, 107
4, 65292, Pitch_bend_c, 4, 8480
4, 65296, Pitch_bend_c, 4, 9248
4, 65305, Pitch_bend_c, 4, 10560
4, 65305, Pitch_bend_c, 4, 12544
4, 65315, Pitch_bend_c, 4, 14272
4, 65318, Pitch_bend_c, 4, 15552
4, 65324, Pitch_bend_c, 4, 16288
4, 65331, Pitch_bend_c, 4, 16383
4, 65568, Note_off_c, 4, 78, 0
4, 65568, Pitch_bend_c, 4, 16064
4, 65568, Note_on_c, 4, 78, 104
4, 65571, Pitch_bend_c, 4, 15232
4, 65577, Pitch_bend_c, 4, 13696
4, 65580, Pitch_bend_c, 4, 11648
4, 65590, Pitch_bend_c, 4, 9888
4, 65593, Pitch_bend_c, 4, 8704
4, 65600, Pitch_bend_c, 4, 8320
4, 65603, Pitch_bend_c, 4, 9088
4, 65609, Pitch_bend_c, 4, 10624
4, 65612, Pitch_bend_c, 4, 12640
4, 65622, Pitch_bend_c, 4, 14528
4, 65625, Pitch_bend_c, 4, 15808
4, 65632, Pitch_bend_c, 4, 16383
4, 65718, Pitch_bend_c, 4, 16000
4, 65721, Pitch_bend_c, 4, 15232
4, 65728, Pitch_bend_c, 4, 13984
4, 65731, Pitch_bend_c, 4, 12160
4, 65737, Pitch_bend_c, 4, 10464
4, 65744, Pitch_bend_c, 4, 9184
4, 65747, Pitch_bend_c, 4, 8384
4, 65753, Pitch_bend_c, 4, 8192
4, 65760, Note_off_c, 4, 78, 0
4, 65760, Note_on_c, 4, 76, 106
4, 65856, Note_off_c, 4, 76, 0
4, 65856, Note_on_c, 4, 73, 106
4, 65952, Note_off_c, 4, 73, 0
4, 65952, Note_on_c, 4, 71, 118
4, 66048, Note_off_c, 4, 71, 0
4, 66048, Note_on_c, 4, 71, 121
4, 66432, Note_off_c, 4, 71, 0
4, 66432, Note_on_c, 4, 71, 121
4, 66528, Note_off_c, 4, 71, 0
4, 66528, Note_on_c, 4, 73, 121
4, 66624, Note_off_c, 4, 73, 0
4, 66816, Note_on_c, 4, 71, 121
4, 67196, Note_off_c, 4, 71, 0
4, 67200, Note_on_c, 4, 73, 121
4, 67296, Note_off_c, 4, 73, 0
4, 67296, Note_on_c, 4, 71, 121
4, 67392, Note_off_c, 4, 71, 0
4, 67392, Note_on_c, 4, 66, 121
4, 67488, Note_off_c, 4, 66, 0
4, 67488, Note_on_c, 4, 64, 121
4, 67968, Note_off_c, 4, 64, 0
4, 67968, Note_on_c, 4, 66, 121
4, 68064, Note_off_c, 4, 66, 0
4, 68064, Note_on_c, 4, 64, 121
4, 68160, Note_off_c, 4, 64, 0
4, 68160, Note_on_c, 4, 61, 121
4, 68256, Note_off_c, 4, 61, 0
4, 68256, Note_on_c, 4, 64, 121
4, 68544, Note_off_c, 4, 64, 0
4, 68544, Note_on_c, 4, 64, 121
4, 68640, Note_off_c, 4, 64, 0
4, 68640, Note_on_c, 4, 64, 121
4, 68736, Note_off_c, 4, 64, 0
4, 68736, Note_on_c, 4, 66, 121
4, 68832, Note_off_c, 4, 66, 0
4, 68832, Note_on_c, 4, 64, 121
4, 68928, Note_off_c, 4, 64, 0
4, 68928, Note_on_c, 4, 69, 121
4, 69024, Note_off_c, 4, 69, 0
4, 69024, Note_on_c, 4, 68, 121
4, 69216, Note_off_c, 4, 68, 0
4, 69216, Note_on_c, 4, 68, 121
4, 69312, Note_off_c, 4, 68, 0
4, 69312, Note_on_c, 4, 69, 121
4, 69408, Note_off_c, 4, 69, 0
4, 69408, Note_on_c, 4, 68, 121
4, 69600, Note_off_c, 4, 68, 0
4, 69600, Note_on_c, 4, 68, 121
4, 69696, Note_off_c, 4, 68, 0
4, 69696, Note_on_c, 4, 69, 121
4, 69792, Note_off_c, 4, 69, 0
4, 69792, Note_on_c, 4, 71, 121
4, 69984, Note_off_c, 4, 71, 0
4, 69984, Note_on_c, 4, 69, 121
4, 70080, Note_off_c, 4, 69, 0
4, 70080, Note_on_c, 4, 68, 121
4, 70176, Note_off_c, 4, 68, 0
4, 70176, Note_on_c, 4, 69, 121
4, 70368, Note_off_c, 4, 69, 0
4, 70368, Note_on_c, 4, 68, 121
4, 70464, Note_off_c, 4, 68, 0
4, 70464, Note_on_c, 4, 66, 121
4, 70560, Note_off_c, 4, 66, 0
4, 70560, Note_on_c, 4, 68, 121
4, 70752, Note_off_c, 4, 68, 0
4, 70752, Note_on_c, 4, 66, 121
4, 70848, Note_off_c, 4, 66, 0
4, 70848, Note_on_c, 4, 64, 121
4, 70944, Note_off_c, 4, 64, 0
4, 70944, Note_on_c, 4, 66, 121
4, 71136, Note_off_c, 4, 66, 0
4, 71136, Note_on_c, 4, 64, 121
4, 71232, Note_off_c, 4, 64, 0
4, 71232, Note_on_c, 4, 64, 121
4, 71328, Note_off_c, 4, 64, 0
4, 71328, Note_on_c, 4, 64, 121
4, 71424, Note_off_c, 4, 64, 0
4, 71424, Note_on_c, 4, 61, 121
4, 71616, Note_off_c, 4, 61, 0
4, 71616, Note_on_c, 4, 57, 121
4, 71712, Note_off_c, 4, 57, 0
4, 71808, Note_on_c, 4, 57, 121
4, 72000, Note_off_c, 4, 57, 0
4, 72000, Note_on_c, 4, 57, 121
4, 72096, Note_off_c, 4, 57, 0
4, 72096, Note_on_c, 4, 57, 121
4, 72192, Note_off_c, 4, 57, 0
4, 72192, Note_on_c, 4, 61, 127
4, 72384, Note_off_c, 4, 61, 0
4, 72384, Note_on_c, 4, 64, 127
4, 72480, Note_off_c, 4, 64, 0
4, 72480, Note_on_c, 4, 64, 127
4, 72576, Note_off_c, 4, 64, 0
4, 72576, Note_on_c, 4, 66, 127
4, 72672, Note_off_c, 4, 66, 0
4, 72672, Note_on_c, 4, 64, 127
4, 72768, Note_off_c, 4, 64, 0
4, 72768, Note_on_c, 4, 61, 127
4, 72864, Note_off_c, 4, 61, 0
4, 72864, Note_on_c, 4, 64, 127
4, 73056, Note_off_c, 4, 64, 0
4, 73152, Note_on_c, 4, 64, 127
4, 73248, Note_on_c, 4, 64, 127
4, 73344, Note_off_c, 4, 64, 0
4, 73344, Note_off_c, 4, 64, 0
4, 73344, Note_on_c, 4, 68, 127
4, 73440, Note_off_c, 4, 68, 0
4, 73440, Note_on_c, 4, 71, 127
4, 73536, Note_off_c, 4, 71, 0
4, 73536, Note_on_c, 4, 73, 127
4, 73632, Note_off_c, 4, 73, 0
4, 73632, Note_on_c, 4, 71, 127
4, 73728, Note_off_c, 4, 71, 0
4, 73728, Note_on_c, 4, 71, 127
4, 73920, Note_off_c, 4, 71, 0
4, 73920, Note_on_c, 4, 71, 127
4, 74016, Note_off_c, 4, 71, 0
4, 74016, Note_on_c, 4, 71, 127
4, 74112, Note_off_c, 4, 71, 0
4, 74112, Note_on_c, 4, 71, 127
4, 74208, Note_off_c, 4, 71, 0
4, 74208, Note_on_c, 4, 73, 127
4, 74304, Note_off_c, 4, 73, 0
4, 74304, Note_on_c, 4, 71, 127
4, 74400, Note_off_c, 4, 71, 0
4, 74400, Note_on_c, 4, 68, 127
4, 74496, Note_off_c, 4, 68, 0
4, 74496, Note_on_c, 4, 71, 127
4, 74688, Note_off_c, 4, 71, 0
4, 74688, Note_on_c, 4, 71, 127
4, 74784, Note_off_c, 4, 71, 0
4, 74784, Note_on_c, 4, 71, 127
4, 74976, Note_off_c, 4, 71, 0
4, 74976, Note_on_c, 4, 71, 127
4, 75072, Note_off_c, 4, 71, 0
4, 75168, Note_on_c, 4, 71, 127
4, 75264, Note_off_c, 4, 71, 0
4, 75264, Note_on_c, 4, 76, 127
4, 75360, Note_off_c, 4, 76, 0
4, 75360, Note_on_c, 4, 80, 127
4, 75456, Note_off_c, 4, 80, 0
4, 75456, Note_on_c, 4, 81, 127
4, 75552, Note_off_c, 4, 81, 0
4, 75552, Note_on_c, 4, 80, 127
4, 75648, Note_off_c, 4, 80, 0
4, 75648, Note_on_c, 4, 81, 127
4, 75744, Note_off_c, 4, 81, 0
4, 75744, Note_on_c, 4, 80, 127
4, 75840, Note_off_c, 4, 80, 0
4, 75840, Note_on_c, 4, 76, 127
4, 75936, Note_off_c, 4, 76, 0
4, 75936, Note_on_c, 4, 76, 127
4, 76224, Note_off_c, 4, 76, 0
4, 76320, Note_on_c, 4, 76, 127
4, 76416, Note_off_c, 4, 76, 0
4, 76416, Note_on_c, 4, 81, 127
4, 76512, Note_off_c, 4, 81, 0
4, 76512, Note_on_c, 4, 80, 127
4, 76608, Note_off_c, 4, 80, 0
4, 76608, Note_on_c, 4, 76, 127
4, 76704, Note_off_c, 4, 76, 0
4, 76704, Note_on_c, 4, 80, 127
4, 76800, Note_off_c, 4, 80, 0
4, 76800, Note_on_c, 4, 83, 127
4, 76848, Note_off_c, 4, 83, 0
4, 76848, Note_on_c, 4, 80, 127
4, 76896, Note_off_c, 4, 80, 0
4, 76896, Note_on_c, 4, 76, 127
4, 76992, Note_off_c, 4, 76, 0
4, 76992, Note_on_c, 4, 80, 127
4, 77088, Note_off_c, 4, 80, 0
4, 77088, Note_on_c, 4, 81, 127
4, 77136, Note_off_c, 4, 81, 0
4, 77136, Note_on_c, 4, 80, 127
4, 77184, Note_off_c, 4, 80, 0
4, 77184, Note_on_c, 4, 76, 127
4, 77280, Note_off_c, 4, 76, 0
4, 77280, Note_on_c, 4, 80, 127
4, 77376, Note_off_c, 4, 80, 0
4, 77376, Note_on_c, 4, 83, 127
4, 77424, Note_off_c, 4, 83, 0
4, 77424, Note_on_c, 4, 80, 127
4, 77472, Note_off_c, 4, 80, 0
4, 77472, Note_on_c, 4, 76, 127
4, 77568, Note_off_c, 4, 76, 0
4, 77568, Note_on_c, 4, 80, 127
4, 77664, Note_off_c, 4, 80, 0
4, 77664, Note_on_c, 4, 81, 127
4, 77712, Note_off_c, 4, 81, 0
4, 77712, Note_on_c, 4, 80, 127
4, 77760, Note_off_c, 4, 80, 0
4, 77760, Note_on_c, 4, 76, 127
4, 77856, Note_off_c, 4, 76, 0
4, 77856, Note_on_c, 4, 80, 127
4, 77952, Note_off_c, 4, 80, 0
4, 77952, Note_on_c, 4, 80, 127
4, 78000, Note_off_c, 4, 80, 0
4, 78000, Note_on_c, 4, 76, 127
4, 78048, Note_off_c, 4, 76, 0
4, 78048, Note_on_c, 4, 76, 127
4, 78144, Note_off_c, 4, 76, 0
4, 78144, Note_on_c, 4, 80, 127
4, 78240, Note_off_c, 4, 80, 0
4, 78240, Note_on_c, 4, 81, 127
4, 78288, Note_off_c, 4, 81, 0
4, 78288, Note_on_c, 4, 80, 127
4, 78336, Note_off_c, 4, 80, 0
4, 78336, Note_on_c, 4, 76, 127
4, 78432, Note_off_c, 4, 76, 0
4, 78432, Note_on_c, 4, 80, 127
4, 78528, Note_off_c, 4, 80, 0
4, 78528, Note_on_c, 4, 83, 127
4, 78576, Note_off_c, 4, 83, 0
4, 78576, Note_on_c, 4, 80, 127
4, 78624, Note_off_c, 4, 80, 0
4, 78624, Note_on_c, 4, 76, 127
4, 78720, Note_off_c, 4, 76, 0
4, 78720, Note_on_c, 4, 80, 127
4, 78816, Note_off_c, 4, 80, 0
4, 78816, Note_on_c, 4, 81, 127
4, 78864, Note_off_c, 4, 81, 0
4, 78864, Note_on_c, 4, 80, 127
4, 78912, Note_off_c, 4, 80, 0
4, 78912, Note_on_c, 4, 76, 127
4, 79008, Note_off_c, 4, 76, 0
4, 79008, Note_on_c, 4, 80, 127
4, 79104, Note_off_c, 4, 80, 0
4, 79104, Note_on_c, 4, 76, 127
4, 79200, Note_off_c, 4, 76, 0
4, 79200, Note_on_c, 4, 76, 127
4, 79296, Note_off_c, 4, 76, 0
4, 79296, Note_on_c, 4, 80, 127
4, 79392, Note_off_c, 4, 80, 0
4, 79392, Note_on_c, 4, 81, 127
4, 79488, Note_off_c, 4, 81, 0
4, 79488, Note_on_c, 4, 81, 127
4, 79584, Note_off_c, 4, 81, 0
4, 79584, Note_on_c, 4, 80, 127
4, 79680, Note_off_c, 4, 80, 0
4, 79680, Note_on_c, 4, 76, 127
4, 79776, Note_off_c, 4, 76, 0
4, 79776, Note_on_c, 4, 76, 127
4, 79872, Note_off_c, 4, 76, 0
4, 79872, Note_on_c, 4, 76, 127
4, 79968, Note_off_c, 4, 76, 0
4, 79968, Note_on_c, 4, 75, 127
4, 80064, Note_off_c, 4, 75, 0
4, 80064, Note_on_c, 4, 75, 127
4, 80160, Note_off_c, 4, 75, 0
4, 80160, Note_on_c, 4, 75, 127
4, 80256, Note_off_c, 4, 75, 0
4, 80256, Note_on_c, 4, 75, 127
4, 80352, Note_off_c, 4, 75, 0
4, 80352, Note_on_c, 4, 71, 127
4, 80448, Note_off_c, 4, 71, 0
4, 80448, Note_on_c, 4, 71, 127
4, 80544, Note_off_c, 4, 71, 0
4, 80544, Note_on_c, 4, 71, 127
4, 80640, Note_off_c, 4, 71, 0
4, 80640, Note_on_c, 4, 71, 127
4, 80736, Note_off_c, 4, 71, 0
4, 80736, Note_on_c, 4, 69, 127
4, 80832, Note_off_c, 4, 69, 0
4, 80832, Note_on_c, 4, 69, 127
4, 80928, Note_off_c, 4, 69, 0
4, 80928, Note_on_c, 4, 69, 127
4, 81024, Note_off_c, 4, 69, 0
4, 81024, Note_on_c, 4, 69, 127
4, 81120, Note_off_c, 4, 69, 0
4, 81120, Note_on_c, 4, 68, 127
4, 81216, Note_off_c, 4, 68, 0
4, 81216, Note_on_c, 4, 66, 127
4, 81312, Note_off_c, 4, 66, 0
4, 81312, Note_on_c, 4, 64, 127
4, 81408, Note_off_c, 4, 64, 0
4, 81408, Note_on_c, 4, 69, 127
4, 81504, Note_off_c, 4, 69, 0
4, 81504, Note_on_c, 4, 68, 127
4, 81600, Note_off_c, 4, 68, 0
4, 81600, Note_on_c, 4, 66, 127
4, 81696, Note_off_c, 4, 66, 0
4, 81696, Note_on_c, 4, 64, 127
4, 81888, Note_off_c, 4, 64, 0
4, 81888, Note_on_c, 4, 64, 127
4, 81984, Note_off_c, 4, 64, 0
4, 81984, Note_on_c, 4, 66, 127
4, 82080, Note_off_c, 4, 66, 0
4, 82080, Note_on_c, 4, 68, 127
4, 82176, Note_off_c, 4, 68, 0
4, 82176, Note_on_c, 4, 69, 127
4, 82272, Note_off_c, 4, 69, 0
4, 82272, Note_on_c, 4, 68, 127
4, 82368, Note_off_c, 4, 68, 0
4, 82368, Note_on_c, 4, 66, 127
4, 82464, Note_off_c, 4, 66, 0
4, 82464, Note_on_c, 4, 64, 127
4, 82656, Note_off_c, 4, 64, 0
4, 82656, Note_on_c, 4, 64, 127
4, 82752, Note_off_c, 4, 64, 0
4, 82752, Note_on_c, 4, 64, 127
4, 82848, Note_off_c, 4, 64, 0
4, 82848, Note_on_c, 4, 64, 127
4, 82944, Note_off_c, 4, 64, 0
4, 82944, Note_on_c, 4, 76, 127
4, 83040, Note_off_c, 4, 76, 0
4, 83040, Note_on_c, 4, 73, 127
4, 83136, Note_off_c, 4, 73, 0
4, 83136, Note_on_c, 4, 71, 127
4, 83232, Note_off_c, 4, 71, 0
4, 83232, Note_on_c, 4, 69, 127
4, 83328, Note_off_c, 4, 69, 0
4, 83328, Note_on_c, 4, 68, 127
4, 83424, Note_off_c, 4, 68, 0
4, 83424, Note_on_c, 4, 66, 127
4, 83520, Note_off_c, 4, 66, 0
4, 83520, Note_on_c, 4, 64, 127
4, 83616, Note_off_c, 4, 64, 0
4, 83712, Note_on_c, 4, 64, 127
4, 83808, Note_off_c, 4, 64, 0
4, 83808, Note_on_c, 4, 66, 127
4, 83904, Note_off_c, 4, 66, 0
4, 83904, Note_on_c, 4, 68, 127
4, 84000, Note_off_c, 4, 68, 0
4, 84000, Note_on_c, 4, 69, 127
4, 84096, Note_off_c, 4, 69, 0
4, 84096, Note_on_c, 4, 71, 127
4, 84192, Note_off_c, 4, 71, 0
4, 84288, Note_on_c, 4, 71, 126
4, 84332, Pitch_bend_c, 4, 8512
4, 84336, Pitch_bend_c, 4, 9312
4, 84342, Pitch_bend_c, 4, 10560
4, 84345, Pitch_bend_c, 4, 12320
4, 84352, Pitch_bend_c, 4, 14016
4, 84358, Pitch_bend_c, 4, 15264
4, 84364, Pitch_bend_c, 4, 16064
4, 84368, Pitch_bend_c, 4, 16383
4, 84547, Pitch_bend_c, 4, 16192
4, 84550, Pitch_bend_c, 4, 15648
4, 84556, Pitch_bend_c, 4, 14592
4, 84563, Pitch_bend_c, 4, 12896
4, 84566, Pitch_bend_c, 4, 11008
4, 84576, Note_off_c, 4, 71, 0
4, 84576, Pitch_bend_c, 4, 9504
4, 84576, Pitch_bend_c, 4, 8544
4, 84576, Note_on_c, 4, 71, 124
4, 84585, Pitch_bend_c, 4, 8192
4, 84595, Pitch_bend_c, 4, 8448
4, 84598, Pitch_bend_c, 4, 9568
4, 84608, Pitch_bend_c, 4, 11584
4, 84611, Pitch_bend_c, 4, 13632
4, 84617, Pitch_bend_c, 4, 15392
4, 84624, Pitch_bend_c, 4, 16320
4, 84630, Pitch_bend_c, 4, 16383
4, 84656, Pitch_bend_c, 4, 16128
4, 84662, Pitch_bend_c, 4, 15584
4, 84665, Pitch_bend_c, 4, 14592
4, 84672, Pitch_bend_c, 4, 13088
4, 84678, Pitch_bend_c, 4, 11264
4, 84681, Pitch_bend_c, 4, 9760
4, 84688, Pitch_bend_c, 4, 8704
4, 84694, Pitch_bend_c, 4, 8192
4, 84768, Note_off_c, 4, 71, 0
4, 84768, Note_on_c, 4, 68, 106
4, 84864, Note_off_c, 4, 68, 0
4, 84864, Note_on_c, 4, 71, 119
4, 84960, Note_off_c, 4, 71, 0
4, 85056, Note_on_c, 4, 71, 121
4, 85107, Pitch_bend_c, 4, 8768
4, 85113, Pitch_bend_c, 4, 9824
4, 85120, Pitch_bend_c, 4, 11584
4, 85123, Pitch_bend_c, 4, 13600
4, 85129, Pitch_bend_c, 4, 15072
4, 85136, Pitch_bend_c, 4, 16032
4, 85139, Pitch_bend_c, 4, 16383
4, 85152, Note_off_c, 4, 71, 0
4, 85193, Pitch_bend_c, 4, 16224
4, 85196, Pitch_bend_c, 4, 15808
4, 85203, Pitch_bend_c, 4, 15008
4, 85209, Pitch_bend_c, 4, 13792
4, 85216, Pitch_bend_c, 4, 12192
4, 85219, Pitch_bend_c, 4, 10560
4, 85225, Pitch_bend_c, 4, 9344
4, 85228, Pitch_bend_c, 4, 8512
4, 85235, Pitch_bend_c, 4, 8192
4, 85248, Note_on_c, 4, 66, 122
4, 85276, Pitch_bend_c, 4, 8416
4, 85286, Pitch_bend_c, 4, 9216
4, 85289, Pitch_bend_c, 4, 10464
4, 85296, Pitch_bend_c, 4, 12128
4, 85299, Pitch_bend_c, 4, 13920
4, 85305, Pitch_bend_c, 4, 15168
4, 85312, Pitch_bend_c, 4, 15968
4, 85318, Pitch_bend_c, 4, 16383
4, 85344, Note_off_c, 4, 66, 0
4, 85427, Pitch_bend_c, 4, 16288
4, 85433, Pitch_bend_c, 4, 15936
4, 85440, Note_on_c, 4, 66, 119
4, 85440, Pitch_bend_c, 4, 15232
4, 85449, Pitch_bend_c, 4, 14112
4, 85449, Pitch_bend_c, 4, 12544
4, 85452, Pitch_bend_c, 4, 10848
4, 85462, Pitch_bend_c, 4, 9504
4, 85465, Pitch_bend_c, 4, 8576
4, 85472, Pitch_bend_c, 4, 8192
4, 85536, Note_off_c, 4, 66, 0
4, 85536, Note_on_c, 4, 64, 120
4, 85824, Note_off_c, 4, 64, 0
4, 85824, Note_on_c, 4, 66, 127
4, 85920, Note_off_c, 4, 66, 0
4, 85920, Note_on_c, 4, 64, 119
4, 86016, Note_off_c, 4, 64, 0
4, 86016, Note_on_c, 4, 68, 127
4, 86208, Note_off_c, 4, 68, 0
4, 86208, Note_on_c, 4, 71, 127
4, 86496, Note_off_c, 4, 71, 0
4, 86496, Note_on_c, 4, 71, 127
4, 86592, Note_off_c, 4, 71, 0
4, 86592, Note_on_c, 4, 73, 127
4, 86688, Note_off_c, 4, 73, 0
4, 86688, Note_on_c, 4, 68, 127
4, 86784, Note_off_c, 4, 68, 0
4, 86784, Note_on_c, 4, 76, 127
4, 86880, Note_off_c, 4, 76, 0
4, 86880, Note_on_c, 4, 73, 127
4, 86976, Note_off_c, 4, 73, 0
4, 86976, Note_on_c, 4, 71, 127
4, 87072, Note_off_c, 4, 71, 0
4, 87072, Note_on_c, 4, 68, 127
4, 87168, Note_off_c, 4, 68, 0
4, 87168, Note_on_c, 4, 66, 127
4, 87264, Note_off_c, 4, 66, 0
4, 87264, Note_on_c, 4, 64, 127
4, 87360, Note_off_c, 4, 64, 0
4, 87360, Note_on_c, 4, 61, 127
4, 87456, Note_off_c, 4, 61, 0
4, 87456, Note_on_c, 4, 64, 127
4, 87552, Note_off_c, 4, 64, 0
4, 87552, Note_on_c, 4, 66, 127
4, 87929, Pitch_bend_c, 4, 8512
4, 87932, Note_off_c, 4, 66, 0
4, 87936, Note_on_c, 4, 66, 119
4, 87936, Pitch_bend_c, 4, 9184
4, 87942, Pitch_bend_c, 4, 10240
4, 87948, Pitch_bend_c, 4, 11744
4, 87948, Pitch_bend_c, 4, 13440
4, 87958, Pitch_bend_c, 4, 14816
4, 87961, Pitch_bend_c, 4, 15808
4, 87968, Pitch_bend_c, 4, 16383
4, 88032, Note_off_c, 4, 66, 0
4, 88064, Pitch_bend_c, 4, 16128
4, 88070, Pitch_bend_c, 4, 15648
4, 88070, Pitch_bend_c, 4, 14784
4, 88080, Pitch_bend_c, 4, 13440
4, 88083, Pitch_bend_c, 4, 11648
4, 88089, Pitch_bend_c, 4, 10112
4, 88092, Pitch_bend_c, 4, 8928
4, 88102, Pitch_bend_c, 4, 8224
4, 88105, Pitch_bend_c, 4, 8192
4, 88128, Note_on_c, 4, 64, 124
4, 88320, Note_off_c, 4, 64, 0
4, 88320, Note_on_c, 4, 64, 127
4, 88416, Note_off_c, 4, 64, 0
4, 88416, Note_on_c, 4, 64, 127
4, 88512, Note_off_c, 4, 64, 0
4, 88512, Note_on_c, 4, 64, 127
4, 88608, Note_off_c, 4, 64, 0
4, 88608, Note_on_c, 4, 64, 127
4, 88704, Note_off_c, 4, 64, 0
4, 88704, Note_on_c, 4, 61, 127
4, 88800, Note_off_c, 4, 61, 0
4, 88800, Note_on_c, 4, 59, 127
4, 88896, Note_off_c, 4, 59, 0
4, 88896, Note_on_c, 4, 59, 127
4, 88992, Note_off_c, 4, 59, 0
4, 88992, Note_on_c, 4, 59, 127
4, 89088, Note_off_c, 4, 59, 0
4, 89088, Note_on_c, 4, 68, 127
4, 89280, Note_off_c, 4, 68, 0
4, 89280, Note_on_c, 4, 71, 127
4, 89472, Note_off_c, 4, 71, 0
4, 89472, Note_on_c, 4, 71, 127
4, 89568, Note_off_c, 4, 71, 0
4, 89568, Note_on_c, 4, 71, 127
4, 89664, Note_off_c, 4, 71, 0
4, 89664, Note_on_c, 4, 73, 127
4, 89760, Note_off_c, 4, 73, 0
4, 89760, Note_on_c, 4, 68, 127
4, 89856, Note_off_c, 4, 68, 0
4, 89856, Note_on_c, 4, 76, 127
4, 89952, Note_off_c, 4, 76, 0
4, 89952, Note_on_c, 4, 73, 127
4, 90048, Note_off_c, 4, 73, 0
4, 90048, Note_on_c, 4, 71, 127
4, 90144, Note_off_c, 4, 71, 0
4, 90144, Note_on_c, 4, 68, 127
4, 90240, Note_off_c, 4, 68, 0
4, 90240, Note_on_c, 4, 66, 127
4, 90336, Note_off_c, 4, 66, 0
4, 90336, Note_on_c, 4, 64, 127
4, 90432, Note_off_c, 4, 64, 0
4, 90432, Note_on_c, 4, 61, 127
4, 90528, Note_off_c, 4, 61, 0
4, 90528, Note_on_c, 4, 64, 127
4, 90624, Note_off_c, 4, 64, 0
4, 90624, Note_on_c, 4, 66, 127
4, 90912, Note_off_c, 4, 66, 0
4, 90912, Note_on_c, 4, 66, 127
4, 90982, Pitch_bend_c, 4, 8512
4, 90988, Pitch_bend_c, 4, 9184
4, 90992, Pitch_bend_c, 4, 10176
4, 90998, Pitch_bend_c, 4, 11552
4, 91004, Pitch_bend_c, 4, 12992
4, 91008, Pitch_bend_c, 4, 14368
4, 91014, Pitch_bend_c, 4, 15424
4, 91020, Pitch_bend_c, 4, 16096
4, 91020, Pitch_bend_c, 4, 16383
4, 91104, Note_off_c, 4, 66, 0
4, 91107, Pitch_bend_c, 4, 16288
4, 91110, Pitch_bend_c, 4, 15776
4, 91113, Pitch_bend_c, 4, 14752
4, 91120, Pitch_bend_c, 4, 13184
4, 91126, Pitch_bend_c, 4, 11200
4, 91129, Pitch_bend_c, 4, 9664
4, 91136, Pitch_bend_c, 4, 8640
4, 91139, Pitch_bend_c, 4, 8192
4, 91200, Note_on_c, 4, 62, 127
4, 91216, Pitch_bend_c, 4, 8544
4, 91222, Pitch_bend_c, 4, 9504
4, 91228, Pitch_bend_c, 4, 11136
4, 91232, Pitch_bend_c, 4, 13152
4, 91238, Pitch_bend_c, 4, 14848
4, 91244, Pitch_bend_c, 4, 15936
4, 91248, Pitch_bend_c, 4, 16383
4, 91392, Note_off_c, 4, 62, 0
4, 91392, Note_on_c, 4, 64, 127
4, 91488, Note_off_c, 4, 64, 0
4, 91488, Note_on_c, 4, 64, 127
4, 91584, Note_off_c, 4, 64, 0
4, 91584, Note_on_c, 4, 64, 127
4, 91680, Note_off_c, 4, 64, 0
4, 91680, Note_on_c, 4, 64, 127
4, 91776, Note_off_c, 4, 64, 0
4, 91776, Note_on_c, 4, 66, 127
4, 91788, Pitch_bend_c, 4, 16192
4, 91792, Pitch_bend_c, 4, 15552
4, 91798, Pitch_bend_c, 4, 14272
4, 91804, Pitch_bend_c, 4, 12256
4, 91811, Pitch_bend_c, 4, 10368
4, 91814, Pitch_bend_c, 4, 8960
4, 91820, Pitch_bend_c, 4, 8224
4, 91827, Pitch_bend_c, 4, 8192
4, 91872, Note_off_c, 4, 66, 0
4, 91872, Note_on_c, 4, 64, 127
4, 91968, Note_off_c, 4, 64, 0
4, 91968, Note_on_c, 4, 61, 127
4, 92064, Note_off_c, 4, 61, 0
4, 92064, Note_on_c, 4, 59, 127
4, 92160, Note_off_c, 4, 59, 0
4, 92160, Note_on_c, 4, 68, 127
4, 92160, Note_on_c, 4, 73, 127
4, 92352, Note_off_c, 4, 73, 0
4, 92352, Note_off_c, 4, 68, 0
4, 92352, Note_on_c, 4, 71, 127
4, 92352, Note_on_c, 4, 76, 127
4, 92640, Note_off_c, 4, 76, 0
4, 92640, Note_off_c, 4, 71, 0
4, 92640, Note_on_c, 4, 71, 127
4, 92640, Note_on_c, 4, 76, 127
4, 92736, Note_off_c, 4, 76, 0
4, 92736, Note_off_c, 4, 71, 0
4, 92736, Note_on_c, 4, 73, 127
4, 92736, Note_on_c, 4, 78, 127
4, 92832, Note_off_c, 4, 78, 0
4, 92832, Note_off_c, 4, 73, 0
4, 92832, Note_on_c, 4, 76, 127
4, 92832, Note_on_c, 4, 80, 127
4, 92928, Note_off_c, 4, 80, 0
4, 92928, Note_off_c, 4, 76, 0
4, 92928, Note_on_c, 4, 71, 127
4, 92928, Note_on_c, 4, 81, 127
4, 93024, Note_off_c, 4, 81, 0
4, 93024, Note_off_c, 4, 71, 0
4, 93024, Note_on_c, 4, 76, 127
4, 93024, Note_on_c, 4, 80, 127
4, 93120, Note_off_c, 4, 80, 0
4, 93120, Note_off_c, 4, 76, 0
4, 93120, Note_on_c, 4, 73, 127
4, 93120, Note_on_c, 4, 78, 127
4, 93216, Note_off_c, 4, 78, 0
4, 93216, Note_off_c, 4, 73, 0
4, 93216, Note_on_c, 4, 71, 127
4, 93216, Note_on_c, 4, 76, 127
4, 93312, Note_off_c, 4, 76, 0
4, 93312, Note_off_c, 4, 71, 0
4, 93312, Note_on_c, 4, 68, 127
4, 93312, Note_on_c, 4, 73, 127
4, 93408, Note_off_c, 4, 73, 0
4, 93408, Note_off_c, 4, 68, 0
4, 93408, Note_on_c, 4, 66, 127
4, 93408, Note_on_c, 4, 76, 127
4, 93504, Note_off_c, 4, 76, 0
4, 93504, Note_off_c, 4, 66, 0
4, 93504, Note_on_c, 4, 61, 127
4, 93504, Note_on_c, 4, 78, 127
4, 93600, Note_off_c, 4, 78, 0
4, 93600, Note_off_c, 4, 61, 0
4, 93696, Note_on_c, 4, 73, 127
4, 93696, Note_on_c, 4, 66, 127
4, 93984, Note_on_c, 4, 73, 127
4, 93984, Note_on_c, 4, 66, 127
4, 94076, Note_off_c, 4, 66, 0
4, 94076, Note_off_c, 4, 73, 0
4, 94080, Note_off_c, 4, 66, 0
4, 94080, Note_off_c, 4, 73, 0
4, 94080, Note_on_c, 4, 76, 127
4, 94080, Note_on_c, 4, 68, 127
4, 94176, Note_off_c, 4, 68, 0
4, 94176, Note_off_c, 4, 76, 0
4, 94272, Note_on_c, 4, 61, 127
4, 94272, Note_on_c, 4, 69, 127
4, 94652, Note_off_c, 4, 69, 0
4, 94652, Note_off_c, 4, 61, 0
4, 94656, Note_on_c, 4, 61, 127
4, 94656, Note_on_c, 4, 69, 127
4, 94752, Note_off_c, 4, 69, 0
4, 94752, Note_off_c, 4, 61, 0
4, 94752, Note_on_c, 4, 61, 127
4, 94752, Note_on_c, 4, 71, 127
4, 94848, Note_off_c, 4, 71, 0
4, 94848, Note_off_c, 4, 61, 0
4, 94848, Note_on_c, 4, 64, 127
4, 94848, Note_on_c, 4, 73, 127
4, 94944, Note_off_c, 4, 73, 0
4, 94944, Note_off_c, 4, 64, 0
4, 94944, Note_on_c, 4, 64, 127
4, 94944, Note_on_c, 4, 76, 127
4, 95040, Note_off_c, 4, 76, 0
4, 95040, Note_off_c, 4, 64, 0
4, 95040, Note_on_c, 4, 64, 127
4, 95040, Note_on_c, 4, 73, 127
4, 95136, Note_off_c, 4, 73, 0
4, 95136, Note_off_c, 4, 64, 0
4, 95136, Note_on_c, 4, 64, 127
4, 95136, Note_on_c, 4, 71, 127
4, 95232, Note_off_c, 4, 71, 0
4, 95232, Note_off_c, 4, 64, 0
4, 95232, Note_on_c, 4, 68, 127
4, 95232, Note_on_c, 4, 73, 127
4, 95424, Note_off_c, 4, 73, 0
4, 95424, Note_off_c, 4, 68, 0
4, 95424, Note_on_c, 4, 71, 127
4, 95424, Note_on_c, 4, 76, 127
4, 95712, Note_off_c, 4, 76, 0
4, 95712, Note_off_c, 4, 71, 0
4, 95712, Note_on_c, 4, 71, 127
4, 95712, Note_on_c, 4, 76, 127
4, 95808, Note_off_c, 4, 76, 0
4, 95808, Note_off_c, 4, 71, 0
4, 95808, Note_on_c, 4, 73, 127
4, 95808, Note_on_c, 4, 78, 127
4, 95904, Note_off_c, 4, 78, 0
4, 95904, Note_off_c, 4, 73, 0
4, 95904, Note_on_c, 4, 76, 127
4, 95904, Note_on_c, 4, 80, 127
4, 96000, Note_off_c, 4, 80, 0
4, 96000, Note_off_c, 4, 76, 0
4, 96000, Note_on_c, 4, 71, 127
4, 96000, Note_on_c, 4, 81, 127
4, 96096, Note_off_c, 4, 81, 0
4, 96096, Note_off_c, 4, 71, 0
4, 96096, Note_on_c, 4, 76, 127
4, 96096, Note_on_c, 4, 80, 127
4, 96192, Note_off_c, 4, 80, 0
4, 96192, Note_off_c, 4, 76, 0
4, 96192, Note_on_c, 4, 73, 127
4, 96192, Note_on_c, 4, 78, 127
4, 96288, Note_off_c, 4, 78, 0
4, 96288, Note_off_c, 4, 73, 0
4, 96288, Note_on_c, 4, 71, 127
4, 96288, Note_on_c, 4, 76, 127
4, 96384, Note_off_c, 4, 76, 0
4, 96384, Note_off_c, 4, 71, 0
4, 96384, Note_on_c, 4, 68, 127
4, 96384, Note_on_c, 4, 73, 127
4, 96480, Note_off_c, 4, 73, 0
4, 96480, Note_off_c, 4, 68, 0
4, 96480, Note_on_c, 4, 66, 127
4, 96480, Note_on_c, 4, 76, 127
4, 96576, Note_off_c, 4, 76, 0
4, 96576, Note_off_c, 4, 66, 0
4, 96576, Note_on_c, 4, 61, 127
4, 96576, Note_on_c, 4, 78, 127
4, 96672, Note_off_c, 4, 78, 0
4, 96672, Note_off_c, 4, 61, 0
4, 96768, Note_on_c, 4, 73, 127
4, 96768, Note_on_c, 4, 66, 127
4, 97056, Note_off_c, 4, 66, 0
4, 97056, Note_off_c, 4, 73, 0
4, 97056, Note_on_c, 4, 73, 127
4, 97056, Note_on_c, 4, 66, 127
4, 97152, Note_off_c, 4, 66, 0
4, 97152, Note_off_c, 4, 73, 0
4, 97152, Note_on_c, 4, 76, 127
4, 97152, Note_on_c, 4, 68, 127
4, 97248, Note_off_c, 4, 68, 0
4, 97248, Note_off_c, 4, 76, 0
4, 97344, Note_on_c, 4, 61, 127
4, 97344, Note_on_c, 4, 69, 127
4, 97724, Note_off_c, 4, 69, 0
4, 97724, Note_off_c, 4, 61, 0
4, 97728, Note_on_c, 4, 68, 127
4, 97824, Note_off_c, 4, 68, 0
4, 97920, Note_on_c, 4, 71, 127
4, 98016, Note_off_c, 4, 71, 0
4, 98112, Note_on_c, 4, 73, 127
4, 98208, Note_off_c, 4, 73, 0
4, 98304, Note_on_c, 4, 76, 127
4, 98688, Note_off_c, 4, 76, 0
4, 98688, Note_on_c, 4, 76, 127
4, 98976, Note_off_c, 4, 76, 0
4, 98976, Note_on_c, 4, 73, 127
4, 99072, Note_off_c, 4, 73, 0
4, 99072, Note_on_c, 4, 76, 127
4, 99168, Note_off_c, 4, 76, 0
4, 99168, Note_on_c, 4, 73, 127
4, 99264, Note_off_c, 4, 73, 0
4, 99264, Note_on_c, 4, 71, 127
4, 99360, Note_off_c, 4, 71, 0
4, 99360, Note_on_c, 4, 68, 127
4, 99456, Note_off_c, 4, 68, 0
4, 99456, Note_on_c, 4, 66, 127
4, 99552, Note_off_c, 4, 66, 0
4, 99552, Note_on_c, 4, 64, 127
4, 99648, Note_off_c, 4, 64, 0
4, 99648, Note_on_c, 4, 61, 127
4, 99744, Note_off_c, 4, 61, 0
4, 99840, Note_on_c, 4, 64, 127
4, 99936, Note_off_c, 4, 64, 0
4, 99936, Note_on_c, 4, 66, 127
4, 100224, Note_off_c, 4, 66, 0
4, 100224, Note_on_c, 4, 68, 127
4, 100512, Note_off_c, 4, 68, 0
4, 100512, Note_on_c, 4, 66, 127
4, 100608, Note_off_c, 4, 66, 0
4, 100608, Note_on_c, 4, 68, 127
4, 100704, Note_off_c, 4, 68, 0
4, 100704, Note_on_c, 4, 69, 127
4, 100800, Note_off_c, 4, 69, 0
4, 100800, Note_on_c, 4, 68, 127
4, 100896, Note_off_c, 4, 68, 0
4, 100896, Note_on_c, 4, 66, 127
4, 100992, Note_off_c, 4, 66, 0
4, 100992, Note_on_c, 4, 68, 127
4, 101088, Note_off_c, 4, 68, 0
4, 101088, Note_on_c, 4, 66, 127
4, 101184, Note_off_c, 4, 66, 0
4, 101184, Note_on_c, 4, 64, 127
4, 101376, Note_off_c, 4, 64, 0
4, 101376, Note_on_c, 4, 68, 127
4, 101568, Note_off_c, 4, 68, 0
4, 101568, Note_on_c, 4, 71, 127
4, 101952, Note_off_c, 4, 71, 0
4, 101952, Note_on_c, 4, 73, 127
4, 102048, Note_off_c, 4, 73, 0
4, 102048, Note_on_c, 4, 68, 127
4, 102144, Note_off_c, 4, 68, 0
4, 102144, Note_on_c, 4, 76, 127
4, 102240, Note_off_c, 4, 76, 0
4, 102240, Note_on_c, 4, 78, 127
4, 102336, Note_off_c, 4, 78, 0
4, 102432, Note_on_c, 4, 78, 127
4, 102480, Pitch_bend_c, 4, 8480
4, 102483, Pitch_bend_c, 4, 9184
4, 102489, Pitch_bend_c, 4, 10336
4, 102492, Pitch_bend_c, 4, 12032
4, 102502, Pitch_bend_c, 4, 13792
4, 102505, Pitch_bend_c, 4, 15136
4, 102512, Pitch_bend_c, 4, 16000
4, 102518, Pitch_bend_c, 4, 16383
4, 102553, Pitch_bend_c, 4, 16000
4, 102560, Pitch_bend_c, 4, 15264
4, 102566, Pitch_bend_c, 4, 14048
4, 102569, Pitch_bend_c, 4, 12288
4, 102576, Pitch_bend_c, 4, 10560
4, 102582, Pitch_bend_c, 4, 9280
4, 102585, Pitch_bend_c, 4, 8448
4, 102592, Pitch_bend_c, 4, 8192
4, 102624, Note_off_c, 4, 78, 0
4, 102624, Note_on_c, 4, 76, 106
4, 102720, Note_off_c, 4, 76, 0
4, 102720, Note_on_c, 4, 78, 127
4, 102816, Note_off_c, 4, 78, 0
4, 102816, Note_on_c, 4, 73, 127
4, 102912, Note_off_c, 4, 73, 0
4, 102912, Note_on_c, 4, 76, 127
4, 103296, Note_off_c, 4, 76, 0
4, 103296, Note_on_c, 4, 78, 127
4, 103392, Note_off_c, 4, 78, 0
4, 103392, Note_on_c, 4, 73, 127
4, 103488, Note_off_c, 4, 73, 0
4, 103584, Note_on_c, 4, 76, 127
4, 103776, Note_off_c, 4, 76, 0
4, 103872, Note_on_c, 4, 73, 127
4, 103968, Note_off_c, 4, 73, 0
4, 103968, Note_on_c, 4, 68, 127
4, 104064, Note_off_c, 4, 68, 0
4, 104064, Note_on_c, 4, 71, 127
4, 104160, Note_off_c, 4, 71, 0
4, 104160, Note_on_c, 4, 73, 127
4, 104256, Note_off_c, 4, 73, 0
4, 104256, Note_on_c, 4, 71, 127
4, 104352, Note_off_c, 4, 71, 0
4, 104448, Note_on_c, 4, 71, 127
4, 104736, Note_off_c, 4, 71, 0
4, 104736, Note_on_c, 4, 68, 127
4, 104832, Note_off_c, 4, 68, 0
4, 104832, Note_on_c, 4, 73, 127
4, 104928, Note_off_c, 4, 73, 0
4, 104928, Note_on_c, 4, 68, 127
4, 105024, Note_off_c, 4, 68, 0
4, 105024, Note_on_c, 4, 71, 127
4, 105312, Note_off_c, 4, 71, 0
4, 105312, Note_on_c, 4, 68, 127
4, 105408, Note_off_c, 4, 68, 0
4, 105408, Note_on_c, 4, 73, 127
4, 105504, Note_off_c, 4, 73, 0
4, 105504, Note_on_c, 4, 68, 127
4, 105600, Note_off_c, 4, 68, 0
4, 105600, Note_on_c, 4, 71, 127
4, 105696, Note_off_c, 4, 71, 0
4, 105696, Note_on_c, 4, 68, 127
4, 105792, Note_off_c, 4, 68, 0
4, 105792, Note_on_c, 4, 66, 127
4, 105888, Note_off_c, 4, 66, 0
4, 105984, Note_on_c, 4, 64, 127
4, 106368, Note_off_c, 4, 64, 0
4, 106368, Note_on_c, 4, 61, 127
4, 106464, Note_off_c, 4, 61, 0
4, 106560, Note_on_c, 4, 64, 127
4, 106848, Note_off_c, 4, 64, 0
4, 106944, Note_on_c, 4, 66, 127
4, 107040, Note_on_c, 4, 61, 127
4, 107136, Note_off_c, 4, 61, 0
4, 107136, Note_off_c, 4, 66, 0
4, 107136, Note_on_c, 4, 64, 127
4, 107232, Note_off_c, 4, 64, 0
4, 107232, Note_on_c, 4, 66, 127
4, 107328, Note_off_c, 4, 66, 0
4, 107328, Note_on_c, 4, 64, 127
4, 107424, Note_off_c, 4, 64, 0
4, 107424, Note_on_c, 4, 61, 127
4, 107520, Note_off_c, 4, 61, 0
4, 107520, Note_on_c, 4, 71, 127
4, 107808, Note_off_c, 4, 71, 0
4, 107808, Note_on_c, 4, 68, 127
4, 107904, Note_off_c, 4, 68, 0
4, 107904, Note_on_c, 4, 73, 127
4, 108000, Note_off_c, 4, 73, 0
4, 108096, Note_on_c, 4, 71, 127
4, 108476, Note_off_c, 4, 71, 0
4, 108480, Note_on_c, 4, 73, 127
4, 108576, Note_off_c, 4, 73, 0
4, 108576, Note_on_c, 4, 68, 127
4, 108672, Note_off_c, 4, 68, 0
4, 108672, Note_on_c, 4, 71, 127
4, 108768, Note_off_c, 4, 71, 0
4, 108768, Note_on_c, 4, 68, 127
4, 108864, Note_off_c, 4, 68, 0
4, 108864, Note_on_c, 4, 66, 127
4, 108960, Note_off_c, 4, 66, 0
4, 108960, Note_on_c, 4, 61, 127
4, 109056, Note_off_c, 4, 61, 0
4, 109056, Note_on_c, 4, 64, 127
4, 109344, Note_off_c, 4, 64, 0
4, 109344, Note_on_c, 4, 61, 127
4, 109440, Note_off_c, 4, 61, 0
4, 109440, Note_on_c, 4, 66, 127
4, 109536, Note_off_c, 4, 66, 0
4, 109632, Note_on_c, 4, 64, 127
4, 109920, Note_off_c, 4, 64, 0
4, 110016, Note_on_c, 4, 66, 127
4, 110112, Note_off_c, 4, 66, 0
4, 110112, Note_on_c, 4, 61, 127
4, 110208, Note_off_c, 4, 61, 0
4, 110208, Note_on_c, 4, 64, 127
4, 110304, Note_off_c, 4, 64, 0
4, 110304, Note_on_c, 4, 68, 127
4, 110400, Note_off_c, 4, 68, 0
4, 110400, Note_on_c, 4, 71, 127
4, 110496, Note_off_c, 4, 71, 0
4, 110496, Note_on_c, 4, 68, 127
4, 110592, Note_off_c, 4, 68, 0
4, 110592, Note_on_c, 4, 71, 127
4, 110976, Note_off_c, 4, 71, 0
4, 110976, Note_on_c, 4, 73, 127
4, 111110, Note_off_c, 4, 73, 0
4, 111168, Note_on_c, 4, 71, 127
4, 111264, Note_off_c, 4, 71, 0
4, 111264, Note_on_c, 4, 73, 127
4, 111360, Note_off_c, 4, 73, 0
4, 111360, Note_on_c, 4, 71, 127
4, 111456, Note_off_c, 4, 71, 0
4, 111456, Note_on_c, 4, 68, 127
4, 111552, Note_off_c, 4, 68, 0
4, 111552, Note_on_c, 4, 73, 127
4, 111648, Note_off_c, 4, 73, 0
4, 111648, Note_on_c, 4, 68, 127
4, 111744, Note_off_c, 4, 68, 0
4, 111744, Note_on_c, 4, 71, 127
4, 112032, Note_off_c, 4, 71, 0
4, 112032, Note_on_c, 4, 68, 127
4, 112128, Note_off_c, 4, 68, 0
4, 112128, Note_on_c, 4, 73, 127
4, 112224, Note_off_c, 4, 73, 0
4, 112224, Note_on_c, 4, 68, 127
4, 112384, Note_off_c, 4, 68, 0
4, 112416, Note_on_c, 4, 71, 127
4, 112512, Note_off_c, 4, 71, 0
4, 112608, Note_on_c, 4, 73, 127
4, 112704, Note_off_c, 4, 73, 0
4, 112848, Note_on_c, 4, 76, 127
4, 112944, Note_off_c, 4, 76, 0
4, 112992, Note_on_c, 4, 78, 127
4, 113088, Note_off_c, 4, 78, 0
4, 113088, Note_on_c, 4, 76, 127
4, 113136, Note_off_c, 4, 76, 0
4, 113280, Note_on_c, 4, 76, 127
4, 113376, Note_off_c, 4, 76, 0
4, 113472, Note_on_c, 4, 78, 127
4, 113568, Note_off_c, 4, 78, 0
4, 113664, Note_on_c, 4, 78, 119
4, 113673, Pitch_bend_c, 4, 8448
4, 113676, Pitch_bend_c, 4, 9280
4, 113683, Pitch_bend_c, 4, 10688
4, 113689, Pitch_bend_c, 4, 12672
4, 113696, Pitch_bend_c, 4, 14432
4, 113699, Pitch_bend_c, 4, 15648
4, 113705, Pitch_bend_c, 4, 16288
4, 113708, Pitch_bend_c, 4, 16383
4, 114003, Pitch_bend_c, 4, 16192
4, 114012, Pitch_bend_c, 4, 15776
4, 114016, Pitch_bend_c, 4, 15008
4, 114019, Note_off_c, 4, 78, 0
4, 114022, Pitch_bend_c, 4, 13888
4, 114025, Pitch_bend_c, 4, 12576
4, 114032, Pitch_bend_c, 4, 11136
4, 114035, Pitch_bend_c, 4, 9856
4, 114044, Pitch_bend_c, 4, 8960
4, 114048, Note_on_c, 4, 78, 112
4, 114054, Pitch_bend_c, 4, 8192
4, 114054, Pitch_bend_c, 4, 8384
4, 114067, Pitch_bend_c, 4, 8480
4, 114070, Pitch_bend_c, 4, 9344
4, 114076, Pitch_bend_c, 4, 10816
4, 114080, Pitch_bend_c, 4, 12832
4, 114089, Pitch_bend_c, 4, 14592
4, 114089, Pitch_bend_c, 4, 15776
4, 114099, Pitch_bend_c, 4, 16383
4, 114294, Pitch_bend_c, 4, 16128
4, 114294, Pitch_bend_c, 4, 15552
4, 114304, Pitch_bend_c, 4, 14592
4, 114310, Pitch_bend_c, 4, 13184
4, 114313, Pitch_bend_c, 4, 11520
4, 114316, Pitch_bend_c, 4, 10048
4, 114323, Pitch_bend_c, 4, 8960
4, 114326, Pitch_bend_c, 4, 8352
4, 114332, Pitch_bend_c, 4, 8192
4, 114336, Note_off_c, 4, 78, 0
4, 114336, Note_on_c, 4, 78, 112
4, 114358, Pitch_bend_c, 4, 8832
4, 114361, Pitch_bend_c, 4, 10144
4, 114368, Pitch_bend_c, 4, 12064
4, 114371, Pitch_bend_c, 4, 14112
4, 114377, Pitch_bend_c, 4, 15488
4, 114384, Pitch_bend_c, 4, 16224
4, 114387, Pitch_bend_c, 4, 16383
4, 114528, Note_off_c, 4, 78, 0
4, 114528, Note_on_c, 4, 78, 124
4, 114611, Pitch_bend_c, 4, 16032
4, 114614, Pitch_bend_c, 4, 15360
4, 114624, Pitch_bend_c, 4, 14240
4, 114627, Pitch_bend_c, 4, 12736
4, 114633, Pitch_bend_c, 4, 11040
4, 114640, Pitch_bend_c, 4, 9664
4, 114646, Pitch_bend_c, 4, 8736
4, 114649, Pitch_bend_c, 4, 8224
4, 114656, Pitch_bend_c, 4, 8192
4, 114720, Note_off_c, 4, 78, 0
4, 114816, Note_on_c, 4, 76, 109
4, 114912, Note_off_c, 4, 76, 0
4, 115008, Note_on_c, 4, 78, 124
4, 115104, Note_off_c, 4, 78, 0
4, 115200, Note_on_c, 4, 78, 124
4, 115203, Pitch_bend_c, 4, 8768
4, 115212, Pitch_bend_c, 4, 9856
4, 115216, Pitch_bend_c, 4, 11488
4, 115219, Pitch_bend_c, 4, 13536
4, 115225, Pitch_bend_c, 4, 14976
4, 115232, Pitch_bend_c, 4, 15936
4, 115235, Pitch_bend_c, 4, 16383
4, 115283, Pitch_bend_c, 4, 16256
4, 115292, Pitch_bend_c, 4, 15840
4, 115296, Pitch_bend_c, 4, 15072
4, 115302, Pitch_bend_c, 4, 13888
4, 115305, Pitch_bend_c, 4, 12384
4, 115312, Pitch_bend_c, 4, 10752
4, 115315, Pitch_bend_c, 4, 9472
4, 115324, Pitch_bend_c, 4, 8608
4, 115328, Pitch_bend_c, 4, 8192
4, 115392, Note_off_c, 4, 78, 0
4, 115392, Note_on_c, 4, 76, 106
4, 115488, Note_off_c, 4, 76, 0
4, 115488, Note_on_c, 4, 78, 127
4, 115776, Note_off_c, 4, 78, 0
4, 115776, Note_on_c, 4, 76, 111
4, 115872, Note_off_c, 4, 76, 0
4, 115872, Note_on_c, 4, 73, 127
4, 115968, Note_off_c, 4, 73, 0
4, 115968, Note_on_c, 4, 76, 127
4, 116064, Note_off_c, 4, 76, 0
4, 116064, Note_on_c, 4, 78, 127
4, 116160, Note_off_c, 4, 78, 0
4, 116160, Note_on_c, 4, 76, 127
4, 116256, Note_off_c, 4, 76, 0
4, 116256, Note_on_c, 4, 73, 127
4, 116352, Note_off_c, 4, 73, 0
4, 116352, Note_on_c, 4, 76, 127
4, 116448, Note_off_c, 4, 76, 0
4, 116448, Note_on_c, 4, 76, 127
4, 116544, Note_off_c, 4, 76, 0
4, 116544, Note_on_c, 4, 78, 127
4, 116640, Note_off_c, 4, 78, 0
4, 116736, Note_on_c, 4, 78, 119
4, 116755, Pitch_bend_c, 4, 8544
4, 116758, Pitch_bend_c, 4, 9376
4, 116761, Pitch_bend_c, 4, 10720
4, 116771, Pitch_bend_c, 4, 12608
4, 116774, Pitch_bend_c, 4, 14304
4, 116780, Pitch_bend_c, 4, 15488
4, 116784, Pitch_bend_c, 4, 16192
4, 116790, Pitch_bend_c, 4, 16383
4, 116995, Pitch_bend_c, 4, 16032
4, 116998, Pitch_bend_c, 4, 15296
4, 117008, Pitch_bend_c, 4, 14080
4, 117011, Pitch_bend_c, 4, 12352
4, 117017, Pitch_bend_c, 4, 10624
4, 117024, Note_off_c, 4, 78, 0
4, 117024, Pitch_bend_c, 4, 9312
4, 117024, Note_on_c, 4, 78, 115
4, 117030, Pitch_bend_c, 4, 8480
4, 117033, Pitch_bend_c, 4, 8192
4, 117046, Pitch_bend_c, 4, 8640
4, 117052, Pitch_bend_c, 4, 9792
4, 117056, Pitch_bend_c, 4, 11744
4, 117062, Pitch_bend_c, 4, 13792
4, 117068, Pitch_bend_c, 4, 15360
4, 117072, Pitch_bend_c, 4, 16256
4, 117078, Pitch_bend_c, 4, 16383
4, 117273, Pitch_bend_c, 4, 16096
4, 117276, Pitch_bend_c, 4, 15424
4, 117283, Pitch_bend_c, 4, 14240
4, 117286, Pitch_bend_c, 4, 12416
4, 117292, Pitch_bend_c, 4, 10624
4, 117296, Pitch_bend_c, 4, 9248
4, 117305, Pitch_bend_c, 4, 8416
4, 117308, Pitch_bend_c, 4, 8192
4, 117312, Note_off_c, 4, 78, 0
4, 117312, Note_on_c, 4, 78, 115
4, 117315, Pitch_bend_c, 4, 8320
4, 117321, Pitch_bend_c, 4, 9184
4, 117328, Pitch_bend_c, 4, 10912
4, 117334, Pitch_bend_c, 4, 12928
4, 117337, Pitch_bend_c, 4, 14848
4, 117344, Pitch_bend_c, 4, 16000
4, 117350, Pitch_bend_c, 4, 16383
4, 117763, Pitch_bend_c, 4, 15968
4, 117769, Pitch_bend_c, 4, 15200
4, 117772, Pitch_bend_c, 4, 13984
4, 117779, Pitch_bend_c, 4, 12384
4, 117785, Pitch_bend_c, 4, 10976
4, 117792, Note_off_c, 4, 78, 0
4, 117792, Pitch_bend_c, 4, 9984
4, 117792, Note_on_c, 4, 78, 119
4, 117795, Pitch_bend_c, 4, 9664
4, 117801, Pitch_bend_c, 4, 10208
4, 117808, Pitch_bend_c, 4, 11648
4, 117814, Pitch_bend_c, 4, 13408
4, 117817, Pitch_bend_c, 4, 14944
4, 117824, Pitch_bend_c, 4, 16000
4, 117827, Pitch_bend_c, 4, 16383
4, 117897, Pitch_bend_c, 4, 16000
4, 117904, Pitch_bend_c, 4, 15104
4, 117907, Pitch_bend_c, 4, 13632
4, 117913, Pitch_bend_c, 4, 11616
4, 117920, Pitch_bend_c, 4, 9920
4, 117923, Pitch_bend_c, 4, 8736
4, 117926, Pitch_bend_c, 4, 8192
4, 117974, Pitch_bend_c, 4, 8224
4, 117980, Pitch_bend_c, 4, 8416
4, 117987, Pitch_bend_c, 4, 8608
4, 117993, Pitch_bend_c, 4, 8768
4, 117996, Pitch_bend_c, 4, 8896
4, 118009, Pitch_bend_c, 4, 8736
4, 118012, Pitch_bend_c, 4, 8544
4, 118019, Pitch_bend_c, 4, 8352
4, 118022, Pitch_bend_c, 4, 8192
4, 118080, Note_off_c, 4, 78, 0
4, 118080, Note_on_c, 4, 76, 117
4, 118272, Note_off_c, 4, 76, 0
4, 118272, Note_on_c, 4, 78, 127
4, 118464, Pitch_bend_c, 4, 8608
4, 118467, Pitch_bend_c, 4, 9600
4, 118473, Pitch_bend_c, 4, 11264
4, 118476, Pitch_bend_c, 4, 13312
4, 118483, Pitch_bend_c, 4, 14944
4, 118486, Pitch_bend_c, 4, 15968
4, 118496, Pitch_bend_c, 4, 16383
4, 118656, Note_off_c, 4, 78, 0
4, 118656, Note_on_c, 4, 78, 115
4, 118659, Pitch_bend_c, 4, 16320
4, 118662, Pitch_bend_c, 4, 16256
4, 118675, Pitch_bend_c, 4, 16192
4, 118688, Pitch_bend_c, 4, 16288
4, 118691, Pitch_bend_c, 4, 16383
4, 118828, Pitch_bend_c, 4, 15968
4, 118832, Pitch_bend_c, 4, 15072
4, 118835, Pitch_bend_c, 4, 13568
4, 118844, Pitch_bend_c, 4, 11520
4, 118848, Pitch_bend_c, 4, 9856
4, 118854, Pitch_bend_c, 4, 8704
4, 118860, Pitch_bend_c, 4, 8192
4, 118944, Note_off_c, 4, 78, 0
4, 118944, Note_on_c, 4, 78, 115
4, 119232, Note_off_c, 4, 78, 0
4, 119232, Note_on_c, 4, 76, 127
4, 119328, Note_off_c, 4, 76, 0
4, 119328, Note_on_c, 4, 73, 127
4, 119424, Note_off_c, 4, 73, 0
4, 119424, Note_on_c, 4, 76, 127
4, 119520, Note_off_c, 4, 76, 0
4, 119520, Note_on_c, 4, 73, 127
4, 119616, Note_off_c, 4, 73, 0
4, 119616, Note_on_c, 4, 71, 127
4, 119712, Note_off_c, 4, 71, 0
4, 119712, Note_on_c, 4, 68, 127
4, 119808, Note_off_c, 4, 68, 0
4, 119808, Note_on_c, 4, 73, 127
4, 119904, Note_off_c, 4, 73, 0
4, 119904, Note_on_c, 4, 68, 127
4, 120000, Note_off_c, 4, 68, 0
4, 120000, Note_on_c, 4, 71, 127
4, 120096, Note_off_c, 4, 71, 0
4, 120096, Note_on_c, 4, 73, 127
4, 120192, Note_off_c, 4, 73, 0
4, 120192, Note_on_c, 4, 71, 127
4, 120288, Note_off_c, 4, 71, 0
4, 120288, Note_on_c, 4, 68, 127
4, 120384, Note_off_c, 4, 68, 0
4, 120384, Note_on_c, 4, 73, 127
4, 120480, Note_off_c, 4, 73, 0
4, 120480, Note_on_c, 4, 68, 127
4, 120576, Note_off_c, 4, 68, 0
4, 120576, Note_on_c, 4, 71, 127
4, 120672, Note_off_c, 4, 71, 0
4, 120672, Note_on_c, 4, 68, 127
4, 120768, Note_off_c, 4, 68, 0
4, 120768, Note_on_c, 4, 66, 127
4, 120864, Note_off_c, 4, 66, 0
4, 120864, Note_on_c, 4, 68, 127
4, 120960, Note_off_c, 4, 68, 0
4, 120960, Note_on_c, 4, 71, 127
4, 121056, Note_off_c, 4, 71, 0
4, 121056, Note_on_c, 4, 68, 127
4, 121152, Note_off_c, 4, 68, 0
4, 121152, Note_on_c, 4, 73, 127
4, 121248, Note_off_c, 4, 73, 0
4, 121248, Note_on_c, 4, 68, 127
4, 121344, Note_off_c, 4, 68, 0
4, 121344, Note_on_c, 4, 71, 127
4, 121440, Note_off_c, 4, 71, 0
4, 121440, Note_on_c, 4, 68, 127
4, 121536, Note_off_c, 4, 68, 0
4, 121536, Note_on_c, 4, 66, 127
4, 121632, Note_off_c, 4, 66, 0
4, 121632, Note_on_c, 4, 68, 127
4, 121728, Note_off_c, 4, 68, 0
4, 121728, Note_on_c, 4, 71, 127
4, 121824, Note_off_c, 4, 71, 0
4, 121824, Note_on_c, 4, 68, 127
4, 121920, Note_off_c, 4, 68, 0
4, 121920, Note_on_c, 4, 66, 127
4, 122016, Note_off_c, 4, 66, 0
4, 122016, Note_on_c, 4, 68, 127
4, 122112, Note_off_c, 4, 68, 0
4, 122112, Note_on_c, 4, 71, 127
4, 122208, Note_off_c, 4, 71, 0
4, 122208, Note_on_c, 4, 68, 127
4, 122304, Note_off_c, 4, 68, 0
4, 122304, Note_on_c, 4, 73, 127
4, 122400, Note_off_c, 4, 73, 0
4, 122400, Note_on_c, 4, 68, 127
4, 122496, Note_off_c, 4, 68, 0
4, 122496, Note_on_c, 4, 71, 127
4, 122592, Note_off_c, 4, 71, 0
4, 122592, Note_on_c, 4, 68, 127
4, 122688, Note_off_c, 4, 68, 0
4, 122688, Note_on_c, 4, 66, 127
4, 122784, Note_off_c, 4, 66, 0
4, 122784, Note_on_c, 4, 68, 127
4, 122880, Note_off_c, 4, 68, 0
4, 122880, Note_on_c, 4, 71, 127
4, 122976, Note_off_c, 4, 71, 0
4, 122976, Note_on_c, 4, 73, 127
4, 123168, Note_off_c, 4, 73, 0
4, 123168, Note_on_c, 4, 76, 127
4, 123360, Note_off_c, 4, 76, 0
4, 123360, Note_on_c, 4, 78, 127
4, 123552, Note_off_c, 4, 78, 0
4, 123552, Note_on_c, 4, 78, 127
4, 123568, Pitch_bend_c, 4, 8480
4, 123574, Pitch_bend_c, 4, 9088
4, 123577, Pitch_bend_c, 4, 10048
4, 123584, Pitch_bend_c, 4, 11392
4, 123590, Pitch_bend_c, 4, 12864
4, 123596, Pitch_bend_c, 4, 14272
4, 123600, Pitch_bend_c, 4, 15360
4, 123606, Pitch_bend_c, 4, 16064
4, 123609, Pitch_bend_c, 4, 16383
4, 123737, Pitch_bend_c, 4, 16032
4, 123744, Note_off_c, 4, 78, 0
4, 123744, Pitch_bend_c, 4, 15392
4, 123744, Note_on_c, 4, 78, 125
4, 123747, Pitch_bend_c, 4, 14400
4, 123750, Pitch_bend_c, 4, 13120
4, 123756, Pitch_bend_c, 4, 11936
4, 123766, Pitch_bend_c, 4, 11136
4, 123769, Pitch_bend_c, 4, 10784
4, 123776, Pitch_bend_c, 4, 11008
4, 123779, Pitch_bend_c, 4, 11776
4, 123785, Pitch_bend_c, 4, 13056
4, 123788, Pitch_bend_c, 4, 14400
4, 123798, Pitch_bend_c, 4, 15488
4, 123801, Pitch_bend_c, 4, 16160
4, 123808, Pitch_bend_c, 4, 16383
4, 123852, Pitch_bend_c, 4, 16224
4, 123862, Pitch_bend_c, 4, 15616
4, 123865, Pitch_bend_c, 4, 14400
4, 123872, Pitch_bend_c, 4, 12448
4, 123878, Pitch_bend_c, 4, 10496
4, 123881, Pitch_bend_c, 4, 9088
4, 123888, Pitch_bend_c, 4, 8288
4, 123894, Pitch_bend_c, 4, 8192
4, 124032, Note_off_c, 4, 78, 0
4, 124032, Note_on_c, 4, 78, 127
4, 124224, Note_off_c, 4, 78, 0
4, 124224, Note_on_c, 4, 76, 127
4, 124416, Note_off_c, 4, 76, 0
4, 124416, Note_on_c, 4, 78, 127
4, 124512, Note_off_c, 4, 78, 0
4, 124512, Note_on_c, 4, 80, 127
4, 124704, Note_off_c, 4, 80, 0
4, 124704, Note_on_c, 4, 80, 127
4, 124992, Note_off_c, 4, 80, 0
4, 124992, Note_on_c, 4, 81, 127
4, 125184, Note_off_c, 4, 81, 0
4, 125184, Note_on_c, 4, 81, 127
4, 125280, Note_off_c, 4, 81, 0
4, 125280, Note_on_c, 4, 81, 127
4, 125376, Note_off_c, 4, 81, 0
4, 125376, Note_on_c, 4, 80, 127
4, 125568, Note_off_c, 4, 80, 0
4, 125568, Note_on_c, 4, 80, 127
4, 125760, Note_off_c, 4, 80, 0
4, 125760, Note_on_c, 4, 78, 127
4, 125952, Note_off_c, 4, 78, 0
4, 125952, Note_on_c, 4, 78, 127
4, 126048, Note_off_c, 4, 78, 0
4, 126048, Note_on_c, 4, 80, 127
4, 126240, Note_off_c, 4, 80, 0
4, 126240, Note_on_c, 4, 81, 127
4, 126528, Note_off_c, 4, 81, 0
4, 126528, Note_on_c, 4, 83, 127
4, 126720, Note_off_c, 4, 83, 0
4, 126720, Note_on_c, 4, 83, 127
4, 127008, Note_off_c, 4, 83, 0
4, 127008, Note_on_c, 4, 83, 127
4, 127200, Note_off_c, 4, 83, 0
4, 127200, Note_on_c, 4, 83, 121
4, 127248, Pitch_bend_c, 4, 8352
4, 127251, Pitch_bend_c, 4, 8960
4, 127260, Pitch_bend_c, 4, 10112
4, 127264, Pitch_bend_c, 4, 11872
4, 127270, Pitch_bend_c, 4, 13760
4, 127273, Pitch_bend_c, 4, 15168
4, 127280, Pitch_bend_c, 4, 16032
4, 127283, Pitch_bend_c, 4, 16383
4, 127456, Pitch_bend_c, 4, 16192
4, 127459, Pitch_bend_c, 4, 15712
4, 127465, Pitch_bend_c, 4, 14816
4, 127472, Pitch_bend_c, 4, 13536
4, 127475, Pitch_bend_c, 4, 12032
4, 127481, Pitch_bend_c, 4, 10752
4, 127488, Note_off_c, 4, 83, 0
4, 127488, Note_on_c, 4, 83, 117
4, 127488, Pitch_bend_c, 4, 9984
4, 127497, Pitch_bend_c, 4, 10816
4, 127504, Pitch_bend_c, 4, 12480
4, 127510, Pitch_bend_c, 4, 14112
4, 127513, Pitch_bend_c, 4, 15424
4, 127520, Pitch_bend_c, 4, 16224
4, 127523, Pitch_bend_c, 4, 16383
4, 127676, Pitch_bend_c, 4, 15968
4, 127683, Pitch_bend_c, 4, 15040
4, 127689, Pitch_bend_c, 4, 13408
4, 127692, Pitch_bend_c, 4, 11392
4, 127699, Pitch_bend_c, 4, 9728
4, 127705, Pitch_bend_c, 4, 8608
4, 127708, Pitch_bend_c, 4, 8192
4, 127872, Note_off_c, 4, 83, 0
4, 127872, Note_on_c, 4, 83, 124
4, 128064, Note_off_c, 4, 83, 0
4, 128064, Note_on_c, 4, 81, 109
4, 128160, Note_off_c, 4, 81, 0
4, 128160, Note_on_c, 4, 81, 121
4, 128448, Note_off_c, 4, 81, 0
4, 128448, Note_on_c, 4, 80, 127
4, 128640, Note_off_c, 4, 80, 0
4, 128640, Note_on_c, 4, 80, 127
4, 128736, Note_off_c, 4, 80, 0
4, 128736, Note_on_c, 4, 81, 127
4, 128832, Note_off_c, 4, 81, 0
4, 128832, Note_on_c, 4, 80, 127
4, 129024, Note_off_c, 4, 80, 0
4, 129024, Note_on_c, 4, 80, 127
4, 129216, Note_off_c, 4, 80, 0
4, 129216, Note_on_c, 4, 81, 127
4, 129408, Note_off_c, 4, 81, 0
4, 129408, Note_on_c, 4, 81, 127
4, 129504, Note_off_c, 4, 81, 0
4, 129504, Note_on_c, 4, 81, 127
4, 129600, Note_off_c, 4, 81, 0
4, 129600, Note_on_c, 4, 80, 127
4, 129792, Note_off_c, 4, 80, 0
4, 129792, Note_on_c, 4, 80, 127
4, 129888, Note_off_c, 4, 80, 0
4, 129888, Note_on_c, 4, 80, 127
4, 129984, Note_off_c, 4, 80, 0
4, 129984, Note_on_c, 4, 78, 127
4, 130176, Note_off_c, 4, 78, 0
4, 130176, Note_on_c, 4, 78, 127
4, 130272, Note_off_c, 4, 78, 0
4, 130272, Note_on_c, 4, 78, 127
4, 130368, Note_off_c, 4, 78, 0
4, 130368, Note_on_c, 4, 76, 127
4, 130560, Note_off_c, 4, 76, 0
4, 130560, Note_on_c, 4, 76, 127
4, 130656, Note_off_c, 4, 76, 0
4, 130656, Note_on_c, 4, 76, 127
4, 130752, Note_off_c, 4, 76, 0
4, 130752, Note_on_c, 4, 73, 127
4, 130848, Note_off_c, 4, 73, 0
4, 130848, Note_on_c, 4, 71, 127
4, 130944, Note_off_c, 4, 71, 0
4, 130944, Note_on_c, 4, 73, 127
4, 131040, Note_off_c, 4, 73, 0
4, 131040, Note_on_c, 4, 76, 127
4, 131136, Note_off_c, 4, 76, 0
4, 131136, Note_on_c, 4, 73, 127
4, 131232, Note_off_c, 4, 73, 0
4, 131328, Note_on_c, 4, 76, 127
4, 131424, Note_off_c, 4, 76, 0
4, 131520, Note_on_c, 4, 73, 127
4, 131616, Note_off_c, 4, 73, 0
4, 131616, Note_on_c, 4, 76, 127
4, 131712, Note_off_c, 4, 76, 0
4, 131712, Note_on_c, 4, 73, 127
4, 131808, Note_off_c, 4, 73, 0
4, 131808, Note_on_c, 4, 71, 127
4, 131904, Note_off_c, 4, 71, 0
4, 131904, Note_on_c, 4, 76, 127
4, 132000, Note_off_c, 4, 76, 0
4, 132000, Note_on_c, 4, 71, 127
4, 132096, Note_off_c, 4, 71, 0
4, 132096, Note_on_c, 4, 73, 127
4, 132192, Note_off_c, 4, 73, 0
4, 132192, Note_on_c, 4, 76, 127
4, 132288, Note_off_c, 4, 76, 0
4, 132288, Note_on_c, 4, 73, 127
4, 132384, Note_off_c, 4, 73, 0
4, 132384, Note_on_c, 4, 76, 121
4, 132428, Pitch_bend_c, 4, 8512
4, 132435, Pitch_bend_c, 4, 9312
4, 132441, Pitch_bend_c, 4, 10816
4, 132448, Pitch_bend_c, 4, 12832
4, 132451, Pitch_bend_c, 4, 14560
4, 132457, Pitch_bend_c, 4, 15776
4, 132460, Pitch_bend_c, 4, 16383
4, 132672, Note_off_c, 4, 76, 0
4, 132672, Note_on_c, 4, 76, 124
4, 132700, Pitch_bend_c, 4, 16288
4, 132704, Pitch_bend_c, 4, 15712
4, 132710, Pitch_bend_c, 4, 14336
4, 132713, Pitch_bend_c, 4, 12288
4, 132723, Pitch_bend_c, 4, 9952
4, 132726, Pitch_bend_c, 4, 8512
4, 132732, Pitch_bend_c, 4, 7840
4, 132742, Pitch_bend_c, 4, 8192
4, 133052, Note_off_c, 4, 76, 0
4, 133056, Note_on_c, 4, 73, 127
4, 133152, Note_off_c, 4, 73, 0
4, 133152, Note_on_c, 4, 71, 127
4, 133248, Note_off_c, 4, 71, 0
4, 133248, Note_on_c, 4, 73, 127
4, 133344, Note_off_c, 4, 73, 0
4, 133344, Note_on_c, 4, 71, 127
4, 133440, Note_off_c, 4, 71, 0
4, 133440, Note_on_c, 4, 68, 127
4, 133536, Note_off_c, 4, 68, 0
4, 133536, Note_on_c, 4, 66, 127
4, 133632, Note_off_c, 4, 66, 0
4, 133632, Note_on_c, 4, 68, 127
4, 133728, Note_off_c, 4, 68, 0
4, 133728, Note_on_c, 4, 69, 127
4, 133824, Note_off_c, 4, 69, 0
4, 133824, Note_on_c, 4, 68, 127
4, 133920, Note_off_c, 4, 68, 0
4, 133920, Note_on_c, 4, 66, 127
4, 134016, Note_off_c, 4, 66, 0
4, 134016, Note_on_c, 4, 69, 127
4, 134208, Note_off_c, 4, 69, 0
4, 134208, Note_on_c, 4, 68, 127
4, 134304, Note_off_c, 4, 68, 0
4, 134304, Note_on_c, 4, 66, 127
4, 134400, Note_off_c, 4, 66, 0
4, 134400, Note_on_c, 4, 64, 127
4, 134496, Note_off_c, 4, 64, 0
4, 134496, Note_on_c, 4, 61, 127
4, 134592, Note_off_c, 4, 61, 0
4, 134592, Note_on_c, 4, 59, 127
4, 134688, Note_off_c, 4, 59, 0
4, 134688, Note_on_c, 4, 61, 127
4, 134784, Note_off_c, 4, 61, 0
4, 134784, Note_on_c, 4, 64, 127
4, 134880, Note_off_c, 4, 64, 0
4, 134880, Note_on_c, 4, 64, 127
4, 135072, Note_off_c, 4, 64, 0
4, 135072, Note_on_c, 4, 64, 127
4, 135168, Note_off_c, 4, 64, 0
4, 135168, Note_on_c, 4, 59, 127
4, 135264, Note_off_c, 4, 59, 0
4, 135264, Note_on_c, 4, 61, 127
4, 135360, Note_off_c, 4, 61, 0
4, 135360, Note_on_c, 4, 64, 127
4, 135456, Note_off_c, 4, 64, 0
4, 135456, Note_on_c, 4, 68, 127
4, 135648, Note_off_c, 4, 68, 0
4, 135648, Note_on_c, 4, 71, 127
4, 135840, Note_off_c, 4, 71, 0
4, 135840, Note_on_c, 4, 73, 127
4, 136032, Note_off_c, 4, 73, 0
4, 136032, Note_on_c, 4, 76, 127
4, 136224, Note_off_c, 4, 76, 0
4, 136224, Note_on_c, 4, 78, 127
4, 136416, Note_off_c, 4, 78, 0
4, 136416, Note_on_c, 4, 76, 127
4, 136608, Note_off_c, 4, 76, 0
4, 136608, Note_on_c, 4, 76, 127
4, 136704, Note_off_c, 4, 76, 0
4, 136704, Note_on_c, 4, 61, 127
4, 136992, Note_off_c, 4, 61, 0
4, 136992, Note_on_c, 4, 66, 127
4, 137088, Note_off_c, 4, 66, 0
4, 137088, Note_on_c, 4, 68, 127
4, 137184, Note_off_c, 4, 68, 0
4, 137184, Note_on_c, 4, 71, 127
4, 137376, Note_off_c, 4, 71, 0
4, 137376, Note_on_c, 4, 73, 127
4, 137568, Note_off_c, 4, 73, 0
4, 137568, Note_on_c, 4, 71, 127
4, 137760, Note_off_c, 4, 71, 0
4, 137760, Note_on_c, 4, 66, 127
4, 137952, Note_off_c, 4, 66, 0
4, 137952, Note_on_c, 4, 64, 127
4, 138144, Note_off_c, 4, 64, 0
4, 138144, Note_on_c, 4, 64, 127
4, 138240, Note_off_c, 4, 64, 0
4, 138240, Note_on_c, 4, 59, 127
4, 138336, Note_off_c, 4, 59, 0
4, 138336, Note_on_c, 4, 61, 127
4, 138432, Note_off_c, 4, 61, 0
4, 138432, Note_on_c, 4, 64, 127
4, 138528, Note_off_c, 4, 64, 0
4, 138528, Note_on_c, 4, 68, 127
4, 138720, Note_off_c, 4, 68, 0
4, 138720, Note_on_c, 4, 71, 127
4, 138912, Note_off_c, 4, 71, 0
4, 138912, Note_on_c, 4, 73, 127
4, 139104, Note_off_c, 4, 73, 0
4, 139104, Note_on_c, 4, 76, 127
4, 139296, Note_off_c, 4, 76, 0
4, 139296, Note_on_c, 4, 78, 127
4, 139488, Note_off_c, 4, 78, 0
4, 139488, Note_on_c, 4, 76, 127
4, 139680, Note_off_c, 4, 76, 0
4, 139776, Note_on_c, 4, 59, 127
4, 139872, Note_off_c, 4, 59, 0
4, 139872, Note_on_c, 4, 61, 100
4, 139968, Note_off_c, 4, 61, 0
4, 139968, Note_on_c, 4, 64, 103
4, 140064, Note_off_c, 4, 64, 0
4, 140064, Note_on_c, 4, 68, 127
4, 140256, Note_off_c, 4, 68, 0
4, 140256, Note_on_c, 4, 71, 127
4, 140448, Note_off_c, 4, 71, 0
4, 140448, Note_on_c, 4, 73, 127
4, 140640, Note_off_c, 4, 73, 0
4, 140640, Note_on_c, 4, 71, 127
4, 140736, Note_off_c, 4, 71, 0
4, 140736, Note_on_c, 4, 66, 127
4, 140928, Note_off_c, 4, 66, 0
4, 140928, Note_on_c, 4, 64, 127
4, 141120, Note_off_c, 4, 64, 0
4, 141120, Note_on_c, 4, 61, 127
4, 141216, Note_off_c, 4, 61, 0
4, 141312, Note_on_c, 4, 59, 127
4, 141312, Note_on_c, 4, 64, 127
4, 141408, Note_off_c, 4, 64, 0
4, 141408, Note_off_c, 4, 59, 0
4, 141408, Note_on_c, 4, 61, 127
4, 141408, Note_on_c, 4, 66, 127
4, 141504, Note_off_c, 4, 66, 0
4, 141504, Note_off_c, 4, 61, 0
4, 141504, Note_on_c, 4, 64, 127
4, 141504, Note_on_c, 4, 68, 127
4, 141600, Note_off_c, 4, 68, 0
4, 141600, Note_off_c, 4, 64, 0
4, 141600, Note_on_c, 4, 66, 127
4, 141600, Note_on_c, 4, 69, 127
4, 141696, Note_off_c, 4, 69, 0
4, 141696, Note_off_c, 4, 66, 0
4, 141696, Note_on_c, 4, 64, 127
4, 141696, Note_on_c, 4, 68, 127
4, 141792, Note_off_c, 4, 68, 0
4, 141792, Note_off_c, 4, 64, 0
4, 141792, Note_on_c, 4, 61, 127
4, 141792, Note_on_c, 4, 66, 127
4, 141888, Note_off_c, 4, 66, 0
4, 141888, Note_off_c, 4, 61, 0
4, 141888, Note_on_c, 4, 59, 127
4, 141888, Note_on_c, 4, 64, 127
4, 141984, Note_off_c, 4, 64, 0
4, 141984, Note_off_c, 4, 59, 0
4, 141984, Note_on_c, 4, 61, 127
4, 141984, Note_on_c, 4, 66, 127
4, 142080, Note_off_c, 4, 66, 0
4, 142080, Note_off_c, 4, 61, 0
4, 142080, Note_on_c, 4, 64, 127
4, 142080, Note_on_c, 4, 68, 127
4, 142176, Note_off_c, 4, 68, 0
4, 142176, Note_off_c, 4, 64, 0
4, 142176, Note_on_c, 4, 66, 127
4, 142176, Note_on_c, 4, 69, 127
4, 142272, Note_off_c, 4, 69, 0
4, 142272, Note_off_c, 4, 66, 0
4, 142272, Note_on_c, 4, 64, 127
4, 142272, Note_on_c, 4, 68, 127
4, 142368, Note_off_c, 4, 68, 0
4, 142368, Note_off_c, 4, 64, 0
4, 142368, Note_on_c, 4, 61, 127
4, 142368, Note_on_c, 4, 66, 127
4, 142464, Note_off_c, 4, 66, 0
4, 142464, Note_off_c, 4, 61, 0
4, 142464, Note_on_c, 4, 64, 127
4, 142464, Note_on_c, 4, 68, 127
4, 142560, Note_off_c, 4, 68, 0
4, 142560, Note_off_c, 4, 64, 0
4, 142560, Note_on_c, 4, 61, 127
4, 142560, Note_on_c, 4, 66, 127
4, 142656, Note_off_c, 4, 66, 0
4, 142656, Note_off_c, 4, 61, 0
4, 142656, Note_on_c, 4, 59, 127
4, 142656, Note_on_c, 4, 64, 127
4, 142752, Note_off_c, 4, 64, 0
4, 142752, Note_off_c, 4, 59, 0
4, 142752, Note_on_c, 4, 56, 127
4, 142752, Note_on_c, 4, 61, 127
4, 142848, Note_off_c, 4, 61, 0
4, 142848, Note_off_c, 4, 56, 0
4, 142848, Note_on_c, 4, 54, 127
4, 142848, Note_on_c, 4, 59, 127
4, 142944, Note_off_c, 4, 59, 0
4, 142944, Note_off_c, 4, 54, 0
4, 142944, Note_on_c, 4, 56, 127
4, 142944, Note_on_c, 4, 61, 127
4, 143040, Note_off_c, 4, 61, 0
4, 143040, Note_off_c, 4, 56, 0
4, 143040, Note_on_c, 4, 59, 127
4, 143040, Note_on_c, 4, 64, 127
4, 143136, Note_off_c, 4, 64, 0
4, 143136, Note_off_c, 4, 59, 0
4, 143136, Note_on_c, 4, 61, 127
4, 143136, Note_on_c, 4, 66, 127
4, 143232, Note_off_c, 4, 66, 0
4, 143232, Note_off_c, 4, 61, 0
4, 143232, Note_on_c, 4, 59, 127
4, 143232, Note_on_c, 4, 64, 127
4, 143328, Note_off_c, 4, 64, 0
4, 143328, Note_off_c, 4, 59, 0
4, 143328, Note_on_c, 4, 56, 127
4, 143328, Note_on_c, 4, 61, 127
4, 143424, Note_off_c, 4, 61, 0
4, 143424, Note_off_c, 4, 56, 0
4, 143424, Note_on_c, 4, 54, 127
4, 143424, Note_on_c, 4, 59, 127
4, 143520, Note_off_c, 4, 59, 0
4, 143520, Note_off_c, 4, 54, 0
4, 143520, Note_on_c, 4, 56, 127
4, 143520, Note_on_c, 4, 61, 127
4, 143616, Note_off_c, 4, 61, 0
4, 143616, Note_off_c, 4, 56, 0
4, 143616, Note_on_c, 4, 59, 127
4, 143616, Note_on_c, 4, 64, 127
4, 143712, Note_off_c, 4, 64, 0
4, 143712, Note_off_c, 4, 59, 0
4, 143712, Note_on_c, 4, 61, 127
4, 143712, Note_on_c, 4, 66, 127
4, 143808, Note_off_c, 4, 66, 0
4, 143808, Note_off_c, 4, 61, 0
4, 143808, Note_on_c, 4, 59, 127
4, 143808, Note_on_c, 4, 64, 127
4, 143904, Note_off_c, 4, 64, 0
4, 143904, Note_off_c, 4, 59, 0
4, 143904, Note_on_c, 4, 56, 127
4, 143904, Note_on_c, 4, 61, 127
4, 144000, Note_off_c, 4, 61, 0
4, 144000, Note_off_c, 4, 56, 0
4, 144000, Note_on_c, 4, 59, 127
4, 144000, Note_on_c, 4, 64, 127
4, 144096, Note_off_c, 4, 64, 0
4, 144096, Note_off_c, 4, 59, 0
4, 144096, Note_on_c, 4, 56, 127
4, 144096, Note_on_c, 4, 61, 127
4, 144192, Note_off_c, 4, 61, 0
4, 144192, Note_off_c, 4, 56, 0
4, 144192, Note_on_c, 4, 54, 127
4, 144192, Note_on_c, 4, 59, 127
4, 144288, Note_off_c, 4, 59, 0
4, 144288, Note_off_c, 4, 54, 0
4, 144288, Note_on_c, 4, 56, 127
4, 144288, Note_on_c, 4, 61, 127
4, 144384, Note_off_c, 4, 61, 0
4, 144384, Note_off_c, 4, 56, 0
4, 144384, Note_on_c, 4, 59, 127
4, 144384, Note_on_c, 4, 64, 127
4, 144480, Note_off_c, 4, 64, 0
4, 144480, Note_off_c, 4, 59, 0
4, 144480, Note_on_c, 4, 61, 127
4, 144480, Note_on_c, 4, 66, 127
4, 144576, Note_off_c, 4, 66, 0
4, 144576, Note_off_c, 4, 61, 0
4, 144576, Note_on_c, 4, 64, 127
4, 144576, Note_on_c, 4, 68, 127
4, 144672, Note_off_c, 4, 68, 0
4, 144672, Note_off_c, 4, 64, 0
4, 144672, Note_on_c, 4, 66, 127
4, 144672, Note_on_c, 4, 69, 127
4, 144768, Note_off_c, 4, 69, 0
4, 144768, Note_off_c, 4, 66, 0
4, 144768, Note_on_c, 4, 64, 127
4, 144768, Note_on_c, 4, 68, 127
4, 144864, Note_off_c, 4, 68, 0
4, 144864, Note_off_c, 4, 64, 0
4, 144864, Note_on_c, 4, 61, 127
4, 144864, Note_on_c, 4, 66, 127
4, 144960, Note_off_c, 4, 66, 0
4, 144960, Note_off_c, 4, 61, 0
4, 144960, Note_on_c, 4, 59, 127
4, 144960, Note_on_c, 4, 64, 127
4, 145056, Note_off_c, 4, 64, 0
4, 145056, Note_off_c, 4, 59, 0
4, 145056, Note_on_c, 4, 61, 127
4, 145056, Note_on_c, 4, 66, 127
4, 145152, Note_off_c, 4, 66, 0
4, 145152, Note_off_c, 4, 61, 0
4, 145152, Note_on_c, 4, 64, 127
4, 145152, Note_on_c, 4, 68, 127
4, 145248, Note_off_c, 4, 68, 0
4, 145248, Note_off_c, 4, 64, 0
4, 145248, Note_on_c, 4, 66, 127
4, 145248, Note_on_c, 4, 69, 127
4, 145344, Note_off_c, 4, 69, 0
4, 145344, Note_off_c, 4, 66, 0
4, 145344, Note_on_c, 4, 64, 127
4, 145344, Note_on_c, 4, 68, 127
4, 145440, Note_off_c, 4, 68, 0
4, 145440, Note_off_c, 4, 64, 0
4, 145440, Note_on_c, 4, 61, 127
4, 145440, Note_on_c, 4, 66, 127
4, 145536, Note_off_c, 4, 66, 0
4, 145536, Note_off_c, 4, 61, 0
4, 145536, Note_on_c, 4, 64, 127
4, 145536, Note_on_c, 4, 68, 127
4, 145632, Note_off_c, 4, 68, 0
4, 145632, Note_off_c, 4, 64, 0
4, 145632, Note_on_c, 4, 61, 127
4, 145632, Note_on_c, 4, 66, 127
4, 145728, Note_off_c, 4, 66, 0
4, 145728, Note_off_c, 4, 61, 0
4, 145728, Note_on_c, 4, 59, 127
4, 145728, Note_on_c, 4, 64, 127
4, 145824, Note_off_c, 4, 64, 0
4, 145824, Note_off_c, 4, 59, 0
4, 145824, Note_on_c, 4, 56, 127
4, 145824, Note_on_c, 4, 61, 127
4, 145920, Note_off_c, 4, 61, 0
4, 145920, Note_off_c, 4, 56, 0
4, 145920, Note_on_c, 4, 54, 127
4, 145920, Note_on_c, 4, 59, 127
4, 146016, Note_off_c, 4, 59, 0
4, 146016, Note_off_c, 4, 54, 0
4, 146016, Note_on_c, 4, 56, 127
4, 146016, Note_on_c, 4, 61, 127
4, 146112, Note_off_c, 4, 61, 0
4, 146112, Note_off_c, 4, 56, 0
4, 146112, Note_on_c, 4, 59, 127
4, 146112, Note_on_c, 4, 64, 127
4, 146208, Note_off_c, 4, 64, 0
4, 146208, Note_off_c, 4, 59, 0
4, 146208, Note_on_c, 4, 61, 127
4, 146208, Note_on_c, 4, 66, 127
4, 146304, Note_off_c, 4, 66, 0
4, 146304, Note_off_c, 4, 61, 0
4, 146304, Note_on_c, 4, 59, 127
4, 146304, Note_on_c, 4, 64, 127
4, 146400, Note_off_c, 4, 64, 0
4, 146400, Note_off_c, 4, 59, 0
4, 146400, Note_on_c, 4, 56, 127
4, 146400, Note_on_c, 4, 61, 127
4, 146496, Note_off_c, 4, 61, 0
4, 146496, Note_off_c, 4, 56, 0
4, 146496, Note_on_c, 4, 54, 127
4, 146496, Note_on_c, 4, 59, 127
4, 146592, Note_off_c, 4, 59, 0
4, 146592, Note_off_c, 4, 54, 0
4, 146592, Note_on_c, 4, 56, 127
4, 146592, Note_on_c, 4, 61, 127
4, 146688, Note_off_c, 4, 61, 0
4, 146688, Note_off_c, 4, 56, 0
4, 146688, Note_on_c, 4, 59, 127
4, 146688, Note_on_c, 4, 64, 127
4, 146784, Note_off_c, 4, 64, 0
4, 146784, Note_off_c, 4, 59, 0
4, 146784, Note_on_c, 4, 61, 127
4, 146784, Note_on_c, 4, 66, 127
4, 146880, Note_off_c, 4, 66, 0
4, 146880, Note_off_c, 4, 61, 0
4, 146880, Note_on_c, 4, 59, 127
4, 146880, Note_on_c, 4, 64, 127
4, 146976, Note_off_c, 4, 64, 0
4, 146976, Note_off_c, 4, 59, 0
4, 146976, Note_on_c, 4, 56, 127
4, 146976, Note_on_c, 4, 61, 127
4, 147072, Note_off_c, 4, 61, 0
4, 147072, Note_off_c, 4, 56, 0
4, 147072, Note_on_c, 4, 59, 127
4, 147072, Note_on_c, 4, 64, 127
4, 147168, Note_off_c, 4, 64, 0
4, 147168, Note_off_c, 4, 59, 0
4, 147168, Note_on_c, 4, 56, 127
4, 147168, Note_on_c, 4, 61, 127
4, 147264, Note_off_c, 4, 61, 0
4, 147264, Note_off_c, 4, 56, 0
4, 147264, Note_on_c, 4, 54, 127
4, 147264, Note_on_c, 4, 59, 127
4, 147360, Note_off_c, 4, 59, 0
4, 147360, Note_off_c, 4, 54, 0
4, 147360, Note_on_c, 4, 56, 127
4, 147360, Note_on_c, 4, 61, 127
4, 147456, Note_off_c, 4, 61, 0
4, 147456, Note_off_c, 4, 56, 0
4, 147456, Note_on_c, 4, 59, 127
4, 147456, Note_on_c, 4, 64, 127
4, 147552, Note_off_c, 4, 64, 0
4, 147552, Note_off_c, 4, 59, 0
4, 147552, Note_on_c, 4, 61, 127
4, 147552, Note_on_c, 4, 66, 127
4, 147648, Note_off_c, 4, 66, 0
4, 147648, Note_off_c, 4, 61, 0
4, 147648, Note_on_c, 4, 64, 127
4, 147648, Note_on_c, 4, 68, 127
4, 147744, Note_off_c, 4, 68, 0
4, 147744, Note_off_c, 4, 64, 0
4, 147744, Note_on_c, 4, 66, 127
4, 147744, Note_on_c, 4, 69, 127
4, 147840, Note_off_c, 4, 69, 0
4, 147840, Note_off_c, 4, 66, 0
4, 147840, Note_on_c, 4, 64, 127
4, 147840, Note_on_c, 4, 68, 127
4, 147936, Note_off_c, 4, 68, 0
4, 147936, Note_off_c, 4, 64, 0
4, 147936, Note_on_c, 4, 61, 127
4, 147936, Note_on_c, 4, 66, 127
4, 148032, Note_off_c, 4, 66, 0
4, 148032, Note_off_c, 4, 61, 0
4, 148032, Note_on_c, 4, 59, 127
4, 148032, Note_on_c, 4, 64, 127
4, 148128, Note_off_c, 4, 64, 0
4, 148128, Note_off_c, 4, 59, 0
4, 148128, Note_on_c, 4, 61, 127
4, 148128, Note_on_c, 4, 66, 127
4, 148224, Note_off_c, 4, 66, 0
4, 148224, Note_off_c, 4, 61, 0
4, 148224, Note_on_c, 4, 64, 127
4, 148224, Note_on_c, 4, 68, 127
4, 148320, Note_off_c, 4, 68, 0
4, 148320, Note_off_c, 4, 64, 0
4, 148320, Note_on_c, 4, 66, 127
4, 148320, Note_on_c, 4, 69, 127
4, 148416, Note_off_c, 4, 69, 0
4, 148416, Note_off_c, 4, 66, 0
4, 148416, Note_on_c, 4, 64, 127
4, 148416, Note_on_c, 4, 68, 127
4, 148512, Note_off_c, 4, 68, 0
4, 148512, Note_off_c, 4, 64, 0
4, 148512, Note_on_c, 4, 61, 127
4, 148512, Note_on_c, 4, 66, 127
4, 148608, Note_off_c, 4, 66, 0
4, 148608, Note_off_c, 4, 61, 0
4, 148608, Note_on_c, 4, 64, 127
4, 148608, Note_on_c, 4, 68, 127
4, 148704, Note_off_c, 4, 68, 0
4, 148704, Note_off_c, 4, 64, 0
4, 148704, Note_on_c, 4, 61, 127
4, 148704, Note_on_c, 4, 66, 127
4, 148800, Note_off_c, 4, 66, 0
4, 148800, Note_off_c, 4, 61, 0
4, 148800, Note_on_c, 4, 59, 127
4, 148800, Note_on_c, 4, 64, 127
4, 148896, Note_off_c, 4, 64, 0
4, 148896, Note_off_c, 4, 59, 0
4, 148896, Note_on_c, 4, 56, 127
4, 148896, Note_on_c, 4, 61, 127
4, 148992, Note_off_c, 4, 61, 0
4, 148992, Note_off_c, 4, 56, 0
4, 148992, Note_on_c, 4, 54, 127
4, 148992, Note_on_c, 4, 59, 127
4, 149088, Note_off_c, 4, 59, 0
4, 149088, Note_off_c, 4, 54, 0
4, 149088, Note_on_c, 4, 56, 127
4, 149088, Note_on_c, 4, 61, 127
4, 149184, Note_off_c, 4, 61, 0
4, 149184, Note_off_c, 4, 56, 0
4, 149184, Note_on_c, 4, 59, 127
4, 149184, Note_on_c, 4, 64, 127
4, 149280, Note_off_c, 4, 64, 0
4, 149280, Note_off_c, 4, 59, 0
4, 149280, Note_on_c, 4, 61, 127
4, 149280, Note_on_c, 4, 66, 127
4, 149376, Note_off_c, 4, 66, 0
4, 149376, Note_off_c, 4, 61, 0
4, 149376, Note_on_c, 4, 59, 127
4, 149376, Note_on_c, 4, 64, 127
4, 149472, Note_off_c, 4, 64, 0
4, 149472, Note_off_c, 4, 59, 0
4, 149472, Note_on_c, 4, 56, 127
4, 149472, Note_on_c, 4, 61, 127
4, 149568, Note_off_c, 4, 61, 0
4, 149568, Note_off_c, 4, 56, 0
4, 149568, Note_on_c, 4, 54, 127
4, 149568, Note_on_c, 4, 59, 127
4, 149664, Note_off_c, 4, 59, 0
4, 149664, Note_off_c, 4, 54, 0
4, 149664, Note_on_c, 4, 56, 127
4, 149664, Note_on_c, 4, 61, 127
4, 149760, Note_off_c, 4, 61, 0
4, 149760, Note_off_c, 4, 56, 0
4, 149760, Note_on_c, 4, 59, 127
4, 149760, Note_on_c, 4, 64, 127
4, 149856, Note_off_c, 4, 64, 0
4, 149856, Note_off_c, 4, 59, 0
4, 149856, Note_on_c, 4, 61, 127
4, 149856, Note_on_c, 4, 66, 127
4, 149952, Note_off_c, 4, 66, 0
4, 149952, Note_off_c, 4, 61, 0
4, 149952, Note_on_c, 4, 59, 127
4, 149952, Note_on_c, 4, 64, 127
4, 150048, Note_off_c, 4, 64, 0
4, 150048, Note_off_c, 4, 59, 0
4, 150048, Note_on_c, 4, 56, 127
4, 150048, Note_on_c, 4, 61, 127
4, 150144, Note_off_c, 4, 61, 0
4, 150144, Note_off_c, 4, 56, 0
4, 150144, Note_on_c, 4, 61, 127
4, 150144, Note_on_c, 4, 57, 127
4, 150272, Note_off_c, 4, 57, 0
4, 150272, Note_off_c, 4, 61, 0
4, 150272, Note_on_c, 4, 61, 127
4, 150272, Note_on_c, 4, 64, 127
4, 150400, Note_off_c, 4, 64, 0
4, 150400, Note_off_c, 4, 61, 0
4, 150400, Note_on_c, 4, 64, 127
4, 150400, Note_on_c, 4, 68, 127
4, 150528, Note_off_c, 4, 68, 0
4, 150528, Note_off_c, 4, 64, 0
4, 150528, Note_on_c, 4, 66, 127
4, 150528, Note_on_c, 4, 69, 124
4, 150572, Pitch_bend_c, 4, 8256
4, 150576, Pitch_bend_c, 4, 8832
4, 150582, Pitch_bend_c, 4, 9856
4, 150588, Pitch_bend_c, 4, 11424
4, 150588, Pitch_bend_c, 4, 8480
4, 150592, Pitch_bend_c, 4, 13376
4, 150595, Pitch_bend_c, 4, 9120
4, 150598, Pitch_bend_c, 4, 14848
4, 150598, Pitch_bend_c, 4, 10080
4, 150604, Pitch_bend_c, 4, 15840
4, 150604, Pitch_bend_c, 4, 11456
4, 150608, Pitch_bend_c, 4, 16383
4, 150611, Pitch_bend_c, 4, 12928
4, 150614, Pitch_bend_c, 4, 14336
4, 150620, Pitch_bend_c, 4, 15424
4, 150627, Pitch_bend_c, 4, 16096
4, 150630, Pitch_bend_c, 4, 16383
4, 150816, Note_off_c, 4, 69, 0
4, 150816, Note_off_c, 4, 66, 0
4, 150816, Note_on_c, 4, 66, 127
4, 150816, Note_on_c, 4, 69, 127
4, 150819, Pitch_bend_c, 4, 16096
4, 150822, Pitch_bend_c, 4, 16160
4, 150825, Pitch_bend_c, 4, 15264
4, 150825, Pitch_bend_c, 4, 15520
4, 150832, Pitch_bend_c, 4, 13280
4, 150832, Pitch_bend_c, 4, 14112
4, 150835, Pitch_bend_c, 4, 11808
4, 150838, Pitch_bend_c, 4, 10592
4, 150841, Pitch_bend_c, 4, 8832
4, 150841, Pitch_bend_c, 4, 9536
4, 150848, Pitch_bend_c, 4, 7680
4, 150848, Pitch_bend_c, 4, 8128
4, 150854, Pitch_bend_c, 4, 7616
4, 150854, Pitch_bend_c, 4, 7520
4, 150857, Pitch_bend_c, 4, 8288
4, 150857, Pitch_bend_c, 4, 7744
4, 150864, Pitch_bend_c, 4, 8256
4, 150864, Pitch_bend_c, 4, 8192
4, 150870, Pitch_bend_c, 4, 8192
4, 151104, Note_off_c, 4, 69, 0
4, 151104, Note_off_c, 4, 66, 0
4, 151104, Note_on_c, 4, 64, 127
4, 151104, Note_on_c, 4, 68, 127
4, 151392, Note_off_c, 4, 68, 0
4, 151392, Note_off_c, 4, 64, 0
4, 151392, Note_on_c, 4, 61, 127
4, 151392, Note_on_c, 4, 66, 127
4, 151680, Note_off_c, 4, 66, 0
4, 151680, Note_off_c, 4, 61, 0
4, 151680, Note_on_c, 4, 59, 127
4, 151680, Note_on_c, 4, 64, 127
4, 151872, Note_off_c, 4, 64, 0
4, 151872, Note_off_c, 4, 59, 0
4, 151872, Note_on_c, 4, 56, 127
4, 151872, Note_on_c, 4, 61, 127
4, 152064, Note_off_c, 4, 61, 0
4, 152064, Note_off_c, 4, 56, 0
4, 152064, Note_on_c, 4, 54, 127
4, 152064, Note_on_c, 4, 59, 127
4, 152352, Note_off_c, 4, 59, 0
4, 152352, Note_off_c, 4, 54, 0
4, 152352, Note_on_c, 4, 56, 127
4, 152352, Note_on_c, 4, 61, 127
4, 152640, Note_off_c, 4, 61, 0
4, 152640, Note_off_c, 4, 56, 0
4, 152640, Note_on_c, 4, 57, 127
4, 152640, Note_on_c, 4, 52, 127
4, 153312, Note_off_c, 4, 52, 0
4, 153312, Note_off_c, 4, 57, 0
4, 153600, Note_on_c, 4, 66, 100
4, 153600, Note_on_c, 4, 57, 100
4, 153696, Note_off_c, 4, 57, 0
4, 153696, Note_off_c, 4, 66, 0
4, 153696, Note_on_c, 4, 68, 100
4, 153696, Note_on_c, 4, 59, 100
4, 154176, Note_off_c, 4, 59, 0
4, 154176, Note_off_c, 4, 68, 0
4, 154752, Note_on_c, 4, 71, 100
4, 155616, Note_off_c, 4, 71, 0
4, 156096, Note_on_c, 4, 56, 115
4, 156096, Note_on_c, 4, 64, 115
4, 156192, Note_off_c, 4, 64, 0
4, 156192, Note_off_c, 4, 56, 0
4, 156192, Note_on_c, 4, 64, 115
4, 156192, Note_on_c, 4, 56, 115
4, 156288, Note_off_c, 4, 56, 0
4, 156288, Note_off_c, 4, 64, 0
4, 156288, Note_on_c, 4, 54, 115
4, 156384, Note_off_c, 4, 54, 0
4, 156384, Note_on_c, 4, 52, 115
4, 156480, Note_off_c, 4, 52, 0
4, 156576, Note_on_c, 4, 56, 115
4, 156576, Note_on_c, 4, 64, 115
4, 156672, Note_off_c, 4, 64, 0
4, 156672, Note_off_c, 4, 56, 0
4, 156672, Note_on_c, 4, 71, 93
4, 157440, Note_off_c, 4, 71, 0
4, 157824, Note_on_c, 4, 71, 115
4, 157920, Note_off_c, 4, 71, 0
4, 158016, Note_on_c, 4, 71, 90
4, 158976, Note_off_c, 4, 71, 0
4, 161280, Note_on_c, 4, 52, 127
4, 161568, Note_off_c, 4, 52, 0
4, 161568, Note_on_c, 4, 54, 127
4, 161856, Note_off_c, 4, 54, 0
4, 161856, Note_on_c, 4, 56, 127
4, 162144, Note_off_c, 4, 56, 0
4, 162144, Note_on_c, 4, 57, 127
4, 162336, Note_off_c, 4, 57, 0
4, 162336, Note_on_c, 4, 56, 127
4, 162432, Note_off_c, 4, 56, 0
4, 162432, Note_on_c, 4, 59, 127
4, 162528, Note_off_c, 4, 59, 0
4, 162528, Note_on_c, 4, 61, 127
4, 162624, Note_off_c, 4, 61, 0
4, 162624, Note_on_c, 4, 64, 127
4, 162816, Note_off_c, 4, 64, 0
4, 162816, Note_on_c, 4, 68, 127
4, 163104, Note_off_c, 4, 68, 0
4, 163104, Note_on_c, 4, 69, 127
4, 163392, Note_off_c, 4, 69, 0
4, 163392, Note_on_c, 4, 71, 127
4, 163680, Note_off_c, 4, 71, 0
4, 163680, Note_on_c, 4, 73, 127
4, 163968, Note_off_c, 4, 73, 0
4, 163968, Note_on_c, 4, 71, 127
4, 164160, Note_off_c, 4, 71, 0
4, 164160, Note_on_c, 4, 68, 127
4, 164352, Note_off_c, 4, 68, 0
4, 164352, Note_on_c, 4, 66, 127
4, 165120, Note_off_c, 4, 66, 0
4, 165504, Note_on_c, 4, 71, 92
4, 165600, Note_off_c, 4, 71, 0
4, 165696, Note_on_c, 4, 71, 71
4, 166368, Note_off_c, 4, 71, 0
4, 166944, Note_on_c, 4, 71, 109
4, 167040, Note_off_c, 4, 71, 0
4, 167040, Note_on_c, 4, 68, 109
4, 167136, Note_off_c, 4, 68, 0
4, 167136, Note_on_c, 4, 66, 109
4, 167232, Note_off_c, 4, 66, 0
4, 167232, Note_on_c, 4, 64, 109
4, 167328, Note_off_c, 4, 64, 0
4, 167328, Note_on_c, 4, 76, 109
4, 167424, Note_off_c, 4, 76, 0
4, 167424, Note_on_c, 4, 68, 109
4, 167520, Note_off_c, 4, 68, 0
4, 167520, Note_on_c, 4, 66, 78
4, 168000, Note_off_c, 4, 66, 0
4, 168576, Note_on_c, 4, 71, 99
4, 168672, Note_off_c, 4, 71, 0
4, 168768, Note_on_c, 4, 71, 77
4, 169632, Note_off_c, 4, 71, 0
4, 170208, Note_on_c, 4, 71, 99
4, 170304, Note_off_c, 4, 71, 0
4, 170304, Note_on_c, 4, 71, 76
4, 170880, Note_off_c, 4, 71, 0
4, 172800, Note_on_c, 4, 52, 127
4, 173088, Note_off_c, 4, 52, 0
4, 173088, Note_on_c, 4, 54, 127
4, 173184, Note_off_c, 4, 54, 0
4, 173184, Note_on_c, 4, 56, 127
4, 173280, Note_off_c, 4, 56, 0
4, 173280, Note_on_c, 4, 59, 127
4, 173376, Note_off_c, 4, 59, 0
4, 173376, Note_on_c, 4, 61, 127
4, 173488, Note_off_c, 4, 61, 0
4, 173568, Note_on_c, 4, 64, 127
4, 173856, Note_off_c, 4, 64, 0
4, 173856, Note_on_c, 4, 66, 127
4, 173952, Note_off_c, 4, 66, 0
4, 173952, Note_on_c, 4, 68, 127
4, 174048, Note_off_c, 4, 68, 0
4, 174048, Note_on_c, 4, 71, 127
4, 174144, Note_off_c, 4, 71, 0
4, 174144, Note_on_c, 4, 73, 127
4, 174256, Note_off_c, 4, 73, 0
4, 174336, Note_on_c, 4, 76, 127
4, 174448, Note_off_c, 4, 76, 0
4, 174528, Note_on_c, 4, 73, 127
4, 174624, Note_off_c, 4, 73, 0
4, 174720, Note_on_c, 4, 66, 127
4, 174912, Note_off_c, 4, 66, 0
4, 174912, Note_on_c, 4, 64, 127
4, 175292, Note_off_c, 4, 64, 0
4, 175296, Note_on_c, 4, 64, 127
4, 175392, Note_off_c, 4, 64, 0
4, 175392, Note_on_c, 4, 64, 119
4, 175488, Note_off_c, 4, 64, 0
4, 175488, Note_on_c, 4, 66, 119
4, 175584, Note_off_c, 4, 66, 0
4, 175584, Note_on_c, 4, 64, 119
4, 175680, Note_off_c, 4, 64, 0
4, 175680, Note_on_c, 4, 61, 119
4, 175872, Note_off_c, 4, 61, 0
4, 175872, Note_on_c, 4, 52, 127
4, 176160, Note_off_c, 4, 52, 0
4, 176160, Note_on_c, 4, 54, 127
4, 176256, Note_off_c, 4, 54, 0
4, 176256, Note_on_c, 4, 56, 127
4, 176352, Note_off_c, 4, 56, 0
4, 176352, Note_on_c, 4, 59, 127
4, 176448, Note_off_c, 4, 59, 0
4, 176448, Note_on_c, 4, 61, 127
4, 176640, Note_off_c, 4, 61, 0
4, 176640, Note_on_c, 4, 64, 127
4, 176928, Note_off_c, 4, 64, 0
4, 176928, Note_on_c, 4, 66, 127
4, 177024, Note_off_c, 4, 66, 0
4, 177024, Note_on_c, 4, 68, 127
4, 177120, Note_off_c, 4, 68, 0
4, 177120, Note_on_c, 4, 71, 127
4, 177216, Note_off_c, 4, 71, 0
4, 177216, Note_on_c, 4, 73, 127
4, 177328, Note_off_c, 4, 73, 0
4, 177408, Note_on_c, 4, 76, 127
4, 177504, Note_off_c, 4, 76, 0
4, 177600, Note_on_c, 4, 73, 127
4, 177696, Note_off_c, 4, 73, 0
4, 177792, Note_on_c, 4, 66, 127
4, 177984, Note_off_c, 4, 66, 0
4, 177984, Note_on_c, 4, 64, 127
4, 178364, Note_off_c, 4, 64, 0
4, 178944, Note_on_c, 4, 62, 105
4, 178944, Note_on_c, 4, 66, 105
4, 179040, Note_off_c, 4, 66, 0
4, 179040, Note_off_c, 4, 62, 0
4, 179040, Note_on_c, 4, 64, 119
4, 179040, Note_on_c, 4, 68, 119
4, 179328, Note_off_c, 4, 68, 0
4, 179328, Note_off_c, 4, 64, 0
4, 179328, Note_on_c, 4, 62, 119
4, 179328, Note_on_c, 4, 66, 119
4, 179520, Note_off_c, 4, 66, 0
4, 179520, Note_off_c, 4, 62, 0
4, 179520, Note_on_c, 4, 61, 119
4, 179520, Note_on_c, 4, 64, 119
4, 179712, Note_off_c, 4, 64, 0
4, 179712, Note_off_c, 4, 61, 0
4, 179712, Note_on_c, 4, 66, 119
4, 179712, Note_on_c, 4, 62, 119
4, 179808, Note_off_c, 4, 66, 0
4, 179808, Note_on_c, 4, 66, 119
4, 179904, Note_off_c, 4, 66, 0
4, 179904, Note_off_c, 4, 62, 0
4, 179904, Note_on_c, 4, 69, 119
4, 180284, Note_off_c, 4, 69, 0
4, 180480, Note_on_c, 4, 61, 114
4, 180672, Note_off_c, 4, 61, 0
4, 180672, Note_on_c, 4, 64, 114
4, 180768, Note_off_c, 4, 64, 0
4, 180768, Note_on_c, 4, 69, 114
4, 180960, Note_off_c, 4, 69, 0
4, 181248, Note_on_c, 4, 59, 114
4, 181440, Note_off_c, 4, 59, 0
4, 181440, Note_on_c, 4, 64, 114
4, 181536, Note_off_c, 4, 64, 0
4, 181536, Note_on_c, 4, 69, 114
4, 181728, Note_off_c, 4, 69, 0
4, 185088, Control_c, 4, 121, 0
4, 185184, Control_c, 4, 11, 127
4, 186624, End_track
5, 0, Start_track
5, 0, Title_t, "Guitar2"
5, 1536, Control_c, 5, 121, 0
5, 1538, Control_c, 5, 0, 0
5, 1540, Control_c, 5, 32, 0
5, 1542, Program_c, 5, 29
5, 1544, Control_c, 5, 11, 127
5, 1554, Control_c, 5, 7, 100
5, 1556, Control_c, 5, 91, 28
5, 1558, Control_c, 5, 93, 41
5, 1560, Control_c, 5, 10, 57
5, 14208, Note_on_c, 5, 66, 89
5, 14227, Pitch_bend_c, 5, 8224
5, 14233, Pitch_bend_c, 5, 8544
5, 14240, Pitch_bend_c, 5, 9184
5, 14243, Pitch_bend_c, 5, 10080
5, 14249, Pitch_bend_c, 5, 11232
5, 14252, Pitch_bend_c, 5, 12416
5, 14259, Pitch_bend_c, 5, 13568
5, 14265, Pitch_bend_c, 5, 14720
5, 14272, Pitch_bend_c, 5, 15552
5, 14275, Pitch_bend_c, 5, 16064
5, 14278, Pitch_bend_c, 5, 16320
5, 14288, Pitch_bend_c, 5, 16383
5, 14297, Pitch_bend_c, 5, 16256
5, 14304, Note_off_c, 5, 66, 0
5, 14304, Pitch_bend_c, 5, 15936
5, 14307, Pitch_bend_c, 5, 15328
5, 14313, Pitch_bend_c, 5, 14304
5, 14320, Pitch_bend_c, 5, 12992
5, 14323, Pitch_bend_c, 5, 11584
5, 14329, Pitch_bend_c, 5, 10176
5, 14336, Pitch_bend_c, 5, 9120
5, 14339, Pitch_bend_c, 5, 8480
5, 14345, Pitch_bend_c, 5, 8192
5, 14400, Note_on_c, 5, 66, 89
5, 14400, Pitch_bend_c, 5, 8384
5, 14403, Pitch_bend_c, 5, 8992
5, 14406, Pitch_bend_c, 5, 9952
5, 14416, Pitch_bend_c, 5, 11296
5, 14419, Pitch_bend_c, 5, 12768
5, 14425, Pitch_bend_c, 5, 14144
5, 14428, Pitch_bend_c, 5, 15232
5, 14435, Pitch_bend_c, 5, 15936
5, 14441, Pitch_bend_c, 5, 16288
5, 14448, Pitch_bend_c, 5, 16383
5, 14464, Pitch_bend_c, 5, 16160
5, 14464, Pitch_bend_c, 5, 15712
5, 14473, Pitch_bend_c, 5, 14912
5, 14476, Pitch_bend_c, 5, 13728
5, 14483, Pitch_bend_c, 5, 12320
5, 14486, Pitch_bend_c, 5, 10784
5, 14496, Pitch_bend_c, 5, 9536
5, 14499, Pitch_bend_c, 5, 8672
5, 14505, Pitch_bend_c, 5, 8224
5, 14508, Pitch_bend_c, 5, 8192
5, 14592, Note_off_c, 5, 66, 0
5, 14592, Note_on_c, 5, 64, 89
5, 15060, Note_off_c, 5, 64, 0
5, 15744, Note_on_c, 5, 59, 89
5, 15840, Note_off_c, 5, 59, 0
5, 15840, Note_on_c, 5, 61, 89
5, 15936, Note_off_c, 5, 61, 0
5, 15936, Note_on_c, 5, 64, 89
5, 16032, Note_off_c, 5, 64, 0
5, 16128, Note_on_c, 5, 66, 89
5, 16179, Pitch_bend_c, 5, 8448
5, 16185, Pitch_bend_c, 5, 9056
5, 16192, Pitch_bend_c, 5, 9952
5, 16198, Pitch_bend_c, 5, 11232
5, 16201, Pitch_bend_c, 5, 12576
5, 16208, Pitch_bend_c, 5, 14016
5, 16211, Pitch_bend_c, 5, 15136
5, 16217, Pitch_bend_c, 5, 15904
5, 16224, Pitch_bend_c, 5, 16320
5, 16230, Pitch_bend_c, 5, 16383
5, 16889, Pitch_bend_c, 5, 16128
5, 16896, Pitch_bend_c, 5, 15488
5, 16902, Pitch_bend_c, 5, 14304
5, 16902, Pitch_bend_c, 5, 12288
5, 16908, Note_off_c, 5, 66, 0
5, 16908, Pitch_bend_c, 5, 10464
5, 16915, Pitch_bend_c, 5, 9056
5, 16921, Pitch_bend_c, 5, 8224
5, 16928, Pitch_bend_c, 5, 8192
5, 17280, Note_on_c, 5, 66, 89
5, 17283, Pitch_bend_c, 5, 8576
5, 17286, Pitch_bend_c, 5, 9440
5, 17296, Pitch_bend_c, 5, 10816
5, 17296, Pitch_bend_c, 5, 12704
5, 17305, Pitch_bend_c, 5, 14336
5, 17308, Pitch_bend_c, 5, 15488
5, 17315, Pitch_bend_c, 5, 16160
5, 17318, Pitch_bend_c, 5, 16383
5, 17379, Pitch_bend_c, 5, 16128
5, 17385, Pitch_bend_c, 5, 15616
5, 17388, Pitch_bend_c, 5, 14752
5, 17395, Pitch_bend_c, 5, 13472
5, 17398, Note_off_c, 5, 66, 0
5, 17398, Pitch_bend_c, 5, 11872
5, 17408, Pitch_bend_c, 5, 10368
5, 17408, Pitch_bend_c, 5, 9184
5, 17417, Pitch_bend_c, 5, 8416
5, 17420, Pitch_bend_c, 5, 8192
5, 17472, Note_on_c, 5, 64, 89
5, 17568, Note_off_c, 5, 64, 0
5, 17664, Note_on_c, 5, 64, 89
5, 17952, Note_off_c, 5, 64, 0
5, 24960, Note_on_c, 5, 66, 89
5, 25014, Pitch_bend_c, 5, 8320
5, 25017, Pitch_bend_c, 5, 8704
5, 25020, Pitch_bend_c, 5, 9344
5, 25030, Pitch_bend_c, 5, 10208
5, 25030, Pitch_bend_c, 5, 11296
5, 25040, Pitch_bend_c, 5, 12416
5, 25043, Pitch_bend_c, 5, 13600
5, 25049, Pitch_bend_c, 5, 14752
5, 25052, Pitch_bend_c, 5, 15616
5, 25056, Note_off_c, 5, 66, 0
5, 25062, Pitch_bend_c, 5, 16128
5, 25062, Pitch_bend_c, 5, 16383
5, 25094, Pitch_bend_c, 5, 16320
5, 25094, Pitch_bend_c, 5, 16000
5, 25104, Pitch_bend_c, 5, 15360
5, 25107, Pitch_bend_c, 5, 14304
5, 25113, Pitch_bend_c, 5, 12928
5, 25116, Pitch_bend_c, 5, 11488
5, 25126, Pitch_bend_c, 5, 10112
5, 25129, Pitch_bend_c, 5, 9088
5, 25136, Pitch_bend_c, 5, 8448
5, 25139, Pitch_bend_c, 5, 8192
5, 25152, Note_on_c, 5, 66, 89
5, 25248, Note_off_c, 5, 66, 0
5, 25344, Note_on_c, 5, 64, 89
5, 25824, Note_off_c, 5, 64, 0
5, 26886, Note_on_c, 5, 66, 89
5, 26899, Pitch_bend_c, 5, 8512
5, 26902, Pitch_bend_c, 5, 9184
5, 26908, Pitch_bend_c, 5, 10272
5, 26912, Pitch_bend_c, 5, 11712
5, 26921, Pitch_bend_c, 5, 13184
5, 26924, Pitch_bend_c, 5, 14560
5, 26931, Pitch_bend_c, 5, 15520
5, 26934, Pitch_bend_c, 5, 16128
5, 26944, Pitch_bend_c, 5, 16383
5, 27628, Pitch_bend_c, 5, 16288
5, 27632, Pitch_bend_c, 5, 16128
5, 27638, Note_off_c, 5, 66, 0
5, 27641, Pitch_bend_c, 5, 15840
5, 27644, Pitch_bend_c, 5, 15392
5, 27654, Pitch_bend_c, 5, 14816
5, 27654, Pitch_bend_c, 5, 14080
5, 27660, Pitch_bend_c, 5, 13216
5, 27667, Pitch_bend_c, 5, 12192
5, 27670, Pitch_bend_c, 5, 10944
5, 27676, Pitch_bend_c, 5, 9792
5, 27680, Pitch_bend_c, 5, 8928
5, 27686, Pitch_bend_c, 5, 8352
5, 27689, Pitch_bend_c, 5, 8192
5, 28032, Note_on_c, 5, 66, 89
5, 28073, Pitch_bend_c, 5, 8448
5, 28076, Pitch_bend_c, 5, 9056
5, 28080, Pitch_bend_c, 5, 9984
5, 28089, Pitch_bend_c, 5, 11264
5, 28092, Pitch_bend_c, 5, 12672
5, 28099, Pitch_bend_c, 5, 14048
5, 28102, Pitch_bend_c, 5, 15168
5, 28112, Pitch_bend_c, 5, 15936
5, 28112, Pitch_bend_c, 5, 16320
5, 28121, Pitch_bend_c, 5, 16383
5, 28128, Note_off_c, 5, 66, 0
5, 28150, Pitch_bend_c, 5, 16288
5, 28156, Pitch_bend_c, 5, 15968
5, 28163, Pitch_bend_c, 5, 15296
5, 28166, Pitch_bend_c, 5, 14272
5, 28176, Pitch_bend_c, 5, 12896
5, 28176, Pitch_bend_c, 5, 11328
5, 28185, Pitch_bend_c, 5, 9952
5, 28188, Pitch_bend_c, 5, 8960
5, 28195, Pitch_bend_c, 5, 8352
5, 28198, Pitch_bend_c, 5, 8192
5, 28224, Pitch_bend_c, 5, 8576
5, 28224, Note_on_c, 5, 66, 89
5, 28240, Pitch_bend_c, 5, 9600
5, 28240, Pitch_bend_c, 5, 11168
5, 28246, Pitch_bend_c, 5, 13184
5, 28249, Pitch_bend_c, 5, 14816
5, 28256, Pitch_bend_c, 5, 15872
5, 28262, Pitch_bend_c, 5, 16383
5, 28291, Pitch_bend_c, 5, 16256
5, 28297, Pitch_bend_c, 5, 15872
5, 28304, Pitch_bend_c, 5, 15104
5, 28310, Pitch_bend_c, 5, 13920
5, 28313, Pitch_bend_c, 5, 12256
5, 28316, Pitch_bend_c, 5, 10624
5, 28323, Pitch_bend_c, 5, 9344
5, 28329, Pitch_bend_c, 5, 8512
5, 28336, Pitch_bend_c, 5, 8192
5, 28416, Note_off_c, 5, 66, 0
5, 28416, Note_on_c, 5, 64, 89
5, 29564, Note_off_c, 5, 64, 0
5, 35712, Note_on_c, 5, 66, 89
5, 35718, Pitch_bend_c, 5, 8256
5, 35721, Pitch_bend_c, 5, 8800
5, 35731, Pitch_bend_c, 5, 9760
5, 35734, Pitch_bend_c, 5, 11200
5, 35740, Pitch_bend_c, 5, 12992
5, 35744, Pitch_bend_c, 5, 14496
5, 35750, Pitch_bend_c, 5, 15584
5, 35753, Pitch_bend_c, 5, 16192
5, 35763, Pitch_bend_c, 5, 16383
5, 35808, Note_off_c, 5, 66, 0
5, 35817, Pitch_bend_c, 5, 16192
5, 35824, Pitch_bend_c, 5, 15840
5, 35827, Pitch_bend_c, 5, 15328
5, 35836, Pitch_bend_c, 5, 14624
5, 35843, Pitch_bend_c, 5, 13888
5, 35846, Pitch_bend_c, 5, 13088
5, 35852, Pitch_bend_c, 5, 12160
5, 35856, Pitch_bend_c, 5, 11168
5, 35862, Pitch_bend_c, 5, 10048
5, 35865, Pitch_bend_c, 5, 9152
5, 35875, Pitch_bend_c, 5, 8512
5, 35878, Pitch_bend_c, 5, 8192
5, 35904, Note_on_c, 5, 66, 89
5, 35907, Pitch_bend_c, 5, 8800
5, 35913, Pitch_bend_c, 5, 9952
5, 35916, Pitch_bend_c, 5, 11680
5, 35923, Pitch_bend_c, 5, 13728
5, 35929, Pitch_bend_c, 5, 15136
5, 35932, Pitch_bend_c, 5, 16032
5, 35939, Pitch_bend_c, 5, 16383
5, 35980, Pitch_bend_c, 5, 16064
5, 35984, Pitch_bend_c, 5, 15456
5, 35993, Pitch_bend_c, 5, 14528
5, 35993, Pitch_bend_c, 5, 13184
5, 36003, Pitch_bend_c, 5, 11680
5, 36006, Pitch_bend_c, 5, 10240
5, 36016, Pitch_bend_c, 5, 9120
5, 36016, Pitch_bend_c, 5, 8416
5, 36025, Pitch_bend_c, 5, 8192
5, 36096, Note_off_c, 5, 66, 0
5, 36096, Note_on_c, 5, 64, 89
5, 36672, Note_off_c, 5, 64, 0
5, 38784, Note_on_c, 5, 66, 89
5, 38803, Pitch_bend_c, 5, 8288
5, 38806, Pitch_bend_c, 5, 8768
5, 38812, Pitch_bend_c, 5, 9504
5, 38819, Pitch_bend_c, 5, 10528
5, 38825, Pitch_bend_c, 5, 11712
5, 38825, Pitch_bend_c, 5, 12864
5, 38835, Pitch_bend_c, 5, 14048
5, 38838, Pitch_bend_c, 5, 15072
5, 38844, Pitch_bend_c, 5, 15776
5, 38848, Pitch_bend_c, 5, 16192
5, 38857, Pitch_bend_c, 5, 16383
5, 38880, Note_off_c, 5, 66, 0
5, 38892, Pitch_bend_c, 5, 16224
5, 38899, Pitch_bend_c, 5, 15872
5, 38905, Pitch_bend_c, 5, 15264
5, 38908, Pitch_bend_c, 5, 14304
5, 38912, Pitch_bend_c, 5, 13152
5, 38921, Pitch_bend_c, 5, 12000
5, 38924, Pitch_bend_c, 5, 10848
5, 38931, Pitch_bend_c, 5, 9760
5, 38937, Pitch_bend_c, 5, 8992
5, 38940, Pitch_bend_c, 5, 8448
5, 38947, Pitch_bend_c, 5, 8192
5, 38976, Note_on_c, 5, 66, 89
5, 38982, Pitch_bend_c, 5, 8512
5, 38992, Pitch_bend_c, 5, 9312
5, 38995, Pitch_bend_c, 5, 10592
5, 39001, Pitch_bend_c, 5, 12352
5, 39008, Pitch_bend_c, 5, 14048
5, 39011, Pitch_bend_c, 5, 15296
5, 39014, Pitch_bend_c, 5, 16064
5, 39024, Pitch_bend_c, 5, 16383
5, 39059, Pitch_bend_c, 5, 16224
5, 39062, Pitch_bend_c, 5, 15840
5, 39072, Pitch_bend_c, 5, 15040
5, 39075, Pitch_bend_c, 5, 13824
5, 39084, Pitch_bend_c, 5, 12256
5, 39084, Pitch_bend_c, 5, 10624
5, 39091, Pitch_bend_c, 5, 9376
5, 39097, Pitch_bend_c, 5, 8544
5, 39104, Pitch_bend_c, 5, 8192
5, 39168, Note_off_c, 5, 66, 0
5, 39168, Note_on_c, 5, 64, 89
5, 39840, Note_off_c, 5, 64, 0
5, 40512, Note_on_c, 5, 66, 89
5, 40537, Pitch_bend_c, 5, 8384
5, 40540, Pitch_bend_c, 5, 9024
5, 40547, Pitch_bend_c, 5, 10144
5, 40553, Pitch_bend_c, 5, 11808
5, 40556, Pitch_bend_c, 5, 13664
5, 40563, Pitch_bend_c, 5, 15040
5, 40569, Pitch_bend_c, 5, 15936
5, 40572, Pitch_bend_c, 5, 16383
5, 40614, Pitch_bend_c, 5, 16128
5, 40617, Pitch_bend_c, 5, 15520
5, 40627, Pitch_bend_c, 5, 14432
5, 40630, Pitch_bend_c, 5, 12736
5, 40636, Pitch_bend_c, 5, 10912
5, 40643, Pitch_bend_c, 5, 9472
5, 40646, Pitch_bend_c, 5, 8544
5, 40652, Pitch_bend_c, 5, 8192
5, 40704, Note_off_c, 5, 66, 0
5, 40704, Note_on_c, 5, 64, 89
5, 41084, Note_off_c, 5, 64, 0
5, 154752, Note_on_c, 5, 66, 89
5, 154806, Pitch_bend_c, 5, 8320
5, 154809, Pitch_bend_c, 5, 8704
5, 154812, Pitch_bend_c, 5, 9344
5, 154822, Pitch_bend_c, 5, 10208
5, 154822, Pitch_bend_c, 5, 11296
5, 154832, Pitch_bend_c, 5, 12416
5, 154835, Pitch_bend_c, 5, 13600
5, 154841, Pitch_bend_c, 5, 14752
5, 154844, Pitch_bend_c, 5, 15616
5, 154848, Note_off_c, 5, 66, 0
5, 154854, Pitch_bend_c, 5, 16128
5, 154854, Pitch_bend_c, 5, 16383
5, 154886, Pitch_bend_c, 5, 16320
5, 154886, Pitch_bend_c, 5, 16000
5, 154896, Pitch_bend_c, 5, 15360
5, 154899, Pitch_bend_c, 5, 14304
5, 154905, Pitch_bend_c, 5, 12928
5, 154908, Pitch_bend_c, 5, 11488
5, 154918, Pitch_bend_c, 5, 10112
5, 154921, Pitch_bend_c, 5, 9088
5, 154928, Pitch_bend_c, 5, 8448
5, 154931, Pitch_bend_c, 5, 8192
5, 154944, Note_on_c, 5, 66, 89
5, 155040, Note_off_c, 5, 66, 0
5, 155136, Note_on_c, 5, 64, 89
5, 155616, Note_off_c, 5, 64, 0
5, 156678, Note_on_c, 5, 66, 89
5, 156691, Pitch_bend_c, 5, 8512
5, 156694, Pitch_bend_c, 5, 9184
5, 156700, Pitch_bend_c, 5, 10272
5, 156704, Pitch_bend_c, 5, 11712
5, 156713, Pitch_bend_c, 5, 13184
5, 156716, Pitch_bend_c, 5, 14560
5, 156723, Pitch_bend_c, 5, 15520
5, 156726, Pitch_bend_c, 5, 16128
5, 156736, Pitch_bend_c, 5, 16383
5, 157420, Pitch_bend_c, 5, 16288
5, 157424, Pitch_bend_c, 5, 16128
5, 157430, Note_off_c, 5, 66, 0
5, 157433, Pitch_bend_c, 5, 15840
5, 157436, Pitch_bend_c, 5, 15392
5, 157446, Pitch_bend_c, 5, 14816
5, 157446, Pitch_bend_c, 5, 14080
5, 157452, Pitch_bend_c, 5, 13216
5, 157459, Pitch_bend_c, 5, 12192
5, 157462, Pitch_bend_c, 5, 10944
5, 157468, Pitch_bend_c, 5, 9792
5, 157472, Pitch_bend_c, 5, 8928
5, 157478, Pitch_bend_c, 5, 8352
5, 157481, Pitch_bend_c, 5, 8192
5, 157824, Note_on_c, 5, 66, 89
5, 157865, Pitch_bend_c, 5, 8448
5, 157868, Pitch_bend_c, 5, 9056
5, 157872, Pitch_bend_c, 5, 9984
5, 157881, Pitch_bend_c, 5, 11264
5, 157884, Pitch_bend_c, 5, 12672
5, 157891, Pitch_bend_c, 5, 14048
5, 157894, Pitch_bend_c, 5, 15168
5, 157904, Pitch_bend_c, 5, 15936
5, 157904, Pitch_bend_c, 5, 16320
5, 157913, Pitch_bend_c, 5, 16383
5, 157920, Note_off_c, 5, 66, 0
5, 157942, Pitch_bend_c, 5, 16288
5, 157948, Pitch_bend_c, 5, 15968
5, 157955, Pitch_bend_c, 5, 15296
5, 157958, Pitch_bend_c, 5, 14272
5, 157968, Pitch_bend_c, 5, 12896
5, 157968, Pitch_bend_c, 5, 11328
5, 157977, Pitch_bend_c, 5, 9952
5, 157980, Pitch_bend_c, 5, 8960
5, 157987, Pitch_bend_c, 5, 8352
5, 157990, Pitch_bend_c, 5, 8192
5, 158016, Pitch_bend_c, 5, 8576
5, 158016, Note_on_c, 5, 66, 89
5, 158032, Pitch_bend_c, 5, 9600
5, 158032, Pitch_bend_c, 5, 11168
5, 158038, Pitch_bend_c, 5, 13184
5, 158041, Pitch_bend_c, 5, 14816
5, 158048, Pitch_bend_c, 5, 15872
5, 158054, Pitch_bend_c, 5, 16383
5, 158083, Pitch_bend_c, 5, 16256
5, 158089, Pitch_bend_c, 5, 15872
5, 158096, Pitch_bend_c, 5, 15104
5, 158102, Pitch_bend_c, 5, 13920
5, 158105, Pitch_bend_c, 5, 12256
5, 158108, Pitch_bend_c, 5, 10624
5, 158115, Pitch_bend_c, 5, 9344
5, 158121, Pitch_bend_c, 5, 8512
5, 158128, Pitch_bend_c, 5, 8192
5, 158208, Note_off_c, 5, 66, 0
5, 158208, Note_on_c, 5, 64, 89
5, 159356, Note_off_c, 5, 64, 0
5, 165504, Note_on_c, 5, 66, 99
5, 165510, Pitch_bend_c, 5, 8256
5, 165513, Pitch_bend_c, 5, 8800
5, 165523, Pitch_bend_c, 5, 9760
5, 165526, Pitch_bend_c, 5, 11200
5, 165532, Pitch_bend_c, 5, 12992
5, 165536, Pitch_bend_c, 5, 14496
5, 165542, Pitch_bend_c, 5, 15584
5, 165545, Pitch_bend_c, 5, 16192
5, 165555, Pitch_bend_c, 5, 16383
5, 165600, Note_off_c, 5, 66, 0
5, 165609, Pitch_bend_c, 5, 16192
5, 165616, Pitch_bend_c, 5, 15840
5, 165619, Pitch_bend_c, 5, 15328
5, 165628, Pitch_bend_c, 5, 14624
5, 165635, Pitch_bend_c, 5, 13888
5, 165638, Pitch_bend_c, 5, 13088
5, 165644, Pitch_bend_c, 5, 12160
5, 165648, Pitch_bend_c, 5, 11168
5, 165654, Pitch_bend_c, 5, 10048
5, 165657, Pitch_bend_c, 5, 9152
5, 165667, Pitch_bend_c, 5, 8512
5, 165670, Pitch_bend_c, 5, 8192
5, 165696, Note_on_c, 5, 66, 99
5, 165699, Pitch_bend_c, 5, 8800
5, 165705, Pitch_bend_c, 5, 9952
5, 165708, Pitch_bend_c, 5, 11680
5, 165715, Pitch_bend_c, 5, 13728
5, 165721, Pitch_bend_c, 5, 15136
5, 165724, Pitch_bend_c, 5, 16032
5, 165731, Pitch_bend_c, 5, 16383
5, 165772, Pitch_bend_c, 5, 16064
5, 165776, Pitch_bend_c, 5, 15456
5, 165785, Pitch_bend_c, 5, 14528
5, 165785, Pitch_bend_c, 5, 13184
5, 165795, Pitch_bend_c, 5, 11680
5, 165798, Pitch_bend_c, 5, 10240
5, 165808, Pitch_bend_c, 5, 9120
5, 165808, Pitch_bend_c, 5, 8416
5, 165817, Pitch_bend_c, 5, 8192
5, 165888, Note_off_c, 5, 66, 0
5, 165888, Note_on_c, 5, 64, 99
5, 166464, Note_off_c, 5, 64, 0
5, 168576, Note_on_c, 5, 66, 99
5, 168595, Pitch_bend_c, 5, 8288
5, 168598, Pitch_bend_c, 5, 8768
5, 168604, Pitch_bend_c, 5, 9504
5, 168611, Pitch_bend_c, 5, 10528
5, 168617, Pitch_bend_c, 5, 11712
5, 168617, Pitch_bend_c, 5, 12864
5, 168627, Pitch_bend_c, 5, 14048
5, 168630, Pitch_bend_c, 5, 15072
5, 168636, Pitch_bend_c, 5, 15776
5, 168640, Pitch_bend_c, 5, 16192
5, 168649, Pitch_bend_c, 5, 16383
5, 168672, Note_off_c, 5, 66, 0
5, 168684, Pitch_bend_c, 5, 16224
5, 168691, Pitch_bend_c, 5, 15872
5, 168697, Pitch_bend_c, 5, 15264
5, 168700, Pitch_bend_c, 5, 14304
5, 168704, Pitch_bend_c, 5, 13152
5, 168713, Pitch_bend_c, 5, 12000
5, 168716, Pitch_bend_c, 5, 10848
5, 168723, Pitch_bend_c, 5, 9760
5, 168729, Pitch_bend_c, 5, 8992
5, 168732, Pitch_bend_c, 5, 8448
5, 168739, Pitch_bend_c, 5, 8192
5, 168768, Note_on_c, 5, 66, 99
5, 168774, Pitch_bend_c, 5, 8512
5, 168784, Pitch_bend_c, 5, 9312
5, 168787, Pitch_bend_c, 5, 10592
5, 168793, Pitch_bend_c, 5, 12352
5, 168800, Pitch_bend_c, 5, 14048
5, 168803, Pitch_bend_c, 5, 15296
5, 168806, Pitch_bend_c, 5, 16064
5, 168816, Pitch_bend_c, 5, 16383
5, 168851, Pitch_bend_c, 5, 16224
5, 168854, Pitch_bend_c, 5, 15840
5, 168864, Pitch_bend_c, 5, 15040
5, 168867, Pitch_bend_c, 5, 13824
5, 168876, Pitch_bend_c, 5, 12256
5, 168876, Pitch_bend_c, 5, 10624
5, 168883, Pitch_bend_c, 5, 9376
5, 168889, Pitch_bend_c, 5, 8544
5, 168896, Pitch_bend_c, 5, 8192
5, 168960, Note_off_c, 5, 66, 0
5, 168960, Note_on_c, 5, 64, 99
5, 169632, Note_off_c, 5, 64, 0
5, 170304, Note_on_c, 5, 66, 99
5, 170329, Pitch_bend_c, 5, 8384
5, 170332, Pitch_bend_c, 5, 9024
5, 170339, Pitch_bend_c, 5, 10144
5, 170345, Pitch_bend_c, 5, 11808
5, 170348, Pitch_bend_c, 5, 13664
5, 170355, Pitch_bend_c, 5, 15040
5, 170361, Pitch_bend_c, 5, 15936
5, 170364, Pitch_bend_c, 5, 16383
5, 170406, Pitch_bend_c, 5, 16128
5, 170409, Pitch_bend_c, 5, 15520
5, 170419, Pitch_bend_c, 5, 14432
5, 170422, Pitch_bend_c, 5, 12736
5, 170428, Pitch_bend_c, 5, 10912
5, 170435, Pitch_bend_c, 5, 9472
5, 170438, Pitch_bend_c, 5, 8544
5, 170444, Pitch_bend_c, 5, 8192
5, 170496, Note_off_c, 5, 66, 0
5, 170496, Note_on_c, 5, 64, 99
5, 170876, Note_off_c, 5, 64, 0
5, 185088, Control_c, 5, 121, 0
5, 185184, Control_c, 5, 11, 127
5, 186624, End_track
6, 0, Start_track
6, 0, Title_t, "Guitar3 "
6, 1536, Control_c, 6, 121, 0
6, 1538, Control_c, 6, 0, 0
6, 1540, Control_c, 6, 32, 0
6, 1542, Program_c, 6, 25
6, 1544, Control_c, 6, 11, 127
6, 1554, Control_c, 6, 7, 74
6, 1556, Control_c, 6, 91, 13
6, 1558, Control_c, 6, 93, 41
6, 1560, Control_c, 6, 10, 112
6, 3072, Note_on_c, 6, 40, 116
6, 3072, Note_on_c, 6, 47, 116
6, 3072, Note_on_c, 6, 52, 116
6, 3072, Note_on_c, 6, 56, 116
6, 3072, Note_on_c, 6, 59, 116
6, 3072, Note_on_c, 6, 64, 116
6, 3840, Note_off_c, 6, 64, 0
6, 3840, Note_off_c, 6, 59, 0
6, 3840, Note_off_c, 6, 56, 0
6, 3840, Note_off_c, 6, 52, 0
6, 3840, Note_off_c, 6, 47, 0
6, 3840, Note_off_c, 6, 40, 0
6, 3840, Note_on_c, 6, 45, 116
6, 3840, Note_on_c, 6, 52, 116
6, 3840, Note_on_c, 6, 57, 116
6, 3840, Note_on_c, 6, 61, 116
6, 3840, Note_on_c, 6, 64, 116
6, 4608, Note_off_c, 6, 64, 0
6, 4608, Note_off_c, 6, 61, 0
6, 4608, Note_off_c, 6, 57, 0
6, 4608, Note_off_c, 6, 52, 0
6, 4608, Note_off_c, 6, 45, 0
6, 4608, Note_on_c, 6, 57, 116
6, 4608, Note_on_c, 6, 61, 116
6, 4608, Note_on_c, 6, 64, 116
6, 4608, Note_on_c, 6, 64, 116
6, 4800, Note_off_c, 6, 64, 0
6, 4800, Note_off_c, 6, 64, 0
6, 4800, Note_off_c, 6, 61, 0
6, 4800, Note_off_c, 6, 57, 0
6, 4800, Note_on_c, 6, 54, 116
6, 4800, Note_on_c, 6, 57, 116
6, 4800, Note_on_c, 6, 62, 116
6, 4800, Note_on_c, 6, 64, 116
6, 4992, Note_off_c, 6, 64, 0
6, 4992, Note_off_c, 6, 62, 0
6, 4992, Note_off_c, 6, 57, 0
6, 4992, Note_off_c, 6, 54, 0
6, 4992, Note_on_c, 6, 45, 116
6, 4992, Note_on_c, 6, 52, 116
6, 4992, Note_on_c, 6, 57, 116
6, 4992, Note_on_c, 6, 61, 116
6, 4992, Note_on_c, 6, 64, 116
6, 5184, Note_off_c, 6, 64, 0
6, 5184, Note_off_c, 6, 61, 0
6, 5184, Note_off_c, 6, 57, 0
6, 5184, Note_off_c, 6, 52, 0
6, 5184, Note_off_c, 6, 45, 0
6, 5184, Note_on_c, 6, 40, 116
6, 5184, Note_on_c, 6, 47, 116
6, 5184, Note_on_c, 6, 52, 116
6, 5184, Note_on_c, 6, 56, 116
6, 5184, Note_on_c, 6, 59, 116
6, 5184, Note_on_c, 6, 64, 116
6, 6048, Note_off_c, 6, 64, 0
6, 6048, Note_off_c, 6, 59, 0
6, 6048, Note_off_c, 6, 56, 0
6, 6048, Note_off_c, 6, 52, 0
6, 6048, Note_off_c, 6, 47, 0
6, 6048, Note_off_c, 6, 40, 0
6, 6144, Note_on_c, 6, 40, 116
6, 6144, Note_on_c, 6, 47, 116
6, 6144, Note_on_c, 6, 56, 116
6, 6144, Note_on_c, 6, 52, 116
6, 6144, Note_on_c, 6, 59, 116
6, 6144, Note_on_c, 6, 64, 116
6, 6912, Note_off_c, 6, 64, 0
6, 6912, Note_off_c, 6, 59, 0
6, 6912, Note_off_c, 6, 52, 0
6, 6912, Note_off_c, 6, 56, 0
6, 6912, Note_off_c, 6, 47, 0
6, 6912, Note_off_c, 6, 40, 0
6, 6912, Note_on_c, 6, 45, 116
6, 6912, Note_on_c, 6, 52, 116
6, 6912, Note_on_c, 6, 57, 116
6, 6912, Note_on_c, 6, 61, 116
6, 6912, Note_on_c, 6, 64, 116
6, 7680, Note_off_c, 6, 64, 0
6, 7680, Note_off_c, 6, 61, 0
6, 7680, Note_off_c, 6, 57, 0
6, 7680, Note_off_c, 6, 52, 0
6, 7680, Note_off_c, 6, 45, 0
6, 7680, Note_on_c, 6, 57, 116
6, 7680, Note_on_c, 6, 61, 116
6, 7680, Note_on_c, 6, 64, 116
6, 7680, Note_on_c, 6, 64, 116
6, 7872, Note_off_c, 6, 64, 0
6, 7872, Note_off_c, 6, 64, 0
6, 7872, Note_off_c, 6, 61, 0
6, 7872, Note_off_c, 6, 57, 0
6, 7872, Note_on_c, 6, 54, 116
6, 7872, Note_on_c, 6, 57, 116
6, 7872, Note_on_c, 6, 62, 116
6, 7872, Note_on_c, 6, 64, 116
6, 8064, Note_off_c, 6, 64, 0
6, 8064, Note_off_c, 6, 62, 0
6, 8064, Note_off_c, 6, 57, 0
6, 8064, Note_off_c, 6, 54, 0
6, 8064, Note_on_c, 6, 45, 116
6, 8064, Note_on_c, 6, 52, 116
6, 8064, Note_on_c, 6, 57, 116
6, 8064, Note_on_c, 6, 61, 116
6, 8064, Note_on_c, 6, 64, 116
6, 8256, Note_off_c, 6, 64, 0
6, 8256, Note_off_c, 6, 61, 0
6, 8256, Note_off_c, 6, 57, 0
6, 8256, Note_off_c, 6, 52, 0
6, 8256, Note_off_c, 6, 45, 0
6, 8256, Note_on_c, 6, 40, 116
6, 8256, Note_on_c, 6, 47, 116
6, 8256, Note_on_c, 6, 52, 116
6, 8256, Note_on_c, 6, 56, 116
6, 8256, Note_on_c, 6, 59, 116
6, 8256, Note_on_c, 6, 64, 116
6, 9120, Note_off_c, 6, 64, 0
6, 9120, Note_off_c, 6, 59, 0
6, 9120, Note_off_c, 6, 56, 0
6, 9120, Note_off_c, 6, 52, 0
6, 9120, Note_off_c, 6, 47, 0
6, 9120, Note_off_c, 6, 40, 0
6, 9216, Note_on_c, 6, 40, 96
6, 9216, Note_on_c, 6, 47, 96
6, 9216, Note_on_c, 6, 52, 96
6, 9216, Note_on_c, 6, 56, 96
6, 9216, Note_on_c, 6, 59, 96
6, 9216, Note_on_c, 6, 64, 96
6, 9504, Note_off_c, 6, 64, 0
6, 9504, Note_off_c, 6, 59, 0
6, 9504, Note_off_c, 6, 56, 0
6, 9504, Note_off_c, 6, 52, 0
6, 9504, Note_off_c, 6, 47, 0
6, 9504, Note_off_c, 6, 40, 0
6, 9504, Note_on_c, 6, 64, 96
6, 9504, Note_on_c, 6, 59, 96
6, 9504, Note_on_c, 6, 56, 96
6, 9504, Note_on_c, 6, 52, 96
6, 9504, Note_on_c, 6, 47, 96
6, 9600, Note_off_c, 6, 47, 0
6, 9600, Note_off_c, 6, 52, 0
6, 9600, Note_off_c, 6, 56, 0
6, 9600, Note_off_c, 6, 59, 0
6, 9600, Note_off_c, 6, 64, 0
6, 9600, Note_on_c, 6, 40, 96
6, 9600, Note_on_c, 6, 47, 96
6, 9600, Note_on_c, 6, 52, 96
6, 9600, Note_on_c, 6, 56, 96
6, 9600, Note_on_c, 6, 59, 96
6, 9600, Note_on_c, 6, 64, 96
6, 9696, Note_on_c, 6, 40, 71
6, 9696, Note_on_c, 6, 47, 71
6, 9696, Note_on_c, 6, 52, 71
6, 9696, Note_on_c, 6, 56, 71
6, 9696, Note_on_c, 6, 59, 71
6, 9696, Note_on_c, 6, 64, 71
6, 9792, Note_off_c, 6, 64, 0
6, 9792, Note_off_c, 6, 59, 0
6, 9792, Note_off_c, 6, 56, 0
6, 9792, Note_off_c, 6, 52, 0
6, 9792, Note_off_c, 6, 47, 0
6, 9792, Note_off_c, 6, 40, 0
6, 9792, Note_off_c, 6, 64, 0
6, 9792, Note_off_c, 6, 59, 0
6, 9792, Note_off_c, 6, 56, 0
6, 9792, Note_off_c, 6, 52, 0
6, 9792, Note_off_c, 6, 47, 0
6, 9792, Note_off_c, 6, 40, 0
6, 9792, Note_on_c, 6, 64, 71
6, 9792, Note_on_c, 6, 59, 71
6, 9792, Note_on_c, 6, 56, 71
6, 9792, Note_on_c, 6, 52, 71
6, 9792, Note_on_c, 6, 47, 71
6, 9888, Note_off_c, 6, 47, 0
6, 9888, Note_off_c, 6, 52, 0
6, 9888, Note_off_c, 6, 56, 0
6, 9888, Note_off_c, 6, 59, 0
6, 9888, Note_off_c, 6, 64, 0
6, 9888, Note_on_c, 6, 50, 96
6, 9888, Note_on_c, 6, 57, 96
6, 9888, Note_on_c, 6, 62, 96
6, 9888, Note_on_c, 6, 66, 96
6, 10080, Note_on_c, 6, 66, 96
6, 10080, Note_on_c, 6, 62, 96
6, 10080, Note_on_c, 6, 57, 96
6, 10080, Note_on_c, 6, 50, 96
6, 10176, Note_off_c, 6, 50, 0
6, 10176, Note_off_c, 6, 57, 0
6, 10176, Note_off_c, 6, 62, 0
6, 10176, Note_off_c, 6, 66, 0
6, 10176, Note_off_c, 6, 66, 0
6, 10176, Note_off_c, 6, 62, 0
6, 10176, Note_off_c, 6, 57, 0
6, 10176, Note_off_c, 6, 50, 0
6, 10176, Note_on_c, 6, 50, 96
6, 10176, Note_on_c, 6, 57, 96
6, 10176, Note_on_c, 6, 62, 96
6, 10176, Note_on_c, 6, 66, 96
6, 10272, Note_on_c, 6, 66, 71
6, 10272, Note_on_c, 6, 62, 71
6, 10272, Note_on_c, 6, 50, 71
6, 10272, Note_on_c, 6, 57, 71
6, 10368, Note_off_c, 6, 57, 0
6, 10368, Note_off_c, 6, 50, 0
6, 10368, Note_off_c, 6, 62, 0
6, 10368, Note_off_c, 6, 66, 0
6, 10368, Note_off_c, 6, 66, 0
6, 10368, Note_off_c, 6, 62, 0
6, 10368, Note_off_c, 6, 57, 0
6, 10368, Note_off_c, 6, 50, 0
6, 10368, Note_on_c, 6, 50, 71
6, 10368, Note_on_c, 6, 57, 71
6, 10368, Note_on_c, 6, 62, 71
6, 10368, Note_on_c, 6, 66, 71
6, 10752, Note_off_c, 6, 66, 0
6, 10752, Note_off_c, 6, 62, 0
6, 10752, Note_off_c, 6, 57, 0
6, 10752, Note_off_c, 6, 50, 0
6, 10752, Note_on_c, 6, 45, 96
6, 10752, Note_on_c, 6, 52, 96
6, 10752, Note_on_c, 6, 57, 96
6, 10752, Note_on_c, 6, 61, 96
6, 10752, Note_on_c, 6, 64, 96
6, 11040, Note_off_c, 6, 64, 0
6, 11040, Note_off_c, 6, 61, 0
6, 11040, Note_off_c, 6, 57, 0
6, 11040, Note_off_c, 6, 52, 0
6, 11040, Note_off_c, 6, 45, 0
6, 11040, Note_on_c, 6, 64, 96
6, 11040, Note_on_c, 6, 61, 96
6, 11040, Note_on_c, 6, 57, 96
6, 11040, Note_on_c, 6, 52, 96
6, 11136, Note_off_c, 6, 52, 0
6, 11136, Note_off_c, 6, 57, 0
6, 11136, Note_off_c, 6, 61, 0
6, 11136, Note_off_c, 6, 64, 0
6, 11136, Note_on_c, 6, 45, 96
6, 11136, Note_on_c, 6, 52, 96
6, 11136, Note_on_c, 6, 57, 96
6, 11136, Note_on_c, 6, 61, 96
6, 11136, Note_on_c, 6, 64, 96
6, 11232, Note_on_c, 6, 64, 71
6, 11232, Note_on_c, 6, 61, 71
6, 11232, Note_on_c, 6, 52, 71
6, 11232, Note_on_c, 6, 57, 71
6, 11328, Note_off_c, 6, 57, 0
6, 11328, Note_off_c, 6, 52, 0
6, 11328, Note_off_c, 6, 61, 0
6, 11328, Note_off_c, 6, 64, 0
6, 11328, Note_off_c, 6, 64, 0
6, 11328, Note_off_c, 6, 61, 0
6, 11328, Note_off_c, 6, 57, 0
6, 11328, Note_off_c, 6, 52, 0
6, 11328, Note_off_c, 6, 45, 0
6, 11328, Note_on_c, 6, 45, 71
6, 11328, Note_on_c, 6, 52, 71
6, 11328, Note_on_c, 6, 57, 71
6, 11328, Note_on_c, 6, 61, 71
6, 11328, Note_on_c, 6, 64, 71
6, 11424, Note_off_c, 6, 64, 0
6, 11424, Note_off_c, 6, 61, 0
6, 11424, Note_off_c, 6, 57, 0
6, 11424, Note_off_c, 6, 52, 0
6, 11424, Note_off_c, 6, 45, 0
6, 11520, Note_on_c, 6, 40, 96
6, 11520, Note_on_c, 6, 47, 96
6, 11520, Note_on_c, 6, 52, 96
6, 11520, Note_on_c, 6, 56, 96
6, 11520, Note_on_c, 6, 59, 96
6, 11520, Note_on_c, 6, 64, 96
6, 13056, Note_off_c, 6, 64, 0
6, 13056, Note_off_c, 6, 59, 0
6, 13056, Note_off_c, 6, 56, 0
6, 13056, Note_off_c, 6, 52, 0
6, 13056, Note_off_c, 6, 47, 0
6, 13056, Note_off_c, 6, 40, 0
6, 13056, Note_on_c, 6, 40, 96
6, 13062, Note_on_c, 6, 47, 96
6, 13065, Note_on_c, 6, 52, 96
6, 13068, Note_on_c, 6, 56, 96
6, 13072, Note_on_c, 6, 59, 96
6, 13075, Note_on_c, 6, 64, 96
6, 13344, Note_on_c, 6, 64, 71
6, 13350, Note_on_c, 6, 59, 71
6, 13353, Note_on_c, 6, 56, 71
6, 13356, Note_on_c, 6, 52, 71
6, 13360, Note_on_c, 6, 47, 71
6, 13440, Note_off_c, 6, 47, 0
6, 13440, Note_off_c, 6, 52, 0
6, 13440, Note_off_c, 6, 56, 0
6, 13440, Note_off_c, 6, 59, 0
6, 13440, Note_off_c, 6, 64, 0
6, 13440, Note_off_c, 6, 64, 0
6, 13440, Note_off_c, 6, 59, 0
6, 13440, Note_off_c, 6, 56, 0
6, 13440, Note_off_c, 6, 52, 0
6, 13440, Note_off_c, 6, 47, 0
6, 13440, Note_off_c, 6, 40, 0
6, 13440, Note_on_c, 6, 40, 96
6, 13446, Note_on_c, 6, 47, 96
6, 13449, Note_on_c, 6, 52, 96
6, 13452, Note_on_c, 6, 56, 96
6, 13456, Note_on_c, 6, 59, 96
6, 13459, Note_on_c, 6, 64, 96
6, 13824, Note_off_c, 6, 64, 0
6, 13824, Note_off_c, 6, 59, 0
6, 13824, Note_off_c, 6, 56, 0
6, 13824, Note_off_c, 6, 52, 0
6, 13824, Note_off_c, 6, 47, 0
6, 13824, Note_off_c, 6, 40, 0
6, 13827, Note_on_c, 6, 47, 96
6, 13830, Note_on_c, 6, 54, 96
6, 13833, Note_on_c, 6, 59, 96
6, 13836, Note_on_c, 6, 63, 96
6, 13840, Note_on_c, 6, 66, 96
6, 14112, Note_on_c, 6, 66, 71
6, 14118, Note_on_c, 6, 63, 71
6, 14121, Note_on_c, 6, 59, 71
6, 14124, Note_on_c, 6, 54, 71
6, 14208, Note_off_c, 6, 54, 0
6, 14208, Note_off_c, 6, 59, 0
6, 14208, Note_off_c, 6, 63, 0
6, 14208, Note_off_c, 6, 66, 0
6, 14208, Note_off_c, 6, 66, 0
6, 14208, Note_off_c, 6, 63, 0
6, 14208, Note_off_c, 6, 59, 0
6, 14208, Note_off_c, 6, 54, 0
6, 14208, Note_off_c, 6, 47, 0
6, 14208, Note_on_c, 6, 47, 96
6, 14214, Note_on_c, 6, 54, 96
6, 14217, Note_on_c, 6, 59, 96
6, 14220, Note_on_c, 6, 63, 96
6, 14224, Note_on_c, 6, 66, 96
6, 14304, Note_on_c, 6, 66, 71
6, 14310, Note_on_c, 6, 63, 71
6, 14313, Note_on_c, 6, 59, 71
6, 14316, Note_on_c, 6, 54, 71
6, 14400, Note_off_c, 6, 66, 0
6, 14400, Note_off_c, 6, 63, 0
6, 14400, Note_off_c, 6, 59, 0
6, 14400, Note_off_c, 6, 54, 0
6, 14592, Note_off_c, 6, 54, 0
6, 14592, Note_off_c, 6, 59, 0
6, 14592, Note_off_c, 6, 63, 0
6, 14592, Note_off_c, 6, 66, 0
6, 14592, Note_off_c, 6, 47, 0
6, 14592, Note_on_c, 6, 45, 96
6, 14598, Note_on_c, 6, 52, 96
6, 14601, Note_on_c, 6, 57, 96
6, 14604, Note_on_c, 6, 61, 96
6, 14608, Note_on_c, 6, 64, 96
6, 14880, Note_on_c, 6, 64, 71
6, 14886, Note_on_c, 6, 61, 71
6, 14889, Note_on_c, 6, 57, 71
6, 14892, Note_on_c, 6, 52, 71
6, 14976, Note_off_c, 6, 52, 0
6, 14976, Note_off_c, 6, 57, 0
6, 14976, Note_off_c, 6, 61, 0
6, 14976, Note_off_c, 6, 64, 0
6, 14976, Note_off_c, 6, 64, 0
6, 14976, Note_off_c, 6, 61, 0
6, 14976, Note_off_c, 6, 57, 0
6, 14976, Note_off_c, 6, 52, 0
6, 14976, Note_off_c, 6, 45, 0
6, 14976, Note_on_c, 6, 45, 96
6, 14982, Note_on_c, 6, 52, 96
6, 14985, Note_on_c, 6, 57, 96
6, 14988, Note_on_c, 6, 61, 96
6, 14992, Note_on_c, 6, 64, 96
6, 15360, Note_off_c, 6, 64, 0
6, 15360, Note_off_c, 6, 61, 0
6, 15360, Note_off_c, 6, 57, 0
6, 15360, Note_off_c, 6, 52, 0
6, 15360, Note_off_c, 6, 45, 0
6, 15360, Note_on_c, 6, 40, 96
6, 15366, Note_on_c, 6, 47, 96
6, 15369, Note_on_c, 6, 52, 96
6, 15372, Note_on_c, 6, 56, 96
6, 15376, Note_on_c, 6, 59, 96
6, 15379, Note_on_c, 6, 64, 96
6, 15648, Note_on_c, 6, 64, 71
6, 15654, Note_on_c, 6, 59, 71
6, 15657, Note_on_c, 6, 56, 71
6, 15660, Note_on_c, 6, 52, 71
6, 15664, Note_on_c, 6, 47, 71
6, 15744, Note_off_c, 6, 47, 0
6, 15744, Note_off_c, 6, 52, 0
6, 15744, Note_off_c, 6, 56, 0
6, 15744, Note_off_c, 6, 59, 0
6, 15744, Note_off_c, 6, 64, 0
6, 15744, Note_off_c, 6, 64, 0
6, 15744, Note_off_c, 6, 59, 0
6, 15744, Note_off_c, 6, 56, 0
6, 15744, Note_off_c, 6, 52, 0
6, 15744, Note_off_c, 6, 47, 0
6, 15744, Note_off_c, 6, 40, 0
6, 15744, Note_on_c, 6, 40, 96
6, 15750, Note_on_c, 6, 47, 96
6, 15753, Note_on_c, 6, 52, 96
6, 15756, Note_on_c, 6, 56, 96
6, 15760, Note_on_c, 6, 59, 96
6, 15763, Note_on_c, 6, 64, 96
6, 15840, Note_on_c, 6, 64, 71
6, 15846, Note_on_c, 6, 59, 71
6, 15849, Note_on_c, 6, 56, 71
6, 15852, Note_on_c, 6, 52, 71
6, 15856, Note_on_c, 6, 47, 71
6, 15936, Note_off_c, 6, 64, 0
6, 15936, Note_off_c, 6, 59, 0
6, 15936, Note_off_c, 6, 56, 0
6, 15936, Note_off_c, 6, 52, 0
6, 15936, Note_off_c, 6, 47, 0
6, 16032, Note_on_c, 6, 47, 71
6, 16035, Note_on_c, 6, 52, 71
6, 16038, Note_on_c, 6, 56, 71
6, 16041, Note_on_c, 6, 59, 71
6, 16044, Note_on_c, 6, 64, 71
6, 16128, Note_off_c, 6, 64, 0
6, 16128, Note_off_c, 6, 59, 0
6, 16128, Note_off_c, 6, 56, 0
6, 16128, Note_off_c, 6, 52, 0
6, 16128, Note_off_c, 6, 47, 0
6, 16128, Note_off_c, 6, 47, 0
6, 16128, Note_off_c, 6, 52, 0
6, 16128, Note_off_c, 6, 56, 0
6, 16128, Note_off_c, 6, 59, 0
6, 16128, Note_off_c, 6, 64, 0
6, 16128, Note_off_c, 6, 40, 0
6, 16128, Note_on_c, 6, 40, 96
6, 16134, Note_on_c, 6, 47, 96
6, 16137, Note_on_c, 6, 52, 96
6, 16140, Note_on_c, 6, 56, 96
6, 16144, Note_on_c, 6, 59, 96
6, 16147, Note_on_c, 6, 64, 96
6, 16416, Note_on_c, 6, 64, 71
6, 16422, Note_on_c, 6, 59, 71
6, 16425, Note_on_c, 6, 56, 71
6, 16428, Note_on_c, 6, 52, 71
6, 16432, Note_on_c, 6, 47, 71
6, 16512, Note_off_c, 6, 47, 0
6, 16512, Note_off_c, 6, 52, 0
6, 16512, Note_off_c, 6, 56, 0
6, 16512, Note_off_c, 6, 59, 0
6, 16512, Note_off_c, 6, 64, 0
6, 16512, Note_off_c, 6, 64, 0
6, 16512, Note_off_c, 6, 59, 0
6, 16512, Note_off_c, 6, 56, 0
6, 16512, Note_off_c, 6, 52, 0
6, 16512, Note_off_c, 6, 47, 0
6, 16512, Note_off_c, 6, 40, 0
6, 16512, Note_on_c, 6, 40, 96
6, 16518, Note_on_c, 6, 47, 96
6, 16521, Note_on_c, 6, 52, 96
6, 16524, Note_on_c, 6, 56, 96
6, 16528, Note_on_c, 6, 59, 96
6, 16531, Note_on_c, 6, 64, 96
6, 16896, Note_off_c, 6, 64, 0
6, 16896, Note_off_c, 6, 59, 0
6, 16896, Note_off_c, 6, 56, 0
6, 16896, Note_off_c, 6, 52, 0
6, 16896, Note_off_c, 6, 47, 0
6, 16896, Note_off_c, 6, 40, 0
6, 16899, Note_on_c, 6, 47, 96
6, 16902, Note_on_c, 6, 54, 96
6, 16905, Note_on_c, 6, 59, 96
6, 16908, Note_on_c, 6, 63, 96
6, 16912, Note_on_c, 6, 66, 96
6, 17184, Note_on_c, 6, 66, 71
6, 17190, Note_on_c, 6, 63, 71
6, 17193, Note_on_c, 6, 59, 71
6, 17196, Note_on_c, 6, 54, 71
6, 17280, Note_off_c, 6, 54, 0
6, 17280, Note_off_c, 6, 59, 0
6, 17280, Note_off_c, 6, 63, 0
6, 17280, Note_off_c, 6, 66, 0
6, 17280, Note_off_c, 6, 66, 0
6, 17280, Note_off_c, 6, 63, 0
6, 17280, Note_off_c, 6, 59, 0
6, 17280, Note_off_c, 6, 54, 0
6, 17280, Note_off_c, 6, 47, 0
6, 17280, Note_on_c, 6, 47, 96
6, 17286, Note_on_c, 6, 54, 96
6, 17289, Note_on_c, 6, 59, 96
6, 17292, Note_on_c, 6, 63, 96
6, 17296, Note_on_c, 6, 66, 96
6, 17376, Note_on_c, 6, 66, 71
6, 17382, Note_on_c, 6, 63, 71
6, 17385, Note_on_c, 6, 59, 71
6, 17388, Note_on_c, 6, 54, 71
6, 17472, Note_off_c, 6, 66, 0
6, 17472, Note_off_c, 6, 63, 0
6, 17472, Note_off_c, 6, 59, 0
6, 17472, Note_off_c, 6, 54, 0
6, 17664, Note_off_c, 6, 54, 0
6, 17664, Note_off_c, 6, 59, 0
6, 17664, Note_off_c, 6, 63, 0
6, 17664, Note_off_c, 6, 66, 0
6, 17664, Note_off_c, 6, 47, 0
6, 17664, Note_on_c, 6, 45, 96
6, 17670, Note_on_c, 6, 52, 96
6, 17673, Note_on_c, 6, 57, 96
6, 17676, Note_on_c, 6, 61, 96
6, 17680, Note_on_c, 6, 64, 96
6, 17952, Note_on_c, 6, 64, 71
6, 17958, Note_on_c, 6, 61, 71
6, 17961, Note_on_c, 6, 57, 71
6, 17964, Note_on_c, 6, 52, 71
6, 18048, Note_off_c, 6, 52, 0
6, 18048, Note_off_c, 6, 57, 0
6, 18048, Note_off_c, 6, 61, 0
6, 18048, Note_off_c, 6, 64, 0
6, 18048, Note_off_c, 6, 64, 0
6, 18048, Note_off_c, 6, 61, 0
6, 18048, Note_off_c, 6, 57, 0
6, 18048, Note_off_c, 6, 52, 0
6, 18048, Note_off_c, 6, 45, 0
6, 18048, Note_on_c, 6, 45, 96
6, 18054, Note_on_c, 6, 52, 96
6, 18057, Note_on_c, 6, 57, 96
6, 18060, Note_on_c, 6, 61, 96
6, 18064, Note_on_c, 6, 64, 96
6, 18432, Note_off_c, 6, 64, 0
6, 18432, Note_off_c, 6, 61, 0
6, 18432, Note_off_c, 6, 57, 0
6, 18432, Note_off_c, 6, 52, 0
6, 18432, Note_off_c, 6, 45, 0
6, 18432, Note_on_c, 6, 45, 96
6, 18438, Note_on_c, 6, 52, 96
6, 18441, Note_on_c, 6, 57, 96
6, 18444, Note_on_c, 6, 61, 96
6, 18448, Note_on_c, 6, 64, 96
6, 18720, Note_on_c, 6, 64, 71
6, 18726, Note_on_c, 6, 61, 71
6, 18729, Note_on_c, 6, 57, 71
6, 18732, Note_on_c, 6, 52, 71
6, 18816, Note_off_c, 6, 52, 0
6, 18816, Note_off_c, 6, 57, 0
6, 18816, Note_off_c, 6, 61, 0
6, 18816, Note_off_c, 6, 64, 0
6, 18816, Note_off_c, 6, 64, 0
6, 18816, Note_off_c, 6, 61, 0
6, 18816, Note_off_c, 6, 57, 0
6, 18816, Note_off_c, 6, 52, 0
6, 18816, Note_off_c, 6, 45, 0
6, 18816, Note_on_c, 6, 45, 96
6, 18822, Note_on_c, 6, 52, 96
6, 18825, Note_on_c, 6, 57, 96
6, 18828, Note_on_c, 6, 61, 96
6, 18832, Note_on_c, 6, 64, 96
6, 19200, Note_off_c, 6, 64, 0
6, 19200, Note_off_c, 6, 61, 0
6, 19200, Note_off_c, 6, 57, 0
6, 19200, Note_off_c, 6, 52, 0
6, 19200, Note_off_c, 6, 45, 0
6, 19200, Note_on_c, 6, 45, 96
6, 19206, Note_on_c, 6, 52, 96
6, 19209, Note_on_c, 6, 57, 96
6, 19212, Note_on_c, 6, 61, 96
6, 19216, Note_on_c, 6, 64, 96
6, 19488, Note_on_c, 6, 64, 71
6, 19494, Note_on_c, 6, 61, 71
6, 19497, Note_on_c, 6, 57, 71
6, 19500, Note_on_c, 6, 52, 71
6, 19584, Note_off_c, 6, 52, 0
6, 19584, Note_off_c, 6, 57, 0
6, 19584, Note_off_c, 6, 61, 0
6, 19584, Note_off_c, 6, 64, 0
6, 19584, Note_off_c, 6, 64, 0
6, 19584, Note_off_c, 6, 61, 0
6, 19584, Note_off_c, 6, 57, 0
6, 19584, Note_off_c, 6, 52, 0
6, 19584, Note_off_c, 6, 45, 0
6, 19584, Note_on_c, 6, 45, 96
6, 19590, Note_on_c, 6, 52, 96
6, 19593, Note_on_c, 6, 57, 96
6, 19596, Note_on_c, 6, 61, 96
6, 19600, Note_on_c, 6, 64, 96
6, 19968, Note_off_c, 6, 64, 0
6, 19968, Note_off_c, 6, 61, 0
6, 19968, Note_off_c, 6, 57, 0
6, 19968, Note_off_c, 6, 52, 0
6, 19968, Note_off_c, 6, 45, 0
6, 19974, Note_on_c, 6, 62, 96
6, 19977, Note_on_c, 6, 57, 96
6, 19980, Note_on_c, 6, 52, 96
6, 19984, Note_on_c, 6, 64, 96
6, 20064, Note_off_c, 6, 64, 0
6, 20064, Note_off_c, 6, 52, 0
6, 20064, Note_off_c, 6, 57, 0
6, 20064, Note_off_c, 6, 62, 0
6, 20064, Note_on_c, 6, 45, 96
6, 20070, Note_on_c, 6, 52, 96
6, 20073, Note_on_c, 6, 57, 96
6, 20076, Note_on_c, 6, 61, 96
6, 20080, Note_on_c, 6, 64, 96
6, 20352, Note_on_c, 6, 45, 96
6, 20358, Note_on_c, 6, 52, 96
6, 20361, Note_on_c, 6, 57, 96
6, 20364, Note_on_c, 6, 61, 96
6, 20368, Note_on_c, 6, 64, 96
6, 20448, Note_off_c, 6, 64, 0
6, 20448, Note_off_c, 6, 61, 0
6, 20448, Note_off_c, 6, 57, 0
6, 20448, Note_off_c, 6, 52, 0
6, 20448, Note_off_c, 6, 45, 0
6, 20736, Note_off_c, 6, 64, 0
6, 20736, Note_off_c, 6, 61, 0
6, 20736, Note_off_c, 6, 57, 0
6, 20736, Note_off_c, 6, 52, 0
6, 20736, Note_off_c, 6, 45, 0
6, 20736, Note_on_c, 6, 40, 96
6, 20742, Note_on_c, 6, 47, 96
6, 20745, Note_on_c, 6, 52, 96
6, 20748, Note_on_c, 6, 56, 96
6, 20752, Note_on_c, 6, 59, 96
6, 20755, Note_on_c, 6, 64, 96
6, 20928, Note_off_c, 6, 64, 0
6, 20928, Note_off_c, 6, 59, 0
6, 20928, Note_off_c, 6, 56, 0
6, 20928, Note_off_c, 6, 52, 0
6, 20928, Note_off_c, 6, 47, 0
6, 20928, Note_off_c, 6, 40, 0
6, 20928, Note_on_c, 6, 40, 96
6, 20934, Note_on_c, 6, 47, 96
6, 20937, Note_on_c, 6, 52, 96
6, 20940, Note_on_c, 6, 56, 96
6, 20944, Note_on_c, 6, 59, 96
6, 20947, Note_on_c, 6, 64, 96
6, 21024, Note_off_c, 6, 64, 0
6, 21024, Note_off_c, 6, 59, 0
6, 21024, Note_off_c, 6, 56, 0
6, 21024, Note_off_c, 6, 52, 0
6, 21024, Note_off_c, 6, 47, 0
6, 21024, Note_off_c, 6, 40, 0
6, 21024, Note_on_c, 6, 64, 81
6, 21030, Note_on_c, 6, 59, 81
6, 21033, Note_on_c, 6, 56, 81
6, 21036, Note_on_c, 6, 52, 81
6, 21040, Note_on_c, 6, 47, 81
6, 21216, Note_on_c, 6, 64, 81
6, 21222, Note_on_c, 6, 59, 81
6, 21225, Note_on_c, 6, 56, 81
6, 21228, Note_on_c, 6, 52, 81
6, 21232, Note_on_c, 6, 47, 81
6, 21312, Note_off_c, 6, 47, 0
6, 21312, Note_off_c, 6, 52, 0
6, 21312, Note_off_c, 6, 56, 0
6, 21312, Note_off_c, 6, 59, 0
6, 21312, Note_off_c, 6, 64, 0
6, 21312, Note_off_c, 6, 47, 0
6, 21312, Note_off_c, 6, 52, 0
6, 21312, Note_off_c, 6, 56, 0
6, 21312, Note_off_c, 6, 59, 0
6, 21312, Note_off_c, 6, 64, 0
6, 21312, Note_on_c, 6, 40, 96
6, 21318, Note_on_c, 6, 47, 96
6, 21321, Note_on_c, 6, 52, 96
6, 21324, Note_on_c, 6, 56, 96
6, 21328, Note_on_c, 6, 59, 96
6, 21331, Note_on_c, 6, 64, 96
6, 21504, Note_off_c, 6, 64, 0
6, 21504, Note_off_c, 6, 59, 0
6, 21504, Note_off_c, 6, 56, 0
6, 21504, Note_off_c, 6, 52, 0
6, 21504, Note_off_c, 6, 47, 0
6, 21504, Note_off_c, 6, 40, 0
6, 21504, Note_on_c, 6, 40, 96
6, 21510, Note_on_c, 6, 47, 96
6, 21513, Note_on_c, 6, 52, 96
6, 21516, Note_on_c, 6, 56, 96
6, 21520, Note_on_c, 6, 59, 96
6, 21523, Note_on_c, 6, 64, 96
6, 21600, Note_off_c, 6, 64, 0
6, 21600, Note_off_c, 6, 59, 0
6, 21600, Note_off_c, 6, 56, 0
6, 21600, Note_off_c, 6, 52, 0
6, 21600, Note_off_c, 6, 47, 0
6, 21600, Note_off_c, 6, 40, 0
6, 21600, Note_on_c, 6, 64, 81
6, 21606, Note_on_c, 6, 59, 81
6, 21609, Note_on_c, 6, 56, 81
6, 21612, Note_on_c, 6, 52, 81
6, 21616, Note_on_c, 6, 47, 41
6, 21696, Note_off_c, 6, 47, 0
6, 21792, Note_on_c, 6, 64, 81
6, 21798, Note_on_c, 6, 59, 81
6, 21801, Note_on_c, 6, 56, 81
6, 21804, Note_on_c, 6, 52, 81
6, 21808, Note_on_c, 6, 47, 81
6, 21888, Note_off_c, 6, 47, 0
6, 21888, Note_off_c, 6, 52, 0
6, 21888, Note_off_c, 6, 56, 0
6, 21888, Note_off_c, 6, 59, 0
6, 21888, Note_off_c, 6, 64, 0
6, 21888, Note_off_c, 6, 52, 0
6, 21888, Note_off_c, 6, 56, 0
6, 21888, Note_off_c, 6, 59, 0
6, 21888, Note_off_c, 6, 64, 0
6, 21888, Note_on_c, 6, 40, 96
6, 21894, Note_on_c, 6, 47, 96
6, 21897, Note_on_c, 6, 52, 96
6, 21900, Note_on_c, 6, 56, 96
6, 21904, Note_on_c, 6, 59, 96
6, 21907, Note_on_c, 6, 64, 96
6, 22080, Note_off_c, 6, 64, 0
6, 22080, Note_off_c, 6, 59, 0
6, 22080, Note_off_c, 6, 56, 0
6, 22080, Note_off_c, 6, 52, 0
6, 22080, Note_off_c, 6, 47, 0
6, 22080, Note_off_c, 6, 40, 0
6, 22080, Note_on_c, 6, 64, 96
6, 22086, Note_on_c, 6, 59, 96
6, 22089, Note_on_c, 6, 56, 96
6, 22089, Note_on_c, 6, 52, 96
6, 22092, Note_on_c, 6, 47, 96
6, 22176, Note_off_c, 6, 52, 0
6, 22176, Note_off_c, 6, 56, 0
6, 22272, Note_off_c, 6, 47, 0
6, 22272, Note_off_c, 6, 59, 0
6, 22272, Note_off_c, 6, 64, 0
6, 22272, Note_on_c, 6, 47, 96
6, 22278, Note_on_c, 6, 54, 96
6, 22281, Note_on_c, 6, 59, 96
6, 22284, Note_on_c, 6, 63, 96
6, 22288, Note_on_c, 6, 66, 96
6, 22464, Note_off_c, 6, 66, 0
6, 22464, Note_off_c, 6, 63, 0
6, 22464, Note_off_c, 6, 59, 0
6, 22464, Note_off_c, 6, 54, 0
6, 22464, Note_off_c, 6, 47, 0
6, 22464, Note_on_c, 6, 47, 96
6, 22473, Note_on_c, 6, 59, 96
6, 22473, Note_on_c, 6, 54, 96
6, 22476, Note_on_c, 6, 63, 96
6, 22480, Note_on_c, 6, 66, 96
6, 22656, Note_off_c, 6, 66, 0
6, 22656, Note_off_c, 6, 63, 0
6, 22656, Note_off_c, 6, 54, 0
6, 22656, Note_off_c, 6, 59, 0
6, 22656, Note_off_c, 6, 47, 0
6, 22848, Note_on_c, 6, 45, 96
6, 22857, Note_on_c, 6, 52, 96
6, 22860, Note_on_c, 6, 57, 96
6, 22864, Note_on_c, 6, 61, 96
6, 22867, Note_on_c, 6, 64, 96
6, 23232, Note_off_c, 6, 64, 0
6, 23232, Note_off_c, 6, 61, 0
6, 23232, Note_off_c, 6, 57, 0
6, 23232, Note_off_c, 6, 52, 0
6, 23232, Note_off_c, 6, 45, 0
6, 23232, Note_on_c, 6, 45, 96
6, 23238, Note_on_c, 6, 52, 96
6, 23241, Note_on_c, 6, 57, 96
6, 23244, Note_on_c, 6, 61, 96
6, 23248, Note_on_c, 6, 64, 96
6, 23328, Note_off_c, 6, 64, 0
6, 23328, Note_off_c, 6, 61, 0
6, 23328, Note_off_c, 6, 57, 0
6, 23328, Note_off_c, 6, 52, 0
6, 23328, Note_off_c, 6, 45, 0
6, 23328, Note_on_c, 6, 64, 81
6, 23334, Note_on_c, 6, 61, 81
6, 23337, Note_on_c, 6, 57, 81
6, 23340, Note_on_c, 6, 52, 81
6, 23424, Note_off_c, 6, 52, 0
6, 23424, Note_off_c, 6, 57, 0
6, 23424, Note_off_c, 6, 61, 0
6, 23424, Note_off_c, 6, 64, 0
6, 23424, Note_on_c, 6, 45, 96
6, 23430, Note_on_c, 6, 52, 96
6, 23433, Note_on_c, 6, 57, 96
6, 23436, Note_on_c, 6, 61, 96
6, 23440, Note_on_c, 6, 64, 96
6, 23808, Note_off_c, 6, 64, 0
6, 23808, Note_off_c, 6, 61, 0
6, 23808, Note_off_c, 6, 57, 0
6, 23808, Note_off_c, 6, 52, 0
6, 23808, Note_off_c, 6, 45, 0
6, 23808, Note_on_c, 6, 40, 96
6, 23814, Note_on_c, 6, 47, 96
6, 23817, Note_on_c, 6, 52, 96
6, 23820, Note_on_c, 6, 56, 96
6, 23824, Note_on_c, 6, 59, 96
6, 23827, Note_on_c, 6, 64, 96
6, 24096, Note_on_c, 6, 64, 71
6, 24102, Note_on_c, 6, 59, 71
6, 24105, Note_on_c, 6, 56, 71
6, 24108, Note_on_c, 6, 52, 71
6, 24112, Note_on_c, 6, 47, 71
6, 24192, Note_off_c, 6, 47, 0
6, 24192, Note_off_c, 6, 52, 0
6, 24192, Note_off_c, 6, 56, 0
6, 24192, Note_off_c, 6, 59, 0
6, 24192, Note_off_c, 6, 64, 0
6, 24192, Note_off_c, 6, 64, 0
6, 24192, Note_off_c, 6, 59, 0
6, 24192, Note_off_c, 6, 56, 0
6, 24192, Note_off_c, 6, 52, 0
6, 24192, Note_off_c, 6, 47, 0
6, 24192, Note_off_c, 6, 40, 0
6, 24192, Note_on_c, 6, 40, 96
6, 24198, Note_on_c, 6, 47, 96
6, 24201, Note_on_c, 6, 52, 96
6, 24204, Note_on_c, 6, 56, 96
6, 24208, Note_on_c, 6, 59, 96
6, 24211, Note_on_c, 6, 64, 96
6, 24576, Note_off_c, 6, 64, 0
6, 24576, Note_off_c, 6, 59, 0
6, 24576, Note_off_c, 6, 56, 0
6, 24576, Note_off_c, 6, 52, 0
6, 24576, Note_off_c, 6, 47, 0
6, 24576, Note_off_c, 6, 40, 0
6, 24579, Note_on_c, 6, 47, 96
6, 24582, Note_on_c, 6, 54, 96
6, 24585, Note_on_c, 6, 59, 96
6, 24588, Note_on_c, 6, 63, 96
6, 24592, Note_on_c, 6, 66, 96
6, 24864, Note_on_c, 6, 66, 71
6, 24870, Note_on_c, 6, 63, 71
6, 24873, Note_on_c, 6, 59, 71
6, 24876, Note_on_c, 6, 54, 71
6, 24960, Note_off_c, 6, 54, 0
6, 24960, Note_off_c, 6, 59, 0
6, 24960, Note_off_c, 6, 63, 0
6, 24960, Note_off_c, 6, 66, 0
6, 24960, Note_off_c, 6, 66, 0
6, 24960, Note_off_c, 6, 63, 0
6, 24960, Note_off_c, 6, 59, 0
6, 24960, Note_off_c, 6, 54, 0
6, 24960, Note_off_c, 6, 47, 0
6, 24960, Note_on_c, 6, 47, 96
6, 24966, Note_on_c, 6, 54, 96
6, 24969, Note_on_c, 6, 59, 96
6, 24972, Note_on_c, 6, 63, 96
6, 24976, Note_on_c, 6, 66, 96
6, 25056, Note_on_c, 6, 66, 71
6, 25062, Note_on_c, 6, 63, 71
6, 25065, Note_on_c, 6, 59, 71
6, 25068, Note_on_c, 6, 54, 71
6, 25152, Note_off_c, 6, 66, 0
6, 25152, Note_off_c, 6, 63, 0
6, 25152, Note_off_c, 6, 59, 0
6, 25152, Note_off_c, 6, 54, 0
6, 25344, Note_off_c, 6, 54, 0
6, 25344, Note_off_c, 6, 59, 0
6, 25344, Note_off_c, 6, 63, 0
6, 25344, Note_off_c, 6, 66, 0
6, 25344, Note_off_c, 6, 47, 0
6, 25344, Note_on_c, 6, 45, 96
6, 25350, Note_on_c, 6, 52, 96
6, 25353, Note_on_c, 6, 57, 96
6, 25356, Note_on_c, 6, 61, 96
6, 25360, Note_on_c, 6, 64, 96
6, 25632, Note_on_c, 6, 64, 71
6, 25638, Note_on_c, 6, 61, 71
6, 25641, Note_on_c, 6, 57, 71
6, 25644, Note_on_c, 6, 52, 71
6, 25728, Note_off_c, 6, 52, 0
6, 25728, Note_off_c, 6, 57, 0
6, 25728, Note_off_c, 6, 61, 0
6, 25728, Note_off_c, 6, 64, 0
6, 25728, Note_off_c, 6, 64, 0
6, 25728, Note_off_c, 6, 61, 0
6, 25728, Note_off_c, 6, 57, 0
6, 25728, Note_off_c, 6, 52, 0
6, 25728, Note_off_c, 6, 45, 0
6, 25728, Note_on_c, 6, 45, 96
6, 25734, Note_on_c, 6, 52, 96
6, 25737, Note_on_c, 6, 57, 96
6, 25740, Note_on_c, 6, 61, 96
6, 25744, Note_on_c, 6, 64, 96
6, 26112, Note_off_c, 6, 64, 0
6, 26112, Note_off_c, 6, 61, 0
6, 26112, Note_off_c, 6, 57, 0
6, 26112, Note_off_c, 6, 52, 0
6, 26112, Note_off_c, 6, 45, 0
6, 26112, Note_on_c, 6, 40, 96
6, 26118, Note_on_c, 6, 47, 96
6, 26121, Note_on_c, 6, 52, 96
6, 26124, Note_on_c, 6, 56, 96
6, 26128, Note_on_c, 6, 59, 96
6, 26131, Note_on_c, 6, 64, 96
6, 26400, Note_on_c, 6, 64, 71
6, 26406, Note_on_c, 6, 59, 71
6, 26409, Note_on_c, 6, 56, 71
6, 26412, Note_on_c, 6, 52, 71
6, 26416, Note_on_c, 6, 47, 71
6, 26496, Note_off_c, 6, 47, 0
6, 26496, Note_off_c, 6, 52, 0
6, 26496, Note_off_c, 6, 56, 0
6, 26496, Note_off_c, 6, 59, 0
6, 26496, Note_off_c, 6, 64, 0
6, 26496, Note_off_c, 6, 64, 0
6, 26496, Note_off_c, 6, 59, 0
6, 26496, Note_off_c, 6, 56, 0
6, 26496, Note_off_c, 6, 52, 0
6, 26496, Note_off_c, 6, 47, 0
6, 26496, Note_off_c, 6, 40, 0
6, 26496, Note_on_c, 6, 40, 96
6, 26502, Note_on_c, 6, 47, 96
6, 26505, Note_on_c, 6, 52, 96
6, 26508, Note_on_c, 6, 56, 96
6, 26512, Note_on_c, 6, 59, 96
6, 26515, Note_on_c, 6, 64, 96
6, 26592, Note_on_c, 6, 64, 71
6, 26598, Note_on_c, 6, 59, 71
6, 26601, Note_on_c, 6, 56, 71
6, 26604, Note_on_c, 6, 52, 71
6, 26608, Note_on_c, 6, 47, 71
6, 26688, Note_off_c, 6, 64, 0
6, 26688, Note_off_c, 6, 59, 0
6, 26688, Note_off_c, 6, 56, 0
6, 26688, Note_off_c, 6, 52, 0
6, 26688, Note_off_c, 6, 47, 0
6, 26784, Note_on_c, 6, 47, 71
6, 26787, Note_on_c, 6, 52, 71
6, 26790, Note_on_c, 6, 56, 71
6, 26793, Note_on_c, 6, 59, 71
6, 26796, Note_on_c, 6, 64, 71
6, 26880, Note_off_c, 6, 64, 0
6, 26880, Note_off_c, 6, 59, 0
6, 26880, Note_off_c, 6, 56, 0
6, 26880, Note_off_c, 6, 52, 0
6, 26880, Note_off_c, 6, 47, 0
6, 26880, Note_off_c, 6, 47, 0
6, 26880, Note_off_c, 6, 52, 0
6, 26880, Note_off_c, 6, 56, 0
6, 26880, Note_off_c, 6, 59, 0
6, 26880, Note_off_c, 6, 64, 0
6, 26880, Note_off_c, 6, 40, 0
6, 26880, Note_on_c, 6, 40, 96
6, 26886, Note_on_c, 6, 47, 96
6, 26889, Note_on_c, 6, 52, 96
6, 26892, Note_on_c, 6, 56, 96
6, 26896, Note_on_c, 6, 59, 96
6, 26899, Note_on_c, 6, 64, 96
6, 27168, Note_on_c, 6, 64, 71
6, 27174, Note_on_c, 6, 59, 71
6, 27177, Note_on_c, 6, 56, 71
6, 27180, Note_on_c, 6, 52, 71
6, 27184, Note_on_c, 6, 47, 71
6, 27264, Note_off_c, 6, 47, 0
6, 27264, Note_off_c, 6, 52, 0
6, 27264, Note_off_c, 6, 56, 0
6, 27264, Note_off_c, 6, 59, 0
6, 27264, Note_off_c, 6, 64, 0
6, 27264, Note_off_c, 6, 64, 0
6, 27264, Note_off_c, 6, 59, 0
6, 27264, Note_off_c, 6, 56, 0
6, 27264, Note_off_c, 6, 52, 0
6, 27264, Note_off_c, 6, 47, 0
6, 27264, Note_off_c, 6, 40, 0
6, 27264, Note_on_c, 6, 40, 96
6, 27270, Note_on_c, 6, 47, 96
6, 27273, Note_on_c, 6, 52, 96
6, 27276, Note_on_c, 6, 56, 96
6, 27280, Note_on_c, 6, 59, 96
6, 27283, Note_on_c, 6, 64, 96
6, 27648, Note_off_c, 6, 64, 0
6, 27648, Note_off_c, 6, 59, 0
6, 27648, Note_off_c, 6, 56, 0
6, 27648, Note_off_c, 6, 52, 0
6, 27648, Note_off_c, 6, 47, 0
6, 27648, Note_off_c, 6, 40, 0
6, 27651, Note_on_c, 6, 47, 96
6, 27654, Note_on_c, 6, 54, 96
6, 27657, Note_on_c, 6, 59, 96
6, 27660, Note_on_c, 6, 63, 96
6, 27664, Note_on_c, 6, 66, 96
6, 27936, Note_on_c, 6, 66, 71
6, 27942, Note_on_c, 6, 63, 71
6, 27945, Note_on_c, 6, 59, 71
6, 27948, Note_on_c, 6, 54, 71
6, 28032, Note_off_c, 6, 54, 0
6, 28032, Note_off_c, 6, 59, 0
6, 28032, Note_off_c, 6, 63, 0
6, 28032, Note_off_c, 6, 66, 0
6, 28032, Note_off_c, 6, 66, 0
6, 28032, Note_off_c, 6, 63, 0
6, 28032, Note_off_c, 6, 59, 0
6, 28032, Note_off_c, 6, 54, 0
6, 28032, Note_off_c, 6, 47, 0
6, 28032, Note_on_c, 6, 47, 96
6, 28038, Note_on_c, 6, 54, 96
6, 28041, Note_on_c, 6, 59, 96
6, 28044, Note_on_c, 6, 63, 96
6, 28048, Note_on_c, 6, 66, 96
6, 28128, Note_on_c, 6, 66, 71
6, 28134, Note_on_c, 6, 63, 71
6, 28137, Note_on_c, 6, 59, 71
6, 28140, Note_on_c, 6, 54, 71
6, 28224, Note_off_c, 6, 66, 0
6, 28224, Note_off_c, 6, 63, 0
6, 28224, Note_off_c, 6, 59, 0
6, 28224, Note_off_c, 6, 54, 0
6, 28416, Note_off_c, 6, 54, 0
6, 28416, Note_off_c, 6, 59, 0
6, 28416, Note_off_c, 6, 63, 0
6, 28416, Note_off_c, 6, 66, 0
6, 28416, Note_off_c, 6, 47, 0
6, 28416, Note_on_c, 6, 45, 96
6, 28422, Note_on_c, 6, 52, 96
6, 28425, Note_on_c, 6, 57, 96
6, 28428, Note_on_c, 6, 61, 96
6, 28432, Note_on_c, 6, 64, 96
6, 28704, Note_on_c, 6, 64, 71
6, 28710, Note_on_c, 6, 61, 71
6, 28713, Note_on_c, 6, 57, 71
6, 28716, Note_on_c, 6, 52, 71
6, 28800, Note_off_c, 6, 52, 0
6, 28800, Note_off_c, 6, 57, 0
6, 28800, Note_off_c, 6, 61, 0
6, 28800, Note_off_c, 6, 64, 0
6, 28800, Note_off_c, 6, 64, 0
6, 28800, Note_off_c, 6, 61, 0
6, 28800, Note_off_c, 6, 57, 0
6, 28800, Note_off_c, 6, 52, 0
6, 28800, Note_off_c, 6, 45, 0
6, 28800, Note_on_c, 6, 45, 96
6, 28806, Note_on_c, 6, 52, 96
6, 28809, Note_on_c, 6, 57, 96
6, 28812, Note_on_c, 6, 61, 96
6, 28816, Note_on_c, 6, 64, 96
6, 29184, Note_off_c, 6, 64, 0
6, 29184, Note_off_c, 6, 61, 0
6, 29184, Note_off_c, 6, 57, 0
6, 29184, Note_off_c, 6, 52, 0
6, 29184, Note_off_c, 6, 45, 0
6, 29184, Note_on_c, 6, 45, 96
6, 29190, Note_on_c, 6, 52, 96
6, 29193, Note_on_c, 6, 57, 96
6, 29196, Note_on_c, 6, 61, 96
6, 29200, Note_on_c, 6, 64, 96
6, 29472, Note_on_c, 6, 64, 71
6, 29478, Note_on_c, 6, 61, 71
6, 29481, Note_on_c, 6, 57, 71
6, 29484, Note_on_c, 6, 52, 71
6, 29568, Note_off_c, 6, 52, 0
6, 29568, Note_off_c, 6, 57, 0
6, 29568, Note_off_c, 6, 61, 0
6, 29568, Note_off_c, 6, 64, 0
6, 29568, Note_off_c, 6, 64, 0
6, 29568, Note_off_c, 6, 61, 0
6, 29568, Note_off_c, 6, 57, 0
6, 29568, Note_off_c, 6, 52, 0
6, 29568, Note_off_c, 6, 45, 0
6, 29568, Note_on_c, 6, 45, 96
6, 29574, Note_on_c, 6, 52, 96
6, 29577, Note_on_c, 6, 57, 96
6, 29580, Note_on_c, 6, 61, 96
6, 29584, Note_on_c, 6, 64, 96
6, 29952, Note_off_c, 6, 64, 0
6, 29952, Note_off_c, 6, 61, 0
6, 29952, Note_off_c, 6, 57, 0
6, 29952, Note_off_c, 6, 52, 0
6, 29952, Note_off_c, 6, 45, 0
6, 29952, Note_on_c, 6, 45, 96
6, 29958, Note_on_c, 6, 52, 96
6, 29961, Note_on_c, 6, 57, 96
6, 29964, Note_on_c, 6, 61, 96
6, 29968, Note_on_c, 6, 64, 96
6, 30240, Note_on_c, 6, 64, 71
6, 30246, Note_on_c, 6, 61, 71
6, 30249, Note_on_c, 6, 57, 71
6, 30252, Note_on_c, 6, 52, 71
6, 30336, Note_off_c, 6, 52, 0
6, 30336, Note_off_c, 6, 57, 0
6, 30336, Note_off_c, 6, 61, 0
6, 30336, Note_off_c, 6, 64, 0
6, 30336, Note_off_c, 6, 64, 0
6, 30336, Note_off_c, 6, 61, 0
6, 30336, Note_off_c, 6, 57, 0
6, 30336, Note_off_c, 6, 52, 0
6, 30336, Note_off_c, 6, 45, 0
6, 30336, Note_on_c, 6, 45, 96
6, 30342, Note_on_c, 6, 52, 96
6, 30345, Note_on_c, 6, 57, 96
6, 30348, Note_on_c, 6, 61, 96
6, 30352, Note_on_c, 6, 64, 96
6, 30720, Note_off_c, 6, 64, 0
6, 30720, Note_off_c, 6, 61, 0
6, 30720, Note_off_c, 6, 57, 0
6, 30720, Note_off_c, 6, 52, 0
6, 30720, Note_off_c, 6, 45, 0
6, 30726, Note_on_c, 6, 62, 96
6, 30729, Note_on_c, 6, 57, 96
6, 30732, Note_on_c, 6, 52, 96
6, 30736, Note_on_c, 6, 64, 96
6, 30816, Note_off_c, 6, 64, 0
6, 30816, Note_off_c, 6, 52, 0
6, 30816, Note_off_c, 6, 57, 0
6, 30816, Note_off_c, 6, 62, 0
6, 30816, Note_on_c, 6, 45, 96
6, 30822, Note_on_c, 6, 52, 96
6, 30825, Note_on_c, 6, 57, 96
6, 30828, Note_on_c, 6, 61, 96
6, 30832, Note_on_c, 6, 64, 96
6, 31104, Note_on_c, 6, 45, 96
6, 31110, Note_on_c, 6, 52, 96
6, 31113, Note_on_c, 6, 57, 96
6, 31116, Note_on_c, 6, 61, 96
6, 31120, Note_on_c, 6, 64, 96
6, 31200, Note_off_c, 6, 64, 0
6, 31200, Note_off_c, 6, 61, 0
6, 31200, Note_off_c, 6, 57, 0
6, 31200, Note_off_c, 6, 52, 0
6, 31200, Note_off_c, 6, 45, 0
6, 31488, Note_off_c, 6, 64, 0
6, 31488, Note_off_c, 6, 61, 0
6, 31488, Note_off_c, 6, 57, 0
6, 31488, Note_off_c, 6, 52, 0
6, 31488, Note_off_c, 6, 45, 0
6, 31488, Note_on_c, 6, 40, 96
6, 31494, Note_on_c, 6, 47, 96
6, 31497, Note_on_c, 6, 52, 96
6, 31500, Note_on_c, 6, 56, 96
6, 31504, Note_on_c, 6, 59, 96
6, 31507, Note_on_c, 6, 64, 96
6, 31680, Note_off_c, 6, 64, 0
6, 31680, Note_off_c, 6, 59, 0
6, 31680, Note_off_c, 6, 56, 0
6, 31680, Note_off_c, 6, 52, 0
6, 31680, Note_off_c, 6, 47, 0
6, 31680, Note_off_c, 6, 40, 0
6, 31680, Note_on_c, 6, 40, 96
6, 31686, Note_on_c, 6, 47, 96
6, 31689, Note_on_c, 6, 52, 96
6, 31692, Note_on_c, 6, 56, 96
6, 31696, Note_on_c, 6, 59, 96
6, 31699, Note_on_c, 6, 64, 96
6, 31776, Note_off_c, 6, 64, 0
6, 31776, Note_off_c, 6, 59, 0
6, 31776, Note_off_c, 6, 56, 0
6, 31776, Note_off_c, 6, 52, 0
6, 31776, Note_off_c, 6, 47, 0
6, 31776, Note_off_c, 6, 40, 0
6, 31776, Note_on_c, 6, 64, 81
6, 31782, Note_on_c, 6, 59, 81
6, 31785, Note_on_c, 6, 56, 81
6, 31788, Note_on_c, 6, 52, 81
6, 31792, Note_on_c, 6, 47, 81
6, 31872, Note_off_c, 6, 47, 0
6, 31872, Note_off_c, 6, 52, 0
6, 31872, Note_off_c, 6, 56, 0
6, 31872, Note_off_c, 6, 59, 0
6, 31872, Note_off_c, 6, 64, 0
6, 31968, Note_on_c, 6, 64, 81
6, 31974, Note_on_c, 6, 59, 81
6, 31977, Note_on_c, 6, 56, 81
6, 31980, Note_on_c, 6, 52, 81
6, 31984, Note_on_c, 6, 47, 81
6, 32064, Note_off_c, 6, 47, 0
6, 32064, Note_off_c, 6, 52, 0
6, 32064, Note_off_c, 6, 56, 0
6, 32064, Note_off_c, 6, 59, 0
6, 32064, Note_off_c, 6, 64, 0
6, 32064, Note_on_c, 6, 40, 96
6, 32070, Note_on_c, 6, 47, 96
6, 32073, Note_on_c, 6, 52, 96
6, 32076, Note_on_c, 6, 56, 96
6, 32080, Note_on_c, 6, 59, 96
6, 32083, Note_on_c, 6, 64, 96
6, 32256, Note_off_c, 6, 64, 0
6, 32256, Note_off_c, 6, 59, 0
6, 32256, Note_off_c, 6, 56, 0
6, 32256, Note_off_c, 6, 52, 0
6, 32256, Note_off_c, 6, 47, 0
6, 32256, Note_off_c, 6, 40, 0
6, 32256, Note_on_c, 6, 40, 96
6, 32262, Note_on_c, 6, 47, 96
6, 32265, Note_on_c, 6, 52, 96
6, 32268, Note_on_c, 6, 56, 96
6, 32272, Note_on_c, 6, 59, 96
6, 32275, Note_on_c, 6, 64, 96
6, 32352, Note_off_c, 6, 64, 0
6, 32352, Note_off_c, 6, 59, 0
6, 32352, Note_off_c, 6, 56, 0
6, 32352, Note_off_c, 6, 52, 0
6, 32352, Note_off_c, 6, 47, 0
6, 32352, Note_off_c, 6, 40, 0
6, 32352, Note_on_c, 6, 64, 81
6, 32358, Note_on_c, 6, 59, 81
6, 32361, Note_on_c, 6, 56, 81
6, 32364, Note_on_c, 6, 52, 81
6, 32368, Note_on_c, 6, 47, 41
6, 32448, Note_off_c, 6, 47, 0
6, 32448, Note_off_c, 6, 52, 0
6, 32448, Note_off_c, 6, 56, 0
6, 32448, Note_off_c, 6, 59, 0
6, 32448, Note_off_c, 6, 64, 0
6, 32544, Note_on_c, 6, 64, 81
6, 32550, Note_on_c, 6, 59, 81
6, 32553, Note_on_c, 6, 56, 81
6, 32556, Note_on_c, 6, 52, 81
6, 32560, Note_on_c, 6, 47, 81
6, 32640, Note_off_c, 6, 47, 0
6, 32640, Note_off_c, 6, 52, 0
6, 32640, Note_off_c, 6, 56, 0
6, 32640, Note_off_c, 6, 59, 0
6, 32640, Note_off_c, 6, 64, 0
6, 32640, Note_on_c, 6, 40, 96
6, 32646, Note_on_c, 6, 47, 96
6, 32649, Note_on_c, 6, 52, 96
6, 32652, Note_on_c, 6, 56, 96
6, 32656, Note_on_c, 6, 59, 96
6, 32659, Note_on_c, 6, 64, 96
6, 32736, Note_off_c, 6, 64, 0
6, 32736, Note_on_c, 6, 64, 96
6, 32742, Note_on_c, 6, 59, 96
6, 32745, Note_on_c, 6, 56, 96
6, 32748, Note_on_c, 6, 47, 96
6, 32832, Note_off_c, 6, 47, 0
6, 32832, Note_off_c, 6, 56, 0
6, 32832, Note_off_c, 6, 59, 0
6, 32832, Note_off_c, 6, 64, 0
6, 32832, Note_off_c, 6, 59, 0
6, 32832, Note_off_c, 6, 56, 0
6, 32832, Note_off_c, 6, 52, 0
6, 32832, Note_off_c, 6, 47, 0
6, 32832, Note_off_c, 6, 40, 0
6, 32832, Note_on_c, 6, 40, 96
6, 32838, Note_on_c, 6, 47, 96
6, 32841, Note_on_c, 6, 52, 96
6, 32844, Note_on_c, 6, 56, 96
6, 32848, Note_on_c, 6, 59, 96
6, 32851, Note_on_c, 6, 64, 96
6, 33024, Note_off_c, 6, 64, 0
6, 33024, Note_off_c, 6, 59, 0
6, 33024, Note_off_c, 6, 56, 0
6, 33024, Note_off_c, 6, 52, 0
6, 33024, Note_off_c, 6, 47, 0
6, 33024, Note_off_c, 6, 40, 0
6, 33024, Note_on_c, 6, 61, 96
6, 33024, Note_on_c, 6, 57, 96
6, 33024, Note_on_c, 6, 45, 96
6, 33033, Note_on_c, 6, 52, 96
6, 33043, Note_on_c, 6, 64, 96
6, 33216, Note_off_c, 6, 64, 0
6, 33216, Note_off_c, 6, 52, 0
6, 33216, Note_off_c, 6, 45, 0
6, 33216, Note_off_c, 6, 57, 0
6, 33216, Note_off_c, 6, 61, 0
6, 33216, Note_on_c, 6, 57, 96
6, 33216, Note_on_c, 6, 61, 96
6, 33216, Note_on_c, 6, 45, 96
6, 33225, Note_on_c, 6, 52, 96
6, 33235, Note_on_c, 6, 64, 96
6, 33312, Note_off_c, 6, 64, 0
6, 33312, Note_off_c, 6, 52, 0
6, 33312, Note_off_c, 6, 45, 0
6, 33312, Note_off_c, 6, 61, 0
6, 33312, Note_off_c, 6, 57, 0
6, 33312, Note_on_c, 6, 57, 81
6, 33312, Note_on_c, 6, 61, 81
6, 33312, Note_on_c, 6, 64, 81
6, 33324, Note_on_c, 6, 52, 81
6, 33408, Note_off_c, 6, 52, 0
6, 33408, Note_off_c, 6, 64, 0
6, 33408, Note_off_c, 6, 61, 0
6, 33408, Note_off_c, 6, 57, 0
6, 33504, Note_on_c, 6, 57, 81
6, 33504, Note_on_c, 6, 61, 81
6, 33504, Note_on_c, 6, 64, 81
6, 33516, Note_on_c, 6, 52, 81
6, 33600, Note_off_c, 6, 52, 0
6, 33600, Note_off_c, 6, 64, 0
6, 33600, Note_off_c, 6, 61, 0
6, 33600, Note_off_c, 6, 57, 0
6, 33600, Note_on_c, 6, 57, 96
6, 33600, Note_on_c, 6, 61, 96
6, 33600, Note_on_c, 6, 45, 96
6, 33609, Note_on_c, 6, 52, 96
6, 33619, Note_on_c, 6, 64, 96
6, 33792, Note_off_c, 6, 64, 0
6, 33792, Note_off_c, 6, 52, 0
6, 33792, Note_off_c, 6, 45, 0
6, 33792, Note_off_c, 6, 61, 0
6, 33792, Note_off_c, 6, 57, 0
6, 33792, Note_on_c, 6, 57, 96
6, 33792, Note_on_c, 6, 61, 96
6, 33792, Note_on_c, 6, 45, 96
6, 33801, Note_on_c, 6, 52, 96
6, 33811, Note_on_c, 6, 64, 96
6, 33888, Note_off_c, 6, 64, 0
6, 33888, Note_off_c, 6, 52, 0
6, 33888, Note_off_c, 6, 45, 0
6, 33888, Note_off_c, 6, 61, 0
6, 33888, Note_off_c, 6, 57, 0
6, 33888, Note_on_c, 6, 57, 81
6, 33888, Note_on_c, 6, 61, 81
6, 33888, Note_on_c, 6, 64, 81
6, 33900, Note_on_c, 6, 52, 81
6, 33984, Note_off_c, 6, 52, 0
6, 33984, Note_off_c, 6, 64, 0
6, 33984, Note_off_c, 6, 61, 0
6, 33984, Note_off_c, 6, 57, 0
6, 34080, Note_on_c, 6, 57, 81
6, 34080, Note_on_c, 6, 61, 81
6, 34080, Note_on_c, 6, 64, 81
6, 34092, Note_on_c, 6, 52, 81
6, 34176, Note_off_c, 6, 52, 0
6, 34176, Note_off_c, 6, 64, 0
6, 34176, Note_off_c, 6, 61, 0
6, 34176, Note_off_c, 6, 57, 0
6, 34176, Note_on_c, 6, 57, 96
6, 34176, Note_on_c, 6, 61, 96
6, 34176, Note_on_c, 6, 45, 96
6, 34185, Note_on_c, 6, 52, 96
6, 34195, Note_on_c, 6, 64, 96
6, 34272, Note_off_c, 6, 64, 0
6, 34272, Note_on_c, 6, 57, 96
6, 34272, Note_on_c, 6, 61, 96
6, 34272, Note_on_c, 6, 64, 96
6, 34368, Note_off_c, 6, 64, 0
6, 34368, Note_off_c, 6, 61, 0
6, 34368, Note_off_c, 6, 57, 0
6, 34368, Note_off_c, 6, 52, 0
6, 34368, Note_off_c, 6, 45, 0
6, 34368, Note_off_c, 6, 61, 0
6, 34368, Note_off_c, 6, 57, 0
6, 34368, Note_on_c, 6, 57, 96
6, 34368, Note_on_c, 6, 61, 96
6, 34368, Note_on_c, 6, 45, 96
6, 34377, Note_on_c, 6, 52, 96
6, 34387, Note_on_c, 6, 64, 96
6, 34560, Note_off_c, 6, 64, 0
6, 34560, Note_off_c, 6, 52, 0
6, 34560, Note_off_c, 6, 45, 0
6, 34560, Note_off_c, 6, 61, 0
6, 34560, Note_off_c, 6, 57, 0
6, 34560, Note_on_c, 6, 47, 96
6, 34566, Note_on_c, 6, 54, 96
6, 34569, Note_on_c, 6, 59, 96
6, 34572, Note_on_c, 6, 63, 96
6, 34576, Note_on_c, 6, 66, 96
6, 34752, Note_off_c, 6, 66, 0
6, 34752, Note_off_c, 6, 63, 0
6, 34752, Note_off_c, 6, 59, 0
6, 34752, Note_off_c, 6, 54, 0
6, 34752, Note_off_c, 6, 47, 0
6, 34752, Note_on_c, 6, 47, 96
6, 34758, Note_on_c, 6, 54, 96
6, 34761, Note_on_c, 6, 59, 96
6, 34764, Note_on_c, 6, 63, 96
6, 34768, Note_on_c, 6, 66, 96
6, 34848, Note_off_c, 6, 66, 0
6, 34848, Note_off_c, 6, 63, 0
6, 34848, Note_off_c, 6, 59, 0
6, 34848, Note_off_c, 6, 54, 0
6, 34848, Note_off_c, 6, 47, 0
6, 34848, Note_on_c, 6, 66, 81
6, 34854, Note_on_c, 6, 63, 81
6, 34857, Note_on_c, 6, 59, 81
6, 34860, Note_on_c, 6, 54, 81
6, 34944, Note_off_c, 6, 54, 0
6, 34944, Note_off_c, 6, 59, 0
6, 34944, Note_off_c, 6, 63, 0
6, 34944, Note_off_c, 6, 66, 0
6, 34944, Note_on_c, 6, 47, 96
6, 34950, Note_on_c, 6, 54, 96
6, 34953, Note_on_c, 6, 59, 96
6, 34956, Note_on_c, 6, 63, 96
6, 34960, Note_on_c, 6, 66, 96
6, 35136, Note_off_c, 6, 66, 0
6, 35136, Note_off_c, 6, 63, 0
6, 35136, Note_off_c, 6, 59, 0
6, 35136, Note_off_c, 6, 54, 0
6, 35136, Note_off_c, 6, 47, 0
6, 35136, Note_on_c, 6, 47, 96
6, 35142, Note_on_c, 6, 54, 96
6, 35145, Note_on_c, 6, 59, 96
6, 35148, Note_on_c, 6, 63, 96
6, 35152, Note_on_c, 6, 66, 96
6, 35232, Note_off_c, 6, 66, 0
6, 35232, Note_off_c, 6, 63, 0
6, 35232, Note_off_c, 6, 59, 0
6, 35232, Note_off_c, 6, 54, 0
6, 35232, Note_off_c, 6, 47, 0
6, 35232, Note_on_c, 6, 66, 81
6, 35238, Note_on_c, 6, 63, 81
6, 35241, Note_on_c, 6, 59, 81
6, 35244, Note_on_c, 6, 54, 81
6, 35328, Note_off_c, 6, 54, 0
6, 35328, Note_off_c, 6, 59, 0
6, 35328, Note_off_c, 6, 63, 0
6, 35328, Note_off_c, 6, 66, 0
6, 35328, Note_on_c, 6, 45, 96
6, 35334, Note_on_c, 6, 52, 96
6, 35337, Note_on_c, 6, 57, 96
6, 35340, Note_on_c, 6, 61, 96
6, 35344, Note_on_c, 6, 64, 96
6, 35520, Note_off_c, 6, 64, 0
6, 35520, Note_off_c, 6, 61, 0
6, 35520, Note_off_c, 6, 57, 0
6, 35520, Note_off_c, 6, 52, 0
6, 35520, Note_off_c, 6, 45, 0
6, 35520, Note_on_c, 6, 57, 96
6, 35520, Note_on_c, 6, 45, 96
6, 35520, Note_on_c, 6, 64, 96
6, 35520, Note_on_c, 6, 61, 96
6, 35526, Note_on_c, 6, 52, 96
6, 35616, Note_off_c, 6, 52, 0
6, 35616, Note_off_c, 6, 61, 0
6, 35616, Note_off_c, 6, 64, 0
6, 35616, Note_off_c, 6, 45, 0
6, 35616, Note_off_c, 6, 57, 0
6, 35616, Note_on_c, 6, 64, 81
6, 35616, Note_on_c, 6, 61, 81
6, 35616, Note_on_c, 6, 52, 81
6, 35616, Note_on_c, 6, 57, 81
6, 35712, Note_off_c, 6, 57, 0
6, 35712, Note_off_c, 6, 52, 0
6, 35712, Note_off_c, 6, 61, 0
6, 35712, Note_off_c, 6, 64, 0
6, 35712, Note_on_c, 6, 45, 96
6, 35712, Note_on_c, 6, 52, 96
6, 35721, Note_on_c, 6, 57, 96
6, 35724, Note_on_c, 6, 61, 96
6, 35728, Note_on_c, 6, 64, 96
6, 35904, Note_off_c, 6, 64, 0
6, 35904, Note_off_c, 6, 61, 0
6, 35904, Note_off_c, 6, 57, 0
6, 35904, Note_off_c, 6, 52, 0
6, 35904, Note_off_c, 6, 45, 0
6, 35904, Note_on_c, 6, 45, 96
6, 35910, Note_on_c, 6, 52, 96
6, 35913, Note_on_c, 6, 57, 96
6, 35916, Note_on_c, 6, 61, 96
6, 35920, Note_on_c, 6, 64, 96
6, 36000, Note_off_c, 6, 64, 0
6, 36000, Note_off_c, 6, 61, 0
6, 36000, Note_off_c, 6, 57, 0
6, 36000, Note_off_c, 6, 52, 0
6, 36000, Note_off_c, 6, 45, 0
6, 36000, Note_on_c, 6, 64, 81
6, 36006, Note_on_c, 6, 61, 81
6, 36009, Note_on_c, 6, 57, 81
6, 36012, Note_on_c, 6, 52, 81
6, 36096, Note_off_c, 6, 52, 0
6, 36096, Note_off_c, 6, 57, 0
6, 36096, Note_off_c, 6, 61, 0
6, 36096, Note_off_c, 6, 64, 0
6, 36096, Note_on_c, 6, 40, 96
6, 36102, Note_on_c, 6, 47, 96
6, 36105, Note_on_c, 6, 52, 96
6, 36108, Note_on_c, 6, 56, 96
6, 36112, Note_on_c, 6, 59, 96
6, 36115, Note_on_c, 6, 64, 96
6, 36288, Note_off_c, 6, 64, 0
6, 36288, Note_off_c, 6, 59, 0
6, 36288, Note_off_c, 6, 56, 0
6, 36288, Note_off_c, 6, 52, 0
6, 36288, Note_off_c, 6, 47, 0
6, 36288, Note_off_c, 6, 40, 0
6, 36288, Note_on_c, 6, 40, 96
6, 36294, Note_on_c, 6, 47, 96
6, 36297, Note_on_c, 6, 52, 96
6, 36300, Note_on_c, 6, 56, 96
6, 36304, Note_on_c, 6, 59, 96
6, 36307, Note_on_c, 6, 64, 96
6, 36384, Note_off_c, 6, 64, 0
6, 36384, Note_off_c, 6, 59, 0
6, 36384, Note_off_c, 6, 56, 0
6, 36384, Note_off_c, 6, 52, 0
6, 36384, Note_off_c, 6, 47, 0
6, 36384, Note_off_c, 6, 40, 0
6, 36384, Note_on_c, 6, 64, 81
6, 36390, Note_on_c, 6, 59, 81
6, 36393, Note_on_c, 6, 56, 81
6, 36396, Note_on_c, 6, 52, 81
6, 36400, Note_on_c, 6, 47, 96
6, 36480, Note_off_c, 6, 47, 0
6, 36480, Note_off_c, 6, 52, 0
6, 36480, Note_off_c, 6, 56, 0
6, 36480, Note_off_c, 6, 59, 0
6, 36480, Note_off_c, 6, 64, 0
6, 36480, Note_on_c, 6, 40, 96
6, 36486, Note_on_c, 6, 47, 96
6, 36489, Note_on_c, 6, 52, 96
6, 36492, Note_on_c, 6, 56, 96
6, 36496, Note_on_c, 6, 59, 96
6, 36499, Note_on_c, 6, 64, 96
6, 36672, Note_off_c, 6, 64, 0
6, 36672, Note_off_c, 6, 59, 0
6, 36672, Note_off_c, 6, 56, 0
6, 36672, Note_off_c, 6, 52, 0
6, 36672, Note_off_c, 6, 47, 0
6, 36672, Note_off_c, 6, 40, 0
6, 36672, Note_on_c, 6, 40, 96
6, 36678, Note_on_c, 6, 47, 96
6, 36681, Note_on_c, 6, 52, 96
6, 36684, Note_on_c, 6, 56, 96
6, 36688, Note_on_c, 6, 59, 96
6, 36691, Note_on_c, 6, 64, 96
6, 36768, Note_off_c, 6, 64, 0
6, 36768, Note_off_c, 6, 59, 0
6, 36768, Note_off_c, 6, 56, 0
6, 36768, Note_off_c, 6, 52, 0
6, 36768, Note_off_c, 6, 47, 0
6, 36768, Note_off_c, 6, 40, 0
6, 36768, Note_on_c, 6, 64, 81
6, 36774, Note_on_c, 6, 59, 81
6, 36777, Note_on_c, 6, 56, 81
6, 36780, Note_on_c, 6, 52, 81
6, 36784, Note_on_c, 6, 47, 96
6, 36864, Note_off_c, 6, 47, 0
6, 36864, Note_off_c, 6, 52, 0
6, 36864, Note_off_c, 6, 56, 0
6, 36864, Note_off_c, 6, 59, 0
6, 36864, Note_off_c, 6, 64, 0
6, 36864, Note_on_c, 6, 45, 96
6, 36870, Note_on_c, 6, 52, 96
6, 36873, Note_on_c, 6, 57, 96
6, 36876, Note_on_c, 6, 62, 96
6, 36880, Note_on_c, 6, 64, 96
6, 36960, Note_off_c, 6, 64, 0
6, 36960, Note_off_c, 6, 62, 0
6, 36960, Note_off_c, 6, 57, 0
6, 36960, Note_off_c, 6, 52, 0
6, 36960, Note_off_c, 6, 45, 0
6, 36960, Note_on_c, 6, 64, 81
6, 36966, Note_on_c, 6, 61, 81
6, 36969, Note_on_c, 6, 57, 81
6, 36972, Note_on_c, 6, 52, 81
6, 37152, Note_on_c, 6, 64, 81
6, 37158, Note_on_c, 6, 61, 81
6, 37161, Note_on_c, 6, 57, 81
6, 37168, Note_on_c, 6, 52, 81
6, 37248, Note_off_c, 6, 52, 0
6, 37248, Note_off_c, 6, 57, 0
6, 37248, Note_off_c, 6, 61, 0
6, 37248, Note_off_c, 6, 64, 0
6, 37248, Note_off_c, 6, 52, 0
6, 37248, Note_off_c, 6, 57, 0
6, 37248, Note_off_c, 6, 61, 0
6, 37248, Note_off_c, 6, 64, 0
6, 37248, Note_on_c, 6, 64, 96
6, 37248, Note_on_c, 6, 61, 96
6, 37248, Note_on_c, 6, 57, 96
6, 37248, Note_on_c, 6, 52, 96
6, 37248, Note_on_c, 6, 45, 96
6, 37440, Note_off_c, 6, 45, 0
6, 37440, Note_off_c, 6, 52, 0
6, 37440, Note_off_c, 6, 57, 0
6, 37440, Note_off_c, 6, 61, 0
6, 37440, Note_off_c, 6, 64, 0
6, 37440, Note_on_c, 6, 45, 96
6, 37446, Note_on_c, 6, 52, 96
6, 37449, Note_on_c, 6, 57, 96
6, 37452, Note_on_c, 6, 61, 96
6, 37456, Note_on_c, 6, 64, 96
6, 37536, Note_off_c, 6, 64, 0
6, 37536, Note_off_c, 6, 61, 0
6, 37536, Note_off_c, 6, 57, 0
6, 37536, Note_off_c, 6, 52, 0
6, 37536, Note_off_c, 6, 45, 0
6, 37536, Note_on_c, 6, 64, 81
6, 37542, Note_on_c, 6, 61, 81
6, 37545, Note_on_c, 6, 57, 81
6, 37548, Note_on_c, 6, 52, 81
6, 37632, Note_off_c, 6, 52, 0
6, 37632, Note_off_c, 6, 57, 0
6, 37632, Note_off_c, 6, 61, 0
6, 37632, Note_off_c, 6, 64, 0
6, 37632, Note_on_c, 6, 47, 96
6, 37638, Note_on_c, 6, 54, 96
6, 37641, Note_on_c, 6, 59, 96
6, 37644, Note_on_c, 6, 63, 96
6, 37648, Note_on_c, 6, 66, 96
6, 37824, Note_off_c, 6, 66, 0
6, 37824, Note_off_c, 6, 63, 0
6, 37824, Note_off_c, 6, 59, 0
6, 37824, Note_off_c, 6, 54, 0
6, 37824, Note_off_c, 6, 47, 0
6, 37824, Note_on_c, 6, 47, 96
6, 37830, Note_on_c, 6, 54, 96
6, 37833, Note_on_c, 6, 59, 96
6, 37836, Note_on_c, 6, 63, 96
6, 37840, Note_on_c, 6, 66, 96
6, 37920, Note_off_c, 6, 66, 0
6, 37920, Note_off_c, 6, 63, 0
6, 37920, Note_off_c, 6, 59, 0
6, 37920, Note_off_c, 6, 54, 0
6, 37920, Note_off_c, 6, 47, 0
6, 37920, Note_on_c, 6, 66, 81
6, 37926, Note_on_c, 6, 63, 81
6, 37929, Note_on_c, 6, 59, 81
6, 37932, Note_on_c, 6, 54, 81
6, 38016, Note_off_c, 6, 54, 0
6, 38016, Note_off_c, 6, 59, 0
6, 38016, Note_off_c, 6, 63, 0
6, 38016, Note_off_c, 6, 66, 0
6, 38016, Note_on_c, 6, 47, 96
6, 38022, Note_on_c, 6, 54, 96
6, 38025, Note_on_c, 6, 59, 96
6, 38028, Note_on_c, 6, 63, 96
6, 38032, Note_on_c, 6, 66, 96
6, 38208, Note_off_c, 6, 66, 0
6, 38208, Note_off_c, 6, 63, 0
6, 38208, Note_off_c, 6, 59, 0
6, 38208, Note_off_c, 6, 54, 0
6, 38208, Note_off_c, 6, 47, 0
6, 38208, Note_on_c, 6, 47, 96
6, 38214, Note_on_c, 6, 54, 96
6, 38217, Note_on_c, 6, 59, 96
6, 38220, Note_on_c, 6, 63, 96
6, 38224, Note_on_c, 6, 66, 96
6, 38304, Note_off_c, 6, 66, 0
6, 38304, Note_off_c, 6, 63, 0
6, 38304, Note_off_c, 6, 59, 0
6, 38304, Note_off_c, 6, 54, 0
6, 38304, Note_off_c, 6, 47, 0
6, 38304, Note_on_c, 6, 66, 81
6, 38310, Note_on_c, 6, 63, 81
6, 38313, Note_on_c, 6, 59, 81
6, 38316, Note_on_c, 6, 54, 81
6, 38400, Note_off_c, 6, 54, 0
6, 38400, Note_off_c, 6, 59, 0
6, 38400, Note_off_c, 6, 63, 0
6, 38400, Note_off_c, 6, 66, 0
6, 38400, Note_on_c, 6, 45, 96
6, 38406, Note_on_c, 6, 52, 96
6, 38409, Note_on_c, 6, 57, 96
6, 38412, Note_on_c, 6, 61, 96
6, 38416, Note_on_c, 6, 64, 96
6, 38592, Note_off_c, 6, 64, 0
6, 38592, Note_off_c, 6, 61, 0
6, 38592, Note_off_c, 6, 57, 0
6, 38592, Note_off_c, 6, 52, 0
6, 38592, Note_off_c, 6, 45, 0
6, 38592, Note_on_c, 6, 57, 96
6, 38592, Note_on_c, 6, 45, 96
6, 38592, Note_on_c, 6, 64, 96
6, 38592, Note_on_c, 6, 61, 96
6, 38598, Note_on_c, 6, 52, 96
6, 38688, Note_off_c, 6, 52, 0
6, 38688, Note_off_c, 6, 61, 0
6, 38688, Note_off_c, 6, 64, 0
6, 38688, Note_off_c, 6, 45, 0
6, 38688, Note_off_c, 6, 57, 0
6, 38688, Note_on_c, 6, 64, 81
6, 38688, Note_on_c, 6, 61, 81
6, 38688, Note_on_c, 6, 52, 81
6, 38688, Note_on_c, 6, 57, 81
6, 38784, Note_off_c, 6, 57, 0
6, 38784, Note_off_c, 6, 52, 0
6, 38784, Note_off_c, 6, 61, 0
6, 38784, Note_off_c, 6, 64, 0
6, 38784, Note_on_c, 6, 45, 96
6, 38784, Note_on_c, 6, 52, 96
6, 38793, Note_on_c, 6, 57, 96
6, 38796, Note_on_c, 6, 61, 96
6, 38800, Note_on_c, 6, 64, 96
6, 38976, Note_off_c, 6, 64, 0
6, 38976, Note_off_c, 6, 61, 0
6, 38976, Note_off_c, 6, 57, 0
6, 38976, Note_off_c, 6, 52, 0
6, 38976, Note_off_c, 6, 45, 0
6, 38976, Note_on_c, 6, 45, 96
6, 38982, Note_on_c, 6, 52, 96
6, 38985, Note_on_c, 6, 57, 96
6, 38988, Note_on_c, 6, 61, 96
6, 38992, Note_on_c, 6, 64, 96
6, 39072, Note_off_c, 6, 64, 0
6, 39072, Note_off_c, 6, 61, 0
6, 39072, Note_off_c, 6, 57, 0
6, 39072, Note_off_c, 6, 52, 0
6, 39072, Note_off_c, 6, 45, 0
6, 39072, Note_on_c, 6, 64, 81
6, 39078, Note_on_c, 6, 61, 81
6, 39081, Note_on_c, 6, 57, 81
6, 39084, Note_on_c, 6, 52, 81
6, 39168, Note_off_c, 6, 52, 0
6, 39168, Note_off_c, 6, 57, 0
6, 39168, Note_off_c, 6, 61, 0
6, 39168, Note_off_c, 6, 64, 0
6, 39168, Note_on_c, 6, 40, 96
6, 39174, Note_on_c, 6, 47, 96
6, 39177, Note_on_c, 6, 52, 96
6, 39180, Note_on_c, 6, 56, 96
6, 39184, Note_on_c, 6, 59, 96
6, 39187, Note_on_c, 6, 64, 96
6, 39360, Note_off_c, 6, 64, 0
6, 39360, Note_off_c, 6, 59, 0
6, 39360, Note_off_c, 6, 56, 0
6, 39360, Note_off_c, 6, 52, 0
6, 39360, Note_off_c, 6, 47, 0
6, 39360, Note_off_c, 6, 40, 0
6, 39360, Note_on_c, 6, 40, 96
6, 39366, Note_on_c, 6, 47, 96
6, 39369, Note_on_c, 6, 52, 96
6, 39372, Note_on_c, 6, 56, 96
6, 39376, Note_on_c, 6, 59, 96
6, 39379, Note_on_c, 6, 64, 96
6, 39456, Note_off_c, 6, 64, 0
6, 39456, Note_off_c, 6, 59, 0
6, 39456, Note_off_c, 6, 56, 0
6, 39456, Note_off_c, 6, 52, 0
6, 39456, Note_off_c, 6, 47, 0
6, 39456, Note_off_c, 6, 40, 0
6, 39456, Note_on_c, 6, 64, 81
6, 39462, Note_on_c, 6, 59, 81
6, 39465, Note_on_c, 6, 56, 81
6, 39468, Note_on_c, 6, 52, 81
6, 39472, Note_on_c, 6, 47, 96
6, 39552, Note_off_c, 6, 47, 0
6, 39552, Note_off_c, 6, 52, 0
6, 39552, Note_off_c, 6, 56, 0
6, 39552, Note_off_c, 6, 59, 0
6, 39552, Note_off_c, 6, 64, 0
6, 39552, Note_on_c, 6, 40, 96
6, 39558, Note_on_c, 6, 47, 96
6, 39561, Note_on_c, 6, 52, 96
6, 39564, Note_on_c, 6, 56, 96
6, 39568, Note_on_c, 6, 59, 96
6, 39571, Note_on_c, 6, 64, 96
6, 39744, Note_off_c, 6, 64, 0
6, 39744, Note_off_c, 6, 59, 0
6, 39744, Note_off_c, 6, 56, 0
6, 39744, Note_off_c, 6, 52, 0
6, 39744, Note_off_c, 6, 47, 0
6, 39744, Note_off_c, 6, 40, 0
6, 39744, Note_on_c, 6, 40, 96
6, 39750, Note_on_c, 6, 47, 96
6, 39753, Note_on_c, 6, 52, 96
6, 39756, Note_on_c, 6, 56, 96
6, 39760, Note_on_c, 6, 59, 96
6, 39763, Note_on_c, 6, 64, 96
6, 39840, Note_off_c, 6, 64, 0
6, 39840, Note_off_c, 6, 59, 0
6, 39840, Note_off_c, 6, 56, 0
6, 39840, Note_off_c, 6, 52, 0
6, 39840, Note_off_c, 6, 47, 0
6, 39840, Note_off_c, 6, 40, 0
6, 39840, Note_on_c, 6, 64, 81
6, 39846, Note_on_c, 6, 59, 81
6, 39849, Note_on_c, 6, 56, 81
6, 39852, Note_on_c, 6, 52, 81
6, 39856, Note_on_c, 6, 47, 96
6, 39936, Note_off_c, 6, 47, 0
6, 39936, Note_off_c, 6, 52, 0
6, 39936, Note_off_c, 6, 56, 0
6, 39936, Note_off_c, 6, 59, 0
6, 39936, Note_off_c, 6, 64, 0
6, 39936, Note_on_c, 6, 45, 96
6, 39942, Note_on_c, 6, 52, 96
6, 39945, Note_on_c, 6, 57, 96
6, 39948, Note_on_c, 6, 62, 96
6, 39952, Note_on_c, 6, 64, 96
6, 40032, Note_off_c, 6, 64, 0
6, 40032, Note_off_c, 6, 62, 0
6, 40032, Note_off_c, 6, 57, 0
6, 40032, Note_off_c, 6, 52, 0
6, 40032, Note_off_c, 6, 45, 0
6, 40032, Note_on_c, 6, 64, 81
6, 40038, Note_on_c, 6, 61, 81
6, 40041, Note_on_c, 6, 57, 81
6, 40044, Note_on_c, 6, 52, 81
6, 40224, Note_on_c, 6, 64, 81
6, 40230, Note_on_c, 6, 61, 81
6, 40233, Note_on_c, 6, 57, 81
6, 40240, Note_on_c, 6, 52, 81
6, 40320, Note_off_c, 6, 52, 0
6, 40320, Note_off_c, 6, 57, 0
6, 40320, Note_off_c, 6, 61, 0
6, 40320, Note_off_c, 6, 64, 0
6, 40320, Note_off_c, 6, 52, 0
6, 40320, Note_off_c, 6, 57, 0
6, 40320, Note_off_c, 6, 61, 0
6, 40320, Note_off_c, 6, 64, 0
6, 40320, Note_on_c, 6, 64, 96
6, 40320, Note_on_c, 6, 61, 96
6, 40320, Note_on_c, 6, 57, 96
6, 40320, Note_on_c, 6, 52, 96
6, 40320, Note_on_c, 6, 45, 96
6, 40512, Note_off_c, 6, 45, 0
6, 40512, Note_off_c, 6, 52, 0
6, 40512, Note_off_c, 6, 57, 0
6, 40512, Note_off_c, 6, 61, 0
6, 40512, Note_off_c, 6, 64, 0
6, 40512, Note_on_c, 6, 45, 96
6, 40518, Note_on_c, 6, 52, 96
6, 40521, Note_on_c, 6, 57, 96
6, 40524, Note_on_c, 6, 61, 96
6, 40528, Note_on_c, 6, 64, 96
6, 40608, Note_off_c, 6, 64, 0
6, 40608, Note_off_c, 6, 61, 0
6, 40608, Note_off_c, 6, 57, 0
6, 40608, Note_off_c, 6, 52, 0
6, 40608, Note_off_c, 6, 45, 0
6, 40608, Note_on_c, 6, 64, 81
6, 40614, Note_on_c, 6, 61, 81
6, 40617, Note_on_c, 6, 57, 81
6, 40620, Note_on_c, 6, 52, 81
6, 40704, Note_off_c, 6, 52, 0
6, 40704, Note_off_c, 6, 57, 0
6, 40704, Note_off_c, 6, 61, 0
6, 40704, Note_off_c, 6, 64, 0
6, 40704, Note_on_c, 6, 64, 96
6, 40704, Note_on_c, 6, 61, 96
6, 40704, Note_on_c, 6, 57, 96
6, 40704, Note_on_c, 6, 52, 96
6, 40704, Note_on_c, 6, 45, 96
6, 40896, Note_off_c, 6, 45, 0
6, 40896, Note_off_c, 6, 52, 0
6, 40896, Note_off_c, 6, 57, 0
6, 40896, Note_off_c, 6, 61, 0
6, 40896, Note_off_c, 6, 64, 0
6, 40896, Note_on_c, 6, 45, 96
6, 40902, Note_on_c, 6, 52, 96
6, 40905, Note_on_c, 6, 57, 96
6, 40908, Note_on_c, 6, 61, 96
6, 40912, Note_on_c, 6, 64, 96
6, 40992, Note_off_c, 6, 64, 0
6, 40992, Note_off_c, 6, 61, 0
6, 40992, Note_off_c, 6, 57, 0
6, 40992, Note_off_c, 6, 52, 0
6, 40992, Note_off_c, 6, 45, 0
6, 40992, Note_on_c, 6, 64, 81
6, 40998, Note_on_c, 6, 61, 81
6, 41001, Note_on_c, 6, 57, 81
6, 41004, Note_on_c, 6, 52, 81
6, 41088, Note_off_c, 6, 52, 0
6, 41088, Note_off_c, 6, 57, 0
6, 41088, Note_off_c, 6, 61, 0
6, 41088, Note_off_c, 6, 64, 0
6, 41088, Note_on_c, 6, 64, 96
6, 41088, Note_on_c, 6, 61, 96
6, 41088, Note_on_c, 6, 57, 96
6, 41088, Note_on_c, 6, 52, 96
6, 41088, Note_on_c, 6, 45, 96
6, 41280, Note_off_c, 6, 45, 0
6, 41280, Note_off_c, 6, 52, 0
6, 41280, Note_off_c, 6, 57, 0
6, 41280, Note_off_c, 6, 61, 0
6, 41280, Note_off_c, 6, 64, 0
6, 41280, Note_on_c, 6, 45, 96
6, 41286, Note_on_c, 6, 52, 96
6, 41289, Note_on_c, 6, 57, 96
6, 41292, Note_on_c, 6, 61, 96
6, 41296, Note_on_c, 6, 64, 96
6, 41376, Note_off_c, 6, 64, 0
6, 41376, Note_off_c, 6, 61, 0
6, 41376, Note_off_c, 6, 57, 0
6, 41376, Note_off_c, 6, 52, 0
6, 41376, Note_off_c, 6, 45, 0
6, 41376, Note_on_c, 6, 64, 81
6, 41382, Note_on_c, 6, 61, 81
6, 41385, Note_on_c, 6, 57, 81
6, 41388, Note_on_c, 6, 52, 81
6, 41472, Note_off_c, 6, 52, 0
6, 41472, Note_off_c, 6, 57, 0
6, 41472, Note_off_c, 6, 61, 0
6, 41472, Note_off_c, 6, 64, 0
6, 41472, Note_on_c, 6, 66, 96
6, 41472, Note_on_c, 6, 61, 96
6, 41472, Note_on_c, 6, 57, 96
6, 41472, Note_on_c, 6, 52, 96
6, 41472, Note_on_c, 6, 49, 96
6, 41472, Note_on_c, 6, 42, 96
6, 43008, Note_off_c, 6, 42, 0
6, 43008, Note_off_c, 6, 49, 0
6, 43008, Note_off_c, 6, 52, 0
6, 43008, Note_off_c, 6, 57, 0
6, 43008, Note_off_c, 6, 61, 0
6, 43008, Note_off_c, 6, 66, 0
6, 43008, Note_on_c, 6, 40, 96
6, 43014, Note_on_c, 6, 47, 96
6, 43017, Note_on_c, 6, 52, 96
6, 43020, Note_on_c, 6, 56, 96
6, 43024, Note_on_c, 6, 59, 96
6, 43027, Note_on_c, 6, 64, 96
6, 43296, Note_off_c, 6, 64, 0
6, 43296, Note_off_c, 6, 59, 0
6, 43296, Note_off_c, 6, 56, 0
6, 43296, Note_off_c, 6, 52, 0
6, 43296, Note_off_c, 6, 47, 0
6, 43296, Note_off_c, 6, 40, 0
6, 43302, Note_on_c, 6, 47, 96
6, 43305, Note_on_c, 6, 52, 96
6, 43308, Note_on_c, 6, 56, 96
6, 43312, Note_on_c, 6, 59, 96
6, 43315, Note_on_c, 6, 64, 96
6, 43392, Note_off_c, 6, 64, 0
6, 43392, Note_off_c, 6, 59, 0
6, 43392, Note_off_c, 6, 56, 0
6, 43392, Note_off_c, 6, 52, 0
6, 43392, Note_off_c, 6, 47, 0
6, 43392, Note_on_c, 6, 64, 96
6, 43392, Note_on_c, 6, 59, 96
6, 43392, Note_on_c, 6, 56, 96
6, 43392, Note_on_c, 6, 52, 96
6, 43392, Note_on_c, 6, 47, 96
6, 43392, Note_on_c, 6, 40, 96
6, 43488, Note_off_c, 6, 40, 0
6, 43488, Note_off_c, 6, 47, 0
6, 43488, Note_off_c, 6, 52, 0
6, 43488, Note_off_c, 6, 56, 0
6, 43488, Note_off_c, 6, 59, 0
6, 43488, Note_off_c, 6, 64, 0
6, 43584, Note_on_c, 6, 40, 96
6, 43584, Note_on_c, 6, 47, 96
6, 43584, Note_on_c, 6, 52, 96
6, 43584, Note_on_c, 6, 56, 96
6, 43584, Note_on_c, 6, 59, 96
6, 43584, Note_on_c, 6, 64, 96
6, 43872, Note_off_c, 6, 64, 0
6, 43872, Note_off_c, 6, 59, 0
6, 43872, Note_off_c, 6, 56, 0
6, 43872, Note_off_c, 6, 52, 0
6, 43872, Note_off_c, 6, 47, 0
6, 43872, Note_off_c, 6, 40, 0
6, 43872, Note_on_c, 6, 47, 96
6, 43872, Note_on_c, 6, 52, 96
6, 43872, Note_on_c, 6, 56, 96
6, 43872, Note_on_c, 6, 59, 96
6, 43872, Note_on_c, 6, 64, 96
6, 43968, Note_off_c, 6, 64, 0
6, 43968, Note_off_c, 6, 59, 0
6, 43968, Note_off_c, 6, 56, 0
6, 43968, Note_off_c, 6, 52, 0
6, 43968, Note_off_c, 6, 47, 0
6, 43968, Note_on_c, 6, 64, 96
6, 43968, Note_on_c, 6, 59, 96
6, 43968, Note_on_c, 6, 56, 96
6, 43968, Note_on_c, 6, 52, 96
6, 43968, Note_on_c, 6, 47, 96
6, 43968, Note_on_c, 6, 40, 96
6, 44160, Note_on_c, 6, 40, 96
6, 44166, Note_on_c, 6, 47, 96
6, 44169, Note_on_c, 6, 52, 96
6, 44172, Note_on_c, 6, 56, 96
6, 44176, Note_on_c, 6, 59, 96
6, 44179, Note_on_c, 6, 64, 96
6, 44256, Note_off_c, 6, 40, 0
6, 44256, Note_off_c, 6, 47, 0
6, 44256, Note_off_c, 6, 52, 0
6, 44256, Note_off_c, 6, 56, 0
6, 44256, Note_off_c, 6, 59, 0
6, 44256, Note_off_c, 6, 64, 0
6, 44352, Note_off_c, 6, 64, 0
6, 44352, Note_off_c, 6, 59, 0
6, 44352, Note_off_c, 6, 56, 0
6, 44352, Note_off_c, 6, 52, 0
6, 44352, Note_off_c, 6, 47, 0
6, 44352, Note_off_c, 6, 40, 0
6, 44352, Note_on_c, 6, 40, 96
6, 44358, Note_on_c, 6, 47, 96
6, 44361, Note_on_c, 6, 52, 96
6, 44364, Note_on_c, 6, 56, 96
6, 44368, Note_on_c, 6, 59, 96
6, 44371, Note_on_c, 6, 64, 96
6, 44448, Note_off_c, 6, 64, 0
6, 44448, Note_off_c, 6, 59, 0
6, 44448, Note_off_c, 6, 56, 0
6, 44448, Note_off_c, 6, 52, 0
6, 44448, Note_off_c, 6, 47, 0
6, 44448, Note_off_c, 6, 40, 0
6, 44448, Note_on_c, 6, 64, 81
6, 44454, Note_on_c, 6, 59, 81
6, 44457, Note_on_c, 6, 56, 81
6, 44460, Note_on_c, 6, 52, 81
6, 44464, Note_on_c, 6, 47, 96
6, 44544, Note_off_c, 6, 47, 0
6, 44544, Note_off_c, 6, 52, 0
6, 44544, Note_off_c, 6, 56, 0
6, 44544, Note_off_c, 6, 59, 0
6, 44544, Note_off_c, 6, 64, 0
6, 44544, Note_on_c, 6, 57, 96
6, 44544, Note_on_c, 6, 61, 96
6, 44544, Note_on_c, 6, 45, 96
6, 44553, Note_on_c, 6, 52, 96
6, 44563, Note_on_c, 6, 64, 96
6, 44832, Note_off_c, 6, 64, 0
6, 44832, Note_off_c, 6, 52, 0
6, 44832, Note_off_c, 6, 45, 0
6, 44832, Note_off_c, 6, 61, 0
6, 44832, Note_off_c, 6, 57, 0
6, 44832, Note_on_c, 6, 57, 96
6, 44832, Note_on_c, 6, 61, 96
6, 44841, Note_on_c, 6, 52, 96
6, 44851, Note_on_c, 6, 64, 96
6, 44928, Note_off_c, 6, 64, 0
6, 44928, Note_off_c, 6, 52, 0
6, 44928, Note_off_c, 6, 61, 0
6, 44928, Note_off_c, 6, 57, 0
6, 44928, Note_on_c, 6, 64, 96
6, 44928, Note_on_c, 6, 61, 96
6, 44928, Note_on_c, 6, 57, 96
6, 44928, Note_on_c, 6, 52, 96
6, 44928, Note_on_c, 6, 45, 96
6, 45024, Note_off_c, 6, 45, 0
6, 45024, Note_off_c, 6, 52, 0
6, 45024, Note_off_c, 6, 57, 0
6, 45024, Note_off_c, 6, 61, 0
6, 45024, Note_off_c, 6, 64, 0
6, 45120, Note_on_c, 6, 45, 96
6, 45120, Note_on_c, 6, 52, 96
6, 45120, Note_on_c, 6, 57, 96
6, 45120, Note_on_c, 6, 61, 96
6, 45120, Note_on_c, 6, 64, 96
6, 45408, Note_off_c, 6, 64, 0
6, 45408, Note_off_c, 6, 61, 0
6, 45408, Note_off_c, 6, 57, 0
6, 45408, Note_off_c, 6, 52, 0
6, 45408, Note_off_c, 6, 45, 0
6, 45408, Note_on_c, 6, 52, 96
6, 45408, Note_on_c, 6, 57, 96
6, 45408, Note_on_c, 6, 61, 96
6, 45408, Note_on_c, 6, 64, 96
6, 45504, Note_off_c, 6, 64, 0
6, 45504, Note_off_c, 6, 61, 0
6, 45504, Note_off_c, 6, 57, 0
6, 45504, Note_off_c, 6, 52, 0
6, 45504, Note_on_c, 6, 64, 96
6, 45504, Note_on_c, 6, 61, 96
6, 45504, Note_on_c, 6, 57, 96
6, 45504, Note_on_c, 6, 52, 96
6, 45504, Note_on_c, 6, 45, 96
6, 45696, Note_on_c, 6, 45, 96
6, 45696, Note_on_c, 6, 57, 96
6, 45696, Note_on_c, 6, 61, 96
6, 45705, Note_on_c, 6, 52, 96
6, 45715, Note_on_c, 6, 64, 96
6, 45792, Note_off_c, 6, 45, 0
6, 45792, Note_off_c, 6, 52, 0
6, 45792, Note_off_c, 6, 57, 0
6, 45792, Note_off_c, 6, 61, 0
6, 45792, Note_off_c, 6, 64, 0
6, 45888, Note_off_c, 6, 64, 0
6, 45888, Note_off_c, 6, 52, 0
6, 45888, Note_off_c, 6, 61, 0
6, 45888, Note_off_c, 6, 57, 0
6, 45888, Note_off_c, 6, 45, 0
6, 45888, Note_on_c, 6, 57, 96
6, 45888, Note_on_c, 6, 61, 96
6, 45888, Note_on_c, 6, 45, 96
6, 45897, Note_on_c, 6, 52, 96
6, 45907, Note_on_c, 6, 64, 96
6, 45984, Note_off_c, 6, 64, 0
6, 45984, Note_off_c, 6, 52, 0
6, 45984, Note_off_c, 6, 45, 0
6, 45984, Note_off_c, 6, 61, 0
6, 45984, Note_off_c, 6, 57, 0
6, 45984, Note_on_c, 6, 57, 81
6, 45984, Note_on_c, 6, 61, 81
6, 45984, Note_on_c, 6, 64, 81
6, 45996, Note_on_c, 6, 52, 81
6, 46080, Note_off_c, 6, 52, 0
6, 46080, Note_off_c, 6, 64, 0
6, 46080, Note_off_c, 6, 61, 0
6, 46080, Note_off_c, 6, 57, 0
6, 46080, Note_on_c, 6, 40, 96
6, 46086, Note_on_c, 6, 47, 96
6, 46089, Note_on_c, 6, 52, 96
6, 46092, Note_on_c, 6, 56, 96
6, 46096, Note_on_c, 6, 59, 96
6, 46099, Note_on_c, 6, 64, 96
6, 46368, Note_off_c, 6, 64, 0
6, 46368, Note_off_c, 6, 59, 0
6, 46368, Note_off_c, 6, 56, 0
6, 46368, Note_off_c, 6, 52, 0
6, 46368, Note_off_c, 6, 47, 0
6, 46368, Note_off_c, 6, 40, 0
6, 46374, Note_on_c, 6, 47, 96
6, 46377, Note_on_c, 6, 52, 96
6, 46380, Note_on_c, 6, 56, 96
6, 46384, Note_on_c, 6, 59, 96
6, 46387, Note_on_c, 6, 64, 96
6, 46464, Note_off_c, 6, 64, 0
6, 46464, Note_off_c, 6, 59, 0
6, 46464, Note_off_c, 6, 56, 0
6, 46464, Note_off_c, 6, 52, 0
6, 46464, Note_off_c, 6, 47, 0
6, 46464, Note_on_c, 6, 64, 96
6, 46464, Note_on_c, 6, 59, 96
6, 46464, Note_on_c, 6, 56, 96
6, 46464, Note_on_c, 6, 52, 96
6, 46464, Note_on_c, 6, 47, 96
6, 46464, Note_on_c, 6, 40, 96
6, 46560, Note_off_c, 6, 40, 0
6, 46560, Note_off_c, 6, 47, 0
6, 46560, Note_off_c, 6, 52, 0
6, 46560, Note_off_c, 6, 56, 0
6, 46560, Note_off_c, 6, 59, 0
6, 46560, Note_off_c, 6, 64, 0
6, 46656, Note_on_c, 6, 40, 96
6, 46656, Note_on_c, 6, 47, 96
6, 46656, Note_on_c, 6, 52, 96
6, 46656, Note_on_c, 6, 56, 96
6, 46656, Note_on_c, 6, 59, 96
6, 46656, Note_on_c, 6, 64, 96
6, 46944, Note_off_c, 6, 64, 0
6, 46944, Note_off_c, 6, 59, 0
6, 46944, Note_off_c, 6, 56, 0
6, 46944, Note_off_c, 6, 52, 0
6, 46944, Note_off_c, 6, 47, 0
6, 46944, Note_off_c, 6, 40, 0
6, 46944, Note_on_c, 6, 47, 96
6, 46944, Note_on_c, 6, 52, 96
6, 46944, Note_on_c, 6, 56, 96
6, 46944, Note_on_c, 6, 59, 96
6, 46944, Note_on_c, 6, 64, 96
6, 47040, Note_off_c, 6, 64, 0
6, 47040, Note_off_c, 6, 59, 0
6, 47040, Note_off_c, 6, 56, 0
6, 47040, Note_off_c, 6, 52, 0
6, 47040, Note_off_c, 6, 47, 0
6, 47040, Note_on_c, 6, 64, 96
6, 47040, Note_on_c, 6, 59, 96
6, 47040, Note_on_c, 6, 56, 96
6, 47040, Note_on_c, 6, 52, 96
6, 47040, Note_on_c, 6, 47, 96
6, 47040, Note_on_c, 6, 40, 96
6, 47232, Note_on_c, 6, 40, 96
6, 47238, Note_on_c, 6, 47, 96
6, 47241, Note_on_c, 6, 52, 96
6, 47244, Note_on_c, 6, 56, 96
6, 47248, Note_on_c, 6, 59, 96
6, 47251, Note_on_c, 6, 64, 96
6, 47328, Note_off_c, 6, 40, 0
6, 47328, Note_off_c, 6, 47, 0
6, 47328, Note_off_c, 6, 52, 0
6, 47328, Note_off_c, 6, 56, 0
6, 47328, Note_off_c, 6, 59, 0
6, 47328, Note_off_c, 6, 64, 0
6, 47424, Note_off_c, 6, 64, 0
6, 47424, Note_off_c, 6, 59, 0
6, 47424, Note_off_c, 6, 56, 0
6, 47424, Note_off_c, 6, 52, 0
6, 47424, Note_off_c, 6, 47, 0
6, 47424, Note_off_c, 6, 40, 0
6, 47424, Note_on_c, 6, 40, 96
6, 47430, Note_on_c, 6, 47, 96
6, 47433, Note_on_c, 6, 52, 96
6, 47436, Note_on_c, 6, 56, 96
6, 47440, Note_on_c, 6, 59, 96
6, 47443, Note_on_c, 6, 64, 96
6, 47520, Note_off_c, 6, 64, 0
6, 47520, Note_off_c, 6, 59, 0
6, 47520, Note_off_c, 6, 56, 0
6, 47520, Note_off_c, 6, 52, 0
6, 47520, Note_off_c, 6, 47, 0
6, 47520, Note_off_c, 6, 40, 0
6, 47520, Note_on_c, 6, 64, 81
6, 47526, Note_on_c, 6, 59, 81
6, 47529, Note_on_c, 6, 56, 81
6, 47532, Note_on_c, 6, 52, 81
6, 47536, Note_on_c, 6, 47, 96
6, 47616, Note_off_c, 6, 47, 0
6, 47616, Note_off_c, 6, 52, 0
6, 47616, Note_off_c, 6, 56, 0
6, 47616, Note_off_c, 6, 59, 0
6, 47616, Note_off_c, 6, 64, 0
6, 47616, Note_on_c, 6, 57, 96
6, 47616, Note_on_c, 6, 61, 96
6, 47616, Note_on_c, 6, 45, 96
6, 47625, Note_on_c, 6, 52, 96
6, 47635, Note_on_c, 6, 64, 96
6, 47904, Note_off_c, 6, 64, 0
6, 47904, Note_off_c, 6, 52, 0
6, 47904, Note_off_c, 6, 45, 0
6, 47904, Note_off_c, 6, 61, 0
6, 47904, Note_off_c, 6, 57, 0
6, 47904, Note_on_c, 6, 57, 96
6, 47904, Note_on_c, 6, 61, 96
6, 47913, Note_on_c, 6, 52, 96
6, 47923, Note_on_c, 6, 64, 96
6, 48000, Note_off_c, 6, 64, 0
6, 48000, Note_off_c, 6, 52, 0
6, 48000, Note_off_c, 6, 61, 0
6, 48000, Note_off_c, 6, 57, 0
6, 48000, Note_on_c, 6, 64, 96
6, 48000, Note_on_c, 6, 61, 96
6, 48000, Note_on_c, 6, 57, 96
6, 48000, Note_on_c, 6, 52, 96
6, 48000, Note_on_c, 6, 45, 96
6, 48096, Note_off_c, 6, 45, 0
6, 48096, Note_off_c, 6, 52, 0
6, 48096, Note_off_c, 6, 57, 0
6, 48096, Note_off_c, 6, 61, 0
6, 48096, Note_off_c, 6, 64, 0
6, 48192, Note_on_c, 6, 45, 96
6, 48192, Note_on_c, 6, 52, 96
6, 48192, Note_on_c, 6, 57, 96
6, 48192, Note_on_c, 6, 61, 96
6, 48192, Note_on_c, 6, 64, 96
6, 48480, Note_off_c, 6, 64, 0
6, 48480, Note_off_c, 6, 61, 0
6, 48480, Note_off_c, 6, 57, 0
6, 48480, Note_off_c, 6, 52, 0
6, 48480, Note_off_c, 6, 45, 0
6, 48480, Note_on_c, 6, 52, 96
6, 48480, Note_on_c, 6, 57, 96
6, 48480, Note_on_c, 6, 61, 96
6, 48480, Note_on_c, 6, 64, 96
6, 48576, Note_off_c, 6, 64, 0
6, 48576, Note_off_c, 6, 61, 0
6, 48576, Note_off_c, 6, 57, 0
6, 48576, Note_off_c, 6, 52, 0
6, 48576, Note_on_c, 6, 64, 96
6, 48576, Note_on_c, 6, 61, 96
6, 48576, Note_on_c, 6, 57, 96
6, 48576, Note_on_c, 6, 52, 96
6, 48576, Note_on_c, 6, 45, 96
6, 48768, Note_on_c, 6, 45, 96
6, 48768, Note_on_c, 6, 57, 96
6, 48768, Note_on_c, 6, 61, 96
6, 48777, Note_on_c, 6, 52, 96
6, 48787, Note_on_c, 6, 64, 96
6, 48864, Note_off_c, 6, 45, 0
6, 48864, Note_off_c, 6, 52, 0
6, 48864, Note_off_c, 6, 57, 0
6, 48864, Note_off_c, 6, 61, 0
6, 48864, Note_off_c, 6, 64, 0
6, 48960, Note_off_c, 6, 64, 0
6, 48960, Note_off_c, 6, 52, 0
6, 48960, Note_off_c, 6, 61, 0
6, 48960, Note_off_c, 6, 57, 0
6, 48960, Note_off_c, 6, 45, 0
6, 48960, Note_on_c, 6, 57, 96
6, 48960, Note_on_c, 6, 61, 96
6, 48960, Note_on_c, 6, 45, 96
6, 48969, Note_on_c, 6, 52, 96
6, 48979, Note_on_c, 6, 64, 96
6, 49056, Note_off_c, 6, 64, 0
6, 49056, Note_off_c, 6, 52, 0
6, 49056, Note_off_c, 6, 45, 0
6, 49056, Note_off_c, 6, 61, 0
6, 49056, Note_off_c, 6, 57, 0
6, 49056, Note_on_c, 6, 57, 81
6, 49056, Note_on_c, 6, 61, 81
6, 49056, Note_on_c, 6, 64, 81
6, 49068, Note_on_c, 6, 52, 81
6, 49152, Note_off_c, 6, 52, 0
6, 49152, Note_off_c, 6, 64, 0
6, 49152, Note_off_c, 6, 61, 0
6, 49152, Note_off_c, 6, 57, 0
6, 49152, Note_on_c, 6, 40, 96
6, 49158, Note_on_c, 6, 47, 96
6, 49161, Note_on_c, 6, 52, 96
6, 49164, Note_on_c, 6, 56, 96
6, 49168, Note_on_c, 6, 59, 96
6, 49171, Note_on_c, 6, 64, 96
6, 49440, Note_off_c, 6, 64, 0
6, 49440, Note_off_c, 6, 59, 0
6, 49440, Note_off_c, 6, 56, 0
6, 49440, Note_off_c, 6, 52, 0
6, 49440, Note_off_c, 6, 47, 0
6, 49440, Note_off_c, 6, 40, 0
6, 49446, Note_on_c, 6, 47, 96
6, 49449, Note_on_c, 6, 52, 96
6, 49452, Note_on_c, 6, 56, 96
6, 49456, Note_on_c, 6, 59, 96
6, 49459, Note_on_c, 6, 64, 96
6, 49536, Note_off_c, 6, 64, 0
6, 49536, Note_off_c, 6, 59, 0
6, 49536, Note_off_c, 6, 56, 0
6, 49536, Note_off_c, 6, 52, 0
6, 49536, Note_off_c, 6, 47, 0
6, 49536, Note_on_c, 6, 64, 96
6, 49536, Note_on_c, 6, 59, 96
6, 49536, Note_on_c, 6, 56, 96
6, 49536, Note_on_c, 6, 52, 96
6, 49536, Note_on_c, 6, 47, 96
6, 49536, Note_on_c, 6, 40, 96
6, 49632, Note_off_c, 6, 40, 0
6, 49632, Note_off_c, 6, 47, 0
6, 49632, Note_off_c, 6, 52, 0
6, 49632, Note_off_c, 6, 56, 0
6, 49632, Note_off_c, 6, 59, 0
6, 49632, Note_off_c, 6, 64, 0
6, 49728, Note_on_c, 6, 40, 96
6, 49728, Note_on_c, 6, 47, 96
6, 49728, Note_on_c, 6, 52, 96
6, 49728, Note_on_c, 6, 56, 96
6, 49728, Note_on_c, 6, 59, 96
6, 49728, Note_on_c, 6, 64, 96
6, 50016, Note_off_c, 6, 64, 0
6, 50016, Note_off_c, 6, 59, 0
6, 50016, Note_off_c, 6, 56, 0
6, 50016, Note_off_c, 6, 52, 0
6, 50016, Note_off_c, 6, 47, 0
6, 50016, Note_off_c, 6, 40, 0
6, 50016, Note_on_c, 6, 47, 96
6, 50016, Note_on_c, 6, 52, 96
6, 50016, Note_on_c, 6, 56, 96
6, 50016, Note_on_c, 6, 59, 96
6, 50016, Note_on_c, 6, 64, 96
6, 50112, Note_off_c, 6, 64, 0
6, 50112, Note_off_c, 6, 59, 0
6, 50112, Note_off_c, 6, 56, 0
6, 50112, Note_off_c, 6, 52, 0
6, 50112, Note_off_c, 6, 47, 0
6, 50112, Note_on_c, 6, 64, 96
6, 50112, Note_on_c, 6, 59, 96
6, 50112, Note_on_c, 6, 56, 96
6, 50112, Note_on_c, 6, 52, 96
6, 50112, Note_on_c, 6, 47, 96
6, 50112, Note_on_c, 6, 40, 96
6, 50304, Note_on_c, 6, 40, 96
6, 50310, Note_on_c, 6, 47, 96
6, 50313, Note_on_c, 6, 52, 96
6, 50316, Note_on_c, 6, 56, 96
6, 50320, Note_on_c, 6, 59, 96
6, 50323, Note_on_c, 6, 64, 96
6, 50400, Note_off_c, 6, 40, 0
6, 50400, Note_off_c, 6, 47, 0
6, 50400, Note_off_c, 6, 52, 0
6, 50400, Note_off_c, 6, 56, 0
6, 50400, Note_off_c, 6, 59, 0
6, 50400, Note_off_c, 6, 64, 0
6, 50496, Note_off_c, 6, 64, 0
6, 50496, Note_off_c, 6, 59, 0
6, 50496, Note_off_c, 6, 56, 0
6, 50496, Note_off_c, 6, 52, 0
6, 50496, Note_off_c, 6, 47, 0
6, 50496, Note_off_c, 6, 40, 0
6, 50496, Note_on_c, 6, 40, 96
6, 50502, Note_on_c, 6, 47, 96
6, 50505, Note_on_c, 6, 52, 96
6, 50508, Note_on_c, 6, 56, 96
6, 50512, Note_on_c, 6, 59, 96
6, 50515, Note_on_c, 6, 64, 96
6, 50592, Note_off_c, 6, 64, 0
6, 50592, Note_off_c, 6, 59, 0
6, 50592, Note_off_c, 6, 56, 0
6, 50592, Note_off_c, 6, 52, 0
6, 50592, Note_off_c, 6, 47, 0
6, 50592, Note_off_c, 6, 40, 0
6, 50592, Note_on_c, 6, 64, 81
6, 50598, Note_on_c, 6, 59, 81
6, 50601, Note_on_c, 6, 56, 81
6, 50604, Note_on_c, 6, 52, 81
6, 50608, Note_on_c, 6, 47, 96
6, 50688, Note_off_c, 6, 47, 0
6, 50688, Note_off_c, 6, 52, 0
6, 50688, Note_off_c, 6, 56, 0
6, 50688, Note_off_c, 6, 59, 0
6, 50688, Note_off_c, 6, 64, 0
6, 50688, Note_on_c, 6, 57, 96
6, 50688, Note_on_c, 6, 61, 96
6, 50688, Note_on_c, 6, 45, 96
6, 50697, Note_on_c, 6, 52, 96
6, 50707, Note_on_c, 6, 64, 96
6, 50976, Note_off_c, 6, 64, 0
6, 50976, Note_off_c, 6, 52, 0
6, 50976, Note_off_c, 6, 45, 0
6, 50976, Note_off_c, 6, 61, 0
6, 50976, Note_off_c, 6, 57, 0
6, 50976, Note_on_c, 6, 57, 96
6, 50976, Note_on_c, 6, 61, 96
6, 50985, Note_on_c, 6, 52, 96
6, 50995, Note_on_c, 6, 64, 96
6, 51072, Note_off_c, 6, 64, 0
6, 51072, Note_off_c, 6, 52, 0
6, 51072, Note_off_c, 6, 61, 0
6, 51072, Note_off_c, 6, 57, 0
6, 51072, Note_on_c, 6, 64, 96
6, 51072, Note_on_c, 6, 61, 96
6, 51072, Note_on_c, 6, 57, 96
6, 51072, Note_on_c, 6, 52, 96
6, 51072, Note_on_c, 6, 45, 96
6, 51168, Note_off_c, 6, 45, 0
6, 51168, Note_off_c, 6, 52, 0
6, 51168, Note_off_c, 6, 57, 0
6, 51168, Note_off_c, 6, 61, 0
6, 51168, Note_off_c, 6, 64, 0
6, 51264, Note_on_c, 6, 45, 96
6, 51264, Note_on_c, 6, 52, 96
6, 51264, Note_on_c, 6, 57, 96
6, 51264, Note_on_c, 6, 61, 96
6, 51264, Note_on_c, 6, 64, 96
6, 51552, Note_off_c, 6, 64, 0
6, 51552, Note_off_c, 6, 61, 0
6, 51552, Note_off_c, 6, 57, 0
6, 51552, Note_off_c, 6, 52, 0
6, 51552, Note_off_c, 6, 45, 0
6, 51552, Note_on_c, 6, 52, 96
6, 51552, Note_on_c, 6, 57, 96
6, 51552, Note_on_c, 6, 61, 96
6, 51552, Note_on_c, 6, 64, 96
6, 51648, Note_off_c, 6, 64, 0
6, 51648, Note_off_c, 6, 61, 0
6, 51648, Note_off_c, 6, 57, 0
6, 51648, Note_off_c, 6, 52, 0
6, 51648, Note_on_c, 6, 64, 96
6, 51648, Note_on_c, 6, 61, 96
6, 51648, Note_on_c, 6, 57, 96
6, 51648, Note_on_c, 6, 52, 96
6, 51648, Note_on_c, 6, 45, 96
6, 51840, Note_on_c, 6, 45, 96
6, 51840, Note_on_c, 6, 57, 96
6, 51840, Note_on_c, 6, 61, 96
6, 51849, Note_on_c, 6, 52, 96
6, 51859, Note_on_c, 6, 64, 96
6, 51936, Note_off_c, 6, 45, 0
6, 51936, Note_off_c, 6, 52, 0
6, 51936, Note_off_c, 6, 57, 0
6, 51936, Note_off_c, 6, 61, 0
6, 51936, Note_off_c, 6, 64, 0
6, 52032, Note_off_c, 6, 64, 0
6, 52032, Note_off_c, 6, 52, 0
6, 52032, Note_off_c, 6, 61, 0
6, 52032, Note_off_c, 6, 57, 0
6, 52032, Note_off_c, 6, 45, 0
6, 52032, Note_on_c, 6, 57, 96
6, 52032, Note_on_c, 6, 61, 96
6, 52032, Note_on_c, 6, 45, 96
6, 52041, Note_on_c, 6, 52, 96
6, 52051, Note_on_c, 6, 64, 96
6, 52128, Note_off_c, 6, 64, 0
6, 52128, Note_off_c, 6, 52, 0
6, 52128, Note_off_c, 6, 45, 0
6, 52128, Note_off_c, 6, 61, 0
6, 52128, Note_off_c, 6, 57, 0
6, 52128, Note_on_c, 6, 57, 81
6, 52128, Note_on_c, 6, 61, 81
6, 52128, Note_on_c, 6, 64, 81
6, 52140, Note_on_c, 6, 52, 81
6, 52224, Note_off_c, 6, 52, 0
6, 52224, Note_off_c, 6, 64, 0
6, 52224, Note_off_c, 6, 61, 0
6, 52224, Note_off_c, 6, 57, 0
6, 52224, Note_on_c, 6, 40, 96
6, 52230, Note_on_c, 6, 47, 96
6, 52233, Note_on_c, 6, 52, 96
6, 52236, Note_on_c, 6, 56, 96
6, 52240, Note_on_c, 6, 59, 96
6, 52243, Note_on_c, 6, 64, 96
6, 52512, Note_off_c, 6, 64, 0
6, 52512, Note_off_c, 6, 59, 0
6, 52512, Note_off_c, 6, 56, 0
6, 52512, Note_off_c, 6, 52, 0
6, 52512, Note_off_c, 6, 47, 0
6, 52512, Note_off_c, 6, 40, 0
6, 52518, Note_on_c, 6, 47, 96
6, 52521, Note_on_c, 6, 52, 96
6, 52524, Note_on_c, 6, 56, 96
6, 52528, Note_on_c, 6, 59, 96
6, 52531, Note_on_c, 6, 64, 96
6, 52608, Note_off_c, 6, 64, 0
6, 52608, Note_off_c, 6, 59, 0
6, 52608, Note_off_c, 6, 56, 0
6, 52608, Note_off_c, 6, 52, 0
6, 52608, Note_off_c, 6, 47, 0
6, 52608, Note_on_c, 6, 64, 96
6, 52608, Note_on_c, 6, 59, 96
6, 52608, Note_on_c, 6, 56, 96
6, 52608, Note_on_c, 6, 52, 96
6, 52608, Note_on_c, 6, 47, 96
6, 52608, Note_on_c, 6, 40, 96
6, 52704, Note_off_c, 6, 40, 0
6, 52704, Note_off_c, 6, 47, 0
6, 52704, Note_off_c, 6, 52, 0
6, 52704, Note_off_c, 6, 56, 0
6, 52704, Note_off_c, 6, 59, 0
6, 52704, Note_off_c, 6, 64, 0
6, 52800, Note_on_c, 6, 40, 96
6, 52800, Note_on_c, 6, 47, 96
6, 52800, Note_on_c, 6, 52, 96
6, 52800, Note_on_c, 6, 56, 96
6, 52800, Note_on_c, 6, 59, 96
6, 52800, Note_on_c, 6, 64, 96
6, 53088, Note_off_c, 6, 64, 0
6, 53088, Note_off_c, 6, 59, 0
6, 53088, Note_off_c, 6, 56, 0
6, 53088, Note_off_c, 6, 52, 0
6, 53088, Note_off_c, 6, 47, 0
6, 53088, Note_off_c, 6, 40, 0
6, 53088, Note_on_c, 6, 47, 96
6, 53088, Note_on_c, 6, 52, 96
6, 53088, Note_on_c, 6, 56, 96
6, 53088, Note_on_c, 6, 59, 96
6, 53088, Note_on_c, 6, 64, 96
6, 53184, Note_off_c, 6, 64, 0
6, 53184, Note_off_c, 6, 59, 0
6, 53184, Note_off_c, 6, 56, 0
6, 53184, Note_off_c, 6, 52, 0
6, 53184, Note_off_c, 6, 47, 0
6, 53184, Note_on_c, 6, 64, 96
6, 53184, Note_on_c, 6, 59, 96
6, 53184, Note_on_c, 6, 56, 96
6, 53184, Note_on_c, 6, 52, 96
6, 53184, Note_on_c, 6, 47, 96
6, 53184, Note_on_c, 6, 40, 96
6, 53376, Note_on_c, 6, 40, 96
6, 53382, Note_on_c, 6, 47, 96
6, 53385, Note_on_c, 6, 52, 96
6, 53388, Note_on_c, 6, 56, 96
6, 53392, Note_on_c, 6, 59, 96
6, 53395, Note_on_c, 6, 64, 96
6, 53472, Note_off_c, 6, 40, 0
6, 53472, Note_off_c, 6, 47, 0
6, 53472, Note_off_c, 6, 52, 0
6, 53472, Note_off_c, 6, 56, 0
6, 53472, Note_off_c, 6, 59, 0
6, 53472, Note_off_c, 6, 64, 0
6, 53568, Note_off_c, 6, 64, 0
6, 53568, Note_off_c, 6, 59, 0
6, 53568, Note_off_c, 6, 56, 0
6, 53568, Note_off_c, 6, 52, 0
6, 53568, Note_off_c, 6, 47, 0
6, 53568, Note_off_c, 6, 40, 0
6, 53568, Note_on_c, 6, 40, 96
6, 53574, Note_on_c, 6, 47, 96
6, 53577, Note_on_c, 6, 52, 96
6, 53580, Note_on_c, 6, 56, 96
6, 53584, Note_on_c, 6, 59, 96
6, 53587, Note_on_c, 6, 64, 96
6, 53664, Note_off_c, 6, 64, 0
6, 53664, Note_off_c, 6, 59, 0
6, 53664, Note_off_c, 6, 56, 0
6, 53664, Note_off_c, 6, 52, 0
6, 53664, Note_off_c, 6, 47, 0
6, 53664, Note_off_c, 6, 40, 0
6, 53664, Note_on_c, 6, 64, 81
6, 53670, Note_on_c, 6, 59, 81
6, 53673, Note_on_c, 6, 56, 81
6, 53676, Note_on_c, 6, 52, 81
6, 53680, Note_on_c, 6, 47, 96
6, 53760, Note_off_c, 6, 47, 0
6, 53760, Note_off_c, 6, 52, 0
6, 53760, Note_off_c, 6, 56, 0
6, 53760, Note_off_c, 6, 59, 0
6, 53760, Note_off_c, 6, 64, 0
6, 53760, Note_on_c, 6, 57, 96
6, 53760, Note_on_c, 6, 61, 96
6, 53760, Note_on_c, 6, 45, 96
6, 53769, Note_on_c, 6, 52, 96
6, 53779, Note_on_c, 6, 64, 96
6, 54048, Note_off_c, 6, 64, 0
6, 54048, Note_off_c, 6, 52, 0
6, 54048, Note_off_c, 6, 45, 0
6, 54048, Note_off_c, 6, 61, 0
6, 54048, Note_off_c, 6, 57, 0
6, 54048, Note_on_c, 6, 57, 96
6, 54048, Note_on_c, 6, 61, 96
6, 54057, Note_on_c, 6, 52, 96
6, 54067, Note_on_c, 6, 64, 96
6, 54144, Note_off_c, 6, 64, 0
6, 54144, Note_off_c, 6, 52, 0
6, 54144, Note_off_c, 6, 61, 0
6, 54144, Note_off_c, 6, 57, 0
6, 54144, Note_on_c, 6, 64, 96
6, 54144, Note_on_c, 6, 61, 96
6, 54144, Note_on_c, 6, 57, 96
6, 54144, Note_on_c, 6, 52, 96
6, 54144, Note_on_c, 6, 45, 96
6, 54240, Note_off_c, 6, 45, 0
6, 54240, Note_off_c, 6, 52, 0
6, 54240, Note_off_c, 6, 57, 0
6, 54240, Note_off_c, 6, 61, 0
6, 54240, Note_off_c, 6, 64, 0
6, 54336, Note_on_c, 6, 45, 96
6, 54336, Note_on_c, 6, 52, 96
6, 54336, Note_on_c, 6, 57, 96
6, 54336, Note_on_c, 6, 61, 96
6, 54336, Note_on_c, 6, 64, 96
6, 54624, Note_off_c, 6, 64, 0
6, 54624, Note_off_c, 6, 61, 0
6, 54624, Note_off_c, 6, 57, 0
6, 54624, Note_off_c, 6, 52, 0
6, 54624, Note_off_c, 6, 45, 0
6, 54624, Note_on_c, 6, 52, 96
6, 54624, Note_on_c, 6, 57, 96
6, 54624, Note_on_c, 6, 61, 96
6, 54624, Note_on_c, 6, 64, 96
6, 54720, Note_off_c, 6, 64, 0
6, 54720, Note_off_c, 6, 61, 0
6, 54720, Note_off_c, 6, 57, 0
6, 54720, Note_off_c, 6, 52, 0
6, 54720, Note_on_c, 6, 64, 96
6, 54720, Note_on_c, 6, 61, 96
6, 54720, Note_on_c, 6, 57, 96
6, 54720, Note_on_c, 6, 52, 96
6, 54720, Note_on_c, 6, 45, 96
6, 54912, Note_on_c, 6, 45, 96
6, 54912, Note_on_c, 6, 57, 96
6, 54912, Note_on_c, 6, 61, 96
6, 54921, Note_on_c, 6, 52, 96
6, 54931, Note_on_c, 6, 64, 96
6, 55008, Note_off_c, 6, 45, 0
6, 55008, Note_off_c, 6, 52, 0
6, 55008, Note_off_c, 6, 57, 0
6, 55008, Note_off_c, 6, 61, 0
6, 55008, Note_off_c, 6, 64, 0
6, 55104, Note_off_c, 6, 64, 0
6, 55104, Note_off_c, 6, 52, 0
6, 55104, Note_off_c, 6, 61, 0
6, 55104, Note_off_c, 6, 57, 0
6, 55104, Note_off_c, 6, 45, 0
6, 55104, Note_on_c, 6, 57, 96
6, 55104, Note_on_c, 6, 61, 96
6, 55104, Note_on_c, 6, 45, 96
6, 55113, Note_on_c, 6, 52, 96
6, 55123, Note_on_c, 6, 64, 96
6, 55200, Note_off_c, 6, 64, 0
6, 55200, Note_off_c, 6, 52, 0
6, 55200, Note_off_c, 6, 45, 0
6, 55200, Note_off_c, 6, 61, 0
6, 55200, Note_off_c, 6, 57, 0
6, 55200, Note_on_c, 6, 57, 81
6, 55200, Note_on_c, 6, 61, 81
6, 55200, Note_on_c, 6, 64, 81
6, 55212, Note_on_c, 6, 52, 81
6, 55296, Note_off_c, 6, 52, 0
6, 55296, Note_off_c, 6, 64, 0
6, 55296, Note_off_c, 6, 61, 0
6, 55296, Note_off_c, 6, 57, 0
6, 55296, Note_on_c, 6, 40, 96
6, 55302, Note_on_c, 6, 47, 96
6, 55305, Note_on_c, 6, 52, 96
6, 55308, Note_on_c, 6, 56, 96
6, 55312, Note_on_c, 6, 59, 96
6, 55315, Note_on_c, 6, 64, 96
6, 55584, Note_off_c, 6, 64, 0
6, 55584, Note_off_c, 6, 59, 0
6, 55584, Note_off_c, 6, 56, 0
6, 55584, Note_off_c, 6, 52, 0
6, 55584, Note_off_c, 6, 47, 0
6, 55584, Note_off_c, 6, 40, 0
6, 55590, Note_on_c, 6, 47, 96
6, 55593, Note_on_c, 6, 52, 96
6, 55596, Note_on_c, 6, 56, 96
6, 55600, Note_on_c, 6, 59, 96
6, 55603, Note_on_c, 6, 64, 96
6, 55680, Note_off_c, 6, 64, 0
6, 55680, Note_off_c, 6, 59, 0
6, 55680, Note_off_c, 6, 56, 0
6, 55680, Note_off_c, 6, 52, 0
6, 55680, Note_off_c, 6, 47, 0
6, 55680, Note_on_c, 6, 64, 96
6, 55680, Note_on_c, 6, 59, 96
6, 55680, Note_on_c, 6, 56, 96
6, 55680, Note_on_c, 6, 52, 96
6, 55680, Note_on_c, 6, 47, 96
6, 55680, Note_on_c, 6, 40, 96
6, 55776, Note_off_c, 6, 40, 0
6, 55776, Note_off_c, 6, 47, 0
6, 55776, Note_off_c, 6, 52, 0
6, 55776, Note_off_c, 6, 56, 0
6, 55776, Note_off_c, 6, 59, 0
6, 55776, Note_off_c, 6, 64, 0
6, 55872, Note_on_c, 6, 40, 96
6, 55872, Note_on_c, 6, 47, 96
6, 55872, Note_on_c, 6, 52, 96
6, 55872, Note_on_c, 6, 56, 96
6, 55872, Note_on_c, 6, 59, 96
6, 55872, Note_on_c, 6, 64, 96
6, 56160, Note_off_c, 6, 64, 0
6, 56160, Note_off_c, 6, 59, 0
6, 56160, Note_off_c, 6, 56, 0
6, 56160, Note_off_c, 6, 52, 0
6, 56160, Note_off_c, 6, 47, 0
6, 56160, Note_off_c, 6, 40, 0
6, 56160, Note_on_c, 6, 47, 96
6, 56160, Note_on_c, 6, 52, 96
6, 56160, Note_on_c, 6, 56, 96
6, 56160, Note_on_c, 6, 59, 96
6, 56160, Note_on_c, 6, 64, 96
6, 56256, Note_off_c, 6, 64, 0
6, 56256, Note_off_c, 6, 59, 0
6, 56256, Note_off_c, 6, 56, 0
6, 56256, Note_off_c, 6, 52, 0
6, 56256, Note_off_c, 6, 47, 0
6, 56256, Note_on_c, 6, 64, 96
6, 56256, Note_on_c, 6, 59, 96
6, 56256, Note_on_c, 6, 56, 96
6, 56256, Note_on_c, 6, 52, 96
6, 56256, Note_on_c, 6, 47, 96
6, 56256, Note_on_c, 6, 40, 96
6, 56448, Note_on_c, 6, 40, 96
6, 56454, Note_on_c, 6, 47, 96
6, 56457, Note_on_c, 6, 52, 96
6, 56460, Note_on_c, 6, 56, 96
6, 56464, Note_on_c, 6, 59, 96
6, 56467, Note_on_c, 6, 64, 96
6, 56544, Note_off_c, 6, 40, 0
6, 56544, Note_off_c, 6, 47, 0
6, 56544, Note_off_c, 6, 52, 0
6, 56544, Note_off_c, 6, 56, 0
6, 56544, Note_off_c, 6, 59, 0
6, 56544, Note_off_c, 6, 64, 0
6, 56640, Note_off_c, 6, 64, 0
6, 56640, Note_off_c, 6, 59, 0
6, 56640, Note_off_c, 6, 56, 0
6, 56640, Note_off_c, 6, 52, 0
6, 56640, Note_off_c, 6, 47, 0
6, 56640, Note_off_c, 6, 40, 0
6, 56640, Note_on_c, 6, 40, 96
6, 56646, Note_on_c, 6, 47, 96
6, 56649, Note_on_c, 6, 52, 96
6, 56652, Note_on_c, 6, 56, 96
6, 56656, Note_on_c, 6, 59, 96
6, 56659, Note_on_c, 6, 64, 96
6, 56736, Note_off_c, 6, 64, 0
6, 56736, Note_off_c, 6, 59, 0
6, 56736, Note_off_c, 6, 56, 0
6, 56736, Note_off_c, 6, 52, 0
6, 56736, Note_off_c, 6, 47, 0
6, 56736, Note_off_c, 6, 40, 0
6, 56736, Note_on_c, 6, 64, 81
6, 56742, Note_on_c, 6, 59, 81
6, 56745, Note_on_c, 6, 56, 81
6, 56748, Note_on_c, 6, 52, 81
6, 56752, Note_on_c, 6, 47, 96
6, 56832, Note_off_c, 6, 47, 0
6, 56832, Note_off_c, 6, 52, 0
6, 56832, Note_off_c, 6, 56, 0
6, 56832, Note_off_c, 6, 59, 0
6, 56832, Note_off_c, 6, 64, 0
6, 56832, Note_on_c, 6, 57, 96
6, 56832, Note_on_c, 6, 61, 96
6, 56832, Note_on_c, 6, 45, 96
6, 56841, Note_on_c, 6, 52, 96
6, 56851, Note_on_c, 6, 64, 96
6, 57120, Note_off_c, 6, 64, 0
6, 57120, Note_off_c, 6, 52, 0
6, 57120, Note_off_c, 6, 45, 0
6, 57120, Note_off_c, 6, 61, 0
6, 57120, Note_off_c, 6, 57, 0
6, 57120, Note_on_c, 6, 57, 96
6, 57120, Note_on_c, 6, 61, 96
6, 57129, Note_on_c, 6, 52, 96
6, 57139, Note_on_c, 6, 64, 96
6, 57216, Note_off_c, 6, 64, 0
6, 57216, Note_off_c, 6, 52, 0
6, 57216, Note_off_c, 6, 61, 0
6, 57216, Note_off_c, 6, 57, 0
6, 57216, Note_on_c, 6, 64, 96
6, 57216, Note_on_c, 6, 61, 96
6, 57216, Note_on_c, 6, 57, 96
6, 57216, Note_on_c, 6, 52, 96
6, 57216, Note_on_c, 6, 45, 96
6, 57312, Note_off_c, 6, 45, 0
6, 57312, Note_off_c, 6, 52, 0
6, 57312, Note_off_c, 6, 57, 0
6, 57312, Note_off_c, 6, 61, 0
6, 57312, Note_off_c, 6, 64, 0
6, 57408, Note_on_c, 6, 45, 96
6, 57408, Note_on_c, 6, 52, 96
6, 57408, Note_on_c, 6, 57, 96
6, 57408, Note_on_c, 6, 61, 96
6, 57408, Note_on_c, 6, 64, 96
6, 57696, Note_off_c, 6, 64, 0
6, 57696, Note_off_c, 6, 61, 0
6, 57696, Note_off_c, 6, 57, 0
6, 57696, Note_off_c, 6, 52, 0
6, 57696, Note_off_c, 6, 45, 0
6, 57696, Note_on_c, 6, 52, 96
6, 57696, Note_on_c, 6, 57, 96
6, 57696, Note_on_c, 6, 61, 96
6, 57696, Note_on_c, 6, 64, 96
6, 57792, Note_off_c, 6, 64, 0
6, 57792, Note_off_c, 6, 61, 0
6, 57792, Note_off_c, 6, 57, 0
6, 57792, Note_off_c, 6, 52, 0
6, 57792, Note_on_c, 6, 64, 96
6, 57792, Note_on_c, 6, 61, 96
6, 57792, Note_on_c, 6, 57, 96
6, 57792, Note_on_c, 6, 52, 96
6, 57792, Note_on_c, 6, 45, 96
6, 57984, Note_on_c, 6, 45, 96
6, 57984, Note_on_c, 6, 57, 96
6, 57984, Note_on_c, 6, 61, 96
6, 57993, Note_on_c, 6, 52, 96
6, 58003, Note_on_c, 6, 64, 96
6, 58080, Note_off_c, 6, 45, 0
6, 58080, Note_off_c, 6, 52, 0
6, 58080, Note_off_c, 6, 57, 0
6, 58080, Note_off_c, 6, 61, 0
6, 58080, Note_off_c, 6, 64, 0
6, 58176, Note_off_c, 6, 64, 0
6, 58176, Note_off_c, 6, 52, 0
6, 58176, Note_off_c, 6, 61, 0
6, 58176, Note_off_c, 6, 57, 0
6, 58176, Note_off_c, 6, 45, 0
6, 58176, Note_on_c, 6, 57, 96
6, 58176, Note_on_c, 6, 61, 96
6, 58176, Note_on_c, 6, 45, 96
6, 58185, Note_on_c, 6, 52, 96
6, 58195, Note_on_c, 6, 64, 96
6, 58272, Note_off_c, 6, 64, 0
6, 58272, Note_off_c, 6, 52, 0
6, 58272, Note_off_c, 6, 45, 0
6, 58272, Note_off_c, 6, 61, 0
6, 58272, Note_off_c, 6, 57, 0
6, 58272, Note_on_c, 6, 57, 81
6, 58272, Note_on_c, 6, 61, 81
6, 58272, Note_on_c, 6, 64, 81
6, 58284, Note_on_c, 6, 52, 81
6, 58368, Note_off_c, 6, 52, 0
6, 58368, Note_off_c, 6, 64, 0
6, 58368, Note_off_c, 6, 61, 0
6, 58368, Note_off_c, 6, 57, 0
6, 58368, Note_on_c, 6, 40, 96
6, 58374, Note_on_c, 6, 47, 96
6, 58377, Note_on_c, 6, 52, 96
6, 58380, Note_on_c, 6, 56, 96
6, 58384, Note_on_c, 6, 59, 96
6, 58387, Note_on_c, 6, 64, 96
6, 58656, Note_off_c, 6, 64, 0
6, 58656, Note_off_c, 6, 59, 0
6, 58656, Note_off_c, 6, 56, 0
6, 58656, Note_off_c, 6, 52, 0
6, 58656, Note_off_c, 6, 47, 0
6, 58656, Note_off_c, 6, 40, 0
6, 58662, Note_on_c, 6, 47, 96
6, 58665, Note_on_c, 6, 52, 96
6, 58668, Note_on_c, 6, 56, 96
6, 58672, Note_on_c, 6, 59, 96
6, 58675, Note_on_c, 6, 64, 96
6, 58752, Note_off_c, 6, 64, 0
6, 58752, Note_off_c, 6, 59, 0
6, 58752, Note_off_c, 6, 56, 0
6, 58752, Note_off_c, 6, 52, 0
6, 58752, Note_off_c, 6, 47, 0
6, 58752, Note_on_c, 6, 64, 96
6, 58752, Note_on_c, 6, 59, 96
6, 58752, Note_on_c, 6, 56, 96
6, 58752, Note_on_c, 6, 52, 96
6, 58752, Note_on_c, 6, 47, 96
6, 58752, Note_on_c, 6, 40, 96
6, 58848, Note_off_c, 6, 40, 0
6, 58848, Note_off_c, 6, 47, 0
6, 58848, Note_off_c, 6, 52, 0
6, 58848, Note_off_c, 6, 56, 0
6, 58848, Note_off_c, 6, 59, 0
6, 58848, Note_off_c, 6, 64, 0
6, 58944, Note_on_c, 6, 40, 96
6, 58944, Note_on_c, 6, 47, 96
6, 58944, Note_on_c, 6, 52, 96
6, 58944, Note_on_c, 6, 56, 96
6, 58944, Note_on_c, 6, 59, 96
6, 58944, Note_on_c, 6, 64, 96
6, 59232, Note_off_c, 6, 64, 0
6, 59232, Note_off_c, 6, 59, 0
6, 59232, Note_off_c, 6, 56, 0
6, 59232, Note_off_c, 6, 52, 0
6, 59232, Note_off_c, 6, 47, 0
6, 59232, Note_off_c, 6, 40, 0
6, 59232, Note_on_c, 6, 47, 96
6, 59232, Note_on_c, 6, 52, 96
6, 59232, Note_on_c, 6, 56, 96
6, 59232, Note_on_c, 6, 59, 96
6, 59232, Note_on_c, 6, 64, 96
6, 59328, Note_off_c, 6, 64, 0
6, 59328, Note_off_c, 6, 59, 0
6, 59328, Note_off_c, 6, 56, 0
6, 59328, Note_off_c, 6, 52, 0
6, 59328, Note_off_c, 6, 47, 0
6, 59328, Note_on_c, 6, 64, 96
6, 59328, Note_on_c, 6, 59, 96
6, 59328, Note_on_c, 6, 56, 96
6, 59328, Note_on_c, 6, 52, 96
6, 59328, Note_on_c, 6, 47, 96
6, 59328, Note_on_c, 6, 40, 96
6, 59520, Note_on_c, 6, 40, 96
6, 59526, Note_on_c, 6, 47, 96
6, 59529, Note_on_c, 6, 52, 96
6, 59532, Note_on_c, 6, 56, 96
6, 59536, Note_on_c, 6, 59, 96
6, 59539, Note_on_c, 6, 64, 96
6, 59616, Note_off_c, 6, 40, 0
6, 59616, Note_off_c, 6, 47, 0
6, 59616, Note_off_c, 6, 52, 0
6, 59616, Note_off_c, 6, 56, 0
6, 59616, Note_off_c, 6, 59, 0
6, 59616, Note_off_c, 6, 64, 0
6, 59712, Note_off_c, 6, 64, 0
6, 59712, Note_off_c, 6, 59, 0
6, 59712, Note_off_c, 6, 56, 0
6, 59712, Note_off_c, 6, 52, 0
6, 59712, Note_off_c, 6, 47, 0
6, 59712, Note_off_c, 6, 40, 0
6, 59712, Note_on_c, 6, 40, 96
6, 59718, Note_on_c, 6, 47, 96
6, 59721, Note_on_c, 6, 52, 96
6, 59724, Note_on_c, 6, 56, 96
6, 59728, Note_on_c, 6, 59, 96
6, 59731, Note_on_c, 6, 64, 96
6, 59808, Note_off_c, 6, 64, 0
6, 59808, Note_off_c, 6, 59, 0
6, 59808, Note_off_c, 6, 56, 0
6, 59808, Note_off_c, 6, 52, 0
6, 59808, Note_off_c, 6, 47, 0
6, 59808, Note_off_c, 6, 40, 0
6, 59808, Note_on_c, 6, 64, 81
6, 59814, Note_on_c, 6, 59, 81
6, 59817, Note_on_c, 6, 56, 81
6, 59820, Note_on_c, 6, 52, 81
6, 59824, Note_on_c, 6, 47, 96
6, 59904, Note_off_c, 6, 47, 0
6, 59904, Note_off_c, 6, 52, 0
6, 59904, Note_off_c, 6, 56, 0
6, 59904, Note_off_c, 6, 59, 0
6, 59904, Note_off_c, 6, 64, 0
6, 59904, Note_on_c, 6, 57, 96
6, 59904, Note_on_c, 6, 61, 96
6, 59904, Note_on_c, 6, 45, 96
6, 59913, Note_on_c, 6, 52, 96
6, 59923, Note_on_c, 6, 64, 96
6, 60192, Note_off_c, 6, 64, 0
6, 60192, Note_off_c, 6, 52, 0
6, 60192, Note_off_c, 6, 45, 0
6, 60192, Note_off_c, 6, 61, 0
6, 60192, Note_off_c, 6, 57, 0
6, 60192, Note_on_c, 6, 57, 96
6, 60192, Note_on_c, 6, 61, 96
6, 60201, Note_on_c, 6, 52, 96
6, 60211, Note_on_c, 6, 64, 96
6, 60288, Note_off_c, 6, 64, 0
6, 60288, Note_off_c, 6, 52, 0
6, 60288, Note_off_c, 6, 61, 0
6, 60288, Note_off_c, 6, 57, 0
6, 60288, Note_on_c, 6, 64, 96
6, 60288, Note_on_c, 6, 61, 96
6, 60288, Note_on_c, 6, 57, 96
6, 60288, Note_on_c, 6, 52, 96
6, 60288, Note_on_c, 6, 45, 96
6, 60384, Note_off_c, 6, 45, 0
6, 60384, Note_off_c, 6, 52, 0
6, 60384, Note_off_c, 6, 57, 0
6, 60384, Note_off_c, 6, 61, 0
6, 60384, Note_off_c, 6, 64, 0
6, 60480, Note_on_c, 6, 45, 96
6, 60480, Note_on_c, 6, 52, 96
6, 60480, Note_on_c, 6, 57, 96
6, 60480, Note_on_c, 6, 61, 96
6, 60480, Note_on_c, 6, 64, 96
6, 60768, Note_off_c, 6, 64, 0
6, 60768, Note_off_c, 6, 61, 0
6, 60768, Note_off_c, 6, 57, 0
6, 60768, Note_off_c, 6, 52, 0
6, 60768, Note_off_c, 6, 45, 0
6, 60768, Note_on_c, 6, 52, 96
6, 60768, Note_on_c, 6, 57, 96
6, 60768, Note_on_c, 6, 61, 96
6, 60768, Note_on_c, 6, 64, 96
6, 60864, Note_off_c, 6, 64, 0
6, 60864, Note_off_c, 6, 61, 0
6, 60864, Note_off_c, 6, 57, 0
6, 60864, Note_off_c, 6, 52, 0
6, 60864, Note_on_c, 6, 64, 96
6, 60864, Note_on_c, 6, 61, 96
6, 60864, Note_on_c, 6, 57, 96
6, 60864, Note_on_c, 6, 52, 96
6, 60864, Note_on_c, 6, 45, 96
6, 61056, Note_on_c, 6, 45, 96
6, 61056, Note_on_c, 6, 57, 96
6, 61056, Note_on_c, 6, 61, 96
6, 61065, Note_on_c, 6, 52, 96
6, 61075, Note_on_c, 6, 64, 96
6, 61152, Note_off_c, 6, 45, 0
6, 61152, Note_off_c, 6, 52, 0
6, 61152, Note_off_c, 6, 57, 0
6, 61152, Note_off_c, 6, 61, 0
6, 61152, Note_off_c, 6, 64, 0
6, 61248, Note_off_c, 6, 64, 0
6, 61248, Note_off_c, 6, 52, 0
6, 61248, Note_off_c, 6, 61, 0
6, 61248, Note_off_c, 6, 57, 0
6, 61248, Note_off_c, 6, 45, 0
6, 61248, Note_on_c, 6, 57, 96
6, 61248, Note_on_c, 6, 61, 96
6, 61248, Note_on_c, 6, 45, 96
6, 61257, Note_on_c, 6, 52, 96
6, 61267, Note_on_c, 6, 64, 96
6, 61344, Note_off_c, 6, 64, 0
6, 61344, Note_off_c, 6, 52, 0
6, 61344, Note_off_c, 6, 45, 0
6, 61344, Note_off_c, 6, 61, 0
6, 61344, Note_off_c, 6, 57, 0
6, 61344, Note_on_c, 6, 57, 81
6, 61344, Note_on_c, 6, 61, 81
6, 61344, Note_on_c, 6, 64, 81
6, 61356, Note_on_c, 6, 52, 81
6, 61440, Note_off_c, 6, 52, 0
6, 61440, Note_off_c, 6, 64, 0
6, 61440, Note_off_c, 6, 61, 0
6, 61440, Note_off_c, 6, 57, 0
6, 61440, Note_on_c, 6, 40, 96
6, 61446, Note_on_c, 6, 47, 96
6, 61449, Note_on_c, 6, 52, 96
6, 61452, Note_on_c, 6, 56, 96
6, 61456, Note_on_c, 6, 59, 96
6, 61459, Note_on_c, 6, 64, 96
6, 61728, Note_off_c, 6, 64, 0
6, 61728, Note_off_c, 6, 59, 0
6, 61728, Note_off_c, 6, 56, 0
6, 61728, Note_off_c, 6, 52, 0
6, 61728, Note_off_c, 6, 47, 0
6, 61728, Note_off_c, 6, 40, 0
6, 61734, Note_on_c, 6, 47, 96
6, 61737, Note_on_c, 6, 52, 96
6, 61740, Note_on_c, 6, 56, 96
6, 61744, Note_on_c, 6, 59, 96
6, 61747, Note_on_c, 6, 64, 96
6, 61824, Note_off_c, 6, 64, 0
6, 61824, Note_off_c, 6, 59, 0
6, 61824, Note_off_c, 6, 56, 0
6, 61824, Note_off_c, 6, 52, 0
6, 61824, Note_off_c, 6, 47, 0
6, 61824, Note_on_c, 6, 64, 96
6, 61824, Note_on_c, 6, 59, 96
6, 61824, Note_on_c, 6, 56, 96
6, 61824, Note_on_c, 6, 52, 96
6, 61824, Note_on_c, 6, 47, 96
6, 61824, Note_on_c, 6, 40, 96
6, 61920, Note_off_c, 6, 40, 0
6, 61920, Note_off_c, 6, 47, 0
6, 61920, Note_off_c, 6, 52, 0
6, 61920, Note_off_c, 6, 56, 0
6, 61920, Note_off_c, 6, 59, 0
6, 61920, Note_off_c, 6, 64, 0
6, 62016, Note_on_c, 6, 40, 96
6, 62016, Note_on_c, 6, 47, 96
6, 62016, Note_on_c, 6, 52, 96
6, 62016, Note_on_c, 6, 56, 96
6, 62016, Note_on_c, 6, 59, 96
6, 62016, Note_on_c, 6, 64, 96
6, 62304, Note_off_c, 6, 64, 0
6, 62304, Note_off_c, 6, 59, 0
6, 62304, Note_off_c, 6, 56, 0
6, 62304, Note_off_c, 6, 52, 0
6, 62304, Note_off_c, 6, 47, 0
6, 62304, Note_off_c, 6, 40, 0
6, 62304, Note_on_c, 6, 47, 96
6, 62304, Note_on_c, 6, 52, 96
6, 62304, Note_on_c, 6, 56, 96
6, 62304, Note_on_c, 6, 59, 96
6, 62304, Note_on_c, 6, 64, 96
6, 62400, Note_off_c, 6, 64, 0
6, 62400, Note_off_c, 6, 59, 0
6, 62400, Note_off_c, 6, 56, 0
6, 62400, Note_off_c, 6, 52, 0
6, 62400, Note_off_c, 6, 47, 0
6, 62400, Note_on_c, 6, 64, 96
6, 62400, Note_on_c, 6, 59, 96
6, 62400, Note_on_c, 6, 56, 96
6, 62400, Note_on_c, 6, 52, 96
6, 62400, Note_on_c, 6, 47, 96
6, 62400, Note_on_c, 6, 40, 96
6, 62592, Note_on_c, 6, 40, 96
6, 62598, Note_on_c, 6, 47, 96
6, 62601, Note_on_c, 6, 52, 96
6, 62604, Note_on_c, 6, 56, 96
6, 62608, Note_on_c, 6, 59, 96
6, 62611, Note_on_c, 6, 64, 96
6, 62688, Note_off_c, 6, 40, 0
6, 62688, Note_off_c, 6, 47, 0
6, 62688, Note_off_c, 6, 52, 0
6, 62688, Note_off_c, 6, 56, 0
6, 62688, Note_off_c, 6, 59, 0
6, 62688, Note_off_c, 6, 64, 0
6, 62784, Note_off_c, 6, 64, 0
6, 62784, Note_off_c, 6, 59, 0
6, 62784, Note_off_c, 6, 56, 0
6, 62784, Note_off_c, 6, 52, 0
6, 62784, Note_off_c, 6, 47, 0
6, 62784, Note_off_c, 6, 40, 0
6, 62784, Note_on_c, 6, 40, 96
6, 62790, Note_on_c, 6, 47, 96
6, 62793, Note_on_c, 6, 52, 96
6, 62796, Note_on_c, 6, 56, 96
6, 62800, Note_on_c, 6, 59, 96
6, 62803, Note_on_c, 6, 64, 96
6, 62880, Note_off_c, 6, 64, 0
6, 62880, Note_off_c, 6, 59, 0
6, 62880, Note_off_c, 6, 56, 0
6, 62880, Note_off_c, 6, 52, 0
6, 62880, Note_off_c, 6, 47, 0
6, 62880, Note_off_c, 6, 40, 0
6, 62880, Note_on_c, 6, 64, 81
6, 62886, Note_on_c, 6, 59, 81
6, 62889, Note_on_c, 6, 56, 81
6, 62892, Note_on_c, 6, 52, 81
6, 62896, Note_on_c, 6, 47, 96
6, 62976, Note_off_c, 6, 47, 0
6, 62976, Note_off_c, 6, 52, 0
6, 62976, Note_off_c, 6, 56, 0
6, 62976, Note_off_c, 6, 59, 0
6, 62976, Note_off_c, 6, 64, 0
6, 62976, Note_on_c, 6, 57, 96
6, 62976, Note_on_c, 6, 61, 96
6, 62976, Note_on_c, 6, 45, 96
6, 62985, Note_on_c, 6, 52, 96
6, 62995, Note_on_c, 6, 64, 96
6, 63264, Note_off_c, 6, 64, 0
6, 63264, Note_off_c, 6, 52, 0
6, 63264, Note_off_c, 6, 45, 0
6, 63264, Note_off_c, 6, 61, 0
6, 63264, Note_off_c, 6, 57, 0
6, 63264, Note_on_c, 6, 57, 96
6, 63264, Note_on_c, 6, 61, 96
6, 63273, Note_on_c, 6, 52, 96
6, 63283, Note_on_c, 6, 64, 96
6, 63360, Note_off_c, 6, 64, 0
6, 63360, Note_off_c, 6, 52, 0
6, 63360, Note_off_c, 6, 61, 0
6, 63360, Note_off_c, 6, 57, 0
6, 63360, Note_on_c, 6, 64, 96
6, 63360, Note_on_c, 6, 61, 96
6, 63360, Note_on_c, 6, 57, 96
6, 63360, Note_on_c, 6, 52, 96
6, 63360, Note_on_c, 6, 45, 96
6, 63456, Note_off_c, 6, 45, 0
6, 63456, Note_off_c, 6, 52, 0
6, 63456, Note_off_c, 6, 57, 0
6, 63456, Note_off_c, 6, 61, 0
6, 63456, Note_off_c, 6, 64, 0
6, 63552, Note_on_c, 6, 45, 96
6, 63552, Note_on_c, 6, 52, 96
6, 63552, Note_on_c, 6, 57, 96
6, 63552, Note_on_c, 6, 61, 96
6, 63552, Note_on_c, 6, 64, 96
6, 63840, Note_off_c, 6, 64, 0
6, 63840, Note_off_c, 6, 61, 0
6, 63840, Note_off_c, 6, 57, 0
6, 63840, Note_off_c, 6, 52, 0
6, 63840, Note_off_c, 6, 45, 0
6, 63840, Note_on_c, 6, 52, 96
6, 63840, Note_on_c, 6, 57, 96
6, 63840, Note_on_c, 6, 61, 96
6, 63840, Note_on_c, 6, 64, 96
6, 63936, Note_off_c, 6, 64, 0
6, 63936, Note_off_c, 6, 61, 0
6, 63936, Note_off_c, 6, 57, 0
6, 63936, Note_off_c, 6, 52, 0
6, 63936, Note_on_c, 6, 64, 96
6, 63936, Note_on_c, 6, 61, 96
6, 63936, Note_on_c, 6, 57, 96
6, 63936, Note_on_c, 6, 52, 96
6, 63936, Note_on_c, 6, 45, 96
6, 64128, Note_on_c, 6, 45, 96
6, 64128, Note_on_c, 6, 57, 96
6, 64128, Note_on_c, 6, 61, 96
6, 64137, Note_on_c, 6, 52, 96
6, 64147, Note_on_c, 6, 64, 96
6, 64224, Note_off_c, 6, 45, 0
6, 64224, Note_off_c, 6, 52, 0
6, 64224, Note_off_c, 6, 57, 0
6, 64224, Note_off_c, 6, 61, 0
6, 64224, Note_off_c, 6, 64, 0
6, 64320, Note_off_c, 6, 64, 0
6, 64320, Note_off_c, 6, 52, 0
6, 64320, Note_off_c, 6, 61, 0
6, 64320, Note_off_c, 6, 57, 0
6, 64320, Note_off_c, 6, 45, 0
6, 64320, Note_on_c, 6, 57, 96
6, 64320, Note_on_c, 6, 61, 96
6, 64320, Note_on_c, 6, 45, 96
6, 64329, Note_on_c, 6, 52, 96
6, 64339, Note_on_c, 6, 64, 96
6, 64416, Note_off_c, 6, 64, 0
6, 64416, Note_off_c, 6, 52, 0
6, 64416, Note_off_c, 6, 45, 0
6, 64416, Note_off_c, 6, 61, 0
6, 64416, Note_off_c, 6, 57, 0
6, 64416, Note_on_c, 6, 57, 81
6, 64416, Note_on_c, 6, 61, 81
6, 64416, Note_on_c, 6, 64, 81
6, 64428, Note_on_c, 6, 52, 81
6, 64512, Note_off_c, 6, 52, 0
6, 64512, Note_off_c, 6, 64, 0
6, 64512, Note_off_c, 6, 61, 0
6, 64512, Note_off_c, 6, 57, 0
6, 64512, Note_on_c, 6, 40, 96
6, 64518, Note_on_c, 6, 47, 96
6, 64521, Note_on_c, 6, 52, 96
6, 64524, Note_on_c, 6, 56, 96
6, 64528, Note_on_c, 6, 59, 96
6, 64531, Note_on_c, 6, 64, 96
6, 64800, Note_off_c, 6, 64, 0
6, 64800, Note_off_c, 6, 59, 0
6, 64800, Note_off_c, 6, 56, 0
6, 64800, Note_off_c, 6, 52, 0
6, 64800, Note_off_c, 6, 47, 0
6, 64800, Note_off_c, 6, 40, 0
6, 64806, Note_on_c, 6, 47, 96
6, 64809, Note_on_c, 6, 52, 96
6, 64812, Note_on_c, 6, 56, 96
6, 64816, Note_on_c, 6, 59, 96
6, 64819, Note_on_c, 6, 64, 96
6, 64896, Note_off_c, 6, 64, 0
6, 64896, Note_off_c, 6, 59, 0
6, 64896, Note_off_c, 6, 56, 0
6, 64896, Note_off_c, 6, 52, 0
6, 64896, Note_off_c, 6, 47, 0
6, 64896, Note_on_c, 6, 64, 96
6, 64896, Note_on_c, 6, 59, 96
6, 64896, Note_on_c, 6, 56, 96
6, 64896, Note_on_c, 6, 52, 96
6, 64896, Note_on_c, 6, 47, 96
6, 64896, Note_on_c, 6, 40, 96
6, 64992, Note_off_c, 6, 40, 0
6, 64992, Note_off_c, 6, 47, 0
6, 64992, Note_off_c, 6, 52, 0
6, 64992, Note_off_c, 6, 56, 0
6, 64992, Note_off_c, 6, 59, 0
6, 64992, Note_off_c, 6, 64, 0
6, 65088, Note_on_c, 6, 40, 96
6, 65088, Note_on_c, 6, 47, 96
6, 65088, Note_on_c, 6, 52, 96
6, 65088, Note_on_c, 6, 56, 96
6, 65088, Note_on_c, 6, 59, 96
6, 65088, Note_on_c, 6, 64, 96
6, 65376, Note_off_c, 6, 64, 0
6, 65376, Note_off_c, 6, 59, 0
6, 65376, Note_off_c, 6, 56, 0
6, 65376, Note_off_c, 6, 52, 0
6, 65376, Note_off_c, 6, 47, 0
6, 65376, Note_off_c, 6, 40, 0
6, 65376, Note_on_c, 6, 47, 96
6, 65376, Note_on_c, 6, 52, 96
6, 65376, Note_on_c, 6, 56, 96
6, 65376, Note_on_c, 6, 59, 96
6, 65376, Note_on_c, 6, 64, 96
6, 65472, Note_off_c, 6, 64, 0
6, 65472, Note_off_c, 6, 59, 0
6, 65472, Note_off_c, 6, 56, 0
6, 65472, Note_off_c, 6, 52, 0
6, 65472, Note_off_c, 6, 47, 0
6, 65472, Note_on_c, 6, 64, 96
6, 65472, Note_on_c, 6, 59, 96
6, 65472, Note_on_c, 6, 56, 96
6, 65472, Note_on_c, 6, 52, 96
6, 65472, Note_on_c, 6, 47, 96
6, 65472, Note_on_c, 6, 40, 96
6, 65664, Note_on_c, 6, 40, 96
6, 65670, Note_on_c, 6, 47, 96
6, 65673, Note_on_c, 6, 52, 96
6, 65676, Note_on_c, 6, 56, 96
6, 65680, Note_on_c, 6, 59, 96
6, 65683, Note_on_c, 6, 64, 96
6, 65760, Note_off_c, 6, 40, 0
6, 65760, Note_off_c, 6, 47, 0
6, 65760, Note_off_c, 6, 52, 0
6, 65760, Note_off_c, 6, 56, 0
6, 65760, Note_off_c, 6, 59, 0
6, 65760, Note_off_c, 6, 64, 0
6, 65856, Note_off_c, 6, 64, 0
6, 65856, Note_off_c, 6, 59, 0
6, 65856, Note_off_c, 6, 56, 0
6, 65856, Note_off_c, 6, 52, 0
6, 65856, Note_off_c, 6, 47, 0
6, 65856, Note_off_c, 6, 40, 0
6, 65856, Note_on_c, 6, 40, 96
6, 65862, Note_on_c, 6, 47, 96
6, 65865, Note_on_c, 6, 52, 96
6, 65868, Note_on_c, 6, 56, 96
6, 65872, Note_on_c, 6, 59, 96
6, 65875, Note_on_c, 6, 64, 96
6, 65952, Note_off_c, 6, 64, 0
6, 65952, Note_off_c, 6, 59, 0
6, 65952, Note_off_c, 6, 56, 0
6, 65952, Note_off_c, 6, 52, 0
6, 65952, Note_off_c, 6, 47, 0
6, 65952, Note_off_c, 6, 40, 0
6, 65952, Note_on_c, 6, 64, 81
6, 65958, Note_on_c, 6, 59, 81
6, 65961, Note_on_c, 6, 56, 81
6, 65964, Note_on_c, 6, 52, 81
6, 65968, Note_on_c, 6, 47, 96
6, 66048, Note_off_c, 6, 47, 0
6, 66048, Note_off_c, 6, 52, 0
6, 66048, Note_off_c, 6, 56, 0
6, 66048, Note_off_c, 6, 59, 0
6, 66048, Note_off_c, 6, 64, 0
6, 66048, Note_on_c, 6, 57, 96
6, 66048, Note_on_c, 6, 61, 96
6, 66048, Note_on_c, 6, 45, 96
6, 66057, Note_on_c, 6, 52, 96
6, 66067, Note_on_c, 6, 64, 96
6, 66336, Note_off_c, 6, 64, 0
6, 66336, Note_off_c, 6, 52, 0
6, 66336, Note_off_c, 6, 45, 0
6, 66336, Note_off_c, 6, 61, 0
6, 66336, Note_off_c, 6, 57, 0
6, 66336, Note_on_c, 6, 57, 96
6, 66336, Note_on_c, 6, 61, 96
6, 66345, Note_on_c, 6, 52, 96
6, 66355, Note_on_c, 6, 64, 96
6, 66432, Note_off_c, 6, 64, 0
6, 66432, Note_off_c, 6, 52, 0
6, 66432, Note_off_c, 6, 61, 0
6, 66432, Note_off_c, 6, 57, 0
6, 66432, Note_on_c, 6, 64, 96
6, 66432, Note_on_c, 6, 61, 96
6, 66432, Note_on_c, 6, 57, 96
6, 66432, Note_on_c, 6, 52, 96
6, 66432, Note_on_c, 6, 45, 96
6, 66528, Note_off_c, 6, 45, 0
6, 66528, Note_off_c, 6, 52, 0
6, 66528, Note_off_c, 6, 57, 0
6, 66528, Note_off_c, 6, 61, 0
6, 66528, Note_off_c, 6, 64, 0
6, 66624, Note_on_c, 6, 45, 96
6, 66624, Note_on_c, 6, 52, 96
6, 66624, Note_on_c, 6, 57, 96
6, 66624, Note_on_c, 6, 61, 96
6, 66624, Note_on_c, 6, 64, 96
6, 66912, Note_off_c, 6, 64, 0
6, 66912, Note_off_c, 6, 61, 0
6, 66912, Note_off_c, 6, 57, 0
6, 66912, Note_off_c, 6, 52, 0
6, 66912, Note_off_c, 6, 45, 0
6, 66912, Note_on_c, 6, 52, 96
6, 66912, Note_on_c, 6, 57, 96
6, 66912, Note_on_c, 6, 61, 96
6, 66912, Note_on_c, 6, 64, 96
6, 67008, Note_off_c, 6, 64, 0
6, 67008, Note_off_c, 6, 61, 0
6, 67008, Note_off_c, 6, 57, 0
6, 67008, Note_off_c, 6, 52, 0
6, 67008, Note_on_c, 6, 64, 96
6, 67008, Note_on_c, 6, 61, 96
6, 67008, Note_on_c, 6, 57, 96
6, 67008, Note_on_c, 6, 52, 96
6, 67008, Note_on_c, 6, 45, 96
6, 67200, Note_on_c, 6, 45, 96
6, 67200, Note_on_c, 6, 57, 96
6, 67200, Note_on_c, 6, 61, 96
6, 67209, Note_on_c, 6, 52, 96
6, 67219, Note_on_c, 6, 64, 96
6, 67296, Note_off_c, 6, 45, 0
6, 67296, Note_off_c, 6, 52, 0
6, 67296, Note_off_c, 6, 57, 0
6, 67296, Note_off_c, 6, 61, 0
6, 67296, Note_off_c, 6, 64, 0
6, 67392, Note_off_c, 6, 64, 0
6, 67392, Note_off_c, 6, 52, 0
6, 67392, Note_off_c, 6, 61, 0
6, 67392, Note_off_c, 6, 57, 0
6, 67392, Note_off_c, 6, 45, 0
6, 67392, Note_on_c, 6, 57, 96
6, 67392, Note_on_c, 6, 61, 96
6, 67392, Note_on_c, 6, 45, 96
6, 67401, Note_on_c, 6, 52, 96
6, 67411, Note_on_c, 6, 64, 96
6, 67488, Note_off_c, 6, 64, 0
6, 67488, Note_off_c, 6, 52, 0
6, 67488, Note_off_c, 6, 45, 0
6, 67488, Note_off_c, 6, 61, 0
6, 67488, Note_off_c, 6, 57, 0
6, 67488, Note_on_c, 6, 57, 81
6, 67488, Note_on_c, 6, 61, 81
6, 67488, Note_on_c, 6, 64, 81
6, 67500, Note_on_c, 6, 52, 81
6, 67584, Note_off_c, 6, 52, 0
6, 67584, Note_off_c, 6, 64, 0
6, 67584, Note_off_c, 6, 61, 0
6, 67584, Note_off_c, 6, 57, 0
6, 67584, Note_on_c, 6, 40, 96
6, 67590, Note_on_c, 6, 47, 96
6, 67593, Note_on_c, 6, 52, 96
6, 67596, Note_on_c, 6, 56, 96
6, 67600, Note_on_c, 6, 59, 96
6, 67603, Note_on_c, 6, 64, 96
6, 67872, Note_off_c, 6, 64, 0
6, 67872, Note_off_c, 6, 59, 0
6, 67872, Note_off_c, 6, 56, 0
6, 67872, Note_off_c, 6, 52, 0
6, 67872, Note_off_c, 6, 47, 0
6, 67872, Note_off_c, 6, 40, 0
6, 67878, Note_on_c, 6, 47, 96
6, 67881, Note_on_c, 6, 52, 96
6, 67884, Note_on_c, 6, 56, 96
6, 67888, Note_on_c, 6, 59, 96
6, 67891, Note_on_c, 6, 64, 96
6, 67968, Note_off_c, 6, 64, 0
6, 67968, Note_off_c, 6, 59, 0
6, 67968, Note_off_c, 6, 56, 0
6, 67968, Note_off_c, 6, 52, 0
6, 67968, Note_off_c, 6, 47, 0
6, 67968, Note_on_c, 6, 64, 96
6, 67968, Note_on_c, 6, 59, 96
6, 67968, Note_on_c, 6, 56, 96
6, 67968, Note_on_c, 6, 52, 96
6, 67968, Note_on_c, 6, 47, 96
6, 67968, Note_on_c, 6, 40, 96
6, 68064, Note_off_c, 6, 40, 0
6, 68064, Note_off_c, 6, 47, 0
6, 68064, Note_off_c, 6, 52, 0
6, 68064, Note_off_c, 6, 56, 0
6, 68064, Note_off_c, 6, 59, 0
6, 68064, Note_off_c, 6, 64, 0
6, 68160, Note_on_c, 6, 40, 96
6, 68160, Note_on_c, 6, 47, 96
6, 68160, Note_on_c, 6, 52, 96
6, 68160, Note_on_c, 6, 56, 96
6, 68160, Note_on_c, 6, 59, 96
6, 68160, Note_on_c, 6, 64, 96
6, 68448, Note_off_c, 6, 64, 0
6, 68448, Note_off_c, 6, 59, 0
6, 68448, Note_off_c, 6, 56, 0
6, 68448, Note_off_c, 6, 52, 0
6, 68448, Note_off_c, 6, 47, 0
6, 68448, Note_off_c, 6, 40, 0
6, 68448, Note_on_c, 6, 47, 96
6, 68448, Note_on_c, 6, 52, 96
6, 68448, Note_on_c, 6, 56, 96
6, 68448, Note_on_c, 6, 59, 96
6, 68448, Note_on_c, 6, 64, 96
6, 68544, Note_off_c, 6, 64, 0
6, 68544, Note_off_c, 6, 59, 0
6, 68544, Note_off_c, 6, 56, 0
6, 68544, Note_off_c, 6, 52, 0
6, 68544, Note_off_c, 6, 47, 0
6, 68544, Note_on_c, 6, 64, 96
6, 68544, Note_on_c, 6, 59, 96
6, 68544, Note_on_c, 6, 56, 96
6, 68544, Note_on_c, 6, 52, 96
6, 68544, Note_on_c, 6, 47, 96
6, 68544, Note_on_c, 6, 40, 96
6, 68736, Note_on_c, 6, 40, 96
6, 68742, Note_on_c, 6, 47, 96
6, 68745, Note_on_c, 6, 52, 96
6, 68748, Note_on_c, 6, 56, 96
6, 68752, Note_on_c, 6, 59, 96
6, 68755, Note_on_c, 6, 64, 96
6, 68832, Note_off_c, 6, 40, 0
6, 68832, Note_off_c, 6, 47, 0
6, 68832, Note_off_c, 6, 52, 0
6, 68832, Note_off_c, 6, 56, 0
6, 68832, Note_off_c, 6, 59, 0
6, 68832, Note_off_c, 6, 64, 0
6, 68928, Note_off_c, 6, 64, 0
6, 68928, Note_off_c, 6, 59, 0
6, 68928, Note_off_c, 6, 56, 0
6, 68928, Note_off_c, 6, 52, 0
6, 68928, Note_off_c, 6, 47, 0
6, 68928, Note_off_c, 6, 40, 0
6, 68928, Note_on_c, 6, 40, 96
6, 68934, Note_on_c, 6, 47, 96
6, 68937, Note_on_c, 6, 52, 96
6, 68940, Note_on_c, 6, 56, 96
6, 68944, Note_on_c, 6, 59, 96
6, 68947, Note_on_c, 6, 64, 96
6, 69024, Note_off_c, 6, 64, 0
6, 69024, Note_off_c, 6, 59, 0
6, 69024, Note_off_c, 6, 56, 0
6, 69024, Note_off_c, 6, 52, 0
6, 69024, Note_off_c, 6, 47, 0
6, 69024, Note_off_c, 6, 40, 0
6, 69024, Note_on_c, 6, 64, 81
6, 69030, Note_on_c, 6, 59, 81
6, 69033, Note_on_c, 6, 56, 81
6, 69036, Note_on_c, 6, 52, 81
6, 69040, Note_on_c, 6, 47, 96
6, 69120, Note_off_c, 6, 47, 0
6, 69120, Note_off_c, 6, 52, 0
6, 69120, Note_off_c, 6, 56, 0
6, 69120, Note_off_c, 6, 59, 0
6, 69120, Note_off_c, 6, 64, 0
6, 69120, Note_on_c, 6, 57, 96
6, 69120, Note_on_c, 6, 61, 96
6, 69120, Note_on_c, 6, 45, 96
6, 69129, Note_on_c, 6, 52, 96
6, 69139, Note_on_c, 6, 64, 96
6, 69408, Note_off_c, 6, 64, 0
6, 69408, Note_off_c, 6, 52, 0
6, 69408, Note_off_c, 6, 45, 0
6, 69408, Note_off_c, 6, 61, 0
6, 69408, Note_off_c, 6, 57, 0
6, 69408, Note_on_c, 6, 57, 96
6, 69408, Note_on_c, 6, 61, 96
6, 69417, Note_on_c, 6, 52, 96
6, 69427, Note_on_c, 6, 64, 96
6, 69504, Note_off_c, 6, 64, 0
6, 69504, Note_off_c, 6, 52, 0
6, 69504, Note_off_c, 6, 61, 0
6, 69504, Note_off_c, 6, 57, 0
6, 69504, Note_on_c, 6, 64, 96
6, 69504, Note_on_c, 6, 61, 96
6, 69504, Note_on_c, 6, 57, 96
6, 69504, Note_on_c, 6, 52, 96
6, 69504, Note_on_c, 6, 45, 96
6, 69600, Note_off_c, 6, 45, 0
6, 69600, Note_off_c, 6, 52, 0
6, 69600, Note_off_c, 6, 57, 0
6, 69600, Note_off_c, 6, 61, 0
6, 69600, Note_off_c, 6, 64, 0
6, 69696, Note_on_c, 6, 45, 96
6, 69696, Note_on_c, 6, 52, 96
6, 69696, Note_on_c, 6, 57, 96
6, 69696, Note_on_c, 6, 61, 96
6, 69696, Note_on_c, 6, 64, 96
6, 69984, Note_off_c, 6, 64, 0
6, 69984, Note_off_c, 6, 61, 0
6, 69984, Note_off_c, 6, 57, 0
6, 69984, Note_off_c, 6, 52, 0
6, 69984, Note_off_c, 6, 45, 0
6, 69984, Note_on_c, 6, 52, 96
6, 69984, Note_on_c, 6, 57, 96
6, 69984, Note_on_c, 6, 61, 96
6, 69984, Note_on_c, 6, 64, 96
6, 70080, Note_off_c, 6, 64, 0
6, 70080, Note_off_c, 6, 61, 0
6, 70080, Note_off_c, 6, 57, 0
6, 70080, Note_off_c, 6, 52, 0
6, 70080, Note_on_c, 6, 64, 96
6, 70080, Note_on_c, 6, 61, 96
6, 70080, Note_on_c, 6, 57, 96
6, 70080, Note_on_c, 6, 52, 96
6, 70080, Note_on_c, 6, 45, 96
6, 70272, Note_on_c, 6, 45, 96
6, 70272, Note_on_c, 6, 57, 96
6, 70272, Note_on_c, 6, 61, 96
6, 70281, Note_on_c, 6, 52, 96
6, 70291, Note_on_c, 6, 64, 96
6, 70368, Note_off_c, 6, 45, 0
6, 70368, Note_off_c, 6, 52, 0
6, 70368, Note_off_c, 6, 57, 0
6, 70368, Note_off_c, 6, 61, 0
6, 70368, Note_off_c, 6, 64, 0
6, 70464, Note_off_c, 6, 64, 0
6, 70464, Note_off_c, 6, 52, 0
6, 70464, Note_off_c, 6, 61, 0
6, 70464, Note_off_c, 6, 57, 0
6, 70464, Note_off_c, 6, 45, 0
6, 70464, Note_on_c, 6, 57, 96
6, 70464, Note_on_c, 6, 61, 96
6, 70464, Note_on_c, 6, 45, 96
6, 70473, Note_on_c, 6, 52, 96
6, 70483, Note_on_c, 6, 64, 96
6, 70560, Note_off_c, 6, 64, 0
6, 70560, Note_off_c, 6, 52, 0
6, 70560, Note_off_c, 6, 45, 0
6, 70560, Note_off_c, 6, 61, 0
6, 70560, Note_off_c, 6, 57, 0
6, 70560, Note_on_c, 6, 57, 81
6, 70560, Note_on_c, 6, 61, 81
6, 70560, Note_on_c, 6, 64, 81
6, 70572, Note_on_c, 6, 52, 81
6, 70656, Note_off_c, 6, 52, 0
6, 70656, Note_off_c, 6, 64, 0
6, 70656, Note_off_c, 6, 61, 0
6, 70656, Note_off_c, 6, 57, 0
6, 70656, Note_on_c, 6, 40, 96
6, 70662, Note_on_c, 6, 47, 96
6, 70665, Note_on_c, 6, 52, 96
6, 70668, Note_on_c, 6, 56, 96
6, 70672, Note_on_c, 6, 59, 96
6, 70675, Note_on_c, 6, 64, 96
6, 70944, Note_off_c, 6, 64, 0
6, 70944, Note_off_c, 6, 59, 0
6, 70944, Note_off_c, 6, 56, 0
6, 70944, Note_off_c, 6, 52, 0
6, 70944, Note_off_c, 6, 47, 0
6, 70944, Note_off_c, 6, 40, 0
6, 70950, Note_on_c, 6, 47, 96
6, 70953, Note_on_c, 6, 52, 96
6, 70956, Note_on_c, 6, 56, 96
6, 70960, Note_on_c, 6, 59, 96
6, 70963, Note_on_c, 6, 64, 96
6, 71040, Note_off_c, 6, 64, 0
6, 71040, Note_off_c, 6, 59, 0
6, 71040, Note_off_c, 6, 56, 0
6, 71040, Note_off_c, 6, 52, 0
6, 71040, Note_off_c, 6, 47, 0
6, 71040, Note_on_c, 6, 64, 96
6, 71040, Note_on_c, 6, 59, 96
6, 71040, Note_on_c, 6, 56, 96
6, 71040, Note_on_c, 6, 52, 96
6, 71040, Note_on_c, 6, 47, 96
6, 71040, Note_on_c, 6, 40, 96
6, 71136, Note_off_c, 6, 40, 0
6, 71136, Note_off_c, 6, 47, 0
6, 71136, Note_off_c, 6, 52, 0
6, 71136, Note_off_c, 6, 56, 0
6, 71136, Note_off_c, 6, 59, 0
6, 71136, Note_off_c, 6, 64, 0
6, 71232, Note_on_c, 6, 40, 96
6, 71232, Note_on_c, 6, 47, 96
6, 71232, Note_on_c, 6, 52, 96
6, 71232, Note_on_c, 6, 56, 96
6, 71232, Note_on_c, 6, 59, 96
6, 71232, Note_on_c, 6, 64, 96
6, 71520, Note_off_c, 6, 64, 0
6, 71520, Note_off_c, 6, 59, 0
6, 71520, Note_off_c, 6, 56, 0
6, 71520, Note_off_c, 6, 52, 0
6, 71520, Note_off_c, 6, 47, 0
6, 71520, Note_off_c, 6, 40, 0
6, 71520, Note_on_c, 6, 47, 96
6, 71520, Note_on_c, 6, 52, 96
6, 71520, Note_on_c, 6, 56, 96
6, 71520, Note_on_c, 6, 59, 96
6, 71520, Note_on_c, 6, 64, 96
6, 71616, Note_off_c, 6, 64, 0
6, 71616, Note_off_c, 6, 59, 0
6, 71616, Note_off_c, 6, 56, 0
6, 71616, Note_off_c, 6, 52, 0
6, 71616, Note_off_c, 6, 47, 0
6, 71616, Note_on_c, 6, 64, 96
6, 71616, Note_on_c, 6, 59, 96
6, 71616, Note_on_c, 6, 56, 96
6, 71616, Note_on_c, 6, 52, 96
6, 71616, Note_on_c, 6, 47, 96
6, 71616, Note_on_c, 6, 40, 96
6, 71808, Note_on_c, 6, 40, 96
6, 71814, Note_on_c, 6, 47, 96
6, 71817, Note_on_c, 6, 52, 96
6, 71820, Note_on_c, 6, 56, 96
6, 71824, Note_on_c, 6, 59, 96
6, 71827, Note_on_c, 6, 64, 96
6, 71904, Note_off_c, 6, 40, 0
6, 71904, Note_off_c, 6, 47, 0
6, 71904, Note_off_c, 6, 52, 0
6, 71904, Note_off_c, 6, 56, 0
6, 71904, Note_off_c, 6, 59, 0
6, 71904, Note_off_c, 6, 64, 0
6, 72000, Note_off_c, 6, 64, 0
6, 72000, Note_off_c, 6, 59, 0
6, 72000, Note_off_c, 6, 56, 0
6, 72000, Note_off_c, 6, 52, 0
6, 72000, Note_off_c, 6, 47, 0
6, 72000, Note_off_c, 6, 40, 0
6, 72000, Note_on_c, 6, 40, 96
6, 72006, Note_on_c, 6, 47, 96
6, 72009, Note_on_c, 6, 52, 96
6, 72012, Note_on_c, 6, 56, 96
6, 72016, Note_on_c, 6, 59, 96
6, 72019, Note_on_c, 6, 64, 96
6, 72096, Note_off_c, 6, 64, 0
6, 72096, Note_off_c, 6, 59, 0
6, 72096, Note_off_c, 6, 56, 0
6, 72096, Note_off_c, 6, 52, 0
6, 72096, Note_off_c, 6, 47, 0
6, 72096, Note_off_c, 6, 40, 0
6, 72096, Note_on_c, 6, 64, 81
6, 72102, Note_on_c, 6, 59, 81
6, 72105, Note_on_c, 6, 56, 81
6, 72108, Note_on_c, 6, 52, 81
6, 72112, Note_on_c, 6, 47, 96
6, 72192, Note_off_c, 6, 47, 0
6, 72192, Note_off_c, 6, 52, 0
6, 72192, Note_off_c, 6, 56, 0
6, 72192, Note_off_c, 6, 59, 0
6, 72192, Note_off_c, 6, 64, 0
6, 72192, Note_on_c, 6, 57, 96
6, 72192, Note_on_c, 6, 61, 96
6, 72192, Note_on_c, 6, 45, 96
6, 72201, Note_on_c, 6, 52, 96
6, 72211, Note_on_c, 6, 64, 96
6, 72480, Note_off_c, 6, 64, 0
6, 72480, Note_off_c, 6, 52, 0
6, 72480, Note_off_c, 6, 45, 0
6, 72480, Note_off_c, 6, 61, 0
6, 72480, Note_off_c, 6, 57, 0
6, 72480, Note_on_c, 6, 57, 96
6, 72480, Note_on_c, 6, 61, 96
6, 72489, Note_on_c, 6, 52, 96
6, 72499, Note_on_c, 6, 64, 96
6, 72576, Note_off_c, 6, 64, 0
6, 72576, Note_off_c, 6, 52, 0
6, 72576, Note_off_c, 6, 61, 0
6, 72576, Note_off_c, 6, 57, 0
6, 72576, Note_on_c, 6, 64, 96
6, 72576, Note_on_c, 6, 61, 96
6, 72576, Note_on_c, 6, 57, 96
6, 72576, Note_on_c, 6, 52, 96
6, 72576, Note_on_c, 6, 45, 96
6, 72672, Note_off_c, 6, 45, 0
6, 72672, Note_off_c, 6, 52, 0
6, 72672, Note_off_c, 6, 57, 0
6, 72672, Note_off_c, 6, 61, 0
6, 72672, Note_off_c, 6, 64, 0
6, 72768, Note_on_c, 6, 45, 96
6, 72768, Note_on_c, 6, 52, 96
6, 72768, Note_on_c, 6, 57, 96
6, 72768, Note_on_c, 6, 61, 96
6, 72768, Note_on_c, 6, 64, 96
6, 73056, Note_off_c, 6, 64, 0
6, 73056, Note_off_c, 6, 61, 0
6, 73056, Note_off_c, 6, 57, 0
6, 73056, Note_off_c, 6, 52, 0
6, 73056, Note_off_c, 6, 45, 0
6, 73056, Note_on_c, 6, 52, 96
6, 73056, Note_on_c, 6, 57, 96
6, 73056, Note_on_c, 6, 61, 96
6, 73056, Note_on_c, 6, 64, 96
6, 73152, Note_off_c, 6, 64, 0
6, 73152, Note_off_c, 6, 61, 0
6, 73152, Note_off_c, 6, 57, 0
6, 73152, Note_off_c, 6, 52, 0
6, 73152, Note_on_c, 6, 64, 96
6, 73152, Note_on_c, 6, 61, 96
6, 73152, Note_on_c, 6, 57, 96
6, 73152, Note_on_c, 6, 52, 96
6, 73152, Note_on_c, 6, 45, 96
6, 73344, Note_on_c, 6, 45, 96
6, 73344, Note_on_c, 6, 57, 96
6, 73344, Note_on_c, 6, 61, 96
6, 73353, Note_on_c, 6, 52, 96
6, 73363, Note_on_c, 6, 64, 96
6, 73440, Note_off_c, 6, 45, 0
6, 73440, Note_off_c, 6, 52, 0
6, 73440, Note_off_c, 6, 57, 0
6, 73440, Note_off_c, 6, 61, 0
6, 73440, Note_off_c, 6, 64, 0
6, 73536, Note_off_c, 6, 64, 0
6, 73536, Note_off_c, 6, 52, 0
6, 73536, Note_off_c, 6, 61, 0
6, 73536, Note_off_c, 6, 57, 0
6, 73536, Note_off_c, 6, 45, 0
6, 73536, Note_on_c, 6, 57, 96
6, 73536, Note_on_c, 6, 61, 96
6, 73536, Note_on_c, 6, 45, 96
6, 73545, Note_on_c, 6, 52, 96
6, 73555, Note_on_c, 6, 64, 96
6, 73632, Note_off_c, 6, 64, 0
6, 73632, Note_off_c, 6, 52, 0
6, 73632, Note_off_c, 6, 45, 0
6, 73632, Note_off_c, 6, 61, 0
6, 73632, Note_off_c, 6, 57, 0
6, 73632, Note_on_c, 6, 57, 81
6, 73632, Note_on_c, 6, 61, 81
6, 73632, Note_on_c, 6, 64, 81
6, 73644, Note_on_c, 6, 52, 81
6, 73728, Note_off_c, 6, 52, 0
6, 73728, Note_off_c, 6, 64, 0
6, 73728, Note_off_c, 6, 61, 0
6, 73728, Note_off_c, 6, 57, 0
6, 73728, Note_on_c, 6, 40, 96
6, 73734, Note_on_c, 6, 47, 96
6, 73737, Note_on_c, 6, 52, 96
6, 73740, Note_on_c, 6, 56, 96
6, 73744, Note_on_c, 6, 59, 96
6, 73747, Note_on_c, 6, 64, 96
6, 74016, Note_off_c, 6, 64, 0
6, 74016, Note_off_c, 6, 59, 0
6, 74016, Note_off_c, 6, 56, 0
6, 74016, Note_off_c, 6, 52, 0
6, 74016, Note_off_c, 6, 47, 0
6, 74016, Note_off_c, 6, 40, 0
6, 74022, Note_on_c, 6, 47, 96
6, 74025, Note_on_c, 6, 52, 96
6, 74028, Note_on_c, 6, 56, 96
6, 74032, Note_on_c, 6, 59, 96
6, 74035, Note_on_c, 6, 64, 96
6, 74112, Note_off_c, 6, 64, 0
6, 74112, Note_off_c, 6, 59, 0
6, 74112, Note_off_c, 6, 56, 0
6, 74112, Note_off_c, 6, 52, 0
6, 74112, Note_off_c, 6, 47, 0
6, 74112, Note_on_c, 6, 64, 96
6, 74112, Note_on_c, 6, 59, 96
6, 74112, Note_on_c, 6, 56, 96
6, 74112, Note_on_c, 6, 52, 96
6, 74112, Note_on_c, 6, 47, 96
6, 74112, Note_on_c, 6, 40, 96
6, 74208, Note_off_c, 6, 40, 0
6, 74208, Note_off_c, 6, 47, 0
6, 74208, Note_off_c, 6, 52, 0
6, 74208, Note_off_c, 6, 56, 0
6, 74208, Note_off_c, 6, 59, 0
6, 74208, Note_off_c, 6, 64, 0
6, 74304, Note_on_c, 6, 40, 96
6, 74304, Note_on_c, 6, 47, 96
6, 74304, Note_on_c, 6, 52, 96
6, 74304, Note_on_c, 6, 56, 96
6, 74304, Note_on_c, 6, 59, 96
6, 74304, Note_on_c, 6, 64, 96
6, 74592, Note_off_c, 6, 64, 0
6, 74592, Note_off_c, 6, 59, 0
6, 74592, Note_off_c, 6, 56, 0
6, 74592, Note_off_c, 6, 52, 0
6, 74592, Note_off_c, 6, 47, 0
6, 74592, Note_off_c, 6, 40, 0
6, 74592, Note_on_c, 6, 47, 96
6, 74592, Note_on_c, 6, 52, 96
6, 74592, Note_on_c, 6, 56, 96
6, 74592, Note_on_c, 6, 59, 96
6, 74592, Note_on_c, 6, 64, 96
6, 74688, Note_off_c, 6, 64, 0
6, 74688, Note_off_c, 6, 59, 0
6, 74688, Note_off_c, 6, 56, 0
6, 74688, Note_off_c, 6, 52, 0
6, 74688, Note_off_c, 6, 47, 0
6, 74688, Note_on_c, 6, 64, 96
6, 74688, Note_on_c, 6, 59, 96
6, 74688, Note_on_c, 6, 56, 96
6, 74688, Note_on_c, 6, 52, 96
6, 74688, Note_on_c, 6, 47, 96
6, 74688, Note_on_c, 6, 40, 96
6, 74880, Note_on_c, 6, 40, 96
6, 74886, Note_on_c, 6, 47, 96
6, 74889, Note_on_c, 6, 52, 96
6, 74892, Note_on_c, 6, 56, 96
6, 74896, Note_on_c, 6, 59, 96
6, 74899, Note_on_c, 6, 64, 96
6, 74976, Note_off_c, 6, 40, 0
6, 74976, Note_off_c, 6, 47, 0
6, 74976, Note_off_c, 6, 52, 0
6, 74976, Note_off_c, 6, 56, 0
6, 74976, Note_off_c, 6, 59, 0
6, 74976, Note_off_c, 6, 64, 0
6, 75072, Note_off_c, 6, 64, 0
6, 75072, Note_off_c, 6, 59, 0
6, 75072, Note_off_c, 6, 56, 0
6, 75072, Note_off_c, 6, 52, 0
6, 75072, Note_off_c, 6, 47, 0
6, 75072, Note_off_c, 6, 40, 0
6, 75072, Note_on_c, 6, 40, 96
6, 75078, Note_on_c, 6, 47, 96
6, 75081, Note_on_c, 6, 52, 96
6, 75084, Note_on_c, 6, 56, 96
6, 75088, Note_on_c, 6, 59, 96
6, 75091, Note_on_c, 6, 64, 96
6, 75168, Note_off_c, 6, 64, 0
6, 75168, Note_off_c, 6, 59, 0
6, 75168, Note_off_c, 6, 56, 0
6, 75168, Note_off_c, 6, 52, 0
6, 75168, Note_off_c, 6, 47, 0
6, 75168, Note_off_c, 6, 40, 0
6, 75168, Note_on_c, 6, 64, 81
6, 75174, Note_on_c, 6, 59, 81
6, 75177, Note_on_c, 6, 56, 81
6, 75180, Note_on_c, 6, 52, 81
6, 75184, Note_on_c, 6, 47, 96
6, 75264, Note_off_c, 6, 47, 0
6, 75264, Note_off_c, 6, 52, 0
6, 75264, Note_off_c, 6, 56, 0
6, 75264, Note_off_c, 6, 59, 0
6, 75264, Note_off_c, 6, 64, 0
6, 75264, Note_on_c, 6, 57, 96
6, 75264, Note_on_c, 6, 61, 96
6, 75264, Note_on_c, 6, 45, 96
6, 75273, Note_on_c, 6, 52, 96
6, 75283, Note_on_c, 6, 64, 96
6, 75552, Note_off_c, 6, 64, 0
6, 75552, Note_off_c, 6, 52, 0
6, 75552, Note_off_c, 6, 45, 0
6, 75552, Note_off_c, 6, 61, 0
6, 75552, Note_off_c, 6, 57, 0
6, 75552, Note_on_c, 6, 57, 96
6, 75552, Note_on_c, 6, 61, 96
6, 75561, Note_on_c, 6, 52, 96
6, 75571, Note_on_c, 6, 64, 96
6, 75648, Note_off_c, 6, 64, 0
6, 75648, Note_off_c, 6, 52, 0
6, 75648, Note_off_c, 6, 61, 0
6, 75648, Note_off_c, 6, 57, 0
6, 75648, Note_on_c, 6, 64, 96
6, 75648, Note_on_c, 6, 61, 96
6, 75648, Note_on_c, 6, 57, 96
6, 75648, Note_on_c, 6, 52, 96
6, 75648, Note_on_c, 6, 45, 96
6, 75744, Note_off_c, 6, 45, 0
6, 75744, Note_off_c, 6, 52, 0
6, 75744, Note_off_c, 6, 57, 0
6, 75744, Note_off_c, 6, 61, 0
6, 75744, Note_off_c, 6, 64, 0
6, 75840, Note_on_c, 6, 45, 96
6, 75840, Note_on_c, 6, 52, 96
6, 75840, Note_on_c, 6, 57, 96
6, 75840, Note_on_c, 6, 61, 96
6, 75840, Note_on_c, 6, 64, 96
6, 76128, Note_off_c, 6, 64, 0
6, 76128, Note_off_c, 6, 61, 0
6, 76128, Note_off_c, 6, 57, 0
6, 76128, Note_off_c, 6, 52, 0
6, 76128, Note_off_c, 6, 45, 0
6, 76128, Note_on_c, 6, 52, 96
6, 76128, Note_on_c, 6, 57, 96
6, 76128, Note_on_c, 6, 61, 96
6, 76128, Note_on_c, 6, 64, 96
6, 76224, Note_off_c, 6, 64, 0
6, 76224, Note_off_c, 6, 61, 0
6, 76224, Note_off_c, 6, 57, 0
6, 76224, Note_off_c, 6, 52, 0
6, 76224, Note_on_c, 6, 64, 96
6, 76224, Note_on_c, 6, 61, 96
6, 76224, Note_on_c, 6, 57, 96
6, 76224, Note_on_c, 6, 52, 96
6, 76224, Note_on_c, 6, 45, 96
6, 76416, Note_on_c, 6, 45, 96
6, 76416, Note_on_c, 6, 57, 96
6, 76416, Note_on_c, 6, 61, 96
6, 76425, Note_on_c, 6, 52, 96
6, 76435, Note_on_c, 6, 64, 96
6, 76512, Note_off_c, 6, 45, 0
6, 76512, Note_off_c, 6, 52, 0
6, 76512, Note_off_c, 6, 57, 0
6, 76512, Note_off_c, 6, 61, 0
6, 76512, Note_off_c, 6, 64, 0
6, 76608, Note_off_c, 6, 64, 0
6, 76608, Note_off_c, 6, 52, 0
6, 76608, Note_off_c, 6, 61, 0
6, 76608, Note_off_c, 6, 57, 0
6, 76608, Note_off_c, 6, 45, 0
6, 76608, Note_on_c, 6, 57, 96
6, 76608, Note_on_c, 6, 61, 96
6, 76608, Note_on_c, 6, 45, 96
6, 76617, Note_on_c, 6, 52, 96
6, 76627, Note_on_c, 6, 64, 96
6, 76704, Note_off_c, 6, 64, 0
6, 76704, Note_off_c, 6, 52, 0
6, 76704, Note_off_c, 6, 45, 0
6, 76704, Note_off_c, 6, 61, 0
6, 76704, Note_off_c, 6, 57, 0
6, 76704, Note_on_c, 6, 57, 81
6, 76704, Note_on_c, 6, 61, 81
6, 76704, Note_on_c, 6, 64, 81
6, 76716, Note_on_c, 6, 52, 81
6, 76800, Note_off_c, 6, 52, 0
6, 76800, Note_off_c, 6, 64, 0
6, 76800, Note_off_c, 6, 61, 0
6, 76800, Note_off_c, 6, 57, 0
6, 76800, Note_on_c, 6, 40, 96
6, 76806, Note_on_c, 6, 47, 96
6, 76809, Note_on_c, 6, 52, 96
6, 76812, Note_on_c, 6, 56, 96
6, 76816, Note_on_c, 6, 59, 96
6, 76819, Note_on_c, 6, 64, 96
6, 77088, Note_off_c, 6, 64, 0
6, 77088, Note_off_c, 6, 59, 0
6, 77088, Note_off_c, 6, 56, 0
6, 77088, Note_off_c, 6, 52, 0
6, 77088, Note_off_c, 6, 47, 0
6, 77088, Note_off_c, 6, 40, 0
6, 77094, Note_on_c, 6, 47, 96
6, 77097, Note_on_c, 6, 52, 96
6, 77100, Note_on_c, 6, 56, 96
6, 77104, Note_on_c, 6, 59, 96
6, 77107, Note_on_c, 6, 64, 96
6, 77184, Note_off_c, 6, 64, 0
6, 77184, Note_off_c, 6, 59, 0
6, 77184, Note_off_c, 6, 56, 0
6, 77184, Note_off_c, 6, 52, 0
6, 77184, Note_off_c, 6, 47, 0
6, 77184, Note_on_c, 6, 64, 96
6, 77184, Note_on_c, 6, 59, 96
6, 77184, Note_on_c, 6, 56, 96
6, 77184, Note_on_c, 6, 52, 96
6, 77184, Note_on_c, 6, 47, 96
6, 77184, Note_on_c, 6, 40, 96
6, 77280, Note_off_c, 6, 40, 0
6, 77280, Note_off_c, 6, 47, 0
6, 77280, Note_off_c, 6, 52, 0
6, 77280, Note_off_c, 6, 56, 0
6, 77280, Note_off_c, 6, 59, 0
6, 77280, Note_off_c, 6, 64, 0
6, 77376, Note_on_c, 6, 40, 96
6, 77376, Note_on_c, 6, 47, 96
6, 77376, Note_on_c, 6, 52, 96
6, 77376, Note_on_c, 6, 56, 96
6, 77376, Note_on_c, 6, 59, 96
6, 77376, Note_on_c, 6, 64, 96
6, 77664, Note_off_c, 6, 64, 0
6, 77664, Note_off_c, 6, 59, 0
6, 77664, Note_off_c, 6, 56, 0
6, 77664, Note_off_c, 6, 52, 0
6, 77664, Note_off_c, 6, 47, 0
6, 77664, Note_off_c, 6, 40, 0
6, 77664, Note_on_c, 6, 47, 96
6, 77664, Note_on_c, 6, 52, 96
6, 77664, Note_on_c, 6, 56, 96
6, 77664, Note_on_c, 6, 59, 96
6, 77664, Note_on_c, 6, 64, 96
6, 77760, Note_off_c, 6, 64, 0
6, 77760, Note_off_c, 6, 59, 0
6, 77760, Note_off_c, 6, 56, 0
6, 77760, Note_off_c, 6, 52, 0
6, 77760, Note_off_c, 6, 47, 0
6, 77760, Note_on_c, 6, 64, 96
6, 77760, Note_on_c, 6, 59, 96
6, 77760, Note_on_c, 6, 56, 96
6, 77760, Note_on_c, 6, 52, 96
6, 77760, Note_on_c, 6, 47, 96
6, 77760, Note_on_c, 6, 40, 96
6, 77952, Note_on_c, 6, 40, 96
6, 77958, Note_on_c, 6, 47, 96
6, 77961, Note_on_c, 6, 52, 96
6, 77964, Note_on_c, 6, 56, 96
6, 77968, Note_on_c, 6, 59, 96
6, 77971, Note_on_c, 6, 64, 96
6, 78048, Note_off_c, 6, 40, 0
6, 78048, Note_off_c, 6, 47, 0
6, 78048, Note_off_c, 6, 52, 0
6, 78048, Note_off_c, 6, 56, 0
6, 78048, Note_off_c, 6, 59, 0
6, 78048, Note_off_c, 6, 64, 0
6, 78144, Note_off_c, 6, 64, 0
6, 78144, Note_off_c, 6, 59, 0
6, 78144, Note_off_c, 6, 56, 0
6, 78144, Note_off_c, 6, 52, 0
6, 78144, Note_off_c, 6, 47, 0
6, 78144, Note_off_c, 6, 40, 0
6, 78144, Note_on_c, 6, 40, 96
6, 78150, Note_on_c, 6, 47, 96
6, 78153, Note_on_c, 6, 52, 96
6, 78156, Note_on_c, 6, 56, 96
6, 78160, Note_on_c, 6, 59, 96
6, 78163, Note_on_c, 6, 64, 96
6, 78240, Note_off_c, 6, 64, 0
6, 78240, Note_off_c, 6, 59, 0
6, 78240, Note_off_c, 6, 56, 0
6, 78240, Note_off_c, 6, 52, 0
6, 78240, Note_off_c, 6, 47, 0
6, 78240, Note_off_c, 6, 40, 0
6, 78240, Note_on_c, 6, 64, 81
6, 78246, Note_on_c, 6, 59, 81
6, 78249, Note_on_c, 6, 56, 81
6, 78252, Note_on_c, 6, 52, 81
6, 78256, Note_on_c, 6, 47, 96
6, 78336, Note_off_c, 6, 47, 0
6, 78336, Note_off_c, 6, 52, 0
6, 78336, Note_off_c, 6, 56, 0
6, 78336, Note_off_c, 6, 59, 0
6, 78336, Note_off_c, 6, 64, 0
6, 78336, Note_on_c, 6, 57, 96
6, 78336, Note_on_c, 6, 61, 96
6, 78336, Note_on_c, 6, 45, 96
6, 78345, Note_on_c, 6, 52, 96
6, 78355, Note_on_c, 6, 64, 96
6, 78624, Note_off_c, 6, 64, 0
6, 78624, Note_off_c, 6, 52, 0
6, 78624, Note_off_c, 6, 45, 0
6, 78624, Note_off_c, 6, 61, 0
6, 78624, Note_off_c, 6, 57, 0
6, 78624, Note_on_c, 6, 57, 96
6, 78624, Note_on_c, 6, 61, 96
6, 78633, Note_on_c, 6, 52, 96
6, 78643, Note_on_c, 6, 64, 96
6, 78720, Note_off_c, 6, 64, 0
6, 78720, Note_off_c, 6, 52, 0
6, 78720, Note_off_c, 6, 61, 0
6, 78720, Note_off_c, 6, 57, 0
6, 78720, Note_on_c, 6, 64, 96
6, 78720, Note_on_c, 6, 61, 96
6, 78720, Note_on_c, 6, 57, 96
6, 78720, Note_on_c, 6, 52, 96
6, 78720, Note_on_c, 6, 45, 96
6, 78816, Note_off_c, 6, 45, 0
6, 78816, Note_off_c, 6, 52, 0
6, 78816, Note_off_c, 6, 57, 0
6, 78816, Note_off_c, 6, 61, 0
6, 78816, Note_off_c, 6, 64, 0
6, 78912, Note_on_c, 6, 45, 96
6, 78912, Note_on_c, 6, 52, 96
6, 78912, Note_on_c, 6, 57, 96
6, 78912, Note_on_c, 6, 61, 96
6, 78912, Note_on_c, 6, 64, 96
6, 79200, Note_off_c, 6, 64, 0
6, 79200, Note_off_c, 6, 61, 0
6, 79200, Note_off_c, 6, 57, 0
6, 79200, Note_off_c, 6, 52, 0
6, 79200, Note_off_c, 6, 45, 0
6, 79200, Note_on_c, 6, 52, 96
6, 79200, Note_on_c, 6, 57, 96
6, 79200, Note_on_c, 6, 61, 96
6, 79200, Note_on_c, 6, 64, 96
6, 79296, Note_off_c, 6, 64, 0
6, 79296, Note_off_c, 6, 61, 0
6, 79296, Note_off_c, 6, 57, 0
6, 79296, Note_off_c, 6, 52, 0
6, 79296, Note_on_c, 6, 64, 96
6, 79296, Note_on_c, 6, 61, 96
6, 79296, Note_on_c, 6, 57, 96
6, 79296, Note_on_c, 6, 52, 96
6, 79296, Note_on_c, 6, 45, 96
6, 79488, Note_on_c, 6, 45, 96
6, 79488, Note_on_c, 6, 57, 96
6, 79488, Note_on_c, 6, 61, 96
6, 79497, Note_on_c, 6, 52, 96
6, 79507, Note_on_c, 6, 64, 96
6, 79584, Note_off_c, 6, 45, 0
6, 79584, Note_off_c, 6, 52, 0
6, 79584, Note_off_c, 6, 57, 0
6, 79584, Note_off_c, 6, 61, 0
6, 79584, Note_off_c, 6, 64, 0
6, 79680, Note_off_c, 6, 64, 0
6, 79680, Note_off_c, 6, 52, 0
6, 79680, Note_off_c, 6, 61, 0
6, 79680, Note_off_c, 6, 57, 0
6, 79680, Note_off_c, 6, 45, 0
6, 79680, Note_on_c, 6, 57, 96
6, 79680, Note_on_c, 6, 61, 96
6, 79680, Note_on_c, 6, 45, 96
6, 79689, Note_on_c, 6, 52, 96
6, 79699, Note_on_c, 6, 64, 96
6, 79776, Note_off_c, 6, 64, 0
6, 79776, Note_off_c, 6, 52, 0
6, 79776, Note_off_c, 6, 45, 0
6, 79776, Note_off_c, 6, 61, 0
6, 79776, Note_off_c, 6, 57, 0
6, 79776, Note_on_c, 6, 57, 81
6, 79776, Note_on_c, 6, 61, 81
6, 79776, Note_on_c, 6, 64, 81
6, 79788, Note_on_c, 6, 52, 81
6, 79872, Note_off_c, 6, 52, 0
6, 79872, Note_off_c, 6, 64, 0
6, 79872, Note_off_c, 6, 61, 0
6, 79872, Note_off_c, 6, 57, 0
6, 79872, Note_on_c, 6, 40, 96
6, 79878, Note_on_c, 6, 47, 96
6, 79881, Note_on_c, 6, 52, 96
6, 79884, Note_on_c, 6, 56, 96
6, 79888, Note_on_c, 6, 59, 96
6, 79891, Note_on_c, 6, 64, 96
6, 80160, Note_off_c, 6, 64, 0
6, 80160, Note_off_c, 6, 59, 0
6, 80160, Note_off_c, 6, 56, 0
6, 80160, Note_off_c, 6, 52, 0
6, 80160, Note_off_c, 6, 47, 0
6, 80160, Note_off_c, 6, 40, 0
6, 80166, Note_on_c, 6, 47, 96
6, 80169, Note_on_c, 6, 52, 96
6, 80172, Note_on_c, 6, 56, 96
6, 80176, Note_on_c, 6, 59, 96
6, 80179, Note_on_c, 6, 64, 96
6, 80256, Note_off_c, 6, 64, 0
6, 80256, Note_off_c, 6, 59, 0
6, 80256, Note_off_c, 6, 56, 0
6, 80256, Note_off_c, 6, 52, 0
6, 80256, Note_off_c, 6, 47, 0
6, 80256, Note_on_c, 6, 64, 96
6, 80256, Note_on_c, 6, 59, 96
6, 80256, Note_on_c, 6, 56, 96
6, 80256, Note_on_c, 6, 52, 96
6, 80256, Note_on_c, 6, 47, 96
6, 80256, Note_on_c, 6, 40, 96
6, 80352, Note_off_c, 6, 40, 0
6, 80352, Note_off_c, 6, 47, 0
6, 80352, Note_off_c, 6, 52, 0
6, 80352, Note_off_c, 6, 56, 0
6, 80352, Note_off_c, 6, 59, 0
6, 80352, Note_off_c, 6, 64, 0
6, 80448, Note_on_c, 6, 40, 96
6, 80448, Note_on_c, 6, 47, 96
6, 80448, Note_on_c, 6, 52, 96
6, 80448, Note_on_c, 6, 56, 96
6, 80448, Note_on_c, 6, 59, 96
6, 80448, Note_on_c, 6, 64, 96
6, 80736, Note_off_c, 6, 64, 0
6, 80736, Note_off_c, 6, 59, 0
6, 80736, Note_off_c, 6, 56, 0
6, 80736, Note_off_c, 6, 52, 0
6, 80736, Note_off_c, 6, 47, 0
6, 80736, Note_off_c, 6, 40, 0
6, 80736, Note_on_c, 6, 47, 96
6, 80736, Note_on_c, 6, 52, 96
6, 80736, Note_on_c, 6, 56, 96
6, 80736, Note_on_c, 6, 59, 96
6, 80736, Note_on_c, 6, 64, 96
6, 80832, Note_off_c, 6, 64, 0
6, 80832, Note_off_c, 6, 59, 0
6, 80832, Note_off_c, 6, 56, 0
6, 80832, Note_off_c, 6, 52, 0
6, 80832, Note_off_c, 6, 47, 0
6, 80832, Note_on_c, 6, 64, 96
6, 80832, Note_on_c, 6, 59, 96
6, 80832, Note_on_c, 6, 56, 96
6, 80832, Note_on_c, 6, 52, 96
6, 80832, Note_on_c, 6, 47, 96
6, 80832, Note_on_c, 6, 40, 96
6, 81024, Note_on_c, 6, 40, 96
6, 81030, Note_on_c, 6, 47, 96
6, 81033, Note_on_c, 6, 52, 96
6, 81036, Note_on_c, 6, 56, 96
6, 81040, Note_on_c, 6, 59, 96
6, 81043, Note_on_c, 6, 64, 96
6, 81120, Note_off_c, 6, 40, 0
6, 81120, Note_off_c, 6, 47, 0
6, 81120, Note_off_c, 6, 52, 0
6, 81120, Note_off_c, 6, 56, 0
6, 81120, Note_off_c, 6, 59, 0
6, 81120, Note_off_c, 6, 64, 0
6, 81216, Note_off_c, 6, 64, 0
6, 81216, Note_off_c, 6, 59, 0
6, 81216, Note_off_c, 6, 56, 0
6, 81216, Note_off_c, 6, 52, 0
6, 81216, Note_off_c, 6, 47, 0
6, 81216, Note_off_c, 6, 40, 0
6, 81216, Note_on_c, 6, 40, 96
6, 81222, Note_on_c, 6, 47, 96
6, 81225, Note_on_c, 6, 52, 96
6, 81228, Note_on_c, 6, 56, 96
6, 81232, Note_on_c, 6, 59, 96
6, 81235, Note_on_c, 6, 64, 96
6, 81312, Note_off_c, 6, 64, 0
6, 81312, Note_off_c, 6, 59, 0
6, 81312, Note_off_c, 6, 56, 0
6, 81312, Note_off_c, 6, 52, 0
6, 81312, Note_off_c, 6, 47, 0
6, 81312, Note_off_c, 6, 40, 0
6, 81312, Note_on_c, 6, 64, 81
6, 81318, Note_on_c, 6, 59, 81
6, 81321, Note_on_c, 6, 56, 81
6, 81324, Note_on_c, 6, 52, 81
6, 81328, Note_on_c, 6, 47, 96
6, 81408, Note_off_c, 6, 47, 0
6, 81408, Note_off_c, 6, 52, 0
6, 81408, Note_off_c, 6, 56, 0
6, 81408, Note_off_c, 6, 59, 0
6, 81408, Note_off_c, 6, 64, 0
6, 81408, Note_on_c, 6, 57, 96
6, 81408, Note_on_c, 6, 61, 96
6, 81408, Note_on_c, 6, 45, 96
6, 81417, Note_on_c, 6, 52, 96
6, 81427, Note_on_c, 6, 64, 96
6, 81696, Note_off_c, 6, 64, 0
6, 81696, Note_off_c, 6, 52, 0
6, 81696, Note_off_c, 6, 45, 0
6, 81696, Note_off_c, 6, 61, 0
6, 81696, Note_off_c, 6, 57, 0
6, 81696, Note_on_c, 6, 57, 96
6, 81696, Note_on_c, 6, 61, 96
6, 81705, Note_on_c, 6, 52, 96
6, 81715, Note_on_c, 6, 64, 96
6, 81792, Note_off_c, 6, 64, 0
6, 81792, Note_off_c, 6, 52, 0
6, 81792, Note_off_c, 6, 61, 0
6, 81792, Note_off_c, 6, 57, 0
6, 81792, Note_on_c, 6, 64, 96
6, 81792, Note_on_c, 6, 61, 96
6, 81792, Note_on_c, 6, 57, 96
6, 81792, Note_on_c, 6, 52, 96
6, 81792, Note_on_c, 6, 45, 96
6, 81888, Note_off_c, 6, 45, 0
6, 81888, Note_off_c, 6, 52, 0
6, 81888, Note_off_c, 6, 57, 0
6, 81888, Note_off_c, 6, 61, 0
6, 81888, Note_off_c, 6, 64, 0
6, 81984, Note_on_c, 6, 45, 96
6, 81984, Note_on_c, 6, 52, 96
6, 81984, Note_on_c, 6, 57, 96
6, 81984, Note_on_c, 6, 61, 96
6, 81984, Note_on_c, 6, 64, 96
6, 82272, Note_off_c, 6, 64, 0
6, 82272, Note_off_c, 6, 61, 0
6, 82272, Note_off_c, 6, 57, 0
6, 82272, Note_off_c, 6, 52, 0
6, 82272, Note_off_c, 6, 45, 0
6, 82272, Note_on_c, 6, 52, 96
6, 82272, Note_on_c, 6, 57, 96
6, 82272, Note_on_c, 6, 61, 96
6, 82272, Note_on_c, 6, 64, 96
6, 82368, Note_off_c, 6, 64, 0
6, 82368, Note_off_c, 6, 61, 0
6, 82368, Note_off_c, 6, 57, 0
6, 82368, Note_off_c, 6, 52, 0
6, 82368, Note_on_c, 6, 64, 96
6, 82368, Note_on_c, 6, 61, 96
6, 82368, Note_on_c, 6, 57, 96
6, 82368, Note_on_c, 6, 52, 96
6, 82368, Note_on_c, 6, 45, 96
6, 82560, Note_on_c, 6, 45, 96
6, 82560, Note_on_c, 6, 57, 96
6, 82560, Note_on_c, 6, 61, 96
6, 82569, Note_on_c, 6, 52, 96
6, 82579, Note_on_c, 6, 64, 96
6, 82656, Note_off_c, 6, 45, 0
6, 82656, Note_off_c, 6, 52, 0
6, 82656, Note_off_c, 6, 57, 0
6, 82656, Note_off_c, 6, 61, 0
6, 82656, Note_off_c, 6, 64, 0
6, 82752, Note_off_c, 6, 64, 0
6, 82752, Note_off_c, 6, 52, 0
6, 82752, Note_off_c, 6, 61, 0
6, 82752, Note_off_c, 6, 57, 0
6, 82752, Note_off_c, 6, 45, 0
6, 82752, Note_on_c, 6, 57, 96
6, 82752, Note_on_c, 6, 61, 96
6, 82752, Note_on_c, 6, 45, 96
6, 82761, Note_on_c, 6, 52, 96
6, 82771, Note_on_c, 6, 64, 96
6, 82848, Note_off_c, 6, 64, 0
6, 82848, Note_off_c, 6, 52, 0
6, 82848, Note_off_c, 6, 45, 0
6, 82848, Note_off_c, 6, 61, 0
6, 82848, Note_off_c, 6, 57, 0
6, 82848, Note_on_c, 6, 57, 81
6, 82848, Note_on_c, 6, 61, 81
6, 82848, Note_on_c, 6, 64, 81
6, 82860, Note_on_c, 6, 52, 81
6, 82944, Note_off_c, 6, 52, 0
6, 82944, Note_off_c, 6, 64, 0
6, 82944, Note_off_c, 6, 61, 0
6, 82944, Note_off_c, 6, 57, 0
6, 82944, Note_on_c, 6, 40, 96
6, 82950, Note_on_c, 6, 47, 96
6, 82953, Note_on_c, 6, 52, 96
6, 82956, Note_on_c, 6, 56, 96
6, 82960, Note_on_c, 6, 59, 96
6, 82963, Note_on_c, 6, 64, 96
6, 83232, Note_off_c, 6, 64, 0
6, 83232, Note_off_c, 6, 59, 0
6, 83232, Note_off_c, 6, 56, 0
6, 83232, Note_off_c, 6, 52, 0
6, 83232, Note_off_c, 6, 47, 0
6, 83232, Note_off_c, 6, 40, 0
6, 83238, Note_on_c, 6, 47, 96
6, 83241, Note_on_c, 6, 52, 96
6, 83244, Note_on_c, 6, 56, 96
6, 83248, Note_on_c, 6, 59, 96
6, 83251, Note_on_c, 6, 64, 96
6, 83328, Note_off_c, 6, 64, 0
6, 83328, Note_off_c, 6, 59, 0
6, 83328, Note_off_c, 6, 56, 0
6, 83328, Note_off_c, 6, 52, 0
6, 83328, Note_off_c, 6, 47, 0
6, 83328, Note_on_c, 6, 64, 96
6, 83328, Note_on_c, 6, 59, 96
6, 83328, Note_on_c, 6, 56, 96
6, 83328, Note_on_c, 6, 52, 96
6, 83328, Note_on_c, 6, 47, 96
6, 83328, Note_on_c, 6, 40, 96
6, 83424, Note_off_c, 6, 40, 0
6, 83424, Note_off_c, 6, 47, 0
6, 83424, Note_off_c, 6, 52, 0
6, 83424, Note_off_c, 6, 56, 0
6, 83424, Note_off_c, 6, 59, 0
6, 83424, Note_off_c, 6, 64, 0
6, 83520, Note_on_c, 6, 40, 96
6, 83520, Note_on_c, 6, 47, 96
6, 83520, Note_on_c, 6, 52, 96
6, 83520, Note_on_c, 6, 56, 96
6, 83520, Note_on_c, 6, 59, 96
6, 83520, Note_on_c, 6, 64, 96
6, 83808, Note_off_c, 6, 64, 0
6, 83808, Note_off_c, 6, 59, 0
6, 83808, Note_off_c, 6, 56, 0
6, 83808, Note_off_c, 6, 52, 0
6, 83808, Note_off_c, 6, 47, 0
6, 83808, Note_off_c, 6, 40, 0
6, 83808, Note_on_c, 6, 47, 96
6, 83808, Note_on_c, 6, 52, 96
6, 83808, Note_on_c, 6, 56, 96
6, 83808, Note_on_c, 6, 59, 96
6, 83808, Note_on_c, 6, 64, 96
6, 83904, Note_off_c, 6, 64, 0
6, 83904, Note_off_c, 6, 59, 0
6, 83904, Note_off_c, 6, 56, 0
6, 83904, Note_off_c, 6, 52, 0
6, 83904, Note_off_c, 6, 47, 0
6, 83904, Note_on_c, 6, 64, 96
6, 83904, Note_on_c, 6, 59, 96
6, 83904, Note_on_c, 6, 56, 96
6, 83904, Note_on_c, 6, 52, 96
6, 83904, Note_on_c, 6, 47, 96
6, 83904, Note_on_c, 6, 40, 96
6, 84096, Note_on_c, 6, 40, 96
6, 84102, Note_on_c, 6, 47, 96
6, 84105, Note_on_c, 6, 52, 96
6, 84108, Note_on_c, 6, 56, 96
6, 84112, Note_on_c, 6, 59, 96
6, 84115, Note_on_c, 6, 64, 96
6, 84192, Note_off_c, 6, 40, 0
6, 84192, Note_off_c, 6, 47, 0
6, 84192, Note_off_c, 6, 52, 0
6, 84192, Note_off_c, 6, 56, 0
6, 84192, Note_off_c, 6, 59, 0
6, 84192, Note_off_c, 6, 64, 0
6, 84288, Note_off_c, 6, 64, 0
6, 84288, Note_off_c, 6, 59, 0
6, 84288, Note_off_c, 6, 56, 0
6, 84288, Note_off_c, 6, 52, 0
6, 84288, Note_off_c, 6, 47, 0
6, 84288, Note_off_c, 6, 40, 0
6, 84288, Note_on_c, 6, 40, 96
6, 84294, Note_on_c, 6, 47, 96
6, 84297, Note_on_c, 6, 52, 96
6, 84300, Note_on_c, 6, 56, 96
6, 84304, Note_on_c, 6, 59, 96
6, 84307, Note_on_c, 6, 64, 96
6, 84384, Note_off_c, 6, 64, 0
6, 84384, Note_off_c, 6, 59, 0
6, 84384, Note_off_c, 6, 56, 0
6, 84384, Note_off_c, 6, 52, 0
6, 84384, Note_off_c, 6, 47, 0
6, 84384, Note_off_c, 6, 40, 0
6, 84384, Note_on_c, 6, 64, 81
6, 84390, Note_on_c, 6, 59, 81
6, 84393, Note_on_c, 6, 56, 81
6, 84396, Note_on_c, 6, 52, 81
6, 84400, Note_on_c, 6, 47, 96
6, 84480, Note_off_c, 6, 47, 0
6, 84480, Note_off_c, 6, 52, 0
6, 84480, Note_off_c, 6, 56, 0
6, 84480, Note_off_c, 6, 59, 0
6, 84480, Note_off_c, 6, 64, 0
6, 84480, Note_on_c, 6, 57, 96
6, 84480, Note_on_c, 6, 61, 96
6, 84480, Note_on_c, 6, 45, 96
6, 84489, Note_on_c, 6, 52, 96
6, 84499, Note_on_c, 6, 64, 96
6, 84768, Note_off_c, 6, 64, 0
6, 84768, Note_off_c, 6, 52, 0
6, 84768, Note_off_c, 6, 45, 0
6, 84768, Note_off_c, 6, 61, 0
6, 84768, Note_off_c, 6, 57, 0
6, 84768, Note_on_c, 6, 57, 96
6, 84768, Note_on_c, 6, 61, 96
6, 84777, Note_on_c, 6, 52, 96
6, 84787, Note_on_c, 6, 64, 96
6, 84864, Note_off_c, 6, 64, 0
6, 84864, Note_off_c, 6, 52, 0
6, 84864, Note_off_c, 6, 61, 0
6, 84864, Note_off_c, 6, 57, 0
6, 84864, Note_on_c, 6, 64, 96
6, 84864, Note_on_c, 6, 61, 96
6, 84864, Note_on_c, 6, 57, 96
6, 84864, Note_on_c, 6, 52, 96
6, 84864, Note_on_c, 6, 45, 96
6, 84960, Note_off_c, 6, 45, 0
6, 84960, Note_off_c, 6, 52, 0
6, 84960, Note_off_c, 6, 57, 0
6, 84960, Note_off_c, 6, 61, 0
6, 84960, Note_off_c, 6, 64, 0
6, 85056, Note_on_c, 6, 45, 96
6, 85056, Note_on_c, 6, 52, 96
6, 85056, Note_on_c, 6, 57, 96
6, 85056, Note_on_c, 6, 61, 96
6, 85056, Note_on_c, 6, 64, 96
6, 85344, Note_off_c, 6, 64, 0
6, 85344, Note_off_c, 6, 61, 0
6, 85344, Note_off_c, 6, 57, 0
6, 85344, Note_off_c, 6, 52, 0
6, 85344, Note_off_c, 6, 45, 0
6, 85344, Note_on_c, 6, 52, 96
6, 85344, Note_on_c, 6, 57, 96
6, 85344, Note_on_c, 6, 61, 96
6, 85344, Note_on_c, 6, 64, 96
6, 85440, Note_off_c, 6, 64, 0
6, 85440, Note_off_c, 6, 61, 0
6, 85440, Note_off_c, 6, 57, 0
6, 85440, Note_off_c, 6, 52, 0
6, 85440, Note_on_c, 6, 64, 96
6, 85440, Note_on_c, 6, 61, 96
6, 85440, Note_on_c, 6, 57, 96
6, 85440, Note_on_c, 6, 52, 96
6, 85440, Note_on_c, 6, 45, 96
6, 85632, Note_on_c, 6, 45, 96
6, 85632, Note_on_c, 6, 57, 96
6, 85632, Note_on_c, 6, 61, 96
6, 85641, Note_on_c, 6, 52, 96
6, 85651, Note_on_c, 6, 64, 96
6, 85728, Note_off_c, 6, 45, 0
6, 85728, Note_off_c, 6, 52, 0
6, 85728, Note_off_c, 6, 57, 0
6, 85728, Note_off_c, 6, 61, 0
6, 85728, Note_off_c, 6, 64, 0
6, 85824, Note_off_c, 6, 64, 0
6, 85824, Note_off_c, 6, 52, 0
6, 85824, Note_off_c, 6, 61, 0
6, 85824, Note_off_c, 6, 57, 0
6, 85824, Note_off_c, 6, 45, 0
6, 85824, Note_on_c, 6, 57, 96
6, 85824, Note_on_c, 6, 61, 96
6, 85824, Note_on_c, 6, 45, 96
6, 85833, Note_on_c, 6, 52, 96
6, 85843, Note_on_c, 6, 64, 96
6, 85920, Note_off_c, 6, 64, 0
6, 85920, Note_off_c, 6, 52, 0
6, 85920, Note_off_c, 6, 45, 0
6, 85920, Note_off_c, 6, 61, 0
6, 85920, Note_off_c, 6, 57, 0
6, 85920, Note_on_c, 6, 57, 81
6, 85920, Note_on_c, 6, 61, 81
6, 85920, Note_on_c, 6, 64, 81
6, 85932, Note_on_c, 6, 52, 81
6, 86016, Note_off_c, 6, 52, 0
6, 86016, Note_off_c, 6, 64, 0
6, 86016, Note_off_c, 6, 61, 0
6, 86016, Note_off_c, 6, 57, 0
6, 86016, Note_on_c, 6, 40, 96
6, 86022, Note_on_c, 6, 47, 96
6, 86025, Note_on_c, 6, 52, 96
6, 86028, Note_on_c, 6, 56, 96
6, 86032, Note_on_c, 6, 59, 96
6, 86035, Note_on_c, 6, 64, 96
6, 86304, Note_off_c, 6, 64, 0
6, 86304, Note_off_c, 6, 59, 0
6, 86304, Note_off_c, 6, 56, 0
6, 86304, Note_off_c, 6, 52, 0
6, 86304, Note_off_c, 6, 47, 0
6, 86304, Note_off_c, 6, 40, 0
6, 86310, Note_on_c, 6, 47, 96
6, 86313, Note_on_c, 6, 52, 96
6, 86316, Note_on_c, 6, 56, 96
6, 86320, Note_on_c, 6, 59, 96
6, 86323, Note_on_c, 6, 64, 96
6, 86400, Note_off_c, 6, 64, 0
6, 86400, Note_off_c, 6, 59, 0
6, 86400, Note_off_c, 6, 56, 0
6, 86400, Note_off_c, 6, 52, 0
6, 86400, Note_off_c, 6, 47, 0
6, 86400, Note_on_c, 6, 64, 96
6, 86400, Note_on_c, 6, 59, 96
6, 86400, Note_on_c, 6, 56, 96
6, 86400, Note_on_c, 6, 52, 96
6, 86400, Note_on_c, 6, 47, 96
6, 86400, Note_on_c, 6, 40, 96
6, 86496, Note_off_c, 6, 40, 0
6, 86496, Note_off_c, 6, 47, 0
6, 86496, Note_off_c, 6, 52, 0
6, 86496, Note_off_c, 6, 56, 0
6, 86496, Note_off_c, 6, 59, 0
6, 86496, Note_off_c, 6, 64, 0
6, 86592, Note_on_c, 6, 40, 96
6, 86592, Note_on_c, 6, 47, 96
6, 86592, Note_on_c, 6, 52, 96
6, 86592, Note_on_c, 6, 56, 96
6, 86592, Note_on_c, 6, 59, 96
6, 86592, Note_on_c, 6, 64, 96
6, 86880, Note_off_c, 6, 64, 0
6, 86880, Note_off_c, 6, 59, 0
6, 86880, Note_off_c, 6, 56, 0
6, 86880, Note_off_c, 6, 52, 0
6, 86880, Note_off_c, 6, 47, 0
6, 86880, Note_off_c, 6, 40, 0
6, 86880, Note_on_c, 6, 47, 96
6, 86880, Note_on_c, 6, 52, 96
6, 86880, Note_on_c, 6, 56, 96
6, 86880, Note_on_c, 6, 59, 96
6, 86880, Note_on_c, 6, 64, 96
6, 86976, Note_off_c, 6, 64, 0
6, 86976, Note_off_c, 6, 59, 0
6, 86976, Note_off_c, 6, 56, 0
6, 86976, Note_off_c, 6, 52, 0
6, 86976, Note_off_c, 6, 47, 0
6, 86976, Note_on_c, 6, 64, 96
6, 86976, Note_on_c, 6, 59, 96
6, 86976, Note_on_c, 6, 56, 96
6, 86976, Note_on_c, 6, 52, 96
6, 86976, Note_on_c, 6, 47, 96
6, 86976, Note_on_c, 6, 40, 96
6, 87168, Note_on_c, 6, 40, 96
6, 87174, Note_on_c, 6, 47, 96
6, 87177, Note_on_c, 6, 52, 96
6, 87180, Note_on_c, 6, 56, 96
6, 87184, Note_on_c, 6, 59, 96
6, 87187, Note_on_c, 6, 64, 96
6, 87264, Note_off_c, 6, 40, 0
6, 87264, Note_off_c, 6, 47, 0
6, 87264, Note_off_c, 6, 52, 0
6, 87264, Note_off_c, 6, 56, 0
6, 87264, Note_off_c, 6, 59, 0
6, 87264, Note_off_c, 6, 64, 0
6, 87360, Note_off_c, 6, 64, 0
6, 87360, Note_off_c, 6, 59, 0
6, 87360, Note_off_c, 6, 56, 0
6, 87360, Note_off_c, 6, 52, 0
6, 87360, Note_off_c, 6, 47, 0
6, 87360, Note_off_c, 6, 40, 0
6, 87360, Note_on_c, 6, 40, 96
6, 87366, Note_on_c, 6, 47, 96
6, 87369, Note_on_c, 6, 52, 96
6, 87372, Note_on_c, 6, 56, 96
6, 87376, Note_on_c, 6, 59, 96
6, 87379, Note_on_c, 6, 64, 96
6, 87456, Note_off_c, 6, 64, 0
6, 87456, Note_off_c, 6, 59, 0
6, 87456, Note_off_c, 6, 56, 0
6, 87456, Note_off_c, 6, 52, 0
6, 87456, Note_off_c, 6, 47, 0
6, 87456, Note_off_c, 6, 40, 0
6, 87456, Note_on_c, 6, 64, 81
6, 87462, Note_on_c, 6, 59, 81
6, 87465, Note_on_c, 6, 56, 81
6, 87468, Note_on_c, 6, 52, 81
6, 87472, Note_on_c, 6, 47, 96
6, 87552, Note_off_c, 6, 47, 0
6, 87552, Note_off_c, 6, 52, 0
6, 87552, Note_off_c, 6, 56, 0
6, 87552, Note_off_c, 6, 59, 0
6, 87552, Note_off_c, 6, 64, 0
6, 87552, Note_on_c, 6, 57, 96
6, 87552, Note_on_c, 6, 61, 96
6, 87552, Note_on_c, 6, 45, 96
6, 87561, Note_on_c, 6, 52, 96
6, 87571, Note_on_c, 6, 64, 96
6, 87840, Note_off_c, 6, 64, 0
6, 87840, Note_off_c, 6, 52, 0
6, 87840, Note_off_c, 6, 45, 0
6, 87840, Note_off_c, 6, 61, 0
6, 87840, Note_off_c, 6, 57, 0
6, 87840, Note_on_c, 6, 57, 96
6, 87840, Note_on_c, 6, 61, 96
6, 87849, Note_on_c, 6, 52, 96
6, 87859, Note_on_c, 6, 64, 96
6, 87936, Note_off_c, 6, 64, 0
6, 87936, Note_off_c, 6, 52, 0
6, 87936, Note_off_c, 6, 61, 0
6, 87936, Note_off_c, 6, 57, 0
6, 87936, Note_on_c, 6, 64, 96
6, 87936, Note_on_c, 6, 61, 96
6, 87936, Note_on_c, 6, 57, 96
6, 87936, Note_on_c, 6, 52, 96
6, 87936, Note_on_c, 6, 45, 96
6, 88032, Note_off_c, 6, 45, 0
6, 88032, Note_off_c, 6, 52, 0
6, 88032, Note_off_c, 6, 57, 0
6, 88032, Note_off_c, 6, 61, 0
6, 88032, Note_off_c, 6, 64, 0
6, 88128, Note_on_c, 6, 45, 96
6, 88128, Note_on_c, 6, 52, 96
6, 88128, Note_on_c, 6, 57, 96
6, 88128, Note_on_c, 6, 61, 96
6, 88128, Note_on_c, 6, 64, 96
6, 88416, Note_off_c, 6, 64, 0
6, 88416, Note_off_c, 6, 61, 0
6, 88416, Note_off_c, 6, 57, 0
6, 88416, Note_off_c, 6, 52, 0
6, 88416, Note_off_c, 6, 45, 0
6, 88416, Note_on_c, 6, 52, 96
6, 88416, Note_on_c, 6, 57, 96
6, 88416, Note_on_c, 6, 61, 96
6, 88416, Note_on_c, 6, 64, 96
6, 88512, Note_off_c, 6, 64, 0
6, 88512, Note_off_c, 6, 61, 0
6, 88512, Note_off_c, 6, 57, 0
6, 88512, Note_off_c, 6, 52, 0
6, 88512, Note_on_c, 6, 64, 96
6, 88512, Note_on_c, 6, 61, 96
6, 88512, Note_on_c, 6, 57, 96
6, 88512, Note_on_c, 6, 52, 96
6, 88512, Note_on_c, 6, 45, 96
6, 88704, Note_on_c, 6, 45, 96
6, 88704, Note_on_c, 6, 57, 96
6, 88704, Note_on_c, 6, 61, 96
6, 88713, Note_on_c, 6, 52, 96
6, 88723, Note_on_c, 6, 64, 96
6, 88800, Note_off_c, 6, 45, 0
6, 88800, Note_off_c, 6, 52, 0
6, 88800, Note_off_c, 6, 57, 0
6, 88800, Note_off_c, 6, 61, 0
6, 88800, Note_off_c, 6, 64, 0
6, 88896, Note_off_c, 6, 64, 0
6, 88896, Note_off_c, 6, 52, 0
6, 88896, Note_off_c, 6, 61, 0
6, 88896, Note_off_c, 6, 57, 0
6, 88896, Note_off_c, 6, 45, 0
6, 88896, Note_on_c, 6, 57, 96
6, 88896, Note_on_c, 6, 61, 96
6, 88896, Note_on_c, 6, 45, 96
6, 88905, Note_on_c, 6, 52, 96
6, 88915, Note_on_c, 6, 64, 96
6, 88992, Note_off_c, 6, 64, 0
6, 88992, Note_off_c, 6, 52, 0
6, 88992, Note_off_c, 6, 45, 0
6, 88992, Note_off_c, 6, 61, 0
6, 88992, Note_off_c, 6, 57, 0
6, 88992, Note_on_c, 6, 57, 81
6, 88992, Note_on_c, 6, 61, 81
6, 88992, Note_on_c, 6, 64, 81
6, 89004, Note_on_c, 6, 52, 81
6, 89088, Note_off_c, 6, 52, 0
6, 89088, Note_off_c, 6, 64, 0
6, 89088, Note_off_c, 6, 61, 0
6, 89088, Note_off_c, 6, 57, 0
6, 89088, Note_on_c, 6, 40, 96
6, 89094, Note_on_c, 6, 47, 96
6, 89097, Note_on_c, 6, 52, 96
6, 89100, Note_on_c, 6, 56, 96
6, 89104, Note_on_c, 6, 59, 96
6, 89107, Note_on_c, 6, 64, 96
6, 89376, Note_off_c, 6, 64, 0
6, 89376, Note_off_c, 6, 59, 0
6, 89376, Note_off_c, 6, 56, 0
6, 89376, Note_off_c, 6, 52, 0
6, 89376, Note_off_c, 6, 47, 0
6, 89376, Note_off_c, 6, 40, 0
6, 89382, Note_on_c, 6, 47, 96
6, 89385, Note_on_c, 6, 52, 96
6, 89388, Note_on_c, 6, 56, 96
6, 89392, Note_on_c, 6, 59, 96
6, 89395, Note_on_c, 6, 64, 96
6, 89472, Note_off_c, 6, 64, 0
6, 89472, Note_off_c, 6, 59, 0
6, 89472, Note_off_c, 6, 56, 0
6, 89472, Note_off_c, 6, 52, 0
6, 89472, Note_off_c, 6, 47, 0
6, 89472, Note_on_c, 6, 64, 96
6, 89472, Note_on_c, 6, 59, 96
6, 89472, Note_on_c, 6, 56, 96
6, 89472, Note_on_c, 6, 52, 96
6, 89472, Note_on_c, 6, 47, 96
6, 89472, Note_on_c, 6, 40, 96
6, 89568, Note_off_c, 6, 40, 0
6, 89568, Note_off_c, 6, 47, 0
6, 89568, Note_off_c, 6, 52, 0
6, 89568, Note_off_c, 6, 56, 0
6, 89568, Note_off_c, 6, 59, 0
6, 89568, Note_off_c, 6, 64, 0
6, 89664, Note_on_c, 6, 40, 96
6, 89664, Note_on_c, 6, 47, 96
6, 89664, Note_on_c, 6, 52, 96
6, 89664, Note_on_c, 6, 56, 96
6, 89664, Note_on_c, 6, 59, 96
6, 89664, Note_on_c, 6, 64, 96
6, 89952, Note_off_c, 6, 64, 0
6, 89952, Note_off_c, 6, 59, 0
6, 89952, Note_off_c, 6, 56, 0
6, 89952, Note_off_c, 6, 52, 0
6, 89952, Note_off_c, 6, 47, 0
6, 89952, Note_off_c, 6, 40, 0
6, 89952, Note_on_c, 6, 47, 96
6, 89952, Note_on_c, 6, 52, 96
6, 89952, Note_on_c, 6, 56, 96
6, 89952, Note_on_c, 6, 59, 96
6, 89952, Note_on_c, 6, 64, 96
6, 90048, Note_off_c, 6, 64, 0
6, 90048, Note_off_c, 6, 59, 0
6, 90048, Note_off_c, 6, 56, 0
6, 90048, Note_off_c, 6, 52, 0
6, 90048, Note_off_c, 6, 47, 0
6, 90048, Note_on_c, 6, 64, 96
6, 90048, Note_on_c, 6, 59, 96
6, 90048, Note_on_c, 6, 56, 96
6, 90048, Note_on_c, 6, 52, 96
6, 90048, Note_on_c, 6, 47, 96
6, 90048, Note_on_c, 6, 40, 96
6, 90240, Note_on_c, 6, 40, 96
6, 90246, Note_on_c, 6, 47, 96
6, 90249, Note_on_c, 6, 52, 96
6, 90252, Note_on_c, 6, 56, 96
6, 90256, Note_on_c, 6, 59, 96
6, 90259, Note_on_c, 6, 64, 96
6, 90336, Note_off_c, 6, 40, 0
6, 90336, Note_off_c, 6, 47, 0
6, 90336, Note_off_c, 6, 52, 0
6, 90336, Note_off_c, 6, 56, 0
6, 90336, Note_off_c, 6, 59, 0
6, 90336, Note_off_c, 6, 64, 0
6, 90432, Note_off_c, 6, 64, 0
6, 90432, Note_off_c, 6, 59, 0
6, 90432, Note_off_c, 6, 56, 0
6, 90432, Note_off_c, 6, 52, 0
6, 90432, Note_off_c, 6, 47, 0
6, 90432, Note_off_c, 6, 40, 0
6, 90432, Note_on_c, 6, 40, 96
6, 90438, Note_on_c, 6, 47, 96
6, 90441, Note_on_c, 6, 52, 96
6, 90444, Note_on_c, 6, 56, 96
6, 90448, Note_on_c, 6, 59, 96
6, 90451, Note_on_c, 6, 64, 96
6, 90528, Note_off_c, 6, 64, 0
6, 90528, Note_off_c, 6, 59, 0
6, 90528, Note_off_c, 6, 56, 0
6, 90528, Note_off_c, 6, 52, 0
6, 90528, Note_off_c, 6, 47, 0
6, 90528, Note_off_c, 6, 40, 0
6, 90528, Note_on_c, 6, 64, 81
6, 90534, Note_on_c, 6, 59, 81
6, 90537, Note_on_c, 6, 56, 81
6, 90540, Note_on_c, 6, 52, 81
6, 90544, Note_on_c, 6, 47, 96
6, 90624, Note_off_c, 6, 47, 0
6, 90624, Note_off_c, 6, 52, 0
6, 90624, Note_off_c, 6, 56, 0
6, 90624, Note_off_c, 6, 59, 0
6, 90624, Note_off_c, 6, 64, 0
6, 90624, Note_on_c, 6, 57, 96
6, 90624, Note_on_c, 6, 61, 96
6, 90624, Note_on_c, 6, 45, 96
6, 90633, Note_on_c, 6, 52, 96
6, 90643, Note_on_c, 6, 64, 96
6, 90912, Note_off_c, 6, 64, 0
6, 90912, Note_off_c, 6, 52, 0
6, 90912, Note_off_c, 6, 45, 0
6, 90912, Note_off_c, 6, 61, 0
6, 90912, Note_off_c, 6, 57, 0
6, 90912, Note_on_c, 6, 57, 96
6, 90912, Note_on_c, 6, 61, 96
6, 90921, Note_on_c, 6, 52, 96
6, 90931, Note_on_c, 6, 64, 96
6, 91008, Note_off_c, 6, 64, 0
6, 91008, Note_off_c, 6, 52, 0
6, 91008, Note_off_c, 6, 61, 0
6, 91008, Note_off_c, 6, 57, 0
6, 91008, Note_on_c, 6, 64, 96
6, 91008, Note_on_c, 6, 61, 96
6, 91008, Note_on_c, 6, 57, 96
6, 91008, Note_on_c, 6, 52, 96
6, 91008, Note_on_c, 6, 45, 96
6, 91104, Note_off_c, 6, 45, 0
6, 91104, Note_off_c, 6, 52, 0
6, 91104, Note_off_c, 6, 57, 0
6, 91104, Note_off_c, 6, 61, 0
6, 91104, Note_off_c, 6, 64, 0
6, 91200, Note_on_c, 6, 45, 96
6, 91200, Note_on_c, 6, 52, 96
6, 91200, Note_on_c, 6, 57, 96
6, 91200, Note_on_c, 6, 61, 96
6, 91200, Note_on_c, 6, 64, 96
6, 91488, Note_off_c, 6, 64, 0
6, 91488, Note_off_c, 6, 61, 0
6, 91488, Note_off_c, 6, 57, 0
6, 91488, Note_off_c, 6, 52, 0
6, 91488, Note_off_c, 6, 45, 0
6, 91488, Note_on_c, 6, 52, 96
6, 91488, Note_on_c, 6, 57, 96
6, 91488, Note_on_c, 6, 61, 96
6, 91488, Note_on_c, 6, 64, 96
6, 91584, Note_off_c, 6, 64, 0
6, 91584, Note_off_c, 6, 61, 0
6, 91584, Note_off_c, 6, 57, 0
6, 91584, Note_off_c, 6, 52, 0
6, 91584, Note_on_c, 6, 64, 96
6, 91584, Note_on_c, 6, 61, 96
6, 91584, Note_on_c, 6, 57, 96
6, 91584, Note_on_c, 6, 52, 96
6, 91584, Note_on_c, 6, 45, 96
6, 91776, Note_on_c, 6, 45, 96
6, 91776, Note_on_c, 6, 57, 96
6, 91776, Note_on_c, 6, 61, 96
6, 91785, Note_on_c, 6, 52, 96
6, 91795, Note_on_c, 6, 64, 96
6, 91872, Note_off_c, 6, 45, 0
6, 91872, Note_off_c, 6, 52, 0
6, 91872, Note_off_c, 6, 57, 0
6, 91872, Note_off_c, 6, 61, 0
6, 91872, Note_off_c, 6, 64, 0
6, 91968, Note_off_c, 6, 64, 0
6, 91968, Note_off_c, 6, 52, 0
6, 91968, Note_off_c, 6, 61, 0
6, 91968, Note_off_c, 6, 57, 0
6, 91968, Note_off_c, 6, 45, 0
6, 91968, Note_on_c, 6, 57, 96
6, 91968, Note_on_c, 6, 61, 96
6, 91968, Note_on_c, 6, 45, 96
6, 91977, Note_on_c, 6, 52, 96
6, 91987, Note_on_c, 6, 64, 96
6, 92064, Note_off_c, 6, 64, 0
6, 92064, Note_off_c, 6, 52, 0
6, 92064, Note_off_c, 6, 45, 0
6, 92064, Note_off_c, 6, 61, 0
6, 92064, Note_off_c, 6, 57, 0
6, 92064, Note_on_c, 6, 57, 81
6, 92064, Note_on_c, 6, 61, 81
6, 92064, Note_on_c, 6, 64, 81
6, 92076, Note_on_c, 6, 52, 81
6, 92160, Note_off_c, 6, 52, 0
6, 92160, Note_off_c, 6, 64, 0
6, 92160, Note_off_c, 6, 61, 0
6, 92160, Note_off_c, 6, 57, 0
6, 92160, Note_on_c, 6, 40, 96
6, 92166, Note_on_c, 6, 47, 96
6, 92169, Note_on_c, 6, 52, 96
6, 92172, Note_on_c, 6, 56, 96
6, 92176, Note_on_c, 6, 59, 96
6, 92179, Note_on_c, 6, 64, 96
6, 92448, Note_off_c, 6, 64, 0
6, 92448, Note_off_c, 6, 59, 0
6, 92448, Note_off_c, 6, 56, 0
6, 92448, Note_off_c, 6, 52, 0
6, 92448, Note_off_c, 6, 47, 0
6, 92448, Note_off_c, 6, 40, 0
6, 92454, Note_on_c, 6, 47, 96
6, 92457, Note_on_c, 6, 52, 96
6, 92460, Note_on_c, 6, 56, 96
6, 92464, Note_on_c, 6, 59, 96
6, 92467, Note_on_c, 6, 64, 96
6, 92544, Note_off_c, 6, 64, 0
6, 92544, Note_off_c, 6, 59, 0
6, 92544, Note_off_c, 6, 56, 0
6, 92544, Note_off_c, 6, 52, 0
6, 92544, Note_off_c, 6, 47, 0
6, 92544, Note_on_c, 6, 64, 96
6, 92544, Note_on_c, 6, 59, 96
6, 92544, Note_on_c, 6, 56, 96
6, 92544, Note_on_c, 6, 52, 96
6, 92544, Note_on_c, 6, 47, 96
6, 92544, Note_on_c, 6, 40, 96
6, 92640, Note_off_c, 6, 40, 0
6, 92640, Note_off_c, 6, 47, 0
6, 92640, Note_off_c, 6, 52, 0
6, 92640, Note_off_c, 6, 56, 0
6, 92640, Note_off_c, 6, 59, 0
6, 92640, Note_off_c, 6, 64, 0
6, 92736, Note_on_c, 6, 40, 96
6, 92736, Note_on_c, 6, 47, 96
6, 92736, Note_on_c, 6, 52, 96
6, 92736, Note_on_c, 6, 56, 96
6, 92736, Note_on_c, 6, 59, 96
6, 92736, Note_on_c, 6, 64, 96
6, 93024, Note_off_c, 6, 64, 0
6, 93024, Note_off_c, 6, 59, 0
6, 93024, Note_off_c, 6, 56, 0
6, 93024, Note_off_c, 6, 52, 0
6, 93024, Note_off_c, 6, 47, 0
6, 93024, Note_off_c, 6, 40, 0
6, 93024, Note_on_c, 6, 47, 96
6, 93024, Note_on_c, 6, 52, 96
6, 93024, Note_on_c, 6, 56, 96
6, 93024, Note_on_c, 6, 59, 96
6, 93024, Note_on_c, 6, 64, 96
6, 93120, Note_off_c, 6, 64, 0
6, 93120, Note_off_c, 6, 59, 0
6, 93120, Note_off_c, 6, 56, 0
6, 93120, Note_off_c, 6, 52, 0
6, 93120, Note_off_c, 6, 47, 0
6, 93120, Note_on_c, 6, 64, 96
6, 93120, Note_on_c, 6, 59, 96
6, 93120, Note_on_c, 6, 56, 96
6, 93120, Note_on_c, 6, 52, 96
6, 93120, Note_on_c, 6, 47, 96
6, 93120, Note_on_c, 6, 40, 96
6, 93312, Note_on_c, 6, 40, 96
6, 93318, Note_on_c, 6, 47, 96
6, 93321, Note_on_c, 6, 52, 96
6, 93324, Note_on_c, 6, 56, 96
6, 93328, Note_on_c, 6, 59, 96
6, 93331, Note_on_c, 6, 64, 96
6, 93408, Note_off_c, 6, 40, 0
6, 93408, Note_off_c, 6, 47, 0
6, 93408, Note_off_c, 6, 52, 0
6, 93408, Note_off_c, 6, 56, 0
6, 93408, Note_off_c, 6, 59, 0
6, 93408, Note_off_c, 6, 64, 0
6, 93504, Note_off_c, 6, 64, 0
6, 93504, Note_off_c, 6, 59, 0
6, 93504, Note_off_c, 6, 56, 0
6, 93504, Note_off_c, 6, 52, 0
6, 93504, Note_off_c, 6, 47, 0
6, 93504, Note_off_c, 6, 40, 0
6, 93504, Note_on_c, 6, 40, 96
6, 93510, Note_on_c, 6, 47, 96
6, 93513, Note_on_c, 6, 52, 96
6, 93516, Note_on_c, 6, 56, 96
6, 93520, Note_on_c, 6, 59, 96
6, 93523, Note_on_c, 6, 64, 96
6, 93600, Note_off_c, 6, 64, 0
6, 93600, Note_off_c, 6, 59, 0
6, 93600, Note_off_c, 6, 56, 0
6, 93600, Note_off_c, 6, 52, 0
6, 93600, Note_off_c, 6, 47, 0
6, 93600, Note_off_c, 6, 40, 0
6, 93600, Note_on_c, 6, 64, 81
6, 93606, Note_on_c, 6, 59, 81
6, 93609, Note_on_c, 6, 56, 81
6, 93612, Note_on_c, 6, 52, 81
6, 93616, Note_on_c, 6, 47, 96
6, 93696, Note_off_c, 6, 47, 0
6, 93696, Note_off_c, 6, 52, 0
6, 93696, Note_off_c, 6, 56, 0
6, 93696, Note_off_c, 6, 59, 0
6, 93696, Note_off_c, 6, 64, 0
6, 93696, Note_on_c, 6, 57, 96
6, 93696, Note_on_c, 6, 61, 96
6, 93696, Note_on_c, 6, 45, 96
6, 93705, Note_on_c, 6, 52, 96
6, 93715, Note_on_c, 6, 64, 96
6, 93984, Note_off_c, 6, 64, 0
6, 93984, Note_off_c, 6, 52, 0
6, 93984, Note_off_c, 6, 45, 0
6, 93984, Note_off_c, 6, 61, 0
6, 93984, Note_off_c, 6, 57, 0
6, 93984, Note_on_c, 6, 57, 96
6, 93984, Note_on_c, 6, 61, 96
6, 93993, Note_on_c, 6, 52, 96
6, 94003, Note_on_c, 6, 64, 96
6, 94080, Note_off_c, 6, 64, 0
6, 94080, Note_off_c, 6, 52, 0
6, 94080, Note_off_c, 6, 61, 0
6, 94080, Note_off_c, 6, 57, 0
6, 94080, Note_on_c, 6, 64, 96
6, 94080, Note_on_c, 6, 61, 96
6, 94080, Note_on_c, 6, 57, 96
6, 94080, Note_on_c, 6, 52, 96
6, 94080, Note_on_c, 6, 45, 96
6, 94176, Note_off_c, 6, 45, 0
6, 94176, Note_off_c, 6, 52, 0
6, 94176, Note_off_c, 6, 57, 0
6, 94176, Note_off_c, 6, 61, 0
6, 94176, Note_off_c, 6, 64, 0
6, 94272, Note_on_c, 6, 45, 96
6, 94272, Note_on_c, 6, 52, 96
6, 94272, Note_on_c, 6, 57, 96
6, 94272, Note_on_c, 6, 61, 96
6, 94272, Note_on_c, 6, 64, 96
6, 94560, Note_off_c, 6, 64, 0
6, 94560, Note_off_c, 6, 61, 0
6, 94560, Note_off_c, 6, 57, 0
6, 94560, Note_off_c, 6, 52, 0
6, 94560, Note_off_c, 6, 45, 0
6, 94560, Note_on_c, 6, 52, 96
6, 94560, Note_on_c, 6, 57, 96
6, 94560, Note_on_c, 6, 61, 96
6, 94560, Note_on_c, 6, 64, 96
6, 94656, Note_off_c, 6, 64, 0
6, 94656, Note_off_c, 6, 61, 0
6, 94656, Note_off_c, 6, 57, 0
6, 94656, Note_off_c, 6, 52, 0
6, 94656, Note_on_c, 6, 64, 96
6, 94656, Note_on_c, 6, 61, 96
6, 94656, Note_on_c, 6, 57, 96
6, 94656, Note_on_c, 6, 52, 96
6, 94656, Note_on_c, 6, 45, 96
6, 94848, Note_on_c, 6, 45, 96
6, 94848, Note_on_c, 6, 57, 96
6, 94848, Note_on_c, 6, 61, 96
6, 94857, Note_on_c, 6, 52, 96
6, 94867, Note_on_c, 6, 64, 96
6, 94944, Note_off_c, 6, 45, 0
6, 94944, Note_off_c, 6, 52, 0
6, 94944, Note_off_c, 6, 57, 0
6, 94944, Note_off_c, 6, 61, 0
6, 94944, Note_off_c, 6, 64, 0
6, 95040, Note_off_c, 6, 64, 0
6, 95040, Note_off_c, 6, 52, 0
6, 95040, Note_off_c, 6, 61, 0
6, 95040, Note_off_c, 6, 57, 0
6, 95040, Note_off_c, 6, 45, 0
6, 95040, Note_on_c, 6, 57, 96
6, 95040, Note_on_c, 6, 61, 96
6, 95040, Note_on_c, 6, 45, 96
6, 95049, Note_on_c, 6, 52, 96
6, 95059, Note_on_c, 6, 64, 96
6, 95136, Note_off_c, 6, 64, 0
6, 95136, Note_off_c, 6, 52, 0
6, 95136, Note_off_c, 6, 45, 0
6, 95136, Note_off_c, 6, 61, 0
6, 95136, Note_off_c, 6, 57, 0
6, 95136, Note_on_c, 6, 57, 81
6, 95136, Note_on_c, 6, 61, 81
6, 95136, Note_on_c, 6, 64, 81
6, 95148, Note_on_c, 6, 52, 81
6, 95232, Note_off_c, 6, 52, 0
6, 95232, Note_off_c, 6, 64, 0
6, 95232, Note_off_c, 6, 61, 0
6, 95232, Note_off_c, 6, 57, 0
6, 95232, Note_on_c, 6, 40, 96
6, 95238, Note_on_c, 6, 47, 96
6, 95241, Note_on_c, 6, 52, 96
6, 95244, Note_on_c, 6, 56, 96
6, 95248, Note_on_c, 6, 59, 96
6, 95251, Note_on_c, 6, 64, 96
6, 95520, Note_off_c, 6, 64, 0
6, 95520, Note_off_c, 6, 59, 0
6, 95520, Note_off_c, 6, 56, 0
6, 95520, Note_off_c, 6, 52, 0
6, 95520, Note_off_c, 6, 47, 0
6, 95520, Note_off_c, 6, 40, 0
6, 95526, Note_on_c, 6, 47, 96
6, 95529, Note_on_c, 6, 52, 96
6, 95532, Note_on_c, 6, 56, 96
6, 95536, Note_on_c, 6, 59, 96
6, 95539, Note_on_c, 6, 64, 96
6, 95616, Note_off_c, 6, 64, 0
6, 95616, Note_off_c, 6, 59, 0
6, 95616, Note_off_c, 6, 56, 0
6, 95616, Note_off_c, 6, 52, 0
6, 95616, Note_off_c, 6, 47, 0
6, 95616, Note_on_c, 6, 64, 96
6, 95616, Note_on_c, 6, 59, 96
6, 95616, Note_on_c, 6, 56, 96
6, 95616, Note_on_c, 6, 52, 96
6, 95616, Note_on_c, 6, 47, 96
6, 95616, Note_on_c, 6, 40, 96
6, 95712, Note_off_c, 6, 40, 0
6, 95712, Note_off_c, 6, 47, 0
6, 95712, Note_off_c, 6, 52, 0
6, 95712, Note_off_c, 6, 56, 0
6, 95712, Note_off_c, 6, 59, 0
6, 95712, Note_off_c, 6, 64, 0
6, 95808, Note_on_c, 6, 40, 96
6, 95808, Note_on_c, 6, 47, 96
6, 95808, Note_on_c, 6, 52, 96
6, 95808, Note_on_c, 6, 56, 96
6, 95808, Note_on_c, 6, 59, 96
6, 95808, Note_on_c, 6, 64, 96
6, 96096, Note_off_c, 6, 64, 0
6, 96096, Note_off_c, 6, 59, 0
6, 96096, Note_off_c, 6, 56, 0
6, 96096, Note_off_c, 6, 52, 0
6, 96096, Note_off_c, 6, 47, 0
6, 96096, Note_off_c, 6, 40, 0
6, 96096, Note_on_c, 6, 47, 96
6, 96096, Note_on_c, 6, 52, 96
6, 96096, Note_on_c, 6, 56, 96
6, 96096, Note_on_c, 6, 59, 96
6, 96096, Note_on_c, 6, 64, 96
6, 96192, Note_off_c, 6, 64, 0
6, 96192, Note_off_c, 6, 59, 0
6, 96192, Note_off_c, 6, 56, 0
6, 96192, Note_off_c, 6, 52, 0
6, 96192, Note_off_c, 6, 47, 0
6, 96192, Note_on_c, 6, 64, 96
6, 96192, Note_on_c, 6, 59, 96
6, 96192, Note_on_c, 6, 56, 96
6, 96192, Note_on_c, 6, 52, 96
6, 96192, Note_on_c, 6, 47, 96
6, 96192, Note_on_c, 6, 40, 96
6, 96384, Note_on_c, 6, 40, 96
6, 96390, Note_on_c, 6, 47, 96
6, 96393, Note_on_c, 6, 52, 96
6, 96396, Note_on_c, 6, 56, 96
6, 96400, Note_on_c, 6, 59, 96
6, 96403, Note_on_c, 6, 64, 96
6, 96480, Note_off_c, 6, 40, 0
6, 96480, Note_off_c, 6, 47, 0
6, 96480, Note_off_c, 6, 52, 0
6, 96480, Note_off_c, 6, 56, 0
6, 96480, Note_off_c, 6, 59, 0
6, 96480, Note_off_c, 6, 64, 0
6, 96576, Note_off_c, 6, 64, 0
6, 96576, Note_off_c, 6, 59, 0
6, 96576, Note_off_c, 6, 56, 0
6, 96576, Note_off_c, 6, 52, 0
6, 96576, Note_off_c, 6, 47, 0
6, 96576, Note_off_c, 6, 40, 0
6, 96576, Note_on_c, 6, 40, 96
6, 96582, Note_on_c, 6, 47, 96
6, 96585, Note_on_c, 6, 52, 96
6, 96588, Note_on_c, 6, 56, 96
6, 96592, Note_on_c, 6, 59, 96
6, 96595, Note_on_c, 6, 64, 96
6, 96672, Note_off_c, 6, 64, 0
6, 96672, Note_off_c, 6, 59, 0
6, 96672, Note_off_c, 6, 56, 0
6, 96672, Note_off_c, 6, 52, 0
6, 96672, Note_off_c, 6, 47, 0
6, 96672, Note_off_c, 6, 40, 0
6, 96672, Note_on_c, 6, 64, 81
6, 96678, Note_on_c, 6, 59, 81
6, 96681, Note_on_c, 6, 56, 81
6, 96684, Note_on_c, 6, 52, 81
6, 96688, Note_on_c, 6, 47, 96
6, 96768, Note_off_c, 6, 47, 0
6, 96768, Note_off_c, 6, 52, 0
6, 96768, Note_off_c, 6, 56, 0
6, 96768, Note_off_c, 6, 59, 0
6, 96768, Note_off_c, 6, 64, 0
6, 96768, Note_on_c, 6, 57, 96
6, 96768, Note_on_c, 6, 61, 96
6, 96768, Note_on_c, 6, 45, 96
6, 96777, Note_on_c, 6, 52, 96
6, 96787, Note_on_c, 6, 64, 96
6, 97056, Note_off_c, 6, 64, 0
6, 97056, Note_off_c, 6, 52, 0
6, 97056, Note_off_c, 6, 45, 0
6, 97056, Note_off_c, 6, 61, 0
6, 97056, Note_off_c, 6, 57, 0
6, 97056, Note_on_c, 6, 57, 96
6, 97056, Note_on_c, 6, 61, 96
6, 97065, Note_on_c, 6, 52, 96
6, 97075, Note_on_c, 6, 64, 96
6, 97152, Note_off_c, 6, 64, 0
6, 97152, Note_off_c, 6, 52, 0
6, 97152, Note_off_c, 6, 61, 0
6, 97152, Note_off_c, 6, 57, 0
6, 97152, Note_on_c, 6, 64, 96
6, 97152, Note_on_c, 6, 61, 96
6, 97152, Note_on_c, 6, 57, 96
6, 97152, Note_on_c, 6, 52, 96
6, 97152, Note_on_c, 6, 45, 96
6, 97248, Note_off_c, 6, 45, 0
6, 97248, Note_off_c, 6, 52, 0
6, 97248, Note_off_c, 6, 57, 0
6, 97248, Note_off_c, 6, 61, 0
6, 97248, Note_off_c, 6, 64, 0
6, 97344, Note_on_c, 6, 45, 96
6, 97344, Note_on_c, 6, 52, 96
6, 97344, Note_on_c, 6, 57, 96
6, 97344, Note_on_c, 6, 61, 96
6, 97344, Note_on_c, 6, 64, 96
6, 97632, Note_off_c, 6, 64, 0
6, 97632, Note_off_c, 6, 61, 0
6, 97632, Note_off_c, 6, 57, 0
6, 97632, Note_off_c, 6, 52, 0
6, 97632, Note_off_c, 6, 45, 0
6, 97632, Note_on_c, 6, 52, 96
6, 97632, Note_on_c, 6, 57, 96
6, 97632, Note_on_c, 6, 61, 96
6, 97632, Note_on_c, 6, 64, 96
6, 97728, Note_off_c, 6, 64, 0
6, 97728, Note_off_c, 6, 61, 0
6, 97728, Note_off_c, 6, 57, 0
6, 97728, Note_off_c, 6, 52, 0
6, 97728, Note_on_c, 6, 64, 96
6, 97728, Note_on_c, 6, 61, 96
6, 97728, Note_on_c, 6, 57, 96
6, 97728, Note_on_c, 6, 52, 96
6, 97728, Note_on_c, 6, 45, 96
6, 97920, Note_on_c, 6, 45, 96
6, 97920, Note_on_c, 6, 57, 96
6, 97920, Note_on_c, 6, 61, 96
6, 97929, Note_on_c, 6, 52, 96
6, 97939, Note_on_c, 6, 64, 96
6, 98016, Note_off_c, 6, 45, 0
6, 98016, Note_off_c, 6, 52, 0
6, 98016, Note_off_c, 6, 57, 0
6, 98016, Note_off_c, 6, 61, 0
6, 98016, Note_off_c, 6, 64, 0
6, 98112, Note_off_c, 6, 64, 0
6, 98112, Note_off_c, 6, 52, 0
6, 98112, Note_off_c, 6, 61, 0
6, 98112, Note_off_c, 6, 57, 0
6, 98112, Note_off_c, 6, 45, 0
6, 98112, Note_on_c, 6, 57, 96
6, 98112, Note_on_c, 6, 61, 96
6, 98112, Note_on_c, 6, 45, 96
6, 98121, Note_on_c, 6, 52, 96
6, 98131, Note_on_c, 6, 64, 96
6, 98208, Note_off_c, 6, 64, 0
6, 98208, Note_off_c, 6, 52, 0
6, 98208, Note_off_c, 6, 45, 0
6, 98208, Note_off_c, 6, 61, 0
6, 98208, Note_off_c, 6, 57, 0
6, 98208, Note_on_c, 6, 57, 81
6, 98208, Note_on_c, 6, 61, 81
6, 98208, Note_on_c, 6, 64, 81
6, 98220, Note_on_c, 6, 52, 81
6, 98304, Note_off_c, 6, 52, 0
6, 98304, Note_off_c, 6, 64, 0
6, 98304, Note_off_c, 6, 61, 0
6, 98304, Note_off_c, 6, 57, 0
6, 98304, Note_on_c, 6, 40, 96
6, 98310, Note_on_c, 6, 47, 96
6, 98313, Note_on_c, 6, 52, 96
6, 98316, Note_on_c, 6, 56, 96
6, 98320, Note_on_c, 6, 59, 96
6, 98323, Note_on_c, 6, 64, 96
6, 98592, Note_off_c, 6, 64, 0
6, 98592, Note_off_c, 6, 59, 0
6, 98592, Note_off_c, 6, 56, 0
6, 98592, Note_off_c, 6, 52, 0
6, 98592, Note_off_c, 6, 47, 0
6, 98592, Note_off_c, 6, 40, 0
6, 98601, Note_on_c, 6, 59, 96
6, 98604, Note_on_c, 6, 56, 96
6, 98608, Note_on_c, 6, 52, 96
6, 98611, Note_on_c, 6, 47, 96
6, 98611, Note_on_c, 6, 64, 96
6, 98688, Note_off_c, 6, 64, 0
6, 98688, Note_off_c, 6, 47, 0
6, 98688, Note_off_c, 6, 52, 0
6, 98688, Note_off_c, 6, 56, 0
6, 98688, Note_off_c, 6, 59, 0
6, 98688, Note_on_c, 6, 40, 96
6, 98697, Note_on_c, 6, 47, 96
6, 98700, Note_on_c, 6, 52, 96
6, 98704, Note_on_c, 6, 56, 96
6, 98707, Note_on_c, 6, 59, 96
6, 98710, Note_on_c, 6, 64, 96
6, 98784, Note_off_c, 6, 64, 0
6, 98784, Note_off_c, 6, 59, 0
6, 98784, Note_off_c, 6, 56, 0
6, 98784, Note_off_c, 6, 52, 0
6, 98784, Note_off_c, 6, 47, 0
6, 98784, Note_off_c, 6, 40, 0
6, 98880, Note_on_c, 6, 40, 96
6, 98889, Note_on_c, 6, 47, 96
6, 98892, Note_on_c, 6, 52, 96
6, 98896, Note_on_c, 6, 56, 96
6, 98899, Note_on_c, 6, 64, 96
6, 98899, Note_on_c, 6, 59, 96
6, 99168, Note_off_c, 6, 59, 0
6, 99168, Note_off_c, 6, 64, 0
6, 99168, Note_off_c, 6, 56, 0
6, 99168, Note_off_c, 6, 52, 0
6, 99168, Note_off_c, 6, 47, 0
6, 99168, Note_off_c, 6, 40, 0
6, 99168, Note_on_c, 6, 64, 96
6, 99177, Note_on_c, 6, 59, 96
6, 99180, Note_on_c, 6, 56, 96
6, 99184, Note_on_c, 6, 52, 96
6, 99187, Note_on_c, 6, 47, 96
6, 99264, Note_off_c, 6, 47, 0
6, 99264, Note_off_c, 6, 52, 0
6, 99264, Note_off_c, 6, 56, 0
6, 99264, Note_off_c, 6, 59, 0
6, 99264, Note_off_c, 6, 64, 0
6, 99264, Note_on_c, 6, 40, 96
6, 99273, Note_on_c, 6, 47, 96
6, 99276, Note_on_c, 6, 52, 96
6, 99280, Note_on_c, 6, 56, 96
6, 99283, Note_on_c, 6, 59, 96
6, 99286, Note_on_c, 6, 64, 96
6, 99456, Note_on_c, 6, 40, 96
6, 99462, Note_on_c, 6, 47, 96
6, 99465, Note_on_c, 6, 52, 96
6, 99468, Note_on_c, 6, 56, 96
6, 99472, Note_on_c, 6, 59, 96
6, 99475, Note_on_c, 6, 64, 96
6, 99552, Note_off_c, 6, 64, 0
6, 99552, Note_off_c, 6, 59, 0
6, 99552, Note_off_c, 6, 56, 0
6, 99552, Note_off_c, 6, 52, 0
6, 99552, Note_off_c, 6, 47, 0
6, 99552, Note_off_c, 6, 40, 0
6, 99552, Note_on_c, 6, 64, 96
6, 99561, Note_on_c, 6, 59, 96
6, 99564, Note_on_c, 6, 56, 96
6, 99568, Note_on_c, 6, 52, 96
6, 99571, Note_on_c, 6, 47, 96
6, 99648, Note_off_c, 6, 64, 0
6, 99648, Note_off_c, 6, 59, 0
6, 99648, Note_off_c, 6, 56, 0
6, 99648, Note_off_c, 6, 52, 0
6, 99648, Note_off_c, 6, 47, 0
6, 99648, Note_off_c, 6, 40, 0
6, 99840, Note_off_c, 6, 47, 0
6, 99840, Note_off_c, 6, 52, 0
6, 99840, Note_off_c, 6, 56, 0
6, 99840, Note_off_c, 6, 59, 0
6, 99840, Note_off_c, 6, 64, 0
6, 99840, Note_on_c, 6, 45, 96
6, 99849, Note_on_c, 6, 52, 96
6, 99852, Note_on_c, 6, 57, 96
6, 99856, Note_on_c, 6, 61, 96
6, 99859, Note_on_c, 6, 64, 96
6, 100128, Note_off_c, 6, 64, 0
6, 100128, Note_off_c, 6, 61, 0
6, 100128, Note_off_c, 6, 57, 0
6, 100128, Note_off_c, 6, 52, 0
6, 100128, Note_off_c, 6, 45, 0
6, 100137, Note_on_c, 6, 61, 96
6, 100140, Note_on_c, 6, 57, 96
6, 100144, Note_on_c, 6, 52, 96
6, 100147, Note_on_c, 6, 64, 96
6, 100224, Note_off_c, 6, 64, 0
6, 100224, Note_off_c, 6, 52, 0
6, 100224, Note_off_c, 6, 57, 0
6, 100224, Note_off_c, 6, 61, 0
6, 100224, Note_on_c, 6, 45, 96
6, 100233, Note_on_c, 6, 52, 96
6, 100236, Note_on_c, 6, 57, 96
6, 100240, Note_on_c, 6, 61, 96
6, 100243, Note_on_c, 6, 64, 96
6, 100320, Note_off_c, 6, 64, 0
6, 100320, Note_off_c, 6, 61, 0
6, 100320, Note_off_c, 6, 57, 0
6, 100320, Note_off_c, 6, 52, 0
6, 100320, Note_off_c, 6, 45, 0
6, 100416, Note_on_c, 6, 45, 96
6, 100425, Note_on_c, 6, 52, 96
6, 100428, Note_on_c, 6, 57, 96
6, 100432, Note_on_c, 6, 61, 96
6, 100435, Note_on_c, 6, 64, 96
6, 100704, Note_off_c, 6, 64, 0
6, 100704, Note_off_c, 6, 61, 0
6, 100704, Note_off_c, 6, 57, 0
6, 100704, Note_off_c, 6, 52, 0
6, 100704, Note_off_c, 6, 45, 0
6, 100704, Note_on_c, 6, 64, 96
6, 100713, Note_on_c, 6, 61, 96
6, 100716, Note_on_c, 6, 57, 96
6, 100720, Note_on_c, 6, 52, 96
6, 100800, Note_off_c, 6, 52, 0
6, 100800, Note_off_c, 6, 57, 0
6, 100800, Note_off_c, 6, 61, 0
6, 100800, Note_off_c, 6, 64, 0
6, 100800, Note_on_c, 6, 45, 96
6, 100809, Note_on_c, 6, 52, 96
6, 100812, Note_on_c, 6, 57, 96
6, 100816, Note_on_c, 6, 61, 96
6, 100819, Note_on_c, 6, 64, 96
6, 100992, Note_on_c, 6, 45, 96
6, 101001, Note_on_c, 6, 52, 96
6, 101004, Note_on_c, 6, 57, 96
6, 101008, Note_on_c, 6, 61, 96
6, 101011, Note_on_c, 6, 64, 96
6, 101088, Note_off_c, 6, 64, 0
6, 101088, Note_off_c, 6, 61, 0
6, 101088, Note_off_c, 6, 57, 0
6, 101088, Note_off_c, 6, 52, 0
6, 101088, Note_off_c, 6, 45, 0
6, 101088, Note_on_c, 6, 64, 96
6, 101100, Note_on_c, 6, 61, 96
6, 101104, Note_on_c, 6, 57, 96
6, 101107, Note_on_c, 6, 52, 96
6, 101184, Note_off_c, 6, 64, 0
6, 101184, Note_off_c, 6, 61, 0
6, 101184, Note_off_c, 6, 57, 0
6, 101184, Note_off_c, 6, 52, 0
6, 101184, Note_off_c, 6, 45, 0
6, 101376, Note_off_c, 6, 52, 0
6, 101376, Note_off_c, 6, 57, 0
6, 101376, Note_off_c, 6, 61, 0
6, 101376, Note_off_c, 6, 64, 0
6, 101376, Note_on_c, 6, 40, 96
6, 101382, Note_on_c, 6, 47, 96
6, 101385, Note_on_c, 6, 52, 96
6, 101388, Note_on_c, 6, 56, 96
6, 101392, Note_on_c, 6, 59, 96
6, 101395, Note_on_c, 6, 64, 96
6, 101664, Note_off_c, 6, 64, 0
6, 101664, Note_off_c, 6, 59, 0
6, 101664, Note_off_c, 6, 56, 0
6, 101664, Note_off_c, 6, 52, 0
6, 101664, Note_off_c, 6, 47, 0
6, 101664, Note_off_c, 6, 40, 0
6, 101673, Note_on_c, 6, 59, 96
6, 101676, Note_on_c, 6, 56, 96
6, 101680, Note_on_c, 6, 52, 96
6, 101683, Note_on_c, 6, 47, 96
6, 101683, Note_on_c, 6, 64, 96
6, 101760, Note_off_c, 6, 64, 0
6, 101760, Note_off_c, 6, 47, 0
6, 101760, Note_off_c, 6, 52, 0
6, 101760, Note_off_c, 6, 56, 0
6, 101760, Note_off_c, 6, 59, 0
6, 101760, Note_on_c, 6, 40, 96
6, 101769, Note_on_c, 6, 47, 96
6, 101772, Note_on_c, 6, 52, 96
6, 101776, Note_on_c, 6, 56, 96
6, 101779, Note_on_c, 6, 59, 96
6, 101782, Note_on_c, 6, 64, 96
6, 101856, Note_off_c, 6, 64, 0
6, 101856, Note_off_c, 6, 59, 0
6, 101856, Note_off_c, 6, 56, 0
6, 101856, Note_off_c, 6, 52, 0
6, 101856, Note_off_c, 6, 47, 0
6, 101856, Note_off_c, 6, 40, 0
6, 101952, Note_on_c, 6, 40, 96
6, 101961, Note_on_c, 6, 47, 96
6, 101964, Note_on_c, 6, 52, 96
6, 101968, Note_on_c, 6, 56, 96
6, 101971, Note_on_c, 6, 64, 96
6, 101971, Note_on_c, 6, 59, 96
6, 102240, Note_off_c, 6, 59, 0
6, 102240, Note_off_c, 6, 64, 0
6, 102240, Note_off_c, 6, 56, 0
6, 102240, Note_off_c, 6, 52, 0
6, 102240, Note_off_c, 6, 47, 0
6, 102240, Note_off_c, 6, 40, 0
6, 102240, Note_on_c, 6, 64, 96
6, 102249, Note_on_c, 6, 59, 96
6, 102252, Note_on_c, 6, 56, 96
6, 102256, Note_on_c, 6, 52, 96
6, 102259, Note_on_c, 6, 47, 96
6, 102336, Note_off_c, 6, 47, 0
6, 102336, Note_off_c, 6, 52, 0
6, 102336, Note_off_c, 6, 56, 0
6, 102336, Note_off_c, 6, 59, 0
6, 102336, Note_off_c, 6, 64, 0
6, 102336, Note_on_c, 6, 40, 96
6, 102345, Note_on_c, 6, 47, 96
6, 102348, Note_on_c, 6, 52, 96
6, 102352, Note_on_c, 6, 56, 96
6, 102355, Note_on_c, 6, 59, 96
6, 102358, Note_on_c, 6, 64, 96
6, 102528, Note_on_c, 6, 40, 96
6, 102534, Note_on_c, 6, 47, 96
6, 102537, Note_on_c, 6, 52, 96
6, 102540, Note_on_c, 6, 56, 96
6, 102544, Note_on_c, 6, 59, 96
6, 102547, Note_on_c, 6, 64, 96
6, 102624, Note_off_c, 6, 64, 0
6, 102624, Note_off_c, 6, 59, 0
6, 102624, Note_off_c, 6, 56, 0
6, 102624, Note_off_c, 6, 52, 0
6, 102624, Note_off_c, 6, 47, 0
6, 102624, Note_off_c, 6, 40, 0
6, 102624, Note_on_c, 6, 64, 96
6, 102633, Note_on_c, 6, 59, 96
6, 102636, Note_on_c, 6, 56, 96
6, 102640, Note_on_c, 6, 52, 96
6, 102643, Note_on_c, 6, 47, 96
6, 102720, Note_off_c, 6, 64, 0
6, 102720, Note_off_c, 6, 59, 0
6, 102720, Note_off_c, 6, 56, 0
6, 102720, Note_off_c, 6, 52, 0
6, 102720, Note_off_c, 6, 47, 0
6, 102720, Note_off_c, 6, 40, 0
6, 102912, Note_off_c, 6, 47, 0
6, 102912, Note_off_c, 6, 52, 0
6, 102912, Note_off_c, 6, 56, 0
6, 102912, Note_off_c, 6, 59, 0
6, 102912, Note_off_c, 6, 64, 0
6, 102912, Note_on_c, 6, 45, 96
6, 102921, Note_on_c, 6, 52, 96
6, 102924, Note_on_c, 6, 57, 96
6, 102928, Note_on_c, 6, 61, 96
6, 102931, Note_on_c, 6, 64, 96
6, 103200, Note_off_c, 6, 64, 0
6, 103200, Note_off_c, 6, 61, 0
6, 103200, Note_off_c, 6, 57, 0
6, 103200, Note_off_c, 6, 52, 0
6, 103200, Note_off_c, 6, 45, 0
6, 103209, Note_on_c, 6, 61, 96
6, 103212, Note_on_c, 6, 57, 96
6, 103216, Note_on_c, 6, 52, 96
6, 103219, Note_on_c, 6, 64, 96
6, 103296, Note_off_c, 6, 64, 0
6, 103296, Note_off_c, 6, 52, 0
6, 103296, Note_off_c, 6, 57, 0
6, 103296, Note_off_c, 6, 61, 0
6, 103296, Note_on_c, 6, 45, 96
6, 103305, Note_on_c, 6, 52, 96
6, 103308, Note_on_c, 6, 57, 96
6, 103312, Note_on_c, 6, 61, 96
6, 103315, Note_on_c, 6, 64, 96
6, 103392, Note_off_c, 6, 64, 0
6, 103392, Note_off_c, 6, 61, 0
6, 103392, Note_off_c, 6, 57, 0
6, 103392, Note_off_c, 6, 52, 0
6, 103392, Note_off_c, 6, 45, 0
6, 103488, Note_on_c, 6, 45, 96
6, 103497, Note_on_c, 6, 52, 96
6, 103500, Note_on_c, 6, 57, 96
6, 103504, Note_on_c, 6, 61, 96
6, 103507, Note_on_c, 6, 64, 96
6, 103776, Note_off_c, 6, 64, 0
6, 103776, Note_off_c, 6, 61, 0
6, 103776, Note_off_c, 6, 57, 0
6, 103776, Note_off_c, 6, 52, 0
6, 103776, Note_off_c, 6, 45, 0
6, 103776, Note_on_c, 6, 64, 96
6, 103785, Note_on_c, 6, 61, 96
6, 103788, Note_on_c, 6, 57, 96
6, 103792, Note_on_c, 6, 52, 96
6, 103872, Note_off_c, 6, 52, 0
6, 103872, Note_off_c, 6, 57, 0
6, 103872, Note_off_c, 6, 61, 0
6, 103872, Note_off_c, 6, 64, 0
6, 103872, Note_on_c, 6, 45, 96
6, 103881, Note_on_c, 6, 52, 96
6, 103884, Note_on_c, 6, 57, 96
6, 103888, Note_on_c, 6, 61, 96
6, 103891, Note_on_c, 6, 64, 96
6, 104064, Note_on_c, 6, 45, 96
6, 104073, Note_on_c, 6, 52, 96
6, 104076, Note_on_c, 6, 57, 96
6, 104080, Note_on_c, 6, 61, 96
6, 104083, Note_on_c, 6, 64, 96
6, 104160, Note_off_c, 6, 64, 0
6, 104160, Note_off_c, 6, 61, 0
6, 104160, Note_off_c, 6, 57, 0
6, 104160, Note_off_c, 6, 52, 0
6, 104160, Note_off_c, 6, 45, 0
6, 104160, Note_on_c, 6, 64, 96
6, 104172, Note_on_c, 6, 61, 96
6, 104176, Note_on_c, 6, 57, 96
6, 104179, Note_on_c, 6, 52, 96
6, 104256, Note_off_c, 6, 64, 0
6, 104256, Note_off_c, 6, 61, 0
6, 104256, Note_off_c, 6, 57, 0
6, 104256, Note_off_c, 6, 52, 0
6, 104256, Note_off_c, 6, 45, 0
6, 104448, Note_off_c, 6, 52, 0
6, 104448, Note_off_c, 6, 57, 0
6, 104448, Note_off_c, 6, 61, 0
6, 104448, Note_off_c, 6, 64, 0
6, 104448, Note_on_c, 6, 40, 96
6, 104454, Note_on_c, 6, 47, 96
6, 104457, Note_on_c, 6, 52, 96
6, 104460, Note_on_c, 6, 56, 96
6, 104464, Note_on_c, 6, 59, 96
6, 104467, Note_on_c, 6, 64, 96
6, 104736, Note_off_c, 6, 64, 0
6, 104736, Note_off_c, 6, 59, 0
6, 104736, Note_off_c, 6, 56, 0
6, 104736, Note_off_c, 6, 52, 0
6, 104736, Note_off_c, 6, 47, 0
6, 104736, Note_off_c, 6, 40, 0
6, 104745, Note_on_c, 6, 59, 96
6, 104748, Note_on_c, 6, 56, 96
6, 104752, Note_on_c, 6, 52, 96
6, 104755, Note_on_c, 6, 47, 96
6, 104755, Note_on_c, 6, 64, 96
6, 104832, Note_off_c, 6, 64, 0
6, 104832, Note_off_c, 6, 47, 0
6, 104832, Note_off_c, 6, 52, 0
6, 104832, Note_off_c, 6, 56, 0
6, 104832, Note_off_c, 6, 59, 0
6, 104832, Note_on_c, 6, 40, 96
6, 104841, Note_on_c, 6, 47, 96
6, 104844, Note_on_c, 6, 52, 96
6, 104848, Note_on_c, 6, 56, 96
6, 104851, Note_on_c, 6, 59, 96
6, 104854, Note_on_c, 6, 64, 96
6, 104928, Note_off_c, 6, 64, 0
6, 104928, Note_off_c, 6, 59, 0
6, 104928, Note_off_c, 6, 56, 0
6, 104928, Note_off_c, 6, 52, 0
6, 104928, Note_off_c, 6, 47, 0
6, 104928, Note_off_c, 6, 40, 0
6, 105024, Note_on_c, 6, 40, 96
6, 105033, Note_on_c, 6, 47, 96
6, 105036, Note_on_c, 6, 52, 96
6, 105040, Note_on_c, 6, 56, 96
6, 105043, Note_on_c, 6, 64, 96
6, 105043, Note_on_c, 6, 59, 96
6, 105312, Note_off_c, 6, 59, 0
6, 105312, Note_off_c, 6, 64, 0
6, 105312, Note_off_c, 6, 56, 0
6, 105312, Note_off_c, 6, 52, 0
6, 105312, Note_off_c, 6, 47, 0
6, 105312, Note_off_c, 6, 40, 0
6, 105312, Note_on_c, 6, 64, 96
6, 105321, Note_on_c, 6, 59, 96
6, 105324, Note_on_c, 6, 56, 96
6, 105328, Note_on_c, 6, 52, 96
6, 105331, Note_on_c, 6, 47, 96
6, 105408, Note_off_c, 6, 47, 0
6, 105408, Note_off_c, 6, 52, 0
6, 105408, Note_off_c, 6, 56, 0
6, 105408, Note_off_c, 6, 59, 0
6, 105408, Note_off_c, 6, 64, 0
6, 105408, Note_on_c, 6, 40, 96
6, 105417, Note_on_c, 6, 47, 96
6, 105420, Note_on_c, 6, 52, 96
6, 105424, Note_on_c, 6, 56, 96
6, 105427, Note_on_c, 6, 59, 96
6, 105430, Note_on_c, 6, 64, 96
6, 105600, Note_on_c, 6, 40, 96
6, 105606, Note_on_c, 6, 47, 96
6, 105609, Note_on_c, 6, 52, 96
6, 105612, Note_on_c, 6, 56, 96
6, 105616, Note_on_c, 6, 59, 96
6, 105619, Note_on_c, 6, 64, 96
6, 105696, Note_off_c, 6, 64, 0
6, 105696, Note_off_c, 6, 59, 0
6, 105696, Note_off_c, 6, 56, 0
6, 105696, Note_off_c, 6, 52, 0
6, 105696, Note_off_c, 6, 47, 0
6, 105696, Note_off_c, 6, 40, 0
6, 105696, Note_on_c, 6, 64, 96
6, 105705, Note_on_c, 6, 59, 96
6, 105708, Note_on_c, 6, 56, 96
6, 105712, Note_on_c, 6, 52, 96
6, 105715, Note_on_c, 6, 47, 96
6, 105792, Note_off_c, 6, 64, 0
6, 105792, Note_off_c, 6, 59, 0
6, 105792, Note_off_c, 6, 56, 0
6, 105792, Note_off_c, 6, 52, 0
6, 105792, Note_off_c, 6, 47, 0
6, 105792, Note_off_c, 6, 40, 0
6, 105984, Note_off_c, 6, 47, 0
6, 105984, Note_off_c, 6, 52, 0
6, 105984, Note_off_c, 6, 56, 0
6, 105984, Note_off_c, 6, 59, 0
6, 105984, Note_off_c, 6, 64, 0
6, 105984, Note_on_c, 6, 45, 96
6, 105993, Note_on_c, 6, 52, 96
6, 105996, Note_on_c, 6, 57, 96
6, 106000, Note_on_c, 6, 61, 96
6, 106003, Note_on_c, 6, 64, 96
6, 106272, Note_off_c, 6, 64, 0
6, 106272, Note_off_c, 6, 61, 0
6, 106272, Note_off_c, 6, 57, 0
6, 106272, Note_off_c, 6, 52, 0
6, 106272, Note_off_c, 6, 45, 0
6, 106281, Note_on_c, 6, 61, 96
6, 106284, Note_on_c, 6, 57, 96
6, 106288, Note_on_c, 6, 52, 96
6, 106291, Note_on_c, 6, 64, 96
6, 106368, Note_off_c, 6, 64, 0
6, 106368, Note_off_c, 6, 52, 0
6, 106368, Note_off_c, 6, 57, 0
6, 106368, Note_off_c, 6, 61, 0
6, 106368, Note_on_c, 6, 45, 96
6, 106377, Note_on_c, 6, 52, 96
6, 106380, Note_on_c, 6, 57, 96
6, 106384, Note_on_c, 6, 61, 96
6, 106387, Note_on_c, 6, 64, 96
6, 106464, Note_off_c, 6, 64, 0
6, 106464, Note_off_c, 6, 61, 0
6, 106464, Note_off_c, 6, 57, 0
6, 106464, Note_off_c, 6, 52, 0
6, 106464, Note_off_c, 6, 45, 0
6, 106560, Note_on_c, 6, 45, 96
6, 106569, Note_on_c, 6, 52, 96
6, 106572, Note_on_c, 6, 57, 96
6, 106576, Note_on_c, 6, 61, 96
6, 106579, Note_on_c, 6, 64, 96
6, 106848, Note_off_c, 6, 64, 0
6, 106848, Note_off_c, 6, 61, 0
6, 106848, Note_off_c, 6, 57, 0
6, 106848, Note_off_c, 6, 52, 0
6, 106848, Note_off_c, 6, 45, 0
6, 106848, Note_on_c, 6, 64, 96
6, 106857, Note_on_c, 6, 61, 96
6, 106860, Note_on_c, 6, 57, 96
6, 106864, Note_on_c, 6, 52, 96
6, 106944, Note_off_c, 6, 52, 0
6, 106944, Note_off_c, 6, 57, 0
6, 106944, Note_off_c, 6, 61, 0
6, 106944, Note_off_c, 6, 64, 0
6, 106944, Note_on_c, 6, 45, 96
6, 106953, Note_on_c, 6, 52, 96
6, 106956, Note_on_c, 6, 57, 96
6, 106960, Note_on_c, 6, 61, 96
6, 106963, Note_on_c, 6, 64, 96
6, 107136, Note_on_c, 6, 45, 96
6, 107145, Note_on_c, 6, 52, 96
6, 107148, Note_on_c, 6, 57, 96
6, 107152, Note_on_c, 6, 61, 96
6, 107155, Note_on_c, 6, 64, 96
6, 107232, Note_off_c, 6, 64, 0
6, 107232, Note_off_c, 6, 61, 0
6, 107232, Note_off_c, 6, 57, 0
6, 107232, Note_off_c, 6, 52, 0
6, 107232, Note_off_c, 6, 45, 0
6, 107232, Note_on_c, 6, 64, 96
6, 107244, Note_on_c, 6, 61, 96
6, 107248, Note_on_c, 6, 57, 96
6, 107251, Note_on_c, 6, 52, 96
6, 107328, Note_off_c, 6, 64, 0
6, 107328, Note_off_c, 6, 61, 0
6, 107328, Note_off_c, 6, 57, 0
6, 107328, Note_off_c, 6, 52, 0
6, 107328, Note_off_c, 6, 45, 0
6, 107520, Note_off_c, 6, 52, 0
6, 107520, Note_off_c, 6, 57, 0
6, 107520, Note_off_c, 6, 61, 0
6, 107520, Note_off_c, 6, 64, 0
6, 107520, Note_on_c, 6, 40, 96
6, 107526, Note_on_c, 6, 47, 96
6, 107529, Note_on_c, 6, 52, 96
6, 107532, Note_on_c, 6, 56, 96
6, 107536, Note_on_c, 6, 59, 96
6, 107539, Note_on_c, 6, 64, 96
6, 107808, Note_off_c, 6, 64, 0
6, 107808, Note_off_c, 6, 59, 0
6, 107808, Note_off_c, 6, 56, 0
6, 107808, Note_off_c, 6, 52, 0
6, 107808, Note_off_c, 6, 47, 0
6, 107808, Note_off_c, 6, 40, 0
6, 107817, Note_on_c, 6, 59, 96
6, 107820, Note_on_c, 6, 56, 96
6, 107824, Note_on_c, 6, 52, 96
6, 107827, Note_on_c, 6, 47, 96
6, 107827, Note_on_c, 6, 64, 96
6, 107904, Note_off_c, 6, 64, 0
6, 107904, Note_off_c, 6, 47, 0
6, 107904, Note_off_c, 6, 52, 0
6, 107904, Note_off_c, 6, 56, 0
6, 107904, Note_off_c, 6, 59, 0
6, 107904, Note_on_c, 6, 40, 96
6, 107913, Note_on_c, 6, 47, 96
6, 107916, Note_on_c, 6, 52, 96
6, 107920, Note_on_c, 6, 56, 96
6, 107923, Note_on_c, 6, 59, 96
6, 107926, Note_on_c, 6, 64, 96
6, 108000, Note_off_c, 6, 64, 0
6, 108000, Note_off_c, 6, 59, 0
6, 108000, Note_off_c, 6, 56, 0
6, 108000, Note_off_c, 6, 52, 0
6, 108000, Note_off_c, 6, 47, 0
6, 108000, Note_off_c, 6, 40, 0
6, 108096, Note_on_c, 6, 40, 96
6, 108105, Note_on_c, 6, 47, 96
6, 108108, Note_on_c, 6, 52, 96
6, 108112, Note_on_c, 6, 56, 96
6, 108115, Note_on_c, 6, 64, 96
6, 108115, Note_on_c, 6, 59, 96
6, 108384, Note_off_c, 6, 59, 0
6, 108384, Note_off_c, 6, 64, 0
6, 108384, Note_off_c, 6, 56, 0
6, 108384, Note_off_c, 6, 52, 0
6, 108384, Note_off_c, 6, 47, 0
6, 108384, Note_off_c, 6, 40, 0
6, 108384, Note_on_c, 6, 64, 96
6, 108393, Note_on_c, 6, 59, 96
6, 108396, Note_on_c, 6, 56, 96
6, 108400, Note_on_c, 6, 52, 96
6, 108403, Note_on_c, 6, 47, 96
6, 108480, Note_off_c, 6, 47, 0
6, 108480, Note_off_c, 6, 52, 0
6, 108480, Note_off_c, 6, 56, 0
6, 108480, Note_off_c, 6, 59, 0
6, 108480, Note_off_c, 6, 64, 0
6, 108480, Note_on_c, 6, 40, 96
6, 108489, Note_on_c, 6, 47, 96
6, 108492, Note_on_c, 6, 52, 96
6, 108496, Note_on_c, 6, 56, 96
6, 108499, Note_on_c, 6, 59, 96
6, 108502, Note_on_c, 6, 64, 96
6, 108672, Note_on_c, 6, 40, 96
6, 108678, Note_on_c, 6, 47, 96
6, 108681, Note_on_c, 6, 52, 96
6, 108684, Note_on_c, 6, 56, 96
6, 108688, Note_on_c, 6, 59, 96
6, 108691, Note_on_c, 6, 64, 96
6, 108768, Note_off_c, 6, 64, 0
6, 108768, Note_off_c, 6, 59, 0
6, 108768, Note_off_c, 6, 56, 0
6, 108768, Note_off_c, 6, 52, 0
6, 108768, Note_off_c, 6, 47, 0
6, 108768, Note_off_c, 6, 40, 0
6, 108768, Note_on_c, 6, 64, 96
6, 108777, Note_on_c, 6, 59, 96
6, 108780, Note_on_c, 6, 56, 96
6, 108784, Note_on_c, 6, 52, 96
6, 108787, Note_on_c, 6, 47, 96
6, 108864, Note_off_c, 6, 64, 0
6, 108864, Note_off_c, 6, 59, 0
6, 108864, Note_off_c, 6, 56, 0
6, 108864, Note_off_c, 6, 52, 0
6, 108864, Note_off_c, 6, 47, 0
6, 108864, Note_off_c, 6, 40, 0
6, 109056, Note_off_c, 6, 47, 0
6, 109056, Note_off_c, 6, 52, 0
6, 109056, Note_off_c, 6, 56, 0
6, 109056, Note_off_c, 6, 59, 0
6, 109056, Note_off_c, 6, 64, 0
6, 109056, Note_on_c, 6, 45, 96
6, 109065, Note_on_c, 6, 52, 96
6, 109068, Note_on_c, 6, 57, 96
6, 109072, Note_on_c, 6, 61, 96
6, 109075, Note_on_c, 6, 64, 96
6, 109344, Note_off_c, 6, 64, 0
6, 109344, Note_off_c, 6, 61, 0
6, 109344, Note_off_c, 6, 57, 0
6, 109344, Note_off_c, 6, 52, 0
6, 109344, Note_off_c, 6, 45, 0
6, 109353, Note_on_c, 6, 61, 96
6, 109356, Note_on_c, 6, 57, 96
6, 109360, Note_on_c, 6, 52, 96
6, 109363, Note_on_c, 6, 64, 96
6, 109440, Note_off_c, 6, 64, 0
6, 109440, Note_off_c, 6, 52, 0
6, 109440, Note_off_c, 6, 57, 0
6, 109440, Note_off_c, 6, 61, 0
6, 109440, Note_on_c, 6, 45, 96
6, 109449, Note_on_c, 6, 52, 96
6, 109452, Note_on_c, 6, 57, 96
6, 109456, Note_on_c, 6, 61, 96
6, 109459, Note_on_c, 6, 64, 96
6, 109536, Note_off_c, 6, 64, 0
6, 109536, Note_off_c, 6, 61, 0
6, 109536, Note_off_c, 6, 57, 0
6, 109536, Note_off_c, 6, 52, 0
6, 109536, Note_off_c, 6, 45, 0
6, 109632, Note_on_c, 6, 45, 96
6, 109641, Note_on_c, 6, 52, 96
6, 109644, Note_on_c, 6, 57, 96
6, 109648, Note_on_c, 6, 61, 96
6, 109651, Note_on_c, 6, 64, 96
6, 109920, Note_off_c, 6, 64, 0
6, 109920, Note_off_c, 6, 61, 0
6, 109920, Note_off_c, 6, 57, 0
6, 109920, Note_off_c, 6, 52, 0
6, 109920, Note_off_c, 6, 45, 0
6, 109920, Note_on_c, 6, 64, 96
6, 109929, Note_on_c, 6, 61, 96
6, 109932, Note_on_c, 6, 57, 96
6, 109936, Note_on_c, 6, 52, 96
6, 110016, Note_off_c, 6, 52, 0
6, 110016, Note_off_c, 6, 57, 0
6, 110016, Note_off_c, 6, 61, 0
6, 110016, Note_off_c, 6, 64, 0
6, 110016, Note_on_c, 6, 45, 96
6, 110025, Note_on_c, 6, 52, 96
6, 110028, Note_on_c, 6, 57, 96
6, 110032, Note_on_c, 6, 61, 96
6, 110035, Note_on_c, 6, 64, 96
6, 110208, Note_on_c, 6, 45, 96
6, 110217, Note_on_c, 6, 52, 96
6, 110220, Note_on_c, 6, 57, 96
6, 110224, Note_on_c, 6, 61, 96
6, 110227, Note_on_c, 6, 64, 96
6, 110304, Note_off_c, 6, 64, 0
6, 110304, Note_off_c, 6, 61, 0
6, 110304, Note_off_c, 6, 57, 0
6, 110304, Note_off_c, 6, 52, 0
6, 110304, Note_off_c, 6, 45, 0
6, 110304, Note_on_c, 6, 64, 96
6, 110316, Note_on_c, 6, 61, 96
6, 110320, Note_on_c, 6, 57, 96
6, 110323, Note_on_c, 6, 52, 96
6, 110400, Note_off_c, 6, 64, 0
6, 110400, Note_off_c, 6, 61, 0
6, 110400, Note_off_c, 6, 57, 0
6, 110400, Note_off_c, 6, 52, 0
6, 110400, Note_off_c, 6, 45, 0
6, 110592, Note_off_c, 6, 52, 0
6, 110592, Note_off_c, 6, 57, 0
6, 110592, Note_off_c, 6, 61, 0
6, 110592, Note_off_c, 6, 64, 0
6, 110592, Note_on_c, 6, 40, 96
6, 110598, Note_on_c, 6, 47, 96
6, 110601, Note_on_c, 6, 52, 96
6, 110604, Note_on_c, 6, 56, 96
6, 110608, Note_on_c, 6, 59, 96
6, 110611, Note_on_c, 6, 64, 96
6, 110880, Note_off_c, 6, 64, 0
6, 110880, Note_off_c, 6, 59, 0
6, 110880, Note_off_c, 6, 56, 0
6, 110880, Note_off_c, 6, 52, 0
6, 110880, Note_off_c, 6, 47, 0
6, 110880, Note_off_c, 6, 40, 0
6, 110889, Note_on_c, 6, 59, 96
6, 110892, Note_on_c, 6, 56, 96
6, 110896, Note_on_c, 6, 52, 96
6, 110899, Note_on_c, 6, 47, 96
6, 110899, Note_on_c, 6, 64, 96
6, 110976, Note_off_c, 6, 64, 0
6, 110976, Note_off_c, 6, 47, 0
6, 110976, Note_off_c, 6, 52, 0
6, 110976, Note_off_c, 6, 56, 0
6, 110976, Note_off_c, 6, 59, 0
6, 110976, Note_on_c, 6, 40, 96
6, 110985, Note_on_c, 6, 47, 96
6, 110988, Note_on_c, 6, 52, 96
6, 110992, Note_on_c, 6, 56, 96
6, 110995, Note_on_c, 6, 59, 96
6, 110998, Note_on_c, 6, 64, 96
6, 111072, Note_off_c, 6, 64, 0
6, 111072, Note_off_c, 6, 59, 0
6, 111072, Note_off_c, 6, 56, 0
6, 111072, Note_off_c, 6, 52, 0
6, 111072, Note_off_c, 6, 47, 0
6, 111072, Note_off_c, 6, 40, 0
6, 111168, Note_on_c, 6, 40, 96
6, 111177, Note_on_c, 6, 47, 96
6, 111180, Note_on_c, 6, 52, 96
6, 111184, Note_on_c, 6, 56, 96
6, 111187, Note_on_c, 6, 64, 96
6, 111187, Note_on_c, 6, 59, 96
6, 111456, Note_off_c, 6, 59, 0
6, 111456, Note_off_c, 6, 64, 0
6, 111456, Note_off_c, 6, 56, 0
6, 111456, Note_off_c, 6, 52, 0
6, 111456, Note_off_c, 6, 47, 0
6, 111456, Note_off_c, 6, 40, 0
6, 111456, Note_on_c, 6, 64, 96
6, 111465, Note_on_c, 6, 59, 96
6, 111468, Note_on_c, 6, 56, 96
6, 111472, Note_on_c, 6, 52, 96
6, 111475, Note_on_c, 6, 47, 96
6, 111552, Note_off_c, 6, 47, 0
6, 111552, Note_off_c, 6, 52, 0
6, 111552, Note_off_c, 6, 56, 0
6, 111552, Note_off_c, 6, 59, 0
6, 111552, Note_off_c, 6, 64, 0
6, 111552, Note_on_c, 6, 40, 96
6, 111561, Note_on_c, 6, 47, 96
6, 111564, Note_on_c, 6, 52, 96
6, 111568, Note_on_c, 6, 56, 96
6, 111571, Note_on_c, 6, 59, 96
6, 111574, Note_on_c, 6, 64, 96
6, 111744, Note_on_c, 6, 40, 96
6, 111750, Note_on_c, 6, 47, 96
6, 111753, Note_on_c, 6, 52, 96
6, 111756, Note_on_c, 6, 56, 96
6, 111760, Note_on_c, 6, 59, 96
6, 111763, Note_on_c, 6, 64, 96
6, 111840, Note_off_c, 6, 64, 0
6, 111840, Note_off_c, 6, 59, 0
6, 111840, Note_off_c, 6, 56, 0
6, 111840, Note_off_c, 6, 52, 0
6, 111840, Note_off_c, 6, 47, 0
6, 111840, Note_off_c, 6, 40, 0
6, 111840, Note_on_c, 6, 64, 96
6, 111849, Note_on_c, 6, 59, 96
6, 111852, Note_on_c, 6, 56, 96
6, 111856, Note_on_c, 6, 52, 96
6, 111859, Note_on_c, 6, 47, 96
6, 111936, Note_off_c, 6, 64, 0
6, 111936, Note_off_c, 6, 59, 0
6, 111936, Note_off_c, 6, 56, 0
6, 111936, Note_off_c, 6, 52, 0
6, 111936, Note_off_c, 6, 47, 0
6, 111936, Note_off_c, 6, 40, 0
6, 112128, Note_off_c, 6, 47, 0
6, 112128, Note_off_c, 6, 52, 0
6, 112128, Note_off_c, 6, 56, 0
6, 112128, Note_off_c, 6, 59, 0
6, 112128, Note_off_c, 6, 64, 0
6, 112128, Note_on_c, 6, 45, 96
6, 112137, Note_on_c, 6, 52, 96
6, 112140, Note_on_c, 6, 57, 96
6, 112144, Note_on_c, 6, 61, 96
6, 112147, Note_on_c, 6, 64, 96
6, 112416, Note_off_c, 6, 64, 0
6, 112416, Note_off_c, 6, 61, 0
6, 112416, Note_off_c, 6, 57, 0
6, 112416, Note_off_c, 6, 52, 0
6, 112416, Note_off_c, 6, 45, 0
6, 112425, Note_on_c, 6, 61, 96
6, 112428, Note_on_c, 6, 57, 96
6, 112432, Note_on_c, 6, 52, 96
6, 112435, Note_on_c, 6, 64, 96
6, 112512, Note_off_c, 6, 64, 0
6, 112512, Note_off_c, 6, 52, 0
6, 112512, Note_off_c, 6, 57, 0
6, 112512, Note_off_c, 6, 61, 0
6, 112512, Note_on_c, 6, 45, 96
6, 112521, Note_on_c, 6, 52, 96
6, 112524, Note_on_c, 6, 57, 96
6, 112528, Note_on_c, 6, 61, 96
6, 112531, Note_on_c, 6, 64, 96
6, 112608, Note_off_c, 6, 64, 0
6, 112608, Note_off_c, 6, 61, 0
6, 112608, Note_off_c, 6, 57, 0
6, 112608, Note_off_c, 6, 52, 0
6, 112608, Note_off_c, 6, 45, 0
6, 112704, Note_on_c, 6, 45, 96
6, 112713, Note_on_c, 6, 52, 96
6, 112716, Note_on_c, 6, 57, 96
6, 112720, Note_on_c, 6, 61, 96
6, 112723, Note_on_c, 6, 64, 96
6, 112992, Note_off_c, 6, 64, 0
6, 112992, Note_off_c, 6, 61, 0
6, 112992, Note_off_c, 6, 57, 0
6, 112992, Note_off_c, 6, 52, 0
6, 112992, Note_off_c, 6, 45, 0
6, 112992, Note_on_c, 6, 64, 96
6, 113001, Note_on_c, 6, 61, 96
6, 113004, Note_on_c, 6, 57, 96
6, 113008, Note_on_c, 6, 52, 96
6, 113088, Note_off_c, 6, 52, 0
6, 113088, Note_off_c, 6, 57, 0
6, 113088, Note_off_c, 6, 61, 0
6, 113088, Note_off_c, 6, 64, 0
6, 113088, Note_on_c, 6, 45, 96
6, 113097, Note_on_c, 6, 52, 96
6, 113100, Note_on_c, 6, 57, 96
6, 113104, Note_on_c, 6, 61, 96
6, 113107, Note_on_c, 6, 64, 96
6, 113280, Note_on_c, 6, 45, 96
6, 113289, Note_on_c, 6, 52, 96
6, 113292, Note_on_c, 6, 57, 96
6, 113296, Note_on_c, 6, 61, 96
6, 113299, Note_on_c, 6, 64, 96
6, 113376, Note_off_c, 6, 64, 0
6, 113376, Note_off_c, 6, 61, 0
6, 113376, Note_off_c, 6, 57, 0
6, 113376, Note_off_c, 6, 52, 0
6, 113376, Note_off_c, 6, 45, 0
6, 113376, Note_on_c, 6, 64, 96
6, 113388, Note_on_c, 6, 61, 96
6, 113392, Note_on_c, 6, 57, 96
6, 113395, Note_on_c, 6, 52, 96
6, 113472, Note_off_c, 6, 64, 0
6, 113472, Note_off_c, 6, 61, 0
6, 113472, Note_off_c, 6, 57, 0
6, 113472, Note_off_c, 6, 52, 0
6, 113472, Note_off_c, 6, 45, 0
6, 113664, Note_off_c, 6, 52, 0
6, 113664, Note_off_c, 6, 57, 0
6, 113664, Note_off_c, 6, 61, 0
6, 113664, Note_off_c, 6, 64, 0
6, 113664, Note_on_c, 6, 40, 96
6, 113670, Note_on_c, 6, 47, 96
6, 113673, Note_on_c, 6, 52, 96
6, 113676, Note_on_c, 6, 56, 96
6, 113680, Note_on_c, 6, 59, 96
6, 113683, Note_on_c, 6, 64, 96
6, 113952, Note_off_c, 6, 64, 0
6, 113952, Note_off_c, 6, 59, 0
6, 113952, Note_off_c, 6, 56, 0
6, 113952, Note_off_c, 6, 52, 0
6, 113952, Note_off_c, 6, 47, 0
6, 113952, Note_off_c, 6, 40, 0
6, 113961, Note_on_c, 6, 59, 96
6, 113964, Note_on_c, 6, 56, 96
6, 113968, Note_on_c, 6, 52, 96
6, 113971, Note_on_c, 6, 47, 96
6, 113971, Note_on_c, 6, 64, 96
6, 114048, Note_off_c, 6, 64, 0
6, 114048, Note_off_c, 6, 47, 0
6, 114048, Note_off_c, 6, 52, 0
6, 114048, Note_off_c, 6, 56, 0
6, 114048, Note_off_c, 6, 59, 0
6, 114048, Note_on_c, 6, 40, 96
6, 114057, Note_on_c, 6, 47, 96
6, 114060, Note_on_c, 6, 52, 96
6, 114064, Note_on_c, 6, 56, 96
6, 114067, Note_on_c, 6, 59, 96
6, 114070, Note_on_c, 6, 64, 96
6, 114144, Note_off_c, 6, 64, 0
6, 114144, Note_off_c, 6, 59, 0
6, 114144, Note_off_c, 6, 56, 0
6, 114144, Note_off_c, 6, 52, 0
6, 114144, Note_off_c, 6, 47, 0
6, 114144, Note_off_c, 6, 40, 0
6, 114240, Note_on_c, 6, 40, 96
6, 114249, Note_on_c, 6, 47, 96
6, 114252, Note_on_c, 6, 52, 96
6, 114256, Note_on_c, 6, 56, 96
6, 114259, Note_on_c, 6, 64, 96
6, 114259, Note_on_c, 6, 59, 96
6, 114528, Note_off_c, 6, 59, 0
6, 114528, Note_off_c, 6, 64, 0
6, 114528, Note_off_c, 6, 56, 0
6, 114528, Note_off_c, 6, 52, 0
6, 114528, Note_off_c, 6, 47, 0
6, 114528, Note_off_c, 6, 40, 0
6, 114528, Note_on_c, 6, 64, 96
6, 114537, Note_on_c, 6, 59, 96
6, 114540, Note_on_c, 6, 56, 96
6, 114544, Note_on_c, 6, 52, 96
6, 114547, Note_on_c, 6, 47, 96
6, 114624, Note_off_c, 6, 47, 0
6, 114624, Note_off_c, 6, 52, 0
6, 114624, Note_off_c, 6, 56, 0
6, 114624, Note_off_c, 6, 59, 0
6, 114624, Note_off_c, 6, 64, 0
6, 114624, Note_on_c, 6, 40, 96
6, 114633, Note_on_c, 6, 47, 96
6, 114636, Note_on_c, 6, 52, 96
6, 114640, Note_on_c, 6, 56, 96
6, 114643, Note_on_c, 6, 59, 96
6, 114646, Note_on_c, 6, 64, 96
6, 114816, Note_on_c, 6, 40, 96
6, 114822, Note_on_c, 6, 47, 96
6, 114825, Note_on_c, 6, 52, 96
6, 114828, Note_on_c, 6, 56, 96
6, 114832, Note_on_c, 6, 59, 96
6, 114835, Note_on_c, 6, 64, 96
6, 114912, Note_off_c, 6, 64, 0
6, 114912, Note_off_c, 6, 59, 0
6, 114912, Note_off_c, 6, 56, 0
6, 114912, Note_off_c, 6, 52, 0
6, 114912, Note_off_c, 6, 47, 0
6, 114912, Note_off_c, 6, 40, 0
6, 114912, Note_on_c, 6, 64, 96
6, 114921, Note_on_c, 6, 59, 96
6, 114924, Note_on_c, 6, 56, 96
6, 114928, Note_on_c, 6, 52, 96
6, 114931, Note_on_c, 6, 47, 96
6, 115008, Note_off_c, 6, 64, 0
6, 115008, Note_off_c, 6, 59, 0
6, 115008, Note_off_c, 6, 56, 0
6, 115008, Note_off_c, 6, 52, 0
6, 115008, Note_off_c, 6, 47, 0
6, 115008, Note_off_c, 6, 40, 0
6, 115200, Note_off_c, 6, 47, 0
6, 115200, Note_off_c, 6, 52, 0
6, 115200, Note_off_c, 6, 56, 0
6, 115200, Note_off_c, 6, 59, 0
6, 115200, Note_off_c, 6, 64, 0
6, 115200, Note_on_c, 6, 45, 96
6, 115209, Note_on_c, 6, 52, 96
6, 115212, Note_on_c, 6, 57, 96
6, 115216, Note_on_c, 6, 61, 96
6, 115219, Note_on_c, 6, 64, 96
6, 115488, Note_off_c, 6, 64, 0
6, 115488, Note_off_c, 6, 61, 0
6, 115488, Note_off_c, 6, 57, 0
6, 115488, Note_off_c, 6, 52, 0
6, 115488, Note_off_c, 6, 45, 0
6, 115497, Note_on_c, 6, 61, 96
6, 115500, Note_on_c, 6, 57, 96
6, 115504, Note_on_c, 6, 52, 96
6, 115507, Note_on_c, 6, 64, 96
6, 115584, Note_off_c, 6, 64, 0
6, 115584, Note_off_c, 6, 52, 0
6, 115584, Note_off_c, 6, 57, 0
6, 115584, Note_off_c, 6, 61, 0
6, 115584, Note_on_c, 6, 45, 96
6, 115593, Note_on_c, 6, 52, 96
6, 115596, Note_on_c, 6, 57, 96
6, 115600, Note_on_c, 6, 61, 96
6, 115603, Note_on_c, 6, 64, 96
6, 115680, Note_off_c, 6, 64, 0
6, 115680, Note_off_c, 6, 61, 0
6, 115680, Note_off_c, 6, 57, 0
6, 115680, Note_off_c, 6, 52, 0
6, 115680, Note_off_c, 6, 45, 0
6, 115776, Note_on_c, 6, 45, 96
6, 115785, Note_on_c, 6, 52, 96
6, 115788, Note_on_c, 6, 57, 96
6, 115792, Note_on_c, 6, 61, 96
6, 115795, Note_on_c, 6, 64, 96
6, 116064, Note_off_c, 6, 64, 0
6, 116064, Note_off_c, 6, 61, 0
6, 116064, Note_off_c, 6, 57, 0
6, 116064, Note_off_c, 6, 52, 0
6, 116064, Note_off_c, 6, 45, 0
6, 116064, Note_on_c, 6, 64, 96
6, 116073, Note_on_c, 6, 61, 96
6, 116076, Note_on_c, 6, 57, 96
6, 116080, Note_on_c, 6, 52, 96
6, 116160, Note_off_c, 6, 52, 0
6, 116160, Note_off_c, 6, 57, 0
6, 116160, Note_off_c, 6, 61, 0
6, 116160, Note_off_c, 6, 64, 0
6, 116160, Note_on_c, 6, 45, 96
6, 116169, Note_on_c, 6, 52, 96
6, 116172, Note_on_c, 6, 57, 96
6, 116176, Note_on_c, 6, 61, 96
6, 116179, Note_on_c, 6, 64, 96
6, 116352, Note_on_c, 6, 45, 96
6, 116361, Note_on_c, 6, 52, 96
6, 116364, Note_on_c, 6, 57, 96
6, 116368, Note_on_c, 6, 61, 96
6, 116371, Note_on_c, 6, 64, 96
6, 116448, Note_off_c, 6, 64, 0
6, 116448, Note_off_c, 6, 61, 0
6, 116448, Note_off_c, 6, 57, 0
6, 116448, Note_off_c, 6, 52, 0
6, 116448, Note_off_c, 6, 45, 0
6, 116448, Note_on_c, 6, 64, 96
6, 116460, Note_on_c, 6, 61, 96
6, 116464, Note_on_c, 6, 57, 96
6, 116467, Note_on_c, 6, 52, 96
6, 116544, Note_off_c, 6, 64, 0
6, 116544, Note_off_c, 6, 61, 0
6, 116544, Note_off_c, 6, 57, 0
6, 116544, Note_off_c, 6, 52, 0
6, 116544, Note_off_c, 6, 45, 0
6, 116736, Note_off_c, 6, 52, 0
6, 116736, Note_off_c, 6, 57, 0
6, 116736, Note_off_c, 6, 61, 0
6, 116736, Note_off_c, 6, 64, 0
6, 116736, Note_on_c, 6, 40, 96
6, 116742, Note_on_c, 6, 47, 96
6, 116745, Note_on_c, 6, 52, 96
6, 116748, Note_on_c, 6, 56, 96
6, 116752, Note_on_c, 6, 59, 96
6, 116755, Note_on_c, 6, 64, 96
6, 117024, Note_off_c, 6, 64, 0
6, 117024, Note_off_c, 6, 59, 0
6, 117024, Note_off_c, 6, 56, 0
6, 117024, Note_off_c, 6, 52, 0
6, 117024, Note_off_c, 6, 47, 0
6, 117024, Note_off_c, 6, 40, 0
6, 117033, Note_on_c, 6, 59, 96
6, 117036, Note_on_c, 6, 56, 96
6, 117040, Note_on_c, 6, 52, 96
6, 117043, Note_on_c, 6, 47, 96
6, 117043, Note_on_c, 6, 64, 96
6, 117120, Note_off_c, 6, 64, 0
6, 117120, Note_off_c, 6, 47, 0
6, 117120, Note_off_c, 6, 52, 0
6, 117120, Note_off_c, 6, 56, 0
6, 117120, Note_off_c, 6, 59, 0
6, 117120, Note_on_c, 6, 40, 96
6, 117129, Note_on_c, 6, 47, 96
6, 117132, Note_on_c, 6, 52, 96
6, 117136, Note_on_c, 6, 56, 96
6, 117139, Note_on_c, 6, 59, 96
6, 117142, Note_on_c, 6, 64, 96
6, 117216, Note_off_c, 6, 64, 0
6, 117216, Note_off_c, 6, 59, 0
6, 117216, Note_off_c, 6, 56, 0
6, 117216, Note_off_c, 6, 52, 0
6, 117216, Note_off_c, 6, 47, 0
6, 117216, Note_off_c, 6, 40, 0
6, 117312, Note_on_c, 6, 40, 96
6, 117321, Note_on_c, 6, 47, 96
6, 117324, Note_on_c, 6, 52, 96
6, 117328, Note_on_c, 6, 56, 96
6, 117331, Note_on_c, 6, 64, 96
6, 117331, Note_on_c, 6, 59, 96
6, 117600, Note_off_c, 6, 59, 0
6, 117600, Note_off_c, 6, 64, 0
6, 117600, Note_off_c, 6, 56, 0
6, 117600, Note_off_c, 6, 52, 0
6, 117600, Note_off_c, 6, 47, 0
6, 117600, Note_off_c, 6, 40, 0
6, 117600, Note_on_c, 6, 64, 96
6, 117609, Note_on_c, 6, 59, 96
6, 117612, Note_on_c, 6, 56, 96
6, 117616, Note_on_c, 6, 52, 96
6, 117619, Note_on_c, 6, 47, 96
6, 117696, Note_off_c, 6, 47, 0
6, 117696, Note_off_c, 6, 52, 0
6, 117696, Note_off_c, 6, 56, 0
6, 117696, Note_off_c, 6, 59, 0
6, 117696, Note_off_c, 6, 64, 0
6, 117696, Note_on_c, 6, 40, 96
6, 117705, Note_on_c, 6, 47, 96
6, 117708, Note_on_c, 6, 52, 96
6, 117712, Note_on_c, 6, 56, 96
6, 117715, Note_on_c, 6, 59, 96
6, 117718, Note_on_c, 6, 64, 96
6, 117888, Note_on_c, 6, 40, 96
6, 117894, Note_on_c, 6, 47, 96
6, 117897, Note_on_c, 6, 52, 96
6, 117900, Note_on_c, 6, 56, 96
6, 117904, Note_on_c, 6, 59, 96
6, 117907, Note_on_c, 6, 64, 96
6, 117984, Note_off_c, 6, 64, 0
6, 117984, Note_off_c, 6, 59, 0
6, 117984, Note_off_c, 6, 56, 0
6, 117984, Note_off_c, 6, 52, 0
6, 117984, Note_off_c, 6, 47, 0
6, 117984, Note_off_c, 6, 40, 0
6, 117984, Note_on_c, 6, 64, 96
6, 117993, Note_on_c, 6, 59, 96
6, 117996, Note_on_c, 6, 56, 96
6, 118000, Note_on_c, 6, 52, 96
6, 118003, Note_on_c, 6, 47, 96
6, 118080, Note_off_c, 6, 64, 0
6, 118080, Note_off_c, 6, 59, 0
6, 118080, Note_off_c, 6, 56, 0
6, 118080, Note_off_c, 6, 52, 0
6, 118080, Note_off_c, 6, 47, 0
6, 118080, Note_off_c, 6, 40, 0
6, 118272, Note_off_c, 6, 47, 0
6, 118272, Note_off_c, 6, 52, 0
6, 118272, Note_off_c, 6, 56, 0
6, 118272, Note_off_c, 6, 59, 0
6, 118272, Note_off_c, 6, 64, 0
6, 118272, Note_on_c, 6, 45, 96
6, 118281, Note_on_c, 6, 52, 96
6, 118284, Note_on_c, 6, 57, 96
6, 118288, Note_on_c, 6, 61, 96
6, 118291, Note_on_c, 6, 64, 96
6, 118560, Note_off_c, 6, 64, 0
6, 118560, Note_off_c, 6, 61, 0
6, 118560, Note_off_c, 6, 57, 0
6, 118560, Note_off_c, 6, 52, 0
6, 118560, Note_off_c, 6, 45, 0
6, 118569, Note_on_c, 6, 61, 96
6, 118572, Note_on_c, 6, 57, 96
6, 118576, Note_on_c, 6, 52, 96
6, 118579, Note_on_c, 6, 64, 96
6, 118656, Note_off_c, 6, 64, 0
6, 118656, Note_off_c, 6, 52, 0
6, 118656, Note_off_c, 6, 57, 0
6, 118656, Note_off_c, 6, 61, 0
6, 118656, Note_on_c, 6, 45, 96
6, 118665, Note_on_c, 6, 52, 96
6, 118668, Note_on_c, 6, 57, 96
6, 118672, Note_on_c, 6, 61, 96
6, 118675, Note_on_c, 6, 64, 96
6, 118752, Note_off_c, 6, 64, 0
6, 118752, Note_off_c, 6, 61, 0
6, 118752, Note_off_c, 6, 57, 0
6, 118752, Note_off_c, 6, 52, 0
6, 118752, Note_off_c, 6, 45, 0
6, 118848, Note_on_c, 6, 45, 96
6, 118857, Note_on_c, 6, 52, 96
6, 118860, Note_on_c, 6, 57, 96
6, 118864, Note_on_c, 6, 61, 96
6, 118867, Note_on_c, 6, 64, 96
6, 119136, Note_off_c, 6, 64, 0
6, 119136, Note_off_c, 6, 61, 0
6, 119136, Note_off_c, 6, 57, 0
6, 119136, Note_off_c, 6, 52, 0
6, 119136, Note_off_c, 6, 45, 0
6, 119136, Note_on_c, 6, 64, 96
6, 119145, Note_on_c, 6, 61, 96
6, 119148, Note_on_c, 6, 57, 96
6, 119152, Note_on_c, 6, 52, 96
6, 119232, Note_off_c, 6, 52, 0
6, 119232, Note_off_c, 6, 57, 0
6, 119232, Note_off_c, 6, 61, 0
6, 119232, Note_off_c, 6, 64, 0
6, 119232, Note_on_c, 6, 45, 96
6, 119241, Note_on_c, 6, 52, 96
6, 119244, Note_on_c, 6, 57, 96
6, 119248, Note_on_c, 6, 61, 96
6, 119251, Note_on_c, 6, 64, 96
6, 119424, Note_on_c, 6, 45, 96
6, 119433, Note_on_c, 6, 52, 96
6, 119436, Note_on_c, 6, 57, 96
6, 119440, Note_on_c, 6, 61, 96
6, 119443, Note_on_c, 6, 64, 96
6, 119520, Note_off_c, 6, 64, 0
6, 119520, Note_off_c, 6, 61, 0
6, 119520, Note_off_c, 6, 57, 0
6, 119520, Note_off_c, 6, 52, 0
6, 119520, Note_off_c, 6, 45, 0
6, 119520, Note_on_c, 6, 64, 96
6, 119532, Note_on_c, 6, 61, 96
6, 119536, Note_on_c, 6, 57, 96
6, 119539, Note_on_c, 6, 52, 96
6, 119616, Note_off_c, 6, 64, 0
6, 119616, Note_off_c, 6, 61, 0
6, 119616, Note_off_c, 6, 57, 0
6, 119616, Note_off_c, 6, 52, 0
6, 119616, Note_off_c, 6, 45, 0
6, 119808, Note_off_c, 6, 52, 0
6, 119808, Note_off_c, 6, 57, 0
6, 119808, Note_off_c, 6, 61, 0
6, 119808, Note_off_c, 6, 64, 0
6, 119808, Note_on_c, 6, 40, 96
6, 119814, Note_on_c, 6, 47, 96
6, 119817, Note_on_c, 6, 52, 96
6, 119820, Note_on_c, 6, 56, 96
6, 119824, Note_on_c, 6, 59, 96
6, 119827, Note_on_c, 6, 64, 96
6, 120096, Note_off_c, 6, 64, 0
6, 120096, Note_off_c, 6, 59, 0
6, 120096, Note_off_c, 6, 56, 0
6, 120096, Note_off_c, 6, 52, 0
6, 120096, Note_off_c, 6, 47, 0
6, 120096, Note_off_c, 6, 40, 0
6, 120105, Note_on_c, 6, 59, 96
6, 120108, Note_on_c, 6, 56, 96
6, 120112, Note_on_c, 6, 52, 96
6, 120115, Note_on_c, 6, 47, 96
6, 120115, Note_on_c, 6, 64, 96
6, 120192, Note_off_c, 6, 64, 0
6, 120192, Note_off_c, 6, 47, 0
6, 120192, Note_off_c, 6, 52, 0
6, 120192, Note_off_c, 6, 56, 0
6, 120192, Note_off_c, 6, 59, 0
6, 120192, Note_on_c, 6, 40, 96
6, 120201, Note_on_c, 6, 47, 96
6, 120204, Note_on_c, 6, 52, 96
6, 120208, Note_on_c, 6, 56, 96
6, 120211, Note_on_c, 6, 59, 96
6, 120214, Note_on_c, 6, 64, 96
6, 120288, Note_off_c, 6, 64, 0
6, 120288, Note_off_c, 6, 59, 0
6, 120288, Note_off_c, 6, 56, 0
6, 120288, Note_off_c, 6, 52, 0
6, 120288, Note_off_c, 6, 47, 0
6, 120288, Note_off_c, 6, 40, 0
6, 120384, Note_on_c, 6, 40, 96
6, 120393, Note_on_c, 6, 47, 96
6, 120396, Note_on_c, 6, 52, 96
6, 120400, Note_on_c, 6, 56, 96
6, 120403, Note_on_c, 6, 64, 96
6, 120403, Note_on_c, 6, 59, 96
6, 120672, Note_off_c, 6, 59, 0
6, 120672, Note_off_c, 6, 64, 0
6, 120672, Note_off_c, 6, 56, 0
6, 120672, Note_off_c, 6, 52, 0
6, 120672, Note_off_c, 6, 47, 0
6, 120672, Note_off_c, 6, 40, 0
6, 120672, Note_on_c, 6, 64, 96
6, 120681, Note_on_c, 6, 59, 96
6, 120684, Note_on_c, 6, 56, 96
6, 120688, Note_on_c, 6, 52, 96
6, 120691, Note_on_c, 6, 47, 96
6, 120768, Note_off_c, 6, 47, 0
6, 120768, Note_off_c, 6, 52, 0
6, 120768, Note_off_c, 6, 56, 0
6, 120768, Note_off_c, 6, 59, 0
6, 120768, Note_off_c, 6, 64, 0
6, 120768, Note_on_c, 6, 40, 96
6, 120777, Note_on_c, 6, 47, 96
6, 120780, Note_on_c, 6, 52, 96
6, 120784, Note_on_c, 6, 56, 96
6, 120787, Note_on_c, 6, 59, 96
6, 120790, Note_on_c, 6, 64, 96
6, 120960, Note_on_c, 6, 40, 96
6, 120966, Note_on_c, 6, 47, 96
6, 120969, Note_on_c, 6, 52, 96
6, 120972, Note_on_c, 6, 56, 96
6, 120976, Note_on_c, 6, 59, 96
6, 120979, Note_on_c, 6, 64, 96
6, 121056, Note_off_c, 6, 64, 0
6, 121056, Note_off_c, 6, 59, 0
6, 121056, Note_off_c, 6, 56, 0
6, 121056, Note_off_c, 6, 52, 0
6, 121056, Note_off_c, 6, 47, 0
6, 121056, Note_off_c, 6, 40, 0
6, 121056, Note_on_c, 6, 64, 96
6, 121065, Note_on_c, 6, 59, 96
6, 121068, Note_on_c, 6, 56, 96
6, 121072, Note_on_c, 6, 52, 96
6, 121075, Note_on_c, 6, 47, 96
6, 121152, Note_off_c, 6, 64, 0
6, 121152, Note_off_c, 6, 59, 0
6, 121152, Note_off_c, 6, 56, 0
6, 121152, Note_off_c, 6, 52, 0
6, 121152, Note_off_c, 6, 47, 0
6, 121152, Note_off_c, 6, 40, 0
6, 121344, Note_off_c, 6, 47, 0
6, 121344, Note_off_c, 6, 52, 0
6, 121344, Note_off_c, 6, 56, 0
6, 121344, Note_off_c, 6, 59, 0
6, 121344, Note_off_c, 6, 64, 0
6, 121344, Note_on_c, 6, 45, 96
6, 121353, Note_on_c, 6, 52, 96
6, 121356, Note_on_c, 6, 57, 96
6, 121360, Note_on_c, 6, 61, 96
6, 121363, Note_on_c, 6, 64, 96
6, 121632, Note_off_c, 6, 64, 0
6, 121632, Note_off_c, 6, 61, 0
6, 121632, Note_off_c, 6, 57, 0
6, 121632, Note_off_c, 6, 52, 0
6, 121632, Note_off_c, 6, 45, 0
6, 121641, Note_on_c, 6, 61, 96
6, 121644, Note_on_c, 6, 57, 96
6, 121648, Note_on_c, 6, 52, 96
6, 121651, Note_on_c, 6, 64, 96
6, 121728, Note_off_c, 6, 64, 0
6, 121728, Note_off_c, 6, 52, 0
6, 121728, Note_off_c, 6, 57, 0
6, 121728, Note_off_c, 6, 61, 0
6, 121728, Note_on_c, 6, 45, 96
6, 121737, Note_on_c, 6, 52, 96
6, 121740, Note_on_c, 6, 57, 96
6, 121744, Note_on_c, 6, 61, 96
6, 121747, Note_on_c, 6, 64, 96
6, 121824, Note_off_c, 6, 64, 0
6, 121824, Note_off_c, 6, 61, 0
6, 121824, Note_off_c, 6, 57, 0
6, 121824, Note_off_c, 6, 52, 0
6, 121824, Note_off_c, 6, 45, 0
6, 121920, Note_on_c, 6, 45, 96
6, 121929, Note_on_c, 6, 52, 96
6, 121932, Note_on_c, 6, 57, 96
6, 121936, Note_on_c, 6, 61, 96
6, 121939, Note_on_c, 6, 64, 96
6, 122208, Note_off_c, 6, 64, 0
6, 122208, Note_off_c, 6, 61, 0
6, 122208, Note_off_c, 6, 57, 0
6, 122208, Note_off_c, 6, 52, 0
6, 122208, Note_off_c, 6, 45, 0
6, 122208, Note_on_c, 6, 64, 96
6, 122217, Note_on_c, 6, 61, 96
6, 122220, Note_on_c, 6, 57, 96
6, 122224, Note_on_c, 6, 52, 96
6, 122304, Note_off_c, 6, 52, 0
6, 122304, Note_off_c, 6, 57, 0
6, 122304, Note_off_c, 6, 61, 0
6, 122304, Note_off_c, 6, 64, 0
6, 122304, Note_on_c, 6, 45, 96
6, 122313, Note_on_c, 6, 52, 96
6, 122316, Note_on_c, 6, 57, 96
6, 122320, Note_on_c, 6, 61, 96
6, 122323, Note_on_c, 6, 64, 96
6, 122496, Note_on_c, 6, 45, 96
6, 122505, Note_on_c, 6, 52, 96
6, 122508, Note_on_c, 6, 57, 96
6, 122512, Note_on_c, 6, 61, 96
6, 122515, Note_on_c, 6, 64, 96
6, 122592, Note_off_c, 6, 64, 0
6, 122592, Note_off_c, 6, 61, 0
6, 122592, Note_off_c, 6, 57, 0
6, 122592, Note_off_c, 6, 52, 0
6, 122592, Note_off_c, 6, 45, 0
6, 122592, Note_on_c, 6, 64, 96
6, 122604, Note_on_c, 6, 61, 96
6, 122608, Note_on_c, 6, 57, 96
6, 122611, Note_on_c, 6, 52, 96
6, 122688, Note_off_c, 6, 64, 0
6, 122688, Note_off_c, 6, 61, 0
6, 122688, Note_off_c, 6, 57, 0
6, 122688, Note_off_c, 6, 52, 0
6, 122688, Note_off_c, 6, 45, 0
6, 122880, Note_off_c, 6, 52, 0
6, 122880, Note_off_c, 6, 57, 0
6, 122880, Note_off_c, 6, 61, 0
6, 122880, Note_off_c, 6, 64, 0
6, 122880, Note_on_c, 6, 40, 96
6, 122886, Note_on_c, 6, 47, 96
6, 122889, Note_on_c, 6, 52, 96
6, 122892, Note_on_c, 6, 56, 96
6, 122896, Note_on_c, 6, 59, 96
6, 122899, Note_on_c, 6, 64, 96
6, 123168, Note_off_c, 6, 64, 0
6, 123168, Note_off_c, 6, 59, 0
6, 123168, Note_off_c, 6, 56, 0
6, 123168, Note_off_c, 6, 52, 0
6, 123168, Note_off_c, 6, 47, 0
6, 123168, Note_off_c, 6, 40, 0
6, 123177, Note_on_c, 6, 59, 96
6, 123180, Note_on_c, 6, 56, 96
6, 123184, Note_on_c, 6, 52, 96
6, 123187, Note_on_c, 6, 47, 96
6, 123187, Note_on_c, 6, 64, 96
6, 123264, Note_off_c, 6, 64, 0
6, 123264, Note_off_c, 6, 47, 0
6, 123264, Note_off_c, 6, 52, 0
6, 123264, Note_off_c, 6, 56, 0
6, 123264, Note_off_c, 6, 59, 0
6, 123264, Note_on_c, 6, 40, 96
6, 123273, Note_on_c, 6, 47, 96
6, 123276, Note_on_c, 6, 52, 96
6, 123280, Note_on_c, 6, 56, 96
6, 123283, Note_on_c, 6, 59, 96
6, 123286, Note_on_c, 6, 64, 96
6, 123360, Note_off_c, 6, 64, 0
6, 123360, Note_off_c, 6, 59, 0
6, 123360, Note_off_c, 6, 56, 0
6, 123360, Note_off_c, 6, 52, 0
6, 123360, Note_off_c, 6, 47, 0
6, 123360, Note_off_c, 6, 40, 0
6, 123456, Note_on_c, 6, 40, 96
6, 123465, Note_on_c, 6, 47, 96
6, 123468, Note_on_c, 6, 52, 96
6, 123472, Note_on_c, 6, 56, 96
6, 123475, Note_on_c, 6, 64, 96
6, 123475, Note_on_c, 6, 59, 96
6, 123744, Note_off_c, 6, 59, 0
6, 123744, Note_off_c, 6, 64, 0
6, 123744, Note_off_c, 6, 56, 0
6, 123744, Note_off_c, 6, 52, 0
6, 123744, Note_off_c, 6, 47, 0
6, 123744, Note_off_c, 6, 40, 0
6, 123744, Note_on_c, 6, 64, 96
6, 123753, Note_on_c, 6, 59, 96
6, 123756, Note_on_c, 6, 56, 96
6, 123760, Note_on_c, 6, 52, 96
6, 123763, Note_on_c, 6, 47, 96
6, 123840, Note_off_c, 6, 47, 0
6, 123840, Note_off_c, 6, 52, 0
6, 123840, Note_off_c, 6, 56, 0
6, 123840, Note_off_c, 6, 59, 0
6, 123840, Note_off_c, 6, 64, 0
6, 123840, Note_on_c, 6, 40, 96
6, 123849, Note_on_c, 6, 47, 96
6, 123852, Note_on_c, 6, 52, 96
6, 123856, Note_on_c, 6, 56, 96
6, 123859, Note_on_c, 6, 59, 96
6, 123862, Note_on_c, 6, 64, 96
6, 124032, Note_on_c, 6, 40, 96
6, 124038, Note_on_c, 6, 47, 96
6, 124041, Note_on_c, 6, 52, 96
6, 124044, Note_on_c, 6, 56, 96
6, 124048, Note_on_c, 6, 59, 96
6, 124051, Note_on_c, 6, 64, 96
6, 124128, Note_off_c, 6, 64, 0
6, 124128, Note_off_c, 6, 59, 0
6, 124128, Note_off_c, 6, 56, 0
6, 124128, Note_off_c, 6, 52, 0
6, 124128, Note_off_c, 6, 47, 0
6, 124128, Note_off_c, 6, 40, 0
6, 124128, Note_on_c, 6, 64, 96
6, 124137, Note_on_c, 6, 59, 96
6, 124140, Note_on_c, 6, 56, 96
6, 124144, Note_on_c, 6, 52, 96
6, 124147, Note_on_c, 6, 47, 96
6, 124224, Note_off_c, 6, 64, 0
6, 124224, Note_off_c, 6, 59, 0
6, 124224, Note_off_c, 6, 56, 0
6, 124224, Note_off_c, 6, 52, 0
6, 124224, Note_off_c, 6, 47, 0
6, 124224, Note_off_c, 6, 40, 0
6, 124416, Note_off_c, 6, 47, 0
6, 124416, Note_off_c, 6, 52, 0
6, 124416, Note_off_c, 6, 56, 0
6, 124416, Note_off_c, 6, 59, 0
6, 124416, Note_off_c, 6, 64, 0
6, 124416, Note_on_c, 6, 45, 96
6, 124425, Note_on_c, 6, 52, 96
6, 124428, Note_on_c, 6, 57, 96
6, 124432, Note_on_c, 6, 61, 96
6, 124435, Note_on_c, 6, 64, 96
6, 124704, Note_off_c, 6, 64, 0
6, 124704, Note_off_c, 6, 61, 0
6, 124704, Note_off_c, 6, 57, 0
6, 124704, Note_off_c, 6, 52, 0
6, 124704, Note_off_c, 6, 45, 0
6, 124713, Note_on_c, 6, 61, 96
6, 124716, Note_on_c, 6, 57, 96
6, 124720, Note_on_c, 6, 52, 96
6, 124723, Note_on_c, 6, 64, 96
6, 124800, Note_off_c, 6, 64, 0
6, 124800, Note_off_c, 6, 52, 0
6, 124800, Note_off_c, 6, 57, 0
6, 124800, Note_off_c, 6, 61, 0
6, 124800, Note_on_c, 6, 45, 96
6, 124809, Note_on_c, 6, 52, 96
6, 124812, Note_on_c, 6, 57, 96
6, 124816, Note_on_c, 6, 61, 96
6, 124819, Note_on_c, 6, 64, 96
6, 124896, Note_off_c, 6, 64, 0
6, 124896, Note_off_c, 6, 61, 0
6, 124896, Note_off_c, 6, 57, 0
6, 124896, Note_off_c, 6, 52, 0
6, 124896, Note_off_c, 6, 45, 0
6, 124992, Note_on_c, 6, 45, 96
6, 125001, Note_on_c, 6, 52, 96
6, 125004, Note_on_c, 6, 57, 96
6, 125008, Note_on_c, 6, 61, 96
6, 125011, Note_on_c, 6, 64, 96
6, 125280, Note_off_c, 6, 64, 0
6, 125280, Note_off_c, 6, 61, 0
6, 125280, Note_off_c, 6, 57, 0
6, 125280, Note_off_c, 6, 52, 0
6, 125280, Note_off_c, 6, 45, 0
6, 125280, Note_on_c, 6, 64, 96
6, 125289, Note_on_c, 6, 61, 96
6, 125292, Note_on_c, 6, 57, 96
6, 125296, Note_on_c, 6, 52, 96
6, 125376, Note_off_c, 6, 52, 0
6, 125376, Note_off_c, 6, 57, 0
6, 125376, Note_off_c, 6, 61, 0
6, 125376, Note_off_c, 6, 64, 0
6, 125376, Note_on_c, 6, 45, 96
6, 125385, Note_on_c, 6, 52, 96
6, 125388, Note_on_c, 6, 57, 96
6, 125392, Note_on_c, 6, 61, 96
6, 125395, Note_on_c, 6, 64, 96
6, 125568, Note_on_c, 6, 45, 96
6, 125577, Note_on_c, 6, 52, 96
6, 125580, Note_on_c, 6, 57, 96
6, 125584, Note_on_c, 6, 61, 96
6, 125587, Note_on_c, 6, 64, 96
6, 125664, Note_off_c, 6, 64, 0
6, 125664, Note_off_c, 6, 61, 0
6, 125664, Note_off_c, 6, 57, 0
6, 125664, Note_off_c, 6, 52, 0
6, 125664, Note_off_c, 6, 45, 0
6, 125664, Note_on_c, 6, 64, 96
6, 125676, Note_on_c, 6, 61, 96
6, 125680, Note_on_c, 6, 57, 96
6, 125683, Note_on_c, 6, 52, 96
6, 125760, Note_off_c, 6, 64, 0
6, 125760, Note_off_c, 6, 61, 0
6, 125760, Note_off_c, 6, 57, 0
6, 125760, Note_off_c, 6, 52, 0
6, 125760, Note_off_c, 6, 45, 0
6, 125952, Note_off_c, 6, 52, 0
6, 125952, Note_off_c, 6, 57, 0
6, 125952, Note_off_c, 6, 61, 0
6, 125952, Note_off_c, 6, 64, 0
6, 125952, Note_on_c, 6, 40, 96
6, 125958, Note_on_c, 6, 47, 96
6, 125961, Note_on_c, 6, 52, 96
6, 125964, Note_on_c, 6, 56, 96
6, 125968, Note_on_c, 6, 59, 96
6, 125971, Note_on_c, 6, 64, 96
6, 126240, Note_off_c, 6, 64, 0
6, 126240, Note_off_c, 6, 59, 0
6, 126240, Note_off_c, 6, 56, 0
6, 126240, Note_off_c, 6, 52, 0
6, 126240, Note_off_c, 6, 47, 0
6, 126240, Note_off_c, 6, 40, 0
6, 126249, Note_on_c, 6, 59, 96
6, 126252, Note_on_c, 6, 56, 96
6, 126256, Note_on_c, 6, 52, 96
6, 126259, Note_on_c, 6, 47, 96
6, 126259, Note_on_c, 6, 64, 96
6, 126336, Note_off_c, 6, 64, 0
6, 126336, Note_off_c, 6, 47, 0
6, 126336, Note_off_c, 6, 52, 0
6, 126336, Note_off_c, 6, 56, 0
6, 126336, Note_off_c, 6, 59, 0
6, 126336, Note_on_c, 6, 40, 96
6, 126345, Note_on_c, 6, 47, 96
6, 126348, Note_on_c, 6, 52, 96
6, 126352, Note_on_c, 6, 56, 96
6, 126355, Note_on_c, 6, 59, 96
6, 126358, Note_on_c, 6, 64, 96
6, 126432, Note_off_c, 6, 64, 0
6, 126432, Note_off_c, 6, 59, 0
6, 126432, Note_off_c, 6, 56, 0
6, 126432, Note_off_c, 6, 52, 0
6, 126432, Note_off_c, 6, 47, 0
6, 126432, Note_off_c, 6, 40, 0
6, 126528, Note_on_c, 6, 40, 96
6, 126537, Note_on_c, 6, 47, 96
6, 126540, Note_on_c, 6, 52, 96
6, 126544, Note_on_c, 6, 56, 96
6, 126547, Note_on_c, 6, 64, 96
6, 126547, Note_on_c, 6, 59, 96
6, 126816, Note_off_c, 6, 59, 0
6, 126816, Note_off_c, 6, 64, 0
6, 126816, Note_off_c, 6, 56, 0
6, 126816, Note_off_c, 6, 52, 0
6, 126816, Note_off_c, 6, 47, 0
6, 126816, Note_off_c, 6, 40, 0
6, 126816, Note_on_c, 6, 64, 96
6, 126825, Note_on_c, 6, 59, 96
6, 126828, Note_on_c, 6, 56, 96
6, 126832, Note_on_c, 6, 52, 96
6, 126835, Note_on_c, 6, 47, 96
6, 126912, Note_off_c, 6, 47, 0
6, 126912, Note_off_c, 6, 52, 0
6, 126912, Note_off_c, 6, 56, 0
6, 126912, Note_off_c, 6, 59, 0
6, 126912, Note_off_c, 6, 64, 0
6, 126912, Note_on_c, 6, 40, 96
6, 126921, Note_on_c, 6, 47, 96
6, 126924, Note_on_c, 6, 52, 96
6, 126928, Note_on_c, 6, 56, 96
6, 126931, Note_on_c, 6, 59, 96
6, 126934, Note_on_c, 6, 64, 96
6, 127104, Note_on_c, 6, 40, 96
6, 127110, Note_on_c, 6, 47, 96
6, 127113, Note_on_c, 6, 52, 96
6, 127116, Note_on_c, 6, 56, 96
6, 127120, Note_on_c, 6, 59, 96
6, 127123, Note_on_c, 6, 64, 96
6, 127200, Note_off_c, 6, 64, 0
6, 127200, Note_off_c, 6, 59, 0
6, 127200, Note_off_c, 6, 56, 0
6, 127200, Note_off_c, 6, 52, 0
6, 127200, Note_off_c, 6, 47, 0
6, 127200, Note_off_c, 6, 40, 0
6, 127200, Note_on_c, 6, 64, 96
6, 127209, Note_on_c, 6, 59, 96
6, 127212, Note_on_c, 6, 56, 96
6, 127216, Note_on_c, 6, 52, 96
6, 127219, Note_on_c, 6, 47, 96
6, 127296, Note_off_c, 6, 64, 0
6, 127296, Note_off_c, 6, 59, 0
6, 127296, Note_off_c, 6, 56, 0
6, 127296, Note_off_c, 6, 52, 0
6, 127296, Note_off_c, 6, 47, 0
6, 127296, Note_off_c, 6, 40, 0
6, 127488, Note_off_c, 6, 47, 0
6, 127488, Note_off_c, 6, 52, 0
6, 127488, Note_off_c, 6, 56, 0
6, 127488, Note_off_c, 6, 59, 0
6, 127488, Note_off_c, 6, 64, 0
6, 127488, Note_on_c, 6, 45, 96
6, 127497, Note_on_c, 6, 52, 96
6, 127500, Note_on_c, 6, 57, 96
6, 127504, Note_on_c, 6, 61, 96
6, 127507, Note_on_c, 6, 64, 96
6, 127776, Note_off_c, 6, 64, 0
6, 127776, Note_off_c, 6, 61, 0
6, 127776, Note_off_c, 6, 57, 0
6, 127776, Note_off_c, 6, 52, 0
6, 127776, Note_off_c, 6, 45, 0
6, 127785, Note_on_c, 6, 61, 96
6, 127788, Note_on_c, 6, 57, 96
6, 127792, Note_on_c, 6, 52, 96
6, 127795, Note_on_c, 6, 64, 96
6, 127872, Note_off_c, 6, 64, 0
6, 127872, Note_off_c, 6, 52, 0
6, 127872, Note_off_c, 6, 57, 0
6, 127872, Note_off_c, 6, 61, 0
6, 127872, Note_on_c, 6, 45, 96
6, 127881, Note_on_c, 6, 52, 96
6, 127884, Note_on_c, 6, 57, 96
6, 127888, Note_on_c, 6, 61, 96
6, 127891, Note_on_c, 6, 64, 96
6, 127968, Note_off_c, 6, 64, 0
6, 127968, Note_off_c, 6, 61, 0
6, 127968, Note_off_c, 6, 57, 0
6, 127968, Note_off_c, 6, 52, 0
6, 127968, Note_off_c, 6, 45, 0
6, 128064, Note_on_c, 6, 45, 96
6, 128073, Note_on_c, 6, 52, 96
6, 128076, Note_on_c, 6, 57, 96
6, 128080, Note_on_c, 6, 61, 96
6, 128083, Note_on_c, 6, 64, 96
6, 128352, Note_off_c, 6, 64, 0
6, 128352, Note_off_c, 6, 61, 0
6, 128352, Note_off_c, 6, 57, 0
6, 128352, Note_off_c, 6, 52, 0
6, 128352, Note_off_c, 6, 45, 0
6, 128352, Note_on_c, 6, 64, 96
6, 128361, Note_on_c, 6, 61, 96
6, 128364, Note_on_c, 6, 57, 96
6, 128368, Note_on_c, 6, 52, 96
6, 128448, Note_off_c, 6, 52, 0
6, 128448, Note_off_c, 6, 57, 0
6, 128448, Note_off_c, 6, 61, 0
6, 128448, Note_off_c, 6, 64, 0
6, 128448, Note_on_c, 6, 45, 96
6, 128457, Note_on_c, 6, 52, 96
6, 128460, Note_on_c, 6, 57, 96
6, 128464, Note_on_c, 6, 61, 96
6, 128467, Note_on_c, 6, 64, 96
6, 128640, Note_on_c, 6, 45, 96
6, 128649, Note_on_c, 6, 52, 96
6, 128652, Note_on_c, 6, 57, 96
6, 128656, Note_on_c, 6, 61, 96
6, 128659, Note_on_c, 6, 64, 96
6, 128736, Note_off_c, 6, 64, 0
6, 128736, Note_off_c, 6, 61, 0
6, 128736, Note_off_c, 6, 57, 0
6, 128736, Note_off_c, 6, 52, 0
6, 128736, Note_off_c, 6, 45, 0
6, 128736, Note_on_c, 6, 64, 96
6, 128748, Note_on_c, 6, 61, 96
6, 128752, Note_on_c, 6, 57, 96
6, 128755, Note_on_c, 6, 52, 96
6, 128832, Note_off_c, 6, 64, 0
6, 128832, Note_off_c, 6, 61, 0
6, 128832, Note_off_c, 6, 57, 0
6, 128832, Note_off_c, 6, 52, 0
6, 128832, Note_off_c, 6, 45, 0
6, 129024, Note_off_c, 6, 52, 0
6, 129024, Note_off_c, 6, 57, 0
6, 129024, Note_off_c, 6, 61, 0
6, 129024, Note_off_c, 6, 64, 0
6, 129024, Note_on_c, 6, 40, 96
6, 129030, Note_on_c, 6, 47, 96
6, 129033, Note_on_c, 6, 52, 96
6, 129036, Note_on_c, 6, 56, 96
6, 129040, Note_on_c, 6, 59, 96
6, 129043, Note_on_c, 6, 64, 96
6, 129312, Note_off_c, 6, 64, 0
6, 129312, Note_off_c, 6, 59, 0
6, 129312, Note_off_c, 6, 56, 0
6, 129312, Note_off_c, 6, 52, 0
6, 129312, Note_off_c, 6, 47, 0
6, 129312, Note_off_c, 6, 40, 0
6, 129321, Note_on_c, 6, 59, 96
6, 129324, Note_on_c, 6, 56, 96
6, 129328, Note_on_c, 6, 52, 96
6, 129331, Note_on_c, 6, 47, 96
6, 129331, Note_on_c, 6, 64, 96
6, 129408, Note_off_c, 6, 64, 0
6, 129408, Note_off_c, 6, 47, 0
6, 129408, Note_off_c, 6, 52, 0
6, 129408, Note_off_c, 6, 56, 0
6, 129408, Note_off_c, 6, 59, 0
6, 129408, Note_on_c, 6, 40, 96
6, 129417, Note_on_c, 6, 47, 96
6, 129420, Note_on_c, 6, 52, 96
6, 129424, Note_on_c, 6, 56, 96
6, 129427, Note_on_c, 6, 59, 96
6, 129430, Note_on_c, 6, 64, 96
6, 129504, Note_off_c, 6, 64, 0
6, 129504, Note_off_c, 6, 59, 0
6, 129504, Note_off_c, 6, 56, 0
6, 129504, Note_off_c, 6, 52, 0
6, 129504, Note_off_c, 6, 47, 0
6, 129504, Note_off_c, 6, 40, 0
6, 129600, Note_on_c, 6, 40, 96
6, 129609, Note_on_c, 6, 47, 96
6, 129612, Note_on_c, 6, 52, 96
6, 129616, Note_on_c, 6, 56, 96
6, 129619, Note_on_c, 6, 64, 96
6, 129619, Note_on_c, 6, 59, 96
6, 129888, Note_off_c, 6, 59, 0
6, 129888, Note_off_c, 6, 64, 0
6, 129888, Note_off_c, 6, 56, 0
6, 129888, Note_off_c, 6, 52, 0
6, 129888, Note_off_c, 6, 47, 0
6, 129888, Note_off_c, 6, 40, 0
6, 129888, Note_on_c, 6, 64, 96
6, 129897, Note_on_c, 6, 59, 96
6, 129900, Note_on_c, 6, 56, 96
6, 129904, Note_on_c, 6, 52, 96
6, 129907, Note_on_c, 6, 47, 96
6, 129984, Note_off_c, 6, 47, 0
6, 129984, Note_off_c, 6, 52, 0
6, 129984, Note_off_c, 6, 56, 0
6, 129984, Note_off_c, 6, 59, 0
6, 129984, Note_off_c, 6, 64, 0
6, 129984, Note_on_c, 6, 40, 96
6, 129993, Note_on_c, 6, 47, 96
6, 129996, Note_on_c, 6, 52, 96
6, 130000, Note_on_c, 6, 56, 96
6, 130003, Note_on_c, 6, 59, 96
6, 130006, Note_on_c, 6, 64, 96
6, 130176, Note_on_c, 6, 40, 96
6, 130182, Note_on_c, 6, 47, 96
6, 130185, Note_on_c, 6, 52, 96
6, 130188, Note_on_c, 6, 56, 96
6, 130192, Note_on_c, 6, 59, 96
6, 130195, Note_on_c, 6, 64, 96
6, 130272, Note_off_c, 6, 64, 0
6, 130272, Note_off_c, 6, 59, 0
6, 130272, Note_off_c, 6, 56, 0
6, 130272, Note_off_c, 6, 52, 0
6, 130272, Note_off_c, 6, 47, 0
6, 130272, Note_off_c, 6, 40, 0
6, 130272, Note_on_c, 6, 64, 96
6, 130281, Note_on_c, 6, 59, 96
6, 130284, Note_on_c, 6, 56, 96
6, 130288, Note_on_c, 6, 52, 96
6, 130291, Note_on_c, 6, 47, 96
6, 130368, Note_off_c, 6, 64, 0
6, 130368, Note_off_c, 6, 59, 0
6, 130368, Note_off_c, 6, 56, 0
6, 130368, Note_off_c, 6, 52, 0
6, 130368, Note_off_c, 6, 47, 0
6, 130368, Note_off_c, 6, 40, 0
6, 130560, Note_off_c, 6, 47, 0
6, 130560, Note_off_c, 6, 52, 0
6, 130560, Note_off_c, 6, 56, 0
6, 130560, Note_off_c, 6, 59, 0
6, 130560, Note_off_c, 6, 64, 0
6, 130560, Note_on_c, 6, 45, 96
6, 130569, Note_on_c, 6, 52, 96
6, 130572, Note_on_c, 6, 57, 96
6, 130576, Note_on_c, 6, 61, 96
6, 130579, Note_on_c, 6, 64, 96
6, 130848, Note_off_c, 6, 64, 0
6, 130848, Note_off_c, 6, 61, 0
6, 130848, Note_off_c, 6, 57, 0
6, 130848, Note_off_c, 6, 52, 0
6, 130848, Note_off_c, 6, 45, 0
6, 130857, Note_on_c, 6, 61, 96
6, 130860, Note_on_c, 6, 57, 96
6, 130864, Note_on_c, 6, 52, 96
6, 130867, Note_on_c, 6, 64, 96
6, 130944, Note_off_c, 6, 64, 0
6, 130944, Note_off_c, 6, 52, 0
6, 130944, Note_off_c, 6, 57, 0
6, 130944, Note_off_c, 6, 61, 0
6, 130944, Note_on_c, 6, 45, 96
6, 130953, Note_on_c, 6, 52, 96
6, 130956, Note_on_c, 6, 57, 96
6, 130960, Note_on_c, 6, 61, 96
6, 130963, Note_on_c, 6, 64, 96
6, 131040, Note_off_c, 6, 64, 0
6, 131040, Note_off_c, 6, 61, 0
6, 131040, Note_off_c, 6, 57, 0
6, 131040, Note_off_c, 6, 52, 0
6, 131040, Note_off_c, 6, 45, 0
6, 131136, Note_on_c, 6, 45, 96
6, 131145, Note_on_c, 6, 52, 96
6, 131148, Note_on_c, 6, 57, 96
6, 131152, Note_on_c, 6, 61, 96
6, 131155, Note_on_c, 6, 64, 96
6, 131424, Note_off_c, 6, 64, 0
6, 131424, Note_off_c, 6, 61, 0
6, 131424, Note_off_c, 6, 57, 0
6, 131424, Note_off_c, 6, 52, 0
6, 131424, Note_off_c, 6, 45, 0
6, 131424, Note_on_c, 6, 64, 96
6, 131433, Note_on_c, 6, 61, 96
6, 131436, Note_on_c, 6, 57, 96
6, 131440, Note_on_c, 6, 52, 96
6, 131520, Note_off_c, 6, 52, 0
6, 131520, Note_off_c, 6, 57, 0
6, 131520, Note_off_c, 6, 61, 0
6, 131520, Note_off_c, 6, 64, 0
6, 131520, Note_on_c, 6, 45, 96
6, 131529, Note_on_c, 6, 52, 96
6, 131532, Note_on_c, 6, 57, 96
6, 131536, Note_on_c, 6, 61, 96
6, 131539, Note_on_c, 6, 64, 96
6, 131712, Note_on_c, 6, 45, 96
6, 131721, Note_on_c, 6, 52, 96
6, 131724, Note_on_c, 6, 57, 96
6, 131728, Note_on_c, 6, 61, 96
6, 131731, Note_on_c, 6, 64, 96
6, 131808, Note_off_c, 6, 64, 0
6, 131808, Note_off_c, 6, 61, 0
6, 131808, Note_off_c, 6, 57, 0
6, 131808, Note_off_c, 6, 52, 0
6, 131808, Note_off_c, 6, 45, 0
6, 131808, Note_on_c, 6, 64, 96
6, 131820, Note_on_c, 6, 61, 96
6, 131824, Note_on_c, 6, 57, 96
6, 131827, Note_on_c, 6, 52, 96
6, 131904, Note_off_c, 6, 64, 0
6, 131904, Note_off_c, 6, 61, 0
6, 131904, Note_off_c, 6, 57, 0
6, 131904, Note_off_c, 6, 52, 0
6, 131904, Note_off_c, 6, 45, 0
6, 132096, Note_off_c, 6, 52, 0
6, 132096, Note_off_c, 6, 57, 0
6, 132096, Note_off_c, 6, 61, 0
6, 132096, Note_off_c, 6, 64, 0
6, 132096, Note_on_c, 6, 40, 96
6, 132102, Note_on_c, 6, 47, 96
6, 132105, Note_on_c, 6, 52, 96
6, 132108, Note_on_c, 6, 56, 96
6, 132112, Note_on_c, 6, 59, 96
6, 132115, Note_on_c, 6, 64, 96
6, 132384, Note_off_c, 6, 64, 0
6, 132384, Note_off_c, 6, 59, 0
6, 132384, Note_off_c, 6, 56, 0
6, 132384, Note_off_c, 6, 52, 0
6, 132384, Note_off_c, 6, 47, 0
6, 132384, Note_off_c, 6, 40, 0
6, 132393, Note_on_c, 6, 59, 96
6, 132396, Note_on_c, 6, 56, 96
6, 132400, Note_on_c, 6, 52, 96
6, 132403, Note_on_c, 6, 47, 96
6, 132403, Note_on_c, 6, 64, 96
6, 132480, Note_off_c, 6, 64, 0
6, 132480, Note_off_c, 6, 47, 0
6, 132480, Note_off_c, 6, 52, 0
6, 132480, Note_off_c, 6, 56, 0
6, 132480, Note_off_c, 6, 59, 0
6, 132480, Note_on_c, 6, 40, 96
6, 132489, Note_on_c, 6, 47, 96
6, 132492, Note_on_c, 6, 52, 96
6, 132496, Note_on_c, 6, 56, 96
6, 132499, Note_on_c, 6, 59, 96
6, 132502, Note_on_c, 6, 64, 96
6, 132576, Note_off_c, 6, 64, 0
6, 132576, Note_off_c, 6, 59, 0
6, 132576, Note_off_c, 6, 56, 0
6, 132576, Note_off_c, 6, 52, 0
6, 132576, Note_off_c, 6, 47, 0
6, 132576, Note_off_c, 6, 40, 0
6, 132672, Note_on_c, 6, 40, 96
6, 132681, Note_on_c, 6, 47, 96
6, 132684, Note_on_c, 6, 52, 96
6, 132688, Note_on_c, 6, 56, 96
6, 132691, Note_on_c, 6, 64, 96
6, 132691, Note_on_c, 6, 59, 96
6, 132960, Note_off_c, 6, 59, 0
6, 132960, Note_off_c, 6, 64, 0
6, 132960, Note_off_c, 6, 56, 0
6, 132960, Note_off_c, 6, 52, 0
6, 132960, Note_off_c, 6, 47, 0
6, 132960, Note_off_c, 6, 40, 0
6, 132960, Note_on_c, 6, 64, 96
6, 132969, Note_on_c, 6, 59, 96
6, 132972, Note_on_c, 6, 56, 96
6, 132976, Note_on_c, 6, 52, 96
6, 132979, Note_on_c, 6, 47, 96
6, 133056, Note_off_c, 6, 47, 0
6, 133056, Note_off_c, 6, 52, 0
6, 133056, Note_off_c, 6, 56, 0
6, 133056, Note_off_c, 6, 59, 0
6, 133056, Note_off_c, 6, 64, 0
6, 133056, Note_on_c, 6, 40, 96
6, 133065, Note_on_c, 6, 47, 96
6, 133068, Note_on_c, 6, 52, 96
6, 133072, Note_on_c, 6, 56, 96
6, 133075, Note_on_c, 6, 59, 96
6, 133078, Note_on_c, 6, 64, 96
6, 133248, Note_on_c, 6, 40, 96
6, 133254, Note_on_c, 6, 47, 96
6, 133257, Note_on_c, 6, 52, 96
6, 133260, Note_on_c, 6, 56, 96
6, 133264, Note_on_c, 6, 59, 96
6, 133267, Note_on_c, 6, 64, 96
6, 133344, Note_off_c, 6, 64, 0
6, 133344, Note_off_c, 6, 59, 0
6, 133344, Note_off_c, 6, 56, 0
6, 133344, Note_off_c, 6, 52, 0
6, 133344, Note_off_c, 6, 47, 0
6, 133344, Note_off_c, 6, 40, 0
6, 133344, Note_on_c, 6, 64, 96
6, 133353, Note_on_c, 6, 59, 96
6, 133356, Note_on_c, 6, 56, 96
6, 133360, Note_on_c, 6, 52, 96
6, 133363, Note_on_c, 6, 47, 96
6, 133440, Note_off_c, 6, 64, 0
6, 133440, Note_off_c, 6, 59, 0
6, 133440, Note_off_c, 6, 56, 0
6, 133440, Note_off_c, 6, 52, 0
6, 133440, Note_off_c, 6, 47, 0
6, 133440, Note_off_c, 6, 40, 0
6, 133632, Note_off_c, 6, 47, 0
6, 133632, Note_off_c, 6, 52, 0
6, 133632, Note_off_c, 6, 56, 0
6, 133632, Note_off_c, 6, 59, 0
6, 133632, Note_off_c, 6, 64, 0
6, 133632, Note_on_c, 6, 45, 96
6, 133641, Note_on_c, 6, 52, 96
6, 133644, Note_on_c, 6, 57, 96
6, 133648, Note_on_c, 6, 61, 96
6, 133651, Note_on_c, 6, 64, 96
6, 133920, Note_off_c, 6, 64, 0
6, 133920, Note_off_c, 6, 61, 0
6, 133920, Note_off_c, 6, 57, 0
6, 133920, Note_off_c, 6, 52, 0
6, 133920, Note_off_c, 6, 45, 0
6, 133929, Note_on_c, 6, 61, 96
6, 133932, Note_on_c, 6, 57, 96
6, 133936, Note_on_c, 6, 52, 96
6, 133939, Note_on_c, 6, 64, 96
6, 134016, Note_off_c, 6, 64, 0
6, 134016, Note_off_c, 6, 52, 0
6, 134016, Note_off_c, 6, 57, 0
6, 134016, Note_off_c, 6, 61, 0
6, 134016, Note_on_c, 6, 45, 96
6, 134025, Note_on_c, 6, 52, 96
6, 134028, Note_on_c, 6, 57, 96
6, 134032, Note_on_c, 6, 61, 96
6, 134035, Note_on_c, 6, 64, 96
6, 134112, Note_off_c, 6, 64, 0
6, 134112, Note_off_c, 6, 61, 0
6, 134112, Note_off_c, 6, 57, 0
6, 134112, Note_off_c, 6, 52, 0
6, 134112, Note_off_c, 6, 45, 0
6, 134208, Note_on_c, 6, 45, 96
6, 134217, Note_on_c, 6, 52, 96
6, 134220, Note_on_c, 6, 57, 96
6, 134224, Note_on_c, 6, 61, 96
6, 134227, Note_on_c, 6, 64, 96
6, 134496, Note_off_c, 6, 64, 0
6, 134496, Note_off_c, 6, 61, 0
6, 134496, Note_off_c, 6, 57, 0
6, 134496, Note_off_c, 6, 52, 0
6, 134496, Note_off_c, 6, 45, 0
6, 134496, Note_on_c, 6, 64, 96
6, 134505, Note_on_c, 6, 61, 96
6, 134508, Note_on_c, 6, 57, 96
6, 134512, Note_on_c, 6, 52, 96
6, 134592, Note_off_c, 6, 52, 0
6, 134592, Note_off_c, 6, 57, 0
6, 134592, Note_off_c, 6, 61, 0
6, 134592, Note_off_c, 6, 64, 0
6, 134592, Note_on_c, 6, 45, 96
6, 134601, Note_on_c, 6, 52, 96
6, 134604, Note_on_c, 6, 57, 96
6, 134608, Note_on_c, 6, 61, 96
6, 134611, Note_on_c, 6, 64, 96
6, 134784, Note_on_c, 6, 45, 96
6, 134793, Note_on_c, 6, 52, 96
6, 134796, Note_on_c, 6, 57, 96
6, 134800, Note_on_c, 6, 61, 96
6, 134803, Note_on_c, 6, 64, 96
6, 134880, Note_off_c, 6, 64, 0
6, 134880, Note_off_c, 6, 61, 0
6, 134880, Note_off_c, 6, 57, 0
6, 134880, Note_off_c, 6, 52, 0
6, 134880, Note_off_c, 6, 45, 0
6, 134880, Note_on_c, 6, 64, 96
6, 134892, Note_on_c, 6, 61, 96
6, 134896, Note_on_c, 6, 57, 96
6, 134899, Note_on_c, 6, 52, 96
6, 134976, Note_off_c, 6, 64, 0
6, 134976, Note_off_c, 6, 61, 0
6, 134976, Note_off_c, 6, 57, 0
6, 134976, Note_off_c, 6, 52, 0
6, 134976, Note_off_c, 6, 45, 0
6, 135168, Note_off_c, 6, 52, 0
6, 135168, Note_off_c, 6, 57, 0
6, 135168, Note_off_c, 6, 61, 0
6, 135168, Note_off_c, 6, 64, 0
6, 135168, Note_on_c, 6, 40, 96
6, 135174, Note_on_c, 6, 47, 96
6, 135177, Note_on_c, 6, 52, 96
6, 135180, Note_on_c, 6, 56, 96
6, 135184, Note_on_c, 6, 59, 96
6, 135187, Note_on_c, 6, 64, 96
6, 135456, Note_off_c, 6, 64, 0
6, 135456, Note_off_c, 6, 59, 0
6, 135456, Note_off_c, 6, 56, 0
6, 135456, Note_off_c, 6, 52, 0
6, 135456, Note_off_c, 6, 47, 0
6, 135456, Note_off_c, 6, 40, 0
6, 135465, Note_on_c, 6, 59, 96
6, 135468, Note_on_c, 6, 56, 96
6, 135472, Note_on_c, 6, 52, 96
6, 135475, Note_on_c, 6, 47, 96
6, 135475, Note_on_c, 6, 64, 96
6, 135552, Note_off_c, 6, 64, 0
6, 135552, Note_off_c, 6, 47, 0
6, 135552, Note_off_c, 6, 52, 0
6, 135552, Note_off_c, 6, 56, 0
6, 135552, Note_off_c, 6, 59, 0
6, 135552, Note_on_c, 6, 40, 96
6, 135561, Note_on_c, 6, 47, 96
6, 135564, Note_on_c, 6, 52, 96
6, 135568, Note_on_c, 6, 56, 96
6, 135571, Note_on_c, 6, 59, 96
6, 135574, Note_on_c, 6, 64, 96
6, 135648, Note_off_c, 6, 64, 0
6, 135648, Note_off_c, 6, 59, 0
6, 135648, Note_off_c, 6, 56, 0
6, 135648, Note_off_c, 6, 52, 0
6, 135648, Note_off_c, 6, 47, 0
6, 135648, Note_off_c, 6, 40, 0
6, 135744, Note_on_c, 6, 40, 96
6, 135753, Note_on_c, 6, 47, 96
6, 135756, Note_on_c, 6, 52, 96
6, 135760, Note_on_c, 6, 56, 96
6, 135763, Note_on_c, 6, 64, 96
6, 135763, Note_on_c, 6, 59, 96
6, 136032, Note_off_c, 6, 59, 0
6, 136032, Note_off_c, 6, 64, 0
6, 136032, Note_off_c, 6, 56, 0
6, 136032, Note_off_c, 6, 52, 0
6, 136032, Note_off_c, 6, 47, 0
6, 136032, Note_off_c, 6, 40, 0
6, 136032, Note_on_c, 6, 64, 96
6, 136041, Note_on_c, 6, 59, 96
6, 136044, Note_on_c, 6, 56, 96
6, 136048, Note_on_c, 6, 52, 96
6, 136051, Note_on_c, 6, 47, 96
6, 136128, Note_off_c, 6, 47, 0
6, 136128, Note_off_c, 6, 52, 0
6, 136128, Note_off_c, 6, 56, 0
6, 136128, Note_off_c, 6, 59, 0
6, 136128, Note_off_c, 6, 64, 0
6, 136128, Note_on_c, 6, 40, 96
6, 136137, Note_on_c, 6, 47, 96
6, 136140, Note_on_c, 6, 52, 96
6, 136144, Note_on_c, 6, 56, 96
6, 136147, Note_on_c, 6, 59, 96
6, 136150, Note_on_c, 6, 64, 96
6, 136320, Note_on_c, 6, 40, 96
6, 136326, Note_on_c, 6, 47, 96
6, 136329, Note_on_c, 6, 52, 96
6, 136332, Note_on_c, 6, 56, 96
6, 136336, Note_on_c, 6, 59, 96
6, 136339, Note_on_c, 6, 64, 96
6, 136416, Note_off_c, 6, 64, 0
6, 136416, Note_off_c, 6, 59, 0
6, 136416, Note_off_c, 6, 56, 0
6, 136416, Note_off_c, 6, 52, 0
6, 136416, Note_off_c, 6, 47, 0
6, 136416, Note_off_c, 6, 40, 0
6, 136416, Note_on_c, 6, 64, 96
6, 136425, Note_on_c, 6, 59, 96
6, 136428, Note_on_c, 6, 56, 96
6, 136432, Note_on_c, 6, 52, 96
6, 136435, Note_on_c, 6, 47, 96
6, 136512, Note_off_c, 6, 64, 0
6, 136512, Note_off_c, 6, 59, 0
6, 136512, Note_off_c, 6, 56, 0
6, 136512, Note_off_c, 6, 52, 0
6, 136512, Note_off_c, 6, 47, 0
6, 136512, Note_off_c, 6, 40, 0
6, 136704, Note_off_c, 6, 47, 0
6, 136704, Note_off_c, 6, 52, 0
6, 136704, Note_off_c, 6, 56, 0
6, 136704, Note_off_c, 6, 59, 0
6, 136704, Note_off_c, 6, 64, 0
6, 136704, Note_on_c, 6, 45, 96
6, 136713, Note_on_c, 6, 52, 96
6, 136716, Note_on_c, 6, 57, 96
6, 136720, Note_on_c, 6, 61, 96
6, 136723, Note_on_c, 6, 64, 96
6, 136992, Note_off_c, 6, 64, 0
6, 136992, Note_off_c, 6, 61, 0
6, 136992, Note_off_c, 6, 57, 0
6, 136992, Note_off_c, 6, 52, 0
6, 136992, Note_off_c, 6, 45, 0
6, 137001, Note_on_c, 6, 61, 96
6, 137004, Note_on_c, 6, 57, 96
6, 137008, Note_on_c, 6, 52, 96
6, 137011, Note_on_c, 6, 64, 96
6, 137088, Note_off_c, 6, 64, 0
6, 137088, Note_off_c, 6, 52, 0
6, 137088, Note_off_c, 6, 57, 0
6, 137088, Note_off_c, 6, 61, 0
6, 137088, Note_on_c, 6, 45, 96
6, 137097, Note_on_c, 6, 52, 96
6, 137100, Note_on_c, 6, 57, 96
6, 137104, Note_on_c, 6, 61, 96
6, 137107, Note_on_c, 6, 64, 96
6, 137184, Note_off_c, 6, 64, 0
6, 137184, Note_off_c, 6, 61, 0
6, 137184, Note_off_c, 6, 57, 0
6, 137184, Note_off_c, 6, 52, 0
6, 137184, Note_off_c, 6, 45, 0
6, 137280, Note_on_c, 6, 45, 96
6, 137289, Note_on_c, 6, 52, 96
6, 137292, Note_on_c, 6, 57, 96
6, 137296, Note_on_c, 6, 61, 96
6, 137299, Note_on_c, 6, 64, 96
6, 137568, Note_off_c, 6, 64, 0
6, 137568, Note_off_c, 6, 61, 0
6, 137568, Note_off_c, 6, 57, 0
6, 137568, Note_off_c, 6, 52, 0
6, 137568, Note_off_c, 6, 45, 0
6, 137568, Note_on_c, 6, 64, 96
6, 137577, Note_on_c, 6, 61, 96
6, 137580, Note_on_c, 6, 57, 96
6, 137584, Note_on_c, 6, 52, 96
6, 137664, Note_off_c, 6, 52, 0
6, 137664, Note_off_c, 6, 57, 0
6, 137664, Note_off_c, 6, 61, 0
6, 137664, Note_off_c, 6, 64, 0
6, 137664, Note_on_c, 6, 45, 96
6, 137673, Note_on_c, 6, 52, 96
6, 137676, Note_on_c, 6, 57, 96
6, 137680, Note_on_c, 6, 61, 96
6, 137683, Note_on_c, 6, 64, 96
6, 137856, Note_on_c, 6, 45, 96
6, 137865, Note_on_c, 6, 52, 96
6, 137868, Note_on_c, 6, 57, 96
6, 137872, Note_on_c, 6, 61, 96
6, 137875, Note_on_c, 6, 64, 96
6, 137952, Note_off_c, 6, 64, 0
6, 137952, Note_off_c, 6, 61, 0
6, 137952, Note_off_c, 6, 57, 0
6, 137952, Note_off_c, 6, 52, 0
6, 137952, Note_off_c, 6, 45, 0
6, 137952, Note_on_c, 6, 64, 96
6, 137964, Note_on_c, 6, 61, 96
6, 137968, Note_on_c, 6, 57, 96
6, 137971, Note_on_c, 6, 52, 96
6, 138048, Note_off_c, 6, 64, 0
6, 138048, Note_off_c, 6, 61, 0
6, 138048, Note_off_c, 6, 57, 0
6, 138048, Note_off_c, 6, 52, 0
6, 138048, Note_off_c, 6, 45, 0
6, 138240, Note_off_c, 6, 52, 0
6, 138240, Note_off_c, 6, 57, 0
6, 138240, Note_off_c, 6, 61, 0
6, 138240, Note_off_c, 6, 64, 0
6, 138240, Note_on_c, 6, 40, 96
6, 138246, Note_on_c, 6, 47, 96
6, 138249, Note_on_c, 6, 52, 96
6, 138252, Note_on_c, 6, 56, 96
6, 138256, Note_on_c, 6, 59, 96
6, 138259, Note_on_c, 6, 64, 96
6, 138528, Note_off_c, 6, 64, 0
6, 138528, Note_off_c, 6, 59, 0
6, 138528, Note_off_c, 6, 56, 0
6, 138528, Note_off_c, 6, 52, 0
6, 138528, Note_off_c, 6, 47, 0
6, 138528, Note_off_c, 6, 40, 0
6, 138537, Note_on_c, 6, 59, 96
6, 138540, Note_on_c, 6, 56, 96
6, 138544, Note_on_c, 6, 52, 96
6, 138547, Note_on_c, 6, 47, 96
6, 138547, Note_on_c, 6, 64, 96
6, 138624, Note_off_c, 6, 64, 0
6, 138624, Note_off_c, 6, 47, 0
6, 138624, Note_off_c, 6, 52, 0
6, 138624, Note_off_c, 6, 56, 0
6, 138624, Note_off_c, 6, 59, 0
6, 138624, Note_on_c, 6, 40, 96
6, 138633, Note_on_c, 6, 47, 96
6, 138636, Note_on_c, 6, 52, 96
6, 138640, Note_on_c, 6, 56, 96
6, 138643, Note_on_c, 6, 59, 96
6, 138646, Note_on_c, 6, 64, 96
6, 138720, Note_off_c, 6, 64, 0
6, 138720, Note_off_c, 6, 59, 0
6, 138720, Note_off_c, 6, 56, 0
6, 138720, Note_off_c, 6, 52, 0
6, 138720, Note_off_c, 6, 47, 0
6, 138720, Note_off_c, 6, 40, 0
6, 138816, Note_on_c, 6, 40, 96
6, 138825, Note_on_c, 6, 47, 96
6, 138828, Note_on_c, 6, 52, 96
6, 138832, Note_on_c, 6, 56, 96
6, 138835, Note_on_c, 6, 64, 96
6, 138835, Note_on_c, 6, 59, 96
6, 139104, Note_off_c, 6, 59, 0
6, 139104, Note_off_c, 6, 64, 0
6, 139104, Note_off_c, 6, 56, 0
6, 139104, Note_off_c, 6, 52, 0
6, 139104, Note_off_c, 6, 47, 0
6, 139104, Note_off_c, 6, 40, 0
6, 139104, Note_on_c, 6, 64, 96
6, 139113, Note_on_c, 6, 59, 96
6, 139116, Note_on_c, 6, 56, 96
6, 139120, Note_on_c, 6, 52, 96
6, 139123, Note_on_c, 6, 47, 96
6, 139200, Note_off_c, 6, 47, 0
6, 139200, Note_off_c, 6, 52, 0
6, 139200, Note_off_c, 6, 56, 0
6, 139200, Note_off_c, 6, 59, 0
6, 139200, Note_off_c, 6, 64, 0
6, 139200, Note_on_c, 6, 40, 96
6, 139209, Note_on_c, 6, 47, 96
6, 139212, Note_on_c, 6, 52, 96
6, 139216, Note_on_c, 6, 56, 96
6, 139219, Note_on_c, 6, 59, 96
6, 139222, Note_on_c, 6, 64, 96
6, 139392, Note_on_c, 6, 40, 96
6, 139398, Note_on_c, 6, 47, 96
6, 139401, Note_on_c, 6, 52, 96
6, 139404, Note_on_c, 6, 56, 96
6, 139408, Note_on_c, 6, 59, 96
6, 139411, Note_on_c, 6, 64, 96
6, 139488, Note_off_c, 6, 64, 0
6, 139488, Note_off_c, 6, 59, 0
6, 139488, Note_off_c, 6, 56, 0
6, 139488, Note_off_c, 6, 52, 0
6, 139488, Note_off_c, 6, 47, 0
6, 139488, Note_off_c, 6, 40, 0
6, 139488, Note_on_c, 6, 64, 96
6, 139497, Note_on_c, 6, 59, 96
6, 139500, Note_on_c, 6, 56, 96
6, 139504, Note_on_c, 6, 52, 96
6, 139507, Note_on_c, 6, 47, 96
6, 139584, Note_off_c, 6, 64, 0
6, 139584, Note_off_c, 6, 59, 0
6, 139584, Note_off_c, 6, 56, 0
6, 139584, Note_off_c, 6, 52, 0
6, 139584, Note_off_c, 6, 47, 0
6, 139584, Note_off_c, 6, 40, 0
6, 139776, Note_off_c, 6, 47, 0
6, 139776, Note_off_c, 6, 52, 0
6, 139776, Note_off_c, 6, 56, 0
6, 139776, Note_off_c, 6, 59, 0
6, 139776, Note_off_c, 6, 64, 0
6, 139776, Note_on_c, 6, 45, 96
6, 139785, Note_on_c, 6, 52, 96
6, 139788, Note_on_c, 6, 57, 96
6, 139792, Note_on_c, 6, 61, 96
6, 139795, Note_on_c, 6, 64, 96
6, 140064, Note_off_c, 6, 64, 0
6, 140064, Note_off_c, 6, 61, 0
6, 140064, Note_off_c, 6, 57, 0
6, 140064, Note_off_c, 6, 52, 0
6, 140064, Note_off_c, 6, 45, 0
6, 140073, Note_on_c, 6, 61, 96
6, 140076, Note_on_c, 6, 57, 96
6, 140080, Note_on_c, 6, 52, 96
6, 140083, Note_on_c, 6, 64, 96
6, 140160, Note_off_c, 6, 64, 0
6, 140160, Note_off_c, 6, 52, 0
6, 140160, Note_off_c, 6, 57, 0
6, 140160, Note_off_c, 6, 61, 0
6, 140160, Note_on_c, 6, 45, 96
6, 140169, Note_on_c, 6, 52, 96
6, 140172, Note_on_c, 6, 57, 96
6, 140176, Note_on_c, 6, 61, 96
6, 140179, Note_on_c, 6, 64, 96
6, 140256, Note_off_c, 6, 64, 0
6, 140256, Note_off_c, 6, 61, 0
6, 140256, Note_off_c, 6, 57, 0
6, 140256, Note_off_c, 6, 52, 0
6, 140256, Note_off_c, 6, 45, 0
6, 140352, Note_on_c, 6, 45, 96
6, 140361, Note_on_c, 6, 52, 96
6, 140364, Note_on_c, 6, 57, 96
6, 140368, Note_on_c, 6, 61, 96
6, 140371, Note_on_c, 6, 64, 96
6, 140640, Note_off_c, 6, 64, 0
6, 140640, Note_off_c, 6, 61, 0
6, 140640, Note_off_c, 6, 57, 0
6, 140640, Note_off_c, 6, 52, 0
6, 140640, Note_off_c, 6, 45, 0
6, 140640, Note_on_c, 6, 64, 96
6, 140649, Note_on_c, 6, 61, 96
6, 140652, Note_on_c, 6, 57, 96
6, 140656, Note_on_c, 6, 52, 96
6, 140736, Note_off_c, 6, 52, 0
6, 140736, Note_off_c, 6, 57, 0
6, 140736, Note_off_c, 6, 61, 0
6, 140736, Note_off_c, 6, 64, 0
6, 140736, Note_on_c, 6, 45, 96
6, 140745, Note_on_c, 6, 52, 96
6, 140748, Note_on_c, 6, 57, 96
6, 140752, Note_on_c, 6, 61, 96
6, 140755, Note_on_c, 6, 64, 96
6, 140928, Note_on_c, 6, 45, 96
6, 140937, Note_on_c, 6, 52, 96
6, 140940, Note_on_c, 6, 57, 96
6, 140944, Note_on_c, 6, 61, 96
6, 140947, Note_on_c, 6, 64, 96
6, 141024, Note_off_c, 6, 64, 0
6, 141024, Note_off_c, 6, 61, 0
6, 141024, Note_off_c, 6, 57, 0
6, 141024, Note_off_c, 6, 52, 0
6, 141024, Note_off_c, 6, 45, 0
6, 141024, Note_on_c, 6, 64, 96
6, 141036, Note_on_c, 6, 61, 96
6, 141040, Note_on_c, 6, 57, 96
6, 141043, Note_on_c, 6, 52, 96
6, 141120, Note_off_c, 6, 64, 0
6, 141120, Note_off_c, 6, 61, 0
6, 141120, Note_off_c, 6, 57, 0
6, 141120, Note_off_c, 6, 52, 0
6, 141120, Note_off_c, 6, 45, 0
6, 141312, Note_off_c, 6, 52, 0
6, 141312, Note_off_c, 6, 57, 0
6, 141312, Note_off_c, 6, 61, 0
6, 141312, Note_off_c, 6, 64, 0
6, 141312, Note_on_c, 6, 40, 96
6, 141318, Note_on_c, 6, 47, 96
6, 141321, Note_on_c, 6, 52, 96
6, 141324, Note_on_c, 6, 56, 96
6, 141328, Note_on_c, 6, 59, 96
6, 141331, Note_on_c, 6, 64, 96
6, 141600, Note_off_c, 6, 64, 0
6, 141600, Note_off_c, 6, 59, 0
6, 141600, Note_off_c, 6, 56, 0
6, 141600, Note_off_c, 6, 52, 0
6, 141600, Note_off_c, 6, 47, 0
6, 141600, Note_off_c, 6, 40, 0
6, 141609, Note_on_c, 6, 59, 96
6, 141612, Note_on_c, 6, 56, 96
6, 141616, Note_on_c, 6, 52, 96
6, 141619, Note_on_c, 6, 47, 96
6, 141619, Note_on_c, 6, 64, 96
6, 141696, Note_off_c, 6, 64, 0
6, 141696, Note_off_c, 6, 47, 0
6, 141696, Note_off_c, 6, 52, 0
6, 141696, Note_off_c, 6, 56, 0
6, 141696, Note_off_c, 6, 59, 0
6, 141696, Note_on_c, 6, 40, 96
6, 141705, Note_on_c, 6, 47, 96
6, 141708, Note_on_c, 6, 52, 96
6, 141712, Note_on_c, 6, 56, 96
6, 141715, Note_on_c, 6, 59, 96
6, 141718, Note_on_c, 6, 64, 96
6, 141792, Note_off_c, 6, 64, 0
6, 141792, Note_off_c, 6, 59, 0
6, 141792, Note_off_c, 6, 56, 0
6, 141792, Note_off_c, 6, 52, 0
6, 141792, Note_off_c, 6, 47, 0
6, 141792, Note_off_c, 6, 40, 0
6, 141888, Note_on_c, 6, 40, 96
6, 141897, Note_on_c, 6, 47, 96
6, 141900, Note_on_c, 6, 52, 96
6, 141904, Note_on_c, 6, 56, 96
6, 141907, Note_on_c, 6, 64, 96
6, 141907, Note_on_c, 6, 59, 96
6, 142176, Note_off_c, 6, 59, 0
6, 142176, Note_off_c, 6, 64, 0
6, 142176, Note_off_c, 6, 56, 0
6, 142176, Note_off_c, 6, 52, 0
6, 142176, Note_off_c, 6, 47, 0
6, 142176, Note_off_c, 6, 40, 0
6, 142176, Note_on_c, 6, 64, 96
6, 142185, Note_on_c, 6, 59, 96
6, 142188, Note_on_c, 6, 56, 96
6, 142192, Note_on_c, 6, 52, 96
6, 142195, Note_on_c, 6, 47, 96
6, 142272, Note_off_c, 6, 47, 0
6, 142272, Note_off_c, 6, 52, 0
6, 142272, Note_off_c, 6, 56, 0
6, 142272, Note_off_c, 6, 59, 0
6, 142272, Note_off_c, 6, 64, 0
6, 142272, Note_on_c, 6, 40, 96
6, 142281, Note_on_c, 6, 47, 96
6, 142284, Note_on_c, 6, 52, 96
6, 142288, Note_on_c, 6, 56, 96
6, 142291, Note_on_c, 6, 59, 96
6, 142294, Note_on_c, 6, 64, 96
6, 142464, Note_on_c, 6, 40, 96
6, 142470, Note_on_c, 6, 47, 96
6, 142473, Note_on_c, 6, 52, 96
6, 142476, Note_on_c, 6, 56, 96
6, 142480, Note_on_c, 6, 59, 96
6, 142483, Note_on_c, 6, 64, 96
6, 142560, Note_off_c, 6, 64, 0
6, 142560, Note_off_c, 6, 59, 0
6, 142560, Note_off_c, 6, 56, 0
6, 142560, Note_off_c, 6, 52, 0
6, 142560, Note_off_c, 6, 47, 0
6, 142560, Note_off_c, 6, 40, 0
6, 142560, Note_on_c, 6, 64, 96
6, 142569, Note_on_c, 6, 59, 96
6, 142572, Note_on_c, 6, 56, 96
6, 142576, Note_on_c, 6, 52, 96
6, 142579, Note_on_c, 6, 47, 96
6, 142656, Note_off_c, 6, 64, 0
6, 142656, Note_off_c, 6, 59, 0
6, 142656, Note_off_c, 6, 56, 0
6, 142656, Note_off_c, 6, 52, 0
6, 142656, Note_off_c, 6, 47, 0
6, 142656, Note_off_c, 6, 40, 0
6, 142848, Note_off_c, 6, 47, 0
6, 142848, Note_off_c, 6, 52, 0
6, 142848, Note_off_c, 6, 56, 0
6, 142848, Note_off_c, 6, 59, 0
6, 142848, Note_off_c, 6, 64, 0
6, 142848, Note_on_c, 6, 45, 96
6, 142857, Note_on_c, 6, 52, 96
6, 142860, Note_on_c, 6, 57, 96
6, 142864, Note_on_c, 6, 61, 96
6, 142867, Note_on_c, 6, 64, 96
6, 143136, Note_off_c, 6, 64, 0
6, 143136, Note_off_c, 6, 61, 0
6, 143136, Note_off_c, 6, 57, 0
6, 143136, Note_off_c, 6, 52, 0
6, 143136, Note_off_c, 6, 45, 0
6, 143145, Note_on_c, 6, 61, 96
6, 143148, Note_on_c, 6, 57, 96
6, 143152, Note_on_c, 6, 52, 96
6, 143155, Note_on_c, 6, 64, 96
6, 143232, Note_off_c, 6, 64, 0
6, 143232, Note_off_c, 6, 52, 0
6, 143232, Note_off_c, 6, 57, 0
6, 143232, Note_off_c, 6, 61, 0
6, 143232, Note_on_c, 6, 45, 96
6, 143241, Note_on_c, 6, 52, 96
6, 143244, Note_on_c, 6, 57, 96
6, 143248, Note_on_c, 6, 61, 96
6, 143251, Note_on_c, 6, 64, 96
6, 143328, Note_off_c, 6, 64, 0
6, 143328, Note_off_c, 6, 61, 0
6, 143328, Note_off_c, 6, 57, 0
6, 143328, Note_off_c, 6, 52, 0
6, 143328, Note_off_c, 6, 45, 0
6, 143424, Note_on_c, 6, 45, 96
6, 143433, Note_on_c, 6, 52, 96
6, 143436, Note_on_c, 6, 57, 96
6, 143440, Note_on_c, 6, 61, 96
6, 143443, Note_on_c, 6, 64, 96
6, 143712, Note_off_c, 6, 64, 0
6, 143712, Note_off_c, 6, 61, 0
6, 143712, Note_off_c, 6, 57, 0
6, 143712, Note_off_c, 6, 52, 0
6, 143712, Note_off_c, 6, 45, 0
6, 143712, Note_on_c, 6, 64, 96
6, 143721, Note_on_c, 6, 61, 96
6, 143724, Note_on_c, 6, 57, 96
6, 143728, Note_on_c, 6, 52, 96
6, 143808, Note_off_c, 6, 52, 0
6, 143808, Note_off_c, 6, 57, 0
6, 143808, Note_off_c, 6, 61, 0
6, 143808, Note_off_c, 6, 64, 0
6, 143808, Note_on_c, 6, 45, 96
6, 143817, Note_on_c, 6, 52, 96
6, 143820, Note_on_c, 6, 57, 96
6, 143824, Note_on_c, 6, 61, 96
6, 143827, Note_on_c, 6, 64, 96
6, 144000, Note_on_c, 6, 45, 96
6, 144009, Note_on_c, 6, 52, 96
6, 144012, Note_on_c, 6, 57, 96
6, 144016, Note_on_c, 6, 61, 96
6, 144019, Note_on_c, 6, 64, 96
6, 144096, Note_off_c, 6, 64, 0
6, 144096, Note_off_c, 6, 61, 0
6, 144096, Note_off_c, 6, 57, 0
6, 144096, Note_off_c, 6, 52, 0
6, 144096, Note_off_c, 6, 45, 0
6, 144096, Note_on_c, 6, 64, 96
6, 144108, Note_on_c, 6, 61, 96
6, 144112, Note_on_c, 6, 57, 96
6, 144115, Note_on_c, 6, 52, 96
6, 144192, Note_off_c, 6, 64, 0
6, 144192, Note_off_c, 6, 61, 0
6, 144192, Note_off_c, 6, 57, 0
6, 144192, Note_off_c, 6, 52, 0
6, 144192, Note_off_c, 6, 45, 0
6, 144384, Note_off_c, 6, 52, 0
6, 144384, Note_off_c, 6, 57, 0
6, 144384, Note_off_c, 6, 61, 0
6, 144384, Note_off_c, 6, 64, 0
6, 144384, Note_on_c, 6, 40, 96
6, 144390, Note_on_c, 6, 47, 96
6, 144393, Note_on_c, 6, 52, 96
6, 144396, Note_on_c, 6, 56, 96
6, 144400, Note_on_c, 6, 59, 96
6, 144403, Note_on_c, 6, 64, 96
6, 144672, Note_off_c, 6, 64, 0
6, 144672, Note_off_c, 6, 59, 0
6, 144672, Note_off_c, 6, 56, 0
6, 144672, Note_off_c, 6, 52, 0
6, 144672, Note_off_c, 6, 47, 0
6, 144672, Note_off_c, 6, 40, 0
6, 144681, Note_on_c, 6, 59, 96
6, 144684, Note_on_c, 6, 56, 96
6, 144688, Note_on_c, 6, 52, 96
6, 144691, Note_on_c, 6, 47, 96
6, 144691, Note_on_c, 6, 64, 96
6, 144768, Note_off_c, 6, 64, 0
6, 144768, Note_off_c, 6, 47, 0
6, 144768, Note_off_c, 6, 52, 0
6, 144768, Note_off_c, 6, 56, 0
6, 144768, Note_off_c, 6, 59, 0
6, 144768, Note_on_c, 6, 40, 96
6, 144777, Note_on_c, 6, 47, 96
6, 144780, Note_on_c, 6, 52, 96
6, 144784, Note_on_c, 6, 56, 96
6, 144787, Note_on_c, 6, 59, 96
6, 144790, Note_on_c, 6, 64, 96
6, 144864, Note_off_c, 6, 64, 0
6, 144864, Note_off_c, 6, 59, 0
6, 144864, Note_off_c, 6, 56, 0
6, 144864, Note_off_c, 6, 52, 0
6, 144864, Note_off_c, 6, 47, 0
6, 144864, Note_off_c, 6, 40, 0
6, 144960, Note_on_c, 6, 40, 96
6, 144969, Note_on_c, 6, 47, 96
6, 144972, Note_on_c, 6, 52, 96
6, 144976, Note_on_c, 6, 56, 96
6, 144979, Note_on_c, 6, 64, 96
6, 144979, Note_on_c, 6, 59, 96
6, 145248, Note_off_c, 6, 59, 0
6, 145248, Note_off_c, 6, 64, 0
6, 145248, Note_off_c, 6, 56, 0
6, 145248, Note_off_c, 6, 52, 0
6, 145248, Note_off_c, 6, 47, 0
6, 145248, Note_off_c, 6, 40, 0
6, 145248, Note_on_c, 6, 64, 96
6, 145257, Note_on_c, 6, 59, 96
6, 145260, Note_on_c, 6, 56, 96
6, 145264, Note_on_c, 6, 52, 96
6, 145267, Note_on_c, 6, 47, 96
6, 145344, Note_off_c, 6, 47, 0
6, 145344, Note_off_c, 6, 52, 0
6, 145344, Note_off_c, 6, 56, 0
6, 145344, Note_off_c, 6, 59, 0
6, 145344, Note_off_c, 6, 64, 0
6, 145344, Note_on_c, 6, 40, 96
6, 145353, Note_on_c, 6, 47, 96
6, 145356, Note_on_c, 6, 52, 96
6, 145360, Note_on_c, 6, 56, 96
6, 145363, Note_on_c, 6, 59, 96
6, 145366, Note_on_c, 6, 64, 96
6, 145536, Note_on_c, 6, 40, 96
6, 145542, Note_on_c, 6, 47, 96
6, 145545, Note_on_c, 6, 52, 96
6, 145548, Note_on_c, 6, 56, 96
6, 145552, Note_on_c, 6, 59, 96
6, 145555, Note_on_c, 6, 64, 96
6, 145632, Note_off_c, 6, 64, 0
6, 145632, Note_off_c, 6, 59, 0
6, 145632, Note_off_c, 6, 56, 0
6, 145632, Note_off_c, 6, 52, 0
6, 145632, Note_off_c, 6, 47, 0
6, 145632, Note_off_c, 6, 40, 0
6, 145632, Note_on_c, 6, 64, 96
6, 145641, Note_on_c, 6, 59, 96
6, 145644, Note_on_c, 6, 56, 96
6, 145648, Note_on_c, 6, 52, 96
6, 145651, Note_on_c, 6, 47, 96
6, 145728, Note_off_c, 6, 64, 0
6, 145728, Note_off_c, 6, 59, 0
6, 145728, Note_off_c, 6, 56, 0
6, 145728, Note_off_c, 6, 52, 0
6, 145728, Note_off_c, 6, 47, 0
6, 145728, Note_off_c, 6, 40, 0
6, 145920, Note_off_c, 6, 47, 0
6, 145920, Note_off_c, 6, 52, 0
6, 145920, Note_off_c, 6, 56, 0
6, 145920, Note_off_c, 6, 59, 0
6, 145920, Note_off_c, 6, 64, 0
6, 145920, Note_on_c, 6, 45, 96
6, 145929, Note_on_c, 6, 52, 96
6, 145932, Note_on_c, 6, 57, 96
6, 145936, Note_on_c, 6, 61, 96
6, 145939, Note_on_c, 6, 64, 96
6, 146208, Note_off_c, 6, 64, 0
6, 146208, Note_off_c, 6, 61, 0
6, 146208, Note_off_c, 6, 57, 0
6, 146208, Note_off_c, 6, 52, 0
6, 146208, Note_off_c, 6, 45, 0
6, 146217, Note_on_c, 6, 61, 96
6, 146220, Note_on_c, 6, 57, 96
6, 146224, Note_on_c, 6, 52, 96
6, 146227, Note_on_c, 6, 64, 96
6, 146304, Note_off_c, 6, 64, 0
6, 146304, Note_off_c, 6, 52, 0
6, 146304, Note_off_c, 6, 57, 0
6, 146304, Note_off_c, 6, 61, 0
6, 146304, Note_on_c, 6, 45, 96
6, 146313, Note_on_c, 6, 52, 96
6, 146316, Note_on_c, 6, 57, 96
6, 146320, Note_on_c, 6, 61, 96
6, 146323, Note_on_c, 6, 64, 96
6, 146400, Note_off_c, 6, 64, 0
6, 146400, Note_off_c, 6, 61, 0
6, 146400, Note_off_c, 6, 57, 0
6, 146400, Note_off_c, 6, 52, 0
6, 146400, Note_off_c, 6, 45, 0
6, 146496, Note_on_c, 6, 45, 96
6, 146505, Note_on_c, 6, 52, 96
6, 146508, Note_on_c, 6, 57, 96
6, 146512, Note_on_c, 6, 61, 96
6, 146515, Note_on_c, 6, 64, 96
6, 146784, Note_off_c, 6, 64, 0
6, 146784, Note_off_c, 6, 61, 0
6, 146784, Note_off_c, 6, 57, 0
6, 146784, Note_off_c, 6, 52, 0
6, 146784, Note_off_c, 6, 45, 0
6, 146784, Note_on_c, 6, 64, 96
6, 146793, Note_on_c, 6, 61, 96
6, 146796, Note_on_c, 6, 57, 96
6, 146800, Note_on_c, 6, 52, 96
6, 146880, Note_off_c, 6, 52, 0
6, 146880, Note_off_c, 6, 57, 0
6, 146880, Note_off_c, 6, 61, 0
6, 146880, Note_off_c, 6, 64, 0
6, 146880, Note_on_c, 6, 45, 96
6, 146889, Note_on_c, 6, 52, 96
6, 146892, Note_on_c, 6, 57, 96
6, 146896, Note_on_c, 6, 61, 96
6, 146899, Note_on_c, 6, 64, 96
6, 147072, Note_on_c, 6, 45, 96
6, 147081, Note_on_c, 6, 52, 96
6, 147084, Note_on_c, 6, 57, 96
6, 147088, Note_on_c, 6, 61, 96
6, 147091, Note_on_c, 6, 64, 96
6, 147168, Note_off_c, 6, 64, 0
6, 147168, Note_off_c, 6, 61, 0
6, 147168, Note_off_c, 6, 57, 0
6, 147168, Note_off_c, 6, 52, 0
6, 147168, Note_off_c, 6, 45, 0
6, 147168, Note_on_c, 6, 64, 96
6, 147180, Note_on_c, 6, 61, 96
6, 147184, Note_on_c, 6, 57, 96
6, 147187, Note_on_c, 6, 52, 96
6, 147264, Note_off_c, 6, 64, 0
6, 147264, Note_off_c, 6, 61, 0
6, 147264, Note_off_c, 6, 57, 0
6, 147264, Note_off_c, 6, 52, 0
6, 147264, Note_off_c, 6, 45, 0
6, 147456, Note_off_c, 6, 52, 0
6, 147456, Note_off_c, 6, 57, 0
6, 147456, Note_off_c, 6, 61, 0
6, 147456, Note_off_c, 6, 64, 0
6, 147456, Note_on_c, 6, 40, 96
6, 147462, Note_on_c, 6, 47, 96
6, 147465, Note_on_c, 6, 52, 96
6, 147468, Note_on_c, 6, 56, 96
6, 147472, Note_on_c, 6, 59, 96
6, 147475, Note_on_c, 6, 64, 96
6, 147744, Note_off_c, 6, 64, 0
6, 147744, Note_off_c, 6, 59, 0
6, 147744, Note_off_c, 6, 56, 0
6, 147744, Note_off_c, 6, 52, 0
6, 147744, Note_off_c, 6, 47, 0
6, 147744, Note_off_c, 6, 40, 0
6, 147753, Note_on_c, 6, 59, 96
6, 147756, Note_on_c, 6, 56, 96
6, 147760, Note_on_c, 6, 52, 96
6, 147763, Note_on_c, 6, 47, 96
6, 147763, Note_on_c, 6, 64, 96
6, 147840, Note_off_c, 6, 64, 0
6, 147840, Note_off_c, 6, 47, 0
6, 147840, Note_off_c, 6, 52, 0
6, 147840, Note_off_c, 6, 56, 0
6, 147840, Note_off_c, 6, 59, 0
6, 147840, Note_on_c, 6, 40, 96
6, 147849, Note_on_c, 6, 47, 96
6, 147852, Note_on_c, 6, 52, 96
6, 147856, Note_on_c, 6, 56, 96
6, 147859, Note_on_c, 6, 59, 96
6, 147862, Note_on_c, 6, 64, 96
6, 147936, Note_off_c, 6, 64, 0
6, 147936, Note_off_c, 6, 59, 0
6, 147936, Note_off_c, 6, 56, 0
6, 147936, Note_off_c, 6, 52, 0
6, 147936, Note_off_c, 6, 47, 0
6, 147936, Note_off_c, 6, 40, 0
6, 148032, Note_on_c, 6, 40, 96
6, 148041, Note_on_c, 6, 47, 96
6, 148044, Note_on_c, 6, 52, 96
6, 148048, Note_on_c, 6, 56, 96
6, 148051, Note_on_c, 6, 64, 96
6, 148051, Note_on_c, 6, 59, 96
6, 148320, Note_off_c, 6, 59, 0
6, 148320, Note_off_c, 6, 64, 0
6, 148320, Note_off_c, 6, 56, 0
6, 148320, Note_off_c, 6, 52, 0
6, 148320, Note_off_c, 6, 47, 0
6, 148320, Note_off_c, 6, 40, 0
6, 148320, Note_on_c, 6, 64, 96
6, 148329, Note_on_c, 6, 59, 96
6, 148332, Note_on_c, 6, 56, 96
6, 148336, Note_on_c, 6, 52, 96
6, 148339, Note_on_c, 6, 47, 96
6, 148416, Note_off_c, 6, 47, 0
6, 148416, Note_off_c, 6, 52, 0
6, 148416, Note_off_c, 6, 56, 0
6, 148416, Note_off_c, 6, 59, 0
6, 148416, Note_off_c, 6, 64, 0
6, 148416, Note_on_c, 6, 40, 96
6, 148425, Note_on_c, 6, 47, 96
6, 148428, Note_on_c, 6, 52, 96
6, 148432, Note_on_c, 6, 56, 96
6, 148435, Note_on_c, 6, 59, 96
6, 148438, Note_on_c, 6, 64, 96
6, 148608, Note_on_c, 6, 40, 96
6, 148614, Note_on_c, 6, 47, 96
6, 148617, Note_on_c, 6, 52, 96
6, 148620, Note_on_c, 6, 56, 96
6, 148624, Note_on_c, 6, 59, 96
6, 148627, Note_on_c, 6, 64, 96
6, 148704, Note_off_c, 6, 64, 0
6, 148704, Note_off_c, 6, 59, 0
6, 148704, Note_off_c, 6, 56, 0
6, 148704, Note_off_c, 6, 52, 0
6, 148704, Note_off_c, 6, 47, 0
6, 148704, Note_off_c, 6, 40, 0
6, 148704, Note_on_c, 6, 64, 96
6, 148713, Note_on_c, 6, 59, 96
6, 148716, Note_on_c, 6, 56, 96
6, 148720, Note_on_c, 6, 52, 96
6, 148723, Note_on_c, 6, 47, 96
6, 148800, Note_off_c, 6, 64, 0
6, 148800, Note_off_c, 6, 59, 0
6, 148800, Note_off_c, 6, 56, 0
6, 148800, Note_off_c, 6, 52, 0
6, 148800, Note_off_c, 6, 47, 0
6, 148800, Note_off_c, 6, 40, 0
6, 148992, Note_off_c, 6, 47, 0
6, 148992, Note_off_c, 6, 52, 0
6, 148992, Note_off_c, 6, 56, 0
6, 148992, Note_off_c, 6, 59, 0
6, 148992, Note_off_c, 6, 64, 0
6, 148992, Note_on_c, 6, 45, 96
6, 149001, Note_on_c, 6, 52, 96
6, 149004, Note_on_c, 6, 57, 96
6, 149008, Note_on_c, 6, 61, 96
6, 149011, Note_on_c, 6, 64, 96
6, 149280, Note_off_c, 6, 64, 0
6, 149280, Note_off_c, 6, 61, 0
6, 149280, Note_off_c, 6, 57, 0
6, 149280, Note_off_c, 6, 52, 0
6, 149280, Note_off_c, 6, 45, 0
6, 149289, Note_on_c, 6, 61, 96
6, 149292, Note_on_c, 6, 57, 96
6, 149296, Note_on_c, 6, 52, 96
6, 149299, Note_on_c, 6, 64, 96
6, 149376, Note_off_c, 6, 64, 0
6, 149376, Note_off_c, 6, 52, 0
6, 149376, Note_off_c, 6, 57, 0
6, 149376, Note_off_c, 6, 61, 0
6, 149376, Note_on_c, 6, 45, 96
6, 149385, Note_on_c, 6, 52, 96
6, 149388, Note_on_c, 6, 57, 96
6, 149392, Note_on_c, 6, 61, 96
6, 149395, Note_on_c, 6, 64, 96
6, 149472, Note_off_c, 6, 64, 0
6, 149472, Note_off_c, 6, 61, 0
6, 149472, Note_off_c, 6, 57, 0
6, 149472, Note_off_c, 6, 52, 0
6, 149472, Note_off_c, 6, 45, 0
6, 149568, Note_on_c, 6, 45, 96
6, 149577, Note_on_c, 6, 52, 96
6, 149580, Note_on_c, 6, 57, 96
6, 149584, Note_on_c, 6, 61, 96
6, 149587, Note_on_c, 6, 64, 96
6, 149856, Note_off_c, 6, 64, 0
6, 149856, Note_off_c, 6, 61, 0
6, 149856, Note_off_c, 6, 57, 0
6, 149856, Note_off_c, 6, 52, 0
6, 149856, Note_off_c, 6, 45, 0
6, 149856, Note_on_c, 6, 64, 96
6, 149865, Note_on_c, 6, 61, 96
6, 149868, Note_on_c, 6, 57, 96
6, 149872, Note_on_c, 6, 52, 96
6, 149952, Note_off_c, 6, 52, 0
6, 149952, Note_off_c, 6, 57, 0
6, 149952, Note_off_c, 6, 61, 0
6, 149952, Note_off_c, 6, 64, 0
6, 149952, Note_on_c, 6, 45, 96
6, 149961, Note_on_c, 6, 52, 96
6, 149964, Note_on_c, 6, 57, 96
6, 149968, Note_on_c, 6, 61, 96
6, 149971, Note_on_c, 6, 64, 96
6, 150144, Note_on_c, 6, 45, 96
6, 150153, Note_on_c, 6, 52, 96
6, 150156, Note_on_c, 6, 57, 96
6, 150160, Note_on_c, 6, 61, 96
6, 150163, Note_on_c, 6, 64, 96
6, 150240, Note_off_c, 6, 64, 0
6, 150240, Note_off_c, 6, 61, 0
6, 150240, Note_off_c, 6, 57, 0
6, 150240, Note_off_c, 6, 52, 0
6, 150240, Note_off_c, 6, 45, 0
6, 150240, Note_on_c, 6, 64, 96
6, 150252, Note_on_c, 6, 61, 96
6, 150256, Note_on_c, 6, 57, 96
6, 150259, Note_on_c, 6, 52, 96
6, 150336, Note_off_c, 6, 64, 0
6, 150336, Note_off_c, 6, 61, 0
6, 150336, Note_off_c, 6, 57, 0
6, 150336, Note_off_c, 6, 52, 0
6, 150336, Note_off_c, 6, 45, 0
6, 150528, Note_off_c, 6, 52, 0
6, 150528, Note_off_c, 6, 57, 0
6, 150528, Note_off_c, 6, 61, 0
6, 150528, Note_off_c, 6, 64, 0
6, 150528, Note_on_c, 6, 40, 96
6, 150537, Note_on_c, 6, 47, 96
6, 150540, Note_on_c, 6, 52, 96
6, 150544, Note_on_c, 6, 56, 96
6, 150547, Note_on_c, 6, 59, 96
6, 150550, Note_on_c, 6, 64, 96
6, 152064, Note_off_c, 6, 64, 0
6, 152064, Note_off_c, 6, 59, 0
6, 152064, Note_off_c, 6, 56, 0
6, 152064, Note_off_c, 6, 52, 0
6, 152064, Note_off_c, 6, 47, 0
6, 152064, Note_off_c, 6, 40, 0
6, 152064, Note_on_c, 6, 47, 96
6, 152073, Note_on_c, 6, 54, 96
6, 152076, Note_on_c, 6, 59, 96
6, 152080, Note_on_c, 6, 63, 96
6, 152083, Note_on_c, 6, 66, 96
6, 152352, Note_off_c, 6, 66, 0
6, 152352, Note_off_c, 6, 63, 0
6, 152352, Note_off_c, 6, 59, 0
6, 152352, Note_off_c, 6, 54, 0
6, 152352, Note_off_c, 6, 47, 0
6, 152352, Note_on_c, 6, 47, 96
6, 152361, Note_on_c, 6, 54, 96
6, 152364, Note_on_c, 6, 59, 96
6, 152368, Note_on_c, 6, 63, 96
6, 152371, Note_on_c, 6, 66, 96
6, 152544, Note_off_c, 6, 66, 0
6, 152544, Note_off_c, 6, 63, 0
6, 152544, Note_off_c, 6, 59, 0
6, 152544, Note_off_c, 6, 54, 0
6, 152544, Note_off_c, 6, 47, 0
6, 152640, Note_on_c, 6, 45, 96
6, 152649, Note_on_c, 6, 52, 96
6, 152652, Note_on_c, 6, 57, 96
6, 152656, Note_on_c, 6, 61, 96
6, 152659, Note_on_c, 6, 64, 96
6, 153408, Note_off_c, 6, 64, 0
6, 153408, Note_off_c, 6, 61, 0
6, 153408, Note_off_c, 6, 57, 0
6, 153408, Note_off_c, 6, 52, 0
6, 153408, Note_off_c, 6, 45, 0
6, 153600, Note_on_c, 6, 40, 96
6, 153606, Note_on_c, 6, 47, 96
6, 153609, Note_on_c, 6, 52, 96
6, 153612, Note_on_c, 6, 56, 96
6, 153616, Note_on_c, 6, 59, 96
6, 153619, Note_on_c, 6, 64, 96
6, 153888, Note_on_c, 6, 64, 71
6, 153894, Note_on_c, 6, 59, 71
6, 153897, Note_on_c, 6, 56, 71
6, 153900, Note_on_c, 6, 52, 71
6, 153904, Note_on_c, 6, 47, 71
6, 153984, Note_off_c, 6, 47, 0
6, 153984, Note_off_c, 6, 52, 0
6, 153984, Note_off_c, 6, 56, 0
6, 153984, Note_off_c, 6, 59, 0
6, 153984, Note_off_c, 6, 64, 0
6, 153984, Note_off_c, 6, 64, 0
6, 153984, Note_off_c, 6, 59, 0
6, 153984, Note_off_c, 6, 56, 0
6, 153984, Note_off_c, 6, 52, 0
6, 153984, Note_off_c, 6, 47, 0
6, 153984, Note_off_c, 6, 40, 0
6, 153984, Note_on_c, 6, 40, 96
6, 153990, Note_on_c, 6, 47, 96
6, 153993, Note_on_c, 6, 52, 96
6, 153996, Note_on_c, 6, 56, 96
6, 154000, Note_on_c, 6, 59, 96
6, 154003, Note_on_c, 6, 64, 96
6, 154368, Note_off_c, 6, 64, 0
6, 154368, Note_off_c, 6, 59, 0
6, 154368, Note_off_c, 6, 56, 0
6, 154368, Note_off_c, 6, 52, 0
6, 154368, Note_off_c, 6, 47, 0
6, 154368, Note_off_c, 6, 40, 0
6, 154371, Note_on_c, 6, 47, 96
6, 154374, Note_on_c, 6, 54, 96
6, 154377, Note_on_c, 6, 59, 96
6, 154380, Note_on_c, 6, 63, 96
6, 154384, Note_on_c, 6, 66, 96
6, 154656, Note_on_c, 6, 66, 71
6, 154662, Note_on_c, 6, 63, 71
6, 154665, Note_on_c, 6, 59, 71
6, 154668, Note_on_c, 6, 54, 71
6, 154752, Note_off_c, 6, 54, 0
6, 154752, Note_off_c, 6, 59, 0
6, 154752, Note_off_c, 6, 63, 0
6, 154752, Note_off_c, 6, 66, 0
6, 154752, Note_off_c, 6, 66, 0
6, 154752, Note_off_c, 6, 63, 0
6, 154752, Note_off_c, 6, 59, 0
6, 154752, Note_off_c, 6, 54, 0
6, 154752, Note_off_c, 6, 47, 0
6, 154752, Note_on_c, 6, 47, 96
6, 154758, Note_on_c, 6, 54, 96
6, 154761, Note_on_c, 6, 59, 96
6, 154764, Note_on_c, 6, 63, 96
6, 154768, Note_on_c, 6, 66, 96
6, 154848, Note_on_c, 6, 66, 71
6, 154854, Note_on_c, 6, 63, 71
6, 154857, Note_on_c, 6, 59, 71
6, 154860, Note_on_c, 6, 54, 71
6, 154944, Note_off_c, 6, 66, 0
6, 154944, Note_off_c, 6, 63, 0
6, 154944, Note_off_c, 6, 59, 0
6, 154944, Note_off_c, 6, 54, 0
6, 155136, Note_off_c, 6, 54, 0
6, 155136, Note_off_c, 6, 59, 0
6, 155136, Note_off_c, 6, 63, 0
6, 155136, Note_off_c, 6, 66, 0
6, 155136, Note_off_c, 6, 47, 0
6, 155136, Note_on_c, 6, 45, 96
6, 155142, Note_on_c, 6, 52, 96
6, 155145, Note_on_c, 6, 57, 96
6, 155148, Note_on_c, 6, 61, 96
6, 155152, Note_on_c, 6, 64, 96
6, 155424, Note_on_c, 6, 64, 71
6, 155430, Note_on_c, 6, 61, 71
6, 155433, Note_on_c, 6, 57, 71
6, 155436, Note_on_c, 6, 52, 71
6, 155520, Note_off_c, 6, 52, 0
6, 155520, Note_off_c, 6, 57, 0
6, 155520, Note_off_c, 6, 61, 0
6, 155520, Note_off_c, 6, 64, 0
6, 155520, Note_off_c, 6, 64, 0
6, 155520, Note_off_c, 6, 61, 0
6, 155520, Note_off_c, 6, 57, 0
6, 155520, Note_off_c, 6, 52, 0
6, 155520, Note_off_c, 6, 45, 0
6, 155520, Note_on_c, 6, 45, 96
6, 155526, Note_on_c, 6, 52, 96
6, 155529, Note_on_c, 6, 57, 96
6, 155532, Note_on_c, 6, 61, 96
6, 155536, Note_on_c, 6, 64, 96
6, 155904, Note_off_c, 6, 64, 0
6, 155904, Note_off_c, 6, 61, 0
6, 155904, Note_off_c, 6, 57, 0
6, 155904, Note_off_c, 6, 52, 0
6, 155904, Note_off_c, 6, 45, 0
6, 155904, Note_on_c, 6, 40, 96
6, 155910, Note_on_c, 6, 47, 96
6, 155913, Note_on_c, 6, 52, 96
6, 155916, Note_on_c, 6, 56, 96
6, 155920, Note_on_c, 6, 59, 96
6, 155923, Note_on_c, 6, 64, 96
6, 156192, Note_on_c, 6, 64, 71
6, 156198, Note_on_c, 6, 59, 71
6, 156201, Note_on_c, 6, 56, 71
6, 156204, Note_on_c, 6, 52, 71
6, 156208, Note_on_c, 6, 47, 71
6, 156288, Note_off_c, 6, 47, 0
6, 156288, Note_off_c, 6, 52, 0
6, 156288, Note_off_c, 6, 56, 0
6, 156288, Note_off_c, 6, 59, 0
6, 156288, Note_off_c, 6, 64, 0
6, 156288, Note_off_c, 6, 64, 0
6, 156288, Note_off_c, 6, 59, 0
6, 156288, Note_off_c, 6, 56, 0
6, 156288, Note_off_c, 6, 52, 0
6, 156288, Note_off_c, 6, 47, 0
6, 156288, Note_off_c, 6, 40, 0
6, 156288, Note_on_c, 6, 40, 96
6, 156294, Note_on_c, 6, 47, 96
6, 156297, Note_on_c, 6, 52, 96
6, 156300, Note_on_c, 6, 56, 96
6, 156304, Note_on_c, 6, 59, 96
6, 156307, Note_on_c, 6, 64, 96
6, 156384, Note_on_c, 6, 64, 71
6, 156390, Note_on_c, 6, 59, 71
6, 156393, Note_on_c, 6, 56, 71
6, 156396, Note_on_c, 6, 52, 71
6, 156400, Note_on_c, 6, 47, 71
6, 156480, Note_off_c, 6, 64, 0
6, 156480, Note_off_c, 6, 59, 0
6, 156480, Note_off_c, 6, 56, 0
6, 156480, Note_off_c, 6, 52, 0
6, 156480, Note_off_c, 6, 47, 0
6, 156576, Note_on_c, 6, 47, 71
6, 156579, Note_on_c, 6, 52, 71
6, 156582, Note_on_c, 6, 56, 71
6, 156585, Note_on_c, 6, 59, 71
6, 156588, Note_on_c, 6, 64, 71
6, 156672, Note_off_c, 6, 64, 0
6, 156672, Note_off_c, 6, 59, 0
6, 156672, Note_off_c, 6, 56, 0
6, 156672, Note_off_c, 6, 52, 0
6, 156672, Note_off_c, 6, 47, 0
6, 156672, Note_off_c, 6, 47, 0
6, 156672, Note_off_c, 6, 52, 0
6, 156672, Note_off_c, 6, 56, 0
6, 156672, Note_off_c, 6, 59, 0
6, 156672, Note_off_c, 6, 64, 0
6, 156672, Note_off_c, 6, 40, 0
6, 156672, Note_on_c, 6, 40, 96
6, 156678, Note_on_c, 6, 47, 96
6, 156681, Note_on_c, 6, 52, 96
6, 156684, Note_on_c, 6, 56, 96
6, 156688, Note_on_c, 6, 59, 96
6, 156691, Note_on_c, 6, 64, 96
6, 156960, Note_on_c, 6, 64, 71
6, 156966, Note_on_c, 6, 59, 71
6, 156969, Note_on_c, 6, 56, 71
6, 156972, Note_on_c, 6, 52, 71
6, 156976, Note_on_c, 6, 47, 71
6, 157056, Note_off_c, 6, 47, 0
6, 157056, Note_off_c, 6, 52, 0
6, 157056, Note_off_c, 6, 56, 0
6, 157056, Note_off_c, 6, 59, 0
6, 157056, Note_off_c, 6, 64, 0
6, 157056, Note_off_c, 6, 64, 0
6, 157056, Note_off_c, 6, 59, 0
6, 157056, Note_off_c, 6, 56, 0
6, 157056, Note_off_c, 6, 52, 0
6, 157056, Note_off_c, 6, 47, 0
6, 157056, Note_off_c, 6, 40, 0
6, 157056, Note_on_c, 6, 40, 96
6, 157062, Note_on_c, 6, 47, 96
6, 157065, Note_on_c, 6, 52, 96
6, 157068, Note_on_c, 6, 56, 96
6, 157072, Note_on_c, 6, 59, 96
6, 157075, Note_on_c, 6, 64, 96
6, 157440, Note_off_c, 6, 64, 0
6, 157440, Note_off_c, 6, 59, 0
6, 157440, Note_off_c, 6, 56, 0
6, 157440, Note_off_c, 6, 52, 0
6, 157440, Note_off_c, 6, 47, 0
6, 157440, Note_off_c, 6, 40, 0
6, 157443, Note_on_c, 6, 47, 96
6, 157446, Note_on_c, 6, 54, 96
6, 157449, Note_on_c, 6, 59, 96
6, 157452, Note_on_c, 6, 63, 96
6, 157456, Note_on_c, 6, 66, 96
6, 157728, Note_on_c, 6, 66, 71
6, 157734, Note_on_c, 6, 63, 71
6, 157737, Note_on_c, 6, 59, 71
6, 157740, Note_on_c, 6, 54, 71
6, 157824, Note_off_c, 6, 54, 0
6, 157824, Note_off_c, 6, 59, 0
6, 157824, Note_off_c, 6, 63, 0
6, 157824, Note_off_c, 6, 66, 0
6, 157824, Note_off_c, 6, 66, 0
6, 157824, Note_off_c, 6, 63, 0
6, 157824, Note_off_c, 6, 59, 0
6, 157824, Note_off_c, 6, 54, 0
6, 157824, Note_off_c, 6, 47, 0
6, 157824, Note_on_c, 6, 47, 96
6, 157830, Note_on_c, 6, 54, 96
6, 157833, Note_on_c, 6, 59, 96
6, 157836, Note_on_c, 6, 63, 96
6, 157840, Note_on_c, 6, 66, 96
6, 157920, Note_on_c, 6, 66, 71
6, 157926, Note_on_c, 6, 63, 71
6, 157929, Note_on_c, 6, 59, 71
6, 157932, Note_on_c, 6, 54, 71
6, 158016, Note_off_c, 6, 66, 0
6, 158016, Note_off_c, 6, 63, 0
6, 158016, Note_off_c, 6, 59, 0
6, 158016, Note_off_c, 6, 54, 0
6, 158208, Note_off_c, 6, 54, 0
6, 158208, Note_off_c, 6, 59, 0
6, 158208, Note_off_c, 6, 63, 0
6, 158208, Note_off_c, 6, 66, 0
6, 158208, Note_off_c, 6, 47, 0
6, 158208, Note_on_c, 6, 45, 96
6, 158214, Note_on_c, 6, 52, 96
6, 158217, Note_on_c, 6, 57, 96
6, 158220, Note_on_c, 6, 61, 96
6, 158224, Note_on_c, 6, 64, 96
6, 158496, Note_on_c, 6, 64, 71
6, 158502, Note_on_c, 6, 61, 71
6, 158505, Note_on_c, 6, 57, 71
6, 158508, Note_on_c, 6, 52, 71
6, 158592, Note_off_c, 6, 52, 0
6, 158592, Note_off_c, 6, 57, 0
6, 158592, Note_off_c, 6, 61, 0
6, 158592, Note_off_c, 6, 64, 0
6, 158592, Note_off_c, 6, 64, 0
6, 158592, Note_off_c, 6, 61, 0
6, 158592, Note_off_c, 6, 57, 0
6, 158592, Note_off_c, 6, 52, 0
6, 158592, Note_off_c, 6, 45, 0
6, 158592, Note_on_c, 6, 45, 96
6, 158598, Note_on_c, 6, 52, 96
6, 158601, Note_on_c, 6, 57, 96
6, 158604, Note_on_c, 6, 61, 96
6, 158608, Note_on_c, 6, 64, 96
6, 158976, Note_off_c, 6, 64, 0
6, 158976, Note_off_c, 6, 61, 0
6, 158976, Note_off_c, 6, 57, 0
6, 158976, Note_off_c, 6, 52, 0
6, 158976, Note_off_c, 6, 45, 0
6, 158976, Note_on_c, 6, 45, 96
6, 158982, Note_on_c, 6, 52, 96
6, 158985, Note_on_c, 6, 57, 96
6, 158988, Note_on_c, 6, 61, 96
6, 158992, Note_on_c, 6, 64, 96
6, 159264, Note_on_c, 6, 64, 71
6, 159270, Note_on_c, 6, 61, 71
6, 159273, Note_on_c, 6, 57, 71
6, 159276, Note_on_c, 6, 52, 71
6, 159360, Note_off_c, 6, 52, 0
6, 159360, Note_off_c, 6, 57, 0
6, 159360, Note_off_c, 6, 61, 0
6, 159360, Note_off_c, 6, 64, 0
6, 159360, Note_off_c, 6, 64, 0
6, 159360, Note_off_c, 6, 61, 0
6, 159360, Note_off_c, 6, 57, 0
6, 159360, Note_off_c, 6, 52, 0
6, 159360, Note_off_c, 6, 45, 0
6, 159360, Note_on_c, 6, 45, 96
6, 159366, Note_on_c, 6, 52, 96
6, 159369, Note_on_c, 6, 57, 96
6, 159372, Note_on_c, 6, 61, 96
6, 159376, Note_on_c, 6, 64, 96
6, 159744, Note_off_c, 6, 64, 0
6, 159744, Note_off_c, 6, 61, 0
6, 159744, Note_off_c, 6, 57, 0
6, 159744, Note_off_c, 6, 52, 0
6, 159744, Note_off_c, 6, 45, 0
6, 159744, Note_on_c, 6, 45, 96
6, 159750, Note_on_c, 6, 52, 96
6, 159753, Note_on_c, 6, 57, 96
6, 159756, Note_on_c, 6, 61, 96
6, 159760, Note_on_c, 6, 64, 96
6, 160032, Note_on_c, 6, 64, 71
6, 160038, Note_on_c, 6, 61, 71
6, 160041, Note_on_c, 6, 57, 71
6, 160044, Note_on_c, 6, 52, 71
6, 160128, Note_off_c, 6, 52, 0
6, 160128, Note_off_c, 6, 57, 0
6, 160128, Note_off_c, 6, 61, 0
6, 160128, Note_off_c, 6, 64, 0
6, 160128, Note_off_c, 6, 64, 0
6, 160128, Note_off_c, 6, 61, 0
6, 160128, Note_off_c, 6, 57, 0
6, 160128, Note_off_c, 6, 52, 0
6, 160128, Note_off_c, 6, 45, 0
6, 160128, Note_on_c, 6, 45, 96
6, 160134, Note_on_c, 6, 52, 96
6, 160137, Note_on_c, 6, 57, 96
6, 160140, Note_on_c, 6, 61, 96
6, 160144, Note_on_c, 6, 64, 96
6, 160512, Note_off_c, 6, 64, 0
6, 160512, Note_off_c, 6, 61, 0
6, 160512, Note_off_c, 6, 57, 0
6, 160512, Note_off_c, 6, 52, 0
6, 160512, Note_off_c, 6, 45, 0
6, 160518, Note_on_c, 6, 62, 96
6, 160521, Note_on_c, 6, 57, 96
6, 160524, Note_on_c, 6, 52, 96
6, 160528, Note_on_c, 6, 64, 96
6, 160608, Note_off_c, 6, 64, 0
6, 160608, Note_off_c, 6, 52, 0
6, 160608, Note_off_c, 6, 57, 0
6, 160608, Note_off_c, 6, 62, 0
6, 160608, Note_on_c, 6, 45, 96
6, 160614, Note_on_c, 6, 52, 96
6, 160617, Note_on_c, 6, 57, 96
6, 160620, Note_on_c, 6, 61, 96
6, 160624, Note_on_c, 6, 64, 96
6, 160896, Note_on_c, 6, 45, 96
6, 160902, Note_on_c, 6, 52, 96
6, 160905, Note_on_c, 6, 57, 96
6, 160908, Note_on_c, 6, 61, 96
6, 160912, Note_on_c, 6, 64, 96
6, 160992, Note_off_c, 6, 64, 0
6, 160992, Note_off_c, 6, 61, 0
6, 160992, Note_off_c, 6, 57, 0
6, 160992, Note_off_c, 6, 52, 0
6, 160992, Note_off_c, 6, 45, 0
6, 161280, Note_off_c, 6, 64, 0
6, 161280, Note_off_c, 6, 61, 0
6, 161280, Note_off_c, 6, 57, 0
6, 161280, Note_off_c, 6, 52, 0
6, 161280, Note_off_c, 6, 45, 0
6, 161280, Note_on_c, 6, 40, 96
6, 161286, Note_on_c, 6, 47, 96
6, 161289, Note_on_c, 6, 52, 96
6, 161292, Note_on_c, 6, 56, 96
6, 161296, Note_on_c, 6, 59, 96
6, 161299, Note_on_c, 6, 64, 96
6, 161472, Note_off_c, 6, 64, 0
6, 161472, Note_off_c, 6, 59, 0
6, 161472, Note_off_c, 6, 56, 0
6, 161472, Note_off_c, 6, 52, 0
6, 161472, Note_off_c, 6, 47, 0
6, 161472, Note_off_c, 6, 40, 0
6, 161472, Note_on_c, 6, 40, 96
6, 161478, Note_on_c, 6, 47, 96
6, 161481, Note_on_c, 6, 52, 96
6, 161484, Note_on_c, 6, 56, 96
6, 161488, Note_on_c, 6, 59, 96
6, 161491, Note_on_c, 6, 64, 96
6, 161568, Note_off_c, 6, 64, 0
6, 161568, Note_off_c, 6, 59, 0
6, 161568, Note_off_c, 6, 56, 0
6, 161568, Note_off_c, 6, 52, 0
6, 161568, Note_off_c, 6, 47, 0
6, 161568, Note_off_c, 6, 40, 0
6, 161568, Note_on_c, 6, 64, 81
6, 161574, Note_on_c, 6, 59, 81
6, 161577, Note_on_c, 6, 56, 81
6, 161580, Note_on_c, 6, 52, 81
6, 161584, Note_on_c, 6, 47, 81
6, 161664, Note_off_c, 6, 47, 0
6, 161664, Note_off_c, 6, 52, 0
6, 161664, Note_off_c, 6, 56, 0
6, 161664, Note_off_c, 6, 59, 0
6, 161664, Note_off_c, 6, 64, 0
6, 161760, Note_on_c, 6, 64, 81
6, 161766, Note_on_c, 6, 59, 81
6, 161769, Note_on_c, 6, 56, 81
6, 161772, Note_on_c, 6, 52, 81
6, 161776, Note_on_c, 6, 47, 81
6, 161856, Note_off_c, 6, 47, 0
6, 161856, Note_off_c, 6, 52, 0
6, 161856, Note_off_c, 6, 56, 0
6, 161856, Note_off_c, 6, 59, 0
6, 161856, Note_off_c, 6, 64, 0
6, 161856, Note_on_c, 6, 40, 96
6, 161862, Note_on_c, 6, 47, 96
6, 161865, Note_on_c, 6, 52, 96
6, 161868, Note_on_c, 6, 56, 96
6, 161872, Note_on_c, 6, 59, 96
6, 161875, Note_on_c, 6, 64, 96
6, 162048, Note_off_c, 6, 64, 0
6, 162048, Note_off_c, 6, 59, 0
6, 162048, Note_off_c, 6, 56, 0
6, 162048, Note_off_c, 6, 52, 0
6, 162048, Note_off_c, 6, 47, 0
6, 162048, Note_off_c, 6, 40, 0
6, 162048, Note_on_c, 6, 40, 96
6, 162054, Note_on_c, 6, 47, 96
6, 162057, Note_on_c, 6, 52, 96
6, 162060, Note_on_c, 6, 56, 96
6, 162064, Note_on_c, 6, 59, 96
6, 162067, Note_on_c, 6, 64, 96
6, 162144, Note_off_c, 6, 64, 0
6, 162144, Note_off_c, 6, 59, 0
6, 162144, Note_off_c, 6, 56, 0
6, 162144, Note_off_c, 6, 52, 0
6, 162144, Note_off_c, 6, 47, 0
6, 162144, Note_off_c, 6, 40, 0
6, 162144, Note_on_c, 6, 64, 81
6, 162150, Note_on_c, 6, 59, 81
6, 162153, Note_on_c, 6, 56, 81
6, 162156, Note_on_c, 6, 52, 81
6, 162160, Note_on_c, 6, 47, 41
6, 162240, Note_off_c, 6, 47, 0
6, 162240, Note_off_c, 6, 52, 0
6, 162240, Note_off_c, 6, 56, 0
6, 162240, Note_off_c, 6, 59, 0
6, 162240, Note_off_c, 6, 64, 0
6, 162336, Note_on_c, 6, 64, 81
6, 162342, Note_on_c, 6, 59, 81
6, 162345, Note_on_c, 6, 56, 81
6, 162348, Note_on_c, 6, 52, 81
6, 162352, Note_on_c, 6, 47, 81
6, 162432, Note_off_c, 6, 47, 0
6, 162432, Note_off_c, 6, 52, 0
6, 162432, Note_off_c, 6, 56, 0
6, 162432, Note_off_c, 6, 59, 0
6, 162432, Note_off_c, 6, 64, 0
6, 162432, Note_on_c, 6, 40, 96
6, 162438, Note_on_c, 6, 47, 96
6, 162441, Note_on_c, 6, 52, 96
6, 162444, Note_on_c, 6, 56, 96
6, 162448, Note_on_c, 6, 59, 96
6, 162451, Note_on_c, 6, 64, 96
6, 162528, Note_off_c, 6, 64, 0
6, 162528, Note_on_c, 6, 64, 96
6, 162534, Note_on_c, 6, 59, 96
6, 162537, Note_on_c, 6, 56, 96
6, 162540, Note_on_c, 6, 47, 96
6, 162624, Note_off_c, 6, 47, 0
6, 162624, Note_off_c, 6, 56, 0
6, 162624, Note_off_c, 6, 59, 0
6, 162624, Note_off_c, 6, 64, 0
6, 162624, Note_off_c, 6, 59, 0
6, 162624, Note_off_c, 6, 56, 0
6, 162624, Note_off_c, 6, 52, 0
6, 162624, Note_off_c, 6, 47, 0
6, 162624, Note_off_c, 6, 40, 0
6, 162624, Note_on_c, 6, 40, 96
6, 162630, Note_on_c, 6, 47, 96
6, 162633, Note_on_c, 6, 52, 96
6, 162636, Note_on_c, 6, 56, 96
6, 162640, Note_on_c, 6, 59, 96
6, 162643, Note_on_c, 6, 64, 96
6, 162816, Note_off_c, 6, 64, 0
6, 162816, Note_off_c, 6, 59, 0
6, 162816, Note_off_c, 6, 56, 0
6, 162816, Note_off_c, 6, 52, 0
6, 162816, Note_off_c, 6, 47, 0
6, 162816, Note_off_c, 6, 40, 0
6, 162816, Note_on_c, 6, 61, 96
6, 162816, Note_on_c, 6, 57, 96
6, 162816, Note_on_c, 6, 45, 96
6, 162825, Note_on_c, 6, 52, 96
6, 162835, Note_on_c, 6, 64, 96
6, 163008, Note_off_c, 6, 64, 0
6, 163008, Note_off_c, 6, 52, 0
6, 163008, Note_off_c, 6, 45, 0
6, 163008, Note_off_c, 6, 57, 0
6, 163008, Note_off_c, 6, 61, 0
6, 163008, Note_on_c, 6, 57, 96
6, 163008, Note_on_c, 6, 61, 96
6, 163008, Note_on_c, 6, 45, 96
6, 163017, Note_on_c, 6, 52, 96
6, 163027, Note_on_c, 6, 64, 96
6, 163104, Note_off_c, 6, 64, 0
6, 163104, Note_off_c, 6, 52, 0
6, 163104, Note_off_c, 6, 45, 0
6, 163104, Note_off_c, 6, 61, 0
6, 163104, Note_off_c, 6, 57, 0
6, 163104, Note_on_c, 6, 57, 81
6, 163104, Note_on_c, 6, 61, 81
6, 163104, Note_on_c, 6, 64, 81
6, 163116, Note_on_c, 6, 52, 81
6, 163200, Note_off_c, 6, 52, 0
6, 163200, Note_off_c, 6, 64, 0
6, 163200, Note_off_c, 6, 61, 0
6, 163200, Note_off_c, 6, 57, 0
6, 163296, Note_on_c, 6, 57, 81
6, 163296, Note_on_c, 6, 61, 81
6, 163296, Note_on_c, 6, 64, 81
6, 163308, Note_on_c, 6, 52, 81
6, 163392, Note_off_c, 6, 52, 0
6, 163392, Note_off_c, 6, 64, 0
6, 163392, Note_off_c, 6, 61, 0
6, 163392, Note_off_c, 6, 57, 0
6, 163392, Note_on_c, 6, 57, 96
6, 163392, Note_on_c, 6, 61, 96
6, 163392, Note_on_c, 6, 45, 96
6, 163401, Note_on_c, 6, 52, 96
6, 163411, Note_on_c, 6, 64, 96
6, 163584, Note_off_c, 6, 64, 0
6, 163584, Note_off_c, 6, 52, 0
6, 163584, Note_off_c, 6, 45, 0
6, 163584, Note_off_c, 6, 61, 0
6, 163584, Note_off_c, 6, 57, 0
6, 163584, Note_on_c, 6, 57, 96
6, 163584, Note_on_c, 6, 61, 96
6, 163584, Note_on_c, 6, 45, 96
6, 163593, Note_on_c, 6, 52, 96
6, 163603, Note_on_c, 6, 64, 96
6, 163680, Note_off_c, 6, 64, 0
6, 163680, Note_off_c, 6, 52, 0
6, 163680, Note_off_c, 6, 45, 0
6, 163680, Note_off_c, 6, 61, 0
6, 163680, Note_off_c, 6, 57, 0
6, 163680, Note_on_c, 6, 57, 81
6, 163680, Note_on_c, 6, 61, 81
6, 163680, Note_on_c, 6, 64, 81
6, 163692, Note_on_c, 6, 52, 81
6, 163776, Note_off_c, 6, 52, 0
6, 163776, Note_off_c, 6, 64, 0
6, 163776, Note_off_c, 6, 61, 0
6, 163776, Note_off_c, 6, 57, 0
6, 163872, Note_on_c, 6, 57, 81
6, 163872, Note_on_c, 6, 61, 81
6, 163872, Note_on_c, 6, 64, 81
6, 163884, Note_on_c, 6, 52, 81
6, 163968, Note_off_c, 6, 52, 0
6, 163968, Note_off_c, 6, 64, 0
6, 163968, Note_off_c, 6, 61, 0
6, 163968, Note_off_c, 6, 57, 0
6, 163968, Note_on_c, 6, 57, 96
6, 163968, Note_on_c, 6, 61, 96
6, 163968, Note_on_c, 6, 45, 96
6, 163977, Note_on_c, 6, 52, 96
6, 163987, Note_on_c, 6, 64, 96
6, 164064, Note_off_c, 6, 64, 0
6, 164064, Note_on_c, 6, 57, 96
6, 164064, Note_on_c, 6, 61, 96
6, 164064, Note_on_c, 6, 64, 96
6, 164160, Note_off_c, 6, 64, 0
6, 164160, Note_off_c, 6, 61, 0
6, 164160, Note_off_c, 6, 57, 0
6, 164160, Note_off_c, 6, 52, 0
6, 164160, Note_off_c, 6, 45, 0
6, 164160, Note_off_c, 6, 61, 0
6, 164160, Note_off_c, 6, 57, 0
6, 164160, Note_on_c, 6, 57, 96
6, 164160, Note_on_c, 6, 61, 96
6, 164160, Note_on_c, 6, 45, 96
6, 164169, Note_on_c, 6, 52, 96
6, 164179, Note_on_c, 6, 64, 96
6, 164352, Note_off_c, 6, 64, 0
6, 164352, Note_off_c, 6, 52, 0
6, 164352, Note_off_c, 6, 45, 0
6, 164352, Note_off_c, 6, 61, 0
6, 164352, Note_off_c, 6, 57, 0
6, 164352, Note_on_c, 6, 47, 96
6, 164358, Note_on_c, 6, 54, 96
6, 164361, Note_on_c, 6, 59, 96
6, 164364, Note_on_c, 6, 63, 96
6, 164368, Note_on_c, 6, 66, 96
6, 164544, Note_off_c, 6, 66, 0
6, 164544, Note_off_c, 6, 63, 0
6, 164544, Note_off_c, 6, 59, 0
6, 164544, Note_off_c, 6, 54, 0
6, 164544, Note_off_c, 6, 47, 0
6, 164544, Note_on_c, 6, 47, 96
6, 164550, Note_on_c, 6, 54, 96
6, 164553, Note_on_c, 6, 59, 96
6, 164556, Note_on_c, 6, 63, 96
6, 164560, Note_on_c, 6, 66, 96
6, 164640, Note_off_c, 6, 66, 0
6, 164640, Note_off_c, 6, 63, 0
6, 164640, Note_off_c, 6, 59, 0
6, 164640, Note_off_c, 6, 54, 0
6, 164640, Note_off_c, 6, 47, 0
6, 164640, Note_on_c, 6, 66, 81
6, 164646, Note_on_c, 6, 63, 81
6, 164649, Note_on_c, 6, 59, 81
6, 164652, Note_on_c, 6, 54, 81
6, 164736, Note_off_c, 6, 54, 0
6, 164736, Note_off_c, 6, 59, 0
6, 164736, Note_off_c, 6, 63, 0
6, 164736, Note_off_c, 6, 66, 0
6, 164736, Note_on_c, 6, 47, 96
6, 164742, Note_on_c, 6, 54, 96
6, 164745, Note_on_c, 6, 59, 96
6, 164748, Note_on_c, 6, 63, 96
6, 164752, Note_on_c, 6, 66, 96
6, 164928, Note_off_c, 6, 66, 0
6, 164928, Note_off_c, 6, 63, 0
6, 164928, Note_off_c, 6, 59, 0
6, 164928, Note_off_c, 6, 54, 0
6, 164928, Note_off_c, 6, 47, 0
6, 164928, Note_on_c, 6, 47, 96
6, 164934, Note_on_c, 6, 54, 96
6, 164937, Note_on_c, 6, 59, 96
6, 164940, Note_on_c, 6, 63, 96
6, 164944, Note_on_c, 6, 66, 96
6, 165024, Note_off_c, 6, 66, 0
6, 165024, Note_off_c, 6, 63, 0
6, 165024, Note_off_c, 6, 59, 0
6, 165024, Note_off_c, 6, 54, 0
6, 165024, Note_off_c, 6, 47, 0
6, 165024, Note_on_c, 6, 66, 81
6, 165030, Note_on_c, 6, 63, 81
6, 165033, Note_on_c, 6, 59, 81
6, 165036, Note_on_c, 6, 54, 81
6, 165120, Note_off_c, 6, 54, 0
6, 165120, Note_off_c, 6, 59, 0
6, 165120, Note_off_c, 6, 63, 0
6, 165120, Note_off_c, 6, 66, 0
6, 165120, Note_on_c, 6, 45, 96
6, 165126, Note_on_c, 6, 52, 96
6, 165129, Note_on_c, 6, 57, 96
6, 165132, Note_on_c, 6, 61, 96
6, 165136, Note_on_c, 6, 64, 96
6, 165312, Note_off_c, 6, 64, 0
6, 165312, Note_off_c, 6, 61, 0
6, 165312, Note_off_c, 6, 57, 0
6, 165312, Note_off_c, 6, 52, 0
6, 165312, Note_off_c, 6, 45, 0
6, 165312, Note_on_c, 6, 57, 96
6, 165312, Note_on_c, 6, 45, 96
6, 165312, Note_on_c, 6, 64, 96
6, 165312, Note_on_c, 6, 61, 96
6, 165318, Note_on_c, 6, 52, 96
6, 165408, Note_off_c, 6, 52, 0
6, 165408, Note_off_c, 6, 61, 0
6, 165408, Note_off_c, 6, 64, 0
6, 165408, Note_off_c, 6, 45, 0
6, 165408, Note_off_c, 6, 57, 0
6, 165408, Note_on_c, 6, 64, 81
6, 165408, Note_on_c, 6, 61, 81
6, 165408, Note_on_c, 6, 52, 81
6, 165408, Note_on_c, 6, 57, 81
6, 165504, Note_off_c, 6, 57, 0
6, 165504, Note_off_c, 6, 52, 0
6, 165504, Note_off_c, 6, 61, 0
6, 165504, Note_off_c, 6, 64, 0
6, 165504, Note_on_c, 6, 45, 96
6, 165504, Note_on_c, 6, 52, 96
6, 165513, Note_on_c, 6, 57, 96
6, 165516, Note_on_c, 6, 61, 96
6, 165520, Note_on_c, 6, 64, 96
6, 165696, Note_off_c, 6, 64, 0
6, 165696, Note_off_c, 6, 61, 0
6, 165696, Note_off_c, 6, 57, 0
6, 165696, Note_off_c, 6, 52, 0
6, 165696, Note_off_c, 6, 45, 0
6, 165696, Note_on_c, 6, 45, 96
6, 165702, Note_on_c, 6, 52, 96
6, 165705, Note_on_c, 6, 57, 96
6, 165708, Note_on_c, 6, 61, 96
6, 165712, Note_on_c, 6, 64, 96
6, 165792, Note_off_c, 6, 64, 0
6, 165792, Note_off_c, 6, 61, 0
6, 165792, Note_off_c, 6, 57, 0
6, 165792, Note_off_c, 6, 52, 0
6, 165792, Note_off_c, 6, 45, 0
6, 165792, Note_on_c, 6, 64, 81
6, 165798, Note_on_c, 6, 61, 81
6, 165801, Note_on_c, 6, 57, 81
6, 165804, Note_on_c, 6, 52, 81
6, 165888, Note_off_c, 6, 52, 0
6, 165888, Note_off_c, 6, 57, 0
6, 165888, Note_off_c, 6, 61, 0
6, 165888, Note_off_c, 6, 64, 0
6, 165888, Note_on_c, 6, 40, 96
6, 165894, Note_on_c, 6, 47, 96
6, 165897, Note_on_c, 6, 52, 96
6, 165900, Note_on_c, 6, 56, 96
6, 165904, Note_on_c, 6, 59, 96
6, 165907, Note_on_c, 6, 64, 96
6, 166080, Note_off_c, 6, 64, 0
6, 166080, Note_off_c, 6, 59, 0
6, 166080, Note_off_c, 6, 56, 0
6, 166080, Note_off_c, 6, 52, 0
6, 166080, Note_off_c, 6, 47, 0
6, 166080, Note_off_c, 6, 40, 0
6, 166080, Note_on_c, 6, 40, 96
6, 166086, Note_on_c, 6, 47, 96
6, 166089, Note_on_c, 6, 52, 96
6, 166092, Note_on_c, 6, 56, 96
6, 166096, Note_on_c, 6, 59, 96
6, 166099, Note_on_c, 6, 64, 96
6, 166176, Note_off_c, 6, 64, 0
6, 166176, Note_off_c, 6, 59, 0
6, 166176, Note_off_c, 6, 56, 0
6, 166176, Note_off_c, 6, 52, 0
6, 166176, Note_off_c, 6, 47, 0
6, 166176, Note_off_c, 6, 40, 0
6, 166176, Note_on_c, 6, 64, 81
6, 166182, Note_on_c, 6, 59, 81
6, 166185, Note_on_c, 6, 56, 81
6, 166188, Note_on_c, 6, 52, 81
6, 166192, Note_on_c, 6, 47, 96
6, 166272, Note_off_c, 6, 47, 0
6, 166272, Note_off_c, 6, 52, 0
6, 166272, Note_off_c, 6, 56, 0
6, 166272, Note_off_c, 6, 59, 0
6, 166272, Note_off_c, 6, 64, 0
6, 166272, Note_on_c, 6, 40, 96
6, 166278, Note_on_c, 6, 47, 96
6, 166281, Note_on_c, 6, 52, 96
6, 166284, Note_on_c, 6, 56, 96
6, 166288, Note_on_c, 6, 59, 96
6, 166291, Note_on_c, 6, 64, 96
6, 166464, Note_off_c, 6, 64, 0
6, 166464, Note_off_c, 6, 59, 0
6, 166464, Note_off_c, 6, 56, 0
6, 166464, Note_off_c, 6, 52, 0
6, 166464, Note_off_c, 6, 47, 0
6, 166464, Note_off_c, 6, 40, 0
6, 166464, Note_on_c, 6, 40, 96
6, 166470, Note_on_c, 6, 47, 96
6, 166473, Note_on_c, 6, 52, 96
6, 166476, Note_on_c, 6, 56, 96
6, 166480, Note_on_c, 6, 59, 96
6, 166483, Note_on_c, 6, 64, 96
6, 166560, Note_off_c, 6, 64, 0
6, 166560, Note_off_c, 6, 59, 0
6, 166560, Note_off_c, 6, 56, 0
6, 166560, Note_off_c, 6, 52, 0
6, 166560, Note_off_c, 6, 47, 0
6, 166560, Note_off_c, 6, 40, 0
6, 166560, Note_on_c, 6, 64, 81
6, 166566, Note_on_c, 6, 59, 81
6, 166569, Note_on_c, 6, 56, 81
6, 166572, Note_on_c, 6, 52, 81
6, 166576, Note_on_c, 6, 47, 96
6, 166656, Note_off_c, 6, 47, 0
6, 166656, Note_off_c, 6, 52, 0
6, 166656, Note_off_c, 6, 56, 0
6, 166656, Note_off_c, 6, 59, 0
6, 166656, Note_off_c, 6, 64, 0
6, 166656, Note_on_c, 6, 45, 96
6, 166662, Note_on_c, 6, 52, 96
6, 166665, Note_on_c, 6, 57, 96
6, 166668, Note_on_c, 6, 62, 96
6, 166672, Note_on_c, 6, 64, 96
6, 166752, Note_off_c, 6, 64, 0
6, 166752, Note_off_c, 6, 62, 0
6, 166752, Note_off_c, 6, 57, 0
6, 166752, Note_off_c, 6, 52, 0
6, 166752, Note_off_c, 6, 45, 0
6, 166752, Note_on_c, 6, 64, 81
6, 166758, Note_on_c, 6, 61, 81
6, 166761, Note_on_c, 6, 57, 81
6, 166764, Note_on_c, 6, 52, 81
6, 166944, Note_on_c, 6, 64, 81
6, 166950, Note_on_c, 6, 61, 81
6, 166953, Note_on_c, 6, 57, 81
6, 166960, Note_on_c, 6, 52, 81
6, 167040, Note_off_c, 6, 52, 0
6, 167040, Note_off_c, 6, 57, 0
6, 167040, Note_off_c, 6, 61, 0
6, 167040, Note_off_c, 6, 64, 0
6, 167040, Note_off_c, 6, 52, 0
6, 167040, Note_off_c, 6, 57, 0
6, 167040, Note_off_c, 6, 61, 0
6, 167040, Note_off_c, 6, 64, 0
6, 167040, Note_on_c, 6, 64, 96
6, 167040, Note_on_c, 6, 61, 96
6, 167040, Note_on_c, 6, 57, 96
6, 167040, Note_on_c, 6, 52, 96
6, 167040, Note_on_c, 6, 45, 96
6, 167232, Note_off_c, 6, 45, 0
6, 167232, Note_off_c, 6, 52, 0
6, 167232, Note_off_c, 6, 57, 0
6, 167232, Note_off_c, 6, 61, 0
6, 167232, Note_off_c, 6, 64, 0
6, 167232, Note_on_c, 6, 45, 96
6, 167238, Note_on_c, 6, 52, 96
6, 167241, Note_on_c, 6, 57, 96
6, 167244, Note_on_c, 6, 61, 96
6, 167248, Note_on_c, 6, 64, 96
6, 167328, Note_off_c, 6, 64, 0
6, 167328, Note_off_c, 6, 61, 0
6, 167328, Note_off_c, 6, 57, 0
6, 167328, Note_off_c, 6, 52, 0
6, 167328, Note_off_c, 6, 45, 0
6, 167328, Note_on_c, 6, 64, 81
6, 167334, Note_on_c, 6, 61, 81
6, 167337, Note_on_c, 6, 57, 81
6, 167340, Note_on_c, 6, 52, 81
6, 167424, Note_off_c, 6, 52, 0
6, 167424, Note_off_c, 6, 57, 0
6, 167424, Note_off_c, 6, 61, 0
6, 167424, Note_off_c, 6, 64, 0
6, 167424, Note_on_c, 6, 47, 96
6, 167430, Note_on_c, 6, 54, 96
6, 167433, Note_on_c, 6, 59, 96
6, 167436, Note_on_c, 6, 63, 96
6, 167440, Note_on_c, 6, 66, 96
6, 167616, Note_off_c, 6, 66, 0
6, 167616, Note_off_c, 6, 63, 0
6, 167616, Note_off_c, 6, 59, 0
6, 167616, Note_off_c, 6, 54, 0
6, 167616, Note_off_c, 6, 47, 0
6, 167616, Note_on_c, 6, 47, 96
6, 167622, Note_on_c, 6, 54, 96
6, 167625, Note_on_c, 6, 59, 96
6, 167628, Note_on_c, 6, 63, 96
6, 167632, Note_on_c, 6, 66, 96
6, 167712, Note_off_c, 6, 66, 0
6, 167712, Note_off_c, 6, 63, 0
6, 167712, Note_off_c, 6, 59, 0
6, 167712, Note_off_c, 6, 54, 0
6, 167712, Note_off_c, 6, 47, 0
6, 167712, Note_on_c, 6, 66, 81
6, 167718, Note_on_c, 6, 63, 81
6, 167721, Note_on_c, 6, 59, 81
6, 167724, Note_on_c, 6, 54, 81
6, 167808, Note_off_c, 6, 54, 0
6, 167808, Note_off_c, 6, 59, 0
6, 167808, Note_off_c, 6, 63, 0
6, 167808, Note_off_c, 6, 66, 0
6, 167808, Note_on_c, 6, 47, 96
6, 167814, Note_on_c, 6, 54, 96
6, 167817, Note_on_c, 6, 59, 96
6, 167820, Note_on_c, 6, 63, 96
6, 167824, Note_on_c, 6, 66, 96
6, 168000, Note_off_c, 6, 66, 0
6, 168000, Note_off_c, 6, 63, 0
6, 168000, Note_off_c, 6, 59, 0
6, 168000, Note_off_c, 6, 54, 0
6, 168000, Note_off_c, 6, 47, 0
6, 168000, Note_on_c, 6, 47, 96
6, 168006, Note_on_c, 6, 54, 96
6, 168009, Note_on_c, 6, 59, 96
6, 168012, Note_on_c, 6, 63, 96
6, 168016, Note_on_c, 6, 66, 96
6, 168096, Note_off_c, 6, 66, 0
6, 168096, Note_off_c, 6, 63, 0
6, 168096, Note_off_c, 6, 59, 0
6, 168096, Note_off_c, 6, 54, 0
6, 168096, Note_off_c, 6, 47, 0
6, 168096, Note_on_c, 6, 66, 81
6, 168102, Note_on_c, 6, 63, 81
6, 168105, Note_on_c, 6, 59, 81
6, 168108, Note_on_c, 6, 54, 81
6, 168192, Note_off_c, 6, 54, 0
6, 168192, Note_off_c, 6, 59, 0
6, 168192, Note_off_c, 6, 63, 0
6, 168192, Note_off_c, 6, 66, 0
6, 168192, Note_on_c, 6, 45, 96
6, 168198, Note_on_c, 6, 52, 96
6, 168201, Note_on_c, 6, 57, 96
6, 168204, Note_on_c, 6, 61, 96
6, 168208, Note_on_c, 6, 64, 96
6, 168384, Note_off_c, 6, 64, 0
6, 168384, Note_off_c, 6, 61, 0
6, 168384, Note_off_c, 6, 57, 0
6, 168384, Note_off_c, 6, 52, 0
6, 168384, Note_off_c, 6, 45, 0
6, 168384, Note_on_c, 6, 57, 96
6, 168384, Note_on_c, 6, 45, 96
6, 168384, Note_on_c, 6, 64, 96
6, 168384, Note_on_c, 6, 61, 96
6, 168390, Note_on_c, 6, 52, 96
6, 168480, Note_off_c, 6, 52, 0
6, 168480, Note_off_c, 6, 61, 0
6, 168480, Note_off_c, 6, 64, 0
6, 168480, Note_off_c, 6, 45, 0
6, 168480, Note_off_c, 6, 57, 0
6, 168480, Note_on_c, 6, 64, 81
6, 168480, Note_on_c, 6, 61, 81
6, 168480, Note_on_c, 6, 52, 81
6, 168480, Note_on_c, 6, 57, 81
6, 168576, Note_off_c, 6, 57, 0
6, 168576, Note_off_c, 6, 52, 0
6, 168576, Note_off_c, 6, 61, 0
6, 168576, Note_off_c, 6, 64, 0
6, 168576, Note_on_c, 6, 45, 96
6, 168576, Note_on_c, 6, 52, 96
6, 168585, Note_on_c, 6, 57, 96
6, 168588, Note_on_c, 6, 61, 96
6, 168592, Note_on_c, 6, 64, 96
6, 168768, Note_off_c, 6, 64, 0
6, 168768, Note_off_c, 6, 61, 0
6, 168768, Note_off_c, 6, 57, 0
6, 168768, Note_off_c, 6, 52, 0
6, 168768, Note_off_c, 6, 45, 0
6, 168768, Note_on_c, 6, 45, 96
6, 168774, Note_on_c, 6, 52, 96
6, 168777, Note_on_c, 6, 57, 96
6, 168780, Note_on_c, 6, 61, 96
6, 168784, Note_on_c, 6, 64, 96
6, 168864, Note_off_c, 6, 64, 0
6, 168864, Note_off_c, 6, 61, 0
6, 168864, Note_off_c, 6, 57, 0
6, 168864, Note_off_c, 6, 52, 0
6, 168864, Note_off_c, 6, 45, 0
6, 168864, Note_on_c, 6, 64, 81
6, 168870, Note_on_c, 6, 61, 81
6, 168873, Note_on_c, 6, 57, 81
6, 168876, Note_on_c, 6, 52, 81
6, 168960, Note_off_c, 6, 52, 0
6, 168960, Note_off_c, 6, 57, 0
6, 168960, Note_off_c, 6, 61, 0
6, 168960, Note_off_c, 6, 64, 0
6, 168960, Note_on_c, 6, 40, 96
6, 168966, Note_on_c, 6, 47, 96
6, 168969, Note_on_c, 6, 52, 96
6, 168972, Note_on_c, 6, 56, 96
6, 168976, Note_on_c, 6, 59, 96
6, 168979, Note_on_c, 6, 64, 96
6, 169152, Note_off_c, 6, 64, 0
6, 169152, Note_off_c, 6, 59, 0
6, 169152, Note_off_c, 6, 56, 0
6, 169152, Note_off_c, 6, 52, 0
6, 169152, Note_off_c, 6, 47, 0
6, 169152, Note_off_c, 6, 40, 0
6, 169152, Note_on_c, 6, 40, 96
6, 169158, Note_on_c, 6, 47, 96
6, 169161, Note_on_c, 6, 52, 96
6, 169164, Note_on_c, 6, 56, 96
6, 169168, Note_on_c, 6, 59, 96
6, 169171, Note_on_c, 6, 64, 96
6, 169248, Note_off_c, 6, 64, 0
6, 169248, Note_off_c, 6, 59, 0
6, 169248, Note_off_c, 6, 56, 0
6, 169248, Note_off_c, 6, 52, 0
6, 169248, Note_off_c, 6, 47, 0
6, 169248, Note_off_c, 6, 40, 0
6, 169248, Note_on_c, 6, 64, 81
6, 169254, Note_on_c, 6, 59, 81
6, 169257, Note_on_c, 6, 56, 81
6, 169260, Note_on_c, 6, 52, 81
6, 169264, Note_on_c, 6, 47, 96
6, 169344, Note_off_c, 6, 47, 0
6, 169344, Note_off_c, 6, 52, 0
6, 169344, Note_off_c, 6, 56, 0
6, 169344, Note_off_c, 6, 59, 0
6, 169344, Note_off_c, 6, 64, 0
6, 169344, Note_on_c, 6, 40, 96
6, 169350, Note_on_c, 6, 47, 96
6, 169353, Note_on_c, 6, 52, 96
6, 169356, Note_on_c, 6, 56, 96
6, 169360, Note_on_c, 6, 59, 96
6, 169363, Note_on_c, 6, 64, 96
6, 169536, Note_off_c, 6, 64, 0
6, 169536, Note_off_c, 6, 59, 0
6, 169536, Note_off_c, 6, 56, 0
6, 169536, Note_off_c, 6, 52, 0
6, 169536, Note_off_c, 6, 47, 0
6, 169536, Note_off_c, 6, 40, 0
6, 169536, Note_on_c, 6, 40, 96
6, 169542, Note_on_c, 6, 47, 96
6, 169545, Note_on_c, 6, 52, 96
6, 169548, Note_on_c, 6, 56, 96
6, 169552, Note_on_c, 6, 59, 96
6, 169555, Note_on_c, 6, 64, 96
6, 169632, Note_off_c, 6, 64, 0
6, 169632, Note_off_c, 6, 59, 0
6, 169632, Note_off_c, 6, 56, 0
6, 169632, Note_off_c, 6, 52, 0
6, 169632, Note_off_c, 6, 47, 0
6, 169632, Note_off_c, 6, 40, 0
6, 169632, Note_on_c, 6, 64, 81
6, 169638, Note_on_c, 6, 59, 81
6, 169641, Note_on_c, 6, 56, 81
6, 169644, Note_on_c, 6, 52, 81
6, 169648, Note_on_c, 6, 47, 96
6, 169728, Note_off_c, 6, 47, 0
6, 169728, Note_off_c, 6, 52, 0
6, 169728, Note_off_c, 6, 56, 0
6, 169728, Note_off_c, 6, 59, 0
6, 169728, Note_off_c, 6, 64, 0
6, 169728, Note_on_c, 6, 45, 96
6, 169734, Note_on_c, 6, 52, 96
6, 169737, Note_on_c, 6, 57, 96
6, 169740, Note_on_c, 6, 62, 96
6, 169744, Note_on_c, 6, 64, 96
6, 169824, Note_off_c, 6, 64, 0
6, 169824, Note_off_c, 6, 62, 0
6, 169824, Note_off_c, 6, 57, 0
6, 169824, Note_off_c, 6, 52, 0
6, 169824, Note_off_c, 6, 45, 0
6, 169824, Note_on_c, 6, 64, 81
6, 169830, Note_on_c, 6, 61, 81
6, 169833, Note_on_c, 6, 57, 81
6, 169836, Note_on_c, 6, 52, 81
6, 170016, Note_on_c, 6, 64, 81
6, 170022, Note_on_c, 6, 61, 81
6, 170025, Note_on_c, 6, 57, 81
6, 170032, Note_on_c, 6, 52, 81
6, 170112, Note_off_c, 6, 52, 0
6, 170112, Note_off_c, 6, 57, 0
6, 170112, Note_off_c, 6, 61, 0
6, 170112, Note_off_c, 6, 64, 0
6, 170112, Note_off_c, 6, 52, 0
6, 170112, Note_off_c, 6, 57, 0
6, 170112, Note_off_c, 6, 61, 0
6, 170112, Note_off_c, 6, 64, 0
6, 170112, Note_on_c, 6, 64, 96
6, 170112, Note_on_c, 6, 61, 96
6, 170112, Note_on_c, 6, 57, 96
6, 170112, Note_on_c, 6, 52, 96
6, 170112, Note_on_c, 6, 45, 96
6, 170304, Note_off_c, 6, 45, 0
6, 170304, Note_off_c, 6, 52, 0
6, 170304, Note_off_c, 6, 57, 0
6, 170304, Note_off_c, 6, 61, 0
6, 170304, Note_off_c, 6, 64, 0
6, 170304, Note_on_c, 6, 45, 96
6, 170310, Note_on_c, 6, 52, 96
6, 170313, Note_on_c, 6, 57, 96
6, 170316, Note_on_c, 6, 61, 96
6, 170320, Note_on_c, 6, 64, 96
6, 170400, Note_off_c, 6, 64, 0
6, 170400, Note_off_c, 6, 61, 0
6, 170400, Note_off_c, 6, 57, 0
6, 170400, Note_off_c, 6, 52, 0
6, 170400, Note_off_c, 6, 45, 0
6, 170400, Note_on_c, 6, 64, 81
6, 170406, Note_on_c, 6, 61, 81
6, 170409, Note_on_c, 6, 57, 81
6, 170412, Note_on_c, 6, 52, 81
6, 170496, Note_off_c, 6, 52, 0
6, 170496, Note_off_c, 6, 57, 0
6, 170496, Note_off_c, 6, 61, 0
6, 170496, Note_off_c, 6, 64, 0
6, 170496, Note_on_c, 6, 64, 96
6, 170496, Note_on_c, 6, 61, 96
6, 170496, Note_on_c, 6, 57, 96
6, 170496, Note_on_c, 6, 52, 96
6, 170496, Note_on_c, 6, 45, 96
6, 170688, Note_off_c, 6, 45, 0
6, 170688, Note_off_c, 6, 52, 0
6, 170688, Note_off_c, 6, 57, 0
6, 170688, Note_off_c, 6, 61, 0
6, 170688, Note_off_c, 6, 64, 0
6, 170688, Note_on_c, 6, 45, 96
6, 170694, Note_on_c, 6, 52, 96
6, 170697, Note_on_c, 6, 57, 96
6, 170700, Note_on_c, 6, 61, 96
6, 170704, Note_on_c, 6, 64, 96
6, 170784, Note_off_c, 6, 64, 0
6, 170784, Note_off_c, 6, 61, 0
6, 170784, Note_off_c, 6, 57, 0
6, 170784, Note_off_c, 6, 52, 0
6, 170784, Note_off_c, 6, 45, 0
6, 170784, Note_on_c, 6, 64, 81
6, 170790, Note_on_c, 6, 61, 81
6, 170793, Note_on_c, 6, 57, 81
6, 170796, Note_on_c, 6, 52, 81
6, 170880, Note_off_c, 6, 52, 0
6, 170880, Note_off_c, 6, 57, 0
6, 170880, Note_off_c, 6, 61, 0
6, 170880, Note_off_c, 6, 64, 0
6, 170880, Note_on_c, 6, 64, 96
6, 170880, Note_on_c, 6, 61, 96
6, 170880, Note_on_c, 6, 57, 96
6, 170880, Note_on_c, 6, 52, 96
6, 170880, Note_on_c, 6, 45, 96
6, 171072, Note_off_c, 6, 45, 0
6, 171072, Note_off_c, 6, 52, 0
6, 171072, Note_off_c, 6, 57, 0
6, 171072, Note_off_c, 6, 61, 0
6, 171072, Note_off_c, 6, 64, 0
6, 171072, Note_on_c, 6, 45, 96
6, 171078, Note_on_c, 6, 52, 96
6, 171081, Note_on_c, 6, 57, 96
6, 171084, Note_on_c, 6, 61, 96
6, 171088, Note_on_c, 6, 64, 96
6, 171168, Note_off_c, 6, 64, 0
6, 171168, Note_off_c, 6, 61, 0
6, 171168, Note_off_c, 6, 57, 0
6, 171168, Note_off_c, 6, 52, 0
6, 171168, Note_off_c, 6, 45, 0
6, 171168, Note_on_c, 6, 64, 81
6, 171174, Note_on_c, 6, 61, 81
6, 171177, Note_on_c, 6, 57, 81
6, 171180, Note_on_c, 6, 52, 81
6, 171264, Note_off_c, 6, 52, 0
6, 171264, Note_off_c, 6, 57, 0
6, 171264, Note_off_c, 6, 61, 0
6, 171264, Note_off_c, 6, 64, 0
6, 171264, Note_on_c, 6, 66, 96
6, 171264, Note_on_c, 6, 61, 96
6, 171264, Note_on_c, 6, 57, 96
6, 171264, Note_on_c, 6, 52, 96
6, 171264, Note_on_c, 6, 49, 96
6, 171264, Note_on_c, 6, 42, 96
6, 172800, Note_off_c, 6, 42, 0
6, 172800, Note_off_c, 6, 49, 0
6, 172800, Note_off_c, 6, 52, 0
6, 172800, Note_off_c, 6, 57, 0
6, 172800, Note_off_c, 6, 61, 0
6, 172800, Note_off_c, 6, 66, 0
6, 172800, Note_on_c, 6, 40, 116
6, 172812, Note_on_c, 6, 47, 116
6, 172816, Note_on_c, 6, 52, 116
6, 172819, Note_on_c, 6, 56, 116
6, 172822, Note_on_c, 6, 59, 116
6, 172825, Note_on_c, 6, 64, 116
6, 173568, Note_off_c, 6, 64, 0
6, 173568, Note_off_c, 6, 59, 0
6, 173568, Note_off_c, 6, 56, 0
6, 173568, Note_off_c, 6, 52, 0
6, 173568, Note_off_c, 6, 47, 0
6, 173568, Note_off_c, 6, 40, 0
6, 173568, Note_on_c, 6, 45, 116
6, 173574, Note_on_c, 6, 52, 116
6, 173577, Note_on_c, 6, 57, 116
6, 173580, Note_on_c, 6, 61, 116
6, 173584, Note_on_c, 6, 64, 116
6, 174336, Note_off_c, 6, 64, 0
6, 174336, Note_off_c, 6, 61, 0
6, 174336, Note_off_c, 6, 57, 0
6, 174336, Note_off_c, 6, 52, 0
6, 174336, Note_off_c, 6, 45, 0
6, 174336, Note_on_c, 6, 57, 116
6, 174342, Note_on_c, 6, 61, 116
6, 174345, Note_on_c, 6, 64, 116
6, 174348, Note_on_c, 6, 64, 116
6, 174528, Note_off_c, 6, 64, 0
6, 174528, Note_off_c, 6, 64, 0
6, 174528, Note_off_c, 6, 61, 0
6, 174528, Note_off_c, 6, 57, 0
6, 174528, Note_on_c, 6, 54, 116
6, 174534, Note_on_c, 6, 57, 116
6, 174537, Note_on_c, 6, 62, 116
6, 174540, Note_on_c, 6, 64, 116
6, 174720, Note_off_c, 6, 64, 0
6, 174720, Note_off_c, 6, 62, 0
6, 174720, Note_off_c, 6, 57, 0
6, 174720, Note_off_c, 6, 54, 0
6, 174720, Note_on_c, 6, 45, 116
6, 174726, Note_on_c, 6, 52, 116
6, 174729, Note_on_c, 6, 57, 116
6, 174732, Note_on_c, 6, 61, 116
6, 174736, Note_on_c, 6, 64, 116
6, 174912, Note_off_c, 6, 64, 0
6, 174912, Note_off_c, 6, 61, 0
6, 174912, Note_off_c, 6, 57, 0
6, 174912, Note_off_c, 6, 52, 0
6, 174912, Note_off_c, 6, 45, 0
6, 174912, Note_on_c, 6, 40, 116
6, 174921, Note_on_c, 6, 47, 116
6, 174924, Note_on_c, 6, 52, 116
6, 174928, Note_on_c, 6, 56, 116
6, 174931, Note_on_c, 6, 59, 116
6, 174934, Note_on_c, 6, 64, 116
6, 175776, Note_off_c, 6, 64, 0
6, 175776, Note_off_c, 6, 59, 0
6, 175776, Note_off_c, 6, 56, 0
6, 175776, Note_off_c, 6, 52, 0
6, 175776, Note_off_c, 6, 47, 0
6, 175776, Note_off_c, 6, 40, 0
6, 175872, Note_on_c, 6, 40, 116
6, 175878, Note_on_c, 6, 47, 116
6, 175881, Note_on_c, 6, 56, 116
6, 175884, Note_on_c, 6, 52, 116
6, 175888, Note_on_c, 6, 59, 116
6, 175891, Note_on_c, 6, 64, 116
6, 176640, Note_off_c, 6, 64, 0
6, 176640, Note_off_c, 6, 59, 0
6, 176640, Note_off_c, 6, 52, 0
6, 176640, Note_off_c, 6, 56, 0
6, 176640, Note_off_c, 6, 47, 0
6, 176640, Note_off_c, 6, 40, 0
6, 176640, Note_on_c, 6, 45, 116
6, 176646, Note_on_c, 6, 52, 116
6, 176649, Note_on_c, 6, 57, 116
6, 176652, Note_on_c, 6, 61, 116
6, 176656, Note_on_c, 6, 64, 116
6, 177408, Note_off_c, 6, 64, 0
6, 177408, Note_off_c, 6, 61, 0
6, 177408, Note_off_c, 6, 57, 0
6, 177408, Note_off_c, 6, 52, 0
6, 177408, Note_off_c, 6, 45, 0
6, 177408, Note_on_c, 6, 57, 116
6, 177414, Note_on_c, 6, 61, 116
6, 177417, Note_on_c, 6, 64, 116
6, 177420, Note_on_c, 6, 64, 116
6, 177600, Note_off_c, 6, 64, 0
6, 177600, Note_off_c, 6, 64, 0
6, 177600, Note_off_c, 6, 61, 0
6, 177600, Note_off_c, 6, 57, 0
6, 177600, Note_on_c, 6, 54, 116
6, 177606, Note_on_c, 6, 57, 116
6, 177609, Note_on_c, 6, 62, 116
6, 177612, Note_on_c, 6, 64, 116
6, 177792, Note_off_c, 6, 64, 0
6, 177792, Note_off_c, 6, 62, 0
6, 177792, Note_off_c, 6, 57, 0
6, 177792, Note_off_c, 6, 54, 0
6, 177792, Note_on_c, 6, 45, 116
6, 177798, Note_on_c, 6, 52, 116
6, 177801, Note_on_c, 6, 57, 116
6, 177804, Note_on_c, 6, 61, 116
6, 177808, Note_on_c, 6, 64, 116
6, 177984, Note_off_c, 6, 64, 0
6, 177984, Note_off_c, 6, 61, 0
6, 177984, Note_off_c, 6, 57, 0
6, 177984, Note_off_c, 6, 52, 0
6, 177984, Note_off_c, 6, 45, 0
6, 177984, Note_on_c, 6, 40, 116
6, 177993, Note_on_c, 6, 47, 116
6, 177996, Note_on_c, 6, 52, 116
6, 178000, Note_on_c, 6, 56, 116
6, 178003, Note_on_c, 6, 59, 116
6, 178006, Note_on_c, 6, 64, 116
6, 178848, Note_off_c, 6, 64, 0
6, 178848, Note_off_c, 6, 59, 0
6, 178848, Note_off_c, 6, 56, 0
6, 178848, Note_off_c, 6, 52, 0
6, 178848, Note_off_c, 6, 47, 0
6, 178848, Note_off_c, 6, 40, 0
6, 178944, Note_on_c, 6, 40, 96
6, 178947, Note_on_c, 6, 47, 96
6, 178950, Note_on_c, 6, 52, 96
6, 178953, Note_on_c, 6, 56, 96
6, 178956, Note_on_c, 6, 59, 96
6, 178960, Note_on_c, 6, 64, 96
6, 179232, Note_off_c, 6, 64, 0
6, 179232, Note_off_c, 6, 59, 0
6, 179232, Note_off_c, 6, 56, 0
6, 179232, Note_off_c, 6, 52, 0
6, 179232, Note_off_c, 6, 47, 0
6, 179232, Note_off_c, 6, 40, 0
6, 179232, Note_on_c, 6, 64, 96
6, 179235, Note_on_c, 6, 59, 96
6, 179238, Note_on_c, 6, 56, 96
6, 179241, Note_on_c, 6, 52, 96
6, 179244, Note_on_c, 6, 47, 96
6, 179328, Note_off_c, 6, 47, 0
6, 179328, Note_off_c, 6, 52, 0
6, 179328, Note_off_c, 6, 56, 0
6, 179328, Note_off_c, 6, 59, 0
6, 179328, Note_off_c, 6, 64, 0
6, 179328, Note_on_c, 6, 40, 96
6, 179331, Note_on_c, 6, 47, 96
6, 179334, Note_on_c, 6, 52, 96
6, 179337, Note_on_c, 6, 56, 96
6, 179340, Note_on_c, 6, 59, 96
6, 179344, Note_on_c, 6, 64, 96
6, 179424, Note_on_c, 6, 40, 71
6, 179427, Note_on_c, 6, 47, 71
6, 179430, Note_on_c, 6, 52, 71
6, 179433, Note_on_c, 6, 56, 71
6, 179436, Note_on_c, 6, 59, 71
6, 179440, Note_on_c, 6, 64, 71
6, 179520, Note_off_c, 6, 64, 0
6, 179520, Note_off_c, 6, 59, 0
6, 179520, Note_off_c, 6, 56, 0
6, 179520, Note_off_c, 6, 52, 0
6, 179520, Note_off_c, 6, 47, 0
6, 179520, Note_off_c, 6, 40, 0
6, 179520, Note_off_c, 6, 64, 0
6, 179520, Note_off_c, 6, 59, 0
6, 179520, Note_off_c, 6, 56, 0
6, 179520, Note_off_c, 6, 52, 0
6, 179520, Note_off_c, 6, 47, 0
6, 179520, Note_off_c, 6, 40, 0
6, 179520, Note_on_c, 6, 64, 71
6, 179523, Note_on_c, 6, 59, 71
6, 179526, Note_on_c, 6, 56, 71
6, 179529, Note_on_c, 6, 52, 71
6, 179532, Note_on_c, 6, 47, 71
6, 179616, Note_off_c, 6, 47, 0
6, 179616, Note_off_c, 6, 52, 0
6, 179616, Note_off_c, 6, 56, 0
6, 179616, Note_off_c, 6, 59, 0
6, 179616, Note_off_c, 6, 64, 0
6, 179616, Note_on_c, 6, 50, 96
6, 179619, Note_on_c, 6, 57, 96
6, 179622, Note_on_c, 6, 62, 96
6, 179625, Note_on_c, 6, 66, 96
6, 179808, Note_on_c, 6, 66, 96
6, 179811, Note_on_c, 6, 62, 96
6, 179814, Note_on_c, 6, 57, 96
6, 179817, Note_on_c, 6, 50, 96
6, 179904, Note_off_c, 6, 50, 0
6, 179904, Note_off_c, 6, 57, 0
6, 179904, Note_off_c, 6, 62, 0
6, 179904, Note_off_c, 6, 66, 0
6, 179904, Note_off_c, 6, 66, 0
6, 179904, Note_off_c, 6, 62, 0
6, 179904, Note_off_c, 6, 57, 0
6, 179904, Note_off_c, 6, 50, 0
6, 179904, Note_on_c, 6, 50, 96
6, 179907, Note_on_c, 6, 57, 96
6, 179910, Note_on_c, 6, 62, 96
6, 179913, Note_on_c, 6, 66, 96
6, 180000, Note_on_c, 6, 66, 71
6, 180003, Note_on_c, 6, 62, 71
6, 180006, Note_on_c, 6, 50, 71
6, 180006, Note_on_c, 6, 57, 71
6, 180096, Note_off_c, 6, 57, 0
6, 180096, Note_off_c, 6, 50, 0
6, 180096, Note_off_c, 6, 62, 0
6, 180096, Note_off_c, 6, 66, 0
6, 180096, Note_off_c, 6, 66, 0
6, 180096, Note_off_c, 6, 62, 0
6, 180096, Note_off_c, 6, 57, 0
6, 180096, Note_off_c, 6, 50, 0
6, 180096, Note_on_c, 6, 50, 71
6, 180099, Note_on_c, 6, 57, 71
6, 180102, Note_on_c, 6, 62, 71
6, 180105, Note_on_c, 6, 66, 71
6, 180480, Note_off_c, 6, 66, 0
6, 180480, Note_off_c, 6, 62, 0
6, 180480, Note_off_c, 6, 57, 0
6, 180480, Note_off_c, 6, 50, 0
6, 180480, Note_on_c, 6, 45, 96
6, 180486, Note_on_c, 6, 52, 96
6, 180489, Note_on_c, 6, 57, 96
6, 180492, Note_on_c, 6, 61, 96
6, 180496, Note_on_c, 6, 64, 96
6, 180672, Note_off_c, 6, 64, 0
6, 180672, Note_off_c, 6, 61, 0
6, 180672, Note_off_c, 6, 57, 0
6, 180672, Note_off_c, 6, 52, 0
6, 180672, Note_off_c, 6, 45, 0
6, 180672, Note_on_c, 6, 57, 96
6, 180672, Note_on_c, 6, 45, 96
6, 180672, Note_on_c, 6, 64, 96
6, 180672, Note_on_c, 6, 61, 96
6, 180678, Note_on_c, 6, 52, 96
6, 180768, Note_off_c, 6, 52, 0
6, 180768, Note_off_c, 6, 61, 0
6, 180768, Note_off_c, 6, 64, 0
6, 180768, Note_off_c, 6, 45, 0
6, 180768, Note_off_c, 6, 57, 0
6, 180768, Note_on_c, 6, 64, 81
6, 180768, Note_on_c, 6, 61, 81
6, 180768, Note_on_c, 6, 52, 81
6, 180768, Note_on_c, 6, 57, 81
6, 180864, Note_off_c, 6, 57, 0
6, 180864, Note_off_c, 6, 52, 0
6, 180864, Note_off_c, 6, 61, 0
6, 180864, Note_off_c, 6, 64, 0
6, 180864, Note_on_c, 6, 45, 96
6, 180870, Note_on_c, 6, 52, 96
6, 180873, Note_on_c, 6, 57, 96
6, 180876, Note_on_c, 6, 61, 96
6, 180880, Note_on_c, 6, 64, 96
6, 181056, Note_off_c, 6, 64, 0
6, 181056, Note_off_c, 6, 61, 0
6, 181056, Note_off_c, 6, 57, 0
6, 181056, Note_off_c, 6, 52, 0
6, 181056, Note_off_c, 6, 45, 0
6, 181056, Note_on_c, 6, 57, 96
6, 181056, Note_on_c, 6, 45, 96
6, 181056, Note_on_c, 6, 64, 96
6, 181056, Note_on_c, 6, 61, 96
6, 181062, Note_on_c, 6, 52, 96
6, 181152, Note_off_c, 6, 52, 0
6, 181152, Note_off_c, 6, 61, 0
6, 181152, Note_off_c, 6, 64, 0
6, 181152, Note_off_c, 6, 45, 0
6, 181152, Note_off_c, 6, 57, 0
6, 181152, Note_on_c, 6, 64, 81
6, 181152, Note_on_c, 6, 61, 81
6, 181152, Note_on_c, 6, 52, 81
6, 181152, Note_on_c, 6, 57, 81
6, 181248, Note_off_c, 6, 57, 0
6, 181248, Note_off_c, 6, 52, 0
6, 181248, Note_off_c, 6, 61, 0
6, 181248, Note_off_c, 6, 64, 0
6, 181248, Note_on_c, 6, 59, 96
6, 181248, Note_on_c, 6, 45, 96
6, 181254, Note_on_c, 6, 52, 96
6, 181257, Note_on_c, 6, 57, 96
6, 181264, Note_on_c, 6, 64, 96
6, 181440, Note_off_c, 6, 64, 0
6, 181440, Note_off_c, 6, 57, 0
6, 181440, Note_off_c, 6, 52, 0
6, 181440, Note_off_c, 6, 45, 0
6, 181440, Note_off_c, 6, 59, 0
6, 181440, Note_on_c, 6, 57, 96
6, 181440, Note_on_c, 6, 45, 96
6, 181440, Note_on_c, 6, 64, 96
6, 181440, Note_on_c, 6, 59, 96
6, 181446, Note_on_c, 6, 52, 96
6, 181536, Note_off_c, 6, 52, 0
6, 181536, Note_off_c, 6, 59, 0
6, 181536, Note_off_c, 6, 64, 0
6, 181536, Note_off_c, 6, 45, 0
6, 181536, Note_off_c, 6, 57, 0
6, 181536, Note_on_c, 6, 64, 81
6, 181536, Note_on_c, 6, 59, 81
6, 181536, Note_on_c, 6, 52, 81
6, 181536, Note_on_c, 6, 57, 81
6, 181632, Note_off_c, 6, 57, 0
6, 181632, Note_off_c, 6, 52, 0
6, 181632, Note_off_c, 6, 59, 0
6, 181632, Note_off_c, 6, 64, 0
6, 181632, Note_on_c, 6, 59, 96
6, 181632, Note_on_c, 6, 45, 96
6, 181638, Note_on_c, 6, 52, 96
6, 181641, Note_on_c, 6, 57, 96
6, 181648, Note_on_c, 6, 64, 96
6, 181824, Note_off_c, 6, 64, 0
6, 181824, Note_off_c, 6, 57, 0
6, 181824, Note_off_c, 6, 52, 0
6, 181824, Note_off_c, 6, 45, 0
6, 181824, Note_off_c, 6, 59, 0
6, 181824, Note_on_c, 6, 57, 96
6, 181824, Note_on_c, 6, 45, 96
6, 181824, Note_on_c, 6, 64, 96
6, 181824, Note_on_c, 6, 59, 96
6, 181830, Note_on_c, 6, 52, 96
6, 181920, Note_off_c, 6, 52, 0
6, 181920, Note_off_c, 6, 59, 0
6, 181920, Note_off_c, 6, 64, 0
6, 181920, Note_off_c, 6, 45, 0
6, 181920, Note_off_c, 6, 57, 0
6, 181920, Note_on_c, 6, 64, 81
6, 181920, Note_on_c, 6, 59, 81
6, 181920, Note_on_c, 6, 52, 81
6, 181920, Note_on_c, 6, 57, 81
6, 182016, Note_off_c, 6, 57, 0
6, 182016, Note_off_c, 6, 52, 0
6, 182016, Note_off_c, 6, 59, 0
6, 182016, Note_off_c, 6, 64, 0
6, 182016, Note_on_c, 6, 40, 96
6, 182025, Note_on_c, 6, 47, 96
6, 182028, Note_on_c, 6, 52, 96
6, 182032, Note_on_c, 6, 56, 96
6, 182035, Note_on_c, 6, 59, 96
6, 182038, Note_on_c, 6, 64, 96
6, 183552, Note_off_c, 6, 64, 0
6, 183552, Note_off_c, 6, 59, 0
6, 183552, Note_off_c, 6, 56, 0
6, 183552, Note_off_c, 6, 52, 0
6, 183552, Note_off_c, 6, 47, 0
6, 183552, Note_off_c, 6, 40, 0
6, 185088, Control_c, 6, 121, 0
6, 185184, Control_c, 6, 11, 127
6, 186624, End_track
7, 0, Start_track
7, 0, Title_t, "Guitar 4"
7, 1536, Control_c, 7, 121, 0
7, 1538, Control_c, 7, 0, 0
7, 1540, Control_c, 7, 32, 0
7, 1542, Program_c, 7, 26
7, 1544, Control_c, 7, 11, 127
7, 1554, Control_c, 7, 7, 100
7, 1556, Control_c, 7, 91, 28
7, 1558, Control_c, 7, 93, 41
7, 1560, Control_c, 7, 10, 57
7, 3072, Note_on_c, 7, 52, 88
7, 3072, Note_on_c, 7, 56, 88
7, 3072, Note_on_c, 7, 59, 88
7, 3072, Note_on_c, 7, 64, 88
7, 3360, Note_off_c, 7, 64, 0
7, 3360, Note_off_c, 7, 59, 0
7, 3360, Note_off_c, 7, 56, 0
7, 3360, Note_off_c, 7, 52, 0
7, 3360, Note_on_c, 7, 52, 88
7, 3456, Note_off_c, 7, 52, 0
7, 3456, Note_on_c, 7, 56, 88
7, 3552, Note_off_c, 7, 56, 0
7, 3552, Note_on_c, 7, 59, 88
7, 3648, Note_off_c, 7, 59, 0
7, 3648, Note_on_c, 7, 64, 88
7, 3840, Note_off_c, 7, 64, 0
7, 3840, Note_on_c, 7, 52, 88
7, 3840, Note_on_c, 7, 57, 88
7, 3840, Note_on_c, 7, 61, 88
7, 3840, Note_on_c, 7, 64, 88
7, 4031, Note_off_c, 7, 52, 0
7, 4032, Note_on_c, 7, 52, 88
7, 4128, Note_off_c, 7, 52, 0
7, 4128, Note_off_c, 7, 64, 0
7, 4128, Note_off_c, 7, 61, 0
7, 4128, Note_off_c, 7, 57, 0
7, 4128, Note_on_c, 7, 57, 88
7, 4224, Note_off_c, 7, 57, 0
7, 4224, Note_on_c, 7, 61, 88
7, 4320, Note_off_c, 7, 61, 0
7, 4320, Note_on_c, 7, 64, 88
7, 4608, Note_off_c, 7, 64, 0
7, 4608, Note_on_c, 7, 59, 88
7, 4608, Note_on_c, 7, 64, 88
7, 4608, Note_on_c, 7, 64, 88
7, 4800, Note_off_c, 7, 64, 0
7, 4800, Note_off_c, 7, 64, 0
7, 4800, Note_off_c, 7, 59, 0
7, 4800, Note_on_c, 7, 59, 88
7, 4800, Note_on_c, 7, 62, 88
7, 4800, Note_on_c, 7, 64, 88
7, 4992, Note_off_c, 7, 64, 0
7, 4992, Note_off_c, 7, 62, 0
7, 4992, Note_off_c, 7, 59, 0
7, 4992, Note_on_c, 7, 59, 88
7, 4992, Note_on_c, 7, 61, 88
7, 4992, Note_on_c, 7, 64, 88
7, 5184, Note_off_c, 7, 64, 0
7, 5184, Note_off_c, 7, 61, 0
7, 5184, Note_off_c, 7, 59, 0
7, 5184, Note_on_c, 7, 59, 88
7, 5184, Note_on_c, 7, 64, 89
7, 5375, Note_off_c, 7, 64, 0
7, 5376, Note_on_c, 7, 64, 88
7, 5469, Note_off_c, 7, 64, 0
7, 5472, Note_on_c, 7, 64, 88
7, 5568, Note_off_c, 7, 64, 0
7, 5568, Note_off_c, 7, 59, 0
7, 5568, Note_on_c, 7, 64, 88
7, 5664, Note_off_c, 7, 64, 0
7, 5760, Note_on_c, 7, 64, 88
7, 6144, Note_off_c, 7, 64, 0
7, 6144, Note_on_c, 7, 52, 88
7, 6144, Note_on_c, 7, 56, 88
7, 6144, Note_on_c, 7, 59, 88
7, 6144, Note_on_c, 7, 64, 88
7, 6432, Note_off_c, 7, 64, 0
7, 6432, Note_off_c, 7, 59, 0
7, 6432, Note_off_c, 7, 56, 0
7, 6432, Note_off_c, 7, 52, 0
7, 6432, Note_on_c, 7, 52, 88
7, 6528, Note_off_c, 7, 52, 0
7, 6528, Note_on_c, 7, 56, 88
7, 6624, Note_off_c, 7, 56, 0
7, 6624, Note_on_c, 7, 59, 88
7, 6720, Note_off_c, 7, 59, 0
7, 6720, Note_on_c, 7, 64, 88
7, 6902, Note_off_c, 7, 64, 0
7, 6912, Note_on_c, 7, 52, 88
7, 6912, Note_on_c, 7, 57, 88
7, 6912, Note_on_c, 7, 61, 88
7, 6912, Note_on_c, 7, 64, 88
7, 7101, Note_off_c, 7, 52, 0
7, 7104, Note_on_c, 7, 52, 88
7, 7200, Note_off_c, 7, 52, 0
7, 7200, Note_off_c, 7, 64, 0
7, 7200, Note_off_c, 7, 61, 0
7, 7200, Note_off_c, 7, 57, 0
7, 7200, Note_on_c, 7, 57, 88
7, 7296, Note_off_c, 7, 57, 0
7, 7296, Note_on_c, 7, 61, 88
7, 7392, Note_off_c, 7, 61, 0
7, 7392, Note_on_c, 7, 64, 88
7, 7680, Note_off_c, 7, 64, 0
7, 7680, Note_on_c, 7, 59, 88
7, 7680, Note_on_c, 7, 64, 88
7, 7872, Note_off_c, 7, 64, 0
7, 7872, Note_off_c, 7, 59, 0
7, 7872, Note_on_c, 7, 59, 88
7, 7872, Note_on_c, 7, 62, 88
7, 7872, Note_on_c, 7, 64, 88
7, 8064, Note_off_c, 7, 64, 0
7, 8064, Note_off_c, 7, 62, 0
7, 8064, Note_off_c, 7, 59, 0
7, 8064, Note_on_c, 7, 59, 88
7, 8064, Note_on_c, 7, 61, 88
7, 8064, Note_on_c, 7, 64, 88
7, 8256, Note_off_c, 7, 64, 0
7, 8256, Note_off_c, 7, 61, 0
7, 8256, Note_off_c, 7, 59, 0
7, 8256, Note_on_c, 7, 59, 88
7, 8256, Note_on_c, 7, 64, 88
7, 8444, Note_off_c, 7, 64, 0
7, 8448, Note_on_c, 7, 64, 102
7, 8541, Note_off_c, 7, 64, 0
7, 8544, Note_on_c, 7, 64, 102
7, 8640, Note_off_c, 7, 64, 0
7, 8640, Note_off_c, 7, 59, 0
7, 8640, Note_on_c, 7, 64, 103
7, 8736, Note_off_c, 7, 64, 0
7, 8832, Note_on_c, 7, 64, 105
7, 9216, Note_off_c, 7, 64, 0
7, 9216, Note_on_c, 7, 64, 88
7, 9504, Note_off_c, 7, 64, 0
7, 9504, Note_on_c, 7, 64, 88
7, 9600, Note_off_c, 7, 64, 0
7, 9600, Note_on_c, 7, 62, 88
7, 9600, Note_on_c, 7, 64, 88
7, 9792, Note_off_c, 7, 64, 0
7, 9792, Note_off_c, 7, 62, 0
7, 9792, Note_on_c, 7, 61, 88
7, 9792, Note_on_c, 7, 64, 88
7, 9984, Note_off_c, 7, 64, 0
7, 9984, Note_off_c, 7, 61, 0
7, 9984, Note_on_c, 7, 62, 88
7, 9984, Note_on_c, 7, 64, 88
7, 10075, Note_off_c, 7, 64, 0
7, 10080, Note_on_c, 7, 64, 88
7, 10176, Note_off_c, 7, 64, 0
7, 10176, Note_off_c, 7, 62, 0
7, 10176, Note_on_c, 7, 64, 88
7, 10272, Note_off_c, 7, 64, 0
7, 10272, Note_on_c, 7, 62, 88
7, 10368, Note_off_c, 7, 62, 0
7, 10368, Note_on_c, 7, 64, 88
7, 10464, Note_off_c, 7, 64, 0
7, 10560, Note_on_c, 7, 64, 88
7, 10752, Note_off_c, 7, 64, 0
7, 10752, Note_on_c, 7, 61, 88
7, 10752, Note_on_c, 7, 64, 88
7, 10944, Note_off_c, 7, 64, 0
7, 10944, Note_off_c, 7, 61, 0
7, 10944, Note_on_c, 7, 64, 88
7, 11040, Note_off_c, 7, 64, 0
7, 11040, Note_on_c, 7, 64, 88
7, 11136, Note_off_c, 7, 64, 0
7, 11136, Note_on_c, 7, 61, 88
7, 11232, Note_off_c, 7, 61, 0
7, 11232, Note_on_c, 7, 64, 88
7, 11328, Note_off_c, 7, 64, 0
7, 11328, Note_on_c, 7, 64, 88
7, 11520, Note_off_c, 7, 64, 0
7, 11520, Note_on_c, 7, 59, 91
7, 11520, Note_on_c, 7, 64, 91
7, 13056, Note_off_c, 7, 64, 0
7, 13056, Note_off_c, 7, 59, 0
7, 172800, Note_on_c, 7, 52, 88
7, 172803, Note_on_c, 7, 56, 88
7, 172806, Note_on_c, 7, 59, 88
7, 172809, Note_on_c, 7, 64, 88
7, 173088, Note_off_c, 7, 52, 0
7, 173088, Note_on_c, 7, 52, 88
7, 173091, Note_off_c, 7, 56, 0
7, 173094, Note_off_c, 7, 59, 0
7, 173097, Note_off_c, 7, 64, 0
7, 173184, Note_off_c, 7, 52, 0
7, 173184, Note_on_c, 7, 56, 88
7, 173280, Note_off_c, 7, 56, 0
7, 173280, Note_on_c, 7, 59, 88
7, 173376, Note_off_c, 7, 59, 0
7, 173376, Note_on_c, 7, 64, 88
7, 173568, Note_on_c, 7, 52, 88
7, 173571, Note_on_c, 7, 57, 88
7, 173574, Note_on_c, 7, 61, 88
7, 173577, Note_on_c, 7, 64, 88
7, 173664, Note_off_c, 7, 64, 0
7, 173760, Note_on_c, 7, 52, 88
7, 173856, Note_off_c, 7, 52, 0
7, 173856, Note_off_c, 7, 52, 0
7, 173856, Note_on_c, 7, 57, 88
7, 173859, Note_off_c, 7, 57, 0
7, 173862, Note_off_c, 7, 61, 0
7, 173865, Note_off_c, 7, 64, 0
7, 173952, Note_off_c, 7, 57, 0
7, 173952, Note_on_c, 7, 61, 88
7, 174048, Note_off_c, 7, 61, 0
7, 174048, Note_on_c, 7, 64, 88
7, 174336, Note_off_c, 7, 64, 0
7, 174336, Note_on_c, 7, 59, 88
7, 174336, Note_on_c, 7, 64, 88
7, 174336, Note_on_c, 7, 64, 88
7, 174528, Note_off_c, 7, 64, 0
7, 174528, Note_off_c, 7, 64, 0
7, 174528, Note_off_c, 7, 59, 0
7, 174528, Note_on_c, 7, 59, 88
7, 174528, Note_on_c, 7, 62, 88
7, 174528, Note_on_c, 7, 64, 88
7, 174720, Note_off_c, 7, 64, 0
7, 174720, Note_off_c, 7, 62, 0
7, 174720, Note_off_c, 7, 59, 0
7, 174720, Note_on_c, 7, 59, 88
7, 174720, Note_on_c, 7, 61, 88
7, 174720, Note_on_c, 7, 64, 88
7, 174912, Note_off_c, 7, 64, 0
7, 174912, Note_off_c, 7, 61, 0
7, 174912, Note_off_c, 7, 59, 0
7, 174912, Note_on_c, 7, 59, 88
7, 174912, Note_on_c, 7, 64, 88
7, 174912, Note_on_c, 7, 64, 89
7, 175104, Note_on_c, 7, 64, 88
7, 175200, Note_off_c, 7, 64, 0
7, 175200, Note_on_c, 7, 64, 88
7, 175292, Note_off_c, 7, 64, 0
7, 175292, Note_off_c, 7, 64, 0
7, 175292, Note_off_c, 7, 59, 0
7, 175296, Note_off_c, 7, 64, 0
7, 175296, Note_on_c, 7, 64, 88
7, 175392, Note_off_c, 7, 64, 0
7, 175488, Note_on_c, 7, 64, 88
7, 175833, Note_off_c, 7, 64, 0
7, 175872, Note_on_c, 7, 52, 88
7, 175875, Note_on_c, 7, 56, 88
7, 175878, Note_on_c, 7, 59, 88
7, 175881, Note_on_c, 7, 64, 88
7, 176160, Note_off_c, 7, 52, 0
7, 176160, Note_on_c, 7, 52, 88
7, 176163, Note_off_c, 7, 56, 0
7, 176166, Note_off_c, 7, 59, 0
7, 176169, Note_off_c, 7, 64, 0
7, 176256, Note_off_c, 7, 52, 0
7, 176256, Note_on_c, 7, 56, 88
7, 176352, Note_off_c, 7, 56, 0
7, 176352, Note_on_c, 7, 59, 88
7, 176448, Note_off_c, 7, 59, 0
7, 176448, Note_on_c, 7, 64, 88
7, 176640, Note_on_c, 7, 52, 88
7, 176643, Note_on_c, 7, 57, 88
7, 176646, Note_on_c, 7, 61, 88
7, 176649, Note_on_c, 7, 64, 88
7, 176736, Note_off_c, 7, 64, 0
7, 176832, Note_on_c, 7, 52, 88
7, 176928, Note_off_c, 7, 52, 0
7, 176928, Note_off_c, 7, 52, 0
7, 176928, Note_on_c, 7, 57, 88
7, 176931, Note_off_c, 7, 57, 0
7, 176934, Note_off_c, 7, 61, 0
7, 176937, Note_off_c, 7, 64, 0
7, 177024, Note_off_c, 7, 57, 0
7, 177024, Note_on_c, 7, 61, 88
7, 177120, Note_off_c, 7, 61, 0
7, 177120, Note_on_c, 7, 64, 88
7, 177408, Note_off_c, 7, 64, 0
7, 177408, Note_on_c, 7, 59, 88
7, 177408, Note_on_c, 7, 64, 88
7, 177408, Note_on_c, 7, 64, 88
7, 177600, Note_off_c, 7, 64, 0
7, 177600, Note_off_c, 7, 64, 0
7, 177600, Note_off_c, 7, 59, 0
7, 177600, Note_on_c, 7, 59, 88
7, 177600, Note_on_c, 7, 62, 88
7, 177600, Note_on_c, 7, 64, 88
7, 177792, Note_off_c, 7, 64, 0
7, 177792, Note_off_c, 7, 62, 0
7, 177792, Note_off_c, 7, 59, 0
7, 177792, Note_on_c, 7, 59, 88
7, 177792, Note_on_c, 7, 61, 88
7, 177792, Note_on_c, 7, 64, 88
7, 177984, Note_off_c, 7, 64, 0
7, 177984, Note_off_c, 7, 61, 0
7, 177984, Note_off_c, 7, 59, 0
7, 177984, Note_on_c, 7, 59, 88
7, 177984, Note_on_c, 7, 64, 88
7, 177984, Note_on_c, 7, 64, 89
7, 178176, Note_on_c, 7, 64, 88
7, 178272, Note_off_c, 7, 64, 0
7, 178272, Note_on_c, 7, 64, 88
7, 178364, Note_off_c, 7, 64, 0
7, 178364, Note_off_c, 7, 64, 0
7, 178364, Note_off_c, 7, 59, 0
7, 178368, Note_off_c, 7, 64, 0
7, 178368, Note_on_c, 7, 64, 88
7, 178464, Note_off_c, 7, 64, 0
7, 178560, Note_on_c, 7, 64, 88
7, 178940, Note_off_c, 7, 64, 0
7, 178944, Note_on_c, 7, 64, 88
7, 178944, Note_on_c, 7, 64, 88
7, 179232, Note_off_c, 7, 64, 0
7, 179232, Note_off_c, 7, 64, 0
7, 179232, Note_on_c, 7, 64, 88
7, 179328, Note_off_c, 7, 64, 0
7, 179328, Note_on_c, 7, 62, 88
7, 179328, Note_on_c, 7, 64, 88
7, 179520, Note_off_c, 7, 64, 0
7, 179520, Note_off_c, 7, 62, 0
7, 179520, Note_on_c, 7, 61, 88
7, 179520, Note_on_c, 7, 64, 88
7, 179712, Note_off_c, 7, 64, 0
7, 179712, Note_off_c, 7, 61, 0
7, 179712, Note_on_c, 7, 62, 88
7, 179712, Note_on_c, 7, 64, 88
7, 179808, Note_on_c, 7, 64, 88
7, 179904, Note_off_c, 7, 64, 0
7, 179904, Note_off_c, 7, 64, 0
7, 179904, Note_off_c, 7, 62, 0
7, 179904, Note_on_c, 7, 64, 88
7, 180000, Note_off_c, 7, 64, 0
7, 180000, Note_on_c, 7, 62, 88
7, 180096, Note_off_c, 7, 62, 0
7, 180096, Note_on_c, 7, 64, 88
7, 180192, Note_off_c, 7, 64, 0
7, 180288, Note_on_c, 7, 64, 88
7, 180480, Note_off_c, 7, 64, 0
7, 180480, Note_on_c, 7, 61, 88
7, 180480, Note_on_c, 7, 64, 88
7, 180672, Note_off_c, 7, 64, 0
7, 180672, Note_off_c, 7, 61, 0
7, 180672, Note_on_c, 7, 64, 88
7, 180768, Note_off_c, 7, 64, 0
7, 180768, Note_on_c, 7, 64, 88
7, 180864, Note_off_c, 7, 64, 0
7, 180864, Note_on_c, 7, 61, 88
7, 180960, Note_off_c, 7, 61, 0
7, 180960, Note_on_c, 7, 64, 88
7, 181056, Note_off_c, 7, 64, 0
7, 181056, Note_on_c, 7, 64, 88
7, 181248, Note_off_c, 7, 64, 0
7, 181248, Note_on_c, 7, 59, 88
7, 181248, Note_on_c, 7, 64, 88
7, 181440, Note_off_c, 7, 64, 0
7, 181440, Note_off_c, 7, 59, 0
7, 181440, Note_on_c, 7, 64, 88
7, 181536, Note_off_c, 7, 64, 0
7, 181536, Note_on_c, 7, 64, 88
7, 181632, Note_off_c, 7, 64, 0
7, 181632, Note_on_c, 7, 59, 88
7, 181728, Note_off_c, 7, 59, 0
7, 181728, Note_on_c, 7, 64, 88
7, 181824, Note_off_c, 7, 64, 0
7, 181824, Note_on_c, 7, 64, 88
7, 182016, Note_off_c, 7, 64, 0
7, 182016, Note_on_c, 7, 59, 88
7, 182016, Note_on_c, 7, 64, 88
7, 183552, Note_off_c, 7, 64, 0
7, 183552, Note_off_c, 7, 59, 0
7, 185088, Control_c, 7, 121, 0
7, 185184, Control_c, 7, 11, 127
7, 186624, End_track
8, 0, Start_track
8, 0, Title_t, "Drums"
8, 1536, Control_c, 9, 121, 0
8, 1536, Note_on_c, 9, 37, 54
8, 1538, Control_c, 9, 0, 0
8, 1540, Control_c, 9, 32, 0
8, 1542, Program_c, 9, 0
8, 1544, Control_c, 9, 11, 127
8, 1554, Control_c, 9, 7, 100
8, 1556, Control_c, 9, 91, 79
8, 1728, Note_off_c, 9, 37, 0
8, 1728, Control_c, 9, 99, 29
8, 1734, Control_c, 9, 98, 36
8, 1740, Control_c, 9, 6, 0
8, 1744, Text_t, "Bassdrum.Reverb\000"
8, 1752, Control_c, 9, 101, 127
8, 1760, Control_c, 9, 100, 127
8, 1920, Note_on_c, 9, 37, 53
8, 2112, Note_off_c, 9, 37, 0
8, 2304, Note_on_c, 9, 37, 51
8, 2496, Note_off_c, 9, 37, 0
8, 2688, Note_on_c, 9, 37, 48
8, 2880, Note_off_c, 9, 37, 0
8, 3072, Note_on_c, 9, 46, 78
8, 3072, Note_on_c, 9, 51, 59
8, 3072, Note_on_c, 9, 59, 68
8, 3168, Note_off_c, 9, 51, 0
8, 3264, Note_off_c, 9, 59, 0
8, 3264, Note_on_c, 9, 51, 32
8, 3264, Note_on_c, 9, 59, 35
8, 3360, Note_off_c, 9, 59, 0
8, 3360, Note_off_c, 9, 51, 0
8, 3360, Note_on_c, 9, 51, 33
8, 3360, Note_on_c, 9, 59, 36
8, 3456, Note_off_c, 9, 59, 0
8, 3456, Note_off_c, 9, 51, 0
8, 3456, Note_on_c, 9, 51, 59
8, 3456, Note_on_c, 9, 59, 56
8, 3648, Note_off_c, 9, 46, 0
8, 3744, Note_off_c, 9, 59, 0
8, 3744, Note_off_c, 9, 51, 0
8, 3840, Note_on_c, 9, 46, 92
8, 3840, Note_on_c, 9, 51, 66
8, 3840, Note_on_c, 9, 59, 85
8, 4032, Note_off_c, 9, 59, 0
8, 4032, Note_off_c, 9, 51, 0
8, 4032, Note_on_c, 9, 51, 29
8, 4032, Note_on_c, 9, 59, 40
8, 4128, Note_off_c, 9, 59, 0
8, 4128, Note_off_c, 9, 51, 0
8, 4128, Note_on_c, 9, 51, 33
8, 4128, Note_on_c, 9, 59, 37
8, 4224, Note_off_c, 9, 59, 0
8, 4224, Note_off_c, 9, 51, 0
8, 4224, Note_on_c, 9, 51, 71
8, 4224, Note_on_c, 9, 59, 62
8, 4416, Note_off_c, 9, 59, 0
8, 4416, Note_off_c, 9, 46, 0
8, 4512, Note_off_c, 9, 51, 0
8, 4608, Note_on_c, 9, 46, 82
8, 4608, Note_on_c, 9, 51, 66
8, 4608, Note_on_c, 9, 59, 79
8, 4704, Note_off_c, 9, 59, 0
8, 4800, Note_off_c, 9, 51, 0
8, 4800, Note_off_c, 9, 46, 0
8, 4800, Note_on_c, 9, 46, 92
8, 4800, Note_on_c, 9, 51, 37
8, 4800, Note_on_c, 9, 59, 55
8, 4896, Note_off_c, 9, 59, 0
8, 4896, Note_off_c, 9, 51, 0
8, 4992, Note_off_c, 9, 46, 0
8, 4992, Note_on_c, 9, 46, 78
8, 4992, Note_on_c, 9, 51, 45
8, 4992, Note_on_c, 9, 59, 68
8, 5088, Note_off_c, 9, 59, 0
8, 5088, Note_off_c, 9, 51, 0
8, 5184, Note_off_c, 9, 46, 0
8, 5184, Note_on_c, 9, 46, 92
8, 5184, Note_on_c, 9, 51, 51
8, 5184, Note_on_c, 9, 59, 60
8, 5280, Note_off_c, 9, 59, 0
8, 5280, Note_off_c, 9, 51, 0
8, 5280, Note_on_c, 9, 59, 53
8, 5376, Note_off_c, 9, 59, 0
8, 5376, Note_on_c, 9, 51, 51
8, 5472, Note_off_c, 9, 51, 0
8, 5472, Note_off_c, 9, 46, 0
8, 5472, Note_on_c, 9, 59, 21
8, 5568, Note_off_c, 9, 59, 0
8, 5568, Note_on_c, 9, 51, 35
8, 5568, Note_on_c, 9, 59, 53
8, 5664, Note_off_c, 9, 59, 0
8, 5664, Note_off_c, 9, 51, 0
8, 5760, Note_on_c, 9, 49, 71
8, 5760, Note_on_c, 9, 51, 71
8, 5760, Note_on_c, 9, 59, 82
8, 5856, Note_off_c, 9, 51, 0
8, 5952, Note_on_c, 9, 51, 39
8, 6048, Note_off_c, 9, 51, 0
8, 6048, Note_off_c, 9, 59, 0
8, 6048, Note_on_c, 9, 51, 25
8, 6144, Note_off_c, 9, 51, 0
8, 6144, Note_off_c, 9, 49, 0
8, 6144, Note_on_c, 9, 46, 82
8, 6144, Note_on_c, 9, 51, 71
8, 6144, Note_on_c, 9, 59, 82
8, 6336, Note_off_c, 9, 59, 0
8, 6336, Note_on_c, 9, 59, 44
8, 6432, Note_off_c, 9, 59, 0
8, 6432, Note_off_c, 9, 51, 0
8, 6432, Note_on_c, 9, 59, 34
8, 6528, Note_off_c, 9, 59, 0
8, 6528, Note_on_c, 9, 51, 49
8, 6528, Note_on_c, 9, 59, 53
8, 6624, Note_off_c, 9, 51, 0
8, 6720, Note_off_c, 9, 46, 0
8, 6720, Note_on_c, 9, 51, 37
8, 6816, Note_off_c, 9, 51, 0
8, 6816, Note_off_c, 9, 59, 0
8, 6816, Note_on_c, 9, 51, 30
8, 6912, Note_off_c, 9, 51, 0
8, 6912, Note_on_c, 9, 46, 87
8, 6912, Note_on_c, 9, 51, 76
8, 6912, Note_on_c, 9, 59, 82
8, 7104, Note_off_c, 9, 59, 0
8, 7104, Note_on_c, 9, 59, 33
8, 7200, Note_off_c, 9, 59, 0
8, 7200, Note_off_c, 9, 51, 0
8, 7200, Note_on_c, 9, 59, 34
8, 7296, Note_off_c, 9, 59, 0
8, 7296, Note_on_c, 9, 51, 47
8, 7296, Note_on_c, 9, 59, 56
8, 7392, Note_off_c, 9, 51, 0
8, 7488, Note_off_c, 9, 46, 0
8, 7488, Note_on_c, 9, 51, 37
8, 7584, Note_off_c, 9, 51, 0
8, 7584, Note_off_c, 9, 59, 0
8, 7584, Note_on_c, 9, 51, 30
8, 7680, Note_off_c, 9, 51, 0
8, 7680, Note_on_c, 9, 46, 75
8, 7680, Note_on_c, 9, 51, 71
8, 7680, Note_on_c, 9, 59, 79
8, 7776, Note_off_c, 9, 59, 0
8, 7776, Note_off_c, 9, 51, 0
8, 7872, Note_off_c, 9, 46, 0
8, 7872, Note_on_c, 9, 46, 65
8, 7872, Note_on_c, 9, 51, 41
8, 7872, Note_on_c, 9, 59, 60
8, 7968, Note_off_c, 9, 59, 0
8, 7968, Note_off_c, 9, 51, 0
8, 8064, Note_off_c, 9, 46, 0
8, 8064, Note_on_c, 9, 46, 87
8, 8064, Note_on_c, 9, 51, 62
8, 8064, Note_on_c, 9, 59, 58
8, 8160, Note_off_c, 9, 59, 0
8, 8160, Note_off_c, 9, 46, 0
8, 8256, Note_off_c, 9, 51, 0
8, 8256, Note_on_c, 9, 46, 86
8, 8256, Note_on_c, 9, 51, 27
8, 8256, Note_on_c, 9, 59, 76
8, 8352, Note_off_c, 9, 59, 0
8, 8352, Note_off_c, 9, 51, 0
8, 8352, Note_on_c, 9, 51, 24
8, 8448, Note_off_c, 9, 51, 0
8, 8448, Note_on_c, 9, 51, 40
8, 8544, Note_off_c, 9, 46, 0
8, 8544, Note_on_c, 9, 59, 79
8, 8640, Note_off_c, 9, 59, 0
8, 8640, Note_off_c, 9, 51, 0
8, 8640, Note_on_c, 9, 51, 31
8, 8640, Note_on_c, 9, 59, 47
8, 8736, Note_off_c, 9, 59, 0
8, 8736, Note_off_c, 9, 51, 0
8, 8736, Note_on_c, 9, 51, 23
8, 8832, Note_off_c, 9, 51, 0
8, 8832, Note_on_c, 9, 49, 71
8, 8832, Note_on_c, 9, 51, 62
8, 8832, Note_on_c, 9, 59, 82
8, 9024, Note_off_c, 9, 51, 0
8, 9024, Note_on_c, 9, 51, 51
8, 9120, Note_off_c, 9, 51, 0
8, 9120, Note_off_c, 9, 59, 0
8, 9120, Note_on_c, 9, 51, 39
8, 9216, Note_off_c, 9, 51, 0
8, 9216, Note_off_c, 9, 49, 0
8, 9216, Note_on_c, 9, 36, 101
8, 9216, Note_on_c, 9, 42, 71
8, 9216, Note_on_c, 9, 51, 71
8, 9408, Note_off_c, 9, 51, 0
8, 9408, Note_off_c, 9, 42, 0
8, 9408, Note_off_c, 9, 36, 0
8, 9408, Note_on_c, 9, 42, 56
8, 9408, Note_on_c, 9, 51, 71
8, 9600, Note_off_c, 9, 51, 0
8, 9600, Note_off_c, 9, 42, 0
8, 9600, Note_on_c, 9, 36, 77
8, 9600, Note_on_c, 9, 40, 112
8, 9600, Note_on_c, 9, 42, 82
8, 9600, Note_on_c, 9, 51, 88
8, 9792, Note_off_c, 9, 51, 0
8, 9792, Note_off_c, 9, 42, 0
8, 9792, Note_off_c, 9, 36, 0
8, 9792, Note_on_c, 9, 42, 59
8, 9792, Note_on_c, 9, 51, 76
8, 9984, Note_off_c, 9, 51, 0
8, 9984, Note_off_c, 9, 42, 0
8, 9984, Note_off_c, 9, 40, 0
8, 9984, Note_on_c, 9, 36, 98
8, 9984, Note_on_c, 9, 42, 66
8, 9984, Note_on_c, 9, 51, 71
8, 10176, Note_off_c, 9, 51, 0
8, 10176, Note_off_c, 9, 42, 0
8, 10176, Note_off_c, 9, 36, 0
8, 10176, Note_on_c, 9, 42, 59
8, 10176, Note_on_c, 9, 51, 71
8, 10368, Note_off_c, 9, 51, 0
8, 10368, Note_off_c, 9, 42, 0
8, 10368, Note_on_c, 9, 36, 86
8, 10368, Note_on_c, 9, 40, 112
8, 10368, Note_on_c, 9, 42, 71
8, 10368, Note_on_c, 9, 51, 88
8, 10560, Note_off_c, 9, 51, 0
8, 10560, Note_off_c, 9, 42, 0
8, 10560, Note_off_c, 9, 36, 0
8, 10560, Note_on_c, 9, 42, 66
8, 10560, Note_on_c, 9, 51, 62
8, 10752, Note_off_c, 9, 51, 0
8, 10752, Note_off_c, 9, 42, 0
8, 10752, Note_off_c, 9, 40, 0
8, 10752, Note_on_c, 9, 36, 94
8, 10752, Note_on_c, 9, 42, 59
8, 10752, Note_on_c, 9, 51, 66
8, 10944, Note_off_c, 9, 51, 0
8, 10944, Note_off_c, 9, 42, 0
8, 10944, Note_on_c, 9, 42, 66
8, 10944, Note_on_c, 9, 51, 71
8, 11136, Note_off_c, 9, 51, 0
8, 11136, Note_off_c, 9, 42, 0
8, 11136, Note_off_c, 9, 36, 0
8, 11136, Note_on_c, 9, 40, 112
8, 11136, Note_on_c, 9, 42, 71
8, 11136, Note_on_c, 9, 51, 88
8, 11328, Note_off_c, 9, 51, 0
8, 11328, Note_off_c, 9, 42, 0
8, 11328, Note_on_c, 9, 42, 76
8, 11328, Note_on_c, 9, 51, 62
8, 11520, Note_off_c, 9, 51, 0
8, 11520, Note_off_c, 9, 42, 0
8, 11520, Note_off_c, 9, 40, 0
8, 11520, Note_on_c, 9, 36, 96
8, 11520, Note_on_c, 9, 42, 66
8, 11520, Note_on_c, 9, 49, 65
8, 11520, Note_on_c, 9, 57, 71
8, 11712, Note_off_c, 9, 57, 0
8, 11712, Note_off_c, 9, 42, 0
8, 11712, Note_on_c, 9, 42, 62
8, 11712, Note_on_c, 9, 51, 49
8, 11904, Note_off_c, 9, 51, 0
8, 11904, Note_off_c, 9, 42, 0
8, 11904, Note_off_c, 9, 36, 0
8, 11904, Note_on_c, 9, 40, 127
8, 11904, Note_on_c, 9, 51, 103
8, 12096, Note_off_c, 9, 51, 0
8, 12096, Note_off_c, 9, 40, 0
8, 12096, Note_on_c, 9, 42, 81
8, 12096, Note_on_c, 9, 51, 74
8, 12192, Note_on_c, 9, 36, 127
8, 12288, Note_off_c, 9, 51, 0
8, 12288, Note_off_c, 9, 42, 0
8, 12288, Note_off_c, 9, 49, 0
8, 12288, Note_on_c, 9, 36, 112
8, 12288, Note_on_c, 9, 42, 81
8, 12288, Note_on_c, 9, 51, 86
8, 12480, Note_off_c, 9, 51, 0
8, 12480, Note_off_c, 9, 42, 0
8, 12480, Note_off_c, 9, 36, 0
8, 12480, Note_off_c, 9, 36, 0
8, 12480, Note_on_c, 9, 42, 74
8, 12480, Note_on_c, 9, 51, 81
8, 12672, Note_off_c, 9, 51, 0
8, 12672, Note_off_c, 9, 42, 0
8, 12672, Note_on_c, 9, 40, 127
8, 12672, Note_on_c, 9, 42, 86
8, 12672, Note_on_c, 9, 51, 97
8, 12864, Note_off_c, 9, 51, 0
8, 12864, Note_off_c, 9, 42, 0
8, 12864, Note_off_c, 9, 40, 0
8, 12864, Note_on_c, 9, 42, 86
8, 12864, Note_on_c, 9, 51, 91
8, 13056, Note_off_c, 9, 51, 0
8, 13056, Note_off_c, 9, 42, 0
8, 13056, Note_on_c, 9, 36, 96
8, 13056, Note_on_c, 9, 42, 66
8, 13152, Note_off_c, 9, 42, 0
8, 13248, Note_on_c, 9, 42, 62
8, 13344, Note_off_c, 9, 42, 0
8, 13344, Note_off_c, 9, 36, 0
8, 13440, Note_on_c, 9, 40, 112
8, 13440, Note_on_c, 9, 42, 76
8, 13536, Note_off_c, 9, 42, 0
8, 13632, Note_off_c, 9, 40, 0
8, 13632, Note_on_c, 9, 42, 66
8, 13728, Note_off_c, 9, 42, 0
8, 13824, Note_on_c, 9, 36, 105
8, 13824, Note_on_c, 9, 42, 66
8, 13920, Note_off_c, 9, 42, 0
8, 14016, Note_off_c, 9, 36, 0
8, 14016, Note_on_c, 9, 42, 59
8, 14112, Note_off_c, 9, 42, 0
8, 14208, Note_on_c, 9, 40, 112
8, 14208, Note_on_c, 9, 42, 71
8, 14304, Note_off_c, 9, 42, 0
8, 14400, Note_off_c, 9, 40, 0
8, 14400, Note_on_c, 9, 42, 71
8, 14496, Note_off_c, 9, 42, 0
8, 14592, Note_on_c, 9, 36, 96
8, 14592, Note_on_c, 9, 42, 66
8, 14688, Note_off_c, 9, 42, 0
8, 14784, Note_on_c, 9, 42, 62
8, 14880, Note_off_c, 9, 42, 0
8, 14880, Note_off_c, 9, 36, 0
8, 14976, Note_on_c, 9, 40, 112
8, 14976, Note_on_c, 9, 42, 76
8, 15072, Note_off_c, 9, 42, 0
8, 15168, Note_off_c, 9, 40, 0
8, 15168, Note_on_c, 9, 42, 66
8, 15264, Note_off_c, 9, 42, 0
8, 15360, Note_on_c, 9, 36, 105
8, 15360, Note_on_c, 9, 42, 66
8, 15456, Note_off_c, 9, 42, 0
8, 15552, Note_off_c, 9, 36, 0
8, 15552, Note_on_c, 9, 42, 59
8, 15648, Note_off_c, 9, 42, 0
8, 15744, Note_on_c, 9, 40, 112
8, 15744, Note_on_c, 9, 42, 71
8, 15840, Note_off_c, 9, 42, 0
8, 15936, Note_off_c, 9, 40, 0
8, 15936, Note_on_c, 9, 42, 71
8, 16032, Note_off_c, 9, 42, 0
8, 16128, Note_on_c, 9, 36, 96
8, 16128, Note_on_c, 9, 42, 66
8, 16224, Note_off_c, 9, 42, 0
8, 16320, Note_on_c, 9, 42, 62
8, 16416, Note_off_c, 9, 42, 0
8, 16416, Note_off_c, 9, 36, 0
8, 16512, Note_on_c, 9, 40, 112
8, 16512, Note_on_c, 9, 42, 76
8, 16608, Note_off_c, 9, 42, 0
8, 16704, Note_off_c, 9, 40, 0
8, 16704, Note_on_c, 9, 42, 66
8, 16800, Note_off_c, 9, 42, 0
8, 16800, Note_on_c, 9, 36, 97
8, 16896, Note_off_c, 9, 36, 0
8, 16896, Note_on_c, 9, 36, 105
8, 16896, Note_on_c, 9, 42, 66
8, 16992, Note_off_c, 9, 42, 0
8, 17088, Note_off_c, 9, 36, 0
8, 17088, Note_on_c, 9, 42, 59
8, 17184, Note_off_c, 9, 42, 0
8, 17280, Note_on_c, 9, 40, 112
8, 17280, Note_on_c, 9, 42, 71
8, 17376, Note_off_c, 9, 42, 0
8, 17472, Note_off_c, 9, 40, 0
8, 17472, Note_on_c, 9, 42, 71
8, 17568, Note_off_c, 9, 42, 0
8, 17664, Note_on_c, 9, 36, 96
8, 17664, Note_on_c, 9, 42, 66
8, 17760, Note_off_c, 9, 42, 0
8, 17856, Note_on_c, 9, 42, 62
8, 17952, Note_off_c, 9, 42, 0
8, 17952, Note_off_c, 9, 36, 0
8, 18048, Note_on_c, 9, 40, 112
8, 18048, Note_on_c, 9, 42, 76
8, 18144, Note_off_c, 9, 42, 0
8, 18240, Note_off_c, 9, 40, 0
8, 18240, Note_on_c, 9, 42, 66
8, 18336, Note_off_c, 9, 42, 0
8, 18336, Note_on_c, 9, 36, 97
8, 18432, Note_off_c, 9, 36, 0
8, 18432, Note_on_c, 9, 36, 105
8, 18432, Note_on_c, 9, 42, 66
8, 18528, Note_off_c, 9, 42, 0
8, 18624, Note_off_c, 9, 36, 0
8, 18624, Note_on_c, 9, 42, 59
8, 18720, Note_off_c, 9, 42, 0
8, 18816, Note_on_c, 9, 40, 112
8, 18816, Note_on_c, 9, 42, 71
8, 18912, Note_off_c, 9, 42, 0
8, 19008, Note_off_c, 9, 40, 0
8, 19008, Note_on_c, 9, 42, 71
8, 19104, Note_off_c, 9, 42, 0
8, 19200, Note_on_c, 9, 36, 96
8, 19200, Note_on_c, 9, 42, 66
8, 19296, Note_off_c, 9, 42, 0
8, 19392, Note_on_c, 9, 42, 62
8, 19488, Note_off_c, 9, 42, 0
8, 19488, Note_off_c, 9, 36, 0
8, 19584, Note_on_c, 9, 40, 112
8, 19584, Note_on_c, 9, 42, 76
8, 19680, Note_off_c, 9, 42, 0
8, 19776, Note_off_c, 9, 40, 0
8, 19776, Note_on_c, 9, 42, 66
8, 19872, Note_off_c, 9, 42, 0
8, 19872, Note_on_c, 9, 36, 97
8, 19968, Note_off_c, 9, 36, 0
8, 19968, Note_on_c, 9, 36, 105
8, 19968, Note_on_c, 9, 42, 66
8, 20064, Note_off_c, 9, 42, 0
8, 20160, Note_off_c, 9, 36, 0
8, 20160, Note_on_c, 9, 42, 59
8, 20256, Note_off_c, 9, 42, 0
8, 20352, Note_on_c, 9, 40, 112
8, 20352, Note_on_c, 9, 42, 71
8, 20448, Note_off_c, 9, 42, 0
8, 20544, Note_off_c, 9, 40, 0
8, 20544, Note_on_c, 9, 42, 71
8, 20640, Note_off_c, 9, 42, 0
8, 20736, Note_on_c, 9, 36, 96
8, 20736, Note_on_c, 9, 42, 66
8, 20736, Note_on_c, 9, 49, 62
8, 20832, Note_off_c, 9, 42, 0
8, 20928, Note_on_c, 9, 42, 62
8, 21024, Note_off_c, 9, 42, 0
8, 21024, Note_off_c, 9, 36, 0
8, 21120, Note_on_c, 9, 40, 112
8, 21120, Note_on_c, 9, 42, 76
8, 21216, Note_off_c, 9, 42, 0
8, 21312, Note_off_c, 9, 40, 0
8, 21312, Note_off_c, 9, 49, 0
8, 21312, Note_on_c, 9, 42, 66
8, 21408, Note_off_c, 9, 42, 0
8, 21504, Note_on_c, 9, 36, 105
8, 21504, Note_on_c, 9, 42, 66
8, 21600, Note_off_c, 9, 42, 0
8, 21696, Note_off_c, 9, 36, 0
8, 21696, Note_on_c, 9, 42, 59
8, 21792, Note_off_c, 9, 42, 0
8, 21888, Note_on_c, 9, 40, 112
8, 21888, Note_on_c, 9, 42, 71
8, 21984, Note_off_c, 9, 42, 0
8, 22080, Note_off_c, 9, 40, 0
8, 22080, Note_on_c, 9, 42, 71
8, 22176, Note_off_c, 9, 42, 0
8, 22272, Note_on_c, 9, 36, 96
8, 22272, Note_on_c, 9, 42, 66
8, 22368, Note_off_c, 9, 42, 0
8, 22464, Note_on_c, 9, 42, 62
8, 22560, Note_off_c, 9, 42, 0
8, 22560, Note_off_c, 9, 36, 0
8, 22656, Note_on_c, 9, 40, 112
8, 22656, Note_on_c, 9, 42, 76
8, 22752, Note_off_c, 9, 42, 0
8, 22848, Note_off_c, 9, 40, 0
8, 22848, Note_on_c, 9, 42, 66
8, 22944, Note_off_c, 9, 42, 0
8, 23040, Note_on_c, 9, 36, 105
8, 23040, Note_on_c, 9, 42, 66
8, 23136, Note_off_c, 9, 42, 0
8, 23232, Note_off_c, 9, 36, 0
8, 23232, Note_on_c, 9, 40, 112
8, 23328, Note_off_c, 9, 40, 0
8, 23424, Note_on_c, 9, 40, 112
8, 23520, Note_off_c, 9, 40, 0
8, 23616, Note_on_c, 9, 40, 112
8, 23712, Note_off_c, 9, 40, 0
8, 23712, Note_on_c, 9, 40, 112
8, 23808, Note_off_c, 9, 40, 0
8, 23808, Note_on_c, 9, 36, 96
8, 23808, Note_on_c, 9, 42, 66
8, 23808, Note_on_c, 9, 49, 42
8, 23904, Note_off_c, 9, 42, 0
8, 24000, Note_on_c, 9, 42, 62
8, 24096, Note_off_c, 9, 42, 0
8, 24096, Note_off_c, 9, 36, 0
8, 24192, Note_on_c, 9, 40, 112
8, 24192, Note_on_c, 9, 42, 76
8, 24288, Note_off_c, 9, 42, 0
8, 24384, Note_off_c, 9, 40, 0
8, 24384, Note_off_c, 9, 49, 0
8, 24384, Note_on_c, 9, 42, 66
8, 24480, Note_off_c, 9, 42, 0
8, 24576, Note_on_c, 9, 36, 105
8, 24576, Note_on_c, 9, 42, 66
8, 24672, Note_off_c, 9, 42, 0
8, 24768, Note_off_c, 9, 36, 0
8, 24768, Note_on_c, 9, 42, 59
8, 24864, Note_off_c, 9, 42, 0
8, 24960, Note_on_c, 9, 40, 112
8, 24960, Note_on_c, 9, 42, 71
8, 25056, Note_off_c, 9, 42, 0
8, 25152, Note_off_c, 9, 40, 0
8, 25152, Note_on_c, 9, 42, 71
8, 25248, Note_off_c, 9, 42, 0
8, 25344, Note_on_c, 9, 36, 96
8, 25344, Note_on_c, 9, 42, 66
8, 25440, Note_off_c, 9, 42, 0
8, 25536, Note_on_c, 9, 42, 62
8, 25632, Note_off_c, 9, 42, 0
8, 25632, Note_off_c, 9, 36, 0
8, 25728, Note_on_c, 9, 40, 112
8, 25728, Note_on_c, 9, 42, 76
8, 25824, Note_off_c, 9, 42, 0
8, 25920, Note_off_c, 9, 40, 0
8, 25920, Note_on_c, 9, 42, 66
8, 26016, Note_off_c, 9, 42, 0
8, 26112, Note_on_c, 9, 36, 105
8, 26112, Note_on_c, 9, 42, 66
8, 26208, Note_off_c, 9, 42, 0
8, 26304, Note_off_c, 9, 36, 0
8, 26304, Note_on_c, 9, 42, 59
8, 26400, Note_off_c, 9, 42, 0
8, 26496, Note_on_c, 9, 40, 112
8, 26496, Note_on_c, 9, 42, 71
8, 26592, Note_off_c, 9, 42, 0
8, 26688, Note_off_c, 9, 40, 0
8, 26688, Note_on_c, 9, 42, 71
8, 26784, Note_off_c, 9, 42, 0
8, 26880, Note_on_c, 9, 36, 96
8, 26880, Note_on_c, 9, 42, 66
8, 26976, Note_off_c, 9, 42, 0
8, 27072, Note_on_c, 9, 42, 62
8, 27168, Note_off_c, 9, 42, 0
8, 27168, Note_off_c, 9, 36, 0
8, 27264, Note_on_c, 9, 40, 112
8, 27264, Note_on_c, 9, 42, 76
8, 27360, Note_off_c, 9, 42, 0
8, 27456, Note_off_c, 9, 40, 0
8, 27456, Note_on_c, 9, 42, 66
8, 27552, Note_off_c, 9, 42, 0
8, 27552, Note_on_c, 9, 36, 97
8, 27648, Note_off_c, 9, 36, 0
8, 27648, Note_on_c, 9, 36, 105
8, 27648, Note_on_c, 9, 42, 66
8, 27744, Note_off_c, 9, 42, 0
8, 27840, Note_off_c, 9, 36, 0
8, 27840, Note_on_c, 9, 42, 59
8, 27936, Note_off_c, 9, 42, 0
8, 28032, Note_on_c, 9, 40, 112
8, 28032, Note_on_c, 9, 42, 71
8, 28128, Note_off_c, 9, 42, 0
8, 28224, Note_off_c, 9, 40, 0
8, 28224, Note_on_c, 9, 42, 71
8, 28320, Note_off_c, 9, 42, 0
8, 28416, Note_on_c, 9, 36, 96
8, 28416, Note_on_c, 9, 42, 66
8, 28512, Note_off_c, 9, 42, 0
8, 28608, Note_on_c, 9, 42, 62
8, 28704, Note_off_c, 9, 42, 0
8, 28704, Note_off_c, 9, 36, 0
8, 28800, Note_on_c, 9, 40, 112
8, 28800, Note_on_c, 9, 42, 76
8, 28896, Note_off_c, 9, 42, 0
8, 28992, Note_off_c, 9, 40, 0
8, 28992, Note_on_c, 9, 42, 66
8, 29088, Note_off_c, 9, 42, 0
8, 29088, Note_on_c, 9, 36, 97
8, 29184, Note_off_c, 9, 36, 0
8, 29184, Note_on_c, 9, 36, 105
8, 29184, Note_on_c, 9, 42, 66
8, 29280, Note_off_c, 9, 42, 0
8, 29376, Note_off_c, 9, 36, 0
8, 29376, Note_on_c, 9, 42, 59
8, 29472, Note_off_c, 9, 42, 0
8, 29568, Note_on_c, 9, 40, 112
8, 29568, Note_on_c, 9, 42, 71
8, 29664, Note_off_c, 9, 42, 0
8, 29760, Note_off_c, 9, 40, 0
8, 29760, Note_on_c, 9, 42, 71
8, 29856, Note_off_c, 9, 42, 0
8, 29952, Note_on_c, 9, 36, 96
8, 29952, Note_on_c, 9, 42, 66
8, 30048, Note_off_c, 9, 42, 0
8, 30144, Note_on_c, 9, 42, 62
8, 30240, Note_off_c, 9, 42, 0
8, 30240, Note_off_c, 9, 36, 0
8, 30336, Note_on_c, 9, 40, 127
8, 30336, Note_on_c, 9, 42, 91
8, 30432, Note_off_c, 9, 42, 0
8, 30528, Note_off_c, 9, 40, 0
8, 30528, Note_on_c, 9, 42, 81
8, 30624, Note_off_c, 9, 42, 0
8, 30624, Note_on_c, 9, 36, 112
8, 30720, Note_off_c, 9, 36, 0
8, 30720, Note_on_c, 9, 36, 120
8, 30720, Note_on_c, 9, 42, 81
8, 30816, Note_off_c, 9, 42, 0
8, 30912, Note_off_c, 9, 36, 0
8, 30912, Note_on_c, 9, 42, 74
8, 31008, Note_off_c, 9, 42, 0
8, 31104, Note_on_c, 9, 40, 127
8, 31104, Note_on_c, 9, 42, 86
8, 31200, Note_off_c, 9, 42, 0
8, 31296, Note_off_c, 9, 40, 0
8, 31296, Note_on_c, 9, 42, 86
8, 31392, Note_off_c, 9, 42, 0
8, 31488, Note_on_c, 9, 36, 96
8, 31488, Note_on_c, 9, 42, 66
8, 31488, Note_on_c, 9, 49, 62
8, 31584, Note_off_c, 9, 42, 0
8, 31680, Note_on_c, 9, 42, 62
8, 31776, Note_off_c, 9, 42, 0
8, 31776, Note_off_c, 9, 36, 0
8, 31872, Note_on_c, 9, 40, 112
8, 31872, Note_on_c, 9, 42, 76
8, 31968, Note_off_c, 9, 42, 0
8, 32064, Note_off_c, 9, 40, 0
8, 32064, Note_on_c, 9, 42, 66
8, 32160, Note_off_c, 9, 42, 0
8, 32256, Note_off_c, 9, 49, 0
8, 32256, Note_on_c, 9, 36, 105
8, 32256, Note_on_c, 9, 42, 66
8, 32352, Note_off_c, 9, 42, 0
8, 32448, Note_off_c, 9, 36, 0
8, 32448, Note_on_c, 9, 42, 59
8, 32544, Note_off_c, 9, 42, 0
8, 32640, Note_on_c, 9, 40, 112
8, 32640, Note_on_c, 9, 42, 71
8, 32736, Note_off_c, 9, 42, 0
8, 32832, Note_off_c, 9, 40, 0
8, 32832, Note_on_c, 9, 42, 71
8, 32928, Note_off_c, 9, 42, 0
8, 33024, Note_on_c, 9, 36, 96
8, 33024, Note_on_c, 9, 42, 66
8, 33120, Note_off_c, 9, 42, 0
8, 33216, Note_on_c, 9, 42, 62
8, 33312, Note_off_c, 9, 42, 0
8, 33312, Note_off_c, 9, 36, 0
8, 33408, Note_on_c, 9, 40, 112
8, 33408, Note_on_c, 9, 42, 76
8, 33504, Note_off_c, 9, 42, 0
8, 33600, Note_off_c, 9, 40, 0
8, 33600, Note_on_c, 9, 42, 66
8, 33696, Note_off_c, 9, 42, 0
8, 33792, Note_on_c, 9, 36, 105
8, 33792, Note_on_c, 9, 42, 66
8, 33888, Note_off_c, 9, 42, 0
8, 33984, Note_off_c, 9, 36, 0
8, 33984, Note_on_c, 9, 40, 112
8, 34080, Note_off_c, 9, 40, 0
8, 34176, Note_on_c, 9, 40, 112
8, 34272, Note_off_c, 9, 40, 0
8, 34368, Note_on_c, 9, 40, 112
8, 34464, Note_off_c, 9, 40, 0
8, 34464, Note_on_c, 9, 40, 112
8, 34560, Note_off_c, 9, 40, 0
8, 34560, Note_on_c, 9, 36, 96
8, 34560, Note_on_c, 9, 42, 66
8, 34560, Note_on_c, 9, 49, 71
8, 34656, Note_off_c, 9, 42, 0
8, 34752, Note_on_c, 9, 42, 62
8, 34848, Note_off_c, 9, 42, 0
8, 34848, Note_off_c, 9, 36, 0
8, 34944, Note_off_c, 9, 49, 0
8, 34944, Note_on_c, 9, 40, 112
8, 34944, Note_on_c, 9, 42, 76
8, 35040, Note_off_c, 9, 42, 0
8, 35136, Note_off_c, 9, 40, 0
8, 35136, Note_on_c, 9, 42, 66
8, 35232, Note_off_c, 9, 42, 0
8, 35328, Note_on_c, 9, 36, 105
8, 35328, Note_on_c, 9, 42, 66
8, 35424, Note_off_c, 9, 42, 0
8, 35520, Note_off_c, 9, 36, 0
8, 35520, Note_on_c, 9, 42, 59
8, 35616, Note_off_c, 9, 42, 0
8, 35712, Note_on_c, 9, 40, 112
8, 35712, Note_on_c, 9, 42, 71
8, 35808, Note_off_c, 9, 42, 0
8, 35904, Note_off_c, 9, 40, 0
8, 35904, Note_on_c, 9, 42, 71
8, 36000, Note_off_c, 9, 42, 0
8, 36096, Note_on_c, 9, 36, 96
8, 36096, Note_on_c, 9, 42, 66
8, 36192, Note_off_c, 9, 42, 0
8, 36288, Note_on_c, 9, 42, 62
8, 36384, Note_off_c, 9, 42, 0
8, 36384, Note_off_c, 9, 36, 0
8, 36480, Note_on_c, 9, 40, 112
8, 36480, Note_on_c, 9, 42, 76
8, 36576, Note_off_c, 9, 42, 0
8, 36672, Note_off_c, 9, 40, 0
8, 36672, Note_on_c, 9, 42, 66
8, 36768, Note_off_c, 9, 42, 0
8, 36864, Note_on_c, 9, 36, 105
8, 36864, Note_on_c, 9, 42, 66
8, 36960, Note_off_c, 9, 42, 0
8, 37056, Note_off_c, 9, 36, 0
8, 37056, Note_on_c, 9, 42, 59
8, 37152, Note_off_c, 9, 42, 0
8, 37248, Note_on_c, 9, 40, 112
8, 37248, Note_on_c, 9, 42, 71
8, 37344, Note_off_c, 9, 42, 0
8, 37440, Note_off_c, 9, 40, 0
8, 37440, Note_on_c, 9, 42, 71
8, 37536, Note_off_c, 9, 42, 0
8, 37632, Note_on_c, 9, 36, 96
8, 37632, Note_on_c, 9, 42, 66
8, 37728, Note_off_c, 9, 42, 0
8, 37824, Note_on_c, 9, 42, 62
8, 37920, Note_off_c, 9, 42, 0
8, 37920, Note_off_c, 9, 36, 0
8, 38016, Note_on_c, 9, 40, 112
8, 38016, Note_on_c, 9, 42, 76
8, 38112, Note_off_c, 9, 42, 0
8, 38208, Note_off_c, 9, 40, 0
8, 38208, Note_on_c, 9, 42, 66
8, 38304, Note_off_c, 9, 42, 0
8, 38304, Note_on_c, 9, 36, 97
8, 38400, Note_off_c, 9, 36, 0
8, 38400, Note_on_c, 9, 36, 105
8, 38400, Note_on_c, 9, 42, 66
8, 38496, Note_off_c, 9, 42, 0
8, 38592, Note_off_c, 9, 36, 0
8, 38592, Note_on_c, 9, 42, 59
8, 38688, Note_off_c, 9, 42, 0
8, 38784, Note_on_c, 9, 40, 112
8, 38784, Note_on_c, 9, 42, 71
8, 38880, Note_off_c, 9, 42, 0
8, 38976, Note_off_c, 9, 40, 0
8, 38976, Note_on_c, 9, 42, 71
8, 39072, Note_off_c, 9, 42, 0
8, 39168, Note_on_c, 9, 36, 96
8, 39168, Note_on_c, 9, 42, 66
8, 39264, Note_off_c, 9, 42, 0
8, 39360, Note_on_c, 9, 42, 62
8, 39456, Note_off_c, 9, 42, 0
8, 39456, Note_off_c, 9, 36, 0
8, 39552, Note_on_c, 9, 40, 112
8, 39552, Note_on_c, 9, 42, 76
8, 39648, Note_off_c, 9, 42, 0
8, 39744, Note_off_c, 9, 40, 0
8, 39744, Note_on_c, 9, 42, 66
8, 39840, Note_off_c, 9, 42, 0
8, 39840, Note_on_c, 9, 36, 97
8, 39936, Note_off_c, 9, 36, 0
8, 39936, Note_on_c, 9, 36, 105
8, 39936, Note_on_c, 9, 42, 66
8, 40032, Note_off_c, 9, 42, 0
8, 40128, Note_off_c, 9, 36, 0
8, 40128, Note_on_c, 9, 42, 59
8, 40224, Note_off_c, 9, 42, 0
8, 40320, Note_on_c, 9, 40, 112
8, 40320, Note_on_c, 9, 42, 71
8, 40416, Note_off_c, 9, 42, 0
8, 40512, Note_off_c, 9, 40, 0
8, 40512, Note_on_c, 9, 42, 71
8, 40608, Note_off_c, 9, 42, 0
8, 40704, Note_on_c, 9, 36, 96
8, 40704, Note_on_c, 9, 42, 66
8, 40800, Note_off_c, 9, 42, 0
8, 40896, Note_on_c, 9, 42, 62
8, 40992, Note_off_c, 9, 42, 0
8, 40992, Note_off_c, 9, 36, 0
8, 41088, Note_on_c, 9, 40, 112
8, 41088, Note_on_c, 9, 42, 76
8, 41184, Note_off_c, 9, 42, 0
8, 41280, Note_off_c, 9, 40, 0
8, 41280, Note_on_c, 9, 42, 66
8, 41376, Note_off_c, 9, 42, 0
8, 41376, Note_on_c, 9, 36, 97
8, 41472, Note_off_c, 9, 36, 0
8, 42624, Note_on_c, 9, 40, 112
8, 42720, Note_off_c, 9, 40, 0
8, 42816, Note_on_c, 9, 40, 112
8, 42912, Note_off_c, 9, 40, 0
8, 42912, Note_on_c, 9, 40, 112
8, 43008, Note_off_c, 9, 40, 0
8, 43008, Note_on_c, 9, 36, 100
8, 43008, Note_on_c, 9, 46, 80
8, 43008, Note_on_c, 9, 49, 80
8, 43008, Note_on_c, 9, 57, 46
8, 43200, Note_off_c, 9, 46, 0
8, 43200, Note_off_c, 9, 36, 0
8, 43200, Note_on_c, 9, 46, 58
8, 43392, Note_off_c, 9, 46, 0
8, 43392, Note_off_c, 9, 57, 0
8, 43392, Note_off_c, 9, 49, 0
8, 43392, Note_on_c, 9, 40, 117
8, 43392, Note_on_c, 9, 46, 64
8, 43584, Note_off_c, 9, 46, 0
8, 43584, Note_off_c, 9, 40, 0
8, 43584, Note_on_c, 9, 36, 93
8, 43584, Note_on_c, 9, 46, 72
8, 43776, Note_off_c, 9, 46, 0
8, 43776, Note_off_c, 9, 36, 0
8, 43776, Note_on_c, 9, 46, 68
8, 43968, Note_off_c, 9, 46, 0
8, 43968, Note_on_c, 9, 36, 95
8, 43968, Note_on_c, 9, 46, 62
8, 44160, Note_off_c, 9, 46, 0
8, 44160, Note_off_c, 9, 36, 0
8, 44160, Note_on_c, 9, 40, 117
8, 44160, Note_on_c, 9, 46, 72
8, 44352, Note_off_c, 9, 46, 0
8, 44352, Note_off_c, 9, 40, 0
8, 44352, Note_on_c, 9, 46, 68
8, 44544, Note_off_c, 9, 46, 0
8, 44544, Note_on_c, 9, 36, 96
8, 44544, Note_on_c, 9, 46, 62
8, 44553, Note_on_c, 9, 54, 82
8, 44604, Note_off_c, 9, 54, 0
8, 44652, Note_on_c, 9, 54, 46
8, 44700, Note_off_c, 9, 54, 0
8, 44736, Note_off_c, 9, 46, 0
8, 44736, Note_off_c, 9, 36, 0
8, 44736, Note_on_c, 9, 46, 53
8, 44742, Note_on_c, 9, 54, 54
8, 44787, Note_off_c, 9, 54, 0
8, 44832, Note_on_c, 9, 54, 54
8, 44928, Note_off_c, 9, 54, 0
8, 44928, Note_off_c, 9, 46, 0
8, 44928, Note_on_c, 9, 40, 117
8, 44928, Note_on_c, 9, 46, 72
8, 44931, Note_on_c, 9, 54, 87
8, 44988, Note_off_c, 9, 54, 0
8, 45027, Note_on_c, 9, 54, 49
8, 45084, Note_off_c, 9, 54, 0
8, 45120, Note_off_c, 9, 46, 0
8, 45120, Note_off_c, 9, 40, 0
8, 45120, Note_on_c, 9, 36, 103
8, 45120, Note_on_c, 9, 46, 64
8, 45139, Note_on_c, 9, 54, 59
8, 45168, Note_off_c, 9, 54, 0
8, 45222, Note_on_c, 9, 54, 50
8, 45267, Note_off_c, 9, 54, 0
8, 45312, Note_off_c, 9, 46, 0
8, 45312, Note_off_c, 9, 36, 0
8, 45312, Note_on_c, 9, 46, 61
8, 45315, Note_on_c, 9, 54, 79
8, 45382, Note_off_c, 9, 54, 0
8, 45414, Note_on_c, 9, 54, 48
8, 45468, Note_off_c, 9, 54, 0
8, 45504, Note_off_c, 9, 46, 0
8, 45504, Note_on_c, 9, 36, 100
8, 45504, Note_on_c, 9, 46, 61
8, 45516, Note_on_c, 9, 54, 56
8, 45568, Note_off_c, 9, 54, 0
8, 45600, Note_on_c, 9, 54, 52
8, 45651, Note_off_c, 9, 54, 0
8, 45696, Note_off_c, 9, 46, 0
8, 45696, Note_off_c, 9, 36, 0
8, 45696, Note_on_c, 9, 40, 117
8, 45696, Note_on_c, 9, 46, 74
8, 45708, Note_on_c, 9, 54, 87
8, 45779, Note_off_c, 9, 54, 0
8, 45801, Note_on_c, 9, 54, 50
8, 45856, Note_off_c, 9, 54, 0
8, 45888, Note_off_c, 9, 46, 0
8, 45888, Note_off_c, 9, 40, 0
8, 45888, Note_on_c, 9, 46, 61
8, 45904, Note_on_c, 9, 54, 51
8, 45955, Note_off_c, 9, 54, 0
8, 45996, Note_on_c, 9, 54, 47
8, 46044, Note_off_c, 9, 54, 0
8, 46080, Note_off_c, 9, 46, 0
8, 46080, Note_on_c, 9, 36, 109
8, 46080, Note_on_c, 9, 46, 70
8, 46089, Note_on_c, 9, 54, 74
8, 46156, Note_off_c, 9, 54, 0
8, 46172, Note_on_c, 9, 54, 50
8, 46227, Note_off_c, 9, 54, 0
8, 46272, Note_off_c, 9, 46, 0
8, 46272, Note_off_c, 9, 36, 0
8, 46272, Note_on_c, 9, 46, 66
8, 46278, Note_on_c, 9, 54, 53
8, 46326, Note_off_c, 9, 54, 0
8, 46364, Note_on_c, 9, 54, 48
8, 46412, Note_off_c, 9, 54, 0
8, 46464, Note_off_c, 9, 46, 0
8, 46464, Note_on_c, 9, 40, 117
8, 46464, Note_on_c, 9, 46, 64
8, 46473, Note_on_c, 9, 54, 85
8, 46547, Note_off_c, 9, 54, 0
8, 46560, Note_on_c, 9, 54, 54
8, 46656, Note_off_c, 9, 54, 0
8, 46656, Note_off_c, 9, 46, 0
8, 46656, Note_off_c, 9, 40, 0
8, 46656, Note_on_c, 9, 36, 99
8, 46656, Note_on_c, 9, 46, 68
8, 46675, Note_on_c, 9, 54, 50
8, 46713, Note_off_c, 9, 54, 0
8, 46758, Note_on_c, 9, 54, 47
8, 46803, Note_off_c, 9, 54, 0
8, 46848, Note_off_c, 9, 46, 0
8, 46848, Note_off_c, 9, 36, 0
8, 46848, Note_on_c, 9, 46, 74
8, 46851, Note_on_c, 9, 54, 66
8, 46902, Note_off_c, 9, 54, 0
8, 46934, Note_on_c, 9, 54, 47
8, 46988, Note_off_c, 9, 54, 0
8, 47040, Note_off_c, 9, 46, 0
8, 47040, Note_on_c, 9, 36, 95
8, 47040, Note_on_c, 9, 46, 68
8, 47043, Note_on_c, 9, 54, 47
8, 47091, Note_off_c, 9, 54, 0
8, 47145, Note_on_c, 9, 54, 47
8, 47190, Note_off_c, 9, 54, 0
8, 47232, Note_off_c, 9, 46, 0
8, 47232, Note_off_c, 9, 36, 0
8, 47232, Note_on_c, 9, 40, 117
8, 47232, Note_on_c, 9, 46, 72
8, 47238, Note_on_c, 9, 54, 87
8, 47308, Note_off_c, 9, 54, 0
8, 47328, Note_on_c, 9, 54, 54
8, 47424, Note_off_c, 9, 54, 0
8, 47424, Note_off_c, 9, 46, 0
8, 47424, Note_off_c, 9, 40, 0
8, 47424, Note_on_c, 9, 46, 61
8, 47436, Note_on_c, 9, 54, 52
8, 47484, Note_off_c, 9, 54, 0
8, 47516, Note_on_c, 9, 54, 48
8, 47564, Note_off_c, 9, 54, 0
8, 47612, Note_on_c, 9, 54, 74
8, 47616, Note_off_c, 9, 46, 0
8, 47616, Note_on_c, 9, 36, 102
8, 47616, Note_on_c, 9, 46, 72
8, 47676, Note_off_c, 9, 54, 0
8, 47715, Note_on_c, 9, 54, 52
8, 47760, Note_off_c, 9, 54, 0
8, 47808, Note_off_c, 9, 46, 0
8, 47808, Note_off_c, 9, 36, 0
8, 47808, Note_on_c, 9, 46, 60
8, 47817, Note_on_c, 9, 54, 50
8, 47868, Note_off_c, 9, 54, 0
8, 47913, Note_on_c, 9, 54, 50
8, 47948, Note_off_c, 9, 54, 0
8, 48000, Note_off_c, 9, 46, 0
8, 48000, Note_on_c, 9, 40, 117
8, 48000, Note_on_c, 9, 46, 66
8, 48012, Note_on_c, 9, 54, 87
8, 48083, Note_off_c, 9, 54, 0
8, 48108, Note_on_c, 9, 54, 56
8, 48147, Note_off_c, 9, 54, 0
8, 48192, Note_off_c, 9, 46, 0
8, 48192, Note_off_c, 9, 40, 0
8, 48192, Note_on_c, 9, 36, 95
8, 48192, Note_on_c, 9, 46, 66
8, 48211, Note_on_c, 9, 54, 56
8, 48256, Note_off_c, 9, 54, 0
8, 48304, Note_on_c, 9, 54, 50
8, 48339, Note_off_c, 9, 54, 0
8, 48384, Note_off_c, 9, 46, 0
8, 48384, Note_off_c, 9, 36, 0
8, 48384, Note_on_c, 9, 46, 66
8, 48387, Note_on_c, 9, 54, 85
8, 48451, Note_off_c, 9, 54, 0
8, 48480, Note_on_c, 9, 54, 54
8, 48576, Note_off_c, 9, 54, 0
8, 48576, Note_off_c, 9, 46, 0
8, 48576, Note_on_c, 9, 36, 95
8, 48576, Note_on_c, 9, 46, 74
8, 48579, Note_on_c, 9, 54, 57
8, 48627, Note_off_c, 9, 54, 0
8, 48675, Note_on_c, 9, 54, 53
8, 48713, Note_off_c, 9, 54, 0
8, 48761, Note_on_c, 9, 54, 87
8, 48768, Note_off_c, 9, 46, 0
8, 48768, Note_off_c, 9, 36, 0
8, 48768, Note_on_c, 9, 40, 117
8, 48768, Note_on_c, 9, 46, 87
8, 48835, Note_off_c, 9, 54, 0
8, 48864, Note_on_c, 9, 54, 55
8, 48902, Note_off_c, 9, 54, 0
8, 48953, Note_on_c, 9, 54, 59
8, 48960, Note_off_c, 9, 46, 0
8, 48960, Note_off_c, 9, 40, 0
8, 48960, Note_on_c, 9, 46, 74
8, 49004, Note_off_c, 9, 54, 0
8, 49046, Note_on_c, 9, 54, 56
8, 49088, Note_off_c, 9, 54, 0
8, 49152, Note_off_c, 9, 46, 0
8, 49152, Note_on_c, 9, 36, 96
8, 49152, Note_on_c, 9, 46, 62
8, 49161, Note_on_c, 9, 54, 82
8, 49212, Note_off_c, 9, 54, 0
8, 49260, Note_on_c, 9, 54, 46
8, 49308, Note_off_c, 9, 54, 0
8, 49344, Note_off_c, 9, 46, 0
8, 49344, Note_off_c, 9, 36, 0
8, 49344, Note_on_c, 9, 46, 53
8, 49350, Note_on_c, 9, 54, 54
8, 49395, Note_off_c, 9, 54, 0
8, 49440, Note_on_c, 9, 54, 54
8, 49536, Note_off_c, 9, 54, 0
8, 49536, Note_off_c, 9, 46, 0
8, 49536, Note_on_c, 9, 40, 117
8, 49536, Note_on_c, 9, 46, 72
8, 49539, Note_on_c, 9, 54, 87
8, 49596, Note_off_c, 9, 54, 0
8, 49635, Note_on_c, 9, 54, 49
8, 49692, Note_off_c, 9, 54, 0
8, 49728, Note_off_c, 9, 46, 0
8, 49728, Note_off_c, 9, 40, 0
8, 49728, Note_on_c, 9, 36, 103
8, 49728, Note_on_c, 9, 46, 64
8, 49747, Note_on_c, 9, 54, 59
8, 49776, Note_off_c, 9, 54, 0
8, 49830, Note_on_c, 9, 54, 50
8, 49875, Note_off_c, 9, 54, 0
8, 49920, Note_off_c, 9, 46, 0
8, 49920, Note_off_c, 9, 36, 0
8, 49920, Note_on_c, 9, 46, 61
8, 49923, Note_on_c, 9, 54, 79
8, 49990, Note_off_c, 9, 54, 0
8, 50022, Note_on_c, 9, 54, 48
8, 50076, Note_off_c, 9, 54, 0
8, 50112, Note_off_c, 9, 46, 0
8, 50112, Note_on_c, 9, 36, 100
8, 50112, Note_on_c, 9, 46, 61
8, 50124, Note_on_c, 9, 54, 56
8, 50176, Note_off_c, 9, 54, 0
8, 50208, Note_on_c, 9, 54, 52
8, 50259, Note_off_c, 9, 54, 0
8, 50304, Note_off_c, 9, 46, 0
8, 50304, Note_off_c, 9, 36, 0
8, 50304, Note_on_c, 9, 40, 117
8, 50304, Note_on_c, 9, 46, 74
8, 50316, Note_on_c, 9, 54, 87
8, 50387, Note_off_c, 9, 54, 0
8, 50409, Note_on_c, 9, 54, 50
8, 50464, Note_off_c, 9, 54, 0
8, 50496, Note_off_c, 9, 46, 0
8, 50496, Note_off_c, 9, 40, 0
8, 50496, Note_on_c, 9, 46, 61
8, 50512, Note_on_c, 9, 54, 51
8, 50563, Note_off_c, 9, 54, 0
8, 50604, Note_on_c, 9, 54, 47
8, 50652, Note_off_c, 9, 54, 0
8, 50688, Note_off_c, 9, 46, 0
8, 50688, Note_on_c, 9, 36, 109
8, 50688, Note_on_c, 9, 46, 70
8, 50697, Note_on_c, 9, 54, 74
8, 50764, Note_off_c, 9, 54, 0
8, 50780, Note_on_c, 9, 54, 50
8, 50835, Note_off_c, 9, 54, 0
8, 50880, Note_off_c, 9, 46, 0
8, 50880, Note_off_c, 9, 36, 0
8, 50880, Note_on_c, 9, 46, 66
8, 50886, Note_on_c, 9, 54, 53
8, 50934, Note_off_c, 9, 54, 0
8, 50972, Note_on_c, 9, 54, 48
8, 51020, Note_off_c, 9, 54, 0
8, 51072, Note_off_c, 9, 46, 0
8, 51072, Note_on_c, 9, 40, 117
8, 51072, Note_on_c, 9, 46, 64
8, 51081, Note_on_c, 9, 54, 85
8, 51155, Note_off_c, 9, 54, 0
8, 51168, Note_on_c, 9, 54, 54
8, 51264, Note_off_c, 9, 54, 0
8, 51264, Note_off_c, 9, 46, 0
8, 51264, Note_off_c, 9, 40, 0
8, 51264, Note_on_c, 9, 36, 99
8, 51264, Note_on_c, 9, 46, 68
8, 51283, Note_on_c, 9, 54, 50
8, 51321, Note_off_c, 9, 54, 0
8, 51366, Note_on_c, 9, 54, 47
8, 51411, Note_off_c, 9, 54, 0
8, 51456, Note_off_c, 9, 46, 0
8, 51456, Note_off_c, 9, 36, 0
8, 51456, Note_on_c, 9, 46, 74
8, 51459, Note_on_c, 9, 54, 66
8, 51510, Note_off_c, 9, 54, 0
8, 51542, Note_on_c, 9, 54, 47
8, 51596, Note_off_c, 9, 54, 0
8, 51648, Note_off_c, 9, 46, 0
8, 51648, Note_on_c, 9, 36, 95
8, 51648, Note_on_c, 9, 46, 68
8, 51651, Note_on_c, 9, 54, 47
8, 51699, Note_off_c, 9, 54, 0
8, 51753, Note_on_c, 9, 54, 47
8, 51798, Note_off_c, 9, 54, 0
8, 51840, Note_off_c, 9, 46, 0
8, 51840, Note_off_c, 9, 36, 0
8, 51840, Note_on_c, 9, 40, 117
8, 51840, Note_on_c, 9, 46, 72
8, 51846, Note_on_c, 9, 54, 87
8, 51916, Note_off_c, 9, 54, 0
8, 51936, Note_on_c, 9, 54, 54
8, 52032, Note_off_c, 9, 54, 0
8, 52032, Note_off_c, 9, 46, 0
8, 52032, Note_off_c, 9, 40, 0
8, 52032, Note_on_c, 9, 46, 61
8, 52044, Note_on_c, 9, 54, 52
8, 52092, Note_off_c, 9, 54, 0
8, 52124, Note_on_c, 9, 54, 48
8, 52172, Note_off_c, 9, 54, 0
8, 52220, Note_on_c, 9, 54, 74
8, 52224, Note_off_c, 9, 46, 0
8, 52224, Note_on_c, 9, 36, 102
8, 52224, Note_on_c, 9, 46, 72
8, 52284, Note_off_c, 9, 54, 0
8, 52323, Note_on_c, 9, 54, 52
8, 52368, Note_off_c, 9, 54, 0
8, 52416, Note_off_c, 9, 46, 0
8, 52416, Note_off_c, 9, 36, 0
8, 52416, Note_on_c, 9, 46, 60
8, 52425, Note_on_c, 9, 54, 50
8, 52476, Note_off_c, 9, 54, 0
8, 52521, Note_on_c, 9, 54, 50
8, 52556, Note_off_c, 9, 54, 0
8, 52608, Note_off_c, 9, 46, 0
8, 52608, Note_on_c, 9, 40, 117
8, 52608, Note_on_c, 9, 46, 66
8, 52620, Note_on_c, 9, 54, 87
8, 52691, Note_off_c, 9, 54, 0
8, 52716, Note_on_c, 9, 54, 56
8, 52755, Note_off_c, 9, 54, 0
8, 52800, Note_off_c, 9, 46, 0
8, 52800, Note_off_c, 9, 40, 0
8, 52800, Note_on_c, 9, 36, 95
8, 52800, Note_on_c, 9, 46, 66
8, 52819, Note_on_c, 9, 54, 56
8, 52864, Note_off_c, 9, 54, 0
8, 52912, Note_on_c, 9, 54, 50
8, 52947, Note_off_c, 9, 54, 0
8, 52992, Note_off_c, 9, 46, 0
8, 52992, Note_off_c, 9, 36, 0
8, 52992, Note_on_c, 9, 46, 66
8, 52995, Note_on_c, 9, 54, 85
8, 53059, Note_off_c, 9, 54, 0
8, 53088, Note_on_c, 9, 54, 54
8, 53184, Note_off_c, 9, 54, 0
8, 53184, Note_off_c, 9, 46, 0
8, 53184, Note_on_c, 9, 36, 95
8, 53184, Note_on_c, 9, 46, 74
8, 53187, Note_on_c, 9, 54, 57
8, 53235, Note_off_c, 9, 54, 0
8, 53283, Note_on_c, 9, 54, 53
8, 53321, Note_off_c, 9, 54, 0
8, 53369, Note_on_c, 9, 54, 87
8, 53376, Note_off_c, 9, 46, 0
8, 53376, Note_off_c, 9, 36, 0
8, 53376, Note_on_c, 9, 40, 117
8, 53376, Note_on_c, 9, 46, 87
8, 53443, Note_off_c, 9, 54, 0
8, 53472, Note_on_c, 9, 54, 55
8, 53510, Note_off_c, 9, 54, 0
8, 53561, Note_on_c, 9, 54, 59
8, 53568, Note_off_c, 9, 46, 0
8, 53568, Note_off_c, 9, 40, 0
8, 53568, Note_on_c, 9, 46, 74
8, 53612, Note_off_c, 9, 54, 0
8, 53654, Note_on_c, 9, 54, 56
8, 53696, Note_off_c, 9, 54, 0
8, 53760, Note_off_c, 9, 46, 0
8, 53760, Note_on_c, 9, 36, 96
8, 53760, Note_on_c, 9, 46, 62
8, 53769, Note_on_c, 9, 54, 82
8, 53820, Note_off_c, 9, 54, 0
8, 53868, Note_on_c, 9, 54, 46
8, 53916, Note_off_c, 9, 54, 0
8, 53952, Note_off_c, 9, 46, 0
8, 53952, Note_off_c, 9, 36, 0
8, 53952, Note_on_c, 9, 46, 53
8, 53958, Note_on_c, 9, 54, 54
8, 54003, Note_off_c, 9, 54, 0
8, 54048, Note_on_c, 9, 54, 54
8, 54144, Note_off_c, 9, 54, 0
8, 54144, Note_off_c, 9, 46, 0
8, 54144, Note_on_c, 9, 40, 117
8, 54144, Note_on_c, 9, 46, 72
8, 54147, Note_on_c, 9, 54, 87
8, 54204, Note_off_c, 9, 54, 0
8, 54243, Note_on_c, 9, 54, 49
8, 54300, Note_off_c, 9, 54, 0
8, 54336, Note_off_c, 9, 46, 0
8, 54336, Note_off_c, 9, 40, 0
8, 54336, Note_on_c, 9, 36, 103
8, 54336, Note_on_c, 9, 46, 64
8, 54355, Note_on_c, 9, 54, 59
8, 54384, Note_off_c, 9, 54, 0
8, 54438, Note_on_c, 9, 54, 50
8, 54483, Note_off_c, 9, 54, 0
8, 54528, Note_off_c, 9, 46, 0
8, 54528, Note_off_c, 9, 36, 0
8, 54528, Note_on_c, 9, 46, 61
8, 54531, Note_on_c, 9, 54, 79
8, 54598, Note_off_c, 9, 54, 0
8, 54630, Note_on_c, 9, 54, 48
8, 54684, Note_off_c, 9, 54, 0
8, 54720, Note_off_c, 9, 46, 0
8, 54720, Note_on_c, 9, 36, 100
8, 54720, Note_on_c, 9, 46, 61
8, 54732, Note_on_c, 9, 54, 56
8, 54784, Note_off_c, 9, 54, 0
8, 54816, Note_on_c, 9, 54, 52
8, 54867, Note_off_c, 9, 54, 0
8, 54912, Note_off_c, 9, 46, 0
8, 54912, Note_off_c, 9, 36, 0
8, 54912, Note_on_c, 9, 40, 117
8, 54912, Note_on_c, 9, 46, 74
8, 54924, Note_on_c, 9, 54, 87
8, 54995, Note_off_c, 9, 54, 0
8, 55017, Note_on_c, 9, 54, 50
8, 55072, Note_off_c, 9, 54, 0
8, 55104, Note_off_c, 9, 46, 0
8, 55104, Note_off_c, 9, 40, 0
8, 55104, Note_on_c, 9, 46, 61
8, 55120, Note_on_c, 9, 54, 51
8, 55171, Note_off_c, 9, 54, 0
8, 55212, Note_on_c, 9, 54, 47
8, 55260, Note_off_c, 9, 54, 0
8, 55296, Note_off_c, 9, 46, 0
8, 55296, Note_on_c, 9, 36, 109
8, 55296, Note_on_c, 9, 46, 70
8, 55296, Note_on_c, 9, 49, 65
8, 55305, Note_on_c, 9, 54, 74
8, 55372, Note_off_c, 9, 54, 0
8, 55388, Note_on_c, 9, 54, 50
8, 55443, Note_off_c, 9, 54, 0
8, 55488, Note_off_c, 9, 46, 0
8, 55488, Note_off_c, 9, 36, 0
8, 55488, Note_on_c, 9, 46, 66
8, 55494, Note_on_c, 9, 54, 53
8, 55542, Note_off_c, 9, 54, 0
8, 55580, Note_on_c, 9, 54, 48
8, 55628, Note_off_c, 9, 54, 0
8, 55680, Note_off_c, 9, 46, 0
8, 55680, Note_on_c, 9, 40, 117
8, 55680, Note_on_c, 9, 46, 64
8, 55689, Note_on_c, 9, 54, 85
8, 55763, Note_off_c, 9, 54, 0
8, 55776, Note_on_c, 9, 54, 54
8, 55872, Note_off_c, 9, 54, 0
8, 55872, Note_off_c, 9, 46, 0
8, 55872, Note_off_c, 9, 40, 0
8, 55872, Note_on_c, 9, 36, 99
8, 55872, Note_on_c, 9, 46, 68
8, 55891, Note_on_c, 9, 54, 50
8, 55929, Note_off_c, 9, 54, 0
8, 55974, Note_on_c, 9, 54, 47
8, 56019, Note_off_c, 9, 54, 0
8, 56064, Note_off_c, 9, 46, 0
8, 56064, Note_off_c, 9, 36, 0
8, 56064, Note_off_c, 9, 49, 0
8, 56064, Note_on_c, 9, 46, 74
8, 56067, Note_on_c, 9, 54, 66
8, 56118, Note_off_c, 9, 54, 0
8, 56150, Note_on_c, 9, 54, 47
8, 56204, Note_off_c, 9, 54, 0
8, 56256, Note_off_c, 9, 46, 0
8, 56256, Note_on_c, 9, 36, 95
8, 56256, Note_on_c, 9, 46, 68
8, 56259, Note_on_c, 9, 54, 47
8, 56307, Note_off_c, 9, 54, 0
8, 56361, Note_on_c, 9, 54, 47
8, 56406, Note_off_c, 9, 54, 0
8, 56448, Note_off_c, 9, 46, 0
8, 56448, Note_off_c, 9, 36, 0
8, 56448, Note_on_c, 9, 40, 117
8, 56448, Note_on_c, 9, 46, 72
8, 56454, Note_on_c, 9, 54, 87
8, 56524, Note_off_c, 9, 54, 0
8, 56544, Note_on_c, 9, 54, 54
8, 56640, Note_off_c, 9, 54, 0
8, 56640, Note_off_c, 9, 46, 0
8, 56640, Note_off_c, 9, 40, 0
8, 56640, Note_on_c, 9, 46, 61
8, 56652, Note_on_c, 9, 54, 52
8, 56700, Note_off_c, 9, 54, 0
8, 56732, Note_on_c, 9, 54, 48
8, 56780, Note_off_c, 9, 54, 0
8, 56828, Note_on_c, 9, 54, 74
8, 56832, Note_off_c, 9, 46, 0
8, 56832, Note_on_c, 9, 36, 102
8, 56832, Note_on_c, 9, 46, 72
8, 56892, Note_off_c, 9, 54, 0
8, 56931, Note_on_c, 9, 54, 52
8, 56976, Note_off_c, 9, 54, 0
8, 57024, Note_off_c, 9, 46, 0
8, 57024, Note_off_c, 9, 36, 0
8, 57024, Note_on_c, 9, 46, 60
8, 57033, Note_on_c, 9, 54, 50
8, 57084, Note_off_c, 9, 54, 0
8, 57129, Note_on_c, 9, 54, 50
8, 57164, Note_off_c, 9, 54, 0
8, 57216, Note_off_c, 9, 46, 0
8, 57216, Note_on_c, 9, 40, 117
8, 57216, Note_on_c, 9, 46, 66
8, 57228, Note_on_c, 9, 54, 87
8, 57299, Note_off_c, 9, 54, 0
8, 57324, Note_on_c, 9, 54, 56
8, 57363, Note_off_c, 9, 54, 0
8, 57408, Note_off_c, 9, 46, 0
8, 57408, Note_off_c, 9, 40, 0
8, 57408, Note_on_c, 9, 36, 95
8, 57408, Note_on_c, 9, 46, 66
8, 57427, Note_on_c, 9, 54, 56
8, 57472, Note_off_c, 9, 54, 0
8, 57520, Note_on_c, 9, 54, 50
8, 57555, Note_off_c, 9, 54, 0
8, 57600, Note_off_c, 9, 46, 0
8, 57600, Note_off_c, 9, 36, 0
8, 57600, Note_on_c, 9, 46, 66
8, 57603, Note_on_c, 9, 54, 85
8, 57667, Note_off_c, 9, 54, 0
8, 57696, Note_on_c, 9, 54, 54
8, 57792, Note_off_c, 9, 54, 0
8, 57792, Note_off_c, 9, 46, 0
8, 57792, Note_on_c, 9, 36, 95
8, 57792, Note_on_c, 9, 46, 74
8, 57795, Note_on_c, 9, 54, 57
8, 57843, Note_off_c, 9, 54, 0
8, 57891, Note_on_c, 9, 54, 53
8, 57929, Note_off_c, 9, 54, 0
8, 57977, Note_on_c, 9, 54, 87
8, 57984, Note_off_c, 9, 46, 0
8, 57984, Note_off_c, 9, 36, 0
8, 57984, Note_on_c, 9, 40, 117
8, 57984, Note_on_c, 9, 46, 87
8, 58051, Note_off_c, 9, 54, 0
8, 58080, Note_on_c, 9, 54, 55
8, 58118, Note_off_c, 9, 54, 0
8, 58169, Note_on_c, 9, 54, 59
8, 58176, Note_off_c, 9, 46, 0
8, 58176, Note_off_c, 9, 40, 0
8, 58176, Note_on_c, 9, 46, 74
8, 58220, Note_off_c, 9, 54, 0
8, 58262, Note_on_c, 9, 54, 56
8, 58304, Note_off_c, 9, 54, 0
8, 58368, Note_off_c, 9, 46, 0
8, 58368, Note_on_c, 9, 36, 96
8, 58368, Note_on_c, 9, 46, 62
8, 58377, Note_on_c, 9, 54, 82
8, 58428, Note_off_c, 9, 54, 0
8, 58476, Note_on_c, 9, 54, 46
8, 58524, Note_off_c, 9, 54, 0
8, 58560, Note_off_c, 9, 46, 0
8, 58560, Note_off_c, 9, 36, 0
8, 58560, Note_on_c, 9, 46, 53
8, 58566, Note_on_c, 9, 54, 54
8, 58611, Note_off_c, 9, 54, 0
8, 58656, Note_on_c, 9, 54, 54
8, 58752, Note_off_c, 9, 54, 0
8, 58752, Note_off_c, 9, 46, 0
8, 58752, Note_on_c, 9, 40, 117
8, 58752, Note_on_c, 9, 46, 72
8, 58755, Note_on_c, 9, 54, 87
8, 58812, Note_off_c, 9, 54, 0
8, 58851, Note_on_c, 9, 54, 49
8, 58908, Note_off_c, 9, 54, 0
8, 58944, Note_off_c, 9, 46, 0
8, 58944, Note_off_c, 9, 40, 0
8, 58944, Note_on_c, 9, 36, 103
8, 58944, Note_on_c, 9, 46, 64
8, 58963, Note_on_c, 9, 54, 59
8, 58992, Note_off_c, 9, 54, 0
8, 59046, Note_on_c, 9, 54, 50
8, 59091, Note_off_c, 9, 54, 0
8, 59136, Note_off_c, 9, 46, 0
8, 59136, Note_off_c, 9, 36, 0
8, 59136, Note_on_c, 9, 46, 61
8, 59139, Note_on_c, 9, 54, 79
8, 59206, Note_off_c, 9, 54, 0
8, 59238, Note_on_c, 9, 54, 48
8, 59292, Note_off_c, 9, 54, 0
8, 59328, Note_off_c, 9, 46, 0
8, 59328, Note_on_c, 9, 36, 100
8, 59328, Note_on_c, 9, 46, 61
8, 59340, Note_on_c, 9, 54, 56
8, 59392, Note_off_c, 9, 54, 0
8, 59424, Note_on_c, 9, 54, 52
8, 59475, Note_off_c, 9, 54, 0
8, 59520, Note_off_c, 9, 46, 0
8, 59520, Note_off_c, 9, 36, 0
8, 59520, Note_on_c, 9, 40, 117
8, 59520, Note_on_c, 9, 46, 74
8, 59532, Note_on_c, 9, 54, 87
8, 59603, Note_off_c, 9, 54, 0
8, 59625, Note_on_c, 9, 54, 50
8, 59680, Note_off_c, 9, 54, 0
8, 59712, Note_off_c, 9, 46, 0
8, 59712, Note_off_c, 9, 40, 0
8, 59712, Note_on_c, 9, 46, 61
8, 59728, Note_on_c, 9, 54, 51
8, 59779, Note_off_c, 9, 54, 0
8, 59820, Note_on_c, 9, 54, 47
8, 59868, Note_off_c, 9, 54, 0
8, 59904, Note_off_c, 9, 46, 0
8, 59904, Note_on_c, 9, 36, 109
8, 59904, Note_on_c, 9, 46, 70
8, 59913, Note_on_c, 9, 54, 74
8, 59980, Note_off_c, 9, 54, 0
8, 59996, Note_on_c, 9, 54, 50
8, 60051, Note_off_c, 9, 54, 0
8, 60096, Note_off_c, 9, 46, 0
8, 60096, Note_off_c, 9, 36, 0
8, 60096, Note_on_c, 9, 46, 66
8, 60102, Note_on_c, 9, 54, 53
8, 60150, Note_off_c, 9, 54, 0
8, 60188, Note_on_c, 9, 54, 48
8, 60236, Note_off_c, 9, 54, 0
8, 60288, Note_off_c, 9, 46, 0
8, 60288, Note_on_c, 9, 40, 117
8, 60288, Note_on_c, 9, 46, 64
8, 60297, Note_on_c, 9, 54, 85
8, 60371, Note_off_c, 9, 54, 0
8, 60384, Note_on_c, 9, 54, 54
8, 60480, Note_off_c, 9, 54, 0
8, 60480, Note_off_c, 9, 46, 0
8, 60480, Note_off_c, 9, 40, 0
8, 60480, Note_on_c, 9, 36, 99
8, 60480, Note_on_c, 9, 46, 68
8, 60499, Note_on_c, 9, 54, 50
8, 60537, Note_off_c, 9, 54, 0
8, 60582, Note_on_c, 9, 54, 47
8, 60627, Note_off_c, 9, 54, 0
8, 60672, Note_off_c, 9, 46, 0
8, 60672, Note_off_c, 9, 36, 0
8, 60672, Note_on_c, 9, 46, 74
8, 60675, Note_on_c, 9, 54, 66
8, 60726, Note_off_c, 9, 54, 0
8, 60758, Note_on_c, 9, 54, 47
8, 60812, Note_off_c, 9, 54, 0
8, 60864, Note_off_c, 9, 46, 0
8, 60864, Note_on_c, 9, 36, 95
8, 60864, Note_on_c, 9, 46, 68
8, 60867, Note_on_c, 9, 54, 47
8, 60915, Note_off_c, 9, 54, 0
8, 60969, Note_on_c, 9, 54, 47
8, 61014, Note_off_c, 9, 54, 0
8, 61056, Note_off_c, 9, 46, 0
8, 61056, Note_off_c, 9, 36, 0
8, 61056, Note_on_c, 9, 40, 117
8, 61056, Note_on_c, 9, 46, 72
8, 61062, Note_on_c, 9, 54, 87
8, 61132, Note_off_c, 9, 54, 0
8, 61152, Note_on_c, 9, 54, 54
8, 61248, Note_off_c, 9, 54, 0
8, 61248, Note_off_c, 9, 46, 0
8, 61248, Note_off_c, 9, 40, 0
8, 61248, Note_on_c, 9, 46, 61
8, 61260, Note_on_c, 9, 54, 52
8, 61308, Note_off_c, 9, 54, 0
8, 61340, Note_on_c, 9, 54, 48
8, 61388, Note_off_c, 9, 54, 0
8, 61436, Note_on_c, 9, 54, 74
8, 61440, Note_off_c, 9, 46, 0
8, 61440, Note_on_c, 9, 36, 102
8, 61440, Note_on_c, 9, 46, 72
8, 61440, Note_on_c, 9, 49, 67
8, 61500, Note_off_c, 9, 54, 0
8, 61539, Note_on_c, 9, 54, 52
8, 61584, Note_off_c, 9, 54, 0
8, 61632, Note_off_c, 9, 46, 0
8, 61632, Note_off_c, 9, 36, 0
8, 61632, Note_on_c, 9, 46, 60
8, 61641, Note_on_c, 9, 54, 50
8, 61692, Note_off_c, 9, 54, 0
8, 61737, Note_on_c, 9, 54, 50
8, 61772, Note_off_c, 9, 54, 0
8, 61824, Note_off_c, 9, 46, 0
8, 61824, Note_on_c, 9, 40, 117
8, 61824, Note_on_c, 9, 46, 66
8, 61836, Note_on_c, 9, 54, 87
8, 61907, Note_off_c, 9, 54, 0
8, 61932, Note_on_c, 9, 54, 56
8, 61971, Note_off_c, 9, 54, 0
8, 62016, Note_off_c, 9, 46, 0
8, 62016, Note_off_c, 9, 40, 0
8, 62016, Note_on_c, 9, 36, 95
8, 62016, Note_on_c, 9, 46, 66
8, 62035, Note_on_c, 9, 54, 56
8, 62080, Note_off_c, 9, 54, 0
8, 62128, Note_on_c, 9, 54, 50
8, 62163, Note_off_c, 9, 54, 0
8, 62208, Note_off_c, 9, 46, 0
8, 62208, Note_off_c, 9, 36, 0
8, 62208, Note_off_c, 9, 49, 0
8, 62208, Note_on_c, 9, 46, 66
8, 62211, Note_on_c, 9, 54, 85
8, 62275, Note_off_c, 9, 54, 0
8, 62304, Note_on_c, 9, 54, 54
8, 62400, Note_off_c, 9, 54, 0
8, 62400, Note_off_c, 9, 46, 0
8, 62400, Note_on_c, 9, 36, 95
8, 62400, Note_on_c, 9, 46, 74
8, 62403, Note_on_c, 9, 54, 57
8, 62451, Note_off_c, 9, 54, 0
8, 62499, Note_on_c, 9, 54, 53
8, 62537, Note_off_c, 9, 54, 0
8, 62585, Note_on_c, 9, 54, 87
8, 62592, Note_off_c, 9, 46, 0
8, 62592, Note_off_c, 9, 36, 0
8, 62592, Note_on_c, 9, 40, 117
8, 62592, Note_on_c, 9, 46, 87
8, 62659, Note_off_c, 9, 54, 0
8, 62688, Note_on_c, 9, 54, 55
8, 62726, Note_off_c, 9, 54, 0
8, 62777, Note_on_c, 9, 54, 59
8, 62784, Note_off_c, 9, 46, 0
8, 62784, Note_off_c, 9, 40, 0
8, 62784, Note_on_c, 9, 46, 74
8, 62828, Note_off_c, 9, 54, 0
8, 62870, Note_on_c, 9, 54, 56
8, 62912, Note_off_c, 9, 54, 0
8, 62976, Note_off_c, 9, 46, 0
8, 62976, Note_on_c, 9, 36, 96
8, 62976, Note_on_c, 9, 46, 62
8, 62985, Note_on_c, 9, 54, 82
8, 63036, Note_off_c, 9, 54, 0
8, 63084, Note_on_c, 9, 54, 46
8, 63132, Note_off_c, 9, 54, 0
8, 63168, Note_off_c, 9, 46, 0
8, 63168, Note_off_c, 9, 36, 0
8, 63168, Note_on_c, 9, 46, 53
8, 63174, Note_on_c, 9, 54, 54
8, 63219, Note_off_c, 9, 54, 0
8, 63264, Note_on_c, 9, 54, 54
8, 63360, Note_off_c, 9, 54, 0
8, 63360, Note_off_c, 9, 46, 0
8, 63360, Note_on_c, 9, 40, 117
8, 63360, Note_on_c, 9, 46, 72
8, 63363, Note_on_c, 9, 54, 87
8, 63420, Note_off_c, 9, 54, 0
8, 63459, Note_on_c, 9, 54, 49
8, 63516, Note_off_c, 9, 54, 0
8, 63552, Note_off_c, 9, 46, 0
8, 63552, Note_off_c, 9, 40, 0
8, 63552, Note_on_c, 9, 36, 103
8, 63552, Note_on_c, 9, 46, 64
8, 63571, Note_on_c, 9, 54, 59
8, 63600, Note_off_c, 9, 54, 0
8, 63654, Note_on_c, 9, 54, 50
8, 63699, Note_off_c, 9, 54, 0
8, 63744, Note_off_c, 9, 46, 0
8, 63744, Note_off_c, 9, 36, 0
8, 63744, Note_on_c, 9, 46, 61
8, 63747, Note_on_c, 9, 54, 79
8, 63814, Note_off_c, 9, 54, 0
8, 63846, Note_on_c, 9, 54, 48
8, 63900, Note_off_c, 9, 54, 0
8, 63936, Note_off_c, 9, 46, 0
8, 63936, Note_on_c, 9, 36, 100
8, 63936, Note_on_c, 9, 46, 61
8, 63948, Note_on_c, 9, 54, 56
8, 64000, Note_off_c, 9, 54, 0
8, 64032, Note_on_c, 9, 54, 52
8, 64083, Note_off_c, 9, 54, 0
8, 64128, Note_off_c, 9, 46, 0
8, 64128, Note_off_c, 9, 36, 0
8, 64128, Note_on_c, 9, 40, 117
8, 64128, Note_on_c, 9, 46, 74
8, 64140, Note_on_c, 9, 54, 87
8, 64211, Note_off_c, 9, 54, 0
8, 64233, Note_on_c, 9, 54, 50
8, 64288, Note_off_c, 9, 54, 0
8, 64320, Note_off_c, 9, 46, 0
8, 64320, Note_off_c, 9, 40, 0
8, 64320, Note_on_c, 9, 46, 61
8, 64336, Note_on_c, 9, 54, 51
8, 64387, Note_off_c, 9, 54, 0
8, 64428, Note_on_c, 9, 54, 47
8, 64476, Note_off_c, 9, 54, 0
8, 64512, Note_off_c, 9, 46, 0
8, 64512, Note_on_c, 9, 36, 109
8, 64512, Note_on_c, 9, 46, 70
8, 64521, Note_on_c, 9, 54, 74
8, 64588, Note_off_c, 9, 54, 0
8, 64604, Note_on_c, 9, 54, 50
8, 64659, Note_off_c, 9, 54, 0
8, 64704, Note_off_c, 9, 46, 0
8, 64704, Note_off_c, 9, 36, 0
8, 64704, Note_on_c, 9, 46, 66
8, 64710, Note_on_c, 9, 54, 53
8, 64758, Note_off_c, 9, 54, 0
8, 64796, Note_on_c, 9, 54, 48
8, 64844, Note_off_c, 9, 54, 0
8, 64896, Note_off_c, 9, 46, 0
8, 64896, Note_on_c, 9, 40, 117
8, 64896, Note_on_c, 9, 46, 64
8, 64905, Note_on_c, 9, 54, 85
8, 64979, Note_off_c, 9, 54, 0
8, 64992, Note_on_c, 9, 54, 54
8, 65088, Note_off_c, 9, 54, 0
8, 65088, Note_off_c, 9, 46, 0
8, 65088, Note_off_c, 9, 40, 0
8, 65088, Note_on_c, 9, 36, 99
8, 65088, Note_on_c, 9, 46, 68
8, 65107, Note_on_c, 9, 54, 50
8, 65145, Note_off_c, 9, 54, 0
8, 65190, Note_on_c, 9, 54, 47
8, 65235, Note_off_c, 9, 54, 0
8, 65280, Note_off_c, 9, 46, 0
8, 65280, Note_off_c, 9, 36, 0
8, 65280, Note_on_c, 9, 46, 74
8, 65283, Note_on_c, 9, 54, 66
8, 65334, Note_off_c, 9, 54, 0
8, 65366, Note_on_c, 9, 54, 47
8, 65420, Note_off_c, 9, 54, 0
8, 65472, Note_off_c, 9, 46, 0
8, 65472, Note_on_c, 9, 36, 95
8, 65472, Note_on_c, 9, 46, 68
8, 65475, Note_on_c, 9, 54, 47
8, 65523, Note_off_c, 9, 54, 0
8, 65577, Note_on_c, 9, 54, 47
8, 65622, Note_off_c, 9, 54, 0
8, 65664, Note_off_c, 9, 46, 0
8, 65664, Note_off_c, 9, 36, 0
8, 65664, Note_on_c, 9, 40, 117
8, 65664, Note_on_c, 9, 46, 72
8, 65670, Note_on_c, 9, 54, 87
8, 65740, Note_off_c, 9, 54, 0
8, 65760, Note_on_c, 9, 54, 54
8, 65856, Note_off_c, 9, 54, 0
8, 65856, Note_off_c, 9, 46, 0
8, 65856, Note_off_c, 9, 40, 0
8, 65856, Note_on_c, 9, 46, 61
8, 65868, Note_on_c, 9, 54, 52
8, 65916, Note_off_c, 9, 54, 0
8, 65948, Note_on_c, 9, 54, 48
8, 65996, Note_off_c, 9, 54, 0
8, 66044, Note_on_c, 9, 54, 74
8, 66048, Note_off_c, 9, 46, 0
8, 66048, Note_on_c, 9, 36, 102
8, 66048, Note_on_c, 9, 46, 72
8, 66108, Note_off_c, 9, 54, 0
8, 66147, Note_on_c, 9, 54, 52
8, 66192, Note_off_c, 9, 54, 0
8, 66240, Note_off_c, 9, 46, 0
8, 66240, Note_off_c, 9, 36, 0
8, 66240, Note_on_c, 9, 46, 60
8, 66249, Note_on_c, 9, 54, 50
8, 66300, Note_off_c, 9, 54, 0
8, 66345, Note_on_c, 9, 54, 50
8, 66380, Note_off_c, 9, 54, 0
8, 66432, Note_off_c, 9, 46, 0
8, 66432, Note_on_c, 9, 40, 117
8, 66432, Note_on_c, 9, 46, 66
8, 66444, Note_on_c, 9, 54, 87
8, 66515, Note_off_c, 9, 54, 0
8, 66540, Note_on_c, 9, 54, 56
8, 66579, Note_off_c, 9, 54, 0
8, 66624, Note_off_c, 9, 46, 0
8, 66624, Note_off_c, 9, 40, 0
8, 66624, Note_on_c, 9, 36, 95
8, 66624, Note_on_c, 9, 46, 66
8, 66643, Note_on_c, 9, 54, 56
8, 66688, Note_off_c, 9, 54, 0
8, 66736, Note_on_c, 9, 54, 50
8, 66771, Note_off_c, 9, 54, 0
8, 66816, Note_off_c, 9, 46, 0
8, 66816, Note_off_c, 9, 36, 0
8, 66816, Note_on_c, 9, 46, 66
8, 66819, Note_on_c, 9, 54, 85
8, 66883, Note_off_c, 9, 54, 0
8, 66912, Note_on_c, 9, 54, 54
8, 67008, Note_off_c, 9, 54, 0
8, 67008, Note_off_c, 9, 46, 0
8, 67008, Note_on_c, 9, 36, 95
8, 67008, Note_on_c, 9, 46, 74
8, 67011, Note_on_c, 9, 54, 57
8, 67059, Note_off_c, 9, 54, 0
8, 67107, Note_on_c, 9, 54, 53
8, 67145, Note_off_c, 9, 54, 0
8, 67193, Note_on_c, 9, 54, 87
8, 67200, Note_off_c, 9, 46, 0
8, 67200, Note_off_c, 9, 36, 0
8, 67200, Note_on_c, 9, 40, 117
8, 67200, Note_on_c, 9, 46, 87
8, 67267, Note_off_c, 9, 54, 0
8, 67296, Note_on_c, 9, 54, 55
8, 67334, Note_off_c, 9, 54, 0
8, 67385, Note_on_c, 9, 54, 59
8, 67392, Note_off_c, 9, 46, 0
8, 67392, Note_off_c, 9, 40, 0
8, 67392, Note_on_c, 9, 46, 74
8, 67436, Note_off_c, 9, 54, 0
8, 67478, Note_on_c, 9, 54, 56
8, 67520, Note_off_c, 9, 54, 0
8, 67584, Note_off_c, 9, 46, 0
8, 67584, Note_on_c, 9, 36, 96
8, 67584, Note_on_c, 9, 46, 62
8, 67584, Note_on_c, 9, 49, 76
8, 67593, Note_on_c, 9, 54, 82
8, 67644, Note_off_c, 9, 54, 0
8, 67692, Note_on_c, 9, 54, 46
8, 67740, Note_off_c, 9, 54, 0
8, 67776, Note_off_c, 9, 46, 0
8, 67776, Note_off_c, 9, 36, 0
8, 67776, Note_on_c, 9, 46, 53
8, 67782, Note_on_c, 9, 54, 54
8, 67827, Note_off_c, 9, 54, 0
8, 67872, Note_on_c, 9, 54, 54
8, 67968, Note_off_c, 9, 54, 0
8, 67968, Note_off_c, 9, 46, 0
8, 67968, Note_on_c, 9, 40, 117
8, 67968, Note_on_c, 9, 46, 72
8, 67971, Note_on_c, 9, 54, 87
8, 68028, Note_off_c, 9, 54, 0
8, 68067, Note_on_c, 9, 54, 49
8, 68124, Note_off_c, 9, 54, 0
8, 68160, Note_off_c, 9, 46, 0
8, 68160, Note_off_c, 9, 40, 0
8, 68160, Note_off_c, 9, 49, 0
8, 68160, Note_on_c, 9, 36, 103
8, 68160, Note_on_c, 9, 46, 64
8, 68179, Note_on_c, 9, 54, 59
8, 68208, Note_off_c, 9, 54, 0
8, 68262, Note_on_c, 9, 54, 50
8, 68307, Note_off_c, 9, 54, 0
8, 68352, Note_off_c, 9, 46, 0
8, 68352, Note_off_c, 9, 36, 0
8, 68352, Note_on_c, 9, 46, 61
8, 68355, Note_on_c, 9, 54, 79
8, 68422, Note_off_c, 9, 54, 0
8, 68454, Note_on_c, 9, 54, 48
8, 68508, Note_off_c, 9, 54, 0
8, 68544, Note_off_c, 9, 46, 0
8, 68544, Note_on_c, 9, 36, 100
8, 68544, Note_on_c, 9, 46, 61
8, 68556, Note_on_c, 9, 54, 56
8, 68608, Note_off_c, 9, 54, 0
8, 68640, Note_on_c, 9, 54, 52
8, 68691, Note_off_c, 9, 54, 0
8, 68736, Note_off_c, 9, 46, 0
8, 68736, Note_off_c, 9, 36, 0
8, 68736, Note_on_c, 9, 40, 117
8, 68736, Note_on_c, 9, 46, 74
8, 68748, Note_on_c, 9, 54, 87
8, 68819, Note_off_c, 9, 54, 0
8, 68841, Note_on_c, 9, 54, 50
8, 68896, Note_off_c, 9, 54, 0
8, 68928, Note_off_c, 9, 46, 0
8, 68928, Note_off_c, 9, 40, 0
8, 68928, Note_on_c, 9, 46, 61
8, 68944, Note_on_c, 9, 54, 51
8, 68995, Note_off_c, 9, 54, 0
8, 69036, Note_on_c, 9, 54, 47
8, 69084, Note_off_c, 9, 54, 0
8, 69120, Note_off_c, 9, 46, 0
8, 69120, Note_on_c, 9, 36, 109
8, 69120, Note_on_c, 9, 46, 70
8, 69129, Note_on_c, 9, 54, 74
8, 69196, Note_off_c, 9, 54, 0
8, 69212, Note_on_c, 9, 54, 50
8, 69267, Note_off_c, 9, 54, 0
8, 69312, Note_off_c, 9, 46, 0
8, 69312, Note_off_c, 9, 36, 0
8, 69312, Note_on_c, 9, 46, 66
8, 69318, Note_on_c, 9, 54, 53
8, 69366, Note_off_c, 9, 54, 0
8, 69404, Note_on_c, 9, 54, 48
8, 69452, Note_off_c, 9, 54, 0
8, 69504, Note_off_c, 9, 46, 0
8, 69504, Note_on_c, 9, 40, 117
8, 69504, Note_on_c, 9, 46, 64
8, 69513, Note_on_c, 9, 54, 85
8, 69587, Note_off_c, 9, 54, 0
8, 69600, Note_on_c, 9, 54, 54
8, 69696, Note_off_c, 9, 54, 0
8, 69696, Note_off_c, 9, 46, 0
8, 69696, Note_off_c, 9, 40, 0
8, 69696, Note_on_c, 9, 36, 99
8, 69696, Note_on_c, 9, 46, 68
8, 69715, Note_on_c, 9, 54, 50
8, 69753, Note_off_c, 9, 54, 0
8, 69798, Note_on_c, 9, 54, 47
8, 69843, Note_off_c, 9, 54, 0
8, 69888, Note_off_c, 9, 46, 0
8, 69888, Note_off_c, 9, 36, 0
8, 69888, Note_on_c, 9, 46, 74
8, 69891, Note_on_c, 9, 54, 66
8, 69942, Note_off_c, 9, 54, 0
8, 69974, Note_on_c, 9, 54, 47
8, 70028, Note_off_c, 9, 54, 0
8, 70080, Note_off_c, 9, 46, 0
8, 70080, Note_on_c, 9, 36, 95
8, 70080, Note_on_c, 9, 46, 68
8, 70083, Note_on_c, 9, 54, 47
8, 70131, Note_off_c, 9, 54, 0
8, 70185, Note_on_c, 9, 54, 47
8, 70230, Note_off_c, 9, 54, 0
8, 70272, Note_off_c, 9, 46, 0
8, 70272, Note_off_c, 9, 36, 0
8, 70272, Note_on_c, 9, 40, 117
8, 70272, Note_on_c, 9, 46, 72
8, 70278, Note_on_c, 9, 54, 87
8, 70348, Note_off_c, 9, 54, 0
8, 70368, Note_on_c, 9, 54, 54
8, 70464, Note_off_c, 9, 54, 0
8, 70464, Note_off_c, 9, 46, 0
8, 70464, Note_off_c, 9, 40, 0
8, 70464, Note_on_c, 9, 46, 61
8, 70476, Note_on_c, 9, 54, 52
8, 70524, Note_off_c, 9, 54, 0
8, 70556, Note_on_c, 9, 54, 48
8, 70604, Note_off_c, 9, 54, 0
8, 70652, Note_on_c, 9, 54, 74
8, 70656, Note_off_c, 9, 46, 0
8, 70656, Note_on_c, 9, 36, 102
8, 70656, Note_on_c, 9, 46, 72
8, 70716, Note_off_c, 9, 54, 0
8, 70755, Note_on_c, 9, 54, 52
8, 70800, Note_off_c, 9, 54, 0
8, 70848, Note_off_c, 9, 46, 0
8, 70848, Note_off_c, 9, 36, 0
8, 70848, Note_on_c, 9, 46, 60
8, 70857, Note_on_c, 9, 54, 50
8, 70908, Note_off_c, 9, 54, 0
8, 70953, Note_on_c, 9, 54, 50
8, 70988, Note_off_c, 9, 54, 0
8, 71040, Note_off_c, 9, 46, 0
8, 71040, Note_on_c, 9, 40, 117
8, 71040, Note_on_c, 9, 46, 66
8, 71052, Note_on_c, 9, 54, 87
8, 71123, Note_off_c, 9, 54, 0
8, 71148, Note_on_c, 9, 54, 56
8, 71187, Note_off_c, 9, 54, 0
8, 71232, Note_off_c, 9, 46, 0
8, 71232, Note_off_c, 9, 40, 0
8, 71232, Note_on_c, 9, 36, 95
8, 71232, Note_on_c, 9, 46, 66
8, 71251, Note_on_c, 9, 54, 56
8, 71296, Note_off_c, 9, 54, 0
8, 71344, Note_on_c, 9, 54, 50
8, 71379, Note_off_c, 9, 54, 0
8, 71424, Note_off_c, 9, 46, 0
8, 71424, Note_off_c, 9, 36, 0
8, 71424, Note_on_c, 9, 46, 66
8, 71427, Note_on_c, 9, 54, 85
8, 71491, Note_off_c, 9, 54, 0
8, 71520, Note_on_c, 9, 54, 54
8, 71616, Note_off_c, 9, 54, 0
8, 71616, Note_off_c, 9, 46, 0
8, 71616, Note_on_c, 9, 36, 95
8, 71616, Note_on_c, 9, 46, 74
8, 71619, Note_on_c, 9, 54, 57
8, 71667, Note_off_c, 9, 54, 0
8, 71715, Note_on_c, 9, 54, 53
8, 71753, Note_off_c, 9, 54, 0
8, 71801, Note_on_c, 9, 54, 87
8, 71808, Note_off_c, 9, 46, 0
8, 71808, Note_off_c, 9, 36, 0
8, 71808, Note_on_c, 9, 40, 117
8, 71808, Note_on_c, 9, 46, 87
8, 71875, Note_off_c, 9, 54, 0
8, 71904, Note_on_c, 9, 54, 55
8, 71942, Note_off_c, 9, 54, 0
8, 71993, Note_on_c, 9, 54, 59
8, 72000, Note_off_c, 9, 46, 0
8, 72000, Note_off_c, 9, 40, 0
8, 72000, Note_on_c, 9, 46, 74
8, 72044, Note_off_c, 9, 54, 0
8, 72086, Note_on_c, 9, 54, 56
8, 72128, Note_off_c, 9, 54, 0
8, 72192, Note_off_c, 9, 46, 0
8, 72192, Note_on_c, 9, 36, 96
8, 72192, Note_on_c, 9, 46, 62
8, 72201, Note_on_c, 9, 54, 82
8, 72252, Note_off_c, 9, 54, 0
8, 72300, Note_on_c, 9, 54, 46
8, 72348, Note_off_c, 9, 54, 0
8, 72384, Note_off_c, 9, 46, 0
8, 72384, Note_off_c, 9, 36, 0
8, 72384, Note_on_c, 9, 46, 53
8, 72390, Note_on_c, 9, 54, 54
8, 72435, Note_off_c, 9, 54, 0
8, 72480, Note_on_c, 9, 54, 54
8, 72576, Note_off_c, 9, 54, 0
8, 72576, Note_off_c, 9, 46, 0
8, 72576, Note_on_c, 9, 40, 117
8, 72576, Note_on_c, 9, 46, 72
8, 72579, Note_on_c, 9, 54, 87
8, 72636, Note_off_c, 9, 54, 0
8, 72675, Note_on_c, 9, 54, 49
8, 72732, Note_off_c, 9, 54, 0
8, 72768, Note_off_c, 9, 46, 0
8, 72768, Note_off_c, 9, 40, 0
8, 72768, Note_on_c, 9, 36, 103
8, 72768, Note_on_c, 9, 46, 64
8, 72787, Note_on_c, 9, 54, 59
8, 72816, Note_off_c, 9, 54, 0
8, 72870, Note_on_c, 9, 54, 50
8, 72915, Note_off_c, 9, 54, 0
8, 72960, Note_off_c, 9, 46, 0
8, 72960, Note_off_c, 9, 36, 0
8, 72960, Note_on_c, 9, 46, 61
8, 72963, Note_on_c, 9, 54, 79
8, 73030, Note_off_c, 9, 54, 0
8, 73062, Note_on_c, 9, 54, 48
8, 73116, Note_off_c, 9, 54, 0
8, 73152, Note_off_c, 9, 46, 0
8, 73152, Note_on_c, 9, 36, 100
8, 73152, Note_on_c, 9, 46, 61
8, 73164, Note_on_c, 9, 54, 56
8, 73216, Note_off_c, 9, 54, 0
8, 73248, Note_on_c, 9, 54, 52
8, 73299, Note_off_c, 9, 54, 0
8, 73344, Note_off_c, 9, 46, 0
8, 73344, Note_off_c, 9, 36, 0
8, 73344, Note_on_c, 9, 40, 117
8, 73344, Note_on_c, 9, 46, 74
8, 73356, Note_on_c, 9, 54, 87
8, 73427, Note_off_c, 9, 54, 0
8, 73449, Note_on_c, 9, 54, 50
8, 73504, Note_off_c, 9, 54, 0
8, 73536, Note_off_c, 9, 46, 0
8, 73536, Note_off_c, 9, 40, 0
8, 73536, Note_on_c, 9, 46, 61
8, 73552, Note_on_c, 9, 54, 51
8, 73603, Note_off_c, 9, 54, 0
8, 73644, Note_on_c, 9, 54, 47
8, 73692, Note_off_c, 9, 54, 0
8, 73728, Note_off_c, 9, 46, 0
8, 73728, Note_on_c, 9, 36, 109
8, 73728, Note_on_c, 9, 46, 70
8, 73728, Note_on_c, 9, 49, 70
8, 73737, Note_on_c, 9, 54, 74
8, 73804, Note_off_c, 9, 54, 0
8, 73820, Note_on_c, 9, 54, 50
8, 73875, Note_off_c, 9, 54, 0
8, 73920, Note_off_c, 9, 46, 0
8, 73920, Note_off_c, 9, 36, 0
8, 73920, Note_on_c, 9, 46, 66
8, 73926, Note_on_c, 9, 54, 53
8, 73974, Note_off_c, 9, 54, 0
8, 74012, Note_on_c, 9, 54, 48
8, 74060, Note_off_c, 9, 54, 0
8, 74112, Note_off_c, 9, 46, 0
8, 74112, Note_on_c, 9, 40, 117
8, 74112, Note_on_c, 9, 46, 64
8, 74121, Note_on_c, 9, 54, 85
8, 74195, Note_off_c, 9, 54, 0
8, 74208, Note_on_c, 9, 54, 54
8, 74304, Note_off_c, 9, 54, 0
8, 74304, Note_off_c, 9, 46, 0
8, 74304, Note_off_c, 9, 40, 0
8, 74304, Note_on_c, 9, 36, 99
8, 74304, Note_on_c, 9, 46, 68
8, 74323, Note_on_c, 9, 54, 50
8, 74361, Note_off_c, 9, 54, 0
8, 74406, Note_on_c, 9, 54, 47
8, 74451, Note_off_c, 9, 54, 0
8, 74496, Note_off_c, 9, 46, 0
8, 74496, Note_off_c, 9, 36, 0
8, 74496, Note_on_c, 9, 46, 74
8, 74499, Note_on_c, 9, 54, 66
8, 74550, Note_off_c, 9, 54, 0
8, 74582, Note_on_c, 9, 54, 47
8, 74636, Note_off_c, 9, 54, 0
8, 74688, Note_off_c, 9, 46, 0
8, 74688, Note_off_c, 9, 49, 0
8, 74688, Note_on_c, 9, 36, 95
8, 74688, Note_on_c, 9, 46, 68
8, 74691, Note_on_c, 9, 54, 47
8, 74739, Note_off_c, 9, 54, 0
8, 74793, Note_on_c, 9, 54, 47
8, 74838, Note_off_c, 9, 54, 0
8, 74880, Note_off_c, 9, 46, 0
8, 74880, Note_off_c, 9, 36, 0
8, 74880, Note_on_c, 9, 40, 117
8, 74880, Note_on_c, 9, 46, 72
8, 74886, Note_on_c, 9, 54, 87
8, 74956, Note_off_c, 9, 54, 0
8, 74976, Note_on_c, 9, 54, 54
8, 75072, Note_off_c, 9, 54, 0
8, 75072, Note_off_c, 9, 46, 0
8, 75072, Note_off_c, 9, 40, 0
8, 75072, Note_on_c, 9, 46, 61
8, 75084, Note_on_c, 9, 54, 52
8, 75132, Note_off_c, 9, 54, 0
8, 75164, Note_on_c, 9, 54, 48
8, 75212, Note_off_c, 9, 54, 0
8, 75260, Note_on_c, 9, 54, 74
8, 75264, Note_off_c, 9, 46, 0
8, 75264, Note_on_c, 9, 36, 102
8, 75264, Note_on_c, 9, 46, 72
8, 75324, Note_off_c, 9, 54, 0
8, 75363, Note_on_c, 9, 54, 52
8, 75408, Note_off_c, 9, 54, 0
8, 75456, Note_off_c, 9, 46, 0
8, 75456, Note_off_c, 9, 36, 0
8, 75456, Note_on_c, 9, 46, 60
8, 75465, Note_on_c, 9, 54, 50
8, 75516, Note_off_c, 9, 54, 0
8, 75561, Note_on_c, 9, 54, 50
8, 75596, Note_off_c, 9, 54, 0
8, 75648, Note_off_c, 9, 46, 0
8, 75648, Note_on_c, 9, 40, 117
8, 75648, Note_on_c, 9, 46, 66
8, 75660, Note_on_c, 9, 54, 87
8, 75731, Note_off_c, 9, 54, 0
8, 75756, Note_on_c, 9, 54, 56
8, 75795, Note_off_c, 9, 54, 0
8, 75840, Note_off_c, 9, 46, 0
8, 75840, Note_off_c, 9, 40, 0
8, 75840, Note_on_c, 9, 36, 95
8, 75840, Note_on_c, 9, 46, 66
8, 75859, Note_on_c, 9, 54, 56
8, 75904, Note_off_c, 9, 54, 0
8, 75952, Note_on_c, 9, 54, 50
8, 75987, Note_off_c, 9, 54, 0
8, 76032, Note_off_c, 9, 46, 0
8, 76032, Note_off_c, 9, 36, 0
8, 76032, Note_on_c, 9, 46, 66
8, 76035, Note_on_c, 9, 54, 85
8, 76099, Note_off_c, 9, 54, 0
8, 76128, Note_on_c, 9, 54, 54
8, 76224, Note_off_c, 9, 54, 0
8, 76224, Note_off_c, 9, 46, 0
8, 76224, Note_on_c, 9, 36, 95
8, 76224, Note_on_c, 9, 46, 74
8, 76227, Note_on_c, 9, 54, 57
8, 76275, Note_off_c, 9, 54, 0
8, 76323, Note_on_c, 9, 54, 53
8, 76361, Note_off_c, 9, 54, 0
8, 76409, Note_on_c, 9, 54, 87
8, 76416, Note_off_c, 9, 46, 0
8, 76416, Note_off_c, 9, 36, 0
8, 76416, Note_on_c, 9, 40, 117
8, 76416, Note_on_c, 9, 46, 87
8, 76483, Note_off_c, 9, 54, 0
8, 76512, Note_on_c, 9, 54, 55
8, 76550, Note_off_c, 9, 54, 0
8, 76601, Note_on_c, 9, 54, 59
8, 76608, Note_off_c, 9, 46, 0
8, 76608, Note_off_c, 9, 40, 0
8, 76608, Note_on_c, 9, 46, 74
8, 76652, Note_off_c, 9, 54, 0
8, 76694, Note_on_c, 9, 54, 56
8, 76736, Note_off_c, 9, 54, 0
8, 76800, Note_off_c, 9, 46, 0
8, 76800, Note_on_c, 9, 36, 96
8, 76800, Note_on_c, 9, 46, 62
8, 76809, Note_on_c, 9, 54, 82
8, 76860, Note_off_c, 9, 54, 0
8, 76908, Note_on_c, 9, 54, 46
8, 76956, Note_off_c, 9, 54, 0
8, 76992, Note_off_c, 9, 46, 0
8, 76992, Note_off_c, 9, 36, 0
8, 76992, Note_on_c, 9, 46, 53
8, 76998, Note_on_c, 9, 54, 54
8, 77043, Note_off_c, 9, 54, 0
8, 77088, Note_on_c, 9, 54, 54
8, 77184, Note_off_c, 9, 54, 0
8, 77184, Note_off_c, 9, 46, 0
8, 77184, Note_on_c, 9, 40, 117
8, 77184, Note_on_c, 9, 46, 72
8, 77187, Note_on_c, 9, 54, 87
8, 77244, Note_off_c, 9, 54, 0
8, 77283, Note_on_c, 9, 54, 49
8, 77340, Note_off_c, 9, 54, 0
8, 77376, Note_off_c, 9, 46, 0
8, 77376, Note_off_c, 9, 40, 0
8, 77376, Note_on_c, 9, 36, 103
8, 77376, Note_on_c, 9, 46, 64
8, 77395, Note_on_c, 9, 54, 59
8, 77424, Note_off_c, 9, 54, 0
8, 77478, Note_on_c, 9, 54, 50
8, 77523, Note_off_c, 9, 54, 0
8, 77568, Note_off_c, 9, 46, 0
8, 77568, Note_off_c, 9, 36, 0
8, 77568, Note_on_c, 9, 46, 61
8, 77571, Note_on_c, 9, 54, 79
8, 77638, Note_off_c, 9, 54, 0
8, 77670, Note_on_c, 9, 54, 48
8, 77724, Note_off_c, 9, 54, 0
8, 77760, Note_off_c, 9, 46, 0
8, 77760, Note_on_c, 9, 36, 100
8, 77760, Note_on_c, 9, 46, 61
8, 77772, Note_on_c, 9, 54, 56
8, 77824, Note_off_c, 9, 54, 0
8, 77856, Note_on_c, 9, 54, 52
8, 77907, Note_off_c, 9, 54, 0
8, 77952, Note_off_c, 9, 46, 0
8, 77952, Note_off_c, 9, 36, 0
8, 77952, Note_on_c, 9, 40, 117
8, 77952, Note_on_c, 9, 46, 74
8, 77964, Note_on_c, 9, 54, 87
8, 78035, Note_off_c, 9, 54, 0
8, 78057, Note_on_c, 9, 54, 50
8, 78112, Note_off_c, 9, 54, 0
8, 78144, Note_off_c, 9, 46, 0
8, 78144, Note_off_c, 9, 40, 0
8, 78144, Note_on_c, 9, 46, 61
8, 78160, Note_on_c, 9, 54, 51
8, 78211, Note_off_c, 9, 54, 0
8, 78252, Note_on_c, 9, 54, 47
8, 78300, Note_off_c, 9, 54, 0
8, 78336, Note_off_c, 9, 46, 0
8, 78336, Note_on_c, 9, 36, 109
8, 78336, Note_on_c, 9, 46, 70
8, 78345, Note_on_c, 9, 54, 74
8, 78412, Note_off_c, 9, 54, 0
8, 78428, Note_on_c, 9, 54, 50
8, 78483, Note_off_c, 9, 54, 0
8, 78528, Note_off_c, 9, 46, 0
8, 78528, Note_off_c, 9, 36, 0
8, 78528, Note_on_c, 9, 46, 66
8, 78534, Note_on_c, 9, 54, 53
8, 78582, Note_off_c, 9, 54, 0
8, 78620, Note_on_c, 9, 54, 48
8, 78668, Note_off_c, 9, 54, 0
8, 78720, Note_off_c, 9, 46, 0
8, 78720, Note_on_c, 9, 40, 117
8, 78720, Note_on_c, 9, 46, 64
8, 78729, Note_on_c, 9, 54, 85
8, 78803, Note_off_c, 9, 54, 0
8, 78816, Note_on_c, 9, 54, 54
8, 78912, Note_off_c, 9, 54, 0
8, 78912, Note_off_c, 9, 46, 0
8, 78912, Note_off_c, 9, 40, 0
8, 78912, Note_on_c, 9, 36, 99
8, 78912, Note_on_c, 9, 46, 68
8, 78931, Note_on_c, 9, 54, 50
8, 78969, Note_off_c, 9, 54, 0
8, 79014, Note_on_c, 9, 54, 47
8, 79059, Note_off_c, 9, 54, 0
8, 79104, Note_off_c, 9, 46, 0
8, 79104, Note_off_c, 9, 36, 0
8, 79104, Note_on_c, 9, 46, 74
8, 79107, Note_on_c, 9, 54, 66
8, 79158, Note_off_c, 9, 54, 0
8, 79190, Note_on_c, 9, 54, 47
8, 79244, Note_off_c, 9, 54, 0
8, 79296, Note_off_c, 9, 46, 0
8, 79296, Note_on_c, 9, 36, 95
8, 79296, Note_on_c, 9, 46, 68
8, 79299, Note_on_c, 9, 54, 47
8, 79347, Note_off_c, 9, 54, 0
8, 79401, Note_on_c, 9, 54, 47
8, 79446, Note_off_c, 9, 54, 0
8, 79488, Note_off_c, 9, 46, 0
8, 79488, Note_off_c, 9, 36, 0
8, 79488, Note_on_c, 9, 40, 117
8, 79488, Note_on_c, 9, 46, 72
8, 79494, Note_on_c, 9, 54, 87
8, 79564, Note_off_c, 9, 54, 0
8, 79584, Note_on_c, 9, 54, 54
8, 79680, Note_off_c, 9, 54, 0
8, 79680, Note_off_c, 9, 46, 0
8, 79680, Note_off_c, 9, 40, 0
8, 79680, Note_on_c, 9, 46, 61
8, 79692, Note_on_c, 9, 54, 52
8, 79740, Note_off_c, 9, 54, 0
8, 79772, Note_on_c, 9, 54, 48
8, 79820, Note_off_c, 9, 54, 0
8, 79868, Note_on_c, 9, 54, 74
8, 79872, Note_off_c, 9, 46, 0
8, 79872, Note_on_c, 9, 36, 102
8, 79872, Note_on_c, 9, 46, 72
8, 79872, Note_on_c, 9, 49, 85
8, 79932, Note_off_c, 9, 54, 0
8, 79971, Note_on_c, 9, 54, 52
8, 80016, Note_off_c, 9, 54, 0
8, 80064, Note_off_c, 9, 46, 0
8, 80064, Note_off_c, 9, 36, 0
8, 80064, Note_on_c, 9, 46, 60
8, 80073, Note_on_c, 9, 54, 50
8, 80124, Note_off_c, 9, 54, 0
8, 80169, Note_on_c, 9, 54, 50
8, 80204, Note_off_c, 9, 54, 0
8, 80256, Note_off_c, 9, 46, 0
8, 80256, Note_on_c, 9, 40, 117
8, 80256, Note_on_c, 9, 46, 66
8, 80268, Note_on_c, 9, 54, 87
8, 80339, Note_off_c, 9, 54, 0
8, 80364, Note_on_c, 9, 54, 56
8, 80403, Note_off_c, 9, 54, 0
8, 80448, Note_off_c, 9, 46, 0
8, 80448, Note_off_c, 9, 40, 0
8, 80448, Note_on_c, 9, 36, 95
8, 80448, Note_on_c, 9, 46, 66
8, 80467, Note_on_c, 9, 54, 56
8, 80512, Note_off_c, 9, 54, 0
8, 80560, Note_on_c, 9, 54, 50
8, 80595, Note_off_c, 9, 54, 0
8, 80640, Note_off_c, 9, 46, 0
8, 80640, Note_off_c, 9, 36, 0
8, 80640, Note_off_c, 9, 49, 0
8, 80640, Note_on_c, 9, 46, 66
8, 80643, Note_on_c, 9, 54, 85
8, 80707, Note_off_c, 9, 54, 0
8, 80736, Note_on_c, 9, 54, 54
8, 80832, Note_off_c, 9, 54, 0
8, 80832, Note_off_c, 9, 46, 0
8, 80832, Note_on_c, 9, 36, 95
8, 80832, Note_on_c, 9, 46, 74
8, 80835, Note_on_c, 9, 54, 57
8, 80883, Note_off_c, 9, 54, 0
8, 80931, Note_on_c, 9, 54, 53
8, 80969, Note_off_c, 9, 54, 0
8, 81017, Note_on_c, 9, 54, 87
8, 81024, Note_off_c, 9, 46, 0
8, 81024, Note_off_c, 9, 36, 0
8, 81024, Note_on_c, 9, 40, 117
8, 81024, Note_on_c, 9, 46, 87
8, 81091, Note_off_c, 9, 54, 0
8, 81120, Note_on_c, 9, 54, 55
8, 81158, Note_off_c, 9, 54, 0
8, 81209, Note_on_c, 9, 54, 59
8, 81216, Note_off_c, 9, 46, 0
8, 81216, Note_off_c, 9, 40, 0
8, 81216, Note_on_c, 9, 46, 74
8, 81260, Note_off_c, 9, 54, 0
8, 81302, Note_on_c, 9, 54, 56
8, 81344, Note_off_c, 9, 54, 0
8, 81408, Note_off_c, 9, 46, 0
8, 81408, Note_on_c, 9, 36, 96
8, 81408, Note_on_c, 9, 46, 62
8, 81417, Note_on_c, 9, 54, 82
8, 81468, Note_off_c, 9, 54, 0
8, 81516, Note_on_c, 9, 54, 46
8, 81564, Note_off_c, 9, 54, 0
8, 81600, Note_off_c, 9, 46, 0
8, 81600, Note_off_c, 9, 36, 0
8, 81600, Note_on_c, 9, 46, 53
8, 81606, Note_on_c, 9, 54, 54
8, 81651, Note_off_c, 9, 54, 0
8, 81696, Note_on_c, 9, 54, 54
8, 81792, Note_off_c, 9, 54, 0
8, 81792, Note_off_c, 9, 46, 0
8, 81792, Note_on_c, 9, 40, 117
8, 81792, Note_on_c, 9, 46, 72
8, 81795, Note_on_c, 9, 54, 87
8, 81852, Note_off_c, 9, 54, 0
8, 81891, Note_on_c, 9, 54, 49
8, 81948, Note_off_c, 9, 54, 0
8, 81984, Note_off_c, 9, 46, 0
8, 81984, Note_off_c, 9, 40, 0
8, 81984, Note_on_c, 9, 36, 103
8, 81984, Note_on_c, 9, 46, 64
8, 82003, Note_on_c, 9, 54, 59
8, 82032, Note_off_c, 9, 54, 0
8, 82086, Note_on_c, 9, 54, 50
8, 82131, Note_off_c, 9, 54, 0
8, 82176, Note_off_c, 9, 46, 0
8, 82176, Note_off_c, 9, 36, 0
8, 82176, Note_on_c, 9, 46, 61
8, 82179, Note_on_c, 9, 54, 79
8, 82246, Note_off_c, 9, 54, 0
8, 82278, Note_on_c, 9, 54, 48
8, 82332, Note_off_c, 9, 54, 0
8, 82368, Note_off_c, 9, 46, 0
8, 82368, Note_on_c, 9, 36, 100
8, 82368, Note_on_c, 9, 46, 61
8, 82380, Note_on_c, 9, 54, 56
8, 82432, Note_off_c, 9, 54, 0
8, 82464, Note_on_c, 9, 54, 52
8, 82515, Note_off_c, 9, 54, 0
8, 82560, Note_off_c, 9, 46, 0
8, 82560, Note_off_c, 9, 36, 0
8, 82560, Note_on_c, 9, 40, 117
8, 82560, Note_on_c, 9, 46, 74
8, 82572, Note_on_c, 9, 54, 87
8, 82643, Note_off_c, 9, 54, 0
8, 82665, Note_on_c, 9, 54, 50
8, 82720, Note_off_c, 9, 54, 0
8, 82752, Note_off_c, 9, 46, 0
8, 82752, Note_off_c, 9, 40, 0
8, 82752, Note_on_c, 9, 46, 61
8, 82768, Note_on_c, 9, 54, 51
8, 82819, Note_off_c, 9, 54, 0
8, 82860, Note_on_c, 9, 54, 47
8, 82908, Note_off_c, 9, 54, 0
8, 82944, Note_off_c, 9, 46, 0
8, 82944, Note_on_c, 9, 36, 109
8, 82944, Note_on_c, 9, 46, 70
8, 82953, Note_on_c, 9, 54, 74
8, 83020, Note_off_c, 9, 54, 0
8, 83036, Note_on_c, 9, 54, 50
8, 83091, Note_off_c, 9, 54, 0
8, 83136, Note_off_c, 9, 46, 0
8, 83136, Note_off_c, 9, 36, 0
8, 83136, Note_on_c, 9, 46, 66
8, 83142, Note_on_c, 9, 54, 53
8, 83190, Note_off_c, 9, 54, 0
8, 83228, Note_on_c, 9, 54, 48
8, 83276, Note_off_c, 9, 54, 0
8, 83328, Note_off_c, 9, 46, 0
8, 83328, Note_on_c, 9, 40, 117
8, 83328, Note_on_c, 9, 46, 64
8, 83337, Note_on_c, 9, 54, 85
8, 83411, Note_off_c, 9, 54, 0
8, 83424, Note_on_c, 9, 54, 54
8, 83520, Note_off_c, 9, 54, 0
8, 83520, Note_off_c, 9, 46, 0
8, 83520, Note_off_c, 9, 40, 0
8, 83520, Note_on_c, 9, 36, 99
8, 83520, Note_on_c, 9, 46, 68
8, 83539, Note_on_c, 9, 54, 50
8, 83577, Note_off_c, 9, 54, 0
8, 83622, Note_on_c, 9, 54, 47
8, 83667, Note_off_c, 9, 54, 0
8, 83712, Note_off_c, 9, 46, 0
8, 83712, Note_off_c, 9, 36, 0
8, 83712, Note_on_c, 9, 46, 74
8, 83715, Note_on_c, 9, 54, 66
8, 83766, Note_off_c, 9, 54, 0
8, 83798, Note_on_c, 9, 54, 47
8, 83852, Note_off_c, 9, 54, 0
8, 83904, Note_off_c, 9, 46, 0
8, 83904, Note_on_c, 9, 36, 95
8, 83904, Note_on_c, 9, 46, 68
8, 83907, Note_on_c, 9, 54, 47
8, 83955, Note_off_c, 9, 54, 0
8, 84009, Note_on_c, 9, 54, 47
8, 84054, Note_off_c, 9, 54, 0
8, 84096, Note_off_c, 9, 46, 0
8, 84096, Note_off_c, 9, 36, 0
8, 84096, Note_on_c, 9, 40, 117
8, 84096, Note_on_c, 9, 46, 72
8, 84102, Note_on_c, 9, 54, 87
8, 84172, Note_off_c, 9, 54, 0
8, 84192, Note_on_c, 9, 54, 54
8, 84288, Note_off_c, 9, 54, 0
8, 84288, Note_off_c, 9, 46, 0
8, 84288, Note_off_c, 9, 40, 0
8, 84288, Note_on_c, 9, 46, 61
8, 84300, Note_on_c, 9, 54, 52
8, 84348, Note_off_c, 9, 54, 0
8, 84380, Note_on_c, 9, 54, 48
8, 84428, Note_off_c, 9, 54, 0
8, 84476, Note_on_c, 9, 54, 74
8, 84480, Note_off_c, 9, 46, 0
8, 84480, Note_on_c, 9, 36, 102
8, 84480, Note_on_c, 9, 46, 72
8, 84540, Note_off_c, 9, 54, 0
8, 84579, Note_on_c, 9, 54, 52
8, 84624, Note_off_c, 9, 54, 0
8, 84672, Note_off_c, 9, 46, 0
8, 84672, Note_off_c, 9, 36, 0
8, 84672, Note_on_c, 9, 46, 60
8, 84681, Note_on_c, 9, 54, 50
8, 84732, Note_off_c, 9, 54, 0
8, 84777, Note_on_c, 9, 54, 50
8, 84812, Note_off_c, 9, 54, 0
8, 84864, Note_off_c, 9, 46, 0
8, 84864, Note_on_c, 9, 40, 117
8, 84864, Note_on_c, 9, 46, 66
8, 84876, Note_on_c, 9, 54, 87
8, 84947, Note_off_c, 9, 54, 0
8, 84972, Note_on_c, 9, 54, 56
8, 85011, Note_off_c, 9, 54, 0
8, 85056, Note_off_c, 9, 46, 0
8, 85056, Note_off_c, 9, 40, 0
8, 85056, Note_on_c, 9, 36, 95
8, 85056, Note_on_c, 9, 46, 66
8, 85075, Note_on_c, 9, 54, 56
8, 85120, Note_off_c, 9, 54, 0
8, 85168, Note_on_c, 9, 54, 50
8, 85203, Note_off_c, 9, 54, 0
8, 85248, Note_off_c, 9, 46, 0
8, 85248, Note_off_c, 9, 36, 0
8, 85248, Note_on_c, 9, 46, 66
8, 85251, Note_on_c, 9, 54, 85
8, 85315, Note_off_c, 9, 54, 0
8, 85344, Note_on_c, 9, 54, 54
8, 85440, Note_off_c, 9, 54, 0
8, 85440, Note_off_c, 9, 46, 0
8, 85440, Note_on_c, 9, 36, 95
8, 85440, Note_on_c, 9, 46, 74
8, 85443, Note_on_c, 9, 54, 57
8, 85491, Note_off_c, 9, 54, 0
8, 85539, Note_on_c, 9, 54, 53
8, 85577, Note_off_c, 9, 54, 0
8, 85625, Note_on_c, 9, 54, 87
8, 85632, Note_off_c, 9, 46, 0
8, 85632, Note_off_c, 9, 36, 0
8, 85632, Note_on_c, 9, 40, 117
8, 85632, Note_on_c, 9, 46, 87
8, 85699, Note_off_c, 9, 54, 0
8, 85728, Note_on_c, 9, 54, 55
8, 85766, Note_off_c, 9, 54, 0
8, 85817, Note_on_c, 9, 54, 59
8, 85824, Note_off_c, 9, 46, 0
8, 85824, Note_off_c, 9, 40, 0
8, 85824, Note_on_c, 9, 46, 74
8, 85868, Note_off_c, 9, 54, 0
8, 85910, Note_on_c, 9, 54, 56
8, 85952, Note_off_c, 9, 54, 0
8, 86016, Note_off_c, 9, 46, 0
8, 86016, Note_on_c, 9, 36, 96
8, 86016, Note_on_c, 9, 46, 62
8, 86025, Note_on_c, 9, 54, 82
8, 86076, Note_off_c, 9, 54, 0
8, 86124, Note_on_c, 9, 54, 46
8, 86172, Note_off_c, 9, 54, 0
8, 86208, Note_off_c, 9, 46, 0
8, 86208, Note_off_c, 9, 36, 0
8, 86208, Note_on_c, 9, 46, 53
8, 86214, Note_on_c, 9, 54, 54
8, 86259, Note_off_c, 9, 54, 0
8, 86304, Note_on_c, 9, 54, 54
8, 86400, Note_off_c, 9, 54, 0
8, 86400, Note_off_c, 9, 46, 0
8, 86400, Note_on_c, 9, 40, 117
8, 86400, Note_on_c, 9, 46, 72
8, 86403, Note_on_c, 9, 54, 87
8, 86460, Note_off_c, 9, 54, 0
8, 86499, Note_on_c, 9, 54, 49
8, 86556, Note_off_c, 9, 54, 0
8, 86592, Note_off_c, 9, 46, 0
8, 86592, Note_off_c, 9, 40, 0
8, 86592, Note_on_c, 9, 36, 103
8, 86592, Note_on_c, 9, 46, 64
8, 86611, Note_on_c, 9, 54, 59
8, 86640, Note_off_c, 9, 54, 0
8, 86694, Note_on_c, 9, 54, 50
8, 86739, Note_off_c, 9, 54, 0
8, 86784, Note_off_c, 9, 46, 0
8, 86784, Note_off_c, 9, 36, 0
8, 86784, Note_on_c, 9, 46, 61
8, 86787, Note_on_c, 9, 54, 79
8, 86854, Note_off_c, 9, 54, 0
8, 86886, Note_on_c, 9, 54, 48
8, 86940, Note_off_c, 9, 54, 0
8, 86976, Note_off_c, 9, 46, 0
8, 86976, Note_on_c, 9, 36, 100
8, 86976, Note_on_c, 9, 46, 61
8, 86988, Note_on_c, 9, 54, 56
8, 87040, Note_off_c, 9, 54, 0
8, 87072, Note_on_c, 9, 54, 52
8, 87123, Note_off_c, 9, 54, 0
8, 87168, Note_off_c, 9, 46, 0
8, 87168, Note_off_c, 9, 36, 0
8, 87168, Note_on_c, 9, 40, 117
8, 87168, Note_on_c, 9, 46, 74
8, 87180, Note_on_c, 9, 54, 87
8, 87251, Note_off_c, 9, 54, 0
8, 87273, Note_on_c, 9, 54, 50
8, 87328, Note_off_c, 9, 54, 0
8, 87360, Note_off_c, 9, 46, 0
8, 87360, Note_off_c, 9, 40, 0
8, 87360, Note_on_c, 9, 46, 61
8, 87376, Note_on_c, 9, 54, 51
8, 87427, Note_off_c, 9, 54, 0
8, 87468, Note_on_c, 9, 54, 47
8, 87516, Note_off_c, 9, 54, 0
8, 87552, Note_off_c, 9, 46, 0
8, 87552, Note_on_c, 9, 36, 109
8, 87552, Note_on_c, 9, 46, 70
8, 87561, Note_on_c, 9, 54, 74
8, 87628, Note_off_c, 9, 54, 0
8, 87644, Note_on_c, 9, 54, 50
8, 87699, Note_off_c, 9, 54, 0
8, 87744, Note_off_c, 9, 46, 0
8, 87744, Note_off_c, 9, 36, 0
8, 87744, Note_on_c, 9, 46, 66
8, 87750, Note_on_c, 9, 54, 53
8, 87798, Note_off_c, 9, 54, 0
8, 87836, Note_on_c, 9, 54, 48
8, 87884, Note_off_c, 9, 54, 0
8, 87936, Note_off_c, 9, 46, 0
8, 87936, Note_on_c, 9, 40, 117
8, 87936, Note_on_c, 9, 46, 64
8, 87945, Note_on_c, 9, 54, 85
8, 88019, Note_off_c, 9, 54, 0
8, 88032, Note_on_c, 9, 54, 54
8, 88128, Note_off_c, 9, 54, 0
8, 88128, Note_off_c, 9, 46, 0
8, 88128, Note_off_c, 9, 40, 0
8, 88128, Note_on_c, 9, 36, 99
8, 88128, Note_on_c, 9, 46, 68
8, 88147, Note_on_c, 9, 54, 50
8, 88185, Note_off_c, 9, 54, 0
8, 88230, Note_on_c, 9, 54, 47
8, 88275, Note_off_c, 9, 54, 0
8, 88320, Note_off_c, 9, 46, 0
8, 88320, Note_off_c, 9, 36, 0
8, 88320, Note_on_c, 9, 46, 74
8, 88323, Note_on_c, 9, 54, 66
8, 88374, Note_off_c, 9, 54, 0
8, 88406, Note_on_c, 9, 54, 47
8, 88460, Note_off_c, 9, 54, 0
8, 88512, Note_off_c, 9, 46, 0
8, 88512, Note_on_c, 9, 36, 95
8, 88512, Note_on_c, 9, 46, 68
8, 88515, Note_on_c, 9, 54, 47
8, 88563, Note_off_c, 9, 54, 0
8, 88617, Note_on_c, 9, 54, 47
8, 88662, Note_off_c, 9, 54, 0
8, 88704, Note_off_c, 9, 46, 0
8, 88704, Note_off_c, 9, 36, 0
8, 88704, Note_on_c, 9, 40, 117
8, 88704, Note_on_c, 9, 46, 72
8, 88710, Note_on_c, 9, 54, 87
8, 88780, Note_off_c, 9, 54, 0
8, 88800, Note_on_c, 9, 54, 54
8, 88896, Note_off_c, 9, 54, 0
8, 88896, Note_off_c, 9, 46, 0
8, 88896, Note_off_c, 9, 40, 0
8, 88896, Note_on_c, 9, 46, 61
8, 88908, Note_on_c, 9, 54, 52
8, 88956, Note_off_c, 9, 54, 0
8, 88988, Note_on_c, 9, 54, 48
8, 89036, Note_off_c, 9, 54, 0
8, 89084, Note_on_c, 9, 54, 74
8, 89088, Note_off_c, 9, 46, 0
8, 89088, Note_on_c, 9, 36, 102
8, 89088, Note_on_c, 9, 46, 72
8, 89148, Note_off_c, 9, 54, 0
8, 89187, Note_on_c, 9, 54, 52
8, 89232, Note_off_c, 9, 54, 0
8, 89280, Note_off_c, 9, 46, 0
8, 89280, Note_off_c, 9, 36, 0
8, 89280, Note_on_c, 9, 46, 60
8, 89289, Note_on_c, 9, 54, 50
8, 89340, Note_off_c, 9, 54, 0
8, 89385, Note_on_c, 9, 54, 50
8, 89420, Note_off_c, 9, 54, 0
8, 89472, Note_off_c, 9, 46, 0
8, 89472, Note_on_c, 9, 40, 117
8, 89472, Note_on_c, 9, 46, 66
8, 89484, Note_on_c, 9, 54, 87
8, 89555, Note_off_c, 9, 54, 0
8, 89580, Note_on_c, 9, 54, 56
8, 89619, Note_off_c, 9, 54, 0
8, 89664, Note_off_c, 9, 46, 0
8, 89664, Note_off_c, 9, 40, 0
8, 89664, Note_on_c, 9, 36, 95
8, 89664, Note_on_c, 9, 46, 66
8, 89683, Note_on_c, 9, 54, 56
8, 89728, Note_off_c, 9, 54, 0
8, 89776, Note_on_c, 9, 54, 50
8, 89811, Note_off_c, 9, 54, 0
8, 89856, Note_off_c, 9, 46, 0
8, 89856, Note_off_c, 9, 36, 0
8, 89856, Note_on_c, 9, 46, 66
8, 89859, Note_on_c, 9, 54, 85
8, 89923, Note_off_c, 9, 54, 0
8, 89952, Note_on_c, 9, 54, 54
8, 90048, Note_off_c, 9, 54, 0
8, 90048, Note_off_c, 9, 46, 0
8, 90048, Note_on_c, 9, 36, 95
8, 90048, Note_on_c, 9, 46, 74
8, 90051, Note_on_c, 9, 54, 57
8, 90099, Note_off_c, 9, 54, 0
8, 90147, Note_on_c, 9, 54, 53
8, 90185, Note_off_c, 9, 54, 0
8, 90233, Note_on_c, 9, 54, 87
8, 90240, Note_off_c, 9, 46, 0
8, 90240, Note_off_c, 9, 36, 0
8, 90240, Note_on_c, 9, 40, 117
8, 90240, Note_on_c, 9, 46, 87
8, 90307, Note_off_c, 9, 54, 0
8, 90336, Note_on_c, 9, 54, 55
8, 90374, Note_off_c, 9, 54, 0
8, 90425, Note_on_c, 9, 54, 59
8, 90432, Note_off_c, 9, 46, 0
8, 90432, Note_off_c, 9, 40, 0
8, 90432, Note_on_c, 9, 46, 74
8, 90476, Note_off_c, 9, 54, 0
8, 90518, Note_on_c, 9, 54, 56
8, 90560, Note_off_c, 9, 54, 0
8, 90624, Note_off_c, 9, 46, 0
8, 90624, Note_on_c, 9, 36, 96
8, 90624, Note_on_c, 9, 46, 62
8, 90633, Note_on_c, 9, 54, 82
8, 90684, Note_off_c, 9, 54, 0
8, 90732, Note_on_c, 9, 54, 46
8, 90780, Note_off_c, 9, 54, 0
8, 90816, Note_off_c, 9, 46, 0
8, 90816, Note_off_c, 9, 36, 0
8, 90816, Note_on_c, 9, 46, 53
8, 90822, Note_on_c, 9, 54, 54
8, 90867, Note_off_c, 9, 54, 0
8, 90912, Note_on_c, 9, 54, 54
8, 91008, Note_off_c, 9, 54, 0
8, 91008, Note_off_c, 9, 46, 0
8, 91008, Note_on_c, 9, 40, 117
8, 91008, Note_on_c, 9, 46, 72
8, 91011, Note_on_c, 9, 54, 87
8, 91068, Note_off_c, 9, 54, 0
8, 91107, Note_on_c, 9, 54, 49
8, 91164, Note_off_c, 9, 54, 0
8, 91200, Note_off_c, 9, 46, 0
8, 91200, Note_off_c, 9, 40, 0
8, 91200, Note_on_c, 9, 36, 103
8, 91200, Note_on_c, 9, 46, 64
8, 91219, Note_on_c, 9, 54, 59
8, 91248, Note_off_c, 9, 54, 0
8, 91302, Note_on_c, 9, 54, 50
8, 91347, Note_off_c, 9, 54, 0
8, 91392, Note_off_c, 9, 46, 0
8, 91392, Note_off_c, 9, 36, 0
8, 91392, Note_on_c, 9, 46, 61
8, 91395, Note_on_c, 9, 54, 79
8, 91462, Note_off_c, 9, 54, 0
8, 91494, Note_on_c, 9, 54, 48
8, 91548, Note_off_c, 9, 54, 0
8, 91584, Note_off_c, 9, 46, 0
8, 91584, Note_on_c, 9, 36, 100
8, 91584, Note_on_c, 9, 46, 61
8, 91596, Note_on_c, 9, 54, 56
8, 91648, Note_off_c, 9, 54, 0
8, 91680, Note_on_c, 9, 54, 52
8, 91731, Note_off_c, 9, 54, 0
8, 91776, Note_off_c, 9, 46, 0
8, 91776, Note_off_c, 9, 36, 0
8, 91776, Note_on_c, 9, 40, 117
8, 91776, Note_on_c, 9, 46, 74
8, 91788, Note_on_c, 9, 54, 87
8, 91859, Note_off_c, 9, 54, 0
8, 91881, Note_on_c, 9, 54, 50
8, 91936, Note_off_c, 9, 54, 0
8, 91968, Note_off_c, 9, 46, 0
8, 91968, Note_off_c, 9, 40, 0
8, 91968, Note_on_c, 9, 46, 61
8, 91984, Note_on_c, 9, 54, 51
8, 92035, Note_off_c, 9, 54, 0
8, 92076, Note_on_c, 9, 54, 47
8, 92124, Note_off_c, 9, 54, 0
8, 92160, Note_off_c, 9, 46, 0
8, 92160, Note_on_c, 9, 36, 109
8, 92160, Note_on_c, 9, 46, 70
8, 92160, Note_on_c, 9, 49, 80
8, 92169, Note_on_c, 9, 54, 74
8, 92236, Note_off_c, 9, 54, 0
8, 92252, Note_on_c, 9, 54, 50
8, 92307, Note_off_c, 9, 54, 0
8, 92352, Note_off_c, 9, 46, 0
8, 92352, Note_off_c, 9, 36, 0
8, 92352, Note_on_c, 9, 46, 66
8, 92358, Note_on_c, 9, 54, 53
8, 92406, Note_off_c, 9, 54, 0
8, 92444, Note_on_c, 9, 54, 48
8, 92492, Note_off_c, 9, 54, 0
8, 92544, Note_off_c, 9, 46, 0
8, 92544, Note_on_c, 9, 40, 117
8, 92544, Note_on_c, 9, 46, 64
8, 92553, Note_on_c, 9, 54, 85
8, 92627, Note_off_c, 9, 54, 0
8, 92640, Note_on_c, 9, 54, 54
8, 92736, Note_off_c, 9, 54, 0
8, 92736, Note_off_c, 9, 46, 0
8, 92736, Note_off_c, 9, 40, 0
8, 92736, Note_on_c, 9, 36, 99
8, 92736, Note_on_c, 9, 46, 68
8, 92755, Note_on_c, 9, 54, 50
8, 92793, Note_off_c, 9, 54, 0
8, 92838, Note_on_c, 9, 54, 47
8, 92883, Note_off_c, 9, 54, 0
8, 92928, Note_off_c, 9, 46, 0
8, 92928, Note_off_c, 9, 36, 0
8, 92928, Note_off_c, 9, 49, 0
8, 92928, Note_on_c, 9, 46, 74
8, 92931, Note_on_c, 9, 54, 66
8, 92982, Note_off_c, 9, 54, 0
8, 93014, Note_on_c, 9, 54, 47
8, 93068, Note_off_c, 9, 54, 0
8, 93120, Note_off_c, 9, 46, 0
8, 93120, Note_on_c, 9, 36, 95
8, 93120, Note_on_c, 9, 46, 68
8, 93123, Note_on_c, 9, 54, 47
8, 93171, Note_off_c, 9, 54, 0
8, 93225, Note_on_c, 9, 54, 47
8, 93270, Note_off_c, 9, 54, 0
8, 93312, Note_off_c, 9, 46, 0
8, 93312, Note_off_c, 9, 36, 0
8, 93312, Note_on_c, 9, 40, 117
8, 93312, Note_on_c, 9, 46, 72
8, 93318, Note_on_c, 9, 54, 87
8, 93388, Note_off_c, 9, 54, 0
8, 93408, Note_on_c, 9, 54, 54
8, 93504, Note_off_c, 9, 54, 0
8, 93504, Note_off_c, 9, 46, 0
8, 93504, Note_off_c, 9, 40, 0
8, 93504, Note_on_c, 9, 46, 61
8, 93516, Note_on_c, 9, 54, 52
8, 93564, Note_off_c, 9, 54, 0
8, 93596, Note_on_c, 9, 54, 48
8, 93644, Note_off_c, 9, 54, 0
8, 93692, Note_on_c, 9, 54, 74
8, 93696, Note_off_c, 9, 46, 0
8, 93696, Note_on_c, 9, 36, 102
8, 93696, Note_on_c, 9, 46, 72
8, 93756, Note_off_c, 9, 54, 0
8, 93795, Note_on_c, 9, 54, 52
8, 93840, Note_off_c, 9, 54, 0
8, 93888, Note_off_c, 9, 46, 0
8, 93888, Note_off_c, 9, 36, 0
8, 93888, Note_on_c, 9, 46, 60
8, 93897, Note_on_c, 9, 54, 50
8, 93948, Note_off_c, 9, 54, 0
8, 93993, Note_on_c, 9, 54, 50
8, 94028, Note_off_c, 9, 54, 0
8, 94080, Note_off_c, 9, 46, 0
8, 94080, Note_on_c, 9, 40, 117
8, 94080, Note_on_c, 9, 46, 66
8, 94092, Note_on_c, 9, 54, 87
8, 94163, Note_off_c, 9, 54, 0
8, 94188, Note_on_c, 9, 54, 56
8, 94227, Note_off_c, 9, 54, 0
8, 94272, Note_off_c, 9, 46, 0
8, 94272, Note_off_c, 9, 40, 0
8, 94272, Note_on_c, 9, 36, 95
8, 94272, Note_on_c, 9, 46, 66
8, 94291, Note_on_c, 9, 54, 56
8, 94336, Note_off_c, 9, 54, 0
8, 94384, Note_on_c, 9, 54, 50
8, 94419, Note_off_c, 9, 54, 0
8, 94464, Note_off_c, 9, 46, 0
8, 94464, Note_off_c, 9, 36, 0
8, 94464, Note_on_c, 9, 46, 66
8, 94467, Note_on_c, 9, 54, 85
8, 94531, Note_off_c, 9, 54, 0
8, 94560, Note_on_c, 9, 54, 54
8, 94656, Note_off_c, 9, 54, 0
8, 94656, Note_off_c, 9, 46, 0
8, 94656, Note_on_c, 9, 36, 95
8, 94656, Note_on_c, 9, 46, 74
8, 94659, Note_on_c, 9, 54, 57
8, 94707, Note_off_c, 9, 54, 0
8, 94755, Note_on_c, 9, 54, 53
8, 94793, Note_off_c, 9, 54, 0
8, 94841, Note_on_c, 9, 54, 87
8, 94848, Note_off_c, 9, 46, 0
8, 94848, Note_off_c, 9, 36, 0
8, 94848, Note_on_c, 9, 40, 117
8, 94848, Note_on_c, 9, 46, 87
8, 94915, Note_off_c, 9, 54, 0
8, 94944, Note_on_c, 9, 54, 55
8, 94982, Note_off_c, 9, 54, 0
8, 95033, Note_on_c, 9, 54, 59
8, 95040, Note_off_c, 9, 46, 0
8, 95040, Note_off_c, 9, 40, 0
8, 95040, Note_on_c, 9, 46, 74
8, 95084, Note_off_c, 9, 54, 0
8, 95126, Note_on_c, 9, 54, 56
8, 95168, Note_off_c, 9, 54, 0
8, 95232, Note_off_c, 9, 46, 0
8, 95232, Note_on_c, 9, 36, 96
8, 95232, Note_on_c, 9, 46, 62
8, 95241, Note_on_c, 9, 54, 82
8, 95292, Note_off_c, 9, 54, 0
8, 95340, Note_on_c, 9, 54, 46
8, 95388, Note_off_c, 9, 54, 0
8, 95424, Note_off_c, 9, 46, 0
8, 95424, Note_off_c, 9, 36, 0
8, 95424, Note_on_c, 9, 46, 53
8, 95430, Note_on_c, 9, 54, 54
8, 95475, Note_off_c, 9, 54, 0
8, 95520, Note_on_c, 9, 54, 54
8, 95616, Note_off_c, 9, 54, 0
8, 95616, Note_off_c, 9, 46, 0
8, 95616, Note_on_c, 9, 40, 117
8, 95616, Note_on_c, 9, 46, 72
8, 95619, Note_on_c, 9, 54, 87
8, 95676, Note_off_c, 9, 54, 0
8, 95715, Note_on_c, 9, 54, 49
8, 95772, Note_off_c, 9, 54, 0
8, 95808, Note_off_c, 9, 46, 0
8, 95808, Note_off_c, 9, 40, 0
8, 95808, Note_on_c, 9, 36, 103
8, 95808, Note_on_c, 9, 46, 64
8, 95827, Note_on_c, 9, 54, 59
8, 95856, Note_off_c, 9, 54, 0
8, 95910, Note_on_c, 9, 54, 50
8, 95955, Note_off_c, 9, 54, 0
8, 96000, Note_off_c, 9, 46, 0
8, 96000, Note_off_c, 9, 36, 0
8, 96000, Note_on_c, 9, 46, 61
8, 96003, Note_on_c, 9, 54, 79
8, 96070, Note_off_c, 9, 54, 0
8, 96102, Note_on_c, 9, 54, 48
8, 96156, Note_off_c, 9, 54, 0
8, 96192, Note_off_c, 9, 46, 0
8, 96192, Note_on_c, 9, 36, 100
8, 96192, Note_on_c, 9, 46, 61
8, 96204, Note_on_c, 9, 54, 56
8, 96256, Note_off_c, 9, 54, 0
8, 96288, Note_on_c, 9, 54, 52
8, 96339, Note_off_c, 9, 54, 0
8, 96384, Note_off_c, 9, 46, 0
8, 96384, Note_off_c, 9, 36, 0
8, 96384, Note_on_c, 9, 40, 117
8, 96384, Note_on_c, 9, 46, 74
8, 96396, Note_on_c, 9, 54, 87
8, 96467, Note_off_c, 9, 54, 0
8, 96489, Note_on_c, 9, 54, 50
8, 96544, Note_off_c, 9, 54, 0
8, 96576, Note_off_c, 9, 46, 0
8, 96576, Note_off_c, 9, 40, 0
8, 96576, Note_on_c, 9, 46, 61
8, 96592, Note_on_c, 9, 54, 51
8, 96643, Note_off_c, 9, 54, 0
8, 96684, Note_on_c, 9, 54, 47
8, 96732, Note_off_c, 9, 54, 0
8, 96768, Note_off_c, 9, 46, 0
8, 96768, Note_on_c, 9, 36, 109
8, 96768, Note_on_c, 9, 46, 70
8, 96777, Note_on_c, 9, 54, 74
8, 96844, Note_off_c, 9, 54, 0
8, 96860, Note_on_c, 9, 54, 50
8, 96915, Note_off_c, 9, 54, 0
8, 96960, Note_off_c, 9, 46, 0
8, 96960, Note_off_c, 9, 36, 0
8, 96960, Note_on_c, 9, 46, 66
8, 96966, Note_on_c, 9, 54, 53
8, 97014, Note_off_c, 9, 54, 0
8, 97052, Note_on_c, 9, 54, 48
8, 97100, Note_off_c, 9, 54, 0
8, 97152, Note_off_c, 9, 46, 0
8, 97152, Note_on_c, 9, 40, 117
8, 97152, Note_on_c, 9, 46, 64
8, 97161, Note_on_c, 9, 54, 85
8, 97235, Note_off_c, 9, 54, 0
8, 97248, Note_on_c, 9, 54, 54
8, 97344, Note_off_c, 9, 54, 0
8, 97344, Note_off_c, 9, 46, 0
8, 97344, Note_off_c, 9, 40, 0
8, 97344, Note_on_c, 9, 36, 99
8, 97344, Note_on_c, 9, 46, 68
8, 97363, Note_on_c, 9, 54, 50
8, 97401, Note_off_c, 9, 54, 0
8, 97446, Note_on_c, 9, 54, 47
8, 97491, Note_off_c, 9, 54, 0
8, 97536, Note_off_c, 9, 46, 0
8, 97536, Note_off_c, 9, 36, 0
8, 97536, Note_on_c, 9, 46, 74
8, 97539, Note_on_c, 9, 54, 66
8, 97590, Note_off_c, 9, 54, 0
8, 97622, Note_on_c, 9, 54, 47
8, 97676, Note_off_c, 9, 54, 0
8, 97728, Note_off_c, 9, 46, 0
8, 97728, Note_on_c, 9, 36, 95
8, 97728, Note_on_c, 9, 46, 68
8, 97731, Note_on_c, 9, 54, 47
8, 97779, Note_off_c, 9, 54, 0
8, 97833, Note_on_c, 9, 54, 47
8, 97878, Note_off_c, 9, 54, 0
8, 97920, Note_off_c, 9, 46, 0
8, 97920, Note_off_c, 9, 36, 0
8, 97920, Note_on_c, 9, 40, 117
8, 97920, Note_on_c, 9, 46, 72
8, 97926, Note_on_c, 9, 54, 87
8, 97996, Note_off_c, 9, 54, 0
8, 98016, Note_on_c, 9, 54, 54
8, 98112, Note_off_c, 9, 54, 0
8, 98112, Note_off_c, 9, 46, 0
8, 98112, Note_off_c, 9, 40, 0
8, 98112, Note_on_c, 9, 46, 61
8, 98124, Note_on_c, 9, 54, 52
8, 98172, Note_off_c, 9, 54, 0
8, 98204, Note_on_c, 9, 54, 48
8, 98252, Note_off_c, 9, 54, 0
8, 98300, Note_on_c, 9, 54, 74
8, 98304, Note_off_c, 9, 46, 0
8, 98304, Note_on_c, 9, 36, 102
8, 98304, Note_on_c, 9, 46, 72
8, 98304, Note_on_c, 9, 49, 80
8, 98364, Note_off_c, 9, 54, 0
8, 98403, Note_on_c, 9, 54, 52
8, 98448, Note_off_c, 9, 54, 0
8, 98496, Note_off_c, 9, 46, 0
8, 98496, Note_off_c, 9, 36, 0
8, 98496, Note_on_c, 9, 46, 60
8, 98505, Note_on_c, 9, 54, 50
8, 98556, Note_off_c, 9, 54, 0
8, 98601, Note_on_c, 9, 54, 50
8, 98636, Note_off_c, 9, 54, 0
8, 98688, Note_off_c, 9, 46, 0
8, 98688, Note_on_c, 9, 40, 117
8, 98688, Note_on_c, 9, 46, 66
8, 98700, Note_on_c, 9, 54, 87
8, 98771, Note_off_c, 9, 54, 0
8, 98796, Note_on_c, 9, 54, 56
8, 98835, Note_off_c, 9, 54, 0
8, 98880, Note_off_c, 9, 46, 0
8, 98880, Note_off_c, 9, 40, 0
8, 98880, Note_off_c, 9, 49, 0
8, 98880, Note_on_c, 9, 36, 95
8, 98880, Note_on_c, 9, 46, 66
8, 98899, Note_on_c, 9, 54, 56
8, 98944, Note_off_c, 9, 54, 0
8, 98992, Note_on_c, 9, 54, 50
8, 99027, Note_off_c, 9, 54, 0
8, 99072, Note_off_c, 9, 46, 0
8, 99072, Note_off_c, 9, 36, 0
8, 99072, Note_on_c, 9, 46, 66
8, 99075, Note_on_c, 9, 54, 85
8, 99139, Note_off_c, 9, 54, 0
8, 99168, Note_on_c, 9, 54, 54
8, 99264, Note_off_c, 9, 54, 0
8, 99264, Note_off_c, 9, 46, 0
8, 99264, Note_on_c, 9, 36, 95
8, 99264, Note_on_c, 9, 46, 74
8, 99267, Note_on_c, 9, 54, 57
8, 99315, Note_off_c, 9, 54, 0
8, 99363, Note_on_c, 9, 54, 53
8, 99401, Note_off_c, 9, 54, 0
8, 99449, Note_on_c, 9, 54, 87
8, 99456, Note_off_c, 9, 46, 0
8, 99456, Note_off_c, 9, 36, 0
8, 99456, Note_on_c, 9, 40, 117
8, 99456, Note_on_c, 9, 46, 87
8, 99523, Note_off_c, 9, 54, 0
8, 99552, Note_on_c, 9, 54, 55
8, 99590, Note_off_c, 9, 54, 0
8, 99641, Note_on_c, 9, 54, 59
8, 99648, Note_off_c, 9, 46, 0
8, 99648, Note_off_c, 9, 40, 0
8, 99648, Note_on_c, 9, 46, 74
8, 99692, Note_off_c, 9, 54, 0
8, 99734, Note_on_c, 9, 54, 56
8, 99776, Note_off_c, 9, 54, 0
8, 99840, Note_off_c, 9, 46, 0
8, 99840, Note_on_c, 9, 36, 96
8, 99840, Note_on_c, 9, 46, 62
8, 99849, Note_on_c, 9, 54, 82
8, 99900, Note_off_c, 9, 54, 0
8, 99948, Note_on_c, 9, 54, 46
8, 99996, Note_off_c, 9, 54, 0
8, 100032, Note_off_c, 9, 46, 0
8, 100032, Note_off_c, 9, 36, 0
8, 100032, Note_on_c, 9, 46, 53
8, 100038, Note_on_c, 9, 54, 54
8, 100083, Note_off_c, 9, 54, 0
8, 100128, Note_on_c, 9, 54, 54
8, 100224, Note_off_c, 9, 54, 0
8, 100224, Note_off_c, 9, 46, 0
8, 100224, Note_on_c, 9, 40, 117
8, 100224, Note_on_c, 9, 46, 72
8, 100227, Note_on_c, 9, 54, 87
8, 100284, Note_off_c, 9, 54, 0
8, 100323, Note_on_c, 9, 54, 49
8, 100380, Note_off_c, 9, 54, 0
8, 100416, Note_off_c, 9, 46, 0
8, 100416, Note_off_c, 9, 40, 0
8, 100416, Note_on_c, 9, 36, 103
8, 100416, Note_on_c, 9, 46, 64
8, 100435, Note_on_c, 9, 54, 59
8, 100464, Note_off_c, 9, 54, 0
8, 100518, Note_on_c, 9, 54, 50
8, 100563, Note_off_c, 9, 54, 0
8, 100608, Note_off_c, 9, 46, 0
8, 100608, Note_off_c, 9, 36, 0
8, 100608, Note_on_c, 9, 46, 61
8, 100611, Note_on_c, 9, 54, 79
8, 100678, Note_off_c, 9, 54, 0
8, 100710, Note_on_c, 9, 54, 48
8, 100764, Note_off_c, 9, 54, 0
8, 100800, Note_off_c, 9, 46, 0
8, 100800, Note_on_c, 9, 36, 100
8, 100800, Note_on_c, 9, 46, 61
8, 100812, Note_on_c, 9, 54, 56
8, 100864, Note_off_c, 9, 54, 0
8, 100896, Note_on_c, 9, 54, 52
8, 100947, Note_off_c, 9, 54, 0
8, 100992, Note_off_c, 9, 46, 0
8, 100992, Note_off_c, 9, 36, 0
8, 100992, Note_on_c, 9, 40, 117
8, 100992, Note_on_c, 9, 46, 74
8, 101004, Note_on_c, 9, 54, 87
8, 101075, Note_off_c, 9, 54, 0
8, 101097, Note_on_c, 9, 54, 50
8, 101152, Note_off_c, 9, 54, 0
8, 101184, Note_off_c, 9, 46, 0
8, 101184, Note_off_c, 9, 40, 0
8, 101184, Note_on_c, 9, 46, 61
8, 101200, Note_on_c, 9, 54, 51
8, 101251, Note_off_c, 9, 54, 0
8, 101292, Note_on_c, 9, 54, 47
8, 101340, Note_off_c, 9, 54, 0
8, 101376, Note_off_c, 9, 46, 0
8, 101376, Note_on_c, 9, 36, 109
8, 101376, Note_on_c, 9, 46, 70
8, 101385, Note_on_c, 9, 54, 74
8, 101452, Note_off_c, 9, 54, 0
8, 101468, Note_on_c, 9, 54, 50
8, 101523, Note_off_c, 9, 54, 0
8, 101568, Note_off_c, 9, 46, 0
8, 101568, Note_off_c, 9, 36, 0
8, 101568, Note_on_c, 9, 46, 66
8, 101574, Note_on_c, 9, 54, 53
8, 101622, Note_off_c, 9, 54, 0
8, 101660, Note_on_c, 9, 54, 48
8, 101708, Note_off_c, 9, 54, 0
8, 101760, Note_off_c, 9, 46, 0
8, 101760, Note_on_c, 9, 40, 117
8, 101760, Note_on_c, 9, 46, 64
8, 101769, Note_on_c, 9, 54, 85
8, 101843, Note_off_c, 9, 54, 0
8, 101856, Note_on_c, 9, 54, 54
8, 101952, Note_off_c, 9, 54, 0
8, 101952, Note_off_c, 9, 46, 0
8, 101952, Note_off_c, 9, 40, 0
8, 101952, Note_on_c, 9, 36, 99
8, 101952, Note_on_c, 9, 46, 68
8, 101971, Note_on_c, 9, 54, 50
8, 102009, Note_off_c, 9, 54, 0
8, 102054, Note_on_c, 9, 54, 47
8, 102099, Note_off_c, 9, 54, 0
8, 102144, Note_off_c, 9, 46, 0
8, 102144, Note_off_c, 9, 36, 0
8, 102144, Note_on_c, 9, 46, 74
8, 102147, Note_on_c, 9, 54, 66
8, 102198, Note_off_c, 9, 54, 0
8, 102230, Note_on_c, 9, 54, 47
8, 102284, Note_off_c, 9, 54, 0
8, 102336, Note_off_c, 9, 46, 0
8, 102336, Note_on_c, 9, 36, 95
8, 102336, Note_on_c, 9, 46, 68
8, 102339, Note_on_c, 9, 54, 47
8, 102387, Note_off_c, 9, 54, 0
8, 102441, Note_on_c, 9, 54, 47
8, 102486, Note_off_c, 9, 54, 0
8, 102528, Note_off_c, 9, 46, 0
8, 102528, Note_off_c, 9, 36, 0
8, 102528, Note_on_c, 9, 40, 117
8, 102528, Note_on_c, 9, 46, 72
8, 102534, Note_on_c, 9, 54, 87
8, 102604, Note_off_c, 9, 54, 0
8, 102624, Note_on_c, 9, 54, 54
8, 102720, Note_off_c, 9, 54, 0
8, 102720, Note_off_c, 9, 46, 0
8, 102720, Note_off_c, 9, 40, 0
8, 102720, Note_on_c, 9, 46, 61
8, 102732, Note_on_c, 9, 54, 52
8, 102780, Note_off_c, 9, 54, 0
8, 102812, Note_on_c, 9, 54, 48
8, 102860, Note_off_c, 9, 54, 0
8, 102908, Note_on_c, 9, 54, 74
8, 102912, Note_off_c, 9, 46, 0
8, 102912, Note_on_c, 9, 36, 102
8, 102912, Note_on_c, 9, 46, 72
8, 102972, Note_off_c, 9, 54, 0
8, 103011, Note_on_c, 9, 54, 52
8, 103056, Note_off_c, 9, 54, 0
8, 103104, Note_off_c, 9, 46, 0
8, 103104, Note_off_c, 9, 36, 0
8, 103104, Note_on_c, 9, 46, 60
8, 103113, Note_on_c, 9, 54, 50
8, 103164, Note_off_c, 9, 54, 0
8, 103209, Note_on_c, 9, 54, 50
8, 103244, Note_off_c, 9, 54, 0
8, 103296, Note_off_c, 9, 46, 0
8, 103296, Note_on_c, 9, 40, 117
8, 103296, Note_on_c, 9, 46, 66
8, 103308, Note_on_c, 9, 54, 87
8, 103379, Note_off_c, 9, 54, 0
8, 103404, Note_on_c, 9, 54, 56
8, 103443, Note_off_c, 9, 54, 0
8, 103488, Note_off_c, 9, 46, 0
8, 103488, Note_off_c, 9, 40, 0
8, 103488, Note_on_c, 9, 36, 95
8, 103488, Note_on_c, 9, 46, 66
8, 103507, Note_on_c, 9, 54, 56
8, 103552, Note_off_c, 9, 54, 0
8, 103600, Note_on_c, 9, 54, 50
8, 103635, Note_off_c, 9, 54, 0
8, 103680, Note_off_c, 9, 46, 0
8, 103680, Note_off_c, 9, 36, 0
8, 103680, Note_on_c, 9, 46, 66
8, 103683, Note_on_c, 9, 54, 85
8, 103747, Note_off_c, 9, 54, 0
8, 103776, Note_on_c, 9, 54, 54
8, 103872, Note_off_c, 9, 54, 0
8, 103872, Note_off_c, 9, 46, 0
8, 103872, Note_on_c, 9, 36, 95
8, 103872, Note_on_c, 9, 46, 74
8, 103875, Note_on_c, 9, 54, 57
8, 103923, Note_off_c, 9, 54, 0
8, 103971, Note_on_c, 9, 54, 53
8, 104009, Note_off_c, 9, 54, 0
8, 104057, Note_on_c, 9, 54, 87
8, 104064, Note_off_c, 9, 46, 0
8, 104064, Note_off_c, 9, 36, 0
8, 104064, Note_on_c, 9, 40, 117
8, 104064, Note_on_c, 9, 46, 87
8, 104131, Note_off_c, 9, 54, 0
8, 104160, Note_on_c, 9, 54, 55
8, 104198, Note_off_c, 9, 54, 0
8, 104249, Note_on_c, 9, 54, 59
8, 104256, Note_off_c, 9, 46, 0
8, 104256, Note_off_c, 9, 40, 0
8, 104256, Note_on_c, 9, 46, 74
8, 104300, Note_off_c, 9, 54, 0
8, 104342, Note_on_c, 9, 54, 56
8, 104384, Note_off_c, 9, 54, 0
8, 104448, Note_off_c, 9, 46, 0
8, 104448, Note_on_c, 9, 36, 96
8, 104448, Note_on_c, 9, 46, 62
8, 104448, Note_on_c, 9, 49, 85
8, 104457, Note_on_c, 9, 54, 82
8, 104508, Note_off_c, 9, 54, 0
8, 104556, Note_on_c, 9, 54, 46
8, 104604, Note_off_c, 9, 54, 0
8, 104640, Note_off_c, 9, 46, 0
8, 104640, Note_off_c, 9, 36, 0
8, 104640, Note_on_c, 9, 46, 53
8, 104646, Note_on_c, 9, 54, 54
8, 104691, Note_off_c, 9, 54, 0
8, 104736, Note_on_c, 9, 54, 54
8, 104832, Note_off_c, 9, 54, 0
8, 104832, Note_off_c, 9, 46, 0
8, 104832, Note_on_c, 9, 40, 117
8, 104832, Note_on_c, 9, 46, 72
8, 104835, Note_on_c, 9, 54, 87
8, 104892, Note_off_c, 9, 54, 0
8, 104931, Note_on_c, 9, 54, 49
8, 104988, Note_off_c, 9, 54, 0
8, 105024, Note_off_c, 9, 46, 0
8, 105024, Note_off_c, 9, 40, 0
8, 105024, Note_off_c, 9, 49, 0
8, 105024, Note_on_c, 9, 36, 103
8, 105024, Note_on_c, 9, 46, 64
8, 105043, Note_on_c, 9, 54, 59
8, 105072, Note_off_c, 9, 54, 0
8, 105126, Note_on_c, 9, 54, 50
8, 105171, Note_off_c, 9, 54, 0
8, 105216, Note_off_c, 9, 46, 0
8, 105216, Note_off_c, 9, 36, 0
8, 105216, Note_on_c, 9, 46, 61
8, 105219, Note_on_c, 9, 54, 79
8, 105286, Note_off_c, 9, 54, 0
8, 105318, Note_on_c, 9, 54, 48
8, 105372, Note_off_c, 9, 54, 0
8, 105408, Note_off_c, 9, 46, 0
8, 105408, Note_on_c, 9, 36, 100
8, 105408, Note_on_c, 9, 46, 61
8, 105420, Note_on_c, 9, 54, 56
8, 105472, Note_off_c, 9, 54, 0
8, 105504, Note_on_c, 9, 54, 52
8, 105555, Note_off_c, 9, 54, 0
8, 105600, Note_off_c, 9, 46, 0
8, 105600, Note_off_c, 9, 36, 0
8, 105600, Note_on_c, 9, 40, 117
8, 105600, Note_on_c, 9, 46, 74
8, 105612, Note_on_c, 9, 54, 87
8, 105683, Note_off_c, 9, 54, 0
8, 105705, Note_on_c, 9, 54, 50
8, 105760, Note_off_c, 9, 54, 0
8, 105792, Note_off_c, 9, 46, 0
8, 105792, Note_off_c, 9, 40, 0
8, 105792, Note_on_c, 9, 46, 61
8, 105808, Note_on_c, 9, 54, 51
8, 105859, Note_off_c, 9, 54, 0
8, 105900, Note_on_c, 9, 54, 47
8, 105948, Note_off_c, 9, 54, 0
8, 105984, Note_off_c, 9, 46, 0
8, 105984, Note_on_c, 9, 36, 109
8, 105984, Note_on_c, 9, 46, 70
8, 105993, Note_on_c, 9, 54, 74
8, 106060, Note_off_c, 9, 54, 0
8, 106076, Note_on_c, 9, 54, 50
8, 106131, Note_off_c, 9, 54, 0
8, 106176, Note_off_c, 9, 46, 0
8, 106176, Note_off_c, 9, 36, 0
8, 106176, Note_on_c, 9, 46, 66
8, 106182, Note_on_c, 9, 54, 53
8, 106230, Note_off_c, 9, 54, 0
8, 106268, Note_on_c, 9, 54, 48
8, 106316, Note_off_c, 9, 54, 0
8, 106368, Note_off_c, 9, 46, 0
8, 106368, Note_on_c, 9, 40, 117
8, 106368, Note_on_c, 9, 46, 64
8, 106377, Note_on_c, 9, 54, 85
8, 106451, Note_off_c, 9, 54, 0
8, 106464, Note_on_c, 9, 54, 54
8, 106560, Note_off_c, 9, 54, 0
8, 106560, Note_off_c, 9, 46, 0
8, 106560, Note_off_c, 9, 40, 0
8, 106560, Note_on_c, 9, 36, 99
8, 106560, Note_on_c, 9, 46, 68
8, 106579, Note_on_c, 9, 54, 50
8, 106617, Note_off_c, 9, 54, 0
8, 106662, Note_on_c, 9, 54, 47
8, 106707, Note_off_c, 9, 54, 0
8, 106752, Note_off_c, 9, 46, 0
8, 106752, Note_off_c, 9, 36, 0
8, 106752, Note_on_c, 9, 46, 74
8, 106755, Note_on_c, 9, 54, 66
8, 106806, Note_off_c, 9, 54, 0
8, 106838, Note_on_c, 9, 54, 47
8, 106892, Note_off_c, 9, 54, 0
8, 106944, Note_off_c, 9, 46, 0
8, 106944, Note_on_c, 9, 36, 95
8, 106944, Note_on_c, 9, 46, 68
8, 106947, Note_on_c, 9, 54, 47
8, 106995, Note_off_c, 9, 54, 0
8, 107049, Note_on_c, 9, 54, 47
8, 107094, Note_off_c, 9, 54, 0
8, 107136, Note_off_c, 9, 46, 0
8, 107136, Note_off_c, 9, 36, 0
8, 107136, Note_on_c, 9, 40, 117
8, 107136, Note_on_c, 9, 46, 72
8, 107142, Note_on_c, 9, 54, 87
8, 107212, Note_off_c, 9, 54, 0
8, 107232, Note_on_c, 9, 54, 54
8, 107328, Note_off_c, 9, 54, 0
8, 107328, Note_off_c, 9, 46, 0
8, 107328, Note_off_c, 9, 40, 0
8, 107328, Note_on_c, 9, 46, 61
8, 107340, Note_on_c, 9, 54, 52
8, 107388, Note_off_c, 9, 54, 0
8, 107420, Note_on_c, 9, 54, 48
8, 107468, Note_off_c, 9, 54, 0
8, 107516, Note_on_c, 9, 54, 74
8, 107520, Note_off_c, 9, 46, 0
8, 107520, Note_on_c, 9, 36, 102
8, 107520, Note_on_c, 9, 46, 72
8, 107580, Note_off_c, 9, 54, 0
8, 107619, Note_on_c, 9, 54, 52
8, 107664, Note_off_c, 9, 54, 0
8, 107712, Note_off_c, 9, 46, 0
8, 107712, Note_off_c, 9, 36, 0
8, 107712, Note_on_c, 9, 46, 60
8, 107721, Note_on_c, 9, 54, 50
8, 107772, Note_off_c, 9, 54, 0
8, 107817, Note_on_c, 9, 54, 50
8, 107852, Note_off_c, 9, 54, 0
8, 107904, Note_off_c, 9, 46, 0
8, 107904, Note_on_c, 9, 40, 117
8, 107904, Note_on_c, 9, 46, 66
8, 107916, Note_on_c, 9, 54, 87
8, 107987, Note_off_c, 9, 54, 0
8, 108012, Note_on_c, 9, 54, 56
8, 108051, Note_off_c, 9, 54, 0
8, 108096, Note_off_c, 9, 46, 0
8, 108096, Note_off_c, 9, 40, 0
8, 108096, Note_on_c, 9, 36, 95
8, 108096, Note_on_c, 9, 46, 66
8, 108115, Note_on_c, 9, 54, 56
8, 108160, Note_off_c, 9, 54, 0
8, 108208, Note_on_c, 9, 54, 50
8, 108243, Note_off_c, 9, 54, 0
8, 108288, Note_off_c, 9, 46, 0
8, 108288, Note_off_c, 9, 36, 0
8, 108288, Note_on_c, 9, 46, 66
8, 108291, Note_on_c, 9, 54, 85
8, 108355, Note_off_c, 9, 54, 0
8, 108384, Note_on_c, 9, 54, 54
8, 108480, Note_off_c, 9, 54, 0
8, 108480, Note_off_c, 9, 46, 0
8, 108480, Note_on_c, 9, 36, 95
8, 108480, Note_on_c, 9, 46, 74
8, 108483, Note_on_c, 9, 54, 57
8, 108531, Note_off_c, 9, 54, 0
8, 108579, Note_on_c, 9, 54, 53
8, 108617, Note_off_c, 9, 54, 0
8, 108665, Note_on_c, 9, 54, 87
8, 108672, Note_off_c, 9, 46, 0
8, 108672, Note_off_c, 9, 36, 0
8, 108672, Note_on_c, 9, 40, 117
8, 108672, Note_on_c, 9, 46, 87
8, 108739, Note_off_c, 9, 54, 0
8, 108768, Note_on_c, 9, 54, 55
8, 108806, Note_off_c, 9, 54, 0
8, 108857, Note_on_c, 9, 54, 59
8, 108864, Note_off_c, 9, 46, 0
8, 108864, Note_off_c, 9, 40, 0
8, 108864, Note_on_c, 9, 46, 74
8, 108908, Note_off_c, 9, 54, 0
8, 108950, Note_on_c, 9, 54, 56
8, 108992, Note_off_c, 9, 54, 0
8, 109056, Note_off_c, 9, 46, 0
8, 109056, Note_on_c, 9, 36, 96
8, 109056, Note_on_c, 9, 46, 62
8, 109065, Note_on_c, 9, 54, 82
8, 109116, Note_off_c, 9, 54, 0
8, 109164, Note_on_c, 9, 54, 46
8, 109212, Note_off_c, 9, 54, 0
8, 109248, Note_off_c, 9, 46, 0
8, 109248, Note_off_c, 9, 36, 0
8, 109248, Note_on_c, 9, 46, 53
8, 109254, Note_on_c, 9, 54, 54
8, 109299, Note_off_c, 9, 54, 0
8, 109344, Note_on_c, 9, 54, 54
8, 109440, Note_off_c, 9, 54, 0
8, 109440, Note_off_c, 9, 46, 0
8, 109440, Note_on_c, 9, 40, 117
8, 109440, Note_on_c, 9, 46, 72
8, 109443, Note_on_c, 9, 54, 87
8, 109500, Note_off_c, 9, 54, 0
8, 109539, Note_on_c, 9, 54, 49
8, 109596, Note_off_c, 9, 54, 0
8, 109632, Note_off_c, 9, 46, 0
8, 109632, Note_off_c, 9, 40, 0
8, 109632, Note_on_c, 9, 36, 103
8, 109632, Note_on_c, 9, 46, 64
8, 109651, Note_on_c, 9, 54, 59
8, 109680, Note_off_c, 9, 54, 0
8, 109734, Note_on_c, 9, 54, 50
8, 109779, Note_off_c, 9, 54, 0
8, 109824, Note_off_c, 9, 46, 0
8, 109824, Note_off_c, 9, 36, 0
8, 109824, Note_on_c, 9, 46, 61
8, 109827, Note_on_c, 9, 54, 79
8, 109894, Note_off_c, 9, 54, 0
8, 109926, Note_on_c, 9, 54, 48
8, 109980, Note_off_c, 9, 54, 0
8, 110016, Note_off_c, 9, 46, 0
8, 110016, Note_on_c, 9, 36, 100
8, 110016, Note_on_c, 9, 46, 61
8, 110028, Note_on_c, 9, 54, 56
8, 110080, Note_off_c, 9, 54, 0
8, 110112, Note_on_c, 9, 54, 52
8, 110163, Note_off_c, 9, 54, 0
8, 110208, Note_off_c, 9, 46, 0
8, 110208, Note_off_c, 9, 36, 0
8, 110208, Note_on_c, 9, 40, 117
8, 110208, Note_on_c, 9, 46, 74
8, 110220, Note_on_c, 9, 54, 87
8, 110291, Note_off_c, 9, 54, 0
8, 110313, Note_on_c, 9, 54, 50
8, 110368, Note_off_c, 9, 54, 0
8, 110400, Note_off_c, 9, 46, 0
8, 110400, Note_off_c, 9, 40, 0
8, 110400, Note_on_c, 9, 46, 61
8, 110416, Note_on_c, 9, 54, 51
8, 110467, Note_off_c, 9, 54, 0
8, 110508, Note_on_c, 9, 54, 47
8, 110556, Note_off_c, 9, 54, 0
8, 110592, Note_off_c, 9, 46, 0
8, 110592, Note_on_c, 9, 36, 109
8, 110592, Note_on_c, 9, 46, 70
8, 110592, Note_on_c, 9, 49, 73
8, 110601, Note_on_c, 9, 54, 74
8, 110668, Note_off_c, 9, 54, 0
8, 110684, Note_on_c, 9, 54, 50
8, 110739, Note_off_c, 9, 54, 0
8, 110784, Note_off_c, 9, 46, 0
8, 110784, Note_off_c, 9, 36, 0
8, 110784, Note_on_c, 9, 46, 66
8, 110790, Note_on_c, 9, 54, 53
8, 110838, Note_off_c, 9, 54, 0
8, 110876, Note_on_c, 9, 54, 48
8, 110924, Note_off_c, 9, 54, 0
8, 110976, Note_off_c, 9, 46, 0
8, 110976, Note_on_c, 9, 40, 117
8, 110976, Note_on_c, 9, 46, 64
8, 110985, Note_on_c, 9, 54, 85
8, 111059, Note_off_c, 9, 54, 0
8, 111072, Note_on_c, 9, 54, 54
8, 111168, Note_off_c, 9, 54, 0
8, 111168, Note_off_c, 9, 46, 0
8, 111168, Note_off_c, 9, 40, 0
8, 111168, Note_on_c, 9, 36, 99
8, 111168, Note_on_c, 9, 46, 68
8, 111187, Note_on_c, 9, 54, 50
8, 111225, Note_off_c, 9, 54, 0
8, 111270, Note_on_c, 9, 54, 47
8, 111315, Note_off_c, 9, 54, 0
8, 111360, Note_off_c, 9, 46, 0
8, 111360, Note_off_c, 9, 36, 0
8, 111360, Note_on_c, 9, 46, 74
8, 111363, Note_on_c, 9, 54, 66
8, 111414, Note_off_c, 9, 54, 0
8, 111446, Note_on_c, 9, 54, 47
8, 111500, Note_off_c, 9, 54, 0
8, 111552, Note_off_c, 9, 46, 0
8, 111552, Note_on_c, 9, 36, 95
8, 111552, Note_on_c, 9, 46, 68
8, 111555, Note_on_c, 9, 54, 47
8, 111603, Note_off_c, 9, 54, 0
8, 111657, Note_on_c, 9, 54, 47
8, 111702, Note_off_c, 9, 54, 0
8, 111744, Note_off_c, 9, 46, 0
8, 111744, Note_off_c, 9, 36, 0
8, 111744, Note_off_c, 9, 49, 0
8, 111744, Note_on_c, 9, 40, 117
8, 111744, Note_on_c, 9, 46, 72
8, 111750, Note_on_c, 9, 54, 87
8, 111820, Note_off_c, 9, 54, 0
8, 111840, Note_on_c, 9, 54, 54
8, 111936, Note_off_c, 9, 54, 0
8, 111936, Note_off_c, 9, 46, 0
8, 111936, Note_off_c, 9, 40, 0
8, 111936, Note_on_c, 9, 46, 61
8, 111948, Note_on_c, 9, 54, 52
8, 111996, Note_off_c, 9, 54, 0
8, 112028, Note_on_c, 9, 54, 48
8, 112076, Note_off_c, 9, 54, 0
8, 112124, Note_on_c, 9, 54, 74
8, 112128, Note_off_c, 9, 46, 0
8, 112128, Note_on_c, 9, 36, 102
8, 112128, Note_on_c, 9, 46, 72
8, 112188, Note_off_c, 9, 54, 0
8, 112227, Note_on_c, 9, 54, 52
8, 112272, Note_off_c, 9, 54, 0
8, 112320, Note_off_c, 9, 46, 0
8, 112320, Note_off_c, 9, 36, 0
8, 112320, Note_on_c, 9, 46, 60
8, 112329, Note_on_c, 9, 54, 50
8, 112380, Note_off_c, 9, 54, 0
8, 112425, Note_on_c, 9, 54, 50
8, 112460, Note_off_c, 9, 54, 0
8, 112512, Note_off_c, 9, 46, 0
8, 112512, Note_on_c, 9, 40, 117
8, 112512, Note_on_c, 9, 46, 66
8, 112524, Note_on_c, 9, 54, 87
8, 112595, Note_off_c, 9, 54, 0
8, 112620, Note_on_c, 9, 54, 56
8, 112659, Note_off_c, 9, 54, 0
8, 112704, Note_off_c, 9, 46, 0
8, 112704, Note_off_c, 9, 40, 0
8, 112704, Note_on_c, 9, 36, 95
8, 112704, Note_on_c, 9, 46, 66
8, 112723, Note_on_c, 9, 54, 56
8, 112768, Note_off_c, 9, 54, 0
8, 112816, Note_on_c, 9, 54, 50
8, 112851, Note_off_c, 9, 54, 0
8, 112896, Note_off_c, 9, 46, 0
8, 112896, Note_off_c, 9, 36, 0
8, 112896, Note_on_c, 9, 46, 66
8, 112899, Note_on_c, 9, 54, 85
8, 112963, Note_off_c, 9, 54, 0
8, 112992, Note_on_c, 9, 54, 54
8, 113088, Note_off_c, 9, 54, 0
8, 113088, Note_off_c, 9, 46, 0
8, 113088, Note_on_c, 9, 36, 95
8, 113088, Note_on_c, 9, 46, 74
8, 113091, Note_on_c, 9, 54, 57
8, 113139, Note_off_c, 9, 54, 0
8, 113187, Note_on_c, 9, 54, 53
8, 113225, Note_off_c, 9, 54, 0
8, 113273, Note_on_c, 9, 54, 87
8, 113280, Note_off_c, 9, 46, 0
8, 113280, Note_off_c, 9, 36, 0
8, 113280, Note_on_c, 9, 40, 117
8, 113280, Note_on_c, 9, 46, 87
8, 113347, Note_off_c, 9, 54, 0
8, 113376, Note_on_c, 9, 54, 55
8, 113414, Note_off_c, 9, 54, 0
8, 113465, Note_on_c, 9, 54, 59
8, 113472, Note_off_c, 9, 46, 0
8, 113472, Note_off_c, 9, 40, 0
8, 113472, Note_on_c, 9, 46, 74
8, 113516, Note_off_c, 9, 54, 0
8, 113558, Note_on_c, 9, 54, 56
8, 113600, Note_off_c, 9, 54, 0
8, 113664, Note_off_c, 9, 46, 0
8, 113664, Note_on_c, 9, 36, 96
8, 113664, Note_on_c, 9, 46, 62
8, 113673, Note_on_c, 9, 54, 82
8, 113724, Note_off_c, 9, 54, 0
8, 113772, Note_on_c, 9, 54, 46
8, 113820, Note_off_c, 9, 54, 0
8, 113856, Note_off_c, 9, 46, 0
8, 113856, Note_off_c, 9, 36, 0
8, 113856, Note_on_c, 9, 46, 53
8, 113862, Note_on_c, 9, 54, 54
8, 113907, Note_off_c, 9, 54, 0
8, 113952, Note_on_c, 9, 54, 54
8, 114048, Note_off_c, 9, 54, 0
8, 114048, Note_off_c, 9, 46, 0
8, 114048, Note_on_c, 9, 40, 117
8, 114048, Note_on_c, 9, 46, 72
8, 114051, Note_on_c, 9, 54, 87
8, 114108, Note_off_c, 9, 54, 0
8, 114147, Note_on_c, 9, 54, 49
8, 114204, Note_off_c, 9, 54, 0
8, 114240, Note_off_c, 9, 46, 0
8, 114240, Note_off_c, 9, 40, 0
8, 114240, Note_on_c, 9, 36, 103
8, 114240, Note_on_c, 9, 46, 64
8, 114259, Note_on_c, 9, 54, 59
8, 114288, Note_off_c, 9, 54, 0
8, 114342, Note_on_c, 9, 54, 50
8, 114387, Note_off_c, 9, 54, 0
8, 114432, Note_off_c, 9, 46, 0
8, 114432, Note_off_c, 9, 36, 0
8, 114432, Note_on_c, 9, 46, 61
8, 114435, Note_on_c, 9, 54, 79
8, 114502, Note_off_c, 9, 54, 0
8, 114534, Note_on_c, 9, 54, 48
8, 114588, Note_off_c, 9, 54, 0
8, 114624, Note_off_c, 9, 46, 0
8, 114624, Note_on_c, 9, 36, 100
8, 114624, Note_on_c, 9, 46, 61
8, 114636, Note_on_c, 9, 54, 56
8, 114688, Note_off_c, 9, 54, 0
8, 114720, Note_on_c, 9, 54, 52
8, 114771, Note_off_c, 9, 54, 0
8, 114816, Note_off_c, 9, 46, 0
8, 114816, Note_off_c, 9, 36, 0
8, 114816, Note_on_c, 9, 40, 117
8, 114816, Note_on_c, 9, 46, 74
8, 114828, Note_on_c, 9, 54, 87
8, 114899, Note_off_c, 9, 54, 0
8, 114921, Note_on_c, 9, 54, 50
8, 114976, Note_off_c, 9, 54, 0
8, 115008, Note_off_c, 9, 46, 0
8, 115008, Note_off_c, 9, 40, 0
8, 115008, Note_on_c, 9, 46, 61
8, 115024, Note_on_c, 9, 54, 51
8, 115075, Note_off_c, 9, 54, 0
8, 115116, Note_on_c, 9, 54, 47
8, 115164, Note_off_c, 9, 54, 0
8, 115200, Note_off_c, 9, 46, 0
8, 115200, Note_on_c, 9, 36, 109
8, 115200, Note_on_c, 9, 46, 70
8, 115209, Note_on_c, 9, 54, 74
8, 115276, Note_off_c, 9, 54, 0
8, 115292, Note_on_c, 9, 54, 50
8, 115347, Note_off_c, 9, 54, 0
8, 115392, Note_off_c, 9, 46, 0
8, 115392, Note_off_c, 9, 36, 0
8, 115392, Note_on_c, 9, 46, 66
8, 115398, Note_on_c, 9, 54, 53
8, 115446, Note_off_c, 9, 54, 0
8, 115484, Note_on_c, 9, 54, 48
8, 115532, Note_off_c, 9, 54, 0
8, 115584, Note_off_c, 9, 46, 0
8, 115584, Note_on_c, 9, 40, 117
8, 115584, Note_on_c, 9, 46, 64
8, 115593, Note_on_c, 9, 54, 85
8, 115667, Note_off_c, 9, 54, 0
8, 115680, Note_on_c, 9, 54, 54
8, 115776, Note_off_c, 9, 54, 0
8, 115776, Note_off_c, 9, 46, 0
8, 115776, Note_off_c, 9, 40, 0
8, 115776, Note_on_c, 9, 36, 99
8, 115776, Note_on_c, 9, 46, 68
8, 115795, Note_on_c, 9, 54, 50
8, 115833, Note_off_c, 9, 54, 0
8, 115878, Note_on_c, 9, 54, 47
8, 115923, Note_off_c, 9, 54, 0
8, 115968, Note_off_c, 9, 46, 0
8, 115968, Note_off_c, 9, 36, 0
8, 115968, Note_on_c, 9, 46, 74
8, 115971, Note_on_c, 9, 54, 66
8, 116022, Note_off_c, 9, 54, 0
8, 116054, Note_on_c, 9, 54, 47
8, 116108, Note_off_c, 9, 54, 0
8, 116160, Note_off_c, 9, 46, 0
8, 116160, Note_on_c, 9, 36, 95
8, 116160, Note_on_c, 9, 46, 68
8, 116163, Note_on_c, 9, 54, 47
8, 116211, Note_off_c, 9, 54, 0
8, 116265, Note_on_c, 9, 54, 47
8, 116310, Note_off_c, 9, 54, 0
8, 116352, Note_off_c, 9, 46, 0
8, 116352, Note_off_c, 9, 36, 0
8, 116352, Note_on_c, 9, 40, 117
8, 116352, Note_on_c, 9, 46, 72
8, 116358, Note_on_c, 9, 54, 87
8, 116428, Note_off_c, 9, 54, 0
8, 116448, Note_on_c, 9, 54, 54
8, 116544, Note_off_c, 9, 54, 0
8, 116544, Note_off_c, 9, 46, 0
8, 116544, Note_off_c, 9, 40, 0
8, 116544, Note_on_c, 9, 46, 61
8, 116556, Note_on_c, 9, 54, 52
8, 116604, Note_off_c, 9, 54, 0
8, 116636, Note_on_c, 9, 54, 48
8, 116684, Note_off_c, 9, 54, 0
8, 116732, Note_on_c, 9, 54, 74
8, 116736, Note_off_c, 9, 46, 0
8, 116736, Note_on_c, 9, 36, 102
8, 116736, Note_on_c, 9, 46, 72
8, 116736, Note_on_c, 9, 49, 80
8, 116796, Note_off_c, 9, 54, 0
8, 116835, Note_on_c, 9, 54, 52
8, 116880, Note_off_c, 9, 54, 0
8, 116928, Note_off_c, 9, 46, 0
8, 116928, Note_off_c, 9, 36, 0
8, 116928, Note_on_c, 9, 46, 60
8, 116937, Note_on_c, 9, 54, 50
8, 116988, Note_off_c, 9, 54, 0
8, 117033, Note_on_c, 9, 54, 50
8, 117068, Note_off_c, 9, 54, 0
8, 117120, Note_off_c, 9, 46, 0
8, 117120, Note_on_c, 9, 40, 117
8, 117120, Note_on_c, 9, 46, 66
8, 117132, Note_on_c, 9, 54, 87
8, 117203, Note_off_c, 9, 54, 0
8, 117228, Note_on_c, 9, 54, 56
8, 117267, Note_off_c, 9, 54, 0
8, 117312, Note_off_c, 9, 46, 0
8, 117312, Note_off_c, 9, 40, 0
8, 117312, Note_on_c, 9, 36, 95
8, 117312, Note_on_c, 9, 46, 66
8, 117331, Note_on_c, 9, 54, 56
8, 117376, Note_off_c, 9, 54, 0
8, 117424, Note_on_c, 9, 54, 50
8, 117459, Note_off_c, 9, 54, 0
8, 117504, Note_off_c, 9, 46, 0
8, 117504, Note_off_c, 9, 36, 0
8, 117504, Note_on_c, 9, 46, 66
8, 117507, Note_on_c, 9, 54, 85
8, 117571, Note_off_c, 9, 54, 0
8, 117600, Note_on_c, 9, 54, 54
8, 117696, Note_off_c, 9, 54, 0
8, 117696, Note_off_c, 9, 46, 0
8, 117696, Note_on_c, 9, 36, 95
8, 117696, Note_on_c, 9, 46, 74
8, 117699, Note_on_c, 9, 54, 57
8, 117747, Note_off_c, 9, 54, 0
8, 117795, Note_on_c, 9, 54, 53
8, 117833, Note_off_c, 9, 54, 0
8, 117881, Note_on_c, 9, 54, 87
8, 117888, Note_off_c, 9, 46, 0
8, 117888, Note_off_c, 9, 36, 0
8, 117888, Note_off_c, 9, 49, 0
8, 117888, Note_on_c, 9, 40, 117
8, 117888, Note_on_c, 9, 46, 87
8, 117955, Note_off_c, 9, 54, 0
8, 117984, Note_on_c, 9, 54, 55
8, 118022, Note_off_c, 9, 54, 0
8, 118073, Note_on_c, 9, 54, 59
8, 118080, Note_off_c, 9, 46, 0
8, 118080, Note_off_c, 9, 40, 0
8, 118080, Note_on_c, 9, 46, 74
8, 118124, Note_off_c, 9, 54, 0
8, 118166, Note_on_c, 9, 54, 56
8, 118208, Note_off_c, 9, 54, 0
8, 118272, Note_off_c, 9, 46, 0
8, 118272, Note_on_c, 9, 36, 96
8, 118272, Note_on_c, 9, 46, 62
8, 118281, Note_on_c, 9, 54, 82
8, 118332, Note_off_c, 9, 54, 0
8, 118380, Note_on_c, 9, 54, 46
8, 118428, Note_off_c, 9, 54, 0
8, 118464, Note_off_c, 9, 46, 0
8, 118464, Note_off_c, 9, 36, 0
8, 118464, Note_on_c, 9, 46, 53
8, 118470, Note_on_c, 9, 54, 54
8, 118515, Note_off_c, 9, 54, 0
8, 118560, Note_on_c, 9, 54, 54
8, 118656, Note_off_c, 9, 54, 0
8, 118656, Note_off_c, 9, 46, 0
8, 118656, Note_on_c, 9, 40, 117
8, 118656, Note_on_c, 9, 46, 72
8, 118659, Note_on_c, 9, 54, 87
8, 118716, Note_off_c, 9, 54, 0
8, 118755, Note_on_c, 9, 54, 49
8, 118812, Note_off_c, 9, 54, 0
8, 118848, Note_off_c, 9, 46, 0
8, 118848, Note_off_c, 9, 40, 0
8, 118848, Note_on_c, 9, 36, 103
8, 118848, Note_on_c, 9, 46, 64
8, 118867, Note_on_c, 9, 54, 59
8, 118896, Note_off_c, 9, 54, 0
8, 118950, Note_on_c, 9, 54, 50
8, 118995, Note_off_c, 9, 54, 0
8, 119040, Note_off_c, 9, 46, 0
8, 119040, Note_off_c, 9, 36, 0
8, 119040, Note_on_c, 9, 46, 61
8, 119043, Note_on_c, 9, 54, 79
8, 119110, Note_off_c, 9, 54, 0
8, 119142, Note_on_c, 9, 54, 48
8, 119196, Note_off_c, 9, 54, 0
8, 119232, Note_off_c, 9, 46, 0
8, 119232, Note_on_c, 9, 36, 100
8, 119232, Note_on_c, 9, 46, 61
8, 119244, Note_on_c, 9, 54, 56
8, 119296, Note_off_c, 9, 54, 0
8, 119328, Note_on_c, 9, 54, 52
8, 119379, Note_off_c, 9, 54, 0
8, 119424, Note_off_c, 9, 46, 0
8, 119424, Note_off_c, 9, 36, 0
8, 119424, Note_on_c, 9, 40, 117
8, 119424, Note_on_c, 9, 46, 74
8, 119436, Note_on_c, 9, 54, 87
8, 119507, Note_off_c, 9, 54, 0
8, 119529, Note_on_c, 9, 54, 50
8, 119584, Note_off_c, 9, 54, 0
8, 119616, Note_off_c, 9, 46, 0
8, 119616, Note_off_c, 9, 40, 0
8, 119616, Note_on_c, 9, 46, 61
8, 119632, Note_on_c, 9, 54, 51
8, 119683, Note_off_c, 9, 54, 0
8, 119724, Note_on_c, 9, 54, 47
8, 119772, Note_off_c, 9, 54, 0
8, 119808, Note_off_c, 9, 46, 0
8, 119808, Note_on_c, 9, 36, 109
8, 119808, Note_on_c, 9, 46, 70
8, 119817, Note_on_c, 9, 54, 74
8, 119884, Note_off_c, 9, 54, 0
8, 119900, Note_on_c, 9, 54, 50
8, 119955, Note_off_c, 9, 54, 0
8, 120000, Note_off_c, 9, 46, 0
8, 120000, Note_off_c, 9, 36, 0
8, 120000, Note_on_c, 9, 46, 66
8, 120006, Note_on_c, 9, 54, 53
8, 120054, Note_off_c, 9, 54, 0
8, 120092, Note_on_c, 9, 54, 48
8, 120140, Note_off_c, 9, 54, 0
8, 120192, Note_off_c, 9, 46, 0
8, 120192, Note_on_c, 9, 40, 117
8, 120192, Note_on_c, 9, 46, 64
8, 120201, Note_on_c, 9, 54, 85
8, 120275, Note_off_c, 9, 54, 0
8, 120288, Note_on_c, 9, 54, 54
8, 120384, Note_off_c, 9, 54, 0
8, 120384, Note_off_c, 9, 46, 0
8, 120384, Note_off_c, 9, 40, 0
8, 120384, Note_on_c, 9, 36, 99
8, 120384, Note_on_c, 9, 46, 68
8, 120403, Note_on_c, 9, 54, 50
8, 120441, Note_off_c, 9, 54, 0
8, 120486, Note_on_c, 9, 54, 47
8, 120531, Note_off_c, 9, 54, 0
8, 120576, Note_off_c, 9, 46, 0
8, 120576, Note_off_c, 9, 36, 0
8, 120576, Note_on_c, 9, 46, 74
8, 120579, Note_on_c, 9, 54, 66
8, 120630, Note_off_c, 9, 54, 0
8, 120662, Note_on_c, 9, 54, 47
8, 120716, Note_off_c, 9, 54, 0
8, 120768, Note_off_c, 9, 46, 0
8, 120768, Note_on_c, 9, 36, 95
8, 120768, Note_on_c, 9, 46, 68
8, 120771, Note_on_c, 9, 54, 47
8, 120819, Note_off_c, 9, 54, 0
8, 120873, Note_on_c, 9, 54, 47
8, 120918, Note_off_c, 9, 54, 0
8, 120960, Note_off_c, 9, 46, 0
8, 120960, Note_off_c, 9, 36, 0
8, 120960, Note_on_c, 9, 40, 117
8, 120960, Note_on_c, 9, 46, 72
8, 120966, Note_on_c, 9, 54, 87
8, 121036, Note_off_c, 9, 54, 0
8, 121056, Note_on_c, 9, 54, 54
8, 121152, Note_off_c, 9, 54, 0
8, 121152, Note_off_c, 9, 46, 0
8, 121152, Note_off_c, 9, 40, 0
8, 121152, Note_on_c, 9, 46, 61
8, 121164, Note_on_c, 9, 54, 52
8, 121212, Note_off_c, 9, 54, 0
8, 121244, Note_on_c, 9, 54, 48
8, 121292, Note_off_c, 9, 54, 0
8, 121340, Note_on_c, 9, 54, 74
8, 121344, Note_off_c, 9, 46, 0
8, 121344, Note_on_c, 9, 36, 102
8, 121344, Note_on_c, 9, 46, 72
8, 121404, Note_off_c, 9, 54, 0
8, 121443, Note_on_c, 9, 54, 52
8, 121488, Note_off_c, 9, 54, 0
8, 121536, Note_off_c, 9, 46, 0
8, 121536, Note_off_c, 9, 36, 0
8, 121536, Note_on_c, 9, 46, 60
8, 121545, Note_on_c, 9, 54, 50
8, 121596, Note_off_c, 9, 54, 0
8, 121641, Note_on_c, 9, 54, 50
8, 121676, Note_off_c, 9, 54, 0
8, 121728, Note_off_c, 9, 46, 0
8, 121728, Note_on_c, 9, 40, 117
8, 121728, Note_on_c, 9, 46, 66
8, 121740, Note_on_c, 9, 54, 87
8, 121811, Note_off_c, 9, 54, 0
8, 121836, Note_on_c, 9, 54, 56
8, 121875, Note_off_c, 9, 54, 0
8, 121920, Note_off_c, 9, 46, 0
8, 121920, Note_off_c, 9, 40, 0
8, 121920, Note_on_c, 9, 36, 95
8, 121920, Note_on_c, 9, 46, 66
8, 121939, Note_on_c, 9, 54, 56
8, 121984, Note_off_c, 9, 54, 0
8, 122032, Note_on_c, 9, 54, 50
8, 122067, Note_off_c, 9, 54, 0
8, 122112, Note_off_c, 9, 46, 0
8, 122112, Note_off_c, 9, 36, 0
8, 122112, Note_on_c, 9, 46, 66
8, 122115, Note_on_c, 9, 54, 85
8, 122179, Note_off_c, 9, 54, 0
8, 122208, Note_on_c, 9, 54, 54
8, 122304, Note_off_c, 9, 54, 0
8, 122304, Note_off_c, 9, 46, 0
8, 122304, Note_on_c, 9, 36, 95
8, 122304, Note_on_c, 9, 46, 74
8, 122307, Note_on_c, 9, 54, 57
8, 122355, Note_off_c, 9, 54, 0
8, 122403, Note_on_c, 9, 54, 53
8, 122441, Note_off_c, 9, 54, 0
8, 122489, Note_on_c, 9, 54, 87
8, 122496, Note_off_c, 9, 46, 0
8, 122496, Note_off_c, 9, 36, 0
8, 122496, Note_on_c, 9, 40, 117
8, 122496, Note_on_c, 9, 46, 87
8, 122563, Note_off_c, 9, 54, 0
8, 122592, Note_on_c, 9, 54, 55
8, 122630, Note_off_c, 9, 54, 0
8, 122681, Note_on_c, 9, 54, 59
8, 122688, Note_off_c, 9, 46, 0
8, 122688, Note_off_c, 9, 40, 0
8, 122688, Note_on_c, 9, 46, 74
8, 122732, Note_off_c, 9, 54, 0
8, 122774, Note_on_c, 9, 54, 56
8, 122816, Note_off_c, 9, 54, 0
8, 122880, Note_off_c, 9, 46, 0
8, 122880, Note_on_c, 9, 36, 96
8, 122880, Note_on_c, 9, 46, 62
8, 122880, Note_on_c, 9, 49, 80
8, 122889, Note_on_c, 9, 54, 82
8, 122940, Note_off_c, 9, 54, 0
8, 122988, Note_on_c, 9, 54, 46
8, 123036, Note_off_c, 9, 54, 0
8, 123072, Note_off_c, 9, 46, 0
8, 123072, Note_off_c, 9, 36, 0
8, 123072, Note_on_c, 9, 46, 53
8, 123078, Note_on_c, 9, 54, 54
8, 123123, Note_off_c, 9, 54, 0
8, 123168, Note_on_c, 9, 54, 54
8, 123264, Note_off_c, 9, 54, 0
8, 123264, Note_off_c, 9, 46, 0
8, 123264, Note_on_c, 9, 40, 117
8, 123264, Note_on_c, 9, 46, 72
8, 123267, Note_on_c, 9, 54, 87
8, 123324, Note_off_c, 9, 54, 0
8, 123363, Note_on_c, 9, 54, 49
8, 123420, Note_off_c, 9, 54, 0
8, 123456, Note_off_c, 9, 46, 0
8, 123456, Note_off_c, 9, 40, 0
8, 123456, Note_on_c, 9, 36, 103
8, 123456, Note_on_c, 9, 46, 64
8, 123475, Note_on_c, 9, 54, 59
8, 123504, Note_off_c, 9, 54, 0
8, 123558, Note_on_c, 9, 54, 50
8, 123603, Note_off_c, 9, 54, 0
8, 123648, Note_off_c, 9, 46, 0
8, 123648, Note_off_c, 9, 36, 0
8, 123648, Note_on_c, 9, 46, 61
8, 123651, Note_on_c, 9, 54, 79
8, 123718, Note_off_c, 9, 54, 0
8, 123750, Note_on_c, 9, 54, 48
8, 123804, Note_off_c, 9, 54, 0
8, 123840, Note_off_c, 9, 46, 0
8, 123840, Note_off_c, 9, 49, 0
8, 123840, Note_on_c, 9, 36, 100
8, 123840, Note_on_c, 9, 46, 61
8, 123852, Note_on_c, 9, 54, 56
8, 123904, Note_off_c, 9, 54, 0
8, 123936, Note_on_c, 9, 54, 52
8, 123987, Note_off_c, 9, 54, 0
8, 124032, Note_off_c, 9, 46, 0
8, 124032, Note_off_c, 9, 36, 0
8, 124032, Note_on_c, 9, 40, 117
8, 124032, Note_on_c, 9, 46, 74
8, 124044, Note_on_c, 9, 54, 87
8, 124115, Note_off_c, 9, 54, 0
8, 124137, Note_on_c, 9, 54, 50
8, 124192, Note_off_c, 9, 54, 0
8, 124224, Note_off_c, 9, 46, 0
8, 124224, Note_off_c, 9, 40, 0
8, 124224, Note_on_c, 9, 46, 61
8, 124240, Note_on_c, 9, 54, 51
8, 124291, Note_off_c, 9, 54, 0
8, 124332, Note_on_c, 9, 54, 47
8, 124380, Note_off_c, 9, 54, 0
8, 124416, Note_off_c, 9, 46, 0
8, 124416, Note_on_c, 9, 36, 109
8, 124416, Note_on_c, 9, 46, 70
8, 124425, Note_on_c, 9, 54, 74
8, 124492, Note_off_c, 9, 54, 0
8, 124508, Note_on_c, 9, 54, 50
8, 124563, Note_off_c, 9, 54, 0
8, 124608, Note_off_c, 9, 46, 0
8, 124608, Note_off_c, 9, 36, 0
8, 124608, Note_on_c, 9, 46, 66
8, 124614, Note_on_c, 9, 54, 53
8, 124662, Note_off_c, 9, 54, 0
8, 124700, Note_on_c, 9, 54, 48
8, 124748, Note_off_c, 9, 54, 0
8, 124800, Note_off_c, 9, 46, 0
8, 124800, Note_on_c, 9, 40, 117
8, 124800, Note_on_c, 9, 46, 64
8, 124809, Note_on_c, 9, 54, 85
8, 124883, Note_off_c, 9, 54, 0
8, 124896, Note_on_c, 9, 54, 54
8, 124992, Note_off_c, 9, 54, 0
8, 124992, Note_off_c, 9, 46, 0
8, 124992, Note_off_c, 9, 40, 0
8, 124992, Note_on_c, 9, 36, 99
8, 124992, Note_on_c, 9, 46, 68
8, 125011, Note_on_c, 9, 54, 50
8, 125049, Note_off_c, 9, 54, 0
8, 125094, Note_on_c, 9, 54, 47
8, 125139, Note_off_c, 9, 54, 0
8, 125184, Note_off_c, 9, 46, 0
8, 125184, Note_off_c, 9, 36, 0
8, 125184, Note_on_c, 9, 46, 74
8, 125187, Note_on_c, 9, 54, 66
8, 125238, Note_off_c, 9, 54, 0
8, 125270, Note_on_c, 9, 54, 47
8, 125324, Note_off_c, 9, 54, 0
8, 125376, Note_off_c, 9, 46, 0
8, 125376, Note_on_c, 9, 36, 95
8, 125376, Note_on_c, 9, 46, 68
8, 125379, Note_on_c, 9, 54, 47
8, 125427, Note_off_c, 9, 54, 0
8, 125481, Note_on_c, 9, 54, 47
8, 125526, Note_off_c, 9, 54, 0
8, 125568, Note_off_c, 9, 46, 0
8, 125568, Note_off_c, 9, 36, 0
8, 125568, Note_on_c, 9, 40, 117
8, 125568, Note_on_c, 9, 46, 72
8, 125574, Note_on_c, 9, 54, 87
8, 125644, Note_off_c, 9, 54, 0
8, 125664, Note_on_c, 9, 54, 54
8, 125760, Note_off_c, 9, 54, 0
8, 125760, Note_off_c, 9, 46, 0
8, 125760, Note_off_c, 9, 40, 0
8, 125760, Note_on_c, 9, 46, 61
8, 125772, Note_on_c, 9, 54, 52
8, 125820, Note_off_c, 9, 54, 0
8, 125852, Note_on_c, 9, 54, 48
8, 125900, Note_off_c, 9, 54, 0
8, 125948, Note_on_c, 9, 54, 74
8, 125952, Note_off_c, 9, 46, 0
8, 125952, Note_on_c, 9, 36, 102
8, 125952, Note_on_c, 9, 46, 72
8, 126012, Note_off_c, 9, 54, 0
8, 126051, Note_on_c, 9, 54, 52
8, 126096, Note_off_c, 9, 54, 0
8, 126144, Note_off_c, 9, 46, 0
8, 126144, Note_off_c, 9, 36, 0
8, 126144, Note_on_c, 9, 46, 60
8, 126153, Note_on_c, 9, 54, 50
8, 126204, Note_off_c, 9, 54, 0
8, 126249, Note_on_c, 9, 54, 50
8, 126284, Note_off_c, 9, 54, 0
8, 126336, Note_off_c, 9, 46, 0
8, 126336, Note_on_c, 9, 40, 117
8, 126336, Note_on_c, 9, 46, 66
8, 126348, Note_on_c, 9, 54, 87
8, 126419, Note_off_c, 9, 54, 0
8, 126444, Note_on_c, 9, 54, 56
8, 126483, Note_off_c, 9, 54, 0
8, 126528, Note_off_c, 9, 46, 0
8, 126528, Note_off_c, 9, 40, 0
8, 126528, Note_on_c, 9, 36, 95
8, 126528, Note_on_c, 9, 46, 66
8, 126547, Note_on_c, 9, 54, 56
8, 126592, Note_off_c, 9, 54, 0
8, 126640, Note_on_c, 9, 54, 50
8, 126675, Note_off_c, 9, 54, 0
8, 126720, Note_off_c, 9, 46, 0
8, 126720, Note_off_c, 9, 36, 0
8, 126720, Note_on_c, 9, 46, 66
8, 126723, Note_on_c, 9, 54, 85
8, 126787, Note_off_c, 9, 54, 0
8, 126816, Note_on_c, 9, 54, 54
8, 126912, Note_off_c, 9, 54, 0
8, 126912, Note_off_c, 9, 46, 0
8, 126912, Note_on_c, 9, 36, 95
8, 126912, Note_on_c, 9, 46, 74
8, 126915, Note_on_c, 9, 54, 57
8, 126963, Note_off_c, 9, 54, 0
8, 127011, Note_on_c, 9, 54, 53
8, 127049, Note_off_c, 9, 54, 0
8, 127097, Note_on_c, 9, 54, 87
8, 127104, Note_off_c, 9, 46, 0
8, 127104, Note_off_c, 9, 36, 0
8, 127104, Note_on_c, 9, 40, 117
8, 127104, Note_on_c, 9, 46, 87
8, 127171, Note_off_c, 9, 54, 0
8, 127200, Note_on_c, 9, 54, 55
8, 127238, Note_off_c, 9, 54, 0
8, 127289, Note_on_c, 9, 54, 59
8, 127296, Note_off_c, 9, 46, 0
8, 127296, Note_off_c, 9, 40, 0
8, 127296, Note_on_c, 9, 46, 74
8, 127340, Note_off_c, 9, 54, 0
8, 127382, Note_on_c, 9, 54, 56
8, 127424, Note_off_c, 9, 54, 0
8, 127488, Note_off_c, 9, 46, 0
8, 127488, Note_on_c, 9, 36, 96
8, 127488, Note_on_c, 9, 46, 62
8, 127497, Note_on_c, 9, 54, 82
8, 127548, Note_off_c, 9, 54, 0
8, 127596, Note_on_c, 9, 54, 46
8, 127644, Note_off_c, 9, 54, 0
8, 127680, Note_off_c, 9, 46, 0
8, 127680, Note_off_c, 9, 36, 0
8, 127680, Note_on_c, 9, 46, 53
8, 127686, Note_on_c, 9, 54, 54
8, 127731, Note_off_c, 9, 54, 0
8, 127776, Note_on_c, 9, 54, 54
8, 127872, Note_off_c, 9, 54, 0
8, 127872, Note_off_c, 9, 46, 0
8, 127872, Note_on_c, 9, 40, 117
8, 127872, Note_on_c, 9, 46, 72
8, 127875, Note_on_c, 9, 54, 87
8, 127932, Note_off_c, 9, 54, 0
8, 127971, Note_on_c, 9, 54, 49
8, 128028, Note_off_c, 9, 54, 0
8, 128064, Note_off_c, 9, 46, 0
8, 128064, Note_off_c, 9, 40, 0
8, 128064, Note_on_c, 9, 36, 103
8, 128064, Note_on_c, 9, 46, 64
8, 128083, Note_on_c, 9, 54, 59
8, 128112, Note_off_c, 9, 54, 0
8, 128166, Note_on_c, 9, 54, 50
8, 128211, Note_off_c, 9, 54, 0
8, 128256, Note_off_c, 9, 46, 0
8, 128256, Note_off_c, 9, 36, 0
8, 128256, Note_on_c, 9, 46, 61
8, 128259, Note_on_c, 9, 54, 79
8, 128326, Note_off_c, 9, 54, 0
8, 128358, Note_on_c, 9, 54, 48
8, 128412, Note_off_c, 9, 54, 0
8, 128448, Note_off_c, 9, 46, 0
8, 128448, Note_on_c, 9, 36, 100
8, 128448, Note_on_c, 9, 46, 61
8, 128460, Note_on_c, 9, 54, 56
8, 128512, Note_off_c, 9, 54, 0
8, 128544, Note_on_c, 9, 54, 52
8, 128595, Note_off_c, 9, 54, 0
8, 128640, Note_off_c, 9, 46, 0
8, 128640, Note_off_c, 9, 36, 0
8, 128640, Note_on_c, 9, 40, 117
8, 128640, Note_on_c, 9, 46, 74
8, 128652, Note_on_c, 9, 54, 87
8, 128723, Note_off_c, 9, 54, 0
8, 128745, Note_on_c, 9, 54, 50
8, 128800, Note_off_c, 9, 54, 0
8, 128832, Note_off_c, 9, 46, 0
8, 128832, Note_off_c, 9, 40, 0
8, 128832, Note_on_c, 9, 46, 61
8, 128848, Note_on_c, 9, 54, 51
8, 128899, Note_off_c, 9, 54, 0
8, 128940, Note_on_c, 9, 54, 47
8, 128988, Note_off_c, 9, 54, 0
8, 129024, Note_off_c, 9, 46, 0
8, 129024, Note_on_c, 9, 36, 109
8, 129024, Note_on_c, 9, 46, 70
8, 129024, Note_on_c, 9, 49, 80
8, 129033, Note_on_c, 9, 54, 74
8, 129100, Note_off_c, 9, 54, 0
8, 129116, Note_on_c, 9, 54, 50
8, 129171, Note_off_c, 9, 54, 0
8, 129216, Note_off_c, 9, 46, 0
8, 129216, Note_off_c, 9, 36, 0
8, 129216, Note_on_c, 9, 46, 66
8, 129222, Note_on_c, 9, 54, 53
8, 129270, Note_off_c, 9, 54, 0
8, 129308, Note_on_c, 9, 54, 48
8, 129356, Note_off_c, 9, 54, 0
8, 129408, Note_off_c, 9, 46, 0
8, 129408, Note_on_c, 9, 40, 117
8, 129408, Note_on_c, 9, 46, 64
8, 129417, Note_on_c, 9, 54, 85
8, 129491, Note_off_c, 9, 54, 0
8, 129504, Note_on_c, 9, 54, 54
8, 129600, Note_off_c, 9, 54, 0
8, 129600, Note_off_c, 9, 46, 0
8, 129600, Note_off_c, 9, 40, 0
8, 129600, Note_on_c, 9, 36, 99
8, 129600, Note_on_c, 9, 46, 68
8, 129619, Note_on_c, 9, 54, 50
8, 129657, Note_off_c, 9, 54, 0
8, 129702, Note_on_c, 9, 54, 47
8, 129747, Note_off_c, 9, 54, 0
8, 129792, Note_off_c, 9, 46, 0
8, 129792, Note_off_c, 9, 36, 0
8, 129792, Note_on_c, 9, 46, 74
8, 129795, Note_on_c, 9, 54, 66
8, 129846, Note_off_c, 9, 54, 0
8, 129878, Note_on_c, 9, 54, 47
8, 129932, Note_off_c, 9, 54, 0
8, 129984, Note_off_c, 9, 46, 0
8, 129984, Note_off_c, 9, 49, 0
8, 129984, Note_on_c, 9, 36, 95
8, 129984, Note_on_c, 9, 46, 68
8, 129987, Note_on_c, 9, 54, 47
8, 130035, Note_off_c, 9, 54, 0
8, 130089, Note_on_c, 9, 54, 47
8, 130134, Note_off_c, 9, 54, 0
8, 130176, Note_off_c, 9, 46, 0
8, 130176, Note_off_c, 9, 36, 0
8, 130176, Note_on_c, 9, 40, 117
8, 130176, Note_on_c, 9, 46, 72
8, 130182, Note_on_c, 9, 54, 87
8, 130252, Note_off_c, 9, 54, 0
8, 130272, Note_on_c, 9, 54, 54
8, 130368, Note_off_c, 9, 54, 0
8, 130368, Note_off_c, 9, 46, 0
8, 130368, Note_off_c, 9, 40, 0
8, 130368, Note_on_c, 9, 46, 61
8, 130380, Note_on_c, 9, 54, 52
8, 130428, Note_off_c, 9, 54, 0
8, 130460, Note_on_c, 9, 54, 48
8, 130508, Note_off_c, 9, 54, 0
8, 130556, Note_on_c, 9, 54, 74
8, 130560, Note_off_c, 9, 46, 0
8, 130560, Note_on_c, 9, 36, 102
8, 130560, Note_on_c, 9, 46, 72
8, 130620, Note_off_c, 9, 54, 0
8, 130659, Note_on_c, 9, 54, 52
8, 130704, Note_off_c, 9, 54, 0
8, 130752, Note_off_c, 9, 46, 0
8, 130752, Note_off_c, 9, 36, 0
8, 130752, Note_on_c, 9, 46, 60
8, 130761, Note_on_c, 9, 54, 50
8, 130812, Note_off_c, 9, 54, 0
8, 130857, Note_on_c, 9, 54, 50
8, 130892, Note_off_c, 9, 54, 0
8, 130944, Note_off_c, 9, 46, 0
8, 130944, Note_on_c, 9, 40, 117
8, 130944, Note_on_c, 9, 46, 66
8, 130956, Note_on_c, 9, 54, 87
8, 131027, Note_off_c, 9, 54, 0
8, 131052, Note_on_c, 9, 54, 56
8, 131091, Note_off_c, 9, 54, 0
8, 131136, Note_off_c, 9, 46, 0
8, 131136, Note_off_c, 9, 40, 0
8, 131136, Note_on_c, 9, 36, 95
8, 131136, Note_on_c, 9, 46, 66
8, 131155, Note_on_c, 9, 54, 56
8, 131200, Note_off_c, 9, 54, 0
8, 131248, Note_on_c, 9, 54, 50
8, 131283, Note_off_c, 9, 54, 0
8, 131328, Note_off_c, 9, 46, 0
8, 131328, Note_off_c, 9, 36, 0
8, 131328, Note_on_c, 9, 46, 66
8, 131331, Note_on_c, 9, 54, 85
8, 131395, Note_off_c, 9, 54, 0
8, 131424, Note_on_c, 9, 54, 54
8, 131520, Note_off_c, 9, 54, 0
8, 131520, Note_off_c, 9, 46, 0
8, 131520, Note_on_c, 9, 36, 95
8, 131520, Note_on_c, 9, 46, 74
8, 131523, Note_on_c, 9, 54, 57
8, 131571, Note_off_c, 9, 54, 0
8, 131619, Note_on_c, 9, 54, 53
8, 131657, Note_off_c, 9, 54, 0
8, 131705, Note_on_c, 9, 54, 87
8, 131712, Note_off_c, 9, 46, 0
8, 131712, Note_off_c, 9, 36, 0
8, 131712, Note_on_c, 9, 40, 117
8, 131712, Note_on_c, 9, 46, 87
8, 131779, Note_off_c, 9, 54, 0
8, 131808, Note_on_c, 9, 54, 55
8, 131846, Note_off_c, 9, 54, 0
8, 131897, Note_on_c, 9, 54, 59
8, 131904, Note_off_c, 9, 46, 0
8, 131904, Note_off_c, 9, 40, 0
8, 131904, Note_on_c, 9, 46, 74
8, 131948, Note_off_c, 9, 54, 0
8, 131990, Note_on_c, 9, 54, 56
8, 132032, Note_off_c, 9, 54, 0
8, 132096, Note_off_c, 9, 46, 0
8, 132096, Note_on_c, 9, 36, 96
8, 132096, Note_on_c, 9, 46, 62
8, 132105, Note_on_c, 9, 54, 82
8, 132156, Note_off_c, 9, 54, 0
8, 132204, Note_on_c, 9, 54, 46
8, 132252, Note_off_c, 9, 54, 0
8, 132288, Note_off_c, 9, 46, 0
8, 132288, Note_off_c, 9, 36, 0
8, 132288, Note_on_c, 9, 46, 53
8, 132294, Note_on_c, 9, 54, 54
8, 132339, Note_off_c, 9, 54, 0
8, 132384, Note_on_c, 9, 54, 54
8, 132480, Note_off_c, 9, 54, 0
8, 132480, Note_off_c, 9, 46, 0
8, 132480, Note_on_c, 9, 40, 117
8, 132480, Note_on_c, 9, 46, 72
8, 132483, Note_on_c, 9, 54, 87
8, 132540, Note_off_c, 9, 54, 0
8, 132579, Note_on_c, 9, 54, 49
8, 132636, Note_off_c, 9, 54, 0
8, 132672, Note_off_c, 9, 46, 0
8, 132672, Note_off_c, 9, 40, 0
8, 132672, Note_on_c, 9, 36, 103
8, 132672, Note_on_c, 9, 46, 64
8, 132691, Note_on_c, 9, 54, 59
8, 132720, Note_off_c, 9, 54, 0
8, 132774, Note_on_c, 9, 54, 50
8, 132819, Note_off_c, 9, 54, 0
8, 132864, Note_off_c, 9, 46, 0
8, 132864, Note_off_c, 9, 36, 0
8, 132864, Note_on_c, 9, 46, 61
8, 132867, Note_on_c, 9, 54, 79
8, 132934, Note_off_c, 9, 54, 0
8, 132966, Note_on_c, 9, 54, 48
8, 133020, Note_off_c, 9, 54, 0
8, 133056, Note_off_c, 9, 46, 0
8, 133056, Note_on_c, 9, 36, 100
8, 133056, Note_on_c, 9, 46, 61
8, 133068, Note_on_c, 9, 54, 56
8, 133120, Note_off_c, 9, 54, 0
8, 133152, Note_on_c, 9, 54, 52
8, 133203, Note_off_c, 9, 54, 0
8, 133248, Note_off_c, 9, 46, 0
8, 133248, Note_off_c, 9, 36, 0
8, 133248, Note_on_c, 9, 40, 117
8, 133248, Note_on_c, 9, 46, 74
8, 133260, Note_on_c, 9, 54, 87
8, 133331, Note_off_c, 9, 54, 0
8, 133353, Note_on_c, 9, 54, 50
8, 133408, Note_off_c, 9, 54, 0
8, 133440, Note_off_c, 9, 46, 0
8, 133440, Note_off_c, 9, 40, 0
8, 133440, Note_on_c, 9, 46, 61
8, 133456, Note_on_c, 9, 54, 51
8, 133507, Note_off_c, 9, 54, 0
8, 133548, Note_on_c, 9, 54, 47
8, 133596, Note_off_c, 9, 54, 0
8, 133632, Note_off_c, 9, 46, 0
8, 133632, Note_on_c, 9, 36, 109
8, 133632, Note_on_c, 9, 46, 70
8, 133641, Note_on_c, 9, 54, 74
8, 133708, Note_off_c, 9, 54, 0
8, 133724, Note_on_c, 9, 54, 50
8, 133779, Note_off_c, 9, 54, 0
8, 133824, Note_off_c, 9, 46, 0
8, 133824, Note_off_c, 9, 36, 0
8, 133824, Note_on_c, 9, 46, 66
8, 133830, Note_on_c, 9, 54, 53
8, 133878, Note_off_c, 9, 54, 0
8, 133916, Note_on_c, 9, 54, 48
8, 133964, Note_off_c, 9, 54, 0
8, 134016, Note_off_c, 9, 46, 0
8, 134016, Note_on_c, 9, 40, 117
8, 134016, Note_on_c, 9, 46, 64
8, 134025, Note_on_c, 9, 54, 85
8, 134099, Note_off_c, 9, 54, 0
8, 134112, Note_on_c, 9, 54, 54
8, 134208, Note_off_c, 9, 54, 0
8, 134208, Note_off_c, 9, 46, 0
8, 134208, Note_off_c, 9, 40, 0
8, 134208, Note_on_c, 9, 36, 99
8, 134208, Note_on_c, 9, 46, 68
8, 134227, Note_on_c, 9, 54, 50
8, 134265, Note_off_c, 9, 54, 0
8, 134310, Note_on_c, 9, 54, 47
8, 134355, Note_off_c, 9, 54, 0
8, 134400, Note_off_c, 9, 46, 0
8, 134400, Note_off_c, 9, 36, 0
8, 134400, Note_on_c, 9, 46, 74
8, 134403, Note_on_c, 9, 54, 66
8, 134454, Note_off_c, 9, 54, 0
8, 134486, Note_on_c, 9, 54, 47
8, 134540, Note_off_c, 9, 54, 0
8, 134592, Note_off_c, 9, 46, 0
8, 134592, Note_on_c, 9, 36, 95
8, 134592, Note_on_c, 9, 46, 68
8, 134595, Note_on_c, 9, 54, 47
8, 134643, Note_off_c, 9, 54, 0
8, 134697, Note_on_c, 9, 54, 47
8, 134742, Note_off_c, 9, 54, 0
8, 134784, Note_off_c, 9, 46, 0
8, 134784, Note_off_c, 9, 36, 0
8, 134784, Note_on_c, 9, 40, 117
8, 134784, Note_on_c, 9, 46, 72
8, 134790, Note_on_c, 9, 54, 87
8, 134860, Note_off_c, 9, 54, 0
8, 134880, Note_on_c, 9, 54, 54
8, 134976, Note_off_c, 9, 54, 0
8, 134976, Note_off_c, 9, 46, 0
8, 134976, Note_off_c, 9, 40, 0
8, 134976, Note_on_c, 9, 46, 61
8, 134988, Note_on_c, 9, 54, 52
8, 135036, Note_off_c, 9, 54, 0
8, 135068, Note_on_c, 9, 54, 48
8, 135116, Note_off_c, 9, 54, 0
8, 135164, Note_on_c, 9, 54, 74
8, 135168, Note_off_c, 9, 46, 0
8, 135168, Note_on_c, 9, 36, 102
8, 135168, Note_on_c, 9, 46, 72
8, 135168, Note_on_c, 9, 49, 80
8, 135228, Note_off_c, 9, 54, 0
8, 135267, Note_on_c, 9, 54, 52
8, 135312, Note_off_c, 9, 54, 0
8, 135360, Note_off_c, 9, 46, 0
8, 135360, Note_off_c, 9, 36, 0
8, 135360, Note_on_c, 9, 46, 60
8, 135369, Note_on_c, 9, 54, 50
8, 135420, Note_off_c, 9, 54, 0
8, 135465, Note_on_c, 9, 54, 50
8, 135500, Note_off_c, 9, 54, 0
8, 135552, Note_off_c, 9, 46, 0
8, 135552, Note_on_c, 9, 40, 117
8, 135552, Note_on_c, 9, 46, 66
8, 135564, Note_on_c, 9, 54, 87
8, 135635, Note_off_c, 9, 54, 0
8, 135660, Note_on_c, 9, 54, 56
8, 135699, Note_off_c, 9, 54, 0
8, 135744, Note_off_c, 9, 46, 0
8, 135744, Note_off_c, 9, 40, 0
8, 135744, Note_off_c, 9, 49, 0
8, 135744, Note_on_c, 9, 36, 95
8, 135744, Note_on_c, 9, 46, 66
8, 135763, Note_on_c, 9, 54, 56
8, 135808, Note_off_c, 9, 54, 0
8, 135856, Note_on_c, 9, 54, 50
8, 135891, Note_off_c, 9, 54, 0
8, 135936, Note_off_c, 9, 46, 0
8, 135936, Note_off_c, 9, 36, 0
8, 135936, Note_on_c, 9, 46, 66
8, 135939, Note_on_c, 9, 54, 85
8, 136003, Note_off_c, 9, 54, 0
8, 136032, Note_on_c, 9, 54, 54
8, 136128, Note_off_c, 9, 54, 0
8, 136128, Note_off_c, 9, 46, 0
8, 136128, Note_on_c, 9, 36, 95
8, 136128, Note_on_c, 9, 46, 74
8, 136131, Note_on_c, 9, 54, 57
8, 136179, Note_off_c, 9, 54, 0
8, 136227, Note_on_c, 9, 54, 53
8, 136265, Note_off_c, 9, 54, 0
8, 136313, Note_on_c, 9, 54, 87
8, 136320, Note_off_c, 9, 46, 0
8, 136320, Note_off_c, 9, 36, 0
8, 136320, Note_on_c, 9, 40, 117
8, 136320, Note_on_c, 9, 46, 87
8, 136387, Note_off_c, 9, 54, 0
8, 136416, Note_on_c, 9, 54, 55
8, 136454, Note_off_c, 9, 54, 0
8, 136505, Note_on_c, 9, 54, 59
8, 136512, Note_off_c, 9, 46, 0
8, 136512, Note_off_c, 9, 40, 0
8, 136512, Note_on_c, 9, 46, 74
8, 136556, Note_off_c, 9, 54, 0
8, 136598, Note_on_c, 9, 54, 56
8, 136640, Note_off_c, 9, 54, 0
8, 136704, Note_off_c, 9, 46, 0
8, 136704, Note_on_c, 9, 36, 96
8, 136704, Note_on_c, 9, 46, 62
8, 136713, Note_on_c, 9, 54, 82
8, 136764, Note_off_c, 9, 54, 0
8, 136812, Note_on_c, 9, 54, 46
8, 136860, Note_off_c, 9, 54, 0
8, 136896, Note_off_c, 9, 46, 0
8, 136896, Note_off_c, 9, 36, 0
8, 136896, Note_on_c, 9, 46, 53
8, 136902, Note_on_c, 9, 54, 54
8, 136947, Note_off_c, 9, 54, 0
8, 136992, Note_on_c, 9, 54, 54
8, 137088, Note_off_c, 9, 54, 0
8, 137088, Note_off_c, 9, 46, 0
8, 137088, Note_on_c, 9, 40, 117
8, 137088, Note_on_c, 9, 46, 72
8, 137091, Note_on_c, 9, 54, 87
8, 137148, Note_off_c, 9, 54, 0
8, 137187, Note_on_c, 9, 54, 49
8, 137244, Note_off_c, 9, 54, 0
8, 137280, Note_off_c, 9, 46, 0
8, 137280, Note_off_c, 9, 40, 0
8, 137280, Note_on_c, 9, 36, 103
8, 137280, Note_on_c, 9, 46, 64
8, 137299, Note_on_c, 9, 54, 59
8, 137328, Note_off_c, 9, 54, 0
8, 137382, Note_on_c, 9, 54, 50
8, 137427, Note_off_c, 9, 54, 0
8, 137472, Note_off_c, 9, 46, 0
8, 137472, Note_off_c, 9, 36, 0
8, 137472, Note_on_c, 9, 46, 61
8, 137475, Note_on_c, 9, 54, 79
8, 137542, Note_off_c, 9, 54, 0
8, 137574, Note_on_c, 9, 54, 48
8, 137628, Note_off_c, 9, 54, 0
8, 137664, Note_off_c, 9, 46, 0
8, 137664, Note_on_c, 9, 36, 100
8, 137664, Note_on_c, 9, 46, 61
8, 137676, Note_on_c, 9, 54, 56
8, 137728, Note_off_c, 9, 54, 0
8, 137760, Note_on_c, 9, 54, 52
8, 137811, Note_off_c, 9, 54, 0
8, 137856, Note_off_c, 9, 46, 0
8, 137856, Note_off_c, 9, 36, 0
8, 137856, Note_on_c, 9, 40, 117
8, 137856, Note_on_c, 9, 46, 74
8, 137868, Note_on_c, 9, 54, 87
8, 137939, Note_off_c, 9, 54, 0
8, 137961, Note_on_c, 9, 54, 50
8, 138016, Note_off_c, 9, 54, 0
8, 138048, Note_off_c, 9, 46, 0
8, 138048, Note_off_c, 9, 40, 0
8, 138048, Note_on_c, 9, 46, 61
8, 138064, Note_on_c, 9, 54, 51
8, 138115, Note_off_c, 9, 54, 0
8, 138156, Note_on_c, 9, 54, 47
8, 138204, Note_off_c, 9, 54, 0
8, 138240, Note_off_c, 9, 46, 0
8, 138240, Note_on_c, 9, 36, 109
8, 138240, Note_on_c, 9, 46, 70
8, 138249, Note_on_c, 9, 54, 74
8, 138316, Note_off_c, 9, 54, 0
8, 138332, Note_on_c, 9, 54, 50
8, 138387, Note_off_c, 9, 54, 0
8, 138432, Note_off_c, 9, 46, 0
8, 138432, Note_off_c, 9, 36, 0
8, 138432, Note_on_c, 9, 46, 66
8, 138438, Note_on_c, 9, 54, 53
8, 138486, Note_off_c, 9, 54, 0
8, 138524, Note_on_c, 9, 54, 48
8, 138572, Note_off_c, 9, 54, 0
8, 138624, Note_off_c, 9, 46, 0
8, 138624, Note_on_c, 9, 40, 117
8, 138624, Note_on_c, 9, 46, 64
8, 138633, Note_on_c, 9, 54, 85
8, 138707, Note_off_c, 9, 54, 0
8, 138720, Note_on_c, 9, 54, 54
8, 138816, Note_off_c, 9, 54, 0
8, 138816, Note_off_c, 9, 46, 0
8, 138816, Note_off_c, 9, 40, 0
8, 138816, Note_on_c, 9, 36, 99
8, 138816, Note_on_c, 9, 46, 68
8, 138835, Note_on_c, 9, 54, 50
8, 138873, Note_off_c, 9, 54, 0
8, 138918, Note_on_c, 9, 54, 47
8, 138963, Note_off_c, 9, 54, 0
8, 139008, Note_off_c, 9, 46, 0
8, 139008, Note_off_c, 9, 36, 0
8, 139008, Note_on_c, 9, 46, 74
8, 139011, Note_on_c, 9, 54, 66
8, 139062, Note_off_c, 9, 54, 0
8, 139094, Note_on_c, 9, 54, 47
8, 139148, Note_off_c, 9, 54, 0
8, 139200, Note_off_c, 9, 46, 0
8, 139200, Note_on_c, 9, 36, 95
8, 139200, Note_on_c, 9, 46, 68
8, 139203, Note_on_c, 9, 54, 47
8, 139251, Note_off_c, 9, 54, 0
8, 139305, Note_on_c, 9, 54, 47
8, 139350, Note_off_c, 9, 54, 0
8, 139392, Note_off_c, 9, 46, 0
8, 139392, Note_off_c, 9, 36, 0
8, 139392, Note_on_c, 9, 40, 117
8, 139392, Note_on_c, 9, 46, 72
8, 139398, Note_on_c, 9, 54, 87
8, 139468, Note_off_c, 9, 54, 0
8, 139488, Note_on_c, 9, 54, 54
8, 139584, Note_off_c, 9, 54, 0
8, 139584, Note_off_c, 9, 46, 0
8, 139584, Note_off_c, 9, 40, 0
8, 139584, Note_on_c, 9, 46, 61
8, 139596, Note_on_c, 9, 54, 52
8, 139644, Note_off_c, 9, 54, 0
8, 139676, Note_on_c, 9, 54, 48
8, 139724, Note_off_c, 9, 54, 0
8, 139772, Note_on_c, 9, 54, 74
8, 139776, Note_off_c, 9, 46, 0
8, 139776, Note_on_c, 9, 36, 102
8, 139776, Note_on_c, 9, 46, 72
8, 139836, Note_off_c, 9, 54, 0
8, 139875, Note_on_c, 9, 54, 52
8, 139920, Note_off_c, 9, 54, 0
8, 139968, Note_off_c, 9, 46, 0
8, 139968, Note_off_c, 9, 36, 0
8, 139968, Note_on_c, 9, 46, 60
8, 139977, Note_on_c, 9, 54, 50
8, 140028, Note_off_c, 9, 54, 0
8, 140073, Note_on_c, 9, 54, 50
8, 140108, Note_off_c, 9, 54, 0
8, 140160, Note_off_c, 9, 46, 0
8, 140160, Note_on_c, 9, 40, 117
8, 140160, Note_on_c, 9, 46, 66
8, 140172, Note_on_c, 9, 54, 87
8, 140243, Note_off_c, 9, 54, 0
8, 140268, Note_on_c, 9, 54, 56
8, 140307, Note_off_c, 9, 54, 0
8, 140352, Note_off_c, 9, 46, 0
8, 140352, Note_off_c, 9, 40, 0
8, 140352, Note_on_c, 9, 36, 95
8, 140352, Note_on_c, 9, 46, 66
8, 140371, Note_on_c, 9, 54, 56
8, 140416, Note_off_c, 9, 54, 0
8, 140464, Note_on_c, 9, 54, 50
8, 140499, Note_off_c, 9, 54, 0
8, 140544, Note_off_c, 9, 46, 0
8, 140544, Note_off_c, 9, 36, 0
8, 140544, Note_on_c, 9, 46, 66
8, 140547, Note_on_c, 9, 54, 85
8, 140611, Note_off_c, 9, 54, 0
8, 140640, Note_on_c, 9, 54, 54
8, 140736, Note_off_c, 9, 54, 0
8, 140736, Note_off_c, 9, 46, 0
8, 140736, Note_on_c, 9, 36, 95
8, 140736, Note_on_c, 9, 46, 74
8, 140739, Note_on_c, 9, 54, 57
8, 140787, Note_off_c, 9, 54, 0
8, 140835, Note_on_c, 9, 54, 53
8, 140873, Note_off_c, 9, 54, 0
8, 140921, Note_on_c, 9, 54, 87
8, 140928, Note_off_c, 9, 46, 0
8, 140928, Note_off_c, 9, 36, 0
8, 140928, Note_on_c, 9, 40, 117
8, 140928, Note_on_c, 9, 46, 87
8, 140995, Note_off_c, 9, 54, 0
8, 141024, Note_on_c, 9, 54, 55
8, 141062, Note_off_c, 9, 54, 0
8, 141113, Note_on_c, 9, 54, 59
8, 141120, Note_off_c, 9, 46, 0
8, 141120, Note_off_c, 9, 40, 0
8, 141120, Note_on_c, 9, 46, 74
8, 141164, Note_off_c, 9, 54, 0
8, 141206, Note_on_c, 9, 54, 56
8, 141248, Note_off_c, 9, 54, 0
8, 141312, Note_off_c, 9, 46, 0
8, 141312, Note_on_c, 9, 36, 96
8, 141312, Note_on_c, 9, 46, 62
8, 141312, Note_on_c, 9, 49, 80
8, 141321, Note_on_c, 9, 54, 82
8, 141372, Note_off_c, 9, 54, 0
8, 141420, Note_on_c, 9, 54, 46
8, 141468, Note_off_c, 9, 54, 0
8, 141504, Note_off_c, 9, 46, 0
8, 141504, Note_off_c, 9, 36, 0
8, 141504, Note_on_c, 9, 46, 53
8, 141510, Note_on_c, 9, 54, 54
8, 141555, Note_off_c, 9, 54, 0
8, 141600, Note_on_c, 9, 54, 54
8, 141696, Note_off_c, 9, 54, 0
8, 141696, Note_off_c, 9, 46, 0
8, 141696, Note_on_c, 9, 40, 117
8, 141696, Note_on_c, 9, 46, 72
8, 141699, Note_on_c, 9, 54, 87
8, 141756, Note_off_c, 9, 54, 0
8, 141795, Note_on_c, 9, 54, 49
8, 141852, Note_off_c, 9, 54, 0
8, 141888, Note_off_c, 9, 46, 0
8, 141888, Note_off_c, 9, 40, 0
8, 141888, Note_off_c, 9, 49, 0
8, 141888, Note_on_c, 9, 36, 103
8, 141888, Note_on_c, 9, 46, 64
8, 141907, Note_on_c, 9, 54, 59
8, 141936, Note_off_c, 9, 54, 0
8, 141990, Note_on_c, 9, 54, 50
8, 142035, Note_off_c, 9, 54, 0
8, 142080, Note_off_c, 9, 46, 0
8, 142080, Note_off_c, 9, 36, 0
8, 142080, Note_on_c, 9, 46, 61
8, 142083, Note_on_c, 9, 54, 79
8, 142150, Note_off_c, 9, 54, 0
8, 142182, Note_on_c, 9, 54, 48
8, 142236, Note_off_c, 9, 54, 0
8, 142272, Note_off_c, 9, 46, 0
8, 142272, Note_on_c, 9, 36, 100
8, 142272, Note_on_c, 9, 46, 61
8, 142284, Note_on_c, 9, 54, 56
8, 142336, Note_off_c, 9, 54, 0
8, 142368, Note_on_c, 9, 54, 52
8, 142419, Note_off_c, 9, 54, 0
8, 142464, Note_off_c, 9, 46, 0
8, 142464, Note_off_c, 9, 36, 0
8, 142464, Note_on_c, 9, 40, 117
8, 142464, Note_on_c, 9, 46, 74
8, 142476, Note_on_c, 9, 54, 87
8, 142547, Note_off_c, 9, 54, 0
8, 142569, Note_on_c, 9, 54, 50
8, 142624, Note_off_c, 9, 54, 0
8, 142656, Note_off_c, 9, 46, 0
8, 142656, Note_off_c, 9, 40, 0
8, 142656, Note_on_c, 9, 46, 61
8, 142672, Note_on_c, 9, 54, 51
8, 142723, Note_off_c, 9, 54, 0
8, 142764, Note_on_c, 9, 54, 47
8, 142812, Note_off_c, 9, 54, 0
8, 142848, Note_off_c, 9, 46, 0
8, 142848, Note_on_c, 9, 36, 109
8, 142848, Note_on_c, 9, 46, 70
8, 142857, Note_on_c, 9, 54, 74
8, 142924, Note_off_c, 9, 54, 0
8, 142940, Note_on_c, 9, 54, 50
8, 142995, Note_off_c, 9, 54, 0
8, 143040, Note_off_c, 9, 46, 0
8, 143040, Note_off_c, 9, 36, 0
8, 143040, Note_on_c, 9, 46, 66
8, 143046, Note_on_c, 9, 54, 53
8, 143094, Note_off_c, 9, 54, 0
8, 143132, Note_on_c, 9, 54, 48
8, 143180, Note_off_c, 9, 54, 0
8, 143232, Note_off_c, 9, 46, 0
8, 143232, Note_on_c, 9, 40, 117
8, 143232, Note_on_c, 9, 46, 64
8, 143241, Note_on_c, 9, 54, 85
8, 143315, Note_off_c, 9, 54, 0
8, 143328, Note_on_c, 9, 54, 54
8, 143424, Note_off_c, 9, 54, 0
8, 143424, Note_off_c, 9, 46, 0
8, 143424, Note_off_c, 9, 40, 0
8, 143424, Note_on_c, 9, 36, 99
8, 143424, Note_on_c, 9, 46, 68
8, 143443, Note_on_c, 9, 54, 50
8, 143481, Note_off_c, 9, 54, 0
8, 143526, Note_on_c, 9, 54, 47
8, 143571, Note_off_c, 9, 54, 0
8, 143616, Note_off_c, 9, 46, 0
8, 143616, Note_off_c, 9, 36, 0
8, 143616, Note_on_c, 9, 46, 74
8, 143619, Note_on_c, 9, 54, 66
8, 143670, Note_off_c, 9, 54, 0
8, 143702, Note_on_c, 9, 54, 47
8, 143756, Note_off_c, 9, 54, 0
8, 143808, Note_off_c, 9, 46, 0
8, 143808, Note_on_c, 9, 36, 95
8, 143808, Note_on_c, 9, 46, 68
8, 143811, Note_on_c, 9, 54, 47
8, 143859, Note_off_c, 9, 54, 0
8, 143913, Note_on_c, 9, 54, 47
8, 143958, Note_off_c, 9, 54, 0
8, 144000, Note_off_c, 9, 46, 0
8, 144000, Note_off_c, 9, 36, 0
8, 144000, Note_on_c, 9, 40, 117
8, 144000, Note_on_c, 9, 46, 72
8, 144006, Note_on_c, 9, 54, 87
8, 144076, Note_off_c, 9, 54, 0
8, 144096, Note_on_c, 9, 54, 54
8, 144192, Note_off_c, 9, 54, 0
8, 144192, Note_off_c, 9, 46, 0
8, 144192, Note_off_c, 9, 40, 0
8, 144192, Note_on_c, 9, 46, 61
8, 144204, Note_on_c, 9, 54, 52
8, 144252, Note_off_c, 9, 54, 0
8, 144284, Note_on_c, 9, 54, 48
8, 144332, Note_off_c, 9, 54, 0
8, 144380, Note_on_c, 9, 54, 74
8, 144384, Note_off_c, 9, 46, 0
8, 144384, Note_on_c, 9, 36, 102
8, 144384, Note_on_c, 9, 46, 72
8, 144444, Note_off_c, 9, 54, 0
8, 144483, Note_on_c, 9, 54, 52
8, 144528, Note_off_c, 9, 54, 0
8, 144576, Note_off_c, 9, 46, 0
8, 144576, Note_off_c, 9, 36, 0
8, 144576, Note_on_c, 9, 46, 60
8, 144585, Note_on_c, 9, 54, 50
8, 144636, Note_off_c, 9, 54, 0
8, 144681, Note_on_c, 9, 54, 50
8, 144716, Note_off_c, 9, 54, 0
8, 144768, Note_off_c, 9, 46, 0
8, 144768, Note_on_c, 9, 40, 117
8, 144768, Note_on_c, 9, 46, 66
8, 144780, Note_on_c, 9, 54, 87
8, 144851, Note_off_c, 9, 54, 0
8, 144876, Note_on_c, 9, 54, 56
8, 144915, Note_off_c, 9, 54, 0
8, 144960, Note_off_c, 9, 46, 0
8, 144960, Note_off_c, 9, 40, 0
8, 144960, Note_on_c, 9, 36, 95
8, 144960, Note_on_c, 9, 46, 66
8, 144979, Note_on_c, 9, 54, 56
8, 145024, Note_off_c, 9, 54, 0
8, 145072, Note_on_c, 9, 54, 50
8, 145107, Note_off_c, 9, 54, 0
8, 145152, Note_off_c, 9, 46, 0
8, 145152, Note_off_c, 9, 36, 0
8, 145152, Note_on_c, 9, 46, 66
8, 145155, Note_on_c, 9, 54, 85
8, 145219, Note_off_c, 9, 54, 0
8, 145248, Note_on_c, 9, 54, 54
8, 145344, Note_off_c, 9, 54, 0
8, 145344, Note_off_c, 9, 46, 0
8, 145344, Note_on_c, 9, 36, 95
8, 145344, Note_on_c, 9, 46, 74
8, 145347, Note_on_c, 9, 54, 57
8, 145395, Note_off_c, 9, 54, 0
8, 145443, Note_on_c, 9, 54, 53
8, 145481, Note_off_c, 9, 54, 0
8, 145529, Note_on_c, 9, 54, 87
8, 145536, Note_off_c, 9, 46, 0
8, 145536, Note_off_c, 9, 36, 0
8, 145536, Note_on_c, 9, 40, 117
8, 145536, Note_on_c, 9, 46, 87
8, 145603, Note_off_c, 9, 54, 0
8, 145632, Note_on_c, 9, 54, 55
8, 145670, Note_off_c, 9, 54, 0
8, 145721, Note_on_c, 9, 54, 59
8, 145728, Note_off_c, 9, 46, 0
8, 145728, Note_off_c, 9, 40, 0
8, 145728, Note_on_c, 9, 46, 74
8, 145772, Note_off_c, 9, 54, 0
8, 145814, Note_on_c, 9, 54, 56
8, 145856, Note_off_c, 9, 54, 0
8, 145920, Note_off_c, 9, 46, 0
8, 145920, Note_on_c, 9, 36, 96
8, 145920, Note_on_c, 9, 46, 62
8, 145929, Note_on_c, 9, 54, 82
8, 145980, Note_off_c, 9, 54, 0
8, 146028, Note_on_c, 9, 54, 46
8, 146076, Note_off_c, 9, 54, 0
8, 146112, Note_off_c, 9, 46, 0
8, 146112, Note_off_c, 9, 36, 0
8, 146112, Note_on_c, 9, 46, 53
8, 146118, Note_on_c, 9, 54, 54
8, 146163, Note_off_c, 9, 54, 0
8, 146208, Note_on_c, 9, 54, 54
8, 146304, Note_off_c, 9, 54, 0
8, 146304, Note_off_c, 9, 46, 0
8, 146304, Note_on_c, 9, 40, 117
8, 146304, Note_on_c, 9, 46, 72
8, 146307, Note_on_c, 9, 54, 87
8, 146364, Note_off_c, 9, 54, 0
8, 146403, Note_on_c, 9, 54, 49
8, 146460, Note_off_c, 9, 54, 0
8, 146496, Note_off_c, 9, 46, 0
8, 146496, Note_off_c, 9, 40, 0
8, 146496, Note_on_c, 9, 36, 103
8, 146496, Note_on_c, 9, 46, 64
8, 146515, Note_on_c, 9, 54, 59
8, 146544, Note_off_c, 9, 54, 0
8, 146598, Note_on_c, 9, 54, 50
8, 146643, Note_off_c, 9, 54, 0
8, 146688, Note_off_c, 9, 46, 0
8, 146688, Note_off_c, 9, 36, 0
8, 146688, Note_on_c, 9, 46, 61
8, 146691, Note_on_c, 9, 54, 79
8, 146758, Note_off_c, 9, 54, 0
8, 146790, Note_on_c, 9, 54, 48
8, 146844, Note_off_c, 9, 54, 0
8, 146880, Note_off_c, 9, 46, 0
8, 146880, Note_on_c, 9, 36, 100
8, 146880, Note_on_c, 9, 46, 61
8, 146892, Note_on_c, 9, 54, 56
8, 146944, Note_off_c, 9, 54, 0
8, 146976, Note_on_c, 9, 54, 52
8, 147027, Note_off_c, 9, 54, 0
8, 147072, Note_off_c, 9, 46, 0
8, 147072, Note_off_c, 9, 36, 0
8, 147072, Note_on_c, 9, 40, 117
8, 147072, Note_on_c, 9, 46, 74
8, 147084, Note_on_c, 9, 54, 87
8, 147155, Note_off_c, 9, 54, 0
8, 147177, Note_on_c, 9, 54, 50
8, 147232, Note_off_c, 9, 54, 0
8, 147264, Note_off_c, 9, 46, 0
8, 147264, Note_off_c, 9, 40, 0
8, 147264, Note_on_c, 9, 46, 61
8, 147280, Note_on_c, 9, 54, 51
8, 147331, Note_off_c, 9, 54, 0
8, 147372, Note_on_c, 9, 54, 47
8, 147420, Note_off_c, 9, 54, 0
8, 147456, Note_off_c, 9, 46, 0
8, 147456, Note_on_c, 9, 36, 109
8, 147456, Note_on_c, 9, 46, 70
8, 147456, Note_on_c, 9, 49, 90
8, 147465, Note_on_c, 9, 54, 74
8, 147532, Note_off_c, 9, 54, 0
8, 147548, Note_on_c, 9, 54, 50
8, 147603, Note_off_c, 9, 54, 0
8, 147648, Note_off_c, 9, 46, 0
8, 147648, Note_off_c, 9, 36, 0
8, 147648, Note_on_c, 9, 46, 66
8, 147654, Note_on_c, 9, 54, 53
8, 147702, Note_off_c, 9, 54, 0
8, 147740, Note_on_c, 9, 54, 48
8, 147788, Note_off_c, 9, 54, 0
8, 147840, Note_off_c, 9, 46, 0
8, 147840, Note_on_c, 9, 40, 117
8, 147840, Note_on_c, 9, 46, 64
8, 147849, Note_on_c, 9, 54, 85
8, 147923, Note_off_c, 9, 54, 0
8, 147936, Note_on_c, 9, 54, 54
8, 148032, Note_off_c, 9, 54, 0
8, 148032, Note_off_c, 9, 46, 0
8, 148032, Note_off_c, 9, 40, 0
8, 148032, Note_off_c, 9, 49, 0
8, 148032, Note_on_c, 9, 36, 99
8, 148032, Note_on_c, 9, 46, 68
8, 148051, Note_on_c, 9, 54, 50
8, 148089, Note_off_c, 9, 54, 0
8, 148134, Note_on_c, 9, 54, 47
8, 148179, Note_off_c, 9, 54, 0
8, 148224, Note_off_c, 9, 46, 0
8, 148224, Note_off_c, 9, 36, 0
8, 148224, Note_on_c, 9, 46, 74
8, 148227, Note_on_c, 9, 54, 66
8, 148278, Note_off_c, 9, 54, 0
8, 148310, Note_on_c, 9, 54, 47
8, 148364, Note_off_c, 9, 54, 0
8, 148416, Note_off_c, 9, 46, 0
8, 148416, Note_on_c, 9, 36, 95
8, 148416, Note_on_c, 9, 46, 68
8, 148419, Note_on_c, 9, 54, 47
8, 148467, Note_off_c, 9, 54, 0
8, 148521, Note_on_c, 9, 54, 47
8, 148566, Note_off_c, 9, 54, 0
8, 148608, Note_off_c, 9, 46, 0
8, 148608, Note_off_c, 9, 36, 0
8, 148608, Note_on_c, 9, 40, 117
8, 148608, Note_on_c, 9, 46, 72
8, 148614, Note_on_c, 9, 54, 87
8, 148684, Note_off_c, 9, 54, 0
8, 148704, Note_on_c, 9, 54, 54
8, 148800, Note_off_c, 9, 54, 0
8, 148800, Note_off_c, 9, 46, 0
8, 148800, Note_off_c, 9, 40, 0
8, 148800, Note_on_c, 9, 46, 61
8, 148812, Note_on_c, 9, 54, 52
8, 148860, Note_off_c, 9, 54, 0
8, 148892, Note_on_c, 9, 54, 48
8, 148940, Note_off_c, 9, 54, 0
8, 148988, Note_on_c, 9, 54, 74
8, 148992, Note_off_c, 9, 46, 0
8, 148992, Note_on_c, 9, 36, 102
8, 148992, Note_on_c, 9, 46, 72
8, 149052, Note_off_c, 9, 54, 0
8, 149091, Note_on_c, 9, 54, 52
8, 149136, Note_off_c, 9, 54, 0
8, 149184, Note_off_c, 9, 46, 0
8, 149184, Note_off_c, 9, 36, 0
8, 149184, Note_on_c, 9, 46, 60
8, 149193, Note_on_c, 9, 54, 50
8, 149244, Note_off_c, 9, 54, 0
8, 149289, Note_on_c, 9, 54, 50
8, 149324, Note_off_c, 9, 54, 0
8, 149376, Note_off_c, 9, 46, 0
8, 149376, Note_on_c, 9, 40, 117
8, 149376, Note_on_c, 9, 46, 66
8, 149388, Note_on_c, 9, 54, 87
8, 149459, Note_off_c, 9, 54, 0
8, 149484, Note_on_c, 9, 54, 56
8, 149523, Note_off_c, 9, 54, 0
8, 149568, Note_off_c, 9, 46, 0
8, 149568, Note_off_c, 9, 40, 0
8, 149568, Note_on_c, 9, 36, 95
8, 149568, Note_on_c, 9, 46, 66
8, 149587, Note_on_c, 9, 54, 56
8, 149632, Note_off_c, 9, 54, 0
8, 149680, Note_on_c, 9, 54, 50
8, 149715, Note_off_c, 9, 54, 0
8, 149760, Note_off_c, 9, 46, 0
8, 149760, Note_off_c, 9, 36, 0
8, 149760, Note_on_c, 9, 46, 66
8, 149763, Note_on_c, 9, 54, 85
8, 149827, Note_off_c, 9, 54, 0
8, 149856, Note_on_c, 9, 54, 54
8, 149952, Note_off_c, 9, 54, 0
8, 149952, Note_off_c, 9, 46, 0
8, 149952, Note_on_c, 9, 36, 95
8, 149952, Note_on_c, 9, 46, 74
8, 149955, Note_on_c, 9, 54, 57
8, 150003, Note_off_c, 9, 54, 0
8, 150051, Note_on_c, 9, 54, 53
8, 150089, Note_off_c, 9, 54, 0
8, 150137, Note_on_c, 9, 54, 87
8, 150144, Note_off_c, 9, 46, 0
8, 150144, Note_off_c, 9, 36, 0
8, 150144, Note_on_c, 9, 40, 117
8, 150144, Note_on_c, 9, 46, 87
8, 150211, Note_off_c, 9, 54, 0
8, 150240, Note_on_c, 9, 54, 55
8, 150278, Note_off_c, 9, 54, 0
8, 150329, Note_on_c, 9, 54, 59
8, 150336, Note_off_c, 9, 46, 0
8, 150336, Note_off_c, 9, 40, 0
8, 150336, Note_on_c, 9, 46, 74
8, 150380, Note_off_c, 9, 54, 0
8, 150422, Note_on_c, 9, 54, 56
8, 150464, Note_off_c, 9, 54, 0
8, 150528, Note_off_c, 9, 46, 0
8, 150528, Note_on_c, 9, 35, 54
8, 150528, Note_on_c, 9, 49, 96
8, 150528, Note_on_c, 9, 57, 48
8, 151046, Note_off_c, 9, 57, 0
8, 151056, Note_off_c, 9, 35, 0
8, 151104, Note_off_c, 9, 49, 0
8, 152064, Note_on_c, 9, 36, 106
8, 152064, Note_on_c, 9, 46, 87
8, 152064, Note_on_c, 9, 49, 90
8, 152256, Note_off_c, 9, 49, 0
8, 152256, Note_off_c, 9, 46, 0
8, 152256, Note_off_c, 9, 36, 0
8, 152352, Note_on_c, 9, 40, 117
8, 152352, Note_on_c, 9, 46, 92
8, 152352, Note_on_c, 9, 49, 90
8, 152448, Note_off_c, 9, 49, 0
8, 152448, Note_off_c, 9, 46, 0
8, 152544, Note_off_c, 9, 40, 0
8, 152640, Note_on_c, 9, 36, 105
8, 152640, Note_on_c, 9, 49, 102
8, 152928, Note_off_c, 9, 36, 0
8, 153024, Note_on_c, 9, 40, 117
8, 153120, Note_off_c, 9, 40, 0
8, 153216, Note_off_c, 9, 49, 0
8, 153216, Note_on_c, 9, 40, 117
8, 153312, Note_off_c, 9, 40, 0
8, 153408, Note_on_c, 9, 40, 117
8, 153504, Note_off_c, 9, 40, 0
8, 153504, Note_on_c, 9, 40, 117
8, 153600, Note_off_c, 9, 40, 0
8, 153600, Note_on_c, 9, 36, 96
8, 153600, Note_on_c, 9, 42, 66
8, 153600, Note_on_c, 9, 49, 91
8, 153696, Note_off_c, 9, 42, 0
8, 153792, Note_on_c, 9, 42, 62
8, 153888, Note_off_c, 9, 42, 0
8, 153888, Note_off_c, 9, 36, 0
8, 153984, Note_on_c, 9, 40, 112
8, 153984, Note_on_c, 9, 42, 76
8, 154080, Note_off_c, 9, 42, 0
8, 154176, Note_off_c, 9, 40, 0
8, 154176, Note_off_c, 9, 49, 0
8, 154176, Note_on_c, 9, 42, 66
8, 154272, Note_off_c, 9, 42, 0
8, 154368, Note_on_c, 9, 36, 105
8, 154368, Note_on_c, 9, 42, 66
8, 154464, Note_off_c, 9, 42, 0
8, 154560, Note_off_c, 9, 36, 0
8, 154560, Note_on_c, 9, 42, 59
8, 154656, Note_off_c, 9, 42, 0
8, 154752, Note_on_c, 9, 40, 112
8, 154752, Note_on_c, 9, 42, 71
8, 154848, Note_off_c, 9, 42, 0
8, 154944, Note_off_c, 9, 40, 0
8, 154944, Note_on_c, 9, 42, 71
8, 155040, Note_off_c, 9, 42, 0
8, 155136, Note_on_c, 9, 36, 96
8, 155136, Note_on_c, 9, 42, 66
8, 155232, Note_off_c, 9, 42, 0
8, 155328, Note_on_c, 9, 42, 62
8, 155424, Note_off_c, 9, 42, 0
8, 155424, Note_off_c, 9, 36, 0
8, 155520, Note_on_c, 9, 40, 112
8, 155520, Note_on_c, 9, 42, 76
8, 155616, Note_off_c, 9, 42, 0
8, 155712, Note_off_c, 9, 40, 0
8, 155712, Note_on_c, 9, 42, 66
8, 155808, Note_off_c, 9, 42, 0
8, 155904, Note_on_c, 9, 36, 105
8, 155904, Note_on_c, 9, 42, 66
8, 156000, Note_off_c, 9, 42, 0
8, 156096, Note_off_c, 9, 36, 0
8, 156096, Note_on_c, 9, 42, 59
8, 156192, Note_off_c, 9, 42, 0
8, 156288, Note_on_c, 9, 40, 112
8, 156288, Note_on_c, 9, 42, 71
8, 156384, Note_off_c, 9, 42, 0
8, 156480, Note_off_c, 9, 40, 0
8, 156480, Note_on_c, 9, 42, 71
8, 156576, Note_off_c, 9, 42, 0
8, 156672, Note_on_c, 9, 36, 96
8, 156672, Note_on_c, 9, 42, 66
8, 156768, Note_off_c, 9, 42, 0
8, 156864, Note_on_c, 9, 42, 62
8, 156960, Note_off_c, 9, 42, 0
8, 156960, Note_off_c, 9, 36, 0
8, 157056, Note_on_c, 9, 40, 112
8, 157056, Note_on_c, 9, 42, 76
8, 157152, Note_off_c, 9, 42, 0
8, 157248, Note_off_c, 9, 40, 0
8, 157248, Note_on_c, 9, 42, 66
8, 157344, Note_off_c, 9, 42, 0
8, 157344, Note_on_c, 9, 36, 97
8, 157440, Note_off_c, 9, 36, 0
8, 157440, Note_on_c, 9, 36, 105
8, 157440, Note_on_c, 9, 42, 66
8, 157536, Note_off_c, 9, 42, 0
8, 157632, Note_off_c, 9, 36, 0
8, 157632, Note_on_c, 9, 42, 59
8, 157728, Note_off_c, 9, 42, 0
8, 157824, Note_on_c, 9, 40, 112
8, 157824, Note_on_c, 9, 42, 71
8, 157920, Note_off_c, 9, 42, 0
8, 158016, Note_off_c, 9, 40, 0
8, 158016, Note_on_c, 9, 42, 71
8, 158112, Note_off_c, 9, 42, 0
8, 158208, Note_on_c, 9, 36, 96
8, 158208, Note_on_c, 9, 42, 66
8, 158304, Note_off_c, 9, 42, 0
8, 158400, Note_on_c, 9, 42, 62
8, 158496, Note_off_c, 9, 42, 0
8, 158496, Note_off_c, 9, 36, 0
8, 158592, Note_on_c, 9, 40, 112
8, 158592, Note_on_c, 9, 42, 76
8, 158688, Note_off_c, 9, 42, 0
8, 158784, Note_off_c, 9, 40, 0
8, 158784, Note_on_c, 9, 42, 66
8, 158880, Note_off_c, 9, 42, 0
8, 158880, Note_on_c, 9, 36, 97
8, 158976, Note_off_c, 9, 36, 0
8, 158976, Note_on_c, 9, 36, 105
8, 158976, Note_on_c, 9, 42, 66
8, 159072, Note_off_c, 9, 42, 0
8, 159168, Note_off_c, 9, 36, 0
8, 159168, Note_on_c, 9, 42, 59
8, 159264, Note_off_c, 9, 42, 0
8, 159360, Note_on_c, 9, 40, 112
8, 159360, Note_on_c, 9, 42, 71
8, 159456, Note_off_c, 9, 42, 0
8, 159552, Note_off_c, 9, 40, 0
8, 159552, Note_on_c, 9, 42, 71
8, 159648, Note_off_c, 9, 42, 0
8, 159744, Note_on_c, 9, 36, 96
8, 159744, Note_on_c, 9, 42, 66
8, 159840, Note_off_c, 9, 42, 0
8, 159936, Note_on_c, 9, 42, 62
8, 160032, Note_off_c, 9, 42, 0
8, 160032, Note_off_c, 9, 36, 0
8, 160128, Note_on_c, 9, 40, 112
8, 160128, Note_on_c, 9, 42, 76
8, 160224, Note_off_c, 9, 42, 0
8, 160320, Note_off_c, 9, 40, 0
8, 160320, Note_on_c, 9, 42, 66
8, 160416, Note_off_c, 9, 42, 0
8, 160416, Note_on_c, 9, 36, 97
8, 160512, Note_off_c, 9, 36, 0
8, 160512, Note_on_c, 9, 36, 105
8, 160512, Note_on_c, 9, 42, 66
8, 160608, Note_off_c, 9, 42, 0
8, 160704, Note_off_c, 9, 36, 0
8, 160704, Note_on_c, 9, 42, 59
8, 160800, Note_off_c, 9, 42, 0
8, 160896, Note_on_c, 9, 40, 112
8, 160896, Note_on_c, 9, 42, 71
8, 160992, Note_off_c, 9, 42, 0
8, 161088, Note_off_c, 9, 40, 0
8, 161088, Note_on_c, 9, 42, 71
8, 161184, Note_off_c, 9, 42, 0
8, 161280, Note_on_c, 9, 36, 96
8, 161280, Note_on_c, 9, 42, 66
8, 161280, Note_on_c, 9, 49, 103
8, 161376, Note_off_c, 9, 42, 0
8, 161472, Note_on_c, 9, 42, 62
8, 161568, Note_off_c, 9, 42, 0
8, 161568, Note_off_c, 9, 36, 0
8, 161664, Note_on_c, 9, 40, 112
8, 161664, Note_on_c, 9, 42, 76
8, 161760, Note_off_c, 9, 42, 0
8, 161856, Note_off_c, 9, 40, 0
8, 161856, Note_off_c, 9, 49, 0
8, 161856, Note_on_c, 9, 42, 66
8, 161952, Note_off_c, 9, 42, 0
8, 162048, Note_on_c, 9, 36, 105
8, 162048, Note_on_c, 9, 42, 66
8, 162144, Note_off_c, 9, 42, 0
8, 162240, Note_off_c, 9, 36, 0
8, 162240, Note_on_c, 9, 42, 59
8, 162336, Note_off_c, 9, 42, 0
8, 162432, Note_on_c, 9, 40, 112
8, 162432, Note_on_c, 9, 42, 71
8, 162528, Note_off_c, 9, 42, 0
8, 162624, Note_off_c, 9, 40, 0
8, 162624, Note_on_c, 9, 42, 71
8, 162720, Note_off_c, 9, 42, 0
8, 162816, Note_on_c, 9, 36, 96
8, 162816, Note_on_c, 9, 42, 66
8, 162816, Note_on_c, 9, 49, 80
8, 162912, Note_off_c, 9, 42, 0
8, 163008, Note_on_c, 9, 42, 62
8, 163104, Note_off_c, 9, 42, 0
8, 163104, Note_off_c, 9, 36, 0
8, 163200, Note_on_c, 9, 40, 112
8, 163200, Note_on_c, 9, 42, 76
8, 163296, Note_off_c, 9, 42, 0
8, 163392, Note_off_c, 9, 40, 0
8, 163392, Note_off_c, 9, 49, 0
8, 163392, Note_on_c, 9, 42, 66
8, 163488, Note_off_c, 9, 42, 0
8, 163584, Note_on_c, 9, 36, 105
8, 163584, Note_on_c, 9, 42, 66
8, 163680, Note_off_c, 9, 42, 0
8, 163776, Note_off_c, 9, 36, 0
8, 163776, Note_on_c, 9, 40, 112
8, 163872, Note_off_c, 9, 40, 0
8, 163968, Note_on_c, 9, 40, 112
8, 164064, Note_off_c, 9, 40, 0
8, 164160, Note_on_c, 9, 40, 112
8, 164256, Note_off_c, 9, 40, 0
8, 164256, Note_on_c, 9, 40, 112
8, 164352, Note_off_c, 9, 40, 0
8, 164352, Note_on_c, 9, 36, 96
8, 164352, Note_on_c, 9, 42, 66
8, 164352, Note_on_c, 9, 49, 85
8, 164448, Note_off_c, 9, 42, 0
8, 164544, Note_on_c, 9, 42, 62
8, 164640, Note_off_c, 9, 42, 0
8, 164640, Note_off_c, 9, 36, 0
8, 164736, Note_on_c, 9, 40, 112
8, 164736, Note_on_c, 9, 42, 76
8, 164832, Note_off_c, 9, 42, 0
8, 164928, Note_off_c, 9, 40, 0
8, 164928, Note_off_c, 9, 49, 0
8, 164928, Note_on_c, 9, 42, 66
8, 165024, Note_off_c, 9, 42, 0
8, 165120, Note_on_c, 9, 36, 105
8, 165120, Note_on_c, 9, 42, 66
8, 165216, Note_off_c, 9, 42, 0
8, 165312, Note_off_c, 9, 36, 0
8, 165312, Note_on_c, 9, 42, 59
8, 165408, Note_off_c, 9, 42, 0
8, 165504, Note_on_c, 9, 40, 112
8, 165504, Note_on_c, 9, 42, 71
8, 165600, Note_off_c, 9, 42, 0
8, 165696, Note_off_c, 9, 40, 0
8, 165696, Note_on_c, 9, 42, 71
8, 165792, Note_off_c, 9, 42, 0
8, 165888, Note_on_c, 9, 36, 96
8, 165888, Note_on_c, 9, 42, 66
8, 165984, Note_off_c, 9, 42, 0
8, 166080, Note_on_c, 9, 42, 62
8, 166176, Note_off_c, 9, 42, 0
8, 166176, Note_off_c, 9, 36, 0
8, 166272, Note_on_c, 9, 40, 112
8, 166272, Note_on_c, 9, 42, 76
8, 166368, Note_off_c, 9, 42, 0
8, 166464, Note_off_c, 9, 40, 0
8, 166464, Note_on_c, 9, 42, 66
8, 166560, Note_off_c, 9, 42, 0
8, 166656, Note_on_c, 9, 36, 105
8, 166656, Note_on_c, 9, 42, 66
8, 166752, Note_off_c, 9, 42, 0
8, 166848, Note_off_c, 9, 36, 0
8, 166848, Note_on_c, 9, 42, 59
8, 166944, Note_off_c, 9, 42, 0
8, 167040, Note_on_c, 9, 40, 112
8, 167040, Note_on_c, 9, 42, 71
8, 167136, Note_off_c, 9, 42, 0
8, 167232, Note_off_c, 9, 40, 0
8, 167232, Note_on_c, 9, 42, 71
8, 167328, Note_off_c, 9, 42, 0
8, 167424, Note_on_c, 9, 36, 96
8, 167424, Note_on_c, 9, 42, 66
8, 167424, Note_on_c, 9, 49, 97
8, 167520, Note_off_c, 9, 42, 0
8, 167616, Note_on_c, 9, 42, 62
8, 167712, Note_off_c, 9, 42, 0
8, 167712, Note_off_c, 9, 36, 0
8, 167808, Note_off_c, 9, 49, 0
8, 167808, Note_on_c, 9, 40, 112
8, 167808, Note_on_c, 9, 42, 76
8, 167904, Note_off_c, 9, 42, 0
8, 168000, Note_off_c, 9, 40, 0
8, 168000, Note_on_c, 9, 42, 66
8, 168096, Note_off_c, 9, 42, 0
8, 168096, Note_on_c, 9, 36, 97
8, 168192, Note_off_c, 9, 36, 0
8, 168192, Note_on_c, 9, 36, 105
8, 168192, Note_on_c, 9, 42, 66
8, 168288, Note_off_c, 9, 42, 0
8, 168384, Note_off_c, 9, 36, 0
8, 168384, Note_on_c, 9, 42, 59
8, 168480, Note_off_c, 9, 42, 0
8, 168576, Note_on_c, 9, 40, 112
8, 168576, Note_on_c, 9, 42, 71
8, 168672, Note_off_c, 9, 42, 0
8, 168768, Note_off_c, 9, 40, 0
8, 168768, Note_on_c, 9, 42, 71
8, 168864, Note_off_c, 9, 42, 0
8, 168960, Note_on_c, 9, 36, 96
8, 168960, Note_on_c, 9, 42, 66
8, 169056, Note_off_c, 9, 42, 0
8, 169152, Note_on_c, 9, 42, 62
8, 169248, Note_off_c, 9, 42, 0
8, 169248, Note_off_c, 9, 36, 0
8, 169344, Note_on_c, 9, 40, 112
8, 169344, Note_on_c, 9, 42, 76
8, 169440, Note_off_c, 9, 42, 0
8, 169536, Note_off_c, 9, 40, 0
8, 169536, Note_on_c, 9, 42, 66
8, 169632, Note_off_c, 9, 42, 0
8, 169632, Note_on_c, 9, 36, 97
8, 169728, Note_off_c, 9, 36, 0
8, 169728, Note_on_c, 9, 36, 105
8, 169728, Note_on_c, 9, 42, 66
8, 169824, Note_off_c, 9, 42, 0
8, 169920, Note_off_c, 9, 36, 0
8, 169920, Note_on_c, 9, 42, 59
8, 170016, Note_off_c, 9, 42, 0
8, 170112, Note_on_c, 9, 40, 112
8, 170112, Note_on_c, 9, 42, 71
8, 170208, Note_off_c, 9, 42, 0
8, 170304, Note_off_c, 9, 40, 0
8, 170304, Note_on_c, 9, 42, 71
8, 170400, Note_off_c, 9, 42, 0
8, 170496, Note_on_c, 9, 36, 96
8, 170496, Note_on_c, 9, 42, 66
8, 170496, Note_on_c, 9, 49, 97
8, 170592, Note_off_c, 9, 42, 0
8, 170688, Note_on_c, 9, 42, 62
8, 170784, Note_off_c, 9, 42, 0
8, 170784, Note_off_c, 9, 36, 0
8, 170880, Note_on_c, 9, 40, 112
8, 170880, Note_on_c, 9, 42, 76
8, 170976, Note_off_c, 9, 42, 0
8, 171072, Note_off_c, 9, 40, 0
8, 171072, Note_off_c, 9, 49, 0
8, 171072, Note_on_c, 9, 42, 66
8, 171168, Note_off_c, 9, 42, 0
8, 171168, Note_on_c, 9, 36, 97
8, 171264, Note_off_c, 9, 36, 0
8, 172800, Note_on_c, 9, 49, 97
8, 172800, Note_on_c, 9, 59, 68
8, 172806, Note_on_c, 9, 51, 59
8, 172816, Note_on_c, 9, 46, 88
8, 172940, Note_off_c, 9, 51, 0
8, 172992, Note_off_c, 9, 59, 0
8, 173008, Note_on_c, 9, 51, 32
8, 173024, Note_on_c, 9, 59, 35
8, 173056, Note_off_c, 9, 51, 0
8, 173068, Note_off_c, 9, 59, 0
8, 173110, Note_on_c, 9, 51, 33
8, 173116, Note_on_c, 9, 59, 36
8, 173152, Note_off_c, 9, 51, 0
8, 173164, Note_off_c, 9, 59, 0
8, 173184, Note_off_c, 9, 49, 0
8, 173209, Note_on_c, 9, 51, 59
8, 173216, Note_on_c, 9, 59, 56
8, 173392, Note_off_c, 9, 46, 0
8, 173468, Note_off_c, 9, 51, 0
8, 173491, Note_off_c, 9, 59, 0
8, 173568, Note_on_c, 9, 49, 80
8, 173571, Note_on_c, 9, 46, 102
8, 173593, Note_on_c, 9, 51, 66
8, 173596, Note_on_c, 9, 59, 85
8, 173718, Note_off_c, 9, 51, 0
8, 173721, Note_off_c, 9, 59, 0
8, 173779, Note_on_c, 9, 51, 29
8, 173782, Note_on_c, 9, 59, 40
8, 173824, Note_off_c, 9, 59, 0
8, 173827, Note_off_c, 9, 51, 0
8, 173875, Note_on_c, 9, 51, 33
8, 173878, Note_on_c, 9, 59, 37
8, 173913, Note_off_c, 9, 59, 0
8, 173920, Note_off_c, 9, 51, 0
8, 173952, Note_off_c, 9, 49, 0
8, 173971, Note_on_c, 9, 59, 62
8, 173977, Note_on_c, 9, 51, 71
8, 174169, Note_off_c, 9, 59, 0
8, 174188, Note_off_c, 9, 46, 0
8, 174195, Note_off_c, 9, 51, 0
8, 174355, Note_on_c, 9, 46, 92
8, 174364, Note_on_c, 9, 59, 79
8, 174377, Note_on_c, 9, 51, 66
8, 174473, Note_off_c, 9, 59, 0
8, 174489, Note_off_c, 9, 51, 0
8, 174499, Note_off_c, 9, 46, 0
8, 174556, Note_on_c, 9, 51, 37
8, 174560, Note_on_c, 9, 59, 55
8, 174563, Note_on_c, 9, 46, 102
8, 174633, Note_off_c, 9, 51, 0
8, 174636, Note_off_c, 9, 59, 0
8, 174688, Note_off_c, 9, 46, 0
8, 174742, Note_on_c, 9, 51, 45
8, 174745, Note_on_c, 9, 59, 68
8, 174752, Note_on_c, 9, 46, 88
8, 174825, Note_off_c, 9, 59, 0
8, 174841, Note_off_c, 9, 51, 0
8, 174880, Note_off_c, 9, 46, 0
8, 174912, Note_on_c, 9, 49, 85
8, 174931, Note_on_c, 9, 46, 102
8, 174931, Note_on_c, 9, 59, 60
8, 174937, Note_on_c, 9, 51, 51
8, 174972, Note_off_c, 9, 59, 0
8, 175030, Note_off_c, 9, 51, 0
8, 175033, Note_on_c, 9, 59, 53
8, 175065, Note_off_c, 9, 59, 0
8, 175129, Note_on_c, 9, 51, 51
8, 175200, Note_off_c, 9, 46, 0
8, 175222, Note_on_c, 9, 59, 21
8, 175238, Note_off_c, 9, 51, 0
8, 175244, Note_off_c, 9, 59, 0
8, 175308, Note_on_c, 9, 59, 53
8, 175315, Note_on_c, 9, 51, 35
8, 175360, Note_off_c, 9, 59, 0
8, 175392, Note_off_c, 9, 51, 0
8, 175488, Note_off_c, 9, 49, 0
8, 175500, Note_on_c, 9, 51, 71
8, 175520, Note_on_c, 9, 59, 82
8, 175619, Note_off_c, 9, 51, 0
8, 175705, Note_on_c, 9, 51, 39
8, 175744, Note_off_c, 9, 51, 0
8, 175782, Note_off_c, 9, 59, 0
8, 175801, Note_on_c, 9, 51, 25
8, 175827, Note_off_c, 9, 51, 0
8, 175872, Note_on_c, 9, 49, 85
8, 175884, Note_on_c, 9, 46, 92
8, 175897, Note_on_c, 9, 51, 71
8, 175904, Note_on_c, 9, 59, 82
8, 176025, Note_off_c, 9, 59, 0
8, 176073, Note_on_c, 9, 59, 44
8, 176121, Note_off_c, 9, 59, 0
8, 176128, Note_off_c, 9, 51, 0
8, 176179, Note_on_c, 9, 59, 34
8, 176211, Note_off_c, 9, 59, 0
8, 176256, Note_off_c, 9, 49, 0
8, 176268, Note_on_c, 9, 59, 53
8, 176275, Note_on_c, 9, 51, 49
8, 176380, Note_off_c, 9, 51, 0
8, 176425, Note_off_c, 9, 46, 0
8, 176460, Note_on_c, 9, 51, 37
8, 176499, Note_off_c, 9, 51, 0
8, 176553, Note_off_c, 9, 59, 0
8, 176563, Note_on_c, 9, 51, 30
8, 176595, Note_off_c, 9, 51, 0
8, 176640, Note_on_c, 9, 49, 68
8, 176656, Note_on_c, 9, 46, 97
8, 176659, Note_on_c, 9, 51, 76
8, 176659, Note_on_c, 9, 59, 82
8, 176790, Note_off_c, 9, 59, 0
8, 176857, Note_on_c, 9, 59, 33
8, 176883, Note_off_c, 9, 59, 0
8, 176944, Note_off_c, 9, 51, 0
8, 176947, Note_on_c, 9, 59, 34
8, 176985, Note_off_c, 9, 59, 0
8, 177024, Note_off_c, 9, 49, 0
8, 177030, Note_on_c, 9, 51, 47
8, 177043, Note_on_c, 9, 59, 56
8, 177155, Note_off_c, 9, 51, 0
8, 177228, Note_on_c, 9, 51, 37
8, 177260, Note_off_c, 9, 51, 0
8, 177260, Note_off_c, 9, 46, 0
8, 177321, Note_off_c, 9, 59, 0
8, 177324, Note_on_c, 9, 51, 30
8, 177353, Note_off_c, 9, 51, 0
8, 177414, Note_on_c, 9, 51, 71
8, 177427, Note_on_c, 9, 46, 85
8, 177427, Note_on_c, 9, 59, 79
8, 177542, Note_off_c, 9, 51, 0
8, 177548, Note_off_c, 9, 59, 0
8, 177561, Note_off_c, 9, 46, 0
8, 177609, Note_on_c, 9, 51, 41
8, 177619, Note_on_c, 9, 46, 75
8, 177619, Note_on_c, 9, 59, 60
8, 177708, Note_off_c, 9, 59, 0
8, 177712, Note_off_c, 9, 51, 0
8, 177744, Note_off_c, 9, 46, 0
8, 177808, Note_on_c, 9, 46, 97
8, 177808, Note_on_c, 9, 51, 62
8, 177808, Note_on_c, 9, 59, 58
8, 177891, Note_off_c, 9, 59, 0
8, 177929, Note_off_c, 9, 46, 0
8, 177939, Note_off_c, 9, 51, 0
8, 177984, Note_on_c, 9, 49, 85
8, 177996, Note_on_c, 9, 46, 97
8, 178000, Note_on_c, 9, 59, 76
8, 178019, Note_on_c, 9, 51, 27
8, 178051, Note_off_c, 9, 51, 0
8, 178115, Note_off_c, 9, 59, 0
8, 178115, Note_on_c, 9, 51, 24
8, 178140, Note_off_c, 9, 51, 0
8, 178204, Note_on_c, 9, 51, 40
8, 178249, Note_off_c, 9, 46, 0
8, 178284, Note_on_c, 9, 59, 79
8, 178326, Note_off_c, 9, 59, 0
8, 178332, Note_off_c, 9, 51, 0
8, 178371, Note_on_c, 9, 59, 47
8, 178393, Note_on_c, 9, 51, 31
8, 178422, Note_off_c, 9, 59, 0
8, 178428, Note_off_c, 9, 51, 0
8, 178492, Note_on_c, 9, 51, 23
8, 178518, Note_off_c, 9, 51, 0
8, 178560, Note_off_c, 9, 49, 0
8, 178560, Note_on_c, 9, 59, 82
8, 178588, Note_on_c, 9, 51, 62
8, 178704, Note_off_c, 9, 51, 0
8, 178768, Note_on_c, 9, 51, 51
8, 178806, Note_off_c, 9, 51, 0
8, 178819, Note_off_c, 9, 59, 0
8, 178864, Note_on_c, 9, 51, 39
8, 178896, Note_off_c, 9, 51, 0
8, 178944, Note_on_c, 9, 36, 101
8, 178944, Note_on_c, 9, 42, 71
8, 178944, Note_on_c, 9, 51, 71
8, 179136, Note_off_c, 9, 51, 0
8, 179136, Note_off_c, 9, 42, 0
8, 179136, Note_off_c, 9, 36, 0
8, 179136, Note_on_c, 9, 42, 56
8, 179136, Note_on_c, 9, 51, 71
8, 179328, Note_off_c, 9, 51, 0
8, 179328, Note_off_c, 9, 42, 0
8, 179328, Note_on_c, 9, 36, 77
8, 179328, Note_on_c, 9, 40, 112
8, 179328, Note_on_c, 9, 42, 82
8, 179328, Note_on_c, 9, 51, 88
8, 179520, Note_off_c, 9, 51, 0
8, 179520, Note_off_c, 9, 42, 0
8, 179520, Note_off_c, 9, 36, 0
8, 179520, Note_on_c, 9, 42, 59
8, 179520, Note_on_c, 9, 51, 76
8, 179712, Note_off_c, 9, 51, 0
8, 179712, Note_off_c, 9, 42, 0
8, 179712, Note_off_c, 9, 40, 0
8, 179712, Note_on_c, 9, 36, 98
8, 179712, Note_on_c, 9, 42, 66
8, 179712, Note_on_c, 9, 51, 71
8, 179904, Note_off_c, 9, 51, 0
8, 179904, Note_off_c, 9, 42, 0
8, 179904, Note_off_c, 9, 36, 0
8, 179904, Note_on_c, 9, 42, 59
8, 179904, Note_on_c, 9, 51, 71
8, 180096, Note_off_c, 9, 51, 0
8, 180096, Note_off_c, 9, 42, 0
8, 180096, Note_on_c, 9, 36, 86
8, 180096, Note_on_c, 9, 40, 112
8, 180096, Note_on_c, 9, 42, 71
8, 180096, Note_on_c, 9, 51, 88
8, 180288, Note_off_c, 9, 51, 0
8, 180288, Note_off_c, 9, 42, 0
8, 180288, Note_off_c, 9, 36, 0
8, 180288, Note_on_c, 9, 42, 66
8, 180288, Note_on_c, 9, 51, 62
8, 180480, Note_off_c, 9, 51, 0
8, 180480, Note_off_c, 9, 42, 0
8, 180480, Note_off_c, 9, 40, 0
8, 180480, Note_on_c, 9, 36, 94
8, 180480, Note_on_c, 9, 42, 59
8, 180480, Note_on_c, 9, 51, 66
8, 180672, Note_off_c, 9, 51, 0
8, 180672, Note_off_c, 9, 42, 0
8, 180672, Note_on_c, 9, 42, 66
8, 180672, Note_on_c, 9, 51, 71
8, 180864, Note_off_c, 9, 51, 0
8, 180864, Note_off_c, 9, 42, 0
8, 180864, Note_off_c, 9, 36, 0
8, 180864, Note_on_c, 9, 40, 112
8, 180864, Note_on_c, 9, 42, 71
8, 180864, Note_on_c, 9, 51, 88
8, 181056, Note_off_c, 9, 51, 0
8, 181056, Note_off_c, 9, 42, 0
8, 181056, Note_on_c, 9, 42, 76
8, 181056, Note_on_c, 9, 51, 62
8, 181248, Note_off_c, 9, 51, 0
8, 181248, Note_off_c, 9, 42, 0
8, 181248, Note_off_c, 9, 40, 0
8, 181248, Note_on_c, 9, 36, 96
8, 181248, Note_on_c, 9, 42, 66
8, 181248, Note_on_c, 9, 51, 71
8, 181440, Note_off_c, 9, 51, 0
8, 181440, Note_off_c, 9, 42, 0
8, 181440, Note_on_c, 9, 42, 62
8, 181440, Note_on_c, 9, 51, 49
8, 181632, Note_off_c, 9, 51, 0
8, 181632, Note_off_c, 9, 42, 0
8, 181632, Note_off_c, 9, 36, 0
8, 181632, Note_on_c, 9, 40, 112
8, 181632, Note_on_c, 9, 51, 88
8, 181824, Note_off_c, 9, 51, 0
8, 181824, Note_off_c, 9, 40, 0
8, 181824, Note_on_c, 9, 42, 66
8, 181824, Note_on_c, 9, 51, 59
8, 182016, Note_off_c, 9, 51, 0
8, 182016, Note_off_c, 9, 42, 0
8, 182016, Note_on_c, 9, 36, 97
8, 182016, Note_on_c, 9, 42, 66
8, 182016, Note_on_c, 9, 49, 22
8, 182016, Note_on_c, 9, 57, 71
8, 182208, Note_off_c, 9, 57, 0
8, 182208, Note_off_c, 9, 42, 0
8, 182208, Note_off_c, 9, 36, 0
8, 183744, Note_off_c, 9, 49, 0
8, 185088, Control_c, 9, 121, 0
8, 185184, Control_c, 9, 11, 127
8, 186624, End_track
9, 0, Start_track
9, 0, Title_t, "GM/GS"
9, 2, System_exclusive, 5, 126, 127, 9, 1, 247
9, 732, System_exclusive, 10, 65, 16, 66, 18, 64, 0, 127, 0, 65, 247
9, 1537, System_exclusive, 10, 65, 16, 66, 18, 64, 1, 48, 3, 12, 247
9, 1540, System_exclusive, 10, 65, 16, 66, 18, 64, 1, 51, 91, 49, 247
9, 1541, System_exclusive, 10, 65, 16, 66, 18, 64, 1, 52, 91, 48, 247
9, 1544, System_exclusive, 10, 65, 16, 66, 18, 64, 1, 49, 4, 10, 247
9, 1550, System_exclusive, 10, 65, 16, 66, 18, 64, 1, 55, 89, 47, 247
9, 1551, System_exclusive, 10, 65, 16, 66, 18, 64, 1, 56, 0, 7, 247
9, 1566, System_exclusive, 10, 65, 16, 66, 18, 64, 1, 62, 43, 86, 247
9, 1576, System_exclusive, 10, 65, 16, 66, 18, 64, 1, 61, 0, 2, 247
9, 1592, System_exclusive, 10, 65, 16, 66, 18, 64, 1, 56, 0, 7, 247
9, 3072, End_track
0, 0, End_of_file
